{
  "jsonPath": "Rock/Celtic Rock/The Corrs/so-young-k-klass-remix.json",
  "path": "Rock\\Celtic Rock\\The Corrs\\So Young ( K-Klass Remix ).mid",
  "name": "So Young ( K-Klass Remix )",
  "difficulty": "Advanced",
  "bpm": 106.00032506766354,
  "notes": [
    {
      "midi": 31,
      "hit": false,
      "t": 5377.342,
      "d": 141.50900000000001,
      "v": 96
    },
    {
      "midi": 43,
      "hit": false,
      "t": 5518.851,
      "d": 141.50900000000001,
      "v": 96
    },
    {
      "midi": 31,
      "hit": false,
      "t": 7641.486,
      "d": 141.50900000000001,
      "v": 96
    },
    {
      "midi": 43,
      "hit": false,
      "t": 7782.995,
      "d": 141.50900000000001,
      "v": 96
    },
    {
      "midi": 48,
      "hit": false,
      "t": 8994.6658125,
      "d": 100.2355416666669,
      "v": 84
    },
    {
      "midi": 31,
      "hit": false,
      "t": 9050.679791666664,
      "d": 400.9421666666658,
      "v": 110
    },
    {
      "midi": 59,
      "hit": false,
      "t": 9056.576,
      "d": 2110.8425833333313,
      "v": 98
    },
    {
      "midi": 50,
      "hit": false,
      "t": 9056.576,
      "d": 176.88625000000138,
      "v": 84
    },
    {
      "midi": 67,
      "hit": false,
      "t": 9059.524104166667,
      "d": 1839.6170000000002,
      "v": 86
    },
    {
      "midi": 62,
      "hit": false,
      "t": 9059.524104166667,
      "d": 1851.4094166666673,
      "v": 86
    },
    {
      "midi": 62,
      "hit": false,
      "t": 9060.998156249998,
      "d": 1073.1099166666663,
      "v": 85
    },
    {
      "midi": 67,
      "hit": false,
      "t": 9060.998156249998,
      "d": 1087.8504374999993,
      "v": 95
    },
    {
      "midi": 71,
      "hit": false,
      "t": 9062.472208333329,
      "d": 1114.3833749999976,
      "v": 95
    },
    {
      "midi": 50,
      "hit": false,
      "t": 9062.472208333333,
      "d": 2270.04020833333,
      "v": 95
    },
    {
      "midi": 55,
      "hit": false,
      "t": 9065.420312499999,
      "d": 2101.998270833332,
      "v": 96
    },
    {
      "midi": 43,
      "hit": false,
      "t": 9068.368416666666,
      "d": 2202.2338124999987,
      "v": 95
    },
    {
      "midi": 62,
      "hit": false,
      "t": 9071.316520833332,
      "d": 2090.2058541666647,
      "v": 106
    },
    {
      "midi": 67,
      "hit": false,
      "t": 9083.1089375,
      "d": 2110.8425833333313,
      "v": 108
    },
    {
      "midi": 52,
      "hit": false,
      "t": 9339.594000000001,
      "d": 141.50900000000001,
      "v": 88
    },
    {
      "midi": 31,
      "hit": false,
      "t": 9616.715791666662,
      "d": 344.9281874999997,
      "v": 110
    },
    {
      "midi": 55,
      "hit": false,
      "t": 9622.612000000001,
      "d": 1550.7027916666648,
      "v": 95
    },
    {
      "midi": 62,
      "hit": false,
      "t": 9628.508208333335,
      "d": 2149.1679374999985,
      "v": 65
    },
    {
      "midi": 31,
      "hit": false,
      "t": 10067.775729166662,
      "d": 35.37724999999955,
      "v": 110
    },
    {
      "midi": 69,
      "hit": false,
      "t": 10185.699895833326,
      "d": 1120.279583333333,
      "v": 85
    },
    {
      "midi": 31,
      "hit": false,
      "t": 10188.647999999996,
      "d": 88.44312499999978,
      "v": 110
    },
    {
      "midi": 62,
      "hit": false,
      "t": 10193.070156249998,
      "d": 1114.3833749999994,
      "v": 85
    },
    {
      "midi": 66,
      "hit": false,
      "t": 10193.070156249998,
      "d": 1117.3314791666653,
      "v": 95
    },
    {
      "midi": 31,
      "hit": false,
      "t": 10471.665999999996,
      "d": 330.1876666666667,
      "v": 110
    },
    {
      "midi": 31,
      "hit": false,
      "t": 11037.701999999996,
      "d": 250.58885416666635,
      "v": 110
    },
    {
      "midi": 67,
      "hit": false,
      "t": 11037.702,
      "d": 259.4331666666658,
      "v": 86
    },
    {
      "midi": 62,
      "hit": false,
      "t": 11040.650104166665,
      "d": 259.4331666666658,
      "v": 86
    },
    {
      "midi": 48,
      "hit": false,
      "t": 11226.380666666666,
      "d": 88.44312499999978,
      "v": 76
    },
    {
      "midi": 60,
      "hit": false,
      "t": 11308.92758333333,
      "d": 1774.758708333331,
      "v": 99
    },
    {
      "midi": 55,
      "hit": false,
      "t": 11311.875687499998,
      "d": 2022.3994583333315,
      "v": 95
    },
    {
      "midi": 48,
      "hit": false,
      "t": 11314.823791666664,
      "d": 1942.800645833333,
      "v": 95
    },
    {
      "midi": 24,
      "hit": false,
      "t": 11317.771895833328,
      "d": 356.7206041666668,
      "v": 110
    },
    {
      "midi": 67,
      "hit": false,
      "t": 11317.77189583333,
      "d": 1795.3954374999994,
      "v": 104
    },
    {
      "midi": 55,
      "hit": false,
      "t": 11317.77189583333,
      "d": 1821.9283749999995,
      "v": 94
    },
    {
      "midi": 64,
      "hit": false,
      "t": 11320.719999999996,
      "d": 1780.6549166666664,
      "v": 102
    },
    {
      "midi": 50,
      "hit": false,
      "t": 11320.72,
      "d": 194.57487500000025,
      "v": 79
    },
    {
      "midi": 67,
      "hit": false,
      "t": 11323.668104166663,
      "d": 1816.032166666666,
      "v": 86
    },
    {
      "midi": 62,
      "hit": false,
      "t": 11323.668104166663,
      "d": 1827.824583333333,
      "v": 86
    },
    {
      "midi": 60,
      "hit": false,
      "t": 11325.142156249996,
      "d": 1049.525083333334,
      "v": 85
    },
    {
      "midi": 64,
      "hit": false,
      "t": 11325.142156249996,
      "d": 1052.4731874999998,
      "v": 95
    },
    {
      "midi": 72,
      "hit": false,
      "t": 11326.616208333326,
      "d": 1123.227687499997,
      "v": 95
    },
    {
      "midi": 52,
      "hit": false,
      "t": 11603.738,
      "d": 147.40520833333358,
      "v": 83
    },
    {
      "midi": 55,
      "hit": false,
      "t": 11886.756,
      "d": 1241.1518541666683,
      "v": 95
    },
    {
      "midi": 24,
      "hit": false,
      "t": 11889.704104166662,
      "d": 283.01800000000003,
      "v": 110
    },
    {
      "midi": 62,
      "hit": false,
      "t": 11892.652208333333,
      "d": 1223.4632291666676,
      "v": 65
    },
    {
      "midi": 24,
      "hit": false,
      "t": 12328.971624999995,
      "d": 35.37724999999955,
      "v": 110
    },
    {
      "midi": 24,
      "hit": false,
      "t": 12446.89579166666,
      "d": 94.33933333333334,
      "v": 110
    },
    {
      "midi": 62,
      "hit": false,
      "t": 12457.214156249996,
      "d": 548.3473749999994,
      "v": 95
    },
    {
      "midi": 60,
      "hit": false,
      "t": 12457.214156249996,
      "d": 831.3653749999994,
      "v": 85
    },
    {
      "midi": 66,
      "hit": false,
      "t": 12458.688208333322,
      "d": 551.2954791666671,
      "v": 95
    },
    {
      "midi": 24,
      "hit": false,
      "t": 12738.75810416666,
      "d": 330.1876666666667,
      "v": 110
    },
    {
      "midi": 67,
      "hit": false,
      "t": 13015.879895833323,
      "d": 277.12179166666647,
      "v": 86
    },
    {
      "midi": 64,
      "hit": false,
      "t": 13023.250156249997,
      "d": 262.3812708333335,
      "v": 95
    },
    {
      "midi": 57,
      "hit": false,
      "t": 13281.20927083333,
      "d": 250.58885416666635,
      "v": 95
    },
    {
      "midi": 50,
      "hit": false,
      "t": 13287.105479166663,
      "d": 265.32937499999935,
      "v": 95
    },
    {
      "midi": 62,
      "hit": false,
      "t": 13293.001687499996,
      "d": 138.56089583333414,
      "v": 98
    },
    {
      "midi": 67,
      "hit": false,
      "t": 13293.001687499996,
      "d": 138.56089583333414,
      "v": 103
    },
    {
      "midi": 69,
      "hit": false,
      "t": 13298.897895833323,
      "d": 241.74454166666692,
      "v": 82
    },
    {
      "midi": 69,
      "hit": false,
      "t": 13298.89789583333,
      "d": 135.61279166666645,
      "v": 110
    },
    {
      "midi": 57,
      "hit": false,
      "t": 13298.89789583333,
      "d": 138.56089583333232,
      "v": 101
    },
    {
      "midi": 67,
      "hit": false,
      "t": 13298.89789583333,
      "d": 259.4331666666658,
      "v": 86
    },
    {
      "midi": 24,
      "hit": false,
      "t": 13301.845999999994,
      "d": 253.53695833333404,
      "v": 110
    },
    {
      "midi": 62,
      "hit": false,
      "t": 13301.845999999996,
      "d": 259.4331666666658,
      "v": 86
    },
    {
      "midi": 55,
      "hit": false,
      "t": 13301.846000000001,
      "d": 533.6068541666664,
      "v": 95
    },
    {
      "midi": 66,
      "hit": false,
      "t": 13306.268156249997,
      "d": 256.4850624999999,
      "v": 95
    },
    {
      "midi": 62,
      "hit": false,
      "t": 13306.268156249997,
      "d": 259.4331666666658,
      "v": 85
    },
    {
      "midi": 62,
      "hit": false,
      "t": 13307.742208333335,
      "d": 1058.3693958333333,
      "v": 65
    },
    {
      "midi": 57,
      "hit": false,
      "t": 13446.303104166662,
      "d": 126.7684791666652,
      "v": 84
    },
    {
      "midi": 62,
      "hit": false,
      "t": 13446.303104166662,
      "d": 126.7684791666652,
      "v": 87
    },
    {
      "midi": 67,
      "hit": false,
      "t": 13446.303104166662,
      "d": 126.7684791666652,
      "v": 88
    },
    {
      "midi": 69,
      "hit": false,
      "t": 13449.251208333328,
      "d": 123.82037499999933,
      "v": 92
    },
    {
      "midi": 62,
      "hit": false,
      "t": 13581.915895833328,
      "d": 1863.2018333333344,
      "v": 86
    },
    {
      "midi": 26,
      "hit": false,
      "t": 13584.863999999994,
      "d": 386.2016458333328,
      "v": 110
    },
    {
      "midi": 57,
      "hit": false,
      "t": 13584.863999999994,
      "d": 1798.3435416666653,
      "v": 94
    },
    {
      "midi": 62,
      "hit": false,
      "t": 13587.81210416666,
      "d": 1818.9802708333318,
      "v": 98
    },
    {
      "midi": 67,
      "hit": false,
      "t": 13587.812104166662,
      "d": 1851.4094166666673,
      "v": 86
    },
    {
      "midi": 67,
      "hit": false,
      "t": 13590.760208333326,
      "d": 1816.032166666666,
      "v": 102
    },
    {
      "midi": 50,
      "hit": false,
      "t": 13593.708312499995,
      "d": 4059.5394375000033,
      "v": 95
    },
    {
      "midi": 69,
      "hit": false,
      "t": 13599.604520833325,
      "d": 1816.032166666666,
      "v": 105
    },
    {
      "midi": 57,
      "hit": false,
      "t": 13599.604520833329,
      "d": 4044.7989166666684,
      "v": 95
    },
    {
      "midi": 57,
      "hit": false,
      "t": 13867.882000000001,
      "d": 147.40520833333358,
      "v": 95
    },
    {
      "midi": 26,
      "hit": false,
      "t": 14147.951895833326,
      "d": 365.56491666666625,
      "v": 110
    },
    {
      "midi": 57,
      "hit": false,
      "t": 14150.900000000001,
      "d": 141.50900000000001,
      "v": 95
    },
    {
      "midi": 55,
      "hit": false,
      "t": 14433.918000000001,
      "d": 159.1976250000007,
      "v": 95
    },
    {
      "midi": 62,
      "hit": false,
      "t": 14439.814208333335,
      "d": 200.4710833333338,
      "v": 65
    },
    {
      "midi": 26,
      "hit": false,
      "t": 14596.063729166659,
      "d": 35.37724999999955,
      "v": 110
    },
    {
      "midi": 26,
      "hit": false,
      "t": 14716.935999999992,
      "d": 85.49502083333391,
      "v": 110
    },
    {
      "midi": 57,
      "hit": false,
      "t": 14716.936000000002,
      "d": 203.41918749999968,
      "v": 95
    },
    {
      "midi": 62,
      "hit": false,
      "t": 14722.832208333335,
      "d": 238.79643749999923,
      "v": 65
    },
    {
      "midi": 26,
      "hit": false,
      "t": 15002.90210416666,
      "d": 359.6687083333327,
      "v": 110
    },
    {
      "midi": 62,
      "hit": false,
      "t": 15554.197583333325,
      "d": 132.66468749999876,
      "v": 99
    },
    {
      "midi": 26,
      "hit": false,
      "t": 15560.093791666659,
      "d": 61.910187499999665,
      "v": 110
    },
    {
      "midi": 67,
      "hit": false,
      "t": 15560.093791666659,
      "d": 129.71658333333107,
      "v": 104
    },
    {
      "midi": 62,
      "hit": false,
      "t": 15560.093791666663,
      "d": 259.4331666666676,
      "v": 86
    },
    {
      "midi": 69,
      "hit": false,
      "t": 15563.041895833325,
      "d": 135.61279166666463,
      "v": 98
    },
    {
      "midi": 67,
      "hit": false,
      "t": 15565.989999999996,
      "d": 259.4331666666676,
      "v": 86
    },
    {
      "midi": 55,
      "hit": false,
      "t": 15565.99,
      "d": 539.5030624999999,
      "v": 95
    },
    {
      "midi": 57,
      "hit": false,
      "t": 15568.938104166658,
      "d": 129.71658333333107,
      "v": 102
    },
    {
      "midi": 62,
      "hit": false,
      "t": 15571.886208333333,
      "d": 1311.9063541666656,
      "v": 65
    },
    {
      "midi": 57,
      "hit": false,
      "t": 15707.498999999989,
      "d": 123.82037499999751,
      "v": 82
    },
    {
      "midi": 62,
      "hit": false,
      "t": 15707.498999999989,
      "d": 126.76847916666338,
      "v": 86
    },
    {
      "midi": 67,
      "hit": false,
      "t": 15710.447104166655,
      "d": 123.82037499999751,
      "v": 88
    },
    {
      "midi": 69,
      "hit": false,
      "t": 15713.39520833332,
      "d": 123.82037499999751,
      "v": 88
    },
    {
      "midi": 67,
      "hit": false,
      "t": 15843.111791666664,
      "d": 1034.784562499999,
      "v": 86
    },
    {
      "midi": 57,
      "hit": false,
      "t": 15849.007999999985,
      "d": 1774.7587083333328,
      "v": 94
    },
    {
      "midi": 26,
      "hit": false,
      "t": 15849.007999999993,
      "d": 353.7724999999991,
      "v": 110
    },
    {
      "midi": 62,
      "hit": false,
      "t": 15851.956104166651,
      "d": 1765.9143958333352,
      "v": 86
    },
    {
      "midi": 62,
      "hit": false,
      "t": 15851.956104166664,
      "d": 1040.6807708333326,
      "v": 86
    },
    {
      "midi": 67,
      "hit": false,
      "t": 15854.904208333317,
      "d": 1762.9662916666693,
      "v": 98
    },
    {
      "midi": 69,
      "hit": false,
      "t": 15860.80041666665,
      "d": 1748.2257708333345,
      "v": 103
    },
    {
      "midi": 57,
      "hit": false,
      "t": 16132.026,
      "d": 117.92416666666577,
      "v": 95
    },
    {
      "midi": 26,
      "hit": false,
      "t": 16415.04399999999,
      "d": 339.03197916666613,
      "v": 110
    },
    {
      "midi": 57,
      "hit": false,
      "t": 16415.043999999998,
      "d": 250.58885416666817,
      "v": 95
    },
    {
      "midi": 55,
      "hit": false,
      "t": 16698.061999999998,
      "d": 135.61279166666645,
      "v": 95
    },
    {
      "midi": 26,
      "hit": false,
      "t": 16857.25962499999,
      "d": 32.42914583333186,
      "v": 110
    },
    {
      "midi": 62,
      "hit": false,
      "t": 16975.183791666663,
      "d": 259.4331666666694,
      "v": 86
    },
    {
      "midi": 57,
      "hit": false,
      "t": 16981.079999999998,
      "d": 170.99004166666418,
      "v": 95
    },
    {
      "midi": 26,
      "hit": false,
      "t": 16984.028104166657,
      "d": 67.80639583333323,
      "v": 110
    },
    {
      "midi": 67,
      "hit": false,
      "t": 16984.028104166664,
      "d": 259.4331666666694,
      "v": 86
    },
    {
      "midi": 62,
      "hit": false,
      "t": 16986.97620833333,
      "d": 162.14572916666657,
      "v": 65
    },
    {
      "midi": 62,
      "hit": false,
      "t": 17258.201791666666,
      "d": 259.4331666666658,
      "v": 86
    },
    {
      "midi": 26,
      "hit": false,
      "t": 17261.149895833325,
      "d": 262.38127083333166,
      "v": 110
    },
    {
      "midi": 67,
      "hit": false,
      "t": 17261.149895833332,
      "d": 259.4331666666658,
      "v": 86
    },
    {
      "midi": 55,
      "hit": false,
      "t": 17264.097999999994,
      "d": 170.99004166666418,
      "v": 95
    },
    {
      "midi": 62,
      "hit": false,
      "t": 17269.994208333326,
      "d": 173.9381458333337,
      "v": 65
    },
    {
      "midi": 50,
      "hit": false,
      "t": 17514.68685416666,
      "d": 79.59881249999671,
      "v": 72
    },
    {
      "midi": 52,
      "hit": false,
      "t": 17547.11599999999,
      "d": 173.9381458333337,
      "v": 77
    },
    {
      "midi": 26,
      "hit": false,
      "t": 17550.064104166657,
      "d": 114.97606250000172,
      "v": 110
    },
    {
      "midi": 62,
      "hit": false,
      "t": 17553.012208333323,
      "d": 103.1836458333346,
      "v": 65
    },
    {
      "midi": 43,
      "hit": false,
      "t": 17818.34158333333,
      "d": 247.64074999999866,
      "v": 95
    },
    {
      "midi": 59,
      "hit": false,
      "t": 17821.289687499986,
      "d": 126.7684791666652,
      "v": 86
    },
    {
      "midi": 62,
      "hit": false,
      "t": 17821.289687499986,
      "d": 126.7684791666652,
      "v": 83
    },
    {
      "midi": 55,
      "hit": false,
      "t": 17824.237791666652,
      "d": 132.66468750000058,
      "v": 77
    },
    {
      "midi": 67,
      "hit": false,
      "t": 17824.237791666652,
      "d": 132.66468750000058,
      "v": 94
    },
    {
      "midi": 50,
      "hit": false,
      "t": 17824.237791666663,
      "d": 244.6926458333328,
      "v": 95
    },
    {
      "midi": 62,
      "hit": false,
      "t": 17824.237791666663,
      "d": 259.4331666666658,
      "v": 86
    },
    {
      "midi": 67,
      "hit": false,
      "t": 17827.18589583333,
      "d": 259.4331666666658,
      "v": 86
    },
    {
      "midi": 55,
      "hit": false,
      "t": 17830.13399999999,
      "d": 695.7525833333348,
      "v": 94
    },
    {
      "midi": 62,
      "hit": false,
      "t": 17836.030208333323,
      "d": 2998.221937500006,
      "v": 65
    },
    {
      "midi": 59,
      "hit": false,
      "t": 17956.902479166652,
      "d": 126.7684791666652,
      "v": 90
    },
    {
      "midi": 67,
      "hit": false,
      "t": 17956.902479166652,
      "d": 135.61279166666282,
      "v": 92
    },
    {
      "midi": 62,
      "hit": false,
      "t": 17959.85058333332,
      "d": 138.5608958333287,
      "v": 84
    },
    {
      "midi": 55,
      "hit": false,
      "t": 17962.798687499984,
      "d": 126.7684791666652,
      "v": 81
    },
    {
      "midi": 48,
      "hit": false,
      "t": 18051.24181249999,
      "d": 100.23554166666872,
      "v": 84
    },
    {
      "midi": 67,
      "hit": false,
      "t": 18110.20389583333,
      "d": 1839.6169999999947,
      "v": 86
    },
    {
      "midi": 59,
      "hit": false,
      "t": 18113.15199999998,
      "d": 2110.8425833333313,
      "v": 98
    },
    {
      "midi": 50,
      "hit": false,
      "t": 18113.15199999999,
      "d": 176.88624999999956,
      "v": 84
    },
    {
      "midi": 71,
      "hit": false,
      "t": 18113.152000000002,
      "d": 2240.559166666666,
      "v": 40
    },
    {
      "midi": 74,
      "hit": false,
      "t": 18113.152000000002,
      "d": 2240.559166666666,
      "v": 40
    },
    {
      "midi": 79,
      "hit": false,
      "t": 18113.152000000002,
      "d": 2240.559166666666,
      "v": 40
    },
    {
      "midi": 31,
      "hit": false,
      "t": 18116.10010416666,
      "d": 400.9421666666676,
      "v": 110
    },
    {
      "midi": 62,
      "hit": false,
      "t": 18116.10010416666,
      "d": 1851.4094166666619,
      "v": 86
    },
    {
      "midi": 62,
      "hit": false,
      "t": 18117.574156249993,
      "d": 1073.1099166666681,
      "v": 85
    },
    {
      "midi": 67,
      "hit": false,
      "t": 18117.574156249993,
      "d": 1087.8504375000011,
      "v": 95
    },
    {
      "midi": 71,
      "hit": false,
      "t": 18119.048208333323,
      "d": 1114.383374999994,
      "v": 95
    },
    {
      "midi": 55,
      "hit": false,
      "t": 18121.99631249998,
      "d": 2101.99827083333,
      "v": 96
    },
    {
      "midi": 43,
      "hit": false,
      "t": 18121.996312499992,
      "d": 2258.2477916666576,
      "v": 95
    },
    {
      "midi": 50,
      "hit": false,
      "t": 18124.944416666658,
      "d": 2281.832624999992,
      "v": 95
    },
    {
      "midi": 62,
      "hit": false,
      "t": 18127.892520833313,
      "d": 2090.2058541666665,
      "v": 106
    },
    {
      "midi": 67,
      "hit": false,
      "t": 18139.68493749998,
      "d": 2110.8425833333313,
      "v": 108
    },
    {
      "midi": 52,
      "hit": false,
      "t": 18396.16999999999,
      "d": 141.50900000000183,
      "v": 88
    },
    {
      "midi": 67,
      "hit": false,
      "t": 18396.170000000002,
      "d": 132.66468750000058,
      "v": 55
    },
    {
      "midi": 79,
      "hit": false,
      "t": 18567.16004166667,
      "d": 132.66468750000058,
      "v": 55
    },
    {
      "midi": 55,
      "hit": false,
      "t": 18679.187999999995,
      "d": 1550.7027916666666,
      "v": 95
    },
    {
      "midi": 31,
      "hit": false,
      "t": 18682.13610416666,
      "d": 339.03197916666613,
      "v": 110
    },
    {
      "midi": 67,
      "hit": false,
      "t": 18820.697000000004,
      "d": 132.66468750000058,
      "v": 55
    },
    {
      "midi": 79,
      "hit": false,
      "t": 18991.68704166667,
      "d": 132.66468750000058,
      "v": 55
    },
    {
      "midi": 31,
      "hit": false,
      "t": 19118.455520833326,
      "d": 38.32535416666724,
      "v": 110
    },
    {
      "midi": 69,
      "hit": false,
      "t": 19242.275895833318,
      "d": 1120.2795833333112,
      "v": 85
    },
    {
      "midi": 31,
      "hit": false,
      "t": 19242.275895833325,
      "d": 56.013979166666104,
      "v": 110
    },
    {
      "midi": 62,
      "hit": false,
      "t": 19249.646156249994,
      "d": 1114.3833750000013,
      "v": 85
    },
    {
      "midi": 66,
      "hit": false,
      "t": 19249.646156249994,
      "d": 1117.3314791666671,
      "v": 95
    },
    {
      "midi": 67,
      "hit": false,
      "t": 19528.242000000006,
      "d": 132.66468750000058,
      "v": 55
    },
    {
      "midi": 31,
      "hit": false,
      "t": 19531.190104166657,
      "d": 386.2016458333346,
      "v": 110
    },
    {
      "midi": 79,
      "hit": false,
      "t": 19699.232041666673,
      "d": 132.66468750000058,
      "v": 55
    },
    {
      "midi": 67,
      "hit": false,
      "t": 19952.769000000008,
      "d": 132.66468750000058,
      "v": 55
    },
    {
      "midi": 62,
      "hit": false,
      "t": 20088.381791666656,
      "d": 259.4331666666658,
      "v": 86
    },
    {
      "midi": 31,
      "hit": false,
      "t": 20091.329895833325,
      "d": 153.30141666666532,
      "v": 110
    },
    {
      "midi": 67,
      "hit": false,
      "t": 20094.277999999988,
      "d": 259.4331666666658,
      "v": 86
    },
    {
      "midi": 79,
      "hit": false,
      "t": 20123.759041666675,
      "d": 132.66468750000058,
      "v": 55
    },
    {
      "midi": 48,
      "hit": false,
      "t": 20282.95666666666,
      "d": 88.4431250000016,
      "v": 76
    },
    {
      "midi": 60,
      "hit": false,
      "t": 20365.503583333313,
      "d": 1774.7587083333347,
      "v": 99
    },
    {
      "midi": 55,
      "hit": false,
      "t": 20371.399791666652,
      "d": 2037.1399791666663,
      "v": 95
    },
    {
      "midi": 67,
      "hit": false,
      "t": 20374.347895833314,
      "d": 1795.3954374999994,
      "v": 104
    },
    {
      "midi": 55,
      "hit": false,
      "t": 20374.347895833314,
      "d": 1821.9283749999995,
      "v": 94
    },
    {
      "midi": 62,
      "hit": false,
      "t": 20374.347895833318,
      "d": 1827.8245833333349,
      "v": 86
    },
    {
      "midi": 64,
      "hit": false,
      "t": 20377.29599999998,
      "d": 1780.6549166666664,
      "v": 102
    },
    {
      "midi": 67,
      "hit": false,
      "t": 20377.295999999984,
      "d": 1816.0321666666678,
      "v": 86
    },
    {
      "midi": 24,
      "hit": false,
      "t": 20377.29599999999,
      "d": 392.09785416666637,
      "v": 110
    },
    {
      "midi": 50,
      "hit": false,
      "t": 20377.295999999995,
      "d": 194.57487499999843,
      "v": 79
    },
    {
      "midi": 72,
      "hit": false,
      "t": 20377.296,
      "d": 2240.5591666666696,
      "v": 40
    },
    {
      "midi": 76,
      "hit": false,
      "t": 20377.296,
      "d": 2240.5591666666696,
      "v": 40
    },
    {
      "midi": 79,
      "hit": false,
      "t": 20377.296,
      "d": 2240.5591666666696,
      "v": 40
    },
    {
      "midi": 60,
      "hit": false,
      "t": 20381.718156249994,
      "d": 1049.525083333334,
      "v": 85
    },
    {
      "midi": 64,
      "hit": false,
      "t": 20381.718156249994,
      "d": 1052.4731874999998,
      "v": 95
    },
    {
      "midi": 72,
      "hit": false,
      "t": 20383.192208333297,
      "d": 1123.2276874999989,
      "v": 95
    },
    {
      "midi": 48,
      "hit": false,
      "t": 20386.14031249998,
      "d": 1942.8006458333366,
      "v": 95
    },
    {
      "midi": 52,
      "hit": false,
      "t": 20660.313999999995,
      "d": 147.40520833333358,
      "v": 83
    },
    {
      "midi": 67,
      "hit": false,
      "t": 20660.31400000001,
      "d": 132.66468750000058,
      "v": 55
    },
    {
      "midi": 79,
      "hit": false,
      "t": 20831.304041666677,
      "d": 132.66468750000058,
      "v": 55
    },
    {
      "midi": 24,
      "hit": false,
      "t": 20937.435791666656,
      "d": 333.1357708333344,
      "v": 110
    },
    {
      "midi": 55,
      "hit": false,
      "t": 20943.331999999995,
      "d": 1241.1518541666665,
      "v": 95
    },
    {
      "midi": 62,
      "hit": false,
      "t": 20949.228208333327,
      "d": 1273.581000000002,
      "v": 65
    },
    {
      "midi": 67,
      "hit": false,
      "t": 21084.84100000001,
      "d": 132.66468750000058,
      "v": 55
    },
    {
      "midi": 79,
      "hit": false,
      "t": 21255.83104166668,
      "d": 132.66468750000058,
      "v": 55
    },
    {
      "midi": 24,
      "hit": false,
      "t": 21385.547624999992,
      "d": 32.42914583333186,
      "v": 110
    },
    {
      "midi": 24,
      "hit": false,
      "t": 21506.419895833325,
      "d": 94.33933333333334,
      "v": 110
    },
    {
      "midi": 62,
      "hit": false,
      "t": 21513.790156249994,
      "d": 548.3473750000012,
      "v": 95
    },
    {
      "midi": 60,
      "hit": false,
      "t": 21513.790156249994,
      "d": 831.3653749999976,
      "v": 85
    },
    {
      "midi": 66,
      "hit": false,
      "t": 21515.264208333298,
      "d": 551.2954791666671,
      "v": 95
    },
    {
      "midi": 24,
      "hit": false,
      "t": 21786.48979166666,
      "d": 347.8762916666674,
      "v": 110
    },
    {
      "midi": 67,
      "hit": false,
      "t": 21792.386000000013,
      "d": 132.66468750000058,
      "v": 55
    },
    {
      "midi": 79,
      "hit": false,
      "t": 21963.37604166668,
      "d": 132.66468750000058,
      "v": 55
    },
    {
      "midi": 67,
      "hit": false,
      "t": 22072.455895833296,
      "d": 277.1217916666683,
      "v": 86
    },
    {
      "midi": 64,
      "hit": false,
      "t": 22079.826156249994,
      "d": 262.38127083333166,
      "v": 95
    },
    {
      "midi": 67,
      "hit": false,
      "t": 22216.913000000015,
      "d": 132.66468750000058,
      "v": 55
    },
    {
      "midi": 62,
      "hit": false,
      "t": 22349.57768749998,
      "d": 138.56089583333232,
      "v": 98
    },
    {
      "midi": 67,
      "hit": false,
      "t": 22349.57768749998,
      "d": 138.56089583333232,
      "v": 103
    },
    {
      "midi": 62,
      "hit": false,
      "t": 22352.525791666652,
      "d": 259.4331666666658,
      "v": 86
    },
    {
      "midi": 50,
      "hit": false,
      "t": 22352.525791666652,
      "d": 262.38127083333166,
      "v": 95
    },
    {
      "midi": 69,
      "hit": false,
      "t": 22355.473895833296,
      "d": 241.74454166666692,
      "v": 82
    },
    {
      "midi": 69,
      "hit": false,
      "t": 22355.47389583331,
      "d": 135.61279166666645,
      "v": 110
    },
    {
      "midi": 57,
      "hit": false,
      "t": 22355.47389583331,
      "d": 138.56089583333232,
      "v": 101
    },
    {
      "midi": 57,
      "hit": false,
      "t": 22358.421999999984,
      "d": 244.6926458333328,
      "v": 95
    },
    {
      "midi": 67,
      "hit": false,
      "t": 22358.421999999984,
      "d": 259.4331666666658,
      "v": 86
    },
    {
      "midi": 55,
      "hit": false,
      "t": 22358.421999999995,
      "d": 533.6068541666646,
      "v": 95
    },
    {
      "midi": 24,
      "hit": false,
      "t": 22361.37010416666,
      "d": 106.13175000000047,
      "v": 110
    },
    {
      "midi": 66,
      "hit": false,
      "t": 22362.84415624999,
      "d": 256.4850624999999,
      "v": 95
    },
    {
      "midi": 62,
      "hit": false,
      "t": 22362.84415624999,
      "d": 259.4331666666658,
      "v": 85
    },
    {
      "midi": 62,
      "hit": false,
      "t": 22364.318208333327,
      "d": 1025.9402499999997,
      "v": 65
    },
    {
      "midi": 79,
      "hit": false,
      "t": 22387.903041666683,
      "d": 132.66468750000058,
      "v": 55
    },
    {
      "midi": 57,
      "hit": false,
      "t": 22502.879104166645,
      "d": 126.7684791666652,
      "v": 84
    },
    {
      "midi": 62,
      "hit": false,
      "t": 22502.879104166645,
      "d": 126.7684791666652,
      "v": 87
    },
    {
      "midi": 67,
      "hit": false,
      "t": 22502.879104166645,
      "d": 126.7684791666652,
      "v": 88
    },
    {
      "midi": 69,
      "hit": false,
      "t": 22505.82720833331,
      "d": 123.82037499999933,
      "v": 92
    },
    {
      "midi": 67,
      "hit": false,
      "t": 22638.49189583332,
      "d": 1851.4094166666655,
      "v": 86
    },
    {
      "midi": 57,
      "hit": false,
      "t": 22641.439999999977,
      "d": 1798.3435416666653,
      "v": 94
    },
    {
      "midi": 74,
      "hit": false,
      "t": 22641.440000000002,
      "d": 4504.703166666666,
      "v": 40
    },
    {
      "midi": 79,
      "hit": false,
      "t": 22641.440000000002,
      "d": 4504.703166666666,
      "v": 40
    },
    {
      "midi": 81,
      "hit": false,
      "t": 22641.440000000002,
      "d": 4504.703166666666,
      "v": 50
    },
    {
      "midi": 62,
      "hit": false,
      "t": 22644.388104166643,
      "d": 1818.9802708333336,
      "v": 98
    },
    {
      "midi": 62,
      "hit": false,
      "t": 22644.38810416665,
      "d": 1863.2018333333326,
      "v": 86
    },
    {
      "midi": 26,
      "hit": false,
      "t": 22644.38810416666,
      "d": 371.46112500000163,
      "v": 110
    },
    {
      "midi": 67,
      "hit": false,
      "t": 22647.33620833331,
      "d": 1816.0321666666678,
      "v": 102
    },
    {
      "midi": 69,
      "hit": false,
      "t": 22656.18052083331,
      "d": 1816.0321666666678,
      "v": 105
    },
    {
      "midi": 50,
      "hit": false,
      "t": 22656.180520833317,
      "d": 4124.397729166663,
      "v": 95
    },
    {
      "midi": 57,
      "hit": false,
      "t": 22665.02483333332,
      "d": 4121.449624999994,
      "v": 95
    },
    {
      "midi": 57,
      "hit": false,
      "t": 22924.45799999999,
      "d": 147.40520833333358,
      "v": 95
    },
    {
      "midi": 67,
      "hit": false,
      "t": 22924.458000000017,
      "d": 132.66468750000058,
      "v": 55
    },
    {
      "midi": 79,
      "hit": false,
      "t": 23095.448041666685,
      "d": 132.66468750000058,
      "v": 55
    },
    {
      "midi": 26,
      "hit": false,
      "t": 23201.579791666663,
      "d": 359.6687083333345,
      "v": 110
    },
    {
      "midi": 57,
      "hit": false,
      "t": 23207.47599999999,
      "d": 141.50900000000183,
      "v": 95
    },
    {
      "midi": 67,
      "hit": false,
      "t": 23348.98500000002,
      "d": 132.66468750000058,
      "v": 55
    },
    {
      "midi": 55,
      "hit": false,
      "t": 23490.49399999999,
      "d": 159.19762499999706,
      "v": 95
    },
    {
      "midi": 62,
      "hit": false,
      "t": 23496.390208333323,
      "d": 185.73056249999718,
      "v": 65
    },
    {
      "midi": 79,
      "hit": false,
      "t": 23519.975041666687,
      "d": 132.66468750000058,
      "v": 55
    },
    {
      "midi": 26,
      "hit": false,
      "t": 23652.639729166665,
      "d": 32.42914583333186,
      "v": 110
    },
    {
      "midi": 57,
      "hit": false,
      "t": 23773.511999999988,
      "d": 203.41918749999968,
      "v": 95
    },
    {
      "midi": 26,
      "hit": false,
      "t": 23776.460104166665,
      "d": 109.07985416666634,
      "v": 110
    },
    {
      "midi": 62,
      "hit": false,
      "t": 23779.40820833332,
      "d": 256.4850624999999,
      "v": 65
    },
    {
      "midi": 26,
      "hit": false,
      "t": 24053.58189583333,
      "d": 403.8902708333335,
      "v": 110
    },
    {
      "midi": 67,
      "hit": false,
      "t": 24056.53000000002,
      "d": 132.66468750000058,
      "v": 55
    },
    {
      "midi": 79,
      "hit": false,
      "t": 24227.52004166669,
      "d": 132.66468750000058,
      "v": 55
    },
    {
      "midi": 67,
      "hit": false,
      "t": 24481.057000000023,
      "d": 132.66468750000058,
      "v": 55
    },
    {
      "midi": 62,
      "hit": false,
      "t": 24610.77358333331,
      "d": 132.66468749999694,
      "v": 99
    },
    {
      "midi": 67,
      "hit": false,
      "t": 24616.66979166664,
      "d": 129.71658333333107,
      "v": 104
    },
    {
      "midi": 69,
      "hit": false,
      "t": 24619.617895833308,
      "d": 135.61279166666645,
      "v": 98
    },
    {
      "midi": 55,
      "hit": false,
      "t": 24622.565999999988,
      "d": 539.5030624999999,
      "v": 95
    },
    {
      "midi": 26,
      "hit": false,
      "t": 24622.565999999995,
      "d": 97.28743749999921,
      "v": 110
    },
    {
      "midi": 57,
      "hit": false,
      "t": 24625.51410416664,
      "d": 129.7165833333347,
      "v": 102
    },
    {
      "midi": 62,
      "hit": false,
      "t": 24625.51410416665,
      "d": 259.4331666666658,
      "v": 86
    },
    {
      "midi": 67,
      "hit": false,
      "t": 24625.51410416665,
      "d": 259.4331666666658,
      "v": 86
    },
    {
      "midi": 62,
      "hit": false,
      "t": 24628.46220833332,
      "d": 1043.6288750000022,
      "v": 65
    },
    {
      "midi": 79,
      "hit": false,
      "t": 24652.04704166669,
      "d": 132.66468750000058,
      "v": 55
    },
    {
      "midi": 57,
      "hit": false,
      "t": 24764.074999999975,
      "d": 123.82037499999933,
      "v": 82
    },
    {
      "midi": 62,
      "hit": false,
      "t": 24764.074999999975,
      "d": 126.7684791666652,
      "v": 86
    },
    {
      "midi": 67,
      "hit": false,
      "t": 24767.02310416664,
      "d": 123.82037499999933,
      "v": 88
    },
    {
      "midi": 69,
      "hit": false,
      "t": 24769.971208333307,
      "d": 123.82037499999933,
      "v": 88
    },
    {
      "midi": 26,
      "hit": false,
      "t": 24899.68779166666,
      "d": 356.720604166665,
      "v": 110
    },
    {
      "midi": 62,
      "hit": false,
      "t": 24902.635895833315,
      "d": 1040.6807708333326,
      "v": 86
    },
    {
      "midi": 57,
      "hit": false,
      "t": 24905.583999999973,
      "d": 1774.758708333331,
      "v": 94
    },
    {
      "midi": 62,
      "hit": false,
      "t": 24908.53210416664,
      "d": 1765.9143958333334,
      "v": 86
    },
    {
      "midi": 67,
      "hit": false,
      "t": 24908.532104166647,
      "d": 1034.784562500001,
      "v": 86
    },
    {
      "midi": 67,
      "hit": false,
      "t": 24911.480208333305,
      "d": 1762.9662916666675,
      "v": 98
    },
    {
      "midi": 69,
      "hit": false,
      "t": 24917.376416666637,
      "d": 1748.2257708333345,
      "v": 103
    },
    {
      "midi": 57,
      "hit": false,
      "t": 25188.601999999988,
      "d": 117.92416666666759,
      "v": 95
    },
    {
      "midi": 67,
      "hit": false,
      "t": 25188.602000000024,
      "d": 132.66468750000058,
      "v": 65
    },
    {
      "midi": 79,
      "hit": false,
      "t": 25359.592041666692,
      "d": 132.66468750000058,
      "v": 65
    },
    {
      "midi": 57,
      "hit": false,
      "t": 25471.619999999988,
      "d": 250.58885416666817,
      "v": 95
    },
    {
      "midi": 26,
      "hit": false,
      "t": 25474.568104166658,
      "d": 362.6168125000004,
      "v": 110
    },
    {
      "midi": 67,
      "hit": false,
      "t": 25613.129000000026,
      "d": 132.66468750000058,
      "v": 65
    },
    {
      "midi": 55,
      "hit": false,
      "t": 25754.637999999988,
      "d": 135.61279166666645,
      "v": 95
    },
    {
      "midi": 62,
      "hit": false,
      "t": 25760.53420833332,
      "d": 168.04193750000195,
      "v": 65
    },
    {
      "midi": 79,
      "hit": false,
      "t": 25784.119041666694,
      "d": 132.66468750000058,
      "v": 65
    },
    {
      "midi": 26,
      "hit": false,
      "t": 25919.731833333324,
      "d": 35.37725000000137,
      "v": 110
    },
    {
      "midi": 67,
      "hit": false,
      "t": 26031.75979166665,
      "d": 259.4331666666658,
      "v": 86
    },
    {
      "midi": 26,
      "hit": false,
      "t": 26034.707895833326,
      "d": 85.49502083333209,
      "v": 110
    },
    {
      "midi": 62,
      "hit": false,
      "t": 26037.65599999998,
      "d": 259.4331666666658,
      "v": 86
    },
    {
      "midi": 57,
      "hit": false,
      "t": 26037.655999999988,
      "d": 170.99004166666418,
      "v": 95
    },
    {
      "midi": 62,
      "hit": false,
      "t": 26043.55220833332,
      "d": 188.6786666666667,
      "v": 65
    },
    {
      "midi": 67,
      "hit": false,
      "t": 26317.725895833315,
      "d": 259.4331666666658,
      "v": 86
    },
    {
      "midi": 62,
      "hit": false,
      "t": 26320.67399999998,
      "d": 259.4331666666658,
      "v": 86
    },
    {
      "midi": 55,
      "hit": false,
      "t": 26320.673999999988,
      "d": 170.99004166666418,
      "v": 95
    },
    {
      "midi": 26,
      "hit": false,
      "t": 26320.67399999999,
      "d": 250.58885416666817,
      "v": 110
    },
    {
      "midi": 67,
      "hit": false,
      "t": 26320.674000000028,
      "d": 132.66468750000058,
      "v": 65
    },
    {
      "midi": 62,
      "hit": false,
      "t": 26326.57020833332,
      "d": 182.7824583333313,
      "v": 65
    },
    {
      "midi": 79,
      "hit": false,
      "t": 26491.664041666696,
      "d": 132.66468750000058,
      "v": 65
    },
    {
      "midi": 50,
      "hit": false,
      "t": 26571.262854166653,
      "d": 79.59881249999671,
      "v": 72
    },
    {
      "midi": 55,
      "hit": false,
      "t": 26600.743895833297,
      "d": 268.27747916666704,
      "v": 88
    },
    {
      "midi": 52,
      "hit": false,
      "t": 26603.691999999985,
      "d": 173.93814583333005,
      "v": 77
    },
    {
      "midi": 26,
      "hit": false,
      "t": 26603.691999999992,
      "d": 515.9182291666657,
      "v": 110
    },
    {
      "midi": 62,
      "hit": false,
      "t": 26609.588208333316,
      "d": 176.88624999999956,
      "v": 65
    },
    {
      "midi": 67,
      "hit": false,
      "t": 26745.20100000003,
      "d": 132.66468750000058,
      "v": 65
    },
    {
      "midi": 59,
      "hit": false,
      "t": 26877.865687499972,
      "d": 126.7684791666652,
      "v": 90
    },
    {
      "midi": 62,
      "hit": false,
      "t": 26877.865687499972,
      "d": 129.71658333333107,
      "v": 94
    },
    {
      "midi": 57,
      "hit": false,
      "t": 26880.81379166663,
      "d": 117.92416666666759,
      "v": 78
    },
    {
      "midi": 55,
      "hit": false,
      "t": 26880.81379166664,
      "d": 129.71658333333107,
      "v": 91
    },
    {
      "midi": 67,
      "hit": false,
      "t": 26880.81379166664,
      "d": 132.66468749999694,
      "v": 96
    },
    {
      "midi": 43,
      "hit": false,
      "t": 26883.76189583331,
      "d": 244.6926458333328,
      "v": 95
    },
    {
      "midi": 67,
      "hit": false,
      "t": 26883.76189583331,
      "d": 259.4331666666658,
      "v": 86
    },
    {
      "midi": 50,
      "hit": false,
      "t": 26886.709999999977,
      "d": 241.74454166666692,
      "v": 95
    },
    {
      "midi": 62,
      "hit": false,
      "t": 26886.709999999977,
      "d": 259.4331666666658,
      "v": 86
    },
    {
      "midi": 55,
      "hit": false,
      "t": 26886.70999999998,
      "d": 271.2255833333329,
      "v": 94
    },
    {
      "midi": 62,
      "hit": false,
      "t": 26892.606208333313,
      "d": 256.4850624999999,
      "v": 65
    },
    {
      "midi": 79,
      "hit": false,
      "t": 26916.191041666698,
      "d": 132.66468750000058,
      "v": 65
    },
    {
      "midi": 59,
      "hit": false,
      "t": 27013.478479166635,
      "d": 132.66468749999694,
      "v": 83
    },
    {
      "midi": 67,
      "hit": false,
      "t": 27013.478479166635,
      "d": 135.61279166666282,
      "v": 92
    },
    {
      "midi": 62,
      "hit": false,
      "t": 27016.4265833333,
      "d": 132.66468749999694,
      "v": 84
    },
    {
      "midi": 55,
      "hit": false,
      "t": 27019.374687499967,
      "d": 132.66468749999694,
      "v": 83
    },
    {
      "midi": 59,
      "hit": false,
      "t": 27166.779895833297,
      "d": 274.17368749999514,
      "v": 80
    },
    {
      "midi": 31,
      "hit": false,
      "t": 27166.779895833322,
      "d": 362.6168125000004,
      "v": 110
    },
    {
      "midi": 55,
      "hit": false,
      "t": 27169.727999999963,
      "d": 2096.102062500002,
      "v": 96
    },
    {
      "midi": 62,
      "hit": false,
      "t": 27169.727999999977,
      "d": 1860.2537291666667,
      "v": 86
    },
    {
      "midi": 59,
      "hit": false,
      "t": 27172.67610416663,
      "d": 2125.583104166668,
      "v": 104
    },
    {
      "midi": 67,
      "hit": false,
      "t": 27172.676104166643,
      "d": 1874.9942499999997,
      "v": 86
    },
    {
      "midi": 43,
      "hit": false,
      "t": 27172.676104166643,
      "d": 1948.6968541666647,
      "v": 90
    },
    {
      "midi": 50,
      "hit": false,
      "t": 27175.62420833331,
      "d": 1975.2297916666648,
      "v": 90
    },
    {
      "midi": 62,
      "hit": false,
      "t": 27181.52041666663,
      "d": 2122.6349999999984,
      "v": 108
    },
    {
      "midi": 67,
      "hit": false,
      "t": 27190.36472916663,
      "d": 2128.53120833333,
      "v": 108
    },
    {
      "midi": 67,
      "hit": false,
      "t": 27452.746000000032,
      "d": 132.66468750000058,
      "v": 55
    },
    {
      "midi": 60,
      "hit": false,
      "t": 27458.64220833329,
      "d": 120.87227083333346,
      "v": 95
    },
    {
      "midi": 79,
      "hit": false,
      "t": 27623.7360416667,
      "d": 132.66468750000058,
      "v": 55
    },
    {
      "midi": 31,
      "hit": false,
      "t": 27735.76399999999,
      "d": 333.1357708333344,
      "v": 110
    },
    {
      "midi": 62,
      "hit": false,
      "t": 27741.66020833329,
      "d": 114.97606250000172,
      "v": 90
    },
    {
      "midi": 67,
      "hit": false,
      "t": 27877.273000000034,
      "d": 132.66468750000058,
      "v": 55
    },
    {
      "midi": 62,
      "hit": false,
      "t": 28024.67820833329,
      "d": 268.27747916666704,
      "v": 95
    },
    {
      "midi": 79,
      "hit": false,
      "t": 28048.2630416667,
      "d": 132.66468750000058,
      "v": 55
    },
    {
      "midi": 31,
      "hit": false,
      "t": 28177.97962499999,
      "d": 44.22156249999898,
      "v": 110
    },
    {
      "midi": 31,
      "hit": false,
      "t": 28298.851895833322,
      "d": 85.49502083333209,
      "v": 110
    },
    {
      "midi": 67,
      "hit": false,
      "t": 28581.86989583329,
      "d": 277.1217916666683,
      "v": 86
    },
    {
      "midi": 31,
      "hit": false,
      "t": 28584.81799999999,
      "d": 339.03197916666613,
      "v": 110
    },
    {
      "midi": 67,
      "hit": false,
      "t": 28584.818000000036,
      "d": 132.66468750000058,
      "v": 55
    },
    {
      "midi": 79,
      "hit": false,
      "t": 28755.808041666704,
      "d": 132.66468750000058,
      "v": 55
    },
    {
      "midi": 67,
      "hit": false,
      "t": 29009.345000000038,
      "d": 132.66468750000058,
      "v": 55
    },
    {
      "midi": 55,
      "hit": false,
      "t": 29136.11347916664,
      "d": 315.4471458333319,
      "v": 90
    },
    {
      "midi": 67,
      "hit": false,
      "t": 29144.957791666642,
      "d": 250.58885416666453,
      "v": 86
    },
    {
      "midi": 62,
      "hit": false,
      "t": 29144.957791666642,
      "d": 265.3293749999975,
      "v": 86
    },
    {
      "midi": 31,
      "hit": false,
      "t": 29144.957791666653,
      "d": 256.4850624999999,
      "v": 110
    },
    {
      "midi": 59,
      "hit": false,
      "t": 29147.90589583329,
      "d": 268.27747916666704,
      "v": 84
    },
    {
      "midi": 48,
      "hit": false,
      "t": 29147.905895833308,
      "d": 306.60283333333064,
      "v": 90
    },
    {
      "midi": 79,
      "hit": false,
      "t": 29180.335041666705,
      "d": 132.66468750000058,
      "v": 55
    },
    {
      "midi": 24,
      "hit": false,
      "t": 29430.92389583332,
      "d": 344.9281875000015,
      "v": 110
    },
    {
      "midi": 67,
      "hit": false,
      "t": 29433.871999999974,
      "d": 1845.51320833333,
      "v": 86
    },
    {
      "midi": 62,
      "hit": false,
      "t": 29436.82010416664,
      "d": 1860.253729166663,
      "v": 86
    },
    {
      "midi": 60,
      "hit": false,
      "t": 29439.76820833329,
      "d": 294.81041666666715,
      "v": 95
    },
    {
      "midi": 60,
      "hit": false,
      "t": 29439.768208333295,
      "d": 1774.758708333331,
      "v": 104
    },
    {
      "midi": 55,
      "hit": false,
      "t": 29448.612520833296,
      "d": 1804.239749999997,
      "v": 100
    },
    {
      "midi": 55,
      "hit": false,
      "t": 29451.560624999973,
      "d": 1998.8146249999954,
      "v": 90
    },
    {
      "midi": 64,
      "hit": false,
      "t": 29454.508729166628,
      "d": 1777.7068124999969,
      "v": 108
    },
    {
      "midi": 48,
      "hit": false,
      "t": 29454.50872916664,
      "d": 1960.4892708333282,
      "v": 90
    },
    {
      "midi": 67,
      "hit": false,
      "t": 29472.197354166627,
      "d": 1754.1219791666663,
      "v": 105
    },
    {
      "midi": 67,
      "hit": false,
      "t": 29716.89000000004,
      "d": 132.66468750000058,
      "v": 55
    },
    {
      "midi": 79,
      "hit": false,
      "t": 29887.880041666707,
      "d": 132.66468750000058,
      "v": 55
    },
    {
      "midi": 24,
      "hit": false,
      "t": 29996.95989583332,
      "d": 359.6687083333345,
      "v": 110
    },
    {
      "midi": 62,
      "hit": false,
      "t": 30002.856104166625,
      "d": 232.90022916666567,
      "v": 101
    },
    {
      "midi": 67,
      "hit": false,
      "t": 30141.41700000004,
      "d": 132.66468750000058,
      "v": 55
    },
    {
      "midi": 67,
      "hit": false,
      "t": 30279.97789583329,
      "d": 312.499041666666,
      "v": 88
    },
    {
      "midi": 79,
      "hit": false,
      "t": 30312.40704166671,
      "d": 132.66468750000058,
      "v": 55
    },
    {
      "midi": 24,
      "hit": false,
      "t": 30442.123624999986,
      "d": 47.16966666666485,
      "v": 110
    },
    {
      "midi": 24,
      "hit": false,
      "t": 30560.04779166665,
      "d": 88.4431250000016,
      "v": 110
    },
    {
      "midi": 66,
      "hit": false,
      "t": 30846.01389583329,
      "d": 318.3952500000014,
      "v": 82
    },
    {
      "midi": 67,
      "hit": false,
      "t": 30848.962000000043,
      "d": 132.66468750000058,
      "v": 55
    },
    {
      "midi": 24,
      "hit": false,
      "t": 30851.91010416665,
      "d": 389.1497500000005,
      "v": 110
    },
    {
      "midi": 79,
      "hit": false,
      "t": 31019.95204166671,
      "d": 132.66468750000058,
      "v": 55
    },
    {
      "midi": 67,
      "hit": false,
      "t": 31273.489000000045,
      "d": 132.66468750000058,
      "v": 55
    },
    {
      "midi": 64,
      "hit": false,
      "t": 31409.101791666624,
      "d": 274.1736874999988,
      "v": 76
    },
    {
      "midi": 67,
      "hit": false,
      "t": 31409.101791666635,
      "d": 247.64074999999866,
      "v": 86
    },
    {
      "midi": 50,
      "hit": false,
      "t": 31412.0498958333,
      "d": 300.7066249999989,
      "v": 90
    },
    {
      "midi": 57,
      "hit": false,
      "t": 31412.0498958333,
      "d": 306.60283333333064,
      "v": 90
    },
    {
      "midi": 62,
      "hit": false,
      "t": 31414.997999999967,
      "d": 247.64074999999866,
      "v": 86
    },
    {
      "midi": 24,
      "hit": false,
      "t": 31417.94610416665,
      "d": 76.65070833333448,
      "v": 110
    },
    {
      "midi": 50,
      "hit": false,
      "t": 31432.68662499996,
      "d": 253.53695833333404,
      "v": 94
    },
    {
      "midi": 79,
      "hit": false,
      "t": 31444.479041666713,
      "d": 132.66468750000058,
      "v": 55
    },
    {
      "midi": 26,
      "hit": false,
      "t": 31692.119791666653,
      "d": 344.9281875000015,
      "v": 110
    },
    {
      "midi": 62,
      "hit": false,
      "t": 31695.06789583329,
      "d": 268.27747916666704,
      "v": 88
    },
    {
      "midi": 57,
      "hit": false,
      "t": 31698.01599999996,
      "d": 268.2774791666634,
      "v": 94
    },
    {
      "midi": 62,
      "hit": false,
      "t": 31698.015999999967,
      "d": 4121.449624999994,
      "v": 86
    },
    {
      "midi": 62,
      "hit": false,
      "t": 31700.964104166625,
      "d": 294.81041666666715,
      "v": 98
    },
    {
      "midi": 67,
      "hit": false,
      "t": 31700.964104166633,
      "d": 4094.9166874999937,
      "v": 86
    },
    {
      "midi": 67,
      "hit": false,
      "t": 31706.860312499957,
      "d": 288.9142083333354,
      "v": 101
    },
    {
      "midi": 69,
      "hit": false,
      "t": 31709.808416666623,
      "d": 1786.5511249999836,
      "v": 95
    },
    {
      "midi": 50,
      "hit": false,
      "t": 31712.7565208333,
      "d": 4074.279958333329,
      "v": 90
    },
    {
      "midi": 57,
      "hit": false,
      "t": 31718.65272916663,
      "d": 4080.1761666666607,
      "v": 90
    },
    {
      "midi": 67,
      "hit": false,
      "t": 31981.034000000047,
      "d": 132.66468750000058,
      "v": 65
    },
    {
      "midi": 57,
      "hit": false,
      "t": 31986.93020833329,
      "d": 283.01800000000003,
      "v": 90
    },
    {
      "midi": 62,
      "hit": false,
      "t": 31995.774520833293,
      "d": 280.0698958333305,
      "v": 94
    },
    {
      "midi": 67,
      "hit": false,
      "t": 31995.774520833293,
      "d": 283.0179999999964,
      "v": 100
    },
    {
      "midi": 79,
      "hit": false,
      "t": 32152.024041666715,
      "d": 132.66468750000058,
      "v": 65
    },
    {
      "midi": 26,
      "hit": false,
      "t": 32267.000104166655,
      "d": 321.34335416666727,
      "v": 110
    },
    {
      "midi": 57,
      "hit": false,
      "t": 32269.94820833329,
      "d": 445.16372916666296,
      "v": 89
    },
    {
      "midi": 62,
      "hit": false,
      "t": 32275.844416666623,
      "d": 433.3713124999995,
      "v": 94
    },
    {
      "midi": 67,
      "hit": false,
      "t": 32278.79252083329,
      "d": 442.2156249999971,
      "v": 101
    },
    {
      "midi": 67,
      "hit": false,
      "t": 32405.56100000005,
      "d": 132.66468750000058,
      "v": 65
    },
    {
      "midi": 79,
      "hit": false,
      "t": 32576.551041666717,
      "d": 132.66468750000058,
      "v": 65
    },
    {
      "midi": 26,
      "hit": false,
      "t": 32703.319520833324,
      "d": 53.06587500000023,
      "v": 110
    },
    {
      "midi": 62,
      "hit": false,
      "t": 32715.111937499954,
      "d": 397.99406249999447,
      "v": 87
    },
    {
      "midi": 57,
      "hit": false,
      "t": 32723.956249999952,
      "d": 271.2255833333329,
      "v": 90
    },
    {
      "midi": 66,
      "hit": false,
      "t": 32723.956249999952,
      "d": 280.0698958333305,
      "v": 104
    },
    {
      "midi": 26,
      "hit": false,
      "t": 32830.08799999999,
      "d": 91.39122916666383,
      "v": 110
    },
    {
      "midi": 57,
      "hit": false,
      "t": 32995.181833333285,
      "d": 117.92416666666395,
      "v": 90
    },
    {
      "midi": 66,
      "hit": false,
      "t": 33004.02614583328,
      "d": 120.87227083332982,
      "v": 91
    },
    {
      "midi": 26,
      "hit": false,
      "t": 33110.15789583332,
      "d": 415.682687499997,
      "v": 110
    },
    {
      "midi": 67,
      "hit": false,
      "t": 33113.10600000005,
      "d": 132.66468750000058,
      "v": 65
    },
    {
      "midi": 57,
      "hit": false,
      "t": 33119.00220833328,
      "d": 459.90424999998504,
      "v": 92
    },
    {
      "midi": 62,
      "hit": false,
      "t": 33121.95031249995,
      "d": 427.47510416666046,
      "v": 88
    },
    {
      "midi": 66,
      "hit": false,
      "t": 33133.74272916661,
      "d": 436.31941666665807,
      "v": 99
    },
    {
      "midi": 79,
      "hit": false,
      "t": 33284.096041666715,
      "d": 132.66468750000058,
      "v": 65
    },
    {
      "midi": 67,
      "hit": false,
      "t": 33537.633000000045,
      "d": 132.66468750000058,
      "v": 65
    },
    {
      "midi": 62,
      "hit": false,
      "t": 33561.21783333327,
      "d": 368.5130208333285,
      "v": 89
    },
    {
      "midi": 66,
      "hit": false,
      "t": 33570.06214583327,
      "d": 150.3533124999958,
      "v": 100
    },
    {
      "midi": 57,
      "hit": false,
      "t": 33587.75077083326,
      "d": 350.82439583333326,
      "v": 91
    },
    {
      "midi": 26,
      "hit": false,
      "t": 33673.245791666646,
      "d": 53.06587500000023,
      "v": 110
    },
    {
      "midi": 67,
      "hit": false,
      "t": 33676.19389583326,
      "d": 268.27747916666704,
      "v": 97
    },
    {
      "midi": 79,
      "hit": false,
      "t": 33708.62304166671,
      "d": 132.66468750000058,
      "v": 65
    },
    {
      "midi": 57,
      "hit": false,
      "t": 33962.15999999993,
      "d": 265.32937500000116,
      "v": 95
    },
    {
      "midi": 26,
      "hit": false,
      "t": 33962.15999999998,
      "d": 327.239562499999,
      "v": 110
    },
    {
      "midi": 62,
      "hit": false,
      "t": 33965.1081041666,
      "d": 560.1397916666683,
      "v": 94
    },
    {
      "midi": 67,
      "hit": false,
      "t": 33973.952416666594,
      "d": 238.79643750000105,
      "v": 98
    },
    {
      "midi": 69,
      "hit": false,
      "t": 33976.90052083326,
      "d": 1836.6688958333398,
      "v": 93
    },
    {
      "midi": 67,
      "hit": false,
      "t": 34245.17800000004,
      "d": 132.66468750000058,
      "v": 65
    },
    {
      "midi": 57,
      "hit": false,
      "t": 34254.02231249993,
      "d": 291.8623125000013,
      "v": 94
    },
    {
      "midi": 67,
      "hit": false,
      "t": 34254.02231249993,
      "d": 294.81041666666715,
      "v": 93
    },
    {
      "midi": 79,
      "hit": false,
      "t": 34416.16804166671,
      "d": 132.66468750000058,
      "v": 65
    },
    {
      "midi": 26,
      "hit": false,
      "t": 34525.247895833316,
      "d": 318.3952500000014,
      "v": 110
    },
    {
      "midi": 62,
      "hit": false,
      "t": 34545.88462499993,
      "d": 424.52700000000186,
      "v": 95
    },
    {
      "midi": 57,
      "hit": false,
      "t": 34545.88462499993,
      "d": 427.47510416666773,
      "v": 91
    },
    {
      "midi": 67,
      "hit": false,
      "t": 34548.8327291666,
      "d": 454.00804166666785,
      "v": 100
    },
    {
      "midi": 67,
      "hit": false,
      "t": 34669.70500000004,
      "d": 132.66468750000058,
      "v": 65
    },
    {
      "midi": 79,
      "hit": false,
      "t": 34840.6950416667,
      "d": 132.66468750000058,
      "v": 65
    },
    {
      "midi": 57,
      "hit": false,
      "t": 34973.3597291666,
      "d": 288.91420833332813,
      "v": 89
    },
    {
      "midi": 26,
      "hit": false,
      "t": 34976.30783333332,
      "d": 38.3253541666636,
      "v": 110
    },
    {
      "midi": 66,
      "hit": false,
      "t": 34985.152145833265,
      "d": 271.2255833333329,
      "v": 97
    },
    {
      "midi": 26,
      "hit": false,
      "t": 35091.283895833316,
      "d": 73.7026041666686,
      "v": 110
    },
    {
      "midi": 62,
      "hit": false,
      "t": 35253.42962499993,
      "d": 132.66468750000058,
      "v": 94
    },
    {
      "midi": 66,
      "hit": false,
      "t": 35256.3777291666,
      "d": 129.7165833333347,
      "v": 100
    },
    {
      "midi": 57,
      "hit": false,
      "t": 35262.27393749993,
      "d": 109.07985416666634,
      "v": 90
    },
    {
      "midi": 57,
      "hit": false,
      "t": 35371.353791666595,
      "d": 477.5928749999948,
      "v": 89
    },
    {
      "midi": 26,
      "hit": false,
      "t": 35377.249999999985,
      "d": 409.78647916666523,
      "v": 110
    },
    {
      "midi": 67,
      "hit": false,
      "t": 35377.25000000004,
      "d": 132.66468750000058,
      "v": 65
    },
    {
      "midi": 62,
      "hit": false,
      "t": 35386.09431249993,
      "d": 439.2675208333312,
      "v": 91
    },
    {
      "midi": 66,
      "hit": false,
      "t": 35386.09431249993,
      "d": 451.0599374999947,
      "v": 96
    },
    {
      "midi": 79,
      "hit": false,
      "t": 35548.2400416667,
      "d": 132.66468750000058,
      "v": 65
    },
    {
      "midi": 55,
      "hit": false,
      "t": 35657.319895833294,
      "d": 300.7066249999916,
      "v": 84
    },
    {
      "midi": 67,
      "hit": false,
      "t": 35801.77700000003,
      "d": 132.66468750000058,
      "v": 65
    },
    {
      "midi": 62,
      "hit": false,
      "t": 35825.36183333326,
      "d": 380.30543749999924,
      "v": 88
    },
    {
      "midi": 66,
      "hit": false,
      "t": 35837.15424999993,
      "d": 135.61279166666645,
      "v": 92
    },
    {
      "midi": 57,
      "hit": false,
      "t": 35848.94666666659,
      "d": 362.616812500004,
      "v": 90
    },
    {
      "midi": 50,
      "hit": false,
      "t": 35910.85685416663,
      "d": 271.2255833333329,
      "v": 90
    },
    {
      "midi": 43,
      "hit": false,
      "t": 35919.70116666663,
      "d": 259.4331666666694,
      "v": 90
    },
    {
      "midi": 62,
      "hit": false,
      "t": 35937.38979166663,
      "d": 238.79643750000105,
      "v": 86
    },
    {
      "midi": 67,
      "hit": false,
      "t": 35937.38979166663,
      "d": 244.6926458333328,
      "v": 86
    },
    {
      "midi": 57,
      "hit": false,
      "t": 35940.33789583329,
      "d": 256.4850624999963,
      "v": 82
    },
    {
      "midi": 67,
      "hit": false,
      "t": 35943.28599999993,
      "d": 268.27747916666704,
      "v": 95
    },
    {
      "midi": 79,
      "hit": false,
      "t": 35972.767041666695,
      "d": 132.66468750000058,
      "v": 65
    },
    {
      "midi": 59,
      "hit": false,
      "t": 36223.35589583329,
      "d": 288.9142083333354,
      "v": 85
    },
    {
      "midi": 31,
      "hit": false,
      "t": 36223.355895833316,
      "d": 362.61681249999674,
      "v": 110
    },
    {
      "midi": 55,
      "hit": false,
      "t": 36226.30399999993,
      "d": 2096.1020624999946,
      "v": 96
    },
    {
      "midi": 62,
      "hit": false,
      "t": 36226.30399999997,
      "d": 1886.7866666666669,
      "v": 86
    },
    {
      "midi": 59,
      "hit": false,
      "t": 36229.2521041666,
      "d": 2125.5831041666606,
      "v": 104
    },
    {
      "midi": 67,
      "hit": false,
      "t": 36229.25210416663,
      "d": 1904.4752916666694,
      "v": 86
    },
    {
      "midi": 50,
      "hit": false,
      "t": 36229.25210416663,
      "d": 1951.6449583333379,
      "v": 90
    },
    {
      "midi": 62,
      "hit": false,
      "t": 36238.096416666594,
      "d": 2122.6349999999948,
      "v": 108
    },
    {
      "midi": 43,
      "hit": false,
      "t": 36238.09641666663,
      "d": 1942.8006458333402,
      "v": 90
    },
    {
      "midi": 67,
      "hit": false,
      "t": 36246.94072916659,
      "d": 2128.531208333334,
      "v": 108
    },
    {
      "midi": 67,
      "hit": false,
      "t": 36509.32200000003,
      "d": 132.66468750000058,
      "v": 55
    },
    {
      "midi": 60,
      "hit": false,
      "t": 36515.21820833329,
      "d": 153.30141666666896,
      "v": 93
    },
    {
      "midi": 79,
      "hit": false,
      "t": 36680.31204166669,
      "d": 132.66468750000058,
      "v": 55
    },
    {
      "midi": 31,
      "hit": false,
      "t": 36792.33999999998,
      "d": 333.13577083333075,
      "v": 110
    },
    {
      "midi": 62,
      "hit": false,
      "t": 36798.23620833329,
      "d": 117.92416666666395,
      "v": 93
    },
    {
      "midi": 67,
      "hit": false,
      "t": 36933.849000000024,
      "d": 132.66468750000058,
      "v": 55
    },
    {
      "midi": 62,
      "hit": false,
      "t": 37081.25420833329,
      "d": 265.32937500000116,
      "v": 93
    },
    {
      "midi": 79,
      "hit": false,
      "t": 37104.83904166669,
      "d": 132.66468750000058,
      "v": 55
    },
    {
      "midi": 31,
      "hit": false,
      "t": 37231.60752083332,
      "d": 44.22156249999534,
      "v": 110
    },
    {
      "midi": 31,
      "hit": false,
      "t": 37352.47979166665,
      "d": 85.49502083333209,
      "v": 110
    },
    {
      "midi": 31,
      "hit": false,
      "t": 37635.49779166665,
      "d": 339.03197916666977,
      "v": 110
    },
    {
      "midi": 67,
      "hit": false,
      "t": 37638.4458958333,
      "d": 324.29145833333314,
      "v": 88
    },
    {
      "midi": 67,
      "hit": false,
      "t": 37641.39400000002,
      "d": 132.66468750000058,
      "v": 55
    },
    {
      "midi": 79,
      "hit": false,
      "t": 37812.384041666686,
      "d": 132.66468750000058,
      "v": 55
    },
    {
      "midi": 67,
      "hit": false,
      "t": 38065.92100000002,
      "d": 132.66468750000058,
      "v": 55
    },
    {
      "midi": 55,
      "hit": false,
      "t": 38192.689479166635,
      "d": 306.60283333332336,
      "v": 90
    },
    {
      "midi": 67,
      "hit": false,
      "t": 38201.53379166663,
      "d": 241.74454166666692,
      "v": 86
    },
    {
      "midi": 62,
      "hit": false,
      "t": 38204.4818958333,
      "d": 250.58885416666453,
      "v": 86
    },
    {
      "midi": 48,
      "hit": false,
      "t": 38204.4818958333,
      "d": 297.75852083332575,
      "v": 90
    },
    {
      "midi": 59,
      "hit": false,
      "t": 38204.4818958333,
      "d": 333.13577083333803,
      "v": 82
    },
    {
      "midi": 31,
      "hit": false,
      "t": 38207.429999999986,
      "d": 218.15970833333267,
      "v": 110
    },
    {
      "midi": 79,
      "hit": false,
      "t": 38236.91104166668,
      "d": 132.66468750000058,
      "v": 55
    },
    {
      "midi": 24,
      "hit": false,
      "t": 38484.55179166665,
      "d": 347.8762916666674,
      "v": 110
    },
    {
      "midi": 60,
      "hit": false,
      "t": 38487.4998958333,
      "d": 356.720604166665,
      "v": 88
    },
    {
      "midi": 67,
      "hit": false,
      "t": 38490.44799999996,
      "d": 1824.8764791666617,
      "v": 86
    },
    {
      "midi": 62,
      "hit": false,
      "t": 38493.396104166626,
      "d": 1848.461312499996,
      "v": 86
    },
    {
      "midi": 60,
      "hit": false,
      "t": 38496.344208333256,
      "d": 1774.7587083333347,
      "v": 104
    },
    {
      "midi": 55,
      "hit": false,
      "t": 38499.29231249996,
      "d": 1951.6449583333306,
      "v": 90
    },
    {
      "midi": 48,
      "hit": false,
      "t": 38502.240416666624,
      "d": 1916.2677083333328,
      "v": 90
    },
    {
      "midi": 55,
      "hit": false,
      "t": 38505.18852083325,
      "d": 1804.2397500000006,
      "v": 100
    },
    {
      "midi": 64,
      "hit": false,
      "t": 38511.084729166585,
      "d": 1777.7068125000005,
      "v": 108
    },
    {
      "midi": 67,
      "hit": false,
      "t": 38528.77335416659,
      "d": 1754.1219791666663,
      "v": 105
    },
    {
      "midi": 67,
      "hit": false,
      "t": 38773.466000000015,
      "d": 132.66468750000058,
      "v": 55
    },
    {
      "midi": 79,
      "hit": false,
      "t": 38944.456041666686,
      "d": 132.66468750000058,
      "v": 55
    },
    {
      "midi": 24,
      "hit": false,
      "t": 39059.43210416665,
      "d": 359.66870833333087,
      "v": 110
    },
    {
      "midi": 62,
      "hit": false,
      "t": 39062.3802083333,
      "d": 256.48506250000355,
      "v": 90
    },
    {
      "midi": 67,
      "hit": false,
      "t": 39197.99300000002,
      "d": 132.66468750000058,
      "v": 55
    },
    {
      "midi": 67,
      "hit": false,
      "t": 39345.3982083333,
      "d": 306.60283333333064,
      "v": 90
    },
    {
      "midi": 79,
      "hit": false,
      "t": 39368.98304166668,
      "d": 132.66468750000058,
      "v": 55
    },
    {
      "midi": 24,
      "hit": false,
      "t": 39504.59583333331,
      "d": 47.16966666666849,
      "v": 110
    },
    {
      "midi": 24,
      "hit": false,
      "t": 39622.51999999998,
      "d": 88.44312499999796,
      "v": 110
    },
    {
      "midi": 66,
      "hit": false,
      "t": 39902.5898958333,
      "d": 250.58885416666453,
      "v": 85
    },
    {
      "midi": 24,
      "hit": false,
      "t": 39902.58989583331,
      "d": 389.14974999999686,
      "v": 110
    },
    {
      "midi": 67,
      "hit": false,
      "t": 39905.538000000015,
      "d": 132.66468750000058,
      "v": 55
    },
    {
      "midi": 79,
      "hit": false,
      "t": 40076.52804166668,
      "d": 132.66468750000058,
      "v": 55
    },
    {
      "midi": 64,
      "hit": false,
      "t": 40185.607895833295,
      "d": 117.92416666666395,
      "v": 85
    },
    {
      "midi": 67,
      "hit": false,
      "t": 40330.06500000001,
      "d": 132.66468750000058,
      "v": 55
    },
    {
      "midi": 50,
      "hit": false,
      "t": 40445.04106249996,
      "d": 324.29145833333314,
      "v": 90
    },
    {
      "midi": 57,
      "hit": false,
      "t": 40445.04106249996,
      "d": 327.239562499999,
      "v": 90
    },
    {
      "midi": 24,
      "hit": false,
      "t": 40465.67779166664,
      "d": 76.65070833333448,
      "v": 110
    },
    {
      "midi": 64,
      "hit": false,
      "t": 40468.62589583329,
      "d": 557.1916875000024,
      "v": 88
    },
    {
      "midi": 62,
      "hit": false,
      "t": 40471.57399999996,
      "d": 197.5229791666643,
      "v": 86
    },
    {
      "midi": 67,
      "hit": false,
      "t": 40471.57399999996,
      "d": 212.26350000000093,
      "v": 86
    },
    {
      "midi": 50,
      "hit": false,
      "t": 40489.26262499992,
      "d": 253.5369583333304,
      "v": 94
    },
    {
      "midi": 79,
      "hit": false,
      "t": 40501.055041666674,
      "d": 132.66468750000058,
      "v": 55
    },
    {
      "midi": 57,
      "hit": false,
      "t": 40754.59199999992,
      "d": 268.27747916666704,
      "v": 94
    },
    {
      "midi": 62,
      "hit": false,
      "t": 40754.59199999996,
      "d": 2379.1200624999983,
      "v": 86
    },
    {
      "midi": 62,
      "hit": false,
      "t": 40757.54010416658,
      "d": 294.81041666666715,
      "v": 98
    },
    {
      "midi": 67,
      "hit": false,
      "t": 40757.54010416663,
      "d": 2355.535229166664,
      "v": 86
    },
    {
      "midi": 26,
      "hit": false,
      "t": 40757.54010416664,
      "d": 344.9281875000015,
      "v": 110
    },
    {
      "midi": 67,
      "hit": false,
      "t": 40763.436312499914,
      "d": 288.9142083333354,
      "v": 101
    },
    {
      "midi": 69,
      "hit": false,
      "t": 40766.38441666658,
      "d": 1786.5511249999836,
      "v": 95
    },
    {
      "midi": 50,
      "hit": false,
      "t": 40769.33252083329,
      "d": 2417.445416666669,
      "v": 90
    },
    {
      "midi": 57,
      "hit": false,
      "t": 40772.280624999956,
      "d": 2426.289729166667,
      "v": 90
    },
    {
      "midi": 67,
      "hit": false,
      "t": 41037.61000000001,
      "d": 132.66468750000058,
      "v": 65
    },
    {
      "midi": 57,
      "hit": false,
      "t": 41043.50620833325,
      "d": 283.0179999999964,
      "v": 90
    },
    {
      "midi": 66,
      "hit": false,
      "t": 41043.506208333296,
      "d": 129.7165833333347,
      "v": 93
    },
    {
      "midi": 62,
      "hit": false,
      "t": 41052.35052083325,
      "d": 280.0698958333305,
      "v": 94
    },
    {
      "midi": 67,
      "hit": false,
      "t": 41052.35052083325,
      "d": 283.0179999999964,
      "v": 100
    },
    {
      "midi": 64,
      "hit": false,
      "t": 41176.1708958333,
      "d": 126.76847916666884,
      "v": 81
    },
    {
      "midi": 79,
      "hit": false,
      "t": 41208.60004166667,
      "d": 132.66468750000058,
      "v": 65
    },
    {
      "midi": 62,
      "hit": false,
      "t": 41314.73179166663,
      "d": 403.8902708333335,
      "v": 71
    },
    {
      "midi": 26,
      "hit": false,
      "t": 41317.67989583331,
      "d": 321.34335416666727,
      "v": 110
    },
    {
      "midi": 57,
      "hit": false,
      "t": 41326.52420833325,
      "d": 445.16372916666296,
      "v": 89
    },
    {
      "midi": 62,
      "hit": false,
      "t": 41332.42041666658,
      "d": 433.3713124999995,
      "v": 94
    },
    {
      "midi": 67,
      "hit": false,
      "t": 41335.368520833246,
      "d": 442.2156249999971,
      "v": 101
    },
    {
      "midi": 67,
      "hit": false,
      "t": 41462.137,
      "d": 132.66468750000058,
      "v": 65
    },
    {
      "midi": 79,
      "hit": false,
      "t": 41633.12704166667,
      "d": 132.66468750000058,
      "v": 65
    },
    {
      "midi": 26,
      "hit": false,
      "t": 41765.791729166645,
      "d": 53.06587500000023,
      "v": 110
    },
    {
      "midi": 62,
      "hit": false,
      "t": 41771.68793749991,
      "d": 397.99406249999447,
      "v": 87
    },
    {
      "midi": 57,
      "hit": false,
      "t": 41780.53224999991,
      "d": 271.2255833333329,
      "v": 90
    },
    {
      "midi": 66,
      "hit": false,
      "t": 41780.53224999991,
      "d": 280.0698958333305,
      "v": 104
    },
    {
      "midi": 26,
      "hit": false,
      "t": 41889.61210416665,
      "d": 91.39122916666383,
      "v": 110
    },
    {
      "midi": 57,
      "hit": false,
      "t": 42051.75783333324,
      "d": 117.92416666666395,
      "v": 90
    },
    {
      "midi": 66,
      "hit": false,
      "t": 42060.60214583324,
      "d": 120.87227083332982,
      "v": 91
    },
    {
      "midi": 67,
      "hit": false,
      "t": 42169.682,
      "d": 132.66468750000058,
      "v": 65
    },
    {
      "midi": 26,
      "hit": false,
      "t": 42172.630104166645,
      "d": 415.682687499997,
      "v": 110
    },
    {
      "midi": 57,
      "hit": false,
      "t": 42175.57820833324,
      "d": 459.90424999998504,
      "v": 92
    },
    {
      "midi": 62,
      "hit": false,
      "t": 42178.526312499904,
      "d": 427.47510416666046,
      "v": 88
    },
    {
      "midi": 66,
      "hit": false,
      "t": 42190.31872916657,
      "d": 436.31941666665807,
      "v": 99
    },
    {
      "midi": 79,
      "hit": false,
      "t": 42340.672041666665,
      "d": 132.66468750000058,
      "v": 65
    },
    {
      "midi": 67,
      "hit": false,
      "t": 42594.208999999995,
      "d": 132.66468750000058,
      "v": 65
    },
    {
      "midi": 62,
      "hit": false,
      "t": 42617.79383333323,
      "d": 368.5130208333285,
      "v": 89
    },
    {
      "midi": 66,
      "hit": false,
      "t": 42626.638145833225,
      "d": 150.3533124999958,
      "v": 100
    },
    {
      "midi": 57,
      "hit": false,
      "t": 42644.32677083322,
      "d": 350.82439583333326,
      "v": 91
    },
    {
      "midi": 26,
      "hit": false,
      "t": 42729.82179166664,
      "d": 53.06587500000023,
      "v": 110
    },
    {
      "midi": 67,
      "hit": false,
      "t": 42732.76989583322,
      "d": 268.27747916666704,
      "v": 97
    },
    {
      "midi": 79,
      "hit": false,
      "t": 42765.19904166666,
      "d": 132.66468750000058,
      "v": 65
    },
    {
      "midi": 26,
      "hit": false,
      "t": 43015.78789583331,
      "d": 327.239562499999,
      "v": 110
    },
    {
      "midi": 57,
      "hit": false,
      "t": 43018.73599999989,
      "d": 265.32937500000116,
      "v": 95
    },
    {
      "midi": 62,
      "hit": false,
      "t": 43021.684104166554,
      "d": 560.1397916666683,
      "v": 94
    },
    {
      "midi": 67,
      "hit": false,
      "t": 43030.52841666655,
      "d": 238.79643750000105,
      "v": 98
    },
    {
      "midi": 69,
      "hit": false,
      "t": 43033.47652083322,
      "d": 1836.6688958333398,
      "v": 93
    },
    {
      "midi": 50,
      "hit": false,
      "t": 43295.857791666625,
      "d": 300.7066249999989,
      "v": 90
    },
    {
      "midi": 62,
      "hit": false,
      "t": 43298.80589583329,
      "d": 347.8762916666674,
      "v": 86
    },
    {
      "midi": 67,
      "hit": false,
      "t": 43301.75399999999,
      "d": 132.66468750000058,
      "v": 65
    },
    {
      "midi": 67,
      "hit": false,
      "t": 43304.70210416662,
      "d": 315.4471458333355,
      "v": 86
    },
    {
      "midi": 55,
      "hit": false,
      "t": 43304.702104166645,
      "d": 215.2116041666668,
      "v": 90
    },
    {
      "midi": 57,
      "hit": false,
      "t": 43307.65020833329,
      "d": 303.65472916667204,
      "v": 90
    },
    {
      "midi": 62,
      "hit": false,
      "t": 43307.65020833331,
      "d": 244.6926458333328,
      "v": 65
    },
    {
      "midi": 57,
      "hit": false,
      "t": 43310.59831249989,
      "d": 291.8623125000013,
      "v": 94
    },
    {
      "midi": 67,
      "hit": false,
      "t": 43310.59831249989,
      "d": 294.81041666666715,
      "v": 93
    },
    {
      "midi": 79,
      "hit": false,
      "t": 43472.74404166666,
      "d": 132.66468750000058,
      "v": 65
    },
    {
      "midi": 26,
      "hit": false,
      "t": 43581.82389583331,
      "d": 318.3952500000014,
      "v": 110
    },
    {
      "midi": 62,
      "hit": false,
      "t": 43602.46062499989,
      "d": 424.52700000000186,
      "v": 95
    },
    {
      "midi": 57,
      "hit": false,
      "t": 43602.46062499989,
      "d": 427.47510416666773,
      "v": 91
    },
    {
      "midi": 67,
      "hit": false,
      "t": 43605.40872916656,
      "d": 454.00804166666785,
      "v": 100
    },
    {
      "midi": 67,
      "hit": false,
      "t": 43726.28099999999,
      "d": 132.66468750000058,
      "v": 65
    },
    {
      "midi": 79,
      "hit": false,
      "t": 43897.27104166665,
      "d": 132.66468750000058,
      "v": 65
    },
    {
      "midi": 57,
      "hit": false,
      "t": 44029.93572916656,
      "d": 288.91420833332813,
      "v": 89
    },
    {
      "midi": 26,
      "hit": false,
      "t": 44032.88383333331,
      "d": 38.3253541666636,
      "v": 110
    },
    {
      "midi": 66,
      "hit": false,
      "t": 44041.72814583322,
      "d": 271.2255833333329,
      "v": 97
    },
    {
      "midi": 55,
      "hit": false,
      "t": 44121.32695833332,
      "d": 330.1876666666576,
      "v": 91
    },
    {
      "midi": 48,
      "hit": false,
      "t": 44127.22316666663,
      "d": 274.1736874999988,
      "v": 90
    },
    {
      "midi": 67,
      "hit": false,
      "t": 44144.91179166663,
      "d": 244.6926458333328,
      "v": 86
    },
    {
      "midi": 62,
      "hit": false,
      "t": 44147.859895833295,
      "d": 250.58885416666453,
      "v": 86
    },
    {
      "midi": 55,
      "hit": false,
      "t": 44147.859895833295,
      "d": 259.43316666666215,
      "v": 90
    },
    {
      "midi": 26,
      "hit": false,
      "t": 44147.85989583331,
      "d": 73.7026041666686,
      "v": 110
    },
    {
      "midi": 62,
      "hit": false,
      "t": 44156.704208333314,
      "d": 247.64074999999866,
      "v": 65
    },
    {
      "midi": 62,
      "hit": false,
      "t": 44310.00562499989,
      "d": 132.66468750000058,
      "v": 94
    },
    {
      "midi": 66,
      "hit": false,
      "t": 44312.953729166555,
      "d": 129.7165833333347,
      "v": 100
    },
    {
      "midi": 57,
      "hit": false,
      "t": 44318.84993749989,
      "d": 109.07985416666634,
      "v": 90
    },
    {
      "midi": 57,
      "hit": false,
      "t": 44427.92979166655,
      "d": 477.5928749999948,
      "v": 89
    },
    {
      "midi": 67,
      "hit": false,
      "t": 44430.87789583329,
      "d": 232.9002291666693,
      "v": 86
    },
    {
      "midi": 26,
      "hit": false,
      "t": 44430.87789583331,
      "d": 409.78647916666523,
      "v": 110
    },
    {
      "midi": 67,
      "hit": false,
      "t": 44433.82599999999,
      "d": 132.66468750000058,
      "v": 65
    },
    {
      "midi": 62,
      "hit": false,
      "t": 44436.77410416662,
      "d": 256.48506250000355,
      "v": 86
    },
    {
      "midi": 62,
      "hit": false,
      "t": 44439.72220833331,
      "d": 227.0040208333303,
      "v": 65
    },
    {
      "midi": 62,
      "hit": false,
      "t": 44442.67031249989,
      "d": 439.2675208333312,
      "v": 91
    },
    {
      "midi": 66,
      "hit": false,
      "t": 44442.67031249989,
      "d": 451.0599374999947,
      "v": 96
    },
    {
      "midi": 54,
      "hit": false,
      "t": 44448.56652083331,
      "d": 341.98008333333564,
      "v": 84
    },
    {
      "midi": 57,
      "hit": false,
      "t": 44454.462729166626,
      "d": 462.85235416666546,
      "v": 90
    },
    {
      "midi": 50,
      "hit": false,
      "t": 44457.41083333329,
      "d": 409.78647916666523,
      "v": 90
    },
    {
      "midi": 79,
      "hit": false,
      "t": 44604.81604166665,
      "d": 132.66468750000058,
      "v": 65
    },
    {
      "midi": 55,
      "hit": false,
      "t": 44713.8958958333,
      "d": 256.48506250000355,
      "v": 84
    },
    {
      "midi": 67,
      "hit": false,
      "t": 44858.35299999998,
      "d": 132.66468750000058,
      "v": 65
    },
    {
      "midi": 62,
      "hit": false,
      "t": 44881.93783333322,
      "d": 380.30543749999197,
      "v": 88
    },
    {
      "midi": 66,
      "hit": false,
      "t": 44893.730249999884,
      "d": 135.61279166665918,
      "v": 92
    },
    {
      "midi": 57,
      "hit": false,
      "t": 44905.52266666655,
      "d": 362.61681249999674,
      "v": 90
    },
    {
      "midi": 50,
      "hit": false,
      "t": 44982.173374999955,
      "d": 259.43316666666215,
      "v": 90
    },
    {
      "midi": 43,
      "hit": false,
      "t": 44985.12147916662,
      "d": 268.27747916665976,
      "v": 90
    },
    {
      "midi": 67,
      "hit": false,
      "t": 44993.96579166662,
      "d": 250.58885416666453,
      "v": 86
    },
    {
      "midi": 62,
      "hit": false,
      "t": 44996.913895833284,
      "d": 253.5369583333304,
      "v": 86
    },
    {
      "midi": 57,
      "hit": false,
      "t": 44996.913895833306,
      "d": 94.3393333333297,
      "v": 82
    },
    {
      "midi": 67,
      "hit": false,
      "t": 44999.86199999988,
      "d": 268.27747916666704,
      "v": 95
    },
    {
      "midi": 55,
      "hit": false,
      "t": 44999.86199999998,
      "d": 2541.265791666665,
      "v": 84
    },
    {
      "midi": 62,
      "hit": false,
      "t": 45005.75820833331,
      "d": 483.48908333333384,
      "v": 65
    },
    {
      "midi": 79,
      "hit": false,
      "t": 45029.343041666645,
      "d": 132.66468750000058,
      "v": 65
    },
    {
      "midi": 59,
      "hit": false,
      "t": 45279.9318958333,
      "d": 256.48506250000355,
      "v": 86
    },
    {
      "midi": 55,
      "hit": false,
      "t": 45282.87999999988,
      "d": 2096.1020624999946,
      "v": 96
    },
    {
      "midi": 67,
      "hit": false,
      "t": 45282.87999999995,
      "d": 1904.4752916666694,
      "v": 86
    },
    {
      "midi": 31,
      "hit": false,
      "t": 45282.87999999998,
      "d": 362.61681249999674,
      "v": 110
    },
    {
      "midi": 71,
      "hit": false,
      "t": 45282.880000000005,
      "d": 2240.5591666666733,
      "v": 40
    },
    {
      "midi": 74,
      "hit": false,
      "t": 45282.880000000005,
      "d": 2240.5591666666733,
      "v": 40
    },
    {
      "midi": 79,
      "hit": false,
      "t": 45282.880000000005,
      "d": 2240.5591666666733,
      "v": 40
    },
    {
      "midi": 59,
      "hit": false,
      "t": 45285.82810416655,
      "d": 2125.5831041666606,
      "v": 104
    },
    {
      "midi": 62,
      "hit": false,
      "t": 45285.82810416661,
      "d": 1886.7866666666669,
      "v": 86
    },
    {
      "midi": 43,
      "hit": false,
      "t": 45285.82810416661,
      "d": 1948.696854166672,
      "v": 90
    },
    {
      "midi": 50,
      "hit": false,
      "t": 45288.77620833328,
      "d": 1975.229791666672,
      "v": 90
    },
    {
      "midi": 62,
      "hit": false,
      "t": 45294.672416666544,
      "d": 2122.6349999999948,
      "v": 103
    },
    {
      "midi": 67,
      "hit": false,
      "t": 45303.51672916654,
      "d": 2128.531208333334,
      "v": 106
    },
    {
      "midi": 60,
      "hit": false,
      "t": 45562.949895833306,
      "d": 94.3393333333297,
      "v": 88
    },
    {
      "midi": 67,
      "hit": false,
      "t": 45565.89799999998,
      "d": 132.66468750000058,
      "v": 55
    },
    {
      "midi": 79,
      "hit": false,
      "t": 45736.88804166664,
      "d": 132.66468750000058,
      "v": 55
    },
    {
      "midi": 31,
      "hit": false,
      "t": 45843.019791666644,
      "d": 333.13577083333075,
      "v": 110
    },
    {
      "midi": 62,
      "hit": false,
      "t": 45854.8122083333,
      "d": 106.13175000000047,
      "v": 95
    },
    {
      "midi": 67,
      "hit": false,
      "t": 45990.424999999974,
      "d": 132.66468750000058,
      "v": 55
    },
    {
      "midi": 62,
      "hit": false,
      "t": 46128.9858958333,
      "d": 259.4331666666694,
      "v": 89
    },
    {
      "midi": 79,
      "hit": false,
      "t": 46161.41504166664,
      "d": 132.66468750000058,
      "v": 55
    },
    {
      "midi": 31,
      "hit": false,
      "t": 46297.027833333304,
      "d": 44.22156250000262,
      "v": 110
    },
    {
      "midi": 31,
      "hit": false,
      "t": 46409.055791666644,
      "d": 85.49502083333209,
      "v": 110
    },
    {
      "midi": 67,
      "hit": false,
      "t": 46695.0218958333,
      "d": 277.12179166666465,
      "v": 86
    },
    {
      "midi": 67,
      "hit": false,
      "t": 46697.96999999997,
      "d": 132.66468750000058,
      "v": 55
    },
    {
      "midi": 31,
      "hit": false,
      "t": 46697.96999999998,
      "d": 339.03197916666977,
      "v": 110
    },
    {
      "midi": 79,
      "hit": false,
      "t": 46868.960041666636,
      "d": 132.66468750000058,
      "v": 55
    },
    {
      "midi": 67,
      "hit": false,
      "t": 47122.49699999997,
      "d": 132.66468750000058,
      "v": 55
    },
    {
      "midi": 55,
      "hit": false,
      "t": 47249.26547916662,
      "d": 315.44714583332825,
      "v": 90
    },
    {
      "midi": 67,
      "hit": false,
      "t": 47258.10979166662,
      "d": 241.74454166666692,
      "v": 86
    },
    {
      "midi": 62,
      "hit": false,
      "t": 47261.057895833284,
      "d": 250.58885416666453,
      "v": 86
    },
    {
      "midi": 48,
      "hit": false,
      "t": 47261.057895833284,
      "d": 306.60283333333064,
      "v": 90
    },
    {
      "midi": 59,
      "hit": false,
      "t": 47261.0578958333,
      "d": 280.0698958333305,
      "v": 83
    },
    {
      "midi": 31,
      "hit": false,
      "t": 47266.95410416665,
      "d": 268.27747916666704,
      "v": 110
    },
    {
      "midi": 79,
      "hit": false,
      "t": 47293.48704166663,
      "d": 132.66468750000058,
      "v": 55
    },
    {
      "midi": 62,
      "hit": false,
      "t": 47547.02399999995,
      "d": 1848.4613125000033,
      "v": 86
    },
    {
      "midi": 72,
      "hit": false,
      "t": 47547.02400000001,
      "d": 2240.559166666666,
      "v": 40
    },
    {
      "midi": 76,
      "hit": false,
      "t": 47547.02400000001,
      "d": 2240.559166666666,
      "v": 40
    },
    {
      "midi": 79,
      "hit": false,
      "t": 47547.02400000001,
      "d": 2240.559166666666,
      "v": 40
    },
    {
      "midi": 67,
      "hit": false,
      "t": 47549.97210416661,
      "d": 1824.876479166669,
      "v": 86
    },
    {
      "midi": 24,
      "hit": false,
      "t": 47549.972104166656,
      "d": 344.9281875000015,
      "v": 110
    },
    {
      "midi": 60,
      "hit": false,
      "t": 47552.920208333206,
      "d": 1774.7587083333347,
      "v": 104
    },
    {
      "midi": 60,
      "hit": false,
      "t": 47552.92020833329,
      "d": 315.44714583332825,
      "v": 98
    },
    {
      "midi": 55,
      "hit": false,
      "t": 47561.7645208332,
      "d": 1804.2397500000006,
      "v": 100
    },
    {
      "midi": 55,
      "hit": false,
      "t": 47564.71262499995,
      "d": 1998.814624999999,
      "v": 90
    },
    {
      "midi": 64,
      "hit": false,
      "t": 47567.660729166535,
      "d": 1777.7068125000005,
      "v": 108
    },
    {
      "midi": 48,
      "hit": false,
      "t": 47567.660729166615,
      "d": 1960.4892708333355,
      "v": 90
    },
    {
      "midi": 67,
      "hit": false,
      "t": 47585.34935416654,
      "d": 1754.1219791666663,
      "v": 105
    },
    {
      "midi": 67,
      "hit": false,
      "t": 47830.041999999965,
      "d": 132.66468750000058,
      "v": 55
    },
    {
      "midi": 62,
      "hit": false,
      "t": 47835.93820833329,
      "d": 253.5369583333304,
      "v": 90
    },
    {
      "midi": 79,
      "hit": false,
      "t": 48001.03204166663,
      "d": 132.66468750000058,
      "v": 55
    },
    {
      "midi": 24,
      "hit": false,
      "t": 48113.05999999999,
      "d": 359.66870833333087,
      "v": 110
    },
    {
      "midi": 67,
      "hit": false,
      "t": 48254.56899999996,
      "d": 132.66468750000058,
      "v": 55
    },
    {
      "midi": 67,
      "hit": false,
      "t": 48393.129895833285,
      "d": 315.4471458333355,
      "v": 88
    },
    {
      "midi": 79,
      "hit": false,
      "t": 48425.559041666624,
      "d": 132.66468750000058,
      "v": 55
    },
    {
      "midi": 24,
      "hit": false,
      "t": 48555.27562499999,
      "d": 47.16966666666849,
      "v": 110
    },
    {
      "midi": 24,
      "hit": false,
      "t": 48673.19979166666,
      "d": 88.44312499999796,
      "v": 110
    },
    {
      "midi": 24,
      "hit": false,
      "t": 48956.217791666655,
      "d": 389.14974999999686,
      "v": 110
    },
    {
      "midi": 66,
      "hit": false,
      "t": 48959.165895833285,
      "d": 277.12179166666465,
      "v": 84
    },
    {
      "midi": 67,
      "hit": false,
      "t": 48962.11399999996,
      "d": 132.66468750000058,
      "v": 55
    },
    {
      "midi": 79,
      "hit": false,
      "t": 49133.10404166662,
      "d": 132.66468750000058,
      "v": 55
    },
    {
      "midi": 64,
      "hit": false,
      "t": 49242.18389583328,
      "d": 117.92416666666395,
      "v": 80
    },
    {
      "midi": 67,
      "hit": false,
      "t": 49386.64099999995,
      "d": 132.66468750000058,
      "v": 55
    },
    {
      "midi": 64,
      "hit": false,
      "t": 49525.20189583328,
      "d": 539.5030624999999,
      "v": 80
    },
    {
      "midi": 67,
      "hit": false,
      "t": 49525.201895833285,
      "d": 212.26349999999366,
      "v": 86
    },
    {
      "midi": 50,
      "hit": false,
      "t": 49525.201895833285,
      "d": 300.7066249999989,
      "v": 90
    },
    {
      "midi": 57,
      "hit": false,
      "t": 49525.201895833285,
      "d": 306.60283333333064,
      "v": 90
    },
    {
      "midi": 24,
      "hit": false,
      "t": 49525.20189583332,
      "d": 76.65070833333448,
      "v": 110
    },
    {
      "midi": 62,
      "hit": false,
      "t": 49528.14999999995,
      "d": 197.5229791666643,
      "v": 86
    },
    {
      "midi": 50,
      "hit": false,
      "t": 49545.83862499987,
      "d": 253.5369583333304,
      "v": 94
    },
    {
      "midi": 79,
      "hit": false,
      "t": 49557.63104166662,
      "d": 132.66468750000058,
      "v": 55
    },
    {
      "midi": 67,
      "hit": false,
      "t": 49805.271791666615,
      "d": 2355.535229166664,
      "v": 86
    },
    {
      "midi": 57,
      "hit": false,
      "t": 49811.16799999987,
      "d": 268.27747916666704,
      "v": 94
    },
    {
      "midi": 62,
      "hit": false,
      "t": 49811.16799999995,
      "d": 2379.1200624999983,
      "v": 86
    },
    {
      "midi": 79,
      "hit": false,
      "t": 49811.16800000001,
      "d": 1108.4871666666659,
      "v": 40
    },
    {
      "midi": 74,
      "hit": false,
      "t": 49811.16800000001,
      "d": 4504.703166666666,
      "v": 40
    },
    {
      "midi": 81,
      "hit": false,
      "t": 49811.16800000001,
      "d": 4504.703166666666,
      "v": 40
    },
    {
      "midi": 62,
      "hit": false,
      "t": 49814.11610416653,
      "d": 294.81041666666715,
      "v": 98
    },
    {
      "midi": 26,
      "hit": false,
      "t": 49814.11610416666,
      "d": 344.9281875000015,
      "v": 110
    },
    {
      "midi": 67,
      "hit": false,
      "t": 49820.012312499864,
      "d": 288.9142083333354,
      "v": 101
    },
    {
      "midi": 69,
      "hit": false,
      "t": 49822.96041666653,
      "d": 1786.5511249999836,
      "v": 95
    },
    {
      "midi": 50,
      "hit": false,
      "t": 49825.90852083328,
      "d": 4074.2799583333326,
      "v": 90
    },
    {
      "midi": 57,
      "hit": false,
      "t": 49831.804729166615,
      "d": 4080.1761666666644,
      "v": 90
    },
    {
      "midi": 66,
      "hit": false,
      "t": 50091.23789583328,
      "d": 120.87227083332982,
      "v": 82
    },
    {
      "midi": 67,
      "hit": false,
      "t": 50094.18599999995,
      "d": 132.66468750000058,
      "v": 65
    },
    {
      "midi": 57,
      "hit": false,
      "t": 50100.0822083332,
      "d": 283.0179999999964,
      "v": 90
    },
    {
      "midi": 62,
      "hit": false,
      "t": 50108.9265208332,
      "d": 280.0698958333305,
      "v": 94
    },
    {
      "midi": 67,
      "hit": false,
      "t": 50108.9265208332,
      "d": 283.0179999999964,
      "v": 100
    },
    {
      "midi": 64,
      "hit": false,
      "t": 50229.79879166661,
      "d": 126.76847916666884,
      "v": 70
    },
    {
      "midi": 79,
      "hit": false,
      "t": 50265.176041666615,
      "d": 132.66468750000058,
      "v": 65
    },
    {
      "midi": 26,
      "hit": false,
      "t": 50374.255895833325,
      "d": 321.34335416666727,
      "v": 110
    },
    {
      "midi": 62,
      "hit": false,
      "t": 50380.15210416661,
      "d": 232.9002291666693,
      "v": 68
    },
    {
      "midi": 57,
      "hit": false,
      "t": 50383.1002083332,
      "d": 445.16372916666296,
      "v": 89
    },
    {
      "midi": 62,
      "hit": false,
      "t": 50388.99641666653,
      "d": 433.3713124999995,
      "v": 94
    },
    {
      "midi": 67,
      "hit": false,
      "t": 50391.944520833196,
      "d": 442.2156249999971,
      "v": 101
    },
    {
      "midi": 67,
      "hit": false,
      "t": 50518.712999999945,
      "d": 132.66468750000058,
      "v": 65
    },
    {
      "midi": 79,
      "hit": false,
      "t": 50689.70304166661,
      "d": 132.66468750000058,
      "v": 65
    },
    {
      "midi": 26,
      "hit": false,
      "t": 50822.36772916666,
      "d": 53.06587500000023,
      "v": 110
    },
    {
      "midi": 62,
      "hit": false,
      "t": 50828.26393749986,
      "d": 397.99406249999447,
      "v": 87
    },
    {
      "midi": 57,
      "hit": false,
      "t": 50837.10824999986,
      "d": 271.2255833333329,
      "v": 90
    },
    {
      "midi": 66,
      "hit": false,
      "t": 50837.10824999986,
      "d": 280.0698958333305,
      "v": 104
    },
    {
      "midi": 26,
      "hit": false,
      "t": 50943.24,
      "d": 91.39122916666383,
      "v": 110
    },
    {
      "midi": 78,
      "hit": false,
      "t": 50943.24000000001,
      "d": 1108.4871666666659,
      "v": 40
    },
    {
      "midi": 57,
      "hit": false,
      "t": 51108.33383333319,
      "d": 117.92416666666395,
      "v": 90
    },
    {
      "midi": 66,
      "hit": false,
      "t": 51117.17814583319,
      "d": 120.87227083332982,
      "v": 91
    },
    {
      "midi": 67,
      "hit": false,
      "t": 51226.25799999994,
      "d": 132.66468750000058,
      "v": 65
    },
    {
      "midi": 26,
      "hit": false,
      "t": 51226.257999999994,
      "d": 415.682687499997,
      "v": 110
    },
    {
      "midi": 57,
      "hit": false,
      "t": 51232.15420833319,
      "d": 459.90424999998504,
      "v": 92
    },
    {
      "midi": 62,
      "hit": false,
      "t": 51235.102312499854,
      "d": 427.47510416666046,
      "v": 88
    },
    {
      "midi": 66,
      "hit": false,
      "t": 51246.89472916652,
      "d": 436.31941666665807,
      "v": 99
    },
    {
      "midi": 79,
      "hit": false,
      "t": 51397.24804166661,
      "d": 132.66468750000058,
      "v": 65
    },
    {
      "midi": 67,
      "hit": false,
      "t": 51650.78499999994,
      "d": 132.66468750000058,
      "v": 65
    },
    {
      "midi": 62,
      "hit": false,
      "t": 51674.36983333318,
      "d": 368.5130208333285,
      "v": 89
    },
    {
      "midi": 66,
      "hit": false,
      "t": 51683.214145833175,
      "d": 150.3533124999958,
      "v": 100
    },
    {
      "midi": 57,
      "hit": false,
      "t": 51700.90277083317,
      "d": 350.82439583333326,
      "v": 91
    },
    {
      "midi": 67,
      "hit": false,
      "t": 51789.34589583317,
      "d": 268.27747916666704,
      "v": 97
    },
    {
      "midi": 26,
      "hit": false,
      "t": 51795.24210416666,
      "d": 53.06587500000023,
      "v": 110
    },
    {
      "midi": 79,
      "hit": false,
      "t": 51821.7750416666,
      "d": 132.66468750000058,
      "v": 65
    },
    {
      "midi": 26,
      "hit": false,
      "t": 52072.363895833325,
      "d": 327.239562499999,
      "v": 110
    },
    {
      "midi": 57,
      "hit": false,
      "t": 52075.31199999984,
      "d": 265.32937500000116,
      "v": 95
    },
    {
      "midi": 79,
      "hit": false,
      "t": 52075.31200000001,
      "d": 1108.4871666666659,
      "v": 40
    },
    {
      "midi": 62,
      "hit": false,
      "t": 52078.260104166504,
      "d": 560.1397916666683,
      "v": 94
    },
    {
      "midi": 67,
      "hit": false,
      "t": 52087.1044166665,
      "d": 238.79643750000105,
      "v": 98
    },
    {
      "midi": 69,
      "hit": false,
      "t": 52090.05252083317,
      "d": 1836.6688958333398,
      "v": 93
    },
    {
      "midi": 62,
      "hit": false,
      "t": 52352.43379166661,
      "d": 347.8762916666674,
      "v": 86
    },
    {
      "midi": 67,
      "hit": false,
      "t": 52358.329999999936,
      "d": 132.66468750000058,
      "v": 65
    },
    {
      "midi": 67,
      "hit": false,
      "t": 52361.27810416661,
      "d": 315.4471458333355,
      "v": 86
    },
    {
      "midi": 55,
      "hit": false,
      "t": 52364.22620833331,
      "d": 100.23554166666872,
      "v": 95
    },
    {
      "midi": 57,
      "hit": false,
      "t": 52367.17431249984,
      "d": 291.8623125000013,
      "v": 94
    },
    {
      "midi": 67,
      "hit": false,
      "t": 52367.17431249984,
      "d": 294.81041666666715,
      "v": 93
    },
    {
      "midi": 62,
      "hit": false,
      "t": 52367.17431249998,
      "d": 241.74454166666692,
      "v": 60
    },
    {
      "midi": 79,
      "hit": false,
      "t": 52529.3200416666,
      "d": 132.66468750000058,
      "v": 65
    },
    {
      "midi": 26,
      "hit": false,
      "t": 52638.399895833325,
      "d": 318.3952500000014,
      "v": 110
    },
    {
      "midi": 55,
      "hit": false,
      "t": 52647.24420833331,
      "d": 271.2255833333329,
      "v": 95
    },
    {
      "midi": 62,
      "hit": false,
      "t": 52659.03662499984,
      "d": 424.52700000000186,
      "v": 95
    },
    {
      "midi": 57,
      "hit": false,
      "t": 52659.03662499984,
      "d": 427.47510416666773,
      "v": 91
    },
    {
      "midi": 67,
      "hit": false,
      "t": 52661.98472916651,
      "d": 454.00804166666785,
      "v": 100
    },
    {
      "midi": 67,
      "hit": false,
      "t": 52782.85699999993,
      "d": 132.66468750000058,
      "v": 65
    },
    {
      "midi": 57,
      "hit": false,
      "t": 52930.262208333304,
      "d": 120.87227083332982,
      "v": 95
    },
    {
      "midi": 79,
      "hit": false,
      "t": 52953.847041666595,
      "d": 132.66468750000058,
      "v": 65
    },
    {
      "midi": 57,
      "hit": false,
      "t": 53086.51172916651,
      "d": 288.91420833332813,
      "v": 89
    },
    {
      "midi": 26,
      "hit": false,
      "t": 53089.45983333333,
      "d": 38.3253541666636,
      "v": 110
    },
    {
      "midi": 66,
      "hit": false,
      "t": 53098.30414583317,
      "d": 271.2255833333329,
      "v": 97
    },
    {
      "midi": 62,
      "hit": false,
      "t": 53201.487791666616,
      "d": 250.58885416666453,
      "v": 86
    },
    {
      "midi": 67,
      "hit": false,
      "t": 53207.38399999995,
      "d": 244.6926458333328,
      "v": 86
    },
    {
      "midi": 26,
      "hit": false,
      "t": 53207.38399999999,
      "d": 73.7026041666686,
      "v": 110
    },
    {
      "midi": 78,
      "hit": false,
      "t": 53207.38400000001,
      "d": 1108.4871666666659,
      "v": 40
    },
    {
      "midi": 57,
      "hit": false,
      "t": 53213.2802083333,
      "d": 159.1976250000007,
      "v": 95
    },
    {
      "midi": 62,
      "hit": false,
      "t": 53216.22831249997,
      "d": 250.58885416666453,
      "v": 60
    },
    {
      "midi": 62,
      "hit": false,
      "t": 53366.58162499984,
      "d": 132.66468750000058,
      "v": 94
    },
    {
      "midi": 66,
      "hit": false,
      "t": 53369.529729166505,
      "d": 129.7165833333347,
      "v": 100
    },
    {
      "midi": 57,
      "hit": false,
      "t": 53375.42593749984,
      "d": 109.07985416666634,
      "v": 90
    },
    {
      "midi": 57,
      "hit": false,
      "t": 53484.5057916665,
      "d": 477.5928749999948,
      "v": 89
    },
    {
      "midi": 67,
      "hit": false,
      "t": 53487.45389583328,
      "d": 232.9002291666693,
      "v": 86
    },
    {
      "midi": 55,
      "hit": false,
      "t": 53487.453895833285,
      "d": 76.65070833333448,
      "v": 83
    },
    {
      "midi": 67,
      "hit": false,
      "t": 53490.40199999993,
      "d": 132.66468750000058,
      "v": 65
    },
    {
      "midi": 62,
      "hit": false,
      "t": 53490.401999999944,
      "d": 256.48506250000355,
      "v": 86
    },
    {
      "midi": 26,
      "hit": false,
      "t": 53490.401999999995,
      "d": 409.78647916666523,
      "v": 110
    },
    {
      "midi": 55,
      "hit": false,
      "t": 53496.2982083333,
      "d": 150.3533124999958,
      "v": 95
    },
    {
      "midi": 62,
      "hit": false,
      "t": 53499.24631249984,
      "d": 439.2675208333312,
      "v": 91
    },
    {
      "midi": 66,
      "hit": false,
      "t": 53499.24631249984,
      "d": 451.0599374999947,
      "v": 96
    },
    {
      "midi": 62,
      "hit": false,
      "t": 53499.24631249996,
      "d": 265.3293749999939,
      "v": 60
    },
    {
      "midi": 79,
      "hit": false,
      "t": 53661.39204166659,
      "d": 132.66468750000058,
      "v": 65
    },
    {
      "midi": 50,
      "hit": false,
      "t": 53755.73137499996,
      "d": 73.7026041666686,
      "v": 74
    },
    {
      "midi": 55,
      "hit": false,
      "t": 53779.316208333286,
      "d": 274.1736874999988,
      "v": 98
    },
    {
      "midi": 52,
      "hit": false,
      "t": 53779.31620833329,
      "d": 150.35331250000309,
      "v": 85
    },
    {
      "midi": 67,
      "hit": false,
      "t": 53914.928999999924,
      "d": 132.66468750000058,
      "v": 65
    },
    {
      "midi": 62,
      "hit": false,
      "t": 53938.51383333317,
      "d": 380.30543749999197,
      "v": 88
    },
    {
      "midi": 66,
      "hit": false,
      "t": 53950.306249999834,
      "d": 135.61279166665918,
      "v": 92
    },
    {
      "midi": 57,
      "hit": false,
      "t": 53962.0986666665,
      "d": 362.61681249999674,
      "v": 90
    },
    {
      "midi": 50,
      "hit": false,
      "t": 54024.00885416661,
      "d": 271.2255833333329,
      "v": 90
    },
    {
      "midi": 43,
      "hit": false,
      "t": 54032.85316666661,
      "d": 259.4331666666694,
      "v": 90
    },
    {
      "midi": 62,
      "hit": false,
      "t": 54050.54179166661,
      "d": 253.5369583333304,
      "v": 86
    },
    {
      "midi": 67,
      "hit": false,
      "t": 54056.43799999983,
      "d": 268.27747916666704,
      "v": 95
    },
    {
      "midi": 67,
      "hit": false,
      "t": 54059.38610416661,
      "d": 250.58885416666453,
      "v": 86
    },
    {
      "midi": 57,
      "hit": false,
      "t": 54062.33420833328,
      "d": 73.7026041666686,
      "v": 90
    },
    {
      "midi": 55,
      "hit": false,
      "t": 54062.3342083333,
      "d": 1978.1778958333307,
      "v": 87
    },
    {
      "midi": 62,
      "hit": false,
      "t": 54065.28231249996,
      "d": 250.58885416666453,
      "v": 60
    },
    {
      "midi": 79,
      "hit": false,
      "t": 54085.91904166659,
      "d": 132.66468750000058,
      "v": 65
    },
    {
      "midi": 31,
      "hit": false,
      "t": 54333.55979166666,
      "d": 362.61681249999674,
      "v": 110
    },
    {
      "midi": 62,
      "hit": false,
      "t": 54336.507895833274,
      "d": 1886.7866666666596,
      "v": 86
    },
    {
      "midi": 55,
      "hit": false,
      "t": 54339.45599999983,
      "d": 2096.1020624999946,
      "v": 96
    },
    {
      "midi": 67,
      "hit": false,
      "t": 54339.45599999994,
      "d": 1904.475291666662,
      "v": 86
    },
    {
      "midi": 71,
      "hit": false,
      "t": 54339.45600000001,
      "d": 2240.559166666666,
      "v": 40
    },
    {
      "midi": 74,
      "hit": false,
      "t": 54339.45600000001,
      "d": 2240.559166666666,
      "v": 40
    },
    {
      "midi": 79,
      "hit": false,
      "t": 54339.45600000001,
      "d": 2240.559166666666,
      "v": 40
    },
    {
      "midi": 59,
      "hit": false,
      "t": 54342.4041041665,
      "d": 2125.5831041666606,
      "v": 104
    },
    {
      "midi": 50,
      "hit": false,
      "t": 54342.404104166606,
      "d": 1951.6449583333306,
      "v": 90
    },
    {
      "midi": 59,
      "hit": false,
      "t": 54345.35220833329,
      "d": 291.8623125000013,
      "v": 92
    },
    {
      "midi": 62,
      "hit": false,
      "t": 54351.248416666494,
      "d": 2122.6349999999948,
      "v": 108
    },
    {
      "midi": 43,
      "hit": false,
      "t": 54351.2484166666,
      "d": 1942.800645833333,
      "v": 90
    },
    {
      "midi": 67,
      "hit": false,
      "t": 54360.09272916649,
      "d": 2128.531208333334,
      "v": 103
    },
    {
      "midi": 67,
      "hit": false,
      "t": 54622.47399999992,
      "d": 132.66468750000058,
      "v": 55
    },
    {
      "midi": 60,
      "hit": false,
      "t": 54628.37020833329,
      "d": 112.02795833333221,
      "v": 94
    },
    {
      "midi": 79,
      "hit": false,
      "t": 54793.464041666586,
      "d": 132.66468750000058,
      "v": 55
    },
    {
      "midi": 31,
      "hit": false,
      "t": 54908.44010416666,
      "d": 333.13577083333075,
      "v": 110
    },
    {
      "midi": 62,
      "hit": false,
      "t": 54911.38820833329,
      "d": 103.1836458333346,
      "v": 93
    },
    {
      "midi": 67,
      "hit": false,
      "t": 55047.00099999992,
      "d": 132.66468750000058,
      "v": 55
    },
    {
      "midi": 62,
      "hit": false,
      "t": 55194.40620833329,
      "d": 238.79643750000105,
      "v": 98
    },
    {
      "midi": 79,
      "hit": false,
      "t": 55217.99104166658,
      "d": 132.66468750000058,
      "v": 55
    },
    {
      "midi": 31,
      "hit": false,
      "t": 55353.60383333332,
      "d": 44.22156250000262,
      "v": 110
    },
    {
      "midi": 31,
      "hit": false,
      "t": 55474.47610416666,
      "d": 85.49502083333209,
      "v": 110
    },
    {
      "midi": 67,
      "hit": false,
      "t": 55751.59789583329,
      "d": 271.2255833333329,
      "v": 89
    },
    {
      "midi": 31,
      "hit": false,
      "t": 55751.59789583332,
      "d": 339.03197916666977,
      "v": 110
    },
    {
      "midi": 67,
      "hit": false,
      "t": 55754.545999999915,
      "d": 132.66468750000058,
      "v": 55
    },
    {
      "midi": 79,
      "hit": false,
      "t": 55925.53604166658,
      "d": 132.66468750000058,
      "v": 55
    },
    {
      "midi": 67,
      "hit": false,
      "t": 56179.07299999991,
      "d": 132.66468750000058,
      "v": 55
    },
    {
      "midi": 55,
      "hit": false,
      "t": 56305.8414791666,
      "d": 306.60283333332336,
      "v": 90
    },
    {
      "midi": 62,
      "hit": false,
      "t": 56314.6857916666,
      "d": 250.58885416666453,
      "v": 86
    },
    {
      "midi": 59,
      "hit": false,
      "t": 56314.68579166663,
      "d": 277.12179166666465,
      "v": 78
    },
    {
      "midi": 31,
      "hit": false,
      "t": 56314.685791666656,
      "d": 268.27747916666704,
      "v": 110
    },
    {
      "midi": 48,
      "hit": false,
      "t": 56317.63389583326,
      "d": 297.75852083332575,
      "v": 90
    },
    {
      "midi": 67,
      "hit": false,
      "t": 56320.58199999993,
      "d": 241.74454166666692,
      "v": 86
    },
    {
      "midi": 79,
      "hit": false,
      "t": 56350.06304166657,
      "d": 132.66468750000058,
      "v": 55
    },
    {
      "midi": 67,
      "hit": false,
      "t": 56597.703791666594,
      "d": 1824.8764791666617,
      "v": 86
    },
    {
      "midi": 62,
      "hit": false,
      "t": 56603.599999999926,
      "d": 1848.461312499996,
      "v": 86
    },
    {
      "midi": 72,
      "hit": false,
      "t": 56603.60000000001,
      "d": 2240.5591666666733,
      "v": 40
    },
    {
      "midi": 76,
      "hit": false,
      "t": 56603.60000000001,
      "d": 2240.5591666666733,
      "v": 40
    },
    {
      "midi": 79,
      "hit": false,
      "t": 56603.60000000001,
      "d": 2240.5591666666733,
      "v": 40
    },
    {
      "midi": 24,
      "hit": false,
      "t": 56606.54810416666,
      "d": 344.9281875000015,
      "v": 110
    },
    {
      "midi": 60,
      "hit": false,
      "t": 56609.496208333156,
      "d": 1774.7587083333347,
      "v": 104
    },
    {
      "midi": 60,
      "hit": false,
      "t": 56609.496208333294,
      "d": 153.30141666666896,
      "v": 96
    },
    {
      "midi": 55,
      "hit": false,
      "t": 56612.44431249992,
      "d": 1951.6449583333306,
      "v": 90
    },
    {
      "midi": 48,
      "hit": false,
      "t": 56615.39241666659,
      "d": 1916.2677083333328,
      "v": 90
    },
    {
      "midi": 55,
      "hit": false,
      "t": 56618.34052083315,
      "d": 1804.2397500000006,
      "v": 100
    },
    {
      "midi": 64,
      "hit": false,
      "t": 56624.236729166485,
      "d": 1777.7068125000005,
      "v": 108
    },
    {
      "midi": 67,
      "hit": false,
      "t": 56641.92535416649,
      "d": 1754.1219791666663,
      "v": 105
    },
    {
      "midi": 67,
      "hit": false,
      "t": 56886.61799999991,
      "d": 132.66468750000058,
      "v": 55
    },
    {
      "midi": 60,
      "hit": false,
      "t": 56892.5142083333,
      "d": 253.5369583333304,
      "v": 94
    },
    {
      "midi": 79,
      "hit": false,
      "t": 57057.60804166657,
      "d": 132.66468750000058,
      "v": 55
    },
    {
      "midi": 24,
      "hit": false,
      "t": 57166.687895833325,
      "d": 359.66870833333087,
      "v": 110
    },
    {
      "midi": 67,
      "hit": false,
      "t": 57311.1449999999,
      "d": 132.66468750000058,
      "v": 55
    },
    {
      "midi": 67,
      "hit": false,
      "t": 57449.70589583329,
      "d": 315.4471458333355,
      "v": 89
    },
    {
      "midi": 79,
      "hit": false,
      "t": 57482.13504166657,
      "d": 132.66468750000058,
      "v": 55
    },
    {
      "midi": 24,
      "hit": false,
      "t": 57617.74783333332,
      "d": 47.16966666666849,
      "v": 110
    },
    {
      "midi": 24,
      "hit": false,
      "t": 57738.62010416666,
      "d": 88.44312499999796,
      "v": 110
    },
    {
      "midi": 24,
      "hit": false,
      "t": 58012.793791666656,
      "d": 389.14974999999686,
      "v": 110
    },
    {
      "midi": 66,
      "hit": false,
      "t": 58015.74189583329,
      "d": 259.4331666666694,
      "v": 89
    },
    {
      "midi": 67,
      "hit": false,
      "t": 58018.6899999999,
      "d": 132.66468750000058,
      "v": 55
    },
    {
      "midi": 79,
      "hit": false,
      "t": 58189.680041666565,
      "d": 132.66468750000058,
      "v": 55
    },
    {
      "midi": 67,
      "hit": false,
      "t": 58443.216999999895,
      "d": 132.66468750000058,
      "v": 55
    },
    {
      "midi": 50,
      "hit": false,
      "t": 58558.19306249992,
      "d": 324.29145833332586,
      "v": 90
    },
    {
      "midi": 57,
      "hit": false,
      "t": 58558.19306249992,
      "d": 327.23956249999173,
      "v": 90
    },
    {
      "midi": 62,
      "hit": false,
      "t": 58578.82979166659,
      "d": 197.5229791666643,
      "v": 86
    },
    {
      "midi": 67,
      "hit": false,
      "t": 58587.67410416659,
      "d": 212.26350000000093,
      "v": 86
    },
    {
      "midi": 24,
      "hit": false,
      "t": 58587.674104166654,
      "d": 76.65070833333448,
      "v": 110
    },
    {
      "midi": 64,
      "hit": false,
      "t": 58590.6222083333,
      "d": 324.29145833333314,
      "v": 93
    },
    {
      "midi": 50,
      "hit": false,
      "t": 58602.41462499982,
      "d": 253.5369583333304,
      "v": 94
    },
    {
      "midi": 79,
      "hit": false,
      "t": 58614.20704166656,
      "d": 132.66468750000058,
      "v": 55
    },
    {
      "midi": 62,
      "hit": false,
      "t": 58861.84779166659,
      "d": 2379.1200624999983,
      "v": 86
    },
    {
      "midi": 62,
      "hit": false,
      "t": 58864.7958958333,
      "d": 253.53695833333768,
      "v": 88
    },
    {
      "midi": 57,
      "hit": false,
      "t": 58867.74399999982,
      "d": 268.27747916666704,
      "v": 104
    },
    {
      "midi": 79,
      "hit": false,
      "t": 58867.74400000002,
      "d": 1108.4871666666659,
      "v": 40
    },
    {
      "midi": 74,
      "hit": false,
      "t": 58867.74400000002,
      "d": 3938.667166666666,
      "v": 40
    },
    {
      "midi": 81,
      "hit": false,
      "t": 58867.74400000002,
      "d": 3938.667166666666,
      "v": 40
    },
    {
      "midi": 62,
      "hit": false,
      "t": 58870.69210416648,
      "d": 294.81041666666715,
      "v": 97
    },
    {
      "midi": 67,
      "hit": false,
      "t": 58870.692104166585,
      "d": 2355.535229166664,
      "v": 86
    },
    {
      "midi": 26,
      "hit": false,
      "t": 58870.69210416666,
      "d": 344.9281875000015,
      "v": 110
    },
    {
      "midi": 67,
      "hit": false,
      "t": 58876.588312499814,
      "d": 288.9142083333354,
      "v": 103
    },
    {
      "midi": 69,
      "hit": false,
      "t": 58879.53641666648,
      "d": 1786.5511249999836,
      "v": 99
    },
    {
      "midi": 50,
      "hit": false,
      "t": 58882.48452083325,
      "d": 2417.445416666669,
      "v": 90
    },
    {
      "midi": 57,
      "hit": false,
      "t": 58885.432624999914,
      "d": 2426.289729166667,
      "v": 90
    },
    {
      "midi": 67,
      "hit": false,
      "t": 59150.76199999989,
      "d": 132.66468750000058,
      "v": 65
    },
    {
      "midi": 57,
      "hit": false,
      "t": 59156.65820833315,
      "d": 283.0179999999964,
      "v": 100
    },
    {
      "midi": 62,
      "hit": false,
      "t": 59165.50252083315,
      "d": 280.0698958333305,
      "v": 99
    },
    {
      "midi": 67,
      "hit": false,
      "t": 59165.50252083315,
      "d": 283.0179999999964,
      "v": 98
    },
    {
      "midi": 79,
      "hit": false,
      "t": 59321.75204166656,
      "d": 132.66468750000058,
      "v": 65
    },
    {
      "midi": 26,
      "hit": false,
      "t": 59430.831895833326,
      "d": 321.34335416666727,
      "v": 110
    },
    {
      "midi": 57,
      "hit": false,
      "t": 59439.67620833315,
      "d": 445.16372916666296,
      "v": 89
    },
    {
      "midi": 62,
      "hit": false,
      "t": 59445.57241666648,
      "d": 433.3713124999995,
      "v": 92
    },
    {
      "midi": 67,
      "hit": false,
      "t": 59448.520520833146,
      "d": 442.2156249999971,
      "v": 97
    },
    {
      "midi": 67,
      "hit": false,
      "t": 59575.28899999989,
      "d": 132.66468750000058,
      "v": 65
    },
    {
      "midi": 79,
      "hit": false,
      "t": 59746.27904166655,
      "d": 132.66468750000058,
      "v": 65
    },
    {
      "midi": 26,
      "hit": false,
      "t": 59881.89183333333,
      "d": 53.06587500000023,
      "v": 110
    },
    {
      "midi": 62,
      "hit": false,
      "t": 59884.83993749981,
      "d": 397.99406249999447,
      "v": 87
    },
    {
      "midi": 57,
      "hit": false,
      "t": 59893.68424999981,
      "d": 271.2255833333329,
      "v": 90
    },
    {
      "midi": 66,
      "hit": false,
      "t": 59893.68424999981,
      "d": 280.0698958333305,
      "v": 101
    },
    {
      "midi": 78,
      "hit": false,
      "t": 59999.81600000002,
      "d": 1108.4871666666659,
      "v": 40
    },
    {
      "midi": 26,
      "hit": false,
      "t": 60002.764104166665,
      "d": 91.39122916666383,
      "v": 110
    },
    {
      "midi": 57,
      "hit": false,
      "t": 60164.90983333314,
      "d": 117.92416666666395,
      "v": 90
    },
    {
      "midi": 66,
      "hit": false,
      "t": 60173.75414583314,
      "d": 120.87227083332982,
      "v": 91
    },
    {
      "midi": 67,
      "hit": false,
      "t": 60282.833999999886,
      "d": 132.66468750000058,
      "v": 65
    },
    {
      "midi": 26,
      "hit": false,
      "t": 60282.834,
      "d": 415.682687499997,
      "v": 110
    },
    {
      "midi": 57,
      "hit": false,
      "t": 60288.73020833314,
      "d": 459.90424999998504,
      "v": 92
    },
    {
      "midi": 62,
      "hit": false,
      "t": 60291.678312499804,
      "d": 427.47510416666046,
      "v": 88
    },
    {
      "midi": 66,
      "hit": false,
      "t": 60303.47072916647,
      "d": 436.31941666665807,
      "v": 99
    },
    {
      "midi": 79,
      "hit": false,
      "t": 60453.82404166655,
      "d": 132.66468750000058,
      "v": 65
    },
    {
      "midi": 67,
      "hit": false,
      "t": 60707.36099999988,
      "d": 132.66468750000058,
      "v": 65
    },
    {
      "midi": 62,
      "hit": false,
      "t": 60730.94583333313,
      "d": 368.5130208333285,
      "v": 89
    },
    {
      "midi": 66,
      "hit": false,
      "t": 60739.790145833125,
      "d": 150.3533124999958,
      "v": 97
    },
    {
      "midi": 57,
      "hit": false,
      "t": 60757.47877083312,
      "d": 350.82439583333326,
      "v": 88
    },
    {
      "midi": 26,
      "hit": false,
      "t": 60842.97379166666,
      "d": 53.06587500000023,
      "v": 110
    },
    {
      "midi": 67,
      "hit": false,
      "t": 60845.92189583312,
      "d": 268.27747916666704,
      "v": 97
    },
    {
      "midi": 62,
      "hit": false,
      "t": 60854.7662083333,
      "d": 489.38529166667286,
      "v": 60
    },
    {
      "midi": 55,
      "hit": false,
      "t": 60854.7662083333,
      "d": 604.3613541666709,
      "v": 104
    },
    {
      "midi": 79,
      "hit": false,
      "t": 60878.351041666545,
      "d": 132.66468750000058,
      "v": 65
    },
    {
      "midi": 57,
      "hit": false,
      "t": 61131.88799999979,
      "d": 265.32937500000116,
      "v": 95
    },
    {
      "midi": 79,
      "hit": false,
      "t": 61131.88800000002,
      "d": 1108.4871666666659,
      "v": 40
    },
    {
      "midi": 62,
      "hit": false,
      "t": 61134.836104166454,
      "d": 560.1397916666683,
      "v": 89
    },
    {
      "midi": 26,
      "hit": false,
      "t": 61134.836104166665,
      "d": 327.239562499999,
      "v": 110
    },
    {
      "midi": 67,
      "hit": false,
      "t": 61143.68041666645,
      "d": 238.79643750000105,
      "v": 104
    },
    {
      "midi": 69,
      "hit": false,
      "t": 61146.62852083312,
      "d": 1836.6688958333325,
      "v": 92
    },
    {
      "midi": 50,
      "hit": false,
      "t": 61409.00979166658,
      "d": 300.7066249999989,
      "v": 90
    },
    {
      "midi": 67,
      "hit": false,
      "t": 61414.90599999988,
      "d": 132.66468750000058,
      "v": 65
    },
    {
      "midi": 62,
      "hit": false,
      "t": 61414.905999999915,
      "d": 347.8762916666674,
      "v": 86
    },
    {
      "midi": 67,
      "hit": false,
      "t": 61417.85410416658,
      "d": 315.4471458333355,
      "v": 86
    },
    {
      "midi": 57,
      "hit": false,
      "t": 61420.80220833325,
      "d": 303.65472916667204,
      "v": 90
    },
    {
      "midi": 62,
      "hit": false,
      "t": 61420.802208333305,
      "d": 165.09383333333244,
      "v": 60
    },
    {
      "midi": 57,
      "hit": false,
      "t": 61423.75031249979,
      "d": 291.8623125000013,
      "v": 88
    },
    {
      "midi": 67,
      "hit": false,
      "t": 61423.75031249979,
      "d": 294.81041666666715,
      "v": 104
    },
    {
      "midi": 57,
      "hit": false,
      "t": 61426.69841666664,
      "d": 185.73056250000081,
      "v": 93
    },
    {
      "midi": 79,
      "hit": false,
      "t": 61585.89604166654,
      "d": 132.66468750000058,
      "v": 65
    },
    {
      "midi": 26,
      "hit": false,
      "t": 61700.872104166665,
      "d": 318.3952500000014,
      "v": 110
    },
    {
      "midi": 62,
      "hit": false,
      "t": 61703.8202083333,
      "d": 141.5089999999982,
      "v": 60
    },
    {
      "midi": 57,
      "hit": false,
      "t": 61709.71641666663,
      "d": 173.93814583333005,
      "v": 95
    },
    {
      "midi": 62,
      "hit": false,
      "t": 61715.61262499979,
      "d": 424.52700000000186,
      "v": 93
    },
    {
      "midi": 57,
      "hit": false,
      "t": 61715.61262499979,
      "d": 427.47510416666773,
      "v": 93
    },
    {
      "midi": 67,
      "hit": false,
      "t": 61718.56072916646,
      "d": 454.00804166666785,
      "v": 100
    },
    {
      "midi": 67,
      "hit": false,
      "t": 61839.43299999987,
      "d": 132.66468750000058,
      "v": 65
    },
    {
      "midi": 57,
      "hit": false,
      "t": 61986.83820833325,
      "d": 1379.7127499999915,
      "v": 85
    },
    {
      "midi": 50,
      "hit": false,
      "t": 61986.83820833325,
      "d": 1382.6608541666574,
      "v": 85
    },
    {
      "midi": 62,
      "hit": false,
      "t": 61986.8382083333,
      "d": 132.66468750000058,
      "v": 60
    },
    {
      "midi": 55,
      "hit": false,
      "t": 61995.682520833296,
      "d": 173.93814583333733,
      "v": 103
    },
    {
      "midi": 79,
      "hit": false,
      "t": 62010.42304166654,
      "d": 132.66468750000058,
      "v": 65
    },
    {
      "midi": 57,
      "hit": false,
      "t": 62143.08772916646,
      "d": 288.91420833332813,
      "v": 90
    },
    {
      "midi": 26,
      "hit": false,
      "t": 62143.08772916667,
      "d": 38.3253541666636,
      "v": 110
    },
    {
      "midi": 66,
      "hit": false,
      "t": 62154.88014583312,
      "d": 271.2255833333329,
      "v": 100
    },
    {
      "midi": 67,
      "hit": false,
      "t": 62263.95999999991,
      "d": 244.6926458333328,
      "v": 86
    },
    {
      "midi": 62,
      "hit": false,
      "t": 62263.95999999991,
      "d": 250.58885416666453,
      "v": 86
    },
    {
      "midi": 26,
      "hit": false,
      "t": 62266.908104166665,
      "d": 73.7026041666686,
      "v": 110
    },
    {
      "midi": 62,
      "hit": false,
      "t": 62269.8562083333,
      "d": 1123.2276874999952,
      "v": 60
    },
    {
      "midi": 57,
      "hit": false,
      "t": 62272.80431249997,
      "d": 1090.7985416666634,
      "v": 90
    },
    {
      "midi": 62,
      "hit": false,
      "t": 62423.15762499979,
      "d": 132.66468750000058,
      "v": 90
    },
    {
      "midi": 66,
      "hit": false,
      "t": 62426.105729166455,
      "d": 129.7165833333347,
      "v": 100
    },
    {
      "midi": 57,
      "hit": false,
      "t": 62432.00193749979,
      "d": 109.07985416666634,
      "v": 92
    },
    {
      "midi": 57,
      "hit": false,
      "t": 62541.08179166645,
      "d": 471.6966666666558,
      "v": 90
    },
    {
      "midi": 67,
      "hit": false,
      "t": 62541.08179166658,
      "d": 232.90022916666203,
      "v": 86
    },
    {
      "midi": 26,
      "hit": false,
      "t": 62541.081791666664,
      "d": 247.64074999999866,
      "v": 110
    },
    {
      "midi": 67,
      "hit": false,
      "t": 62546.97799999987,
      "d": 132.66468750000058,
      "v": 65
    },
    {
      "midi": 62,
      "hit": false,
      "t": 62546.97799999991,
      "d": 256.4850624999963,
      "v": 86
    },
    {
      "midi": 66,
      "hit": false,
      "t": 62555.82231249979,
      "d": 362.61681249999674,
      "v": 99
    },
    {
      "midi": 62,
      "hit": false,
      "t": 62555.82231249979,
      "d": 439.26752083332394,
      "v": 94
    },
    {
      "midi": 79,
      "hit": false,
      "t": 62717.968041666536,
      "d": 132.66468750000058,
      "v": 65
    },
    {
      "midi": 26,
      "hit": false,
      "t": 62824.09979166666,
      "d": 135.61279166666645,
      "v": 110
    },
    {
      "midi": 57,
      "hit": false,
      "t": 62827.047895833304,
      "d": 265.32937500000116,
      "v": 82
    },
    {
      "midi": 64,
      "hit": false,
      "t": 62834.41815624999,
      "d": 268.2774791666743,
      "v": 95
    },
    {
      "midi": 60,
      "hit": false,
      "t": 62834.41815624999,
      "d": 271.2255833333402,
      "v": 85
    },
    {
      "midi": 67,
      "hit": false,
      "t": 62971.50499999987,
      "d": 132.66468750000058,
      "v": 65
    },
    {
      "midi": 62,
      "hit": false,
      "t": 62995.08983333311,
      "d": 371.46112499999435,
      "v": 91
    },
    {
      "midi": 66,
      "hit": false,
      "t": 63000.986041666445,
      "d": 153.30141666666168,
      "v": 99
    },
    {
      "midi": 57,
      "hit": false,
      "t": 63012.77845833311,
      "d": 365.5649166666626,
      "v": 90
    },
    {
      "midi": 59,
      "hit": false,
      "t": 63110.0658958333,
      "d": 117.92416666667123,
      "v": 82
    },
    {
      "midi": 66,
      "hit": false,
      "t": 63117.43615624999,
      "d": 112.02795833333221,
      "v": 95
    },
    {
      "midi": 62,
      "hit": false,
      "t": 63117.43615624999,
      "d": 144.45710416666407,
      "v": 85
    },
    {
      "midi": 67,
      "hit": false,
      "t": 63124.80641666644,
      "d": 259.43316666666215,
      "v": 103
    },
    {
      "midi": 79,
      "hit": false,
      "t": 63142.49504166653,
      "d": 132.66468750000058,
      "v": 65
    },
    {
      "midi": 67,
      "hit": false,
      "t": 63390.13579166657,
      "d": 2143.271729166663,
      "v": 86
    },
    {
      "midi": 60,
      "hit": false,
      "t": 63396.03199999977,
      "d": 2104.9463749999923,
      "v": 96
    },
    {
      "midi": 60,
      "hit": false,
      "t": 63396.031999999905,
      "d": 2131.4793124999997,
      "v": 86
    },
    {
      "midi": 45,
      "hit": false,
      "t": 63396.031999999905,
      "d": 2240.5591666666587,
      "v": 90
    },
    {
      "midi": 33,
      "hit": false,
      "t": 63396.032,
      "d": 445.16372916667024,
      "v": 110
    },
    {
      "midi": 67,
      "hit": false,
      "t": 63396.03200000002,
      "d": 2169.8046666666633,
      "v": 70
    },
    {
      "midi": 60,
      "hit": false,
      "t": 63396.03200000002,
      "d": 2172.7527708333364,
      "v": 70
    },
    {
      "midi": 64,
      "hit": false,
      "t": 63396.03200000002,
      "d": 2178.648979166668,
      "v": 70
    },
    {
      "midi": 64,
      "hit": false,
      "t": 63398.98010416643,
      "d": 2093.153958333329,
      "v": 99
    },
    {
      "midi": 60,
      "hit": false,
      "t": 63398.980104166636,
      "d": 271.22558333332563,
      "v": 103
    },
    {
      "midi": 67,
      "hit": false,
      "t": 63400.45415624999,
      "d": 259.4331666666694,
      "v": 95
    },
    {
      "midi": 64,
      "hit": false,
      "t": 63400.45415624999,
      "d": 265.32937500000116,
      "v": 85
    },
    {
      "midi": 57,
      "hit": false,
      "t": 63401.9282083331,
      "d": 2075.4653333333335,
      "v": 100
    },
    {
      "midi": 52,
      "hit": false,
      "t": 63401.92820833324,
      "d": 2252.351583333322,
      "v": 90
    },
    {
      "midi": 67,
      "hit": false,
      "t": 63407.82441666643,
      "d": 2072.5172291666677,
      "v": 100
    },
    {
      "midi": 59,
      "hit": false,
      "t": 63676.10189583329,
      "d": 126.76847916666884,
      "v": 85
    },
    {
      "midi": 66,
      "hit": false,
      "t": 63683.47215624999,
      "d": 117.92416666666395,
      "v": 95
    },
    {
      "midi": 62,
      "hit": false,
      "t": 63683.47215624999,
      "d": 150.3533124999958,
      "v": 85
    },
    {
      "midi": 33,
      "hit": false,
      "t": 63956.17179166667,
      "d": 359.66870833333087,
      "v": 110
    },
    {
      "midi": 60,
      "hit": false,
      "t": 63965.01610416663,
      "d": 262.3812708333353,
      "v": 101
    },
    {
      "midi": 64,
      "hit": false,
      "t": 63966.49015624999,
      "d": 268.27747916666704,
      "v": 85
    },
    {
      "midi": 67,
      "hit": false,
      "t": 63966.49015624999,
      "d": 268.27747916666704,
      "v": 95
    },
    {
      "midi": 59,
      "hit": false,
      "t": 64242.1378958333,
      "d": 123.82037500000297,
      "v": 80
    },
    {
      "midi": 66,
      "hit": false,
      "t": 64249.50815624999,
      "d": 120.87227083332982,
      "v": 95
    },
    {
      "midi": 62,
      "hit": false,
      "t": 64249.50815624999,
      "d": 250.58885416666453,
      "v": 85
    },
    {
      "midi": 33,
      "hit": false,
      "t": 64407.23172916666,
      "d": 50.11777083333436,
      "v": 110
    },
    {
      "midi": 33,
      "hit": false,
      "t": 64528.104,
      "d": 58.962083333331975,
      "v": 110
    },
    {
      "midi": 60,
      "hit": false,
      "t": 64531.052104166636,
      "d": 271.2255833333329,
      "v": 104
    },
    {
      "midi": 64,
      "hit": false,
      "t": 64532.52615624999,
      "d": 170.99004166666418,
      "v": 85
    },
    {
      "midi": 67,
      "hit": false,
      "t": 64532.52615624999,
      "d": 265.3293749999939,
      "v": 95
    },
    {
      "midi": 33,
      "hit": false,
      "t": 64805.225791666664,
      "d": 421.578895833336,
      "v": 110
    },
    {
      "midi": 59,
      "hit": false,
      "t": 64808.1738958333,
      "d": 256.48506250000355,
      "v": 81
    },
    {
      "midi": 64,
      "hit": false,
      "t": 64815.544156249984,
      "d": 262.3812708333353,
      "v": 85
    },
    {
      "midi": 66,
      "hit": false,
      "t": 64815.544156249984,
      "d": 268.27747916666704,
      "v": 95
    },
    {
      "midi": 57,
      "hit": false,
      "t": 65091.191895833304,
      "d": 135.61279166666645,
      "v": 82
    },
    {
      "midi": 64,
      "hit": false,
      "t": 65098.56215624999,
      "d": 112.02795833333221,
      "v": 95
    },
    {
      "midi": 62,
      "hit": false,
      "t": 65098.56215624999,
      "d": 262.3812708333353,
      "v": 85
    },
    {
      "midi": 33,
      "hit": false,
      "t": 65371.261791666664,
      "d": 144.45710416666407,
      "v": 110
    },
    {
      "midi": 64,
      "hit": false,
      "t": 65381.58015624999,
      "d": 170.99004166667146,
      "v": 95
    },
    {
      "midi": 60,
      "hit": false,
      "t": 65381.58015624999,
      "d": 179.83435416667635,
      "v": 85
    },
    {
      "midi": 55,
      "hit": false,
      "t": 65383.054208333306,
      "d": 194.57487499999843,
      "v": 98
    },
    {
      "midi": 60,
      "hit": false,
      "t": 65654.27979166643,
      "d": 271.2255833333329,
      "v": 101
    },
    {
      "midi": 55,
      "hit": false,
      "t": 65654.27979166643,
      "d": 1105.5390625,
      "v": 88
    },
    {
      "midi": 36,
      "hit": false,
      "t": 65654.27979166666,
      "d": 563.0878958333342,
      "v": 110
    },
    {
      "midi": 60,
      "hit": false,
      "t": 65657.22789583323,
      "d": 1120.2795833333512,
      "v": 86
    },
    {
      "midi": 48,
      "hit": false,
      "t": 65660.1759999999,
      "d": 1067.213708333351,
      "v": 90
    },
    {
      "midi": 67,
      "hit": false,
      "t": 65660.17600000002,
      "d": 1046.576979166668,
      "v": 70
    },
    {
      "midi": 64,
      "hit": false,
      "t": 65660.17600000002,
      "d": 1070.161812499995,
      "v": 70
    },
    {
      "midi": 60,
      "hit": false,
      "t": 65660.17600000002,
      "d": 1105.5390625,
      "v": 70
    },
    {
      "midi": 67,
      "hit": false,
      "t": 65663.12410416658,
      "d": 1120.2795833333366,
      "v": 86
    },
    {
      "midi": 64,
      "hit": false,
      "t": 65666.07220833309,
      "d": 1081.954229166673,
      "v": 96
    },
    {
      "midi": 55,
      "hit": false,
      "t": 65666.07220833325,
      "d": 1099.6428541666683,
      "v": 90
    },
    {
      "midi": 67,
      "hit": false,
      "t": 65677.86462499975,
      "d": 728.1817291666812,
      "v": 98
    },
    {
      "midi": 64,
      "hit": false,
      "t": 65947.61615625,
      "d": 250.58885416666453,
      "v": 95
    },
    {
      "midi": 60,
      "hit": false,
      "t": 65947.61615625,
      "d": 265.32937500000116,
      "v": 85
    },
    {
      "midi": 55,
      "hit": false,
      "t": 65949.0902083333,
      "d": 288.91420833332813,
      "v": 95
    },
    {
      "midi": 60,
      "hit": false,
      "t": 65963.83072916642,
      "d": 253.53695833333768,
      "v": 106
    },
    {
      "midi": 24,
      "hit": false,
      "t": 66220.31579166667,
      "d": 400.94216666666034,
      "v": 110
    },
    {
      "midi": 62,
      "hit": false,
      "t": 66246.84872916644,
      "d": 501.17770833332906,
      "v": 110
    },
    {
      "midi": 67,
      "hit": false,
      "t": 66512.17810416644,
      "d": 253.53695833332313,
      "v": 110
    },
    {
      "midi": 66,
      "hit": false,
      "t": 66513.65215625001,
      "d": 206.3672916666692,
      "v": 95
    },
    {
      "midi": 62,
      "hit": false,
      "t": 66513.65215625001,
      "d": 259.4331666666694,
      "v": 85
    },
    {
      "midi": 57,
      "hit": false,
      "t": 66515.1262083333,
      "d": 283.0179999999964,
      "v": 92
    },
    {
      "midi": 24,
      "hit": false,
      "t": 66665.47952083332,
      "d": 100.23554166666872,
      "v": 110
    },
    {
      "midi": 26,
      "hit": false,
      "t": 66789.29989583332,
      "d": 58.962083333331975,
      "v": 110
    },
    {
      "midi": 62,
      "hit": false,
      "t": 66792.24799999976,
      "d": 389.1497500000114,
      "v": 103
    },
    {
      "midi": 54,
      "hit": false,
      "t": 66792.24799999976,
      "d": 928.6528125000332,
      "v": 88
    },
    {
      "midi": 50,
      "hit": false,
      "t": 66792.24799999992,
      "d": 1099.6428541666828,
      "v": 90
    },
    {
      "midi": 62,
      "hit": false,
      "t": 66792.24799999992,
      "d": 1120.2795833333512,
      "v": 86
    },
    {
      "midi": 69,
      "hit": false,
      "t": 66792.24800000002,
      "d": 1081.954229166673,
      "v": 70
    },
    {
      "midi": 62,
      "hit": false,
      "t": 66792.24800000002,
      "d": 1099.6428541666683,
      "v": 70
    },
    {
      "midi": 66,
      "hit": false,
      "t": 66792.24800000002,
      "d": 1102.5909583333414,
      "v": 70
    },
    {
      "midi": 66,
      "hit": false,
      "t": 66795.19610416659,
      "d": 1123.2276875000098,
      "v": 86
    },
    {
      "midi": 57,
      "hit": false,
      "t": 66798.14420833327,
      "d": 1073.1099166666681,
      "v": 90
    },
    {
      "midi": 57,
      "hit": false,
      "t": 66801.09231249976,
      "d": 937.4971250000235,
      "v": 96
    },
    {
      "midi": 66,
      "hit": false,
      "t": 66804.04041666644,
      "d": 271.2255833333329,
      "v": 104
    },
    {
      "midi": 26,
      "hit": false,
      "t": 67072.31789583332,
      "d": 507.0739166666608,
      "v": 110
    },
    {
      "midi": 67,
      "hit": false,
      "t": 67087.05841666643,
      "d": 247.64075000000594,
      "v": 106
    },
    {
      "midi": 57,
      "hit": false,
      "t": 67355.3358958333,
      "d": 285.96610416666954,
      "v": 84
    },
    {
      "midi": 60,
      "hit": false,
      "t": 67362.70615625,
      "d": 268.27747916665976,
      "v": 85
    },
    {
      "midi": 64,
      "hit": false,
      "t": 67362.70615625,
      "d": 268.27747916665976,
      "v": 95
    },
    {
      "midi": 69,
      "hit": false,
      "t": 67375.97262499978,
      "d": 288.9142083333427,
      "v": 107
    },
    {
      "midi": 59,
      "hit": false,
      "t": 67635.40579166664,
      "d": 126.76847916666884,
      "v": 78
    },
    {
      "midi": 26,
      "hit": false,
      "t": 67644.25010416664,
      "d": 235.8483333333279,
      "v": 110
    },
    {
      "midi": 62,
      "hit": false,
      "t": 67645.72415625,
      "d": 114.97606250000536,
      "v": 85
    },
    {
      "midi": 66,
      "hit": false,
      "t": 67645.72415625,
      "d": 117.9241666666785,
      "v": 95
    },
    {
      "midi": 67,
      "hit": false,
      "t": 67661.93872916645,
      "d": 238.7964375000156,
      "v": 108
    },
    {
      "midi": 60,
      "hit": false,
      "t": 67921.37189583328,
      "d": 2175.7008750000095,
      "v": 86
    },
    {
      "midi": 67,
      "hit": false,
      "t": 67921.37189583328,
      "d": 2181.5970833333413,
      "v": 86
    },
    {
      "midi": 60,
      "hit": false,
      "t": 67924.31999999979,
      "d": 2104.946375000014,
      "v": 97
    },
    {
      "midi": 45,
      "hit": false,
      "t": 67924.31999999995,
      "d": 2214.026229166673,
      "v": 90
    },
    {
      "midi": 60,
      "hit": false,
      "t": 67924.32000000004,
      "d": 2193.389500000005,
      "v": 70
    },
    {
      "midi": 64,
      "hit": false,
      "t": 67924.32000000004,
      "d": 2211.078125,
      "v": 70
    },
    {
      "midi": 67,
      "hit": false,
      "t": 67924.32000000004,
      "d": 2219.922437500005,
      "v": 70
    },
    {
      "midi": 64,
      "hit": false,
      "t": 67927.26810416646,
      "d": 2093.153958333336,
      "v": 97
    },
    {
      "midi": 33,
      "hit": false,
      "t": 67927.26810416664,
      "d": 445.16372916667024,
      "v": 110
    },
    {
      "midi": 60,
      "hit": false,
      "t": 67927.26810416664,
      "d": 271.22558333331835,
      "v": 106
    },
    {
      "midi": 64,
      "hit": false,
      "t": 67928.74215625001,
      "d": 265.32937500000116,
      "v": 85
    },
    {
      "midi": 67,
      "hit": false,
      "t": 67928.74215625001,
      "d": 268.2774791666743,
      "v": 95
    },
    {
      "midi": 57,
      "hit": false,
      "t": 67930.21620833314,
      "d": 2075.4653333333263,
      "v": 100
    },
    {
      "midi": 52,
      "hit": false,
      "t": 67930.21620833328,
      "d": 2255.29968750001,
      "v": 90
    },
    {
      "midi": 67,
      "hit": false,
      "t": 67936.11241666647,
      "d": 2072.5172291666677,
      "v": 95
    },
    {
      "midi": 59,
      "hit": false,
      "t": 68201.44179166663,
      "d": 141.50900000000547,
      "v": 76
    },
    {
      "midi": 62,
      "hit": false,
      "t": 68211.76015625002,
      "d": 103.18364583332732,
      "v": 85
    },
    {
      "midi": 66,
      "hit": false,
      "t": 68211.76015625002,
      "d": 114.9760624999908,
      "v": 95
    },
    {
      "midi": 60,
      "hit": false,
      "t": 68493.30410416663,
      "d": 256.4850624999963,
      "v": 101
    },
    {
      "midi": 33,
      "hit": false,
      "t": 68493.30410416664,
      "d": 359.66870833333815,
      "v": 110
    },
    {
      "midi": 64,
      "hit": false,
      "t": 68494.77815625002,
      "d": 253.53695833333768,
      "v": 85
    },
    {
      "midi": 67,
      "hit": false,
      "t": 68494.77815625002,
      "d": 259.4331666666694,
      "v": 95
    },
    {
      "midi": 59,
      "hit": false,
      "t": 68770.4258958333,
      "d": 153.30141666666896,
      "v": 84
    },
    {
      "midi": 62,
      "hit": false,
      "t": 68777.79615625001,
      "d": 123.82037499999569,
      "v": 85
    },
    {
      "midi": 66,
      "hit": false,
      "t": 68777.79615625001,
      "d": 129.71658333332743,
      "v": 95
    },
    {
      "midi": 33,
      "hit": false,
      "t": 68929.62352083331,
      "d": 50.117770833327086,
      "v": 110
    },
    {
      "midi": 33,
      "hit": false,
      "t": 69053.4438958333,
      "d": 58.962083333331975,
      "v": 110
    },
    {
      "midi": 60,
      "hit": false,
      "t": 69059.34010416664,
      "d": 265.32937500000116,
      "v": 104
    },
    {
      "midi": 64,
      "hit": false,
      "t": 69060.81415625001,
      "d": 247.64075000000594,
      "v": 85
    },
    {
      "midi": 67,
      "hit": false,
      "t": 69060.81415625001,
      "d": 256.4850625000108,
      "v": 95
    },
    {
      "midi": 59,
      "hit": false,
      "t": 69336.4618958333,
      "d": 277.12179166666465,
      "v": 89
    },
    {
      "midi": 33,
      "hit": false,
      "t": 69339.40999999997,
      "d": 421.5788958333287,
      "v": 110
    },
    {
      "midi": 66,
      "hit": false,
      "t": 69343.83215625002,
      "d": 265.32937500000116,
      "v": 95
    },
    {
      "midi": 62,
      "hit": false,
      "t": 69343.83215625002,
      "d": 268.2774791666743,
      "v": 85
    },
    {
      "midi": 60,
      "hit": false,
      "t": 69625.37610416663,
      "d": 262.381270833328,
      "v": 104
    },
    {
      "midi": 64,
      "hit": false,
      "t": 69626.85015625003,
      "d": 120.8722708333371,
      "v": 85
    },
    {
      "midi": 67,
      "hit": false,
      "t": 69626.85015625003,
      "d": 120.8722708333371,
      "v": 95
    },
    {
      "midi": 33,
      "hit": false,
      "t": 69902.49789583331,
      "d": 144.45710416666407,
      "v": 110
    },
    {
      "midi": 67,
      "hit": false,
      "t": 69909.86815625004,
      "d": 114.97606250000536,
      "v": 95
    },
    {
      "midi": 64,
      "hit": false,
      "t": 69909.86815625004,
      "d": 156.2495208333421,
      "v": 85
    },
    {
      "midi": 62,
      "hit": false,
      "t": 69911.34220833328,
      "d": 253.53695833333768,
      "v": 95
    },
    {
      "midi": 60,
      "hit": false,
      "t": 70182.56779166647,
      "d": 271.2255833333329,
      "v": 105
    },
    {
      "midi": 55,
      "hit": false,
      "t": 70182.56779166647,
      "d": 1105.5390625,
      "v": 88
    },
    {
      "midi": 67,
      "hit": false,
      "t": 70182.56779166662,
      "d": 1117.331479166678,
      "v": 86
    },
    {
      "midi": 60,
      "hit": false,
      "t": 70188.46399999996,
      "d": 1120.2795833333366,
      "v": 86
    },
    {
      "midi": 48,
      "hit": false,
      "t": 70188.46399999996,
      "d": 1132.0720000000001,
      "v": 90
    },
    {
      "midi": 67,
      "hit": false,
      "t": 70188.46400000004,
      "d": 1031.8364583333314,
      "v": 70
    },
    {
      "midi": 64,
      "hit": false,
      "t": 70188.46400000004,
      "d": 1081.9542291666585,
      "v": 70
    },
    {
      "midi": 60,
      "hit": false,
      "t": 70188.46400000004,
      "d": 1087.8504374999902,
      "v": 70
    },
    {
      "midi": 36,
      "hit": false,
      "t": 70191.41210416664,
      "d": 533.6068541666609,
      "v": 110
    },
    {
      "midi": 64,
      "hit": false,
      "t": 70194.36020833314,
      "d": 1081.954229166673,
      "v": 98
    },
    {
      "midi": 55,
      "hit": false,
      "t": 70194.3602083333,
      "d": 1146.8125208333367,
      "v": 90
    },
    {
      "midi": 67,
      "hit": false,
      "t": 70206.1526249998,
      "d": 728.1817291666812,
      "v": 98
    },
    {
      "midi": 62,
      "hit": false,
      "t": 70477.37820833329,
      "d": 274.17368750000605,
      "v": 92
    },
    {
      "midi": 60,
      "hit": false,
      "t": 70492.11872916647,
      "d": 253.53695833333768,
      "v": 106
    },
    {
      "midi": 24,
      "hit": false,
      "t": 70748.60379166662,
      "d": 380.3054375000065,
      "v": 110
    },
    {
      "midi": 59,
      "hit": false,
      "t": 70751.5518958333,
      "d": 256.4850624999963,
      "v": 82
    },
    {
      "midi": 62,
      "hit": false,
      "t": 70775.13672916648,
      "d": 501.17770833332906,
      "v": 108
    },
    {
      "midi": 67,
      "hit": false,
      "t": 71040.46610416648,
      "d": 253.53695833332313,
      "v": 105
    },
    {
      "midi": 62,
      "hit": false,
      "t": 71040.46610416663,
      "d": 232.9002291666693,
      "v": 101
    },
    {
      "midi": 24,
      "hit": false,
      "t": 71202.6118333333,
      "d": 100.23554166666872,
      "v": 110
    },
    {
      "midi": 62,
      "hit": false,
      "t": 71314.63979166663,
      "d": 1129.1238958333415,
      "v": 86
    },
    {
      "midi": 62,
      "hit": false,
      "t": 71320.5359999998,
      "d": 389.14975000002596,
      "v": 103
    },
    {
      "midi": 54,
      "hit": false,
      "t": 71320.5359999998,
      "d": 928.6528125000477,
      "v": 98
    },
    {
      "midi": 26,
      "hit": false,
      "t": 71320.53599999996,
      "d": 58.962083333331975,
      "v": 110
    },
    {
      "midi": 50,
      "hit": false,
      "t": 71320.53599999996,
      "d": 1064.2656041666778,
      "v": 90
    },
    {
      "midi": 66,
      "hit": false,
      "t": 71320.53599999996,
      "d": 1108.4871666666731,
      "v": 86
    },
    {
      "midi": 62,
      "hit": false,
      "t": 71320.53600000002,
      "d": 1099.6428541666683,
      "v": 70
    },
    {
      "midi": 66,
      "hit": false,
      "t": 71320.53600000002,
      "d": 1102.5909583333414,
      "v": 70
    },
    {
      "midi": 69,
      "hit": false,
      "t": 71320.53600000002,
      "d": 1102.5909583333414,
      "v": 70
    },
    {
      "midi": 57,
      "hit": false,
      "t": 71326.4322083333,
      "d": 1064.2656041666778,
      "v": 90
    },
    {
      "midi": 57,
      "hit": false,
      "t": 71329.38031249981,
      "d": 937.4971250000381,
      "v": 97
    },
    {
      "midi": 66,
      "hit": false,
      "t": 71332.32841666648,
      "d": 285.96610416666954,
      "v": 107
    },
    {
      "midi": 26,
      "hit": false,
      "t": 71600.6058958333,
      "d": 507.0739166666608,
      "v": 110
    },
    {
      "midi": 67,
      "hit": false,
      "t": 71621.24262499982,
      "d": 247.64075000000594,
      "v": 107
    },
    {
      "midi": 57,
      "hit": false,
      "t": 71883.6238958333,
      "d": 268.27747916665976,
      "v": 84
    },
    {
      "midi": 69,
      "hit": false,
      "t": 71904.26062499984,
      "d": 288.9142083333427,
      "v": 108
    },
    {
      "midi": 59,
      "hit": false,
      "t": 72166.6418958333,
      "d": 135.61279166667373,
      "v": 80
    },
    {
      "midi": 26,
      "hit": false,
      "t": 72169.58999999997,
      "d": 235.8483333333279,
      "v": 110
    },
    {
      "midi": 67,
      "hit": false,
      "t": 72190.2267291665,
      "d": 238.7964375000156,
      "v": 108
    },
    {
      "midi": 67,
      "hit": false,
      "t": 72449.6598958333,
      "d": 2240.5591666666733,
      "v": 86
    },
    {
      "midi": 60,
      "hit": false,
      "t": 72452.60799999985,
      "d": 2093.1539583333506,
      "v": 101
    },
    {
      "midi": 45,
      "hit": false,
      "t": 72452.60799999998,
      "d": 2219.922437500005,
      "v": 90
    },
    {
      "midi": 60,
      "hit": false,
      "t": 72452.60799999998,
      "d": 2243.507270833332,
      "v": 86
    },
    {
      "midi": 60,
      "hit": false,
      "t": 72452.60800000002,
      "d": 2172.7527708333364,
      "v": 70
    },
    {
      "midi": 67,
      "hit": false,
      "t": 72452.60800000002,
      "d": 2187.493291666673,
      "v": 70
    },
    {
      "midi": 64,
      "hit": false,
      "t": 72452.60800000002,
      "d": 2193.389500000005,
      "v": 70
    },
    {
      "midi": 57,
      "hit": false,
      "t": 72455.55610416652,
      "d": 2078.4134374999994,
      "v": 96
    },
    {
      "midi": 33,
      "hit": false,
      "t": 72455.55610416662,
      "d": 395.0459583333286,
      "v": 110
    },
    {
      "midi": 64,
      "hit": false,
      "t": 72457.03015625004,
      "d": 265.32937500000116,
      "v": 85
    },
    {
      "midi": 67,
      "hit": false,
      "t": 72457.03015625004,
      "d": 274.17368750000605,
      "v": 95
    },
    {
      "midi": 64,
      "hit": false,
      "t": 72458.5042083332,
      "d": 2099.050166666668,
      "v": 102
    },
    {
      "midi": 52,
      "hit": false,
      "t": 72458.50420833331,
      "d": 2249.4034791666636,
      "v": 90
    },
    {
      "midi": 60,
      "hit": false,
      "t": 72458.50420833331,
      "d": 253.53695833333768,
      "v": 95
    },
    {
      "midi": 67,
      "hit": false,
      "t": 72464.40041666653,
      "d": 2072.5172291666677,
      "v": 97
    },
    {
      "midi": 59,
      "hit": false,
      "t": 72729.72979166664,
      "d": 106.13175000000047,
      "v": 71
    },
    {
      "midi": 66,
      "hit": false,
      "t": 72740.04815625005,
      "d": 114.97606250000536,
      "v": 95
    },
    {
      "midi": 62,
      "hit": false,
      "t": 72740.04815625005,
      "d": 129.716583333342,
      "v": 85
    },
    {
      "midi": 33,
      "hit": false,
      "t": 73015.69589583328,
      "d": 365.5649166666699,
      "v": 110
    },
    {
      "midi": 67,
      "hit": false,
      "t": 73023.06615625006,
      "d": 262.381270833328,
      "v": 95
    },
    {
      "midi": 64,
      "hit": false,
      "t": 73023.06615625006,
      "d": 274.1736874999915,
      "v": 85
    },
    {
      "midi": 60,
      "hit": false,
      "t": 73024.5402083333,
      "d": 265.32937500000116,
      "v": 98
    },
    {
      "midi": 59,
      "hit": false,
      "t": 73295.76579166664,
      "d": 280.0698958333378,
      "v": 78
    },
    {
      "midi": 66,
      "hit": false,
      "t": 73306.08415625006,
      "d": 176.88624999999593,
      "v": 95
    },
    {
      "midi": 62,
      "hit": false,
      "t": 73306.08415625006,
      "d": 200.4710833333229,
      "v": 85
    },
    {
      "midi": 33,
      "hit": false,
      "t": 73460.85962499995,
      "d": 32.42914583333186,
      "v": 110
    },
    {
      "midi": 57,
      "hit": false,
      "t": 73581.7318958333,
      "d": 247.64075000000594,
      "v": 86
    },
    {
      "midi": 33,
      "hit": false,
      "t": 73584.67999999995,
      "d": 53.06587500000023,
      "v": 110
    },
    {
      "midi": 64,
      "hit": false,
      "t": 73589.10215625005,
      "d": 176.88624999999593,
      "v": 85
    },
    {
      "midi": 67,
      "hit": false,
      "t": 73589.10215625005,
      "d": 232.9002291666693,
      "v": 95
    },
    {
      "midi": 33,
      "hit": false,
      "t": 73861.80179166661,
      "d": 389.14974999999686,
      "v": 110
    },
    {
      "midi": 67,
      "hit": false,
      "t": 73872.12015625005,
      "d": 206.3672916666692,
      "v": 95
    },
    {
      "midi": 64,
      "hit": false,
      "t": 73872.12015625005,
      "d": 268.2774791666743,
      "v": 85
    },
    {
      "midi": 55,
      "hit": false,
      "t": 73873.5942083333,
      "d": 300.70662500000617,
      "v": 92
    },
    {
      "midi": 33,
      "hit": false,
      "t": 74436.68210416661,
      "d": 165.09383333333244,
      "v": 110
    },
    {
      "midi": 60,
      "hit": false,
      "t": 74436.68210416664,
      "d": 542.4511666666658,
      "v": 100
    },
    {
      "midi": 64,
      "hit": false,
      "t": 74438.15615625006,
      "d": 548.3473749999976,
      "v": 85
    },
    {
      "midi": 67,
      "hit": false,
      "t": 74438.15615625006,
      "d": 548.3473749999976,
      "v": 95
    },
    {
      "midi": 36,
      "hit": false,
      "t": 74710.85579166662,
      "d": 551.2954791666707,
      "v": 110
    },
    {
      "midi": 67,
      "hit": false,
      "t": 74713.8038958333,
      "d": 1960.4892708333355,
      "v": 86
    },
    {
      "midi": 60,
      "hit": false,
      "t": 74713.8038958333,
      "d": 1963.4373750000086,
      "v": 86
    },
    {
      "midi": 55,
      "hit": false,
      "t": 74716.75199999986,
      "d": 2010.6070416666917,
      "v": 102
    },
    {
      "midi": 48,
      "hit": false,
      "t": 74716.75199999998,
      "d": 2228.76675000001,
      "v": 90
    },
    {
      "midi": 64,
      "hit": false,
      "t": 74716.75200000002,
      "d": 2175.700874999995,
      "v": 70
    },
    {
      "midi": 67,
      "hit": false,
      "t": 74716.75200000002,
      "d": 2190.4413958333316,
      "v": 70
    },
    {
      "midi": 60,
      "hit": false,
      "t": 74716.75200000002,
      "d": 2225.8186458333366,
      "v": 70
    },
    {
      "midi": 60,
      "hit": false,
      "t": 74722.6482083332,
      "d": 1992.9184166666819,
      "v": 102
    },
    {
      "midi": 55,
      "hit": false,
      "t": 74722.64820833331,
      "d": 2261.195895833356,
      "v": 90
    },
    {
      "midi": 64,
      "hit": false,
      "t": 74725.59631249987,
      "d": 1998.8146250000136,
      "v": 96
    },
    {
      "midi": 67,
      "hit": false,
      "t": 74728.54441666654,
      "d": 2028.2956666666869,
      "v": 96
    },
    {
      "midi": 59,
      "hit": false,
      "t": 74996.8218958333,
      "d": 112.02795833333221,
      "v": 84
    },
    {
      "midi": 66,
      "hit": false,
      "t": 75004.19215625005,
      "d": 103.18364583332732,
      "v": 95
    },
    {
      "midi": 62,
      "hit": false,
      "t": 75004.19215625005,
      "d": 221.10781249999127,
      "v": 85
    },
    {
      "midi": 24,
      "hit": false,
      "t": 75285.73610416662,
      "d": 341.98008333332837,
      "v": 110
    },
    {
      "midi": 60,
      "hit": false,
      "t": 75285.73610416663,
      "d": 274.17368750000605,
      "v": 101
    },
    {
      "midi": 64,
      "hit": false,
      "t": 75287.21015625005,
      "d": 262.381270833328,
      "v": 85
    },
    {
      "midi": 67,
      "hit": false,
      "t": 75287.21015625005,
      "d": 265.32937500000116,
      "v": 95
    },
    {
      "midi": 59,
      "hit": false,
      "t": 75562.85789583331,
      "d": 265.32937500000116,
      "v": 82
    },
    {
      "midi": 62,
      "hit": false,
      "t": 75570.22815625004,
      "d": 168.0419375000056,
      "v": 85
    },
    {
      "midi": 66,
      "hit": false,
      "t": 75570.22815625004,
      "d": 265.32937500000116,
      "v": 95
    },
    {
      "midi": 24,
      "hit": false,
      "t": 75730.89983333327,
      "d": 64.85829166666372,
      "v": 110
    },
    {
      "midi": 24,
      "hit": false,
      "t": 75851.77210416661,
      "d": 70.75449999999546,
      "v": 110
    },
    {
      "midi": 64,
      "hit": false,
      "t": 75853.24615625004,
      "d": 262.381270833328,
      "v": 85
    },
    {
      "midi": 67,
      "hit": false,
      "t": 75853.24615625004,
      "d": 262.381270833328,
      "v": 95
    },
    {
      "midi": 60,
      "hit": false,
      "t": 75854.72020833331,
      "d": 277.1217916666792,
      "v": 95
    },
    {
      "midi": 62,
      "hit": false,
      "t": 76128.89389583332,
      "d": 132.66468750000058,
      "v": 86
    },
    {
      "midi": 24,
      "hit": false,
      "t": 76131.84199999993,
      "d": 403.8902708333335,
      "v": 110
    },
    {
      "midi": 69,
      "hit": false,
      "t": 76136.26415625004,
      "d": 123.82037499999569,
      "v": 95
    },
    {
      "midi": 67,
      "hit": false,
      "t": 76136.26415625004,
      "d": 135.61279166665918,
      "v": 85
    },
    {
      "midi": 62,
      "hit": false,
      "t": 76411.91189583331,
      "d": 129.71658333332743,
      "v": 88
    },
    {
      "midi": 69,
      "hit": false,
      "t": 76419.28215625003,
      "d": 126.76847916666884,
      "v": 95
    },
    {
      "midi": 67,
      "hit": false,
      "t": 76419.28215625003,
      "d": 132.66468750000058,
      "v": 85
    },
    {
      "midi": 62,
      "hit": false,
      "t": 76691.98179166665,
      "d": 265.32937500000116,
      "v": 86
    },
    {
      "midi": 67,
      "hit": false,
      "t": 76694.92989583332,
      "d": 265.32937500000116,
      "v": 86
    },
    {
      "midi": 24,
      "hit": false,
      "t": 76700.8261041666,
      "d": 170.99004166666418,
      "v": 110
    },
    {
      "midi": 69,
      "hit": false,
      "t": 76702.30015625003,
      "d": 3658.5972708333284,
      "v": 95
    },
    {
      "midi": 67,
      "hit": false,
      "t": 76702.30015625003,
      "d": 4198.100333333336,
      "v": 96
    },
    {
      "midi": 62,
      "hit": false,
      "t": 76703.77420833331,
      "d": 3673.337791666607,
      "v": 95
    },
    {
      "midi": 62,
      "hit": false,
      "t": 76980.89599999989,
      "d": 2116.7387916666776,
      "v": 106
    },
    {
      "midi": 50,
      "hit": false,
      "t": 76980.896,
      "d": 2246.455375000005,
      "v": 90
    },
    {
      "midi": 62,
      "hit": false,
      "t": 76980.896,
      "d": 4395.623312499985,
      "v": 86
    },
    {
      "midi": 67,
      "hit": false,
      "t": 76980.89600000002,
      "d": 2193.389500000005,
      "v": 70
    },
    {
      "midi": 62,
      "hit": false,
      "t": 76980.89600000002,
      "d": 4422.15625,
      "v": 70
    },
    {
      "midi": 69,
      "hit": false,
      "t": 76980.89600000002,
      "d": 4422.15625,
      "v": 70
    },
    {
      "midi": 67,
      "hit": false,
      "t": 76983.84410416656,
      "d": 2125.583104166668,
      "v": 89
    },
    {
      "midi": 26,
      "hit": false,
      "t": 76983.8441041666,
      "d": 737.0260416666715,
      "v": 110
    },
    {
      "midi": 57,
      "hit": false,
      "t": 76983.84410416667,
      "d": 2243.507270833332,
      "v": 90
    },
    {
      "midi": 67,
      "hit": false,
      "t": 76983.84410416667,
      "d": 4377.934687499976,
      "v": 86
    },
    {
      "midi": 57,
      "hit": false,
      "t": 76989.7403124999,
      "d": 2072.5172291666677,
      "v": 102
    },
    {
      "midi": 69,
      "hit": false,
      "t": 76989.7403124999,
      "d": 2107.8944791666727,
      "v": 92
    },
    {
      "midi": 26,
      "hit": false,
      "t": 77829.94999999994,
      "d": 91.39122916666383,
      "v": 110
    },
    {
      "midi": 26,
      "hit": false,
      "t": 78112.96799999994,
      "d": 734.0779374999984,
      "v": 110
    },
    {
      "midi": 26,
      "hit": false,
      "t": 78962.02199999994,
      "d": 94.33933333332243,
      "v": 110
    },
    {
      "midi": 66,
      "hit": false,
      "t": 78966.44415625003,
      "d": 132.66468750000058,
      "v": 96
    },
    {
      "midi": 64,
      "hit": false,
      "t": 79107.95315625003,
      "d": 129.71658333332743,
      "v": 96
    },
    {
      "midi": 66,
      "hit": false,
      "t": 79245.04000000002,
      "d": 2172.7527708333364,
      "v": 70
    },
    {
      "midi": 26,
      "hit": false,
      "t": 79247.9881041666,
      "d": 259.4331666666694,
      "v": 110
    },
    {
      "midi": 62,
      "hit": false,
      "t": 79249.46215625003,
      "d": 1653.886437500012,
      "v": 99
    },
    {
      "midi": 62,
      "hit": false,
      "t": 79253.8843124999,
      "d": 813.6767500000133,
      "v": 102
    },
    {
      "midi": 57,
      "hit": false,
      "t": 79256.83241666657,
      "d": 843.157791666672,
      "v": 93
    },
    {
      "midi": 50,
      "hit": false,
      "t": 79259.78052083324,
      "d": 843.157791666672,
      "v": 100
    },
    {
      "midi": 69,
      "hit": false,
      "t": 79259.78052083324,
      "d": 2216.97433333339,
      "v": 103
    },
    {
      "midi": 50,
      "hit": false,
      "t": 79504.47316666666,
      "d": 259.4331666666694,
      "v": 85
    },
    {
      "midi": 57,
      "hit": false,
      "t": 79504.47316666666,
      "d": 259.4331666666694,
      "v": 80
    },
    {
      "midi": 26,
      "hit": false,
      "t": 79528.05799999993,
      "d": 259.4331666666694,
      "v": 84
    },
    {
      "midi": 50,
      "hit": false,
      "t": 79787.49116666666,
      "d": 259.4331666666694,
      "v": 90
    },
    {
      "midi": 57,
      "hit": false,
      "t": 79787.49116666666,
      "d": 259.4331666666694,
      "v": 86
    },
    {
      "midi": 26,
      "hit": false,
      "t": 79808.12789583327,
      "d": 259.4331666666694,
      "v": 91
    },
    {
      "midi": 50,
      "hit": false,
      "t": 80070.50916666666,
      "d": 259.4331666666694,
      "v": 96
    },
    {
      "midi": 57,
      "hit": false,
      "t": 80070.50916666666,
      "d": 259.4331666666694,
      "v": 81
    },
    {
      "midi": 26,
      "hit": false,
      "t": 80097.04210416661,
      "d": 259.4331666666694,
      "v": 96
    },
    {
      "midi": 57,
      "hit": false,
      "t": 80099.99020833324,
      "d": 291.86231250001583,
      "v": 92
    },
    {
      "midi": 50,
      "hit": false,
      "t": 80102.93831249991,
      "d": 285.96610416666954,
      "v": 90
    },
    {
      "midi": 50,
      "hit": false,
      "t": 80353.52716666665,
      "d": 259.4331666666694,
      "v": 94
    },
    {
      "midi": 57,
      "hit": false,
      "t": 80353.52716666665,
      "d": 259.4331666666694,
      "v": 90
    },
    {
      "midi": 26,
      "hit": false,
      "t": 80374.16389583328,
      "d": 259.4331666666694,
      "v": 101
    },
    {
      "midi": 62,
      "hit": false,
      "t": 80380.06010416658,
      "d": 280.06989583335235,
      "v": 84
    },
    {
      "midi": 50,
      "hit": false,
      "t": 80388.90441666658,
      "d": 259.4331666666694,
      "v": 90
    },
    {
      "midi": 57,
      "hit": false,
      "t": 80391.85252083326,
      "d": 259.4331666666694,
      "v": 93
    },
    {
      "midi": 50,
      "hit": false,
      "t": 80636.54516666665,
      "d": 259.4331666666694,
      "v": 96
    },
    {
      "midi": 57,
      "hit": false,
      "t": 80636.54516666665,
      "d": 259.4331666666694,
      "v": 86
    },
    {
      "midi": 50,
      "hit": false,
      "t": 80648.33758333325,
      "d": 280.06989583335235,
      "v": 103
    },
    {
      "midi": 57,
      "hit": false,
      "t": 80651.28568749993,
      "d": 274.17368750000605,
      "v": 95
    },
    {
      "midi": 67,
      "hit": false,
      "t": 80657.18189583326,
      "d": 120.87227083332255,
      "v": 89
    },
    {
      "midi": 26,
      "hit": false,
      "t": 80660.12999999995,
      "d": 259.4331666666694,
      "v": 105
    },
    {
      "midi": 69,
      "hit": false,
      "t": 80660.12999999998,
      "d": 819.5729583333887,
      "v": 91
    },
    {
      "midi": 62,
      "hit": false,
      "t": 80666.02620833326,
      "d": 262.38127083334257,
      "v": 80
    },
    {
      "midi": 50,
      "hit": false,
      "t": 80919.56316666664,
      "d": 259.4331666666694,
      "v": 101
    },
    {
      "midi": 57,
      "hit": false,
      "t": 80919.56316666664,
      "d": 259.4331666666694,
      "v": 95
    },
    {
      "midi": 50,
      "hit": false,
      "t": 80940.19989583327,
      "d": 274.17368750000605,
      "v": 103
    },
    {
      "midi": 62,
      "hit": false,
      "t": 80940.19989583327,
      "d": 280.06989583335235,
      "v": 92
    },
    {
      "midi": 26,
      "hit": false,
      "t": 80946.09610416662,
      "d": 259.4331666666694,
      "v": 110
    },
    {
      "midi": 66,
      "hit": false,
      "t": 80949.04420833325,
      "d": 259.4331666666694,
      "v": 99
    },
    {
      "midi": 57,
      "hit": false,
      "t": 80949.04420833327,
      "d": 268.2774791666743,
      "v": 100
    },
    {
      "midi": 50,
      "hit": false,
      "t": 81202.58116666664,
      "d": 259.4331666666694,
      "v": 104
    },
    {
      "midi": 57,
      "hit": false,
      "t": 81202.58116666664,
      "d": 259.4331666666694,
      "v": 96
    },
    {
      "midi": 26,
      "hit": false,
      "t": 81220.26979166662,
      "d": 259.4331666666694,
      "v": 110
    },
    {
      "midi": 50,
      "hit": false,
      "t": 81220.26979166662,
      "d": 209.31539583334234,
      "v": 107
    },
    {
      "midi": 57,
      "hit": false,
      "t": 81226.16599999995,
      "d": 200.47108333333745,
      "v": 95
    },
    {
      "midi": 67,
      "hit": false,
      "t": 81232.06220833324,
      "d": 138.56089583333232,
      "v": 91
    },
    {
      "midi": 62,
      "hit": false,
      "t": 81235.01031249996,
      "d": 259.4331666666694,
      "v": 98
    },
    {
      "midi": 55,
      "hit": false,
      "t": 81509.18399999996,
      "d": 548.3473750000121,
      "v": 89
    },
    {
      "midi": 43,
      "hit": false,
      "t": 81509.18399999998,
      "d": 1874.994250000018,
      "v": 95
    },
    {
      "midi": 67,
      "hit": false,
      "t": 81509.18399999998,
      "d": 1889.7347708333546,
      "v": 86
    },
    {
      "midi": 74,
      "hit": false,
      "t": 81509.18400000002,
      "d": 2178.648979166668,
      "v": 50
    },
    {
      "midi": 79,
      "hit": false,
      "t": 81509.18400000002,
      "d": 2178.648979166668,
      "v": 50
    },
    {
      "midi": 71,
      "hit": false,
      "t": 81509.18400000002,
      "d": 2237.6110625,
      "v": 50
    },
    {
      "midi": 50,
      "hit": false,
      "t": 81509.18400000007,
      "d": 321.34335416666,
      "v": 78
    },
    {
      "midi": 31,
      "hit": false,
      "t": 81512.13210416662,
      "d": 403.8902708333335,
      "v": 110
    },
    {
      "midi": 62,
      "hit": false,
      "t": 81512.13210416664,
      "d": 548.3473750000121,
      "v": 96
    },
    {
      "midi": 59,
      "hit": false,
      "t": 81512.13210416664,
      "d": 554.2435833333438,
      "v": 94
    },
    {
      "midi": 62,
      "hit": false,
      "t": 81512.13210416665,
      "d": 1877.9423541666765,
      "v": 86
    },
    {
      "midi": 71,
      "hit": false,
      "t": 81515.08020833324,
      "d": 265.32937500000116,
      "v": 99
    },
    {
      "midi": 50,
      "hit": false,
      "t": 81515.08020833333,
      "d": 1874.9942500000034,
      "v": 95
    },
    {
      "midi": 67,
      "hit": false,
      "t": 81518.02831249997,
      "d": 542.4511666666804,
      "v": 102
    },
    {
      "midi": 67,
      "hit": false,
      "t": 81795.15010416658,
      "d": 271.2255833333329,
      "v": 100
    },
    {
      "midi": 52,
      "hit": false,
      "t": 81812.83872916673,
      "d": 91.39122916666383,
      "v": 82
    },
    {
      "midi": 31,
      "hit": false,
      "t": 82069.32379166663,
      "d": 362.61681249999674,
      "v": 110
    },
    {
      "midi": 62,
      "hit": false,
      "t": 82075.22000000006,
      "d": 2149.167937499966,
      "v": 60
    },
    {
      "midi": 55,
      "hit": false,
      "t": 82092.90862499998,
      "d": 483.4890833333484,
      "v": 89
    },
    {
      "midi": 62,
      "hit": false,
      "t": 82095.85672916665,
      "d": 418.6307916666701,
      "v": 97
    },
    {
      "midi": 59,
      "hit": false,
      "t": 82098.80483333333,
      "d": 400.94216666666034,
      "v": 95
    },
    {
      "midi": 67,
      "hit": false,
      "t": 82098.80483333333,
      "d": 415.682687499997,
      "v": 102
    },
    {
      "midi": 55,
      "hit": false,
      "t": 82098.80483333339,
      "d": 1506.4812291666603,
      "v": 98
    },
    {
      "midi": 67,
      "hit": false,
      "t": 82364.13420833324,
      "d": 324.29145833333314,
      "v": 93
    },
    {
      "midi": 67,
      "hit": false,
      "t": 82514.48752083333,
      "d": 395.04595833334315,
      "v": 94
    },
    {
      "midi": 62,
      "hit": false,
      "t": 82514.48752083333,
      "d": 403.89027083334804,
      "v": 102
    },
    {
      "midi": 59,
      "hit": false,
      "t": 82517.435625,
      "d": 389.14974999999686,
      "v": 94
    },
    {
      "midi": 31,
      "hit": false,
      "t": 82520.38372916663,
      "d": 38.3253541666636,
      "v": 110
    },
    {
      "midi": 55,
      "hit": false,
      "t": 82635.35979166666,
      "d": 778.2995000000083,
      "v": 95
    },
    {
      "midi": 31,
      "hit": false,
      "t": 82641.25599999996,
      "d": 82.5469166666735,
      "v": 110
    },
    {
      "midi": 31,
      "hit": false,
      "t": 82921.3258958333,
      "d": 418.6307916666701,
      "v": 110
    },
    {
      "midi": 62,
      "hit": false,
      "t": 82924.274,
      "d": 568.9841041666659,
      "v": 96
    },
    {
      "midi": 67,
      "hit": false,
      "t": 82924.274,
      "d": 577.8284166666708,
      "v": 102
    },
    {
      "midi": 59,
      "hit": false,
      "t": 82930.17020833323,
      "d": 120.8722708333371,
      "v": 90
    },
    {
      "midi": 59,
      "hit": false,
      "t": 82930.17020833334,
      "d": 568.9841041666659,
      "v": 88
    },
    {
      "midi": 59,
      "hit": false,
      "t": 83213.18820833325,
      "d": 265.32937500000116,
      "v": 93
    },
    {
      "midi": 43,
      "hit": false,
      "t": 83469.67327083333,
      "d": 327.23956250002084,
      "v": 95
    },
    {
      "midi": 55,
      "hit": false,
      "t": 83478.51758333333,
      "d": 250.58885416667908,
      "v": 95
    },
    {
      "midi": 62,
      "hit": false,
      "t": 83484.41379166667,
      "d": 259.433166666684,
      "v": 86
    },
    {
      "midi": 50,
      "hit": false,
      "t": 83487.36189583334,
      "d": 277.1217916666792,
      "v": 95
    },
    {
      "midi": 31,
      "hit": false,
      "t": 83490.30999999997,
      "d": 106.13175000000047,
      "v": 110
    },
    {
      "midi": 67,
      "hit": false,
      "t": 83490.31000000001,
      "d": 250.58885416666453,
      "v": 86
    },
    {
      "midi": 62,
      "hit": false,
      "t": 83493.25810416667,
      "d": 238.7964375000156,
      "v": 93
    },
    {
      "midi": 60,
      "hit": false,
      "t": 83496.20620833324,
      "d": 112.02795833333221,
      "v": 95
    },
    {
      "midi": 59,
      "hit": false,
      "t": 83499.1543125,
      "d": 235.848333333357,
      "v": 101
    },
    {
      "midi": 67,
      "hit": false,
      "t": 83502.10241666668,
      "d": 244.6926458333619,
      "v": 104
    },
    {
      "midi": 48,
      "hit": false,
      "t": 83652.45572916672,
      "d": 126.76847916665429,
      "v": 67
    },
    {
      "midi": 50,
      "hit": false,
      "t": 83729.10643750004,
      "d": 327.23956249999173,
      "v": 79
    },
    {
      "midi": 62,
      "hit": false,
      "t": 83770.37989583335,
      "d": 1833.7207916666812,
      "v": 86
    },
    {
      "midi": 76,
      "hit": false,
      "t": 83773.32800000002,
      "d": 2163.9084583333315,
      "v": 50
    },
    {
      "midi": 79,
      "hit": false,
      "t": 83773.32800000002,
      "d": 2163.9084583333315,
      "v": 50
    },
    {
      "midi": 72,
      "hit": false,
      "t": 83773.32800000002,
      "d": 2190.4413958333316,
      "v": 50
    },
    {
      "midi": 24,
      "hit": false,
      "t": 83776.27610416664,
      "d": 353.7725000000064,
      "v": 110
    },
    {
      "midi": 67,
      "hit": false,
      "t": 83776.27610416668,
      "d": 1798.3435416666762,
      "v": 86
    },
    {
      "midi": 60,
      "hit": false,
      "t": 83776.27610416671,
      "d": 557.1916875000024,
      "v": 94
    },
    {
      "midi": 62,
      "hit": false,
      "t": 83777.75015625004,
      "d": 168.0419375000056,
      "v": 83
    },
    {
      "midi": 67,
      "hit": false,
      "t": 83777.75015625004,
      "d": 188.67866666667396,
      "v": 95
    },
    {
      "midi": 62,
      "hit": false,
      "t": 83779.22420833324,
      "d": 265.32937500000116,
      "v": 92
    },
    {
      "midi": 64,
      "hit": false,
      "t": 83779.22420833338,
      "d": 557.1916875000024,
      "v": 96
    },
    {
      "midi": 67,
      "hit": false,
      "t": 83782.17231250006,
      "d": 554.2435833333293,
      "v": 104
    },
    {
      "midi": 55,
      "hit": false,
      "t": 83782.17231250006,
      "d": 557.1916875000024,
      "v": 86
    },
    {
      "midi": 55,
      "hit": false,
      "t": 83791.01662500002,
      "d": 1901.527187500018,
      "v": 95
    },
    {
      "midi": 48,
      "hit": false,
      "t": 83799.86093750002,
      "d": 1886.7866666666814,
      "v": 95
    },
    {
      "midi": 52,
      "hit": false,
      "t": 84056.34600000003,
      "d": 103.18364583332732,
      "v": 80
    },
    {
      "midi": 62,
      "hit": false,
      "t": 84060.76815625005,
      "d": 250.58885416666453,
      "v": 85
    },
    {
      "midi": 67,
      "hit": false,
      "t": 84060.76815625005,
      "d": 256.4850624999963,
      "v": 93
    },
    {
      "midi": 60,
      "hit": false,
      "t": 84062.24220833323,
      "d": 238.79643750000105,
      "v": 95
    },
    {
      "midi": 55,
      "hit": false,
      "t": 84327.57158333335,
      "d": 1273.5810000000056,
      "v": 98
    },
    {
      "midi": 24,
      "hit": false,
      "t": 84333.46779166664,
      "d": 356.720604166665,
      "v": 110
    },
    {
      "midi": 60,
      "hit": false,
      "t": 84333.46779166671,
      "d": 448.11183333335794,
      "v": 97
    },
    {
      "midi": 64,
      "hit": false,
      "t": 84336.41589583339,
      "d": 442.21562500001164,
      "v": 93
    },
    {
      "midi": 67,
      "hit": false,
      "t": 84336.41589583339,
      "d": 442.21562500001164,
      "v": 101
    },
    {
      "midi": 55,
      "hit": false,
      "t": 84339.36400000006,
      "d": 451.05993750001653,
      "v": 90
    },
    {
      "midi": 62,
      "hit": false,
      "t": 84360.00072916668,
      "d": 1241.1518541666737,
      "v": 60
    },
    {
      "midi": 62,
      "hit": false,
      "t": 84626.80415625004,
      "d": 265.32937500000116,
      "v": 89
    },
    {
      "midi": 67,
      "hit": false,
      "t": 84626.80415625004,
      "d": 268.2774791666743,
      "v": 97
    },
    {
      "midi": 62,
      "hit": false,
      "t": 84628.27820833324,
      "d": 268.27747916665976,
      "v": 99
    },
    {
      "midi": 24,
      "hit": false,
      "t": 84778.63152083331,
      "d": 38.3253541666636,
      "v": 110
    },
    {
      "midi": 67,
      "hit": false,
      "t": 84778.6315208334,
      "d": 330.18766666667943,
      "v": 104
    },
    {
      "midi": 64,
      "hit": false,
      "t": 84778.6315208334,
      "d": 350.8243958333478,
      "v": 94
    },
    {
      "midi": 60,
      "hit": false,
      "t": 84781.57962500007,
      "d": 347.87629166667466,
      "v": 94
    },
    {
      "midi": 55,
      "hit": false,
      "t": 84890.65947916674,
      "d": 760.610875000013,
      "v": 89
    },
    {
      "midi": 24,
      "hit": false,
      "t": 84905.39999999998,
      "d": 64.85829166666372,
      "v": 110
    },
    {
      "midi": 24,
      "hit": false,
      "t": 85191.36610416665,
      "d": 380.3054375000065,
      "v": 110
    },
    {
      "midi": 64,
      "hit": false,
      "t": 85191.36610416675,
      "d": 551.2954791666707,
      "v": 100
    },
    {
      "midi": 67,
      "hit": false,
      "t": 85191.36610416675,
      "d": 554.2435833333438,
      "v": 102
    },
    {
      "midi": 67,
      "hit": false,
      "t": 85192.84015625005,
      "d": 277.12179166666465,
      "v": 96
    },
    {
      "midi": 62,
      "hit": false,
      "t": 85192.84015625005,
      "d": 280.0698958333378,
      "v": 85
    },
    {
      "midi": 60,
      "hit": false,
      "t": 85194.31420833324,
      "d": 291.8623125000013,
      "v": 95
    },
    {
      "midi": 60,
      "hit": false,
      "t": 85194.31420833342,
      "d": 551.2954791666707,
      "v": 96
    },
    {
      "midi": 62,
      "hit": false,
      "t": 85739.71347916669,
      "d": 1022.992145833341,
      "v": 60
    },
    {
      "midi": 64,
      "hit": false,
      "t": 85742.66158333342,
      "d": 250.58885416667908,
      "v": 90
    },
    {
      "midi": 55,
      "hit": false,
      "t": 85742.66158333342,
      "d": 253.53695833335223,
      "v": 94
    },
    {
      "midi": 60,
      "hit": false,
      "t": 85745.6096875001,
      "d": 232.9002291666693,
      "v": 94
    },
    {
      "midi": 67,
      "hit": false,
      "t": 85745.6096875001,
      "d": 244.6926458333328,
      "v": 98
    },
    {
      "midi": 24,
      "hit": false,
      "t": 85751.50589583332,
      "d": 85.49502083333209,
      "v": 110
    },
    {
      "midi": 55,
      "hit": false,
      "t": 85754.45400000003,
      "d": 492.3333958333387,
      "v": 97
    },
    {
      "midi": 67,
      "hit": false,
      "t": 85754.45400000004,
      "d": 262.3812708333571,
      "v": 86
    },
    {
      "midi": 62,
      "hit": false,
      "t": 85757.40210416671,
      "d": 265.3293750000157,
      "v": 86
    },
    {
      "midi": 66,
      "hit": false,
      "t": 85758.87615625006,
      "d": 330.1876666666649,
      "v": 97
    },
    {
      "midi": 62,
      "hit": false,
      "t": 85758.87615625006,
      "d": 339.03197916666977,
      "v": 86
    },
    {
      "midi": 57,
      "hit": false,
      "t": 85760.35020833324,
      "d": 389.14974999999686,
      "v": 92
    },
    {
      "midi": 48,
      "hit": false,
      "t": 85760.35020833339,
      "d": 253.53695833333768,
      "v": 95
    },
    {
      "midi": 55,
      "hit": false,
      "t": 85763.29831250006,
      "d": 241.74454166665964,
      "v": 95
    },
    {
      "midi": 26,
      "hit": false,
      "t": 86034.52389583332,
      "d": 362.61681249999674,
      "v": 110
    },
    {
      "midi": 79,
      "hit": false,
      "t": 86037.47200000002,
      "d": 1096.694749999995,
      "v": 50
    },
    {
      "midi": 74,
      "hit": false,
      "t": 86037.47200000002,
      "d": 4398.571416666673,
      "v": 50
    },
    {
      "midi": 81,
      "hit": false,
      "t": 86037.47200000002,
      "d": 4404.467625000005,
      "v": 50
    },
    {
      "midi": 57,
      "hit": false,
      "t": 86037.47200000011,
      "d": 577.8284166666708,
      "v": 94
    },
    {
      "midi": 67,
      "hit": false,
      "t": 86040.42010416673,
      "d": 2449.8745624999865,
      "v": 86
    },
    {
      "midi": 62,
      "hit": false,
      "t": 86040.42010416673,
      "d": 2458.7188749999914,
      "v": 86
    },
    {
      "midi": 62,
      "hit": false,
      "t": 86043.36820833344,
      "d": 571.9322083333391,
      "v": 104
    },
    {
      "midi": 67,
      "hit": false,
      "t": 86046.31631250012,
      "d": 563.0878958333342,
      "v": 98
    },
    {
      "midi": 69,
      "hit": false,
      "t": 86049.26441666679,
      "d": 560.139791666661,
      "v": 94
    },
    {
      "midi": 50,
      "hit": false,
      "t": 86058.10872916672,
      "d": 4030.058395833359,
      "v": 95
    },
    {
      "midi": 57,
      "hit": false,
      "t": 86064.00493750005,
      "d": 3988.7849375000224,
      "v": 95
    },
    {
      "midi": 57,
      "hit": false,
      "t": 86305.7494791667,
      "d": 138.56089583333232,
      "v": 95
    },
    {
      "midi": 26,
      "hit": false,
      "t": 86597.61179166666,
      "d": 359.66870833333815,
      "v": 110
    },
    {
      "midi": 57,
      "hit": false,
      "t": 86606.4561041667,
      "d": 156.24952083332755,
      "v": 95
    },
    {
      "midi": 67,
      "hit": false,
      "t": 86609.40420833345,
      "d": 445.16372916667024,
      "v": 90
    },
    {
      "midi": 69,
      "hit": false,
      "t": 86609.40420833345,
      "d": 445.16372916667024,
      "v": 100
    },
    {
      "midi": 62,
      "hit": false,
      "t": 86615.30041666678,
      "d": 439.2675208333385,
      "v": 100
    },
    {
      "midi": 57,
      "hit": false,
      "t": 86615.30041666678,
      "d": 442.21562500001164,
      "v": 87
    },
    {
      "midi": 62,
      "hit": false,
      "t": 86868.83737500003,
      "d": 200.47108333333745,
      "v": 60
    },
    {
      "midi": 55,
      "hit": false,
      "t": 86883.57789583337,
      "d": 144.45710416666407,
      "v": 99
    },
    {
      "midi": 26,
      "hit": false,
      "t": 87042.77552083333,
      "d": 38.3253541666636,
      "v": 110
    },
    {
      "midi": 67,
      "hit": false,
      "t": 87054.56793750012,
      "d": 159.1976250000007,
      "v": 94
    },
    {
      "midi": 69,
      "hit": false,
      "t": 87054.56793750012,
      "d": 347.87629166667466,
      "v": 98
    },
    {
      "midi": 62,
      "hit": false,
      "t": 87054.56793750012,
      "d": 365.5649166666699,
      "v": 102
    },
    {
      "midi": 57,
      "hit": false,
      "t": 87057.5160416668,
      "d": 341.98008333332837,
      "v": 97
    },
    {
      "midi": 62,
      "hit": false,
      "t": 87166.59589583336,
      "d": 244.6926458333328,
      "v": 60
    },
    {
      "midi": 26,
      "hit": false,
      "t": 87169.544,
      "d": 73.7026041666686,
      "v": 110
    },
    {
      "midi": 78,
      "hit": false,
      "t": 87169.54400000002,
      "d": 1105.5390625,
      "v": 45
    },
    {
      "midi": 57,
      "hit": false,
      "t": 87175.44020833337,
      "d": 247.64074999999139,
      "v": 99
    },
    {
      "midi": 66,
      "hit": false,
      "t": 87190.1807291668,
      "d": 241.74454166665964,
      "v": 98
    },
    {
      "midi": 26,
      "hit": false,
      "t": 87452.56199999999,
      "d": 377.3573333333334,
      "v": 110
    },
    {
      "midi": 62,
      "hit": false,
      "t": 87473.19872916679,
      "d": 542.4511666666658,
      "v": 106
    },
    {
      "midi": 69,
      "hit": false,
      "t": 87473.19872916679,
      "d": 542.4511666666658,
      "v": 90
    },
    {
      "midi": 66,
      "hit": false,
      "t": 87473.19872916679,
      "d": 545.399270833339,
      "v": 111
    },
    {
      "midi": 57,
      "hit": false,
      "t": 87473.19872916679,
      "d": 554.2435833333438,
      "v": 86
    },
    {
      "midi": 62,
      "hit": false,
      "t": 88003.85747916668,
      "d": 1329.594979166679,
      "v": 60
    },
    {
      "midi": 55,
      "hit": false,
      "t": 88015.64989583334,
      "d": 518.8663333333388,
      "v": 108
    },
    {
      "midi": 62,
      "hit": false,
      "t": 88015.64989583346,
      "d": 265.3293750000157,
      "v": 98
    },
    {
      "midi": 69,
      "hit": false,
      "t": 88015.64989583346,
      "d": 268.27747916668886,
      "v": 90
    },
    {
      "midi": 26,
      "hit": false,
      "t": 88018.59799999998,
      "d": 82.5469166666735,
      "v": 110
    },
    {
      "midi": 66,
      "hit": false,
      "t": 88018.59800000013,
      "d": 247.64075000000594,
      "v": 105
    },
    {
      "midi": 57,
      "hit": false,
      "t": 88027.44231250013,
      "d": 227.00402083333756,
      "v": 84
    },
    {
      "midi": 26,
      "hit": false,
      "t": 88301.616,
      "d": 356.720604166665,
      "v": 110
    },
    {
      "midi": 79,
      "hit": false,
      "t": 88301.61600000002,
      "d": 1090.7985416666634,
      "v": 50
    },
    {
      "midi": 69,
      "hit": false,
      "t": 88301.61600000014,
      "d": 563.0878958333342,
      "v": 86
    },
    {
      "midi": 67,
      "hit": false,
      "t": 88307.51220833347,
      "d": 557.1916875000024,
      "v": 100
    },
    {
      "midi": 57,
      "hit": false,
      "t": 88307.51220833347,
      "d": 566.0360000000073,
      "v": 83
    },
    {
      "midi": 62,
      "hit": false,
      "t": 88310.46031250014,
      "d": 557.1916875000024,
      "v": 102
    },
    {
      "midi": 67,
      "hit": false,
      "t": 88578.73779166672,
      "d": 566.0360000000073,
      "v": 86
    },
    {
      "midi": 57,
      "hit": false,
      "t": 88581.68589583335,
      "d": 138.56089583333232,
      "v": 101
    },
    {
      "midi": 62,
      "hit": false,
      "t": 88581.68589583339,
      "d": 486.437187500007,
      "v": 86
    },
    {
      "midi": 57,
      "hit": false,
      "t": 88864.70389583334,
      "d": 147.4052083333372,
      "v": 100
    },
    {
      "midi": 69,
      "hit": false,
      "t": 88864.70389583347,
      "d": 392.09785416667,
      "v": 94
    },
    {
      "midi": 67,
      "hit": false,
      "t": 88864.70389583347,
      "d": 395.04595833334315,
      "v": 98
    },
    {
      "midi": 26,
      "hit": false,
      "t": 88867.65199999999,
      "d": 309.5509374999965,
      "v": 110
    },
    {
      "midi": 62,
      "hit": false,
      "t": 88867.65200000015,
      "d": 377.3573333333334,
      "v": 103
    },
    {
      "midi": 57,
      "hit": false,
      "t": 88873.54820833348,
      "d": 365.5649166666699,
      "v": 85
    },
    {
      "midi": 55,
      "hit": false,
      "t": 89147.72189583335,
      "d": 147.4052083333372,
      "v": 104
    },
    {
      "midi": 69,
      "hit": false,
      "t": 89301.02331250015,
      "d": 362.61681250002584,
      "v": 96
    },
    {
      "midi": 67,
      "hit": false,
      "t": 89303.97141666683,
      "d": 135.61279166667373,
      "v": 90
    },
    {
      "midi": 62,
      "hit": false,
      "t": 89303.97141666683,
      "d": 368.5130208333576,
      "v": 102
    },
    {
      "midi": 57,
      "hit": false,
      "t": 89306.9195208335,
      "d": 324.29145833333314,
      "v": 87
    },
    {
      "midi": 26,
      "hit": false,
      "t": 89309.86762499998,
      "d": 44.22156249999534,
      "v": 110
    },
    {
      "midi": 62,
      "hit": false,
      "t": 89427.79179166669,
      "d": 173.93814583333733,
      "v": 60
    },
    {
      "midi": 26,
      "hit": false,
      "t": 89433.68799999998,
      "d": 50.117770833327086,
      "v": 110
    },
    {
      "midi": 78,
      "hit": false,
      "t": 89433.68800000002,
      "d": 1002.3554166666727,
      "v": 45
    },
    {
      "midi": 62,
      "hit": false,
      "t": 89433.68800000005,
      "d": 247.64075000000594,
      "v": 86
    },
    {
      "midi": 67,
      "hit": false,
      "t": 89433.68800000005,
      "d": 250.58885416667908,
      "v": 86
    },
    {
      "midi": 66,
      "hit": false,
      "t": 89439.5842083335,
      "d": 221.10781250000582,
      "v": 93
    },
    {
      "midi": 57,
      "hit": false,
      "t": 89445.48041666669,
      "d": 147.4052083333372,
      "v": 98
    },
    {
      "midi": 26,
      "hit": false,
      "t": 89713.7578958333,
      "d": 533.6068541666609,
      "v": 110
    },
    {
      "midi": 67,
      "hit": false,
      "t": 89713.7578958334,
      "d": 271.2255833333329,
      "v": 86
    },
    {
      "midi": 62,
      "hit": false,
      "t": 89716.70600000008,
      "d": 274.1736874999915,
      "v": 86
    },
    {
      "midi": 67,
      "hit": false,
      "t": 89722.60220833324,
      "d": 114.97606250000536,
      "v": 98
    },
    {
      "midi": 62,
      "hit": false,
      "t": 89725.55031250003,
      "d": 262.38127083334257,
      "v": 60
    },
    {
      "midi": 69,
      "hit": false,
      "t": 89731.44652083352,
      "d": 542.4511666666804,
      "v": 96
    },
    {
      "midi": 62,
      "hit": false,
      "t": 89734.39462500019,
      "d": 545.399270833339,
      "v": 104
    },
    {
      "midi": 55,
      "hit": false,
      "t": 89737.34272916669,
      "d": 141.50900000000547,
      "v": 104
    },
    {
      "midi": 66,
      "hit": false,
      "t": 89737.34272916686,
      "d": 542.4511666666658,
      "v": 105
    },
    {
      "midi": 57,
      "hit": false,
      "t": 89740.29083333354,
      "d": 551.2954791666562,
      "v": 94
    },
    {
      "midi": 50,
      "hit": false,
      "t": 89996.77589583337,
      "d": 82.5469166666735,
      "v": 73
    },
    {
      "midi": 66,
      "hit": false,
      "t": 90005.62020833325,
      "d": 253.53695833333768,
      "v": 90
    },
    {
      "midi": 52,
      "hit": false,
      "t": 90049.84177083337,
      "d": 135.61279166667373,
      "v": 78
    },
    {
      "midi": 43,
      "hit": false,
      "t": 90259.15716666674,
      "d": 218.15970833333267,
      "v": 95
    },
    {
      "midi": 50,
      "hit": false,
      "t": 90265.05337500008,
      "d": 215.21160416667408,
      "v": 95
    },
    {
      "midi": 69,
      "hit": false,
      "t": 90273.8976875002,
      "d": 274.1736874999915,
      "v": 98
    },
    {
      "midi": 62,
      "hit": false,
      "t": 90276.84579166671,
      "d": 2446.9264583333425,
      "v": 60
    },
    {
      "midi": 62,
      "hit": false,
      "t": 90279.79389583353,
      "d": 271.2255833333329,
      "v": 98
    },
    {
      "midi": 66,
      "hit": false,
      "t": 90279.79389583353,
      "d": 271.2255833333329,
      "v": 103
    },
    {
      "midi": 67,
      "hit": false,
      "t": 90282.74200000007,
      "d": 262.38127083334257,
      "v": 86
    },
    {
      "midi": 62,
      "hit": false,
      "t": 90285.69010416674,
      "d": 259.4331666666694,
      "v": 86
    },
    {
      "midi": 67,
      "hit": false,
      "t": 90288.63820833326,
      "d": 129.71658333332743,
      "v": 95
    },
    {
      "midi": 57,
      "hit": false,
      "t": 90291.58631250019,
      "d": 256.4850624999963,
      "v": 89
    },
    {
      "midi": 55,
      "hit": false,
      "t": 90306.32683333338,
      "d": 757.6627708333399,
      "v": 98
    },
    {
      "midi": 48,
      "hit": false,
      "t": 90559.86379166672,
      "d": 94.33933333333698,
      "v": 80
    },
    {
      "midi": 67,
      "hit": false,
      "t": 90562.81189583341,
      "d": 1889.73477083334,
      "v": 86
    },
    {
      "midi": 31,
      "hit": false,
      "t": 90565.75999999997,
      "d": 403.8902708333335,
      "v": 110
    },
    {
      "midi": 79,
      "hit": false,
      "t": 90565.76000000002,
      "d": 2181.5970833333267,
      "v": 50
    },
    {
      "midi": 71,
      "hit": false,
      "t": 90565.76000000002,
      "d": 2187.4932916666585,
      "v": 50
    },
    {
      "midi": 74,
      "hit": false,
      "t": 90565.76000000002,
      "d": 2211.0781249999854,
      "v": 50
    },
    {
      "midi": 43,
      "hit": false,
      "t": 90565.76000000008,
      "d": 1780.6549166666664,
      "v": 95
    },
    {
      "midi": 55,
      "hit": false,
      "t": 90565.7600000002,
      "d": 548.3473750000121,
      "v": 89
    },
    {
      "midi": 62,
      "hit": false,
      "t": 90568.70810416676,
      "d": 1877.942354166662,
      "v": 86
    },
    {
      "midi": 62,
      "hit": false,
      "t": 90568.70810416687,
      "d": 548.3473750000121,
      "v": 96
    },
    {
      "midi": 59,
      "hit": false,
      "t": 90568.70810416687,
      "d": 554.2435833333438,
      "v": 94
    },
    {
      "midi": 71,
      "hit": false,
      "t": 90571.65620833325,
      "d": 256.4850624999963,
      "v": 96
    },
    {
      "midi": 50,
      "hit": false,
      "t": 90574.60431250009,
      "d": 1810.135958333325,
      "v": 95
    },
    {
      "midi": 67,
      "hit": false,
      "t": 90574.6043125002,
      "d": 542.4511666666804,
      "v": 102
    },
    {
      "midi": 50,
      "hit": false,
      "t": 90627.67018750006,
      "d": 241.74454166665964,
      "v": 75
    },
    {
      "midi": 67,
      "hit": false,
      "t": 90854.67420833325,
      "d": 170.99004166666418,
      "v": 94
    },
    {
      "midi": 52,
      "hit": false,
      "t": 90884.15525000005,
      "d": 100.23554166666872,
      "v": 84
    },
    {
      "midi": 31,
      "hit": false,
      "t": 91131.79599999997,
      "d": 362.61681249999674,
      "v": 110
    },
    {
      "midi": 55,
      "hit": false,
      "t": 91143.58841666672,
      "d": 1527.1179583333287,
      "v": 104
    },
    {
      "midi": 55,
      "hit": false,
      "t": 91149.48462500022,
      "d": 483.4890833333484,
      "v": 89
    },
    {
      "midi": 62,
      "hit": false,
      "t": 91152.43272916689,
      "d": 418.6307916666701,
      "v": 97
    },
    {
      "midi": 59,
      "hit": false,
      "t": 91155.38083333356,
      "d": 400.94216666666034,
      "v": 95
    },
    {
      "midi": 67,
      "hit": false,
      "t": 91155.38083333356,
      "d": 415.682687499997,
      "v": 102
    },
    {
      "midi": 67,
      "hit": false,
      "t": 91420.71020833324,
      "d": 604.3613541666564,
      "v": 92
    },
    {
      "midi": 67,
      "hit": false,
      "t": 91571.06352083356,
      "d": 395.04595833334315,
      "v": 94
    },
    {
      "midi": 62,
      "hit": false,
      "t": 91571.06352083356,
      "d": 403.89027083334804,
      "v": 102
    },
    {
      "midi": 59,
      "hit": false,
      "t": 91574.01162500023,
      "d": 389.14974999999686,
      "v": 94
    },
    {
      "midi": 31,
      "hit": false,
      "t": 91576.95972916664,
      "d": 38.3253541666636,
      "v": 110
    },
    {
      "midi": 55,
      "hit": false,
      "t": 91691.9357916669,
      "d": 778.2995000000083,
      "v": 95
    },
    {
      "midi": 31,
      "hit": false,
      "t": 91697.83199999998,
      "d": 82.5469166666735,
      "v": 110
    },
    {
      "midi": 67,
      "hit": false,
      "t": 91980.85000000024,
      "d": 510.02202083333395,
      "v": 102
    },
    {
      "midi": 62,
      "hit": false,
      "t": 91980.85000000024,
      "d": 515.9182291666802,
      "v": 96
    },
    {
      "midi": 31,
      "hit": false,
      "t": 91983.79810416665,
      "d": 418.6307916666701,
      "v": 110
    },
    {
      "midi": 59,
      "hit": false,
      "t": 91986.74620833357,
      "d": 507.07391666667536,
      "v": 88
    },
    {
      "midi": 59,
      "hit": false,
      "t": 92269.76420833323,
      "d": 179.83435416666907,
      "v": 96
    },
    {
      "midi": 55,
      "hit": false,
      "t": 92535.09358333358,
      "d": 250.58885416667908,
      "v": 95
    },
    {
      "midi": 67,
      "hit": false,
      "t": 92540.98979166675,
      "d": 250.58885416666453,
      "v": 86
    },
    {
      "midi": 62,
      "hit": false,
      "t": 92540.98979166675,
      "d": 259.4331666666694,
      "v": 86
    },
    {
      "midi": 43,
      "hit": false,
      "t": 92543.93789583343,
      "d": 271.2255833333329,
      "v": 95
    },
    {
      "midi": 60,
      "hit": false,
      "t": 92549.83410416657,
      "d": 397.99406250000175,
      "v": 101
    },
    {
      "midi": 31,
      "hit": false,
      "t": 92549.83410416666,
      "d": 106.13175000000047,
      "v": 110
    },
    {
      "midi": 62,
      "hit": false,
      "t": 92549.83410416692,
      "d": 238.7964375000156,
      "v": 93
    },
    {
      "midi": 50,
      "hit": false,
      "t": 92555.73031250009,
      "d": 250.58885416666453,
      "v": 95
    },
    {
      "midi": 59,
      "hit": false,
      "t": 92555.73031250025,
      "d": 235.848333333357,
      "v": 101
    },
    {
      "midi": 67,
      "hit": false,
      "t": 92558.67841666692,
      "d": 244.69264583334734,
      "v": 104
    },
    {
      "midi": 48,
      "hit": false,
      "t": 92711.97983333339,
      "d": 123.82037499999569,
      "v": 85
    },
    {
      "midi": 50,
      "hit": false,
      "t": 92809.26727083338,
      "d": 247.64075000000594,
      "v": 85
    },
    {
      "midi": 62,
      "hit": false,
      "t": 92815.16347916672,
      "d": 436.31941666666535,
      "v": 60
    },
    {
      "midi": 79,
      "hit": false,
      "t": 92829.90400000001,
      "d": 2166.85656249999,
      "v": 50
    },
    {
      "midi": 72,
      "hit": false,
      "t": 92829.90400000001,
      "d": 2169.8046666666633,
      "v": 50
    },
    {
      "midi": 76,
      "hit": false,
      "t": 92829.90400000001,
      "d": 2208.130020833327,
      "v": 50
    },
    {
      "midi": 67,
      "hit": false,
      "t": 92829.9040000001,
      "d": 1798.3435416666762,
      "v": 86
    },
    {
      "midi": 24,
      "hit": false,
      "t": 92832.85210416665,
      "d": 353.7725000000064,
      "v": 110
    },
    {
      "midi": 62,
      "hit": false,
      "t": 92832.85210416677,
      "d": 1833.7207916666666,
      "v": 86
    },
    {
      "midi": 60,
      "hit": false,
      "t": 92832.85210416694,
      "d": 504.12581250001676,
      "v": 94
    },
    {
      "midi": 64,
      "hit": false,
      "t": 92835.80020833362,
      "d": 504.12581250001676,
      "v": 96
    },
    {
      "midi": 55,
      "hit": false,
      "t": 92838.74831250029,
      "d": 492.3333958333387,
      "v": 86
    },
    {
      "midi": 67,
      "hit": false,
      "t": 92838.74831250029,
      "d": 498.22960416667047,
      "v": 104
    },
    {
      "midi": 55,
      "hit": false,
      "t": 92844.64452083343,
      "d": 1836.6688958333398,
      "v": 95
    },
    {
      "midi": 48,
      "hit": false,
      "t": 92853.48883333344,
      "d": 1816.0321666666714,
      "v": 95
    },
    {
      "midi": 52,
      "hit": false,
      "t": 93101.12958333339,
      "d": 126.76847916666884,
      "v": 86
    },
    {
      "midi": 62,
      "hit": false,
      "t": 93117.34415625007,
      "d": 221.10781249999127,
      "v": 85
    },
    {
      "midi": 67,
      "hit": false,
      "t": 93117.34415625007,
      "d": 224.05591666666442,
      "v": 96
    },
    {
      "midi": 62,
      "hit": false,
      "t": 93118.81820833324,
      "d": 271.2255833333329,
      "v": 95
    },
    {
      "midi": 60,
      "hit": false,
      "t": 93390.04379166696,
      "d": 386.2016458333528,
      "v": 97
    },
    {
      "midi": 67,
      "hit": false,
      "t": 93392.99189583363,
      "d": 386.2016458333528,
      "v": 101
    },
    {
      "midi": 64,
      "hit": false,
      "t": 93392.99189583363,
      "d": 389.14975000002596,
      "v": 93
    },
    {
      "midi": 55,
      "hit": false,
      "t": 93395.94000000031,
      "d": 451.0599375000311,
      "v": 90
    },
    {
      "midi": 24,
      "hit": false,
      "t": 93398.88810416666,
      "d": 356.720604166665,
      "v": 110
    },
    {
      "midi": 62,
      "hit": false,
      "t": 93400.36215625006,
      "d": 162.14572916667385,
      "v": 90
    },
    {
      "midi": 67,
      "hit": false,
      "t": 93400.36215625006,
      "d": 170.99004166667874,
      "v": 96
    },
    {
      "midi": 60,
      "hit": false,
      "t": 93401.83620833323,
      "d": 153.30141666666896,
      "v": 98
    },
    {
      "midi": 55,
      "hit": false,
      "t": 93401.83620833338,
      "d": 1229.3594374999957,
      "v": 107
    },
    {
      "midi": 62,
      "hit": false,
      "t": 93401.83620833338,
      "d": 1258.840479166669,
      "v": 60
    },
    {
      "midi": 67,
      "hit": false,
      "t": 93683.38015625007,
      "d": 710.4931041666714,
      "v": 95
    },
    {
      "midi": 62,
      "hit": false,
      "t": 93683.38015625007,
      "d": 713.4412083333445,
      "v": 93
    },
    {
      "midi": 62,
      "hit": false,
      "t": 93684.85420833323,
      "d": 790.0919166666718,
      "v": 95
    },
    {
      "midi": 67,
      "hit": false,
      "t": 93835.20752083366,
      "d": 330.18766666667943,
      "v": 104
    },
    {
      "midi": 64,
      "hit": false,
      "t": 93835.20752083366,
      "d": 350.8243958333478,
      "v": 94
    },
    {
      "midi": 24,
      "hit": false,
      "t": 93838.155625,
      "d": 38.3253541666636,
      "v": 110
    },
    {
      "midi": 60,
      "hit": false,
      "t": 93838.15562500033,
      "d": 347.87629166667466,
      "v": 94
    },
    {
      "midi": 55,
      "hit": false,
      "t": 93947.23547916701,
      "d": 760.610875000013,
      "v": 89
    },
    {
      "midi": 24,
      "hit": false,
      "t": 93964.92410416667,
      "d": 64.85829166666372,
      "v": 110
    },
    {
      "midi": 24,
      "hit": false,
      "t": 94239.09779166666,
      "d": 380.3054375000065,
      "v": 110
    },
    {
      "midi": 64,
      "hit": false,
      "t": 94247.94210416701,
      "d": 551.2954791666707,
      "v": 100
    },
    {
      "midi": 67,
      "hit": false,
      "t": 94247.94210416701,
      "d": 554.2435833333438,
      "v": 102
    },
    {
      "midi": 60,
      "hit": false,
      "t": 94250.89020833369,
      "d": 551.2954791666707,
      "v": 96
    },
    {
      "midi": 67,
      "hit": false,
      "t": 94532.43415625009,
      "d": 265.32937500000116,
      "v": 93
    },
    {
      "midi": 62,
      "hit": false,
      "t": 94532.43415625009,
      "d": 624.9980833333248,
      "v": 88
    },
    {
      "midi": 60,
      "hit": false,
      "t": 94533.90820833323,
      "d": 150.3533124999958,
      "v": 98
    },
    {
      "midi": 48,
      "hit": false,
      "t": 94778.60085416677,
      "d": 294.8104166666744,
      "v": 95
    },
    {
      "midi": 55,
      "hit": false,
      "t": 94793.3413750001,
      "d": 274.17368750000605,
      "v": 95
    },
    {
      "midi": 55,
      "hit": false,
      "t": 94796.28947916672,
      "d": 515.9182291666657,
      "v": 104
    },
    {
      "midi": 64,
      "hit": false,
      "t": 94799.23758333368,
      "d": 250.58885416667908,
      "v": 90
    },
    {
      "midi": 55,
      "hit": false,
      "t": 94799.23758333368,
      "d": 253.53695833335223,
      "v": 94
    },
    {
      "midi": 60,
      "hit": false,
      "t": 94802.18568750036,
      "d": 232.9002291666693,
      "v": 94
    },
    {
      "midi": 67,
      "hit": false,
      "t": 94802.18568750036,
      "d": 244.6926458333328,
      "v": 98
    },
    {
      "midi": 24,
      "hit": false,
      "t": 94808.08189583333,
      "d": 85.49502083333209,
      "v": 110
    },
    {
      "midi": 62,
      "hit": false,
      "t": 94808.08189583338,
      "d": 993.5111041666678,
      "v": 60
    },
    {
      "midi": 62,
      "hit": false,
      "t": 94811.0300000001,
      "d": 265.3293750000157,
      "v": 86
    },
    {
      "midi": 67,
      "hit": false,
      "t": 94813.97810416677,
      "d": 262.38127083334257,
      "v": 86
    },
    {
      "midi": 66,
      "hit": false,
      "t": 94815.45215625009,
      "d": 336.0838749999966,
      "v": 97
    },
    {
      "midi": 57,
      "hit": false,
      "t": 94816.92620833323,
      "d": 318.3952500000014,
      "v": 91
    },
    {
      "midi": 62,
      "hit": false,
      "t": 95088.15179166678,
      "d": 2458.718875000006,
      "v": 86
    },
    {
      "midi": 26,
      "hit": false,
      "t": 95091.09989583332,
      "d": 362.61681249999674,
      "v": 110
    },
    {
      "midi": 79,
      "hit": false,
      "t": 95094.04800000001,
      "d": 1099.6428541666683,
      "v": 50
    },
    {
      "midi": 81,
      "hit": false,
      "t": 95094.04800000001,
      "d": 3325.461500000005,
      "v": 50
    },
    {
      "midi": 74,
      "hit": false,
      "t": 95094.04800000001,
      "d": 3328.409604166678,
      "v": 50
    },
    {
      "midi": 57,
      "hit": false,
      "t": 95094.04800000037,
      "d": 577.8284166666708,
      "v": 94
    },
    {
      "midi": 50,
      "hit": false,
      "t": 95096.99610416678,
      "d": 1824.8764791666763,
      "v": 95
    },
    {
      "midi": 67,
      "hit": false,
      "t": 95096.99610416678,
      "d": 2449.874562500001,
      "v": 86
    },
    {
      "midi": 57,
      "hit": false,
      "t": 95099.94420833346,
      "d": 1821.9283750000031,
      "v": 95
    },
    {
      "midi": 62,
      "hit": false,
      "t": 95099.9442083337,
      "d": 571.9322083333391,
      "v": 104
    },
    {
      "midi": 67,
      "hit": false,
      "t": 95102.89231250038,
      "d": 563.0878958333342,
      "v": 98
    },
    {
      "midi": 69,
      "hit": false,
      "t": 95105.84041666705,
      "d": 560.139791666661,
      "v": 94
    },
    {
      "midi": 57,
      "hit": false,
      "t": 95365.27358333339,
      "d": 141.50900000000547,
      "v": 99
    },
    {
      "midi": 26,
      "hit": false,
      "t": 95657.13589583331,
      "d": 359.66870833333815,
      "v": 110
    },
    {
      "midi": 57,
      "hit": false,
      "t": 95657.13589583339,
      "d": 156.24952083332755,
      "v": 101
    },
    {
      "midi": 67,
      "hit": false,
      "t": 95665.98020833371,
      "d": 445.16372916667024,
      "v": 90
    },
    {
      "midi": 69,
      "hit": false,
      "t": 95665.98020833371,
      "d": 445.16372916667024,
      "v": 100
    },
    {
      "midi": 62,
      "hit": false,
      "t": 95671.87641666704,
      "d": 439.2675208333385,
      "v": 100
    },
    {
      "midi": 57,
      "hit": false,
      "t": 95671.87641666704,
      "d": 442.21562500001164,
      "v": 87
    },
    {
      "midi": 62,
      "hit": false,
      "t": 95928.36147916672,
      "d": 194.5748750000057,
      "v": 60
    },
    {
      "midi": 55,
      "hit": false,
      "t": 95946.05010416672,
      "d": 135.61279166667373,
      "v": 106
    },
    {
      "midi": 26,
      "hit": false,
      "t": 96108.19583333332,
      "d": 38.3253541666636,
      "v": 110
    },
    {
      "midi": 67,
      "hit": false,
      "t": 96111.14393750038,
      "d": 159.1976250000007,
      "v": 94
    },
    {
      "midi": 69,
      "hit": false,
      "t": 96111.14393750038,
      "d": 347.87629166667466,
      "v": 98
    },
    {
      "midi": 62,
      "hit": false,
      "t": 96111.14393750038,
      "d": 365.5649166666699,
      "v": 102
    },
    {
      "midi": 57,
      "hit": false,
      "t": 96114.09204166706,
      "d": 341.98008333332837,
      "v": 97
    },
    {
      "midi": 78,
      "hit": false,
      "t": 96226.12000000001,
      "d": 1070.161812499995,
      "v": 50
    },
    {
      "midi": 26,
      "hit": false,
      "t": 96229.06810416665,
      "d": 73.7026041666686,
      "v": 110
    },
    {
      "midi": 62,
      "hit": false,
      "t": 96234.96431250006,
      "d": 238.7964375000156,
      "v": 60
    },
    {
      "midi": 57,
      "hit": false,
      "t": 96237.91241666673,
      "d": 173.93814583333733,
      "v": 95
    },
    {
      "midi": 66,
      "hit": false,
      "t": 96246.75672916706,
      "d": 241.74454166665964,
      "v": 98
    },
    {
      "midi": 26,
      "hit": false,
      "t": 96503.24179166666,
      "d": 377.3573333333334,
      "v": 110
    },
    {
      "midi": 62,
      "hit": false,
      "t": 96529.77472916705,
      "d": 542.4511666666658,
      "v": 106
    },
    {
      "midi": 69,
      "hit": false,
      "t": 96529.77472916705,
      "d": 542.4511666666658,
      "v": 90
    },
    {
      "midi": 66,
      "hit": false,
      "t": 96529.77472916705,
      "d": 545.399270833339,
      "v": 111
    },
    {
      "midi": 57,
      "hit": false,
      "t": 96529.77472916705,
      "d": 554.2435833333438,
      "v": 86
    },
    {
      "midi": 55,
      "hit": false,
      "t": 97048.64106250007,
      "d": 551.2954791666562,
      "v": 104
    },
    {
      "midi": 50,
      "hit": false,
      "t": 97063.38158333345,
      "d": 277.12179166666465,
      "v": 95
    },
    {
      "midi": 26,
      "hit": false,
      "t": 97069.27779166665,
      "d": 82.5469166666735,
      "v": 110
    },
    {
      "midi": 57,
      "hit": false,
      "t": 97072.22589583346,
      "d": 280.06989583332324,
      "v": 95
    },
    {
      "midi": 62,
      "hit": false,
      "t": 97072.22589583372,
      "d": 238.7964375000156,
      "v": 98
    },
    {
      "midi": 69,
      "hit": false,
      "t": 97072.22589583372,
      "d": 238.7964375000156,
      "v": 90
    },
    {
      "midi": 66,
      "hit": false,
      "t": 97075.17400000039,
      "d": 221.10781250000582,
      "v": 105
    },
    {
      "midi": 62,
      "hit": false,
      "t": 97078.12210416674,
      "d": 1276.5291041666642,
      "v": 60
    },
    {
      "midi": 57,
      "hit": false,
      "t": 97084.0183125004,
      "d": 212.26350000000093,
      "v": 84
    },
    {
      "midi": 79,
      "hit": false,
      "t": 97358.19200000001,
      "d": 1070.1618125000095,
      "v": 50
    },
    {
      "midi": 26,
      "hit": false,
      "t": 97361.14010416665,
      "d": 356.720604166665,
      "v": 110
    },
    {
      "midi": 62,
      "hit": false,
      "t": 97361.14010416706,
      "d": 563.0878958333487,
      "v": 94
    },
    {
      "midi": 67,
      "hit": false,
      "t": 97364.08820833373,
      "d": 563.0878958333487,
      "v": 96
    },
    {
      "midi": 69,
      "hit": false,
      "t": 97364.08820833373,
      "d": 563.0878958333487,
      "v": 96
    },
    {
      "midi": 57,
      "hit": false,
      "t": 97367.03631250041,
      "d": 554.2435833333293,
      "v": 94
    },
    {
      "midi": 50,
      "hit": false,
      "t": 97369.98441666678,
      "d": 1099.6428541666828,
      "v": 95
    },
    {
      "midi": 57,
      "hit": false,
      "t": 97378.82872916678,
      "d": 1087.8504375000048,
      "v": 95
    },
    {
      "midi": 62,
      "hit": false,
      "t": 97635.31379166679,
      "d": 486.43718749999243,
      "v": 86
    },
    {
      "midi": 57,
      "hit": false,
      "t": 97638.26189583339,
      "d": 138.56089583333232,
      "v": 99
    },
    {
      "midi": 67,
      "hit": false,
      "t": 97641.21000000012,
      "d": 566.0359999999928,
      "v": 86
    },
    {
      "midi": 57,
      "hit": false,
      "t": 97921.27989583374,
      "d": 451.05993750001653,
      "v": 96
    },
    {
      "midi": 26,
      "hit": false,
      "t": 97924.22799999999,
      "d": 309.5509374999965,
      "v": 110
    },
    {
      "midi": 62,
      "hit": false,
      "t": 97924.22800000041,
      "d": 433.37131250000675,
      "v": 94
    },
    {
      "midi": 67,
      "hit": false,
      "t": 97927.17610416708,
      "d": 421.5788958333287,
      "v": 92
    },
    {
      "midi": 69,
      "hit": false,
      "t": 97927.17610416708,
      "d": 430.4232083333336,
      "v": 98
    },
    {
      "midi": 57,
      "hit": false,
      "t": 97930.1242083334,
      "d": 135.61279166667373,
      "v": 90
    },
    {
      "midi": 55,
      "hit": false,
      "t": 98210.19410416673,
      "d": 135.61279166667373,
      "v": 102
    },
    {
      "midi": 62,
      "hit": false,
      "t": 98357.59931250042,
      "d": 138.56089583333232,
      "v": 94
    },
    {
      "midi": 69,
      "hit": false,
      "t": 98357.59931250042,
      "d": 141.50900000000547,
      "v": 102
    },
    {
      "midi": 66,
      "hit": false,
      "t": 98360.54741666709,
      "d": 141.50900000000547,
      "v": 100
    },
    {
      "midi": 26,
      "hit": false,
      "t": 98363.49552083331,
      "d": 61.91018750000512,
      "v": 110
    },
    {
      "midi": 57,
      "hit": false,
      "t": 98372.33983333375,
      "d": 129.716583333342,
      "v": 96
    },
    {
      "midi": 67,
      "hit": false,
      "t": 98472.57537500013,
      "d": 212.26350000000093,
      "v": 86
    },
    {
      "midi": 62,
      "hit": false,
      "t": 98475.5234791668,
      "d": 212.26350000000093,
      "v": 86
    },
    {
      "midi": 26,
      "hit": false,
      "t": 98493.21210416665,
      "d": 112.02795833331766,
      "v": 110
    },
    {
      "midi": 50,
      "hit": false,
      "t": 98493.2121041668,
      "d": 229.9521250000107,
      "v": 95
    },
    {
      "midi": 62,
      "hit": false,
      "t": 98496.16020833375,
      "d": 247.6407500000205,
      "v": 94
    },
    {
      "midi": 57,
      "hit": false,
      "t": 98499.10831250007,
      "d": 203.4191875000106,
      "v": 104
    },
    {
      "midi": 57,
      "hit": false,
      "t": 98499.10831250013,
      "d": 238.7964375000156,
      "v": 95
    },
    {
      "midi": 69,
      "hit": false,
      "t": 98499.10831250042,
      "d": 229.9521250000107,
      "v": 94
    },
    {
      "midi": 62,
      "hit": false,
      "t": 98502.05641666675,
      "d": 144.45710416666407,
      "v": 60
    },
    {
      "midi": 66,
      "hit": false,
      "t": 98502.0564166671,
      "d": 224.05591666666442,
      "v": 100
    },
    {
      "midi": 57,
      "hit": false,
      "t": 98502.0564166671,
      "d": 232.9002291666693,
      "v": 89
    },
    {
      "midi": 55,
      "hit": false,
      "t": 98770.33389583323,
      "d": 82.5469166666735,
      "v": 84
    },
    {
      "midi": 55,
      "hit": false,
      "t": 99053.35189583324,
      "d": 235.8483333333279,
      "v": 80
    },
    {
      "midi": 57,
      "hit": false,
      "t": 99336.36989583324,
      "d": 82.5469166666735,
      "v": 80
    },
    {
      "midi": 67,
      "hit": false,
      "t": 99339.31800000013,
      "d": 262.38127083334257,
      "v": 86
    },
    {
      "midi": 62,
      "hit": false,
      "t": 99342.2661041668,
      "d": 259.4331666666694,
      "v": 86
    },
    {
      "midi": 59,
      "hit": false,
      "t": 99592.85495833376,
      "d": 2096.102062500009,
      "v": 86
    },
    {
      "midi": 31,
      "hit": false,
      "t": 99619.3878958333,
      "d": 383.2535416666651,
      "v": 110
    },
    {
      "midi": 67,
      "hit": false,
      "t": 99619.38789583347,
      "d": 1863.20183333334,
      "v": 86
    },
    {
      "midi": 50,
      "hit": false,
      "t": 99622.33600000014,
      "d": 2255.2996875000244,
      "v": 90
    },
    {
      "midi": 62,
      "hit": false,
      "t": 99625.28410416681,
      "d": 1839.6169999999984,
      "v": 86
    },
    {
      "midi": 43,
      "hit": false,
      "t": 99625.28410416681,
      "d": 2240.5591666666733,
      "v": 90
    },
    {
      "midi": 59,
      "hit": false,
      "t": 99628.23220833324,
      "d": 262.381270833328,
      "v": 90
    },
    {
      "midi": 55,
      "hit": false,
      "t": 99640.02462500043,
      "d": 2037.1399791666772,
      "v": 98
    },
    {
      "midi": 62,
      "hit": false,
      "t": 99651.81704166709,
      "d": 2040.0880833333504,
      "v": 92
    },
    {
      "midi": 67,
      "hit": false,
      "t": 99678.34997916709,
      "d": 2016.5032500000234,
      "v": 90
    },
    {
      "midi": 67,
      "hit": false,
      "t": 99905.35399999988,
      "d": 132.66468750000058,
      "v": 55
    },
    {
      "midi": 60,
      "hit": false,
      "t": 99911.25020833324,
      "d": 94.33933333333698,
      "v": 95
    },
    {
      "midi": 79,
      "hit": false,
      "t": 100076.34404166654,
      "d": 132.66468750000058,
      "v": 55
    },
    {
      "midi": 31,
      "hit": false,
      "t": 100191.32010416662,
      "d": 353.7725000000064,
      "v": 110
    },
    {
      "midi": 62,
      "hit": false,
      "t": 100194.26820833323,
      "d": 100.23554166666872,
      "v": 95
    },
    {
      "midi": 67,
      "hit": false,
      "t": 100329.88099999988,
      "d": 132.66468750000058,
      "v": 55
    },
    {
      "midi": 62,
      "hit": false,
      "t": 100477.28620833323,
      "d": 271.2255833333329,
      "v": 95
    },
    {
      "midi": 79,
      "hit": false,
      "t": 100500.87104166654,
      "d": 132.66468750000058,
      "v": 55
    },
    {
      "midi": 31,
      "hit": false,
      "t": 100633.53572916663,
      "d": 50.117770833327086,
      "v": 110
    },
    {
      "midi": 31,
      "hit": false,
      "t": 100748.51179166662,
      "d": 61.91018750000512,
      "v": 110
    },
    {
      "midi": 67,
      "hit": false,
      "t": 101034.47789583323,
      "d": 330.1876666666649,
      "v": 82
    },
    {
      "midi": 31,
      "hit": false,
      "t": 101034.47789583329,
      "d": 377.3573333333334,
      "v": 110
    },
    {
      "midi": 67,
      "hit": false,
      "t": 101037.42599999988,
      "d": 132.66468750000058,
      "v": 55
    },
    {
      "midi": 79,
      "hit": false,
      "t": 101208.41604166654,
      "d": 132.66468750000058,
      "v": 55
    },
    {
      "midi": 67,
      "hit": false,
      "t": 101461.95299999988,
      "d": 132.66468750000058,
      "v": 55
    },
    {
      "midi": 67,
      "hit": false,
      "t": 101597.56579166681,
      "d": 256.4850625000108,
      "v": 86
    },
    {
      "midi": 31,
      "hit": false,
      "t": 101600.51389583328,
      "d": 176.88624999999593,
      "v": 110
    },
    {
      "midi": 62,
      "hit": false,
      "t": 101606.41010416682,
      "d": 268.2774791666743,
      "v": 86
    },
    {
      "midi": 59,
      "hit": false,
      "t": 101609.35820833323,
      "d": 271.2255833333329,
      "v": 95
    },
    {
      "midi": 79,
      "hit": false,
      "t": 101632.94304166654,
      "d": 132.66468750000058,
      "v": 55
    },
    {
      "midi": 60,
      "hit": false,
      "t": 101848.15464583378,
      "d": 1987.022208333321,
      "v": 95
    },
    {
      "midi": 55,
      "hit": false,
      "t": 101871.73947916711,
      "d": 1966.3854791666672,
      "v": 93
    },
    {
      "midi": 64,
      "hit": false,
      "t": 101871.73947916711,
      "d": 1975.229791666672,
      "v": 96
    },
    {
      "midi": 55,
      "hit": false,
      "t": 101880.58379166684,
      "d": 2252.351583333366,
      "v": 90
    },
    {
      "midi": 24,
      "hit": false,
      "t": 101883.53189583328,
      "d": 374.4092291666602,
      "v": 110
    },
    {
      "midi": 67,
      "hit": false,
      "t": 101886.48000000017,
      "d": 1824.8764791666763,
      "v": 86
    },
    {
      "midi": 48,
      "hit": false,
      "t": 101886.48000000017,
      "d": 2246.455375000034,
      "v": 90
    },
    {
      "midi": 60,
      "hit": false,
      "t": 101889.42810416657,
      "d": 268.27747916665976,
      "v": 104
    },
    {
      "midi": 62,
      "hit": false,
      "t": 101889.42810416684,
      "d": 1830.772687500008,
      "v": 86
    },
    {
      "midi": 67,
      "hit": false,
      "t": 101889.4281041671,
      "d": 1951.6449583333451,
      "v": 98
    },
    {
      "midi": 67,
      "hit": false,
      "t": 102169.49799999988,
      "d": 132.66468750000058,
      "v": 55
    },
    {
      "midi": 62,
      "hit": false,
      "t": 102175.39420833322,
      "d": 132.66468750000058,
      "v": 98
    },
    {
      "midi": 79,
      "hit": false,
      "t": 102340.48804166654,
      "d": 132.66468750000058,
      "v": 55
    },
    {
      "midi": 24,
      "hit": false,
      "t": 102446.6197916666,
      "d": 365.5649166666699,
      "v": 110
    },
    {
      "midi": 67,
      "hit": false,
      "t": 102594.02499999988,
      "d": 132.66468750000058,
      "v": 55
    },
    {
      "midi": 67,
      "hit": false,
      "t": 102732.58589583322,
      "d": 542.4511666666658,
      "v": 84
    },
    {
      "midi": 71,
      "hit": false,
      "t": 102739.95615625007,
      "d": 595.5170416666806,
      "v": 95
    },
    {
      "midi": 79,
      "hit": false,
      "t": 102765.01504166654,
      "d": 132.66468750000058,
      "v": 55
    },
    {
      "midi": 24,
      "hit": false,
      "t": 102894.73162499994,
      "d": 53.06587500000023,
      "v": 110
    },
    {
      "midi": 24,
      "hit": false,
      "t": 103012.6557916666,
      "d": 61.91018750000512,
      "v": 110
    },
    {
      "midi": 67,
      "hit": false,
      "t": 103301.56999999988,
      "d": 132.66468749998603,
      "v": 55
    },
    {
      "midi": 24,
      "hit": false,
      "t": 103301.56999999995,
      "d": 344.9281875000015,
      "v": 110
    },
    {
      "midi": 69,
      "hit": false,
      "t": 103305.99215625008,
      "d": 380.3054375000065,
      "v": 95
    },
    {
      "midi": 66,
      "hit": false,
      "t": 103307.46620833322,
      "d": 291.8623125000013,
      "v": 98
    },
    {
      "midi": 79,
      "hit": false,
      "t": 103472.56004166653,
      "d": 132.66468750000058,
      "v": 55
    },
    {
      "midi": 67,
      "hit": false,
      "t": 103726.09699999986,
      "d": 132.66468750000058,
      "v": 55
    },
    {
      "midi": 24,
      "hit": false,
      "t": 103861.70979166661,
      "d": 85.49502083333209,
      "v": 110
    },
    {
      "midi": 62,
      "hit": false,
      "t": 103861.70979166686,
      "d": 259.4331666666694,
      "v": 86
    },
    {
      "midi": 67,
      "hit": false,
      "t": 103861.70979166686,
      "d": 262.38127083334257,
      "v": 86
    },
    {
      "midi": 66,
      "hit": false,
      "t": 103872.02815625009,
      "d": 347.8762916666601,
      "v": 97
    },
    {
      "midi": 62,
      "hit": false,
      "t": 103873.50220833323,
      "d": 333.13577083333803,
      "v": 97
    },
    {
      "midi": 79,
      "hit": false,
      "t": 103897.08704166653,
      "d": 132.66468750000058,
      "v": 55
    },
    {
      "midi": 62,
      "hit": false,
      "t": 104121.14295833379,
      "d": 3932.7709583333344,
      "v": 98
    },
    {
      "midi": 57,
      "hit": false,
      "t": 104135.88347916713,
      "d": 3929.822854166676,
      "v": 93
    },
    {
      "midi": 67,
      "hit": false,
      "t": 104144.72779166713,
      "d": 3918.030437499998,
      "v": 100
    },
    {
      "midi": 67,
      "hit": false,
      "t": 104147.67589583354,
      "d": 4428.052458333346,
      "v": 86
    },
    {
      "midi": 26,
      "hit": false,
      "t": 104150.62399999994,
      "d": 362.61681249999674,
      "v": 110
    },
    {
      "midi": 57,
      "hit": false,
      "t": 104150.62400000021,
      "d": 4224.633270833336,
      "v": 90
    },
    {
      "midi": 62,
      "hit": false,
      "t": 104150.62400000021,
      "d": 4451.637291666673,
      "v": 86
    },
    {
      "midi": 50,
      "hit": false,
      "t": 104153.57210416689,
      "d": 4227.581374999994,
      "v": 90
    },
    {
      "midi": 69,
      "hit": false,
      "t": 104156.5202083338,
      "d": 3906.2380208333343,
      "v": 100
    },
    {
      "midi": 67,
      "hit": false,
      "t": 104433.64199999986,
      "d": 132.66468750000058,
      "v": 65
    },
    {
      "midi": 79,
      "hit": false,
      "t": 104604.63204166653,
      "d": 132.66468750000058,
      "v": 65
    },
    {
      "midi": 26,
      "hit": false,
      "t": 104716.65999999993,
      "d": 309.5509374999965,
      "v": 110
    },
    {
      "midi": 67,
      "hit": false,
      "t": 104858.16899999986,
      "d": 132.66468750000058,
      "v": 65
    },
    {
      "midi": 79,
      "hit": false,
      "t": 105029.15904166653,
      "d": 132.66468750000058,
      "v": 65
    },
    {
      "midi": 26,
      "hit": false,
      "t": 105164.77183333326,
      "d": 44.22156249999534,
      "v": 110
    },
    {
      "midi": 26,
      "hit": false,
      "t": 105282.69599999992,
      "d": 58.962083333331975,
      "v": 110
    },
    {
      "midi": 26,
      "hit": false,
      "t": 105559.81779166659,
      "d": 256.4850624999963,
      "v": 110
    },
    {
      "midi": 67,
      "hit": false,
      "t": 105565.71399999986,
      "d": 132.66468750000058,
      "v": 65
    },
    {
      "midi": 79,
      "hit": false,
      "t": 105736.70404166653,
      "d": 132.66468750000058,
      "v": 65
    },
    {
      "midi": 26,
      "hit": false,
      "t": 105848.73199999992,
      "d": 123.82037499999569,
      "v": 110
    },
    {
      "midi": 67,
      "hit": false,
      "t": 105990.24099999986,
      "d": 132.66468750000058,
      "v": 65
    },
    {
      "midi": 26,
      "hit": false,
      "t": 106128.80189583324,
      "d": 41.27345833333675,
      "v": 110
    },
    {
      "midi": 79,
      "hit": false,
      "t": 106161.23104166653,
      "d": 132.66468750000058,
      "v": 65
    },
    {
      "midi": 26,
      "hit": false,
      "t": 106414.76799999991,
      "d": 365.5649166666699,
      "v": 110
    },
    {
      "midi": 67,
      "hit": false,
      "t": 106697.78599999986,
      "d": 132.66468750000058,
      "v": 65
    },
    {
      "midi": 79,
      "hit": false,
      "t": 106868.77604166653,
      "d": 132.66468750000058,
      "v": 65
    },
    {
      "midi": 26,
      "hit": false,
      "t": 106977.85589583324,
      "d": 321.34335416666,
      "v": 110
    },
    {
      "midi": 67,
      "hit": false,
      "t": 107122.31299999986,
      "d": 132.66468750000058,
      "v": 65
    },
    {
      "midi": 79,
      "hit": false,
      "t": 107293.30304166653,
      "d": 132.66468750000058,
      "v": 65
    },
    {
      "midi": 26,
      "hit": false,
      "t": 107423.0196249999,
      "d": 67.80639583333686,
      "v": 110
    },
    {
      "midi": 26,
      "hit": false,
      "t": 107543.89189583324,
      "d": 70.75449999999546,
      "v": 110
    },
    {
      "midi": 26,
      "hit": false,
      "t": 107823.96179166656,
      "d": 253.53695833333768,
      "v": 110
    },
    {
      "midi": 67,
      "hit": false,
      "t": 107829.85799999986,
      "d": 132.66468750000058,
      "v": 65
    },
    {
      "midi": 55,
      "hit": false,
      "t": 107835.75420833324,
      "d": 76.6507083333272,
      "v": 92
    },
    {
      "midi": 79,
      "hit": false,
      "t": 108000.84804166653,
      "d": 132.66468750000058,
      "v": 65
    },
    {
      "midi": 55,
      "hit": false,
      "t": 108109.92789583321,
      "d": 247.64075000000594,
      "v": 88
    },
    {
      "midi": 26,
      "hit": false,
      "t": 108115.82410416656,
      "d": 117.92416666666395,
      "v": 110
    },
    {
      "midi": 67,
      "hit": false,
      "t": 108254.38499999986,
      "d": 132.66468750000058,
      "v": 65
    },
    {
      "midi": 57,
      "hit": false,
      "t": 108389.99779166655,
      "d": 91.39122916666383,
      "v": 78
    },
    {
      "midi": 79,
      "hit": false,
      "t": 108425.37504166653,
      "d": 132.66468750000058,
      "v": 65
    },
    {
      "midi": 59,
      "hit": false,
      "t": 108655.32716666712,
      "d": 2096.102062500009,
      "v": 95
    },
    {
      "midi": 67,
      "hit": false,
      "t": 108673.01579166688,
      "d": 1866.1499374999985,
      "v": 86
    },
    {
      "midi": 31,
      "hit": false,
      "t": 108678.9119999999,
      "d": 383.2535416666651,
      "v": 110
    },
    {
      "midi": 43,
      "hit": false,
      "t": 108678.91200000021,
      "d": 2225.818645833322,
      "v": 90
    },
    {
      "midi": 62,
      "hit": false,
      "t": 108681.86010416689,
      "d": 1869.098041666657,
      "v": 86
    },
    {
      "midi": 50,
      "hit": false,
      "t": 108681.86010416689,
      "d": 2243.507270833332,
      "v": 90
    },
    {
      "midi": 59,
      "hit": false,
      "t": 108684.80820833321,
      "d": 262.381270833328,
      "v": 92
    },
    {
      "midi": 55,
      "hit": false,
      "t": 108696.60062500046,
      "d": 2037.1399791666627,
      "v": 100
    },
    {
      "midi": 62,
      "hit": false,
      "t": 108708.39304166712,
      "d": 2040.0880833333358,
      "v": 96
    },
    {
      "midi": 67,
      "hit": false,
      "t": 108734.92597916712,
      "d": 2016.5032500000088,
      "v": 98
    },
    {
      "midi": 67,
      "hit": false,
      "t": 108961.92999999986,
      "d": 132.66468750000058,
      "v": 55
    },
    {
      "midi": 60,
      "hit": false,
      "t": 108964.87810416654,
      "d": 85.49502083333209,
      "v": 101
    },
    {
      "midi": 79,
      "hit": false,
      "t": 109132.92004166653,
      "d": 132.66468750000058,
      "v": 55
    },
    {
      "midi": 31,
      "hit": false,
      "t": 109247.89610416656,
      "d": 353.7725000000064,
      "v": 110
    },
    {
      "midi": 62,
      "hit": false,
      "t": 109250.8442083332,
      "d": 106.13175000000047,
      "v": 92
    },
    {
      "midi": 67,
      "hit": false,
      "t": 109386.45699999986,
      "d": 132.66468750000058,
      "v": 55
    },
    {
      "midi": 62,
      "hit": false,
      "t": 109533.8622083332,
      "d": 321.34335416666,
      "v": 98
    },
    {
      "midi": 79,
      "hit": false,
      "t": 109557.44704166653,
      "d": 132.66468750000058,
      "v": 55
    },
    {
      "midi": 31,
      "hit": false,
      "t": 109687.1636249999,
      "d": 50.117770833327086,
      "v": 110
    },
    {
      "midi": 31,
      "hit": false,
      "t": 109805.08779166656,
      "d": 61.91018750000512,
      "v": 110
    },
    {
      "midi": 67,
      "hit": false,
      "t": 110091.05389583319,
      "d": 297.758520833333,
      "v": 84
    },
    {
      "midi": 67,
      "hit": false,
      "t": 110094.00199999986,
      "d": 132.66468750000058,
      "v": 55
    },
    {
      "midi": 31,
      "hit": false,
      "t": 110096.95010416656,
      "d": 377.3573333333334,
      "v": 110
    },
    {
      "midi": 79,
      "hit": false,
      "t": 110264.99204166653,
      "d": 132.66468750000058,
      "v": 55
    },
    {
      "midi": 67,
      "hit": false,
      "t": 110518.52899999986,
      "d": 132.66468750000058,
      "v": 55
    },
    {
      "midi": 62,
      "hit": false,
      "t": 110657.08989583355,
      "d": 259.4331666666694,
      "v": 86
    },
    {
      "midi": 31,
      "hit": false,
      "t": 110662.98610416656,
      "d": 176.88624999999593,
      "v": 110
    },
    {
      "midi": 67,
      "hit": false,
      "t": 110662.98610416688,
      "d": 250.58885416666453,
      "v": 86
    },
    {
      "midi": 59,
      "hit": false,
      "t": 110665.93420833319,
      "d": 247.64075000000594,
      "v": 90
    },
    {
      "midi": 79,
      "hit": false,
      "t": 110689.51904166653,
      "d": 132.66468750000058,
      "v": 55
    },
    {
      "midi": 60,
      "hit": false,
      "t": 110910.62685416713,
      "d": 1987.0222083333356,
      "v": 98
    },
    {
      "midi": 55,
      "hit": false,
      "t": 110928.31547916713,
      "d": 1966.3854791666672,
      "v": 96
    },
    {
      "midi": 64,
      "hit": false,
      "t": 110928.31547916713,
      "d": 1975.229791666672,
      "v": 97
    },
    {
      "midi": 24,
      "hit": false,
      "t": 110943.05599999988,
      "d": 374.4092291666602,
      "v": 110
    },
    {
      "midi": 62,
      "hit": false,
      "t": 110943.05600000022,
      "d": 1854.357520833335,
      "v": 86
    },
    {
      "midi": 67,
      "hit": false,
      "t": 110946.00410416689,
      "d": 1824.8764791666617,
      "v": 86
    },
    {
      "midi": 48,
      "hit": false,
      "t": 110946.00410416689,
      "d": 2240.5591666666733,
      "v": 90
    },
    {
      "midi": 55,
      "hit": false,
      "t": 110946.00410416689,
      "d": 2243.5072708333464,
      "v": 90
    },
    {
      "midi": 67,
      "hit": false,
      "t": 110946.00410416712,
      "d": 1951.6449583333451,
      "v": 100
    },
    {
      "midi": 60,
      "hit": false,
      "t": 110948.9522083332,
      "d": 324.29145833333314,
      "v": 98
    },
    {
      "midi": 67,
      "hit": false,
      "t": 111226.07399999986,
      "d": 132.66468750000058,
      "v": 55
    },
    {
      "midi": 79,
      "hit": false,
      "t": 111397.06404166653,
      "d": 132.66468750000058,
      "v": 55
    },
    {
      "midi": 24,
      "hit": false,
      "t": 111509.09199999987,
      "d": 365.5649166666699,
      "v": 110
    },
    {
      "midi": 62,
      "hit": false,
      "t": 111514.98820833319,
      "d": 156.24952083332755,
      "v": 90
    },
    {
      "midi": 67,
      "hit": false,
      "t": 111650.60099999986,
      "d": 132.66468750000058,
      "v": 55
    },
    {
      "midi": 67,
      "hit": false,
      "t": 111789.16189583318,
      "d": 536.5549583333195,
      "v": 88
    },
    {
      "midi": 79,
      "hit": false,
      "t": 111821.59104166653,
      "d": 132.66468750000058,
      "v": 55
    },
    {
      "midi": 24,
      "hit": false,
      "t": 111957.20383333322,
      "d": 53.06587500000023,
      "v": 110
    },
    {
      "midi": 24,
      "hit": false,
      "t": 112078.07610416655,
      "d": 61.91018750000512,
      "v": 110
    },
    {
      "midi": 66,
      "hit": false,
      "t": 112355.19789583317,
      "d": 265.32937500000116,
      "v": 89
    },
    {
      "midi": 67,
      "hit": false,
      "t": 112358.14599999986,
      "d": 132.66468750000058,
      "v": 55
    },
    {
      "midi": 24,
      "hit": false,
      "t": 112358.14599999989,
      "d": 344.9281875000015,
      "v": 110
    },
    {
      "midi": 79,
      "hit": false,
      "t": 112529.13604166653,
      "d": 132.66468750000058,
      "v": 55
    },
    {
      "midi": 64,
      "hit": false,
      "t": 112638.21589583317,
      "d": 103.18364583332732,
      "v": 80
    },
    {
      "midi": 67,
      "hit": false,
      "t": 112782.67299999986,
      "d": 132.66468750000058,
      "v": 55
    },
    {
      "midi": 62,
      "hit": false,
      "t": 112921.23389583355,
      "d": 250.58885416667908,
      "v": 86
    },
    {
      "midi": 24,
      "hit": false,
      "t": 112924.1819999999,
      "d": 85.49502083333209,
      "v": 110
    },
    {
      "midi": 67,
      "hit": false,
      "t": 112924.18200000022,
      "d": 256.4850625000108,
      "v": 86
    },
    {
      "midi": 64,
      "hit": false,
      "t": 112930.07820833316,
      "d": 268.27747916665976,
      "v": 95
    },
    {
      "midi": 79,
      "hit": false,
      "t": 112953.66304166653,
      "d": 132.66468750000058,
      "v": 55
    },
    {
      "midi": 62,
      "hit": false,
      "t": 113180.66706250046,
      "d": 3369.6830625000002,
      "v": 98
    },
    {
      "midi": 57,
      "hit": false,
      "t": 113192.45947916713,
      "d": 3360.83875000001,
      "v": 93
    },
    {
      "midi": 50,
      "hit": false,
      "t": 113201.3037916669,
      "d": 3944.5633750000125,
      "v": 90
    },
    {
      "midi": 67,
      "hit": false,
      "t": 113201.30379166713,
      "d": 3349.046333333332,
      "v": 100
    },
    {
      "midi": 62,
      "hit": false,
      "t": 113204.25189583315,
      "d": 336.0838749999966,
      "v": 82
    },
    {
      "midi": 26,
      "hit": false,
      "t": 113204.25189583324,
      "d": 362.61681249999674,
      "v": 110
    },
    {
      "midi": 67,
      "hit": false,
      "t": 113204.25189583357,
      "d": 4484.066437500005,
      "v": 86
    },
    {
      "midi": 57,
      "hit": false,
      "t": 113207.20000000024,
      "d": 3947.511479166671,
      "v": 90
    },
    {
      "midi": 62,
      "hit": false,
      "t": 113207.20000000024,
      "d": 4519.443687499996,
      "v": 86
    },
    {
      "midi": 69,
      "hit": false,
      "t": 113213.0962083338,
      "d": 3340.2020208333415,
      "v": 100
    },
    {
      "midi": 67,
      "hit": false,
      "t": 113490.21799999986,
      "d": 132.66468750000058,
      "v": 65
    },
    {
      "midi": 79,
      "hit": false,
      "t": 113661.20804166653,
      "d": 132.66468750000058,
      "v": 65
    },
    {
      "midi": 26,
      "hit": false,
      "t": 113770.28789583323,
      "d": 309.5509374999965,
      "v": 110
    },
    {
      "midi": 67,
      "hit": false,
      "t": 113914.74499999986,
      "d": 132.66468750000058,
      "v": 65
    },
    {
      "midi": 79,
      "hit": false,
      "t": 114085.73504166653,
      "d": 132.66468750000058,
      "v": 65
    },
    {
      "midi": 26,
      "hit": false,
      "t": 114215.4516249999,
      "d": 44.22156249999534,
      "v": 110
    },
    {
      "midi": 26,
      "hit": false,
      "t": 114339.2719999999,
      "d": 58.962083333331975,
      "v": 110
    },
    {
      "midi": 67,
      "hit": false,
      "t": 114622.28999999986,
      "d": 132.66468750000058,
      "v": 65
    },
    {
      "midi": 26,
      "hit": false,
      "t": 114622.28999999989,
      "d": 256.4850624999963,
      "v": 110
    },
    {
      "midi": 79,
      "hit": false,
      "t": 114793.28004166653,
      "d": 132.66468750000058,
      "v": 65
    },
    {
      "midi": 26,
      "hit": false,
      "t": 114905.30799999989,
      "d": 123.82037499999569,
      "v": 110
    },
    {
      "midi": 67,
      "hit": false,
      "t": 115046.81699999986,
      "d": 132.66468750000058,
      "v": 65
    },
    {
      "midi": 26,
      "hit": false,
      "t": 115191.27410416656,
      "d": 41.27345833333675,
      "v": 110
    },
    {
      "midi": 79,
      "hit": false,
      "t": 115217.80704166653,
      "d": 132.66468750000058,
      "v": 65
    },
    {
      "midi": 26,
      "hit": false,
      "t": 115468.39589583322,
      "d": 365.5649166666699,
      "v": 110
    },
    {
      "midi": 67,
      "hit": false,
      "t": 115754.36199999986,
      "d": 132.66468750000058,
      "v": 65
    },
    {
      "midi": 79,
      "hit": false,
      "t": 115925.35204166653,
      "d": 132.66468750000058,
      "v": 65
    },
    {
      "midi": 26,
      "hit": false,
      "t": 116031.48379166656,
      "d": 321.34335416666,
      "v": 110
    },
    {
      "midi": 67,
      "hit": false,
      "t": 116178.88899999986,
      "d": 132.66468750000058,
      "v": 65
    },
    {
      "midi": 79,
      "hit": false,
      "t": 116349.87904166653,
      "d": 132.66468750000058,
      "v": 65
    },
    {
      "midi": 26,
      "hit": false,
      "t": 116485.49183333322,
      "d": 67.80639583333686,
      "v": 110
    },
    {
      "midi": 26,
      "hit": false,
      "t": 116603.41599999988,
      "d": 70.75449999999546,
      "v": 110
    },
    {
      "midi": 60,
      "hit": false,
      "t": 116606.36410416648,
      "d": 554.2435833333438,
      "v": 104
    },
    {
      "midi": 26,
      "hit": false,
      "t": 116880.53779166655,
      "d": 253.53695833333768,
      "v": 110
    },
    {
      "midi": 67,
      "hit": false,
      "t": 116886.43399999986,
      "d": 132.66468750000058,
      "v": 65
    },
    {
      "midi": 79,
      "hit": false,
      "t": 117057.42404166653,
      "d": 132.66468750000058,
      "v": 65
    },
    {
      "midi": 59,
      "hit": false,
      "t": 117166.50389583316,
      "d": 350.82439583333326,
      "v": 87
    },
    {
      "midi": 26,
      "hit": false,
      "t": 117166.50389583322,
      "d": 117.92416666666395,
      "v": 110
    },
    {
      "midi": 62,
      "hit": false,
      "t": 117175.3482083338,
      "d": 530.6587500000023,
      "v": 95
    },
    {
      "midi": 67,
      "hit": false,
      "t": 117181.24441666713,
      "d": 518.8663333333388,
      "v": 91
    },
    {
      "midi": 57,
      "hit": false,
      "t": 117181.24441666713,
      "d": 527.7106458333437,
      "v": 89
    },
    {
      "midi": 69,
      "hit": false,
      "t": 117187.14062500047,
      "d": 512.9701250000071,
      "v": 87
    },
    {
      "midi": 67,
      "hit": false,
      "t": 117310.96099999986,
      "d": 132.66468750000058,
      "v": 65
    },
    {
      "midi": 79,
      "hit": false,
      "t": 117481.95104166653,
      "d": 132.66468750000058,
      "v": 65
    },
    {
      "midi": 60,
      "hit": false,
      "t": 117732.53989583357,
      "d": 2131.479312500014,
      "v": 86
    },
    {
      "midi": 67,
      "hit": false,
      "t": 117735.48800000001,
      "d": 2169.8046666666633,
      "v": 70
    },
    {
      "midi": 60,
      "hit": false,
      "t": 117735.48800000001,
      "d": 2172.7527708333364,
      "v": 70
    },
    {
      "midi": 64,
      "hit": false,
      "t": 117735.48800000001,
      "d": 2178.648979166668,
      "v": 70
    },
    {
      "midi": 45,
      "hit": false,
      "t": 117735.48800000024,
      "d": 2240.5591666666587,
      "v": 90
    },
    {
      "midi": 60,
      "hit": false,
      "t": 117735.48800000048,
      "d": 2104.946375000014,
      "v": 96
    },
    {
      "midi": 33,
      "hit": false,
      "t": 117738.43610416654,
      "d": 445.16372916667024,
      "v": 110
    },
    {
      "midi": 67,
      "hit": false,
      "t": 117738.43610416692,
      "d": 2143.271729166663,
      "v": 86
    },
    {
      "midi": 64,
      "hit": false,
      "t": 117738.43610416715,
      "d": 2093.153958333336,
      "v": 99
    },
    {
      "midi": 67,
      "hit": false,
      "t": 117739.91015625009,
      "d": 259.43316666665487,
      "v": 95
    },
    {
      "midi": 64,
      "hit": false,
      "t": 117739.91015625009,
      "d": 265.3293749999866,
      "v": 85
    },
    {
      "midi": 60,
      "hit": false,
      "t": 117741.38420833315,
      "d": 271.2255833333329,
      "v": 98
    },
    {
      "midi": 52,
      "hit": false,
      "t": 117741.38420833359,
      "d": 2252.3515833333076,
      "v": 90
    },
    {
      "midi": 57,
      "hit": false,
      "t": 117741.38420833382,
      "d": 2075.4653333333263,
      "v": 100
    },
    {
      "midi": 67,
      "hit": false,
      "t": 117747.28041666716,
      "d": 2072.5172291666677,
      "v": 100
    },
    {
      "midi": 59,
      "hit": false,
      "t": 118015.55789583316,
      "d": 165.09383333333244,
      "v": 85
    },
    {
      "midi": 66,
      "hit": false,
      "t": 118022.92815625007,
      "d": 117.92416666666395,
      "v": 95
    },
    {
      "midi": 62,
      "hit": false,
      "t": 118022.92815625007,
      "d": 150.3533124999958,
      "v": 85
    },
    {
      "midi": 33,
      "hit": false,
      "t": 118298.57589583322,
      "d": 359.66870833333815,
      "v": 110
    },
    {
      "midi": 60,
      "hit": false,
      "t": 118304.47210416649,
      "d": 259.4331666666694,
      "v": 101
    },
    {
      "midi": 64,
      "hit": false,
      "t": 118305.94615625007,
      "d": 268.27747916665976,
      "v": 85
    },
    {
      "midi": 67,
      "hit": false,
      "t": 118305.94615625007,
      "d": 268.27747916665976,
      "v": 95
    },
    {
      "midi": 59,
      "hit": false,
      "t": 118581.59389583315,
      "d": 132.66468750000058,
      "v": 80
    },
    {
      "midi": 66,
      "hit": false,
      "t": 118588.96415625006,
      "d": 120.8722708333371,
      "v": 95
    },
    {
      "midi": 62,
      "hit": false,
      "t": 118588.96415625006,
      "d": 250.58885416666453,
      "v": 85
    },
    {
      "midi": 33,
      "hit": false,
      "t": 118743.73962499989,
      "d": 50.117770833327086,
      "v": 110
    },
    {
      "midi": 33,
      "hit": false,
      "t": 118867.55999999988,
      "d": 58.962083333331975,
      "v": 110
    },
    {
      "midi": 60,
      "hit": false,
      "t": 118870.50810416648,
      "d": 271.2255833333329,
      "v": 101
    },
    {
      "midi": 64,
      "hit": false,
      "t": 118871.98215625006,
      "d": 170.99004166666418,
      "v": 85
    },
    {
      "midi": 67,
      "hit": false,
      "t": 118871.98215625006,
      "d": 265.32937500000116,
      "v": 95
    },
    {
      "midi": 59,
      "hit": false,
      "t": 119147.62989583315,
      "d": 259.4331666666694,
      "v": 88
    },
    {
      "midi": 33,
      "hit": false,
      "t": 119147.62989583322,
      "d": 421.5788958333287,
      "v": 110
    },
    {
      "midi": 64,
      "hit": false,
      "t": 119155.00015625005,
      "d": 262.381270833328,
      "v": 85
    },
    {
      "midi": 66,
      "hit": false,
      "t": 119155.00015625005,
      "d": 268.27747916665976,
      "v": 95
    },
    {
      "midi": 57,
      "hit": false,
      "t": 119430.64789583314,
      "d": 153.30141666666896,
      "v": 86
    },
    {
      "midi": 64,
      "hit": false,
      "t": 119438.01815625005,
      "d": 112.02795833333221,
      "v": 95
    },
    {
      "midi": 62,
      "hit": false,
      "t": 119438.01815625005,
      "d": 262.381270833328,
      "v": 85
    },
    {
      "midi": 33,
      "hit": false,
      "t": 119710.71779166655,
      "d": 144.45710416666407,
      "v": 110
    },
    {
      "midi": 64,
      "hit": false,
      "t": 119721.03615625005,
      "d": 170.99004166666418,
      "v": 95
    },
    {
      "midi": 60,
      "hit": false,
      "t": 119721.03615625005,
      "d": 179.83435416666907,
      "v": 85
    },
    {
      "midi": 55,
      "hit": false,
      "t": 119722.51020833314,
      "d": 306.6028333333379,
      "v": 90
    },
    {
      "midi": 60,
      "hit": false,
      "t": 119993.73579166716,
      "d": 271.2255833333329,
      "v": 101
    },
    {
      "midi": 55,
      "hit": false,
      "t": 119993.73579166716,
      "d": 1105.5390625,
      "v": 88
    },
    {
      "midi": 67,
      "hit": false,
      "t": 119996.68389583357,
      "d": 1120.2795833333366,
      "v": 86
    },
    {
      "midi": 36,
      "hit": false,
      "t": 119999.63199999988,
      "d": 551.2954791666707,
      "v": 110
    },
    {
      "midi": 67,
      "hit": false,
      "t": 119999.63200000001,
      "d": 1046.576979166668,
      "v": 70
    },
    {
      "midi": 64,
      "hit": false,
      "t": 119999.63200000001,
      "d": 1070.161812499995,
      "v": 70
    },
    {
      "midi": 60,
      "hit": false,
      "t": 119999.63200000001,
      "d": 1105.5390625,
      "v": 70
    },
    {
      "midi": 48,
      "hit": false,
      "t": 119999.63200000025,
      "d": 1067.2137083333364,
      "v": 90
    },
    {
      "midi": 60,
      "hit": false,
      "t": 120002.58010416692,
      "d": 1120.279583333322,
      "v": 86
    },
    {
      "midi": 55,
      "hit": false,
      "t": 120005.52820833359,
      "d": 1099.6428541666537,
      "v": 90
    },
    {
      "midi": 64,
      "hit": false,
      "t": 120005.52820833382,
      "d": 1081.954229166673,
      "v": 96
    },
    {
      "midi": 67,
      "hit": false,
      "t": 120017.32062500049,
      "d": 728.1817291666812,
      "v": 98
    },
    {
      "midi": 64,
      "hit": false,
      "t": 120287.07215625005,
      "d": 250.58885416666453,
      "v": 95
    },
    {
      "midi": 60,
      "hit": false,
      "t": 120287.07215625005,
      "d": 265.32937500000116,
      "v": 85
    },
    {
      "midi": 55,
      "hit": false,
      "t": 120288.54620833315,
      "d": 309.5509374999965,
      "v": 92
    },
    {
      "midi": 60,
      "hit": false,
      "t": 120303.28672916716,
      "d": 253.53695833333768,
      "v": 97
    },
    {
      "midi": 24,
      "hit": false,
      "t": 120562.71989583322,
      "d": 400.94216666666034,
      "v": 110
    },
    {
      "midi": 62,
      "hit": false,
      "t": 120586.30472916717,
      "d": 501.17770833332906,
      "v": 104
    },
    {
      "midi": 67,
      "hit": false,
      "t": 120851.63410416717,
      "d": 253.53695833332313,
      "v": 105
    },
    {
      "midi": 66,
      "hit": false,
      "t": 120853.10815625006,
      "d": 206.3672916666692,
      "v": 95
    },
    {
      "midi": 62,
      "hit": false,
      "t": 120853.10815625006,
      "d": 259.4331666666694,
      "v": 85
    },
    {
      "midi": 57,
      "hit": false,
      "t": 120854.58220833314,
      "d": 356.720604166665,
      "v": 93
    },
    {
      "midi": 24,
      "hit": false,
      "t": 121004.93552083321,
      "d": 100.23554166666872,
      "v": 110
    },
    {
      "midi": 66,
      "hit": false,
      "t": 121125.80779166691,
      "d": 1123.2276874999952,
      "v": 86
    },
    {
      "midi": 69,
      "hit": false,
      "t": 121131.70400000001,
      "d": 1081.954229166673,
      "v": 70
    },
    {
      "midi": 62,
      "hit": false,
      "t": 121131.70400000001,
      "d": 1099.6428541666683,
      "v": 70
    },
    {
      "midi": 66,
      "hit": false,
      "t": 121131.70400000001,
      "d": 1102.5909583333414,
      "v": 70
    },
    {
      "midi": 50,
      "hit": false,
      "t": 121131.70400000025,
      "d": 1099.6428541666683,
      "v": 90
    },
    {
      "midi": 62,
      "hit": false,
      "t": 121131.70400000025,
      "d": 1120.2795833333366,
      "v": 86
    },
    {
      "midi": 62,
      "hit": false,
      "t": 121131.70400000049,
      "d": 389.1497500000114,
      "v": 103
    },
    {
      "midi": 54,
      "hit": false,
      "t": 121131.70400000049,
      "d": 928.6528125000332,
      "v": 88
    },
    {
      "midi": 26,
      "hit": false,
      "t": 121134.65210416655,
      "d": 58.962083333331975,
      "v": 110
    },
    {
      "midi": 57,
      "hit": false,
      "t": 121137.60020833358,
      "d": 1073.1099166666681,
      "v": 90
    },
    {
      "midi": 57,
      "hit": false,
      "t": 121140.5483125005,
      "d": 937.4971250000235,
      "v": 97
    },
    {
      "midi": 66,
      "hit": false,
      "t": 121143.49641666717,
      "d": 271.2255833333329,
      "v": 109
    },
    {
      "midi": 26,
      "hit": false,
      "t": 121414.72199999989,
      "d": 507.0739166666608,
      "v": 110
    },
    {
      "midi": 67,
      "hit": false,
      "t": 121426.51441666717,
      "d": 247.64075000000594,
      "v": 105
    },
    {
      "midi": 60,
      "hit": false,
      "t": 121702.16215625005,
      "d": 268.27747916665976,
      "v": 85
    },
    {
      "midi": 64,
      "hit": false,
      "t": 121702.16215625005,
      "d": 268.27747916665976,
      "v": 95
    },
    {
      "midi": 57,
      "hit": false,
      "t": 121703.63620833315,
      "d": 265.32937500000116,
      "v": 91
    },
    {
      "midi": 69,
      "hit": false,
      "t": 121715.42862500051,
      "d": 288.9142083333427,
      "v": 106
    },
    {
      "midi": 59,
      "hit": false,
      "t": 121977.80989583315,
      "d": 106.13175000000047,
      "v": 88
    },
    {
      "midi": 26,
      "hit": false,
      "t": 121980.75799999989,
      "d": 235.8483333333279,
      "v": 110
    },
    {
      "midi": 62,
      "hit": false,
      "t": 121985.18015625005,
      "d": 114.97606250000536,
      "v": 85
    },
    {
      "midi": 66,
      "hit": false,
      "t": 121985.18015625005,
      "d": 117.9241666666785,
      "v": 95
    },
    {
      "midi": 67,
      "hit": false,
      "t": 122001.39472916718,
      "d": 238.7964375000156,
      "v": 108
    },
    {
      "midi": 33,
      "hit": false,
      "t": 122260.82789583321,
      "d": 445.16372916667024,
      "v": 110
    },
    {
      "midi": 67,
      "hit": false,
      "t": 122260.82789583359,
      "d": 2181.597083333356,
      "v": 86
    },
    {
      "midi": 60,
      "hit": false,
      "t": 122263.77600000003,
      "d": 2193.389500000005,
      "v": 70
    },
    {
      "midi": 64,
      "hit": false,
      "t": 122263.77600000003,
      "d": 2211.078125,
      "v": 70
    },
    {
      "midi": 67,
      "hit": false,
      "t": 122263.77600000003,
      "d": 2219.922437500005,
      "v": 70
    },
    {
      "midi": 45,
      "hit": false,
      "t": 122263.77600000026,
      "d": 2214.0262291666877,
      "v": 90
    },
    {
      "midi": 60,
      "hit": false,
      "t": 122263.77600000052,
      "d": 2104.946375000014,
      "v": 97
    },
    {
      "midi": 60,
      "hit": false,
      "t": 122266.72410416648,
      "d": 280.0698958333378,
      "v": 106
    },
    {
      "midi": 60,
      "hit": false,
      "t": 122266.72410416693,
      "d": 2175.7008750000095,
      "v": 86
    },
    {
      "midi": 64,
      "hit": false,
      "t": 122266.7241041672,
      "d": 2093.153958333336,
      "v": 97
    },
    {
      "midi": 64,
      "hit": false,
      "t": 122268.19815625006,
      "d": 265.32937500000116,
      "v": 85
    },
    {
      "midi": 67,
      "hit": false,
      "t": 122268.19815625006,
      "d": 268.2774791666743,
      "v": 95
    },
    {
      "midi": 52,
      "hit": false,
      "t": 122269.6722083336,
      "d": 2255.29968750001,
      "v": 90
    },
    {
      "midi": 57,
      "hit": false,
      "t": 122269.67220833387,
      "d": 2075.4653333333263,
      "v": 100
    },
    {
      "midi": 67,
      "hit": false,
      "t": 122275.5684166672,
      "d": 2072.5172291666677,
      "v": 95
    },
    {
      "midi": 59,
      "hit": false,
      "t": 122543.84589583315,
      "d": 129.716583333342,
      "v": 82
    },
    {
      "midi": 62,
      "hit": false,
      "t": 122551.21615625007,
      "d": 103.18364583332732,
      "v": 85
    },
    {
      "midi": 66,
      "hit": false,
      "t": 122551.21615625007,
      "d": 114.9760624999908,
      "v": 95
    },
    {
      "midi": 33,
      "hit": false,
      "t": 122823.91579166654,
      "d": 359.66870833333815,
      "v": 110
    },
    {
      "midi": 60,
      "hit": false,
      "t": 122832.76010416649,
      "d": 259.4331666666694,
      "v": 101
    },
    {
      "midi": 64,
      "hit": false,
      "t": 122834.23415625007,
      "d": 253.53695833333768,
      "v": 85
    },
    {
      "midi": 67,
      "hit": false,
      "t": 122834.23415625007,
      "d": 259.4331666666694,
      "v": 95
    },
    {
      "midi": 59,
      "hit": false,
      "t": 123109.88189583315,
      "d": 138.56089583333232,
      "v": 86
    },
    {
      "midi": 62,
      "hit": false,
      "t": 123117.25215625006,
      "d": 123.82037499999569,
      "v": 85
    },
    {
      "midi": 66,
      "hit": false,
      "t": 123117.25215625006,
      "d": 129.71658333332743,
      "v": 95
    },
    {
      "midi": 33,
      "hit": false,
      "t": 123269.07952083321,
      "d": 50.117770833327086,
      "v": 110
    },
    {
      "midi": 60,
      "hit": false,
      "t": 123398.79610416648,
      "d": 265.32937500000116,
      "v": 106
    },
    {
      "midi": 33,
      "hit": false,
      "t": 123398.79610416654,
      "d": 58.962083333331975,
      "v": 110
    },
    {
      "midi": 64,
      "hit": false,
      "t": 123400.27015625006,
      "d": 247.64075000000594,
      "v": 85
    },
    {
      "midi": 67,
      "hit": false,
      "t": 123400.27015625006,
      "d": 256.4850625000108,
      "v": 95
    },
    {
      "midi": 33,
      "hit": false,
      "t": 123681.81410416654,
      "d": 421.5788958333287,
      "v": 110
    },
    {
      "midi": 66,
      "hit": false,
      "t": 123683.28815625007,
      "d": 265.32937500000116,
      "v": 95
    },
    {
      "midi": 62,
      "hit": false,
      "t": 123683.28815625007,
      "d": 268.2774791666743,
      "v": 85
    },
    {
      "midi": 59,
      "hit": false,
      "t": 123684.76220833315,
      "d": 117.92416666666395,
      "v": 92
    },
    {
      "midi": 60,
      "hit": false,
      "t": 123964.83210416649,
      "d": 265.32937500000116,
      "v": 106
    },
    {
      "midi": 64,
      "hit": false,
      "t": 123966.30615625008,
      "d": 120.8722708333371,
      "v": 85
    },
    {
      "midi": 67,
      "hit": false,
      "t": 123966.30615625008,
      "d": 120.8722708333371,
      "v": 95
    },
    {
      "midi": 33,
      "hit": false,
      "t": 124239.00579166654,
      "d": 144.45710416666407,
      "v": 110
    },
    {
      "midi": 62,
      "hit": false,
      "t": 124241.95389583315,
      "d": 265.32937500000116,
      "v": 88
    },
    {
      "midi": 67,
      "hit": false,
      "t": 124249.32415625009,
      "d": 114.97606250000536,
      "v": 95
    },
    {
      "midi": 64,
      "hit": false,
      "t": 124249.32415625009,
      "d": 156.2495208333421,
      "v": 85
    },
    {
      "midi": 36,
      "hit": false,
      "t": 124522.02379166654,
      "d": 548.3473749999976,
      "v": 110
    },
    {
      "midi": 67,
      "hit": false,
      "t": 124522.02379166694,
      "d": 1117.331479166678,
      "v": 86
    },
    {
      "midi": 60,
      "hit": false,
      "t": 124522.0237916672,
      "d": 271.2255833333329,
      "v": 105
    },
    {
      "midi": 55,
      "hit": false,
      "t": 124522.0237916672,
      "d": 1105.5390625,
      "v": 88
    },
    {
      "midi": 60,
      "hit": false,
      "t": 124524.97189583362,
      "d": 1120.2795833333366,
      "v": 86
    },
    {
      "midi": 67,
      "hit": false,
      "t": 124527.92000000003,
      "d": 1031.8364583333314,
      "v": 70
    },
    {
      "midi": 64,
      "hit": false,
      "t": 124527.92000000003,
      "d": 1081.9542291666585,
      "v": 70
    },
    {
      "midi": 60,
      "hit": false,
      "t": 124527.92000000003,
      "d": 1087.8504374999902,
      "v": 70
    },
    {
      "midi": 48,
      "hit": false,
      "t": 124527.92000000029,
      "d": 1132.0720000000147,
      "v": 90
    },
    {
      "midi": 55,
      "hit": false,
      "t": 124533.81620833362,
      "d": 1146.8125208333513,
      "v": 90
    },
    {
      "midi": 64,
      "hit": false,
      "t": 124533.81620833387,
      "d": 1081.954229166673,
      "v": 98
    },
    {
      "midi": 67,
      "hit": false,
      "t": 124545.60862500053,
      "d": 728.1817291666812,
      "v": 98
    },
    {
      "midi": 62,
      "hit": false,
      "t": 124816.83420833315,
      "d": 250.58885416666453,
      "v": 92
    },
    {
      "midi": 60,
      "hit": false,
      "t": 124831.5747291672,
      "d": 253.53695833333768,
      "v": 102
    },
    {
      "midi": 59,
      "hit": false,
      "t": 125091.00789583314,
      "d": 135.61279166665918,
      "v": 86
    },
    {
      "midi": 24,
      "hit": false,
      "t": 125091.0078958332,
      "d": 395.0459583333286,
      "v": 110
    },
    {
      "midi": 62,
      "hit": false,
      "t": 125114.59272916721,
      "d": 501.17770833332906,
      "v": 107
    },
    {
      "midi": 67,
      "hit": false,
      "t": 125379.92210416721,
      "d": 253.53695833332313,
      "v": 110
    },
    {
      "midi": 62,
      "hit": false,
      "t": 125382.87020833314,
      "d": 291.8623125000013,
      "v": 92
    },
    {
      "midi": 24,
      "hit": false,
      "t": 125539.11972916653,
      "d": 100.23554166666872,
      "v": 110
    },
    {
      "midi": 26,
      "hit": false,
      "t": 125654.09579166654,
      "d": 58.962083333331975,
      "v": 110
    },
    {
      "midi": 62,
      "hit": false,
      "t": 125654.09579166696,
      "d": 1129.1238958333415,
      "v": 86
    },
    {
      "midi": 66,
      "hit": false,
      "t": 125657.04389583363,
      "d": 1108.4871666666731,
      "v": 86
    },
    {
      "midi": 62,
      "hit": false,
      "t": 125659.99200000001,
      "d": 1099.6428541666683,
      "v": 70
    },
    {
      "midi": 66,
      "hit": false,
      "t": 125659.99200000001,
      "d": 1102.5909583333414,
      "v": 70
    },
    {
      "midi": 69,
      "hit": false,
      "t": 125659.99200000001,
      "d": 1102.5909583333414,
      "v": 70
    },
    {
      "midi": 50,
      "hit": false,
      "t": 125659.9920000003,
      "d": 1064.2656041666633,
      "v": 90
    },
    {
      "midi": 62,
      "hit": false,
      "t": 125659.99200000054,
      "d": 389.14975000002596,
      "v": 103
    },
    {
      "midi": 54,
      "hit": false,
      "t": 125659.99200000054,
      "d": 928.6528125000477,
      "v": 98
    },
    {
      "midi": 57,
      "hit": false,
      "t": 125665.88820833364,
      "d": 1064.2656041666633,
      "v": 90
    },
    {
      "midi": 57,
      "hit": false,
      "t": 125668.83631250054,
      "d": 937.4971250000381,
      "v": 97
    },
    {
      "midi": 66,
      "hit": false,
      "t": 125671.78441666721,
      "d": 285.96610416666954,
      "v": 107
    },
    {
      "midi": 26,
      "hit": false,
      "t": 125943.00999999986,
      "d": 507.0739166666608,
      "v": 110
    },
    {
      "midi": 67,
      "hit": false,
      "t": 125960.69862500056,
      "d": 247.64075000000594,
      "v": 106
    },
    {
      "midi": 57,
      "hit": false,
      "t": 126223.07989583314,
      "d": 268.27747916665976,
      "v": 88
    },
    {
      "midi": 69,
      "hit": false,
      "t": 126243.71662500057,
      "d": 288.9142083333427,
      "v": 110
    },
    {
      "midi": 59,
      "hit": false,
      "t": 126503.14979166647,
      "d": 94.33933333333698,
      "v": 76
    },
    {
      "midi": 26,
      "hit": false,
      "t": 126509.04599999986,
      "d": 235.8483333333279,
      "v": 110
    },
    {
      "midi": 67,
      "hit": false,
      "t": 126529.68272916724,
      "d": 238.7964375000156,
      "v": 108
    },
    {
      "midi": 67,
      "hit": false,
      "t": 126786.16779166697,
      "d": 2240.5591666666733,
      "v": 86
    },
    {
      "midi": 60,
      "hit": false,
      "t": 126792.06400000003,
      "d": 2172.7527708333364,
      "v": 70
    },
    {
      "midi": 67,
      "hit": false,
      "t": 126792.06400000003,
      "d": 2187.493291666673,
      "v": 70
    },
    {
      "midi": 64,
      "hit": false,
      "t": 126792.06400000003,
      "d": 2193.389500000005,
      "v": 70
    },
    {
      "midi": 45,
      "hit": false,
      "t": 126792.0640000003,
      "d": 2219.922437500005,
      "v": 90
    },
    {
      "midi": 60,
      "hit": false,
      "t": 126792.0640000003,
      "d": 2243.5072708333464,
      "v": 86
    },
    {
      "midi": 60,
      "hit": false,
      "t": 126792.06400000058,
      "d": 2093.1539583333506,
      "v": 101
    },
    {
      "midi": 60,
      "hit": false,
      "t": 126795.01210416647,
      "d": 271.2255833333329,
      "v": 106
    },
    {
      "midi": 33,
      "hit": false,
      "t": 126795.01210416651,
      "d": 395.0459583333286,
      "v": 110
    },
    {
      "midi": 57,
      "hit": false,
      "t": 126795.01210416725,
      "d": 2078.4134374999994,
      "v": 96
    },
    {
      "midi": 64,
      "hit": false,
      "t": 126796.4861562501,
      "d": 265.32937500000116,
      "v": 85
    },
    {
      "midi": 67,
      "hit": false,
      "t": 126796.4861562501,
      "d": 274.17368750000605,
      "v": 95
    },
    {
      "midi": 52,
      "hit": false,
      "t": 126797.96020833364,
      "d": 2249.403479166678,
      "v": 90
    },
    {
      "midi": 64,
      "hit": false,
      "t": 126797.96020833393,
      "d": 2099.050166666668,
      "v": 102
    },
    {
      "midi": 67,
      "hit": false,
      "t": 126803.85641666726,
      "d": 2072.5172291666677,
      "v": 97
    },
    {
      "midi": 59,
      "hit": false,
      "t": 127072.13389583313,
      "d": 97.28743749999558,
      "v": 80
    },
    {
      "midi": 66,
      "hit": false,
      "t": 127079.50415625011,
      "d": 114.97606250000536,
      "v": 95
    },
    {
      "midi": 62,
      "hit": false,
      "t": 127079.50415625011,
      "d": 129.716583333342,
      "v": 85
    },
    {
      "midi": 33,
      "hit": false,
      "t": 127352.20379166651,
      "d": 365.5649166666699,
      "v": 110
    },
    {
      "midi": 60,
      "hit": false,
      "t": 127361.04810416646,
      "d": 268.27747916665976,
      "v": 106
    },
    {
      "midi": 67,
      "hit": false,
      "t": 127362.52215625012,
      "d": 262.381270833328,
      "v": 95
    },
    {
      "midi": 64,
      "hit": false,
      "t": 127362.52215625012,
      "d": 274.1736874999915,
      "v": 85
    },
    {
      "midi": 59,
      "hit": false,
      "t": 127638.16989583313,
      "d": 135.61279166667373,
      "v": 80
    },
    {
      "midi": 66,
      "hit": false,
      "t": 127645.54015625012,
      "d": 176.88624999999593,
      "v": 95
    },
    {
      "midi": 62,
      "hit": false,
      "t": 127645.54015625012,
      "d": 200.4710833333229,
      "v": 85
    },
    {
      "midi": 33,
      "hit": false,
      "t": 127800.31562499986,
      "d": 32.42914583333186,
      "v": 110
    },
    {
      "midi": 57,
      "hit": false,
      "t": 127921.18789583314,
      "d": 253.53695833333768,
      "v": 86
    },
    {
      "midi": 33,
      "hit": false,
      "t": 127927.08410416653,
      "d": 53.06587500000023,
      "v": 110
    },
    {
      "midi": 64,
      "hit": false,
      "t": 127928.55815625012,
      "d": 176.88624999999593,
      "v": 85
    },
    {
      "midi": 67,
      "hit": false,
      "t": 127928.55815625012,
      "d": 232.9002291666693,
      "v": 95
    },
    {
      "midi": 33,
      "hit": false,
      "t": 128204.20589583319,
      "d": 389.14974999999686,
      "v": 110
    },
    {
      "midi": 67,
      "hit": false,
      "t": 128211.57615625011,
      "d": 206.3672916666692,
      "v": 95
    },
    {
      "midi": 64,
      "hit": false,
      "t": 128211.57615625011,
      "d": 268.2774791666743,
      "v": 85
    },
    {
      "midi": 55,
      "hit": false,
      "t": 128213.05020833314,
      "d": 253.53695833333768,
      "v": 92
    },
    {
      "midi": 33,
      "hit": false,
      "t": 128770.24189583318,
      "d": 165.09383333333244,
      "v": 110
    },
    {
      "midi": 60,
      "hit": false,
      "t": 128776.13810416647,
      "d": 524.7625416666706,
      "v": 109
    },
    {
      "midi": 64,
      "hit": false,
      "t": 128777.61215625012,
      "d": 548.3473749999976,
      "v": 85
    },
    {
      "midi": 67,
      "hit": false,
      "t": 128777.61215625012,
      "d": 548.3473749999976,
      "v": 95
    },
    {
      "midi": 64,
      "hit": false,
      "t": 129056.20800000003,
      "d": 2175.700874999995,
      "v": 70
    },
    {
      "midi": 67,
      "hit": false,
      "t": 129056.20800000003,
      "d": 2190.441395833317,
      "v": 70
    },
    {
      "midi": 60,
      "hit": false,
      "t": 129056.20800000003,
      "d": 2225.8186458333075,
      "v": 70
    },
    {
      "midi": 67,
      "hit": false,
      "t": 129056.20800000032,
      "d": 1960.48927083335,
      "v": 86
    },
    {
      "midi": 48,
      "hit": false,
      "t": 129056.20800000032,
      "d": 2228.7667500000243,
      "v": 90
    },
    {
      "midi": 55,
      "hit": false,
      "t": 129056.2080000006,
      "d": 2010.6070416666917,
      "v": 102
    },
    {
      "midi": 36,
      "hit": false,
      "t": 129059.15610416651,
      "d": 539.5030625000072,
      "v": 110
    },
    {
      "midi": 60,
      "hit": false,
      "t": 129059.15610416699,
      "d": 1963.4373750000086,
      "v": 86
    },
    {
      "midi": 55,
      "hit": false,
      "t": 129062.10420833367,
      "d": 2261.195895833327,
      "v": 90
    },
    {
      "midi": 60,
      "hit": false,
      "t": 129062.10420833393,
      "d": 1992.9184166666819,
      "v": 102
    },
    {
      "midi": 64,
      "hit": false,
      "t": 129065.0523125006,
      "d": 1998.8146250000136,
      "v": 96
    },
    {
      "midi": 67,
      "hit": false,
      "t": 129068.00041666727,
      "d": 2028.2956666666869,
      "v": 96
    },
    {
      "midi": 59,
      "hit": false,
      "t": 129336.27789583315,
      "d": 109.07985416667361,
      "v": 80
    },
    {
      "midi": 66,
      "hit": false,
      "t": 129343.64815625011,
      "d": 103.18364583332732,
      "v": 95
    },
    {
      "midi": 62,
      "hit": false,
      "t": 129343.64815625011,
      "d": 221.10781249999127,
      "v": 85
    },
    {
      "midi": 24,
      "hit": false,
      "t": 129619.29589583319,
      "d": 341.98008333332837,
      "v": 110
    },
    {
      "midi": 60,
      "hit": false,
      "t": 129625.19210416649,
      "d": 268.27747916665976,
      "v": 104
    },
    {
      "midi": 64,
      "hit": false,
      "t": 129626.66615625011,
      "d": 262.381270833328,
      "v": 85
    },
    {
      "midi": 67,
      "hit": false,
      "t": 129626.66615625011,
      "d": 265.32937500000116,
      "v": 95
    },
    {
      "midi": 59,
      "hit": false,
      "t": 129902.31389583315,
      "d": 117.92416666666395,
      "v": 86
    },
    {
      "midi": 62,
      "hit": false,
      "t": 129909.6841562501,
      "d": 168.0419375000056,
      "v": 85
    },
    {
      "midi": 66,
      "hit": false,
      "t": 129909.6841562501,
      "d": 265.32937500000116,
      "v": 95
    },
    {
      "midi": 24,
      "hit": false,
      "t": 130070.35583333319,
      "d": 64.85829166666372,
      "v": 110
    },
    {
      "midi": 24,
      "hit": false,
      "t": 130182.38379166652,
      "d": 70.75449999999546,
      "v": 110
    },
    {
      "midi": 60,
      "hit": false,
      "t": 130191.22810416648,
      "d": 274.17368750000605,
      "v": 106
    },
    {
      "midi": 64,
      "hit": false,
      "t": 130192.7021562501,
      "d": 262.381270833328,
      "v": 85
    },
    {
      "midi": 67,
      "hit": false,
      "t": 130192.7021562501,
      "d": 262.381270833328,
      "v": 95
    },
    {
      "midi": 62,
      "hit": false,
      "t": 130468.34989583316,
      "d": 120.8722708333371,
      "v": 84
    },
    {
      "midi": 24,
      "hit": false,
      "t": 130474.24610416652,
      "d": 403.8902708333335,
      "v": 110
    },
    {
      "midi": 69,
      "hit": false,
      "t": 130475.7201562501,
      "d": 123.82037499999569,
      "v": 95
    },
    {
      "midi": 67,
      "hit": false,
      "t": 130475.7201562501,
      "d": 135.61279166665918,
      "v": 85
    },
    {
      "midi": 69,
      "hit": false,
      "t": 130758.7381562501,
      "d": 126.76847916666884,
      "v": 95
    },
    {
      "midi": 67,
      "hit": false,
      "t": 130758.7381562501,
      "d": 132.66468750000058,
      "v": 85
    },
    {
      "midi": 62,
      "hit": false,
      "t": 130760.21220833316,
      "d": 126.76847916666884,
      "v": 90
    },
    {
      "midi": 62,
      "hit": false,
      "t": 131037.33400000034,
      "d": 265.3293750000157,
      "v": 86
    },
    {
      "midi": 24,
      "hit": false,
      "t": 131040.28210416653,
      "d": 170.99004166667874,
      "v": 110
    },
    {
      "midi": 67,
      "hit": false,
      "t": 131040.28210416701,
      "d": 265.32937500000116,
      "v": 86
    },
    {
      "midi": 69,
      "hit": false,
      "t": 131041.75615625009,
      "d": 3658.597270833314,
      "v": 95
    },
    {
      "midi": 67,
      "hit": false,
      "t": 131041.75615625009,
      "d": 4198.100333333321,
      "v": 96
    },
    {
      "midi": 62,
      "hit": false,
      "t": 131043.23020833316,
      "d": 3649.7529583336,
      "v": 98
    },
    {
      "midi": 26,
      "hit": false,
      "t": 131317.4038958332,
      "d": 380.3054375000065,
      "v": 110
    },
    {
      "midi": 67,
      "hit": false,
      "t": 131317.40389583368,
      "d": 4377.934687499859,
      "v": 86
    },
    {
      "midi": 67,
      "hit": false,
      "t": 131320.352,
      "d": 2193.38949999999,
      "v": 70
    },
    {
      "midi": 62,
      "hit": false,
      "t": 131320.352,
      "d": 4422.15625,
      "v": 70
    },
    {
      "midi": 69,
      "hit": false,
      "t": 131320.352,
      "d": 4422.15625,
      "v": 70
    },
    {
      "midi": 50,
      "hit": false,
      "t": 131320.35200000033,
      "d": 2246.4553749999905,
      "v": 90
    },
    {
      "midi": 62,
      "hit": false,
      "t": 131320.35200000033,
      "d": 4395.623312499869,
      "v": 86
    },
    {
      "midi": 62,
      "hit": false,
      "t": 131320.35200000062,
      "d": 2116.738791666663,
      "v": 106
    },
    {
      "midi": 57,
      "hit": false,
      "t": 131323.300104167,
      "d": 2243.507270833332,
      "v": 90
    },
    {
      "midi": 67,
      "hit": false,
      "t": 131323.30010416728,
      "d": 2125.583104166668,
      "v": 89
    },
    {
      "midi": 57,
      "hit": false,
      "t": 131329.19631250063,
      "d": 2072.5172291666677,
      "v": 102
    },
    {
      "midi": 69,
      "hit": false,
      "t": 131329.19631250063,
      "d": 2107.894479166658,
      "v": 92
    },
    {
      "midi": 26,
      "hit": false,
      "t": 131880.49179166654,
      "d": 336.0838750000112,
      "v": 110
    },
    {
      "midi": 26,
      "hit": false,
      "t": 132325.6555208332,
      "d": 53.06587500000023,
      "v": 110
    },
    {
      "midi": 26,
      "hit": false,
      "t": 132452.42399999988,
      "d": 61.91018750000512,
      "v": 110
    },
    {
      "midi": 26,
      "hit": false,
      "t": 132735.4419999999,
      "d": 356.72060416667955,
      "v": 110
    },
    {
      "midi": 26,
      "hit": false,
      "t": 133304.42610416657,
      "d": 85.49502083333209,
      "v": 110
    },
    {
      "midi": 66,
      "hit": false,
      "t": 133305.9001562501,
      "d": 132.66468749998603,
      "v": 96
    },
    {
      "midi": 64,
      "hit": false,
      "t": 133447.4091562501,
      "d": 129.71658333329833,
      "v": 96
    },
    {
      "midi": 26,
      "hit": false,
      "t": 133584.4959999999,
      "d": 262.38127083334257,
      "v": 110
    },
    {
      "midi": 66,
      "hit": false,
      "t": 133584.496,
      "d": 2172.752770833322,
      "v": 70
    },
    {
      "midi": 62,
      "hit": false,
      "t": 133588.91815625006,
      "d": 1653.886437500012,
      "v": 99
    },
    {
      "midi": 62,
      "hit": false,
      "t": 133593.34031250063,
      "d": 813.6767499999842,
      "v": 102
    },
    {
      "midi": 57,
      "hit": false,
      "t": 133596.2884166673,
      "d": 843.1577916666574,
      "v": 93
    },
    {
      "midi": 50,
      "hit": false,
      "t": 133599.23652083395,
      "d": 843.1577916666574,
      "v": 100
    },
    {
      "midi": 69,
      "hit": false,
      "t": 133599.23652083395,
      "d": 2216.974333333288,
      "v": 103
    },
    {
      "midi": 50,
      "hit": false,
      "t": 133843.929166667,
      "d": 259.43316666665487,
      "v": 85
    },
    {
      "midi": 57,
      "hit": false,
      "t": 133843.929166667,
      "d": 259.43316666665487,
      "v": 80
    },
    {
      "midi": 62,
      "hit": false,
      "t": 133855.72158333342,
      "d": 288.91420833332813,
      "v": 100
    },
    {
      "midi": 26,
      "hit": false,
      "t": 133864.56589583325,
      "d": 256.4850624999963,
      "v": 110
    },
    {
      "midi": 50,
      "hit": false,
      "t": 134126.94716666697,
      "d": 259.43316666665487,
      "v": 90
    },
    {
      "midi": 57,
      "hit": false,
      "t": 134126.94716666697,
      "d": 259.43316666665487,
      "v": 86
    },
    {
      "midi": 26,
      "hit": false,
      "t": 134150.53199999992,
      "d": 406.8383749999921,
      "v": 110
    },
    {
      "midi": 50,
      "hit": false,
      "t": 134409.96516666695,
      "d": 259.43316666665487,
      "v": 96
    },
    {
      "midi": 57,
      "hit": false,
      "t": 134409.96516666695,
      "d": 259.43316666665487,
      "v": 81
    },
    {
      "midi": 62,
      "hit": false,
      "t": 134433.55000000008,
      "d": 268.27747916665976,
      "v": 104
    },
    {
      "midi": 57,
      "hit": false,
      "t": 134439.44620833395,
      "d": 291.86231249998673,
      "v": 92
    },
    {
      "midi": 50,
      "hit": false,
      "t": 134442.3943125006,
      "d": 285.96610416666954,
      "v": 90
    },
    {
      "midi": 26,
      "hit": false,
      "t": 134598.64383333325,
      "d": 67.80639583332231,
      "v": 110
    },
    {
      "midi": 50,
      "hit": false,
      "t": 134692.98316666693,
      "d": 259.43316666665487,
      "v": 94
    },
    {
      "midi": 57,
      "hit": false,
      "t": 134692.98316666693,
      "d": 259.43316666665487,
      "v": 90
    },
    {
      "midi": 26,
      "hit": false,
      "t": 134710.67179166657,
      "d": 262.38127083334257,
      "v": 110
    },
    {
      "midi": 62,
      "hit": false,
      "t": 134719.51610416727,
      "d": 280.06989583332324,
      "v": 84
    },
    {
      "midi": 50,
      "hit": false,
      "t": 134728.36041666727,
      "d": 259.43316666665487,
      "v": 90
    },
    {
      "midi": 57,
      "hit": false,
      "t": 134731.30852083393,
      "d": 259.43316666665487,
      "v": 93
    },
    {
      "midi": 50,
      "hit": false,
      "t": 134976.00116666692,
      "d": 259.43316666665487,
      "v": 96
    },
    {
      "midi": 57,
      "hit": false,
      "t": 134976.00116666692,
      "d": 259.43316666665487,
      "v": 86
    },
    {
      "midi": 60,
      "hit": false,
      "t": 134987.7935833334,
      "d": 542.451166666724,
      "v": 103
    },
    {
      "midi": 50,
      "hit": false,
      "t": 134987.79358333393,
      "d": 280.06989583332324,
      "v": 103
    },
    {
      "midi": 57,
      "hit": false,
      "t": 134990.7416875006,
      "d": 274.17368750000605,
      "v": 95
    },
    {
      "midi": 67,
      "hit": false,
      "t": 134996.63789583344,
      "d": 120.87227083332255,
      "v": 89
    },
    {
      "midi": 26,
      "hit": false,
      "t": 134999.5859999999,
      "d": 262.38127083334257,
      "v": 110
    },
    {
      "midi": 62,
      "hit": false,
      "t": 135005.48220833394,
      "d": 262.38127083331347,
      "v": 80
    },
    {
      "midi": 50,
      "hit": false,
      "t": 135259.0191666669,
      "d": 259.43316666665487,
      "v": 101
    },
    {
      "midi": 57,
      "hit": false,
      "t": 135259.0191666669,
      "d": 259.43316666665487,
      "v": 95
    },
    {
      "midi": 50,
      "hit": false,
      "t": 135279.65589583392,
      "d": 274.17368750000605,
      "v": 103
    },
    {
      "midi": 62,
      "hit": false,
      "t": 135279.65589583392,
      "d": 280.06989583332324,
      "v": 92
    },
    {
      "midi": 26,
      "hit": false,
      "t": 135285.55210416656,
      "d": 262.38127083334257,
      "v": 110
    },
    {
      "midi": 66,
      "hit": false,
      "t": 135288.50020833343,
      "d": 259.43316666665487,
      "v": 99
    },
    {
      "midi": 57,
      "hit": false,
      "t": 135288.50020833392,
      "d": 268.27747916665976,
      "v": 100
    },
    {
      "midi": 50,
      "hit": false,
      "t": 135542.03716666688,
      "d": 259.43316666665487,
      "v": 104
    },
    {
      "midi": 57,
      "hit": false,
      "t": 135542.03716666688,
      "d": 259.43316666665487,
      "v": 96
    },
    {
      "midi": 50,
      "hit": false,
      "t": 135559.72579166724,
      "d": 209.31539583334234,
      "v": 107
    },
    {
      "midi": 57,
      "hit": false,
      "t": 135565.62200000059,
      "d": 200.47108333333745,
      "v": 95
    },
    {
      "midi": 26,
      "hit": false,
      "t": 135568.57010416657,
      "d": 262.38127083334257,
      "v": 110
    },
    {
      "midi": 67,
      "hit": false,
      "t": 135571.5182083334,
      "d": 138.56089583333232,
      "v": 91
    },
    {
      "midi": 62,
      "hit": false,
      "t": 135574.4663125006,
      "d": 259.43316666665487,
      "v": 98
    },
    {
      "midi": 31,
      "hit": false,
      "t": 135842.74379166658,
      "d": 427.47510416666046,
      "v": 110
    },
    {
      "midi": 62,
      "hit": false,
      "t": 135842.74379166687,
      "d": 1877.9423541667056,
      "v": 86
    },
    {
      "midi": 74,
      "hit": false,
      "t": 135848.64,
      "d": 2178.648979166668,
      "v": 50
    },
    {
      "midi": 79,
      "hit": false,
      "t": 135848.64,
      "d": 2178.648979166668,
      "v": 50
    },
    {
      "midi": 71,
      "hit": false,
      "t": 135848.64,
      "d": 2237.6110625000147,
      "v": 50
    },
    {
      "midi": 50,
      "hit": false,
      "t": 135848.64000000013,
      "d": 321.3433541666891,
      "v": 78
    },
    {
      "midi": 43,
      "hit": false,
      "t": 135848.64000000022,
      "d": 1874.994250000018,
      "v": 95
    },
    {
      "midi": 67,
      "hit": false,
      "t": 135848.64000000022,
      "d": 1889.734770833369,
      "v": 86
    },
    {
      "midi": 55,
      "hit": false,
      "t": 135848.64000000057,
      "d": 548.3473750000121,
      "v": 89
    },
    {
      "midi": 71,
      "hit": false,
      "t": 135851.58810416673,
      "d": 277.12179166669375,
      "v": 103
    },
    {
      "midi": 62,
      "hit": false,
      "t": 135851.58810416723,
      "d": 548.3473750000121,
      "v": 96
    },
    {
      "midi": 59,
      "hit": false,
      "t": 135851.58810416723,
      "d": 554.2435833333584,
      "v": 94
    },
    {
      "midi": 50,
      "hit": false,
      "t": 135854.53620833356,
      "d": 1874.994250000018,
      "v": 95
    },
    {
      "midi": 67,
      "hit": false,
      "t": 135857.48431250057,
      "d": 542.4511666666658,
      "v": 102
    },
    {
      "midi": 67,
      "hit": false,
      "t": 136137.55420833343,
      "d": 283.01800000001094,
      "v": 97
    },
    {
      "midi": 52,
      "hit": false,
      "t": 136152.2947291668,
      "d": 91.39122916667839,
      "v": 82
    },
    {
      "midi": 31,
      "hit": false,
      "t": 136408.77979166657,
      "d": 350.82439583333326,
      "v": 110
    },
    {
      "midi": 62,
      "hit": false,
      "t": 136414.67600000015,
      "d": 2149.167937499995,
      "v": 60
    },
    {
      "midi": 55,
      "hit": false,
      "t": 136432.36462500057,
      "d": 483.4890833333193,
      "v": 89
    },
    {
      "midi": 62,
      "hit": false,
      "t": 136435.31272916723,
      "d": 418.63079166665557,
      "v": 97
    },
    {
      "midi": 55,
      "hit": false,
      "t": 136438.26083333348,
      "d": 1506.481229166675,
      "v": 98
    },
    {
      "midi": 59,
      "hit": false,
      "t": 136438.2608333339,
      "d": 400.9421666666749,
      "v": 95
    },
    {
      "midi": 67,
      "hit": false,
      "t": 136438.2608333339,
      "d": 415.682687499997,
      "v": 102
    },
    {
      "midi": 67,
      "hit": false,
      "t": 136703.59020833345,
      "d": 324.2914583333477,
      "v": 92
    },
    {
      "midi": 67,
      "hit": false,
      "t": 136853.94352083388,
      "d": 395.0459583333577,
      "v": 94
    },
    {
      "midi": 62,
      "hit": false,
      "t": 136853.94352083388,
      "d": 403.8902708333626,
      "v": 102
    },
    {
      "midi": 59,
      "hit": false,
      "t": 136856.89162500054,
      "d": 389.1497500000405,
      "v": 94
    },
    {
      "midi": 31,
      "hit": false,
      "t": 136859.83972916656,
      "d": 32.42914583333186,
      "v": 110
    },
    {
      "midi": 55,
      "hit": false,
      "t": 136974.81579166724,
      "d": 778.2995000000228,
      "v": 95
    },
    {
      "midi": 31,
      "hit": false,
      "t": 136980.71199999988,
      "d": 82.5469166666735,
      "v": 110
    },
    {
      "midi": 62,
      "hit": false,
      "t": 137263.7300000006,
      "d": 568.9841041666514,
      "v": 96
    },
    {
      "midi": 67,
      "hit": false,
      "t": 137263.7300000006,
      "d": 577.8284166666563,
      "v": 102
    },
    {
      "midi": 31,
      "hit": false,
      "t": 137266.67810416655,
      "d": 403.8902708333335,
      "v": 110
    },
    {
      "midi": 59,
      "hit": false,
      "t": 137269.62620833347,
      "d": 120.87227083332255,
      "v": 90
    },
    {
      "midi": 59,
      "hit": false,
      "t": 137269.62620833394,
      "d": 568.9841041666514,
      "v": 88
    },
    {
      "midi": 59,
      "hit": false,
      "t": 137552.64420833346,
      "d": 271.22558333334746,
      "v": 93
    },
    {
      "midi": 43,
      "hit": false,
      "t": 137809.1292708336,
      "d": 327.2395625000645,
      "v": 95
    },
    {
      "midi": 55,
      "hit": false,
      "t": 137817.97358333392,
      "d": 250.58885416664998,
      "v": 95
    },
    {
      "midi": 67,
      "hit": false,
      "t": 137826.8178958336,
      "d": 250.58885416667908,
      "v": 86
    },
    {
      "midi": 62,
      "hit": false,
      "t": 137826.8178958336,
      "d": 259.433166666684,
      "v": 86
    },
    {
      "midi": 50,
      "hit": false,
      "t": 137826.8178958336,
      "d": 277.12179166669375,
      "v": 95
    },
    {
      "midi": 31,
      "hit": false,
      "t": 137832.71410416655,
      "d": 117.92416666666395,
      "v": 110
    },
    {
      "midi": 62,
      "hit": false,
      "t": 137832.71410416724,
      "d": 238.7964374999865,
      "v": 93
    },
    {
      "midi": 60,
      "hit": false,
      "t": 137835.66220833347,
      "d": 112.02795833334676,
      "v": 95
    },
    {
      "midi": 59,
      "hit": false,
      "t": 137838.6103125006,
      "d": 235.8483333332988,
      "v": 101
    },
    {
      "midi": 67,
      "hit": false,
      "t": 137841.55841666725,
      "d": 244.6926458333037,
      "v": 104
    },
    {
      "midi": 48,
      "hit": false,
      "t": 137991.9117291668,
      "d": 126.76847916666884,
      "v": 67
    },
    {
      "midi": 50,
      "hit": false,
      "t": 138068.56243750014,
      "d": 327.2395625000063,
      "v": 79
    },
    {
      "midi": 76,
      "hit": false,
      "t": 138112.784,
      "d": 2163.908458333346,
      "v": 50
    },
    {
      "midi": 79,
      "hit": false,
      "t": 138112.784,
      "d": 2163.908458333346,
      "v": 50
    },
    {
      "midi": 72,
      "hit": false,
      "t": 138112.784,
      "d": 2190.4413958333316,
      "v": 50
    },
    {
      "midi": 67,
      "hit": false,
      "t": 138112.7840000003,
      "d": 1798.3435416666907,
      "v": 86
    },
    {
      "midi": 62,
      "hit": false,
      "t": 138112.7840000003,
      "d": 1833.7207916666812,
      "v": 86
    },
    {
      "midi": 24,
      "hit": false,
      "t": 138115.73210416656,
      "d": 412.7345833333384,
      "v": 110
    },
    {
      "midi": 60,
      "hit": false,
      "t": 138115.73210416723,
      "d": 557.1916874999879,
      "v": 94
    },
    {
      "midi": 62,
      "hit": false,
      "t": 138117.2061562501,
      "d": 229.9521250000107,
      "v": 92
    },
    {
      "midi": 67,
      "hit": false,
      "t": 138117.2061562501,
      "d": 241.7445416666742,
      "v": 95
    },
    {
      "midi": 62,
      "hit": false,
      "t": 138118.68020833348,
      "d": 271.22558333334746,
      "v": 92
    },
    {
      "midi": 64,
      "hit": false,
      "t": 138118.68020833388,
      "d": 557.1916874999879,
      "v": 96
    },
    {
      "midi": 67,
      "hit": false,
      "t": 138121.62831250054,
      "d": 554.2435833333293,
      "v": 104
    },
    {
      "midi": 55,
      "hit": false,
      "t": 138121.62831250054,
      "d": 557.1916874999879,
      "v": 86
    },
    {
      "midi": 55,
      "hit": false,
      "t": 138130.47262500032,
      "d": 1901.5271875000035,
      "v": 95
    },
    {
      "midi": 48,
      "hit": false,
      "t": 138139.31693750032,
      "d": 1886.7866666666523,
      "v": 95
    },
    {
      "midi": 52,
      "hit": false,
      "t": 138395.80200000014,
      "d": 103.18364583334187,
      "v": 80
    },
    {
      "midi": 67,
      "hit": false,
      "t": 138400.2241562501,
      "d": 283.01800000001094,
      "v": 95
    },
    {
      "midi": 62,
      "hit": false,
      "t": 138400.2241562501,
      "d": 297.758520833333,
      "v": 97
    },
    {
      "midi": 60,
      "hit": false,
      "t": 138401.6982083335,
      "d": 238.7964374999865,
      "v": 95
    },
    {
      "midi": 55,
      "hit": false,
      "t": 138667.0275833335,
      "d": 1273.5810000000056,
      "v": 98
    },
    {
      "midi": 60,
      "hit": false,
      "t": 138672.9237916672,
      "d": 448.1118333332997,
      "v": 97
    },
    {
      "midi": 64,
      "hit": false,
      "t": 138675.87189583387,
      "d": 442.21562499998254,
      "v": 93
    },
    {
      "midi": 67,
      "hit": false,
      "t": 138675.87189583387,
      "d": 442.21562499998254,
      "v": 101
    },
    {
      "midi": 55,
      "hit": false,
      "t": 138678.82000000053,
      "d": 451.0599374999874,
      "v": 90
    },
    {
      "midi": 24,
      "hit": false,
      "t": 138681.76810416655,
      "d": 318.3952500000014,
      "v": 110
    },
    {
      "midi": 62,
      "hit": false,
      "t": 138699.45672916682,
      "d": 1241.1518541666737,
      "v": 60
    },
    {
      "midi": 62,
      "hit": false,
      "t": 138966.2601562501,
      "d": 303.6547291666793,
      "v": 88
    },
    {
      "midi": 67,
      "hit": false,
      "t": 138966.2601562501,
      "d": 306.6028333333379,
      "v": 95
    },
    {
      "midi": 62,
      "hit": false,
      "t": 138967.73420833348,
      "d": 268.27747916665976,
      "v": 99
    },
    {
      "midi": 67,
      "hit": false,
      "t": 139118.08752083385,
      "d": 330.1876666666649,
      "v": 104
    },
    {
      "midi": 64,
      "hit": false,
      "t": 139118.08752083385,
      "d": 350.82439583333326,
      "v": 94
    },
    {
      "midi": 24,
      "hit": false,
      "t": 139121.03562499987,
      "d": 32.42914583333186,
      "v": 110
    },
    {
      "midi": 60,
      "hit": false,
      "t": 139121.0356250005,
      "d": 347.87629166667466,
      "v": 94
    },
    {
      "midi": 55,
      "hit": false,
      "t": 139230.11547916717,
      "d": 760.610875000013,
      "v": 89
    },
    {
      "midi": 24,
      "hit": false,
      "t": 139244.85599999988,
      "d": 53.06587500000023,
      "v": 110
    },
    {
      "midi": 24,
      "hit": false,
      "t": 139530.82210416655,
      "d": 362.61681249999674,
      "v": 110
    },
    {
      "midi": 64,
      "hit": false,
      "t": 139530.8221041672,
      "d": 551.2954791666707,
      "v": 100
    },
    {
      "midi": 67,
      "hit": false,
      "t": 139530.8221041672,
      "d": 554.2435833333293,
      "v": 102
    },
    {
      "midi": 67,
      "hit": false,
      "t": 139532.2961562501,
      "d": 336.0838750000112,
      "v": 95
    },
    {
      "midi": 62,
      "hit": false,
      "t": 139532.2961562501,
      "d": 339.03197916666977,
      "v": 91
    },
    {
      "midi": 60,
      "hit": false,
      "t": 139533.77020833347,
      "d": 291.86231249998673,
      "v": 95
    },
    {
      "midi": 60,
      "hit": false,
      "t": 139533.77020833385,
      "d": 551.2954791666707,
      "v": 96
    },
    {
      "midi": 62,
      "hit": false,
      "t": 140079.16947916683,
      "d": 1022.9921458333556,
      "v": 60
    },
    {
      "midi": 64,
      "hit": false,
      "t": 140082.11758333386,
      "d": 250.58885416664998,
      "v": 90
    },
    {
      "midi": 55,
      "hit": false,
      "t": 140082.11758333386,
      "d": 253.53695833330858,
      "v": 94
    },
    {
      "midi": 60,
      "hit": false,
      "t": 140085.06568750052,
      "d": 232.9002291666693,
      "v": 94
    },
    {
      "midi": 67,
      "hit": false,
      "t": 140085.06568750052,
      "d": 244.6926458333328,
      "v": 98
    },
    {
      "midi": 67,
      "hit": false,
      "t": 140090.96189583367,
      "d": 262.38127083334257,
      "v": 86
    },
    {
      "midi": 55,
      "hit": false,
      "t": 140093.91000000018,
      "d": 492.3333958333242,
      "v": 97
    },
    {
      "midi": 24,
      "hit": false,
      "t": 140096.85810416655,
      "d": 73.7026041666686,
      "v": 110
    },
    {
      "midi": 62,
      "hit": false,
      "t": 140096.858104167,
      "d": 265.32937500000116,
      "v": 86
    },
    {
      "midi": 66,
      "hit": false,
      "t": 140098.33215625008,
      "d": 324.2914583333477,
      "v": 94
    },
    {
      "midi": 62,
      "hit": false,
      "t": 140098.33215625008,
      "d": 336.0838750000112,
      "v": 90
    },
    {
      "midi": 57,
      "hit": false,
      "t": 140099.80620833347,
      "d": 389.1497500000114,
      "v": 92
    },
    {
      "midi": 48,
      "hit": false,
      "t": 140099.80620833367,
      "d": 253.53695833333768,
      "v": 95
    },
    {
      "midi": 55,
      "hit": false,
      "t": 140102.75431250033,
      "d": 241.7445416666742,
      "v": 95
    },
    {
      "midi": 67,
      "hit": false,
      "t": 140371.03179166702,
      "d": 2449.8745625000156,
      "v": 86
    },
    {
      "midi": 79,
      "hit": false,
      "t": 140376.928,
      "d": 1096.694749999995,
      "v": 50
    },
    {
      "midi": 74,
      "hit": false,
      "t": 140376.928,
      "d": 4398.571416666644,
      "v": 50
    },
    {
      "midi": 81,
      "hit": false,
      "t": 140376.928,
      "d": 4404.46762499999,
      "v": 50
    },
    {
      "midi": 62,
      "hit": false,
      "t": 140376.92800000036,
      "d": 2458.7188749999914,
      "v": 86
    },
    {
      "midi": 57,
      "hit": false,
      "t": 140376.9280000005,
      "d": 577.8284166666854,
      "v": 94
    },
    {
      "midi": 26,
      "hit": false,
      "t": 140379.87610416656,
      "d": 412.7345833333384,
      "v": 110
    },
    {
      "midi": 62,
      "hit": false,
      "t": 140382.82420833386,
      "d": 571.9322083333391,
      "v": 104
    },
    {
      "midi": 67,
      "hit": false,
      "t": 140385.7723125005,
      "d": 563.0878958333342,
      "v": 98
    },
    {
      "midi": 69,
      "hit": false,
      "t": 140388.72041666717,
      "d": 560.1397916666756,
      "v": 94
    },
    {
      "midi": 50,
      "hit": false,
      "t": 140397.56472916703,
      "d": 4030.05839583333,
      "v": 95
    },
    {
      "midi": 57,
      "hit": false,
      "t": 140403.46093750038,
      "d": 3988.7849374999932,
      "v": 95
    },
    {
      "midi": 57,
      "hit": false,
      "t": 140645.20547916685,
      "d": 138.56089583333232,
      "v": 95
    },
    {
      "midi": 26,
      "hit": false,
      "t": 140942.9639999999,
      "d": 350.82439583333326,
      "v": 110
    },
    {
      "midi": 57,
      "hit": false,
      "t": 140945.91210416684,
      "d": 156.2495208333421,
      "v": 95
    },
    {
      "midi": 67,
      "hit": false,
      "t": 140948.86020833385,
      "d": 445.16372916667024,
      "v": 90
    },
    {
      "midi": 69,
      "hit": false,
      "t": 140948.86020833385,
      "d": 445.16372916667024,
      "v": 100
    },
    {
      "midi": 62,
      "hit": false,
      "t": 140954.7564166672,
      "d": 439.26752083332394,
      "v": 100
    },
    {
      "midi": 57,
      "hit": false,
      "t": 140954.7564166672,
      "d": 442.21562499998254,
      "v": 87
    },
    {
      "midi": 62,
      "hit": false,
      "t": 141208.29337500018,
      "d": 200.47108333333745,
      "v": 60
    },
    {
      "midi": 55,
      "hit": false,
      "t": 141223.0338958335,
      "d": 144.45710416667862,
      "v": 99
    },
    {
      "midi": 26,
      "hit": false,
      "t": 141382.23152083321,
      "d": 32.42914583333186,
      "v": 110
    },
    {
      "midi": 67,
      "hit": false,
      "t": 141394.02393750052,
      "d": 159.1976249999716,
      "v": 94
    },
    {
      "midi": 69,
      "hit": false,
      "t": 141394.02393750052,
      "d": 347.87629166661645,
      "v": 98
    },
    {
      "midi": 62,
      "hit": false,
      "t": 141394.02393750052,
      "d": 365.56491666662623,
      "v": 102
    },
    {
      "midi": 57,
      "hit": false,
      "t": 141396.97204166718,
      "d": 341.98008333329926,
      "v": 97
    },
    {
      "midi": 26,
      "hit": false,
      "t": 141506.05189583322,
      "d": 76.6507083333272,
      "v": 110
    },
    {
      "midi": 62,
      "hit": false,
      "t": 141506.05189583352,
      "d": 244.6926458333328,
      "v": 60
    },
    {
      "midi": 78,
      "hit": false,
      "t": 141509,
      "d": 1105.5390625,
      "v": 45
    },
    {
      "midi": 57,
      "hit": false,
      "t": 141514.89620833352,
      "d": 247.64074999999139,
      "v": 99
    },
    {
      "midi": 66,
      "hit": false,
      "t": 141529.63672916716,
      "d": 241.7445416666451,
      "v": 98
    },
    {
      "midi": 26,
      "hit": false,
      "t": 141794.96610416655,
      "d": 409.7864791666798,
      "v": 110
    },
    {
      "midi": 62,
      "hit": false,
      "t": 141812.65472916714,
      "d": 542.4511666666658,
      "v": 106
    },
    {
      "midi": 69,
      "hit": false,
      "t": 141812.65472916714,
      "d": 542.4511666666658,
      "v": 90
    },
    {
      "midi": 66,
      "hit": false,
      "t": 141812.65472916714,
      "d": 545.3992708333244,
      "v": 111
    },
    {
      "midi": 57,
      "hit": false,
      "t": 141812.65472916714,
      "d": 554.2435833333293,
      "v": 86
    },
    {
      "midi": 62,
      "hit": false,
      "t": 142343.31347916686,
      "d": 1329.5949791666935,
      "v": 60
    },
    {
      "midi": 55,
      "hit": false,
      "t": 142355.10589583352,
      "d": 518.8663333333388,
      "v": 108
    },
    {
      "midi": 62,
      "hit": false,
      "t": 142355.1058958338,
      "d": 265.32937499997206,
      "v": 98
    },
    {
      "midi": 69,
      "hit": false,
      "t": 142355.1058958338,
      "d": 268.27747916663066,
      "v": 90
    },
    {
      "midi": 26,
      "hit": false,
      "t": 142358.0539999999,
      "d": 76.6507083333272,
      "v": 110
    },
    {
      "midi": 66,
      "hit": false,
      "t": 142358.05400000047,
      "d": 247.64074999999139,
      "v": 105
    },
    {
      "midi": 57,
      "hit": false,
      "t": 142366.89831250047,
      "d": 227.004020833323,
      "v": 84
    },
    {
      "midi": 26,
      "hit": false,
      "t": 142641.07199999987,
      "d": 412.7345833333384,
      "v": 110
    },
    {
      "midi": 79,
      "hit": false,
      "t": 142641.072,
      "d": 1090.798541666678,
      "v": 50
    },
    {
      "midi": 69,
      "hit": false,
      "t": 142641.07200000045,
      "d": 563.0878958333342,
      "v": 86
    },
    {
      "midi": 67,
      "hit": false,
      "t": 142646.9682083338,
      "d": 557.1916874999879,
      "v": 100
    },
    {
      "midi": 57,
      "hit": false,
      "t": 142646.9682083338,
      "d": 566.0359999999928,
      "v": 83
    },
    {
      "midi": 62,
      "hit": false,
      "t": 142649.91631250046,
      "d": 557.1916874999879,
      "v": 102
    },
    {
      "midi": 57,
      "hit": false,
      "t": 142921.1418958335,
      "d": 138.56089583333232,
      "v": 101
    },
    {
      "midi": 67,
      "hit": false,
      "t": 142921.14189583372,
      "d": 566.0359999999637,
      "v": 86
    },
    {
      "midi": 62,
      "hit": false,
      "t": 142924.09000000037,
      "d": 486.4371874999779,
      "v": 86
    },
    {
      "midi": 26,
      "hit": false,
      "t": 143204.1598958332,
      "d": 297.758520833333,
      "v": 110
    },
    {
      "midi": 57,
      "hit": false,
      "t": 143204.15989583352,
      "d": 147.4052083333372,
      "v": 100
    },
    {
      "midi": 69,
      "hit": false,
      "t": 143204.15989583379,
      "d": 392.09785416667,
      "v": 94
    },
    {
      "midi": 67,
      "hit": false,
      "t": 143204.15989583379,
      "d": 395.0459583333286,
      "v": 98
    },
    {
      "midi": 62,
      "hit": false,
      "t": 143207.10800000044,
      "d": 377.3573333333479,
      "v": 103
    },
    {
      "midi": 57,
      "hit": false,
      "t": 143213.0042083338,
      "d": 365.56491666665534,
      "v": 85
    },
    {
      "midi": 55,
      "hit": false,
      "t": 143487.17789583353,
      "d": 147.4052083333372,
      "v": 104
    },
    {
      "midi": 69,
      "hit": false,
      "t": 143640.47931250045,
      "d": 362.61681249996764,
      "v": 96
    },
    {
      "midi": 67,
      "hit": false,
      "t": 143643.4274166671,
      "d": 135.61279166664463,
      "v": 90
    },
    {
      "midi": 62,
      "hit": false,
      "t": 143643.4274166671,
      "d": 368.51302083331393,
      "v": 102
    },
    {
      "midi": 57,
      "hit": false,
      "t": 143646.37552083377,
      "d": 324.2914583333186,
      "v": 87
    },
    {
      "midi": 26,
      "hit": false,
      "t": 143652.27172916653,
      "d": 32.42914583333186,
      "v": 110
    },
    {
      "midi": 62,
      "hit": false,
      "t": 143767.2477916669,
      "d": 173.93814583335188,
      "v": 60
    },
    {
      "midi": 67,
      "hit": false,
      "t": 143770.1958958337,
      "d": 250.58885416664998,
      "v": 86
    },
    {
      "midi": 26,
      "hit": false,
      "t": 143773.14399999985,
      "d": 85.49502083333209,
      "v": 110
    },
    {
      "midi": 78,
      "hit": false,
      "t": 143773.144,
      "d": 1002.3554166666581,
      "v": 45
    },
    {
      "midi": 62,
      "hit": false,
      "t": 143773.14400000035,
      "d": 247.64074999999139,
      "v": 86
    },
    {
      "midi": 66,
      "hit": false,
      "t": 143779.04020833375,
      "d": 221.10781250000582,
      "v": 93
    },
    {
      "midi": 57,
      "hit": false,
      "t": 143784.9364166669,
      "d": 147.4052083333372,
      "v": 98
    },
    {
      "midi": 26,
      "hit": false,
      "t": 144059.11010416652,
      "d": 409.7864791666798,
      "v": 110
    },
    {
      "midi": 67,
      "hit": false,
      "t": 144059.11010416702,
      "d": 271.22558333334746,
      "v": 86
    },
    {
      "midi": 62,
      "hit": false,
      "t": 144059.11010416702,
      "d": 274.17368750000605,
      "v": 86
    },
    {
      "midi": 67,
      "hit": false,
      "t": 144062.05820833347,
      "d": 114.97606250000536,
      "v": 98
    },
    {
      "midi": 62,
      "hit": false,
      "t": 144065.00631250025,
      "d": 262.38127083331347,
      "v": 60
    },
    {
      "midi": 69,
      "hit": false,
      "t": 144070.90252083377,
      "d": 542.4511666666367,
      "v": 96
    },
    {
      "midi": 62,
      "hit": false,
      "t": 144073.85062500043,
      "d": 545.3992708333244,
      "v": 104
    },
    {
      "midi": 55,
      "hit": false,
      "t": 144076.7987291669,
      "d": 141.50899999999092,
      "v": 104
    },
    {
      "midi": 66,
      "hit": false,
      "t": 144076.7987291671,
      "d": 542.4511666666658,
      "v": 105
    },
    {
      "midi": 57,
      "hit": false,
      "t": 144079.74683333375,
      "d": 551.2954791666707,
      "v": 94
    },
    {
      "midi": 50,
      "hit": false,
      "t": 144336.23189583357,
      "d": 82.5469166666735,
      "v": 73
    },
    {
      "midi": 66,
      "hit": false,
      "t": 144345.07620833348,
      "d": 253.53695833333768,
      "v": 90
    },
    {
      "midi": 52,
      "hit": false,
      "t": 144389.29777083357,
      "d": 135.61279166667373,
      "v": 78
    },
    {
      "midi": 43,
      "hit": false,
      "t": 144598.61316666703,
      "d": 218.15970833334723,
      "v": 95
    },
    {
      "midi": 50,
      "hit": false,
      "t": 144604.50937500037,
      "d": 215.21160416665953,
      "v": 95
    },
    {
      "midi": 69,
      "hit": false,
      "t": 144613.3536875004,
      "d": 274.17368750000605,
      "v": 98
    },
    {
      "midi": 62,
      "hit": false,
      "t": 144616.30179166692,
      "d": 2446.9264583332697,
      "v": 60
    },
    {
      "midi": 26,
      "hit": false,
      "t": 144619.2498958332,
      "d": 38.32535416667815,
      "v": 110
    },
    {
      "midi": 62,
      "hit": false,
      "t": 144619.24989583375,
      "d": 271.22558333331835,
      "v": 98
    },
    {
      "midi": 66,
      "hit": false,
      "t": 144619.24989583375,
      "d": 271.22558333331835,
      "v": 103
    },
    {
      "midi": 67,
      "hit": false,
      "t": 144622.19800000038,
      "d": 262.38127083331347,
      "v": 86
    },
    {
      "midi": 62,
      "hit": false,
      "t": 144625.14610416704,
      "d": 259.43316666665487,
      "v": 86
    },
    {
      "midi": 67,
      "hit": false,
      "t": 144628.0942083335,
      "d": 129.71658333332743,
      "v": 95
    },
    {
      "midi": 57,
      "hit": false,
      "t": 144631.04231250042,
      "d": 256.4850624999963,
      "v": 89
    },
    {
      "midi": 55,
      "hit": false,
      "t": 144645.7828333336,
      "d": 757.6627708332671,
      "v": 98
    },
    {
      "midi": 26,
      "hit": false,
      "t": 144790.23993749986,
      "d": 17.68862500000978,
      "v": 110
    },
    {
      "midi": 48,
      "hit": false,
      "t": 144899.31979166693,
      "d": 94.33933333330788,
      "v": 80
    },
    {
      "midi": 62,
      "hit": false,
      "t": 144899.31979166702,
      "d": 1877.9423541667056,
      "v": 86
    },
    {
      "midi": 74,
      "hit": false,
      "t": 144905.21600000001,
      "d": 2178.648979166668,
      "v": 50
    },
    {
      "midi": 79,
      "hit": false,
      "t": 144905.21600000001,
      "d": 2178.648979166668,
      "v": 50
    },
    {
      "midi": 71,
      "hit": false,
      "t": 144905.21600000001,
      "d": 2237.6110625000147,
      "v": 50
    },
    {
      "midi": 43,
      "hit": false,
      "t": 144905.21600000036,
      "d": 1874.994250000018,
      "v": 95
    },
    {
      "midi": 67,
      "hit": false,
      "t": 144905.21600000036,
      "d": 1889.734770833369,
      "v": 86
    },
    {
      "midi": 55,
      "hit": false,
      "t": 144905.2160000004,
      "d": 548.3473750000121,
      "v": 89
    },
    {
      "midi": 31,
      "hit": false,
      "t": 144908.16410416653,
      "d": 353.77249999999185,
      "v": 110
    },
    {
      "midi": 62,
      "hit": false,
      "t": 144908.16410416705,
      "d": 548.3473750000121,
      "v": 96
    },
    {
      "midi": 59,
      "hit": false,
      "t": 144908.16410416705,
      "d": 554.2435833333584,
      "v": 94
    },
    {
      "midi": 71,
      "hit": false,
      "t": 144911.11220833354,
      "d": 256.4850625000254,
      "v": 96
    },
    {
      "midi": 50,
      "hit": false,
      "t": 144911.1122083337,
      "d": 1874.994250000018,
      "v": 95
    },
    {
      "midi": 67,
      "hit": false,
      "t": 144914.0603125004,
      "d": 542.4511666666658,
      "v": 102
    },
    {
      "midi": 50,
      "hit": false,
      "t": 144967.12618750025,
      "d": 241.7445416666451,
      "v": 75
    },
    {
      "midi": 67,
      "hit": false,
      "t": 145194.13020833355,
      "d": 170.99004166666418,
      "v": 94
    },
    {
      "midi": 52,
      "hit": false,
      "t": 145223.61125000022,
      "d": 100.23554166665417,
      "v": 84
    },
    {
      "midi": 31,
      "hit": false,
      "t": 145471.25199999986,
      "d": 353.77249999999185,
      "v": 110
    },
    {
      "midi": 55,
      "hit": false,
      "t": 145483.04441666685,
      "d": 1527.1179583333433,
      "v": 104
    },
    {
      "midi": 55,
      "hit": false,
      "t": 145488.94062500042,
      "d": 483.4890833332902,
      "v": 89
    },
    {
      "midi": 62,
      "hit": false,
      "t": 145491.88872916708,
      "d": 418.63079166662646,
      "v": 97
    },
    {
      "midi": 59,
      "hit": false,
      "t": 145494.83683333374,
      "d": 400.9421666666458,
      "v": 95
    },
    {
      "midi": 67,
      "hit": false,
      "t": 145494.83683333374,
      "d": 415.68268749996787,
      "v": 102
    },
    {
      "midi": 67,
      "hit": false,
      "t": 145760.16620833354,
      "d": 604.3613541666709,
      "v": 92
    },
    {
      "midi": 31,
      "hit": false,
      "t": 145910.5195208332,
      "d": 32.42914583333186,
      "v": 110
    },
    {
      "midi": 67,
      "hit": false,
      "t": 145910.5195208337,
      "d": 395.0459583333577,
      "v": 94
    },
    {
      "midi": 62,
      "hit": false,
      "t": 145910.5195208337,
      "d": 403.8902708333626,
      "v": 102
    },
    {
      "midi": 59,
      "hit": false,
      "t": 145913.46762500037,
      "d": 389.1497500000405,
      "v": 94
    },
    {
      "midi": 31,
      "hit": false,
      "t": 146031.3917916665,
      "d": 58.96208333334653,
      "v": 110
    },
    {
      "midi": 55,
      "hit": false,
      "t": 146031.39179166706,
      "d": 778.2995000000228,
      "v": 95
    },
    {
      "midi": 31,
      "hit": false,
      "t": 146320.30599999987,
      "d": 365.56491666665534,
      "v": 110
    },
    {
      "midi": 62,
      "hit": false,
      "t": 146320.30600000042,
      "d": 568.9841041666514,
      "v": 96
    },
    {
      "midi": 67,
      "hit": false,
      "t": 146320.30600000042,
      "d": 577.8284166666563,
      "v": 102
    },
    {
      "midi": 59,
      "hit": false,
      "t": 146326.20220833377,
      "d": 568.9841041666514,
      "v": 88
    },
    {
      "midi": 62,
      "hit": false,
      "t": 146607.7461562501,
      "d": 153.3014166666544,
      "v": 95
    },
    {
      "midi": 67,
      "hit": false,
      "t": 146607.7461562501,
      "d": 165.0938333333179,
      "v": 98
    },
    {
      "midi": 59,
      "hit": false,
      "t": 146609.22020833354,
      "d": 179.83435416666907,
      "v": 96
    },
    {
      "midi": 43,
      "hit": false,
      "t": 146865.70527083374,
      "d": 327.2395625000063,
      "v": 95
    },
    {
      "midi": 55,
      "hit": false,
      "t": 146874.54958333375,
      "d": 250.58885416664998,
      "v": 95
    },
    {
      "midi": 50,
      "hit": false,
      "t": 146883.39389583375,
      "d": 277.12179166666465,
      "v": 95
    },
    {
      "midi": 67,
      "hit": false,
      "t": 146886.3420000004,
      "d": 250.58885416667908,
      "v": 86
    },
    {
      "midi": 62,
      "hit": false,
      "t": 146886.3420000004,
      "d": 259.433166666684,
      "v": 86
    },
    {
      "midi": 31,
      "hit": false,
      "t": 146889.29010416652,
      "d": 91.39122916667839,
      "v": 110
    },
    {
      "midi": 60,
      "hit": false,
      "t": 146889.29010416687,
      "d": 397.9940624999872,
      "v": 101
    },
    {
      "midi": 62,
      "hit": false,
      "t": 146889.29010416707,
      "d": 238.7964374999865,
      "v": 93
    },
    {
      "midi": 62,
      "hit": false,
      "t": 146890.76415625008,
      "d": 480.5409791666607,
      "v": 90
    },
    {
      "midi": 67,
      "hit": false,
      "t": 146890.76415625008,
      "d": 480.5409791666607,
      "v": 96
    },
    {
      "midi": 59,
      "hit": false,
      "t": 146895.18631250042,
      "d": 235.8483333332988,
      "v": 101
    },
    {
      "midi": 67,
      "hit": false,
      "t": 146898.13441666708,
      "d": 244.6926458333037,
      "v": 104
    },
    {
      "midi": 48,
      "hit": false,
      "t": 147051.43583333353,
      "d": 123.82037500001024,
      "v": 85
    },
    {
      "midi": 50,
      "hit": false,
      "t": 147148.72327083352,
      "d": 247.6407500000205,
      "v": 85
    },
    {
      "midi": 62,
      "hit": false,
      "t": 147154.61947916687,
      "d": 436.31941666666535,
      "v": 60
    },
    {
      "midi": 67,
      "hit": false,
      "t": 147163.46379166708,
      "d": 1798.3435416666616,
      "v": 86
    },
    {
      "midi": 24,
      "hit": false,
      "t": 147166.41189583318,
      "d": 374.4092291666602,
      "v": 110
    },
    {
      "midi": 62,
      "hit": false,
      "t": 147166.41189583373,
      "d": 1833.7207916666812,
      "v": 86
    },
    {
      "midi": 76,
      "hit": false,
      "t": 147169.36000000002,
      "d": 2163.908458333346,
      "v": 50
    },
    {
      "midi": 79,
      "hit": false,
      "t": 147169.36000000002,
      "d": 2163.908458333346,
      "v": 50
    },
    {
      "midi": 72,
      "hit": false,
      "t": 147169.36000000002,
      "d": 2190.4413958333316,
      "v": 50
    },
    {
      "midi": 60,
      "hit": false,
      "t": 147172.30810416705,
      "d": 557.1916874999879,
      "v": 94
    },
    {
      "midi": 64,
      "hit": false,
      "t": 147175.2562083337,
      "d": 557.1916874999879,
      "v": 96
    },
    {
      "midi": 67,
      "hit": false,
      "t": 147178.20431250037,
      "d": 554.2435833333293,
      "v": 104
    },
    {
      "midi": 55,
      "hit": false,
      "t": 147178.20431250037,
      "d": 557.1916874999879,
      "v": 86
    },
    {
      "midi": 55,
      "hit": false,
      "t": 147187.0486250004,
      "d": 1901.5271875000326,
      "v": 95
    },
    {
      "midi": 48,
      "hit": false,
      "t": 147195.8929375004,
      "d": 1886.7866666666814,
      "v": 95
    },
    {
      "midi": 52,
      "hit": false,
      "t": 147440.58558333354,
      "d": 126.76847916666884,
      "v": 86
    },
    {
      "midi": 62,
      "hit": false,
      "t": 147456.80015625007,
      "d": 159.1976250000007,
      "v": 84
    },
    {
      "midi": 67,
      "hit": false,
      "t": 147456.80015625007,
      "d": 159.1976250000007,
      "v": 98
    },
    {
      "midi": 62,
      "hit": false,
      "t": 147458.27420833352,
      "d": 271.22558333334746,
      "v": 95
    },
    {
      "midi": 24,
      "hit": false,
      "t": 147729.49979166652,
      "d": 362.61681249999674,
      "v": 110
    },
    {
      "midi": 60,
      "hit": false,
      "t": 147729.49979166704,
      "d": 448.1118333332997,
      "v": 97
    },
    {
      "midi": 64,
      "hit": false,
      "t": 147732.4478958337,
      "d": 442.21562499998254,
      "v": 93
    },
    {
      "midi": 67,
      "hit": false,
      "t": 147732.4478958337,
      "d": 442.21562499998254,
      "v": 101
    },
    {
      "midi": 55,
      "hit": false,
      "t": 147735.39600000036,
      "d": 451.0599374999874,
      "v": 90
    },
    {
      "midi": 62,
      "hit": false,
      "t": 147739.81815625008,
      "d": 179.83435416666907,
      "v": 90
    },
    {
      "midi": 67,
      "hit": false,
      "t": 147739.81815625008,
      "d": 179.83435416666907,
      "v": 99
    },
    {
      "midi": 55,
      "hit": false,
      "t": 147741.29220833353,
      "d": 1229.3594375000102,
      "v": 107
    },
    {
      "midi": 62,
      "hit": false,
      "t": 147741.29220833353,
      "d": 1258.8404791666835,
      "v": 60
    },
    {
      "midi": 60,
      "hit": false,
      "t": 147741.29220833353,
      "d": 153.3014166666544,
      "v": 98
    },
    {
      "midi": 62,
      "hit": false,
      "t": 148022.8361562501,
      "d": 725.2336249999935,
      "v": 95
    },
    {
      "midi": 67,
      "hit": false,
      "t": 148022.8361562501,
      "d": 725.2336249999935,
      "v": 99
    },
    {
      "midi": 62,
      "hit": false,
      "t": 148024.3102083335,
      "d": 790.0919166666572,
      "v": 95
    },
    {
      "midi": 67,
      "hit": false,
      "t": 148174.66352083368,
      "d": 330.1876666666649,
      "v": 104
    },
    {
      "midi": 64,
      "hit": false,
      "t": 148174.66352083368,
      "d": 350.82439583333326,
      "v": 94
    },
    {
      "midi": 24,
      "hit": false,
      "t": 148177.61162499984,
      "d": 47.16966666665394,
      "v": 110
    },
    {
      "midi": 60,
      "hit": false,
      "t": 148177.61162500034,
      "d": 347.87629166667466,
      "v": 94
    },
    {
      "midi": 55,
      "hit": false,
      "t": 148286.691479167,
      "d": 760.610875000013,
      "v": 89
    },
    {
      "midi": 24,
      "hit": false,
      "t": 148301.43199999983,
      "d": 53.06587500000023,
      "v": 110
    },
    {
      "midi": 24,
      "hit": false,
      "t": 148578.5537916665,
      "d": 374.4092291666602,
      "v": 110
    },
    {
      "midi": 64,
      "hit": false,
      "t": 148587.39810416702,
      "d": 551.2954791666707,
      "v": 100
    },
    {
      "midi": 67,
      "hit": false,
      "t": 148587.39810416702,
      "d": 554.2435833333293,
      "v": 102
    },
    {
      "midi": 60,
      "hit": false,
      "t": 148590.34620833368,
      "d": 551.2954791666707,
      "v": 96
    },
    {
      "midi": 67,
      "hit": false,
      "t": 148871.8901562501,
      "d": 262.38127083334257,
      "v": 97
    },
    {
      "midi": 62,
      "hit": false,
      "t": 148871.8901562501,
      "d": 651.531020833354,
      "v": 90
    },
    {
      "midi": 60,
      "hit": false,
      "t": 148873.3642083335,
      "d": 150.3533124999958,
      "v": 98
    },
    {
      "midi": 55,
      "hit": false,
      "t": 149135.7454791669,
      "d": 515.9182291666511,
      "v": 104
    },
    {
      "midi": 64,
      "hit": false,
      "t": 149138.6935833337,
      "d": 250.58885416664998,
      "v": 90
    },
    {
      "midi": 55,
      "hit": false,
      "t": 149138.6935833337,
      "d": 253.53695833330858,
      "v": 94
    },
    {
      "midi": 60,
      "hit": false,
      "t": 149141.64168750035,
      "d": 232.9002291666693,
      "v": 94
    },
    {
      "midi": 67,
      "hit": false,
      "t": 149141.64168750035,
      "d": 244.6926458333328,
      "v": 98
    },
    {
      "midi": 62,
      "hit": false,
      "t": 149147.53789583355,
      "d": 993.5111041666532,
      "v": 60
    },
    {
      "midi": 62,
      "hit": false,
      "t": 149147.53789583378,
      "d": 265.32937500000116,
      "v": 86
    },
    {
      "midi": 67,
      "hit": false,
      "t": 149150.48600000044,
      "d": 262.38127083334257,
      "v": 86
    },
    {
      "midi": 24,
      "hit": false,
      "t": 149153.4341041665,
      "d": 88.44312499999069,
      "v": 110
    },
    {
      "midi": 66,
      "hit": false,
      "t": 149154.9081562501,
      "d": 368.51302083334303,
      "v": 98
    },
    {
      "midi": 57,
      "hit": false,
      "t": 149156.3822083335,
      "d": 268.27747916665976,
      "v": 91
    },
    {
      "midi": 48,
      "hit": false,
      "t": 149156.3822083338,
      "d": 253.53695833333768,
      "v": 95
    },
    {
      "midi": 55,
      "hit": false,
      "t": 149159.33031250045,
      "d": 241.7445416666742,
      "v": 95
    },
    {
      "midi": 67,
      "hit": false,
      "t": 149430.5558958338,
      "d": 2449.8745625000156,
      "v": 86
    },
    {
      "midi": 62,
      "hit": false,
      "t": 149430.5558958338,
      "d": 2458.7188750000205,
      "v": 86
    },
    {
      "midi": 26,
      "hit": false,
      "t": 149433.5039999998,
      "d": 383.2535416666651,
      "v": 110
    },
    {
      "midi": 79,
      "hit": false,
      "t": 149433.50400000002,
      "d": 1096.694749999995,
      "v": 50
    },
    {
      "midi": 74,
      "hit": false,
      "t": 149433.50400000002,
      "d": 4398.571416666644,
      "v": 50
    },
    {
      "midi": 81,
      "hit": false,
      "t": 149433.50400000002,
      "d": 4404.46762499999,
      "v": 50
    },
    {
      "midi": 57,
      "hit": false,
      "t": 149433.50400000034,
      "d": 577.8284166666854,
      "v": 94
    },
    {
      "midi": 62,
      "hit": false,
      "t": 149439.40020833368,
      "d": 571.9322083333391,
      "v": 104
    },
    {
      "midi": 67,
      "hit": false,
      "t": 149442.34831250034,
      "d": 563.0878958333342,
      "v": 98
    },
    {
      "midi": 69,
      "hit": false,
      "t": 149445.296416667,
      "d": 560.1397916666756,
      "v": 94
    },
    {
      "midi": 50,
      "hit": false,
      "t": 149454.14072916712,
      "d": 4030.058395833359,
      "v": 95
    },
    {
      "midi": 57,
      "hit": false,
      "t": 149460.03693750047,
      "d": 3988.7849375000224,
      "v": 95
    },
    {
      "midi": 57,
      "hit": false,
      "t": 149704.72958333354,
      "d": 141.50899999999092,
      "v": 99
    },
    {
      "midi": 57,
      "hit": false,
      "t": 149996.59189583352,
      "d": 156.2495208333421,
      "v": 101
    },
    {
      "midi": 26,
      "hit": false,
      "t": 150002.48810416646,
      "d": 339.03197916666977,
      "v": 110
    },
    {
      "midi": 67,
      "hit": false,
      "t": 150005.43620833367,
      "d": 445.16372916667024,
      "v": 90
    },
    {
      "midi": 69,
      "hit": false,
      "t": 150005.43620833367,
      "d": 445.16372916667024,
      "v": 100
    },
    {
      "midi": 62,
      "hit": false,
      "t": 150011.33241666702,
      "d": 439.26752083332394,
      "v": 100
    },
    {
      "midi": 57,
      "hit": false,
      "t": 150011.33241666702,
      "d": 442.21562499998254,
      "v": 87
    },
    {
      "midi": 62,
      "hit": false,
      "t": 150267.81747916687,
      "d": 194.57487500002026,
      "v": 60
    },
    {
      "midi": 55,
      "hit": false,
      "t": 150285.50610416688,
      "d": 135.61279166667373,
      "v": 106
    },
    {
      "midi": 26,
      "hit": false,
      "t": 150444.70372916647,
      "d": 44.22156249999534,
      "v": 110
    },
    {
      "midi": 67,
      "hit": false,
      "t": 150450.59993750034,
      "d": 159.1976249999716,
      "v": 94
    },
    {
      "midi": 69,
      "hit": false,
      "t": 150450.59993750034,
      "d": 347.87629166661645,
      "v": 98
    },
    {
      "midi": 62,
      "hit": false,
      "t": 150450.59993750034,
      "d": 365.56491666662623,
      "v": 102
    },
    {
      "midi": 57,
      "hit": false,
      "t": 150453.548041667,
      "d": 341.98008333329926,
      "v": 97
    },
    {
      "midi": 78,
      "hit": false,
      "t": 150565.576,
      "d": 1105.5390625,
      "v": 45
    },
    {
      "midi": 26,
      "hit": false,
      "t": 150568.52410416646,
      "d": 56.01397916665883,
      "v": 110
    },
    {
      "midi": 62,
      "hit": false,
      "t": 150574.42031250024,
      "d": 238.7964374999865,
      "v": 60
    },
    {
      "midi": 57,
      "hit": false,
      "t": 150577.3684166669,
      "d": 173.93814583332278,
      "v": 95
    },
    {
      "midi": 66,
      "hit": false,
      "t": 150586.212729167,
      "d": 241.7445416666451,
      "v": 98
    },
    {
      "midi": 26,
      "hit": false,
      "t": 150851.54210416644,
      "d": 386.2016458333237,
      "v": 110
    },
    {
      "midi": 62,
      "hit": false,
      "t": 150869.23072916697,
      "d": 542.4511666666658,
      "v": 106
    },
    {
      "midi": 69,
      "hit": false,
      "t": 150869.23072916697,
      "d": 542.4511666666658,
      "v": 90
    },
    {
      "midi": 66,
      "hit": false,
      "t": 150869.23072916697,
      "d": 545.3992708333244,
      "v": 111
    },
    {
      "midi": 57,
      "hit": false,
      "t": 150869.23072916697,
      "d": 554.2435833333293,
      "v": 86
    },
    {
      "midi": 55,
      "hit": false,
      "t": 151388.0970625002,
      "d": 551.2954791666707,
      "v": 104
    },
    {
      "midi": 62,
      "hit": false,
      "t": 151411.68189583364,
      "d": 265.32937499997206,
      "v": 98
    },
    {
      "midi": 69,
      "hit": false,
      "t": 151411.68189583364,
      "d": 268.27747916663066,
      "v": 90
    },
    {
      "midi": 66,
      "hit": false,
      "t": 151414.6300000003,
      "d": 247.64074999999139,
      "v": 105
    },
    {
      "midi": 26,
      "hit": false,
      "t": 151417.57810416643,
      "d": 61.91018750000512,
      "v": 110
    },
    {
      "midi": 62,
      "hit": false,
      "t": 151417.57810416687,
      "d": 1276.5291041666933,
      "v": 60
    },
    {
      "midi": 57,
      "hit": false,
      "t": 151423.4743125003,
      "d": 227.004020833323,
      "v": 84
    },
    {
      "midi": 26,
      "hit": false,
      "t": 151697.64799999978,
      "d": 353.77249999999185,
      "v": 110
    },
    {
      "midi": 79,
      "hit": false,
      "t": 151697.648,
      "d": 1090.798541666678,
      "v": 50
    },
    {
      "midi": 69,
      "hit": false,
      "t": 151697.64800000028,
      "d": 563.0878958333342,
      "v": 86
    },
    {
      "midi": 67,
      "hit": false,
      "t": 151703.54420833362,
      "d": 557.1916874999879,
      "v": 100
    },
    {
      "midi": 57,
      "hit": false,
      "t": 151703.54420833362,
      "d": 566.0359999999928,
      "v": 83
    },
    {
      "midi": 62,
      "hit": false,
      "t": 151706.49231250028,
      "d": 557.1916874999879,
      "v": 102
    },
    {
      "midi": 62,
      "hit": false,
      "t": 151974.76979166715,
      "d": 486.437187500007,
      "v": 86
    },
    {
      "midi": 57,
      "hit": false,
      "t": 151977.71789583354,
      "d": 138.56089583333232,
      "v": 99
    },
    {
      "midi": 67,
      "hit": false,
      "t": 151983.61410416715,
      "d": 566.0359999999928,
      "v": 86
    },
    {
      "midi": 69,
      "hit": false,
      "t": 152260.7358958336,
      "d": 392.09785416667,
      "v": 94
    },
    {
      "midi": 67,
      "hit": false,
      "t": 152260.7358958336,
      "d": 395.0459583333286,
      "v": 98
    },
    {
      "midi": 62,
      "hit": false,
      "t": 152263.68400000027,
      "d": 377.3573333333479,
      "v": 103
    },
    {
      "midi": 26,
      "hit": false,
      "t": 152266.63210416643,
      "d": 339.03197916666977,
      "v": 110
    },
    {
      "midi": 57,
      "hit": false,
      "t": 152269.58020833353,
      "d": 135.61279166667373,
      "v": 90
    },
    {
      "midi": 57,
      "hit": false,
      "t": 152269.58020833362,
      "d": 365.56491666665534,
      "v": 85
    },
    {
      "midi": 55,
      "hit": false,
      "t": 152549.65010416688,
      "d": 135.61279166667373,
      "v": 102
    },
    {
      "midi": 69,
      "hit": false,
      "t": 152697.05531250028,
      "d": 362.61681249996764,
      "v": 96
    },
    {
      "midi": 67,
      "hit": false,
      "t": 152700.00341666694,
      "d": 135.61279166664463,
      "v": 90
    },
    {
      "midi": 62,
      "hit": false,
      "t": 152700.00341666694,
      "d": 368.51302083331393,
      "v": 102
    },
    {
      "midi": 57,
      "hit": false,
      "t": 152702.9515208336,
      "d": 324.2914583333186,
      "v": 87
    },
    {
      "midi": 26,
      "hit": false,
      "t": 152705.89962499976,
      "d": 35.377249999990454,
      "v": 110
    },
    {
      "midi": 26,
      "hit": false,
      "t": 152823.82379166642,
      "d": 64.85829166666372,
      "v": 110
    },
    {
      "midi": 62,
      "hit": false,
      "t": 152823.82379166715,
      "d": 247.6407500000205,
      "v": 86
    },
    {
      "midi": 78,
      "hit": false,
      "t": 152829.72,
      "d": 1002.3554166666581,
      "v": 45
    },
    {
      "midi": 67,
      "hit": false,
      "t": 152829.7200000005,
      "d": 250.58885416667908,
      "v": 86
    },
    {
      "midi": 66,
      "hit": false,
      "t": 152835.61620833358,
      "d": 221.10781250000582,
      "v": 93
    },
    {
      "midi": 57,
      "hit": false,
      "t": 152838.56431250024,
      "d": 203.41918749999604,
      "v": 104
    },
    {
      "midi": 62,
      "hit": false,
      "t": 152841.5124166669,
      "d": 144.45710416667862,
      "v": 60
    },
    {
      "midi": 62,
      "hit": false,
      "t": 153106.84179166716,
      "d": 274.17368750000605,
      "v": 86
    },
    {
      "midi": 26,
      "hit": false,
      "t": 153109.7898958331,
      "d": 400.9421666666749,
      "v": 110
    },
    {
      "midi": 67,
      "hit": false,
      "t": 153109.78989583382,
      "d": 271.22558333334746,
      "v": 86
    },
    {
      "midi": 55,
      "hit": false,
      "t": 153115.6861041669,
      "d": 138.56089583333232,
      "v": 101
    },
    {
      "midi": 67,
      "hit": false,
      "t": 153118.6342083335,
      "d": 94.33933333333698,
      "v": 98
    },
    {
      "midi": 69,
      "hit": false,
      "t": 153127.4785208336,
      "d": 542.4511666666367,
      "v": 96
    },
    {
      "midi": 62,
      "hit": false,
      "t": 153130.42662500025,
      "d": 545.3992708333244,
      "v": 104
    },
    {
      "midi": 66,
      "hit": false,
      "t": 153133.3747291669,
      "d": 542.4511666666658,
      "v": 105
    },
    {
      "midi": 57,
      "hit": false,
      "t": 153136.32283333357,
      "d": 551.2954791666707,
      "v": 94
    },
    {
      "midi": 62,
      "hit": false,
      "t": 153136.32283333357,
      "d": 229.9521250000107,
      "v": 71
    },
    {
      "midi": 50,
      "hit": false,
      "t": 153381.0154791669,
      "d": 73.7026041666395,
      "v": 77
    },
    {
      "midi": 66,
      "hit": false,
      "t": 153398.70410416686,
      "d": 294.8104166666453,
      "v": 108
    },
    {
      "midi": 52,
      "hit": false,
      "t": 153407.5484166669,
      "d": 173.93814583332278,
      "v": 83
    },
    {
      "midi": 43,
      "hit": false,
      "t": 153655.18916666714,
      "d": 218.15970833334723,
      "v": 95
    },
    {
      "midi": 50,
      "hit": false,
      "t": 153661.0853750005,
      "d": 215.21160416665953,
      "v": 95
    },
    {
      "midi": 69,
      "hit": false,
      "t": 153669.92968750023,
      "d": 274.17368750000605,
      "v": 98
    },
    {
      "midi": 67,
      "hit": false,
      "t": 153672.87779166683,
      "d": 114.97606250000536,
      "v": 78
    },
    {
      "midi": 67,
      "hit": false,
      "t": 153672.87779166715,
      "d": 262.38127083334257,
      "v": 86
    },
    {
      "midi": 26,
      "hit": false,
      "t": 153675.8258958331,
      "d": 53.06587500002934,
      "v": 110
    },
    {
      "midi": 62,
      "hit": false,
      "t": 153675.82589583358,
      "d": 271.22558333331835,
      "v": 98
    },
    {
      "midi": 66,
      "hit": false,
      "t": 153675.82589583358,
      "d": 271.22558333331835,
      "v": 103
    },
    {
      "midi": 62,
      "hit": false,
      "t": 153678.7740000005,
      "d": 259.43316666665487,
      "v": 86
    },
    {
      "midi": 62,
      "hit": false,
      "t": 153684.67020833355,
      "d": 787.1438125000277,
      "v": 72
    },
    {
      "midi": 57,
      "hit": false,
      "t": 153687.61831250024,
      "d": 256.4850624999963,
      "v": 89
    },
    {
      "midi": 55,
      "hit": false,
      "t": 153696.46262500022,
      "d": 719.3374166667054,
      "v": 100
    },
    {
      "midi": 62,
      "hit": false,
      "t": 153955.89579166716,
      "d": 1877.9423541667056,
      "v": 86
    },
    {
      "midi": 67,
      "hit": false,
      "t": 153955.89579166716,
      "d": 1889.734770833369,
      "v": 86
    },
    {
      "midi": 31,
      "hit": false,
      "t": 153961.79199999978,
      "d": 430.42320833331905,
      "v": 110
    },
    {
      "midi": 74,
      "hit": false,
      "t": 153961.79200000002,
      "d": 2178.648979166668,
      "v": 50
    },
    {
      "midi": 79,
      "hit": false,
      "t": 153961.79200000002,
      "d": 2178.648979166668,
      "v": 50
    },
    {
      "midi": 71,
      "hit": false,
      "t": 153961.79200000002,
      "d": 2237.6110625000147,
      "v": 50
    },
    {
      "midi": 55,
      "hit": false,
      "t": 153961.79200000022,
      "d": 548.3473750000121,
      "v": 89
    },
    {
      "midi": 50,
      "hit": false,
      "t": 153961.79200000022,
      "d": 321.3433541666891,
      "v": 78
    },
    {
      "midi": 43,
      "hit": false,
      "t": 153961.7920000005,
      "d": 1874.994250000018,
      "v": 95
    },
    {
      "midi": 62,
      "hit": false,
      "t": 153964.74010416688,
      "d": 548.3473750000121,
      "v": 96
    },
    {
      "midi": 59,
      "hit": false,
      "t": 153964.74010416688,
      "d": 554.2435833333584,
      "v": 94
    },
    {
      "midi": 71,
      "hit": false,
      "t": 153967.6882083335,
      "d": 227.004020833323,
      "v": 98
    },
    {
      "midi": 50,
      "hit": false,
      "t": 153967.68820833386,
      "d": 1874.994250000018,
      "v": 95
    },
    {
      "midi": 67,
      "hit": false,
      "t": 153970.63631250022,
      "d": 542.4511666666658,
      "v": 102
    },
    {
      "midi": 67,
      "hit": false,
      "t": 154247.75810416683,
      "d": 185.73056249998626,
      "v": 104
    },
    {
      "midi": 52,
      "hit": false,
      "t": 154265.4467291669,
      "d": 91.39122916667839,
      "v": 82
    },
    {
      "midi": 31,
      "hit": false,
      "t": 154527.82799999978,
      "d": 350.82439583333326,
      "v": 110
    },
    {
      "midi": 62,
      "hit": false,
      "t": 154527.82800000024,
      "d": 2149.167937499995,
      "v": 60
    },
    {
      "midi": 55,
      "hit": false,
      "t": 154545.51662500022,
      "d": 483.4890833333193,
      "v": 89
    },
    {
      "midi": 62,
      "hit": false,
      "t": 154548.46472916688,
      "d": 418.63079166665557,
      "v": 97
    },
    {
      "midi": 59,
      "hit": false,
      "t": 154551.41283333354,
      "d": 400.9421666666749,
      "v": 95
    },
    {
      "midi": 67,
      "hit": false,
      "t": 154551.41283333354,
      "d": 415.682687499997,
      "v": 102
    },
    {
      "midi": 55,
      "hit": false,
      "t": 154551.41283333357,
      "d": 1506.481229166675,
      "v": 98
    },
    {
      "midi": 67,
      "hit": false,
      "t": 154813.79410416682,
      "d": 327.2395625000063,
      "v": 104
    },
    {
      "midi": 31,
      "hit": false,
      "t": 154967.0955208331,
      "d": 32.42914583333186,
      "v": 110
    },
    {
      "midi": 67,
      "hit": false,
      "t": 154967.09552083354,
      "d": 395.0459583333577,
      "v": 94
    },
    {
      "midi": 62,
      "hit": false,
      "t": 154967.09552083354,
      "d": 403.8902708333626,
      "v": 102
    },
    {
      "midi": 59,
      "hit": false,
      "t": 154970.0436250002,
      "d": 389.1497500000405,
      "v": 94
    },
    {
      "midi": 55,
      "hit": false,
      "t": 155087.9677916669,
      "d": 778.2995000000228,
      "v": 95
    },
    {
      "midi": 31,
      "hit": false,
      "t": 155090.9158958331,
      "d": 82.5469166666735,
      "v": 110
    },
    {
      "midi": 62,
      "hit": false,
      "t": 155376.88200000025,
      "d": 568.9841041666514,
      "v": 96
    },
    {
      "midi": 67,
      "hit": false,
      "t": 155376.88200000025,
      "d": 577.8284166666563,
      "v": 102
    },
    {
      "midi": 31,
      "hit": false,
      "t": 155379.83010416644,
      "d": 403.8902708333335,
      "v": 110
    },
    {
      "midi": 69,
      "hit": false,
      "t": 155382.7782083335,
      "d": 751.7665625000664,
      "v": 95
    },
    {
      "midi": 59,
      "hit": false,
      "t": 155382.7782083336,
      "d": 568.9841041666514,
      "v": 88
    },
    {
      "midi": 43,
      "hit": false,
      "t": 155922.28127083386,
      "d": 327.2395624999772,
      "v": 95
    },
    {
      "midi": 55,
      "hit": false,
      "t": 155931.12558333357,
      "d": 250.58885416664998,
      "v": 95
    },
    {
      "midi": 67,
      "hit": false,
      "t": 155937.02179166718,
      "d": 250.58885416664998,
      "v": 86
    },
    {
      "midi": 31,
      "hit": false,
      "t": 155939.9698958331,
      "d": 117.92416666666395,
      "v": 110
    },
    {
      "midi": 50,
      "hit": false,
      "t": 155939.96989583384,
      "d": 277.12179166663554,
      "v": 95
    },
    {
      "midi": 62,
      "hit": false,
      "t": 155942.9180000005,
      "d": 259.43316666665487,
      "v": 86
    },
    {
      "midi": 62,
      "hit": false,
      "t": 155945.8661041669,
      "d": 238.7964374999865,
      "v": 93
    },
    {
      "midi": 59,
      "hit": false,
      "t": 155951.76231250024,
      "d": 235.8483333332988,
      "v": 101
    },
    {
      "midi": 67,
      "hit": false,
      "t": 155954.7104166669,
      "d": 244.6926458333037,
      "v": 104
    },
    {
      "midi": 48,
      "hit": false,
      "t": 156105.0637291669,
      "d": 126.76847916666884,
      "v": 67
    },
    {
      "midi": 50,
      "hit": false,
      "t": 156181.71443750025,
      "d": 327.2395624999772,
      "v": 79
    },
    {
      "midi": 24,
      "hit": false,
      "t": 156220.03979166644,
      "d": 412.7345833333384,
      "v": 110
    },
    {
      "midi": 76,
      "hit": false,
      "t": 156225.93600000002,
      "d": 2163.908458333346,
      "v": 50
    },
    {
      "midi": 79,
      "hit": false,
      "t": 156225.93600000002,
      "d": 2163.908458333346,
      "v": 50
    },
    {
      "midi": 72,
      "hit": false,
      "t": 156225.93600000002,
      "d": 2190.4413958333316,
      "v": 50
    },
    {
      "midi": 67,
      "hit": false,
      "t": 156225.93600000048,
      "d": 1798.3435416666907,
      "v": 86
    },
    {
      "midi": 62,
      "hit": false,
      "t": 156225.93600000048,
      "d": 1833.7207916666812,
      "v": 86
    },
    {
      "midi": 60,
      "hit": false,
      "t": 156228.88410416688,
      "d": 557.1916874999879,
      "v": 94
    },
    {
      "midi": 60,
      "hit": false,
      "t": 156230.35815625012,
      "d": 241.7445416666742,
      "v": 93
    },
    {
      "midi": 64,
      "hit": false,
      "t": 156230.35815625012,
      "d": 259.433166666684,
      "v": 96
    },
    {
      "midi": 64,
      "hit": false,
      "t": 156231.83220833354,
      "d": 557.1916874999879,
      "v": 96
    },
    {
      "midi": 69,
      "hit": false,
      "t": 156231.83220833357,
      "d": 265.32937500000116,
      "v": 92
    },
    {
      "midi": 67,
      "hit": false,
      "t": 156234.7803125002,
      "d": 554.2435833333293,
      "v": 104
    },
    {
      "midi": 55,
      "hit": false,
      "t": 156234.7803125002,
      "d": 557.1916874999879,
      "v": 86
    },
    {
      "midi": 55,
      "hit": false,
      "t": 156243.6246250005,
      "d": 1901.5271875000035,
      "v": 95
    },
    {
      "midi": 48,
      "hit": false,
      "t": 156252.4689375005,
      "d": 1886.7866666666523,
      "v": 95
    },
    {
      "midi": 52,
      "hit": false,
      "t": 156508.95400000023,
      "d": 103.18364583334187,
      "v": 80
    },
    {
      "midi": 62,
      "hit": false,
      "t": 156513.37615625013,
      "d": 262.38127083334257,
      "v": 97
    },
    {
      "midi": 60,
      "hit": false,
      "t": 156513.37615625013,
      "d": 288.91420833332813,
      "v": 95
    },
    {
      "midi": 67,
      "hit": false,
      "t": 156514.85020833358,
      "d": 265.32937500000116,
      "v": 95
    },
    {
      "midi": 55,
      "hit": false,
      "t": 156780.17958333358,
      "d": 1273.5810000000056,
      "v": 98
    },
    {
      "midi": 60,
      "hit": false,
      "t": 156786.07579166687,
      "d": 448.1118333332997,
      "v": 97
    },
    {
      "midi": 24,
      "hit": false,
      "t": 156789.02389583312,
      "d": 318.3952500000014,
      "v": 110
    },
    {
      "midi": 64,
      "hit": false,
      "t": 156789.02389583352,
      "d": 442.21562499998254,
      "v": 93
    },
    {
      "midi": 67,
      "hit": false,
      "t": 156789.02389583352,
      "d": 442.21562499998254,
      "v": 101
    },
    {
      "midi": 55,
      "hit": false,
      "t": 156791.97200000018,
      "d": 451.0599374999874,
      "v": 90
    },
    {
      "midi": 62,
      "hit": false,
      "t": 156812.6087291669,
      "d": 1241.1518541666737,
      "v": 60
    },
    {
      "midi": 64,
      "hit": false,
      "t": 157079.41215625012,
      "d": 285.96610416666954,
      "v": 97
    },
    {
      "midi": 60,
      "hit": false,
      "t": 157079.41215625012,
      "d": 315.4471458333428,
      "v": 94
    },
    {
      "midi": 67,
      "hit": false,
      "t": 157080.88620833357,
      "d": 356.72060416667955,
      "v": 90
    },
    {
      "midi": 67,
      "hit": false,
      "t": 157231.2395208335,
      "d": 330.1876666666649,
      "v": 104
    },
    {
      "midi": 64,
      "hit": false,
      "t": 157231.2395208335,
      "d": 350.82439583333326,
      "v": 94
    },
    {
      "midi": 60,
      "hit": false,
      "t": 157234.18762500017,
      "d": 347.87629166667466,
      "v": 94
    },
    {
      "midi": 24,
      "hit": false,
      "t": 157240.0838333331,
      "d": 32.42914583333186,
      "v": 110
    },
    {
      "midi": 55,
      "hit": false,
      "t": 157343.26747916683,
      "d": 760.610875000013,
      "v": 89
    },
    {
      "midi": 24,
      "hit": false,
      "t": 157352.11179166642,
      "d": 53.06587500000023,
      "v": 110
    },
    {
      "midi": 24,
      "hit": false,
      "t": 157643.9741041664,
      "d": 362.61681249999674,
      "v": 110
    },
    {
      "midi": 64,
      "hit": false,
      "t": 157643.97410416685,
      "d": 551.2954791666707,
      "v": 100
    },
    {
      "midi": 67,
      "hit": false,
      "t": 157643.97410416685,
      "d": 554.2435833333293,
      "v": 102
    },
    {
      "midi": 62,
      "hit": false,
      "t": 157643.9741041669,
      "d": 265.32937500000116,
      "v": 104
    },
    {
      "midi": 60,
      "hit": false,
      "t": 157645.44815625015,
      "d": 359.66870833333815,
      "v": 97
    },
    {
      "midi": 67,
      "hit": false,
      "t": 157645.44815625015,
      "d": 362.61681249999674,
      "v": 99
    },
    {
      "midi": 60,
      "hit": false,
      "t": 157646.9222083335,
      "d": 551.2954791666707,
      "v": 96
    },
    {
      "midi": 62,
      "hit": false,
      "t": 158192.32147916692,
      "d": 1022.9921458333265,
      "v": 60
    },
    {
      "midi": 64,
      "hit": false,
      "t": 158195.26958333352,
      "d": 250.58885416664998,
      "v": 90
    },
    {
      "midi": 55,
      "hit": false,
      "t": 158195.26958333352,
      "d": 253.53695833330858,
      "v": 94
    },
    {
      "midi": 60,
      "hit": false,
      "t": 158198.21768750018,
      "d": 232.9002291666693,
      "v": 94
    },
    {
      "midi": 67,
      "hit": false,
      "t": 158198.21768750018,
      "d": 244.6926458333328,
      "v": 98
    },
    {
      "midi": 62,
      "hit": false,
      "t": 158201.16579166715,
      "d": 265.32937500000116,
      "v": 86
    },
    {
      "midi": 67,
      "hit": false,
      "t": 158204.1138958338,
      "d": 262.38127083334257,
      "v": 86
    },
    {
      "midi": 24,
      "hit": false,
      "t": 158207.06199999974,
      "d": 73.7026041666686,
      "v": 110
    },
    {
      "midi": 55,
      "hit": false,
      "t": 158207.06200000024,
      "d": 492.3333958333242,
      "v": 97
    },
    {
      "midi": 62,
      "hit": false,
      "t": 158210.0101041669,
      "d": 327.2395625000063,
      "v": 101
    },
    {
      "midi": 57,
      "hit": false,
      "t": 158211.48415625014,
      "d": 347.87629166667466,
      "v": 85
    },
    {
      "midi": 66,
      "hit": false,
      "t": 158211.48415625014,
      "d": 350.82439583333326,
      "v": 94
    },
    {
      "midi": 48,
      "hit": false,
      "t": 158212.95820833382,
      "d": 253.53695833333768,
      "v": 95
    },
    {
      "midi": 55,
      "hit": false,
      "t": 158215.90631250048,
      "d": 241.7445416666742,
      "v": 95
    },
    {
      "midi": 67,
      "hit": false,
      "t": 158487.13189583382,
      "d": 2449.8745625000447,
      "v": 86
    },
    {
      "midi": 79,
      "hit": false,
      "t": 158490.08000000002,
      "d": 1096.694749999995,
      "v": 50
    },
    {
      "midi": 74,
      "hit": false,
      "t": 158490.08000000002,
      "d": 4398.571416666644,
      "v": 50
    },
    {
      "midi": 81,
      "hit": false,
      "t": 158490.08000000002,
      "d": 4404.46762499999,
      "v": 50
    },
    {
      "midi": 57,
      "hit": false,
      "t": 158490.08000000016,
      "d": 577.8284166666854,
      "v": 94
    },
    {
      "midi": 26,
      "hit": false,
      "t": 158493.0281041664,
      "d": 412.7345833333384,
      "v": 110
    },
    {
      "midi": 62,
      "hit": false,
      "t": 158493.02810416717,
      "d": 2458.7188750000205,
      "v": 86
    },
    {
      "midi": 62,
      "hit": false,
      "t": 158495.9762083335,
      "d": 571.9322083333391,
      "v": 104
    },
    {
      "midi": 67,
      "hit": false,
      "t": 158498.92431250017,
      "d": 563.0878958333342,
      "v": 98
    },
    {
      "midi": 69,
      "hit": false,
      "t": 158501.87241666683,
      "d": 560.1397916666756,
      "v": 94
    },
    {
      "midi": 50,
      "hit": false,
      "t": 158510.71672916718,
      "d": 4030.05839583333,
      "v": 95
    },
    {
      "midi": 57,
      "hit": false,
      "t": 158516.61293750053,
      "d": 3988.7849374999932,
      "v": 95
    },
    {
      "midi": 57,
      "hit": false,
      "t": 158758.3574791669,
      "d": 138.56089583333232,
      "v": 95
    },
    {
      "midi": 26,
      "hit": false,
      "t": 159059.0641041664,
      "d": 350.82439583333326,
      "v": 110
    },
    {
      "midi": 57,
      "hit": false,
      "t": 159059.0641041669,
      "d": 156.2495208333421,
      "v": 95
    },
    {
      "midi": 67,
      "hit": false,
      "t": 159062.0122083335,
      "d": 445.16372916667024,
      "v": 90
    },
    {
      "midi": 69,
      "hit": false,
      "t": 159062.0122083335,
      "d": 445.16372916667024,
      "v": 100
    },
    {
      "midi": 62,
      "hit": false,
      "t": 159067.90841666685,
      "d": 439.26752083332394,
      "v": 100
    },
    {
      "midi": 57,
      "hit": false,
      "t": 159067.90841666685,
      "d": 442.21562499998254,
      "v": 87
    },
    {
      "midi": 62,
      "hit": false,
      "t": 159321.44537500024,
      "d": 200.47108333333745,
      "v": 60
    },
    {
      "midi": 55,
      "hit": false,
      "t": 159336.18589583357,
      "d": 144.45710416667862,
      "v": 99
    },
    {
      "midi": 26,
      "hit": false,
      "t": 159498.33162499973,
      "d": 32.42914583333186,
      "v": 110
    },
    {
      "midi": 67,
      "hit": false,
      "t": 159507.17593750017,
      "d": 159.1976249999716,
      "v": 94
    },
    {
      "midi": 69,
      "hit": false,
      "t": 159507.17593750017,
      "d": 347.87629166661645,
      "v": 98
    },
    {
      "midi": 62,
      "hit": false,
      "t": 159507.17593750017,
      "d": 365.56491666662623,
      "v": 102
    },
    {
      "midi": 57,
      "hit": false,
      "t": 159510.12404166683,
      "d": 341.98008333329926,
      "v": 97
    },
    {
      "midi": 26,
      "hit": false,
      "t": 159619.20389583305,
      "d": 76.6507083333272,
      "v": 110
    },
    {
      "midi": 62,
      "hit": false,
      "t": 159619.20389583358,
      "d": 244.6926458333328,
      "v": 60
    },
    {
      "midi": 78,
      "hit": false,
      "t": 159622.152,
      "d": 1105.5390625,
      "v": 45
    },
    {
      "midi": 57,
      "hit": false,
      "t": 159628.04820833358,
      "d": 247.64074999999139,
      "v": 99
    },
    {
      "midi": 66,
      "hit": false,
      "t": 159642.78872916682,
      "d": 241.7445416666451,
      "v": 98
    },
    {
      "midi": 26,
      "hit": false,
      "t": 159905.16999999972,
      "d": 409.7864791666798,
      "v": 110
    },
    {
      "midi": 62,
      "hit": false,
      "t": 159925.8067291668,
      "d": 542.4511666666658,
      "v": 106
    },
    {
      "midi": 69,
      "hit": false,
      "t": 159925.8067291668,
      "d": 542.4511666666658,
      "v": 90
    },
    {
      "midi": 66,
      "hit": false,
      "t": 159925.8067291668,
      "d": 545.3992708333244,
      "v": 111
    },
    {
      "midi": 57,
      "hit": false,
      "t": 159925.8067291668,
      "d": 554.2435833333293,
      "v": 86
    },
    {
      "midi": 62,
      "hit": false,
      "t": 160456.46547916692,
      "d": 1329.5949791666935,
      "v": 60
    },
    {
      "midi": 62,
      "hit": false,
      "t": 160468.25789583346,
      "d": 265.32937499997206,
      "v": 98
    },
    {
      "midi": 69,
      "hit": false,
      "t": 160468.25789583346,
      "d": 268.27747916663066,
      "v": 90
    },
    {
      "midi": 55,
      "hit": false,
      "t": 160468.25789583358,
      "d": 518.8663333333388,
      "v": 108
    },
    {
      "midi": 26,
      "hit": false,
      "t": 160471.20599999974,
      "d": 76.6507083333272,
      "v": 110
    },
    {
      "midi": 66,
      "hit": false,
      "t": 160471.20600000012,
      "d": 247.64074999999139,
      "v": 105
    },
    {
      "midi": 57,
      "hit": false,
      "t": 160480.05031250013,
      "d": 227.004020833323,
      "v": 84
    },
    {
      "midi": 26,
      "hit": false,
      "t": 160754.22399999973,
      "d": 412.7345833333384,
      "v": 110
    },
    {
      "midi": 79,
      "hit": false,
      "t": 160754.224,
      "d": 1090.798541666678,
      "v": 50
    },
    {
      "midi": 69,
      "hit": false,
      "t": 160754.2240000001,
      "d": 563.0878958333342,
      "v": 86
    },
    {
      "midi": 67,
      "hit": false,
      "t": 160760.12020833345,
      "d": 557.1916874999879,
      "v": 100
    },
    {
      "midi": 57,
      "hit": false,
      "t": 160760.12020833345,
      "d": 566.0359999999928,
      "v": 83
    },
    {
      "midi": 62,
      "hit": false,
      "t": 160763.0683125001,
      "d": 557.1916874999879,
      "v": 102
    },
    {
      "midi": 57,
      "hit": false,
      "t": 161034.29389583357,
      "d": 138.56089583333232,
      "v": 101
    },
    {
      "midi": 62,
      "hit": false,
      "t": 161034.29389583386,
      "d": 486.437187500007,
      "v": 86
    },
    {
      "midi": 67,
      "hit": false,
      "t": 161040.1901041672,
      "d": 566.0359999999928,
      "v": 86
    },
    {
      "midi": 69,
      "hit": false,
      "t": 161317.31189583344,
      "d": 392.09785416667,
      "v": 94
    },
    {
      "midi": 67,
      "hit": false,
      "t": 161317.31189583344,
      "d": 395.0459583333286,
      "v": 98
    },
    {
      "midi": 57,
      "hit": false,
      "t": 161317.31189583358,
      "d": 147.4052083333372,
      "v": 100
    },
    {
      "midi": 62,
      "hit": false,
      "t": 161320.2600000001,
      "d": 377.3573333333479,
      "v": 103
    },
    {
      "midi": 26,
      "hit": false,
      "t": 161323.2081041664,
      "d": 297.758520833333,
      "v": 110
    },
    {
      "midi": 57,
      "hit": false,
      "t": 161326.15620833344,
      "d": 365.56491666665534,
      "v": 85
    },
    {
      "midi": 55,
      "hit": false,
      "t": 161600.3298958336,
      "d": 147.4052083333372,
      "v": 104
    },
    {
      "midi": 69,
      "hit": false,
      "t": 161753.6313125001,
      "d": 362.61681249996764,
      "v": 96
    },
    {
      "midi": 67,
      "hit": false,
      "t": 161756.57941666676,
      "d": 135.61279166664463,
      "v": 90
    },
    {
      "midi": 62,
      "hit": false,
      "t": 161756.57941666676,
      "d": 368.51302083331393,
      "v": 102
    },
    {
      "midi": 26,
      "hit": false,
      "t": 161759.52752083307,
      "d": 32.42914583333186,
      "v": 110
    },
    {
      "midi": 57,
      "hit": false,
      "t": 161759.52752083342,
      "d": 324.2914583333186,
      "v": 87
    },
    {
      "midi": 62,
      "hit": false,
      "t": 161880.39979166695,
      "d": 173.93814583335188,
      "v": 60
    },
    {
      "midi": 62,
      "hit": false,
      "t": 161880.3997916672,
      "d": 247.64074999999139,
      "v": 86
    },
    {
      "midi": 67,
      "hit": false,
      "t": 161880.3997916672,
      "d": 250.58885416664998,
      "v": 86
    },
    {
      "midi": 26,
      "hit": false,
      "t": 161883.34789583308,
      "d": 85.49502083333209,
      "v": 110
    },
    {
      "midi": 78,
      "hit": false,
      "t": 161886.296,
      "d": 1002.3554166666581,
      "v": 45
    },
    {
      "midi": 66,
      "hit": false,
      "t": 161892.1922083334,
      "d": 221.10781250000582,
      "v": 93
    },
    {
      "midi": 57,
      "hit": false,
      "t": 161898.08841666696,
      "d": 147.4052083333372,
      "v": 98
    },
    {
      "midi": 26,
      "hit": false,
      "t": 162163.4177916664,
      "d": 409.7864791666798,
      "v": 110
    },
    {
      "midi": 67,
      "hit": false,
      "t": 162163.4177916672,
      "d": 271.22558333331835,
      "v": 86
    },
    {
      "midi": 62,
      "hit": false,
      "t": 162166.36589583385,
      "d": 274.17368750000605,
      "v": 86
    },
    {
      "midi": 67,
      "hit": false,
      "t": 162175.21020833356,
      "d": 112.02795833334676,
      "v": 95
    },
    {
      "midi": 62,
      "hit": false,
      "t": 162178.1583125003,
      "d": 262.38127083331347,
      "v": 60
    },
    {
      "midi": 69,
      "hit": false,
      "t": 162184.05452083342,
      "d": 542.4511666666367,
      "v": 96
    },
    {
      "midi": 62,
      "hit": false,
      "t": 162187.00262500008,
      "d": 545.3992708333244,
      "v": 104
    },
    {
      "midi": 66,
      "hit": false,
      "t": 162189.95072916674,
      "d": 542.4511666666658,
      "v": 105
    },
    {
      "midi": 55,
      "hit": false,
      "t": 162189.95072916697,
      "d": 141.50899999999092,
      "v": 104
    },
    {
      "midi": 57,
      "hit": false,
      "t": 162192.8988333334,
      "d": 551.2954791666707,
      "v": 94
    },
    {
      "midi": 50,
      "hit": false,
      "t": 162449.38389583363,
      "d": 82.5469166666735,
      "v": 73
    },
    {
      "midi": 66,
      "hit": false,
      "t": 162455.28010416692,
      "d": 265.32937500000116,
      "v": 104
    },
    {
      "midi": 52,
      "hit": false,
      "t": 162502.44977083363,
      "d": 135.61279166667373,
      "v": 78
    },
    {
      "midi": 43,
      "hit": false,
      "t": 162711.76516666717,
      "d": 218.15970833334723,
      "v": 95
    },
    {
      "midi": 50,
      "hit": false,
      "t": 162717.66137500052,
      "d": 215.21160416665953,
      "v": 95
    },
    {
      "midi": 69,
      "hit": false,
      "t": 162726.50568750006,
      "d": 274.17368750000605,
      "v": 98
    },
    {
      "midi": 62,
      "hit": false,
      "t": 162729.45379166698,
      "d": 2446.9264583332697,
      "v": 60
    },
    {
      "midi": 62,
      "hit": false,
      "t": 162732.4018958334,
      "d": 271.22558333331835,
      "v": 98
    },
    {
      "midi": 66,
      "hit": false,
      "t": 162732.4018958334,
      "d": 271.22558333331835,
      "v": 103
    },
    {
      "midi": 67,
      "hit": false,
      "t": 162732.40189583358,
      "d": 135.61279166667373,
      "v": 84
    },
    {
      "midi": 62,
      "hit": false,
      "t": 162732.40189583384,
      "d": 259.433166666684,
      "v": 86
    },
    {
      "midi": 67,
      "hit": false,
      "t": 162732.40189583384,
      "d": 262.38127083334257,
      "v": 86
    },
    {
      "midi": 26,
      "hit": false,
      "t": 162738.29810416643,
      "d": 38.32535416667815,
      "v": 110
    },
    {
      "midi": 57,
      "hit": false,
      "t": 162744.19431250007,
      "d": 256.4850624999963,
      "v": 89
    },
    {
      "midi": 55,
      "hit": false,
      "t": 162758.93483333365,
      "d": 757.6627708332671,
      "v": 98
    },
    {
      "midi": 26,
      "hit": false,
      "t": 162900.44383333312,
      "d": 17.68862500000978,
      "v": 110
    },
    {
      "midi": 48,
      "hit": false,
      "t": 163012.471791667,
      "d": 94.33933333330788,
      "v": 80
    },
    {
      "midi": 62,
      "hit": false,
      "t": 163012.4717916672,
      "d": 1877.9423541667056,
      "v": 86
    },
    {
      "midi": 67,
      "hit": false,
      "t": 163012.4717916672,
      "d": 1889.734770833369,
      "v": 86
    },
    {
      "midi": 31,
      "hit": false,
      "t": 163018.36799999978,
      "d": 353.77249999999185,
      "v": 110
    },
    {
      "midi": 74,
      "hit": false,
      "t": 163018.36800000002,
      "d": 2178.648979166668,
      "v": 50
    },
    {
      "midi": 79,
      "hit": false,
      "t": 163018.36800000002,
      "d": 2178.648979166668,
      "v": 50
    },
    {
      "midi": 71,
      "hit": false,
      "t": 163018.36800000002,
      "d": 2237.6110625000147,
      "v": 50
    },
    {
      "midi": 55,
      "hit": false,
      "t": 163018.36800000005,
      "d": 548.3473750000121,
      "v": 89
    },
    {
      "midi": 43,
      "hit": false,
      "t": 163018.36800000054,
      "d": 1874.994250000018,
      "v": 95
    },
    {
      "midi": 62,
      "hit": false,
      "t": 163021.3161041667,
      "d": 548.3473750000121,
      "v": 96
    },
    {
      "midi": 59,
      "hit": false,
      "t": 163021.3161041667,
      "d": 554.2435833333584,
      "v": 94
    },
    {
      "midi": 71,
      "hit": false,
      "t": 163021.3161041669,
      "d": 271.22558333334746,
      "v": 101
    },
    {
      "midi": 50,
      "hit": false,
      "t": 163024.2642083339,
      "d": 1874.994250000018,
      "v": 95
    },
    {
      "midi": 67,
      "hit": false,
      "t": 163027.21231250005,
      "d": 542.4511666666658,
      "v": 102
    },
    {
      "midi": 50,
      "hit": false,
      "t": 163080.2781875003,
      "d": 241.7445416666451,
      "v": 75
    },
    {
      "midi": 67,
      "hit": false,
      "t": 163307.28220833358,
      "d": 173.93814583332278,
      "v": 92
    },
    {
      "midi": 52,
      "hit": false,
      "t": 163336.76325000028,
      "d": 100.23554166665417,
      "v": 84
    },
    {
      "midi": 31,
      "hit": false,
      "t": 163581.45589583312,
      "d": 353.77249999999185,
      "v": 110
    },
    {
      "midi": 55,
      "hit": false,
      "t": 163596.1964166669,
      "d": 1527.1179583333433,
      "v": 104
    },
    {
      "midi": 55,
      "hit": false,
      "t": 163602.09262500005,
      "d": 483.4890833333193,
      "v": 89
    },
    {
      "midi": 62,
      "hit": false,
      "t": 163605.0407291667,
      "d": 418.63079166665557,
      "v": 97
    },
    {
      "midi": 59,
      "hit": false,
      "t": 163607.98883333337,
      "d": 400.9421666666749,
      "v": 95
    },
    {
      "midi": 67,
      "hit": false,
      "t": 163607.98883333337,
      "d": 415.682687499997,
      "v": 102
    },
    {
      "midi": 67,
      "hit": false,
      "t": 163873.31820833357,
      "d": 533.6068541666609,
      "v": 92
    },
    {
      "midi": 67,
      "hit": false,
      "t": 164023.67152083336,
      "d": 395.0459583333577,
      "v": 94
    },
    {
      "midi": 62,
      "hit": false,
      "t": 164023.67152083336,
      "d": 403.8902708333626,
      "v": 102
    },
    {
      "midi": 59,
      "hit": false,
      "t": 164026.61962500002,
      "d": 389.1497500000405,
      "v": 94
    },
    {
      "midi": 31,
      "hit": false,
      "t": 164032.5158333331,
      "d": 32.42914583333186,
      "v": 110
    },
    {
      "midi": 55,
      "hit": false,
      "t": 164144.5437916667,
      "d": 778.2995000000228,
      "v": 95
    },
    {
      "midi": 31,
      "hit": false,
      "t": 164150.43999999977,
      "d": 58.96208333334653,
      "v": 110
    },
    {
      "midi": 31,
      "hit": false,
      "t": 164427.56179166646,
      "d": 365.56491666665534,
      "v": 110
    },
    {
      "midi": 62,
      "hit": false,
      "t": 164433.45800000007,
      "d": 568.9841041666514,
      "v": 96
    },
    {
      "midi": 67,
      "hit": false,
      "t": 164433.45800000007,
      "d": 577.8284166666563,
      "v": 102
    },
    {
      "midi": 59,
      "hit": false,
      "t": 164439.35420833342,
      "d": 568.9841041666514,
      "v": 88
    },
    {
      "midi": 59,
      "hit": false,
      "t": 164722.37220833357,
      "d": 268.27747916665976,
      "v": 92
    },
    {
      "midi": 43,
      "hit": false,
      "t": 164978.8572708339,
      "d": 327.2395625000354,
      "v": 95
    },
    {
      "midi": 55,
      "hit": false,
      "t": 164987.7015833334,
      "d": 250.58885416664998,
      "v": 95
    },
    {
      "midi": 31,
      "hit": false,
      "t": 164993.59779166646,
      "d": 91.39122916667839,
      "v": 110
    },
    {
      "midi": 62,
      "hit": false,
      "t": 164993.5977916672,
      "d": 259.433166666684,
      "v": 86
    },
    {
      "midi": 50,
      "hit": false,
      "t": 164996.54589583387,
      "d": 277.12179166669375,
      "v": 95
    },
    {
      "midi": 62,
      "hit": false,
      "t": 165002.44210416672,
      "d": 238.7964374999865,
      "v": 93
    },
    {
      "midi": 60,
      "hit": false,
      "t": 165002.4421041669,
      "d": 362.61681249999674,
      "v": 106
    },
    {
      "midi": 67,
      "hit": false,
      "t": 165002.44210416722,
      "d": 250.58885416667908,
      "v": 86
    },
    {
      "midi": 59,
      "hit": false,
      "t": 165008.33831250007,
      "d": 235.8483333332988,
      "v": 101
    },
    {
      "midi": 67,
      "hit": false,
      "t": 165011.28641666673,
      "d": 244.6926458333037,
      "v": 104
    },
    {
      "midi": 48,
      "hit": false,
      "t": 165164.5878333336,
      "d": 123.82037500001024,
      "v": 85
    },
    {
      "midi": 50,
      "hit": false,
      "t": 165261.87527083358,
      "d": 247.6407500000205,
      "v": 85
    },
    {
      "midi": 62,
      "hit": false,
      "t": 165267.77147916693,
      "d": 436.31941666666535,
      "v": 60
    },
    {
      "midi": 24,
      "hit": false,
      "t": 165276.61579166647,
      "d": 374.4092291666602,
      "v": 110
    },
    {
      "midi": 67,
      "hit": false,
      "t": 165279.5638958339,
      "d": 1798.3435416666616,
      "v": 86
    },
    {
      "midi": 76,
      "hit": false,
      "t": 165282.51200000002,
      "d": 2163.908458333346,
      "v": 50
    },
    {
      "midi": 79,
      "hit": false,
      "t": 165282.51200000002,
      "d": 2163.908458333346,
      "v": 50
    },
    {
      "midi": 72,
      "hit": false,
      "t": 165282.51200000002,
      "d": 2190.4413958333607,
      "v": 50
    },
    {
      "midi": 60,
      "hit": false,
      "t": 165285.4601041667,
      "d": 557.1916874999879,
      "v": 94
    },
    {
      "midi": 62,
      "hit": false,
      "t": 165285.46010416726,
      "d": 1833.720791666652,
      "v": 86
    },
    {
      "midi": 64,
      "hit": false,
      "t": 165288.40820833336,
      "d": 557.1916874999879,
      "v": 96
    },
    {
      "midi": 67,
      "hit": false,
      "t": 165291.35631250002,
      "d": 554.2435833333293,
      "v": 104
    },
    {
      "midi": 55,
      "hit": false,
      "t": 165291.35631250002,
      "d": 557.1916874999879,
      "v": 86
    },
    {
      "midi": 55,
      "hit": false,
      "t": 165300.20062500058,
      "d": 1901.5271875000035,
      "v": 95
    },
    {
      "midi": 48,
      "hit": false,
      "t": 165309.04493750058,
      "d": 1886.7866666666523,
      "v": 95
    },
    {
      "midi": 52,
      "hit": false,
      "t": 165553.7375833336,
      "d": 126.76847916666884,
      "v": 86
    },
    {
      "midi": 64,
      "hit": false,
      "t": 165569.95215625013,
      "d": 250.58885416667908,
      "v": 83
    },
    {
      "midi": 67,
      "hit": false,
      "t": 165569.95215625013,
      "d": 253.53695833333768,
      "v": 90
    },
    {
      "midi": 62,
      "hit": false,
      "t": 165571.42620833355,
      "d": 256.4850624999963,
      "v": 98
    },
    {
      "midi": 60,
      "hit": false,
      "t": 165842.6517916667,
      "d": 448.1118333332997,
      "v": 97
    },
    {
      "midi": 64,
      "hit": false,
      "t": 165845.59989583335,
      "d": 442.21562499998254,
      "v": 93
    },
    {
      "midi": 67,
      "hit": false,
      "t": 165845.59989583335,
      "d": 442.21562499998254,
      "v": 101
    },
    {
      "midi": 24,
      "hit": false,
      "t": 165848.5479999998,
      "d": 362.61681249999674,
      "v": 110
    },
    {
      "midi": 55,
      "hit": false,
      "t": 165848.548,
      "d": 451.0599374999874,
      "v": 90
    },
    {
      "midi": 60,
      "hit": false,
      "t": 165851.49610416687,
      "d": 129.71658333332743,
      "v": 101
    },
    {
      "midi": 62,
      "hit": false,
      "t": 165852.97015625014,
      "d": 176.88625000001048,
      "v": 86
    },
    {
      "midi": 67,
      "hit": false,
      "t": 165852.97015625014,
      "d": 176.88625000001048,
      "v": 96
    },
    {
      "midi": 55,
      "hit": false,
      "t": 165854.4442083336,
      "d": 1229.3594375000102,
      "v": 107
    },
    {
      "midi": 62,
      "hit": false,
      "t": 165854.4442083336,
      "d": 1258.8404791666835,
      "v": 60
    },
    {
      "midi": 60,
      "hit": false,
      "t": 166134.51410416685,
      "d": 781.2476041667396,
      "v": 113
    },
    {
      "midi": 67,
      "hit": false,
      "t": 166135.98815625015,
      "d": 686.9082708333444,
      "v": 95
    },
    {
      "midi": 62,
      "hit": false,
      "t": 166135.98815625015,
      "d": 704.5968958333542,
      "v": 84
    },
    {
      "midi": 67,
      "hit": false,
      "t": 166287.81552083333,
      "d": 330.1876666666649,
      "v": 104
    },
    {
      "midi": 64,
      "hit": false,
      "t": 166287.81552083333,
      "d": 350.82439583333326,
      "v": 94
    },
    {
      "midi": 24,
      "hit": false,
      "t": 166290.7636249998,
      "d": 47.16966666665394,
      "v": 110
    },
    {
      "midi": 60,
      "hit": false,
      "t": 166290.763625,
      "d": 347.87629166667466,
      "v": 94
    },
    {
      "midi": 55,
      "hit": false,
      "t": 166399.84347916665,
      "d": 760.610875000013,
      "v": 89
    },
    {
      "midi": 24,
      "hit": false,
      "t": 166417.53210416643,
      "d": 53.06587500000023,
      "v": 110
    },
    {
      "midi": 24,
      "hit": false,
      "t": 166691.70579166643,
      "d": 374.4092291666602,
      "v": 110
    },
    {
      "midi": 64,
      "hit": false,
      "t": 166700.55010416667,
      "d": 551.2954791666707,
      "v": 100
    },
    {
      "midi": 67,
      "hit": false,
      "t": 166700.55010416667,
      "d": 554.2435833333293,
      "v": 102
    },
    {
      "midi": 60,
      "hit": false,
      "t": 166703.49820833333,
      "d": 551.2954791666707,
      "v": 96
    },
    {
      "midi": 60,
      "hit": false,
      "t": 166983.56810416692,
      "d": 241.7445416666742,
      "v": 109
    },
    {
      "midi": 67,
      "hit": false,
      "t": 166985.0421562502,
      "d": 221.10781250000582,
      "v": 96
    },
    {
      "midi": 62,
      "hit": false,
      "t": 166985.0421562502,
      "d": 224.05591666666442,
      "v": 84
    },
    {
      "midi": 55,
      "hit": false,
      "t": 167248.89747916695,
      "d": 515.9182291666511,
      "v": 104
    },
    {
      "midi": 64,
      "hit": false,
      "t": 167251.84558333334,
      "d": 250.58885416664998,
      "v": 90
    },
    {
      "midi": 55,
      "hit": false,
      "t": 167251.84558333334,
      "d": 253.53695833330858,
      "v": 94
    },
    {
      "midi": 60,
      "hit": false,
      "t": 167254.7936875,
      "d": 232.9002291666693,
      "v": 94
    },
    {
      "midi": 67,
      "hit": false,
      "t": 167254.7936875,
      "d": 244.6926458333328,
      "v": 98
    },
    {
      "midi": 62,
      "hit": false,
      "t": 167260.6898958336,
      "d": 993.5111041666532,
      "v": 60
    },
    {
      "midi": 62,
      "hit": false,
      "t": 167260.68989583393,
      "d": 265.32937500000116,
      "v": 86
    },
    {
      "midi": 24,
      "hit": false,
      "t": 167263.63799999977,
      "d": 88.44312499999069,
      "v": 110
    },
    {
      "midi": 67,
      "hit": false,
      "t": 167263.6380000006,
      "d": 262.38127083334257,
      "v": 86
    },
    {
      "midi": 57,
      "hit": false,
      "t": 167266.58610416693,
      "d": 271.22558333334746,
      "v": 104
    },
    {
      "midi": 66,
      "hit": false,
      "t": 167268.0601562502,
      "d": 339.03197916666977,
      "v": 95
    },
    {
      "midi": 62,
      "hit": false,
      "t": 167268.0601562502,
      "d": 341.98008333332837,
      "v": 84
    },
    {
      "midi": 48,
      "hit": false,
      "t": 167269.53420833393,
      "d": 253.53695833333768,
      "v": 95
    },
    {
      "midi": 55,
      "hit": false,
      "t": 167272.4823125006,
      "d": 241.7445416666742,
      "v": 95
    },
    {
      "midi": 67,
      "hit": false,
      "t": 167543.70789583394,
      "d": 2449.8745625000156,
      "v": 86
    },
    {
      "midi": 62,
      "hit": false,
      "t": 167543.70789583394,
      "d": 2458.7188750000205,
      "v": 86
    },
    {
      "midi": 57,
      "hit": false,
      "t": 167546.656,
      "d": 577.8284166666854,
      "v": 94
    },
    {
      "midi": 79,
      "hit": false,
      "t": 167546.65600000005,
      "d": 1096.694749999995,
      "v": 50
    },
    {
      "midi": 74,
      "hit": false,
      "t": 167546.65600000005,
      "d": 4398.571416666644,
      "v": 50
    },
    {
      "midi": 81,
      "hit": false,
      "t": 167546.65600000005,
      "d": 4404.46762499999,
      "v": 50
    },
    {
      "midi": 26,
      "hit": false,
      "t": 167549.60410416644,
      "d": 383.2535416666651,
      "v": 110
    },
    {
      "midi": 62,
      "hit": false,
      "t": 167552.55220833333,
      "d": 571.9322083333391,
      "v": 104
    },
    {
      "midi": 67,
      "hit": false,
      "t": 167555.5003125,
      "d": 563.0878958333342,
      "v": 98
    },
    {
      "midi": 69,
      "hit": false,
      "t": 167558.44841666665,
      "d": 560.1397916666756,
      "v": 94
    },
    {
      "midi": 50,
      "hit": false,
      "t": 167567.29272916727,
      "d": 4504.703166666644,
      "v": 95
    },
    {
      "midi": 57,
      "hit": false,
      "t": 167573.1889375006,
      "d": 4504.703166666644,
      "v": 95
    },
    {
      "midi": 57,
      "hit": false,
      "t": 167817.8815833336,
      "d": 141.50899999999092,
      "v": 99
    },
    {
      "midi": 57,
      "hit": false,
      "t": 168109.74389583358,
      "d": 156.2495208333421,
      "v": 101
    },
    {
      "midi": 26,
      "hit": false,
      "t": 168112.69199999978,
      "d": 339.03197916666977,
      "v": 110
    },
    {
      "midi": 67,
      "hit": false,
      "t": 168118.58820833333,
      "d": 445.16372916667024,
      "v": 90
    },
    {
      "midi": 69,
      "hit": false,
      "t": 168118.58820833333,
      "d": 445.16372916667024,
      "v": 100
    },
    {
      "midi": 62,
      "hit": false,
      "t": 168124.48441666667,
      "d": 439.26752083332394,
      "v": 100
    },
    {
      "midi": 57,
      "hit": false,
      "t": 168124.48441666667,
      "d": 442.21562499998254,
      "v": 87
    },
    {
      "midi": 62,
      "hit": false,
      "t": 168380.96947916693,
      "d": 194.57487500002026,
      "v": 60
    },
    {
      "midi": 55,
      "hit": false,
      "t": 168398.65810416694,
      "d": 135.61279166667373,
      "v": 106
    },
    {
      "midi": 26,
      "hit": false,
      "t": 168560.8038333331,
      "d": 44.22156249999534,
      "v": 110
    },
    {
      "midi": 67,
      "hit": false,
      "t": 168563.7519375,
      "d": 159.1976249999716,
      "v": 94
    },
    {
      "midi": 69,
      "hit": false,
      "t": 168563.7519375,
      "d": 347.87629166661645,
      "v": 98
    },
    {
      "midi": 62,
      "hit": false,
      "t": 168563.7519375,
      "d": 365.56491666662623,
      "v": 102
    },
    {
      "midi": 57,
      "hit": false,
      "t": 168566.70004166666,
      "d": 341.98008333329926,
      "v": 97
    },
    {
      "midi": 78,
      "hit": false,
      "t": 168678.72800000003,
      "d": 1105.5390625,
      "v": 45
    },
    {
      "midi": 26,
      "hit": false,
      "t": 168681.67610416643,
      "d": 56.01397916665883,
      "v": 110
    },
    {
      "midi": 62,
      "hit": false,
      "t": 168687.5723125003,
      "d": 238.7964374999865,
      "v": 60
    },
    {
      "midi": 57,
      "hit": false,
      "t": 168690.52041666696,
      "d": 173.93814583332278,
      "v": 95
    },
    {
      "midi": 66,
      "hit": false,
      "t": 168699.36472916664,
      "d": 241.7445416666451,
      "v": 98
    },
    {
      "midi": 26,
      "hit": false,
      "t": 168958.7978958331,
      "d": 386.2016458333237,
      "v": 110
    },
    {
      "midi": 62,
      "hit": false,
      "t": 168982.38272916662,
      "d": 542.4511666666658,
      "v": 106
    },
    {
      "midi": 69,
      "hit": false,
      "t": 168982.38272916662,
      "d": 542.4511666666658,
      "v": 90
    },
    {
      "midi": 66,
      "hit": false,
      "t": 168982.38272916662,
      "d": 545.3992708333244,
      "v": 111
    },
    {
      "midi": 57,
      "hit": false,
      "t": 168982.38272916662,
      "d": 554.2435833333293,
      "v": 86
    },
    {
      "midi": 55,
      "hit": false,
      "t": 169501.24906250028,
      "d": 551.2954791666707,
      "v": 104
    },
    {
      "midi": 26,
      "hit": false,
      "t": 169524.8338958331,
      "d": 61.91018750000512,
      "v": 110
    },
    {
      "midi": 62,
      "hit": false,
      "t": 169524.8338958333,
      "d": 265.32937499997206,
      "v": 98
    },
    {
      "midi": 69,
      "hit": false,
      "t": 169524.8338958333,
      "d": 268.27747916663066,
      "v": 90
    },
    {
      "midi": 66,
      "hit": false,
      "t": 169527.78199999995,
      "d": 247.64074999999139,
      "v": 105
    },
    {
      "midi": 62,
      "hit": false,
      "t": 169530.73010416696,
      "d": 1276.5291041666933,
      "v": 60
    },
    {
      "midi": 57,
      "hit": false,
      "t": 169536.62631249995,
      "d": 227.004020833323,
      "v": 84
    },
    {
      "midi": 26,
      "hit": false,
      "t": 169804.90379166644,
      "d": 353.77249999999185,
      "v": 110
    },
    {
      "midi": 69,
      "hit": false,
      "t": 169810.79999999993,
      "d": 563.0878958333342,
      "v": 86
    },
    {
      "midi": 79,
      "hit": false,
      "t": 169810.80000000002,
      "d": 1090.798541666678,
      "v": 50
    },
    {
      "midi": 67,
      "hit": false,
      "t": 169816.69620833328,
      "d": 557.1916874999879,
      "v": 100
    },
    {
      "midi": 57,
      "hit": false,
      "t": 169816.69620833328,
      "d": 566.0359999999928,
      "v": 83
    },
    {
      "midi": 62,
      "hit": false,
      "t": 169819.64431249994,
      "d": 557.1916874999879,
      "v": 102
    },
    {
      "midi": 62,
      "hit": false,
      "t": 170087.9217916673,
      "d": 486.4371874999779,
      "v": 86
    },
    {
      "midi": 57,
      "hit": false,
      "t": 170090.86989583363,
      "d": 138.56089583333232,
      "v": 99
    },
    {
      "midi": 67,
      "hit": false,
      "t": 170090.86989583395,
      "d": 566.0359999999928,
      "v": 86
    },
    {
      "midi": 69,
      "hit": false,
      "t": 170373.88789583326,
      "d": 392.09785416667,
      "v": 94
    },
    {
      "midi": 67,
      "hit": false,
      "t": 170373.88789583326,
      "d": 395.0459583333286,
      "v": 98
    },
    {
      "midi": 62,
      "hit": false,
      "t": 170376.83599999992,
      "d": 377.3573333333479,
      "v": 103
    },
    {
      "midi": 26,
      "hit": false,
      "t": 170379.78410416644,
      "d": 339.03197916666977,
      "v": 110
    },
    {
      "midi": 57,
      "hit": false,
      "t": 170382.73220833327,
      "d": 365.56491666665534,
      "v": 85
    },
    {
      "midi": 57,
      "hit": false,
      "t": 170382.73220833362,
      "d": 135.61279166667373,
      "v": 90
    },
    {
      "midi": 55,
      "hit": false,
      "t": 170662.80210416697,
      "d": 135.61279166667373,
      "v": 102
    },
    {
      "midi": 69,
      "hit": false,
      "t": 170810.20731249993,
      "d": 362.61681249996764,
      "v": 96
    },
    {
      "midi": 67,
      "hit": false,
      "t": 170813.1554166666,
      "d": 135.61279166664463,
      "v": 90
    },
    {
      "midi": 62,
      "hit": false,
      "t": 170813.1554166666,
      "d": 368.51302083331393,
      "v": 102
    },
    {
      "midi": 57,
      "hit": false,
      "t": 170816.10352083325,
      "d": 324.2914583333186,
      "v": 87
    },
    {
      "midi": 26,
      "hit": false,
      "t": 170819.05162499976,
      "d": 58.96208333334653,
      "v": 110
    },
    {
      "midi": 26,
      "hit": false,
      "t": 170936.97579166645,
      "d": 64.85829166666372,
      "v": 110
    },
    {
      "midi": 62,
      "hit": false,
      "t": 170936.97579166727,
      "d": 247.64074999999139,
      "v": 86
    },
    {
      "midi": 67,
      "hit": false,
      "t": 170939.92389583393,
      "d": 250.58885416667908,
      "v": 86
    },
    {
      "midi": 78,
      "hit": false,
      "t": 170942.87200000003,
      "d": 1002.3554166666581,
      "v": 45
    },
    {
      "midi": 60,
      "hit": false,
      "t": 170945.82010416695,
      "d": 837.2615833333402,
      "v": 111
    },
    {
      "midi": 66,
      "hit": false,
      "t": 170948.76820833323,
      "d": 221.10781250000582,
      "v": 93
    },
    {
      "midi": 57,
      "hit": false,
      "t": 170951.71631250033,
      "d": 203.41918749999604,
      "v": 104
    },
    {
      "midi": 62,
      "hit": false,
      "t": 170954.664416667,
      "d": 144.45710416667862,
      "v": 60
    },
    {
      "midi": 26,
      "hit": false,
      "t": 171222.94189583312,
      "d": 400.9421666666749,
      "v": 110
    },
    {
      "midi": 62,
      "hit": false,
      "t": 171225.8900000006,
      "d": 819.5729583333305,
      "v": 86
    },
    {
      "midi": 67,
      "hit": false,
      "t": 171225.8900000006,
      "d": 819.5729583333305,
      "v": 86
    },
    {
      "midi": 69,
      "hit": false,
      "t": 171240.63052083325,
      "d": 819.5729583333014,
      "v": 96
    },
    {
      "midi": 62,
      "hit": false,
      "t": 171243.5786249999,
      "d": 819.5729583333014,
      "v": 104
    },
    {
      "midi": 66,
      "hit": false,
      "t": 171246.52672916657,
      "d": 813.6767499999842,
      "v": 105
    },
    {
      "midi": 57,
      "hit": false,
      "t": 171249.47483333322,
      "d": 798.9362291666621,
      "v": 94
    },
    {
      "midi": 26,
      "hit": false,
      "t": 171794.87410416646,
      "d": 53.06587500000023,
      "v": 110
    },
    {
      "midi": 59,
      "hit": false,
      "t": 171794.87410416696,
      "d": 840.209687500057,
      "v": 107
    },
    {
      "midi": 33,
      "hit": false,
      "t": 172071.99589583313,
      "d": 412.7345833333384,
      "v": 110
    },
    {
      "midi": 60,
      "hit": false,
      "t": 172074.94399999987,
      "d": 2078.413437500014,
      "v": 114
    },
    {
      "midi": 57,
      "hit": false,
      "t": 172074.94400000005,
      "d": 2225.818645833322,
      "v": 78
    },
    {
      "midi": 60,
      "hit": false,
      "t": 172074.94400000005,
      "d": 2225.818645833322,
      "v": 78
    },
    {
      "midi": 64,
      "hit": false,
      "t": 172074.94400000005,
      "d": 2228.7667499999807,
      "v": 78
    },
    {
      "midi": 67,
      "hit": false,
      "t": 172074.94400000005,
      "d": 4442.792979166639,
      "v": 78
    },
    {
      "midi": 57,
      "hit": false,
      "t": 172080.84020833322,
      "d": 2057.7767083333456,
      "v": 105
    },
    {
      "midi": 64,
      "hit": false,
      "t": 172080.84020833322,
      "d": 2060.724812500004,
      "v": 114
    },
    {
      "midi": 67,
      "hit": false,
      "t": 172098.52883333323,
      "d": 2028.2956666666723,
      "v": 113
    },
    {
      "midi": 64,
      "hit": false,
      "t": 172369.7544166667,
      "d": 315.4471458333428,
      "v": 73
    },
    {
      "midi": 64,
      "hit": false,
      "t": 172440.50891666667,
      "d": 315.4471458333428,
      "v": 73
    },
    {
      "midi": 33,
      "hit": false,
      "t": 172640.9799999998,
      "d": 339.03197916666977,
      "v": 110
    },
    {
      "midi": 57,
      "hit": false,
      "t": 172646.87620833368,
      "d": 1695.1598958333198,
      "v": 98
    },
    {
      "midi": 71,
      "hit": false,
      "t": 172652.7724166667,
      "d": 324.2914583333186,
      "v": 77
    },
    {
      "midi": 71,
      "hit": false,
      "t": 172723.52691666668,
      "d": 324.2914583333186,
      "v": 77
    },
    {
      "midi": 69,
      "hit": false,
      "t": 172923.99800000002,
      "d": 297.758520833333,
      "v": 77
    },
    {
      "midi": 69,
      "hit": false,
      "t": 172994.7525,
      "d": 297.758520833333,
      "v": 77
    },
    {
      "midi": 33,
      "hit": false,
      "t": 173083.19562499982,
      "d": 53.06587500000023,
      "v": 110
    },
    {
      "midi": 67,
      "hit": false,
      "t": 173201.1197916667,
      "d": 324.2914583333186,
      "v": 84
    },
    {
      "midi": 33,
      "hit": false,
      "t": 173209.9641041665,
      "d": 64.85829166666372,
      "v": 110
    },
    {
      "midi": 67,
      "hit": false,
      "t": 173271.87429166667,
      "d": 324.2914583333186,
      "v": 84
    },
    {
      "midi": 66,
      "hit": false,
      "t": 173490.034,
      "d": 300.7066249999916,
      "v": 80
    },
    {
      "midi": 33,
      "hit": false,
      "t": 173492.9821041665,
      "d": 392.09785416667,
      "v": 110
    },
    {
      "midi": 66,
      "hit": false,
      "t": 173560.7885,
      "d": 300.7066249999916,
      "v": 80
    },
    {
      "midi": 67,
      "hit": false,
      "t": 173778.94820833334,
      "d": 288.91420833332813,
      "v": 78
    },
    {
      "midi": 67,
      "hit": false,
      "t": 173849.70270833332,
      "d": 288.91420833332813,
      "v": 78
    },
    {
      "midi": 69,
      "hit": false,
      "t": 174047.2256875,
      "d": 374.4092291666602,
      "v": 82
    },
    {
      "midi": 33,
      "hit": false,
      "t": 174059.0181041665,
      "d": 106.13175000000047,
      "v": 110
    },
    {
      "midi": 69,
      "hit": false,
      "t": 174117.98018749998,
      "d": 374.4092291666602,
      "v": 82
    },
    {
      "midi": 36,
      "hit": false,
      "t": 174333.1917916665,
      "d": 515.9182291666802,
      "v": 110
    },
    {
      "midi": 64,
      "hit": false,
      "t": 174339.08800000002,
      "d": 2175.7008750000095,
      "v": 78
    },
    {
      "midi": 60,
      "hit": false,
      "t": 174339.08800000002,
      "d": 2205.1819166666537,
      "v": 78
    },
    {
      "midi": 60,
      "hit": false,
      "t": 174342.03610416656,
      "d": 2081.3615416666435,
      "v": 108
    },
    {
      "midi": 55,
      "hit": false,
      "t": 174365.6209374999,
      "d": 2078.413437499985,
      "v": 112
    },
    {
      "midi": 64,
      "hit": false,
      "t": 174374.4652499999,
      "d": 2066.6210208333214,
      "v": 113
    },
    {
      "midi": 67,
      "hit": false,
      "t": 174386.25766666656,
      "d": 2034.1918749999895,
      "v": 116
    },
    {
      "midi": 64,
      "hit": false,
      "t": 174628.00220833332,
      "d": 285.96610416666954,
      "v": 78
    },
    {
      "midi": 64,
      "hit": false,
      "t": 174698.7567083333,
      "d": 285.96610416669864,
      "v": 78
    },
    {
      "midi": 71,
      "hit": false,
      "t": 174899.22779166666,
      "d": 330.1876666666649,
      "v": 80
    },
    {
      "midi": 24,
      "hit": false,
      "t": 174908.07210416652,
      "d": 350.82439583333326,
      "v": 110
    },
    {
      "midi": 71,
      "hit": false,
      "t": 174969.98229166665,
      "d": 330.187666666694,
      "v": 80
    },
    {
      "midi": 69,
      "hit": false,
      "t": 175191.09010416665,
      "d": 271.22558333334746,
      "v": 73
    },
    {
      "midi": 69,
      "hit": false,
      "t": 175261.84460416666,
      "d": 271.22558333334746,
      "v": 73
    },
    {
      "midi": 24,
      "hit": false,
      "t": 175353.2358333332,
      "d": 61.91018750000512,
      "v": 110
    },
    {
      "midi": 67,
      "hit": false,
      "t": 175450.52327083334,
      "d": 315.4471458333137,
      "v": 81
    },
    {
      "midi": 24,
      "hit": false,
      "t": 175468.2118958332,
      "d": 64.85829166666372,
      "v": 110
    },
    {
      "midi": 60,
      "hit": false,
      "t": 175474.10810416698,
      "d": 524.7625416666851,
      "v": 101
    },
    {
      "midi": 67,
      "hit": false,
      "t": 175521.27777083335,
      "d": 315.4471458333137,
      "v": 81
    },
    {
      "midi": 66,
      "hit": false,
      "t": 175739.43747916666,
      "d": 303.6547291666502,
      "v": 84
    },
    {
      "midi": 24,
      "hit": false,
      "t": 175754.17799999987,
      "d": 374.4092291666602,
      "v": 110
    },
    {
      "midi": 66,
      "hit": false,
      "t": 175810.19197916667,
      "d": 303.6547291666502,
      "v": 84
    },
    {
      "midi": 64,
      "hit": false,
      "t": 176028.3516875,
      "d": 318.3952500000014,
      "v": 76
    },
    {
      "midi": 60,
      "hit": false,
      "t": 176034.24789583366,
      "d": 117.92416666666395,
      "v": 82
    },
    {
      "midi": 64,
      "hit": false,
      "t": 176099.1061875,
      "d": 318.3952500000014,
      "v": 76
    },
    {
      "midi": 62,
      "hit": false,
      "t": 176305.47347916666,
      "d": 359.66870833333815,
      "v": 73
    },
    {
      "midi": 24,
      "hit": false,
      "t": 176323.16210416652,
      "d": 120.87227083332255,
      "v": 110
    },
    {
      "midi": 60,
      "hit": false,
      "t": 176323.16210416702,
      "d": 1385.6089583333523,
      "v": 101
    },
    {
      "midi": 62,
      "hit": false,
      "t": 176376.22797916667,
      "d": 359.66870833333815,
      "v": 73
    },
    {
      "midi": 28,
      "hit": false,
      "t": 176600.28389583318,
      "d": 415.682687499997,
      "v": 110
    },
    {
      "midi": 59,
      "hit": false,
      "t": 176603.23200000002,
      "d": 2178.648979166668,
      "v": 78
    },
    {
      "midi": 67,
      "hit": false,
      "t": 176603.23200000002,
      "d": 2222.8705416666635,
      "v": 78
    },
    {
      "midi": 64,
      "hit": false,
      "t": 176603.23200000002,
      "d": 2225.818645833322,
      "v": 78
    },
    {
      "midi": 59,
      "hit": false,
      "t": 176617.9725208332,
      "d": 2007.658937500004,
      "v": 110
    },
    {
      "midi": 64,
      "hit": false,
      "t": 176617.9725208332,
      "d": 2010.6070416666626,
      "v": 112
    },
    {
      "midi": 55,
      "hit": false,
      "t": 176623.86872916654,
      "d": 2034.1918749999895,
      "v": 115
    },
    {
      "midi": 67,
      "hit": false,
      "t": 176626.8168333332,
      "d": 1984.074104166677,
      "v": 115
    },
    {
      "midi": 64,
      "hit": false,
      "t": 176880.35379166665,
      "d": 306.6028333333379,
      "v": 73
    },
    {
      "midi": 64,
      "hit": false,
      "t": 176951.10829166666,
      "d": 306.6028333333379,
      "v": 73
    },
    {
      "midi": 71,
      "hit": false,
      "t": 177163.37179166666,
      "d": 318.3952499999723,
      "v": 84
    },
    {
      "midi": 28,
      "hit": false,
      "t": 177169.26799999984,
      "d": 318.3952500000014,
      "v": 110
    },
    {
      "midi": 71,
      "hit": false,
      "t": 177234.12629166667,
      "d": 318.3952499999723,
      "v": 84
    },
    {
      "midi": 69,
      "hit": false,
      "t": 177434.59737499998,
      "d": 294.8104166666453,
      "v": 78
    },
    {
      "midi": 69,
      "hit": false,
      "t": 177505.351875,
      "d": 294.8104166666453,
      "v": 78
    },
    {
      "midi": 28,
      "hit": false,
      "t": 177608.53552083316,
      "d": 29.481041666673264,
      "v": 110
    },
    {
      "midi": 67,
      "hit": false,
      "t": 177708.77106249996,
      "d": 330.1876666666649,
      "v": 78
    },
    {
      "midi": 28,
      "hit": false,
      "t": 177732.35589583317,
      "d": 56.01397916665883,
      "v": 110
    },
    {
      "midi": 67,
      "hit": false,
      "t": 177779.52556249997,
      "d": 330.1876666666649,
      "v": 78
    },
    {
      "midi": 66,
      "hit": false,
      "t": 178006.5295833333,
      "d": 300.7066250000207,
      "v": 84
    },
    {
      "midi": 28,
      "hit": false,
      "t": 178012.4257916665,
      "d": 433.37131250000675,
      "v": 110
    },
    {
      "midi": 66,
      "hit": false,
      "t": 178077.2840833333,
      "d": 300.7066250000207,
      "v": 84
    },
    {
      "midi": 67,
      "hit": false,
      "t": 178289.5475833333,
      "d": 324.2914583333477,
      "v": 75
    },
    {
      "midi": 66,
      "hit": false,
      "t": 178298.39189583375,
      "d": 704.5968958333542,
      "v": 89
    },
    {
      "midi": 67,
      "hit": false,
      "t": 178360.3020833333,
      "d": 324.2914583333477,
      "v": 75
    },
    {
      "midi": 69,
      "hit": false,
      "t": 178569.61747916666,
      "d": 318.3952499999723,
      "v": 83
    },
    {
      "midi": 28,
      "hit": false,
      "t": 178581.40989583317,
      "d": 106.13175000000047,
      "v": 110
    },
    {
      "midi": 69,
      "hit": false,
      "t": 178640.37197916667,
      "d": 318.3952499999723,
      "v": 83
    },
    {
      "midi": 71,
      "hit": false,
      "t": 178852.63547916664,
      "d": 451.0599374999874,
      "v": 82
    },
    {
      "midi": 59,
      "hit": false,
      "t": 178861.47979166653,
      "d": 2037.1399791666772,
      "v": 112
    },
    {
      "midi": 62,
      "hit": false,
      "t": 178864.42789583319,
      "d": 2037.1399791666772,
      "v": 116
    },
    {
      "midi": 62,
      "hit": false,
      "t": 178867.37600000002,
      "d": 2163.908458333346,
      "v": 78
    },
    {
      "midi": 66,
      "hit": false,
      "t": 178867.37600000002,
      "d": 2178.648979166668,
      "v": 78
    },
    {
      "midi": 59,
      "hit": false,
      "t": 178867.37600000002,
      "d": 2184.5451875000144,
      "v": 78
    },
    {
      "midi": 26,
      "hit": false,
      "t": 178870.3241041665,
      "d": 397.9940624999872,
      "v": 110
    },
    {
      "midi": 66,
      "hit": false,
      "t": 178870.32410416653,
      "d": 2028.2956666666723,
      "v": 115
    },
    {
      "midi": 57,
      "hit": false,
      "t": 178879.16841666654,
      "d": 2028.2956666666723,
      "v": 112
    },
    {
      "midi": 71,
      "hit": false,
      "t": 178923.38997916665,
      "d": 451.0599374999874,
      "v": 82
    },
    {
      "midi": 71,
      "hit": false,
      "t": 179156.29020833375,
      "d": 787.1438124999986,
      "v": 91
    },
    {
      "midi": 71,
      "hit": false,
      "t": 179418.67147916663,
      "d": 291.86231250001583,
      "v": 80
    },
    {
      "midi": 26,
      "hit": false,
      "t": 179427.5157916665,
      "d": 371.46112500000163,
      "v": 110
    },
    {
      "midi": 71,
      "hit": false,
      "t": 179489.42597916664,
      "d": 291.86231250001583,
      "v": 80
    },
    {
      "midi": 74,
      "hit": false,
      "t": 179692.84516666664,
      "d": 330.187666666694,
      "v": 80
    },
    {
      "midi": 74,
      "hit": false,
      "t": 179763.59966666665,
      "d": 330.187666666694,
      "v": 80
    },
    {
      "midi": 26,
      "hit": false,
      "t": 179881.52383333317,
      "d": 32.42914583333186,
      "v": 110
    },
    {
      "midi": 71,
      "hit": false,
      "t": 179984.70747916665,
      "d": 306.6028333333379,
      "v": 79
    },
    {
      "midi": 26,
      "hit": false,
      "t": 179996.49989583317,
      "d": 53.06587500000023,
      "v": 110
    },
    {
      "midi": 60,
      "hit": false,
      "t": 180002.3961041671,
      "d": 804.8324375000375,
      "v": 106
    },
    {
      "midi": 71,
      "hit": false,
      "t": 180055.46197916666,
      "d": 306.6028333333379,
      "v": 79
    },
    {
      "midi": 69,
      "hit": false,
      "t": 180276.56979166667,
      "d": 280.06989583332324,
      "v": 81
    },
    {
      "midi": 26,
      "hit": false,
      "t": 180285.4141041665,
      "d": 524.762541666656,
      "v": 110
    },
    {
      "midi": 69,
      "hit": false,
      "t": 180347.32429166668,
      "d": 280.06989583332324,
      "v": 81
    },
    {
      "midi": 67,
      "hit": false,
      "t": 180541.89916666667,
      "d": 324.2914583333186,
      "v": 77
    },
    {
      "midi": 67,
      "hit": false,
      "t": 180612.65366666668,
      "d": 324.2914583333186,
      "v": 77
    },
    {
      "midi": 69,
      "hit": false,
      "t": 180830.813375,
      "d": 383.2535416666651,
      "v": 69
    },
    {
      "midi": 31,
      "hit": false,
      "t": 180848.50199999983,
      "d": 114.97606250000536,
      "v": 110
    },
    {
      "midi": 59,
      "hit": false,
      "t": 180851.45010416713,
      "d": 928.6528125000186,
      "v": 103
    },
    {
      "midi": 69,
      "hit": false,
      "t": 180901.567875,
      "d": 383.2535416666651,
      "v": 69
    },
    {
      "midi": 33,
      "hit": false,
      "t": 181125.6237916665,
      "d": 377.3573333333188,
      "v": 110
    },
    {
      "midi": 60,
      "hit": false,
      "t": 181128.5718958332,
      "d": 2107.894479166658,
      "v": 117
    },
    {
      "midi": 60,
      "hit": false,
      "t": 181131.52000000002,
      "d": 2158.0122499999998,
      "v": 78
    },
    {
      "midi": 64,
      "hit": false,
      "t": 181131.52000000002,
      "d": 2158.0122499999998,
      "v": 78
    },
    {
      "midi": 57,
      "hit": false,
      "t": 181131.52000000002,
      "d": 2172.752770833322,
      "v": 78
    },
    {
      "midi": 67,
      "hit": false,
      "t": 181131.52000000002,
      "d": 2193.38949999999,
      "v": 78
    },
    {
      "midi": 67,
      "hit": false,
      "t": 181143.31241666654,
      "d": 2075.4653333333263,
      "v": 116
    },
    {
      "midi": 64,
      "hit": false,
      "t": 181143.31241666654,
      "d": 2096.1020624999946,
      "v": 109
    },
    {
      "midi": 57,
      "hit": false,
      "t": 181155.1048333332,
      "d": 2093.153958333336,
      "v": 104
    },
    {
      "midi": 67,
      "hit": false,
      "t": 181396.849375,
      "d": 339.03197916666977,
      "v": 66
    },
    {
      "midi": 64,
      "hit": false,
      "t": 181405.6936875,
      "d": 327.2395625000063,
      "v": 69
    },
    {
      "midi": 67,
      "hit": false,
      "t": 181467.603875,
      "d": 339.03197916666977,
      "v": 66
    },
    {
      "midi": 64,
      "hit": false,
      "t": 181476.4481875,
      "d": 327.2395625000063,
      "v": 69
    },
    {
      "midi": 33,
      "hit": false,
      "t": 181697.5559999998,
      "d": 374.4092291666602,
      "v": 110
    },
    {
      "midi": 71,
      "hit": false,
      "t": 181703.45220833333,
      "d": 318.3952500000014,
      "v": 80
    },
    {
      "midi": 57,
      "hit": false,
      "t": 181703.45220833382,
      "d": 1591.976250000007,
      "v": 94
    },
    {
      "midi": 74,
      "hit": false,
      "t": 181709.34841666667,
      "d": 327.2395624999772,
      "v": 62
    },
    {
      "midi": 71,
      "hit": false,
      "t": 181774.20670833334,
      "d": 318.3952500000014,
      "v": 80
    },
    {
      "midi": 74,
      "hit": false,
      "t": 181780.10291666668,
      "d": 327.2395624999772,
      "v": 62
    },
    {
      "midi": 69,
      "hit": false,
      "t": 181977.62589583333,
      "d": 288.91420833332813,
      "v": 76
    },
    {
      "midi": 72,
      "hit": false,
      "t": 181995.31452083334,
      "d": 318.3952499999723,
      "v": 64
    },
    {
      "midi": 69,
      "hit": false,
      "t": 182048.38039583334,
      "d": 288.91420833332813,
      "v": 76
    },
    {
      "midi": 72,
      "hit": false,
      "t": 182066.06902083335,
      "d": 318.3952499999723,
      "v": 64
    },
    {
      "midi": 33,
      "hit": false,
      "t": 182136.82352083313,
      "d": 50.11777083334164,
      "v": 110
    },
    {
      "midi": 67,
      "hit": false,
      "t": 182245.903375,
      "d": 330.1876666666358,
      "v": 74
    },
    {
      "midi": 33,
      "hit": false,
      "t": 182260.64389583314,
      "d": 50.11777083334164,
      "v": 110
    },
    {
      "midi": 71,
      "hit": false,
      "t": 182263.592,
      "d": 294.8104166666162,
      "v": 59
    },
    {
      "midi": 67,
      "hit": false,
      "t": 182316.657875,
      "d": 330.1876666666358,
      "v": 74
    },
    {
      "midi": 71,
      "hit": false,
      "t": 182334.3465,
      "d": 294.8104166666162,
      "v": 59
    },
    {
      "midi": 69,
      "hit": false,
      "t": 182540.71379166664,
      "d": 312.4990416666842,
      "v": 62
    },
    {
      "midi": 66,
      "hit": false,
      "t": 182543.6618958333,
      "d": 291.86231250001583,
      "v": 82
    },
    {
      "midi": 33,
      "hit": false,
      "t": 182546.6099999998,
      "d": 359.66870833333815,
      "v": 110
    },
    {
      "midi": 69,
      "hit": false,
      "t": 182611.46829166665,
      "d": 312.4990416666842,
      "v": 62
    },
    {
      "midi": 66,
      "hit": false,
      "t": 182614.4163958333,
      "d": 291.86231250001583,
      "v": 82
    },
    {
      "midi": 67,
      "hit": false,
      "t": 182820.78368749996,
      "d": 300.7066250000207,
      "v": 76
    },
    {
      "midi": 71,
      "hit": false,
      "t": 182829.62799999997,
      "d": 294.8104166666744,
      "v": 62
    },
    {
      "midi": 67,
      "hit": false,
      "t": 182891.53818749997,
      "d": 300.7066250000207,
      "v": 76
    },
    {
      "midi": 71,
      "hit": false,
      "t": 182900.38249999998,
      "d": 294.8104166666744,
      "v": 62
    },
    {
      "midi": 72,
      "hit": false,
      "t": 183089.06116666665,
      "d": 315.4471458333137,
      "v": 66
    },
    {
      "midi": 69,
      "hit": false,
      "t": 183089.06116666665,
      "d": 362.61681249996764,
      "v": 82
    },
    {
      "midi": 33,
      "hit": false,
      "t": 183115.5941041665,
      "d": 120.87227083332255,
      "v": 110
    },
    {
      "midi": 72,
      "hit": false,
      "t": 183159.81566666666,
      "d": 315.4471458333137,
      "v": 66
    },
    {
      "midi": 69,
      "hit": false,
      "t": 183159.81566666666,
      "d": 362.61681249996764,
      "v": 82
    },
    {
      "midi": 74,
      "hit": false,
      "t": 183383.8715833333,
      "d": 274.17368749997695,
      "v": 70
    },
    {
      "midi": 24,
      "hit": false,
      "t": 183395.66399999982,
      "d": 374.4092291666602,
      "v": 110
    },
    {
      "midi": 64,
      "hit": false,
      "t": 183395.66400000002,
      "d": 2101.998270833341,
      "v": 78
    },
    {
      "midi": 60,
      "hit": false,
      "t": 183395.66400000002,
      "d": 2119.6868958333507,
      "v": 78
    },
    {
      "midi": 67,
      "hit": false,
      "t": 183395.66400000002,
      "d": 2158.012250000029,
      "v": 78
    },
    {
      "midi": 60,
      "hit": false,
      "t": 183419.2488333332,
      "d": 1987.0222083333356,
      "v": 116
    },
    {
      "midi": 64,
      "hit": false,
      "t": 183425.14504166655,
      "d": 2016.5032499999797,
      "v": 104
    },
    {
      "midi": 55,
      "hit": false,
      "t": 183428.0931458332,
      "d": 2034.1918749999895,
      "v": 108
    },
    {
      "midi": 67,
      "hit": false,
      "t": 183431.04124999986,
      "d": 2081.3615416666726,
      "v": 112
    },
    {
      "midi": 74,
      "hit": false,
      "t": 183454.6260833333,
      "d": 274.17368749997695,
      "v": 70
    },
    {
      "midi": 67,
      "hit": false,
      "t": 183672.7857916666,
      "d": 309.5509374999965,
      "v": 64
    },
    {
      "midi": 64,
      "hit": false,
      "t": 183675.73389583325,
      "d": 315.4471458333428,
      "v": 78
    },
    {
      "midi": 67,
      "hit": false,
      "t": 183743.5402916666,
      "d": 309.5509374999965,
      "v": 64
    },
    {
      "midi": 64,
      "hit": false,
      "t": 183746.48839583326,
      "d": 315.4471458333428,
      "v": 78
    },
    {
      "midi": 24,
      "hit": false,
      "t": 183958.75189583315,
      "d": 347.87629166667466,
      "v": 110
    },
    {
      "midi": 71,
      "hit": false,
      "t": 183961.69999999992,
      "d": 306.6028333333379,
      "v": 76
    },
    {
      "midi": 74,
      "hit": false,
      "t": 183985.28483333325,
      "d": 297.758520833333,
      "v": 68
    },
    {
      "midi": 71,
      "hit": false,
      "t": 184032.45449999993,
      "d": 306.6028333333379,
      "v": 76
    },
    {
      "midi": 74,
      "hit": false,
      "t": 184056.03933333326,
      "d": 297.758520833333,
      "v": 68
    },
    {
      "midi": 69,
      "hit": false,
      "t": 184227.02937499993,
      "d": 291.86231250001583,
      "v": 76
    },
    {
      "midi": 72,
      "hit": false,
      "t": 184247.6661041666,
      "d": 318.3952500000014,
      "v": 65
    },
    {
      "midi": 69,
      "hit": false,
      "t": 184297.78387499994,
      "d": 291.86231250001583,
      "v": 76
    },
    {
      "midi": 72,
      "hit": false,
      "t": 184318.4206041666,
      "d": 318.3952500000014,
      "v": 65
    },
    {
      "midi": 24,
      "hit": false,
      "t": 184409.81183333317,
      "d": 29.481041666673264,
      "v": 110
    },
    {
      "midi": 67,
      "hit": false,
      "t": 184501.20306249993,
      "d": 324.2914583333477,
      "v": 76
    },
    {
      "midi": 71,
      "hit": false,
      "t": 184512.9954791666,
      "d": 300.7066250000207,
      "v": 56
    },
    {
      "midi": 24,
      "hit": false,
      "t": 184530.68410416652,
      "d": 53.06587500000023,
      "v": 110
    },
    {
      "midi": 60,
      "hit": false,
      "t": 184530.6841041672,
      "d": 545.3992708333535,
      "v": 106
    },
    {
      "midi": 67,
      "hit": false,
      "t": 184571.95756249994,
      "d": 324.2914583333477,
      "v": 76
    },
    {
      "midi": 71,
      "hit": false,
      "t": 184583.7499791666,
      "d": 300.7066250000207,
      "v": 56
    },
    {
      "midi": 69,
      "hit": false,
      "t": 184787.1691666666,
      "d": 291.86231250001583,
      "v": 62
    },
    {
      "midi": 66,
      "hit": false,
      "t": 184793.06537499995,
      "d": 303.6547291666793,
      "v": 79
    },
    {
      "midi": 24,
      "hit": false,
      "t": 184804.85779166652,
      "d": 418.63079166665557,
      "v": 110
    },
    {
      "midi": 69,
      "hit": false,
      "t": 184857.9236666666,
      "d": 291.86231250001583,
      "v": 62
    },
    {
      "midi": 66,
      "hit": false,
      "t": 184863.81987499996,
      "d": 303.6547291666793,
      "v": 79
    },
    {
      "midi": 67,
      "hit": false,
      "t": 185079.03147916662,
      "d": 353.77249999999185,
      "v": 61
    },
    {
      "midi": 64,
      "hit": false,
      "t": 185087.87579166662,
      "d": 309.5509374999965,
      "v": 78
    },
    {
      "midi": 60,
      "hit": false,
      "t": 185099.66820833387,
      "d": 138.56089583333232,
      "v": 92
    },
    {
      "midi": 67,
      "hit": false,
      "t": 185149.78597916663,
      "d": 353.77249999999185,
      "v": 61
    },
    {
      "midi": 64,
      "hit": false,
      "t": 185158.63029166663,
      "d": 309.5509374999965,
      "v": 78
    },
    {
      "midi": 66,
      "hit": false,
      "t": 185344.36085416662,
      "d": 294.8104166666453,
      "v": 59
    },
    {
      "midi": 62,
      "hit": false,
      "t": 185364.9975833333,
      "d": 459.9042499999632,
      "v": 74
    },
    {
      "midi": 24,
      "hit": false,
      "t": 185373.84189583317,
      "d": 73.7026041666686,
      "v": 110
    },
    {
      "midi": 60,
      "hit": false,
      "t": 185379.73810416722,
      "d": 2146.2198333333654,
      "v": 106
    },
    {
      "midi": 66,
      "hit": false,
      "t": 185415.11535416663,
      "d": 294.8104166666453,
      "v": 59
    },
    {
      "midi": 62,
      "hit": false,
      "t": 185435.7520833333,
      "d": 459.9042499999632,
      "v": 74
    },
    {
      "midi": 69,
      "hit": false,
      "t": 185636.2231666666,
      "d": 356.72060416665045,
      "v": 52
    },
    {
      "midi": 26,
      "hit": false,
      "t": 185653.9117916665,
      "d": 392.09785416667,
      "v": 110
    },
    {
      "midi": 67,
      "hit": false,
      "t": 185659.80800000005,
      "d": 2225.818645833322,
      "v": 78
    },
    {
      "midi": 57,
      "hit": false,
      "t": 185659.80800000005,
      "d": 4495.858854166669,
      "v": 78
    },
    {
      "midi": 69,
      "hit": false,
      "t": 185659.80800000005,
      "d": 4495.858854166669,
      "v": 78
    },
    {
      "midi": 62,
      "hit": false,
      "t": 185659.80800000005,
      "d": 4498.806958333327,
      "v": 78
    },
    {
      "midi": 50,
      "hit": false,
      "t": 185659.80800000057,
      "d": 2452.822666666674,
      "v": 92
    },
    {
      "midi": 57,
      "hit": false,
      "t": 185659.80800000057,
      "d": 2461.666979166679,
      "v": 74
    },
    {
      "midi": 67,
      "hit": false,
      "t": 185662.75610416653,
      "d": 2104.9463749999995,
      "v": 107
    },
    {
      "midi": 62,
      "hit": false,
      "t": 185665.7042083332,
      "d": 2090.2058541666775,
      "v": 116
    },
    {
      "midi": 69,
      "hit": false,
      "t": 185674.5485208332,
      "d": 2069.569125000009,
      "v": 116
    },
    {
      "midi": 57,
      "hit": false,
      "t": 185680.44472916654,
      "d": 2063.672916666663,
      "v": 106
    },
    {
      "midi": 69,
      "hit": false,
      "t": 185706.97766666661,
      "d": 356.72060416665045,
      "v": 52
    },
    {
      "midi": 26,
      "hit": false,
      "t": 186228.7921041665,
      "d": 318.3952500000014,
      "v": 110
    },
    {
      "midi": 26,
      "hit": false,
      "t": 186673.95583333317,
      "d": 35.377249999990454,
      "v": 110
    },
    {
      "midi": 26,
      "hit": false,
      "t": 186794.8281041665,
      "d": 61.91018750000512,
      "v": 110
    },
    {
      "midi": 26,
      "hit": false,
      "t": 187074.89799999984,
      "d": 368.51302083334303,
      "v": 110
    },
    {
      "midi": 26,
      "hit": false,
      "t": 187635.03779166652,
      "d": 53.06587500000023,
      "v": 110
    },
    {
      "midi": 26,
      "hit": false,
      "t": 187923.95199999984,
      "d": 271.22558333334746,
      "v": 110
    },
    {
      "midi": 66,
      "hit": false,
      "t": 187923.95200000005,
      "d": 2234.662958333327,
      "v": 78
    },
    {
      "midi": 57,
      "hit": false,
      "t": 187929.8482083332,
      "d": 822.5210625000182,
      "v": 107
    },
    {
      "midi": 69,
      "hit": false,
      "t": 187929.8482083332,
      "d": 2143.2717291665904,
      "v": 109
    },
    {
      "midi": 62,
      "hit": false,
      "t": 187932.79631249985,
      "d": 1108.4871666666586,
      "v": 113
    },
    {
      "midi": 50,
      "hit": false,
      "t": 187938.6925208332,
      "d": 816.6248541666719,
      "v": 110
    },
    {
      "midi": 50,
      "hit": false,
      "t": 188186.33327083391,
      "d": 259.43316666665487,
      "v": 90
    },
    {
      "midi": 57,
      "hit": false,
      "t": 188186.33327083391,
      "d": 259.43316666665487,
      "v": 71
    },
    {
      "midi": 26,
      "hit": false,
      "t": 188201.07379166654,
      "d": 271.22558333334746,
      "v": 110
    },
    {
      "midi": 65,
      "hit": false,
      "t": 188212.86620833393,
      "d": 297.7585208333621,
      "v": 95
    },
    {
      "midi": 50,
      "hit": false,
      "t": 188469.3512708339,
      "d": 259.43316666665487,
      "v": 95
    },
    {
      "midi": 57,
      "hit": false,
      "t": 188469.3512708339,
      "d": 259.43316666665487,
      "v": 101
    },
    {
      "midi": 26,
      "hit": false,
      "t": 188492.93610416655,
      "d": 371.46112500000163,
      "v": 110
    },
    {
      "midi": 57,
      "hit": false,
      "t": 188752.3692708332,
      "d": 285.96610416664043,
      "v": 107
    },
    {
      "midi": 50,
      "hit": false,
      "t": 188752.36927083388,
      "d": 259.43316666665487,
      "v": 101
    },
    {
      "midi": 57,
      "hit": false,
      "t": 188752.36927083388,
      "d": 259.43316666665487,
      "v": 88
    },
    {
      "midi": 50,
      "hit": false,
      "t": 188755.31737499987,
      "d": 280.06989583332324,
      "v": 106
    },
    {
      "midi": 66,
      "hit": false,
      "t": 188775.9541041673,
      "d": 280.06989583332324,
      "v": 101
    },
    {
      "midi": 26,
      "hit": false,
      "t": 188911.5668958332,
      "d": 35.377249999990454,
      "v": 110
    },
    {
      "midi": 50,
      "hit": false,
      "t": 189035.3872708332,
      "d": 294.8104166666453,
      "v": 105
    },
    {
      "midi": 50,
      "hit": false,
      "t": 189035.38727083386,
      "d": 259.43316666665487,
      "v": 104
    },
    {
      "midi": 57,
      "hit": false,
      "t": 189035.38727083386,
      "d": 259.43316666665487,
      "v": 88
    },
    {
      "midi": 57,
      "hit": false,
      "t": 189038.33537499985,
      "d": 294.8104166666453,
      "v": 99
    },
    {
      "midi": 62,
      "hit": false,
      "t": 189041.2834791665,
      "d": 294.8104166666453,
      "v": 88
    },
    {
      "midi": 26,
      "hit": false,
      "t": 189053.0758958332,
      "d": 58.96208333334653,
      "v": 110
    },
    {
      "midi": 26,
      "hit": false,
      "t": 189194.58489583322,
      "d": 38.32535416667815,
      "v": 110
    },
    {
      "midi": 50,
      "hit": false,
      "t": 189318.40527083384,
      "d": 259.43316666665487,
      "v": 109
    },
    {
      "midi": 57,
      "hit": false,
      "t": 189318.40527083384,
      "d": 259.43316666665487,
      "v": 92
    },
    {
      "midi": 50,
      "hit": false,
      "t": 189330.19768749984,
      "d": 274.17368749997695,
      "v": 95
    },
    {
      "midi": 57,
      "hit": false,
      "t": 189333.1457916665,
      "d": 274.17368749997695,
      "v": 91
    },
    {
      "midi": 62,
      "hit": false,
      "t": 189336.09389583315,
      "d": 265.32937500000116,
      "v": 97
    },
    {
      "midi": 26,
      "hit": false,
      "t": 189336.09389583324,
      "d": 227.004020833323,
      "v": 110
    },
    {
      "midi": 69,
      "hit": false,
      "t": 189341.990104167,
      "d": 831.3653750000813,
      "v": 98
    },
    {
      "midi": 67,
      "hit": false,
      "t": 189341.9901041673,
      "d": 247.64074999999139,
      "v": 101
    },
    {
      "midi": 62,
      "hit": false,
      "t": 189601.42327083315,
      "d": 297.7585208333039,
      "v": 97
    },
    {
      "midi": 50,
      "hit": false,
      "t": 189601.42327083382,
      "d": 259.43316666665487,
      "v": 109
    },
    {
      "midi": 57,
      "hit": false,
      "t": 189601.42327083382,
      "d": 259.43316666665487,
      "v": 92
    },
    {
      "midi": 50,
      "hit": false,
      "t": 189604.3713749998,
      "d": 294.8104166666453,
      "v": 99
    },
    {
      "midi": 57,
      "hit": false,
      "t": 189607.31947916647,
      "d": 291.86231249998673,
      "v": 98
    },
    {
      "midi": 26,
      "hit": false,
      "t": 189625.00810416657,
      "d": 274.17368750000605,
      "v": 110
    },
    {
      "midi": 50,
      "hit": false,
      "t": 189884.4412708338,
      "d": 259.43316666665487,
      "v": 109
    },
    {
      "midi": 57,
      "hit": false,
      "t": 189884.4412708338,
      "d": 259.43316666665487,
      "v": 104
    },
    {
      "midi": 62,
      "hit": false,
      "t": 189899.18179166646,
      "d": 218.15970833331812,
      "v": 95
    },
    {
      "midi": 50,
      "hit": false,
      "t": 189899.18179166646,
      "d": 229.9521249999816,
      "v": 96
    },
    {
      "midi": 57,
      "hit": false,
      "t": 189899.18179166646,
      "d": 232.9002291666402,
      "v": 97
    },
    {
      "midi": 26,
      "hit": false,
      "t": 189905.07799999992,
      "d": 23.58483333332697,
      "v": 110
    },
    {
      "midi": 71,
      "hit": false,
      "t": 189910.97420833394,
      "d": 433.37131250000675,
      "v": 92
    },
    {
      "midi": 26,
      "hit": false,
      "t": 190049.53510416657,
      "d": 20.636729166668374,
      "v": 110
    },
    {
      "midi": 31,
      "hit": false,
      "t": 190182.1997916666,
      "d": 430.42320833331905,
      "v": 110
    },
    {
      "midi": 59,
      "hit": false,
      "t": 190188.09599999976,
      "d": 259.43316666665487,
      "v": 90
    },
    {
      "midi": 74,
      "hit": false,
      "t": 190188.09600000005,
      "d": 2178.648979166668,
      "v": 50
    },
    {
      "midi": 79,
      "hit": false,
      "t": 190188.09600000005,
      "d": 2178.648979166668,
      "v": 50
    },
    {
      "midi": 71,
      "hit": false,
      "t": 190188.09600000005,
      "d": 2237.6110625000147,
      "v": 50
    },
    {
      "midi": 50,
      "hit": false,
      "t": 190188.0960000004,
      "d": 321.3433541666891,
      "v": 78
    },
    {
      "midi": 43,
      "hit": false,
      "t": 190188.09600000046,
      "d": 1874.9942499999888,
      "v": 95
    },
    {
      "midi": 67,
      "hit": false,
      "t": 190188.09600000046,
      "d": 1889.73477083334,
      "v": 86
    },
    {
      "midi": 62,
      "hit": false,
      "t": 190191.04410416642,
      "d": 268.27747916665976,
      "v": 98
    },
    {
      "midi": 62,
      "hit": false,
      "t": 190191.04410416711,
      "d": 1877.9423541666765,
      "v": 86
    },
    {
      "midi": 55,
      "hit": false,
      "t": 190193.99220833307,
      "d": 265.32937500000116,
      "v": 94
    },
    {
      "midi": 67,
      "hit": false,
      "t": 190193.99220833307,
      "d": 277.12179166666465,
      "v": 92
    },
    {
      "midi": 50,
      "hit": false,
      "t": 190193.99220833377,
      "d": 1874.994250000018,
      "v": 95
    },
    {
      "midi": 62,
      "hit": false,
      "t": 190468.16589583308,
      "d": 259.43316666665487,
      "v": 97
    },
    {
      "midi": 55,
      "hit": false,
      "t": 190471.11399999974,
      "d": 259.43316666665487,
      "v": 98
    },
    {
      "midi": 67,
      "hit": false,
      "t": 190471.11399999974,
      "d": 259.43316666665487,
      "v": 95
    },
    {
      "midi": 59,
      "hit": false,
      "t": 190474.0621041664,
      "d": 259.43316666665487,
      "v": 81
    },
    {
      "midi": 67,
      "hit": false,
      "t": 190477.01020833393,
      "d": 294.8104166666744,
      "v": 95
    },
    {
      "midi": 52,
      "hit": false,
      "t": 190491.75072916708,
      "d": 91.39122916667839,
      "v": 82
    },
    {
      "midi": 67,
      "hit": false,
      "t": 190751.18389583306,
      "d": 259.43316666665487,
      "v": 98
    },
    {
      "midi": 55,
      "hit": false,
      "t": 190754.13199999972,
      "d": 259.43316666665487,
      "v": 96
    },
    {
      "midi": 62,
      "hit": false,
      "t": 190754.13200000042,
      "d": 2149.167937499995,
      "v": 60
    },
    {
      "midi": 59,
      "hit": false,
      "t": 190757.08010416638,
      "d": 259.43316666665487,
      "v": 94
    },
    {
      "midi": 62,
      "hit": false,
      "t": 190757.08010416638,
      "d": 259.43316666665487,
      "v": 97
    },
    {
      "midi": 31,
      "hit": false,
      "t": 190757.08010416658,
      "d": 350.82439583333326,
      "v": 110
    },
    {
      "midi": 55,
      "hit": false,
      "t": 190777.71683333375,
      "d": 1506.481229166675,
      "v": 98
    },
    {
      "midi": 62,
      "hit": false,
      "t": 191031.25379166636,
      "d": 117.92416666666395,
      "v": 85
    },
    {
      "midi": 67,
      "hit": false,
      "t": 191034.20189583302,
      "d": 117.92416666666395,
      "v": 93
    },
    {
      "midi": 55,
      "hit": false,
      "t": 191037.14999999967,
      "d": 117.92416666666395,
      "v": 75
    },
    {
      "midi": 59,
      "hit": false,
      "t": 191037.14999999967,
      "d": 117.92416666666395,
      "v": 82
    },
    {
      "midi": 67,
      "hit": false,
      "t": 191043.04620833395,
      "d": 657.4272291666712,
      "v": 94
    },
    {
      "midi": 62,
      "hit": false,
      "t": 191172.76279166635,
      "d": 259.43316666665487,
      "v": 88
    },
    {
      "midi": 67,
      "hit": false,
      "t": 191175.710895833,
      "d": 259.43316666665487,
      "v": 90
    },
    {
      "midi": 55,
      "hit": false,
      "t": 191178.65899999966,
      "d": 259.43316666665487,
      "v": 81
    },
    {
      "midi": 59,
      "hit": false,
      "t": 191178.65899999966,
      "d": 259.43316666665487,
      "v": 78
    },
    {
      "midi": 31,
      "hit": false,
      "t": 191199.2957291666,
      "d": 32.42914583333186,
      "v": 110
    },
    {
      "midi": 31,
      "hit": false,
      "t": 191314.2717916666,
      "d": 82.5469166666735,
      "v": 110
    },
    {
      "midi": 67,
      "hit": false,
      "t": 191452.83268749964,
      "d": 147.4052083333081,
      "v": 100
    },
    {
      "midi": 55,
      "hit": false,
      "t": 191455.7807916663,
      "d": 141.50899999999092,
      "v": 74
    },
    {
      "midi": 59,
      "hit": false,
      "t": 191455.7807916663,
      "d": 141.50899999999092,
      "v": 89
    },
    {
      "midi": 62,
      "hit": false,
      "t": 191458.72889583296,
      "d": 141.50899999999092,
      "v": 95
    },
    {
      "midi": 59,
      "hit": false,
      "t": 191597.2897916663,
      "d": 421.57889583331416,
      "v": 85
    },
    {
      "midi": 55,
      "hit": false,
      "t": 191597.2897916663,
      "d": 424.52699999997276,
      "v": 68
    },
    {
      "midi": 62,
      "hit": false,
      "t": 191600.23789583295,
      "d": 421.57889583331416,
      "v": 85
    },
    {
      "midi": 67,
      "hit": false,
      "t": 191600.23789583295,
      "d": 421.57889583331416,
      "v": 104
    },
    {
      "midi": 31,
      "hit": false,
      "t": 191600.23789583327,
      "d": 403.8902708333335,
      "v": 110
    },
    {
      "midi": 59,
      "hit": false,
      "t": 191892.10020833396,
      "d": 259.43316666665487,
      "v": 90
    },
    {
      "midi": 59,
      "hit": false,
      "t": 192018.8686874996,
      "d": 144.45710416667862,
      "v": 72
    },
    {
      "midi": 55,
      "hit": false,
      "t": 192021.81679166626,
      "d": 135.61279166667373,
      "v": 79
    },
    {
      "midi": 67,
      "hit": false,
      "t": 192021.81679166626,
      "d": 135.61279166667373,
      "v": 91
    },
    {
      "midi": 62,
      "hit": false,
      "t": 192021.81679166626,
      "d": 144.45710416667862,
      "v": 79
    },
    {
      "midi": 43,
      "hit": false,
      "t": 192148.5852708338,
      "d": 327.2395625000645,
      "v": 95
    },
    {
      "midi": 67,
      "hit": false,
      "t": 192157.42958333294,
      "d": 144.45710416667862,
      "v": 91
    },
    {
      "midi": 55,
      "hit": false,
      "t": 192157.42958333294,
      "d": 147.4052083333372,
      "v": 79
    },
    {
      "midi": 59,
      "hit": false,
      "t": 192163.32579166628,
      "d": 138.56089583333232,
      "v": 73
    },
    {
      "midi": 62,
      "hit": false,
      "t": 192166.27389583294,
      "d": 135.61279166667373,
      "v": 76
    },
    {
      "midi": 31,
      "hit": false,
      "t": 192166.27389583326,
      "d": 117.92416666666395,
      "v": 110
    },
    {
      "midi": 67,
      "hit": false,
      "t": 192166.27389583382,
      "d": 250.58885416667908,
      "v": 86
    },
    {
      "midi": 62,
      "hit": false,
      "t": 192166.27389583382,
      "d": 259.433166666684,
      "v": 86
    },
    {
      "midi": 50,
      "hit": false,
      "t": 192166.27389583382,
      "d": 277.12179166669375,
      "v": 95
    },
    {
      "midi": 60,
      "hit": false,
      "t": 192172.17010416728,
      "d": 377.3573333333188,
      "v": 104
    },
    {
      "midi": 59,
      "hit": false,
      "t": 192301.88668749962,
      "d": 117.92416666666395,
      "v": 78
    },
    {
      "midi": 62,
      "hit": false,
      "t": 192301.88668749962,
      "d": 120.87227083332255,
      "v": 79
    },
    {
      "midi": 67,
      "hit": false,
      "t": 192301.88668749962,
      "d": 415.68268749996787,
      "v": 106
    },
    {
      "midi": 55,
      "hit": false,
      "t": 192304.83479166628,
      "d": 415.68268749996787,
      "v": 83
    },
    {
      "midi": 48,
      "hit": false,
      "t": 192331.36772916708,
      "d": 126.76847916666884,
      "v": 67
    },
    {
      "midi": 50,
      "hit": false,
      "t": 192408.0184375004,
      "d": 327.2395625000063,
      "v": 79
    },
    {
      "midi": 62,
      "hit": false,
      "t": 192449.29189583386,
      "d": 1833.7207916666812,
      "v": 86
    },
    {
      "midi": 60,
      "hit": false,
      "t": 192452.2399999996,
      "d": 259.43316666665487,
      "v": 94
    },
    {
      "midi": 76,
      "hit": false,
      "t": 192452.24000000005,
      "d": 2163.908458333346,
      "v": 50
    },
    {
      "midi": 79,
      "hit": false,
      "t": 192452.24000000005,
      "d": 2163.908458333346,
      "v": 50
    },
    {
      "midi": 72,
      "hit": false,
      "t": 192452.24000000005,
      "d": 2190.4413958333316,
      "v": 50
    },
    {
      "midi": 67,
      "hit": false,
      "t": 192452.24000000051,
      "d": 1798.3435416666907,
      "v": 86
    },
    {
      "midi": 64,
      "hit": false,
      "t": 192455.18810416627,
      "d": 259.43316666665487,
      "v": 95
    },
    {
      "midi": 24,
      "hit": false,
      "t": 192455.1881041666,
      "d": 412.7345833333384,
      "v": 110
    },
    {
      "midi": 62,
      "hit": false,
      "t": 192456.6621562502,
      "d": 150.3533124999958,
      "v": 94
    },
    {
      "midi": 67,
      "hit": false,
      "t": 192456.6621562502,
      "d": 150.3533124999958,
      "v": 95
    },
    {
      "midi": 55,
      "hit": false,
      "t": 192469.92862500052,
      "d": 1901.5271875000326,
      "v": 95
    },
    {
      "midi": 48,
      "hit": false,
      "t": 192478.77293750053,
      "d": 1886.7866666666814,
      "v": 95
    },
    {
      "midi": 60,
      "hit": false,
      "t": 192729.36179166625,
      "d": 259.433166666684,
      "v": 95
    },
    {
      "midi": 64,
      "hit": false,
      "t": 192729.36179166625,
      "d": 259.433166666684,
      "v": 74
    },
    {
      "midi": 67,
      "hit": false,
      "t": 192729.36179166625,
      "d": 259.433166666684,
      "v": 88
    },
    {
      "midi": 62,
      "hit": false,
      "t": 192732.30989583393,
      "d": 259.43316666665487,
      "v": 88
    },
    {
      "midi": 55,
      "hit": false,
      "t": 192735.2579999996,
      "d": 259.433166666684,
      "v": 83
    },
    {
      "midi": 52,
      "hit": false,
      "t": 192735.2580000004,
      "d": 103.18364583334187,
      "v": 80
    },
    {
      "midi": 62,
      "hit": false,
      "t": 192739.68015625022,
      "d": 203.41918749999604,
      "v": 90
    },
    {
      "midi": 67,
      "hit": false,
      "t": 192739.68015625022,
      "d": 209.31539583334234,
      "v": 97
    },
    {
      "midi": 55,
      "hit": false,
      "t": 193006.48358333376,
      "d": 1273.5810000000056,
      "v": 98
    },
    {
      "midi": 67,
      "hit": false,
      "t": 193012.3797916663,
      "d": 259.43316666665487,
      "v": 102
    },
    {
      "midi": 64,
      "hit": false,
      "t": 193015.32789583295,
      "d": 259.43316666665487,
      "v": 97
    },
    {
      "midi": 55,
      "hit": false,
      "t": 193018.2759999996,
      "d": 259.43316666665487,
      "v": 74
    },
    {
      "midi": 60,
      "hit": false,
      "t": 193021.22410416626,
      "d": 259.43316666665487,
      "v": 96
    },
    {
      "midi": 24,
      "hit": false,
      "t": 193021.22410416658,
      "d": 318.3952500000014,
      "v": 110
    },
    {
      "midi": 60,
      "hit": false,
      "t": 193021.22410416725,
      "d": 173.93814583332278,
      "v": 104
    },
    {
      "midi": 62,
      "hit": false,
      "t": 193038.9127291671,
      "d": 1241.1518541666737,
      "v": 60
    },
    {
      "midi": 55,
      "hit": false,
      "t": 193295.39779166624,
      "d": 141.50899999999092,
      "v": 78
    },
    {
      "midi": 67,
      "hit": false,
      "t": 193295.39779166624,
      "d": 147.4052083333081,
      "v": 98
    },
    {
      "midi": 64,
      "hit": false,
      "t": 193298.3458958329,
      "d": 141.50899999999092,
      "v": 84
    },
    {
      "midi": 60,
      "hit": false,
      "t": 193298.3458958329,
      "d": 144.45710416664951,
      "v": 86
    },
    {
      "midi": 62,
      "hit": false,
      "t": 193305.71615625024,
      "d": 262.38127083334257,
      "v": 91
    },
    {
      "midi": 67,
      "hit": false,
      "t": 193305.71615625024,
      "d": 274.17368750000605,
      "v": 98
    },
    {
      "midi": 62,
      "hit": false,
      "t": 193307.19020833392,
      "d": 333.1357708333235,
      "v": 95
    },
    {
      "midi": 55,
      "hit": false,
      "t": 193436.90679166623,
      "d": 259.43316666665487,
      "v": 72
    },
    {
      "midi": 64,
      "hit": false,
      "t": 193439.8548958329,
      "d": 259.43316666665487,
      "v": 98
    },
    {
      "midi": 60,
      "hit": false,
      "t": 193442.80299999955,
      "d": 259.43316666665487,
      "v": 93
    },
    {
      "midi": 67,
      "hit": false,
      "t": 193442.80299999955,
      "d": 259.43316666665487,
      "v": 95
    },
    {
      "midi": 24,
      "hit": false,
      "t": 193463.4397291666,
      "d": 32.42914583333186,
      "v": 110
    },
    {
      "midi": 24,
      "hit": false,
      "t": 193578.4157916666,
      "d": 53.06587500000023,
      "v": 110
    },
    {
      "midi": 60,
      "hit": false,
      "t": 193714.02858333287,
      "d": 144.45710416667862,
      "v": 97
    },
    {
      "midi": 67,
      "hit": false,
      "t": 193716.97668749953,
      "d": 141.50900000002002,
      "v": 101
    },
    {
      "midi": 55,
      "hit": false,
      "t": 193716.97668749953,
      "d": 144.45710416667862,
      "v": 76
    },
    {
      "midi": 64,
      "hit": false,
      "t": 193722.87289583287,
      "d": 135.61279166667373,
      "v": 86
    },
    {
      "midi": 60,
      "hit": false,
      "t": 193858.48568749955,
      "d": 386.2016458333237,
      "v": 91
    },
    {
      "midi": 67,
      "hit": false,
      "t": 193858.48568749955,
      "d": 397.9940624999872,
      "v": 97
    },
    {
      "midi": 64,
      "hit": false,
      "t": 193858.48568749955,
      "d": 400.9421666666458,
      "v": 89
    },
    {
      "midi": 55,
      "hit": false,
      "t": 193861.4337916662,
      "d": 397.9940624999872,
      "v": 85
    },
    {
      "midi": 24,
      "hit": false,
      "t": 193867.32999999993,
      "d": 362.61681249999674,
      "v": 110
    },
    {
      "midi": 60,
      "hit": false,
      "t": 193870.27810416726,
      "d": 347.87629166667466,
      "v": 109
    },
    {
      "midi": 67,
      "hit": false,
      "t": 193871.75215625024,
      "d": 306.6028333333379,
      "v": 96
    },
    {
      "midi": 62,
      "hit": false,
      "t": 193871.75215625024,
      "d": 309.5509374999965,
      "v": 90
    },
    {
      "midi": 60,
      "hit": false,
      "t": 194280.06458333286,
      "d": 141.50899999999092,
      "v": 79
    },
    {
      "midi": 55,
      "hit": false,
      "t": 194283.01268749952,
      "d": 141.50899999999092,
      "v": 73
    },
    {
      "midi": 64,
      "hit": false,
      "t": 194283.01268749952,
      "d": 141.50899999999092,
      "v": 81
    },
    {
      "midi": 67,
      "hit": false,
      "t": 194285.96079166618,
      "d": 138.56089583333232,
      "v": 97
    },
    {
      "midi": 62,
      "hit": false,
      "t": 194418.6254791671,
      "d": 1022.9921458333265,
      "v": 60
    },
    {
      "midi": 60,
      "hit": false,
      "t": 194421.57358333285,
      "d": 141.50899999999092,
      "v": 80
    },
    {
      "midi": 55,
      "hit": false,
      "t": 194424.5216874995,
      "d": 138.56089583333232,
      "v": 73
    },
    {
      "midi": 64,
      "hit": false,
      "t": 194424.5216874995,
      "d": 144.45710416667862,
      "v": 83
    },
    {
      "midi": 67,
      "hit": false,
      "t": 194424.5216874995,
      "d": 144.45710416667862,
      "v": 80
    },
    {
      "midi": 24,
      "hit": false,
      "t": 194427.4697916666,
      "d": 73.7026041666686,
      "v": 110
    },
    {
      "midi": 62,
      "hit": false,
      "t": 194430.4178958339,
      "d": 265.32937500000116,
      "v": 86
    },
    {
      "midi": 55,
      "hit": false,
      "t": 194433.36600000042,
      "d": 492.3333958333242,
      "v": 97
    },
    {
      "midi": 67,
      "hit": false,
      "t": 194433.36600000056,
      "d": 262.38127083334257,
      "v": 86
    },
    {
      "midi": 66,
      "hit": false,
      "t": 194437.78815625023,
      "d": 339.03197916666977,
      "v": 98
    },
    {
      "midi": 62,
      "hit": false,
      "t": 194437.78815625023,
      "d": 341.98008333332837,
      "v": 90
    },
    {
      "midi": 48,
      "hit": false,
      "t": 194439.2622083339,
      "d": 253.53695833333768,
      "v": 95
    },
    {
      "midi": 57,
      "hit": false,
      "t": 194439.26220833394,
      "d": 456.9561458333337,
      "v": 91
    },
    {
      "midi": 55,
      "hit": false,
      "t": 194442.21031250057,
      "d": 241.7445416666742,
      "v": 95
    },
    {
      "midi": 55,
      "hit": false,
      "t": 194563.08258333284,
      "d": 117.92416666669305,
      "v": 82
    },
    {
      "midi": 60,
      "hit": false,
      "t": 194563.08258333284,
      "d": 117.92416666669305,
      "v": 82
    },
    {
      "midi": 64,
      "hit": false,
      "t": 194568.9787916662,
      "d": 117.92416666669305,
      "v": 94
    },
    {
      "midi": 67,
      "hit": false,
      "t": 194568.9787916662,
      "d": 117.92416666669305,
      "v": 102
    },
    {
      "midi": 67,
      "hit": false,
      "t": 194707.53968749955,
      "d": 259.433166666684,
      "v": 92
    },
    {
      "midi": 26,
      "hit": false,
      "t": 194710.48779166662,
      "d": 412.7345833333384,
      "v": 110
    },
    {
      "midi": 57,
      "hit": false,
      "t": 194713.4358958329,
      "d": 259.433166666684,
      "v": 90
    },
    {
      "midi": 62,
      "hit": false,
      "t": 194713.4358958329,
      "d": 259.433166666684,
      "v": 100
    },
    {
      "midi": 67,
      "hit": false,
      "t": 194713.4358958339,
      "d": 2449.8745625000447,
      "v": 86
    },
    {
      "midi": 79,
      "hit": false,
      "t": 194716.38400000005,
      "d": 1096.694749999995,
      "v": 50
    },
    {
      "midi": 74,
      "hit": false,
      "t": 194716.38400000005,
      "d": 4398.571416666644,
      "v": 50
    },
    {
      "midi": 81,
      "hit": false,
      "t": 194716.38400000005,
      "d": 4404.46762499999,
      "v": 50
    },
    {
      "midi": 62,
      "hit": false,
      "t": 194719.33210416726,
      "d": 2458.7188750000205,
      "v": 86
    },
    {
      "midi": 69,
      "hit": false,
      "t": 194731.1245208329,
      "d": 480.5409791666607,
      "v": 98
    },
    {
      "midi": 50,
      "hit": false,
      "t": 194737.02072916727,
      "d": 4030.058395833359,
      "v": 95
    },
    {
      "midi": 57,
      "hit": false,
      "t": 194742.91693750062,
      "d": 3988.7849375000224,
      "v": 95
    },
    {
      "midi": 57,
      "hit": false,
      "t": 194984.6614791671,
      "d": 138.56089583333232,
      "v": 95
    },
    {
      "midi": 62,
      "hit": false,
      "t": 194993.50579166625,
      "d": 259.43316666665487,
      "v": 90
    },
    {
      "midi": 67,
      "hit": false,
      "t": 194993.50579166625,
      "d": 259.43316666665487,
      "v": 94
    },
    {
      "midi": 57,
      "hit": false,
      "t": 194996.4538958329,
      "d": 259.43316666665487,
      "v": 96
    },
    {
      "midi": 57,
      "hit": false,
      "t": 195273.57568749957,
      "d": 259.43316666665487,
      "v": 91
    },
    {
      "midi": 67,
      "hit": false,
      "t": 195276.52379166623,
      "d": 259.43316666665487,
      "v": 97
    },
    {
      "midi": 26,
      "hit": false,
      "t": 195276.5237916666,
      "d": 350.82439583333326,
      "v": 110
    },
    {
      "midi": 62,
      "hit": false,
      "t": 195279.4718958329,
      "d": 259.43316666665487,
      "v": 100
    },
    {
      "midi": 57,
      "hit": false,
      "t": 195285.36810416708,
      "d": 156.2495208333421,
      "v": 95
    },
    {
      "midi": 69,
      "hit": false,
      "t": 195291.26431249955,
      "d": 350.82439583330415,
      "v": 100
    },
    {
      "midi": 62,
      "hit": false,
      "t": 195547.74937500042,
      "d": 200.47108333333745,
      "v": 60
    },
    {
      "midi": 62,
      "hit": false,
      "t": 195559.5417916662,
      "d": 397.9940624999581,
      "v": 93
    },
    {
      "midi": 57,
      "hit": false,
      "t": 195562.48989583287,
      "d": 117.92416666666395,
      "v": 90
    },
    {
      "midi": 55,
      "hit": false,
      "t": 195562.48989583374,
      "d": 144.45710416667862,
      "v": 99
    },
    {
      "midi": 67,
      "hit": false,
      "t": 195565.43799999953,
      "d": 117.92416666666395,
      "v": 98
    },
    {
      "midi": 66,
      "hit": false,
      "t": 195698.10268749952,
      "d": 235.8483333333279,
      "v": 105
    },
    {
      "midi": 57,
      "hit": false,
      "t": 195701.05079166617,
      "d": 244.6926458333328,
      "v": 90
    },
    {
      "midi": 69,
      "hit": false,
      "t": 195712.84320833284,
      "d": 341.98008333332837,
      "v": 95
    },
    {
      "midi": 26,
      "hit": false,
      "t": 195721.68752083328,
      "d": 32.42914583333186,
      "v": 110
    },
    {
      "midi": 26,
      "hit": false,
      "t": 195845.5078958333,
      "d": 76.6507083333272,
      "v": 110
    },
    {
      "midi": 62,
      "hit": false,
      "t": 195845.50789583375,
      "d": 244.6926458333328,
      "v": 60
    },
    {
      "midi": 78,
      "hit": false,
      "t": 195848.45600000003,
      "d": 1105.5390625,
      "v": 45
    },
    {
      "midi": 57,
      "hit": false,
      "t": 195854.35220833376,
      "d": 247.64074999999139,
      "v": 99
    },
    {
      "midi": 62,
      "hit": false,
      "t": 195984.06879166616,
      "d": 117.92416666666395,
      "v": 75
    },
    {
      "midi": 66,
      "hit": false,
      "t": 195984.06879166616,
      "d": 117.92416666666395,
      "v": 81
    },
    {
      "midi": 57,
      "hit": false,
      "t": 195989.9649999995,
      "d": 117.92416666666395,
      "v": 90
    },
    {
      "midi": 66,
      "hit": false,
      "t": 196125.57779166618,
      "d": 400.9421666666749,
      "v": 102
    },
    {
      "midi": 57,
      "hit": false,
      "t": 196128.52589583283,
      "d": 400.9421666666749,
      "v": 99
    },
    {
      "midi": 62,
      "hit": false,
      "t": 196128.52589583283,
      "d": 400.9421666666749,
      "v": 98
    },
    {
      "midi": 26,
      "hit": false,
      "t": 196134.42210416662,
      "d": 409.7864791666798,
      "v": 110
    },
    {
      "midi": 69,
      "hit": false,
      "t": 196146.21452083284,
      "d": 766.5070833333593,
      "v": 97
    },
    {
      "midi": 66,
      "hit": false,
      "t": 196547.15668749952,
      "d": 117.92416666669305,
      "v": 97
    },
    {
      "midi": 57,
      "hit": false,
      "t": 196553.05289583287,
      "d": 141.50899999999092,
      "v": 84
    },
    {
      "midi": 62,
      "hit": false,
      "t": 196553.05289583287,
      "d": 259.43316666665487,
      "v": 96
    },
    {
      "midi": 62,
      "hit": false,
      "t": 196682.76947916707,
      "d": 1329.5949791666935,
      "v": 60
    },
    {
      "midi": 67,
      "hit": false,
      "t": 196691.6137916662,
      "d": 138.56089583333232,
      "v": 103
    },
    {
      "midi": 57,
      "hit": false,
      "t": 196694.56189583286,
      "d": 141.50900000002002,
      "v": 86
    },
    {
      "midi": 26,
      "hit": false,
      "t": 196694.5618958333,
      "d": 76.6507083333272,
      "v": 110
    },
    {
      "midi": 55,
      "hit": false,
      "t": 196694.56189583373,
      "d": 518.8663333333388,
      "v": 108
    },
    {
      "midi": 67,
      "hit": false,
      "t": 196830.17468749953,
      "d": 147.40520833336632,
      "v": 96
    },
    {
      "midi": 57,
      "hit": false,
      "t": 196836.07089583288,
      "d": 135.61279166667373,
      "v": 89
    },
    {
      "midi": 62,
      "hit": false,
      "t": 196839.01899999953,
      "d": 138.56089583336143,
      "v": 84
    },
    {
      "midi": 57,
      "hit": false,
      "t": 196971.68368749955,
      "d": 259.433166666684,
      "v": 85
    },
    {
      "midi": 62,
      "hit": false,
      "t": 196977.5798958329,
      "d": 259.433166666684,
      "v": 94
    },
    {
      "midi": 67,
      "hit": false,
      "t": 196977.5798958329,
      "d": 259.433166666684,
      "v": 100
    },
    {
      "midi": 79,
      "hit": false,
      "t": 196980.52800000002,
      "d": 1090.798541666678,
      "v": 50
    },
    {
      "midi": 69,
      "hit": false,
      "t": 196983.47610416624,
      "d": 480.5409791666607,
      "v": 99
    },
    {
      "midi": 26,
      "hit": false,
      "t": 196983.47610416662,
      "d": 412.7345833333384,
      "v": 110
    },
    {
      "midi": 57,
      "hit": false,
      "t": 197254.7016874996,
      "d": 259.43316666665487,
      "v": 79
    },
    {
      "midi": 62,
      "hit": false,
      "t": 197257.64979166625,
      "d": 259.43316666665487,
      "v": 95
    },
    {
      "midi": 62,
      "hit": false,
      "t": 197257.6497916673,
      "d": 486.4371874999779,
      "v": 86
    },
    {
      "midi": 67,
      "hit": false,
      "t": 197260.5978958329,
      "d": 259.43316666665487,
      "v": 92
    },
    {
      "midi": 57,
      "hit": false,
      "t": 197260.59789583372,
      "d": 138.56089583333232,
      "v": 101
    },
    {
      "midi": 67,
      "hit": false,
      "t": 197260.59789583395,
      "d": 566.0359999999928,
      "v": 86
    },
    {
      "midi": 57,
      "hit": false,
      "t": 197540.66779166623,
      "d": 259.43316666665487,
      "v": 79
    },
    {
      "midi": 67,
      "hit": false,
      "t": 197543.6158958329,
      "d": 330.1876666666358,
      "v": 102
    },
    {
      "midi": 62,
      "hit": false,
      "t": 197543.6158958329,
      "d": 339.03197916664067,
      "v": 84
    },
    {
      "midi": 26,
      "hit": false,
      "t": 197543.6158958333,
      "d": 297.758520833333,
      "v": 110
    },
    {
      "midi": 57,
      "hit": false,
      "t": 197543.61589583373,
      "d": 147.4052083333372,
      "v": 100
    },
    {
      "midi": 69,
      "hit": false,
      "t": 197555.40831249955,
      "d": 356.72060416665045,
      "v": 96
    },
    {
      "midi": 57,
      "hit": false,
      "t": 197826.63389583287,
      "d": 117.92416666666395,
      "v": 82
    },
    {
      "midi": 55,
      "hit": false,
      "t": 197826.63389583374,
      "d": 147.4052083333372,
      "v": 104
    },
    {
      "midi": 66,
      "hit": false,
      "t": 197962.24668749954,
      "d": 259.43316666662577,
      "v": 97
    },
    {
      "midi": 57,
      "hit": false,
      "t": 197965.1947916662,
      "d": 259.43316666662577,
      "v": 83
    },
    {
      "midi": 62,
      "hit": false,
      "t": 197968.14289583286,
      "d": 259.43316666662577,
      "v": 92
    },
    {
      "midi": 69,
      "hit": false,
      "t": 197982.88341666618,
      "d": 315.4471458333137,
      "v": 100
    },
    {
      "midi": 26,
      "hit": false,
      "t": 197991.72772916663,
      "d": 32.42914583333186,
      "v": 110
    },
    {
      "midi": 62,
      "hit": false,
      "t": 198106.7037916671,
      "d": 173.93814583335188,
      "v": 60
    },
    {
      "midi": 26,
      "hit": false,
      "t": 198109.6518958333,
      "d": 85.49502083333209,
      "v": 110
    },
    {
      "midi": 62,
      "hit": false,
      "t": 198109.65189583396,
      "d": 247.64074999999139,
      "v": 86
    },
    {
      "midi": 78,
      "hit": false,
      "t": 198112.60000000003,
      "d": 1002.3554166666581,
      "v": 45
    },
    {
      "midi": 67,
      "hit": false,
      "t": 198112.60000000062,
      "d": 250.58885416667908,
      "v": 86
    },
    {
      "midi": 57,
      "hit": false,
      "t": 198124.3924166671,
      "d": 147.4052083333372,
      "v": 98
    },
    {
      "midi": 57,
      "hit": false,
      "t": 198245.2646874995,
      "d": 147.4052083333372,
      "v": 80
    },
    {
      "midi": 66,
      "hit": false,
      "t": 198245.2646874995,
      "d": 147.4052083333372,
      "v": 88
    },
    {
      "midi": 62,
      "hit": false,
      "t": 198254.1089999995,
      "d": 132.66468749998603,
      "v": 81
    },
    {
      "midi": 62,
      "hit": false,
      "t": 198386.7736874995,
      "d": 400.9421666666749,
      "v": 91
    },
    {
      "midi": 26,
      "hit": false,
      "t": 198389.7217916666,
      "d": 409.7864791666798,
      "v": 110
    },
    {
      "midi": 67,
      "hit": false,
      "t": 198389.72179166728,
      "d": 271.22558333334746,
      "v": 86
    },
    {
      "midi": 57,
      "hit": false,
      "t": 198392.66989583283,
      "d": 400.9421666666749,
      "v": 98
    },
    {
      "midi": 66,
      "hit": false,
      "t": 198392.66989583283,
      "d": 400.9421666666749,
      "v": 99
    },
    {
      "midi": 67,
      "hit": false,
      "t": 198392.66989583394,
      "d": 179.83435416666907,
      "v": 88
    },
    {
      "midi": 62,
      "hit": false,
      "t": 198398.5661041673,
      "d": 274.17368750000605,
      "v": 86
    },
    {
      "midi": 62,
      "hit": false,
      "t": 198404.46231250046,
      "d": 262.38127083331347,
      "v": 60
    },
    {
      "midi": 69,
      "hit": false,
      "t": 198413.3066249995,
      "d": 819.5729583333305,
      "v": 103
    },
    {
      "midi": 55,
      "hit": false,
      "t": 198416.25472916712,
      "d": 141.50899999999092,
      "v": 104
    },
    {
      "midi": 50,
      "hit": false,
      "t": 198675.68789583378,
      "d": 82.5469166666735,
      "v": 73
    },
    {
      "midi": 66,
      "hit": false,
      "t": 198684.53220833396,
      "d": 244.6926458333328,
      "v": 94
    },
    {
      "midi": 52,
      "hit": false,
      "t": 198728.75377083378,
      "d": 135.61279166667373,
      "v": 78
    },
    {
      "midi": 62,
      "hit": false,
      "t": 198811.30068749952,
      "d": 259.43316666665487,
      "v": 83
    },
    {
      "midi": 66,
      "hit": false,
      "t": 198814.24879166618,
      "d": 117.92416666666395,
      "v": 88
    },
    {
      "midi": 57,
      "hit": false,
      "t": 198817.19689583284,
      "d": 117.92416666666395,
      "v": 77
    },
    {
      "midi": 43,
      "hit": false,
      "t": 198938.0691666673,
      "d": 218.15970833334723,
      "v": 95
    },
    {
      "midi": 50,
      "hit": false,
      "t": 198943.96537500064,
      "d": 215.21160416665953,
      "v": 95
    },
    {
      "midi": 67,
      "hit": false,
      "t": 198955.75779166617,
      "d": 117.92416666666395,
      "v": 97
    },
    {
      "midi": 62,
      "hit": false,
      "t": 198955.75779166713,
      "d": 2446.9264583332697,
      "v": 60
    },
    {
      "midi": 62,
      "hit": false,
      "t": 198958.70589583396,
      "d": 259.433166666684,
      "v": 86
    },
    {
      "midi": 67,
      "hit": false,
      "t": 198958.70589583396,
      "d": 262.38127083334257,
      "v": 86
    },
    {
      "midi": 57,
      "hit": false,
      "t": 198961.65399999951,
      "d": 117.92416666666395,
      "v": 71
    },
    {
      "midi": 26,
      "hit": false,
      "t": 198961.65399999995,
      "d": 38.32535416667815,
      "v": 110
    },
    {
      "midi": 67,
      "hit": false,
      "t": 198967.55020833397,
      "d": 147.4052083333372,
      "v": 92
    },
    {
      "midi": 55,
      "hit": false,
      "t": 198985.2388333338,
      "d": 757.6627708332671,
      "v": 98
    },
    {
      "midi": 62,
      "hit": false,
      "t": 199100.21489583285,
      "d": 117.92416666666395,
      "v": 86
    },
    {
      "midi": 67,
      "hit": false,
      "t": 199100.21489583285,
      "d": 117.92416666666395,
      "v": 98
    },
    {
      "midi": 57,
      "hit": false,
      "t": 199103.1629999995,
      "d": 117.92416666666395,
      "v": 79
    },
    {
      "midi": 26,
      "hit": false,
      "t": 199126.7478333333,
      "d": 17.68862500000978,
      "v": 110
    },
    {
      "midi": 48,
      "hit": false,
      "t": 199238.77579166714,
      "d": 94.33933333330788,
      "v": 80
    },
    {
      "midi": 67,
      "hit": false,
      "t": 199238.7757916673,
      "d": 1889.73477083334,
      "v": 86
    },
    {
      "midi": 31,
      "hit": false,
      "t": 199241.7238958333,
      "d": 353.77249999999185,
      "v": 110
    },
    {
      "midi": 59,
      "hit": false,
      "t": 199244.6719999995,
      "d": 259.43316666665487,
      "v": 90
    },
    {
      "midi": 74,
      "hit": false,
      "t": 199244.67200000005,
      "d": 2178.648979166668,
      "v": 50
    },
    {
      "midi": 79,
      "hit": false,
      "t": 199244.67200000005,
      "d": 2178.648979166668,
      "v": 50
    },
    {
      "midi": 71,
      "hit": false,
      "t": 199244.67200000005,
      "d": 2237.6110625000147,
      "v": 50
    },
    {
      "midi": 43,
      "hit": false,
      "t": 199244.67200000066,
      "d": 1874.994250000018,
      "v": 95
    },
    {
      "midi": 62,
      "hit": false,
      "t": 199244.67200000066,
      "d": 1877.9423541666765,
      "v": 86
    },
    {
      "midi": 62,
      "hit": false,
      "t": 199247.62010416616,
      "d": 268.27747916665976,
      "v": 98
    },
    {
      "midi": 55,
      "hit": false,
      "t": 199250.5682083328,
      "d": 265.32937500000116,
      "v": 94
    },
    {
      "midi": 67,
      "hit": false,
      "t": 199250.5682083328,
      "d": 277.12179166666465,
      "v": 92
    },
    {
      "midi": 71,
      "hit": false,
      "t": 199250.56820833398,
      "d": 277.12179166666465,
      "v": 95
    },
    {
      "midi": 50,
      "hit": false,
      "t": 199250.568208334,
      "d": 1874.9942499999888,
      "v": 95
    },
    {
      "midi": 50,
      "hit": false,
      "t": 199306.58218750046,
      "d": 241.7445416666451,
      "v": 75
    },
    {
      "midi": 62,
      "hit": false,
      "t": 199524.74189583282,
      "d": 259.43316666665487,
      "v": 97
    },
    {
      "midi": 55,
      "hit": false,
      "t": 199527.68999999948,
      "d": 259.43316666665487,
      "v": 98
    },
    {
      "midi": 67,
      "hit": false,
      "t": 199527.68999999948,
      "d": 259.43316666665487,
      "v": 95
    },
    {
      "midi": 59,
      "hit": false,
      "t": 199530.63810416614,
      "d": 259.43316666665487,
      "v": 81
    },
    {
      "midi": 67,
      "hit": false,
      "t": 199533.586208334,
      "d": 235.8483333333279,
      "v": 92
    },
    {
      "midi": 52,
      "hit": false,
      "t": 199563.06725000043,
      "d": 100.23554166665417,
      "v": 84
    },
    {
      "midi": 67,
      "hit": false,
      "t": 199807.7598958328,
      "d": 259.43316666665487,
      "v": 98
    },
    {
      "midi": 55,
      "hit": false,
      "t": 199810.70799999946,
      "d": 259.43316666665487,
      "v": 96
    },
    {
      "midi": 31,
      "hit": false,
      "t": 199810.70799999996,
      "d": 353.77249999999185,
      "v": 110
    },
    {
      "midi": 59,
      "hit": false,
      "t": 199813.65610416612,
      "d": 259.43316666665487,
      "v": 94
    },
    {
      "midi": 62,
      "hit": false,
      "t": 199813.65610416612,
      "d": 259.43316666665487,
      "v": 97
    },
    {
      "midi": 55,
      "hit": false,
      "t": 199822.50041666706,
      "d": 1527.1179583333433,
      "v": 104
    },
    {
      "midi": 62,
      "hit": false,
      "t": 200087.8297916661,
      "d": 117.92416666666395,
      "v": 85
    },
    {
      "midi": 67,
      "hit": false,
      "t": 200090.77789583275,
      "d": 117.92416666666395,
      "v": 93
    },
    {
      "midi": 55,
      "hit": false,
      "t": 200093.7259999994,
      "d": 117.92416666666395,
      "v": 75
    },
    {
      "midi": 59,
      "hit": false,
      "t": 200093.7259999994,
      "d": 117.92416666666395,
      "v": 82
    },
    {
      "midi": 67,
      "hit": false,
      "t": 200099.62220833398,
      "d": 825.4691666666768,
      "v": 92
    },
    {
      "midi": 62,
      "hit": false,
      "t": 200229.3387916661,
      "d": 259.43316666665487,
      "v": 88
    },
    {
      "midi": 67,
      "hit": false,
      "t": 200232.28689583275,
      "d": 259.43316666665487,
      "v": 90
    },
    {
      "midi": 55,
      "hit": false,
      "t": 200235.2349999994,
      "d": 259.43316666665487,
      "v": 81
    },
    {
      "midi": 59,
      "hit": false,
      "t": 200235.2349999994,
      "d": 259.43316666665487,
      "v": 78
    },
    {
      "midi": 31,
      "hit": false,
      "t": 200249.97552083328,
      "d": 32.42914583333186,
      "v": 110
    },
    {
      "midi": 31,
      "hit": false,
      "t": 200373.7958958333,
      "d": 58.96208333334653,
      "v": 110
    },
    {
      "midi": 67,
      "hit": false,
      "t": 200509.40868749938,
      "d": 147.4052083333081,
      "v": 100
    },
    {
      "midi": 55,
      "hit": false,
      "t": 200512.35679166604,
      "d": 141.50899999999092,
      "v": 74
    },
    {
      "midi": 59,
      "hit": false,
      "t": 200512.35679166604,
      "d": 141.50899999999092,
      "v": 89
    },
    {
      "midi": 62,
      "hit": false,
      "t": 200515.3048958327,
      "d": 141.50899999999092,
      "v": 95
    },
    {
      "midi": 59,
      "hit": false,
      "t": 200653.86579166603,
      "d": 421.57889583331416,
      "v": 85
    },
    {
      "midi": 55,
      "hit": false,
      "t": 200653.86579166603,
      "d": 424.52699999997276,
      "v": 68
    },
    {
      "midi": 62,
      "hit": false,
      "t": 200656.8138958327,
      "d": 421.57889583331416,
      "v": 85
    },
    {
      "midi": 67,
      "hit": false,
      "t": 200656.8138958327,
      "d": 421.57889583331416,
      "v": 104
    },
    {
      "midi": 31,
      "hit": false,
      "t": 200662.71010416665,
      "d": 365.56491666665534,
      "v": 110
    },
    {
      "midi": 59,
      "hit": false,
      "t": 200948.67620833399,
      "d": 265.32937500000116,
      "v": 92
    },
    {
      "midi": 59,
      "hit": false,
      "t": 201075.44468749934,
      "d": 144.45710416667862,
      "v": 72
    },
    {
      "midi": 55,
      "hit": false,
      "t": 201078.392791666,
      "d": 135.61279166667373,
      "v": 79
    },
    {
      "midi": 67,
      "hit": false,
      "t": 201078.392791666,
      "d": 135.61279166667373,
      "v": 91
    },
    {
      "midi": 62,
      "hit": false,
      "t": 201078.392791666,
      "d": 144.45710416667862,
      "v": 79
    },
    {
      "midi": 43,
      "hit": false,
      "t": 201205.16127083398,
      "d": 327.2395624999772,
      "v": 95
    },
    {
      "midi": 67,
      "hit": false,
      "t": 201214.00558333268,
      "d": 144.45710416667862,
      "v": 91
    },
    {
      "midi": 55,
      "hit": false,
      "t": 201214.00558333268,
      "d": 147.4052083333372,
      "v": 79
    },
    {
      "midi": 59,
      "hit": false,
      "t": 201219.90179166602,
      "d": 138.56089583333232,
      "v": 73
    },
    {
      "midi": 67,
      "hit": false,
      "t": 201219.9017916673,
      "d": 250.58885416664998,
      "v": 86
    },
    {
      "midi": 62,
      "hit": false,
      "t": 201219.9017916673,
      "d": 259.43316666665487,
      "v": 86
    },
    {
      "midi": 62,
      "hit": false,
      "t": 201222.84989583268,
      "d": 135.61279166667373,
      "v": 76
    },
    {
      "midi": 31,
      "hit": false,
      "t": 201222.8498958333,
      "d": 91.39122916667839,
      "v": 110
    },
    {
      "midi": 50,
      "hit": false,
      "t": 201222.84989583396,
      "d": 277.12179166666465,
      "v": 95
    },
    {
      "midi": 60,
      "hit": false,
      "t": 201228.7461041673,
      "d": 386.2016458333237,
      "v": 104
    },
    {
      "midi": 59,
      "hit": false,
      "t": 201358.46268749936,
      "d": 117.92416666666395,
      "v": 78
    },
    {
      "midi": 62,
      "hit": false,
      "t": 201358.46268749936,
      "d": 120.87227083332255,
      "v": 79
    },
    {
      "midi": 67,
      "hit": false,
      "t": 201358.46268749936,
      "d": 415.68268749996787,
      "v": 106
    },
    {
      "midi": 55,
      "hit": false,
      "t": 201361.410791666,
      "d": 415.68268749996787,
      "v": 83
    },
    {
      "midi": 48,
      "hit": false,
      "t": 201390.89183333374,
      "d": 123.82037500001024,
      "v": 85
    },
    {
      "midi": 50,
      "hit": false,
      "t": 201488.17927083373,
      "d": 247.6407500000205,
      "v": 85
    },
    {
      "midi": 62,
      "hit": false,
      "t": 201494.07547916708,
      "d": 436.31941666666535,
      "v": 60
    },
    {
      "midi": 67,
      "hit": false,
      "t": 201502.9197916673,
      "d": 1798.3435416666616,
      "v": 86
    },
    {
      "midi": 62,
      "hit": false,
      "t": 201502.9197916673,
      "d": 1833.720791666652,
      "v": 86
    },
    {
      "midi": 60,
      "hit": false,
      "t": 201508.81599999935,
      "d": 259.43316666665487,
      "v": 94
    },
    {
      "midi": 24,
      "hit": false,
      "t": 201508.81599999996,
      "d": 374.4092291666602,
      "v": 110
    },
    {
      "midi": 76,
      "hit": false,
      "t": 201508.81600000005,
      "d": 2163.908458333346,
      "v": 50
    },
    {
      "midi": 79,
      "hit": false,
      "t": 201508.81600000005,
      "d": 2163.908458333346,
      "v": 50
    },
    {
      "midi": 72,
      "hit": false,
      "t": 201508.81600000005,
      "d": 2190.4413958333316,
      "v": 50
    },
    {
      "midi": 64,
      "hit": false,
      "t": 201511.764104166,
      "d": 259.43316666665487,
      "v": 95
    },
    {
      "midi": 55,
      "hit": false,
      "t": 201526.5046250006,
      "d": 1901.5271875000035,
      "v": 95
    },
    {
      "midi": 48,
      "hit": false,
      "t": 201535.34893750062,
      "d": 1886.7866666666523,
      "v": 95
    },
    {
      "midi": 52,
      "hit": false,
      "t": 201780.04158333375,
      "d": 126.76847916666884,
      "v": 86
    },
    {
      "midi": 60,
      "hit": false,
      "t": 201785.937791666,
      "d": 259.433166666684,
      "v": 95
    },
    {
      "midi": 64,
      "hit": false,
      "t": 201785.937791666,
      "d": 259.433166666684,
      "v": 74
    },
    {
      "midi": 67,
      "hit": false,
      "t": 201785.937791666,
      "d": 259.433166666684,
      "v": 88
    },
    {
      "midi": 55,
      "hit": false,
      "t": 201791.83399999933,
      "d": 259.433166666684,
      "v": 83
    },
    {
      "midi": 62,
      "hit": false,
      "t": 201796.25615625022,
      "d": 176.88625000001048,
      "v": 98
    },
    {
      "midi": 67,
      "hit": false,
      "t": 201796.25615625022,
      "d": 194.57487500002026,
      "v": 90
    },
    {
      "midi": 62,
      "hit": false,
      "t": 201797.73020833396,
      "d": 262.38127083334257,
      "v": 90
    },
    {
      "midi": 67,
      "hit": false,
      "t": 202068.95579166603,
      "d": 259.43316666665487,
      "v": 102
    },
    {
      "midi": 64,
      "hit": false,
      "t": 202071.9038958327,
      "d": 259.43316666665487,
      "v": 97
    },
    {
      "midi": 24,
      "hit": false,
      "t": 202071.9038958333,
      "d": 362.61681249999674,
      "v": 110
    },
    {
      "midi": 55,
      "hit": false,
      "t": 202074.85199999934,
      "d": 259.43316666665487,
      "v": 74
    },
    {
      "midi": 60,
      "hit": false,
      "t": 202077.800104166,
      "d": 259.43316666665487,
      "v": 96
    },
    {
      "midi": 67,
      "hit": false,
      "t": 202079.27415625026,
      "d": 176.88625000001048,
      "v": 90
    },
    {
      "midi": 62,
      "hit": false,
      "t": 202079.27415625026,
      "d": 191.62677083333256,
      "v": 86
    },
    {
      "midi": 55,
      "hit": false,
      "t": 202080.74820833374,
      "d": 1229.3594375000102,
      "v": 107
    },
    {
      "midi": 62,
      "hit": false,
      "t": 202080.74820833374,
      "d": 1258.8404791666835,
      "v": 60
    },
    {
      "midi": 60,
      "hit": false,
      "t": 202080.74820833397,
      "d": 114.97606250000536,
      "v": 98
    },
    {
      "midi": 55,
      "hit": false,
      "t": 202351.97379166598,
      "d": 141.50899999999092,
      "v": 78
    },
    {
      "midi": 67,
      "hit": false,
      "t": 202351.97379166598,
      "d": 147.4052083333081,
      "v": 98
    },
    {
      "midi": 64,
      "hit": false,
      "t": 202354.92189583264,
      "d": 141.50899999999092,
      "v": 84
    },
    {
      "midi": 60,
      "hit": false,
      "t": 202354.92189583264,
      "d": 144.45710416664951,
      "v": 86
    },
    {
      "midi": 60,
      "hit": false,
      "t": 202360.81810416732,
      "d": 1102.5909583333996,
      "v": 109
    },
    {
      "midi": 62,
      "hit": false,
      "t": 202362.29215625027,
      "d": 713.44120833333,
      "v": 90
    },
    {
      "midi": 67,
      "hit": false,
      "t": 202362.29215625027,
      "d": 719.3374166666763,
      "v": 88
    },
    {
      "midi": 55,
      "hit": false,
      "t": 202493.48279166597,
      "d": 259.43316666665487,
      "v": 72
    },
    {
      "midi": 64,
      "hit": false,
      "t": 202496.43089583263,
      "d": 259.43316666665487,
      "v": 98
    },
    {
      "midi": 60,
      "hit": false,
      "t": 202499.3789999993,
      "d": 259.43316666665487,
      "v": 93
    },
    {
      "midi": 67,
      "hit": false,
      "t": 202499.3789999993,
      "d": 259.43316666665487,
      "v": 95
    },
    {
      "midi": 24,
      "hit": false,
      "t": 202520.01572916663,
      "d": 47.16966666665394,
      "v": 110
    },
    {
      "midi": 24,
      "hit": false,
      "t": 202643.8361041666,
      "d": 53.06587500000023,
      "v": 110
    },
    {
      "midi": 60,
      "hit": false,
      "t": 202770.6045833326,
      "d": 144.45710416667862,
      "v": 97
    },
    {
      "midi": 67,
      "hit": false,
      "t": 202773.55268749926,
      "d": 141.50900000002002,
      "v": 101
    },
    {
      "midi": 55,
      "hit": false,
      "t": 202773.55268749926,
      "d": 144.45710416667862,
      "v": 76
    },
    {
      "midi": 64,
      "hit": false,
      "t": 202779.4488958326,
      "d": 135.61279166667373,
      "v": 86
    },
    {
      "midi": 60,
      "hit": false,
      "t": 202915.06168749928,
      "d": 386.2016458333237,
      "v": 91
    },
    {
      "midi": 67,
      "hit": false,
      "t": 202915.06168749928,
      "d": 397.9940624999872,
      "v": 97
    },
    {
      "midi": 64,
      "hit": false,
      "t": 202915.06168749928,
      "d": 400.9421666666458,
      "v": 89
    },
    {
      "midi": 55,
      "hit": false,
      "t": 202918.00979166594,
      "d": 397.9940624999872,
      "v": 85
    },
    {
      "midi": 24,
      "hit": false,
      "t": 202923.90599999993,
      "d": 374.4092291666602,
      "v": 110
    },
    {
      "midi": 67,
      "hit": false,
      "t": 203211.34615625028,
      "d": 182.78245833332767,
      "v": 90
    },
    {
      "midi": 62,
      "hit": false,
      "t": 203211.34615625028,
      "d": 185.73056249998626,
      "v": 98
    },
    {
      "midi": 60,
      "hit": false,
      "t": 203336.6405833326,
      "d": 141.50899999999092,
      "v": 79
    },
    {
      "midi": 55,
      "hit": false,
      "t": 203339.58868749926,
      "d": 141.50899999999092,
      "v": 73
    },
    {
      "midi": 64,
      "hit": false,
      "t": 203339.58868749926,
      "d": 141.50899999999092,
      "v": 81
    },
    {
      "midi": 67,
      "hit": false,
      "t": 203342.53679166592,
      "d": 138.56089583333232,
      "v": 97
    },
    {
      "midi": 55,
      "hit": false,
      "t": 203475.2014791671,
      "d": 515.9182291666511,
      "v": 104
    },
    {
      "midi": 60,
      "hit": false,
      "t": 203478.1495833326,
      "d": 141.50899999999092,
      "v": 80
    },
    {
      "midi": 55,
      "hit": false,
      "t": 203481.09768749925,
      "d": 138.56089583333232,
      "v": 73
    },
    {
      "midi": 64,
      "hit": false,
      "t": 203481.09768749925,
      "d": 144.45710416667862,
      "v": 83
    },
    {
      "midi": 67,
      "hit": false,
      "t": 203481.09768749925,
      "d": 144.45710416667862,
      "v": 80
    },
    {
      "midi": 24,
      "hit": false,
      "t": 203484.04579166658,
      "d": 88.44312499999069,
      "v": 110
    },
    {
      "midi": 67,
      "hit": false,
      "t": 203484.04579166727,
      "d": 262.3812708333717,
      "v": 86
    },
    {
      "midi": 62,
      "hit": false,
      "t": 203486.99389583376,
      "d": 993.5111041667114,
      "v": 60
    },
    {
      "midi": 62,
      "hit": false,
      "t": 203489.94200000062,
      "d": 265.32937500003027,
      "v": 86
    },
    {
      "midi": 66,
      "hit": false,
      "t": 203494.36415625026,
      "d": 309.5509374999965,
      "v": 94
    },
    {
      "midi": 62,
      "hit": false,
      "t": 203494.36415625026,
      "d": 327.2395625000063,
      "v": 98
    },
    {
      "midi": 48,
      "hit": false,
      "t": 203495.83820833397,
      "d": 253.53695833333768,
      "v": 95
    },
    {
      "midi": 57,
      "hit": false,
      "t": 203495.83820833405,
      "d": 297.758520833333,
      "v": 98
    },
    {
      "midi": 55,
      "hit": false,
      "t": 203498.78631250063,
      "d": 241.7445416666742,
      "v": 95
    },
    {
      "midi": 55,
      "hit": false,
      "t": 203619.65858333258,
      "d": 117.92416666669305,
      "v": 82
    },
    {
      "midi": 60,
      "hit": false,
      "t": 203619.65858333258,
      "d": 117.92416666669305,
      "v": 82
    },
    {
      "midi": 64,
      "hit": false,
      "t": 203625.55479166593,
      "d": 117.92416666669305,
      "v": 94
    },
    {
      "midi": 67,
      "hit": false,
      "t": 203625.55479166593,
      "d": 117.92416666669305,
      "v": 102
    },
    {
      "midi": 67,
      "hit": false,
      "t": 203764.1156874993,
      "d": 259.433166666684,
      "v": 92
    },
    {
      "midi": 62,
      "hit": false,
      "t": 203767.06379166731,
      "d": 2458.7188750000205,
      "v": 86
    },
    {
      "midi": 57,
      "hit": false,
      "t": 203770.01189583263,
      "d": 259.433166666684,
      "v": 90
    },
    {
      "midi": 62,
      "hit": false,
      "t": 203770.01189583263,
      "d": 259.433166666684,
      "v": 100
    },
    {
      "midi": 26,
      "hit": false,
      "t": 203770.01189583325,
      "d": 383.2535416666651,
      "v": 110
    },
    {
      "midi": 79,
      "hit": false,
      "t": 203772.96000000005,
      "d": 1096.694749999995,
      "v": 50
    },
    {
      "midi": 74,
      "hit": false,
      "t": 203772.96000000005,
      "d": 4398.571416666644,
      "v": 50
    },
    {
      "midi": 81,
      "hit": false,
      "t": 203772.96000000005,
      "d": 4404.46762499999,
      "v": 50
    },
    {
      "midi": 67,
      "hit": false,
      "t": 203775.90810416732,
      "d": 2449.8745625000156,
      "v": 86
    },
    {
      "midi": 69,
      "hit": false,
      "t": 203787.70052083264,
      "d": 480.5409791666607,
      "v": 98
    },
    {
      "midi": 50,
      "hit": false,
      "t": 203793.59672916733,
      "d": 4030.05839583333,
      "v": 95
    },
    {
      "midi": 57,
      "hit": false,
      "t": 203799.49293750068,
      "d": 3988.7849374999932,
      "v": 95
    },
    {
      "midi": 57,
      "hit": false,
      "t": 204044.18558333375,
      "d": 141.50900000002002,
      "v": 99
    },
    {
      "midi": 62,
      "hit": false,
      "t": 204050.081791666,
      "d": 259.43316666665487,
      "v": 90
    },
    {
      "midi": 67,
      "hit": false,
      "t": 204050.081791666,
      "d": 259.43316666665487,
      "v": 94
    },
    {
      "midi": 57,
      "hit": false,
      "t": 204053.02989583265,
      "d": 259.43316666665487,
      "v": 96
    },
    {
      "midi": 57,
      "hit": false,
      "t": 204330.1516874993,
      "d": 259.43316666665487,
      "v": 91
    },
    {
      "midi": 67,
      "hit": false,
      "t": 204333.09979166597,
      "d": 259.43316666665487,
      "v": 97
    },
    {
      "midi": 62,
      "hit": false,
      "t": 204336.04789583263,
      "d": 259.43316666665487,
      "v": 100
    },
    {
      "midi": 57,
      "hit": false,
      "t": 204336.0478958338,
      "d": 156.2495208333421,
      "v": 101
    },
    {
      "midi": 26,
      "hit": false,
      "t": 204341.94410416659,
      "d": 339.03197916666977,
      "v": 110
    },
    {
      "midi": 69,
      "hit": false,
      "t": 204347.8403124993,
      "d": 350.82439583330415,
      "v": 100
    },
    {
      "midi": 62,
      "hit": false,
      "t": 204607.27347916714,
      "d": 194.57487500002026,
      "v": 60
    },
    {
      "midi": 62,
      "hit": false,
      "t": 204616.11779166595,
      "d": 397.9940624999581,
      "v": 93
    },
    {
      "midi": 57,
      "hit": false,
      "t": 204619.0658958326,
      "d": 117.92416666666395,
      "v": 90
    },
    {
      "midi": 67,
      "hit": false,
      "t": 204622.01399999927,
      "d": 117.92416666666395,
      "v": 98
    },
    {
      "midi": 55,
      "hit": false,
      "t": 204624.96210416715,
      "d": 135.61279166667373,
      "v": 106
    },
    {
      "midi": 66,
      "hit": false,
      "t": 204754.67868749925,
      "d": 235.8483333333279,
      "v": 105
    },
    {
      "midi": 57,
      "hit": false,
      "t": 204757.6267916659,
      "d": 244.6926458333328,
      "v": 90
    },
    {
      "midi": 69,
      "hit": false,
      "t": 204769.41920833258,
      "d": 341.98008333332837,
      "v": 95
    },
    {
      "midi": 26,
      "hit": false,
      "t": 204778.26352083325,
      "d": 44.22156249999534,
      "v": 110
    },
    {
      "midi": 26,
      "hit": false,
      "t": 204899.13579166657,
      "d": 56.01397916665883,
      "v": 110
    },
    {
      "midi": 78,
      "hit": false,
      "t": 204905.03200000004,
      "d": 1105.5390625,
      "v": 45
    },
    {
      "midi": 62,
      "hit": false,
      "t": 204913.8763125005,
      "d": 238.7964374999865,
      "v": 60
    },
    {
      "midi": 57,
      "hit": false,
      "t": 204916.82441666716,
      "d": 173.93814583332278,
      "v": 95
    },
    {
      "midi": 62,
      "hit": false,
      "t": 205040.6447916659,
      "d": 117.92416666666395,
      "v": 75
    },
    {
      "midi": 66,
      "hit": false,
      "t": 205040.6447916659,
      "d": 117.92416666666395,
      "v": 81
    },
    {
      "midi": 57,
      "hit": false,
      "t": 205046.54099999924,
      "d": 117.92416666666395,
      "v": 90
    },
    {
      "midi": 66,
      "hit": false,
      "t": 205182.1537916659,
      "d": 400.9421666666749,
      "v": 102
    },
    {
      "midi": 57,
      "hit": false,
      "t": 205185.10189583257,
      "d": 400.9421666666749,
      "v": 99
    },
    {
      "midi": 62,
      "hit": false,
      "t": 205185.10189583257,
      "d": 400.9421666666749,
      "v": 98
    },
    {
      "midi": 26,
      "hit": false,
      "t": 205188.0499999999,
      "d": 386.2016458333237,
      "v": 110
    },
    {
      "midi": 69,
      "hit": false,
      "t": 205202.79052083258,
      "d": 766.5070833333593,
      "v": 97
    },
    {
      "midi": 66,
      "hit": false,
      "t": 205603.73268749926,
      "d": 117.92416666669305,
      "v": 97
    },
    {
      "midi": 57,
      "hit": false,
      "t": 205609.6288958326,
      "d": 141.50899999999092,
      "v": 84
    },
    {
      "midi": 62,
      "hit": false,
      "t": 205609.6288958326,
      "d": 259.43316666665487,
      "v": 96
    },
    {
      "midi": 55,
      "hit": false,
      "t": 205727.5530625005,
      "d": 551.2954791666707,
      "v": 104
    },
    {
      "midi": 67,
      "hit": false,
      "t": 205748.18979166594,
      "d": 138.56089583333232,
      "v": 103
    },
    {
      "midi": 57,
      "hit": false,
      "t": 205751.1378958326,
      "d": 141.50900000002002,
      "v": 86
    },
    {
      "midi": 26,
      "hit": false,
      "t": 205757.03410416655,
      "d": 61.91018750000512,
      "v": 110
    },
    {
      "midi": 62,
      "hit": false,
      "t": 205757.03410416716,
      "d": 1276.5291041666933,
      "v": 60
    },
    {
      "midi": 67,
      "hit": false,
      "t": 205886.75068749927,
      "d": 147.40520833336632,
      "v": 96
    },
    {
      "midi": 57,
      "hit": false,
      "t": 205892.64689583261,
      "d": 135.61279166667373,
      "v": 89
    },
    {
      "midi": 62,
      "hit": false,
      "t": 205895.59499999927,
      "d": 138.56089583336143,
      "v": 84
    },
    {
      "midi": 57,
      "hit": false,
      "t": 206028.2596874993,
      "d": 259.433166666684,
      "v": 85
    },
    {
      "midi": 62,
      "hit": false,
      "t": 206034.15589583263,
      "d": 259.433166666684,
      "v": 94
    },
    {
      "midi": 67,
      "hit": false,
      "t": 206034.15589583263,
      "d": 259.433166666684,
      "v": 100
    },
    {
      "midi": 26,
      "hit": false,
      "t": 206037.1039999999,
      "d": 353.77249999999185,
      "v": 110
    },
    {
      "midi": 79,
      "hit": false,
      "t": 206037.10400000002,
      "d": 1090.798541666678,
      "v": 50
    },
    {
      "midi": 69,
      "hit": false,
      "t": 206040.05210416598,
      "d": 480.5409791666607,
      "v": 99
    },
    {
      "midi": 57,
      "hit": false,
      "t": 206311.27768749933,
      "d": 259.43316666665487,
      "v": 79
    },
    {
      "midi": 62,
      "hit": false,
      "t": 206314.225791666,
      "d": 259.43316666665487,
      "v": 95
    },
    {
      "midi": 67,
      "hit": false,
      "t": 206314.22579166733,
      "d": 566.0359999999928,
      "v": 86
    },
    {
      "midi": 67,
      "hit": false,
      "t": 206317.17389583265,
      "d": 259.43316666665487,
      "v": 92
    },
    {
      "midi": 57,
      "hit": false,
      "t": 206317.17389583384,
      "d": 138.56089583333232,
      "v": 99
    },
    {
      "midi": 62,
      "hit": false,
      "t": 206317.17389583398,
      "d": 486.437187500007,
      "v": 86
    },
    {
      "midi": 57,
      "hit": false,
      "t": 206597.24379166597,
      "d": 259.43316666665487,
      "v": 79
    },
    {
      "midi": 67,
      "hit": false,
      "t": 206600.19189583263,
      "d": 330.1876666666358,
      "v": 102
    },
    {
      "midi": 62,
      "hit": false,
      "t": 206600.19189583263,
      "d": 339.03197916664067,
      "v": 84
    },
    {
      "midi": 26,
      "hit": false,
      "t": 206606.08810416656,
      "d": 339.03197916666977,
      "v": 110
    },
    {
      "midi": 57,
      "hit": false,
      "t": 206609.03620833383,
      "d": 135.61279166667373,
      "v": 90
    },
    {
      "midi": 69,
      "hit": false,
      "t": 206611.9843124993,
      "d": 356.72060416665045,
      "v": 96
    },
    {
      "midi": 57,
      "hit": false,
      "t": 206883.2098958326,
      "d": 117.92416666666395,
      "v": 82
    },
    {
      "midi": 55,
      "hit": false,
      "t": 206889.10610416718,
      "d": 135.61279166667373,
      "v": 102
    },
    {
      "midi": 66,
      "hit": false,
      "t": 207018.82268749928,
      "d": 259.43316666662577,
      "v": 97
    },
    {
      "midi": 57,
      "hit": false,
      "t": 207021.77079166594,
      "d": 259.43316666662577,
      "v": 83
    },
    {
      "midi": 62,
      "hit": false,
      "t": 207024.7188958326,
      "d": 259.43316666662577,
      "v": 92
    },
    {
      "midi": 69,
      "hit": false,
      "t": 207039.45941666592,
      "d": 315.4471458333137,
      "v": 100
    },
    {
      "midi": 26,
      "hit": false,
      "t": 207042.40752083322,
      "d": 58.96208333334653,
      "v": 110
    },
    {
      "midi": 78,
      "hit": false,
      "t": 207169.17600000004,
      "d": 1002.3554166666581,
      "v": 45
    },
    {
      "midi": 62,
      "hit": false,
      "t": 207169.17600000065,
      "d": 247.64074999999139,
      "v": 86
    },
    {
      "midi": 26,
      "hit": false,
      "t": 207172.12410416658,
      "d": 64.85829166666372,
      "v": 110
    },
    {
      "midi": 67,
      "hit": false,
      "t": 207172.1241041673,
      "d": 250.58885416667908,
      "v": 86
    },
    {
      "midi": 57,
      "hit": false,
      "t": 207178.02031250054,
      "d": 203.41918749999604,
      "v": 104
    },
    {
      "midi": 62,
      "hit": false,
      "t": 207180.9684166672,
      "d": 144.45710416667862,
      "v": 60
    },
    {
      "midi": 57,
      "hit": false,
      "t": 207301.84068749924,
      "d": 147.4052083333372,
      "v": 80
    },
    {
      "midi": 66,
      "hit": false,
      "t": 207301.84068749924,
      "d": 147.4052083333372,
      "v": 88
    },
    {
      "midi": 62,
      "hit": false,
      "t": 207310.68499999924,
      "d": 132.66468749998603,
      "v": 81
    },
    {
      "midi": 62,
      "hit": false,
      "t": 207443.34968749923,
      "d": 400.9421666666749,
      "v": 91
    },
    {
      "midi": 67,
      "hit": false,
      "t": 207446.2977916673,
      "d": 554.2435833333584,
      "v": 86
    },
    {
      "midi": 57,
      "hit": false,
      "t": 207449.24589583257,
      "d": 400.9421666666749,
      "v": 98
    },
    {
      "midi": 66,
      "hit": false,
      "t": 207449.24589583257,
      "d": 400.9421666666749,
      "v": 99
    },
    {
      "midi": 26,
      "hit": false,
      "t": 207452.1939999999,
      "d": 400.9421666666749,
      "v": 110
    },
    {
      "midi": 62,
      "hit": false,
      "t": 207452.19400000066,
      "d": 557.191687500017,
      "v": 86
    },
    {
      "midi": 55,
      "hit": false,
      "t": 207455.1421041672,
      "d": 138.56089583333232,
      "v": 101
    },
    {
      "midi": 67,
      "hit": false,
      "t": 207458.09020833406,
      "d": 224.05591666666442,
      "v": 95
    },
    {
      "midi": 69,
      "hit": false,
      "t": 207469.88262499924,
      "d": 819.5729583333305,
      "v": 103
    },
    {
      "midi": 62,
      "hit": false,
      "t": 207475.77883333387,
      "d": 229.9521250000107,
      "v": 71
    },
    {
      "midi": 50,
      "hit": false,
      "t": 207720.4714791672,
      "d": 73.7026041666395,
      "v": 77
    },
    {
      "midi": 66,
      "hit": false,
      "t": 207732.26389583407,
      "d": 256.4850624999963,
      "v": 87
    },
    {
      "midi": 52,
      "hit": false,
      "t": 207747.0044166672,
      "d": 173.93814583332278,
      "v": 83
    },
    {
      "midi": 62,
      "hit": false,
      "t": 207867.87668749926,
      "d": 259.43316666665487,
      "v": 83
    },
    {
      "midi": 66,
      "hit": false,
      "t": 207870.82479166592,
      "d": 117.92416666666395,
      "v": 88
    },
    {
      "midi": 57,
      "hit": false,
      "t": 207873.77289583258,
      "d": 117.92416666666395,
      "v": 77
    },
    {
      "midi": 67,
      "hit": false,
      "t": 208012.3337916659,
      "d": 117.92416666666395,
      "v": 97
    },
    {
      "midi": 26,
      "hit": false,
      "t": 208015.28189583324,
      "d": 53.06587500000023,
      "v": 110
    },
    {
      "midi": 67,
      "hit": false,
      "t": 208015.28189583405,
      "d": 129.71658333332743,
      "v": 82
    },
    {
      "midi": 57,
      "hit": false,
      "t": 208018.22999999925,
      "d": 117.92416666666395,
      "v": 71
    },
    {
      "midi": 62,
      "hit": false,
      "t": 208024.12620833385,
      "d": 232.9002291666693,
      "v": 72
    },
    {
      "midi": 55,
      "hit": false,
      "t": 208035.91862500052,
      "d": 224.05591666666442,
      "v": 100
    },
    {
      "midi": 62,
      "hit": false,
      "t": 208156.7908958326,
      "d": 117.92416666666395,
      "v": 86
    },
    {
      "midi": 67,
      "hit": false,
      "t": 208156.7908958326,
      "d": 117.92416666666395,
      "v": 98
    },
    {
      "midi": 57,
      "hit": false,
      "t": 208159.73899999924,
      "d": 117.92416666666395,
      "v": 79
    },
    {
      "midi": 59,
      "hit": false,
      "t": 208301.24799999924,
      "d": 259.43316666665487,
      "v": 90
    },
    {
      "midi": 67,
      "hit": false,
      "t": 208301.24800000005,
      "d": 4513.547479166678,
      "v": 52
    },
    {
      "midi": 79,
      "hit": false,
      "t": 208301.24800000005,
      "d": 4516.495583333337,
      "v": 51
    },
    {
      "midi": 62,
      "hit": false,
      "t": 208304.1961041659,
      "d": 268.27747916665976,
      "v": 98
    },
    {
      "midi": 55,
      "hit": false,
      "t": 208307.14420833255,
      "d": 265.32937500000116,
      "v": 94
    },
    {
      "midi": 67,
      "hit": false,
      "t": 208307.14420833255,
      "d": 277.12179166666465,
      "v": 92
    },
    {
      "midi": 71,
      "hit": false,
      "t": 208307.14420833404,
      "d": 283.01800000001094,
      "v": 98
    },
    {
      "midi": 62,
      "hit": false,
      "t": 208581.31789583256,
      "d": 259.43316666665487,
      "v": 97
    },
    {
      "midi": 67,
      "hit": false,
      "t": 208581.31789583404,
      "d": 206.36729166668374,
      "v": 88
    },
    {
      "midi": 55,
      "hit": false,
      "t": 208584.26599999922,
      "d": 259.43316666665487,
      "v": 98
    },
    {
      "midi": 67,
      "hit": false,
      "t": 208584.26599999922,
      "d": 259.43316666665487,
      "v": 95
    },
    {
      "midi": 67,
      "hit": false,
      "t": 208584.26599999986,
      "d": 132.66468749998603,
      "v": 55
    },
    {
      "midi": 59,
      "hit": false,
      "t": 208587.21410416588,
      "d": 259.43316666665487,
      "v": 81
    },
    {
      "midi": 79,
      "hit": false,
      "t": 208755.25604166652,
      "d": 132.66468749998603,
      "v": 55
    },
    {
      "midi": 67,
      "hit": false,
      "t": 208864.33589583254,
      "d": 259.43316666665487,
      "v": 98
    },
    {
      "midi": 55,
      "hit": false,
      "t": 208867.2839999992,
      "d": 259.43316666665487,
      "v": 96
    },
    {
      "midi": 59,
      "hit": false,
      "t": 208870.23210416586,
      "d": 259.43316666665487,
      "v": 94
    },
    {
      "midi": 62,
      "hit": false,
      "t": 208870.23210416586,
      "d": 259.43316666665487,
      "v": 97
    },
    {
      "midi": 67,
      "hit": false,
      "t": 209008.79299999986,
      "d": 132.66468750001513,
      "v": 55
    },
    {
      "midi": 62,
      "hit": false,
      "t": 209144.40579166583,
      "d": 117.92416666666395,
      "v": 85
    },
    {
      "midi": 67,
      "hit": false,
      "t": 209147.3538958325,
      "d": 117.92416666666395,
      "v": 93
    },
    {
      "midi": 55,
      "hit": false,
      "t": 209150.30199999915,
      "d": 117.92416666666395,
      "v": 75
    },
    {
      "midi": 59,
      "hit": false,
      "t": 209150.30199999915,
      "d": 117.92416666666395,
      "v": 82
    },
    {
      "midi": 31,
      "hit": false,
      "t": 209150.30199999988,
      "d": 141.50899999999092,
      "v": 96
    },
    {
      "midi": 67,
      "hit": false,
      "t": 209156.19820833407,
      "d": 353.77249999999185,
      "v": 92
    },
    {
      "midi": 79,
      "hit": false,
      "t": 209179.78304166652,
      "d": 132.66468749995693,
      "v": 55
    },
    {
      "midi": 62,
      "hit": false,
      "t": 209285.91479166583,
      "d": 259.43316666665487,
      "v": 88
    },
    {
      "midi": 67,
      "hit": false,
      "t": 209288.86289583248,
      "d": 259.43316666665487,
      "v": 90
    },
    {
      "midi": 55,
      "hit": false,
      "t": 209291.81099999914,
      "d": 259.43316666665487,
      "v": 81
    },
    {
      "midi": 59,
      "hit": false,
      "t": 209291.81099999914,
      "d": 259.43316666665487,
      "v": 78
    },
    {
      "midi": 43,
      "hit": false,
      "t": 209291.81099999987,
      "d": 141.50899999999092,
      "v": 96
    },
    {
      "midi": 67,
      "hit": false,
      "t": 209565.98468749912,
      "d": 147.405208333279,
      "v": 100
    },
    {
      "midi": 55,
      "hit": false,
      "t": 209568.93279166578,
      "d": 141.50899999996182,
      "v": 74
    },
    {
      "midi": 59,
      "hit": false,
      "t": 209568.93279166578,
      "d": 141.50899999996182,
      "v": 89
    },
    {
      "midi": 62,
      "hit": false,
      "t": 209571.88089583244,
      "d": 141.50899999996182,
      "v": 95
    },
    {
      "midi": 59,
      "hit": false,
      "t": 209710.44179166574,
      "d": 421.57889583331416,
      "v": 85
    },
    {
      "midi": 55,
      "hit": false,
      "t": 209710.44179166574,
      "d": 424.52699999997276,
      "v": 68
    },
    {
      "midi": 62,
      "hit": false,
      "t": 209713.3898958324,
      "d": 421.57889583331416,
      "v": 85
    },
    {
      "midi": 67,
      "hit": false,
      "t": 209713.3898958324,
      "d": 421.57889583331416,
      "v": 104
    },
    {
      "midi": 67,
      "hit": false,
      "t": 209716.33799999984,
      "d": 132.66468749998603,
      "v": 55
    },
    {
      "midi": 69,
      "hit": false,
      "t": 209722.23420833406,
      "d": 795.9881250000326,
      "v": 98
    },
    {
      "midi": 79,
      "hit": false,
      "t": 209887.3280416665,
      "d": 132.66468749998603,
      "v": 55
    },
    {
      "midi": 59,
      "hit": false,
      "t": 210132.02068749905,
      "d": 144.45710416667862,
      "v": 72
    },
    {
      "midi": 55,
      "hit": false,
      "t": 210134.9687916657,
      "d": 135.61279166667373,
      "v": 79
    },
    {
      "midi": 67,
      "hit": false,
      "t": 210134.9687916657,
      "d": 135.61279166667373,
      "v": 91
    },
    {
      "midi": 62,
      "hit": false,
      "t": 210134.9687916657,
      "d": 144.45710416667862,
      "v": 79
    },
    {
      "midi": 67,
      "hit": false,
      "t": 210140.86499999982,
      "d": 132.66468749998603,
      "v": 55
    },
    {
      "midi": 67,
      "hit": false,
      "t": 210270.5815833324,
      "d": 144.45710416667862,
      "v": 91
    },
    {
      "midi": 55,
      "hit": false,
      "t": 210270.5815833324,
      "d": 147.4052083333372,
      "v": 79
    },
    {
      "midi": 59,
      "hit": false,
      "t": 210276.47779166573,
      "d": 138.56089583333232,
      "v": 73
    },
    {
      "midi": 62,
      "hit": false,
      "t": 210279.4258958324,
      "d": 135.61279166667373,
      "v": 76
    },
    {
      "midi": 79,
      "hit": false,
      "t": 210311.85504166648,
      "d": 132.66468749998603,
      "v": 55
    },
    {
      "midi": 59,
      "hit": false,
      "t": 210415.03868749907,
      "d": 117.92416666666395,
      "v": 78
    },
    {
      "midi": 62,
      "hit": false,
      "t": 210415.03868749907,
      "d": 120.87227083332255,
      "v": 79
    },
    {
      "midi": 67,
      "hit": false,
      "t": 210415.03868749907,
      "d": 415.68268749996787,
      "v": 106
    },
    {
      "midi": 55,
      "hit": false,
      "t": 210417.98679166572,
      "d": 415.68268749996787,
      "v": 83
    },
    {
      "midi": 60,
      "hit": false,
      "t": 210565.39199999906,
      "d": 259.43316666665487,
      "v": 94
    },
    {
      "midi": 64,
      "hit": false,
      "t": 210568.34010416572,
      "d": 259.43316666665487,
      "v": 95
    },
    {
      "midi": 60,
      "hit": false,
      "t": 210569.81415625024,
      "d": 170.99004166666418,
      "v": 94
    },
    {
      "midi": 67,
      "hit": false,
      "t": 210569.81415625024,
      "d": 173.93814583332278,
      "v": 95
    },
    {
      "midi": 69,
      "hit": false,
      "t": 210571.2882083341,
      "d": 283.01800000001094,
      "v": 95
    },
    {
      "midi": 60,
      "hit": false,
      "t": 210842.5137916657,
      "d": 259.433166666684,
      "v": 95
    },
    {
      "midi": 64,
      "hit": false,
      "t": 210842.5137916657,
      "d": 259.433166666684,
      "v": 74
    },
    {
      "midi": 67,
      "hit": false,
      "t": 210842.5137916657,
      "d": 259.433166666684,
      "v": 88
    },
    {
      "midi": 55,
      "hit": false,
      "t": 210848.40999999904,
      "d": 259.433166666684,
      "v": 83
    },
    {
      "midi": 67,
      "hit": false,
      "t": 210848.4099999998,
      "d": 132.66468749998603,
      "v": 55
    },
    {
      "midi": 67,
      "hit": false,
      "t": 210852.83215625022,
      "d": 306.6028333333379,
      "v": 90
    },
    {
      "midi": 60,
      "hit": false,
      "t": 210852.83215625022,
      "d": 309.5509374999965,
      "v": 95
    },
    {
      "midi": 67,
      "hit": false,
      "t": 210854.3062083341,
      "d": 306.6028333333379,
      "v": 98
    },
    {
      "midi": 79,
      "hit": false,
      "t": 211019.40004166646,
      "d": 132.66468749998603,
      "v": 55
    },
    {
      "midi": 67,
      "hit": false,
      "t": 211125.53179166574,
      "d": 259.43316666665487,
      "v": 102
    },
    {
      "midi": 64,
      "hit": false,
      "t": 211128.4798958324,
      "d": 259.43316666665487,
      "v": 97
    },
    {
      "midi": 55,
      "hit": false,
      "t": 211131.42799999905,
      "d": 259.43316666665487,
      "v": 74
    },
    {
      "midi": 60,
      "hit": false,
      "t": 211134.3761041657,
      "d": 259.43316666665487,
      "v": 96
    },
    {
      "midi": 67,
      "hit": false,
      "t": 211272.93699999977,
      "d": 132.66468749998603,
      "v": 55
    },
    {
      "midi": 55,
      "hit": false,
      "t": 211408.5497916657,
      "d": 141.50899999999092,
      "v": 78
    },
    {
      "midi": 67,
      "hit": false,
      "t": 211408.5497916657,
      "d": 147.4052083333081,
      "v": 98
    },
    {
      "midi": 64,
      "hit": false,
      "t": 211411.49789583235,
      "d": 141.50899999999092,
      "v": 84
    },
    {
      "midi": 60,
      "hit": false,
      "t": 211411.49789583235,
      "d": 144.45710416664951,
      "v": 86
    },
    {
      "midi": 31,
      "hit": false,
      "t": 211414.44599999985,
      "d": 141.50899999999092,
      "v": 96
    },
    {
      "midi": 60,
      "hit": false,
      "t": 211418.86815625022,
      "d": 330.1876666666649,
      "v": 95
    },
    {
      "midi": 67,
      "hit": false,
      "t": 211418.86815625022,
      "d": 330.1876666666649,
      "v": 95
    },
    {
      "midi": 67,
      "hit": false,
      "t": 211420.3422083341,
      "d": 356.72060416667955,
      "v": 95
    },
    {
      "midi": 79,
      "hit": false,
      "t": 211443.92704166644,
      "d": 132.66468749998603,
      "v": 55
    },
    {
      "midi": 55,
      "hit": false,
      "t": 211550.05879166568,
      "d": 259.43316666665487,
      "v": 72
    },
    {
      "midi": 64,
      "hit": false,
      "t": 211553.00689583234,
      "d": 259.43316666665487,
      "v": 98
    },
    {
      "midi": 60,
      "hit": false,
      "t": 211555.954999999,
      "d": 259.43316666665487,
      "v": 93
    },
    {
      "midi": 67,
      "hit": false,
      "t": 211555.954999999,
      "d": 259.43316666665487,
      "v": 95
    },
    {
      "midi": 43,
      "hit": false,
      "t": 211555.95499999984,
      "d": 141.50899999999092,
      "v": 96
    },
    {
      "midi": 60,
      "hit": false,
      "t": 211827.18058333232,
      "d": 144.45710416667862,
      "v": 97
    },
    {
      "midi": 67,
      "hit": false,
      "t": 211830.12868749897,
      "d": 141.50900000002002,
      "v": 101
    },
    {
      "midi": 55,
      "hit": false,
      "t": 211830.12868749897,
      "d": 144.45710416667862,
      "v": 76
    },
    {
      "midi": 64,
      "hit": false,
      "t": 211836.02489583232,
      "d": 135.61279166667373,
      "v": 86
    },
    {
      "midi": 60,
      "hit": false,
      "t": 211971.637687499,
      "d": 386.2016458333237,
      "v": 91
    },
    {
      "midi": 67,
      "hit": false,
      "t": 211971.637687499,
      "d": 397.9940624999872,
      "v": 97
    },
    {
      "midi": 64,
      "hit": false,
      "t": 211971.637687499,
      "d": 400.9421666666458,
      "v": 89
    },
    {
      "midi": 55,
      "hit": false,
      "t": 211974.58579166565,
      "d": 397.9940624999872,
      "v": 85
    },
    {
      "midi": 67,
      "hit": false,
      "t": 211980.48199999976,
      "d": 132.66468749998603,
      "v": 55
    },
    {
      "midi": 62,
      "hit": false,
      "t": 211983.43010416743,
      "d": 321.34335416666,
      "v": 106
    },
    {
      "midi": 60,
      "hit": false,
      "t": 211984.9041562502,
      "d": 392.09785416667,
      "v": 96
    },
    {
      "midi": 67,
      "hit": false,
      "t": 211984.9041562502,
      "d": 392.09785416667,
      "v": 98
    },
    {
      "midi": 79,
      "hit": false,
      "t": 212151.47204166642,
      "d": 132.66468749998603,
      "v": 55
    },
    {
      "midi": 60,
      "hit": false,
      "t": 212393.2165833323,
      "d": 141.50899999999092,
      "v": 79
    },
    {
      "midi": 55,
      "hit": false,
      "t": 212396.16468749897,
      "d": 141.50899999999092,
      "v": 73
    },
    {
      "midi": 64,
      "hit": false,
      "t": 212396.16468749897,
      "d": 141.50899999999092,
      "v": 81
    },
    {
      "midi": 67,
      "hit": false,
      "t": 212399.11279166563,
      "d": 138.56089583333232,
      "v": 97
    },
    {
      "midi": 67,
      "hit": false,
      "t": 212405.00899999973,
      "d": 132.66468749998603,
      "v": 55
    },
    {
      "midi": 60,
      "hit": false,
      "t": 212534.7255833323,
      "d": 141.50899999999092,
      "v": 80
    },
    {
      "midi": 55,
      "hit": false,
      "t": 212537.67368749896,
      "d": 138.56089583333232,
      "v": 73
    },
    {
      "midi": 64,
      "hit": false,
      "t": 212537.67368749896,
      "d": 144.45710416667862,
      "v": 83
    },
    {
      "midi": 67,
      "hit": false,
      "t": 212537.67368749896,
      "d": 144.45710416667862,
      "v": 80
    },
    {
      "midi": 62,
      "hit": false,
      "t": 212549.46610416743,
      "d": 333.1357708333235,
      "v": 104
    },
    {
      "midi": 66,
      "hit": false,
      "t": 212550.9401562502,
      "d": 341.98008333332837,
      "v": 95
    },
    {
      "midi": 62,
      "hit": false,
      "t": 212550.9401562502,
      "d": 365.56491666665534,
      "v": 90
    },
    {
      "midi": 79,
      "hit": false,
      "t": 212575.9990416664,
      "d": 132.66468749998603,
      "v": 55
    },
    {
      "midi": 55,
      "hit": false,
      "t": 212676.2345833323,
      "d": 117.92416666669305,
      "v": 82
    },
    {
      "midi": 60,
      "hit": false,
      "t": 212676.2345833323,
      "d": 117.92416666669305,
      "v": 82
    },
    {
      "midi": 64,
      "hit": false,
      "t": 212682.13079166564,
      "d": 117.92416666669305,
      "v": 94
    },
    {
      "midi": 67,
      "hit": false,
      "t": 212682.13079166564,
      "d": 117.92416666669305,
      "v": 102
    },
    {
      "midi": 67,
      "hit": false,
      "t": 212820.691687499,
      "d": 259.433166666684,
      "v": 92
    },
    {
      "midi": 57,
      "hit": false,
      "t": 212826.58789583234,
      "d": 259.433166666684,
      "v": 90
    },
    {
      "midi": 62,
      "hit": false,
      "t": 212826.58789583234,
      "d": 259.433166666684,
      "v": 100
    },
    {
      "midi": 81,
      "hit": false,
      "t": 212829.53600000005,
      "d": 4513.547479166678,
      "v": 52
    },
    {
      "midi": 69,
      "hit": false,
      "t": 212829.53600000005,
      "d": 4516.495583333337,
      "v": 48
    },
    {
      "midi": 69,
      "hit": false,
      "t": 212844.27652083235,
      "d": 480.5409791666607,
      "v": 98
    },
    {
      "midi": 62,
      "hit": false,
      "t": 213106.6577916657,
      "d": 259.43316666665487,
      "v": 90
    },
    {
      "midi": 67,
      "hit": false,
      "t": 213106.6577916657,
      "d": 259.43316666665487,
      "v": 94
    },
    {
      "midi": 57,
      "hit": false,
      "t": 213109.60589583236,
      "d": 259.43316666665487,
      "v": 96
    },
    {
      "midi": 67,
      "hit": false,
      "t": 213112.5539999997,
      "d": 132.66468749998603,
      "v": 65
    },
    {
      "midi": 79,
      "hit": false,
      "t": 213283.54404166638,
      "d": 132.66468749998603,
      "v": 65
    },
    {
      "midi": 57,
      "hit": false,
      "t": 213386.72768749902,
      "d": 259.43316666665487,
      "v": 91
    },
    {
      "midi": 67,
      "hit": false,
      "t": 213389.67579166568,
      "d": 259.43316666665487,
      "v": 97
    },
    {
      "midi": 62,
      "hit": false,
      "t": 213392.62389583234,
      "d": 259.43316666665487,
      "v": 100
    },
    {
      "midi": 69,
      "hit": false,
      "t": 213404.416312499,
      "d": 350.82439583330415,
      "v": 100
    },
    {
      "midi": 67,
      "hit": false,
      "t": 213537.0809999997,
      "d": 132.66468749998603,
      "v": 65
    },
    {
      "midi": 62,
      "hit": false,
      "t": 213672.69379166566,
      "d": 397.9940624999581,
      "v": 93
    },
    {
      "midi": 57,
      "hit": false,
      "t": 213675.64189583232,
      "d": 117.92416666666395,
      "v": 90
    },
    {
      "midi": 67,
      "hit": false,
      "t": 213678.58999999898,
      "d": 117.92416666666395,
      "v": 98
    },
    {
      "midi": 31,
      "hit": false,
      "t": 213678.58999999982,
      "d": 141.50899999999092,
      "v": 96
    },
    {
      "midi": 79,
      "hit": false,
      "t": 213708.07104166638,
      "d": 132.66468749998603,
      "v": 65
    },
    {
      "midi": 66,
      "hit": false,
      "t": 213811.25468749896,
      "d": 235.8483333333279,
      "v": 105
    },
    {
      "midi": 57,
      "hit": false,
      "t": 213814.20279166562,
      "d": 244.6926458333328,
      "v": 90
    },
    {
      "midi": 43,
      "hit": false,
      "t": 213820.0989999998,
      "d": 141.50899999999092,
      "v": 96
    },
    {
      "midi": 69,
      "hit": false,
      "t": 213825.9952083323,
      "d": 341.98008333332837,
      "v": 95
    },
    {
      "midi": 62,
      "hit": false,
      "t": 214097.2207916656,
      "d": 117.92416666666395,
      "v": 75
    },
    {
      "midi": 66,
      "hit": false,
      "t": 214097.2207916656,
      "d": 117.92416666666395,
      "v": 81
    },
    {
      "midi": 57,
      "hit": false,
      "t": 214103.11699999895,
      "d": 117.92416666666395,
      "v": 90
    },
    {
      "midi": 66,
      "hit": false,
      "t": 214238.72979166562,
      "d": 400.9421666666749,
      "v": 102
    },
    {
      "midi": 57,
      "hit": false,
      "t": 214241.67789583228,
      "d": 400.9421666666749,
      "v": 99
    },
    {
      "midi": 62,
      "hit": false,
      "t": 214241.67789583228,
      "d": 400.9421666666749,
      "v": 98
    },
    {
      "midi": 67,
      "hit": false,
      "t": 214244.6259999997,
      "d": 132.66468749998603,
      "v": 65
    },
    {
      "midi": 69,
      "hit": false,
      "t": 214259.3665208323,
      "d": 766.5070833333593,
      "v": 97
    },
    {
      "midi": 79,
      "hit": false,
      "t": 214415.61604166636,
      "d": 132.66468749998603,
      "v": 65
    },
    {
      "midi": 66,
      "hit": false,
      "t": 214660.30868749897,
      "d": 117.92416666669305,
      "v": 97
    },
    {
      "midi": 57,
      "hit": false,
      "t": 214666.2048958323,
      "d": 141.50899999999092,
      "v": 84
    },
    {
      "midi": 62,
      "hit": false,
      "t": 214666.2048958323,
      "d": 259.43316666665487,
      "v": 96
    },
    {
      "midi": 67,
      "hit": false,
      "t": 214669.15299999967,
      "d": 132.66468749998603,
      "v": 65
    },
    {
      "midi": 67,
      "hit": false,
      "t": 214804.76579166565,
      "d": 138.56089583333232,
      "v": 103
    },
    {
      "midi": 57,
      "hit": false,
      "t": 214807.7138958323,
      "d": 141.50900000002002,
      "v": 86
    },
    {
      "midi": 79,
      "hit": false,
      "t": 214840.14304166634,
      "d": 132.66468749998603,
      "v": 65
    },
    {
      "midi": 67,
      "hit": false,
      "t": 214943.32668749898,
      "d": 147.40520833336632,
      "v": 96
    },
    {
      "midi": 57,
      "hit": false,
      "t": 214949.22289583232,
      "d": 135.61279166667373,
      "v": 89
    },
    {
      "midi": 62,
      "hit": false,
      "t": 214952.17099999898,
      "d": 138.56089583336143,
      "v": 84
    },
    {
      "midi": 57,
      "hit": false,
      "t": 215084.835687499,
      "d": 259.433166666684,
      "v": 85
    },
    {
      "midi": 62,
      "hit": false,
      "t": 215090.73189583234,
      "d": 259.433166666684,
      "v": 94
    },
    {
      "midi": 67,
      "hit": false,
      "t": 215090.73189583234,
      "d": 259.433166666684,
      "v": 100
    },
    {
      "midi": 69,
      "hit": false,
      "t": 215096.6281041657,
      "d": 480.5409791666607,
      "v": 99
    },
    {
      "midi": 57,
      "hit": false,
      "t": 215367.85368749904,
      "d": 259.43316666665487,
      "v": 79
    },
    {
      "midi": 62,
      "hit": false,
      "t": 215370.8017916657,
      "d": 259.43316666665487,
      "v": 95
    },
    {
      "midi": 67,
      "hit": false,
      "t": 215373.74989583236,
      "d": 259.43316666665487,
      "v": 92
    },
    {
      "midi": 67,
      "hit": false,
      "t": 215376.69799999965,
      "d": 132.66468749998603,
      "v": 65
    },
    {
      "midi": 79,
      "hit": false,
      "t": 215547.68804166632,
      "d": 132.66468749998603,
      "v": 65
    },
    {
      "midi": 57,
      "hit": false,
      "t": 215653.81979166568,
      "d": 259.43316666665487,
      "v": 79
    },
    {
      "midi": 67,
      "hit": false,
      "t": 215656.76789583234,
      "d": 330.1876666666358,
      "v": 102
    },
    {
      "midi": 62,
      "hit": false,
      "t": 215656.76789583234,
      "d": 339.03197916664067,
      "v": 84
    },
    {
      "midi": 69,
      "hit": false,
      "t": 215668.560312499,
      "d": 356.72060416665045,
      "v": 96
    },
    {
      "midi": 67,
      "hit": false,
      "t": 215801.22499999963,
      "d": 132.66468749998603,
      "v": 65
    },
    {
      "midi": 57,
      "hit": false,
      "t": 215939.78589583232,
      "d": 117.92416666666395,
      "v": 82
    },
    {
      "midi": 31,
      "hit": false,
      "t": 215942.7339999998,
      "d": 141.50899999999092,
      "v": 96
    },
    {
      "midi": 79,
      "hit": false,
      "t": 215972.2150416663,
      "d": 132.66468749998603,
      "v": 65
    },
    {
      "midi": 66,
      "hit": false,
      "t": 216075.398687499,
      "d": 259.43316666662577,
      "v": 97
    },
    {
      "midi": 57,
      "hit": false,
      "t": 216078.34679166565,
      "d": 259.43316666662577,
      "v": 83
    },
    {
      "midi": 62,
      "hit": false,
      "t": 216081.2948958323,
      "d": 259.43316666662577,
      "v": 92
    },
    {
      "midi": 43,
      "hit": false,
      "t": 216084.24299999978,
      "d": 141.50899999999092,
      "v": 96
    },
    {
      "midi": 69,
      "hit": false,
      "t": 216096.03541666563,
      "d": 315.4471458333137,
      "v": 100
    },
    {
      "midi": 57,
      "hit": false,
      "t": 216358.41668749895,
      "d": 147.4052083333372,
      "v": 80
    },
    {
      "midi": 66,
      "hit": false,
      "t": 216358.41668749895,
      "d": 147.4052083333372,
      "v": 88
    },
    {
      "midi": 62,
      "hit": false,
      "t": 216367.26099999895,
      "d": 132.66468749998603,
      "v": 81
    },
    {
      "midi": 62,
      "hit": false,
      "t": 216499.92568749894,
      "d": 400.9421666666749,
      "v": 91
    },
    {
      "midi": 57,
      "hit": false,
      "t": 216505.82189583228,
      "d": 400.9421666666749,
      "v": 98
    },
    {
      "midi": 66,
      "hit": false,
      "t": 216505.82189583228,
      "d": 400.9421666666749,
      "v": 99
    },
    {
      "midi": 67,
      "hit": false,
      "t": 216508.7699999996,
      "d": 132.66468749998603,
      "v": 65
    },
    {
      "midi": 67,
      "hit": false,
      "t": 216514.6662083341,
      "d": 268.27747916665976,
      "v": 90
    },
    {
      "midi": 69,
      "hit": false,
      "t": 216526.45862499895,
      "d": 819.5729583333305,
      "v": 103
    },
    {
      "midi": 79,
      "hit": false,
      "t": 216679.76004166628,
      "d": 132.66468749998603,
      "v": 65
    },
    {
      "midi": 66,
      "hit": false,
      "t": 216788.8398958341,
      "d": 153.3014166666544,
      "v": 89
    },
    {
      "midi": 62,
      "hit": false,
      "t": 216924.45268749897,
      "d": 259.43316666665487,
      "v": 83
    },
    {
      "midi": 66,
      "hit": false,
      "t": 216927.40079166563,
      "d": 117.92416666666395,
      "v": 88
    },
    {
      "midi": 57,
      "hit": false,
      "t": 216930.34889583229,
      "d": 117.92416666666395,
      "v": 77
    },
    {
      "midi": 67,
      "hit": false,
      "t": 216933.29699999958,
      "d": 132.66468749998603,
      "v": 65
    },
    {
      "midi": 67,
      "hit": false,
      "t": 217068.90979166562,
      "d": 117.92416666666395,
      "v": 97
    },
    {
      "midi": 67,
      "hit": false,
      "t": 217071.85789583408,
      "d": 114.97606250000536,
      "v": 80
    },
    {
      "midi": 57,
      "hit": false,
      "t": 217074.80599999896,
      "d": 117.92416666666395,
      "v": 71
    },
    {
      "midi": 79,
      "hit": false,
      "t": 217104.28704166625,
      "d": 132.66468749998603,
      "v": 65
    },
    {
      "midi": 62,
      "hit": false,
      "t": 217213.3668958323,
      "d": 117.92416666666395,
      "v": 86
    },
    {
      "midi": 67,
      "hit": false,
      "t": 217213.3668958323,
      "d": 117.92416666666395,
      "v": 98
    },
    {
      "midi": 57,
      "hit": false,
      "t": 217216.31499999895,
      "d": 117.92416666666395,
      "v": 79
    },
    {
      "midi": 59,
      "hit": false,
      "t": 217357.82399999895,
      "d": 259.43316666665487,
      "v": 90
    },
    {
      "midi": 67,
      "hit": false,
      "t": 217357.82400000008,
      "d": 4516.495583333308,
      "v": 53
    },
    {
      "midi": 79,
      "hit": false,
      "t": 217357.82400000008,
      "d": 4522.391791666654,
      "v": 56
    },
    {
      "midi": 62,
      "hit": false,
      "t": 217360.7721041656,
      "d": 268.27747916665976,
      "v": 98
    },
    {
      "midi": 55,
      "hit": false,
      "t": 217363.72020833226,
      "d": 265.32937500000116,
      "v": 94
    },
    {
      "midi": 67,
      "hit": false,
      "t": 217363.72020833226,
      "d": 277.12179166666465,
      "v": 92
    },
    {
      "midi": 71,
      "hit": false,
      "t": 217363.7202083341,
      "d": 280.06989583335235,
      "v": 90
    },
    {
      "midi": 62,
      "hit": false,
      "t": 217637.89389583227,
      "d": 259.43316666665487,
      "v": 97
    },
    {
      "midi": 67,
      "hit": false,
      "t": 217637.8938958341,
      "d": 170.9900416666933,
      "v": 88
    },
    {
      "midi": 55,
      "hit": false,
      "t": 217640.84199999893,
      "d": 259.43316666665487,
      "v": 98
    },
    {
      "midi": 67,
      "hit": false,
      "t": 217640.84199999893,
      "d": 259.43316666665487,
      "v": 95
    },
    {
      "midi": 67,
      "hit": false,
      "t": 217640.84199999957,
      "d": 132.66468749998603,
      "v": 55
    },
    {
      "midi": 59,
      "hit": false,
      "t": 217643.7901041656,
      "d": 259.43316666665487,
      "v": 81
    },
    {
      "midi": 79,
      "hit": false,
      "t": 217811.83204166623,
      "d": 132.66468749998603,
      "v": 55
    },
    {
      "midi": 67,
      "hit": false,
      "t": 217920.91189583225,
      "d": 259.43316666665487,
      "v": 98
    },
    {
      "midi": 55,
      "hit": false,
      "t": 217923.8599999989,
      "d": 259.43316666665487,
      "v": 96
    },
    {
      "midi": 59,
      "hit": false,
      "t": 217926.80810416557,
      "d": 259.43316666665487,
      "v": 94
    },
    {
      "midi": 62,
      "hit": false,
      "t": 217926.80810416557,
      "d": 259.43316666665487,
      "v": 97
    },
    {
      "midi": 67,
      "hit": false,
      "t": 218065.36899999954,
      "d": 132.66468749998603,
      "v": 55
    },
    {
      "midi": 62,
      "hit": false,
      "t": 218200.98179166554,
      "d": 117.92416666666395,
      "v": 85
    },
    {
      "midi": 67,
      "hit": false,
      "t": 218203.9298958322,
      "d": 117.92416666666395,
      "v": 93
    },
    {
      "midi": 55,
      "hit": false,
      "t": 218206.87799999886,
      "d": 117.92416666666395,
      "v": 75
    },
    {
      "midi": 59,
      "hit": false,
      "t": 218206.87799999886,
      "d": 117.92416666666395,
      "v": 82
    },
    {
      "midi": 31,
      "hit": false,
      "t": 218206.87799999976,
      "d": 141.50899999999092,
      "v": 96
    },
    {
      "midi": 67,
      "hit": false,
      "t": 218212.77420833413,
      "d": 651.5310208333249,
      "v": 90
    },
    {
      "midi": 79,
      "hit": false,
      "t": 218236.3590416662,
      "d": 132.66468749998603,
      "v": 55
    },
    {
      "midi": 62,
      "hit": false,
      "t": 218342.49079166554,
      "d": 259.43316666665487,
      "v": 88
    },
    {
      "midi": 67,
      "hit": false,
      "t": 218345.4388958322,
      "d": 259.43316666665487,
      "v": 90
    },
    {
      "midi": 55,
      "hit": false,
      "t": 218348.38699999885,
      "d": 259.43316666665487,
      "v": 81
    },
    {
      "midi": 59,
      "hit": false,
      "t": 218348.38699999885,
      "d": 259.43316666665487,
      "v": 78
    },
    {
      "midi": 43,
      "hit": false,
      "t": 218348.38699999976,
      "d": 141.50900000002002,
      "v": 96
    },
    {
      "midi": 67,
      "hit": false,
      "t": 218622.56068749883,
      "d": 147.4052083333081,
      "v": 100
    },
    {
      "midi": 55,
      "hit": false,
      "t": 218625.5087916655,
      "d": 141.50899999999092,
      "v": 74
    },
    {
      "midi": 59,
      "hit": false,
      "t": 218625.5087916655,
      "d": 141.50899999999092,
      "v": 89
    },
    {
      "midi": 62,
      "hit": false,
      "t": 218628.45689583215,
      "d": 141.50899999999092,
      "v": 95
    },
    {
      "midi": 59,
      "hit": false,
      "t": 218767.01779166548,
      "d": 421.57889583331416,
      "v": 85
    },
    {
      "midi": 55,
      "hit": false,
      "t": 218767.01779166548,
      "d": 424.52699999997276,
      "v": 68
    },
    {
      "midi": 62,
      "hit": false,
      "t": 218769.96589583214,
      "d": 421.57889583331416,
      "v": 85
    },
    {
      "midi": 67,
      "hit": false,
      "t": 218769.96589583214,
      "d": 421.57889583331416,
      "v": 104
    },
    {
      "midi": 67,
      "hit": false,
      "t": 218772.91399999952,
      "d": 132.66468749998603,
      "v": 55
    },
    {
      "midi": 79,
      "hit": false,
      "t": 218943.9040416662,
      "d": 132.66468749998603,
      "v": 55
    },
    {
      "midi": 59,
      "hit": false,
      "t": 219050.03579166744,
      "d": 271.22558333334746,
      "v": 78
    },
    {
      "midi": 59,
      "hit": false,
      "t": 219188.5966874988,
      "d": 144.45710416667862,
      "v": 72
    },
    {
      "midi": 55,
      "hit": false,
      "t": 219191.54479166545,
      "d": 135.61279166667373,
      "v": 79
    },
    {
      "midi": 67,
      "hit": false,
      "t": 219191.54479166545,
      "d": 135.61279166667373,
      "v": 91
    },
    {
      "midi": 62,
      "hit": false,
      "t": 219191.54479166545,
      "d": 144.45710416667862,
      "v": 79
    },
    {
      "midi": 67,
      "hit": false,
      "t": 219197.4409999995,
      "d": 132.66468749998603,
      "v": 55
    },
    {
      "midi": 67,
      "hit": false,
      "t": 219327.15758333213,
      "d": 144.45710416667862,
      "v": 91
    },
    {
      "midi": 55,
      "hit": false,
      "t": 219327.15758333213,
      "d": 147.4052083333372,
      "v": 79
    },
    {
      "midi": 59,
      "hit": false,
      "t": 219333.05379166547,
      "d": 138.56089583333232,
      "v": 73
    },
    {
      "midi": 62,
      "hit": false,
      "t": 219336.00189583213,
      "d": 135.61279166667373,
      "v": 76
    },
    {
      "midi": 60,
      "hit": false,
      "t": 219341.89810416746,
      "d": 365.56491666665534,
      "v": 101
    },
    {
      "midi": 79,
      "hit": false,
      "t": 219368.43104166616,
      "d": 132.66468749998603,
      "v": 55
    },
    {
      "midi": 59,
      "hit": false,
      "t": 219471.6146874988,
      "d": 117.92416666666395,
      "v": 78
    },
    {
      "midi": 62,
      "hit": false,
      "t": 219471.6146874988,
      "d": 120.87227083332255,
      "v": 79
    },
    {
      "midi": 67,
      "hit": false,
      "t": 219471.6146874988,
      "d": 415.68268749996787,
      "v": 106
    },
    {
      "midi": 55,
      "hit": false,
      "t": 219474.56279166546,
      "d": 415.68268749996787,
      "v": 83
    },
    {
      "midi": 60,
      "hit": false,
      "t": 219621.9679999988,
      "d": 259.43316666665487,
      "v": 94
    },
    {
      "midi": 64,
      "hit": false,
      "t": 219624.91610416546,
      "d": 259.43316666665487,
      "v": 95
    },
    {
      "midi": 60,
      "hit": false,
      "t": 219899.08979166544,
      "d": 259.433166666684,
      "v": 95
    },
    {
      "midi": 64,
      "hit": false,
      "t": 219899.08979166544,
      "d": 259.433166666684,
      "v": 74
    },
    {
      "midi": 67,
      "hit": false,
      "t": 219899.08979166544,
      "d": 259.433166666684,
      "v": 88
    },
    {
      "midi": 55,
      "hit": false,
      "t": 219904.98599999878,
      "d": 259.433166666684,
      "v": 83
    },
    {
      "midi": 67,
      "hit": false,
      "t": 219904.98599999948,
      "d": 132.66468749998603,
      "v": 55
    },
    {
      "midi": 60,
      "hit": false,
      "t": 219909.4081562502,
      "d": 206.36729166668374,
      "v": 94
    },
    {
      "midi": 67,
      "hit": false,
      "t": 219909.4081562502,
      "d": 212.26350000003004,
      "v": 96
    },
    {
      "midi": 62,
      "hit": false,
      "t": 219910.8822083341,
      "d": 274.17368750000605,
      "v": 98
    },
    {
      "midi": 79,
      "hit": false,
      "t": 220075.97604166614,
      "d": 132.66468749998603,
      "v": 55
    },
    {
      "midi": 67,
      "hit": false,
      "t": 220182.10779166548,
      "d": 259.43316666665487,
      "v": 102
    },
    {
      "midi": 64,
      "hit": false,
      "t": 220185.05589583213,
      "d": 259.43316666665487,
      "v": 97
    },
    {
      "midi": 55,
      "hit": false,
      "t": 220188.0039999988,
      "d": 259.43316666665487,
      "v": 74
    },
    {
      "midi": 60,
      "hit": false,
      "t": 220190.95210416545,
      "d": 259.43316666665487,
      "v": 96
    },
    {
      "midi": 60,
      "hit": false,
      "t": 220190.95210416746,
      "d": 150.3533124999958,
      "v": 101
    },
    {
      "midi": 67,
      "hit": false,
      "t": 220192.42615625024,
      "d": 147.4052083333372,
      "v": 99
    },
    {
      "midi": 60,
      "hit": false,
      "t": 220192.42615625024,
      "d": 153.3014166666835,
      "v": 96
    },
    {
      "midi": 67,
      "hit": false,
      "t": 220329.51299999945,
      "d": 132.66468749998603,
      "v": 55
    },
    {
      "midi": 55,
      "hit": false,
      "t": 220465.12579166543,
      "d": 141.50899999999092,
      "v": 78
    },
    {
      "midi": 67,
      "hit": false,
      "t": 220465.12579166543,
      "d": 147.4052083333081,
      "v": 98
    },
    {
      "midi": 64,
      "hit": false,
      "t": 220468.0738958321,
      "d": 141.50899999999092,
      "v": 84
    },
    {
      "midi": 60,
      "hit": false,
      "t": 220468.0738958321,
      "d": 144.45710416664951,
      "v": 86
    },
    {
      "midi": 31,
      "hit": false,
      "t": 220471.0219999998,
      "d": 141.50899999999092,
      "v": 96
    },
    {
      "midi": 60,
      "hit": false,
      "t": 220473.97010416744,
      "d": 1117.3314791666926,
      "v": 109
    },
    {
      "midi": 67,
      "hit": false,
      "t": 220475.44415625025,
      "d": 681.0120624999981,
      "v": 98
    },
    {
      "midi": 60,
      "hit": false,
      "t": 220475.44415625025,
      "d": 698.7006875000079,
      "v": 91
    },
    {
      "midi": 79,
      "hit": false,
      "t": 220500.50304166612,
      "d": 132.66468749998603,
      "v": 55
    },
    {
      "midi": 55,
      "hit": false,
      "t": 220606.63479166542,
      "d": 259.43316666665487,
      "v": 72
    },
    {
      "midi": 64,
      "hit": false,
      "t": 220609.58289583208,
      "d": 259.43316666665487,
      "v": 98
    },
    {
      "midi": 60,
      "hit": false,
      "t": 220612.53099999874,
      "d": 259.43316666665487,
      "v": 93
    },
    {
      "midi": 67,
      "hit": false,
      "t": 220612.53099999874,
      "d": 259.43316666665487,
      "v": 95
    },
    {
      "midi": 43,
      "hit": false,
      "t": 220612.53099999978,
      "d": 141.50899999999092,
      "v": 96
    },
    {
      "midi": 60,
      "hit": false,
      "t": 220883.75658333206,
      "d": 144.45710416667862,
      "v": 97
    },
    {
      "midi": 67,
      "hit": false,
      "t": 220886.7046874987,
      "d": 141.50900000002002,
      "v": 101
    },
    {
      "midi": 55,
      "hit": false,
      "t": 220886.7046874987,
      "d": 144.45710416667862,
      "v": 76
    },
    {
      "midi": 64,
      "hit": false,
      "t": 220892.60089583206,
      "d": 135.61279166667373,
      "v": 86
    },
    {
      "midi": 60,
      "hit": false,
      "t": 221028.21368749873,
      "d": 386.2016458333237,
      "v": 91
    },
    {
      "midi": 67,
      "hit": false,
      "t": 221028.21368749873,
      "d": 397.9940624999872,
      "v": 97
    },
    {
      "midi": 64,
      "hit": false,
      "t": 221028.21368749873,
      "d": 400.9421666666458,
      "v": 89
    },
    {
      "midi": 55,
      "hit": false,
      "t": 221031.1617916654,
      "d": 397.9940624999872,
      "v": 85
    },
    {
      "midi": 67,
      "hit": false,
      "t": 221037.05799999944,
      "d": 132.66468749998603,
      "v": 55
    },
    {
      "midi": 79,
      "hit": false,
      "t": 221208.0480416661,
      "d": 132.66468749998603,
      "v": 55
    },
    {
      "midi": 67,
      "hit": false,
      "t": 221324.49815625025,
      "d": 173.93814583332278,
      "v": 97
    },
    {
      "midi": 62,
      "hit": false,
      "t": 221324.49815625025,
      "d": 200.47108333330834,
      "v": 94
    },
    {
      "midi": 60,
      "hit": false,
      "t": 221449.79258333205,
      "d": 141.50899999999092,
      "v": 79
    },
    {
      "midi": 55,
      "hit": false,
      "t": 221452.7406874987,
      "d": 141.50899999999092,
      "v": 73
    },
    {
      "midi": 64,
      "hit": false,
      "t": 221452.7406874987,
      "d": 141.50899999999092,
      "v": 81
    },
    {
      "midi": 67,
      "hit": false,
      "t": 221455.68879166536,
      "d": 138.56089583333232,
      "v": 97
    },
    {
      "midi": 67,
      "hit": false,
      "t": 221461.5849999994,
      "d": 132.66468749998603,
      "v": 55
    },
    {
      "midi": 60,
      "hit": false,
      "t": 221591.30158333204,
      "d": 141.50899999999092,
      "v": 80
    },
    {
      "midi": 55,
      "hit": false,
      "t": 221594.2496874987,
      "d": 138.56089583333232,
      "v": 73
    },
    {
      "midi": 64,
      "hit": false,
      "t": 221594.2496874987,
      "d": 144.45710416667862,
      "v": 83
    },
    {
      "midi": 67,
      "hit": false,
      "t": 221594.2496874987,
      "d": 144.45710416667862,
      "v": 80
    },
    {
      "midi": 66,
      "hit": false,
      "t": 221607.51615625023,
      "d": 280.06989583332324,
      "v": 97
    },
    {
      "midi": 62,
      "hit": false,
      "t": 221607.51615625023,
      "d": 318.3952500000014,
      "v": 86
    },
    {
      "midi": 57,
      "hit": false,
      "t": 221608.99020833414,
      "d": 297.758520833333,
      "v": 92
    },
    {
      "midi": 79,
      "hit": false,
      "t": 221632.57504166607,
      "d": 132.66468749998603,
      "v": 55
    },
    {
      "midi": 55,
      "hit": false,
      "t": 221732.81058333203,
      "d": 117.92416666669305,
      "v": 82
    },
    {
      "midi": 60,
      "hit": false,
      "t": 221732.81058333203,
      "d": 117.92416666669305,
      "v": 82
    },
    {
      "midi": 64,
      "hit": false,
      "t": 221738.70679166538,
      "d": 117.92416666669305,
      "v": 94
    },
    {
      "midi": 67,
      "hit": false,
      "t": 221738.70679166538,
      "d": 117.92416666669305,
      "v": 102
    },
    {
      "midi": 67,
      "hit": false,
      "t": 221877.26768749874,
      "d": 259.433166666684,
      "v": 92
    },
    {
      "midi": 57,
      "hit": false,
      "t": 221883.16389583208,
      "d": 259.433166666684,
      "v": 90
    },
    {
      "midi": 62,
      "hit": false,
      "t": 221883.16389583208,
      "d": 259.433166666684,
      "v": 100
    },
    {
      "midi": 81,
      "hit": false,
      "t": 221886.11200000008,
      "d": 3920.978541666671,
      "v": 53
    },
    {
      "midi": 69,
      "hit": false,
      "t": 221886.11200000008,
      "d": 3935.719062499993,
      "v": 48
    },
    {
      "midi": 69,
      "hit": false,
      "t": 221900.8525208321,
      "d": 480.5409791666607,
      "v": 98
    },
    {
      "midi": 62,
      "hit": false,
      "t": 222163.23379166544,
      "d": 259.43316666665487,
      "v": 90
    },
    {
      "midi": 67,
      "hit": false,
      "t": 222163.23379166544,
      "d": 259.43316666665487,
      "v": 94
    },
    {
      "midi": 57,
      "hit": false,
      "t": 222166.1818958321,
      "d": 259.43316666665487,
      "v": 96
    },
    {
      "midi": 67,
      "hit": false,
      "t": 222169.1299999994,
      "d": 132.66468749998603,
      "v": 65
    },
    {
      "midi": 79,
      "hit": false,
      "t": 222340.12004166606,
      "d": 132.66468749998603,
      "v": 65
    },
    {
      "midi": 57,
      "hit": false,
      "t": 222443.30368749876,
      "d": 259.43316666665487,
      "v": 91
    },
    {
      "midi": 67,
      "hit": false,
      "t": 222446.25179166542,
      "d": 259.43316666665487,
      "v": 97
    },
    {
      "midi": 62,
      "hit": false,
      "t": 222449.19989583208,
      "d": 259.43316666665487,
      "v": 100
    },
    {
      "midi": 69,
      "hit": false,
      "t": 222460.99231249874,
      "d": 350.82439583330415,
      "v": 100
    },
    {
      "midi": 67,
      "hit": false,
      "t": 222593.65699999937,
      "d": 132.66468749998603,
      "v": 65
    },
    {
      "midi": 62,
      "hit": false,
      "t": 222729.2697916654,
      "d": 397.9940624999581,
      "v": 93
    },
    {
      "midi": 57,
      "hit": false,
      "t": 222732.21789583206,
      "d": 117.92416666666395,
      "v": 90
    },
    {
      "midi": 67,
      "hit": false,
      "t": 222735.16599999872,
      "d": 117.92416666666395,
      "v": 98
    },
    {
      "midi": 31,
      "hit": false,
      "t": 222735.16599999976,
      "d": 141.50899999999092,
      "v": 96
    },
    {
      "midi": 79,
      "hit": false,
      "t": 222764.64704166603,
      "d": 132.66468749998603,
      "v": 65
    },
    {
      "midi": 66,
      "hit": false,
      "t": 222867.8306874987,
      "d": 235.8483333333279,
      "v": 105
    },
    {
      "midi": 57,
      "hit": false,
      "t": 222870.77879166536,
      "d": 244.6926458333328,
      "v": 90
    },
    {
      "midi": 43,
      "hit": false,
      "t": 222876.67499999976,
      "d": 141.50899999999092,
      "v": 96
    },
    {
      "midi": 69,
      "hit": false,
      "t": 222882.57120833202,
      "d": 341.98008333332837,
      "v": 95
    },
    {
      "midi": 62,
      "hit": false,
      "t": 223153.79679166534,
      "d": 117.92416666666395,
      "v": 75
    },
    {
      "midi": 66,
      "hit": false,
      "t": 223153.79679166534,
      "d": 117.92416666666395,
      "v": 81
    },
    {
      "midi": 57,
      "hit": false,
      "t": 223159.6929999987,
      "d": 117.92416666666395,
      "v": 90
    },
    {
      "midi": 66,
      "hit": false,
      "t": 223295.30579166536,
      "d": 400.9421666666749,
      "v": 102
    },
    {
      "midi": 57,
      "hit": false,
      "t": 223298.25389583202,
      "d": 400.9421666666749,
      "v": 99
    },
    {
      "midi": 62,
      "hit": false,
      "t": 223298.25389583202,
      "d": 400.9421666666749,
      "v": 98
    },
    {
      "midi": 67,
      "hit": false,
      "t": 223301.20199999935,
      "d": 132.66468749998603,
      "v": 65
    },
    {
      "midi": 69,
      "hit": false,
      "t": 223315.94252083203,
      "d": 766.5070833333593,
      "v": 97
    },
    {
      "midi": 79,
      "hit": false,
      "t": 223472.192041666,
      "d": 132.66468749998603,
      "v": 65
    },
    {
      "midi": 66,
      "hit": false,
      "t": 223716.8846874987,
      "d": 117.92416666669305,
      "v": 97
    },
    {
      "midi": 57,
      "hit": false,
      "t": 223722.78089583205,
      "d": 141.50899999999092,
      "v": 84
    },
    {
      "midi": 62,
      "hit": false,
      "t": 223722.78089583205,
      "d": 259.43316666665487,
      "v": 96
    },
    {
      "midi": 67,
      "hit": false,
      "t": 223725.72899999932,
      "d": 132.66468749998603,
      "v": 65
    },
    {
      "midi": 67,
      "hit": false,
      "t": 223861.34179166539,
      "d": 138.56089583333232,
      "v": 103
    },
    {
      "midi": 57,
      "hit": false,
      "t": 223864.28989583204,
      "d": 141.50900000002002,
      "v": 86
    },
    {
      "midi": 79,
      "hit": false,
      "t": 223896.719041666,
      "d": 132.66468749998603,
      "v": 65
    },
    {
      "midi": 67,
      "hit": false,
      "t": 223999.90268749872,
      "d": 147.40520833336632,
      "v": 96
    },
    {
      "midi": 57,
      "hit": false,
      "t": 224005.79889583206,
      "d": 135.61279166667373,
      "v": 89
    },
    {
      "midi": 62,
      "hit": false,
      "t": 224008.74699999872,
      "d": 138.56089583336143,
      "v": 84
    },
    {
      "midi": 57,
      "hit": false,
      "t": 224141.41168749874,
      "d": 259.433166666684,
      "v": 85
    },
    {
      "midi": 62,
      "hit": false,
      "t": 224147.30789583208,
      "d": 259.433166666684,
      "v": 94
    },
    {
      "midi": 67,
      "hit": false,
      "t": 224147.30789583208,
      "d": 259.433166666684,
      "v": 100
    },
    {
      "midi": 69,
      "hit": false,
      "t": 224153.20410416543,
      "d": 480.5409791666607,
      "v": 99
    },
    {
      "midi": 57,
      "hit": false,
      "t": 224424.42968749878,
      "d": 259.43316666665487,
      "v": 79
    },
    {
      "midi": 62,
      "hit": false,
      "t": 224427.37779166544,
      "d": 259.43316666665487,
      "v": 95
    },
    {
      "midi": 67,
      "hit": false,
      "t": 224430.3258958321,
      "d": 259.43316666665487,
      "v": 92
    },
    {
      "midi": 65,
      "hit": false,
      "t": 224430.32589583413,
      "d": 1129.123895833356,
      "v": 88
    },
    {
      "midi": 67,
      "hit": false,
      "t": 224433.2739999993,
      "d": 132.66468749998603,
      "v": 65
    },
    {
      "midi": 79,
      "hit": false,
      "t": 224604.26404166597,
      "d": 132.66468749998603,
      "v": 65
    },
    {
      "midi": 57,
      "hit": false,
      "t": 224710.39579166542,
      "d": 259.43316666665487,
      "v": 79
    },
    {
      "midi": 67,
      "hit": false,
      "t": 224713.34389583208,
      "d": 330.1876666666358,
      "v": 102
    },
    {
      "midi": 62,
      "hit": false,
      "t": 224713.34389583208,
      "d": 339.03197916664067,
      "v": 84
    },
    {
      "midi": 69,
      "hit": false,
      "t": 224725.13631249874,
      "d": 356.72060416665045,
      "v": 96
    },
    {
      "midi": 67,
      "hit": false,
      "t": 224857.80099999928,
      "d": 132.66468749998603,
      "v": 65
    },
    {
      "midi": 57,
      "hit": false,
      "t": 224996.36189583206,
      "d": 117.92416666666395,
      "v": 82
    },
    {
      "midi": 31,
      "hit": false,
      "t": 224999.30999999976,
      "d": 141.50899999999092,
      "v": 96
    },
    {
      "midi": 79,
      "hit": false,
      "t": 225028.79104166594,
      "d": 132.66468749998603,
      "v": 65
    },
    {
      "midi": 66,
      "hit": false,
      "t": 225131.97468749873,
      "d": 259.43316666662577,
      "v": 97
    },
    {
      "midi": 57,
      "hit": false,
      "t": 225134.9227916654,
      "d": 259.43316666662577,
      "v": 83
    },
    {
      "midi": 62,
      "hit": false,
      "t": 225137.87089583205,
      "d": 259.43316666662577,
      "v": 92
    },
    {
      "midi": 43,
      "hit": false,
      "t": 225140.81899999976,
      "d": 141.50899999999092,
      "v": 96
    },
    {
      "midi": 69,
      "hit": false,
      "t": 225152.61141666537,
      "d": 315.4471458333137,
      "v": 100
    },
    {
      "midi": 57,
      "hit": false,
      "t": 225414.99268749868,
      "d": 147.4052083333372,
      "v": 80
    },
    {
      "midi": 66,
      "hit": false,
      "t": 225414.99268749868,
      "d": 147.4052083333372,
      "v": 88
    },
    {
      "midi": 62,
      "hit": false,
      "t": 225423.8369999987,
      "d": 132.66468749998603,
      "v": 81
    },
    {
      "midi": 62,
      "hit": false,
      "t": 225556.50168749868,
      "d": 400.9421666666749,
      "v": 91
    },
    {
      "midi": 57,
      "hit": false,
      "t": 225562.39789583202,
      "d": 400.9421666666749,
      "v": 98
    },
    {
      "midi": 66,
      "hit": false,
      "t": 225562.39789583202,
      "d": 400.9421666666749,
      "v": 99
    },
    {
      "midi": 67,
      "hit": false,
      "t": 225565.34599999926,
      "d": 132.66468749998603,
      "v": 65
    },
    {
      "midi": 65,
      "hit": false,
      "t": 225571.24220833415,
      "d": 4778.876854166738,
      "v": 95
    },
    {
      "midi": 69,
      "hit": false,
      "t": 225583.0346249987,
      "d": 253.53695833333768,
      "v": 103
    },
    {
      "midi": 79,
      "hit": false,
      "t": 225736.33604166593,
      "d": 132.66468749998603,
      "v": 65
    },
    {
      "midi": 62,
      "hit": false,
      "t": 226408.50379166735,
      "d": 1877.9423541666183,
      "v": 86
    },
    {
      "midi": 43,
      "hit": false,
      "t": 226408.50379166735,
      "d": 1898.5790833332867,
      "v": 95
    },
    {
      "midi": 50,
      "hit": false,
      "t": 226411.451895834,
      "d": 1939.8525416666234,
      "v": 95
    },
    {
      "midi": 59,
      "hit": false,
      "t": 226414.39999999868,
      "d": 259.43316666665487,
      "v": 90
    },
    {
      "midi": 74,
      "hit": false,
      "t": 226414.40000000008,
      "d": 2178.648979166668,
      "v": 50
    },
    {
      "midi": 79,
      "hit": false,
      "t": 226414.40000000008,
      "d": 2178.648979166668,
      "v": 50
    },
    {
      "midi": 71,
      "hit": false,
      "t": 226414.40000000008,
      "d": 2237.6110625000147,
      "v": 50
    },
    {
      "midi": 50,
      "hit": false,
      "t": 226414.40000000052,
      "d": 321.3433541666891,
      "v": 78
    },
    {
      "midi": 62,
      "hit": false,
      "t": 226417.34810416534,
      "d": 268.27747916665976,
      "v": 98
    },
    {
      "midi": 31,
      "hit": false,
      "t": 226417.34810416642,
      "d": 430.42320833331905,
      "v": 110
    },
    {
      "midi": 67,
      "hit": false,
      "t": 226417.34810416732,
      "d": 1889.734770833311,
      "v": 86
    },
    {
      "midi": 71,
      "hit": false,
      "t": 226418.82215625024,
      "d": 1034.78456249999,
      "v": 90
    },
    {
      "midi": 62,
      "hit": false,
      "t": 226418.82215625024,
      "d": 1043.6288749999949,
      "v": 88
    },
    {
      "midi": 67,
      "hit": false,
      "t": 226418.82215625024,
      "d": 1043.6288749999949,
      "v": 93
    },
    {
      "midi": 55,
      "hit": false,
      "t": 226420.296208332,
      "d": 265.32937500000116,
      "v": 94
    },
    {
      "midi": 67,
      "hit": false,
      "t": 226420.296208332,
      "d": 277.12179166666465,
      "v": 92
    },
    {
      "midi": 62,
      "hit": false,
      "t": 226694.469895832,
      "d": 259.43316666665487,
      "v": 97
    },
    {
      "midi": 55,
      "hit": false,
      "t": 226697.41799999867,
      "d": 259.43316666665487,
      "v": 98
    },
    {
      "midi": 67,
      "hit": false,
      "t": 226697.41799999867,
      "d": 259.43316666665487,
      "v": 95
    },
    {
      "midi": 59,
      "hit": false,
      "t": 226700.36610416532,
      "d": 259.43316666665487,
      "v": 81
    },
    {
      "midi": 52,
      "hit": false,
      "t": 226718.0547291672,
      "d": 91.39122916667839,
      "v": 82
    },
    {
      "midi": 31,
      "hit": false,
      "t": 226974.5397916664,
      "d": 350.82439583333326,
      "v": 110
    },
    {
      "midi": 67,
      "hit": false,
      "t": 226977.487895832,
      "d": 259.43316666665487,
      "v": 98
    },
    {
      "midi": 55,
      "hit": false,
      "t": 226980.43599999865,
      "d": 259.43316666665487,
      "v": 96
    },
    {
      "midi": 62,
      "hit": false,
      "t": 226980.43600000054,
      "d": 2149.167937499995,
      "v": 60
    },
    {
      "midi": 59,
      "hit": false,
      "t": 226983.3841041653,
      "d": 259.43316666665487,
      "v": 94
    },
    {
      "midi": 62,
      "hit": false,
      "t": 226983.3841041653,
      "d": 259.43316666665487,
      "v": 97
    },
    {
      "midi": 55,
      "hit": false,
      "t": 227004.02083333387,
      "d": 1506.481229166675,
      "v": 98
    },
    {
      "midi": 62,
      "hit": false,
      "t": 227257.55779166528,
      "d": 117.92416666666395,
      "v": 85
    },
    {
      "midi": 67,
      "hit": false,
      "t": 227260.50589583194,
      "d": 117.92416666666395,
      "v": 93
    },
    {
      "midi": 55,
      "hit": false,
      "t": 227263.4539999986,
      "d": 117.92416666666395,
      "v": 75
    },
    {
      "midi": 59,
      "hit": false,
      "t": 227263.4539999986,
      "d": 117.92416666666395,
      "v": 82
    },
    {
      "midi": 62,
      "hit": false,
      "t": 227399.06679166527,
      "d": 259.43316666665487,
      "v": 88
    },
    {
      "midi": 67,
      "hit": false,
      "t": 227402.01489583193,
      "d": 259.43316666665487,
      "v": 90
    },
    {
      "midi": 55,
      "hit": false,
      "t": 227404.9629999986,
      "d": 259.43316666665487,
      "v": 81
    },
    {
      "midi": 59,
      "hit": false,
      "t": 227404.9629999986,
      "d": 259.43316666665487,
      "v": 78
    },
    {
      "midi": 31,
      "hit": false,
      "t": 227428.54783333308,
      "d": 32.42914583333186,
      "v": 110
    },
    {
      "midi": 31,
      "hit": false,
      "t": 227543.5238958331,
      "d": 82.5469166666735,
      "v": 110
    },
    {
      "midi": 69,
      "hit": false,
      "t": 227550.89415625023,
      "d": 1046.5769791666535,
      "v": 94
    },
    {
      "midi": 62,
      "hit": false,
      "t": 227550.89415625023,
      "d": 1049.525083333312,
      "v": 97
    },
    {
      "midi": 66,
      "hit": false,
      "t": 227550.89415625023,
      "d": 1049.525083333312,
      "v": 99
    },
    {
      "midi": 67,
      "hit": false,
      "t": 227679.13668749857,
      "d": 147.4052083333081,
      "v": 100
    },
    {
      "midi": 55,
      "hit": false,
      "t": 227682.08479166523,
      "d": 141.50899999999092,
      "v": 74
    },
    {
      "midi": 59,
      "hit": false,
      "t": 227682.08479166523,
      "d": 141.50899999999092,
      "v": 89
    },
    {
      "midi": 62,
      "hit": false,
      "t": 227685.0328958319,
      "d": 141.50899999999092,
      "v": 95
    },
    {
      "midi": 59,
      "hit": false,
      "t": 227823.59379166522,
      "d": 421.57889583331416,
      "v": 85
    },
    {
      "midi": 55,
      "hit": false,
      "t": 227823.59379166522,
      "d": 424.52699999997276,
      "v": 68
    },
    {
      "midi": 62,
      "hit": false,
      "t": 227826.54189583188,
      "d": 421.57889583331416,
      "v": 85
    },
    {
      "midi": 67,
      "hit": false,
      "t": 227826.54189583188,
      "d": 421.57889583331416,
      "v": 104
    },
    {
      "midi": 31,
      "hit": false,
      "t": 227829.48999999976,
      "d": 403.8902708333335,
      "v": 110
    },
    {
      "midi": 59,
      "hit": false,
      "t": 228245.17268749853,
      "d": 144.45710416667862,
      "v": 72
    },
    {
      "midi": 55,
      "hit": false,
      "t": 228248.1207916652,
      "d": 135.61279166667373,
      "v": 79
    },
    {
      "midi": 67,
      "hit": false,
      "t": 228248.1207916652,
      "d": 135.61279166667373,
      "v": 91
    },
    {
      "midi": 62,
      "hit": false,
      "t": 228248.1207916652,
      "d": 144.45710416667862,
      "v": 79
    },
    {
      "midi": 67,
      "hit": false,
      "t": 228383.73358333186,
      "d": 144.45710416664951,
      "v": 91
    },
    {
      "midi": 55,
      "hit": false,
      "t": 228383.73358333186,
      "d": 147.4052083333081,
      "v": 79
    },
    {
      "midi": 59,
      "hit": false,
      "t": 228389.6297916652,
      "d": 138.56089583330322,
      "v": 73
    },
    {
      "midi": 62,
      "hit": false,
      "t": 228392.57789583187,
      "d": 135.61279166664463,
      "v": 76
    },
    {
      "midi": 31,
      "hit": false,
      "t": 228392.5778958331,
      "d": 117.92416666666395,
      "v": 110
    },
    {
      "midi": 67,
      "hit": false,
      "t": 228392.57789583397,
      "d": 250.58885416664998,
      "v": 86
    },
    {
      "midi": 48,
      "hit": false,
      "t": 228392.57789583397,
      "d": 268.27747916663066,
      "v": 95
    },
    {
      "midi": 55,
      "hit": false,
      "t": 228395.52600000062,
      "d": 265.32937499997206,
      "v": 95
    },
    {
      "midi": 62,
      "hit": false,
      "t": 228398.47410416728,
      "d": 259.43316666665487,
      "v": 86
    },
    {
      "midi": 59,
      "hit": false,
      "t": 228528.1906874985,
      "d": 117.92416666666395,
      "v": 78
    },
    {
      "midi": 62,
      "hit": false,
      "t": 228528.1906874985,
      "d": 120.87227083332255,
      "v": 79
    },
    {
      "midi": 67,
      "hit": false,
      "t": 228528.1906874985,
      "d": 415.68268749996787,
      "v": 106
    },
    {
      "midi": 55,
      "hit": false,
      "t": 228531.13879166517,
      "d": 415.68268749996787,
      "v": 83
    },
    {
      "midi": 48,
      "hit": false,
      "t": 228557.6717291672,
      "d": 126.76847916666884,
      "v": 67
    },
    {
      "midi": 50,
      "hit": false,
      "t": 228634.32243750052,
      "d": 327.2395625000063,
      "v": 79
    },
    {
      "midi": 48,
      "hit": false,
      "t": 228672.64779166726,
      "d": 1801.2916458333493,
      "v": 95
    },
    {
      "midi": 24,
      "hit": false,
      "t": 228675.5958958331,
      "d": 412.7345833333384,
      "v": 110
    },
    {
      "midi": 62,
      "hit": false,
      "t": 228675.59589583392,
      "d": 1833.7207916667103,
      "v": 86
    },
    {
      "midi": 60,
      "hit": false,
      "t": 228678.5439999985,
      "d": 259.43316666665487,
      "v": 94
    },
    {
      "midi": 76,
      "hit": false,
      "t": 228678.54400000008,
      "d": 2163.908458333346,
      "v": 50
    },
    {
      "midi": 79,
      "hit": false,
      "t": 228678.54400000008,
      "d": 2163.908458333346,
      "v": 50
    },
    {
      "midi": 72,
      "hit": false,
      "t": 228678.54400000008,
      "d": 2190.4413958333316,
      "v": 50
    },
    {
      "midi": 64,
      "hit": false,
      "t": 228681.49210416517,
      "d": 259.43316666665487,
      "v": 95
    },
    {
      "midi": 67,
      "hit": false,
      "t": 228681.49210416726,
      "d": 1798.3435416666907,
      "v": 86
    },
    {
      "midi": 55,
      "hit": false,
      "t": 228681.49210416726,
      "d": 1807.1878541666956,
      "v": 95
    },
    {
      "midi": 72,
      "hit": false,
      "t": 228682.96615625022,
      "d": 972.874375000014,
      "v": 98
    },
    {
      "midi": 64,
      "hit": false,
      "t": 228682.96615625022,
      "d": 984.6667916666775,
      "v": 84
    },
    {
      "midi": 60,
      "hit": false,
      "t": 228682.96615625022,
      "d": 1002.3554166666872,
      "v": 98
    },
    {
      "midi": 60,
      "hit": false,
      "t": 228955.66579166515,
      "d": 259.433166666684,
      "v": 95
    },
    {
      "midi": 64,
      "hit": false,
      "t": 228955.66579166515,
      "d": 259.433166666684,
      "v": 74
    },
    {
      "midi": 67,
      "hit": false,
      "t": 228955.66579166515,
      "d": 259.433166666684,
      "v": 88
    },
    {
      "midi": 55,
      "hit": false,
      "t": 228961.5619999985,
      "d": 259.433166666684,
      "v": 83
    },
    {
      "midi": 52,
      "hit": false,
      "t": 228961.56200000053,
      "d": 103.18364583334187,
      "v": 80
    },
    {
      "midi": 55,
      "hit": false,
      "t": 229232.78758333388,
      "d": 1273.5810000000056,
      "v": 98
    },
    {
      "midi": 67,
      "hit": false,
      "t": 229238.6837916652,
      "d": 259.43316666665487,
      "v": 102
    },
    {
      "midi": 24,
      "hit": false,
      "t": 229238.68379166644,
      "d": 318.3952500000014,
      "v": 110
    },
    {
      "midi": 64,
      "hit": false,
      "t": 229241.63189583184,
      "d": 259.43316666665487,
      "v": 97
    },
    {
      "midi": 55,
      "hit": false,
      "t": 229244.5799999985,
      "d": 259.43316666665487,
      "v": 74
    },
    {
      "midi": 60,
      "hit": false,
      "t": 229247.52810416516,
      "d": 259.43316666665487,
      "v": 96
    },
    {
      "midi": 62,
      "hit": false,
      "t": 229265.2167291672,
      "d": 1241.1518541666737,
      "v": 60
    },
    {
      "midi": 55,
      "hit": false,
      "t": 229521.70179166514,
      "d": 141.50899999999092,
      "v": 78
    },
    {
      "midi": 67,
      "hit": false,
      "t": 229521.70179166514,
      "d": 147.4052083333081,
      "v": 98
    },
    {
      "midi": 64,
      "hit": false,
      "t": 229524.6498958318,
      "d": 141.50899999999092,
      "v": 84
    },
    {
      "midi": 60,
      "hit": false,
      "t": 229524.6498958318,
      "d": 144.45710416664951,
      "v": 86
    },
    {
      "midi": 55,
      "hit": false,
      "t": 229663.21079166513,
      "d": 259.43316666665487,
      "v": 72
    },
    {
      "midi": 64,
      "hit": false,
      "t": 229666.1588958318,
      "d": 259.43316666665487,
      "v": 98
    },
    {
      "midi": 60,
      "hit": false,
      "t": 229669.10699999845,
      "d": 259.43316666665487,
      "v": 93
    },
    {
      "midi": 67,
      "hit": false,
      "t": 229669.10699999845,
      "d": 259.43316666665487,
      "v": 95
    },
    {
      "midi": 24,
      "hit": false,
      "t": 229692.6918333331,
      "d": 32.42914583333186,
      "v": 110
    },
    {
      "midi": 24,
      "hit": false,
      "t": 229807.66789583312,
      "d": 53.06587500000023,
      "v": 110
    },
    {
      "midi": 60,
      "hit": false,
      "t": 229815.03815625023,
      "d": 719.3374166666763,
      "v": 95
    },
    {
      "midi": 67,
      "hit": false,
      "t": 229815.03815625023,
      "d": 719.3374166666763,
      "v": 92
    },
    {
      "midi": 62,
      "hit": false,
      "t": 229815.03815625023,
      "d": 725.2336250000226,
      "v": 89
    },
    {
      "midi": 60,
      "hit": false,
      "t": 229940.33258333176,
      "d": 144.45710416667862,
      "v": 97
    },
    {
      "midi": 67,
      "hit": false,
      "t": 229943.28068749842,
      "d": 141.50900000002002,
      "v": 101
    },
    {
      "midi": 55,
      "hit": false,
      "t": 229943.28068749842,
      "d": 144.45710416667862,
      "v": 76
    },
    {
      "midi": 64,
      "hit": false,
      "t": 229949.17689583177,
      "d": 135.61279166667373,
      "v": 86
    },
    {
      "midi": 60,
      "hit": false,
      "t": 230084.78968749844,
      "d": 386.2016458333237,
      "v": 91
    },
    {
      "midi": 67,
      "hit": false,
      "t": 230084.78968749844,
      "d": 397.9940624999872,
      "v": 97
    },
    {
      "midi": 64,
      "hit": false,
      "t": 230084.78968749844,
      "d": 400.9421666666458,
      "v": 89
    },
    {
      "midi": 55,
      "hit": false,
      "t": 230087.7377916651,
      "d": 397.9940624999872,
      "v": 85
    },
    {
      "midi": 24,
      "hit": false,
      "t": 230096.58210416645,
      "d": 362.61681249999674,
      "v": 110
    },
    {
      "midi": 60,
      "hit": false,
      "t": 230506.36858333176,
      "d": 141.50899999999092,
      "v": 79
    },
    {
      "midi": 55,
      "hit": false,
      "t": 230509.31668749842,
      "d": 141.50899999999092,
      "v": 73
    },
    {
      "midi": 64,
      "hit": false,
      "t": 230509.31668749842,
      "d": 141.50899999999092,
      "v": 81
    },
    {
      "midi": 67,
      "hit": false,
      "t": 230512.26479166507,
      "d": 138.56089583333232,
      "v": 97
    },
    {
      "midi": 62,
      "hit": false,
      "t": 230644.92947916721,
      "d": 1022.9921458333265,
      "v": 60
    },
    {
      "midi": 60,
      "hit": false,
      "t": 230647.87758333175,
      "d": 141.50899999999092,
      "v": 80
    },
    {
      "midi": 55,
      "hit": false,
      "t": 230650.8256874984,
      "d": 138.56089583333232,
      "v": 73
    },
    {
      "midi": 64,
      "hit": false,
      "t": 230650.8256874984,
      "d": 144.45710416667862,
      "v": 83
    },
    {
      "midi": 67,
      "hit": false,
      "t": 230650.8256874984,
      "d": 144.45710416667862,
      "v": 80
    },
    {
      "midi": 24,
      "hit": false,
      "t": 230653.77379166643,
      "d": 73.7026041666686,
      "v": 110
    },
    {
      "midi": 57,
      "hit": false,
      "t": 230656.72189583397,
      "d": 250.58885416664998,
      "v": 95
    },
    {
      "midi": 55,
      "hit": false,
      "t": 230659.67000000054,
      "d": 492.3333958333242,
      "v": 97
    },
    {
      "midi": 62,
      "hit": false,
      "t": 230659.67000000062,
      "d": 265.32937500000116,
      "v": 86
    },
    {
      "midi": 50,
      "hit": false,
      "t": 230662.61810416728,
      "d": 262.38127083334257,
      "v": 95
    },
    {
      "midi": 67,
      "hit": false,
      "t": 230662.61810416728,
      "d": 262.38127083334257,
      "v": 86
    },
    {
      "midi": 66,
      "hit": false,
      "t": 230664.09215625026,
      "d": 339.03197916666977,
      "v": 99
    },
    {
      "midi": 62,
      "hit": false,
      "t": 230664.09215625026,
      "d": 341.98008333332837,
      "v": 92
    },
    {
      "midi": 64,
      "hit": false,
      "t": 230665.56620833423,
      "d": 415.6826875000552,
      "v": 92
    },
    {
      "midi": 55,
      "hit": false,
      "t": 230789.38658333174,
      "d": 117.92416666669305,
      "v": 82
    },
    {
      "midi": 60,
      "hit": false,
      "t": 230789.38658333174,
      "d": 117.92416666669305,
      "v": 82
    },
    {
      "midi": 64,
      "hit": false,
      "t": 230795.2827916651,
      "d": 117.92416666669305,
      "v": 94
    },
    {
      "midi": 67,
      "hit": false,
      "t": 230795.2827916651,
      "d": 117.92416666669305,
      "v": 102
    },
    {
      "midi": 67,
      "hit": false,
      "t": 230933.84368749845,
      "d": 259.433166666684,
      "v": 92
    },
    {
      "midi": 26,
      "hit": false,
      "t": 230936.79179166644,
      "d": 412.7345833333384,
      "v": 110
    },
    {
      "midi": 57,
      "hit": false,
      "t": 230939.7398958318,
      "d": 259.433166666684,
      "v": 90
    },
    {
      "midi": 62,
      "hit": false,
      "t": 230939.7398958318,
      "d": 259.433166666684,
      "v": 100
    },
    {
      "midi": 79,
      "hit": false,
      "t": 230942.68800000008,
      "d": 1096.694749999995,
      "v": 50
    },
    {
      "midi": 74,
      "hit": false,
      "t": 230942.68800000008,
      "d": 4398.571416666644,
      "v": 50
    },
    {
      "midi": 81,
      "hit": false,
      "t": 230942.68800000008,
      "d": 4404.46762499999,
      "v": 50
    },
    {
      "midi": 57,
      "hit": false,
      "t": 230942.68800000063,
      "d": 2352.587124999991,
      "v": 95
    },
    {
      "midi": 62,
      "hit": false,
      "t": 230942.68800000063,
      "d": 2458.7188750000205,
      "v": 86
    },
    {
      "midi": 50,
      "hit": false,
      "t": 230945.6361041673,
      "d": 2358.483333333337,
      "v": 95
    },
    {
      "midi": 67,
      "hit": false,
      "t": 230945.6361041673,
      "d": 2449.8745625000156,
      "v": 86
    },
    {
      "midi": 69,
      "hit": false,
      "t": 230957.4285208318,
      "d": 480.5409791666607,
      "v": 98
    },
    {
      "midi": 64,
      "hit": false,
      "t": 231090.0932083343,
      "d": 23.58483333332697,
      "v": 59
    },
    {
      "midi": 57,
      "hit": false,
      "t": 231210.9654791672,
      "d": 138.56089583333232,
      "v": 95
    },
    {
      "midi": 62,
      "hit": false,
      "t": 231219.80979166515,
      "d": 259.43316666665487,
      "v": 90
    },
    {
      "midi": 67,
      "hit": false,
      "t": 231219.80979166515,
      "d": 259.43316666665487,
      "v": 94
    },
    {
      "midi": 57,
      "hit": false,
      "t": 231222.7578958318,
      "d": 259.43316666665487,
      "v": 96
    },
    {
      "midi": 57,
      "hit": false,
      "t": 231499.87968749847,
      "d": 259.43316666665487,
      "v": 91
    },
    {
      "midi": 67,
      "hit": false,
      "t": 231502.82779166513,
      "d": 259.43316666665487,
      "v": 97
    },
    {
      "midi": 62,
      "hit": false,
      "t": 231505.7758958318,
      "d": 259.43316666665487,
      "v": 100
    },
    {
      "midi": 26,
      "hit": false,
      "t": 231511.67210416644,
      "d": 350.82439583333326,
      "v": 110
    },
    {
      "midi": 57,
      "hit": false,
      "t": 231511.6721041672,
      "d": 156.2495208333421,
      "v": 95
    },
    {
      "midi": 69,
      "hit": false,
      "t": 231517.56831249845,
      "d": 350.82439583330415,
      "v": 100
    },
    {
      "midi": 62,
      "hit": false,
      "t": 231774.05337500054,
      "d": 200.47108333333745,
      "v": 60
    },
    {
      "midi": 62,
      "hit": false,
      "t": 231785.8457916651,
      "d": 397.9940624999581,
      "v": 93
    },
    {
      "midi": 57,
      "hit": false,
      "t": 231788.79389583177,
      "d": 117.92416666666395,
      "v": 90
    },
    {
      "midi": 55,
      "hit": false,
      "t": 231788.79389583386,
      "d": 144.45710416667862,
      "v": 99
    },
    {
      "midi": 67,
      "hit": false,
      "t": 231791.74199999843,
      "d": 117.92416666666395,
      "v": 98
    },
    {
      "midi": 66,
      "hit": false,
      "t": 231924.4066874984,
      "d": 235.8483333333279,
      "v": 105
    },
    {
      "midi": 57,
      "hit": false,
      "t": 231927.35479166507,
      "d": 244.6926458333328,
      "v": 90
    },
    {
      "midi": 69,
      "hit": false,
      "t": 231939.14720833173,
      "d": 341.98008333332837,
      "v": 95
    },
    {
      "midi": 26,
      "hit": false,
      "t": 231953.88772916645,
      "d": 32.42914583333186,
      "v": 110
    },
    {
      "midi": 62,
      "hit": false,
      "t": 232071.81189583387,
      "d": 244.6926458333328,
      "v": 60
    },
    {
      "midi": 26,
      "hit": false,
      "t": 232074.75999999978,
      "d": 76.6507083333272,
      "v": 110
    },
    {
      "midi": 78,
      "hit": false,
      "t": 232074.76000000007,
      "d": 1105.5390625,
      "v": 45
    },
    {
      "midi": 57,
      "hit": false,
      "t": 232080.65620833388,
      "d": 247.64074999999139,
      "v": 99
    },
    {
      "midi": 62,
      "hit": false,
      "t": 232210.37279166505,
      "d": 117.92416666666395,
      "v": 75
    },
    {
      "midi": 66,
      "hit": false,
      "t": 232210.37279166505,
      "d": 117.92416666666395,
      "v": 81
    },
    {
      "midi": 57,
      "hit": false,
      "t": 232216.2689999984,
      "d": 117.92416666666395,
      "v": 90
    },
    {
      "midi": 66,
      "hit": false,
      "t": 232351.88179166507,
      "d": 400.9421666666749,
      "v": 102
    },
    {
      "midi": 57,
      "hit": false,
      "t": 232354.82989583173,
      "d": 400.9421666666749,
      "v": 99
    },
    {
      "midi": 62,
      "hit": false,
      "t": 232354.82989583173,
      "d": 400.9421666666749,
      "v": 98
    },
    {
      "midi": 26,
      "hit": false,
      "t": 232354.8298958331,
      "d": 409.7864791666798,
      "v": 110
    },
    {
      "midi": 69,
      "hit": false,
      "t": 232372.51852083174,
      "d": 766.5070833333593,
      "v": 97
    },
    {
      "midi": 66,
      "hit": false,
      "t": 232773.46068749842,
      "d": 117.92416666669305,
      "v": 97
    },
    {
      "midi": 57,
      "hit": false,
      "t": 232779.35689583176,
      "d": 141.50899999999092,
      "v": 84
    },
    {
      "midi": 62,
      "hit": false,
      "t": 232779.35689583176,
      "d": 259.43316666665487,
      "v": 96
    },
    {
      "midi": 62,
      "hit": false,
      "t": 232909.0734791672,
      "d": 1329.5949791666935,
      "v": 60
    },
    {
      "midi": 67,
      "hit": false,
      "t": 232917.9177916651,
      "d": 138.56089583333232,
      "v": 103
    },
    {
      "midi": 57,
      "hit": false,
      "t": 232920.86589583175,
      "d": 141.50900000002002,
      "v": 86
    },
    {
      "midi": 55,
      "hit": false,
      "t": 232920.86589583385,
      "d": 518.8663333333388,
      "v": 108
    },
    {
      "midi": 26,
      "hit": false,
      "t": 232923.81399999978,
      "d": 76.6507083333272,
      "v": 110
    },
    {
      "midi": 67,
      "hit": false,
      "t": 233056.47868749843,
      "d": 147.40520833336632,
      "v": 96
    },
    {
      "midi": 57,
      "hit": false,
      "t": 233062.37489583177,
      "d": 135.61279166667373,
      "v": 89
    },
    {
      "midi": 62,
      "hit": false,
      "t": 233065.32299999843,
      "d": 138.56089583336143,
      "v": 84
    },
    {
      "midi": 57,
      "hit": false,
      "t": 233197.98768749845,
      "d": 259.433166666684,
      "v": 85
    },
    {
      "midi": 62,
      "hit": false,
      "t": 233203.8838958318,
      "d": 259.433166666684,
      "v": 94
    },
    {
      "midi": 67,
      "hit": false,
      "t": 233203.8838958318,
      "d": 259.433166666684,
      "v": 100
    },
    {
      "midi": 79,
      "hit": false,
      "t": 233206.83200000005,
      "d": 1090.798541666678,
      "v": 50
    },
    {
      "midi": 69,
      "hit": false,
      "t": 233209.78010416514,
      "d": 480.5409791666607,
      "v": 99
    },
    {
      "midi": 26,
      "hit": false,
      "t": 233209.78010416645,
      "d": 412.7345833333384,
      "v": 110
    },
    {
      "midi": 57,
      "hit": false,
      "t": 233481.0056874985,
      "d": 259.43316666665487,
      "v": 79
    },
    {
      "midi": 62,
      "hit": false,
      "t": 233483.95379166515,
      "d": 259.43316666665487,
      "v": 95
    },
    {
      "midi": 67,
      "hit": false,
      "t": 233486.9018958318,
      "d": 259.43316666665487,
      "v": 92
    },
    {
      "midi": 57,
      "hit": false,
      "t": 233486.90189583384,
      "d": 138.56089583333232,
      "v": 101
    },
    {
      "midi": 50,
      "hit": false,
      "t": 233486.901895834,
      "d": 312.4990416666551,
      "v": 95
    },
    {
      "midi": 57,
      "hit": false,
      "t": 233486.901895834,
      "d": 312.4990416666551,
      "v": 95
    },
    {
      "midi": 62,
      "hit": false,
      "t": 233489.85000000065,
      "d": 486.437187500007,
      "v": 86
    },
    {
      "midi": 67,
      "hit": false,
      "t": 233492.7981041673,
      "d": 566.0360000000219,
      "v": 86
    },
    {
      "midi": 66,
      "hit": false,
      "t": 233492.79810416762,
      "d": 294.8104166666744,
      "v": 104
    },
    {
      "midi": 57,
      "hit": false,
      "t": 233766.97179166513,
      "d": 259.43316666665487,
      "v": 79
    },
    {
      "midi": 67,
      "hit": false,
      "t": 233769.9198958318,
      "d": 330.1876666666358,
      "v": 102
    },
    {
      "midi": 62,
      "hit": false,
      "t": 233769.9198958318,
      "d": 339.03197916664067,
      "v": 84
    },
    {
      "midi": 57,
      "hit": false,
      "t": 233769.91989583385,
      "d": 147.4052083333372,
      "v": 100
    },
    {
      "midi": 26,
      "hit": false,
      "t": 233775.81610416644,
      "d": 297.758520833333,
      "v": 110
    },
    {
      "midi": 69,
      "hit": false,
      "t": 233781.71231249845,
      "d": 356.72060416665045,
      "v": 96
    },
    {
      "midi": 57,
      "hit": false,
      "t": 234052.93789583177,
      "d": 117.92416666666395,
      "v": 82
    },
    {
      "midi": 55,
      "hit": false,
      "t": 234052.93789583386,
      "d": 147.4052083333372,
      "v": 104
    },
    {
      "midi": 66,
      "hit": false,
      "t": 234058.83410416765,
      "d": 306.6028333333379,
      "v": 104
    },
    {
      "midi": 66,
      "hit": false,
      "t": 234188.55068749844,
      "d": 259.43316666662577,
      "v": 97
    },
    {
      "midi": 57,
      "hit": false,
      "t": 234191.4987916651,
      "d": 259.43316666662577,
      "v": 83
    },
    {
      "midi": 62,
      "hit": false,
      "t": 234194.44689583176,
      "d": 259.43316666662577,
      "v": 92
    },
    {
      "midi": 69,
      "hit": false,
      "t": 234209.18741666508,
      "d": 315.4471458333137,
      "v": 100
    },
    {
      "midi": 26,
      "hit": false,
      "t": 234220.9798333331,
      "d": 32.42914583333186,
      "v": 110
    },
    {
      "midi": 62,
      "hit": false,
      "t": 234333.00779166722,
      "d": 173.93814583335188,
      "v": 60
    },
    {
      "midi": 57,
      "hit": false,
      "t": 234333.00779166733,
      "d": 238.7964375000156,
      "v": 95
    },
    {
      "midi": 62,
      "hit": false,
      "t": 234333.00779166733,
      "d": 247.6407500000205,
      "v": 86
    },
    {
      "midi": 26,
      "hit": false,
      "t": 234338.90399999978,
      "d": 85.49502083333209,
      "v": 110
    },
    {
      "midi": 78,
      "hit": false,
      "t": 234338.90400000007,
      "d": 1002.3554166666581,
      "v": 45
    },
    {
      "midi": 50,
      "hit": false,
      "t": 234341.85210416734,
      "d": 235.848333333357,
      "v": 95
    },
    {
      "midi": 67,
      "hit": false,
      "t": 234341.85210416734,
      "d": 250.58885416667908,
      "v": 86
    },
    {
      "midi": 57,
      "hit": false,
      "t": 234350.69641666723,
      "d": 147.4052083333372,
      "v": 98
    },
    {
      "midi": 57,
      "hit": false,
      "t": 234471.5686874984,
      "d": 147.4052083333372,
      "v": 80
    },
    {
      "midi": 66,
      "hit": false,
      "t": 234471.5686874984,
      "d": 147.4052083333372,
      "v": 88
    },
    {
      "midi": 62,
      "hit": false,
      "t": 234480.4129999984,
      "d": 132.66468749998603,
      "v": 81
    },
    {
      "midi": 62,
      "hit": false,
      "t": 234613.0776874984,
      "d": 400.9421666666749,
      "v": 91
    },
    {
      "midi": 26,
      "hit": false,
      "t": 234616.02579166644,
      "d": 409.7864791666798,
      "v": 110
    },
    {
      "midi": 57,
      "hit": false,
      "t": 234618.97389583173,
      "d": 400.9421666666749,
      "v": 98
    },
    {
      "midi": 66,
      "hit": false,
      "t": 234618.97389583173,
      "d": 400.9421666666749,
      "v": 99
    },
    {
      "midi": 67,
      "hit": false,
      "t": 234624.87010416735,
      "d": 271.22558333334746,
      "v": 86
    },
    {
      "midi": 62,
      "hit": false,
      "t": 234624.87010416735,
      "d": 274.17368750000605,
      "v": 86
    },
    {
      "midi": 50,
      "hit": false,
      "t": 234624.87010416735,
      "d": 285.96610416666954,
      "v": 95
    },
    {
      "midi": 57,
      "hit": false,
      "t": 234624.87010416735,
      "d": 294.8104166666744,
      "v": 95
    },
    {
      "midi": 66,
      "hit": false,
      "t": 234624.87010416764,
      "d": 294.8104166666744,
      "v": 104
    },
    {
      "midi": 62,
      "hit": false,
      "t": 234630.76631250058,
      "d": 262.38127083331347,
      "v": 60
    },
    {
      "midi": 69,
      "hit": false,
      "t": 234639.6106249984,
      "d": 819.5729583333305,
      "v": 103
    },
    {
      "midi": 55,
      "hit": false,
      "t": 234642.55872916724,
      "d": 141.50899999999092,
      "v": 104
    },
    {
      "midi": 50,
      "hit": false,
      "t": 234901.9918958339,
      "d": 82.5469166666735,
      "v": 73
    },
    {
      "midi": 52,
      "hit": false,
      "t": 234955.0577708339,
      "d": 135.61279166667373,
      "v": 78
    },
    {
      "midi": 62,
      "hit": false,
      "t": 235037.60468749842,
      "d": 259.43316666665487,
      "v": 83
    },
    {
      "midi": 66,
      "hit": false,
      "t": 235040.55279166508,
      "d": 117.92416666666395,
      "v": 88
    },
    {
      "midi": 57,
      "hit": false,
      "t": 235043.50089583173,
      "d": 117.92416666666395,
      "v": 77
    },
    {
      "midi": 67,
      "hit": false,
      "t": 235182.06179166507,
      "d": 117.92416666666395,
      "v": 97
    },
    {
      "midi": 26,
      "hit": false,
      "t": 235182.06179166646,
      "d": 38.32535416667815,
      "v": 110
    },
    {
      "midi": 62,
      "hit": false,
      "t": 235182.06179166725,
      "d": 2446.9264583332697,
      "v": 60
    },
    {
      "midi": 43,
      "hit": false,
      "t": 235182.06179166737,
      "d": 250.58885416667908,
      "v": 95
    },
    {
      "midi": 50,
      "hit": false,
      "t": 235182.06179166737,
      "d": 259.433166666684,
      "v": 95
    },
    {
      "midi": 57,
      "hit": false,
      "t": 235187.9579999984,
      "d": 117.92416666666395,
      "v": 71
    },
    {
      "midi": 62,
      "hit": false,
      "t": 235187.9580000007,
      "d": 259.433166666684,
      "v": 86
    },
    {
      "midi": 67,
      "hit": false,
      "t": 235187.9580000007,
      "d": 262.38127083334257,
      "v": 86
    },
    {
      "midi": 67,
      "hit": false,
      "t": 235190.90610416766,
      "d": 4383.830895833322,
      "v": 104
    },
    {
      "midi": 55,
      "hit": false,
      "t": 235211.54283333392,
      "d": 757.6627708332671,
      "v": 98
    },
    {
      "midi": 62,
      "hit": false,
      "t": 235326.51889583174,
      "d": 117.92416666666395,
      "v": 86
    },
    {
      "midi": 67,
      "hit": false,
      "t": 235326.51889583174,
      "d": 117.92416666666395,
      "v": 98
    },
    {
      "midi": 57,
      "hit": false,
      "t": 235329.4669999984,
      "d": 117.92416666666395,
      "v": 79
    },
    {
      "midi": 26,
      "hit": false,
      "t": 235358.94804166647,
      "d": 17.68862500000978,
      "v": 110
    },
    {
      "midi": 48,
      "hit": false,
      "t": 235465.07979166726,
      "d": 94.33933333330788,
      "v": 80
    },
    {
      "midi": 62,
      "hit": false,
      "t": 235465.07979166738,
      "d": 1877.9423541666765,
      "v": 86
    },
    {
      "midi": 43,
      "hit": false,
      "t": 235465.07979166738,
      "d": 1898.579083333345,
      "v": 95
    },
    {
      "midi": 50,
      "hit": false,
      "t": 235468.02789583404,
      "d": 1939.8525416666816,
      "v": 95
    },
    {
      "midi": 59,
      "hit": false,
      "t": 235470.9759999984,
      "d": 259.43316666665487,
      "v": 90
    },
    {
      "midi": 31,
      "hit": false,
      "t": 235470.97599999982,
      "d": 353.77249999999185,
      "v": 110
    },
    {
      "midi": 74,
      "hit": false,
      "t": 235470.97600000008,
      "d": 2178.648979166668,
      "v": 50
    },
    {
      "midi": 79,
      "hit": false,
      "t": 235470.97600000008,
      "d": 2178.648979166668,
      "v": 50
    },
    {
      "midi": 71,
      "hit": false,
      "t": 235470.97600000008,
      "d": 2237.6110625000147,
      "v": 50
    },
    {
      "midi": 62,
      "hit": false,
      "t": 235473.92410416505,
      "d": 268.27747916665976,
      "v": 98
    },
    {
      "midi": 67,
      "hit": false,
      "t": 235473.92410416738,
      "d": 1889.73477083334,
      "v": 86
    },
    {
      "midi": 71,
      "hit": false,
      "t": 235475.39815625027,
      "d": 1034.78456249999,
      "v": 90
    },
    {
      "midi": 62,
      "hit": false,
      "t": 235475.39815625027,
      "d": 1043.6288749999949,
      "v": 88
    },
    {
      "midi": 67,
      "hit": false,
      "t": 235475.39815625027,
      "d": 1043.6288749999949,
      "v": 93
    },
    {
      "midi": 55,
      "hit": false,
      "t": 235476.8722083317,
      "d": 265.32937500000116,
      "v": 94
    },
    {
      "midi": 67,
      "hit": false,
      "t": 235476.8722083317,
      "d": 277.12179166666465,
      "v": 92
    },
    {
      "midi": 50,
      "hit": false,
      "t": 235532.88618750058,
      "d": 241.7445416666451,
      "v": 75
    },
    {
      "midi": 62,
      "hit": false,
      "t": 235751.04589583172,
      "d": 259.43316666665487,
      "v": 97
    },
    {
      "midi": 55,
      "hit": false,
      "t": 235753.99399999838,
      "d": 259.43316666665487,
      "v": 98
    },
    {
      "midi": 67,
      "hit": false,
      "t": 235753.99399999838,
      "d": 259.43316666665487,
      "v": 95
    },
    {
      "midi": 59,
      "hit": false,
      "t": 235756.94210416503,
      "d": 259.43316666665487,
      "v": 81
    },
    {
      "midi": 52,
      "hit": false,
      "t": 235789.37125000055,
      "d": 100.23554166665417,
      "v": 84
    },
    {
      "midi": 67,
      "hit": false,
      "t": 236034.0638958317,
      "d": 259.43316666665487,
      "v": 98
    },
    {
      "midi": 55,
      "hit": false,
      "t": 236037.01199999836,
      "d": 259.43316666665487,
      "v": 96
    },
    {
      "midi": 59,
      "hit": false,
      "t": 236039.96010416502,
      "d": 259.43316666665487,
      "v": 94
    },
    {
      "midi": 62,
      "hit": false,
      "t": 236039.96010416502,
      "d": 259.43316666665487,
      "v": 97
    },
    {
      "midi": 31,
      "hit": false,
      "t": 236039.96010416647,
      "d": 353.77249999999185,
      "v": 110
    },
    {
      "midi": 55,
      "hit": false,
      "t": 236048.80441666718,
      "d": 1527.1179583333433,
      "v": 104
    },
    {
      "midi": 62,
      "hit": false,
      "t": 236314.133791665,
      "d": 117.92416666666395,
      "v": 85
    },
    {
      "midi": 67,
      "hit": false,
      "t": 236317.08189583165,
      "d": 117.92416666666395,
      "v": 93
    },
    {
      "midi": 55,
      "hit": false,
      "t": 236320.0299999983,
      "d": 117.92416666666395,
      "v": 75
    },
    {
      "midi": 59,
      "hit": false,
      "t": 236320.0299999983,
      "d": 117.92416666666395,
      "v": 82
    },
    {
      "midi": 62,
      "hit": false,
      "t": 236455.64279166498,
      "d": 259.43316666665487,
      "v": 88
    },
    {
      "midi": 67,
      "hit": false,
      "t": 236458.59089583164,
      "d": 259.43316666665487,
      "v": 90
    },
    {
      "midi": 55,
      "hit": false,
      "t": 236461.5389999983,
      "d": 259.43316666665487,
      "v": 81
    },
    {
      "midi": 59,
      "hit": false,
      "t": 236461.5389999983,
      "d": 259.43316666665487,
      "v": 78
    },
    {
      "midi": 31,
      "hit": false,
      "t": 236479.2276249998,
      "d": 32.42914583333186,
      "v": 110
    },
    {
      "midi": 31,
      "hit": false,
      "t": 236597.15179166646,
      "d": 58.96208333334653,
      "v": 110
    },
    {
      "midi": 69,
      "hit": false,
      "t": 236607.47015625026,
      "d": 1046.5769791666535,
      "v": 94
    },
    {
      "midi": 62,
      "hit": false,
      "t": 236607.47015625026,
      "d": 1049.525083333312,
      "v": 97
    },
    {
      "midi": 66,
      "hit": false,
      "t": 236607.47015625026,
      "d": 1049.525083333312,
      "v": 99
    },
    {
      "midi": 67,
      "hit": false,
      "t": 236735.71268749828,
      "d": 147.4052083333081,
      "v": 100
    },
    {
      "midi": 55,
      "hit": false,
      "t": 236738.66079166494,
      "d": 141.50899999999092,
      "v": 74
    },
    {
      "midi": 59,
      "hit": false,
      "t": 236738.66079166494,
      "d": 141.50899999999092,
      "v": 89
    },
    {
      "midi": 62,
      "hit": false,
      "t": 236741.6088958316,
      "d": 141.50899999999092,
      "v": 95
    },
    {
      "midi": 59,
      "hit": false,
      "t": 236880.16979166493,
      "d": 421.57889583331416,
      "v": 85
    },
    {
      "midi": 55,
      "hit": false,
      "t": 236880.16979166493,
      "d": 424.52699999997276,
      "v": 68
    },
    {
      "midi": 31,
      "hit": false,
      "t": 236880.16979166647,
      "d": 365.56491666665534,
      "v": 110
    },
    {
      "midi": 62,
      "hit": false,
      "t": 236883.1178958316,
      "d": 421.57889583331416,
      "v": 85
    },
    {
      "midi": 67,
      "hit": false,
      "t": 236883.1178958316,
      "d": 421.57889583331416,
      "v": 104
    },
    {
      "midi": 59,
      "hit": false,
      "t": 237301.74868749824,
      "d": 144.45710416667862,
      "v": 72
    },
    {
      "midi": 55,
      "hit": false,
      "t": 237304.6967916649,
      "d": 135.61279166667373,
      "v": 79
    },
    {
      "midi": 67,
      "hit": false,
      "t": 237304.6967916649,
      "d": 135.61279166667373,
      "v": 91
    },
    {
      "midi": 62,
      "hit": false,
      "t": 237304.6967916649,
      "d": 144.45710416667862,
      "v": 79
    },
    {
      "midi": 67,
      "hit": false,
      "t": 237440.30958333157,
      "d": 144.45710416667862,
      "v": 91
    },
    {
      "midi": 55,
      "hit": false,
      "t": 237440.30958333157,
      "d": 147.4052083333372,
      "v": 79
    },
    {
      "midi": 59,
      "hit": false,
      "t": 237446.20579166492,
      "d": 138.56089583333232,
      "v": 73
    },
    {
      "midi": 67,
      "hit": false,
      "t": 237446.2057916674,
      "d": 250.58885416667908,
      "v": 86
    },
    {
      "midi": 55,
      "hit": false,
      "t": 237446.2057916674,
      "d": 265.32937500000116,
      "v": 95
    },
    {
      "midi": 62,
      "hit": false,
      "t": 237449.15389583158,
      "d": 135.61279166667373,
      "v": 76
    },
    {
      "midi": 62,
      "hit": false,
      "t": 237449.15389583405,
      "d": 259.433166666684,
      "v": 86
    },
    {
      "midi": 31,
      "hit": false,
      "t": 237455.05010416647,
      "d": 91.39122916667839,
      "v": 110
    },
    {
      "midi": 48,
      "hit": false,
      "t": 237455.0501041674,
      "d": 268.27747916665976,
      "v": 95
    },
    {
      "midi": 59,
      "hit": false,
      "t": 237584.76668749825,
      "d": 117.92416666666395,
      "v": 78
    },
    {
      "midi": 62,
      "hit": false,
      "t": 237584.76668749825,
      "d": 120.87227083332255,
      "v": 79
    },
    {
      "midi": 67,
      "hit": false,
      "t": 237584.76668749825,
      "d": 415.68268749996787,
      "v": 106
    },
    {
      "midi": 55,
      "hit": false,
      "t": 237587.7147916649,
      "d": 415.68268749996787,
      "v": 83
    },
    {
      "midi": 48,
      "hit": false,
      "t": 237617.19583333386,
      "d": 123.82037500001024,
      "v": 85
    },
    {
      "midi": 50,
      "hit": false,
      "t": 237714.48327083385,
      "d": 247.6407500000205,
      "v": 85
    },
    {
      "midi": 62,
      "hit": false,
      "t": 237720.3794791672,
      "d": 436.31941666666535,
      "v": 60
    },
    {
      "midi": 24,
      "hit": false,
      "t": 237729.22379166647,
      "d": 374.4092291666602,
      "v": 110
    },
    {
      "midi": 67,
      "hit": false,
      "t": 237729.2237916674,
      "d": 1798.3435416666616,
      "v": 86
    },
    {
      "midi": 55,
      "hit": false,
      "t": 237729.2237916674,
      "d": 1807.1878541666665,
      "v": 95
    },
    {
      "midi": 60,
      "hit": false,
      "t": 237735.11999999825,
      "d": 259.43316666665487,
      "v": 94
    },
    {
      "midi": 76,
      "hit": false,
      "t": 237735.12000000008,
      "d": 2163.908458333346,
      "v": 50
    },
    {
      "midi": 79,
      "hit": false,
      "t": 237735.12000000008,
      "d": 2163.908458333346,
      "v": 50
    },
    {
      "midi": 72,
      "hit": false,
      "t": 237735.12000000008,
      "d": 2190.4413958333316,
      "v": 50
    },
    {
      "midi": 64,
      "hit": false,
      "t": 237738.0681041649,
      "d": 259.43316666665487,
      "v": 95
    },
    {
      "midi": 48,
      "hit": false,
      "t": 237738.0681041674,
      "d": 1801.2916458333202,
      "v": 95
    },
    {
      "midi": 62,
      "hit": false,
      "t": 237738.0681041674,
      "d": 1833.720791666652,
      "v": 86
    },
    {
      "midi": 72,
      "hit": false,
      "t": 237739.54215625025,
      "d": 972.8743749999849,
      "v": 98
    },
    {
      "midi": 64,
      "hit": false,
      "t": 237739.54215625025,
      "d": 984.6667916666484,
      "v": 84
    },
    {
      "midi": 60,
      "hit": false,
      "t": 237739.54215625025,
      "d": 1002.3554166666581,
      "v": 98
    },
    {
      "midi": 52,
      "hit": false,
      "t": 238006.34558333387,
      "d": 126.76847916666884,
      "v": 86
    },
    {
      "midi": 60,
      "hit": false,
      "t": 238012.24179166488,
      "d": 259.433166666684,
      "v": 95
    },
    {
      "midi": 64,
      "hit": false,
      "t": 238012.24179166488,
      "d": 259.433166666684,
      "v": 74
    },
    {
      "midi": 67,
      "hit": false,
      "t": 238012.24179166488,
      "d": 259.433166666684,
      "v": 88
    },
    {
      "midi": 55,
      "hit": false,
      "t": 238018.13799999823,
      "d": 259.433166666684,
      "v": 83
    },
    {
      "midi": 67,
      "hit": false,
      "t": 238295.25979166492,
      "d": 259.43316666665487,
      "v": 102
    },
    {
      "midi": 64,
      "hit": false,
      "t": 238298.20789583158,
      "d": 259.43316666665487,
      "v": 97
    },
    {
      "midi": 55,
      "hit": false,
      "t": 238301.15599999824,
      "d": 259.43316666665487,
      "v": 74
    },
    {
      "midi": 60,
      "hit": false,
      "t": 238304.1041041649,
      "d": 259.43316666665487,
      "v": 96
    },
    {
      "midi": 24,
      "hit": false,
      "t": 238304.10410416647,
      "d": 362.61681249999674,
      "v": 110
    },
    {
      "midi": 55,
      "hit": false,
      "t": 238307.05220833386,
      "d": 1229.3594375000102,
      "v": 107
    },
    {
      "midi": 62,
      "hit": false,
      "t": 238307.05220833386,
      "d": 1258.8404791666835,
      "v": 60
    },
    {
      "midi": 55,
      "hit": false,
      "t": 238578.27779166488,
      "d": 141.50899999999092,
      "v": 78
    },
    {
      "midi": 67,
      "hit": false,
      "t": 238578.27779166488,
      "d": 147.4052083333081,
      "v": 98
    },
    {
      "midi": 64,
      "hit": false,
      "t": 238581.22589583154,
      "d": 141.50899999999092,
      "v": 84
    },
    {
      "midi": 60,
      "hit": false,
      "t": 238581.22589583154,
      "d": 144.45710416664951,
      "v": 86
    },
    {
      "midi": 55,
      "hit": false,
      "t": 238719.78679166487,
      "d": 259.43316666665487,
      "v": 72
    },
    {
      "midi": 64,
      "hit": false,
      "t": 238722.73489583153,
      "d": 259.43316666665487,
      "v": 98
    },
    {
      "midi": 60,
      "hit": false,
      "t": 238725.6829999982,
      "d": 259.43316666665487,
      "v": 93
    },
    {
      "midi": 67,
      "hit": false,
      "t": 238725.6829999982,
      "d": 259.43316666665487,
      "v": 95
    },
    {
      "midi": 24,
      "hit": false,
      "t": 238743.3716249998,
      "d": 47.16966666665394,
      "v": 110
    },
    {
      "midi": 24,
      "hit": false,
      "t": 238861.29579166646,
      "d": 53.06587500000023,
      "v": 110
    },
    {
      "midi": 60,
      "hit": false,
      "t": 238871.61415625023,
      "d": 719.3374166666763,
      "v": 95
    },
    {
      "midi": 67,
      "hit": false,
      "t": 238871.61415625023,
      "d": 719.3374166666763,
      "v": 92
    },
    {
      "midi": 62,
      "hit": false,
      "t": 238871.61415625023,
      "d": 725.2336250000226,
      "v": 89
    },
    {
      "midi": 60,
      "hit": false,
      "t": 238996.9085833315,
      "d": 144.45710416667862,
      "v": 97
    },
    {
      "midi": 67,
      "hit": false,
      "t": 238999.85668749816,
      "d": 141.50900000002002,
      "v": 101
    },
    {
      "midi": 55,
      "hit": false,
      "t": 238999.85668749816,
      "d": 144.45710416667862,
      "v": 76
    },
    {
      "midi": 64,
      "hit": false,
      "t": 239005.7528958315,
      "d": 135.61279166667373,
      "v": 86
    },
    {
      "midi": 60,
      "hit": false,
      "t": 239141.36568749818,
      "d": 386.2016458333237,
      "v": 91
    },
    {
      "midi": 67,
      "hit": false,
      "t": 239141.36568749818,
      "d": 397.9940624999872,
      "v": 97
    },
    {
      "midi": 64,
      "hit": false,
      "t": 239141.36568749818,
      "d": 400.9421666666458,
      "v": 89
    },
    {
      "midi": 55,
      "hit": false,
      "t": 239144.31379166484,
      "d": 397.9940624999872,
      "v": 85
    },
    {
      "midi": 24,
      "hit": false,
      "t": 239144.31379166647,
      "d": 374.4092291666602,
      "v": 110
    },
    {
      "midi": 60,
      "hit": false,
      "t": 239562.9445833315,
      "d": 141.50899999999092,
      "v": 79
    },
    {
      "midi": 55,
      "hit": false,
      "t": 239565.89268749816,
      "d": 141.50899999999092,
      "v": 73
    },
    {
      "midi": 64,
      "hit": false,
      "t": 239565.89268749816,
      "d": 141.50899999999092,
      "v": 81
    },
    {
      "midi": 67,
      "hit": false,
      "t": 239568.8407916648,
      "d": 138.56089583333232,
      "v": 97
    },
    {
      "midi": 55,
      "hit": false,
      "t": 239701.50547916722,
      "d": 515.9182291666511,
      "v": 104
    },
    {
      "midi": 60,
      "hit": false,
      "t": 239704.4535833315,
      "d": 141.50899999999092,
      "v": 80
    },
    {
      "midi": 55,
      "hit": false,
      "t": 239707.40168749815,
      "d": 138.56089583333232,
      "v": 73
    },
    {
      "midi": 64,
      "hit": false,
      "t": 239707.40168749815,
      "d": 144.45710416667862,
      "v": 83
    },
    {
      "midi": 67,
      "hit": false,
      "t": 239707.40168749815,
      "d": 144.45710416667862,
      "v": 80
    },
    {
      "midi": 24,
      "hit": false,
      "t": 239710.34979166646,
      "d": 88.44312499999069,
      "v": 110
    },
    {
      "midi": 62,
      "hit": false,
      "t": 239713.29789583388,
      "d": 993.5111041666532,
      "v": 60
    },
    {
      "midi": 57,
      "hit": false,
      "t": 239713.29789583405,
      "d": 250.58885416664998,
      "v": 95
    },
    {
      "midi": 50,
      "hit": false,
      "t": 239713.29789583405,
      "d": 262.38127083331347,
      "v": 95
    },
    {
      "midi": 62,
      "hit": false,
      "t": 239716.2460000007,
      "d": 265.32937500000116,
      "v": 86
    },
    {
      "midi": 67,
      "hit": false,
      "t": 239719.19410416737,
      "d": 262.38127083334257,
      "v": 86
    },
    {
      "midi": 66,
      "hit": false,
      "t": 239720.66815625026,
      "d": 339.03197916666977,
      "v": 99
    },
    {
      "midi": 62,
      "hit": false,
      "t": 239720.66815625026,
      "d": 341.98008333332837,
      "v": 92
    },
    {
      "midi": 66,
      "hit": false,
      "t": 239722.14220833432,
      "d": 409.7864791667089,
      "v": 95
    },
    {
      "midi": 55,
      "hit": false,
      "t": 239845.96258333148,
      "d": 117.92416666669305,
      "v": 82
    },
    {
      "midi": 60,
      "hit": false,
      "t": 239845.96258333148,
      "d": 117.92416666669305,
      "v": 82
    },
    {
      "midi": 64,
      "hit": false,
      "t": 239851.85879166482,
      "d": 117.92416666669305,
      "v": 94
    },
    {
      "midi": 67,
      "hit": false,
      "t": 239851.85879166482,
      "d": 117.92416666669305,
      "v": 102
    },
    {
      "midi": 67,
      "hit": false,
      "t": 239990.4196874982,
      "d": 259.433166666684,
      "v": 92
    },
    {
      "midi": 57,
      "hit": false,
      "t": 239996.31589583153,
      "d": 259.433166666684,
      "v": 90
    },
    {
      "midi": 62,
      "hit": false,
      "t": 239996.31589583153,
      "d": 259.433166666684,
      "v": 100
    },
    {
      "midi": 26,
      "hit": false,
      "t": 239996.31589583313,
      "d": 383.2535416666651,
      "v": 110
    },
    {
      "midi": 67,
      "hit": false,
      "t": 239996.31589583404,
      "d": 2449.8745625000156,
      "v": 86
    },
    {
      "midi": 79,
      "hit": false,
      "t": 239999.26400000008,
      "d": 1096.694749999995,
      "v": 50
    },
    {
      "midi": 74,
      "hit": false,
      "t": 239999.26400000008,
      "d": 4398.571416666644,
      "v": 50
    },
    {
      "midi": 81,
      "hit": false,
      "t": 239999.26400000008,
      "d": 4404.46762499999,
      "v": 50
    },
    {
      "midi": 57,
      "hit": false,
      "t": 239999.2640000007,
      "d": 2352.587124999991,
      "v": 95
    },
    {
      "midi": 50,
      "hit": false,
      "t": 239999.2640000007,
      "d": 2358.483333333337,
      "v": 95
    },
    {
      "midi": 62,
      "hit": false,
      "t": 239999.2640000007,
      "d": 2458.7188750000205,
      "v": 86
    },
    {
      "midi": 69,
      "hit": false,
      "t": 240014.00452083154,
      "d": 480.5409791666607,
      "v": 98
    },
    {
      "midi": 57,
      "hit": false,
      "t": 240270.48958333387,
      "d": 141.50899999999092,
      "v": 99
    },
    {
      "midi": 62,
      "hit": false,
      "t": 240276.38579166488,
      "d": 259.43316666665487,
      "v": 90
    },
    {
      "midi": 67,
      "hit": false,
      "t": 240276.38579166488,
      "d": 259.43316666665487,
      "v": 94
    },
    {
      "midi": 57,
      "hit": false,
      "t": 240279.33389583154,
      "d": 259.43316666665487,
      "v": 96
    },
    {
      "midi": 57,
      "hit": false,
      "t": 240556.4556874982,
      "d": 259.43316666665487,
      "v": 91
    },
    {
      "midi": 67,
      "hit": false,
      "t": 240559.40379166487,
      "d": 259.43316666665487,
      "v": 97
    },
    {
      "midi": 26,
      "hit": false,
      "t": 240559.40379166647,
      "d": 339.03197916666977,
      "v": 110
    },
    {
      "midi": 62,
      "hit": false,
      "t": 240562.35189583153,
      "d": 259.43316666665487,
      "v": 100
    },
    {
      "midi": 57,
      "hit": false,
      "t": 240562.35189583385,
      "d": 156.2495208333421,
      "v": 101
    },
    {
      "midi": 69,
      "hit": false,
      "t": 240574.1443124982,
      "d": 350.82439583330415,
      "v": 100
    },
    {
      "midi": 62,
      "hit": false,
      "t": 240833.5774791672,
      "d": 194.57487500002026,
      "v": 60
    },
    {
      "midi": 62,
      "hit": false,
      "t": 240842.42179166485,
      "d": 397.9940624999581,
      "v": 93
    },
    {
      "midi": 57,
      "hit": false,
      "t": 240845.3698958315,
      "d": 117.92416666666395,
      "v": 90
    },
    {
      "midi": 67,
      "hit": false,
      "t": 240848.31799999817,
      "d": 117.92416666666395,
      "v": 98
    },
    {
      "midi": 55,
      "hit": false,
      "t": 240851.2661041672,
      "d": 135.61279166667373,
      "v": 106
    },
    {
      "midi": 66,
      "hit": false,
      "t": 240980.98268749815,
      "d": 235.8483333333279,
      "v": 105
    },
    {
      "midi": 57,
      "hit": false,
      "t": 240983.9307916648,
      "d": 244.6926458333328,
      "v": 90
    },
    {
      "midi": 69,
      "hit": false,
      "t": 240995.72320833147,
      "d": 341.98008333332837,
      "v": 95
    },
    {
      "midi": 26,
      "hit": false,
      "t": 241013.41183333314,
      "d": 44.22156250002445,
      "v": 110
    },
    {
      "midi": 26,
      "hit": false,
      "t": 241125.4397916665,
      "d": 56.01397916665883,
      "v": 110
    },
    {
      "midi": 78,
      "hit": false,
      "t": 241131.33600000007,
      "d": 1105.5390625,
      "v": 45
    },
    {
      "midi": 62,
      "hit": false,
      "t": 241140.18031250057,
      "d": 238.7964374999865,
      "v": 60
    },
    {
      "midi": 57,
      "hit": false,
      "t": 241143.12841666723,
      "d": 173.93814583332278,
      "v": 95
    },
    {
      "midi": 62,
      "hit": false,
      "t": 241266.9487916648,
      "d": 117.92416666666395,
      "v": 75
    },
    {
      "midi": 66,
      "hit": false,
      "t": 241266.9487916648,
      "d": 117.92416666666395,
      "v": 81
    },
    {
      "midi": 57,
      "hit": false,
      "t": 241272.84499999814,
      "d": 117.92416666666395,
      "v": 90
    },
    {
      "midi": 66,
      "hit": false,
      "t": 241408.4577916648,
      "d": 400.9421666666749,
      "v": 102
    },
    {
      "midi": 57,
      "hit": false,
      "t": 241411.40589583147,
      "d": 400.9421666666749,
      "v": 99
    },
    {
      "midi": 62,
      "hit": false,
      "t": 241411.40589583147,
      "d": 400.9421666666749,
      "v": 98
    },
    {
      "midi": 26,
      "hit": false,
      "t": 241414.35399999982,
      "d": 386.2016458333237,
      "v": 110
    },
    {
      "midi": 69,
      "hit": false,
      "t": 241429.09452083148,
      "d": 766.5070833333593,
      "v": 97
    },
    {
      "midi": 66,
      "hit": false,
      "t": 241830.03668749816,
      "d": 117.92416666669305,
      "v": 97
    },
    {
      "midi": 57,
      "hit": false,
      "t": 241835.9328958315,
      "d": 141.50899999999092,
      "v": 84
    },
    {
      "midi": 62,
      "hit": false,
      "t": 241835.9328958315,
      "d": 259.43316666665487,
      "v": 96
    },
    {
      "midi": 55,
      "hit": false,
      "t": 241953.85706250055,
      "d": 551.2954791666707,
      "v": 104
    },
    {
      "midi": 67,
      "hit": false,
      "t": 241974.49379166483,
      "d": 138.56089583333232,
      "v": 103
    },
    {
      "midi": 57,
      "hit": false,
      "t": 241977.4418958315,
      "d": 141.50900000002002,
      "v": 86
    },
    {
      "midi": 26,
      "hit": false,
      "t": 241983.33810416647,
      "d": 61.91018750000512,
      "v": 110
    },
    {
      "midi": 62,
      "hit": false,
      "t": 241983.33810416723,
      "d": 1276.5291041666933,
      "v": 60
    },
    {
      "midi": 67,
      "hit": false,
      "t": 242113.05468749817,
      "d": 147.40520833336632,
      "v": 96
    },
    {
      "midi": 57,
      "hit": false,
      "t": 242118.9508958315,
      "d": 135.61279166667373,
      "v": 89
    },
    {
      "midi": 62,
      "hit": false,
      "t": 242121.89899999817,
      "d": 138.56089583336143,
      "v": 84
    },
    {
      "midi": 57,
      "hit": false,
      "t": 242254.5636874982,
      "d": 259.433166666684,
      "v": 85
    },
    {
      "midi": 26,
      "hit": false,
      "t": 242257.51179166647,
      "d": 353.77249999999185,
      "v": 110
    },
    {
      "midi": 62,
      "hit": false,
      "t": 242260.45989583153,
      "d": 259.433166666684,
      "v": 94
    },
    {
      "midi": 67,
      "hit": false,
      "t": 242260.45989583153,
      "d": 259.433166666684,
      "v": 100
    },
    {
      "midi": 79,
      "hit": false,
      "t": 242263.40800000005,
      "d": 1090.798541666678,
      "v": 50
    },
    {
      "midi": 69,
      "hit": false,
      "t": 242266.35610416488,
      "d": 480.5409791666607,
      "v": 99
    },
    {
      "midi": 57,
      "hit": false,
      "t": 242537.58168749823,
      "d": 259.43316666665487,
      "v": 79
    },
    {
      "midi": 62,
      "hit": false,
      "t": 242540.52979166489,
      "d": 259.43316666665487,
      "v": 95
    },
    {
      "midi": 57,
      "hit": false,
      "t": 242540.52979166736,
      "d": 312.4990416666842,
      "v": 95
    },
    {
      "midi": 67,
      "hit": false,
      "t": 242540.52979166736,
      "d": 566.0360000000219,
      "v": 86
    },
    {
      "midi": 67,
      "hit": false,
      "t": 242543.47789583154,
      "d": 259.43316666665487,
      "v": 92
    },
    {
      "midi": 57,
      "hit": false,
      "t": 242543.4778958339,
      "d": 138.56089583333232,
      "v": 99
    },
    {
      "midi": 62,
      "hit": false,
      "t": 242543.47789583402,
      "d": 486.4371875000361,
      "v": 86
    },
    {
      "midi": 50,
      "hit": false,
      "t": 242549.37410416736,
      "d": 312.4990416666842,
      "v": 95
    },
    {
      "midi": 67,
      "hit": false,
      "t": 242549.3741041677,
      "d": 495.2815000000119,
      "v": 101
    },
    {
      "midi": 57,
      "hit": false,
      "t": 242823.54779166487,
      "d": 259.43316666665487,
      "v": 79
    },
    {
      "midi": 26,
      "hit": false,
      "t": 242823.54779166647,
      "d": 339.03197916666977,
      "v": 110
    },
    {
      "midi": 67,
      "hit": false,
      "t": 242826.49589583153,
      "d": 330.1876666666358,
      "v": 102
    },
    {
      "midi": 62,
      "hit": false,
      "t": 242826.49589583153,
      "d": 339.03197916664067,
      "v": 84
    },
    {
      "midi": 57,
      "hit": false,
      "t": 242835.3402083339,
      "d": 135.61279166667373,
      "v": 90
    },
    {
      "midi": 69,
      "hit": false,
      "t": 242838.2883124982,
      "d": 356.72060416665045,
      "v": 96
    },
    {
      "midi": 57,
      "hit": false,
      "t": 243109.5138958315,
      "d": 117.92416666666395,
      "v": 82
    },
    {
      "midi": 55,
      "hit": false,
      "t": 243115.41010416724,
      "d": 135.61279166667373,
      "v": 102
    },
    {
      "midi": 66,
      "hit": false,
      "t": 243118.3582083344,
      "d": 371.46112500000163,
      "v": 92
    },
    {
      "midi": 66,
      "hit": false,
      "t": 243245.12668749818,
      "d": 259.43316666662577,
      "v": 97
    },
    {
      "midi": 57,
      "hit": false,
      "t": 243248.07479166484,
      "d": 259.43316666662577,
      "v": 83
    },
    {
      "midi": 62,
      "hit": false,
      "t": 243251.0228958315,
      "d": 259.43316666662577,
      "v": 92
    },
    {
      "midi": 69,
      "hit": false,
      "t": 243265.76341666482,
      "d": 315.4471458333137,
      "v": 100
    },
    {
      "midi": 26,
      "hit": false,
      "t": 243268.71152083314,
      "d": 58.96208333334653,
      "v": 110
    },
    {
      "midi": 26,
      "hit": false,
      "t": 243389.5837916665,
      "d": 64.85829166666372,
      "v": 110
    },
    {
      "midi": 57,
      "hit": false,
      "t": 243389.5837916674,
      "d": 238.7964375000156,
      "v": 95
    },
    {
      "midi": 78,
      "hit": false,
      "t": 243395.48000000007,
      "d": 1002.3554166666581,
      "v": 45
    },
    {
      "midi": 67,
      "hit": false,
      "t": 243395.48000000074,
      "d": 250.58885416667908,
      "v": 86
    },
    {
      "midi": 50,
      "hit": false,
      "t": 243398.4281041674,
      "d": 235.848333333357,
      "v": 95
    },
    {
      "midi": 62,
      "hit": false,
      "t": 243398.4281041674,
      "d": 247.6407500000205,
      "v": 86
    },
    {
      "midi": 57,
      "hit": false,
      "t": 243404.3243125006,
      "d": 203.41918749999604,
      "v": 104
    },
    {
      "midi": 62,
      "hit": false,
      "t": 243407.27241666726,
      "d": 144.45710416667862,
      "v": 60
    },
    {
      "midi": 57,
      "hit": false,
      "t": 243528.14468749813,
      "d": 147.4052083333372,
      "v": 80
    },
    {
      "midi": 66,
      "hit": false,
      "t": 243528.14468749813,
      "d": 147.4052083333372,
      "v": 88
    },
    {
      "midi": 62,
      "hit": false,
      "t": 243536.98899999814,
      "d": 132.66468749998603,
      "v": 81
    },
    {
      "midi": 62,
      "hit": false,
      "t": 243669.65368749812,
      "d": 400.9421666666749,
      "v": 91
    },
    {
      "midi": 50,
      "hit": false,
      "t": 243672.6017916674,
      "d": 285.96610416664043,
      "v": 95
    },
    {
      "midi": 57,
      "hit": false,
      "t": 243675.54989583147,
      "d": 400.9421666666749,
      "v": 98
    },
    {
      "midi": 66,
      "hit": false,
      "t": 243675.54989583147,
      "d": 400.9421666666749,
      "v": 99
    },
    {
      "midi": 67,
      "hit": false,
      "t": 243675.54989583406,
      "d": 271.22558333331835,
      "v": 86
    },
    {
      "midi": 62,
      "hit": false,
      "t": 243675.54989583406,
      "d": 274.17368749997695,
      "v": 86
    },
    {
      "midi": 26,
      "hit": false,
      "t": 243678.49799999982,
      "d": 400.9421666666749,
      "v": 110
    },
    {
      "midi": 57,
      "hit": false,
      "t": 243678.49800000072,
      "d": 294.8104166666453,
      "v": 95
    },
    {
      "midi": 55,
      "hit": false,
      "t": 243681.44610416726,
      "d": 138.56089583333232,
      "v": 101
    },
    {
      "midi": 67,
      "hit": false,
      "t": 243684.3942083344,
      "d": 501.17770833332906,
      "v": 95
    },
    {
      "midi": 69,
      "hit": false,
      "t": 243696.18662499814,
      "d": 819.5729583333305,
      "v": 103
    },
    {
      "midi": 62,
      "hit": false,
      "t": 243702.08283333393,
      "d": 229.9521250000107,
      "v": 71
    },
    {
      "midi": 50,
      "hit": false,
      "t": 243946.7754791673,
      "d": 73.70260416669771,
      "v": 77
    },
    {
      "midi": 52,
      "hit": false,
      "t": 243973.3084166673,
      "d": 173.93814583332278,
      "v": 83
    },
    {
      "midi": 62,
      "hit": false,
      "t": 244094.18068749816,
      "d": 259.43316666665487,
      "v": 83
    },
    {
      "midi": 66,
      "hit": false,
      "t": 244097.1287916648,
      "d": 117.92416666666395,
      "v": 88
    },
    {
      "midi": 57,
      "hit": false,
      "t": 244100.07689583147,
      "d": 117.92416666666395,
      "v": 77
    },
    {
      "midi": 67,
      "hit": false,
      "t": 244238.6377916648,
      "d": 117.92416666666395,
      "v": 97
    },
    {
      "midi": 26,
      "hit": false,
      "t": 244238.6377916665,
      "d": 53.06587500000023,
      "v": 110
    },
    {
      "midi": 43,
      "hit": false,
      "t": 244238.63779166737,
      "d": 250.58885416667908,
      "v": 95
    },
    {
      "midi": 57,
      "hit": false,
      "t": 244244.53399999815,
      "d": 117.92416666666395,
      "v": 71
    },
    {
      "midi": 50,
      "hit": false,
      "t": 244247.48210416737,
      "d": 259.433166666684,
      "v": 95
    },
    {
      "midi": 62,
      "hit": false,
      "t": 244247.48210416737,
      "d": 259.433166666684,
      "v": 86
    },
    {
      "midi": 67,
      "hit": false,
      "t": 244247.48210416737,
      "d": 262.38127083334257,
      "v": 86
    },
    {
      "midi": 62,
      "hit": false,
      "t": 244250.43020833397,
      "d": 787.1438125000277,
      "v": 72
    },
    {
      "midi": 67,
      "hit": false,
      "t": 244250.43020833438,
      "d": 4534.184208333347,
      "v": 98
    },
    {
      "midi": 55,
      "hit": false,
      "t": 244262.22262500064,
      "d": 719.3374166667054,
      "v": 100
    },
    {
      "midi": 62,
      "hit": false,
      "t": 244383.09489583148,
      "d": 117.92416666666395,
      "v": 86
    },
    {
      "midi": 67,
      "hit": false,
      "t": 244383.09489583148,
      "d": 117.92416666666395,
      "v": 98
    },
    {
      "midi": 57,
      "hit": false,
      "t": 244386.04299999814,
      "d": 117.92416666666395,
      "v": 79
    },
    {
      "midi": 31,
      "hit": false,
      "t": 244524.60389583316,
      "d": 430.42320833331905,
      "v": 110
    },
    {
      "midi": 67,
      "hit": false,
      "t": 244524.60389583404,
      "d": 1889.734770833369,
      "v": 86
    },
    {
      "midi": 50,
      "hit": false,
      "t": 244524.60389583404,
      "d": 1939.8525416666816,
      "v": 95
    },
    {
      "midi": 59,
      "hit": false,
      "t": 244527.55199999813,
      "d": 259.43316666665487,
      "v": 90
    },
    {
      "midi": 74,
      "hit": false,
      "t": 244527.55200000008,
      "d": 2178.648979166668,
      "v": 50
    },
    {
      "midi": 79,
      "hit": false,
      "t": 244527.55200000008,
      "d": 2178.648979166668,
      "v": 50
    },
    {
      "midi": 71,
      "hit": false,
      "t": 244527.55200000008,
      "d": 2237.6110625000147,
      "v": 50
    },
    {
      "midi": 50,
      "hit": false,
      "t": 244527.55200000064,
      "d": 321.3433541666891,
      "v": 78
    },
    {
      "midi": 62,
      "hit": false,
      "t": 244530.5001041648,
      "d": 268.27747916665976,
      "v": 98
    },
    {
      "midi": 62,
      "hit": false,
      "t": 244530.50010416738,
      "d": 1877.9423541666765,
      "v": 86
    },
    {
      "midi": 43,
      "hit": false,
      "t": 244530.50010416738,
      "d": 1898.579083333345,
      "v": 95
    },
    {
      "midi": 71,
      "hit": false,
      "t": 244531.97415625025,
      "d": 1034.78456249999,
      "v": 90
    },
    {
      "midi": 62,
      "hit": false,
      "t": 244531.97415625025,
      "d": 1043.6288749999949,
      "v": 88
    },
    {
      "midi": 67,
      "hit": false,
      "t": 244531.97415625025,
      "d": 1043.6288749999949,
      "v": 93
    },
    {
      "midi": 55,
      "hit": false,
      "t": 244533.44820833145,
      "d": 265.32937500000116,
      "v": 94
    },
    {
      "midi": 67,
      "hit": false,
      "t": 244533.44820833145,
      "d": 277.12179166666465,
      "v": 92
    },
    {
      "midi": 62,
      "hit": false,
      "t": 244807.62189583146,
      "d": 259.43316666665487,
      "v": 97
    },
    {
      "midi": 55,
      "hit": false,
      "t": 244810.56999999812,
      "d": 259.43316666665487,
      "v": 98
    },
    {
      "midi": 67,
      "hit": false,
      "t": 244810.56999999812,
      "d": 259.43316666665487,
      "v": 95
    },
    {
      "midi": 59,
      "hit": false,
      "t": 244813.51810416477,
      "d": 259.43316666665487,
      "v": 81
    },
    {
      "midi": 52,
      "hit": false,
      "t": 244831.20672916732,
      "d": 91.39122916667839,
      "v": 82
    },
    {
      "midi": 67,
      "hit": false,
      "t": 245090.63989583144,
      "d": 259.43316666665487,
      "v": 98
    },
    {
      "midi": 55,
      "hit": false,
      "t": 245093.5879999981,
      "d": 259.43316666665487,
      "v": 96
    },
    {
      "midi": 62,
      "hit": false,
      "t": 245093.58800000066,
      "d": 2149.167937499995,
      "v": 60
    },
    {
      "midi": 59,
      "hit": false,
      "t": 245096.53610416476,
      "d": 259.43316666665487,
      "v": 94
    },
    {
      "midi": 62,
      "hit": false,
      "t": 245096.53610416476,
      "d": 259.43316666665487,
      "v": 97
    },
    {
      "midi": 31,
      "hit": false,
      "t": 245096.53610416647,
      "d": 350.82439583333326,
      "v": 110
    },
    {
      "midi": 55,
      "hit": false,
      "t": 245117.17283333399,
      "d": 1506.481229166675,
      "v": 98
    },
    {
      "midi": 62,
      "hit": false,
      "t": 245370.70979166473,
      "d": 117.92416666666395,
      "v": 85
    },
    {
      "midi": 67,
      "hit": false,
      "t": 245373.6578958314,
      "d": 117.92416666666395,
      "v": 93
    },
    {
      "midi": 55,
      "hit": false,
      "t": 245376.60599999805,
      "d": 117.92416666666395,
      "v": 75
    },
    {
      "midi": 59,
      "hit": false,
      "t": 245376.60599999805,
      "d": 117.92416666666395,
      "v": 82
    },
    {
      "midi": 62,
      "hit": false,
      "t": 245512.21879166472,
      "d": 259.43316666665487,
      "v": 88
    },
    {
      "midi": 67,
      "hit": false,
      "t": 245515.16689583138,
      "d": 259.43316666665487,
      "v": 90
    },
    {
      "midi": 55,
      "hit": false,
      "t": 245518.11499999804,
      "d": 259.43316666665487,
      "v": 81
    },
    {
      "midi": 59,
      "hit": false,
      "t": 245518.11499999804,
      "d": 259.43316666665487,
      "v": 78
    },
    {
      "midi": 31,
      "hit": false,
      "t": 245532.85552083314,
      "d": 32.42914583333186,
      "v": 110
    },
    {
      "midi": 31,
      "hit": false,
      "t": 245662.57210416647,
      "d": 82.5469166666735,
      "v": 110
    },
    {
      "midi": 69,
      "hit": false,
      "t": 245664.04615625023,
      "d": 1046.5769791666535,
      "v": 94
    },
    {
      "midi": 62,
      "hit": false,
      "t": 245664.04615625023,
      "d": 1049.525083333312,
      "v": 97
    },
    {
      "midi": 66,
      "hit": false,
      "t": 245664.04615625023,
      "d": 1049.525083333312,
      "v": 99
    },
    {
      "midi": 67,
      "hit": false,
      "t": 245792.28868749802,
      "d": 147.4052083333081,
      "v": 100
    },
    {
      "midi": 55,
      "hit": false,
      "t": 245795.23679166468,
      "d": 141.50899999999092,
      "v": 74
    },
    {
      "midi": 59,
      "hit": false,
      "t": 245795.23679166468,
      "d": 141.50899999999092,
      "v": 89
    },
    {
      "midi": 62,
      "hit": false,
      "t": 245798.18489583133,
      "d": 141.50899999999092,
      "v": 95
    },
    {
      "midi": 59,
      "hit": false,
      "t": 245936.74579166467,
      "d": 421.57889583331416,
      "v": 85
    },
    {
      "midi": 55,
      "hit": false,
      "t": 245936.74579166467,
      "d": 424.52699999997276,
      "v": 68
    },
    {
      "midi": 62,
      "hit": false,
      "t": 245939.69389583133,
      "d": 421.57889583331416,
      "v": 85
    },
    {
      "midi": 67,
      "hit": false,
      "t": 245939.69389583133,
      "d": 421.57889583331416,
      "v": 104
    },
    {
      "midi": 31,
      "hit": false,
      "t": 245939.69389583313,
      "d": 403.8902708333335,
      "v": 110
    },
    {
      "midi": 59,
      "hit": false,
      "t": 246358.32468749798,
      "d": 144.45710416667862,
      "v": 72
    },
    {
      "midi": 55,
      "hit": false,
      "t": 246361.27279166464,
      "d": 135.61279166667373,
      "v": 79
    },
    {
      "midi": 67,
      "hit": false,
      "t": 246361.27279166464,
      "d": 135.61279166667373,
      "v": 91
    },
    {
      "midi": 62,
      "hit": false,
      "t": 246361.27279166464,
      "d": 144.45710416667862,
      "v": 79
    },
    {
      "midi": 67,
      "hit": false,
      "t": 246496.8855833313,
      "d": 144.45710416667862,
      "v": 91
    },
    {
      "midi": 55,
      "hit": false,
      "t": 246496.8855833313,
      "d": 147.4052083333372,
      "v": 79
    },
    {
      "midi": 59,
      "hit": false,
      "t": 246502.78179166466,
      "d": 138.56089583333232,
      "v": 73
    },
    {
      "midi": 31,
      "hit": false,
      "t": 246502.78179166646,
      "d": 117.92416666666395,
      "v": 110
    },
    {
      "midi": 48,
      "hit": false,
      "t": 246502.7817916674,
      "d": 268.27747916665976,
      "v": 95
    },
    {
      "midi": 62,
      "hit": false,
      "t": 246505.72989583132,
      "d": 135.61279166667373,
      "v": 76
    },
    {
      "midi": 62,
      "hit": false,
      "t": 246505.72989583405,
      "d": 259.43316666665487,
      "v": 86
    },
    {
      "midi": 67,
      "hit": false,
      "t": 246508.6780000007,
      "d": 250.58885416664998,
      "v": 86
    },
    {
      "midi": 55,
      "hit": false,
      "t": 246511.62610416737,
      "d": 265.32937500003027,
      "v": 95
    },
    {
      "midi": 59,
      "hit": false,
      "t": 246641.342687498,
      "d": 117.92416666666395,
      "v": 78
    },
    {
      "midi": 62,
      "hit": false,
      "t": 246641.342687498,
      "d": 120.87227083332255,
      "v": 79
    },
    {
      "midi": 67,
      "hit": false,
      "t": 246641.342687498,
      "d": 415.68268749996787,
      "v": 106
    },
    {
      "midi": 55,
      "hit": false,
      "t": 246644.29079166465,
      "d": 415.68268749996787,
      "v": 83
    },
    {
      "midi": 48,
      "hit": false,
      "t": 246670.8237291673,
      "d": 126.76847916666884,
      "v": 67
    },
    {
      "midi": 50,
      "hit": false,
      "t": 246747.47443750064,
      "d": 327.2395625000063,
      "v": 79
    },
    {
      "midi": 67,
      "hit": false,
      "t": 246785.7997916674,
      "d": 1798.3435416666616,
      "v": 86
    },
    {
      "midi": 48,
      "hit": false,
      "t": 246785.7997916674,
      "d": 1801.2916458333202,
      "v": 95
    },
    {
      "midi": 55,
      "hit": false,
      "t": 246785.7997916674,
      "d": 1807.1878541666665,
      "v": 95
    },
    {
      "midi": 62,
      "hit": false,
      "t": 246788.74789583407,
      "d": 1833.7207916666812,
      "v": 86
    },
    {
      "midi": 60,
      "hit": false,
      "t": 246791.695999998,
      "d": 259.43316666665487,
      "v": 94
    },
    {
      "midi": 24,
      "hit": false,
      "t": 246791.6959999998,
      "d": 412.7345833333384,
      "v": 110
    },
    {
      "midi": 76,
      "hit": false,
      "t": 246791.69600000008,
      "d": 2163.908458333346,
      "v": 50
    },
    {
      "midi": 79,
      "hit": false,
      "t": 246791.69600000008,
      "d": 2163.908458333346,
      "v": 50
    },
    {
      "midi": 72,
      "hit": false,
      "t": 246791.69600000008,
      "d": 2190.4413958333316,
      "v": 50
    },
    {
      "midi": 64,
      "hit": false,
      "t": 246794.64410416465,
      "d": 259.43316666665487,
      "v": 95
    },
    {
      "midi": 72,
      "hit": false,
      "t": 246796.11815625022,
      "d": 972.874375000014,
      "v": 98
    },
    {
      "midi": 64,
      "hit": false,
      "t": 246796.11815625022,
      "d": 984.6667916666775,
      "v": 84
    },
    {
      "midi": 60,
      "hit": false,
      "t": 246796.11815625022,
      "d": 1002.3554166666872,
      "v": 98
    },
    {
      "midi": 60,
      "hit": false,
      "t": 247068.81779166462,
      "d": 259.433166666684,
      "v": 95
    },
    {
      "midi": 64,
      "hit": false,
      "t": 247068.81779166462,
      "d": 259.433166666684,
      "v": 74
    },
    {
      "midi": 67,
      "hit": false,
      "t": 247068.81779166462,
      "d": 259.433166666684,
      "v": 88
    },
    {
      "midi": 55,
      "hit": false,
      "t": 247074.71399999797,
      "d": 259.433166666684,
      "v": 83
    },
    {
      "midi": 52,
      "hit": false,
      "t": 247074.71400000065,
      "d": 103.18364583334187,
      "v": 80
    },
    {
      "midi": 55,
      "hit": false,
      "t": 247345.939583334,
      "d": 1273.5810000000056,
      "v": 98
    },
    {
      "midi": 67,
      "hit": false,
      "t": 247351.83579166466,
      "d": 259.43316666665487,
      "v": 102
    },
    {
      "midi": 64,
      "hit": false,
      "t": 247354.78389583132,
      "d": 259.43316666665487,
      "v": 97
    },
    {
      "midi": 55,
      "hit": false,
      "t": 247357.73199999798,
      "d": 259.43316666665487,
      "v": 74
    },
    {
      "midi": 24,
      "hit": false,
      "t": 247357.73199999979,
      "d": 318.3952500000014,
      "v": 110
    },
    {
      "midi": 60,
      "hit": false,
      "t": 247360.68010416464,
      "d": 259.43316666665487,
      "v": 96
    },
    {
      "midi": 62,
      "hit": false,
      "t": 247378.36872916733,
      "d": 1241.1518541666737,
      "v": 60
    },
    {
      "midi": 55,
      "hit": false,
      "t": 247634.85379166462,
      "d": 141.50899999999092,
      "v": 78
    },
    {
      "midi": 67,
      "hit": false,
      "t": 247634.85379166462,
      "d": 147.4052083333081,
      "v": 98
    },
    {
      "midi": 64,
      "hit": false,
      "t": 247637.80189583128,
      "d": 141.50899999999092,
      "v": 84
    },
    {
      "midi": 60,
      "hit": false,
      "t": 247637.80189583128,
      "d": 144.45710416664951,
      "v": 86
    },
    {
      "midi": 55,
      "hit": false,
      "t": 247776.3627916646,
      "d": 259.43316666665487,
      "v": 72
    },
    {
      "midi": 64,
      "hit": false,
      "t": 247779.31089583127,
      "d": 259.43316666665487,
      "v": 98
    },
    {
      "midi": 60,
      "hit": false,
      "t": 247782.25899999792,
      "d": 259.43316666665487,
      "v": 93
    },
    {
      "midi": 67,
      "hit": false,
      "t": 247782.25899999792,
      "d": 259.43316666665487,
      "v": 95
    },
    {
      "midi": 24,
      "hit": false,
      "t": 247799.9476249998,
      "d": 32.42914583333186,
      "v": 110
    },
    {
      "midi": 24,
      "hit": false,
      "t": 247917.87179166646,
      "d": 53.06587500000023,
      "v": 110
    },
    {
      "midi": 60,
      "hit": false,
      "t": 247928.19015625023,
      "d": 719.3374166666763,
      "v": 95
    },
    {
      "midi": 67,
      "hit": false,
      "t": 247928.19015625023,
      "d": 719.3374166666763,
      "v": 92
    },
    {
      "midi": 62,
      "hit": false,
      "t": 247928.19015625023,
      "d": 725.2336250000226,
      "v": 89
    },
    {
      "midi": 60,
      "hit": false,
      "t": 248053.48458333124,
      "d": 144.45710416667862,
      "v": 97
    },
    {
      "midi": 67,
      "hit": false,
      "t": 248056.4326874979,
      "d": 141.50900000002002,
      "v": 101
    },
    {
      "midi": 55,
      "hit": false,
      "t": 248056.4326874979,
      "d": 144.45710416667862,
      "v": 76
    },
    {
      "midi": 64,
      "hit": false,
      "t": 248062.32889583125,
      "d": 135.61279166667373,
      "v": 86
    },
    {
      "midi": 60,
      "hit": false,
      "t": 248197.94168749792,
      "d": 386.2016458333237,
      "v": 91
    },
    {
      "midi": 67,
      "hit": false,
      "t": 248197.94168749792,
      "d": 397.9940624999872,
      "v": 97
    },
    {
      "midi": 64,
      "hit": false,
      "t": 248197.94168749792,
      "d": 400.9421666666458,
      "v": 89
    },
    {
      "midi": 55,
      "hit": false,
      "t": 248200.88979166458,
      "d": 397.9940624999872,
      "v": 85
    },
    {
      "midi": 24,
      "hit": false,
      "t": 248200.88979166647,
      "d": 362.61681249999674,
      "v": 110
    },
    {
      "midi": 60,
      "hit": false,
      "t": 248619.52058333124,
      "d": 141.50899999999092,
      "v": 79
    },
    {
      "midi": 55,
      "hit": false,
      "t": 248622.4686874979,
      "d": 141.50899999999092,
      "v": 73
    },
    {
      "midi": 64,
      "hit": false,
      "t": 248622.4686874979,
      "d": 141.50899999999092,
      "v": 81
    },
    {
      "midi": 67,
      "hit": false,
      "t": 248625.41679166455,
      "d": 138.56089583333232,
      "v": 97
    },
    {
      "midi": 62,
      "hit": false,
      "t": 248758.08147916733,
      "d": 1022.9921458333265,
      "v": 60
    },
    {
      "midi": 60,
      "hit": false,
      "t": 248761.02958333123,
      "d": 141.50899999999092,
      "v": 80
    },
    {
      "midi": 55,
      "hit": false,
      "t": 248763.97768749789,
      "d": 138.56089583333232,
      "v": 73
    },
    {
      "midi": 64,
      "hit": false,
      "t": 248763.97768749789,
      "d": 144.45710416667862,
      "v": 83
    },
    {
      "midi": 67,
      "hit": false,
      "t": 248763.97768749789,
      "d": 144.45710416667862,
      "v": 80
    },
    {
      "midi": 50,
      "hit": false,
      "t": 248766.92579166743,
      "d": 262.38127083334257,
      "v": 95
    },
    {
      "midi": 66,
      "hit": false,
      "t": 248766.92579166772,
      "d": 510.02202083339216,
      "v": 79
    },
    {
      "midi": 24,
      "hit": false,
      "t": 248769.87389583312,
      "d": 73.7026041666686,
      "v": 110
    },
    {
      "midi": 62,
      "hit": false,
      "t": 248769.87389583408,
      "d": 265.32937500003027,
      "v": 86
    },
    {
      "midi": 55,
      "hit": false,
      "t": 248772.82200000065,
      "d": 492.3333958333242,
      "v": 97
    },
    {
      "midi": 57,
      "hit": false,
      "t": 248772.82200000074,
      "d": 250.58885416667908,
      "v": 95
    },
    {
      "midi": 67,
      "hit": false,
      "t": 248772.82200000074,
      "d": 262.3812708333717,
      "v": 86
    },
    {
      "midi": 66,
      "hit": false,
      "t": 248777.24415625026,
      "d": 339.03197916666977,
      "v": 99
    },
    {
      "midi": 62,
      "hit": false,
      "t": 248777.24415625026,
      "d": 341.98008333332837,
      "v": 92
    },
    {
      "midi": 55,
      "hit": false,
      "t": 248902.53858333122,
      "d": 117.92416666669305,
      "v": 82
    },
    {
      "midi": 60,
      "hit": false,
      "t": 248902.53858333122,
      "d": 117.92416666669305,
      "v": 82
    },
    {
      "midi": 64,
      "hit": false,
      "t": 248908.43479166456,
      "d": 117.92416666669305,
      "v": 94
    },
    {
      "midi": 67,
      "hit": false,
      "t": 248908.43479166456,
      "d": 117.92416666669305,
      "v": 102
    },
    {
      "midi": 67,
      "hit": false,
      "t": 249046.99568749793,
      "d": 259.433166666684,
      "v": 92
    },
    {
      "midi": 26,
      "hit": false,
      "t": 249049.94379166645,
      "d": 412.7345833333384,
      "v": 110
    },
    {
      "midi": 62,
      "hit": false,
      "t": 249049.94379166744,
      "d": 2458.7188749999623,
      "v": 86
    },
    {
      "midi": 57,
      "hit": false,
      "t": 249052.89189583127,
      "d": 259.433166666684,
      "v": 90
    },
    {
      "midi": 62,
      "hit": false,
      "t": 249052.89189583127,
      "d": 259.433166666684,
      "v": 100
    },
    {
      "midi": 57,
      "hit": false,
      "t": 249052.8918958341,
      "d": 2352.587124999991,
      "v": 95
    },
    {
      "midi": 79,
      "hit": false,
      "t": 249055.84000000008,
      "d": 1096.694749999995,
      "v": 50
    },
    {
      "midi": 74,
      "hit": false,
      "t": 249055.84000000008,
      "d": 4398.571416666644,
      "v": 50
    },
    {
      "midi": 81,
      "hit": false,
      "t": 249055.84000000008,
      "d": 4404.46762499999,
      "v": 50
    },
    {
      "midi": 67,
      "hit": false,
      "t": 249055.84000000075,
      "d": 2449.8745624999865,
      "v": 86
    },
    {
      "midi": 50,
      "hit": false,
      "t": 249058.7881041674,
      "d": 2358.483333333337,
      "v": 95
    },
    {
      "midi": 69,
      "hit": false,
      "t": 249070.58052083128,
      "d": 480.5409791666607,
      "v": 98
    },
    {
      "midi": 57,
      "hit": false,
      "t": 249324.11747916733,
      "d": 138.56089583333232,
      "v": 95
    },
    {
      "midi": 62,
      "hit": false,
      "t": 249332.96179166462,
      "d": 259.43316666665487,
      "v": 90
    },
    {
      "midi": 67,
      "hit": false,
      "t": 249332.96179166462,
      "d": 259.43316666665487,
      "v": 94
    },
    {
      "midi": 57,
      "hit": false,
      "t": 249335.90989583128,
      "d": 259.43316666665487,
      "v": 96
    },
    {
      "midi": 57,
      "hit": false,
      "t": 249613.03168749795,
      "d": 259.43316666665487,
      "v": 91
    },
    {
      "midi": 67,
      "hit": false,
      "t": 249615.9797916646,
      "d": 259.43316666665487,
      "v": 97
    },
    {
      "midi": 62,
      "hit": false,
      "t": 249618.92789583126,
      "d": 259.43316666665487,
      "v": 100
    },
    {
      "midi": 26,
      "hit": false,
      "t": 249624.82410416644,
      "d": 350.82439583333326,
      "v": 110
    },
    {
      "midi": 57,
      "hit": false,
      "t": 249624.82410416732,
      "d": 156.2495208333421,
      "v": 95
    },
    {
      "midi": 69,
      "hit": false,
      "t": 249630.72031249793,
      "d": 350.82439583330415,
      "v": 100
    },
    {
      "midi": 62,
      "hit": false,
      "t": 249887.20537500066,
      "d": 200.47108333333745,
      "v": 60
    },
    {
      "midi": 62,
      "hit": false,
      "t": 249898.9977916646,
      "d": 397.9940624999581,
      "v": 93
    },
    {
      "midi": 57,
      "hit": false,
      "t": 249901.94589583125,
      "d": 117.92416666666395,
      "v": 90
    },
    {
      "midi": 55,
      "hit": false,
      "t": 249901.94589583398,
      "d": 144.45710416667862,
      "v": 99
    },
    {
      "midi": 67,
      "hit": false,
      "t": 249904.8939999979,
      "d": 117.92416666666395,
      "v": 98
    },
    {
      "midi": 66,
      "hit": false,
      "t": 250037.5586874979,
      "d": 235.8483333333279,
      "v": 105
    },
    {
      "midi": 57,
      "hit": false,
      "t": 250040.50679166455,
      "d": 244.6926458333328,
      "v": 90
    },
    {
      "midi": 69,
      "hit": false,
      "t": 250052.2992083312,
      "d": 341.98008333332837,
      "v": 95
    },
    {
      "midi": 26,
      "hit": false,
      "t": 250064.09162499977,
      "d": 32.42914583333186,
      "v": 110
    },
    {
      "midi": 26,
      "hit": false,
      "t": 250184.9638958331,
      "d": 76.6507083333272,
      "v": 110
    },
    {
      "midi": 62,
      "hit": false,
      "t": 250184.963895834,
      "d": 244.6926458333328,
      "v": 60
    },
    {
      "midi": 78,
      "hit": false,
      "t": 250187.91200000007,
      "d": 1105.5390625,
      "v": 45
    },
    {
      "midi": 57,
      "hit": false,
      "t": 250193.808208334,
      "d": 247.64074999999139,
      "v": 99
    },
    {
      "midi": 62,
      "hit": false,
      "t": 250323.52479166453,
      "d": 117.92416666666395,
      "v": 75
    },
    {
      "midi": 66,
      "hit": false,
      "t": 250323.52479166453,
      "d": 117.92416666666395,
      "v": 81
    },
    {
      "midi": 57,
      "hit": false,
      "t": 250329.42099999788,
      "d": 117.92416666666395,
      "v": 90
    },
    {
      "midi": 66,
      "hit": false,
      "t": 250465.03379166455,
      "d": 400.9421666666749,
      "v": 102
    },
    {
      "midi": 26,
      "hit": false,
      "t": 250465.0337916664,
      "d": 409.7864791666798,
      "v": 110
    },
    {
      "midi": 57,
      "hit": false,
      "t": 250467.9818958312,
      "d": 400.9421666666749,
      "v": 99
    },
    {
      "midi": 62,
      "hit": false,
      "t": 250467.9818958312,
      "d": 400.9421666666749,
      "v": 98
    },
    {
      "midi": 69,
      "hit": false,
      "t": 250485.67052083122,
      "d": 766.5070833333593,
      "v": 97
    },
    {
      "midi": 66,
      "hit": false,
      "t": 250886.6126874979,
      "d": 117.92416666669305,
      "v": 97
    },
    {
      "midi": 57,
      "hit": false,
      "t": 250892.50889583124,
      "d": 141.50899999999092,
      "v": 84
    },
    {
      "midi": 62,
      "hit": false,
      "t": 250892.50889583124,
      "d": 259.43316666665487,
      "v": 96
    },
    {
      "midi": 62,
      "hit": false,
      "t": 251022.22547916733,
      "d": 1329.5949791666935,
      "v": 60
    },
    {
      "midi": 67,
      "hit": false,
      "t": 251031.06979166457,
      "d": 138.56089583333232,
      "v": 103
    },
    {
      "midi": 57,
      "hit": false,
      "t": 251034.01789583123,
      "d": 141.50900000002002,
      "v": 86
    },
    {
      "midi": 55,
      "hit": false,
      "t": 251034.017895834,
      "d": 518.8663333333388,
      "v": 108
    },
    {
      "midi": 26,
      "hit": false,
      "t": 251039.91410416644,
      "d": 76.6507083333272,
      "v": 110
    },
    {
      "midi": 67,
      "hit": false,
      "t": 251169.6306874979,
      "d": 147.40520833336632,
      "v": 96
    },
    {
      "midi": 57,
      "hit": false,
      "t": 251175.52689583125,
      "d": 135.61279166667373,
      "v": 89
    },
    {
      "midi": 62,
      "hit": false,
      "t": 251178.4749999979,
      "d": 138.56089583336143,
      "v": 84
    },
    {
      "midi": 57,
      "hit": false,
      "t": 251311.13968749793,
      "d": 259.433166666684,
      "v": 85
    },
    {
      "midi": 62,
      "hit": false,
      "t": 251317.03589583127,
      "d": 259.433166666684,
      "v": 94
    },
    {
      "midi": 67,
      "hit": false,
      "t": 251317.03589583127,
      "d": 259.433166666684,
      "v": 100
    },
    {
      "midi": 26,
      "hit": false,
      "t": 251317.0358958331,
      "d": 412.7345833333384,
      "v": 110
    },
    {
      "midi": 79,
      "hit": false,
      "t": 251319.98400000005,
      "d": 1090.798541666678,
      "v": 50
    },
    {
      "midi": 69,
      "hit": false,
      "t": 251322.93210416462,
      "d": 480.5409791666607,
      "v": 99
    },
    {
      "midi": 57,
      "hit": false,
      "t": 251594.15768749797,
      "d": 259.43316666665487,
      "v": 79
    },
    {
      "midi": 62,
      "hit": false,
      "t": 251597.10579166462,
      "d": 259.43316666665487,
      "v": 95
    },
    {
      "midi": 67,
      "hit": false,
      "t": 251600.05389583128,
      "d": 259.43316666665487,
      "v": 92
    },
    {
      "midi": 57,
      "hit": false,
      "t": 251600.053895834,
      "d": 138.56089583333232,
      "v": 101
    },
    {
      "midi": 57,
      "hit": false,
      "t": 251600.05389583408,
      "d": 312.4990416666842,
      "v": 95
    },
    {
      "midi": 67,
      "hit": false,
      "t": 251600.05389583408,
      "d": 566.0360000000219,
      "v": 86
    },
    {
      "midi": 50,
      "hit": false,
      "t": 251605.95010416742,
      "d": 312.4990416666842,
      "v": 95
    },
    {
      "midi": 62,
      "hit": false,
      "t": 251605.95010416742,
      "d": 486.437187500007,
      "v": 86
    },
    {
      "midi": 66,
      "hit": false,
      "t": 251608.89820833446,
      "d": 64.85829166666372,
      "v": 98
    },
    {
      "midi": 57,
      "hit": false,
      "t": 251880.1237916646,
      "d": 259.43316666665487,
      "v": 79
    },
    {
      "midi": 67,
      "hit": false,
      "t": 251883.07189583126,
      "d": 330.1876666666358,
      "v": 102
    },
    {
      "midi": 62,
      "hit": false,
      "t": 251883.07189583126,
      "d": 339.03197916664067,
      "v": 84
    },
    {
      "midi": 57,
      "hit": false,
      "t": 251883.071895834,
      "d": 147.4052083333372,
      "v": 100
    },
    {
      "midi": 26,
      "hit": false,
      "t": 251888.96810416644,
      "d": 297.758520833333,
      "v": 110
    },
    {
      "midi": 66,
      "hit": false,
      "t": 251888.96810416778,
      "d": 168.0419375000056,
      "v": 101
    },
    {
      "midi": 69,
      "hit": false,
      "t": 251894.86431249793,
      "d": 356.72060416665045,
      "v": 96
    },
    {
      "midi": 57,
      "hit": false,
      "t": 252166.08989583125,
      "d": 117.92416666666395,
      "v": 82
    },
    {
      "midi": 55,
      "hit": false,
      "t": 252166.089895834,
      "d": 147.4052083333372,
      "v": 104
    },
    {
      "midi": 66,
      "hit": false,
      "t": 252166.08989583445,
      "d": 129.71658333332743,
      "v": 89
    },
    {
      "midi": 66,
      "hit": false,
      "t": 252301.70268749792,
      "d": 259.43316666662577,
      "v": 97
    },
    {
      "midi": 57,
      "hit": false,
      "t": 252304.65079166458,
      "d": 259.43316666662577,
      "v": 83
    },
    {
      "midi": 62,
      "hit": false,
      "t": 252307.59889583124,
      "d": 259.43316666662577,
      "v": 92
    },
    {
      "midi": 69,
      "hit": false,
      "t": 252322.33941666456,
      "d": 315.4471458333137,
      "v": 100
    },
    {
      "midi": 26,
      "hit": false,
      "t": 252334.13183333311,
      "d": 32.42914583333186,
      "v": 110
    },
    {
      "midi": 62,
      "hit": false,
      "t": 252446.15979166736,
      "d": 173.93814583335188,
      "v": 60
    },
    {
      "midi": 57,
      "hit": false,
      "t": 252446.15979166742,
      "d": 238.7964375000156,
      "v": 95
    },
    {
      "midi": 67,
      "hit": false,
      "t": 252446.15979166742,
      "d": 250.5888541667082,
      "v": 86
    },
    {
      "midi": 26,
      "hit": false,
      "t": 252449.10789583312,
      "d": 85.49502083333209,
      "v": 110
    },
    {
      "midi": 62,
      "hit": false,
      "t": 252449.10789583408,
      "d": 247.6407500000496,
      "v": 86
    },
    {
      "midi": 78,
      "hit": false,
      "t": 252452.05600000007,
      "d": 1002.3554166666581,
      "v": 45
    },
    {
      "midi": 50,
      "hit": false,
      "t": 252455.00410416743,
      "d": 235.848333333357,
      "v": 95
    },
    {
      "midi": 66,
      "hit": false,
      "t": 252457.95220833443,
      "d": 359.66870833333815,
      "v": 98
    },
    {
      "midi": 57,
      "hit": false,
      "t": 252463.84841666737,
      "d": 147.4052083333372,
      "v": 98
    },
    {
      "midi": 57,
      "hit": false,
      "t": 252584.72068749787,
      "d": 147.4052083333372,
      "v": 80
    },
    {
      "midi": 66,
      "hit": false,
      "t": 252584.72068749787,
      "d": 147.4052083333372,
      "v": 88
    },
    {
      "midi": 62,
      "hit": false,
      "t": 252593.56499999788,
      "d": 132.66468749998603,
      "v": 81
    },
    {
      "midi": 62,
      "hit": false,
      "t": 252726.22968749786,
      "d": 400.9421666666749,
      "v": 91
    },
    {
      "midi": 57,
      "hit": false,
      "t": 252732.1258958312,
      "d": 400.9421666666749,
      "v": 98
    },
    {
      "midi": 66,
      "hit": false,
      "t": 252732.1258958312,
      "d": 400.9421666666749,
      "v": 99
    },
    {
      "midi": 26,
      "hit": false,
      "t": 252732.12589583313,
      "d": 409.7864791666798,
      "v": 110
    },
    {
      "midi": 67,
      "hit": false,
      "t": 252735.0740000008,
      "d": 271.22558333331835,
      "v": 86
    },
    {
      "midi": 62,
      "hit": false,
      "t": 252735.0740000008,
      "d": 274.17368749997695,
      "v": 86
    },
    {
      "midi": 50,
      "hit": false,
      "t": 252735.0740000008,
      "d": 285.96610416664043,
      "v": 95
    },
    {
      "midi": 57,
      "hit": false,
      "t": 252738.02210416747,
      "d": 294.8104166666453,
      "v": 95
    },
    {
      "midi": 62,
      "hit": false,
      "t": 252743.91831250073,
      "d": 262.38127083331347,
      "v": 60
    },
    {
      "midi": 69,
      "hit": false,
      "t": 252752.76262499788,
      "d": 819.5729583333305,
      "v": 103
    },
    {
      "midi": 55,
      "hit": false,
      "t": 252755.7107291674,
      "d": 141.50899999999092,
      "v": 104
    },
    {
      "midi": 50,
      "hit": false,
      "t": 253015.14389583404,
      "d": 82.5469166666735,
      "v": 73
    },
    {
      "midi": 66,
      "hit": false,
      "t": 253023.98820833443,
      "d": 265.32937500000116,
      "v": 92
    },
    {
      "midi": 52,
      "hit": false,
      "t": 253068.20977083404,
      "d": 135.61279166667373,
      "v": 78
    },
    {
      "midi": 62,
      "hit": false,
      "t": 253150.7566874979,
      "d": 259.43316666665487,
      "v": 83
    },
    {
      "midi": 66,
      "hit": false,
      "t": 253153.70479166455,
      "d": 117.92416666666395,
      "v": 88
    },
    {
      "midi": 57,
      "hit": false,
      "t": 253156.6528958312,
      "d": 117.92416666666395,
      "v": 77
    },
    {
      "midi": 67,
      "hit": false,
      "t": 253295.21379166454,
      "d": 117.92416666666395,
      "v": 97
    },
    {
      "midi": 62,
      "hit": false,
      "t": 253295.2137916674,
      "d": 2446.9264583332697,
      "v": 60
    },
    {
      "midi": 62,
      "hit": false,
      "t": 253295.21379166745,
      "d": 259.433166666684,
      "v": 86
    },
    {
      "midi": 26,
      "hit": false,
      "t": 253298.16189583315,
      "d": 38.32535416667815,
      "v": 110
    },
    {
      "midi": 50,
      "hit": false,
      "t": 253298.1618958341,
      "d": 259.433166666684,
      "v": 95
    },
    {
      "midi": 57,
      "hit": false,
      "t": 253301.1099999979,
      "d": 117.92416666666395,
      "v": 71
    },
    {
      "midi": 43,
      "hit": false,
      "t": 253304.05810416746,
      "d": 250.58885416667908,
      "v": 95
    },
    {
      "midi": 67,
      "hit": false,
      "t": 253304.05810416746,
      "d": 262.38127083334257,
      "v": 86
    },
    {
      "midi": 67,
      "hit": false,
      "t": 253307.00620833444,
      "d": 4513.547479166678,
      "v": 92
    },
    {
      "midi": 55,
      "hit": false,
      "t": 253324.69483333407,
      "d": 757.6627708332671,
      "v": 98
    },
    {
      "midi": 62,
      "hit": false,
      "t": 253439.67089583122,
      "d": 117.92416666666395,
      "v": 86
    },
    {
      "midi": 67,
      "hit": false,
      "t": 253439.67089583122,
      "d": 117.92416666666395,
      "v": 98
    },
    {
      "midi": 57,
      "hit": false,
      "t": 253442.61899999788,
      "d": 117.92416666666395,
      "v": 79
    },
    {
      "midi": 26,
      "hit": false,
      "t": 253466.20383333316,
      "d": 17.68862500000978,
      "v": 110
    },
    {
      "midi": 31,
      "hit": false,
      "t": 253578.2317916665,
      "d": 353.77249999999185,
      "v": 110
    },
    {
      "midi": 48,
      "hit": false,
      "t": 253578.2317916674,
      "d": 94.33933333330788,
      "v": 80
    },
    {
      "midi": 43,
      "hit": false,
      "t": 253578.23179166747,
      "d": 1898.579083333345,
      "v": 95
    },
    {
      "midi": 50,
      "hit": false,
      "t": 253578.23179166747,
      "d": 1939.8525416666816,
      "v": 95
    },
    {
      "midi": 59,
      "hit": false,
      "t": 253584.12799999787,
      "d": 259.43316666665487,
      "v": 90
    },
    {
      "midi": 74,
      "hit": false,
      "t": 253584.12800000008,
      "d": 2178.648979166668,
      "v": 50
    },
    {
      "midi": 79,
      "hit": false,
      "t": 253584.12800000008,
      "d": 2178.648979166668,
      "v": 50
    },
    {
      "midi": 71,
      "hit": false,
      "t": 253584.12800000008,
      "d": 2237.6110625000147,
      "v": 50
    },
    {
      "midi": 67,
      "hit": false,
      "t": 253584.1280000008,
      "d": 1889.73477083334,
      "v": 86
    },
    {
      "midi": 62,
      "hit": false,
      "t": 253587.07610416453,
      "d": 268.27747916665976,
      "v": 98
    },
    {
      "midi": 62,
      "hit": false,
      "t": 253587.07610416747,
      "d": 1877.9423541666765,
      "v": 86
    },
    {
      "midi": 71,
      "hit": false,
      "t": 253588.55015625025,
      "d": 1034.78456249999,
      "v": 90
    },
    {
      "midi": 62,
      "hit": false,
      "t": 253588.55015625025,
      "d": 1043.6288749999949,
      "v": 88
    },
    {
      "midi": 67,
      "hit": false,
      "t": 253588.55015625025,
      "d": 1043.6288749999949,
      "v": 93
    },
    {
      "midi": 55,
      "hit": false,
      "t": 253590.0242083312,
      "d": 265.32937500000116,
      "v": 94
    },
    {
      "midi": 67,
      "hit": false,
      "t": 253590.0242083312,
      "d": 277.12179166666465,
      "v": 92
    },
    {
      "midi": 50,
      "hit": false,
      "t": 253646.03818750073,
      "d": 241.7445416666451,
      "v": 75
    },
    {
      "midi": 62,
      "hit": false,
      "t": 253864.1978958312,
      "d": 259.43316666665487,
      "v": 97
    },
    {
      "midi": 55,
      "hit": false,
      "t": 253867.14599999785,
      "d": 259.43316666665487,
      "v": 98
    },
    {
      "midi": 67,
      "hit": false,
      "t": 253867.14599999785,
      "d": 259.43316666665487,
      "v": 95
    },
    {
      "midi": 59,
      "hit": false,
      "t": 253870.0941041645,
      "d": 259.43316666665487,
      "v": 81
    },
    {
      "midi": 52,
      "hit": false,
      "t": 253902.5232500007,
      "d": 100.23554166665417,
      "v": 84
    },
    {
      "midi": 67,
      "hit": false,
      "t": 254147.21589583118,
      "d": 259.43316666665487,
      "v": 98
    },
    {
      "midi": 55,
      "hit": false,
      "t": 254150.16399999784,
      "d": 259.43316666665487,
      "v": 96
    },
    {
      "midi": 59,
      "hit": false,
      "t": 254153.1121041645,
      "d": 259.43316666665487,
      "v": 94
    },
    {
      "midi": 62,
      "hit": false,
      "t": 254153.1121041645,
      "d": 259.43316666665487,
      "v": 97
    },
    {
      "midi": 31,
      "hit": false,
      "t": 254153.1121041665,
      "d": 353.77249999999185,
      "v": 110
    },
    {
      "midi": 55,
      "hit": false,
      "t": 254161.95641666732,
      "d": 1527.1179583333433,
      "v": 104
    },
    {
      "midi": 62,
      "hit": false,
      "t": 254427.28579166447,
      "d": 117.92416666666395,
      "v": 85
    },
    {
      "midi": 67,
      "hit": false,
      "t": 254430.23389583113,
      "d": 117.92416666666395,
      "v": 93
    },
    {
      "midi": 55,
      "hit": false,
      "t": 254433.1819999978,
      "d": 117.92416666666395,
      "v": 75
    },
    {
      "midi": 59,
      "hit": false,
      "t": 254433.1819999978,
      "d": 117.92416666666395,
      "v": 82
    },
    {
      "midi": 62,
      "hit": false,
      "t": 254568.79479166446,
      "d": 259.43316666665487,
      "v": 88
    },
    {
      "midi": 67,
      "hit": false,
      "t": 254571.74289583112,
      "d": 259.43316666665487,
      "v": 90
    },
    {
      "midi": 55,
      "hit": false,
      "t": 254574.69099999778,
      "d": 259.43316666665487,
      "v": 81
    },
    {
      "midi": 59,
      "hit": false,
      "t": 254574.69099999778,
      "d": 259.43316666665487,
      "v": 78
    },
    {
      "midi": 31,
      "hit": false,
      "t": 254589.43152083317,
      "d": 32.42914583333186,
      "v": 110
    },
    {
      "midi": 31,
      "hit": false,
      "t": 254710.3037916665,
      "d": 58.96208333334653,
      "v": 110
    },
    {
      "midi": 69,
      "hit": false,
      "t": 254720.62215625023,
      "d": 1046.5769791666535,
      "v": 94
    },
    {
      "midi": 62,
      "hit": false,
      "t": 254720.62215625023,
      "d": 1049.525083333312,
      "v": 97
    },
    {
      "midi": 66,
      "hit": false,
      "t": 254720.62215625023,
      "d": 1049.525083333312,
      "v": 99
    },
    {
      "midi": 67,
      "hit": false,
      "t": 254848.86468749776,
      "d": 147.4052083333081,
      "v": 100
    },
    {
      "midi": 55,
      "hit": false,
      "t": 254851.81279166442,
      "d": 141.50899999999092,
      "v": 74
    },
    {
      "midi": 59,
      "hit": false,
      "t": 254851.81279166442,
      "d": 141.50899999999092,
      "v": 89
    },
    {
      "midi": 62,
      "hit": false,
      "t": 254854.76089583107,
      "d": 141.50899999999092,
      "v": 95
    },
    {
      "midi": 59,
      "hit": false,
      "t": 254993.3217916644,
      "d": 421.57889583331416,
      "v": 85
    },
    {
      "midi": 55,
      "hit": false,
      "t": 254993.3217916644,
      "d": 424.52699999997276,
      "v": 68
    },
    {
      "midi": 62,
      "hit": false,
      "t": 254996.26989583106,
      "d": 421.57889583331416,
      "v": 85
    },
    {
      "midi": 67,
      "hit": false,
      "t": 254996.26989583106,
      "d": 421.57889583331416,
      "v": 104
    },
    {
      "midi": 31,
      "hit": false,
      "t": 254999.21799999985,
      "d": 365.56491666665534,
      "v": 110
    },
    {
      "midi": 59,
      "hit": false,
      "t": 255414.90068749772,
      "d": 144.45710416664951,
      "v": 72
    },
    {
      "midi": 55,
      "hit": false,
      "t": 255417.84879166438,
      "d": 135.61279166664463,
      "v": 79
    },
    {
      "midi": 67,
      "hit": false,
      "t": 255417.84879166438,
      "d": 135.61279166664463,
      "v": 91
    },
    {
      "midi": 62,
      "hit": false,
      "t": 255417.84879166438,
      "d": 144.45710416664951,
      "v": 79
    },
    {
      "midi": 67,
      "hit": false,
      "t": 255553.46158333102,
      "d": 144.45710416667862,
      "v": 91
    },
    {
      "midi": 55,
      "hit": false,
      "t": 255553.46158333102,
      "d": 147.4052083333372,
      "v": 79
    },
    {
      "midi": 59,
      "hit": false,
      "t": 255559.35779166437,
      "d": 138.56089583333232,
      "v": 73
    },
    {
      "midi": 62,
      "hit": false,
      "t": 255562.30589583103,
      "d": 135.61279166667373,
      "v": 76
    },
    {
      "midi": 67,
      "hit": false,
      "t": 255562.30589583414,
      "d": 250.58885416664998,
      "v": 86
    },
    {
      "midi": 55,
      "hit": false,
      "t": 255565.2540000008,
      "d": 265.32937499997206,
      "v": 95
    },
    {
      "midi": 48,
      "hit": false,
      "t": 255565.2540000008,
      "d": 268.27747916663066,
      "v": 95
    },
    {
      "midi": 31,
      "hit": false,
      "t": 255568.2021041665,
      "d": 91.39122916667839,
      "v": 110
    },
    {
      "midi": 62,
      "hit": false,
      "t": 255568.20210416746,
      "d": 259.43316666665487,
      "v": 86
    },
    {
      "midi": 59,
      "hit": false,
      "t": 255697.9186874977,
      "d": 117.92416666666395,
      "v": 78
    },
    {
      "midi": 62,
      "hit": false,
      "t": 255697.9186874977,
      "d": 120.87227083332255,
      "v": 79
    },
    {
      "midi": 67,
      "hit": false,
      "t": 255697.9186874977,
      "d": 415.68268749996787,
      "v": 106
    },
    {
      "midi": 55,
      "hit": false,
      "t": 255700.86679166436,
      "d": 415.68268749996787,
      "v": 83
    },
    {
      "midi": 48,
      "hit": false,
      "t": 255730.347833334,
      "d": 123.82037500001024,
      "v": 85
    },
    {
      "midi": 50,
      "hit": false,
      "t": 255827.635270834,
      "d": 247.6407500000205,
      "v": 85
    },
    {
      "midi": 62,
      "hit": false,
      "t": 255833.53147916734,
      "d": 436.31941666666535,
      "v": 60
    },
    {
      "midi": 24,
      "hit": false,
      "t": 255842.3757916665,
      "d": 374.4092291666602,
      "v": 110
    },
    {
      "midi": 67,
      "hit": false,
      "t": 255842.37579166744,
      "d": 1798.3435416666616,
      "v": 86
    },
    {
      "midi": 62,
      "hit": false,
      "t": 255842.37579166744,
      "d": 1833.7207916666812,
      "v": 86
    },
    {
      "midi": 60,
      "hit": false,
      "t": 255848.2719999977,
      "d": 259.43316666665487,
      "v": 94
    },
    {
      "midi": 76,
      "hit": false,
      "t": 255848.27200000008,
      "d": 2163.908458333346,
      "v": 50
    },
    {
      "midi": 79,
      "hit": false,
      "t": 255848.27200000008,
      "d": 2163.908458333346,
      "v": 50
    },
    {
      "midi": 72,
      "hit": false,
      "t": 255848.27200000008,
      "d": 2190.4413958333316,
      "v": 50
    },
    {
      "midi": 48,
      "hit": false,
      "t": 255848.27200000078,
      "d": 1801.2916458333202,
      "v": 95
    },
    {
      "midi": 64,
      "hit": false,
      "t": 255851.22010416436,
      "d": 259.43316666665487,
      "v": 95
    },
    {
      "midi": 55,
      "hit": false,
      "t": 255851.22010416744,
      "d": 1807.1878541666665,
      "v": 95
    },
    {
      "midi": 72,
      "hit": false,
      "t": 255852.69415625022,
      "d": 972.874375000014,
      "v": 98
    },
    {
      "midi": 64,
      "hit": false,
      "t": 255852.69415625022,
      "d": 984.6667916666775,
      "v": 84
    },
    {
      "midi": 60,
      "hit": false,
      "t": 255852.69415625022,
      "d": 1002.3554166666872,
      "v": 98
    },
    {
      "midi": 52,
      "hit": false,
      "t": 256119.497583334,
      "d": 126.76847916666884,
      "v": 86
    },
    {
      "midi": 60,
      "hit": false,
      "t": 256125.39379166433,
      "d": 259.433166666684,
      "v": 95
    },
    {
      "midi": 64,
      "hit": false,
      "t": 256125.39379166433,
      "d": 259.433166666684,
      "v": 74
    },
    {
      "midi": 67,
      "hit": false,
      "t": 256125.39379166433,
      "d": 259.433166666684,
      "v": 88
    },
    {
      "midi": 55,
      "hit": false,
      "t": 256131.28999999768,
      "d": 259.433166666684,
      "v": 83
    },
    {
      "midi": 67,
      "hit": false,
      "t": 256408.41179166437,
      "d": 259.43316666665487,
      "v": 102
    },
    {
      "midi": 64,
      "hit": false,
      "t": 256411.35989583103,
      "d": 259.43316666665487,
      "v": 97
    },
    {
      "midi": 55,
      "hit": false,
      "t": 256414.3079999977,
      "d": 259.43316666665487,
      "v": 74
    },
    {
      "midi": 60,
      "hit": false,
      "t": 256417.25610416435,
      "d": 259.43316666665487,
      "v": 96
    },
    {
      "midi": 24,
      "hit": false,
      "t": 256417.2561041665,
      "d": 362.61681249999674,
      "v": 110
    },
    {
      "midi": 55,
      "hit": false,
      "t": 256420.204208334,
      "d": 1229.3594375000102,
      "v": 107
    },
    {
      "midi": 62,
      "hit": false,
      "t": 256420.204208334,
      "d": 1258.8404791666835,
      "v": 60
    },
    {
      "midi": 55,
      "hit": false,
      "t": 256691.42979166433,
      "d": 141.50899999999092,
      "v": 78
    },
    {
      "midi": 67,
      "hit": false,
      "t": 256691.42979166433,
      "d": 147.4052083333081,
      "v": 98
    },
    {
      "midi": 64,
      "hit": false,
      "t": 256694.37789583098,
      "d": 141.50899999999092,
      "v": 84
    },
    {
      "midi": 60,
      "hit": false,
      "t": 256694.37789583098,
      "d": 144.45710416664951,
      "v": 86
    },
    {
      "midi": 55,
      "hit": false,
      "t": 256832.93879166432,
      "d": 259.43316666665487,
      "v": 72
    },
    {
      "midi": 64,
      "hit": false,
      "t": 256835.88689583098,
      "d": 259.43316666665487,
      "v": 98
    },
    {
      "midi": 60,
      "hit": false,
      "t": 256838.83499999763,
      "d": 259.43316666665487,
      "v": 93
    },
    {
      "midi": 67,
      "hit": false,
      "t": 256838.83499999763,
      "d": 259.43316666665487,
      "v": 95
    },
    {
      "midi": 24,
      "hit": false,
      "t": 256853.57552083317,
      "d": 47.16966666665394,
      "v": 110
    },
    {
      "midi": 24,
      "hit": false,
      "t": 256980.3439999998,
      "d": 53.06587500000023,
      "v": 110
    },
    {
      "midi": 60,
      "hit": false,
      "t": 256984.76615625023,
      "d": 719.3374166666763,
      "v": 95
    },
    {
      "midi": 67,
      "hit": false,
      "t": 256984.76615625023,
      "d": 719.3374166666763,
      "v": 92
    },
    {
      "midi": 62,
      "hit": false,
      "t": 256984.76615625023,
      "d": 725.2336250000226,
      "v": 89
    },
    {
      "midi": 60,
      "hit": false,
      "t": 257110.06058333095,
      "d": 144.45710416667862,
      "v": 97
    },
    {
      "midi": 67,
      "hit": false,
      "t": 257113.0086874976,
      "d": 141.50900000002002,
      "v": 101
    },
    {
      "midi": 55,
      "hit": false,
      "t": 257113.0086874976,
      "d": 144.45710416667862,
      "v": 76
    },
    {
      "midi": 64,
      "hit": false,
      "t": 257118.90489583096,
      "d": 135.61279166667373,
      "v": 86
    },
    {
      "midi": 60,
      "hit": false,
      "t": 257254.51768749763,
      "d": 386.2016458333237,
      "v": 91
    },
    {
      "midi": 67,
      "hit": false,
      "t": 257254.51768749763,
      "d": 397.9940624999872,
      "v": 97
    },
    {
      "midi": 64,
      "hit": false,
      "t": 257254.51768749763,
      "d": 400.9421666666458,
      "v": 89
    },
    {
      "midi": 55,
      "hit": false,
      "t": 257257.4657916643,
      "d": 397.9940624999872,
      "v": 85
    },
    {
      "midi": 24,
      "hit": false,
      "t": 257257.46579166647,
      "d": 374.4092291666602,
      "v": 110
    },
    {
      "midi": 60,
      "hit": false,
      "t": 257676.09658333095,
      "d": 141.50899999999092,
      "v": 79
    },
    {
      "midi": 55,
      "hit": false,
      "t": 257679.0446874976,
      "d": 141.50899999999092,
      "v": 73
    },
    {
      "midi": 64,
      "hit": false,
      "t": 257679.0446874976,
      "d": 141.50899999999092,
      "v": 81
    },
    {
      "midi": 67,
      "hit": false,
      "t": 257681.99279166426,
      "d": 138.56089583333232,
      "v": 97
    },
    {
      "midi": 55,
      "hit": false,
      "t": 257814.65747916736,
      "d": 515.9182291666511,
      "v": 104
    },
    {
      "midi": 60,
      "hit": false,
      "t": 257817.60558333094,
      "d": 141.50899999999092,
      "v": 80
    },
    {
      "midi": 55,
      "hit": false,
      "t": 257820.5536874976,
      "d": 138.56089583333232,
      "v": 73
    },
    {
      "midi": 64,
      "hit": false,
      "t": 257820.5536874976,
      "d": 144.45710416667862,
      "v": 83
    },
    {
      "midi": 67,
      "hit": false,
      "t": 257820.5536874976,
      "d": 144.45710416667862,
      "v": 80
    },
    {
      "midi": 57,
      "hit": false,
      "t": 257823.50179166746,
      "d": 250.58885416667908,
      "v": 95
    },
    {
      "midi": 67,
      "hit": false,
      "t": 257823.50179166746,
      "d": 262.38127083334257,
      "v": 86
    },
    {
      "midi": 62,
      "hit": false,
      "t": 257826.44989583403,
      "d": 993.5111041666532,
      "v": 60
    },
    {
      "midi": 50,
      "hit": false,
      "t": 257826.4498958341,
      "d": 262.38127083334257,
      "v": 95
    },
    {
      "midi": 66,
      "hit": false,
      "t": 257826.44989583446,
      "d": 548.3473750000412,
      "v": 89
    },
    {
      "midi": 24,
      "hit": false,
      "t": 257829.3979999998,
      "d": 88.44312499999069,
      "v": 110
    },
    {
      "midi": 62,
      "hit": false,
      "t": 257832.34610416746,
      "d": 265.32937500000116,
      "v": 86
    },
    {
      "midi": 66,
      "hit": false,
      "t": 257833.82015625027,
      "d": 339.03197916666977,
      "v": 99
    },
    {
      "midi": 62,
      "hit": false,
      "t": 257833.82015625027,
      "d": 341.98008333332837,
      "v": 92
    },
    {
      "midi": 55,
      "hit": false,
      "t": 257959.11458333093,
      "d": 117.92416666669305,
      "v": 82
    },
    {
      "midi": 60,
      "hit": false,
      "t": 257959.11458333093,
      "d": 117.92416666669305,
      "v": 82
    },
    {
      "midi": 64,
      "hit": false,
      "t": 257965.01079166427,
      "d": 117.92416666669305,
      "v": 94
    },
    {
      "midi": 67,
      "hit": false,
      "t": 257965.01079166427,
      "d": 117.92416666669305,
      "v": 102
    },
    {
      "midi": 67,
      "hit": false,
      "t": 258103.57168749764,
      "d": 259.433166666684,
      "v": 92
    },
    {
      "midi": 26,
      "hit": false,
      "t": 258106.51979166648,
      "d": 383.2535416666651,
      "v": 110
    },
    {
      "midi": 67,
      "hit": false,
      "t": 258106.51979166747,
      "d": 2449.8745625000156,
      "v": 86
    },
    {
      "midi": 57,
      "hit": false,
      "t": 258109.46789583098,
      "d": 259.433166666684,
      "v": 90
    },
    {
      "midi": 62,
      "hit": false,
      "t": 258109.46789583098,
      "d": 259.433166666684,
      "v": 100
    },
    {
      "midi": 79,
      "hit": false,
      "t": 258112.41600000008,
      "d": 1096.694749999995,
      "v": 50
    },
    {
      "midi": 74,
      "hit": false,
      "t": 258112.41600000008,
      "d": 4398.571416666673,
      "v": 50
    },
    {
      "midi": 81,
      "hit": false,
      "t": 258112.41600000008,
      "d": 4404.46762499999,
      "v": 50
    },
    {
      "midi": 57,
      "hit": false,
      "t": 258112.4160000008,
      "d": 2352.587124999991,
      "v": 95
    },
    {
      "midi": 62,
      "hit": false,
      "t": 258112.4160000008,
      "d": 2458.7188749999914,
      "v": 86
    },
    {
      "midi": 50,
      "hit": false,
      "t": 258115.36410416747,
      "d": 2358.483333333337,
      "v": 95
    },
    {
      "midi": 69,
      "hit": false,
      "t": 258127.156520831,
      "d": 480.5409791666607,
      "v": 98
    },
    {
      "midi": 57,
      "hit": false,
      "t": 258383.641583334,
      "d": 141.50899999999092,
      "v": 99
    },
    {
      "midi": 62,
      "hit": false,
      "t": 258389.53779166433,
      "d": 259.43316666665487,
      "v": 90
    },
    {
      "midi": 67,
      "hit": false,
      "t": 258389.53779166433,
      "d": 259.43316666665487,
      "v": 94
    },
    {
      "midi": 57,
      "hit": false,
      "t": 258392.485895831,
      "d": 259.43316666665487,
      "v": 96
    },
    {
      "midi": 57,
      "hit": false,
      "t": 258669.60768749766,
      "d": 259.43316666665487,
      "v": 91
    },
    {
      "midi": 67,
      "hit": false,
      "t": 258672.55579166432,
      "d": 259.43316666665487,
      "v": 97
    },
    {
      "midi": 62,
      "hit": false,
      "t": 258675.50389583097,
      "d": 259.43316666665487,
      "v": 100
    },
    {
      "midi": 26,
      "hit": false,
      "t": 258675.50389583313,
      "d": 339.03197916666977,
      "v": 110
    },
    {
      "midi": 57,
      "hit": false,
      "t": 258675.503895834,
      "d": 156.2495208333421,
      "v": 101
    },
    {
      "midi": 69,
      "hit": false,
      "t": 258687.29631249764,
      "d": 350.82439583330415,
      "v": 100
    },
    {
      "midi": 62,
      "hit": false,
      "t": 258946.72947916735,
      "d": 194.57487500002026,
      "v": 60
    },
    {
      "midi": 62,
      "hit": false,
      "t": 258955.5737916643,
      "d": 397.9940624999581,
      "v": 93
    },
    {
      "midi": 57,
      "hit": false,
      "t": 258958.52189583096,
      "d": 117.92416666666395,
      "v": 90
    },
    {
      "midi": 67,
      "hit": false,
      "t": 258961.46999999761,
      "d": 117.92416666666395,
      "v": 98
    },
    {
      "midi": 55,
      "hit": false,
      "t": 258964.41810416736,
      "d": 135.61279166667373,
      "v": 106
    },
    {
      "midi": 66,
      "hit": false,
      "t": 259094.1346874976,
      "d": 235.8483333333279,
      "v": 105
    },
    {
      "midi": 57,
      "hit": false,
      "t": 259097.08279166426,
      "d": 244.6926458333328,
      "v": 90
    },
    {
      "midi": 69,
      "hit": false,
      "t": 259108.87520833092,
      "d": 341.98008333332837,
      "v": 95
    },
    {
      "midi": 26,
      "hit": false,
      "t": 259123.61572916646,
      "d": 44.22156249999534,
      "v": 110
    },
    {
      "midi": 26,
      "hit": false,
      "t": 259241.53989583312,
      "d": 56.01397916665883,
      "v": 110
    },
    {
      "midi": 78,
      "hit": false,
      "t": 259244.48800000007,
      "d": 1105.5390625,
      "v": 45
    },
    {
      "midi": 62,
      "hit": false,
      "t": 259253.33231250072,
      "d": 238.7964374999865,
      "v": 60
    },
    {
      "midi": 57,
      "hit": false,
      "t": 259256.28041666737,
      "d": 173.93814583332278,
      "v": 95
    },
    {
      "midi": 62,
      "hit": false,
      "t": 259380.10079166424,
      "d": 117.92416666666395,
      "v": 75
    },
    {
      "midi": 66,
      "hit": false,
      "t": 259380.10079166424,
      "d": 117.92416666666395,
      "v": 81
    },
    {
      "midi": 57,
      "hit": false,
      "t": 259385.9969999976,
      "d": 117.92416666666395,
      "v": 90
    },
    {
      "midi": 66,
      "hit": false,
      "t": 259521.60979166426,
      "d": 400.9421666666749,
      "v": 102
    },
    {
      "midi": 57,
      "hit": false,
      "t": 259524.55789583092,
      "d": 400.9421666666749,
      "v": 99
    },
    {
      "midi": 62,
      "hit": false,
      "t": 259524.55789583092,
      "d": 400.9421666666749,
      "v": 98
    },
    {
      "midi": 26,
      "hit": false,
      "t": 259524.5578958331,
      "d": 386.2016458333237,
      "v": 110
    },
    {
      "midi": 69,
      "hit": false,
      "t": 259542.24652083093,
      "d": 766.5070833333593,
      "v": 97
    },
    {
      "midi": 66,
      "hit": false,
      "t": 259943.1886874976,
      "d": 117.92416666669305,
      "v": 97
    },
    {
      "midi": 57,
      "hit": false,
      "t": 259949.08489583095,
      "d": 141.50899999999092,
      "v": 84
    },
    {
      "midi": 62,
      "hit": false,
      "t": 259949.08489583095,
      "d": 259.43316666665487,
      "v": 96
    },
    {
      "midi": 55,
      "hit": false,
      "t": 260067.0090625007,
      "d": 551.2954791666707,
      "v": 104
    },
    {
      "midi": 67,
      "hit": false,
      "t": 260087.64579166428,
      "d": 138.56089583333232,
      "v": 103
    },
    {
      "midi": 57,
      "hit": false,
      "t": 260090.59389583094,
      "d": 141.50900000002002,
      "v": 86
    },
    {
      "midi": 26,
      "hit": false,
      "t": 260093.54199999975,
      "d": 61.91018750000512,
      "v": 110
    },
    {
      "midi": 62,
      "hit": false,
      "t": 260096.49010416737,
      "d": 1276.5291041666933,
      "v": 60
    },
    {
      "midi": 67,
      "hit": false,
      "t": 260226.20668749762,
      "d": 147.40520833336632,
      "v": 96
    },
    {
      "midi": 57,
      "hit": false,
      "t": 260232.10289583096,
      "d": 135.61279166667373,
      "v": 89
    },
    {
      "midi": 62,
      "hit": false,
      "t": 260235.05099999762,
      "d": 138.56089583336143,
      "v": 84
    },
    {
      "midi": 57,
      "hit": false,
      "t": 260367.71568749764,
      "d": 259.433166666684,
      "v": 85
    },
    {
      "midi": 26,
      "hit": false,
      "t": 260370.66379166642,
      "d": 353.77249999999185,
      "v": 110
    },
    {
      "midi": 62,
      "hit": false,
      "t": 260373.61189583098,
      "d": 259.433166666684,
      "v": 94
    },
    {
      "midi": 67,
      "hit": false,
      "t": 260373.61189583098,
      "d": 259.433166666684,
      "v": 100
    },
    {
      "midi": 79,
      "hit": false,
      "t": 260376.56000000006,
      "d": 1090.798541666678,
      "v": 50
    },
    {
      "midi": 69,
      "hit": false,
      "t": 260379.50810416433,
      "d": 480.5409791666607,
      "v": 99
    },
    {
      "midi": 57,
      "hit": false,
      "t": 260650.73368749768,
      "d": 259.43316666665487,
      "v": 79
    },
    {
      "midi": 62,
      "hit": false,
      "t": 260653.68179166433,
      "d": 259.43316666665487,
      "v": 95
    },
    {
      "midi": 67,
      "hit": false,
      "t": 260653.68179166748,
      "d": 566.0359999999928,
      "v": 86
    },
    {
      "midi": 67,
      "hit": false,
      "t": 260656.629895831,
      "d": 259.43316666665487,
      "v": 92
    },
    {
      "midi": 57,
      "hit": false,
      "t": 260656.62989583405,
      "d": 138.56089583333232,
      "v": 99
    },
    {
      "midi": 57,
      "hit": false,
      "t": 260659.57800000082,
      "d": 312.4990416666551,
      "v": 95
    },
    {
      "midi": 62,
      "hit": false,
      "t": 260659.57800000082,
      "d": 486.4371874999779,
      "v": 86
    },
    {
      "midi": 50,
      "hit": false,
      "t": 260662.52610416748,
      "d": 312.4990416666551,
      "v": 95
    },
    {
      "midi": 57,
      "hit": false,
      "t": 260936.69979166432,
      "d": 259.43316666665487,
      "v": 79
    },
    {
      "midi": 67,
      "hit": false,
      "t": 260939.64789583097,
      "d": 330.1876666666358,
      "v": 102
    },
    {
      "midi": 62,
      "hit": false,
      "t": 260939.64789583097,
      "d": 339.03197916664067,
      "v": 84
    },
    {
      "midi": 26,
      "hit": false,
      "t": 260939.64789583307,
      "d": 339.03197916666977,
      "v": 110
    },
    {
      "midi": 57,
      "hit": false,
      "t": 260948.49220833404,
      "d": 135.61279166667373,
      "v": 90
    },
    {
      "midi": 67,
      "hit": false,
      "t": 260948.4922083345,
      "d": 268.27747916665976,
      "v": 98
    },
    {
      "midi": 69,
      "hit": false,
      "t": 260951.44031249764,
      "d": 356.72060416665045,
      "v": 96
    },
    {
      "midi": 57,
      "hit": false,
      "t": 261222.66589583096,
      "d": 117.92416666666395,
      "v": 82
    },
    {
      "midi": 55,
      "hit": false,
      "t": 261228.5621041674,
      "d": 135.61279166667373,
      "v": 102
    },
    {
      "midi": 66,
      "hit": false,
      "t": 261228.56210416782,
      "d": 265.32937500000116,
      "v": 101
    },
    {
      "midi": 66,
      "hit": false,
      "t": 261358.27868749763,
      "d": 259.43316666662577,
      "v": 97
    },
    {
      "midi": 57,
      "hit": false,
      "t": 261361.2267916643,
      "d": 259.43316666662577,
      "v": 83
    },
    {
      "midi": 62,
      "hit": false,
      "t": 261364.17489583095,
      "d": 259.43316666662577,
      "v": 92
    },
    {
      "midi": 69,
      "hit": false,
      "t": 261378.91541666427,
      "d": 315.4471458333137,
      "v": 100
    },
    {
      "midi": 26,
      "hit": false,
      "t": 261381.86352083308,
      "d": 58.96208333334653,
      "v": 110
    },
    {
      "midi": 26,
      "hit": false,
      "t": 261502.73579166643,
      "d": 64.85829166666372,
      "v": 110
    },
    {
      "midi": 50,
      "hit": false,
      "t": 261502.73579166748,
      "d": 235.8483333333279,
      "v": 95
    },
    {
      "midi": 62,
      "hit": false,
      "t": 261502.73579166748,
      "d": 247.6407500000205,
      "v": 86
    },
    {
      "midi": 67,
      "hit": false,
      "t": 261502.73579166748,
      "d": 250.58885416667908,
      "v": 86
    },
    {
      "midi": 57,
      "hit": false,
      "t": 261505.68389583414,
      "d": 238.7964375000156,
      "v": 95
    },
    {
      "midi": 78,
      "hit": false,
      "t": 261508.63200000007,
      "d": 1002.3554166666872,
      "v": 45
    },
    {
      "midi": 57,
      "hit": false,
      "t": 261517.47631250074,
      "d": 203.41918749999604,
      "v": 104
    },
    {
      "midi": 62,
      "hit": false,
      "t": 261520.4244166674,
      "d": 144.45710416667862,
      "v": 60
    },
    {
      "midi": 57,
      "hit": false,
      "t": 261641.29668749758,
      "d": 147.4052083333372,
      "v": 80
    },
    {
      "midi": 66,
      "hit": false,
      "t": 261641.29668749758,
      "d": 147.4052083333372,
      "v": 88
    },
    {
      "midi": 62,
      "hit": false,
      "t": 261650.1409999976,
      "d": 132.66468749998603,
      "v": 81
    },
    {
      "midi": 62,
      "hit": false,
      "t": 261782.80568749757,
      "d": 400.942166666704,
      "v": 91
    },
    {
      "midi": 57,
      "hit": false,
      "t": 261785.7537916675,
      "d": 294.81041666670353,
      "v": 95
    },
    {
      "midi": 57,
      "hit": false,
      "t": 261788.70189583092,
      "d": 400.9421666666749,
      "v": 98
    },
    {
      "midi": 66,
      "hit": false,
      "t": 261788.70189583092,
      "d": 400.9421666666749,
      "v": 99
    },
    {
      "midi": 50,
      "hit": false,
      "t": 261788.70189583415,
      "d": 285.96610416669864,
      "v": 95
    },
    {
      "midi": 26,
      "hit": false,
      "t": 261794.59810416642,
      "d": 400.9421666666458,
      "v": 110
    },
    {
      "midi": 55,
      "hit": false,
      "t": 261794.5981041674,
      "d": 138.56089583333232,
      "v": 101
    },
    {
      "midi": 67,
      "hit": false,
      "t": 261794.5981041675,
      "d": 271.22558333334746,
      "v": 86
    },
    {
      "midi": 62,
      "hit": false,
      "t": 261794.5981041675,
      "d": 274.17368750000605,
      "v": 86
    },
    {
      "midi": 67,
      "hit": false,
      "t": 261797.5462083345,
      "d": 5371.445791665406,
      "v": 98
    },
    {
      "midi": 69,
      "hit": false,
      "t": 261809.3386249976,
      "d": 819.5729583332432,
      "v": 103
    },
    {
      "midi": 62,
      "hit": false,
      "t": 261815.23483333408,
      "d": 229.9521250000107,
      "v": 71
    },
    {
      "midi": 50,
      "hit": false,
      "t": 262059.92747916744,
      "d": 73.70260416669771,
      "v": 76
    },
    {
      "midi": 52,
      "hit": false,
      "t": 262086.46041666745,
      "d": 200.47108333336655,
      "v": 87
    },
    {
      "midi": 62,
      "hit": false,
      "t": 262207.3326874976,
      "d": 259.43316666659666,
      "v": 83
    },
    {
      "midi": 66,
      "hit": false,
      "t": 262210.28079166426,
      "d": 117.92416666663485,
      "v": 88
    },
    {
      "midi": 57,
      "hit": false,
      "t": 262213.2288958309,
      "d": 117.92416666663485,
      "v": 77
    },
    {
      "midi": 67,
      "hit": false,
      "t": 262351.7897916642,
      "d": 117.92416666663485,
      "v": 97
    },
    {
      "midi": 50,
      "hit": false,
      "t": 262354.7378958342,
      "d": 259.43316666665487,
      "v": 95
    },
    {
      "midi": 57,
      "hit": false,
      "t": 262357.68599999754,
      "d": 117.92416666663485,
      "v": 71
    },
    {
      "midi": 31,
      "hit": false,
      "t": 262357.68599999975,
      "d": 53.06587499997113,
      "v": 110
    },
    {
      "midi": 62,
      "hit": false,
      "t": 262357.68600000086,
      "d": 259.43316666665487,
      "v": 86
    },
    {
      "midi": 43,
      "hit": false,
      "t": 262360.6341041675,
      "d": 250.58885416667908,
      "v": 95
    },
    {
      "midi": 67,
      "hit": false,
      "t": 262360.6341041675,
      "d": 262.38127083331347,
      "v": 86
    },
    {
      "midi": 62,
      "hit": false,
      "t": 262363.5822083342,
      "d": 4805.409791665443,
      "v": 57
    },
    {
      "midi": 55,
      "hit": false,
      "t": 262375.37462500087,
      "d": 4793.61737499875,
      "v": 78
    },
    {
      "midi": 62,
      "hit": false,
      "t": 262496.24689583085,
      "d": 117.92416666663485,
      "v": 86
    },
    {
      "midi": 67,
      "hit": false,
      "t": 262496.24689583085,
      "d": 117.92416666663485,
      "v": 98
    },
    {
      "midi": 57,
      "hit": false,
      "t": 262499.1949999975,
      "d": 117.92416666663485,
      "v": 79
    },
    {
      "midi": 43,
      "hit": false,
      "t": 262634.8077916675,
      "d": 4534.184208332095,
      "v": 91
    },
    {
      "midi": 62,
      "hit": false,
      "t": 262634.8077916675,
      "d": 4534.184208332095,
      "v": 80
    },
    {
      "midi": 31,
      "hit": false,
      "t": 262637.7558958331,
      "d": 4531.236104165437,
      "v": 110
    },
    {
      "midi": 50,
      "hit": false,
      "t": 262637.7558958342,
      "d": 4531.236104165437,
      "v": 77
    },
    {
      "midi": 55,
      "hit": false,
      "t": 262640.7040000001,
      "d": 4528.287999998778,
      "v": 68
    },
    {
      "midi": 71,
      "hit": false,
      "t": 262640.7040000001,
      "d": 4528.287999998778,
      "v": 40
    },
    {
      "midi": 74,
      "hit": false,
      "t": 262640.7040000001,
      "d": 4528.287999998778,
      "v": 40
    },
    {
      "midi": 79,
      "hit": false,
      "t": 262640.7040000001,
      "d": 4528.287999998778,
      "v": 40
    },
    {
      "midi": 67,
      "hit": false,
      "t": 262643.6521041675,
      "d": 4525.3398958321195,
      "v": 83
    },
    {
      "midi": 55,
      "hit": false,
      "t": 262667.2369374975,
      "d": 4501.7550624987925,
      "v": 101
    },
    {
      "midi": 59,
      "hit": false,
      "t": 262673.1331458308,
      "d": 4495.858854165475,
      "v": 89
    },
    {
      "midi": 67,
      "hit": false,
      "t": 262673.1331458308,
      "d": 4495.858854165475,
      "v": 101
    },
    {
      "midi": 62,
      "hit": false,
      "t": 262676.0812499975,
      "d": 4492.910749998817,
      "v": 98
    }
  ]
}