{
  "jsonPath": "Rock/German Rock/Spider Murphy Gang/ffb.json",
  "path": "Rock\\German Rock\\Spider Murphy Gang\\FFB.mid",
  "name": "FFB",
  "difficulty": "Advanced",
  "bpm": 117.000117000117,
  "notes": [
    {
      "midi": 53,
      "hit": false,
      "t": 2051.28,
      "d": 130.87593749999996,
      "v": 127
    },
    {
      "midi": 55,
      "hit": false,
      "t": 2182.1559375,
      "d": 130.87593749999996,
      "v": 108
    },
    {
      "midi": 60,
      "hit": false,
      "t": 2307.69,
      "d": 1495.725,
      "v": 97
    },
    {
      "midi": 64,
      "hit": false,
      "t": 2310.3609375,
      "d": 1610.5753124999997,
      "v": 119
    },
    {
      "midi": 55,
      "hit": false,
      "t": 2315.7028125,
      "d": 1487.7121874999998,
      "v": 86
    },
    {
      "midi": 67,
      "hit": false,
      "t": 4356.2990625,
      "d": 379.2731249999997,
      "v": 108
    },
    {
      "midi": 79,
      "hit": false,
      "t": 4358.97,
      "d": 381.94406249999975,
      "v": 99
    },
    {
      "midi": 77,
      "hit": false,
      "t": 4738.243125,
      "d": 328.5253124999999,
      "v": 90
    },
    {
      "midi": 65,
      "hit": false,
      "t": 4740.9140625,
      "d": 355.2346875000003,
      "v": 92
    },
    {
      "midi": 72,
      "hit": false,
      "t": 5109.5034375000005,
      "d": 413.9953125000002,
      "v": 77
    },
    {
      "midi": 60,
      "hit": false,
      "t": 5125.529062500001,
      "d": 373.93124999999964,
      "v": 115
    },
    {
      "midi": 57,
      "hit": false,
      "t": 5507.473125,
      "d": 336.53812500000004,
      "v": 90
    },
    {
      "midi": 69,
      "hit": false,
      "t": 5515.485937500001,
      "d": 341.8800000000001,
      "v": 90
    },
    {
      "midi": 60,
      "hit": false,
      "t": 5889.417187500001,
      "d": 1287.3918750000003,
      "v": 88
    },
    {
      "midi": 64,
      "hit": false,
      "t": 5894.759062500001,
      "d": 1159.1868750000003,
      "v": 102
    },
    {
      "midi": 55,
      "hit": false,
      "t": 5897.430000000001,
      "d": 1159.1868750000003,
      "v": 90
    },
    {
      "midi": 55,
      "hit": false,
      "t": 7435.890000000001,
      "d": 243.05531249999967,
      "v": 94
    },
    {
      "midi": 62,
      "hit": false,
      "t": 7692.300000000001,
      "d": 237.7134374999996,
      "v": 99
    },
    {
      "midi": 55,
      "hit": false,
      "t": 7946.039062500001,
      "d": 106.83749999999964,
      "v": 88
    },
    {
      "midi": 53,
      "hit": false,
      "t": 8076.915000000001,
      "d": 892.0931250000012,
      "v": 75
    },
    {
      "midi": 57,
      "hit": false,
      "t": 8076.915000000001,
      "d": 892.0931250000012,
      "v": 72
    },
    {
      "midi": 60,
      "hit": false,
      "t": 8079.585937500001,
      "d": 846.6871875000006,
      "v": 99
    },
    {
      "midi": 53,
      "hit": false,
      "t": 8977.020937500001,
      "d": 235.04249999999956,
      "v": 97
    },
    {
      "midi": 55,
      "hit": false,
      "t": 9233.430937500001,
      "d": 368.58937499999956,
      "v": 84
    },
    {
      "midi": 57,
      "hit": false,
      "t": 9615.375,
      "d": 376.6021875000006,
      "v": 88
    },
    {
      "midi": 60,
      "hit": false,
      "t": 9999.99,
      "d": 251.06812499999978,
      "v": 99
    },
    {
      "midi": 53,
      "hit": false,
      "t": 10256.4,
      "d": 130.87593750000087,
      "v": 118
    },
    {
      "midi": 55,
      "hit": false,
      "t": 10387.2759375,
      "d": 130.87593749999905,
      "v": 115
    },
    {
      "midi": 60,
      "hit": false,
      "t": 10491.442500000001,
      "d": 1693.3743749999994,
      "v": 90
    },
    {
      "midi": 64,
      "hit": false,
      "t": 10515.4809375,
      "d": 1610.5753124999992,
      "v": 119
    },
    {
      "midi": 55,
      "hit": false,
      "t": 10536.848437499999,
      "d": 1704.0581250000014,
      "v": 66
    },
    {
      "midi": 79,
      "hit": false,
      "t": 12556.077187500001,
      "d": 336.53812500000095,
      "v": 102
    },
    {
      "midi": 67,
      "hit": false,
      "t": 12561.419062500001,
      "d": 379.2731249999997,
      "v": 108
    },
    {
      "midi": 77,
      "hit": false,
      "t": 12927.337500000001,
      "d": 349.8928125000002,
      "v": 92
    },
    {
      "midi": 65,
      "hit": false,
      "t": 12946.0340625,
      "d": 355.2346875000003,
      "v": 92
    },
    {
      "midi": 72,
      "hit": false,
      "t": 13301.268750000001,
      "d": 395.2987499999999,
      "v": 92
    },
    {
      "midi": 60,
      "hit": false,
      "t": 13330.6490625,
      "d": 373.93124999999964,
      "v": 115
    },
    {
      "midi": 69,
      "hit": false,
      "t": 13707.25125,
      "d": 355.2346874999985,
      "v": 88
    },
    {
      "midi": 57,
      "hit": false,
      "t": 13712.593125,
      "d": 336.5381249999991,
      "v": 90
    },
    {
      "midi": 64,
      "hit": false,
      "t": 14099.879062499998,
      "d": 1159.1868749999994,
      "v": 102
    },
    {
      "midi": 55,
      "hit": false,
      "t": 14102.549999999997,
      "d": 1159.1868749999994,
      "v": 91
    },
    {
      "midi": 60,
      "hit": false,
      "t": 14107.891874999998,
      "d": 1268.6953125,
      "v": 70
    },
    {
      "midi": 55,
      "hit": false,
      "t": 15641.009999999998,
      "d": 243.05531250000058,
      "v": 94
    },
    {
      "midi": 62,
      "hit": false,
      "t": 15897.419999999998,
      "d": 237.7134375000005,
      "v": 99
    },
    {
      "midi": 55,
      "hit": false,
      "t": 16151.159062499999,
      "d": 106.83749999999964,
      "v": 88
    },
    {
      "midi": 60,
      "hit": false,
      "t": 16284.705937499999,
      "d": 846.6871874999997,
      "v": 99
    },
    {
      "midi": 53,
      "hit": false,
      "t": 16290.047812499999,
      "d": 787.9265624999989,
      "v": 69
    },
    {
      "midi": 57,
      "hit": false,
      "t": 16292.718749999998,
      "d": 793.2684375000008,
      "v": 63
    },
    {
      "midi": 55,
      "hit": false,
      "t": 17179.469999999998,
      "d": 277.77750000000015,
      "v": 92
    },
    {
      "midi": 57,
      "hit": false,
      "t": 17438.550937499997,
      "d": 360.5765625000022,
      "v": 94
    },
    {
      "midi": 60,
      "hit": false,
      "t": 17820.495,
      "d": 379.2731249999997,
      "v": 77
    },
    {
      "midi": 62,
      "hit": false,
      "t": 18205.109999999997,
      "d": 269.7646874999991,
      "v": 97
    },
    {
      "midi": 55,
      "hit": false,
      "t": 18461.519999999997,
      "d": 10.683750000000146,
      "v": 61
    },
    {
      "midi": 60,
      "hit": false,
      "t": 18461.519999999997,
      "d": 1808.2246874999983,
      "v": 88
    },
    {
      "midi": 64,
      "hit": false,
      "t": 18461.519999999997,
      "d": 1840.2759374999987,
      "v": 62
    },
    {
      "midi": 55,
      "hit": false,
      "t": 18474.874687499996,
      "d": 1762.8187499999985,
      "v": 90
    },
    {
      "midi": 57,
      "hit": false,
      "t": 20491.432499999995,
      "d": 649.0378124999988,
      "v": 83
    },
    {
      "midi": 53,
      "hit": false,
      "t": 20496.774374999994,
      "d": 598.2900000000009,
      "v": 75
    },
    {
      "midi": 60,
      "hit": false,
      "t": 20507.458124999994,
      "d": 691.7728124999994,
      "v": 66
    },
    {
      "midi": 57,
      "hit": false,
      "t": 21295.384687499994,
      "d": 267.09375,
      "v": 77
    },
    {
      "midi": 60,
      "hit": false,
      "t": 21575.833124999994,
      "d": 368.58937499999956,
      "v": 80
    },
    {
      "midi": 62,
      "hit": false,
      "t": 21944.422499999993,
      "d": 339.20906249999825,
      "v": 71
    },
    {
      "midi": 64,
      "hit": false,
      "t": 22299.65718749999,
      "d": 243.05531250000058,
      "v": 68
    },
    {
      "midi": 60,
      "hit": false,
      "t": 22564.07999999999,
      "d": 635.6831249999996,
      "v": 79
    },
    {
      "midi": 64,
      "hit": false,
      "t": 22564.07999999999,
      "d": 892.0931249999994,
      "v": 68
    },
    {
      "midi": 55,
      "hit": false,
      "t": 22572.092812499992,
      "d": 200.3203125,
      "v": 69
    },
    {
      "midi": 55,
      "hit": false,
      "t": 22815.148124999992,
      "d": 232.37156250000044,
      "v": 110
    },
    {
      "midi": 57,
      "hit": false,
      "t": 23074.22906249999,
      "d": 219.01687499999753,
      "v": 90
    },
    {
      "midi": 60,
      "hit": false,
      "t": 23327.96812499999,
      "d": 194.97843750000175,
      "v": 96
    },
    {
      "midi": 64,
      "hit": false,
      "t": 23571.02343749999,
      "d": 264.42281249999724,
      "v": 88
    },
    {
      "midi": 55,
      "hit": false,
      "t": 23830.104374999988,
      "d": 90.81187499999942,
      "v": 83
    },
    {
      "midi": 62,
      "hit": false,
      "t": 23960.98031249999,
      "d": 269.76468750000276,
      "v": 83
    },
    {
      "midi": 55,
      "hit": false,
      "t": 24212.04843749999,
      "d": 77.45718750000015,
      "v": 81
    },
    {
      "midi": 60,
      "hit": false,
      "t": 24340.253437499992,
      "d": 1006.9434374999983,
      "v": 83
    },
    {
      "midi": 57,
      "hit": false,
      "t": 24612.68906249999,
      "d": 256.40999999999985,
      "v": 70
    },
    {
      "midi": 53,
      "hit": false,
      "t": 24885.12468749999,
      "d": 771.9009375000023,
      "v": 72
    },
    {
      "midi": 55,
      "hit": false,
      "t": 25395.27374999999,
      "d": 283.1193749999984,
      "v": 88
    },
    {
      "midi": 57,
      "hit": false,
      "t": 25662.36749999999,
      "d": 392.62781249999534,
      "v": 96
    },
    {
      "midi": 60,
      "hit": false,
      "t": 26028.285937499986,
      "d": 315.17062499999884,
      "v": 85
    },
    {
      "midi": 62,
      "hit": false,
      "t": 26380.849687499984,
      "d": 251.0681250000016,
      "v": 93
    },
    {
      "midi": 55,
      "hit": false,
      "t": 26666.639999999985,
      "d": 10.683750000000146,
      "v": 61
    },
    {
      "midi": 60,
      "hit": false,
      "t": 26666.639999999985,
      "d": 1808.2246874999983,
      "v": 88
    },
    {
      "midi": 64,
      "hit": false,
      "t": 26666.639999999985,
      "d": 1840.2759374999987,
      "v": 62
    },
    {
      "midi": 55,
      "hit": false,
      "t": 26679.994687499984,
      "d": 1762.8187499999985,
      "v": 90
    },
    {
      "midi": 57,
      "hit": false,
      "t": 28696.552499999983,
      "d": 649.0378124999988,
      "v": 83
    },
    {
      "midi": 53,
      "hit": false,
      "t": 28701.89437499998,
      "d": 598.2900000000009,
      "v": 75
    },
    {
      "midi": 60,
      "hit": false,
      "t": 28712.57812499998,
      "d": 691.7728124999994,
      "v": 66
    },
    {
      "midi": 57,
      "hit": false,
      "t": 29500.504687499983,
      "d": 267.09375,
      "v": 77
    },
    {
      "midi": 60,
      "hit": false,
      "t": 29780.95312499998,
      "d": 368.58937499999956,
      "v": 80
    },
    {
      "midi": 62,
      "hit": false,
      "t": 30149.54249999998,
      "d": 339.20906249999825,
      "v": 71
    },
    {
      "midi": 64,
      "hit": false,
      "t": 30504.777187499978,
      "d": 243.05531250000058,
      "v": 68
    },
    {
      "midi": 55,
      "hit": false,
      "t": 31033.62281249998,
      "d": 486.11062500000116,
      "v": 106
    },
    {
      "midi": 67,
      "hit": false,
      "t": 31551.78468749998,
      "d": 470.0849999999991,
      "v": 103
    },
    {
      "midi": 64,
      "hit": false,
      "t": 32051.24999999998,
      "d": 405.98249999999825,
      "v": 93
    },
    {
      "midi": 60,
      "hit": false,
      "t": 32443.87781249998,
      "d": 344.5509374999965,
      "v": 93
    },
    {
      "midi": 65,
      "hit": false,
      "t": 32825.82187499998,
      "d": 355.2346875000003,
      "v": 106
    },
    {
      "midi": 57,
      "hit": false,
      "t": 33202.42406249998,
      "d": 400.640625,
      "v": 89
    },
    {
      "midi": 62,
      "hit": false,
      "t": 33595.05187499998,
      "d": 467.4140625,
      "v": 103
    },
    {
      "midi": 60,
      "hit": false,
      "t": 34089.17531249998,
      "d": 240.38437500000146,
      "v": 77
    },
    {
      "midi": 62,
      "hit": false,
      "t": 34353.59812499998,
      "d": 251.06812499999796,
      "v": 103
    },
    {
      "midi": 64,
      "hit": false,
      "t": 34612.67906249998,
      "d": 253.7390624999971,
      "v": 93
    },
    {
      "midi": 55,
      "hit": false,
      "t": 34871.75999999997,
      "d": 10.683749999996508,
      "v": 61
    },
    {
      "midi": 60,
      "hit": false,
      "t": 34871.75999999997,
      "d": 1808.224687499991,
      "v": 88
    },
    {
      "midi": 64,
      "hit": false,
      "t": 34871.75999999997,
      "d": 1840.2759374999878,
      "v": 62
    },
    {
      "midi": 55,
      "hit": false,
      "t": 34885.11468749997,
      "d": 1762.8187499999985,
      "v": 90
    },
    {
      "midi": 57,
      "hit": false,
      "t": 36901.672499999964,
      "d": 649.0378124999916,
      "v": 83
    },
    {
      "midi": 53,
      "hit": false,
      "t": 36907.01437499996,
      "d": 598.2899999999936,
      "v": 75
    },
    {
      "midi": 60,
      "hit": false,
      "t": 36917.69812499996,
      "d": 691.7728124999994,
      "v": 66
    },
    {
      "midi": 57,
      "hit": false,
      "t": 37705.624687499956,
      "d": 267.09375,
      "v": 77
    },
    {
      "midi": 60,
      "hit": false,
      "t": 37986.07312499996,
      "d": 368.5893750000032,
      "v": 80
    },
    {
      "midi": 62,
      "hit": false,
      "t": 38354.66249999996,
      "d": 339.20906249999825,
      "v": 71
    },
    {
      "midi": 64,
      "hit": false,
      "t": 38709.89718749996,
      "d": 243.05531250000058,
      "v": 68
    },
    {
      "midi": 64,
      "hit": false,
      "t": 38982.33281249996,
      "d": 731.8368750000009,
      "v": 72
    },
    {
      "midi": 60,
      "hit": false,
      "t": 38985.00374999996,
      "d": 726.4950000000026,
      "v": 85
    },
    {
      "midi": 55,
      "hit": false,
      "t": 38987.67468749996,
      "d": 726.4950000000026,
      "v": 77
    },
    {
      "midi": 60,
      "hit": false,
      "t": 39762.24656249996,
      "d": 178.9528124999997,
      "v": 93
    },
    {
      "midi": 55,
      "hit": false,
      "t": 39767.58843749996,
      "d": 178.9528124999997,
      "v": 83
    },
    {
      "midi": 55,
      "hit": false,
      "t": 40026.66937499996,
      "d": 299.1449999999968,
      "v": 90
    },
    {
      "midi": 64,
      "hit": false,
      "t": 40029.34031249996,
      "d": 264.4228125000009,
      "v": 110
    },
    {
      "midi": 60,
      "hit": false,
      "t": 40029.34031249996,
      "d": 312.4996874999997,
      "v": 110
    },
    {
      "midi": 65,
      "hit": false,
      "t": 40400.60062499996,
      "d": 251.06812499999796,
      "v": 93
    },
    {
      "midi": 60,
      "hit": false,
      "t": 40405.94249999996,
      "d": 285.79031250000116,
      "v": 96
    },
    {
      "midi": 55,
      "hit": false,
      "t": 40413.95531249996,
      "d": 277.7775000000038,
      "v": 85
    },
    {
      "midi": 64,
      "hit": false,
      "t": 40758.50624999996,
      "d": 181.62374999999884,
      "v": 90
    },
    {
      "midi": 60,
      "hit": false,
      "t": 40763.84812499996,
      "d": 189.63656249999622,
      "v": 90
    },
    {
      "midi": 55,
      "hit": false,
      "t": 40779.87374999996,
      "d": 162.92718749999767,
      "v": 65
    },
    {
      "midi": 65,
      "hit": false,
      "t": 41041.62562499996,
      "d": 264.4228124999936,
      "v": 99
    },
    {
      "midi": 60,
      "hit": false,
      "t": 41052.30937499995,
      "d": 267.09375,
      "v": 96
    },
    {
      "midi": 55,
      "hit": false,
      "t": 41054.98031249995,
      "d": 267.09375,
      "v": 88
    },
    {
      "midi": 64,
      "hit": false,
      "t": 41394.18937499995,
      "d": 243.0553124999933,
      "v": 110
    },
    {
      "midi": 60,
      "hit": false,
      "t": 41399.53124999995,
      "d": 293.80312499999854,
      "v": 103
    },
    {
      "midi": 55,
      "hit": false,
      "t": 41404.87312499995,
      "d": 253.7390624999971,
      "v": 70
    },
    {
      "midi": 60,
      "hit": false,
      "t": 41760.10781249995,
      "d": 202.99124999999913,
      "v": 106
    },
    {
      "midi": 55,
      "hit": false,
      "t": 41765.449687499946,
      "d": 194.97843750000175,
      "v": 85
    },
    {
      "midi": 67,
      "hit": false,
      "t": 42053.910937499946,
      "d": 291.1321874999994,
      "v": 115
    },
    {
      "midi": 60,
      "hit": false,
      "t": 42053.910937499946,
      "d": 312.4996874999997,
      "v": 106
    },
    {
      "midi": 55,
      "hit": false,
      "t": 42053.910937499946,
      "d": 315.17062499999884,
      "v": 85
    },
    {
      "midi": 65,
      "hit": false,
      "t": 42438.525937499944,
      "d": 245.7262499999997,
      "v": 93
    },
    {
      "midi": 60,
      "hit": false,
      "t": 42441.19687499994,
      "d": 267.09375,
      "v": 96
    },
    {
      "midi": 55,
      "hit": false,
      "t": 42443.86781249994,
      "d": 283.11937500000204,
      "v": 77
    },
    {
      "midi": 60,
      "hit": false,
      "t": 42759.03843749994,
      "d": 288.46125000000757,
      "v": 93
    },
    {
      "midi": 64,
      "hit": false,
      "t": 42764.38031249994,
      "d": 269.7646875000064,
      "v": 106
    },
    {
      "midi": 55,
      "hit": false,
      "t": 42777.73499999994,
      "d": 243.05531250000058,
      "v": 63
    },
    {
      "midi": 55,
      "hit": false,
      "t": 43076.87999999995,
      "d": 10.683749999996508,
      "v": 61
    },
    {
      "midi": 60,
      "hit": false,
      "t": 43076.87999999995,
      "d": 1808.224687499991,
      "v": 88
    },
    {
      "midi": 64,
      "hit": false,
      "t": 43076.87999999995,
      "d": 1840.2759374999878,
      "v": 62
    },
    {
      "midi": 55,
      "hit": false,
      "t": 43090.23468749994,
      "d": 1762.8187499999985,
      "v": 90
    },
    {
      "midi": 57,
      "hit": false,
      "t": 45106.79249999994,
      "d": 649.0378124999916,
      "v": 83
    },
    {
      "midi": 53,
      "hit": false,
      "t": 45112.134374999936,
      "d": 598.2899999999936,
      "v": 75
    },
    {
      "midi": 60,
      "hit": false,
      "t": 45122.81812499993,
      "d": 691.7728124999994,
      "v": 66
    },
    {
      "midi": 55,
      "hit": false,
      "t": 45910.74468749993,
      "d": 267.09375,
      "v": 77
    },
    {
      "midi": 57,
      "hit": false,
      "t": 46191.19312499993,
      "d": 368.5893750000032,
      "v": 80
    },
    {
      "midi": 60,
      "hit": false,
      "t": 46559.782499999936,
      "d": 339.20906249999825,
      "v": 83
    },
    {
      "midi": 62,
      "hit": false,
      "t": 46915.017187499936,
      "d": 243.05531250000058,
      "v": 86
    },
    {
      "midi": 64,
      "hit": false,
      "t": 47179.43999999994,
      "d": 651.708749999998,
      "v": 77
    },
    {
      "midi": 55,
      "hit": false,
      "t": 47179.43999999994,
      "d": 654.3796874999971,
      "v": 70
    },
    {
      "midi": 60,
      "hit": false,
      "t": 47179.43999999994,
      "d": 657.0506249999962,
      "v": 79
    },
    {
      "midi": 55,
      "hit": false,
      "t": 47945.999062499934,
      "d": 168.2690625000032,
      "v": 103
    },
    {
      "midi": 62,
      "hit": false,
      "t": 48202.40906249994,
      "d": 291.1321874999994,
      "v": 103
    },
    {
      "midi": 55,
      "hit": false,
      "t": 48205.079999999936,
      "d": 325.8543750000026,
      "v": 90
    },
    {
      "midi": 55,
      "hit": false,
      "t": 48584.353124999936,
      "d": 272.43562499999825,
      "v": 59
    },
    {
      "midi": 60,
      "hit": false,
      "t": 48584.353124999936,
      "d": 357.9056249999994,
      "v": 96
    },
    {
      "midi": 55,
      "hit": false,
      "t": 48968.968124999934,
      "d": 184.29468749999796,
      "v": 99
    },
    {
      "midi": 57,
      "hit": false,
      "t": 49236.061874999934,
      "d": 323.1834374999962,
      "v": 81
    },
    {
      "midi": 53,
      "hit": false,
      "t": 49241.40374999993,
      "d": 683.760000000002,
      "v": 99
    },
    {
      "midi": 60,
      "hit": false,
      "t": 49618.00593749993,
      "d": 339.20906249999825,
      "v": 96
    },
    {
      "midi": 55,
      "hit": false,
      "t": 49997.27906249993,
      "d": 240.38437500000146,
      "v": 88
    },
    {
      "midi": 57,
      "hit": false,
      "t": 50259.030937499934,
      "d": 277.7774999999965,
      "v": 99
    },
    {
      "midi": 60,
      "hit": false,
      "t": 50261.70187499993,
      "d": 264.4228125000009,
      "v": 96
    },
    {
      "midi": 57,
      "hit": false,
      "t": 50635.63312499993,
      "d": 272.43562499999825,
      "v": 99
    },
    {
      "midi": 60,
      "hit": false,
      "t": 50638.30406249993,
      "d": 272.43562499999825,
      "v": 99
    },
    {
      "midi": 57,
      "hit": false,
      "t": 51014.90624999993,
      "d": 277.7774999999965,
      "v": 83
    },
    {
      "midi": 62,
      "hit": false,
      "t": 51014.90624999993,
      "d": 283.11937499999476,
      "v": 68
    },
    {
      "midi": 53,
      "hit": false,
      "t": 51017.57718749993,
      "d": 267.09375,
      "v": 63
    },
    {
      "midi": 55,
      "hit": false,
      "t": 51281.99999999993,
      "d": 10.683749999996508,
      "v": 61
    },
    {
      "midi": 60,
      "hit": false,
      "t": 51281.99999999993,
      "d": 1808.224687499991,
      "v": 88
    },
    {
      "midi": 64,
      "hit": false,
      "t": 51281.99999999993,
      "d": 1840.2759374999878,
      "v": 62
    },
    {
      "midi": 55,
      "hit": false,
      "t": 51295.35468749992,
      "d": 1762.8187499999985,
      "v": 90
    },
    {
      "midi": 57,
      "hit": false,
      "t": 53311.91249999992,
      "d": 649.0378124999916,
      "v": 83
    },
    {
      "midi": 53,
      "hit": false,
      "t": 53317.25437499992,
      "d": 598.2899999999936,
      "v": 75
    },
    {
      "midi": 60,
      "hit": false,
      "t": 53327.93812499991,
      "d": 691.7728124999994,
      "v": 66
    },
    {
      "midi": 55,
      "hit": false,
      "t": 54115.86468749991,
      "d": 267.09375,
      "v": 77
    },
    {
      "midi": 57,
      "hit": false,
      "t": 54396.31312499991,
      "d": 368.5893750000032,
      "v": 80
    },
    {
      "midi": 60,
      "hit": false,
      "t": 54764.90249999992,
      "d": 339.20906249999825,
      "v": 83
    },
    {
      "midi": 62,
      "hit": false,
      "t": 55120.13718749992,
      "d": 243.05531250000058,
      "v": 86
    },
    {
      "midi": 55,
      "hit": false,
      "t": 55384.55999999992,
      "d": 1148.503125000003,
      "v": 85
    },
    {
      "midi": 64,
      "hit": false,
      "t": 55384.55999999992,
      "d": 1151.174062500002,
      "v": 90
    },
    {
      "midi": 60,
      "hit": false,
      "t": 55384.55999999992,
      "d": 1167.199687500004,
      "v": 89
    },
    {
      "midi": 60,
      "hit": false,
      "t": 56669.28093749992,
      "d": 317.84156249999796,
      "v": 93
    },
    {
      "midi": 55,
      "hit": false,
      "t": 56669.28093749992,
      "d": 323.1834374999962,
      "v": 81
    },
    {
      "midi": 65,
      "hit": false,
      "t": 56671.95187499992,
      "d": 275.1065624999974,
      "v": 90
    },
    {
      "midi": 60,
      "hit": false,
      "t": 57053.89593749992,
      "d": 269.7646875000064,
      "v": 88
    },
    {
      "midi": 55,
      "hit": false,
      "t": 57056.56687499992,
      "d": 216.34593750000204,
      "v": 64
    },
    {
      "midi": 64,
      "hit": false,
      "t": 57056.56687499992,
      "d": 251.06812500000524,
      "v": 83
    },
    {
      "midi": 65,
      "hit": false,
      "t": 57430.498124999925,
      "d": 275.1065624999974,
      "v": 93
    },
    {
      "midi": 60,
      "hit": false,
      "t": 57430.498124999925,
      "d": 288.4612500000003,
      "v": 99
    },
    {
      "midi": 57,
      "hit": false,
      "t": 57433.169062499925,
      "d": 285.79031250000116,
      "v": 81
    },
    {
      "midi": 60,
      "hit": false,
      "t": 57809.771249999925,
      "d": 344.5509374999965,
      "v": 90
    },
    {
      "midi": 57,
      "hit": false,
      "t": 57812.442187499924,
      "d": 331.1962500000009,
      "v": 79
    },
    {
      "midi": 53,
      "hit": false,
      "t": 57812.442187499924,
      "d": 349.89281249999476,
      "v": 77
    },
    {
      "midi": 57,
      "hit": false,
      "t": 58191.71531249992,
      "d": 221.6878125000003,
      "v": 83
    },
    {
      "midi": 53,
      "hit": false,
      "t": 58194.386249999916,
      "d": 200.3203125,
      "v": 72
    },
    {
      "midi": 57,
      "hit": false,
      "t": 58464.150937499915,
      "d": 301.8159375000032,
      "v": 96
    },
    {
      "midi": 62,
      "hit": false,
      "t": 58466.821874999914,
      "d": 283.11937500000204,
      "v": 93
    },
    {
      "midi": 53,
      "hit": false,
      "t": 58466.821874999914,
      "d": 285.79031250000116,
      "v": 79
    },
    {
      "midi": 57,
      "hit": false,
      "t": 58846.09499999992,
      "d": 293.80312499999854,
      "v": 90
    },
    {
      "midi": 53,
      "hit": false,
      "t": 58848.76593749992,
      "d": 267.09375,
      "v": 72
    },
    {
      "midi": 60,
      "hit": false,
      "t": 58848.76593749992,
      "d": 272.43562499999825,
      "v": 96
    },
    {
      "midi": 57,
      "hit": false,
      "t": 59225.36812499992,
      "d": 243.0553124999933,
      "v": 90
    },
    {
      "midi": 53,
      "hit": false,
      "t": 59228.03906249992,
      "d": 224.35874999999942,
      "v": 79
    },
    {
      "midi": 62,
      "hit": false,
      "t": 59228.03906249992,
      "d": 235.04249999999593,
      "v": 99
    },
    {
      "midi": 64,
      "hit": false,
      "t": 59500.47468749991,
      "d": 1639.955624999995,
      "v": 69
    },
    {
      "midi": 60,
      "hit": false,
      "t": 59500.47468749991,
      "d": 1653.3103124999907,
      "v": 81
    },
    {
      "midi": 55,
      "hit": false,
      "t": 59505.81656249991,
      "d": 1639.955624999995,
      "v": 70
    },
    {
      "midi": 60,
      "hit": false,
      "t": 61279.319062499904,
      "d": 152.2434374999939,
      "v": 85
    },
    {
      "midi": 55,
      "hit": false,
      "t": 61281.9899999999,
      "d": 168.26906249999593,
      "v": 77
    },
    {
      "midi": 64,
      "hit": false,
      "t": 61284.6609374999,
      "d": 114.85031249999884,
      "v": 72
    },
    {
      "midi": 60,
      "hit": false,
      "t": 61557.0965624999,
      "d": 699.7856250000041,
      "v": 75
    },
    {
      "midi": 53,
      "hit": false,
      "t": 61559.7674999999,
      "d": 552.8840625000012,
      "v": 77
    },
    {
      "midi": 57,
      "hit": false,
      "t": 61565.1093749999,
      "d": 678.4181250000038,
      "v": 73
    },
    {
      "midi": 55,
      "hit": false,
      "t": 62318.31374999991,
      "d": 248.39718749999884,
      "v": 96
    },
    {
      "midi": 57,
      "hit": false,
      "t": 62593.420312499904,
      "d": 379.2731249999997,
      "v": 88
    },
    {
      "midi": 62,
      "hit": false,
      "t": 62967.351562499905,
      "d": 288.4612500000003,
      "v": 88
    },
    {
      "midi": 60,
      "hit": false,
      "t": 63306.560624999904,
      "d": 357.9056249999994,
      "v": 90
    },
    {
      "midi": 60,
      "hit": false,
      "t": 63846.0899999999,
      "d": 1327.455937499988,
      "v": 89
    },
    {
      "midi": 55,
      "hit": false,
      "t": 63851.4318749999,
      "d": 1319.4431249999907,
      "v": 79
    },
    {
      "midi": 64,
      "hit": false,
      "t": 63854.1028124999,
      "d": 1140.490312499991,
      "v": 86
    },
    {
      "midi": 72,
      "hit": false,
      "t": 64353.568124999896,
      "d": 283.11937500000204,
      "v": 106
    },
    {
      "midi": 84,
      "hit": false,
      "t": 64358.909999999894,
      "d": 272.43562500000553,
      "v": 96
    },
    {
      "midi": 83,
      "hit": false,
      "t": 64617.9909374999,
      "d": 360.57656249999854,
      "v": 90
    },
    {
      "midi": 71,
      "hit": false,
      "t": 64617.9909374999,
      "d": 363.2474999999977,
      "v": 103
    },
    {
      "midi": 76,
      "hit": false,
      "t": 64989.25124999989,
      "d": 373.9312499999942,
      "v": 93
    },
    {
      "midi": 64,
      "hit": false,
      "t": 64997.26406249989,
      "d": 186.9656249999971,
      "v": 106
    },
    {
      "midi": 69,
      "hit": false,
      "t": 65379.20812499989,
      "d": 1012.2853124999965,
      "v": 110
    },
    {
      "midi": 81,
      "hit": false,
      "t": 65397.90468749989,
      "d": 982.9049999999988,
      "v": 90
    },
    {
      "midi": 72,
      "hit": false,
      "t": 66418.20281249989,
      "d": 243.05531250000058,
      "v": 90
    },
    {
      "midi": 60,
      "hit": false,
      "t": 66420.8737499999,
      "d": 224.35874999999942,
      "v": 106
    },
    {
      "midi": 67,
      "hit": false,
      "t": 66677.28374999989,
      "d": 352.56375000000116,
      "v": 110
    },
    {
      "midi": 79,
      "hit": false,
      "t": 66679.95468749989,
      "d": 395.29875000000175,
      "v": 90
    },
    {
      "midi": 65,
      "hit": false,
      "t": 67056.5568749999,
      "d": 379.273125000007,
      "v": 103
    },
    {
      "midi": 77,
      "hit": false,
      "t": 67072.58249999989,
      "d": 403.3115625000064,
      "v": 93
    },
    {
      "midi": 64,
      "hit": false,
      "t": 67446.5137499999,
      "d": 261.75187500000175,
      "v": 106
    },
    {
      "midi": 76,
      "hit": false,
      "t": 67467.88124999989,
      "d": 1196.5800000000454,
      "v": 81
    },
    {
      "midi": 60,
      "hit": false,
      "t": 67702.9237499999,
      "d": 552.8840625000157,
      "v": 96
    },
    {
      "midi": 55,
      "hit": false,
      "t": 67710.9365624999,
      "d": 536.8584375000064,
      "v": 79
    },
    {
      "midi": 64,
      "hit": false,
      "t": 67710.9365624999,
      "d": 542.2003125000047,
      "v": 90
    },
    {
      "midi": 60,
      "hit": false,
      "t": 68426.74781249992,
      "d": 227.02968750002037,
      "v": 99
    },
    {
      "midi": 64,
      "hit": false,
      "t": 68429.41874999992,
      "d": 178.95281250000698,
      "v": 83
    },
    {
      "midi": 55,
      "hit": false,
      "t": 68432.08968749993,
      "d": 221.68781250000757,
      "v": 81
    },
    {
      "midi": 62,
      "hit": false,
      "t": 68731.23468749993,
      "d": 269.7646875000064,
      "v": 88
    },
    {
      "midi": 59,
      "hit": false,
      "t": 68733.90562499994,
      "d": 280.4484375000029,
      "v": 88
    },
    {
      "midi": 55,
      "hit": false,
      "t": 68736.57656249995,
      "d": 269.76468749999185,
      "v": 66
    },
    {
      "midi": 60,
      "hit": false,
      "t": 69105.16593749994,
      "d": 272.4356250000128,
      "v": 96
    },
    {
      "midi": 64,
      "hit": false,
      "t": 69113.17874999995,
      "d": 237.71343750000233,
      "v": 90
    },
    {
      "midi": 55,
      "hit": false,
      "t": 69115.84968749995,
      "d": 269.7646875000064,
      "v": 72
    },
    {
      "midi": 62,
      "hit": false,
      "t": 69463.07156249996,
      "d": 141.55968750000466,
      "v": 77
    },
    {
      "midi": 55,
      "hit": false,
      "t": 69463.07156249996,
      "d": 157.58531250001397,
      "v": 56
    },
    {
      "midi": 59,
      "hit": false,
      "t": 69468.41343749996,
      "d": 144.23062500001106,
      "v": 77
    },
    {
      "midi": 57,
      "hit": false,
      "t": 69746.19093749997,
      "d": 833.3325000000041,
      "v": 68
    },
    {
      "midi": 60,
      "hit": false,
      "t": 69751.53281249997,
      "d": 833.3325000000041,
      "v": 70
    },
    {
      "midi": 53,
      "hit": false,
      "t": 69756.87468749996,
      "d": 809.2940625000047,
      "v": 65
    },
    {
      "midi": 57,
      "hit": false,
      "t": 70755.80531249997,
      "d": 128.20500000000175,
      "v": 66
    },
    {
      "midi": 60,
      "hit": false,
      "t": 70763.81812499998,
      "d": 136.21781249999185,
      "v": 63
    },
    {
      "midi": 53,
      "hit": false,
      "t": 70766.48906249998,
      "d": 106.83749999999418,
      "v": 60
    },
    {
      "midi": 57,
      "hit": false,
      "t": 71009.54437499997,
      "d": 173.61093749999418,
      "v": 72
    },
    {
      "midi": 60,
      "hit": false,
      "t": 71012.21531249997,
      "d": 138.88874999999825,
      "v": 77
    },
    {
      "midi": 53,
      "hit": false,
      "t": 71022.89906249997,
      "d": 144.2306249999965,
      "v": 60
    },
    {
      "midi": 59,
      "hit": false,
      "t": 71295.33468749997,
      "d": 176.28187500001513,
      "v": 96
    },
    {
      "midi": 53,
      "hit": false,
      "t": 71298.00562499998,
      "d": 149.5725000000093,
      "v": 69
    },
    {
      "midi": 62,
      "hit": false,
      "t": 71300.67656249998,
      "d": 157.58531249999942,
      "v": 85
    },
    {
      "midi": 53,
      "hit": false,
      "t": 71538.38999999998,
      "d": 90.81187499999942,
      "v": 59
    },
    {
      "midi": 57,
      "hit": false,
      "t": 71541.06093749999,
      "d": 104.16656249998778,
      "v": 75
    },
    {
      "midi": 60,
      "hit": false,
      "t": 71546.40281249999,
      "d": 109.50843749998603,
      "v": 88
    },
    {
      "midi": 60,
      "hit": false,
      "t": 71792.12906249998,
      "d": 1378.203749999986,
      "v": 96
    },
    {
      "midi": 64,
      "hit": false,
      "t": 71797.47093749998,
      "d": 1332.7978124999936,
      "v": 85
    },
    {
      "midi": 55,
      "hit": false,
      "t": 71797.47093749998,
      "d": 1356.836249999993,
      "v": 79
    },
    {
      "midi": 62,
      "hit": false,
      "t": 73317.23437499997,
      "d": 299.1450000000186,
      "v": 85
    },
    {
      "midi": 60,
      "hit": false,
      "t": 73317.23437499997,
      "d": 301.81593750002503,
      "v": 90
    },
    {
      "midi": 55,
      "hit": false,
      "t": 73319.90531249998,
      "d": 293.8031250000058,
      "v": 77
    },
    {
      "midi": 55,
      "hit": false,
      "t": 73715.2040625,
      "d": 280.44843750001746,
      "v": 73
    },
    {
      "midi": 60,
      "hit": false,
      "t": 73717.875,
      "d": 245.72625000000698,
      "v": 96
    },
    {
      "midi": 62,
      "hit": false,
      "t": 73720.5459375,
      "d": 237.71343750000233,
      "v": 88
    },
    {
      "midi": 57,
      "hit": false,
      "t": 74078.4515625,
      "d": 531.5165625000081,
      "v": 85
    },
    {
      "midi": 53,
      "hit": false,
      "t": 74083.7934375,
      "d": 558.2259375000285,
      "v": 68
    },
    {
      "midi": 60,
      "hit": false,
      "t": 74091.80625000001,
      "d": 584.9353125000198,
      "v": 72
    },
    {
      "midi": 57,
      "hit": false,
      "t": 74612.63906250002,
      "d": 26.70937500000582,
      "v": 88
    },
    {
      "midi": 60,
      "hit": false,
      "t": 74874.39093750002,
      "d": 427.34999999999127,
      "v": 81
    },
    {
      "midi": 62,
      "hit": false,
      "t": 75272.36062500002,
      "d": 331.1962499999936,
      "v": 99
    },
    {
      "midi": 64,
      "hit": false,
      "t": 75638.2790625,
      "d": 256.4100000000035,
      "v": 93
    },
    {
      "midi": 64,
      "hit": false,
      "t": 75897.36000000002,
      "d": 10.683749999996508,
      "v": 85
    },
    {
      "midi": 55,
      "hit": false,
      "t": 75897.36000000002,
      "d": 897.4349999999977,
      "v": 85
    },
    {
      "midi": 60,
      "hit": false,
      "t": 75897.36000000002,
      "d": 905.4478125000023,
      "v": 99
    },
    {
      "midi": 59,
      "hit": false,
      "t": 76912.31625000002,
      "d": 892.093125000014,
      "v": 90
    },
    {
      "midi": 55,
      "hit": false,
      "t": 76914.98718750002,
      "d": 889.4221875000076,
      "v": 73
    },
    {
      "midi": 62,
      "hit": false,
      "t": 76917.65812500003,
      "d": 862.7128125000017,
      "v": 85
    },
    {
      "midi": 57,
      "hit": false,
      "t": 77937.95625000003,
      "d": 1736.109375,
      "v": 90
    },
    {
      "midi": 60,
      "hit": false,
      "t": 77943.29812500003,
      "d": 1693.3743749999994,
      "v": 81
    },
    {
      "midi": 52,
      "hit": false,
      "t": 77945.96906250004,
      "d": 1704.058124999996,
      "v": 81
    },
    {
      "midi": 62,
      "hit": false,
      "t": 79989.23625000003,
      "d": 795.9393750000163,
      "v": 96
    },
    {
      "midi": 55,
      "hit": false,
      "t": 79991.90718750004,
      "d": 777.2428125000006,
      "v": 88
    },
    {
      "midi": 59,
      "hit": false,
      "t": 79997.24906250004,
      "d": 785.2556250000052,
      "v": 93
    },
    {
      "midi": 55,
      "hit": false,
      "t": 80771.82093750004,
      "d": 16.025625000009313,
      "v": 99
    },
    {
      "midi": 67,
      "hit": false,
      "t": 81044.25656250006,
      "d": 309.8287500000006,
      "v": 115
    },
    {
      "midi": 62,
      "hit": false,
      "t": 81399.49125000006,
      "d": 352.56375000000116,
      "v": 110
    },
    {
      "midi": 57,
      "hit": false,
      "t": 81773.42250000006,
      "d": 272.43562499999825,
      "v": 93
    },
    {
      "midi": 59,
      "hit": false,
      "t": 82072.56750000006,
      "d": 558.2259374999994,
      "v": 106
    },
    {
      "midi": 59,
      "hit": false,
      "t": 82815.08812500007,
      "d": 269.76468749999185,
      "v": 96
    },
    {
      "midi": 60,
      "hit": false,
      "t": 83079.51093750006,
      "d": 261.75187500000175,
      "v": 103
    },
    {
      "midi": 59,
      "hit": false,
      "t": 83434.74562500007,
      "d": 528.8456250000017,
      "v": 88
    },
    {
      "midi": 62,
      "hit": false,
      "t": 83440.08750000007,
      "d": 542.2003125000047,
      "v": 90
    },
    {
      "midi": 67,
      "hit": false,
      "t": 83442.75843750007,
      "d": 534.1875,
      "v": 93
    },
    {
      "midi": 65,
      "hit": false,
      "t": 84102.48000000007,
      "d": 1241.9859375000087,
      "v": 93
    },
    {
      "midi": 60,
      "hit": false,
      "t": 84102.48000000007,
      "d": 1244.6568750000151,
      "v": 103
    },
    {
      "midi": 57,
      "hit": false,
      "t": 84107.82187500007,
      "d": 1228.6312500000058,
      "v": 93
    },
    {
      "midi": 53,
      "hit": false,
      "t": 85376.51718750008,
      "d": 272.43562499999825,
      "v": 85
    },
    {
      "midi": 57,
      "hit": false,
      "t": 85624.91437500008,
      "d": 269.76468749999185,
      "v": 93
    },
    {
      "midi": 67,
      "hit": false,
      "t": 85889.33718750007,
      "d": 507.4781249999942,
      "v": 106
    },
    {
      "midi": 53,
      "hit": false,
      "t": 86410.17000000007,
      "d": 304.4868750000023,
      "v": 73
    },
    {
      "midi": 57,
      "hit": false,
      "t": 86669.25093750007,
      "d": 256.41000000001804,
      "v": 99
    },
    {
      "midi": 53,
      "hit": false,
      "t": 86922.99000000008,
      "d": 93.48281250000582,
      "v": 88
    },
    {
      "midi": 65,
      "hit": false,
      "t": 87040.51125000008,
      "d": 320.5124999999971,
      "v": 93
    },
    {
      "midi": 64,
      "hit": false,
      "t": 87414.44250000008,
      "d": 261.75187500000175,
      "v": 88
    },
    {
      "midi": 62,
      "hit": false,
      "t": 87689.54906250008,
      "d": 405.98249999999825,
      "v": 99
    },
    {
      "midi": 55,
      "hit": false,
      "t": 88205.04000000008,
      "d": 892.0931249999994,
      "v": 79
    },
    {
      "midi": 60,
      "hit": false,
      "t": 88205.04000000008,
      "d": 897.4349999999977,
      "v": 99
    },
    {
      "midi": 64,
      "hit": false,
      "t": 88205.04000000008,
      "d": 900.1059375000041,
      "v": 90
    },
    {
      "midi": 60,
      "hit": false,
      "t": 89222.66718750009,
      "d": 387.2859374999971,
      "v": 90
    },
    {
      "midi": 55,
      "hit": false,
      "t": 89228.00906250009,
      "d": 371.2603125000023,
      "v": 79
    },
    {
      "midi": 64,
      "hit": false,
      "t": 89228.00906250009,
      "d": 376.6021875000006,
      "v": 85
    },
    {
      "midi": 60,
      "hit": false,
      "t": 89735.48718750008,
      "d": 117.52125000000524,
      "v": 83
    },
    {
      "midi": 55,
      "hit": false,
      "t": 89738.15812500009,
      "d": 98.82468750000407,
      "v": 61
    },
    {
      "midi": 64,
      "hit": false,
      "t": 89743.50000000009,
      "d": 112.17937500000698,
      "v": 69
    },
    {
      "midi": 64,
      "hit": false,
      "t": 89999.91000000009,
      "d": 170.94000000000233,
      "v": 81
    },
    {
      "midi": 55,
      "hit": false,
      "t": 90005.25187500009,
      "d": 133.546875,
      "v": 72
    },
    {
      "midi": 60,
      "hit": false,
      "t": 90005.25187500009,
      "d": 170.94000000000233,
      "v": 88
    },
    {
      "midi": 57,
      "hit": false,
      "t": 90256.3200000001,
      "d": 705.1275000000023,
      "v": 83
    },
    {
      "midi": 60,
      "hit": false,
      "t": 90256.3200000001,
      "d": 721.1531249999971,
      "v": 85
    },
    {
      "midi": 65,
      "hit": false,
      "t": 90256.3200000001,
      "d": 726.4949999999953,
      "v": 81
    },
    {
      "midi": 57,
      "hit": false,
      "t": 91025.55000000009,
      "d": 264.42281250000815,
      "v": 79
    },
    {
      "midi": 60,
      "hit": false,
      "t": 91025.55000000009,
      "d": 277.77750000001106,
      "v": 96
    },
    {
      "midi": 67,
      "hit": false,
      "t": 91025.55000000009,
      "d": 315.1706250000134,
      "v": 110
    },
    {
      "midi": 53,
      "hit": false,
      "t": 91281.9600000001,
      "d": 128.2050000000163,
      "v": 99
    },
    {
      "midi": 60,
      "hit": false,
      "t": 91410.16500000011,
      "d": 251.06812500000524,
      "v": 93
    },
    {
      "midi": 57,
      "hit": false,
      "t": 91410.16500000011,
      "d": 507.4781249999942,
      "v": 81
    },
    {
      "midi": 65,
      "hit": false,
      "t": 91410.16500000011,
      "d": 803.9521874999919,
      "v": 96
    },
    {
      "midi": 60,
      "hit": false,
      "t": 91792.10906250011,
      "d": 251.0681249999907,
      "v": 96
    },
    {
      "midi": 57,
      "hit": false,
      "t": 92051.1900000001,
      "d": 261.75187500000175,
      "v": 88
    },
    {
      "midi": 60,
      "hit": false,
      "t": 92296.9162500001,
      "d": 616.9865625000093,
      "v": 103
    },
    {
      "midi": 64,
      "hit": false,
      "t": 92299.5871875001,
      "d": 606.3028124999983,
      "v": 99
    },
    {
      "midi": 55,
      "hit": false,
      "t": 92302.25812500011,
      "d": 611.6446874999965,
      "v": 83
    },
    {
      "midi": 60,
      "hit": false,
      "t": 93063.4753125001,
      "d": 395.29875000000175,
      "v": 96
    },
    {
      "midi": 64,
      "hit": false,
      "t": 93068.8171875001,
      "d": 373.93125000000873,
      "v": 88
    },
    {
      "midi": 55,
      "hit": false,
      "t": 93071.4881250001,
      "d": 387.2859374999971,
      "v": 88
    },
    {
      "midi": 60,
      "hit": false,
      "t": 93578.9662500001,
      "d": 641.0250000000087,
      "v": 96
    },
    {
      "midi": 55,
      "hit": false,
      "t": 93581.6371875001,
      "d": 643.6959375000006,
      "v": 81
    },
    {
      "midi": 64,
      "hit": false,
      "t": 93584.30812500011,
      "d": 576.9225000000006,
      "v": 85
    },
    {
      "midi": 57,
      "hit": false,
      "t": 94356.2090625001,
      "d": 622.3284375000076,
      "v": 103
    },
    {
      "midi": 60,
      "hit": false,
      "t": 94358.8800000001,
      "d": 584.9353125000052,
      "v": 103
    },
    {
      "midi": 53,
      "hit": false,
      "t": 94358.8800000001,
      "d": 600.9609375,
      "v": 90
    },
    {
      "midi": 59,
      "hit": false,
      "t": 95128.1100000001,
      "d": 924.1443750000035,
      "v": 106
    },
    {
      "midi": 55,
      "hit": false,
      "t": 95130.78093750011,
      "d": 902.7768749999959,
      "v": 93
    },
    {
      "midi": 62,
      "hit": false,
      "t": 95130.78093750011,
      "d": 932.1571874999936,
      "v": 99
    },
    {
      "midi": 60,
      "hit": false,
      "t": 96410.1600000001,
      "d": 878.7384375000111,
      "v": 106
    },
    {
      "midi": 64,
      "hit": false,
      "t": 96412.83093750011,
      "d": 860.0418750000099,
      "v": 96
    },
    {
      "midi": 55,
      "hit": false,
      "t": 96420.84375000012,
      "d": 878.7384374999965,
      "v": 88
    },
    {
      "midi": 62,
      "hit": false,
      "t": 97414.43250000011,
      "d": 870.7256250000064,
      "v": 96
    },
    {
      "midi": 59,
      "hit": false,
      "t": 97417.10343750012,
      "d": 894.7640625000058,
      "v": 96
    },
    {
      "midi": 55,
      "hit": false,
      "t": 97422.44531250012,
      "d": 892.093125000014,
      "v": 85
    },
    {
      "midi": 57,
      "hit": false,
      "t": 98456.09812500014,
      "d": 940.1699999999983,
      "v": 96
    },
    {
      "midi": 60,
      "hit": false,
      "t": 98461.44000000013,
      "d": 921.4734374999971,
      "v": 90
    },
    {
      "midi": 52,
      "hit": false,
      "t": 98461.44000000013,
      "d": 940.1699999999983,
      "v": 83
    },
    {
      "midi": 57,
      "hit": false,
      "t": 99489.75093750012,
      "d": 886.7512500000012,
      "v": 88
    },
    {
      "midi": 52,
      "hit": false,
      "t": 99495.09281250012,
      "d": 827.9906250000058,
      "v": 73
    },
    {
      "midi": 60,
      "hit": false,
      "t": 99497.76375000013,
      "d": 886.7512500000012,
      "v": 83
    },
    {
      "midi": 59,
      "hit": false,
      "t": 100504.70718750013,
      "d": 646.3668749999924,
      "v": 96
    },
    {
      "midi": 55,
      "hit": false,
      "t": 100510.04906250013,
      "d": 641.0249999999942,
      "v": 83
    },
    {
      "midi": 62,
      "hit": false,
      "t": 100510.04906250013,
      "d": 649.0378124999988,
      "v": 96
    },
    {
      "midi": 55,
      "hit": false,
      "t": 101287.29187500013,
      "d": 235.04249999999593,
      "v": 103
    },
    {
      "midi": 67,
      "hit": false,
      "t": 101287.29187500013,
      "d": 253.7390624999971,
      "v": 90
    },
    {
      "midi": 69,
      "hit": false,
      "t": 101541.03093750012,
      "d": 248.39718749999884,
      "v": 119
    },
    {
      "midi": 81,
      "hit": false,
      "t": 101570.41125000012,
      "d": 291.1321874999994,
      "v": 103
    },
    {
      "midi": 67,
      "hit": false,
      "t": 101800.11187500012,
      "d": 106.83750000000873,
      "v": 90
    },
    {
      "midi": 55,
      "hit": false,
      "t": 101802.78281250013,
      "d": 128.20500000000175,
      "v": 83
    },
    {
      "midi": 79,
      "hit": false,
      "t": 101914.96218750013,
      "d": 397.96968750000815,
      "v": 93
    },
    {
      "midi": 67,
      "hit": false,
      "t": 101925.64593750013,
      "d": 381.94406249999884,
      "v": 106
    },
    {
      "midi": 74,
      "hit": false,
      "t": 102310.26093750013,
      "d": 448.71749999999884,
      "v": 88
    },
    {
      "midi": 62,
      "hit": false,
      "t": 102323.61562500014,
      "d": 544.8712499999965,
      "v": 103
    },
    {
      "midi": 67,
      "hit": false,
      "t": 102836.43562500013,
      "d": 205.66218749999825,
      "v": 99
    },
    {
      "midi": 55,
      "hit": false,
      "t": 102855.13218750013,
      "d": 227.02968750000582,
      "v": 103
    },
    {
      "midi": 69,
      "hit": false,
      "t": 103079.49093750013,
      "d": 272.4356250000128,
      "v": 96
    },
    {
      "midi": 57,
      "hit": false,
      "t": 103090.17468750014,
      "d": 299.1450000000041,
      "v": 93
    },
    {
      "midi": 71,
      "hit": false,
      "t": 103346.58468750014,
      "d": 480.7687500000029,
      "v": 96
    },
    {
      "midi": 59,
      "hit": false,
      "t": 103362.61031250014,
      "d": 478.09781250001106,
      "v": 103
    },
    {
      "midi": 74,
      "hit": false,
      "t": 103848.72093750015,
      "d": 630.3412499999977,
      "v": 88
    },
    {
      "midi": 62,
      "hit": false,
      "t": 103856.73375000016,
      "d": 587.6062499999971,
      "v": 95
    },
    {
      "midi": 65,
      "hit": false,
      "t": 104615.28000000016,
      "d": 830.6615624999977,
      "v": 96
    },
    {
      "midi": 57,
      "hit": false,
      "t": 104615.28000000016,
      "d": 852.0290624999907,
      "v": 88
    },
    {
      "midi": 60,
      "hit": false,
      "t": 104615.28000000016,
      "d": 876.0674999999901,
      "v": 103
    },
    {
      "midi": 41,
      "hit": false,
      "t": 104615.28000000016,
      "d": 993.5887499999953,
      "v": 90
    },
    {
      "midi": 60,
      "hit": false,
      "t": 105622.22343750016,
      "d": 550.2131250000093,
      "v": 93
    },
    {
      "midi": 64,
      "hit": false,
      "t": 105630.23625000016,
      "d": 502.1362500000105,
      "v": 85
    },
    {
      "midi": 55,
      "hit": false,
      "t": 105630.23625000016,
      "d": 560.8968750000058,
      "v": 88
    },
    {
      "midi": 40,
      "hit": false,
      "t": 105632.90718750017,
      "d": 753.2043750000012,
      "v": 93
    },
    {
      "midi": 62,
      "hit": false,
      "t": 106396.79531250017,
      "d": 990.9178125000035,
      "v": 99
    },
    {
      "midi": 57,
      "hit": false,
      "t": 106396.79531250017,
      "d": 993.5887500000099,
      "v": 106
    },
    {
      "midi": 53,
      "hit": false,
      "t": 106402.13718750016,
      "d": 974.8921875000087,
      "v": 99
    },
    {
      "midi": 38,
      "hit": false,
      "t": 106415.49187500017,
      "d": 1252.6696875000052,
      "v": 90
    },
    {
      "midi": 43,
      "hit": false,
      "t": 107681.51625000018,
      "d": 948.1828125000029,
      "v": 90
    },
    {
      "midi": 67,
      "hit": false,
      "t": 107684.18718750018,
      "d": 897.4349999999977,
      "v": 83
    },
    {
      "midi": 59,
      "hit": false,
      "t": 107689.52906250018,
      "d": 865.3837499999936,
      "v": 83
    },
    {
      "midi": 62,
      "hit": false,
      "t": 107689.52906250018,
      "d": 897.4349999999977,
      "v": 88
    },
    {
      "midi": 53,
      "hit": false,
      "t": 108717.84000000017,
      "d": 130.8759374999936,
      "v": 109
    },
    {
      "midi": 55,
      "hit": false,
      "t": 108848.71593750016,
      "d": 130.87593750000815,
      "v": 106
    },
    {
      "midi": 60,
      "hit": false,
      "t": 108952.88250000017,
      "d": 1693.3743749999994,
      "v": 81
    },
    {
      "midi": 64,
      "hit": false,
      "t": 108976.92093750017,
      "d": 1610.5753125000047,
      "v": 110
    },
    {
      "midi": 55,
      "hit": false,
      "t": 108998.28843750017,
      "d": 1704.058124999996,
      "v": 57
    },
    {
      "midi": 67,
      "hit": false,
      "t": 111022.85906250017,
      "d": 379.27312499999243,
      "v": 99
    },
    {
      "midi": 79,
      "hit": false,
      "t": 111036.21375000017,
      "d": 331.1962499999936,
      "v": 93
    },
    {
      "midi": 65,
      "hit": false,
      "t": 111407.47406250016,
      "d": 355.23468750000757,
      "v": 83
    },
    {
      "midi": 77,
      "hit": false,
      "t": 111410.14500000016,
      "d": 360.5765625000058,
      "v": 90
    },
    {
      "midi": 60,
      "hit": false,
      "t": 111792.08906250016,
      "d": 373.93125000000873,
      "v": 106
    },
    {
      "midi": 72,
      "hit": false,
      "t": 111800.10187500017,
      "d": 381.9440625000134,
      "v": 85
    },
    {
      "midi": 57,
      "hit": false,
      "t": 112174.03312500018,
      "d": 336.5381250000064,
      "v": 81
    },
    {
      "midi": 69,
      "hit": false,
      "t": 112198.07156250018,
      "d": 323.1834375000035,
      "v": 85
    },
    {
      "midi": 64,
      "hit": false,
      "t": 112561.31906250017,
      "d": 1159.1868749999994,
      "v": 93
    },
    {
      "midi": 55,
      "hit": false,
      "t": 112563.99000000018,
      "d": 1159.1868749999994,
      "v": 82
    },
    {
      "midi": 60,
      "hit": false,
      "t": 112569.33187500018,
      "d": 1268.6953125,
      "v": 61
    },
    {
      "midi": 55,
      "hit": false,
      "t": 114102.45000000017,
      "d": 243.05531250000058,
      "v": 85
    },
    {
      "midi": 62,
      "hit": false,
      "t": 114358.86000000018,
      "d": 237.71343750000233,
      "v": 90
    },
    {
      "midi": 55,
      "hit": false,
      "t": 114612.59906250017,
      "d": 106.83749999999418,
      "v": 79
    },
    {
      "midi": 60,
      "hit": false,
      "t": 114746.14593750017,
      "d": 846.6871875000215,
      "v": 90
    },
    {
      "midi": 53,
      "hit": false,
      "t": 114751.48781250017,
      "d": 787.9265625000116,
      "v": 60
    },
    {
      "midi": 57,
      "hit": false,
      "t": 114754.15875000018,
      "d": 793.2684375000099,
      "v": 54
    },
    {
      "midi": 55,
      "hit": false,
      "t": 115640.91000000019,
      "d": 277.7774999999965,
      "v": 83
    },
    {
      "midi": 57,
      "hit": false,
      "t": 115899.99093750019,
      "d": 360.5765625000058,
      "v": 85
    },
    {
      "midi": 60,
      "hit": false,
      "t": 116281.93500000019,
      "d": 379.273125000007,
      "v": 68
    },
    {
      "midi": 62,
      "hit": false,
      "t": 116666.55000000019,
      "d": 269.7646875000064,
      "v": 88
    },
    {
      "midi": 55,
      "hit": false,
      "t": 116922.9600000002,
      "d": 10.683749999996508,
      "v": 61
    },
    {
      "midi": 60,
      "hit": false,
      "t": 116922.9600000002,
      "d": 1808.2246875000128,
      "v": 88
    },
    {
      "midi": 64,
      "hit": false,
      "t": 116922.9600000002,
      "d": 1840.2759375000169,
      "v": 62
    },
    {
      "midi": 55,
      "hit": false,
      "t": 116936.3146875002,
      "d": 1762.8187500000058,
      "v": 90
    },
    {
      "midi": 57,
      "hit": false,
      "t": 118952.87250000022,
      "d": 649.0378124999988,
      "v": 83
    },
    {
      "midi": 53,
      "hit": false,
      "t": 118958.21437500021,
      "d": 598.2899999999936,
      "v": 75
    },
    {
      "midi": 60,
      "hit": false,
      "t": 118968.89812500021,
      "d": 691.7728124999994,
      "v": 66
    },
    {
      "midi": 55,
      "hit": false,
      "t": 119756.82468750021,
      "d": 267.09375,
      "v": 77
    },
    {
      "midi": 57,
      "hit": false,
      "t": 120037.27312500021,
      "d": 368.5893749999959,
      "v": 80
    },
    {
      "midi": 60,
      "hit": false,
      "t": 120405.8625000002,
      "d": 339.20906249999825,
      "v": 83
    },
    {
      "midi": 62,
      "hit": false,
      "t": 120761.0971875002,
      "d": 243.05531250000058,
      "v": 86
    },
    {
      "midi": 64,
      "hit": false,
      "t": 121025.5200000002,
      "d": 622.328437499993,
      "v": 93
    },
    {
      "midi": 55,
      "hit": false,
      "t": 121025.5200000002,
      "d": 624.9993749999994,
      "v": 81
    },
    {
      "midi": 60,
      "hit": false,
      "t": 121025.5200000002,
      "d": 739.8496874999983,
      "v": 96
    },
    {
      "midi": 55,
      "hit": false,
      "t": 121805.43375000019,
      "d": 130.8759374999936,
      "v": 88
    },
    {
      "midi": 62,
      "hit": false,
      "t": 122037.80531250018,
      "d": 267.09375,
      "v": 83
    },
    {
      "midi": 55,
      "hit": false,
      "t": 122040.47625000018,
      "d": 277.7774999999965,
      "v": 81
    },
    {
      "midi": 59,
      "hit": false,
      "t": 122040.47625000018,
      "d": 280.4484375000029,
      "v": 90
    },
    {
      "midi": 60,
      "hit": false,
      "t": 122414.40750000019,
      "d": 261.7518750000163,
      "v": 96
    },
    {
      "midi": 55,
      "hit": false,
      "t": 122417.0784375002,
      "d": 256.4100000000035,
      "v": 73
    },
    {
      "midi": 64,
      "hit": false,
      "t": 122425.0912500002,
      "d": 200.3203125,
      "v": 83
    },
    {
      "midi": 55,
      "hit": false,
      "t": 122791.0096875002,
      "d": 253.7390624999971,
      "v": 90
    },
    {
      "midi": 60,
      "hit": false,
      "t": 122791.0096875002,
      "d": 253.7390624999971,
      "v": 106
    },
    {
      "midi": 57,
      "hit": false,
      "t": 123098.1675000002,
      "d": 614.3156250000029,
      "v": 99
    },
    {
      "midi": 53,
      "hit": false,
      "t": 123098.1675000002,
      "d": 624.999375000014,
      "v": 85
    },
    {
      "midi": 60,
      "hit": false,
      "t": 123103.5093750002,
      "d": 616.9865625000093,
      "v": 93
    },
    {
      "midi": 57,
      "hit": false,
      "t": 123835.34625000022,
      "d": 192.30749999999534,
      "v": 93
    },
    {
      "midi": 67,
      "hit": false,
      "t": 124113.12375000022,
      "d": 299.1450000000041,
      "v": 81
    },
    {
      "midi": 57,
      "hit": false,
      "t": 124115.79468750022,
      "d": 288.461249999993,
      "v": 88
    },
    {
      "midi": 60,
      "hit": false,
      "t": 124115.79468750022,
      "d": 288.461249999993,
      "v": 96
    },
    {
      "midi": 65,
      "hit": false,
      "t": 124497.73875000022,
      "d": 248.39718749999884,
      "v": 90
    },
    {
      "midi": 60,
      "hit": false,
      "t": 124497.73875000022,
      "d": 269.7646875000064,
      "v": 99
    },
    {
      "midi": 57,
      "hit": false,
      "t": 124505.75156250023,
      "d": 243.05531250000058,
      "v": 85
    },
    {
      "midi": 60,
      "hit": false,
      "t": 124852.97343750023,
      "d": 240.38437499999418,
      "v": 99
    },
    {
      "midi": 57,
      "hit": false,
      "t": 124852.97343750023,
      "d": 243.05531250000058,
      "v": 93
    },
    {
      "midi": 55,
      "hit": false,
      "t": 125128.08000000023,
      "d": 10.683749999996508,
      "v": 61
    },
    {
      "midi": 60,
      "hit": false,
      "t": 125128.08000000023,
      "d": 1808.2246875000128,
      "v": 88
    },
    {
      "midi": 64,
      "hit": false,
      "t": 125128.08000000023,
      "d": 1840.2759375000169,
      "v": 62
    },
    {
      "midi": 55,
      "hit": false,
      "t": 125141.43468750024,
      "d": 1762.8187500000058,
      "v": 90
    },
    {
      "midi": 57,
      "hit": false,
      "t": 127157.99250000025,
      "d": 649.0378124999988,
      "v": 83
    },
    {
      "midi": 53,
      "hit": false,
      "t": 127163.33437500025,
      "d": 598.2899999999936,
      "v": 75
    },
    {
      "midi": 60,
      "hit": false,
      "t": 127174.01812500025,
      "d": 691.7728124999994,
      "v": 66
    },
    {
      "midi": 55,
      "hit": false,
      "t": 127961.94468750025,
      "d": 267.09375,
      "v": 77
    },
    {
      "midi": 57,
      "hit": false,
      "t": 128242.39312500025,
      "d": 368.5893749999959,
      "v": 80
    },
    {
      "midi": 60,
      "hit": false,
      "t": 128610.98250000025,
      "d": 339.20906249999825,
      "v": 83
    },
    {
      "midi": 62,
      "hit": false,
      "t": 128966.21718750024,
      "d": 243.05531250000058,
      "v": 86
    },
    {
      "midi": 60,
      "hit": false,
      "t": 129233.31093750024,
      "d": 737.1787500000064,
      "v": 96
    },
    {
      "midi": 55,
      "hit": false,
      "t": 129235.98187500025,
      "d": 662.3925000000017,
      "v": 79
    },
    {
      "midi": 64,
      "hit": false,
      "t": 129235.98187500025,
      "d": 705.1275000000023,
      "v": 65
    },
    {
      "midi": 55,
      "hit": false,
      "t": 129999.87000000024,
      "d": 355.234687499993,
      "v": 81
    },
    {
      "midi": 67,
      "hit": false,
      "t": 130507.34812500024,
      "d": 400.64062500001455,
      "v": 93
    },
    {
      "midi": 79,
      "hit": false,
      "t": 130512.69000000024,
      "d": 347.2218750000029,
      "v": 90
    },
    {
      "midi": 72,
      "hit": false,
      "t": 130891.96312500024,
      "d": 363.2475000000268,
      "v": 75
    },
    {
      "midi": 60,
      "hit": false,
      "t": 130899.97593750025,
      "d": 349.8928125000093,
      "v": 93
    },
    {
      "midi": 77,
      "hit": false,
      "t": 131279.24906250028,
      "d": 395.2987500000454,
      "v": 85
    },
    {
      "midi": 65,
      "hit": false,
      "t": 131284.5909375003,
      "d": 360.5765625000058,
      "v": 103
    },
    {
      "midi": 69,
      "hit": false,
      "t": 131669.20593750032,
      "d": 344.5509375000256,
      "v": 69
    },
    {
      "midi": 57,
      "hit": false,
      "t": 131669.20593750032,
      "d": 387.28593750004075,
      "v": 93
    },
    {
      "midi": 76,
      "hit": false,
      "t": 132048.47906250035,
      "d": 491.45250000001397,
      "v": 88
    },
    {
      "midi": 64,
      "hit": false,
      "t": 132056.49187500036,
      "d": 510.14906250001513,
      "v": 103
    },
    {
      "midi": 74,
      "hit": false,
      "t": 132555.95718750037,
      "d": 307.1578124999942,
      "v": 73
    },
    {
      "midi": 62,
      "hit": false,
      "t": 132563.97000000038,
      "d": 256.4100000000035,
      "v": 81
    },
    {
      "midi": 60,
      "hit": false,
      "t": 132823.05093750037,
      "d": 245.72625000000698,
      "v": 85
    },
    {
      "midi": 72,
      "hit": false,
      "t": 132825.72187500037,
      "d": 227.02968750000582,
      "v": 77
    },
    {
      "midi": 74,
      "hit": false,
      "t": 133074.1190625004,
      "d": 253.73906249998254,
      "v": 88
    },
    {
      "midi": 62,
      "hit": false,
      "t": 133076.7900000004,
      "d": 232.37156249998952,
      "v": 79
    },
    {
      "midi": 55,
      "hit": false,
      "t": 133333.2000000004,
      "d": 10.683749999996508,
      "v": 61
    },
    {
      "midi": 60,
      "hit": false,
      "t": 133333.2000000004,
      "d": 1808.2246874999837,
      "v": 88
    },
    {
      "midi": 64,
      "hit": false,
      "t": 133333.2000000004,
      "d": 1840.2759374999732,
      "v": 62
    },
    {
      "midi": 55,
      "hit": false,
      "t": 133346.55468750038,
      "d": 1762.8187500000058,
      "v": 90
    },
    {
      "midi": 57,
      "hit": false,
      "t": 135363.11250000037,
      "d": 649.0378125000279,
      "v": 83
    },
    {
      "midi": 53,
      "hit": false,
      "t": 135368.45437500038,
      "d": 598.2900000000081,
      "v": 75
    },
    {
      "midi": 60,
      "hit": false,
      "t": 135379.13812500038,
      "d": 691.772812500014,
      "v": 66
    },
    {
      "midi": 53,
      "hit": false,
      "t": 136167.0646875004,
      "d": 267.09375,
      "v": 77
    },
    {
      "midi": 57,
      "hit": false,
      "t": 136447.51312500038,
      "d": 368.5893750000105,
      "v": 80
    },
    {
      "midi": 62,
      "hit": false,
      "t": 136816.1025000004,
      "d": 339.2090625000128,
      "v": 83
    },
    {
      "midi": 60,
      "hit": false,
      "t": 137171.3371875004,
      "d": 243.05531249998603,
      "v": 86
    },
    {
      "midi": 64,
      "hit": false,
      "t": 137441.1018750004,
      "d": 1362.1781250000058,
      "v": 93
    },
    {
      "midi": 55,
      "hit": false,
      "t": 137441.1018750004,
      "d": 1388.8875000000116,
      "v": 81
    },
    {
      "midi": 60,
      "hit": false,
      "t": 137441.1018750004,
      "d": 1423.6096875000221,
      "v": 103
    },
    {
      "midi": 62,
      "hit": false,
      "t": 138976.89093750043,
      "d": 397.96968750000815,
      "v": 103
    },
    {
      "midi": 60,
      "hit": false,
      "t": 138976.89093750043,
      "d": 408.65343750000466,
      "v": 106
    },
    {
      "midi": 55,
      "hit": false,
      "t": 138976.89093750043,
      "d": 427.3500000000058,
      "v": 96
    },
    {
      "midi": 57,
      "hit": false,
      "t": 139487.04000000044,
      "d": 667.7343750000291,
      "v": 85
    },
    {
      "midi": 53,
      "hit": false,
      "t": 139492.38187500046,
      "d": 657.0506250000035,
      "v": 79
    },
    {
      "midi": 60,
      "hit": false,
      "t": 139492.38187500046,
      "d": 662.3925000000163,
      "v": 72
    },
    {
      "midi": 57,
      "hit": false,
      "t": 140253.59906250046,
      "d": 264.42281249997905,
      "v": 99
    },
    {
      "midi": 67,
      "hit": false,
      "t": 140515.35093750045,
      "d": 376.60218749998603,
      "v": 103
    },
    {
      "midi": 65,
      "hit": false,
      "t": 140891.95312500044,
      "d": 360.5765625000058,
      "v": 85
    },
    {
      "midi": 60,
      "hit": false,
      "t": 141271.22625000044,
      "d": 267.09375,
      "v": 85
    },
    {
      "midi": 60,
      "hit": false,
      "t": 141540.99093750044,
      "d": 50.74781250001979,
      "v": 83
    },
    {
      "midi": 64,
      "hit": false,
      "t": 141540.99093750044,
      "d": 1383.545625000028,
      "v": 68
    },
    {
      "midi": 55,
      "hit": false,
      "t": 141546.33281250045,
      "d": 1394.2293750000244,
      "v": 69
    },
    {
      "midi": 62,
      "hit": false,
      "t": 143074.10906250047,
      "d": 352.56375000000116,
      "v": 75
    },
    {
      "midi": 60,
      "hit": false,
      "t": 143074.10906250047,
      "d": 365.9184374999895,
      "v": 85
    },
    {
      "midi": 55,
      "hit": false,
      "t": 143076.78000000046,
      "d": 389.9568750000035,
      "v": 68
    },
    {
      "midi": 57,
      "hit": false,
      "t": 143584.25812500046,
      "d": 713.140312500007,
      "v": 79
    },
    {
      "midi": 53,
      "hit": false,
      "t": 143592.27093750046,
      "d": 587.6062500000116,
      "v": 72
    },
    {
      "midi": 60,
      "hit": false,
      "t": 143592.27093750046,
      "d": 619.6575000000012,
      "v": 65
    },
    {
      "midi": 53,
      "hit": false,
      "t": 144356.15906250046,
      "d": 232.37156249998952,
      "v": 88
    },
    {
      "midi": 57,
      "hit": false,
      "t": 144623.25281250046,
      "d": 243.05531249998603,
      "v": 93
    },
    {
      "midi": 67,
      "hit": false,
      "t": 144871.65000000046,
      "d": 325.85437499999534,
      "v": 73
    },
    {
      "midi": 60,
      "hit": false,
      "t": 144879.66281250046,
      "d": 317.8415624999907,
      "v": 93
    },
    {
      "midi": 57,
      "hit": false,
      "t": 144879.66281250046,
      "d": 336.53812499999185,
      "v": 68
    },
    {
      "midi": 57,
      "hit": false,
      "t": 145379.12812500045,
      "d": 245.72624999997788,
      "v": 57
    },
    {
      "midi": 60,
      "hit": false,
      "t": 145379.12812500045,
      "d": 251.06812499996158,
      "v": 83
    },
    {
      "midi": 65,
      "hit": false,
      "t": 145381.79906250045,
      "d": 245.72624999997788,
      "v": 83
    },
    {
      "midi": 60,
      "hit": false,
      "t": 145640.8800000004,
      "d": 945.5118749999965,
      "v": 96
    },
    {
      "midi": 55,
      "hit": false,
      "t": 145643.5509375004,
      "d": 934.828125,
      "v": 79
    },
    {
      "midi": 64,
      "hit": false,
      "t": 145643.5509375004,
      "d": 945.5118749999965,
      "v": 90
    },
    {
      "midi": 72,
      "hit": false,
      "t": 146410.1100000004,
      "d": 323.1834375000035,
      "v": 106
    },
    {
      "midi": 84,
      "hit": false,
      "t": 146410.1100000004,
      "d": 392.62781249999534,
      "v": 83
    },
    {
      "midi": 83,
      "hit": false,
      "t": 146794.72500000038,
      "d": 341.88000000000466,
      "v": 85
    },
    {
      "midi": 71,
      "hit": false,
      "t": 146802.7378125004,
      "d": 336.53812499999185,
      "v": 103
    },
    {
      "midi": 64,
      "hit": false,
      "t": 147179.34000000037,
      "d": 341.88000000000466,
      "v": 96
    },
    {
      "midi": 76,
      "hit": false,
      "t": 147184.6818750004,
      "d": 373.9312499999942,
      "v": 81
    },
    {
      "midi": 67,
      "hit": false,
      "t": 147566.6259375004,
      "d": 352.56375000000116,
      "v": 96
    },
    {
      "midi": 79,
      "hit": false,
      "t": 147571.9678125004,
      "d": 352.56375000000116,
      "v": 81
    },
    {
      "midi": 72,
      "hit": false,
      "t": 147943.2281250004,
      "d": 512.820000000007,
      "v": 83
    },
    {
      "midi": 60,
      "hit": false,
      "t": 147948.5700000004,
      "d": 507.4781249999942,
      "v": 103
    },
    {
      "midi": 57,
      "hit": false,
      "t": 148437.3515625004,
      "d": 344.5509374999965,
      "v": 110
    },
    {
      "midi": 69,
      "hit": false,
      "t": 148461.39000000042,
      "d": 251.0681249999907,
      "v": 79
    },
    {
      "midi": 77,
      "hit": false,
      "t": 148712.4581250004,
      "d": 355.234687499993,
      "v": 88
    },
    {
      "midi": 65,
      "hit": false,
      "t": 148723.1418750004,
      "d": 344.5509374999965,
      "v": 115
    },
    {
      "midi": 76,
      "hit": false,
      "t": 149091.73125000042,
      "d": 352.56375000000116,
      "v": 88
    },
    {
      "midi": 64,
      "hit": false,
      "t": 149099.74406250042,
      "d": 355.234687499993,
      "v": 93
    },
    {
      "midi": 72,
      "hit": false,
      "t": 149468.3334375004,
      "d": 293.8031250000058,
      "v": 83
    },
    {
      "midi": 60,
      "hit": false,
      "t": 149481.6881250004,
      "d": 245.72625000000698,
      "v": 99
    },
    {
      "midi": 55,
      "hit": false,
      "t": 149743.4400000004,
      "d": 10.683749999996508,
      "v": 61
    },
    {
      "midi": 60,
      "hit": false,
      "t": 149743.4400000004,
      "d": 1808.2246874999837,
      "v": 88
    },
    {
      "midi": 64,
      "hit": false,
      "t": 149743.4400000004,
      "d": 1840.2759374999732,
      "v": 62
    },
    {
      "midi": 55,
      "hit": false,
      "t": 149756.7946875004,
      "d": 1762.8187500000058,
      "v": 90
    },
    {
      "midi": 57,
      "hit": false,
      "t": 151773.3525000004,
      "d": 649.0378125000279,
      "v": 83
    },
    {
      "midi": 53,
      "hit": false,
      "t": 151778.6943750004,
      "d": 598.2900000000081,
      "v": 75
    },
    {
      "midi": 60,
      "hit": false,
      "t": 151789.3781250004,
      "d": 691.772812500014,
      "v": 66
    },
    {
      "midi": 55,
      "hit": false,
      "t": 152577.3046875004,
      "d": 267.09375,
      "v": 77
    },
    {
      "midi": 57,
      "hit": false,
      "t": 152857.7531250004,
      "d": 368.5893750000105,
      "v": 80
    },
    {
      "midi": 60,
      "hit": false,
      "t": 153226.3425000004,
      "d": 339.2090625000128,
      "v": 83
    },
    {
      "midi": 62,
      "hit": false,
      "t": 153581.57718750043,
      "d": 243.05531249998603,
      "v": 86
    },
    {
      "midi": 55,
      "hit": false,
      "t": 154617.9009375004,
      "d": 160.25625000000582,
      "v": 75
    },
    {
      "midi": 60,
      "hit": false,
      "t": 154860.95625000042,
      "d": 285.79031250000116,
      "v": 99
    },
    {
      "midi": 67,
      "hit": false,
      "t": 154863.62718750042,
      "d": 291.13218750001397,
      "v": 85
    },
    {
      "midi": 62,
      "hit": false,
      "t": 154868.96906250043,
      "d": 165.59812499998952,
      "v": 96
    },
    {
      "midi": 64,
      "hit": false,
      "t": 154991.83218750043,
      "d": 136.21781249999185,
      "v": 93
    },
    {
      "midi": 60,
      "hit": false,
      "t": 155242.90031250042,
      "d": 368.5893750000396,
      "v": 96
    },
    {
      "midi": 62,
      "hit": false,
      "t": 155248.24218750044,
      "d": 363.2475000000268,
      "v": 99
    },
    {
      "midi": 67,
      "hit": false,
      "t": 155253.58406250045,
      "d": 368.5893750000105,
      "v": 88
    },
    {
      "midi": 60,
      "hit": false,
      "t": 155651.55375000046,
      "d": 747.8624999999884,
      "v": 83
    },
    {
      "midi": 57,
      "hit": false,
      "t": 155654.22468750045,
      "d": 723.8240625000035,
      "v": 90
    },
    {
      "midi": 65,
      "hit": false,
      "t": 155656.89562500044,
      "d": 715.8112499999988,
      "v": 66
    },
    {
      "midi": 57,
      "hit": false,
      "t": 156666.51000000045,
      "d": 307.1578124999942,
      "v": 96
    },
    {
      "midi": 60,
      "hit": false,
      "t": 156925.59093750044,
      "d": 288.461249999993,
      "v": 96
    },
    {
      "midi": 65,
      "hit": false,
      "t": 157184.67187500044,
      "d": 229.70062499999767,
      "v": 83
    },
    {
      "midi": 57,
      "hit": false,
      "t": 157438.41093750045,
      "d": 168.26906250001048,
      "v": 83
    },
    {
      "midi": 64,
      "hit": false,
      "t": 157587.98343750046,
      "d": 275.10656250000466,
      "v": 85
    },
    {
      "midi": 55,
      "hit": false,
      "t": 157948.56000000046,
      "d": 10.683749999996508,
      "v": 61
    },
    {
      "midi": 60,
      "hit": false,
      "t": 157948.56000000046,
      "d": 1808.2246874999837,
      "v": 88
    },
    {
      "midi": 64,
      "hit": false,
      "t": 157948.56000000046,
      "d": 1840.2759374999732,
      "v": 62
    },
    {
      "midi": 55,
      "hit": false,
      "t": 157961.91468750045,
      "d": 1762.8187500000058,
      "v": 90
    },
    {
      "midi": 57,
      "hit": false,
      "t": 159978.47250000044,
      "d": 649.0378125000279,
      "v": 83
    },
    {
      "midi": 53,
      "hit": false,
      "t": 159983.81437500045,
      "d": 598.2900000000081,
      "v": 75
    },
    {
      "midi": 60,
      "hit": false,
      "t": 159994.49812500045,
      "d": 691.772812500014,
      "v": 66
    },
    {
      "midi": 55,
      "hit": false,
      "t": 160782.42468750046,
      "d": 267.09375,
      "v": 77
    },
    {
      "midi": 57,
      "hit": false,
      "t": 161062.87312500045,
      "d": 368.5893750000105,
      "v": 80
    },
    {
      "midi": 60,
      "hit": false,
      "t": 161431.46250000046,
      "d": 339.2090625000128,
      "v": 83
    },
    {
      "midi": 62,
      "hit": false,
      "t": 161786.69718750048,
      "d": 243.05531249998603,
      "v": 86
    },
    {
      "midi": 55,
      "hit": false,
      "t": 162304.85906250047,
      "d": 114.85031249999884,
      "v": 85
    },
    {
      "midi": 62,
      "hit": false,
      "t": 162566.61093750046,
      "d": 301.8159375000105,
      "v": 103
    },
    {
      "midi": 55,
      "hit": false,
      "t": 162566.61093750046,
      "d": 304.4868750000023,
      "v": 99
    },
    {
      "midi": 60,
      "hit": false,
      "t": 162953.89687500047,
      "d": 323.1834375000035,
      "v": 96
    },
    {
      "midi": 55,
      "hit": false,
      "t": 162956.56781250046,
      "d": 285.79031250000116,
      "v": 90
    },
    {
      "midi": 55,
      "hit": false,
      "t": 163343.85375000047,
      "d": 96.15374999999767,
      "v": 85
    },
    {
      "midi": 55,
      "hit": false,
      "t": 163597.5928125005,
      "d": 296.4740624999977,
      "v": 99
    },
    {
      "midi": 62,
      "hit": false,
      "t": 163600.26375000048,
      "d": 301.8159375000105,
      "v": 81
    },
    {
      "midi": 55,
      "hit": false,
      "t": 163979.5368750005,
      "d": 502.1362500000105,
      "v": 83
    },
    {
      "midi": 60,
      "hit": false,
      "t": 163979.5368750005,
      "d": 502.1362500000105,
      "v": 85
    },
    {
      "midi": 60,
      "hit": false,
      "t": 164612.5490625005,
      "d": 293.8031250000058,
      "v": 99
    },
    {
      "midi": 67,
      "hit": false,
      "t": 164612.5490625005,
      "d": 293.8031250000058,
      "v": 93
    },
    {
      "midi": 65,
      "hit": false,
      "t": 164994.4931250005,
      "d": 277.7774999999965,
      "v": 96
    },
    {
      "midi": 60,
      "hit": false,
      "t": 164997.1640625005,
      "d": 301.8159375000105,
      "v": 96
    },
    {
      "midi": 64,
      "hit": false,
      "t": 165381.77906250051,
      "d": 245.72625000000698,
      "v": 96
    },
    {
      "midi": 60,
      "hit": false,
      "t": 165381.77906250051,
      "d": 293.8031250000058,
      "v": 93
    },
    {
      "midi": 60,
      "hit": false,
      "t": 165771.73593750052,
      "d": 379.2731249999779,
      "v": 89
    },
    {
      "midi": 55,
      "hit": false,
      "t": 165774.4068750005,
      "d": 376.60218749998603,
      "v": 89
    },
    {
      "midi": 60,
      "hit": false,
      "t": 166153.6800000005,
      "d": 8.012812500004657,
      "v": 72
    },
    {
      "midi": 55,
      "hit": false,
      "t": 166153.6800000005,
      "d": 13.354687500017462,
      "v": 62
    },
    {
      "midi": 64,
      "hit": false,
      "t": 166153.6800000005,
      "d": 1172.5415625000314,
      "v": 72
    },
    {
      "midi": 62,
      "hit": false,
      "t": 167425.0462500005,
      "d": 624.9993749999849,
      "v": 79
    },
    {
      "midi": 55,
      "hit": false,
      "t": 167427.7171875005,
      "d": 641.0249999999942,
      "v": 53
    },
    {
      "midi": 59,
      "hit": false,
      "t": 167435.7300000005,
      "d": 614.3156249999884,
      "v": 81
    },
    {
      "midi": 60,
      "hit": false,
      "t": 168191.6053125005,
      "d": 849.3581250000279,
      "v": 60
    },
    {
      "midi": 57,
      "hit": false,
      "t": 168196.9471875005,
      "d": 787.9265625000116,
      "v": 64
    },
    {
      "midi": 53,
      "hit": false,
      "t": 168202.28906250052,
      "d": 779.913750000007,
      "v": 59
    },
    {
      "midi": 67,
      "hit": false,
      "t": 169481.66812500052,
      "d": 595.6190624999872,
      "v": 69
    },
    {
      "midi": 60,
      "hit": false,
      "t": 169484.3390625005,
      "d": 595.6190624999872,
      "v": 77
    },
    {
      "midi": 57,
      "hit": false,
      "t": 169487.0100000005,
      "d": 584.9353124999907,
      "v": 72
    },
    {
      "midi": 60,
      "hit": false,
      "t": 170285.6203125005,
      "d": 683.7600000000093,
      "v": 85
    },
    {
      "midi": 55,
      "hit": false,
      "t": 170290.96218750053,
      "d": 683.7600000000093,
      "v": 73
    },
    {
      "midi": 64,
      "hit": false,
      "t": 170290.96218750053,
      "d": 683.7600000000093,
      "v": 81
    },
    {
      "midi": 57,
      "hit": false,
      "t": 171017.45718750052,
      "d": 136.21781249999185,
      "v": 93
    },
    {
      "midi": 65,
      "hit": false,
      "t": 171273.86718750052,
      "d": 261.7518749999872,
      "v": 88
    },
    {
      "midi": 57,
      "hit": false,
      "t": 171276.53812500052,
      "d": 272.4356249999837,
      "v": 93
    },
    {
      "midi": 60,
      "hit": false,
      "t": 171279.2090625005,
      "d": 291.13218749998487,
      "v": 99
    },
    {
      "midi": 60,
      "hit": false,
      "t": 171658.4821875005,
      "d": 272.4356249999837,
      "v": 90
    },
    {
      "midi": 64,
      "hit": false,
      "t": 171661.15312500048,
      "d": 259.08093749999534,
      "v": 85
    },
    {
      "midi": 55,
      "hit": false,
      "t": 171669.16593750048,
      "d": 280.44843749998836,
      "v": 88
    },
    {
      "midi": 57,
      "hit": false,
      "t": 172059.12281250046,
      "d": 454.05937500001164,
      "v": 90
    },
    {
      "midi": 53,
      "hit": false,
      "t": 172061.79375000045,
      "d": 416.6662500000093,
      "v": 85
    },
    {
      "midi": 60,
      "hit": false,
      "t": 172061.79375000045,
      "d": 451.3884375000198,
      "v": 73
    },
    {
      "midi": 53,
      "hit": false,
      "t": 172550.57531250047,
      "d": 392.62781249996624,
      "v": 83
    },
    {
      "midi": 57,
      "hit": false,
      "t": 172812.32718750046,
      "d": 128.2049999999872,
      "v": 75
    },
    {
      "midi": 57,
      "hit": false,
      "t": 173074.07906250044,
      "d": 424.67906249998487,
      "v": 90
    },
    {
      "midi": 64,
      "hit": false,
      "t": 173076.75000000044,
      "d": 389.9568750000035,
      "v": 96
    },
    {
      "midi": 53,
      "hit": false,
      "t": 173079.42093750043,
      "d": 408.65343750000466,
      "v": 81
    },
    {
      "midi": 57,
      "hit": false,
      "t": 173589.57000000044,
      "d": 470.08499999999185,
      "v": 88
    },
    {
      "midi": 62,
      "hit": false,
      "t": 173589.57000000044,
      "d": 475.42687500000466,
      "v": 88
    },
    {
      "midi": 53,
      "hit": false,
      "t": 173602.92468750043,
      "d": 456.7303125000035,
      "v": 85
    },
    {
      "midi": 64,
      "hit": false,
      "t": 174358.80000000045,
      "d": 876.0675000000047,
      "v": 85
    },
    {
      "midi": 55,
      "hit": false,
      "t": 174358.80000000045,
      "d": 897.4349999999977,
      "v": 85
    },
    {
      "midi": 60,
      "hit": false,
      "t": 174358.80000000045,
      "d": 905.4478125000023,
      "v": 99
    },
    {
      "midi": 59,
      "hit": false,
      "t": 175373.75625000044,
      "d": 892.0931249999849,
      "v": 90
    },
    {
      "midi": 55,
      "hit": false,
      "t": 175376.42718750043,
      "d": 889.422187499993,
      "v": 73
    },
    {
      "midi": 62,
      "hit": false,
      "t": 175379.09812500043,
      "d": 862.7128124999872,
      "v": 85
    },
    {
      "midi": 57,
      "hit": false,
      "t": 176399.39625000043,
      "d": 1736.109375,
      "v": 90
    },
    {
      "midi": 60,
      "hit": false,
      "t": 176404.73812500044,
      "d": 1693.3743749999849,
      "v": 81
    },
    {
      "midi": 52,
      "hit": false,
      "t": 176407.40906250043,
      "d": 1704.0581249999814,
      "v": 81
    },
    {
      "midi": 62,
      "hit": false,
      "t": 178450.67625000043,
      "d": 795.9393750000163,
      "v": 96
    },
    {
      "midi": 55,
      "hit": false,
      "t": 178453.34718750042,
      "d": 795.9393750000163,
      "v": 88
    },
    {
      "midi": 59,
      "hit": false,
      "t": 178458.68906250043,
      "d": 785.2556250000198,
      "v": 93
    },
    {
      "midi": 57,
      "hit": false,
      "t": 179227.91906250044,
      "d": 245.72625000000698,
      "v": 103
    },
    {
      "midi": 59,
      "hit": false,
      "t": 179484.32906250044,
      "d": 381.94406249999884,
      "v": 93
    },
    {
      "midi": 62,
      "hit": false,
      "t": 179863.60218750045,
      "d": 333.8671875,
      "v": 106
    },
    {
      "midi": 67,
      "hit": false,
      "t": 180242.87531250046,
      "d": 470.08499999999185,
      "v": 90
    },
    {
      "midi": 59,
      "hit": false,
      "t": 180646.18687500045,
      "d": 114.85031249999884,
      "v": 80
    },
    {
      "midi": 55,
      "hit": false,
      "t": 180769.05000000045,
      "d": 240.38437499999418,
      "v": 75
    },
    {
      "midi": 60,
      "hit": false,
      "t": 181025.46000000046,
      "d": 240.38437499999418,
      "v": 96
    },
    {
      "midi": 55,
      "hit": false,
      "t": 181025.46000000046,
      "d": 331.19625000000815,
      "v": 83
    },
    {
      "midi": 59,
      "hit": false,
      "t": 181412.74593750047,
      "d": 232.37156249998952,
      "v": 88
    },
    {
      "midi": 55,
      "hit": false,
      "t": 181412.74593750047,
      "d": 248.39718749999884,
      "v": 79
    },
    {
      "midi": 55,
      "hit": false,
      "t": 181679.83968750047,
      "d": 34.72218750001048,
      "v": 90
    },
    {
      "midi": 55,
      "hit": false,
      "t": 181794.69000000047,
      "d": 753.2043750000012,
      "v": 85
    },
    {
      "midi": 60,
      "hit": false,
      "t": 181794.69000000047,
      "d": 763.8881249999977,
      "v": 106
    },
    {
      "midi": 62,
      "hit": false,
      "t": 183832.61531250048,
      "d": 392.62781250002445,
      "v": 90
    },
    {
      "midi": 57,
      "hit": false,
      "t": 183832.61531250048,
      "d": 397.96968750003725,
      "v": 85
    },
    {
      "midi": 65,
      "hit": false,
      "t": 183837.9571875005,
      "d": 387.28593750001164,
      "v": 75
    },
    {
      "midi": 65,
      "hit": false,
      "t": 184356.1190625005,
      "d": 349.8928125000093,
      "v": 85
    },
    {
      "midi": 60,
      "hit": false,
      "t": 184356.1190625005,
      "d": 355.2346875000221,
      "v": 93
    },
    {
      "midi": 57,
      "hit": false,
      "t": 184358.7900000005,
      "d": 339.2090625000128,
      "v": 83
    },
    {
      "midi": 67,
      "hit": false,
      "t": 184863.59718750053,
      "d": 328.5253124999872,
      "v": 106
    },
    {
      "midi": 65,
      "hit": false,
      "t": 185266.90875000053,
      "d": 307.1578124999942,
      "v": 93
    },
    {
      "midi": 64,
      "hit": false,
      "t": 185632.82718750052,
      "d": 363.2474999999977,
      "v": 106
    },
    {
      "midi": 60,
      "hit": false,
      "t": 186001.41656250053,
      "d": 365.9184374999895,
      "v": 77
    },
    {
      "midi": 55,
      "hit": false,
      "t": 186391.37343750053,
      "d": 269.76468749999185,
      "v": 99
    },
    {
      "midi": 55,
      "hit": false,
      "t": 186666.48000000053,
      "d": 892.093125000014,
      "v": 79
    },
    {
      "midi": 60,
      "hit": false,
      "t": 186666.48000000053,
      "d": 897.4350000000268,
      "v": 99
    },
    {
      "midi": 64,
      "hit": false,
      "t": 186666.48000000053,
      "d": 900.1059375000186,
      "v": 90
    },
    {
      "midi": 60,
      "hit": false,
      "t": 187684.10718750054,
      "d": 387.28593750004075,
      "v": 90
    },
    {
      "midi": 55,
      "hit": false,
      "t": 187689.44906250056,
      "d": 371.2603125000023,
      "v": 79
    },
    {
      "midi": 64,
      "hit": false,
      "t": 187689.44906250056,
      "d": 376.60218750001513,
      "v": 85
    },
    {
      "midi": 60,
      "hit": false,
      "t": 188196.92718750058,
      "d": 117.52125000001979,
      "v": 83
    },
    {
      "midi": 55,
      "hit": false,
      "t": 188199.59812500057,
      "d": 98.82468750001863,
      "v": 61
    },
    {
      "midi": 64,
      "hit": false,
      "t": 188204.94000000058,
      "d": 112.17937500000698,
      "v": 69
    },
    {
      "midi": 64,
      "hit": false,
      "t": 188461.3500000006,
      "d": 170.94000000000233,
      "v": 81
    },
    {
      "midi": 55,
      "hit": false,
      "t": 188466.6918750006,
      "d": 133.546875,
      "v": 72
    },
    {
      "midi": 60,
      "hit": false,
      "t": 188466.6918750006,
      "d": 170.94000000000233,
      "v": 88
    },
    {
      "midi": 57,
      "hit": false,
      "t": 188717.7600000006,
      "d": 705.1275000000023,
      "v": 83
    },
    {
      "midi": 60,
      "hit": false,
      "t": 188717.7600000006,
      "d": 721.1531250000116,
      "v": 85
    },
    {
      "midi": 65,
      "hit": false,
      "t": 188717.7600000006,
      "d": 726.4950000000244,
      "v": 81
    },
    {
      "midi": 57,
      "hit": false,
      "t": 189486.9900000006,
      "d": 264.42281250000815,
      "v": 79
    },
    {
      "midi": 60,
      "hit": false,
      "t": 189486.9900000006,
      "d": 277.7774999999965,
      "v": 96
    },
    {
      "midi": 67,
      "hit": false,
      "t": 189486.9900000006,
      "d": 315.17062499999884,
      "v": 110
    },
    {
      "midi": 53,
      "hit": false,
      "t": 189743.4000000006,
      "d": 128.2049999999872,
      "v": 99
    },
    {
      "midi": 60,
      "hit": false,
      "t": 189871.6050000006,
      "d": 251.0681249999907,
      "v": 93
    },
    {
      "midi": 57,
      "hit": false,
      "t": 189871.6050000006,
      "d": 507.4781249999942,
      "v": 81
    },
    {
      "midi": 65,
      "hit": false,
      "t": 189871.6050000006,
      "d": 803.9521874999919,
      "v": 96
    },
    {
      "midi": 60,
      "hit": false,
      "t": 190253.5490625006,
      "d": 251.0681249999907,
      "v": 96
    },
    {
      "midi": 57,
      "hit": false,
      "t": 190512.6300000006,
      "d": 261.7518749999872,
      "v": 88
    },
    {
      "midi": 60,
      "hit": false,
      "t": 190758.3562500006,
      "d": 616.9865624999802,
      "v": 103
    },
    {
      "midi": 64,
      "hit": false,
      "t": 190761.0271875006,
      "d": 606.3028124999837,
      "v": 99
    },
    {
      "midi": 55,
      "hit": false,
      "t": 190763.69812500058,
      "d": 611.6446874999965,
      "v": 83
    },
    {
      "midi": 60,
      "hit": false,
      "t": 191524.91531250058,
      "d": 395.2987500000163,
      "v": 96
    },
    {
      "midi": 64,
      "hit": false,
      "t": 191530.2571875006,
      "d": 373.9312499999942,
      "v": 88
    },
    {
      "midi": 55,
      "hit": false,
      "t": 191532.9281250006,
      "d": 387.28593750001164,
      "v": 88
    },
    {
      "midi": 60,
      "hit": false,
      "t": 192040.4062500006,
      "d": 641.0249999999651,
      "v": 96
    },
    {
      "midi": 55,
      "hit": false,
      "t": 192043.0771875006,
      "d": 643.695937499986,
      "v": 81
    },
    {
      "midi": 64,
      "hit": false,
      "t": 192045.7481250006,
      "d": 576.922499999986,
      "v": 85
    },
    {
      "midi": 57,
      "hit": false,
      "t": 192817.6490625006,
      "d": 622.328437499993,
      "v": 103
    },
    {
      "midi": 60,
      "hit": false,
      "t": 192820.3200000006,
      "d": 584.9353124999907,
      "v": 103
    },
    {
      "midi": 53,
      "hit": false,
      "t": 192820.3200000006,
      "d": 600.9609375,
      "v": 90
    },
    {
      "midi": 59,
      "hit": false,
      "t": 193589.5500000006,
      "d": 924.1443750000035,
      "v": 106
    },
    {
      "midi": 55,
      "hit": false,
      "t": 193592.2209375006,
      "d": 902.7768750000105,
      "v": 93
    },
    {
      "midi": 62,
      "hit": false,
      "t": 193592.2209375006,
      "d": 932.1571875000081,
      "v": 99
    },
    {
      "midi": 60,
      "hit": false,
      "t": 194871.6000000006,
      "d": 878.7384374999965,
      "v": 106
    },
    {
      "midi": 64,
      "hit": false,
      "t": 194874.27093750058,
      "d": 860.0418749999953,
      "v": 96
    },
    {
      "midi": 55,
      "hit": false,
      "t": 194882.28375000058,
      "d": 878.7384374999965,
      "v": 88
    },
    {
      "midi": 62,
      "hit": false,
      "t": 195875.87250000058,
      "d": 870.7256249999919,
      "v": 96
    },
    {
      "midi": 59,
      "hit": false,
      "t": 195878.54343750057,
      "d": 894.7640625000058,
      "v": 96
    },
    {
      "midi": 55,
      "hit": false,
      "t": 195883.88531250058,
      "d": 892.0931249999849,
      "v": 85
    },
    {
      "midi": 57,
      "hit": false,
      "t": 196917.53812500057,
      "d": 940.1700000000128,
      "v": 96
    },
    {
      "midi": 60,
      "hit": false,
      "t": 196922.8800000006,
      "d": 921.4734375000116,
      "v": 90
    },
    {
      "midi": 52,
      "hit": false,
      "t": 196922.8800000006,
      "d": 940.1700000000128,
      "v": 83
    },
    {
      "midi": 57,
      "hit": false,
      "t": 197951.1909375006,
      "d": 886.7512500000303,
      "v": 88
    },
    {
      "midi": 52,
      "hit": false,
      "t": 197956.5328125006,
      "d": 827.9906250000058,
      "v": 73
    },
    {
      "midi": 60,
      "hit": false,
      "t": 197959.2037500006,
      "d": 886.7512500000303,
      "v": 83
    },
    {
      "midi": 59,
      "hit": false,
      "t": 198966.14718750064,
      "d": 646.366875000007,
      "v": 96
    },
    {
      "midi": 55,
      "hit": false,
      "t": 198971.48906250065,
      "d": 641.0249999999942,
      "v": 83
    },
    {
      "midi": 62,
      "hit": false,
      "t": 198971.48906250065,
      "d": 649.0378124999988,
      "v": 96
    },
    {
      "midi": 67,
      "hit": false,
      "t": 199727.36437500064,
      "d": 256.4100000000035,
      "v": 93
    },
    {
      "midi": 55,
      "hit": false,
      "t": 199751.40281250066,
      "d": 259.08093749999534,
      "v": 90
    },
    {
      "midi": 67,
      "hit": false,
      "t": 199999.80000000066,
      "d": 227.02968750000582,
      "v": 103
    },
    {
      "midi": 79,
      "hit": false,
      "t": 200002.47093750065,
      "d": 315.17062500002794,
      "v": 106
    },
    {
      "midi": 55,
      "hit": false,
      "t": 200250.86812500068,
      "d": 104.16656250000233,
      "v": 93
    },
    {
      "midi": 65,
      "hit": false,
      "t": 200379.0731250007,
      "d": 277.7774999999965,
      "v": 96
    },
    {
      "midi": 77,
      "hit": false,
      "t": 200381.7440625007,
      "d": 336.53812499999185,
      "v": 103
    },
    {
      "midi": 55,
      "hit": false,
      "t": 200635.4831250007,
      "d": 88.14093749999302,
      "v": 77
    },
    {
      "midi": 64,
      "hit": false,
      "t": 200761.0171875007,
      "d": 235.04249999998137,
      "v": 103
    },
    {
      "midi": 76,
      "hit": false,
      "t": 200763.68812500068,
      "d": 285.79031249997206,
      "v": 96
    },
    {
      "midi": 62,
      "hit": false,
      "t": 201025.44000000067,
      "d": 715.8112499999988,
      "v": 110
    },
    {
      "midi": 74,
      "hit": false,
      "t": 201028.11093750066,
      "d": 689.101874999993,
      "v": 93
    },
    {
      "midi": 69,
      "hit": false,
      "t": 201789.32812500067,
      "d": 269.76468749999185,
      "v": 93
    },
    {
      "midi": 57,
      "hit": false,
      "t": 201791.99906250066,
      "d": 245.72625000000698,
      "v": 103
    },
    {
      "midi": 71,
      "hit": false,
      "t": 202048.40906250066,
      "d": 357.90562499998487,
      "v": 93
    },
    {
      "midi": 59,
      "hit": false,
      "t": 202051.08000000066,
      "d": 352.56375000000116,
      "v": 103
    },
    {
      "midi": 62,
      "hit": false,
      "t": 202433.02406250066,
      "d": 339.2090625000128,
      "v": 103
    },
    {
      "midi": 74,
      "hit": false,
      "t": 202433.02406250066,
      "d": 357.90562500001397,
      "v": 99
    },
    {
      "midi": 59,
      "hit": false,
      "t": 202817.63906250068,
      "d": 240.38437499999418,
      "v": 99
    },
    {
      "midi": 71,
      "hit": false,
      "t": 202817.63906250068,
      "d": 285.79031250000116,
      "v": 93
    },
    {
      "midi": 65,
      "hit": false,
      "t": 203076.72000000067,
      "d": 830.6615624999977,
      "v": 96
    },
    {
      "midi": 57,
      "hit": false,
      "t": 203076.72000000067,
      "d": 852.0290624999907,
      "v": 88
    },
    {
      "midi": 60,
      "hit": false,
      "t": 203076.72000000067,
      "d": 876.0675000000047,
      "v": 103
    },
    {
      "midi": 41,
      "hit": false,
      "t": 203076.72000000067,
      "d": 993.5887499999953,
      "v": 90
    },
    {
      "midi": 60,
      "hit": false,
      "t": 204083.66343750065,
      "d": 550.2131249999802,
      "v": 93
    },
    {
      "midi": 64,
      "hit": false,
      "t": 204091.67625000066,
      "d": 502.1362499999814,
      "v": 85
    },
    {
      "midi": 55,
      "hit": false,
      "t": 204091.67625000066,
      "d": 560.8968749999767,
      "v": 88
    },
    {
      "midi": 40,
      "hit": false,
      "t": 204094.34718750065,
      "d": 753.2043749999721,
      "v": 93
    },
    {
      "midi": 62,
      "hit": false,
      "t": 204858.23531250062,
      "d": 990.9178125000035,
      "v": 99
    },
    {
      "midi": 57,
      "hit": false,
      "t": 204858.23531250062,
      "d": 993.5887499999953,
      "v": 106
    },
    {
      "midi": 53,
      "hit": false,
      "t": 204863.57718750063,
      "d": 974.8921874999942,
      "v": 99
    },
    {
      "midi": 38,
      "hit": false,
      "t": 204876.93187500062,
      "d": 1252.6696874999907,
      "v": 90
    },
    {
      "midi": 43,
      "hit": false,
      "t": 206142.9562500006,
      "d": 948.1828125000175,
      "v": 90
    },
    {
      "midi": 67,
      "hit": false,
      "t": 206145.6271875006,
      "d": 897.4350000000268,
      "v": 83
    },
    {
      "midi": 59,
      "hit": false,
      "t": 206150.9690625006,
      "d": 865.3837500000081,
      "v": 83
    },
    {
      "midi": 62,
      "hit": false,
      "t": 206150.9690625006,
      "d": 897.4350000000268,
      "v": 88
    },
    {
      "midi": 57,
      "hit": false,
      "t": 207179.2800000006,
      "d": 763.8881249999977,
      "v": 93
    },
    {
      "midi": 60,
      "hit": false,
      "t": 207179.2800000006,
      "d": 763.8881249999977,
      "v": 103
    },
    {
      "midi": 65,
      "hit": false,
      "t": 207179.2800000006,
      "d": 889.422187499993,
      "v": 93
    },
    {
      "midi": 53,
      "hit": false,
      "t": 207945.8390625006,
      "d": 176.28187500001513,
      "v": 99
    },
    {
      "midi": 60,
      "hit": false,
      "t": 208202.2490625006,
      "d": 296.4740624999977,
      "v": 88
    },
    {
      "midi": 65,
      "hit": false,
      "t": 208202.2490625006,
      "d": 309.82874999998603,
      "v": 83
    },
    {
      "midi": 57,
      "hit": false,
      "t": 208204.9200000006,
      "d": 288.461249999993,
      "v": 73
    },
    {
      "midi": 65,
      "hit": false,
      "t": 208589.5350000006,
      "d": 248.39718749999884,
      "v": 89
    },
    {
      "midi": 60,
      "hit": false,
      "t": 208589.5350000006,
      "d": 256.4100000000035,
      "v": 89
    },
    {
      "midi": 57,
      "hit": false,
      "t": 208592.20593750058,
      "d": 264.42281250000815,
      "v": 85
    },
    {
      "midi": 60,
      "hit": false,
      "t": 208968.8081250006,
      "d": 232.37156249998952,
      "v": 93
    },
    {
      "midi": 57,
      "hit": false,
      "t": 208971.47906250058,
      "d": 219.01687500000116,
      "v": 72
    },
    {
      "midi": 64,
      "hit": false,
      "t": 208971.47906250058,
      "d": 227.02968750000582,
      "v": 83
    },
    {
      "midi": 60,
      "hit": false,
      "t": 209233.23093750057,
      "d": 761.2171875000058,
      "v": 90
    },
    {
      "midi": 65,
      "hit": false,
      "t": 209233.23093750057,
      "d": 852.0290625000198,
      "v": 90
    },
    {
      "midi": 57,
      "hit": false,
      "t": 209235.90187500056,
      "d": 758.546250000014,
      "v": 66
    },
    {
      "midi": 53,
      "hit": false,
      "t": 209989.10625000056,
      "d": 256.4100000000326,
      "v": 85
    },
    {
      "midi": 57,
      "hit": false,
      "t": 210250.8581250006,
      "d": 277.7774999999965,
      "v": 73
    },
    {
      "midi": 60,
      "hit": false,
      "t": 210250.8581250006,
      "d": 285.79031250000116,
      "v": 85
    },
    {
      "midi": 65,
      "hit": false,
      "t": 210250.8581250006,
      "d": 293.8031250000058,
      "v": 72
    },
    {
      "midi": 65,
      "hit": false,
      "t": 210638.14406250062,
      "d": 523.5037500000035,
      "v": 83
    },
    {
      "midi": 60,
      "hit": false,
      "t": 210638.14406250062,
      "d": 560.8968750000058,
      "v": 88
    },
    {
      "midi": 57,
      "hit": false,
      "t": 210638.14406250062,
      "d": 563.5678124999977,
      "v": 73
    },
    {
      "midi": 64,
      "hit": false,
      "t": 211281.8400000006,
      "d": 817.3068750000093,
      "v": 81
    },
    {
      "midi": 60,
      "hit": false,
      "t": 211281.8400000006,
      "d": 819.9778125000012,
      "v": 88
    },
    {
      "midi": 55,
      "hit": false,
      "t": 211281.8400000006,
      "d": 905.4478125000023,
      "v": 75
    },
    {
      "midi": 55,
      "hit": false,
      "t": 212299.46718750062,
      "d": 293.8031250000058,
      "v": 73
    },
    {
      "midi": 60,
      "hit": false,
      "t": 212302.1381250006,
      "d": 315.17062500002794,
      "v": 90
    },
    {
      "midi": 64,
      "hit": false,
      "t": 212307.48000000062,
      "d": 304.4868750000023,
      "v": 79
    },
    {
      "midi": 60,
      "hit": false,
      "t": 212686.75312500063,
      "d": 352.56374999997206,
      "v": 93
    },
    {
      "midi": 55,
      "hit": false,
      "t": 212689.42406250062,
      "d": 301.8159374999814,
      "v": 72
    },
    {
      "midi": 64,
      "hit": false,
      "t": 212692.0950000006,
      "d": 357.90562499998487,
      "v": 90
    },
    {
      "midi": 55,
      "hit": false,
      "t": 213058.0134375006,
      "d": 112.17937500000698,
      "v": 61
    },
    {
      "midi": 65,
      "hit": false,
      "t": 213327.77812500062,
      "d": 793.2684374999953,
      "v": 66
    },
    {
      "midi": 60,
      "hit": false,
      "t": 213330.44906250061,
      "d": 790.5975000000035,
      "v": 96
    },
    {
      "midi": 57,
      "hit": false,
      "t": 213330.44906250061,
      "d": 916.1315624999988,
      "v": 96
    },
    {
      "midi": 65,
      "hit": false,
      "t": 214342.7343750006,
      "d": 315.17062499999884,
      "v": 83
    },
    {
      "midi": 60,
      "hit": false,
      "t": 214345.4053125006,
      "d": 323.1834375000035,
      "v": 88
    },
    {
      "midi": 57,
      "hit": false,
      "t": 214350.74718750062,
      "d": 299.1449999999895,
      "v": 79
    },
    {
      "midi": 60,
      "hit": false,
      "t": 214743.3750000006,
      "d": 365.9184374999895,
      "v": 90
    },
    {
      "midi": 57,
      "hit": false,
      "t": 214746.0459375006,
      "d": 443.37562499998603,
      "v": 73
    },
    {
      "midi": 65,
      "hit": false,
      "t": 214751.38781250062,
      "d": 347.22187499998836,
      "v": 79
    },
    {
      "midi": 55,
      "hit": false,
      "t": 215355.01968750058,
      "d": 662.3924999999872,
      "v": 85
    },
    {
      "midi": 64,
      "hit": false,
      "t": 215357.69062500057,
      "d": 790.5975000000035,
      "v": 85
    },
    {
      "midi": 60,
      "hit": false,
      "t": 215360.36156250056,
      "d": 761.2171875000058,
      "v": 85
    },
    {
      "midi": 55,
      "hit": false,
      "t": 216137.60437500058,
      "d": 181.62374999999884,
      "v": 68
    },
    {
      "midi": 55,
      "hit": false,
      "t": 216655.76625000057,
      "d": 494.1234375000058,
      "v": 81
    },
    {
      "midi": 60,
      "hit": false,
      "t": 216655.76625000057,
      "d": 630.3412499999977,
      "v": 93
    },
    {
      "midi": 64,
      "hit": false,
      "t": 216661.10812500058,
      "d": 518.1618749999907,
      "v": 83
    },
    {
      "midi": 60,
      "hit": false,
      "t": 217422.32531250056,
      "d": 616.9865624999802,
      "v": 96
    },
    {
      "midi": 65,
      "hit": false,
      "t": 217424.99625000055,
      "d": 582.2643749999988,
      "v": 81
    },
    {
      "midi": 57,
      "hit": false,
      "t": 217427.66718750054,
      "d": 616.9865625000093,
      "v": 90
    },
    {
      "midi": 62,
      "hit": false,
      "t": 218186.21343750056,
      "d": 1148.5031250000175,
      "v": 90
    },
    {
      "midi": 55,
      "hit": false,
      "t": 218188.88437500055,
      "d": 1100.4262500000186,
      "v": 93
    },
    {
      "midi": 59,
      "hit": false,
      "t": 218194.22625000056,
      "d": 1124.4646875000035,
      "v": 103
    },
    {
      "midi": 64,
      "hit": false,
      "t": 219486.96000000057,
      "d": 876.0675000000047,
      "v": 81
    },
    {
      "midi": 55,
      "hit": false,
      "t": 219486.96000000057,
      "d": 902.7768750000105,
      "v": 83
    },
    {
      "midi": 60,
      "hit": false,
      "t": 219486.96000000057,
      "d": 937.499062500021,
      "v": 96
    },
    {
      "midi": 62,
      "hit": false,
      "t": 220509.9290625006,
      "d": 846.6871874999779,
      "v": 96
    },
    {
      "midi": 55,
      "hit": false,
      "t": 220509.9290625006,
      "d": 862.7128124999872,
      "v": 83
    },
    {
      "midi": 59,
      "hit": false,
      "t": 220512.6000000006,
      "d": 900.1059374999895,
      "v": 93
    },
    {
      "midi": 57,
      "hit": false,
      "t": 221535.56906250058,
      "d": 654.3796875000116,
      "v": 83
    },
    {
      "midi": 64,
      "hit": false,
      "t": 221535.56906250058,
      "d": 654.3796875000116,
      "v": 93
    },
    {
      "midi": 60,
      "hit": false,
      "t": 221535.56906250058,
      "d": 667.734375,
      "v": 99
    },
    {
      "midi": 64,
      "hit": false,
      "t": 222323.4956250006,
      "d": 646.3668749999779,
      "v": 72
    },
    {
      "midi": 60,
      "hit": false,
      "t": 222323.4956250006,
      "d": 649.0378124999697,
      "v": 90
    },
    {
      "midi": 57,
      "hit": false,
      "t": 222326.16656250058,
      "d": 649.0378124999697,
      "v": 75
    },
    {
      "midi": 57,
      "hit": false,
      "t": 223068.68718750056,
      "d": 430.0209375000268,
      "v": 79
    },
    {
      "midi": 60,
      "hit": false,
      "t": 223074.02906250057,
      "d": 432.6918750000186,
      "v": 90
    },
    {
      "midi": 64,
      "hit": false,
      "t": 223074.02906250057,
      "d": 432.6918750000186,
      "v": 75
    },
    {
      "midi": 62,
      "hit": false,
      "t": 223589.5200000006,
      "d": 614.3156249999884,
      "v": 93
    },
    {
      "midi": 55,
      "hit": false,
      "t": 223589.5200000006,
      "d": 638.3540625000023,
      "v": 85
    },
    {
      "midi": 59,
      "hit": false,
      "t": 223600.2037500006,
      "d": 689.101874999993,
      "v": 93
    },
    {
      "midi": 62,
      "hit": false,
      "t": 224348.0662500006,
      "d": 376.60218749998603,
      "v": 90
    },
    {
      "midi": 55,
      "hit": false,
      "t": 224350.73718750058,
      "d": 381.94406249999884,
      "v": 88
    },
    {
      "midi": 57,
      "hit": false,
      "t": 224353.40812500057,
      "d": 357.90562500001397,
      "v": 85
    },
    {
      "midi": 57,
      "hit": false,
      "t": 224863.55718750058,
      "d": 235.04249999998137,
      "v": 79
    },
    {
      "midi": 55,
      "hit": false,
      "t": 224868.8990625006,
      "d": 120.19218749998254,
      "v": 77
    },
    {
      "midi": 62,
      "hit": false,
      "t": 224871.5700000006,
      "d": 120.19218749998254,
      "v": 83
    },
    {
      "midi": 62,
      "hit": false,
      "t": 225141.33468750055,
      "d": 395.2987500000163,
      "v": 88
    },
    {
      "midi": 55,
      "hit": false,
      "t": 225141.33468750055,
      "d": 408.65343750000466,
      "v": 85
    },
    {
      "midi": 59,
      "hit": false,
      "t": 225144.00562500054,
      "d": 357.90562500001397,
      "v": 79
    },
    {
      "midi": 59,
      "hit": false,
      "t": 225643.47093750056,
      "d": 227.02968750000582,
      "v": 93
    },
    {
      "midi": 62,
      "hit": false,
      "t": 225646.14187500055,
      "d": 587.6062500000407,
      "v": 88
    },
    {
      "midi": 55,
      "hit": false,
      "t": 225646.14187500055,
      "d": 608.9737500000338,
      "v": 79
    },
    {
      "midi": 57,
      "hit": false,
      "t": 225894.53906250058,
      "d": 237.71343750000233,
      "v": 77
    },
    {
      "midi": 59,
      "hit": false,
      "t": 226142.93625000058,
      "d": 221.68781249999302,
      "v": 77
    },
    {
      "midi": 62,
      "hit": false,
      "t": 226410.03000000058,
      "d": 368.5893749999814,
      "v": 96
    },
    {
      "midi": 55,
      "hit": false,
      "t": 226412.70093750057,
      "d": 379.2731249999779,
      "v": 90
    },
    {
      "midi": 60,
      "hit": false,
      "t": 226426.05562500056,
      "d": 373.9312499999942,
      "v": 96
    },
    {
      "midi": 55,
      "hit": false,
      "t": 226920.17906250057,
      "d": 117.52124999996158,
      "v": 83
    },
    {
      "midi": 62,
      "hit": false,
      "t": 226922.85000000056,
      "d": 112.17937499997788,
      "v": 88
    },
    {
      "midi": 60,
      "hit": false,
      "t": 226936.20468750055,
      "d": 253.73906249998254,
      "v": 99
    },
    {
      "midi": 62,
      "hit": false,
      "t": 227179.26000000053,
      "d": 416.6662500000093,
      "v": 85
    },
    {
      "midi": 55,
      "hit": false,
      "t": 227187.27281250054,
      "d": 405.9825000000128,
      "v": 88
    },
    {
      "midi": 59,
      "hit": false,
      "t": 227213.98218750054,
      "d": 395.2987499999872,
      "v": 73
    },
    {
      "midi": 55,
      "hit": false,
      "t": 227692.08000000054,
      "d": 892.093125000014,
      "v": 79
    },
    {
      "midi": 60,
      "hit": false,
      "t": 227692.08000000054,
      "d": 897.4350000000268,
      "v": 99
    },
    {
      "midi": 64,
      "hit": false,
      "t": 227692.08000000054,
      "d": 900.1059375000186,
      "v": 90
    },
    {
      "midi": 60,
      "hit": false,
      "t": 228709.70718750055,
      "d": 387.28593750004075,
      "v": 90
    },
    {
      "midi": 55,
      "hit": false,
      "t": 228715.04906250056,
      "d": 371.2603125000023,
      "v": 79
    },
    {
      "midi": 64,
      "hit": false,
      "t": 228715.04906250056,
      "d": 376.60218750001513,
      "v": 85
    },
    {
      "midi": 60,
      "hit": false,
      "t": 229222.5271875006,
      "d": 117.52125000001979,
      "v": 83
    },
    {
      "midi": 55,
      "hit": false,
      "t": 229225.19812500058,
      "d": 98.82468750001863,
      "v": 61
    },
    {
      "midi": 64,
      "hit": false,
      "t": 229230.5400000006,
      "d": 112.17937500000698,
      "v": 69
    },
    {
      "midi": 64,
      "hit": false,
      "t": 229486.9500000006,
      "d": 170.94000000000233,
      "v": 81
    },
    {
      "midi": 55,
      "hit": false,
      "t": 229492.2918750006,
      "d": 133.546875,
      "v": 72
    },
    {
      "midi": 60,
      "hit": false,
      "t": 229492.2918750006,
      "d": 170.94000000000233,
      "v": 88
    },
    {
      "midi": 57,
      "hit": false,
      "t": 229743.3600000006,
      "d": 705.1275000000023,
      "v": 83
    },
    {
      "midi": 60,
      "hit": false,
      "t": 229743.3600000006,
      "d": 721.1531250000116,
      "v": 85
    },
    {
      "midi": 65,
      "hit": false,
      "t": 229743.3600000006,
      "d": 726.4950000000244,
      "v": 81
    },
    {
      "midi": 57,
      "hit": false,
      "t": 230512.5900000006,
      "d": 264.42281250000815,
      "v": 79
    },
    {
      "midi": 60,
      "hit": false,
      "t": 230512.5900000006,
      "d": 277.7774999999965,
      "v": 96
    },
    {
      "midi": 67,
      "hit": false,
      "t": 230512.5900000006,
      "d": 315.17062499999884,
      "v": 110
    },
    {
      "midi": 53,
      "hit": false,
      "t": 230769.0000000006,
      "d": 128.2049999999872,
      "v": 99
    },
    {
      "midi": 60,
      "hit": false,
      "t": 230897.2050000006,
      "d": 251.0681249999907,
      "v": 93
    },
    {
      "midi": 57,
      "hit": false,
      "t": 230897.2050000006,
      "d": 507.4781249999942,
      "v": 81
    },
    {
      "midi": 65,
      "hit": false,
      "t": 230897.2050000006,
      "d": 803.9521874999919,
      "v": 96
    },
    {
      "midi": 60,
      "hit": false,
      "t": 231279.1490625006,
      "d": 251.0681249999907,
      "v": 96
    },
    {
      "midi": 57,
      "hit": false,
      "t": 231538.2300000006,
      "d": 261.7518749999872,
      "v": 88
    },
    {
      "midi": 60,
      "hit": false,
      "t": 231783.9562500006,
      "d": 616.9865624999802,
      "v": 103
    },
    {
      "midi": 64,
      "hit": false,
      "t": 231786.6271875006,
      "d": 606.3028124999837,
      "v": 99
    },
    {
      "midi": 55,
      "hit": false,
      "t": 231789.29812500058,
      "d": 611.6446874999965,
      "v": 83
    },
    {
      "midi": 60,
      "hit": false,
      "t": 232550.5153125006,
      "d": 395.2987500000163,
      "v": 96
    },
    {
      "midi": 64,
      "hit": false,
      "t": 232555.8571875006,
      "d": 373.9312499999942,
      "v": 88
    },
    {
      "midi": 55,
      "hit": false,
      "t": 232558.5281250006,
      "d": 387.28593750001164,
      "v": 88
    },
    {
      "midi": 60,
      "hit": false,
      "t": 233066.00625000062,
      "d": 641.0249999999651,
      "v": 96
    },
    {
      "midi": 55,
      "hit": false,
      "t": 233068.6771875006,
      "d": 643.695937499986,
      "v": 81
    },
    {
      "midi": 64,
      "hit": false,
      "t": 233071.3481250006,
      "d": 576.922499999986,
      "v": 85
    },
    {
      "midi": 57,
      "hit": false,
      "t": 233843.2490625006,
      "d": 622.328437499993,
      "v": 103
    },
    {
      "midi": 60,
      "hit": false,
      "t": 233845.9200000006,
      "d": 584.9353124999907,
      "v": 103
    },
    {
      "midi": 53,
      "hit": false,
      "t": 233845.9200000006,
      "d": 600.9609375,
      "v": 90
    },
    {
      "midi": 59,
      "hit": false,
      "t": 234615.1500000006,
      "d": 924.1443750000035,
      "v": 106
    },
    {
      "midi": 55,
      "hit": false,
      "t": 234617.8209375006,
      "d": 902.7768750000105,
      "v": 93
    },
    {
      "midi": 62,
      "hit": false,
      "t": 234617.8209375006,
      "d": 932.1571875000081,
      "v": 99
    },
    {
      "midi": 60,
      "hit": false,
      "t": 235897.2000000006,
      "d": 878.7384374999965,
      "v": 106
    },
    {
      "midi": 64,
      "hit": false,
      "t": 235899.8709375006,
      "d": 860.0418749999953,
      "v": 96
    },
    {
      "midi": 55,
      "hit": false,
      "t": 235907.8837500006,
      "d": 878.7384374999965,
      "v": 88
    },
    {
      "midi": 62,
      "hit": false,
      "t": 236901.4725000006,
      "d": 870.7256249999919,
      "v": 96
    },
    {
      "midi": 59,
      "hit": false,
      "t": 236904.14343750058,
      "d": 894.7640625000058,
      "v": 96
    },
    {
      "midi": 55,
      "hit": false,
      "t": 236909.4853125006,
      "d": 892.0931249999849,
      "v": 85
    },
    {
      "midi": 57,
      "hit": false,
      "t": 237943.13812500058,
      "d": 940.1700000000128,
      "v": 96
    },
    {
      "midi": 60,
      "hit": false,
      "t": 237948.4800000006,
      "d": 921.4734375000116,
      "v": 90
    },
    {
      "midi": 52,
      "hit": false,
      "t": 237948.4800000006,
      "d": 940.1700000000128,
      "v": 83
    },
    {
      "midi": 57,
      "hit": false,
      "t": 238976.7909375006,
      "d": 886.7512500000303,
      "v": 88
    },
    {
      "midi": 52,
      "hit": false,
      "t": 238982.1328125006,
      "d": 827.9906250000058,
      "v": 73
    },
    {
      "midi": 60,
      "hit": false,
      "t": 238984.8037500006,
      "d": 886.7512500000303,
      "v": 83
    },
    {
      "midi": 59,
      "hit": false,
      "t": 239991.74718750064,
      "d": 646.366875000007,
      "v": 96
    },
    {
      "midi": 62,
      "hit": false,
      "t": 239997.08906250066,
      "d": 649.0378124999988,
      "v": 96
    },
    {
      "midi": 55,
      "hit": false,
      "t": 240777.00281250066,
      "d": 259.08093749999534,
      "v": 90
    },
    {
      "midi": 67,
      "hit": false,
      "t": 241025.40000000066,
      "d": 227.02968750000582,
      "v": 103
    },
    {
      "midi": 55,
      "hit": false,
      "t": 241276.46812500068,
      "d": 104.16656250000233,
      "v": 93
    },
    {
      "midi": 65,
      "hit": false,
      "t": 241404.6731250007,
      "d": 277.7774999999965,
      "v": 96
    },
    {
      "midi": 55,
      "hit": false,
      "t": 241661.0831250007,
      "d": 88.14093749999302,
      "v": 77
    },
    {
      "midi": 64,
      "hit": false,
      "t": 241786.6171875007,
      "d": 235.04250000001048,
      "v": 103
    },
    {
      "midi": 62,
      "hit": false,
      "t": 242051.0400000007,
      "d": 715.8112499999988,
      "v": 110
    },
    {
      "midi": 57,
      "hit": false,
      "t": 242817.5990625007,
      "d": 245.72625000000698,
      "v": 103
    },
    {
      "midi": 59,
      "hit": false,
      "t": 243076.6800000007,
      "d": 352.56375000000116,
      "v": 103
    },
    {
      "midi": 62,
      "hit": false,
      "t": 243458.6240625007,
      "d": 339.2090625000128,
      "v": 103
    },
    {
      "midi": 59,
      "hit": false,
      "t": 243843.2390625007,
      "d": 240.38437499999418,
      "v": 99
    },
    {
      "midi": 65,
      "hit": false,
      "t": 244102.3200000007,
      "d": 868.0546875,
      "v": 88
    },
    {
      "midi": 57,
      "hit": false,
      "t": 244102.3200000007,
      "d": 884.0803125000093,
      "v": 88
    },
    {
      "midi": 60,
      "hit": false,
      "t": 244102.3200000007,
      "d": 902.7768750000105,
      "v": 96
    },
    {
      "midi": 60,
      "hit": false,
      "t": 245106.59250000073,
      "d": 574.2515624999942,
      "v": 93
    },
    {
      "midi": 64,
      "hit": false,
      "t": 245109.26343750072,
      "d": 542.2003125000047,
      "v": 83
    },
    {
      "midi": 55,
      "hit": false,
      "t": 245114.60531250073,
      "d": 592.9481249999953,
      "v": 79
    },
    {
      "midi": 57,
      "hit": false,
      "t": 245878.49343750073,
      "d": 440.7046874999942,
      "v": 96
    },
    {
      "midi": 53,
      "hit": false,
      "t": 245881.16437500072,
      "d": 438.0337500000023,
      "v": 83
    },
    {
      "midi": 62,
      "hit": false,
      "t": 245883.8353125007,
      "d": 430.0209374999977,
      "v": 88
    },
    {
      "midi": 62,
      "hit": false,
      "t": 246418.0228125007,
      "d": 341.88000000000466,
      "v": 93
    },
    {
      "midi": 53,
      "hit": false,
      "t": 246420.6937500007,
      "d": 357.90562500001397,
      "v": 81
    },
    {
      "midi": 57,
      "hit": false,
      "t": 246420.6937500007,
      "d": 360.5765625000058,
      "v": 93
    },
    {
      "midi": 57,
      "hit": false,
      "t": 246914.8171875007,
      "d": 392.62781249999534,
      "v": 96
    },
    {
      "midi": 64,
      "hit": false,
      "t": 246922.83000000071,
      "d": 341.88000000000466,
      "v": 106
    },
    {
      "midi": 53,
      "hit": false,
      "t": 246925.5009375007,
      "d": 392.62781249999534,
      "v": 77
    },
    {
      "midi": 57,
      "hit": false,
      "t": 247403.5987500007,
      "d": 502.13624999995227,
      "v": 81
    },
    {
      "midi": 53,
      "hit": false,
      "t": 247416.9534375007,
      "d": 475.42687499997555,
      "v": 72
    },
    {
      "midi": 65,
      "hit": false,
      "t": 247430.30812500068,
      "d": 488.7815624999639,
      "v": 92
    },
    {
      "midi": 62,
      "hit": false,
      "t": 248196.86718750064,
      "d": 2032.5834374999686,
      "v": 95
    },
    {
      "midi": 59,
      "hit": false,
      "t": 248199.53812500063,
      "d": 2037.9253124999814,
      "v": 99
    },
    {
      "midi": 67,
      "hit": false,
      "t": 248202.20906250062,
      "d": 2024.570624999993,
      "v": 97
    },
    {
      "midi": 53,
      "hit": false,
      "t": 250256.16000000061,
      "d": 130.87593750000815,
      "v": 119
    },
    {
      "midi": 55,
      "hit": false,
      "t": 250387.03593750062,
      "d": 130.87593749997905,
      "v": 99
    },
    {
      "midi": 60,
      "hit": false,
      "t": 250512.57000000062,
      "d": 1495.7249999999767,
      "v": 88
    },
    {
      "midi": 64,
      "hit": false,
      "t": 250515.2409375006,
      "d": 1610.5753124999756,
      "v": 110
    },
    {
      "midi": 55,
      "hit": false,
      "t": 250520.5828125006,
      "d": 1487.7121875000012,
      "v": 77
    },
    {
      "midi": 67,
      "hit": false,
      "t": 252561.1790625006,
      "d": 379.2731249999779,
      "v": 99
    },
    {
      "midi": 79,
      "hit": false,
      "t": 252563.8500000006,
      "d": 381.94406249996973,
      "v": 90
    },
    {
      "midi": 77,
      "hit": false,
      "t": 252943.12312500057,
      "d": 328.5253124999872,
      "v": 81
    },
    {
      "midi": 65,
      "hit": false,
      "t": 252945.79406250056,
      "d": 355.234687499993,
      "v": 83
    },
    {
      "midi": 72,
      "hit": false,
      "t": 253314.38343750054,
      "d": 413.99531250001746,
      "v": 68
    },
    {
      "midi": 60,
      "hit": false,
      "t": 253330.40906250055,
      "d": 373.9312499999942,
      "v": 106
    },
    {
      "midi": 57,
      "hit": false,
      "t": 253712.35312500055,
      "d": 336.53812500002095,
      "v": 81
    },
    {
      "midi": 69,
      "hit": false,
      "t": 253720.36593750055,
      "d": 341.88000000000466,
      "v": 81
    },
    {
      "midi": 60,
      "hit": false,
      "t": 254094.29718750055,
      "d": 1287.3918750000012,
      "v": 79
    },
    {
      "midi": 64,
      "hit": false,
      "t": 254099.63906250056,
      "d": 1159.1868749999849,
      "v": 93
    },
    {
      "midi": 55,
      "hit": false,
      "t": 254102.31000000055,
      "d": 1159.1868749999849,
      "v": 81
    },
    {
      "midi": 60,
      "hit": false,
      "t": 255640.77000000054,
      "d": 205.6621875000128,
      "v": 93
    },
    {
      "midi": 64,
      "hit": false,
      "t": 255640.77000000054,
      "d": 205.6621875000128,
      "v": 88
    },
    {
      "midi": 55,
      "hit": false,
      "t": 255640.77000000054,
      "d": 211.0040625000256,
      "v": 81
    },
    {
      "midi": 62,
      "hit": false,
      "t": 255897.18000000058,
      "d": 387.28593750001164,
      "v": 90
    },
    {
      "midi": 59,
      "hit": false,
      "t": 255897.18000000058,
      "d": 397.96968750000815,
      "v": 88
    },
    {
      "midi": 55,
      "hit": false,
      "t": 255897.18000000058,
      "d": 400.640625,
      "v": 69
    },
    {
      "midi": 53,
      "hit": false,
      "t": 256410.00000000058,
      "d": 753.2043750000012,
      "v": 88
    },
    {
      "midi": 60,
      "hit": false,
      "t": 256410.00000000058,
      "d": 817.3068750000093,
      "v": 79
    },
    {
      "midi": 57,
      "hit": false,
      "t": 256410.00000000058,
      "d": 827.9906250000058,
      "v": 90
    },
    {
      "midi": 53,
      "hit": false,
      "t": 257181.90093750058,
      "d": 235.04250000001048,
      "v": 88
    },
    {
      "midi": 55,
      "hit": false,
      "t": 257438.3109375006,
      "d": 368.5893750000105,
      "v": 75
    },
    {
      "midi": 57,
      "hit": false,
      "t": 257820.2550000006,
      "d": 376.60218749998603,
      "v": 79
    },
    {
      "midi": 60,
      "hit": false,
      "t": 258204.87000000058,
      "d": 251.0681249999907,
      "v": 90
    },
    {
      "midi": 53,
      "hit": false,
      "t": 258461.28000000058,
      "d": 130.87593750000815,
      "v": 109
    },
    {
      "midi": 55,
      "hit": false,
      "t": 258592.1559375006,
      "d": 130.87593750000815,
      "v": 106
    },
    {
      "midi": 60,
      "hit": false,
      "t": 258696.3225000006,
      "d": 1693.374375000014,
      "v": 81
    },
    {
      "midi": 64,
      "hit": false,
      "t": 258720.3609375006,
      "d": 1610.5753125000047,
      "v": 110
    },
    {
      "midi": 55,
      "hit": false,
      "t": 258741.7284375006,
      "d": 1704.0581250000105,
      "v": 57
    },
    {
      "midi": 79,
      "hit": false,
      "t": 260760.9571875006,
      "d": 336.53812500002095,
      "v": 93
    },
    {
      "midi": 67,
      "hit": false,
      "t": 260766.29906250062,
      "d": 379.273125000007,
      "v": 99
    },
    {
      "midi": 77,
      "hit": false,
      "t": 261132.21750000064,
      "d": 349.8928125000093,
      "v": 83
    },
    {
      "midi": 65,
      "hit": false,
      "t": 261150.91406250064,
      "d": 355.2346875000221,
      "v": 83
    },
    {
      "midi": 72,
      "hit": false,
      "t": 261506.14875000066,
      "d": 395.2987499999872,
      "v": 83
    },
    {
      "midi": 60,
      "hit": false,
      "t": 261535.52906250066,
      "d": 373.9312499999942,
      "v": 106
    },
    {
      "midi": 69,
      "hit": false,
      "t": 261912.13125000065,
      "d": 355.2346875000221,
      "v": 79
    },
    {
      "midi": 57,
      "hit": false,
      "t": 261917.47312500066,
      "d": 336.53812500002095,
      "v": 81
    },
    {
      "midi": 64,
      "hit": false,
      "t": 262304.75906250067,
      "d": 1022.969062499993,
      "v": 93
    },
    {
      "midi": 55,
      "hit": false,
      "t": 262307.4300000007,
      "d": 1020.2981249999721,
      "v": 82
    },
    {
      "midi": 60,
      "hit": false,
      "t": 262312.7718750007,
      "d": 1014.9562499999884,
      "v": 61
    },
    {
      "midi": 67,
      "hit": false,
      "t": 263330.3990625007,
      "d": 181.62375000002794,
      "v": 90
    },
    {
      "midi": 60,
      "hit": false,
      "t": 263584.1381250007,
      "d": 304.4868750000023,
      "v": 93
    },
    {
      "midi": 64,
      "hit": false,
      "t": 263589.4800000007,
      "d": 296.4740624999977,
      "v": 72
    },
    {
      "midi": 55,
      "hit": false,
      "t": 263594.82187500066,
      "d": 323.1834375000326,
      "v": 81
    },
    {
      "midi": 55,
      "hit": false,
      "t": 263987.4496875007,
      "d": 269.76468750007916,
      "v": 72
    },
    {
      "midi": 62,
      "hit": false,
      "t": 263990.12062500074,
      "d": 251.0681250000489,
      "v": 88
    },
    {
      "midi": 59,
      "hit": false,
      "t": 263992.79156250076,
      "d": 251.0681250000489,
      "v": 96
    },
    {
      "midi": 60,
      "hit": false,
      "t": 264358.7100000008,
      "d": 809.2940625000629,
      "v": 73
    },
    {
      "midi": 57,
      "hit": false,
      "t": 264366.7228125008,
      "d": 785.2556250000489,
      "v": 83
    },
    {
      "midi": 53,
      "hit": false,
      "t": 264369.3937500008,
      "d": 779.913750000007,
      "v": 70
    },
    {
      "midi": 55,
      "hit": false,
      "t": 265384.35000000085,
      "d": 277.7774999999674,
      "v": 83
    },
    {
      "midi": 57,
      "hit": false,
      "t": 265643.43093750085,
      "d": 360.5765624999767,
      "v": 85
    },
    {
      "midi": 60,
      "hit": false,
      "t": 266025.3750000008,
      "d": 379.273125000007,
      "v": 68
    },
    {
      "midi": 62,
      "hit": false,
      "t": 266409.9900000008,
      "d": 269.76468750002095,
      "v": 88
    },
    {
      "midi": 60,
      "hit": false,
      "t": 266666.4000000008,
      "d": 1148.5031250000466,
      "v": 81
    },
    {
      "midi": 64,
      "hit": false,
      "t": 266666.4000000008,
      "d": 1161.857812500035,
      "v": 66
    },
    {
      "midi": 55,
      "hit": false,
      "t": 266669.0709375008,
      "d": 1135.1484375,
      "v": 63
    },
    {
      "midi": 64,
      "hit": false,
      "t": 267953.7918750008,
      "d": 416.6662499999511,
      "v": 90
    },
    {
      "midi": 55,
      "hit": false,
      "t": 267959.1337500008,
      "d": 384.6149999999907,
      "v": 73
    },
    {
      "midi": 60,
      "hit": false,
      "t": 267959.1337500008,
      "d": 430.02093749993946,
      "v": 90
    },
    {
      "midi": 60,
      "hit": false,
      "t": 268482.6375000007,
      "d": 929.4862500000163,
      "v": 96
    },
    {
      "midi": 65,
      "hit": false,
      "t": 268485.30843750073,
      "d": 833.3325000000186,
      "v": 75
    },
    {
      "midi": 57,
      "hit": false,
      "t": 268487.97937500075,
      "d": 873.3965624999837,
      "v": 75
    },
    {
      "midi": 55,
      "hit": false,
      "t": 269484.2390625007,
      "d": 259.08093749999534,
      "v": 88
    },
    {
      "midi": 57,
      "hit": false,
      "t": 269759.3456250007,
      "d": 363.2474999999977,
      "v": 85
    },
    {
      "midi": 60,
      "hit": false,
      "t": 270101.2256250007,
      "d": 349.8928125000093,
      "v": 96
    },
    {
      "midi": 62,
      "hit": false,
      "t": 270475.15687500074,
      "d": 227.02968749997672,
      "v": 77
    },
    {
      "midi": 67,
      "hit": false,
      "t": 271025.3700000007,
      "d": 347.22187499998836,
      "v": 96
    },
    {
      "midi": 60,
      "hit": false,
      "t": 271025.3700000007,
      "d": 411.3243749999674,
      "v": 96
    },
    {
      "midi": 55,
      "hit": false,
      "t": 271025.3700000007,
      "d": 419.33718749997206,
      "v": 83
    },
    {
      "midi": 62,
      "hit": false,
      "t": 271538.19000000064,
      "d": 323.1834374999744,
      "v": 83
    },
    {
      "midi": 60,
      "hit": false,
      "t": 271538.19000000064,
      "d": 325.85437499999534,
      "v": 88
    },
    {
      "midi": 55,
      "hit": false,
      "t": 271538.19000000064,
      "d": 349.8928125000093,
      "v": 69
    },
    {
      "midi": 60,
      "hit": false,
      "t": 272051.01000000065,
      "d": 387.28593750001164,
      "v": 82
    },
    {
      "midi": 55,
      "hit": false,
      "t": 272051.01000000065,
      "d": 400.640625,
      "v": 73
    },
    {
      "midi": 53,
      "hit": false,
      "t": 272563.83000000066,
      "d": 857.3709375000326,
      "v": 61
    },
    {
      "midi": 57,
      "hit": false,
      "t": 272563.83000000066,
      "d": 870.725625000021,
      "v": 73
    },
    {
      "midi": 60,
      "hit": false,
      "t": 272563.83000000066,
      "d": 889.422187499993,
      "v": 72
    },
    {
      "midi": 57,
      "hit": false,
      "t": 273592.14093750063,
      "d": 368.5893749999814,
      "v": 72
    },
    {
      "midi": 69,
      "hit": false,
      "t": 273592.14093750063,
      "d": 408.65343750000466,
      "v": 81
    },
    {
      "midi": 60,
      "hit": false,
      "t": 274107.63187500066,
      "d": 403.31156250002095,
      "v": 79
    },
    {
      "midi": 72,
      "hit": false,
      "t": 274128.99937500065,
      "d": 400.640625,
      "v": 82
    },
    {
      "midi": 62,
      "hit": false,
      "t": 274615.1100000006,
      "d": 144.2306250000256,
      "v": 70
    },
    {
      "midi": 67,
      "hit": false,
      "t": 274871.52000000066,
      "d": 368.5893750000396,
      "v": 69
    },
    {
      "midi": 64,
      "hit": false,
      "t": 274884.87468750065,
      "d": 347.22187500004657,
      "v": 72
    },
    {
      "midi": 60,
      "hit": false,
      "t": 274892.88750000065,
      "d": 229.70062499999767,
      "v": 88
    },
    {
      "midi": 62,
      "hit": false,
      "t": 275154.63937500067,
      "d": 117.5212500000489,
      "v": 83
    },
    {
      "midi": 64,
      "hit": false,
      "t": 275256.1350000007,
      "d": 109.50843749998603,
      "v": 68
    },
    {
      "midi": 67,
      "hit": false,
      "t": 275256.1350000007,
      "d": 368.5893749999814,
      "v": 69
    },
    {
      "midi": 60,
      "hit": false,
      "t": 275384.34000000067,
      "d": 112.17937500000698,
      "v": 79
    },
    {
      "midi": 62,
      "hit": false,
      "t": 275384.34000000067,
      "d": 144.2306250000256,
      "v": 77
    },
    {
      "midi": 60,
      "hit": false,
      "t": 275512.5450000007,
      "d": 114.85031250002794,
      "v": 79
    },
    {
      "midi": 62,
      "hit": false,
      "t": 275640.7500000007,
      "d": 82.79906250000931,
      "v": 91
    },
    {
      "midi": 60,
      "hit": false,
      "t": 275640.7500000007,
      "d": 114.85031250002794,
      "v": 57
    },
    {
      "midi": 67,
      "hit": false,
      "t": 275640.7500000007,
      "d": 368.5893750000396,
      "v": 69
    },
    {
      "midi": 60,
      "hit": false,
      "t": 275768.9550000007,
      "d": 114.85031250002794,
      "v": 79
    },
    {
      "midi": 64,
      "hit": false,
      "t": 275768.9550000007,
      "d": 411.3243750000256,
      "v": 79
    },
    {
      "midi": 67,
      "hit": false,
      "t": 276142.88625000074,
      "d": 336.53812499996275,
      "v": 75
    },
    {
      "midi": 62,
      "hit": false,
      "t": 276150.89906250074,
      "d": 349.8928124999511,
      "v": 83
    },
    {
      "midi": 59,
      "hit": false,
      "t": 276150.89906250074,
      "d": 368.5893749999814,
      "v": 72
    },
    {
      "midi": 60,
      "hit": false,
      "t": 276650.3643750007,
      "d": 608.9737500000047,
      "v": 66
    },
    {
      "midi": 65,
      "hit": false,
      "t": 276653.0353125007,
      "d": 608.9737500000047,
      "v": 58
    },
    {
      "midi": 57,
      "hit": false,
      "t": 276658.3771875007,
      "d": 584.9353124999907,
      "v": 65
    },
    {
      "midi": 72,
      "hit": false,
      "t": 277179.2100000007,
      "d": 397.96968750003725,
      "v": 88
    },
    {
      "midi": 72,
      "hit": false,
      "t": 277951.1109375008,
      "d": 272.4356249999837,
      "v": 81
    },
    {
      "midi": 84,
      "hit": false,
      "t": 277956.45281250076,
      "d": 251.0681249999907,
      "v": 93
    },
    {
      "midi": 71,
      "hit": false,
      "t": 278341.06781250075,
      "d": 240.38437500002328,
      "v": 99
    },
    {
      "midi": 83,
      "hit": false,
      "t": 278346.40968750074,
      "d": 211.0040625000256,
      "v": 90
    },
    {
      "midi": 67,
      "hit": false,
      "t": 278709.6571875008,
      "d": 211.0040625000256,
      "v": 93
    },
    {
      "midi": 79,
      "hit": false,
      "t": 278725.6828125008,
      "d": 202.99125000002095,
      "v": 61
    },
    {
      "midi": 79,
      "hit": false,
      "t": 279040.85343750083,
      "d": 1012.2853124999674,
      "v": 77
    },
    {
      "midi": 67,
      "hit": false,
      "t": 279040.85343750083,
      "d": 1025.6399999999558,
      "v": 90
    },
    {
      "midi": 62,
      "hit": false,
      "t": 280256.13000000076,
      "d": 136.21781250002095,
      "v": 70
    },
    {
      "midi": 55,
      "hit": false,
      "t": 280256.13000000076,
      "d": 264.42281250003725,
      "v": 68
    },
    {
      "midi": 60,
      "hit": false,
      "t": 280256.13000000076,
      "d": 264.42281250003725,
      "v": 68
    },
    {
      "midi": 64,
      "hit": false,
      "t": 280384.3350000008,
      "d": 120.19218750001164,
      "v": 81
    },
    {
      "midi": 55,
      "hit": false,
      "t": 280640.74500000075,
      "d": 264.42281249997905,
      "v": 68
    },
    {
      "midi": 60,
      "hit": false,
      "t": 280640.74500000075,
      "d": 267.09375,
      "v": 75
    },
    {
      "midi": 62,
      "hit": false,
      "t": 280640.74500000075,
      "d": 304.4868749999441,
      "v": 81
    },
    {
      "midi": 57,
      "hit": false,
      "t": 281025.3600000007,
      "d": 803.952187500021,
      "v": 73
    },
    {
      "midi": 60,
      "hit": false,
      "t": 281025.3600000007,
      "d": 827.9906249999767,
      "v": 73
    },
    {
      "midi": 53,
      "hit": false,
      "t": 281025.3600000007,
      "d": 846.6871874999488,
      "v": 64
    },
    {
      "midi": 57,
      "hit": false,
      "t": 282286.0425000007,
      "d": 267.09375,
      "v": 72
    },
    {
      "midi": 60,
      "hit": false,
      "t": 282563.8200000007,
      "d": 224.35874999995576,
      "v": 79
    },
    {
      "midi": 62,
      "hit": false,
      "t": 282806.87531250063,
      "d": 178.95281250000698,
      "v": 65
    },
    {
      "midi": 64,
      "hit": false,
      "t": 283063.2853125006,
      "d": 905.4478124999441,
      "v": 70
    },
    {
      "midi": 60,
      "hit": false,
      "t": 283073.96906250063,
      "d": 894.7640624999185,
      "v": 62
    },
    {
      "midi": 55,
      "hit": false,
      "t": 283095.3365625006,
      "d": 873.3965624999255,
      "v": 62
    },
    {
      "midi": 60,
      "hit": false,
      "t": 284096.93812500057,
      "d": 224.35875000001397,
      "v": 96
    },
    {
      "midi": 64,
      "hit": false,
      "t": 284096.93812500057,
      "d": 227.02968750003492,
      "v": 81
    },
    {
      "midi": 55,
      "hit": false,
      "t": 284099.6090625006,
      "d": 216.3459375000093,
      "v": 73
    },
    {
      "midi": 55,
      "hit": false,
      "t": 284350.6771875006,
      "d": 85.46999999997206,
      "v": 79
    },
    {
      "midi": 65,
      "hit": false,
      "t": 284478.88218750054,
      "d": 237.71343750000233,
      "v": 72
    },
    {
      "midi": 60,
      "hit": false,
      "t": 284486.89500000054,
      "d": 235.04249999998137,
      "v": 85
    },
    {
      "midi": 55,
      "hit": false,
      "t": 284737.96312500053,
      "d": 66.7734375,
      "v": 77
    },
    {
      "midi": 60,
      "hit": false,
      "t": 284847.4715625005,
      "d": 192.30749999999534,
      "v": 88
    },
    {
      "midi": 64,
      "hit": false,
      "t": 284855.4843750005,
      "d": 184.2946874999907,
      "v": 77
    },
    {
      "midi": 53,
      "hit": false,
      "t": 285106.5525000005,
      "d": 1164.5287500000559,
      "v": 64
    },
    {
      "midi": 57,
      "hit": false,
      "t": 285111.8943750005,
      "d": 1156.5159375000512,
      "v": 83
    },
    {
      "midi": 60,
      "hit": false,
      "t": 285111.8943750005,
      "d": 1175.2125000000815,
      "v": 85
    },
    {
      "midi": 64,
      "hit": false,
      "t": 285889.1371875005,
      "d": 261.7518750000163,
      "v": 79
    },
    {
      "midi": 65,
      "hit": false,
      "t": 286190.9531250005,
      "d": 333.8671875000582,
      "v": 88
    },
    {
      "midi": 64,
      "hit": false,
      "t": 286556.8715625006,
      "d": 392.62781249999534,
      "v": 75
    },
    {
      "midi": 62,
      "hit": false,
      "t": 286920.1190625006,
      "d": 160.25624999997672,
      "v": 85
    },
    {
      "midi": 55,
      "hit": false,
      "t": 287179.2000000006,
      "d": 806.6231249999837,
      "v": 77
    },
    {
      "midi": 60,
      "hit": false,
      "t": 287192.5546875006,
      "d": 841.3453125000233,
      "v": 79
    },
    {
      "midi": 64,
      "hit": false,
      "t": 287200.5675000006,
      "d": 825.319687500014,
      "v": 60
    }
  ]
}