{
  "jsonPath": "Classical/Classical/Robert Schumann/13mai-cher-mai.json",
  "path": "Classical\\Classical\\Robert Schumann\\13Mai, cher Mai.mid",
  "name": "13Mai, cher Mai",
  "difficulty": "Intermediate",
  "bpm": 10,
  "notes": [
    {
      "midi": 71,
      "hit": false,
      "t": 0,
      "d": 1500,
      "v": 127
    },
    {
      "midi": 73,
      "hit": false,
      "t": 1500,
      "d": 1500,
      "v": 127
    },
    {
      "midi": 71,
      "hit": false,
      "t": 3000,
      "d": 1500,
      "v": 127
    },
    {
      "midi": 80,
      "hit": false,
      "t": 4500,
      "d": 1500,
      "v": 127
    },
    {
      "midi": 78,
      "hit": false,
      "t": 6000,
      "d": 1500,
      "v": 127
    },
    {
      "midi": 75,
      "hit": false,
      "t": 7500,
      "d": 1500,
      "v": 127
    },
    {
      "midi": 76,
      "hit": false,
      "t": 9000,
      "d": 1500,
      "v": 127
    },
    {
      "midi": 71,
      "hit": false,
      "t": 10500,
      "d": 1500,
      "v": 127
    },
    {
      "midi": 73,
      "hit": false,
      "t": 12000,
      "d": 1500,
      "v": 127
    },
    {
      "midi": 68,
      "hit": false,
      "t": 13500,
      "d": 1500,
      "v": 127
    },
    {
      "midi": 66,
      "hit": false,
      "t": 15000,
      "d": 6000,
      "v": 127
    },
    {
      "midi": 71,
      "hit": false,
      "t": 15000,
      "d": 6000,
      "v": 127
    },
    {
      "midi": 69,
      "hit": false,
      "t": 21000,
      "d": 3000,
      "v": 127
    },
    {
      "midi": 73,
      "hit": false,
      "t": 24000,
      "d": 1500,
      "v": 127
    },
    {
      "midi": 74,
      "hit": false,
      "t": 25500,
      "d": 1500,
      "v": 127
    },
    {
      "midi": 73,
      "hit": false,
      "t": 27000,
      "d": 1500,
      "v": 127
    },
    {
      "midi": 81,
      "hit": false,
      "t": 28500,
      "d": 1500,
      "v": 127
    },
    {
      "midi": 80,
      "hit": false,
      "t": 30000,
      "d": 1500,
      "v": 127
    },
    {
      "midi": 77,
      "hit": false,
      "t": 31500,
      "d": 1500,
      "v": 127
    },
    {
      "midi": 78,
      "hit": false,
      "t": 33000,
      "d": 1500,
      "v": 127
    },
    {
      "midi": 73,
      "hit": false,
      "t": 34500,
      "d": 1500,
      "v": 127
    },
    {
      "midi": 80,
      "hit": false,
      "t": 36000,
      "d": 1500,
      "v": 127
    },
    {
      "midi": 78,
      "hit": false,
      "t": 37500,
      "d": 1500,
      "v": 127
    },
    {
      "midi": 71,
      "hit": false,
      "t": 39000,
      "d": 6000,
      "v": 127
    },
    {
      "midi": 76,
      "hit": false,
      "t": 39000,
      "d": 6000,
      "v": 127
    },
    {
      "midi": 75,
      "hit": false,
      "t": 45000,
      "d": 3000,
      "v": 127
    },
    {
      "midi": 66,
      "hit": false,
      "t": 48000,
      "d": 1500,
      "v": 127
    },
    {
      "midi": 73,
      "hit": false,
      "t": 48000,
      "d": 1500,
      "v": 127
    },
    {
      "midi": 71,
      "hit": false,
      "t": 49500,
      "d": 1500,
      "v": 127
    },
    {
      "midi": 71,
      "hit": false,
      "t": 51000,
      "d": 1500,
      "v": 127
    },
    {
      "midi": 76,
      "hit": false,
      "t": 52500,
      "d": 1500,
      "v": 127
    },
    {
      "midi": 69,
      "hit": false,
      "t": 54000,
      "d": 1500,
      "v": 127
    },
    {
      "midi": 75,
      "hit": false,
      "t": 54000,
      "d": 1500,
      "v": 127
    },
    {
      "midi": 73,
      "hit": false,
      "t": 55500,
      "d": 1500,
      "v": 127
    },
    {
      "midi": 71,
      "hit": false,
      "t": 57000,
      "d": 3000,
      "v": 127
    },
    {
      "midi": 66,
      "hit": false,
      "t": 60000,
      "d": 1500,
      "v": 127
    },
    {
      "midi": 73,
      "hit": false,
      "t": 60000,
      "d": 1500,
      "v": 127
    },
    {
      "midi": 75,
      "hit": false,
      "t": 60000,
      "d": 1500,
      "v": 127
    },
    {
      "midi": 71,
      "hit": false,
      "t": 61500,
      "d": 1500,
      "v": 127
    },
    {
      "midi": 71,
      "hit": false,
      "t": 63000,
      "d": 1500,
      "v": 127
    },
    {
      "midi": 76,
      "hit": false,
      "t": 64500,
      "d": 1500,
      "v": 127
    },
    {
      "midi": 69,
      "hit": false,
      "t": 66000,
      "d": 1500,
      "v": 127
    },
    {
      "midi": 75,
      "hit": false,
      "t": 66000,
      "d": 1500,
      "v": 127
    },
    {
      "midi": 73,
      "hit": false,
      "t": 67500,
      "d": 1500,
      "v": 127
    },
    {
      "midi": 71,
      "hit": false,
      "t": 69000,
      "d": 3000,
      "v": 127
    },
    {
      "midi": 66,
      "hit": false,
      "t": 72000,
      "d": 1500,
      "v": 127
    },
    {
      "midi": 73,
      "hit": false,
      "t": 72000,
      "d": 1500,
      "v": 127
    },
    {
      "midi": 71,
      "hit": false,
      "t": 73500,
      "d": 1500,
      "v": 127
    },
    {
      "midi": 71,
      "hit": false,
      "t": 75000,
      "d": 1500,
      "v": 127
    },
    {
      "midi": 83,
      "hit": false,
      "t": 76500,
      "d": 1500,
      "v": 127
    },
    {
      "midi": 82,
      "hit": false,
      "t": 78000,
      "d": 1500,
      "v": 127
    },
    {
      "midi": 80,
      "hit": false,
      "t": 79500,
      "d": 1500,
      "v": 127
    },
    {
      "midi": 73,
      "hit": false,
      "t": 81000,
      "d": 1500,
      "v": 127
    },
    {
      "midi": 78,
      "hit": false,
      "t": 81000,
      "d": 1500,
      "v": 127
    },
    {
      "midi": 74,
      "hit": false,
      "t": 82500,
      "d": 1500,
      "v": 127
    },
    {
      "midi": 75,
      "hit": false,
      "t": 84000,
      "d": 1500,
      "v": 127
    },
    {
      "midi": 71,
      "hit": false,
      "t": 85500,
      "d": 1500,
      "v": 127
    },
    {
      "midi": 66,
      "hit": false,
      "t": 87000,
      "d": 3000,
      "v": 127
    },
    {
      "midi": 71,
      "hit": false,
      "t": 87000,
      "d": 3000,
      "v": 127
    },
    {
      "midi": 75,
      "hit": false,
      "t": 87000,
      "d": 3000,
      "v": 127
    },
    {
      "midi": 64,
      "hit": false,
      "t": 90000,
      "d": 3000,
      "v": 127
    },
    {
      "midi": 70,
      "hit": false,
      "t": 90000,
      "d": 3000,
      "v": 127
    },
    {
      "midi": 73,
      "hit": false,
      "t": 90000,
      "d": 3000,
      "v": 127
    },
    {
      "midi": 63,
      "hit": false,
      "t": 93000,
      "d": 3000,
      "v": 127
    },
    {
      "midi": 71,
      "hit": false,
      "t": 93000,
      "d": 3000,
      "v": 127
    },
    {
      "midi": 68,
      "hit": false,
      "t": 96000,
      "d": 1500,
      "v": 127
    },
    {
      "midi": 71,
      "hit": false,
      "t": 96000,
      "d": 1500,
      "v": 127
    },
    {
      "midi": 73,
      "hit": false,
      "t": 96000,
      "d": 1500,
      "v": 127
    },
    {
      "midi": 75,
      "hit": false,
      "t": 96000,
      "d": 1500,
      "v": 127
    },
    {
      "midi": 71,
      "hit": false,
      "t": 97500,
      "d": 1500,
      "v": 127
    },
    {
      "midi": 71,
      "hit": false,
      "t": 99000,
      "d": 1500,
      "v": 127
    },
    {
      "midi": 83,
      "hit": false,
      "t": 100500,
      "d": 1500,
      "v": 127
    },
    {
      "midi": 82,
      "hit": false,
      "t": 102000,
      "d": 1500,
      "v": 127
    },
    {
      "midi": 80,
      "hit": false,
      "t": 103500,
      "d": 1500,
      "v": 127
    },
    {
      "midi": 78,
      "hit": false,
      "t": 105000,
      "d": 1500,
      "v": 127
    },
    {
      "midi": 75,
      "hit": false,
      "t": 106500,
      "d": 1500,
      "v": 127
    },
    {
      "midi": 71,
      "hit": false,
      "t": 108000,
      "d": 1500,
      "v": 127
    },
    {
      "midi": 76,
      "hit": false,
      "t": 109500,
      "d": 1500,
      "v": 127
    },
    {
      "midi": 64,
      "hit": false,
      "t": 111000,
      "d": 3000,
      "v": 127
    },
    {
      "midi": 70,
      "hit": false,
      "t": 111000,
      "d": 3000,
      "v": 127
    },
    {
      "midi": 75,
      "hit": false,
      "t": 111000,
      "d": 3000,
      "v": 127
    },
    {
      "midi": 66,
      "hit": false,
      "t": 114000,
      "d": 3000,
      "v": 127
    },
    {
      "midi": 70,
      "hit": false,
      "t": 114000,
      "d": 3000,
      "v": 127
    },
    {
      "midi": 73,
      "hit": false,
      "t": 114000,
      "d": 3000,
      "v": 127
    },
    {
      "midi": 66,
      "hit": false,
      "t": 117000,
      "d": 3000,
      "v": 127
    },
    {
      "midi": 71,
      "hit": false,
      "t": 117000,
      "d": 3000,
      "v": 127
    },
    {
      "midi": 71,
      "hit": false,
      "t": 120000,
      "d": 1500,
      "v": 127
    },
    {
      "midi": 73,
      "hit": false,
      "t": 121500,
      "d": 1500,
      "v": 127
    },
    {
      "midi": 71,
      "hit": false,
      "t": 123000,
      "d": 1500,
      "v": 127
    },
    {
      "midi": 80,
      "hit": false,
      "t": 124500,
      "d": 1500,
      "v": 127
    },
    {
      "midi": 78,
      "hit": false,
      "t": 126000,
      "d": 1500,
      "v": 127
    },
    {
      "midi": 75,
      "hit": false,
      "t": 127500,
      "d": 1500,
      "v": 127
    },
    {
      "midi": 76,
      "hit": false,
      "t": 129000,
      "d": 1500,
      "v": 127
    },
    {
      "midi": 71,
      "hit": false,
      "t": 130500,
      "d": 1500,
      "v": 127
    },
    {
      "midi": 73,
      "hit": false,
      "t": 132000,
      "d": 1500,
      "v": 127
    },
    {
      "midi": 68,
      "hit": false,
      "t": 133500,
      "d": 1500,
      "v": 127
    },
    {
      "midi": 66,
      "hit": false,
      "t": 135000,
      "d": 6000,
      "v": 127
    },
    {
      "midi": 71,
      "hit": false,
      "t": 135000,
      "d": 6000,
      "v": 127
    },
    {
      "midi": 69,
      "hit": false,
      "t": 141000,
      "d": 3000,
      "v": 127
    },
    {
      "midi": 73,
      "hit": false,
      "t": 144000,
      "d": 1500,
      "v": 127
    },
    {
      "midi": 74,
      "hit": false,
      "t": 145500,
      "d": 1500,
      "v": 127
    },
    {
      "midi": 73,
      "hit": false,
      "t": 147000,
      "d": 1500,
      "v": 127
    },
    {
      "midi": 81,
      "hit": false,
      "t": 148500,
      "d": 1500,
      "v": 127
    },
    {
      "midi": 80,
      "hit": false,
      "t": 150000,
      "d": 1500,
      "v": 127
    },
    {
      "midi": 77,
      "hit": false,
      "t": 151500,
      "d": 1500,
      "v": 127
    },
    {
      "midi": 78,
      "hit": false,
      "t": 153000,
      "d": 1500,
      "v": 127
    },
    {
      "midi": 73,
      "hit": false,
      "t": 154500,
      "d": 1500,
      "v": 127
    },
    {
      "midi": 80,
      "hit": false,
      "t": 156000,
      "d": 1500,
      "v": 127
    },
    {
      "midi": 78,
      "hit": false,
      "t": 157500,
      "d": 1500,
      "v": 127
    },
    {
      "midi": 71,
      "hit": false,
      "t": 159000,
      "d": 6000,
      "v": 127
    },
    {
      "midi": 76,
      "hit": false,
      "t": 159000,
      "d": 6000,
      "v": 127
    },
    {
      "midi": 75,
      "hit": false,
      "t": 165000,
      "d": 3000,
      "v": 127
    },
    {
      "midi": 66,
      "hit": false,
      "t": 168000,
      "d": 1500,
      "v": 127
    },
    {
      "midi": 73,
      "hit": false,
      "t": 168000,
      "d": 1500,
      "v": 127
    },
    {
      "midi": 71,
      "hit": false,
      "t": 169500,
      "d": 1500,
      "v": 127
    },
    {
      "midi": 71,
      "hit": false,
      "t": 171000,
      "d": 1500,
      "v": 127
    },
    {
      "midi": 76,
      "hit": false,
      "t": 172500,
      "d": 1500,
      "v": 127
    },
    {
      "midi": 69,
      "hit": false,
      "t": 174000,
      "d": 1500,
      "v": 127
    },
    {
      "midi": 75,
      "hit": false,
      "t": 174000,
      "d": 1500,
      "v": 127
    },
    {
      "midi": 73,
      "hit": false,
      "t": 175500,
      "d": 1500,
      "v": 127
    },
    {
      "midi": 71,
      "hit": false,
      "t": 177000,
      "d": 3000,
      "v": 127
    },
    {
      "midi": 66,
      "hit": false,
      "t": 180000,
      "d": 1500,
      "v": 127
    },
    {
      "midi": 73,
      "hit": false,
      "t": 180000,
      "d": 1500,
      "v": 127
    },
    {
      "midi": 75,
      "hit": false,
      "t": 180000,
      "d": 1500,
      "v": 127
    },
    {
      "midi": 71,
      "hit": false,
      "t": 181500,
      "d": 1500,
      "v": 127
    },
    {
      "midi": 71,
      "hit": false,
      "t": 183000,
      "d": 1500,
      "v": 127
    },
    {
      "midi": 76,
      "hit": false,
      "t": 184500,
      "d": 1500,
      "v": 127
    },
    {
      "midi": 69,
      "hit": false,
      "t": 186000,
      "d": 1500,
      "v": 127
    },
    {
      "midi": 75,
      "hit": false,
      "t": 186000,
      "d": 1500,
      "v": 127
    },
    {
      "midi": 73,
      "hit": false,
      "t": 187500,
      "d": 1500,
      "v": 127
    },
    {
      "midi": 71,
      "hit": false,
      "t": 189000,
      "d": 3000,
      "v": 127
    },
    {
      "midi": 66,
      "hit": false,
      "t": 192000,
      "d": 1500,
      "v": 127
    },
    {
      "midi": 73,
      "hit": false,
      "t": 192000,
      "d": 1500,
      "v": 127
    },
    {
      "midi": 71,
      "hit": false,
      "t": 193500,
      "d": 1500,
      "v": 127
    },
    {
      "midi": 71,
      "hit": false,
      "t": 195000,
      "d": 1500,
      "v": 127
    },
    {
      "midi": 83,
      "hit": false,
      "t": 196500,
      "d": 1500,
      "v": 127
    },
    {
      "midi": 82,
      "hit": false,
      "t": 198000,
      "d": 1500,
      "v": 127
    },
    {
      "midi": 80,
      "hit": false,
      "t": 199500,
      "d": 1500,
      "v": 127
    },
    {
      "midi": 73,
      "hit": false,
      "t": 201000,
      "d": 1500,
      "v": 127
    },
    {
      "midi": 78,
      "hit": false,
      "t": 201000,
      "d": 1500,
      "v": 127
    },
    {
      "midi": 74,
      "hit": false,
      "t": 202500,
      "d": 1500,
      "v": 127
    },
    {
      "midi": 75,
      "hit": false,
      "t": 204000,
      "d": 1500,
      "v": 127
    },
    {
      "midi": 71,
      "hit": false,
      "t": 205500,
      "d": 1500,
      "v": 127
    },
    {
      "midi": 66,
      "hit": false,
      "t": 207000,
      "d": 3000,
      "v": 127
    },
    {
      "midi": 71,
      "hit": false,
      "t": 207000,
      "d": 3000,
      "v": 127
    },
    {
      "midi": 75,
      "hit": false,
      "t": 207000,
      "d": 3000,
      "v": 127
    },
    {
      "midi": 64,
      "hit": false,
      "t": 210000,
      "d": 3000,
      "v": 127
    },
    {
      "midi": 70,
      "hit": false,
      "t": 210000,
      "d": 3000,
      "v": 127
    },
    {
      "midi": 73,
      "hit": false,
      "t": 210000,
      "d": 3000,
      "v": 127
    },
    {
      "midi": 63,
      "hit": false,
      "t": 213000,
      "d": 3000,
      "v": 127
    },
    {
      "midi": 71,
      "hit": false,
      "t": 213000,
      "d": 3000,
      "v": 127
    },
    {
      "midi": 68,
      "hit": false,
      "t": 216000,
      "d": 1500,
      "v": 127
    },
    {
      "midi": 71,
      "hit": false,
      "t": 216000,
      "d": 1500,
      "v": 127
    },
    {
      "midi": 73,
      "hit": false,
      "t": 216000,
      "d": 1500,
      "v": 127
    },
    {
      "midi": 75,
      "hit": false,
      "t": 216000,
      "d": 1500,
      "v": 127
    },
    {
      "midi": 71,
      "hit": false,
      "t": 217500,
      "d": 1500,
      "v": 127
    },
    {
      "midi": 71,
      "hit": false,
      "t": 219000,
      "d": 1500,
      "v": 127
    },
    {
      "midi": 83,
      "hit": false,
      "t": 220500,
      "d": 1500,
      "v": 127
    },
    {
      "midi": 82,
      "hit": false,
      "t": 222000,
      "d": 1500,
      "v": 127
    },
    {
      "midi": 80,
      "hit": false,
      "t": 223500,
      "d": 1500,
      "v": 127
    },
    {
      "midi": 78,
      "hit": false,
      "t": 225000,
      "d": 1500,
      "v": 127
    },
    {
      "midi": 75,
      "hit": false,
      "t": 226500,
      "d": 1500,
      "v": 127
    },
    {
      "midi": 71,
      "hit": false,
      "t": 228000,
      "d": 1500,
      "v": 127
    },
    {
      "midi": 76,
      "hit": false,
      "t": 229500,
      "d": 1500,
      "v": 127
    },
    {
      "midi": 64,
      "hit": false,
      "t": 231000,
      "d": 3000,
      "v": 127
    },
    {
      "midi": 70,
      "hit": false,
      "t": 231000,
      "d": 3000,
      "v": 127
    },
    {
      "midi": 75,
      "hit": false,
      "t": 231000,
      "d": 3000,
      "v": 127
    },
    {
      "midi": 66,
      "hit": false,
      "t": 234000,
      "d": 3000,
      "v": 127
    },
    {
      "midi": 70,
      "hit": false,
      "t": 234000,
      "d": 3000,
      "v": 127
    },
    {
      "midi": 73,
      "hit": false,
      "t": 234000,
      "d": 3000,
      "v": 127
    },
    {
      "midi": 66,
      "hit": false,
      "t": 237000,
      "d": 3000,
      "v": 127
    },
    {
      "midi": 71,
      "hit": false,
      "t": 237000,
      "d": 3000,
      "v": 127
    },
    {
      "midi": 66,
      "hit": false,
      "t": 240000,
      "d": 1500,
      "v": 127
    },
    {
      "midi": 73,
      "hit": false,
      "t": 240000,
      "d": 1500,
      "v": 127
    },
    {
      "midi": 74,
      "hit": false,
      "t": 240000,
      "d": 1500,
      "v": 127
    },
    {
      "midi": 71,
      "hit": false,
      "t": 241500,
      "d": 1500,
      "v": 127
    },
    {
      "midi": 71,
      "hit": false,
      "t": 243000,
      "d": 1500,
      "v": 127
    },
    {
      "midi": 74,
      "hit": false,
      "t": 244500,
      "d": 1500,
      "v": 127
    },
    {
      "midi": 65,
      "hit": false,
      "t": 246000,
      "d": 1500,
      "v": 127
    },
    {
      "midi": 73,
      "hit": false,
      "t": 246000,
      "d": 1500,
      "v": 127
    },
    {
      "midi": 68,
      "hit": false,
      "t": 247500,
      "d": 1500,
      "v": 127
    },
    {
      "midi": 71,
      "hit": false,
      "t": 249000,
      "d": 1500,
      "v": 127
    },
    {
      "midi": 69,
      "hit": false,
      "t": 250500,
      "d": 1500,
      "v": 127
    },
    {
      "midi": 76,
      "hit": false,
      "t": 252000,
      "d": 1500,
      "v": 127
    },
    {
      "midi": 74,
      "hit": false,
      "t": 253500,
      "d": 1500,
      "v": 127
    },
    {
      "midi": 74,
      "hit": false,
      "t": 255000,
      "d": 1500,
      "v": 127
    },
    {
      "midi": 78,
      "hit": false,
      "t": 256500,
      "d": 1500,
      "v": 127
    },
    {
      "midi": 76,
      "hit": false,
      "t": 258000,
      "d": 1500,
      "v": 127
    },
    {
      "midi": 71,
      "hit": false,
      "t": 259500,
      "d": 1500,
      "v": 127
    },
    {
      "midi": 74,
      "hit": false,
      "t": 261000,
      "d": 1500,
      "v": 127
    },
    {
      "midi": 73,
      "hit": false,
      "t": 262500,
      "d": 1500,
      "v": 127
    },
    {
      "midi": 73,
      "hit": false,
      "t": 264000,
      "d": 1500,
      "v": 127
    },
    {
      "midi": 76,
      "hit": false,
      "t": 264000,
      "d": 1500,
      "v": 127
    },
    {
      "midi": 73,
      "hit": false,
      "t": 265500,
      "d": 1500,
      "v": 127
    },
    {
      "midi": 78,
      "hit": false,
      "t": 265500,
      "d": 1500,
      "v": 127
    },
    {
      "midi": 73,
      "hit": false,
      "t": 267000,
      "d": 1500,
      "v": 127
    },
    {
      "midi": 76,
      "hit": false,
      "t": 267000,
      "d": 1500,
      "v": 127
    },
    {
      "midi": 85,
      "hit": false,
      "t": 268500,
      "d": 1500,
      "v": 127
    },
    {
      "midi": 83,
      "hit": false,
      "t": 270000,
      "d": 1500,
      "v": 127
    },
    {
      "midi": 80,
      "hit": false,
      "t": 271500,
      "d": 1500,
      "v": 127
    },
    {
      "midi": 81,
      "hit": false,
      "t": 273000,
      "d": 1500,
      "v": 127
    },
    {
      "midi": 73,
      "hit": false,
      "t": 274500,
      "d": 1500,
      "v": 127
    },
    {
      "midi": 80,
      "hit": false,
      "t": 276000,
      "d": 1500,
      "v": 127
    },
    {
      "midi": 78,
      "hit": false,
      "t": 277500,
      "d": 1500,
      "v": 127
    },
    {
      "midi": 76,
      "hit": false,
      "t": 279000,
      "d": 1500,
      "v": 127
    },
    {
      "midi": 75,
      "hit": false,
      "t": 280500,
      "d": 1500,
      "v": 127
    },
    {
      "midi": 73,
      "hit": false,
      "t": 282000,
      "d": 1500,
      "v": 127
    },
    {
      "midi": 71,
      "hit": false,
      "t": 283500,
      "d": 1500,
      "v": 127
    },
    {
      "midi": 71,
      "hit": false,
      "t": 285000,
      "d": 1500,
      "v": 127
    },
    {
      "midi": 69,
      "hit": false,
      "t": 286500,
      "d": 1500,
      "v": 127
    },
    {
      "midi": 68,
      "hit": false,
      "t": 288000,
      "d": 1500,
      "v": 127
    },
    {
      "midi": 71,
      "hit": false,
      "t": 288000,
      "d": 1500,
      "v": 127
    },
    {
      "midi": 66,
      "hit": false,
      "t": 289500,
      "d": 1500,
      "v": 127
    },
    {
      "midi": 73,
      "hit": false,
      "t": 289500,
      "d": 1500,
      "v": 127
    },
    {
      "midi": 68,
      "hit": false,
      "t": 291000,
      "d": 1500,
      "v": 127
    },
    {
      "midi": 71,
      "hit": false,
      "t": 291000,
      "d": 1500,
      "v": 127
    },
    {
      "midi": 80,
      "hit": false,
      "t": 292500,
      "d": 1500,
      "v": 127
    },
    {
      "midi": 78,
      "hit": false,
      "t": 294000,
      "d": 1500,
      "v": 127
    },
    {
      "midi": 75,
      "hit": false,
      "t": 295500,
      "d": 1500,
      "v": 127
    },
    {
      "midi": 76,
      "hit": false,
      "t": 297000,
      "d": 1500,
      "v": 127
    },
    {
      "midi": 71,
      "hit": false,
      "t": 298500,
      "d": 1500,
      "v": 127
    },
    {
      "midi": 73,
      "hit": false,
      "t": 300000,
      "d": 1500,
      "v": 127
    },
    {
      "midi": 68,
      "hit": false,
      "t": 301500,
      "d": 1500,
      "v": 127
    },
    {
      "midi": 66,
      "hit": false,
      "t": 303000,
      "d": 6000,
      "v": 127
    },
    {
      "midi": 71,
      "hit": false,
      "t": 303000,
      "d": 6000,
      "v": 127
    },
    {
      "midi": 69,
      "hit": false,
      "t": 309000,
      "d": 3000,
      "v": 127
    },
    {
      "midi": 73,
      "hit": false,
      "t": 312000,
      "d": 1500,
      "v": 127
    },
    {
      "midi": 74,
      "hit": false,
      "t": 313500,
      "d": 1500,
      "v": 127
    },
    {
      "midi": 73,
      "hit": false,
      "t": 315000,
      "d": 1500,
      "v": 127
    },
    {
      "midi": 81,
      "hit": false,
      "t": 316500,
      "d": 1500,
      "v": 127
    },
    {
      "midi": 80,
      "hit": false,
      "t": 318000,
      "d": 1500,
      "v": 127
    },
    {
      "midi": 77,
      "hit": false,
      "t": 319500,
      "d": 1500,
      "v": 127
    },
    {
      "midi": 78,
      "hit": false,
      "t": 321000,
      "d": 1500,
      "v": 127
    },
    {
      "midi": 73,
      "hit": false,
      "t": 322500,
      "d": 1500,
      "v": 127
    },
    {
      "midi": 80,
      "hit": false,
      "t": 324000,
      "d": 1500,
      "v": 127
    },
    {
      "midi": 78,
      "hit": false,
      "t": 325500,
      "d": 1500,
      "v": 127
    },
    {
      "midi": 71,
      "hit": false,
      "t": 327000,
      "d": 6000,
      "v": 127
    },
    {
      "midi": 76,
      "hit": false,
      "t": 327000,
      "d": 6000,
      "v": 127
    },
    {
      "midi": 75,
      "hit": false,
      "t": 333000,
      "d": 3000,
      "v": 127
    },
    {
      "midi": 66,
      "hit": false,
      "t": 336000,
      "d": 1500,
      "v": 127
    },
    {
      "midi": 73,
      "hit": false,
      "t": 336000,
      "d": 1500,
      "v": 127
    },
    {
      "midi": 71,
      "hit": false,
      "t": 337500,
      "d": 1500,
      "v": 127
    },
    {
      "midi": 71,
      "hit": false,
      "t": 339000,
      "d": 1500,
      "v": 127
    },
    {
      "midi": 76,
      "hit": false,
      "t": 340500,
      "d": 1500,
      "v": 127
    },
    {
      "midi": 69,
      "hit": false,
      "t": 342000,
      "d": 1500,
      "v": 127
    },
    {
      "midi": 75,
      "hit": false,
      "t": 342000,
      "d": 1500,
      "v": 127
    },
    {
      "midi": 73,
      "hit": false,
      "t": 343500,
      "d": 1500,
      "v": 127
    },
    {
      "midi": 71,
      "hit": false,
      "t": 345000,
      "d": 3000,
      "v": 127
    },
    {
      "midi": 66,
      "hit": false,
      "t": 348000,
      "d": 1500,
      "v": 127
    },
    {
      "midi": 73,
      "hit": false,
      "t": 348000,
      "d": 1500,
      "v": 127
    },
    {
      "midi": 75,
      "hit": false,
      "t": 348000,
      "d": 1500,
      "v": 127
    },
    {
      "midi": 71,
      "hit": false,
      "t": 349500,
      "d": 1500,
      "v": 127
    },
    {
      "midi": 71,
      "hit": false,
      "t": 351000,
      "d": 1500,
      "v": 127
    },
    {
      "midi": 76,
      "hit": false,
      "t": 352500,
      "d": 1500,
      "v": 127
    },
    {
      "midi": 69,
      "hit": false,
      "t": 354000,
      "d": 1500,
      "v": 127
    },
    {
      "midi": 75,
      "hit": false,
      "t": 354000,
      "d": 1500,
      "v": 127
    },
    {
      "midi": 73,
      "hit": false,
      "t": 355500,
      "d": 1500,
      "v": 127
    },
    {
      "midi": 71,
      "hit": false,
      "t": 357000,
      "d": 3000,
      "v": 127
    },
    {
      "midi": 66,
      "hit": false,
      "t": 360000,
      "d": 1500,
      "v": 127
    },
    {
      "midi": 73,
      "hit": false,
      "t": 360000,
      "d": 1500,
      "v": 127
    },
    {
      "midi": 71,
      "hit": false,
      "t": 361500,
      "d": 1500,
      "v": 127
    },
    {
      "midi": 71,
      "hit": false,
      "t": 363000,
      "d": 1500,
      "v": 127
    },
    {
      "midi": 80,
      "hit": false,
      "t": 364500,
      "d": 1500,
      "v": 127
    },
    {
      "midi": 78,
      "hit": false,
      "t": 366000,
      "d": 1500,
      "v": 127
    },
    {
      "midi": 75,
      "hit": false,
      "t": 367500,
      "d": 1500,
      "v": 127
    },
    {
      "midi": 68,
      "hit": false,
      "t": 369000,
      "d": 1500,
      "v": 127
    },
    {
      "midi": 76,
      "hit": false,
      "t": 370500,
      "d": 1500,
      "v": 127
    },
    {
      "midi": 75,
      "hit": false,
      "t": 372000,
      "d": 1500,
      "v": 127
    },
    {
      "midi": 72,
      "hit": false,
      "t": 373500,
      "d": 1500,
      "v": 127
    },
    {
      "midi": 64,
      "hit": false,
      "t": 375000,
      "d": 1500,
      "v": 127
    },
    {
      "midi": 73,
      "hit": false,
      "t": 376500,
      "d": 1500,
      "v": 127
    },
    {
      "midi": 71,
      "hit": false,
      "t": 378000,
      "d": 1500,
      "v": 127
    },
    {
      "midi": 68,
      "hit": false,
      "t": 379500,
      "d": 1500,
      "v": 127
    },
    {
      "midi": 69,
      "hit": false,
      "t": 381000,
      "d": 3000,
      "v": 127
    },
    {
      "midi": 66,
      "hit": false,
      "t": 384000,
      "d": 1500,
      "v": 127
    },
    {
      "midi": 64,
      "hit": false,
      "t": 385500,
      "d": 1500,
      "v": 127
    },
    {
      "midi": 63,
      "hit": false,
      "t": 387000,
      "d": 1500,
      "v": 127
    },
    {
      "midi": 66,
      "hit": false,
      "t": 388500,
      "d": 1500,
      "v": 127
    },
    {
      "midi": 69,
      "hit": false,
      "t": 390000,
      "d": 1500,
      "v": 127
    },
    {
      "midi": 73,
      "hit": false,
      "t": 391500,
      "d": 1500,
      "v": 127
    },
    {
      "midi": 73,
      "hit": false,
      "t": 393000,
      "d": 1500,
      "v": 127
    },
    {
      "midi": 71,
      "hit": false,
      "t": 394500,
      "d": 1500,
      "v": 127
    },
    {
      "midi": 73,
      "hit": false,
      "t": 396000,
      "d": 1500,
      "v": 127
    },
    {
      "midi": 78,
      "hit": false,
      "t": 397500,
      "d": 1500,
      "v": 127
    },
    {
      "midi": 78,
      "hit": false,
      "t": 399000,
      "d": 1500,
      "v": 127
    },
    {
      "midi": 71,
      "hit": false,
      "t": 400500,
      "d": 1500,
      "v": 127
    },
    {
      "midi": 73,
      "hit": false,
      "t": 402000,
      "d": 1500,
      "v": 127
    },
    {
      "midi": 73,
      "hit": false,
      "t": 403500,
      "d": 1500,
      "v": 127
    },
    {
      "midi": 75,
      "hit": false,
      "t": 403500,
      "d": 1500,
      "v": 127
    },
    {
      "midi": 76,
      "hit": false,
      "t": 405000,
      "d": 1500,
      "v": 127
    },
    {
      "midi": 71,
      "hit": false,
      "t": 406500,
      "d": 1500,
      "v": 127
    },
    {
      "midi": 83,
      "hit": false,
      "t": 408000,
      "d": 1500,
      "v": 127
    },
    {
      "midi": 76,
      "hit": false,
      "t": 409500,
      "d": 1500,
      "v": 127
    },
    {
      "midi": 76,
      "hit": false,
      "t": 411000,
      "d": 1500,
      "v": 127
    },
    {
      "midi": 74,
      "hit": false,
      "t": 412500,
      "d": 1500,
      "v": 127
    },
    {
      "midi": 73,
      "hit": false,
      "t": 414000,
      "d": 1500,
      "v": 127
    },
    {
      "midi": 81,
      "hit": false,
      "t": 414000,
      "d": 1500,
      "v": 127
    },
    {
      "midi": 71,
      "hit": false,
      "t": 415500,
      "d": 1500,
      "v": 127
    },
    {
      "midi": 80,
      "hit": false,
      "t": 415500,
      "d": 1500,
      "v": 127
    },
    {
      "midi": 78,
      "hit": false,
      "t": 417000,
      "d": 1500,
      "v": 127
    },
    {
      "midi": 73,
      "hit": false,
      "t": 418500,
      "d": 1500,
      "v": 127
    },
    {
      "midi": 75,
      "hit": false,
      "t": 420000,
      "d": 1500,
      "v": 127
    },
    {
      "midi": 76,
      "hit": false,
      "t": 421500,
      "d": 1500,
      "v": 127
    },
    {
      "midi": 76,
      "hit": false,
      "t": 423000,
      "d": 1500,
      "v": 127
    },
    {
      "midi": 73,
      "hit": false,
      "t": 424500,
      "d": 1500,
      "v": 127
    },
    {
      "midi": 75,
      "hit": false,
      "t": 426000,
      "d": 1500,
      "v": 127
    },
    {
      "midi": 69,
      "hit": false,
      "t": 427500,
      "d": 1500,
      "v": 127
    },
    {
      "midi": 76,
      "hit": false,
      "t": 429000,
      "d": 1500,
      "v": 127
    },
    {
      "midi": 68,
      "hit": false,
      "t": 430500,
      "d": 1500,
      "v": 127
    },
    {
      "midi": 66,
      "hit": false,
      "t": 432000,
      "d": 1500,
      "v": 127
    },
    {
      "midi": 73,
      "hit": false,
      "t": 432000,
      "d": 1500,
      "v": 127
    },
    {
      "midi": 74,
      "hit": false,
      "t": 432000,
      "d": 1500,
      "v": 127
    },
    {
      "midi": 71,
      "hit": false,
      "t": 433500,
      "d": 1500,
      "v": 127
    },
    {
      "midi": 71,
      "hit": false,
      "t": 435000,
      "d": 1500,
      "v": 127
    },
    {
      "midi": 74,
      "hit": false,
      "t": 436500,
      "d": 1500,
      "v": 127
    },
    {
      "midi": 65,
      "hit": false,
      "t": 438000,
      "d": 1500,
      "v": 127
    },
    {
      "midi": 73,
      "hit": false,
      "t": 438000,
      "d": 1500,
      "v": 127
    },
    {
      "midi": 68,
      "hit": false,
      "t": 439500,
      "d": 1500,
      "v": 127
    },
    {
      "midi": 71,
      "hit": false,
      "t": 441000,
      "d": 1500,
      "v": 127
    },
    {
      "midi": 69,
      "hit": false,
      "t": 442500,
      "d": 1500,
      "v": 127
    },
    {
      "midi": 76,
      "hit": false,
      "t": 444000,
      "d": 1500,
      "v": 127
    },
    {
      "midi": 74,
      "hit": false,
      "t": 445500,
      "d": 1500,
      "v": 127
    },
    {
      "midi": 74,
      "hit": false,
      "t": 447000,
      "d": 1500,
      "v": 127
    },
    {
      "midi": 78,
      "hit": false,
      "t": 448500,
      "d": 1500,
      "v": 127
    },
    {
      "midi": 76,
      "hit": false,
      "t": 450000,
      "d": 1500,
      "v": 127
    },
    {
      "midi": 71,
      "hit": false,
      "t": 451500,
      "d": 1500,
      "v": 127
    },
    {
      "midi": 74,
      "hit": false,
      "t": 453000,
      "d": 1500,
      "v": 127
    },
    {
      "midi": 73,
      "hit": false,
      "t": 454500,
      "d": 1500,
      "v": 127
    },
    {
      "midi": 73,
      "hit": false,
      "t": 456000,
      "d": 1500,
      "v": 127
    },
    {
      "midi": 76,
      "hit": false,
      "t": 456000,
      "d": 1500,
      "v": 127
    },
    {
      "midi": 73,
      "hit": false,
      "t": 457500,
      "d": 1500,
      "v": 127
    },
    {
      "midi": 78,
      "hit": false,
      "t": 457500,
      "d": 1500,
      "v": 127
    },
    {
      "midi": 73,
      "hit": false,
      "t": 459000,
      "d": 1500,
      "v": 127
    },
    {
      "midi": 76,
      "hit": false,
      "t": 459000,
      "d": 1500,
      "v": 127
    },
    {
      "midi": 85,
      "hit": false,
      "t": 460500,
      "d": 1500,
      "v": 127
    },
    {
      "midi": 83,
      "hit": false,
      "t": 462000,
      "d": 1500,
      "v": 127
    },
    {
      "midi": 80,
      "hit": false,
      "t": 463500,
      "d": 1500,
      "v": 127
    },
    {
      "midi": 81,
      "hit": false,
      "t": 465000,
      "d": 1500,
      "v": 127
    },
    {
      "midi": 73,
      "hit": false,
      "t": 466500,
      "d": 1500,
      "v": 127
    },
    {
      "midi": 80,
      "hit": false,
      "t": 468000,
      "d": 1500,
      "v": 127
    },
    {
      "midi": 78,
      "hit": false,
      "t": 469500,
      "d": 1500,
      "v": 127
    },
    {
      "midi": 76,
      "hit": false,
      "t": 471000,
      "d": 1500,
      "v": 127
    },
    {
      "midi": 75,
      "hit": false,
      "t": 472500,
      "d": 1500,
      "v": 127
    },
    {
      "midi": 73,
      "hit": false,
      "t": 474000,
      "d": 1500,
      "v": 127
    },
    {
      "midi": 71,
      "hit": false,
      "t": 475500,
      "d": 1500,
      "v": 127
    },
    {
      "midi": 71,
      "hit": false,
      "t": 477000,
      "d": 1500,
      "v": 127
    },
    {
      "midi": 69,
      "hit": false,
      "t": 478500,
      "d": 1500,
      "v": 127
    },
    {
      "midi": 68,
      "hit": false,
      "t": 480000,
      "d": 1500,
      "v": 127
    },
    {
      "midi": 71,
      "hit": false,
      "t": 480000,
      "d": 1500,
      "v": 127
    },
    {
      "midi": 66,
      "hit": false,
      "t": 481500,
      "d": 1500,
      "v": 127
    },
    {
      "midi": 73,
      "hit": false,
      "t": 481500,
      "d": 1500,
      "v": 127
    },
    {
      "midi": 68,
      "hit": false,
      "t": 483000,
      "d": 1500,
      "v": 127
    },
    {
      "midi": 71,
      "hit": false,
      "t": 483000,
      "d": 1500,
      "v": 127
    },
    {
      "midi": 80,
      "hit": false,
      "t": 484500,
      "d": 1500,
      "v": 127
    },
    {
      "midi": 78,
      "hit": false,
      "t": 486000,
      "d": 1500,
      "v": 127
    },
    {
      "midi": 75,
      "hit": false,
      "t": 487500,
      "d": 1500,
      "v": 127
    },
    {
      "midi": 76,
      "hit": false,
      "t": 489000,
      "d": 1500,
      "v": 127
    },
    {
      "midi": 71,
      "hit": false,
      "t": 490500,
      "d": 1500,
      "v": 127
    },
    {
      "midi": 73,
      "hit": false,
      "t": 492000,
      "d": 1500,
      "v": 127
    },
    {
      "midi": 68,
      "hit": false,
      "t": 493500,
      "d": 1500,
      "v": 127
    },
    {
      "midi": 66,
      "hit": false,
      "t": 495000,
      "d": 6000,
      "v": 127
    },
    {
      "midi": 71,
      "hit": false,
      "t": 495000,
      "d": 6000,
      "v": 127
    },
    {
      "midi": 69,
      "hit": false,
      "t": 501000,
      "d": 3000,
      "v": 127
    },
    {
      "midi": 73,
      "hit": false,
      "t": 504000,
      "d": 1500,
      "v": 127
    },
    {
      "midi": 74,
      "hit": false,
      "t": 505500,
      "d": 1500,
      "v": 127
    },
    {
      "midi": 73,
      "hit": false,
      "t": 507000,
      "d": 1500,
      "v": 127
    },
    {
      "midi": 81,
      "hit": false,
      "t": 508500,
      "d": 1500,
      "v": 127
    },
    {
      "midi": 80,
      "hit": false,
      "t": 510000,
      "d": 1500,
      "v": 127
    },
    {
      "midi": 77,
      "hit": false,
      "t": 511500,
      "d": 1500,
      "v": 127
    },
    {
      "midi": 78,
      "hit": false,
      "t": 513000,
      "d": 1500,
      "v": 127
    },
    {
      "midi": 73,
      "hit": false,
      "t": 514500,
      "d": 1500,
      "v": 127
    },
    {
      "midi": 80,
      "hit": false,
      "t": 516000,
      "d": 1500,
      "v": 127
    },
    {
      "midi": 78,
      "hit": false,
      "t": 517500,
      "d": 1500,
      "v": 127
    },
    {
      "midi": 71,
      "hit": false,
      "t": 519000,
      "d": 6000,
      "v": 127
    },
    {
      "midi": 76,
      "hit": false,
      "t": 519000,
      "d": 6000,
      "v": 127
    },
    {
      "midi": 75,
      "hit": false,
      "t": 525000,
      "d": 3000,
      "v": 127
    },
    {
      "midi": 66,
      "hit": false,
      "t": 528000,
      "d": 1500,
      "v": 127
    },
    {
      "midi": 73,
      "hit": false,
      "t": 528000,
      "d": 1500,
      "v": 127
    },
    {
      "midi": 71,
      "hit": false,
      "t": 529500,
      "d": 1500,
      "v": 127
    },
    {
      "midi": 71,
      "hit": false,
      "t": 531000,
      "d": 1500,
      "v": 127
    },
    {
      "midi": 76,
      "hit": false,
      "t": 532500,
      "d": 1500,
      "v": 127
    },
    {
      "midi": 69,
      "hit": false,
      "t": 534000,
      "d": 1500,
      "v": 127
    },
    {
      "midi": 75,
      "hit": false,
      "t": 534000,
      "d": 1500,
      "v": 127
    },
    {
      "midi": 73,
      "hit": false,
      "t": 535500,
      "d": 1500,
      "v": 127
    },
    {
      "midi": 71,
      "hit": false,
      "t": 537000,
      "d": 3000,
      "v": 127
    },
    {
      "midi": 66,
      "hit": false,
      "t": 540000,
      "d": 1500,
      "v": 127
    },
    {
      "midi": 73,
      "hit": false,
      "t": 540000,
      "d": 1500,
      "v": 127
    },
    {
      "midi": 75,
      "hit": false,
      "t": 540000,
      "d": 1500,
      "v": 127
    },
    {
      "midi": 71,
      "hit": false,
      "t": 541500,
      "d": 1500,
      "v": 127
    },
    {
      "midi": 71,
      "hit": false,
      "t": 543000,
      "d": 1500,
      "v": 127
    },
    {
      "midi": 76,
      "hit": false,
      "t": 544500,
      "d": 1500,
      "v": 127
    },
    {
      "midi": 69,
      "hit": false,
      "t": 546000,
      "d": 1500,
      "v": 127
    },
    {
      "midi": 75,
      "hit": false,
      "t": 546000,
      "d": 1500,
      "v": 127
    },
    {
      "midi": 73,
      "hit": false,
      "t": 547500,
      "d": 1500,
      "v": 127
    },
    {
      "midi": 71,
      "hit": false,
      "t": 549000,
      "d": 3000,
      "v": 127
    },
    {
      "midi": 66,
      "hit": false,
      "t": 552000,
      "d": 1500,
      "v": 127
    },
    {
      "midi": 73,
      "hit": false,
      "t": 552000,
      "d": 1500,
      "v": 127
    },
    {
      "midi": 71,
      "hit": false,
      "t": 553500,
      "d": 1500,
      "v": 127
    },
    {
      "midi": 71,
      "hit": false,
      "t": 555000,
      "d": 1500,
      "v": 127
    },
    {
      "midi": 80,
      "hit": false,
      "t": 556500,
      "d": 1500,
      "v": 127
    },
    {
      "midi": 78,
      "hit": false,
      "t": 558000,
      "d": 1500,
      "v": 127
    },
    {
      "midi": 75,
      "hit": false,
      "t": 559500,
      "d": 1500,
      "v": 127
    },
    {
      "midi": 68,
      "hit": false,
      "t": 561000,
      "d": 1500,
      "v": 127
    },
    {
      "midi": 76,
      "hit": false,
      "t": 562500,
      "d": 1500,
      "v": 127
    },
    {
      "midi": 75,
      "hit": false,
      "t": 564000,
      "d": 1500,
      "v": 127
    },
    {
      "midi": 72,
      "hit": false,
      "t": 565500,
      "d": 1500,
      "v": 127
    },
    {
      "midi": 64,
      "hit": false,
      "t": 567000,
      "d": 1500,
      "v": 127
    },
    {
      "midi": 73,
      "hit": false,
      "t": 568500,
      "d": 1500,
      "v": 127
    },
    {
      "midi": 71,
      "hit": false,
      "t": 570000,
      "d": 1500,
      "v": 127
    },
    {
      "midi": 68,
      "hit": false,
      "t": 571500,
      "d": 1500,
      "v": 127
    },
    {
      "midi": 69,
      "hit": false,
      "t": 573000,
      "d": 3000,
      "v": 127
    },
    {
      "midi": 66,
      "hit": false,
      "t": 576000,
      "d": 1500,
      "v": 127
    },
    {
      "midi": 64,
      "hit": false,
      "t": 577500,
      "d": 1500,
      "v": 127
    },
    {
      "midi": 63,
      "hit": false,
      "t": 579000,
      "d": 1500,
      "v": 127
    },
    {
      "midi": 66,
      "hit": false,
      "t": 580500,
      "d": 1500,
      "v": 127
    },
    {
      "midi": 69,
      "hit": false,
      "t": 582000,
      "d": 1500,
      "v": 127
    },
    {
      "midi": 73,
      "hit": false,
      "t": 583500,
      "d": 1500,
      "v": 127
    },
    {
      "midi": 73,
      "hit": false,
      "t": 585000,
      "d": 1500,
      "v": 127
    },
    {
      "midi": 71,
      "hit": false,
      "t": 586500,
      "d": 1500,
      "v": 127
    },
    {
      "midi": 73,
      "hit": false,
      "t": 588000,
      "d": 1500,
      "v": 127
    },
    {
      "midi": 78,
      "hit": false,
      "t": 589500,
      "d": 1500,
      "v": 127
    },
    {
      "midi": 78,
      "hit": false,
      "t": 591000,
      "d": 1500,
      "v": 127
    },
    {
      "midi": 71,
      "hit": false,
      "t": 592500,
      "d": 1500,
      "v": 127
    },
    {
      "midi": 73,
      "hit": false,
      "t": 594000,
      "d": 1500,
      "v": 127
    },
    {
      "midi": 73,
      "hit": false,
      "t": 595500,
      "d": 1500,
      "v": 127
    },
    {
      "midi": 75,
      "hit": false,
      "t": 595500,
      "d": 1500,
      "v": 127
    },
    {
      "midi": 76,
      "hit": false,
      "t": 597000,
      "d": 1500,
      "v": 127
    },
    {
      "midi": 71,
      "hit": false,
      "t": 598500,
      "d": 1500,
      "v": 127
    },
    {
      "midi": 83,
      "hit": false,
      "t": 600000,
      "d": 1500,
      "v": 127
    },
    {
      "midi": 76,
      "hit": false,
      "t": 601500,
      "d": 1500,
      "v": 127
    },
    {
      "midi": 76,
      "hit": false,
      "t": 603000,
      "d": 1500,
      "v": 127
    },
    {
      "midi": 74,
      "hit": false,
      "t": 604500,
      "d": 1500,
      "v": 127
    },
    {
      "midi": 73,
      "hit": false,
      "t": 606000,
      "d": 1500,
      "v": 127
    },
    {
      "midi": 81,
      "hit": false,
      "t": 606000,
      "d": 1500,
      "v": 127
    },
    {
      "midi": 71,
      "hit": false,
      "t": 607500,
      "d": 1500,
      "v": 127
    },
    {
      "midi": 80,
      "hit": false,
      "t": 607500,
      "d": 1500,
      "v": 127
    },
    {
      "midi": 78,
      "hit": false,
      "t": 609000,
      "d": 1500,
      "v": 127
    },
    {
      "midi": 73,
      "hit": false,
      "t": 610500,
      "d": 1500,
      "v": 127
    },
    {
      "midi": 75,
      "hit": false,
      "t": 612000,
      "d": 1500,
      "v": 127
    },
    {
      "midi": 76,
      "hit": false,
      "t": 613500,
      "d": 1500,
      "v": 127
    },
    {
      "midi": 76,
      "hit": false,
      "t": 615000,
      "d": 1500,
      "v": 127
    },
    {
      "midi": 73,
      "hit": false,
      "t": 616500,
      "d": 1500,
      "v": 127
    },
    {
      "midi": 75,
      "hit": false,
      "t": 618000,
      "d": 1500,
      "v": 127
    },
    {
      "midi": 69,
      "hit": false,
      "t": 619500,
      "d": 1500,
      "v": 127
    },
    {
      "midi": 76,
      "hit": false,
      "t": 621000,
      "d": 1500,
      "v": 127
    },
    {
      "midi": 68,
      "hit": false,
      "t": 622500,
      "d": 1500,
      "v": 127
    }
  ]
}