{
  "jsonPath": "Classical/Classical/Robert Schumann/4un-choral.json",
  "path": "Classical\\Classical\\Robert Schumann\\4Un choral.mid",
  "name": "4Un choral",
  "difficulty": "Advanced",
  "bpm": 92.00012880018032,
  "notes": [
    {
      "midi": 62,
      "hit": false,
      "t": 0,
      "d": 1304.346,
      "v": 127
    },
    {
      "midi": 67,
      "hit": false,
      "t": 0,
      "d": 1304.346,
      "v": 127
    },
    {
      "midi": 55,
      "hit": false,
      "t": 0,
      "d": 1304.346,
      "v": 127
    },
    {
      "midi": 59,
      "hit": false,
      "t": 0,
      "d": 1304.346,
      "v": 127
    },
    {
      "midi": 62,
      "hit": false,
      "t": 1304.346,
      "d": 1304.346,
      "v": 127
    },
    {
      "midi": 69,
      "hit": false,
      "t": 1304.346,
      "d": 1304.346,
      "v": 127
    },
    {
      "midi": 54,
      "hit": false,
      "t": 1304.346,
      "d": 1304.346,
      "v": 127
    },
    {
      "midi": 57,
      "hit": false,
      "t": 1304.346,
      "d": 1304.346,
      "v": 127
    },
    {
      "midi": 62,
      "hit": false,
      "t": 2608.692,
      "d": 1304.346,
      "v": 127
    },
    {
      "midi": 71,
      "hit": false,
      "t": 2608.692,
      "d": 1304.346,
      "v": 127
    },
    {
      "midi": 55,
      "hit": false,
      "t": 2608.692,
      "d": 1304.346,
      "v": 127
    },
    {
      "midi": 62,
      "hit": false,
      "t": 3913.038,
      "d": 1304.346,
      "v": 127
    },
    {
      "midi": 69,
      "hit": false,
      "t": 3913.038,
      "d": 1304.346,
      "v": 127
    },
    {
      "midi": 54,
      "hit": false,
      "t": 3913.038,
      "d": 1304.346,
      "v": 127
    },
    {
      "midi": 57,
      "hit": false,
      "t": 3913.038,
      "d": 1304.346,
      "v": 127
    },
    {
      "midi": 61,
      "hit": false,
      "t": 5217.384,
      "d": 1304.3459999999995,
      "v": 127
    },
    {
      "midi": 67,
      "hit": false,
      "t": 5217.384,
      "d": 1304.3459999999995,
      "v": 127
    },
    {
      "midi": 52,
      "hit": false,
      "t": 5217.384,
      "d": 1304.3459999999995,
      "v": 127
    },
    {
      "midi": 57,
      "hit": false,
      "t": 5217.384,
      "d": 1304.3459999999995,
      "v": 127
    },
    {
      "midi": 62,
      "hit": false,
      "t": 6521.73,
      "d": 1304.3459999999995,
      "v": 127
    },
    {
      "midi": 66,
      "hit": false,
      "t": 6521.73,
      "d": 1304.3459999999995,
      "v": 127
    },
    {
      "midi": 50,
      "hit": false,
      "t": 6521.73,
      "d": 1304.3459999999995,
      "v": 127
    },
    {
      "midi": 57,
      "hit": false,
      "t": 6521.73,
      "d": 1304.3459999999995,
      "v": 127
    },
    {
      "midi": 61,
      "hit": false,
      "t": 7826.075999999999,
      "d": 1304.3459999999995,
      "v": 127
    },
    {
      "midi": 64,
      "hit": false,
      "t": 7826.075999999999,
      "d": 1304.3459999999995,
      "v": 127
    },
    {
      "midi": 45,
      "hit": false,
      "t": 7826.075999999999,
      "d": 1304.3459999999995,
      "v": 127
    },
    {
      "midi": 57,
      "hit": false,
      "t": 7826.075999999999,
      "d": 1304.3459999999995,
      "v": 127
    },
    {
      "midi": 62,
      "hit": false,
      "t": 9130.421999999999,
      "d": 1304.3459999999995,
      "v": 127
    },
    {
      "midi": 50,
      "hit": false,
      "t": 9130.421999999999,
      "d": 1304.3459999999995,
      "v": 127
    },
    {
      "midi": 54,
      "hit": false,
      "t": 9130.421999999999,
      "d": 1304.3459999999995,
      "v": 127
    },
    {
      "midi": 59,
      "hit": false,
      "t": 10434.767999999998,
      "d": 1304.3459999999995,
      "v": 127
    },
    {
      "midi": 67,
      "hit": false,
      "t": 10434.767999999998,
      "d": 1304.3459999999995,
      "v": 127
    },
    {
      "midi": 52,
      "hit": false,
      "t": 10434.767999999998,
      "d": 1304.3459999999995,
      "v": 127
    },
    {
      "midi": 62,
      "hit": false,
      "t": 11739.113999999998,
      "d": 1304.3459999999995,
      "v": 127
    },
    {
      "midi": 69,
      "hit": false,
      "t": 11739.113999999998,
      "d": 1304.3459999999995,
      "v": 127
    },
    {
      "midi": 50,
      "hit": false,
      "t": 11739.113999999998,
      "d": 1304.3459999999995,
      "v": 127
    },
    {
      "midi": 54,
      "hit": false,
      "t": 11739.113999999998,
      "d": 1304.3459999999995,
      "v": 127
    },
    {
      "midi": 62,
      "hit": false,
      "t": 13043.459999999997,
      "d": 1304.3459999999995,
      "v": 127
    },
    {
      "midi": 71,
      "hit": false,
      "t": 13043.459999999997,
      "d": 1304.3459999999995,
      "v": 127
    },
    {
      "midi": 55,
      "hit": false,
      "t": 13043.459999999997,
      "d": 1304.3459999999995,
      "v": 127
    },
    {
      "midi": 67,
      "hit": false,
      "t": 14347.805999999997,
      "d": 1304.3459999999995,
      "v": 127
    },
    {
      "midi": 72,
      "hit": false,
      "t": 14347.805999999997,
      "d": 1304.3459999999995,
      "v": 127
    },
    {
      "midi": 52,
      "hit": false,
      "t": 14347.805999999997,
      "d": 1304.3459999999995,
      "v": 127
    },
    {
      "midi": 55,
      "hit": false,
      "t": 14347.805999999997,
      "d": 1304.3459999999995,
      "v": 127
    },
    {
      "midi": 71,
      "hit": false,
      "t": 15652.151999999996,
      "d": 1304.3459999999995,
      "v": 127
    },
    {
      "midi": 50,
      "hit": false,
      "t": 15652.151999999996,
      "d": 1304.3459999999995,
      "v": 127
    },
    {
      "midi": 55,
      "hit": false,
      "t": 15652.151999999996,
      "d": 1304.3459999999995,
      "v": 127
    },
    {
      "midi": 69,
      "hit": false,
      "t": 16956.497999999996,
      "d": 652.1729999999989,
      "v": 127
    },
    {
      "midi": 50,
      "hit": false,
      "t": 16956.497999999996,
      "d": 1304.3460000000014,
      "v": 127
    },
    {
      "midi": 54,
      "hit": false,
      "t": 16956.497999999996,
      "d": 1304.3460000000014,
      "v": 127
    },
    {
      "midi": 60,
      "hit": false,
      "t": 17608.670999999995,
      "d": 652.1729999999989,
      "v": 127
    },
    {
      "midi": 59,
      "hit": false,
      "t": 18260.843999999994,
      "d": 2608.691999999999,
      "v": 127
    },
    {
      "midi": 67,
      "hit": false,
      "t": 18260.843999999994,
      "d": 2608.691999999999,
      "v": 127
    },
    {
      "midi": 43,
      "hit": false,
      "t": 18260.843999999997,
      "d": 2608.691999999999,
      "v": 127
    },
    {
      "midi": 55,
      "hit": false,
      "t": 18260.843999999997,
      "d": 2608.691999999999,
      "v": 127
    },
    {
      "midi": 62,
      "hit": false,
      "t": 20869.535999999993,
      "d": 1304.3460000000014,
      "v": 127
    },
    {
      "midi": 67,
      "hit": false,
      "t": 20869.535999999993,
      "d": 1304.3460000000014,
      "v": 127
    },
    {
      "midi": 55,
      "hit": false,
      "t": 20869.535999999996,
      "d": 1304.3460000000014,
      "v": 127
    },
    {
      "midi": 59,
      "hit": false,
      "t": 20869.535999999996,
      "d": 1304.3460000000014,
      "v": 127
    },
    {
      "midi": 62,
      "hit": false,
      "t": 22173.881999999994,
      "d": 1304.3460000000014,
      "v": 127
    },
    {
      "midi": 69,
      "hit": false,
      "t": 22173.881999999994,
      "d": 1304.3460000000014,
      "v": 127
    },
    {
      "midi": 54,
      "hit": false,
      "t": 22173.881999999998,
      "d": 1304.3460000000014,
      "v": 127
    },
    {
      "midi": 57,
      "hit": false,
      "t": 22173.881999999998,
      "d": 1304.3460000000014,
      "v": 127
    },
    {
      "midi": 62,
      "hit": false,
      "t": 23478.227999999996,
      "d": 1304.3460000000014,
      "v": 127
    },
    {
      "midi": 71,
      "hit": false,
      "t": 23478.227999999996,
      "d": 1304.3460000000014,
      "v": 127
    },
    {
      "midi": 55,
      "hit": false,
      "t": 23478.228,
      "d": 1304.3460000000014,
      "v": 127
    },
    {
      "midi": 62,
      "hit": false,
      "t": 24782.573999999997,
      "d": 1304.3460000000014,
      "v": 127
    },
    {
      "midi": 69,
      "hit": false,
      "t": 24782.573999999997,
      "d": 1304.3460000000014,
      "v": 127
    },
    {
      "midi": 54,
      "hit": false,
      "t": 24782.574,
      "d": 1304.3460000000014,
      "v": 127
    },
    {
      "midi": 57,
      "hit": false,
      "t": 24782.574,
      "d": 1304.3460000000014,
      "v": 127
    },
    {
      "midi": 61,
      "hit": false,
      "t": 26086.92,
      "d": 1304.3460000000014,
      "v": 127
    },
    {
      "midi": 67,
      "hit": false,
      "t": 26086.92,
      "d": 1304.3460000000014,
      "v": 127
    },
    {
      "midi": 52,
      "hit": false,
      "t": 26086.920000000002,
      "d": 1304.3460000000014,
      "v": 127
    },
    {
      "midi": 57,
      "hit": false,
      "t": 26086.920000000002,
      "d": 1304.3460000000014,
      "v": 127
    },
    {
      "midi": 62,
      "hit": false,
      "t": 27391.266,
      "d": 1304.3460000000014,
      "v": 127
    },
    {
      "midi": 66,
      "hit": false,
      "t": 27391.266,
      "d": 1304.3460000000014,
      "v": 127
    },
    {
      "midi": 50,
      "hit": false,
      "t": 27391.266000000003,
      "d": 1304.3460000000014,
      "v": 127
    },
    {
      "midi": 57,
      "hit": false,
      "t": 27391.266000000003,
      "d": 1304.3460000000014,
      "v": 127
    },
    {
      "midi": 61,
      "hit": false,
      "t": 28695.612,
      "d": 1304.3460000000014,
      "v": 127
    },
    {
      "midi": 64,
      "hit": false,
      "t": 28695.612,
      "d": 1304.3460000000014,
      "v": 127
    },
    {
      "midi": 45,
      "hit": false,
      "t": 28695.612000000005,
      "d": 1304.3460000000014,
      "v": 127
    },
    {
      "midi": 57,
      "hit": false,
      "t": 28695.612000000005,
      "d": 1304.3460000000014,
      "v": 127
    },
    {
      "midi": 62,
      "hit": false,
      "t": 29999.958000000002,
      "d": 1304.3460000000014,
      "v": 127
    },
    {
      "midi": 50,
      "hit": false,
      "t": 29999.958000000006,
      "d": 1304.3460000000014,
      "v": 127
    },
    {
      "midi": 54,
      "hit": false,
      "t": 29999.958000000006,
      "d": 1304.3460000000014,
      "v": 127
    },
    {
      "midi": 59,
      "hit": false,
      "t": 31304.304000000004,
      "d": 1304.3460000000014,
      "v": 127
    },
    {
      "midi": 67,
      "hit": false,
      "t": 31304.304000000004,
      "d": 1304.3460000000014,
      "v": 127
    },
    {
      "midi": 52,
      "hit": false,
      "t": 31304.304000000007,
      "d": 1304.3460000000014,
      "v": 127
    },
    {
      "midi": 62,
      "hit": false,
      "t": 32608.650000000005,
      "d": 1304.3460000000014,
      "v": 127
    },
    {
      "midi": 69,
      "hit": false,
      "t": 32608.650000000005,
      "d": 1304.3460000000014,
      "v": 127
    },
    {
      "midi": 50,
      "hit": false,
      "t": 32608.65000000001,
      "d": 1304.3459999999977,
      "v": 127
    },
    {
      "midi": 54,
      "hit": false,
      "t": 32608.65000000001,
      "d": 1304.3459999999977,
      "v": 127
    },
    {
      "midi": 62,
      "hit": false,
      "t": 33912.99600000001,
      "d": 1304.3459999999977,
      "v": 127
    },
    {
      "midi": 71,
      "hit": false,
      "t": 33912.99600000001,
      "d": 1304.3459999999977,
      "v": 127
    },
    {
      "midi": 55,
      "hit": false,
      "t": 33912.99600000001,
      "d": 1304.3459999999977,
      "v": 127
    },
    {
      "midi": 67,
      "hit": false,
      "t": 35217.342000000004,
      "d": 1304.3459999999977,
      "v": 127
    },
    {
      "midi": 72,
      "hit": false,
      "t": 35217.342000000004,
      "d": 1304.3459999999977,
      "v": 127
    },
    {
      "midi": 52,
      "hit": false,
      "t": 35217.342000000004,
      "d": 1304.3459999999977,
      "v": 127
    },
    {
      "midi": 55,
      "hit": false,
      "t": 35217.342000000004,
      "d": 1304.3459999999977,
      "v": 127
    },
    {
      "midi": 71,
      "hit": false,
      "t": 36521.688,
      "d": 1304.3459999999977,
      "v": 127
    },
    {
      "midi": 50,
      "hit": false,
      "t": 36521.688,
      "d": 1304.3459999999977,
      "v": 127
    },
    {
      "midi": 55,
      "hit": false,
      "t": 36521.688,
      "d": 1304.3459999999977,
      "v": 127
    },
    {
      "midi": 69,
      "hit": false,
      "t": 37826.034,
      "d": 652.1730000000025,
      "v": 127
    },
    {
      "midi": 50,
      "hit": false,
      "t": 37826.034,
      "d": 1304.3459999999977,
      "v": 127
    },
    {
      "midi": 54,
      "hit": false,
      "t": 37826.034,
      "d": 1304.3459999999977,
      "v": 127
    },
    {
      "midi": 60,
      "hit": false,
      "t": 38478.207,
      "d": 652.1730000000025,
      "v": 127
    },
    {
      "midi": 43,
      "hit": false,
      "t": 39130.38,
      "d": 2608.6920000000027,
      "v": 127
    },
    {
      "midi": 55,
      "hit": false,
      "t": 39130.38,
      "d": 2608.6920000000027,
      "v": 127
    },
    {
      "midi": 59,
      "hit": false,
      "t": 39130.380000000005,
      "d": 2608.6920000000027,
      "v": 127
    },
    {
      "midi": 67,
      "hit": false,
      "t": 39130.380000000005,
      "d": 2608.6920000000027,
      "v": 127
    },
    {
      "midi": 55,
      "hit": false,
      "t": 41739.072,
      "d": 1304.3459999999977,
      "v": 127
    },
    {
      "midi": 62,
      "hit": false,
      "t": 41739.072,
      "d": 1304.3459999999977,
      "v": 127
    },
    {
      "midi": 67,
      "hit": false,
      "t": 41739.07200000001,
      "d": 1304.3459999999977,
      "v": 127
    },
    {
      "midi": 71,
      "hit": false,
      "t": 41739.07200000001,
      "d": 1304.3459999999977,
      "v": 127
    },
    {
      "midi": 57,
      "hit": false,
      "t": 43043.418,
      "d": 1304.3459999999977,
      "v": 127
    },
    {
      "midi": 60,
      "hit": false,
      "t": 43043.418,
      "d": 1304.3459999999977,
      "v": 127
    },
    {
      "midi": 66,
      "hit": false,
      "t": 43043.418000000005,
      "d": 1304.3459999999977,
      "v": 127
    },
    {
      "midi": 72,
      "hit": false,
      "t": 43043.418000000005,
      "d": 1304.3459999999977,
      "v": 127
    },
    {
      "midi": 59,
      "hit": false,
      "t": 44347.763999999996,
      "d": 1304.3459999999977,
      "v": 127
    },
    {
      "midi": 67,
      "hit": false,
      "t": 44347.764,
      "d": 1304.3459999999977,
      "v": 127
    },
    {
      "midi": 74,
      "hit": false,
      "t": 44347.764,
      "d": 1304.3459999999977,
      "v": 127
    },
    {
      "midi": 57,
      "hit": false,
      "t": 45652.10999999999,
      "d": 1304.3459999999977,
      "v": 127
    },
    {
      "midi": 60,
      "hit": false,
      "t": 45652.10999999999,
      "d": 1304.3459999999977,
      "v": 127
    },
    {
      "midi": 66,
      "hit": false,
      "t": 45652.11,
      "d": 1304.3459999999977,
      "v": 127
    },
    {
      "midi": 72,
      "hit": false,
      "t": 45652.11,
      "d": 1304.3459999999977,
      "v": 127
    },
    {
      "midi": 55,
      "hit": false,
      "t": 46956.45599999999,
      "d": 1304.3459999999977,
      "v": 127
    },
    {
      "midi": 62,
      "hit": false,
      "t": 46956.45599999999,
      "d": 1304.3459999999977,
      "v": 127
    },
    {
      "midi": 67,
      "hit": false,
      "t": 46956.456,
      "d": 1304.3459999999977,
      "v": 127
    },
    {
      "midi": 71,
      "hit": false,
      "t": 46956.456,
      "d": 1304.3459999999977,
      "v": 127
    },
    {
      "midi": 60,
      "hit": false,
      "t": 48260.80199999999,
      "d": 652.1730000000025,
      "v": 127
    },
    {
      "midi": 64,
      "hit": false,
      "t": 48260.80199999999,
      "d": 652.1730000000025,
      "v": 127
    },
    {
      "midi": 69,
      "hit": false,
      "t": 48260.801999999996,
      "d": 652.1730000000025,
      "v": 127
    },
    {
      "midi": 62,
      "hit": false,
      "t": 48912.97499999999,
      "d": 652.1730000000025,
      "v": 127
    },
    {
      "midi": 66,
      "hit": false,
      "t": 48912.975,
      "d": 652.1730000000025,
      "v": 127
    },
    {
      "midi": 55,
      "hit": false,
      "t": 49565.147999999994,
      "d": 2608.6920000000027,
      "v": 127
    },
    {
      "midi": 62,
      "hit": false,
      "t": 49565.147999999994,
      "d": 2608.6920000000027,
      "v": 127
    },
    {
      "midi": 67,
      "hit": false,
      "t": 49565.148,
      "d": 2608.6920000000027,
      "v": 127
    },
    {
      "midi": 71,
      "hit": false,
      "t": 49565.148,
      "d": 2608.6920000000027,
      "v": 127
    },
    {
      "midi": 55,
      "hit": false,
      "t": 52173.84,
      "d": 1304.3459999999977,
      "v": 127
    },
    {
      "midi": 59,
      "hit": false,
      "t": 52173.84,
      "d": 1304.3459999999977,
      "v": 127
    },
    {
      "midi": 67,
      "hit": false,
      "t": 52173.840000000004,
      "d": 1304.3459999999977,
      "v": 127
    },
    {
      "midi": 74,
      "hit": false,
      "t": 52173.840000000004,
      "d": 1304.3459999999977,
      "v": 127
    },
    {
      "midi": 59,
      "hit": false,
      "t": 53478.185999999994,
      "d": 1304.3459999999977,
      "v": 127
    },
    {
      "midi": 62,
      "hit": false,
      "t": 53478.185999999994,
      "d": 1304.3459999999977,
      "v": 127
    },
    {
      "midi": 67,
      "hit": false,
      "t": 53478.186,
      "d": 1304.3459999999977,
      "v": 127
    },
    {
      "midi": 74,
      "hit": false,
      "t": 53478.186,
      "d": 1304.3459999999977,
      "v": 127
    },
    {
      "midi": 60,
      "hit": false,
      "t": 54782.53199999999,
      "d": 1304.3459999999977,
      "v": 127
    },
    {
      "midi": 67,
      "hit": false,
      "t": 54782.532,
      "d": 1304.3459999999977,
      "v": 127
    },
    {
      "midi": 76,
      "hit": false,
      "t": 54782.532,
      "d": 1304.3459999999977,
      "v": 127
    },
    {
      "midi": 59,
      "hit": false,
      "t": 56086.87799999999,
      "d": 1304.3459999999977,
      "v": 127
    },
    {
      "midi": 62,
      "hit": false,
      "t": 56086.87799999999,
      "d": 1304.3459999999977,
      "v": 127
    },
    {
      "midi": 67,
      "hit": false,
      "t": 56086.878,
      "d": 1304.3459999999977,
      "v": 127
    },
    {
      "midi": 74,
      "hit": false,
      "t": 56086.878,
      "d": 1304.3459999999977,
      "v": 127
    },
    {
      "midi": 57,
      "hit": false,
      "t": 57391.22399999999,
      "d": 1304.3459999999977,
      "v": 127
    },
    {
      "midi": 62,
      "hit": false,
      "t": 57391.22399999999,
      "d": 1304.3459999999977,
      "v": 127
    },
    {
      "midi": 66,
      "hit": false,
      "t": 57391.223999999995,
      "d": 1304.3459999999977,
      "v": 127
    },
    {
      "midi": 72,
      "hit": false,
      "t": 57391.223999999995,
      "d": 1304.3459999999977,
      "v": 127
    },
    {
      "midi": 55,
      "hit": false,
      "t": 58695.569999999985,
      "d": 1304.3459999999977,
      "v": 127
    },
    {
      "midi": 62,
      "hit": false,
      "t": 58695.569999999985,
      "d": 1304.3459999999977,
      "v": 127
    },
    {
      "midi": 67,
      "hit": false,
      "t": 58695.56999999999,
      "d": 1304.3459999999977,
      "v": 127
    },
    {
      "midi": 71,
      "hit": false,
      "t": 58695.56999999999,
      "d": 1304.3459999999977,
      "v": 127
    },
    {
      "midi": 50,
      "hit": false,
      "t": 59999.91599999998,
      "d": 2608.6920000000027,
      "v": 127
    },
    {
      "midi": 62,
      "hit": false,
      "t": 59999.91599999998,
      "d": 2608.6920000000027,
      "v": 127
    },
    {
      "midi": 66,
      "hit": false,
      "t": 59999.91599999999,
      "d": 2608.6920000000027,
      "v": 127
    },
    {
      "midi": 69,
      "hit": false,
      "t": 59999.91599999999,
      "d": 2608.6920000000027,
      "v": 127
    },
    {
      "midi": 62,
      "hit": false,
      "t": 62608.607999999986,
      "d": 652.1730000000025,
      "v": 127
    },
    {
      "midi": 71,
      "hit": false,
      "t": 62608.60799999999,
      "d": 652.1730000000025,
      "v": 127
    },
    {
      "midi": 57,
      "hit": false,
      "t": 63260.78099999999,
      "d": 652.1730000000025,
      "v": 127
    },
    {
      "midi": 72,
      "hit": false,
      "t": 63260.780999999995,
      "d": 652.1730000000025,
      "v": 127
    },
    {
      "midi": 59,
      "hit": false,
      "t": 63912.95399999999,
      "d": 1304.3459999999977,
      "v": 127
    },
    {
      "midi": 62,
      "hit": false,
      "t": 63912.95399999999,
      "d": 1304.3459999999977,
      "v": 127
    },
    {
      "midi": 67,
      "hit": false,
      "t": 63912.954,
      "d": 1304.3459999999977,
      "v": 127
    },
    {
      "midi": 74,
      "hit": false,
      "t": 63912.954,
      "d": 1304.3459999999977,
      "v": 127
    },
    {
      "midi": 60,
      "hit": false,
      "t": 65217.29999999999,
      "d": 1304.346000000005,
      "v": 127
    },
    {
      "midi": 64,
      "hit": false,
      "t": 65217.29999999999,
      "d": 1304.346000000005,
      "v": 127
    },
    {
      "midi": 67,
      "hit": false,
      "t": 65217.299999999996,
      "d": 1304.3459999999977,
      "v": 127
    },
    {
      "midi": 72,
      "hit": false,
      "t": 65217.299999999996,
      "d": 1304.3459999999977,
      "v": 127
    },
    {
      "midi": 67,
      "hit": false,
      "t": 66521.646,
      "d": 1304.346000000005,
      "v": 127
    },
    {
      "midi": 71,
      "hit": false,
      "t": 66521.646,
      "d": 1304.346000000005,
      "v": 127
    },
    {
      "midi": 55,
      "hit": false,
      "t": 66521.646,
      "d": 1304.346000000005,
      "v": 127
    },
    {
      "midi": 62,
      "hit": false,
      "t": 66521.646,
      "d": 1304.346000000005,
      "v": 127
    },
    {
      "midi": 64,
      "hit": false,
      "t": 67825.992,
      "d": 1304.346000000005,
      "v": 127
    },
    {
      "midi": 67,
      "hit": false,
      "t": 67825.992,
      "d": 1304.346000000005,
      "v": 127
    },
    {
      "midi": 60,
      "hit": false,
      "t": 67825.992,
      "d": 1304.346000000005,
      "v": 127
    },
    {
      "midi": 66,
      "hit": false,
      "t": 69130.338,
      "d": 1304.346000000005,
      "v": 127
    },
    {
      "midi": 69,
      "hit": false,
      "t": 69130.338,
      "d": 1304.346000000005,
      "v": 127
    },
    {
      "midi": 57,
      "hit": false,
      "t": 69130.338,
      "d": 1304.346000000005,
      "v": 127
    },
    {
      "midi": 60,
      "hit": false,
      "t": 69130.338,
      "d": 1304.346000000005,
      "v": 127
    },
    {
      "midi": 67,
      "hit": false,
      "t": 70434.68400000001,
      "d": 1304.346000000005,
      "v": 127
    },
    {
      "midi": 71,
      "hit": false,
      "t": 70434.68400000001,
      "d": 1304.346000000005,
      "v": 127
    },
    {
      "midi": 55,
      "hit": false,
      "t": 70434.68400000001,
      "d": 1304.346000000005,
      "v": 127
    },
    {
      "midi": 62,
      "hit": false,
      "t": 70434.68400000001,
      "d": 1304.346000000005,
      "v": 127
    },
    {
      "midi": 64,
      "hit": false,
      "t": 71739.03000000001,
      "d": 1304.346000000005,
      "v": 127
    },
    {
      "midi": 67,
      "hit": false,
      "t": 71739.03000000001,
      "d": 1304.346000000005,
      "v": 127
    },
    {
      "midi": 48,
      "hit": false,
      "t": 71739.03000000001,
      "d": 1304.346000000005,
      "v": 127
    },
    {
      "midi": 60,
      "hit": false,
      "t": 71739.03000000001,
      "d": 1304.346000000005,
      "v": 127
    },
    {
      "midi": 71,
      "hit": false,
      "t": 73043.37600000002,
      "d": 652.1729999999952,
      "v": 127
    },
    {
      "midi": 62,
      "hit": false,
      "t": 73043.37600000002,
      "d": 652.1729999999952,
      "v": 127
    },
    {
      "midi": 72,
      "hit": false,
      "t": 73695.54900000001,
      "d": 652.1729999999952,
      "v": 127
    },
    {
      "midi": 57,
      "hit": false,
      "t": 73695.54900000001,
      "d": 652.1729999999952,
      "v": 127
    },
    {
      "midi": 67,
      "hit": false,
      "t": 74347.72200000001,
      "d": 1304.346000000005,
      "v": 127
    },
    {
      "midi": 74,
      "hit": false,
      "t": 74347.72200000001,
      "d": 1304.346000000005,
      "v": 127
    },
    {
      "midi": 59,
      "hit": false,
      "t": 74347.72200000001,
      "d": 1304.346000000005,
      "v": 127
    },
    {
      "midi": 62,
      "hit": false,
      "t": 74347.72200000001,
      "d": 1304.346000000005,
      "v": 127
    },
    {
      "midi": 66,
      "hit": false,
      "t": 75652.06800000001,
      "d": 1304.346000000005,
      "v": 127
    },
    {
      "midi": 72,
      "hit": false,
      "t": 75652.06800000001,
      "d": 1304.346000000005,
      "v": 127
    },
    {
      "midi": 57,
      "hit": false,
      "t": 75652.06800000001,
      "d": 1304.346000000005,
      "v": 127
    },
    {
      "midi": 62,
      "hit": false,
      "t": 75652.06800000001,
      "d": 1304.346000000005,
      "v": 127
    },
    {
      "midi": 67,
      "hit": false,
      "t": 76956.41400000002,
      "d": 1304.346000000005,
      "v": 127
    },
    {
      "midi": 71,
      "hit": false,
      "t": 76956.41400000002,
      "d": 1304.346000000005,
      "v": 127
    },
    {
      "midi": 55,
      "hit": false,
      "t": 76956.41400000002,
      "d": 1304.346000000005,
      "v": 127
    },
    {
      "midi": 62,
      "hit": false,
      "t": 76956.41400000002,
      "d": 1304.346000000005,
      "v": 127
    },
    {
      "midi": 64,
      "hit": false,
      "t": 78260.76000000002,
      "d": 1304.346000000005,
      "v": 127
    },
    {
      "midi": 69,
      "hit": false,
      "t": 78260.76000000002,
      "d": 1304.346000000005,
      "v": 127
    },
    {
      "midi": 48,
      "hit": false,
      "t": 78260.76000000002,
      "d": 1304.346000000005,
      "v": 127
    },
    {
      "midi": 60,
      "hit": false,
      "t": 78260.76000000002,
      "d": 1304.346000000005,
      "v": 127
    },
    {
      "midi": 66,
      "hit": false,
      "t": 79565.10600000003,
      "d": 1304.346000000005,
      "v": 127
    },
    {
      "midi": 69,
      "hit": false,
      "t": 79565.10600000003,
      "d": 1304.346000000005,
      "v": 127
    },
    {
      "midi": 50,
      "hit": false,
      "t": 79565.10600000003,
      "d": 1304.346000000005,
      "v": 127
    },
    {
      "midi": 60,
      "hit": false,
      "t": 79565.10600000003,
      "d": 1304.346000000005,
      "v": 127
    },
    {
      "midi": 67,
      "hit": false,
      "t": 80869.45200000003,
      "d": 2608.6919999999955,
      "v": 127
    },
    {
      "midi": 55,
      "hit": false,
      "t": 80869.45200000003,
      "d": 2608.6919999999955,
      "v": 127
    },
    {
      "midi": 59,
      "hit": false,
      "t": 80869.45200000003,
      "d": 2608.6919999999955,
      "v": 127
    }
  ]
}