{
  "jsonPath": "Classical/Classical/Robert Schumann/9chanson-populaire.json",
  "path": "Classical\\Classical\\Robert Schumann\\9Chanson populaire.mid",
  "name": "9Chanson populaire",
  "difficulty": "Intermediate",
  "bpm": 60,
  "notes": [
    {
      "midi": 69,
      "hit": false,
      "t": 0,
      "d": 1000,
      "v": 127
    },
    {
      "midi": 74,
      "hit": false,
      "t": 1000,
      "d": 1000,
      "v": 127
    },
    {
      "midi": 76,
      "hit": false,
      "t": 2000,
      "d": 2000,
      "v": 127
    },
    {
      "midi": 77,
      "hit": false,
      "t": 4000,
      "d": 1000,
      "v": 127
    },
    {
      "midi": 79,
      "hit": false,
      "t": 5000,
      "d": 1000,
      "v": 127
    },
    {
      "midi": 76,
      "hit": false,
      "t": 6000,
      "d": 2000,
      "v": 127
    },
    {
      "midi": 69,
      "hit": false,
      "t": 8000,
      "d": 1000,
      "v": 127
    },
    {
      "midi": 81,
      "hit": false,
      "t": 8000,
      "d": 1000,
      "v": 127
    },
    {
      "midi": 73,
      "hit": false,
      "t": 9000,
      "d": 1000,
      "v": 127
    },
    {
      "midi": 79,
      "hit": false,
      "t": 9000,
      "d": 1000,
      "v": 127
    },
    {
      "midi": 67,
      "hit": false,
      "t": 10000,
      "d": 1000,
      "v": 127
    },
    {
      "midi": 76,
      "hit": false,
      "t": 10000,
      "d": 1000,
      "v": 127
    },
    {
      "midi": 65,
      "hit": false,
      "t": 11000,
      "d": 1000,
      "v": 127
    },
    {
      "midi": 74,
      "hit": false,
      "t": 11000,
      "d": 1000,
      "v": 127
    },
    {
      "midi": 67,
      "hit": false,
      "t": 12000,
      "d": 1000,
      "v": 127
    },
    {
      "midi": 70,
      "hit": false,
      "t": 12000,
      "d": 1000,
      "v": 127
    },
    {
      "midi": 62,
      "hit": false,
      "t": 13000,
      "d": 1000,
      "v": 127
    },
    {
      "midi": 67,
      "hit": false,
      "t": 13000,
      "d": 1000,
      "v": 127
    },
    {
      "midi": 64,
      "hit": false,
      "t": 14000,
      "d": 2000,
      "v": 127
    },
    {
      "midi": 69,
      "hit": false,
      "t": 14000,
      "d": 2000,
      "v": 127
    },
    {
      "midi": 69,
      "hit": false,
      "t": 16000,
      "d": 1000,
      "v": 127
    },
    {
      "midi": 74,
      "hit": false,
      "t": 17000,
      "d": 1000,
      "v": 127
    },
    {
      "midi": 76,
      "hit": false,
      "t": 18000,
      "d": 2000,
      "v": 127
    },
    {
      "midi": 77,
      "hit": false,
      "t": 20000,
      "d": 1000,
      "v": 127
    },
    {
      "midi": 79,
      "hit": false,
      "t": 21000,
      "d": 1000,
      "v": 127
    },
    {
      "midi": 76,
      "hit": false,
      "t": 22000,
      "d": 2000,
      "v": 127
    },
    {
      "midi": 69,
      "hit": false,
      "t": 24000,
      "d": 1000,
      "v": 127
    },
    {
      "midi": 81,
      "hit": false,
      "t": 24000,
      "d": 1000,
      "v": 127
    },
    {
      "midi": 73,
      "hit": false,
      "t": 25000,
      "d": 1000,
      "v": 127
    },
    {
      "midi": 79,
      "hit": false,
      "t": 25000,
      "d": 1000,
      "v": 127
    },
    {
      "midi": 67,
      "hit": false,
      "t": 26000,
      "d": 1000,
      "v": 127
    },
    {
      "midi": 76,
      "hit": false,
      "t": 26000,
      "d": 1000,
      "v": 127
    },
    {
      "midi": 65,
      "hit": false,
      "t": 27000,
      "d": 1000,
      "v": 127
    },
    {
      "midi": 74,
      "hit": false,
      "t": 27000,
      "d": 1000,
      "v": 127
    },
    {
      "midi": 70,
      "hit": false,
      "t": 28000,
      "d": 1000,
      "v": 127
    },
    {
      "midi": 74,
      "hit": false,
      "t": 28000,
      "d": 1000,
      "v": 127
    },
    {
      "midi": 76,
      "hit": false,
      "t": 28000,
      "d": 1000,
      "v": 127
    },
    {
      "midi": 69,
      "hit": false,
      "t": 29000,
      "d": 1000,
      "v": 127
    },
    {
      "midi": 73,
      "hit": false,
      "t": 29000,
      "d": 1000,
      "v": 127
    },
    {
      "midi": 77,
      "hit": false,
      "t": 29000,
      "d": 1000,
      "v": 127
    },
    {
      "midi": 69,
      "hit": false,
      "t": 30000,
      "d": 2000,
      "v": 127
    },
    {
      "midi": 74,
      "hit": false,
      "t": 30000,
      "d": 2000,
      "v": 127
    },
    {
      "midi": 69,
      "hit": false,
      "t": 32000,
      "d": 250,
      "v": 127
    },
    {
      "midi": 81,
      "hit": false,
      "t": 32000,
      "d": 250,
      "v": 127
    },
    {
      "midi": 78,
      "hit": false,
      "t": 32250,
      "d": 250,
      "v": 127
    },
    {
      "midi": 74,
      "hit": false,
      "t": 32500,
      "d": 500,
      "v": 127
    },
    {
      "midi": 74,
      "hit": false,
      "t": 33000,
      "d": 500,
      "v": 127
    },
    {
      "midi": 76,
      "hit": false,
      "t": 33500,
      "d": 250,
      "v": 127
    },
    {
      "midi": 78,
      "hit": false,
      "t": 33750,
      "d": 250,
      "v": 127
    },
    {
      "midi": 76,
      "hit": false,
      "t": 34000,
      "d": 500,
      "v": 127
    },
    {
      "midi": 73,
      "hit": false,
      "t": 34500,
      "d": 500,
      "v": 127
    },
    {
      "midi": 69,
      "hit": false,
      "t": 36000,
      "d": 250,
      "v": 127
    },
    {
      "midi": 81,
      "hit": false,
      "t": 36000,
      "d": 250,
      "v": 127
    },
    {
      "midi": 78,
      "hit": false,
      "t": 36250,
      "d": 250,
      "v": 127
    },
    {
      "midi": 74,
      "hit": false,
      "t": 36500,
      "d": 500,
      "v": 127
    },
    {
      "midi": 74,
      "hit": false,
      "t": 37000,
      "d": 500,
      "v": 127
    },
    {
      "midi": 76,
      "hit": false,
      "t": 37500,
      "d": 250,
      "v": 127
    },
    {
      "midi": 78,
      "hit": false,
      "t": 37750,
      "d": 250,
      "v": 127
    },
    {
      "midi": 76,
      "hit": false,
      "t": 38000,
      "d": 2000,
      "v": 127
    },
    {
      "midi": 86,
      "hit": false,
      "t": 40000,
      "d": 250,
      "v": 127
    },
    {
      "midi": 83,
      "hit": false,
      "t": 40250,
      "d": 250,
      "v": 127
    },
    {
      "midi": 79,
      "hit": false,
      "t": 40500,
      "d": 500,
      "v": 127
    },
    {
      "midi": 78,
      "hit": false,
      "t": 41000,
      "d": 250,
      "v": 127
    },
    {
      "midi": 81,
      "hit": false,
      "t": 41250,
      "d": 250,
      "v": 127
    },
    {
      "midi": 86,
      "hit": false,
      "t": 41500,
      "d": 500,
      "v": 127
    },
    {
      "midi": 83,
      "hit": false,
      "t": 42000,
      "d": 250,
      "v": 127
    },
    {
      "midi": 79,
      "hit": false,
      "t": 42250,
      "d": 250,
      "v": 127
    },
    {
      "midi": 76,
      "hit": false,
      "t": 42500,
      "d": 500,
      "v": 127
    },
    {
      "midi": 74,
      "hit": false,
      "t": 43000,
      "d": 250,
      "v": 127
    },
    {
      "midi": 78,
      "hit": false,
      "t": 43250,
      "d": 250,
      "v": 127
    },
    {
      "midi": 81,
      "hit": false,
      "t": 43500,
      "d": 500,
      "v": 127
    },
    {
      "midi": 79,
      "hit": false,
      "t": 44000,
      "d": 250,
      "v": 127
    },
    {
      "midi": 76,
      "hit": false,
      "t": 44250,
      "d": 250,
      "v": 127
    },
    {
      "midi": 71,
      "hit": false,
      "t": 44500,
      "d": 500,
      "v": 127
    },
    {
      "midi": 74,
      "hit": false,
      "t": 45000,
      "d": 500,
      "v": 127
    },
    {
      "midi": 76,
      "hit": false,
      "t": 45500,
      "d": 250,
      "v": 127
    },
    {
      "midi": 78,
      "hit": false,
      "t": 45750,
      "d": 250,
      "v": 127
    },
    {
      "midi": 76,
      "hit": false,
      "t": 46000,
      "d": 500,
      "v": 127
    },
    {
      "midi": 73,
      "hit": false,
      "t": 46500,
      "d": 500,
      "v": 127
    },
    {
      "midi": 69,
      "hit": false,
      "t": 47000,
      "d": 1000,
      "v": 127
    },
    {
      "midi": 69,
      "hit": false,
      "t": 48000,
      "d": 250,
      "v": 127
    },
    {
      "midi": 81,
      "hit": false,
      "t": 48000,
      "d": 250,
      "v": 127
    },
    {
      "midi": 78,
      "hit": false,
      "t": 48250,
      "d": 250,
      "v": 127
    },
    {
      "midi": 74,
      "hit": false,
      "t": 48500,
      "d": 500,
      "v": 127
    },
    {
      "midi": 74,
      "hit": false,
      "t": 49000,
      "d": 500,
      "v": 127
    },
    {
      "midi": 76,
      "hit": false,
      "t": 49500,
      "d": 250,
      "v": 127
    },
    {
      "midi": 78,
      "hit": false,
      "t": 49750,
      "d": 250,
      "v": 127
    },
    {
      "midi": 76,
      "hit": false,
      "t": 50000,
      "d": 500,
      "v": 127
    },
    {
      "midi": 73,
      "hit": false,
      "t": 50500,
      "d": 500,
      "v": 127
    },
    {
      "midi": 69,
      "hit": false,
      "t": 52000,
      "d": 250,
      "v": 127
    },
    {
      "midi": 81,
      "hit": false,
      "t": 52000,
      "d": 250,
      "v": 127
    },
    {
      "midi": 78,
      "hit": false,
      "t": 52250,
      "d": 250,
      "v": 127
    },
    {
      "midi": 74,
      "hit": false,
      "t": 52500,
      "d": 500,
      "v": 127
    },
    {
      "midi": 74,
      "hit": false,
      "t": 53000,
      "d": 500,
      "v": 127
    },
    {
      "midi": 76,
      "hit": false,
      "t": 53500,
      "d": 250,
      "v": 127
    },
    {
      "midi": 78,
      "hit": false,
      "t": 53750,
      "d": 250,
      "v": 127
    },
    {
      "midi": 76,
      "hit": false,
      "t": 54000,
      "d": 2000,
      "v": 127
    },
    {
      "midi": 86,
      "hit": false,
      "t": 56000,
      "d": 250,
      "v": 127
    },
    {
      "midi": 83,
      "hit": false,
      "t": 56250,
      "d": 250,
      "v": 127
    },
    {
      "midi": 79,
      "hit": false,
      "t": 56500,
      "d": 500,
      "v": 127
    },
    {
      "midi": 78,
      "hit": false,
      "t": 57000,
      "d": 250,
      "v": 127
    },
    {
      "midi": 81,
      "hit": false,
      "t": 57250,
      "d": 250,
      "v": 127
    },
    {
      "midi": 86,
      "hit": false,
      "t": 57500,
      "d": 500,
      "v": 127
    },
    {
      "midi": 83,
      "hit": false,
      "t": 58000,
      "d": 250,
      "v": 127
    },
    {
      "midi": 79,
      "hit": false,
      "t": 58250,
      "d": 250,
      "v": 127
    },
    {
      "midi": 76,
      "hit": false,
      "t": 58500,
      "d": 500,
      "v": 127
    },
    {
      "midi": 74,
      "hit": false,
      "t": 59000,
      "d": 250,
      "v": 127
    },
    {
      "midi": 78,
      "hit": false,
      "t": 59250,
      "d": 250,
      "v": 127
    },
    {
      "midi": 81,
      "hit": false,
      "t": 59500,
      "d": 500,
      "v": 127
    },
    {
      "midi": 79,
      "hit": false,
      "t": 60000,
      "d": 250,
      "v": 127
    },
    {
      "midi": 76,
      "hit": false,
      "t": 60250,
      "d": 250,
      "v": 127
    },
    {
      "midi": 71,
      "hit": false,
      "t": 60500,
      "d": 500,
      "v": 127
    },
    {
      "midi": 74,
      "hit": false,
      "t": 61000,
      "d": 500,
      "v": 127
    },
    {
      "midi": 76,
      "hit": false,
      "t": 61500,
      "d": 250,
      "v": 127
    },
    {
      "midi": 78,
      "hit": false,
      "t": 61750,
      "d": 250,
      "v": 127
    },
    {
      "midi": 76,
      "hit": false,
      "t": 62000,
      "d": 500,
      "v": 127
    },
    {
      "midi": 73,
      "hit": false,
      "t": 62500,
      "d": 500,
      "v": 127
    },
    {
      "midi": 69,
      "hit": false,
      "t": 63000,
      "d": 1000,
      "v": 127
    },
    {
      "midi": 65,
      "hit": false,
      "t": 65000,
      "d": 1000,
      "v": 127
    },
    {
      "midi": 69,
      "hit": false,
      "t": 65000,
      "d": 1000,
      "v": 127
    },
    {
      "midi": 74,
      "hit": false,
      "t": 65000,
      "d": 1000,
      "v": 127
    },
    {
      "midi": 69,
      "hit": false,
      "t": 66000,
      "d": 2000,
      "v": 127
    },
    {
      "midi": 73,
      "hit": false,
      "t": 66000,
      "d": 2000,
      "v": 127
    },
    {
      "midi": 70,
      "hit": false,
      "t": 69000,
      "d": 1000,
      "v": 127
    },
    {
      "midi": 76,
      "hit": false,
      "t": 69000,
      "d": 1000,
      "v": 127
    },
    {
      "midi": 69,
      "hit": false,
      "t": 70000,
      "d": 2000,
      "v": 127
    },
    {
      "midi": 73,
      "hit": false,
      "t": 70000,
      "d": 2000,
      "v": 127
    },
    {
      "midi": 73,
      "hit": false,
      "t": 73000,
      "d": 1000,
      "v": 127
    },
    {
      "midi": 74,
      "hit": false,
      "t": 74000,
      "d": 1000,
      "v": 127
    },
    {
      "midi": 69,
      "hit": false,
      "t": 75000,
      "d": 1000,
      "v": 127
    },
    {
      "midi": 77,
      "hit": false,
      "t": 75000,
      "d": 1000,
      "v": 127
    },
    {
      "midi": 74,
      "hit": false,
      "t": 76000,
      "d": 1000,
      "v": 127
    },
    {
      "midi": 79,
      "hit": false,
      "t": 76000,
      "d": 1000,
      "v": 127
    },
    {
      "midi": 74,
      "hit": false,
      "t": 77000,
      "d": 1000,
      "v": 127
    },
    {
      "midi": 82,
      "hit": false,
      "t": 77000,
      "d": 1000,
      "v": 127
    },
    {
      "midi": 73,
      "hit": false,
      "t": 78000,
      "d": 2000,
      "v": 127
    },
    {
      "midi": 81,
      "hit": false,
      "t": 78000,
      "d": 2000,
      "v": 127
    },
    {
      "midi": 69,
      "hit": false,
      "t": 80000,
      "d": 1000,
      "v": 127
    },
    {
      "midi": 65,
      "hit": false,
      "t": 81000,
      "d": 1000,
      "v": 127
    },
    {
      "midi": 69,
      "hit": false,
      "t": 81000,
      "d": 1000,
      "v": 127
    },
    {
      "midi": 74,
      "hit": false,
      "t": 81000,
      "d": 1000,
      "v": 127
    },
    {
      "midi": 69,
      "hit": false,
      "t": 82000,
      "d": 2000,
      "v": 127
    },
    {
      "midi": 73,
      "hit": false,
      "t": 82000,
      "d": 2000,
      "v": 127
    },
    {
      "midi": 76,
      "hit": false,
      "t": 82000,
      "d": 2000,
      "v": 127
    },
    {
      "midi": 69,
      "hit": false,
      "t": 84000,
      "d": 1000,
      "v": 127
    },
    {
      "midi": 74,
      "hit": false,
      "t": 84000,
      "d": 1000,
      "v": 127
    },
    {
      "midi": 77,
      "hit": false,
      "t": 84000,
      "d": 1000,
      "v": 127
    },
    {
      "midi": 70,
      "hit": false,
      "t": 85000,
      "d": 1000,
      "v": 127
    },
    {
      "midi": 74,
      "hit": false,
      "t": 85000,
      "d": 1000,
      "v": 127
    },
    {
      "midi": 79,
      "hit": false,
      "t": 85000,
      "d": 1000,
      "v": 127
    },
    {
      "midi": 69,
      "hit": false,
      "t": 86000,
      "d": 2000,
      "v": 127
    },
    {
      "midi": 73,
      "hit": false,
      "t": 86000,
      "d": 2000,
      "v": 127
    },
    {
      "midi": 76,
      "hit": false,
      "t": 86000,
      "d": 2000,
      "v": 127
    },
    {
      "midi": 81,
      "hit": false,
      "t": 88000,
      "d": 1000,
      "v": 127
    },
    {
      "midi": 69,
      "hit": false,
      "t": 89000,
      "d": 1000,
      "v": 127
    },
    {
      "midi": 73,
      "hit": false,
      "t": 89000,
      "d": 1000,
      "v": 127
    },
    {
      "midi": 79,
      "hit": false,
      "t": 89000,
      "d": 1000,
      "v": 127
    },
    {
      "midi": 69,
      "hit": false,
      "t": 90000,
      "d": 1000,
      "v": 127
    },
    {
      "midi": 74,
      "hit": false,
      "t": 90000,
      "d": 1000,
      "v": 127
    },
    {
      "midi": 77,
      "hit": false,
      "t": 90000,
      "d": 1000,
      "v": 127
    },
    {
      "midi": 69,
      "hit": false,
      "t": 91000,
      "d": 1000,
      "v": 127
    },
    {
      "midi": 74,
      "hit": false,
      "t": 91000,
      "d": 1000,
      "v": 127
    },
    {
      "midi": 70,
      "hit": false,
      "t": 92000,
      "d": 1000,
      "v": 127
    },
    {
      "midi": 74,
      "hit": false,
      "t": 92000,
      "d": 1000,
      "v": 127
    },
    {
      "midi": 76,
      "hit": false,
      "t": 92000,
      "d": 1000,
      "v": 127
    },
    {
      "midi": 69,
      "hit": false,
      "t": 93000,
      "d": 1000,
      "v": 127
    },
    {
      "midi": 73,
      "hit": false,
      "t": 93000,
      "d": 1000,
      "v": 127
    },
    {
      "midi": 77,
      "hit": false,
      "t": 93000,
      "d": 1000,
      "v": 127
    },
    {
      "midi": 69,
      "hit": false,
      "t": 94000,
      "d": 2000,
      "v": 127
    },
    {
      "midi": 74,
      "hit": false,
      "t": 94000,
      "d": 2000,
      "v": 127
    }
  ]
}