{
  "jsonPath": "Jazz/Cool Jazz/Art Blakey & The Jazz Messengers/i-hear-a-rhapsody.json",
  "path": "Jazz\\Cool Jazz\\Art Blakey & The Jazz Messengers\\I Hear A Rhapsody.mid",
  "name": "I Hear A Rhapsody",
  "difficulty": "Advanced",
  "bpm": 170.0000850000425,
  "notes": [
    {
      "midi": 67,
      "hit": false,
      "t": 1376.4699,
      "d": 611.7643999999998,
      "v": 69
    },
    {
      "midi": 63,
      "hit": false,
      "t": 1379.411075,
      "d": 564.7055999999998,
      "v": 65
    },
    {
      "midi": 59,
      "hit": false,
      "t": 1394.11695,
      "d": 352.9409999999998,
      "v": 59
    },
    {
      "midi": 53,
      "hit": false,
      "t": 1397.058125,
      "d": 552.9408999999998,
      "v": 48
    },
    {
      "midi": 61,
      "hit": false,
      "t": 2061.7636749999997,
      "d": 441.17625,
      "v": 56
    },
    {
      "midi": 65,
      "hit": false,
      "t": 2064.7048499999996,
      "d": 394.11744999999974,
      "v": 67
    },
    {
      "midi": 69,
      "hit": false,
      "t": 2064.7048499999996,
      "d": 405.8821499999999,
      "v": 69
    },
    {
      "midi": 51,
      "hit": false,
      "t": 2082.3518999999997,
      "d": 949.9995250000002,
      "v": 38
    },
    {
      "midi": 71,
      "hit": false,
      "t": 2997.0573249999998,
      "d": 182.35285000000022,
      "v": 62
    },
    {
      "midi": 63,
      "hit": false,
      "t": 3011.7632,
      "d": 149.99992500000008,
      "v": 52
    },
    {
      "midi": 49,
      "hit": false,
      "t": 3035.2925999999998,
      "d": 170.58815000000004,
      "v": 34
    },
    {
      "midi": 48,
      "hit": false,
      "t": 3432.351225,
      "d": 352.9409999999998,
      "v": 45
    },
    {
      "midi": 74,
      "hit": false,
      "t": 3435.2924,
      "d": 332.35277499999984,
      "v": 70
    },
    {
      "midi": 67,
      "hit": false,
      "t": 3449.998275,
      "d": 423.5291999999995,
      "v": 56
    },
    {
      "midi": 63,
      "hit": false,
      "t": 3455.880625,
      "d": 332.35277499999984,
      "v": 29
    },
    {
      "midi": 72,
      "hit": false,
      "t": 3808.8216249999996,
      "d": 141.17639999999983,
      "v": 44
    },
    {
      "midi": 55,
      "hit": false,
      "t": 3817.6451499999994,
      "d": 55.88232500000004,
      "v": 51
    },
    {
      "midi": 75,
      "hit": false,
      "t": 4220.586125,
      "d": 814.7054750000007,
      "v": 56
    },
    {
      "midi": 64,
      "hit": false,
      "t": 4238.233174999999,
      "d": 605.8820500000002,
      "v": 44
    },
    {
      "midi": 72,
      "hit": false,
      "t": 4247.056699999999,
      "d": 688.2349500000009,
      "v": 33
    },
    {
      "midi": 68,
      "hit": false,
      "t": 4249.997874999999,
      "d": 658.8232000000007,
      "v": 37
    },
    {
      "midi": 58,
      "hit": false,
      "t": 4255.880224999999,
      "d": 179.4116750000003,
      "v": 42
    },
    {
      "midi": 30,
      "hit": false,
      "t": 4776.468199999999,
      "d": 99.99995000000035,
      "v": 50
    },
    {
      "midi": 96,
      "hit": false,
      "t": 6294.114500000001,
      "d": 1870.5872999999983,
      "v": 49
    },
    {
      "midi": 88,
      "hit": false,
      "t": 6305.8792,
      "d": 467.6468249999998,
      "v": 45
    },
    {
      "midi": 66,
      "hit": false,
      "t": 6332.349775000001,
      "d": 267.646925,
      "v": 21
    },
    {
      "midi": 70,
      "hit": false,
      "t": 6647.0555,
      "d": 329.41159999999945,
      "v": 29
    },
    {
      "midi": 88,
      "hit": false,
      "t": 7017.64355,
      "d": 491.17622499999925,
      "v": 33
    },
    {
      "midi": 84,
      "hit": false,
      "t": 7020.584725,
      "d": 449.9997749999993,
      "v": 32
    },
    {
      "midi": 78,
      "hit": false,
      "t": 7032.349424999999,
      "d": 308.82337499999994,
      "v": 33
    },
    {
      "midi": 82,
      "hit": false,
      "t": 7429.408049999999,
      "d": 529.4114999999993,
      "v": 26
    },
    {
      "midi": 85,
      "hit": false,
      "t": 7932.348974999999,
      "d": 132.35287499999959,
      "v": 26
    },
    {
      "midi": 88,
      "hit": false,
      "t": 7935.290149999999,
      "d": 391.1762749999998,
      "v": 30
    },
    {
      "midi": 84,
      "hit": false,
      "t": 7949.996024999999,
      "d": 405.88214999999946,
      "v": 25
    },
    {
      "midi": 46,
      "hit": false,
      "t": 9491.171724999998,
      "d": 467.6468250000016,
      "v": 51
    },
    {
      "midi": 74,
      "hit": false,
      "t": 9491.171724999998,
      "d": 2708.822175000001,
      "v": 80
    },
    {
      "midi": 56,
      "hit": false,
      "t": 9911.75975,
      "d": 344.1174750000009,
      "v": 37
    },
    {
      "midi": 67,
      "hit": false,
      "t": 10373.524225000001,
      "d": 1855.8814249999978,
      "v": 44
    },
    {
      "midi": 62,
      "hit": false,
      "t": 10376.465400000001,
      "d": 358.82334999999875,
      "v": 36
    },
    {
      "midi": 58,
      "hit": false,
      "t": 10411.7595,
      "d": 811.7642999999989,
      "v": 32
    },
    {
      "midi": 59,
      "hit": false,
      "t": 11217.64145,
      "d": 770.5878499999999,
      "v": 51
    },
    {
      "midi": 70,
      "hit": false,
      "t": 13076.464049999999,
      "d": 502.94092499999897,
      "v": 55
    },
    {
      "midi": 62,
      "hit": false,
      "t": 13094.111099999998,
      "d": 170.5881499999996,
      "v": 49
    },
    {
      "midi": 39,
      "hit": false,
      "t": 13099.993449999998,
      "d": 567.6467749999993,
      "v": 31
    },
    {
      "midi": 58,
      "hit": false,
      "t": 13126.464024999997,
      "d": 199.9999000000007,
      "v": 18
    },
    {
      "midi": 46,
      "hit": false,
      "t": 13411.757999999998,
      "d": 332.3527749999994,
      "v": 34
    },
    {
      "midi": 67,
      "hit": false,
      "t": 13673.522574999997,
      "d": 164.70579999999973,
      "v": 58
    },
    {
      "midi": 68,
      "hit": false,
      "t": 13882.345999999998,
      "d": 185.29402499999924,
      "v": 56
    },
    {
      "midi": 70,
      "hit": false,
      "t": 14149.992924999997,
      "d": 1202.9405750000005,
      "v": 55
    },
    {
      "midi": 44,
      "hit": false,
      "t": 14158.816449999997,
      "d": 938.2348250000014,
      "v": 37
    },
    {
      "midi": 65,
      "hit": false,
      "t": 14414.698674999996,
      "d": 282.35280000000057,
      "v": 1
    },
    {
      "midi": 54,
      "hit": false,
      "t": 14444.110424999995,
      "d": 538.2350250000018,
      "v": 34
    },
    {
      "midi": 60,
      "hit": false,
      "t": 14758.816149999997,
      "d": 370.5880500000003,
      "v": 17
    },
    {
      "midi": 65,
      "hit": false,
      "t": 15041.168949999997,
      "d": 264.70574999999917,
      "v": 39
    },
    {
      "midi": 65,
      "hit": false,
      "t": 15394.109949999998,
      "d": 782.3525499999996,
      "v": 40
    },
    {
      "midi": 43,
      "hit": false,
      "t": 15399.992299999998,
      "d": 755.8819750000002,
      "v": 31
    },
    {
      "midi": 53,
      "hit": false,
      "t": 15408.815824999998,
      "d": 673.5290750000004,
      "v": 33
    },
    {
      "midi": 61,
      "hit": false,
      "t": 15411.756999999998,
      "d": 576.4703000000009,
      "v": 21
    },
    {
      "midi": 49,
      "hit": false,
      "t": 15779.403874999998,
      "d": 317.64689999999973,
      "v": 29
    },
    {
      "midi": 61,
      "hit": false,
      "t": 16111.756649999998,
      "d": 667.6467250000005,
      "v": 28
    },
    {
      "midi": 65,
      "hit": false,
      "t": 16473.521174999998,
      "d": 147.05875000000015,
      "v": 43
    },
    {
      "midi": 61,
      "hit": false,
      "t": 17082.344399999998,
      "d": 352.9409999999989,
      "v": 21
    },
    {
      "midi": 24,
      "hit": false,
      "t": 17094.109099999998,
      "d": 338.23512499999924,
      "v": 30
    },
    {
      "midi": 36,
      "hit": false,
      "t": 17123.520849999997,
      "d": 364.7056999999986,
      "v": 26
    },
    {
      "midi": 64,
      "hit": false,
      "t": 17126.462024999997,
      "d": 320.58807499999966,
      "v": 40
    },
    {
      "midi": 79,
      "hit": false,
      "t": 18202.932074999997,
      "d": 170.5881499999996,
      "v": 46
    },
    {
      "midi": 55,
      "hit": false,
      "t": 18208.814424999997,
      "d": 161.7646249999998,
      "v": 40
    },
    {
      "midi": 80,
      "hit": false,
      "t": 18423.520199999995,
      "d": 182.3528499999993,
      "v": 45
    },
    {
      "midi": 56,
      "hit": false,
      "t": 18429.402549999995,
      "d": 197.05872499999896,
      "v": 28
    },
    {
      "midi": 58,
      "hit": false,
      "t": 18629.402449999994,
      "d": 79.41172500000175,
      "v": 40
    },
    {
      "midi": 82,
      "hit": false,
      "t": 18629.402449999994,
      "d": 97.05877500000133,
      "v": 56
    },
    {
      "midi": 82,
      "hit": false,
      "t": 18867.637624999996,
      "d": 276.4704499999971,
      "v": 52
    },
    {
      "midi": 58,
      "hit": false,
      "t": 18876.461149999996,
      "d": 182.3528499999993,
      "v": 38
    },
    {
      "midi": 56,
      "hit": false,
      "t": 19108.813974999994,
      "d": 282.35280000000057,
      "v": 35
    },
    {
      "midi": 80,
      "hit": false,
      "t": 19111.755149999994,
      "d": 288.23515000000043,
      "v": 43
    },
    {
      "midi": 83,
      "hit": false,
      "t": 19426.460874999993,
      "d": 361.7645249999987,
      "v": 54
    },
    {
      "midi": 59,
      "hit": false,
      "t": 19435.284399999993,
      "d": 302.9410250000001,
      "v": 40
    },
    {
      "midi": 44,
      "hit": false,
      "t": 19935.284149999992,
      "d": 655.882024999999,
      "v": 33
    },
    {
      "midi": 63,
      "hit": false,
      "t": 20299.98984999999,
      "d": 929.4112999999998,
      "v": 48
    },
    {
      "midi": 59,
      "hit": false,
      "t": 20305.87219999999,
      "d": 747.0584500000004,
      "v": 45
    },
    {
      "midi": 70,
      "hit": false,
      "t": 20599.98969999999,
      "d": 576.4703000000009,
      "v": 64
    },
    {
      "midi": 47,
      "hit": false,
      "t": 21329.401099999992,
      "d": 344.1174749999991,
      "v": 36
    },
    {
      "midi": 62,
      "hit": false,
      "t": 21335.28344999999,
      "d": 317.64689999999973,
      "v": 37
    },
    {
      "midi": 57,
      "hit": false,
      "t": 21347.04814999999,
      "d": 199.9998999999989,
      "v": 30
    },
    {
      "midi": 57,
      "hit": false,
      "t": 21682.34209999999,
      "d": 47.05879999999888,
      "v": 42
    },
    {
      "midi": 69,
      "hit": false,
      "t": 22002.93017499999,
      "d": 194.11754999999903,
      "v": 52
    },
    {
      "midi": 74,
      "hit": false,
      "t": 22008.81252499999,
      "d": 223.52929999999833,
      "v": 65
    },
    {
      "midi": 62,
      "hit": false,
      "t": 22011.75369999999,
      "d": 767.646675,
      "v": 45
    },
    {
      "midi": 76,
      "hit": false,
      "t": 22361.75352499999,
      "d": 108.82347500000105,
      "v": 34
    },
    {
      "midi": 74,
      "hit": false,
      "t": 22367.63587499999,
      "d": 252.94105000000127,
      "v": 55
    },
    {
      "midi": 71,
      "hit": false,
      "t": 22776.45919999999,
      "d": 626.4702749999997,
      "v": 43
    },
    {
      "midi": 74,
      "hit": false,
      "t": 22779.40037499999,
      "d": 676.4702499999985,
      "v": 58
    },
    {
      "midi": 56,
      "hit": false,
      "t": 22823.51799999999,
      "d": 1182.3523499999974,
      "v": 25
    },
    {
      "midi": 62,
      "hit": false,
      "t": 23170.576649999988,
      "d": 773.5290249999998,
      "v": 50
    },
    {
      "midi": 67,
      "hit": false,
      "t": 23585.28232499999,
      "d": 202.94107499999882,
      "v": 43
    },
    {
      "midi": 74,
      "hit": false,
      "t": 23588.22349999999,
      "d": 188.23519999999917,
      "v": 38
    },
    {
      "midi": 71,
      "hit": false,
      "t": 23597.04702499999,
      "d": 520.5879749999949,
      "v": 49
    },
    {
      "midi": 74,
      "hit": false,
      "t": 24047.046799999986,
      "d": 114.70582499999728,
      "v": 58
    },
    {
      "midi": 69,
      "hit": false,
      "t": 24558.811249999984,
      "d": 247.05869999999777,
      "v": 56
    },
    {
      "midi": 77,
      "hit": false,
      "t": 24558.811249999984,
      "d": 373.5292249999984,
      "v": 63
    },
    {
      "midi": 51,
      "hit": false,
      "t": 24573.517124999984,
      "d": 682.3525999999947,
      "v": 35
    },
    {
      "midi": 66,
      "hit": false,
      "t": 24579.399474999984,
      "d": 358.82334999999875,
      "v": 34
    },
    {
      "midi": 74,
      "hit": false,
      "t": 24582.340649999984,
      "d": 252.94104999999763,
      "v": 41
    },
    {
      "midi": 59,
      "hit": false,
      "t": 24597.046524999983,
      "d": 388.23509999999806,
      "v": 19
    },
    {
      "midi": 75,
      "hit": false,
      "t": 25020.57572499998,
      "d": 299.9998499999965,
      "v": 55
    },
    {
      "midi": 67,
      "hit": false,
      "t": 25029.39924999998,
      "d": 164.70579999999973,
      "v": 45
    },
    {
      "midi": 60,
      "hit": false,
      "t": 25058.81099999998,
      "d": 138.23522500000036,
      "v": 33
    },
    {
      "midi": 75,
      "hit": false,
      "t": 25614.693074999977,
      "d": 1947.057850000001,
      "v": 63
    },
    {
      "midi": 71,
      "hit": false,
      "t": 25623.516599999977,
      "d": 1832.3520250000001,
      "v": 69
    },
    {
      "midi": 66,
      "hit": false,
      "t": 25629.398949999977,
      "d": 1817.6461500000005,
      "v": 59
    },
    {
      "midi": 45,
      "hit": false,
      "t": 25638.222474999977,
      "d": 149.99992500000008,
      "v": 55
    },
    {
      "midi": 61,
      "hit": false,
      "t": 26305.869199999976,
      "d": 491.17622499999925,
      "v": 38
    },
    {
      "midi": 55,
      "hit": false,
      "t": 26317.633899999975,
      "d": 476.4703499999996,
      "v": 51
    },
    {
      "midi": 38,
      "hit": false,
      "t": 27211.751099999976,
      "d": 114.70582500000091,
      "v": 60
    },
    {
      "midi": 60,
      "hit": false,
      "t": 27791.162574999977,
      "d": 394.11745000000155,
      "v": 53
    },
    {
      "midi": 68,
      "hit": false,
      "t": 27791.162574999977,
      "d": 505.88210000000254,
      "v": 46
    },
    {
      "midi": 54,
      "hit": false,
      "t": 27794.103749999977,
      "d": 476.47035000000324,
      "v": 36
    },
    {
      "midi": 65,
      "hit": false,
      "t": 27797.044924999977,
      "d": 482.3527000000031,
      "v": 55
    },
    {
      "midi": 72,
      "hit": false,
      "t": 27797.044924999977,
      "d": 505.88210000000254,
      "v": 45
    },
    {
      "midi": 79,
      "hit": false,
      "t": 28594.10334999998,
      "d": 594.1173500000004,
      "v": 78
    },
    {
      "midi": 43,
      "hit": false,
      "t": 29014.69137499998,
      "d": 197.05872499999896,
      "v": 77
    },
    {
      "midi": 76,
      "hit": false,
      "t": 29585.279324999978,
      "d": 576.4703000000009,
      "v": 72
    },
    {
      "midi": 81,
      "hit": false,
      "t": 29585.279324999978,
      "d": 588.2350000000006,
      "v": 73
    },
    {
      "midi": 69,
      "hit": false,
      "t": 29594.102849999977,
      "d": 491.1762250000029,
      "v": 66
    },
    {
      "midi": 64,
      "hit": false,
      "t": 29599.985199999977,
      "d": 491.1762250000029,
      "v": 58
    },
    {
      "midi": 53,
      "hit": false,
      "t": 29602.926374999977,
      "d": 479.41152500000317,
      "v": 50
    },
    {
      "midi": 59,
      "hit": false,
      "t": 29620.573424999977,
      "d": 470.5880000000034,
      "v": 53
    },
    {
      "midi": 83,
      "hit": false,
      "t": 30673.514074999977,
      "d": 735.2937499999971,
      "v": 54
    },
    {
      "midi": 71,
      "hit": false,
      "t": 30688.219949999977,
      "d": 855.8819249999979,
      "v": 46
    },
    {
      "midi": 63,
      "hit": false,
      "t": 30697.043474999977,
      "d": 714.7055249999976,
      "v": 32
    },
    {
      "midi": 76,
      "hit": false,
      "t": 30697.043474999977,
      "d": 758.8231499999965,
      "v": 50
    },
    {
      "midi": 53,
      "hit": false,
      "t": 30699.984649999977,
      "d": 726.4702249999973,
      "v": 43
    },
    {
      "midi": 80,
      "hit": false,
      "t": 30708.808174999976,
      "d": 714.7055249999976,
      "v": 34
    },
    {
      "midi": 59,
      "hit": false,
      "t": 30711.749349999976,
      "d": 647.0584999999992,
      "v": 41
    },
    {
      "midi": 74,
      "hit": false,
      "t": 32285.277974999975,
      "d": 1679.4109249999965,
      "v": 70
    },
    {
      "midi": 67,
      "hit": false,
      "t": 32320.572074999975,
      "d": 1694.1167999999961,
      "v": 64
    },
    {
      "midi": 59,
      "hit": false,
      "t": 32344.101474999974,
      "d": 1744.116774999995,
      "v": 43
    },
    {
      "midi": 63,
      "hit": false,
      "t": 32352.924999999974,
      "d": 1814.7049749999933,
      "v": 30
    },
    {
      "midi": 72,
      "hit": false,
      "t": 33988.21829999997,
      "d": 138.23522499999672,
      "v": 38
    },
    {
      "midi": 75,
      "hit": false,
      "t": 34347.04164999997,
      "d": 579.4114750000008,
      "v": 37
    },
    {
      "midi": 72,
      "hit": false,
      "t": 34382.33574999997,
      "d": 573.5291250000009,
      "v": 31
    },
    {
      "midi": 68,
      "hit": false,
      "t": 34385.27692499997,
      "d": 702.9408249999979,
      "v": 34
    },
    {
      "midi": 64,
      "hit": false,
      "t": 34391.15927499997,
      "d": 532.3526750000019,
      "v": 42
    },
    {
      "midi": 58,
      "hit": false,
      "t": 34394.10044999997,
      "d": 714.7055249999976,
      "v": 39
    },
    {
      "midi": 75,
      "hit": false,
      "t": 35005.86484999997,
      "d": 367.64687499999854,
      "v": 50
    },
    {
      "midi": 75,
      "hit": false,
      "t": 35541.15869999997,
      "d": 255.88222499999392,
      "v": 44
    },
    {
      "midi": 41,
      "hit": false,
      "t": 35564.68809999997,
      "d": 776.4701999999961,
      "v": 36
    },
    {
      "midi": 67,
      "hit": false,
      "t": 35611.74689999997,
      "d": 188.23519999999553,
      "v": 20
    },
    {
      "midi": 48,
      "hit": false,
      "t": 36102.923124999965,
      "d": 241.17635000000155,
      "v": 34
    },
    {
      "midi": 53,
      "hit": false,
      "t": 36388.217099999965,
      "d": 1297.058174999991,
      "v": 33
    },
    {
      "midi": 55,
      "hit": false,
      "t": 36670.569899999966,
      "d": 182.35285000000295,
      "v": 44
    },
    {
      "midi": 56,
      "hit": false,
      "t": 36899.98154999997,
      "d": 173.52932500000315,
      "v": 49
    },
    {
      "midi": 57,
      "hit": false,
      "t": 37073.51087499997,
      "d": 102.94112499999756,
      "v": 50
    },
    {
      "midi": 58,
      "hit": false,
      "t": 37258.80489999997,
      "d": 111.76464999999735,
      "v": 31
    },
    {
      "midi": 59,
      "hit": false,
      "t": 37411.74599999996,
      "d": 129.41169999999693,
      "v": 44
    },
    {
      "midi": 61,
      "hit": false,
      "t": 37582.33414999996,
      "d": 129.41169999999693,
      "v": 55
    },
    {
      "midi": 62,
      "hit": false,
      "t": 37767.628174999954,
      "d": 111.76464999999735,
      "v": 57
    },
    {
      "midi": 63,
      "hit": false,
      "t": 37958.80454999995,
      "d": 114.70582499999728,
      "v": 43
    },
    {
      "midi": 56,
      "hit": false,
      "t": 38014.68687499995,
      "d": 988.2347999999984,
      "v": 25
    },
    {
      "midi": 46,
      "hit": false,
      "t": 38052.92214999995,
      "d": 2202.9400749999913,
      "v": 25
    },
    {
      "midi": 64,
      "hit": false,
      "t": 38123.510349999946,
      "d": 182.35285000000295,
      "v": 41
    },
    {
      "midi": 65,
      "hit": false,
      "t": 38341.15729999995,
      "d": 376.47039999999834,
      "v": 49
    },
    {
      "midi": 62,
      "hit": false,
      "t": 38720.568874999946,
      "d": 114.70582499999728,
      "v": 52
    },
    {
      "midi": 74,
      "hit": false,
      "t": 39170.56864999995,
      "d": 632.3526249999995,
      "v": 68
    },
    {
      "midi": 67,
      "hit": false,
      "t": 39570.56844999995,
      "d": 370.5880499999985,
      "v": 51
    },
    {
      "midi": 62,
      "hit": false,
      "t": 39588.21549999995,
      "d": 320.58807499999966,
      "v": 43
    },
    {
      "midi": 56,
      "hit": false,
      "t": 39597.03902499995,
      "d": 388.23509999999806,
      "v": 25
    },
    {
      "midi": 70,
      "hit": false,
      "t": 40097.03877499994,
      "d": 647.0584999999919,
      "v": 63
    },
    {
      "midi": 67,
      "hit": false,
      "t": 40099.97994999994,
      "d": 447.05859999999666,
      "v": 63
    },
    {
      "midi": 62,
      "hit": false,
      "t": 40105.86229999994,
      "d": 555.8820749999941,
      "v": 54
    },
    {
      "midi": 55,
      "hit": false,
      "t": 40120.56817499994,
      "d": 876.4701499999937,
      "v": 46
    },
    {
      "midi": 46,
      "hit": false,
      "t": 40441.15624999994,
      "d": 599.999699999993,
      "v": 55
    },
    {
      "midi": 67,
      "hit": false,
      "t": 40708.803174999935,
      "d": 305.8822,
      "v": 64
    },
    {
      "midi": 62,
      "hit": false,
      "t": 40744.097274999935,
      "d": 197.0587250000026,
      "v": 19
    },
    {
      "midi": 68,
      "hit": false,
      "t": 40973.50892499994,
      "d": 255.8822250000012,
      "v": 71
    },
    {
      "midi": 65,
      "hit": false,
      "t": 41332.332274999935,
      "d": 449.9997749999966,
      "v": 49
    },
    {
      "midi": 70,
      "hit": false,
      "t": 41332.332274999935,
      "d": 808.8231249999881,
      "v": 44
    },
    {
      "midi": 60,
      "hit": false,
      "t": 41335.273449999935,
      "d": 294.1175000000003,
      "v": 48
    },
    {
      "midi": 44,
      "hit": false,
      "t": 41341.155799999935,
      "d": 311.7645499999999,
      "v": 45
    },
    {
      "midi": 54,
      "hit": false,
      "t": 41626.449774999935,
      "d": 82.35289999999804,
      "v": 37
    },
    {
      "midi": 60,
      "hit": false,
      "t": 41911.74374999993,
      "d": 97.0587749999977,
      "v": 64
    },
    {
      "midi": 65,
      "hit": false,
      "t": 42173.50832499992,
      "d": 167.6469750000033,
      "v": 56
    },
    {
      "midi": 61,
      "hit": false,
      "t": 42502.91992499993,
      "d": 1888.2343499999843,
      "v": 43
    },
    {
      "midi": 70,
      "hit": false,
      "t": 42514.68462499993,
      "d": 1829.4108499999857,
      "v": 50
    },
    {
      "midi": 43,
      "hit": false,
      "t": 42517.62579999993,
      "d": 264.7057499999937,
      "v": 61
    },
    {
      "midi": 65,
      "hit": false,
      "t": 42517.62579999993,
      "d": 1817.646149999986,
      "v": 57
    },
    {
      "midi": 44,
      "hit": false,
      "t": 42823.50799999992,
      "d": 138.23522499999672,
      "v": 51
    },
    {
      "midi": 45,
      "hit": false,
      "t": 43005.86084999992,
      "d": 120.58817499999714,
      "v": 54
    },
    {
      "midi": 46,
      "hit": false,
      "t": 43191.15487499991,
      "d": 132.35287499999686,
      "v": 33
    },
    {
      "midi": 47,
      "hit": false,
      "t": 43388.21359999991,
      "d": 155.88227500000357,
      "v": 42
    },
    {
      "midi": 48,
      "hit": false,
      "t": 43602.91937499991,
      "d": 167.6469750000033,
      "v": 49
    },
    {
      "midi": 49,
      "hit": false,
      "t": 43838.21337499991,
      "d": 197.0587250000026,
      "v": 44
    },
    {
      "midi": 48,
      "hit": false,
      "t": 44105.86029999991,
      "d": 241.17635000000155,
      "v": 29
    },
    {
      "midi": 36,
      "hit": false,
      "t": 44367.624874999914,
      "d": 58.8234999999986,
      "v": 36
    },
    {
      "midi": 58,
      "hit": false,
      "t": 44673.507074999914,
      "d": 176.47050000000309,
      "v": 31
    },
    {
      "midi": 61,
      "hit": false,
      "t": 44899.977549999916,
      "d": 76.47054999999818,
      "v": 53
    },
    {
      "midi": 68,
      "hit": false,
      "t": 45208.800924999916,
      "d": 255.8822250000012,
      "v": 45
    },
    {
      "midi": 75,
      "hit": false,
      "t": 45217.624449999916,
      "d": 264.705750000001,
      "v": 43
    },
    {
      "midi": 73,
      "hit": false,
      "t": 45526.447824999916,
      "d": 147.0587499999965,
      "v": 34
    },
    {
      "midi": 68,
      "hit": false,
      "t": 45538.212524999915,
      "d": 164.7057999999961,
      "v": 32
    },
    {
      "midi": 61,
      "hit": false,
      "t": 45549.977224999915,
      "d": 91.17642499999783,
      "v": 36
    },
    {
      "midi": 64,
      "hit": false,
      "t": 45555.859574999915,
      "d": 138.23522499999672,
      "v": 25
    },
    {
      "midi": 72,
      "hit": false,
      "t": 45888.212349999914,
      "d": 99.99994999999763,
      "v": 39
    },
    {
      "midi": 58,
      "hit": false,
      "t": 45902.918224999914,
      "d": 173.52932499999588,
      "v": 25
    },
    {
      "midi": 67,
      "hit": false,
      "t": 45908.800574999914,
      "d": 41.17644999999902,
      "v": 43
    },
    {
      "midi": 64,
      "hit": false,
      "t": 45908.800574999914,
      "d": 94.11759999999776,
      "v": 36
    },
    {
      "midi": 61,
      "hit": false,
      "t": 46252.91804999991,
      "d": 158.82344999999623,
      "v": 33
    },
    {
      "midi": 64,
      "hit": false,
      "t": 46255.85922499991,
      "d": 155.8822749999963,
      "v": 41
    },
    {
      "midi": 58,
      "hit": false,
      "t": 46258.80039999991,
      "d": 188.23519999999553,
      "v": 23
    },
    {
      "midi": 48,
      "hit": false,
      "t": 46282.32979999991,
      "d": 55.88232499999867,
      "v": 36
    },
    {
      "midi": 63,
      "hit": false,
      "t": 46670.56489999991,
      "d": 1035.2935999999972,
      "v": 43
    },
    {
      "midi": 70,
      "hit": false,
      "t": 46676.44724999991,
      "d": 788.2349000000031,
      "v": 39
    },
    {
      "midi": 41,
      "hit": false,
      "t": 46682.32959999991,
      "d": 1011.7641999999978,
      "v": 36
    },
    {
      "midi": 48,
      "hit": false,
      "t": 46699.97664999991,
      "d": 1035.2935999999972,
      "v": 28
    },
    {
      "midi": 56,
      "hit": false,
      "t": 46844.094224999906,
      "d": 458.82330000000366,
      "v": 1
    },
    {
      "midi": 55,
      "hit": false,
      "t": 47117.62349999991,
      "d": 488.23505000000296,
      "v": 48
    },
    {
      "midi": 56,
      "hit": false,
      "t": 47458.79979999991,
      "d": 217.64694999999483,
      "v": 48
    },
    {
      "midi": 68,
      "hit": false,
      "t": 47744.09377499991,
      "d": 129.41169999999693,
      "v": 59
    },
    {
      "midi": 71,
      "hit": false,
      "t": 48147.034749999904,
      "d": 888.2348500000007,
      "v": 64
    },
    {
      "midi": 44,
      "hit": false,
      "t": 48149.975924999904,
      "d": 332.3527749999994,
      "v": 38
    },
    {
      "midi": 59,
      "hit": false,
      "t": 48173.505324999904,
      "d": 279.41162500000064,
      "v": 49
    },
    {
      "midi": 63,
      "hit": false,
      "t": 48179.3876749999,
      "d": 420.5880249999973,
      "v": 37
    },
    {
      "midi": 53,
      "hit": false,
      "t": 48479.387524999904,
      "d": 47.05879999999888,
      "v": 53
    },
    {
      "midi": 59,
      "hit": false,
      "t": 48841.1520499999,
      "d": 391.17627500000526,
      "v": 59
    },
    {
      "midi": 70,
      "hit": false,
      "t": 49670.563399999905,
      "d": 464.70564999999624,
      "v": 62
    },
    {
      "midi": 71,
      "hit": false,
      "t": 49676.445749999904,
      "d": 411.7644999999975,
      "v": 58
    },
    {
      "midi": 74,
      "hit": false,
      "t": 49679.386924999904,
      "d": 432.352724999997,
      "v": 62
    },
    {
      "midi": 76,
      "hit": false,
      "t": 49682.328099999904,
      "d": 429.4115499999971,
      "v": 65
    },
    {
      "midi": 68,
      "hit": false,
      "t": 49685.269274999904,
      "d": 464.70564999999624,
      "v": 35
    },
    {
      "midi": 79,
      "hit": false,
      "t": 50079.3867249999,
      "d": 73.52937499999825,
      "v": 48
    },
    {
      "midi": 91,
      "hit": false,
      "t": 50485.2688749999,
      "d": 85.29407499999797,
      "v": 57
    },
    {
      "midi": 56,
      "hit": false,
      "t": 50908.7980749999,
      "d": 85.29407499999797,
      "v": 35
    },
    {
      "midi": 66,
      "hit": false,
      "t": 51488.2095499999,
      "d": 552.9408999999941,
      "v": 33
    },
    {
      "midi": 74,
      "hit": false,
      "t": 51494.0918999999,
      "d": 608.8232249999928,
      "v": 35
    },
    {
      "midi": 46,
      "hit": false,
      "t": 51499.9742499999,
      "d": 1867.646124999992,
      "v": 37
    },
    {
      "midi": 62,
      "hit": false,
      "t": 51502.9154249999,
      "d": 579.4114749999935,
      "v": 35
    },
    {
      "midi": 56,
      "hit": false,
      "t": 51511.7389499999,
      "d": 1735.2932499999952,
      "v": 26
    },
    {
      "midi": 74,
      "hit": false,
      "t": 52173.50332499989,
      "d": 126.470524999997,
      "v": 42
    },
    {
      "midi": 74,
      "hit": false,
      "t": 52567.62077499989,
      "d": 326.4704249999995,
      "v": 57
    },
    {
      "midi": 74,
      "hit": false,
      "t": 53049.97347499989,
      "d": 214.70577500000218,
      "v": 48
    },
    {
      "midi": 57,
      "hit": false,
      "t": 54073.50237499989,
      "d": 229.41164999999455,
      "v": 56
    },
    {
      "midi": 65,
      "hit": false,
      "t": 54082.32589999989,
      "d": 338.23512499999197,
      "v": 53
    },
    {
      "midi": 39,
      "hit": false,
      "t": 54088.20824999989,
      "d": 2367.6458749999947,
      "v": 37
    },
    {
      "midi": 54,
      "hit": false,
      "t": 54099.97294999989,
      "d": 288.23514999999315,
      "v": 46
    },
    {
      "midi": 62,
      "hit": false,
      "t": 54102.91412499989,
      "d": 232.35282499999448,
      "v": 34
    },
    {
      "midi": 47,
      "hit": false,
      "t": 54111.737649999886,
      "d": 414.70567499999015,
      "v": 28
    },
    {
      "midi": 63,
      "hit": false,
      "t": 54579.384474999875,
      "d": 1197.0582250000007,
      "v": 52
    },
    {
      "midi": 48,
      "hit": false,
      "t": 54585.266824999875,
      "d": 1694.1168000000034,
      "v": 29
    },
    {
      "midi": 55,
      "hit": false,
      "t": 54605.855049999875,
      "d": 1064.7053500000038,
      "v": 51
    },
    {
      "midi": 61,
      "hit": false,
      "t": 56461.73647499988,
      "d": 694.1172999999981,
      "v": 47
    },
    {
      "midi": 63,
      "hit": false,
      "t": 56467.61882499988,
      "d": 302.9410250000001,
      "v": 42
    },
    {
      "midi": 46,
      "hit": false,
      "t": 56467.61882499988,
      "d": 794.1172499999957,
      "v": 37
    },
    {
      "midi": 56,
      "hit": false,
      "t": 56476.44234999988,
      "d": 667.6467249999987,
      "v": 33
    },
    {
      "midi": 63,
      "hit": false,
      "t": 56885.26567499988,
      "d": 223.52930000000197,
      "v": 49
    },
    {
      "midi": 45,
      "hit": false,
      "t": 57270.55959999988,
      "d": 914.7054249999928,
      "v": 37
    },
    {
      "midi": 63,
      "hit": false,
      "t": 57279.38312499988,
      "d": 314.7057249999998,
      "v": 39
    },
    {
      "midi": 60,
      "hit": false,
      "t": 57299.971349999876,
      "d": 502.94092499999533,
      "v": 47
    },
    {
      "midi": 55,
      "hit": false,
      "t": 57305.853699999876,
      "d": 476.47034999999596,
      "v": 38
    },
    {
      "midi": 63,
      "hit": false,
      "t": 57714.67702499987,
      "d": 167.64697499999602,
      "v": 46
    },
    {
      "midi": 63,
      "hit": false,
      "t": 58232.32382499987,
      "d": 402.9409749999977,
      "v": 34
    },
    {
      "midi": 54,
      "hit": false,
      "t": 58235.26499999987,
      "d": 299.99985000000015,
      "v": 29
    },
    {
      "midi": 38,
      "hit": false,
      "t": 58244.08852499987,
      "d": 720.5878749999974,
      "v": 34
    },
    {
      "midi": 60,
      "hit": false,
      "t": 58258.79439999987,
      "d": 344.1174749999991,
      "v": 43
    },
    {
      "midi": 74,
      "hit": false,
      "t": 59041.146949999864,
      "d": 1614.7050750000053,
      "v": 80
    },
    {
      "midi": 69,
      "hit": false,
      "t": 59502.91142499987,
      "d": 1199.9994000000006,
      "v": 53
    },
    {
      "midi": 72,
      "hit": false,
      "t": 60679.38142499987,
      "d": 197.0587250000026,
      "v": 42
    },
    {
      "midi": 69,
      "hit": false,
      "t": 60870.55779999987,
      "d": 141.17639999999665,
      "v": 50
    },
    {
      "midi": 70,
      "hit": false,
      "t": 61073.49887499987,
      "d": 829.4113500000021,
      "v": 36
    },
    {
      "midi": 43,
      "hit": false,
      "t": 61076.44004999987,
      "d": 605.8820500000074,
      "v": 38
    },
    {
      "midi": 50,
      "hit": false,
      "t": 61429.38104999987,
      "d": 238.23517500000162,
      "v": 32
    },
    {
      "midi": 55,
      "hit": false,
      "t": 61761.73382499987,
      "d": 223.5292999999947,
      "v": 43
    },
    {
      "midi": 58,
      "hit": false,
      "t": 61964.67489999987,
      "d": 1982.3519499999966,
      "v": 34
    },
    {
      "midi": 81,
      "hit": false,
      "t": 62241.14534999987,
      "d": 232.35282500000176,
      "v": 60
    },
    {
      "midi": 62,
      "hit": false,
      "t": 62244.08652499987,
      "d": 341.1762999999992,
      "v": 30
    },
    {
      "midi": 74,
      "hit": false,
      "t": 62279.38062499987,
      "d": 602.9408750000002,
      "v": 34
    },
    {
      "midi": 70,
      "hit": false,
      "t": 62594.08634999987,
      "d": 349.99982499999896,
      "v": 47
    },
    {
      "midi": 67,
      "hit": false,
      "t": 62623.498099999866,
      "d": 358.82334999999875,
      "v": 33
    },
    {
      "midi": 69,
      "hit": false,
      "t": 63020.556724999864,
      "d": 982.3524499999985,
      "v": 49
    },
    {
      "midi": 62,
      "hit": false,
      "t": 63044.08612499986,
      "d": 805.8819500000027,
      "v": 29
    },
    {
      "midi": 74,
      "hit": false,
      "t": 63382.32124999986,
      "d": 552.9409000000014,
      "v": 76
    },
    {
      "midi": 75,
      "hit": false,
      "t": 63947.026849999864,
      "d": 188.23519999999553,
      "v": 77
    },
    {
      "midi": 77,
      "hit": false,
      "t": 64158.79144999986,
      "d": 161.76462500000343,
      "v": 69
    },
    {
      "midi": 75,
      "hit": false,
      "t": 64388.20309999986,
      "d": 776.4701999999888,
      "v": 55
    },
    {
      "midi": 45,
      "hit": false,
      "t": 64414.67367499986,
      "d": 238.23517499999434,
      "v": 47
    },
    {
      "midi": 55,
      "hit": false,
      "t": 64685.26177499985,
      "d": 38.23527499999909,
      "v": 45
    },
    {
      "midi": 60,
      "hit": false,
      "t": 64941.143999999855,
      "d": 191.17637499999546,
      "v": 58
    },
    {
      "midi": 63,
      "hit": false,
      "t": 65088.20274999985,
      "d": 70.58819999999832,
      "v": 47
    },
    {
      "midi": 67,
      "hit": false,
      "t": 65147.02624999985,
      "d": 108.82347499999742,
      "v": 54
    },
    {
      "midi": 72,
      "hit": false,
      "t": 65297.026174999846,
      "d": 108.82347499999742,
      "v": 51
    },
    {
      "midi": 75,
      "hit": false,
      "t": 65399.967299999844,
      "d": 61.76467499999853,
      "v": 57
    },
    {
      "midi": 79,
      "hit": false,
      "t": 65541.14369999984,
      "d": 91.17642499999783,
      "v": 68
    },
    {
      "midi": 84,
      "hit": false,
      "t": 65661.73187499984,
      "d": 102.94112499999756,
      "v": 66
    },
    {
      "midi": 89,
      "hit": false,
      "t": 65811.73179999983,
      "d": 108.82347499999742,
      "v": 81
    },
    {
      "midi": 87,
      "hit": false,
      "t": 65967.61407499983,
      "d": 123.52934999999707,
      "v": 74
    },
    {
      "midi": 84,
      "hit": false,
      "t": 66129.37869999983,
      "d": 97.0587749999977,
      "v": 68
    },
    {
      "midi": 54,
      "hit": false,
      "t": 66147.02574999983,
      "d": 214.7057749999949,
      "v": 34
    },
    {
      "midi": 60,
      "hit": false,
      "t": 66155.84927499983,
      "d": 79.41172499999811,
      "v": 35
    },
    {
      "midi": 50,
      "hit": false,
      "t": 66188.20219999983,
      "d": 85.29407499999797,
      "v": 17
    },
    {
      "midi": 78,
      "hit": false,
      "t": 66332.31977499982,
      "d": 102.94112499999756,
      "v": 38
    },
    {
      "midi": 77,
      "hit": false,
      "t": 66517.61379999982,
      "d": 135.2940499999968,
      "v": 30
    },
    {
      "midi": 75,
      "hit": false,
      "t": 66702.90782499981,
      "d": 108.82347499999742,
      "v": 37
    },
    {
      "midi": 54,
      "hit": false,
      "t": 66899.96654999981,
      "d": 670.5878999999841,
      "v": 18
    },
    {
      "midi": 65,
      "hit": false,
      "t": 66908.79007499981,
      "d": 538.2350249999872,
      "v": 31
    },
    {
      "midi": 74,
      "hit": false,
      "t": 66923.49594999981,
      "d": 179.41167499999574,
      "v": 36
    },
    {
      "midi": 60,
      "hit": false,
      "t": 66929.37829999981,
      "d": 599.9996999999858,
      "v": 36
    },
    {
      "midi": 72,
      "hit": false,
      "t": 67144.0840749998,
      "d": 126.470524999997,
      "v": 45
    },
    {
      "midi": 70,
      "hit": false,
      "t": 67361.7310249998,
      "d": 185.2940249999956,
      "v": 53
    },
    {
      "midi": 69,
      "hit": false,
      "t": 67605.84854999979,
      "d": 232.35282499999448,
      "v": 43
    },
    {
      "midi": 72,
      "hit": false,
      "t": 67879.37782499978,
      "d": 638.2349749999848,
      "v": 51
    },
    {
      "midi": 55,
      "hit": false,
      "t": 67938.20132499978,
      "d": 1147.0582499999728,
      "v": 35
    },
    {
      "midi": 62,
      "hit": false,
      "t": 68226.43647499978,
      "d": 755.881974999982,
      "v": 44
    },
    {
      "midi": 75,
      "hit": false,
      "t": 68594.08334999977,
      "d": 247.05869999999413,
      "v": 73
    },
    {
      "midi": 76,
      "hit": false,
      "t": 68632.31862499977,
      "d": 88.2352499999979,
      "v": 56
    },
    {
      "midi": 74,
      "hit": false,
      "t": 68935.25964999976,
      "d": 249.99987499999406,
      "v": 73
    },
    {
      "midi": 74,
      "hit": false,
      "t": 69299.96534999975,
      "d": 670.5878999999841,
      "v": 68
    },
    {
      "midi": 62,
      "hit": false,
      "t": 69332.31827499975,
      "d": 214.7057749999949,
      "v": 48
    },
    {
      "midi": 58,
      "hit": false,
      "t": 69599.96519999974,
      "d": 208.82342499999504,
      "v": 37
    },
    {
      "midi": 62,
      "hit": false,
      "t": 69835.25919999974,
      "d": 164.7057999999961,
      "v": 56
    },
    {
      "midi": 74,
      "hit": false,
      "t": 70088.20024999973,
      "d": 111.76464999999735,
      "v": 60
    },
    {
      "midi": 74,
      "hit": false,
      "t": 70379.37657499973,
      "d": 591.176174999986,
      "v": 61
    },
    {
      "midi": 63,
      "hit": false,
      "t": 70385.25892499973,
      "d": 494.11739999998827,
      "v": 49
    },
    {
      "midi": 48,
      "hit": false,
      "t": 70399.96479999973,
      "d": 317.64689999999246,
      "v": 45
    },
    {
      "midi": 67,
      "hit": false,
      "t": 70408.78832499972,
      "d": 499.9997499999881,
      "v": 39
    },
    {
      "midi": 58,
      "hit": false,
      "t": 70708.78817499972,
      "d": 99.99994999999763,
      "v": 48
    },
    {
      "midi": 63,
      "hit": false,
      "t": 71017.61154999971,
      "d": 332.3527749999921,
      "v": 46
    },
    {
      "midi": 67,
      "hit": false,
      "t": 71029.37624999971,
      "d": 379.411574999991,
      "v": 45
    },
    {
      "midi": 60,
      "hit": false,
      "t": 71067.61152499971,
      "d": 35.29409999999916,
      "v": 24
    },
    {
      "midi": 74,
      "hit": false,
      "t": 71391.1407749997,
      "d": 638.2349749999994,
      "v": 62
    },
    {
      "midi": 29,
      "hit": false,
      "t": 71814.6699749997,
      "d": 102.94112499999756,
      "v": 58
    },
    {
      "midi": 66,
      "hit": false,
      "t": 72391.1402749997,
      "d": 382.3527499999909,
      "v": 38
    },
    {
      "midi": 59,
      "hit": false,
      "t": 72397.0226249997,
      "d": 155.8822749999963,
      "v": 44
    },
    {
      "midi": 51,
      "hit": false,
      "t": 72414.6696749997,
      "d": 729.4113999999827,
      "v": 44
    },
    {
      "midi": 69,
      "hit": false,
      "t": 72999.96349999969,
      "d": 252.941049999994,
      "v": 48
    },
    {
      "midi": 66,
      "hit": false,
      "t": 73011.72819999969,
      "d": 297.05867499999295,
      "v": 26
    },
    {
      "midi": 57,
      "hit": false,
      "t": 73038.19877499969,
      "d": 279.41162499999336,
      "v": 36
    },
    {
      "midi": 62,
      "hit": false,
      "t": 73044.08112499969,
      "d": 108.82347499999742,
      "v": 22
    },
    {
      "midi": 66,
      "hit": false,
      "t": 73497.02207499968,
      "d": 220.58812499999476,
      "v": 35
    },
    {
      "midi": 72,
      "hit": false,
      "t": 73508.78677499968,
      "d": 202.94107499999518,
      "v": 32
    },
    {
      "midi": 60,
      "hit": false,
      "t": 73535.25734999968,
      "d": 132.35287499999686,
      "v": 32
    },
    {
      "midi": 75,
      "hit": false,
      "t": 73985.25712499967,
      "d": 35.29409999999916,
      "v": 29
    },
    {
      "midi": 77,
      "hit": false,
      "t": 74155.84527499966,
      "d": 791.1760749999812,
      "v": 64
    },
    {
      "midi": 65,
      "hit": false,
      "t": 74191.13937499966,
      "d": 270.5880999999936,
      "v": 37
    },
    {
      "midi": 62,
      "hit": false,
      "t": 74202.90407499966,
      "d": 676.4702499999839,
      "v": 34
    },
    {
      "midi": 60,
      "hit": false,
      "t": 74208.78642499966,
      "d": 626.4702749999851,
      "v": 44
    },
    {
      "midi": 69,
      "hit": false,
      "t": 74323.49224999966,
      "d": 299.9998499999929,
      "v": 1
    },
    {
      "midi": 53,
      "hit": false,
      "t": 74623.49209999965,
      "d": 1470.5874999999796,
      "v": 37
    },
    {
      "midi": 69,
      "hit": false,
      "t": 75041.13894999964,
      "d": 220.58812499999476,
      "v": 52
    },
    {
      "midi": 74,
      "hit": false,
      "t": 75044.08012499964,
      "d": 111.76464999999735,
      "v": 53
    },
    {
      "midi": 81,
      "hit": false,
      "t": 75449.96227499963,
      "d": 452.9409500000038,
      "v": 85
    },
    {
      "midi": 77,
      "hit": false,
      "t": 75805.84444999964,
      "d": 938.2348249999923,
      "v": 62
    },
    {
      "midi": 74,
      "hit": false,
      "t": 75841.13854999964,
      "d": 1076.470049999989,
      "v": 45
    },
    {
      "midi": 65,
      "hit": false,
      "t": 75847.02089999964,
      "d": 173.52932499999588,
      "v": 28
    },
    {
      "midi": 62,
      "hit": false,
      "t": 75849.96207499964,
      "d": 1229.4111499999854,
      "v": 34
    },
    {
      "midi": 69,
      "hit": false,
      "t": 75852.90324999964,
      "d": 349.9998249999917,
      "v": 44
    },
    {
      "midi": 60,
      "hit": false,
      "t": 75864.66794999964,
      "d": 1188.2346999999863,
      "v": 31
    },
    {
      "midi": 53,
      "hit": false,
      "t": 76191.13837499963,
      "d": 432.3527250000043,
      "v": 47
    },
    {
      "midi": 69,
      "hit": false,
      "t": 76605.84404999964,
      "d": 526.4703249999875,
      "v": 55
    },
    {
      "midi": 53,
      "hit": false,
      "t": 76997.02032499963,
      "d": 167.64697499999602,
      "v": 48
    },
    {
      "midi": 44,
      "hit": false,
      "t": 77679.37292499962,
      "d": 414.70567499999015,
      "v": 50
    },
    {
      "midi": 80,
      "hit": false,
      "t": 77679.37292499962,
      "d": 1505.8815999999933,
      "v": 68
    },
    {
      "midi": 72,
      "hit": false,
      "t": 77691.13762499962,
      "d": 1399.9992999999959,
      "v": 57
    },
    {
      "midi": 68,
      "hit": false,
      "t": 77691.13762499962,
      "d": 1432.352224999995,
      "v": 49
    },
    {
      "midi": 54,
      "hit": false,
      "t": 78044.07862499962,
      "d": 97.0587749999977,
      "v": 39
    },
    {
      "midi": 60,
      "hit": false,
      "t": 78476.43134999962,
      "d": 597.0585250000004,
      "v": 42
    },
    {
      "midi": 65,
      "hit": false,
      "t": 78923.48994999962,
      "d": 170.58814999999595,
      "v": 33
    },
    {
      "midi": 80,
      "hit": false,
      "t": 79482.31319999961,
      "d": 1111.7641499999881,
      "v": 35
    },
    {
      "midi": 54,
      "hit": false,
      "t": 79508.78377499961,
      "d": 2320.587074999974,
      "v": 23
    },
    {
      "midi": 72,
      "hit": false,
      "t": 79523.48964999961,
      "d": 991.175974999991,
      "v": 19
    },
    {
      "midi": 60,
      "hit": false,
      "t": 79526.43082499961,
      "d": 373.5292250000057,
      "v": 33
    },
    {
      "midi": 65,
      "hit": false,
      "t": 79529.37199999961,
      "d": 799.9995999999956,
      "v": 24
    },
    {
      "midi": 68,
      "hit": false,
      "t": 79552.90139999961,
      "d": 608.8232250000001,
      "v": 12
    },
    {
      "midi": 60,
      "hit": false,
      "t": 80117.60699999961,
      "d": 1494.116899999979,
      "v": 35
    },
    {
      "midi": 68,
      "hit": false,
      "t": 80611.7243999996,
      "d": 273.5292749999935,
      "v": 27
    },
    {
      "midi": 65,
      "hit": false,
      "t": 80632.3126249996,
      "d": 541.1761999999871,
      "v": 31
    },
    {
      "midi": 72,
      "hit": false,
      "t": 81555.84157499959,
      "d": 541.1761999999871,
      "v": 81
    },
    {
      "midi": 72,
      "hit": false,
      "t": 82476.42934999958,
      "d": 273.5292749999935,
      "v": 60
    },
    {
      "midi": 68,
      "hit": false,
      "t": 82485.25287499958,
      "d": 373.52922499999113,
      "v": 48
    },
    {
      "midi": 65,
      "hit": false,
      "t": 82505.84109999958,
      "d": 432.35272499998973,
      "v": 45
    },
    {
      "midi": 64,
      "hit": false,
      "t": 82514.66462499958,
      "d": 399.9997999999905,
      "v": 47
    },
    {
      "midi": 50,
      "hit": false,
      "t": 82529.37049999958,
      "d": 461.76447499998903,
      "v": 32
    },
    {
      "midi": 60,
      "hit": false,
      "t": 82532.31167499958,
      "d": 385.29392499999085,
      "v": 34
    },
    {
      "midi": 71,
      "hit": false,
      "t": 82888.19384999957,
      "d": 164.7057999999961,
      "v": 62
    },
    {
      "midi": 56,
      "hit": false,
      "t": 82923.48794999957,
      "d": 55.88232499999867,
      "v": 21
    },
    {
      "midi": 71,
      "hit": false,
      "t": 83385.25242499958,
      "d": 1552.9403999999777,
      "v": 51
    },
    {
      "midi": 64,
      "hit": false,
      "t": 83391.13477499958,
      "d": 788.2348999999813,
      "v": 51
    },
    {
      "midi": 43,
      "hit": false,
      "t": 83394.07594999958,
      "d": 1658.8226999999752,
      "v": 34
    },
    {
      "midi": 59,
      "hit": false,
      "t": 83414.66417499958,
      "d": 726.4702249999827,
      "v": 40
    },
    {
      "midi": 53,
      "hit": false,
      "t": 83426.42887499958,
      "d": 705.8819999999832,
      "v": 33
    },
    {
      "midi": 50,
      "hit": false,
      "t": 83958.78154999956,
      "d": 355.88217499999155,
      "v": 28
    },
    {
      "midi": 59,
      "hit": false,
      "t": 84638.19297499956,
      "d": 444.11742499998945,
      "v": 44
    },
    {
      "midi": 64,
      "hit": false,
      "t": 84644.07532499956,
      "d": 458.8232999999891,
      "v": 38
    },
    {
      "midi": 53,
      "hit": false,
      "t": 84649.95767499956,
      "d": 267.64692499999364,
      "v": 36
    },
    {
      "midi": 67,
      "hit": false,
      "t": 85555.83957499955,
      "d": 279.41162499999336,
      "v": 75
    },
    {
      "midi": 63,
      "hit": false,
      "t": 85561.72192499955,
      "d": 314.7057249999925,
      "v": 64
    },
    {
      "midi": 59,
      "hit": false,
      "t": 85564.66309999955,
      "d": 270.5880999999936,
      "v": 71
    },
    {
      "midi": 41,
      "hit": false,
      "t": 85567.60427499955,
      "d": 297.05867499999295,
      "v": 50
    },
    {
      "midi": 29,
      "hit": false,
      "t": 85567.60427499955,
      "d": 305.88219999999274,
      "v": 44
    },
    {
      "midi": 69,
      "hit": false,
      "t": 86311.72154999955,
      "d": 749.9996249999967,
      "v": 54
    },
    {
      "midi": 61,
      "hit": false,
      "t": 86317.60389999955,
      "d": 720.5878749999974,
      "v": 42
    },
    {
      "midi": 55,
      "hit": false,
      "t": 86323.48624999955,
      "d": 644.1173249999993,
      "v": 60
    },
    {
      "midi": 65,
      "hit": false,
      "t": 86323.48624999955,
      "d": 688.2349499999982,
      "v": 58
    },
    {
      "midi": 39,
      "hit": false,
      "t": 86329.36859999955,
      "d": 808.8231249999953,
      "v": 46
    },
    {
      "midi": 27,
      "hit": false,
      "t": 86338.19212499955,
      "d": 820.5878249999951,
      "v": 57
    },
    {
      "midi": 67,
      "hit": false,
      "t": 86341.13329999955,
      "d": 41.17644999999902,
      "v": 36
    },
    {
      "midi": 66,
      "hit": false,
      "t": 86344.07447499955,
      "d": 55.88232499999867,
      "v": 35
    },
    {
      "midi": 71,
      "hit": false,
      "t": 89147.01424999954,
      "d": 673.5290749999986,
      "v": 29
    },
    {
      "midi": 67,
      "hit": false,
      "t": 89164.66129999954,
      "d": 614.705575,
      "v": 44
    },
    {
      "midi": 63,
      "hit": false,
      "t": 89173.48482499954,
      "d": 608.8232250000001,
      "v": 30
    },
    {
      "midi": 37,
      "hit": false,
      "t": 89182.30834999954,
      "d": 647.0584999999992,
      "v": 28
    },
    {
      "midi": 25,
      "hit": false,
      "t": 89188.19069999954,
      "d": 608.8232250000001,
      "v": 30
    },
    {
      "midi": 59,
      "hit": false,
      "t": 89194.07304999954,
      "d": 532.3526750000019,
      "v": 42
    },
    {
      "midi": 60,
      "hit": false,
      "t": 91005.83684999954,
      "d": 108.82347499999742,
      "v": 33
    },
    {
      "midi": 63,
      "hit": false,
      "t": 91091.13092499954,
      "d": 944.1171749999921,
      "v": 39
    },
    {
      "midi": 61,
      "hit": false,
      "t": 91097.01327499954,
      "d": 102.94112499999756,
      "v": 46
    },
    {
      "midi": 67,
      "hit": false,
      "t": 91132.30737499954,
      "d": 902.9407249999931,
      "v": 58
    },
    {
      "midi": 70,
      "hit": false,
      "t": 91188.18969999954,
      "d": 952.9406999999919,
      "v": 51
    },
    {
      "midi": 62,
      "hit": false,
      "t": 91197.01322499954,
      "d": 676.4702499999985,
      "v": 58
    },
    {
      "midi": 74,
      "hit": false,
      "t": 91205.83674999954,
      "d": 608.8232250000001,
      "v": 71
    },
    {
      "midi": 72,
      "hit": false,
      "t": 91838.18937499954,
      "d": 252.941049999994,
      "v": 47
    },
    {
      "midi": 60,
      "hit": false,
      "t": 91873.48347499954,
      "d": 61.76467499999853,
      "v": 35
    },
    {
      "midi": 75,
      "hit": false,
      "t": 92426.42437499952,
      "d": 276.47044999999343,
      "v": 39
    },
    {
      "midi": 30,
      "hit": false,
      "t": 92441.13024999952,
      "d": 199.99989999999525,
      "v": 35
    },
    {
      "midi": 68,
      "hit": false,
      "t": 92444.07142499952,
      "d": 211.76459999999497,
      "v": 34
    },
    {
      "midi": 72,
      "hit": false,
      "t": 92447.01259999952,
      "d": 205.8822499999951,
      "v": 32
    },
    {
      "midi": 64,
      "hit": false,
      "t": 92452.89494999952,
      "d": 155.8822749999963,
      "v": 31
    },
    {
      "midi": 42,
      "hit": false,
      "t": 92455.83612499952,
      "d": 244.1175249999942,
      "v": 28
    },
    {
      "midi": 87,
      "hit": false,
      "t": 93661.71787499952,
      "d": 779.411374999996,
      "v": 48
    },
    {
      "midi": 80,
      "hit": false,
      "t": 93682.30609999952,
      "d": 811.7642999999953,
      "v": 30
    },
    {
      "midi": 76,
      "hit": false,
      "t": 93697.01197499952,
      "d": 841.1760499999946,
      "v": 38
    },
    {
      "midi": 64,
      "hit": false,
      "t": 93702.89432499952,
      "d": 702.9408249999979,
      "v": 29
    },
    {
      "midi": 84,
      "hit": false,
      "t": 93702.89432499952,
      "d": 732.3525749999972,
      "v": 45
    },
    {
      "midi": 68,
      "hit": false,
      "t": 94941.12899999952,
      "d": 555.8820749999868,
      "v": 27
    },
    {
      "midi": 72,
      "hit": false,
      "t": 94941.12899999952,
      "d": 582.3526499999862,
      "v": 33
    },
    {
      "midi": 67,
      "hit": false,
      "t": 94949.95252499952,
      "d": 608.8232249999855,
      "v": 30
    },
    {
      "midi": 53,
      "hit": false,
      "t": 94955.83487499952,
      "d": 532.3526749999874,
      "v": 31
    },
    {
      "midi": 63,
      "hit": false,
      "t": 94988.18779999952,
      "d": 455.8821249999892,
      "v": 13
    },
    {
      "midi": 60,
      "hit": false,
      "t": 95002.89367499952,
      "d": 444.11742499998945,
      "v": 30
    },
    {
      "midi": 75,
      "hit": false,
      "t": 95305.83469999951,
      "d": 273.5292749999935,
      "v": 59
    },
    {
      "midi": 80,
      "hit": false,
      "t": 96411.7164999995,
      "d": 199.99989999999525,
      "v": 59
    },
    {
      "midi": 87,
      "hit": false,
      "t": 96652.8928499995,
      "d": 158.82344999999623,
      "v": 79
    },
    {
      "midi": 86,
      "hit": false,
      "t": 96905.83389999949,
      "d": 1367.6463750000112,
      "v": 69
    },
    {
      "midi": 46,
      "hit": false,
      "t": 96923.48094999949,
      "d": 76.47054999999818,
      "v": 42
    },
    {
      "midi": 56,
      "hit": false,
      "t": 97261.71607499948,
      "d": 2164.7048000000214,
      "v": 25
    },
    {
      "midi": 62,
      "hit": false,
      "t": 97579.36297499949,
      "d": 1958.8225500000117,
      "v": 35
    },
    {
      "midi": 67,
      "hit": false,
      "t": 97932.3039749995,
      "d": 1338.2346250000119,
      "v": 35
    },
    {
      "midi": 74,
      "hit": false,
      "t": 98299.9508499995,
      "d": 1244.1170249999996,
      "v": 40
    },
    {
      "midi": 79,
      "hit": false,
      "t": 98667.5977249995,
      "d": 652.940849999999,
      "v": 49
    },
    {
      "midi": 81,
      "hit": false,
      "t": 98988.18579999951,
      "d": 332.3527749999921,
      "v": 71
    },
    {
      "midi": 83,
      "hit": false,
      "t": 99282.3032999995,
      "d": 288.23514999999315,
      "v": 74
    },
    {
      "midi": 82,
      "hit": false,
      "t": 99594.0678499995,
      "d": 644.1173249999847,
      "v": 54
    },
    {
      "midi": 55,
      "hit": false,
      "t": 99629.3619499995,
      "d": 791.1760749999812,
      "v": 50
    },
    {
      "midi": 62,
      "hit": false,
      "t": 99949.95002499949,
      "d": 447.0585999999894,
      "v": 47
    },
    {
      "midi": 79,
      "hit": false,
      "t": 100208.77342499948,
      "d": 285.2939749999932,
      "v": 60
    },
    {
      "midi": 67,
      "hit": false,
      "t": 100255.83222499948,
      "d": 73.52937499999825,
      "v": 34
    },
    {
      "midi": 80,
      "hit": false,
      "t": 100458.77329999948,
      "d": 238.23517499999434,
      "v": 76
    },
    {
      "midi": 44,
      "hit": false,
      "t": 100741.12609999947,
      "d": 332.3527749999921,
      "v": 34
    },
    {
      "midi": 82,
      "hit": false,
      "t": 100749.94962499947,
      "d": 1391.175774999967,
      "v": 62
    },
    {
      "midi": 54,
      "hit": false,
      "t": 101023.47889999946,
      "d": 97.0587749999977,
      "v": 39
    },
    {
      "midi": 60,
      "hit": false,
      "t": 101399.94929999945,
      "d": 641.1761499999848,
      "v": 29
    },
    {
      "midi": 72,
      "hit": false,
      "t": 101694.06679999945,
      "d": 132.35287499999686,
      "v": 44
    },
    {
      "midi": 65,
      "hit": false,
      "t": 101735.24324999945,
      "d": 785.2937249999814,
      "v": 31
    },
    {
      "midi": 73,
      "hit": false,
      "t": 102049.94897499944,
      "d": 1299.9993499999691,
      "v": 35
    },
    {
      "midi": 55,
      "hit": false,
      "t": 102091.12542499944,
      "d": 1285.2934749999695,
      "v": 36
    },
    {
      "midi": 61,
      "hit": false,
      "t": 102429.36054999943,
      "d": 944.1171749999776,
      "v": 32
    },
    {
      "midi": 82,
      "hit": false,
      "t": 102814.65447499942,
      "d": 294.117499999993,
      "v": 34
    },
    {
      "midi": 78,
      "hit": false,
      "t": 103141.12489999941,
      "d": 208.82342499999504,
      "v": 44
    },
    {
      "midi": 79,
      "hit": false,
      "t": 103402.8894749994,
      "d": 252.941049999994,
      "v": 58
    },
    {
      "midi": 73,
      "hit": false,
      "t": 103614.6540749994,
      "d": 270.5880999999936,
      "v": 49
    },
    {
      "midi": 72,
      "hit": false,
      "t": 103899.9480499994,
      "d": 279.41162499999336,
      "v": 36
    },
    {
      "midi": 58,
      "hit": false,
      "t": 103967.5950749994,
      "d": 841.17604999998,
      "v": 14
    },
    {
      "midi": 48,
      "hit": false,
      "t": 103991.1244749994,
      "d": 858.8230999999796,
      "v": 9
    },
    {
      "midi": 75,
      "hit": false,
      "t": 104176.41849999939,
      "d": 370.5880499999912,
      "v": 55
    },
    {
      "midi": 70,
      "hit": false,
      "t": 104458.77129999938,
      "d": 211.76459999999497,
      "v": 50
    },
    {
      "midi": 64,
      "hit": false,
      "t": 104714.65352499938,
      "d": 241.17634999999427,
      "v": 40
    },
    {
      "midi": 61,
      "hit": false,
      "t": 104999.94749999937,
      "d": 323.5292499999923,
      "v": 36
    },
    {
      "midi": 60,
      "hit": false,
      "t": 105320.53557499936,
      "d": 361.76452500000596,
      "v": 44
    },
    {
      "midi": 48,
      "hit": false,
      "t": 105320.53557499936,
      "d": 641.1761499999993,
      "v": 32
    },
    {
      "midi": 58,
      "hit": false,
      "t": 105735.24124999937,
      "d": 676.4702499999839,
      "v": 39
    },
    {
      "midi": 36,
      "hit": false,
      "t": 105764.65299999937,
      "d": 67.6470249999984,
      "v": 27
    },
    {
      "midi": 56,
      "hit": false,
      "t": 106214.65277499935,
      "d": 311.7645499999926,
      "v": 33
    },
    {
      "midi": 51,
      "hit": false,
      "t": 106779.35837499934,
      "d": 376.47039999999106,
      "v": 29
    },
    {
      "midi": 58,
      "hit": false,
      "t": 106794.06424999934,
      "d": 376.47039999999106,
      "v": 38
    },
    {
      "midi": 56,
      "hit": false,
      "t": 106797.00542499934,
      "d": 347.05864999999176,
      "v": 20
    },
    {
      "midi": 41,
      "hit": false,
      "t": 106811.71129999934,
      "d": 1655.8815249999898,
      "v": 34
    },
    {
      "midi": 48,
      "hit": false,
      "t": 107197.00522499933,
      "d": 1305.881699999998,
      "v": 34
    },
    {
      "midi": 70,
      "hit": false,
      "t": 107711.71084999933,
      "d": 782.352549999996,
      "v": 46
    },
    {
      "midi": 55,
      "hit": false,
      "t": 107720.53437499933,
      "d": 811.7642999999953,
      "v": 34
    },
    {
      "midi": 63,
      "hit": false,
      "t": 107723.47554999933,
      "d": 1111.7641499999881,
      "v": 35
    },
    {
      "midi": 56,
      "hit": false,
      "t": 107735.24024999933,
      "d": 805.8819499999954,
      "v": 27
    },
    {
      "midi": 68,
      "hit": false,
      "t": 108567.59277499933,
      "d": 376.47039999999106,
      "v": 46
    },
    {
      "midi": 44,
      "hit": false,
      "t": 109432.29822499932,
      "d": 126.470524999997,
      "v": 33
    },
    {
      "midi": 71,
      "hit": false,
      "t": 109435.23939999932,
      "d": 164.7057999999961,
      "v": 25
    },
    {
      "midi": 54,
      "hit": false,
      "t": 109455.82762499932,
      "d": 82.35289999999804,
      "v": 21
    },
    {
      "midi": 59,
      "hit": false,
      "t": 109458.76879999932,
      "d": 76.47054999999818,
      "v": 30
    },
    {
      "midi": 63,
      "hit": false,
      "t": 109467.59232499932,
      "d": 64.70584999999846,
      "v": 23
    },
    {
      "midi": 71,
      "hit": false,
      "t": 109979.35677499932,
      "d": 164.7057999999961,
      "v": 28
    },
    {
      "midi": 44,
      "hit": false,
      "t": 109985.23912499932,
      "d": 144.11757499999658,
      "v": 23
    },
    {
      "midi": 63,
      "hit": false,
      "t": 109988.18029999932,
      "d": 105.88229999999749,
      "v": 28
    },
    {
      "midi": 54,
      "hit": false,
      "t": 109991.12147499932,
      "d": 161.76462499999616,
      "v": 19
    },
    {
      "midi": 59,
      "hit": false,
      "t": 110002.88617499932,
      "d": 76.47054999999818,
      "v": 31
    },
    {
      "midi": 71,
      "hit": false,
      "t": 110511.70944999933,
      "d": 602.9408750000002,
      "v": 36
    },
    {
      "midi": 63,
      "hit": false,
      "t": 110523.47414999933,
      "d": 2341.175299999988,
      "v": 29
    },
    {
      "midi": 54,
      "hit": false,
      "t": 110529.35649999933,
      "d": 967.6465749999916,
      "v": 31
    },
    {
      "midi": 44,
      "hit": false,
      "t": 110535.23884999932,
      "d": 908.823074999993,
      "v": 26
    },
    {
      "midi": 59,
      "hit": false,
      "t": 110544.06237499932,
      "d": 961.7642249999917,
      "v": 34
    },
    {
      "midi": 71,
      "hit": false,
      "t": 111241.12084999932,
      "d": 1811.763799999986,
      "v": 33
    },
    {
      "midi": 47,
      "hit": false,
      "t": 113173.4728249993,
      "d": 317.64689999999246,
      "v": 38
    },
    {
      "midi": 62,
      "hit": false,
      "t": 113188.1786999993,
      "d": 176.4704999999958,
      "v": 43
    },
    {
      "midi": 57,
      "hit": false,
      "t": 113499.9432499993,
      "d": 47.05879999999888,
      "v": 51
    },
    {
      "midi": 74,
      "hit": false,
      "t": 113808.76662499929,
      "d": 452.94094999998924,
      "v": 66
    },
    {
      "midi": 62,
      "hit": false,
      "t": 113823.47249999929,
      "d": 447.0585999999894,
      "v": 53
    },
    {
      "midi": 66,
      "hit": false,
      "t": 114117.58999999928,
      "d": 208.82342499999504,
      "v": 43
    },
    {
      "midi": 78,
      "hit": false,
      "t": 114132.29587499928,
      "d": 861.7642749999941,
      "v": 60
    },
    {
      "midi": 85,
      "hit": false,
      "t": 115491.11872499928,
      "d": 47.05879999999888,
      "v": 45
    },
    {
      "midi": 73,
      "hit": false,
      "t": 115491.11872499928,
      "d": 85.29407499999797,
      "v": 40
    },
    {
      "midi": 66,
      "hit": false,
      "t": 115526.41282499928,
      "d": 902.9407249999931,
      "v": 34
    },
    {
      "midi": 62,
      "hit": false,
      "t": 115532.29517499928,
      "d": 935.2936499999923,
      "v": 44
    },
    {
      "midi": 56,
      "hit": false,
      "t": 115547.00104999928,
      "d": 982.3524499999912,
      "v": 32
    },
    {
      "midi": 86,
      "hit": false,
      "t": 115567.58927499928,
      "d": 632.3526249999995,
      "v": 51
    },
    {
      "midi": 79,
      "hit": false,
      "t": 115594.05984999928,
      "d": 2682.35159999998,
      "v": 12
    },
    {
      "midi": 74,
      "hit": false,
      "t": 115597.00102499928,
      "d": 2826.4691749999765,
      "v": 48
    },
    {
      "midi": 86,
      "hit": false,
      "t": 116423.47119999927,
      "d": 491.1762250000029,
      "v": 67
    },
    {
      "midi": 86,
      "hit": false,
      "t": 117094.05909999927,
      "d": 526.4703249999875,
      "v": 55
    },
    {
      "midi": 34,
      "hit": false,
      "t": 117099.94144999927,
      "d": 244.1175249999942,
      "v": 40
    },
    {
      "midi": 86,
      "hit": false,
      "t": 117970.52924999926,
      "d": 355.88217499999155,
      "v": 50
    },
    {
      "midi": 77,
      "hit": false,
      "t": 119405.82264999926,
      "d": 429.4115499999898,
      "v": 64
    },
    {
      "midi": 69,
      "hit": false,
      "t": 119408.76382499926,
      "d": 276.47044999999343,
      "v": 71
    },
    {
      "midi": 66,
      "hit": false,
      "t": 119423.46969999926,
      "d": 397.05862499999057,
      "v": 53
    },
    {
      "midi": 59,
      "hit": false,
      "t": 119423.46969999926,
      "d": 520.5879749999876,
      "v": 49
    },
    {
      "midi": 74,
      "hit": false,
      "t": 119426.41087499926,
      "d": 291.1763249999931,
      "v": 54
    },
    {
      "midi": 51,
      "hit": false,
      "t": 119429.35204999926,
      "d": 1444.1169249999803,
      "v": 46
    },
    {
      "midi": 75,
      "hit": false,
      "t": 119964.64589999925,
      "d": 697.058474999998,
      "v": 65
    },
    {
      "midi": 60,
      "hit": false,
      "t": 119988.17529999925,
      "d": 817.6466499999951,
      "v": 52
    },
    {
      "midi": 67,
      "hit": false,
      "t": 119991.11647499925,
      "d": 867.646624999994,
      "v": 64
    },
    {
      "midi": 73,
      "hit": false,
      "t": 119999.93999999925,
      "d": 835.2936999999947,
      "v": 46
    },
    {
      "midi": 75,
      "hit": false,
      "t": 121902.88022499924,
      "d": 2291.175325000004,
      "v": 51
    },
    {
      "midi": 67,
      "hit": false,
      "t": 125976.40759999925,
      "d": 364.70569999999134,
      "v": 36
    },
    {
      "midi": 56,
      "hit": false,
      "t": 125988.17229999925,
      "d": 294.117499999993,
      "v": 21
    },
    {
      "midi": 31,
      "hit": false,
      "t": 125988.17229999925,
      "d": 355.88217499999155,
      "v": 32
    },
    {
      "midi": 60,
      "hit": false,
      "t": 125994.05464999925,
      "d": 291.1763249999931,
      "v": 47
    },
    {
      "midi": 62,
      "hit": false,
      "t": 125994.05464999925,
      "d": 311.7645499999926,
      "v": 32
    },
    {
      "midi": 43,
      "hit": false,
      "t": 125994.05464999925,
      "d": 414.70567499999015,
      "v": 24
    },
    {
      "midi": 79,
      "hit": false,
      "t": 126791.11307499924,
      "d": 135.2940499999968,
      "v": 46
    },
    {
      "midi": 67,
      "hit": false,
      "t": 126802.87777499924,
      "d": 58.8234999999986,
      "v": 36
    },
    {
      "midi": 91,
      "hit": false,
      "t": 127405.81864999924,
      "d": 205.8822499999951,
      "v": 39
    },
    {
      "midi": 79,
      "hit": false,
      "t": 127423.46569999924,
      "d": 114.70582499999728,
      "v": 33
    },
    {
      "midi": 67,
      "hit": false,
      "t": 127441.11274999924,
      "d": 123.52934999999707,
      "v": 31
    },
    {
      "midi": 79,
      "hit": false,
      "t": 128126.40652499924,
      "d": 579.4114750000008,
      "v": 33
    },
    {
      "midi": 103,
      "hit": false,
      "t": 128144.05357499924,
      "d": 782.352549999996,
      "v": 31
    },
    {
      "midi": 91,
      "hit": false,
      "t": 128149.93592499924,
      "d": 770.5878499999963,
      "v": 25
    },
    {
      "midi": 104,
      "hit": false,
      "t": 129611.69989999924,
      "d": 526.4703249999875,
      "v": 34
    },
    {
      "midi": 43,
      "hit": false,
      "t": 129629.34694999924,
      "d": 488.2350499999884,
      "v": 27
    },
    {
      "midi": 92,
      "hit": false,
      "t": 129641.11164999923,
      "d": 473.52917499998875,
      "v": 25
    },
    {
      "midi": 55,
      "hit": false,
      "t": 129652.87634999923,
      "d": 385.29392499999085,
      "v": 24
    },
    {
      "midi": 31,
      "hit": false,
      "t": 130735.22874999922,
      "d": 220.58812499999476,
      "v": 26
    },
    {
      "midi": 67,
      "hit": false,
      "t": 132011.69869999922,
      "d": 70.58819999999832,
      "v": 61
    },
    {
      "midi": 69,
      "hit": false,
      "t": 132241.11034999922,
      "d": 61.764675000013085,
      "v": 55
    },
    {
      "midi": 70,
      "hit": false,
      "t": 132379.34557499923,
      "d": 123.52934999999707,
      "v": 32
    },
    {
      "midi": 74,
      "hit": false,
      "t": 132705.81599999923,
      "d": 223.5292999999947,
      "v": 68
    },
    {
      "midi": 72,
      "hit": false,
      "t": 133058.75699999923,
      "d": 208.8234250000096,
      "v": 40
    },
    {
      "midi": 75,
      "hit": false,
      "t": 133402.87447499923,
      "d": 226.47047500000917,
      "v": 47
    },
    {
      "midi": 73,
      "hit": false,
      "t": 134861.69727499923,
      "d": 179.4116750000103,
      "v": 83
    },
    {
      "midi": 74,
      "hit": false,
      "t": 135058.75599999924,
      "d": 188.23519999999553,
      "v": 60
    },
    {
      "midi": 70,
      "hit": false,
      "t": 135549.93222499924,
      "d": 297.0586750000075,
      "v": 38
    },
    {
      "midi": 67,
      "hit": false,
      "t": 135899.93204999925,
      "d": 208.8234250000096,
      "v": 36
    },
    {
      "midi": 68,
      "hit": false,
      "t": 136117.57899999927,
      "d": 105.88229999999749,
      "v": 36
    },
    {
      "midi": 70,
      "hit": false,
      "t": 136258.75539999927,
      "d": 305.88219999999274,
      "v": 37
    },
    {
      "midi": 67,
      "hit": false,
      "t": 137291.10782499926,
      "d": 199.99990000002435,
      "v": 52
    },
    {
      "midi": 55,
      "hit": false,
      "t": 137314.63722499926,
      "d": 149.999925000011,
      "v": 42
    },
    {
      "midi": 66,
      "hit": false,
      "t": 137514.63712499928,
      "d": 70.58820000002743,
      "v": 29
    },
    {
      "midi": 54,
      "hit": false,
      "t": 137546.9900499993,
      "d": 85.29407500001253,
      "v": 23
    },
    {
      "midi": 55,
      "hit": false,
      "t": 137644.0488249993,
      "d": 108.82347500001197,
      "v": 37
    },
    {
      "midi": 67,
      "hit": false,
      "t": 137652.87234999932,
      "d": 185.29402500001015,
      "v": 30
    },
    {
      "midi": 68,
      "hit": false,
      "t": 137879.34282499933,
      "d": 82.35290000002715,
      "v": 51
    },
    {
      "midi": 56,
      "hit": false,
      "t": 137911.69574999934,
      "d": 217.64695000002393,
      "v": 29
    },
    {
      "midi": 70,
      "hit": false,
      "t": 138017.57804999937,
      "d": 167.64697500001057,
      "v": 37
    },
    {
      "midi": 70,
      "hit": false,
      "t": 138352.8719999994,
      "d": 526.470325000002,
      "v": 47
    },
    {
      "midi": 58,
      "hit": false,
      "t": 138370.5190499994,
      "d": 541.1762000000163,
      "v": 37
    },
    {
      "midi": 68,
      "hit": false,
      "t": 138908.7540749994,
      "d": 67.64702500001295,
      "v": 37
    },
    {
      "midi": 56,
      "hit": false,
      "t": 138935.2246499994,
      "d": 147.0587500000256,
      "v": 25
    },
    {
      "midi": 70,
      "hit": false,
      "t": 139079.34222499942,
      "d": 120.58817500004079,
      "v": 40
    },
    {
      "midi": 71,
      "hit": false,
      "t": 139161.69512499945,
      "d": 179.4116750000103,
      "v": 58
    },
    {
      "midi": 59,
      "hit": false,
      "t": 139167.57747499945,
      "d": 120.58817500001169,
      "v": 32
    },
    {
      "midi": 71,
      "hit": false,
      "t": 139438.16557499947,
      "d": 391.17627500000526,
      "v": 57
    },
    {
      "midi": 59,
      "hit": false,
      "t": 139461.69497499947,
      "d": 397.0586250000051,
      "v": 40
    },
    {
      "midi": 62,
      "hit": false,
      "t": 140138.16522499948,
      "d": 135.2940500000259,
      "v": 54
    },
    {
      "midi": 50,
      "hit": false,
      "t": 140146.9887499995,
      "d": 161.7646250000107,
      "v": 33
    },
    {
      "midi": 63,
      "hit": false,
      "t": 140344.0474749995,
      "d": 58.8234999999986,
      "v": 21
    },
    {
      "midi": 62,
      "hit": false,
      "t": 140396.9886249995,
      "d": 44.117625000013504,
      "v": 44
    },
    {
      "midi": 49,
      "hit": false,
      "t": 140405.81214999952,
      "d": 29.4117499999993,
      "v": 23
    },
    {
      "midi": 61,
      "hit": false,
      "t": 140455.81212499953,
      "d": 32.352925000013784,
      "v": 43
    },
    {
      "midi": 50,
      "hit": false,
      "t": 140494.04739999954,
      "d": 429.4115499999898,
      "v": 37
    },
    {
      "midi": 62,
      "hit": false,
      "t": 140529.34149999954,
      "d": 561.7644250000012,
      "v": 58
    },
    {
      "midi": 63,
      "hit": false,
      "t": 141046.98829999953,
      "d": 76.47055000002729,
      "v": 50
    },
    {
      "midi": 64,
      "hit": false,
      "t": 141126.40002499957,
      "d": 76.47055000002729,
      "v": 60
    },
    {
      "midi": 52,
      "hit": false,
      "t": 141141.1058999996,
      "d": 35.29409999999916,
      "v": 31
    },
    {
      "midi": 53,
      "hit": false,
      "t": 141226.3999749996,
      "d": 638.2349749999994,
      "v": 42
    },
    {
      "midi": 65,
      "hit": false,
      "t": 141232.2823249996,
      "d": 597.0585250000004,
      "v": 62
    },
    {
      "midi": 51,
      "hit": false,
      "t": 141876.3996499996,
      "d": 205.88225000002421,
      "v": 32
    },
    {
      "midi": 63,
      "hit": false,
      "t": 141891.1055249996,
      "d": 194.1175500000245,
      "v": 28
    },
    {
      "midi": 62,
      "hit": false,
      "t": 142144.04657499964,
      "d": 67.64702500001295,
      "v": 20
    },
    {
      "midi": 51,
      "hit": false,
      "t": 142217.57594999965,
      "d": 202.94107500000973,
      "v": 42
    },
    {
      "midi": 63,
      "hit": false,
      "t": 142232.28182499966,
      "d": 208.8234250000096,
      "v": 44
    },
    {
      "midi": 67,
      "hit": false,
      "t": 142949.92852499968,
      "d": 155.88227500001085,
      "v": 103
    },
    {
      "midi": 55,
      "hit": false,
      "t": 142958.7520499997,
      "d": 129.41169999999693,
      "v": 85
    },
    {
      "midi": 67,
      "hit": false,
      "t": 143176.39899999968,
      "d": 126.47052500001155,
      "v": 70
    },
    {
      "midi": 55,
      "hit": false,
      "t": 143176.39899999968,
      "d": 132.3528750000114,
      "v": 63
    },
    {
      "midi": 69,
      "hit": false,
      "t": 143499.9282499997,
      "d": 108.82347500001197,
      "v": 74
    },
    {
      "midi": 57,
      "hit": false,
      "t": 143511.6929499997,
      "d": 117.64700000002631,
      "v": 70
    },
    {
      "midi": 69,
      "hit": false,
      "t": 143676.39874999973,
      "d": 167.64697500001057,
      "v": 64
    },
    {
      "midi": 57,
      "hit": false,
      "t": 143682.28109999973,
      "d": 197.05872500000987,
      "v": 49
    },
    {
      "midi": 71,
      "hit": false,
      "t": 144002.86917499974,
      "d": 141.17640000002575,
      "v": 75
    },
    {
      "midi": 59,
      "hit": false,
      "t": 144017.57504999975,
      "d": 149.999925000011,
      "v": 44
    },
    {
      "midi": 71,
      "hit": false,
      "t": 144202.86907499976,
      "d": 73.5293750000128,
      "v": 70
    },
    {
      "midi": 59,
      "hit": false,
      "t": 144223.45729999978,
      "d": 105.88229999999749,
      "v": 29
    },
    {
      "midi": 74,
      "hit": false,
      "t": 144335.22194999977,
      "d": 252.9410500000231,
      "v": 74
    },
    {
      "midi": 62,
      "hit": false,
      "t": 144338.1631249998,
      "d": 317.64690000002156,
      "v": 62
    },
    {
      "midi": 72,
      "hit": false,
      "t": 144696.9864749998,
      "d": 173.52932500001043,
      "v": 46
    },
    {
      "midi": 60,
      "hit": false,
      "t": 144708.7511749998,
      "d": 199.99990000002435,
      "v": 32
    },
    {
      "midi": 75,
      "hit": false,
      "t": 144938.16282499983,
      "d": 1061.7641749999893,
      "v": 53
    },
    {
      "midi": 63,
      "hit": false,
      "t": 144955.80987499983,
      "d": 1064.7053500000038,
      "v": 52
    },
    {
      "midi": 74,
      "hit": false,
      "t": 146123.45634999985,
      "d": 197.05872500000987,
      "v": 64
    },
    {
      "midi": 62,
      "hit": false,
      "t": 146135.22104999985,
      "d": 197.05872500000987,
      "v": 46
    },
    {
      "midi": 61,
      "hit": false,
      "t": 146361.69152499986,
      "d": 97.05877500001225,
      "v": 37
    },
    {
      "midi": 73,
      "hit": false,
      "t": 146373.45622499986,
      "d": 67.64702500001295,
      "v": 27
    },
    {
      "midi": 74,
      "hit": false,
      "t": 146473.45617499988,
      "d": 152.94109999999637,
      "v": 54
    },
    {
      "midi": 62,
      "hit": false,
      "t": 146485.22087499988,
      "d": 258.82339999999385,
      "v": 47
    },
    {
      "midi": 70,
      "hit": false,
      "t": 146811.6912999999,
      "d": 208.8234250000387,
      "v": 52
    },
    {
      "midi": 58,
      "hit": false,
      "t": 146826.3971749999,
      "d": 185.29402500001015,
      "v": 44
    },
    {
      "midi": 67,
      "hit": false,
      "t": 147070.51469999994,
      "d": 67.64702500001295,
      "v": 28
    },
    {
      "midi": 70,
      "hit": false,
      "t": 147179.33817499995,
      "d": 264.7057499999937,
      "v": 50
    },
    {
      "midi": 58,
      "hit": false,
      "t": 147191.10287499995,
      "d": 241.17634999999427,
      "v": 33
    },
    {
      "midi": 70,
      "hit": false,
      "t": 147538.16152499994,
      "d": 267.6469250000082,
      "v": 56
    },
    {
      "midi": 58,
      "hit": false,
      "t": 147561.69092499994,
      "d": 308.8233750000072,
      "v": 35
    },
    {
      "midi": 55,
      "hit": false,
      "t": 147888.16134999995,
      "d": 211.76460000002407,
      "v": 43
    },
    {
      "midi": 67,
      "hit": false,
      "t": 147908.74957499997,
      "d": 191.17637500001,
      "v": 36
    },
    {
      "midi": 67,
      "hit": false,
      "t": 148599.92569999996,
      "d": 170.58815000002505,
      "v": 80
    },
    {
      "midi": 55,
      "hit": false,
      "t": 148602.86687499998,
      "d": 135.2940499999968,
      "v": 50
    },
    {
      "midi": 66,
      "hit": false,
      "t": 148791.102075,
      "d": 132.3528750000405,
      "v": 43
    },
    {
      "midi": 54,
      "hit": false,
      "t": 148799.92560000002,
      "d": 120.58817500001169,
      "v": 37
    },
    {
      "midi": 67,
      "hit": false,
      "t": 148952.86670000004,
      "d": 117.64700000002631,
      "v": 38
    },
    {
      "midi": 55,
      "hit": false,
      "t": 148996.98432500006,
      "d": 91.17642500001239,
      "v": 20
    },
    {
      "midi": 68,
      "hit": false,
      "t": 149161.69012500008,
      "d": 58.8234999999986,
      "v": 38
    },
    {
      "midi": 70,
      "hit": false,
      "t": 149285.21947500008,
      "d": 270.5881000000227,
      "v": 64
    },
    {
      "midi": 58,
      "hit": false,
      "t": 149349.92532500008,
      "d": 191.17637500001,
      "v": 26
    },
    {
      "midi": 70,
      "hit": false,
      "t": 149626.3957750001,
      "d": 561.7644250000012,
      "v": 64
    },
    {
      "midi": 58,
      "hit": false,
      "t": 149629.3369500001,
      "d": 570.5879499999864,
      "v": 36
    },
    {
      "midi": 68,
      "hit": false,
      "t": 150211.6896000001,
      "d": 76.47054999999818,
      "v": 25
    },
    {
      "midi": 56,
      "hit": false,
      "t": 150229.3366500001,
      "d": 105.88229999999749,
      "v": 25
    },
    {
      "midi": 71,
      "hit": false,
      "t": 150349.9248250001,
      "d": 349.99982500006445,
      "v": 57
    },
    {
      "midi": 59,
      "hit": false,
      "t": 150376.39540000012,
      "d": 314.7057250000071,
      "v": 44
    },
    {
      "midi": 73,
      "hit": false,
      "t": 150694.04230000015,
      "d": 182.35285000002477,
      "v": 49
    },
    {
      "midi": 61,
      "hit": false,
      "t": 150696.98347500016,
      "d": 244.11752500000875,
      "v": 46
    },
    {
      "midi": 71,
      "hit": false,
      "t": 150935.21865000017,
      "d": 388.2351000000199,
      "v": 65
    },
    {
      "midi": 59,
      "hit": false,
      "t": 150949.92452500018,
      "d": 411.7645000000193,
      "v": 54
    },
    {
      "midi": 50,
      "hit": false,
      "t": 151785.2182250002,
      "d": 191.17637500003912,
      "v": 50
    },
    {
      "midi": 62,
      "hit": false,
      "t": 151794.0417500002,
      "d": 179.4116750000103,
      "v": 61
    },
    {
      "midi": 61,
      "hit": false,
      "t": 152008.74752500025,
      "d": 88.23525000002701,
      "v": 32
    },
    {
      "midi": 49,
      "hit": false,
      "t": 152046.98280000026,
      "d": 70.58820000002743,
      "v": 30
    },
    {
      "midi": 62,
      "hit": false,
      "t": 152149.9239250003,
      "d": 205.8822499999951,
      "v": 49
    },
    {
      "midi": 50,
      "hit": false,
      "t": 152149.9239250003,
      "d": 299.9998499999929,
      "v": 34
    },
    {
      "midi": 65,
      "hit": false,
      "t": 152494.0414000003,
      "d": 561.7644250000012,
      "v": 61
    },
    {
      "midi": 53,
      "hit": false,
      "t": 152517.5708000003,
      "d": 535.2938499999873,
      "v": 37
    },
    {
      "midi": 62,
      "hit": false,
      "t": 153070.51170000032,
      "d": 79.41172500001267,
      "v": 39
    },
    {
      "midi": 50,
      "hit": false,
      "t": 153085.21757500034,
      "d": 58.8234999999986,
      "v": 29
    },
    {
      "midi": 63,
      "hit": false,
      "t": 153217.57045000035,
      "d": 182.35285000002477,
      "v": 43
    },
    {
      "midi": 51,
      "hit": false,
      "t": 153238.15867500036,
      "d": 155.88227500001085,
      "v": 25
    },
    {
      "midi": 65,
      "hit": false,
      "t": 153417.57035000037,
      "d": 91.17642500001239,
      "v": 57
    },
    {
      "midi": 53,
      "hit": false,
      "t": 153426.3938750004,
      "d": 47.05879999999888,
      "v": 41
    },
    {
      "midi": 51,
      "hit": false,
      "t": 153555.80557500038,
      "d": 1044.1171250000189,
      "v": 49
    },
    {
      "midi": 63,
      "hit": false,
      "t": 153570.5114500004,
      "d": 994.1171500000055,
      "v": 27
    },
    {
      "midi": 62,
      "hit": false,
      "t": 154605.8050500004,
      "d": 144.11757500001113,
      "v": 51
    },
    {
      "midi": 50,
      "hit": false,
      "t": 154632.27562500042,
      "d": 185.29402500001015,
      "v": 24
    },
    {
      "midi": 63,
      "hit": false,
      "t": 154814.6284750004,
      "d": 70.58820000002743,
      "v": 49
    },
    {
      "midi": 51,
      "hit": false,
      "t": 154841.09905000043,
      "d": 97.05877500001225,
      "v": 42
    },
    {
      "midi": 65,
      "hit": false,
      "t": 154941.09900000045,
      "d": 135.2940499999968,
      "v": 55
    },
    {
      "midi": 53,
      "hit": false,
      "t": 154958.74605000045,
      "d": 147.0587499999965,
      "v": 29
    },
    {
      "midi": 49,
      "hit": false,
      "t": 155173.45182500046,
      "d": 88.23525000002701,
      "v": 42
    },
    {
      "midi": 61,
      "hit": false,
      "t": 155217.56945000048,
      "d": 44.117625000013504,
      "v": 40
    },
    {
      "midi": 62,
      "hit": false,
      "t": 155311.6870500005,
      "d": 541.1761999999871,
      "v": 60
    },
    {
      "midi": 50,
      "hit": false,
      "t": 155311.6870500005,
      "d": 552.9408999999869,
      "v": 53
    },
    {
      "midi": 50,
      "hit": false,
      "t": 156008.7455250005,
      "d": 182.35285000002477,
      "v": 37
    },
    {
      "midi": 62,
      "hit": false,
      "t": 156011.68670000051,
      "d": 182.35285000002477,
      "v": 59
    },
    {
      "midi": 49,
      "hit": false,
      "t": 156264.62775000054,
      "d": 114.70582500001183,
      "v": 23
    },
    {
      "midi": 62,
      "hit": false,
      "t": 156361.68652500055,
      "d": 276.47045000002254,
      "v": 45
    },
    {
      "midi": 50,
      "hit": false,
      "t": 156388.15710000056,
      "d": 123.52934999999707,
      "v": 28
    },
    {
      "midi": 63,
      "hit": false,
      "t": 156602.86287500057,
      "d": 264.7057499999937,
      "v": 56
    },
    {
      "midi": 51,
      "hit": false,
      "t": 156614.62757500057,
      "d": 217.64694999999483,
      "v": 47
    },
    {
      "midi": 72,
      "hit": false,
      "t": 157438.15657500055,
      "d": 623.5291000000143,
      "v": 79
    },
    {
      "midi": 60,
      "hit": false,
      "t": 157455.80362500055,
      "d": 602.9408750000002,
      "v": 48
    },
    {
      "midi": 75,
      "hit": false,
      "t": 158120.50917500057,
      "d": 229.41165000002366,
      "v": 74
    },
    {
      "midi": 63,
      "hit": false,
      "t": 158123.45035000058,
      "d": 179.4116750000103,
      "v": 60
    },
    {
      "midi": 72,
      "hit": false,
      "t": 158367.5678750006,
      "d": 85.29407500001253,
      "v": 29
    },
    {
      "midi": 60,
      "hit": false,
      "t": 158388.1561000006,
      "d": 58.8234999999986,
      "v": 31
    },
    {
      "midi": 73,
      "hit": false,
      "t": 158502.86192500062,
      "d": 217.64694999999483,
      "v": 32
    },
    {
      "midi": 61,
      "hit": false,
      "t": 158508.74427500062,
      "d": 199.99989999999525,
      "v": 31
    },
    {
      "midi": 74,
      "hit": false,
      "t": 158735.21475000062,
      "d": 99.99994999999763,
      "v": 62
    },
    {
      "midi": 62,
      "hit": false,
      "t": 158770.50885000062,
      "d": 73.5293750000128,
      "v": 32
    },
    {
      "midi": 74,
      "hit": false,
      "t": 160261.68457500063,
      "d": 258.82340000002296,
      "v": 95
    },
    {
      "midi": 62,
      "hit": false,
      "t": 160264.62575000065,
      "d": 255.88222500000848,
      "v": 75
    },
    {
      "midi": 75,
      "hit": false,
      "t": 160482.27270000064,
      "d": 105.88230000002659,
      "v": 40
    },
    {
      "midi": 63,
      "hit": false,
      "t": 160488.15505000064,
      "d": 70.58820000002743,
      "v": 50
    },
    {
      "midi": 76,
      "hit": false,
      "t": 160614.62557500068,
      "d": 188.23520000002463,
      "v": 46
    },
    {
      "midi": 64,
      "hit": false,
      "t": 160623.4491000007,
      "d": 220.5881250000093,
      "v": 50
    },
    {
      "midi": 77,
      "hit": false,
      "t": 160832.2725250007,
      "d": 388.2351000000199,
      "v": 78
    },
    {
      "midi": 65,
      "hit": false,
      "t": 160849.9195750007,
      "d": 361.76452500000596,
      "v": 77
    },
    {
      "midi": 65,
      "hit": false,
      "t": 161291.09582500072,
      "d": 164.7058000000252,
      "v": 37
    },
    {
      "midi": 77,
      "hit": false,
      "t": 161294.03700000074,
      "d": 155.88227500001085,
      "v": 60
    },
    {
      "midi": 77,
      "hit": false,
      "t": 161523.44865000076,
      "d": 255.88222500003758,
      "v": 57
    },
    {
      "midi": 65,
      "hit": false,
      "t": 161532.27217500078,
      "d": 73.5293750000128,
      "v": 44
    },
    {
      "midi": 65,
      "hit": false,
      "t": 161638.1544750008,
      "d": 155.88227500001085,
      "v": 24
    },
    {
      "midi": 77,
      "hit": false,
      "t": 161876.3896500008,
      "d": 226.47047500000917,
      "v": 55
    },
    {
      "midi": 65,
      "hit": false,
      "t": 161882.2720000008,
      "d": 311.7645500000217,
      "v": 31
    },
    {
      "midi": 80,
      "hit": false,
      "t": 162208.74242500085,
      "d": 841.1760500000091,
      "v": 69
    },
    {
      "midi": 68,
      "hit": false,
      "t": 162217.56595000086,
      "d": 835.2937000000093,
      "v": 56
    },
    {
      "midi": 77,
      "hit": false,
      "t": 163064.62435000087,
      "d": 691.1761249999981,
      "v": 56
    },
    {
      "midi": 65,
      "hit": false,
      "t": 163094.03610000087,
      "d": 682.3526000000129,
      "v": 38
    },
    {
      "midi": 84,
      "hit": false,
      "t": 163791.0945750009,
      "d": 488.2350499999884,
      "v": 84
    },
    {
      "midi": 72,
      "hit": false,
      "t": 163796.9769250009,
      "d": 576.4702999999863,
      "v": 60
    },
    {
      "midi": 82,
      "hit": false,
      "t": 164373.44722500088,
      "d": 97.05877500001225,
      "v": 35
    },
    {
      "midi": 70,
      "hit": false,
      "t": 164385.21192500088,
      "d": 102.94112500001211,
      "v": 35
    },
    {
      "midi": 83,
      "hit": false,
      "t": 164499.9177500009,
      "d": 205.8822499999951,
      "v": 57
    },
    {
      "midi": 71,
      "hit": false,
      "t": 164511.6824500009,
      "d": 241.17634999999427,
      "v": 49
    },
    {
      "midi": 65,
      "hit": false,
      "t": 165541.0937000009,
      "d": 594.117350000015,
      "v": 46
    },
    {
      "midi": 67,
      "hit": false,
      "t": 165549.9172250009,
      "d": 611.7644000000146,
      "v": 55
    },
    {
      "midi": 69,
      "hit": false,
      "t": 166108.7404750009,
      "d": 238.235175000038,
      "v": 57
    },
    {
      "midi": 63,
      "hit": false,
      "t": 166120.5051750009,
      "d": 247.05870000005234,
      "v": 31
    },
    {
      "midi": 61,
      "hit": false,
      "t": 166355.79917500095,
      "d": 270.5880999999936,
      "v": 44
    },
    {
      "midi": 71,
      "hit": false,
      "t": 166367.56387500095,
      "d": 152.94109999999637,
      "v": 58
    },
    {
      "midi": 74,
      "hit": false,
      "t": 166638.15197500095,
      "d": 223.5293000000238,
      "v": 69
    },
    {
      "midi": 60,
      "hit": false,
      "t": 166664.62255000096,
      "d": 170.58814999999595,
      "v": 44
    },
    {
      "midi": 72,
      "hit": false,
      "t": 167149.91642500096,
      "d": 79.41172500001267,
      "v": 49
    },
    {
      "midi": 75,
      "hit": false,
      "t": 167323.44575000097,
      "d": 582.3526499999862,
      "v": 56
    },
    {
      "midi": 54,
      "hit": false,
      "t": 167664.62205000097,
      "d": 147.0587499999965,
      "v": 34
    },
    {
      "midi": 63,
      "hit": false,
      "t": 168344.03347500096,
      "d": 170.58814999999595,
      "v": 18
    },
    {
      "midi": 74,
      "hit": false,
      "t": 168682.26860000097,
      "d": 170.58814999999595,
      "v": 74
    },
    {
      "midi": 53,
      "hit": false,
      "t": 169067.56252500098,
      "d": 126.47052500001155,
      "v": 32
    },
    {
      "midi": 70,
      "hit": false,
      "t": 169423.44470000098,
      "d": 182.35284999999567,
      "v": 62
    },
    {
      "midi": 67,
      "hit": false,
      "t": 169638.150475001,
      "d": 73.5293750000128,
      "v": 52
    },
    {
      "midi": 55,
      "hit": false,
      "t": 169720.50337500102,
      "d": 88.23525000002701,
      "v": 31
    },
    {
      "midi": 46,
      "hit": false,
      "t": 169723.44455000103,
      "d": 79.41172500001267,
      "v": 23
    },
    {
      "midi": 68,
      "hit": false,
      "t": 169779.32687500105,
      "d": 273.52927500000806,
      "v": 37
    },
    {
      "midi": 70,
      "hit": false,
      "t": 170123.44435000105,
      "d": 1041.1759500000626,
      "v": 44
    },
    {
      "midi": 54,
      "hit": false,
      "t": 170385.20892500106,
      "d": 97.05877500001225,
      "v": 40
    },
    {
      "midi": 44,
      "hit": false,
      "t": 170405.79715000108,
      "d": 85.29407500001253,
      "v": 46
    },
    {
      "midi": 53,
      "hit": false,
      "t": 171064.6203500011,
      "d": 32.352925000013784,
      "v": 57
    },
    {
      "midi": 43,
      "hit": false,
      "t": 171079.3262250011,
      "d": 35.29409999999916,
      "v": 41
    },
    {
      "midi": 67,
      "hit": false,
      "t": 171185.20852500113,
      "d": 161.7646250000107,
      "v": 51
    },
    {
      "midi": 68,
      "hit": false,
      "t": 171399.91430000114,
      "d": 91.17642500001239,
      "v": 55
    },
    {
      "midi": 70,
      "hit": false,
      "t": 171538.14952500115,
      "d": 149.999925000011,
      "v": 83
    },
    {
      "midi": 72,
      "hit": false,
      "t": 171729.32590000116,
      "d": 105.8823000000557,
      "v": 67
    },
    {
      "midi": 58,
      "hit": false,
      "t": 171744.03177500117,
      "d": 70.58820000002743,
      "v": 60
    },
    {
      "midi": 48,
      "hit": false,
      "t": 171752.8553000012,
      "d": 29.4117499999993,
      "v": 57
    },
    {
      "midi": 70,
      "hit": false,
      "t": 171879.32582500123,
      "d": 217.64694999999483,
      "v": 49
    },
    {
      "midi": 70,
      "hit": false,
      "t": 172235.20800000124,
      "d": 185.29402500001015,
      "v": 53
    },
    {
      "midi": 53,
      "hit": false,
      "t": 172573.44312500124,
      "d": 94.11760000002687,
      "v": 24
    },
    {
      "midi": 68,
      "hit": false,
      "t": 172573.44312500124,
      "d": 152.94110000005458,
      "v": 44
    },
    {
      "midi": 56,
      "hit": false,
      "t": 172579.32547500124,
      "d": 132.3528750000405,
      "v": 31
    },
    {
      "midi": 60,
      "hit": false,
      "t": 172594.03135000126,
      "d": 55.882325000013225,
      "v": 33
    },
    {
      "midi": 70,
      "hit": false,
      "t": 172946.9723500013,
      "d": 191.17637500001,
      "v": 73
    },
    {
      "midi": 71,
      "hit": false,
      "t": 173144.03107500132,
      "d": 117.64700000005541,
      "v": 62
    },
    {
      "midi": 63,
      "hit": false,
      "t": 173223.44280000133,
      "d": 267.6469250000664,
      "v": 25
    },
    {
      "midi": 54,
      "hit": false,
      "t": 173235.20750000133,
      "d": 258.82340000008116,
      "v": 28
    },
    {
      "midi": 58,
      "hit": false,
      "t": 173238.14867500134,
      "d": 244.11752500003786,
      "v": 42
    },
    {
      "midi": 59,
      "hit": false,
      "t": 173241.08985000136,
      "d": 194.1175500000245,
      "v": 42
    },
    {
      "midi": 66,
      "hit": false,
      "t": 173855.79542500142,
      "d": 91.17642500001239,
      "v": 46
    },
    {
      "midi": 62,
      "hit": false,
      "t": 173867.56012500142,
      "d": 105.88230000002659,
      "v": 48
    },
    {
      "midi": 61,
      "hit": false,
      "t": 173873.44247500142,
      "d": 111.76465000002645,
      "v": 34
    },
    {
      "midi": 57,
      "hit": false,
      "t": 173882.26600000143,
      "d": 79.41172500001267,
      "v": 32
    },
    {
      "midi": 74,
      "hit": false,
      "t": 174199.91290000145,
      "d": 126.47052500001155,
      "v": 87
    },
    {
      "midi": 73,
      "hit": false,
      "t": 174370.50105000148,
      "d": 155.88227500001085,
      "v": 32
    },
    {
      "midi": 74,
      "hit": false,
      "t": 174558.7362500015,
      "d": 44.117625000013504,
      "v": 57
    },
    {
      "midi": 66,
      "hit": false,
      "t": 174652.85385000153,
      "d": 291.17632500003674,
      "v": 33
    },
    {
      "midi": 61,
      "hit": false,
      "t": 174691.08912500154,
      "d": 208.8234250000096,
      "v": 19
    },
    {
      "midi": 62,
      "hit": false,
      "t": 174691.08912500154,
      "d": 279.411625000037,
      "v": 29
    },
    {
      "midi": 56,
      "hit": false,
      "t": 174694.03030000156,
      "d": 244.11752500000875,
      "v": 23
    },
    {
      "midi": 62,
      "hit": false,
      "t": 175029.32425000158,
      "d": 314.7057250000362,
      "v": 11
    },
    {
      "midi": 60,
      "hit": false,
      "t": 175049.9124750016,
      "d": 308.8233750000363,
      "v": 37
    },
    {
      "midi": 65,
      "hit": false,
      "t": 175052.8536500016,
      "d": 311.7645500000217,
      "v": 24
    },
    {
      "midi": 55,
      "hit": false,
      "t": 175070.5007000016,
      "d": 273.52927500000806,
      "v": 52
    },
    {
      "midi": 77,
      "hit": false,
      "t": 175641.08865000162,
      "d": 123.52934999999707,
      "v": 82
    },
    {
      "midi": 75,
      "hit": false,
      "t": 175799.91210000162,
      "d": 211.76459999999497,
      "v": 54
    },
    {
      "midi": 77,
      "hit": false,
      "t": 176005.7943500016,
      "d": 73.5293750000128,
      "v": 67
    },
    {
      "midi": 66,
      "hit": false,
      "t": 176032.26492500163,
      "d": 373.5292250000057,
      "v": 45
    },
    {
      "midi": 61,
      "hit": false,
      "t": 176044.02962500163,
      "d": 382.35275000002,
      "v": 46
    },
    {
      "midi": 55,
      "hit": false,
      "t": 176055.79432500163,
      "d": 261.76457500000834,
      "v": 39
    },
    {
      "midi": 65,
      "hit": false,
      "t": 176467.55882500164,
      "d": 385.2939250000054,
      "v": 44
    },
    {
      "midi": 54,
      "hit": false,
      "t": 176467.55882500164,
      "d": 514.7056250000314,
      "v": 39
    },
    {
      "midi": 60,
      "hit": false,
      "t": 176476.38235000166,
      "d": 391.17627500000526,
      "v": 53
    },
    {
      "midi": 53,
      "hit": false,
      "t": 177017.55855000168,
      "d": 502.9409250000317,
      "v": 39
    },
    {
      "midi": 64,
      "hit": false,
      "t": 177026.3820750017,
      "d": 529.4115000000456,
      "v": 31
    },
    {
      "midi": 59,
      "hit": false,
      "t": 177046.9703000017,
      "d": 476.4703500000178,
      "v": 45
    },
    {
      "midi": 74,
      "hit": false,
      "t": 177846.96990000174,
      "d": 161.7646250000107,
      "v": 101
    },
    {
      "midi": 72,
      "hit": false,
      "t": 178085.20507500175,
      "d": 73.5293750000128,
      "v": 27
    },
    {
      "midi": 74,
      "hit": false,
      "t": 178205.79325000176,
      "d": 258.82340000002296,
      "v": 68
    },
    {
      "midi": 72,
      "hit": false,
      "t": 178426.38137500177,
      "d": 111.76465000002645,
      "v": 49
    },
    {
      "midi": 70,
      "hit": false,
      "t": 178602.8518750018,
      "d": 647.0585000000137,
      "v": 27
    },
    {
      "midi": 63,
      "hit": false,
      "t": 179264.61625000183,
      "d": 47.058800000027986,
      "v": 39
    },
    {
      "midi": 68,
      "hit": false,
      "t": 179270.49860000183,
      "d": 214.70577500003856,
      "v": 59
    },
    {
      "midi": 60,
      "hit": false,
      "t": 179273.43977500184,
      "d": 32.352925000013784,
      "v": 45
    },
    {
      "midi": 56,
      "hit": false,
      "t": 179282.26330000185,
      "d": 70.58819999999832,
      "v": 36
    },
    {
      "midi": 65,
      "hit": false,
      "t": 179517.55730000188,
      "d": 67.64702500001295,
      "v": 24
    },
    {
      "midi": 67,
      "hit": false,
      "t": 179646.9690000019,
      "d": 182.35284999999567,
      "v": 44
    },
    {
      "midi": 68,
      "hit": false,
      "t": 179870.4983000019,
      "d": 126.47052500004065,
      "v": 72
    },
    {
      "midi": 56,
      "hit": false,
      "t": 179885.2041750019,
      "d": 49.999975000013364,
      "v": 62
    },
    {
      "midi": 46,
      "hit": false,
      "t": 179885.2041750019,
      "d": 70.58820000002743,
      "v": 56
    },
    {
      "midi": 67,
      "hit": false,
      "t": 180046.96880000195,
      "d": 164.7057999999961,
      "v": 50
    },
    {
      "midi": 65,
      "hit": false,
      "t": 180226.38047500196,
      "d": 94.11759999999776,
      "v": 63
    },
    {
      "midi": 63,
      "hit": false,
      "t": 180385.20392500196,
      "d": 179.4116750000103,
      "v": 26
    },
    {
      "midi": 62,
      "hit": false,
      "t": 180602.85087500198,
      "d": 82.35290000002715,
      "v": 49
    },
    {
      "midi": 58,
      "hit": false,
      "t": 180664.615550002,
      "d": 29.411750000028405,
      "v": 18
    },
    {
      "midi": 65,
      "hit": false,
      "t": 180720.49787500204,
      "d": 197.05872500000987,
      "v": 80
    },
    {
      "midi": 63,
      "hit": false,
      "t": 181102.85062500206,
      "d": 147.0587499999965,
      "v": 39
    },
    {
      "midi": 65,
      "hit": false,
      "t": 181302.85052500205,
      "d": 132.3528750000114,
      "v": 68
    },
    {
      "midi": 60,
      "hit": false,
      "t": 181320.49757500205,
      "d": 38.235275000013644,
      "v": 48
    },
    {
      "midi": 54,
      "hit": false,
      "t": 181323.43875000207,
      "d": 82.35289999999804,
      "v": 34
    },
    {
      "midi": 70,
      "hit": false,
      "t": 181476.37985000206,
      "d": 108.82347500001197,
      "v": 37
    },
    {
      "midi": 72,
      "hit": false,
      "t": 181646.9680000021,
      "d": 117.64700000005541,
      "v": 58
    },
    {
      "midi": 60,
      "hit": false,
      "t": 181673.4385750021,
      "d": 41.176450000028126,
      "v": 48
    },
    {
      "midi": 54,
      "hit": false,
      "t": 181676.37975000212,
      "d": 85.29407500001253,
      "v": 30
    },
    {
      "midi": 77,
      "hit": false,
      "t": 181796.96792500216,
      "d": 155.88227500001085,
      "v": 70
    },
    {
      "midi": 82,
      "hit": false,
      "t": 181985.20312500218,
      "d": 147.05875000008382,
      "v": 83
    },
    {
      "midi": 53,
      "hit": false,
      "t": 181988.1443000022,
      "d": 58.82350000005681,
      "v": 72
    },
    {
      "midi": 61,
      "hit": false,
      "t": 181991.0854750022,
      "d": 47.058800000027986,
      "v": 77
    },
    {
      "midi": 78,
      "hit": false,
      "t": 181994.02665000223,
      "d": 35.29409999999916,
      "v": 51
    },
    {
      "midi": 58,
      "hit": false,
      "t": 181994.02665000223,
      "d": 88.23525000002701,
      "v": 69
    },
    {
      "midi": 84,
      "hit": false,
      "t": 182173.43832500227,
      "d": 94.11760000002687,
      "v": 74
    },
    {
      "midi": 72,
      "hit": false,
      "t": 182176.37950000228,
      "d": 114.70582500001183,
      "v": 62
    },
    {
      "midi": 85,
      "hit": false,
      "t": 182370.4970500023,
      "d": 70.58820000002743,
      "v": 83
    },
    {
      "midi": 73,
      "hit": false,
      "t": 182376.3794000023,
      "d": 55.882325000013225,
      "v": 35
    },
    {
      "midi": 58,
      "hit": false,
      "t": 182388.1441000023,
      "d": 35.29409999999916,
      "v": 47
    },
    {
      "midi": 75,
      "hit": false,
      "t": 182388.1441000023,
      "d": 58.82350000002771,
      "v": 40
    },
    {
      "midi": 75,
      "hit": false,
      "t": 182529.32050000233,
      "d": 111.76464999999735,
      "v": 60
    },
    {
      "midi": 87,
      "hit": false,
      "t": 182529.32050000233,
      "d": 111.76464999999735,
      "v": 78
    },
    {
      "midi": 73,
      "hit": false,
      "t": 182705.79100000233,
      "d": 141.17640000005485,
      "v": 40
    },
    {
      "midi": 85,
      "hit": false,
      "t": 182708.73217500234,
      "d": 114.70582500004093,
      "v": 47
    },
    {
      "midi": 63,
      "hit": false,
      "t": 182717.55570000235,
      "d": 32.352925000013784,
      "v": 39
    },
    {
      "midi": 58,
      "hit": false,
      "t": 182717.55570000235,
      "d": 123.52935000002617,
      "v": 46
    },
    {
      "midi": 52,
      "hit": false,
      "t": 182729.32040000235,
      "d": 55.882325000013225,
      "v": 34
    },
    {
      "midi": 72,
      "hit": false,
      "t": 182888.14385000238,
      "d": 264.7057500000228,
      "v": 27
    },
    {
      "midi": 84,
      "hit": false,
      "t": 182896.9673750024,
      "d": 202.94107500000973,
      "v": 29
    },
    {
      "midi": 82,
      "hit": false,
      "t": 183179.32017500242,
      "d": 255.88222500000848,
      "v": 60
    },
    {
      "midi": 63,
      "hit": false,
      "t": 183555.79057500244,
      "d": 82.35290000002715,
      "v": 33
    },
    {
      "midi": 67,
      "hit": false,
      "t": 183561.67292500244,
      "d": 38.235275000013644,
      "v": 38
    },
    {
      "midi": 80,
      "hit": false,
      "t": 183561.67292500244,
      "d": 147.0587500000256,
      "v": 71
    },
    {
      "midi": 60,
      "hit": false,
      "t": 183582.26115000245,
      "d": 38.235275000013644,
      "v": 36
    },
    {
      "midi": 82,
      "hit": false,
      "t": 183761.67282500246,
      "d": 108.82347500001197,
      "v": 45
    },
    {
      "midi": 80,
      "hit": false,
      "t": 183817.55515000247,
      "d": 91.17642500001239,
      "v": 34
    },
    {
      "midi": 79,
      "hit": false,
      "t": 183917.5551000025,
      "d": 158.82344999999623,
      "v": 34
    },
    {
      "midi": 78,
      "hit": false,
      "t": 184123.4373500025,
      "d": 191.17637500003912,
      "v": 44
    },
    {
      "midi": 63,
      "hit": false,
      "t": 184158.7314500025,
      "d": 35.294100000028266,
      "v": 29
    },
    {
      "midi": 58,
      "hit": false,
      "t": 184179.3196750025,
      "d": 55.882325000013225,
      "v": 25
    },
    {
      "midi": 77,
      "hit": false,
      "t": 184311.67255000252,
      "d": 144.11757500001113,
      "v": 47
    },
    {
      "midi": 83,
      "hit": false,
      "t": 184488.14305000255,
      "d": 114.70582500001183,
      "v": 75
    },
    {
      "midi": 82,
      "hit": false,
      "t": 184658.73120000257,
      "d": 299.9998499999929,
      "v": 53
    },
    {
      "midi": 80,
      "hit": false,
      "t": 184835.20170000257,
      "d": 111.76464999999735,
      "v": 51
    },
    {
      "midi": 75,
      "hit": false,
      "t": 184979.31927500258,
      "d": 258.82339999999385,
      "v": 38
    },
    {
      "midi": 71,
      "hit": false,
      "t": 185179.31917500257,
      "d": 91.17642500001239,
      "v": 46
    },
    {
      "midi": 78,
      "hit": false,
      "t": 185320.4955750026,
      "d": 347.05864999999176,
      "v": 80
    },
    {
      "midi": 74,
      "hit": false,
      "t": 185532.2601750026,
      "d": 123.52934999999707,
      "v": 60
    },
    {
      "midi": 69,
      "hit": false,
      "t": 185723.4365500026,
      "d": 85.29407500001253,
      "v": 32
    },
    {
      "midi": 62,
      "hit": false,
      "t": 185879.3188250026,
      "d": 120.58817500001169,
      "v": 42
    },
    {
      "midi": 56,
      "hit": false,
      "t": 185920.4952750026,
      "d": 99.99995000002673,
      "v": 21
    },
    {
      "midi": 62,
      "hit": false,
      "t": 186335.20095000265,
      "d": 82.35290000005625,
      "v": 53
    },
    {
      "midi": 65,
      "hit": false,
      "t": 186338.14212500266,
      "d": 52.94115000002785,
      "v": 47
    },
    {
      "midi": 60,
      "hit": false,
      "t": 186341.08330000268,
      "d": 67.64702500001295,
      "v": 52
    },
    {
      "midi": 55,
      "hit": false,
      "t": 186346.96565000268,
      "d": 49.999975000013364,
      "v": 48
    },
    {
      "midi": 77,
      "hit": false,
      "t": 186349.9068250027,
      "d": 205.88225000002421,
      "v": 94
    },
    {
      "midi": 74,
      "hit": false,
      "t": 186570.49495000273,
      "d": 141.17639999999665,
      "v": 50
    },
    {
      "midi": 70,
      "hit": false,
      "t": 186755.78897500274,
      "d": 244.11752500000875,
      "v": 18
    },
    {
      "midi": 67,
      "hit": false,
      "t": 186958.73005000275,
      "d": 135.2940499999968,
      "v": 45
    },
    {
      "midi": 75,
      "hit": false,
      "t": 187302.84752500275,
      "d": 388.235100000049,
      "v": 83
    },
    {
      "midi": 55,
      "hit": false,
      "t": 187305.78870000277,
      "d": 170.58815000002505,
      "v": 80
    },
    {
      "midi": 61,
      "hit": false,
      "t": 187305.78870000277,
      "d": 182.35285000002477,
      "v": 64
    },
    {
      "midi": 66,
      "hit": false,
      "t": 187308.72987500278,
      "d": 114.70582500001183,
      "v": 72
    },
    {
      "midi": 71,
      "hit": false,
      "t": 187673.4355750028,
      "d": 67.64702500001295,
      "v": 38
    },
    {
      "midi": 74,
      "hit": false,
      "t": 187808.72962500283,
      "d": 294.1175000000221,
      "v": 82
    },
    {
      "midi": 65,
      "hit": false,
      "t": 187811.67080000284,
      "d": 335.29395000002114,
      "v": 71
    },
    {
      "midi": 54,
      "hit": false,
      "t": 187811.67080000284,
      "d": 461.7644750000327,
      "v": 62
    },
    {
      "midi": 60,
      "hit": false,
      "t": 187814.61197500286,
      "d": 326.4704250000068,
      "v": 66
    },
    {
      "midi": 68,
      "hit": false,
      "t": 188241.08235000286,
      "d": 76.47055000002729,
      "v": 9
    },
    {
      "midi": 71,
      "hit": false,
      "t": 188364.6117000029,
      "d": 344.1174750000646,
      "v": 85
    },
    {
      "midi": 64,
      "hit": false,
      "t": 188373.4352250029,
      "d": 79.41172500001267,
      "v": 78
    },
    {
      "midi": 59,
      "hit": false,
      "t": 188379.3175750029,
      "d": 111.76465000002645,
      "v": 73
    },
    {
      "midi": 53,
      "hit": false,
      "t": 188382.25875000292,
      "d": 129.41170000002603,
      "v": 66
    },
    {
      "midi": 68,
      "hit": false,
      "t": 188708.72917500295,
      "d": 132.3528750000114,
      "v": 77
    },
    {
      "midi": 67,
      "hit": false,
      "t": 188849.90557500298,
      "d": 173.52932500003953,
      "v": 48
    },
    {
      "midi": 55,
      "hit": false,
      "t": 188864.611450003,
      "d": 55.882325000013225,
      "v": 35
    },
    {
      "midi": 58,
      "hit": false,
      "t": 188873.434975003,
      "d": 35.29409999999916,
      "v": 48
    },
    {
      "midi": 65,
      "hit": false,
      "t": 189061.67017500303,
      "d": 105.88229999999749,
      "v": 65
    },
    {
      "midi": 63,
      "hit": false,
      "t": 189252.84655000304,
      "d": 220.5881250000093,
      "v": 23
    },
    {
      "midi": 62,
      "hit": false,
      "t": 189420.49352500305,
      "d": 67.64702500001295,
      "v": 39
    },
    {
      "midi": 65,
      "hit": false,
      "t": 189544.02287500308,
      "d": 179.4116750000103,
      "v": 64
    },
    {
      "midi": 62,
      "hit": false,
      "t": 189779.3168750031,
      "d": 79.41172500001267,
      "v": 33
    },
    {
      "midi": 63,
      "hit": false,
      "t": 189896.96387500313,
      "d": 314.7057250000071,
      "v": 47
    },
    {
      "midi": 63,
      "hit": false,
      "t": 190935.19865000315,
      "d": 99.99995000005583,
      "v": 38
    },
    {
      "midi": 67,
      "hit": false,
      "t": 190941.08100000315,
      "d": 73.52937500004191,
      "v": 39
    },
    {
      "midi": 60,
      "hit": false,
      "t": 190955.78687500316,
      "d": 49.999975000013364,
      "v": 40
    },
    {
      "midi": 66,
      "hit": false,
      "t": 191302.8455250032,
      "d": 476.4703500000469,
      "v": 40
    },
    {
      "midi": 62,
      "hit": false,
      "t": 191317.55140000323,
      "d": 482.35270000004675,
      "v": 41
    },
    {
      "midi": 60,
      "hit": false,
      "t": 191326.37492500324,
      "d": 397.0586250000051,
      "v": 38
    },
    {
      "midi": 56,
      "hit": false,
      "t": 191332.25727500324,
      "d": 491.176225000032,
      "v": 31
    },
    {
      "midi": 65,
      "hit": false,
      "t": 191870.49230000327,
      "d": 41.176450000028126,
      "v": 57
    },
    {
      "midi": 79,
      "hit": false,
      "t": 191876.37465000327,
      "d": 91.17642500004149,
      "v": 80
    },
    {
      "midi": 62,
      "hit": false,
      "t": 191876.37465000327,
      "d": 114.70582500004093,
      "v": 51
    },
    {
      "midi": 60,
      "hit": false,
      "t": 191896.9628750033,
      "d": 99.99995000002673,
      "v": 48
    },
    {
      "midi": 86,
      "hit": false,
      "t": 192049.9039750033,
      "d": 67.64702500001295,
      "v": 90
    },
    {
      "midi": 86,
      "hit": false,
      "t": 192226.37447500334,
      "d": 88.2352499999979,
      "v": 96
    },
    {
      "midi": 79,
      "hit": false,
      "t": 192364.60970000335,
      "d": 76.47054999999818,
      "v": 56
    },
    {
      "midi": 79,
      "hit": false,
      "t": 192564.60960000334,
      "d": 64.70584999999846,
      "v": 66
    },
    {
      "midi": 82,
      "hit": false,
      "t": 192714.60952500335,
      "d": 47.05879999999888,
      "v": 55
    },
    {
      "midi": 82,
      "hit": false,
      "t": 192914.60942500335,
      "d": 85.29407500007073,
      "v": 64
    },
    {
      "midi": 65,
      "hit": false,
      "t": 192935.19765000336,
      "d": 35.294100000028266,
      "v": 48
    },
    {
      "midi": 54,
      "hit": false,
      "t": 192955.78587500338,
      "d": 55.88232500004233,
      "v": 23
    },
    {
      "midi": 60,
      "hit": false,
      "t": 192973.4329250034,
      "d": 41.176450000028126,
      "v": 24
    },
    {
      "midi": 77,
      "hit": false,
      "t": 193052.84465000345,
      "d": 188.23519999999553,
      "v": 48
    },
    {
      "midi": 62,
      "hit": false,
      "t": 193399.90330000344,
      "d": 105.8823000000557,
      "v": 39
    },
    {
      "midi": 58,
      "hit": false,
      "t": 193408.72682500345,
      "d": 114.70582500007004,
      "v": 42
    },
    {
      "midi": 53,
      "hit": false,
      "t": 193423.43270000347,
      "d": 85.29407500004163,
      "v": 33
    },
    {
      "midi": 55,
      "hit": false,
      "t": 193438.13857500348,
      "d": 88.23525000005611,
      "v": 26
    },
    {
      "midi": 84,
      "hit": false,
      "t": 193799.90310000355,
      "d": 55.882325000013225,
      "v": 80
    },
    {
      "midi": 85,
      "hit": false,
      "t": 193870.49130000357,
      "d": 82.35289999999804,
      "v": 49
    },
    {
      "midi": 84,
      "hit": false,
      "t": 193941.07950000357,
      "d": 102.94112500001211,
      "v": 42
    },
    {
      "midi": 82,
      "hit": false,
      "t": 194046.9618000036,
      "d": 82.35290000002715,
      "v": 50
    },
    {
      "midi": 61,
      "hit": false,
      "t": 194070.4912000036,
      "d": 32.352925000013784,
      "v": 33
    },
    {
      "midi": 58,
      "hit": false,
      "t": 194108.7264750036,
      "d": 52.94115000002785,
      "v": 20
    },
    {
      "midi": 81,
      "hit": false,
      "t": 194188.13820000365,
      "d": 149.999925000011,
      "v": 47
    },
    {
      "midi": 80,
      "hit": false,
      "t": 194379.31457500366,
      "d": 132.3528750000114,
      "v": 62
    },
    {
      "midi": 79,
      "hit": false,
      "t": 194546.96155000367,
      "d": 161.7646250000107,
      "v": 48
    },
    {
      "midi": 77,
      "hit": false,
      "t": 194723.4320500037,
      "d": 123.52935000005527,
      "v": 62
    },
    {
      "midi": 60,
      "hit": false,
      "t": 194729.3144000037,
      "d": 32.35292500004289,
      "v": 53
    },
    {
      "midi": 63,
      "hit": false,
      "t": 194732.2555750037,
      "d": 26.470575000013923,
      "v": 42
    },
    {
      "midi": 56,
      "hit": false,
      "t": 194746.96145000373,
      "d": 97.05877500001225,
      "v": 32
    },
    {
      "midi": 76,
      "hit": false,
      "t": 194896.96137500377,
      "d": 144.11757500001113,
      "v": 43
    },
    {
      "midi": 79,
      "hit": false,
      "t": 195061.6671750038,
      "d": 123.52934999999707,
      "v": 73
    },
    {
      "midi": 77,
      "hit": false,
      "t": 195235.1965000038,
      "d": 152.94109999999637,
      "v": 20
    },
    {
      "midi": 63,
      "hit": false,
      "t": 195420.4905250038,
      "d": 88.23525000005611,
      "v": 48
    },
    {
      "midi": 67,
      "hit": false,
      "t": 195423.43170000383,
      "d": 26.470575000013923,
      "v": 58
    },
    {
      "midi": 72,
      "hit": false,
      "t": 195423.43170000383,
      "d": 105.8823000000557,
      "v": 39
    },
    {
      "midi": 60,
      "hit": false,
      "t": 195458.72580000386,
      "d": 41.17644999999902,
      "v": 30
    },
    {
      "midi": 67,
      "hit": false,
      "t": 195776.37270000388,
      "d": 73.5293750000128,
      "v": 50
    },
    {
      "midi": 59,
      "hit": false,
      "t": 195817.54915000388,
      "d": 38.235275000013644,
      "v": 28
    },
    {
      "midi": 63,
      "hit": false,
      "t": 196132.25487500388,
      "d": 38.23527500007185,
      "v": 53
    },
    {
      "midi": 59,
      "hit": false,
      "t": 196135.1960500039,
      "d": 32.35292500004289,
      "v": 54
    },
    {
      "midi": 58,
      "hit": false,
      "t": 196144.0195750039,
      "d": 38.23527500007185,
      "v": 33
    },
    {
      "midi": 54,
      "hit": false,
      "t": 196152.84310000393,
      "d": 26.470575000043027,
      "v": 23
    },
    {
      "midi": 66,
      "hit": false,
      "t": 196476.37235000398,
      "d": 26.470575000013923,
      "v": 56
    },
    {
      "midi": 62,
      "hit": false,
      "t": 196505.784100004,
      "d": 38.235275000013644,
      "v": 32
    },
    {
      "midi": 71,
      "hit": false,
      "t": 196608.72522500402,
      "d": 147.0587499999965,
      "v": 54
    },
    {
      "midi": 74,
      "hit": false,
      "t": 196805.78395000403,
      "d": 85.29407500001253,
      "v": 80
    },
    {
      "midi": 66,
      "hit": false,
      "t": 196835.19570000403,
      "d": 29.4117499999993,
      "v": 51
    },
    {
      "midi": 78,
      "hit": false,
      "t": 196949.90152500404,
      "d": 147.0587499999965,
      "v": 74
    },
    {
      "midi": 66,
      "hit": false,
      "t": 197138.13672500403,
      "d": 70.58820000002743,
      "v": 69
    },
    {
      "midi": 81,
      "hit": false,
      "t": 197149.90142500403,
      "d": 94.11760000002687,
      "v": 70
    },
    {
      "midi": 56,
      "hit": false,
      "t": 197155.78377500403,
      "d": 44.117625000013504,
      "v": 42
    },
    {
      "midi": 62,
      "hit": false,
      "t": 197158.72495000405,
      "d": 44.117625000013504,
      "v": 47
    },
    {
      "midi": 79,
      "hit": false,
      "t": 197308.72487500406,
      "d": 214.70577500000945,
      "v": 73
    },
    {
      "midi": 65,
      "hit": false,
      "t": 197626.37177500408,
      "d": 297.0586750000075,
      "v": 37
    },
    {
      "midi": 60,
      "hit": false,
      "t": 197632.25412500408,
      "d": 347.05865000002086,
      "v": 62
    },
    {
      "midi": 62,
      "hit": false,
      "t": 197635.1953000041,
      "d": 349.99982500000624,
      "v": 37
    },
    {
      "midi": 55,
      "hit": false,
      "t": 197646.9600000041,
      "d": 311.7645499999926,
      "v": 30
    },
    {
      "midi": 74,
      "hit": false,
      "t": 197996.9598250041,
      "d": 147.0587499999965,
      "v": 118
    },
    {
      "midi": 75,
      "hit": false,
      "t": 198196.9597250041,
      "d": 99.99995000005583,
      "v": 68
    },
    {
      "midi": 62,
      "hit": false,
      "t": 198223.4303000041,
      "d": 58.82350000002771,
      "v": 38
    },
    {
      "midi": 60,
      "hit": false,
      "t": 198255.78322500412,
      "d": 41.176450000028126,
      "v": 22
    },
    {
      "midi": 77,
      "hit": false,
      "t": 198346.95965000417,
      "d": 164.7057999999961,
      "v": 64
    },
    {
      "midi": 79,
      "hit": false,
      "t": 198555.78307500418,
      "d": 91.17642500001239,
      "v": 67
    },
    {
      "midi": 77,
      "hit": false,
      "t": 198708.7241750042,
      "d": 276.47044999999343,
      "v": 55
    },
    {
      "midi": 63,
      "hit": false,
      "t": 199055.7828250042,
      "d": 58.82350000005681,
      "v": 55
    },
    {
      "midi": 75,
      "hit": false,
      "t": 199067.5475250042,
      "d": 161.76462500006892,
      "v": 73
    },
    {
      "midi": 60,
      "hit": false,
      "t": 199070.4887000042,
      "d": 35.294100000028266,
      "v": 51
    },
    {
      "midi": 57,
      "hit": false,
      "t": 199085.19457500422,
      "d": 38.23527500004275,
      "v": 38
    },
    {
      "midi": 77,
      "hit": false,
      "t": 199276.37095000426,
      "d": 108.82347500001197,
      "v": 58
    },
    {
      "midi": 75,
      "hit": false,
      "t": 199414.60617500427,
      "d": 167.64697500001057,
      "v": 51
    },
    {
      "midi": 74,
      "hit": false,
      "t": 199644.0178250043,
      "d": 55.88232500004233,
      "v": 40
    },
    {
      "midi": 72,
      "hit": false,
      "t": 199649.9001750043,
      "d": 73.52937500004191,
      "v": 35
    },
    {
      "midi": 65,
      "hit": false,
      "t": 199652.8413500043,
      "d": 29.411750000028405,
      "v": 46
    },
    {
      "midi": 60,
      "hit": false,
      "t": 199655.78252500432,
      "d": 44.117625000013504,
      "v": 58
    },
    {
      "midi": 54,
      "hit": false,
      "t": 199673.42957500432,
      "d": 38.235275000013644,
      "v": 21
    },
    {
      "midi": 71,
      "hit": false,
      "t": 199808.72362500435,
      "d": 276.47044999999343,
      "v": 44
    },
    {
      "midi": 69,
      "hit": false,
      "t": 200111.66465000436,
      "d": 199.99989999999525,
      "v": 59
    },
    {
      "midi": 72,
      "hit": false,
      "t": 200338.13512500437,
      "d": 117.6469999999972,
      "v": 62
    },
    {
      "midi": 62,
      "hit": false,
      "t": 200373.42922500437,
      "d": 29.4117499999993,
      "v": 45
    },
    {
      "midi": 58,
      "hit": false,
      "t": 200385.19392500437,
      "d": 29.4117499999993,
      "v": 31
    },
    {
      "midi": 57,
      "hit": false,
      "t": 200396.95862500436,
      "d": 29.4117499999993,
      "v": 24
    },
    {
      "midi": 70,
      "hit": false,
      "t": 200505.78210000438,
      "d": 276.47044999999343,
      "v": 56
    },
    {
      "midi": 66,
      "hit": false,
      "t": 200817.54665000437,
      "d": 270.5880999999936,
      "v": 44
    },
    {
      "midi": 62,
      "hit": false,
      "t": 201173.42882500438,
      "d": 199.99989999999525,
      "v": 38
    },
    {
      "midi": 57,
      "hit": false,
      "t": 201191.07587500438,
      "d": 176.4704999999958,
      "v": 31
    },
    {
      "midi": 58,
      "hit": false,
      "t": 201196.95822500437,
      "d": 194.1175499999954,
      "v": 26
    },
    {
      "midi": 55,
      "hit": false,
      "t": 201220.48762500437,
      "d": 158.82344999999623,
      "v": 25
    },
    {
      "midi": 63,
      "hit": false,
      "t": 202264.60475000436,
      "d": 114.70582500001183,
      "v": 38
    },
    {
      "midi": 55,
      "hit": false,
      "t": 202288.13415000436,
      "d": 94.11760000002687,
      "v": 47
    },
    {
      "midi": 60,
      "hit": false,
      "t": 202294.01650000436,
      "d": 55.882325000013225,
      "v": 30
    },
    {
      "midi": 57,
      "hit": false,
      "t": 202294.01650000436,
      "d": 114.70582500004093,
      "v": 41
    },
    {
      "midi": 67,
      "hit": false,
      "t": 202508.7222750044,
      "d": 41.17644999999902,
      "v": 58
    },
    {
      "midi": 72,
      "hit": false,
      "t": 202644.0163250044,
      "d": 129.41169999999693,
      "v": 81
    },
    {
      "midi": 75,
      "hit": false,
      "t": 202841.0750500044,
      "d": 111.76465000002645,
      "v": 85
    },
    {
      "midi": 65,
      "hit": false,
      "t": 202849.89857500442,
      "d": 55.882325000013225,
      "v": 74
    },
    {
      "midi": 60,
      "hit": false,
      "t": 202849.89857500442,
      "d": 97.05877500001225,
      "v": 73
    },
    {
      "midi": 54,
      "hit": false,
      "t": 202849.89857500442,
      "d": 170.58815000002505,
      "v": 68
    },
    {
      "midi": 64,
      "hit": false,
      "t": 202861.66327500442,
      "d": 29.4117499999993,
      "v": 64
    },
    {
      "midi": 77,
      "hit": false,
      "t": 203014.60437500445,
      "d": 123.52934999999707,
      "v": 85
    },
    {
      "midi": 75,
      "hit": false,
      "t": 203188.13370000446,
      "d": 123.52934999999707,
      "v": 75
    },
    {
      "midi": 74,
      "hit": false,
      "t": 203352.83950000445,
      "d": 138.23522500001127,
      "v": 63
    },
    {
      "midi": 72,
      "hit": false,
      "t": 203549.89822500446,
      "d": 91.17642500001239,
      "v": 50
    },
    {
      "midi": 70,
      "hit": false,
      "t": 203691.0746250045,
      "d": 191.17637500001,
      "v": 36
    },
    {
      "midi": 69,
      "hit": false,
      "t": 203888.1333500045,
      "d": 64.70584999999846,
      "v": 53
    },
    {
      "midi": 72,
      "hit": false,
      "t": 204014.6038750045,
      "d": 241.17634999999427,
      "v": 66
    },
    {
      "midi": 69,
      "hit": false,
      "t": 204267.5449250045,
      "d": 47.05879999999888,
      "v": 33
    },
    {
      "midi": 70,
      "hit": false,
      "t": 204385.1919250045,
      "d": 305.88219999999274,
      "v": 42
    },
    {
      "midi": 67,
      "hit": false,
      "t": 204708.7211750045,
      "d": 311.7645500000508,
      "v": 33
    },
    {
      "midi": 63,
      "hit": false,
      "t": 204723.4270500045,
      "d": 194.1175500000245,
      "v": 26
    },
    {
      "midi": 58,
      "hit": false,
      "t": 204735.1917500045,
      "d": 364.70570000004955,
      "v": 25
    },
    {
      "midi": 62,
      "hit": false,
      "t": 204738.13292500452,
      "d": 344.1174750000355,
      "v": 36
    },
    {
      "midi": 63,
      "hit": false,
      "t": 204979.30927500455,
      "d": 120.58817500001169,
      "v": 19
    },
    {
      "midi": 74,
      "hit": false,
      "t": 205108.72097500457,
      "d": 38.235275000013644,
      "v": 35
    },
    {
      "midi": 76,
      "hit": false,
      "t": 205111.6621500046,
      "d": 38.235275000013644,
      "v": 35
    },
    {
      "midi": 76,
      "hit": false,
      "t": 205217.5444500046,
      "d": 73.5293750000128,
      "v": 14
    },
    {
      "midi": 74,
      "hit": false,
      "t": 205226.36797500463,
      "d": 70.58819999999832,
      "v": 25
    },
    {
      "midi": 71,
      "hit": false,
      "t": 205329.30910000464,
      "d": 73.52937500004191,
      "v": 54
    },
    {
      "midi": 63,
      "hit": false,
      "t": 205344.01497500465,
      "d": 64.70585000002757,
      "v": 23
    },
    {
      "midi": 72,
      "hit": false,
      "t": 205394.01495000467,
      "d": 152.94110000002547,
      "v": 50
    },
    {
      "midi": 74,
      "hit": false,
      "t": 205499.8972500047,
      "d": 73.5293750000128,
      "v": 47
    },
    {
      "midi": 75,
      "hit": false,
      "t": 205546.9560500047,
      "d": 52.94115000002785,
      "v": 51
    },
    {
      "midi": 77,
      "hit": false,
      "t": 205641.07365000472,
      "d": 73.52937500004191,
      "v": 63
    },
    {
      "midi": 63,
      "hit": false,
      "t": 205649.89717500473,
      "d": 108.82347500004107,
      "v": 42
    },
    {
      "midi": 67,
      "hit": false,
      "t": 205655.77952500473,
      "d": 32.352925000013784,
      "v": 36
    },
    {
      "midi": 57,
      "hit": false,
      "t": 205696.95597500476,
      "d": 41.17644999999902,
      "v": 28
    },
    {
      "midi": 79,
      "hit": false,
      "t": 205714.60302500476,
      "d": 149.9999250000401,
      "v": 40
    },
    {
      "midi": 81,
      "hit": false,
      "t": 205849.8970750048,
      "d": 97.05877500001225,
      "v": 13
    },
    {
      "midi": 82,
      "hit": false,
      "t": 205899.8970500048,
      "d": 73.5293750000128,
      "v": 45
    },
    {
      "midi": 83,
      "hit": false,
      "t": 205976.36760000483,
      "d": 97.05877500001225,
      "v": 57
    },
    {
      "midi": 86,
      "hit": false,
      "t": 206064.60285000483,
      "d": 26.470575000013923,
      "v": 75
    },
    {
      "midi": 84,
      "hit": false,
      "t": 206067.54402500484,
      "d": 161.76462500006892,
      "v": 72
    },
    {
      "midi": 65,
      "hit": false,
      "t": 206094.01460000486,
      "d": 38.235275000013644,
      "v": 37
    },
    {
      "midi": 60,
      "hit": false,
      "t": 206114.60282500487,
      "d": 82.35290000002715,
      "v": 28
    },
    {
      "midi": 62,
      "hit": false,
      "t": 206126.36752500487,
      "d": 61.764675000013085,
      "v": 14
    },
    {
      "midi": 81,
      "hit": false,
      "t": 206161.66162500487,
      "d": 158.82345000005444,
      "v": 68
    },
    {
      "midi": 83,
      "hit": false,
      "t": 206191.0733750049,
      "d": 88.23525000002701,
      "v": 31
    },
    {
      "midi": 77,
      "hit": false,
      "t": 206349.89682500492,
      "d": 99.99994999999763,
      "v": 74
    },
    {
      "midi": 74,
      "hit": false,
      "t": 206502.83792500492,
      "d": 191.17637500001,
      "v": 37
    },
    {
      "midi": 70,
      "hit": false,
      "t": 206708.72017500494,
      "d": 138.23522500004037,
      "v": 58
    },
    {
      "midi": 65,
      "hit": false,
      "t": 206729.30840000496,
      "d": 26.470575000013923,
      "v": 24
    },
    {
      "midi": 62,
      "hit": false,
      "t": 206729.30840000496,
      "d": 70.58820000002743,
      "v": 34
    },
    {
      "midi": 69,
      "hit": false,
      "t": 206876.36715000498,
      "d": 126.47052500001155,
      "v": 25
    },
    {
      "midi": 72,
      "hit": false,
      "t": 207038.131775005,
      "d": 114.70582500004093,
      "v": 67
    },
    {
      "midi": 62,
      "hit": false,
      "t": 207076.367050005,
      "d": 38.235275000013644,
      "v": 36
    },
    {
      "midi": 60,
      "hit": false,
      "t": 207105.778800005,
      "d": 32.352925000013784,
      "v": 24
    },
    {
      "midi": 70,
      "hit": false,
      "t": 207199.89640000503,
      "d": 185.29402500001015,
      "v": 49
    },
    {
      "midi": 68,
      "hit": false,
      "t": 207402.83747500504,
      "d": 99.99995000002673,
      "v": 60
    },
    {
      "midi": 67,
      "hit": false,
      "t": 207417.54335000506,
      "d": 35.29409999999916,
      "v": 48
    },
    {
      "midi": 63,
      "hit": false,
      "t": 207423.42570000506,
      "d": 105.88230000002659,
      "v": 39
    },
    {
      "midi": 67,
      "hit": false,
      "t": 207546.95505000508,
      "d": 161.7646250000107,
      "v": 56
    },
    {
      "midi": 68,
      "hit": false,
      "t": 207758.7196500051,
      "d": 108.82347500001197,
      "v": 45
    },
    {
      "midi": 63,
      "hit": false,
      "t": 207805.7784500051,
      "d": 38.235275000013644,
      "v": 25
    },
    {
      "midi": 67,
      "hit": false,
      "t": 207814.60197500512,
      "d": 88.2352499999979,
      "v": 48
    },
    {
      "midi": 65,
      "hit": false,
      "t": 207926.36662500512,
      "d": 164.7057999999961,
      "v": 33
    },
    {
      "midi": 67,
      "hit": false,
      "t": 208138.1312250051,
      "d": 85.29407500001253,
      "v": 62
    },
    {
      "midi": 65,
      "hit": false,
      "t": 208146.95475000513,
      "d": 41.17644999999902,
      "v": 49
    },
    {
      "midi": 60,
      "hit": false,
      "t": 208164.60180000513,
      "d": 70.58819999999832,
      "v": 34
    },
    {
      "midi": 68,
      "hit": false,
      "t": 208299.89585000512,
      "d": 223.5293000000529,
      "v": 42
    },
    {
      "midi": 65,
      "hit": false,
      "t": 208473.42517500513,
      "d": 41.176450000028126,
      "v": 58
    },
    {
      "midi": 70,
      "hit": false,
      "t": 208473.42517500513,
      "d": 76.47055000005639,
      "v": 69
    },
    {
      "midi": 60,
      "hit": false,
      "t": 208479.30752500513,
      "d": 82.35290000005625,
      "v": 54
    },
    {
      "midi": 54,
      "hit": false,
      "t": 208479.30752500513,
      "d": 108.82347500007018,
      "v": 35
    },
    {
      "midi": 58,
      "hit": false,
      "t": 208482.24870000515,
      "d": 99.99995000005583,
      "v": 39
    },
    {
      "midi": 72,
      "hit": false,
      "t": 208620.48392500522,
      "d": 194.1175499999954,
      "v": 40
    },
    {
      "midi": 60,
      "hit": false,
      "t": 208823.42500000523,
      "d": 67.64702500004205,
      "v": 60
    },
    {
      "midi": 65,
      "hit": false,
      "t": 208832.24852500524,
      "d": 32.352925000013784,
      "v": 40
    },
    {
      "midi": 77,
      "hit": false,
      "t": 208832.24852500524,
      "d": 85.29407500004163,
      "v": 64
    },
    {
      "midi": 72,
      "hit": false,
      "t": 208961.6602250053,
      "d": 1097.058275000105,
      "v": 67
    },
    {
      "midi": 84,
      "hit": false,
      "t": 208964.6014000053,
      "d": 973.5289250000496,
      "v": 77
    },
    {
      "midi": 55,
      "hit": false,
      "t": 208970.4837500053,
      "d": 823.5290000000095,
      "v": 62
    },
    {
      "midi": 65,
      "hit": false,
      "t": 208973.42492500533,
      "d": 858.8231000000087,
      "v": 64
    },
    {
      "midi": 60,
      "hit": false,
      "t": 208973.42492500533,
      "d": 902.9407250000222,
      "v": 62
    },
    {
      "midi": 56,
      "hit": false,
      "t": 208985.18962500533,
      "d": 847.058400000009,
      "v": 54
    },
    {
      "midi": 83,
      "hit": false,
      "t": 209991.07147500536,
      "d": 147.05875000008382,
      "v": 63
    },
    {
      "midi": 65,
      "hit": false,
      "t": 209996.95382500536,
      "d": 102.94112500007031,
      "v": 57
    },
    {
      "midi": 60,
      "hit": false,
      "t": 210014.60087500536,
      "d": 73.52937500004191,
      "v": 34
    },
    {
      "midi": 56,
      "hit": false,
      "t": 210023.42440000537,
      "d": 147.05875000008382,
      "v": 30
    },
    {
      "midi": 55,
      "hit": false,
      "t": 210038.1302750054,
      "d": 58.82350000002771,
      "v": 32
    },
    {
      "midi": 64,
      "hit": false,
      "t": 210361.65952500547,
      "d": 123.52935000005527,
      "v": 75
    },
    {
      "midi": 94,
      "hit": false,
      "t": 210364.60070000548,
      "d": 197.05872500006808,
      "v": 90
    },
    {
      "midi": 59,
      "hit": false,
      "t": 210367.5418750055,
      "d": 126.47052500004065,
      "v": 70
    },
    {
      "midi": 53,
      "hit": false,
      "t": 210370.4830500055,
      "d": 108.82347500001197,
      "v": 68
    },
    {
      "midi": 63,
      "hit": false,
      "t": 210917.54160000556,
      "d": 52.94115000002785,
      "v": 69
    },
    {
      "midi": 92,
      "hit": false,
      "t": 210920.48277500557,
      "d": 111.76465000002645,
      "v": 84
    },
    {
      "midi": 59,
      "hit": false,
      "t": 210926.36512500557,
      "d": 32.352925000013784,
      "v": 53
    },
    {
      "midi": 56,
      "hit": false,
      "t": 210929.30630000558,
      "d": 120.58817500001169,
      "v": 38
    },
    {
      "midi": 87,
      "hit": false,
      "t": 211096.9532750056,
      "d": 167.64697500001057,
      "v": 45
    },
    {
      "midi": 83,
      "hit": false,
      "t": 211273.42377500562,
      "d": 105.88229999999749,
      "v": 64
    },
    {
      "midi": 59,
      "hit": false,
      "t": 211308.71787500562,
      "d": 35.29409999999916,
      "v": 35
    },
    {
      "midi": 67,
      "hit": false,
      "t": 211652.83535000563,
      "d": 32.35292500004289,
      "v": 36
    },
    {
      "midi": 63,
      "hit": false,
      "t": 211661.65887500564,
      "d": 58.82350000005681,
      "v": 34
    },
    {
      "midi": 62,
      "hit": false,
      "t": 211670.48240000565,
      "d": 47.058800000027986,
      "v": 29
    },
    {
      "midi": 86,
      "hit": false,
      "t": 211773.4235250057,
      "d": 141.17639999999665,
      "v": 83
    },
    {
      "midi": 62,
      "hit": false,
      "t": 211996.9528250057,
      "d": 70.58819999999832,
      "v": 36
    },
    {
      "midi": 86,
      "hit": false,
      "t": 212120.4821750057,
      "d": 161.7646250000107,
      "v": 88
    },
    {
      "midi": 74,
      "hit": false,
      "t": 212120.4821750057,
      "d": 170.58815000002505,
      "v": 74
    },
    {
      "midi": 84,
      "hit": false,
      "t": 212364.59970000573,
      "d": 35.29409999999916,
      "v": 41
    },
    {
      "midi": 86,
      "hit": false,
      "t": 212479.30552500574,
      "d": 182.35285000002477,
      "v": 80
    },
    {
      "midi": 74,
      "hit": false,
      "t": 212488.12905000575,
      "d": 197.05872500000987,
      "v": 68
    },
    {
      "midi": 63,
      "hit": false,
      "t": 212817.54065000577,
      "d": 232.35282500003814,
      "v": 50
    },
    {
      "midi": 58,
      "hit": false,
      "t": 212829.30535000577,
      "d": 194.1175500000245,
      "v": 40
    },
    {
      "midi": 52,
      "hit": false,
      "t": 212835.18770000577,
      "d": 173.52932500001043,
      "v": 43
    },
    {
      "midi": 67,
      "hit": false,
      "t": 213408.7168250058,
      "d": 73.52937500004191,
      "v": 66
    },
    {
      "midi": 56,
      "hit": false,
      "t": 213417.54035000582,
      "d": 108.82347500004107,
      "v": 39
    },
    {
      "midi": 63,
      "hit": false,
      "t": 213417.54035000582,
      "d": 114.70582500004093,
      "v": 49
    },
    {
      "midi": 60,
      "hit": false,
      "t": 213426.36387500583,
      "d": 88.23525000002701,
      "v": 49
    },
    {
      "midi": 82,
      "hit": false,
      "t": 213805.77545000587,
      "d": 26.470575000013923,
      "v": 23
    },
    {
      "midi": 84,
      "hit": false,
      "t": 213894.0107000059,
      "d": 155.88227500001085,
      "v": 89
    },
    {
      "midi": 72,
      "hit": false,
      "t": 213894.0107000059,
      "d": 176.4705000000249,
      "v": 84
    },
    {
      "midi": 83,
      "hit": false,
      "t": 213923.4224500059,
      "d": 35.29409999999916,
      "v": 36
    },
    {
      "midi": 83,
      "hit": false,
      "t": 214035.1871000059,
      "d": 35.294100000028266,
      "v": 27
    },
    {
      "midi": 85,
      "hit": false,
      "t": 214226.36347500593,
      "d": 155.88227500003995,
      "v": 83
    },
    {
      "midi": 73,
      "hit": false,
      "t": 214232.24582500593,
      "d": 149.9999250000401,
      "v": 76
    },
    {
      "midi": 66,
      "hit": false,
      "t": 214232.24582500593,
      "d": 249.99987500009593,
      "v": 74
    },
    {
      "midi": 56,
      "hit": false,
      "t": 214238.12817500593,
      "d": 297.0586750000948,
      "v": 64
    },
    {
      "midi": 62,
      "hit": false,
      "t": 214241.06935000594,
      "d": 188.23520000005374,
      "v": 65
    },
    {
      "midi": 86,
      "hit": false,
      "t": 214361.65752500595,
      "d": 82.35290000005625,
      "v": 51
    },
    {
      "midi": 74,
      "hit": false,
      "t": 214385.18692500598,
      "d": 73.52937500004191,
      "v": 66
    },
    {
      "midi": 82,
      "hit": false,
      "t": 214599.89270000602,
      "d": 147.0587500000256,
      "v": 57
    },
    {
      "midi": 70,
      "hit": false,
      "t": 214608.71622500604,
      "d": 167.64697500001057,
      "v": 62
    },
    {
      "midi": 65,
      "hit": false,
      "t": 214952.83370000604,
      "d": 82.35290000008536,
      "v": 41
    },
    {
      "midi": 79,
      "hit": false,
      "t": 214955.77487500606,
      "d": 179.4116750000976,
      "v": 58
    },
    {
      "midi": 62,
      "hit": false,
      "t": 214958.71605000607,
      "d": 82.35290000005625,
      "v": 41
    },
    {
      "midi": 67,
      "hit": false,
      "t": 214961.65722500609,
      "d": 164.7058000000543,
      "v": 55
    },
    {
      "midi": 55,
      "hit": false,
      "t": 214964.5984000061,
      "d": 144.11757500004023,
      "v": 38
    },
    {
      "midi": 60,
      "hit": false,
      "t": 214967.5395750061,
      "d": 58.8234999999986,
      "v": 43
    },
    {
      "midi": 65,
      "hit": false,
      "t": 215288.12765000615,
      "d": 335.29395000002114,
      "v": 55
    },
    {
      "midi": 72,
      "hit": false,
      "t": 215294.01000000615,
      "d": 161.7646250000107,
      "v": 53
    },
    {
      "midi": 54,
      "hit": false,
      "t": 215294.01000000615,
      "d": 435.29390000001877,
      "v": 42
    },
    {
      "midi": 60,
      "hit": false,
      "t": 215308.71587500616,
      "d": 320.58807500000694,
      "v": 49
    },
    {
      "midi": 77,
      "hit": false,
      "t": 215535.18635000617,
      "d": 105.88229999999749,
      "v": 70
    },
    {
      "midi": 70,
      "hit": false,
      "t": 215891.06852500618,
      "d": 285.2939750000078,
      "v": 85
    },
    {
      "midi": 62,
      "hit": false,
      "t": 215908.71557500618,
      "d": 58.8234999999986,
      "v": 59
    },
    {
      "midi": 58,
      "hit": false,
      "t": 215914.59792500618,
      "d": 88.2352499999979,
      "v": 48
    },
    {
      "midi": 53,
      "hit": false,
      "t": 215920.48027500618,
      "d": 52.94114999999874,
      "v": 44
    },
    {
      "midi": 77,
      "hit": false,
      "t": 216235.1860000062,
      "d": 108.82347500001197,
      "v": 71
    },
    {
      "midi": 58,
      "hit": false,
      "t": 216246.9507000062,
      "d": 55.882325000013225,
      "v": 47
    },
    {
      "midi": 65,
      "hit": false,
      "t": 216391.0682750062,
      "d": 267.6469250000082,
      "v": 41
    },
    {
      "midi": 63,
      "hit": false,
      "t": 216699.8916500062,
      "d": 182.35284999999567,
      "v": 64
    },
    {
      "midi": 65,
      "hit": false,
      "t": 216926.3621250062,
      "d": 67.64702500001295,
      "v": 60
    },
    {
      "midi": 64,
      "hit": false,
      "t": 216926.3621250062,
      "d": 88.23525000002701,
      "v": 58
    },
    {
      "midi": 58,
      "hit": false,
      "t": 216946.95035000623,
      "d": 35.29409999999916,
      "v": 34
    },
    {
      "midi": 61,
      "hit": false,
      "t": 217099.89145000625,
      "d": 173.52932500001043,
      "v": 17
    },
    {
      "midi": 60,
      "hit": false,
      "t": 217261.65607500626,
      "d": 97.05877500001225,
      "v": 80
    },
    {
      "midi": 41,
      "hit": false,
      "t": 217267.53842500626,
      "d": 76.47054999999818,
      "v": 59
    },
    {
      "midi": 58,
      "hit": false,
      "t": 217482.24420000627,
      "d": 194.1175499999954,
      "v": 7
    },
    {
      "midi": 55,
      "hit": false,
      "t": 217670.47940000627,
      "d": 52.94114999999874,
      "v": 39
    },
    {
      "midi": 56,
      "hit": false,
      "t": 217799.89110000627,
      "d": 238.2351750000089,
      "v": 35
    },
    {
      "midi": 58,
      "hit": false,
      "t": 218008.71452500627,
      "d": 108.82347500001197,
      "v": 44
    },
    {
      "midi": 44,
      "hit": false,
      "t": 218105.7733000063,
      "d": 102.94112500001211,
      "v": 35
    },
    {
      "midi": 54,
      "hit": false,
      "t": 218111.6556500063,
      "d": 58.8234999999986,
      "v": 25
    },
    {
      "midi": 59,
      "hit": false,
      "t": 218158.7144500063,
      "d": 147.0587500000256,
      "v": 43
    },
    {
      "midi": 63,
      "hit": false,
      "t": 218705.7730000063,
      "d": 64.70585000005667,
      "v": 56
    },
    {
      "midi": 66,
      "hit": false,
      "t": 218714.59652500632,
      "d": 76.47055000005639,
      "v": 70
    },
    {
      "midi": 54,
      "hit": false,
      "t": 218729.30240000633,
      "d": 73.52937500004191,
      "v": 30
    },
    {
      "midi": 59,
      "hit": false,
      "t": 218744.00827500634,
      "d": 44.117625000013504,
      "v": 34
    },
    {
      "midi": 58,
      "hit": false,
      "t": 218758.71415000636,
      "d": 82.35290000002715,
      "v": 21
    },
    {
      "midi": 70,
      "hit": false,
      "t": 218873.4199750064,
      "d": 158.82344999999623,
      "v": 61
    },
    {
      "midi": 68,
      "hit": false,
      "t": 219126.3610250064,
      "d": 32.352925000013784,
      "v": 25
    },
    {
      "midi": 70,
      "hit": false,
      "t": 219208.71392500642,
      "d": 182.35284999999567,
      "v": 71
    },
    {
      "midi": 68,
      "hit": false,
      "t": 219414.59617500642,
      "d": 108.82347500001197,
      "v": 63
    },
    {
      "midi": 61,
      "hit": false,
      "t": 219444.00792500642,
      "d": 117.64700000002631,
      "v": 31
    },
    {
      "midi": 66,
      "hit": false,
      "t": 219611.65490000646,
      "d": 179.4116750000103,
      "v": 36
    },
    {
      "midi": 61,
      "hit": false,
      "t": 219794.00775000648,
      "d": 91.17642500004149,
      "v": 25
    },
    {
      "midi": 62,
      "hit": false,
      "t": 219808.7136250065,
      "d": 35.29409999999916,
      "v": 18
    },
    {
      "midi": 66,
      "hit": false,
      "t": 219876.3606500065,
      "d": 197.05872500000987,
      "v": 47
    },
    {
      "midi": 62,
      "hit": false,
      "t": 220123.41935000653,
      "d": 191.17637500003912,
      "v": 33
    },
    {
      "midi": 60,
      "hit": false,
      "t": 220138.12522500654,
      "d": 223.5293000000238,
      "v": 40
    },
    {
      "midi": 65,
      "hit": false,
      "t": 220141.06640000656,
      "d": 249.99987500000861,
      "v": 61
    },
    {
      "midi": 55,
      "hit": false,
      "t": 220173.41932500657,
      "d": 411.7645000000193,
      "v": 29
    },
    {
      "midi": 67,
      "hit": false,
      "t": 220444.00742500657,
      "d": 79.41172500001267,
      "v": 41
    },
    {
      "midi": 65,
      "hit": false,
      "t": 220488.12505000658,
      "d": 88.2352499999979,
      "v": 41
    },
    {
      "midi": 62,
      "hit": false,
      "t": 220614.5955750066,
      "d": 211.76460000002407,
      "v": 32
    },
    {
      "midi": 63,
      "hit": false,
      "t": 220823.4190000066,
      "d": 94.11760000002687,
      "v": 65
    },
    {
      "midi": 64,
      "hit": false,
      "t": 220991.06597500664,
      "d": 138.23522500001127,
      "v": 35
    },
    {
      "midi": 66,
      "hit": false,
      "t": 221164.59530000665,
      "d": 126.47052500001155,
      "v": 67
    },
    {
      "midi": 61,
      "hit": false,
      "t": 221196.94822500666,
      "d": 29.4117499999993,
      "v": 45
    },
    {
      "midi": 67,
      "hit": false,
      "t": 221332.24227500666,
      "d": 158.82344999999623,
      "v": 58
    },
    {
      "midi": 68,
      "hit": false,
      "t": 221520.47747500666,
      "d": 105.8823000000557,
      "v": 71
    },
    {
      "midi": 56,
      "hit": false,
      "t": 221535.18335000667,
      "d": 64.70585000002757,
      "v": 74
    },
    {
      "midi": 50,
      "hit": false,
      "t": 221538.1245250067,
      "d": 26.470575000013923,
      "v": 73
    },
    {
      "midi": 60,
      "hit": false,
      "t": 221544.0068750067,
      "d": 26.470575000013923,
      "v": 59
    },
    {
      "midi": 71,
      "hit": false,
      "t": 221702.8303250067,
      "d": 114.70582500001183,
      "v": 44
    },
    {
      "midi": 65,
      "hit": false,
      "t": 221870.47730000672,
      "d": 55.88232500004233,
      "v": 74
    },
    {
      "midi": 54,
      "hit": false,
      "t": 221873.41847500674,
      "d": 117.64700000005541,
      "v": 60
    },
    {
      "midi": 60,
      "hit": false,
      "t": 221876.35965000675,
      "d": 73.5293750000128,
      "v": 67
    },
    {
      "midi": 75,
      "hit": false,
      "t": 221876.35965000675,
      "d": 88.23525000002701,
      "v": 71
    },
    {
      "midi": 76,
      "hit": false,
      "t": 222029.3007500068,
      "d": 138.23522500001127,
      "v": 66
    },
    {
      "midi": 53,
      "hit": false,
      "t": 222196.94772500682,
      "d": 252.9410500000522,
      "v": 72
    },
    {
      "midi": 64,
      "hit": false,
      "t": 222199.88890000683,
      "d": 64.70585000002757,
      "v": 70
    },
    {
      "midi": 59,
      "hit": false,
      "t": 222199.88890000683,
      "d": 320.58807500003604,
      "v": 69
    },
    {
      "midi": 79,
      "hit": false,
      "t": 222217.53595000683,
      "d": 55.88232500004233,
      "v": 65
    },
    {
      "midi": 67,
      "hit": false,
      "t": 222220.47712500684,
      "d": 58.82350000002771,
      "v": 71
    },
    {
      "midi": 80,
      "hit": false,
      "t": 222426.35937500687,
      "d": 47.05879999999888,
      "v": 29
    },
    {
      "midi": 70,
      "hit": false,
      "t": 222594.00635000688,
      "d": 64.70585000008577,
      "v": 73
    },
    {
      "midi": 53,
      "hit": false,
      "t": 222596.9475250069,
      "d": 29.411750000028405,
      "v": 68
    },
    {
      "midi": 59,
      "hit": false,
      "t": 222596.9475250069,
      "d": 85.29407500007073,
      "v": 66
    },
    {
      "midi": 63,
      "hit": false,
      "t": 222599.8887000069,
      "d": 47.058800000027986,
      "v": 71
    },
    {
      "midi": 82,
      "hit": false,
      "t": 222605.7710500069,
      "d": 49.99997500004247,
      "v": 57
    },
    {
      "midi": 80,
      "hit": false,
      "t": 222635.18280000694,
      "d": 35.294100000028266,
      "v": 21
    },
    {
      "midi": 71,
      "hit": false,
      "t": 222761.65332500698,
      "d": 73.52937500004191,
      "v": 72
    },
    {
      "midi": 82,
      "hit": false,
      "t": 222767.53567500698,
      "d": 79.41172500007087,
      "v": 39
    },
    {
      "midi": 83,
      "hit": false,
      "t": 222779.30037500698,
      "d": 58.82350000005681,
      "v": 39
    },
    {
      "midi": 72,
      "hit": false,
      "t": 222782.241550007,
      "d": 32.352925000013784,
      "v": 43
    },
    {
      "midi": 84,
      "hit": false,
      "t": 222788.123900007,
      "d": 26.470575000013923,
      "v": 41
    },
    {
      "midi": 62,
      "hit": false,
      "t": 222961.65322500706,
      "d": 108.82347500007018,
      "v": 75
    },
    {
      "midi": 63,
      "hit": false,
      "t": 222961.65322500706,
      "d": 114.70582500007004,
      "v": 68
    },
    {
      "midi": 67,
      "hit": false,
      "t": 222964.59440000707,
      "d": 52.94115000002785,
      "v": 80
    },
    {
      "midi": 86,
      "hit": false,
      "t": 222964.59440000707,
      "d": 58.82350000002771,
      "v": 83
    },
    {
      "midi": 72,
      "hit": false,
      "t": 222967.5355750071,
      "d": 32.352925000013784,
      "v": 73
    },
    {
      "midi": 84,
      "hit": false,
      "t": 222967.5355750071,
      "d": 55.882325000013225,
      "v": 74
    },
    {
      "midi": 58,
      "hit": false,
      "t": 222967.5355750071,
      "d": 76.47055000002729,
      "v": 61
    },
    {
      "midi": 74,
      "hit": false,
      "t": 222976.3591000071,
      "d": 23.52939999999944,
      "v": 69
    },
    {
      "midi": 85,
      "hit": false,
      "t": 223114.59432500714,
      "d": 76.4705500000855,
      "v": 62
    },
    {
      "midi": 73,
      "hit": false,
      "t": 223114.59432500714,
      "d": 88.23525000011432,
      "v": 62
    },
    {
      "midi": 79,
      "hit": false,
      "t": 223123.41785000716,
      "d": 285.2939750002115,
      "v": 40
    },
    {
      "midi": 82,
      "hit": false,
      "t": 223126.35902500717,
      "d": 126.47052500015707,
      "v": 37
    },
    {
      "midi": 67,
      "hit": false,
      "t": 223129.3002000072,
      "d": 41.176450000028126,
      "v": 71
    },
    {
      "midi": 63,
      "hit": false,
      "t": 223132.2413750072,
      "d": 91.1764250000997,
      "v": 57
    },
    {
      "midi": 62,
      "hit": false,
      "t": 223138.1237250072,
      "d": 76.4705500000855,
      "v": 51
    },
    {
      "midi": 58,
      "hit": false,
      "t": 223144.0060750072,
      "d": 61.76467500007129,
      "v": 33
    },
    {
      "midi": 86,
      "hit": false,
      "t": 223194.00605000724,
      "d": 38.23527500007185,
      "v": 57
    },
    {
      "midi": 74,
      "hit": false,
      "t": 223217.5354500073,
      "d": 79.41172500004177,
      "v": 53
    },
    {
      "midi": 86,
      "hit": false,
      "t": 223320.47657500734,
      "d": 67.64702500001295,
      "v": 45
    },
    {
      "midi": 74,
      "hit": false,
      "t": 223379.30007500734,
      "d": 79.41172500004177,
      "v": 45
    },
    {
      "midi": 86,
      "hit": false,
      "t": 223467.5353250074,
      "d": 117.64700000002631,
      "v": 64
    },
    {
      "midi": 83,
      "hit": false,
      "t": 223473.4176750074,
      "d": 91.17642500001239,
      "v": 45
    },
    {
      "midi": 79,
      "hit": false,
      "t": 223485.1823750074,
      "d": 52.94114999999874,
      "v": 18
    },
    {
      "midi": 74,
      "hit": false,
      "t": 223538.1235250074,
      "d": 164.7058000000252,
      "v": 40
    },
    {
      "midi": 86,
      "hit": false,
      "t": 223649.88817500742,
      "d": 79.41172500001267,
      "v": 68
    },
    {
      "midi": 79,
      "hit": false,
      "t": 223655.77052500742,
      "d": 332.35277500006487,
      "v": 40
    },
    {
      "midi": 67,
      "hit": false,
      "t": 223755.77047500745,
      "d": 35.294100000028266,
      "v": 53
    },
    {
      "midi": 63,
      "hit": false,
      "t": 223770.47635000746,
      "d": 99.99995000002673,
      "v": 25
    },
    {
      "midi": 62,
      "hit": false,
      "t": 223770.47635000746,
      "d": 232.35282500003814,
      "v": 37
    },
    {
      "midi": 84,
      "hit": false,
      "t": 223788.12340000746,
      "d": 152.94110000002547,
      "v": 50
    },
    {
      "midi": 72,
      "hit": false,
      "t": 223791.06457500748,
      "d": 173.52932500001043,
      "v": 44
    },
    {
      "midi": 86,
      "hit": false,
      "t": 224029.2997500075,
      "d": 61.76467500004219,
      "v": 83
    },
    {
      "midi": 79,
      "hit": false,
      "t": 224035.1821000075,
      "d": 47.058800000027986,
      "v": 68
    },
    {
      "midi": 74,
      "hit": false,
      "t": 224038.12327500753,
      "d": 35.29409999999916,
      "v": 47
    },
    {
      "midi": 63,
      "hit": false,
      "t": 224496.94657500755,
      "d": 91.17642500004149,
      "v": 37
    },
    {
      "midi": 58,
      "hit": false,
      "t": 224505.77010000756,
      "d": 111.76465000002645,
      "v": 43
    },
    {
      "midi": 52,
      "hit": false,
      "t": 224514.59362500758,
      "d": 102.94112500001211,
      "v": 38
    },
    {
      "midi": 67,
      "hit": false,
      "t": 225235.1815000076,
      "d": 61.76467500004219,
      "v": 75
    },
    {
      "midi": 63,
      "hit": false,
      "t": 225235.1815000076,
      "d": 94.11760000005597,
      "v": 57
    },
    {
      "midi": 86,
      "hit": false,
      "t": 225235.1815000076,
      "d": 111.76465000005555,
      "v": 87
    },
    {
      "midi": 74,
      "hit": false,
      "t": 225235.1815000076,
      "d": 114.70582500007004,
      "v": 83
    },
    {
      "midi": 60,
      "hit": false,
      "t": 225244.00502500762,
      "d": 102.94112500004121,
      "v": 63
    },
    {
      "midi": 56,
      "hit": false,
      "t": 225244.00502500762,
      "d": 117.64700000005541,
      "v": 51
    },
    {
      "midi": 80,
      "hit": false,
      "t": 225246.94620000763,
      "d": 29.4117499999993,
      "v": 32
    },
    {
      "midi": 78,
      "hit": false,
      "t": 225564.59310000768,
      "d": 188.23520000011194,
      "v": 52
    },
    {
      "midi": 56,
      "hit": false,
      "t": 225564.59310000768,
      "d": 202.94107500012615,
      "v": 52
    },
    {
      "midi": 84,
      "hit": false,
      "t": 225567.5342750077,
      "d": 114.70582500004093,
      "v": 72
    },
    {
      "midi": 62,
      "hit": false,
      "t": 225567.5342750077,
      "d": 152.94110000008368,
      "v": 53
    },
    {
      "midi": 72,
      "hit": false,
      "t": 225570.4754500077,
      "d": 141.17640000005485,
      "v": 60
    },
    {
      "midi": 66,
      "hit": false,
      "t": 225570.4754500077,
      "d": 147.05875000005472,
      "v": 59
    },
    {
      "midi": 60,
      "hit": false,
      "t": 225591.06367500772,
      "d": 105.88230000002659,
      "v": 44
    },
    {
      "midi": 65,
      "hit": false,
      "t": 225920.4752750078,
      "d": 376.47040000004927,
      "v": 50
    },
    {
      "midi": 62,
      "hit": false,
      "t": 225926.3576250078,
      "d": 367.6468750000349,
      "v": 41
    },
    {
      "midi": 70,
      "hit": false,
      "t": 225926.3576250078,
      "d": 367.6468750000349,
      "v": 50
    },
    {
      "midi": 82,
      "hit": false,
      "t": 225929.29880000782,
      "d": 399.9998000000487,
      "v": 39
    },
    {
      "midi": 55,
      "hit": false,
      "t": 225929.29880000782,
      "d": 423.52920000004815,
      "v": 51
    },
    {
      "midi": 60,
      "hit": false,
      "t": 225935.18115000782,
      "d": 370.5880500000494,
      "v": 36
    },
    {
      "midi": 77,
      "hit": false,
      "t": 225938.12232500783,
      "d": 364.70570000002044,
      "v": 49
    },
    {
      "midi": 65,
      "hit": false,
      "t": 226614.59257500787,
      "d": 58.82350000005681,
      "v": 80
    },
    {
      "midi": 60,
      "hit": false,
      "t": 226617.5337500079,
      "d": 67.64702500004205,
      "v": 74
    },
    {
      "midi": 58,
      "hit": false,
      "t": 226617.5337500079,
      "d": 105.8823000000557,
      "v": 62
    },
    {
      "midi": 54,
      "hit": false,
      "t": 226620.4749250079,
      "d": 111.76465000005555,
      "v": 62
    },
    {
      "midi": 77,
      "hit": false,
      "t": 226623.41610000792,
      "d": 55.882325000013225,
      "v": 84
    },
    {
      "midi": 84,
      "hit": false,
      "t": 226623.41610000792,
      "d": 55.882325000013225,
      "v": 87
    },
    {
      "midi": 89,
      "hit": false,
      "t": 226623.41610000792,
      "d": 55.882325000013225,
      "v": 83
    },
    {
      "midi": 65,
      "hit": false,
      "t": 226967.53357500795,
      "d": 61.764675000013085,
      "v": 68
    },
    {
      "midi": 74,
      "hit": false,
      "t": 226967.53357500795,
      "d": 97.05877500004135,
      "v": 65
    },
    {
      "midi": 54,
      "hit": false,
      "t": 226967.53357500795,
      "d": 152.94110000005458,
      "v": 61
    },
    {
      "midi": 86,
      "hit": false,
      "t": 226970.47475000797,
      "d": 76.47054999999818,
      "v": 68
    },
    {
      "midi": 60,
      "hit": false,
      "t": 226976.35710000797,
      "d": 79.41172500001267,
      "v": 59
    },
    {
      "midi": 58,
      "hit": false,
      "t": 226976.35710000797,
      "d": 108.82347500004107,
      "v": 51
    },
    {
      "midi": 55,
      "hit": false,
      "t": 227320.474575008,
      "d": 494.1174000001047,
      "v": 59
    },
    {
      "midi": 82,
      "hit": false,
      "t": 227329.29810000802,
      "d": 197.05872500000987,
      "v": 49
    },
    {
      "midi": 70,
      "hit": false,
      "t": 227329.29810000802,
      "d": 220.5881250000093,
      "v": 50
    },
    {
      "midi": 58,
      "hit": false,
      "t": 227329.29810000802,
      "d": 267.6469250000082,
      "v": 50
    },
    {
      "midi": 62,
      "hit": false,
      "t": 227335.18045000802,
      "d": 261.76457500000834,
      "v": 57
    },
    {
      "midi": 53,
      "hit": false,
      "t": 227335.18045000802,
      "d": 476.470350000076,
      "v": 50
    },
    {
      "midi": 80,
      "hit": false,
      "t": 227661.65087500805,
      "d": 173.52932500006864,
      "v": 59
    },
    {
      "midi": 68,
      "hit": false,
      "t": 227664.59205000807,
      "d": 194.1175500000536,
      "v": 60
    },
    {
      "midi": 62,
      "hit": false,
      "t": 227667.53322500808,
      "d": 114.70582500001183,
      "v": 50
    },
    {
      "midi": 58,
      "hit": false,
      "t": 227670.4744000081,
      "d": 726.4702250001428,
      "v": 30
    },
    {
      "midi": 67,
      "hit": false,
      "t": 227902.82722500814,
      "d": 282.3528000000224,
      "v": 65
    },
    {
      "midi": 79,
      "hit": false,
      "t": 227905.76840000815,
      "d": 294.1175000000221,
      "v": 64
    },
    {
      "midi": 60,
      "hit": false,
      "t": 227908.70957500816,
      "d": 252.941049999994,
      "v": 45
    },
    {
      "midi": 52,
      "hit": false,
      "t": 227926.35662500816,
      "d": 426.4703750000335,
      "v": 33
    },
    {
      "midi": 76,
      "hit": false,
      "t": 228252.82705000817,
      "d": 120.58817500004079,
      "v": 75
    },
    {
      "midi": 60,
      "hit": false,
      "t": 228267.53292500818,
      "d": 126.47052500004065,
      "v": 47
    },
    {
      "midi": 79,
      "hit": false,
      "t": 228420.47402500824,
      "d": 120.58817500001169,
      "v": 78
    },
    {
      "midi": 77,
      "hit": false,
      "t": 228602.82687500826,
      "d": 141.17640000008396,
      "v": 74
    },
    {
      "midi": 67,
      "hit": false,
      "t": 228614.59157500826,
      "d": 61.76467500004219,
      "v": 60
    },
    {
      "midi": 63,
      "hit": false,
      "t": 228617.53275000828,
      "d": 123.52935000005527,
      "v": 49
    },
    {
      "midi": 56,
      "hit": false,
      "t": 228632.2386250083,
      "d": 82.35290000002715,
      "v": 23
    },
    {
      "midi": 72,
      "hit": false,
      "t": 228776.35620000836,
      "d": 197.05872500000987,
      "v": 35
    },
    {
      "midi": 68,
      "hit": false,
      "t": 228952.82670000836,
      "d": 97.05877500001225,
      "v": 39
    },
    {
      "midi": 67,
      "hit": false,
      "t": 229108.70897500837,
      "d": 170.58814999999595,
      "v": 36
    },
    {
      "midi": 63,
      "hit": false,
      "t": 229302.82652500836,
      "d": 41.176450000028126,
      "v": 51
    },
    {
      "midi": 59,
      "hit": false,
      "t": 229317.53240000838,
      "d": 32.352925000013784,
      "v": 44
    },
    {
      "midi": 58,
      "hit": false,
      "t": 229338.1206250084,
      "d": 32.352925000013784,
      "v": 25
    },
    {
      "midi": 79,
      "hit": false,
      "t": 229667.5322250084,
      "d": 108.82347500007018,
      "v": 74
    },
    {
      "midi": 63,
      "hit": false,
      "t": 229676.35575000843,
      "d": 49.99997500004247,
      "v": 67
    },
    {
      "midi": 54,
      "hit": false,
      "t": 229679.29692500844,
      "d": 114.70582500007004,
      "v": 47
    },
    {
      "midi": 59,
      "hit": false,
      "t": 229682.23810000846,
      "d": 26.470575000013923,
      "v": 64
    },
    {
      "midi": 58,
      "hit": false,
      "t": 229696.94397500847,
      "d": 94.11760000002687,
      "v": 34
    },
    {
      "midi": 82,
      "hit": false,
      "t": 229832.23802500853,
      "d": 117.6469999999972,
      "v": 80
    },
    {
      "midi": 63,
      "hit": false,
      "t": 230017.53205000854,
      "d": 97.05877500001225,
      "v": 72
    },
    {
      "midi": 80,
      "hit": false,
      "t": 230020.47322500855,
      "d": 123.52934999999707,
      "v": 69
    },
    {
      "midi": 59,
      "hit": false,
      "t": 230026.35557500855,
      "d": 111.76464999999735,
      "v": 57
    },
    {
      "midi": 75,
      "hit": false,
      "t": 230185.17902500855,
      "d": 202.94107500000973,
      "v": 47
    },
    {
      "midi": 71,
      "hit": false,
      "t": 230379.29657500854,
      "d": 111.76465000002645,
      "v": 71
    },
    {
      "midi": 63,
      "hit": false,
      "t": 230388.12010000856,
      "d": 123.52935000002617,
      "v": 49
    },
    {
      "midi": 59,
      "hit": false,
      "t": 230402.82597500857,
      "d": 97.05877500001225,
      "v": 41
    },
    {
      "midi": 62,
      "hit": false,
      "t": 230735.17875000858,
      "d": 61.76467500007129,
      "v": 57
    },
    {
      "midi": 67,
      "hit": false,
      "t": 230738.1199250086,
      "d": 32.35292500004289,
      "v": 44
    },
    {
      "midi": 65,
      "hit": false,
      "t": 230741.0611000086,
      "d": 29.411750000028405,
      "v": 36
    },
    {
      "midi": 60,
      "hit": false,
      "t": 230749.88462500862,
      "d": 32.352925000013784,
      "v": 50
    },
    {
      "midi": 86,
      "hit": false,
      "t": 230870.47280000866,
      "d": 123.52934999999707,
      "v": 84
    },
    {
      "midi": 62,
      "hit": false,
      "t": 231067.53152500867,
      "d": 64.70585000002757,
      "v": 71
    },
    {
      "midi": 87,
      "hit": false,
      "t": 231067.53152500867,
      "d": 88.23525000005611,
      "v": 75
    },
    {
      "midi": 60,
      "hit": false,
      "t": 231088.1197500087,
      "d": 47.058800000027986,
      "v": 38
    },
    {
      "midi": 65,
      "hit": false,
      "t": 231094.00210000869,
      "d": 26.470575000013923,
      "v": 24
    },
    {
      "midi": 89,
      "hit": false,
      "t": 231220.47262500873,
      "d": 135.2940500000259,
      "v": 76
    },
    {
      "midi": 88,
      "hit": false,
      "t": 231229.29615000874,
      "d": 29.4117499999993,
      "v": 72
    },
    {
      "midi": 86,
      "hit": false,
      "t": 231417.53135000877,
      "d": 117.64700000005541,
      "v": 79
    },
    {
      "midi": 65,
      "hit": false,
      "t": 231420.47252500878,
      "d": 52.94115000002785,
      "v": 60
    },
    {
      "midi": 62,
      "hit": false,
      "t": 231429.2960500088,
      "d": 105.88230000002659,
      "v": 51
    },
    {
      "midi": 60,
      "hit": false,
      "t": 231446.9431000088,
      "d": 41.176450000028126,
      "v": 39
    },
    {
      "midi": 82,
      "hit": false,
      "t": 231579.29597500883,
      "d": 199.99989999999525,
      "v": 46
    },
    {
      "midi": 79,
      "hit": false,
      "t": 231794.00175000884,
      "d": 29.4117499999993,
      "v": 29
    },
    {
      "midi": 66,
      "hit": false,
      "t": 232126.35452500885,
      "d": 685.2937749999983,
      "v": 83
    },
    {
      "midi": 61,
      "hit": false,
      "t": 232126.35452500885,
      "d": 697.058474999998,
      "v": 74
    },
    {
      "midi": 55,
      "hit": false,
      "t": 232138.11922500885,
      "d": 608.8232250000001,
      "v": 82
    },
    {
      "midi": 65,
      "hit": false,
      "t": 232852.82475000885,
      "d": 470.58800000004703,
      "v": 74
    },
    {
      "midi": 60,
      "hit": false,
      "t": 232855.76592500886,
      "d": 523.5291500000749,
      "v": 80
    },
    {
      "midi": 54,
      "hit": false,
      "t": 232870.47180000888,
      "d": 661.7643750000861,
      "v": 48
    },
    {
      "midi": 88,
      "hit": false,
      "t": 233226.35397500888,
      "d": 29.4117499999993,
      "v": 44
    },
    {
      "midi": 91,
      "hit": false,
      "t": 233332.2362750089,
      "d": 132.3528750000405,
      "v": 90
    },
    {
      "midi": 79,
      "hit": false,
      "t": 233335.17745000892,
      "d": 164.7058000000252,
      "v": 89
    },
    {
      "midi": 90,
      "hit": false,
      "t": 233435.17740000895,
      "d": 73.5293750000128,
      "v": 23
    },
    {
      "midi": 53,
      "hit": false,
      "t": 233555.76557500896,
      "d": 523.5291500001331,
      "v": 50
    },
    {
      "midi": 64,
      "hit": false,
      "t": 233564.58910000898,
      "d": 205.88225000002421,
      "v": 62
    },
    {
      "midi": 90,
      "hit": false,
      "t": 233567.530275009,
      "d": 132.3528750000114,
      "v": 77
    },
    {
      "midi": 78,
      "hit": false,
      "t": 233567.530275009,
      "d": 149.999925000011,
      "v": 73
    },
    {
      "midi": 59,
      "hit": false,
      "t": 233567.530275009,
      "d": 249.99987500003772,
      "v": 58
    },
    {
      "midi": 89,
      "hit": false,
      "t": 233779.294875009,
      "d": 117.64700000002631,
      "v": 75
    },
    {
      "midi": 77,
      "hit": false,
      "t": 233785.177225009,
      "d": 141.17640000005485,
      "v": 71
    },
    {
      "midi": 59,
      "hit": false,
      "t": 233905.76540000906,
      "d": 114.70582500004093,
      "v": 43
    },
    {
      "midi": 64,
      "hit": false,
      "t": 233908.70657500907,
      "d": 70.58819999999832,
      "v": 44
    },
    {
      "midi": 87,
      "hit": false,
      "t": 233994.00065000908,
      "d": 132.3528750000114,
      "v": 67
    },
    {
      "midi": 75,
      "hit": false,
      "t": 233999.88300000908,
      "d": 155.88227500001085,
      "v": 64
    },
    {
      "midi": 85,
      "hit": false,
      "t": 234220.4711250091,
      "d": 132.3528750000405,
      "v": 68
    },
    {
      "midi": 62,
      "hit": false,
      "t": 234232.2358250091,
      "d": 52.94115000002785,
      "v": 80
    },
    {
      "midi": 51,
      "hit": false,
      "t": 234235.1770000091,
      "d": 55.882325000013225,
      "v": 70
    },
    {
      "midi": 73,
      "hit": false,
      "t": 234235.1770000091,
      "d": 155.88227500003995,
      "v": 68
    },
    {
      "midi": 57,
      "hit": false,
      "t": 234244.00052500912,
      "d": 58.8234999999986,
      "v": 68
    },
    {
      "midi": 74,
      "hit": false,
      "t": 234391.05927500915,
      "d": 70.58819999999832,
      "v": 64
    },
    {
      "midi": 86,
      "hit": false,
      "t": 234494.00040000916,
      "d": 67.64702500001295,
      "v": 60
    },
    {
      "midi": 74,
      "hit": false,
      "t": 234558.70625000916,
      "d": 85.29407500001253,
      "v": 56
    },
    {
      "midi": 86,
      "hit": false,
      "t": 234652.82385000918,
      "d": 76.47055000002729,
      "v": 58
    },
    {
      "midi": 74,
      "hit": false,
      "t": 234714.5885250092,
      "d": 97.05877500001225,
      "v": 37
    },
    {
      "midi": 86,
      "hit": false,
      "t": 234820.47082500922,
      "d": 88.23525000002701,
      "v": 57
    },
    {
      "midi": 74,
      "hit": false,
      "t": 234888.11785000924,
      "d": 111.76465000005555,
      "v": 47
    },
    {
      "midi": 57,
      "hit": false,
      "t": 234946.94135000926,
      "d": 26.470575000013923,
      "v": 62
    },
    {
      "midi": 86,
      "hit": false,
      "t": 235023.4119000093,
      "d": 49.999975000013364,
      "v": 75
    },
    {
      "midi": 71,
      "hit": false,
      "t": 235096.9412750093,
      "d": 70.58820000002743,
      "v": 59
    },
    {
      "midi": 72,
      "hit": false,
      "t": 235105.76480000932,
      "d": 147.0587500000256,
      "v": 63
    },
    {
      "midi": 83,
      "hit": false,
      "t": 235146.94125000932,
      "d": 108.82347500004107,
      "v": 17
    },
    {
      "midi": 74,
      "hit": false,
      "t": 235317.52940000937,
      "d": 44.117625000013504,
      "v": 78
    },
    {
      "midi": 86,
      "hit": false,
      "t": 235329.29410000937,
      "d": 29.4117499999993,
      "v": 58
    },
    {
      "midi": 67,
      "hit": false,
      "t": 235788.1174000094,
      "d": 155.88227500003995,
      "v": 33
    },
    {
      "midi": 63,
      "hit": false,
      "t": 235791.0585750094,
      "d": 238.235175000038,
      "v": 30
    },
    {
      "midi": 56,
      "hit": false,
      "t": 235838.1173750094,
      "d": 170.58815000002505,
      "v": 18
    },
    {
      "midi": 60,
      "hit": false,
      "t": 235841.05855000942,
      "d": 132.3528750000114,
      "v": 22
    },
    {
      "midi": 67,
      "hit": false,
      "t": 236014.58787500943,
      "d": 94.11760000002687,
      "v": 51
    },
    {
      "midi": 68,
      "hit": false,
      "t": 236138.11722500945,
      "d": 94.11759999999776,
      "v": 35
    },
    {
      "midi": 70,
      "hit": false,
      "t": 236261.64657500945,
      "d": 35.29409999999916,
      "v": 48
    },
    {
      "midi": 72,
      "hit": false,
      "t": 236349.88182500945,
      "d": 76.47054999999818,
      "v": 80
    },
    {
      "midi": 74,
      "hit": false,
      "t": 236464.58765000946,
      "d": 94.11759999999776,
      "v": 84
    },
    {
      "midi": 75,
      "hit": false,
      "t": 236585.17582500947,
      "d": 52.94114999999874,
      "v": 67
    },
    {
      "midi": 77,
      "hit": false,
      "t": 236693.99930000948,
      "d": 73.5293750000128,
      "v": 80
    },
    {
      "midi": 79,
      "hit": false,
      "t": 236823.4110000095,
      "d": 52.94115000002785,
      "v": 75
    },
    {
      "midi": 66,
      "hit": false,
      "t": 236826.35217500952,
      "d": 73.52937500004191,
      "v": 50
    },
    {
      "midi": 62,
      "hit": false,
      "t": 236843.99922500952,
      "d": 47.058800000027986,
      "v": 28
    },
    {
      "midi": 56,
      "hit": false,
      "t": 236858.70510000954,
      "d": 82.35290000002715,
      "v": 21
    },
    {
      "midi": 80,
      "hit": false,
      "t": 236949.88152500958,
      "d": 49.999975000013364,
      "v": 60
    },
    {
      "midi": 82,
      "hit": false,
      "t": 237067.5285250096,
      "d": 67.64702500001295,
      "v": 70
    },
    {
      "midi": 62,
      "hit": false,
      "t": 237176.35200000962,
      "d": 188.23520000005374,
      "v": 36
    },
    {
      "midi": 84,
      "hit": false,
      "t": 237196.94022500963,
      "d": 55.882325000013225,
      "v": 75
    },
    {
      "midi": 60,
      "hit": false,
      "t": 237199.88140000965,
      "d": 149.999925000011,
      "v": 49
    },
    {
      "midi": 55,
      "hit": false,
      "t": 237199.88140000965,
      "d": 579.4114750002918,
      "v": 53
    },
    {
      "midi": 62,
      "hit": false,
      "t": 237414.58717500968,
      "d": 349.99982500023907,
      "v": 39
    },
    {
      "midi": 73,
      "hit": false,
      "t": 237423.4107000097,
      "d": 52.94115000002785,
      "v": 73
    },
    {
      "midi": 85,
      "hit": false,
      "t": 237423.4107000097,
      "d": 64.70585000005667,
      "v": 86
    },
    {
      "midi": 65,
      "hit": false,
      "t": 237426.3518750097,
      "d": 135.2940500000841,
      "v": 59
    },
    {
      "midi": 60,
      "hit": false,
      "t": 237426.3518750097,
      "d": 161.76462500009802,
      "v": 50
    },
    {
      "midi": 86,
      "hit": false,
      "t": 237461.6459750097,
      "d": 123.52935000008438,
      "v": 75
    },
    {
      "midi": 74,
      "hit": false,
      "t": 237485.17537500974,
      "d": 88.23525000005611,
      "v": 66
    },
    {
      "midi": 84,
      "hit": false,
      "t": 237496.94007500977,
      "d": 99.99995000005583,
      "v": 52
    },
    {
      "midi": 76,
      "hit": false,
      "t": 237511.64595000978,
      "d": 29.4117499999993,
      "v": 35
    },
    {
      "midi": 86,
      "hit": false,
      "t": 237641.05765000984,
      "d": 94.11760000005597,
      "v": 83
    },
    {
      "midi": 65,
      "hit": false,
      "t": 237646.94000000984,
      "d": 67.64702500004205,
      "v": 44
    },
    {
      "midi": 74,
      "hit": false,
      "t": 237646.94000000984,
      "d": 102.94112500007031,
      "v": 61
    },
    {
      "midi": 60,
      "hit": false,
      "t": 237649.88117500985,
      "d": 111.76465000005555,
      "v": 41
    },
    {
      "midi": 84,
      "hit": false,
      "t": 237670.46940000987,
      "d": 26.470575000013923,
      "v": 35
    },
    {
      "midi": 55,
      "hit": false,
      "t": 237811.64580000995,
      "d": 120.58817500004079,
      "v": 30
    },
    {
      "midi": 86,
      "hit": false,
      "t": 237823.41050000995,
      "d": 82.35290000002715,
      "v": 84
    },
    {
      "midi": 74,
      "hit": false,
      "t": 237829.29285000995,
      "d": 70.58820000002743,
      "v": 67
    },
    {
      "midi": 65,
      "hit": false,
      "t": 237841.05755000995,
      "d": 26.470575000013923,
      "v": 26
    },
    {
      "midi": 62,
      "hit": false,
      "t": 237843.99872500997,
      "d": 29.4117499999993,
      "v": 19
    },
    {
      "midi": 86,
      "hit": false,
      "t": 237993.99865001,
      "d": 197.05872500000987,
      "v": 75
    },
    {
      "midi": 74,
      "hit": false,
      "t": 238005.76335001,
      "d": 147.0587499999965,
      "v": 57
    },
    {
      "midi": 82,
      "hit": false,
      "t": 238270.46910001003,
      "d": 188.23520000002463,
      "v": 51
    },
    {
      "midi": 54,
      "hit": false,
      "t": 238276.35145001003,
      "d": 188.23520000002463,
      "v": 31
    },
    {
      "midi": 60,
      "hit": false,
      "t": 238282.23380001003,
      "d": 55.882325000013225,
      "v": 40
    },
    {
      "midi": 62,
      "hit": false,
      "t": 238605.76305001005,
      "d": 91.17642500004149,
      "v": 29
    },
    {
      "midi": 58,
      "hit": false,
      "t": 238623.41010001005,
      "d": 79.41172500004177,
      "v": 31
    },
    {
      "midi": 55,
      "hit": false,
      "t": 238632.23362501006,
      "d": 94.11760000002687,
      "v": 36
    },
    {
      "midi": 53,
      "hit": false,
      "t": 238641.05715001008,
      "d": 47.05879999999888,
      "v": 22
    },
    {
      "midi": 84,
      "hit": false,
      "t": 238988.1158000101,
      "d": 99.99994999999763,
      "v": 127
    },
    {
      "midi": 85,
      "hit": false,
      "t": 239211.6451000101,
      "d": 111.76465000005555,
      "v": 90
    },
    {
      "midi": 61,
      "hit": false,
      "t": 239220.4686250101,
      "d": 41.176450000028126,
      "v": 81
    },
    {
      "midi": 58,
      "hit": false,
      "t": 239223.40980001012,
      "d": 61.764675000013085,
      "v": 74
    },
    {
      "midi": 52,
      "hit": false,
      "t": 239235.17450001012,
      "d": 23.52939999999944,
      "v": 64
    },
    {
      "midi": 87,
      "hit": false,
      "t": 239411.64500001015,
      "d": 97.05877500001225,
      "v": 79
    },
    {
      "midi": 88,
      "hit": false,
      "t": 239576.35080001017,
      "d": 94.11759999999776,
      "v": 89
    },
    {
      "midi": 87,
      "hit": false,
      "t": 239741.05660001017,
      "d": 117.6469999999972,
      "v": 68
    },
    {
      "midi": 63,
      "hit": false,
      "t": 239905.76240001016,
      "d": 44.11762500004261,
      "v": 62
    },
    {
      "midi": 60,
      "hit": false,
      "t": 239908.70357501018,
      "d": 35.294100000028266,
      "v": 62
    },
    {
      "midi": 85,
      "hit": false,
      "t": 239914.58592501018,
      "d": 102.94112500004121,
      "v": 83
    },
    {
      "midi": 53,
      "hit": false,
      "t": 239917.5271000102,
      "d": 44.117625000013504,
      "v": 31
    },
    {
      "midi": 56,
      "hit": false,
      "t": 239923.4094500102,
      "d": 102.94112500004121,
      "v": 43
    },
    {
      "midi": 84,
      "hit": false,
      "t": 240105.76230001025,
      "d": 99.99994999999763,
      "v": 66
    },
    {
      "midi": 82,
      "hit": false,
      "t": 240279.29162501026,
      "d": 91.17642500001239,
      "v": 60
    },
    {
      "midi": 80,
      "hit": false,
      "t": 240438.11507501028,
      "d": 173.52932500001043,
      "v": 37
    },
    {
      "midi": 63,
      "hit": false,
      "t": 240635.1738000103,
      "d": 35.29409999999916,
      "v": 53
    },
    {
      "midi": 79,
      "hit": false,
      "t": 240635.1738000103,
      "d": 58.82350000002771,
      "v": 59
    },
    {
      "midi": 59,
      "hit": false,
      "t": 240646.9385000103,
      "d": 32.352925000013784,
      "v": 48
    },
    {
      "midi": 83,
      "hit": false,
      "t": 240802.82077501033,
      "d": 152.94109999999637,
      "v": 92
    },
    {
      "midi": 82,
      "hit": false,
      "t": 240988.11480001034,
      "d": 120.58817500004079,
      "v": 77
    },
    {
      "midi": 59,
      "hit": false,
      "t": 241014.58537501036,
      "d": 58.82350000002771,
      "v": 58
    },
    {
      "midi": 58,
      "hit": false,
      "t": 241023.40890001037,
      "d": 88.23525000002701,
      "v": 36
    },
    {
      "midi": 54,
      "hit": false,
      "t": 241029.29125001037,
      "d": 29.4117499999993,
      "v": 19
    },
    {
      "midi": 63,
      "hit": false,
      "t": 241352.8205000104,
      "d": 41.17644999999902,
      "v": 37
    },
    {
      "midi": 71,
      "hit": false,
      "t": 241352.8205000104,
      "d": 67.64702500001295,
      "v": 53
    },
    {
      "midi": 74,
      "hit": false,
      "t": 241502.8204250104,
      "d": 152.94109999999637,
      "v": 75
    },
    {
      "midi": 66,
      "hit": false,
      "t": 241682.2321000104,
      "d": 52.94115000002785,
      "v": 67
    },
    {
      "midi": 78,
      "hit": false,
      "t": 241688.1144500104,
      "d": 126.47052500004065,
      "v": 74
    },
    {
      "midi": 61,
      "hit": false,
      "t": 241693.9968000104,
      "d": 35.294100000028266,
      "v": 35
    },
    {
      "midi": 62,
      "hit": false,
      "t": 241702.82032501043,
      "d": 35.294100000028266,
      "v": 53
    },
    {
      "midi": 74,
      "hit": false,
      "t": 241855.76142501045,
      "d": 167.64697500001057,
      "v": 32
    },
    {
      "midi": 69,
      "hit": false,
      "t": 242038.11427501048,
      "d": 38.235275000013644,
      "v": 49
    },
    {
      "midi": 85,
      "hit": false,
      "t": 242170.4671500105,
      "d": 120.58817500001169,
      "v": 86
    },
    {
      "midi": 61,
      "hit": false,
      "t": 242352.8200000105,
      "d": 64.70585000002757,
      "v": 52
    },
    {
      "midi": 50,
      "hit": false,
      "t": 242361.64352501053,
      "d": 73.5293750000128,
      "v": 54
    },
    {
      "midi": 83,
      "hit": false,
      "t": 242385.17292501053,
      "d": 44.117625000013504,
      "v": 31
    },
    {
      "midi": 78,
      "hit": false,
      "t": 242493.99640001054,
      "d": 176.4704999999958,
      "v": 44
    },
    {
      "midi": 74,
      "hit": false,
      "t": 242717.52570001053,
      "d": 67.64702500001295,
      "v": 48
    },
    {
      "midi": 62,
      "hit": false,
      "t": 242741.05510001053,
      "d": 82.35290000002715,
      "v": 42
    },
    {
      "midi": 60,
      "hit": false,
      "t": 242761.64332501055,
      "d": 38.235275000013644,
      "v": 33
    },
    {
      "midi": 77,
      "hit": false,
      "t": 242858.70210001056,
      "d": 264.7057499999937,
      "v": 69
    },
    {
      "midi": 76,
      "hit": false,
      "t": 243076.34905001055,
      "d": 97.05877500001225,
      "v": 55
    },
    {
      "midi": 75,
      "hit": false,
      "t": 243149.87842501057,
      "d": 82.35290000002715,
      "v": 51
    },
    {
      "midi": 74,
      "hit": false,
      "t": 243229.29015001058,
      "d": 176.4705000000249,
      "v": 46
    },
    {
      "midi": 65,
      "hit": false,
      "t": 243443.99592501062,
      "d": 29.411750000028405,
      "v": 37
    },
    {
      "midi": 77,
      "hit": false,
      "t": 243443.99592501062,
      "d": 102.94112500004121,
      "v": 71
    },
    {
      "midi": 62,
      "hit": false,
      "t": 243458.70180001063,
      "d": 29.411750000028405,
      "v": 27
    },
    {
      "midi": 63,
      "hit": false,
      "t": 244120.46617501066,
      "d": 41.176450000028126,
      "v": 62
    },
    {
      "midi": 60,
      "hit": false,
      "t": 244132.23087501066,
      "d": 26.470575000013923,
      "v": 58
    },
    {
      "midi": 74,
      "hit": false,
      "t": 244246.9367000107,
      "d": 144.11757500001113,
      "v": 118
    },
    {
      "midi": 81,
      "hit": false,
      "t": 244252.8190500107,
      "d": 244.11752500003786,
      "v": 91
    },
    {
      "midi": 75,
      "hit": false,
      "t": 244423.40720001073,
      "d": 135.2940500000259,
      "v": 56
    },
    {
      "midi": 74,
      "hit": false,
      "t": 244493.99540001072,
      "d": 120.58817500004079,
      "v": 58
    },
    {
      "midi": 72,
      "hit": false,
      "t": 244629.28945001078,
      "d": 152.94109999999637,
      "v": 47
    },
    {
      "midi": 70,
      "hit": false,
      "t": 244832.2305250108,
      "d": 123.52935000005527,
      "v": 69
    },
    {
      "midi": 60,
      "hit": false,
      "t": 244841.0540500108,
      "d": 29.411750000028405,
      "v": 62
    },
    {
      "midi": 62,
      "hit": false,
      "t": 244843.99522501082,
      "d": 29.411750000028405,
      "v": 67
    },
    {
      "midi": 69,
      "hit": false,
      "t": 245011.64220001086,
      "d": 141.17639999999665,
      "v": 31
    },
    {
      "midi": 72,
      "hit": false,
      "t": 245196.93622501087,
      "d": 108.82347500004107,
      "v": 64
    },
    {
      "midi": 50,
      "hit": false,
      "t": 245202.81857501087,
      "d": 70.58820000002743,
      "v": 50
    },
    {
      "midi": 43,
      "hit": false,
      "t": 245217.52445001088,
      "d": 29.4117499999993,
      "v": 48
    },
    {
      "midi": 70,
      "hit": false,
      "t": 245355.75967501092,
      "d": 211.76459999999497,
      "v": 42
    },
    {
      "midi": 62,
      "hit": false,
      "t": 245573.40662501092,
      "d": 58.8234999999986,
      "v": 38
    },
    {
      "midi": 69,
      "hit": false,
      "t": 245691.0536250109,
      "d": 214.70577500000945,
      "v": 87
    },
    {
      "midi": 62,
      "hit": false,
      "t": 245923.40645001092,
      "d": 26.470575000013923,
      "v": 68
    },
    {
      "midi": 57,
      "hit": false,
      "t": 245929.28880001092,
      "d": 32.35292500004289,
      "v": 54
    },
    {
      "midi": 58,
      "hit": false,
      "t": 245929.28880001092,
      "d": 58.82350000005681,
      "v": 46
    },
    {
      "midi": 65,
      "hit": false,
      "t": 245935.17115001092,
      "d": 35.29410000005737,
      "v": 37
    },
    {
      "midi": 55,
      "hit": false,
      "t": 245952.81820001095,
      "d": 29.411750000028405,
      "v": 37
    },
    {
      "midi": 67,
      "hit": false,
      "t": 246041.05345001098,
      "d": 199.99989999999525,
      "v": 73
    },
    {
      "midi": 69,
      "hit": false,
      "t": 246279.288625011,
      "d": 58.8234999999986,
      "v": 59
    },
    {
      "midi": 70,
      "hit": false,
      "t": 246396.93562501098,
      "d": 170.58814999999595,
      "v": 75
    },
    {
      "midi": 72,
      "hit": false,
      "t": 246626.34727501098,
      "d": 91.17642500004149,
      "v": 71
    },
    {
      "midi": 62,
      "hit": false,
      "t": 246632.22962501098,
      "d": 29.411750000028405,
      "v": 63
    },
    {
      "midi": 58,
      "hit": false,
      "t": 246655.75902501098,
      "d": 61.76467500004219,
      "v": 33
    },
    {
      "midi": 57,
      "hit": false,
      "t": 246658.700200011,
      "d": 35.294100000028266,
      "v": 30
    },
    {
      "midi": 55,
      "hit": false,
      "t": 246673.406075011,
      "d": 38.235275000013644,
      "v": 27
    },
    {
      "midi": 70,
      "hit": false,
      "t": 246764.58250001102,
      "d": 205.8822499999951,
      "v": 48
    },
    {
      "midi": 63,
      "hit": false,
      "t": 247085.17057501103,
      "d": 161.7646250000107,
      "v": 57
    },
    {
      "midi": 60,
      "hit": false,
      "t": 247096.93527501103,
      "d": 355.8821750000352,
      "v": 49
    },
    {
      "midi": 69,
      "hit": false,
      "t": 247102.81762501103,
      "d": 185.29402500001015,
      "v": 89
    },
    {
      "midi": 55,
      "hit": false,
      "t": 247105.75880001104,
      "d": 299.999850000022,
      "v": 46
    },
    {
      "midi": 57,
      "hit": false,
      "t": 247117.52350001104,
      "d": 226.47047500000917,
      "v": 36
    },
    {
      "midi": 70,
      "hit": false,
      "t": 247305.75870001104,
      "d": 111.76465000002645,
      "v": 48
    },
    {
      "midi": 69,
      "hit": false,
      "t": 247376.34690001106,
      "d": 138.23522500001127,
      "v": 52
    },
    {
      "midi": 67,
      "hit": false,
      "t": 247476.34685001106,
      "d": 223.5293000000529,
      "v": 39
    },
    {
      "midi": 66,
      "hit": false,
      "t": 247667.52322501107,
      "d": 126.47052500004065,
      "v": 71
    },
    {
      "midi": 62,
      "hit": false,
      "t": 247676.3467500111,
      "d": 47.058800000027986,
      "v": 67
    },
    {
      "midi": 60,
      "hit": false,
      "t": 247682.22910001109,
      "d": 29.411750000028405,
      "v": 59
    },
    {
      "midi": 54,
      "hit": false,
      "t": 247696.9349750111,
      "d": 61.764675000013085,
      "v": 30
    },
    {
      "midi": 69,
      "hit": false,
      "t": 247838.11137501113,
      "d": 141.17639999999665,
      "v": 69
    },
    {
      "midi": 63,
      "hit": false,
      "t": 248008.69952501112,
      "d": 111.76464999999735,
      "v": 68
    },
    {
      "midi": 62,
      "hit": false,
      "t": 248167.52297501112,
      "d": 194.1175499999954,
      "v": 51
    },
    {
      "midi": 60,
      "hit": false,
      "t": 248364.58170001113,
      "d": 99.99995000005583,
      "v": 71
    },
    {
      "midi": 50,
      "hit": false,
      "t": 248367.52287501114,
      "d": 58.82350000002771,
      "v": 70
    },
    {
      "midi": 43,
      "hit": false,
      "t": 248379.28757501114,
      "d": 32.352925000013784,
      "v": 60
    },
    {
      "midi": 58,
      "hit": false,
      "t": 248543.9933750112,
      "d": 261.76457500003744,
      "v": 30
    },
    {
      "midi": 57,
      "hit": false,
      "t": 248758.6991500112,
      "d": 44.117625000013504,
      "v": 32
    },
    {
      "midi": 60,
      "hit": false,
      "t": 248849.87557501125,
      "d": 229.41164999999455,
      "v": 66
    },
    {
      "midi": 57,
      "hit": false,
      "t": 249102.81662501124,
      "d": 64.70585000002757,
      "v": 40
    },
    {
      "midi": 50,
      "hit": false,
      "t": 249126.34602501124,
      "d": 26.470575000013923,
      "v": 27
    },
    {
      "midi": 58,
      "hit": false,
      "t": 249211.64010001128,
      "d": 323.5292499999923,
      "v": 37
    },
    {
      "midi": 55,
      "hit": false,
      "t": 249541.05170001127,
      "d": 176.4704999999958,
      "v": 90
    },
    {
      "midi": 67,
      "hit": false,
      "t": 250229.28665001126,
      "d": 61.76467500004219,
      "v": 57
    },
    {
      "midi": 62,
      "hit": false,
      "t": 250235.16900001126,
      "d": 70.58820000005653,
      "v": 51
    },
    {
      "midi": 63,
      "hit": false,
      "t": 250243.99252501127,
      "d": 85.29407500004163,
      "v": 34
    },
    {
      "midi": 58,
      "hit": false,
      "t": 250246.9337000113,
      "d": 105.88230000002659,
      "v": 34
    },
    {
      "midi": 66,
      "hit": false,
      "t": 250588.1100000113,
      "d": 194.1175500000536,
      "v": 60
    },
    {
      "midi": 63,
      "hit": false,
      "t": 250596.93352501132,
      "d": 123.52935000002617,
      "v": 38
    },
    {
      "midi": 61,
      "hit": false,
      "t": 250599.87470001134,
      "d": 138.23522500001127,
      "v": 42
    },
    {
      "midi": 57,
      "hit": false,
      "t": 250608.69822501135,
      "d": 158.82344999999623,
      "v": 43
    },
    {
      "midi": 77,
      "hit": false,
      "t": 250955.75687501137,
      "d": 99.99994999999763,
      "v": 82
    },
    {
      "midi": 80,
      "hit": false,
      "t": 251199.87440001138,
      "d": 105.8823000000848,
      "v": 73
    },
    {
      "midi": 65,
      "hit": false,
      "t": 251202.8155750114,
      "d": 23.529400000028545,
      "v": 71
    },
    {
      "midi": 68,
      "hit": false,
      "t": 251202.8155750114,
      "d": 85.29407500007073,
      "v": 92
    },
    {
      "midi": 62,
      "hit": false,
      "t": 251208.6979250114,
      "d": 26.470575000043027,
      "v": 67
    },
    {
      "midi": 60,
      "hit": false,
      "t": 251211.6391000114,
      "d": 26.470575000043027,
      "v": 66
    },
    {
      "midi": 74,
      "hit": false,
      "t": 251211.6391000114,
      "d": 26.470575000043027,
      "v": 71
    },
    {
      "midi": 81,
      "hit": false,
      "t": 251273.40377501145,
      "d": 70.58820000002743,
      "v": 22
    },
    {
      "midi": 69,
      "hit": false,
      "t": 251288.10965001147,
      "d": 99.99995000002673,
      "v": 61
    },
    {
      "midi": 81,
      "hit": false,
      "t": 251438.1095750115,
      "d": 47.05879999999888,
      "v": 24
    },
    {
      "midi": 77,
      "hit": false,
      "t": 251443.9919250115,
      "d": 102.94112500001211,
      "v": 40
    },
    {
      "midi": 74,
      "hit": false,
      "t": 251491.0507250115,
      "d": 132.3528750000114,
      "v": 38
    },
    {
      "midi": 81,
      "hit": false,
      "t": 251526.3448250115,
      "d": 67.64702500001295,
      "v": 27
    },
    {
      "midi": 69,
      "hit": false,
      "t": 251529.28600001152,
      "d": 58.8234999999986,
      "v": 59
    },
    {
      "midi": 77,
      "hit": false,
      "t": 251664.58005001151,
      "d": 270.5881000000227,
      "v": 55
    },
    {
      "midi": 65,
      "hit": false,
      "t": 251667.52122501153,
      "d": 223.5292999999947,
      "v": 53
    },
    {
      "midi": 77,
      "hit": false,
      "t": 252005.75635001154,
      "d": 179.4116750000103,
      "v": 62
    },
    {
      "midi": 65,
      "hit": false,
      "t": 252014.57987501155,
      "d": 117.6469999999972,
      "v": 51
    },
    {
      "midi": 62,
      "hit": false,
      "t": 252361.63852501154,
      "d": 102.94112500007031,
      "v": 41
    },
    {
      "midi": 60,
      "hit": false,
      "t": 252364.57970001156,
      "d": 102.94112500007031,
      "v": 49
    },
    {
      "midi": 65,
      "hit": false,
      "t": 252367.52087501157,
      "d": 58.82350000002771,
      "v": 32
    },
    {
      "midi": 55,
      "hit": false,
      "t": 252370.46205001159,
      "d": 152.94110000005458,
      "v": 42
    },
    {
      "midi": 82,
      "hit": false,
      "t": 252741.05010001163,
      "d": 244.11752500003786,
      "v": 80
    },
    {
      "midi": 58,
      "hit": false,
      "t": 252741.05010001163,
      "d": 297.0586750000657,
      "v": 69
    },
    {
      "midi": 74,
      "hit": false,
      "t": 252743.99127501165,
      "d": 235.29400000002352,
      "v": 92
    },
    {
      "midi": 65,
      "hit": false,
      "t": 252743.99127501165,
      "d": 270.5881000000227,
      "v": 80
    },
    {
      "midi": 86,
      "hit": false,
      "t": 252746.93245001166,
      "d": 188.23519999999553,
      "v": 96
    },
    {
      "midi": 60,
      "hit": false,
      "t": 252746.93245001166,
      "d": 276.47045000002254,
      "v": 75
    },
    {
      "midi": 54,
      "hit": false,
      "t": 252746.93245001166,
      "d": 282.3528000000224,
      "v": 74
    },
    {
      "midi": 54,
      "hit": false,
      "t": 253093.9911000117,
      "d": 214.70577500006766,
      "v": 48
    },
    {
      "midi": 65,
      "hit": false,
      "t": 253096.93227501173,
      "d": 182.35284999999567,
      "v": 40
    },
    {
      "midi": 68,
      "hit": false,
      "t": 253102.81462501173,
      "d": 182.35285000002477,
      "v": 46
    },
    {
      "midi": 80,
      "hit": false,
      "t": 253102.81462501173,
      "d": 185.29402500003926,
      "v": 38
    },
    {
      "midi": 60,
      "hit": false,
      "t": 253108.69697501173,
      "d": 173.52932500001043,
      "v": 43
    },
    {
      "midi": 58,
      "hit": false,
      "t": 253108.69697501173,
      "d": 205.88225000005332,
      "v": 52
    },
    {
      "midi": 80,
      "hit": false,
      "t": 253343.99097501178,
      "d": 64.70585000002757,
      "v": 43
    },
    {
      "midi": 68,
      "hit": false,
      "t": 253349.87332501178,
      "d": 38.235275000013644,
      "v": 37
    },
    {
      "midi": 65,
      "hit": false,
      "t": 253349.87332501178,
      "d": 64.70585000002757,
      "v": 49
    },
    {
      "midi": 54,
      "hit": false,
      "t": 253352.8145000118,
      "d": 117.64700000002631,
      "v": 25
    },
    {
      "midi": 60,
      "hit": false,
      "t": 253364.5792000118,
      "d": 38.235275000013644,
      "v": 46
    },
    {
      "midi": 58,
      "hit": false,
      "t": 253364.5792000118,
      "d": 94.11760000002687,
      "v": 25
    },
    {
      "midi": 55,
      "hit": false,
      "t": 254120.46117501185,
      "d": 320.58807500009425,
      "v": 89
    },
    {
      "midi": 60,
      "hit": false,
      "t": 254120.46117501185,
      "d": 332.3527750001231,
      "v": 81
    },
    {
      "midi": 56,
      "hit": false,
      "t": 254120.46117501185,
      "d": 341.1763000001374,
      "v": 64
    },
    {
      "midi": 92,
      "hit": false,
      "t": 254123.40235001186,
      "d": 282.3528000000515,
      "v": 82
    },
    {
      "midi": 65,
      "hit": false,
      "t": 254123.40235001186,
      "d": 320.58807500009425,
      "v": 83
    },
    {
      "midi": 96,
      "hit": false,
      "t": 254126.34352501188,
      "d": 226.47047500003828,
      "v": 94
    },
    {
      "midi": 84,
      "hit": false,
      "t": 254126.34352501188,
      "d": 267.6469250000373,
      "v": 89
    },
    {
      "midi": 89,
      "hit": false,
      "t": 254129.2847000119,
      "d": 279.411625000037,
      "v": 77
    },
    {
      "midi": 86,
      "hit": false,
      "t": 254146.9317500119,
      "d": 26.470575000013923,
      "v": 55
    },
    {
      "midi": 92,
      "hit": false,
      "t": 254502.81392501201,
      "d": 176.47050000011222,
      "v": 64
    },
    {
      "midi": 65,
      "hit": false,
      "t": 254505.75510001203,
      "d": 170.58815000008326,
      "v": 54
    },
    {
      "midi": 80,
      "hit": false,
      "t": 254508.69627501204,
      "d": 164.7058000000543,
      "v": 46
    },
    {
      "midi": 55,
      "hit": false,
      "t": 254511.63745001206,
      "d": 155.88227500003995,
      "v": 53
    },
    {
      "midi": 56,
      "hit": false,
      "t": 254520.46097501207,
      "d": 176.47050000005402,
      "v": 27
    },
    {
      "midi": 60,
      "hit": false,
      "t": 254523.4021500121,
      "d": 167.64697500003967,
      "v": 60
    },
    {
      "midi": 92,
      "hit": false,
      "t": 254755.75497501213,
      "d": 32.35292500004289,
      "v": 42
    },
    {
      "midi": 65,
      "hit": false,
      "t": 254764.57850001214,
      "d": 117.64700000002631,
      "v": 53
    },
    {
      "midi": 56,
      "hit": false,
      "t": 254770.46085001214,
      "d": 149.9999250000401,
      "v": 32
    },
    {
      "midi": 60,
      "hit": false,
      "t": 254773.40202501215,
      "d": 85.29407500001253,
      "v": 44
    },
    {
      "midi": 87,
      "hit": false,
      "t": 254779.28437501215,
      "d": 26.470575000013923,
      "v": 35
    },
    {
      "midi": 55,
      "hit": false,
      "t": 254785.16672501215,
      "d": 49.999975000013364,
      "v": 32
    },
    {
      "midi": 65,
      "hit": false,
      "t": 255082.2254000122,
      "d": 55.88232500004233,
      "v": 67
    },
    {
      "midi": 79,
      "hit": false,
      "t": 255093.9901000122,
      "d": 29.411750000028405,
      "v": 61
    },
    {
      "midi": 91,
      "hit": false,
      "t": 255093.9901000122,
      "d": 29.411750000028405,
      "v": 62
    },
    {
      "midi": 60,
      "hit": false,
      "t": 255096.9312750122,
      "d": 41.176450000028126,
      "v": 57
    },
    {
      "midi": 56,
      "hit": false,
      "t": 255096.9312750122,
      "d": 111.76465000002645,
      "v": 32
    },
    {
      "midi": 55,
      "hit": false,
      "t": 255117.51950001222,
      "d": 32.352925000013784,
      "v": 29
    },
    {
      "midi": 59,
      "hit": false,
      "t": 255773.40152501222,
      "d": 167.64697500006878,
      "v": 80
    },
    {
      "midi": 64,
      "hit": false,
      "t": 255779.28387501222,
      "d": 185.29402500006836,
      "v": 87
    },
    {
      "midi": 53,
      "hit": false,
      "t": 255782.22505001223,
      "d": 144.11757500004023,
      "v": 87
    },
    {
      "midi": 86,
      "hit": false,
      "t": 255782.22505001223,
      "d": 232.35282500006724,
      "v": 99
    },
    {
      "midi": 91,
      "hit": false,
      "t": 255782.22505001223,
      "d": 241.17635000008158,
      "v": 88
    },
    {
      "midi": 79,
      "hit": false,
      "t": 255785.16622501225,
      "d": 220.58812500003842,
      "v": 91
    },
    {
      "midi": 65,
      "hit": false,
      "t": 256249.87187501232,
      "d": 144.11757500004023,
      "v": 90
    },
    {
      "midi": 55,
      "hit": false,
      "t": 256249.87187501232,
      "d": 161.76462500006892,
      "v": 89
    },
    {
      "midi": 85,
      "hit": false,
      "t": 256249.87187501232,
      "d": 161.76462500006892,
      "v": 87
    },
    {
      "midi": 61,
      "hit": false,
      "t": 256249.87187501232,
      "d": 182.35285000008298,
      "v": 83
    },
    {
      "midi": 81,
      "hit": false,
      "t": 256255.75422501232,
      "d": 147.05875000005472,
      "v": 85
    },
    {
      "midi": 89,
      "hit": false,
      "t": 256258.69540001234,
      "d": 141.17640000002575,
      "v": 57
    },
    {
      "midi": 93,
      "hit": false,
      "t": 256258.69540001234,
      "d": 170.58815000005416,
      "v": 74
    },
    {
      "midi": 91,
      "hit": false,
      "t": 256264.57775001234,
      "d": 141.17640000005485,
      "v": 65
    },
    {
      "midi": 88,
      "hit": false,
      "t": 256273.40127501235,
      "d": 26.470575000013923,
      "v": 57
    },
    {
      "midi": 54,
      "hit": false,
      "t": 256599.87170001242,
      "d": 152.94110000008368,
      "v": 71
    },
    {
      "midi": 64,
      "hit": false,
      "t": 256605.75405001242,
      "d": 108.82347500007018,
      "v": 70
    },
    {
      "midi": 59,
      "hit": false,
      "t": 256605.75405001242,
      "d": 111.76465000008466,
      "v": 73
    },
    {
      "midi": 95,
      "hit": false,
      "t": 256605.75405001242,
      "d": 129.41170000008424,
      "v": 76
    },
    {
      "midi": 83,
      "hit": false,
      "t": 256608.69522501243,
      "d": 99.99995000002673,
      "v": 74
    },
    {
      "midi": 88,
      "hit": false,
      "t": 256611.63640001244,
      "d": 99.99995000002673,
      "v": 78
    },
    {
      "midi": 62,
      "hit": false,
      "t": 256632.22462501246,
      "d": 29.4117499999993,
      "v": 32
    },
    {
      "midi": 62,
      "hit": false,
      "t": 256949.8715250125,
      "d": 494.1174000000465,
      "v": 74
    },
    {
      "midi": 51,
      "hit": false,
      "t": 256949.8715250125,
      "d": 526.4703250000603,
      "v": 64
    },
    {
      "midi": 57,
      "hit": false,
      "t": 256955.7538750125,
      "d": 499.99975000004633,
      "v": 68
    },
    {
      "midi": 98,
      "hit": false,
      "t": 256958.69505001252,
      "d": 458.8232999999891,
      "v": 80
    },
    {
      "midi": 86,
      "hit": false,
      "t": 256958.69505001252,
      "d": 476.4703500000178,
      "v": 81
    },
    {
      "midi": 91,
      "hit": false,
      "t": 256958.69505001252,
      "d": 485.29387500003213,
      "v": 69
    },
    {
      "midi": 94,
      "hit": false,
      "t": 256964.57740001252,
      "d": 467.64682500000345,
      "v": 56
    },
    {
      "midi": 62,
      "hit": false,
      "t": 257541.04770001257,
      "d": 76.4705500000855,
      "v": 62
    },
    {
      "midi": 51,
      "hit": false,
      "t": 257541.04770001257,
      "d": 88.23525000011432,
      "v": 47
    },
    {
      "midi": 96,
      "hit": false,
      "t": 257561.63592501258,
      "d": 64.70585000008577,
      "v": 65
    },
    {
      "midi": 91,
      "hit": false,
      "t": 257564.5771000126,
      "d": 49.99997500004247,
      "v": 54
    },
    {
      "midi": 94,
      "hit": false,
      "t": 257564.5771000126,
      "d": 82.35290000008536,
      "v": 52
    },
    {
      "midi": 84,
      "hit": false,
      "t": 257567.5182750126,
      "d": 29.411750000028405,
      "v": 44
    },
    {
      "midi": 57,
      "hit": false,
      "t": 257570.45945001263,
      "d": 32.352925000013784,
      "v": 48
    },
    {
      "midi": 87,
      "hit": false,
      "t": 257773.4005250127,
      "d": 61.76467500007129,
      "v": 70
    },
    {
      "midi": 99,
      "hit": false,
      "t": 257773.4005250127,
      "d": 99.99995000008494,
      "v": 71
    },
    {
      "midi": 63,
      "hit": false,
      "t": 257776.3417000127,
      "d": 88.23525000005611,
      "v": 69
    },
    {
      "midi": 58,
      "hit": false,
      "t": 257779.28287501272,
      "d": 111.76465000005555,
      "v": 64
    },
    {
      "midi": 94,
      "hit": false,
      "t": 257782.22405001274,
      "d": 76.47055000002729,
      "v": 61
    },
    {
      "midi": 52,
      "hit": false,
      "t": 257785.16522501275,
      "d": 82.35290000002715,
      "v": 63
    },
    {
      "midi": 63,
      "hit": false,
      "t": 258011.6357000128,
      "d": 185.29402500006836,
      "v": 60
    },
    {
      "midi": 58,
      "hit": false,
      "t": 258014.5768750128,
      "d": 211.76460000005318,
      "v": 55
    },
    {
      "midi": 52,
      "hit": false,
      "t": 258023.40040001282,
      "d": 155.88227500001085,
      "v": 57
    },
    {
      "midi": 99,
      "hit": false,
      "t": 258029.28275001282,
      "d": 158.82345000002533,
      "v": 74
    },
    {
      "midi": 94,
      "hit": false,
      "t": 258035.16510001282,
      "d": 129.41169999999693,
      "v": 69
    },
    {
      "midi": 87,
      "hit": false,
      "t": 258035.16510001282,
      "d": 167.64697500003967,
      "v": 68
    },
    {
      "midi": 63,
      "hit": false,
      "t": 258276.34145001287,
      "d": 73.52937500004191,
      "v": 68
    },
    {
      "midi": 96,
      "hit": false,
      "t": 258282.22380001287,
      "d": 23.529400000028545,
      "v": 70
    },
    {
      "midi": 53,
      "hit": false,
      "t": 258282.22380001287,
      "d": 117.64700000008452,
      "v": 58
    },
    {
      "midi": 60,
      "hit": false,
      "t": 258291.04732501289,
      "d": 73.52937500004191,
      "v": 66
    },
    {
      "midi": 84,
      "hit": false,
      "t": 258296.92967501289,
      "d": 26.470575000013923,
      "v": 35
    },
    {
      "midi": 56,
      "hit": false,
      "t": 258299.8708500129,
      "d": 97.05877500004135,
      "v": 46
    },
    {
      "midi": 85,
      "hit": false,
      "t": 259088.10575001297,
      "d": 91.1764250000997,
      "v": 86
    },
    {
      "midi": 73,
      "hit": false,
      "t": 259091.04692501298,
      "d": 76.47055000005639,
      "v": 84
    },
    {
      "midi": 66,
      "hit": false,
      "t": 259093.988100013,
      "d": 220.58812500006752,
      "v": 80
    },
    {
      "midi": 56,
      "hit": false,
      "t": 259093.988100013,
      "d": 247.05870000008144,
      "v": 77
    },
    {
      "midi": 62,
      "hit": false,
      "t": 259093.988100013,
      "d": 282.3528000001097,
      "v": 80
    },
    {
      "midi": 82,
      "hit": false,
      "t": 259102.811625013,
      "d": 270.5881000000809,
      "v": 55
    },
    {
      "midi": 79,
      "hit": false,
      "t": 259120.458675013,
      "d": 29.4117499999993,
      "v": 29
    },
    {
      "midi": 86,
      "hit": false,
      "t": 259158.69395001302,
      "d": 167.64697500003967,
      "v": 72
    },
    {
      "midi": 74,
      "hit": false,
      "t": 259170.45865001305,
      "d": 149.999925000011,
      "v": 75
    },
    {
      "midi": 84,
      "hit": false,
      "t": 259196.92922501307,
      "d": 152.94110000002547,
      "v": 29
    },
    {
      "midi": 79,
      "hit": false,
      "t": 259202.81157501307,
      "d": 144.11757500001113,
      "v": 31
    },
    {
      "midi": 85,
      "hit": false,
      "t": 259435.1644000131,
      "d": 88.23525000011432,
      "v": 75
    },
    {
      "midi": 73,
      "hit": false,
      "t": 259438.10557501312,
      "d": 99.99995000011404,
      "v": 72
    },
    {
      "midi": 66,
      "hit": false,
      "t": 259441.04675001313,
      "d": 267.6469250001246,
      "v": 77
    },
    {
      "midi": 56,
      "hit": false,
      "t": 259443.98792501315,
      "d": 270.58810000011,
      "v": 71
    },
    {
      "midi": 82,
      "hit": false,
      "t": 259446.92910001316,
      "d": 255.8822250000958,
      "v": 40
    },
    {
      "midi": 62,
      "hit": false,
      "t": 259449.87027501318,
      "d": 276.47045000008075,
      "v": 74
    },
    {
      "midi": 79,
      "hit": false,
      "t": 259452.8114500132,
      "d": 238.2351750000671,
      "v": 61
    },
    {
      "midi": 86,
      "hit": false,
      "t": 259514.5761250132,
      "d": 132.3528750000405,
      "v": 66
    },
    {
      "midi": 74,
      "hit": false,
      "t": 259538.10552501323,
      "d": 117.64700000002631,
      "v": 74
    },
    {
      "midi": 84,
      "hit": false,
      "t": 259555.75257501323,
      "d": 99.99995000002673,
      "v": 22
    },
    {
      "midi": 65,
      "hit": false,
      "t": 259791.04657501326,
      "d": 205.88225000002421,
      "v": 60
    },
    {
      "midi": 82,
      "hit": false,
      "t": 259793.98775001327,
      "d": 220.5881250000093,
      "v": 57
    },
    {
      "midi": 70,
      "hit": false,
      "t": 259793.98775001327,
      "d": 223.5293000000238,
      "v": 62
    },
    {
      "midi": 62,
      "hit": false,
      "t": 259799.87010001327,
      "d": 202.94107500000973,
      "v": 40
    },
    {
      "midi": 60,
      "hit": false,
      "t": 259805.75245001327,
      "d": 179.4116750000103,
      "v": 53
    },
    {
      "midi": 55,
      "hit": false,
      "t": 259817.51715001327,
      "d": 208.8234250000387,
      "v": 62
    },
    {
      "midi": 65,
      "hit": false,
      "t": 260508.6932750133,
      "d": 185.29402500003926,
      "v": 37
    },
    {
      "midi": 60,
      "hit": false,
      "t": 260517.5168000133,
      "d": 123.52934999999707,
      "v": 49
    },
    {
      "midi": 58,
      "hit": false,
      "t": 260517.5168000133,
      "d": 155.88227500001085,
      "v": 33
    },
    {
      "midi": 54,
      "hit": false,
      "t": 260517.5168000133,
      "d": 205.88225000002421,
      "v": 34
    },
    {
      "midi": 55,
      "hit": false,
      "t": 261193.98705001333,
      "d": 264.7057500000519,
      "v": 74
    },
    {
      "midi": 85,
      "hit": false,
      "t": 261196.92822501334,
      "d": 102.94112500001211,
      "v": 84
    },
    {
      "midi": 73,
      "hit": false,
      "t": 261199.86940001335,
      "d": 117.6469999999972,
      "v": 79
    },
    {
      "midi": 53,
      "hit": false,
      "t": 261199.86940001335,
      "d": 258.82340000002296,
      "v": 66
    },
    {
      "midi": 62,
      "hit": false,
      "t": 261205.75175001335,
      "d": 238.2351750000089,
      "v": 61
    },
    {
      "midi": 58,
      "hit": false,
      "t": 261211.63410001335,
      "d": 152.94109999999637,
      "v": 48
    },
    {
      "midi": 86,
      "hit": false,
      "t": 261317.51640001335,
      "d": 102.94112500001211,
      "v": 73
    },
    {
      "midi": 74,
      "hit": false,
      "t": 261323.39875001335,
      "d": 94.11759999999776,
      "v": 69
    },
    {
      "midi": 84,
      "hit": false,
      "t": 261346.92815001335,
      "d": 41.17644999999902,
      "v": 36
    },
    {
      "midi": 85,
      "hit": false,
      "t": 261535.16335001338,
      "d": 102.94112500007031,
      "v": 74
    },
    {
      "midi": 73,
      "hit": false,
      "t": 261538.1045250134,
      "d": 111.76465000005555,
      "v": 62
    },
    {
      "midi": 53,
      "hit": false,
      "t": 261541.0457000134,
      "d": 194.1175500000827,
      "v": 54
    },
    {
      "midi": 55,
      "hit": false,
      "t": 261543.98687501342,
      "d": 176.47050000005402,
      "v": 59
    },
    {
      "midi": 62,
      "hit": false,
      "t": 261546.92805001343,
      "d": 185.29402500003926,
      "v": 68
    },
    {
      "midi": 58,
      "hit": false,
      "t": 261552.81040001343,
      "d": 282.3528000000806,
      "v": 51
    },
    {
      "midi": 74,
      "hit": false,
      "t": 261664.57505001346,
      "d": 99.99995000005583,
      "v": 53
    },
    {
      "midi": 86,
      "hit": false,
      "t": 261670.45740001346,
      "d": 67.64702500004205,
      "v": 38
    },
    {
      "midi": 61,
      "hit": false,
      "t": 261914.57492501353,
      "d": 191.17637500003912,
      "v": 61
    },
    {
      "midi": 58,
      "hit": false,
      "t": 261917.51610001354,
      "d": 238.2351750000089,
      "v": 52
    },
    {
      "midi": 82,
      "hit": false,
      "t": 261923.39845001354,
      "d": 179.4116750000103,
      "v": 71
    },
    {
      "midi": 52,
      "hit": false,
      "t": 261926.33962501356,
      "d": 226.47047500000917,
      "v": 50
    },
    {
      "midi": 70,
      "hit": false,
      "t": 261926.33962501356,
      "d": 229.41164999999455,
      "v": 69
    },
    {
      "midi": 52,
      "hit": false,
      "t": 262252.81005001353,
      "d": 144.11757500004023,
      "v": 44
    },
    {
      "midi": 79,
      "hit": false,
      "t": 262255.7512250135,
      "d": 141.17640000005485,
      "v": 64
    },
    {
      "midi": 61,
      "hit": false,
      "t": 262255.7512250135,
      "d": 205.88225000008242,
      "v": 50
    },
    {
      "midi": 67,
      "hit": false,
      "t": 262261.63357501355,
      "d": 129.41169999999693,
      "v": 63
    },
    {
      "midi": 58,
      "hit": false,
      "t": 262264.57475001353,
      "d": 173.52932500006864,
      "v": 45
    },
    {
      "midi": 53,
      "hit": false,
      "t": 262602.8098750136,
      "d": 249.99987500015413,
      "v": 49
    },
    {
      "midi": 63,
      "hit": false,
      "t": 262605.7510500136,
      "d": 214.70577500009676,
      "v": 56
    },
    {
      "midi": 82,
      "hit": false,
      "t": 262605.7510500136,
      "d": 220.58812500012573,
      "v": 73
    },
    {
      "midi": 70,
      "hit": false,
      "t": 262605.7510500136,
      "d": 261.76457500015385,
      "v": 72
    },
    {
      "midi": 60,
      "hit": false,
      "t": 262611.6334000136,
      "d": 223.5293000001111,
      "v": 57
    },
    {
      "midi": 75,
      "hit": false,
      "t": 262629.28045001364,
      "d": 29.411750000028405,
      "v": 34
    },
    {
      "midi": 56,
      "hit": false,
      "t": 262629.28045001364,
      "d": 197.05872500006808,
      "v": 36
    },
    {
      "midi": 63,
      "hit": false,
      "t": 262929.2803000137,
      "d": 202.94107500009704,
      "v": 45
    },
    {
      "midi": 53,
      "hit": false,
      "t": 262932.2214750137,
      "d": 108.82347500009928,
      "v": 17
    },
    {
      "midi": 60,
      "hit": false,
      "t": 262941.0450000137,
      "d": 91.1764250000706,
      "v": 46
    },
    {
      "midi": 80,
      "hit": false,
      "t": 262943.9861750137,
      "d": 111.76465000008466,
      "v": 48
    },
    {
      "midi": 68,
      "hit": false,
      "t": 262949.86852501374,
      "d": 94.11760000005597,
      "v": 43
    },
    {
      "midi": 56,
      "hit": false,
      "t": 262958.69205001375,
      "d": 102.94112500007031,
      "v": 30
    },
    {
      "midi": 75,
      "hit": false,
      "t": 262967.51557501376,
      "d": 79.41172500001267,
      "v": 34
    },
    {
      "midi": 63,
      "hit": false,
      "t": 263288.1036500138,
      "d": 226.47047500003828,
      "v": 57
    },
    {
      "midi": 54,
      "hit": false,
      "t": 263291.0448250138,
      "d": 238.235175000038,
      "v": 46
    },
    {
      "midi": 83,
      "hit": false,
      "t": 263296.9271750138,
      "d": 179.4116750000394,
      "v": 68
    },
    {
      "midi": 59,
      "hit": false,
      "t": 263302.80952501384,
      "d": 185.29402500001015,
      "v": 54
    },
    {
      "midi": 75,
      "hit": false,
      "t": 263302.80952501384,
      "d": 258.82339999999385,
      "v": 57
    },
    {
      "midi": 71,
      "hit": false,
      "t": 263305.7507000138,
      "d": 211.76459999999497,
      "v": 64
    },
    {
      "midi": 58,
      "hit": false,
      "t": 263311.63305001386,
      "d": 238.2351749999798,
      "v": 43
    },
    {
      "midi": 54,
      "hit": false,
      "t": 263643.98582501383,
      "d": 82.35290000005625,
      "v": 46
    },
    {
      "midi": 63,
      "hit": false,
      "t": 263646.9270000138,
      "d": 73.52937500004191,
      "v": 46
    },
    {
      "midi": 70,
      "hit": false,
      "t": 263652.80935001385,
      "d": 58.8234999999986,
      "v": 59
    },
    {
      "midi": 75,
      "hit": false,
      "t": 263652.80935001385,
      "d": 82.35290000005625,
      "v": 51
    },
    {
      "midi": 82,
      "hit": false,
      "t": 263658.6917000139,
      "d": 88.23525000002701,
      "v": 37
    },
    {
      "midi": 58,
      "hit": false,
      "t": 263673.39757501386,
      "d": 64.70585000002757,
      "v": 26
    },
    {
      "midi": 59,
      "hit": false,
      "t": 263688.10345001385,
      "d": 26.47057499998482,
      "v": 26
    },
    {
      "midi": 66,
      "hit": false,
      "t": 264008.69152501394,
      "d": 264.7057500000228,
      "v": 62
    },
    {
      "midi": 86,
      "hit": false,
      "t": 264014.573875014,
      "d": 211.76459999999497,
      "v": 80
    },
    {
      "midi": 80,
      "hit": false,
      "t": 264017.51505001396,
      "d": 311.7645500000217,
      "v": 57
    },
    {
      "midi": 74,
      "hit": false,
      "t": 264020.45622501394,
      "d": 238.235175000038,
      "v": 66
    },
    {
      "midi": 57,
      "hit": false,
      "t": 264023.3974000139,
      "d": 223.5293000000529,
      "v": 55
    },
    {
      "midi": 62,
      "hit": false,
      "t": 264029.27975001396,
      "d": 244.11752500000875,
      "v": 53
    },
    {
      "midi": 61,
      "hit": false,
      "t": 264032.22092501394,
      "d": 252.9410500000231,
      "v": 36
    },
    {
      "midi": 66,
      "hit": false,
      "t": 264358.691350014,
      "d": 58.82350000005681,
      "v": 58
    },
    {
      "midi": 73,
      "hit": false,
      "t": 264367.514875014,
      "d": 26.470575000043027,
      "v": 42
    },
    {
      "midi": 85,
      "hit": false,
      "t": 264376.33840001404,
      "d": 26.470575000043027,
      "v": 45
    },
    {
      "midi": 61,
      "hit": false,
      "t": 264382.22075001406,
      "d": 76.47055000002729,
      "v": 36
    },
    {
      "midi": 57,
      "hit": false,
      "t": 264385.16192501405,
      "d": 32.352925000013784,
      "v": 36
    },
    {
      "midi": 62,
      "hit": false,
      "t": 264391.0442750141,
      "d": 44.117625000013504,
      "v": 46
    },
    {
      "midi": 66,
      "hit": false,
      "t": 265070.45570001414,
      "d": 158.82344999996712,
      "v": 75
    },
    {
      "midi": 56,
      "hit": false,
      "t": 265070.45570001414,
      "d": 182.35284999996657,
      "v": 71
    },
    {
      "midi": 91,
      "hit": false,
      "t": 265073.3968750141,
      "d": 123.52934999996796,
      "v": 83
    },
    {
      "midi": 86,
      "hit": false,
      "t": 265076.3380500141,
      "d": 164.7057999999961,
      "v": 91
    },
    {
      "midi": 62,
      "hit": false,
      "t": 265076.3380500141,
      "d": 638.2349749999703,
      "v": 68
    },
    {
      "midi": 79,
      "hit": false,
      "t": 265079.2792250141,
      "d": 144.11757499998203,
      "v": 83
    },
    {
      "midi": 89,
      "hit": false,
      "t": 265099.8674500141,
      "d": 26.47057499998482,
      "v": 28
    },
    {
      "midi": 66,
      "hit": false,
      "t": 265314.5732250141,
      "d": 102.94112500001211,
      "v": 56
    },
    {
      "midi": 56,
      "hit": false,
      "t": 265314.5732250141,
      "d": 114.70582500001183,
      "v": 59
    },
    {
      "midi": 90,
      "hit": false,
      "t": 265329.2791000141,
      "d": 99.99995000002673,
      "v": 55
    },
    {
      "midi": 78,
      "hit": false,
      "t": 265335.1614500141,
      "d": 99.99994999996852,
      "v": 42
    },
    {
      "midi": 85,
      "hit": false,
      "t": 265346.9261500141,
      "d": 85.29407499998342,
      "v": 48
    },
    {
      "midi": 65,
      "hit": false,
      "t": 265485.16137501405,
      "d": 197.05872500000987,
      "v": 51
    },
    {
      "midi": 60,
      "hit": false,
      "t": 265508.69077501405,
      "d": 155.88227499998175,
      "v": 41
    },
    {
      "midi": 55,
      "hit": false,
      "t": 265508.69077501405,
      "d": 173.52932500001043,
      "v": 47
    },
    {
      "midi": 89,
      "hit": false,
      "t": 265511.63195001404,
      "d": 211.76460000005318,
      "v": 67
    },
    {
      "midi": 77,
      "hit": false,
      "t": 265523.39665001404,
      "d": 191.17637500003912,
      "v": 42
    },
    {
      "midi": 65,
      "hit": false,
      "t": 265788.1024000141,
      "d": 73.5293749999837,
      "v": 47
    },
    {
      "midi": 62,
      "hit": false,
      "t": 265793.98475001415,
      "d": 55.88232499995502,
      "v": 35
    },
    {
      "midi": 86,
      "hit": false,
      "t": 265796.92592501413,
      "d": 94.11759999999776,
      "v": 65
    },
    {
      "midi": 55,
      "hit": false,
      "t": 265796.92592501413,
      "d": 105.88229999999749,
      "v": 51
    },
    {
      "midi": 66,
      "hit": false,
      "t": 266049.8669750141,
      "d": 532.3526749999728,
      "v": 69
    },
    {
      "midi": 55,
      "hit": false,
      "t": 266049.8669750141,
      "d": 602.9408749999711,
      "v": 74
    },
    {
      "midi": 61,
      "hit": false,
      "t": 266049.8669750141,
      "d": 732.352574999968,
      "v": 64
    },
    {
      "midi": 77,
      "hit": false,
      "t": 266052.8081500141,
      "d": 529.4114999999874,
      "v": 64
    },
    {
      "midi": 85,
      "hit": false,
      "t": 266052.8081500141,
      "d": 541.1761999999871,
      "v": 68
    },
    {
      "midi": 89,
      "hit": false,
      "t": 266052.8081500141,
      "d": 644.1173249999993,
      "v": 69
    },
    {
      "midi": 65,
      "hit": false,
      "t": 266832.21952501405,
      "d": 494.11739999998827,
      "v": 57
    },
    {
      "midi": 54,
      "hit": false,
      "t": 266846.92540001404,
      "d": 558.8232500000158,
      "v": 39
    },
    {
      "midi": 60,
      "hit": false,
      "t": 266849.866575014,
      "d": 429.4115500000189,
      "v": 55
    },
    {
      "midi": 96,
      "hit": false,
      "t": 267205.748750014,
      "d": 67.64702500001295,
      "v": 95
    },
    {
      "midi": 98,
      "hit": false,
      "t": 267205.748750014,
      "d": 197.05872500006808,
      "v": 96
    },
    {
      "midi": 53,
      "hit": false,
      "t": 267426.33687501407,
      "d": 585.2938250001171,
      "v": 60
    },
    {
      "midi": 64,
      "hit": false,
      "t": 267432.2192250141,
      "d": 526.4703250000603,
      "v": 67
    },
    {
      "midi": 59,
      "hit": false,
      "t": 267441.0427500141,
      "d": 494.1174000000465,
      "v": 64
    },
    {
      "midi": 101,
      "hit": false,
      "t": 267443.9839250141,
      "d": 138.23522500001127,
      "v": 84
    },
    {
      "midi": 99,
      "hit": false,
      "t": 267638.1014750141,
      "d": 144.11757499998203,
      "v": 70
    },
    {
      "midi": 95,
      "hit": false,
      "t": 267838.1013750141,
      "d": 64.70585000002757,
      "v": 22
    },
    {
      "midi": 96,
      "hit": false,
      "t": 267976.3366000142,
      "d": 149.999925000011,
      "v": 72
    },
    {
      "midi": 62,
      "hit": false,
      "t": 268152.8071000142,
      "d": 61.76467499998398,
      "v": 75
    },
    {
      "midi": 98,
      "hit": false,
      "t": 268155.74827501416,
      "d": 132.3528750000405,
      "v": 81
    },
    {
      "midi": 51,
      "hit": false,
      "t": 268161.6306250142,
      "d": 82.35289999999804,
      "v": 57
    },
    {
      "midi": 57,
      "hit": false,
      "t": 268176.3365000142,
      "d": 26.47057499998482,
      "v": 58
    },
    {
      "midi": 96,
      "hit": false,
      "t": 268338.1011250142,
      "d": 94.11759999999776,
      "v": 39
    },
    {
      "midi": 96,
      "hit": false,
      "t": 268617.5127500142,
      "d": 161.7646250000107,
      "v": 73
    },
    {
      "midi": 96,
      "hit": false,
      "t": 268955.7478750142,
      "d": 197.05872500000987,
      "v": 81
    },
    {
      "midi": 94,
      "hit": false,
      "t": 269191.0418750142,
      "d": 67.64702500001295,
      "v": 59
    },
    {
      "midi": 57,
      "hit": false,
      "t": 269217.5124500142,
      "d": 35.29409999999916,
      "v": 37
    },
    {
      "midi": 92,
      "hit": false,
      "t": 269329.2771000142,
      "d": 41.176450000028126,
      "v": 51
    },
    {
      "midi": 91,
      "hit": false,
      "t": 269646.92400001426,
      "d": 176.47050000005402,
      "v": 53
    },
    {
      "midi": 63,
      "hit": false,
      "t": 269652.8063500143,
      "d": 97.05877500004135,
      "v": 30
    },
    {
      "midi": 67,
      "hit": false,
      "t": 269655.7475250143,
      "d": 114.70582500007004,
      "v": 38
    },
    {
      "midi": 56,
      "hit": false,
      "t": 269661.6298750143,
      "d": 147.0587500000256,
      "v": 25
    },
    {
      "midi": 89,
      "hit": false,
      "t": 270011.6297000143,
      "d": 188.23519999999553,
      "v": 78
    },
    {
      "midi": 87,
      "hit": false,
      "t": 270246.9237000143,
      "d": 99.99995000002673,
      "v": 65
    },
    {
      "midi": 66,
      "hit": false,
      "t": 270252.80605001433,
      "d": 49.99997499998426,
      "v": 53
    },
    {
      "midi": 62,
      "hit": false,
      "t": 270252.80605001433,
      "d": 76.47054999996908,
      "v": 54
    },
    {
      "midi": 56,
      "hit": false,
      "t": 270279.2766250143,
      "d": 94.11759999999776,
      "v": 23
    },
    {
      "midi": 86,
      "hit": false,
      "t": 270388.1001000143,
      "d": 147.0587500000256,
      "v": 55
    },
    {
      "midi": 87,
      "hit": false,
      "t": 270608.6882250143,
      "d": 52.94115000002785,
      "v": 62
    },
    {
      "midi": 62,
      "hit": false,
      "t": 270629.2764500143,
      "d": 88.23525000002701,
      "v": 29
    },
    {
      "midi": 89,
      "hit": false,
      "t": 270705.74700001435,
      "d": 161.7646250000107,
      "v": 81
    },
    {
      "midi": 85,
      "hit": false,
      "t": 270932.2174750144,
      "d": 67.64702500001295,
      "v": 49
    },
    {
      "midi": 62,
      "hit": false,
      "t": 270946.9233500144,
      "d": 102.94112500001211,
      "v": 60
    },
    {
      "midi": 65,
      "hit": false,
      "t": 270949.86452501436,
      "d": 38.23527500004275,
      "v": 61
    },
    {
      "midi": 60,
      "hit": false,
      "t": 270958.6880500144,
      "d": 108.82347500004107,
      "v": 55
    },
    {
      "midi": 86,
      "hit": false,
      "t": 270976.3351000144,
      "d": 94.11759999999776,
      "v": 74
    },
    {
      "midi": 79,
      "hit": false,
      "t": 271123.3938500144,
      "d": 208.8234250000096,
      "v": 32
    },
    {
      "midi": 80,
      "hit": false,
      "t": 271329.27610001445,
      "d": 61.76467499998398,
      "v": 57
    },
    {
      "midi": 82,
      "hit": false,
      "t": 271438.09957501444,
      "d": 214.70577499998035,
      "v": 70
    },
    {
      "midi": 78,
      "hit": false,
      "t": 271649.86417501443,
      "d": 102.94112500001211,
      "v": 44
    },
    {
      "midi": 65,
      "hit": false,
      "t": 271685.15827501443,
      "d": 26.470575000043027,
      "v": 59
    },
    {
      "midi": 60,
      "hit": false,
      "t": 271702.80532501446,
      "d": 67.64702500001295,
      "v": 48
    },
    {
      "midi": 54,
      "hit": false,
      "t": 271705.74650001444,
      "d": 32.352925000013784,
      "v": 23
    },
    {
      "midi": 70,
      "hit": false,
      "t": 271805.74645001447,
      "d": 258.82339999999385,
      "v": 53
    },
    {
      "midi": 58,
      "hit": false,
      "t": 272082.2169000145,
      "d": 61.76467500004219,
      "v": 23
    },
    {
      "midi": 70,
      "hit": false,
      "t": 272138.0992250145,
      "d": 314.7057250000653,
      "v": 57
    },
    {
      "midi": 62,
      "hit": false,
      "t": 272382.2167500145,
      "d": 26.470575000043027,
      "v": 51
    },
    {
      "midi": 58,
      "hit": false,
      "t": 272388.09910001454,
      "d": 58.8234999999986,
      "v": 39
    },
    {
      "midi": 70,
      "hit": false,
      "t": 272473.3931750146,
      "d": 258.82339999999385,
      "v": 63
    },
    {
      "midi": 68,
      "hit": false,
      "t": 272826.3341750146,
      "d": 185.29402500001015,
      "v": 60
    },
    {
      "midi": 67,
      "hit": false,
      "t": 273064.5693500146,
      "d": 129.41170000005513,
      "v": 72
    },
    {
      "midi": 58,
      "hit": false,
      "t": 273088.0987500146,
      "d": 64.70585000002757,
      "v": 48
    },
    {
      "midi": 60,
      "hit": false,
      "t": 273096.92227501463,
      "d": 29.411750000028405,
      "v": 36
    },
    {
      "midi": 52,
      "hit": false,
      "t": 273105.74580001464,
      "d": 32.352925000013784,
      "v": 34
    },
    {
      "midi": 65,
      "hit": false,
      "t": 273246.9222000147,
      "d": 141.17639999999665,
      "v": 33
    },
    {
      "midi": 64,
      "hit": false,
      "t": 273435.1574000147,
      "d": 79.41172500001267,
      "v": 38
    },
    {
      "midi": 58,
      "hit": false,
      "t": 273473.3926750147,
      "d": 29.411750000028405,
      "v": 20
    },
    {
      "midi": 67,
      "hit": false,
      "t": 273549.8632250147,
      "d": 244.11752500000875,
      "v": 83
    },
    {
      "midi": 64,
      "hit": false,
      "t": 273805.7454500147,
      "d": 61.76467500004219,
      "v": 40
    },
    {
      "midi": 56,
      "hit": false,
      "t": 273838.0983750147,
      "d": 64.70585000002757,
      "v": 27
    },
    {
      "midi": 53,
      "hit": false,
      "t": 273843.98072501476,
      "d": 82.35289999999804,
      "v": 33
    },
    {
      "midi": 65,
      "hit": false,
      "t": 273905.74540001474,
      "d": 226.47047500003828,
      "v": 57
    },
    {
      "midi": 60,
      "hit": false,
      "t": 274167.5099750148,
      "d": 738.234924999997,
      "v": 33
    },
    {
      "midi": 51,
      "hit": false,
      "t": 274870.4508000148,
      "d": 26.47057499998482,
      "v": 33
    },
    {
      "midi": 70,
      "hit": false,
      "t": 274932.21547501476,
      "d": 226.47047499998007,
      "v": 74
    },
    {
      "midi": 63,
      "hit": false,
      "t": 275191.03887501475,
      "d": 382.35275000002,
      "v": 60
    },
    {
      "midi": 57,
      "hit": false,
      "t": 275564.56810001476,
      "d": 32.352925000013784,
      "v": 37
    },
    {
      "midi": 74,
      "hit": false,
      "t": 275652.8033500148,
      "d": 211.76459999999497,
      "v": 74
    },
    {
      "midi": 66,
      "hit": false,
      "t": 275899.8620500148,
      "d": 364.70569999999134,
      "v": 50
    },
    {
      "midi": 57,
      "hit": false,
      "t": 275914.56792501477,
      "d": 35.29409999999916,
      "v": 47
    },
    {
      "midi": 77,
      "hit": false,
      "t": 276382.21475001477,
      "d": 205.88225000002421,
      "v": 61
    },
    {
      "midi": 74,
      "hit": false,
      "t": 276617.5087500148,
      "d": 55.88232500012964,
      "v": 62
    },
    {
      "midi": 66,
      "hit": false,
      "t": 276623.39110001485,
      "d": 32.35292500007199,
      "v": 54
    },
    {
      "midi": 62,
      "hit": false,
      "t": 276632.21462501487,
      "d": 41.176450000086334,
      "v": 44
    },
    {
      "midi": 56,
      "hit": false,
      "t": 276638.0969750149,
      "d": 99.99995000008494,
      "v": 28
    },
    {
      "midi": 62,
      "hit": false,
      "t": 276991.037975015,
      "d": 41.176450000028126,
      "v": 47
    },
    {
      "midi": 65,
      "hit": false,
      "t": 277091.037925015,
      "d": 94.11760000005597,
      "v": 52
    },
    {
      "midi": 82,
      "hit": false,
      "t": 277093.979100015,
      "d": 152.94110000011278,
      "v": 59
    },
    {
      "midi": 62,
      "hit": false,
      "t": 277093.979100015,
      "d": 161.76462500012713,
      "v": 16
    },
    {
      "midi": 70,
      "hit": false,
      "t": 277102.802625015,
      "d": 170.58815000014147,
      "v": 60
    },
    {
      "midi": 60,
      "hit": false,
      "t": 277111.62615001504,
      "d": 117.64700000005541,
      "v": 43
    },
    {
      "midi": 55,
      "hit": false,
      "t": 277117.5085000151,
      "d": 117.64700000005541,
      "v": 33
    },
    {
      "midi": 55,
      "hit": false,
      "t": 277346.92015001515,
      "d": 76.4705500000855,
      "v": 54
    },
    {
      "midi": 67,
      "hit": false,
      "t": 277352.8025000152,
      "d": 26.470575000043027,
      "v": 66
    },
    {
      "midi": 62,
      "hit": false,
      "t": 277352.8025000152,
      "d": 32.35292500007199,
      "v": 35
    },
    {
      "midi": 79,
      "hit": false,
      "t": 277358.6848500152,
      "d": 67.64702500001295,
      "v": 43
    },
    {
      "midi": 77,
      "hit": false,
      "t": 277379.2730750152,
      "d": 32.352925000013784,
      "v": 31
    },
    {
      "midi": 66,
      "hit": false,
      "t": 277670.44940001523,
      "d": 49.99997499998426,
      "v": 70
    },
    {
      "midi": 55,
      "hit": false,
      "t": 277673.3905750152,
      "d": 38.23527499998454,
      "v": 70
    },
    {
      "midi": 61,
      "hit": false,
      "t": 277673.3905750152,
      "d": 91.17642500001239,
      "v": 54
    },
    {
      "midi": 72,
      "hit": false,
      "t": 277676.3317500152,
      "d": 35.29409999999916,
      "v": 60
    },
    {
      "midi": 84,
      "hit": false,
      "t": 277676.3317500152,
      "d": 58.8234999999986,
      "v": 70
    },
    {
      "midi": 65,
      "hit": false,
      "t": 278023.3904000152,
      "d": 44.117625000013504,
      "v": 70
    },
    {
      "midi": 60,
      "hit": false,
      "t": 278029.27275001525,
      "d": 67.64702500001295,
      "v": 63
    },
    {
      "midi": 54,
      "hit": false,
      "t": 278029.27275001525,
      "d": 91.17642500001239,
      "v": 50
    },
    {
      "midi": 84,
      "hit": false,
      "t": 278032.21392501524,
      "d": 26.47057499998482,
      "v": 62
    },
    {
      "midi": 77,
      "hit": false,
      "t": 278035.1551000152,
      "d": 32.352925000013784,
      "v": 58
    },
    {
      "midi": 58,
      "hit": false,
      "t": 278035.1551000152,
      "d": 88.23525000002701,
      "v": 44
    },
    {
      "midi": 89,
      "hit": false,
      "t": 278038.0962750152,
      "d": 58.82350000005681,
      "v": 57
    },
    {
      "midi": 65,
      "hit": false,
      "t": 278379.27257501526,
      "d": 26.47057499998482,
      "v": 73
    },
    {
      "midi": 58,
      "hit": false,
      "t": 278379.27257501526,
      "d": 102.94112500007031,
      "v": 61
    },
    {
      "midi": 94,
      "hit": false,
      "t": 278382.21375001525,
      "d": 55.88232500007143,
      "v": 73
    },
    {
      "midi": 60,
      "hit": false,
      "t": 278385.15492501523,
      "d": 35.29410000005737,
      "v": 70
    },
    {
      "midi": 54,
      "hit": false,
      "t": 278385.15492501523,
      "d": 58.82350000011502,
      "v": 56
    },
    {
      "midi": 82,
      "hit": false,
      "t": 278388.0961000152,
      "d": 23.52940000005765,
      "v": 53
    },
    {
      "midi": 64,
      "hit": false,
      "t": 278720.4488750153,
      "d": 32.352925000013784,
      "v": 76
    },
    {
      "midi": 59,
      "hit": false,
      "t": 278720.4488750153,
      "d": 88.23525000002701,
      "v": 74
    },
    {
      "midi": 53,
      "hit": false,
      "t": 278732.2135750153,
      "d": 23.52939999999944,
      "v": 58
    },
    {
      "midi": 92,
      "hit": false,
      "t": 278732.2135750153,
      "d": 44.117625000013504,
      "v": 63
    },
    {
      "midi": 80,
      "hit": false,
      "t": 278732.2135750153,
      "d": 52.94115000002785,
      "v": 67
    },
    {
      "midi": 56,
      "hit": false,
      "t": 278741.0371000153,
      "d": 29.411749999970198,
      "v": 33
    },
    {
      "midi": 90,
      "hit": false,
      "t": 278749.86062501534,
      "d": 32.352925000013784,
      "v": 39
    },
    {
      "midi": 53,
      "hit": false,
      "t": 278846.9194000153,
      "d": 229.41165000008186,
      "v": 69
    },
    {
      "midi": 63,
      "hit": false,
      "t": 278846.9194000153,
      "d": 244.11752500006696,
      "v": 74
    },
    {
      "midi": 59,
      "hit": false,
      "t": 278855.74292501534,
      "d": 249.99987500009593,
      "v": 68
    },
    {
      "midi": 56,
      "hit": false,
      "t": 278861.62527501537,
      "d": 211.76460000005318,
      "v": 39
    },
    {
      "midi": 81,
      "hit": false,
      "t": 278870.4488000154,
      "d": 79.41172500001267,
      "v": 67
    },
    {
      "midi": 93,
      "hit": false,
      "t": 278873.38997501537,
      "d": 73.52937500004191,
      "v": 63
    },
    {
      "midi": 92,
      "hit": false,
      "t": 278891.0370250154,
      "d": 79.41172500001267,
      "v": 37
    },
    {
      "midi": 63,
      "hit": false,
      "t": 279176.33100001543,
      "d": 223.52929999993648,
      "v": 82
    },
    {
      "midi": 59,
      "hit": false,
      "t": 279179.2721750154,
      "d": 135.29404999990948,
      "v": 65
    },
    {
      "midi": 53,
      "hit": false,
      "t": 279188.09570001543,
      "d": 194.11754999990808,
      "v": 76
    },
    {
      "midi": 56,
      "hit": false,
      "t": 279188.09570001543,
      "d": 279.4116249999497,
      "v": 60
    },
    {
      "midi": 96,
      "hit": false,
      "t": 279191.0368750154,
      "d": 91.17642499989597,
      "v": 66
    },
    {
      "midi": 83,
      "hit": false,
      "t": 279193.9780500154,
      "d": 44.1176249999553,
      "v": 57
    },
    {
      "midi": 95,
      "hit": false,
      "t": 279196.9192250154,
      "d": 55.88232499995502,
      "v": 60
    },
    {
      "midi": 84,
      "hit": false,
      "t": 279199.8604000154,
      "d": 55.88232499995502,
      "v": 64
    },
    {
      "midi": 97,
      "hit": false,
      "t": 279373.3897250153,
      "d": 44.11762500007171,
      "v": 34
    },
    {
      "midi": 97,
      "hit": false,
      "t": 279511.6249500154,
      "d": 97.05877500004135,
      "v": 46
    },
    {
      "midi": 62,
      "hit": false,
      "t": 279514.5661250154,
      "d": 79.41172500007087,
      "v": 87
    },
    {
      "midi": 85,
      "hit": false,
      "t": 279517.50730001536,
      "d": 99.99995000008494,
      "v": 83
    },
    {
      "midi": 51,
      "hit": false,
      "t": 279523.3896500154,
      "d": 64.70585000002757,
      "v": 63
    },
    {
      "midi": 57,
      "hit": false,
      "t": 279523.3896500154,
      "d": 105.8823000000557,
      "v": 71
    },
    {
      "midi": 98,
      "hit": false,
      "t": 279532.2131750154,
      "d": 85.29407500004163,
      "v": 66
    },
    {
      "midi": 55,
      "hit": false,
      "t": 279543.9778750154,
      "d": 29.411750000028405,
      "v": 41
    },
    {
      "midi": 86,
      "hit": false,
      "t": 279632.21312501543,
      "d": 173.52932500001043,
      "v": 66
    },
    {
      "midi": 98,
      "hit": false,
      "t": 279743.97777501546,
      "d": 97.05877499998314,
      "v": 48
    },
    {
      "midi": 57,
      "hit": false,
      "t": 279826.33067501546,
      "d": 38.23527499998454,
      "v": 48
    },
    {
      "midi": 96,
      "hit": false,
      "t": 279873.38947501546,
      "d": 173.52932500001043,
      "v": 34
    },
    {
      "midi": 84,
      "hit": false,
      "t": 279882.2130000155,
      "d": 152.94109999999637,
      "v": 58
    },
    {
      "midi": 62,
      "hit": false,
      "t": 280223.38930001546,
      "d": 117.6469999999972,
      "v": 54
    },
    {
      "midi": 51,
      "hit": false,
      "t": 280235.15400001546,
      "d": 126.47052500001155,
      "v": 28
    },
    {
      "midi": 57,
      "hit": false,
      "t": 280238.09517501545,
      "d": 91.17642500001239,
      "v": 43
    },
    {
      "midi": 99,
      "hit": false,
      "t": 280591.0361750155,
      "d": 132.3528749999823,
      "v": 77
    },
    {
      "midi": 100,
      "hit": false,
      "t": 280617.5067500155,
      "d": 26.47057499998482,
      "v": 46
    },
    {
      "midi": 63,
      "hit": false,
      "t": 280817.5066500155,
      "d": 61.76467500004219,
      "v": 76
    },
    {
      "midi": 100,
      "hit": false,
      "t": 280823.3890000155,
      "d": 132.3528749999823,
      "v": 84
    },
    {
      "midi": 58,
      "hit": false,
      "t": 280826.3301750155,
      "d": 126.47052500001155,
      "v": 63
    },
    {
      "midi": 52,
      "hit": false,
      "t": 280832.2125250155,
      "d": 26.47057499998482,
      "v": 59
    },
    {
      "midi": 99,
      "hit": false,
      "t": 281014.5653750155,
      "d": 132.3528749999823,
      "v": 56
    },
    {
      "midi": 97,
      "hit": false,
      "t": 281276.32995001547,
      "d": 229.41165000002366,
      "v": 73
    },
    {
      "midi": 67,
      "hit": false,
      "t": 281520.4474750155,
      "d": 61.76467499998398,
      "v": 58
    },
    {
      "midi": 63,
      "hit": false,
      "t": 281523.38865001546,
      "d": 97.05877499998314,
      "v": 52
    },
    {
      "midi": 56,
      "hit": false,
      "t": 281538.09452501545,
      "d": 41.176450000028126,
      "v": 30
    },
    {
      "midi": 60,
      "hit": false,
      "t": 281546.91805001546,
      "d": 111.76464999996824,
      "v": 50
    },
    {
      "midi": 96,
      "hit": false,
      "t": 281546.91805001546,
      "d": 129.41169999999693,
      "v": 66
    },
    {
      "midi": 94,
      "hit": false,
      "t": 281743.9767750155,
      "d": 199.99989999999525,
      "v": 47
    },
    {
      "midi": 92,
      "hit": false,
      "t": 281911.62375001545,
      "d": 138.23522500001127,
      "v": 72
    },
    {
      "midi": 66,
      "hit": false,
      "t": 281914.56492501544,
      "d": 120.58817500004079,
      "v": 49
    },
    {
      "midi": 62,
      "hit": false,
      "t": 281914.56492501544,
      "d": 264.7057500000228,
      "v": 56
    },
    {
      "midi": 56,
      "hit": false,
      "t": 281920.44727501547,
      "d": 255.88222500000848,
      "v": 42
    },
    {
      "midi": 91,
      "hit": false,
      "t": 282091.0354250155,
      "d": 144.11757499998203,
      "v": 31
    },
    {
      "midi": 65,
      "hit": false,
      "t": 282279.2706250155,
      "d": 47.05879999999888,
      "v": 48
    },
    {
      "midi": 62,
      "hit": false,
      "t": 282279.2706250155,
      "d": 123.52935000002617,
      "v": 37
    },
    {
      "midi": 90,
      "hit": false,
      "t": 282288.0941500155,
      "d": 102.94112500001211,
      "v": 59
    },
    {
      "midi": 60,
      "hit": false,
      "t": 282299.8588500155,
      "d": 73.5293749999837,
      "v": 37
    },
    {
      "midi": 93,
      "hit": false,
      "t": 282423.3882000155,
      "d": 217.64695000002393,
      "v": 76
    },
    {
      "midi": 90,
      "hit": false,
      "t": 282649.85867501557,
      "d": 55.882325000013225,
      "v": 37
    },
    {
      "midi": 91,
      "hit": false,
      "t": 282752.7998000156,
      "d": 208.8234250000096,
      "v": 71
    },
    {
      "midi": 62,
      "hit": false,
      "t": 282973.3879250156,
      "d": 73.5293749999837,
      "v": 55
    },
    {
      "midi": 86,
      "hit": false,
      "t": 282976.3291000156,
      "d": 94.11759999999776,
      "v": 63
    },
    {
      "midi": 65,
      "hit": false,
      "t": 282988.0938000156,
      "d": 32.352925000013784,
      "v": 35
    },
    {
      "midi": 60,
      "hit": false,
      "t": 282991.03497501556,
      "d": 41.176450000028126,
      "v": 41
    },
    {
      "midi": 82,
      "hit": false,
      "t": 283132.21137501555,
      "d": 194.1175500000245,
      "v": 39
    },
    {
      "midi": 65,
      "hit": false,
      "t": 283435.15240001556,
      "d": 138.23522500001127,
      "v": 46
    },
    {
      "midi": 54,
      "hit": false,
      "t": 283449.85827501555,
      "d": 270.5881000000518,
      "v": 32
    },
    {
      "midi": 60,
      "hit": false,
      "t": 283452.79945001553,
      "d": 126.47052500006976,
      "v": 47
    },
    {
      "midi": 58,
      "hit": false,
      "t": 283461.62297501555,
      "d": 179.4116750000394,
      "v": 34
    },
    {
      "midi": 58,
      "hit": false,
      "t": 283802.7992750156,
      "d": 102.94112500001211,
      "v": 43
    },
    {
      "midi": 62,
      "hit": false,
      "t": 283805.7404500156,
      "d": 164.7058000000543,
      "v": 40
    },
    {
      "midi": 53,
      "hit": false,
      "t": 283820.44632501557,
      "d": 111.76465000008466,
      "v": 29
    },
    {
      "midi": 55,
      "hit": false,
      "t": 283826.3286750156,
      "d": 117.64700000005541,
      "v": 39
    },
    {
      "midi": 84,
      "hit": false,
      "t": 283835.1522000156,
      "d": 61.76467499998398,
      "v": 80
    },
    {
      "midi": 85,
      "hit": false,
      "t": 283926.3286250156,
      "d": 105.8823000000557,
      "v": 49
    },
    {
      "midi": 84,
      "hit": false,
      "t": 284011.62270001567,
      "d": 88.23525000002701,
      "v": 47
    },
    {
      "midi": 82,
      "hit": false,
      "t": 284099.8579500157,
      "d": 70.58819999999832,
      "v": 62
    },
    {
      "midi": 80,
      "hit": false,
      "t": 284235.1520000157,
      "d": 176.4704999999958,
      "v": 30
    },
    {
      "midi": 79,
      "hit": false,
      "t": 284420.4460250157,
      "d": 108.82347499998286,
      "v": 68
    },
    {
      "midi": 58,
      "hit": false,
      "t": 284435.1519000157,
      "d": 73.5293749999837,
      "v": 42
    },
    {
      "midi": 60,
      "hit": false,
      "t": 284438.0930750157,
      "d": 32.352925000013784,
      "v": 47
    },
    {
      "midi": 77,
      "hit": false,
      "t": 284582.21065001574,
      "d": 194.1175500000245,
      "v": 44
    },
    {
      "midi": 76,
      "hit": false,
      "t": 284796.9164250158,
      "d": 35.29409999999916,
      "v": 24
    },
    {
      "midi": 79,
      "hit": false,
      "t": 284879.2693250158,
      "d": 161.7646250000107,
      "v": 68
    },
    {
      "midi": 73,
      "hit": false,
      "t": 285082.2104000158,
      "d": 152.94110000005458,
      "v": 53
    },
    {
      "midi": 60,
      "hit": false,
      "t": 285096.9162750158,
      "d": 85.29407500004163,
      "v": 60
    },
    {
      "midi": 63,
      "hit": false,
      "t": 285102.7986250158,
      "d": 32.352925000013784,
      "v": 52
    },
    {
      "midi": 56,
      "hit": false,
      "t": 285123.38685001584,
      "d": 117.64700000005541,
      "v": 28
    },
    {
      "midi": 72,
      "hit": false,
      "t": 285255.7397250159,
      "d": 167.64697499998147,
      "v": 34
    },
    {
      "midi": 70,
      "hit": false,
      "t": 285443.9749250159,
      "d": 126.47052500001155,
      "v": 49
    },
    {
      "midi": 68,
      "hit": false,
      "t": 285588.0925000159,
      "d": 232.35282500006724,
      "v": 34
    },
    {
      "midi": 63,
      "hit": false,
      "t": 285805.73945001594,
      "d": 49.99997500004247,
      "v": 27
    },
    {
      "midi": 67,
      "hit": false,
      "t": 285811.621800016,
      "d": 55.882325000013225,
      "v": 49
    },
    {
      "midi": 71,
      "hit": false,
      "t": 285917.50410001597,
      "d": 270.5880999999936,
      "v": 64
    },
    {
      "midi": 59,
      "hit": false,
      "t": 286188.09220001596,
      "d": 38.23527499998454,
      "v": 27
    },
    {
      "midi": 70,
      "hit": false,
      "t": 286241.03335001593,
      "d": 294.117499999993,
      "v": 64
    },
    {
      "midi": 68,
      "hit": false,
      "t": 286476.3273500159,
      "d": 70.58819999999832,
      "v": 56
    },
    {
      "midi": 66,
      "hit": false,
      "t": 286632.2096250159,
      "d": 267.6469250000082,
      "v": 33
    },
    {
      "midi": 57,
      "hit": false,
      "t": 286802.79777501593,
      "d": 35.29409999999916,
      "v": 38
    },
    {
      "midi": 47,
      "hit": false,
      "t": 286823.38600001595,
      "d": 38.23527499998454,
      "v": 24
    },
    {
      "midi": 62,
      "hit": false,
      "t": 286929.26830001594,
      "d": 258.82339999999385,
      "v": 55
    },
    {
      "midi": 65,
      "hit": false,
      "t": 287285.1504750159,
      "d": 299.999850000022,
      "v": 58
    },
    {
      "midi": 63,
      "hit": false,
      "t": 287314.56222501595,
      "d": 35.29409999999916,
      "v": 33
    },
    {
      "midi": 56,
      "hit": false,
      "t": 287649.856175016,
      "d": 541.1761999999871,
      "v": 65
    },
    {
      "midi": 55,
      "hit": false,
      "t": 288246.914700016,
      "d": 382.35275000002,
      "v": 75
    },
    {
      "midi": 39,
      "hit": false,
      "t": 288276.326450016,
      "d": 38.23527499998454,
      "v": 32
    },
    {
      "midi": 46,
      "hit": false,
      "t": 288291.032325016,
      "d": 35.29409999999916,
      "v": 23
    },
    {
      "midi": 54,
      "hit": false,
      "t": 288608.679225016,
      "d": 82.35289999999804,
      "v": 51
    },
    {
      "midi": 57,
      "hit": false,
      "t": 288720.443875016,
      "d": 223.5292999999947,
      "v": 64
    },
    {
      "midi": 54,
      "hit": false,
      "t": 288961.620225016,
      "d": 73.52937500004191,
      "v": 37
    },
    {
      "midi": 39,
      "hit": false,
      "t": 288988.090800016,
      "d": 35.29410000005737,
      "v": 28
    },
    {
      "midi": 46,
      "hit": false,
      "t": 288993.97315001604,
      "d": 61.76467500004219,
      "v": 30
    },
    {
      "midi": 55,
      "hit": false,
      "t": 289067.5025250161,
      "d": 223.5292999999947,
      "v": 57
    },
    {
      "midi": 57,
      "hit": false,
      "t": 289311.6200500161,
      "d": 105.88229999999749,
      "v": 46
    },
    {
      "midi": 58,
      "hit": false,
      "t": 289449.8552750161,
      "d": 52.94115000002785,
      "v": 39
    },
    {
      "midi": 60,
      "hit": false,
      "t": 289558.67875001614,
      "d": 79.41172500001267,
      "v": 63
    },
    {
      "midi": 63,
      "hit": false,
      "t": 289658.6787000162,
      "d": 55.882325000013225,
      "v": 57
    },
    {
      "midi": 65,
      "hit": false,
      "t": 289785.1492250162,
      "d": 85.29407499998342,
      "v": 57
    },
    {
      "midi": 70,
      "hit": false,
      "t": 289891.0315250162,
      "d": 61.76467499998398,
      "v": 58
    },
    {
      "midi": 72,
      "hit": false,
      "t": 290011.61970001616,
      "d": 99.99995000002673,
      "v": 55
    },
    {
      "midi": 65,
      "hit": false,
      "t": 290029.2667500162,
      "d": 32.352925000013784,
      "v": 53
    },
    {
      "midi": 54,
      "hit": false,
      "t": 290035.1491000162,
      "d": 102.9411249999539,
      "v": 38
    },
    {
      "midi": 60,
      "hit": false,
      "t": 290038.0902750162,
      "d": 73.5293749999837,
      "v": 49
    },
    {
      "midi": 77,
      "hit": false,
      "t": 290143.9725750162,
      "d": 94.11759999999776,
      "v": 60
    },
    {
      "midi": 82,
      "hit": false,
      "t": 290264.5607500162,
      "d": 67.64702500001295,
      "v": 67
    },
    {
      "midi": 72,
      "hit": false,
      "t": 290367.5018750162,
      "d": 91.17642500001239,
      "v": 74
    },
    {
      "midi": 84,
      "hit": false,
      "t": 290370.4430500162,
      "d": 108.82347500004107,
      "v": 90
    },
    {
      "midi": 54,
      "hit": false,
      "t": 290414.5606750162,
      "d": 91.17642500001239,
      "v": 30
    },
    {
      "midi": 81,
      "hit": false,
      "t": 290514.5606250162,
      "d": 155.88227499998175,
      "v": 53
    },
    {
      "midi": 78,
      "hit": false,
      "t": 290714.5605250162,
      "d": 79.41172500001267,
      "v": 44
    },
    {
      "midi": 57,
      "hit": false,
      "t": 290738.0899250162,
      "d": 249.99987500003772,
      "v": 43
    },
    {
      "midi": 62,
      "hit": false,
      "t": 290746.91345001623,
      "d": 279.4116250000661,
      "v": 34
    },
    {
      "midi": 55,
      "hit": false,
      "t": 290755.73697501625,
      "d": 270.5881000000518,
      "v": 40
    },
    {
      "midi": 58,
      "hit": false,
      "t": 290829.26635001623,
      "d": 191.17637500003912,
      "v": 3
    },
    {
      "midi": 81,
      "hit": false,
      "t": 290841.03105001623,
      "d": 199.99990000005346,
      "v": 68
    },
    {
      "midi": 80,
      "hit": false,
      "t": 291173.38382501627,
      "d": 64.70585000008577,
      "v": 45
    },
    {
      "midi": 62,
      "hit": false,
      "t": 291176.32500001625,
      "d": 232.35282500012545,
      "v": 53
    },
    {
      "midi": 58,
      "hit": false,
      "t": 291182.2073500163,
      "d": 244.11752500006696,
      "v": 37
    },
    {
      "midi": 57,
      "hit": false,
      "t": 291188.0897000163,
      "d": 188.23520000005374,
      "v": 45
    },
    {
      "midi": 55,
      "hit": false,
      "t": 291193.97205001634,
      "d": 229.41165000002366,
      "v": 44
    },
    {
      "midi": 81,
      "hit": false,
      "t": 291199.85440001637,
      "d": 223.5292999999947,
      "v": 61
    },
    {
      "midi": 62,
      "hit": false,
      "t": 291564.56010001636,
      "d": 176.47050000011222,
      "v": 50
    },
    {
      "midi": 58,
      "hit": false,
      "t": 291564.56010001636,
      "d": 191.17637500015553,
      "v": 44
    },
    {
      "midi": 57,
      "hit": false,
      "t": 291570.4424500164,
      "d": 176.47050000011222,
      "v": 54
    },
    {
      "midi": 81,
      "hit": false,
      "t": 291570.4424500164,
      "d": 191.17637500015553,
      "v": 59
    },
    {
      "midi": 55,
      "hit": false,
      "t": 291576.3248000164,
      "d": 158.82345000002533,
      "v": 51
    },
    {
      "midi": 82,
      "hit": false,
      "t": 291811.6188000165,
      "d": 99.99994999996852,
      "v": 71
    },
    {
      "midi": 70,
      "hit": false,
      "t": 291817.50115001656,
      "d": 102.9411249999539,
      "v": 62
    },
    {
      "midi": 62,
      "hit": false,
      "t": 291820.44232501654,
      "d": 64.70584999996936,
      "v": 60
    },
    {
      "midi": 58,
      "hit": false,
      "t": 291823.3835000165,
      "d": 276.47045000002254,
      "v": 45
    },
    {
      "midi": 57,
      "hit": false,
      "t": 291826.3246750165,
      "d": 82.35289999999804,
      "v": 57
    },
    {
      "midi": 55,
      "hit": false,
      "t": 291829.2658500165,
      "d": 297.0586750000366,
      "v": 55
    },
    {
      "midi": 62,
      "hit": false,
      "t": 291943.9716750165,
      "d": 158.82345000002533,
      "v": 50
    },
    {
      "midi": 57,
      "hit": false,
      "t": 291958.6775500165,
      "d": 149.999925000011,
      "v": 22
    },
    {
      "midi": 81,
      "hit": false,
      "t": 291958.6775500165,
      "d": 158.82345000002533,
      "v": 46
    },
    {
      "midi": 69,
      "hit": false,
      "t": 291988.0893000165,
      "d": 117.6469999999972,
      "v": 34
    },
    {
      "midi": 62,
      "hit": false,
      "t": 292188.0892000165,
      "d": 52.94115000002785,
      "v": 49
    },
    {
      "midi": 69,
      "hit": false,
      "t": 292193.97155001655,
      "d": 29.411749999970198,
      "v": 61
    },
    {
      "midi": 58,
      "hit": false,
      "t": 292196.91272501653,
      "d": 70.58819999999832,
      "v": 48
    },
    {
      "midi": 55,
      "hit": false,
      "t": 292199.8539000165,
      "d": 88.23525000002701,
      "v": 30
    },
    {
      "midi": 81,
      "hit": false,
      "t": 292202.7950750165,
      "d": 41.176450000028126,
      "v": 31
    },
    {
      "midi": 63,
      "hit": false,
      "t": 292955.73587501654,
      "d": 114.70582500001183,
      "v": 77
    },
    {
      "midi": 55,
      "hit": false,
      "t": 292958.67705001653,
      "d": 114.70582500001183,
      "v": 73
    },
    {
      "midi": 79,
      "hit": false,
      "t": 292970.44175001653,
      "d": 82.35290000005625,
      "v": 84
    },
    {
      "midi": 74,
      "hit": false,
      "t": 292970.44175001653,
      "d": 85.29407500004163,
      "v": 89
    },
    {
      "midi": 86,
      "hit": false,
      "t": 292970.44175001653,
      "d": 99.99995000002673,
      "v": 99
    },
    {
      "midi": 82,
      "hit": false,
      "t": 292976.32410001656,
      "d": 23.52939999999944,
      "v": 59
    },
    {
      "midi": 60,
      "hit": false,
      "t": 292976.32410001656,
      "d": 35.29409999999916,
      "v": 58
    },
    {
      "midi": 65,
      "hit": false,
      "t": 293308.67687501654,
      "d": 49.99997499998426,
      "v": 61
    },
    {
      "midi": 54,
      "hit": false,
      "t": 293308.67687501654,
      "d": 170.58815000002505,
      "v": 64
    },
    {
      "midi": 60,
      "hit": false,
      "t": 293311.6180500165,
      "d": 70.58819999999832,
      "v": 60
    },
    {
      "midi": 79,
      "hit": false,
      "t": 293311.6180500165,
      "d": 108.82347499998286,
      "v": 73
    },
    {
      "midi": 58,
      "hit": false,
      "t": 293314.5592250165,
      "d": 114.70582500001183,
      "v": 43
    },
    {
      "midi": 72,
      "hit": false,
      "t": 293314.5592250165,
      "d": 144.11757500004023,
      "v": 70
    },
    {
      "midi": 86,
      "hit": false,
      "t": 293320.44157501654,
      "d": 23.52939999999944,
      "v": 70
    },
    {
      "midi": 84,
      "hit": false,
      "t": 293320.44157501654,
      "d": 73.5293749999837,
      "v": 66
    },
    {
      "midi": 64,
      "hit": false,
      "t": 293323.3827500165,
      "d": 20.588225000014063,
      "v": 67
    },
    {
      "midi": 62,
      "hit": false,
      "t": 293688.08845001657,
      "d": 252.9410499999649,
      "v": 74
    },
    {
      "midi": 80,
      "hit": false,
      "t": 293691.02962501656,
      "d": 132.3528749999241,
      "v": 65
    },
    {
      "midi": 58,
      "hit": false,
      "t": 293691.02962501656,
      "d": 276.47044999996433,
      "v": 55
    },
    {
      "midi": 72,
      "hit": false,
      "t": 293693.97080001654,
      "d": 229.41164999996545,
      "v": 77
    },
    {
      "midi": 78,
      "hit": false,
      "t": 293696.9119750165,
      "d": 88.2352499999688,
      "v": 48
    },
    {
      "midi": 55,
      "hit": false,
      "t": 293696.9119750165,
      "d": 244.11752500000875,
      "v": 56
    },
    {
      "midi": 57,
      "hit": false,
      "t": 293699.8531500165,
      "d": 247.05869999999413,
      "v": 53
    },
    {
      "midi": 84,
      "hit": false,
      "t": 293702.7943250165,
      "d": 188.23519999999553,
      "v": 62
    },
    {
      "midi": 83,
      "hit": false,
      "t": 293717.5002000165,
      "d": 26.47057499998482,
      "v": 35
    },
    {
      "midi": 81,
      "hit": false,
      "t": 293841.0295500165,
      "d": 102.94112500001211,
      "v": 41
    },
    {
      "midi": 62,
      "hit": false,
      "t": 294035.14710001653,
      "d": 182.35285000008298,
      "v": 55
    },
    {
      "midi": 82,
      "hit": false,
      "t": 294038.0882750165,
      "d": 185.29402500012657,
      "v": 60
    },
    {
      "midi": 58,
      "hit": false,
      "t": 294043.97062501655,
      "d": 188.23520000011194,
      "v": 32
    },
    {
      "midi": 70,
      "hit": false,
      "t": 294043.97062501655,
      "d": 188.23520000011194,
      "v": 60
    },
    {
      "midi": 57,
      "hit": false,
      "t": 294052.79415001656,
      "d": 152.94110000005458,
      "v": 40
    },
    {
      "midi": 55,
      "hit": false,
      "t": 294052.79415001656,
      "d": 155.88227500003995,
      "v": 38
    },
    {
      "midi": 81,
      "hit": false,
      "t": 294293.97050001664,
      "d": 64.70584999996936,
      "v": 56
    },
    {
      "midi": 62,
      "hit": false,
      "t": 294293.97050001664,
      "d": 85.29407499998342,
      "v": 58
    },
    {
      "midi": 69,
      "hit": false,
      "t": 294296.9116750166,
      "d": 58.8234999999986,
      "v": 65
    },
    {
      "midi": 58,
      "hit": false,
      "t": 294299.8528500166,
      "d": 102.94112500001211,
      "v": 35
    },
    {
      "midi": 55,
      "hit": false,
      "t": 294305.73520001664,
      "d": 85.29407499998342,
      "v": 42
    },
    {
      "midi": 62,
      "hit": false,
      "t": 294446.91160001664,
      "d": 114.70582500001183,
      "v": 54
    },
    {
      "midi": 82,
      "hit": false,
      "t": 294458.67630001664,
      "d": 126.47052500001155,
      "v": 67
    },
    {
      "midi": 55,
      "hit": false,
      "t": 294458.67630001664,
      "d": 232.35282500006724,
      "v": 33
    },
    {
      "midi": 58,
      "hit": false,
      "t": 294464.55865001667,
      "d": 149.99992499995278,
      "v": 25
    },
    {
      "midi": 70,
      "hit": false,
      "t": 294467.49982501665,
      "d": 120.58817499998258,
      "v": 53
    },
    {
      "midi": 58,
      "hit": false,
      "t": 294661.6173750167,
      "d": 79.41172500007087,
      "v": 28
    },
    {
      "midi": 67,
      "hit": false,
      "t": 294667.4997250167,
      "d": 29.411750000028405,
      "v": 68
    },
    {
      "midi": 62,
      "hit": false,
      "t": 294667.4997250167,
      "d": 70.58820000005653,
      "v": 63
    },
    {
      "midi": 79,
      "hit": false,
      "t": 294682.2056000167,
      "d": 35.29410000005737,
      "v": 38
    },
    {
      "midi": 67,
      "hit": false,
      "t": 294976.32310001674,
      "d": 26.470575000043027,
      "v": 68
    },
    {
      "midi": 63,
      "hit": false,
      "t": 294976.32310001674,
      "d": 73.52937500004191,
      "v": 54
    },
    {
      "midi": 58,
      "hit": false,
      "t": 294982.2054500168,
      "d": 70.58819999999832,
      "v": 44
    },
    {
      "midi": 62,
      "hit": false,
      "t": 294982.2054500168,
      "d": 82.35289999999804,
      "v": 62
    },
    {
      "midi": 74,
      "hit": false,
      "t": 295123.38185001677,
      "d": 58.8234999999986,
      "v": 90
    },
    {
      "midi": 79,
      "hit": false,
      "t": 295135.14655001677,
      "d": 135.29404999996768,
      "v": 64
    },
    {
      "midi": 75,
      "hit": false,
      "t": 295220.44062501675,
      "d": 73.5293749999837,
      "v": 53
    },
    {
      "midi": 74,
      "hit": false,
      "t": 295279.26412501675,
      "d": 88.2352499999688,
      "v": 71
    },
    {
      "midi": 63,
      "hit": false,
      "t": 295332.2052750167,
      "d": 94.11759999999776,
      "v": 34
    },
    {
      "midi": 62,
      "hit": false,
      "t": 295343.9699750167,
      "d": 138.23522500001127,
      "v": 46
    },
    {
      "midi": 72,
      "hit": false,
      "t": 295364.55820001673,
      "d": 76.47054999996908,
      "v": 38
    },
    {
      "midi": 71,
      "hit": false,
      "t": 295485.1463750167,
      "d": 182.35285000002477,
      "v": 56
    },
    {
      "midi": 74,
      "hit": false,
      "t": 295682.2051000167,
      "d": 191.17637500003912,
      "v": 80
    },
    {
      "midi": 67,
      "hit": false,
      "t": 295688.08745001676,
      "d": 29.411750000028405,
      "v": 57
    },
    {
      "midi": 63,
      "hit": false,
      "t": 295696.91097501677,
      "d": 97.05877499998314,
      "v": 36
    },
    {
      "midi": 57,
      "hit": false,
      "t": 295720.44037501677,
      "d": 35.29409999999916,
      "v": 35
    },
    {
      "midi": 72,
      "hit": false,
      "t": 295849.85207501677,
      "d": 129.41169999999693,
      "v": 37
    },
    {
      "midi": 70,
      "hit": false,
      "t": 296017.49905001675,
      "d": 114.70582500001183,
      "v": 63
    },
    {
      "midi": 63,
      "hit": false,
      "t": 296029.26375001675,
      "d": 67.64702500001295,
      "v": 35
    },
    {
      "midi": 57,
      "hit": false,
      "t": 296041.02845001675,
      "d": 41.176450000028126,
      "v": 35
    },
    {
      "midi": 69,
      "hit": false,
      "t": 296167.49897501676,
      "d": 132.3528749999823,
      "v": 52
    },
    {
      "midi": 68,
      "hit": false,
      "t": 296367.49887501675,
      "d": 94.11760000011418,
      "v": 53
    },
    {
      "midi": 65,
      "hit": false,
      "t": 296373.3812250168,
      "d": 26.470575000043027,
      "v": 52
    },
    {
      "midi": 62,
      "hit": false,
      "t": 296379.2635750168,
      "d": 64.70585000002757,
      "v": 46
    },
    {
      "midi": 60,
      "hit": false,
      "t": 296391.0282750168,
      "d": 35.29409999999916,
      "v": 39
    },
    {
      "midi": 69,
      "hit": false,
      "t": 296517.4988000169,
      "d": 191.1763749999809,
      "v": 49
    },
    {
      "midi": 65,
      "hit": false,
      "t": 296732.20457501686,
      "d": 91.17642500001239,
      "v": 62
    },
    {
      "midi": 55,
      "hit": false,
      "t": 296761.6163250169,
      "d": 35.29409999999916,
      "v": 38
    },
    {
      "midi": 62,
      "hit": false,
      "t": 296858.6751000169,
      "d": 194.1175500000245,
      "v": 49
    },
    {
      "midi": 58,
      "hit": false,
      "t": 297067.4985250169,
      "d": 141.17639999999665,
      "v": 39
    },
    {
      "midi": 57,
      "hit": false,
      "t": 297226.3219750169,
      "d": 205.88225000002421,
      "v": 34
    },
    {
      "midi": 60,
      "hit": false,
      "t": 297441.02775001695,
      "d": 102.94112500001211,
      "v": 78
    },
    {
      "midi": 57,
      "hit": false,
      "t": 297617.49825001694,
      "d": 152.94109999999637,
      "v": 22
    },
    {
      "midi": 58,
      "hit": false,
      "t": 297788.08640001697,
      "d": 85.29407499998342,
      "v": 46
    },
    {
      "midi": 60,
      "hit": false,
      "t": 297923.38045001694,
      "d": 173.52932500001043,
      "v": 45
    },
    {
      "midi": 62,
      "hit": false,
      "t": 298132.20387501694,
      "d": 105.88229999999749,
      "v": 64
    },
    {
      "midi": 53,
      "hit": false,
      "t": 298146.90975001693,
      "d": 44.117625000013504,
      "v": 39
    },
    {
      "midi": 56,
      "hit": false,
      "t": 298170.43915001693,
      "d": 64.70585000002757,
      "v": 28
    },
    {
      "midi": 63,
      "hit": false,
      "t": 298285.14497501694,
      "d": 161.7646250000107,
      "v": 48
    },
    {
      "midi": 65,
      "hit": false,
      "t": 298485.14487501694,
      "d": 105.88229999999749,
      "v": 64
    },
    {
      "midi": 66,
      "hit": false,
      "t": 298655.73302501696,
      "d": 111.76465000002645,
      "v": 35
    },
    {
      "midi": 68,
      "hit": false,
      "t": 298826.321175017,
      "d": 88.2352499999688,
      "v": 63
    },
    {
      "midi": 60,
      "hit": false,
      "t": 298835.144700017,
      "d": 29.411749999970198,
      "v": 57
    },
    {
      "midi": 63,
      "hit": false,
      "t": 298849.850575017,
      "d": 26.47057499998482,
      "v": 26
    },
    {
      "midi": 70,
      "hit": false,
      "t": 298976.32110001694,
      "d": 111.76465000002645,
      "v": 43
    },
    {
      "midi": 72,
      "hit": false,
      "t": 299170.43865001696,
      "d": 102.94112500001211,
      "v": 55
    },
    {
      "midi": 65,
      "hit": false,
      "t": 299182.20335001696,
      "d": 35.29409999999916,
      "v": 54
    },
    {
      "midi": 60,
      "hit": false,
      "t": 299182.20335001696,
      "d": 73.5293749999837,
      "v": 50
    },
    {
      "midi": 55,
      "hit": false,
      "t": 299205.73275001696,
      "d": 38.23527499998454,
      "v": 27
    },
    {
      "midi": 65,
      "hit": false,
      "t": 299305.732700017,
      "d": 70.58819999994012,
      "v": 43
    },
    {
      "midi": 55,
      "hit": false,
      "t": 299308.673875017,
      "d": 94.11759999993956,
      "v": 20
    },
    {
      "midi": 60,
      "hit": false,
      "t": 299320.438575017,
      "d": 94.11759999993956,
      "v": 37
    },
    {
      "midi": 56,
      "hit": false,
      "t": 299323.37975001696,
      "d": 108.82347499998286,
      "v": 35
    },
    {
      "midi": 76,
      "hit": false,
      "t": 299335.14445001696,
      "d": 173.52932500001043,
      "v": 52
    },
    {
      "midi": 77,
      "hit": false,
      "t": 299538.085525017,
      "d": 82.35289999999804,
      "v": 61
    },
    {
      "midi": 65,
      "hit": false,
      "t": 299541.026700017,
      "d": 32.352925000013784,
      "v": 50
    },
    {
      "midi": 56,
      "hit": false,
      "t": 299543.96787501697,
      "d": 64.70585000002757,
      "v": 33
    },
    {
      "midi": 60,
      "hit": false,
      "t": 299552.791400017,
      "d": 35.29409999999916,
      "v": 46
    },
    {
      "midi": 66,
      "hit": false,
      "t": 299658.673700017,
      "d": 167.64697499992326,
      "v": 56
    },
    {
      "midi": 78,
      "hit": false,
      "t": 299670.438400017,
      "d": 144.11757499992382,
      "v": 33
    },
    {
      "midi": 60,
      "hit": false,
      "t": 299673.37957501697,
      "d": 94.11759999993956,
      "v": 45
    },
    {
      "midi": 56,
      "hit": false,
      "t": 299673.37957501697,
      "d": 117.646999999939,
      "v": 42
    },
    {
      "midi": 55,
      "hit": false,
      "t": 299676.32075001695,
      "d": 88.2352499999688,
      "v": 38
    },
    {
      "midi": 64,
      "hit": false,
      "t": 299896.9088750169,
      "d": 361.7645250001224,
      "v": 71
    },
    {
      "midi": 53,
      "hit": false,
      "t": 299896.9088750169,
      "d": 370.5880500001367,
      "v": 74
    },
    {
      "midi": 59,
      "hit": false,
      "t": 299896.9088750169,
      "d": 394.11745000019437,
      "v": 63
    },
    {
      "midi": 79,
      "hit": false,
      "t": 299902.79122501693,
      "d": 305.88220000005094,
      "v": 71
    },
    {
      "midi": 67,
      "hit": false,
      "t": 299902.79122501693,
      "d": 338.2351250000647,
      "v": 79
    },
    {
      "midi": 77,
      "hit": false,
      "t": 299929.2618000169,
      "d": 355.8821750001516,
      "v": 33
    },
    {
      "midi": 64,
      "hit": false,
      "t": 300382.2027500171,
      "d": 167.64697500003967,
      "v": 63
    },
    {
      "midi": 53,
      "hit": false,
      "t": 300382.2027500171,
      "d": 173.52932500006864,
      "v": 64
    },
    {
      "midi": 68,
      "hit": false,
      "t": 300388.08510001714,
      "d": 185.29402500006836,
      "v": 65
    },
    {
      "midi": 80,
      "hit": false,
      "t": 300388.08510001714,
      "d": 188.23520000005374,
      "v": 68
    },
    {
      "midi": 59,
      "hit": false,
      "t": 300388.08510001714,
      "d": 191.17637500003912,
      "v": 60
    },
    {
      "midi": 81,
      "hit": false,
      "t": 300620.4379250172,
      "d": 329.4116000000504,
      "v": 66
    },
    {
      "midi": 53,
      "hit": false,
      "t": 300620.4379250172,
      "d": 335.29395000007935,
      "v": 66
    },
    {
      "midi": 69,
      "hit": false,
      "t": 300623.3791000172,
      "d": 335.29395000007935,
      "v": 73
    },
    {
      "midi": 59,
      "hit": false,
      "t": 300629.2614500172,
      "d": 311.7645500000217,
      "v": 79
    },
    {
      "midi": 64,
      "hit": false,
      "t": 300629.2614500172,
      "d": 361.76452500006417,
      "v": 63
    },
    {
      "midi": 53,
      "hit": false,
      "t": 301070.4377000173,
      "d": 176.47050000005402,
      "v": 64
    },
    {
      "midi": 64,
      "hit": false,
      "t": 301070.4377000173,
      "d": 176.47050000005402,
      "v": 56
    },
    {
      "midi": 59,
      "hit": false,
      "t": 301079.2612250173,
      "d": 194.1175500000245,
      "v": 60
    },
    {
      "midi": 82,
      "hit": false,
      "t": 301085.14357501734,
      "d": 176.4704999999958,
      "v": 64
    },
    {
      "midi": 75,
      "hit": false,
      "t": 301085.14357501734,
      "d": 197.05872500000987,
      "v": 42
    },
    {
      "midi": 70,
      "hit": false,
      "t": 301088.0847500173,
      "d": 182.35285000002477,
      "v": 55
    },
    {
      "midi": 53,
      "hit": false,
      "t": 301308.67287501734,
      "d": 211.76459999999497,
      "v": 64
    },
    {
      "midi": 59,
      "hit": false,
      "t": 301311.6140500173,
      "d": 223.5292999999947,
      "v": 45
    },
    {
      "midi": 64,
      "hit": false,
      "t": 301311.6140500173,
      "d": 241.17634999996517,
      "v": 55
    },
    {
      "midi": 83,
      "hit": false,
      "t": 301314.5552250173,
      "d": 261.76457499997923,
      "v": 61
    },
    {
      "midi": 71,
      "hit": false,
      "t": 301317.4964000173,
      "d": 220.5881250000093,
      "v": 64
    },
    {
      "midi": 76,
      "hit": false,
      "t": 301332.2022750173,
      "d": 170.58815000002505,
      "v": 50
    },
    {
      "midi": 59,
      "hit": false,
      "t": 301676.3197500173,
      "d": 144.11757500009844,
      "v": 26
    },
    {
      "midi": 53,
      "hit": false,
      "t": 301741.02560001734,
      "d": 73.52937500004191,
      "v": 13
    },
    {
      "midi": 64,
      "hit": false,
      "t": 301761.61382501735,
      "d": 85.29407500004163,
      "v": 50
    },
    {
      "midi": 84,
      "hit": false,
      "t": 301773.37852501735,
      "d": 117.64700000005541,
      "v": 64
    },
    {
      "midi": 72,
      "hit": false,
      "t": 301782.20205001737,
      "d": 105.8823000000557,
      "v": 45
    },
    {
      "midi": 85,
      "hit": false,
      "t": 302005.7313500174,
      "d": 111.76465000002645,
      "v": 61
    },
    {
      "midi": 73,
      "hit": false,
      "t": 302008.6725250174,
      "d": 105.8823000000557,
      "v": 57
    },
    {
      "midi": 63,
      "hit": false,
      "t": 302014.55487501743,
      "d": 144.11757500004023,
      "v": 56
    },
    {
      "midi": 58,
      "hit": false,
      "t": 302014.55487501743,
      "d": 370.5880500001367,
      "v": 57
    },
    {
      "midi": 67,
      "hit": false,
      "t": 302017.4960500174,
      "d": 208.8234250000678,
      "v": 69
    },
    {
      "midi": 79,
      "hit": false,
      "t": 302023.37840001745,
      "d": 97.05877499998314,
      "v": 50
    },
    {
      "midi": 82,
      "hit": false,
      "t": 302026.31957501743,
      "d": 108.82347500004107,
      "v": 36
    },
    {
      "midi": 62,
      "hit": false,
      "t": 302026.31957501743,
      "d": 155.88227500003995,
      "v": 59
    },
    {
      "midi": 74,
      "hit": false,
      "t": 302129.26070001745,
      "d": 70.58820000005653,
      "v": 36
    },
    {
      "midi": 86,
      "hit": false,
      "t": 302211.6136000175,
      "d": 73.52937500004191,
      "v": 30
    },
    {
      "midi": 82,
      "hit": false,
      "t": 302255.7312250175,
      "d": 97.05877500004135,
      "v": 28
    },
    {
      "midi": 79,
      "hit": false,
      "t": 302291.0253250176,
      "d": 361.76452500000596,
      "v": 35
    },
    {
      "midi": 62,
      "hit": false,
      "t": 302305.73120001756,
      "d": 82.35289999999804,
      "v": 27
    },
    {
      "midi": 74,
      "hit": false,
      "t": 302314.5547250176,
      "d": 85.29407499998342,
      "v": 43
    },
    {
      "midi": 63,
      "hit": false,
      "t": 302349.8488250176,
      "d": 49.99997499998426,
      "v": 25
    },
    {
      "midi": 84,
      "hit": false,
      "t": 302438.08407501754,
      "d": 176.4704999999958,
      "v": 38
    },
    {
      "midi": 58,
      "hit": false,
      "t": 302461.61347501754,
      "d": 185.29402500001015,
      "v": 23
    },
    {
      "midi": 72,
      "hit": false,
      "t": 302470.43700001755,
      "d": 164.7057999999961,
      "v": 44
    },
    {
      "midi": 63,
      "hit": false,
      "t": 302476.3193500176,
      "d": 99.99994999996852,
      "v": 29
    },
    {
      "midi": 62,
      "hit": false,
      "t": 302476.3193500176,
      "d": 111.76464999996824,
      "v": 32
    },
    {
      "midi": 67,
      "hit": false,
      "t": 302479.26052501757,
      "d": 123.52934999996796,
      "v": 11
    },
    {
      "midi": 67,
      "hit": false,
      "t": 302843.96622501756,
      "d": 64.70584999996936,
      "v": 56
    },
    {
      "midi": 63,
      "hit": false,
      "t": 302846.90740001755,
      "d": 120.58817499998258,
      "v": 45
    },
    {
      "midi": 62,
      "hit": false,
      "t": 302849.84857501753,
      "d": 94.11759999999776,
      "v": 46
    },
    {
      "midi": 58,
      "hit": false,
      "t": 302849.84857501753,
      "d": 108.82347499998286,
      "v": 37
    },
    {
      "midi": 75,
      "hit": false,
      "t": 302861.61327501753,
      "d": 82.35289999999804,
      "v": 57
    },
    {
      "midi": 87,
      "hit": false,
      "t": 302861.61327501753,
      "d": 105.88229999999749,
      "v": 61
    },
    {
      "midi": 67,
      "hit": false,
      "t": 303561.61292501754,
      "d": 155.88227499998175,
      "v": 60
    },
    {
      "midi": 63,
      "hit": false,
      "t": 303561.61292501754,
      "d": 185.29402500001015,
      "v": 49
    },
    {
      "midi": 56,
      "hit": false,
      "t": 303564.5541000175,
      "d": 155.88227499998175,
      "v": 48
    },
    {
      "midi": 87,
      "hit": false,
      "t": 303564.5541000175,
      "d": 176.4704999999958,
      "v": 74
    },
    {
      "midi": 75,
      "hit": false,
      "t": 303567.4952750175,
      "d": 152.94109999999637,
      "v": 75
    },
    {
      "midi": 80,
      "hit": false,
      "t": 303576.3188000175,
      "d": 111.76464999996824,
      "v": 52
    },
    {
      "midi": 60,
      "hit": false,
      "t": 303579.2599750175,
      "d": 144.11757499998203,
      "v": 62
    },
    {
      "midi": 84,
      "hit": false,
      "t": 303593.9658500175,
      "d": 99.99995000002673,
      "v": 41
    },
    {
      "midi": 63,
      "hit": false,
      "t": 303802.78927501757,
      "d": 85.29407500004163,
      "v": 52
    },
    {
      "midi": 56,
      "hit": false,
      "t": 303808.6716250176,
      "d": 79.41172500001267,
      "v": 56
    },
    {
      "midi": 89,
      "hit": false,
      "t": 303808.6716250176,
      "d": 79.41172500001267,
      "v": 74
    },
    {
      "midi": 67,
      "hit": false,
      "t": 303811.6128000176,
      "d": 52.94115000002785,
      "v": 59
    },
    {
      "midi": 77,
      "hit": false,
      "t": 303811.6128000176,
      "d": 64.70585000002757,
      "v": 69
    },
    {
      "midi": 60,
      "hit": false,
      "t": 303823.3775000176,
      "d": 35.29409999999916,
      "v": 53
    },
    {
      "midi": 75,
      "hit": false,
      "t": 303949.84802501765,
      "d": 185.29402500006836,
      "v": 52
    },
    {
      "midi": 87,
      "hit": false,
      "t": 303952.78920001764,
      "d": 164.7058000000543,
      "v": 15
    },
    {
      "midi": 56,
      "hit": false,
      "t": 303952.78920001764,
      "d": 191.17637500009732,
      "v": 54
    },
    {
      "midi": 63,
      "hit": false,
      "t": 303952.78920001764,
      "d": 194.1175500000827,
      "v": 38
    },
    {
      "midi": 67,
      "hit": false,
      "t": 303955.7303750176,
      "d": 144.11757500004023,
      "v": 47
    },
    {
      "midi": 60,
      "hit": false,
      "t": 303973.37742501765,
      "d": 202.94107500009704,
      "v": 50
    },
    {
      "midi": 66,
      "hit": false,
      "t": 304288.0831500178,
      "d": 144.11757499998203,
      "v": 53
    },
    {
      "midi": 74,
      "hit": false,
      "t": 304296.9066750178,
      "d": 99.99994999996852,
      "v": 55
    },
    {
      "midi": 86,
      "hit": false,
      "t": 304296.9066750178,
      "d": 108.82347499998286,
      "v": 60
    },
    {
      "midi": 62,
      "hit": false,
      "t": 304299.8478500178,
      "d": 149.999925000011,
      "v": 49
    },
    {
      "midi": 60,
      "hit": false,
      "t": 304308.6713750178,
      "d": 91.17642499995418,
      "v": 38
    },
    {
      "midi": 56,
      "hit": false,
      "t": 304323.3772500178,
      "d": 94.11759999999776,
      "v": 23
    },
    {
      "midi": 66,
      "hit": false,
      "t": 304514.5536250178,
      "d": 79.41172500001267,
      "v": 69
    },
    {
      "midi": 75,
      "hit": false,
      "t": 304517.4948000178,
      "d": 102.94112500001211,
      "v": 58
    },
    {
      "midi": 87,
      "hit": false,
      "t": 304517.4948000178,
      "d": 102.94112500001211,
      "v": 71
    },
    {
      "midi": 56,
      "hit": false,
      "t": 304526.3183250178,
      "d": 302.9410250001238,
      "v": 52
    },
    {
      "midi": 62,
      "hit": false,
      "t": 304532.20067501784,
      "d": 288.23515000008047,
      "v": 57
    },
    {
      "midi": 60,
      "hit": false,
      "t": 304555.73007501784,
      "d": 41.17644999996992,
      "v": 34
    },
    {
      "midi": 66,
      "hit": false,
      "t": 304655.7300250178,
      "d": 141.17640000005485,
      "v": 37
    },
    {
      "midi": 86,
      "hit": false,
      "t": 304676.3182500178,
      "d": 91.17642500001239,
      "v": 47
    },
    {
      "midi": 74,
      "hit": false,
      "t": 304679.2594250178,
      "d": 123.52935000008438,
      "v": 44
    },
    {
      "midi": 84,
      "hit": false,
      "t": 304873.37697501795,
      "d": 76.47054999996908,
      "v": 56
    },
    {
      "midi": 65,
      "hit": false,
      "t": 304893.96520001796,
      "d": 44.1176249999553,
      "v": 31
    },
    {
      "midi": 72,
      "hit": false,
      "t": 304896.90637501795,
      "d": 61.76467499998398,
      "v": 37
    },
    {
      "midi": 62,
      "hit": false,
      "t": 304899.84755001793,
      "d": 85.29407500004163,
      "v": 22
    },
    {
      "midi": 60,
      "hit": false,
      "t": 304911.61225001793,
      "d": 67.64702500001295,
      "v": 30
    },
    {
      "midi": 70,
      "hit": false,
      "t": 305052.788650018,
      "d": 135.2940500000259,
      "v": 42
    },
    {
      "midi": 82,
      "hit": false,
      "t": 305055.729825018,
      "d": 141.17640000005485,
      "v": 32
    },
    {
      "midi": 55,
      "hit": false,
      "t": 305061.612175018,
      "d": 114.70582500001183,
      "v": 20
    },
    {
      "midi": 62,
      "hit": false,
      "t": 305061.612175018,
      "d": 114.70582500001183,
      "v": 22
    },
    {
      "midi": 60,
      "hit": false,
      "t": 305064.553350018,
      "d": 91.17642500001239,
      "v": 36
    },
    {
      "midi": 82,
      "hit": false,
      "t": 305326.317925018,
      "d": 194.1175499999663,
      "v": 45
    },
    {
      "midi": 65,
      "hit": false,
      "t": 305329.259100018,
      "d": 97.05877499998314,
      "v": 34
    },
    {
      "midi": 55,
      "hit": false,
      "t": 305329.259100018,
      "d": 144.11757499998203,
      "v": 41
    },
    {
      "midi": 62,
      "hit": false,
      "t": 305332.200275018,
      "d": 67.64702500001295,
      "v": 34
    },
    {
      "midi": 60,
      "hit": false,
      "t": 305341.023800018,
      "d": 47.05879999999888,
      "v": 38
    },
    {
      "midi": 70,
      "hit": false,
      "t": 305341.023800018,
      "d": 164.7057999999961,
      "v": 39
    },
    {
      "midi": 65,
      "hit": false,
      "t": 305688.08245001803,
      "d": 367.64687500009313,
      "v": 52
    },
    {
      "midi": 82,
      "hit": false,
      "t": 305691.023625018,
      "d": 499.99975000013364,
      "v": 43
    },
    {
      "midi": 58,
      "hit": false,
      "t": 305696.90597501805,
      "d": 394.11745000007795,
      "v": 32
    },
    {
      "midi": 54,
      "hit": false,
      "t": 305696.90597501805,
      "d": 432.3527250000625,
      "v": 35
    },
    {
      "midi": 70,
      "hit": false,
      "t": 305702.7883250181,
      "d": 479.4115250000614,
      "v": 36
    },
    {
      "midi": 60,
      "hit": false,
      "t": 305708.6706750181,
      "d": 355.8821750000352,
      "v": 47
    },
    {
      "midi": 77,
      "hit": false,
      "t": 305711.6118500181,
      "d": 488.2350500000757,
      "v": 44
    },
    {
      "midi": 62,
      "hit": false,
      "t": 306379.25857501815,
      "d": 405.8821500000777,
      "v": 40
    },
    {
      "midi": 82,
      "hit": false,
      "t": 306388.08210001816,
      "d": 470.58800000004703,
      "v": 51
    },
    {
      "midi": 70,
      "hit": false,
      "t": 306393.9644500182,
      "d": 370.5880500000203,
      "v": 39
    },
    {
      "midi": 55,
      "hit": false,
      "t": 306393.9644500182,
      "d": 391.17627500003437,
      "v": 35
    },
    {
      "midi": 53,
      "hit": false,
      "t": 306399.8468000182,
      "d": 388.2350999999908,
      "v": 38
    },
    {
      "midi": 58,
      "hit": false,
      "t": 306399.8468000182,
      "d": 582.3526500000153,
      "v": 35
    },
    {
      "midi": 77,
      "hit": false,
      "t": 306405.72915001825,
      "d": 426.4703749999753,
      "v": 37
    },
    {
      "midi": 63,
      "hit": false,
      "t": 307096.90527501825,
      "d": 129.41170000005513,
      "v": 53
    },
    {
      "midi": 58,
      "hit": false,
      "t": 307099.84645001823,
      "d": 173.52932500006864,
      "v": 37
    },
    {
      "midi": 79,
      "hit": false,
      "t": 307102.7876250182,
      "d": 97.05877500004135,
      "v": 55
    },
    {
      "midi": 67,
      "hit": false,
      "t": 307105.7288000182,
      "d": 99.99995000008494,
      "v": 62
    },
    {
      "midi": 75,
      "hit": false,
      "t": 307105.7288000182,
      "d": 185.29402500012657,
      "v": 45
    },
    {
      "midi": 52,
      "hit": false,
      "t": 307111.61115001823,
      "d": 97.05877500004135,
      "v": 46
    },
    {
      "midi": 68,
      "hit": false,
      "t": 307355.7286750183,
      "d": 105.88229999999749,
      "v": 71
    },
    {
      "midi": 80,
      "hit": false,
      "t": 307355.7286750183,
      "d": 120.58817499998258,
      "v": 64
    },
    {
      "midi": 75,
      "hit": false,
      "t": 307355.7286750183,
      "d": 144.11757499998203,
      "v": 46
    },
    {
      "midi": 63,
      "hit": false,
      "t": 307364.5522000183,
      "d": 94.11759999999776,
      "v": 61
    },
    {
      "midi": 52,
      "hit": false,
      "t": 307367.4933750183,
      "d": 105.88229999999749,
      "v": 64
    },
    {
      "midi": 58,
      "hit": false,
      "t": 307373.3757250183,
      "d": 144.11757499998203,
      "v": 51
    },
    {
      "midi": 52,
      "hit": false,
      "t": 307564.5521000183,
      "d": 73.5293749999837,
      "v": 46
    },
    {
      "midi": 58,
      "hit": false,
      "t": 307567.4932750183,
      "d": 126.47052500001155,
      "v": 36
    },
    {
      "midi": 63,
      "hit": false,
      "t": 307570.4344500183,
      "d": 99.99995000002673,
      "v": 54
    },
    {
      "midi": 82,
      "hit": false,
      "t": 307579.2579750183,
      "d": 123.52935000002617,
      "v": 74
    },
    {
      "midi": 70,
      "hit": false,
      "t": 307582.1991500183,
      "d": 91.17642500001239,
      "v": 73
    },
    {
      "midi": 75,
      "hit": false,
      "t": 307593.9638500183,
      "d": 82.35289999999804,
      "v": 49
    },
    {
      "midi": 63,
      "hit": false,
      "t": 307793.96375001833,
      "d": 261.764574999921,
      "v": 67
    },
    {
      "midi": 53,
      "hit": false,
      "t": 307793.96375001833,
      "d": 405.88214999996126,
      "v": 62
    },
    {
      "midi": 82,
      "hit": false,
      "t": 307796.9049250183,
      "d": 261.764574999921,
      "v": 74
    },
    {
      "midi": 60,
      "hit": false,
      "t": 307799.8461000183,
      "d": 279.4116249999497,
      "v": 70
    },
    {
      "midi": 56,
      "hit": false,
      "t": 307799.8461000183,
      "d": 420.58802500006277,
      "v": 52
    },
    {
      "midi": 70,
      "hit": false,
      "t": 307802.7872750183,
      "d": 267.64692499995,
      "v": 78
    },
    {
      "midi": 75,
      "hit": false,
      "t": 307805.7284500183,
      "d": 299.99984999996377,
      "v": 72
    },
    {
      "midi": 63,
      "hit": false,
      "t": 308135.14005001826,
      "d": 97.05877500009956,
      "v": 51
    },
    {
      "midi": 68,
      "hit": false,
      "t": 308141.0224000183,
      "d": 64.70585000002757,
      "v": 49
    },
    {
      "midi": 75,
      "hit": false,
      "t": 308141.0224000183,
      "d": 88.23525000008522,
      "v": 33
    },
    {
      "midi": 80,
      "hit": false,
      "t": 308143.9635750183,
      "d": 70.58820000005653,
      "v": 44
    },
    {
      "midi": 54,
      "hit": false,
      "t": 308396.90462501836,
      "d": 455.88212500012014,
      "v": 68
    },
    {
      "midi": 83,
      "hit": false,
      "t": 308396.90462501836,
      "d": 626.4702750002034,
      "v": 74
    },
    {
      "midi": 59,
      "hit": false,
      "t": 308399.84580001835,
      "d": 423.52920000010636,
      "v": 76
    },
    {
      "midi": 63,
      "hit": false,
      "t": 308399.84580001835,
      "d": 458.8233000001637,
      "v": 82
    },
    {
      "midi": 71,
      "hit": false,
      "t": 308399.84580001835,
      "d": 547.0585500001907,
      "v": 80
    },
    {
      "midi": 58,
      "hit": false,
      "t": 308405.7281500184,
      "d": 438.23507500009146,
      "v": 69
    },
    {
      "midi": 78,
      "hit": false,
      "t": 308405.7281500184,
      "d": 597.058525000175,
      "v": 71
    },
    {
      "midi": 80,
      "hit": false,
      "t": 308411.6105000184,
      "d": 29.411750000028405,
      "v": 52
    },
    {
      "midi": 66,
      "hit": false,
      "t": 309196.9042250186,
      "d": 582.3526500000735,
      "v": 68
    },
    {
      "midi": 86,
      "hit": false,
      "t": 309199.84540001856,
      "d": 182.35285000002477,
      "v": 105
    },
    {
      "midi": 57,
      "hit": false,
      "t": 309205.7277500186,
      "d": 505.8821000000462,
      "v": 64
    },
    {
      "midi": 61,
      "hit": false,
      "t": 309205.7277500186,
      "d": 561.7644250000594,
      "v": 55
    },
    {
      "midi": 62,
      "hit": false,
      "t": 309208.6689250186,
      "d": 529.4115000000456,
      "v": 66
    },
    {
      "midi": 87,
      "hit": false,
      "t": 309396.90412501857,
      "d": 91.17642500001239,
      "v": 44
    },
    {
      "midi": 86,
      "hit": false,
      "t": 309455.72762501857,
      "d": 61.76467500004219,
      "v": 64
    },
    {
      "midi": 85,
      "hit": false,
      "t": 309505.7276000186,
      "d": 47.05879999999888,
      "v": 49
    },
    {
      "midi": 86,
      "hit": false,
      "t": 309582.19815001864,
      "d": 197.05872500000987,
      "v": 71
    },
    {
      "midi": 66,
      "hit": false,
      "t": 309914.5509250187,
      "d": 376.47040000004927,
      "v": 36
    },
    {
      "midi": 62,
      "hit": false,
      "t": 309932.1979750187,
      "d": 355.8821750000352,
      "v": 43
    },
    {
      "midi": 56,
      "hit": false,
      "t": 309932.1979750187,
      "d": 455.8821250000037,
      "v": 32
    },
    {
      "midi": 86,
      "hit": false,
      "t": 310267.4919250187,
      "d": 235.2939999999944,
      "v": 56
    },
    {
      "midi": 87,
      "hit": false,
      "t": 310467.4918250187,
      "d": 88.2352499999688,
      "v": 45
    },
    {
      "midi": 88,
      "hit": false,
      "t": 310552.7859000187,
      "d": 76.47054999996908,
      "v": 72
    },
    {
      "midi": 65,
      "hit": false,
      "t": 310602.7858750187,
      "d": 411.7644999999902,
      "v": 38
    },
    {
      "midi": 62,
      "hit": false,
      "t": 310611.6094000187,
      "d": 388.2350999999908,
      "v": 48
    },
    {
      "midi": 60,
      "hit": false,
      "t": 310614.5505750187,
      "d": 388.2350999999908,
      "v": 53
    },
    {
      "midi": 55,
      "hit": false,
      "t": 310614.5505750187,
      "d": 441.1762500000186,
      "v": 47
    },
    {
      "midi": 89,
      "hit": false,
      "t": 310629.25645001867,
      "d": 532.352675000031,
      "v": 78
    },
    {
      "midi": 87,
      "hit": false,
      "t": 310996.9033250187,
      "d": 167.64697499998147,
      "v": 59
    },
    {
      "midi": 66,
      "hit": false,
      "t": 311226.3149750187,
      "d": 523.5291499999585,
      "v": 83
    },
    {
      "midi": 61,
      "hit": false,
      "t": 311226.3149750187,
      "d": 647.0584999999846,
      "v": 80
    },
    {
      "midi": 87,
      "hit": false,
      "t": 311226.3149750187,
      "d": 1879.41082499997,
      "v": 87
    },
    {
      "midi": 55,
      "hit": false,
      "t": 311229.25615001866,
      "d": 517.6467999999877,
      "v": 84
    },
    {
      "midi": 67,
      "hit": false,
      "t": 313167.4904750186,
      "d": 679.4114250000566,
      "v": 72
    },
    {
      "midi": 74,
      "hit": false,
      "t": 313717.4902000186,
      "d": 829.4113500000676,
      "v": 77
    },
    {
      "midi": 44,
      "hit": false,
      "t": 313729.2549000186,
      "d": 2235.2930000001215,
      "v": 48
    },
    {
      "midi": 51,
      "hit": false,
      "t": 314135.1370500187,
      "d": 1835.2932000000728,
      "v": 34
    },
    {
      "midi": 67,
      "hit": false,
      "t": 314599.8427000187,
      "d": 917.6466000000364,
      "v": 36
    },
    {
      "midi": 62,
      "hit": false,
      "t": 314602.7838750187,
      "d": 1194.117050000059,
      "v": 41
    },
    {
      "midi": 55,
      "hit": false,
      "t": 314620.43092501874,
      "d": 1014.7053750000196,
      "v": 28
    },
    {
      "midi": 72,
      "hit": false,
      "t": 315317.48940001876,
      "d": 738.234924999997,
      "v": 35
    },
    {
      "midi": 72,
      "hit": false,
      "t": 316199.84190001874,
      "d": 1597.0580250002095,
      "v": 34
    },
    {
      "midi": 64,
      "hit": false,
      "t": 316220.43012501876,
      "d": 1511.7639500001678,
      "v": 34
    },
    {
      "midi": 44,
      "hit": false,
      "t": 316229.25365001877,
      "d": 3397.0571250003413,
      "v": 31
    },
    {
      "midi": 60,
      "hit": false,
      "t": 316235.1360000188,
      "d": 1444.1169250000967,
      "v": 33
    },
    {
      "midi": 52,
      "hit": false,
      "t": 316246.9007000188,
      "d": 670.5879000000423,
      "v": 28
    },
    {
      "midi": 55,
      "hit": false,
      "t": 316585.1358250188,
      "d": 208.8234250000096,
      "v": 41
    },
    {
      "midi": 53,
      "hit": false,
      "t": 317008.66502501885,
      "d": 4470.586000000243,
      "v": 26
    },
    {
      "midi": 84,
      "hit": false,
      "t": 318120.429175019,
      "d": 111.76465000002645,
      "v": 47
    },
    {
      "midi": 72,
      "hit": false,
      "t": 318129.252700019,
      "d": 52.94115000002785,
      "v": 26
    },
    {
      "midi": 91,
      "hit": false,
      "t": 318570.428950019,
      "d": 94.11759999999776,
      "v": 45
    },
    {
      "midi": 79,
      "hit": false,
      "t": 318573.370125019,
      "d": 47.05879999999888,
      "v": 33
    },
    {
      "midi": 96,
      "hit": false,
      "t": 318943.958175019,
      "d": 88.23525000002701,
      "v": 29
    },
    {
      "midi": 91,
      "hit": false,
      "t": 319355.72267501906,
      "d": 73.52937500004191,
      "v": 38
    },
    {
      "midi": 103,
      "hit": false,
      "t": 319364.5462000191,
      "d": 70.58820000005653,
      "v": 34
    },
    {
      "midi": 108,
      "hit": false,
      "t": 319791.0165750191,
      "d": 120.58817500004079,
      "v": 53
    },
    {
      "midi": 96,
      "hit": false,
      "t": 319796.89892501914,
      "d": 182.35285000002477,
      "v": 36
    },
    {
      "midi": 60,
      "hit": false,
      "t": 320932.19247501914,
      "d": 320.58807499997783,
      "v": 48
    },
    {
      "midi": 60,
      "hit": false,
      "t": 321358.6628500191,
      "d": 299.99984999996377,
      "v": 71
    },
    {
      "midi": 60,
      "hit": false,
      "t": 321817.4861500191,
      "d": 173.52932500001043,
      "v": 66
    },
    {
      "midi": 65,
      "hit": false,
      "t": 322341.0153000191,
      "d": 1538.2345250000362,
      "v": 54
    },
    {
      "midi": 57,
      "hit": false,
      "t": 322346.89765001915,
      "d": 1299.99934999994,
      "v": 64
    },
    {
      "midi": 54,
      "hit": false,
      "t": 322349.83882501913,
      "d": 1508.8227750000078,
      "v": 46
    },
    {
      "midi": 62,
      "hit": false,
      "t": 322364.5447000191,
      "d": 1405.8816499999957,
      "v": 48
    },
    {
      "midi": 39,
      "hit": false,
      "t": 322367.4858750191,
      "d": 976.4700999999768,
      "v": 38
    },
    {
      "midi": 47,
      "hit": false,
      "t": 322376.3094000191,
      "d": 835.2936999999802,
      "v": 35
    },
    {
      "midi": 63,
      "hit": false,
      "t": 324517.4848000192,
      "d": 447.0586000000476,
      "v": 43
    },
    {
      "midi": 53,
      "hit": false,
      "t": 324538.0730250192,
      "d": 297.0586749999784,
      "v": 31
    },
    {
      "midi": 27,
      "hit": false,
      "t": 324541.0142000192,
      "d": 397.0586250000051,
      "v": 40
    },
    {
      "midi": 58,
      "hit": false,
      "t": 324543.95537501917,
      "d": 399.9998000000487,
      "v": 33
    },
    {
      "midi": 75,
      "hit": false,
      "t": 326799.83660001925,
      "d": 967.6465750001371,
      "v": 27
    },
    {
      "midi": 79,
      "hit": false,
      "t": 326891.01302501926,
      "d": 838.2348750001402,
      "v": 30
    },
    {
      "midi": 91,
      "hit": false,
      "t": 326961.60122501926,
      "d": 88.23525000002701,
      "v": 32
    },
    {
      "midi": 82,
      "hit": false,
      "t": 326967.4835750193,
      "d": 776.470200000098,
      "v": 30
    },
    {
      "midi": 86,
      "hit": false,
      "t": 327017.4835500193,
      "d": 688.2349500001292,
      "v": 47
    },
    {
      "midi": 96,
      "hit": false,
      "t": 327055.7188250193,
      "d": 70.58819999999832,
      "v": 35
    },
    {
      "midi": 98,
      "hit": false,
      "t": 327099.8364500193,
      "d": 41.17644999996992,
      "v": 33
    },
    {
      "midi": 103,
      "hit": false,
      "t": 327158.6599500193,
      "d": 35.29409999999916,
      "v": 44
    },
    {
      "midi": 107,
      "hit": false,
      "t": 327282.18930001935,
      "d": 241.17635000002338,
      "v": 62
    }
  ]
}