{
  "jsonPath": "Jazz/Cool Jazz/Art Blakey & The Jazz Messengers/the-end-of-a-love-affair.json",
  "path": "Jazz\\Cool Jazz\\Art Blakey & The Jazz Messengers\\The End Of A Love Affair.mid",
  "name": "The End Of A Love Affair",
  "difficulty": "Advanced",
  "bpm": 140.00014000014,
  "notes": [
    {
      "midi": 87,
      "hit": false,
      "t": 453.57097500000003,
      "d": 471.4280999999999,
      "v": 64
    },
    {
      "midi": 89,
      "hit": false,
      "t": 899.9991,
      "d": 460.71382500000004,
      "v": 74
    },
    {
      "midi": 91,
      "hit": false,
      "t": 1399.9986000000001,
      "d": 246.4283250000001,
      "v": 76
    },
    {
      "midi": 53,
      "hit": false,
      "t": 1403.5700250000002,
      "d": 371.42820000000006,
      "v": 38
    },
    {
      "midi": 60,
      "hit": false,
      "t": 1764.2839500000002,
      "d": 1057.1418,
      "v": 38
    },
    {
      "midi": 67,
      "hit": false,
      "t": 1989.2837250000002,
      "d": 907.1419499999997,
      "v": 50
    },
    {
      "midi": 68,
      "hit": false,
      "t": 2139.2835750000004,
      "d": 103.57132499999989,
      "v": 43
    },
    {
      "midi": 70,
      "hit": false,
      "t": 2246.4263250000004,
      "d": 57.14280000000008,
      "v": 68
    },
    {
      "midi": 72,
      "hit": false,
      "t": 2342.8548000000005,
      "d": 110.71417500000007,
      "v": 70
    },
    {
      "midi": 74,
      "hit": false,
      "t": 2446.4261250000004,
      "d": 92.85705000000007,
      "v": 65
    },
    {
      "midi": 75,
      "hit": false,
      "t": 2539.2831750000005,
      "d": 60.71422500000017,
      "v": 92
    },
    {
      "midi": 77,
      "hit": false,
      "t": 2632.1402250000006,
      "d": 110.71417500000007,
      "v": 74
    },
    {
      "midi": 79,
      "hit": false,
      "t": 2724.9972750000006,
      "d": 85.71419999999989,
      "v": 68
    },
    {
      "midi": 80,
      "hit": false,
      "t": 2796.4257750000006,
      "d": 53.571374999999534,
      "v": 65
    },
    {
      "midi": 82,
      "hit": false,
      "t": 2853.5685750000002,
      "d": 28.571399999999812,
      "v": 68
    },
    {
      "midi": 84,
      "hit": false,
      "t": 2939.282775,
      "d": 67.8570749999999,
      "v": 58
    },
    {
      "midi": 86,
      "hit": false,
      "t": 3024.996975,
      "d": 96.42847500000016,
      "v": 57
    },
    {
      "midi": 87,
      "hit": false,
      "t": 3124.9968750000003,
      "d": 85.71419999999989,
      "v": 43
    },
    {
      "midi": 88,
      "hit": false,
      "t": 3224.996775,
      "d": 32.1428249999999,
      "v": 59
    },
    {
      "midi": 89,
      "hit": false,
      "t": 3282.139575,
      "d": 128.57130000000006,
      "v": 65
    },
    {
      "midi": 62,
      "hit": false,
      "t": 3399.9966,
      "d": 1082.1417749999996,
      "v": 52
    },
    {
      "midi": 56,
      "hit": false,
      "t": 3399.9966,
      "d": 2549.997450000002,
      "v": 35
    },
    {
      "midi": 67,
      "hit": false,
      "t": 3403.568025,
      "d": 860.7134249999995,
      "v": 32
    },
    {
      "midi": 86,
      "hit": false,
      "t": 3421.42515,
      "d": 660.7136249999999,
      "v": 53
    },
    {
      "midi": 103,
      "hit": false,
      "t": 4517.8526249999995,
      "d": 346.42822500000057,
      "v": 65
    },
    {
      "midi": 67,
      "hit": false,
      "t": 4524.995475,
      "d": 385.71390000000065,
      "v": 47
    },
    {
      "midi": 91,
      "hit": false,
      "t": 4528.5669,
      "d": 378.57105000000047,
      "v": 50
    },
    {
      "midi": 101,
      "hit": false,
      "t": 5053.566375,
      "d": 203.5712250000006,
      "v": 59
    },
    {
      "midi": 89,
      "hit": false,
      "t": 5057.1378,
      "d": 282.14257500000076,
      "v": 52
    },
    {
      "midi": 65,
      "hit": false,
      "t": 5074.994925000001,
      "d": 414.28530000000046,
      "v": 39
    },
    {
      "midi": 99,
      "hit": false,
      "t": 5667.851475000001,
      "d": 217.85692500000005,
      "v": 46
    },
    {
      "midi": 87,
      "hit": false,
      "t": 5671.422900000001,
      "d": 260.7140250000002,
      "v": 44
    },
    {
      "midi": 98,
      "hit": false,
      "t": 6385.707900000002,
      "d": 217.85692500000005,
      "v": 64
    },
    {
      "midi": 51,
      "hit": false,
      "t": 6396.422175000002,
      "d": 778.5706499999997,
      "v": 40
    },
    {
      "midi": 91,
      "hit": false,
      "t": 6403.565025000003,
      "d": 260.7140249999993,
      "v": 41
    },
    {
      "midi": 86,
      "hit": false,
      "t": 6424.993575000002,
      "d": 289.28542500000003,
      "v": 41
    },
    {
      "midi": 59,
      "hit": false,
      "t": 6810.707475000002,
      "d": 392.8567499999999,
      "v": 39
    },
    {
      "midi": 62,
      "hit": false,
      "t": 7160.707125000002,
      "d": 1017.8561250000002,
      "v": 38
    },
    {
      "midi": 63,
      "hit": false,
      "t": 7371.421200000002,
      "d": 114.28560000000016,
      "v": 63
    },
    {
      "midi": 67,
      "hit": false,
      "t": 7557.135300000002,
      "d": 117.85702500000025,
      "v": 69
    },
    {
      "midi": 71,
      "hit": false,
      "t": 7760.706525000002,
      "d": 164.2855499999996,
      "v": 91
    },
    {
      "midi": 74,
      "hit": false,
      "t": 7971.420600000002,
      "d": 217.85692500000005,
      "v": 104
    },
    {
      "midi": 71,
      "hit": false,
      "t": 8196.420375000002,
      "d": 207.14264999999978,
      "v": 83
    },
    {
      "midi": 72,
      "hit": false,
      "t": 8424.991575000002,
      "d": 207.14264999999978,
      "v": 86
    },
    {
      "midi": 74,
      "hit": false,
      "t": 8667.848475000003,
      "d": 174.99982500000078,
      "v": 88
    },
    {
      "midi": 75,
      "hit": false,
      "t": 8903.562525000003,
      "d": 103.5713250000008,
      "v": 80
    },
    {
      "midi": 79,
      "hit": false,
      "t": 9135.705150000003,
      "d": 182.14267499999914,
      "v": 55
    },
    {
      "midi": 83,
      "hit": false,
      "t": 9396.419175000003,
      "d": 196.4283749999995,
      "v": 51
    },
    {
      "midi": 86,
      "hit": false,
      "t": 9653.561775000002,
      "d": 178.57125000000087,
      "v": 61
    },
    {
      "midi": 51,
      "hit": false,
      "t": 9960.704325000002,
      "d": 3274.996725000001,
      "v": 29
    },
    {
      "midi": 86,
      "hit": false,
      "t": 9978.561450000003,
      "d": 364.2853499999983,
      "v": 61
    },
    {
      "midi": 59,
      "hit": false,
      "t": 10024.989975000002,
      "d": 621.4279499999993,
      "v": 17
    },
    {
      "midi": 83,
      "hit": false,
      "t": 10299.989700000002,
      "d": 332.1425249999993,
      "v": 35
    },
    {
      "midi": 84,
      "hit": false,
      "t": 10667.846475000002,
      "d": 510.713775000002,
      "v": 59
    },
    {
      "midi": 60,
      "hit": false,
      "t": 10703.560725000003,
      "d": 2474.9975250000007,
      "v": 22
    },
    {
      "midi": 96,
      "hit": false,
      "t": 11549.988450000004,
      "d": 374.99962499999856,
      "v": 75
    },
    {
      "midi": 87,
      "hit": false,
      "t": 11589.274125000004,
      "d": 471.4280999999992,
      "v": 58
    },
    {
      "midi": 94,
      "hit": false,
      "t": 12864.272850000003,
      "d": 360.713925,
      "v": 57
    },
    {
      "midi": 86,
      "hit": false,
      "t": 12892.844250000004,
      "d": 289.28542500000003,
      "v": 58
    },
    {
      "midi": 101,
      "hit": false,
      "t": 13878.557550000003,
      "d": 228.57120000000032,
      "v": 41
    },
    {
      "midi": 90,
      "hit": false,
      "t": 13878.557550000003,
      "d": 317.85682500000075,
      "v": 37
    },
    {
      "midi": 39,
      "hit": false,
      "t": 13885.700400000003,
      "d": 439.2852750000002,
      "v": 38
    },
    {
      "midi": 94,
      "hit": false,
      "t": 13889.271825000003,
      "d": 249.99975000000086,
      "v": 46
    },
    {
      "midi": 54,
      "hit": false,
      "t": 13892.843250000004,
      "d": 378.57105000000047,
      "v": 23
    },
    {
      "midi": 46,
      "hit": false,
      "t": 14317.842825000003,
      "d": 317.85682500000075,
      "v": 44
    },
    {
      "midi": 54,
      "hit": false,
      "t": 14607.128250000003,
      "d": 128.57130000000143,
      "v": 51
    },
    {
      "midi": 58,
      "hit": false,
      "t": 14917.842225000004,
      "d": 917.8562249999995,
      "v": 65
    },
    {
      "midi": 60,
      "hit": false,
      "t": 15210.699075000004,
      "d": 557.1422999999995,
      "v": 43
    },
    {
      "midi": 61,
      "hit": false,
      "t": 15410.698875000004,
      "d": 146.42842500000006,
      "v": 69
    },
    {
      "midi": 63,
      "hit": false,
      "t": 15574.984425000004,
      "d": 107.14275000000089,
      "v": 69
    },
    {
      "midi": 65,
      "hit": false,
      "t": 15721.412850000004,
      "d": 128.5712999999996,
      "v": 79
    },
    {
      "midi": 66,
      "hit": false,
      "t": 15878.555550000005,
      "d": 117.85702499999934,
      "v": 67
    },
    {
      "midi": 68,
      "hit": false,
      "t": 16032.126825000005,
      "d": 82.14277500000026,
      "v": 65
    },
    {
      "midi": 69,
      "hit": false,
      "t": 16174.983825000005,
      "d": 110.71417499999916,
      "v": 71
    },
    {
      "midi": 72,
      "hit": false,
      "t": 16321.412250000005,
      "d": 89.28562500000044,
      "v": 52
    },
    {
      "midi": 75,
      "hit": false,
      "t": 16489.269225000004,
      "d": 132.14272500000152,
      "v": 73
    },
    {
      "midi": 78,
      "hit": false,
      "t": 16646.411925000004,
      "d": 71.4285000000018,
      "v": 59
    },
    {
      "midi": 54,
      "hit": false,
      "t": 16660.697625000004,
      "d": 407.142450000003,
      "v": 40
    },
    {
      "midi": 44,
      "hit": false,
      "t": 16682.126175000005,
      "d": 342.8568000000014,
      "v": 35
    },
    {
      "midi": 81,
      "hit": false,
      "t": 16853.554575000006,
      "d": 103.5713250000008,
      "v": 58
    },
    {
      "midi": 84,
      "hit": false,
      "t": 17014.268700000008,
      "d": 114.28559999999925,
      "v": 74
    },
    {
      "midi": 87,
      "hit": false,
      "t": 17174.982825000006,
      "d": 121.42844999999943,
      "v": 86
    },
    {
      "midi": 90,
      "hit": false,
      "t": 17321.411250000005,
      "d": 228.5711999999985,
      "v": 77
    },
    {
      "midi": 87,
      "hit": false,
      "t": 17467.839675000003,
      "d": 117.85702499999752,
      "v": 74
    },
    {
      "midi": 84,
      "hit": false,
      "t": 17582.125275000002,
      "d": 60.714224999999715,
      "v": 65
    },
    {
      "midi": 81,
      "hit": false,
      "t": 17685.696600000003,
      "d": 96.42847500000062,
      "v": 49
    },
    {
      "midi": 80,
      "hit": false,
      "t": 17817.839325000004,
      "d": 82.14277500000026,
      "v": 27
    },
    {
      "midi": 79,
      "hit": false,
      "t": 17917.839225000003,
      "d": 57.14280000000144,
      "v": 52
    },
    {
      "midi": 78,
      "hit": false,
      "t": 18003.553425000006,
      "d": 49.99995000000126,
      "v": 45
    },
    {
      "midi": 77,
      "hit": false,
      "t": 18085.696200000006,
      "d": 82.14277500000026,
      "v": 40
    },
    {
      "midi": 76,
      "hit": false,
      "t": 18217.838925000007,
      "d": 46.428524999999354,
      "v": 41
    },
    {
      "midi": 75,
      "hit": false,
      "t": 18296.410275000006,
      "d": 82.14277500000026,
      "v": 58
    },
    {
      "midi": 78,
      "hit": false,
      "t": 18403.553025000005,
      "d": 949.9990499999985,
      "v": 58
    },
    {
      "midi": 75,
      "hit": false,
      "t": 18603.552825000006,
      "d": 1614.2840999999971,
      "v": 77
    },
    {
      "midi": 54,
      "hit": false,
      "t": 18628.552800000005,
      "d": 2446.426125000002,
      "v": 29
    },
    {
      "midi": 59,
      "hit": false,
      "t": 18685.695600000006,
      "d": 146.42842499999824,
      "v": 28
    },
    {
      "midi": 63,
      "hit": false,
      "t": 18685.695600000006,
      "d": 2217.8549249999996,
      "v": 13
    },
    {
      "midi": 60,
      "hit": false,
      "t": 19171.409400000004,
      "d": 1764.283950000001,
      "v": 37
    },
    {
      "midi": 72,
      "hit": false,
      "t": 19182.123675000003,
      "d": 1624.9983750000029,
      "v": 38
    },
    {
      "midi": 75,
      "hit": false,
      "t": 20621.407950000004,
      "d": 699.9993000000031,
      "v": 71
    },
    {
      "midi": 73,
      "hit": false,
      "t": 21007.121850000007,
      "d": 457.14240000000063,
      "v": 39
    },
    {
      "midi": 72,
      "hit": false,
      "t": 21892.835250000007,
      "d": 1349.9986500000014,
      "v": 35
    },
    {
      "midi": 65,
      "hit": false,
      "t": 21896.406675000006,
      "d": 1399.9986000000026,
      "v": 53
    },
    {
      "midi": 60,
      "hit": false,
      "t": 21924.978075000006,
      "d": 1239.284475000004,
      "v": 35
    },
    {
      "midi": 49,
      "hit": false,
      "t": 21935.692350000005,
      "d": 5389.280324999992,
      "v": 40
    },
    {
      "midi": 57,
      "hit": false,
      "t": 22478.548950000008,
      "d": 453.5709749999987,
      "v": 50
    },
    {
      "midi": 58,
      "hit": false,
      "t": 22960.691325000007,
      "d": 4446.42412499999,
      "v": 55
    },
    {
      "midi": 60,
      "hit": false,
      "t": 23292.83385000001,
      "d": 342.85679999999775,
      "v": 64
    },
    {
      "midi": 61,
      "hit": false,
      "t": 23589.26212500001,
      "d": 332.1425249999993,
      "v": 85
    },
    {
      "midi": 63,
      "hit": false,
      "t": 23853.547575000008,
      "d": 257.1425999999992,
      "v": 85
    },
    {
      "midi": 65,
      "hit": false,
      "t": 24146.404425000008,
      "d": 310.71397499999875,
      "v": 64
    },
    {
      "midi": 67,
      "hit": false,
      "t": 24449.975550000006,
      "d": 517.8566250000003,
      "v": 76
    },
    {
      "midi": 68,
      "hit": false,
      "t": 24942.832200000008,
      "d": 332.14252499999566,
      "v": 69
    },
    {
      "midi": 70,
      "hit": false,
      "t": 25257.117600000005,
      "d": 246.42832499999713,
      "v": 82
    },
    {
      "midi": 72,
      "hit": false,
      "t": 25542.8316,
      "d": 346.42822499999966,
      "v": 74
    },
    {
      "midi": 73,
      "hit": false,
      "t": 25814.2599,
      "d": 296.4282749999984,
      "v": 70
    },
    {
      "midi": 75,
      "hit": false,
      "t": 26128.545299999998,
      "d": 1271.4272999999994,
      "v": 75
    },
    {
      "midi": 73,
      "hit": false,
      "t": 26435.68785,
      "d": 382.14247500000056,
      "v": 53
    },
    {
      "midi": 72,
      "hit": false,
      "t": 26792.83035,
      "d": 389.2853249999971,
      "v": 45
    },
    {
      "midi": 70,
      "hit": false,
      "t": 27182.115674999997,
      "d": 349.99965000000157,
      "v": 53
    },
    {
      "midi": 76,
      "hit": false,
      "t": 27557.115299999998,
      "d": 939.2847749999964,
      "v": 62
    },
    {
      "midi": 49,
      "hit": false,
      "t": 27567.829574999996,
      "d": 1139.2845750000015,
      "v": 29
    },
    {
      "midi": 56,
      "hit": false,
      "t": 27839.257874999996,
      "d": 796.4277750000001,
      "v": 35
    },
    {
      "midi": 59,
      "hit": false,
      "t": 28099.971899999997,
      "d": 507.14234999999826,
      "v": 43
    },
    {
      "midi": 64,
      "hit": false,
      "t": 28328.543099999995,
      "d": 778.5706500000015,
      "v": 40
    },
    {
      "midi": 68,
      "hit": false,
      "t": 28592.828549999995,
      "d": 553.5708750000013,
      "v": 29
    },
    {
      "midi": 76,
      "hit": false,
      "t": 28842.828299999997,
      "d": 164.2855500000005,
      "v": 61
    },
    {
      "midi": 30,
      "hit": false,
      "t": 29146.399424999996,
      "d": 157.1426999999967,
      "v": 37
    },
    {
      "midi": 76,
      "hit": false,
      "t": 29149.970849999994,
      "d": 1960.7123249999968,
      "v": 58
    },
    {
      "midi": 52,
      "hit": false,
      "t": 29803.541624999994,
      "d": 1574.9984249999943,
      "v": 41
    },
    {
      "midi": 58,
      "hit": false,
      "t": 29807.113049999993,
      "d": 1510.7127749999963,
      "v": 40
    },
    {
      "midi": 63,
      "hit": false,
      "t": 29824.97017499999,
      "d": 1378.5700499999984,
      "v": 21
    },
    {
      "midi": 78,
      "hit": false,
      "t": 31392.82574999999,
      "d": 178.57125000000087,
      "v": 74
    },
    {
      "midi": 80,
      "hit": false,
      "t": 31585.68269999999,
      "d": 142.85699999999997,
      "v": 85
    },
    {
      "midi": 75,
      "hit": false,
      "t": 32489.25322499999,
      "d": 264.2854499999994,
      "v": 68
    },
    {
      "midi": 71,
      "hit": false,
      "t": 32503.53892499999,
      "d": 767.8563749999994,
      "v": 70
    },
    {
      "midi": 68,
      "hit": false,
      "t": 32507.110349999988,
      "d": 953.5704749999932,
      "v": 53
    },
    {
      "midi": 63,
      "hit": false,
      "t": 32514.25319999999,
      "d": 1210.713074999996,
      "v": 58
    },
    {
      "midi": 64,
      "hit": false,
      "t": 32521.39604999999,
      "d": 807.1420500000022,
      "v": 47
    },
    {
      "midi": 75,
      "hit": false,
      "t": 32817.82432499999,
      "d": 178.57125000000087,
      "v": 59
    },
    {
      "midi": 75,
      "hit": false,
      "t": 33117.82402499999,
      "d": 217.85692500000005,
      "v": 69
    },
    {
      "midi": 73,
      "hit": false,
      "t": 33385.680899999985,
      "d": 203.57122499999969,
      "v": 37
    },
    {
      "midi": 75,
      "hit": false,
      "t": 33717.82342499999,
      "d": 628.5708000000013,
      "v": 59
    },
    {
      "midi": 70,
      "hit": false,
      "t": 33728.537699999986,
      "d": 871.4277000000075,
      "v": 55
    },
    {
      "midi": 68,
      "hit": false,
      "t": 33732.10912499999,
      "d": 1203.5702250000031,
      "v": 39
    },
    {
      "midi": 61,
      "hit": false,
      "t": 33739.251974999985,
      "d": 1078.570350000009,
      "v": 47
    },
    {
      "midi": 64,
      "hit": false,
      "t": 33739.251974999985,
      "d": 1207.141650000005,
      "v": 44
    },
    {
      "midi": 73,
      "hit": false,
      "t": 34303.53712499999,
      "d": 253.5711750000046,
      "v": 61
    },
    {
      "midi": 73,
      "hit": false,
      "t": 34624.96537499999,
      "d": 178.57125000000087,
      "v": 57
    },
    {
      "midi": 71,
      "hit": false,
      "t": 34957.10789999999,
      "d": 189.28552499999932,
      "v": 74
    },
    {
      "midi": 70,
      "hit": false,
      "t": 36428.53499999998,
      "d": 2196.426374999988,
      "v": 59
    },
    {
      "midi": 67,
      "hit": false,
      "t": 36439.24927499998,
      "d": 903.5705249999883,
      "v": 68
    },
    {
      "midi": 63,
      "hit": false,
      "t": 36439.24927499998,
      "d": 1296.4272749999873,
      "v": 56
    },
    {
      "midi": 47,
      "hit": false,
      "t": 36446.39212499998,
      "d": 3103.5683249999856,
      "v": 40
    },
    {
      "midi": 58,
      "hit": false,
      "t": 36457.106399999975,
      "d": 1414.284299999992,
      "v": 38
    },
    {
      "midi": 54,
      "hit": false,
      "t": 37021.39154999997,
      "d": 2707.140149999992,
      "v": 37
    },
    {
      "midi": 63,
      "hit": false,
      "t": 38632.10422499997,
      "d": 989.2847249999977,
      "v": 41
    },
    {
      "midi": 59,
      "hit": false,
      "t": 38639.24707499996,
      "d": 678.570749999999,
      "v": 44
    },
    {
      "midi": 68,
      "hit": false,
      "t": 39296.389274999965,
      "d": 664.2850499999986,
      "v": 62
    },
    {
      "midi": 70,
      "hit": false,
      "t": 40346.38822499996,
      "d": 321.4282500000045,
      "v": 67
    },
    {
      "midi": 46,
      "hit": false,
      "t": 40360.67392499996,
      "d": 89.28562500000407,
      "v": 46
    },
    {
      "midi": 56,
      "hit": false,
      "t": 40667.81647499996,
      "d": 128.57129999999597,
      "v": 37
    },
    {
      "midi": 58,
      "hit": false,
      "t": 40771.38779999996,
      "d": 64.28564999999799,
      "v": 70
    },
    {
      "midi": 62,
      "hit": false,
      "t": 40921.38764999996,
      "d": 146.42842500000552,
      "v": 79
    },
    {
      "midi": 64,
      "hit": false,
      "t": 40992.81614999996,
      "d": 57.14280000000144,
      "v": 43
    },
    {
      "midi": 67,
      "hit": false,
      "t": 41064.244649999964,
      "d": 67.8570749999999,
      "v": 56
    },
    {
      "midi": 65,
      "hit": false,
      "t": 41078.530349999965,
      "d": 32.14282500000263,
      "v": 65
    },
    {
      "midi": 69,
      "hit": false,
      "t": 41164.24454999997,
      "d": 32.14282500000263,
      "v": 49
    },
    {
      "midi": 71,
      "hit": false,
      "t": 41207.10164999997,
      "d": 71.4285000000018,
      "v": 68
    },
    {
      "midi": 74,
      "hit": false,
      "t": 41282.10157499997,
      "d": 74.99992500000371,
      "v": 44
    },
    {
      "midi": 76,
      "hit": false,
      "t": 41324.95867499997,
      "d": 60.71422500000335,
      "v": 47
    },
    {
      "midi": 79,
      "hit": false,
      "t": 41382.101474999974,
      "d": 28.57140000000072,
      "v": 65
    },
    {
      "midi": 80,
      "hit": false,
      "t": 41424.958574999975,
      "d": 28.57140000000072,
      "v": 68
    },
    {
      "midi": 83,
      "hit": false,
      "t": 41489.24422499997,
      "d": 85.71419999999489,
      "v": 61
    },
    {
      "midi": 86,
      "hit": false,
      "t": 41567.81557499997,
      "d": 74.99992499999644,
      "v": 69
    },
    {
      "midi": 88,
      "hit": false,
      "t": 41603.52982499997,
      "d": 49.999949999997625,
      "v": 57
    },
    {
      "midi": 91,
      "hit": false,
      "t": 41660.67262499996,
      "d": 24.999974999998813,
      "v": 56
    },
    {
      "midi": 94,
      "hit": false,
      "t": 41746.386824999965,
      "d": 64.28564999999799,
      "v": 55
    },
    {
      "midi": 95,
      "hit": false,
      "t": 41782.10107499996,
      "d": 124.99987500000134,
      "v": 50
    },
    {
      "midi": 98,
      "hit": false,
      "t": 41853.529574999964,
      "d": 99.99990000000253,
      "v": 43
    },
    {
      "midi": 100,
      "hit": false,
      "t": 41889.24382499996,
      "d": 92.85705000000598,
      "v": 74
    },
    {
      "midi": 103,
      "hit": false,
      "t": 41978.529449999965,
      "d": 67.8570749999999,
      "v": 73
    },
    {
      "midi": 70,
      "hit": false,
      "t": 42882.09997499997,
      "d": 282.14257499999803,
      "v": 80
    },
    {
      "midi": 72,
      "hit": false,
      "t": 43182.09967499997,
      "d": 78.57134999999835,
      "v": 49
    },
    {
      "midi": 70,
      "hit": false,
      "t": 43253.52817499997,
      "d": 135.71414999999251,
      "v": 61
    },
    {
      "midi": 69,
      "hit": false,
      "t": 43382.099474999966,
      "d": 321.4282499999972,
      "v": 52
    },
    {
      "midi": 70,
      "hit": false,
      "t": 43664.242049999964,
      "d": 246.42832500000077,
      "v": 71
    },
    {
      "midi": 79,
      "hit": false,
      "t": 43989.24172499996,
      "d": 757.1420999999973,
      "v": 74
    },
    {
      "midi": 74,
      "hit": false,
      "t": 44557.09829999996,
      "d": 482.1423750000031,
      "v": 68
    },
    {
      "midi": 70,
      "hit": false,
      "t": 44992.81214999996,
      "d": 328.571100000001,
      "v": 58
    },
    {
      "midi": 51,
      "hit": false,
      "t": 45010.669274999964,
      "d": 1517.8556250000038,
      "v": 34
    },
    {
      "midi": 59,
      "hit": false,
      "t": 45342.81179999996,
      "d": 978.5704500000065,
      "v": 29
    },
    {
      "midi": 74,
      "hit": false,
      "t": 45653.52577499996,
      "d": 607.1422500000044,
      "v": 44
    },
    {
      "midi": 62,
      "hit": false,
      "t": 45667.81147499996,
      "d": 328.571100000001,
      "v": 38
    },
    {
      "midi": 82,
      "hit": false,
      "t": 45967.81117499996,
      "d": 239.28547500000423,
      "v": 77
    },
    {
      "midi": 85,
      "hit": false,
      "t": 46321.382249999966,
      "d": 28.57140000000072,
      "v": 74
    },
    {
      "midi": 86,
      "hit": false,
      "t": 46346.382224999965,
      "d": 539.2851749999973,
      "v": 97
    },
    {
      "midi": 60,
      "hit": false,
      "t": 46349.95364999997,
      "d": 332.14252499999566,
      "v": 55
    },
    {
      "midi": 75,
      "hit": false,
      "t": 46353.52507499997,
      "d": 485.71379999999044,
      "v": 68
    },
    {
      "midi": 48,
      "hit": false,
      "t": 46735.66754999996,
      "d": 414.2853000000032,
      "v": 68
    },
    {
      "midi": 75,
      "hit": false,
      "t": 47135.667149999965,
      "d": 760.7135250000065,
      "v": 69
    },
    {
      "midi": 72,
      "hit": false,
      "t": 47146.38142499996,
      "d": 403.57102500000474,
      "v": 46
    },
    {
      "midi": 58,
      "hit": false,
      "t": 47160.66712499996,
      "d": 57.14280000000144,
      "v": 43
    },
    {
      "midi": 77,
      "hit": false,
      "t": 47903.52352499997,
      "d": 332.14252500000293,
      "v": 80
    },
    {
      "midi": 79,
      "hit": false,
      "t": 48192.80894999997,
      "d": 214.28549999999814,
      "v": 97
    },
    {
      "midi": 82,
      "hit": false,
      "t": 48449.95154999997,
      "d": 771.4277999999904,
      "v": 82
    },
    {
      "midi": 79,
      "hit": false,
      "t": 48742.808399999965,
      "d": 307.14254999999685,
      "v": 74
    },
    {
      "midi": 77,
      "hit": false,
      "t": 49103.52232499996,
      "d": 349.9996499999979,
      "v": 41
    },
    {
      "midi": 60,
      "hit": false,
      "t": 49124.95087499996,
      "d": 421.42814999999973,
      "v": 45
    },
    {
      "midi": 63,
      "hit": false,
      "t": 49139.23657499996,
      "d": 382.14247500000056,
      "v": 41
    },
    {
      "midi": 68,
      "hit": false,
      "t": 49149.95084999996,
      "d": 367.8567750000002,
      "v": 16
    },
    {
      "midi": 79,
      "hit": false,
      "t": 49457.09339999996,
      "d": 557.1422999999922,
      "v": 63
    },
    {
      "midi": 58,
      "hit": false,
      "t": 49478.52194999996,
      "d": 96.42847500000062,
      "v": 31
    },
    {
      "midi": 72,
      "hit": false,
      "t": 49871.37869999996,
      "d": 789.2849249999999,
      "v": 38
    },
    {
      "midi": 53,
      "hit": false,
      "t": 49914.23579999996,
      "d": 557.1422999999995,
      "v": 28
    },
    {
      "midi": 63,
      "hit": false,
      "t": 49939.23577499996,
      "d": 367.8567749999929,
      "v": 10
    },
    {
      "midi": 79,
      "hit": false,
      "t": 50310.66397499995,
      "d": 357.14250000000175,
      "v": 76
    },
    {
      "midi": 60,
      "hit": false,
      "t": 50324.94967499995,
      "d": 60.71422500000335,
      "v": 32
    },
    {
      "midi": 79,
      "hit": false,
      "t": 50817.806324999954,
      "d": 503.570925,
      "v": 67
    },
    {
      "midi": 46,
      "hit": false,
      "t": 50835.663449999956,
      "d": 178.57125000000087,
      "v": 43
    },
    {
      "midi": 79,
      "hit": false,
      "t": 51407.091449999956,
      "d": 421.42814999999973,
      "v": 40
    },
    {
      "midi": 56,
      "hit": false,
      "t": 51449.94854999996,
      "d": 2153.569274999987,
      "v": 35
    },
    {
      "midi": 70,
      "hit": false,
      "t": 51467.80567499996,
      "d": 507.1423499999946,
      "v": 34
    },
    {
      "midi": 62,
      "hit": false,
      "t": 51507.09134999996,
      "d": 385.7138999999952,
      "v": 17
    },
    {
      "midi": 65,
      "hit": false,
      "t": 51514.234199999955,
      "d": 353.57107499999984,
      "v": 34
    },
    {
      "midi": 77,
      "hit": false,
      "t": 52407.09044999995,
      "d": 1132.141724999994,
      "v": 76
    },
    {
      "midi": 71,
      "hit": false,
      "t": 52432.09042499995,
      "d": 1014.2846999999965,
      "v": 81
    },
    {
      "midi": 62,
      "hit": false,
      "t": 52446.37612499995,
      "d": 1085.7131999999983,
      "v": 62
    },
    {
      "midi": 68,
      "hit": false,
      "t": 52453.51897499995,
      "d": 982.1418750000012,
      "v": 53
    },
    {
      "midi": 59,
      "hit": false,
      "t": 53589.232124999944,
      "d": 149.99985000000015,
      "v": 47
    },
    {
      "midi": 75,
      "hit": false,
      "t": 53592.803549999946,
      "d": 382.1424749999933,
      "v": 57
    },
    {
      "midi": 68,
      "hit": false,
      "t": 53603.517824999944,
      "d": 317.8568249999953,
      "v": 35
    },
    {
      "midi": 71,
      "hit": false,
      "t": 53607.089249999946,
      "d": 264.28544999999576,
      "v": 50
    },
    {
      "midi": 67,
      "hit": false,
      "t": 54042.80309999994,
      "d": 703.570725000005,
      "v": 43
    },
    {
      "midi": 74,
      "hit": false,
      "t": 54042.80309999994,
      "d": 1857.140999999996,
      "v": 70
    },
    {
      "midi": 70,
      "hit": false,
      "t": 54053.51737499994,
      "d": 721.4278500000073,
      "v": 34
    },
    {
      "midi": 51,
      "hit": false,
      "t": 54053.51737499994,
      "d": 2285.7119999999995,
      "v": 45
    },
    {
      "midi": 59,
      "hit": false,
      "t": 54439.23127499994,
      "d": 371.4282000000021,
      "v": 50
    },
    {
      "midi": 67,
      "hit": false,
      "t": 54892.80224999994,
      "d": 1707.1411499999958,
      "v": 63
    },
    {
      "midi": 62,
      "hit": false,
      "t": 54899.94509999994,
      "d": 378.57104999999865,
      "v": 63
    },
    {
      "midi": 60,
      "hit": false,
      "t": 55385.65889999994,
      "d": 1278.5701500000068,
      "v": 65
    },
    {
      "midi": 51,
      "hit": false,
      "t": 56439.22927499994,
      "d": 614.285100000001,
      "v": 45
    },
    {
      "midi": 62,
      "hit": false,
      "t": 56867.80027499994,
      "d": 271.4282999999996,
      "v": 71
    },
    {
      "midi": 63,
      "hit": false,
      "t": 57121.37144999994,
      "d": 164.2855500000005,
      "v": 35
    },
    {
      "midi": 64,
      "hit": false,
      "t": 57307.08554999994,
      "d": 157.1426999999967,
      "v": 41
    },
    {
      "midi": 65,
      "hit": false,
      "t": 57464.228249999935,
      "d": 135.7141499999998,
      "v": 46
    },
    {
      "midi": 66,
      "hit": false,
      "t": 57857.084999999934,
      "d": 96.42847500000062,
      "v": 51
    },
    {
      "midi": 67,
      "hit": false,
      "t": 57964.22774999993,
      "d": 89.2856249999968,
      "v": 55
    },
    {
      "midi": 68,
      "hit": false,
      "t": 58071.37049999993,
      "d": 71.4285000000018,
      "v": 58
    },
    {
      "midi": 69,
      "hit": false,
      "t": 58178.51324999993,
      "d": 157.1426999999967,
      "v": 63
    },
    {
      "midi": 70,
      "hit": false,
      "t": 58285.65599999993,
      "d": 107.14274999999907,
      "v": 73
    },
    {
      "midi": 71,
      "hit": false,
      "t": 58410.65587499993,
      "d": 82.14277500000026,
      "v": 76
    },
    {
      "midi": 72,
      "hit": false,
      "t": 58510.655774999934,
      "d": 67.8570749999999,
      "v": 80
    },
    {
      "midi": 73,
      "hit": false,
      "t": 58592.798549999934,
      "d": 132.14272499999788,
      "v": 82
    },
    {
      "midi": 74,
      "hit": false,
      "t": 58724.94127499993,
      "d": 114.28560000000289,
      "v": 86
    },
    {
      "midi": 75,
      "hit": false,
      "t": 58835.65544999993,
      "d": 60.71422499999608,
      "v": 91
    },
    {
      "midi": 76,
      "hit": false,
      "t": 58903.512524999926,
      "d": 92.85704999999871,
      "v": 93
    },
    {
      "midi": 39,
      "hit": false,
      "t": 59024.940974999925,
      "d": 371.42819999999483,
      "v": 45
    },
    {
      "midi": 54,
      "hit": false,
      "t": 59039.226674999925,
      "d": 371.42819999999483,
      "v": 29
    },
    {
      "midi": 77,
      "hit": false,
      "t": 59074.94092499992,
      "d": 703.5707249999978,
      "v": 95
    },
    {
      "midi": 66,
      "hit": false,
      "t": 59814.22589999992,
      "d": 385.71390000000247,
      "v": 40
    },
    {
      "midi": 54,
      "hit": false,
      "t": 59814.22589999992,
      "d": 810.7134749999968,
      "v": 17
    },
    {
      "midi": 70,
      "hit": false,
      "t": 59817.79732499992,
      "d": 328.571100000001,
      "v": 40
    },
    {
      "midi": 58,
      "hit": false,
      "t": 59821.36874999992,
      "d": 728.5706999999966,
      "v": 35
    },
    {
      "midi": 61,
      "hit": false,
      "t": 59821.36874999992,
      "d": 732.1421249999985,
      "v": 39
    },
    {
      "midi": 65,
      "hit": false,
      "t": 59857.08299999992,
      "d": 585.7137000000002,
      "v": 16
    },
    {
      "midi": 70,
      "hit": false,
      "t": 60228.51119999992,
      "d": 324.9996749999991,
      "v": 65
    },
    {
      "midi": 77,
      "hit": false,
      "t": 60589.22512499992,
      "d": 357.14249999999447,
      "v": 86
    },
    {
      "midi": 77,
      "hit": false,
      "t": 61039.22467499991,
      "d": 264.28544999999576,
      "v": 77
    },
    {
      "midi": 32,
      "hit": false,
      "t": 61046.36752499991,
      "d": 132.14272499999788,
      "v": 50
    },
    {
      "midi": 69,
      "hit": false,
      "t": 61046.36752499991,
      "d": 149.99985000000015,
      "v": 76
    },
    {
      "midi": 44,
      "hit": false,
      "t": 61049.93894999991,
      "d": 171.42839999999705,
      "v": 32
    },
    {
      "midi": 74,
      "hit": false,
      "t": 61057.081799999905,
      "d": 178.57125000000087,
      "v": 59
    },
    {
      "midi": 66,
      "hit": false,
      "t": 61082.081774999904,
      "d": 164.2855500000005,
      "v": 34
    },
    {
      "midi": 81,
      "hit": false,
      "t": 61571.366999999904,
      "d": 257.1425999999992,
      "v": 74
    },
    {
      "midi": 78,
      "hit": false,
      "t": 61582.0812749999,
      "d": 403.57102499999746,
      "v": 57
    },
    {
      "midi": 74,
      "hit": false,
      "t": 61585.652699999904,
      "d": 296.4282749999984,
      "v": 68
    },
    {
      "midi": 69,
      "hit": false,
      "t": 61607.0812499999,
      "d": 178.57125000000087,
      "v": 43
    },
    {
      "midi": 54,
      "hit": false,
      "t": 61610.6526749999,
      "d": 1478.5699500000046,
      "v": 31
    },
    {
      "midi": 71,
      "hit": false,
      "t": 62124.9378749999,
      "d": 357.14249999999447,
      "v": 64
    },
    {
      "midi": 76,
      "hit": false,
      "t": 62135.6521499999,
      "d": 217.85692499999277,
      "v": 58
    },
    {
      "midi": 80,
      "hit": false,
      "t": 62135.6521499999,
      "d": 232.14262499999313,
      "v": 43
    },
    {
      "midi": 59,
      "hit": false,
      "t": 62142.7949999999,
      "d": 371.4282000000021,
      "v": 39
    },
    {
      "midi": 64,
      "hit": false,
      "t": 62149.93784999989,
      "d": 367.8567750000075,
      "v": 19
    },
    {
      "midi": 76,
      "hit": false,
      "t": 62753.5086749999,
      "d": 278.5711500000034,
      "v": 64
    },
    {
      "midi": 71,
      "hit": false,
      "t": 62771.365799999905,
      "d": 374.999625000004,
      "v": 53
    },
    {
      "midi": 68,
      "hit": false,
      "t": 62771.365799999905,
      "d": 521.4280500000023,
      "v": 37
    },
    {
      "midi": 59,
      "hit": false,
      "t": 62785.651499999905,
      "d": 164.2855500000005,
      "v": 23
    },
    {
      "midi": 65,
      "hit": false,
      "t": 63567.79357499991,
      "d": 1114.2846000000063,
      "v": 46
    },
    {
      "midi": 69,
      "hit": false,
      "t": 63567.79357499991,
      "d": 1189.2845250000028,
      "v": 56
    },
    {
      "midi": 72,
      "hit": false,
      "t": 63567.79357499991,
      "d": 1349.9986500000014,
      "v": 43
    },
    {
      "midi": 49,
      "hit": false,
      "t": 63582.07927499991,
      "d": 3853.567575000008,
      "v": 40
    },
    {
      "midi": 60,
      "hit": false,
      "t": 63585.65069999991,
      "d": 1092.8560500000021,
      "v": 40
    },
    {
      "midi": 57,
      "hit": false,
      "t": 63617.793524999914,
      "d": 667.8564750000005,
      "v": 19
    },
    {
      "midi": 58,
      "hit": false,
      "t": 64335.64994999991,
      "d": 2167.854975000002,
      "v": 44
    },
    {
      "midi": 65,
      "hit": false,
      "t": 64849.93514999991,
      "d": 907.1419499999975,
      "v": 61
    },
    {
      "midi": 66,
      "hit": false,
      "t": 65714.21999999991,
      "d": 328.571100000001,
      "v": 91
    },
    {
      "midi": 66,
      "hit": false,
      "t": 66078.50534999992,
      "d": 214.28549999999814,
      "v": 88
    },
    {
      "midi": 68,
      "hit": false,
      "t": 66321.36224999992,
      "d": 242.85689999999886,
      "v": 99
    },
    {
      "midi": 68,
      "hit": false,
      "t": 66732.07612499992,
      "d": 264.28544999999576,
      "v": 99
    },
    {
      "midi": 68,
      "hit": false,
      "t": 67057.07579999992,
      "d": 239.28547499999695,
      "v": 85
    },
    {
      "midi": 70,
      "hit": false,
      "t": 67382.07547499992,
      "d": 342.8567999999941,
      "v": 77
    },
    {
      "midi": 75,
      "hit": false,
      "t": 67821.3607499999,
      "d": 1035.7132500000007,
      "v": 65
    },
    {
      "midi": 68,
      "hit": false,
      "t": 67842.7892999999,
      "d": 1285.7130000000034,
      "v": 46
    },
    {
      "midi": 49,
      "hit": false,
      "t": 67860.6464249999,
      "d": 246.42832500000077,
      "v": 37
    },
    {
      "midi": 64,
      "hit": false,
      "t": 67864.2178499999,
      "d": 1078.570350000009,
      "v": 29
    },
    {
      "midi": 71,
      "hit": false,
      "t": 67867.7892749999,
      "d": 1117.856025000001,
      "v": 52
    },
    {
      "midi": 59,
      "hit": false,
      "t": 67889.2178249999,
      "d": 399.99959999999555,
      "v": 37
    },
    {
      "midi": 58,
      "hit": false,
      "t": 68271.3602999999,
      "d": 342.8567999999941,
      "v": 50
    },
    {
      "midi": 59,
      "hit": false,
      "t": 68621.3599499999,
      "d": 289.2854250000091,
      "v": 56
    },
    {
      "midi": 75,
      "hit": false,
      "t": 68939.2167749999,
      "d": 257.1426000000065,
      "v": 61
    },
    {
      "midi": 42,
      "hit": false,
      "t": 69310.64497499992,
      "d": 171.42840000000433,
      "v": 38
    },
    {
      "midi": 75,
      "hit": false,
      "t": 69314.21639999992,
      "d": 928.5705000000016,
      "v": 55
    },
    {
      "midi": 30,
      "hit": false,
      "t": 69317.78782499992,
      "d": 121.42844999999215,
      "v": 37
    },
    {
      "midi": 70,
      "hit": false,
      "t": 69335.64494999991,
      "d": 885.7134000000078,
      "v": 44
    },
    {
      "midi": 64,
      "hit": false,
      "t": 69353.50207499991,
      "d": 746.4278250000061,
      "v": 26
    },
    {
      "midi": 68,
      "hit": false,
      "t": 69353.50207499991,
      "d": 857.1420000000071,
      "v": 33
    },
    {
      "midi": 63,
      "hit": false,
      "t": 69807.07304999992,
      "d": 478.5709499999939,
      "v": 37
    },
    {
      "midi": 78,
      "hit": false,
      "t": 70564.21514999992,
      "d": 299.9997000000003,
      "v": 56
    },
    {
      "midi": 54,
      "hit": false,
      "t": 70567.78657499992,
      "d": 414.2853000000032,
      "v": 41
    },
    {
      "midi": 66,
      "hit": false,
      "t": 70585.64369999991,
      "d": 253.5711750000046,
      "v": 43
    },
    {
      "midi": 80,
      "hit": false,
      "t": 70974.92902499992,
      "d": 121.4284500000067,
      "v": 59
    },
    {
      "midi": 68,
      "hit": false,
      "t": 70989.21472499993,
      "d": 157.1426999999967,
      "v": 32
    },
    {
      "midi": 56,
      "hit": false,
      "t": 70996.35757499993,
      "d": 374.99962499999674,
      "v": 31
    },
    {
      "midi": 75,
      "hit": false,
      "t": 71424.92857499993,
      "d": 3321.4252500000293,
      "v": 61
    },
    {
      "midi": 68,
      "hit": false,
      "t": 71446.35712499992,
      "d": 539.2851749999973,
      "v": 50
    },
    {
      "midi": 64,
      "hit": false,
      "t": 71457.07139999993,
      "d": 474.999524999992,
      "v": 53
    },
    {
      "midi": 63,
      "hit": false,
      "t": 71692.78544999992,
      "d": 217.85692500000005,
      "v": 38
    },
    {
      "midi": 61,
      "hit": false,
      "t": 71949.92804999991,
      "d": 521.4280500000023,
      "v": 55
    },
    {
      "midi": 68,
      "hit": false,
      "t": 72217.78492499991,
      "d": 160.7141249999986,
      "v": 45
    },
    {
      "midi": 64,
      "hit": false,
      "t": 72221.35634999991,
      "d": 78.57134999999835,
      "v": 53
    },
    {
      "midi": 59,
      "hit": false,
      "t": 72464.21324999991,
      "d": 524.9994750000042,
      "v": 74
    },
    {
      "midi": 64,
      "hit": false,
      "t": 72721.35584999992,
      "d": 64.28565000000526,
      "v": 46
    },
    {
      "midi": 68,
      "hit": false,
      "t": 72732.07012499993,
      "d": 74.99992499999644,
      "v": 29
    },
    {
      "midi": 58,
      "hit": false,
      "t": 72992.78414999992,
      "d": 546.4280250000156,
      "v": 57
    },
    {
      "midi": 68,
      "hit": false,
      "t": 72996.35557499992,
      "d": 85.71420000000217,
      "v": 37
    },
    {
      "midi": 64,
      "hit": false,
      "t": 73003.49842499993,
      "d": 53.571374999999534,
      "v": 44
    },
    {
      "midi": 64,
      "hit": false,
      "t": 73253.49817499993,
      "d": 67.85707500000717,
      "v": 49
    },
    {
      "midi": 68,
      "hit": false,
      "t": 73257.06959999993,
      "d": 78.57134999999835,
      "v": 40
    },
    {
      "midi": 54,
      "hit": false,
      "t": 73517.78362499992,
      "d": 110.71417500003008,
      "v": 47
    },
    {
      "midi": 64,
      "hit": false,
      "t": 73528.49789999993,
      "d": 57.142800000015995,
      "v": 46
    },
    {
      "midi": 68,
      "hit": false,
      "t": 73528.49789999993,
      "d": 74.99992500002554,
      "v": 40
    },
    {
      "midi": 68,
      "hit": false,
      "t": 73821.35474999995,
      "d": 74.99992499999644,
      "v": 39
    },
    {
      "midi": 64,
      "hit": false,
      "t": 73824.92617499996,
      "d": 57.14280000000144,
      "v": 43
    },
    {
      "midi": 64,
      "hit": false,
      "t": 74174.92582499995,
      "d": 360.71392500000366,
      "v": 35
    },
    {
      "midi": 42,
      "hit": false,
      "t": 74178.49724999996,
      "d": 407.14244999999937,
      "v": 35
    },
    {
      "midi": 68,
      "hit": false,
      "t": 74182.06867499996,
      "d": 464.2852500000008,
      "v": 33
    },
    {
      "midi": 30,
      "hit": false,
      "t": 74196.35437499995,
      "d": 332.14252500000293,
      "v": 29
    },
    {
      "midi": 97,
      "hit": false,
      "t": 75864.20984999996,
      "d": 507.1423499999946,
      "v": 61
    },
    {
      "midi": 61,
      "hit": false,
      "t": 75874.92412499996,
      "d": 535.7137499999953,
      "v": 43
    },
    {
      "midi": 59,
      "hit": false,
      "t": 76432.06642499995,
      "d": 346.428224999996,
      "v": 45
    },
    {
      "midi": 95,
      "hit": false,
      "t": 76435.63784999996,
      "d": 999.9989999999962,
      "v": 43
    },
    {
      "midi": 94,
      "hit": false,
      "t": 78128.49329999996,
      "d": 346.428224999996,
      "v": 64
    },
    {
      "midi": 91,
      "hit": false,
      "t": 78157.06469999996,
      "d": 282.14257499999076,
      "v": 55
    },
    {
      "midi": 87,
      "hit": false,
      "t": 78174.92182499995,
      "d": 339.28537500000675,
      "v": 51
    },
    {
      "midi": 47,
      "hit": false,
      "t": 78174.92182499995,
      "d": 2089.283625000011,
      "v": 34
    },
    {
      "midi": 82,
      "hit": false,
      "t": 78189.20752499995,
      "d": 346.42822500001057,
      "v": 39
    },
    {
      "midi": 54,
      "hit": false,
      "t": 78599.92139999996,
      "d": 1946.4266250000073,
      "v": 39
    },
    {
      "midi": 70,
      "hit": false,
      "t": 78992.77814999997,
      "d": 1042.8561000000045,
      "v": 50
    },
    {
      "midi": 66,
      "hit": false,
      "t": 79007.06384999996,
      "d": 1007.1418500000145,
      "v": 61
    },
    {
      "midi": 63,
      "hit": false,
      "t": 79010.63527499996,
      "d": 1021.4275500000076,
      "v": 46
    },
    {
      "midi": 58,
      "hit": false,
      "t": 79021.34954999997,
      "d": 503.57092500000726,
      "v": 41
    },
    {
      "midi": 58,
      "hit": false,
      "t": 79578.49184999998,
      "d": 339.28537500000675,
      "v": 63
    },
    {
      "midi": 63,
      "hit": false,
      "t": 80082.06277499997,
      "d": 692.8564500000066,
      "v": 61
    },
    {
      "midi": 68,
      "hit": false,
      "t": 80124.91987499996,
      "d": 689.2850250000192,
      "v": 25
    },
    {
      "midi": 56,
      "hit": false,
      "t": 80185.63409999997,
      "d": 639.2850750000216,
      "v": 7
    },
    {
      "midi": 47,
      "hit": false,
      "t": 80460.63382499997,
      "d": 139.2855750000017,
      "v": 55
    },
    {
      "midi": 70,
      "hit": false,
      "t": 80467.77667499997,
      "d": 339.28537500000675,
      "v": 82
    },
    {
      "midi": 70,
      "hit": false,
      "t": 80867.77627499998,
      "d": 874.9991249999875,
      "v": 70
    },
    {
      "midi": 46,
      "hit": false,
      "t": 80874.91912499999,
      "d": 574.9994249999872,
      "v": 56
    },
    {
      "midi": 62,
      "hit": false,
      "t": 80874.91912499999,
      "d": 960.7133249999897,
      "v": 64
    },
    {
      "midi": 65,
      "hit": false,
      "t": 80878.49054999999,
      "d": 1028.5703999999969,
      "v": 65
    },
    {
      "midi": 56,
      "hit": false,
      "t": 81210.63307499998,
      "d": 660.713625000004,
      "v": 55
    },
    {
      "midi": 46,
      "hit": false,
      "t": 81532.06132499997,
      "d": 267.8568749999977,
      "v": 52
    },
    {
      "midi": 70,
      "hit": false,
      "t": 81867.77527499998,
      "d": 207.14265000000887,
      "v": 62
    },
    {
      "midi": 70,
      "hit": false,
      "t": 82221.34634999999,
      "d": 328.571100000001,
      "v": 68
    },
    {
      "midi": 51,
      "hit": false,
      "t": 82242.77489999999,
      "d": 1635.7126500000013,
      "v": 37
    },
    {
      "midi": 59,
      "hit": false,
      "t": 82546.34602499999,
      "d": 296.4282749999984,
      "v": 23
    },
    {
      "midi": 77,
      "hit": false,
      "t": 82853.488575,
      "d": 342.8567999999941,
      "v": 65
    },
    {
      "midi": 62,
      "hit": false,
      "t": 82896.34567499999,
      "d": 264.28544999999576,
      "v": 37
    },
    {
      "midi": 74,
      "hit": false,
      "t": 83196.34537499999,
      "d": 317.85682500000985,
      "v": 56
    },
    {
      "midi": 59,
      "hit": false,
      "t": 83203.488225,
      "d": 353.57107499999984,
      "v": 33
    },
    {
      "midi": 75,
      "hit": false,
      "t": 83585.6307,
      "d": 503.57092500000726,
      "v": 52
    },
    {
      "midi": 60,
      "hit": false,
      "t": 83614.2021,
      "d": 578.5708500000037,
      "v": 35
    },
    {
      "midi": 51,
      "hit": false,
      "t": 83999.916,
      "d": 1182.1416750000208,
      "v": 37
    },
    {
      "midi": 84,
      "hit": false,
      "t": 84582.058275,
      "d": 257.1426000000065,
      "v": 74
    },
    {
      "midi": 75,
      "hit": false,
      "t": 84599.91540000001,
      "d": 357.14250000000175,
      "v": 53
    },
    {
      "midi": 60,
      "hit": false,
      "t": 84628.48680000001,
      "d": 799.9992000000057,
      "v": 28
    },
    {
      "midi": 86,
      "hit": false,
      "t": 85260.62902500002,
      "d": 196.42837500000314,
      "v": 74
    },
    {
      "midi": 51,
      "hit": false,
      "t": 85271.34330000002,
      "d": 214.28549999999814,
      "v": 37
    },
    {
      "midi": 77,
      "hit": false,
      "t": 85296.34327500002,
      "d": 232.14262499999313,
      "v": 35
    },
    {
      "midi": 87,
      "hit": false,
      "t": 85774.91422500001,
      "d": 410.71387500001583,
      "v": 73
    },
    {
      "midi": 58,
      "hit": false,
      "t": 85778.48565000002,
      "d": 196.4283750000177,
      "v": 43
    },
    {
      "midi": 48,
      "hit": false,
      "t": 85789.19992500002,
      "d": 107.14275000001362,
      "v": 43
    },
    {
      "midi": 75,
      "hit": false,
      "t": 85796.34277500003,
      "d": 496.428075000018,
      "v": 29
    },
    {
      "midi": 79,
      "hit": false,
      "t": 85799.91420000003,
      "d": 357.14250000000175,
      "v": 41
    },
    {
      "midi": 67,
      "hit": false,
      "t": 86246.34232500003,
      "d": 557.1423000000068,
      "v": 35
    },
    {
      "midi": 58,
      "hit": false,
      "t": 86246.34232500003,
      "d": 617.8565250000102,
      "v": 29
    },
    {
      "midi": 62,
      "hit": false,
      "t": 86257.05660000004,
      "d": 524.9994750000042,
      "v": 46
    },
    {
      "midi": 63,
      "hit": false,
      "t": 86257.05660000004,
      "d": 614.2851000000082,
      "v": 40
    },
    {
      "midi": 72,
      "hit": false,
      "t": 86728.48470000004,
      "d": 74.99992499999644,
      "v": 56
    },
    {
      "midi": 75,
      "hit": false,
      "t": 86896.34167500005,
      "d": 121.4284500000067,
      "v": 100
    },
    {
      "midi": 79,
      "hit": false,
      "t": 87107.05575000004,
      "d": 778.5706500000379,
      "v": 95
    },
    {
      "midi": 74,
      "hit": false,
      "t": 87110.62717500005,
      "d": 328.5711000000156,
      "v": 107
    },
    {
      "midi": 57,
      "hit": false,
      "t": 87121.34145000005,
      "d": 1278.5701500000287,
      "v": 59
    },
    {
      "midi": 67,
      "hit": false,
      "t": 87128.48430000005,
      "d": 1182.1416750000208,
      "v": 51
    },
    {
      "midi": 63,
      "hit": false,
      "t": 87146.34142500005,
      "d": 1257.1416000000318,
      "v": 31
    },
    {
      "midi": 72,
      "hit": false,
      "t": 87428.48400000005,
      "d": 1035.7132500000298,
      "v": 56
    },
    {
      "midi": 75,
      "hit": false,
      "t": 88389.19732500007,
      "d": 217.8569250000146,
      "v": 68
    },
    {
      "midi": 72,
      "hit": false,
      "t": 88553.48287500009,
      "d": 221.42835000000196,
      "v": 40
    },
    {
      "midi": 75,
      "hit": false,
      "t": 88789.19692500008,
      "d": 532.142325000008,
      "v": 74
    },
    {
      "midi": 48,
      "hit": false,
      "t": 88799.91120000009,
      "d": 807.1420500000095,
      "v": 51
    },
    {
      "midi": 67,
      "hit": false,
      "t": 89257.05360000009,
      "d": 1246.4273250000115,
      "v": 55
    },
    {
      "midi": 58,
      "hit": false,
      "t": 89274.91072500008,
      "d": 349.9996500000125,
      "v": 35
    },
    {
      "midi": 63,
      "hit": false,
      "t": 89285.62500000009,
      "d": 1282.141575000016,
      "v": 29
    },
    {
      "midi": 29,
      "hit": false,
      "t": 90335.6239500001,
      "d": 57.14280000000144,
      "v": 46
    },
    {
      "midi": 66,
      "hit": false,
      "t": 90874.90912500011,
      "d": 360.71392500000366,
      "v": 46
    },
    {
      "midi": 62,
      "hit": false,
      "t": 90885.62340000011,
      "d": 228.57119999999122,
      "v": 49
    },
    {
      "midi": 51,
      "hit": false,
      "t": 90885.62340000011,
      "d": 857.1419999999925,
      "v": 38
    },
    {
      "midi": 57,
      "hit": false,
      "t": 90903.48052500011,
      "d": 710.7135750000016,
      "v": 43
    },
    {
      "midi": 72,
      "hit": false,
      "t": 91571.33700000012,
      "d": 153.57127499999478,
      "v": 52
    },
    {
      "midi": 74,
      "hit": false,
      "t": 91764.1939500001,
      "d": 114.28560000000289,
      "v": 91
    },
    {
      "midi": 72,
      "hit": false,
      "t": 91799.9082000001,
      "d": 85.71420000000217,
      "v": 37
    },
    {
      "midi": 48,
      "hit": false,
      "t": 92014.1937000001,
      "d": 182.14267500001006,
      "v": 56
    },
    {
      "midi": 67,
      "hit": false,
      "t": 92014.1937000001,
      "d": 596.4279750000132,
      "v": 81
    },
    {
      "midi": 75,
      "hit": false,
      "t": 92017.7651250001,
      "d": 1132.1417250000231,
      "v": 80
    },
    {
      "midi": 58,
      "hit": false,
      "t": 92024.90797500011,
      "d": 196.42837500000314,
      "v": 38
    },
    {
      "midi": 63,
      "hit": false,
      "t": 92035.62225000012,
      "d": 607.1422500000044,
      "v": 37
    },
    {
      "midi": 59,
      "hit": false,
      "t": 92299.90770000011,
      "d": 174.99982500000624,
      "v": 53
    },
    {
      "midi": 60,
      "hit": false,
      "t": 92517.76462500011,
      "d": 832.1420250000228,
      "v": 86
    },
    {
      "midi": 63,
      "hit": false,
      "t": 93014.19270000013,
      "d": 139.2855750000017,
      "v": 47
    },
    {
      "midi": 67,
      "hit": false,
      "t": 93221.33535000014,
      "d": 82.14277500000026,
      "v": 51
    },
    {
      "midi": 73,
      "hit": false,
      "t": 93460.62082500014,
      "d": 35.71425000000454,
      "v": 45
    },
    {
      "midi": 58,
      "hit": false,
      "t": 93489.19222500014,
      "d": 546.4280250000156,
      "v": 44
    },
    {
      "midi": 63,
      "hit": false,
      "t": 93489.19222500014,
      "d": 574.9994250000163,
      "v": 44
    },
    {
      "midi": 79,
      "hit": false,
      "t": 93499.90650000014,
      "d": 792.8563500000164,
      "v": 43
    },
    {
      "midi": 74,
      "hit": false,
      "t": 93507.04935000015,
      "d": 453.57097500000964,
      "v": 61
    },
    {
      "midi": 53,
      "hit": false,
      "t": 93507.04935000015,
      "d": 1217.8559249999962,
      "v": 26
    },
    {
      "midi": 69,
      "hit": false,
      "t": 93514.19220000015,
      "d": 610.7136750000063,
      "v": 33
    },
    {
      "midi": 69,
      "hit": false,
      "t": 94296.33427500016,
      "d": 257.1426000000065,
      "v": 38
    },
    {
      "midi": 72,
      "hit": false,
      "t": 94299.90570000016,
      "d": 310.7139749999915,
      "v": 37
    },
    {
      "midi": 60,
      "hit": false,
      "t": 94310.61997500017,
      "d": 414.2852999999741,
      "v": 40
    },
    {
      "midi": 63,
      "hit": false,
      "t": 94314.19140000017,
      "d": 392.8567499999772,
      "v": 17
    },
    {
      "midi": 75,
      "hit": false,
      "t": 94567.76257500016,
      "d": 285.71399999999267,
      "v": 89
    },
    {
      "midi": 72,
      "hit": false,
      "t": 94785.61950000015,
      "d": 242.8569000000134,
      "v": 55
    },
    {
      "midi": 75,
      "hit": false,
      "t": 95046.33352500017,
      "d": 1796.4267749999708,
      "v": 76
    },
    {
      "midi": 48,
      "hit": false,
      "t": 95060.61922500016,
      "d": 174.9998249999917,
      "v": 44
    },
    {
      "midi": 58,
      "hit": false,
      "t": 95085.61920000016,
      "d": 246.42832499998622,
      "v": 21
    },
    {
      "midi": 67,
      "hit": false,
      "t": 95835.61845000015,
      "d": 339.28537500000675,
      "v": 43
    },
    {
      "midi": 63,
      "hit": false,
      "t": 95839.18987500016,
      "d": 489.2852249999996,
      "v": 39
    },
    {
      "midi": 65,
      "hit": false,
      "t": 96642.76050000015,
      "d": 417.85672499999055,
      "v": 31
    },
    {
      "midi": 57,
      "hit": false,
      "t": 96657.04620000014,
      "d": 1157.1417000000074,
      "v": 40
    },
    {
      "midi": 63,
      "hit": false,
      "t": 96664.18905000015,
      "d": 549.9994499999884,
      "v": 21
    },
    {
      "midi": 86,
      "hit": false,
      "t": 97117.76002500014,
      "d": 360.7139249999891,
      "v": 82
    },
    {
      "midi": 74,
      "hit": false,
      "t": 97189.18852500014,
      "d": 299.9997000000003,
      "v": 65
    },
    {
      "midi": 63,
      "hit": false,
      "t": 97453.47397500013,
      "d": 424.99957500002347,
      "v": 35
    },
    {
      "midi": 65,
      "hit": false,
      "t": 97464.18825000014,
      "d": 289.2854250000091,
      "v": 34
    },
    {
      "midi": 87,
      "hit": false,
      "t": 97692.75945000014,
      "d": 307.1425500000187,
      "v": 80
    },
    {
      "midi": 75,
      "hit": false,
      "t": 97728.47370000015,
      "d": 235.7140500000096,
      "v": 61
    },
    {
      "midi": 89,
      "hit": false,
      "t": 98753.47267500016,
      "d": 342.8567999999941,
      "v": 74
    },
    {
      "midi": 65,
      "hit": false,
      "t": 98757.04410000016,
      "d": 214.28549999999814,
      "v": 61
    },
    {
      "midi": 77,
      "hit": false,
      "t": 98760.61552500016,
      "d": 314.2853999999934,
      "v": 58
    },
    {
      "midi": 60,
      "hit": false,
      "t": 98774.90122500015,
      "d": 514.2851999999984,
      "v": 51
    },
    {
      "midi": 62,
      "hit": false,
      "t": 98774.90122500015,
      "d": 582.1422750000056,
      "v": 59
    },
    {
      "midi": 53,
      "hit": false,
      "t": 99121.32945000015,
      "d": 1142.8560000000434,
      "v": 63
    },
    {
      "midi": 86,
      "hit": false,
      "t": 99128.47230000015,
      "d": 264.2854500000103,
      "v": 92
    },
    {
      "midi": 87,
      "hit": false,
      "t": 99499.90050000016,
      "d": 132.14272499999788,
      "v": 99
    },
    {
      "midi": 93,
      "hit": false,
      "t": 99857.04300000017,
      "d": 664.2850500000204,
      "v": 79
    },
    {
      "midi": 86,
      "hit": false,
      "t": 99889.18582500017,
      "d": 646.4279250000109,
      "v": 88
    },
    {
      "midi": 62,
      "hit": false,
      "t": 99896.32867500017,
      "d": 1871.4267000000546,
      "v": 47
    },
    {
      "midi": 60,
      "hit": false,
      "t": 99907.04295000018,
      "d": 1414.2843000000285,
      "v": 28
    },
    {
      "midi": 81,
      "hit": false,
      "t": 99910.61437500018,
      "d": 767.856375000003,
      "v": 69
    },
    {
      "midi": 65,
      "hit": false,
      "t": 99917.75722500018,
      "d": 264.2854500000103,
      "v": 44
    },
    {
      "midi": 53,
      "hit": false,
      "t": 100342.75680000019,
      "d": 682.1421750000009,
      "v": 56
    },
    {
      "midi": 91,
      "hit": false,
      "t": 100746.32782500019,
      "d": 332.14252500000293,
      "v": 85
    },
    {
      "midi": 89,
      "hit": false,
      "t": 101117.7560250002,
      "d": 346.42822500001057,
      "v": 71
    },
    {
      "midi": 53,
      "hit": false,
      "t": 101124.8988750002,
      "d": 121.4284500000067,
      "v": 43
    },
    {
      "midi": 55,
      "hit": false,
      "t": 101521.32705000021,
      "d": 989.2847250000341,
      "v": 49
    },
    {
      "midi": 91,
      "hit": false,
      "t": 101524.89847500021,
      "d": 514.285200000013,
      "v": 64
    },
    {
      "midi": 79,
      "hit": false,
      "t": 101539.18417500022,
      "d": 460.7138249999989,
      "v": 45
    },
    {
      "midi": 86,
      "hit": false,
      "t": 101539.18417500022,
      "d": 553.5708750000049,
      "v": 68
    },
    {
      "midi": 65,
      "hit": false,
      "t": 101542.75560000022,
      "d": 464.2852500000008,
      "v": 47
    },
    {
      "midi": 58,
      "hit": false,
      "t": 101582.04127500023,
      "d": 992.8561500000214,
      "v": 37
    },
    {
      "midi": 62,
      "hit": false,
      "t": 101946.32662500022,
      "d": 553.5708750000194,
      "v": 45
    },
    {
      "midi": 93,
      "hit": false,
      "t": 102371.32620000023,
      "d": 139.28557500001625,
      "v": 67
    },
    {
      "midi": 65,
      "hit": false,
      "t": 102374.89762500023,
      "d": 92.85705000000598,
      "v": 49
    },
    {
      "midi": 86,
      "hit": false,
      "t": 102382.04047500023,
      "d": 167.85697500001697,
      "v": 63
    },
    {
      "midi": 81,
      "hit": false,
      "t": 102392.75475000024,
      "d": 103.57132499999716,
      "v": 45
    },
    {
      "midi": 82,
      "hit": false,
      "t": 102764.18295000025,
      "d": 121.4284500000067,
      "v": 40
    },
    {
      "midi": 94,
      "hit": false,
      "t": 102764.18295000025,
      "d": 132.14272500001243,
      "v": 47
    },
    {
      "midi": 96,
      "hit": false,
      "t": 103221.32535000026,
      "d": 342.8567999999941,
      "v": 50
    },
    {
      "midi": 24,
      "hit": false,
      "t": 103239.18247500026,
      "d": 317.8568249999953,
      "v": 39
    },
    {
      "midi": 36,
      "hit": false,
      "t": 103253.46817500025,
      "d": 267.8568749999977,
      "v": 26
    },
    {
      "midi": 84,
      "hit": false,
      "t": 103257.03960000025,
      "d": 271.4282999999996,
      "v": 23
    },
    {
      "midi": 96,
      "hit": false,
      "t": 104624.89537500025,
      "d": 139.2855750000017,
      "v": 49
    },
    {
      "midi": 54,
      "hit": false,
      "t": 105024.89497500026,
      "d": 1796.4267750000145,
      "v": 38
    },
    {
      "midi": 96,
      "hit": false,
      "t": 105028.46640000027,
      "d": 167.85697500000242,
      "v": 51
    },
    {
      "midi": 58,
      "hit": false,
      "t": 105396.32317500027,
      "d": 224.99977500000386,
      "v": 29
    },
    {
      "midi": 60,
      "hit": false,
      "t": 105585.60870000027,
      "d": 1485.7127999999939,
      "v": 50
    },
    {
      "midi": 63,
      "hit": false,
      "t": 105710.60857500028,
      "d": 982.1418749999866,
      "v": 47
    },
    {
      "midi": 67,
      "hit": false,
      "t": 105860.60842500028,
      "d": 85.71420000000217,
      "v": 35
    },
    {
      "midi": 69,
      "hit": false,
      "t": 105953.46547500028,
      "d": 64.28565000000526,
      "v": 37
    },
    {
      "midi": 70,
      "hit": false,
      "t": 106046.32252500029,
      "d": 57.14280000000144,
      "v": 40
    },
    {
      "midi": 72,
      "hit": false,
      "t": 106149.89385000028,
      "d": 71.42849999999453,
      "v": 43
    },
    {
      "midi": 73,
      "hit": false,
      "t": 106228.46520000028,
      "d": 78.57134999999835,
      "v": 45
    },
    {
      "midi": 75,
      "hit": false,
      "t": 106339.17937500028,
      "d": 46.428524999995716,
      "v": 48
    },
    {
      "midi": 77,
      "hit": false,
      "t": 106407.03645000028,
      "d": 78.57134999999835,
      "v": 50
    },
    {
      "midi": 79,
      "hit": false,
      "t": 106514.17920000028,
      "d": 74.99992499999644,
      "v": 53
    },
    {
      "midi": 81,
      "hit": false,
      "t": 106617.75052500027,
      "d": 74.99992499999644,
      "v": 56
    },
    {
      "midi": 82,
      "hit": false,
      "t": 106728.46470000027,
      "d": 53.571374999999534,
      "v": 59
    },
    {
      "midi": 84,
      "hit": false,
      "t": 106842.75030000028,
      "d": 53.571374999999534,
      "v": 62
    },
    {
      "midi": 86,
      "hit": false,
      "t": 106949.89305000028,
      "d": 78.57134999999835,
      "v": 65
    },
    {
      "midi": 87,
      "hit": false,
      "t": 107071.32150000027,
      "d": 85.71420000000217,
      "v": 69
    },
    {
      "midi": 89,
      "hit": false,
      "t": 107224.89277500028,
      "d": 221.42835000000196,
      "v": 73
    },
    {
      "midi": 91,
      "hit": false,
      "t": 107482.03537500028,
      "d": 153.57127499999478,
      "v": 80
    },
    {
      "midi": 92,
      "hit": false,
      "t": 107685.60660000028,
      "d": 110.71417500000098,
      "v": 97
    },
    {
      "midi": 94,
      "hit": false,
      "t": 107867.74927500027,
      "d": 182.1426749999955,
      "v": 97
    },
    {
      "midi": 96,
      "hit": false,
      "t": 108092.74905000028,
      "d": 203.5712249999924,
      "v": 80
    },
    {
      "midi": 70,
      "hit": false,
      "t": 108907.03395000027,
      "d": 460.71382500001346,
      "v": 56
    },
    {
      "midi": 67,
      "hit": false,
      "t": 108917.74822500028,
      "d": 396.4281750000082,
      "v": 53
    },
    {
      "midi": 63,
      "hit": false,
      "t": 108928.46250000029,
      "d": 639.2850749999925,
      "v": 35
    },
    {
      "midi": 60,
      "hit": false,
      "t": 108935.60535000029,
      "d": 482.1423749999958,
      "v": 44
    },
    {
      "midi": 56,
      "hit": false,
      "t": 108957.03390000029,
      "d": 435.7138500000001,
      "v": 25
    },
    {
      "midi": 67,
      "hit": false,
      "t": 109760.60452500028,
      "d": 549.9994500000175,
      "v": 58
    },
    {
      "midi": 64,
      "hit": false,
      "t": 109785.60450000028,
      "d": 521.4280500000168,
      "v": 43
    },
    {
      "midi": 59,
      "hit": false,
      "t": 109789.17592500028,
      "d": 424.9995750000089,
      "v": 28
    },
    {
      "midi": 62,
      "hit": false,
      "t": 109792.74735000028,
      "d": 514.285200000013,
      "v": 37
    },
    {
      "midi": 56,
      "hit": false,
      "t": 109792.74735000028,
      "d": 664.2850500000204,
      "v": 23
    },
    {
      "midi": 46,
      "hit": false,
      "t": 109796.31877500028,
      "d": 824.999175000019,
      "v": 33
    },
    {
      "midi": 99,
      "hit": false,
      "t": 111021.3175500003,
      "d": 103.57132500001171,
      "v": 52
    },
    {
      "midi": 87,
      "hit": false,
      "t": 111028.4604000003,
      "d": 85.71420000000217,
      "v": 37
    },
    {
      "midi": 89,
      "hit": false,
      "t": 111207.03165000031,
      "d": 124.99987499999406,
      "v": 55
    },
    {
      "midi": 101,
      "hit": false,
      "t": 111224.8887750003,
      "d": 110.71417500000098,
      "v": 41
    },
    {
      "midi": 103,
      "hit": false,
      "t": 111474.88852500031,
      "d": 439.28527499998745,
      "v": 73
    },
    {
      "midi": 91,
      "hit": false,
      "t": 111478.45995000031,
      "d": 514.2851999999839,
      "v": 40
    },
    {
      "midi": 96,
      "hit": false,
      "t": 111510.6027750003,
      "d": 385.71390000000247,
      "v": 26
    },
    {
      "midi": 68,
      "hit": false,
      "t": 111528.45990000029,
      "d": 185.71410000001197,
      "v": 27
    },
    {
      "midi": 63,
      "hit": false,
      "t": 111528.45990000029,
      "d": 232.14262500000768,
      "v": 27
    },
    {
      "midi": 60,
      "hit": false,
      "t": 111567.7455750003,
      "d": 167.85697500000242,
      "v": 26
    },
    {
      "midi": 103,
      "hit": false,
      "t": 112024.8879750003,
      "d": 167.85697499998787,
      "v": 57
    },
    {
      "midi": 34,
      "hit": false,
      "t": 112042.74510000029,
      "d": 153.57127499999478,
      "v": 61
    },
    {
      "midi": 103,
      "hit": false,
      "t": 112371.31620000029,
      "d": 353.57107499999984,
      "v": 44
    },
    {
      "midi": 103,
      "hit": false,
      "t": 112907.02995000029,
      "d": 189.28552499999932,
      "v": 50
    },
    {
      "midi": 103,
      "hit": false,
      "t": 113239.17247500029,
      "d": 439.2852749999729,
      "v": 70
    },
    {
      "midi": 67,
      "hit": false,
      "t": 113253.45817500028,
      "d": 149.99984999999288,
      "v": 38
    },
    {
      "midi": 62,
      "hit": false,
      "t": 113267.74387500028,
      "d": 153.57127499999478,
      "v": 47
    },
    {
      "midi": 56,
      "hit": false,
      "t": 113267.74387500028,
      "d": 203.5712249999924,
      "v": 25
    },
    {
      "midi": 91,
      "hit": false,
      "t": 113271.31530000028,
      "d": 1410.712874999983,
      "v": 22
    },
    {
      "midi": 103,
      "hit": false,
      "t": 113814.17190000026,
      "d": 232.14262499999313,
      "v": 74
    },
    {
      "midi": 34,
      "hit": false,
      "t": 114117.74302500025,
      "d": 85.71420000000217,
      "v": 68
    },
    {
      "midi": 103,
      "hit": false,
      "t": 114124.88587500025,
      "d": 364.28535000000556,
      "v": 69
    },
    {
      "midi": 103,
      "hit": false,
      "t": 114728.45670000026,
      "d": 28.57140000000072,
      "v": 61
    },
    {
      "midi": 98,
      "hit": false,
      "t": 115039.17067500026,
      "d": 449.9995500000223,
      "v": 70
    },
    {
      "midi": 65,
      "hit": false,
      "t": 115049.88495000027,
      "d": 253.57117500001914,
      "v": 52
    },
    {
      "midi": 62,
      "hit": false,
      "t": 115057.02780000027,
      "d": 267.8568750000122,
      "v": 46
    },
    {
      "midi": 86,
      "hit": false,
      "t": 115057.02780000027,
      "d": 1389.2843250000005,
      "v": 53
    },
    {
      "midi": 91,
      "hit": false,
      "t": 115060.59922500027,
      "d": 1574.998424999998,
      "v": 52
    },
    {
      "midi": 60,
      "hit": false,
      "t": 115071.31350000028,
      "d": 264.2854500000103,
      "v": 34
    },
    {
      "midi": 98,
      "hit": false,
      "t": 115614.17010000028,
      "d": 182.1426749999955,
      "v": 50
    },
    {
      "midi": 34,
      "hit": false,
      "t": 115907.02695000028,
      "d": 99.99989999999525,
      "v": 44
    },
    {
      "midi": 98,
      "hit": false,
      "t": 115907.02695000028,
      "d": 421.42814999999246,
      "v": 41
    },
    {
      "midi": 98,
      "hit": false,
      "t": 116439.16927500027,
      "d": 214.28549999999814,
      "v": 55
    },
    {
      "midi": 98,
      "hit": false,
      "t": 116792.74035000027,
      "d": 382.1424750000151,
      "v": 49
    },
    {
      "midi": 62,
      "hit": false,
      "t": 116799.88320000027,
      "d": 128.57130000001052,
      "v": 39
    },
    {
      "midi": 65,
      "hit": false,
      "t": 116810.59747500028,
      "d": 110.71417500000098,
      "v": 32
    },
    {
      "midi": 91,
      "hit": false,
      "t": 116810.59747500028,
      "d": 735.7135500000004,
      "v": 39
    },
    {
      "midi": 60,
      "hit": false,
      "t": 116814.16890000028,
      "d": 139.2855750000017,
      "v": 38
    },
    {
      "midi": 86,
      "hit": false,
      "t": 116817.74032500028,
      "d": 646.4279249999963,
      "v": 38
    },
    {
      "midi": 98,
      "hit": false,
      "t": 117335.59695000028,
      "d": 217.85692500000005,
      "v": 63
    },
    {
      "midi": 34,
      "hit": false,
      "t": 117653.45377500028,
      "d": 74.99992499999644,
      "v": 43
    },
    {
      "midi": 98,
      "hit": false,
      "t": 117653.45377500028,
      "d": 324.9996749999991,
      "v": 45
    },
    {
      "midi": 46,
      "hit": false,
      "t": 117664.16805000028,
      "d": 78.5713499999838,
      "v": 32
    },
    {
      "midi": 91,
      "hit": false,
      "t": 117682.02517500028,
      "d": 328.571100000001,
      "v": 33
    },
    {
      "midi": 86,
      "hit": false,
      "t": 117685.59660000028,
      "d": 285.71399999999267,
      "v": 33
    },
    {
      "midi": 86,
      "hit": false,
      "t": 118224.88177500028,
      "d": 39.2856749999919,
      "v": 44
    },
    {
      "midi": 98,
      "hit": false,
      "t": 118224.88177500028,
      "d": 89.28562500000407,
      "v": 47
    },
    {
      "midi": 91,
      "hit": false,
      "t": 118239.16747500027,
      "d": 35.71425000000454,
      "v": 29
    },
    {
      "midi": 101,
      "hit": false,
      "t": 118428.45300000029,
      "d": 46.428524999995716,
      "v": 41
    },
    {
      "midi": 32,
      "hit": false,
      "t": 118660.59562500028,
      "d": 228.57119999999122,
      "v": 76
    },
    {
      "midi": 44,
      "hit": false,
      "t": 118664.16705000028,
      "d": 260.71402499999385,
      "v": 62
    },
    {
      "midi": 101,
      "hit": false,
      "t": 118696.30987500028,
      "d": 74.99992499999644,
      "v": 38
    },
    {
      "midi": 101,
      "hit": false,
      "t": 119224.88077500027,
      "d": 196.42837500000314,
      "v": 74
    },
    {
      "midi": 94,
      "hit": false,
      "t": 119228.45220000028,
      "d": 171.42840000000433,
      "v": 61
    },
    {
      "midi": 101,
      "hit": false,
      "t": 119553.45187500028,
      "d": 364.28535000000556,
      "v": 69
    },
    {
      "midi": 58,
      "hit": false,
      "t": 119553.45187500028,
      "d": 871.4277000000147,
      "v": 59
    },
    {
      "midi": 65,
      "hit": false,
      "t": 119560.59472500028,
      "d": 589.2851250000094,
      "v": 58
    },
    {
      "midi": 61,
      "hit": false,
      "t": 119560.59472500028,
      "d": 739.2849750000169,
      "v": 55
    },
    {
      "midi": 94,
      "hit": false,
      "t": 119567.73757500028,
      "d": 357.14250000000175,
      "v": 61
    },
    {
      "midi": 90,
      "hit": false,
      "t": 119567.73757500028,
      "d": 392.8567500000063,
      "v": 47
    },
    {
      "midi": 54,
      "hit": false,
      "t": 119567.73757500028,
      "d": 685.7136000000028,
      "v": 44
    },
    {
      "midi": 101,
      "hit": false,
      "t": 120124.87987500029,
      "d": 135.7141499999998,
      "v": 74
    },
    {
      "midi": 90,
      "hit": false,
      "t": 120132.0227250003,
      "d": 196.42837500000314,
      "v": 63
    },
    {
      "midi": 94,
      "hit": false,
      "t": 120135.5941500003,
      "d": 160.7141249999986,
      "v": 59
    },
    {
      "midi": 54,
      "hit": false,
      "t": 120478.45095000029,
      "d": 371.42820000002393,
      "v": 41
    },
    {
      "midi": 101,
      "hit": false,
      "t": 120485.5938000003,
      "d": 485.7138000000268,
      "v": 70
    },
    {
      "midi": 90,
      "hit": false,
      "t": 120485.5938000003,
      "d": 1364.2843500000308,
      "v": 65
    },
    {
      "midi": 93,
      "hit": false,
      "t": 120485.5938000003,
      "d": 1371.4272000000346,
      "v": 69
    },
    {
      "midi": 64,
      "hit": false,
      "t": 120496.3080750003,
      "d": 282.1425750000053,
      "v": 49
    },
    {
      "midi": 60,
      "hit": false,
      "t": 120499.8795000003,
      "d": 285.7140000000072,
      "v": 47
    },
    {
      "midi": 101,
      "hit": false,
      "t": 121089.16462500033,
      "d": 774.9992250000068,
      "v": 59
    },
    {
      "midi": 32,
      "hit": false,
      "t": 121403.45002500032,
      "d": 774.9992250000068,
      "v": 63
    },
    {
      "midi": 101,
      "hit": false,
      "t": 122049.87795000033,
      "d": 110.71417500000098,
      "v": 40
    },
    {
      "midi": 90,
      "hit": false,
      "t": 122071.30650000033,
      "d": 182.1426749999955,
      "v": 25
    },
    {
      "midi": 89,
      "hit": false,
      "t": 122439.16327500032,
      "d": 317.85682500000985,
      "v": 57
    },
    {
      "midi": 37,
      "hit": false,
      "t": 122442.73470000032,
      "d": 299.99970000001485,
      "v": 59
    },
    {
      "midi": 92,
      "hit": false,
      "t": 122449.87755000032,
      "d": 274.99972500001604,
      "v": 62
    },
    {
      "midi": 96,
      "hit": false,
      "t": 122460.59182500033,
      "d": 235.7140500000096,
      "v": 59
    },
    {
      "midi": 72,
      "hit": false,
      "t": 123321.30525000033,
      "d": 1864.283850000007,
      "v": 34
    },
    {
      "midi": 63,
      "hit": false,
      "t": 123328.44810000033,
      "d": 189.28552499999932,
      "v": 32
    },
    {
      "midi": 65,
      "hit": false,
      "t": 123328.44810000033,
      "d": 535.7137499999953,
      "v": 49
    },
    {
      "midi": 68,
      "hit": false,
      "t": 123332.01952500033,
      "d": 564.2851499999961,
      "v": 39
    },
    {
      "midi": 60,
      "hit": false,
      "t": 123339.16237500033,
      "d": 232.14262499999313,
      "v": 40
    },
    {
      "midi": 56,
      "hit": false,
      "t": 123353.44807500033,
      "d": 507.1423499999946,
      "v": 31
    },
    {
      "midi": 53,
      "hit": false,
      "t": 123571.30500000033,
      "d": 1646.426925000007,
      "v": 1
    },
    {
      "midi": 65,
      "hit": false,
      "t": 124274.87572500033,
      "d": 642.856500000009,
      "v": 51
    },
    {
      "midi": 68,
      "hit": false,
      "t": 124274.87572500033,
      "d": 664.2850500000059,
      "v": 38
    },
    {
      "midi": 56,
      "hit": false,
      "t": 124278.44715000033,
      "d": 1024.9989750000095,
      "v": 33
    },
    {
      "midi": 60,
      "hit": false,
      "t": 124289.16142500033,
      "d": 453.5709749999951,
      "v": 31
    },
    {
      "midi": 68,
      "hit": false,
      "t": 125242.73190000033,
      "d": 642.856500000009,
      "v": 25
    },
    {
      "midi": 65,
      "hit": false,
      "t": 125249.87475000034,
      "d": 585.713699999993,
      "v": 45
    },
    {
      "midi": 60,
      "hit": false,
      "t": 125257.01760000034,
      "d": 160.7141249999986,
      "v": 37
    },
    {
      "midi": 60,
      "hit": false,
      "t": 125599.87440000034,
      "d": 267.8568749999977,
      "v": 74
    },
    {
      "midi": 61,
      "hit": false,
      "t": 125874.87412500034,
      "d": 310.7139750000206,
      "v": 85
    },
    {
      "midi": 75,
      "hit": false,
      "t": 126157.01670000034,
      "d": 817.8563250000298,
      "v": 77
    },
    {
      "midi": 71,
      "hit": false,
      "t": 126164.15955000035,
      "d": 610.7136750000209,
      "v": 73
    },
    {
      "midi": 64,
      "hit": false,
      "t": 126167.73097500035,
      "d": 514.285200000013,
      "v": 75
    },
    {
      "midi": 68,
      "hit": false,
      "t": 126167.73097500035,
      "d": 603.5708250000171,
      "v": 56
    },
    {
      "midi": 63,
      "hit": false,
      "t": 126174.87382500035,
      "d": 282.1425750000053,
      "v": 82
    },
    {
      "midi": 63,
      "hit": false,
      "t": 126528.44490000035,
      "d": 1246.427325000026,
      "v": 74
    },
    {
      "midi": 75,
      "hit": false,
      "t": 127099.87290000037,
      "d": 789.2849250000145,
      "v": 56
    },
    {
      "midi": 71,
      "hit": false,
      "t": 127117.73002500036,
      "d": 624.999375000014,
      "v": 59
    },
    {
      "midi": 68,
      "hit": false,
      "t": 127124.87287500036,
      "d": 642.856500000009,
      "v": 41
    },
    {
      "midi": 64,
      "hit": false,
      "t": 127132.01572500037,
      "d": 582.1422750000056,
      "v": 46
    },
    {
      "midi": 61,
      "hit": false,
      "t": 127439.15827500037,
      "d": 185.71409999999742,
      "v": 80
    },
    {
      "midi": 61,
      "hit": false,
      "t": 127724.87227500038,
      "d": 328.5711000000156,
      "v": 69
    },
    {
      "midi": 75,
      "hit": false,
      "t": 127992.72915000038,
      "d": 2885.7114000000292,
      "v": 55
    },
    {
      "midi": 70,
      "hit": false,
      "t": 128007.01485000039,
      "d": 2749.997250000015,
      "v": 53
    },
    {
      "midi": 64,
      "hit": false,
      "t": 128014.15770000039,
      "d": 2064.283650000012,
      "v": 51
    },
    {
      "midi": 68,
      "hit": false,
      "t": 128017.72912500039,
      "d": 2864.282850000018,
      "v": 47
    },
    {
      "midi": 63,
      "hit": false,
      "t": 128024.8719750004,
      "d": 264.28544999999576,
      "v": 64
    },
    {
      "midi": 63,
      "hit": false,
      "t": 128349.8716500004,
      "d": 299.9997000000003,
      "v": 68
    },
    {
      "midi": 37,
      "hit": false,
      "t": 129014.1567000004,
      "d": 60.71422500000335,
      "v": 58
    },
    {
      "midi": 55,
      "hit": false,
      "t": 130414.1553000004,
      "d": 74.99992499999644,
      "v": 64
    },
    {
      "midi": 56,
      "hit": false,
      "t": 130649.8693500004,
      "d": 264.2854500000103,
      "v": 82
    },
    {
      "midi": 75,
      "hit": false,
      "t": 130957.0119000004,
      "d": 535.7137500000099,
      "v": 68
    },
    {
      "midi": 63,
      "hit": false,
      "t": 130964.15475000041,
      "d": 414.2853000000032,
      "v": 88
    },
    {
      "midi": 64,
      "hit": false,
      "t": 130978.4404500004,
      "d": 142.85700000001816,
      "v": 65
    },
    {
      "midi": 68,
      "hit": false,
      "t": 130978.4404500004,
      "d": 349.9996500000125,
      "v": 51
    },
    {
      "midi": 72,
      "hit": false,
      "t": 131017.72612500041,
      "d": 53.571374999999534,
      "v": 17
    },
    {
      "midi": 75,
      "hit": false,
      "t": 131607.01125000042,
      "d": 285.7140000000363,
      "v": 59
    },
    {
      "midi": 68,
      "hit": false,
      "t": 131632.01122500043,
      "d": 239.2854750000115,
      "v": 46
    },
    {
      "midi": 63,
      "hit": false,
      "t": 131632.01122500043,
      "d": 257.14260000002105,
      "v": 68
    },
    {
      "midi": 64,
      "hit": false,
      "t": 131646.29692500044,
      "d": 49.999949999997625,
      "v": 41
    },
    {
      "midi": 75,
      "hit": false,
      "t": 132367.72477500045,
      "d": 278.5711500000034,
      "v": 65
    },
    {
      "midi": 71,
      "hit": false,
      "t": 132382.01047500045,
      "d": 164.2855500000005,
      "v": 64
    },
    {
      "midi": 68,
      "hit": false,
      "t": 132382.01047500045,
      "d": 199.9998000000196,
      "v": 53
    },
    {
      "midi": 64,
      "hit": false,
      "t": 132389.15332500046,
      "d": 171.42840000000433,
      "v": 55
    },
    {
      "midi": 63,
      "hit": false,
      "t": 132392.72475000046,
      "d": 221.42835000000196,
      "v": 57
    },
    {
      "midi": 75,
      "hit": false,
      "t": 132724.86727500043,
      "d": 846.4277250000159,
      "v": 57
    },
    {
      "midi": 70,
      "hit": false,
      "t": 132732.01012500044,
      "d": 671.4279000000097,
      "v": 70
    },
    {
      "midi": 68,
      "hit": false,
      "t": 132742.72440000044,
      "d": 671.4279000000097,
      "v": 55
    },
    {
      "midi": 63,
      "hit": false,
      "t": 132746.29582500044,
      "d": 410.71387499998673,
      "v": 65
    },
    {
      "midi": 64,
      "hit": false,
      "t": 132746.29582500044,
      "d": 585.713699999993,
      "v": 61
    },
    {
      "midi": 73,
      "hit": false,
      "t": 133664.15205000044,
      "d": 471.4281000000192,
      "v": 39
    },
    {
      "midi": 64,
      "hit": false,
      "t": 133674.86632500045,
      "d": 524.9994750000187,
      "v": 47
    },
    {
      "midi": 68,
      "hit": false,
      "t": 133682.00917500045,
      "d": 467.8566750000173,
      "v": 40
    },
    {
      "midi": 61,
      "hit": false,
      "t": 133689.15202500045,
      "d": 132.14272500001243,
      "v": 44
    },
    {
      "midi": 70,
      "hit": false,
      "t": 133689.15202500045,
      "d": 464.28525000001537,
      "v": 41
    },
    {
      "midi": 70,
      "hit": false,
      "t": 134614.15110000048,
      "d": 1696.4268750000629,
      "v": 44
    },
    {
      "midi": 66,
      "hit": false,
      "t": 134632.0082250005,
      "d": 571.4280000000144,
      "v": 34
    },
    {
      "midi": 63,
      "hit": false,
      "t": 134639.1510750005,
      "d": 667.8564750000078,
      "v": 34
    },
    {
      "midi": 54,
      "hit": false,
      "t": 134639.1510750005,
      "d": 1892.8552500000515,
      "v": 27
    },
    {
      "midi": 47,
      "hit": false,
      "t": 134642.7225000005,
      "d": 1560.7127250000485,
      "v": 41
    },
    {
      "midi": 59,
      "hit": false,
      "t": 134646.2939250005,
      "d": 446.4281250000058,
      "v": 28
    },
    {
      "midi": 66,
      "hit": false,
      "t": 135585.5787000005,
      "d": 760.7135250000283,
      "v": 41
    },
    {
      "midi": 59,
      "hit": false,
      "t": 135592.7215500005,
      "d": 532.1423250000225,
      "v": 56
    },
    {
      "midi": 63,
      "hit": false,
      "t": 135603.43582500052,
      "d": 742.8564000000188,
      "v": 38
    },
    {
      "midi": 58,
      "hit": false,
      "t": 135617.72152500052,
      "d": 517.8566250000149,
      "v": 31
    },
    {
      "midi": 62,
      "hit": false,
      "t": 136596.29197500055,
      "d": 653.5707750000292,
      "v": 68
    },
    {
      "midi": 70,
      "hit": false,
      "t": 136596.29197500055,
      "d": 1342.8558000000485,
      "v": 62
    },
    {
      "midi": 46,
      "hit": false,
      "t": 136596.29197500055,
      "d": 1585.712700000091,
      "v": 46
    },
    {
      "midi": 59,
      "hit": false,
      "t": 136603.43482500056,
      "d": 507.1423500000092,
      "v": 57
    },
    {
      "midi": 65,
      "hit": false,
      "t": 136603.43482500056,
      "d": 639.2850750000216,
      "v": 61
    },
    {
      "midi": 56,
      "hit": false,
      "t": 136624.86337500057,
      "d": 485.7137999999977,
      "v": 29
    },
    {
      "midi": 62,
      "hit": false,
      "t": 137589.1481250006,
      "d": 449.99955000003683,
      "v": 56
    },
    {
      "midi": 65,
      "hit": false,
      "t": 137599.8624000006,
      "d": 414.28530000001774,
      "v": 43
    },
    {
      "midi": 59,
      "hit": false,
      "t": 137610.5766750006,
      "d": 342.85680000000866,
      "v": 33
    },
    {
      "midi": 56,
      "hit": false,
      "t": 137614.1481000006,
      "d": 660.7136250000331,
      "v": 25
    },
    {
      "midi": 70,
      "hit": false,
      "t": 138057.00480000064,
      "d": 382.14247500000056,
      "v": 89
    },
    {
      "midi": 70,
      "hit": false,
      "t": 138560.57572500064,
      "d": 953.5704749999859,
      "v": 73
    },
    {
      "midi": 56,
      "hit": false,
      "t": 138567.71857500065,
      "d": 324.99967499997,
      "v": 43
    },
    {
      "midi": 61,
      "hit": false,
      "t": 138571.29000000065,
      "d": 264.28544999999576,
      "v": 65
    },
    {
      "midi": 65,
      "hit": false,
      "t": 138571.29000000065,
      "d": 385.71389999997336,
      "v": 76
    },
    {
      "midi": 46,
      "hit": false,
      "t": 138578.43285000065,
      "d": 285.7139999999781,
      "v": 39
    },
    {
      "midi": 65,
      "hit": false,
      "t": 139499.86050000062,
      "d": 782.1420749999816,
      "v": 49
    },
    {
      "midi": 61,
      "hit": false,
      "t": 139510.57477500063,
      "d": 942.8561999999802,
      "v": 43
    },
    {
      "midi": 60,
      "hit": false,
      "t": 139517.71762500063,
      "d": 767.8563749999739,
      "v": 39
    },
    {
      "midi": 72,
      "hit": false,
      "t": 140253.43117500062,
      "d": 239.2854749999824,
      "v": 79
    },
    {
      "midi": 73,
      "hit": false,
      "t": 140528.4309000006,
      "d": 324.9996750000282,
      "v": 74
    },
    {
      "midi": 61,
      "hit": false,
      "t": 140539.1451750006,
      "d": 614.2851000000373,
      "v": 43
    },
    {
      "midi": 65,
      "hit": false,
      "t": 140549.8594500006,
      "d": 503.57092500003637,
      "v": 63
    },
    {
      "midi": 55,
      "hit": false,
      "t": 140567.7165750006,
      "d": 1535.712749999977,
      "v": 52
    },
    {
      "midi": 75,
      "hit": false,
      "t": 140807.00205000062,
      "d": 121.4284500000067,
      "v": 86
    },
    {
      "midi": 77,
      "hit": false,
      "t": 140999.85900000064,
      "d": 178.57125000000815,
      "v": 77
    },
    {
      "midi": 79,
      "hit": false,
      "t": 141160.57312500064,
      "d": 103.57132499999716,
      "v": 76
    },
    {
      "midi": 80,
      "hit": false,
      "t": 141314.14440000063,
      "d": 96.42847499999334,
      "v": 83
    },
    {
      "midi": 82,
      "hit": false,
      "t": 141453.42997500062,
      "d": 139.28557499998715,
      "v": 71
    },
    {
      "midi": 64,
      "hit": false,
      "t": 141499.8585000006,
      "d": 535.7137499999953,
      "v": 56
    },
    {
      "midi": 61,
      "hit": false,
      "t": 141499.8585000006,
      "d": 571.4279999999853,
      "v": 40
    },
    {
      "midi": 81,
      "hit": false,
      "t": 141617.71552500062,
      "d": 192.8569500000158,
      "v": 74
    },
    {
      "midi": 82,
      "hit": false,
      "t": 141814.14390000064,
      "d": 103.57132499999716,
      "v": 74
    },
    {
      "midi": 84,
      "hit": false,
      "t": 141953.42947500062,
      "d": 121.4284499999776,
      "v": 61
    },
    {
      "midi": 85,
      "hit": false,
      "t": 142071.2865000006,
      "d": 107.14274999999907,
      "v": 77
    },
    {
      "midi": 87,
      "hit": false,
      "t": 142217.7149250006,
      "d": 71.42850000000908,
      "v": 58
    },
    {
      "midi": 88,
      "hit": false,
      "t": 142307.0005500006,
      "d": 92.85704999999143,
      "v": 59
    },
    {
      "midi": 89,
      "hit": false,
      "t": 142421.2861500006,
      "d": 92.85704999999143,
      "v": 69
    },
    {
      "midi": 90,
      "hit": false,
      "t": 142535.5717500006,
      "d": 146.42842499999097,
      "v": 76
    },
    {
      "midi": 44,
      "hit": false,
      "t": 142674.8573250006,
      "d": 335.71395000000484,
      "v": 46
    },
    {
      "midi": 91,
      "hit": false,
      "t": 142682.0001750006,
      "d": 253.57117499999003,
      "v": 79
    },
    {
      "midi": 55,
      "hit": false,
      "t": 142692.7144500006,
      "d": 353.5710750000144,
      "v": 37
    },
    {
      "midi": 91,
      "hit": false,
      "t": 143024.8569750006,
      "d": 96.42847500002244,
      "v": 75
    },
    {
      "midi": 91,
      "hit": false,
      "t": 143271.28530000063,
      "d": 124.99987500000861,
      "v": 79
    },
    {
      "midi": 91,
      "hit": false,
      "t": 143478.42795000062,
      "d": 117.8570250000048,
      "v": 74
    },
    {
      "midi": 63,
      "hit": false,
      "t": 143678.4277500006,
      "d": 260.71402500002296,
      "v": 40
    },
    {
      "midi": 60,
      "hit": false,
      "t": 143685.57060000062,
      "d": 267.8568750000268,
      "v": 43
    },
    {
      "midi": 91,
      "hit": false,
      "t": 143692.71345000062,
      "d": 199.9998000000196,
      "v": 76
    },
    {
      "midi": 56,
      "hit": false,
      "t": 143703.42772500063,
      "d": 367.856775000022,
      "v": 27
    },
    {
      "midi": 84,
      "hit": false,
      "t": 143728.42770000064,
      "d": 228.57120000000577,
      "v": 43
    },
    {
      "midi": 79,
      "hit": false,
      "t": 143731.99912500064,
      "d": 232.14262500000768,
      "v": 37
    },
    {
      "midi": 89,
      "hit": false,
      "t": 144039.14167500066,
      "d": 32.14282499998808,
      "v": 29
    },
    {
      "midi": 89,
      "hit": false,
      "t": 144271.28430000064,
      "d": 153.57127499999478,
      "v": 74
    },
    {
      "midi": 80,
      "hit": false,
      "t": 144292.71285000065,
      "d": 96.42847499999334,
      "v": 62
    },
    {
      "midi": 51,
      "hit": false,
      "t": 144681.99817500063,
      "d": 299.99970000001485,
      "v": 50
    },
    {
      "midi": 91,
      "hit": false,
      "t": 144681.99817500063,
      "d": 532.1423250000225,
      "v": 68
    },
    {
      "midi": 84,
      "hit": false,
      "t": 144685.56960000063,
      "d": 617.8565250000102,
      "v": 58
    },
    {
      "midi": 44,
      "hit": false,
      "t": 144699.85530000064,
      "d": 299.99970000001485,
      "v": 46
    },
    {
      "midi": 63,
      "hit": false,
      "t": 145621.28295000063,
      "d": 710.7135750000016,
      "v": 25
    },
    {
      "midi": 56,
      "hit": false,
      "t": 145621.28295000063,
      "d": 796.4277749999892,
      "v": 37
    },
    {
      "midi": 60,
      "hit": false,
      "t": 145628.42580000064,
      "d": 585.713699999993,
      "v": 43
    },
    {
      "midi": 89,
      "hit": false,
      "t": 146106.99675000063,
      "d": 274.9997250000015,
      "v": 83
    },
    {
      "midi": 90,
      "hit": false,
      "t": 146421.28215000062,
      "d": 128.57130000001052,
      "v": 53
    },
    {
      "midi": 91,
      "hit": false,
      "t": 146560.56772500064,
      "d": 85.71419999998761,
      "v": 69
    },
    {
      "midi": 92,
      "hit": false,
      "t": 146699.85330000063,
      "d": 589.2851249999949,
      "v": 95
    },
    {
      "midi": 63,
      "hit": false,
      "t": 146731.99612500062,
      "d": 528.5709000000206,
      "v": 29
    },
    {
      "midi": 59,
      "hit": false,
      "t": 146735.56755000062,
      "d": 524.9994750000187,
      "v": 50
    },
    {
      "midi": 53,
      "hit": false,
      "t": 146749.85325000063,
      "d": 510.7137750000111,
      "v": 40
    },
    {
      "midi": 56,
      "hit": false,
      "t": 146749.85325000063,
      "d": 553.5708750000049,
      "v": 29
    },
    {
      "midi": 37,
      "hit": false,
      "t": 147706.99515000064,
      "d": 139.28557500001625,
      "v": 46
    },
    {
      "midi": 44,
      "hit": false,
      "t": 147731.99512500066,
      "d": 174.99982500000624,
      "v": 33
    },
    {
      "midi": 59,
      "hit": false,
      "t": 148246.28032500067,
      "d": 353.5710750000144,
      "v": 51
    },
    {
      "midi": 65,
      "hit": false,
      "t": 148249.85175000067,
      "d": 424.99957500002347,
      "v": 55
    },
    {
      "midi": 53,
      "hit": false,
      "t": 148253.42317500067,
      "d": 853.5705750000488,
      "v": 37
    },
    {
      "midi": 63,
      "hit": false,
      "t": 148260.56602500068,
      "d": 364.2853500000201,
      "v": 32
    },
    {
      "midi": 67,
      "hit": false,
      "t": 148699.8513000007,
      "d": 421.42815000002156,
      "v": 71
    },
    {
      "midi": 59,
      "hit": false,
      "t": 148706.9941500007,
      "d": 346.42822500001057,
      "v": 69
    },
    {
      "midi": 63,
      "hit": false,
      "t": 148706.9941500007,
      "d": 374.99962499999674,
      "v": 50
    },
    {
      "midi": 55,
      "hit": false,
      "t": 148710.5655750007,
      "d": 421.42815000002156,
      "v": 67
    },
    {
      "midi": 56,
      "hit": false,
      "t": 149153.42227500075,
      "d": 510.7137750000402,
      "v": 80
    },
    {
      "midi": 68,
      "hit": false,
      "t": 149160.56512500075,
      "d": 342.85680000000866,
      "v": 71
    },
    {
      "midi": 59,
      "hit": false,
      "t": 149167.70797500075,
      "d": 307.1425500000187,
      "v": 79
    },
    {
      "midi": 63,
      "hit": false,
      "t": 149167.70797500075,
      "d": 360.7139250000182,
      "v": 71
    },
    {
      "midi": 65,
      "hit": false,
      "t": 149174.85082500076,
      "d": 378.57105000002775,
      "v": 65
    },
    {
      "midi": 63,
      "hit": false,
      "t": 149617.7075250008,
      "d": 357.1424999999872,
      "v": 74
    },
    {
      "midi": 70,
      "hit": false,
      "t": 149624.8503750008,
      "d": 389.2853249999753,
      "v": 92
    },
    {
      "midi": 59,
      "hit": false,
      "t": 149628.4218000008,
      "d": 307.14254999998957,
      "v": 89
    },
    {
      "midi": 65,
      "hit": false,
      "t": 149628.4218000008,
      "d": 314.2853999999934,
      "v": 74
    },
    {
      "midi": 58,
      "hit": false,
      "t": 149631.9932250008,
      "d": 382.14247499997145,
      "v": 88
    },
    {
      "midi": 68,
      "hit": false,
      "t": 150078.42135000078,
      "d": 171.42840000003343,
      "v": 69
    },
    {
      "midi": 63,
      "hit": false,
      "t": 150081.99277500078,
      "d": 189.28552500004298,
      "v": 67
    },
    {
      "midi": 56,
      "hit": false,
      "t": 150089.13562500078,
      "d": 82.14277500001481,
      "v": 52
    },
    {
      "midi": 59,
      "hit": false,
      "t": 150092.70705000078,
      "d": 214.28550000002724,
      "v": 70
    },
    {
      "midi": 67,
      "hit": false,
      "t": 150542.70660000082,
      "d": 874.9991250000312,
      "v": 62
    },
    {
      "midi": 58,
      "hit": false,
      "t": 150553.42087500083,
      "d": 807.142050000024,
      "v": 67
    },
    {
      "midi": 39,
      "hit": false,
      "t": 150560.56372500083,
      "d": 1249.998750000057,
      "v": 50
    },
    {
      "midi": 62,
      "hit": false,
      "t": 150564.13515000083,
      "d": 714.2850000000035,
      "v": 74
    },
    {
      "midi": 46,
      "hit": false,
      "t": 150578.42085000084,
      "d": 414.28530000001774,
      "v": 27
    },
    {
      "midi": 55,
      "hit": false,
      "t": 150578.42085000084,
      "d": 714.2850000000035,
      "v": 33
    },
    {
      "midi": 47,
      "hit": false,
      "t": 151024.84897500084,
      "d": 435.7138500000001,
      "v": 47
    },
    {
      "midi": 62,
      "hit": false,
      "t": 151489.13422500083,
      "d": 189.28552500004298,
      "v": 63
    },
    {
      "midi": 48,
      "hit": false,
      "t": 151499.84850000084,
      "d": 339.28537500003586,
      "v": 56
    },
    {
      "midi": 58,
      "hit": false,
      "t": 151506.99135000084,
      "d": 167.85697500003153,
      "v": 45
    },
    {
      "midi": 55,
      "hit": false,
      "t": 151514.13420000084,
      "d": 85.71420000001672,
      "v": 51
    },
    {
      "midi": 74,
      "hit": false,
      "t": 152006.99085000088,
      "d": 182.14267500001006,
      "v": 93
    },
    {
      "midi": 67,
      "hit": false,
      "t": 152010.56227500088,
      "d": 178.57125000000815,
      "v": 95
    },
    {
      "midi": 51,
      "hit": false,
      "t": 152021.27655000088,
      "d": 1710.7125750000123,
      "v": 46
    },
    {
      "midi": 60,
      "hit": false,
      "t": 152092.7050500009,
      "d": 39.2856749999919,
      "v": 43
    },
    {
      "midi": 72,
      "hit": false,
      "t": 152199.8478000009,
      "d": 185.71409999998286,
      "v": 52
    },
    {
      "midi": 59,
      "hit": false,
      "t": 152228.41920000088,
      "d": 153.57127499999478,
      "v": 45
    },
    {
      "midi": 63,
      "hit": false,
      "t": 152431.99042500087,
      "d": 721.4278500000073,
      "v": 71
    },
    {
      "midi": 67,
      "hit": false,
      "t": 152431.99042500087,
      "d": 746.4278250000207,
      "v": 82
    },
    {
      "midi": 74,
      "hit": false,
      "t": 152431.99042500087,
      "d": 760.7135250000283,
      "v": 86
    },
    {
      "midi": 60,
      "hit": false,
      "t": 152453.41897500088,
      "d": 596.4279749999987,
      "v": 58
    },
    {
      "midi": 60,
      "hit": false,
      "t": 153421.2751500009,
      "d": 260.71402499999385,
      "v": 37
    },
    {
      "midi": 74,
      "hit": false,
      "t": 153739.1319750009,
      "d": 189.28552500001388,
      "v": 71
    },
    {
      "midi": 72,
      "hit": false,
      "t": 154006.98885000093,
      "d": 85.71419999998761,
      "v": 44
    },
    {
      "midi": 39,
      "hit": false,
      "t": 154374.84562500092,
      "d": 299.99970000001485,
      "v": 32
    },
    {
      "midi": 78,
      "hit": false,
      "t": 154378.41705000092,
      "d": 2057.140800000023,
      "v": 47
    },
    {
      "midi": 54,
      "hit": false,
      "t": 154381.98847500092,
      "d": 414.28530000001774,
      "v": 32
    },
    {
      "midi": 66,
      "hit": false,
      "t": 154403.41702500093,
      "d": 589.2851249999949,
      "v": 52
    },
    {
      "midi": 66,
      "hit": false,
      "t": 155349.84465000092,
      "d": 649.9993500000273,
      "v": 47
    },
    {
      "midi": 69,
      "hit": false,
      "t": 155364.13035000092,
      "d": 589.285125000024,
      "v": 62
    },
    {
      "midi": 65,
      "hit": false,
      "t": 155374.84462500093,
      "d": 446.4281250000058,
      "v": 56
    },
    {
      "midi": 72,
      "hit": false,
      "t": 155385.55890000093,
      "d": 432.1424249999982,
      "v": 20
    },
    {
      "midi": 63,
      "hit": false,
      "t": 155821.27275000094,
      "d": 432.1424249999982,
      "v": 61
    },
    {
      "midi": 66,
      "hit": false,
      "t": 156271.27230000094,
      "d": 639.2850749999925,
      "v": 40
    },
    {
      "midi": 69,
      "hit": false,
      "t": 156278.41515000095,
      "d": 492.85665000000154,
      "v": 49
    },
    {
      "midi": 60,
      "hit": false,
      "t": 156753.41467500094,
      "d": 114.28560000000289,
      "v": 51
    },
    {
      "midi": 66,
      "hit": false,
      "t": 157206.98565000095,
      "d": 267.8568749999977,
      "v": 53
    },
    {
      "midi": 63,
      "hit": false,
      "t": 157206.98565000095,
      "d": 332.14252500000293,
      "v": 52
    },
    {
      "midi": 54,
      "hit": false,
      "t": 157214.12850000095,
      "d": 564.2851500000106,
      "v": 34
    },
    {
      "midi": 57,
      "hit": false,
      "t": 157217.69992500095,
      "d": 503.57092500000726,
      "v": 43
    },
    {
      "midi": 63,
      "hit": false,
      "t": 157728.41370000097,
      "d": 203.5712249999924,
      "v": 93
    },
    {
      "midi": 62,
      "hit": false,
      "t": 157967.69917500095,
      "d": 257.14259999999194,
      "v": 94
    },
    {
      "midi": 60,
      "hit": false,
      "t": 158235.55605000095,
      "d": 357.1424999999872,
      "v": 95
    },
    {
      "midi": 51,
      "hit": false,
      "t": 158242.69890000095,
      "d": 535.7137499999662,
      "v": 39
    },
    {
      "midi": 41,
      "hit": false,
      "t": 158249.84175000095,
      "d": 1282.141574999987,
      "v": 64
    },
    {
      "midi": 60,
      "hit": false,
      "t": 158685.55560000092,
      "d": 607.1422500000044,
      "v": 80
    },
    {
      "midi": 51,
      "hit": false,
      "t": 159299.84070000093,
      "d": 324.9996749999991,
      "v": 13
    },
    {
      "midi": 60,
      "hit": false,
      "t": 159542.69760000095,
      "d": 203.5712249999924,
      "v": 68
    },
    {
      "midi": 58,
      "hit": false,
      "t": 159774.84022500092,
      "d": 128.57130000001052,
      "v": 43
    },
    {
      "midi": 60,
      "hit": false,
      "t": 160067.69707500094,
      "d": 364.2853500000201,
      "v": 53
    },
    {
      "midi": 56,
      "hit": false,
      "t": 160078.41135000094,
      "d": 414.28529999998864,
      "v": 37
    },
    {
      "midi": 46,
      "hit": false,
      "t": 160081.98277500094,
      "d": 378.57104999999865,
      "v": 43
    },
    {
      "midi": 67,
      "hit": false,
      "t": 161067.69607500092,
      "d": 303.57112500001676,
      "v": 50
    },
    {
      "midi": 63,
      "hit": false,
      "t": 161078.41035000092,
      "d": 474.9995250000211,
      "v": 39
    },
    {
      "midi": 84,
      "hit": false,
      "t": 161085.55320000093,
      "d": 239.2854750000115,
      "v": 85
    },
    {
      "midi": 72,
      "hit": false,
      "t": 161110.55317500094,
      "d": 278.5711500000034,
      "v": 55
    },
    {
      "midi": 60,
      "hit": false,
      "t": 161110.55317500094,
      "d": 471.4281000000192,
      "v": 41
    },
    {
      "midi": 82,
      "hit": false,
      "t": 161574.83842500095,
      "d": 178.57125000000815,
      "v": 68
    },
    {
      "midi": 70,
      "hit": false,
      "t": 161592.69555000096,
      "d": 146.42842499999097,
      "v": 56
    },
    {
      "midi": 84,
      "hit": false,
      "t": 162081.98077500096,
      "d": 567.8565750000125,
      "v": 91
    },
    {
      "midi": 63,
      "hit": false,
      "t": 162089.12362500097,
      "d": 264.28544999999576,
      "v": 67
    },
    {
      "midi": 53,
      "hit": false,
      "t": 162096.26647500097,
      "d": 332.14252500000293,
      "v": 51
    },
    {
      "midi": 56,
      "hit": false,
      "t": 162096.26647500097,
      "d": 546.4280250000011,
      "v": 46
    },
    {
      "midi": 72,
      "hit": false,
      "t": 162128.40930000096,
      "d": 503.57092500000726,
      "v": 61
    },
    {
      "midi": 60,
      "hit": false,
      "t": 162589.12312500097,
      "d": 560.7137250000087,
      "v": 52
    },
    {
      "midi": 75,
      "hit": false,
      "t": 163074.83692500097,
      "d": 85.71420000001672,
      "v": 59
    },
    {
      "midi": 87,
      "hit": false,
      "t": 163074.83692500097,
      "d": 124.99987500000861,
      "v": 68
    },
    {
      "midi": 63,
      "hit": false,
      "t": 163096.26547500098,
      "d": 414.28529999998864,
      "v": 29
    },
    {
      "midi": 92,
      "hit": false,
      "t": 163589.12212500098,
      "d": 132.14272499998333,
      "v": 63
    },
    {
      "midi": 80,
      "hit": false,
      "t": 163599.836400001,
      "d": 85.71419999998761,
      "v": 40
    },
    {
      "midi": 96,
      "hit": false,
      "t": 164203.40722500096,
      "d": 242.8569000000134,
      "v": 65
    },
    {
      "midi": 34,
      "hit": false,
      "t": 164206.97865000096,
      "d": 232.14262500000768,
      "v": 51
    },
    {
      "midi": 68,
      "hit": false,
      "t": 164881.97797500098,
      "d": 403.571025000012,
      "v": 55
    },
    {
      "midi": 70,
      "hit": false,
      "t": 165106.97775000098,
      "d": 189.28552500001388,
      "v": 68
    },
    {
      "midi": 71,
      "hit": false,
      "t": 165310.548975001,
      "d": 185.71410000001197,
      "v": 69
    },
    {
      "midi": 74,
      "hit": false,
      "t": 165471.263100001,
      "d": 164.28555000002962,
      "v": 69
    },
    {
      "midi": 76,
      "hit": false,
      "t": 165628.40580000103,
      "d": 142.85700000001816,
      "v": 63
    },
    {
      "midi": 79,
      "hit": false,
      "t": 165767.69137500104,
      "d": 42.85709999999381,
      "v": 59
    },
    {
      "midi": 80,
      "hit": false,
      "t": 165835.54845000105,
      "d": 114.28560000000289,
      "v": 40
    },
    {
      "midi": 82,
      "hit": false,
      "t": 165949.83405000105,
      "d": 42.85709999999381,
      "v": 40
    },
    {
      "midi": 83,
      "hit": false,
      "t": 165999.83400000105,
      "d": 96.42847499999334,
      "v": 50
    },
    {
      "midi": 86,
      "hit": false,
      "t": 166085.54820000104,
      "d": 103.57132499999716,
      "v": 73
    },
    {
      "midi": 88,
      "hit": false,
      "t": 166146.26242500104,
      "d": 78.5713500000129,
      "v": 50
    },
    {
      "midi": 91,
      "hit": false,
      "t": 166206.97665000104,
      "d": 53.571374999999534,
      "v": 64
    },
    {
      "midi": 92,
      "hit": false,
      "t": 166267.69087500105,
      "d": 85.71419999998761,
      "v": 67
    },
    {
      "midi": 94,
      "hit": false,
      "t": 166314.11940000104,
      "d": 53.571374999999534,
      "v": 40
    },
    {
      "midi": 95,
      "hit": false,
      "t": 166389.11932500105,
      "d": 135.71415000001434,
      "v": 26
    },
    {
      "midi": 98,
      "hit": false,
      "t": 166456.97640000106,
      "d": 135.71415000001434,
      "v": 49
    },
    {
      "midi": 100,
      "hit": false,
      "t": 166535.54775000107,
      "d": 53.571374999999534,
      "v": 64
    },
    {
      "midi": 103,
      "hit": false,
      "t": 166614.1191000011,
      "d": 107.14274999999907,
      "v": 101
    },
    {
      "midi": 74,
      "hit": false,
      "t": 168046.2605250011,
      "d": 2032.1408250000095,
      "v": 113
    },
    {
      "midi": 50,
      "hit": false,
      "t": 168060.5462250011,
      "d": 903.5705249999883,
      "v": 67
    },
    {
      "midi": 77,
      "hit": false,
      "t": 171064.1146500011,
      "d": 392.8567500000063,
      "v": 61
    },
    {
      "midi": 51,
      "hit": false,
      "t": 171071.2575000011,
      "d": 2282.1405749999685,
      "v": 40
    },
    {
      "midi": 74,
      "hit": false,
      "t": 171078.40035000112,
      "d": 742.8563999999897,
      "v": 55
    },
    {
      "midi": 69,
      "hit": false,
      "t": 171081.97177500112,
      "d": 699.9992999999959,
      "v": 56
    },
    {
      "midi": 59,
      "hit": false,
      "t": 171092.68605000112,
      "d": 949.999049999984,
      "v": 41
    },
    {
      "midi": 66,
      "hit": false,
      "t": 171096.25747500113,
      "d": 782.1420749999816,
      "v": 31
    },
    {
      "midi": 77,
      "hit": false,
      "t": 171553.3998750011,
      "d": 324.9996749999991,
      "v": 68
    },
    {
      "midi": 77,
      "hit": false,
      "t": 172096.2564750011,
      "d": 1021.4275499999931,
      "v": 52
    },
    {
      "midi": 70,
      "hit": false,
      "t": 172106.9707500011,
      "d": 1392.8557499999588,
      "v": 41
    },
    {
      "midi": 67,
      "hit": false,
      "t": 172128.39930000113,
      "d": 1192.8559499999683,
      "v": 46
    },
    {
      "midi": 60,
      "hit": false,
      "t": 172160.5421250011,
      "d": 1192.8559499999683,
      "v": 17
    },
    {
      "midi": 75,
      "hit": false,
      "t": 173110.5411750011,
      "d": 382.14247499997145,
      "v": 61
    },
    {
      "midi": 77,
      "hit": false,
      "t": 173810.54047500106,
      "d": 524.9994750000478,
      "v": 55
    },
    {
      "midi": 51,
      "hit": false,
      "t": 173821.25475000107,
      "d": 2242.854900000035,
      "v": 41
    },
    {
      "midi": 74,
      "hit": false,
      "t": 173839.11187500108,
      "d": 774.999225000036,
      "v": 64
    },
    {
      "midi": 69,
      "hit": false,
      "t": 173842.68330000108,
      "d": 707.1421500000288,
      "v": 50
    },
    {
      "midi": 75,
      "hit": false,
      "t": 173856.9690000011,
      "d": 414.28530000001774,
      "v": 29
    },
    {
      "midi": 59,
      "hit": false,
      "t": 173878.3975500011,
      "d": 1099.998900000006,
      "v": 16
    },
    {
      "midi": 66,
      "hit": false,
      "t": 173949.8260500011,
      "d": 707.1421499999997,
      "v": 2
    },
    {
      "midi": 77,
      "hit": false,
      "t": 174421.2541500011,
      "d": 242.8569000000134,
      "v": 49
    },
    {
      "midi": 77,
      "hit": false,
      "t": 175046.2535250011,
      "d": 835.7134500000102,
      "v": 47
    },
    {
      "midi": 70,
      "hit": false,
      "t": 175056.96780000112,
      "d": 1714.283999999985,
      "v": 44
    },
    {
      "midi": 67,
      "hit": false,
      "t": 175064.11065000112,
      "d": 1124.9988749999902,
      "v": 41
    },
    {
      "midi": 60,
      "hit": false,
      "t": 175067.68207500112,
      "d": 964.2847499999916,
      "v": 37
    },
    {
      "midi": 75,
      "hit": false,
      "t": 175964.1097500011,
      "d": 982.1418750000012,
      "v": 46
    },
    {
      "midi": 77,
      "hit": false,
      "t": 177810.5364750011,
      "d": 1103.5703250000079,
      "v": 52
    },
    {
      "midi": 39,
      "hit": false,
      "t": 177831.96502500112,
      "d": 367.8567749999929,
      "v": 39
    },
    {
      "midi": 70,
      "hit": false,
      "t": 177831.96502500112,
      "d": 1089.2846250000002,
      "v": 38
    },
    {
      "midi": 67,
      "hit": false,
      "t": 177846.25072500113,
      "d": 974.9990249999682,
      "v": 43
    },
    {
      "midi": 65,
      "hit": false,
      "t": 177846.25072500113,
      "d": 978.5704499999702,
      "v": 44
    },
    {
      "midi": 46,
      "hit": false,
      "t": 178249.8217500011,
      "d": 249.99974999998813,
      "v": 38
    },
    {
      "midi": 57,
      "hit": false,
      "t": 178556.9643000011,
      "d": 285.7140000000072,
      "v": 52
    },
    {
      "midi": 58,
      "hit": false,
      "t": 178821.2497500011,
      "d": 3914.281800000026,
      "v": 53
    },
    {
      "midi": 62,
      "hit": false,
      "t": 179092.67805000112,
      "d": 3596.4249750000017,
      "v": 65
    },
    {
      "midi": 69,
      "hit": false,
      "t": 179381.96347500113,
      "d": 3239.2824749999854,
      "v": 28
    },
    {
      "midi": 70,
      "hit": false,
      "t": 179610.53467500114,
      "d": 139.28557499998715,
      "v": 50
    },
    {
      "midi": 74,
      "hit": false,
      "t": 179835.5344500011,
      "d": 135.71415000001434,
      "v": 52
    },
    {
      "midi": 81,
      "hit": false,
      "t": 180285.53400000112,
      "d": 182.14267500001006,
      "v": 52
    },
    {
      "midi": 82,
      "hit": false,
      "t": 180510.53377500112,
      "d": 199.9997999999905,
      "v": 44
    },
    {
      "midi": 86,
      "hit": false,
      "t": 180742.6764000011,
      "d": 167.85697500000242,
      "v": 63
    },
    {
      "midi": 84,
      "hit": false,
      "t": 180971.2476000011,
      "d": 199.9997999999905,
      "v": 44
    },
    {
      "midi": 93,
      "hit": false,
      "t": 181221.2473500011,
      "d": 267.8568749999977,
      "v": 63
    },
    {
      "midi": 91,
      "hit": false,
      "t": 181506.9613500011,
      "d": 257.14259999999194,
      "v": 47
    },
    {
      "midi": 98,
      "hit": false,
      "t": 181792.67535000108,
      "d": 253.57117499999003,
      "v": 63
    },
    {
      "midi": 93,
      "hit": false,
      "t": 182056.96080000108,
      "d": 182.14267500001006,
      "v": 45
    },
    {
      "midi": 94,
      "hit": false,
      "t": 182246.2463250011,
      "d": 71.42850000000908,
      "v": 70
    },
    {
      "midi": 98,
      "hit": false,
      "t": 182453.38897500111,
      "d": 117.8570250000048,
      "v": 41
    },
    {
      "midi": 101,
      "hit": false,
      "t": 182617.67452500112,
      "d": 178.57125000000815,
      "v": 64
    },
    {
      "midi": 105,
      "hit": false,
      "t": 182789.10292500112,
      "d": 114.28560000000289,
      "v": 77
    },
    {
      "midi": 106,
      "hit": false,
      "t": 182985.5313000011,
      "d": 167.85697500000242,
      "v": 67
    },
    {
      "midi": 108,
      "hit": false,
      "t": 183171.24540000112,
      "d": 249.99974999998813,
      "v": 67
    },
    {
      "midi": 27,
      "hit": false,
      "t": 183417.6737250011,
      "d": 103.57132499999716,
      "v": 62
    }
  ]
}