{
  "jsonPath": "Rock/Rock En Espanol/Café Quijano/la-taberna-del-buda.json",
  "path": "Rock\\Rock En Espanol\\Café Quijano\\La taberna del Buda.mid",
  "name": "La taberna del Buda",
  "difficulty": "Advanced",
  "bpm": 162.000162000162,
  "notes": [
    {
      "midi": 65,
      "hit": false,
      "t": 114073.96000000002,
      "d": 95.67891666667128,
      "v": 127
    },
    {
      "midi": 59,
      "hit": false,
      "t": 114073.96000000002,
      "d": 435.18475000000035,
      "v": 116
    },
    {
      "midi": 66,
      "hit": false,
      "t": 114138.77475000003,
      "d": 398.1477499999892,
      "v": 108
    },
    {
      "midi": 56,
      "hit": false,
      "t": 115925.81000000001,
      "d": 185.18499999999767,
      "v": 127
    },
    {
      "midi": 59,
      "hit": false,
      "t": 115925.81000000001,
      "d": 185.18499999999767,
      "v": 127
    },
    {
      "midi": 64,
      "hit": false,
      "t": 115925.81000000001,
      "d": 185.18499999999767,
      "v": 127
    },
    {
      "midi": 68,
      "hit": false,
      "t": 115925.81000000001,
      "d": 185.18499999999767,
      "v": 127
    },
    {
      "midi": 54,
      "hit": false,
      "t": 116110.99500000001,
      "d": 925.9250000000029,
      "v": 104
    },
    {
      "midi": 57,
      "hit": false,
      "t": 116110.99500000001,
      "d": 925.9250000000029,
      "v": 104
    },
    {
      "midi": 62,
      "hit": false,
      "t": 116110.99500000001,
      "d": 925.9250000000029,
      "v": 104
    },
    {
      "midi": 66,
      "hit": false,
      "t": 116110.99500000001,
      "d": 925.9250000000029,
      "v": 104
    },
    {
      "midi": 59,
      "hit": false,
      "t": 118888.77000000002,
      "d": 92.59249999999884,
      "v": 102
    },
    {
      "midi": 65,
      "hit": false,
      "t": 118888.77000000002,
      "d": 92.59249999999884,
      "v": 111
    },
    {
      "midi": 66,
      "hit": false,
      "t": 118888.77000000002,
      "d": 92.59249999999884,
      "v": 116
    },
    {
      "midi": 59,
      "hit": false,
      "t": 119073.95500000002,
      "d": 92.59249999999884,
      "v": 103
    },
    {
      "midi": 65,
      "hit": false,
      "t": 119073.95500000002,
      "d": 92.59249999999884,
      "v": 112
    },
    {
      "midi": 66,
      "hit": false,
      "t": 119073.95500000002,
      "d": 92.59249999999884,
      "v": 116
    },
    {
      "midi": 65,
      "hit": false,
      "t": 119259.14000000001,
      "d": 92.59249999999884,
      "v": 127
    },
    {
      "midi": 64,
      "hit": false,
      "t": 119351.73250000001,
      "d": 92.59249999999884,
      "v": 112
    },
    {
      "midi": 62,
      "hit": false,
      "t": 119444.32500000001,
      "d": 92.59249999999884,
      "v": 86
    },
    {
      "midi": 59,
      "hit": false,
      "t": 119536.91750000001,
      "d": 92.59249999999884,
      "v": 110
    },
    {
      "midi": 59,
      "hit": false,
      "t": 119629.51000000001,
      "d": 277.7774999999965,
      "v": 115
    },
    {
      "midi": 64,
      "hit": false,
      "t": 119629.51000000001,
      "d": 277.7774999999965,
      "v": 115
    },
    {
      "midi": 68,
      "hit": false,
      "t": 119629.51000000001,
      "d": 277.7774999999965,
      "v": 115
    },
    {
      "midi": 35,
      "hit": false,
      "t": 119999.88,
      "d": 277.7774999999965,
      "v": 127
    },
    {
      "midi": 59,
      "hit": false,
      "t": 119999.88,
      "d": 277.7774999999965,
      "v": 115
    },
    {
      "midi": 62,
      "hit": false,
      "t": 119999.88,
      "d": 277.7774999999965,
      "v": 124
    },
    {
      "midi": 66,
      "hit": false,
      "t": 119999.88,
      "d": 277.7774999999965,
      "v": 115
    },
    {
      "midi": 56,
      "hit": false,
      "t": 121851.73,
      "d": 185.18499999999767,
      "v": 127
    },
    {
      "midi": 59,
      "hit": false,
      "t": 121851.73,
      "d": 185.18499999999767,
      "v": 127
    },
    {
      "midi": 64,
      "hit": false,
      "t": 121851.73,
      "d": 185.18499999999767,
      "v": 127
    },
    {
      "midi": 68,
      "hit": false,
      "t": 121851.73,
      "d": 185.18499999999767,
      "v": 127
    },
    {
      "midi": 54,
      "hit": false,
      "t": 122036.915,
      "d": 925.9250000000029,
      "v": 104
    },
    {
      "midi": 57,
      "hit": false,
      "t": 122036.915,
      "d": 925.9250000000029,
      "v": 104
    },
    {
      "midi": 62,
      "hit": false,
      "t": 122036.915,
      "d": 925.9250000000029,
      "v": 104
    },
    {
      "midi": 66,
      "hit": false,
      "t": 122036.915,
      "d": 925.9250000000029,
      "v": 104
    },
    {
      "midi": 65,
      "hit": false,
      "t": 124444.31999999999,
      "d": 92.59249999999884,
      "v": 127
    },
    {
      "midi": 71,
      "hit": false,
      "t": 124444.31999999999,
      "d": 277.7774999999965,
      "v": 127
    },
    {
      "midi": 83,
      "hit": false,
      "t": 124444.31999999999,
      "d": 277.7774999999965,
      "v": 127
    },
    {
      "midi": 66,
      "hit": false,
      "t": 124536.91249999999,
      "d": 185.18499999999767,
      "v": 116
    },
    {
      "midi": 96,
      "hit": false,
      "t": 139620.23075,
      "d": 74.07400000002235,
      "v": 118
    },
    {
      "midi": 95,
      "hit": false,
      "t": 139678.87266666666,
      "d": 30.864166666695382,
      "v": 95
    },
    {
      "midi": 93,
      "hit": false,
      "t": 139700.47758333336,
      "d": 24.69133333332138,
      "v": 106
    },
    {
      "midi": 91,
      "hit": false,
      "t": 139722.08250000002,
      "d": 18.518500000005588,
      "v": 124
    },
    {
      "midi": 89,
      "hit": false,
      "t": 139740.60100000002,
      "d": 18.518500000005588,
      "v": 112
    },
    {
      "midi": 88,
      "hit": false,
      "t": 139762.2059166667,
      "d": 12.34566666666069,
      "v": 106
    },
    {
      "midi": 86,
      "hit": false,
      "t": 139774.55158333335,
      "d": 18.518500000005588,
      "v": 118
    },
    {
      "midi": 84,
      "hit": false,
      "t": 139793.07008333335,
      "d": 33.95058333335328,
      "v": 115
    },
    {
      "midi": 83,
      "hit": false,
      "t": 139811.58858333336,
      "d": 21.604916666663485,
      "v": 124
    },
    {
      "midi": 81,
      "hit": false,
      "t": 139830.10708333337,
      "d": 24.69133333332138,
      "v": 124
    },
    {
      "midi": 79,
      "hit": false,
      "t": 139845.53916666668,
      "d": 24.691333333350485,
      "v": 118
    },
    {
      "midi": 77,
      "hit": false,
      "t": 139864.0576666667,
      "d": 27.777750000008382,
      "v": 114
    },
    {
      "midi": 76,
      "hit": false,
      "t": 139882.5761666667,
      "d": 30.864166666695382,
      "v": 123
    },
    {
      "midi": 74,
      "hit": false,
      "t": 139898.00825000004,
      "d": 24.691333333350485,
      "v": 116
    },
    {
      "midi": 72,
      "hit": false,
      "t": 139919.61316666674,
      "d": 18.518500000005588,
      "v": 116
    },
    {
      "midi": 71,
      "hit": false,
      "t": 139941.2180833334,
      "d": 6.172833333344897,
      "v": 108
    },
    {
      "midi": 77,
      "hit": false,
      "t": 139999.86000000007,
      "d": 185.18499999999767,
      "v": 108
    },
    {
      "midi": 78,
      "hit": false,
      "t": 139999.86000000007,
      "d": 185.18499999999767,
      "v": 115
    },
    {
      "midi": 81,
      "hit": false,
      "t": 139999.86000000007,
      "d": 185.18499999999767,
      "v": 108
    },
    {
      "midi": 77,
      "hit": false,
      "t": 140185.04500000007,
      "d": 185.18499999999767,
      "v": 106
    },
    {
      "midi": 78,
      "hit": false,
      "t": 140185.04500000007,
      "d": 185.18499999999767,
      "v": 123
    },
    {
      "midi": 81,
      "hit": false,
      "t": 140185.04500000007,
      "d": 185.18499999999767,
      "v": 108
    },
    {
      "midi": 77,
      "hit": false,
      "t": 140370.23000000007,
      "d": 185.18499999999767,
      "v": 108
    },
    {
      "midi": 78,
      "hit": false,
      "t": 140370.23000000007,
      "d": 185.18499999999767,
      "v": 116
    },
    {
      "midi": 81,
      "hit": false,
      "t": 140370.23000000007,
      "d": 185.18499999999767,
      "v": 110
    },
    {
      "midi": 77,
      "hit": false,
      "t": 140555.41500000007,
      "d": 185.18499999999767,
      "v": 106
    },
    {
      "midi": 78,
      "hit": false,
      "t": 140555.41500000007,
      "d": 185.18499999999767,
      "v": 115
    },
    {
      "midi": 81,
      "hit": false,
      "t": 140555.41500000007,
      "d": 185.18499999999767,
      "v": 108
    },
    {
      "midi": 59,
      "hit": false,
      "t": 214814.6000000001,
      "d": 95.67891666665673,
      "v": 116
    },
    {
      "midi": 65,
      "hit": false,
      "t": 214814.6000000001,
      "d": 435.1847499999858,
      "v": 127
    },
    {
      "midi": 66,
      "hit": false,
      "t": 214879.41475000008,
      "d": 398.1477500000037,
      "v": 108
    },
    {
      "midi": 56,
      "hit": false,
      "t": 216666.4500000001,
      "d": 185.18499999999767,
      "v": 127
    },
    {
      "midi": 59,
      "hit": false,
      "t": 216666.4500000001,
      "d": 185.18499999999767,
      "v": 127
    },
    {
      "midi": 64,
      "hit": false,
      "t": 216666.4500000001,
      "d": 185.18499999999767,
      "v": 127
    },
    {
      "midi": 68,
      "hit": false,
      "t": 216666.4500000001,
      "d": 185.18499999999767,
      "v": 127
    },
    {
      "midi": 54,
      "hit": false,
      "t": 216851.6350000001,
      "d": 925.9249999999884,
      "v": 104
    },
    {
      "midi": 57,
      "hit": false,
      "t": 216851.6350000001,
      "d": 925.9249999999884,
      "v": 104
    },
    {
      "midi": 62,
      "hit": false,
      "t": 216851.6350000001,
      "d": 925.9249999999884,
      "v": 104
    },
    {
      "midi": 66,
      "hit": false,
      "t": 216851.6350000001,
      "d": 925.9249999999884,
      "v": 104
    },
    {
      "midi": 59,
      "hit": false,
      "t": 219629.4100000001,
      "d": 92.59249999999884,
      "v": 102
    },
    {
      "midi": 65,
      "hit": false,
      "t": 219629.4100000001,
      "d": 92.59249999999884,
      "v": 111
    },
    {
      "midi": 66,
      "hit": false,
      "t": 219629.4100000001,
      "d": 92.59249999999884,
      "v": 116
    },
    {
      "midi": 59,
      "hit": false,
      "t": 219814.5950000001,
      "d": 92.59249999999884,
      "v": 103
    },
    {
      "midi": 65,
      "hit": false,
      "t": 219814.5950000001,
      "d": 92.59249999999884,
      "v": 112
    },
    {
      "midi": 66,
      "hit": false,
      "t": 219814.5950000001,
      "d": 92.59249999999884,
      "v": 116
    },
    {
      "midi": 65,
      "hit": false,
      "t": 219999.7800000001,
      "d": 92.59249999999884,
      "v": 127
    },
    {
      "midi": 64,
      "hit": false,
      "t": 220092.37250000008,
      "d": 92.59249999999884,
      "v": 112
    },
    {
      "midi": 62,
      "hit": false,
      "t": 220184.96500000008,
      "d": 92.59249999999884,
      "v": 86
    },
    {
      "midi": 59,
      "hit": false,
      "t": 220277.55750000008,
      "d": 92.59249999999884,
      "v": 110
    },
    {
      "midi": 59,
      "hit": false,
      "t": 220370.15000000008,
      "d": 277.7774999999965,
      "v": 115
    },
    {
      "midi": 64,
      "hit": false,
      "t": 220370.15000000008,
      "d": 277.7774999999965,
      "v": 115
    },
    {
      "midi": 68,
      "hit": false,
      "t": 220370.15000000008,
      "d": 277.7774999999965,
      "v": 115
    },
    {
      "midi": 35,
      "hit": false,
      "t": 220740.52000000008,
      "d": 277.7774999999965,
      "v": 127
    },
    {
      "midi": 59,
      "hit": false,
      "t": 220740.52000000008,
      "d": 277.7774999999965,
      "v": 115
    },
    {
      "midi": 62,
      "hit": false,
      "t": 220740.52000000008,
      "d": 277.7774999999965,
      "v": 124
    },
    {
      "midi": 66,
      "hit": false,
      "t": 220740.52000000008,
      "d": 277.7774999999965,
      "v": 115
    },
    {
      "midi": 56,
      "hit": false,
      "t": 222592.37000000008,
      "d": 185.18499999999767,
      "v": 127
    },
    {
      "midi": 59,
      "hit": false,
      "t": 222592.37000000008,
      "d": 185.18499999999767,
      "v": 127
    },
    {
      "midi": 64,
      "hit": false,
      "t": 222592.37000000008,
      "d": 185.18499999999767,
      "v": 127
    },
    {
      "midi": 68,
      "hit": false,
      "t": 222592.37000000008,
      "d": 185.18499999999767,
      "v": 127
    },
    {
      "midi": 54,
      "hit": false,
      "t": 222777.55500000008,
      "d": 925.9249999999884,
      "v": 104
    },
    {
      "midi": 57,
      "hit": false,
      "t": 222777.55500000008,
      "d": 925.9249999999884,
      "v": 104
    },
    {
      "midi": 62,
      "hit": false,
      "t": 222777.55500000008,
      "d": 925.9249999999884,
      "v": 104
    },
    {
      "midi": 66,
      "hit": false,
      "t": 222777.55500000008,
      "d": 925.9249999999884,
      "v": 104
    },
    {
      "midi": 71,
      "hit": false,
      "t": 225184.96000000008,
      "d": 92.59249999999884,
      "v": 127
    },
    {
      "midi": 65,
      "hit": false,
      "t": 225184.96000000008,
      "d": 277.7774999999965,
      "v": 127
    },
    {
      "midi": 83,
      "hit": false,
      "t": 225184.96000000008,
      "d": 277.7774999999965,
      "v": 127
    },
    {
      "midi": 66,
      "hit": false,
      "t": 225277.55250000008,
      "d": 185.18499999999767,
      "v": 116
    }
  ]
}