{
  "jsonPath": "Soundtracks/Broadway/Richard Rodgers/if-i-loved-you.json",
  "path": "Soundtracks\\Broadway\\Richard Rodgers\\If I Loved You.mid",
  "name": "If I Loved You",
  "difficulty": "Advanced",
  "bpm": 120,
  "notes": [
    {
      "midi": 60,
      "hit": false,
      "t": 0,
      "d": 1000,
      "v": 100
    },
    {
      "midi": 48,
      "hit": false,
      "t": 250,
      "d": 250,
      "v": 100
    },
    {
      "midi": 52,
      "hit": false,
      "t": 500,
      "d": 250,
      "v": 100
    },
    {
      "midi": 55,
      "hit": false,
      "t": 750,
      "d": 250,
      "v": 100
    },
    {
      "midi": 64,
      "hit": false,
      "t": 1000,
      "d": 1000,
      "v": 100
    },
    {
      "midi": 52,
      "hit": false,
      "t": 1250,
      "d": 250,
      "v": 100
    },
    {
      "midi": 55,
      "hit": false,
      "t": 1500,
      "d": 250,
      "v": 100
    },
    {
      "midi": 60,
      "hit": false,
      "t": 1750,
      "d": 250,
      "v": 100
    },
    {
      "midi": 69,
      "hit": false,
      "t": 2000,
      "d": 500,
      "v": 100
    },
    {
      "midi": 51,
      "hit": false,
      "t": 2250,
      "d": 250,
      "v": 100
    },
    {
      "midi": 69,
      "hit": false,
      "t": 2500,
      "d": 1500,
      "v": 100
    },
    {
      "midi": 54,
      "hit": false,
      "t": 2500,
      "d": 250,
      "v": 100
    },
    {
      "midi": 57,
      "hit": false,
      "t": 2750,
      "d": 250,
      "v": 100
    },
    {
      "midi": 60,
      "hit": false,
      "t": 3000,
      "d": 250,
      "v": 100
    },
    {
      "midi": 57,
      "hit": false,
      "t": 3250,
      "d": 250,
      "v": 100
    },
    {
      "midi": 54,
      "hit": false,
      "t": 3500,
      "d": 250,
      "v": 100
    },
    {
      "midi": 51,
      "hit": false,
      "t": 3750,
      "d": 250,
      "v": 100
    },
    {
      "midi": 72,
      "hit": false,
      "t": 4000,
      "d": 500,
      "v": 100
    },
    {
      "midi": 52,
      "hit": false,
      "t": 4000,
      "d": 500,
      "v": 100
    },
    {
      "midi": 72,
      "hit": false,
      "t": 4500,
      "d": 166.66666666666697,
      "v": 100
    },
    {
      "midi": 55,
      "hit": false,
      "t": 4500,
      "d": 1000,
      "v": 100
    },
    {
      "midi": 60,
      "hit": false,
      "t": 4500,
      "d": 1000,
      "v": 100
    },
    {
      "midi": 71,
      "hit": false,
      "t": 4666.666666666667,
      "d": 166.66666666666697,
      "v": 100
    },
    {
      "midi": 69,
      "hit": false,
      "t": 4833.333333333334,
      "d": 166.66666666666697,
      "v": 100
    },
    {
      "midi": 67,
      "hit": false,
      "t": 5000.000000000001,
      "d": 500,
      "v": 100
    },
    {
      "midi": 55,
      "hit": false,
      "t": 5500,
      "d": 500,
      "v": 100
    },
    {
      "midi": 60,
      "hit": false,
      "t": 5500,
      "d": 500,
      "v": 100
    },
    {
      "midi": 67,
      "hit": false,
      "t": 5500.000000000001,
      "d": 166.66666666666697,
      "v": 100
    },
    {
      "midi": 65,
      "hit": false,
      "t": 5666.666666666668,
      "d": 166.66666666666697,
      "v": 100
    },
    {
      "midi": 64,
      "hit": false,
      "t": 5833.333333333335,
      "d": 166.66666666666697,
      "v": 100
    },
    {
      "midi": 52,
      "hit": false,
      "t": 6000,
      "d": 1000,
      "v": 100
    },
    {
      "midi": 56,
      "hit": false,
      "t": 6000,
      "d": 1000,
      "v": 100
    },
    {
      "midi": 62,
      "hit": false,
      "t": 6000.000000000002,
      "d": 500,
      "v": 100
    },
    {
      "midi": 60,
      "hit": false,
      "t": 6500.000000000002,
      "d": 500,
      "v": 100
    },
    {
      "midi": 64,
      "hit": false,
      "t": 7000.000000000002,
      "d": 1000,
      "v": 100
    },
    {
      "midi": 52,
      "hit": false,
      "t": 7250,
      "d": 250,
      "v": 100
    },
    {
      "midi": 56,
      "hit": false,
      "t": 7500,
      "d": 250,
      "v": 100
    },
    {
      "midi": 60,
      "hit": false,
      "t": 7750,
      "d": 250,
      "v": 100
    },
    {
      "midi": 62,
      "hit": false,
      "t": 8000.000000000002,
      "d": 1000,
      "v": 100
    },
    {
      "midi": 53,
      "hit": false,
      "t": 8250,
      "d": 250,
      "v": 100
    },
    {
      "midi": 55,
      "hit": false,
      "t": 8500,
      "d": 250,
      "v": 100
    },
    {
      "midi": 57,
      "hit": false,
      "t": 8750,
      "d": 250,
      "v": 100
    },
    {
      "midi": 65,
      "hit": false,
      "t": 9000.000000000002,
      "d": 1000,
      "v": 100
    },
    {
      "midi": 53,
      "hit": false,
      "t": 9250,
      "d": 250,
      "v": 100
    },
    {
      "midi": 57,
      "hit": false,
      "t": 9500,
      "d": 250,
      "v": 100
    },
    {
      "midi": 62,
      "hit": false,
      "t": 9750,
      "d": 250,
      "v": 100
    },
    {
      "midi": 71,
      "hit": false,
      "t": 10000.000000000002,
      "d": 500,
      "v": 100
    },
    {
      "midi": 51,
      "hit": false,
      "t": 10250,
      "d": 250,
      "v": 100
    },
    {
      "midi": 54,
      "hit": false,
      "t": 10500,
      "d": 250,
      "v": 100
    },
    {
      "midi": 71,
      "hit": false,
      "t": 10500.000000000002,
      "d": 1000,
      "v": 100
    },
    {
      "midi": 57,
      "hit": false,
      "t": 10750,
      "d": 250,
      "v": 100
    },
    {
      "midi": 60,
      "hit": false,
      "t": 11000,
      "d": 250,
      "v": 100
    },
    {
      "midi": 57,
      "hit": false,
      "t": 11250,
      "d": 250,
      "v": 100
    },
    {
      "midi": 54,
      "hit": false,
      "t": 11500,
      "d": 250,
      "v": 100
    },
    {
      "midi": 72,
      "hit": false,
      "t": 11500.000000000002,
      "d": 500,
      "v": 100
    },
    {
      "midi": 51,
      "hit": false,
      "t": 11750,
      "d": 250,
      "v": 100
    },
    {
      "midi": 52,
      "hit": false,
      "t": 12000,
      "d": 500,
      "v": 100
    },
    {
      "midi": 67,
      "hit": false,
      "t": 12000.000000000002,
      "d": 250,
      "v": 100
    },
    {
      "midi": 60,
      "hit": false,
      "t": 12250.000000000002,
      "d": 250,
      "v": 100
    },
    {
      "midi": 64,
      "hit": false,
      "t": 12500.000000000002,
      "d": 250,
      "v": 100
    },
    {
      "midi": 60,
      "hit": false,
      "t": 12750.000000000002,
      "d": 250,
      "v": 100
    },
    {
      "midi": 52,
      "hit": false,
      "t": 13000,
      "d": 250,
      "v": 100
    },
    {
      "midi": 55,
      "hit": false,
      "t": 13250,
      "d": 250,
      "v": 100
    },
    {
      "midi": 60,
      "hit": false,
      "t": 13500,
      "d": 250,
      "v": 100
    },
    {
      "midi": 55,
      "hit": false,
      "t": 13750,
      "d": 250,
      "v": 100
    },
    {
      "midi": 52,
      "hit": false,
      "t": 14000,
      "d": 500,
      "v": 100
    },
    {
      "midi": 67,
      "hit": false,
      "t": 14000.000000000002,
      "d": 250,
      "v": 100
    },
    {
      "midi": 59,
      "hit": false,
      "t": 14250.000000000002,
      "d": 250,
      "v": 100
    },
    {
      "midi": 64,
      "hit": false,
      "t": 14500.000000000002,
      "d": 250,
      "v": 100
    },
    {
      "midi": 59,
      "hit": false,
      "t": 14750.000000000002,
      "d": 250,
      "v": 100
    },
    {
      "midi": 52,
      "hit": false,
      "t": 15000,
      "d": 250,
      "v": 100
    },
    {
      "midi": 55,
      "hit": false,
      "t": 15250,
      "d": 250,
      "v": 100
    },
    {
      "midi": 59,
      "hit": false,
      "t": 15500,
      "d": 250,
      "v": 100
    },
    {
      "midi": 55,
      "hit": false,
      "t": 15750,
      "d": 250,
      "v": 100
    },
    {
      "midi": 60,
      "hit": false,
      "t": 16000.000000000002,
      "d": 999.9999999999982,
      "v": 100
    },
    {
      "midi": 48,
      "hit": false,
      "t": 16250,
      "d": 250,
      "v": 100
    },
    {
      "midi": 52,
      "hit": false,
      "t": 16500,
      "d": 250,
      "v": 100
    },
    {
      "midi": 55,
      "hit": false,
      "t": 16750,
      "d": 250,
      "v": 100
    },
    {
      "midi": 64,
      "hit": false,
      "t": 17000,
      "d": 1000,
      "v": 100
    },
    {
      "midi": 52,
      "hit": false,
      "t": 17250,
      "d": 250,
      "v": 100
    },
    {
      "midi": 55,
      "hit": false,
      "t": 17500,
      "d": 250,
      "v": 100
    },
    {
      "midi": 60,
      "hit": false,
      "t": 17750,
      "d": 250,
      "v": 100
    },
    {
      "midi": 69,
      "hit": false,
      "t": 18000,
      "d": 500,
      "v": 100
    },
    {
      "midi": 51,
      "hit": false,
      "t": 18250,
      "d": 250,
      "v": 100
    },
    {
      "midi": 69,
      "hit": false,
      "t": 18500,
      "d": 1500,
      "v": 100
    },
    {
      "midi": 54,
      "hit": false,
      "t": 18500,
      "d": 250,
      "v": 100
    },
    {
      "midi": 57,
      "hit": false,
      "t": 18750,
      "d": 250,
      "v": 100
    },
    {
      "midi": 60,
      "hit": false,
      "t": 19000,
      "d": 250,
      "v": 100
    },
    {
      "midi": 57,
      "hit": false,
      "t": 19250,
      "d": 250,
      "v": 100
    },
    {
      "midi": 54,
      "hit": false,
      "t": 19500,
      "d": 250,
      "v": 100
    },
    {
      "midi": 51,
      "hit": false,
      "t": 19750,
      "d": 250,
      "v": 100
    },
    {
      "midi": 72,
      "hit": false,
      "t": 20000,
      "d": 500,
      "v": 100
    },
    {
      "midi": 52,
      "hit": false,
      "t": 20000,
      "d": 500,
      "v": 100
    },
    {
      "midi": 72,
      "hit": false,
      "t": 20500,
      "d": 166.66666666666788,
      "v": 100
    },
    {
      "midi": 55,
      "hit": false,
      "t": 20500,
      "d": 1000,
      "v": 100
    },
    {
      "midi": 60,
      "hit": false,
      "t": 20500,
      "d": 1000,
      "v": 100
    },
    {
      "midi": 71,
      "hit": false,
      "t": 20666.666666666668,
      "d": 166.66666666666788,
      "v": 100
    },
    {
      "midi": 69,
      "hit": false,
      "t": 20833.333333333336,
      "d": 166.66666666666788,
      "v": 100
    },
    {
      "midi": 67,
      "hit": false,
      "t": 21000.000000000004,
      "d": 500,
      "v": 100
    },
    {
      "midi": 55,
      "hit": false,
      "t": 21500,
      "d": 500,
      "v": 100
    },
    {
      "midi": 60,
      "hit": false,
      "t": 21500,
      "d": 500,
      "v": 100
    },
    {
      "midi": 67,
      "hit": false,
      "t": 21500.000000000004,
      "d": 166.66666666666788,
      "v": 100
    },
    {
      "midi": 65,
      "hit": false,
      "t": 21666.66666666667,
      "d": 166.66666666666788,
      "v": 100
    },
    {
      "midi": 64,
      "hit": false,
      "t": 21833.33333333334,
      "d": 166.66666666666788,
      "v": 100
    },
    {
      "midi": 52,
      "hit": false,
      "t": 22000,
      "d": 1000,
      "v": 100
    },
    {
      "midi": 56,
      "hit": false,
      "t": 22000,
      "d": 1000,
      "v": 100
    },
    {
      "midi": 62,
      "hit": false,
      "t": 22000.000000000007,
      "d": 500,
      "v": 100
    },
    {
      "midi": 60,
      "hit": false,
      "t": 22500.000000000007,
      "d": 500,
      "v": 100
    },
    {
      "midi": 64,
      "hit": false,
      "t": 23000.000000000007,
      "d": 1000,
      "v": 100
    },
    {
      "midi": 52,
      "hit": false,
      "t": 23250,
      "d": 250,
      "v": 100
    },
    {
      "midi": 55,
      "hit": false,
      "t": 23500,
      "d": 250,
      "v": 100
    },
    {
      "midi": 60,
      "hit": false,
      "t": 23750,
      "d": 250,
      "v": 100
    },
    {
      "midi": 62,
      "hit": false,
      "t": 24000.000000000007,
      "d": 1000,
      "v": 100
    },
    {
      "midi": 53,
      "hit": false,
      "t": 24250,
      "d": 250,
      "v": 100
    },
    {
      "midi": 55,
      "hit": false,
      "t": 24500,
      "d": 250,
      "v": 100
    },
    {
      "midi": 57,
      "hit": false,
      "t": 24750,
      "d": 250,
      "v": 100
    },
    {
      "midi": 65,
      "hit": false,
      "t": 25000.000000000007,
      "d": 1000,
      "v": 100
    },
    {
      "midi": 53,
      "hit": false,
      "t": 25250,
      "d": 250,
      "v": 100
    },
    {
      "midi": 57,
      "hit": false,
      "t": 25500,
      "d": 250,
      "v": 100
    },
    {
      "midi": 62,
      "hit": false,
      "t": 25750,
      "d": 250,
      "v": 100
    },
    {
      "midi": 71,
      "hit": false,
      "t": 26000.000000000007,
      "d": 500,
      "v": 100
    },
    {
      "midi": 51,
      "hit": false,
      "t": 26250,
      "d": 250,
      "v": 100
    },
    {
      "midi": 54,
      "hit": false,
      "t": 26500,
      "d": 250,
      "v": 100
    },
    {
      "midi": 71,
      "hit": false,
      "t": 26500.000000000007,
      "d": 1000,
      "v": 100
    },
    {
      "midi": 57,
      "hit": false,
      "t": 26750,
      "d": 250,
      "v": 100
    },
    {
      "midi": 60,
      "hit": false,
      "t": 27000,
      "d": 250,
      "v": 100
    },
    {
      "midi": 57,
      "hit": false,
      "t": 27250,
      "d": 250,
      "v": 100
    },
    {
      "midi": 54,
      "hit": false,
      "t": 27500,
      "d": 250,
      "v": 100
    },
    {
      "midi": 72,
      "hit": false,
      "t": 27500.000000000007,
      "d": 500,
      "v": 100
    },
    {
      "midi": 51,
      "hit": false,
      "t": 27750,
      "d": 250,
      "v": 100
    },
    {
      "midi": 52,
      "hit": false,
      "t": 28000,
      "d": 500,
      "v": 100
    },
    {
      "midi": 72,
      "hit": false,
      "t": 28000.000000000007,
      "d": 250,
      "v": 100
    },
    {
      "midi": 64,
      "hit": false,
      "t": 28250.000000000007,
      "d": 250,
      "v": 100
    },
    {
      "midi": 67,
      "hit": false,
      "t": 28500.000000000007,
      "d": 250,
      "v": 100
    },
    {
      "midi": 64,
      "hit": false,
      "t": 28750.000000000007,
      "d": 250,
      "v": 100
    },
    {
      "midi": 52,
      "hit": false,
      "t": 29000,
      "d": 250,
      "v": 100
    },
    {
      "midi": 55,
      "hit": false,
      "t": 29250,
      "d": 250,
      "v": 100
    },
    {
      "midi": 60,
      "hit": false,
      "t": 29500,
      "d": 250,
      "v": 100
    },
    {
      "midi": 55,
      "hit": false,
      "t": 29750,
      "d": 250,
      "v": 100
    },
    {
      "midi": 52,
      "hit": false,
      "t": 30000,
      "d": 500,
      "v": 100
    },
    {
      "midi": 72,
      "hit": false,
      "t": 30000.000000000007,
      "d": 250,
      "v": 100
    },
    {
      "midi": 64,
      "hit": false,
      "t": 30250.000000000007,
      "d": 250,
      "v": 100
    },
    {
      "midi": 68,
      "hit": false,
      "t": 30500.000000000007,
      "d": 250,
      "v": 100
    },
    {
      "midi": 64,
      "hit": false,
      "t": 30750.000000000007,
      "d": 250,
      "v": 100
    },
    {
      "midi": 52,
      "hit": false,
      "t": 31000,
      "d": 250,
      "v": 100
    },
    {
      "midi": 56,
      "hit": false,
      "t": 31250,
      "d": 250,
      "v": 100
    },
    {
      "midi": 60,
      "hit": false,
      "t": 31500,
      "d": 250,
      "v": 100
    },
    {
      "midi": 56,
      "hit": false,
      "t": 31750,
      "d": 250,
      "v": 100
    },
    {
      "midi": 57,
      "hit": false,
      "t": 32000,
      "d": 1000,
      "v": 100
    },
    {
      "midi": 72,
      "hit": false,
      "t": 32000.000000000007,
      "d": 250,
      "v": 100
    },
    {
      "midi": 64,
      "hit": false,
      "t": 32250.000000000007,
      "d": 250,
      "v": 100
    },
    {
      "midi": 69,
      "hit": false,
      "t": 32500.000000000007,
      "d": 250,
      "v": 100
    },
    {
      "midi": 64,
      "hit": false,
      "t": 32750.000000000007,
      "d": 250,
      "v": 100
    },
    {
      "midi": 45,
      "hit": false,
      "t": 33000,
      "d": 1000,
      "v": 100
    },
    {
      "midi": 71,
      "hit": false,
      "t": 33000.00000000001,
      "d": 250,
      "v": 100
    },
    {
      "midi": 60,
      "hit": false,
      "t": 33250.00000000001,
      "d": 250,
      "v": 100
    },
    {
      "midi": 64,
      "hit": false,
      "t": 33250.00000000001,
      "d": 250,
      "v": 100
    },
    {
      "midi": 69,
      "hit": false,
      "t": 33500.00000000001,
      "d": 250,
      "v": 100
    },
    {
      "midi": 60,
      "hit": false,
      "t": 33750.00000000001,
      "d": 250,
      "v": 100
    },
    {
      "midi": 64,
      "hit": false,
      "t": 33750.00000000001,
      "d": 250,
      "v": 100
    },
    {
      "midi": 50,
      "hit": false,
      "t": 34000,
      "d": 2000,
      "v": 100
    },
    {
      "midi": 67,
      "hit": false,
      "t": 34000.00000000001,
      "d": 250,
      "v": 100
    },
    {
      "midi": 57,
      "hit": false,
      "t": 34250.00000000001,
      "d": 250,
      "v": 100
    },
    {
      "midi": 62,
      "hit": false,
      "t": 34250.00000000001,
      "d": 250,
      "v": 100
    },
    {
      "midi": 65,
      "hit": false,
      "t": 34500.00000000001,
      "d": 250,
      "v": 100
    },
    {
      "midi": 57,
      "hit": false,
      "t": 34750.00000000001,
      "d": 250,
      "v": 100
    },
    {
      "midi": 62,
      "hit": false,
      "t": 34750.00000000001,
      "d": 250,
      "v": 100
    },
    {
      "midi": 67,
      "hit": false,
      "t": 35000.00000000001,
      "d": 250,
      "v": 100
    },
    {
      "midi": 57,
      "hit": false,
      "t": 35250.00000000001,
      "d": 250,
      "v": 100
    },
    {
      "midi": 62,
      "hit": false,
      "t": 35250.00000000001,
      "d": 250,
      "v": 100
    },
    {
      "midi": 69,
      "hit": false,
      "t": 35500.00000000001,
      "d": 250,
      "v": 100
    },
    {
      "midi": 62,
      "hit": false,
      "t": 35750.00000000001,
      "d": 250,
      "v": 100
    },
    {
      "midi": 65,
      "hit": false,
      "t": 35750.00000000001,
      "d": 250,
      "v": 100
    },
    {
      "midi": 49,
      "hit": false,
      "t": 36000,
      "d": 2000,
      "v": 100
    },
    {
      "midi": 56,
      "hit": false,
      "t": 36000,
      "d": 2000,
      "v": 100
    },
    {
      "midi": 71,
      "hit": false,
      "t": 36000.00000000001,
      "d": 250,
      "v": 100
    },
    {
      "midi": 61,
      "hit": false,
      "t": 36250.00000000001,
      "d": 250,
      "v": 100
    },
    {
      "midi": 65,
      "hit": false,
      "t": 36500.00000000001,
      "d": 250,
      "v": 100
    },
    {
      "midi": 68,
      "hit": false,
      "t": 36750.00000000001,
      "d": 250,
      "v": 100
    },
    {
      "midi": 71,
      "hit": false,
      "t": 37000.00000000001,
      "d": 250,
      "v": 100
    },
    {
      "midi": 61,
      "hit": false,
      "t": 37250.00000000001,
      "d": 250,
      "v": 100
    },
    {
      "midi": 65,
      "hit": false,
      "t": 37500.00000000001,
      "d": 250,
      "v": 100
    },
    {
      "midi": 68,
      "hit": false,
      "t": 37750.00000000001,
      "d": 250,
      "v": 100
    },
    {
      "midi": 56,
      "hit": false,
      "t": 38000,
      "d": 1000,
      "v": 100
    },
    {
      "midi": 71,
      "hit": false,
      "t": 38000.00000000001,
      "d": 250,
      "v": 100
    },
    {
      "midi": 61,
      "hit": false,
      "t": 38250.00000000001,
      "d": 250,
      "v": 100
    },
    {
      "midi": 65,
      "hit": false,
      "t": 38500.00000000001,
      "d": 250,
      "v": 100
    },
    {
      "midi": 68,
      "hit": false,
      "t": 38750.00000000001,
      "d": 250,
      "v": 100
    },
    {
      "midi": 49,
      "hit": false,
      "t": 39000,
      "d": 1000,
      "v": 100
    },
    {
      "midi": 61,
      "hit": false,
      "t": 39250.00000000001,
      "d": 250,
      "v": 100
    },
    {
      "midi": 65,
      "hit": false,
      "t": 39500.00000000001,
      "d": 250,
      "v": 100
    },
    {
      "midi": 68,
      "hit": false,
      "t": 39750.00000000001,
      "d": 250,
      "v": 100
    },
    {
      "midi": 43,
      "hit": false,
      "t": 40000,
      "d": 2000,
      "v": 100
    },
    {
      "midi": 52,
      "hit": false,
      "t": 40000,
      "d": 2000,
      "v": 100
    },
    {
      "midi": 72,
      "hit": false,
      "t": 40000.00000000001,
      "d": 250,
      "v": 100
    },
    {
      "midi": 64,
      "hit": false,
      "t": 40250.00000000001,
      "d": 250,
      "v": 100
    },
    {
      "midi": 67,
      "hit": false,
      "t": 40500.00000000001,
      "d": 250,
      "v": 100
    },
    {
      "midi": 64,
      "hit": false,
      "t": 40750.00000000001,
      "d": 250,
      "v": 100
    },
    {
      "midi": 71,
      "hit": false,
      "t": 41000.00000000001,
      "d": 250,
      "v": 100
    },
    {
      "midi": 60,
      "hit": false,
      "t": 41250.00000000001,
      "d": 250,
      "v": 100
    },
    {
      "midi": 64,
      "hit": false,
      "t": 41250.00000000001,
      "d": 250,
      "v": 100
    },
    {
      "midi": 69,
      "hit": false,
      "t": 41500.00000000001,
      "d": 250,
      "v": 100
    },
    {
      "midi": 60,
      "hit": false,
      "t": 41750.00000000001,
      "d": 250,
      "v": 100
    },
    {
      "midi": 64,
      "hit": false,
      "t": 41750.00000000001,
      "d": 250,
      "v": 100
    },
    {
      "midi": 50,
      "hit": false,
      "t": 42000,
      "d": 2000,
      "v": 100
    },
    {
      "midi": 67,
      "hit": false,
      "t": 42000.00000000001,
      "d": 250,
      "v": 100
    },
    {
      "midi": 57,
      "hit": false,
      "t": 42250.00000000001,
      "d": 250,
      "v": 100
    },
    {
      "midi": 62,
      "hit": false,
      "t": 42250.00000000001,
      "d": 250,
      "v": 100
    },
    {
      "midi": 65,
      "hit": false,
      "t": 42500.00000000001,
      "d": 250,
      "v": 100
    },
    {
      "midi": 57,
      "hit": false,
      "t": 42750.00000000001,
      "d": 250,
      "v": 100
    },
    {
      "midi": 62,
      "hit": false,
      "t": 42750.00000000001,
      "d": 250,
      "v": 100
    },
    {
      "midi": 67,
      "hit": false,
      "t": 43000.00000000001,
      "d": 250,
      "v": 100
    },
    {
      "midi": 57,
      "hit": false,
      "t": 43250.00000000001,
      "d": 250,
      "v": 100
    },
    {
      "midi": 62,
      "hit": false,
      "t": 43250.00000000001,
      "d": 250,
      "v": 100
    },
    {
      "midi": 69,
      "hit": false,
      "t": 43500.00000000001,
      "d": 250,
      "v": 100
    },
    {
      "midi": 62,
      "hit": false,
      "t": 43750.00000000001,
      "d": 250,
      "v": 100
    },
    {
      "midi": 65,
      "hit": false,
      "t": 43750.00000000001,
      "d": 250,
      "v": 100
    },
    {
      "midi": 46,
      "hit": false,
      "t": 44000,
      "d": 1000,
      "v": 100
    },
    {
      "midi": 53,
      "hit": false,
      "t": 44000,
      "d": 1000,
      "v": 100
    },
    {
      "midi": 74,
      "hit": false,
      "t": 44000.00000000001,
      "d": 250,
      "v": 100
    },
    {
      "midi": 65,
      "hit": false,
      "t": 44250.00000000001,
      "d": 250,
      "v": 100
    },
    {
      "midi": 70,
      "hit": false,
      "t": 44500.00000000001,
      "d": 250,
      "v": 100
    },
    {
      "midi": 65,
      "hit": false,
      "t": 44750.00000000001,
      "d": 250,
      "v": 100
    },
    {
      "midi": 45,
      "hit": false,
      "t": 45000,
      "d": 1000,
      "v": 100
    },
    {
      "midi": 54,
      "hit": false,
      "t": 45000,
      "d": 1000,
      "v": 100
    },
    {
      "midi": 74,
      "hit": false,
      "t": 45000.00000000001,
      "d": 250,
      "v": 100
    },
    {
      "midi": 66,
      "hit": false,
      "t": 45250.00000000001,
      "d": 250,
      "v": 100
    },
    {
      "midi": 69,
      "hit": false,
      "t": 45500.00000000001,
      "d": 250,
      "v": 100
    },
    {
      "midi": 66,
      "hit": false,
      "t": 45750.00000000001,
      "d": 250,
      "v": 100
    },
    {
      "midi": 43,
      "hit": false,
      "t": 46000,
      "d": 1000,
      "v": 100
    },
    {
      "midi": 55,
      "hit": false,
      "t": 46000,
      "d": 1000,
      "v": 100
    },
    {
      "midi": 74,
      "hit": false,
      "t": 46000.00000000001,
      "d": 250,
      "v": 100
    },
    {
      "midi": 65,
      "hit": false,
      "t": 46250.00000000001,
      "d": 250,
      "v": 100
    },
    {
      "midi": 67,
      "hit": false,
      "t": 46500.00000000001,
      "d": 250,
      "v": 100
    },
    {
      "midi": 71,
      "hit": false,
      "t": 46750.00000000001,
      "d": 250,
      "v": 100
    },
    {
      "midi": 55,
      "hit": false,
      "t": 47000,
      "d": 1000,
      "v": 100
    },
    {
      "midi": 65,
      "hit": false,
      "t": 47250.00000000001,
      "d": 250,
      "v": 100
    },
    {
      "midi": 67,
      "hit": false,
      "t": 47500.00000000001,
      "d": 250,
      "v": 100
    },
    {
      "midi": 71,
      "hit": false,
      "t": 47750.00000000001,
      "d": 250,
      "v": 100
    },
    {
      "midi": 72,
      "hit": false,
      "t": 48000.00000000001,
      "d": 1000,
      "v": 100
    },
    {
      "midi": 48,
      "hit": false,
      "t": 48250,
      "d": 250,
      "v": 100
    },
    {
      "midi": 52,
      "hit": false,
      "t": 48500,
      "d": 250,
      "v": 100
    },
    {
      "midi": 55,
      "hit": false,
      "t": 48750,
      "d": 250,
      "v": 100
    },
    {
      "midi": 64,
      "hit": false,
      "t": 49000.00000000001,
      "d": 1000,
      "v": 100
    },
    {
      "midi": 52,
      "hit": false,
      "t": 49250,
      "d": 250,
      "v": 100
    },
    {
      "midi": 55,
      "hit": false,
      "t": 49500,
      "d": 250,
      "v": 100
    },
    {
      "midi": 60,
      "hit": false,
      "t": 49750,
      "d": 250,
      "v": 100
    },
    {
      "midi": 69,
      "hit": false,
      "t": 50000.00000000001,
      "d": 500,
      "v": 100
    },
    {
      "midi": 51,
      "hit": false,
      "t": 50250,
      "d": 250,
      "v": 100
    },
    {
      "midi": 54,
      "hit": false,
      "t": 50500,
      "d": 250,
      "v": 100
    },
    {
      "midi": 69,
      "hit": false,
      "t": 50500.00000000001,
      "d": 1500,
      "v": 100
    },
    {
      "midi": 57,
      "hit": false,
      "t": 50750,
      "d": 250,
      "v": 100
    },
    {
      "midi": 60,
      "hit": false,
      "t": 51000,
      "d": 250,
      "v": 100
    },
    {
      "midi": 57,
      "hit": false,
      "t": 51250,
      "d": 250,
      "v": 100
    },
    {
      "midi": 54,
      "hit": false,
      "t": 51500,
      "d": 250,
      "v": 100
    },
    {
      "midi": 51,
      "hit": false,
      "t": 51750,
      "d": 250,
      "v": 100
    },
    {
      "midi": 52,
      "hit": false,
      "t": 52000,
      "d": 500,
      "v": 100
    },
    {
      "midi": 72,
      "hit": false,
      "t": 52000.00000000001,
      "d": 500,
      "v": 100
    },
    {
      "midi": 55,
      "hit": false,
      "t": 52500,
      "d": 1000,
      "v": 100
    },
    {
      "midi": 60,
      "hit": false,
      "t": 52500,
      "d": 1000,
      "v": 100
    },
    {
      "midi": 72,
      "hit": false,
      "t": 52500.00000000001,
      "d": 166.66666666666424,
      "v": 100
    },
    {
      "midi": 71,
      "hit": false,
      "t": 52666.66666666667,
      "d": 166.66666666666424,
      "v": 100
    },
    {
      "midi": 69,
      "hit": false,
      "t": 52833.333333333336,
      "d": 166.66666666666424,
      "v": 100
    },
    {
      "midi": 67,
      "hit": false,
      "t": 53000,
      "d": 500,
      "v": 100
    },
    {
      "midi": 67,
      "hit": false,
      "t": 53500,
      "d": 166.66666666666424,
      "v": 100
    },
    {
      "midi": 55,
      "hit": false,
      "t": 53500,
      "d": 500,
      "v": 100
    },
    {
      "midi": 60,
      "hit": false,
      "t": 53500,
      "d": 500,
      "v": 100
    },
    {
      "midi": 65,
      "hit": false,
      "t": 53666.666666666664,
      "d": 166.66666666666424,
      "v": 100
    },
    {
      "midi": 64,
      "hit": false,
      "t": 53833.33333333333,
      "d": 166.66666666666424,
      "v": 100
    },
    {
      "midi": 62,
      "hit": false,
      "t": 53999.99999999999,
      "d": 500,
      "v": 100
    },
    {
      "midi": 52,
      "hit": false,
      "t": 54000,
      "d": 1000,
      "v": 100
    },
    {
      "midi": 56,
      "hit": false,
      "t": 54000,
      "d": 1000,
      "v": 100
    },
    {
      "midi": 60,
      "hit": false,
      "t": 54499.99999999999,
      "d": 500,
      "v": 100
    },
    {
      "midi": 64,
      "hit": false,
      "t": 54999.99999999999,
      "d": 1000,
      "v": 100
    },
    {
      "midi": 52,
      "hit": false,
      "t": 55250,
      "d": 250,
      "v": 100
    },
    {
      "midi": 56,
      "hit": false,
      "t": 55500,
      "d": 250,
      "v": 100
    },
    {
      "midi": 60,
      "hit": false,
      "t": 55750,
      "d": 250,
      "v": 100
    },
    {
      "midi": 62,
      "hit": false,
      "t": 55999.99999999999,
      "d": 1000,
      "v": 100
    },
    {
      "midi": 53,
      "hit": false,
      "t": 56250,
      "d": 250,
      "v": 100
    },
    {
      "midi": 55,
      "hit": false,
      "t": 56500,
      "d": 250,
      "v": 100
    },
    {
      "midi": 57,
      "hit": false,
      "t": 56750,
      "d": 250,
      "v": 100
    },
    {
      "midi": 65,
      "hit": false,
      "t": 56999.99999999999,
      "d": 1000,
      "v": 100
    },
    {
      "midi": 53,
      "hit": false,
      "t": 57250,
      "d": 250,
      "v": 100
    },
    {
      "midi": 57,
      "hit": false,
      "t": 57500,
      "d": 250,
      "v": 100
    },
    {
      "midi": 62,
      "hit": false,
      "t": 57750,
      "d": 250,
      "v": 100
    },
    {
      "midi": 71,
      "hit": false,
      "t": 57999.99999999999,
      "d": 500,
      "v": 100
    },
    {
      "midi": 51,
      "hit": false,
      "t": 58250,
      "d": 250,
      "v": 100
    },
    {
      "midi": 71,
      "hit": false,
      "t": 58499.99999999999,
      "d": 1000,
      "v": 100
    },
    {
      "midi": 54,
      "hit": false,
      "t": 58500,
      "d": 250,
      "v": 100
    },
    {
      "midi": 57,
      "hit": false,
      "t": 58750,
      "d": 250,
      "v": 100
    },
    {
      "midi": 60,
      "hit": false,
      "t": 59000,
      "d": 250,
      "v": 100
    },
    {
      "midi": 57,
      "hit": false,
      "t": 59250,
      "d": 250,
      "v": 100
    },
    {
      "midi": 72,
      "hit": false,
      "t": 59499.99999999999,
      "d": 500,
      "v": 100
    },
    {
      "midi": 54,
      "hit": false,
      "t": 59500,
      "d": 250,
      "v": 100
    },
    {
      "midi": 51,
      "hit": false,
      "t": 59750,
      "d": 250,
      "v": 100
    },
    {
      "midi": 76,
      "hit": false,
      "t": 59999.99999999999,
      "d": 250,
      "v": 100
    },
    {
      "midi": 43,
      "hit": false,
      "t": 60000,
      "d": 1000,
      "v": 100
    },
    {
      "midi": 52,
      "hit": false,
      "t": 60000,
      "d": 1000,
      "v": 100
    },
    {
      "midi": 64,
      "hit": false,
      "t": 60249.99999999999,
      "d": 250,
      "v": 100
    },
    {
      "midi": 67,
      "hit": false,
      "t": 60499.99999999999,
      "d": 250,
      "v": 100
    },
    {
      "midi": 72,
      "hit": false,
      "t": 60749.99999999999,
      "d": 250,
      "v": 100
    },
    {
      "midi": 67,
      "hit": false,
      "t": 60999.99999999999,
      "d": 1000,
      "v": 100
    },
    {
      "midi": 71,
      "hit": false,
      "t": 60999.99999999999,
      "d": 1000,
      "v": 100
    },
    {
      "midi": 52,
      "hit": false,
      "t": 61250,
      "d": 250,
      "v": 100
    },
    {
      "midi": 55,
      "hit": false,
      "t": 61500,
      "d": 250,
      "v": 100
    },
    {
      "midi": 59,
      "hit": false,
      "t": 61750,
      "d": 250,
      "v": 100
    },
    {
      "midi": 76,
      "hit": false,
      "t": 61999.99999999999,
      "d": 250,
      "v": 100
    },
    {
      "midi": 48,
      "hit": false,
      "t": 62000,
      "d": 1000,
      "v": 100
    },
    {
      "midi": 55,
      "hit": false,
      "t": 62000,
      "d": 1000,
      "v": 100
    },
    {
      "midi": 64,
      "hit": false,
      "t": 62249.99999999999,
      "d": 250,
      "v": 100
    },
    {
      "midi": 67,
      "hit": false,
      "t": 62499.99999999999,
      "d": 250,
      "v": 100
    },
    {
      "midi": 72,
      "hit": false,
      "t": 62749.99999999999,
      "d": 250,
      "v": 100
    },
    {
      "midi": 67,
      "hit": false,
      "t": 62999.99999999999,
      "d": 1000,
      "v": 100
    },
    {
      "midi": 71,
      "hit": false,
      "t": 62999.99999999999,
      "d": 1000,
      "v": 100
    },
    {
      "midi": 52,
      "hit": false,
      "t": 63250,
      "d": 250,
      "v": 100
    },
    {
      "midi": 55,
      "hit": false,
      "t": 63500,
      "d": 250,
      "v": 100
    },
    {
      "midi": 59,
      "hit": false,
      "t": 63750,
      "d": 250,
      "v": 100
    },
    {
      "midi": 74,
      "hit": false,
      "t": 63999.99999999999,
      "d": 250,
      "v": 100
    },
    {
      "midi": 53,
      "hit": false,
      "t": 64000,
      "d": 1000,
      "v": 100
    },
    {
      "midi": 57,
      "hit": false,
      "t": 64000,
      "d": 1000,
      "v": 100
    },
    {
      "midi": 65,
      "hit": false,
      "t": 64249.99999999999,
      "d": 250,
      "v": 100
    },
    {
      "midi": 69,
      "hit": false,
      "t": 64499.99999999999,
      "d": 250,
      "v": 100
    },
    {
      "midi": 65,
      "hit": false,
      "t": 64749.99999999999,
      "d": 250,
      "v": 100
    },
    {
      "midi": 76,
      "hit": false,
      "t": 64999.99999999999,
      "d": 250,
      "v": 100
    },
    {
      "midi": 52,
      "hit": false,
      "t": 65000,
      "d": 1000,
      "v": 100
    },
    {
      "midi": 60,
      "hit": false,
      "t": 65000,
      "d": 1000,
      "v": 100
    },
    {
      "midi": 67,
      "hit": false,
      "t": 65249.99999999999,
      "d": 250,
      "v": 100
    },
    {
      "midi": 72,
      "hit": false,
      "t": 65499.99999999999,
      "d": 250.00000000000728,
      "v": 100
    },
    {
      "midi": 67,
      "hit": false,
      "t": 65750,
      "d": 250,
      "v": 100
    },
    {
      "midi": 69,
      "hit": false,
      "t": 66000,
      "d": 500,
      "v": 100
    },
    {
      "midi": 77,
      "hit": false,
      "t": 66000,
      "d": 500,
      "v": 100
    },
    {
      "midi": 50,
      "hit": false,
      "t": 66000,
      "d": 500,
      "v": 100
    },
    {
      "midi": 60,
      "hit": false,
      "t": 66000,
      "d": 500,
      "v": 100
    },
    {
      "midi": 69,
      "hit": false,
      "t": 66500,
      "d": 500,
      "v": 100
    },
    {
      "midi": 77,
      "hit": false,
      "t": 66500,
      "d": 500,
      "v": 100
    },
    {
      "midi": 50,
      "hit": false,
      "t": 66500,
      "d": 500,
      "v": 100
    },
    {
      "midi": 60,
      "hit": false,
      "t": 66500,
      "d": 500,
      "v": 100
    },
    {
      "midi": 60,
      "hit": false,
      "t": 67000,
      "d": 500,
      "v": 100
    },
    {
      "midi": 65,
      "hit": false,
      "t": 67000,
      "d": 500,
      "v": 100
    },
    {
      "midi": 69,
      "hit": false,
      "t": 67000,
      "d": 500,
      "v": 100
    },
    {
      "midi": 55,
      "hit": false,
      "t": 67000,
      "d": 1000,
      "v": 100
    },
    {
      "midi": 64,
      "hit": false,
      "t": 67500,
      "d": 250,
      "v": 100
    },
    {
      "midi": 67,
      "hit": false,
      "t": 67500,
      "d": 250,
      "v": 100
    },
    {
      "midi": 71,
      "hit": false,
      "t": 67500,
      "d": 250,
      "v": 100
    },
    {
      "midi": 65,
      "hit": false,
      "t": 67750,
      "d": 250,
      "v": 100
    },
    {
      "midi": 64,
      "hit": false,
      "t": 68000,
      "d": 1000,
      "v": 100
    },
    {
      "midi": 67,
      "hit": false,
      "t": 68000,
      "d": 1000,
      "v": 100
    },
    {
      "midi": 72,
      "hit": false,
      "t": 68000,
      "d": 1000,
      "v": 100
    },
    {
      "midi": 48,
      "hit": false,
      "t": 68250,
      "d": 250,
      "v": 100
    },
    {
      "midi": 52,
      "hit": false,
      "t": 68500,
      "d": 250,
      "v": 100
    },
    {
      "midi": 55,
      "hit": false,
      "t": 68750,
      "d": 250,
      "v": 100
    },
    {
      "midi": 64,
      "hit": false,
      "t": 69000,
      "d": 1000,
      "v": 100
    },
    {
      "midi": 67,
      "hit": false,
      "t": 69000,
      "d": 1000,
      "v": 100
    },
    {
      "midi": 72,
      "hit": false,
      "t": 69000,
      "d": 1000,
      "v": 100
    },
    {
      "midi": 52,
      "hit": false,
      "t": 69250,
      "d": 250,
      "v": 100
    },
    {
      "midi": 55,
      "hit": false,
      "t": 69500,
      "d": 250,
      "v": 100
    },
    {
      "midi": 60,
      "hit": false,
      "t": 69750,
      "d": 250,
      "v": 100
    },
    {
      "midi": 69,
      "hit": false,
      "t": 70000,
      "d": 500,
      "v": 100
    },
    {
      "midi": 72,
      "hit": false,
      "t": 70000,
      "d": 500,
      "v": 100
    },
    {
      "midi": 53,
      "hit": false,
      "t": 70000,
      "d": 500,
      "v": 100
    },
    {
      "midi": 60,
      "hit": false,
      "t": 70000,
      "d": 500,
      "v": 100
    },
    {
      "midi": 65,
      "hit": false,
      "t": 70500,
      "d": 500,
      "v": 100
    },
    {
      "midi": 53,
      "hit": false,
      "t": 70500,
      "d": 500,
      "v": 100
    },
    {
      "midi": 57,
      "hit": false,
      "t": 70500,
      "d": 500,
      "v": 100
    },
    {
      "midi": 53,
      "hit": false,
      "t": 71000,
      "d": 500,
      "v": 100
    },
    {
      "midi": 57,
      "hit": false,
      "t": 71000,
      "d": 500,
      "v": 100
    },
    {
      "midi": 43,
      "hit": false,
      "t": 71000,
      "d": 500,
      "v": 100
    },
    {
      "midi": 48,
      "hit": false,
      "t": 71000,
      "d": 500,
      "v": 100
    },
    {
      "midi": 59,
      "hit": false,
      "t": 71500,
      "d": 500,
      "v": 100
    },
    {
      "midi": 50,
      "hit": false,
      "t": 71500,
      "d": 500,
      "v": 100
    },
    {
      "midi": 64,
      "hit": false,
      "t": 72000,
      "d": 1000,
      "v": 100
    },
    {
      "midi": 67,
      "hit": false,
      "t": 72000,
      "d": 1000,
      "v": 100
    },
    {
      "midi": 72,
      "hit": false,
      "t": 72000,
      "d": 1000,
      "v": 100
    },
    {
      "midi": 48,
      "hit": false,
      "t": 72250,
      "d": 250,
      "v": 100
    },
    {
      "midi": 52,
      "hit": false,
      "t": 72500,
      "d": 250,
      "v": 100
    },
    {
      "midi": 55,
      "hit": false,
      "t": 72750,
      "d": 250,
      "v": 100
    },
    {
      "midi": 64,
      "hit": false,
      "t": 73000,
      "d": 2000,
      "v": 100
    },
    {
      "midi": 67,
      "hit": false,
      "t": 73000,
      "d": 2000,
      "v": 100
    },
    {
      "midi": 72,
      "hit": false,
      "t": 73000,
      "d": 2000,
      "v": 100
    },
    {
      "midi": 52,
      "hit": false,
      "t": 73250,
      "d": 250,
      "v": 100
    },
    {
      "midi": 55,
      "hit": false,
      "t": 73500,
      "d": 250,
      "v": 100
    },
    {
      "midi": 60,
      "hit": false,
      "t": 73750,
      "d": 250,
      "v": 100
    },
    {
      "midi": 76,
      "hit": false,
      "t": 74000,
      "d": 1000,
      "v": 100
    },
    {
      "midi": 79,
      "hit": false,
      "t": 74000,
      "d": 1000,
      "v": 100
    },
    {
      "midi": 48,
      "hit": false,
      "t": 75000,
      "d": 500,
      "v": 100
    }
  ]
}