{
  "jsonPath": "Classical/Baroque/Jean-Joseph Mouret/rondeau.json",
  "path": "Classical\\Baroque\\Jean-Joseph Mouret\\Rondeau.mid",
  "name": "Rondeau",
  "difficulty": "Advanced",
  "bpm": 140.00014000014,
  "notes": [
    {
      "midi": 76,
      "hit": false,
      "t": 1285.713,
      "d": 214.28549999999996,
      "v": 80
    },
    {
      "midi": 74,
      "hit": false,
      "t": 1499.9985,
      "d": 214.28549999999996,
      "v": 80
    },
    {
      "midi": 72,
      "hit": false,
      "t": 1714.2839999999999,
      "d": 428.57100000000014,
      "v": 80
    },
    {
      "midi": 48,
      "hit": false,
      "t": 1714.284,
      "d": 857.1420000000003,
      "v": 48
    },
    {
      "midi": 52,
      "hit": false,
      "t": 1714.284,
      "d": 857.1420000000003,
      "v": 48
    },
    {
      "midi": 55,
      "hit": false,
      "t": 1714.284,
      "d": 857.1420000000003,
      "v": 48
    },
    {
      "midi": 67,
      "hit": false,
      "t": 2142.855,
      "d": 428.5709999999999,
      "v": 80
    },
    {
      "midi": 72,
      "hit": false,
      "t": 2571.426,
      "d": 428.5709999999999,
      "v": 80
    },
    {
      "midi": 52,
      "hit": false,
      "t": 2571.4260000000004,
      "d": 428.5709999999999,
      "v": 48
    },
    {
      "midi": 55,
      "hit": false,
      "t": 2571.4260000000004,
      "d": 428.5709999999999,
      "v": 48
    },
    {
      "midi": 60,
      "hit": false,
      "t": 2571.4260000000004,
      "d": 428.5709999999999,
      "v": 48
    },
    {
      "midi": 74,
      "hit": false,
      "t": 2999.997,
      "d": 428.5709999999999,
      "v": 80
    },
    {
      "midi": 50,
      "hit": false,
      "t": 2999.9970000000003,
      "d": 428.5709999999999,
      "v": 48
    },
    {
      "midi": 55,
      "hit": false,
      "t": 2999.9970000000003,
      "d": 428.5709999999999,
      "v": 48
    },
    {
      "midi": 59,
      "hit": false,
      "t": 2999.9970000000003,
      "d": 428.5709999999999,
      "v": 48
    },
    {
      "midi": 76,
      "hit": false,
      "t": 3428.5679999999998,
      "d": 214.28549999999996,
      "v": 80
    },
    {
      "midi": 48,
      "hit": false,
      "t": 3428.568,
      "d": 428.5709999999999,
      "v": 48
    },
    {
      "midi": 52,
      "hit": false,
      "t": 3428.568,
      "d": 428.5709999999999,
      "v": 48
    },
    {
      "midi": 55,
      "hit": false,
      "t": 3428.568,
      "d": 428.5709999999999,
      "v": 48
    },
    {
      "midi": 77,
      "hit": false,
      "t": 3642.8534999999997,
      "d": 214.28549999999996,
      "v": 80
    },
    {
      "midi": 76,
      "hit": false,
      "t": 3857.1389999999997,
      "d": 214.28549999999996,
      "v": 80
    },
    {
      "midi": 50,
      "hit": false,
      "t": 3857.139,
      "d": 428.5709999999999,
      "v": 48
    },
    {
      "midi": 74,
      "hit": false,
      "t": 4071.4244999999996,
      "d": 214.2855000000004,
      "v": 80
    },
    {
      "midi": 72,
      "hit": false,
      "t": 4285.71,
      "d": 214.28549999999996,
      "v": 80
    },
    {
      "midi": 52,
      "hit": false,
      "t": 4285.71,
      "d": 428.5709999999999,
      "v": 48
    },
    {
      "midi": 74,
      "hit": false,
      "t": 4499.9955,
      "d": 214.28549999999996,
      "v": 80
    },
    {
      "midi": 76,
      "hit": false,
      "t": 4714.281,
      "d": 214.28549999999996,
      "v": 80
    },
    {
      "midi": 53,
      "hit": false,
      "t": 4714.281,
      "d": 428.5709999999999,
      "v": 48
    },
    {
      "midi": 77,
      "hit": false,
      "t": 4928.5665,
      "d": 214.28549999999996,
      "v": 80
    },
    {
      "midi": 79,
      "hit": false,
      "t": 5142.852,
      "d": 428.5709999999999,
      "v": 80
    },
    {
      "midi": 52,
      "hit": false,
      "t": 5142.852,
      "d": 428.5709999999999,
      "v": 48
    },
    {
      "midi": 55,
      "hit": false,
      "t": 5142.852,
      "d": 428.5709999999999,
      "v": 48
    },
    {
      "midi": 60,
      "hit": false,
      "t": 5142.852,
      "d": 428.5709999999999,
      "v": 48
    },
    {
      "midi": 79,
      "hit": false,
      "t": 5571.423,
      "d": 214.28549999999996,
      "v": 80
    },
    {
      "midi": 48,
      "hit": false,
      "t": 5571.423,
      "d": 214.28549999999996,
      "v": 48
    },
    {
      "midi": 52,
      "hit": false,
      "t": 5571.423,
      "d": 214.28549999999996,
      "v": 48
    },
    {
      "midi": 55,
      "hit": false,
      "t": 5571.423,
      "d": 214.28549999999996,
      "v": 48
    },
    {
      "midi": 79,
      "hit": false,
      "t": 5785.7085,
      "d": 214.28549999999996,
      "v": 80
    },
    {
      "midi": 48,
      "hit": false,
      "t": 5785.7085,
      "d": 214.28549999999996,
      "v": 48
    },
    {
      "midi": 52,
      "hit": false,
      "t": 5785.7085,
      "d": 214.28549999999996,
      "v": 48
    },
    {
      "midi": 55,
      "hit": false,
      "t": 5785.7085,
      "d": 214.28549999999996,
      "v": 48
    },
    {
      "midi": 79,
      "hit": false,
      "t": 5999.994,
      "d": 428.5709999999999,
      "v": 80
    },
    {
      "midi": 48,
      "hit": false,
      "t": 5999.994,
      "d": 428.5709999999999,
      "v": 48
    },
    {
      "midi": 52,
      "hit": false,
      "t": 5999.994,
      "d": 428.5709999999999,
      "v": 48
    },
    {
      "midi": 55,
      "hit": false,
      "t": 5999.994,
      "d": 428.5709999999999,
      "v": 48
    },
    {
      "midi": 81,
      "hit": false,
      "t": 6428.565,
      "d": 428.5709999999999,
      "v": 80
    },
    {
      "midi": 48,
      "hit": false,
      "t": 6428.565,
      "d": 428.5709999999999,
      "v": 48
    },
    {
      "midi": 53,
      "hit": false,
      "t": 6428.565,
      "d": 428.5709999999999,
      "v": 48
    },
    {
      "midi": 57,
      "hit": false,
      "t": 6428.565,
      "d": 428.5709999999999,
      "v": 48
    },
    {
      "midi": 79,
      "hit": false,
      "t": 6857.1359999999995,
      "d": 107.14274999999998,
      "v": 80
    },
    {
      "midi": 52,
      "hit": false,
      "t": 6857.1359999999995,
      "d": 428.5709999999999,
      "v": 48
    },
    {
      "midi": 55,
      "hit": false,
      "t": 6857.1359999999995,
      "d": 428.5709999999999,
      "v": 48
    },
    {
      "midi": 81,
      "hit": false,
      "t": 6964.2787499999995,
      "d": 107.14274999999998,
      "v": 80
    },
    {
      "midi": 79,
      "hit": false,
      "t": 7071.4214999999995,
      "d": 428.5709999999999,
      "v": 80
    },
    {
      "midi": 50,
      "hit": false,
      "t": 7285.706999999999,
      "d": 428.5709999999999,
      "v": 48
    },
    {
      "midi": 53,
      "hit": false,
      "t": 7285.706999999999,
      "d": 428.5709999999999,
      "v": 48
    },
    {
      "midi": 77,
      "hit": false,
      "t": 7499.992499999999,
      "d": 214.28549999999996,
      "v": 80
    },
    {
      "midi": 76,
      "hit": false,
      "t": 7714.277999999999,
      "d": 428.5709999999999,
      "v": 80
    },
    {
      "midi": 48,
      "hit": false,
      "t": 7714.277999999999,
      "d": 857.1420000000007,
      "v": 48
    },
    {
      "midi": 52,
      "hit": false,
      "t": 7714.277999999999,
      "d": 857.1420000000007,
      "v": 48
    },
    {
      "midi": 55,
      "hit": false,
      "t": 7714.277999999999,
      "d": 857.1420000000007,
      "v": 48
    },
    {
      "midi": 76,
      "hit": false,
      "t": 8142.848999999999,
      "d": 214.28550000000087,
      "v": 80
    },
    {
      "midi": 77,
      "hit": false,
      "t": 8357.1345,
      "d": 214.28549999999996,
      "v": 80
    },
    {
      "midi": 79,
      "hit": false,
      "t": 8571.42,
      "d": 428.5709999999999,
      "v": 80
    },
    {
      "midi": 52,
      "hit": false,
      "t": 8571.42,
      "d": 857.1419999999998,
      "v": 48
    },
    {
      "midi": 55,
      "hit": false,
      "t": 8571.42,
      "d": 857.1419999999998,
      "v": 48
    },
    {
      "midi": 60,
      "hit": false,
      "t": 8571.42,
      "d": 857.1419999999998,
      "v": 48
    },
    {
      "midi": 84,
      "hit": false,
      "t": 8999.991,
      "d": 428.5709999999999,
      "v": 80
    },
    {
      "midi": 79,
      "hit": false,
      "t": 9428.562,
      "d": 428.5709999999999,
      "v": 80
    },
    {
      "midi": 55,
      "hit": false,
      "t": 9428.562,
      "d": 857.1419999999998,
      "v": 48
    },
    {
      "midi": 59,
      "hit": false,
      "t": 9428.562,
      "d": 857.1419999999998,
      "v": 48
    },
    {
      "midi": 62,
      "hit": false,
      "t": 9428.562,
      "d": 857.1419999999998,
      "v": 48
    },
    {
      "midi": 79,
      "hit": false,
      "t": 9857.133,
      "d": 428.5709999999999,
      "v": 80
    },
    {
      "midi": 76,
      "hit": false,
      "t": 10285.704,
      "d": 428.5709999999999,
      "v": 80
    },
    {
      "midi": 48,
      "hit": false,
      "t": 10285.704,
      "d": 857.1419999999998,
      "v": 48
    },
    {
      "midi": 52,
      "hit": false,
      "t": 10285.704,
      "d": 857.1419999999998,
      "v": 48
    },
    {
      "midi": 55,
      "hit": false,
      "t": 10285.704,
      "d": 857.1419999999998,
      "v": 48
    },
    {
      "midi": 74,
      "hit": false,
      "t": 10714.275,
      "d": 214.28549999999996,
      "v": 80
    },
    {
      "midi": 76,
      "hit": false,
      "t": 10928.5605,
      "d": 214.28549999999996,
      "v": 80
    },
    {
      "midi": 77,
      "hit": false,
      "t": 11142.846,
      "d": 214.28549999999996,
      "v": 80
    },
    {
      "midi": 47,
      "hit": false,
      "t": 11142.846,
      "d": 428.5709999999999,
      "v": 48
    },
    {
      "midi": 55,
      "hit": false,
      "t": 11142.846,
      "d": 428.5709999999999,
      "v": 48
    },
    {
      "midi": 79,
      "hit": false,
      "t": 11357.1315,
      "d": 214.28549999999996,
      "v": 80
    },
    {
      "midi": 76,
      "hit": false,
      "t": 11571.417,
      "d": 214.28549999999996,
      "v": 80
    },
    {
      "midi": 48,
      "hit": false,
      "t": 11571.417,
      "d": 428.5709999999999,
      "v": 48
    },
    {
      "midi": 55,
      "hit": false,
      "t": 11571.417,
      "d": 428.5709999999999,
      "v": 48
    },
    {
      "midi": 77,
      "hit": false,
      "t": 11785.7025,
      "d": 214.28549999999996,
      "v": 80
    },
    {
      "midi": 74,
      "hit": false,
      "t": 11999.988,
      "d": 428.5709999999999,
      "v": 80
    },
    {
      "midi": 50,
      "hit": false,
      "t": 11999.988,
      "d": 857.1419999999998,
      "v": 48
    },
    {
      "midi": 55,
      "hit": false,
      "t": 11999.988,
      "d": 857.1419999999998,
      "v": 48
    },
    {
      "midi": 59,
      "hit": false,
      "t": 11999.988,
      "d": 857.1419999999998,
      "v": 48
    },
    {
      "midi": 67,
      "hit": false,
      "t": 12428.559,
      "d": 428.5709999999999,
      "v": 80
    },
    {
      "midi": 74,
      "hit": false,
      "t": 12857.13,
      "d": 428.5709999999999,
      "v": 80
    },
    {
      "midi": 50,
      "hit": false,
      "t": 12857.13,
      "d": 428.5709999999999,
      "v": 48
    },
    {
      "midi": 55,
      "hit": false,
      "t": 12857.13,
      "d": 428.5709999999999,
      "v": 48
    },
    {
      "midi": 59,
      "hit": false,
      "t": 12857.13,
      "d": 428.5709999999999,
      "v": 48
    },
    {
      "midi": 74,
      "hit": false,
      "t": 13285.701,
      "d": 214.28549999999996,
      "v": 80
    },
    {
      "midi": 50,
      "hit": false,
      "t": 13285.701,
      "d": 428.5709999999999,
      "v": 48
    },
    {
      "midi": 55,
      "hit": false,
      "t": 13285.701,
      "d": 428.5709999999999,
      "v": 48
    },
    {
      "midi": 59,
      "hit": false,
      "t": 13285.701,
      "d": 428.5709999999999,
      "v": 48
    },
    {
      "midi": 74,
      "hit": false,
      "t": 13499.986499999999,
      "d": 214.28549999999996,
      "v": 80
    },
    {
      "midi": 74,
      "hit": false,
      "t": 13714.271999999999,
      "d": 1285.7129999999997,
      "v": 80
    },
    {
      "midi": 50,
      "hit": false,
      "t": 13714.271999999999,
      "d": 428.5709999999999,
      "v": 48
    },
    {
      "midi": 55,
      "hit": false,
      "t": 13714.271999999999,
      "d": 428.5709999999999,
      "v": 48
    },
    {
      "midi": 59,
      "hit": false,
      "t": 13714.271999999999,
      "d": 428.5709999999999,
      "v": 48
    },
    {
      "midi": 43,
      "hit": false,
      "t": 14142.842999999999,
      "d": 214.28549999999996,
      "v": 48
    },
    {
      "midi": 43,
      "hit": false,
      "t": 14357.128499999999,
      "d": 214.28549999999996,
      "v": 48
    },
    {
      "midi": 50,
      "hit": false,
      "t": 14571.413999999999,
      "d": 428.5709999999999,
      "v": 48
    },
    {
      "midi": 76,
      "hit": false,
      "t": 14999.984999999999,
      "d": 214.28549999999996,
      "v": 80
    },
    {
      "midi": 74,
      "hit": false,
      "t": 15214.270499999999,
      "d": 214.28549999999996,
      "v": 80
    },
    {
      "midi": 72,
      "hit": false,
      "t": 15428.555999999999,
      "d": 428.5709999999999,
      "v": 80
    },
    {
      "midi": 48,
      "hit": false,
      "t": 15428.555999999999,
      "d": 857.1419999999998,
      "v": 48
    },
    {
      "midi": 52,
      "hit": false,
      "t": 15428.555999999999,
      "d": 857.1419999999998,
      "v": 48
    },
    {
      "midi": 55,
      "hit": false,
      "t": 15428.555999999999,
      "d": 857.1419999999998,
      "v": 48
    },
    {
      "midi": 67,
      "hit": false,
      "t": 15857.126999999999,
      "d": 428.5709999999999,
      "v": 80
    },
    {
      "midi": 72,
      "hit": false,
      "t": 16285.697999999999,
      "d": 428.57100000000173,
      "v": 80
    },
    {
      "midi": 52,
      "hit": false,
      "t": 16285.697999999999,
      "d": 428.57100000000173,
      "v": 48
    },
    {
      "midi": 55,
      "hit": false,
      "t": 16285.697999999999,
      "d": 428.57100000000173,
      "v": 48
    },
    {
      "midi": 60,
      "hit": false,
      "t": 16285.697999999999,
      "d": 428.57100000000173,
      "v": 48
    },
    {
      "midi": 74,
      "hit": false,
      "t": 16714.269,
      "d": 428.5709999999999,
      "v": 80
    },
    {
      "midi": 50,
      "hit": false,
      "t": 16714.269,
      "d": 428.5709999999999,
      "v": 48
    },
    {
      "midi": 55,
      "hit": false,
      "t": 16714.269,
      "d": 428.5709999999999,
      "v": 48
    },
    {
      "midi": 59,
      "hit": false,
      "t": 16714.269,
      "d": 428.5709999999999,
      "v": 48
    },
    {
      "midi": 76,
      "hit": false,
      "t": 17142.84,
      "d": 214.28550000000178,
      "v": 80
    },
    {
      "midi": 48,
      "hit": false,
      "t": 17142.84,
      "d": 428.5709999999999,
      "v": 48
    },
    {
      "midi": 52,
      "hit": false,
      "t": 17142.84,
      "d": 428.5709999999999,
      "v": 48
    },
    {
      "midi": 55,
      "hit": false,
      "t": 17142.84,
      "d": 428.5709999999999,
      "v": 48
    },
    {
      "midi": 77,
      "hit": false,
      "t": 17357.125500000002,
      "d": 214.28550000000178,
      "v": 80
    },
    {
      "midi": 50,
      "hit": false,
      "t": 17571.411,
      "d": 428.5709999999999,
      "v": 48
    },
    {
      "midi": 76,
      "hit": false,
      "t": 17571.411000000004,
      "d": 214.28550000000178,
      "v": 80
    },
    {
      "midi": 74,
      "hit": false,
      "t": 17785.696500000005,
      "d": 214.28550000000178,
      "v": 80
    },
    {
      "midi": 52,
      "hit": false,
      "t": 17999.982,
      "d": 428.5709999999999,
      "v": 48
    },
    {
      "midi": 72,
      "hit": false,
      "t": 17999.982000000007,
      "d": 214.28550000000178,
      "v": 80
    },
    {
      "midi": 74,
      "hit": false,
      "t": 18214.26750000001,
      "d": 214.28550000000178,
      "v": 80
    },
    {
      "midi": 53,
      "hit": false,
      "t": 18428.553,
      "d": 428.5709999999999,
      "v": 48
    },
    {
      "midi": 76,
      "hit": false,
      "t": 18428.55300000001,
      "d": 214.28550000000178,
      "v": 80
    },
    {
      "midi": 77,
      "hit": false,
      "t": 18642.838500000013,
      "d": 214.28550000000178,
      "v": 80
    },
    {
      "midi": 52,
      "hit": false,
      "t": 18857.124,
      "d": 428.5709999999999,
      "v": 48
    },
    {
      "midi": 55,
      "hit": false,
      "t": 18857.124,
      "d": 428.5709999999999,
      "v": 48
    },
    {
      "midi": 60,
      "hit": false,
      "t": 18857.124,
      "d": 428.5709999999999,
      "v": 48
    },
    {
      "midi": 79,
      "hit": false,
      "t": 18857.124000000014,
      "d": 428.5709999999999,
      "v": 80
    },
    {
      "midi": 48,
      "hit": false,
      "t": 19285.695,
      "d": 214.28550000000178,
      "v": 48
    },
    {
      "midi": 52,
      "hit": false,
      "t": 19285.695,
      "d": 214.28550000000178,
      "v": 48
    },
    {
      "midi": 55,
      "hit": false,
      "t": 19285.695,
      "d": 214.28550000000178,
      "v": 48
    },
    {
      "midi": 79,
      "hit": false,
      "t": 19285.695000000014,
      "d": 214.28550000000178,
      "v": 80
    },
    {
      "midi": 48,
      "hit": false,
      "t": 19499.9805,
      "d": 214.28550000000178,
      "v": 48
    },
    {
      "midi": 52,
      "hit": false,
      "t": 19499.9805,
      "d": 214.28550000000178,
      "v": 48
    },
    {
      "midi": 55,
      "hit": false,
      "t": 19499.9805,
      "d": 214.28550000000178,
      "v": 48
    },
    {
      "midi": 79,
      "hit": false,
      "t": 19499.980500000016,
      "d": 214.28550000000178,
      "v": 80
    },
    {
      "midi": 48,
      "hit": false,
      "t": 19714.266000000003,
      "d": 428.5709999999999,
      "v": 48
    },
    {
      "midi": 52,
      "hit": false,
      "t": 19714.266000000003,
      "d": 428.5709999999999,
      "v": 48
    },
    {
      "midi": 55,
      "hit": false,
      "t": 19714.266000000003,
      "d": 428.5709999999999,
      "v": 48
    },
    {
      "midi": 79,
      "hit": false,
      "t": 19714.266000000018,
      "d": 428.5709999999999,
      "v": 80
    },
    {
      "midi": 48,
      "hit": false,
      "t": 20142.837000000003,
      "d": 428.5709999999999,
      "v": 48
    },
    {
      "midi": 53,
      "hit": false,
      "t": 20142.837000000003,
      "d": 428.5709999999999,
      "v": 48
    },
    {
      "midi": 57,
      "hit": false,
      "t": 20142.837000000003,
      "d": 428.5709999999999,
      "v": 48
    },
    {
      "midi": 81,
      "hit": false,
      "t": 20142.837000000018,
      "d": 428.5709999999999,
      "v": 80
    },
    {
      "midi": 52,
      "hit": false,
      "t": 20571.408000000003,
      "d": 428.5709999999999,
      "v": 48
    },
    {
      "midi": 55,
      "hit": false,
      "t": 20571.408000000003,
      "d": 428.5709999999999,
      "v": 48
    },
    {
      "midi": 79,
      "hit": false,
      "t": 20571.408000000018,
      "d": 107.14274999999907,
      "v": 80
    },
    {
      "midi": 81,
      "hit": false,
      "t": 20678.550750000017,
      "d": 107.14274999999907,
      "v": 80
    },
    {
      "midi": 79,
      "hit": false,
      "t": 20785.693500000016,
      "d": 428.5709999999999,
      "v": 80
    },
    {
      "midi": 50,
      "hit": false,
      "t": 20999.979000000003,
      "d": 428.5709999999999,
      "v": 48
    },
    {
      "midi": 53,
      "hit": false,
      "t": 20999.979000000003,
      "d": 428.5709999999999,
      "v": 48
    },
    {
      "midi": 77,
      "hit": false,
      "t": 21214.264500000016,
      "d": 214.28550000000178,
      "v": 80
    },
    {
      "midi": 48,
      "hit": false,
      "t": 21428.550000000003,
      "d": 857.1419999999998,
      "v": 48
    },
    {
      "midi": 52,
      "hit": false,
      "t": 21428.550000000003,
      "d": 857.1419999999998,
      "v": 48
    },
    {
      "midi": 55,
      "hit": false,
      "t": 21428.550000000003,
      "d": 857.1419999999998,
      "v": 48
    },
    {
      "midi": 76,
      "hit": false,
      "t": 21428.550000000017,
      "d": 428.5709999999999,
      "v": 80
    },
    {
      "midi": 76,
      "hit": false,
      "t": 21857.121000000017,
      "d": 214.28550000000178,
      "v": 80
    },
    {
      "midi": 77,
      "hit": false,
      "t": 22071.40650000002,
      "d": 214.28550000000178,
      "v": 80
    },
    {
      "midi": 52,
      "hit": false,
      "t": 22285.692000000003,
      "d": 857.1419999999998,
      "v": 48
    },
    {
      "midi": 55,
      "hit": false,
      "t": 22285.692000000003,
      "d": 857.1419999999998,
      "v": 48
    },
    {
      "midi": 60,
      "hit": false,
      "t": 22285.692000000003,
      "d": 857.1419999999998,
      "v": 48
    },
    {
      "midi": 79,
      "hit": false,
      "t": 22285.69200000002,
      "d": 428.5709999999999,
      "v": 80
    },
    {
      "midi": 84,
      "hit": false,
      "t": 22714.26300000002,
      "d": 428.5709999999999,
      "v": 80
    },
    {
      "midi": 55,
      "hit": false,
      "t": 23142.834000000003,
      "d": 857.1419999999998,
      "v": 48
    },
    {
      "midi": 59,
      "hit": false,
      "t": 23142.834000000003,
      "d": 857.1419999999998,
      "v": 48
    },
    {
      "midi": 62,
      "hit": false,
      "t": 23142.834000000003,
      "d": 857.1419999999998,
      "v": 48
    },
    {
      "midi": 79,
      "hit": false,
      "t": 23142.83400000002,
      "d": 428.5709999999999,
      "v": 80
    },
    {
      "midi": 79,
      "hit": false,
      "t": 23571.40500000002,
      "d": 428.5709999999999,
      "v": 80
    },
    {
      "midi": 48,
      "hit": false,
      "t": 23999.976000000002,
      "d": 857.1419999999998,
      "v": 48
    },
    {
      "midi": 52,
      "hit": false,
      "t": 23999.976000000002,
      "d": 857.1419999999998,
      "v": 48
    },
    {
      "midi": 55,
      "hit": false,
      "t": 23999.976000000002,
      "d": 857.1419999999998,
      "v": 48
    },
    {
      "midi": 76,
      "hit": false,
      "t": 23999.97600000002,
      "d": 428.5709999999999,
      "v": 80
    },
    {
      "midi": 74,
      "hit": false,
      "t": 24428.54700000002,
      "d": 214.28550000000178,
      "v": 80
    },
    {
      "midi": 76,
      "hit": false,
      "t": 24642.832500000022,
      "d": 214.28550000000178,
      "v": 80
    },
    {
      "midi": 47,
      "hit": false,
      "t": 24857.118000000002,
      "d": 428.5709999999999,
      "v": 48
    },
    {
      "midi": 55,
      "hit": false,
      "t": 24857.118000000002,
      "d": 428.5709999999999,
      "v": 48
    },
    {
      "midi": 77,
      "hit": false,
      "t": 24857.118000000024,
      "d": 214.28550000000178,
      "v": 80
    },
    {
      "midi": 79,
      "hit": false,
      "t": 25071.403500000026,
      "d": 214.28550000000178,
      "v": 80
    },
    {
      "midi": 48,
      "hit": false,
      "t": 25285.689000000002,
      "d": 428.5709999999999,
      "v": 48
    },
    {
      "midi": 55,
      "hit": false,
      "t": 25285.689000000002,
      "d": 428.5709999999999,
      "v": 48
    },
    {
      "midi": 76,
      "hit": false,
      "t": 25285.689000000028,
      "d": 214.28550000000178,
      "v": 80
    },
    {
      "midi": 77,
      "hit": false,
      "t": 25499.97450000003,
      "d": 214.28550000000178,
      "v": 80
    },
    {
      "midi": 43,
      "hit": false,
      "t": 25714.260000000002,
      "d": 428.5709999999999,
      "v": 48
    },
    {
      "midi": 50,
      "hit": false,
      "t": 25714.260000000002,
      "d": 428.5709999999999,
      "v": 48
    },
    {
      "midi": 74,
      "hit": false,
      "t": 25714.26000000003,
      "d": 214.28550000000178,
      "v": 80
    },
    {
      "midi": 79,
      "hit": false,
      "t": 25928.545500000033,
      "d": 214.28550000000178,
      "v": 80
    },
    {
      "midi": 45,
      "hit": false,
      "t": 26142.831000000002,
      "d": 428.5709999999999,
      "v": 48
    },
    {
      "midi": 48,
      "hit": false,
      "t": 26142.831000000002,
      "d": 428.5709999999999,
      "v": 48
    },
    {
      "midi": 77,
      "hit": false,
      "t": 26142.831000000035,
      "d": 214.28550000000178,
      "v": 80
    },
    {
      "midi": 76,
      "hit": false,
      "t": 26357.116500000036,
      "d": 214.28550000000178,
      "v": 80
    },
    {
      "midi": 47,
      "hit": false,
      "t": 26571.402000000002,
      "d": 428.5709999999999,
      "v": 48
    },
    {
      "midi": 50,
      "hit": false,
      "t": 26571.402000000002,
      "d": 428.5709999999999,
      "v": 48
    },
    {
      "midi": 74,
      "hit": false,
      "t": 26571.40200000004,
      "d": 107.14274999999907,
      "v": 80
    },
    {
      "midi": 76,
      "hit": false,
      "t": 26678.544750000037,
      "d": 107.14274999999907,
      "v": 80
    },
    {
      "midi": 74,
      "hit": false,
      "t": 26785.687500000036,
      "d": 428.5709999999999,
      "v": 80
    },
    {
      "midi": 43,
      "hit": false,
      "t": 26999.973,
      "d": 428.5709999999999,
      "v": 48
    },
    {
      "midi": 50,
      "hit": false,
      "t": 26999.973,
      "d": 428.5709999999999,
      "v": 48
    },
    {
      "midi": 72,
      "hit": false,
      "t": 27214.258500000036,
      "d": 214.28550000000178,
      "v": 80
    },
    {
      "midi": 48,
      "hit": false,
      "t": 27428.544,
      "d": 1285.7129999999997,
      "v": 48
    },
    {
      "midi": 52,
      "hit": false,
      "t": 27428.544,
      "d": 1285.7129999999997,
      "v": 48
    },
    {
      "midi": 55,
      "hit": false,
      "t": 27428.544,
      "d": 1285.7129999999997,
      "v": 48
    },
    {
      "midi": 72,
      "hit": false,
      "t": 27428.544000000038,
      "d": 1285.7129999999997,
      "v": 80
    },
    {
      "midi": 64,
      "hit": false,
      "t": 28714.257000000038,
      "d": 214.28550000000178,
      "v": 80
    },
    {
      "midi": 65,
      "hit": false,
      "t": 28928.54250000004,
      "d": 214.28550000000178,
      "v": 80
    },
    {
      "midi": 52,
      "hit": false,
      "t": 29142.828,
      "d": 1285.7129999999997,
      "v": 48
    },
    {
      "midi": 55,
      "hit": false,
      "t": 29142.828,
      "d": 1285.7129999999997,
      "v": 48
    },
    {
      "midi": 60,
      "hit": false,
      "t": 29142.828,
      "d": 1285.7129999999997,
      "v": 48
    },
    {
      "midi": 67,
      "hit": false,
      "t": 29142.82800000004,
      "d": 428.5709999999999,
      "v": 80
    },
    {
      "midi": 67,
      "hit": false,
      "t": 29571.39900000004,
      "d": 214.28550000000178,
      "v": 80
    },
    {
      "midi": 67,
      "hit": false,
      "t": 29785.684500000043,
      "d": 214.28550000000178,
      "v": 80
    },
    {
      "midi": 67,
      "hit": false,
      "t": 29999.970000000045,
      "d": 428.5709999999999,
      "v": 80
    },
    {
      "midi": 60,
      "hit": false,
      "t": 30428.541,
      "d": 428.5709999999999,
      "v": 48
    },
    {
      "midi": 67,
      "hit": false,
      "t": 30428.541000000045,
      "d": 428.5709999999999,
      "v": 80
    },
    {
      "midi": 55,
      "hit": false,
      "t": 30857.112,
      "d": 428.5709999999999,
      "v": 48
    },
    {
      "midi": 64,
      "hit": false,
      "t": 30857.112000000045,
      "d": 428.5709999999999,
      "v": 80
    },
    {
      "midi": 52,
      "hit": false,
      "t": 31285.683,
      "d": 428.5709999999999,
      "v": 48
    },
    {
      "midi": 60,
      "hit": false,
      "t": 31285.683000000045,
      "d": 428.5709999999999,
      "v": 80
    },
    {
      "midi": 48,
      "hit": false,
      "t": 31714.254,
      "d": 428.5709999999999,
      "v": 48
    },
    {
      "midi": 72,
      "hit": false,
      "t": 31714.254000000044,
      "d": 214.28550000000178,
      "v": 80
    },
    {
      "midi": 71,
      "hit": false,
      "t": 31928.539500000046,
      "d": 214.28550000000178,
      "v": 80
    },
    {
      "midi": 60,
      "hit": false,
      "t": 32142.825,
      "d": 428.5709999999999,
      "v": 48
    },
    {
      "midi": 72,
      "hit": false,
      "t": 32142.825000000048,
      "d": 214.28550000000178,
      "v": 80
    },
    {
      "midi": 74,
      "hit": false,
      "t": 32357.11050000005,
      "d": 214.28550000000178,
      "v": 80
    },
    {
      "midi": 55,
      "hit": false,
      "t": 32571.396,
      "d": 428.57100000000355,
      "v": 48
    },
    {
      "midi": 76,
      "hit": false,
      "t": 32571.39600000005,
      "d": 428.57100000000355,
      "v": 80
    },
    {
      "midi": 53,
      "hit": false,
      "t": 32999.967000000004,
      "d": 214.28549999999814,
      "v": 48
    },
    {
      "midi": 74,
      "hit": false,
      "t": 32999.967000000055,
      "d": 214.28549999999814,
      "v": 80
    },
    {
      "midi": 55,
      "hit": false,
      "t": 33214.2525,
      "d": 214.28549999999814,
      "v": 48
    },
    {
      "midi": 76,
      "hit": false,
      "t": 33214.25250000005,
      "d": 214.28549999999814,
      "v": 80
    },
    {
      "midi": 57,
      "hit": false,
      "t": 33428.538,
      "d": 214.28549999999814,
      "v": 48
    },
    {
      "midi": 77,
      "hit": false,
      "t": 33428.53800000005,
      "d": 214.28549999999814,
      "v": 80
    },
    {
      "midi": 55,
      "hit": false,
      "t": 33642.8235,
      "d": 214.28549999999814,
      "v": 48
    },
    {
      "midi": 76,
      "hit": false,
      "t": 33642.82350000005,
      "d": 214.28549999999814,
      "v": 80
    },
    {
      "midi": 53,
      "hit": false,
      "t": 33857.109,
      "d": 214.28549999999814,
      "v": 48
    },
    {
      "midi": 74,
      "hit": false,
      "t": 33857.10900000005,
      "d": 214.28549999999814,
      "v": 80
    },
    {
      "midi": 52,
      "hit": false,
      "t": 34071.394499999995,
      "d": 214.28549999999814,
      "v": 48
    },
    {
      "midi": 72,
      "hit": false,
      "t": 34071.394500000046,
      "d": 214.28549999999814,
      "v": 80
    },
    {
      "midi": 50,
      "hit": false,
      "t": 34285.67999999999,
      "d": 428.57100000000355,
      "v": 48
    },
    {
      "midi": 71,
      "hit": false,
      "t": 34285.680000000044,
      "d": 1285.7130000000034,
      "v": 80
    },
    {
      "midi": 74,
      "hit": false,
      "t": 34285.680000000044,
      "d": 1285.7130000000034,
      "v": 80
    },
    {
      "midi": 43,
      "hit": false,
      "t": 34714.251,
      "d": 214.28549999999814,
      "v": 48
    },
    {
      "midi": 43,
      "hit": false,
      "t": 34928.536499999995,
      "d": 214.28549999999814,
      "v": 48
    },
    {
      "midi": 43,
      "hit": false,
      "t": 35142.82199999999,
      "d": 857.1419999999998,
      "v": 48
    },
    {
      "midi": 64,
      "hit": false,
      "t": 35571.39300000005,
      "d": 214.28549999999814,
      "v": 80
    },
    {
      "midi": 65,
      "hit": false,
      "t": 35785.678500000045,
      "d": 214.28549999999814,
      "v": 80
    },
    {
      "midi": 52,
      "hit": false,
      "t": 35999.96399999999,
      "d": 1285.7130000000034,
      "v": 48
    },
    {
      "midi": 55,
      "hit": false,
      "t": 35999.96399999999,
      "d": 1285.7130000000034,
      "v": 48
    },
    {
      "midi": 60,
      "hit": false,
      "t": 35999.96399999999,
      "d": 1285.7130000000034,
      "v": 48
    },
    {
      "midi": 67,
      "hit": false,
      "t": 35999.96400000004,
      "d": 428.57100000000355,
      "v": 80
    },
    {
      "midi": 67,
      "hit": false,
      "t": 36428.53500000005,
      "d": 214.28549999999814,
      "v": 80
    },
    {
      "midi": 67,
      "hit": false,
      "t": 36642.820500000045,
      "d": 214.28549999999814,
      "v": 80
    },
    {
      "midi": 67,
      "hit": false,
      "t": 36857.10600000004,
      "d": 428.57100000000355,
      "v": 80
    },
    {
      "midi": 60,
      "hit": false,
      "t": 37285.676999999996,
      "d": 428.57100000000355,
      "v": 48
    },
    {
      "midi": 67,
      "hit": false,
      "t": 37285.67700000005,
      "d": 428.57100000000355,
      "v": 80
    },
    {
      "midi": 55,
      "hit": false,
      "t": 37714.248,
      "d": 428.57100000000355,
      "v": 48
    },
    {
      "midi": 64,
      "hit": false,
      "t": 37714.24800000005,
      "d": 428.57100000000355,
      "v": 80
    },
    {
      "midi": 52,
      "hit": false,
      "t": 38142.819,
      "d": 428.57100000000355,
      "v": 48
    },
    {
      "midi": 60,
      "hit": false,
      "t": 38142.819000000054,
      "d": 428.57100000000355,
      "v": 80
    },
    {
      "midi": 48,
      "hit": false,
      "t": 38571.39000000001,
      "d": 428.57100000000355,
      "v": 48
    },
    {
      "midi": 72,
      "hit": false,
      "t": 38571.39000000006,
      "d": 214.28549999999814,
      "v": 80
    },
    {
      "midi": 71,
      "hit": false,
      "t": 38785.675500000056,
      "d": 214.28549999999814,
      "v": 80
    },
    {
      "midi": 60,
      "hit": false,
      "t": 38999.96100000001,
      "d": 428.57100000000355,
      "v": 48
    },
    {
      "midi": 72,
      "hit": false,
      "t": 38999.961000000054,
      "d": 214.28549999999814,
      "v": 80
    },
    {
      "midi": 74,
      "hit": false,
      "t": 39214.24650000005,
      "d": 214.28549999999814,
      "v": 80
    },
    {
      "midi": 55,
      "hit": false,
      "t": 39428.532000000014,
      "d": 428.57100000000355,
      "v": 48
    },
    {
      "midi": 76,
      "hit": false,
      "t": 39428.53200000005,
      "d": 428.57100000000355,
      "v": 80
    },
    {
      "midi": 53,
      "hit": false,
      "t": 39857.10300000002,
      "d": 214.28549999999814,
      "v": 48
    },
    {
      "midi": 74,
      "hit": false,
      "t": 39857.103000000054,
      "d": 214.28549999999814,
      "v": 80
    },
    {
      "midi": 55,
      "hit": false,
      "t": 40071.388500000015,
      "d": 214.28549999999814,
      "v": 48
    },
    {
      "midi": 76,
      "hit": false,
      "t": 40071.38850000005,
      "d": 214.28549999999814,
      "v": 80
    },
    {
      "midi": 57,
      "hit": false,
      "t": 40285.67400000001,
      "d": 214.28549999999814,
      "v": 48
    },
    {
      "midi": 77,
      "hit": false,
      "t": 40285.67400000005,
      "d": 214.28549999999814,
      "v": 80
    },
    {
      "midi": 55,
      "hit": false,
      "t": 40499.95950000001,
      "d": 214.28549999999814,
      "v": 48
    },
    {
      "midi": 76,
      "hit": false,
      "t": 40499.95950000005,
      "d": 214.28549999999814,
      "v": 80
    },
    {
      "midi": 53,
      "hit": false,
      "t": 40714.24500000001,
      "d": 214.28549999999814,
      "v": 48
    },
    {
      "midi": 74,
      "hit": false,
      "t": 40714.245000000046,
      "d": 214.28549999999814,
      "v": 80
    },
    {
      "midi": 52,
      "hit": false,
      "t": 40928.53050000001,
      "d": 214.28549999999814,
      "v": 48
    },
    {
      "midi": 72,
      "hit": false,
      "t": 40928.530500000044,
      "d": 214.28549999999814,
      "v": 80
    },
    {
      "midi": 50,
      "hit": false,
      "t": 41142.816000000006,
      "d": 428.57100000000355,
      "v": 48
    },
    {
      "midi": 71,
      "hit": false,
      "t": 41142.81600000004,
      "d": 1285.7130000000034,
      "v": 80
    },
    {
      "midi": 74,
      "hit": false,
      "t": 41142.81600000004,
      "d": 1285.7130000000034,
      "v": 80
    },
    {
      "midi": 79,
      "hit": false,
      "t": 41142.81600000004,
      "d": 1285.7130000000034,
      "v": 80
    },
    {
      "midi": 43,
      "hit": false,
      "t": 41571.38700000001,
      "d": 214.28549999999814,
      "v": 48
    },
    {
      "midi": 43,
      "hit": false,
      "t": 41785.67250000001,
      "d": 214.28549999999814,
      "v": 48
    },
    {
      "midi": 43,
      "hit": false,
      "t": 41999.958000000006,
      "d": 428.57100000000355,
      "v": 48
    },
    {
      "midi": 76,
      "hit": false,
      "t": 42428.529000000046,
      "d": 214.28549999999814,
      "v": 80
    },
    {
      "midi": 74,
      "hit": false,
      "t": 42642.814500000044,
      "d": 214.28549999999814,
      "v": 80
    },
    {
      "midi": 48,
      "hit": false,
      "t": 42857.10000000001,
      "d": 857.1419999999998,
      "v": 48
    },
    {
      "midi": 52,
      "hit": false,
      "t": 42857.10000000001,
      "d": 857.1419999999998,
      "v": 48
    },
    {
      "midi": 55,
      "hit": false,
      "t": 42857.10000000001,
      "d": 857.1419999999998,
      "v": 48
    },
    {
      "midi": 72,
      "hit": false,
      "t": 42857.10000000004,
      "d": 428.57100000000355,
      "v": 80
    },
    {
      "midi": 67,
      "hit": false,
      "t": 43285.671000000046,
      "d": 428.57100000000355,
      "v": 80
    },
    {
      "midi": 52,
      "hit": false,
      "t": 43714.24200000001,
      "d": 428.57100000000355,
      "v": 48
    },
    {
      "midi": 55,
      "hit": false,
      "t": 43714.24200000001,
      "d": 428.57100000000355,
      "v": 48
    },
    {
      "midi": 60,
      "hit": false,
      "t": 43714.24200000001,
      "d": 428.57100000000355,
      "v": 48
    },
    {
      "midi": 72,
      "hit": false,
      "t": 43714.24200000005,
      "d": 428.57100000000355,
      "v": 80
    },
    {
      "midi": 50,
      "hit": false,
      "t": 44142.81300000002,
      "d": 428.57100000000355,
      "v": 48
    },
    {
      "midi": 55,
      "hit": false,
      "t": 44142.81300000002,
      "d": 428.57100000000355,
      "v": 48
    },
    {
      "midi": 59,
      "hit": false,
      "t": 44142.81300000002,
      "d": 428.57100000000355,
      "v": 48
    },
    {
      "midi": 74,
      "hit": false,
      "t": 44142.81300000005,
      "d": 428.57100000000355,
      "v": 80
    },
    {
      "midi": 48,
      "hit": false,
      "t": 44571.38400000002,
      "d": 428.57100000000355,
      "v": 48
    },
    {
      "midi": 52,
      "hit": false,
      "t": 44571.38400000002,
      "d": 428.57100000000355,
      "v": 48
    },
    {
      "midi": 55,
      "hit": false,
      "t": 44571.38400000002,
      "d": 428.57100000000355,
      "v": 48
    },
    {
      "midi": 76,
      "hit": false,
      "t": 44571.38400000006,
      "d": 214.28549999999814,
      "v": 80
    },
    {
      "midi": 77,
      "hit": false,
      "t": 44785.669500000055,
      "d": 214.28549999999814,
      "v": 80
    },
    {
      "midi": 50,
      "hit": false,
      "t": 44999.95500000002,
      "d": 428.57100000000355,
      "v": 48
    },
    {
      "midi": 76,
      "hit": false,
      "t": 44999.95500000005,
      "d": 214.28549999999814,
      "v": 80
    },
    {
      "midi": 74,
      "hit": false,
      "t": 45214.24050000005,
      "d": 214.28549999999814,
      "v": 80
    },
    {
      "midi": 52,
      "hit": false,
      "t": 45428.52600000003,
      "d": 428.57100000000355,
      "v": 48
    },
    {
      "midi": 72,
      "hit": false,
      "t": 45428.52600000005,
      "d": 214.28549999999814,
      "v": 80
    },
    {
      "midi": 74,
      "hit": false,
      "t": 45642.81150000005,
      "d": 214.28549999999814,
      "v": 80
    },
    {
      "midi": 53,
      "hit": false,
      "t": 45857.09700000003,
      "d": 428.57100000000355,
      "v": 48
    },
    {
      "midi": 76,
      "hit": false,
      "t": 45857.097000000045,
      "d": 214.28549999999814,
      "v": 80
    },
    {
      "midi": 77,
      "hit": false,
      "t": 46071.38250000004,
      "d": 214.28549999999814,
      "v": 80
    },
    {
      "midi": 52,
      "hit": false,
      "t": 46285.668000000034,
      "d": 428.57100000000355,
      "v": 48
    },
    {
      "midi": 55,
      "hit": false,
      "t": 46285.668000000034,
      "d": 428.57100000000355,
      "v": 48
    },
    {
      "midi": 60,
      "hit": false,
      "t": 46285.668000000034,
      "d": 428.57100000000355,
      "v": 48
    },
    {
      "midi": 79,
      "hit": false,
      "t": 46285.66800000004,
      "d": 428.57100000000355,
      "v": 80
    },
    {
      "midi": 48,
      "hit": false,
      "t": 46714.23900000004,
      "d": 214.28549999999814,
      "v": 48
    },
    {
      "midi": 52,
      "hit": false,
      "t": 46714.23900000004,
      "d": 214.28549999999814,
      "v": 48
    },
    {
      "midi": 55,
      "hit": false,
      "t": 46714.23900000004,
      "d": 214.28549999999814,
      "v": 48
    },
    {
      "midi": 79,
      "hit": false,
      "t": 46714.239000000045,
      "d": 214.28549999999814,
      "v": 80
    },
    {
      "midi": 48,
      "hit": false,
      "t": 46928.524500000036,
      "d": 214.28549999999814,
      "v": 48
    },
    {
      "midi": 52,
      "hit": false,
      "t": 46928.524500000036,
      "d": 214.28549999999814,
      "v": 48
    },
    {
      "midi": 55,
      "hit": false,
      "t": 46928.524500000036,
      "d": 214.28549999999814,
      "v": 48
    },
    {
      "midi": 79,
      "hit": false,
      "t": 46928.52450000004,
      "d": 214.28549999999814,
      "v": 80
    },
    {
      "midi": 48,
      "hit": false,
      "t": 47142.810000000034,
      "d": 428.57100000000355,
      "v": 48
    },
    {
      "midi": 52,
      "hit": false,
      "t": 47142.810000000034,
      "d": 428.57100000000355,
      "v": 48
    },
    {
      "midi": 55,
      "hit": false,
      "t": 47142.810000000034,
      "d": 428.57100000000355,
      "v": 48
    },
    {
      "midi": 79,
      "hit": false,
      "t": 47142.81000000004,
      "d": 428.57100000000355,
      "v": 80
    },
    {
      "midi": 48,
      "hit": false,
      "t": 47571.38100000004,
      "d": 428.57100000000355,
      "v": 48
    },
    {
      "midi": 53,
      "hit": false,
      "t": 47571.38100000004,
      "d": 428.57100000000355,
      "v": 48
    },
    {
      "midi": 57,
      "hit": false,
      "t": 47571.38100000004,
      "d": 428.57100000000355,
      "v": 48
    },
    {
      "midi": 81,
      "hit": false,
      "t": 47571.381000000045,
      "d": 428.57100000000355,
      "v": 80
    },
    {
      "midi": 52,
      "hit": false,
      "t": 47999.95200000004,
      "d": 428.57100000000355,
      "v": 48
    },
    {
      "midi": 55,
      "hit": false,
      "t": 47999.95200000004,
      "d": 428.57100000000355,
      "v": 48
    },
    {
      "midi": 79,
      "hit": false,
      "t": 47999.95200000005,
      "d": 107.14274999999907,
      "v": 80
    },
    {
      "midi": 81,
      "hit": false,
      "t": 48107.09475000005,
      "d": 107.14274999999907,
      "v": 80
    },
    {
      "midi": 79,
      "hit": false,
      "t": 48214.23750000005,
      "d": 428.57100000000355,
      "v": 80
    },
    {
      "midi": 50,
      "hit": false,
      "t": 48428.523000000045,
      "d": 428.57100000000355,
      "v": 48
    },
    {
      "midi": 53,
      "hit": false,
      "t": 48428.523000000045,
      "d": 428.57100000000355,
      "v": 48
    },
    {
      "midi": 77,
      "hit": false,
      "t": 48642.80850000005,
      "d": 214.28549999999814,
      "v": 80
    },
    {
      "midi": 76,
      "hit": false,
      "t": 48857.09400000005,
      "d": 428.57100000000355,
      "v": 80
    },
    {
      "midi": 48,
      "hit": false,
      "t": 48857.09400000005,
      "d": 857.1419999999998,
      "v": 48
    },
    {
      "midi": 52,
      "hit": false,
      "t": 48857.09400000005,
      "d": 857.1419999999998,
      "v": 48
    },
    {
      "midi": 55,
      "hit": false,
      "t": 48857.09400000005,
      "d": 857.1419999999998,
      "v": 48
    },
    {
      "midi": 76,
      "hit": false,
      "t": 49285.66500000005,
      "d": 214.28549999999814,
      "v": 80
    },
    {
      "midi": 77,
      "hit": false,
      "t": 49499.95050000005,
      "d": 214.28549999999814,
      "v": 80
    },
    {
      "midi": 79,
      "hit": false,
      "t": 49714.23600000005,
      "d": 428.57100000000355,
      "v": 80
    },
    {
      "midi": 52,
      "hit": false,
      "t": 49714.23600000005,
      "d": 857.1419999999998,
      "v": 48
    },
    {
      "midi": 55,
      "hit": false,
      "t": 49714.23600000005,
      "d": 857.1419999999998,
      "v": 48
    },
    {
      "midi": 60,
      "hit": false,
      "t": 49714.23600000005,
      "d": 857.1419999999998,
      "v": 48
    },
    {
      "midi": 84,
      "hit": false,
      "t": 50142.80700000005,
      "d": 428.57100000000355,
      "v": 80
    },
    {
      "midi": 55,
      "hit": false,
      "t": 50571.37800000005,
      "d": 857.1419999999998,
      "v": 48
    },
    {
      "midi": 59,
      "hit": false,
      "t": 50571.37800000005,
      "d": 857.1419999999998,
      "v": 48
    },
    {
      "midi": 62,
      "hit": false,
      "t": 50571.37800000005,
      "d": 857.1419999999998,
      "v": 48
    },
    {
      "midi": 79,
      "hit": false,
      "t": 50571.378000000055,
      "d": 428.57100000000355,
      "v": 80
    },
    {
      "midi": 79,
      "hit": false,
      "t": 50999.94900000006,
      "d": 428.57100000000355,
      "v": 80
    },
    {
      "midi": 48,
      "hit": false,
      "t": 51428.52000000005,
      "d": 857.1419999999998,
      "v": 48
    },
    {
      "midi": 52,
      "hit": false,
      "t": 51428.52000000005,
      "d": 857.1419999999998,
      "v": 48
    },
    {
      "midi": 55,
      "hit": false,
      "t": 51428.52000000005,
      "d": 857.1419999999998,
      "v": 48
    },
    {
      "midi": 76,
      "hit": false,
      "t": 51428.52000000006,
      "d": 428.57100000000355,
      "v": 80
    },
    {
      "midi": 74,
      "hit": false,
      "t": 51857.091000000066,
      "d": 214.28549999999814,
      "v": 80
    },
    {
      "midi": 76,
      "hit": false,
      "t": 52071.376500000064,
      "d": 214.28549999999814,
      "v": 80
    },
    {
      "midi": 47,
      "hit": false,
      "t": 52285.66200000005,
      "d": 428.57100000000355,
      "v": 48
    },
    {
      "midi": 55,
      "hit": false,
      "t": 52285.66200000005,
      "d": 428.57100000000355,
      "v": 48
    },
    {
      "midi": 77,
      "hit": false,
      "t": 52285.66200000006,
      "d": 214.28549999999814,
      "v": 80
    },
    {
      "midi": 79,
      "hit": false,
      "t": 52499.94750000006,
      "d": 214.28549999999814,
      "v": 80
    },
    {
      "midi": 48,
      "hit": false,
      "t": 52714.23300000005,
      "d": 428.57100000000355,
      "v": 48
    },
    {
      "midi": 55,
      "hit": false,
      "t": 52714.23300000005,
      "d": 428.57100000000355,
      "v": 48
    },
    {
      "midi": 76,
      "hit": false,
      "t": 52714.23300000006,
      "d": 214.28549999999814,
      "v": 80
    },
    {
      "midi": 77,
      "hit": false,
      "t": 52928.51850000006,
      "d": 214.28549999999814,
      "v": 80
    },
    {
      "midi": 74,
      "hit": false,
      "t": 53142.804000000055,
      "d": 214.28549999999814,
      "v": 80
    },
    {
      "midi": 43,
      "hit": false,
      "t": 53142.804000000055,
      "d": 428.57100000000355,
      "v": 48
    },
    {
      "midi": 50,
      "hit": false,
      "t": 53142.804000000055,
      "d": 428.57100000000355,
      "v": 48
    },
    {
      "midi": 79,
      "hit": false,
      "t": 53357.08950000005,
      "d": 214.28549999999814,
      "v": 80
    },
    {
      "midi": 77,
      "hit": false,
      "t": 53571.37500000005,
      "d": 214.28549999999814,
      "v": 80
    },
    {
      "midi": 45,
      "hit": false,
      "t": 53571.37500000006,
      "d": 428.57100000000355,
      "v": 48
    },
    {
      "midi": 48,
      "hit": false,
      "t": 53571.37500000006,
      "d": 428.57100000000355,
      "v": 48
    },
    {
      "midi": 76,
      "hit": false,
      "t": 53785.66050000005,
      "d": 214.28549999999814,
      "v": 80
    },
    {
      "midi": 74,
      "hit": false,
      "t": 53999.94600000005,
      "d": 107.14274999999907,
      "v": 80
    },
    {
      "midi": 47,
      "hit": false,
      "t": 53999.94600000006,
      "d": 428.57100000000355,
      "v": 48
    },
    {
      "midi": 50,
      "hit": false,
      "t": 53999.94600000006,
      "d": 428.57100000000355,
      "v": 48
    },
    {
      "midi": 76,
      "hit": false,
      "t": 54107.088750000046,
      "d": 107.14274999999907,
      "v": 80
    },
    {
      "midi": 74,
      "hit": false,
      "t": 54214.231500000045,
      "d": 428.57100000000355,
      "v": 80
    },
    {
      "midi": 43,
      "hit": false,
      "t": 54428.517000000065,
      "d": 428.57100000000355,
      "v": 48
    },
    {
      "midi": 50,
      "hit": false,
      "t": 54428.517000000065,
      "d": 428.57100000000355,
      "v": 48
    },
    {
      "midi": 72,
      "hit": false,
      "t": 54642.80250000005,
      "d": 214.28549999999814,
      "v": 80
    },
    {
      "midi": 72,
      "hit": false,
      "t": 54857.08800000005,
      "d": 1285.7130000000034,
      "v": 80
    },
    {
      "midi": 48,
      "hit": false,
      "t": 54857.08800000007,
      "d": 1285.7130000000034,
      "v": 48
    },
    {
      "midi": 52,
      "hit": false,
      "t": 54857.08800000007,
      "d": 1285.7130000000034,
      "v": 48
    },
    {
      "midi": 55,
      "hit": false,
      "t": 54857.08800000007,
      "d": 1285.7130000000034,
      "v": 48
    },
    {
      "midi": 79,
      "hit": false,
      "t": 56142.80100000005,
      "d": 428.57100000000355,
      "v": 80
    },
    {
      "midi": 81,
      "hit": false,
      "t": 56571.372000000054,
      "d": 214.28549999999814,
      "v": 80
    },
    {
      "midi": 48,
      "hit": false,
      "t": 56571.372000000076,
      "d": 428.57100000000355,
      "v": 48
    },
    {
      "midi": 53,
      "hit": false,
      "t": 56571.372000000076,
      "d": 428.57100000000355,
      "v": 48
    },
    {
      "midi": 79,
      "hit": false,
      "t": 56785.65750000005,
      "d": 214.28549999999814,
      "v": 80
    },
    {
      "midi": 81,
      "hit": false,
      "t": 56999.94300000005,
      "d": 214.28549999999814,
      "v": 80
    },
    {
      "midi": 48,
      "hit": false,
      "t": 56999.94300000008,
      "d": 428.57100000000355,
      "v": 48
    },
    {
      "midi": 53,
      "hit": false,
      "t": 56999.94300000008,
      "d": 428.57100000000355,
      "v": 48
    },
    {
      "midi": 82,
      "hit": false,
      "t": 57214.22850000005,
      "d": 214.28549999999814,
      "v": 80
    },
    {
      "midi": 81,
      "hit": false,
      "t": 57428.51400000005,
      "d": 214.28549999999814,
      "v": 80
    },
    {
      "midi": 48,
      "hit": false,
      "t": 57428.51400000008,
      "d": 428.57100000000355,
      "v": 48
    },
    {
      "midi": 53,
      "hit": false,
      "t": 57428.51400000008,
      "d": 428.57100000000355,
      "v": 48
    },
    {
      "midi": 82,
      "hit": false,
      "t": 57642.799500000045,
      "d": 214.28549999999814,
      "v": 80
    },
    {
      "midi": 81,
      "hit": false,
      "t": 57857.08500000004,
      "d": 214.28549999999814,
      "v": 80
    },
    {
      "midi": 48,
      "hit": false,
      "t": 57857.08500000009,
      "d": 428.57100000000355,
      "v": 48
    },
    {
      "midi": 53,
      "hit": false,
      "t": 57857.08500000009,
      "d": 428.57100000000355,
      "v": 48
    },
    {
      "midi": 79,
      "hit": false,
      "t": 58071.37050000004,
      "d": 214.28549999999814,
      "v": 80
    },
    {
      "midi": 74,
      "hit": false,
      "t": 58285.65600000004,
      "d": 1285.7130000000034,
      "v": 80
    },
    {
      "midi": 77,
      "hit": false,
      "t": 58285.65600000004,
      "d": 1285.7130000000034,
      "v": 80
    },
    {
      "midi": 50,
      "hit": false,
      "t": 58285.65600000009,
      "d": 214.28549999999814,
      "v": 48
    },
    {
      "midi": 48,
      "hit": false,
      "t": 58499.94150000009,
      "d": 214.28549999999814,
      "v": 48
    },
    {
      "midi": 50,
      "hit": false,
      "t": 58714.227000000086,
      "d": 214.28549999999814,
      "v": 48
    },
    {
      "midi": 52,
      "hit": false,
      "t": 58928.512500000084,
      "d": 214.28549999999814,
      "v": 48
    },
    {
      "midi": 50,
      "hit": false,
      "t": 59142.79800000008,
      "d": 214.28549999999814,
      "v": 48
    },
    {
      "midi": 52,
      "hit": false,
      "t": 59357.08350000008,
      "d": 214.28549999999814,
      "v": 48
    },
    {
      "midi": 77,
      "hit": false,
      "t": 59571.36900000004,
      "d": 428.57100000000355,
      "v": 80
    },
    {
      "midi": 50,
      "hit": false,
      "t": 59571.36900000008,
      "d": 214.28549999999814,
      "v": 48
    },
    {
      "midi": 52,
      "hit": false,
      "t": 59785.65450000008,
      "d": 214.28549999999814,
      "v": 48
    },
    {
      "midi": 79,
      "hit": false,
      "t": 59999.940000000046,
      "d": 214.28549999999814,
      "v": 80
    },
    {
      "midi": 52,
      "hit": false,
      "t": 59999.940000000075,
      "d": 428.57100000000355,
      "v": 48
    },
    {
      "midi": 55,
      "hit": false,
      "t": 59999.940000000075,
      "d": 428.57100000000355,
      "v": 48
    },
    {
      "midi": 77,
      "hit": false,
      "t": 60214.225500000044,
      "d": 214.28549999999814,
      "v": 80
    },
    {
      "midi": 79,
      "hit": false,
      "t": 60428.51100000004,
      "d": 214.28549999999814,
      "v": 80
    },
    {
      "midi": 52,
      "hit": false,
      "t": 60428.51100000008,
      "d": 428.57100000000355,
      "v": 48
    },
    {
      "midi": 55,
      "hit": false,
      "t": 60428.51100000008,
      "d": 428.57100000000355,
      "v": 48
    },
    {
      "midi": 81,
      "hit": false,
      "t": 60642.79650000004,
      "d": 214.28549999999814,
      "v": 80
    },
    {
      "midi": 79,
      "hit": false,
      "t": 60857.08200000004,
      "d": 214.28549999999814,
      "v": 80
    },
    {
      "midi": 52,
      "hit": false,
      "t": 60857.08200000008,
      "d": 428.57100000000355,
      "v": 48
    },
    {
      "midi": 55,
      "hit": false,
      "t": 60857.08200000008,
      "d": 428.57100000000355,
      "v": 48
    },
    {
      "midi": 81,
      "hit": false,
      "t": 61071.36750000004,
      "d": 214.28549999999814,
      "v": 80
    },
    {
      "midi": 79,
      "hit": false,
      "t": 61285.653000000035,
      "d": 214.28549999999814,
      "v": 80
    },
    {
      "midi": 52,
      "hit": false,
      "t": 61285.653000000086,
      "d": 428.57100000000355,
      "v": 48
    },
    {
      "midi": 55,
      "hit": false,
      "t": 61285.653000000086,
      "d": 428.57100000000355,
      "v": 48
    },
    {
      "midi": 77,
      "hit": false,
      "t": 61499.93850000003,
      "d": 214.28549999999814,
      "v": 80
    },
    {
      "midi": 76,
      "hit": false,
      "t": 61714.22400000003,
      "d": 428.57100000000355,
      "v": 80
    },
    {
      "midi": 45,
      "hit": false,
      "t": 61714.22400000009,
      "d": 428.57100000000355,
      "v": 48
    },
    {
      "midi": 49,
      "hit": false,
      "t": 61714.22400000009,
      "d": 428.57100000000355,
      "v": 48
    },
    {
      "midi": 81,
      "hit": false,
      "t": 62142.795000000035,
      "d": 428.57100000000355,
      "v": 80
    },
    {
      "midi": 45,
      "hit": false,
      "t": 62142.79500000009,
      "d": 428.57100000000355,
      "v": 48
    },
    {
      "midi": 79,
      "hit": false,
      "t": 62571.36600000004,
      "d": 428.57100000000355,
      "v": 80
    },
    {
      "midi": 47,
      "hit": false,
      "t": 62571.3660000001,
      "d": 428.57100000000355,
      "v": 48
    },
    {
      "midi": 77,
      "hit": false,
      "t": 62999.93700000004,
      "d": 214.28549999999814,
      "v": 80
    },
    {
      "midi": 49,
      "hit": false,
      "t": 62999.9370000001,
      "d": 428.57100000000355,
      "v": 48
    },
    {
      "midi": 76,
      "hit": false,
      "t": 63214.22250000004,
      "d": 214.28549999999814,
      "v": 80
    },
    {
      "midi": 77,
      "hit": false,
      "t": 63428.50800000004,
      "d": 428.57100000000355,
      "v": 80
    },
    {
      "midi": 50,
      "hit": false,
      "t": 63428.5080000001,
      "d": 428.57100000000355,
      "v": 48
    },
    {
      "midi": 53,
      "hit": false,
      "t": 63428.5080000001,
      "d": 428.57100000000355,
      "v": 48
    },
    {
      "midi": 69,
      "hit": false,
      "t": 63857.07900000004,
      "d": 428.57100000000355,
      "v": 80
    },
    {
      "midi": 57,
      "hit": false,
      "t": 63857.07900000011,
      "d": 428.57100000000355,
      "v": 48
    },
    {
      "midi": 61,
      "hit": false,
      "t": 63857.07900000011,
      "d": 428.57100000000355,
      "v": 48
    },
    {
      "midi": 67,
      "hit": false,
      "t": 64285.650000000045,
      "d": 428.57100000000355,
      "v": 80
    },
    {
      "midi": 59,
      "hit": false,
      "t": 64285.65000000011,
      "d": 428.57100000000355,
      "v": 48
    },
    {
      "midi": 65,
      "hit": false,
      "t": 64714.22100000005,
      "d": 214.28549999999814,
      "v": 80
    },
    {
      "midi": 61,
      "hit": false,
      "t": 64714.221000000114,
      "d": 428.57100000000355,
      "v": 48
    },
    {
      "midi": 64,
      "hit": false,
      "t": 64928.50650000005,
      "d": 214.28549999999814,
      "v": 80
    },
    {
      "midi": 65,
      "hit": false,
      "t": 65142.792000000045,
      "d": 428.5709999999963,
      "v": 80
    },
    {
      "midi": 62,
      "hit": false,
      "t": 65142.79200000012,
      "d": 428.5709999999963,
      "v": 48
    },
    {
      "midi": 81,
      "hit": false,
      "t": 65571.36300000004,
      "d": 428.5709999999963,
      "v": 80
    },
    {
      "midi": 45,
      "hit": false,
      "t": 65571.36300000011,
      "d": 428.5709999999963,
      "v": 48
    },
    {
      "midi": 49,
      "hit": false,
      "t": 65571.36300000011,
      "d": 428.5709999999963,
      "v": 48
    },
    {
      "midi": 79,
      "hit": false,
      "t": 65999.93400000004,
      "d": 428.5709999999963,
      "v": 80
    },
    {
      "midi": 47,
      "hit": false,
      "t": 65999.93400000011,
      "d": 428.5709999999963,
      "v": 48
    },
    {
      "midi": 77,
      "hit": false,
      "t": 66428.50500000003,
      "d": 214.28549999999814,
      "v": 80
    },
    {
      "midi": 49,
      "hit": false,
      "t": 66428.5050000001,
      "d": 428.5709999999963,
      "v": 48
    },
    {
      "midi": 76,
      "hit": false,
      "t": 66642.79050000003,
      "d": 214.28549999999814,
      "v": 80
    },
    {
      "midi": 77,
      "hit": false,
      "t": 66857.07600000003,
      "d": 214.28549999999814,
      "v": 80
    },
    {
      "midi": 50,
      "hit": false,
      "t": 66857.0760000001,
      "d": 428.5709999999963,
      "v": 48
    },
    {
      "midi": 53,
      "hit": false,
      "t": 66857.0760000001,
      "d": 428.5709999999963,
      "v": 48
    },
    {
      "midi": 76,
      "hit": false,
      "t": 67071.36150000003,
      "d": 214.28549999999814,
      "v": 80
    },
    {
      "midi": 77,
      "hit": false,
      "t": 67285.64700000003,
      "d": 214.28549999999814,
      "v": 80
    },
    {
      "midi": 50,
      "hit": false,
      "t": 67285.6470000001,
      "d": 428.5709999999963,
      "v": 48
    },
    {
      "midi": 55,
      "hit": false,
      "t": 67285.6470000001,
      "d": 428.5709999999963,
      "v": 48
    },
    {
      "midi": 58,
      "hit": false,
      "t": 67285.6470000001,
      "d": 428.5709999999963,
      "v": 48
    },
    {
      "midi": 79,
      "hit": false,
      "t": 67499.93250000002,
      "d": 214.28549999999814,
      "v": 80
    },
    {
      "midi": 76,
      "hit": false,
      "t": 67714.21800000002,
      "d": 107.14274999999907,
      "v": 80
    },
    {
      "midi": 52,
      "hit": false,
      "t": 67714.2180000001,
      "d": 857.1420000000071,
      "v": 48
    },
    {
      "midi": 55,
      "hit": false,
      "t": 67714.2180000001,
      "d": 857.1420000000071,
      "v": 48
    },
    {
      "midi": 57,
      "hit": false,
      "t": 67714.2180000001,
      "d": 857.1420000000071,
      "v": 48
    },
    {
      "midi": 77,
      "hit": false,
      "t": 67821.36075000002,
      "d": 107.14274999999907,
      "v": 80
    },
    {
      "midi": 76,
      "hit": false,
      "t": 67928.50350000002,
      "d": 428.5709999999963,
      "v": 80
    },
    {
      "midi": 74,
      "hit": false,
      "t": 68357.07450000002,
      "d": 214.28549999999814,
      "v": 80
    },
    {
      "midi": 74,
      "hit": false,
      "t": 68571.36000000002,
      "d": 428.5709999999963,
      "v": 80
    },
    {
      "midi": 50,
      "hit": false,
      "t": 68571.3600000001,
      "d": 428.5709999999963,
      "v": 48
    },
    {
      "midi": 57,
      "hit": false,
      "t": 68571.3600000001,
      "d": 428.5709999999963,
      "v": 48
    },
    {
      "midi": 81,
      "hit": false,
      "t": 68999.93100000001,
      "d": 428.5709999999963,
      "v": 80
    },
    {
      "midi": 50,
      "hit": false,
      "t": 68999.9310000001,
      "d": 428.5709999999963,
      "v": 48
    },
    {
      "midi": 54,
      "hit": false,
      "t": 68999.9310000001,
      "d": 428.5709999999963,
      "v": 48
    },
    {
      "midi": 57,
      "hit": false,
      "t": 68999.9310000001,
      "d": 428.5709999999963,
      "v": 48
    },
    {
      "midi": 81,
      "hit": false,
      "t": 69428.50200000001,
      "d": 428.5709999999963,
      "v": 80
    },
    {
      "midi": 50,
      "hit": false,
      "t": 69428.5020000001,
      "d": 428.5709999999963,
      "v": 48
    },
    {
      "midi": 54,
      "hit": false,
      "t": 69428.5020000001,
      "d": 428.5709999999963,
      "v": 48
    },
    {
      "midi": 57,
      "hit": false,
      "t": 69428.5020000001,
      "d": 428.5709999999963,
      "v": 48
    },
    {
      "midi": 81,
      "hit": false,
      "t": 69857.073,
      "d": 428.5709999999963,
      "v": 80
    },
    {
      "midi": 50,
      "hit": false,
      "t": 69857.07300000009,
      "d": 428.5709999999963,
      "v": 48
    },
    {
      "midi": 54,
      "hit": false,
      "t": 69857.07300000009,
      "d": 428.5709999999963,
      "v": 48
    },
    {
      "midi": 57,
      "hit": false,
      "t": 69857.07300000009,
      "d": 428.5709999999963,
      "v": 48
    },
    {
      "midi": 82,
      "hit": false,
      "t": 70285.644,
      "d": 428.5709999999963,
      "v": 80
    },
    {
      "midi": 46,
      "hit": false,
      "t": 70285.64400000009,
      "d": 428.5709999999963,
      "v": 48
    },
    {
      "midi": 50,
      "hit": false,
      "t": 70285.64400000009,
      "d": 428.5709999999963,
      "v": 48
    },
    {
      "midi": 55,
      "hit": false,
      "t": 70285.64400000009,
      "d": 428.5709999999963,
      "v": 48
    },
    {
      "midi": 81,
      "hit": false,
      "t": 70714.215,
      "d": 428.5709999999963,
      "v": 80
    },
    {
      "midi": 50,
      "hit": false,
      "t": 70714.21500000008,
      "d": 428.5709999999963,
      "v": 48
    },
    {
      "midi": 54,
      "hit": false,
      "t": 70714.21500000008,
      "d": 428.5709999999963,
      "v": 48
    },
    {
      "midi": 57,
      "hit": false,
      "t": 70714.21500000008,
      "d": 428.5709999999963,
      "v": 48
    },
    {
      "midi": 82,
      "hit": false,
      "t": 71142.786,
      "d": 428.5709999999963,
      "v": 80
    },
    {
      "midi": 50,
      "hit": false,
      "t": 71142.78600000008,
      "d": 428.5709999999963,
      "v": 48
    },
    {
      "midi": 55,
      "hit": false,
      "t": 71142.78600000008,
      "d": 428.5709999999963,
      "v": 48
    },
    {
      "midi": 58,
      "hit": false,
      "t": 71142.78600000008,
      "d": 428.5709999999963,
      "v": 48
    },
    {
      "midi": 84,
      "hit": false,
      "t": 71571.35699999999,
      "d": 321.4282499999972,
      "v": 80
    },
    {
      "midi": 50,
      "hit": false,
      "t": 71571.35700000008,
      "d": 428.5709999999963,
      "v": 48
    },
    {
      "midi": 55,
      "hit": false,
      "t": 71571.35700000008,
      "d": 428.5709999999963,
      "v": 48
    },
    {
      "midi": 60,
      "hit": false,
      "t": 71571.35700000008,
      "d": 428.5709999999963,
      "v": 48
    },
    {
      "midi": 82,
      "hit": false,
      "t": 71892.78524999999,
      "d": 107.14274999999907,
      "v": 80
    },
    {
      "midi": 81,
      "hit": false,
      "t": 71999.92799999999,
      "d": 428.5709999999963,
      "v": 80
    },
    {
      "midi": 50,
      "hit": false,
      "t": 71999.92800000007,
      "d": 428.5709999999963,
      "v": 48
    },
    {
      "midi": 57,
      "hit": false,
      "t": 71999.92800000007,
      "d": 428.5709999999963,
      "v": 48
    },
    {
      "midi": 69,
      "hit": false,
      "t": 72428.49899999998,
      "d": 428.5709999999963,
      "v": 80
    },
    {
      "midi": 50,
      "hit": false,
      "t": 72428.49900000007,
      "d": 428.5709999999963,
      "v": 48
    },
    {
      "midi": 54,
      "hit": false,
      "t": 72428.49900000007,
      "d": 428.5709999999963,
      "v": 48
    },
    {
      "midi": 57,
      "hit": false,
      "t": 72428.49900000007,
      "d": 428.5709999999963,
      "v": 48
    },
    {
      "midi": 69,
      "hit": false,
      "t": 72857.06999999998,
      "d": 428.5709999999963,
      "v": 80
    },
    {
      "midi": 50,
      "hit": false,
      "t": 72857.07000000007,
      "d": 428.5709999999963,
      "v": 48
    },
    {
      "midi": 54,
      "hit": false,
      "t": 72857.07000000007,
      "d": 428.5709999999963,
      "v": 48
    },
    {
      "midi": 57,
      "hit": false,
      "t": 72857.07000000007,
      "d": 428.5709999999963,
      "v": 48
    },
    {
      "midi": 69,
      "hit": false,
      "t": 73285.64099999997,
      "d": 428.5709999999963,
      "v": 80
    },
    {
      "midi": 50,
      "hit": false,
      "t": 73285.64100000006,
      "d": 428.5709999999963,
      "v": 48
    },
    {
      "midi": 54,
      "hit": false,
      "t": 73285.64100000006,
      "d": 428.5709999999963,
      "v": 48
    },
    {
      "midi": 57,
      "hit": false,
      "t": 73285.64100000006,
      "d": 428.5709999999963,
      "v": 48
    },
    {
      "midi": 70,
      "hit": false,
      "t": 73714.21199999997,
      "d": 428.5709999999963,
      "v": 80
    },
    {
      "midi": 55,
      "hit": false,
      "t": 73714.21200000006,
      "d": 428.5709999999963,
      "v": 48
    },
    {
      "midi": 69,
      "hit": false,
      "t": 74142.78299999997,
      "d": 428.5709999999963,
      "v": 80
    },
    {
      "midi": 54,
      "hit": false,
      "t": 74142.78300000005,
      "d": 428.5709999999963,
      "v": 48
    },
    {
      "midi": 57,
      "hit": false,
      "t": 74142.78300000005,
      "d": 428.5709999999963,
      "v": 48
    },
    {
      "midi": 70,
      "hit": false,
      "t": 74571.35399999996,
      "d": 428.5709999999963,
      "v": 80
    },
    {
      "midi": 55,
      "hit": false,
      "t": 74571.35400000005,
      "d": 428.5709999999963,
      "v": 48
    },
    {
      "midi": 58,
      "hit": false,
      "t": 74571.35400000005,
      "d": 428.5709999999963,
      "v": 48
    },
    {
      "midi": 72,
      "hit": false,
      "t": 74999.92499999996,
      "d": 321.4282499999972,
      "v": 80
    },
    {
      "midi": 55,
      "hit": false,
      "t": 74999.92500000005,
      "d": 428.5709999999963,
      "v": 48
    },
    {
      "midi": 60,
      "hit": false,
      "t": 74999.92500000005,
      "d": 428.5709999999963,
      "v": 48
    },
    {
      "midi": 70,
      "hit": false,
      "t": 75321.35324999996,
      "d": 107.14274999999907,
      "v": 80
    },
    {
      "midi": 69,
      "hit": false,
      "t": 75428.49599999996,
      "d": 428.5709999999963,
      "v": 80
    },
    {
      "midi": 50,
      "hit": false,
      "t": 75428.49600000004,
      "d": 428.5709999999963,
      "v": 48
    },
    {
      "midi": 57,
      "hit": false,
      "t": 75428.49600000004,
      "d": 428.5709999999963,
      "v": 48
    },
    {
      "midi": 81,
      "hit": false,
      "t": 75857.06699999995,
      "d": 428.5709999999963,
      "v": 80
    },
    {
      "midi": 50,
      "hit": false,
      "t": 75857.06700000004,
      "d": 428.5709999999963,
      "v": 48
    },
    {
      "midi": 54,
      "hit": false,
      "t": 75857.06700000004,
      "d": 428.5709999999963,
      "v": 48
    },
    {
      "midi": 57,
      "hit": false,
      "t": 75857.06700000004,
      "d": 428.5709999999963,
      "v": 48
    },
    {
      "midi": 81,
      "hit": false,
      "t": 76285.63799999995,
      "d": 428.5709999999963,
      "v": 80
    },
    {
      "midi": 50,
      "hit": false,
      "t": 76285.63800000004,
      "d": 428.5709999999963,
      "v": 48
    },
    {
      "midi": 54,
      "hit": false,
      "t": 76285.63800000004,
      "d": 428.5709999999963,
      "v": 48
    },
    {
      "midi": 57,
      "hit": false,
      "t": 76285.63800000004,
      "d": 428.5709999999963,
      "v": 48
    },
    {
      "midi": 81,
      "hit": false,
      "t": 76714.20899999994,
      "d": 428.5709999999963,
      "v": 80
    },
    {
      "midi": 50,
      "hit": false,
      "t": 76714.20900000003,
      "d": 428.5709999999963,
      "v": 48
    },
    {
      "midi": 54,
      "hit": false,
      "t": 76714.20900000003,
      "d": 428.5709999999963,
      "v": 48
    },
    {
      "midi": 57,
      "hit": false,
      "t": 76714.20900000003,
      "d": 428.5709999999963,
      "v": 48
    },
    {
      "midi": 82,
      "hit": false,
      "t": 77142.77999999994,
      "d": 428.5709999999963,
      "v": 80
    },
    {
      "midi": 46,
      "hit": false,
      "t": 77142.78000000003,
      "d": 428.5709999999963,
      "v": 48
    },
    {
      "midi": 50,
      "hit": false,
      "t": 77142.78000000003,
      "d": 428.5709999999963,
      "v": 48
    },
    {
      "midi": 55,
      "hit": false,
      "t": 77142.78000000003,
      "d": 428.5709999999963,
      "v": 48
    },
    {
      "midi": 81,
      "hit": false,
      "t": 77571.35099999994,
      "d": 428.5709999999963,
      "v": 80
    },
    {
      "midi": 50,
      "hit": false,
      "t": 77571.35100000002,
      "d": 428.5709999999963,
      "v": 48
    },
    {
      "midi": 54,
      "hit": false,
      "t": 77571.35100000002,
      "d": 428.5709999999963,
      "v": 48
    },
    {
      "midi": 57,
      "hit": false,
      "t": 77571.35100000002,
      "d": 428.5709999999963,
      "v": 48
    },
    {
      "midi": 82,
      "hit": false,
      "t": 77999.92199999993,
      "d": 428.5709999999963,
      "v": 80
    },
    {
      "midi": 50,
      "hit": false,
      "t": 77999.92200000002,
      "d": 428.5709999999963,
      "v": 48
    },
    {
      "midi": 55,
      "hit": false,
      "t": 77999.92200000002,
      "d": 428.5709999999963,
      "v": 48
    },
    {
      "midi": 58,
      "hit": false,
      "t": 77999.92200000002,
      "d": 428.5709999999963,
      "v": 48
    },
    {
      "midi": 84,
      "hit": false,
      "t": 78428.49299999993,
      "d": 214.28549999999814,
      "v": 80
    },
    {
      "midi": 50,
      "hit": false,
      "t": 78428.49300000002,
      "d": 428.5709999999963,
      "v": 48
    },
    {
      "midi": 55,
      "hit": false,
      "t": 78428.49300000002,
      "d": 428.5709999999963,
      "v": 48
    },
    {
      "midi": 60,
      "hit": false,
      "t": 78428.49300000002,
      "d": 428.5709999999963,
      "v": 48
    },
    {
      "midi": 82,
      "hit": false,
      "t": 78642.77849999993,
      "d": 214.28549999999814,
      "v": 80
    },
    {
      "midi": 81,
      "hit": false,
      "t": 78857.06399999993,
      "d": 214.28549999999814,
      "v": 80
    },
    {
      "midi": 50,
      "hit": false,
      "t": 78857.06400000001,
      "d": 857.1420000000071,
      "v": 48
    },
    {
      "midi": 54,
      "hit": false,
      "t": 78857.06400000001,
      "d": 857.1420000000071,
      "v": 48
    },
    {
      "midi": 57,
      "hit": false,
      "t": 78857.06400000001,
      "d": 857.1420000000071,
      "v": 48
    },
    {
      "midi": 82,
      "hit": false,
      "t": 79071.34949999992,
      "d": 214.28549999999814,
      "v": 80
    },
    {
      "midi": 81,
      "hit": false,
      "t": 79285.63499999992,
      "d": 214.28549999999814,
      "v": 80
    },
    {
      "midi": 82,
      "hit": false,
      "t": 79499.92049999992,
      "d": 214.28549999999814,
      "v": 80
    },
    {
      "midi": 84,
      "hit": false,
      "t": 79714.20599999992,
      "d": 214.28549999999814,
      "v": 80
    },
    {
      "midi": 48,
      "hit": false,
      "t": 79714.20600000002,
      "d": 857.1420000000071,
      "v": 48
    },
    {
      "midi": 51,
      "hit": false,
      "t": 79714.20600000002,
      "d": 857.1420000000071,
      "v": 48
    },
    {
      "midi": 55,
      "hit": false,
      "t": 79714.20600000002,
      "d": 857.1420000000071,
      "v": 48
    },
    {
      "midi": 81,
      "hit": false,
      "t": 79928.49149999992,
      "d": 214.28549999999814,
      "v": 80
    },
    {
      "midi": 86,
      "hit": false,
      "t": 80142.77699999991,
      "d": 214.28549999999814,
      "v": 80
    },
    {
      "midi": 84,
      "hit": false,
      "t": 80357.06249999991,
      "d": 214.28549999999814,
      "v": 80
    },
    {
      "midi": 82,
      "hit": false,
      "t": 80571.34799999991,
      "d": 642.8564999999944,
      "v": 80
    },
    {
      "midi": 50,
      "hit": false,
      "t": 80571.34800000003,
      "d": 857.1420000000071,
      "v": 48
    },
    {
      "midi": 55,
      "hit": false,
      "t": 80571.34800000003,
      "d": 857.1420000000071,
      "v": 48
    },
    {
      "midi": 58,
      "hit": false,
      "t": 80571.34800000003,
      "d": 857.1420000000071,
      "v": 48
    },
    {
      "midi": 81,
      "hit": false,
      "t": 81214.2044999999,
      "d": 214.28549999999814,
      "v": 80
    },
    {
      "midi": 81,
      "hit": false,
      "t": 81428.4899999999,
      "d": 107.14274999999907,
      "v": 80
    },
    {
      "midi": 50,
      "hit": false,
      "t": 81428.49000000003,
      "d": 857.1420000000071,
      "v": 48
    },
    {
      "midi": 54,
      "hit": false,
      "t": 81428.49000000003,
      "d": 857.1420000000071,
      "v": 48
    },
    {
      "midi": 57,
      "hit": false,
      "t": 81428.49000000003,
      "d": 857.1420000000071,
      "v": 48
    },
    {
      "midi": 82,
      "hit": false,
      "t": 81535.6327499999,
      "d": 107.14274999999907,
      "v": 80
    },
    {
      "midi": 81,
      "hit": false,
      "t": 81642.7754999999,
      "d": 428.5709999999963,
      "v": 80
    },
    {
      "midi": 79,
      "hit": false,
      "t": 82071.3464999999,
      "d": 214.28549999999814,
      "v": 80
    },
    {
      "midi": 79,
      "hit": false,
      "t": 82285.6319999999,
      "d": 428.5709999999963,
      "v": 80
    },
    {
      "midi": 50,
      "hit": false,
      "t": 82285.63200000004,
      "d": 857.1420000000071,
      "v": 48
    },
    {
      "midi": 55,
      "hit": false,
      "t": 82285.63200000004,
      "d": 857.1420000000071,
      "v": 48
    },
    {
      "midi": 58,
      "hit": false,
      "t": 82285.63200000004,
      "d": 857.1420000000071,
      "v": 48
    },
    {
      "midi": 74,
      "hit": false,
      "t": 82714.20299999989,
      "d": 214.28549999999814,
      "v": 80
    },
    {
      "midi": 76,
      "hit": false,
      "t": 82928.48849999989,
      "d": 214.28549999999814,
      "v": 80
    },
    {
      "midi": 77,
      "hit": false,
      "t": 83142.77399999989,
      "d": 857.1420000000071,
      "v": 80
    },
    {
      "midi": 50,
      "hit": false,
      "t": 83142.77400000005,
      "d": 428.5709999999963,
      "v": 48
    },
    {
      "midi": 53,
      "hit": false,
      "t": 83142.77400000005,
      "d": 428.5709999999963,
      "v": 48
    },
    {
      "midi": 57,
      "hit": false,
      "t": 83142.77400000005,
      "d": 428.5709999999963,
      "v": 48
    },
    {
      "midi": 50,
      "hit": false,
      "t": 83571.34500000004,
      "d": 428.5709999999963,
      "v": 48
    },
    {
      "midi": 53,
      "hit": false,
      "t": 83571.34500000004,
      "d": 428.5709999999963,
      "v": 48
    },
    {
      "midi": 57,
      "hit": false,
      "t": 83571.34500000004,
      "d": 428.5709999999963,
      "v": 48
    },
    {
      "midi": 76,
      "hit": false,
      "t": 83999.9159999999,
      "d": 428.5709999999963,
      "v": 80
    },
    {
      "midi": 48,
      "hit": false,
      "t": 83999.91600000004,
      "d": 857.1420000000071,
      "v": 48
    },
    {
      "midi": 52,
      "hit": false,
      "t": 83999.91600000004,
      "d": 857.1420000000071,
      "v": 48
    },
    {
      "midi": 57,
      "hit": false,
      "t": 83999.91600000004,
      "d": 857.1420000000071,
      "v": 48
    },
    {
      "midi": 76,
      "hit": false,
      "t": 84428.48699999989,
      "d": 214.28549999999814,
      "v": 80
    },
    {
      "midi": 77,
      "hit": false,
      "t": 84642.77249999989,
      "d": 214.28549999999814,
      "v": 80
    },
    {
      "midi": 79,
      "hit": false,
      "t": 84857.05799999989,
      "d": 857.1420000000071,
      "v": 80
    },
    {
      "midi": 52,
      "hit": false,
      "t": 84857.05800000005,
      "d": 428.5709999999963,
      "v": 48
    },
    {
      "midi": 55,
      "hit": false,
      "t": 84857.05800000005,
      "d": 428.5709999999963,
      "v": 48
    },
    {
      "midi": 60,
      "hit": false,
      "t": 84857.05800000005,
      "d": 428.5709999999963,
      "v": 48
    },
    {
      "midi": 52,
      "hit": false,
      "t": 85285.62900000004,
      "d": 428.5709999999963,
      "v": 48
    },
    {
      "midi": 55,
      "hit": false,
      "t": 85285.62900000004,
      "d": 428.5709999999963,
      "v": 48
    },
    {
      "midi": 60,
      "hit": false,
      "t": 85285.62900000004,
      "d": 428.5709999999963,
      "v": 48
    },
    {
      "midi": 72,
      "hit": false,
      "t": 85714.1999999999,
      "d": 428.5709999999963,
      "v": 80
    },
    {
      "midi": 48,
      "hit": false,
      "t": 85714.20000000004,
      "d": 857.1420000000071,
      "v": 48
    },
    {
      "midi": 53,
      "hit": false,
      "t": 85714.20000000004,
      "d": 857.1420000000071,
      "v": 48
    },
    {
      "midi": 57,
      "hit": false,
      "t": 85714.20000000004,
      "d": 857.1420000000071,
      "v": 48
    },
    {
      "midi": 77,
      "hit": false,
      "t": 86142.77099999989,
      "d": 214.28549999999814,
      "v": 80
    },
    {
      "midi": 79,
      "hit": false,
      "t": 86357.05649999989,
      "d": 214.28549999999814,
      "v": 80
    },
    {
      "midi": 81,
      "hit": false,
      "t": 86571.34199999989,
      "d": 857.1420000000071,
      "v": 80
    },
    {
      "midi": 53,
      "hit": false,
      "t": 86571.34200000005,
      "d": 428.5709999999963,
      "v": 48
    },
    {
      "midi": 57,
      "hit": false,
      "t": 86571.34200000005,
      "d": 428.5709999999963,
      "v": 48
    },
    {
      "midi": 60,
      "hit": false,
      "t": 86571.34200000005,
      "d": 428.5709999999963,
      "v": 48
    },
    {
      "midi": 53,
      "hit": false,
      "t": 86999.91300000004,
      "d": 428.5709999999963,
      "v": 48
    },
    {
      "midi": 57,
      "hit": false,
      "t": 86999.91300000004,
      "d": 428.5709999999963,
      "v": 48
    },
    {
      "midi": 60,
      "hit": false,
      "t": 86999.91300000004,
      "d": 428.5709999999963,
      "v": 48
    },
    {
      "midi": 74,
      "hit": false,
      "t": 87428.4839999999,
      "d": 428.5709999999963,
      "v": 80
    },
    {
      "midi": 50,
      "hit": false,
      "t": 87428.48400000004,
      "d": 857.1420000000071,
      "v": 48
    },
    {
      "midi": 55,
      "hit": false,
      "t": 87428.48400000004,
      "d": 857.1420000000071,
      "v": 48
    },
    {
      "midi": 59,
      "hit": false,
      "t": 87428.48400000004,
      "d": 857.1420000000071,
      "v": 48
    },
    {
      "midi": 79,
      "hit": false,
      "t": 87857.05499999989,
      "d": 428.5709999999963,
      "v": 80
    },
    {
      "midi": 77,
      "hit": false,
      "t": 88285.62599999989,
      "d": 214.28549999999814,
      "v": 80
    },
    {
      "midi": 48,
      "hit": false,
      "t": 88285.62600000005,
      "d": 857.1420000000071,
      "v": 48
    },
    {
      "midi": 52,
      "hit": false,
      "t": 88285.62600000005,
      "d": 857.1420000000071,
      "v": 48
    },
    {
      "midi": 55,
      "hit": false,
      "t": 88285.62600000005,
      "d": 857.1420000000071,
      "v": 48
    },
    {
      "midi": 76,
      "hit": false,
      "t": 88499.91149999989,
      "d": 214.28549999999814,
      "v": 80
    },
    {
      "midi": 74,
      "hit": false,
      "t": 88714.19699999988,
      "d": 214.28549999999814,
      "v": 80
    },
    {
      "midi": 72,
      "hit": false,
      "t": 88928.48249999988,
      "d": 214.28549999999814,
      "v": 80
    },
    {
      "midi": 74,
      "hit": false,
      "t": 89142.76799999988,
      "d": 214.28549999999814,
      "v": 80
    },
    {
      "midi": 47,
      "hit": false,
      "t": 89142.76800000005,
      "d": 1285.7130000000034,
      "v": 48
    },
    {
      "midi": 50,
      "hit": false,
      "t": 89142.76800000005,
      "d": 1285.7130000000034,
      "v": 48
    },
    {
      "midi": 55,
      "hit": false,
      "t": 89142.76800000005,
      "d": 1285.7130000000034,
      "v": 48
    },
    {
      "midi": 72,
      "hit": false,
      "t": 89357.05349999988,
      "d": 214.28549999999814,
      "v": 80
    },
    {
      "midi": 71,
      "hit": false,
      "t": 89571.33899999988,
      "d": 214.28549999999814,
      "v": 80
    },
    {
      "midi": 69,
      "hit": false,
      "t": 89785.62449999987,
      "d": 214.28549999999814,
      "v": 80
    },
    {
      "midi": 67,
      "hit": false,
      "t": 89999.90999999987,
      "d": 428.5709999999963,
      "v": 80
    },
    {
      "midi": 76,
      "hit": false,
      "t": 90428.48099999987,
      "d": 214.28549999999814,
      "v": 80
    },
    {
      "midi": 74,
      "hit": false,
      "t": 90642.76649999987,
      "d": 214.28549999999814,
      "v": 80
    },
    {
      "midi": 72,
      "hit": false,
      "t": 90857.05199999987,
      "d": 428.5709999999963,
      "v": 80
    },
    {
      "midi": 48,
      "hit": false,
      "t": 90857.05200000005,
      "d": 857.1420000000071,
      "v": 48
    },
    {
      "midi": 52,
      "hit": false,
      "t": 90857.05200000005,
      "d": 857.1420000000071,
      "v": 48
    },
    {
      "midi": 55,
      "hit": false,
      "t": 90857.05200000005,
      "d": 857.1420000000071,
      "v": 48
    },
    {
      "midi": 67,
      "hit": false,
      "t": 91285.62299999986,
      "d": 428.5709999999963,
      "v": 80
    },
    {
      "midi": 72,
      "hit": false,
      "t": 91714.19399999986,
      "d": 428.5709999999963,
      "v": 80
    },
    {
      "midi": 52,
      "hit": false,
      "t": 91714.19400000006,
      "d": 428.5709999999963,
      "v": 48
    },
    {
      "midi": 55,
      "hit": false,
      "t": 91714.19400000006,
      "d": 428.5709999999963,
      "v": 48
    },
    {
      "midi": 60,
      "hit": false,
      "t": 91714.19400000006,
      "d": 428.5709999999963,
      "v": 48
    },
    {
      "midi": 74,
      "hit": false,
      "t": 92142.76499999985,
      "d": 428.5709999999963,
      "v": 80
    },
    {
      "midi": 50,
      "hit": false,
      "t": 92142.76500000006,
      "d": 428.5709999999963,
      "v": 48
    },
    {
      "midi": 55,
      "hit": false,
      "t": 92142.76500000006,
      "d": 428.5709999999963,
      "v": 48
    },
    {
      "midi": 59,
      "hit": false,
      "t": 92142.76500000006,
      "d": 428.5709999999963,
      "v": 48
    },
    {
      "midi": 76,
      "hit": false,
      "t": 92571.33599999985,
      "d": 214.28549999999814,
      "v": 80
    },
    {
      "midi": 48,
      "hit": false,
      "t": 92571.33600000005,
      "d": 428.5709999999963,
      "v": 48
    },
    {
      "midi": 52,
      "hit": false,
      "t": 92571.33600000005,
      "d": 428.5709999999963,
      "v": 48
    },
    {
      "midi": 55,
      "hit": false,
      "t": 92571.33600000005,
      "d": 428.5709999999963,
      "v": 48
    },
    {
      "midi": 77,
      "hit": false,
      "t": 92785.62149999985,
      "d": 214.28549999999814,
      "v": 80
    },
    {
      "midi": 76,
      "hit": false,
      "t": 92999.90699999985,
      "d": 214.28549999999814,
      "v": 80
    },
    {
      "midi": 50,
      "hit": false,
      "t": 92999.90700000005,
      "d": 428.5709999999963,
      "v": 48
    },
    {
      "midi": 74,
      "hit": false,
      "t": 93214.19249999984,
      "d": 214.28549999999814,
      "v": 80
    },
    {
      "midi": 72,
      "hit": false,
      "t": 93428.47799999984,
      "d": 214.28549999999814,
      "v": 80
    },
    {
      "midi": 52,
      "hit": false,
      "t": 93428.47800000005,
      "d": 428.5709999999963,
      "v": 48
    },
    {
      "midi": 74,
      "hit": false,
      "t": 93642.76349999984,
      "d": 214.28549999999814,
      "v": 80
    },
    {
      "midi": 76,
      "hit": false,
      "t": 93857.04899999984,
      "d": 214.28549999999814,
      "v": 80
    },
    {
      "midi": 53,
      "hit": false,
      "t": 93857.04900000004,
      "d": 428.5709999999963,
      "v": 48
    },
    {
      "midi": 77,
      "hit": false,
      "t": 94071.33449999984,
      "d": 214.28549999999814,
      "v": 80
    },
    {
      "midi": 79,
      "hit": false,
      "t": 94285.61999999984,
      "d": 428.5709999999963,
      "v": 80
    },
    {
      "midi": 52,
      "hit": false,
      "t": 94285.62000000004,
      "d": 428.5709999999963,
      "v": 48
    },
    {
      "midi": 55,
      "hit": false,
      "t": 94285.62000000004,
      "d": 428.5709999999963,
      "v": 48
    },
    {
      "midi": 60,
      "hit": false,
      "t": 94285.62000000004,
      "d": 428.5709999999963,
      "v": 48
    },
    {
      "midi": 79,
      "hit": false,
      "t": 94714.19099999983,
      "d": 214.28549999999814,
      "v": 80
    },
    {
      "midi": 48,
      "hit": false,
      "t": 94714.19100000004,
      "d": 214.28549999999814,
      "v": 48
    },
    {
      "midi": 52,
      "hit": false,
      "t": 94714.19100000004,
      "d": 214.28549999999814,
      "v": 48
    },
    {
      "midi": 55,
      "hit": false,
      "t": 94714.19100000004,
      "d": 214.28549999999814,
      "v": 48
    },
    {
      "midi": 79,
      "hit": false,
      "t": 94928.47649999983,
      "d": 214.28549999999814,
      "v": 80
    },
    {
      "midi": 48,
      "hit": false,
      "t": 94928.47650000003,
      "d": 214.28549999999814,
      "v": 48
    },
    {
      "midi": 52,
      "hit": false,
      "t": 94928.47650000003,
      "d": 214.28549999999814,
      "v": 48
    },
    {
      "midi": 55,
      "hit": false,
      "t": 94928.47650000003,
      "d": 214.28549999999814,
      "v": 48
    },
    {
      "midi": 79,
      "hit": false,
      "t": 95142.76199999983,
      "d": 428.5709999999963,
      "v": 80
    },
    {
      "midi": 48,
      "hit": false,
      "t": 95142.76200000003,
      "d": 428.5709999999963,
      "v": 48
    },
    {
      "midi": 52,
      "hit": false,
      "t": 95142.76200000003,
      "d": 428.5709999999963,
      "v": 48
    },
    {
      "midi": 55,
      "hit": false,
      "t": 95142.76200000003,
      "d": 428.5709999999963,
      "v": 48
    },
    {
      "midi": 81,
      "hit": false,
      "t": 95571.33299999982,
      "d": 428.5709999999963,
      "v": 80
    },
    {
      "midi": 48,
      "hit": false,
      "t": 95571.33300000003,
      "d": 428.5709999999963,
      "v": 48
    },
    {
      "midi": 53,
      "hit": false,
      "t": 95571.33300000003,
      "d": 428.5709999999963,
      "v": 48
    },
    {
      "midi": 57,
      "hit": false,
      "t": 95571.33300000003,
      "d": 428.5709999999963,
      "v": 48
    },
    {
      "midi": 79,
      "hit": false,
      "t": 95999.90399999982,
      "d": 107.14274999999907,
      "v": 80
    },
    {
      "midi": 52,
      "hit": false,
      "t": 95999.90400000002,
      "d": 428.5709999999963,
      "v": 48
    },
    {
      "midi": 55,
      "hit": false,
      "t": 95999.90400000002,
      "d": 428.5709999999963,
      "v": 48
    },
    {
      "midi": 81,
      "hit": false,
      "t": 96107.04674999982,
      "d": 107.14274999999907,
      "v": 80
    },
    {
      "midi": 79,
      "hit": false,
      "t": 96214.18949999982,
      "d": 428.5709999999963,
      "v": 80
    },
    {
      "midi": 50,
      "hit": false,
      "t": 96428.47500000002,
      "d": 428.5709999999963,
      "v": 48
    },
    {
      "midi": 53,
      "hit": false,
      "t": 96428.47500000002,
      "d": 428.5709999999963,
      "v": 48
    },
    {
      "midi": 77,
      "hit": false,
      "t": 96642.76049999981,
      "d": 214.28549999999814,
      "v": 80
    },
    {
      "midi": 76,
      "hit": false,
      "t": 96857.04599999981,
      "d": 428.5709999999963,
      "v": 80
    },
    {
      "midi": 48,
      "hit": false,
      "t": 96857.04600000002,
      "d": 857.1420000000071,
      "v": 48
    },
    {
      "midi": 52,
      "hit": false,
      "t": 96857.04600000002,
      "d": 857.1420000000071,
      "v": 48
    },
    {
      "midi": 55,
      "hit": false,
      "t": 96857.04600000002,
      "d": 857.1420000000071,
      "v": 48
    },
    {
      "midi": 76,
      "hit": false,
      "t": 97285.61699999981,
      "d": 214.28549999999814,
      "v": 80
    },
    {
      "midi": 77,
      "hit": false,
      "t": 97499.90249999981,
      "d": 214.28549999999814,
      "v": 80
    },
    {
      "midi": 79,
      "hit": false,
      "t": 97714.1879999998,
      "d": 428.5709999999963,
      "v": 80
    },
    {
      "midi": 52,
      "hit": false,
      "t": 97714.18800000002,
      "d": 857.1420000000071,
      "v": 48
    },
    {
      "midi": 55,
      "hit": false,
      "t": 97714.18800000002,
      "d": 857.1420000000071,
      "v": 48
    },
    {
      "midi": 60,
      "hit": false,
      "t": 97714.18800000002,
      "d": 857.1420000000071,
      "v": 48
    },
    {
      "midi": 84,
      "hit": false,
      "t": 98142.7589999998,
      "d": 428.5709999999963,
      "v": 80
    },
    {
      "midi": 79,
      "hit": false,
      "t": 98571.3299999998,
      "d": 428.5709999999963,
      "v": 80
    },
    {
      "midi": 55,
      "hit": false,
      "t": 98571.33000000003,
      "d": 857.1420000000071,
      "v": 48
    },
    {
      "midi": 59,
      "hit": false,
      "t": 98571.33000000003,
      "d": 857.1420000000071,
      "v": 48
    },
    {
      "midi": 62,
      "hit": false,
      "t": 98571.33000000003,
      "d": 857.1420000000071,
      "v": 48
    },
    {
      "midi": 79,
      "hit": false,
      "t": 98999.9009999998,
      "d": 428.5709999999963,
      "v": 80
    },
    {
      "midi": 76,
      "hit": false,
      "t": 99428.47199999979,
      "d": 428.5709999999963,
      "v": 80
    },
    {
      "midi": 48,
      "hit": false,
      "t": 99428.47200000004,
      "d": 857.1420000000071,
      "v": 48
    },
    {
      "midi": 52,
      "hit": false,
      "t": 99428.47200000004,
      "d": 857.1420000000071,
      "v": 48
    },
    {
      "midi": 55,
      "hit": false,
      "t": 99428.47200000004,
      "d": 857.1420000000071,
      "v": 48
    },
    {
      "midi": 74,
      "hit": false,
      "t": 99857.04299999979,
      "d": 214.28549999999814,
      "v": 80
    },
    {
      "midi": 76,
      "hit": false,
      "t": 100071.32849999978,
      "d": 214.28549999999814,
      "v": 80
    },
    {
      "midi": 77,
      "hit": false,
      "t": 100285.61399999978,
      "d": 214.28549999999814,
      "v": 80
    },
    {
      "midi": 47,
      "hit": false,
      "t": 100285.61400000005,
      "d": 428.5709999999963,
      "v": 48
    },
    {
      "midi": 55,
      "hit": false,
      "t": 100285.61400000005,
      "d": 428.5709999999963,
      "v": 48
    },
    {
      "midi": 79,
      "hit": false,
      "t": 100499.89949999978,
      "d": 214.28549999999814,
      "v": 80
    },
    {
      "midi": 76,
      "hit": false,
      "t": 100714.18499999978,
      "d": 214.28549999999814,
      "v": 80
    },
    {
      "midi": 48,
      "hit": false,
      "t": 100714.18500000004,
      "d": 428.5709999999963,
      "v": 48
    },
    {
      "midi": 55,
      "hit": false,
      "t": 100714.18500000004,
      "d": 428.5709999999963,
      "v": 48
    },
    {
      "midi": 77,
      "hit": false,
      "t": 100928.47049999978,
      "d": 214.28549999999814,
      "v": 80
    },
    {
      "midi": 74,
      "hit": false,
      "t": 101142.75599999978,
      "d": 428.5709999999963,
      "v": 80
    },
    {
      "midi": 50,
      "hit": false,
      "t": 101142.75600000004,
      "d": 857.1420000000071,
      "v": 48
    },
    {
      "midi": 55,
      "hit": false,
      "t": 101142.75600000004,
      "d": 857.1420000000071,
      "v": 48
    },
    {
      "midi": 59,
      "hit": false,
      "t": 101142.75600000004,
      "d": 857.1420000000071,
      "v": 48
    },
    {
      "midi": 67,
      "hit": false,
      "t": 101571.32699999977,
      "d": 428.5709999999963,
      "v": 80
    },
    {
      "midi": 74,
      "hit": false,
      "t": 101999.89799999977,
      "d": 428.5709999999963,
      "v": 80
    },
    {
      "midi": 50,
      "hit": false,
      "t": 101999.89800000004,
      "d": 428.5709999999963,
      "v": 48
    },
    {
      "midi": 55,
      "hit": false,
      "t": 101999.89800000004,
      "d": 428.5709999999963,
      "v": 48
    },
    {
      "midi": 59,
      "hit": false,
      "t": 101999.89800000004,
      "d": 428.5709999999963,
      "v": 48
    },
    {
      "midi": 74,
      "hit": false,
      "t": 102428.46899999976,
      "d": 214.28549999999814,
      "v": 80
    },
    {
      "midi": 50,
      "hit": false,
      "t": 102428.46900000004,
      "d": 428.5709999999963,
      "v": 48
    },
    {
      "midi": 55,
      "hit": false,
      "t": 102428.46900000004,
      "d": 428.5709999999963,
      "v": 48
    },
    {
      "midi": 59,
      "hit": false,
      "t": 102428.46900000004,
      "d": 428.5709999999963,
      "v": 48
    },
    {
      "midi": 74,
      "hit": false,
      "t": 102642.75449999976,
      "d": 214.28549999999814,
      "v": 80
    },
    {
      "midi": 74,
      "hit": false,
      "t": 102857.03999999976,
      "d": 1285.7130000000034,
      "v": 80
    },
    {
      "midi": 50,
      "hit": false,
      "t": 102857.04000000004,
      "d": 428.5709999999963,
      "v": 48
    },
    {
      "midi": 55,
      "hit": false,
      "t": 102857.04000000004,
      "d": 428.5709999999963,
      "v": 48
    },
    {
      "midi": 59,
      "hit": false,
      "t": 102857.04000000004,
      "d": 428.5709999999963,
      "v": 48
    },
    {
      "midi": 43,
      "hit": false,
      "t": 103285.61100000003,
      "d": 214.28549999999814,
      "v": 48
    },
    {
      "midi": 43,
      "hit": false,
      "t": 103499.89650000003,
      "d": 214.28549999999814,
      "v": 48
    },
    {
      "midi": 50,
      "hit": false,
      "t": 103714.18200000003,
      "d": 428.5709999999963,
      "v": 48
    },
    {
      "midi": 76,
      "hit": false,
      "t": 104142.75299999976,
      "d": 214.28549999999814,
      "v": 80
    },
    {
      "midi": 74,
      "hit": false,
      "t": 104357.03849999976,
      "d": 214.28549999999814,
      "v": 80
    },
    {
      "midi": 72,
      "hit": false,
      "t": 104571.32399999976,
      "d": 428.5709999999963,
      "v": 80
    },
    {
      "midi": 48,
      "hit": false,
      "t": 104571.32400000002,
      "d": 857.1420000000071,
      "v": 48
    },
    {
      "midi": 52,
      "hit": false,
      "t": 104571.32400000002,
      "d": 857.1420000000071,
      "v": 48
    },
    {
      "midi": 55,
      "hit": false,
      "t": 104571.32400000002,
      "d": 857.1420000000071,
      "v": 48
    },
    {
      "midi": 67,
      "hit": false,
      "t": 104999.89499999976,
      "d": 428.5709999999963,
      "v": 80
    },
    {
      "midi": 72,
      "hit": false,
      "t": 105428.46599999975,
      "d": 428.5709999999963,
      "v": 80
    },
    {
      "midi": 52,
      "hit": false,
      "t": 105428.46600000003,
      "d": 428.5709999999963,
      "v": 48
    },
    {
      "midi": 55,
      "hit": false,
      "t": 105428.46600000003,
      "d": 428.5709999999963,
      "v": 48
    },
    {
      "midi": 60,
      "hit": false,
      "t": 105428.46600000003,
      "d": 428.5709999999963,
      "v": 48
    },
    {
      "midi": 74,
      "hit": false,
      "t": 105857.03699999975,
      "d": 428.5709999999963,
      "v": 80
    },
    {
      "midi": 50,
      "hit": false,
      "t": 105857.03700000003,
      "d": 428.5709999999963,
      "v": 48
    },
    {
      "midi": 55,
      "hit": false,
      "t": 105857.03700000003,
      "d": 428.5709999999963,
      "v": 48
    },
    {
      "midi": 59,
      "hit": false,
      "t": 105857.03700000003,
      "d": 428.5709999999963,
      "v": 48
    },
    {
      "midi": 76,
      "hit": false,
      "t": 106285.60799999975,
      "d": 214.28549999999814,
      "v": 80
    },
    {
      "midi": 48,
      "hit": false,
      "t": 106285.60800000002,
      "d": 428.5709999999963,
      "v": 48
    },
    {
      "midi": 52,
      "hit": false,
      "t": 106285.60800000002,
      "d": 428.5709999999963,
      "v": 48
    },
    {
      "midi": 55,
      "hit": false,
      "t": 106285.60800000002,
      "d": 428.5709999999963,
      "v": 48
    },
    {
      "midi": 77,
      "hit": false,
      "t": 106499.89349999974,
      "d": 214.28549999999814,
      "v": 80
    },
    {
      "midi": 76,
      "hit": false,
      "t": 106714.17899999974,
      "d": 214.28549999999814,
      "v": 80
    },
    {
      "midi": 50,
      "hit": false,
      "t": 106714.17900000002,
      "d": 428.5709999999963,
      "v": 48
    },
    {
      "midi": 74,
      "hit": false,
      "t": 106928.46449999974,
      "d": 214.28549999999814,
      "v": 80
    },
    {
      "midi": 72,
      "hit": false,
      "t": 107142.74999999974,
      "d": 214.28549999999814,
      "v": 80
    },
    {
      "midi": 52,
      "hit": false,
      "t": 107142.75000000001,
      "d": 428.5709999999963,
      "v": 48
    },
    {
      "midi": 74,
      "hit": false,
      "t": 107357.03549999974,
      "d": 214.28549999999814,
      "v": 80
    },
    {
      "midi": 76,
      "hit": false,
      "t": 107571.32099999973,
      "d": 214.28549999999814,
      "v": 80
    },
    {
      "midi": 53,
      "hit": false,
      "t": 107571.32100000001,
      "d": 428.5709999999963,
      "v": 48
    },
    {
      "midi": 77,
      "hit": false,
      "t": 107785.60649999973,
      "d": 214.28549999999814,
      "v": 80
    },
    {
      "midi": 79,
      "hit": false,
      "t": 107999.89199999973,
      "d": 428.5709999999963,
      "v": 80
    },
    {
      "midi": 52,
      "hit": false,
      "t": 107999.892,
      "d": 428.5709999999963,
      "v": 48
    },
    {
      "midi": 55,
      "hit": false,
      "t": 107999.892,
      "d": 428.5709999999963,
      "v": 48
    },
    {
      "midi": 60,
      "hit": false,
      "t": 107999.892,
      "d": 428.5709999999963,
      "v": 48
    },
    {
      "midi": 79,
      "hit": false,
      "t": 108428.46299999973,
      "d": 214.28549999999814,
      "v": 80
    },
    {
      "midi": 48,
      "hit": false,
      "t": 108428.463,
      "d": 214.28549999999814,
      "v": 48
    },
    {
      "midi": 52,
      "hit": false,
      "t": 108428.463,
      "d": 214.28549999999814,
      "v": 48
    },
    {
      "midi": 55,
      "hit": false,
      "t": 108428.463,
      "d": 214.28549999999814,
      "v": 48
    },
    {
      "midi": 79,
      "hit": false,
      "t": 108642.74849999973,
      "d": 214.28549999999814,
      "v": 80
    },
    {
      "midi": 48,
      "hit": false,
      "t": 108642.7485,
      "d": 214.28549999999814,
      "v": 48
    },
    {
      "midi": 52,
      "hit": false,
      "t": 108642.7485,
      "d": 214.28549999999814,
      "v": 48
    },
    {
      "midi": 55,
      "hit": false,
      "t": 108642.7485,
      "d": 214.28549999999814,
      "v": 48
    },
    {
      "midi": 79,
      "hit": false,
      "t": 108857.03399999972,
      "d": 428.5709999999963,
      "v": 80
    },
    {
      "midi": 48,
      "hit": false,
      "t": 108857.034,
      "d": 428.5709999999963,
      "v": 48
    },
    {
      "midi": 52,
      "hit": false,
      "t": 108857.034,
      "d": 428.5709999999963,
      "v": 48
    },
    {
      "midi": 55,
      "hit": false,
      "t": 108857.034,
      "d": 428.5709999999963,
      "v": 48
    },
    {
      "midi": 81,
      "hit": false,
      "t": 109285.60499999972,
      "d": 428.5709999999963,
      "v": 80
    },
    {
      "midi": 48,
      "hit": false,
      "t": 109285.605,
      "d": 428.5709999999963,
      "v": 48
    },
    {
      "midi": 53,
      "hit": false,
      "t": 109285.605,
      "d": 428.5709999999963,
      "v": 48
    },
    {
      "midi": 57,
      "hit": false,
      "t": 109285.605,
      "d": 428.5709999999963,
      "v": 48
    },
    {
      "midi": 79,
      "hit": false,
      "t": 109714.17599999972,
      "d": 107.14274999999907,
      "v": 80
    },
    {
      "midi": 52,
      "hit": false,
      "t": 109714.17599999999,
      "d": 428.5709999999963,
      "v": 48
    },
    {
      "midi": 55,
      "hit": false,
      "t": 109714.17599999999,
      "d": 428.5709999999963,
      "v": 48
    },
    {
      "midi": 81,
      "hit": false,
      "t": 109821.31874999971,
      "d": 107.14274999999907,
      "v": 80
    },
    {
      "midi": 79,
      "hit": false,
      "t": 109928.46149999971,
      "d": 428.5709999999963,
      "v": 80
    },
    {
      "midi": 50,
      "hit": false,
      "t": 110142.74699999999,
      "d": 428.5709999999963,
      "v": 48
    },
    {
      "midi": 53,
      "hit": false,
      "t": 110142.74699999999,
      "d": 428.5709999999963,
      "v": 48
    },
    {
      "midi": 77,
      "hit": false,
      "t": 110357.03249999971,
      "d": 214.28549999999814,
      "v": 80
    },
    {
      "midi": 76,
      "hit": false,
      "t": 110571.31799999971,
      "d": 428.5709999999963,
      "v": 80
    },
    {
      "midi": 48,
      "hit": false,
      "t": 110571.31799999998,
      "d": 857.1420000000071,
      "v": 48
    },
    {
      "midi": 52,
      "hit": false,
      "t": 110571.31799999998,
      "d": 857.1420000000071,
      "v": 48
    },
    {
      "midi": 55,
      "hit": false,
      "t": 110571.31799999998,
      "d": 857.1420000000071,
      "v": 48
    },
    {
      "midi": 76,
      "hit": false,
      "t": 110999.8889999997,
      "d": 214.28549999999814,
      "v": 80
    },
    {
      "midi": 77,
      "hit": false,
      "t": 111214.1744999997,
      "d": 214.28549999999814,
      "v": 80
    },
    {
      "midi": 79,
      "hit": false,
      "t": 111428.4599999997,
      "d": 428.5709999999963,
      "v": 80
    },
    {
      "midi": 52,
      "hit": false,
      "t": 111428.45999999999,
      "d": 857.1420000000071,
      "v": 48
    },
    {
      "midi": 55,
      "hit": false,
      "t": 111428.45999999999,
      "d": 857.1420000000071,
      "v": 48
    },
    {
      "midi": 60,
      "hit": false,
      "t": 111428.45999999999,
      "d": 857.1420000000071,
      "v": 48
    },
    {
      "midi": 84,
      "hit": false,
      "t": 111857.0309999997,
      "d": 428.5709999999963,
      "v": 80
    },
    {
      "midi": 79,
      "hit": false,
      "t": 112285.6019999997,
      "d": 428.5709999999963,
      "v": 80
    },
    {
      "midi": 55,
      "hit": false,
      "t": 112285.602,
      "d": 857.1420000000071,
      "v": 48
    },
    {
      "midi": 59,
      "hit": false,
      "t": 112285.602,
      "d": 857.1420000000071,
      "v": 48
    },
    {
      "midi": 62,
      "hit": false,
      "t": 112285.602,
      "d": 857.1420000000071,
      "v": 48
    },
    {
      "midi": 79,
      "hit": false,
      "t": 112714.17299999969,
      "d": 428.5709999999963,
      "v": 80
    },
    {
      "midi": 76,
      "hit": false,
      "t": 113142.74399999969,
      "d": 428.5709999999963,
      "v": 80
    },
    {
      "midi": 48,
      "hit": false,
      "t": 113142.744,
      "d": 857.1420000000071,
      "v": 48
    },
    {
      "midi": 52,
      "hit": false,
      "t": 113142.744,
      "d": 857.1420000000071,
      "v": 48
    },
    {
      "midi": 55,
      "hit": false,
      "t": 113142.744,
      "d": 857.1420000000071,
      "v": 48
    },
    {
      "midi": 74,
      "hit": false,
      "t": 113571.31499999968,
      "d": 214.28549999999814,
      "v": 80
    },
    {
      "midi": 76,
      "hit": false,
      "t": 113785.60049999968,
      "d": 214.28549999999814,
      "v": 80
    },
    {
      "midi": 77,
      "hit": false,
      "t": 113999.88599999968,
      "d": 214.28549999999814,
      "v": 80
    },
    {
      "midi": 47,
      "hit": false,
      "t": 113999.88600000001,
      "d": 428.5709999999963,
      "v": 48
    },
    {
      "midi": 55,
      "hit": false,
      "t": 113999.88600000001,
      "d": 428.5709999999963,
      "v": 48
    },
    {
      "midi": 79,
      "hit": false,
      "t": 114214.17149999968,
      "d": 214.28549999999814,
      "v": 80
    },
    {
      "midi": 76,
      "hit": false,
      "t": 114428.45699999967,
      "d": 214.28549999999814,
      "v": 80
    },
    {
      "midi": 48,
      "hit": false,
      "t": 114428.45700000001,
      "d": 428.5709999999963,
      "v": 48
    },
    {
      "midi": 55,
      "hit": false,
      "t": 114428.45700000001,
      "d": 428.5709999999963,
      "v": 48
    },
    {
      "midi": 77,
      "hit": false,
      "t": 114642.74249999967,
      "d": 214.28549999999814,
      "v": 80
    },
    {
      "midi": 74,
      "hit": false,
      "t": 114857.02799999967,
      "d": 214.28549999999814,
      "v": 80
    },
    {
      "midi": 43,
      "hit": false,
      "t": 114857.028,
      "d": 428.5709999999963,
      "v": 48
    },
    {
      "midi": 50,
      "hit": false,
      "t": 114857.028,
      "d": 428.5709999999963,
      "v": 48
    },
    {
      "midi": 79,
      "hit": false,
      "t": 115071.31349999967,
      "d": 214.28549999999814,
      "v": 80
    },
    {
      "midi": 77,
      "hit": false,
      "t": 115285.59899999967,
      "d": 214.28549999999814,
      "v": 80
    },
    {
      "midi": 45,
      "hit": false,
      "t": 115285.599,
      "d": 428.5709999999963,
      "v": 48
    },
    {
      "midi": 48,
      "hit": false,
      "t": 115285.599,
      "d": 428.5709999999963,
      "v": 48
    },
    {
      "midi": 76,
      "hit": false,
      "t": 115499.88449999967,
      "d": 214.28549999999814,
      "v": 80
    },
    {
      "midi": 74,
      "hit": false,
      "t": 115714.16999999966,
      "d": 107.14274999999907,
      "v": 80
    },
    {
      "midi": 47,
      "hit": false,
      "t": 115714.17,
      "d": 428.5709999999963,
      "v": 48
    },
    {
      "midi": 50,
      "hit": false,
      "t": 115714.17,
      "d": 428.5709999999963,
      "v": 48
    },
    {
      "midi": 76,
      "hit": false,
      "t": 115821.31274999966,
      "d": 107.14274999999907,
      "v": 80
    },
    {
      "midi": 74,
      "hit": false,
      "t": 115928.45549999966,
      "d": 428.5709999999963,
      "v": 80
    },
    {
      "midi": 43,
      "hit": false,
      "t": 116142.741,
      "d": 428.5709999999963,
      "v": 48
    },
    {
      "midi": 50,
      "hit": false,
      "t": 116142.741,
      "d": 428.5709999999963,
      "v": 48
    },
    {
      "midi": 72,
      "hit": false,
      "t": 116357.02649999966,
      "d": 214.28549999999814,
      "v": 80
    },
    {
      "midi": 72,
      "hit": false,
      "t": 116571.31199999966,
      "d": 1714.2839999999997,
      "v": 80
    },
    {
      "midi": 48,
      "hit": false,
      "t": 116571.31199999999,
      "d": 1714.2839999999997,
      "v": 48
    },
    {
      "midi": 52,
      "hit": false,
      "t": 116571.31199999999,
      "d": 1714.2839999999997,
      "v": 48
    },
    {
      "midi": 55,
      "hit": false,
      "t": 116571.31199999999,
      "d": 1714.2839999999997,
      "v": 48
    }
  ]
}