{
  "jsonPath": "Rock/Alternative Rock/Catherine Wheel/girl-stand-still.json",
  "path": "Rock\\Alternative Rock\\Catherine Wheel\\Girl Stand Still.mid",
  "name": "Girl Stand Still",
  "difficulty": "Advanced",
  "bpm": 100,
  "notes": [
    {
      "midi": 42,
      "hit": false,
      "t": 3312.498675,
      "d": 2222.221333333331,
      "v": 72
    },
    {
      "midi": 61,
      "hit": false,
      "t": 3354.165325,
      "d": 368.0554083333336,
      "v": 74
    },
    {
      "midi": 69,
      "hit": false,
      "t": 3354.165325,
      "d": 416.66650000000027,
      "v": 79
    },
    {
      "midi": 49,
      "hit": false,
      "t": 3541.66525,
      "d": 1986.1103166666644,
      "v": 70
    },
    {
      "midi": 56,
      "hit": false,
      "t": 3749.9985,
      "d": 319.44431666666696,
      "v": 72
    },
    {
      "midi": 68,
      "hit": false,
      "t": 3763.8873833333337,
      "d": 388.8887333333332,
      "v": 74
    },
    {
      "midi": 59,
      "hit": false,
      "t": 3763.8873833333337,
      "d": 416.66649999999936,
      "v": 74
    },
    {
      "midi": 57,
      "hit": false,
      "t": 3958.3317500000003,
      "d": 1701.388208333331,
      "v": 72
    },
    {
      "midi": 61,
      "hit": false,
      "t": 4166.665,
      "d": 430.55538333333334,
      "v": 74
    },
    {
      "midi": 69,
      "hit": false,
      "t": 4166.665,
      "d": 444.4442666666664,
      "v": 83
    },
    {
      "midi": 73,
      "hit": false,
      "t": 4597.220383333333,
      "d": 361.1109666666662,
      "v": 89
    },
    {
      "midi": 73,
      "hit": false,
      "t": 5013.886883333333,
      "d": 437.49982499999896,
      "v": 77
    },
    {
      "midi": 81,
      "hit": false,
      "t": 5013.886883333333,
      "d": 458.33314999999857,
      "v": 79
    },
    {
      "midi": 71,
      "hit": false,
      "t": 5416.664499999999,
      "d": 437.49982499999805,
      "v": 74
    },
    {
      "midi": 80,
      "hit": false,
      "t": 5430.553383333332,
      "d": 381.9442916666658,
      "v": 74
    },
    {
      "midi": 73,
      "hit": false,
      "t": 5833.330999999997,
      "d": 409.7220583333328,
      "v": 72
    },
    {
      "midi": 81,
      "hit": false,
      "t": 5840.275441666664,
      "d": 430.55538333333243,
      "v": 74
    },
    {
      "midi": 83,
      "hit": false,
      "t": 6236.108616666664,
      "d": 458.33314999999857,
      "v": 72
    },
    {
      "midi": 74,
      "hit": false,
      "t": 6249.997499999997,
      "d": 423.6109416666659,
      "v": 67
    },
    {
      "midi": 85,
      "hit": false,
      "t": 6659.71955833333,
      "d": 1124.9995499999995,
      "v": 77
    },
    {
      "midi": 68,
      "hit": false,
      "t": 78972.19063333333,
      "d": 90.27774166666495,
      "v": 77
    },
    {
      "midi": 81,
      "hit": false,
      "t": 78972.19063333333,
      "d": 284.7221083333279,
      "v": 77
    },
    {
      "midi": 69,
      "hit": false,
      "t": 79027.74616666666,
      "d": 277.7776666666614,
      "v": 77
    },
    {
      "midi": 80,
      "hit": false,
      "t": 79402.74601666666,
      "d": 374.9998499999929,
      "v": 74
    },
    {
      "midi": 68,
      "hit": false,
      "t": 79423.57934166666,
      "d": 298.610991666661,
      "v": 79
    },
    {
      "midi": 76,
      "hit": false,
      "t": 79798.57919166665,
      "d": 590.27754166667,
      "v": 89
    },
    {
      "midi": 64,
      "hit": false,
      "t": 79854.13472499998,
      "d": 493.0553583333385,
      "v": 89
    },
    {
      "midi": 69,
      "hit": false,
      "t": 80409.69005833332,
      "d": 305.5554333333275,
      "v": 83
    },
    {
      "midi": 81,
      "hit": false,
      "t": 80430.52338333332,
      "d": 291.66654999999446,
      "v": 79
    },
    {
      "midi": 85,
      "hit": false,
      "t": 80874.96764999998,
      "d": 583.3331000000035,
      "v": 109
    },
    {
      "midi": 73,
      "hit": false,
      "t": 80881.91209166664,
      "d": 555.5553333333373,
      "v": 101
    },
    {
      "midi": 69,
      "hit": false,
      "t": 200645.75307499996,
      "d": 222.2221333333291,
      "v": 83
    },
    {
      "midi": 57,
      "hit": false,
      "t": 200645.75307499996,
      "d": 229.1665750000102,
      "v": 74
    },
    {
      "midi": 56,
      "hit": false,
      "t": 201055.4751333333,
      "d": 347.22208333332674,
      "v": 67
    },
    {
      "midi": 68,
      "hit": false,
      "t": 201055.4751333333,
      "d": 368.0554083333409,
      "v": 74
    },
    {
      "midi": 52,
      "hit": false,
      "t": 201458.25274999999,
      "d": 548.6108916666708,
      "v": 77
    },
    {
      "midi": 64,
      "hit": false,
      "t": 201465.19719166667,
      "d": 562.4997750000039,
      "v": 83
    },
    {
      "midi": 69,
      "hit": false,
      "t": 202062.41917500002,
      "d": 249.99989999999525,
      "v": 89
    },
    {
      "midi": 57,
      "hit": false,
      "t": 202062.41917500002,
      "d": 298.61099166667555,
      "v": 74
    },
    {
      "midi": 61,
      "hit": false,
      "t": 202506.8634416667,
      "d": 576.388658333366,
      "v": 74
    },
    {
      "midi": 73,
      "hit": false,
      "t": 202513.8078833334,
      "d": 548.6108916666708,
      "v": 89
    }
  ]
}