{
  "jsonPath": "Latin/Latin/Gilberto Santa Rosa/no-pense-enamorarme-otra-vez.json",
  "path": "Latin\\Latin\\Gilberto Santa Rosa\\No Pense Enamorarme Otra Vez.mid",
  "name": "No Pense Enamorarme Otra Vez",
  "difficulty": "Advanced",
  "bpm": 109.00014170018422,
  "notes": [
    {
      "midi": 64,
      "hit": false,
      "t": 55519.53125,
      "d": 1113.28125,
      "v": 110
    },
    {
      "midi": 55,
      "hit": false,
      "t": 55519.53125,
      "d": 2980.46875,
      "v": 110
    },
    {
      "midi": 59,
      "hit": false,
      "t": 55519.53125,
      "d": 2980.46875,
      "v": 105
    },
    {
      "midi": 63,
      "hit": false,
      "t": 57015.625,
      "d": 750,
      "v": 110
    },
    {
      "midi": 62,
      "hit": false,
      "t": 57742.1875,
      "d": 757.8125,
      "v": 110
    },
    {
      "midi": 52,
      "hit": false,
      "t": 58500,
      "d": 617.1875,
      "v": 122
    },
    {
      "midi": 60,
      "hit": false,
      "t": 58500,
      "d": 707.03125,
      "v": 113
    },
    {
      "midi": 67,
      "hit": false,
      "t": 58500,
      "d": 730.46875,
      "v": 105
    },
    {
      "midi": 55,
      "hit": false,
      "t": 59625,
      "d": 257.8125,
      "v": 105
    },
    {
      "midi": 72,
      "hit": false,
      "t": 59625,
      "d": 292.96875,
      "v": 110
    },
    {
      "midi": 64,
      "hit": false,
      "t": 59625,
      "d": 300.78125,
      "v": 119
    },
    {
      "midi": 60,
      "hit": false,
      "t": 60375,
      "d": 128.90625,
      "v": 116
    },
    {
      "midi": 64,
      "hit": false,
      "t": 60500,
      "d": 125,
      "v": 102
    },
    {
      "midi": 67,
      "hit": false,
      "t": 60625,
      "d": 125,
      "v": 98
    },
    {
      "midi": 71,
      "hit": false,
      "t": 60750,
      "d": 250,
      "v": 116
    },
    {
      "midi": 69,
      "hit": false,
      "t": 61000,
      "d": 250,
      "v": 119
    },
    {
      "midi": 67,
      "hit": false,
      "t": 61250,
      "d": 250,
      "v": 122
    },
    {
      "midi": 54,
      "hit": false,
      "t": 61500,
      "d": 953.125,
      "v": 105
    },
    {
      "midi": 62,
      "hit": false,
      "t": 61500,
      "d": 1046.875,
      "v": 110
    },
    {
      "midi": 71,
      "hit": false,
      "t": 61500,
      "d": 1066.40625,
      "v": 107
    },
    {
      "midi": 66,
      "hit": false,
      "t": 63000,
      "d": 375,
      "v": 119
    },
    {
      "midi": 62,
      "hit": false,
      "t": 63000,
      "d": 750,
      "v": 110
    },
    {
      "midi": 59,
      "hit": false,
      "t": 63000,
      "d": 1500,
      "v": 102
    },
    {
      "midi": 67,
      "hit": false,
      "t": 63375,
      "d": 382.8125,
      "v": 100
    },
    {
      "midi": 66,
      "hit": false,
      "t": 63750,
      "d": 375,
      "v": 107
    },
    {
      "midi": 62,
      "hit": false,
      "t": 64125,
      "d": 375,
      "v": 107
    },
    {
      "midi": 55,
      "hit": false,
      "t": 64500,
      "d": 1488.28125,
      "v": 116
    },
    {
      "midi": 64,
      "hit": false,
      "t": 64500,
      "d": 1531.25,
      "v": 105
    },
    {
      "midi": 59,
      "hit": false,
      "t": 64500,
      "d": 2996.09375,
      "v": 107
    },
    {
      "midi": 66,
      "hit": false,
      "t": 66000,
      "d": 765.625,
      "v": 107
    },
    {
      "midi": 54,
      "hit": false,
      "t": 66000,
      "d": 785.15625,
      "v": 107
    },
    {
      "midi": 55,
      "hit": false,
      "t": 66750,
      "d": 742.1875,
      "v": 116
    },
    {
      "midi": 67,
      "hit": false,
      "t": 66750,
      "d": 750,
      "v": 107
    },
    {
      "midi": 71,
      "hit": false,
      "t": 67500,
      "d": 781.25,
      "v": 107
    },
    {
      "midi": 60,
      "hit": false,
      "t": 67500,
      "d": 2992.1875,
      "v": 110
    },
    {
      "midi": 64,
      "hit": false,
      "t": 67500,
      "d": 2992.1875,
      "v": 107
    },
    {
      "midi": 69,
      "hit": false,
      "t": 68250,
      "d": 750,
      "v": 113
    },
    {
      "midi": 67,
      "hit": false,
      "t": 69000,
      "d": 1511.71875,
      "v": 105
    },
    {
      "midi": 55,
      "hit": false,
      "t": 69750,
      "d": 750,
      "v": 113
    },
    {
      "midi": 64,
      "hit": false,
      "t": 70500,
      "d": 750,
      "v": 119
    },
    {
      "midi": 55,
      "hit": false,
      "t": 70500,
      "d": 765.625,
      "v": 110
    },
    {
      "midi": 60,
      "hit": false,
      "t": 70500,
      "d": 804.6875,
      "v": 113
    },
    {
      "midi": 55,
      "hit": false,
      "t": 71437.5,
      "d": 363.28125,
      "v": 110
    },
    {
      "midi": 60,
      "hit": false,
      "t": 71625,
      "d": 187.5,
      "v": 107
    },
    {
      "midi": 64,
      "hit": false,
      "t": 71812.5,
      "d": 58.59375,
      "v": 102
    },
    {
      "midi": 57,
      "hit": false,
      "t": 72000,
      "d": 207.03125,
      "v": 113
    },
    {
      "midi": 62,
      "hit": false,
      "t": 72000,
      "d": 222.65625,
      "v": 105
    },
    {
      "midi": 66,
      "hit": false,
      "t": 72000,
      "d": 230.46875,
      "v": 105
    },
    {
      "midi": 76,
      "hit": false,
      "t": 72750,
      "d": 207.03125,
      "v": 113
    },
    {
      "midi": 81,
      "hit": false,
      "t": 72750,
      "d": 238.28125,
      "v": 110
    },
    {
      "midi": 78,
      "hit": false,
      "t": 72937.5,
      "d": 195.3125,
      "v": 102
    },
    {
      "midi": 74,
      "hit": false,
      "t": 73125,
      "d": 152.34375,
      "v": 105
    },
    {
      "midi": 69,
      "hit": false,
      "t": 73312.5,
      "d": 179.6875,
      "v": 110
    },
    {
      "midi": 62,
      "hit": false,
      "t": 73500,
      "d": 285.15625,
      "v": 105
    },
    {
      "midi": 66,
      "hit": false,
      "t": 73500,
      "d": 296.875,
      "v": 105
    },
    {
      "midi": 71,
      "hit": false,
      "t": 73500,
      "d": 324.21875,
      "v": 116
    },
    {
      "midi": 95,
      "hit": false,
      "t": 73687.5,
      "d": 70.3125,
      "v": 89
    },
    {
      "midi": 96,
      "hit": false,
      "t": 73781.25,
      "d": 144.53125,
      "v": 95
    },
    {
      "midi": 95,
      "hit": false,
      "t": 73875,
      "d": 210.9375,
      "v": 82
    },
    {
      "midi": 93,
      "hit": false,
      "t": 74062.5,
      "d": 144.53125,
      "v": 110
    },
    {
      "midi": 95,
      "hit": false,
      "t": 74250,
      "d": 917.96875,
      "v": 107
    },
    {
      "midi": 91,
      "hit": false,
      "t": 74437.5,
      "d": 222.65625,
      "v": 85
    },
    {
      "midi": 90,
      "hit": false,
      "t": 74625,
      "d": 250,
      "v": 80
    },
    {
      "midi": 86,
      "hit": false,
      "t": 74812.5,
      "d": 207.03125,
      "v": 85
    },
    {
      "midi": 81,
      "hit": false,
      "t": 75000,
      "d": 164.0625,
      "v": 102
    },
    {
      "midi": 79,
      "hit": false,
      "t": 75187.5,
      "d": 195.3125,
      "v": 113
    },
    {
      "midi": 91,
      "hit": false,
      "t": 75187.5,
      "d": 199.21875,
      "v": 116
    },
    {
      "midi": 78,
      "hit": false,
      "t": 75375,
      "d": 210.9375,
      "v": 107
    },
    {
      "midi": 86,
      "hit": false,
      "t": 75375,
      "d": 515.625,
      "v": 116
    },
    {
      "midi": 74,
      "hit": false,
      "t": 75562.5,
      "d": 167.96875,
      "v": 105
    },
    {
      "midi": 69,
      "hit": false,
      "t": 75750,
      "d": 164.0625,
      "v": 105
    },
    {
      "midi": 98,
      "hit": false,
      "t": 75937.5,
      "d": 156.25,
      "v": 127
    },
    {
      "midi": 67,
      "hit": false,
      "t": 75937.5,
      "d": 210.9375,
      "v": 119
    },
    {
      "midi": 66,
      "hit": false,
      "t": 76125,
      "d": 207.03125,
      "v": 110
    },
    {
      "midi": 86,
      "hit": false,
      "t": 76125,
      "d": 367.1875,
      "v": 110
    },
    {
      "midi": 65,
      "hit": false,
      "t": 76312.5,
      "d": 144.53125,
      "v": 107
    },
    {
      "midi": 56,
      "hit": false,
      "t": 76500,
      "d": 347.65625,
      "v": 127
    },
    {
      "midi": 64,
      "hit": false,
      "t": 76500,
      "d": 472.65625,
      "v": 127
    },
    {
      "midi": 59,
      "hit": false,
      "t": 76500,
      "d": 488.28125,
      "v": 127
    },
    {
      "midi": 92,
      "hit": false,
      "t": 76875,
      "d": 171.875,
      "v": 107
    },
    {
      "midi": 88,
      "hit": false,
      "t": 77062.5,
      "d": 183.59375,
      "v": 116
    },
    {
      "midi": 56,
      "hit": false,
      "t": 77062.5,
      "d": 214.84375,
      "v": 127
    },
    {
      "midi": 83,
      "hit": false,
      "t": 77250,
      "d": 132.8125,
      "v": 127
    },
    {
      "midi": 59,
      "hit": false,
      "t": 77250,
      "d": 210.9375,
      "v": 116
    },
    {
      "midi": 64,
      "hit": false,
      "t": 77437.5,
      "d": 160.15625,
      "v": 111
    },
    {
      "midi": 88,
      "hit": false,
      "t": 77625,
      "d": 148.4375,
      "v": 116
    },
    {
      "midi": 68,
      "hit": false,
      "t": 77625,
      "d": 187.5,
      "v": 116
    },
    {
      "midi": 83,
      "hit": false,
      "t": 77812.5,
      "d": 195.3125,
      "v": 110
    },
    {
      "midi": 59,
      "hit": false,
      "t": 77812.5,
      "d": 230.46875,
      "v": 127
    },
    {
      "midi": 64,
      "hit": false,
      "t": 78000,
      "d": 132.8125,
      "v": 106
    },
    {
      "midi": 80,
      "hit": false,
      "t": 78000,
      "d": 187.5,
      "v": 113
    },
    {
      "midi": 68,
      "hit": false,
      "t": 78187.5,
      "d": 140.625,
      "v": 113
    },
    {
      "midi": 83,
      "hit": false,
      "t": 78375,
      "d": 144.53125,
      "v": 122
    },
    {
      "midi": 71,
      "hit": false,
      "t": 78375,
      "d": 253.90625,
      "v": 125
    },
    {
      "midi": 80,
      "hit": false,
      "t": 78562.5,
      "d": 140.625,
      "v": 116
    },
    {
      "midi": 64,
      "hit": false,
      "t": 78562.5,
      "d": 183.59375,
      "v": 127
    },
    {
      "midi": 76,
      "hit": false,
      "t": 78750,
      "d": 160.15625,
      "v": 127
    },
    {
      "midi": 68,
      "hit": false,
      "t": 78750,
      "d": 218.75,
      "v": 127
    },
    {
      "midi": 71,
      "hit": false,
      "t": 78937.5,
      "d": 179.6875,
      "v": 113
    },
    {
      "midi": 76,
      "hit": false,
      "t": 79125,
      "d": 234.375,
      "v": 125
    },
    {
      "midi": 75,
      "hit": false,
      "t": 79312.5,
      "d": 183.59375,
      "v": 119
    },
    {
      "midi": 60,
      "hit": false,
      "t": 79500,
      "d": 808.59375,
      "v": 127
    },
    {
      "midi": 71,
      "hit": false,
      "t": 79500,
      "d": 808.59375,
      "v": 119
    },
    {
      "midi": 64,
      "hit": false,
      "t": 79500,
      "d": 843.75,
      "v": 127
    },
    {
      "midi": 60,
      "hit": false,
      "t": 80437.5,
      "d": 406.25,
      "v": 122
    },
    {
      "midi": 64,
      "hit": false,
      "t": 80625,
      "d": 214.84375,
      "v": 116
    },
    {
      "midi": 71,
      "hit": false,
      "t": 80812.5,
      "d": 66.40625,
      "v": 102
    },
    {
      "midi": 60,
      "hit": false,
      "t": 81000,
      "d": 1500,
      "v": 122
    },
    {
      "midi": 64,
      "hit": false,
      "t": 81000,
      "d": 1500,
      "v": 122
    },
    {
      "midi": 69,
      "hit": false,
      "t": 81000,
      "d": 1500,
      "v": 119
    },
    {
      "midi": 64,
      "hit": false,
      "t": 82500,
      "d": 738.28125,
      "v": 122
    },
    {
      "midi": 55,
      "hit": false,
      "t": 82500,
      "d": 753.90625,
      "v": 119
    },
    {
      "midi": 60,
      "hit": false,
      "t": 82500,
      "d": 789.0625,
      "v": 119
    },
    {
      "midi": 55,
      "hit": false,
      "t": 83437.5,
      "d": 355.46875,
      "v": 122
    },
    {
      "midi": 60,
      "hit": false,
      "t": 83625,
      "d": 183.59375,
      "v": 113
    },
    {
      "midi": 64,
      "hit": false,
      "t": 83812.5,
      "d": 58.59375,
      "v": 102
    },
    {
      "midi": 57,
      "hit": false,
      "t": 84000,
      "d": 335.9375,
      "v": 116
    },
    {
      "midi": 62,
      "hit": false,
      "t": 84000,
      "d": 355.46875,
      "v": 107
    },
    {
      "midi": 66,
      "hit": false,
      "t": 84000,
      "d": 355.46875,
      "v": 122
    },
    {
      "midi": 69,
      "hit": false,
      "t": 84750,
      "d": 242.1875,
      "v": 116
    },
    {
      "midi": 64,
      "hit": false,
      "t": 84750,
      "d": 250,
      "v": 113
    },
    {
      "midi": 66,
      "hit": false,
      "t": 84937.5,
      "d": 191.40625,
      "v": 105
    },
    {
      "midi": 62,
      "hit": false,
      "t": 85125,
      "d": 175.78125,
      "v": 122
    },
    {
      "midi": 57,
      "hit": false,
      "t": 85312.5,
      "d": 171.875,
      "v": 113
    },
    {
      "midi": 62,
      "hit": false,
      "t": 85500,
      "d": 851.5625,
      "v": 122
    },
    {
      "midi": 72,
      "hit": false,
      "t": 85500,
      "d": 863.28125,
      "v": 127
    },
    {
      "midi": 55,
      "hit": false,
      "t": 85500,
      "d": 937.5,
      "v": 116
    },
    {
      "midi": 54,
      "hit": false,
      "t": 86625,
      "d": 562.5,
      "v": 111
    },
    {
      "midi": 62,
      "hit": false,
      "t": 86625,
      "d": 660.15625,
      "v": 110
    },
    {
      "midi": 71,
      "hit": false,
      "t": 86625,
      "d": 695.3125,
      "v": 127
    },
    {
      "midi": 67,
      "hit": false,
      "t": 87375,
      "d": 367.1875,
      "v": 127
    },
    {
      "midi": 55,
      "hit": false,
      "t": 87375,
      "d": 375,
      "v": 111
    },
    {
      "midi": 54,
      "hit": false,
      "t": 87750,
      "d": 375,
      "v": 111
    },
    {
      "midi": 66,
      "hit": false,
      "t": 87750,
      "d": 410.15625,
      "v": 116
    },
    {
      "midi": 50,
      "hit": false,
      "t": 88125,
      "d": 375,
      "v": 111
    },
    {
      "midi": 62,
      "hit": false,
      "t": 88125,
      "d": 375,
      "v": 116
    },
    {
      "midi": 55,
      "hit": false,
      "t": 88500,
      "d": 1488.28125,
      "v": 116
    },
    {
      "midi": 64,
      "hit": false,
      "t": 88500,
      "d": 1531.25,
      "v": 105
    },
    {
      "midi": 59,
      "hit": false,
      "t": 88500,
      "d": 2996.09375,
      "v": 107
    },
    {
      "midi": 66,
      "hit": false,
      "t": 90000,
      "d": 765.625,
      "v": 107
    },
    {
      "midi": 54,
      "hit": false,
      "t": 90000,
      "d": 785.15625,
      "v": 107
    },
    {
      "midi": 55,
      "hit": false,
      "t": 90750,
      "d": 742.1875,
      "v": 116
    },
    {
      "midi": 67,
      "hit": false,
      "t": 90750,
      "d": 750,
      "v": 107
    },
    {
      "midi": 59,
      "hit": false,
      "t": 91500,
      "d": 769.53125,
      "v": 107
    },
    {
      "midi": 57,
      "hit": false,
      "t": 91500,
      "d": 1058.59375,
      "v": 110
    },
    {
      "midi": 52,
      "hit": false,
      "t": 91500,
      "d": 1117.1875,
      "v": 110
    },
    {
      "midi": 61,
      "hit": false,
      "t": 92250,
      "d": 339.84375,
      "v": 116
    },
    {
      "midi": 71,
      "hit": false,
      "t": 93000,
      "d": 796.875,
      "v": 110
    },
    {
      "midi": 61,
      "hit": false,
      "t": 93000,
      "d": 1500,
      "v": 113
    },
    {
      "midi": 64,
      "hit": false,
      "t": 93000,
      "d": 1500,
      "v": 110
    },
    {
      "midi": 69,
      "hit": false,
      "t": 93750,
      "d": 750,
      "v": 113
    },
    {
      "midi": 57,
      "hit": false,
      "t": 94500,
      "d": 585.9375,
      "v": 113
    },
    {
      "midi": 64,
      "hit": false,
      "t": 94500,
      "d": 585.9375,
      "v": 116
    },
    {
      "midi": 59,
      "hit": false,
      "t": 94500,
      "d": 601.5625,
      "v": 116
    },
    {
      "midi": 57,
      "hit": false,
      "t": 95437.5,
      "d": 367.1875,
      "v": 113
    },
    {
      "midi": 59,
      "hit": false,
      "t": 95625,
      "d": 218.75,
      "v": 102
    },
    {
      "midi": 64,
      "hit": false,
      "t": 95812.5,
      "d": 74.21875,
      "v": 91
    },
    {
      "midi": 54,
      "hit": false,
      "t": 96000,
      "d": 230.46875,
      "v": 110
    },
    {
      "midi": 63,
      "hit": false,
      "t": 96187.5,
      "d": 246.09375,
      "v": 110
    },
    {
      "midi": 71,
      "hit": false,
      "t": 96375,
      "d": 257.8125,
      "v": 105
    },
    {
      "midi": 59,
      "hit": false,
      "t": 96562.5,
      "d": 562.5,
      "v": 105
    },
    {
      "midi": 66,
      "hit": false,
      "t": 96562.5,
      "d": 562.5,
      "v": 113
    },
    {
      "midi": 75,
      "hit": false,
      "t": 96562.5,
      "d": 562.5,
      "v": 110
    },
    {
      "midi": 63,
      "hit": false,
      "t": 97125,
      "d": 375,
      "v": 113
    },
    {
      "midi": 71,
      "hit": false,
      "t": 97125,
      "d": 375,
      "v": 122
    },
    {
      "midi": 78,
      "hit": false,
      "t": 97125,
      "d": 375,
      "v": 110
    },
    {
      "midi": 55,
      "hit": false,
      "t": 97500,
      "d": 675.78125,
      "v": 122
    },
    {
      "midi": 59,
      "hit": false,
      "t": 97500,
      "d": 707.03125,
      "v": 119
    },
    {
      "midi": 64,
      "hit": false,
      "t": 97500,
      "d": 714.84375,
      "v": 127
    },
    {
      "midi": 67,
      "hit": false,
      "t": 99000,
      "d": 789.0625,
      "v": 122
    },
    {
      "midi": 64,
      "hit": false,
      "t": 99000,
      "d": 1230.46875,
      "v": 119
    },
    {
      "midi": 59,
      "hit": false,
      "t": 99000,
      "d": 1242.1875,
      "v": 113
    },
    {
      "midi": 66,
      "hit": false,
      "t": 99750,
      "d": 480.46875,
      "v": 119
    },
    {
      "midi": 59,
      "hit": false,
      "t": 100500,
      "d": 886.71875,
      "v": 110
    },
    {
      "midi": 64,
      "hit": false,
      "t": 100500,
      "d": 917.96875,
      "v": 116
    },
    {
      "midi": 68,
      "hit": false,
      "t": 100500,
      "d": 917.96875,
      "v": 122
    },
    {
      "midi": 64,
      "hit": false,
      "t": 102000,
      "d": 324.21875,
      "v": 119
    },
    {
      "midi": 67,
      "hit": false,
      "t": 102000,
      "d": 351.5625,
      "v": 113
    },
    {
      "midi": 70,
      "hit": false,
      "t": 102000,
      "d": 363.28125,
      "v": 119
    },
    {
      "midi": 62,
      "hit": false,
      "t": 102750,
      "d": 750,
      "v": 119
    },
    {
      "midi": 68,
      "hit": false,
      "t": 102750,
      "d": 750,
      "v": 116
    },
    {
      "midi": 71,
      "hit": false,
      "t": 102750,
      "d": 750,
      "v": 127
    },
    {
      "midi": 60,
      "hit": false,
      "t": 103500,
      "d": 808.59375,
      "v": 127
    },
    {
      "midi": 71,
      "hit": false,
      "t": 103500,
      "d": 808.59375,
      "v": 119
    },
    {
      "midi": 64,
      "hit": false,
      "t": 103500,
      "d": 843.75,
      "v": 127
    },
    {
      "midi": 60,
      "hit": false,
      "t": 104437.5,
      "d": 406.25,
      "v": 122
    },
    {
      "midi": 64,
      "hit": false,
      "t": 104625,
      "d": 214.84375,
      "v": 116
    },
    {
      "midi": 71,
      "hit": false,
      "t": 104812.5,
      "d": 66.40625,
      "v": 102
    },
    {
      "midi": 60,
      "hit": false,
      "t": 105000,
      "d": 1500,
      "v": 122
    },
    {
      "midi": 64,
      "hit": false,
      "t": 105000,
      "d": 1500,
      "v": 122
    },
    {
      "midi": 69,
      "hit": false,
      "t": 105000,
      "d": 1500,
      "v": 119
    },
    {
      "midi": 64,
      "hit": false,
      "t": 106500,
      "d": 738.28125,
      "v": 122
    },
    {
      "midi": 55,
      "hit": false,
      "t": 106500,
      "d": 753.90625,
      "v": 119
    },
    {
      "midi": 60,
      "hit": false,
      "t": 106500,
      "d": 789.0625,
      "v": 119
    },
    {
      "midi": 55,
      "hit": false,
      "t": 107437.5,
      "d": 355.46875,
      "v": 122
    },
    {
      "midi": 60,
      "hit": false,
      "t": 107625,
      "d": 183.59375,
      "v": 113
    },
    {
      "midi": 64,
      "hit": false,
      "t": 107812.5,
      "d": 58.59375,
      "v": 102
    },
    {
      "midi": 57,
      "hit": false,
      "t": 108000,
      "d": 335.9375,
      "v": 116
    },
    {
      "midi": 62,
      "hit": false,
      "t": 108000,
      "d": 355.46875,
      "v": 107
    },
    {
      "midi": 66,
      "hit": false,
      "t": 108000,
      "d": 355.46875,
      "v": 122
    },
    {
      "midi": 69,
      "hit": false,
      "t": 108750,
      "d": 242.1875,
      "v": 116
    },
    {
      "midi": 64,
      "hit": false,
      "t": 108750,
      "d": 250,
      "v": 113
    },
    {
      "midi": 66,
      "hit": false,
      "t": 108937.5,
      "d": 191.40625,
      "v": 105
    },
    {
      "midi": 62,
      "hit": false,
      "t": 109125,
      "d": 175.78125,
      "v": 122
    },
    {
      "midi": 57,
      "hit": false,
      "t": 109312.5,
      "d": 171.875,
      "v": 113
    },
    {
      "midi": 55,
      "hit": false,
      "t": 109500,
      "d": 847.65625,
      "v": 116
    },
    {
      "midi": 62,
      "hit": false,
      "t": 109500,
      "d": 851.5625,
      "v": 122
    },
    {
      "midi": 72,
      "hit": false,
      "t": 109500,
      "d": 863.28125,
      "v": 127
    },
    {
      "midi": 66,
      "hit": false,
      "t": 110625,
      "d": 660.15625,
      "v": 110
    },
    {
      "midi": 74,
      "hit": false,
      "t": 110625,
      "d": 695.3125,
      "v": 127
    },
    {
      "midi": 59,
      "hit": false,
      "t": 110625,
      "d": 699.21875,
      "v": 107
    },
    {
      "midi": 67,
      "hit": false,
      "t": 111375,
      "d": 367.1875,
      "v": 127
    },
    {
      "midi": 55,
      "hit": false,
      "t": 111375,
      "d": 375,
      "v": 111
    },
    {
      "midi": 54,
      "hit": false,
      "t": 111750,
      "d": 375,
      "v": 111
    },
    {
      "midi": 66,
      "hit": false,
      "t": 111750,
      "d": 410.15625,
      "v": 116
    },
    {
      "midi": 50,
      "hit": false,
      "t": 112125,
      "d": 375,
      "v": 111
    },
    {
      "midi": 62,
      "hit": false,
      "t": 112125,
      "d": 375,
      "v": 116
    },
    {
      "midi": 55,
      "hit": false,
      "t": 112500,
      "d": 1488.28125,
      "v": 116
    },
    {
      "midi": 64,
      "hit": false,
      "t": 112500,
      "d": 1531.25,
      "v": 105
    },
    {
      "midi": 59,
      "hit": false,
      "t": 112500,
      "d": 2996.09375,
      "v": 107
    },
    {
      "midi": 66,
      "hit": false,
      "t": 114000,
      "d": 765.625,
      "v": 107
    },
    {
      "midi": 54,
      "hit": false,
      "t": 114000,
      "d": 785.15625,
      "v": 107
    },
    {
      "midi": 55,
      "hit": false,
      "t": 114750,
      "d": 742.1875,
      "v": 116
    },
    {
      "midi": 67,
      "hit": false,
      "t": 114750,
      "d": 750,
      "v": 107
    },
    {
      "midi": 71,
      "hit": false,
      "t": 115500,
      "d": 781.25,
      "v": 107
    },
    {
      "midi": 60,
      "hit": false,
      "t": 115500,
      "d": 2992.1875,
      "v": 110
    },
    {
      "midi": 64,
      "hit": false,
      "t": 115500,
      "d": 2992.1875,
      "v": 107
    },
    {
      "midi": 69,
      "hit": false,
      "t": 116250,
      "d": 750,
      "v": 113
    },
    {
      "midi": 67,
      "hit": false,
      "t": 117000,
      "d": 1500,
      "v": 105
    },
    {
      "midi": 55,
      "hit": false,
      "t": 117750,
      "d": 750,
      "v": 113
    },
    {
      "midi": 57,
      "hit": false,
      "t": 118500,
      "d": 585.9375,
      "v": 113
    },
    {
      "midi": 64,
      "hit": false,
      "t": 118500,
      "d": 585.9375,
      "v": 116
    },
    {
      "midi": 59,
      "hit": false,
      "t": 118500,
      "d": 601.5625,
      "v": 116
    },
    {
      "midi": 57,
      "hit": false,
      "t": 119437.5,
      "d": 367.1875,
      "v": 113
    },
    {
      "midi": 59,
      "hit": false,
      "t": 119625,
      "d": 218.75,
      "v": 102
    },
    {
      "midi": 64,
      "hit": false,
      "t": 119812.5,
      "d": 74.21875,
      "v": 91
    },
    {
      "midi": 54,
      "hit": false,
      "t": 120000,
      "d": 230.46875,
      "v": 110
    },
    {
      "midi": 63,
      "hit": false,
      "t": 120187.5,
      "d": 246.09375,
      "v": 110
    },
    {
      "midi": 71,
      "hit": false,
      "t": 120375,
      "d": 257.8125,
      "v": 105
    },
    {
      "midi": 59,
      "hit": false,
      "t": 120562.5,
      "d": 562.5,
      "v": 105
    },
    {
      "midi": 66,
      "hit": false,
      "t": 120562.5,
      "d": 562.5,
      "v": 113
    },
    {
      "midi": 75,
      "hit": false,
      "t": 120562.5,
      "d": 562.5,
      "v": 110
    },
    {
      "midi": 63,
      "hit": false,
      "t": 121125,
      "d": 375,
      "v": 113
    },
    {
      "midi": 71,
      "hit": false,
      "t": 121125,
      "d": 375,
      "v": 122
    },
    {
      "midi": 78,
      "hit": false,
      "t": 121125,
      "d": 375,
      "v": 110
    },
    {
      "midi": 67,
      "hit": false,
      "t": 121500,
      "d": 679.6875,
      "v": 119
    },
    {
      "midi": 59,
      "hit": false,
      "t": 121500,
      "d": 714.84375,
      "v": 119
    },
    {
      "midi": 52,
      "hit": false,
      "t": 121500,
      "d": 722.65625,
      "v": 122
    },
    {
      "midi": 55,
      "hit": false,
      "t": 122625,
      "d": 914.0625,
      "v": 127
    },
    {
      "midi": 71,
      "hit": false,
      "t": 122625,
      "d": 1867.1875,
      "v": 122
    },
    {
      "midi": 64,
      "hit": false,
      "t": 122625,
      "d": 1871.09375,
      "v": 119
    },
    {
      "midi": 57,
      "hit": false,
      "t": 123750,
      "d": 730.46875,
      "v": 110
    },
    {
      "midi": 59,
      "hit": false,
      "t": 124500,
      "d": 3000,
      "v": 122
    },
    {
      "midi": 64,
      "hit": false,
      "t": 124500,
      "d": 3000,
      "v": 105
    },
    {
      "midi": 66,
      "hit": false,
      "t": 124500,
      "d": 3000,
      "v": 110
    },
    {
      "midi": 71,
      "hit": false,
      "t": 125609.375,
      "d": 1890.625,
      "v": 119
    },
    {
      "midi": 64,
      "hit": false,
      "t": 127519.53125,
      "d": 1113.28125,
      "v": 110
    },
    {
      "midi": 55,
      "hit": false,
      "t": 127519.53125,
      "d": 2980.46875,
      "v": 110
    },
    {
      "midi": 59,
      "hit": false,
      "t": 127519.53125,
      "d": 2980.46875,
      "v": 105
    },
    {
      "midi": 63,
      "hit": false,
      "t": 129015.625,
      "d": 750,
      "v": 110
    },
    {
      "midi": 62,
      "hit": false,
      "t": 129750,
      "d": 757.8125,
      "v": 110
    },
    {
      "midi": 52,
      "hit": false,
      "t": 130500,
      "d": 617.1875,
      "v": 122
    },
    {
      "midi": 60,
      "hit": false,
      "t": 130500,
      "d": 707.03125,
      "v": 113
    },
    {
      "midi": 67,
      "hit": false,
      "t": 130500,
      "d": 730.46875,
      "v": 105
    },
    {
      "midi": 55,
      "hit": false,
      "t": 131625,
      "d": 257.8125,
      "v": 105
    },
    {
      "midi": 72,
      "hit": false,
      "t": 131625,
      "d": 292.96875,
      "v": 110
    },
    {
      "midi": 64,
      "hit": false,
      "t": 131625,
      "d": 300.78125,
      "v": 119
    },
    {
      "midi": 60,
      "hit": false,
      "t": 132375,
      "d": 128.90625,
      "v": 116
    },
    {
      "midi": 64,
      "hit": false,
      "t": 132500,
      "d": 125,
      "v": 102
    },
    {
      "midi": 67,
      "hit": false,
      "t": 132625,
      "d": 125,
      "v": 98
    },
    {
      "midi": 71,
      "hit": false,
      "t": 132750,
      "d": 250,
      "v": 116
    },
    {
      "midi": 69,
      "hit": false,
      "t": 133000,
      "d": 250,
      "v": 119
    },
    {
      "midi": 67,
      "hit": false,
      "t": 133250,
      "d": 250,
      "v": 122
    },
    {
      "midi": 54,
      "hit": false,
      "t": 133500,
      "d": 953.125,
      "v": 105
    },
    {
      "midi": 62,
      "hit": false,
      "t": 133500,
      "d": 1046.875,
      "v": 110
    },
    {
      "midi": 71,
      "hit": false,
      "t": 133500,
      "d": 1066.40625,
      "v": 107
    },
    {
      "midi": 66,
      "hit": false,
      "t": 135000,
      "d": 375,
      "v": 119
    },
    {
      "midi": 62,
      "hit": false,
      "t": 135000,
      "d": 750,
      "v": 110
    },
    {
      "midi": 59,
      "hit": false,
      "t": 135000,
      "d": 1500,
      "v": 102
    },
    {
      "midi": 67,
      "hit": false,
      "t": 135375,
      "d": 382.8125,
      "v": 100
    },
    {
      "midi": 66,
      "hit": false,
      "t": 135750,
      "d": 375,
      "v": 107
    },
    {
      "midi": 62,
      "hit": false,
      "t": 136125,
      "d": 375,
      "v": 107
    },
    {
      "midi": 55,
      "hit": false,
      "t": 136500,
      "d": 1488.28125,
      "v": 116
    },
    {
      "midi": 64,
      "hit": false,
      "t": 136500,
      "d": 1531.25,
      "v": 105
    },
    {
      "midi": 59,
      "hit": false,
      "t": 136500,
      "d": 2996.09375,
      "v": 107
    },
    {
      "midi": 66,
      "hit": false,
      "t": 138000,
      "d": 765.625,
      "v": 107
    },
    {
      "midi": 54,
      "hit": false,
      "t": 138000,
      "d": 785.15625,
      "v": 107
    },
    {
      "midi": 55,
      "hit": false,
      "t": 138750,
      "d": 742.1875,
      "v": 116
    },
    {
      "midi": 67,
      "hit": false,
      "t": 138750,
      "d": 750,
      "v": 107
    },
    {
      "midi": 71,
      "hit": false,
      "t": 139500,
      "d": 781.25,
      "v": 107
    },
    {
      "midi": 60,
      "hit": false,
      "t": 139500,
      "d": 2992.1875,
      "v": 110
    },
    {
      "midi": 64,
      "hit": false,
      "t": 139500,
      "d": 2992.1875,
      "v": 107
    },
    {
      "midi": 69,
      "hit": false,
      "t": 140250,
      "d": 750,
      "v": 113
    },
    {
      "midi": 67,
      "hit": false,
      "t": 141000,
      "d": 1511.71875,
      "v": 105
    },
    {
      "midi": 55,
      "hit": false,
      "t": 141750,
      "d": 750,
      "v": 113
    },
    {
      "midi": 64,
      "hit": false,
      "t": 142500,
      "d": 750,
      "v": 119
    },
    {
      "midi": 55,
      "hit": false,
      "t": 142500,
      "d": 765.625,
      "v": 110
    },
    {
      "midi": 60,
      "hit": false,
      "t": 142500,
      "d": 804.6875,
      "v": 113
    },
    {
      "midi": 55,
      "hit": false,
      "t": 143437.5,
      "d": 363.28125,
      "v": 110
    },
    {
      "midi": 60,
      "hit": false,
      "t": 143625,
      "d": 187.5,
      "v": 107
    },
    {
      "midi": 64,
      "hit": false,
      "t": 143812.5,
      "d": 58.59375,
      "v": 102
    },
    {
      "midi": 57,
      "hit": false,
      "t": 144000,
      "d": 207.03125,
      "v": 113
    },
    {
      "midi": 62,
      "hit": false,
      "t": 144000,
      "d": 222.65625,
      "v": 105
    },
    {
      "midi": 66,
      "hit": false,
      "t": 144000,
      "d": 230.46875,
      "v": 105
    },
    {
      "midi": 76,
      "hit": false,
      "t": 144750,
      "d": 207.03125,
      "v": 113
    },
    {
      "midi": 81,
      "hit": false,
      "t": 144750,
      "d": 238.28125,
      "v": 110
    },
    {
      "midi": 78,
      "hit": false,
      "t": 144937.5,
      "d": 195.3125,
      "v": 102
    },
    {
      "midi": 74,
      "hit": false,
      "t": 145125,
      "d": 152.34375,
      "v": 105
    },
    {
      "midi": 69,
      "hit": false,
      "t": 145312.5,
      "d": 179.6875,
      "v": 110
    },
    {
      "midi": 62,
      "hit": false,
      "t": 145500,
      "d": 214.84375,
      "v": 110
    },
    {
      "midi": 71,
      "hit": false,
      "t": 145500,
      "d": 617.1875,
      "v": 127
    },
    {
      "midi": 66,
      "hit": false,
      "t": 145687.5,
      "d": 421.875,
      "v": 105
    },
    {
      "midi": 62,
      "hit": false,
      "t": 145875,
      "d": 207.03125,
      "v": 122
    },
    {
      "midi": 66,
      "hit": false,
      "t": 146625,
      "d": 203.125,
      "v": 105
    },
    {
      "midi": 74,
      "hit": false,
      "t": 146625,
      "d": 636.71875,
      "v": 127
    },
    {
      "midi": 71,
      "hit": false,
      "t": 146812.5,
      "d": 441.40625,
      "v": 102
    },
    {
      "midi": 66,
      "hit": false,
      "t": 147000,
      "d": 234.375,
      "v": 122
    },
    {
      "midi": 71,
      "hit": false,
      "t": 147750,
      "d": 222.65625,
      "v": 110
    },
    {
      "midi": 78,
      "hit": false,
      "t": 147750,
      "d": 750,
      "v": 127
    },
    {
      "midi": 74,
      "hit": false,
      "t": 147937.5,
      "d": 558.59375,
      "v": 110
    },
    {
      "midi": 71,
      "hit": false,
      "t": 148125,
      "d": 363.28125,
      "v": 127
    },
    {
      "midi": 61,
      "hit": false,
      "t": 148500,
      "d": 187.5,
      "v": 116
    },
    {
      "midi": 59,
      "hit": false,
      "t": 148500,
      "d": 203.125,
      "v": 107
    },
    {
      "midi": 66,
      "hit": false,
      "t": 148500,
      "d": 207.03125,
      "v": 122
    },
    {
      "midi": 71,
      "hit": false,
      "t": 149062.5,
      "d": 285.15625,
      "v": 116
    },
    {
      "midi": 61,
      "hit": false,
      "t": 149062.5,
      "d": 316.40625,
      "v": 113
    },
    {
      "midi": 66,
      "hit": false,
      "t": 149062.5,
      "d": 316.40625,
      "v": 105
    },
    {
      "midi": 67,
      "hit": false,
      "t": 150000,
      "d": 406.25,
      "v": 122
    },
    {
      "midi": 59,
      "hit": false,
      "t": 150000,
      "d": 449.21875,
      "v": 110
    },
    {
      "midi": 76,
      "hit": false,
      "t": 150000,
      "d": 457.03125,
      "v": 105
    },
    {
      "midi": 59,
      "hit": false,
      "t": 150750,
      "d": 750,
      "v": 105
    },
    {
      "midi": 66,
      "hit": false,
      "t": 150750,
      "d": 750,
      "v": 122
    },
    {
      "midi": 75,
      "hit": false,
      "t": 150750,
      "d": 750,
      "v": 119
    },
    {
      "midi": 64,
      "hit": false,
      "t": 151500,
      "d": 1113.28125,
      "v": 110
    },
    {
      "midi": 55,
      "hit": false,
      "t": 151500,
      "d": 2980.46875,
      "v": 110
    },
    {
      "midi": 59,
      "hit": false,
      "t": 151500,
      "d": 2980.46875,
      "v": 105
    },
    {
      "midi": 63,
      "hit": false,
      "t": 153000,
      "d": 750,
      "v": 110
    },
    {
      "midi": 62,
      "hit": false,
      "t": 153750,
      "d": 757.8125,
      "v": 110
    },
    {
      "midi": 52,
      "hit": false,
      "t": 154500,
      "d": 617.1875,
      "v": 122
    },
    {
      "midi": 60,
      "hit": false,
      "t": 154500,
      "d": 707.03125,
      "v": 113
    },
    {
      "midi": 67,
      "hit": false,
      "t": 154500,
      "d": 730.46875,
      "v": 105
    },
    {
      "midi": 55,
      "hit": false,
      "t": 155625,
      "d": 257.8125,
      "v": 105
    },
    {
      "midi": 72,
      "hit": false,
      "t": 155625,
      "d": 292.96875,
      "v": 110
    },
    {
      "midi": 64,
      "hit": false,
      "t": 155625,
      "d": 300.78125,
      "v": 119
    },
    {
      "midi": 60,
      "hit": false,
      "t": 156375,
      "d": 128.90625,
      "v": 116
    },
    {
      "midi": 64,
      "hit": false,
      "t": 156500,
      "d": 125,
      "v": 102
    },
    {
      "midi": 67,
      "hit": false,
      "t": 156625,
      "d": 125,
      "v": 98
    },
    {
      "midi": 71,
      "hit": false,
      "t": 156750,
      "d": 250,
      "v": 116
    },
    {
      "midi": 69,
      "hit": false,
      "t": 157000,
      "d": 250,
      "v": 119
    },
    {
      "midi": 67,
      "hit": false,
      "t": 157250,
      "d": 250,
      "v": 122
    },
    {
      "midi": 54,
      "hit": false,
      "t": 157500,
      "d": 953.125,
      "v": 105
    },
    {
      "midi": 62,
      "hit": false,
      "t": 157500,
      "d": 1046.875,
      "v": 110
    },
    {
      "midi": 71,
      "hit": false,
      "t": 157500,
      "d": 1066.40625,
      "v": 107
    },
    {
      "midi": 66,
      "hit": false,
      "t": 159000,
      "d": 375,
      "v": 119
    },
    {
      "midi": 62,
      "hit": false,
      "t": 159000,
      "d": 750,
      "v": 110
    },
    {
      "midi": 59,
      "hit": false,
      "t": 159000,
      "d": 1500,
      "v": 102
    },
    {
      "midi": 67,
      "hit": false,
      "t": 159375,
      "d": 382.8125,
      "v": 100
    },
    {
      "midi": 66,
      "hit": false,
      "t": 159750,
      "d": 375,
      "v": 107
    },
    {
      "midi": 62,
      "hit": false,
      "t": 160125,
      "d": 375,
      "v": 107
    },
    {
      "midi": 55,
      "hit": false,
      "t": 160500,
      "d": 1488.28125,
      "v": 116
    },
    {
      "midi": 64,
      "hit": false,
      "t": 160500,
      "d": 1531.25,
      "v": 105
    },
    {
      "midi": 59,
      "hit": false,
      "t": 160500,
      "d": 2996.09375,
      "v": 107
    },
    {
      "midi": 66,
      "hit": false,
      "t": 162000,
      "d": 765.625,
      "v": 107
    },
    {
      "midi": 54,
      "hit": false,
      "t": 162000,
      "d": 785.15625,
      "v": 107
    },
    {
      "midi": 55,
      "hit": false,
      "t": 162750,
      "d": 742.1875,
      "v": 116
    },
    {
      "midi": 67,
      "hit": false,
      "t": 162750,
      "d": 750,
      "v": 107
    },
    {
      "midi": 71,
      "hit": false,
      "t": 163500,
      "d": 781.25,
      "v": 107
    },
    {
      "midi": 60,
      "hit": false,
      "t": 163500,
      "d": 2992.1875,
      "v": 110
    },
    {
      "midi": 64,
      "hit": false,
      "t": 163500,
      "d": 2992.1875,
      "v": 107
    },
    {
      "midi": 69,
      "hit": false,
      "t": 164250,
      "d": 750,
      "v": 113
    },
    {
      "midi": 67,
      "hit": false,
      "t": 165000,
      "d": 1511.71875,
      "v": 105
    },
    {
      "midi": 55,
      "hit": false,
      "t": 165750,
      "d": 750,
      "v": 113
    },
    {
      "midi": 64,
      "hit": false,
      "t": 166500,
      "d": 750,
      "v": 119
    },
    {
      "midi": 55,
      "hit": false,
      "t": 166500,
      "d": 765.625,
      "v": 110
    },
    {
      "midi": 60,
      "hit": false,
      "t": 166500,
      "d": 804.6875,
      "v": 113
    },
    {
      "midi": 55,
      "hit": false,
      "t": 167437.5,
      "d": 363.28125,
      "v": 110
    },
    {
      "midi": 60,
      "hit": false,
      "t": 167625,
      "d": 187.5,
      "v": 107
    },
    {
      "midi": 64,
      "hit": false,
      "t": 167812.5,
      "d": 58.59375,
      "v": 102
    },
    {
      "midi": 57,
      "hit": false,
      "t": 168000,
      "d": 207.03125,
      "v": 113
    },
    {
      "midi": 62,
      "hit": false,
      "t": 168000,
      "d": 222.65625,
      "v": 105
    },
    {
      "midi": 66,
      "hit": false,
      "t": 168000,
      "d": 230.46875,
      "v": 105
    },
    {
      "midi": 76,
      "hit": false,
      "t": 168750,
      "d": 207.03125,
      "v": 113
    },
    {
      "midi": 81,
      "hit": false,
      "t": 168750,
      "d": 238.28125,
      "v": 110
    },
    {
      "midi": 78,
      "hit": false,
      "t": 168937.5,
      "d": 195.3125,
      "v": 102
    },
    {
      "midi": 74,
      "hit": false,
      "t": 169125,
      "d": 152.34375,
      "v": 105
    },
    {
      "midi": 69,
      "hit": false,
      "t": 169312.5,
      "d": 179.6875,
      "v": 110
    },
    {
      "midi": 62,
      "hit": false,
      "t": 169500,
      "d": 285.15625,
      "v": 105
    },
    {
      "midi": 66,
      "hit": false,
      "t": 169500,
      "d": 296.875,
      "v": 105
    },
    {
      "midi": 71,
      "hit": false,
      "t": 169500,
      "d": 324.21875,
      "v": 116
    },
    {
      "midi": 95,
      "hit": false,
      "t": 169687.5,
      "d": 70.3125,
      "v": 89
    },
    {
      "midi": 96,
      "hit": false,
      "t": 169781.25,
      "d": 144.53125,
      "v": 95
    },
    {
      "midi": 95,
      "hit": false,
      "t": 169875,
      "d": 210.9375,
      "v": 82
    },
    {
      "midi": 93,
      "hit": false,
      "t": 170062.5,
      "d": 144.53125,
      "v": 110
    },
    {
      "midi": 95,
      "hit": false,
      "t": 170250,
      "d": 917.96875,
      "v": 107
    },
    {
      "midi": 91,
      "hit": false,
      "t": 170437.5,
      "d": 222.65625,
      "v": 85
    },
    {
      "midi": 90,
      "hit": false,
      "t": 170625,
      "d": 250,
      "v": 80
    },
    {
      "midi": 86,
      "hit": false,
      "t": 170812.5,
      "d": 207.03125,
      "v": 85
    },
    {
      "midi": 81,
      "hit": false,
      "t": 171000,
      "d": 164.0625,
      "v": 102
    },
    {
      "midi": 79,
      "hit": false,
      "t": 171187.5,
      "d": 195.3125,
      "v": 113
    },
    {
      "midi": 91,
      "hit": false,
      "t": 171187.5,
      "d": 199.21875,
      "v": 116
    },
    {
      "midi": 78,
      "hit": false,
      "t": 171375,
      "d": 210.9375,
      "v": 107
    },
    {
      "midi": 86,
      "hit": false,
      "t": 171375,
      "d": 515.625,
      "v": 116
    },
    {
      "midi": 74,
      "hit": false,
      "t": 171562.5,
      "d": 167.96875,
      "v": 105
    },
    {
      "midi": 69,
      "hit": false,
      "t": 171750,
      "d": 164.0625,
      "v": 105
    },
    {
      "midi": 98,
      "hit": false,
      "t": 171937.5,
      "d": 156.25,
      "v": 127
    },
    {
      "midi": 67,
      "hit": false,
      "t": 171937.5,
      "d": 210.9375,
      "v": 119
    },
    {
      "midi": 66,
      "hit": false,
      "t": 172125,
      "d": 207.03125,
      "v": 110
    },
    {
      "midi": 86,
      "hit": false,
      "t": 172125,
      "d": 367.1875,
      "v": 110
    },
    {
      "midi": 65,
      "hit": false,
      "t": 172312.5,
      "d": 144.53125,
      "v": 107
    },
    {
      "midi": 56,
      "hit": false,
      "t": 172500,
      "d": 347.65625,
      "v": 127
    },
    {
      "midi": 64,
      "hit": false,
      "t": 172500,
      "d": 472.65625,
      "v": 127
    },
    {
      "midi": 59,
      "hit": false,
      "t": 172500,
      "d": 488.28125,
      "v": 127
    },
    {
      "midi": 92,
      "hit": false,
      "t": 172875,
      "d": 171.875,
      "v": 107
    },
    {
      "midi": 88,
      "hit": false,
      "t": 173062.5,
      "d": 183.59375,
      "v": 116
    },
    {
      "midi": 56,
      "hit": false,
      "t": 173062.5,
      "d": 214.84375,
      "v": 127
    },
    {
      "midi": 83,
      "hit": false,
      "t": 173250,
      "d": 132.8125,
      "v": 127
    },
    {
      "midi": 59,
      "hit": false,
      "t": 173250,
      "d": 210.9375,
      "v": 116
    },
    {
      "midi": 64,
      "hit": false,
      "t": 173437.5,
      "d": 160.15625,
      "v": 111
    },
    {
      "midi": 88,
      "hit": false,
      "t": 173625,
      "d": 148.4375,
      "v": 116
    },
    {
      "midi": 68,
      "hit": false,
      "t": 173625,
      "d": 187.5,
      "v": 116
    },
    {
      "midi": 83,
      "hit": false,
      "t": 173812.5,
      "d": 195.3125,
      "v": 110
    },
    {
      "midi": 59,
      "hit": false,
      "t": 173812.5,
      "d": 230.46875,
      "v": 127
    },
    {
      "midi": 64,
      "hit": false,
      "t": 174000,
      "d": 132.8125,
      "v": 106
    },
    {
      "midi": 80,
      "hit": false,
      "t": 174000,
      "d": 187.5,
      "v": 113
    },
    {
      "midi": 68,
      "hit": false,
      "t": 174187.5,
      "d": 140.625,
      "v": 113
    },
    {
      "midi": 83,
      "hit": false,
      "t": 174375,
      "d": 144.53125,
      "v": 122
    },
    {
      "midi": 71,
      "hit": false,
      "t": 174375,
      "d": 253.90625,
      "v": 125
    },
    {
      "midi": 80,
      "hit": false,
      "t": 174562.5,
      "d": 140.625,
      "v": 116
    },
    {
      "midi": 64,
      "hit": false,
      "t": 174562.5,
      "d": 183.59375,
      "v": 127
    },
    {
      "midi": 76,
      "hit": false,
      "t": 174750,
      "d": 160.15625,
      "v": 127
    },
    {
      "midi": 68,
      "hit": false,
      "t": 174750,
      "d": 218.75,
      "v": 127
    },
    {
      "midi": 71,
      "hit": false,
      "t": 174937.5,
      "d": 179.6875,
      "v": 113
    },
    {
      "midi": 76,
      "hit": false,
      "t": 175125,
      "d": 234.375,
      "v": 125
    },
    {
      "midi": 75,
      "hit": false,
      "t": 175312.5,
      "d": 183.59375,
      "v": 119
    },
    {
      "midi": 60,
      "hit": false,
      "t": 175500,
      "d": 808.59375,
      "v": 127
    },
    {
      "midi": 71,
      "hit": false,
      "t": 175500,
      "d": 808.59375,
      "v": 119
    },
    {
      "midi": 64,
      "hit": false,
      "t": 175500,
      "d": 843.75,
      "v": 127
    },
    {
      "midi": 60,
      "hit": false,
      "t": 176437.5,
      "d": 406.25,
      "v": 122
    },
    {
      "midi": 64,
      "hit": false,
      "t": 176625,
      "d": 214.84375,
      "v": 116
    },
    {
      "midi": 71,
      "hit": false,
      "t": 176812.5,
      "d": 66.40625,
      "v": 102
    },
    {
      "midi": 60,
      "hit": false,
      "t": 177000,
      "d": 1500,
      "v": 122
    },
    {
      "midi": 64,
      "hit": false,
      "t": 177000,
      "d": 1500,
      "v": 122
    },
    {
      "midi": 69,
      "hit": false,
      "t": 177000,
      "d": 1500,
      "v": 119
    },
    {
      "midi": 64,
      "hit": false,
      "t": 178500,
      "d": 738.28125,
      "v": 122
    },
    {
      "midi": 55,
      "hit": false,
      "t": 178500,
      "d": 753.90625,
      "v": 119
    },
    {
      "midi": 60,
      "hit": false,
      "t": 178500,
      "d": 789.0625,
      "v": 119
    },
    {
      "midi": 55,
      "hit": false,
      "t": 179437.5,
      "d": 355.46875,
      "v": 122
    },
    {
      "midi": 60,
      "hit": false,
      "t": 179625,
      "d": 183.59375,
      "v": 113
    },
    {
      "midi": 64,
      "hit": false,
      "t": 179812.5,
      "d": 58.59375,
      "v": 102
    },
    {
      "midi": 57,
      "hit": false,
      "t": 180000,
      "d": 335.9375,
      "v": 116
    },
    {
      "midi": 62,
      "hit": false,
      "t": 180000,
      "d": 355.46875,
      "v": 107
    },
    {
      "midi": 66,
      "hit": false,
      "t": 180000,
      "d": 355.46875,
      "v": 122
    },
    {
      "midi": 69,
      "hit": false,
      "t": 180750,
      "d": 242.1875,
      "v": 116
    },
    {
      "midi": 64,
      "hit": false,
      "t": 180750,
      "d": 250,
      "v": 113
    },
    {
      "midi": 66,
      "hit": false,
      "t": 180937.5,
      "d": 191.40625,
      "v": 105
    },
    {
      "midi": 62,
      "hit": false,
      "t": 181125,
      "d": 175.78125,
      "v": 122
    },
    {
      "midi": 57,
      "hit": false,
      "t": 181312.5,
      "d": 171.875,
      "v": 113
    },
    {
      "midi": 62,
      "hit": false,
      "t": 181500,
      "d": 851.5625,
      "v": 122
    },
    {
      "midi": 72,
      "hit": false,
      "t": 181500,
      "d": 863.28125,
      "v": 127
    },
    {
      "midi": 55,
      "hit": false,
      "t": 181500,
      "d": 937.5,
      "v": 116
    },
    {
      "midi": 54,
      "hit": false,
      "t": 182625,
      "d": 562.5,
      "v": 111
    },
    {
      "midi": 62,
      "hit": false,
      "t": 182625,
      "d": 660.15625,
      "v": 110
    },
    {
      "midi": 71,
      "hit": false,
      "t": 182625,
      "d": 695.3125,
      "v": 127
    },
    {
      "midi": 67,
      "hit": false,
      "t": 183375,
      "d": 367.1875,
      "v": 127
    },
    {
      "midi": 55,
      "hit": false,
      "t": 183375,
      "d": 375,
      "v": 111
    },
    {
      "midi": 54,
      "hit": false,
      "t": 183750,
      "d": 375,
      "v": 111
    },
    {
      "midi": 66,
      "hit": false,
      "t": 183750,
      "d": 410.15625,
      "v": 116
    },
    {
      "midi": 50,
      "hit": false,
      "t": 184125,
      "d": 375,
      "v": 111
    },
    {
      "midi": 62,
      "hit": false,
      "t": 184125,
      "d": 375,
      "v": 116
    },
    {
      "midi": 55,
      "hit": false,
      "t": 184500,
      "d": 1488.28125,
      "v": 116
    },
    {
      "midi": 64,
      "hit": false,
      "t": 184500,
      "d": 1531.25,
      "v": 105
    },
    {
      "midi": 59,
      "hit": false,
      "t": 184500,
      "d": 2996.09375,
      "v": 107
    },
    {
      "midi": 66,
      "hit": false,
      "t": 186000,
      "d": 765.625,
      "v": 107
    },
    {
      "midi": 54,
      "hit": false,
      "t": 186000,
      "d": 785.15625,
      "v": 107
    },
    {
      "midi": 55,
      "hit": false,
      "t": 186750,
      "d": 742.1875,
      "v": 116
    },
    {
      "midi": 67,
      "hit": false,
      "t": 186750,
      "d": 750,
      "v": 107
    },
    {
      "midi": 59,
      "hit": false,
      "t": 187500,
      "d": 769.53125,
      "v": 107
    },
    {
      "midi": 57,
      "hit": false,
      "t": 187500,
      "d": 1058.59375,
      "v": 110
    },
    {
      "midi": 52,
      "hit": false,
      "t": 187500,
      "d": 1117.1875,
      "v": 110
    },
    {
      "midi": 61,
      "hit": false,
      "t": 188250,
      "d": 339.84375,
      "v": 116
    },
    {
      "midi": 71,
      "hit": false,
      "t": 189000,
      "d": 796.875,
      "v": 110
    },
    {
      "midi": 61,
      "hit": false,
      "t": 189000,
      "d": 1500,
      "v": 113
    },
    {
      "midi": 64,
      "hit": false,
      "t": 189000,
      "d": 1500,
      "v": 110
    },
    {
      "midi": 69,
      "hit": false,
      "t": 189750,
      "d": 750,
      "v": 113
    },
    {
      "midi": 57,
      "hit": false,
      "t": 190500,
      "d": 585.9375,
      "v": 113
    },
    {
      "midi": 64,
      "hit": false,
      "t": 190500,
      "d": 585.9375,
      "v": 116
    },
    {
      "midi": 59,
      "hit": false,
      "t": 190500,
      "d": 601.5625,
      "v": 116
    },
    {
      "midi": 57,
      "hit": false,
      "t": 191437.5,
      "d": 367.1875,
      "v": 113
    },
    {
      "midi": 59,
      "hit": false,
      "t": 191625,
      "d": 218.75,
      "v": 102
    },
    {
      "midi": 64,
      "hit": false,
      "t": 191812.5,
      "d": 74.21875,
      "v": 91
    },
    {
      "midi": 54,
      "hit": false,
      "t": 192000,
      "d": 230.46875,
      "v": 110
    },
    {
      "midi": 63,
      "hit": false,
      "t": 192187.5,
      "d": 246.09375,
      "v": 110
    },
    {
      "midi": 71,
      "hit": false,
      "t": 192375,
      "d": 257.8125,
      "v": 105
    },
    {
      "midi": 59,
      "hit": false,
      "t": 192562.5,
      "d": 562.5,
      "v": 105
    },
    {
      "midi": 66,
      "hit": false,
      "t": 192562.5,
      "d": 562.5,
      "v": 113
    },
    {
      "midi": 75,
      "hit": false,
      "t": 192562.5,
      "d": 562.5,
      "v": 110
    },
    {
      "midi": 63,
      "hit": false,
      "t": 193125,
      "d": 375,
      "v": 113
    },
    {
      "midi": 71,
      "hit": false,
      "t": 193125,
      "d": 375,
      "v": 122
    },
    {
      "midi": 78,
      "hit": false,
      "t": 193125,
      "d": 375,
      "v": 110
    },
    {
      "midi": 55,
      "hit": false,
      "t": 193500,
      "d": 675.78125,
      "v": 122
    },
    {
      "midi": 59,
      "hit": false,
      "t": 193500,
      "d": 707.03125,
      "v": 119
    },
    {
      "midi": 64,
      "hit": false,
      "t": 193500,
      "d": 714.84375,
      "v": 127
    },
    {
      "midi": 67,
      "hit": false,
      "t": 195000,
      "d": 789.0625,
      "v": 122
    },
    {
      "midi": 64,
      "hit": false,
      "t": 195000,
      "d": 1230.46875,
      "v": 119
    },
    {
      "midi": 59,
      "hit": false,
      "t": 195000,
      "d": 1242.1875,
      "v": 113
    },
    {
      "midi": 66,
      "hit": false,
      "t": 195750,
      "d": 480.46875,
      "v": 119
    },
    {
      "midi": 59,
      "hit": false,
      "t": 196500,
      "d": 886.71875,
      "v": 110
    },
    {
      "midi": 64,
      "hit": false,
      "t": 196500,
      "d": 917.96875,
      "v": 116
    },
    {
      "midi": 68,
      "hit": false,
      "t": 196500,
      "d": 917.96875,
      "v": 122
    },
    {
      "midi": 64,
      "hit": false,
      "t": 198000,
      "d": 324.21875,
      "v": 119
    },
    {
      "midi": 67,
      "hit": false,
      "t": 198000,
      "d": 351.5625,
      "v": 113
    },
    {
      "midi": 70,
      "hit": false,
      "t": 198000,
      "d": 363.28125,
      "v": 119
    },
    {
      "midi": 62,
      "hit": false,
      "t": 198750,
      "d": 750,
      "v": 119
    },
    {
      "midi": 68,
      "hit": false,
      "t": 198750,
      "d": 750,
      "v": 116
    },
    {
      "midi": 71,
      "hit": false,
      "t": 198750,
      "d": 750,
      "v": 127
    },
    {
      "midi": 60,
      "hit": false,
      "t": 199500,
      "d": 808.59375,
      "v": 127
    },
    {
      "midi": 71,
      "hit": false,
      "t": 199500,
      "d": 808.59375,
      "v": 119
    },
    {
      "midi": 64,
      "hit": false,
      "t": 199500,
      "d": 843.75,
      "v": 127
    },
    {
      "midi": 60,
      "hit": false,
      "t": 200437.5,
      "d": 406.25,
      "v": 122
    },
    {
      "midi": 64,
      "hit": false,
      "t": 200625,
      "d": 214.84375,
      "v": 116
    },
    {
      "midi": 71,
      "hit": false,
      "t": 200812.5,
      "d": 66.40625,
      "v": 102
    },
    {
      "midi": 60,
      "hit": false,
      "t": 201000,
      "d": 1500,
      "v": 122
    },
    {
      "midi": 64,
      "hit": false,
      "t": 201000,
      "d": 1500,
      "v": 122
    },
    {
      "midi": 69,
      "hit": false,
      "t": 201000,
      "d": 1500,
      "v": 119
    },
    {
      "midi": 64,
      "hit": false,
      "t": 202500,
      "d": 738.28125,
      "v": 122
    },
    {
      "midi": 55,
      "hit": false,
      "t": 202500,
      "d": 753.90625,
      "v": 119
    },
    {
      "midi": 60,
      "hit": false,
      "t": 202500,
      "d": 789.0625,
      "v": 119
    },
    {
      "midi": 55,
      "hit": false,
      "t": 203437.5,
      "d": 355.46875,
      "v": 122
    },
    {
      "midi": 60,
      "hit": false,
      "t": 203625,
      "d": 183.59375,
      "v": 113
    },
    {
      "midi": 64,
      "hit": false,
      "t": 203812.5,
      "d": 58.59375,
      "v": 102
    },
    {
      "midi": 57,
      "hit": false,
      "t": 204000,
      "d": 335.9375,
      "v": 116
    },
    {
      "midi": 62,
      "hit": false,
      "t": 204000,
      "d": 355.46875,
      "v": 107
    },
    {
      "midi": 66,
      "hit": false,
      "t": 204000,
      "d": 355.46875,
      "v": 122
    },
    {
      "midi": 69,
      "hit": false,
      "t": 204750,
      "d": 242.1875,
      "v": 116
    },
    {
      "midi": 64,
      "hit": false,
      "t": 204750,
      "d": 250,
      "v": 113
    },
    {
      "midi": 66,
      "hit": false,
      "t": 204937.5,
      "d": 191.40625,
      "v": 105
    },
    {
      "midi": 62,
      "hit": false,
      "t": 205125,
      "d": 175.78125,
      "v": 122
    },
    {
      "midi": 57,
      "hit": false,
      "t": 205312.5,
      "d": 171.875,
      "v": 113
    },
    {
      "midi": 55,
      "hit": false,
      "t": 205500,
      "d": 847.65625,
      "v": 116
    },
    {
      "midi": 62,
      "hit": false,
      "t": 205500,
      "d": 851.5625,
      "v": 122
    },
    {
      "midi": 72,
      "hit": false,
      "t": 205500,
      "d": 863.28125,
      "v": 127
    },
    {
      "midi": 66,
      "hit": false,
      "t": 206625,
      "d": 660.15625,
      "v": 110
    },
    {
      "midi": 74,
      "hit": false,
      "t": 206625,
      "d": 695.3125,
      "v": 127
    },
    {
      "midi": 59,
      "hit": false,
      "t": 206625,
      "d": 699.21875,
      "v": 107
    },
    {
      "midi": 67,
      "hit": false,
      "t": 207375,
      "d": 367.1875,
      "v": 127
    },
    {
      "midi": 55,
      "hit": false,
      "t": 207375,
      "d": 375,
      "v": 111
    },
    {
      "midi": 54,
      "hit": false,
      "t": 207750,
      "d": 375,
      "v": 111
    },
    {
      "midi": 66,
      "hit": false,
      "t": 207750,
      "d": 410.15625,
      "v": 116
    },
    {
      "midi": 50,
      "hit": false,
      "t": 208125,
      "d": 375,
      "v": 111
    },
    {
      "midi": 62,
      "hit": false,
      "t": 208125,
      "d": 375,
      "v": 116
    },
    {
      "midi": 55,
      "hit": false,
      "t": 208500,
      "d": 1488.28125,
      "v": 116
    },
    {
      "midi": 64,
      "hit": false,
      "t": 208500,
      "d": 1531.25,
      "v": 105
    },
    {
      "midi": 59,
      "hit": false,
      "t": 208500,
      "d": 2996.09375,
      "v": 107
    },
    {
      "midi": 66,
      "hit": false,
      "t": 210000,
      "d": 765.625,
      "v": 107
    },
    {
      "midi": 54,
      "hit": false,
      "t": 210000,
      "d": 785.15625,
      "v": 107
    },
    {
      "midi": 55,
      "hit": false,
      "t": 210750,
      "d": 742.1875,
      "v": 116
    },
    {
      "midi": 67,
      "hit": false,
      "t": 210750,
      "d": 750,
      "v": 107
    },
    {
      "midi": 71,
      "hit": false,
      "t": 211500,
      "d": 781.25,
      "v": 107
    },
    {
      "midi": 60,
      "hit": false,
      "t": 211500,
      "d": 2992.1875,
      "v": 110
    },
    {
      "midi": 64,
      "hit": false,
      "t": 211500,
      "d": 2992.1875,
      "v": 107
    },
    {
      "midi": 69,
      "hit": false,
      "t": 212250,
      "d": 750,
      "v": 113
    },
    {
      "midi": 67,
      "hit": false,
      "t": 213000,
      "d": 1500,
      "v": 105
    },
    {
      "midi": 55,
      "hit": false,
      "t": 213750,
      "d": 750,
      "v": 113
    },
    {
      "midi": 57,
      "hit": false,
      "t": 214500,
      "d": 585.9375,
      "v": 113
    },
    {
      "midi": 64,
      "hit": false,
      "t": 214500,
      "d": 585.9375,
      "v": 116
    },
    {
      "midi": 59,
      "hit": false,
      "t": 214500,
      "d": 601.5625,
      "v": 116
    },
    {
      "midi": 57,
      "hit": false,
      "t": 215437.5,
      "d": 367.1875,
      "v": 113
    },
    {
      "midi": 59,
      "hit": false,
      "t": 215625,
      "d": 218.75,
      "v": 102
    },
    {
      "midi": 64,
      "hit": false,
      "t": 215812.5,
      "d": 74.21875,
      "v": 91
    },
    {
      "midi": 54,
      "hit": false,
      "t": 216000,
      "d": 230.46875,
      "v": 110
    },
    {
      "midi": 63,
      "hit": false,
      "t": 216187.5,
      "d": 246.09375,
      "v": 110
    },
    {
      "midi": 71,
      "hit": false,
      "t": 216375,
      "d": 257.8125,
      "v": 105
    },
    {
      "midi": 59,
      "hit": false,
      "t": 216562.5,
      "d": 562.5,
      "v": 105
    },
    {
      "midi": 66,
      "hit": false,
      "t": 216562.5,
      "d": 562.5,
      "v": 113
    },
    {
      "midi": 75,
      "hit": false,
      "t": 216562.5,
      "d": 562.5,
      "v": 110
    },
    {
      "midi": 63,
      "hit": false,
      "t": 217125,
      "d": 375,
      "v": 113
    },
    {
      "midi": 71,
      "hit": false,
      "t": 217125,
      "d": 375,
      "v": 122
    },
    {
      "midi": 78,
      "hit": false,
      "t": 217125,
      "d": 375,
      "v": 110
    },
    {
      "midi": 67,
      "hit": false,
      "t": 217500,
      "d": 679.6875,
      "v": 119
    },
    {
      "midi": 59,
      "hit": false,
      "t": 217500,
      "d": 714.84375,
      "v": 119
    },
    {
      "midi": 52,
      "hit": false,
      "t": 217500,
      "d": 722.65625,
      "v": 122
    },
    {
      "midi": 55,
      "hit": false,
      "t": 218625,
      "d": 914.0625,
      "v": 127
    },
    {
      "midi": 71,
      "hit": false,
      "t": 218625,
      "d": 1867.1875,
      "v": 122
    },
    {
      "midi": 64,
      "hit": false,
      "t": 218625,
      "d": 1871.09375,
      "v": 119
    },
    {
      "midi": 57,
      "hit": false,
      "t": 219750,
      "d": 730.46875,
      "v": 110
    },
    {
      "midi": 59,
      "hit": false,
      "t": 220500,
      "d": 3000,
      "v": 122
    },
    {
      "midi": 64,
      "hit": false,
      "t": 220500,
      "d": 3000,
      "v": 105
    },
    {
      "midi": 66,
      "hit": false,
      "t": 220500,
      "d": 3000,
      "v": 110
    },
    {
      "midi": 71,
      "hit": false,
      "t": 221609.375,
      "d": 1890.625,
      "v": 119
    },
    {
      "midi": 64,
      "hit": false,
      "t": 223519.53125,
      "d": 1113.28125,
      "v": 110
    },
    {
      "midi": 55,
      "hit": false,
      "t": 223519.53125,
      "d": 2980.46875,
      "v": 110
    },
    {
      "midi": 59,
      "hit": false,
      "t": 223519.53125,
      "d": 2980.46875,
      "v": 105
    },
    {
      "midi": 63,
      "hit": false,
      "t": 225015.625,
      "d": 750,
      "v": 110
    },
    {
      "midi": 62,
      "hit": false,
      "t": 225750,
      "d": 757.8125,
      "v": 110
    },
    {
      "midi": 52,
      "hit": false,
      "t": 226500,
      "d": 617.1875,
      "v": 122
    },
    {
      "midi": 60,
      "hit": false,
      "t": 226500,
      "d": 707.03125,
      "v": 113
    },
    {
      "midi": 67,
      "hit": false,
      "t": 226500,
      "d": 730.46875,
      "v": 105
    },
    {
      "midi": 55,
      "hit": false,
      "t": 227625,
      "d": 257.8125,
      "v": 105
    },
    {
      "midi": 72,
      "hit": false,
      "t": 227625,
      "d": 292.96875,
      "v": 110
    },
    {
      "midi": 64,
      "hit": false,
      "t": 227625,
      "d": 300.78125,
      "v": 119
    },
    {
      "midi": 60,
      "hit": false,
      "t": 228375,
      "d": 128.90625,
      "v": 116
    },
    {
      "midi": 64,
      "hit": false,
      "t": 228500,
      "d": 125,
      "v": 102
    },
    {
      "midi": 67,
      "hit": false,
      "t": 228625,
      "d": 125,
      "v": 98
    },
    {
      "midi": 71,
      "hit": false,
      "t": 228750,
      "d": 250,
      "v": 116
    },
    {
      "midi": 69,
      "hit": false,
      "t": 229000,
      "d": 250,
      "v": 119
    },
    {
      "midi": 67,
      "hit": false,
      "t": 229250,
      "d": 250,
      "v": 122
    },
    {
      "midi": 54,
      "hit": false,
      "t": 229500,
      "d": 953.125,
      "v": 105
    },
    {
      "midi": 62,
      "hit": false,
      "t": 229500,
      "d": 1046.875,
      "v": 110
    },
    {
      "midi": 71,
      "hit": false,
      "t": 229500,
      "d": 1066.40625,
      "v": 107
    },
    {
      "midi": 66,
      "hit": false,
      "t": 231000,
      "d": 375,
      "v": 119
    },
    {
      "midi": 62,
      "hit": false,
      "t": 231000,
      "d": 750,
      "v": 110
    },
    {
      "midi": 59,
      "hit": false,
      "t": 231000,
      "d": 1500,
      "v": 102
    },
    {
      "midi": 67,
      "hit": false,
      "t": 231375,
      "d": 382.8125,
      "v": 100
    },
    {
      "midi": 66,
      "hit": false,
      "t": 231750,
      "d": 375,
      "v": 107
    },
    {
      "midi": 62,
      "hit": false,
      "t": 232125,
      "d": 375,
      "v": 107
    },
    {
      "midi": 55,
      "hit": false,
      "t": 232500,
      "d": 1488.28125,
      "v": 116
    },
    {
      "midi": 64,
      "hit": false,
      "t": 232500,
      "d": 1531.25,
      "v": 105
    },
    {
      "midi": 59,
      "hit": false,
      "t": 232500,
      "d": 2996.09375,
      "v": 107
    },
    {
      "midi": 66,
      "hit": false,
      "t": 234000,
      "d": 765.625,
      "v": 107
    },
    {
      "midi": 54,
      "hit": false,
      "t": 234000,
      "d": 785.15625,
      "v": 107
    },
    {
      "midi": 55,
      "hit": false,
      "t": 234750,
      "d": 742.1875,
      "v": 116
    },
    {
      "midi": 67,
      "hit": false,
      "t": 234750,
      "d": 750,
      "v": 107
    },
    {
      "midi": 71,
      "hit": false,
      "t": 235500,
      "d": 781.25,
      "v": 107
    },
    {
      "midi": 60,
      "hit": false,
      "t": 235500,
      "d": 2992.1875,
      "v": 110
    },
    {
      "midi": 64,
      "hit": false,
      "t": 235500,
      "d": 2992.1875,
      "v": 107
    },
    {
      "midi": 69,
      "hit": false,
      "t": 236250,
      "d": 750,
      "v": 113
    },
    {
      "midi": 67,
      "hit": false,
      "t": 237000,
      "d": 1511.71875,
      "v": 105
    },
    {
      "midi": 55,
      "hit": false,
      "t": 237750,
      "d": 750,
      "v": 113
    },
    {
      "midi": 64,
      "hit": false,
      "t": 238500,
      "d": 750,
      "v": 119
    },
    {
      "midi": 55,
      "hit": false,
      "t": 238500,
      "d": 765.625,
      "v": 110
    },
    {
      "midi": 60,
      "hit": false,
      "t": 238500,
      "d": 804.6875,
      "v": 113
    },
    {
      "midi": 55,
      "hit": false,
      "t": 239437.5,
      "d": 363.28125,
      "v": 110
    },
    {
      "midi": 60,
      "hit": false,
      "t": 239625,
      "d": 187.5,
      "v": 107
    },
    {
      "midi": 64,
      "hit": false,
      "t": 239812.5,
      "d": 58.59375,
      "v": 102
    },
    {
      "midi": 57,
      "hit": false,
      "t": 240000,
      "d": 207.03125,
      "v": 113
    },
    {
      "midi": 62,
      "hit": false,
      "t": 240000,
      "d": 222.65625,
      "v": 105
    },
    {
      "midi": 66,
      "hit": false,
      "t": 240000,
      "d": 230.46875,
      "v": 105
    },
    {
      "midi": 76,
      "hit": false,
      "t": 240750,
      "d": 207.03125,
      "v": 113
    },
    {
      "midi": 81,
      "hit": false,
      "t": 240750,
      "d": 238.28125,
      "v": 110
    },
    {
      "midi": 78,
      "hit": false,
      "t": 240937.5,
      "d": 195.3125,
      "v": 102
    },
    {
      "midi": 74,
      "hit": false,
      "t": 241125,
      "d": 152.34375,
      "v": 105
    },
    {
      "midi": 69,
      "hit": false,
      "t": 241312.5,
      "d": 179.6875,
      "v": 110
    },
    {
      "midi": 62,
      "hit": false,
      "t": 241500,
      "d": 214.84375,
      "v": 110
    },
    {
      "midi": 71,
      "hit": false,
      "t": 241500,
      "d": 617.1875,
      "v": 127
    },
    {
      "midi": 66,
      "hit": false,
      "t": 241687.5,
      "d": 421.875,
      "v": 105
    },
    {
      "midi": 62,
      "hit": false,
      "t": 241875,
      "d": 207.03125,
      "v": 122
    },
    {
      "midi": 66,
      "hit": false,
      "t": 242625,
      "d": 203.125,
      "v": 105
    },
    {
      "midi": 74,
      "hit": false,
      "t": 242625,
      "d": 636.71875,
      "v": 127
    },
    {
      "midi": 71,
      "hit": false,
      "t": 242812.5,
      "d": 441.40625,
      "v": 102
    },
    {
      "midi": 66,
      "hit": false,
      "t": 243000,
      "d": 234.375,
      "v": 122
    },
    {
      "midi": 71,
      "hit": false,
      "t": 243750,
      "d": 222.65625,
      "v": 110
    },
    {
      "midi": 78,
      "hit": false,
      "t": 243750,
      "d": 750,
      "v": 127
    },
    {
      "midi": 74,
      "hit": false,
      "t": 243937.5,
      "d": 558.59375,
      "v": 110
    },
    {
      "midi": 71,
      "hit": false,
      "t": 244125,
      "d": 363.28125,
      "v": 127
    },
    {
      "midi": 61,
      "hit": false,
      "t": 244500,
      "d": 187.5,
      "v": 116
    },
    {
      "midi": 59,
      "hit": false,
      "t": 244500,
      "d": 203.125,
      "v": 107
    },
    {
      "midi": 66,
      "hit": false,
      "t": 244500,
      "d": 207.03125,
      "v": 122
    },
    {
      "midi": 71,
      "hit": false,
      "t": 245062.5,
      "d": 285.15625,
      "v": 116
    },
    {
      "midi": 61,
      "hit": false,
      "t": 245062.5,
      "d": 316.40625,
      "v": 113
    },
    {
      "midi": 66,
      "hit": false,
      "t": 245062.5,
      "d": 316.40625,
      "v": 105
    },
    {
      "midi": 67,
      "hit": false,
      "t": 246000,
      "d": 406.25,
      "v": 122
    },
    {
      "midi": 59,
      "hit": false,
      "t": 246000,
      "d": 449.21875,
      "v": 110
    },
    {
      "midi": 76,
      "hit": false,
      "t": 246000,
      "d": 457.03125,
      "v": 105
    },
    {
      "midi": 59,
      "hit": false,
      "t": 246750,
      "d": 750,
      "v": 105
    },
    {
      "midi": 66,
      "hit": false,
      "t": 246750,
      "d": 750,
      "v": 122
    },
    {
      "midi": 75,
      "hit": false,
      "t": 246750,
      "d": 750,
      "v": 119
    },
    {
      "midi": 64,
      "hit": false,
      "t": 247500,
      "d": 1113.28125,
      "v": 110
    },
    {
      "midi": 55,
      "hit": false,
      "t": 247500,
      "d": 2980.46875,
      "v": 110
    },
    {
      "midi": 59,
      "hit": false,
      "t": 247500,
      "d": 2980.46875,
      "v": 105
    },
    {
      "midi": 63,
      "hit": false,
      "t": 249000,
      "d": 750,
      "v": 110
    },
    {
      "midi": 62,
      "hit": false,
      "t": 249750,
      "d": 757.8125,
      "v": 110
    },
    {
      "midi": 52,
      "hit": false,
      "t": 250500,
      "d": 617.1875,
      "v": 122
    },
    {
      "midi": 60,
      "hit": false,
      "t": 250500,
      "d": 707.03125,
      "v": 113
    },
    {
      "midi": 67,
      "hit": false,
      "t": 250500,
      "d": 730.46875,
      "v": 105
    },
    {
      "midi": 55,
      "hit": false,
      "t": 251625,
      "d": 257.8125,
      "v": 105
    },
    {
      "midi": 72,
      "hit": false,
      "t": 251625,
      "d": 292.96875,
      "v": 110
    },
    {
      "midi": 64,
      "hit": false,
      "t": 251625,
      "d": 300.78125,
      "v": 119
    },
    {
      "midi": 60,
      "hit": false,
      "t": 252375,
      "d": 128.90625,
      "v": 116
    },
    {
      "midi": 64,
      "hit": false,
      "t": 252500,
      "d": 125,
      "v": 102
    },
    {
      "midi": 67,
      "hit": false,
      "t": 252625,
      "d": 125,
      "v": 98
    },
    {
      "midi": 71,
      "hit": false,
      "t": 252750,
      "d": 250,
      "v": 116
    },
    {
      "midi": 69,
      "hit": false,
      "t": 253000,
      "d": 250,
      "v": 119
    },
    {
      "midi": 67,
      "hit": false,
      "t": 253250,
      "d": 250,
      "v": 122
    },
    {
      "midi": 54,
      "hit": false,
      "t": 253500,
      "d": 953.125,
      "v": 105
    },
    {
      "midi": 62,
      "hit": false,
      "t": 253500,
      "d": 1046.875,
      "v": 110
    },
    {
      "midi": 71,
      "hit": false,
      "t": 253500,
      "d": 1066.40625,
      "v": 107
    },
    {
      "midi": 66,
      "hit": false,
      "t": 255000,
      "d": 375,
      "v": 119
    },
    {
      "midi": 62,
      "hit": false,
      "t": 255000,
      "d": 750,
      "v": 110
    },
    {
      "midi": 59,
      "hit": false,
      "t": 255000,
      "d": 1500,
      "v": 102
    },
    {
      "midi": 67,
      "hit": false,
      "t": 255375,
      "d": 382.8125,
      "v": 100
    },
    {
      "midi": 66,
      "hit": false,
      "t": 255750,
      "d": 375,
      "v": 107
    },
    {
      "midi": 62,
      "hit": false,
      "t": 256125,
      "d": 375,
      "v": 107
    },
    {
      "midi": 55,
      "hit": false,
      "t": 256500,
      "d": 1488.28125,
      "v": 116
    },
    {
      "midi": 64,
      "hit": false,
      "t": 256500,
      "d": 1531.25,
      "v": 105
    },
    {
      "midi": 59,
      "hit": false,
      "t": 256500,
      "d": 2996.09375,
      "v": 107
    },
    {
      "midi": 66,
      "hit": false,
      "t": 258000,
      "d": 765.625,
      "v": 107
    },
    {
      "midi": 54,
      "hit": false,
      "t": 258000,
      "d": 785.15625,
      "v": 107
    },
    {
      "midi": 55,
      "hit": false,
      "t": 258750,
      "d": 742.1875,
      "v": 116
    },
    {
      "midi": 67,
      "hit": false,
      "t": 258750,
      "d": 750,
      "v": 107
    },
    {
      "midi": 71,
      "hit": false,
      "t": 259500,
      "d": 781.25,
      "v": 107
    },
    {
      "midi": 60,
      "hit": false,
      "t": 259500,
      "d": 2992.1875,
      "v": 110
    },
    {
      "midi": 64,
      "hit": false,
      "t": 259500,
      "d": 2992.1875,
      "v": 107
    },
    {
      "midi": 69,
      "hit": false,
      "t": 260250,
      "d": 750,
      "v": 113
    },
    {
      "midi": 67,
      "hit": false,
      "t": 261000,
      "d": 1511.71875,
      "v": 105
    },
    {
      "midi": 55,
      "hit": false,
      "t": 261750,
      "d": 750,
      "v": 113
    },
    {
      "midi": 64,
      "hit": false,
      "t": 262500,
      "d": 750,
      "v": 119
    },
    {
      "midi": 55,
      "hit": false,
      "t": 262500,
      "d": 765.625,
      "v": 110
    },
    {
      "midi": 60,
      "hit": false,
      "t": 262500,
      "d": 804.6875,
      "v": 113
    },
    {
      "midi": 55,
      "hit": false,
      "t": 263437.5,
      "d": 363.28125,
      "v": 110
    },
    {
      "midi": 60,
      "hit": false,
      "t": 263625,
      "d": 187.5,
      "v": 107
    },
    {
      "midi": 64,
      "hit": false,
      "t": 263812.5,
      "d": 58.59375,
      "v": 102
    },
    {
      "midi": 57,
      "hit": false,
      "t": 264000,
      "d": 207.03125,
      "v": 113
    },
    {
      "midi": 62,
      "hit": false,
      "t": 264000,
      "d": 222.65625,
      "v": 105
    },
    {
      "midi": 66,
      "hit": false,
      "t": 264000,
      "d": 230.46875,
      "v": 105
    },
    {
      "midi": 76,
      "hit": false,
      "t": 264750,
      "d": 207.03125,
      "v": 113
    },
    {
      "midi": 81,
      "hit": false,
      "t": 264750,
      "d": 238.28125,
      "v": 110
    },
    {
      "midi": 78,
      "hit": false,
      "t": 264937.5,
      "d": 195.3125,
      "v": 102
    },
    {
      "midi": 74,
      "hit": false,
      "t": 265125,
      "d": 152.34375,
      "v": 105
    },
    {
      "midi": 69,
      "hit": false,
      "t": 265312.5,
      "d": 179.6875,
      "v": 110
    },
    {
      "midi": 62,
      "hit": false,
      "t": 265500,
      "d": 285.15625,
      "v": 105
    },
    {
      "midi": 66,
      "hit": false,
      "t": 265500,
      "d": 296.875,
      "v": 105
    },
    {
      "midi": 71,
      "hit": false,
      "t": 265500,
      "d": 324.21875,
      "v": 116
    },
    {
      "midi": 95,
      "hit": false,
      "t": 265687.5,
      "d": 70.3125,
      "v": 89
    },
    {
      "midi": 96,
      "hit": false,
      "t": 265781.25,
      "d": 144.53125,
      "v": 95
    },
    {
      "midi": 95,
      "hit": false,
      "t": 265875,
      "d": 210.9375,
      "v": 82
    },
    {
      "midi": 93,
      "hit": false,
      "t": 266062.5,
      "d": 144.53125,
      "v": 110
    },
    {
      "midi": 95,
      "hit": false,
      "t": 266250,
      "d": 917.96875,
      "v": 107
    },
    {
      "midi": 91,
      "hit": false,
      "t": 266437.5,
      "d": 222.65625,
      "v": 85
    },
    {
      "midi": 90,
      "hit": false,
      "t": 266625,
      "d": 250,
      "v": 80
    },
    {
      "midi": 86,
      "hit": false,
      "t": 266812.5,
      "d": 207.03125,
      "v": 85
    },
    {
      "midi": 81,
      "hit": false,
      "t": 267000,
      "d": 164.0625,
      "v": 102
    },
    {
      "midi": 79,
      "hit": false,
      "t": 267187.5,
      "d": 195.3125,
      "v": 113
    },
    {
      "midi": 91,
      "hit": false,
      "t": 267187.5,
      "d": 199.21875,
      "v": 116
    },
    {
      "midi": 78,
      "hit": false,
      "t": 267375,
      "d": 210.9375,
      "v": 107
    },
    {
      "midi": 86,
      "hit": false,
      "t": 267375,
      "d": 515.625,
      "v": 116
    },
    {
      "midi": 74,
      "hit": false,
      "t": 267562.5,
      "d": 167.96875,
      "v": 105
    },
    {
      "midi": 69,
      "hit": false,
      "t": 267750,
      "d": 164.0625,
      "v": 105
    },
    {
      "midi": 98,
      "hit": false,
      "t": 267937.5,
      "d": 156.25,
      "v": 127
    },
    {
      "midi": 67,
      "hit": false,
      "t": 267937.5,
      "d": 210.9375,
      "v": 119
    },
    {
      "midi": 66,
      "hit": false,
      "t": 268125,
      "d": 207.03125,
      "v": 110
    },
    {
      "midi": 86,
      "hit": false,
      "t": 268125,
      "d": 367.1875,
      "v": 110
    },
    {
      "midi": 65,
      "hit": false,
      "t": 268312.5,
      "d": 144.53125,
      "v": 107
    },
    {
      "midi": 56,
      "hit": false,
      "t": 268500,
      "d": 347.65625,
      "v": 127
    },
    {
      "midi": 64,
      "hit": false,
      "t": 268500,
      "d": 472.65625,
      "v": 127
    },
    {
      "midi": 59,
      "hit": false,
      "t": 268500,
      "d": 488.28125,
      "v": 127
    },
    {
      "midi": 92,
      "hit": false,
      "t": 268875,
      "d": 171.875,
      "v": 107
    },
    {
      "midi": 88,
      "hit": false,
      "t": 269062.5,
      "d": 183.59375,
      "v": 116
    },
    {
      "midi": 56,
      "hit": false,
      "t": 269062.5,
      "d": 214.84375,
      "v": 127
    },
    {
      "midi": 83,
      "hit": false,
      "t": 269250,
      "d": 132.8125,
      "v": 127
    },
    {
      "midi": 59,
      "hit": false,
      "t": 269250,
      "d": 210.9375,
      "v": 116
    },
    {
      "midi": 64,
      "hit": false,
      "t": 269437.5,
      "d": 160.15625,
      "v": 111
    },
    {
      "midi": 88,
      "hit": false,
      "t": 269625,
      "d": 148.4375,
      "v": 116
    },
    {
      "midi": 68,
      "hit": false,
      "t": 269625,
      "d": 187.5,
      "v": 116
    },
    {
      "midi": 83,
      "hit": false,
      "t": 269812.5,
      "d": 195.3125,
      "v": 110
    },
    {
      "midi": 59,
      "hit": false,
      "t": 269812.5,
      "d": 230.46875,
      "v": 127
    },
    {
      "midi": 64,
      "hit": false,
      "t": 270000,
      "d": 132.8125,
      "v": 106
    },
    {
      "midi": 80,
      "hit": false,
      "t": 270000,
      "d": 187.5,
      "v": 113
    },
    {
      "midi": 68,
      "hit": false,
      "t": 270187.5,
      "d": 140.625,
      "v": 113
    },
    {
      "midi": 83,
      "hit": false,
      "t": 270375,
      "d": 144.53125,
      "v": 122
    },
    {
      "midi": 71,
      "hit": false,
      "t": 270375,
      "d": 253.90625,
      "v": 125
    },
    {
      "midi": 80,
      "hit": false,
      "t": 270562.5,
      "d": 140.625,
      "v": 116
    },
    {
      "midi": 64,
      "hit": false,
      "t": 270562.5,
      "d": 183.59375,
      "v": 127
    },
    {
      "midi": 76,
      "hit": false,
      "t": 270750,
      "d": 160.15625,
      "v": 127
    },
    {
      "midi": 68,
      "hit": false,
      "t": 270750,
      "d": 218.75,
      "v": 127
    },
    {
      "midi": 71,
      "hit": false,
      "t": 270937.5,
      "d": 179.6875,
      "v": 113
    },
    {
      "midi": 76,
      "hit": false,
      "t": 271125,
      "d": 234.375,
      "v": 125
    },
    {
      "midi": 75,
      "hit": false,
      "t": 271312.5,
      "d": 183.59375,
      "v": 119
    },
    {
      "midi": 60,
      "hit": false,
      "t": 271500,
      "d": 808.59375,
      "v": 127
    },
    {
      "midi": 71,
      "hit": false,
      "t": 271500,
      "d": 808.59375,
      "v": 119
    },
    {
      "midi": 60,
      "hit": false,
      "t": 272437.5,
      "d": 406.25,
      "v": 122
    },
    {
      "midi": 64,
      "hit": false,
      "t": 272625,
      "d": 214.84375,
      "v": 116
    },
    {
      "midi": 71,
      "hit": false,
      "t": 272812.5,
      "d": 66.40625,
      "v": 102
    },
    {
      "midi": 60,
      "hit": false,
      "t": 273000,
      "d": 1500,
      "v": 122
    },
    {
      "midi": 64,
      "hit": false,
      "t": 273000,
      "d": 1500,
      "v": 122
    },
    {
      "midi": 69,
      "hit": false,
      "t": 273000,
      "d": 1500,
      "v": 119
    },
    {
      "midi": 64,
      "hit": false,
      "t": 274500,
      "d": 738.28125,
      "v": 122
    },
    {
      "midi": 55,
      "hit": false,
      "t": 274500,
      "d": 753.90625,
      "v": 119
    },
    {
      "midi": 60,
      "hit": false,
      "t": 274500,
      "d": 789.0625,
      "v": 119
    },
    {
      "midi": 55,
      "hit": false,
      "t": 275437.5,
      "d": 355.46875,
      "v": 122
    },
    {
      "midi": 60,
      "hit": false,
      "t": 275625,
      "d": 183.59375,
      "v": 113
    },
    {
      "midi": 64,
      "hit": false,
      "t": 275812.5,
      "d": 58.59375,
      "v": 102
    },
    {
      "midi": 57,
      "hit": false,
      "t": 276000,
      "d": 335.9375,
      "v": 116
    },
    {
      "midi": 62,
      "hit": false,
      "t": 276000,
      "d": 355.46875,
      "v": 107
    },
    {
      "midi": 66,
      "hit": false,
      "t": 276000,
      "d": 355.46875,
      "v": 122
    },
    {
      "midi": 69,
      "hit": false,
      "t": 276750,
      "d": 242.1875,
      "v": 116
    },
    {
      "midi": 64,
      "hit": false,
      "t": 276750,
      "d": 250,
      "v": 113
    },
    {
      "midi": 66,
      "hit": false,
      "t": 276937.5,
      "d": 191.40625,
      "v": 105
    },
    {
      "midi": 62,
      "hit": false,
      "t": 277125,
      "d": 175.78125,
      "v": 122
    },
    {
      "midi": 57,
      "hit": false,
      "t": 277312.5,
      "d": 171.875,
      "v": 113
    },
    {
      "midi": 62,
      "hit": false,
      "t": 277500,
      "d": 851.5625,
      "v": 122
    },
    {
      "midi": 72,
      "hit": false,
      "t": 277500,
      "d": 863.28125,
      "v": 127
    },
    {
      "midi": 55,
      "hit": false,
      "t": 277500,
      "d": 937.5,
      "v": 116
    },
    {
      "midi": 54,
      "hit": false,
      "t": 278625,
      "d": 562.5,
      "v": 111
    },
    {
      "midi": 62,
      "hit": false,
      "t": 278625,
      "d": 660.15625,
      "v": 110
    },
    {
      "midi": 71,
      "hit": false,
      "t": 278625,
      "d": 695.3125,
      "v": 127
    },
    {
      "midi": 67,
      "hit": false,
      "t": 279375,
      "d": 367.1875,
      "v": 127
    },
    {
      "midi": 55,
      "hit": false,
      "t": 279375,
      "d": 375,
      "v": 111
    },
    {
      "midi": 54,
      "hit": false,
      "t": 279750,
      "d": 375,
      "v": 111
    },
    {
      "midi": 66,
      "hit": false,
      "t": 279750,
      "d": 410.15625,
      "v": 116
    },
    {
      "midi": 50,
      "hit": false,
      "t": 280125,
      "d": 375,
      "v": 111
    },
    {
      "midi": 62,
      "hit": false,
      "t": 280125,
      "d": 375,
      "v": 116
    },
    {
      "midi": 55,
      "hit": false,
      "t": 280500,
      "d": 1488.28125,
      "v": 116
    },
    {
      "midi": 64,
      "hit": false,
      "t": 280500,
      "d": 1531.25,
      "v": 105
    },
    {
      "midi": 59,
      "hit": false,
      "t": 280500,
      "d": 2996.09375,
      "v": 107
    },
    {
      "midi": 66,
      "hit": false,
      "t": 282000,
      "d": 765.625,
      "v": 107
    },
    {
      "midi": 54,
      "hit": false,
      "t": 282000,
      "d": 785.15625,
      "v": 107
    },
    {
      "midi": 55,
      "hit": false,
      "t": 282750,
      "d": 742.1875,
      "v": 116
    },
    {
      "midi": 67,
      "hit": false,
      "t": 282750,
      "d": 750,
      "v": 107
    },
    {
      "midi": 59,
      "hit": false,
      "t": 283500,
      "d": 769.53125,
      "v": 107
    },
    {
      "midi": 57,
      "hit": false,
      "t": 283500,
      "d": 1058.59375,
      "v": 110
    },
    {
      "midi": 52,
      "hit": false,
      "t": 283500,
      "d": 1117.1875,
      "v": 110
    },
    {
      "midi": 61,
      "hit": false,
      "t": 284250,
      "d": 339.84375,
      "v": 116
    },
    {
      "midi": 71,
      "hit": false,
      "t": 285000,
      "d": 796.875,
      "v": 110
    },
    {
      "midi": 61,
      "hit": false,
      "t": 285000,
      "d": 1500,
      "v": 113
    },
    {
      "midi": 64,
      "hit": false,
      "t": 285000,
      "d": 1500,
      "v": 110
    },
    {
      "midi": 69,
      "hit": false,
      "t": 285750,
      "d": 750,
      "v": 113
    },
    {
      "midi": 57,
      "hit": false,
      "t": 286500,
      "d": 585.9375,
      "v": 113
    },
    {
      "midi": 64,
      "hit": false,
      "t": 286500,
      "d": 585.9375,
      "v": 116
    },
    {
      "midi": 59,
      "hit": false,
      "t": 286500,
      "d": 601.5625,
      "v": 116
    },
    {
      "midi": 57,
      "hit": false,
      "t": 287437.5,
      "d": 367.1875,
      "v": 113
    },
    {
      "midi": 59,
      "hit": false,
      "t": 287625,
      "d": 218.75,
      "v": 102
    },
    {
      "midi": 64,
      "hit": false,
      "t": 287812.5,
      "d": 74.21875,
      "v": 91
    },
    {
      "midi": 54,
      "hit": false,
      "t": 288000,
      "d": 230.46875,
      "v": 110
    },
    {
      "midi": 63,
      "hit": false,
      "t": 288187.5,
      "d": 246.09375,
      "v": 110
    },
    {
      "midi": 71,
      "hit": false,
      "t": 288375,
      "d": 257.8125,
      "v": 105
    },
    {
      "midi": 59,
      "hit": false,
      "t": 288562.5,
      "d": 562.5,
      "v": 105
    },
    {
      "midi": 66,
      "hit": false,
      "t": 288562.5,
      "d": 562.5,
      "v": 113
    },
    {
      "midi": 75,
      "hit": false,
      "t": 288562.5,
      "d": 562.5,
      "v": 110
    },
    {
      "midi": 63,
      "hit": false,
      "t": 289125,
      "d": 375,
      "v": 113
    },
    {
      "midi": 71,
      "hit": false,
      "t": 289125,
      "d": 375,
      "v": 122
    },
    {
      "midi": 78,
      "hit": false,
      "t": 289125,
      "d": 375,
      "v": 110
    },
    {
      "midi": 55,
      "hit": false,
      "t": 289500,
      "d": 675.78125,
      "v": 122
    },
    {
      "midi": 59,
      "hit": false,
      "t": 289500,
      "d": 707.03125,
      "v": 119
    },
    {
      "midi": 64,
      "hit": false,
      "t": 289500,
      "d": 714.84375,
      "v": 127
    },
    {
      "midi": 67,
      "hit": false,
      "t": 291000,
      "d": 789.0625,
      "v": 122
    },
    {
      "midi": 64,
      "hit": false,
      "t": 291000,
      "d": 1230.46875,
      "v": 119
    },
    {
      "midi": 59,
      "hit": false,
      "t": 291000,
      "d": 1242.1875,
      "v": 113
    },
    {
      "midi": 66,
      "hit": false,
      "t": 291750,
      "d": 480.46875,
      "v": 119
    },
    {
      "midi": 59,
      "hit": false,
      "t": 292500,
      "d": 886.71875,
      "v": 110
    },
    {
      "midi": 64,
      "hit": false,
      "t": 292500,
      "d": 917.96875,
      "v": 116
    },
    {
      "midi": 68,
      "hit": false,
      "t": 292500,
      "d": 917.96875,
      "v": 122
    },
    {
      "midi": 64,
      "hit": false,
      "t": 294000,
      "d": 324.21875,
      "v": 119
    },
    {
      "midi": 67,
      "hit": false,
      "t": 294000,
      "d": 351.5625,
      "v": 113
    },
    {
      "midi": 70,
      "hit": false,
      "t": 294000,
      "d": 363.28125,
      "v": 119
    },
    {
      "midi": 62,
      "hit": false,
      "t": 294750,
      "d": 750,
      "v": 119
    },
    {
      "midi": 68,
      "hit": false,
      "t": 294750,
      "d": 750,
      "v": 116
    },
    {
      "midi": 71,
      "hit": false,
      "t": 294750,
      "d": 750,
      "v": 127
    },
    {
      "midi": 60,
      "hit": false,
      "t": 295500,
      "d": 808.59375,
      "v": 127
    },
    {
      "midi": 71,
      "hit": false,
      "t": 295500,
      "d": 808.59375,
      "v": 119
    },
    {
      "midi": 64,
      "hit": false,
      "t": 295500,
      "d": 843.75,
      "v": 127
    },
    {
      "midi": 60,
      "hit": false,
      "t": 296437.5,
      "d": 406.25,
      "v": 122
    },
    {
      "midi": 64,
      "hit": false,
      "t": 296625,
      "d": 214.84375,
      "v": 116
    },
    {
      "midi": 71,
      "hit": false,
      "t": 296812.5,
      "d": 66.40625,
      "v": 102
    },
    {
      "midi": 60,
      "hit": false,
      "t": 297000,
      "d": 1500,
      "v": 122
    },
    {
      "midi": 64,
      "hit": false,
      "t": 297000,
      "d": 1500,
      "v": 122
    },
    {
      "midi": 69,
      "hit": false,
      "t": 297000,
      "d": 1500,
      "v": 119
    },
    {
      "midi": 64,
      "hit": false,
      "t": 298500,
      "d": 738.28125,
      "v": 122
    },
    {
      "midi": 55,
      "hit": false,
      "t": 298500,
      "d": 753.90625,
      "v": 119
    },
    {
      "midi": 60,
      "hit": false,
      "t": 298500,
      "d": 789.0625,
      "v": 119
    },
    {
      "midi": 55,
      "hit": false,
      "t": 299437.5,
      "d": 355.46875,
      "v": 122
    },
    {
      "midi": 60,
      "hit": false,
      "t": 299625,
      "d": 183.59375,
      "v": 113
    },
    {
      "midi": 64,
      "hit": false,
      "t": 299812.5,
      "d": 58.59375,
      "v": 102
    },
    {
      "midi": 57,
      "hit": false,
      "t": 300000,
      "d": 335.9375,
      "v": 116
    },
    {
      "midi": 62,
      "hit": false,
      "t": 300000,
      "d": 355.46875,
      "v": 107
    },
    {
      "midi": 66,
      "hit": false,
      "t": 300000,
      "d": 355.46875,
      "v": 122
    },
    {
      "midi": 69,
      "hit": false,
      "t": 300750,
      "d": 242.1875,
      "v": 116
    },
    {
      "midi": 64,
      "hit": false,
      "t": 300750,
      "d": 250,
      "v": 113
    },
    {
      "midi": 66,
      "hit": false,
      "t": 300937.5,
      "d": 191.40625,
      "v": 105
    },
    {
      "midi": 62,
      "hit": false,
      "t": 301125,
      "d": 175.78125,
      "v": 122
    },
    {
      "midi": 57,
      "hit": false,
      "t": 301312.5,
      "d": 171.875,
      "v": 113
    },
    {
      "midi": 55,
      "hit": false,
      "t": 301500,
      "d": 847.65625,
      "v": 116
    },
    {
      "midi": 62,
      "hit": false,
      "t": 301500,
      "d": 851.5625,
      "v": 122
    },
    {
      "midi": 72,
      "hit": false,
      "t": 301500,
      "d": 863.28125,
      "v": 127
    },
    {
      "midi": 66,
      "hit": false,
      "t": 302625,
      "d": 660.15625,
      "v": 110
    },
    {
      "midi": 74,
      "hit": false,
      "t": 302625,
      "d": 695.3125,
      "v": 127
    },
    {
      "midi": 59,
      "hit": false,
      "t": 302625,
      "d": 699.21875,
      "v": 107
    },
    {
      "midi": 67,
      "hit": false,
      "t": 303375,
      "d": 367.1875,
      "v": 127
    },
    {
      "midi": 55,
      "hit": false,
      "t": 303375,
      "d": 375,
      "v": 111
    },
    {
      "midi": 54,
      "hit": false,
      "t": 303750,
      "d": 375,
      "v": 111
    },
    {
      "midi": 66,
      "hit": false,
      "t": 303750,
      "d": 410.15625,
      "v": 116
    },
    {
      "midi": 50,
      "hit": false,
      "t": 304125,
      "d": 375,
      "v": 111
    },
    {
      "midi": 62,
      "hit": false,
      "t": 304125,
      "d": 375,
      "v": 116
    },
    {
      "midi": 55,
      "hit": false,
      "t": 304500,
      "d": 1488.28125,
      "v": 116
    },
    {
      "midi": 64,
      "hit": false,
      "t": 304500,
      "d": 1531.25,
      "v": 105
    },
    {
      "midi": 59,
      "hit": false,
      "t": 304500,
      "d": 2996.09375,
      "v": 107
    },
    {
      "midi": 66,
      "hit": false,
      "t": 306000,
      "d": 765.625,
      "v": 107
    },
    {
      "midi": 54,
      "hit": false,
      "t": 306000,
      "d": 785.15625,
      "v": 107
    },
    {
      "midi": 55,
      "hit": false,
      "t": 306750,
      "d": 742.1875,
      "v": 116
    },
    {
      "midi": 67,
      "hit": false,
      "t": 306750,
      "d": 750,
      "v": 107
    },
    {
      "midi": 71,
      "hit": false,
      "t": 307500,
      "d": 781.25,
      "v": 107
    },
    {
      "midi": 60,
      "hit": false,
      "t": 307500,
      "d": 2992.1875,
      "v": 110
    },
    {
      "midi": 64,
      "hit": false,
      "t": 307500,
      "d": 2992.1875,
      "v": 107
    },
    {
      "midi": 69,
      "hit": false,
      "t": 308250,
      "d": 750,
      "v": 113
    },
    {
      "midi": 67,
      "hit": false,
      "t": 309000,
      "d": 1500,
      "v": 105
    },
    {
      "midi": 55,
      "hit": false,
      "t": 309750,
      "d": 750,
      "v": 113
    },
    {
      "midi": 57,
      "hit": false,
      "t": 310500,
      "d": 585.9375,
      "v": 113
    },
    {
      "midi": 64,
      "hit": false,
      "t": 310500,
      "d": 585.9375,
      "v": 116
    },
    {
      "midi": 59,
      "hit": false,
      "t": 310500,
      "d": 601.5625,
      "v": 116
    },
    {
      "midi": 57,
      "hit": false,
      "t": 311437.5,
      "d": 367.1875,
      "v": 113
    },
    {
      "midi": 59,
      "hit": false,
      "t": 311625,
      "d": 218.75,
      "v": 102
    },
    {
      "midi": 64,
      "hit": false,
      "t": 311812.5,
      "d": 74.21875,
      "v": 91
    },
    {
      "midi": 54,
      "hit": false,
      "t": 312000,
      "d": 230.46875,
      "v": 110
    },
    {
      "midi": 63,
      "hit": false,
      "t": 312187.5,
      "d": 246.09375,
      "v": 110
    },
    {
      "midi": 71,
      "hit": false,
      "t": 312375,
      "d": 257.8125,
      "v": 105
    },
    {
      "midi": 59,
      "hit": false,
      "t": 312562.5,
      "d": 562.5,
      "v": 105
    },
    {
      "midi": 66,
      "hit": false,
      "t": 312562.5,
      "d": 562.5,
      "v": 113
    },
    {
      "midi": 75,
      "hit": false,
      "t": 312562.5,
      "d": 562.5,
      "v": 110
    },
    {
      "midi": 63,
      "hit": false,
      "t": 313125,
      "d": 375,
      "v": 113
    },
    {
      "midi": 71,
      "hit": false,
      "t": 313125,
      "d": 375,
      "v": 122
    },
    {
      "midi": 78,
      "hit": false,
      "t": 313125,
      "d": 375,
      "v": 110
    },
    {
      "midi": 67,
      "hit": false,
      "t": 313500,
      "d": 679.6875,
      "v": 119
    },
    {
      "midi": 59,
      "hit": false,
      "t": 313500,
      "d": 714.84375,
      "v": 119
    },
    {
      "midi": 52,
      "hit": false,
      "t": 313500,
      "d": 722.65625,
      "v": 122
    },
    {
      "midi": 55,
      "hit": false,
      "t": 314625,
      "d": 914.0625,
      "v": 127
    },
    {
      "midi": 71,
      "hit": false,
      "t": 314625,
      "d": 1867.1875,
      "v": 122
    },
    {
      "midi": 64,
      "hit": false,
      "t": 314625,
      "d": 1871.09375,
      "v": 119
    },
    {
      "midi": 57,
      "hit": false,
      "t": 315750,
      "d": 730.46875,
      "v": 110
    },
    {
      "midi": 59,
      "hit": false,
      "t": 316500,
      "d": 3000,
      "v": 122
    },
    {
      "midi": 64,
      "hit": false,
      "t": 316500,
      "d": 3000,
      "v": 105
    },
    {
      "midi": 66,
      "hit": false,
      "t": 316500,
      "d": 3000,
      "v": 110
    },
    {
      "midi": 71,
      "hit": false,
      "t": 317609.375,
      "d": 1890.625,
      "v": 119
    }
  ]
}