{
  "jsonPath": "Unknown/Unknown/S C Doonan/abstract-1.json",
  "path": "Unknown\\Unknown\\S C Doonan\\Abstract 1.mid",
  "name": "Abstract 1",
  "difficulty": "Advanced",
  "bpm": 135.000135000135,
  "notes": [
    {
      "midi": 60,
      "hit": false,
      "t": 0,
      "d": 222.222,
      "v": 127
    },
    {
      "midi": 33,
      "hit": false,
      "t": 0,
      "d": 222.222,
      "v": 127
    },
    {
      "midi": 62,
      "hit": false,
      "t": 222.222,
      "d": 222.222,
      "v": 127
    },
    {
      "midi": 40,
      "hit": false,
      "t": 222.222,
      "d": 222.222,
      "v": 127
    },
    {
      "midi": 64,
      "hit": false,
      "t": 444.444,
      "d": 222.22200000000004,
      "v": 127
    },
    {
      "midi": 45,
      "hit": false,
      "t": 444.444,
      "d": 222.22200000000004,
      "v": 127
    },
    {
      "midi": 66,
      "hit": false,
      "t": 666.666,
      "d": 222.22199999999998,
      "v": 127
    },
    {
      "midi": 35,
      "hit": false,
      "t": 666.666,
      "d": 222.22199999999998,
      "v": 127
    },
    {
      "midi": 62,
      "hit": false,
      "t": 888.888,
      "d": 222.2220000000001,
      "v": 127
    },
    {
      "midi": 42,
      "hit": false,
      "t": 888.888,
      "d": 222.2220000000001,
      "v": 127
    },
    {
      "midi": 64,
      "hit": false,
      "t": 1111.1100000000001,
      "d": 222.22199999999998,
      "v": 127
    },
    {
      "midi": 47,
      "hit": false,
      "t": 1111.1100000000001,
      "d": 222.22199999999998,
      "v": 127
    },
    {
      "midi": 66,
      "hit": false,
      "t": 1333.332,
      "d": 222.22199999999998,
      "v": 127
    },
    {
      "midi": 36,
      "hit": false,
      "t": 1333.332,
      "d": 222.22199999999998,
      "v": 127
    },
    {
      "midi": 67,
      "hit": false,
      "t": 1555.554,
      "d": 222.22199999999998,
      "v": 127
    },
    {
      "midi": 43,
      "hit": false,
      "t": 1555.554,
      "d": 222.22199999999998,
      "v": 127
    },
    {
      "midi": 64,
      "hit": false,
      "t": 1777.776,
      "d": 222.22199999999998,
      "v": 127
    },
    {
      "midi": 48,
      "hit": false,
      "t": 1777.776,
      "d": 222.22199999999998,
      "v": 127
    },
    {
      "midi": 66,
      "hit": false,
      "t": 1999.998,
      "d": 222.2220000000002,
      "v": 127
    },
    {
      "midi": 38,
      "hit": false,
      "t": 1999.998,
      "d": 222.2220000000002,
      "v": 127
    },
    {
      "midi": 67,
      "hit": false,
      "t": 2222.2200000000003,
      "d": 222.2220000000002,
      "v": 127
    },
    {
      "midi": 45,
      "hit": false,
      "t": 2222.2200000000003,
      "d": 222.2220000000002,
      "v": 127
    },
    {
      "midi": 69,
      "hit": false,
      "t": 2444.4420000000005,
      "d": 222.2220000000002,
      "v": 127
    },
    {
      "midi": 50,
      "hit": false,
      "t": 2444.4420000000005,
      "d": 222.2220000000002,
      "v": 127
    },
    {
      "midi": 67,
      "hit": false,
      "t": 2666.6640000000007,
      "d": 222.2220000000002,
      "v": 127
    },
    {
      "midi": 40,
      "hit": false,
      "t": 2666.6640000000007,
      "d": 222.2220000000002,
      "v": 127
    },
    {
      "midi": 69,
      "hit": false,
      "t": 2888.886000000001,
      "d": 222.2220000000002,
      "v": 127
    },
    {
      "midi": 47,
      "hit": false,
      "t": 2888.886000000001,
      "d": 222.2220000000002,
      "v": 127
    },
    {
      "midi": 71,
      "hit": false,
      "t": 3111.108000000001,
      "d": 222.2220000000002,
      "v": 127
    },
    {
      "midi": 52,
      "hit": false,
      "t": 3111.108000000001,
      "d": 222.2220000000002,
      "v": 127
    },
    {
      "midi": 73,
      "hit": false,
      "t": 3333.3300000000013,
      "d": 222.2220000000002,
      "v": 127
    },
    {
      "midi": 42,
      "hit": false,
      "t": 3333.3300000000013,
      "d": 222.2220000000002,
      "v": 127
    },
    {
      "midi": 69,
      "hit": false,
      "t": 3555.5520000000015,
      "d": 222.2220000000002,
      "v": 127
    },
    {
      "midi": 49,
      "hit": false,
      "t": 3555.5520000000015,
      "d": 222.2220000000002,
      "v": 127
    },
    {
      "midi": 71,
      "hit": false,
      "t": 3777.7740000000017,
      "d": 222.2220000000002,
      "v": 127
    },
    {
      "midi": 54,
      "hit": false,
      "t": 3777.7740000000017,
      "d": 222.2220000000002,
      "v": 127
    },
    {
      "midi": 73,
      "hit": false,
      "t": 3999.996000000002,
      "d": 222.22199999999975,
      "v": 127
    },
    {
      "midi": 43,
      "hit": false,
      "t": 3999.996000000002,
      "d": 222.22199999999975,
      "v": 127
    },
    {
      "midi": 74,
      "hit": false,
      "t": 4222.218000000002,
      "d": 222.22199999999975,
      "v": 127
    },
    {
      "midi": 50,
      "hit": false,
      "t": 4222.218000000002,
      "d": 222.22199999999975,
      "v": 127
    },
    {
      "midi": 71,
      "hit": false,
      "t": 4444.440000000001,
      "d": 222.22199999999975,
      "v": 127
    },
    {
      "midi": 55,
      "hit": false,
      "t": 4444.440000000001,
      "d": 222.22199999999975,
      "v": 127
    },
    {
      "midi": 73,
      "hit": false,
      "t": 4666.662000000001,
      "d": 222.22199999999975,
      "v": 127
    },
    {
      "midi": 45,
      "hit": false,
      "t": 4666.662000000001,
      "d": 222.22199999999975,
      "v": 127
    },
    {
      "midi": 74,
      "hit": false,
      "t": 4888.884000000001,
      "d": 222.22199999999975,
      "v": 127
    },
    {
      "midi": 52,
      "hit": false,
      "t": 4888.884000000001,
      "d": 222.22199999999975,
      "v": 127
    },
    {
      "midi": 76,
      "hit": false,
      "t": 5111.106000000001,
      "d": 222.22199999999975,
      "v": 127
    },
    {
      "midi": 57,
      "hit": false,
      "t": 5111.106000000001,
      "d": 222.22199999999975,
      "v": 127
    },
    {
      "midi": 69,
      "hit": false,
      "t": 5333.328,
      "d": 666.6660000000002,
      "v": 127
    },
    {
      "midi": 72,
      "hit": false,
      "t": 5333.328,
      "d": 666.6660000000002,
      "v": 127
    },
    {
      "midi": 77,
      "hit": false,
      "t": 5333.328,
      "d": 666.6660000000002,
      "v": 127
    },
    {
      "midi": 38,
      "hit": false,
      "t": 5333.328,
      "d": 222.22199999999975,
      "v": 127
    },
    {
      "midi": 45,
      "hit": false,
      "t": 5555.55,
      "d": 222.22199999999975,
      "v": 127
    },
    {
      "midi": 50,
      "hit": false,
      "t": 5777.772,
      "d": 222.22199999999975,
      "v": 127
    },
    {
      "midi": 52,
      "hit": false,
      "t": 5999.994,
      "d": 222.22199999999975,
      "v": 127
    },
    {
      "midi": 67,
      "hit": false,
      "t": 5999.994000000001,
      "d": 1333.3320000000003,
      "v": 127
    },
    {
      "midi": 72,
      "hit": false,
      "t": 5999.994000000001,
      "d": 1333.3320000000003,
      "v": 127
    },
    {
      "midi": 76,
      "hit": false,
      "t": 5999.994000000001,
      "d": 1333.3320000000003,
      "v": 127
    },
    {
      "midi": 77,
      "hit": false,
      "t": 5999.994000000001,
      "d": 1333.3320000000003,
      "v": 127
    },
    {
      "midi": 57,
      "hit": false,
      "t": 6222.215999999999,
      "d": 222.22199999999975,
      "v": 127
    },
    {
      "midi": 62,
      "hit": false,
      "t": 6444.437999999999,
      "d": 222.22199999999975,
      "v": 127
    },
    {
      "midi": 57,
      "hit": false,
      "t": 6666.659999999999,
      "d": 222.22199999999975,
      "v": 127
    },
    {
      "midi": 52,
      "hit": false,
      "t": 6888.881999999999,
      "d": 222.22199999999975,
      "v": 127
    },
    {
      "midi": 50,
      "hit": false,
      "t": 7111.103999999998,
      "d": 222.22199999999975,
      "v": 127
    },
    {
      "midi": 45,
      "hit": false,
      "t": 7333.325999999998,
      "d": 222.22199999999975,
      "v": 127
    },
    {
      "midi": 38,
      "hit": false,
      "t": 7555.547999999998,
      "d": 222.22199999999975,
      "v": 127
    },
    {
      "midi": 60,
      "hit": false,
      "t": 7555.548000000001,
      "d": 666.6659999999993,
      "v": 127
    },
    {
      "midi": 64,
      "hit": false,
      "t": 7555.548000000001,
      "d": 666.6659999999993,
      "v": 127
    },
    {
      "midi": 65,
      "hit": false,
      "t": 7555.548000000001,
      "d": 666.6659999999993,
      "v": 127
    },
    {
      "midi": 69,
      "hit": false,
      "t": 7555.548000000001,
      "d": 666.6659999999993,
      "v": 127
    },
    {
      "midi": 45,
      "hit": false,
      "t": 7777.769999999998,
      "d": 222.22199999999975,
      "v": 127
    },
    {
      "midi": 50,
      "hit": false,
      "t": 7999.9919999999975,
      "d": 222.22200000000066,
      "v": 127
    },
    {
      "midi": 52,
      "hit": false,
      "t": 8222.213999999998,
      "d": 222.22199999999975,
      "v": 127
    },
    {
      "midi": 59,
      "hit": false,
      "t": 8222.214,
      "d": 1333.3320000000003,
      "v": 127
    },
    {
      "midi": 64,
      "hit": false,
      "t": 8222.214,
      "d": 1333.3320000000003,
      "v": 127
    },
    {
      "midi": 67,
      "hit": false,
      "t": 8222.214,
      "d": 1333.3320000000003,
      "v": 127
    },
    {
      "midi": 69,
      "hit": false,
      "t": 8222.214,
      "d": 1333.3320000000003,
      "v": 127
    },
    {
      "midi": 57,
      "hit": false,
      "t": 8444.435999999998,
      "d": 222.22199999999975,
      "v": 127
    },
    {
      "midi": 62,
      "hit": false,
      "t": 8666.657999999998,
      "d": 222.22199999999975,
      "v": 127
    },
    {
      "midi": 57,
      "hit": false,
      "t": 8888.879999999997,
      "d": 222.22199999999975,
      "v": 127
    },
    {
      "midi": 52,
      "hit": false,
      "t": 9111.101999999997,
      "d": 222.22199999999975,
      "v": 127
    },
    {
      "midi": 50,
      "hit": false,
      "t": 9333.323999999997,
      "d": 222.22199999999975,
      "v": 127
    },
    {
      "midi": 45,
      "hit": false,
      "t": 9555.545999999997,
      "d": 222.22199999999975,
      "v": 127
    },
    {
      "midi": 40,
      "hit": false,
      "t": 9777.767999999996,
      "d": 222.22199999999975,
      "v": 127
    },
    {
      "midi": 62,
      "hit": false,
      "t": 9777.768,
      "d": 666.6659999999993,
      "v": 127
    },
    {
      "midi": 67,
      "hit": false,
      "t": 9777.768,
      "d": 666.6659999999993,
      "v": 127
    },
    {
      "midi": 69,
      "hit": false,
      "t": 9777.768,
      "d": 666.6659999999993,
      "v": 127
    },
    {
      "midi": 74,
      "hit": false,
      "t": 9777.768,
      "d": 666.6659999999993,
      "v": 127
    },
    {
      "midi": 47,
      "hit": false,
      "t": 9999.989999999996,
      "d": 222.22199999999975,
      "v": 127
    },
    {
      "midi": 52,
      "hit": false,
      "t": 10222.211999999996,
      "d": 222.22199999999975,
      "v": 127
    },
    {
      "midi": 54,
      "hit": false,
      "t": 10444.433999999996,
      "d": 222.22199999999975,
      "v": 127
    },
    {
      "midi": 66,
      "hit": false,
      "t": 10444.434,
      "d": 666.6659999999993,
      "v": 127
    },
    {
      "midi": 74,
      "hit": false,
      "t": 10444.434,
      "d": 666.6659999999993,
      "v": 127
    },
    {
      "midi": 59,
      "hit": false,
      "t": 10666.655999999995,
      "d": 222.22199999999975,
      "v": 127
    },
    {
      "midi": 64,
      "hit": false,
      "t": 10888.877999999995,
      "d": 222.22199999999975,
      "v": 127
    },
    {
      "midi": 59,
      "hit": false,
      "t": 11111.099999999995,
      "d": 222.22199999999975,
      "v": 127
    },
    {
      "midi": 69,
      "hit": false,
      "t": 11111.099999999999,
      "d": 222.22199999999975,
      "v": 127
    },
    {
      "midi": 54,
      "hit": false,
      "t": 11333.321999999995,
      "d": 222.22199999999975,
      "v": 127
    },
    {
      "midi": 71,
      "hit": false,
      "t": 11333.321999999998,
      "d": 222.22199999999975,
      "v": 127
    },
    {
      "midi": 52,
      "hit": false,
      "t": 11555.543999999994,
      "d": 222.22199999999975,
      "v": 127
    },
    {
      "midi": 73,
      "hit": false,
      "t": 11555.543999999998,
      "d": 222.22199999999975,
      "v": 127
    },
    {
      "midi": 47,
      "hit": false,
      "t": 11777.765999999994,
      "d": 222.22199999999975,
      "v": 127
    },
    {
      "midi": 64,
      "hit": false,
      "t": 11777.765999999998,
      "d": 222.22199999999975,
      "v": 127
    },
    {
      "midi": 69,
      "hit": false,
      "t": 11777.765999999998,
      "d": 222.22199999999975,
      "v": 127
    },
    {
      "midi": 74,
      "hit": false,
      "t": 11777.765999999998,
      "d": 222.22199999999975,
      "v": 127
    },
    {
      "midi": 42,
      "hit": false,
      "t": 11999.987999999994,
      "d": 222.22199999999975,
      "v": 127
    },
    {
      "midi": 49,
      "hit": false,
      "t": 12222.209999999994,
      "d": 222.22199999999975,
      "v": 127
    },
    {
      "midi": 76,
      "hit": false,
      "t": 12222.209999999997,
      "d": 222.22199999999975,
      "v": 127
    },
    {
      "midi": 54,
      "hit": false,
      "t": 12444.431999999993,
      "d": 222.22199999999975,
      "v": 127
    },
    {
      "midi": 73,
      "hit": false,
      "t": 12444.431999999997,
      "d": 444.4439999999995,
      "v": 127
    },
    {
      "midi": 56,
      "hit": false,
      "t": 12666.653999999993,
      "d": 222.22199999999975,
      "v": 127
    },
    {
      "midi": 61,
      "hit": false,
      "t": 12888.875999999993,
      "d": 222.22199999999975,
      "v": 127
    },
    {
      "midi": 71,
      "hit": false,
      "t": 12888.875999999997,
      "d": 222.22199999999975,
      "v": 127
    },
    {
      "midi": 76,
      "hit": false,
      "t": 12888.875999999997,
      "d": 222.22199999999975,
      "v": 127
    },
    {
      "midi": 66,
      "hit": false,
      "t": 13111.097999999993,
      "d": 222.22199999999975,
      "v": 127
    },
    {
      "midi": 73,
      "hit": false,
      "t": 13111.097999999996,
      "d": 222.22199999999975,
      "v": 127
    },
    {
      "midi": 61,
      "hit": false,
      "t": 13333.319999999992,
      "d": 222.22199999999975,
      "v": 127
    },
    {
      "midi": 69,
      "hit": false,
      "t": 13333.319999999996,
      "d": 222.22199999999975,
      "v": 127
    },
    {
      "midi": 56,
      "hit": false,
      "t": 13555.541999999992,
      "d": 222.22199999999975,
      "v": 127
    },
    {
      "midi": 71,
      "hit": false,
      "t": 13555.541999999996,
      "d": 222.22199999999975,
      "v": 127
    },
    {
      "midi": 54,
      "hit": false,
      "t": 13777.763999999992,
      "d": 222.22199999999975,
      "v": 127
    },
    {
      "midi": 69,
      "hit": false,
      "t": 13777.763999999996,
      "d": 222.22199999999975,
      "v": 127
    },
    {
      "midi": 49,
      "hit": false,
      "t": 13999.985999999992,
      "d": 222.22199999999975,
      "v": 127
    },
    {
      "midi": 71,
      "hit": false,
      "t": 13999.985999999995,
      "d": 222.22199999999975,
      "v": 127
    },
    {
      "midi": 47,
      "hit": false,
      "t": 14222.207999999991,
      "d": 222.22199999999975,
      "v": 127
    },
    {
      "midi": 54,
      "hit": false,
      "t": 14444.429999999991,
      "d": 222.22199999999975,
      "v": 127
    },
    {
      "midi": 59,
      "hit": false,
      "t": 14666.651999999991,
      "d": 222.22199999999975,
      "v": 127
    },
    {
      "midi": 78,
      "hit": false,
      "t": 14777.762999999995,
      "d": 111.11100000000079,
      "v": 127
    },
    {
      "midi": 61,
      "hit": false,
      "t": 14888.87399999999,
      "d": 222.22199999999975,
      "v": 127
    },
    {
      "midi": 74,
      "hit": false,
      "t": 14888.873999999996,
      "d": 666.6659999999993,
      "v": 127
    },
    {
      "midi": 66,
      "hit": false,
      "t": 15111.09599999999,
      "d": 222.22199999999975,
      "v": 127
    },
    {
      "midi": 71,
      "hit": false,
      "t": 15333.31799999999,
      "d": 222.22199999999975,
      "v": 127
    },
    {
      "midi": 66,
      "hit": false,
      "t": 15555.53999999999,
      "d": 222.22199999999975,
      "v": 127
    },
    {
      "midi": 76,
      "hit": false,
      "t": 15555.539999999995,
      "d": 888.8880000000008,
      "v": 127
    },
    {
      "midi": 61,
      "hit": false,
      "t": 15777.76199999999,
      "d": 222.22199999999975,
      "v": 127
    },
    {
      "midi": 59,
      "hit": false,
      "t": 15999.98399999999,
      "d": 222.22199999999975,
      "v": 127
    },
    {
      "midi": 54,
      "hit": false,
      "t": 16222.20599999999,
      "d": 222.22199999999975,
      "v": 127
    },
    {
      "midi": 47,
      "hit": false,
      "t": 16444.42799999999,
      "d": 222.22200000000157,
      "v": 127
    },
    {
      "midi": 54,
      "hit": false,
      "t": 16666.64999999999,
      "d": 222.22200000000157,
      "v": 127
    },
    {
      "midi": 59,
      "hit": false,
      "t": 16888.871999999992,
      "d": 222.22200000000157,
      "v": 127
    },
    {
      "midi": 78,
      "hit": false,
      "t": 16999.982999999997,
      "d": 111.11100000000079,
      "v": 127
    },
    {
      "midi": 61,
      "hit": false,
      "t": 17111.093999999994,
      "d": 222.22200000000157,
      "v": 127
    },
    {
      "midi": 74,
      "hit": false,
      "t": 17111.093999999997,
      "d": 666.6660000000011,
      "v": 127
    },
    {
      "midi": 66,
      "hit": false,
      "t": 17333.315999999995,
      "d": 222.22200000000157,
      "v": 127
    },
    {
      "midi": 71,
      "hit": false,
      "t": 17555.537999999997,
      "d": 222.22200000000157,
      "v": 127
    },
    {
      "midi": 68,
      "hit": false,
      "t": 17777.76,
      "d": 888.887999999999,
      "v": 127
    },
    {
      "midi": 73,
      "hit": false,
      "t": 17777.76,
      "d": 888.887999999999,
      "v": 127
    },
    {
      "midi": 76,
      "hit": false,
      "t": 17777.76,
      "d": 888.887999999999,
      "v": 127
    },
    {
      "midi": 66,
      "hit": false,
      "t": 17777.76,
      "d": 222.22200000000157,
      "v": 127
    },
    {
      "midi": 61,
      "hit": false,
      "t": 17999.982,
      "d": 222.22200000000157,
      "v": 127
    },
    {
      "midi": 59,
      "hit": false,
      "t": 18222.204,
      "d": 222.22200000000157,
      "v": 127
    },
    {
      "midi": 54,
      "hit": false,
      "t": 18444.426000000003,
      "d": 222.22200000000157,
      "v": 127
    },
    {
      "midi": 62,
      "hit": false,
      "t": 18666.647999999997,
      "d": 666.6660000000011,
      "v": 127
    },
    {
      "midi": 67,
      "hit": false,
      "t": 18666.647999999997,
      "d": 666.6660000000011,
      "v": 127
    },
    {
      "midi": 69,
      "hit": false,
      "t": 18666.647999999997,
      "d": 666.6660000000011,
      "v": 127
    },
    {
      "midi": 74,
      "hit": false,
      "t": 18666.647999999997,
      "d": 666.6660000000011,
      "v": 127
    },
    {
      "midi": 40,
      "hit": false,
      "t": 18666.648000000005,
      "d": 222.22200000000157,
      "v": 127
    },
    {
      "midi": 47,
      "hit": false,
      "t": 18888.870000000006,
      "d": 222.22200000000157,
      "v": 127
    },
    {
      "midi": 52,
      "hit": false,
      "t": 19111.092000000008,
      "d": 222.22200000000157,
      "v": 127
    },
    {
      "midi": 66,
      "hit": false,
      "t": 19333.314,
      "d": 666.6660000000011,
      "v": 127
    },
    {
      "midi": 74,
      "hit": false,
      "t": 19333.314,
      "d": 666.6660000000011,
      "v": 127
    },
    {
      "midi": 54,
      "hit": false,
      "t": 19333.31400000001,
      "d": 222.22200000000157,
      "v": 127
    },
    {
      "midi": 59,
      "hit": false,
      "t": 19555.53600000001,
      "d": 222.22200000000157,
      "v": 127
    },
    {
      "midi": 64,
      "hit": false,
      "t": 19777.758000000013,
      "d": 222.22200000000157,
      "v": 127
    },
    {
      "midi": 69,
      "hit": false,
      "t": 19999.98,
      "d": 222.22200000000157,
      "v": 127
    },
    {
      "midi": 59,
      "hit": false,
      "t": 19999.980000000014,
      "d": 222.22200000000157,
      "v": 127
    },
    {
      "midi": 71,
      "hit": false,
      "t": 20222.202,
      "d": 222.22200000000157,
      "v": 127
    },
    {
      "midi": 54,
      "hit": false,
      "t": 20222.202000000016,
      "d": 222.22200000000157,
      "v": 127
    },
    {
      "midi": 73,
      "hit": false,
      "t": 20444.424000000003,
      "d": 222.22200000000157,
      "v": 127
    },
    {
      "midi": 52,
      "hit": false,
      "t": 20444.424000000017,
      "d": 222.22200000000157,
      "v": 127
    },
    {
      "midi": 64,
      "hit": false,
      "t": 20666.646000000004,
      "d": 222.22200000000157,
      "v": 127
    },
    {
      "midi": 69,
      "hit": false,
      "t": 20666.646000000004,
      "d": 222.22200000000157,
      "v": 127
    },
    {
      "midi": 74,
      "hit": false,
      "t": 20666.646000000004,
      "d": 222.22200000000157,
      "v": 127
    },
    {
      "midi": 47,
      "hit": false,
      "t": 20666.64600000002,
      "d": 222.22200000000157,
      "v": 127
    },
    {
      "midi": 42,
      "hit": false,
      "t": 20888.86800000002,
      "d": 222.22200000000157,
      "v": 127
    },
    {
      "midi": 76,
      "hit": false,
      "t": 21111.090000000007,
      "d": 222.22200000000157,
      "v": 127
    },
    {
      "midi": 49,
      "hit": false,
      "t": 21111.090000000022,
      "d": 222.22200000000157,
      "v": 127
    },
    {
      "midi": 71,
      "hit": false,
      "t": 21333.31200000001,
      "d": 222.22200000000157,
      "v": 127
    },
    {
      "midi": 54,
      "hit": false,
      "t": 21333.312000000024,
      "d": 222.22200000000157,
      "v": 127
    },
    {
      "midi": 73,
      "hit": false,
      "t": 21555.53400000001,
      "d": 222.22200000000157,
      "v": 127
    },
    {
      "midi": 56,
      "hit": false,
      "t": 21555.534000000025,
      "d": 222.22200000000157,
      "v": 127
    },
    {
      "midi": 69,
      "hit": false,
      "t": 21777.756000000012,
      "d": 222.22200000000157,
      "v": 127
    },
    {
      "midi": 61,
      "hit": false,
      "t": 21777.756000000027,
      "d": 222.22200000000157,
      "v": 127
    },
    {
      "midi": 78,
      "hit": false,
      "t": 21999.978000000014,
      "d": 222.22200000000157,
      "v": 127
    },
    {
      "midi": 66,
      "hit": false,
      "t": 21999.97800000003,
      "d": 222.22200000000157,
      "v": 127
    },
    {
      "midi": 71,
      "hit": false,
      "t": 22222.200000000015,
      "d": 222.22200000000157,
      "v": 127
    },
    {
      "midi": 61,
      "hit": false,
      "t": 22222.20000000003,
      "d": 222.22200000000157,
      "v": 127
    },
    {
      "midi": 73,
      "hit": false,
      "t": 22444.422000000017,
      "d": 222.22200000000157,
      "v": 127
    },
    {
      "midi": 56,
      "hit": false,
      "t": 22444.42200000003,
      "d": 222.22200000000157,
      "v": 127
    },
    {
      "midi": 69,
      "hit": false,
      "t": 22666.64400000002,
      "d": 222.22200000000157,
      "v": 127
    },
    {
      "midi": 54,
      "hit": false,
      "t": 22666.644000000033,
      "d": 222.22200000000157,
      "v": 127
    },
    {
      "midi": 71,
      "hit": false,
      "t": 22888.86600000002,
      "d": 222.22200000000157,
      "v": 127
    },
    {
      "midi": 49,
      "hit": false,
      "t": 22888.866000000035,
      "d": 222.22200000000157,
      "v": 127
    },
    {
      "midi": 47,
      "hit": false,
      "t": 23111.088000000036,
      "d": 222.22200000000157,
      "v": 127
    },
    {
      "midi": 54,
      "hit": false,
      "t": 23333.310000000038,
      "d": 222.22200000000157,
      "v": 127
    },
    {
      "midi": 59,
      "hit": false,
      "t": 23555.53200000004,
      "d": 222.22200000000157,
      "v": 127
    },
    {
      "midi": 78,
      "hit": false,
      "t": 23666.643000000022,
      "d": 111.11100000000079,
      "v": 127
    },
    {
      "midi": 74,
      "hit": false,
      "t": 23777.754000000023,
      "d": 666.6660000000011,
      "v": 127
    },
    {
      "midi": 61,
      "hit": false,
      "t": 23777.75400000004,
      "d": 222.22200000000157,
      "v": 127
    },
    {
      "midi": 66,
      "hit": false,
      "t": 23999.976000000042,
      "d": 222.22200000000157,
      "v": 127
    },
    {
      "midi": 71,
      "hit": false,
      "t": 24222.198000000044,
      "d": 222.22200000000157,
      "v": 127
    },
    {
      "midi": 76,
      "hit": false,
      "t": 24444.420000000024,
      "d": 888.887999999999,
      "v": 127
    },
    {
      "midi": 66,
      "hit": false,
      "t": 24444.420000000046,
      "d": 222.22200000000157,
      "v": 127
    },
    {
      "midi": 61,
      "hit": false,
      "t": 24666.642000000047,
      "d": 222.22200000000157,
      "v": 127
    },
    {
      "midi": 59,
      "hit": false,
      "t": 24888.86400000005,
      "d": 222.22200000000157,
      "v": 127
    },
    {
      "midi": 54,
      "hit": false,
      "t": 25111.08600000005,
      "d": 222.22200000000157,
      "v": 127
    },
    {
      "midi": 47,
      "hit": false,
      "t": 25333.308000000052,
      "d": 222.22200000000157,
      "v": 127
    },
    {
      "midi": 54,
      "hit": false,
      "t": 25555.530000000053,
      "d": 222.22200000000157,
      "v": 127
    },
    {
      "midi": 59,
      "hit": false,
      "t": 25777.752000000055,
      "d": 222.22200000000157,
      "v": 127
    },
    {
      "midi": 78,
      "hit": false,
      "t": 25888.863000000023,
      "d": 111.11100000000079,
      "v": 127
    },
    {
      "midi": 74,
      "hit": false,
      "t": 25999.974000000024,
      "d": 666.6660000000011,
      "v": 127
    },
    {
      "midi": 61,
      "hit": false,
      "t": 25999.974000000057,
      "d": 222.22200000000157,
      "v": 127
    },
    {
      "midi": 66,
      "hit": false,
      "t": 26222.196000000058,
      "d": 222.22200000000157,
      "v": 127
    },
    {
      "midi": 71,
      "hit": false,
      "t": 26444.41800000006,
      "d": 222.22200000000157,
      "v": 127
    },
    {
      "midi": 68,
      "hit": false,
      "t": 26666.640000000025,
      "d": 888.887999999999,
      "v": 127
    },
    {
      "midi": 73,
      "hit": false,
      "t": 26666.640000000025,
      "d": 888.887999999999,
      "v": 127
    },
    {
      "midi": 76,
      "hit": false,
      "t": 26666.640000000025,
      "d": 888.887999999999,
      "v": 127
    },
    {
      "midi": 66,
      "hit": false,
      "t": 26666.64000000006,
      "d": 222.22200000000157,
      "v": 127
    },
    {
      "midi": 61,
      "hit": false,
      "t": 26888.862000000063,
      "d": 222.22200000000157,
      "v": 127
    },
    {
      "midi": 59,
      "hit": false,
      "t": 27111.084000000064,
      "d": 222.22200000000157,
      "v": 127
    },
    {
      "midi": 54,
      "hit": false,
      "t": 27333.306000000066,
      "d": 222.22200000000157,
      "v": 127
    },
    {
      "midi": 78,
      "hit": false,
      "t": 27555.528000000024,
      "d": 666.6660000000011,
      "v": 127
    },
    {
      "midi": 47,
      "hit": false,
      "t": 27555.528000000068,
      "d": 222.22200000000157,
      "v": 127
    },
    {
      "midi": 54,
      "hit": false,
      "t": 27777.75000000007,
      "d": 222.22200000000157,
      "v": 127
    },
    {
      "midi": 59,
      "hit": false,
      "t": 27999.97200000007,
      "d": 222.22200000000157,
      "v": 127
    },
    {
      "midi": 81,
      "hit": false,
      "t": 28222.194000000025,
      "d": 222.22200000000157,
      "v": 127
    },
    {
      "midi": 61,
      "hit": false,
      "t": 28222.194000000072,
      "d": 222.22200000000157,
      "v": 127
    },
    {
      "midi": 80,
      "hit": false,
      "t": 28444.416000000027,
      "d": 222.22200000000157,
      "v": 127
    },
    {
      "midi": 66,
      "hit": false,
      "t": 28444.416000000074,
      "d": 222.22200000000157,
      "v": 127
    },
    {
      "midi": 81,
      "hit": false,
      "t": 28666.638000000028,
      "d": 222.22200000000157,
      "v": 127
    },
    {
      "midi": 71,
      "hit": false,
      "t": 28666.638000000075,
      "d": 222.22200000000157,
      "v": 127
    },
    {
      "midi": 78,
      "hit": false,
      "t": 28888.86000000003,
      "d": 111.11100000000079,
      "v": 127
    },
    {
      "midi": 66,
      "hit": false,
      "t": 28888.860000000077,
      "d": 222.22200000000157,
      "v": 127
    },
    {
      "midi": 78,
      "hit": false,
      "t": 28999.97100000003,
      "d": 111.11100000000079,
      "v": 127
    },
    {
      "midi": 80,
      "hit": false,
      "t": 28999.97100000003,
      "d": 111.11100000000079,
      "v": 127
    },
    {
      "midi": 76,
      "hit": false,
      "t": 29111.08200000003,
      "d": 222.22200000000157,
      "v": 127
    },
    {
      "midi": 61,
      "hit": false,
      "t": 29111.08200000008,
      "d": 222.22200000000157,
      "v": 127
    },
    {
      "midi": 78,
      "hit": false,
      "t": 29333.304000000033,
      "d": 222.22200000000157,
      "v": 127
    },
    {
      "midi": 59,
      "hit": false,
      "t": 29333.30400000008,
      "d": 222.22200000000157,
      "v": 127
    },
    {
      "midi": 78,
      "hit": false,
      "t": 29555.526000000034,
      "d": 222.22200000000157,
      "v": 127
    },
    {
      "midi": 54,
      "hit": false,
      "t": 29555.52600000008,
      "d": 222.22200000000157,
      "v": 127
    },
    {
      "midi": 47,
      "hit": false,
      "t": 29777.748000000083,
      "d": 222.22200000000157,
      "v": 127
    },
    {
      "midi": 81,
      "hit": false,
      "t": 29999.970000000038,
      "d": 222.22200000000157,
      "v": 127
    },
    {
      "midi": 54,
      "hit": false,
      "t": 29999.970000000085,
      "d": 222.22200000000157,
      "v": 127
    },
    {
      "midi": 80,
      "hit": false,
      "t": 30222.19200000004,
      "d": 222.22200000000157,
      "v": 127
    },
    {
      "midi": 57,
      "hit": false,
      "t": 30222.192000000086,
      "d": 222.22200000000157,
      "v": 127
    },
    {
      "midi": 81,
      "hit": false,
      "t": 30444.41400000004,
      "d": 111.11100000000079,
      "v": 127
    },
    {
      "midi": 59,
      "hit": false,
      "t": 30444.414000000088,
      "d": 222.22200000000157,
      "v": 127
    },
    {
      "midi": 80,
      "hit": false,
      "t": 30555.52500000004,
      "d": 111.11100000000079,
      "v": 127
    },
    {
      "midi": 83,
      "hit": false,
      "t": 30666.636000000042,
      "d": 222.22200000000157,
      "v": 127
    },
    {
      "midi": 64,
      "hit": false,
      "t": 30666.63600000009,
      "d": 222.22200000000157,
      "v": 127
    },
    {
      "midi": 80,
      "hit": false,
      "t": 30888.858000000044,
      "d": 222.22200000000157,
      "v": 127
    },
    {
      "midi": 69,
      "hit": false,
      "t": 30888.85800000009,
      "d": 222.22200000000157,
      "v": 127
    },
    {
      "midi": 78,
      "hit": false,
      "t": 31111.080000000045,
      "d": 222.22200000000157,
      "v": 127
    },
    {
      "midi": 64,
      "hit": false,
      "t": 31111.080000000093,
      "d": 222.22200000000157,
      "v": 127
    },
    {
      "midi": 76,
      "hit": false,
      "t": 31333.302000000047,
      "d": 222.22200000000157,
      "v": 127
    },
    {
      "midi": 59,
      "hit": false,
      "t": 31333.302000000094,
      "d": 222.22200000000157,
      "v": 127
    },
    {
      "midi": 78,
      "hit": false,
      "t": 31555.52400000005,
      "d": 222.22200000000157,
      "v": 127
    },
    {
      "midi": 57,
      "hit": false,
      "t": 31555.524000000096,
      "d": 222.22200000000157,
      "v": 127
    },
    {
      "midi": 78,
      "hit": false,
      "t": 31777.74600000005,
      "d": 222.22200000000157,
      "v": 127
    },
    {
      "midi": 54,
      "hit": false,
      "t": 31777.746000000097,
      "d": 222.22200000000157,
      "v": 127
    },
    {
      "midi": 47,
      "hit": false,
      "t": 31999.9680000001,
      "d": 222.22200000000157,
      "v": 127
    },
    {
      "midi": 54,
      "hit": false,
      "t": 32222.1900000001,
      "d": 222.22200000000157,
      "v": 127
    },
    {
      "midi": 71,
      "hit": false,
      "t": 32444.41200000005,
      "d": 888.8880000000026,
      "v": 127
    },
    {
      "midi": 59,
      "hit": false,
      "t": 32444.412000000102,
      "d": 222.22200000000157,
      "v": 127
    },
    {
      "midi": 61,
      "hit": false,
      "t": 32666.634000000104,
      "d": 222.22199999999793,
      "v": 127
    },
    {
      "midi": 66,
      "hit": false,
      "t": 32888.8560000001,
      "d": 222.22200000000157,
      "v": 127
    },
    {
      "midi": 71,
      "hit": false,
      "t": 33111.0780000001,
      "d": 222.22200000000157,
      "v": 127
    },
    {
      "midi": 66,
      "hit": false,
      "t": 33333.300000000105,
      "d": 222.22200000000157,
      "v": 127
    },
    {
      "midi": 73,
      "hit": false,
      "t": 33555.522000000055,
      "d": 444.44400000000314,
      "v": 127
    },
    {
      "midi": 61,
      "hit": false,
      "t": 33555.522000000106,
      "d": 222.22200000000157,
      "v": 127
    },
    {
      "midi": 59,
      "hit": false,
      "t": 33777.74400000011,
      "d": 222.22200000000157,
      "v": 127
    },
    {
      "midi": 54,
      "hit": false,
      "t": 33999.96600000011,
      "d": 222.22200000000157,
      "v": 127
    },
    {
      "midi": 71,
      "hit": false,
      "t": 34111.077000000056,
      "d": 111.11099999999715,
      "v": 127
    },
    {
      "midi": 74,
      "hit": false,
      "t": 34222.18800000005,
      "d": 444.44400000000314,
      "v": 127
    },
    {
      "midi": 47,
      "hit": false,
      "t": 34222.18800000011,
      "d": 222.22200000000157,
      "v": 127
    },
    {
      "midi": 54,
      "hit": false,
      "t": 34444.41000000011,
      "d": 222.22200000000157,
      "v": 127
    },
    {
      "midi": 76,
      "hit": false,
      "t": 34666.632000000056,
      "d": 222.22200000000157,
      "v": 127
    },
    {
      "midi": 57,
      "hit": false,
      "t": 34666.632000000114,
      "d": 222.22200000000157,
      "v": 127
    },
    {
      "midi": 73,
      "hit": false,
      "t": 34888.85400000006,
      "d": 888.887999999999,
      "v": 127
    },
    {
      "midi": 59,
      "hit": false,
      "t": 34888.854000000116,
      "d": 222.22200000000157,
      "v": 127
    },
    {
      "midi": 64,
      "hit": false,
      "t": 35111.07600000012,
      "d": 222.22200000000157,
      "v": 127
    },
    {
      "midi": 69,
      "hit": false,
      "t": 35333.29800000012,
      "d": 222.22200000000157,
      "v": 127
    },
    {
      "midi": 64,
      "hit": false,
      "t": 35555.52000000012,
      "d": 222.22200000000157,
      "v": 127
    },
    {
      "midi": 71,
      "hit": false,
      "t": 35777.74200000006,
      "d": 222.22200000000157,
      "v": 127
    },
    {
      "midi": 59,
      "hit": false,
      "t": 35777.74200000012,
      "d": 222.22200000000157,
      "v": 127
    },
    {
      "midi": 73,
      "hit": false,
      "t": 35999.96400000006,
      "d": 222.22200000000157,
      "v": 127
    },
    {
      "midi": 57,
      "hit": false,
      "t": 35999.96400000012,
      "d": 222.22200000000157,
      "v": 127
    },
    {
      "midi": 74,
      "hit": false,
      "t": 36222.18600000006,
      "d": 222.22200000000157,
      "v": 127
    },
    {
      "midi": 52,
      "hit": false,
      "t": 36222.186000000125,
      "d": 222.22200000000157,
      "v": 127
    },
    {
      "midi": 73,
      "hit": false,
      "t": 36444.40800000006,
      "d": 222.22200000000157,
      "v": 127
    },
    {
      "midi": 45,
      "hit": false,
      "t": 36444.40800000013,
      "d": 222.22200000000157,
      "v": 127
    },
    {
      "midi": 74,
      "hit": false,
      "t": 36666.63000000006,
      "d": 111.11099999999715,
      "v": 127
    },
    {
      "midi": 52,
      "hit": false,
      "t": 36666.63000000013,
      "d": 222.22200000000157,
      "v": 127
    },
    {
      "midi": 71,
      "hit": false,
      "t": 36777.74100000006,
      "d": 111.11099999999715,
      "v": 127
    },
    {
      "midi": 73,
      "hit": false,
      "t": 36777.74100000006,
      "d": 111.11099999999715,
      "v": 127
    },
    {
      "midi": 69,
      "hit": false,
      "t": 36888.85200000006,
      "d": 888.887999999999,
      "v": 127
    },
    {
      "midi": 57,
      "hit": false,
      "t": 36888.85200000013,
      "d": 222.22200000000157,
      "v": 127
    },
    {
      "midi": 59,
      "hit": false,
      "t": 37111.07400000013,
      "d": 222.22200000000157,
      "v": 127
    },
    {
      "midi": 64,
      "hit": false,
      "t": 37333.29600000013,
      "d": 222.22200000000157,
      "v": 127
    },
    {
      "midi": 69,
      "hit": false,
      "t": 37555.518000000135,
      "d": 222.22200000000157,
      "v": 127
    },
    {
      "midi": 64,
      "hit": false,
      "t": 37777.740000000136,
      "d": 222.22200000000157,
      "v": 127
    },
    {
      "midi": 71,
      "hit": false,
      "t": 37999.96200000006,
      "d": 444.44400000000314,
      "v": 127
    },
    {
      "midi": 59,
      "hit": false,
      "t": 37999.96200000014,
      "d": 222.22200000000157,
      "v": 127
    },
    {
      "midi": 57,
      "hit": false,
      "t": 38222.18400000014,
      "d": 222.22200000000157,
      "v": 127
    },
    {
      "midi": 73,
      "hit": false,
      "t": 38444.40600000006,
      "d": 222.22200000000157,
      "v": 127
    },
    {
      "midi": 52,
      "hit": false,
      "t": 38444.40600000014,
      "d": 222.22200000000157,
      "v": 127
    },
    {
      "midi": 74,
      "hit": false,
      "t": 38666.62800000006,
      "d": 222.22200000000157,
      "v": 127
    },
    {
      "midi": 43,
      "hit": false,
      "t": 38666.62800000014,
      "d": 222.22200000000157,
      "v": 127
    },
    {
      "midi": 73,
      "hit": false,
      "t": 38888.850000000064,
      "d": 222.22200000000157,
      "v": 127
    },
    {
      "midi": 50,
      "hit": false,
      "t": 38888.850000000144,
      "d": 222.22200000000157,
      "v": 127
    },
    {
      "midi": 71,
      "hit": false,
      "t": 39111.072000000066,
      "d": 222.22200000000157,
      "v": 127
    },
    {
      "midi": 55,
      "hit": false,
      "t": 39111.072000000146,
      "d": 222.22200000000157,
      "v": 127
    },
    {
      "midi": 69,
      "hit": false,
      "t": 39333.29400000007,
      "d": 444.44400000000314,
      "v": 127
    },
    {
      "midi": 57,
      "hit": false,
      "t": 39333.29400000015,
      "d": 222.22200000000157,
      "v": 127
    },
    {
      "midi": 62,
      "hit": false,
      "t": 39555.51600000015,
      "d": 222.22200000000157,
      "v": 127
    },
    {
      "midi": 69,
      "hit": false,
      "t": 39777.73800000007,
      "d": 222.22200000000157,
      "v": 127
    },
    {
      "midi": 67,
      "hit": false,
      "t": 39777.73800000015,
      "d": 222.22200000000157,
      "v": 127
    },
    {
      "midi": 71,
      "hit": false,
      "t": 39999.96000000007,
      "d": 222.22200000000157,
      "v": 127
    },
    {
      "midi": 62,
      "hit": false,
      "t": 39999.96000000015,
      "d": 222.22200000000157,
      "v": 127
    },
    {
      "midi": 67,
      "hit": false,
      "t": 40222.18200000007,
      "d": 222.22200000000157,
      "v": 127
    },
    {
      "midi": 57,
      "hit": false,
      "t": 40222.18200000015,
      "d": 222.22200000000157,
      "v": 127
    },
    {
      "midi": 69,
      "hit": false,
      "t": 40444.404000000075,
      "d": 222.22200000000157,
      "v": 127
    },
    {
      "midi": 55,
      "hit": false,
      "t": 40444.404000000155,
      "d": 222.22200000000157,
      "v": 127
    },
    {
      "midi": 71,
      "hit": false,
      "t": 40666.62600000008,
      "d": 222.22200000000157,
      "v": 127
    },
    {
      "midi": 50,
      "hit": false,
      "t": 40666.62600000016,
      "d": 222.22200000000157,
      "v": 127
    },
    {
      "midi": 64,
      "hit": false,
      "t": 40888.84800000008,
      "d": 666.6659999999974,
      "v": 127
    },
    {
      "midi": 69,
      "hit": false,
      "t": 40888.84800000008,
      "d": 666.6659999999974,
      "v": 127
    },
    {
      "midi": 71,
      "hit": false,
      "t": 40888.84800000008,
      "d": 666.6659999999974,
      "v": 127
    },
    {
      "midi": 76,
      "hit": false,
      "t": 40888.84800000008,
      "d": 666.6659999999974,
      "v": 127
    },
    {
      "midi": 42,
      "hit": false,
      "t": 40888.84800000016,
      "d": 222.22200000000157,
      "v": 127
    },
    {
      "midi": 49,
      "hit": false,
      "t": 41111.07000000016,
      "d": 222.22200000000157,
      "v": 127
    },
    {
      "midi": 54,
      "hit": false,
      "t": 41333.29200000016,
      "d": 222.22200000000157,
      "v": 127
    },
    {
      "midi": 66,
      "hit": false,
      "t": 41555.514000000076,
      "d": 1333.3320000000022,
      "v": 127
    },
    {
      "midi": 71,
      "hit": false,
      "t": 41555.514000000076,
      "d": 1333.3320000000022,
      "v": 127
    },
    {
      "midi": 76,
      "hit": false,
      "t": 41555.514000000076,
      "d": 1333.3320000000022,
      "v": 127
    },
    {
      "midi": 56,
      "hit": false,
      "t": 41555.51400000016,
      "d": 222.22200000000157,
      "v": 127
    },
    {
      "midi": 61,
      "hit": false,
      "t": 41777.736000000164,
      "d": 222.22200000000157,
      "v": 127
    },
    {
      "midi": 66,
      "hit": false,
      "t": 41999.958000000166,
      "d": 222.22200000000157,
      "v": 127
    },
    {
      "midi": 61,
      "hit": false,
      "t": 42222.18000000017,
      "d": 222.22200000000157,
      "v": 127
    },
    {
      "midi": 56,
      "hit": false,
      "t": 42444.40200000017,
      "d": 222.22200000000157,
      "v": 127
    },
    {
      "midi": 54,
      "hit": false,
      "t": 42666.62400000017,
      "d": 222.22200000000157,
      "v": 127
    },
    {
      "midi": 49,
      "hit": false,
      "t": 42888.84600000017,
      "d": 222.22200000000157,
      "v": 127
    },
    {
      "midi": 64,
      "hit": false,
      "t": 43111.06800000008,
      "d": 666.6659999999974,
      "v": 127
    },
    {
      "midi": 69,
      "hit": false,
      "t": 43111.06800000008,
      "d": 666.6659999999974,
      "v": 127
    },
    {
      "midi": 71,
      "hit": false,
      "t": 43111.06800000008,
      "d": 666.6659999999974,
      "v": 127
    },
    {
      "midi": 76,
      "hit": false,
      "t": 43111.06800000008,
      "d": 666.6659999999974,
      "v": 127
    },
    {
      "midi": 42,
      "hit": false,
      "t": 43111.068000000174,
      "d": 222.22200000000157,
      "v": 127
    },
    {
      "midi": 49,
      "hit": false,
      "t": 43333.290000000175,
      "d": 222.22200000000157,
      "v": 127
    },
    {
      "midi": 54,
      "hit": false,
      "t": 43555.51200000018,
      "d": 222.22200000000157,
      "v": 127
    },
    {
      "midi": 66,
      "hit": false,
      "t": 43777.73400000008,
      "d": 888.887999999999,
      "v": 127
    },
    {
      "midi": 71,
      "hit": false,
      "t": 43777.73400000008,
      "d": 888.887999999999,
      "v": 127
    },
    {
      "midi": 76,
      "hit": false,
      "t": 43777.73400000008,
      "d": 888.887999999999,
      "v": 127
    },
    {
      "midi": 56,
      "hit": false,
      "t": 43777.73400000018,
      "d": 222.22200000000157,
      "v": 127
    },
    {
      "midi": 61,
      "hit": false,
      "t": 43999.95600000018,
      "d": 222.22200000000157,
      "v": 127
    },
    {
      "midi": 66,
      "hit": false,
      "t": 44222.17800000018,
      "d": 222.22200000000157,
      "v": 127
    },
    {
      "midi": 61,
      "hit": false,
      "t": 44444.40000000018,
      "d": 222.22200000000157,
      "v": 127
    },
    {
      "midi": 56,
      "hit": false,
      "t": 44666.622000000185,
      "d": 222.22200000000157,
      "v": 127
    },
    {
      "midi": 69,
      "hit": false,
      "t": 44888.84400000008,
      "d": 222.22200000000157,
      "v": 127
    },
    {
      "midi": 54,
      "hit": false,
      "t": 44888.84400000019,
      "d": 222.22200000000157,
      "v": 127
    },
    {
      "midi": 71,
      "hit": false,
      "t": 45111.06600000008,
      "d": 222.22200000000157,
      "v": 127
    },
    {
      "midi": 49,
      "hit": false,
      "t": 45111.06600000019,
      "d": 222.22200000000157,
      "v": 127
    },
    {
      "midi": 71,
      "hit": false,
      "t": 45333.28800000008,
      "d": 444.44400000000314,
      "v": 127
    },
    {
      "midi": 47,
      "hit": false,
      "t": 45333.28800000019,
      "d": 222.22200000000157,
      "v": 127
    },
    {
      "midi": 54,
      "hit": false,
      "t": 45555.51000000019,
      "d": 222.22200000000157,
      "v": 127
    },
    {
      "midi": 59,
      "hit": false,
      "t": 45777.73200000019,
      "d": 222.22200000000157,
      "v": 127
    },
    {
      "midi": 78,
      "hit": false,
      "t": 45888.84300000008,
      "d": 111.11099999999715,
      "v": 127
    },
    {
      "midi": 74,
      "hit": false,
      "t": 45999.95400000008,
      "d": 666.6659999999974,
      "v": 127
    },
    {
      "midi": 61,
      "hit": false,
      "t": 45999.954000000194,
      "d": 222.22200000000157,
      "v": 127
    },
    {
      "midi": 66,
      "hit": false,
      "t": 46222.176000000196,
      "d": 222.22200000000157,
      "v": 127
    },
    {
      "midi": 71,
      "hit": false,
      "t": 46444.3980000002,
      "d": 222.22200000000157,
      "v": 127
    },
    {
      "midi": 76,
      "hit": false,
      "t": 46666.620000000075,
      "d": 888.887999999999,
      "v": 127
    },
    {
      "midi": 66,
      "hit": false,
      "t": 46666.6200000002,
      "d": 222.22200000000157,
      "v": 127
    },
    {
      "midi": 61,
      "hit": false,
      "t": 46888.8420000002,
      "d": 222.22200000000157,
      "v": 127
    },
    {
      "midi": 59,
      "hit": false,
      "t": 47111.0640000002,
      "d": 222.22200000000157,
      "v": 127
    },
    {
      "midi": 54,
      "hit": false,
      "t": 47333.286000000204,
      "d": 222.22200000000157,
      "v": 127
    },
    {
      "midi": 47,
      "hit": false,
      "t": 47555.508000000205,
      "d": 222.22200000000157,
      "v": 127
    },
    {
      "midi": 54,
      "hit": false,
      "t": 47777.73000000021,
      "d": 222.22200000000157,
      "v": 127
    },
    {
      "midi": 59,
      "hit": false,
      "t": 47999.95200000021,
      "d": 222.22200000000157,
      "v": 127
    },
    {
      "midi": 78,
      "hit": false,
      "t": 48111.063000000075,
      "d": 111.11099999999715,
      "v": 127
    },
    {
      "midi": 74,
      "hit": false,
      "t": 48222.17400000007,
      "d": 666.6659999999974,
      "v": 127
    },
    {
      "midi": 61,
      "hit": false,
      "t": 48222.17400000021,
      "d": 222.22200000000157,
      "v": 127
    },
    {
      "midi": 66,
      "hit": false,
      "t": 48444.39600000021,
      "d": 222.22200000000157,
      "v": 127
    },
    {
      "midi": 71,
      "hit": false,
      "t": 48666.61800000021,
      "d": 222.22200000000157,
      "v": 127
    },
    {
      "midi": 68,
      "hit": false,
      "t": 48888.84000000007,
      "d": 888.887999999999,
      "v": 127
    },
    {
      "midi": 73,
      "hit": false,
      "t": 48888.84000000007,
      "d": 888.887999999999,
      "v": 127
    },
    {
      "midi": 76,
      "hit": false,
      "t": 48888.84000000007,
      "d": 888.887999999999,
      "v": 127
    },
    {
      "midi": 66,
      "hit": false,
      "t": 48888.840000000215,
      "d": 222.22200000000157,
      "v": 127
    },
    {
      "midi": 61,
      "hit": false,
      "t": 49111.062000000216,
      "d": 222.22200000000157,
      "v": 127
    },
    {
      "midi": 59,
      "hit": false,
      "t": 49333.28400000022,
      "d": 222.22200000000157,
      "v": 127
    },
    {
      "midi": 54,
      "hit": false,
      "t": 49555.50600000022,
      "d": 222.22200000000157,
      "v": 127
    },
    {
      "midi": 62,
      "hit": false,
      "t": 49777.72800000007,
      "d": 666.6659999999974,
      "v": 127
    },
    {
      "midi": 67,
      "hit": false,
      "t": 49777.72800000007,
      "d": 666.6659999999974,
      "v": 127
    },
    {
      "midi": 69,
      "hit": false,
      "t": 49777.72800000007,
      "d": 666.6659999999974,
      "v": 127
    },
    {
      "midi": 74,
      "hit": false,
      "t": 49777.72800000007,
      "d": 666.6659999999974,
      "v": 127
    },
    {
      "midi": 40,
      "hit": false,
      "t": 49777.72800000022,
      "d": 222.22200000000157,
      "v": 127
    },
    {
      "midi": 47,
      "hit": false,
      "t": 49999.95000000022,
      "d": 222.22200000000157,
      "v": 127
    },
    {
      "midi": 52,
      "hit": false,
      "t": 50222.172000000224,
      "d": 222.22200000000157,
      "v": 127
    },
    {
      "midi": 66,
      "hit": false,
      "t": 50444.394000000066,
      "d": 666.6659999999974,
      "v": 127
    },
    {
      "midi": 74,
      "hit": false,
      "t": 50444.394000000066,
      "d": 666.6659999999974,
      "v": 127
    },
    {
      "midi": 54,
      "hit": false,
      "t": 50444.394000000226,
      "d": 222.22200000000157,
      "v": 127
    },
    {
      "midi": 59,
      "hit": false,
      "t": 50666.61600000023,
      "d": 222.22200000000157,
      "v": 127
    },
    {
      "midi": 64,
      "hit": false,
      "t": 50888.83800000023,
      "d": 222.22200000000157,
      "v": 127
    },
    {
      "midi": 69,
      "hit": false,
      "t": 51111.06000000006,
      "d": 222.22200000000157,
      "v": 127
    },
    {
      "midi": 59,
      "hit": false,
      "t": 51111.06000000023,
      "d": 222.22200000000157,
      "v": 127
    },
    {
      "midi": 71,
      "hit": false,
      "t": 51333.282000000065,
      "d": 222.22200000000157,
      "v": 127
    },
    {
      "midi": 54,
      "hit": false,
      "t": 51333.28200000023,
      "d": 222.22200000000157,
      "v": 127
    },
    {
      "midi": 73,
      "hit": false,
      "t": 51555.504000000066,
      "d": 222.22200000000157,
      "v": 127
    },
    {
      "midi": 52,
      "hit": false,
      "t": 51555.504000000234,
      "d": 222.22200000000157,
      "v": 127
    },
    {
      "midi": 64,
      "hit": false,
      "t": 51777.72600000007,
      "d": 222.22200000000157,
      "v": 127
    },
    {
      "midi": 69,
      "hit": false,
      "t": 51777.72600000007,
      "d": 222.22200000000157,
      "v": 127
    },
    {
      "midi": 74,
      "hit": false,
      "t": 51777.72600000007,
      "d": 222.22200000000157,
      "v": 127
    },
    {
      "midi": 47,
      "hit": false,
      "t": 51777.726000000235,
      "d": 222.22200000000157,
      "v": 127
    },
    {
      "midi": 42,
      "hit": false,
      "t": 51999.94800000024,
      "d": 222.22200000000157,
      "v": 127
    },
    {
      "midi": 76,
      "hit": false,
      "t": 52222.17000000007,
      "d": 222.22200000000157,
      "v": 127
    },
    {
      "midi": 49,
      "hit": false,
      "t": 52222.17000000024,
      "d": 222.22200000000157,
      "v": 127
    },
    {
      "midi": 73,
      "hit": false,
      "t": 52444.39200000007,
      "d": 444.44400000000314,
      "v": 127
    },
    {
      "midi": 54,
      "hit": false,
      "t": 52444.39200000024,
      "d": 222.22200000000157,
      "v": 127
    },
    {
      "midi": 56,
      "hit": false,
      "t": 52666.61400000024,
      "d": 222.22200000000157,
      "v": 127
    },
    {
      "midi": 71,
      "hit": false,
      "t": 52888.836000000076,
      "d": 222.22200000000157,
      "v": 127
    },
    {
      "midi": 76,
      "hit": false,
      "t": 52888.836000000076,
      "d": 222.22200000000157,
      "v": 127
    },
    {
      "midi": 61,
      "hit": false,
      "t": 52888.83600000024,
      "d": 222.22200000000157,
      "v": 127
    },
    {
      "midi": 73,
      "hit": false,
      "t": 53111.05800000008,
      "d": 222.22200000000157,
      "v": 127
    },
    {
      "midi": 66,
      "hit": false,
      "t": 53111.058000000245,
      "d": 222.22200000000157,
      "v": 127
    },
    {
      "midi": 69,
      "hit": false,
      "t": 53333.28000000008,
      "d": 222.22200000000157,
      "v": 127
    },
    {
      "midi": 61,
      "hit": false,
      "t": 53333.280000000246,
      "d": 222.22200000000157,
      "v": 127
    },
    {
      "midi": 71,
      "hit": false,
      "t": 53555.50200000008,
      "d": 222.22200000000157,
      "v": 127
    },
    {
      "midi": 56,
      "hit": false,
      "t": 53555.50200000025,
      "d": 222.22200000000157,
      "v": 127
    },
    {
      "midi": 69,
      "hit": false,
      "t": 53777.72400000008,
      "d": 222.22200000000157,
      "v": 127
    },
    {
      "midi": 54,
      "hit": false,
      "t": 53777.72400000025,
      "d": 222.22200000000157,
      "v": 127
    },
    {
      "midi": 71,
      "hit": false,
      "t": 53999.94600000008,
      "d": 222.22200000000157,
      "v": 127
    },
    {
      "midi": 49,
      "hit": false,
      "t": 53999.94600000025,
      "d": 222.22200000000157,
      "v": 127
    },
    {
      "midi": 47,
      "hit": false,
      "t": 54222.16800000025,
      "d": 222.22200000000157,
      "v": 127
    },
    {
      "midi": 54,
      "hit": false,
      "t": 54444.390000000254,
      "d": 222.22200000000157,
      "v": 127
    },
    {
      "midi": 59,
      "hit": false,
      "t": 54666.612000000256,
      "d": 222.22200000000157,
      "v": 127
    },
    {
      "midi": 78,
      "hit": false,
      "t": 54777.723000000085,
      "d": 111.11099999999715,
      "v": 127
    },
    {
      "midi": 74,
      "hit": false,
      "t": 54888.83400000008,
      "d": 666.6659999999974,
      "v": 127
    },
    {
      "midi": 61,
      "hit": false,
      "t": 54888.83400000026,
      "d": 222.22200000000157,
      "v": 127
    },
    {
      "midi": 66,
      "hit": false,
      "t": 55111.05600000026,
      "d": 222.22200000000157,
      "v": 127
    },
    {
      "midi": 71,
      "hit": false,
      "t": 55333.27800000026,
      "d": 222.22200000000157,
      "v": 127
    },
    {
      "midi": 76,
      "hit": false,
      "t": 55555.50000000008,
      "d": 888.887999999999,
      "v": 127
    },
    {
      "midi": 66,
      "hit": false,
      "t": 55555.50000000026,
      "d": 222.22200000000157,
      "v": 127
    },
    {
      "midi": 61,
      "hit": false,
      "t": 55777.72200000026,
      "d": 222.22200000000157,
      "v": 127
    },
    {
      "midi": 59,
      "hit": false,
      "t": 55999.944000000265,
      "d": 222.22200000000157,
      "v": 127
    },
    {
      "midi": 54,
      "hit": false,
      "t": 56222.16600000027,
      "d": 222.22200000000157,
      "v": 127
    },
    {
      "midi": 47,
      "hit": false,
      "t": 56444.38800000027,
      "d": 222.22200000000157,
      "v": 127
    },
    {
      "midi": 54,
      "hit": false,
      "t": 56666.61000000027,
      "d": 222.22200000000157,
      "v": 127
    },
    {
      "midi": 59,
      "hit": false,
      "t": 56888.83200000027,
      "d": 222.22200000000157,
      "v": 127
    },
    {
      "midi": 78,
      "hit": false,
      "t": 56999.94300000008,
      "d": 111.11099999999715,
      "v": 127
    },
    {
      "midi": 74,
      "hit": false,
      "t": 57111.05400000008,
      "d": 666.6659999999974,
      "v": 127
    },
    {
      "midi": 61,
      "hit": false,
      "t": 57111.05400000027,
      "d": 222.22200000000157,
      "v": 127
    },
    {
      "midi": 66,
      "hit": false,
      "t": 57333.276000000275,
      "d": 222.22200000000157,
      "v": 127
    },
    {
      "midi": 71,
      "hit": false,
      "t": 57555.498000000276,
      "d": 222.22200000000157,
      "v": 127
    },
    {
      "midi": 68,
      "hit": false,
      "t": 57777.720000000074,
      "d": 888.887999999999,
      "v": 127
    },
    {
      "midi": 73,
      "hit": false,
      "t": 57777.720000000074,
      "d": 888.887999999999,
      "v": 127
    },
    {
      "midi": 76,
      "hit": false,
      "t": 57777.720000000074,
      "d": 888.887999999999,
      "v": 127
    },
    {
      "midi": 66,
      "hit": false,
      "t": 57777.72000000028,
      "d": 222.22200000000157,
      "v": 127
    },
    {
      "midi": 61,
      "hit": false,
      "t": 57999.94200000028,
      "d": 222.22200000000157,
      "v": 127
    },
    {
      "midi": 59,
      "hit": false,
      "t": 58222.16400000028,
      "d": 222.22200000000157,
      "v": 127
    },
    {
      "midi": 54,
      "hit": false,
      "t": 58444.38600000028,
      "d": 222.22200000000157,
      "v": 127
    },
    {
      "midi": 62,
      "hit": false,
      "t": 58666.60800000007,
      "d": 666.6659999999974,
      "v": 127
    },
    {
      "midi": 67,
      "hit": false,
      "t": 58666.60800000007,
      "d": 666.6659999999974,
      "v": 127
    },
    {
      "midi": 69,
      "hit": false,
      "t": 58666.60800000007,
      "d": 666.6659999999974,
      "v": 127
    },
    {
      "midi": 74,
      "hit": false,
      "t": 58666.60800000007,
      "d": 666.6659999999974,
      "v": 127
    },
    {
      "midi": 40,
      "hit": false,
      "t": 58666.608000000284,
      "d": 222.22200000000157,
      "v": 127
    },
    {
      "midi": 47,
      "hit": false,
      "t": 58888.830000000286,
      "d": 222.22200000000157,
      "v": 127
    },
    {
      "midi": 52,
      "hit": false,
      "t": 59111.05200000029,
      "d": 222.22200000000157,
      "v": 127
    },
    {
      "midi": 66,
      "hit": false,
      "t": 59333.27400000007,
      "d": 666.6659999999974,
      "v": 127
    },
    {
      "midi": 74,
      "hit": false,
      "t": 59333.27400000007,
      "d": 666.6659999999974,
      "v": 127
    },
    {
      "midi": 54,
      "hit": false,
      "t": 59333.27400000029,
      "d": 222.22200000000157,
      "v": 127
    },
    {
      "midi": 59,
      "hit": false,
      "t": 59555.49600000029,
      "d": 222.22200000000157,
      "v": 127
    },
    {
      "midi": 64,
      "hit": false,
      "t": 59777.71800000029,
      "d": 222.22200000000157,
      "v": 127
    },
    {
      "midi": 69,
      "hit": false,
      "t": 59999.94000000007,
      "d": 222.22200000000157,
      "v": 127
    },
    {
      "midi": 59,
      "hit": false,
      "t": 59999.94000000029,
      "d": 222.22200000000157,
      "v": 127
    },
    {
      "midi": 71,
      "hit": false,
      "t": 60222.16200000007,
      "d": 222.22200000000157,
      "v": 127
    },
    {
      "midi": 54,
      "hit": false,
      "t": 60222.162000000295,
      "d": 222.22200000000157,
      "v": 127
    },
    {
      "midi": 73,
      "hit": false,
      "t": 60444.38400000007,
      "d": 222.22200000000157,
      "v": 127
    },
    {
      "midi": 52,
      "hit": false,
      "t": 60444.3840000003,
      "d": 222.22200000000157,
      "v": 127
    },
    {
      "midi": 64,
      "hit": false,
      "t": 60666.60600000007,
      "d": 222.22200000000157,
      "v": 127
    },
    {
      "midi": 69,
      "hit": false,
      "t": 60666.60600000007,
      "d": 222.22200000000157,
      "v": 127
    },
    {
      "midi": 74,
      "hit": false,
      "t": 60666.60600000007,
      "d": 222.22200000000157,
      "v": 127
    },
    {
      "midi": 47,
      "hit": false,
      "t": 60666.6060000003,
      "d": 222.22200000000157,
      "v": 127
    },
    {
      "midi": 42,
      "hit": false,
      "t": 60888.8280000003,
      "d": 222.22200000000157,
      "v": 127
    },
    {
      "midi": 76,
      "hit": false,
      "t": 61111.050000000076,
      "d": 222.22200000000157,
      "v": 127
    },
    {
      "midi": 49,
      "hit": false,
      "t": 61111.0500000003,
      "d": 222.22200000000157,
      "v": 127
    },
    {
      "midi": 71,
      "hit": false,
      "t": 61333.27200000008,
      "d": 222.22200000000157,
      "v": 127
    },
    {
      "midi": 54,
      "hit": false,
      "t": 61333.2720000003,
      "d": 222.22200000000157,
      "v": 127
    },
    {
      "midi": 73,
      "hit": false,
      "t": 61555.49400000008,
      "d": 222.22200000000157,
      "v": 127
    },
    {
      "midi": 56,
      "hit": false,
      "t": 61555.494000000304,
      "d": 222.22200000000157,
      "v": 127
    },
    {
      "midi": 69,
      "hit": false,
      "t": 61777.71600000008,
      "d": 222.22200000000157,
      "v": 127
    },
    {
      "midi": 61,
      "hit": false,
      "t": 61777.716000000306,
      "d": 222.22200000000157,
      "v": 127
    },
    {
      "midi": 78,
      "hit": false,
      "t": 61999.93800000008,
      "d": 222.22200000000157,
      "v": 127
    },
    {
      "midi": 66,
      "hit": false,
      "t": 61999.93800000031,
      "d": 222.22200000000157,
      "v": 127
    },
    {
      "midi": 71,
      "hit": false,
      "t": 62222.16000000008,
      "d": 222.22200000000157,
      "v": 127
    },
    {
      "midi": 61,
      "hit": false,
      "t": 62222.16000000031,
      "d": 222.22200000000157,
      "v": 127
    },
    {
      "midi": 73,
      "hit": false,
      "t": 62444.382000000085,
      "d": 222.22200000000157,
      "v": 127
    },
    {
      "midi": 56,
      "hit": false,
      "t": 62444.38200000031,
      "d": 222.22200000000157,
      "v": 127
    },
    {
      "midi": 69,
      "hit": false,
      "t": 62666.60400000009,
      "d": 222.22200000000157,
      "v": 127
    },
    {
      "midi": 54,
      "hit": false,
      "t": 62666.60400000031,
      "d": 222.22200000000157,
      "v": 127
    },
    {
      "midi": 71,
      "hit": false,
      "t": 62888.82600000009,
      "d": 222.22200000000157,
      "v": 127
    },
    {
      "midi": 49,
      "hit": false,
      "t": 62888.826000000314,
      "d": 222.22200000000157,
      "v": 127
    },
    {
      "midi": 47,
      "hit": false,
      "t": 63111.048000000315,
      "d": 222.22200000000157,
      "v": 127
    },
    {
      "midi": 54,
      "hit": false,
      "t": 63333.27000000032,
      "d": 222.22200000000157,
      "v": 127
    },
    {
      "midi": 59,
      "hit": false,
      "t": 63555.49200000032,
      "d": 222.22200000000157,
      "v": 127
    },
    {
      "midi": 78,
      "hit": false,
      "t": 63666.60300000009,
      "d": 111.11099999999715,
      "v": 127
    },
    {
      "midi": 74,
      "hit": false,
      "t": 63777.71400000009,
      "d": 666.6659999999974,
      "v": 127
    },
    {
      "midi": 61,
      "hit": false,
      "t": 63777.71400000032,
      "d": 222.22200000000157,
      "v": 127
    },
    {
      "midi": 66,
      "hit": false,
      "t": 63999.93600000032,
      "d": 222.22200000000157,
      "v": 127
    },
    {
      "midi": 71,
      "hit": false,
      "t": 64222.15800000032,
      "d": 222.22200000000157,
      "v": 127
    },
    {
      "midi": 76,
      "hit": false,
      "t": 64444.380000000085,
      "d": 888.887999999999,
      "v": 127
    },
    {
      "midi": 66,
      "hit": false,
      "t": 64444.380000000325,
      "d": 222.22200000000157,
      "v": 127
    },
    {
      "midi": 61,
      "hit": false,
      "t": 64666.60200000033,
      "d": 222.22200000000157,
      "v": 127
    },
    {
      "midi": 59,
      "hit": false,
      "t": 64888.82400000033,
      "d": 222.22200000000157,
      "v": 127
    },
    {
      "midi": 54,
      "hit": false,
      "t": 65111.04600000033,
      "d": 222.22200000000157,
      "v": 127
    },
    {
      "midi": 47,
      "hit": false,
      "t": 65333.26800000033,
      "d": 222.2219999999943,
      "v": 127
    },
    {
      "midi": 54,
      "hit": false,
      "t": 65555.49000000033,
      "d": 222.2219999999943,
      "v": 127
    },
    {
      "midi": 59,
      "hit": false,
      "t": 65777.71200000032,
      "d": 222.2219999999943,
      "v": 127
    },
    {
      "midi": 78,
      "hit": false,
      "t": 65888.82300000008,
      "d": 111.11100000000442,
      "v": 127
    },
    {
      "midi": 74,
      "hit": false,
      "t": 65999.93400000008,
      "d": 666.6659999999974,
      "v": 127
    },
    {
      "midi": 61,
      "hit": false,
      "t": 65999.93400000031,
      "d": 222.2219999999943,
      "v": 127
    },
    {
      "midi": 66,
      "hit": false,
      "t": 66222.15600000031,
      "d": 222.2219999999943,
      "v": 127
    },
    {
      "midi": 71,
      "hit": false,
      "t": 66444.3780000003,
      "d": 222.2219999999943,
      "v": 127
    },
    {
      "midi": 68,
      "hit": false,
      "t": 66666.60000000008,
      "d": 888.8880000000063,
      "v": 127
    },
    {
      "midi": 73,
      "hit": false,
      "t": 66666.60000000008,
      "d": 888.8880000000063,
      "v": 127
    },
    {
      "midi": 76,
      "hit": false,
      "t": 66666.60000000008,
      "d": 888.8880000000063,
      "v": 127
    },
    {
      "midi": 66,
      "hit": false,
      "t": 66666.6000000003,
      "d": 222.2219999999943,
      "v": 127
    },
    {
      "midi": 61,
      "hit": false,
      "t": 66888.82200000029,
      "d": 222.2219999999943,
      "v": 127
    },
    {
      "midi": 59,
      "hit": false,
      "t": 67111.04400000029,
      "d": 222.2219999999943,
      "v": 127
    },
    {
      "midi": 54,
      "hit": false,
      "t": 67333.26600000028,
      "d": 222.2219999999943,
      "v": 127
    },
    {
      "midi": 60,
      "hit": false,
      "t": 67555.48800000008,
      "d": 222.2219999999943,
      "v": 127
    },
    {
      "midi": 33,
      "hit": false,
      "t": 67555.48800000027,
      "d": 222.2219999999943,
      "v": 127
    },
    {
      "midi": 62,
      "hit": false,
      "t": 67777.71000000008,
      "d": 222.2219999999943,
      "v": 127
    },
    {
      "midi": 40,
      "hit": false,
      "t": 67777.71000000027,
      "d": 222.2219999999943,
      "v": 127
    },
    {
      "midi": 64,
      "hit": false,
      "t": 67999.93200000007,
      "d": 222.2219999999943,
      "v": 127
    },
    {
      "midi": 45,
      "hit": false,
      "t": 67999.93200000026,
      "d": 222.2219999999943,
      "v": 127
    },
    {
      "midi": 66,
      "hit": false,
      "t": 68222.15400000007,
      "d": 222.2219999999943,
      "v": 127
    },
    {
      "midi": 35,
      "hit": false,
      "t": 68222.15400000026,
      "d": 222.2219999999943,
      "v": 127
    },
    {
      "midi": 62,
      "hit": false,
      "t": 68444.37600000006,
      "d": 222.2219999999943,
      "v": 127
    },
    {
      "midi": 42,
      "hit": false,
      "t": 68444.37600000025,
      "d": 222.2219999999943,
      "v": 127
    },
    {
      "midi": 64,
      "hit": false,
      "t": 68666.59800000006,
      "d": 222.2219999999943,
      "v": 127
    },
    {
      "midi": 47,
      "hit": false,
      "t": 68666.59800000025,
      "d": 222.2219999999943,
      "v": 127
    },
    {
      "midi": 66,
      "hit": false,
      "t": 68888.82000000005,
      "d": 222.2219999999943,
      "v": 127
    },
    {
      "midi": 36,
      "hit": false,
      "t": 68888.82000000024,
      "d": 222.2219999999943,
      "v": 127
    },
    {
      "midi": 67,
      "hit": false,
      "t": 69111.04200000004,
      "d": 222.2219999999943,
      "v": 127
    },
    {
      "midi": 43,
      "hit": false,
      "t": 69111.04200000023,
      "d": 222.2219999999943,
      "v": 127
    },
    {
      "midi": 64,
      "hit": false,
      "t": 69333.26400000004,
      "d": 222.2219999999943,
      "v": 127
    },
    {
      "midi": 48,
      "hit": false,
      "t": 69333.26400000023,
      "d": 222.2219999999943,
      "v": 127
    },
    {
      "midi": 66,
      "hit": false,
      "t": 69555.48600000003,
      "d": 222.2219999999943,
      "v": 127
    },
    {
      "midi": 38,
      "hit": false,
      "t": 69555.48600000022,
      "d": 222.2219999999943,
      "v": 127
    },
    {
      "midi": 67,
      "hit": false,
      "t": 69777.70800000003,
      "d": 222.2219999999943,
      "v": 127
    },
    {
      "midi": 45,
      "hit": false,
      "t": 69777.70800000022,
      "d": 222.2219999999943,
      "v": 127
    },
    {
      "midi": 69,
      "hit": false,
      "t": 69999.93000000002,
      "d": 222.2219999999943,
      "v": 127
    },
    {
      "midi": 50,
      "hit": false,
      "t": 69999.93000000021,
      "d": 222.2219999999943,
      "v": 127
    },
    {
      "midi": 67,
      "hit": false,
      "t": 70222.15200000002,
      "d": 222.2219999999943,
      "v": 127
    },
    {
      "midi": 40,
      "hit": false,
      "t": 70222.1520000002,
      "d": 222.2219999999943,
      "v": 127
    },
    {
      "midi": 69,
      "hit": false,
      "t": 70444.37400000001,
      "d": 222.2219999999943,
      "v": 127
    },
    {
      "midi": 47,
      "hit": false,
      "t": 70444.3740000002,
      "d": 222.2219999999943,
      "v": 127
    },
    {
      "midi": 71,
      "hit": false,
      "t": 70666.596,
      "d": 222.2219999999943,
      "v": 127
    },
    {
      "midi": 52,
      "hit": false,
      "t": 70666.5960000002,
      "d": 222.2219999999943,
      "v": 127
    },
    {
      "midi": 73,
      "hit": false,
      "t": 70888.818,
      "d": 222.2219999999943,
      "v": 127
    },
    {
      "midi": 42,
      "hit": false,
      "t": 70888.81800000019,
      "d": 222.2219999999943,
      "v": 127
    },
    {
      "midi": 69,
      "hit": false,
      "t": 71111.04,
      "d": 222.2219999999943,
      "v": 127
    },
    {
      "midi": 49,
      "hit": false,
      "t": 71111.04000000018,
      "d": 222.2219999999943,
      "v": 127
    },
    {
      "midi": 71,
      "hit": false,
      "t": 71333.26199999999,
      "d": 222.2219999999943,
      "v": 127
    },
    {
      "midi": 54,
      "hit": false,
      "t": 71333.26200000018,
      "d": 222.2219999999943,
      "v": 127
    },
    {
      "midi": 73,
      "hit": false,
      "t": 71555.48399999998,
      "d": 222.2219999999943,
      "v": 127
    },
    {
      "midi": 43,
      "hit": false,
      "t": 71555.48400000017,
      "d": 222.2219999999943,
      "v": 127
    },
    {
      "midi": 74,
      "hit": false,
      "t": 71777.70599999998,
      "d": 222.2219999999943,
      "v": 127
    },
    {
      "midi": 50,
      "hit": false,
      "t": 71777.70600000017,
      "d": 222.2219999999943,
      "v": 127
    },
    {
      "midi": 71,
      "hit": false,
      "t": 71999.92799999997,
      "d": 222.2219999999943,
      "v": 127
    },
    {
      "midi": 55,
      "hit": false,
      "t": 71999.92800000016,
      "d": 222.2219999999943,
      "v": 127
    },
    {
      "midi": 73,
      "hit": false,
      "t": 72222.14999999997,
      "d": 222.2219999999943,
      "v": 127
    },
    {
      "midi": 45,
      "hit": false,
      "t": 72222.15000000015,
      "d": 222.2219999999943,
      "v": 127
    },
    {
      "midi": 74,
      "hit": false,
      "t": 72444.37199999996,
      "d": 222.2219999999943,
      "v": 127
    },
    {
      "midi": 52,
      "hit": false,
      "t": 72444.37200000015,
      "d": 222.2219999999943,
      "v": 127
    },
    {
      "midi": 76,
      "hit": false,
      "t": 72666.59399999995,
      "d": 222.2219999999943,
      "v": 127
    },
    {
      "midi": 57,
      "hit": false,
      "t": 72666.59400000014,
      "d": 222.2219999999943,
      "v": 127
    },
    {
      "midi": 69,
      "hit": false,
      "t": 72888.81599999995,
      "d": 666.6659999999974,
      "v": 127
    },
    {
      "midi": 72,
      "hit": false,
      "t": 72888.81599999995,
      "d": 666.6659999999974,
      "v": 127
    },
    {
      "midi": 77,
      "hit": false,
      "t": 72888.81599999995,
      "d": 666.6659999999974,
      "v": 127
    },
    {
      "midi": 38,
      "hit": false,
      "t": 72888.81600000014,
      "d": 222.2219999999943,
      "v": 127
    },
    {
      "midi": 45,
      "hit": false,
      "t": 73111.03800000013,
      "d": 222.2219999999943,
      "v": 127
    },
    {
      "midi": 50,
      "hit": false,
      "t": 73333.26000000013,
      "d": 222.2219999999943,
      "v": 127
    },
    {
      "midi": 67,
      "hit": false,
      "t": 73555.48199999995,
      "d": 1333.3319999999949,
      "v": 127
    },
    {
      "midi": 72,
      "hit": false,
      "t": 73555.48199999995,
      "d": 1333.3319999999949,
      "v": 127
    },
    {
      "midi": 76,
      "hit": false,
      "t": 73555.48199999995,
      "d": 1333.3319999999949,
      "v": 127
    },
    {
      "midi": 77,
      "hit": false,
      "t": 73555.48199999995,
      "d": 1333.3319999999949,
      "v": 127
    },
    {
      "midi": 52,
      "hit": false,
      "t": 73555.48200000012,
      "d": 222.2219999999943,
      "v": 127
    },
    {
      "midi": 57,
      "hit": false,
      "t": 73777.70400000011,
      "d": 222.2219999999943,
      "v": 127
    },
    {
      "midi": 62,
      "hit": false,
      "t": 73999.92600000011,
      "d": 222.2219999999943,
      "v": 127
    },
    {
      "midi": 57,
      "hit": false,
      "t": 74222.1480000001,
      "d": 222.2219999999943,
      "v": 127
    },
    {
      "midi": 52,
      "hit": false,
      "t": 74444.3700000001,
      "d": 222.2219999999943,
      "v": 127
    },
    {
      "midi": 50,
      "hit": false,
      "t": 74666.59200000009,
      "d": 222.2219999999943,
      "v": 127
    },
    {
      "midi": 45,
      "hit": false,
      "t": 74888.81400000009,
      "d": 222.2219999999943,
      "v": 127
    },
    {
      "midi": 60,
      "hit": false,
      "t": 75111.03599999993,
      "d": 666.6659999999974,
      "v": 127
    },
    {
      "midi": 64,
      "hit": false,
      "t": 75111.03599999993,
      "d": 666.6659999999974,
      "v": 127
    },
    {
      "midi": 65,
      "hit": false,
      "t": 75111.03599999993,
      "d": 666.6659999999974,
      "v": 127
    },
    {
      "midi": 69,
      "hit": false,
      "t": 75111.03599999993,
      "d": 666.6659999999974,
      "v": 127
    },
    {
      "midi": 38,
      "hit": false,
      "t": 75111.03600000008,
      "d": 222.2219999999943,
      "v": 127
    },
    {
      "midi": 45,
      "hit": false,
      "t": 75333.25800000007,
      "d": 222.2219999999943,
      "v": 127
    },
    {
      "midi": 50,
      "hit": false,
      "t": 75555.48000000007,
      "d": 222.2219999999943,
      "v": 127
    },
    {
      "midi": 59,
      "hit": false,
      "t": 75777.70199999993,
      "d": 1333.3319999999949,
      "v": 127
    },
    {
      "midi": 64,
      "hit": false,
      "t": 75777.70199999993,
      "d": 1333.3319999999949,
      "v": 127
    },
    {
      "midi": 67,
      "hit": false,
      "t": 75777.70199999993,
      "d": 1333.3319999999949,
      "v": 127
    },
    {
      "midi": 69,
      "hit": false,
      "t": 75777.70199999993,
      "d": 1333.3319999999949,
      "v": 127
    },
    {
      "midi": 52,
      "hit": false,
      "t": 75777.70200000006,
      "d": 222.2219999999943,
      "v": 127
    },
    {
      "midi": 57,
      "hit": false,
      "t": 75999.92400000006,
      "d": 222.2219999999943,
      "v": 127
    },
    {
      "midi": 62,
      "hit": false,
      "t": 76222.14600000005,
      "d": 222.2219999999943,
      "v": 127
    },
    {
      "midi": 57,
      "hit": false,
      "t": 76444.36800000005,
      "d": 222.2219999999943,
      "v": 127
    },
    {
      "midi": 52,
      "hit": false,
      "t": 76666.59000000004,
      "d": 222.2219999999943,
      "v": 127
    },
    {
      "midi": 50,
      "hit": false,
      "t": 76888.81200000003,
      "d": 222.2219999999943,
      "v": 127
    },
    {
      "midi": 45,
      "hit": false,
      "t": 77111.03400000003,
      "d": 222.2219999999943,
      "v": 127
    },
    {
      "midi": 62,
      "hit": false,
      "t": 77333.25599999992,
      "d": 666.6659999999974,
      "v": 127
    },
    {
      "midi": 67,
      "hit": false,
      "t": 77333.25599999992,
      "d": 666.6659999999974,
      "v": 127
    },
    {
      "midi": 69,
      "hit": false,
      "t": 77333.25599999992,
      "d": 666.6659999999974,
      "v": 127
    },
    {
      "midi": 74,
      "hit": false,
      "t": 77333.25599999992,
      "d": 666.6659999999974,
      "v": 127
    },
    {
      "midi": 40,
      "hit": false,
      "t": 77333.25600000002,
      "d": 222.2219999999943,
      "v": 127
    },
    {
      "midi": 47,
      "hit": false,
      "t": 77555.47800000002,
      "d": 222.2219999999943,
      "v": 127
    },
    {
      "midi": 52,
      "hit": false,
      "t": 77777.70000000001,
      "d": 222.2219999999943,
      "v": 127
    },
    {
      "midi": 66,
      "hit": false,
      "t": 77999.92199999992,
      "d": 666.6659999999974,
      "v": 127
    },
    {
      "midi": 74,
      "hit": false,
      "t": 77999.92199999992,
      "d": 666.6659999999974,
      "v": 127
    },
    {
      "midi": 54,
      "hit": false,
      "t": 77999.922,
      "d": 222.2219999999943,
      "v": 127
    },
    {
      "midi": 59,
      "hit": false,
      "t": 78222.144,
      "d": 222.2219999999943,
      "v": 127
    },
    {
      "midi": 64,
      "hit": false,
      "t": 78444.366,
      "d": 222.2219999999943,
      "v": 127
    },
    {
      "midi": 69,
      "hit": false,
      "t": 78666.58799999992,
      "d": 222.2219999999943,
      "v": 127
    },
    {
      "midi": 59,
      "hit": false,
      "t": 78666.58799999999,
      "d": 222.2219999999943,
      "v": 127
    },
    {
      "midi": 71,
      "hit": false,
      "t": 78888.80999999991,
      "d": 222.2219999999943,
      "v": 127
    },
    {
      "midi": 54,
      "hit": false,
      "t": 78888.80999999998,
      "d": 222.2219999999943,
      "v": 127
    },
    {
      "midi": 73,
      "hit": false,
      "t": 79111.0319999999,
      "d": 222.2219999999943,
      "v": 127
    },
    {
      "midi": 52,
      "hit": false,
      "t": 79111.03199999998,
      "d": 222.2219999999943,
      "v": 127
    },
    {
      "midi": 64,
      "hit": false,
      "t": 79333.2539999999,
      "d": 222.2219999999943,
      "v": 127
    },
    {
      "midi": 69,
      "hit": false,
      "t": 79333.2539999999,
      "d": 222.2219999999943,
      "v": 127
    },
    {
      "midi": 74,
      "hit": false,
      "t": 79333.2539999999,
      "d": 222.2219999999943,
      "v": 127
    },
    {
      "midi": 47,
      "hit": false,
      "t": 79333.25399999997,
      "d": 222.2219999999943,
      "v": 127
    },
    {
      "midi": 42,
      "hit": false,
      "t": 79555.47599999997,
      "d": 222.2219999999943,
      "v": 127
    },
    {
      "midi": 76,
      "hit": false,
      "t": 79777.69799999989,
      "d": 222.2219999999943,
      "v": 127
    },
    {
      "midi": 49,
      "hit": false,
      "t": 79777.69799999996,
      "d": 222.2219999999943,
      "v": 127
    },
    {
      "midi": 73,
      "hit": false,
      "t": 79999.91999999988,
      "d": 444.44400000000314,
      "v": 127
    },
    {
      "midi": 54,
      "hit": false,
      "t": 79999.91999999995,
      "d": 222.2219999999943,
      "v": 127
    },
    {
      "midi": 56,
      "hit": false,
      "t": 80222.14199999995,
      "d": 222.2219999999943,
      "v": 127
    },
    {
      "midi": 71,
      "hit": false,
      "t": 80444.36399999988,
      "d": 222.2219999999943,
      "v": 127
    },
    {
      "midi": 76,
      "hit": false,
      "t": 80444.36399999988,
      "d": 222.2219999999943,
      "v": 127
    },
    {
      "midi": 61,
      "hit": false,
      "t": 80444.36399999994,
      "d": 222.2219999999943,
      "v": 127
    },
    {
      "midi": 73,
      "hit": false,
      "t": 80666.58599999988,
      "d": 222.2219999999943,
      "v": 127
    },
    {
      "midi": 66,
      "hit": false,
      "t": 80666.58599999994,
      "d": 222.2219999999943,
      "v": 127
    },
    {
      "midi": 69,
      "hit": false,
      "t": 80888.80799999987,
      "d": 222.2219999999943,
      "v": 127
    },
    {
      "midi": 61,
      "hit": false,
      "t": 80888.80799999993,
      "d": 222.2219999999943,
      "v": 127
    },
    {
      "midi": 71,
      "hit": false,
      "t": 81111.02999999987,
      "d": 222.2219999999943,
      "v": 127
    },
    {
      "midi": 56,
      "hit": false,
      "t": 81111.02999999993,
      "d": 222.2219999999943,
      "v": 127
    },
    {
      "midi": 69,
      "hit": false,
      "t": 81333.25199999986,
      "d": 222.2219999999943,
      "v": 127
    },
    {
      "midi": 54,
      "hit": false,
      "t": 81333.25199999992,
      "d": 222.2219999999943,
      "v": 127
    },
    {
      "midi": 71,
      "hit": false,
      "t": 81555.47399999986,
      "d": 222.2219999999943,
      "v": 127
    },
    {
      "midi": 49,
      "hit": false,
      "t": 81555.47399999991,
      "d": 222.2219999999943,
      "v": 127
    },
    {
      "midi": 47,
      "hit": false,
      "t": 81777.69599999991,
      "d": 222.2219999999943,
      "v": 127
    },
    {
      "midi": 54,
      "hit": false,
      "t": 81999.9179999999,
      "d": 222.2219999999943,
      "v": 127
    },
    {
      "midi": 59,
      "hit": false,
      "t": 82222.1399999999,
      "d": 222.2219999999943,
      "v": 127
    },
    {
      "midi": 78,
      "hit": false,
      "t": 82333.25099999984,
      "d": 111.11100000000442,
      "v": 127
    },
    {
      "midi": 74,
      "hit": false,
      "t": 82444.36199999985,
      "d": 666.6659999999974,
      "v": 127
    },
    {
      "midi": 61,
      "hit": false,
      "t": 82444.36199999989,
      "d": 222.2219999999943,
      "v": 127
    },
    {
      "midi": 66,
      "hit": false,
      "t": 82666.58399999989,
      "d": 222.2219999999943,
      "v": 127
    },
    {
      "midi": 71,
      "hit": false,
      "t": 82888.80599999988,
      "d": 222.2219999999943,
      "v": 127
    },
    {
      "midi": 76,
      "hit": false,
      "t": 83111.02799999985,
      "d": 888.8880000000063,
      "v": 127
    },
    {
      "midi": 66,
      "hit": false,
      "t": 83111.02799999987,
      "d": 222.2219999999943,
      "v": 127
    },
    {
      "midi": 61,
      "hit": false,
      "t": 83333.24999999987,
      "d": 222.2219999999943,
      "v": 127
    },
    {
      "midi": 59,
      "hit": false,
      "t": 83555.47199999986,
      "d": 222.2219999999943,
      "v": 127
    },
    {
      "midi": 54,
      "hit": false,
      "t": 83777.69399999986,
      "d": 222.2219999999943,
      "v": 127
    },
    {
      "midi": 47,
      "hit": false,
      "t": 83999.91599999985,
      "d": 222.2219999999943,
      "v": 127
    },
    {
      "midi": 54,
      "hit": false,
      "t": 84222.13799999985,
      "d": 222.2219999999943,
      "v": 127
    },
    {
      "midi": 59,
      "hit": false,
      "t": 84444.35999999984,
      "d": 222.2219999999943,
      "v": 127
    },
    {
      "midi": 78,
      "hit": false,
      "t": 84555.47099999984,
      "d": 111.11100000000442,
      "v": 127
    },
    {
      "midi": 61,
      "hit": false,
      "t": 84666.58199999983,
      "d": 222.2219999999943,
      "v": 127
    },
    {
      "midi": 74,
      "hit": false,
      "t": 84666.58199999985,
      "d": 666.6659999999974,
      "v": 127
    },
    {
      "midi": 66,
      "hit": false,
      "t": 84888.80399999983,
      "d": 222.2219999999943,
      "v": 127
    },
    {
      "midi": 71,
      "hit": false,
      "t": 85111.02599999982,
      "d": 222.2219999999943,
      "v": 127
    },
    {
      "midi": 66,
      "hit": false,
      "t": 85333.24799999982,
      "d": 222.2219999999943,
      "v": 127
    },
    {
      "midi": 68,
      "hit": false,
      "t": 85333.24799999985,
      "d": 888.8880000000063,
      "v": 127
    },
    {
      "midi": 73,
      "hit": false,
      "t": 85333.24799999985,
      "d": 888.8880000000063,
      "v": 127
    },
    {
      "midi": 76,
      "hit": false,
      "t": 85333.24799999985,
      "d": 888.8880000000063,
      "v": 127
    },
    {
      "midi": 61,
      "hit": false,
      "t": 85555.46999999981,
      "d": 222.2219999999943,
      "v": 127
    },
    {
      "midi": 59,
      "hit": false,
      "t": 85777.6919999998,
      "d": 222.2219999999943,
      "v": 127
    },
    {
      "midi": 54,
      "hit": false,
      "t": 85999.9139999998,
      "d": 222.2219999999943,
      "v": 127
    },
    {
      "midi": 40,
      "hit": false,
      "t": 86222.1359999998,
      "d": 222.2219999999943,
      "v": 127
    },
    {
      "midi": 62,
      "hit": false,
      "t": 86222.13599999985,
      "d": 666.6659999999974,
      "v": 127
    },
    {
      "midi": 67,
      "hit": false,
      "t": 86222.13599999985,
      "d": 666.6659999999974,
      "v": 127
    },
    {
      "midi": 69,
      "hit": false,
      "t": 86222.13599999985,
      "d": 666.6659999999974,
      "v": 127
    },
    {
      "midi": 74,
      "hit": false,
      "t": 86222.13599999985,
      "d": 666.6659999999974,
      "v": 127
    },
    {
      "midi": 47,
      "hit": false,
      "t": 86444.35799999979,
      "d": 222.2219999999943,
      "v": 127
    },
    {
      "midi": 52,
      "hit": false,
      "t": 86666.57999999978,
      "d": 222.2219999999943,
      "v": 127
    },
    {
      "midi": 54,
      "hit": false,
      "t": 86888.80199999978,
      "d": 222.2219999999943,
      "v": 127
    },
    {
      "midi": 66,
      "hit": false,
      "t": 86888.80199999985,
      "d": 666.6659999999974,
      "v": 127
    },
    {
      "midi": 74,
      "hit": false,
      "t": 86888.80199999985,
      "d": 666.6659999999974,
      "v": 127
    },
    {
      "midi": 59,
      "hit": false,
      "t": 87111.02399999977,
      "d": 222.2219999999943,
      "v": 127
    },
    {
      "midi": 64,
      "hit": false,
      "t": 87333.24599999977,
      "d": 222.2219999999943,
      "v": 127
    },
    {
      "midi": 59,
      "hit": false,
      "t": 87555.46799999976,
      "d": 222.2219999999943,
      "v": 127
    },
    {
      "midi": 69,
      "hit": false,
      "t": 87555.46799999985,
      "d": 222.2219999999943,
      "v": 127
    },
    {
      "midi": 54,
      "hit": false,
      "t": 87777.68999999975,
      "d": 222.2219999999943,
      "v": 127
    },
    {
      "midi": 71,
      "hit": false,
      "t": 87777.68999999984,
      "d": 222.2219999999943,
      "v": 127
    },
    {
      "midi": 52,
      "hit": false,
      "t": 87999.91199999975,
      "d": 222.2219999999943,
      "v": 127
    },
    {
      "midi": 73,
      "hit": false,
      "t": 87999.91199999984,
      "d": 222.2219999999943,
      "v": 127
    },
    {
      "midi": 47,
      "hit": false,
      "t": 88222.13399999974,
      "d": 222.2219999999943,
      "v": 127
    },
    {
      "midi": 64,
      "hit": false,
      "t": 88222.13399999983,
      "d": 222.2219999999943,
      "v": 127
    },
    {
      "midi": 69,
      "hit": false,
      "t": 88222.13399999983,
      "d": 222.2219999999943,
      "v": 127
    },
    {
      "midi": 74,
      "hit": false,
      "t": 88222.13399999983,
      "d": 222.2219999999943,
      "v": 127
    },
    {
      "midi": 42,
      "hit": false,
      "t": 88444.35599999974,
      "d": 222.2219999999943,
      "v": 127
    },
    {
      "midi": 49,
      "hit": false,
      "t": 88666.57799999973,
      "d": 222.2219999999943,
      "v": 127
    },
    {
      "midi": 76,
      "hit": false,
      "t": 88666.57799999982,
      "d": 222.2219999999943,
      "v": 127
    },
    {
      "midi": 54,
      "hit": false,
      "t": 88888.79999999973,
      "d": 222.2219999999943,
      "v": 127
    },
    {
      "midi": 71,
      "hit": false,
      "t": 88888.79999999981,
      "d": 222.2219999999943,
      "v": 127
    },
    {
      "midi": 56,
      "hit": false,
      "t": 89111.02199999972,
      "d": 222.2219999999943,
      "v": 127
    },
    {
      "midi": 73,
      "hit": false,
      "t": 89111.02199999981,
      "d": 222.2219999999943,
      "v": 127
    },
    {
      "midi": 61,
      "hit": false,
      "t": 89333.24399999972,
      "d": 222.2219999999943,
      "v": 127
    },
    {
      "midi": 69,
      "hit": false,
      "t": 89333.2439999998,
      "d": 222.2219999999943,
      "v": 127
    },
    {
      "midi": 66,
      "hit": false,
      "t": 89555.46599999971,
      "d": 222.2219999999943,
      "v": 127
    },
    {
      "midi": 78,
      "hit": false,
      "t": 89555.4659999998,
      "d": 222.2219999999943,
      "v": 127
    },
    {
      "midi": 61,
      "hit": false,
      "t": 89777.6879999997,
      "d": 222.2219999999943,
      "v": 127
    },
    {
      "midi": 71,
      "hit": false,
      "t": 89777.68799999979,
      "d": 222.2219999999943,
      "v": 127
    },
    {
      "midi": 56,
      "hit": false,
      "t": 89999.9099999997,
      "d": 222.2219999999943,
      "v": 127
    },
    {
      "midi": 73,
      "hit": false,
      "t": 89999.90999999979,
      "d": 222.2219999999943,
      "v": 127
    },
    {
      "midi": 54,
      "hit": false,
      "t": 90222.13199999969,
      "d": 222.2219999999943,
      "v": 127
    },
    {
      "midi": 69,
      "hit": false,
      "t": 90222.13199999978,
      "d": 222.2219999999943,
      "v": 127
    },
    {
      "midi": 49,
      "hit": false,
      "t": 90444.35399999969,
      "d": 222.2219999999943,
      "v": 127
    },
    {
      "midi": 71,
      "hit": false,
      "t": 90444.35399999977,
      "d": 222.2219999999943,
      "v": 127
    },
    {
      "midi": 47,
      "hit": false,
      "t": 90666.57599999968,
      "d": 222.2219999999943,
      "v": 127
    },
    {
      "midi": 54,
      "hit": false,
      "t": 90888.79799999968,
      "d": 222.2219999999943,
      "v": 127
    },
    {
      "midi": 59,
      "hit": false,
      "t": 91111.01999999967,
      "d": 222.2219999999943,
      "v": 127
    },
    {
      "midi": 78,
      "hit": false,
      "t": 91222.13099999976,
      "d": 111.11100000000442,
      "v": 127
    },
    {
      "midi": 61,
      "hit": false,
      "t": 91333.24199999966,
      "d": 222.2219999999943,
      "v": 127
    },
    {
      "midi": 74,
      "hit": false,
      "t": 91333.24199999977,
      "d": 666.6659999999974,
      "v": 127
    },
    {
      "midi": 66,
      "hit": false,
      "t": 91555.46399999966,
      "d": 222.2219999999943,
      "v": 127
    },
    {
      "midi": 71,
      "hit": false,
      "t": 91777.68599999965,
      "d": 222.2219999999943,
      "v": 127
    },
    {
      "midi": 66,
      "hit": false,
      "t": 91999.90799999965,
      "d": 222.2219999999943,
      "v": 127
    },
    {
      "midi": 76,
      "hit": false,
      "t": 91999.90799999976,
      "d": 888.8880000000063,
      "v": 127
    },
    {
      "midi": 61,
      "hit": false,
      "t": 92222.12999999964,
      "d": 222.2219999999943,
      "v": 127
    },
    {
      "midi": 59,
      "hit": false,
      "t": 92444.35199999964,
      "d": 222.2219999999943,
      "v": 127
    },
    {
      "midi": 54,
      "hit": false,
      "t": 92666.57399999963,
      "d": 222.2219999999943,
      "v": 127
    },
    {
      "midi": 47,
      "hit": false,
      "t": 92888.79599999962,
      "d": 222.2219999999943,
      "v": 127
    },
    {
      "midi": 54,
      "hit": false,
      "t": 93111.01799999962,
      "d": 222.2219999999943,
      "v": 127
    },
    {
      "midi": 59,
      "hit": false,
      "t": 93333.23999999961,
      "d": 222.2219999999943,
      "v": 127
    },
    {
      "midi": 78,
      "hit": false,
      "t": 93444.35099999976,
      "d": 111.11100000000442,
      "v": 127
    },
    {
      "midi": 61,
      "hit": false,
      "t": 93555.4619999996,
      "d": 222.2219999999943,
      "v": 127
    },
    {
      "midi": 74,
      "hit": false,
      "t": 93555.46199999977,
      "d": 666.6659999999974,
      "v": 127
    },
    {
      "midi": 66,
      "hit": false,
      "t": 93777.6839999996,
      "d": 222.2219999999943,
      "v": 127
    },
    {
      "midi": 71,
      "hit": false,
      "t": 93999.9059999996,
      "d": 222.2219999999943,
      "v": 127
    },
    {
      "midi": 66,
      "hit": false,
      "t": 94222.12799999959,
      "d": 222.2219999999943,
      "v": 127
    },
    {
      "midi": 68,
      "hit": false,
      "t": 94222.12799999976,
      "d": 888.8880000000063,
      "v": 127
    },
    {
      "midi": 73,
      "hit": false,
      "t": 94222.12799999976,
      "d": 888.8880000000063,
      "v": 127
    },
    {
      "midi": 76,
      "hit": false,
      "t": 94222.12799999976,
      "d": 888.8880000000063,
      "v": 127
    },
    {
      "midi": 61,
      "hit": false,
      "t": 94444.34999999958,
      "d": 222.2219999999943,
      "v": 127
    },
    {
      "midi": 59,
      "hit": false,
      "t": 94666.57199999958,
      "d": 222.2219999999943,
      "v": 127
    },
    {
      "midi": 54,
      "hit": false,
      "t": 94888.79399999957,
      "d": 222.2219999999943,
      "v": 127
    },
    {
      "midi": 47,
      "hit": false,
      "t": 95111.01599999957,
      "d": 222.2219999999943,
      "v": 127
    },
    {
      "midi": 78,
      "hit": false,
      "t": 95111.01599999977,
      "d": 666.6659999999974,
      "v": 127
    },
    {
      "midi": 54,
      "hit": false,
      "t": 95333.23799999956,
      "d": 222.2219999999943,
      "v": 127
    },
    {
      "midi": 59,
      "hit": false,
      "t": 95555.45999999956,
      "d": 222.2219999999943,
      "v": 127
    },
    {
      "midi": 61,
      "hit": false,
      "t": 95777.68199999955,
      "d": 222.2219999999943,
      "v": 127
    },
    {
      "midi": 81,
      "hit": false,
      "t": 95777.68199999977,
      "d": 222.2219999999943,
      "v": 127
    },
    {
      "midi": 66,
      "hit": false,
      "t": 95999.90399999954,
      "d": 222.2219999999943,
      "v": 127
    },
    {
      "midi": 80,
      "hit": false,
      "t": 95999.90399999976,
      "d": 222.2219999999943,
      "v": 127
    },
    {
      "midi": 71,
      "hit": false,
      "t": 96222.12599999954,
      "d": 222.2219999999943,
      "v": 127
    },
    {
      "midi": 81,
      "hit": false,
      "t": 96222.12599999976,
      "d": 222.2219999999943,
      "v": 127
    },
    {
      "midi": 66,
      "hit": false,
      "t": 96444.34799999953,
      "d": 222.2219999999943,
      "v": 127
    },
    {
      "midi": 78,
      "hit": false,
      "t": 96444.34799999975,
      "d": 111.11100000000442,
      "v": 127
    },
    {
      "midi": 78,
      "hit": false,
      "t": 96555.45899999976,
      "d": 111.11100000000442,
      "v": 127
    },
    {
      "midi": 80,
      "hit": false,
      "t": 96555.45899999976,
      "d": 111.11100000000442,
      "v": 127
    },
    {
      "midi": 61,
      "hit": false,
      "t": 96666.56999999953,
      "d": 222.2219999999943,
      "v": 127
    },
    {
      "midi": 76,
      "hit": false,
      "t": 96666.56999999976,
      "d": 222.2219999999943,
      "v": 127
    },
    {
      "midi": 59,
      "hit": false,
      "t": 96888.79199999952,
      "d": 222.2219999999943,
      "v": 127
    },
    {
      "midi": 78,
      "hit": false,
      "t": 96888.79199999975,
      "d": 222.2219999999943,
      "v": 127
    },
    {
      "midi": 54,
      "hit": false,
      "t": 97111.01399999952,
      "d": 222.2219999999943,
      "v": 127
    },
    {
      "midi": 78,
      "hit": false,
      "t": 97111.01399999975,
      "d": 222.2219999999943,
      "v": 127
    },
    {
      "midi": 47,
      "hit": false,
      "t": 97333.23599999951,
      "d": 222.2219999999943,
      "v": 127
    },
    {
      "midi": 54,
      "hit": false,
      "t": 97555.4579999995,
      "d": 222.2219999999943,
      "v": 127
    },
    {
      "midi": 81,
      "hit": false,
      "t": 97555.45799999974,
      "d": 222.2219999999943,
      "v": 127
    },
    {
      "midi": 57,
      "hit": false,
      "t": 97777.6799999995,
      "d": 222.2219999999943,
      "v": 127
    },
    {
      "midi": 80,
      "hit": false,
      "t": 97777.67999999973,
      "d": 222.2219999999943,
      "v": 127
    },
    {
      "midi": 59,
      "hit": false,
      "t": 97999.90199999949,
      "d": 222.2219999999943,
      "v": 127
    },
    {
      "midi": 81,
      "hit": false,
      "t": 97999.90199999973,
      "d": 111.11100000000442,
      "v": 127
    },
    {
      "midi": 80,
      "hit": false,
      "t": 98111.01299999973,
      "d": 111.11100000000442,
      "v": 127
    },
    {
      "midi": 64,
      "hit": false,
      "t": 98222.12399999949,
      "d": 222.2219999999943,
      "v": 127
    },
    {
      "midi": 83,
      "hit": false,
      "t": 98222.12399999973,
      "d": 222.2219999999943,
      "v": 127
    },
    {
      "midi": 69,
      "hit": false,
      "t": 98444.34599999948,
      "d": 222.2219999999943,
      "v": 127
    },
    {
      "midi": 80,
      "hit": false,
      "t": 98444.34599999973,
      "d": 222.2219999999943,
      "v": 127
    },
    {
      "midi": 64,
      "hit": false,
      "t": 98666.56799999948,
      "d": 222.2219999999943,
      "v": 127
    },
    {
      "midi": 78,
      "hit": false,
      "t": 98666.56799999972,
      "d": 222.2219999999943,
      "v": 127
    },
    {
      "midi": 59,
      "hit": false,
      "t": 98888.78999999947,
      "d": 222.2219999999943,
      "v": 127
    },
    {
      "midi": 76,
      "hit": false,
      "t": 98888.78999999972,
      "d": 222.2219999999943,
      "v": 127
    },
    {
      "midi": 57,
      "hit": false,
      "t": 99111.01199999946,
      "d": 222.2219999999943,
      "v": 127
    },
    {
      "midi": 78,
      "hit": false,
      "t": 99111.01199999971,
      "d": 222.2219999999943,
      "v": 127
    },
    {
      "midi": 54,
      "hit": false,
      "t": 99333.23399999946,
      "d": 222.2219999999943,
      "v": 127
    },
    {
      "midi": 78,
      "hit": false,
      "t": 99333.2339999997,
      "d": 222.2219999999943,
      "v": 127
    },
    {
      "midi": 47,
      "hit": false,
      "t": 99555.45599999945,
      "d": 222.2219999999943,
      "v": 127
    },
    {
      "midi": 54,
      "hit": false,
      "t": 99777.67799999945,
      "d": 222.2219999999943,
      "v": 127
    },
    {
      "midi": 59,
      "hit": false,
      "t": 99999.89999999944,
      "d": 222.2219999999943,
      "v": 127
    },
    {
      "midi": 71,
      "hit": false,
      "t": 99999.8999999997,
      "d": 888.8880000000063,
      "v": 127
    },
    {
      "midi": 61,
      "hit": false,
      "t": 100222.12199999944,
      "d": 222.2219999999943,
      "v": 127
    },
    {
      "midi": 66,
      "hit": false,
      "t": 100444.34399999943,
      "d": 222.2219999999943,
      "v": 127
    },
    {
      "midi": 71,
      "hit": false,
      "t": 100666.56599999942,
      "d": 222.2219999999943,
      "v": 127
    },
    {
      "midi": 66,
      "hit": false,
      "t": 100888.78799999942,
      "d": 222.2219999999943,
      "v": 127
    },
    {
      "midi": 61,
      "hit": false,
      "t": 101111.00999999941,
      "d": 222.2219999999943,
      "v": 127
    },
    {
      "midi": 73,
      "hit": false,
      "t": 101111.0099999997,
      "d": 444.44400000000314,
      "v": 127
    },
    {
      "midi": 59,
      "hit": false,
      "t": 101333.2319999994,
      "d": 222.2219999999943,
      "v": 127
    },
    {
      "midi": 54,
      "hit": false,
      "t": 101555.4539999994,
      "d": 222.2219999999943,
      "v": 127
    },
    {
      "midi": 71,
      "hit": false,
      "t": 101666.56499999971,
      "d": 111.11100000000442,
      "v": 127
    },
    {
      "midi": 47,
      "hit": false,
      "t": 101777.6759999994,
      "d": 222.2219999999943,
      "v": 127
    },
    {
      "midi": 74,
      "hit": false,
      "t": 101777.67599999972,
      "d": 444.44400000000314,
      "v": 127
    },
    {
      "midi": 54,
      "hit": false,
      "t": 101999.89799999939,
      "d": 222.2219999999943,
      "v": 127
    },
    {
      "midi": 57,
      "hit": false,
      "t": 102222.11999999938,
      "d": 222.2219999999943,
      "v": 127
    },
    {
      "midi": 76,
      "hit": false,
      "t": 102222.11999999972,
      "d": 222.2219999999943,
      "v": 127
    },
    {
      "midi": 59,
      "hit": false,
      "t": 102444.34199999938,
      "d": 222.2219999999943,
      "v": 127
    },
    {
      "midi": 73,
      "hit": false,
      "t": 102444.34199999971,
      "d": 888.8880000000063,
      "v": 127
    },
    {
      "midi": 64,
      "hit": false,
      "t": 102666.56399999937,
      "d": 222.2219999999943,
      "v": 127
    },
    {
      "midi": 69,
      "hit": false,
      "t": 102888.78599999937,
      "d": 222.2219999999943,
      "v": 127
    },
    {
      "midi": 64,
      "hit": false,
      "t": 103111.00799999936,
      "d": 222.2219999999943,
      "v": 127
    },
    {
      "midi": 59,
      "hit": false,
      "t": 103333.22999999936,
      "d": 222.2219999999943,
      "v": 127
    },
    {
      "midi": 71,
      "hit": false,
      "t": 103333.22999999972,
      "d": 222.2219999999943,
      "v": 127
    },
    {
      "midi": 57,
      "hit": false,
      "t": 103555.45199999935,
      "d": 222.2219999999943,
      "v": 127
    },
    {
      "midi": 73,
      "hit": false,
      "t": 103555.45199999971,
      "d": 222.2219999999943,
      "v": 127
    },
    {
      "midi": 52,
      "hit": false,
      "t": 103777.67399999934,
      "d": 222.2219999999943,
      "v": 127
    },
    {
      "midi": 74,
      "hit": false,
      "t": 103777.67399999971,
      "d": 222.2219999999943,
      "v": 127
    },
    {
      "midi": 45,
      "hit": false,
      "t": 103999.89599999934,
      "d": 222.2219999999943,
      "v": 127
    },
    {
      "midi": 73,
      "hit": false,
      "t": 103999.8959999997,
      "d": 222.2219999999943,
      "v": 127
    },
    {
      "midi": 52,
      "hit": false,
      "t": 104222.11799999933,
      "d": 222.2219999999943,
      "v": 127
    },
    {
      "midi": 74,
      "hit": false,
      "t": 104222.1179999997,
      "d": 111.11100000000442,
      "v": 127
    },
    {
      "midi": 71,
      "hit": false,
      "t": 104333.2289999997,
      "d": 111.11100000000442,
      "v": 127
    },
    {
      "midi": 73,
      "hit": false,
      "t": 104333.2289999997,
      "d": 111.11100000000442,
      "v": 127
    },
    {
      "midi": 57,
      "hit": false,
      "t": 104444.33999999933,
      "d": 222.2219999999943,
      "v": 127
    },
    {
      "midi": 69,
      "hit": false,
      "t": 104444.3399999997,
      "d": 888.8880000000063,
      "v": 127
    },
    {
      "midi": 59,
      "hit": false,
      "t": 104666.56199999932,
      "d": 222.2219999999943,
      "v": 127
    },
    {
      "midi": 64,
      "hit": false,
      "t": 104888.78399999932,
      "d": 222.2219999999943,
      "v": 127
    },
    {
      "midi": 69,
      "hit": false,
      "t": 105111.00599999931,
      "d": 222.2219999999943,
      "v": 127
    },
    {
      "midi": 64,
      "hit": false,
      "t": 105333.2279999993,
      "d": 222.2219999999943,
      "v": 127
    },
    {
      "midi": 59,
      "hit": false,
      "t": 105555.4499999993,
      "d": 222.2219999999943,
      "v": 127
    },
    {
      "midi": 71,
      "hit": false,
      "t": 105555.4499999997,
      "d": 444.44400000000314,
      "v": 127
    },
    {
      "midi": 57,
      "hit": false,
      "t": 105777.6719999993,
      "d": 222.2219999999943,
      "v": 127
    },
    {
      "midi": 52,
      "hit": false,
      "t": 105999.89399999929,
      "d": 222.2219999999943,
      "v": 127
    },
    {
      "midi": 73,
      "hit": false,
      "t": 105999.89399999971,
      "d": 222.2219999999943,
      "v": 127
    },
    {
      "midi": 43,
      "hit": false,
      "t": 106222.11599999928,
      "d": 222.2219999999943,
      "v": 127
    },
    {
      "midi": 74,
      "hit": false,
      "t": 106222.1159999997,
      "d": 222.2219999999943,
      "v": 127
    },
    {
      "midi": 50,
      "hit": false,
      "t": 106444.33799999928,
      "d": 222.2219999999943,
      "v": 127
    },
    {
      "midi": 73,
      "hit": false,
      "t": 106444.3379999997,
      "d": 222.2219999999943,
      "v": 127
    },
    {
      "midi": 55,
      "hit": false,
      "t": 106666.55999999927,
      "d": 222.2219999999943,
      "v": 127
    },
    {
      "midi": 71,
      "hit": false,
      "t": 106666.55999999969,
      "d": 222.2219999999943,
      "v": 127
    },
    {
      "midi": 57,
      "hit": false,
      "t": 106888.78199999926,
      "d": 222.2219999999943,
      "v": 127
    },
    {
      "midi": 69,
      "hit": false,
      "t": 106888.78199999969,
      "d": 444.44400000000314,
      "v": 127
    },
    {
      "midi": 62,
      "hit": false,
      "t": 107111.00399999926,
      "d": 222.2219999999943,
      "v": 127
    },
    {
      "midi": 67,
      "hit": false,
      "t": 107333.22599999925,
      "d": 222.2219999999943,
      "v": 127
    },
    {
      "midi": 69,
      "hit": false,
      "t": 107333.22599999969,
      "d": 222.2219999999943,
      "v": 127
    },
    {
      "midi": 62,
      "hit": false,
      "t": 107555.44799999925,
      "d": 222.2219999999943,
      "v": 127
    },
    {
      "midi": 71,
      "hit": false,
      "t": 107555.44799999968,
      "d": 222.2219999999943,
      "v": 127
    },
    {
      "midi": 57,
      "hit": false,
      "t": 107777.66999999924,
      "d": 222.2219999999943,
      "v": 127
    },
    {
      "midi": 67,
      "hit": false,
      "t": 107777.66999999968,
      "d": 222.2219999999943,
      "v": 127
    },
    {
      "midi": 55,
      "hit": false,
      "t": 107999.89199999924,
      "d": 222.2219999999943,
      "v": 127
    },
    {
      "midi": 69,
      "hit": false,
      "t": 107999.89199999967,
      "d": 222.2219999999943,
      "v": 127
    },
    {
      "midi": 50,
      "hit": false,
      "t": 108222.11399999923,
      "d": 222.2219999999943,
      "v": 127
    },
    {
      "midi": 71,
      "hit": false,
      "t": 108222.11399999967,
      "d": 222.2219999999943,
      "v": 127
    },
    {
      "midi": 42,
      "hit": false,
      "t": 108444.33599999922,
      "d": 222.2219999999943,
      "v": 127
    },
    {
      "midi": 64,
      "hit": false,
      "t": 108444.33599999966,
      "d": 666.6659999999974,
      "v": 127
    },
    {
      "midi": 69,
      "hit": false,
      "t": 108444.33599999966,
      "d": 666.6659999999974,
      "v": 127
    },
    {
      "midi": 71,
      "hit": false,
      "t": 108444.33599999966,
      "d": 666.6659999999974,
      "v": 127
    },
    {
      "midi": 76,
      "hit": false,
      "t": 108444.33599999966,
      "d": 666.6659999999974,
      "v": 127
    },
    {
      "midi": 49,
      "hit": false,
      "t": 108666.55799999922,
      "d": 222.2219999999943,
      "v": 127
    },
    {
      "midi": 54,
      "hit": false,
      "t": 108888.77999999921,
      "d": 222.2219999999943,
      "v": 127
    },
    {
      "midi": 56,
      "hit": false,
      "t": 109111.00199999921,
      "d": 222.2219999999943,
      "v": 127
    },
    {
      "midi": 66,
      "hit": false,
      "t": 109111.00199999966,
      "d": 1333.3319999999949,
      "v": 127
    },
    {
      "midi": 71,
      "hit": false,
      "t": 109111.00199999966,
      "d": 1333.3319999999949,
      "v": 127
    },
    {
      "midi": 76,
      "hit": false,
      "t": 109111.00199999966,
      "d": 1333.3319999999949,
      "v": 127
    },
    {
      "midi": 61,
      "hit": false,
      "t": 109333.2239999992,
      "d": 222.2219999999943,
      "v": 127
    },
    {
      "midi": 66,
      "hit": false,
      "t": 109555.4459999992,
      "d": 222.2219999999943,
      "v": 127
    },
    {
      "midi": 61,
      "hit": false,
      "t": 109777.66799999919,
      "d": 222.2219999999943,
      "v": 127
    },
    {
      "midi": 56,
      "hit": false,
      "t": 109999.88999999918,
      "d": 222.2219999999943,
      "v": 127
    },
    {
      "midi": 54,
      "hit": false,
      "t": 110222.11199999918,
      "d": 222.2219999999943,
      "v": 127
    },
    {
      "midi": 49,
      "hit": false,
      "t": 110444.33399999917,
      "d": 222.2219999999943,
      "v": 127
    },
    {
      "midi": 42,
      "hit": false,
      "t": 110666.55599999917,
      "d": 222.2219999999943,
      "v": 127
    },
    {
      "midi": 64,
      "hit": false,
      "t": 110666.55599999965,
      "d": 666.6659999999974,
      "v": 127
    },
    {
      "midi": 69,
      "hit": false,
      "t": 110666.55599999965,
      "d": 666.6659999999974,
      "v": 127
    },
    {
      "midi": 71,
      "hit": false,
      "t": 110666.55599999965,
      "d": 666.6659999999974,
      "v": 127
    },
    {
      "midi": 76,
      "hit": false,
      "t": 110666.55599999965,
      "d": 666.6659999999974,
      "v": 127
    },
    {
      "midi": 49,
      "hit": false,
      "t": 110888.77799999916,
      "d": 222.2219999999943,
      "v": 127
    },
    {
      "midi": 54,
      "hit": false,
      "t": 111110.99999999916,
      "d": 222.2219999999943,
      "v": 127
    },
    {
      "midi": 56,
      "hit": false,
      "t": 111333.22199999915,
      "d": 222.2219999999943,
      "v": 127
    },
    {
      "midi": 66,
      "hit": false,
      "t": 111333.22199999965,
      "d": 1333.3319999999949,
      "v": 127
    },
    {
      "midi": 71,
      "hit": false,
      "t": 111333.22199999965,
      "d": 1333.3319999999949,
      "v": 127
    },
    {
      "midi": 76,
      "hit": false,
      "t": 111333.22199999965,
      "d": 1333.3319999999949,
      "v": 127
    },
    {
      "midi": 61,
      "hit": false,
      "t": 111555.44399999914,
      "d": 222.2219999999943,
      "v": 127
    },
    {
      "midi": 66,
      "hit": false,
      "t": 111777.66599999914,
      "d": 222.2219999999943,
      "v": 127
    },
    {
      "midi": 61,
      "hit": false,
      "t": 111999.88799999913,
      "d": 222.2219999999943,
      "v": 127
    },
    {
      "midi": 56,
      "hit": false,
      "t": 112222.10999999913,
      "d": 222.2219999999943,
      "v": 127
    },
    {
      "midi": 54,
      "hit": false,
      "t": 112444.33199999912,
      "d": 222.2219999999943,
      "v": 127
    },
    {
      "midi": 49,
      "hit": false,
      "t": 112666.55399999912,
      "d": 222.2219999999943,
      "v": 127
    },
    {
      "midi": 33,
      "hit": false,
      "t": 112888.77599999911,
      "d": 222.2219999999943,
      "v": 127
    },
    {
      "midi": 60,
      "hit": false,
      "t": 112888.77599999963,
      "d": 222.2219999999943,
      "v": 127
    },
    {
      "midi": 40,
      "hit": false,
      "t": 113110.9979999991,
      "d": 222.2219999999943,
      "v": 127
    },
    {
      "midi": 62,
      "hit": false,
      "t": 113110.99799999963,
      "d": 222.2219999999943,
      "v": 127
    },
    {
      "midi": 45,
      "hit": false,
      "t": 113333.2199999991,
      "d": 222.2219999999943,
      "v": 127
    },
    {
      "midi": 64,
      "hit": false,
      "t": 113333.21999999962,
      "d": 222.2219999999943,
      "v": 127
    },
    {
      "midi": 35,
      "hit": false,
      "t": 113555.4419999991,
      "d": 222.2219999999943,
      "v": 127
    },
    {
      "midi": 66,
      "hit": false,
      "t": 113555.44199999962,
      "d": 222.2219999999943,
      "v": 127
    },
    {
      "midi": 42,
      "hit": false,
      "t": 113777.66399999909,
      "d": 222.2219999999943,
      "v": 127
    },
    {
      "midi": 62,
      "hit": false,
      "t": 113777.66399999961,
      "d": 222.2219999999943,
      "v": 127
    },
    {
      "midi": 47,
      "hit": false,
      "t": 113999.88599999908,
      "d": 222.2219999999943,
      "v": 127
    },
    {
      "midi": 64,
      "hit": false,
      "t": 113999.8859999996,
      "d": 222.2219999999943,
      "v": 127
    },
    {
      "midi": 36,
      "hit": false,
      "t": 114222.10799999908,
      "d": 222.2219999999943,
      "v": 127
    },
    {
      "midi": 66,
      "hit": false,
      "t": 114222.1079999996,
      "d": 222.2219999999943,
      "v": 127
    },
    {
      "midi": 43,
      "hit": false,
      "t": 114444.32999999907,
      "d": 222.2219999999943,
      "v": 127
    },
    {
      "midi": 67,
      "hit": false,
      "t": 114444.3299999996,
      "d": 222.2219999999943,
      "v": 127
    },
    {
      "midi": 48,
      "hit": false,
      "t": 114666.55199999906,
      "d": 222.2219999999943,
      "v": 127
    },
    {
      "midi": 64,
      "hit": false,
      "t": 114666.55199999959,
      "d": 222.2219999999943,
      "v": 127
    },
    {
      "midi": 38,
      "hit": false,
      "t": 114888.77399999906,
      "d": 222.2219999999943,
      "v": 127
    },
    {
      "midi": 66,
      "hit": false,
      "t": 114888.77399999958,
      "d": 222.2219999999943,
      "v": 127
    },
    {
      "midi": 45,
      "hit": false,
      "t": 115110.99599999905,
      "d": 222.2219999999943,
      "v": 127
    },
    {
      "midi": 67,
      "hit": false,
      "t": 115110.99599999958,
      "d": 222.2219999999943,
      "v": 127
    },
    {
      "midi": 50,
      "hit": false,
      "t": 115333.21799999905,
      "d": 222.2219999999943,
      "v": 127
    },
    {
      "midi": 69,
      "hit": false,
      "t": 115333.21799999957,
      "d": 222.2219999999943,
      "v": 127
    },
    {
      "midi": 40,
      "hit": false,
      "t": 115555.43999999904,
      "d": 222.2219999999943,
      "v": 127
    },
    {
      "midi": 67,
      "hit": false,
      "t": 115555.43999999957,
      "d": 222.2219999999943,
      "v": 127
    },
    {
      "midi": 47,
      "hit": false,
      "t": 115777.66199999904,
      "d": 222.2219999999943,
      "v": 127
    },
    {
      "midi": 69,
      "hit": false,
      "t": 115777.66199999956,
      "d": 222.2219999999943,
      "v": 127
    },
    {
      "midi": 52,
      "hit": false,
      "t": 115999.88399999903,
      "d": 222.2219999999943,
      "v": 127
    },
    {
      "midi": 71,
      "hit": false,
      "t": 115999.88399999955,
      "d": 222.2219999999943,
      "v": 127
    },
    {
      "midi": 42,
      "hit": false,
      "t": 116222.10599999902,
      "d": 222.2219999999943,
      "v": 127
    },
    {
      "midi": 73,
      "hit": false,
      "t": 116222.10599999955,
      "d": 222.2219999999943,
      "v": 127
    },
    {
      "midi": 49,
      "hit": false,
      "t": 116444.32799999902,
      "d": 222.2219999999943,
      "v": 127
    },
    {
      "midi": 69,
      "hit": false,
      "t": 116444.32799999954,
      "d": 222.2219999999943,
      "v": 127
    },
    {
      "midi": 54,
      "hit": false,
      "t": 116666.54999999901,
      "d": 222.2219999999943,
      "v": 127
    },
    {
      "midi": 71,
      "hit": false,
      "t": 116666.54999999954,
      "d": 222.2219999999943,
      "v": 127
    },
    {
      "midi": 43,
      "hit": false,
      "t": 116888.77199999901,
      "d": 222.2219999999943,
      "v": 127
    },
    {
      "midi": 73,
      "hit": false,
      "t": 116888.77199999953,
      "d": 222.2219999999943,
      "v": 127
    },
    {
      "midi": 50,
      "hit": false,
      "t": 117110.993999999,
      "d": 222.2219999999943,
      "v": 127
    },
    {
      "midi": 74,
      "hit": false,
      "t": 117110.99399999953,
      "d": 222.2219999999943,
      "v": 127
    },
    {
      "midi": 55,
      "hit": false,
      "t": 117333.215999999,
      "d": 222.2219999999943,
      "v": 127
    },
    {
      "midi": 71,
      "hit": false,
      "t": 117333.21599999952,
      "d": 222.2219999999943,
      "v": 127
    },
    {
      "midi": 45,
      "hit": false,
      "t": 117555.43799999899,
      "d": 222.2219999999943,
      "v": 127
    },
    {
      "midi": 73,
      "hit": false,
      "t": 117555.43799999951,
      "d": 222.2219999999943,
      "v": 127
    },
    {
      "midi": 52,
      "hit": false,
      "t": 117777.65999999898,
      "d": 222.2219999999943,
      "v": 127
    },
    {
      "midi": 74,
      "hit": false,
      "t": 117777.65999999951,
      "d": 222.2219999999943,
      "v": 127
    },
    {
      "midi": 57,
      "hit": false,
      "t": 117999.88199999898,
      "d": 222.2219999999943,
      "v": 127
    },
    {
      "midi": 76,
      "hit": false,
      "t": 117999.8819999995,
      "d": 222.2219999999943,
      "v": 127
    },
    {
      "midi": 38,
      "hit": false,
      "t": 118222.10399999897,
      "d": 222.2219999999943,
      "v": 127
    },
    {
      "midi": 69,
      "hit": false,
      "t": 118222.1039999995,
      "d": 666.6659999999974,
      "v": 127
    },
    {
      "midi": 72,
      "hit": false,
      "t": 118222.1039999995,
      "d": 666.6659999999974,
      "v": 127
    },
    {
      "midi": 77,
      "hit": false,
      "t": 118222.1039999995,
      "d": 666.6659999999974,
      "v": 127
    },
    {
      "midi": 45,
      "hit": false,
      "t": 118444.32599999897,
      "d": 222.2219999999943,
      "v": 127
    },
    {
      "midi": 50,
      "hit": false,
      "t": 118666.54799999896,
      "d": 222.2219999999943,
      "v": 127
    },
    {
      "midi": 52,
      "hit": false,
      "t": 118888.76999999896,
      "d": 222.2219999999943,
      "v": 127
    },
    {
      "midi": 67,
      "hit": false,
      "t": 118888.7699999995,
      "d": 1333.3319999999949,
      "v": 127
    },
    {
      "midi": 72,
      "hit": false,
      "t": 118888.7699999995,
      "d": 1333.3319999999949,
      "v": 127
    },
    {
      "midi": 76,
      "hit": false,
      "t": 118888.7699999995,
      "d": 1333.3319999999949,
      "v": 127
    },
    {
      "midi": 77,
      "hit": false,
      "t": 118888.7699999995,
      "d": 1333.3319999999949,
      "v": 127
    },
    {
      "midi": 57,
      "hit": false,
      "t": 119110.99199999895,
      "d": 222.2219999999943,
      "v": 127
    },
    {
      "midi": 62,
      "hit": false,
      "t": 119333.21399999894,
      "d": 222.2219999999943,
      "v": 127
    },
    {
      "midi": 57,
      "hit": false,
      "t": 119555.43599999894,
      "d": 222.2219999999943,
      "v": 127
    },
    {
      "midi": 52,
      "hit": false,
      "t": 119777.65799999893,
      "d": 222.2219999999943,
      "v": 127
    },
    {
      "midi": 50,
      "hit": false,
      "t": 119999.87999999893,
      "d": 222.2219999999943,
      "v": 127
    },
    {
      "midi": 45,
      "hit": false,
      "t": 120222.10199999892,
      "d": 222.2219999999943,
      "v": 127
    },
    {
      "midi": 38,
      "hit": false,
      "t": 120444.32399999892,
      "d": 222.2219999999943,
      "v": 127
    },
    {
      "midi": 60,
      "hit": false,
      "t": 120444.32399999948,
      "d": 666.6659999999974,
      "v": 127
    },
    {
      "midi": 64,
      "hit": false,
      "t": 120444.32399999948,
      "d": 666.6659999999974,
      "v": 127
    },
    {
      "midi": 65,
      "hit": false,
      "t": 120444.32399999948,
      "d": 666.6659999999974,
      "v": 127
    },
    {
      "midi": 69,
      "hit": false,
      "t": 120444.32399999948,
      "d": 666.6659999999974,
      "v": 127
    },
    {
      "midi": 45,
      "hit": false,
      "t": 120666.54599999891,
      "d": 222.2219999999943,
      "v": 127
    },
    {
      "midi": 50,
      "hit": false,
      "t": 120888.7679999989,
      "d": 222.2219999999943,
      "v": 127
    },
    {
      "midi": 52,
      "hit": false,
      "t": 121110.9899999989,
      "d": 222.2219999999943,
      "v": 127
    },
    {
      "midi": 59,
      "hit": false,
      "t": 121110.98999999948,
      "d": 1333.3319999999949,
      "v": 127
    },
    {
      "midi": 64,
      "hit": false,
      "t": 121110.98999999948,
      "d": 1333.3319999999949,
      "v": 127
    },
    {
      "midi": 67,
      "hit": false,
      "t": 121110.98999999948,
      "d": 1333.3319999999949,
      "v": 127
    },
    {
      "midi": 69,
      "hit": false,
      "t": 121110.98999999948,
      "d": 1333.3319999999949,
      "v": 127
    },
    {
      "midi": 57,
      "hit": false,
      "t": 121333.2119999989,
      "d": 222.2219999999943,
      "v": 127
    },
    {
      "midi": 62,
      "hit": false,
      "t": 121555.43399999889,
      "d": 222.2219999999943,
      "v": 127
    },
    {
      "midi": 57,
      "hit": false,
      "t": 121777.65599999888,
      "d": 222.2219999999943,
      "v": 127
    },
    {
      "midi": 52,
      "hit": false,
      "t": 121999.87799999888,
      "d": 222.2219999999943,
      "v": 127
    },
    {
      "midi": 50,
      "hit": false,
      "t": 122222.09999999887,
      "d": 222.2219999999943,
      "v": 127
    },
    {
      "midi": 45,
      "hit": false,
      "t": 122444.32199999887,
      "d": 222.2219999999943,
      "v": 127
    },
    {
      "midi": 38,
      "hit": false,
      "t": 122666.54399999886,
      "d": 222.2219999999943,
      "v": 127
    },
    {
      "midi": 69,
      "hit": false,
      "t": 122666.54399999947,
      "d": 666.6659999999974,
      "v": 127
    },
    {
      "midi": 72,
      "hit": false,
      "t": 122666.54399999947,
      "d": 666.6659999999974,
      "v": 127
    },
    {
      "midi": 77,
      "hit": false,
      "t": 122666.54399999947,
      "d": 666.6659999999974,
      "v": 127
    },
    {
      "midi": 45,
      "hit": false,
      "t": 122888.76599999885,
      "d": 222.2219999999943,
      "v": 127
    },
    {
      "midi": 50,
      "hit": false,
      "t": 123110.98799999885,
      "d": 222.2219999999943,
      "v": 127
    },
    {
      "midi": 52,
      "hit": false,
      "t": 123333.20999999884,
      "d": 222.2219999999943,
      "v": 127
    },
    {
      "midi": 67,
      "hit": false,
      "t": 123333.20999999947,
      "d": 1333.3319999999949,
      "v": 127
    },
    {
      "midi": 72,
      "hit": false,
      "t": 123333.20999999947,
      "d": 1333.3319999999949,
      "v": 127
    },
    {
      "midi": 76,
      "hit": false,
      "t": 123333.20999999947,
      "d": 1333.3319999999949,
      "v": 127
    },
    {
      "midi": 77,
      "hit": false,
      "t": 123333.20999999947,
      "d": 1333.3319999999949,
      "v": 127
    },
    {
      "midi": 57,
      "hit": false,
      "t": 123555.43199999884,
      "d": 222.2219999999943,
      "v": 127
    },
    {
      "midi": 62,
      "hit": false,
      "t": 123777.65399999883,
      "d": 222.2219999999943,
      "v": 127
    },
    {
      "midi": 57,
      "hit": false,
      "t": 123999.87599999883,
      "d": 222.2219999999943,
      "v": 127
    },
    {
      "midi": 52,
      "hit": false,
      "t": 124222.09799999882,
      "d": 222.2219999999943,
      "v": 127
    },
    {
      "midi": 50,
      "hit": false,
      "t": 124444.31999999881,
      "d": 222.2219999999943,
      "v": 127
    },
    {
      "midi": 45,
      "hit": false,
      "t": 124666.54199999881,
      "d": 222.2219999999943,
      "v": 127
    },
    {
      "midi": 38,
      "hit": false,
      "t": 124888.7639999988,
      "d": 222.2219999999943,
      "v": 127
    },
    {
      "midi": 60,
      "hit": false,
      "t": 124888.76399999946,
      "d": 666.6659999999974,
      "v": 127
    },
    {
      "midi": 64,
      "hit": false,
      "t": 124888.76399999946,
      "d": 666.6659999999974,
      "v": 127
    },
    {
      "midi": 65,
      "hit": false,
      "t": 124888.76399999946,
      "d": 666.6659999999974,
      "v": 127
    },
    {
      "midi": 69,
      "hit": false,
      "t": 124888.76399999946,
      "d": 666.6659999999974,
      "v": 127
    },
    {
      "midi": 45,
      "hit": false,
      "t": 125110.9859999988,
      "d": 222.2219999999943,
      "v": 127
    },
    {
      "midi": 50,
      "hit": false,
      "t": 125333.20799999879,
      "d": 222.2219999999943,
      "v": 127
    },
    {
      "midi": 52,
      "hit": false,
      "t": 125555.42999999879,
      "d": 222.2219999999943,
      "v": 127
    },
    {
      "midi": 59,
      "hit": false,
      "t": 125555.42999999945,
      "d": 1555.5540000000037,
      "v": 127
    },
    {
      "midi": 64,
      "hit": false,
      "t": 125555.42999999945,
      "d": 1555.5540000000037,
      "v": 127
    },
    {
      "midi": 67,
      "hit": false,
      "t": 125555.42999999945,
      "d": 1555.5540000000037,
      "v": 127
    },
    {
      "midi": 69,
      "hit": false,
      "t": 125555.42999999945,
      "d": 1555.5540000000037,
      "v": 127
    },
    {
      "midi": 57,
      "hit": false,
      "t": 125777.65199999878,
      "d": 222.2219999999943,
      "v": 127
    },
    {
      "midi": 62,
      "hit": false,
      "t": 125999.87399999877,
      "d": 222.2219999999943,
      "v": 127
    },
    {
      "midi": 57,
      "hit": false,
      "t": 126222.09599999877,
      "d": 222.2219999999943,
      "v": 127
    },
    {
      "midi": 52,
      "hit": false,
      "t": 126444.31799999876,
      "d": 222.2219999999943,
      "v": 127
    },
    {
      "midi": 50,
      "hit": false,
      "t": 126666.53999999876,
      "d": 222.2219999999943,
      "v": 127
    },
    {
      "midi": 45,
      "hit": false,
      "t": 126888.76199999875,
      "d": 222.2219999999943,
      "v": 127
    },
    {
      "midi": 38,
      "hit": false,
      "t": 127110.98399999875,
      "d": 222.2219999999943,
      "v": 127
    },
    {
      "midi": 33,
      "hit": false,
      "t": 127333.20599999874,
      "d": 222.2219999999943,
      "v": 127
    },
    {
      "midi": 26,
      "hit": false,
      "t": 127555.42799999873,
      "d": 1777.775999999998,
      "v": 127
    }
  ]
}