{
  "jsonPath": "Rock/Classic Finnish Rock/Irwin Goodman/aaneti-vain.json",
  "path": "Rock\\Classic Finnish Rock\\Irwin Goodman\\Ääneti vain.mid",
  "name": "Ääneti vain",
  "difficulty": "Advanced",
  "bpm": 120,
  "notes": [
    {
      "midi": 62,
      "hit": false,
      "t": 4008.3333333333335,
      "d": 100.00000000000045,
      "v": 78
    },
    {
      "midi": 67,
      "hit": false,
      "t": 4008.3333333333335,
      "d": 100.00000000000045,
      "v": 82
    },
    {
      "midi": 43,
      "hit": false,
      "t": 4008.3333333333335,
      "d": 912.5000000000005,
      "v": 76
    },
    {
      "midi": 67,
      "hit": false,
      "t": 4508.333333333334,
      "d": 191.66666666666697,
      "v": 91
    },
    {
      "midi": 62,
      "hit": false,
      "t": 4520.833333333334,
      "d": 116.66666666666697,
      "v": 87
    },
    {
      "midi": 59,
      "hit": false,
      "t": 4758.333333333334,
      "d": 133.33333333333303,
      "v": 73
    },
    {
      "midi": 50,
      "hit": false,
      "t": 4991.666666666667,
      "d": 1008.333333333333,
      "v": 69
    },
    {
      "midi": 67,
      "hit": false,
      "t": 5008.333333333334,
      "d": 120.83333333333303,
      "v": 90
    },
    {
      "midi": 67,
      "hit": false,
      "t": 5279.166666666667,
      "d": 120.83333333333303,
      "v": 76
    },
    {
      "midi": 62,
      "hit": false,
      "t": 5400,
      "d": 170.83333333333303,
      "v": 65
    },
    {
      "midi": 59,
      "hit": false,
      "t": 5512.5,
      "d": 166.66666666666606,
      "v": 85
    },
    {
      "midi": 55,
      "hit": false,
      "t": 5745.833333333333,
      "d": 125,
      "v": 86
    },
    {
      "midi": 58,
      "hit": false,
      "t": 6250,
      "d": 750,
      "v": 77
    },
    {
      "midi": 61,
      "hit": false,
      "t": 6250,
      "d": 750,
      "v": 77
    },
    {
      "midi": 63,
      "hit": false,
      "t": 6250,
      "d": 750,
      "v": 77
    },
    {
      "midi": 67,
      "hit": false,
      "t": 6250,
      "d": 750,
      "v": 77
    },
    {
      "midi": 60,
      "hit": false,
      "t": 7000,
      "d": 1000,
      "v": 77
    },
    {
      "midi": 62,
      "hit": false,
      "t": 7000,
      "d": 1000,
      "v": 77
    },
    {
      "midi": 66,
      "hit": false,
      "t": 7000,
      "d": 1000,
      "v": 77
    },
    {
      "midi": 69,
      "hit": false,
      "t": 7000,
      "d": 1000,
      "v": 77
    },
    {
      "midi": 47,
      "hit": false,
      "t": 8000,
      "d": 2000,
      "v": 76
    },
    {
      "midi": 55,
      "hit": false,
      "t": 8000,
      "d": 2000,
      "v": 86
    },
    {
      "midi": 67,
      "hit": false,
      "t": 8250,
      "d": 250,
      "v": 105
    },
    {
      "midi": 64,
      "hit": false,
      "t": 8500,
      "d": 250,
      "v": 57
    },
    {
      "midi": 62,
      "hit": false,
      "t": 8750,
      "d": 208.33333333333394,
      "v": 61
    },
    {
      "midi": 67,
      "hit": false,
      "t": 9000,
      "d": 270.83333333333394,
      "v": 98
    },
    {
      "midi": 62,
      "hit": false,
      "t": 9250,
      "d": 250,
      "v": 55
    },
    {
      "midi": 64,
      "hit": false,
      "t": 9500,
      "d": 258.33333333333394,
      "v": 74
    },
    {
      "midi": 67,
      "hit": false,
      "t": 9758.333333333334,
      "d": 241.66666666666606,
      "v": 93
    },
    {
      "midi": 59,
      "hit": false,
      "t": 10250,
      "d": 750,
      "v": 77
    },
    {
      "midi": 62,
      "hit": false,
      "t": 10250,
      "d": 750,
      "v": 77
    },
    {
      "midi": 64,
      "hit": false,
      "t": 10250,
      "d": 750,
      "v": 77
    },
    {
      "midi": 68,
      "hit": false,
      "t": 10250,
      "d": 750,
      "v": 77
    },
    {
      "midi": 53,
      "hit": false,
      "t": 11000,
      "d": 500,
      "v": 77
    },
    {
      "midi": 57,
      "hit": false,
      "t": 11000,
      "d": 500,
      "v": 76
    },
    {
      "midi": 59,
      "hit": false,
      "t": 11000,
      "d": 500,
      "v": 56
    },
    {
      "midi": 62,
      "hit": false,
      "t": 11000,
      "d": 500,
      "v": 73
    },
    {
      "midi": 56,
      "hit": false,
      "t": 11500,
      "d": 500,
      "v": 57
    },
    {
      "midi": 59,
      "hit": false,
      "t": 11500,
      "d": 500,
      "v": 59
    },
    {
      "midi": 62,
      "hit": false,
      "t": 11500,
      "d": 500,
      "v": 70
    },
    {
      "midi": 64,
      "hit": false,
      "t": 11500,
      "d": 500,
      "v": 55
    },
    {
      "midi": 57,
      "hit": false,
      "t": 12250,
      "d": 750,
      "v": 67
    },
    {
      "midi": 60,
      "hit": false,
      "t": 12250,
      "d": 750,
      "v": 67
    },
    {
      "midi": 64,
      "hit": false,
      "t": 12250,
      "d": 750,
      "v": 67
    },
    {
      "midi": 60,
      "hit": false,
      "t": 13250,
      "d": 750,
      "v": 67
    },
    {
      "midi": 64,
      "hit": false,
      "t": 13250,
      "d": 750,
      "v": 67
    },
    {
      "midi": 67,
      "hit": false,
      "t": 13250,
      "d": 750,
      "v": 67
    },
    {
      "midi": 69,
      "hit": false,
      "t": 13250,
      "d": 750,
      "v": 67
    },
    {
      "midi": 48,
      "hit": false,
      "t": 14000,
      "d": 2000.0000000000018,
      "v": 59
    },
    {
      "midi": 55,
      "hit": false,
      "t": 14000,
      "d": 2000.0000000000018,
      "v": 73
    },
    {
      "midi": 57,
      "hit": false,
      "t": 14000,
      "d": 2000.0000000000018,
      "v": 60
    },
    {
      "midi": 67,
      "hit": false,
      "t": 14250,
      "d": 250,
      "v": 105
    },
    {
      "midi": 65,
      "hit": false,
      "t": 14500,
      "d": 258.33333333333394,
      "v": 57
    },
    {
      "midi": 63,
      "hit": false,
      "t": 14750,
      "d": 166.66666666666788,
      "v": 49
    },
    {
      "midi": 67,
      "hit": false,
      "t": 15000.000000000002,
      "d": 270.83333333333394,
      "v": 109
    },
    {
      "midi": 65,
      "hit": false,
      "t": 15250.000000000002,
      "d": 208.33333333333394,
      "v": 67
    },
    {
      "midi": 63,
      "hit": false,
      "t": 15500.000000000002,
      "d": 154.16666666666606,
      "v": 80
    },
    {
      "midi": 63,
      "hit": false,
      "t": 15750.000000000002,
      "d": 250,
      "v": 91
    },
    {
      "midi": 55,
      "hit": false,
      "t": 16000.000000000002,
      "d": 999.9999999999982,
      "v": 70
    },
    {
      "midi": 59,
      "hit": false,
      "t": 16000.000000000002,
      "d": 999.9999999999982,
      "v": 70
    },
    {
      "midi": 62,
      "hit": false,
      "t": 16000.000000000002,
      "d": 999.9999999999982,
      "v": 70
    },
    {
      "midi": 61,
      "hit": false,
      "t": 17000,
      "d": 1000,
      "v": 70
    },
    {
      "midi": 64,
      "hit": false,
      "t": 17000,
      "d": 1000,
      "v": 70
    },
    {
      "midi": 67,
      "hit": false,
      "t": 17000,
      "d": 1000,
      "v": 70
    },
    {
      "midi": 71,
      "hit": false,
      "t": 17000,
      "d": 1000,
      "v": 70
    },
    {
      "midi": 62,
      "hit": false,
      "t": 18000,
      "d": 58.33333333333212,
      "v": 70
    },
    {
      "midi": 57,
      "hit": false,
      "t": 18000,
      "d": 70.83333333333212,
      "v": 68
    },
    {
      "midi": 66,
      "hit": false,
      "t": 18000,
      "d": 70.83333333333212,
      "v": 76
    },
    {
      "midi": 62,
      "hit": false,
      "t": 18500,
      "d": 83.33333333333212,
      "v": 76
    },
    {
      "midi": 59,
      "hit": false,
      "t": 18500,
      "d": 87.5,
      "v": 77
    },
    {
      "midi": 66,
      "hit": false,
      "t": 18500,
      "d": 95.83333333333212,
      "v": 80
    },
    {
      "midi": 62,
      "hit": false,
      "t": 19000,
      "d": 175,
      "v": 77
    },
    {
      "midi": 57,
      "hit": false,
      "t": 19000,
      "d": 179.16666666666788,
      "v": 72
    },
    {
      "midi": 66,
      "hit": false,
      "t": 19000,
      "d": 195.83333333333576,
      "v": 81
    },
    {
      "midi": 62,
      "hit": false,
      "t": 19500.000000000004,
      "d": 154.16666666666788,
      "v": 83
    },
    {
      "midi": 59,
      "hit": false,
      "t": 19500.000000000004,
      "d": 170.83333333333576,
      "v": 84
    },
    {
      "midi": 66,
      "hit": false,
      "t": 19500.000000000004,
      "d": 179.16666666666788,
      "v": 87
    },
    {
      "midi": 62,
      "hit": false,
      "t": 20000.000000000004,
      "d": 70.83333333333212,
      "v": 82
    },
    {
      "midi": 67,
      "hit": false,
      "t": 20000.000000000004,
      "d": 79.16666666666424,
      "v": 80
    },
    {
      "midi": 59,
      "hit": false,
      "t": 20000.000000000004,
      "d": 91.66666666666424,
      "v": 80
    },
    {
      "midi": 59,
      "hit": false,
      "t": 20250,
      "d": 70.83333333333212,
      "v": 76
    },
    {
      "midi": 62,
      "hit": false,
      "t": 20250,
      "d": 70.83333333333212,
      "v": 73
    },
    {
      "midi": 67,
      "hit": false,
      "t": 20250,
      "d": 70.83333333333212,
      "v": 60
    },
    {
      "midi": 60,
      "hit": false,
      "t": 20500,
      "d": 120.83333333333212,
      "v": 91
    },
    {
      "midi": 64,
      "hit": false,
      "t": 20500,
      "d": 120.83333333333212,
      "v": 87
    },
    {
      "midi": 67,
      "hit": false,
      "t": 20500,
      "d": 125,
      "v": 88
    },
    {
      "midi": 62,
      "hit": false,
      "t": 21000,
      "d": 141.66666666666788,
      "v": 80
    },
    {
      "midi": 67,
      "hit": false,
      "t": 21000,
      "d": 154.16666666666788,
      "v": 77
    },
    {
      "midi": 59,
      "hit": false,
      "t": 21000,
      "d": 166.66666666666788,
      "v": 84
    },
    {
      "midi": 62,
      "hit": false,
      "t": 21250,
      "d": 66.66666666666788,
      "v": 56
    },
    {
      "midi": 67,
      "hit": false,
      "t": 21250,
      "d": 66.66666666666788,
      "v": 44
    },
    {
      "midi": 59,
      "hit": false,
      "t": 21250,
      "d": 79.16666666666788,
      "v": 60
    },
    {
      "midi": 67,
      "hit": false,
      "t": 21500,
      "d": 183.33333333333212,
      "v": 93
    },
    {
      "midi": 60,
      "hit": false,
      "t": 21500,
      "d": 200,
      "v": 94
    },
    {
      "midi": 64,
      "hit": false,
      "t": 21500,
      "d": 200,
      "v": 96
    },
    {
      "midi": 58,
      "hit": false,
      "t": 22000,
      "d": 1000,
      "v": 70
    },
    {
      "midi": 61,
      "hit": false,
      "t": 22000,
      "d": 1000,
      "v": 70
    },
    {
      "midi": 63,
      "hit": false,
      "t": 22000,
      "d": 1000,
      "v": 70
    },
    {
      "midi": 67,
      "hit": false,
      "t": 22000,
      "d": 1000,
      "v": 70
    },
    {
      "midi": 60,
      "hit": false,
      "t": 23250,
      "d": 750,
      "v": 67
    },
    {
      "midi": 62,
      "hit": false,
      "t": 23250,
      "d": 750,
      "v": 67
    },
    {
      "midi": 66,
      "hit": false,
      "t": 23250,
      "d": 750,
      "v": 67
    },
    {
      "midi": 69,
      "hit": false,
      "t": 23250,
      "d": 750,
      "v": 67
    },
    {
      "midi": 47,
      "hit": false,
      "t": 24000,
      "d": 2000,
      "v": 79
    },
    {
      "midi": 55,
      "hit": false,
      "t": 24000,
      "d": 2000,
      "v": 89
    },
    {
      "midi": 67,
      "hit": false,
      "t": 24250,
      "d": 250,
      "v": 108
    },
    {
      "midi": 64,
      "hit": false,
      "t": 24500,
      "d": 250,
      "v": 60
    },
    {
      "midi": 62,
      "hit": false,
      "t": 24750,
      "d": 208.33333333333212,
      "v": 64
    },
    {
      "midi": 67,
      "hit": false,
      "t": 25000,
      "d": 270.8333333333321,
      "v": 101
    },
    {
      "midi": 62,
      "hit": false,
      "t": 25250,
      "d": 250,
      "v": 58
    },
    {
      "midi": 64,
      "hit": false,
      "t": 25500,
      "d": 258.3333333333321,
      "v": 77
    },
    {
      "midi": 67,
      "hit": false,
      "t": 25758.333333333332,
      "d": 241.66666666666788,
      "v": 96
    },
    {
      "midi": 59,
      "hit": false,
      "t": 26250,
      "d": 750,
      "v": 67
    },
    {
      "midi": 62,
      "hit": false,
      "t": 26250,
      "d": 750,
      "v": 67
    },
    {
      "midi": 64,
      "hit": false,
      "t": 26250,
      "d": 750,
      "v": 67
    },
    {
      "midi": 68,
      "hit": false,
      "t": 26250,
      "d": 750,
      "v": 67
    },
    {
      "midi": 53,
      "hit": false,
      "t": 27000,
      "d": 500,
      "v": 77
    },
    {
      "midi": 57,
      "hit": false,
      "t": 27000,
      "d": 500,
      "v": 76
    },
    {
      "midi": 59,
      "hit": false,
      "t": 27000,
      "d": 500,
      "v": 56
    },
    {
      "midi": 62,
      "hit": false,
      "t": 27000,
      "d": 500,
      "v": 73
    },
    {
      "midi": 56,
      "hit": false,
      "t": 27500,
      "d": 500,
      "v": 67
    },
    {
      "midi": 59,
      "hit": false,
      "t": 27500,
      "d": 500,
      "v": 69
    },
    {
      "midi": 62,
      "hit": false,
      "t": 27500,
      "d": 500,
      "v": 80
    },
    {
      "midi": 64,
      "hit": false,
      "t": 27500,
      "d": 500,
      "v": 65
    },
    {
      "midi": 57,
      "hit": false,
      "t": 28000,
      "d": 175,
      "v": 71
    },
    {
      "midi": 52,
      "hit": false,
      "t": 28000,
      "d": 191.66666666666788,
      "v": 76
    },
    {
      "midi": 60,
      "hit": false,
      "t": 28000,
      "d": 229.16666666666788,
      "v": 86
    },
    {
      "midi": 57,
      "hit": false,
      "t": 28500,
      "d": 258.3333333333321,
      "v": 69
    },
    {
      "midi": 52,
      "hit": false,
      "t": 28500,
      "d": 270.8333333333321,
      "v": 72
    },
    {
      "midi": 60,
      "hit": false,
      "t": 28500,
      "d": 291.66666666666424,
      "v": 83
    },
    {
      "midi": 60,
      "hit": false,
      "t": 29249.999999999996,
      "d": 750,
      "v": 67
    },
    {
      "midi": 64,
      "hit": false,
      "t": 29249.999999999996,
      "d": 750,
      "v": 67
    },
    {
      "midi": 67,
      "hit": false,
      "t": 29249.999999999996,
      "d": 750,
      "v": 67
    },
    {
      "midi": 69,
      "hit": false,
      "t": 29249.999999999996,
      "d": 750,
      "v": 67
    },
    {
      "midi": 57,
      "hit": false,
      "t": 30020.83333333333,
      "d": 1979.1666666666642,
      "v": 66
    },
    {
      "midi": 48,
      "hit": false,
      "t": 30033.33333333333,
      "d": 1966.6666666666642,
      "v": 68
    },
    {
      "midi": 55,
      "hit": false,
      "t": 30033.33333333333,
      "d": 1966.6666666666642,
      "v": 84
    },
    {
      "midi": 69,
      "hit": false,
      "t": 30270.83333333333,
      "d": 187.5,
      "v": 56
    },
    {
      "midi": 75,
      "hit": false,
      "t": 30487.499999999996,
      "d": 83.33333333333212,
      "v": 101
    },
    {
      "midi": 81,
      "hit": false,
      "t": 30499.999999999996,
      "d": 175,
      "v": 84
    },
    {
      "midi": 81,
      "hit": false,
      "t": 30770.83333333333,
      "d": 437.5,
      "v": 79
    },
    {
      "midi": 75,
      "hit": false,
      "t": 30779.16666666666,
      "d": 62.5,
      "v": 99
    },
    {
      "midi": 69,
      "hit": false,
      "t": 31270.83333333333,
      "d": 145.83333333333212,
      "v": 61
    },
    {
      "midi": 72,
      "hit": false,
      "t": 31520.83333333333,
      "d": 70.83333333333212,
      "v": 102
    },
    {
      "midi": 75,
      "hit": false,
      "t": 31520.83333333333,
      "d": 479.16666666666424,
      "v": 82
    },
    {
      "midi": 55,
      "hit": false,
      "t": 32249.999999999993,
      "d": 750,
      "v": 67
    },
    {
      "midi": 59,
      "hit": false,
      "t": 32249.999999999993,
      "d": 750,
      "v": 67
    },
    {
      "midi": 62,
      "hit": false,
      "t": 32249.999999999993,
      "d": 750,
      "v": 67
    },
    {
      "midi": 55,
      "hit": false,
      "t": 32999.99999999999,
      "d": 500,
      "v": 77
    },
    {
      "midi": 58,
      "hit": false,
      "t": 32999.99999999999,
      "d": 500,
      "v": 76
    },
    {
      "midi": 60,
      "hit": false,
      "t": 32999.99999999999,
      "d": 500,
      "v": 56
    },
    {
      "midi": 63,
      "hit": false,
      "t": 32999.99999999999,
      "d": 500,
      "v": 73
    },
    {
      "midi": 57,
      "hit": false,
      "t": 33499.99999999999,
      "d": 500,
      "v": 77
    },
    {
      "midi": 60,
      "hit": false,
      "t": 33499.99999999999,
      "d": 500,
      "v": 76
    },
    {
      "midi": 62,
      "hit": false,
      "t": 33499.99999999999,
      "d": 500,
      "v": 56
    },
    {
      "midi": 66,
      "hit": false,
      "t": 33499.99999999999,
      "d": 500,
      "v": 73
    },
    {
      "midi": 59,
      "hit": false,
      "t": 33999.99999999999,
      "d": 500,
      "v": 67
    },
    {
      "midi": 62,
      "hit": false,
      "t": 33999.99999999999,
      "d": 500,
      "v": 69
    },
    {
      "midi": 67,
      "hit": false,
      "t": 33999.99999999999,
      "d": 500,
      "v": 65
    },
    {
      "midi": 55,
      "hit": false,
      "t": 34499.99999999999,
      "d": 500,
      "v": 77
    },
    {
      "midi": 57,
      "hit": false,
      "t": 34499.99999999999,
      "d": 500,
      "v": 76
    },
    {
      "midi": 60,
      "hit": false,
      "t": 34499.99999999999,
      "d": 500,
      "v": 56
    },
    {
      "midi": 64,
      "hit": false,
      "t": 34499.99999999999,
      "d": 500,
      "v": 73
    },
    {
      "midi": 59,
      "hit": false,
      "t": 34999.99999999999,
      "d": 500,
      "v": 67
    },
    {
      "midi": 62,
      "hit": false,
      "t": 34999.99999999999,
      "d": 500,
      "v": 69
    },
    {
      "midi": 67,
      "hit": false,
      "t": 34999.99999999999,
      "d": 500,
      "v": 65
    },
    {
      "midi": 53,
      "hit": false,
      "t": 35499.99999999999,
      "d": 500,
      "v": 77
    },
    {
      "midi": 56,
      "hit": false,
      "t": 35499.99999999999,
      "d": 500,
      "v": 76
    },
    {
      "midi": 58,
      "hit": false,
      "t": 35499.99999999999,
      "d": 500,
      "v": 56
    },
    {
      "midi": 62,
      "hit": false,
      "t": 35499.99999999999,
      "d": 500,
      "v": 73
    },
    {
      "midi": 55,
      "hit": false,
      "t": 35999.99999999999,
      "d": 1000,
      "v": 70
    },
    {
      "midi": 58,
      "hit": false,
      "t": 35999.99999999999,
      "d": 1000,
      "v": 70
    },
    {
      "midi": 63,
      "hit": false,
      "t": 35999.99999999999,
      "d": 1000,
      "v": 70
    },
    {
      "midi": 55,
      "hit": false,
      "t": 36999.99999999999,
      "d": 158.33333333333576,
      "v": 71
    },
    {
      "midi": 58,
      "hit": false,
      "t": 36999.99999999999,
      "d": 158.33333333333576,
      "v": 63
    },
    {
      "midi": 60,
      "hit": false,
      "t": 36999.99999999999,
      "d": 158.33333333333576,
      "v": 79
    },
    {
      "midi": 63,
      "hit": false,
      "t": 36999.99999999999,
      "d": 179.16666666667152,
      "v": 71
    },
    {
      "midi": 55,
      "hit": false,
      "t": 37500,
      "d": 500,
      "v": 87
    },
    {
      "midi": 58,
      "hit": false,
      "t": 37500,
      "d": 500,
      "v": 76
    },
    {
      "midi": 60,
      "hit": false,
      "t": 37500,
      "d": 500,
      "v": 89
    },
    {
      "midi": 63,
      "hit": false,
      "t": 37500,
      "d": 500,
      "v": 83
    },
    {
      "midi": 50,
      "hit": false,
      "t": 38000,
      "d": 2000.0000000000073,
      "v": 59
    },
    {
      "midi": 56,
      "hit": false,
      "t": 38000,
      "d": 2000.0000000000073,
      "v": 73
    },
    {
      "midi": 58,
      "hit": false,
      "t": 38000,
      "d": 2000.0000000000073,
      "v": 60
    },
    {
      "midi": 68,
      "hit": false,
      "t": 38250,
      "d": 250,
      "v": 105
    },
    {
      "midi": 67,
      "hit": false,
      "t": 38500,
      "d": 258.33333333333576,
      "v": 57
    },
    {
      "midi": 65,
      "hit": false,
      "t": 38750,
      "d": 166.66666666667152,
      "v": 49
    },
    {
      "midi": 68,
      "hit": false,
      "t": 39000.00000000001,
      "d": 270.83333333333576,
      "v": 109
    },
    {
      "midi": 67,
      "hit": false,
      "t": 39250.00000000001,
      "d": 208.33333333333576,
      "v": 67
    },
    {
      "midi": 65,
      "hit": false,
      "t": 39500.00000000001,
      "d": 154.16666666666424,
      "v": 80
    },
    {
      "midi": 65,
      "hit": false,
      "t": 39750.00000000001,
      "d": 250,
      "v": 91
    },
    {
      "midi": 55,
      "hit": false,
      "t": 40000.00000000001,
      "d": 1000,
      "v": 70
    },
    {
      "midi": 58,
      "hit": false,
      "t": 40000.00000000001,
      "d": 1000,
      "v": 70
    },
    {
      "midi": 63,
      "hit": false,
      "t": 40000.00000000001,
      "d": 1000,
      "v": 70
    },
    {
      "midi": 55,
      "hit": false,
      "t": 41000.00000000001,
      "d": 158.33333333333576,
      "v": 71
    },
    {
      "midi": 58,
      "hit": false,
      "t": 41000.00000000001,
      "d": 158.33333333333576,
      "v": 63
    },
    {
      "midi": 60,
      "hit": false,
      "t": 41000.00000000001,
      "d": 158.33333333333576,
      "v": 79
    },
    {
      "midi": 63,
      "hit": false,
      "t": 41000.00000000001,
      "d": 179.16666666667152,
      "v": 71
    },
    {
      "midi": 55,
      "hit": false,
      "t": 41500.000000000015,
      "d": 500,
      "v": 87
    },
    {
      "midi": 58,
      "hit": false,
      "t": 41500.000000000015,
      "d": 500,
      "v": 76
    },
    {
      "midi": 60,
      "hit": false,
      "t": 41500.000000000015,
      "d": 500,
      "v": 89
    },
    {
      "midi": 63,
      "hit": false,
      "t": 41500.000000000015,
      "d": 500,
      "v": 83
    },
    {
      "midi": 53,
      "hit": false,
      "t": 42000.000000000015,
      "d": 500,
      "v": 77
    },
    {
      "midi": 56,
      "hit": false,
      "t": 42000.000000000015,
      "d": 500,
      "v": 76
    },
    {
      "midi": 58,
      "hit": false,
      "t": 42000.000000000015,
      "d": 500,
      "v": 56
    },
    {
      "midi": 62,
      "hit": false,
      "t": 42000.000000000015,
      "d": 500,
      "v": 73
    },
    {
      "midi": 53,
      "hit": false,
      "t": 42500.000000000015,
      "d": 500,
      "v": 77
    },
    {
      "midi": 56,
      "hit": false,
      "t": 42500.000000000015,
      "d": 500,
      "v": 76
    },
    {
      "midi": 58,
      "hit": false,
      "t": 42500.000000000015,
      "d": 500,
      "v": 56
    },
    {
      "midi": 62,
      "hit": false,
      "t": 42500.000000000015,
      "d": 500,
      "v": 73
    },
    {
      "midi": 62,
      "hit": false,
      "t": 43000.000000000015,
      "d": 1000,
      "v": 70
    },
    {
      "midi": 65,
      "hit": false,
      "t": 43000.000000000015,
      "d": 1000,
      "v": 70
    },
    {
      "midi": 68,
      "hit": false,
      "t": 43000.000000000015,
      "d": 1000,
      "v": 70
    },
    {
      "midi": 70,
      "hit": false,
      "t": 43000.000000000015,
      "d": 1000,
      "v": 70
    },
    {
      "midi": 55,
      "hit": false,
      "t": 44000.000000000015,
      "d": 1000,
      "v": 70
    },
    {
      "midi": 58,
      "hit": false,
      "t": 44000.000000000015,
      "d": 1000,
      "v": 70
    },
    {
      "midi": 63,
      "hit": false,
      "t": 44000.000000000015,
      "d": 1000,
      "v": 70
    },
    {
      "midi": 58,
      "hit": false,
      "t": 45250.000000000015,
      "d": 750,
      "v": 67
    },
    {
      "midi": 60,
      "hit": false,
      "t": 45250.000000000015,
      "d": 750,
      "v": 67
    },
    {
      "midi": 63,
      "hit": false,
      "t": 45250.000000000015,
      "d": 750,
      "v": 67
    },
    {
      "midi": 67,
      "hit": false,
      "t": 45250.000000000015,
      "d": 750,
      "v": 67
    },
    {
      "midi": 50,
      "hit": false,
      "t": 46000.000000000015,
      "d": 100,
      "v": 79
    },
    {
      "midi": 53,
      "hit": false,
      "t": 46000.000000000015,
      "d": 104.16666666666424,
      "v": 86
    },
    {
      "midi": 58,
      "hit": false,
      "t": 46000.000000000015,
      "d": 145.83333333332848,
      "v": 78
    },
    {
      "midi": 50,
      "hit": false,
      "t": 46500.00000000001,
      "d": 112.5,
      "v": 61
    },
    {
      "midi": 58,
      "hit": false,
      "t": 46500.00000000001,
      "d": 162.5,
      "v": 83
    },
    {
      "midi": 55,
      "hit": false,
      "t": 46500.00000000001,
      "d": 179.16666666666424,
      "v": 93
    },
    {
      "midi": 53,
      "hit": false,
      "t": 46750.00000000001,
      "d": 75,
      "v": 58
    },
    {
      "midi": 50,
      "hit": false,
      "t": 47000.00000000001,
      "d": 112.5,
      "v": 82
    },
    {
      "midi": 58,
      "hit": false,
      "t": 47000.00000000001,
      "d": 158.33333333333576,
      "v": 78
    },
    {
      "midi": 56,
      "hit": false,
      "t": 47000.00000000001,
      "d": 170.83333333333576,
      "v": 97
    },
    {
      "midi": 53,
      "hit": false,
      "t": 47250.00000000001,
      "d": 83.33333333333576,
      "v": 40
    },
    {
      "midi": 50,
      "hit": false,
      "t": 47500.00000000001,
      "d": 208.33333333333576,
      "v": 77
    },
    {
      "midi": 55,
      "hit": false,
      "t": 47500.00000000001,
      "d": 225,
      "v": 99
    },
    {
      "midi": 58,
      "hit": false,
      "t": 47500.00000000001,
      "d": 233.33333333333576,
      "v": 76
    },
    {
      "midi": 63,
      "hit": false,
      "t": 48000.00000000001,
      "d": 2000,
      "v": 66
    },
    {
      "midi": 55,
      "hit": false,
      "t": 48004.16666666667,
      "d": 1995.8333333333358,
      "v": 54
    },
    {
      "midi": 75,
      "hit": false,
      "t": 48283.333333333336,
      "d": 200,
      "v": 41
    },
    {
      "midi": 82,
      "hit": false,
      "t": 48504.16666666667,
      "d": 208.33333333333576,
      "v": 90
    },
    {
      "midi": 78,
      "hit": false,
      "t": 48762.50000000001,
      "d": 270.83333333333576,
      "v": 83
    },
    {
      "midi": 79,
      "hit": false,
      "t": 49012.50000000001,
      "d": 220.83333333333576,
      "v": 80
    },
    {
      "midi": 75,
      "hit": false,
      "t": 49262.50000000001,
      "d": 262.5,
      "v": 83
    },
    {
      "midi": 70,
      "hit": false,
      "t": 49741.66666666667,
      "d": 220.83333333333576,
      "v": 59
    },
    {
      "midi": 57,
      "hit": false,
      "t": 50000.00000000001,
      "d": 500,
      "v": 77
    },
    {
      "midi": 60,
      "hit": false,
      "t": 50000.00000000001,
      "d": 500,
      "v": 76
    },
    {
      "midi": 62,
      "hit": false,
      "t": 50000.00000000001,
      "d": 500,
      "v": 56
    },
    {
      "midi": 66,
      "hit": false,
      "t": 50000.00000000001,
      "d": 500,
      "v": 73
    },
    {
      "midi": 55,
      "hit": false,
      "t": 50500.00000000001,
      "d": 500,
      "v": 67
    },
    {
      "midi": 59,
      "hit": false,
      "t": 50500.00000000001,
      "d": 500,
      "v": 69
    },
    {
      "midi": 64,
      "hit": false,
      "t": 50500.00000000001,
      "d": 500,
      "v": 65
    },
    {
      "midi": 52,
      "hit": false,
      "t": 51000.00000000001,
      "d": 500,
      "v": 77
    },
    {
      "midi": 55,
      "hit": false,
      "t": 51000.00000000001,
      "d": 500,
      "v": 76
    },
    {
      "midi": 57,
      "hit": false,
      "t": 51000.00000000001,
      "d": 500,
      "v": 56
    },
    {
      "midi": 60,
      "hit": false,
      "t": 51000.00000000001,
      "d": 500,
      "v": 73
    },
    {
      "midi": 57,
      "hit": false,
      "t": 51500.00000000001,
      "d": 500,
      "v": 77
    },
    {
      "midi": 60,
      "hit": false,
      "t": 51500.00000000001,
      "d": 500,
      "v": 76
    },
    {
      "midi": 62,
      "hit": false,
      "t": 51500.00000000001,
      "d": 500,
      "v": 56
    },
    {
      "midi": 66,
      "hit": false,
      "t": 51500.00000000001,
      "d": 500,
      "v": 73
    },
    {
      "midi": 62,
      "hit": false,
      "t": 52000.00000000001,
      "d": 70.83333333333576,
      "v": 82
    },
    {
      "midi": 67,
      "hit": false,
      "t": 52000.00000000001,
      "d": 79.16666666667152,
      "v": 80
    },
    {
      "midi": 59,
      "hit": false,
      "t": 52000.00000000001,
      "d": 91.66666666667152,
      "v": 80
    },
    {
      "midi": 59,
      "hit": false,
      "t": 52250.000000000015,
      "d": 70.83333333333576,
      "v": 76
    },
    {
      "midi": 62,
      "hit": false,
      "t": 52250.000000000015,
      "d": 70.83333333333576,
      "v": 73
    },
    {
      "midi": 67,
      "hit": false,
      "t": 52250.000000000015,
      "d": 70.83333333333576,
      "v": 60
    },
    {
      "midi": 60,
      "hit": false,
      "t": 52500.000000000015,
      "d": 120.83333333333576,
      "v": 91
    },
    {
      "midi": 64,
      "hit": false,
      "t": 52500.000000000015,
      "d": 120.83333333333576,
      "v": 87
    },
    {
      "midi": 67,
      "hit": false,
      "t": 52500.000000000015,
      "d": 125,
      "v": 88
    },
    {
      "midi": 62,
      "hit": false,
      "t": 53000.000000000015,
      "d": 141.66666666666424,
      "v": 80
    },
    {
      "midi": 67,
      "hit": false,
      "t": 53000.000000000015,
      "d": 154.16666666666424,
      "v": 77
    },
    {
      "midi": 59,
      "hit": false,
      "t": 53000.000000000015,
      "d": 166.66666666666424,
      "v": 84
    },
    {
      "midi": 62,
      "hit": false,
      "t": 53250.000000000015,
      "d": 66.66666666666424,
      "v": 56
    },
    {
      "midi": 67,
      "hit": false,
      "t": 53250.000000000015,
      "d": 66.66666666666424,
      "v": 44
    },
    {
      "midi": 59,
      "hit": false,
      "t": 53250.000000000015,
      "d": 79.16666666666424,
      "v": 60
    },
    {
      "midi": 67,
      "hit": false,
      "t": 53500.000000000015,
      "d": 183.33333333333576,
      "v": 93
    },
    {
      "midi": 60,
      "hit": false,
      "t": 53500.000000000015,
      "d": 200,
      "v": 94
    },
    {
      "midi": 64,
      "hit": false,
      "t": 53500.000000000015,
      "d": 200,
      "v": 96
    },
    {
      "midi": 55,
      "hit": false,
      "t": 54000.000000000015,
      "d": 158.33333333333576,
      "v": 71
    },
    {
      "midi": 58,
      "hit": false,
      "t": 54000.000000000015,
      "d": 158.33333333333576,
      "v": 63
    },
    {
      "midi": 61,
      "hit": false,
      "t": 54000.000000000015,
      "d": 158.33333333333576,
      "v": 79
    },
    {
      "midi": 63,
      "hit": false,
      "t": 54000.000000000015,
      "d": 179.16666666667152,
      "v": 71
    },
    {
      "midi": 55,
      "hit": false,
      "t": 54500.00000000002,
      "d": 500,
      "v": 87
    },
    {
      "midi": 58,
      "hit": false,
      "t": 54500.00000000002,
      "d": 500,
      "v": 76
    },
    {
      "midi": 61,
      "hit": false,
      "t": 54500.00000000002,
      "d": 500,
      "v": 89
    },
    {
      "midi": 63,
      "hit": false,
      "t": 54500.00000000002,
      "d": 500,
      "v": 83
    },
    {
      "midi": 60,
      "hit": false,
      "t": 55000.00000000002,
      "d": 1000,
      "v": 70
    },
    {
      "midi": 62,
      "hit": false,
      "t": 55000.00000000002,
      "d": 1000,
      "v": 70
    },
    {
      "midi": 66,
      "hit": false,
      "t": 55000.00000000002,
      "d": 1000,
      "v": 70
    },
    {
      "midi": 69,
      "hit": false,
      "t": 55000.00000000002,
      "d": 1000,
      "v": 70
    },
    {
      "midi": 55,
      "hit": false,
      "t": 56000.00000000002,
      "d": 2000,
      "v": 66
    },
    {
      "midi": 47,
      "hit": false,
      "t": 56004.166666666686,
      "d": 1995.8333333333358,
      "v": 54
    },
    {
      "midi": 67,
      "hit": false,
      "t": 56283.33333333335,
      "d": 200,
      "v": 41
    },
    {
      "midi": 74,
      "hit": false,
      "t": 56504.166666666686,
      "d": 208.33333333333576,
      "v": 90
    },
    {
      "midi": 70,
      "hit": false,
      "t": 56762.50000000002,
      "d": 270.83333333333576,
      "v": 83
    },
    {
      "midi": 71,
      "hit": false,
      "t": 57012.50000000002,
      "d": 220.83333333333576,
      "v": 80
    },
    {
      "midi": 67,
      "hit": false,
      "t": 57262.50000000002,
      "d": 262.5,
      "v": 83
    },
    {
      "midi": 62,
      "hit": false,
      "t": 57741.666666666686,
      "d": 220.83333333333576,
      "v": 59
    },
    {
      "midi": 56,
      "hit": false,
      "t": 58000.00000000002,
      "d": 158.33333333333576,
      "v": 71
    },
    {
      "midi": 59,
      "hit": false,
      "t": 58000.00000000002,
      "d": 158.33333333333576,
      "v": 63
    },
    {
      "midi": 62,
      "hit": false,
      "t": 58000.00000000002,
      "d": 158.33333333333576,
      "v": 79
    },
    {
      "midi": 64,
      "hit": false,
      "t": 58000.00000000002,
      "d": 179.16666666667152,
      "v": 71
    },
    {
      "midi": 56,
      "hit": false,
      "t": 58500.00000000003,
      "d": 500,
      "v": 87
    },
    {
      "midi": 59,
      "hit": false,
      "t": 58500.00000000003,
      "d": 500,
      "v": 76
    },
    {
      "midi": 62,
      "hit": false,
      "t": 58500.00000000003,
      "d": 500,
      "v": 89
    },
    {
      "midi": 64,
      "hit": false,
      "t": 58500.00000000003,
      "d": 500,
      "v": 83
    },
    {
      "midi": 53,
      "hit": false,
      "t": 59000.00000000003,
      "d": 500,
      "v": 77
    },
    {
      "midi": 57,
      "hit": false,
      "t": 59000.00000000003,
      "d": 500,
      "v": 76
    },
    {
      "midi": 59,
      "hit": false,
      "t": 59000.00000000003,
      "d": 500,
      "v": 56
    },
    {
      "midi": 62,
      "hit": false,
      "t": 59000.00000000003,
      "d": 500,
      "v": 73
    },
    {
      "midi": 56,
      "hit": false,
      "t": 59500.00000000003,
      "d": 500,
      "v": 67
    },
    {
      "midi": 59,
      "hit": false,
      "t": 59500.00000000003,
      "d": 500,
      "v": 69
    },
    {
      "midi": 62,
      "hit": false,
      "t": 59500.00000000003,
      "d": 500,
      "v": 80
    },
    {
      "midi": 64,
      "hit": false,
      "t": 59500.00000000003,
      "d": 500,
      "v": 65
    },
    {
      "midi": 57,
      "hit": false,
      "t": 60000.00000000003,
      "d": 1000,
      "v": 70
    },
    {
      "midi": 60,
      "hit": false,
      "t": 60000.00000000003,
      "d": 1000,
      "v": 70
    },
    {
      "midi": 64,
      "hit": false,
      "t": 60000.00000000003,
      "d": 1000,
      "v": 70
    },
    {
      "midi": 60,
      "hit": false,
      "t": 61250.00000000003,
      "d": 750,
      "v": 67
    },
    {
      "midi": 64,
      "hit": false,
      "t": 61250.00000000003,
      "d": 750,
      "v": 67
    },
    {
      "midi": 67,
      "hit": false,
      "t": 61250.00000000003,
      "d": 750,
      "v": 67
    },
    {
      "midi": 69,
      "hit": false,
      "t": 61250.00000000003,
      "d": 750,
      "v": 67
    },
    {
      "midi": 57,
      "hit": false,
      "t": 62020.833333333365,
      "d": 1979.1666666666715,
      "v": 66
    },
    {
      "midi": 48,
      "hit": false,
      "t": 62033.333333333365,
      "d": 1966.6666666666715,
      "v": 68
    },
    {
      "midi": 55,
      "hit": false,
      "t": 62033.333333333365,
      "d": 1966.6666666666715,
      "v": 84
    },
    {
      "midi": 69,
      "hit": false,
      "t": 62270.833333333365,
      "d": 187.5,
      "v": 56
    },
    {
      "midi": 75,
      "hit": false,
      "t": 62487.50000000003,
      "d": 83.33333333333576,
      "v": 101
    },
    {
      "midi": 81,
      "hit": false,
      "t": 62500.00000000003,
      "d": 175,
      "v": 84
    },
    {
      "midi": 81,
      "hit": false,
      "t": 62770.833333333365,
      "d": 437.5,
      "v": 79
    },
    {
      "midi": 75,
      "hit": false,
      "t": 62779.1666666667,
      "d": 62.5,
      "v": 99
    },
    {
      "midi": 69,
      "hit": false,
      "t": 63270.833333333365,
      "d": 145.83333333333576,
      "v": 61
    },
    {
      "midi": 72,
      "hit": false,
      "t": 63520.833333333365,
      "d": 70.83333333333576,
      "v": 102
    },
    {
      "midi": 75,
      "hit": false,
      "t": 63520.833333333365,
      "d": 479.1666666666715,
      "v": 82
    },
    {
      "midi": 55,
      "hit": false,
      "t": 64250.00000000004,
      "d": 750,
      "v": 67
    },
    {
      "midi": 59,
      "hit": false,
      "t": 64250.00000000004,
      "d": 750,
      "v": 67
    },
    {
      "midi": 62,
      "hit": false,
      "t": 64250.00000000004,
      "d": 750,
      "v": 67
    },
    {
      "midi": 55,
      "hit": false,
      "t": 65000.00000000004,
      "d": 500,
      "v": 77
    },
    {
      "midi": 58,
      "hit": false,
      "t": 65000.00000000004,
      "d": 500,
      "v": 76
    },
    {
      "midi": 60,
      "hit": false,
      "t": 65000.00000000004,
      "d": 500,
      "v": 56
    },
    {
      "midi": 63,
      "hit": false,
      "t": 65000.00000000004,
      "d": 500,
      "v": 73
    },
    {
      "midi": 57,
      "hit": false,
      "t": 65500.00000000004,
      "d": 499.9999999999927,
      "v": 77
    },
    {
      "midi": 60,
      "hit": false,
      "t": 65500.00000000004,
      "d": 499.9999999999927,
      "v": 76
    },
    {
      "midi": 62,
      "hit": false,
      "t": 65500.00000000004,
      "d": 499.9999999999927,
      "v": 56
    },
    {
      "midi": 66,
      "hit": false,
      "t": 65500.00000000004,
      "d": 499.9999999999927,
      "v": 73
    },
    {
      "midi": 55,
      "hit": false,
      "t": 66250.00000000003,
      "d": 750,
      "v": 77
    },
    {
      "midi": 59,
      "hit": false,
      "t": 66250.00000000003,
      "d": 750,
      "v": 77
    },
    {
      "midi": 62,
      "hit": false,
      "t": 66250.00000000003,
      "d": 750,
      "v": 77
    },
    {
      "midi": 55,
      "hit": false,
      "t": 67000.00000000003,
      "d": 500,
      "v": 57
    },
    {
      "midi": 58,
      "hit": false,
      "t": 67000.00000000003,
      "d": 500,
      "v": 59
    },
    {
      "midi": 61,
      "hit": false,
      "t": 67000.00000000003,
      "d": 500,
      "v": 70
    },
    {
      "midi": 63,
      "hit": false,
      "t": 67000.00000000003,
      "d": 500,
      "v": 55
    },
    {
      "midi": 57,
      "hit": false,
      "t": 67500.00000000003,
      "d": 500,
      "v": 77
    },
    {
      "midi": 60,
      "hit": false,
      "t": 67500.00000000003,
      "d": 500,
      "v": 76
    },
    {
      "midi": 62,
      "hit": false,
      "t": 67500.00000000003,
      "d": 500,
      "v": 56
    },
    {
      "midi": 66,
      "hit": false,
      "t": 67500.00000000003,
      "d": 500,
      "v": 73
    },
    {
      "midi": 47,
      "hit": false,
      "t": 68000.00000000003,
      "d": 2000,
      "v": 76
    },
    {
      "midi": 55,
      "hit": false,
      "t": 68000.00000000003,
      "d": 2000,
      "v": 86
    },
    {
      "midi": 67,
      "hit": false,
      "t": 68250.00000000003,
      "d": 250,
      "v": 105
    },
    {
      "midi": 64,
      "hit": false,
      "t": 68500.00000000003,
      "d": 250,
      "v": 57
    },
    {
      "midi": 62,
      "hit": false,
      "t": 68750.00000000003,
      "d": 208.33333333332848,
      "v": 61
    },
    {
      "midi": 67,
      "hit": false,
      "t": 69000.00000000003,
      "d": 270.8333333333285,
      "v": 98
    },
    {
      "midi": 62,
      "hit": false,
      "t": 69250.00000000003,
      "d": 250,
      "v": 55
    },
    {
      "midi": 64,
      "hit": false,
      "t": 69500.00000000003,
      "d": 258.3333333333285,
      "v": 74
    },
    {
      "midi": 67,
      "hit": false,
      "t": 69758.33333333336,
      "d": 241.66666666667152,
      "v": 93
    },
    {
      "midi": 58,
      "hit": false,
      "t": 70000.00000000003,
      "d": 1000,
      "v": 77
    },
    {
      "midi": 61,
      "hit": false,
      "t": 70000.00000000003,
      "d": 1000,
      "v": 77
    },
    {
      "midi": 63,
      "hit": false,
      "t": 70000.00000000003,
      "d": 1000,
      "v": 77
    },
    {
      "midi": 67,
      "hit": false,
      "t": 70000.00000000003,
      "d": 1000,
      "v": 77
    },
    {
      "midi": 60,
      "hit": false,
      "t": 71250.00000000003,
      "d": 750,
      "v": 77
    },
    {
      "midi": 62,
      "hit": false,
      "t": 71250.00000000003,
      "d": 750,
      "v": 77
    },
    {
      "midi": 66,
      "hit": false,
      "t": 71250.00000000003,
      "d": 750,
      "v": 77
    },
    {
      "midi": 69,
      "hit": false,
      "t": 71250.00000000003,
      "d": 750,
      "v": 77
    },
    {
      "midi": 62,
      "hit": false,
      "t": 72000.00000000003,
      "d": 70.83333333332848,
      "v": 82
    },
    {
      "midi": 67,
      "hit": false,
      "t": 72000.00000000003,
      "d": 79.16666666665697,
      "v": 80
    },
    {
      "midi": 59,
      "hit": false,
      "t": 72000.00000000003,
      "d": 91.66666666665697,
      "v": 80
    },
    {
      "midi": 59,
      "hit": false,
      "t": 72250.00000000001,
      "d": 70.83333333332848,
      "v": 76
    },
    {
      "midi": 62,
      "hit": false,
      "t": 72250.00000000001,
      "d": 70.83333333332848,
      "v": 73
    },
    {
      "midi": 67,
      "hit": false,
      "t": 72250.00000000001,
      "d": 70.83333333332848,
      "v": 60
    },
    {
      "midi": 60,
      "hit": false,
      "t": 72500.00000000001,
      "d": 120.83333333332848,
      "v": 91
    },
    {
      "midi": 64,
      "hit": false,
      "t": 72500.00000000001,
      "d": 120.83333333332848,
      "v": 87
    },
    {
      "midi": 67,
      "hit": false,
      "t": 72500.00000000001,
      "d": 125,
      "v": 88
    },
    {
      "midi": 62,
      "hit": false,
      "t": 73000.00000000001,
      "d": 141.66666666667152,
      "v": 80
    },
    {
      "midi": 67,
      "hit": false,
      "t": 73000.00000000001,
      "d": 154.16666666667152,
      "v": 77
    },
    {
      "midi": 59,
      "hit": false,
      "t": 73000.00000000001,
      "d": 166.66666666667152,
      "v": 84
    },
    {
      "midi": 62,
      "hit": false,
      "t": 73250.00000000001,
      "d": 66.66666666667152,
      "v": 56
    },
    {
      "midi": 67,
      "hit": false,
      "t": 73250.00000000001,
      "d": 66.66666666667152,
      "v": 44
    },
    {
      "midi": 59,
      "hit": false,
      "t": 73250.00000000001,
      "d": 79.16666666667152,
      "v": 60
    },
    {
      "midi": 67,
      "hit": false,
      "t": 73500.00000000001,
      "d": 183.33333333332848,
      "v": 93
    },
    {
      "midi": 60,
      "hit": false,
      "t": 73500.00000000001,
      "d": 200,
      "v": 94
    },
    {
      "midi": 64,
      "hit": false,
      "t": 73500.00000000001,
      "d": 200,
      "v": 96
    },
    {
      "midi": 59,
      "hit": false,
      "t": 74250.00000000001,
      "d": 750,
      "v": 77
    },
    {
      "midi": 62,
      "hit": false,
      "t": 74250.00000000001,
      "d": 750,
      "v": 77
    },
    {
      "midi": 64,
      "hit": false,
      "t": 74250.00000000001,
      "d": 750,
      "v": 77
    },
    {
      "midi": 68,
      "hit": false,
      "t": 74250.00000000001,
      "d": 750,
      "v": 77
    },
    {
      "midi": 53,
      "hit": false,
      "t": 75000.00000000001,
      "d": 500,
      "v": 77
    },
    {
      "midi": 57,
      "hit": false,
      "t": 75000.00000000001,
      "d": 500,
      "v": 76
    },
    {
      "midi": 59,
      "hit": false,
      "t": 75000.00000000001,
      "d": 500,
      "v": 56
    },
    {
      "midi": 62,
      "hit": false,
      "t": 75000.00000000001,
      "d": 500,
      "v": 73
    },
    {
      "midi": 56,
      "hit": false,
      "t": 75500.00000000001,
      "d": 500,
      "v": 57
    },
    {
      "midi": 59,
      "hit": false,
      "t": 75500.00000000001,
      "d": 500,
      "v": 59
    },
    {
      "midi": 62,
      "hit": false,
      "t": 75500.00000000001,
      "d": 500,
      "v": 70
    },
    {
      "midi": 64,
      "hit": false,
      "t": 75500.00000000001,
      "d": 500,
      "v": 55
    },
    {
      "midi": 57,
      "hit": false,
      "t": 76000.00000000001,
      "d": 1000,
      "v": 77
    },
    {
      "midi": 60,
      "hit": false,
      "t": 76000.00000000001,
      "d": 1000,
      "v": 77
    },
    {
      "midi": 64,
      "hit": false,
      "t": 76000.00000000001,
      "d": 1000,
      "v": 77
    },
    {
      "midi": 55,
      "hit": false,
      "t": 77000.00000000001,
      "d": 175,
      "v": 80
    },
    {
      "midi": 52,
      "hit": false,
      "t": 77000.00000000001,
      "d": 191.66666666667152,
      "v": 76
    },
    {
      "midi": 57,
      "hit": false,
      "t": 77000.00000000001,
      "d": 191.66666666667152,
      "v": 71
    },
    {
      "midi": 60,
      "hit": false,
      "t": 77000.00000000001,
      "d": 229.16666666667152,
      "v": 86
    },
    {
      "midi": 55,
      "hit": false,
      "t": 77500.00000000001,
      "d": 258.3333333333285,
      "v": 79
    },
    {
      "midi": 57,
      "hit": false,
      "t": 77500.00000000001,
      "d": 258.3333333333285,
      "v": 69
    },
    {
      "midi": 52,
      "hit": false,
      "t": 77500.00000000001,
      "d": 270.8333333333285,
      "v": 72
    },
    {
      "midi": 60,
      "hit": false,
      "t": 77500.00000000001,
      "d": 291.66666666665697,
      "v": 83
    },
    {
      "midi": 57,
      "hit": false,
      "t": 78000,
      "d": 58.33333333332848,
      "v": 70
    },
    {
      "midi": 51,
      "hit": false,
      "t": 78000,
      "d": 70.83333333332848,
      "v": 68
    },
    {
      "midi": 60,
      "hit": false,
      "t": 78000,
      "d": 70.83333333332848,
      "v": 76
    },
    {
      "midi": 57,
      "hit": false,
      "t": 78500,
      "d": 83.33333333332848,
      "v": 76
    },
    {
      "midi": 53,
      "hit": false,
      "t": 78500,
      "d": 87.5,
      "v": 77
    },
    {
      "midi": 60,
      "hit": false,
      "t": 78500,
      "d": 95.83333333332848,
      "v": 80
    },
    {
      "midi": 57,
      "hit": false,
      "t": 79000,
      "d": 175,
      "v": 77
    },
    {
      "midi": 51,
      "hit": false,
      "t": 79000,
      "d": 179.16666666667152,
      "v": 72
    },
    {
      "midi": 60,
      "hit": false,
      "t": 79000,
      "d": 195.83333333334303,
      "v": 81
    },
    {
      "midi": 57,
      "hit": false,
      "t": 79500.00000000001,
      "d": 154.16666666667152,
      "v": 83
    },
    {
      "midi": 53,
      "hit": false,
      "t": 79500.00000000001,
      "d": 170.83333333334303,
      "v": 84
    },
    {
      "midi": 60,
      "hit": false,
      "t": 79500.00000000001,
      "d": 179.16666666667152,
      "v": 87
    },
    {
      "midi": 55,
      "hit": false,
      "t": 80250.00000000001,
      "d": 750,
      "v": 77
    },
    {
      "midi": 59,
      "hit": false,
      "t": 80250.00000000001,
      "d": 750,
      "v": 77
    },
    {
      "midi": 62,
      "hit": false,
      "t": 80250.00000000001,
      "d": 750,
      "v": 77
    },
    {
      "midi": 61,
      "hit": false,
      "t": 81250.00000000001,
      "d": 750,
      "v": 77
    },
    {
      "midi": 64,
      "hit": false,
      "t": 81250.00000000001,
      "d": 750,
      "v": 77
    },
    {
      "midi": 67,
      "hit": false,
      "t": 81250.00000000001,
      "d": 750,
      "v": 77
    },
    {
      "midi": 71,
      "hit": false,
      "t": 81250.00000000001,
      "d": 750,
      "v": 77
    },
    {
      "midi": 54,
      "hit": false,
      "t": 82000.00000000001,
      "d": 2000,
      "v": 76
    },
    {
      "midi": 60,
      "hit": false,
      "t": 82000.00000000001,
      "d": 2000,
      "v": 86
    },
    {
      "midi": 62,
      "hit": false,
      "t": 82000.00000000001,
      "d": 2000,
      "v": 72
    },
    {
      "midi": 72,
      "hit": false,
      "t": 82250.00000000001,
      "d": 250,
      "v": 105
    },
    {
      "midi": 71,
      "hit": false,
      "t": 82500.00000000001,
      "d": 250,
      "v": 57
    },
    {
      "midi": 69,
      "hit": false,
      "t": 82750.00000000001,
      "d": 208.33333333332848,
      "v": 61
    },
    {
      "midi": 74,
      "hit": false,
      "t": 83000.00000000001,
      "d": 270.8333333333285,
      "v": 98
    },
    {
      "midi": 69,
      "hit": false,
      "t": 83250.00000000001,
      "d": 250,
      "v": 55
    },
    {
      "midi": 71,
      "hit": false,
      "t": 83500.00000000001,
      "d": 258.3333333333285,
      "v": 74
    },
    {
      "midi": 74,
      "hit": false,
      "t": 83758.33333333334,
      "d": 241.66666666667152,
      "v": 93
    },
    {
      "midi": 62,
      "hit": false,
      "t": 84008.33333333334,
      "d": 100,
      "v": 78
    },
    {
      "midi": 67,
      "hit": false,
      "t": 84008.33333333334,
      "d": 100,
      "v": 82
    },
    {
      "midi": 43,
      "hit": false,
      "t": 84008.33333333334,
      "d": 912.5,
      "v": 76
    },
    {
      "midi": 67,
      "hit": false,
      "t": 84508.33333333334,
      "d": 191.66666666667152,
      "v": 91
    },
    {
      "midi": 62,
      "hit": false,
      "t": 84520.83333333334,
      "d": 116.66666666667152,
      "v": 87
    },
    {
      "midi": 59,
      "hit": false,
      "t": 84758.33333333334,
      "d": 133.33333333332848,
      "v": 73
    },
    {
      "midi": 50,
      "hit": false,
      "t": 84991.66666666667,
      "d": 1008.3333333333285,
      "v": 69
    },
    {
      "midi": 67,
      "hit": false,
      "t": 85008.33333333334,
      "d": 120.83333333332848,
      "v": 90
    },
    {
      "midi": 67,
      "hit": false,
      "t": 85279.16666666667,
      "d": 120.83333333332848,
      "v": 76
    },
    {
      "midi": 62,
      "hit": false,
      "t": 85400,
      "d": 170.83333333332848,
      "v": 65
    },
    {
      "midi": 59,
      "hit": false,
      "t": 85512.5,
      "d": 166.66666666665697,
      "v": 85
    },
    {
      "midi": 55,
      "hit": false,
      "t": 85745.83333333333,
      "d": 125,
      "v": 86
    },
    {
      "midi": 55,
      "hit": false,
      "t": 86000,
      "d": 158.33333333332848,
      "v": 71
    },
    {
      "midi": 58,
      "hit": false,
      "t": 86000,
      "d": 158.33333333332848,
      "v": 63
    },
    {
      "midi": 61,
      "hit": false,
      "t": 86000,
      "d": 158.33333333332848,
      "v": 79
    },
    {
      "midi": 63,
      "hit": false,
      "t": 86000,
      "d": 179.16666666665697,
      "v": 71
    },
    {
      "midi": 55,
      "hit": false,
      "t": 86499.99999999999,
      "d": 500,
      "v": 87
    },
    {
      "midi": 58,
      "hit": false,
      "t": 86499.99999999999,
      "d": 500,
      "v": 76
    },
    {
      "midi": 61,
      "hit": false,
      "t": 86499.99999999999,
      "d": 500,
      "v": 89
    },
    {
      "midi": 63,
      "hit": false,
      "t": 86499.99999999999,
      "d": 500,
      "v": 83
    },
    {
      "midi": 60,
      "hit": false,
      "t": 87249.99999999999,
      "d": 750,
      "v": 77
    },
    {
      "midi": 62,
      "hit": false,
      "t": 87249.99999999999,
      "d": 750,
      "v": 77
    },
    {
      "midi": 66,
      "hit": false,
      "t": 87249.99999999999,
      "d": 750,
      "v": 77
    },
    {
      "midi": 69,
      "hit": false,
      "t": 87249.99999999999,
      "d": 750,
      "v": 77
    },
    {
      "midi": 62,
      "hit": false,
      "t": 88008.33333333331,
      "d": 100,
      "v": 78
    },
    {
      "midi": 67,
      "hit": false,
      "t": 88008.33333333331,
      "d": 100,
      "v": 82
    },
    {
      "midi": 43,
      "hit": false,
      "t": 88008.33333333331,
      "d": 912.5,
      "v": 76
    },
    {
      "midi": 67,
      "hit": false,
      "t": 88508.33333333331,
      "d": 191.66666666667152,
      "v": 91
    },
    {
      "midi": 62,
      "hit": false,
      "t": 88520.83333333331,
      "d": 116.66666666667152,
      "v": 87
    },
    {
      "midi": 59,
      "hit": false,
      "t": 88758.33333333331,
      "d": 133.33333333332848,
      "v": 73
    },
    {
      "midi": 50,
      "hit": false,
      "t": 88991.66666666664,
      "d": 1008.3333333333285,
      "v": 69
    },
    {
      "midi": 67,
      "hit": false,
      "t": 89008.33333333331,
      "d": 120.83333333332848,
      "v": 90
    },
    {
      "midi": 67,
      "hit": false,
      "t": 89279.16666666664,
      "d": 120.83333333332848,
      "v": 76
    },
    {
      "midi": 62,
      "hit": false,
      "t": 89399.99999999997,
      "d": 170.83333333332848,
      "v": 65
    },
    {
      "midi": 59,
      "hit": false,
      "t": 89512.49999999997,
      "d": 166.66666666665697,
      "v": 85
    },
    {
      "midi": 55,
      "hit": false,
      "t": 89745.8333333333,
      "d": 125,
      "v": 86
    },
    {
      "midi": 59,
      "hit": false,
      "t": 89999.99999999997,
      "d": 1000,
      "v": 77
    },
    {
      "midi": 62,
      "hit": false,
      "t": 89999.99999999997,
      "d": 1000,
      "v": 77
    },
    {
      "midi": 64,
      "hit": false,
      "t": 89999.99999999997,
      "d": 1000,
      "v": 77
    },
    {
      "midi": 68,
      "hit": false,
      "t": 89999.99999999997,
      "d": 1000,
      "v": 77
    },
    {
      "midi": 53,
      "hit": false,
      "t": 90999.99999999997,
      "d": 500,
      "v": 77
    },
    {
      "midi": 57,
      "hit": false,
      "t": 90999.99999999997,
      "d": 500,
      "v": 76
    },
    {
      "midi": 59,
      "hit": false,
      "t": 90999.99999999997,
      "d": 500,
      "v": 56
    },
    {
      "midi": 62,
      "hit": false,
      "t": 90999.99999999997,
      "d": 500,
      "v": 73
    },
    {
      "midi": 56,
      "hit": false,
      "t": 91499.99999999997,
      "d": 500,
      "v": 57
    },
    {
      "midi": 59,
      "hit": false,
      "t": 91499.99999999997,
      "d": 500,
      "v": 59
    },
    {
      "midi": 62,
      "hit": false,
      "t": 91499.99999999997,
      "d": 500,
      "v": 70
    },
    {
      "midi": 64,
      "hit": false,
      "t": 91499.99999999997,
      "d": 500,
      "v": 55
    },
    {
      "midi": 57,
      "hit": false,
      "t": 91999.99999999997,
      "d": 1000,
      "v": 77
    },
    {
      "midi": 60,
      "hit": false,
      "t": 91999.99999999997,
      "d": 1000,
      "v": 77
    },
    {
      "midi": 64,
      "hit": false,
      "t": 91999.99999999997,
      "d": 1000,
      "v": 77
    },
    {
      "midi": 60,
      "hit": false,
      "t": 93249.99999999997,
      "d": 750,
      "v": 77
    },
    {
      "midi": 64,
      "hit": false,
      "t": 93249.99999999997,
      "d": 750,
      "v": 77
    },
    {
      "midi": 67,
      "hit": false,
      "t": 93249.99999999997,
      "d": 750,
      "v": 77
    },
    {
      "midi": 69,
      "hit": false,
      "t": 93249.99999999997,
      "d": 750,
      "v": 77
    },
    {
      "midi": 45,
      "hit": false,
      "t": 93999.99999999997,
      "d": 616.6666666666715,
      "v": 59
    },
    {
      "midi": 57,
      "hit": false,
      "t": 94499.99999999997,
      "d": 187.5,
      "v": 88
    },
    {
      "midi": 51,
      "hit": false,
      "t": 94499.99999999997,
      "d": 195.83333333332848,
      "v": 83
    },
    {
      "midi": 55,
      "hit": false,
      "t": 94499.99999999997,
      "d": 237.5,
      "v": 97
    },
    {
      "midi": 55,
      "hit": false,
      "t": 94749.99999999997,
      "d": 62.5,
      "v": 30
    },
    {
      "midi": 51,
      "hit": false,
      "t": 94749.99999999997,
      "d": 91.66666666667152,
      "v": 59
    },
    {
      "midi": 48,
      "hit": false,
      "t": 94749.99999999997,
      "d": 241.66666666667152,
      "v": 92
    },
    {
      "midi": 39,
      "hit": false,
      "t": 94999.99999999997,
      "d": 854.166666666657,
      "v": 71
    },
    {
      "midi": 51,
      "hit": false,
      "t": 95249.99999999997,
      "d": 283.3333333333285,
      "v": 79
    },
    {
      "midi": 60,
      "hit": false,
      "t": 95249.99999999997,
      "d": 520.8333333333285,
      "v": 86
    },
    {
      "midi": 57,
      "hit": false,
      "t": 95249.99999999997,
      "d": 533.3333333333285,
      "v": 79
    },
    {
      "midi": 55,
      "hit": false,
      "t": 95249.99999999997,
      "d": 554.166666666657,
      "v": 88
    },
    {
      "midi": 51,
      "hit": false,
      "t": 95749.99999999997,
      "d": 154.16666666665697,
      "v": 69
    },
    {
      "midi": 55,
      "hit": false,
      "t": 95999.99999999996,
      "d": 1000,
      "v": 77
    },
    {
      "midi": 59,
      "hit": false,
      "t": 95999.99999999996,
      "d": 1000,
      "v": 77
    },
    {
      "midi": 62,
      "hit": false,
      "t": 95999.99999999996,
      "d": 1000,
      "v": 77
    },
    {
      "midi": 55,
      "hit": false,
      "t": 96999.99999999996,
      "d": 500,
      "v": 77
    },
    {
      "midi": 58,
      "hit": false,
      "t": 96999.99999999996,
      "d": 500,
      "v": 76
    },
    {
      "midi": 60,
      "hit": false,
      "t": 96999.99999999996,
      "d": 500,
      "v": 56
    },
    {
      "midi": 63,
      "hit": false,
      "t": 96999.99999999996,
      "d": 500,
      "v": 73
    },
    {
      "midi": 57,
      "hit": false,
      "t": 97499.99999999996,
      "d": 500,
      "v": 77
    },
    {
      "midi": 60,
      "hit": false,
      "t": 97499.99999999996,
      "d": 500,
      "v": 76
    },
    {
      "midi": 62,
      "hit": false,
      "t": 97499.99999999996,
      "d": 500,
      "v": 56
    },
    {
      "midi": 66,
      "hit": false,
      "t": 97499.99999999996,
      "d": 500,
      "v": 73
    },
    {
      "midi": 59,
      "hit": false,
      "t": 97999.99999999996,
      "d": 500,
      "v": 57
    },
    {
      "midi": 62,
      "hit": false,
      "t": 97999.99999999996,
      "d": 500,
      "v": 59
    },
    {
      "midi": 67,
      "hit": false,
      "t": 97999.99999999996,
      "d": 500,
      "v": 55
    },
    {
      "midi": 55,
      "hit": false,
      "t": 98499.99999999996,
      "d": 500,
      "v": 77
    },
    {
      "midi": 57,
      "hit": false,
      "t": 98499.99999999996,
      "d": 500,
      "v": 76
    },
    {
      "midi": 60,
      "hit": false,
      "t": 98499.99999999996,
      "d": 500,
      "v": 56
    },
    {
      "midi": 64,
      "hit": false,
      "t": 98499.99999999996,
      "d": 500,
      "v": 73
    },
    {
      "midi": 59,
      "hit": false,
      "t": 98999.99999999996,
      "d": 500,
      "v": 57
    },
    {
      "midi": 62,
      "hit": false,
      "t": 98999.99999999996,
      "d": 500,
      "v": 59
    },
    {
      "midi": 67,
      "hit": false,
      "t": 98999.99999999996,
      "d": 500,
      "v": 55
    },
    {
      "midi": 53,
      "hit": false,
      "t": 99499.99999999996,
      "d": 500,
      "v": 77
    },
    {
      "midi": 56,
      "hit": false,
      "t": 99499.99999999996,
      "d": 500,
      "v": 76
    },
    {
      "midi": 58,
      "hit": false,
      "t": 99499.99999999996,
      "d": 500,
      "v": 56
    },
    {
      "midi": 62,
      "hit": false,
      "t": 99499.99999999996,
      "d": 500,
      "v": 73
    },
    {
      "midi": 55,
      "hit": false,
      "t": 99999.99999999996,
      "d": 158.33333333332848,
      "v": 71
    },
    {
      "midi": 58,
      "hit": false,
      "t": 99999.99999999996,
      "d": 158.33333333332848,
      "v": 63
    },
    {
      "midi": 63,
      "hit": false,
      "t": 99999.99999999996,
      "d": 158.33333333332848,
      "v": 71
    },
    {
      "midi": 55,
      "hit": false,
      "t": 100499.99999999996,
      "d": 500,
      "v": 87
    },
    {
      "midi": 58,
      "hit": false,
      "t": 100499.99999999996,
      "d": 500,
      "v": 76
    },
    {
      "midi": 63,
      "hit": false,
      "t": 100499.99999999996,
      "d": 500,
      "v": 83
    },
    {
      "midi": 58,
      "hit": false,
      "t": 101249.99999999996,
      "d": 750,
      "v": 77
    },
    {
      "midi": 60,
      "hit": false,
      "t": 101249.99999999996,
      "d": 750,
      "v": 77
    },
    {
      "midi": 63,
      "hit": false,
      "t": 101249.99999999996,
      "d": 750,
      "v": 77
    },
    {
      "midi": 67,
      "hit": false,
      "t": 101249.99999999996,
      "d": 750,
      "v": 77
    },
    {
      "midi": 46,
      "hit": false,
      "t": 101999.99999999996,
      "d": 616.6666666666715,
      "v": 59
    },
    {
      "midi": 58,
      "hit": false,
      "t": 102499.99999999996,
      "d": 187.5,
      "v": 88
    },
    {
      "midi": 53,
      "hit": false,
      "t": 102499.99999999996,
      "d": 195.83333333332848,
      "v": 83
    },
    {
      "midi": 56,
      "hit": false,
      "t": 102499.99999999996,
      "d": 237.5,
      "v": 97
    },
    {
      "midi": 56,
      "hit": false,
      "t": 102749.99999999996,
      "d": 62.5,
      "v": 30
    },
    {
      "midi": 53,
      "hit": false,
      "t": 102749.99999999996,
      "d": 91.66666666667152,
      "v": 59
    },
    {
      "midi": 50,
      "hit": false,
      "t": 102749.99999999996,
      "d": 241.66666666667152,
      "v": 92
    },
    {
      "midi": 41,
      "hit": false,
      "t": 102999.99999999996,
      "d": 854.166666666657,
      "v": 71
    },
    {
      "midi": 53,
      "hit": false,
      "t": 103249.99999999996,
      "d": 283.3333333333285,
      "v": 79
    },
    {
      "midi": 62,
      "hit": false,
      "t": 103249.99999999996,
      "d": 520.8333333333285,
      "v": 86
    },
    {
      "midi": 58,
      "hit": false,
      "t": 103249.99999999996,
      "d": 533.3333333333285,
      "v": 79
    },
    {
      "midi": 56,
      "hit": false,
      "t": 103249.99999999996,
      "d": 554.166666666657,
      "v": 88
    },
    {
      "midi": 53,
      "hit": false,
      "t": 103749.99999999996,
      "d": 154.16666666665697,
      "v": 69
    },
    {
      "midi": 55,
      "hit": false,
      "t": 103999.99999999994,
      "d": 158.33333333332848,
      "v": 71
    },
    {
      "midi": 58,
      "hit": false,
      "t": 103999.99999999994,
      "d": 158.33333333332848,
      "v": 63
    },
    {
      "midi": 63,
      "hit": false,
      "t": 103999.99999999994,
      "d": 158.33333333332848,
      "v": 71
    },
    {
      "midi": 55,
      "hit": false,
      "t": 104499.99999999994,
      "d": 500,
      "v": 87
    },
    {
      "midi": 58,
      "hit": false,
      "t": 104499.99999999994,
      "d": 500,
      "v": 76
    },
    {
      "midi": 63,
      "hit": false,
      "t": 104499.99999999994,
      "d": 500,
      "v": 83
    },
    {
      "midi": 58,
      "hit": false,
      "t": 104999.99999999994,
      "d": 1000,
      "v": 77
    },
    {
      "midi": 60,
      "hit": false,
      "t": 104999.99999999994,
      "d": 1000,
      "v": 77
    },
    {
      "midi": 63,
      "hit": false,
      "t": 104999.99999999994,
      "d": 1000,
      "v": 77
    },
    {
      "midi": 67,
      "hit": false,
      "t": 104999.99999999994,
      "d": 1000,
      "v": 77
    },
    {
      "midi": 53,
      "hit": false,
      "t": 105999.99999999994,
      "d": 500,
      "v": 77
    },
    {
      "midi": 56,
      "hit": false,
      "t": 105999.99999999994,
      "d": 500,
      "v": 76
    },
    {
      "midi": 58,
      "hit": false,
      "t": 105999.99999999994,
      "d": 500,
      "v": 56
    },
    {
      "midi": 62,
      "hit": false,
      "t": 105999.99999999994,
      "d": 500,
      "v": 73
    },
    {
      "midi": 53,
      "hit": false,
      "t": 106499.99999999994,
      "d": 500,
      "v": 77
    },
    {
      "midi": 56,
      "hit": false,
      "t": 106499.99999999994,
      "d": 500,
      "v": 76
    },
    {
      "midi": 58,
      "hit": false,
      "t": 106499.99999999994,
      "d": 500,
      "v": 56
    },
    {
      "midi": 62,
      "hit": false,
      "t": 106499.99999999994,
      "d": 500,
      "v": 73
    },
    {
      "midi": 62,
      "hit": false,
      "t": 107249.99999999994,
      "d": 750,
      "v": 77
    },
    {
      "midi": 65,
      "hit": false,
      "t": 107249.99999999994,
      "d": 750,
      "v": 77
    },
    {
      "midi": 68,
      "hit": false,
      "t": 107249.99999999994,
      "d": 750,
      "v": 77
    },
    {
      "midi": 70,
      "hit": false,
      "t": 107249.99999999994,
      "d": 750,
      "v": 77
    },
    {
      "midi": 55,
      "hit": false,
      "t": 107999.99999999994,
      "d": 1000,
      "v": 77
    },
    {
      "midi": 58,
      "hit": false,
      "t": 107999.99999999994,
      "d": 1000,
      "v": 77
    },
    {
      "midi": 63,
      "hit": false,
      "t": 107999.99999999994,
      "d": 1000,
      "v": 77
    },
    {
      "midi": 58,
      "hit": false,
      "t": 108999.99999999994,
      "d": 1000,
      "v": 77
    },
    {
      "midi": 60,
      "hit": false,
      "t": 108999.99999999994,
      "d": 1000,
      "v": 77
    },
    {
      "midi": 63,
      "hit": false,
      "t": 108999.99999999994,
      "d": 1000,
      "v": 77
    },
    {
      "midi": 67,
      "hit": false,
      "t": 108999.99999999994,
      "d": 1000,
      "v": 77
    },
    {
      "midi": 58,
      "hit": false,
      "t": 109999.99999999994,
      "d": 58.33333333332848,
      "v": 70
    },
    {
      "midi": 53,
      "hit": false,
      "t": 109999.99999999994,
      "d": 70.83333333332848,
      "v": 68
    },
    {
      "midi": 62,
      "hit": false,
      "t": 109999.99999999994,
      "d": 70.83333333332848,
      "v": 76
    },
    {
      "midi": 58,
      "hit": false,
      "t": 110499.99999999994,
      "d": 83.33333333332848,
      "v": 76
    },
    {
      "midi": 55,
      "hit": false,
      "t": 110499.99999999994,
      "d": 87.5,
      "v": 77
    },
    {
      "midi": 62,
      "hit": false,
      "t": 110499.99999999994,
      "d": 95.83333333332848,
      "v": 80
    },
    {
      "midi": 58,
      "hit": false,
      "t": 110999.99999999994,
      "d": 175,
      "v": 77
    },
    {
      "midi": 53,
      "hit": false,
      "t": 110999.99999999994,
      "d": 179.16666666667152,
      "v": 72
    },
    {
      "midi": 62,
      "hit": false,
      "t": 110999.99999999994,
      "d": 195.83333333334303,
      "v": 81
    },
    {
      "midi": 58,
      "hit": false,
      "t": 111499.99999999996,
      "d": 154.16666666667152,
      "v": 83
    },
    {
      "midi": 55,
      "hit": false,
      "t": 111499.99999999996,
      "d": 170.83333333334303,
      "v": 84
    },
    {
      "midi": 62,
      "hit": false,
      "t": 111499.99999999996,
      "d": 179.16666666667152,
      "v": 87
    },
    {
      "midi": 63,
      "hit": false,
      "t": 111999.99999999996,
      "d": 1075,
      "v": 80
    },
    {
      "midi": 55,
      "hit": false,
      "t": 111999.99999999996,
      "d": 1087.5,
      "v": 75
    },
    {
      "midi": 69,
      "hit": false,
      "t": 112999.99999999996,
      "d": 20.833333333328483,
      "v": 90
    },
    {
      "midi": 70,
      "hit": false,
      "t": 113020.83333333328,
      "d": 304.1666666666715,
      "v": 78
    },
    {
      "midi": 75,
      "hit": false,
      "t": 113249.99999999996,
      "d": 750,
      "v": 69
    },
    {
      "midi": 57,
      "hit": false,
      "t": 113999.99999999996,
      "d": 500,
      "v": 77
    },
    {
      "midi": 60,
      "hit": false,
      "t": 113999.99999999996,
      "d": 500,
      "v": 76
    },
    {
      "midi": 62,
      "hit": false,
      "t": 113999.99999999996,
      "d": 500,
      "v": 56
    },
    {
      "midi": 66,
      "hit": false,
      "t": 113999.99999999996,
      "d": 500,
      "v": 73
    },
    {
      "midi": 55,
      "hit": false,
      "t": 114499.99999999996,
      "d": 500,
      "v": 57
    },
    {
      "midi": 59,
      "hit": false,
      "t": 114499.99999999996,
      "d": 500,
      "v": 59
    },
    {
      "midi": 64,
      "hit": false,
      "t": 114499.99999999996,
      "d": 500,
      "v": 55
    },
    {
      "midi": 52,
      "hit": false,
      "t": 114999.99999999996,
      "d": 500,
      "v": 77
    },
    {
      "midi": 55,
      "hit": false,
      "t": 114999.99999999996,
      "d": 500,
      "v": 76
    },
    {
      "midi": 57,
      "hit": false,
      "t": 114999.99999999996,
      "d": 500,
      "v": 56
    },
    {
      "midi": 60,
      "hit": false,
      "t": 114999.99999999996,
      "d": 500,
      "v": 73
    },
    {
      "midi": 57,
      "hit": false,
      "t": 115499.99999999996,
      "d": 500,
      "v": 77
    },
    {
      "midi": 60,
      "hit": false,
      "t": 115499.99999999996,
      "d": 500,
      "v": 76
    },
    {
      "midi": 62,
      "hit": false,
      "t": 115499.99999999996,
      "d": 500,
      "v": 56
    },
    {
      "midi": 66,
      "hit": false,
      "t": 115499.99999999996,
      "d": 500,
      "v": 73
    },
    {
      "midi": 67,
      "hit": false,
      "t": 115999.99999999996,
      "d": 1075,
      "v": 80
    },
    {
      "midi": 59,
      "hit": false,
      "t": 115999.99999999996,
      "d": 1087.5,
      "v": 75
    },
    {
      "midi": 73,
      "hit": false,
      "t": 116999.99999999996,
      "d": 20.833333333328483,
      "v": 90
    },
    {
      "midi": 74,
      "hit": false,
      "t": 117020.83333333328,
      "d": 304.1666666666715,
      "v": 78
    },
    {
      "midi": 79,
      "hit": false,
      "t": 117249.99999999996,
      "d": 750,
      "v": 69
    },
    {
      "midi": 58,
      "hit": false,
      "t": 118249.99999999996,
      "d": 750,
      "v": 77
    },
    {
      "midi": 61,
      "hit": false,
      "t": 118249.99999999996,
      "d": 750,
      "v": 77
    },
    {
      "midi": 63,
      "hit": false,
      "t": 118249.99999999996,
      "d": 750,
      "v": 77
    },
    {
      "midi": 67,
      "hit": false,
      "t": 118249.99999999996,
      "d": 750,
      "v": 77
    },
    {
      "midi": 57,
      "hit": false,
      "t": 118999.99999999996,
      "d": 1000,
      "v": 77
    },
    {
      "midi": 60,
      "hit": false,
      "t": 118999.99999999996,
      "d": 1000,
      "v": 77
    },
    {
      "midi": 62,
      "hit": false,
      "t": 118999.99999999996,
      "d": 1000,
      "v": 77
    },
    {
      "midi": 66,
      "hit": false,
      "t": 118999.99999999996,
      "d": 1000,
      "v": 77
    },
    {
      "midi": 55,
      "hit": false,
      "t": 120249.99999999996,
      "d": 220.83333333332848,
      "v": 73
    },
    {
      "midi": 67,
      "hit": false,
      "t": 120249.99999999996,
      "d": 245.83333333332848,
      "v": 79
    },
    {
      "midi": 79,
      "hit": false,
      "t": 120249.99999999996,
      "d": 245.83333333332848,
      "v": 79
    },
    {
      "midi": 59,
      "hit": false,
      "t": 120249.99999999996,
      "d": 250,
      "v": 74
    },
    {
      "midi": 55,
      "hit": false,
      "t": 120499.99999999996,
      "d": 187.5,
      "v": 62
    },
    {
      "midi": 67,
      "hit": false,
      "t": 120499.99999999996,
      "d": 200,
      "v": 42
    },
    {
      "midi": 59,
      "hit": false,
      "t": 120499.99999999996,
      "d": 220.83333333332848,
      "v": 63
    },
    {
      "midi": 79,
      "hit": false,
      "t": 120499.99999999996,
      "d": 233.33333333332848,
      "v": 72
    },
    {
      "midi": 55,
      "hit": false,
      "t": 120749.99999999996,
      "d": 191.66666666667152,
      "v": 76
    },
    {
      "midi": 79,
      "hit": false,
      "t": 120749.99999999996,
      "d": 225,
      "v": 75
    },
    {
      "midi": 59,
      "hit": false,
      "t": 120749.99999999996,
      "d": 237.5,
      "v": 84
    },
    {
      "midi": 67,
      "hit": false,
      "t": 120749.99999999996,
      "d": 237.5,
      "v": 75
    },
    {
      "midi": 55,
      "hit": false,
      "t": 120999.99999999996,
      "d": 200,
      "v": 81
    },
    {
      "midi": 59,
      "hit": false,
      "t": 120999.99999999996,
      "d": 229.16666666667152,
      "v": 85
    },
    {
      "midi": 67,
      "hit": false,
      "t": 120999.99999999996,
      "d": 229.16666666667152,
      "v": 78
    },
    {
      "midi": 79,
      "hit": false,
      "t": 120999.99999999996,
      "d": 229.16666666667152,
      "v": 80
    },
    {
      "midi": 55,
      "hit": false,
      "t": 121249.99999999996,
      "d": 225,
      "v": 81
    },
    {
      "midi": 59,
      "hit": false,
      "t": 121249.99999999996,
      "d": 250,
      "v": 84
    },
    {
      "midi": 67,
      "hit": false,
      "t": 121249.99999999996,
      "d": 250,
      "v": 79
    },
    {
      "midi": 79,
      "hit": false,
      "t": 121249.99999999996,
      "d": 250,
      "v": 83
    },
    {
      "midi": 55,
      "hit": false,
      "t": 121499.99999999996,
      "d": 225,
      "v": 83
    },
    {
      "midi": 59,
      "hit": false,
      "t": 121499.99999999996,
      "d": 254.16666666667152,
      "v": 84
    },
    {
      "midi": 67,
      "hit": false,
      "t": 121499.99999999996,
      "d": 254.16666666667152,
      "v": 84
    },
    {
      "midi": 79,
      "hit": false,
      "t": 121499.99999999996,
      "d": 254.16666666667152,
      "v": 86
    },
    {
      "midi": 55,
      "hit": false,
      "t": 121754.16666666663,
      "d": 245.83333333332848,
      "v": 81
    },
    {
      "midi": 59,
      "hit": false,
      "t": 121754.16666666663,
      "d": 245.83333333332848,
      "v": 79
    },
    {
      "midi": 67,
      "hit": false,
      "t": 121754.16666666663,
      "d": 245.83333333332848,
      "v": 86
    },
    {
      "midi": 79,
      "hit": false,
      "t": 121754.16666666663,
      "d": 245.83333333332848,
      "v": 88
    },
    {
      "midi": 56,
      "hit": false,
      "t": 121999.99999999996,
      "d": 158.33333333332848,
      "v": 71
    },
    {
      "midi": 59,
      "hit": false,
      "t": 121999.99999999996,
      "d": 158.33333333332848,
      "v": 63
    },
    {
      "midi": 62,
      "hit": false,
      "t": 121999.99999999996,
      "d": 158.33333333332848,
      "v": 79
    },
    {
      "midi": 64,
      "hit": false,
      "t": 121999.99999999996,
      "d": 179.16666666665697,
      "v": 71
    },
    {
      "midi": 56,
      "hit": false,
      "t": 122499.99999999994,
      "d": 500,
      "v": 87
    },
    {
      "midi": 59,
      "hit": false,
      "t": 122499.99999999994,
      "d": 500,
      "v": 76
    },
    {
      "midi": 62,
      "hit": false,
      "t": 122499.99999999994,
      "d": 500,
      "v": 89
    },
    {
      "midi": 64,
      "hit": false,
      "t": 122499.99999999994,
      "d": 500,
      "v": 83
    },
    {
      "midi": 53,
      "hit": false,
      "t": 122999.99999999994,
      "d": 500,
      "v": 77
    },
    {
      "midi": 57,
      "hit": false,
      "t": 122999.99999999994,
      "d": 500,
      "v": 76
    },
    {
      "midi": 59,
      "hit": false,
      "t": 122999.99999999994,
      "d": 500,
      "v": 56
    },
    {
      "midi": 62,
      "hit": false,
      "t": 122999.99999999994,
      "d": 500,
      "v": 73
    },
    {
      "midi": 56,
      "hit": false,
      "t": 123499.99999999994,
      "d": 500,
      "v": 57
    },
    {
      "midi": 59,
      "hit": false,
      "t": 123499.99999999994,
      "d": 500,
      "v": 59
    },
    {
      "midi": 62,
      "hit": false,
      "t": 123499.99999999994,
      "d": 500,
      "v": 70
    },
    {
      "midi": 64,
      "hit": false,
      "t": 123499.99999999994,
      "d": 500,
      "v": 55
    },
    {
      "midi": 57,
      "hit": false,
      "t": 123999.99999999994,
      "d": 175,
      "v": 71
    },
    {
      "midi": 52,
      "hit": false,
      "t": 123999.99999999994,
      "d": 191.66666666667152,
      "v": 76
    },
    {
      "midi": 60,
      "hit": false,
      "t": 123999.99999999994,
      "d": 229.16666666667152,
      "v": 86
    },
    {
      "midi": 57,
      "hit": false,
      "t": 124499.99999999994,
      "d": 258.3333333333285,
      "v": 69
    },
    {
      "midi": 52,
      "hit": false,
      "t": 124499.99999999994,
      "d": 270.8333333333285,
      "v": 72
    },
    {
      "midi": 60,
      "hit": false,
      "t": 124499.99999999994,
      "d": 291.66666666665697,
      "v": 83
    },
    {
      "midi": 60,
      "hit": false,
      "t": 124999.99999999993,
      "d": 1000,
      "v": 77
    },
    {
      "midi": 64,
      "hit": false,
      "t": 124999.99999999993,
      "d": 1000,
      "v": 77
    },
    {
      "midi": 67,
      "hit": false,
      "t": 124999.99999999993,
      "d": 1000,
      "v": 77
    },
    {
      "midi": 69,
      "hit": false,
      "t": 124999.99999999993,
      "d": 1000,
      "v": 77
    },
    {
      "midi": 45,
      "hit": false,
      "t": 125999.99999999993,
      "d": 616.6666666666715,
      "v": 59
    },
    {
      "midi": 57,
      "hit": false,
      "t": 126499.99999999993,
      "d": 187.5,
      "v": 88
    },
    {
      "midi": 51,
      "hit": false,
      "t": 126499.99999999993,
      "d": 195.83333333332848,
      "v": 83
    },
    {
      "midi": 55,
      "hit": false,
      "t": 126499.99999999993,
      "d": 237.5,
      "v": 97
    },
    {
      "midi": 55,
      "hit": false,
      "t": 126749.99999999993,
      "d": 62.5,
      "v": 30
    },
    {
      "midi": 51,
      "hit": false,
      "t": 126749.99999999993,
      "d": 91.66666666667152,
      "v": 59
    },
    {
      "midi": 48,
      "hit": false,
      "t": 126749.99999999993,
      "d": 241.66666666667152,
      "v": 92
    },
    {
      "midi": 39,
      "hit": false,
      "t": 126999.99999999993,
      "d": 854.166666666657,
      "v": 71
    },
    {
      "midi": 51,
      "hit": false,
      "t": 127249.99999999993,
      "d": 283.3333333333285,
      "v": 79
    },
    {
      "midi": 60,
      "hit": false,
      "t": 127249.99999999993,
      "d": 520.8333333333285,
      "v": 86
    },
    {
      "midi": 57,
      "hit": false,
      "t": 127249.99999999993,
      "d": 533.3333333333285,
      "v": 79
    },
    {
      "midi": 55,
      "hit": false,
      "t": 127249.99999999993,
      "d": 554.166666666657,
      "v": 88
    },
    {
      "midi": 51,
      "hit": false,
      "t": 127749.99999999993,
      "d": 154.16666666665697,
      "v": 69
    },
    {
      "midi": 55,
      "hit": false,
      "t": 127999.99999999991,
      "d": 1000,
      "v": 77
    },
    {
      "midi": 59,
      "hit": false,
      "t": 127999.99999999991,
      "d": 1000,
      "v": 77
    },
    {
      "midi": 62,
      "hit": false,
      "t": 127999.99999999991,
      "d": 1000,
      "v": 77
    },
    {
      "midi": 55,
      "hit": false,
      "t": 128999.99999999991,
      "d": 500,
      "v": 77
    },
    {
      "midi": 58,
      "hit": false,
      "t": 128999.99999999991,
      "d": 500,
      "v": 76
    },
    {
      "midi": 60,
      "hit": false,
      "t": 128999.99999999991,
      "d": 500,
      "v": 56
    },
    {
      "midi": 63,
      "hit": false,
      "t": 128999.99999999991,
      "d": 500,
      "v": 73
    },
    {
      "midi": 57,
      "hit": false,
      "t": 129499.99999999991,
      "d": 500,
      "v": 77
    },
    {
      "midi": 60,
      "hit": false,
      "t": 129499.99999999991,
      "d": 500,
      "v": 76
    },
    {
      "midi": 62,
      "hit": false,
      "t": 129499.99999999991,
      "d": 500,
      "v": 56
    },
    {
      "midi": 66,
      "hit": false,
      "t": 129499.99999999991,
      "d": 500,
      "v": 73
    },
    {
      "midi": 62,
      "hit": false,
      "t": 130008.33333333324,
      "d": 100,
      "v": 78
    },
    {
      "midi": 67,
      "hit": false,
      "t": 130008.33333333324,
      "d": 100,
      "v": 82
    },
    {
      "midi": 43,
      "hit": false,
      "t": 130008.33333333324,
      "d": 912.5,
      "v": 76
    },
    {
      "midi": 67,
      "hit": false,
      "t": 130508.33333333324,
      "d": 191.66666666667152,
      "v": 91
    },
    {
      "midi": 62,
      "hit": false,
      "t": 130520.83333333324,
      "d": 116.66666666667152,
      "v": 87
    },
    {
      "midi": 59,
      "hit": false,
      "t": 130758.33333333324,
      "d": 133.33333333332848,
      "v": 73
    },
    {
      "midi": 50,
      "hit": false,
      "t": 130991.66666666657,
      "d": 1008.333333333343,
      "v": 69
    },
    {
      "midi": 67,
      "hit": false,
      "t": 131008.33333333324,
      "d": 120.83333333332848,
      "v": 90
    },
    {
      "midi": 67,
      "hit": false,
      "t": 131279.16666666657,
      "d": 120.83333333334303,
      "v": 76
    },
    {
      "midi": 62,
      "hit": false,
      "t": 131399.9999999999,
      "d": 170.83333333334303,
      "v": 65
    },
    {
      "midi": 59,
      "hit": false,
      "t": 131512.4999999999,
      "d": 166.66666666668607,
      "v": 85
    },
    {
      "midi": 55,
      "hit": false,
      "t": 131745.83333333326,
      "d": 125,
      "v": 86
    },
    {
      "midi": 55,
      "hit": false,
      "t": 131999.9999999999,
      "d": 704.166666666657,
      "v": 76
    },
    {
      "midi": 59,
      "hit": false,
      "t": 131999.9999999999,
      "d": 704.166666666657,
      "v": 76
    },
    {
      "midi": 62,
      "hit": false,
      "t": 131999.9999999999,
      "d": 704.166666666657,
      "v": 76
    },
    {
      "midi": 55,
      "hit": false,
      "t": 132749.9999999999,
      "d": 175,
      "v": 83
    },
    {
      "midi": 60,
      "hit": false,
      "t": 132749.9999999999,
      "d": 175,
      "v": 83
    },
    {
      "midi": 64,
      "hit": false,
      "t": 132749.9999999999,
      "d": 175,
      "v": 83
    },
    {
      "midi": 55,
      "hit": false,
      "t": 133249.9999999999,
      "d": 216.66666666665697,
      "v": 74
    },
    {
      "midi": 59,
      "hit": false,
      "t": 133249.9999999999,
      "d": 216.66666666665697,
      "v": 74
    },
    {
      "midi": 62,
      "hit": false,
      "t": 133249.9999999999,
      "d": 216.66666666665697,
      "v": 74
    },
    {
      "midi": 54,
      "hit": false,
      "t": 133749.9999999999,
      "d": 162.5,
      "v": 68
    },
    {
      "midi": 57,
      "hit": false,
      "t": 133749.9999999999,
      "d": 162.5,
      "v": 68
    },
    {
      "midi": 62,
      "hit": false,
      "t": 133749.9999999999,
      "d": 162.5,
      "v": 68
    },
    {
      "midi": 55,
      "hit": false,
      "t": 133999.9999999999,
      "d": 162.5,
      "v": 69
    },
    {
      "midi": 59,
      "hit": false,
      "t": 133999.9999999999,
      "d": 162.5,
      "v": 69
    },
    {
      "midi": 62,
      "hit": false,
      "t": 133999.9999999999,
      "d": 162.5,
      "v": 69
    },
    {
      "midi": 54,
      "hit": false,
      "t": 134499.9999999999,
      "d": 229.16666666665697,
      "v": 69
    },
    {
      "midi": 57,
      "hit": false,
      "t": 134499.9999999999,
      "d": 229.16666666665697,
      "v": 69
    },
    {
      "midi": 62,
      "hit": false,
      "t": 134499.9999999999,
      "d": 229.16666666665697,
      "v": 69
    },
    {
      "midi": 55,
      "hit": false,
      "t": 134749.9999999999,
      "d": 1008.333333333343,
      "v": 71
    },
    {
      "midi": 59,
      "hit": false,
      "t": 134749.9999999999,
      "d": 1008.333333333343,
      "v": 71
    },
    {
      "midi": 62,
      "hit": false,
      "t": 134749.9999999999,
      "d": 1008.333333333343,
      "v": 71
    }
  ]
}