{
  "jsonPath": "Jazz/Cool Jazz/Dave Brubeck/kathys-waltz.json",
  "path": "Jazz\\Cool Jazz\\Dave Brubeck\\Kathys Waltz.mid",
  "name": "Kathys Waltz",
  "difficulty": "Advanced",
  "bpm": 123.00047355182318,
  "notes": [
    {
      "midi": 79,
      "hit": false,
      "t": 648.646,
      "d": 162.16149999999993,
      "v": 93
    },
    {
      "midi": 77,
      "hit": false,
      "t": 972.9689999999998,
      "d": 135.13458333333324,
      "v": 86
    },
    {
      "midi": 69,
      "hit": false,
      "t": 1189.1843333333331,
      "d": 270.2691666666667,
      "v": 84
    },
    {
      "midi": 57,
      "hit": false,
      "t": 1837.8303333333333,
      "d": 216.21533333333355,
      "v": 62
    },
    {
      "midi": 60,
      "hit": false,
      "t": 1837.8303333333333,
      "d": 216.21533333333355,
      "v": 62
    },
    {
      "midi": 63,
      "hit": false,
      "t": 1837.8303333333333,
      "d": 216.21533333333355,
      "v": 62
    },
    {
      "midi": 67,
      "hit": false,
      "t": 1837.8303333333333,
      "d": 216.21533333333355,
      "v": 62
    },
    {
      "midi": 79,
      "hit": false,
      "t": 2162.153333333333,
      "d": 108.10766666666677,
      "v": 89
    },
    {
      "midi": 77,
      "hit": false,
      "t": 2270.261,
      "d": 108.10766666666677,
      "v": 85
    },
    {
      "midi": 68,
      "hit": false,
      "t": 2486.4763333333335,
      "d": 297.2960833333332,
      "v": 84
    },
    {
      "midi": 56,
      "hit": false,
      "t": 3135.1223333333337,
      "d": 108.10766666666677,
      "v": 62
    },
    {
      "midi": 59,
      "hit": false,
      "t": 3135.1223333333337,
      "d": 108.10766666666677,
      "v": 62
    },
    {
      "midi": 62,
      "hit": false,
      "t": 3135.1223333333337,
      "d": 108.10766666666677,
      "v": 62
    },
    {
      "midi": 65,
      "hit": false,
      "t": 3135.1223333333337,
      "d": 108.10766666666677,
      "v": 62
    },
    {
      "midi": 77,
      "hit": false,
      "t": 3459.445333333333,
      "d": 135.13458333333347,
      "v": 87
    },
    {
      "midi": 75,
      "hit": false,
      "t": 3567.553,
      "d": 135.13458333333347,
      "v": 86
    },
    {
      "midi": 67,
      "hit": false,
      "t": 3783.7683333333334,
      "d": 297.2960833333332,
      "v": 86
    },
    {
      "midi": 55,
      "hit": false,
      "t": 4432.414333333334,
      "d": 108.10766666666677,
      "v": 62
    },
    {
      "midi": 62,
      "hit": false,
      "t": 4432.414333333334,
      "d": 108.10766666666677,
      "v": 62
    },
    {
      "midi": 58,
      "hit": false,
      "t": 4432.414333333334,
      "d": 216.21533333333355,
      "v": 62
    },
    {
      "midi": 65,
      "hit": false,
      "t": 4432.414333333334,
      "d": 216.21533333333355,
      "v": 62
    },
    {
      "midi": 77,
      "hit": false,
      "t": 4756.7373333333335,
      "d": 108.10766666666677,
      "v": 87
    },
    {
      "midi": 75,
      "hit": false,
      "t": 4864.845,
      "d": 108.10766666666677,
      "v": 87
    },
    {
      "midi": 66,
      "hit": false,
      "t": 5081.060333333334,
      "d": 243.24225000000024,
      "v": 87
    },
    {
      "midi": 54,
      "hit": false,
      "t": 5729.706333333334,
      "d": 108.10766666666677,
      "v": 64
    },
    {
      "midi": 60,
      "hit": false,
      "t": 5729.706333333334,
      "d": 108.10766666666677,
      "v": 64
    },
    {
      "midi": 58,
      "hit": false,
      "t": 5729.706333333334,
      "d": 216.21533333333355,
      "v": 64
    },
    {
      "midi": 63,
      "hit": false,
      "t": 5729.706333333334,
      "d": 216.21533333333355,
      "v": 64
    },
    {
      "midi": 65,
      "hit": false,
      "t": 6162.137000000001,
      "d": 216.21533333333355,
      "v": 85
    },
    {
      "midi": 67,
      "hit": false,
      "t": 6378.352333333334,
      "d": 108.10766666666677,
      "v": 85
    },
    {
      "midi": 69,
      "hit": false,
      "t": 6486.460000000001,
      "d": 324.3230000000003,
      "v": 85
    },
    {
      "midi": 53,
      "hit": false,
      "t": 7026.998333333335,
      "d": 108.10766666666677,
      "v": 61
    },
    {
      "midi": 57,
      "hit": false,
      "t": 7026.998333333335,
      "d": 216.21533333333355,
      "v": 61
    },
    {
      "midi": 58,
      "hit": false,
      "t": 7026.998333333335,
      "d": 216.21533333333355,
      "v": 61
    },
    {
      "midi": 62,
      "hit": false,
      "t": 7026.998333333335,
      "d": 216.21533333333355,
      "v": 61
    },
    {
      "midi": 70,
      "hit": false,
      "t": 7459.429000000001,
      "d": 135.13458333333347,
      "v": 85
    },
    {
      "midi": 72,
      "hit": false,
      "t": 7675.6443333333345,
      "d": 135.13458333333347,
      "v": 86
    },
    {
      "midi": 73,
      "hit": false,
      "t": 7767.535850000001,
      "d": 216.21533333333355,
      "v": 86
    },
    {
      "midi": 74,
      "hit": false,
      "t": 7783.752000000001,
      "d": 648.6459999999997,
      "v": 86
    },
    {
      "midi": 55,
      "hit": false,
      "t": 8324.290333333334,
      "d": 108.10766666666677,
      "v": 60
    },
    {
      "midi": 62,
      "hit": false,
      "t": 8324.290333333334,
      "d": 108.10766666666677,
      "v": 60
    },
    {
      "midi": 65,
      "hit": false,
      "t": 8324.290333333334,
      "d": 108.10766666666677,
      "v": 60
    },
    {
      "midi": 58,
      "hit": false,
      "t": 8324.290333333334,
      "d": 216.21533333333355,
      "v": 60
    },
    {
      "midi": 75,
      "hit": false,
      "t": 8648.613333333335,
      "d": 216.21533333333355,
      "v": 86
    },
    {
      "midi": 77,
      "hit": false,
      "t": 8756.721000000001,
      "d": 216.21533333333355,
      "v": 90
    },
    {
      "midi": 79,
      "hit": false,
      "t": 8972.936333333335,
      "d": 1297.2919999999995,
      "v": 95
    },
    {
      "midi": 62,
      "hit": false,
      "t": 9405.367000000002,
      "d": 324.3230000000003,
      "v": 67
    },
    {
      "midi": 67,
      "hit": false,
      "t": 9405.367000000002,
      "d": 756.7536666666674,
      "v": 67
    },
    {
      "midi": 60,
      "hit": false,
      "t": 9729.690000000002,
      "d": 432.4306666666671,
      "v": 70
    },
    {
      "midi": 60,
      "hit": false,
      "t": 10378.336000000003,
      "d": 108.10766666666677,
      "v": 65
    },
    {
      "midi": 65,
      "hit": false,
      "t": 10378.336000000003,
      "d": 864.8613333333342,
      "v": 65
    },
    {
      "midi": 60,
      "hit": false,
      "t": 10702.659000000003,
      "d": 216.21533333333355,
      "v": 66
    },
    {
      "midi": 59,
      "hit": false,
      "t": 10918.874333333337,
      "d": 324.3230000000003,
      "v": 68
    },
    {
      "midi": 81,
      "hit": false,
      "t": 11243.197333333334,
      "d": 108.10766666666677,
      "v": 90
    },
    {
      "midi": 79,
      "hit": false,
      "t": 11351.305,
      "d": 108.10766666666677,
      "v": 88
    },
    {
      "midi": 73,
      "hit": false,
      "t": 11567.520333333334,
      "d": 216.21533333333355,
      "v": 88
    },
    {
      "midi": 45,
      "hit": false,
      "t": 11891.843333333338,
      "d": 108.10766666666677,
      "v": 64
    },
    {
      "midi": 57,
      "hit": false,
      "t": 12216.166333333338,
      "d": 324.3230000000003,
      "v": 64
    },
    {
      "midi": 61,
      "hit": false,
      "t": 12216.166333333338,
      "d": 324.3230000000003,
      "v": 64
    },
    {
      "midi": 65,
      "hit": false,
      "t": 12216.166333333338,
      "d": 324.3230000000003,
      "v": 64
    },
    {
      "midi": 81,
      "hit": false,
      "t": 12540.489333333335,
      "d": 108.10766666666677,
      "v": 91
    },
    {
      "midi": 79,
      "hit": false,
      "t": 12648.597000000002,
      "d": 135.13458333333256,
      "v": 90
    },
    {
      "midi": 77,
      "hit": false,
      "t": 12864.812333333333,
      "d": 216.21533333333355,
      "v": 88
    },
    {
      "midi": 57,
      "hit": false,
      "t": 13513.45833333334,
      "d": 216.21533333333355,
      "v": 67
    },
    {
      "midi": 60,
      "hit": false,
      "t": 13513.45833333334,
      "d": 216.21533333333355,
      "v": 67
    },
    {
      "midi": 65,
      "hit": false,
      "t": 13513.45833333334,
      "d": 216.21533333333355,
      "v": 67
    },
    {
      "midi": 79,
      "hit": false,
      "t": 13837.781333333334,
      "d": 108.10766666666677,
      "v": 87
    },
    {
      "midi": 77,
      "hit": false,
      "t": 13945.889000000001,
      "d": 108.10766666666677,
      "v": 87
    },
    {
      "midi": 71,
      "hit": false,
      "t": 14162.104333333335,
      "d": 216.21533333333355,
      "v": 85
    },
    {
      "midi": 50,
      "hit": false,
      "t": 14486.42733333334,
      "d": 108.10766666666677,
      "v": 66
    },
    {
      "midi": 55,
      "hit": false,
      "t": 14486.42733333334,
      "d": 108.10766666666677,
      "v": 66
    },
    {
      "midi": 59,
      "hit": false,
      "t": 14486.42733333334,
      "d": 108.10766666666677,
      "v": 66
    },
    {
      "midi": 55,
      "hit": false,
      "t": 14810.75033333334,
      "d": 324.3230000000003,
      "v": 67
    },
    {
      "midi": 59,
      "hit": false,
      "t": 14810.75033333334,
      "d": 324.3230000000003,
      "v": 67
    },
    {
      "midi": 64,
      "hit": false,
      "t": 14810.75033333334,
      "d": 324.3230000000003,
      "v": 67
    },
    {
      "midi": 74,
      "hit": false,
      "t": 15108.046416666668,
      "d": 27.026916666665784,
      "v": 86
    },
    {
      "midi": 79,
      "hit": false,
      "t": 15135.073333333334,
      "d": 108.10766666666677,
      "v": 86
    },
    {
      "midi": 75,
      "hit": false,
      "t": 15135.073333333334,
      "d": 135.13458333333256,
      "v": 86
    },
    {
      "midi": 74,
      "hit": false,
      "t": 15243.181,
      "d": 108.10766666666495,
      "v": 83
    },
    {
      "midi": 77,
      "hit": false,
      "t": 15243.181,
      "d": 135.13458333333074,
      "v": 83
    },
    {
      "midi": 72,
      "hit": false,
      "t": 15459.39633333333,
      "d": 216.21533333333355,
      "v": 81
    },
    {
      "midi": 75,
      "hit": false,
      "t": 15459.39633333333,
      "d": 216.21533333333355,
      "v": 81
    },
    {
      "midi": 55,
      "hit": false,
      "t": 15783.719333333342,
      "d": 108.10766666666677,
      "v": 66
    },
    {
      "midi": 58,
      "hit": false,
      "t": 15783.719333333342,
      "d": 108.10766666666677,
      "v": 66
    },
    {
      "midi": 60,
      "hit": false,
      "t": 15783.719333333342,
      "d": 108.10766666666677,
      "v": 66
    },
    {
      "midi": 63,
      "hit": false,
      "t": 15783.719333333342,
      "d": 108.10766666666677,
      "v": 66
    },
    {
      "midi": 60,
      "hit": false,
      "t": 16216.150000000009,
      "d": 324.3230000000003,
      "v": 66
    },
    {
      "midi": 54,
      "hit": false,
      "t": 16216.150000000009,
      "d": 432.4306666666671,
      "v": 66
    },
    {
      "midi": 58,
      "hit": false,
      "t": 16216.150000000009,
      "d": 432.4306666666671,
      "v": 66
    },
    {
      "midi": 63,
      "hit": false,
      "t": 16216.150000000009,
      "d": 432.4306666666671,
      "v": 66
    },
    {
      "midi": 74,
      "hit": false,
      "t": 16432.36533333333,
      "d": 108.10766666666677,
      "v": 86
    },
    {
      "midi": 72,
      "hit": false,
      "t": 16540.472999999998,
      "d": 324.3230000000003,
      "v": 85
    },
    {
      "midi": 73,
      "hit": false,
      "t": 16729.661416666666,
      "d": 108.10766666666677,
      "v": 83
    },
    {
      "midi": 74,
      "hit": false,
      "t": 16756.68833333333,
      "d": 972.969000000001,
      "v": 83
    },
    {
      "midi": 57,
      "hit": false,
      "t": 17405.334333333343,
      "d": 108.10766666666677,
      "v": 67
    },
    {
      "midi": 53,
      "hit": false,
      "t": 17405.334333333343,
      "d": 324.3230000000003,
      "v": 67
    },
    {
      "midi": 58,
      "hit": false,
      "t": 17405.334333333343,
      "d": 432.4306666666671,
      "v": 67
    },
    {
      "midi": 62,
      "hit": false,
      "t": 17405.334333333343,
      "d": 432.4306666666671,
      "v": 67
    },
    {
      "midi": 75,
      "hit": false,
      "t": 17729.657333333333,
      "d": 216.21533333333355,
      "v": 89
    },
    {
      "midi": 77,
      "hit": false,
      "t": 17945.872666666666,
      "d": 216.21533333333355,
      "v": 88
    },
    {
      "midi": 79,
      "hit": false,
      "t": 18162.088,
      "d": 1081.0766666666677,
      "v": 86
    },
    {
      "midi": 62,
      "hit": false,
      "t": 18702.626333333345,
      "d": 324.3230000000003,
      "v": 65
    },
    {
      "midi": 65,
      "hit": false,
      "t": 18702.626333333345,
      "d": 324.3230000000003,
      "v": 65
    },
    {
      "midi": 55,
      "hit": false,
      "t": 18702.626333333345,
      "d": 432.4306666666671,
      "v": 65
    },
    {
      "midi": 58,
      "hit": false,
      "t": 18702.626333333345,
      "d": 432.4306666666671,
      "v": 65
    },
    {
      "midi": 81,
      "hit": false,
      "t": 19026.949333333334,
      "d": 108.10766666666677,
      "v": 88
    },
    {
      "midi": 82,
      "hit": false,
      "t": 19135.057,
      "d": 216.21533333333355,
      "v": 87
    },
    {
      "midi": 84,
      "hit": false,
      "t": 19459.38,
      "d": 135.13458333333256,
      "v": 69
    },
    {
      "midi": 72,
      "hit": false,
      "t": 19608.02804166667,
      "d": 72.97267500000089,
      "v": 69
    },
    {
      "midi": 84,
      "hit": false,
      "t": 19683.703408333335,
      "d": 59.45921666666618,
      "v": 69
    },
    {
      "midi": 72,
      "hit": false,
      "t": 19748.568008333335,
      "d": 62.16190833333167,
      "v": 69
    },
    {
      "midi": 84,
      "hit": false,
      "t": 19813.432608333333,
      "d": 35.13499166666588,
      "v": 67
    },
    {
      "midi": 72,
      "hit": false,
      "t": 19878.297208333333,
      "d": 56.75652500000069,
      "v": 67
    },
    {
      "midi": 84,
      "hit": false,
      "t": 19940.45911666667,
      "d": 43.24306666666598,
      "v": 68
    },
    {
      "midi": 72,
      "hit": false,
      "t": 20005.32371666667,
      "d": 62.16190833333167,
      "v": 68
    },
    {
      "midi": 84,
      "hit": false,
      "t": 20075.5937,
      "d": 29.72960833333491,
      "v": 68
    },
    {
      "midi": 60,
      "hit": false,
      "t": 20108.026000000013,
      "d": 324.3230000000003,
      "v": 65
    },
    {
      "midi": 64,
      "hit": false,
      "t": 20108.026000000013,
      "d": 324.3230000000003,
      "v": 65
    },
    {
      "midi": 67,
      "hit": false,
      "t": 20108.026000000013,
      "d": 324.3230000000003,
      "v": 65
    },
    {
      "midi": 72,
      "hit": false,
      "t": 20124.242150000002,
      "d": 62.16190833333167,
      "v": 70
    },
    {
      "midi": 84,
      "hit": false,
      "t": 20205.3229,
      "d": 27.026916666665784,
      "v": 70
    },
    {
      "midi": 72,
      "hit": false,
      "t": 20259.37673333333,
      "d": 70.26998333333177,
      "v": 70
    },
    {
      "midi": 84,
      "hit": false,
      "t": 20332.349408333328,
      "d": 45.94575833333511,
      "v": 72
    },
    {
      "midi": 72,
      "hit": false,
      "t": 20399.916699999998,
      "d": 64.86460000000079,
      "v": 72
    },
    {
      "midi": 84,
      "hit": false,
      "t": 20470.186683333333,
      "d": 43.24306666666598,
      "v": 72
    },
    {
      "midi": 72,
      "hit": false,
      "t": 20526.943208333334,
      "d": 75.67536666666638,
      "v": 73
    },
    {
      "midi": 84,
      "hit": false,
      "t": 20605.321266666666,
      "d": 32.432300000000396,
      "v": 72
    },
    {
      "midi": 72,
      "hit": false,
      "t": 20645.861641666666,
      "d": 94.59420833333206,
      "v": 72
    },
    {
      "midi": 60,
      "hit": false,
      "t": 20648.564333333346,
      "d": 540.5383333333339,
      "v": 68
    },
    {
      "midi": 63,
      "hit": false,
      "t": 20648.564333333346,
      "d": 540.5383333333339,
      "v": 68
    },
    {
      "midi": 66,
      "hit": false,
      "t": 20648.564333333346,
      "d": 540.5383333333339,
      "v": 68
    },
    {
      "midi": 84,
      "hit": false,
      "t": 20745.861233333333,
      "d": 27.026916666665784,
      "v": 72
    },
    {
      "midi": 72,
      "hit": false,
      "t": 20802.617758333334,
      "d": 86.48613333333196,
      "v": 73
    },
    {
      "midi": 84,
      "hit": false,
      "t": 20872.887741666666,
      "d": 21.62153333333481,
      "v": 74
    },
    {
      "midi": 72,
      "hit": false,
      "t": 20899.914658333335,
      "d": 78.37805833333186,
      "v": 74
    },
    {
      "midi": 84,
      "hit": false,
      "t": 20978.292716666667,
      "d": 35.13499166666588,
      "v": 73
    },
    {
      "midi": 72,
      "hit": false,
      "t": 21018.833091666667,
      "d": 67.56729166666628,
      "v": 73
    },
    {
      "midi": 84,
      "hit": false,
      "t": 21091.80576666667,
      "d": 27.026916666665784,
      "v": 73
    },
    {
      "midi": 86,
      "hit": false,
      "t": 21729.641,
      "d": 216.21533333333355,
      "v": 92
    },
    {
      "midi": 84,
      "hit": false,
      "t": 21945.856333333333,
      "d": 108.10766666666677,
      "v": 90
    },
    {
      "midi": 77,
      "hit": false,
      "t": 22053.964,
      "d": 216.21533333333355,
      "v": 89
    },
    {
      "midi": 53,
      "hit": false,
      "t": 22594.50233333335,
      "d": 432.4306666666671,
      "v": 72
    },
    {
      "midi": 58,
      "hit": false,
      "t": 22594.50233333335,
      "d": 432.4306666666671,
      "v": 72
    },
    {
      "midi": 62,
      "hit": false,
      "t": 22594.50233333335,
      "d": 432.4306666666671,
      "v": 72
    },
    {
      "midi": 74,
      "hit": false,
      "t": 23026.933,
      "d": 216.21533333333355,
      "v": 92
    },
    {
      "midi": 72,
      "hit": false,
      "t": 23243.148333333334,
      "d": 216.21533333333355,
      "v": 89
    },
    {
      "midi": 66,
      "hit": false,
      "t": 23351.256,
      "d": 324.3230000000003,
      "v": 88
    },
    {
      "midi": 54,
      "hit": false,
      "t": 23891.79433333335,
      "d": 216.21533333333355,
      "v": 74
    },
    {
      "midi": 58,
      "hit": false,
      "t": 23891.79433333335,
      "d": 216.21533333333355,
      "v": 74
    },
    {
      "midi": 62,
      "hit": false,
      "t": 23891.79433333335,
      "d": 216.21533333333355,
      "v": 74
    },
    {
      "midi": 86,
      "hit": false,
      "t": 24216.117333333335,
      "d": 216.21533333333355,
      "v": 88
    },
    {
      "midi": 84,
      "hit": false,
      "t": 24324.225000000002,
      "d": 216.21533333333355,
      "v": 88
    },
    {
      "midi": 79,
      "hit": false,
      "t": 24540.440333333336,
      "d": 324.3230000000003,
      "v": 86
    },
    {
      "midi": 62,
      "hit": false,
      "t": 25189.08633333335,
      "d": 540.5383333333339,
      "v": 76
    },
    {
      "midi": 55,
      "hit": false,
      "t": 25189.08633333335,
      "d": 648.6460000000006,
      "v": 76
    },
    {
      "midi": 58,
      "hit": false,
      "t": 25189.08633333335,
      "d": 648.6460000000006,
      "v": 76
    },
    {
      "midi": 74,
      "hit": false,
      "t": 25513.409333333337,
      "d": 108.10766666666677,
      "v": 88
    },
    {
      "midi": 72,
      "hit": false,
      "t": 25621.517000000003,
      "d": 108.10766666666677,
      "v": 88
    },
    {
      "midi": 68,
      "hit": false,
      "t": 25837.732333333337,
      "d": 216.21533333333355,
      "v": 84
    },
    {
      "midi": 53,
      "hit": false,
      "t": 26486.378333333352,
      "d": 432.4306666666671,
      "v": 77
    },
    {
      "midi": 56,
      "hit": false,
      "t": 26486.378333333352,
      "d": 540.5383333333339,
      "v": 77
    },
    {
      "midi": 58,
      "hit": false,
      "t": 26486.378333333352,
      "d": 540.5383333333339,
      "v": 77
    },
    {
      "midi": 62,
      "hit": false,
      "t": 26486.378333333352,
      "d": 540.5383333333339,
      "v": 77
    },
    {
      "midi": 86,
      "hit": false,
      "t": 26810.701333333338,
      "d": 108.10766666666677,
      "v": 87
    },
    {
      "midi": 84,
      "hit": false,
      "t": 26918.809000000005,
      "d": 108.10766666666677,
      "v": 85
    },
    {
      "midi": 81,
      "hit": false,
      "t": 27135.02433333334,
      "d": 216.21533333333355,
      "v": 83
    },
    {
      "midi": 53,
      "hit": false,
      "t": 27783.670333333353,
      "d": 432.4306666666671,
      "v": 69
    },
    {
      "midi": 57,
      "hit": false,
      "t": 27783.670333333353,
      "d": 432.4306666666671,
      "v": 69
    },
    {
      "midi": 62,
      "hit": false,
      "t": 27783.670333333353,
      "d": 432.4306666666671,
      "v": 69
    },
    {
      "midi": 69,
      "hit": false,
      "t": 28107.99333333334,
      "d": 108.10766666666677,
      "v": 87
    },
    {
      "midi": 70,
      "hit": false,
      "t": 28216.101000000006,
      "d": 108.10766666666677,
      "v": 85
    },
    {
      "midi": 72,
      "hit": false,
      "t": 28432.31633333334,
      "d": 108.10766666666677,
      "v": 84
    },
    {
      "midi": 74,
      "hit": false,
      "t": 28540.424000000006,
      "d": 216.21533333333355,
      "v": 84
    },
    {
      "midi": 55,
      "hit": false,
      "t": 29080.962333333355,
      "d": 432.4306666666671,
      "v": 72
    },
    {
      "midi": 65,
      "hit": false,
      "t": 29080.962333333355,
      "d": 432.4306666666671,
      "v": 72
    },
    {
      "midi": 58,
      "hit": false,
      "t": 29080.962333333355,
      "d": 648.6460000000006,
      "v": 72
    },
    {
      "midi": 75,
      "hit": false,
      "t": 29405.28533333334,
      "d": 108.10766666666677,
      "v": 76
    },
    {
      "midi": 77,
      "hit": false,
      "t": 29513.393000000007,
      "d": 108.10766666666677,
      "v": 85
    },
    {
      "midi": 78,
      "hit": false,
      "t": 29851.229458333342,
      "d": 64.86460000000079,
      "v": 76
    },
    {
      "midi": 66,
      "hit": false,
      "t": 29926.90482500001,
      "d": 67.56729166666628,
      "v": 67
    },
    {
      "midi": 78,
      "hit": false,
      "t": 30002.580191666675,
      "d": 62.16190833333167,
      "v": 68
    },
    {
      "midi": 66,
      "hit": false,
      "t": 30067.444791666672,
      "d": 67.56729166666628,
      "v": 69
    },
    {
      "midi": 78,
      "hit": false,
      "t": 30148.525541666673,
      "d": 72.97267500000089,
      "v": 68
    },
    {
      "midi": 66,
      "hit": false,
      "t": 30221.498216666674,
      "d": 48.648450000000594,
      "v": 67
    },
    {
      "midi": 78,
      "hit": false,
      "t": 30278.254741666675,
      "d": 70.26998333333177,
      "v": 67
    },
    {
      "midi": 66,
      "hit": false,
      "t": 30351.227416666672,
      "d": 62.16190833333167,
      "v": 67
    },
    {
      "midi": 78,
      "hit": false,
      "t": 30418.79470833334,
      "d": 70.26998333333177,
      "v": 67
    },
    {
      "midi": 66,
      "hit": false,
      "t": 30494.470075000005,
      "d": 51.35114166666608,
      "v": 67
    },
    {
      "midi": 78,
      "hit": false,
      "t": 30551.226600000005,
      "d": 67.56729166666628,
      "v": 69
    },
    {
      "midi": 66,
      "hit": false,
      "t": 30635.010041666672,
      "d": 54.05383333333157,
      "v": 69
    },
    {
      "midi": 78,
      "hit": false,
      "t": 30702.577333333338,
      "d": 62.16190833333167,
      "v": 70
    },
    {
      "midi": 66,
      "hit": false,
      "t": 30764.73924166667,
      "d": 64.86460000000079,
      "v": 70
    },
    {
      "midi": 78,
      "hit": false,
      "t": 30848.522683333336,
      "d": 56.75652500000069,
      "v": 70
    },
    {
      "midi": 66,
      "hit": false,
      "t": 30910.68459166667,
      "d": 59.45921666666618,
      "v": 70
    },
    {
      "midi": 78,
      "hit": false,
      "t": 30975.549191666672,
      "d": 56.75652500000069,
      "v": 70
    },
    {
      "midi": 66,
      "hit": false,
      "t": 31037.711100000008,
      "d": 72.97267500000089,
      "v": 70
    },
    {
      "midi": 78,
      "hit": false,
      "t": 31110.68377500001,
      "d": 54.05383333333157,
      "v": 70
    },
    {
      "midi": 66,
      "hit": false,
      "t": 31186.359141666675,
      "d": 59.45921666666618,
      "v": 70
    },
    {
      "midi": 78,
      "hit": false,
      "t": 31248.521050000007,
      "d": 43.24306666666598,
      "v": 70
    },
    {
      "midi": 66,
      "hit": false,
      "t": 31313.385650000007,
      "d": 59.45921666666618,
      "v": 70
    },
    {
      "midi": 78,
      "hit": false,
      "t": 31399.87178333334,
      "d": 83.78344166666648,
      "v": 69
    },
    {
      "midi": 66,
      "hit": false,
      "t": 31462.03369166667,
      "d": 72.97267500000089,
      "v": 69
    },
    {
      "midi": 78,
      "hit": false,
      "t": 31526.898291666672,
      "d": 75.67536666666638,
      "v": 67
    },
    {
      "midi": 66,
      "hit": false,
      "t": 31605.276350000004,
      "d": 40.540375000000495,
      "v": 68
    },
    {
      "midi": 78,
      "hit": false,
      "t": 31672.84364166667,
      "d": 59.45921666666618,
      "v": 68
    },
    {
      "midi": 66,
      "hit": false,
      "t": 31748.519008333336,
      "d": 48.648450000000594,
      "v": 68
    },
    {
      "midi": 78,
      "hit": false,
      "t": 31805.275533333337,
      "d": 27.026916666665784,
      "v": 69
    },
    {
      "midi": 57,
      "hit": false,
      "t": 31999.869333333354,
      "d": 216.21533333333355,
      "v": 62
    },
    {
      "midi": 60,
      "hit": false,
      "t": 31999.869333333354,
      "d": 216.21533333333355,
      "v": 62
    },
    {
      "midi": 79,
      "hit": false,
      "t": 32107.977000000003,
      "d": 108.10766666666677,
      "v": 95
    },
    {
      "midi": 77,
      "hit": false,
      "t": 32324.192333333336,
      "d": 135.13458333333256,
      "v": 92
    },
    {
      "midi": 69,
      "hit": false,
      "t": 32432.300000000003,
      "d": 216.21533333333355,
      "v": 91
    },
    {
      "midi": 57,
      "hit": false,
      "t": 32972.838333333355,
      "d": 216.21533333333355,
      "v": 66
    },
    {
      "midi": 67,
      "hit": false,
      "t": 32972.838333333355,
      "d": 216.21533333333355,
      "v": 66
    },
    {
      "midi": 60,
      "hit": false,
      "t": 32972.838333333355,
      "d": 324.3229999999967,
      "v": 66
    },
    {
      "midi": 63,
      "hit": false,
      "t": 32972.838333333355,
      "d": 324.3229999999967,
      "v": 66
    },
    {
      "midi": 79,
      "hit": false,
      "t": 33297.16133333334,
      "d": 108.10766666666314,
      "v": 92
    },
    {
      "midi": 77,
      "hit": false,
      "t": 33405.269,
      "d": 135.13458333333256,
      "v": 91
    },
    {
      "midi": 82,
      "hit": false,
      "t": 33621.484333333334,
      "d": 216.21533333333355,
      "v": 91
    },
    {
      "midi": 53,
      "hit": false,
      "t": 34270.13033333335,
      "d": 324.3229999999967,
      "v": 72
    },
    {
      "midi": 56,
      "hit": false,
      "t": 34270.13033333335,
      "d": 324.3229999999967,
      "v": 72
    },
    {
      "midi": 58,
      "hit": false,
      "t": 34270.13033333335,
      "d": 324.3229999999967,
      "v": 72
    },
    {
      "midi": 62,
      "hit": false,
      "t": 34270.13033333335,
      "d": 324.3229999999967,
      "v": 72
    },
    {
      "midi": 79,
      "hit": false,
      "t": 34594.45333333333,
      "d": 108.10766666666314,
      "v": 90
    },
    {
      "midi": 77,
      "hit": false,
      "t": 34702.560999999994,
      "d": 162.16150000000198,
      "v": 87
    },
    {
      "midi": 72,
      "hit": false,
      "t": 34918.77633333333,
      "d": 243.24225000000297,
      "v": 85
    },
    {
      "midi": 51,
      "hit": false,
      "t": 35567.42233333334,
      "d": 432.4306666666671,
      "v": 71
    },
    {
      "midi": 55,
      "hit": false,
      "t": 35567.42233333334,
      "d": 432.4306666666671,
      "v": 71
    },
    {
      "midi": 62,
      "hit": false,
      "t": 35567.42233333334,
      "d": 432.4306666666671,
      "v": 71
    },
    {
      "midi": 72,
      "hit": false,
      "t": 35891.74533333333,
      "d": 108.10766666666314,
      "v": 88
    },
    {
      "midi": 70,
      "hit": false,
      "t": 35999.852999999996,
      "d": 108.10766666666314,
      "v": 88
    },
    {
      "midi": 82,
      "hit": false,
      "t": 36216.06833333332,
      "d": 189.18841666666412,
      "v": 88
    },
    {
      "midi": 58,
      "hit": false,
      "t": 36864.714333333344,
      "d": 540.5383333333302,
      "v": 71
    },
    {
      "midi": 60,
      "hit": false,
      "t": 36864.714333333344,
      "d": 540.5383333333302,
      "v": 71
    },
    {
      "midi": 63,
      "hit": false,
      "t": 36864.714333333344,
      "d": 540.5383333333302,
      "v": 71
    },
    {
      "midi": 66,
      "hit": false,
      "t": 36864.714333333344,
      "d": 540.5383333333302,
      "v": 71
    },
    {
      "midi": 65,
      "hit": false,
      "t": 37297.14499999999,
      "d": 216.21533333333355,
      "v": 91
    },
    {
      "midi": 67,
      "hit": false,
      "t": 37513.36033333332,
      "d": 108.10766666666314,
      "v": 89
    },
    {
      "midi": 69,
      "hit": false,
      "t": 37621.467999999986,
      "d": 243.24225000000297,
      "v": 89
    },
    {
      "midi": 53,
      "hit": false,
      "t": 38162.00633333334,
      "d": 324.3229999999967,
      "v": 66
    },
    {
      "midi": 57,
      "hit": false,
      "t": 38162.00633333334,
      "d": 432.4306666666598,
      "v": 66
    },
    {
      "midi": 62,
      "hit": false,
      "t": 38162.00633333334,
      "d": 432.4306666666598,
      "v": 66
    },
    {
      "midi": 58,
      "hit": false,
      "t": 38162.00633333334,
      "d": 540.538333333323,
      "v": 66
    },
    {
      "midi": 70,
      "hit": false,
      "t": 38594.43699999999,
      "d": 108.10766666666314,
      "v": 93
    },
    {
      "midi": 72,
      "hit": false,
      "t": 38702.544666666654,
      "d": 108.10766666666314,
      "v": 91
    },
    {
      "midi": 73,
      "hit": false,
      "t": 38810.65233333332,
      "d": 108.10766666666314,
      "v": 89
    },
    {
      "midi": 74,
      "hit": false,
      "t": 38918.75999999998,
      "d": 216.21533333333355,
      "v": 88
    },
    {
      "midi": 55,
      "hit": false,
      "t": 39459.298333333325,
      "d": 324.3229999999967,
      "v": 65
    },
    {
      "midi": 58,
      "hit": false,
      "t": 39459.298333333325,
      "d": 432.4306666666598,
      "v": 65
    },
    {
      "midi": 65,
      "hit": false,
      "t": 39459.298333333325,
      "d": 432.4306666666598,
      "v": 65
    },
    {
      "midi": 75,
      "hit": false,
      "t": 39783.621333333314,
      "d": 216.21533333332627,
      "v": 88
    },
    {
      "midi": 77,
      "hit": false,
      "t": 39891.72899999998,
      "d": 216.21533333332627,
      "v": 87
    },
    {
      "midi": 79,
      "hit": false,
      "t": 40216.05199999997,
      "d": 1729.7226666666684,
      "v": 86
    },
    {
      "midi": 59,
      "hit": false,
      "t": 40864.69799999998,
      "d": 127.0265083333361,
      "v": 72
    },
    {
      "midi": 67,
      "hit": false,
      "t": 40864.69799999998,
      "d": 135.13458333333256,
      "v": 72
    },
    {
      "midi": 63,
      "hit": false,
      "t": 40864.69799999998,
      "d": 154.05342499999824,
      "v": 72
    },
    {
      "midi": 55,
      "hit": false,
      "t": 41405.23633333331,
      "d": 681.078300000001,
      "v": 66
    },
    {
      "midi": 63,
      "hit": false,
      "t": 41405.23633333331,
      "d": 694.5917583333357,
      "v": 66
    },
    {
      "midi": 59,
      "hit": false,
      "t": 41405.23633333331,
      "d": 705.402525000005,
      "v": 66
    },
    {
      "midi": 75,
      "hit": false,
      "t": 42161.98999999997,
      "d": 108.10766666666314,
      "v": 88
    },
    {
      "midi": 63,
      "hit": false,
      "t": 42161.98999999997,
      "d": 216.21533333332627,
      "v": 88
    },
    {
      "midi": 67,
      "hit": false,
      "t": 42161.98999999997,
      "d": 216.21533333332627,
      "v": 88
    },
    {
      "midi": 71,
      "hit": false,
      "t": 42161.98999999997,
      "d": 216.21533333332627,
      "v": 88
    },
    {
      "midi": 62,
      "hit": false,
      "t": 42486.31299999996,
      "d": 108.10766666666314,
      "v": 89
    },
    {
      "midi": 67,
      "hit": false,
      "t": 42486.31299999996,
      "d": 108.10766666666314,
      "v": 89
    },
    {
      "midi": 71,
      "hit": false,
      "t": 42486.31299999996,
      "d": 108.10766666666314,
      "v": 89
    },
    {
      "midi": 74,
      "hit": false,
      "t": 42486.31299999996,
      "d": 108.10766666666314,
      "v": 89
    },
    {
      "midi": 60,
      "hit": false,
      "t": 42810.635999999955,
      "d": 432.4306666666671,
      "v": 89
    },
    {
      "midi": 63,
      "hit": false,
      "t": 42810.635999999955,
      "d": 432.4306666666671,
      "v": 89
    },
    {
      "midi": 67,
      "hit": false,
      "t": 42810.635999999955,
      "d": 432.4306666666671,
      "v": 89
    },
    {
      "midi": 72,
      "hit": false,
      "t": 42810.635999999955,
      "d": 432.4306666666671,
      "v": 89
    },
    {
      "midi": 62,
      "hit": false,
      "t": 43459.281999999956,
      "d": 108.10766666666314,
      "v": 87
    },
    {
      "midi": 67,
      "hit": false,
      "t": 43459.281999999956,
      "d": 108.10766666666314,
      "v": 87
    },
    {
      "midi": 71,
      "hit": false,
      "t": 43459.281999999956,
      "d": 108.10766666666314,
      "v": 87
    },
    {
      "midi": 74,
      "hit": false,
      "t": 43459.281999999956,
      "d": 108.10766666666314,
      "v": 87
    },
    {
      "midi": 59,
      "hit": false,
      "t": 43459.281999999985,
      "d": 108.10766666666314,
      "v": 63
    },
    {
      "midi": 63,
      "hit": false,
      "t": 43783.60499999995,
      "d": 108.10766666666314,
      "v": 89
    },
    {
      "midi": 67,
      "hit": false,
      "t": 43783.60499999995,
      "d": 108.10766666666314,
      "v": 89
    },
    {
      "midi": 72,
      "hit": false,
      "t": 43783.60499999995,
      "d": 108.10766666666314,
      "v": 89
    },
    {
      "midi": 75,
      "hit": false,
      "t": 43783.60499999995,
      "d": 108.10766666666314,
      "v": 89
    },
    {
      "midi": 58,
      "hit": false,
      "t": 43783.60499999998,
      "d": 216.21533333333355,
      "v": 65
    },
    {
      "midi": 65,
      "hit": false,
      "t": 43999.82033333328,
      "d": 216.21533333333355,
      "v": 89
    },
    {
      "midi": 69,
      "hit": false,
      "t": 43999.82033333328,
      "d": 216.21533333333355,
      "v": 89
    },
    {
      "midi": 72,
      "hit": false,
      "t": 43999.82033333328,
      "d": 216.21533333333355,
      "v": 89
    },
    {
      "midi": 75,
      "hit": false,
      "t": 43999.82033333328,
      "d": 216.21533333333355,
      "v": 89
    },
    {
      "midi": 77,
      "hit": false,
      "t": 43999.82033333328,
      "d": 216.21533333333355,
      "v": 89
    },
    {
      "midi": 57,
      "hit": false,
      "t": 43999.820333333315,
      "d": 108.10766666666314,
      "v": 66
    },
    {
      "midi": 67,
      "hit": false,
      "t": 44432.250999999946,
      "d": 432.4306666666671,
      "v": 90
    },
    {
      "midi": 79,
      "hit": false,
      "t": 44432.250999999946,
      "d": 432.4306666666671,
      "v": 90
    },
    {
      "midi": 72,
      "hit": false,
      "t": 44432.250999999946,
      "d": 540.5383333333302,
      "v": 90
    },
    {
      "midi": 75,
      "hit": false,
      "t": 44432.250999999946,
      "d": 540.5383333333302,
      "v": 90
    },
    {
      "midi": 55,
      "hit": false,
      "t": 44432.250999999975,
      "d": 432.4306666666671,
      "v": 68
    },
    {
      "midi": 53,
      "hit": false,
      "t": 44972.789333333305,
      "d": 324.3229999999967,
      "v": 67
    },
    {
      "midi": 69,
      "hit": false,
      "t": 45080.89699999994,
      "d": 321.6203083333312,
      "v": 94
    },
    {
      "midi": 72,
      "hit": false,
      "t": 45080.89699999994,
      "d": 321.6203083333312,
      "v": 94
    },
    {
      "midi": 75,
      "hit": false,
      "t": 45080.89699999994,
      "d": 321.6203083333312,
      "v": 94
    },
    {
      "midi": 81,
      "hit": false,
      "t": 45080.89699999994,
      "d": 321.6203083333312,
      "v": 94
    },
    {
      "midi": 70,
      "hit": false,
      "t": 45405.219999999936,
      "d": 1081.0766666666677,
      "v": 93
    },
    {
      "midi": 74,
      "hit": false,
      "t": 45405.219999999936,
      "d": 1129.7251166666683,
      "v": 93
    },
    {
      "midi": 77,
      "hit": false,
      "t": 45405.219999999936,
      "d": 1164.8601083333342,
      "v": 93
    },
    {
      "midi": 82,
      "hit": false,
      "t": 45405.219999999936,
      "d": 1237.8327833333315,
      "v": 93
    },
    {
      "midi": 58,
      "hit": false,
      "t": 45405.219999999965,
      "d": 108.10766666666314,
      "v": 65
    },
    {
      "midi": 53,
      "hit": false,
      "t": 45729.54299999996,
      "d": 324.3229999999967,
      "v": 64
    },
    {
      "midi": 52,
      "hit": false,
      "t": 46053.86599999996,
      "d": 216.21533333333355,
      "v": 65
    },
    {
      "midi": 53,
      "hit": false,
      "t": 46702.51199999996,
      "d": 324.3229999999967,
      "v": 66
    },
    {
      "midi": 52,
      "hit": false,
      "t": 47026.834999999955,
      "d": 216.21533333333355,
      "v": 67
    },
    {
      "midi": 53,
      "hit": false,
      "t": 47675.480999999956,
      "d": 432.4306666666598,
      "v": 68
    },
    {
      "midi": 52,
      "hit": false,
      "t": 47999.80399999995,
      "d": 216.21533333332627,
      "v": 68
    },
    {
      "midi": 53,
      "hit": false,
      "t": 48648.449999999946,
      "d": 324.3229999999967,
      "v": 64
    },
    {
      "midi": 52,
      "hit": false,
      "t": 48972.77299999994,
      "d": 108.10766666666314,
      "v": 63
    },
    {
      "midi": 53,
      "hit": false,
      "t": 49297.09599999994,
      "d": 108.10766666666314,
      "v": 63
    },
    {
      "midi": 57,
      "hit": false,
      "t": 49513.311333333266,
      "d": 108.10766666666314,
      "v": 63
    },
    {
      "midi": 60,
      "hit": false,
      "t": 49513.311333333266,
      "d": 108.10766666666314,
      "v": 63
    },
    {
      "midi": 63,
      "hit": false,
      "t": 49513.311333333266,
      "d": 108.10766666666314,
      "v": 63
    },
    {
      "midi": 67,
      "hit": false,
      "t": 49513.311333333266,
      "d": 108.10766666666314,
      "v": 63
    },
    {
      "midi": 53,
      "hit": false,
      "t": 49837.63433333326,
      "d": 108.10766666666314,
      "v": 64
    },
    {
      "midi": 57,
      "hit": false,
      "t": 49945.741999999926,
      "d": 108.10766666666314,
      "v": 64
    },
    {
      "midi": 60,
      "hit": false,
      "t": 49945.741999999926,
      "d": 108.10766666666314,
      "v": 64
    },
    {
      "midi": 63,
      "hit": false,
      "t": 49945.741999999926,
      "d": 108.10766666666314,
      "v": 64
    },
    {
      "midi": 67,
      "hit": false,
      "t": 49945.741999999926,
      "d": 108.10766666666314,
      "v": 64
    },
    {
      "midi": 56,
      "hit": false,
      "t": 50594.38799999992,
      "d": 108.10766666666314,
      "v": 64
    },
    {
      "midi": 58,
      "hit": false,
      "t": 50594.38799999992,
      "d": 108.10766666666314,
      "v": 64
    },
    {
      "midi": 62,
      "hit": false,
      "t": 50594.38799999992,
      "d": 108.10766666666314,
      "v": 64
    },
    {
      "midi": 65,
      "hit": false,
      "t": 50594.38799999992,
      "d": 108.10766666666314,
      "v": 64
    },
    {
      "midi": 55,
      "hit": false,
      "t": 51459.249333333246,
      "d": 108.10766666666314,
      "v": 64
    },
    {
      "midi": 58,
      "hit": false,
      "t": 51459.249333333246,
      "d": 216.21533333332627,
      "v": 64
    },
    {
      "midi": 62,
      "hit": false,
      "t": 51459.249333333246,
      "d": 216.21533333332627,
      "v": 64
    },
    {
      "midi": 65,
      "hit": false,
      "t": 51459.249333333246,
      "d": 216.21533333332627,
      "v": 64
    },
    {
      "midi": 55,
      "hit": false,
      "t": 51783.572333333235,
      "d": 216.21533333333355,
      "v": 64
    },
    {
      "midi": 58,
      "hit": false,
      "t": 51783.572333333235,
      "d": 324.3229999999967,
      "v": 64
    },
    {
      "midi": 62,
      "hit": false,
      "t": 51783.572333333235,
      "d": 324.3229999999967,
      "v": 64
    },
    {
      "midi": 65,
      "hit": false,
      "t": 51783.572333333235,
      "d": 324.3229999999967,
      "v": 64
    },
    {
      "midi": 54,
      "hit": false,
      "t": 52432.21833333323,
      "d": 540.5383333333302,
      "v": 65
    },
    {
      "midi": 58,
      "hit": false,
      "t": 52432.21833333323,
      "d": 540.5383333333302,
      "v": 65
    },
    {
      "midi": 60,
      "hit": false,
      "t": 52432.21833333323,
      "d": 540.5383333333302,
      "v": 65
    },
    {
      "midi": 63,
      "hit": false,
      "t": 52432.21833333323,
      "d": 540.5383333333302,
      "v": 65
    },
    {
      "midi": 53,
      "hit": false,
      "t": 53405.187333333226,
      "d": 108.10766666666314,
      "v": 62
    },
    {
      "midi": 57,
      "hit": false,
      "t": 53405.187333333226,
      "d": 108.10766666666314,
      "v": 62
    },
    {
      "midi": 58,
      "hit": false,
      "t": 53405.187333333226,
      "d": 216.21533333332627,
      "v": 62
    },
    {
      "midi": 62,
      "hit": false,
      "t": 53405.187333333226,
      "d": 216.21533333332627,
      "v": 62
    },
    {
      "midi": 53,
      "hit": false,
      "t": 53837.617999999886,
      "d": 216.21533333333355,
      "v": 65
    },
    {
      "midi": 57,
      "hit": false,
      "t": 53837.617999999886,
      "d": 216.21533333333355,
      "v": 65
    },
    {
      "midi": 58,
      "hit": false,
      "t": 53837.617999999886,
      "d": 324.3229999999967,
      "v": 65
    },
    {
      "midi": 62,
      "hit": false,
      "t": 53837.617999999886,
      "d": 324.3229999999967,
      "v": 65
    },
    {
      "midi": 57,
      "hit": false,
      "t": 54486.26399999988,
      "d": 324.3229999999967,
      "v": 62
    },
    {
      "midi": 62,
      "hit": false,
      "t": 54486.26399999988,
      "d": 324.3229999999967,
      "v": 62
    },
    {
      "midi": 58,
      "hit": false,
      "t": 54486.26399999988,
      "d": 540.5383333333302,
      "v": 62
    },
    {
      "midi": 55,
      "hit": false,
      "t": 55351.125333333206,
      "d": 216.21533333333355,
      "v": 55
    },
    {
      "midi": 58,
      "hit": false,
      "t": 55351.125333333206,
      "d": 216.21533333333355,
      "v": 55
    },
    {
      "midi": 63,
      "hit": false,
      "t": 55351.125333333206,
      "d": 216.21533333333355,
      "v": 55
    },
    {
      "midi": 55,
      "hit": false,
      "t": 55783.55599999987,
      "d": 216.21533333333355,
      "v": 55
    },
    {
      "midi": 58,
      "hit": false,
      "t": 55783.55599999987,
      "d": 324.3229999999967,
      "v": 55
    },
    {
      "midi": 63,
      "hit": false,
      "t": 55783.55599999987,
      "d": 324.3229999999967,
      "v": 55
    },
    {
      "midi": 55,
      "hit": false,
      "t": 56432.20199999987,
      "d": 432.4306666666671,
      "v": 55
    },
    {
      "midi": 59,
      "hit": false,
      "t": 56432.20199999987,
      "d": 432.4306666666671,
      "v": 55
    },
    {
      "midi": 62,
      "hit": false,
      "t": 56432.20199999987,
      "d": 432.4306666666671,
      "v": 55
    },
    {
      "midi": 57,
      "hit": false,
      "t": 57297.0633333332,
      "d": 108.10766666666314,
      "v": 57
    },
    {
      "midi": 61,
      "hit": false,
      "t": 57297.0633333332,
      "d": 108.10766666666314,
      "v": 57
    },
    {
      "midi": 64,
      "hit": false,
      "t": 57297.0633333332,
      "d": 216.21533333332627,
      "v": 57
    },
    {
      "midi": 57,
      "hit": false,
      "t": 57729.49399999986,
      "d": 108.10766666666314,
      "v": 58
    },
    {
      "midi": 61,
      "hit": false,
      "t": 57729.49399999986,
      "d": 108.10766666666314,
      "v": 58
    },
    {
      "midi": 64,
      "hit": false,
      "t": 57729.49399999986,
      "d": 216.21533333332627,
      "v": 58
    },
    {
      "midi": 53,
      "hit": false,
      "t": 58378.139999999854,
      "d": 324.3229999999967,
      "v": 58
    },
    {
      "midi": 57,
      "hit": false,
      "t": 58378.139999999854,
      "d": 324.3229999999967,
      "v": 58
    },
    {
      "midi": 62,
      "hit": false,
      "t": 58378.139999999854,
      "d": 324.3229999999967,
      "v": 58
    },
    {
      "midi": 60,
      "hit": false,
      "t": 59243.00133333318,
      "d": 108.10766666666314,
      "v": 58
    },
    {
      "midi": 63,
      "hit": false,
      "t": 59243.00133333318,
      "d": 108.10766666666314,
      "v": 58
    },
    {
      "midi": 58,
      "hit": false,
      "t": 59243.00133333318,
      "d": 216.21533333332627,
      "v": 58
    },
    {
      "midi": 55,
      "hit": false,
      "t": 59243.00133333318,
      "d": 324.3229999999894,
      "v": 58
    },
    {
      "midi": 55,
      "hit": false,
      "t": 59675.43199999983,
      "d": 108.10766666666314,
      "v": 57
    },
    {
      "midi": 60,
      "hit": false,
      "t": 59675.43199999983,
      "d": 324.3229999999967,
      "v": 57
    },
    {
      "midi": 63,
      "hit": false,
      "t": 59675.43199999983,
      "d": 324.3229999999967,
      "v": 57
    },
    {
      "midi": 58,
      "hit": false,
      "t": 59675.43199999983,
      "d": 432.4306666666598,
      "v": 57
    },
    {
      "midi": 53,
      "hit": false,
      "t": 60324.07799999983,
      "d": 432.4306666666671,
      "v": 57
    },
    {
      "midi": 60,
      "hit": false,
      "t": 60324.07799999983,
      "d": 432.4306666666671,
      "v": 57
    },
    {
      "midi": 63,
      "hit": false,
      "t": 60324.07799999983,
      "d": 432.4306666666671,
      "v": 57
    },
    {
      "midi": 57,
      "hit": false,
      "t": 60324.07799999983,
      "d": 540.5383333333302,
      "v": 57
    },
    {
      "midi": 58,
      "hit": false,
      "t": 61188.93933333315,
      "d": 216.21533333333355,
      "v": 61
    },
    {
      "midi": 62,
      "hit": false,
      "t": 61188.93933333315,
      "d": 216.21533333333355,
      "v": 61
    },
    {
      "midi": 65,
      "hit": false,
      "t": 61188.93933333315,
      "d": 216.21533333333355,
      "v": 61
    },
    {
      "midi": 53,
      "hit": false,
      "t": 61621.36999999982,
      "d": 216.21533333333355,
      "v": 58
    },
    {
      "midi": 58,
      "hit": false,
      "t": 61621.36999999982,
      "d": 216.21533333333355,
      "v": 58
    },
    {
      "midi": 62,
      "hit": false,
      "t": 61621.36999999982,
      "d": 324.3229999999967,
      "v": 58
    },
    {
      "midi": 53,
      "hit": false,
      "t": 62270.015999999814,
      "d": 108.10766666666314,
      "v": 57
    },
    {
      "midi": 55,
      "hit": false,
      "t": 62270.015999999814,
      "d": 432.4306666666598,
      "v": 57
    },
    {
      "midi": 62,
      "hit": false,
      "t": 62270.015999999814,
      "d": 432.4306666666598,
      "v": 57
    },
    {
      "midi": 58,
      "hit": false,
      "t": 62270.015999999814,
      "d": 540.538333333323,
      "v": 57
    },
    {
      "midi": 51,
      "hit": false,
      "t": 63134.877333333134,
      "d": 108.10766666666314,
      "v": 59
    },
    {
      "midi": 55,
      "hit": false,
      "t": 63134.877333333134,
      "d": 108.10766666666314,
      "v": 59
    },
    {
      "midi": 58,
      "hit": false,
      "t": 63134.877333333134,
      "d": 108.10766666666314,
      "v": 59
    },
    {
      "midi": 62,
      "hit": false,
      "t": 63134.877333333134,
      "d": 108.10766666666314,
      "v": 59
    },
    {
      "midi": 51,
      "hit": false,
      "t": 63567.30799999979,
      "d": 432.4306666666671,
      "v": 59
    },
    {
      "midi": 55,
      "hit": false,
      "t": 63567.30799999979,
      "d": 432.4306666666671,
      "v": 59
    },
    {
      "midi": 58,
      "hit": false,
      "t": 63567.30799999979,
      "d": 540.5383333333302,
      "v": 59
    },
    {
      "midi": 62,
      "hit": false,
      "t": 63567.30799999979,
      "d": 540.5383333333302,
      "v": 59
    },
    {
      "midi": 57,
      "hit": false,
      "t": 64215.95399999979,
      "d": 648.6460000000006,
      "v": 59
    },
    {
      "midi": 60,
      "hit": false,
      "t": 64215.95399999979,
      "d": 648.6460000000006,
      "v": 59
    },
    {
      "midi": 63,
      "hit": false,
      "t": 64215.95399999979,
      "d": 648.6460000000006,
      "v": 59
    },
    {
      "midi": 66,
      "hit": false,
      "t": 64215.95399999979,
      "d": 648.6460000000006,
      "v": 59
    },
    {
      "midi": 57,
      "hit": false,
      "t": 65080.81533333312,
      "d": 216.21533333333355,
      "v": 58
    },
    {
      "midi": 58,
      "hit": false,
      "t": 65080.81533333312,
      "d": 216.21533333333355,
      "v": 58
    },
    {
      "midi": 62,
      "hit": false,
      "t": 65080.81533333312,
      "d": 216.21533333333355,
      "v": 58
    },
    {
      "midi": 57,
      "hit": false,
      "t": 65513.24599999979,
      "d": 432.4306666666598,
      "v": 54
    },
    {
      "midi": 58,
      "hit": false,
      "t": 65513.24599999979,
      "d": 540.538333333323,
      "v": 54
    },
    {
      "midi": 62,
      "hit": false,
      "t": 65513.24599999979,
      "d": 540.538333333323,
      "v": 54
    },
    {
      "midi": 53,
      "hit": false,
      "t": 66161.89199999977,
      "d": 540.5383333333302,
      "v": 59
    },
    {
      "midi": 58,
      "hit": false,
      "t": 66161.89199999977,
      "d": 540.5383333333302,
      "v": 59
    },
    {
      "midi": 62,
      "hit": false,
      "t": 66161.89199999977,
      "d": 540.5383333333302,
      "v": 59
    },
    {
      "midi": 53,
      "hit": false,
      "t": 67026.75333333311,
      "d": 108.10766666666314,
      "v": 57
    },
    {
      "midi": 58,
      "hit": false,
      "t": 67026.75333333311,
      "d": 216.21533333332627,
      "v": 57
    },
    {
      "midi": 62,
      "hit": false,
      "t": 67026.75333333311,
      "d": 216.21533333332627,
      "v": 57
    },
    {
      "midi": 58,
      "hit": false,
      "t": 67459.18399999976,
      "d": 324.32300000000396,
      "v": 60
    },
    {
      "midi": 53,
      "hit": false,
      "t": 67459.18399999976,
      "d": 432.4306666666671,
      "v": 60
    },
    {
      "midi": 62,
      "hit": false,
      "t": 67459.18399999976,
      "d": 432.4306666666671,
      "v": 60
    },
    {
      "midi": 56,
      "hit": false,
      "t": 68107.82999999975,
      "d": 540.5383333333302,
      "v": 61
    },
    {
      "midi": 58,
      "hit": false,
      "t": 68107.82999999975,
      "d": 540.5383333333302,
      "v": 61
    },
    {
      "midi": 62,
      "hit": false,
      "t": 68107.82999999975,
      "d": 540.5383333333302,
      "v": 61
    },
    {
      "midi": 58,
      "hit": false,
      "t": 68972.69133333309,
      "d": 108.10766666666314,
      "v": 58
    },
    {
      "midi": 63,
      "hit": false,
      "t": 68972.69133333309,
      "d": 108.10766666666314,
      "v": 58
    },
    {
      "midi": 55,
      "hit": false,
      "t": 68972.69133333309,
      "d": 216.21533333332627,
      "v": 58
    },
    {
      "midi": 55,
      "hit": false,
      "t": 69405.12199999974,
      "d": 432.4306666666671,
      "v": 59
    },
    {
      "midi": 63,
      "hit": false,
      "t": 69405.12199999974,
      "d": 432.4306666666671,
      "v": 59
    },
    {
      "midi": 58,
      "hit": false,
      "t": 69405.12199999974,
      "d": 540.5383333333302,
      "v": 59
    },
    {
      "midi": 62,
      "hit": false,
      "t": 70053.76799999973,
      "d": 432.4306666666671,
      "v": 61
    },
    {
      "midi": 58,
      "hit": false,
      "t": 70053.76799999973,
      "d": 540.5383333333302,
      "v": 61
    },
    {
      "midi": 55,
      "hit": false,
      "t": 70918.62933333307,
      "d": 108.10766666666314,
      "v": 58
    },
    {
      "midi": 58,
      "hit": false,
      "t": 70918.62933333307,
      "d": 216.21533333332627,
      "v": 58
    },
    {
      "midi": 60,
      "hit": false,
      "t": 70918.62933333307,
      "d": 216.21533333332627,
      "v": 58
    },
    {
      "midi": 55,
      "hit": false,
      "t": 71351.05999999972,
      "d": 432.4306666666671,
      "v": 59
    },
    {
      "midi": 60,
      "hit": false,
      "t": 71351.05999999972,
      "d": 432.4306666666671,
      "v": 59
    },
    {
      "midi": 58,
      "hit": false,
      "t": 71351.05999999972,
      "d": 540.5383333333302,
      "v": 59
    },
    {
      "midi": 55,
      "hit": false,
      "t": 71999.70599999971,
      "d": 540.5383333333302,
      "v": 61
    },
    {
      "midi": 62,
      "hit": false,
      "t": 71999.70599999971,
      "d": 540.5383333333302,
      "v": 61
    },
    {
      "midi": 58,
      "hit": false,
      "t": 71999.70599999971,
      "d": 756.7536666666565,
      "v": 61
    },
    {
      "midi": 57,
      "hit": false,
      "t": 72864.56733333303,
      "d": 108.10766666666314,
      "v": 58
    },
    {
      "midi": 60,
      "hit": false,
      "t": 72864.56733333303,
      "d": 108.10766666666314,
      "v": 58
    },
    {
      "midi": 63,
      "hit": false,
      "t": 72864.56733333303,
      "d": 108.10766666666314,
      "v": 58
    },
    {
      "midi": 65,
      "hit": false,
      "t": 72864.56733333303,
      "d": 108.10766666666314,
      "v": 58
    },
    {
      "midi": 57,
      "hit": false,
      "t": 73296.9979999997,
      "d": 216.21533333332627,
      "v": 57
    },
    {
      "midi": 60,
      "hit": false,
      "t": 73296.9979999997,
      "d": 216.21533333332627,
      "v": 57
    },
    {
      "midi": 63,
      "hit": false,
      "t": 73296.9979999997,
      "d": 216.21533333332627,
      "v": 57
    },
    {
      "midi": 67,
      "hit": false,
      "t": 73296.9979999997,
      "d": 216.21533333332627,
      "v": 57
    },
    {
      "midi": 53,
      "hit": false,
      "t": 73945.6439999997,
      "d": 432.4306666666671,
      "v": 59
    },
    {
      "midi": 58,
      "hit": false,
      "t": 73945.6439999997,
      "d": 540.5383333333302,
      "v": 59
    },
    {
      "midi": 62,
      "hit": false,
      "t": 73945.6439999997,
      "d": 540.5383333333302,
      "v": 59
    },
    {
      "midi": 51,
      "hit": false,
      "t": 74810.50533333303,
      "d": 108.10766666666314,
      "v": 56
    },
    {
      "midi": 55,
      "hit": false,
      "t": 74810.50533333303,
      "d": 216.21533333332627,
      "v": 56
    },
    {
      "midi": 51,
      "hit": false,
      "t": 75242.93599999968,
      "d": 324.32300000000396,
      "v": 57
    },
    {
      "midi": 55,
      "hit": false,
      "t": 75242.93599999968,
      "d": 324.32300000000396,
      "v": 57
    },
    {
      "midi": 62,
      "hit": false,
      "t": 75242.93599999968,
      "d": 324.32300000000396,
      "v": 57
    },
    {
      "midi": 63,
      "hit": false,
      "t": 75891.58199999969,
      "d": 108.10766666666314,
      "v": 59
    },
    {
      "midi": 61,
      "hit": false,
      "t": 75891.58199999969,
      "d": 540.5383333333302,
      "v": 59
    },
    {
      "midi": 54,
      "hit": false,
      "t": 75891.58199999969,
      "d": 648.6459999999934,
      "v": 59
    },
    {
      "midi": 58,
      "hit": false,
      "t": 75891.58199999969,
      "d": 648.6459999999934,
      "v": 59
    },
    {
      "midi": 53,
      "hit": false,
      "t": 76756.44333333301,
      "d": 216.21533333332627,
      "v": 60
    },
    {
      "midi": 57,
      "hit": false,
      "t": 76756.44333333301,
      "d": 216.21533333332627,
      "v": 60
    },
    {
      "midi": 62,
      "hit": false,
      "t": 76756.44333333301,
      "d": 216.21533333332627,
      "v": 60
    },
    {
      "midi": 53,
      "hit": false,
      "t": 77188.87399999966,
      "d": 324.32300000000396,
      "v": 61
    },
    {
      "midi": 57,
      "hit": false,
      "t": 77188.87399999966,
      "d": 432.4306666666671,
      "v": 61
    },
    {
      "midi": 62,
      "hit": false,
      "t": 77188.87399999966,
      "d": 432.4306666666671,
      "v": 61
    },
    {
      "midi": 55,
      "hit": false,
      "t": 77837.51999999965,
      "d": 648.6459999999934,
      "v": 61
    },
    {
      "midi": 65,
      "hit": false,
      "t": 77837.51999999965,
      "d": 648.6459999999934,
      "v": 61
    },
    {
      "midi": 58,
      "hit": false,
      "t": 77837.51999999965,
      "d": 756.7536666666565,
      "v": 61
    },
    {
      "midi": 55,
      "hit": false,
      "t": 78702.38133333297,
      "d": 216.21533333332627,
      "v": 60
    },
    {
      "midi": 59,
      "hit": false,
      "t": 78702.38133333297,
      "d": 216.21533333332627,
      "v": 60
    },
    {
      "midi": 63,
      "hit": false,
      "t": 78702.38133333297,
      "d": 216.21533333332627,
      "v": 60
    },
    {
      "midi": 55,
      "hit": false,
      "t": 79134.81199999963,
      "d": 432.4306666666671,
      "v": 59
    },
    {
      "midi": 59,
      "hit": false,
      "t": 79134.81199999963,
      "d": 432.4306666666671,
      "v": 59
    },
    {
      "midi": 63,
      "hit": false,
      "t": 79134.81199999963,
      "d": 432.4306666666671,
      "v": 59
    },
    {
      "midi": 55,
      "hit": false,
      "t": 79783.45799999962,
      "d": 540.5383333333302,
      "v": 60
    },
    {
      "midi": 59,
      "hit": false,
      "t": 79783.45799999962,
      "d": 540.5383333333302,
      "v": 60
    },
    {
      "midi": 64,
      "hit": false,
      "t": 79783.45799999962,
      "d": 540.5383333333302,
      "v": 60
    },
    {
      "midi": 60,
      "hit": false,
      "t": 80648.31933333295,
      "d": 216.21533333332627,
      "v": 58
    },
    {
      "midi": 63,
      "hit": false,
      "t": 80648.31933333295,
      "d": 216.21533333332627,
      "v": 58
    },
    {
      "midi": 55,
      "hit": false,
      "t": 81080.7499999996,
      "d": 108.10766666666314,
      "v": 60
    },
    {
      "midi": 63,
      "hit": false,
      "t": 81080.7499999996,
      "d": 432.4306666666671,
      "v": 60
    },
    {
      "midi": 60,
      "hit": false,
      "t": 81080.7499999996,
      "d": 540.5383333333302,
      "v": 60
    },
    {
      "midi": 60,
      "hit": false,
      "t": 81729.3959999996,
      "d": 108.10766666666314,
      "v": 56
    },
    {
      "midi": 57,
      "hit": false,
      "t": 81729.3959999996,
      "d": 432.4306666666671,
      "v": 56
    },
    {
      "midi": 63,
      "hit": false,
      "t": 81729.3959999996,
      "d": 432.4306666666671,
      "v": 56
    },
    {
      "midi": 58,
      "hit": false,
      "t": 82594.25733333293,
      "d": 216.21533333332627,
      "v": 59
    },
    {
      "midi": 62,
      "hit": false,
      "t": 82594.25733333293,
      "d": 216.21533333332627,
      "v": 59
    },
    {
      "midi": 65,
      "hit": false,
      "t": 82594.25733333293,
      "d": 216.21533333332627,
      "v": 59
    },
    {
      "midi": 58,
      "hit": false,
      "t": 83026.68799999959,
      "d": 540.5383333333302,
      "v": 59
    },
    {
      "midi": 62,
      "hit": false,
      "t": 83026.68799999959,
      "d": 540.5383333333302,
      "v": 59
    },
    {
      "midi": 65,
      "hit": false,
      "t": 83026.68799999959,
      "d": 540.5383333333302,
      "v": 59
    },
    {
      "midi": 57,
      "hit": false,
      "t": 84648.30299999958,
      "d": 432.4306666666671,
      "v": 58
    },
    {
      "midi": 60,
      "hit": false,
      "t": 84648.30299999958,
      "d": 432.4306666666671,
      "v": 58
    },
    {
      "midi": 63,
      "hit": false,
      "t": 84648.30299999958,
      "d": 432.4306666666671,
      "v": 58
    },
    {
      "midi": 65,
      "hit": false,
      "t": 84648.30299999958,
      "d": 432.4306666666671,
      "v": 58
    },
    {
      "midi": 56,
      "hit": false,
      "t": 85621.27199999958,
      "d": 432.4306666666671,
      "v": 57
    },
    {
      "midi": 62,
      "hit": false,
      "t": 85621.27199999958,
      "d": 432.4306666666671,
      "v": 57
    },
    {
      "midi": 65,
      "hit": false,
      "t": 85621.27199999958,
      "d": 432.4306666666671,
      "v": 57
    },
    {
      "midi": 58,
      "hit": false,
      "t": 85621.27199999958,
      "d": 540.5383333333302,
      "v": 57
    },
    {
      "midi": 55,
      "hit": false,
      "t": 86594.24099999957,
      "d": 432.4306666666671,
      "v": 58
    },
    {
      "midi": 58,
      "hit": false,
      "t": 86594.24099999957,
      "d": 432.4306666666671,
      "v": 58
    },
    {
      "midi": 60,
      "hit": false,
      "t": 86594.24099999957,
      "d": 432.4306666666671,
      "v": 58
    },
    {
      "midi": 63,
      "hit": false,
      "t": 86594.24099999957,
      "d": 432.4306666666671,
      "v": 58
    },
    {
      "midi": 60,
      "hit": false,
      "t": 87567.20999999957,
      "d": 324.32300000000396,
      "v": 59
    },
    {
      "midi": 63,
      "hit": false,
      "t": 87567.20999999957,
      "d": 324.32300000000396,
      "v": 59
    },
    {
      "midi": 54,
      "hit": false,
      "t": 87567.20999999957,
      "d": 432.4306666666671,
      "v": 59
    },
    {
      "midi": 58,
      "hit": false,
      "t": 87567.20999999957,
      "d": 432.4306666666671,
      "v": 59
    },
    {
      "midi": 57,
      "hit": false,
      "t": 88540.17899999957,
      "d": 540.5383333333302,
      "v": 59
    },
    {
      "midi": 65,
      "hit": false,
      "t": 88540.17899999957,
      "d": 540.5383333333302,
      "v": 59
    },
    {
      "midi": 58,
      "hit": false,
      "t": 88540.17899999957,
      "d": 648.6459999999934,
      "v": 59
    },
    {
      "midi": 62,
      "hit": false,
      "t": 88540.17899999957,
      "d": 648.6459999999934,
      "v": 59
    },
    {
      "midi": 53,
      "hit": false,
      "t": 89513.14799999956,
      "d": 648.6459999999934,
      "v": 57
    },
    {
      "midi": 57,
      "hit": false,
      "t": 89513.14799999956,
      "d": 648.6459999999934,
      "v": 57
    },
    {
      "midi": 62,
      "hit": false,
      "t": 89513.14799999956,
      "d": 648.6459999999934,
      "v": 57
    },
    {
      "midi": 58,
      "hit": false,
      "t": 89513.14799999956,
      "d": 756.7536666666565,
      "v": 57
    },
    {
      "midi": 55,
      "hit": false,
      "t": 90378.00933333288,
      "d": 108.10766666666314,
      "v": 54
    },
    {
      "midi": 63,
      "hit": false,
      "t": 90378.00933333288,
      "d": 108.10766666666314,
      "v": 54
    },
    {
      "midi": 58,
      "hit": false,
      "t": 90378.00933333288,
      "d": 324.3229999999894,
      "v": 54
    },
    {
      "midi": 58,
      "hit": false,
      "t": 90810.43999999954,
      "d": 108.10766666666314,
      "v": 52
    },
    {
      "midi": 55,
      "hit": false,
      "t": 90810.43999999954,
      "d": 216.21533333332627,
      "v": 52
    },
    {
      "midi": 63,
      "hit": false,
      "t": 90810.43999999954,
      "d": 216.21533333332627,
      "v": 52
    },
    {
      "midi": 55,
      "hit": false,
      "t": 91459.08599999953,
      "d": 648.6459999999934,
      "v": 54
    },
    {
      "midi": 59,
      "hit": false,
      "t": 91459.08599999953,
      "d": 648.6459999999934,
      "v": 54
    },
    {
      "midi": 62,
      "hit": false,
      "t": 91459.08599999953,
      "d": 648.6459999999934,
      "v": 54
    },
    {
      "midi": 57,
      "hit": false,
      "t": 92107.73199999952,
      "d": 540.5383333333302,
      "v": 54
    },
    {
      "midi": 61,
      "hit": false,
      "t": 92107.73199999952,
      "d": 540.5383333333302,
      "v": 54
    },
    {
      "midi": 64,
      "hit": false,
      "t": 92107.73199999952,
      "d": 540.5383333333302,
      "v": 54
    },
    {
      "midi": 53,
      "hit": false,
      "t": 93405.02399999952,
      "d": 472.97104166666395,
      "v": 58
    },
    {
      "midi": 57,
      "hit": false,
      "t": 93405.02399999952,
      "d": 486.4844999999914,
      "v": 58
    },
    {
      "midi": 62,
      "hit": false,
      "t": 93405.02399999952,
      "d": 497.29526666665333,
      "v": 58
    },
    {
      "midi": 55,
      "hit": false,
      "t": 94377.99299999951,
      "d": 432.4306666666671,
      "v": 55
    },
    {
      "midi": 62,
      "hit": false,
      "t": 94377.99299999951,
      "d": 432.4306666666671,
      "v": 55
    },
    {
      "midi": 59,
      "hit": false,
      "t": 94377.99299999951,
      "d": 648.6459999999934,
      "v": 55
    },
    {
      "midi": 55,
      "hit": false,
      "t": 95350.9619999995,
      "d": 540.5383333333302,
      "v": 57
    },
    {
      "midi": 60,
      "hit": false,
      "t": 95350.9619999995,
      "d": 540.5383333333302,
      "v": 57
    },
    {
      "midi": 63,
      "hit": false,
      "t": 95350.9619999995,
      "d": 540.5383333333302,
      "v": 57
    },
    {
      "midi": 53,
      "hit": false,
      "t": 96323.9309999995,
      "d": 324.32300000000396,
      "v": 58
    },
    {
      "midi": 58,
      "hit": false,
      "t": 96323.9309999995,
      "d": 324.32300000000396,
      "v": 58
    },
    {
      "midi": 62,
      "hit": false,
      "t": 96323.9309999995,
      "d": 324.32300000000396,
      "v": 58
    },
    {
      "midi": 58,
      "hit": false,
      "t": 97296.8999999995,
      "d": 216.21533333332627,
      "v": 58
    },
    {
      "midi": 62,
      "hit": false,
      "t": 97296.8999999995,
      "d": 216.21533333332627,
      "v": 58
    },
    {
      "midi": 65,
      "hit": false,
      "t": 97296.8999999995,
      "d": 216.21533333332627,
      "v": 58
    },
    {
      "midi": 57,
      "hit": false,
      "t": 98161.76133333282,
      "d": 324.32300000000396,
      "v": 60
    },
    {
      "midi": 60,
      "hit": false,
      "t": 98161.76133333282,
      "d": 324.32300000000396,
      "v": 60
    },
    {
      "midi": 63,
      "hit": false,
      "t": 98161.76133333282,
      "d": 324.32300000000396,
      "v": 60
    },
    {
      "midi": 67,
      "hit": false,
      "t": 98161.76133333282,
      "d": 324.32300000000396,
      "v": 60
    },
    {
      "midi": 57,
      "hit": false,
      "t": 98594.19199999949,
      "d": 432.4306666666671,
      "v": 60
    },
    {
      "midi": 60,
      "hit": false,
      "t": 98594.19199999949,
      "d": 432.4306666666671,
      "v": 60
    },
    {
      "midi": 63,
      "hit": false,
      "t": 98594.19199999949,
      "d": 432.4306666666671,
      "v": 60
    },
    {
      "midi": 67,
      "hit": false,
      "t": 98594.19199999949,
      "d": 432.4306666666671,
      "v": 60
    },
    {
      "midi": 67,
      "hit": false,
      "t": 99134.73033333282,
      "d": 108.10766666666314,
      "v": 61
    },
    {
      "midi": 63,
      "hit": false,
      "t": 99134.73033333282,
      "d": 324.3229999999894,
      "v": 61
    },
    {
      "midi": 57,
      "hit": false,
      "t": 99134.73033333282,
      "d": 405.4037499999831,
      "v": 61
    },
    {
      "midi": 60,
      "hit": false,
      "t": 99134.73033333282,
      "d": 405.4037499999831,
      "v": 61
    },
    {
      "midi": 57,
      "hit": false,
      "t": 99567.16099999947,
      "d": 324.32300000000396,
      "v": 61
    },
    {
      "midi": 60,
      "hit": false,
      "t": 99567.16099999947,
      "d": 324.32300000000396,
      "v": 61
    },
    {
      "midi": 63,
      "hit": false,
      "t": 99567.16099999947,
      "d": 324.32300000000396,
      "v": 61
    },
    {
      "midi": 67,
      "hit": false,
      "t": 99567.16099999947,
      "d": 324.32300000000396,
      "v": 61
    },
    {
      "midi": 53,
      "hit": false,
      "t": 99891.48399999947,
      "d": 216.21533333332627,
      "v": 61
    },
    {
      "midi": 58,
      "hit": false,
      "t": 99891.48399999947,
      "d": 216.21533333332627,
      "v": 61
    },
    {
      "midi": 62,
      "hit": false,
      "t": 99891.48399999947,
      "d": 216.21533333332627,
      "v": 61
    },
    {
      "midi": 54,
      "hit": false,
      "t": 101080.6683333328,
      "d": 108.10766666666314,
      "v": 60
    },
    {
      "midi": 62,
      "hit": false,
      "t": 101080.6683333328,
      "d": 216.21533333332627,
      "v": 60
    },
    {
      "midi": 58,
      "hit": false,
      "t": 101080.6683333328,
      "d": 324.3229999999894,
      "v": 60
    },
    {
      "midi": 55,
      "hit": false,
      "t": 101837.42199999945,
      "d": 108.10766666666314,
      "v": 56
    },
    {
      "midi": 62,
      "hit": false,
      "t": 101837.42199999945,
      "d": 108.10766666666314,
      "v": 56
    },
    {
      "midi": 58,
      "hit": false,
      "t": 101837.42199999945,
      "d": 216.21533333332627,
      "v": 56
    },
    {
      "midi": 55,
      "hit": false,
      "t": 102486.06799999945,
      "d": 324.32300000000396,
      "v": 58
    },
    {
      "midi": 58,
      "hit": false,
      "t": 102810.39099999945,
      "d": 108.10766666666314,
      "v": 58
    },
    {
      "midi": 62,
      "hit": false,
      "t": 102810.39099999945,
      "d": 108.10766666666314,
      "v": 58
    },
    {
      "midi": 54,
      "hit": false,
      "t": 102810.39099999945,
      "d": 540.5383333333302,
      "v": 58
    },
    {
      "midi": 55,
      "hit": false,
      "t": 103783.35999999945,
      "d": 324.32300000000396,
      "v": 60
    },
    {
      "midi": 58,
      "hit": false,
      "t": 103783.35999999945,
      "d": 324.32300000000396,
      "v": 60
    },
    {
      "midi": 63,
      "hit": false,
      "t": 103783.35999999945,
      "d": 324.32300000000396,
      "v": 60
    },
    {
      "midi": 58,
      "hit": false,
      "t": 104756.32899999944,
      "d": 216.21533333332627,
      "v": 60
    },
    {
      "midi": 55,
      "hit": false,
      "t": 104756.32899999944,
      "d": 324.3229999999894,
      "v": 60
    },
    {
      "midi": 60,
      "hit": false,
      "t": 104756.32899999944,
      "d": 324.3229999999894,
      "v": 60
    },
    {
      "midi": 63,
      "hit": false,
      "t": 104756.32899999944,
      "d": 324.3229999999894,
      "v": 60
    },
    {
      "midi": 55,
      "hit": false,
      "t": 105729.29799999943,
      "d": 324.32300000000396,
      "v": 61
    },
    {
      "midi": 60,
      "hit": false,
      "t": 105729.29799999943,
      "d": 324.32300000000396,
      "v": 61
    },
    {
      "midi": 63,
      "hit": false,
      "t": 105729.29799999943,
      "d": 324.32300000000396,
      "v": 61
    },
    {
      "midi": 69,
      "hit": false,
      "t": 106702.26699999943,
      "d": 108.10766666666314,
      "v": 61
    },
    {
      "midi": 72,
      "hit": false,
      "t": 106702.26699999943,
      "d": 432.4306666666671,
      "v": 61
    },
    {
      "midi": 75,
      "hit": false,
      "t": 106702.26699999943,
      "d": 432.4306666666671,
      "v": 61
    },
    {
      "midi": 79,
      "hit": false,
      "t": 106702.26699999943,
      "d": 432.4306666666671,
      "v": 61
    },
    {
      "midi": 69,
      "hit": false,
      "t": 107242.80533333276,
      "d": 216.21533333332627,
      "v": 59
    },
    {
      "midi": 72,
      "hit": false,
      "t": 107242.80533333276,
      "d": 216.21533333332627,
      "v": 59
    },
    {
      "midi": 75,
      "hit": false,
      "t": 107242.80533333276,
      "d": 216.21533333332627,
      "v": 59
    },
    {
      "midi": 78,
      "hit": false,
      "t": 107242.80533333276,
      "d": 216.21533333332627,
      "v": 59
    },
    {
      "midi": 69,
      "hit": false,
      "t": 107675.23599999941,
      "d": 324.32300000000396,
      "v": 58
    },
    {
      "midi": 72,
      "hit": false,
      "t": 107675.23599999941,
      "d": 324.32300000000396,
      "v": 58
    },
    {
      "midi": 75,
      "hit": false,
      "t": 107675.23599999941,
      "d": 324.32300000000396,
      "v": 58
    },
    {
      "midi": 77,
      "hit": false,
      "t": 107675.23599999941,
      "d": 324.32300000000396,
      "v": 58
    },
    {
      "midi": 53,
      "hit": false,
      "t": 108972.52799999941,
      "d": 324.32300000000396,
      "v": 60
    },
    {
      "midi": 56,
      "hit": false,
      "t": 108972.52799999941,
      "d": 324.32300000000396,
      "v": 60
    },
    {
      "midi": 58,
      "hit": false,
      "t": 108972.52799999941,
      "d": 324.32300000000396,
      "v": 60
    },
    {
      "midi": 62,
      "hit": false,
      "t": 108972.52799999941,
      "d": 324.32300000000396,
      "v": 60
    },
    {
      "midi": 55,
      "hit": false,
      "t": 109837.38933333274,
      "d": 108.10766666666314,
      "v": 59
    },
    {
      "midi": 58,
      "hit": false,
      "t": 109837.38933333274,
      "d": 108.10766666666314,
      "v": 59
    },
    {
      "midi": 60,
      "hit": false,
      "t": 109837.38933333274,
      "d": 108.10766666666314,
      "v": 59
    },
    {
      "midi": 63,
      "hit": false,
      "t": 109837.38933333274,
      "d": 108.10766666666314,
      "v": 59
    },
    {
      "midi": 55,
      "hit": false,
      "t": 110269.81999999941,
      "d": 432.4306666666671,
      "v": 62
    },
    {
      "midi": 58,
      "hit": false,
      "t": 110269.81999999941,
      "d": 432.4306666666671,
      "v": 62
    },
    {
      "midi": 60,
      "hit": false,
      "t": 110269.81999999941,
      "d": 432.4306666666671,
      "v": 62
    },
    {
      "midi": 63,
      "hit": false,
      "t": 110269.81999999941,
      "d": 432.4306666666671,
      "v": 62
    },
    {
      "midi": 54,
      "hit": false,
      "t": 110810.35833333274,
      "d": 108.10766666666314,
      "v": 62
    },
    {
      "midi": 58,
      "hit": false,
      "t": 110810.35833333274,
      "d": 108.10766666666314,
      "v": 62
    },
    {
      "midi": 63,
      "hit": false,
      "t": 110810.35833333274,
      "d": 108.10766666666314,
      "v": 62
    },
    {
      "midi": 54,
      "hit": false,
      "t": 111242.78899999941,
      "d": 324.32300000000396,
      "v": 60
    },
    {
      "midi": 58,
      "hit": false,
      "t": 111242.78899999941,
      "d": 324.32300000000396,
      "v": 60
    },
    {
      "midi": 63,
      "hit": false,
      "t": 111242.78899999941,
      "d": 324.32300000000396,
      "v": 60
    },
    {
      "midi": 53,
      "hit": false,
      "t": 111567.11199999941,
      "d": 324.32300000000396,
      "v": 61
    },
    {
      "midi": 57,
      "hit": false,
      "t": 111567.11199999941,
      "d": 432.4306666666671,
      "v": 61
    },
    {
      "midi": 58,
      "hit": false,
      "t": 111567.11199999941,
      "d": 432.4306666666671,
      "v": 61
    },
    {
      "midi": 62,
      "hit": false,
      "t": 111567.11199999941,
      "d": 432.4306666666671,
      "v": 61
    },
    {
      "midi": 62,
      "hit": false,
      "t": 112864.40399999941,
      "d": 324.32300000000396,
      "v": 58
    },
    {
      "midi": 55,
      "hit": false,
      "t": 112864.40399999941,
      "d": 540.5383333333302,
      "v": 58
    },
    {
      "midi": 58,
      "hit": false,
      "t": 112864.40399999941,
      "d": 756.7536666666565,
      "v": 58
    },
    {
      "midi": 65,
      "hit": false,
      "t": 113837.3729999994,
      "d": 648.6459999999934,
      "v": 59
    },
    {
      "midi": 57,
      "hit": false,
      "t": 113837.3729999994,
      "d": 756.7536666666565,
      "v": 59
    },
    {
      "midi": 60,
      "hit": false,
      "t": 113837.3729999994,
      "d": 756.7536666666565,
      "v": 59
    },
    {
      "midi": 58,
      "hit": false,
      "t": 114810.34199999938,
      "d": 432.4306666666671,
      "v": 58
    },
    {
      "midi": 55,
      "hit": false,
      "t": 114810.34199999938,
      "d": 540.5383333333302,
      "v": 58
    },
    {
      "midi": 64,
      "hit": false,
      "t": 114810.34199999938,
      "d": 540.5383333333302,
      "v": 58
    },
    {
      "midi": 55,
      "hit": false,
      "t": 115783.31099999938,
      "d": 540.5383333333302,
      "v": 62
    },
    {
      "midi": 58,
      "hit": false,
      "t": 115783.31099999938,
      "d": 540.5383333333302,
      "v": 62
    },
    {
      "midi": 60,
      "hit": false,
      "t": 115783.31099999938,
      "d": 540.5383333333302,
      "v": 62
    },
    {
      "midi": 63,
      "hit": false,
      "t": 115783.31099999938,
      "d": 540.5383333333302,
      "v": 62
    },
    {
      "midi": 60,
      "hit": false,
      "t": 116756.27999999937,
      "d": 324.32300000000396,
      "v": 60
    },
    {
      "midi": 57,
      "hit": false,
      "t": 116756.27999999937,
      "d": 432.4306666666671,
      "v": 60
    },
    {
      "midi": 63,
      "hit": false,
      "t": 116756.27999999937,
      "d": 432.4306666666671,
      "v": 60
    },
    {
      "midi": 66,
      "hit": false,
      "t": 116756.27999999937,
      "d": 432.4306666666671,
      "v": 60
    },
    {
      "midi": 57,
      "hit": false,
      "t": 117621.14133333271,
      "d": 108.10766666666314,
      "v": 60
    },
    {
      "midi": 58,
      "hit": false,
      "t": 117621.14133333271,
      "d": 108.10766666666314,
      "v": 60
    },
    {
      "midi": 62,
      "hit": false,
      "t": 117621.14133333271,
      "d": 108.10766666666314,
      "v": 60
    },
    {
      "midi": 57,
      "hit": false,
      "t": 118053.57199999937,
      "d": 432.4306666666671,
      "v": 62
    },
    {
      "midi": 62,
      "hit": false,
      "t": 118377.89499999938,
      "d": 108.10766666666314,
      "v": 62
    },
    {
      "midi": 58,
      "hit": false,
      "t": 118377.89499999938,
      "d": 216.21533333332627,
      "v": 62
    },
    {
      "midi": 53,
      "hit": false,
      "t": 118377.89499999938,
      "d": 648.6459999999934,
      "v": 62
    },
    {
      "midi": 65,
      "hit": false,
      "t": 119350.86399999994,
      "d": 105.40497499999765,
      "v": 78
    },
    {
      "midi": 67,
      "hit": false,
      "t": 119513.02549999995,
      "d": 105.4049750000122,
      "v": 78
    },
    {
      "midi": 65,
      "hit": false,
      "t": 119567.07933333328,
      "d": 105.4049750000122,
      "v": 78
    },
    {
      "midi": 57,
      "hit": false,
      "t": 119675.18699999937,
      "d": 324.32300000000396,
      "v": 63
    },
    {
      "midi": 60,
      "hit": false,
      "t": 119675.18699999937,
      "d": 324.32300000000396,
      "v": 63
    },
    {
      "midi": 63,
      "hit": false,
      "t": 119675.18699999937,
      "d": 324.32300000000396,
      "v": 63
    },
    {
      "midi": 64,
      "hit": false,
      "t": 119675.18699999996,
      "d": 324.32300000000396,
      "v": 78
    },
    {
      "midi": 65,
      "hit": false,
      "t": 119999.50999999997,
      "d": 108.10766666666314,
      "v": 81
    },
    {
      "midi": 76,
      "hit": false,
      "t": 120296.8060833333,
      "d": 27.026916666669422,
      "v": 82
    },
    {
      "midi": 77,
      "hit": false,
      "t": 120323.83299999997,
      "d": 216.21533333332627,
      "v": 82
    },
    {
      "midi": 53,
      "hit": false,
      "t": 120648.15599999936,
      "d": 432.4306666666671,
      "v": 62
    },
    {
      "midi": 56,
      "hit": false,
      "t": 120648.15599999936,
      "d": 540.5383333333302,
      "v": 62
    },
    {
      "midi": 58,
      "hit": false,
      "t": 120648.15599999936,
      "d": 540.5383333333302,
      "v": 62
    },
    {
      "midi": 62,
      "hit": false,
      "t": 120648.15599999936,
      "d": 540.5383333333302,
      "v": 62
    },
    {
      "midi": 74,
      "hit": false,
      "t": 120648.15599999996,
      "d": 648.6459999999934,
      "v": 85
    },
    {
      "midi": 51,
      "hit": false,
      "t": 121296.80199999936,
      "d": 540.5383333333302,
      "v": 61
    },
    {
      "midi": 62,
      "hit": false,
      "t": 121296.80199999936,
      "d": 540.5383333333302,
      "v": 61
    },
    {
      "midi": 55,
      "hit": false,
      "t": 121296.80199999936,
      "d": 756.7536666666565,
      "v": 61
    },
    {
      "midi": 58,
      "hit": false,
      "t": 121296.80199999936,
      "d": 756.7536666666565,
      "v": 61
    },
    {
      "midi": 72,
      "hit": false,
      "t": 121837.34033333328,
      "d": 216.21533333332627,
      "v": 80
    },
    {
      "midi": 55,
      "hit": false,
      "t": 122269.77099999934,
      "d": 540.5383333333302,
      "v": 58
    },
    {
      "midi": 60,
      "hit": false,
      "t": 122269.77099999934,
      "d": 540.5383333333302,
      "v": 58
    },
    {
      "midi": 63,
      "hit": false,
      "t": 122269.77099999934,
      "d": 648.6459999999934,
      "v": 58
    },
    {
      "midi": 58,
      "hit": false,
      "t": 122269.77099999934,
      "d": 756.7536666666565,
      "v": 58
    },
    {
      "midi": 70,
      "hit": false,
      "t": 122810.30933333328,
      "d": 216.21533333332627,
      "v": 81
    },
    {
      "midi": 69,
      "hit": false,
      "t": 123134.63233333327,
      "d": 108.10766666666314,
      "v": 82
    },
    {
      "midi": 57,
      "hit": false,
      "t": 123242.73999999932,
      "d": 540.5383333333302,
      "v": 58
    },
    {
      "midi": 53,
      "hit": false,
      "t": 123242.73999999932,
      "d": 648.6459999999934,
      "v": 58
    },
    {
      "midi": 58,
      "hit": false,
      "t": 123242.73999999932,
      "d": 648.6459999999934,
      "v": 58
    },
    {
      "midi": 62,
      "hit": false,
      "t": 123242.73999999932,
      "d": 648.6459999999934,
      "v": 58
    },
    {
      "midi": 67,
      "hit": false,
      "t": 123242.73999999993,
      "d": 216.21533333332627,
      "v": 82
    },
    {
      "midi": 62,
      "hit": false,
      "t": 123783.27833333326,
      "d": 216.21533333332627,
      "v": 86
    },
    {
      "midi": 56,
      "hit": false,
      "t": 124215.70899999932,
      "d": 756.753666666671,
      "v": 61
    },
    {
      "midi": 58,
      "hit": false,
      "t": 124215.70899999932,
      "d": 756.753666666671,
      "v": 61
    },
    {
      "midi": 62,
      "hit": false,
      "t": 124215.70899999932,
      "d": 756.753666666671,
      "v": 61
    },
    {
      "midi": 65,
      "hit": false,
      "t": 124215.70899999932,
      "d": 756.753666666671,
      "v": 61
    },
    {
      "midi": 65,
      "hit": false,
      "t": 124431.92433333326,
      "d": 648.6459999999934,
      "v": 88
    },
    {
      "midi": 51,
      "hit": false,
      "t": 125188.67799999932,
      "d": 648.6459999999934,
      "v": 62
    },
    {
      "midi": 58,
      "hit": false,
      "t": 125188.67799999932,
      "d": 648.6459999999934,
      "v": 62
    },
    {
      "midi": 62,
      "hit": false,
      "t": 125188.67799999932,
      "d": 648.6459999999934,
      "v": 62
    },
    {
      "midi": 55,
      "hit": false,
      "t": 125188.67799999932,
      "d": 756.7536666666565,
      "v": 62
    },
    {
      "midi": 67,
      "hit": false,
      "t": 125513.00099999992,
      "d": 108.10766666666314,
      "v": 83
    },
    {
      "midi": 70,
      "hit": false,
      "t": 125729.21633333324,
      "d": 108.10766666666314,
      "v": 85
    },
    {
      "midi": 75,
      "hit": false,
      "t": 125837.3239999999,
      "d": 108.10766666666314,
      "v": 85
    },
    {
      "midi": 79,
      "hit": false,
      "t": 126053.53933333323,
      "d": 108.10766666666314,
      "v": 87
    },
    {
      "midi": 81,
      "hit": false,
      "t": 126161.6469999999,
      "d": 216.21533333332627,
      "v": 89
    },
    {
      "midi": 65,
      "hit": false,
      "t": 126485.9699999993,
      "d": 648.6459999999934,
      "v": 61
    },
    {
      "midi": 57,
      "hit": false,
      "t": 126485.9699999993,
      "d": 756.7536666666565,
      "v": 61
    },
    {
      "midi": 62,
      "hit": false,
      "t": 126485.9699999993,
      "d": 756.7536666666565,
      "v": 61
    },
    {
      "midi": 79,
      "hit": false,
      "t": 127026.50833333321,
      "d": 108.10766666666314,
      "v": 87
    },
    {
      "midi": 81,
      "hit": false,
      "t": 127134.61599999988,
      "d": 324.32300000000396,
      "v": 87
    },
    {
      "midi": 52,
      "hit": false,
      "t": 127458.93899999929,
      "d": 864.8613333333342,
      "v": 64
    },
    {
      "midi": 57,
      "hit": false,
      "t": 127458.93899999929,
      "d": 864.8613333333342,
      "v": 64
    },
    {
      "midi": 61,
      "hit": false,
      "t": 127458.93899999929,
      "d": 864.8613333333342,
      "v": 64
    },
    {
      "midi": 79,
      "hit": false,
      "t": 127783.26199999989,
      "d": 78.37805833332823,
      "v": 84
    },
    {
      "midi": 81,
      "hit": false,
      "t": 127864.34274999988,
      "d": 78.37805833332823,
      "v": 84
    },
    {
      "midi": 79,
      "hit": false,
      "t": 127945.42349999987,
      "d": 78.37805833332823,
      "v": 85
    },
    {
      "midi": 76,
      "hit": false,
      "t": 128026.50424999987,
      "d": 78.37805833332823,
      "v": 85
    },
    {
      "midi": 78,
      "hit": false,
      "t": 128107.58499999986,
      "d": 135.13458333333256,
      "v": 86
    },
    {
      "midi": 74,
      "hit": false,
      "t": 128323.80033333319,
      "d": 756.753666666671,
      "v": 87
    },
    {
      "midi": 48,
      "hit": false,
      "t": 128756.23099999929,
      "d": 216.21533333332627,
      "v": 63
    },
    {
      "midi": 50,
      "hit": false,
      "t": 128756.23099999929,
      "d": 216.21533333332627,
      "v": 63
    },
    {
      "midi": 54,
      "hit": false,
      "t": 128756.23099999929,
      "d": 216.21533333332627,
      "v": 63
    },
    {
      "midi": 57,
      "hit": false,
      "t": 128756.23099999929,
      "d": 216.21533333332627,
      "v": 63
    },
    {
      "midi": 50,
      "hit": false,
      "t": 129080.55399999928,
      "d": 432.4306666666671,
      "v": 62
    },
    {
      "midi": 53,
      "hit": false,
      "t": 129080.55399999928,
      "d": 432.4306666666671,
      "v": 62
    },
    {
      "midi": 55,
      "hit": false,
      "t": 129080.55399999928,
      "d": 432.4306666666671,
      "v": 62
    },
    {
      "midi": 59,
      "hit": false,
      "t": 129080.55399999928,
      "d": 432.4306666666671,
      "v": 62
    },
    {
      "midi": 79,
      "hit": false,
      "t": 129404.87699999986,
      "d": 324.32300000000396,
      "v": 90
    },
    {
      "midi": 77,
      "hit": false,
      "t": 129729.19999999987,
      "d": 108.10766666667769,
      "v": 91
    },
    {
      "midi": 79,
      "hit": false,
      "t": 129783.2538333332,
      "d": 108.10766666667769,
      "v": 90
    },
    {
      "midi": 77,
      "hit": false,
      "t": 129837.30766666654,
      "d": 108.10766666667769,
      "v": 89
    },
    {
      "midi": 74,
      "hit": false,
      "t": 129945.41533333322,
      "d": 108.10766666666314,
      "v": 87
    },
    {
      "midi": 75,
      "hit": false,
      "t": 130053.52299999988,
      "d": 324.3229999999894,
      "v": 87
    },
    {
      "midi": 72,
      "hit": false,
      "t": 130269.73833333321,
      "d": 216.21533333332627,
      "v": 88
    },
    {
      "midi": 51,
      "hit": false,
      "t": 130377.84599999928,
      "d": 108.10766666666314,
      "v": 62
    },
    {
      "midi": 55,
      "hit": false,
      "t": 130377.84599999928,
      "d": 540.5383333333302,
      "v": 62
    },
    {
      "midi": 60,
      "hit": false,
      "t": 130377.84599999928,
      "d": 540.5383333333302,
      "v": 62
    },
    {
      "midi": 77,
      "hit": false,
      "t": 130594.0613333332,
      "d": 324.32300000000396,
      "v": 91
    },
    {
      "midi": 75,
      "hit": false,
      "t": 130918.3843333332,
      "d": 216.21533333332627,
      "v": 91
    },
    {
      "midi": 73,
      "hit": false,
      "t": 130999.4650833332,
      "d": 108.10766666667769,
      "v": 91
    },
    {
      "midi": 53,
      "hit": false,
      "t": 131026.49199999927,
      "d": 648.6460000000079,
      "v": 58
    },
    {
      "midi": 62,
      "hit": false,
      "t": 131026.49199999927,
      "d": 756.7536666666856,
      "v": 58
    },
    {
      "midi": 58,
      "hit": false,
      "t": 131026.49199999927,
      "d": 864.8613333333633,
      "v": 58
    },
    {
      "midi": 74,
      "hit": false,
      "t": 131026.49199999987,
      "d": 324.3229999999894,
      "v": 91
    },
    {
      "midi": 77,
      "hit": false,
      "t": 131350.81499999986,
      "d": 432.43066666668165,
      "v": 85
    },
    {
      "midi": 70,
      "hit": false,
      "t": 131675.13799999986,
      "d": 216.21533333335537,
      "v": 84
    },
    {
      "midi": 73,
      "hit": false,
      "t": 131972.4340833332,
      "d": 108.10766666664858,
      "v": 84
    },
    {
      "midi": 62,
      "hit": false,
      "t": 131999.4609999993,
      "d": 648.6460000000079,
      "v": 59
    },
    {
      "midi": 55,
      "hit": false,
      "t": 131999.4609999993,
      "d": 756.7536666666856,
      "v": 59
    },
    {
      "midi": 65,
      "hit": false,
      "t": 131999.4609999993,
      "d": 756.7536666666856,
      "v": 59
    },
    {
      "midi": 58,
      "hit": false,
      "t": 131999.4609999993,
      "d": 864.8613333333633,
      "v": 59
    },
    {
      "midi": 74,
      "hit": false,
      "t": 131999.46099999986,
      "d": 324.32300000000396,
      "v": 84
    },
    {
      "midi": 77,
      "hit": false,
      "t": 132323.78399999987,
      "d": 648.6459999999788,
      "v": 84
    },
    {
      "midi": 70,
      "hit": false,
      "t": 132648.10699999987,
      "d": 216.21533333332627,
      "v": 84
    },
    {
      "midi": 73,
      "hit": false,
      "t": 132945.4030833332,
      "d": 324.32299999997485,
      "v": 85
    },
    {
      "midi": 58,
      "hit": false,
      "t": 132972.42999999935,
      "d": 648.6460000000079,
      "v": 60
    },
    {
      "midi": 55,
      "hit": false,
      "t": 132972.42999999935,
      "d": 756.7536666666856,
      "v": 60
    },
    {
      "midi": 62,
      "hit": false,
      "t": 132972.42999999935,
      "d": 756.7536666666856,
      "v": 60
    },
    {
      "midi": 74,
      "hit": false,
      "t": 132972.42999999985,
      "d": 324.32299999997485,
      "v": 85
    },
    {
      "midi": 77,
      "hit": false,
      "t": 133296.75299999982,
      "d": 324.32300000000396,
      "v": 79
    },
    {
      "midi": 79,
      "hit": false,
      "t": 133621.07599999983,
      "d": 324.32300000000396,
      "v": 80
    },
    {
      "midi": 60,
      "hit": false,
      "t": 133945.39899999936,
      "d": 648.6460000000079,
      "v": 57
    },
    {
      "midi": 63,
      "hit": false,
      "t": 133945.39899999936,
      "d": 648.6460000000079,
      "v": 57
    },
    {
      "midi": 65,
      "hit": false,
      "t": 133945.39899999936,
      "d": 648.6460000000079,
      "v": 57
    },
    {
      "midi": 77,
      "hit": false,
      "t": 133945.39899999983,
      "d": 78.37805833332823,
      "v": 81
    },
    {
      "midi": 79,
      "hit": false,
      "t": 134026.47974999982,
      "d": 78.37805833332823,
      "v": 81
    },
    {
      "midi": 77,
      "hit": false,
      "t": 134107.56049999982,
      "d": 78.37805833332823,
      "v": 81
    },
    {
      "midi": 74,
      "hit": false,
      "t": 134269.7219999998,
      "d": 324.32300000000396,
      "v": 82
    },
    {
      "midi": 77,
      "hit": false,
      "t": 134594.0449999998,
      "d": 108.10766666667769,
      "v": 83
    },
    {
      "midi": 82,
      "hit": false,
      "t": 134918.3679999998,
      "d": 324.32300000000396,
      "v": 85
    },
    {
      "midi": 84,
      "hit": false,
      "t": 135242.69099999982,
      "d": 324.32299999997485,
      "v": 89
    },
    {
      "midi": 85,
      "hit": false,
      "t": 135539.98708333314,
      "d": 108.10766666664858,
      "v": 90
    },
    {
      "midi": 53,
      "hit": false,
      "t": 135567.01399999936,
      "d": 324.32300000000396,
      "v": 57
    },
    {
      "midi": 56,
      "hit": false,
      "t": 135567.01399999936,
      "d": 324.32300000000396,
      "v": 57
    },
    {
      "midi": 58,
      "hit": false,
      "t": 135567.01399999936,
      "d": 324.32300000000396,
      "v": 57
    },
    {
      "midi": 62,
      "hit": false,
      "t": 135567.01399999936,
      "d": 324.32300000000396,
      "v": 57
    },
    {
      "midi": 89,
      "hit": false,
      "t": 135567.0139999998,
      "d": 540.5383333333302,
      "v": 90
    },
    {
      "midi": 86,
      "hit": false,
      "t": 135567.0139999998,
      "d": 648.6460000000079,
      "v": 90
    },
    {
      "midi": 58,
      "hit": false,
      "t": 136107.5523333327,
      "d": 216.21533333332627,
      "v": 57
    },
    {
      "midi": 62,
      "hit": false,
      "t": 136107.5523333327,
      "d": 216.21533333332627,
      "v": 57
    },
    {
      "midi": 82,
      "hit": false,
      "t": 136215.6599999998,
      "d": 324.32300000000396,
      "v": 89
    },
    {
      "midi": 54,
      "hit": false,
      "t": 136539.98299999934,
      "d": 432.43066666668165,
      "v": 57
    },
    {
      "midi": 84,
      "hit": false,
      "t": 136539.9829999998,
      "d": 216.21533333332627,
      "v": 89
    },
    {
      "midi": 85,
      "hit": false,
      "t": 136837.27908333312,
      "d": 108.10766666664858,
      "v": 86
    },
    {
      "midi": 62,
      "hit": false,
      "t": 136864.30599999934,
      "d": 108.10766666667769,
      "v": 58
    },
    {
      "midi": 55,
      "hit": false,
      "t": 136864.30599999934,
      "d": 756.7536666666856,
      "v": 58
    },
    {
      "midi": 86,
      "hit": false,
      "t": 136864.30599999978,
      "d": 648.6460000000079,
      "v": 86
    },
    {
      "midi": 89,
      "hit": false,
      "t": 136864.30599999978,
      "d": 648.6460000000079,
      "v": 86
    },
    {
      "midi": 82,
      "hit": false,
      "t": 137512.9519999998,
      "d": 432.43066666665254,
      "v": 84
    },
    {
      "midi": 50,
      "hit": false,
      "t": 137837.27499999935,
      "d": 648.6460000000079,
      "v": 57
    },
    {
      "midi": 53,
      "hit": false,
      "t": 137837.27499999935,
      "d": 648.6460000000079,
      "v": 57
    },
    {
      "midi": 56,
      "hit": false,
      "t": 137837.27499999935,
      "d": 648.6460000000079,
      "v": 57
    },
    {
      "midi": 58,
      "hit": false,
      "t": 137837.27499999935,
      "d": 648.6460000000079,
      "v": 57
    },
    {
      "midi": 82,
      "hit": false,
      "t": 138161.59799999977,
      "d": 324.32299999997485,
      "v": 85
    },
    {
      "midi": 83,
      "hit": false,
      "t": 138458.89408333309,
      "d": 27.02691666665487,
      "v": 87
    },
    {
      "midi": 84,
      "hit": false,
      "t": 138485.92099999974,
      "d": 216.21533333332627,
      "v": 87
    },
    {
      "midi": 85,
      "hit": false,
      "t": 138783.21708333306,
      "d": 324.32300000000396,
      "v": 88
    },
    {
      "midi": 58,
      "hit": false,
      "t": 138810.24399999937,
      "d": 324.32300000000396,
      "v": 56
    },
    {
      "midi": 55,
      "hit": false,
      "t": 138810.24399999937,
      "d": 756.7536666666565,
      "v": 56
    },
    {
      "midi": 62,
      "hit": false,
      "t": 138810.24399999937,
      "d": 756.7536666666565,
      "v": 56
    },
    {
      "midi": 86,
      "hit": false,
      "t": 138810.24399999972,
      "d": 108.10766666667769,
      "v": 88
    },
    {
      "midi": 89,
      "hit": false,
      "t": 138810.24399999972,
      "d": 216.21533333335537,
      "v": 88
    },
    {
      "midi": 82,
      "hit": false,
      "t": 139134.56699999972,
      "d": 324.32300000000396,
      "v": 85
    },
    {
      "midi": 84,
      "hit": false,
      "t": 139458.88999999972,
      "d": 216.21533333332627,
      "v": 85
    },
    {
      "midi": 85,
      "hit": false,
      "t": 139756.18608333304,
      "d": 324.32300000000396,
      "v": 86
    },
    {
      "midi": 53,
      "hit": false,
      "t": 139783.21299999935,
      "d": 648.6460000000079,
      "v": 59
    },
    {
      "midi": 62,
      "hit": false,
      "t": 139783.21299999935,
      "d": 756.7536666666856,
      "v": 59
    },
    {
      "midi": 58,
      "hit": false,
      "t": 139783.21299999935,
      "d": 1837.830333333346,
      "v": 59
    },
    {
      "midi": 86,
      "hit": false,
      "t": 139783.2129999997,
      "d": 108.10766666667769,
      "v": 86
    },
    {
      "midi": 89,
      "hit": false,
      "t": 139783.2129999997,
      "d": 216.21533333335537,
      "v": 86
    },
    {
      "midi": 82,
      "hit": false,
      "t": 140107.5359999997,
      "d": 324.32300000000396,
      "v": 87
    },
    {
      "midi": 84,
      "hit": false,
      "t": 140431.8589999997,
      "d": 108.10766666667769,
      "v": 88
    },
    {
      "midi": 85,
      "hit": false,
      "t": 140729.15508333305,
      "d": 108.10766666664858,
      "v": 88
    },
    {
      "midi": 55,
      "hit": false,
      "t": 140756.18199999936,
      "d": 756.7536666666565,
      "v": 57
    },
    {
      "midi": 62,
      "hit": false,
      "t": 140756.18199999936,
      "d": 756.7536666666565,
      "v": 57
    },
    {
      "midi": 86,
      "hit": false,
      "t": 140756.1819999997,
      "d": 540.5383333333302,
      "v": 88
    },
    {
      "midi": 89,
      "hit": false,
      "t": 140756.1819999997,
      "d": 540.5383333333302,
      "v": 88
    },
    {
      "midi": 85,
      "hit": false,
      "t": 141375.09839166637,
      "d": 756.7536666666565,
      "v": 89
    },
    {
      "midi": 86,
      "hit": false,
      "t": 141404.8279999997,
      "d": 756.7536666666565,
      "v": 89
    },
    {
      "midi": 89,
      "hit": false,
      "t": 141404.8279999997,
      "d": 756.7536666666565,
      "v": 89
    },
    {
      "midi": 58,
      "hit": false,
      "t": 141729.15099999937,
      "d": 756.7536666666565,
      "v": 57
    },
    {
      "midi": 62,
      "hit": false,
      "t": 141729.15099999937,
      "d": 756.7536666666565,
      "v": 57
    },
    {
      "midi": 65,
      "hit": false,
      "t": 141729.15099999937,
      "d": 756.7536666666565,
      "v": 57
    },
    {
      "midi": 82,
      "hit": false,
      "t": 142377.79699999967,
      "d": 108.10766666667769,
      "v": 72
    },
    {
      "midi": 86,
      "hit": false,
      "t": 142377.79699999967,
      "d": 216.21533333335537,
      "v": 76
    },
    {
      "midi": 55,
      "hit": false,
      "t": 142702.11999999936,
      "d": 324.32300000000396,
      "v": 62
    },
    {
      "midi": 58,
      "hit": false,
      "t": 142702.11999999936,
      "d": 324.32300000000396,
      "v": 62
    },
    {
      "midi": 62,
      "hit": false,
      "t": 142702.11999999936,
      "d": 324.32300000000396,
      "v": 62
    },
    {
      "midi": 65,
      "hit": false,
      "t": 142702.11999999936,
      "d": 324.32300000000396,
      "v": 62
    },
    {
      "midi": 89,
      "hit": false,
      "t": 142702.1199999997,
      "d": 324.32300000000396,
      "v": 85
    },
    {
      "midi": 86,
      "hit": false,
      "t": 142702.1199999997,
      "d": 432.43066666668165,
      "v": 89
    },
    {
      "midi": 82,
      "hit": false,
      "t": 143026.4429999997,
      "d": 324.32300000000396,
      "v": 82
    },
    {
      "midi": 79,
      "hit": false,
      "t": 143026.4429999997,
      "d": 432.43066666668165,
      "v": 82
    },
    {
      "midi": 55,
      "hit": false,
      "t": 143350.76599999936,
      "d": 216.21533333332627,
      "v": 63
    },
    {
      "midi": 58,
      "hit": false,
      "t": 143350.76599999936,
      "d": 216.21533333332627,
      "v": 63
    },
    {
      "midi": 62,
      "hit": false,
      "t": 143350.76599999936,
      "d": 216.21533333332627,
      "v": 63
    },
    {
      "midi": 65,
      "hit": false,
      "t": 143350.76599999936,
      "d": 216.21533333332627,
      "v": 63
    },
    {
      "midi": 85,
      "hit": false,
      "t": 143350.7659999997,
      "d": 324.32300000000396,
      "v": 72
    },
    {
      "midi": 88,
      "hit": false,
      "t": 143350.7659999997,
      "d": 324.32300000000396,
      "v": 89
    },
    {
      "midi": 54,
      "hit": false,
      "t": 143675.08899999937,
      "d": 324.32300000000396,
      "v": 62
    },
    {
      "midi": 57,
      "hit": false,
      "t": 143675.08899999937,
      "d": 324.32300000000396,
      "v": 62
    },
    {
      "midi": 60,
      "hit": false,
      "t": 143675.08899999937,
      "d": 324.32300000000396,
      "v": 62
    },
    {
      "midi": 63,
      "hit": false,
      "t": 143675.08899999937,
      "d": 324.32300000000396,
      "v": 62
    },
    {
      "midi": 78,
      "hit": false,
      "t": 143675.08899999972,
      "d": 324.32300000000396,
      "v": 49
    },
    {
      "midi": 81,
      "hit": false,
      "t": 143675.08899999972,
      "d": 324.32300000000396,
      "v": 80
    },
    {
      "midi": 84,
      "hit": false,
      "t": 143999.41199999972,
      "d": 324.32300000000396,
      "v": 84
    },
    {
      "midi": 87,
      "hit": false,
      "t": 143999.41199999972,
      "d": 324.32300000000396,
      "v": 84
    },
    {
      "midi": 54,
      "hit": false,
      "t": 144323.73499999937,
      "d": 216.21533333332627,
      "v": 62
    },
    {
      "midi": 57,
      "hit": false,
      "t": 144323.73499999937,
      "d": 216.21533333332627,
      "v": 62
    },
    {
      "midi": 60,
      "hit": false,
      "t": 144323.73499999937,
      "d": 216.21533333332627,
      "v": 62
    },
    {
      "midi": 63,
      "hit": false,
      "t": 144323.73499999937,
      "d": 216.21533333332627,
      "v": 62
    },
    {
      "midi": 77,
      "hit": false,
      "t": 144323.73499999972,
      "d": 324.32300000000396,
      "v": 90
    },
    {
      "midi": 80,
      "hit": false,
      "t": 144323.73499999972,
      "d": 432.43066666668165,
      "v": 90
    },
    {
      "midi": 52,
      "hit": false,
      "t": 144648.05799999938,
      "d": 648.6460000000079,
      "v": 62
    },
    {
      "midi": 59,
      "hit": false,
      "t": 144648.05799999938,
      "d": 648.6460000000079,
      "v": 62
    },
    {
      "midi": 55,
      "hit": false,
      "t": 144648.05799999938,
      "d": 756.7536666666856,
      "v": 62
    },
    {
      "midi": 62,
      "hit": false,
      "t": 144648.05799999938,
      "d": 756.7536666666856,
      "v": 62
    },
    {
      "midi": 83,
      "hit": false,
      "t": 144648.05799999973,
      "d": 324.32300000000396,
      "v": 88
    },
    {
      "midi": 86,
      "hit": false,
      "t": 144648.05799999973,
      "d": 324.32300000000396,
      "v": 88
    },
    {
      "midi": 76,
      "hit": false,
      "t": 144972.38099999973,
      "d": 324.32300000000396,
      "v": 80
    },
    {
      "midi": 79,
      "hit": false,
      "t": 144972.38099999973,
      "d": 324.32300000000396,
      "v": 80
    },
    {
      "midi": 82,
      "hit": false,
      "t": 145296.70399999974,
      "d": 324.32300000000396,
      "v": 82
    },
    {
      "midi": 85,
      "hit": false,
      "t": 145296.70399999974,
      "d": 324.32300000000396,
      "v": 82
    },
    {
      "midi": 56,
      "hit": false,
      "t": 145621.0269999994,
      "d": 540.5383333333302,
      "v": 64
    },
    {
      "midi": 60,
      "hit": false,
      "t": 145621.0269999994,
      "d": 540.5383333333302,
      "v": 64
    },
    {
      "midi": 63,
      "hit": false,
      "t": 145621.0269999994,
      "d": 540.5383333333302,
      "v": 64
    },
    {
      "midi": 66,
      "hit": false,
      "t": 145621.0269999994,
      "d": 540.5383333333302,
      "v": 64
    },
    {
      "midi": 75,
      "hit": false,
      "t": 145621.02699999974,
      "d": 324.32300000000396,
      "v": 57
    },
    {
      "midi": 78,
      "hit": false,
      "t": 145621.02699999974,
      "d": 324.32300000000396,
      "v": 72
    },
    {
      "midi": 80,
      "hit": false,
      "t": 145945.34999999974,
      "d": 324.32300000000396,
      "v": 72
    },
    {
      "midi": 84,
      "hit": false,
      "t": 145945.34999999974,
      "d": 324.32300000000396,
      "v": 85
    },
    {
      "midi": 74,
      "hit": false,
      "t": 146269.67299999975,
      "d": 216.21533333332627,
      "v": 59
    },
    {
      "midi": 77,
      "hit": false,
      "t": 146269.67299999975,
      "d": 216.21533333332627,
      "v": 76
    },
    {
      "midi": 50,
      "hit": false,
      "t": 146593.99599999937,
      "d": 756.7536666666565,
      "v": 64
    },
    {
      "midi": 53,
      "hit": false,
      "t": 146593.99599999937,
      "d": 756.7536666666565,
      "v": 64
    },
    {
      "midi": 57,
      "hit": false,
      "t": 146593.99599999937,
      "d": 756.7536666666565,
      "v": 64
    },
    {
      "midi": 60,
      "hit": false,
      "t": 146593.99599999937,
      "d": 756.7536666666565,
      "v": 64
    },
    {
      "midi": 81,
      "hit": false,
      "t": 146593.99599999975,
      "d": 324.32300000000396,
      "v": 85
    },
    {
      "midi": 84,
      "hit": false,
      "t": 146593.99599999975,
      "d": 324.32300000000396,
      "v": 89
    },
    {
      "midi": 77,
      "hit": false,
      "t": 146918.31899999976,
      "d": 108.10766666667769,
      "v": 62
    },
    {
      "midi": 74,
      "hit": false,
      "t": 146918.31899999976,
      "d": 324.32300000000396,
      "v": 59
    },
    {
      "midi": 79,
      "hit": false,
      "t": 147242.64199999976,
      "d": 216.21533333332627,
      "v": 76
    },
    {
      "midi": 82,
      "hit": false,
      "t": 147242.64199999976,
      "d": 216.21533333332627,
      "v": 72
    },
    {
      "midi": 62,
      "hit": false,
      "t": 147566.96499999936,
      "d": 648.6460000000079,
      "v": 61
    },
    {
      "midi": 55,
      "hit": false,
      "t": 147566.96499999936,
      "d": 756.7536666666856,
      "v": 61
    },
    {
      "midi": 60,
      "hit": false,
      "t": 147566.96499999936,
      "d": 756.7536666666856,
      "v": 61
    },
    {
      "midi": 72,
      "hit": false,
      "t": 147566.96499999976,
      "d": 108.10766666667769,
      "v": 80
    },
    {
      "midi": 74,
      "hit": false,
      "t": 147566.96499999976,
      "d": 324.32300000000396,
      "v": 68
    },
    {
      "midi": 77,
      "hit": false,
      "t": 147891.28799999977,
      "d": 324.32300000000396,
      "v": 85
    },
    {
      "midi": 81,
      "hit": false,
      "t": 147891.28799999977,
      "d": 324.32300000000396,
      "v": 85
    },
    {
      "midi": 75,
      "hit": false,
      "t": 148215.61099999977,
      "d": 216.21533333332627,
      "v": 72
    },
    {
      "midi": 79,
      "hit": false,
      "t": 148215.61099999977,
      "d": 216.21533333332627,
      "v": 85
    },
    {
      "midi": 57,
      "hit": false,
      "t": 148539.93399999937,
      "d": 756.7536666666565,
      "v": 61
    },
    {
      "midi": 62,
      "hit": false,
      "t": 148539.93399999937,
      "d": 756.7536666666565,
      "v": 61
    },
    {
      "midi": 60,
      "hit": false,
      "t": 148539.93399999937,
      "d": 972.9689999999828,
      "v": 61
    },
    {
      "midi": 72,
      "hit": false,
      "t": 148539.93399999978,
      "d": 324.32300000000396,
      "v": 76
    },
    {
      "midi": 74,
      "hit": false,
      "t": 148539.93399999978,
      "d": 324.32300000000396,
      "v": 70
    },
    {
      "midi": 76,
      "hit": false,
      "t": 148864.25699999978,
      "d": 324.32300000000396,
      "v": 81
    },
    {
      "midi": 79,
      "hit": false,
      "t": 148864.25699999978,
      "d": 324.32300000000396,
      "v": 81
    },
    {
      "midi": 74,
      "hit": false,
      "t": 149188.57999999978,
      "d": 108.10766666667769,
      "v": 56
    },
    {
      "midi": 77,
      "hit": false,
      "t": 149188.57999999978,
      "d": 108.10766666667769,
      "v": 68
    },
    {
      "midi": 55,
      "hit": false,
      "t": 149512.90299999935,
      "d": 432.43066666665254,
      "v": 62
    },
    {
      "midi": 59,
      "hit": false,
      "t": 149512.90299999935,
      "d": 432.43066666665254,
      "v": 62
    },
    {
      "midi": 67,
      "hit": false,
      "t": 149512.9029999998,
      "d": 324.32300000000396,
      "v": 76
    },
    {
      "midi": 72,
      "hit": false,
      "t": 149837.2259999998,
      "d": 216.21533333332627,
      "v": 80
    },
    {
      "midi": 75,
      "hit": false,
      "t": 149837.2259999998,
      "d": 216.21533333332627,
      "v": 80
    },
    {
      "midi": 63,
      "hit": false,
      "t": 149837.2259999998,
      "d": 324.32300000000396,
      "v": 80
    },
    {
      "midi": 71,
      "hit": false,
      "t": 150161.5489999998,
      "d": 108.10766666667769,
      "v": 80
    },
    {
      "midi": 74,
      "hit": false,
      "t": 150161.5489999998,
      "d": 108.10766666667769,
      "v": 68
    },
    {
      "midi": 62,
      "hit": false,
      "t": 150161.5489999998,
      "d": 216.21533333335537,
      "v": 55
    },
    {
      "midi": 70,
      "hit": false,
      "t": 150485.8719999998,
      "d": 108.10766666667769,
      "v": 59
    },
    {
      "midi": 63,
      "hit": false,
      "t": 150485.8719999998,
      "d": 216.21533333335537,
      "v": 55
    },
    {
      "midi": 72,
      "hit": false,
      "t": 150485.8719999998,
      "d": 216.21533333335537,
      "v": 59
    },
    {
      "midi": 75,
      "hit": false,
      "t": 150485.8719999998,
      "d": 324.32300000003306,
      "v": 89
    },
    {
      "midi": 70,
      "hit": false,
      "t": 150810.19499999983,
      "d": 108.10766666667769,
      "v": 72
    },
    {
      "midi": 72,
      "hit": false,
      "t": 150810.19499999983,
      "d": 108.10766666667769,
      "v": 72
    },
    {
      "midi": 65,
      "hit": false,
      "t": 150810.19499999983,
      "d": 216.21533333335537,
      "v": 55
    },
    {
      "midi": 77,
      "hit": false,
      "t": 150810.19499999983,
      "d": 432.43066666668165,
      "v": 89
    },
    {
      "midi": 75,
      "hit": false,
      "t": 151134.51799999984,
      "d": 108.10766666667769,
      "v": 80
    },
    {
      "midi": 70,
      "hit": false,
      "t": 151134.51799999984,
      "d": 216.21533333335537,
      "v": 80
    },
    {
      "midi": 72,
      "hit": false,
      "t": 151134.51799999984,
      "d": 216.21533333335537,
      "v": 80
    },
    {
      "midi": 63,
      "hit": false,
      "t": 151134.51799999984,
      "d": 324.32300000000396,
      "v": 80
    },
    {
      "midi": 62,
      "hit": false,
      "t": 151783.16399999984,
      "d": 216.21533333332627,
      "v": 80
    },
    {
      "midi": 63,
      "hit": false,
      "t": 151783.16399999984,
      "d": 216.21533333332627,
      "v": 80
    },
    {
      "midi": 66,
      "hit": false,
      "t": 151783.16399999984,
      "d": 216.21533333332627,
      "v": 80
    },
    {
      "midi": 69,
      "hit": false,
      "t": 151783.16399999984,
      "d": 216.21533333332627,
      "v": 80
    },
    {
      "midi": 74,
      "hit": false,
      "t": 151783.16399999984,
      "d": 324.32300000000396,
      "v": 80
    },
    {
      "midi": 63,
      "hit": false,
      "t": 152107.48699999985,
      "d": 216.21533333332627,
      "v": 73
    },
    {
      "midi": 66,
      "hit": false,
      "t": 152107.48699999985,
      "d": 216.21533333332627,
      "v": 73
    },
    {
      "midi": 69,
      "hit": false,
      "t": 152107.48699999985,
      "d": 216.21533333332627,
      "v": 73
    },
    {
      "midi": 60,
      "hit": false,
      "t": 152107.48699999985,
      "d": 243.24224999998114,
      "v": 73
    },
    {
      "midi": 72,
      "hit": false,
      "t": 152107.48699999985,
      "d": 243.24224999998114,
      "v": 73
    },
    {
      "midi": 60,
      "hit": false,
      "t": 152756.13299999983,
      "d": 216.21533333332627,
      "v": 80
    },
    {
      "midi": 62,
      "hit": false,
      "t": 152756.13299999983,
      "d": 216.21533333332627,
      "v": 80
    },
    {
      "midi": 65,
      "hit": false,
      "t": 152756.13299999983,
      "d": 216.21533333332627,
      "v": 80
    },
    {
      "midi": 67,
      "hit": false,
      "t": 152756.13299999983,
      "d": 216.21533333332627,
      "v": 80
    },
    {
      "midi": 72,
      "hit": false,
      "t": 152756.13299999983,
      "d": 243.24224999998114,
      "v": 80
    },
    {
      "midi": 58,
      "hit": false,
      "t": 153080.4559999998,
      "d": 216.21533333332627,
      "v": 72
    },
    {
      "midi": 62,
      "hit": false,
      "t": 153080.4559999998,
      "d": 216.21533333332627,
      "v": 72
    },
    {
      "midi": 65,
      "hit": false,
      "t": 153080.4559999998,
      "d": 216.21533333332627,
      "v": 72
    },
    {
      "midi": 67,
      "hit": false,
      "t": 153080.4559999998,
      "d": 216.21533333332627,
      "v": 72
    },
    {
      "midi": 70,
      "hit": false,
      "t": 153080.4559999998,
      "d": 216.21533333332627,
      "v": 72
    },
    {
      "midi": 67,
      "hit": false,
      "t": 153729.1019999998,
      "d": 108.10766666667769,
      "v": 77
    },
    {
      "midi": 69,
      "hit": false,
      "t": 153729.1019999998,
      "d": 216.21533333335537,
      "v": 77
    },
    {
      "midi": 72,
      "hit": false,
      "t": 153729.1019999998,
      "d": 216.21533333335537,
      "v": 77
    },
    {
      "midi": 75,
      "hit": false,
      "t": 153729.1019999998,
      "d": 216.21533333335537,
      "v": 77
    },
    {
      "midi": 79,
      "hit": false,
      "t": 153729.1019999998,
      "d": 243.24225000001024,
      "v": 77
    },
    {
      "midi": 78,
      "hit": false,
      "t": 154053.4249999998,
      "d": 108.10766666664858,
      "v": 72
    },
    {
      "midi": 66,
      "hit": false,
      "t": 154053.4249999998,
      "d": 216.21533333332627,
      "v": 72
    },
    {
      "midi": 69,
      "hit": false,
      "t": 154053.4249999998,
      "d": 216.21533333332627,
      "v": 72
    },
    {
      "midi": 72,
      "hit": false,
      "t": 154053.4249999998,
      "d": 216.21533333332627,
      "v": 72
    },
    {
      "midi": 75,
      "hit": false,
      "t": 154053.4249999998,
      "d": 216.21533333332627,
      "v": 72
    },
    {
      "midi": 57,
      "hit": false,
      "t": 154377.74799999932,
      "d": 648.6460000000079,
      "v": 69
    },
    {
      "midi": 60,
      "hit": false,
      "t": 154377.74799999932,
      "d": 648.6460000000079,
      "v": 69
    },
    {
      "midi": 63,
      "hit": false,
      "t": 154377.74799999932,
      "d": 648.6460000000079,
      "v": 69
    },
    {
      "midi": 65,
      "hit": false,
      "t": 154377.74799999932,
      "d": 648.6460000000079,
      "v": 69
    },
    {
      "midi": 69,
      "hit": false,
      "t": 154377.7479999998,
      "d": 648.6459999999788,
      "v": 71
    },
    {
      "midi": 72,
      "hit": false,
      "t": 154377.7479999998,
      "d": 648.6459999999788,
      "v": 71
    },
    {
      "midi": 75,
      "hit": false,
      "t": 154377.7479999998,
      "d": 648.6459999999788,
      "v": 71
    },
    {
      "midi": 77,
      "hit": false,
      "t": 154377.7479999998,
      "d": 648.6459999999788,
      "v": 71
    },
    {
      "midi": 56,
      "hit": false,
      "t": 155026.39399999933,
      "d": 648.6460000000079,
      "v": 69
    },
    {
      "midi": 59,
      "hit": false,
      "t": 155026.39399999933,
      "d": 648.6460000000079,
      "v": 69
    },
    {
      "midi": 62,
      "hit": false,
      "t": 155026.39399999933,
      "d": 648.6460000000079,
      "v": 69
    },
    {
      "midi": 67,
      "hit": false,
      "t": 155026.39399999933,
      "d": 648.6460000000079,
      "v": 69
    },
    {
      "midi": 68,
      "hit": false,
      "t": 155026.39399999977,
      "d": 648.6459999999788,
      "v": 76
    },
    {
      "midi": 71,
      "hit": false,
      "t": 155026.39399999977,
      "d": 648.6459999999788,
      "v": 76
    },
    {
      "midi": 74,
      "hit": false,
      "t": 155026.39399999977,
      "d": 648.6459999999788,
      "v": 76
    },
    {
      "midi": 79,
      "hit": false,
      "t": 155026.39399999977,
      "d": 648.6459999999788,
      "v": 76
    },
    {
      "midi": 62,
      "hit": false,
      "t": 155675.03999999975,
      "d": 324.32300000000396,
      "v": 70
    },
    {
      "midi": 65,
      "hit": false,
      "t": 155675.03999999975,
      "d": 324.32300000000396,
      "v": 70
    },
    {
      "midi": 65,
      "hit": false,
      "t": 155891.25533333267,
      "d": 324.32300000000396,
      "v": 69
    },
    {
      "midi": 67,
      "hit": false,
      "t": 155891.25533333307,
      "d": 108.10766666667769,
      "v": 74
    },
    {
      "midi": 70,
      "hit": false,
      "t": 155891.25533333307,
      "d": 108.10766666667769,
      "v": 74
    },
    {
      "midi": 74,
      "hit": false,
      "t": 155891.25533333307,
      "d": 324.32300000003306,
      "v": 74
    },
    {
      "midi": 77,
      "hit": false,
      "t": 155891.25533333307,
      "d": 324.32300000003306,
      "v": 74
    },
    {
      "midi": 55,
      "hit": false,
      "t": 156107.470666666,
      "d": 108.10766666667769,
      "v": 73
    },
    {
      "midi": 58,
      "hit": false,
      "t": 156107.470666666,
      "d": 108.10766666667769,
      "v": 73
    },
    {
      "midi": 64,
      "hit": false,
      "t": 156107.470666666,
      "d": 324.32300000003306,
      "v": 73
    },
    {
      "midi": 67,
      "hit": false,
      "t": 156107.47066666643,
      "d": 108.10766666667769,
      "v": 72
    },
    {
      "midi": 70,
      "hit": false,
      "t": 156107.47066666643,
      "d": 108.10766666667769,
      "v": 72
    },
    {
      "midi": 76,
      "hit": false,
      "t": 156107.47066666643,
      "d": 324.32300000000396,
      "v": 72
    },
    {
      "midi": 58,
      "hit": false,
      "t": 156323.68599999935,
      "d": 108.10766666667769,
      "v": 72
    },
    {
      "midi": 54,
      "hit": false,
      "t": 156323.68599999935,
      "d": 648.6460000000079,
      "v": 72
    },
    {
      "midi": 63,
      "hit": false,
      "t": 156323.68599999935,
      "d": 648.6460000000079,
      "v": 72
    },
    {
      "midi": 70,
      "hit": false,
      "t": 156323.68599999975,
      "d": 108.10766666667769,
      "v": 76
    },
    {
      "midi": 66,
      "hit": false,
      "t": 156323.68599999975,
      "d": 648.6460000000079,
      "v": 76
    },
    {
      "midi": 72,
      "hit": false,
      "t": 156323.68599999975,
      "d": 648.6460000000079,
      "v": 76
    },
    {
      "midi": 75,
      "hit": false,
      "t": 156323.68599999975,
      "d": 648.6460000000079,
      "v": 76
    },
    {
      "midi": 53,
      "hit": false,
      "t": 156972.33199999935,
      "d": 216.21533333332627,
      "v": 65
    },
    {
      "midi": 58,
      "hit": false,
      "t": 156972.33199999935,
      "d": 216.21533333332627,
      "v": 65
    },
    {
      "midi": 62,
      "hit": false,
      "t": 156972.33199999935,
      "d": 216.21533333332627,
      "v": 65
    },
    {
      "midi": 69,
      "hit": false,
      "t": 156972.33199999976,
      "d": 216.21533333332627,
      "v": 72
    },
    {
      "midi": 70,
      "hit": false,
      "t": 156972.33199999976,
      "d": 216.21533333332627,
      "v": 72
    },
    {
      "midi": 74,
      "hit": false,
      "t": 156972.33199999976,
      "d": 216.21533333332627,
      "v": 72
    },
    {
      "midi": 57,
      "hit": false,
      "t": 157188.54733333268,
      "d": 216.21533333332627,
      "v": 64
    },
    {
      "midi": 62,
      "hit": false,
      "t": 157188.54733333268,
      "d": 216.21533333332627,
      "v": 64
    },
    {
      "midi": 65,
      "hit": false,
      "t": 157188.54733333268,
      "d": 216.21533333332627,
      "v": 64
    },
    {
      "midi": 62,
      "hit": false,
      "t": 157404.762666666,
      "d": 216.21533333332627,
      "v": 65
    },
    {
      "midi": 65,
      "hit": false,
      "t": 157404.762666666,
      "d": 216.21533333332627,
      "v": 65
    },
    {
      "midi": 69,
      "hit": false,
      "t": 157404.762666666,
      "d": 216.21533333332627,
      "v": 65
    },
    {
      "midi": 74,
      "hit": false,
      "t": 157404.76266666644,
      "d": 108.10766666667769,
      "v": 75
    },
    {
      "midi": 77,
      "hit": false,
      "t": 157404.76266666644,
      "d": 108.10766666667769,
      "v": 75
    },
    {
      "midi": 70,
      "hit": false,
      "t": 157404.76266666644,
      "d": 324.32300000000396,
      "v": 75
    },
    {
      "midi": 62,
      "hit": false,
      "t": 157620.97799999933,
      "d": 216.21533333332627,
      "v": 66
    },
    {
      "midi": 65,
      "hit": false,
      "t": 157620.97799999933,
      "d": 216.21533333332627,
      "v": 66
    },
    {
      "midi": 72,
      "hit": false,
      "t": 157620.97799999933,
      "d": 216.21533333332627,
      "v": 66
    },
    {
      "midi": 74,
      "hit": false,
      "t": 157620.97799999977,
      "d": 108.10766666667769,
      "v": 79
    },
    {
      "midi": 77,
      "hit": false,
      "t": 157620.97799999977,
      "d": 108.10766666667769,
      "v": 79
    },
    {
      "midi": 81,
      "hit": false,
      "t": 157620.97799999977,
      "d": 108.10766666667769,
      "v": 79
    },
    {
      "midi": 84,
      "hit": false,
      "t": 157620.97799999977,
      "d": 324.32300000000396,
      "v": 79
    },
    {
      "midi": 62,
      "hit": false,
      "t": 157945.30099999934,
      "d": 216.21533333332627,
      "v": 67
    },
    {
      "midi": 65,
      "hit": false,
      "t": 157945.30099999934,
      "d": 216.21533333332627,
      "v": 67
    },
    {
      "midi": 67,
      "hit": false,
      "t": 157945.30099999934,
      "d": 216.21533333332627,
      "v": 67
    },
    {
      "midi": 70,
      "hit": false,
      "t": 157945.30099999934,
      "d": 216.21533333332627,
      "v": 67
    },
    {
      "midi": 74,
      "hit": false,
      "t": 157945.30099999977,
      "d": 324.32300000000396,
      "v": 79
    },
    {
      "midi": 77,
      "hit": false,
      "t": 157945.30099999977,
      "d": 324.32300000000396,
      "v": 79
    },
    {
      "midi": 82,
      "hit": false,
      "t": 157945.30099999977,
      "d": 324.32300000000396,
      "v": 79
    },
    {
      "midi": 58,
      "hit": false,
      "t": 158269.62399999934,
      "d": 216.21533333332627,
      "v": 69
    },
    {
      "midi": 62,
      "hit": false,
      "t": 158269.62399999934,
      "d": 216.21533333332627,
      "v": 69
    },
    {
      "midi": 65,
      "hit": false,
      "t": 158269.62399999934,
      "d": 216.21533333332627,
      "v": 69
    },
    {
      "midi": 69,
      "hit": false,
      "t": 158269.62399999934,
      "d": 216.21533333332627,
      "v": 69
    },
    {
      "midi": 72,
      "hit": false,
      "t": 158269.62399999978,
      "d": 324.32300000000396,
      "v": 78
    },
    {
      "midi": 74,
      "hit": false,
      "t": 158269.62399999978,
      "d": 324.32300000000396,
      "v": 78
    },
    {
      "midi": 81,
      "hit": false,
      "t": 158269.62399999978,
      "d": 378.3768333333137,
      "v": 78
    },
    {
      "midi": 58,
      "hit": false,
      "t": 158593.94699999935,
      "d": 324.32300000000396,
      "v": 65
    },
    {
      "midi": 62,
      "hit": false,
      "t": 158593.94699999935,
      "d": 324.32300000000396,
      "v": 65
    },
    {
      "midi": 67,
      "hit": false,
      "t": 158593.94699999935,
      "d": 324.32300000000396,
      "v": 65
    },
    {
      "midi": 77,
      "hit": false,
      "t": 158593.94699999978,
      "d": 27.02691666665487,
      "v": 79
    },
    {
      "midi": 70,
      "hit": false,
      "t": 158593.94699999978,
      "d": 324.32299999997485,
      "v": 79
    },
    {
      "midi": 74,
      "hit": false,
      "t": 158593.94699999978,
      "d": 324.32299999997485,
      "v": 79
    },
    {
      "midi": 79,
      "hit": false,
      "t": 158593.94699999978,
      "d": 324.32299999997485,
      "v": 79
    },
    {
      "midi": 65,
      "hit": false,
      "t": 158918.26999999935,
      "d": 2.702691666665487,
      "v": 62
    },
    {
      "midi": 57,
      "hit": false,
      "t": 158918.26999999935,
      "d": 324.32300000000396,
      "v": 62
    },
    {
      "midi": 62,
      "hit": false,
      "t": 158918.26999999935,
      "d": 324.32300000000396,
      "v": 62
    },
    {
      "midi": 67,
      "hit": false,
      "t": 158918.26999999935,
      "d": 324.32300000000396,
      "v": 62
    },
    {
      "midi": 69,
      "hit": false,
      "t": 158918.26999999976,
      "d": 324.32300000000396,
      "v": 77
    },
    {
      "midi": 74,
      "hit": false,
      "t": 158918.26999999976,
      "d": 324.32300000000396,
      "v": 77
    },
    {
      "midi": 77,
      "hit": false,
      "t": 158918.26999999976,
      "d": 324.32300000000396,
      "v": 77
    },
    {
      "midi": 79,
      "hit": false,
      "t": 158918.26999999976,
      "d": 324.32300000000396,
      "v": 77
    },
    {
      "midi": 67,
      "hit": false,
      "t": 159242.59299999935,
      "d": 324.32300000000396,
      "v": 62
    },
    {
      "midi": 69,
      "hit": false,
      "t": 159242.59299999976,
      "d": 324.32300000000396,
      "v": 74
    },
    {
      "midi": 79,
      "hit": false,
      "t": 159242.59299999976,
      "d": 324.32300000000396,
      "v": 74
    },
    {
      "midi": 57,
      "hit": false,
      "t": 159485.83524999936,
      "d": 81.08074999999371,
      "v": 62
    },
    {
      "midi": 61,
      "hit": false,
      "t": 159485.83524999936,
      "d": 81.08074999999371,
      "v": 62
    },
    {
      "midi": 64,
      "hit": false,
      "t": 159485.83524999936,
      "d": 81.08074999999371,
      "v": 62
    },
    {
      "midi": 55,
      "hit": false,
      "t": 159485.83524999936,
      "d": 216.21533333332627,
      "v": 62
    },
    {
      "midi": 69,
      "hit": false,
      "t": 159485.83524999936,
      "d": 216.21533333332627,
      "v": 62
    },
    {
      "midi": 73,
      "hit": false,
      "t": 159485.83524999977,
      "d": 81.08074999999371,
      "v": 71
    },
    {
      "midi": 76,
      "hit": false,
      "t": 159485.83524999977,
      "d": 81.08074999999371,
      "v": 71
    },
    {
      "midi": 81,
      "hit": false,
      "t": 159485.83524999977,
      "d": 216.21533333332627,
      "v": 71
    },
    {
      "midi": 55,
      "hit": false,
      "t": 159810.15824999937,
      "d": 324.32300000000396,
      "v": 60
    },
    {
      "midi": 57,
      "hit": false,
      "t": 159810.15824999937,
      "d": 324.32300000000396,
      "v": 60
    },
    {
      "midi": 61,
      "hit": false,
      "t": 159810.15824999937,
      "d": 324.32300000000396,
      "v": 60
    },
    {
      "midi": 64,
      "hit": false,
      "t": 159810.15824999937,
      "d": 324.32300000000396,
      "v": 60
    },
    {
      "midi": 67,
      "hit": false,
      "t": 159810.15824999937,
      "d": 324.32300000000396,
      "v": 60
    },
    {
      "midi": 67,
      "hit": false,
      "t": 159810.15824999977,
      "d": 324.32300000000396,
      "v": 70
    },
    {
      "midi": 73,
      "hit": false,
      "t": 159810.15824999977,
      "d": 324.32300000000396,
      "v": 70
    },
    {
      "midi": 76,
      "hit": false,
      "t": 159810.15824999977,
      "d": 324.32300000000396,
      "v": 70
    },
    {
      "midi": 79,
      "hit": false,
      "t": 159810.15824999977,
      "d": 324.32300000000396,
      "v": 70
    },
    {
      "midi": 54,
      "hit": false,
      "t": 160134.48124999937,
      "d": 135.13458333333256,
      "v": 66
    },
    {
      "midi": 57,
      "hit": false,
      "t": 160134.48124999937,
      "d": 135.13458333333256,
      "v": 66
    },
    {
      "midi": 62,
      "hit": false,
      "t": 160134.48124999937,
      "d": 135.13458333333256,
      "v": 66
    },
    {
      "midi": 72,
      "hit": false,
      "t": 160134.48124999978,
      "d": 108.10766666664858,
      "v": 72
    },
    {
      "midi": 66,
      "hit": false,
      "t": 160134.48124999978,
      "d": 135.13458333330345,
      "v": 72
    },
    {
      "midi": 69,
      "hit": false,
      "t": 160134.48124999978,
      "d": 135.13458333330345,
      "v": 72
    },
    {
      "midi": 78,
      "hit": false,
      "t": 160134.48124999978,
      "d": 135.13458333330345,
      "v": 72
    },
    {
      "midi": 54,
      "hit": false,
      "t": 160458.80424999938,
      "d": 216.21533333332627,
      "v": 66
    },
    {
      "midi": 57,
      "hit": false,
      "t": 160458.80424999938,
      "d": 216.21533333332627,
      "v": 66
    },
    {
      "midi": 60,
      "hit": false,
      "t": 160458.80424999938,
      "d": 216.21533333332627,
      "v": 66
    },
    {
      "midi": 62,
      "hit": false,
      "t": 160458.80424999938,
      "d": 216.21533333332627,
      "v": 66
    },
    {
      "midi": 69,
      "hit": false,
      "t": 160458.80424999975,
      "d": 216.21533333332627,
      "v": 72
    },
    {
      "midi": 72,
      "hit": false,
      "t": 160458.80424999975,
      "d": 216.21533333332627,
      "v": 72
    },
    {
      "midi": 74,
      "hit": false,
      "t": 160458.80424999975,
      "d": 216.21533333332627,
      "v": 72
    },
    {
      "midi": 55,
      "hit": false,
      "t": 160783.12724999938,
      "d": 216.21533333332627,
      "v": 61
    },
    {
      "midi": 59,
      "hit": false,
      "t": 160783.12724999938,
      "d": 216.21533333332627,
      "v": 61
    },
    {
      "midi": 64,
      "hit": false,
      "t": 160783.12724999938,
      "d": 216.21533333332627,
      "v": 61
    },
    {
      "midi": 67,
      "hit": false,
      "t": 160783.12724999938,
      "d": 216.21533333332627,
      "v": 61
    },
    {
      "midi": 71,
      "hit": false,
      "t": 160783.12724999973,
      "d": 216.21533333335537,
      "v": 76
    },
    {
      "midi": 74,
      "hit": false,
      "t": 160783.12724999973,
      "d": 216.21533333335537,
      "v": 76
    },
    {
      "midi": 79,
      "hit": false,
      "t": 160783.12724999973,
      "d": 216.21533333335537,
      "v": 76
    },
    {
      "midi": 53,
      "hit": false,
      "t": 161107.45024999938,
      "d": 189.1884166666714,
      "v": 68
    },
    {
      "midi": 59,
      "hit": false,
      "t": 161107.45024999938,
      "d": 189.1884166666714,
      "v": 68
    },
    {
      "midi": 62,
      "hit": false,
      "t": 161107.45024999938,
      "d": 189.1884166666714,
      "v": 68
    },
    {
      "midi": 65,
      "hit": false,
      "t": 161107.45024999938,
      "d": 189.1884166666714,
      "v": 68
    },
    {
      "midi": 71,
      "hit": false,
      "t": 161107.45024999976,
      "d": 216.21533333335537,
      "v": 76
    },
    {
      "midi": 74,
      "hit": false,
      "t": 161107.45024999976,
      "d": 216.21533333335537,
      "v": 76
    },
    {
      "midi": 77,
      "hit": false,
      "t": 161107.45024999976,
      "d": 216.21533333335537,
      "v": 76
    },
    {
      "midi": 60,
      "hit": false,
      "t": 161431.7732499994,
      "d": 108.10766666667769,
      "v": 67
    },
    {
      "midi": 63,
      "hit": false,
      "t": 161431.7732499994,
      "d": 108.10766666667769,
      "v": 67
    },
    {
      "midi": 51,
      "hit": false,
      "t": 161431.7732499994,
      "d": 135.13458333333256,
      "v": 67
    },
    {
      "midi": 55,
      "hit": false,
      "t": 161431.7732499994,
      "d": 135.13458333333256,
      "v": 67
    },
    {
      "midi": 72,
      "hit": false,
      "t": 161431.7732499998,
      "d": 135.13458333333256,
      "v": 77
    },
    {
      "midi": 75,
      "hit": false,
      "t": 161431.7732499998,
      "d": 135.13458333333256,
      "v": 77
    },
    {
      "midi": 54,
      "hit": false,
      "t": 161729.0693333327,
      "d": 108.10766666667769,
      "v": 69
    },
    {
      "midi": 58,
      "hit": false,
      "t": 161729.0693333327,
      "d": 108.10766666667769,
      "v": 69
    },
    {
      "midi": 62,
      "hit": false,
      "t": 161729.0693333327,
      "d": 108.10766666667769,
      "v": 69
    },
    {
      "midi": 66,
      "hit": false,
      "t": 161729.0693333327,
      "d": 108.10766666667769,
      "v": 69
    },
    {
      "midi": 70,
      "hit": false,
      "t": 161729.06933333311,
      "d": 108.10766666667769,
      "v": 76
    },
    {
      "midi": 74,
      "hit": false,
      "t": 161729.06933333311,
      "d": 108.10766666667769,
      "v": 76
    },
    {
      "midi": 68,
      "hit": false,
      "t": 161837.1769999998,
      "d": 108.10766666664858,
      "v": 75
    },
    {
      "midi": 60,
      "hit": false,
      "t": 161837.1769999998,
      "d": 216.21533333332627,
      "v": 75
    },
    {
      "midi": 72,
      "hit": false,
      "t": 161837.1769999998,
      "d": 216.21533333332627,
      "v": 75
    },
    {
      "midi": 53,
      "hit": false,
      "t": 162050.68964166605,
      "d": 135.13458333333256,
      "v": 67
    },
    {
      "midi": 58,
      "hit": false,
      "t": 162053.3923333327,
      "d": 135.13458333333256,
      "v": 67
    },
    {
      "midi": 62,
      "hit": false,
      "t": 162053.3923333327,
      "d": 135.13458333333256,
      "v": 67
    },
    {
      "midi": 70,
      "hit": false,
      "t": 162053.39233333312,
      "d": 108.10766666664858,
      "v": 76
    },
    {
      "midi": 62,
      "hit": false,
      "t": 162053.39233333312,
      "d": 135.13458333330345,
      "v": 76
    },
    {
      "midi": 74,
      "hit": false,
      "t": 162053.39233333312,
      "d": 135.13458333330345,
      "v": 76
    },
    {
      "midi": 58,
      "hit": false,
      "t": 162377.71533333272,
      "d": 108.10766666667769,
      "v": 65
    },
    {
      "midi": 62,
      "hit": false,
      "t": 162377.71533333272,
      "d": 108.10766666667769,
      "v": 65
    },
    {
      "midi": 67,
      "hit": false,
      "t": 162377.71533333272,
      "d": 108.10766666667769,
      "v": 65
    },
    {
      "midi": 65,
      "hit": false,
      "t": 162377.7153333331,
      "d": 108.10766666667769,
      "v": 78
    },
    {
      "midi": 70,
      "hit": false,
      "t": 162377.7153333331,
      "d": 135.13458333333256,
      "v": 78
    },
    {
      "midi": 74,
      "hit": false,
      "t": 162377.7153333331,
      "d": 135.13458333333256,
      "v": 78
    },
    {
      "midi": 77,
      "hit": false,
      "t": 162377.7153333331,
      "d": 162.16149999998743,
      "v": 78
    },
    {
      "midi": 62,
      "hit": false,
      "t": 162702.03833333272,
      "d": 108.10766666667769,
      "v": 64
    },
    {
      "midi": 69,
      "hit": false,
      "t": 162702.03833333272,
      "d": 108.10766666667769,
      "v": 64
    },
    {
      "midi": 70,
      "hit": false,
      "t": 162702.03833333272,
      "d": 108.10766666667769,
      "v": 64
    },
    {
      "midi": 70,
      "hit": false,
      "t": 162702.0383333331,
      "d": 216.21533333332627,
      "v": 77
    },
    {
      "midi": 74,
      "hit": false,
      "t": 162702.0383333331,
      "d": 216.21533333332627,
      "v": 77
    },
    {
      "midi": 77,
      "hit": false,
      "t": 162702.0383333331,
      "d": 216.21533333332627,
      "v": 77
    },
    {
      "midi": 82,
      "hit": false,
      "t": 162702.0383333331,
      "d": 324.32300000000396,
      "v": 77
    },
    {
      "midi": 58,
      "hit": false,
      "t": 163026.36133333272,
      "d": 297.29608333332,
      "v": 64
    },
    {
      "midi": 62,
      "hit": false,
      "t": 163026.36133333272,
      "d": 297.29608333332,
      "v": 64
    },
    {
      "midi": 65,
      "hit": false,
      "t": 163026.36133333272,
      "d": 297.29608333332,
      "v": 64
    },
    {
      "midi": 69,
      "hit": false,
      "t": 163026.3613333331,
      "d": 297.29608333332,
      "v": 78
    },
    {
      "midi": 70,
      "hit": false,
      "t": 163026.3613333331,
      "d": 297.29608333332,
      "v": 78
    },
    {
      "midi": 74,
      "hit": false,
      "t": 163026.3613333331,
      "d": 297.29608333332,
      "v": 78
    },
    {
      "midi": 77,
      "hit": false,
      "t": 163026.3613333331,
      "d": 297.29608333332,
      "v": 78
    },
    {
      "midi": 64,
      "hit": false,
      "t": 163458.79199999938,
      "d": 108.10766666667769,
      "v": 64
    },
    {
      "midi": 67,
      "hit": false,
      "t": 163458.79199999938,
      "d": 108.10766666667769,
      "v": 64
    },
    {
      "midi": 70,
      "hit": false,
      "t": 163458.79199999938,
      "d": 108.10766666667769,
      "v": 64
    },
    {
      "midi": 74,
      "hit": false,
      "t": 163458.79199999938,
      "d": 108.10766666667769,
      "v": 64
    },
    {
      "midi": 74,
      "hit": false,
      "t": 163458.79199999975,
      "d": 108.10766666667769,
      "v": 78
    },
    {
      "midi": 76,
      "hit": false,
      "t": 163458.79199999975,
      "d": 108.10766666667769,
      "v": 78
    },
    {
      "midi": 79,
      "hit": false,
      "t": 163458.79199999975,
      "d": 108.10766666667769,
      "v": 78
    },
    {
      "midi": 82,
      "hit": false,
      "t": 163458.79199999975,
      "d": 108.10766666667769,
      "v": 78
    },
    {
      "midi": 86,
      "hit": false,
      "t": 163458.79199999975,
      "d": 108.10766666667769,
      "v": 78
    },
    {
      "midi": 64,
      "hit": false,
      "t": 163675.00733333273,
      "d": 108.10766666667769,
      "v": 63
    },
    {
      "midi": 67,
      "hit": false,
      "t": 163675.00733333273,
      "d": 108.10766666667769,
      "v": 63
    },
    {
      "midi": 70,
      "hit": false,
      "t": 163675.00733333273,
      "d": 108.10766666667769,
      "v": 63
    },
    {
      "midi": 76,
      "hit": false,
      "t": 163675.0073333331,
      "d": 108.10766666667769,
      "v": 78
    },
    {
      "midi": 79,
      "hit": false,
      "t": 163675.0073333331,
      "d": 108.10766666667769,
      "v": 78
    },
    {
      "midi": 82,
      "hit": false,
      "t": 163675.0073333331,
      "d": 108.10766666667769,
      "v": 78
    },
    {
      "midi": 86,
      "hit": false,
      "t": 163675.0073333331,
      "d": 108.10766666667769,
      "v": 78
    },
    {
      "midi": 64,
      "hit": false,
      "t": 163783.1149999994,
      "d": 108.10766666667769,
      "v": 65
    },
    {
      "midi": 67,
      "hit": false,
      "t": 163783.1149999994,
      "d": 108.10766666667769,
      "v": 65
    },
    {
      "midi": 70,
      "hit": false,
      "t": 163783.1149999994,
      "d": 108.10766666667769,
      "v": 65
    },
    {
      "midi": 76,
      "hit": false,
      "t": 163783.1149999998,
      "d": 108.10766666667769,
      "v": 77
    },
    {
      "midi": 79,
      "hit": false,
      "t": 163783.1149999998,
      "d": 108.10766666667769,
      "v": 77
    },
    {
      "midi": 82,
      "hit": false,
      "t": 163783.1149999998,
      "d": 108.10766666667769,
      "v": 77
    },
    {
      "midi": 86,
      "hit": false,
      "t": 163783.1149999998,
      "d": 108.10766666667769,
      "v": 77
    },
    {
      "midi": 67,
      "hit": false,
      "t": 163999.33033333276,
      "d": 108.10766666667769,
      "v": 61
    },
    {
      "midi": 70,
      "hit": false,
      "t": 163999.33033333276,
      "d": 108.10766666667769,
      "v": 61
    },
    {
      "midi": 75,
      "hit": false,
      "t": 163999.33033333314,
      "d": 108.10766666664858,
      "v": 76
    },
    {
      "midi": 82,
      "hit": false,
      "t": 163999.33033333314,
      "d": 108.10766666664858,
      "v": 76
    },
    {
      "midi": 86,
      "hit": false,
      "t": 163999.33033333314,
      "d": 108.10766666664858,
      "v": 76
    },
    {
      "midi": 74,
      "hit": false,
      "t": 163999.33033333314,
      "d": 216.21533333332627,
      "v": 76
    },
    {
      "midi": 70,
      "hit": false,
      "t": 164107.43799999944,
      "d": 108.10766666667769,
      "v": 63
    },
    {
      "midi": 63,
      "hit": false,
      "t": 164107.43799999944,
      "d": 216.21533333335537,
      "v": 63
    },
    {
      "midi": 66,
      "hit": false,
      "t": 164107.43799999944,
      "d": 216.21533333335537,
      "v": 63
    },
    {
      "midi": 75,
      "hit": false,
      "t": 164107.4379999998,
      "d": 108.10766666667769,
      "v": 77
    },
    {
      "midi": 79,
      "hit": false,
      "t": 164107.4379999998,
      "d": 108.10766666667769,
      "v": 77
    },
    {
      "midi": 72,
      "hit": false,
      "t": 164107.4379999998,
      "d": 216.21533333335537,
      "v": 77
    },
    {
      "midi": 82,
      "hit": false,
      "t": 164107.4379999998,
      "d": 324.32300000000396,
      "v": 77
    },
    {
      "midi": 63,
      "hit": false,
      "t": 164431.76099999947,
      "d": 216.21533333332627,
      "v": 64
    },
    {
      "midi": 66,
      "hit": false,
      "t": 164431.76099999947,
      "d": 216.21533333332627,
      "v": 64
    },
    {
      "midi": 69,
      "hit": false,
      "t": 164431.76099999947,
      "d": 216.21533333332627,
      "v": 64
    },
    {
      "midi": 72,
      "hit": false,
      "t": 164431.76099999947,
      "d": 216.21533333332627,
      "v": 64
    },
    {
      "midi": 74,
      "hit": false,
      "t": 164431.7609999998,
      "d": 108.10766666667769,
      "v": 78
    },
    {
      "midi": 75,
      "hit": false,
      "t": 164431.7609999998,
      "d": 216.21533333335537,
      "v": 78
    },
    {
      "midi": 78,
      "hit": false,
      "t": 164431.7609999998,
      "d": 216.21533333335537,
      "v": 78
    },
    {
      "midi": 81,
      "hit": false,
      "t": 164431.7609999998,
      "d": 216.21533333335537,
      "v": 78
    },
    {
      "midi": 84,
      "hit": false,
      "t": 164431.7609999998,
      "d": 324.32300000000396,
      "v": 78
    },
    {
      "midi": 62,
      "hit": false,
      "t": 164756.08399999948,
      "d": 108.10766666667769,
      "v": 64
    },
    {
      "midi": 65,
      "hit": false,
      "t": 164756.08399999948,
      "d": 108.10766666667769,
      "v": 64
    },
    {
      "midi": 70,
      "hit": false,
      "t": 164756.08399999948,
      "d": 108.10766666667769,
      "v": 64
    },
    {
      "midi": 74,
      "hit": false,
      "t": 164756.0839999998,
      "d": 108.10766666667769,
      "v": 77
    },
    {
      "midi": 77,
      "hit": false,
      "t": 164756.0839999998,
      "d": 108.10766666667769,
      "v": 77
    },
    {
      "midi": 82,
      "hit": false,
      "t": 164756.0839999998,
      "d": 108.10766666667769,
      "v": 77
    },
    {
      "midi": 86,
      "hit": false,
      "t": 164756.0839999998,
      "d": 216.21533333332627,
      "v": 77
    },
    {
      "midi": 58,
      "hit": false,
      "t": 165080.40699999948,
      "d": 108.10766666667769,
      "v": 63
    },
    {
      "midi": 62,
      "hit": false,
      "t": 165080.40699999948,
      "d": 108.10766666667769,
      "v": 63
    },
    {
      "midi": 65,
      "hit": false,
      "t": 165080.40699999948,
      "d": 108.10766666667769,
      "v": 63
    },
    {
      "midi": 70,
      "hit": false,
      "t": 165080.4069999998,
      "d": 108.10766666667769,
      "v": 78
    },
    {
      "midi": 74,
      "hit": false,
      "t": 165080.4069999998,
      "d": 108.10766666667769,
      "v": 78
    },
    {
      "midi": 77,
      "hit": false,
      "t": 165080.4069999998,
      "d": 216.21533333332627,
      "v": 78
    },
    {
      "midi": 62,
      "hit": false,
      "t": 165296.62233333284,
      "d": 540.5383333333302,
      "v": 61
    },
    {
      "midi": 66,
      "hit": false,
      "t": 165296.62233333284,
      "d": 540.5383333333302,
      "v": 61
    },
    {
      "midi": 58,
      "hit": false,
      "t": 165296.62233333284,
      "d": 648.6460000000079,
      "v": 61
    },
    {
      "midi": 78,
      "hit": false,
      "t": 165296.62233333313,
      "d": 324.32300000000396,
      "v": 79
    },
    {
      "midi": 70,
      "hit": false,
      "t": 165296.62233333313,
      "d": 540.5383333333302,
      "v": 79
    },
    {
      "midi": 74,
      "hit": false,
      "t": 165296.62233333313,
      "d": 540.5383333333302,
      "v": 79
    },
    {
      "midi": 62,
      "hit": false,
      "t": 165945.26833333285,
      "d": 108.10766666667769,
      "v": 61
    },
    {
      "midi": 66,
      "hit": false,
      "t": 165945.26833333285,
      "d": 108.10766666667769,
      "v": 61
    },
    {
      "midi": 70,
      "hit": false,
      "t": 165945.26833333314,
      "d": 108.10766666667769,
      "v": 78
    },
    {
      "midi": 74,
      "hit": false,
      "t": 165945.26833333314,
      "d": 108.10766666667769,
      "v": 78
    },
    {
      "midi": 78,
      "hit": false,
      "t": 165945.26833333314,
      "d": 108.10766666667769,
      "v": 78
    },
    {
      "midi": 58,
      "hit": false,
      "t": 166053.37599999952,
      "d": 216.21533333332627,
      "v": 63
    },
    {
      "midi": 62,
      "hit": false,
      "t": 166053.37599999952,
      "d": 216.21533333332627,
      "v": 63
    },
    {
      "midi": 67,
      "hit": false,
      "t": 166053.37599999952,
      "d": 216.21533333332627,
      "v": 63
    },
    {
      "midi": 70,
      "hit": false,
      "t": 166053.37599999981,
      "d": 216.21533333332627,
      "v": 76
    },
    {
      "midi": 74,
      "hit": false,
      "t": 166053.37599999981,
      "d": 216.21533333332627,
      "v": 76
    },
    {
      "midi": 79,
      "hit": false,
      "t": 166053.37599999981,
      "d": 216.21533333332627,
      "v": 76
    },
    {
      "midi": 58,
      "hit": false,
      "t": 166377.69899999953,
      "d": 108.10766666667769,
      "v": 61
    },
    {
      "midi": 62,
      "hit": false,
      "t": 166377.69899999953,
      "d": 108.10766666667769,
      "v": 61
    },
    {
      "midi": 67,
      "hit": false,
      "t": 166377.69899999953,
      "d": 108.10766666667769,
      "v": 61
    },
    {
      "midi": 70,
      "hit": false,
      "t": 166377.69899999982,
      "d": 108.10766666664858,
      "v": 74
    },
    {
      "midi": 74,
      "hit": false,
      "t": 166377.69899999982,
      "d": 108.10766666664858,
      "v": 74
    },
    {
      "midi": 79,
      "hit": false,
      "t": 166377.69899999982,
      "d": 216.21533333332627,
      "v": 74
    },
    {
      "midi": 58,
      "hit": false,
      "t": 166593.91433333288,
      "d": 540.5383333333302,
      "v": 64
    },
    {
      "midi": 62,
      "hit": false,
      "t": 166593.91433333288,
      "d": 540.5383333333302,
      "v": 64
    },
    {
      "midi": 68,
      "hit": false,
      "t": 166593.91433333288,
      "d": 540.5383333333302,
      "v": 64
    },
    {
      "midi": 70,
      "hit": false,
      "t": 166593.91433333314,
      "d": 432.43066666665254,
      "v": 78
    },
    {
      "midi": 74,
      "hit": false,
      "t": 166593.91433333314,
      "d": 432.43066666665254,
      "v": 78
    },
    {
      "midi": 77,
      "hit": false,
      "t": 166593.91433333314,
      "d": 432.43066666665254,
      "v": 78
    },
    {
      "midi": 80,
      "hit": false,
      "t": 166593.91433333314,
      "d": 432.43066666665254,
      "v": 78
    },
    {
      "midi": 58,
      "hit": false,
      "t": 167242.5603333329,
      "d": 108.10766666667769,
      "v": 65
    },
    {
      "midi": 62,
      "hit": false,
      "t": 167242.5603333329,
      "d": 108.10766666667769,
      "v": 65
    },
    {
      "midi": 68,
      "hit": false,
      "t": 167242.56033333312,
      "d": 108.10766666667769,
      "v": 80
    },
    {
      "midi": 80,
      "hit": false,
      "t": 167242.56033333312,
      "d": 216.21533333332627,
      "v": 80
    },
    {
      "midi": 62,
      "hit": false,
      "t": 167350.66799999957,
      "d": 108.10766666667769,
      "v": 63
    },
    {
      "midi": 65,
      "hit": false,
      "t": 167350.66799999957,
      "d": 108.10766666667769,
      "v": 63
    },
    {
      "midi": 69,
      "hit": false,
      "t": 167350.66799999957,
      "d": 108.10766666667769,
      "v": 63
    },
    {
      "midi": 58,
      "hit": false,
      "t": 167350.66799999957,
      "d": 216.21533333335537,
      "v": 63
    },
    {
      "midi": 70,
      "hit": false,
      "t": 167350.6679999998,
      "d": 216.21533333332627,
      "v": 79
    },
    {
      "midi": 74,
      "hit": false,
      "t": 167350.6679999998,
      "d": 216.21533333332627,
      "v": 79
    },
    {
      "midi": 77,
      "hit": false,
      "t": 167350.6679999998,
      "d": 216.21533333332627,
      "v": 79
    },
    {
      "midi": 58,
      "hit": false,
      "t": 167566.88333333292,
      "d": 216.21533333332627,
      "v": 63
    },
    {
      "midi": 62,
      "hit": false,
      "t": 167566.88333333292,
      "d": 216.21533333332627,
      "v": 63
    },
    {
      "midi": 69,
      "hit": false,
      "t": 167566.88333333292,
      "d": 216.21533333332627,
      "v": 63
    },
    {
      "midi": 81,
      "hit": false,
      "t": 167566.88333333313,
      "d": 108.10766666667769,
      "v": 80
    },
    {
      "midi": 70,
      "hit": false,
      "t": 167566.88333333313,
      "d": 216.21533333335537,
      "v": 80
    },
    {
      "midi": 74,
      "hit": false,
      "t": 167566.88333333313,
      "d": 216.21533333335537,
      "v": 80
    },
    {
      "midi": 58,
      "hit": false,
      "t": 167783.09866666625,
      "d": 216.21533333332627,
      "v": 60
    },
    {
      "midi": 62,
      "hit": false,
      "t": 167783.09866666625,
      "d": 216.21533333332627,
      "v": 60
    },
    {
      "midi": 69,
      "hit": false,
      "t": 167783.09866666625,
      "d": 216.21533333332627,
      "v": 60
    },
    {
      "midi": 70,
      "hit": false,
      "t": 167783.09866666648,
      "d": 216.21533333332627,
      "v": 82
    },
    {
      "midi": 74,
      "hit": false,
      "t": 167783.09866666648,
      "d": 216.21533333332627,
      "v": 82
    },
    {
      "midi": 81,
      "hit": false,
      "t": 167783.09866666648,
      "d": 216.21533333332627,
      "v": 82
    },
    {
      "midi": 62,
      "hit": false,
      "t": 167999.31399999958,
      "d": 108.10766666667769,
      "v": 64
    },
    {
      "midi": 65,
      "hit": false,
      "t": 167999.31399999958,
      "d": 108.10766666667769,
      "v": 64
    },
    {
      "midi": 68,
      "hit": false,
      "t": 167999.31399999958,
      "d": 108.10766666667769,
      "v": 64
    },
    {
      "midi": 68,
      "hit": false,
      "t": 167999.3139999998,
      "d": 108.10766666667769,
      "v": 82
    },
    {
      "midi": 70,
      "hit": false,
      "t": 167999.3139999998,
      "d": 108.10766666667769,
      "v": 82
    },
    {
      "midi": 77,
      "hit": false,
      "t": 167999.3139999998,
      "d": 108.10766666667769,
      "v": 82
    },
    {
      "midi": 80,
      "hit": false,
      "t": 167999.3139999998,
      "d": 216.21533333335537,
      "v": 82
    },
    {
      "midi": 58,
      "hit": false,
      "t": 168215.52933333293,
      "d": 324.32300000000396,
      "v": 66
    },
    {
      "midi": 62,
      "hit": false,
      "t": 168215.52933333293,
      "d": 324.32300000000396,
      "v": 66
    },
    {
      "midi": 65,
      "hit": false,
      "t": 168215.52933333293,
      "d": 324.32300000000396,
      "v": 66
    },
    {
      "midi": 67,
      "hit": false,
      "t": 168215.52933333293,
      "d": 324.32300000000396,
      "v": 66
    },
    {
      "midi": 70,
      "hit": false,
      "t": 168215.52933333316,
      "d": 216.21533333332627,
      "v": 81
    },
    {
      "midi": 74,
      "hit": false,
      "t": 168215.52933333316,
      "d": 216.21533333332627,
      "v": 81
    },
    {
      "midi": 77,
      "hit": false,
      "t": 168215.52933333316,
      "d": 216.21533333332627,
      "v": 81
    },
    {
      "midi": 79,
      "hit": false,
      "t": 168215.52933333316,
      "d": 216.21533333332627,
      "v": 81
    },
    {
      "midi": 48,
      "hit": false,
      "t": 168647.9599999996,
      "d": 108.10766666667769,
      "v": 71
    },
    {
      "midi": 60,
      "hit": false,
      "t": 168647.95999999982,
      "d": 108.10766666667769,
      "v": 83
    },
    {
      "midi": 64,
      "hit": false,
      "t": 168647.95999999982,
      "d": 108.10766666667769,
      "v": 83
    },
    {
      "midi": 69,
      "hit": false,
      "t": 168647.95999999982,
      "d": 108.10766666667769,
      "v": 83
    },
    {
      "midi": 72,
      "hit": false,
      "t": 168647.95999999982,
      "d": 108.10766666667769,
      "v": 83
    },
    {
      "midi": 76,
      "hit": false,
      "t": 168647.95999999982,
      "d": 108.10766666667769,
      "v": 83
    },
    {
      "midi": 81,
      "hit": false,
      "t": 168647.95999999982,
      "d": 108.10766666667769,
      "v": 83
    },
    {
      "midi": 93,
      "hit": false,
      "t": 168647.95999999982,
      "d": 108.10766666667769,
      "v": 83
    },
    {
      "midi": 48,
      "hit": false,
      "t": 168864.17533333297,
      "d": 108.10766666667769,
      "v": 72
    },
    {
      "midi": 60,
      "hit": false,
      "t": 168864.17533333317,
      "d": 108.10766666667769,
      "v": 81
    },
    {
      "midi": 64,
      "hit": false,
      "t": 168864.17533333317,
      "d": 108.10766666667769,
      "v": 81
    },
    {
      "midi": 69,
      "hit": false,
      "t": 168864.17533333317,
      "d": 108.10766666667769,
      "v": 81
    },
    {
      "midi": 72,
      "hit": false,
      "t": 168864.17533333317,
      "d": 108.10766666667769,
      "v": 81
    },
    {
      "midi": 76,
      "hit": false,
      "t": 168864.17533333317,
      "d": 108.10766666667769,
      "v": 81
    },
    {
      "midi": 81,
      "hit": false,
      "t": 168864.17533333317,
      "d": 108.10766666667769,
      "v": 81
    },
    {
      "midi": 93,
      "hit": false,
      "t": 168864.17533333317,
      "d": 108.10766666667769,
      "v": 81
    },
    {
      "midi": 48,
      "hit": false,
      "t": 169080.39066666632,
      "d": 108.10766666667769,
      "v": 73
    },
    {
      "midi": 60,
      "hit": false,
      "t": 169080.39066666653,
      "d": 108.10766666667769,
      "v": 81
    },
    {
      "midi": 64,
      "hit": false,
      "t": 169080.39066666653,
      "d": 108.10766666667769,
      "v": 81
    },
    {
      "midi": 69,
      "hit": false,
      "t": 169080.39066666653,
      "d": 108.10766666667769,
      "v": 81
    },
    {
      "midi": 72,
      "hit": false,
      "t": 169080.39066666653,
      "d": 108.10766666667769,
      "v": 81
    },
    {
      "midi": 76,
      "hit": false,
      "t": 169080.39066666653,
      "d": 108.10766666667769,
      "v": 81
    },
    {
      "midi": 81,
      "hit": false,
      "t": 169080.39066666653,
      "d": 108.10766666667769,
      "v": 81
    },
    {
      "midi": 93,
      "hit": false,
      "t": 169080.39066666653,
      "d": 108.10766666667769,
      "v": 81
    },
    {
      "midi": 48,
      "hit": false,
      "t": 169296.60599999968,
      "d": 108.10766666667769,
      "v": 74
    },
    {
      "midi": 60,
      "hit": false,
      "t": 169296.60599999985,
      "d": 108.10766666667769,
      "v": 80
    },
    {
      "midi": 64,
      "hit": false,
      "t": 169296.60599999985,
      "d": 108.10766666667769,
      "v": 80
    },
    {
      "midi": 72,
      "hit": false,
      "t": 169296.60599999985,
      "d": 108.10766666667769,
      "v": 80
    },
    {
      "midi": 76,
      "hit": false,
      "t": 169296.60599999985,
      "d": 108.10766666667769,
      "v": 80
    },
    {
      "midi": 80,
      "hit": false,
      "t": 169296.60599999985,
      "d": 108.10766666667769,
      "v": 80
    },
    {
      "midi": 92,
      "hit": false,
      "t": 169296.60599999985,
      "d": 108.10766666667769,
      "v": 80
    },
    {
      "midi": 48,
      "hit": false,
      "t": 169512.82133333303,
      "d": 216.21533333332627,
      "v": 71
    },
    {
      "midi": 91,
      "hit": false,
      "t": 169512.8213333332,
      "d": 108.10766666667769,
      "v": 80
    },
    {
      "midi": 60,
      "hit": false,
      "t": 169512.8213333332,
      "d": 216.21533333335537,
      "v": 80
    },
    {
      "midi": 64,
      "hit": false,
      "t": 169512.8213333332,
      "d": 216.21533333335537,
      "v": 80
    },
    {
      "midi": 72,
      "hit": false,
      "t": 169512.8213333332,
      "d": 216.21533333335537,
      "v": 80
    },
    {
      "midi": 76,
      "hit": false,
      "t": 169512.8213333332,
      "d": 216.21533333335537,
      "v": 80
    },
    {
      "midi": 79,
      "hit": false,
      "t": 169512.8213333332,
      "d": 216.21533333335537,
      "v": 80
    },
    {
      "midi": 65,
      "hit": false,
      "t": 169837.14433333324,
      "d": 216.21533333332627,
      "v": 80
    },
    {
      "midi": 69,
      "hit": false,
      "t": 169837.14433333324,
      "d": 216.21533333332627,
      "v": 80
    },
    {
      "midi": 72,
      "hit": false,
      "t": 169837.14433333324,
      "d": 216.21533333332627,
      "v": 80
    },
    {
      "midi": 75,
      "hit": false,
      "t": 169837.14433333324,
      "d": 216.21533333332627,
      "v": 80
    },
    {
      "midi": 77,
      "hit": false,
      "t": 169837.14433333324,
      "d": 324.32300000000396,
      "v": 80
    },
    {
      "midi": 69,
      "hit": false,
      "t": 170161.46733333325,
      "d": 108.10766666667769,
      "v": 80
    },
    {
      "midi": 72,
      "hit": false,
      "t": 170161.46733333325,
      "d": 108.10766666667769,
      "v": 80
    },
    {
      "midi": 75,
      "hit": false,
      "t": 170161.46733333325,
      "d": 108.10766666667769,
      "v": 80
    },
    {
      "midi": 77,
      "hit": false,
      "t": 170161.46733333325,
      "d": 216.21533333335537,
      "v": 80
    },
    {
      "midi": 57,
      "hit": false,
      "t": 170269.5749999997,
      "d": 162.16149999998743,
      "v": 63
    },
    {
      "midi": 63,
      "hit": false,
      "t": 170269.5749999997,
      "d": 162.16149999998743,
      "v": 63
    },
    {
      "midi": 65,
      "hit": false,
      "t": 170269.5749999997,
      "d": 162.16149999998743,
      "v": 63
    },
    {
      "midi": 62,
      "hit": false,
      "t": 170485.79033333328,
      "d": 108.10766666667769,
      "v": 77
    },
    {
      "midi": 69,
      "hit": false,
      "t": 170485.79033333328,
      "d": 108.10766666667769,
      "v": 77
    },
    {
      "midi": 72,
      "hit": false,
      "t": 170485.79033333328,
      "d": 108.10766666667769,
      "v": 77
    },
    {
      "midi": 74,
      "hit": false,
      "t": 170485.79033333328,
      "d": 108.10766666667769,
      "v": 77
    },
    {
      "midi": 65,
      "hit": false,
      "t": 170593.89799999996,
      "d": 216.21533333332627,
      "v": 73
    },
    {
      "midi": 68,
      "hit": false,
      "t": 170593.89799999996,
      "d": 216.21533333332627,
      "v": 73
    },
    {
      "midi": 72,
      "hit": false,
      "t": 170593.89799999996,
      "d": 216.21533333332627,
      "v": 73
    },
    {
      "midi": 74,
      "hit": false,
      "t": 170593.89799999996,
      "d": 216.21533333332627,
      "v": 73
    },
    {
      "midi": 77,
      "hit": false,
      "t": 170593.89799999996,
      "d": 324.32300000000396,
      "v": 73
    },
    {
      "midi": 56,
      "hit": false,
      "t": 170918.22099999967,
      "d": 162.16149999998743,
      "v": 65
    },
    {
      "midi": 58,
      "hit": false,
      "t": 170918.22099999967,
      "d": 162.16149999998743,
      "v": 65
    },
    {
      "midi": 62,
      "hit": false,
      "t": 170918.22099999967,
      "d": 162.16149999998743,
      "v": 65
    },
    {
      "midi": 65,
      "hit": false,
      "t": 170918.22099999967,
      "d": 162.16149999998743,
      "v": 65
    },
    {
      "midi": 68,
      "hit": false,
      "t": 170918.22099999996,
      "d": 216.21533333332627,
      "v": 78
    },
    {
      "midi": 72,
      "hit": false,
      "t": 170918.22099999996,
      "d": 216.21533333332627,
      "v": 78
    },
    {
      "midi": 74,
      "hit": false,
      "t": 170918.22099999996,
      "d": 216.21533333332627,
      "v": 78
    },
    {
      "midi": 79,
      "hit": false,
      "t": 170918.22099999996,
      "d": 216.21533333332627,
      "v": 78
    },
    {
      "midi": 67,
      "hit": false,
      "t": 170918.22099999996,
      "d": 324.32300000000396,
      "v": 78
    },
    {
      "midi": 67,
      "hit": false,
      "t": 171242.54399999997,
      "d": 108.10766666667769,
      "v": 77
    },
    {
      "midi": 65,
      "hit": false,
      "t": 171242.54399999997,
      "d": 216.21533333335537,
      "v": 77
    },
    {
      "midi": 70,
      "hit": false,
      "t": 171242.54399999997,
      "d": 216.21533333335537,
      "v": 77
    },
    {
      "midi": 74,
      "hit": false,
      "t": 171242.54399999997,
      "d": 216.21533333335537,
      "v": 77
    },
    {
      "midi": 77,
      "hit": false,
      "t": 171242.54399999997,
      "d": 324.32300000003306,
      "v": 77
    },
    {
      "midi": 55,
      "hit": false,
      "t": 171566.86699999965,
      "d": 162.16149999998743,
      "v": 64
    },
    {
      "midi": 58,
      "hit": false,
      "t": 171566.86699999965,
      "d": 162.16149999998743,
      "v": 64
    },
    {
      "midi": 65,
      "hit": false,
      "t": 171566.86699999965,
      "d": 162.16149999998743,
      "v": 64
    },
    {
      "midi": 67,
      "hit": false,
      "t": 171566.867,
      "d": 108.10766666667769,
      "v": 77
    },
    {
      "midi": 70,
      "hit": false,
      "t": 171566.867,
      "d": 216.21533333335537,
      "v": 77
    },
    {
      "midi": 66,
      "hit": false,
      "t": 171783.08233333335,
      "d": 216.21533333332627,
      "v": 76
    },
    {
      "midi": 70,
      "hit": false,
      "t": 171783.08233333335,
      "d": 216.21533333332627,
      "v": 76
    },
    {
      "midi": 73,
      "hit": false,
      "t": 171783.08233333335,
      "d": 216.21533333332627,
      "v": 76
    },
    {
      "midi": 77,
      "hit": false,
      "t": 171783.08233333335,
      "d": 432.43066666668165,
      "v": 76
    },
    {
      "midi": 58,
      "hit": false,
      "t": 171891.18999999962,
      "d": 162.16149999998743,
      "v": 63
    },
    {
      "midi": 62,
      "hit": false,
      "t": 171891.18999999962,
      "d": 162.16149999998743,
      "v": 63
    },
    {
      "midi": 66,
      "hit": false,
      "t": 171891.18999999962,
      "d": 162.16149999998743,
      "v": 63
    },
    {
      "midi": 58,
      "hit": false,
      "t": 172107.40533333336,
      "d": 108.10766666667769,
      "v": 76
    },
    {
      "midi": 61,
      "hit": false,
      "t": 172107.40533333336,
      "d": 108.10766666667769,
      "v": 76
    },
    {
      "midi": 63,
      "hit": false,
      "t": 172107.40533333336,
      "d": 108.10766666667769,
      "v": 76
    },
    {
      "midi": 75,
      "hit": false,
      "t": 172107.40533333336,
      "d": 216.21533333335537,
      "v": 76
    },
    {
      "midi": 54,
      "hit": false,
      "t": 172215.5129999996,
      "d": 162.16149999998743,
      "v": 61
    },
    {
      "midi": 58,
      "hit": false,
      "t": 172215.5129999996,
      "d": 162.16149999998743,
      "v": 61
    },
    {
      "midi": 60,
      "hit": false,
      "t": 172215.5129999996,
      "d": 162.16149999998743,
      "v": 61
    },
    {
      "midi": 63,
      "hit": false,
      "t": 172215.5129999996,
      "d": 162.16149999998743,
      "v": 61
    },
    {
      "midi": 61,
      "hit": false,
      "t": 172431.7283333334,
      "d": 108.10766666667769,
      "v": 77
    },
    {
      "midi": 73,
      "hit": false,
      "t": 172431.7283333334,
      "d": 108.10766666667769,
      "v": 77
    },
    {
      "midi": 69,
      "hit": false,
      "t": 172539.83600000007,
      "d": 216.21533333332627,
      "v": 78
    },
    {
      "midi": 70,
      "hit": false,
      "t": 172539.83600000007,
      "d": 216.21533333332627,
      "v": 78
    },
    {
      "midi": 62,
      "hit": false,
      "t": 172539.83600000007,
      "d": 324.32300000000396,
      "v": 78
    },
    {
      "midi": 74,
      "hit": false,
      "t": 172539.83600000007,
      "d": 324.32300000000396,
      "v": 78
    },
    {
      "midi": 53,
      "hit": false,
      "t": 172756.05133333293,
      "d": 162.16149999998743,
      "v": 62
    },
    {
      "midi": 58,
      "hit": false,
      "t": 172756.05133333293,
      "d": 162.16149999998743,
      "v": 62
    },
    {
      "midi": 62,
      "hit": false,
      "t": 172756.05133333293,
      "d": 162.16149999998743,
      "v": 62
    },
    {
      "midi": 69,
      "hit": false,
      "t": 172864.15900000007,
      "d": 108.10766666667769,
      "v": 79
    },
    {
      "midi": 70,
      "hit": false,
      "t": 172864.15900000007,
      "d": 108.10766666667769,
      "v": 79
    },
    {
      "midi": 74,
      "hit": false,
      "t": 172864.15900000007,
      "d": 108.10766666667769,
      "v": 79
    },
    {
      "midi": 65,
      "hit": false,
      "t": 172864.15900000007,
      "d": 216.21533333335537,
      "v": 79
    },
    {
      "midi": 77,
      "hit": false,
      "t": 172864.15900000007,
      "d": 216.21533333335537,
      "v": 79
    },
    {
      "midi": 70,
      "hit": false,
      "t": 173188.4820000001,
      "d": 216.21533333332627,
      "v": 78
    },
    {
      "midi": 72,
      "hit": false,
      "t": 173188.4820000001,
      "d": 216.21533333332627,
      "v": 78
    },
    {
      "midi": 75,
      "hit": false,
      "t": 173188.4820000001,
      "d": 216.21533333332627,
      "v": 78
    },
    {
      "midi": 82,
      "hit": false,
      "t": 173188.4820000001,
      "d": 216.21533333332627,
      "v": 78
    },
    {
      "midi": 79,
      "hit": false,
      "t": 173188.4820000001,
      "d": 324.32300000000396,
      "v": 78
    },
    {
      "midi": 55,
      "hit": false,
      "t": 173404.6973333329,
      "d": 162.16150000001653,
      "v": 60
    },
    {
      "midi": 58,
      "hit": false,
      "t": 173404.6973333329,
      "d": 162.16150000001653,
      "v": 60
    },
    {
      "midi": 60,
      "hit": false,
      "t": 173512.8049999996,
      "d": 54.053833333338844,
      "v": 61
    },
    {
      "midi": 72,
      "hit": false,
      "t": 173512.8050000001,
      "d": 108.10766666667769,
      "v": 79
    },
    {
      "midi": 75,
      "hit": false,
      "t": 173512.8050000001,
      "d": 108.10766666667769,
      "v": 79
    },
    {
      "midi": 79,
      "hit": false,
      "t": 173512.8050000001,
      "d": 108.10766666667769,
      "v": 79
    },
    {
      "midi": 82,
      "hit": false,
      "t": 173512.8050000001,
      "d": 108.10766666667769,
      "v": 79
    },
    {
      "midi": 84,
      "hit": false,
      "t": 173512.8050000001,
      "d": 216.21533333335537,
      "v": 79
    },
    {
      "midi": 74,
      "hit": false,
      "t": 173729.02033333346,
      "d": 189.1884166666714,
      "v": 78
    },
    {
      "midi": 79,
      "hit": false,
      "t": 173729.02033333346,
      "d": 189.1884166666714,
      "v": 78
    },
    {
      "midi": 83,
      "hit": false,
      "t": 173729.02033333346,
      "d": 189.1884166666714,
      "v": 78
    },
    {
      "midi": 86,
      "hit": false,
      "t": 173729.02033333346,
      "d": 216.21533333332627,
      "v": 78
    },
    {
      "midi": 50,
      "hit": false,
      "t": 174053.34333333292,
      "d": 162.16149999998743,
      "v": 62
    },
    {
      "midi": 55,
      "hit": false,
      "t": 174053.34333333292,
      "d": 162.16149999998743,
      "v": 62
    },
    {
      "midi": 59,
      "hit": false,
      "t": 174053.34333333292,
      "d": 162.16149999998743,
      "v": 62
    },
    {
      "midi": 86,
      "hit": false,
      "t": 174069.55948333346,
      "d": 72.97267499999725,
      "v": 82
    },
    {
      "midi": 81,
      "hit": false,
      "t": 174104.69447500014,
      "d": 72.97267499999725,
      "v": 82
    },
    {
      "midi": 78,
      "hit": false,
      "t": 174123.6133166668,
      "d": 102.70228333334671,
      "v": 81
    },
    {
      "midi": 74,
      "hit": false,
      "t": 174188.4779166668,
      "d": 135.13458333333256,
      "v": 79
    },
    {
      "midi": 72,
      "hit": false,
      "t": 174377.66633333347,
      "d": 108.10766666667769,
      "v": 75
    },
    {
      "midi": 84,
      "hit": false,
      "t": 174377.66633333347,
      "d": 108.10766666667769,
      "v": 75
    },
    {
      "midi": 74,
      "hit": false,
      "t": 174485.77400000015,
      "d": 216.21533333332627,
      "v": 75
    },
    {
      "midi": 77,
      "hit": false,
      "t": 174485.77400000015,
      "d": 216.21533333332627,
      "v": 75
    },
    {
      "midi": 79,
      "hit": false,
      "t": 174485.77400000015,
      "d": 216.21533333332627,
      "v": 75
    },
    {
      "midi": 71,
      "hit": false,
      "t": 174485.77400000015,
      "d": 324.32300000000396,
      "v": 75
    },
    {
      "midi": 83,
      "hit": false,
      "t": 174485.77400000015,
      "d": 324.32300000000396,
      "v": 75
    },
    {
      "midi": 55,
      "hit": false,
      "t": 174701.9893333329,
      "d": 162.16149999998743,
      "v": 63
    },
    {
      "midi": 59,
      "hit": false,
      "t": 174701.9893333329,
      "d": 162.16149999998743,
      "v": 63
    },
    {
      "midi": 64,
      "hit": false,
      "t": 174701.9893333329,
      "d": 162.16149999998743,
      "v": 63
    },
    {
      "midi": 67,
      "hit": false,
      "t": 174810.09700000015,
      "d": 108.10766666667769,
      "v": 75
    },
    {
      "midi": 74,
      "hit": false,
      "t": 174810.09700000015,
      "d": 216.21533333335537,
      "v": 75
    },
    {
      "midi": 77,
      "hit": false,
      "t": 174810.09700000015,
      "d": 216.21533333335537,
      "v": 75
    },
    {
      "midi": 79,
      "hit": false,
      "t": 174810.09700000015,
      "d": 216.21533333335537,
      "v": 75
    },
    {
      "midi": 72,
      "hit": false,
      "t": 175134.4200000002,
      "d": 432.43066666665254,
      "v": 79
    },
    {
      "midi": 75,
      "hit": false,
      "t": 175134.4200000002,
      "d": 432.43066666665254,
      "v": 79
    },
    {
      "midi": 79,
      "hit": false,
      "t": 175134.4200000002,
      "d": 432.43066666665254,
      "v": 79
    },
    {
      "midi": 82,
      "hit": false,
      "t": 175134.4200000002,
      "d": 432.43066666665254,
      "v": 79
    },
    {
      "midi": 84,
      "hit": false,
      "t": 175134.4200000002,
      "d": 540.5383333333302,
      "v": 79
    },
    {
      "midi": 60,
      "hit": false,
      "t": 175458.74299999955,
      "d": 162.16149999998743,
      "v": 66
    },
    {
      "midi": 63,
      "hit": false,
      "t": 175458.74299999955,
      "d": 162.16149999998743,
      "v": 66
    },
    {
      "midi": 67,
      "hit": false,
      "t": 175458.74299999955,
      "d": 162.16149999998743,
      "v": 66
    },
    {
      "midi": 70,
      "hit": false,
      "t": 175674.95833333352,
      "d": 108.10766666667769,
      "v": 79
    },
    {
      "midi": 72,
      "hit": false,
      "t": 175674.95833333352,
      "d": 108.10766666667769,
      "v": 79
    },
    {
      "midi": 75,
      "hit": false,
      "t": 175674.95833333352,
      "d": 108.10766666667769,
      "v": 79
    },
    {
      "midi": 79,
      "hit": false,
      "t": 175674.95833333352,
      "d": 108.10766666667769,
      "v": 79
    },
    {
      "midi": 82,
      "hit": false,
      "t": 175674.95833333352,
      "d": 108.10766666667769,
      "v": 79
    },
    {
      "midi": 75,
      "hit": false,
      "t": 175891.17366666687,
      "d": 108.10766666667769,
      "v": 79
    },
    {
      "midi": 67,
      "hit": false,
      "t": 175891.17366666687,
      "d": 216.21533333335537,
      "v": 79
    },
    {
      "midi": 72,
      "hit": false,
      "t": 175891.17366666687,
      "d": 216.21533333335537,
      "v": 79
    },
    {
      "midi": 79,
      "hit": false,
      "t": 175891.17366666687,
      "d": 216.21533333335537,
      "v": 79
    },
    {
      "midi": 57,
      "hit": false,
      "t": 176107.38899999953,
      "d": 162.16149999998743,
      "v": 67
    },
    {
      "midi": 60,
      "hit": false,
      "t": 176107.38899999953,
      "d": 162.16149999998743,
      "v": 67
    },
    {
      "midi": 63,
      "hit": false,
      "t": 176107.38899999953,
      "d": 162.16149999998743,
      "v": 67
    },
    {
      "midi": 65,
      "hit": false,
      "t": 176107.38899999953,
      "d": 162.16149999998743,
      "v": 67
    },
    {
      "midi": 69,
      "hit": false,
      "t": 176107.38900000023,
      "d": 108.10766666667769,
      "v": 77
    },
    {
      "midi": 72,
      "hit": false,
      "t": 176107.38900000023,
      "d": 108.10766666667769,
      "v": 77
    },
    {
      "midi": 75,
      "hit": false,
      "t": 176107.38900000023,
      "d": 108.10766666667769,
      "v": 77
    },
    {
      "midi": 81,
      "hit": false,
      "t": 176107.38900000023,
      "d": 216.21533333335537,
      "v": 77
    },
    {
      "midi": 62,
      "hit": false,
      "t": 176323.60433333286,
      "d": 486.4844999999914,
      "v": 67
    },
    {
      "midi": 58,
      "hit": false,
      "t": 176323.60433333286,
      "d": 648.6459999999788,
      "v": 67
    },
    {
      "midi": 65,
      "hit": false,
      "t": 176323.60433333286,
      "d": 648.6459999999788,
      "v": 67
    },
    {
      "midi": 82,
      "hit": false,
      "t": 176323.60433333358,
      "d": 216.21533333332627,
      "v": 76
    },
    {
      "midi": 74,
      "hit": false,
      "t": 176323.60433333358,
      "d": 432.43066666665254,
      "v": 76
    },
    {
      "midi": 77,
      "hit": false,
      "t": 176323.60433333358,
      "d": 432.43066666665254,
      "v": 76
    },
    {
      "midi": 70,
      "hit": false,
      "t": 176323.60433333358,
      "d": 540.5383333333302,
      "v": 76
    },
    {
      "midi": 81,
      "hit": false,
      "t": 177080.35800000024,
      "d": 540.5383333333302,
      "v": 84
    },
    {
      "midi": 79,
      "hit": false,
      "t": 177620.89633333357,
      "d": 108.10766666667769,
      "v": 78
    },
    {
      "midi": 77,
      "hit": false,
      "t": 177729.00400000025,
      "d": 216.21533333332627,
      "v": 77
    },
    {
      "midi": 57,
      "hit": false,
      "t": 177945.21933333285,
      "d": 432.43066666668165,
      "v": 67
    },
    {
      "midi": 63,
      "hit": false,
      "t": 177945.21933333285,
      "d": 432.43066666668165,
      "v": 67
    },
    {
      "midi": 65,
      "hit": false,
      "t": 177945.21933333285,
      "d": 432.43066666668165,
      "v": 67
    },
    {
      "midi": 60,
      "hit": false,
      "t": 177945.21933333285,
      "d": 540.5383333333593,
      "v": 67
    },
    {
      "midi": 77,
      "hit": false,
      "t": 178053.32700000025,
      "d": 135.13458333333256,
      "v": 76
    },
    {
      "midi": 67,
      "hit": false,
      "t": 178269.54233333285,
      "d": 432.43066666671075,
      "v": 67
    },
    {
      "midi": 79,
      "hit": false,
      "t": 178269.54233333358,
      "d": 108.10766666667769,
      "v": 76
    },
    {
      "midi": 77,
      "hit": false,
      "t": 178377.65000000026,
      "d": 135.13458333333256,
      "v": 74
    },
    {
      "midi": 56,
      "hit": false,
      "t": 178593.86533333288,
      "d": 540.5383333333302,
      "v": 67
    },
    {
      "midi": 62,
      "hit": false,
      "t": 178593.86533333288,
      "d": 540.5383333333302,
      "v": 67
    },
    {
      "midi": 65,
      "hit": false,
      "t": 178593.86533333288,
      "d": 540.5383333333302,
      "v": 67
    },
    {
      "midi": 70,
      "hit": false,
      "t": 178701.97300000026,
      "d": 135.13458333333256,
      "v": 74
    },
    {
      "midi": 72,
      "hit": false,
      "t": 178918.1883333336,
      "d": 108.10766666664858,
      "v": 78
    },
    {
      "midi": 73,
      "hit": false,
      "t": 178993.86370000025,
      "d": 108.10766666664858,
      "v": 78
    },
    {
      "midi": 74,
      "hit": false,
      "t": 179026.29600000023,
      "d": 324.32300000000396,
      "v": 78
    },
    {
      "midi": 53,
      "hit": false,
      "t": 179242.5113333329,
      "d": 432.43066666665254,
      "v": 68
    },
    {
      "midi": 57,
      "hit": false,
      "t": 179242.5113333329,
      "d": 432.43066666665254,
      "v": 68
    },
    {
      "midi": 58,
      "hit": false,
      "t": 179242.5113333329,
      "d": 432.43066666665254,
      "v": 68
    },
    {
      "midi": 62,
      "hit": false,
      "t": 179242.5113333329,
      "d": 432.43066666665254,
      "v": 68
    },
    {
      "midi": 74,
      "hit": false,
      "t": 179350.61900000024,
      "d": 135.13458333333256,
      "v": 82
    },
    {
      "midi": 75,
      "hit": false,
      "t": 179566.83433333357,
      "d": 108.10766666667769,
      "v": 75
    },
    {
      "midi": 74,
      "hit": false,
      "t": 179674.94200000024,
      "d": 135.13458333333256,
      "v": 76
    },
    {
      "midi": 54,
      "hit": false,
      "t": 179891.15733333287,
      "d": 432.43066666665254,
      "v": 68
    },
    {
      "midi": 58,
      "hit": false,
      "t": 179891.15733333287,
      "d": 432.43066666665254,
      "v": 68
    },
    {
      "midi": 63,
      "hit": false,
      "t": 179891.15733333287,
      "d": 432.43066666665254,
      "v": 68
    },
    {
      "midi": 65,
      "hit": false,
      "t": 179999.26500000025,
      "d": 135.13458333333256,
      "v": 83
    },
    {
      "midi": 67,
      "hit": false,
      "t": 180215.48033333357,
      "d": 108.10766666667769,
      "v": 82
    },
    {
      "midi": 69,
      "hit": false,
      "t": 180323.58800000025,
      "d": 135.13458333333256,
      "v": 82
    },
    {
      "midi": 57,
      "hit": false,
      "t": 180539.80333333285,
      "d": 324.32300000000396,
      "v": 66
    },
    {
      "midi": 58,
      "hit": false,
      "t": 180539.80333333285,
      "d": 324.32300000000396,
      "v": 66
    },
    {
      "midi": 53,
      "hit": false,
      "t": 180539.80333333285,
      "d": 432.43066666668165,
      "v": 66
    },
    {
      "midi": 62,
      "hit": false,
      "t": 180539.80333333285,
      "d": 432.43066666668165,
      "v": 66
    },
    {
      "midi": 69,
      "hit": false,
      "t": 180647.91100000025,
      "d": 135.13458333333256,
      "v": 83
    },
    {
      "midi": 70,
      "hit": false,
      "t": 180864.12633333358,
      "d": 108.10766666667769,
      "v": 76
    },
    {
      "midi": 67,
      "hit": false,
      "t": 180972.23400000026,
      "d": 216.21533333332627,
      "v": 74
    },
    {
      "midi": 60,
      "hit": false,
      "t": 181188.44933333286,
      "d": 432.43066666668165,
      "v": 67
    },
    {
      "midi": 67,
      "hit": false,
      "t": 181188.44933333286,
      "d": 432.43066666668165,
      "v": 67
    },
    {
      "midi": 57,
      "hit": false,
      "t": 181188.44933333286,
      "d": 540.5383333333593,
      "v": 67
    },
    {
      "midi": 65,
      "hit": false,
      "t": 181296.55699999954,
      "d": 432.43066666668165,
      "v": 67
    },
    {
      "midi": 65,
      "hit": false,
      "t": 181296.55700000026,
      "d": 135.13458333333256,
      "v": 75
    },
    {
      "midi": 67,
      "hit": false,
      "t": 181512.7723333336,
      "d": 864.8613333333342,
      "v": 73
    },
    {
      "midi": 55,
      "hit": false,
      "t": 181837.0953333329,
      "d": 108.10766666667769,
      "v": 70
    },
    {
      "midi": 58,
      "hit": false,
      "t": 181837.0953333329,
      "d": 108.10766666667769,
      "v": 70
    },
    {
      "midi": 62,
      "hit": false,
      "t": 181837.0953333329,
      "d": 108.10766666667769,
      "v": 70
    },
    {
      "midi": 63,
      "hit": false,
      "t": 181945.20299999957,
      "d": 324.32300000000396,
      "v": 70
    },
    {
      "midi": 57,
      "hit": false,
      "t": 182269.52599999958,
      "d": 324.32300000000396,
      "v": 74
    },
    {
      "midi": 60,
      "hit": false,
      "t": 182269.52599999958,
      "d": 324.32300000000396,
      "v": 74
    },
    {
      "midi": 62,
      "hit": false,
      "t": 182269.52599999958,
      "d": 324.32300000000396,
      "v": 74
    },
    {
      "midi": 66,
      "hit": false,
      "t": 182269.52599999958,
      "d": 324.32300000000396,
      "v": 74
    },
    {
      "midi": 59,
      "hit": false,
      "t": 182593.84899999958,
      "d": 324.32300000000396,
      "v": 73
    },
    {
      "midi": 68,
      "hit": false,
      "t": 182810.06433333358,
      "d": 108.10766666667769,
      "v": 73
    },
    {
      "midi": 69,
      "hit": false,
      "t": 182918.17200000025,
      "d": 81.08074999999371,
      "v": 74
    },
    {
      "midi": 73,
      "hit": false,
      "t": 182999.25275000025,
      "d": 81.08074999999371,
      "v": 76
    },
    {
      "midi": 76,
      "hit": false,
      "t": 183080.33350000024,
      "d": 81.08074999999371,
      "v": 76
    },
    {
      "midi": 55,
      "hit": false,
      "t": 183134.3873333329,
      "d": 108.10766666667769,
      "v": 69
    },
    {
      "midi": 57,
      "hit": false,
      "t": 183134.3873333329,
      "d": 432.43066666668165,
      "v": 69
    },
    {
      "midi": 61,
      "hit": false,
      "t": 183134.3873333329,
      "d": 432.43066666668165,
      "v": 69
    },
    {
      "midi": 80,
      "hit": false,
      "t": 183161.41425000023,
      "d": 81.08074999999371,
      "v": 76
    },
    {
      "midi": 81,
      "hit": false,
      "t": 183242.49500000023,
      "d": 216.21533333332627,
      "v": 80
    },
    {
      "midi": 80,
      "hit": false,
      "t": 183458.71033333355,
      "d": 108.10766666667769,
      "v": 81
    },
    {
      "midi": 79,
      "hit": false,
      "t": 183566.81800000023,
      "d": 108.10766666667769,
      "v": 83
    },
    {
      "midi": 57,
      "hit": false,
      "t": 183783.03333333292,
      "d": 540.5383333333302,
      "v": 69
    },
    {
      "midi": 61,
      "hit": false,
      "t": 183783.03333333292,
      "d": 540.5383333333302,
      "v": 69
    },
    {
      "midi": 64,
      "hit": false,
      "t": 183783.03333333292,
      "d": 540.5383333333302,
      "v": 69
    },
    {
      "midi": 78,
      "hit": false,
      "t": 183783.0333333336,
      "d": 432.43066666668165,
      "v": 79
    },
    {
      "midi": 79,
      "hit": false,
      "t": 184107.3563333336,
      "d": 324.32300000000396,
      "v": 79
    },
    {
      "midi": 53,
      "hit": false,
      "t": 184431.67933333293,
      "d": 432.43066666665254,
      "v": 69
    },
    {
      "midi": 50,
      "hit": false,
      "t": 184431.67933333293,
      "d": 540.5383333333302,
      "v": 69
    },
    {
      "midi": 55,
      "hit": false,
      "t": 184431.67933333293,
      "d": 540.5383333333302,
      "v": 69
    },
    {
      "midi": 59,
      "hit": false,
      "t": 184431.67933333293,
      "d": 648.6460000000079,
      "v": 69
    },
    {
      "midi": 74,
      "hit": false,
      "t": 184539.78700000027,
      "d": 135.13458333333256,
      "v": 80
    },
    {
      "midi": 77,
      "hit": false,
      "t": 184756.0023333336,
      "d": 108.10766666667769,
      "v": 79
    },
    {
      "midi": 75,
      "hit": false,
      "t": 184864.11000000028,
      "d": 135.13458333333256,
      "v": 77
    },
    {
      "midi": 55,
      "hit": false,
      "t": 185080.32533333293,
      "d": 210.8099499999953,
      "v": 68
    },
    {
      "midi": 60,
      "hit": false,
      "t": 185080.32533333293,
      "d": 213.51264166666078,
      "v": 68
    },
    {
      "midi": 63,
      "hit": false,
      "t": 185080.32533333293,
      "d": 229.7287916666537,
      "v": 68
    },
    {
      "midi": 58,
      "hit": false,
      "t": 185080.32533333293,
      "d": 232.4314833333192,
      "v": 68
    },
    {
      "midi": 66,
      "hit": false,
      "t": 185188.43300000028,
      "d": 135.13458333333256,
      "v": 79
    },
    {
      "midi": 65,
      "hit": false,
      "t": 185512.75600000028,
      "d": 108.10766666667769,
      "v": 81
    },
    {
      "midi": 67,
      "hit": false,
      "t": 185620.86366666696,
      "d": 108.10766666667769,
      "v": 80
    },
    {
      "midi": 55,
      "hit": false,
      "t": 185728.9713333329,
      "d": 108.10766666667769,
      "v": 69
    },
    {
      "midi": 58,
      "hit": false,
      "t": 185728.9713333329,
      "d": 432.43066666668165,
      "v": 69
    },
    {
      "midi": 53,
      "hit": false,
      "t": 185728.9713333329,
      "d": 540.5383333333593,
      "v": 69
    },
    {
      "midi": 62,
      "hit": false,
      "t": 185728.9713333329,
      "d": 540.5383333333593,
      "v": 69
    },
    {
      "midi": 73,
      "hit": false,
      "t": 185810.05208333363,
      "d": 27.02691666665487,
      "v": 80
    },
    {
      "midi": 74,
      "hit": false,
      "t": 185837.0790000003,
      "d": 135.13458333333256,
      "v": 80
    },
    {
      "midi": 73,
      "hit": false,
      "t": 186026.26741666696,
      "d": 27.02691666665487,
      "v": 81
    },
    {
      "midi": 74,
      "hit": false,
      "t": 186053.29433333362,
      "d": 108.10766666667769,
      "v": 81
    },
    {
      "midi": 55,
      "hit": false,
      "t": 186377.61733333295,
      "d": 540.5383333333302,
      "v": 72
    },
    {
      "midi": 62,
      "hit": false,
      "t": 186377.61733333295,
      "d": 540.5383333333302,
      "v": 72
    },
    {
      "midi": 58,
      "hit": false,
      "t": 186377.61733333295,
      "d": 1297.2919999999867,
      "v": 72
    },
    {
      "midi": 70,
      "hit": false,
      "t": 186377.61733333362,
      "d": 108.10766666667769,
      "v": 83
    },
    {
      "midi": 67,
      "hit": false,
      "t": 186485.7250000003,
      "d": 324.32300000000396,
      "v": 84
    },
    {
      "midi": 70,
      "hit": false,
      "t": 186701.94033333362,
      "d": 216.21533333335537,
      "v": 84
    },
    {
      "midi": 60,
      "hit": false,
      "t": 187026.26333333296,
      "d": 432.43066666665254,
      "v": 77
    },
    {
      "midi": 55,
      "hit": false,
      "t": 187026.26333333296,
      "d": 648.6459999999788,
      "v": 77
    },
    {
      "midi": 64,
      "hit": false,
      "t": 187026.26333333296,
      "d": 648.6459999999788,
      "v": 77
    },
    {
      "midi": 73,
      "hit": false,
      "t": 187134.3710000003,
      "d": 108.10766666667769,
      "v": 82
    },
    {
      "midi": 74,
      "hit": false,
      "t": 187134.3710000003,
      "d": 324.32300000003306,
      "v": 82
    },
    {
      "midi": 70,
      "hit": false,
      "t": 187350.58633333366,
      "d": 324.32300000000396,
      "v": 82
    },
    {
      "midi": 41,
      "hit": false,
      "t": 187674.90933333294,
      "d": 216.21533333332627,
      "v": 88
    },
    {
      "midi": 58,
      "hit": false,
      "t": 187674.90933333294,
      "d": 216.21533333332627,
      "v": 88
    },
    {
      "midi": 67,
      "hit": false,
      "t": 187674.90933333366,
      "d": 108.10766666667769,
      "v": 84
    },
    {
      "midi": 70,
      "hit": false,
      "t": 187783.01700000034,
      "d": 216.21533333332627,
      "v": 86
    },
    {
      "midi": 46,
      "hit": false,
      "t": 187999.23233333294,
      "d": 324.32300000000396,
      "v": 100
    },
    {
      "midi": 53,
      "hit": false,
      "t": 188323.55533333294,
      "d": 108.10766666667769,
      "v": 88
    },
    {
      "midi": 58,
      "hit": false,
      "t": 188323.55533333294,
      "d": 108.10766666667769,
      "v": 88
    },
    {
      "midi": 62,
      "hit": false,
      "t": 188323.55533333294,
      "d": 108.10766666667769,
      "v": 88
    },
    {
      "midi": 73,
      "hit": false,
      "t": 188431.66300000032,
      "d": 324.32300000000396,
      "v": 85
    },
    {
      "midi": 76,
      "hit": false,
      "t": 188431.66300000032,
      "d": 324.32300000000396,
      "v": 89
    },
    {
      "midi": 41,
      "hit": false,
      "t": 188647.87833333295,
      "d": 324.32300000000396,
      "v": 97
    },
    {
      "midi": 72,
      "hit": false,
      "t": 188755.98600000032,
      "d": 216.21533333332627,
      "v": 84
    },
    {
      "midi": 75,
      "hit": false,
      "t": 188755.98600000032,
      "d": 216.21533333332627,
      "v": 84
    },
    {
      "midi": 53,
      "hit": false,
      "t": 188972.20133333295,
      "d": 108.10766666667769,
      "v": 88
    },
    {
      "midi": 58,
      "hit": false,
      "t": 188972.20133333295,
      "d": 108.10766666667769,
      "v": 88
    },
    {
      "midi": 62,
      "hit": false,
      "t": 188972.20133333295,
      "d": 108.10766666667769,
      "v": 88
    },
    {
      "midi": 73,
      "hit": false,
      "t": 188972.20133333365,
      "d": 216.21533333332627,
      "v": 85
    },
    {
      "midi": 70,
      "hit": false,
      "t": 188972.20133333365,
      "d": 324.32300000000396,
      "v": 85
    },
    {
      "midi": 46,
      "hit": false,
      "t": 189296.52433333296,
      "d": 756.7536666666856,
      "v": 96
    },
    {
      "midi": 76,
      "hit": false,
      "t": 189404.63200000033,
      "d": 216.21533333332627,
      "v": 91
    },
    {
      "midi": 73,
      "hit": false,
      "t": 189404.63200000033,
      "d": 432.43066666668165,
      "v": 91
    },
    {
      "midi": 53,
      "hit": false,
      "t": 189620.84733333296,
      "d": 108.10766666667769,
      "v": 95
    },
    {
      "midi": 58,
      "hit": false,
      "t": 189620.84733333296,
      "d": 108.10766666667769,
      "v": 95
    },
    {
      "midi": 62,
      "hit": false,
      "t": 189620.84733333296,
      "d": 108.10766666667769,
      "v": 95
    },
    {
      "midi": 72,
      "hit": false,
      "t": 189728.95500000034,
      "d": 108.10766666667769,
      "v": 92
    },
    {
      "midi": 75,
      "hit": false,
      "t": 189728.95500000034,
      "d": 108.10766666667769,
      "v": 92
    },
    {
      "midi": 73,
      "hit": false,
      "t": 189945.1703333337,
      "d": 540.5383333333302,
      "v": 92
    },
    {
      "midi": 70,
      "hit": false,
      "t": 189945.1703333337,
      "d": 756.7536666666565,
      "v": 92
    },
    {
      "midi": 53,
      "hit": false,
      "t": 190269.49333333297,
      "d": 324.32300000000396,
      "v": 92
    },
    {
      "midi": 58,
      "hit": false,
      "t": 190269.49333333297,
      "d": 324.32300000000396,
      "v": 92
    },
    {
      "midi": 62,
      "hit": false,
      "t": 190269.49333333297,
      "d": 324.32300000000396,
      "v": 92
    },
    {
      "midi": 39,
      "hit": false,
      "t": 190593.81633333297,
      "d": 432.43066666668165,
      "v": 104
    },
    {
      "midi": 46,
      "hit": false,
      "t": 190593.81633333297,
      "d": 432.43066666668165,
      "v": 104
    },
    {
      "midi": 55,
      "hit": false,
      "t": 190918.13933333298,
      "d": 108.10766666667769,
      "v": 92
    },
    {
      "midi": 61,
      "hit": false,
      "t": 190918.13933333298,
      "d": 108.10766666667769,
      "v": 92
    },
    {
      "midi": 58,
      "hit": false,
      "t": 190918.13933333298,
      "d": 216.21533333335537,
      "v": 92
    },
    {
      "midi": 73,
      "hit": false,
      "t": 191026.24700000035,
      "d": 432.43066666668165,
      "v": 97
    },
    {
      "midi": 76,
      "hit": false,
      "t": 191026.24700000035,
      "d": 432.43066666668165,
      "v": 97
    },
    {
      "midi": 38,
      "hit": false,
      "t": 191242.462333333,
      "d": 324.32300000000396,
      "v": 104
    },
    {
      "midi": 72,
      "hit": false,
      "t": 191350.57000000036,
      "d": 216.21533333335537,
      "v": 95
    },
    {
      "midi": 75,
      "hit": false,
      "t": 191350.57000000036,
      "d": 324.32300000003306,
      "v": 95
    },
    {
      "midi": 55,
      "hit": false,
      "t": 191566.785333333,
      "d": 108.10766666667769,
      "v": 92
    },
    {
      "midi": 58,
      "hit": false,
      "t": 191566.785333333,
      "d": 108.10766666667769,
      "v": 92
    },
    {
      "midi": 61,
      "hit": false,
      "t": 191566.785333333,
      "d": 108.10766666667769,
      "v": 92
    },
    {
      "midi": 70,
      "hit": false,
      "t": 191566.7853333337,
      "d": 216.21533333335537,
      "v": 95
    },
    {
      "midi": 73,
      "hit": false,
      "t": 191566.7853333337,
      "d": 216.21533333335537,
      "v": 95
    },
    {
      "midi": 36,
      "hit": false,
      "t": 191891.10833333302,
      "d": 648.6460000000079,
      "v": 103
    },
    {
      "midi": 41,
      "hit": false,
      "t": 191891.10833333302,
      "d": 648.6460000000079,
      "v": 103
    },
    {
      "midi": 73,
      "hit": false,
      "t": 191999.2160000004,
      "d": 216.21533333332627,
      "v": 99
    },
    {
      "midi": 76,
      "hit": false,
      "t": 191999.2160000004,
      "d": 216.21533333332627,
      "v": 99
    },
    {
      "midi": 52,
      "hit": false,
      "t": 192215.43133333302,
      "d": 108.10766666667769,
      "v": 79
    },
    {
      "midi": 55,
      "hit": false,
      "t": 192215.43133333302,
      "d": 108.10766666667769,
      "v": 79
    },
    {
      "midi": 58,
      "hit": false,
      "t": 192215.43133333302,
      "d": 108.10766666667769,
      "v": 79
    },
    {
      "midi": 61,
      "hit": false,
      "t": 192215.43133333302,
      "d": 108.10766666667769,
      "v": 79
    },
    {
      "midi": 72,
      "hit": false,
      "t": 192323.5390000004,
      "d": 108.10766666667769,
      "v": 96
    },
    {
      "midi": 75,
      "hit": false,
      "t": 192323.5390000004,
      "d": 108.10766666667769,
      "v": 96
    },
    {
      "midi": 73,
      "hit": false,
      "t": 192539.75433333375,
      "d": 540.5383333333302,
      "v": 96
    },
    {
      "midi": 70,
      "hit": false,
      "t": 192539.75433333375,
      "d": 756.7536666666565,
      "v": 96
    },
    {
      "midi": 36,
      "hit": false,
      "t": 192864.07733333303,
      "d": 216.21533333332627,
      "v": 96
    },
    {
      "midi": 41,
      "hit": false,
      "t": 193188.40033333303,
      "d": 324.32300000000396,
      "v": 110
    },
    {
      "midi": 58,
      "hit": false,
      "t": 193512.72333333304,
      "d": 108.10766666667769,
      "v": 90
    },
    {
      "midi": 61,
      "hit": false,
      "t": 193512.72333333304,
      "d": 216.21533333335537,
      "v": 90
    },
    {
      "midi": 64,
      "hit": false,
      "t": 193512.72333333304,
      "d": 216.21533333335537,
      "v": 90
    },
    {
      "midi": 67,
      "hit": false,
      "t": 193512.72333333304,
      "d": 216.21533333335537,
      "v": 90
    },
    {
      "midi": 73,
      "hit": false,
      "t": 193620.8310000004,
      "d": 432.43066666668165,
      "v": 97
    },
    {
      "midi": 76,
      "hit": false,
      "t": 193620.8310000004,
      "d": 432.43066666668165,
      "v": 97
    },
    {
      "midi": 46,
      "hit": false,
      "t": 193837.04633333307,
      "d": 432.43066666668165,
      "v": 111
    },
    {
      "midi": 72,
      "hit": false,
      "t": 193945.15400000042,
      "d": 216.21533333335537,
      "v": 99
    },
    {
      "midi": 75,
      "hit": false,
      "t": 193945.15400000042,
      "d": 324.32300000003306,
      "v": 99
    },
    {
      "midi": 55,
      "hit": false,
      "t": 194161.36933333307,
      "d": 432.43066666668165,
      "v": 89
    },
    {
      "midi": 58,
      "hit": false,
      "t": 194161.36933333307,
      "d": 432.43066666668165,
      "v": 89
    },
    {
      "midi": 61,
      "hit": false,
      "t": 194161.36933333307,
      "d": 432.43066666668165,
      "v": 89
    },
    {
      "midi": 64,
      "hit": false,
      "t": 194161.36933333307,
      "d": 432.43066666668165,
      "v": 89
    },
    {
      "midi": 70,
      "hit": false,
      "t": 194161.36933333377,
      "d": 216.21533333335537,
      "v": 99
    },
    {
      "midi": 73,
      "hit": false,
      "t": 194161.36933333377,
      "d": 216.21533333335537,
      "v": 99
    },
    {
      "midi": 39,
      "hit": false,
      "t": 194485.69233333308,
      "d": 324.32300000000396,
      "v": 107
    },
    {
      "midi": 73,
      "hit": false,
      "t": 194593.80000000045,
      "d": 216.21533333332627,
      "v": 97
    },
    {
      "midi": 76,
      "hit": false,
      "t": 194593.80000000045,
      "d": 216.21533333332627,
      "v": 97
    },
    {
      "midi": 55,
      "hit": false,
      "t": 194810.01533333308,
      "d": 108.10766666667769,
      "v": 98
    },
    {
      "midi": 58,
      "hit": false,
      "t": 194810.01533333308,
      "d": 108.10766666667769,
      "v": 98
    },
    {
      "midi": 61,
      "hit": false,
      "t": 194810.01533333308,
      "d": 108.10766666667769,
      "v": 98
    },
    {
      "midi": 64,
      "hit": false,
      "t": 194810.01533333308,
      "d": 108.10766666667769,
      "v": 98
    },
    {
      "midi": 72,
      "hit": false,
      "t": 194918.12300000046,
      "d": 108.10766666667769,
      "v": 96
    },
    {
      "midi": 75,
      "hit": false,
      "t": 194918.12300000046,
      "d": 108.10766666667769,
      "v": 96
    },
    {
      "midi": 40,
      "hit": false,
      "t": 195134.3383333331,
      "d": 432.43066666668165,
      "v": 109
    },
    {
      "midi": 70,
      "hit": false,
      "t": 195134.3383333338,
      "d": 540.5383333333302,
      "v": 93
    },
    {
      "midi": 73,
      "hit": false,
      "t": 195134.3383333338,
      "d": 540.5383333333302,
      "v": 93
    },
    {
      "midi": 55,
      "hit": false,
      "t": 195458.6613333331,
      "d": 129.72920000000158,
      "v": 68
    },
    {
      "midi": 64,
      "hit": false,
      "t": 195458.6613333331,
      "d": 132.43189166666707,
      "v": 68
    },
    {
      "midi": 61,
      "hit": false,
      "t": 195458.6613333331,
      "d": 143.24265833332902,
      "v": 85
    },
    {
      "midi": 58,
      "hit": false,
      "t": 195458.6613333331,
      "d": 159.45880833332194,
      "v": 89
    },
    {
      "midi": 41,
      "hit": false,
      "t": 195782.98433333306,
      "d": 324.32300000000396,
      "v": 106
    },
    {
      "midi": 53,
      "hit": false,
      "t": 195782.98433333306,
      "d": 324.32300000000396,
      "v": 106
    },
    {
      "midi": 53,
      "hit": false,
      "t": 196107.30733333307,
      "d": 108.10766666667769,
      "v": 89
    },
    {
      "midi": 62,
      "hit": false,
      "t": 196107.30733333307,
      "d": 108.10766666667769,
      "v": 89
    },
    {
      "midi": 58,
      "hit": false,
      "t": 196107.30733333307,
      "d": 216.21533333335537,
      "v": 89
    },
    {
      "midi": 73,
      "hit": false,
      "t": 196215.41500000047,
      "d": 432.43066666668165,
      "v": 94
    },
    {
      "midi": 76,
      "hit": false,
      "t": 196215.41500000047,
      "d": 432.43066666668165,
      "v": 94
    },
    {
      "midi": 42,
      "hit": false,
      "t": 196431.6303333331,
      "d": 432.43066666668165,
      "v": 109
    },
    {
      "midi": 54,
      "hit": false,
      "t": 196431.6303333331,
      "d": 432.43066666668165,
      "v": 109
    },
    {
      "midi": 72,
      "hit": false,
      "t": 196539.73800000048,
      "d": 216.21533333335537,
      "v": 94
    },
    {
      "midi": 75,
      "hit": false,
      "t": 196539.73800000048,
      "d": 324.32300000003306,
      "v": 94
    },
    {
      "midi": 55,
      "hit": false,
      "t": 196755.9533333331,
      "d": 108.10766666667769,
      "v": 91
    },
    {
      "midi": 61,
      "hit": false,
      "t": 196755.9533333331,
      "d": 108.10766666667769,
      "v": 91
    },
    {
      "midi": 58,
      "hit": false,
      "t": 196755.9533333331,
      "d": 216.21533333335537,
      "v": 91
    },
    {
      "midi": 70,
      "hit": false,
      "t": 196755.95333333383,
      "d": 108.10766666667769,
      "v": 94
    },
    {
      "midi": 73,
      "hit": false,
      "t": 196755.95333333383,
      "d": 108.10766666667769,
      "v": 94
    },
    {
      "midi": 43,
      "hit": false,
      "t": 197080.27633333314,
      "d": 324.32300000000396,
      "v": 110
    },
    {
      "midi": 55,
      "hit": false,
      "t": 197080.27633333314,
      "d": 324.32300000000396,
      "v": 110
    },
    {
      "midi": 73,
      "hit": false,
      "t": 197188.38400000051,
      "d": 216.21533333332627,
      "v": 93
    },
    {
      "midi": 76,
      "hit": false,
      "t": 197188.38400000051,
      "d": 216.21533333332627,
      "v": 93
    },
    {
      "midi": 55,
      "hit": false,
      "t": 197404.59933333314,
      "d": 108.10766666667769,
      "v": 93
    },
    {
      "midi": 58,
      "hit": false,
      "t": 197404.59933333314,
      "d": 108.10766666667769,
      "v": 93
    },
    {
      "midi": 61,
      "hit": false,
      "t": 197404.59933333314,
      "d": 108.10766666667769,
      "v": 93
    },
    {
      "midi": 72,
      "hit": false,
      "t": 197512.70700000052,
      "d": 108.10766666667769,
      "v": 96
    },
    {
      "midi": 75,
      "hit": false,
      "t": 197512.70700000052,
      "d": 216.21533333335537,
      "v": 96
    },
    {
      "midi": 46,
      "hit": false,
      "t": 197728.92233333315,
      "d": 432.43066666668165,
      "v": 110
    },
    {
      "midi": 70,
      "hit": false,
      "t": 197728.92233333387,
      "d": 216.21533333332627,
      "v": 97
    },
    {
      "midi": 73,
      "hit": false,
      "t": 197728.92233333387,
      "d": 216.21533333332627,
      "v": 97
    },
    {
      "midi": 55,
      "hit": false,
      "t": 198053.24533333315,
      "d": 202.70187499999884,
      "v": 94
    },
    {
      "midi": 61,
      "hit": false,
      "t": 198053.24533333315,
      "d": 205.40456666666432,
      "v": 94
    },
    {
      "midi": 58,
      "hit": false,
      "t": 198053.24533333315,
      "d": 227.02609999998822,
      "v": 94
    },
    {
      "midi": 67,
      "hit": false,
      "t": 198053.24533333388,
      "d": 324.32300000000396,
      "v": 97
    },
    {
      "midi": 70,
      "hit": false,
      "t": 198053.24533333388,
      "d": 324.32300000000396,
      "v": 97
    },
    {
      "midi": 36,
      "hit": false,
      "t": 198485.6759999998,
      "d": 324.32300000000396,
      "v": 96
    },
    {
      "midi": 70,
      "hit": false,
      "t": 198485.67600000056,
      "d": 216.21533333332627,
      "v": 96
    },
    {
      "midi": 67,
      "hit": false,
      "t": 198485.67600000056,
      "d": 324.32300000000396,
      "v": 96
    },
    {
      "midi": 73,
      "hit": false,
      "t": 198485.67600000056,
      "d": 324.32300000000396,
      "v": 96
    },
    {
      "midi": 64,
      "hit": false,
      "t": 198701.89133333313,
      "d": 118.91843333333964,
      "v": 89
    },
    {
      "midi": 55,
      "hit": false,
      "t": 198701.89133333313,
      "d": 129.72920000000158,
      "v": 85
    },
    {
      "midi": 61,
      "hit": false,
      "t": 198701.89133333313,
      "d": 137.83727499999804,
      "v": 85
    },
    {
      "midi": 58,
      "hit": false,
      "t": 198701.89133333313,
      "d": 143.24265833332902,
      "v": 51
    },
    {
      "midi": 64,
      "hit": false,
      "t": 199026.2143333339,
      "d": 108.10766666667769,
      "v": 94
    },
    {
      "midi": 67,
      "hit": false,
      "t": 199026.2143333339,
      "d": 108.10766666667769,
      "v": 94
    },
    {
      "midi": 70,
      "hit": false,
      "t": 199026.2143333339,
      "d": 108.10766666667769,
      "v": 94
    },
    {
      "midi": 41,
      "hit": false,
      "t": 199134.32199999978,
      "d": 324.32300000000396,
      "v": 99
    },
    {
      "midi": 68,
      "hit": false,
      "t": 199134.32200000057,
      "d": 324.32300000000396,
      "v": 94
    },
    {
      "midi": 48,
      "hit": false,
      "t": 199458.6449999998,
      "d": 116.21574166667415,
      "v": 62
    },
    {
      "midi": 53,
      "hit": false,
      "t": 199458.6449999998,
      "d": 121.62112500000512,
      "v": 89
    },
    {
      "midi": 57,
      "hit": false,
      "t": 199458.6449999998,
      "d": 121.62112500000512,
      "v": 76
    },
    {
      "midi": 65,
      "hit": false,
      "t": 199458.64500000057,
      "d": 216.21533333332627,
      "v": 93
    },
    {
      "midi": 46,
      "hit": false,
      "t": 199674.8603333331,
      "d": 540.5383333333593,
      "v": 75
    },
    {
      "midi": 70,
      "hit": false,
      "t": 199674.8603333339,
      "d": 1189.1843333333672,
      "v": 98
    },
    {
      "midi": 40,
      "hit": false,
      "t": 199999.18333333312,
      "d": 108.10766666667769,
      "v": 59
    },
    {
      "midi": 41,
      "hit": false,
      "t": 199999.18333333312,
      "d": 540.5383333333593,
      "v": 99
    },
    {
      "midi": 79,
      "hit": false,
      "t": 200647.8293333339,
      "d": 162.16150000001653,
      "v": 89
    },
    {
      "midi": 77,
      "hit": false,
      "t": 200755.9370000006,
      "d": 324.32300000003306,
      "v": 86
    },
    {
      "midi": 69,
      "hit": false,
      "t": 200972.15233333394,
      "d": 648.6460000000079,
      "v": 83
    },
    {
      "midi": 57,
      "hit": false,
      "t": 201404.5829999998,
      "d": 486.4844999999914,
      "v": 59
    },
    {
      "midi": 60,
      "hit": false,
      "t": 201404.5829999998,
      "d": 486.4844999999914,
      "v": 59
    },
    {
      "midi": 63,
      "hit": false,
      "t": 201404.5829999998,
      "d": 486.4844999999914,
      "v": 69
    },
    {
      "midi": 79,
      "hit": false,
      "t": 201728.90600000063,
      "d": 162.16149999998743,
      "v": 87
    },
    {
      "midi": 77,
      "hit": false,
      "t": 201891.06750000062,
      "d": 162.16149999998743,
      "v": 84
    },
    {
      "midi": 68,
      "hit": false,
      "t": 202053.2290000006,
      "d": 567.5652500000142,
      "v": 84
    },
    {
      "midi": 56,
      "hit": false,
      "t": 202377.5519999998,
      "d": 486.4844999999914,
      "v": 60
    },
    {
      "midi": 58,
      "hit": false,
      "t": 202377.5519999998,
      "d": 486.4844999999914,
      "v": 60
    },
    {
      "midi": 62,
      "hit": false,
      "t": 202377.5519999998,
      "d": 486.4844999999914,
      "v": 60
    },
    {
      "midi": 77,
      "hit": false,
      "t": 202701.8750000006,
      "d": 243.24224999998114,
      "v": 93
    },
    {
      "midi": 75,
      "hit": false,
      "t": 202864.0365000006,
      "d": 162.16149999998743,
      "v": 92
    },
    {
      "midi": 67,
      "hit": false,
      "t": 203026.1980000006,
      "d": 567.5652500000142,
      "v": 89
    },
    {
      "midi": 65,
      "hit": false,
      "t": 203350.52099999978,
      "d": 162.16149999998743,
      "v": 60
    },
    {
      "midi": 55,
      "hit": false,
      "t": 203350.52099999978,
      "d": 324.32299999997485,
      "v": 60
    },
    {
      "midi": 62,
      "hit": false,
      "t": 203350.52099999978,
      "d": 324.32299999997485,
      "v": 60
    },
    {
      "midi": 58,
      "hit": false,
      "t": 203350.52099999978,
      "d": 486.4844999999623,
      "v": 60
    },
    {
      "midi": 77,
      "hit": false,
      "t": 203674.8440000006,
      "d": 162.16149999998743,
      "v": 89
    },
    {
      "midi": 75,
      "hit": false,
      "t": 203837.00550000058,
      "d": 162.16149999998743,
      "v": 87
    },
    {
      "midi": 66,
      "hit": false,
      "t": 203999.16700000057,
      "d": 486.4844999999914,
      "v": 85
    },
    {
      "midi": 54,
      "hit": false,
      "t": 204323.48999999973,
      "d": 324.32300000000396,
      "v": 69
    },
    {
      "midi": 58,
      "hit": false,
      "t": 204323.48999999973,
      "d": 324.32300000000396,
      "v": 69
    },
    {
      "midi": 63,
      "hit": false,
      "t": 204323.48999999973,
      "d": 324.32300000000396,
      "v": 69
    },
    {
      "midi": 65,
      "hit": false,
      "t": 204647.81300000055,
      "d": 162.16149999998743,
      "v": 84
    },
    {
      "midi": 67,
      "hit": false,
      "t": 204809.97450000054,
      "d": 162.16149999998743,
      "v": 80
    },
    {
      "midi": 69,
      "hit": false,
      "t": 204972.13600000052,
      "d": 324.32300000000396,
      "v": 77
    },
    {
      "midi": 53,
      "hit": false,
      "t": 205296.45899999974,
      "d": 324.32300000000396,
      "v": 68
    },
    {
      "midi": 58,
      "hit": false,
      "t": 205296.45899999974,
      "d": 324.32300000000396,
      "v": 68
    },
    {
      "midi": 62,
      "hit": false,
      "t": 205296.45899999974,
      "d": 324.32300000000396,
      "v": 68
    },
    {
      "midi": 67,
      "hit": false,
      "t": 205296.45900000053,
      "d": 243.24225000001024,
      "v": 77
    },
    {
      "midi": 70,
      "hit": false,
      "t": 205296.45900000053,
      "d": 405.4037499999977,
      "v": 77
    },
    {
      "midi": 69,
      "hit": false,
      "t": 205620.78200000053,
      "d": 324.32300000000396,
      "v": 83
    },
    {
      "midi": 72,
      "hit": false,
      "t": 205620.78200000053,
      "d": 324.32300000000396,
      "v": 83
    },
    {
      "midi": 74,
      "hit": false,
      "t": 205945.10500000053,
      "d": 243.24225000001024,
      "v": 85
    },
    {
      "midi": 70,
      "hit": false,
      "t": 205945.10500000053,
      "d": 324.32300000000396,
      "v": 85
    },
    {
      "midi": 55,
      "hit": false,
      "t": 206269.42799999975,
      "d": 162.16149999998743,
      "v": 63
    },
    {
      "midi": 62,
      "hit": false,
      "t": 206269.42799999975,
      "d": 162.16149999998743,
      "v": 63
    },
    {
      "midi": 65,
      "hit": false,
      "t": 206269.42799999975,
      "d": 324.32299999997485,
      "v": 63
    },
    {
      "midi": 58,
      "hit": false,
      "t": 206269.42799999975,
      "d": 486.4844999999623,
      "v": 63
    },
    {
      "midi": 72,
      "hit": false,
      "t": 206269.42800000054,
      "d": 324.32300000000396,
      "v": 85
    },
    {
      "midi": 75,
      "hit": false,
      "t": 206269.42800000054,
      "d": 324.32300000000396,
      "v": 85
    },
    {
      "midi": 74,
      "hit": false,
      "t": 206593.75100000054,
      "d": 324.32300000000396,
      "v": 85
    },
    {
      "midi": 77,
      "hit": false,
      "t": 206593.75100000054,
      "d": 324.32300000000396,
      "v": 85
    },
    {
      "midi": 79,
      "hit": false,
      "t": 206918.07400000055,
      "d": 972.9690000000119,
      "v": 86
    },
    {
      "midi": 60,
      "hit": false,
      "t": 207242.3969999997,
      "d": 486.4844999999914,
      "v": 61
    },
    {
      "midi": 62,
      "hit": false,
      "t": 207242.3969999997,
      "d": 486.4844999999914,
      "v": 61
    },
    {
      "midi": 67,
      "hit": false,
      "t": 207242.3969999997,
      "d": 486.4844999999914,
      "v": 61
    },
    {
      "midi": 59,
      "hit": false,
      "t": 208215.3659999997,
      "d": 324.32300000000396,
      "v": 64
    },
    {
      "midi": 62,
      "hit": false,
      "t": 208215.3659999997,
      "d": 324.32300000000396,
      "v": 64
    },
    {
      "midi": 65,
      "hit": false,
      "t": 208215.3659999997,
      "d": 486.4844999999914,
      "v": 64
    },
    {
      "midi": 81,
      "hit": false,
      "t": 208431.5813333339,
      "d": 324.32300000000396,
      "v": 95
    },
    {
      "midi": 79,
      "hit": false,
      "t": 208755.9043333339,
      "d": 162.16150000001653,
      "v": 87
    },
    {
      "midi": 57,
      "hit": false,
      "t": 208864.01199999967,
      "d": 486.4844999999914,
      "v": 68
    },
    {
      "midi": 61,
      "hit": false,
      "t": 208864.01199999967,
      "d": 486.4844999999914,
      "v": 68
    },
    {
      "midi": 67,
      "hit": false,
      "t": 208864.01199999967,
      "d": 486.4844999999914,
      "v": 68
    },
    {
      "midi": 73,
      "hit": false,
      "t": 208864.01200000057,
      "d": 243.24225000001024,
      "v": 87
    },
    {
      "midi": 77,
      "hit": false,
      "t": 209188.33500000057,
      "d": 162.16149999998743,
      "v": 80
    },
    {
      "midi": 81,
      "hit": false,
      "t": 209188.33500000057,
      "d": 324.32299999997485,
      "v": 98
    },
    {
      "midi": 76,
      "hit": false,
      "t": 209512.65800000055,
      "d": 243.24225000001024,
      "v": 72
    },
    {
      "midi": 79,
      "hit": false,
      "t": 209512.65800000055,
      "d": 324.32300000000396,
      "v": 89
    },
    {
      "midi": 57,
      "hit": false,
      "t": 209836.98099999965,
      "d": 486.4844999999914,
      "v": 67
    },
    {
      "midi": 60,
      "hit": false,
      "t": 209836.98099999965,
      "d": 486.4844999999914,
      "v": 67
    },
    {
      "midi": 65,
      "hit": false,
      "t": 209836.98099999965,
      "d": 486.4844999999914,
      "v": 67
    },
    {
      "midi": 74,
      "hit": false,
      "t": 209836.98100000055,
      "d": 486.4844999999914,
      "v": 80
    },
    {
      "midi": 77,
      "hit": false,
      "t": 209836.98100000055,
      "d": 567.5652499999851,
      "v": 72
    },
    {
      "midi": 79,
      "hit": false,
      "t": 210377.51933333388,
      "d": 324.32299999997485,
      "v": 95
    },
    {
      "midi": 77,
      "hit": false,
      "t": 210701.84233333386,
      "d": 162.16150000001653,
      "v": 87
    },
    {
      "midi": 65,
      "hit": false,
      "t": 210809.94999999963,
      "d": 324.32300000000396,
      "v": 65
    },
    {
      "midi": 62,
      "hit": false,
      "t": 210809.94999999963,
      "d": 486.4844999999914,
      "v": 65
    },
    {
      "midi": 67,
      "hit": false,
      "t": 210809.94999999963,
      "d": 486.4844999999914,
      "v": 65
    },
    {
      "midi": 59,
      "hit": false,
      "t": 210809.94999999963,
      "d": 810.8074999999953,
      "v": 65
    },
    {
      "midi": 71,
      "hit": false,
      "t": 210809.95000000054,
      "d": 243.24225000001024,
      "v": 86
    },
    {
      "midi": 75,
      "hit": false,
      "t": 211134.27300000054,
      "d": 324.32300000000396,
      "v": 95
    },
    {
      "midi": 79,
      "hit": false,
      "t": 211134.27300000054,
      "d": 324.32300000000396,
      "v": 95
    },
    {
      "midi": 74,
      "hit": false,
      "t": 211458.59600000054,
      "d": 324.32300000000396,
      "v": 92
    },
    {
      "midi": 77,
      "hit": false,
      "t": 211458.59600000054,
      "d": 324.32300000000396,
      "v": 92
    },
    {
      "midi": 55,
      "hit": false,
      "t": 211782.91899999962,
      "d": 324.32300000000396,
      "v": 68
    },
    {
      "midi": 60,
      "hit": false,
      "t": 211782.91899999962,
      "d": 324.32300000000396,
      "v": 68
    },
    {
      "midi": 67,
      "hit": false,
      "t": 211782.91899999962,
      "d": 324.32300000000396,
      "v": 68
    },
    {
      "midi": 63,
      "hit": false,
      "t": 211782.91899999962,
      "d": 486.4844999999914,
      "v": 68
    },
    {
      "midi": 72,
      "hit": false,
      "t": 211782.91900000055,
      "d": 486.4844999999914,
      "v": 88
    },
    {
      "midi": 75,
      "hit": false,
      "t": 211782.91900000055,
      "d": 567.5652499999851,
      "v": 88
    },
    {
      "midi": 74,
      "hit": false,
      "t": 212323.45733333388,
      "d": 216.21533333332627,
      "v": 87
    },
    {
      "midi": 72,
      "hit": false,
      "t": 212593.72650000054,
      "d": 81.08074999999371,
      "v": 89
    },
    {
      "midi": 72,
      "hit": false,
      "t": 212755.88800000053,
      "d": 243.24225000001024,
      "v": 90
    },
    {
      "midi": 74,
      "hit": false,
      "t": 212755.88800000053,
      "d": 324.32300000000396,
      "v": 90
    },
    {
      "midi": 46,
      "hit": false,
      "t": 212755.88800000053,
      "d": 648.6460000000079,
      "v": 90
    },
    {
      "midi": 58,
      "hit": false,
      "t": 213080.2109999996,
      "d": 324.32300000000396,
      "v": 65
    },
    {
      "midi": 62,
      "hit": false,
      "t": 213080.2109999996,
      "d": 324.32300000000396,
      "v": 65
    },
    {
      "midi": 65,
      "hit": false,
      "t": 213080.2109999996,
      "d": 324.32300000000396,
      "v": 65
    },
    {
      "midi": 72,
      "hit": false,
      "t": 213080.21100000053,
      "d": 243.24225000001024,
      "v": 90
    },
    {
      "midi": 75,
      "hit": false,
      "t": 213080.21100000053,
      "d": 324.32300000000396,
      "v": 90
    },
    {
      "midi": 77,
      "hit": false,
      "t": 213404.53400000054,
      "d": 243.24224999998114,
      "v": 91
    },
    {
      "midi": 45,
      "hit": false,
      "t": 213418.04745833387,
      "d": 337.8364583333023,
      "v": 91
    },
    {
      "midi": 79,
      "hit": false,
      "t": 213728.8570000005,
      "d": 324.32299999997485,
      "v": 92
    },
    {
      "midi": 43,
      "hit": false,
      "t": 213736.9650750005,
      "d": 808.1048083333008,
      "v": 92
    },
    {
      "midi": 55,
      "hit": false,
      "t": 214053.17999999961,
      "d": 324.32300000000396,
      "v": 68
    },
    {
      "midi": 63,
      "hit": false,
      "t": 214053.17999999961,
      "d": 324.32300000000396,
      "v": 68
    },
    {
      "midi": 81,
      "hit": false,
      "t": 214053.1800000005,
      "d": 405.4037499999977,
      "v": 96
    },
    {
      "midi": 82,
      "hit": false,
      "t": 214377.5030000005,
      "d": 81.08074999999371,
      "v": 97
    },
    {
      "midi": 58,
      "hit": false,
      "t": 214701.82599999962,
      "d": 162.16149999998743,
      "v": 73
    },
    {
      "midi": 67,
      "hit": false,
      "t": 214701.82599999962,
      "d": 486.4844999999914,
      "v": 73
    },
    {
      "midi": 64,
      "hit": false,
      "t": 214701.82599999962,
      "d": 648.6459999999788,
      "v": 73
    },
    {
      "midi": 62,
      "hit": false,
      "t": 214701.82599999962,
      "d": 810.8074999999662,
      "v": 73
    },
    {
      "midi": 48,
      "hit": false,
      "t": 214701.82600000047,
      "d": 532.4302583333338,
      "v": 99
    },
    {
      "midi": 76,
      "hit": false,
      "t": 214701.82600000047,
      "d": 972.9690000000119,
      "v": 99
    },
    {
      "midi": 72,
      "hit": false,
      "t": 214701.82600000047,
      "d": 1054.0497500000056,
      "v": 99
    },
    {
      "midi": 84,
      "hit": false,
      "t": 214701.82600000047,
      "d": 1135.1304999999993,
      "v": 99
    },
    {
      "midi": 81,
      "hit": false,
      "t": 214701.82600000047,
      "d": 1216.211249999993,
      "v": 99
    },
    {
      "midi": 41,
      "hit": false,
      "t": 215674.79499999958,
      "d": 324.32300000000396,
      "v": 74
    },
    {
      "midi": 53,
      "hit": false,
      "t": 215999.11799999958,
      "d": 324.32300000000396,
      "v": 76
    },
    {
      "midi": 57,
      "hit": false,
      "t": 215999.11799999958,
      "d": 324.32300000000396,
      "v": 76
    },
    {
      "midi": 60,
      "hit": false,
      "t": 215999.11799999958,
      "d": 486.4844999999914,
      "v": 76
    },
    {
      "midi": 63,
      "hit": false,
      "t": 215999.11799999958,
      "d": 486.4844999999914,
      "v": 76
    },
    {
      "midi": 86,
      "hit": false,
      "t": 216323.44100000046,
      "d": 243.24224999998114,
      "v": 95
    },
    {
      "midi": 84,
      "hit": false,
      "t": 216485.60250000044,
      "d": 243.24224999998114,
      "v": 95
    },
    {
      "midi": 46,
      "hit": false,
      "t": 216642.3586166671,
      "d": 508.1060333333153,
      "v": 94
    },
    {
      "midi": 77,
      "hit": false,
      "t": 216647.76400000043,
      "d": 405.4037499999977,
      "v": 94
    },
    {
      "midi": 53,
      "hit": false,
      "t": 216972.08699999956,
      "d": 162.16149999998743,
      "v": 69
    },
    {
      "midi": 62,
      "hit": false,
      "t": 216972.08699999956,
      "d": 324.32299999997485,
      "v": 69
    },
    {
      "midi": 58,
      "hit": false,
      "t": 216972.08699999956,
      "d": 486.4844999999623,
      "v": 69
    },
    {
      "midi": 74,
      "hit": false,
      "t": 217296.4100000004,
      "d": 162.16149999998743,
      "v": 83
    },
    {
      "midi": 72,
      "hit": false,
      "t": 217458.5715000004,
      "d": 162.16149999998743,
      "v": 83
    },
    {
      "midi": 46,
      "hit": false,
      "t": 217604.5168500004,
      "d": 321.62030833333847,
      "v": 82
    },
    {
      "midi": 66,
      "hit": false,
      "t": 217620.7330000004,
      "d": 405.4037500000268,
      "v": 82
    },
    {
      "midi": 54,
      "hit": false,
      "t": 217945.05599999952,
      "d": 486.4844999999914,
      "v": 70
    },
    {
      "midi": 58,
      "hit": false,
      "t": 217945.05599999952,
      "d": 486.4844999999914,
      "v": 70
    },
    {
      "midi": 62,
      "hit": false,
      "t": 217945.05599999952,
      "d": 486.4844999999914,
      "v": 70
    },
    {
      "midi": 74,
      "hit": false,
      "t": 218269.37900000042,
      "d": 162.16149999998743,
      "v": 86
    },
    {
      "midi": 72,
      "hit": false,
      "t": 218431.5405000004,
      "d": 162.16149999998743,
      "v": 85
    },
    {
      "midi": 46,
      "hit": false,
      "t": 218582.89123333374,
      "d": 283.78262499999255,
      "v": 85
    },
    {
      "midi": 67,
      "hit": false,
      "t": 218593.7020000004,
      "d": 486.4844999999914,
      "v": 85
    },
    {
      "midi": 55,
      "hit": false,
      "t": 218918.0249999995,
      "d": 486.4844999999914,
      "v": 73
    },
    {
      "midi": 58,
      "hit": false,
      "t": 218918.0249999995,
      "d": 486.4844999999914,
      "v": 73
    },
    {
      "midi": 62,
      "hit": false,
      "t": 218918.0249999995,
      "d": 486.4844999999914,
      "v": 73
    },
    {
      "midi": 74,
      "hit": false,
      "t": 219242.34800000038,
      "d": 243.24224999998114,
      "v": 87
    },
    {
      "midi": 72,
      "hit": false,
      "t": 219404.50950000036,
      "d": 162.16149999998743,
      "v": 86
    },
    {
      "midi": 46,
      "hit": false,
      "t": 219561.26561666702,
      "d": 270.2691666666651,
      "v": 82
    },
    {
      "midi": 68,
      "hit": false,
      "t": 219566.67100000035,
      "d": 486.4844999999914,
      "v": 82
    },
    {
      "midi": 56,
      "hit": false,
      "t": 219890.99399999948,
      "d": 324.32300000000396,
      "v": 76
    },
    {
      "midi": 58,
      "hit": false,
      "t": 219890.99399999948,
      "d": 324.32300000000396,
      "v": 76
    },
    {
      "midi": 62,
      "hit": false,
      "t": 219890.99399999948,
      "d": 324.32300000000396,
      "v": 76
    },
    {
      "midi": 74,
      "hit": false,
      "t": 220215.31700000033,
      "d": 162.16149999998743,
      "v": 86
    },
    {
      "midi": 72,
      "hit": false,
      "t": 220377.47850000032,
      "d": 162.16149999998743,
      "v": 86
    },
    {
      "midi": 57,
      "hit": false,
      "t": 220539.6399999995,
      "d": 162.16149999998743,
      "v": 80
    },
    {
      "midi": 62,
      "hit": false,
      "t": 220539.6399999995,
      "d": 162.16149999998743,
      "v": 80
    },
    {
      "midi": 65,
      "hit": false,
      "t": 220539.6399999995,
      "d": 162.16149999998743,
      "v": 80
    },
    {
      "midi": 69,
      "hit": false,
      "t": 220539.6400000003,
      "d": 324.32300000000396,
      "v": 86
    },
    {
      "midi": 58,
      "hit": false,
      "t": 220863.96299999946,
      "d": 162.16149999998743,
      "v": 80
    },
    {
      "midi": 62,
      "hit": false,
      "t": 220863.96299999946,
      "d": 162.16149999998743,
      "v": 80
    },
    {
      "midi": 65,
      "hit": false,
      "t": 220863.96299999946,
      "d": 162.16149999998743,
      "v": 80
    },
    {
      "midi": 70,
      "hit": false,
      "t": 220863.9630000003,
      "d": 324.32300000000396,
      "v": 87
    },
    {
      "midi": 72,
      "hit": false,
      "t": 221188.2860000003,
      "d": 324.32300000000396,
      "v": 87
    },
    {
      "midi": 53,
      "hit": false,
      "t": 221512.60899999944,
      "d": 162.16149999998743,
      "v": 79
    },
    {
      "midi": 58,
      "hit": false,
      "t": 221512.60899999944,
      "d": 162.16149999998743,
      "v": 79
    },
    {
      "midi": 62,
      "hit": false,
      "t": 221512.60899999944,
      "d": 162.16149999998743,
      "v": 79
    },
    {
      "midi": 74,
      "hit": false,
      "t": 221512.60900000032,
      "d": 405.4037499999977,
      "v": 88
    },
    {
      "midi": 63,
      "hit": false,
      "t": 221836.93199999942,
      "d": 162.16149999998743,
      "v": 78
    },
    {
      "midi": 53,
      "hit": false,
      "t": 221836.93199999942,
      "d": 324.32299999997485,
      "v": 78
    },
    {
      "midi": 75,
      "hit": false,
      "t": 221836.93200000032,
      "d": 324.32300000000396,
      "v": 89
    },
    {
      "midi": 50,
      "hit": false,
      "t": 222161.2549999994,
      "d": 162.16149999998743,
      "v": 79
    },
    {
      "midi": 77,
      "hit": false,
      "t": 222161.25500000032,
      "d": 324.32300000000396,
      "v": 93
    },
    {
      "midi": 54,
      "hit": false,
      "t": 222485.57799999937,
      "d": 324.32300000000396,
      "v": 80
    },
    {
      "midi": 66,
      "hit": false,
      "t": 222485.57800000033,
      "d": 81.08074999999371,
      "v": 93
    },
    {
      "midi": 78,
      "hit": false,
      "t": 222485.57800000033,
      "d": 81.08074999999371,
      "v": 93
    },
    {
      "midi": 70,
      "hit": false,
      "t": 222593.68566666698,
      "d": 81.08074999999371,
      "v": 93
    },
    {
      "midi": 75,
      "hit": false,
      "t": 222701.79333333363,
      "d": 162.16150000001653,
      "v": 94
    },
    {
      "midi": 58,
      "hit": false,
      "t": 222809.90099999937,
      "d": 324.32300000000396,
      "v": 82
    },
    {
      "midi": 61,
      "hit": false,
      "t": 222809.90099999937,
      "d": 324.32300000000396,
      "v": 82
    },
    {
      "midi": 66,
      "hit": false,
      "t": 222809.90099999937,
      "d": 324.32300000000396,
      "v": 82
    },
    {
      "midi": 78,
      "hit": false,
      "t": 222809.9010000003,
      "d": 162.16150000001653,
      "v": 94
    },
    {
      "midi": 82,
      "hit": false,
      "t": 222918.00866666698,
      "d": 81.08074999999371,
      "v": 95
    },
    {
      "midi": 87,
      "hit": false,
      "t": 223026.11633333363,
      "d": 81.08074999999371,
      "v": 96
    },
    {
      "midi": 90,
      "hit": false,
      "t": 223134.22400000028,
      "d": 162.16150000001653,
      "v": 97
    },
    {
      "midi": 94,
      "hit": false,
      "t": 223242.33166666696,
      "d": 81.08074999999371,
      "v": 98
    },
    {
      "midi": 99,
      "hit": false,
      "t": 223350.4393333336,
      "d": 81.08074999999371,
      "v": 99
    },
    {
      "midi": 102,
      "hit": false,
      "t": 223458.54700000025,
      "d": 81.08074999999371,
      "v": 100
    },
    {
      "midi": 55,
      "hit": false,
      "t": 223782.86999999938,
      "d": 324.32300000000396,
      "v": 81
    },
    {
      "midi": 64,
      "hit": false,
      "t": 223782.86999999938,
      "d": 324.32300000000396,
      "v": 81
    },
    {
      "midi": 58,
      "hit": false,
      "t": 223782.86999999938,
      "d": 486.4844999999914,
      "v": 81
    },
    {
      "midi": 79,
      "hit": false,
      "t": 224107.19300000023,
      "d": 162.16149999998743,
      "v": 93
    },
    {
      "midi": 77,
      "hit": false,
      "t": 224269.35450000022,
      "d": 162.16149999998743,
      "v": 92
    },
    {
      "midi": 69,
      "hit": false,
      "t": 224431.5160000002,
      "d": 243.24225000001024,
      "v": 92
    },
    {
      "midi": 41,
      "hit": false,
      "t": 224431.5160000002,
      "d": 297.2960833333491,
      "v": 92
    },
    {
      "midi": 51,
      "hit": false,
      "t": 224755.83899999937,
      "d": 162.16149999998743,
      "v": 67
    },
    {
      "midi": 55,
      "hit": false,
      "t": 224755.83899999937,
      "d": 162.16149999998743,
      "v": 67
    },
    {
      "midi": 57,
      "hit": false,
      "t": 224755.83899999937,
      "d": 162.16149999998743,
      "v": 67
    },
    {
      "midi": 48,
      "hit": false,
      "t": 224755.83899999937,
      "d": 324.32299999997485,
      "v": 67
    },
    {
      "midi": 79,
      "hit": false,
      "t": 225080.16200000021,
      "d": 162.16149999998743,
      "v": 89
    },
    {
      "midi": 77,
      "hit": false,
      "t": 225242.3235000002,
      "d": 162.16149999998743,
      "v": 88
    },
    {
      "midi": 68,
      "hit": false,
      "t": 225404.4850000002,
      "d": 162.16149999998743,
      "v": 84
    },
    {
      "midi": 46,
      "hit": false,
      "t": 225404.4850000002,
      "d": 340.5391499999969,
      "v": 84
    },
    {
      "midi": 53,
      "hit": false,
      "t": 225728.80799999935,
      "d": 324.32300000000396,
      "v": 68
    },
    {
      "midi": 62,
      "hit": false,
      "t": 225728.80799999935,
      "d": 324.32300000000396,
      "v": 68
    },
    {
      "midi": 58,
      "hit": false,
      "t": 225728.80799999935,
      "d": 486.4844999999914,
      "v": 68
    },
    {
      "midi": 77,
      "hit": false,
      "t": 226053.1310000002,
      "d": 162.16149999998743,
      "v": 93
    },
    {
      "midi": 75,
      "hit": false,
      "t": 226215.29250000019,
      "d": 162.16149999998743,
      "v": 91
    },
    {
      "midi": 67,
      "hit": false,
      "t": 226377.45400000017,
      "d": 162.16149999998743,
      "v": 89
    },
    {
      "midi": 39,
      "hit": false,
      "t": 226377.45400000017,
      "d": 399.9983666666667,
      "v": 89
    },
    {
      "midi": 55,
      "hit": false,
      "t": 226701.77699999933,
      "d": 324.32300000000396,
      "v": 69
    },
    {
      "midi": 62,
      "hit": false,
      "t": 226701.77699999933,
      "d": 324.32300000000396,
      "v": 69
    },
    {
      "midi": 58,
      "hit": false,
      "t": 226701.77699999933,
      "d": 486.4844999999914,
      "v": 69
    },
    {
      "midi": 77,
      "hit": false,
      "t": 227026.10000000018,
      "d": 162.16149999998743,
      "v": 95
    },
    {
      "midi": 75,
      "hit": false,
      "t": 227188.26150000017,
      "d": 162.16149999998743,
      "v": 91
    },
    {
      "midi": 66,
      "hit": false,
      "t": 227350.42300000016,
      "d": 405.4037499999977,
      "v": 90
    },
    {
      "midi": 44,
      "hit": false,
      "t": 227350.42300000016,
      "d": 443.2414333333436,
      "v": 90
    },
    {
      "midi": 54,
      "hit": false,
      "t": 227674.74599999932,
      "d": 324.32300000000396,
      "v": 68
    },
    {
      "midi": 60,
      "hit": false,
      "t": 227674.74599999932,
      "d": 324.32300000000396,
      "v": 68
    },
    {
      "midi": 63,
      "hit": false,
      "t": 227674.74599999932,
      "d": 324.32300000000396,
      "v": 68
    },
    {
      "midi": 58,
      "hit": false,
      "t": 227674.74599999932,
      "d": 486.4844999999914,
      "v": 68
    },
    {
      "midi": 65,
      "hit": false,
      "t": 227999.06900000016,
      "d": 162.16149999998743,
      "v": 91
    },
    {
      "midi": 67,
      "hit": false,
      "t": 228161.23050000015,
      "d": 162.16149999998743,
      "v": 89
    },
    {
      "midi": 69,
      "hit": false,
      "t": 228323.39200000014,
      "d": 324.32300000000396,
      "v": 86
    },
    {
      "midi": 46,
      "hit": false,
      "t": 228323.39200000014,
      "d": 591.8894750000036,
      "v": 86
    },
    {
      "midi": 53,
      "hit": false,
      "t": 228647.7149999993,
      "d": 324.32300000000396,
      "v": 71
    },
    {
      "midi": 62,
      "hit": false,
      "t": 228647.7149999993,
      "d": 324.32300000000396,
      "v": 71
    },
    {
      "midi": 58,
      "hit": false,
      "t": 228647.7149999993,
      "d": 486.4844999999914,
      "v": 71
    },
    {
      "midi": 70,
      "hit": false,
      "t": 228647.71500000014,
      "d": 324.32300000000396,
      "v": 83
    },
    {
      "midi": 45,
      "hit": false,
      "t": 228972.03800000015,
      "d": 278.3772416666616,
      "v": 86
    },
    {
      "midi": 69,
      "hit": false,
      "t": 228972.03800000015,
      "d": 324.32300000000396,
      "v": 86
    },
    {
      "midi": 72,
      "hit": false,
      "t": 228972.03800000015,
      "d": 324.32300000000396,
      "v": 86
    },
    {
      "midi": 74,
      "hit": false,
      "t": 229296.36100000015,
      "d": 324.32300000000396,
      "v": 87
    },
    {
      "midi": 43,
      "hit": false,
      "t": 229296.36100000015,
      "d": 564.8625583333487,
      "v": 87
    },
    {
      "midi": 55,
      "hit": false,
      "t": 229620.68399999928,
      "d": 162.16149999998743,
      "v": 75
    },
    {
      "midi": 62,
      "hit": false,
      "t": 229620.68399999928,
      "d": 162.16149999998743,
      "v": 75
    },
    {
      "midi": 65,
      "hit": false,
      "t": 229620.68399999928,
      "d": 162.16149999998743,
      "v": 75
    },
    {
      "midi": 58,
      "hit": false,
      "t": 229620.68399999928,
      "d": 810.8074999999662,
      "v": 75
    },
    {
      "midi": 72,
      "hit": false,
      "t": 229620.68400000015,
      "d": 324.32300000000396,
      "v": 88
    },
    {
      "midi": 75,
      "hit": false,
      "t": 229620.68400000015,
      "d": 324.32300000000396,
      "v": 88
    },
    {
      "midi": 74,
      "hit": false,
      "t": 229945.00700000016,
      "d": 324.32300000000396,
      "v": 80
    },
    {
      "midi": 77,
      "hit": false,
      "t": 229945.00700000016,
      "d": 324.32300000000396,
      "v": 76
    },
    {
      "midi": 55,
      "hit": false,
      "t": 230269.32999999926,
      "d": 324.32299999997485,
      "v": 75
    },
    {
      "midi": 62,
      "hit": false,
      "t": 230269.32999999926,
      "d": 324.32299999997485,
      "v": 75
    },
    {
      "midi": 59,
      "hit": false,
      "t": 230269.32999999926,
      "d": 486.4844999999623,
      "v": 75
    },
    {
      "midi": 67,
      "hit": false,
      "t": 230350.41075000016,
      "d": 648.6459999999497,
      "v": 85
    },
    {
      "midi": 71,
      "hit": false,
      "t": 230431.49150000015,
      "d": 648.6459999999497,
      "v": 85
    },
    {
      "midi": 74,
      "hit": false,
      "t": 230512.57225000014,
      "d": 648.6459999999497,
      "v": 87
    },
    {
      "midi": 79,
      "hit": false,
      "t": 230593.65300000014,
      "d": 81.08074999999371,
      "v": 87
    },
    {
      "midi": 83,
      "hit": false,
      "t": 230674.73375000013,
      "d": 81.08074999999371,
      "v": 89
    },
    {
      "midi": 86,
      "hit": false,
      "t": 230755.81450000012,
      "d": 162.16149999998743,
      "v": 89
    },
    {
      "midi": 89,
      "hit": false,
      "t": 230836.89525000012,
      "d": 81.08074999999371,
      "v": 92
    },
    {
      "midi": 91,
      "hit": false,
      "t": 230917.9760000001,
      "d": 81.08074999999371,
      "v": 94
    },
    {
      "midi": 95,
      "hit": false,
      "t": 230999.0567500001,
      "d": 81.08074999999371,
      "v": 97
    },
    {
      "midi": 98,
      "hit": false,
      "t": 231080.1375000001,
      "d": 81.08074999999371,
      "v": 100
    },
    {
      "midi": 101,
      "hit": false,
      "t": 231161.2182500001,
      "d": 81.08074999999371,
      "v": 113
    },
    {
      "midi": 62,
      "hit": false,
      "t": 231242.2989999992,
      "d": 324.32300000000396,
      "v": 96
    },
    {
      "midi": 67,
      "hit": false,
      "t": 231242.2989999992,
      "d": 324.32300000000396,
      "v": 96
    },
    {
      "midi": 55,
      "hit": false,
      "t": 231242.2989999992,
      "d": 486.4844999999914,
      "v": 96
    },
    {
      "midi": 59,
      "hit": false,
      "t": 231242.2989999992,
      "d": 486.4844999999914,
      "v": 96
    },
    {
      "midi": 91,
      "hit": false,
      "t": 231242.2990000001,
      "d": 243.24225000001024,
      "v": 125
    },
    {
      "midi": 95,
      "hit": false,
      "t": 231242.2990000001,
      "d": 243.24225000001024,
      "v": 125
    },
    {
      "midi": 98,
      "hit": false,
      "t": 231242.2990000001,
      "d": 243.24225000001024,
      "v": 125
    },
    {
      "midi": 103,
      "hit": false,
      "t": 231242.2990000001,
      "d": 243.24225000001024,
      "v": 125
    },
    {
      "midi": 43,
      "hit": false,
      "t": 231242.2990000001,
      "d": 391.89029166667024,
      "v": 125
    },
    {
      "midi": 67,
      "hit": false,
      "t": 231782.83733333345,
      "d": 491.88988333332236,
      "v": 105
    },
    {
      "midi": 65,
      "hit": false,
      "t": 231782.83733333345,
      "d": 508.1060333333153,
      "v": 105
    },
    {
      "midi": 71,
      "hit": false,
      "t": 231782.83733333345,
      "d": 510.80872499998077,
      "v": 105
    },
    {
      "midi": 63,
      "hit": false,
      "t": 231782.83733333345,
      "d": 529.7275666666392,
      "v": 105
    },
    {
      "midi": 55,
      "hit": false,
      "t": 231782.83733333345,
      "d": 537.8356416666356,
      "v": 105
    },
    {
      "midi": 75,
      "hit": false,
      "t": 231782.83733333345,
      "d": 540.5383333333011,
      "v": 105
    },
    {
      "midi": 55,
      "hit": false,
      "t": 232323.37566666675,
      "d": 502.7006500000134,
      "v": 100
    },
    {
      "midi": 62,
      "hit": false,
      "t": 232323.37566666675,
      "d": 516.2141083333408,
      "v": 100
    },
    {
      "midi": 71,
      "hit": false,
      "t": 232323.37566666675,
      "d": 524.3221833333373,
      "v": 100
    },
    {
      "midi": 74,
      "hit": false,
      "t": 232323.37566666675,
      "d": 524.3221833333373,
      "v": 100
    },
    {
      "midi": 67,
      "hit": false,
      "t": 232323.37566666675,
      "d": 535.1329499999993,
      "v": 100
    },
    {
      "midi": 65,
      "hit": false,
      "t": 232323.37566666675,
      "d": 537.8356416666647,
      "v": 100
    },
    {
      "midi": 72,
      "hit": false,
      "t": 232917.9678333334,
      "d": 521.6194916666718,
      "v": 97
    },
    {
      "midi": 67,
      "hit": false,
      "t": 232917.9678333334,
      "d": 524.3221833333373,
      "v": 97
    },
    {
      "midi": 60,
      "hit": false,
      "t": 232917.9678333334,
      "d": 532.4302583333338,
      "v": 97
    },
    {
      "midi": 63,
      "hit": false,
      "t": 232917.9678333334,
      "d": 532.4302583333338,
      "v": 97
    },
    {
      "midi": 74,
      "hit": false,
      "t": 233458.50616666672,
      "d": 510.8087250000099,
      "v": 84
    },
    {
      "midi": 59,
      "hit": false,
      "t": 233458.50616666672,
      "d": 535.1329499999993,
      "v": 84
    },
    {
      "midi": 71,
      "hit": false,
      "t": 233458.50616666672,
      "d": 540.5383333333302,
      "v": 84
    },
    {
      "midi": 63,
      "hit": false,
      "t": 233458.50616666672,
      "d": 562.1598666666541,
      "v": 84
    },
    {
      "midi": 67,
      "hit": false,
      "t": 234026.0714166667,
      "d": 5.405383333330974,
      "v": 84
    },
    {
      "midi": 63,
      "hit": false,
      "t": 234026.0714166667,
      "d": 497.29526666665333,
      "v": 84
    },
    {
      "midi": 75,
      "hit": false,
      "t": 234026.0714166667,
      "d": 529.7275666666392,
      "v": 84
    },
    {
      "midi": 70,
      "hit": false,
      "t": 234026.0714166667,
      "d": 535.1329499999702,
      "v": 84
    },
    {
      "midi": 58,
      "hit": false,
      "t": 234026.0714166667,
      "d": 540.5383333333011,
      "v": 84
    },
    {
      "midi": 69,
      "hit": false,
      "t": 234539.58283333335,
      "d": 548.6464083333267,
      "v": 84
    },
    {
      "midi": 74,
      "hit": false,
      "t": 234539.58283333335,
      "d": 567.5652499999851,
      "v": 84
    },
    {
      "midi": 57,
      "hit": false,
      "t": 234539.58283333335,
      "d": 581.0787083333125,
      "v": 84
    },
    {
      "midi": 65,
      "hit": false,
      "t": 234539.58283333335,
      "d": 616.2136999999639,
      "v": 84
    },
    {
      "midi": 77,
      "hit": false,
      "t": 234539.58283333335,
      "d": 618.9163916666294,
      "v": 84
    },
    {
      "midi": 67,
      "hit": false,
      "t": 235134.175,
      "d": 540.5383333333011,
      "v": 83
    },
    {
      "midi": 79,
      "hit": false,
      "t": 235134.175,
      "d": 545.9437166666321,
      "v": 83
    },
    {
      "midi": 55,
      "hit": false,
      "t": 235134.175,
      "d": 562.159866666625,
      "v": 83
    },
    {
      "midi": 72,
      "hit": false,
      "t": 235134.175,
      "d": 562.159866666625,
      "v": 83
    },
    {
      "midi": 75,
      "hit": false,
      "t": 235134.175,
      "d": 575.6733249999525,
      "v": 83
    },
    {
      "midi": 69,
      "hit": false,
      "t": 235755.79408333328,
      "d": 529.7275666666683,
      "v": 81
    },
    {
      "midi": 63,
      "hit": false,
      "t": 235755.79408333328,
      "d": 537.8356416666647,
      "v": 81
    },
    {
      "midi": 57,
      "hit": false,
      "t": 235755.79408333328,
      "d": 545.9437166666612,
      "v": 81
    },
    {
      "midi": 81,
      "hit": false,
      "t": 235755.79408333328,
      "d": 545.9437166666612,
      "v": 81
    },
    {
      "midi": 72,
      "hit": false,
      "t": 235755.79408333328,
      "d": 548.6464083333267,
      "v": 81
    },
    {
      "midi": 75,
      "hit": false,
      "t": 235755.79408333328,
      "d": 575.6733249999816,
      "v": 81
    },
    {
      "midi": 82,
      "hit": false,
      "t": 236458.4939166666,
      "d": 2594.5839999999735,
      "v": 93
    },
    {
      "midi": 75,
      "hit": false,
      "t": 237080.11299999992,
      "d": 499.9979583333188,
      "v": 78
    },
    {
      "midi": 58,
      "hit": false,
      "t": 237080.11299999992,
      "d": 691.8890666666557,
      "v": 78
    },
    {
      "midi": 78,
      "hit": false,
      "t": 237080.11299999992,
      "d": 705.4025249999831,
      "v": 78
    },
    {
      "midi": 74,
      "hit": false,
      "t": 237701.73208333325,
      "d": 699.9971416666522,
      "v": 68
    },
    {
      "midi": 77,
      "hit": false,
      "t": 237701.73208333325,
      "d": 716.2132916666451,
      "v": 68
    },
    {
      "midi": 53,
      "hit": false,
      "t": 237701.73208333325,
      "d": 721.6186749999761,
      "v": 68
    },
    {
      "midi": 70,
      "hit": false,
      "t": 238863.8894999999,
      "d": 499.9979583333479,
      "v": 64
    },
    {
      "midi": 57,
      "hit": false,
      "t": 238863.8894999999,
      "d": 564.8625583333487,
      "v": 64
    },
    {
      "midi": 62,
      "hit": false,
      "t": 238863.8894999999,
      "d": 564.8625583333487,
      "v": 64
    },
    {
      "midi": 77,
      "hit": false,
      "t": 238863.8894999999,
      "d": 605.402933333331,
      "v": 64
    },
    {
      "midi": 69,
      "hit": false,
      "t": 239458.48166666657,
      "d": 448.64681666664546,
      "v": 60
    },
    {
      "midi": 56,
      "hit": false,
      "t": 239458.48166666657,
      "d": 632.4298499999859,
      "v": 60
    },
    {
      "midi": 61,
      "hit": false,
      "t": 239458.48166666657,
      "d": 632.4298499999859,
      "v": 60
    },
    {
      "midi": 76,
      "hit": false,
      "t": 239458.48166666657,
      "d": 697.2944499999867,
      "v": 60
    },
    {
      "midi": 68,
      "hit": false,
      "t": 240053.0738333332,
      "d": 575.6733250000398,
      "v": 58
    },
    {
      "midi": 75,
      "hit": false,
      "t": 240053.0738333332,
      "d": 613.5110083333857,
      "v": 58
    },
    {
      "midi": 55,
      "hit": false,
      "t": 240053.0738333332,
      "d": 689.1863750000775,
      "v": 58
    },
    {
      "midi": 60,
      "hit": false,
      "t": 240053.0738333332,
      "d": 689.1863750000775,
      "v": 58
    },
    {
      "midi": 67,
      "hit": false,
      "t": 240701.71983333328,
      "d": 559.4571750000177,
      "v": 56
    },
    {
      "midi": 54,
      "hit": false,
      "t": 240701.71983333328,
      "d": 672.9702250000264,
      "v": 56
    },
    {
      "midi": 59,
      "hit": false,
      "t": 240701.71983333328,
      "d": 672.9702250000264,
      "v": 56
    },
    {
      "midi": 74,
      "hit": false,
      "t": 240701.71983333328,
      "d": 721.6186750000343,
      "v": 56
    },
    {
      "midi": 66,
      "hit": false,
      "t": 241377.39274999997,
      "d": 608.1056250000256,
      "v": 55
    },
    {
      "midi": 53,
      "hit": false,
      "t": 241377.39274999997,
      "d": 818.9155750000209,
      "v": 55
    },
    {
      "midi": 73,
      "hit": false,
      "t": 241377.39274999997,
      "d": 818.9155750000209,
      "v": 55
    },
    {
      "midi": 51,
      "hit": false,
      "t": 242134.14641666666,
      "d": 635.1325416666514,
      "v": 55
    },
    {
      "midi": 65,
      "hit": false,
      "t": 242134.14641666666,
      "d": 635.1325416666514,
      "v": 55
    },
    {
      "midi": 57,
      "hit": false,
      "t": 242134.14641666666,
      "d": 770.2671249999839,
      "v": 55
    },
    {
      "midi": 72,
      "hit": false,
      "t": 242134.14641666666,
      "d": 770.2671249999839,
      "v": 55
    },
    {
      "midi": 56,
      "hit": false,
      "t": 242890.9000833333,
      "d": 675.6729166666337,
      "v": 54
    },
    {
      "midi": 71,
      "hit": false,
      "t": 242890.9000833333,
      "d": 675.6729166666337,
      "v": 54
    },
    {
      "midi": 64,
      "hit": false,
      "t": 242890.9000833333,
      "d": 994.5905333333067,
      "v": 54
    },
    {
      "midi": 53,
      "hit": false,
      "t": 243809.81524999996,
      "d": 951.3474666666589,
      "v": 56
    },
    {
      "midi": 69,
      "hit": false,
      "t": 243809.81524999996,
      "d": 951.3474666666589,
      "v": 56
    },
    {
      "midi": 74,
      "hit": false,
      "t": 243809.81524999996,
      "d": 1270.2650833333319,
      "v": 56
    },
    {
      "midi": 58,
      "hit": false,
      "t": 244998.9995833333,
      "d": 81.08074999999371,
      "v": 42
    },
    {
      "midi": 62,
      "hit": false,
      "t": 244998.9995833333,
      "d": 2281.0717666666606,
      "v": 38
    },
    {
      "midi": 65,
      "hit": false,
      "t": 244998.9995833333,
      "d": 2337.828291666665,
      "v": 42
    },
    {
      "midi": 70,
      "hit": false,
      "t": 244998.9995833333,
      "d": 2391.8821250000037,
      "v": 42
    }
  ]
}