{
  "jsonPath": "Jazz/Cool Jazz/Dave Brubeck/take-five.json",
  "path": "Jazz\\Cool Jazz\\Dave Brubeck\\Take Five.mid",
  "name": "Take Five",
  "difficulty": "Advanced",
  "bpm": 167.000668002672,
  "notes": [
    {
      "midi": 39,
      "hit": false,
      "t": 8982,
      "d": 160.92749999999978,
      "v": 76
    },
    {
      "midi": 58,
      "hit": false,
      "t": 9210.2925,
      "d": 29.94000000000051,
      "v": 68
    },
    {
      "midi": 54,
      "hit": false,
      "t": 9210.2925,
      "d": 56.13750000000073,
      "v": 90
    },
    {
      "midi": 63,
      "hit": false,
      "t": 9210.2925,
      "d": 59.88000000000102,
      "v": 86
    },
    {
      "midi": 39,
      "hit": false,
      "t": 9569.5725,
      "d": 112.27499999999964,
      "v": 94
    },
    {
      "midi": 58,
      "hit": false,
      "t": 9700.56,
      "d": 41.16749999999956,
      "v": 86
    },
    {
      "midi": 63,
      "hit": false,
      "t": 9700.56,
      "d": 48.652500000000146,
      "v": 68
    },
    {
      "midi": 54,
      "hit": false,
      "t": 9700.56,
      "d": 86.07749999999942,
      "v": 90
    },
    {
      "midi": 46,
      "hit": false,
      "t": 10059.839999999998,
      "d": 520.2075000000004,
      "v": 90
    },
    {
      "midi": 53,
      "hit": false,
      "t": 10419.119999999999,
      "d": 119.76000000000022,
      "v": 72
    },
    {
      "midi": 56,
      "hit": false,
      "t": 10419.119999999999,
      "d": 119.76000000000022,
      "v": 94
    },
    {
      "midi": 61,
      "hit": false,
      "t": 10419.119999999999,
      "d": 123.50250000000051,
      "v": 90
    },
    {
      "midi": 39,
      "hit": false,
      "t": 10778.4,
      "d": 160.92749999999978,
      "v": 76
    },
    {
      "midi": 58,
      "hit": false,
      "t": 11006.6925,
      "d": 29.94000000000051,
      "v": 68
    },
    {
      "midi": 54,
      "hit": false,
      "t": 11006.6925,
      "d": 56.13750000000073,
      "v": 90
    },
    {
      "midi": 63,
      "hit": false,
      "t": 11006.6925,
      "d": 59.88000000000102,
      "v": 86
    },
    {
      "midi": 39,
      "hit": false,
      "t": 11365.9725,
      "d": 112.27499999999964,
      "v": 94
    },
    {
      "midi": 58,
      "hit": false,
      "t": 11496.96,
      "d": 41.16749999999956,
      "v": 86
    },
    {
      "midi": 63,
      "hit": false,
      "t": 11496.96,
      "d": 48.652500000000146,
      "v": 68
    },
    {
      "midi": 54,
      "hit": false,
      "t": 11496.96,
      "d": 86.07749999999942,
      "v": 90
    },
    {
      "midi": 46,
      "hit": false,
      "t": 11856.239999999998,
      "d": 520.2075000000004,
      "v": 90
    },
    {
      "midi": 53,
      "hit": false,
      "t": 12215.519999999999,
      "d": 119.76000000000022,
      "v": 72
    },
    {
      "midi": 56,
      "hit": false,
      "t": 12215.519999999999,
      "d": 119.76000000000022,
      "v": 94
    },
    {
      "midi": 61,
      "hit": false,
      "t": 12215.519999999999,
      "d": 123.50250000000051,
      "v": 90
    },
    {
      "midi": 39,
      "hit": false,
      "t": 12574.8,
      "d": 160.92749999999978,
      "v": 76
    },
    {
      "midi": 58,
      "hit": false,
      "t": 12803.092499999999,
      "d": 29.94000000000051,
      "v": 68
    },
    {
      "midi": 54,
      "hit": false,
      "t": 12803.092499999999,
      "d": 56.13750000000073,
      "v": 90
    },
    {
      "midi": 63,
      "hit": false,
      "t": 12803.092499999999,
      "d": 59.88000000000102,
      "v": 86
    },
    {
      "midi": 39,
      "hit": false,
      "t": 13162.3725,
      "d": 112.27499999999964,
      "v": 94
    },
    {
      "midi": 58,
      "hit": false,
      "t": 13293.359999999999,
      "d": 41.16749999999956,
      "v": 86
    },
    {
      "midi": 63,
      "hit": false,
      "t": 13293.359999999999,
      "d": 48.652500000000146,
      "v": 68
    },
    {
      "midi": 54,
      "hit": false,
      "t": 13293.359999999999,
      "d": 86.07749999999942,
      "v": 90
    },
    {
      "midi": 46,
      "hit": false,
      "t": 13652.639999999998,
      "d": 520.2075000000004,
      "v": 90
    },
    {
      "midi": 53,
      "hit": false,
      "t": 14011.919999999998,
      "d": 119.76000000000022,
      "v": 72
    },
    {
      "midi": 56,
      "hit": false,
      "t": 14011.919999999998,
      "d": 119.76000000000022,
      "v": 94
    },
    {
      "midi": 61,
      "hit": false,
      "t": 14011.919999999998,
      "d": 123.50250000000051,
      "v": 90
    },
    {
      "midi": 39,
      "hit": false,
      "t": 14371.199999999999,
      "d": 160.92749999999978,
      "v": 76
    },
    {
      "midi": 58,
      "hit": false,
      "t": 14599.492499999998,
      "d": 29.94000000000051,
      "v": 68
    },
    {
      "midi": 54,
      "hit": false,
      "t": 14599.492499999998,
      "d": 56.13750000000073,
      "v": 90
    },
    {
      "midi": 63,
      "hit": false,
      "t": 14599.492499999998,
      "d": 59.88000000000102,
      "v": 86
    },
    {
      "midi": 39,
      "hit": false,
      "t": 14958.7725,
      "d": 112.27499999999964,
      "v": 94
    },
    {
      "midi": 58,
      "hit": false,
      "t": 15089.759999999998,
      "d": 41.16749999999956,
      "v": 86
    },
    {
      "midi": 63,
      "hit": false,
      "t": 15089.759999999998,
      "d": 48.652500000000146,
      "v": 68
    },
    {
      "midi": 54,
      "hit": false,
      "t": 15089.759999999998,
      "d": 86.07749999999942,
      "v": 90
    },
    {
      "midi": 46,
      "hit": false,
      "t": 15449.039999999997,
      "d": 520.2075000000004,
      "v": 90
    },
    {
      "midi": 53,
      "hit": false,
      "t": 15808.319999999998,
      "d": 119.76000000000022,
      "v": 72
    },
    {
      "midi": 56,
      "hit": false,
      "t": 15808.319999999998,
      "d": 119.76000000000022,
      "v": 94
    },
    {
      "midi": 61,
      "hit": false,
      "t": 15808.319999999998,
      "d": 123.50250000000051,
      "v": 90
    },
    {
      "midi": 39,
      "hit": false,
      "t": 16167.599999999999,
      "d": 160.92749999999978,
      "v": 76
    },
    {
      "midi": 58,
      "hit": false,
      "t": 16395.892499999998,
      "d": 29.93999999999869,
      "v": 68
    },
    {
      "midi": 54,
      "hit": false,
      "t": 16395.892499999998,
      "d": 56.13749999999709,
      "v": 90
    },
    {
      "midi": 63,
      "hit": false,
      "t": 16395.892499999998,
      "d": 59.87999999999738,
      "v": 86
    },
    {
      "midi": 39,
      "hit": false,
      "t": 16755.172499999997,
      "d": 112.27500000000146,
      "v": 94
    },
    {
      "midi": 58,
      "hit": false,
      "t": 16886.16,
      "d": 41.16749999999956,
      "v": 86
    },
    {
      "midi": 63,
      "hit": false,
      "t": 16886.16,
      "d": 48.652500000000146,
      "v": 68
    },
    {
      "midi": 54,
      "hit": false,
      "t": 16886.16,
      "d": 86.07749999999942,
      "v": 90
    },
    {
      "midi": 46,
      "hit": false,
      "t": 17245.44,
      "d": 520.2074999999968,
      "v": 90
    },
    {
      "midi": 53,
      "hit": false,
      "t": 17604.719999999998,
      "d": 119.7599999999984,
      "v": 72
    },
    {
      "midi": 56,
      "hit": false,
      "t": 17604.719999999998,
      "d": 119.7599999999984,
      "v": 94
    },
    {
      "midi": 61,
      "hit": false,
      "t": 17604.719999999998,
      "d": 123.50249999999869,
      "v": 90
    },
    {
      "midi": 39,
      "hit": false,
      "t": 17963.999999999996,
      "d": 160.9275000000016,
      "v": 76
    },
    {
      "midi": 58,
      "hit": false,
      "t": 18192.2925,
      "d": 29.93999999999869,
      "v": 68
    },
    {
      "midi": 54,
      "hit": false,
      "t": 18192.2925,
      "d": 56.13749999999709,
      "v": 90
    },
    {
      "midi": 63,
      "hit": false,
      "t": 18192.2925,
      "d": 59.87999999999738,
      "v": 86
    },
    {
      "midi": 39,
      "hit": false,
      "t": 18551.5725,
      "d": 112.27500000000146,
      "v": 94
    },
    {
      "midi": 58,
      "hit": false,
      "t": 18682.56,
      "d": 41.16749999999956,
      "v": 86
    },
    {
      "midi": 63,
      "hit": false,
      "t": 18682.56,
      "d": 48.652500000000146,
      "v": 68
    },
    {
      "midi": 54,
      "hit": false,
      "t": 18682.56,
      "d": 86.07749999999942,
      "v": 90
    },
    {
      "midi": 46,
      "hit": false,
      "t": 19041.84,
      "d": 520.2074999999968,
      "v": 90
    },
    {
      "midi": 53,
      "hit": false,
      "t": 19401.12,
      "d": 119.7599999999984,
      "v": 72
    },
    {
      "midi": 56,
      "hit": false,
      "t": 19401.12,
      "d": 119.7599999999984,
      "v": 94
    },
    {
      "midi": 61,
      "hit": false,
      "t": 19401.12,
      "d": 123.50249999999869,
      "v": 90
    },
    {
      "midi": 39,
      "hit": false,
      "t": 19760.399999999998,
      "d": 160.9275000000016,
      "v": 76
    },
    {
      "midi": 58,
      "hit": false,
      "t": 19988.6925,
      "d": 29.93999999999869,
      "v": 68
    },
    {
      "midi": 54,
      "hit": false,
      "t": 19988.6925,
      "d": 56.13749999999709,
      "v": 90
    },
    {
      "midi": 63,
      "hit": false,
      "t": 19988.6925,
      "d": 59.87999999999738,
      "v": 86
    },
    {
      "midi": 39,
      "hit": false,
      "t": 20347.9725,
      "d": 112.27500000000146,
      "v": 94
    },
    {
      "midi": 58,
      "hit": false,
      "t": 20478.960000000003,
      "d": 41.16749999999956,
      "v": 86
    },
    {
      "midi": 63,
      "hit": false,
      "t": 20478.960000000003,
      "d": 48.652500000000146,
      "v": 68
    },
    {
      "midi": 54,
      "hit": false,
      "t": 20478.960000000003,
      "d": 86.07749999999942,
      "v": 90
    },
    {
      "midi": 46,
      "hit": false,
      "t": 20838.24,
      "d": 520.2074999999968,
      "v": 90
    },
    {
      "midi": 53,
      "hit": false,
      "t": 21197.52,
      "d": 119.7599999999984,
      "v": 72
    },
    {
      "midi": 56,
      "hit": false,
      "t": 21197.52,
      "d": 119.7599999999984,
      "v": 94
    },
    {
      "midi": 61,
      "hit": false,
      "t": 21197.52,
      "d": 123.50249999999869,
      "v": 90
    },
    {
      "midi": 39,
      "hit": false,
      "t": 21556.8,
      "d": 160.9275000000016,
      "v": 76
    },
    {
      "midi": 58,
      "hit": false,
      "t": 21785.092500000002,
      "d": 29.93999999999869,
      "v": 68
    },
    {
      "midi": 54,
      "hit": false,
      "t": 21785.092500000002,
      "d": 56.13749999999709,
      "v": 90
    },
    {
      "midi": 63,
      "hit": false,
      "t": 21785.092500000002,
      "d": 59.87999999999738,
      "v": 86
    },
    {
      "midi": 39,
      "hit": false,
      "t": 22144.3725,
      "d": 112.27500000000146,
      "v": 94
    },
    {
      "midi": 58,
      "hit": false,
      "t": 22275.360000000004,
      "d": 41.16749999999956,
      "v": 86
    },
    {
      "midi": 63,
      "hit": false,
      "t": 22275.360000000004,
      "d": 48.652500000000146,
      "v": 68
    },
    {
      "midi": 54,
      "hit": false,
      "t": 22275.360000000004,
      "d": 86.07749999999942,
      "v": 90
    },
    {
      "midi": 46,
      "hit": false,
      "t": 22634.640000000003,
      "d": 520.2074999999968,
      "v": 90
    },
    {
      "midi": 53,
      "hit": false,
      "t": 22993.920000000002,
      "d": 119.7599999999984,
      "v": 72
    },
    {
      "midi": 56,
      "hit": false,
      "t": 22993.920000000002,
      "d": 119.7599999999984,
      "v": 94
    },
    {
      "midi": 61,
      "hit": false,
      "t": 22993.920000000002,
      "d": 123.50249999999869,
      "v": 90
    },
    {
      "midi": 39,
      "hit": false,
      "t": 23353.2,
      "d": 160.9275000000016,
      "v": 76
    },
    {
      "midi": 58,
      "hit": false,
      "t": 23581.492500000004,
      "d": 29.93999999999869,
      "v": 68
    },
    {
      "midi": 54,
      "hit": false,
      "t": 23581.492500000004,
      "d": 56.13749999999709,
      "v": 90
    },
    {
      "midi": 63,
      "hit": false,
      "t": 23581.492500000004,
      "d": 59.87999999999738,
      "v": 86
    },
    {
      "midi": 39,
      "hit": false,
      "t": 23940.772500000003,
      "d": 112.27500000000146,
      "v": 94
    },
    {
      "midi": 58,
      "hit": false,
      "t": 24071.760000000006,
      "d": 41.16749999999956,
      "v": 86
    },
    {
      "midi": 63,
      "hit": false,
      "t": 24071.760000000006,
      "d": 48.652500000000146,
      "v": 68
    },
    {
      "midi": 54,
      "hit": false,
      "t": 24071.760000000006,
      "d": 86.07749999999942,
      "v": 90
    },
    {
      "midi": 46,
      "hit": false,
      "t": 24431.040000000005,
      "d": 520.2074999999968,
      "v": 90
    },
    {
      "midi": 53,
      "hit": false,
      "t": 24790.320000000003,
      "d": 119.7599999999984,
      "v": 72
    },
    {
      "midi": 56,
      "hit": false,
      "t": 24790.320000000003,
      "d": 119.7599999999984,
      "v": 94
    },
    {
      "midi": 61,
      "hit": false,
      "t": 24790.320000000003,
      "d": 123.50249999999869,
      "v": 90
    },
    {
      "midi": 39,
      "hit": false,
      "t": 25149.600000000002,
      "d": 160.9275000000016,
      "v": 76
    },
    {
      "midi": 58,
      "hit": false,
      "t": 25377.892500000005,
      "d": 29.93999999999869,
      "v": 68
    },
    {
      "midi": 54,
      "hit": false,
      "t": 25377.892500000005,
      "d": 56.13749999999709,
      "v": 90
    },
    {
      "midi": 63,
      "hit": false,
      "t": 25377.892500000005,
      "d": 59.87999999999738,
      "v": 86
    },
    {
      "midi": 39,
      "hit": false,
      "t": 25737.172500000004,
      "d": 112.27500000000146,
      "v": 94
    },
    {
      "midi": 58,
      "hit": false,
      "t": 25868.160000000007,
      "d": 41.16749999999956,
      "v": 86
    },
    {
      "midi": 63,
      "hit": false,
      "t": 25868.160000000007,
      "d": 48.652500000000146,
      "v": 68
    },
    {
      "midi": 54,
      "hit": false,
      "t": 25868.160000000007,
      "d": 86.07749999999942,
      "v": 90
    },
    {
      "midi": 46,
      "hit": false,
      "t": 26227.440000000006,
      "d": 520.2074999999968,
      "v": 90
    },
    {
      "midi": 53,
      "hit": false,
      "t": 26586.720000000005,
      "d": 119.7599999999984,
      "v": 72
    },
    {
      "midi": 56,
      "hit": false,
      "t": 26586.720000000005,
      "d": 119.7599999999984,
      "v": 94
    },
    {
      "midi": 61,
      "hit": false,
      "t": 26586.720000000005,
      "d": 123.50249999999869,
      "v": 90
    },
    {
      "midi": 39,
      "hit": false,
      "t": 26946.000000000004,
      "d": 160.9275000000016,
      "v": 76
    },
    {
      "midi": 58,
      "hit": false,
      "t": 27174.292500000007,
      "d": 29.93999999999869,
      "v": 68
    },
    {
      "midi": 54,
      "hit": false,
      "t": 27174.292500000007,
      "d": 56.13749999999709,
      "v": 90
    },
    {
      "midi": 63,
      "hit": false,
      "t": 27174.292500000007,
      "d": 59.87999999999738,
      "v": 86
    },
    {
      "midi": 39,
      "hit": false,
      "t": 27533.572500000006,
      "d": 112.27500000000146,
      "v": 94
    },
    {
      "midi": 58,
      "hit": false,
      "t": 27664.56000000001,
      "d": 41.16749999999956,
      "v": 86
    },
    {
      "midi": 63,
      "hit": false,
      "t": 27664.56000000001,
      "d": 48.652500000000146,
      "v": 68
    },
    {
      "midi": 54,
      "hit": false,
      "t": 27664.56000000001,
      "d": 86.07749999999942,
      "v": 90
    },
    {
      "midi": 46,
      "hit": false,
      "t": 28023.840000000007,
      "d": 520.2074999999968,
      "v": 90
    },
    {
      "midi": 53,
      "hit": false,
      "t": 28383.120000000006,
      "d": 119.7599999999984,
      "v": 72
    },
    {
      "midi": 56,
      "hit": false,
      "t": 28383.120000000006,
      "d": 119.7599999999984,
      "v": 94
    },
    {
      "midi": 61,
      "hit": false,
      "t": 28383.120000000006,
      "d": 123.50249999999869,
      "v": 90
    },
    {
      "midi": 39,
      "hit": false,
      "t": 28742.400000000005,
      "d": 160.9275000000016,
      "v": 76
    },
    {
      "midi": 58,
      "hit": false,
      "t": 28970.69250000001,
      "d": 29.93999999999869,
      "v": 68
    },
    {
      "midi": 54,
      "hit": false,
      "t": 28970.69250000001,
      "d": 56.13749999999709,
      "v": 90
    },
    {
      "midi": 63,
      "hit": false,
      "t": 28970.69250000001,
      "d": 59.87999999999738,
      "v": 86
    },
    {
      "midi": 39,
      "hit": false,
      "t": 29329.972500000007,
      "d": 112.27500000000146,
      "v": 94
    },
    {
      "midi": 58,
      "hit": false,
      "t": 29460.96000000001,
      "d": 41.16749999999956,
      "v": 86
    },
    {
      "midi": 63,
      "hit": false,
      "t": 29460.96000000001,
      "d": 48.652500000000146,
      "v": 68
    },
    {
      "midi": 54,
      "hit": false,
      "t": 29460.96000000001,
      "d": 86.07749999999942,
      "v": 90
    },
    {
      "midi": 46,
      "hit": false,
      "t": 29820.24000000001,
      "d": 520.2074999999968,
      "v": 90
    },
    {
      "midi": 53,
      "hit": false,
      "t": 30179.520000000008,
      "d": 119.7599999999984,
      "v": 72
    },
    {
      "midi": 56,
      "hit": false,
      "t": 30179.520000000008,
      "d": 119.7599999999984,
      "v": 94
    },
    {
      "midi": 61,
      "hit": false,
      "t": 30179.520000000008,
      "d": 123.50249999999869,
      "v": 90
    },
    {
      "midi": 39,
      "hit": false,
      "t": 30538.800000000007,
      "d": 160.9275000000016,
      "v": 76
    },
    {
      "midi": 58,
      "hit": false,
      "t": 30767.09250000001,
      "d": 29.93999999999869,
      "v": 68
    },
    {
      "midi": 54,
      "hit": false,
      "t": 30767.09250000001,
      "d": 56.13749999999709,
      "v": 90
    },
    {
      "midi": 63,
      "hit": false,
      "t": 30767.09250000001,
      "d": 59.87999999999738,
      "v": 86
    },
    {
      "midi": 39,
      "hit": false,
      "t": 31126.37250000001,
      "d": 112.27500000000146,
      "v": 94
    },
    {
      "midi": 58,
      "hit": false,
      "t": 31257.36000000001,
      "d": 41.16749999999956,
      "v": 86
    },
    {
      "midi": 63,
      "hit": false,
      "t": 31257.36000000001,
      "d": 48.652500000000146,
      "v": 68
    },
    {
      "midi": 54,
      "hit": false,
      "t": 31257.36000000001,
      "d": 86.07749999999942,
      "v": 90
    },
    {
      "midi": 46,
      "hit": false,
      "t": 31616.64000000001,
      "d": 520.2074999999968,
      "v": 90
    },
    {
      "midi": 53,
      "hit": false,
      "t": 31975.92000000001,
      "d": 119.7599999999984,
      "v": 72
    },
    {
      "midi": 56,
      "hit": false,
      "t": 31975.92000000001,
      "d": 119.7599999999984,
      "v": 94
    },
    {
      "midi": 61,
      "hit": false,
      "t": 31975.92000000001,
      "d": 123.50249999999869,
      "v": 90
    },
    {
      "midi": 39,
      "hit": false,
      "t": 32335.200000000008,
      "d": 160.9275000000016,
      "v": 76
    },
    {
      "midi": 58,
      "hit": false,
      "t": 32563.49250000001,
      "d": 29.93999999999869,
      "v": 68
    },
    {
      "midi": 54,
      "hit": false,
      "t": 32563.49250000001,
      "d": 56.13749999999709,
      "v": 90
    },
    {
      "midi": 63,
      "hit": false,
      "t": 32563.49250000001,
      "d": 59.87999999999738,
      "v": 86
    },
    {
      "midi": 39,
      "hit": false,
      "t": 32922.77250000001,
      "d": 112.27500000000146,
      "v": 94
    },
    {
      "midi": 58,
      "hit": false,
      "t": 33053.76000000001,
      "d": 41.1675000000032,
      "v": 86
    },
    {
      "midi": 63,
      "hit": false,
      "t": 33053.76000000001,
      "d": 48.65250000000378,
      "v": 68
    },
    {
      "midi": 54,
      "hit": false,
      "t": 33053.76000000001,
      "d": 86.0775000000067,
      "v": 90
    },
    {
      "midi": 46,
      "hit": false,
      "t": 33413.040000000015,
      "d": 520.2075000000041,
      "v": 90
    },
    {
      "midi": 53,
      "hit": false,
      "t": 33772.320000000014,
      "d": 119.76000000000204,
      "v": 72
    },
    {
      "midi": 56,
      "hit": false,
      "t": 33772.320000000014,
      "d": 119.76000000000204,
      "v": 94
    },
    {
      "midi": 61,
      "hit": false,
      "t": 33772.320000000014,
      "d": 123.50250000000233,
      "v": 90
    },
    {
      "midi": 39,
      "hit": false,
      "t": 34131.60000000002,
      "d": 160.92749999999796,
      "v": 76
    },
    {
      "midi": 58,
      "hit": false,
      "t": 34359.892500000016,
      "d": 29.94000000000233,
      "v": 68
    },
    {
      "midi": 54,
      "hit": false,
      "t": 34359.892500000016,
      "d": 56.137500000004366,
      "v": 90
    },
    {
      "midi": 63,
      "hit": false,
      "t": 34359.892500000016,
      "d": 59.88000000000466,
      "v": 86
    },
    {
      "midi": 39,
      "hit": false,
      "t": 34719.17250000002,
      "d": 112.27500000000146,
      "v": 94
    },
    {
      "midi": 58,
      "hit": false,
      "t": 34850.160000000025,
      "d": 41.1675000000032,
      "v": 86
    },
    {
      "midi": 63,
      "hit": false,
      "t": 34850.160000000025,
      "d": 48.65250000000378,
      "v": 68
    },
    {
      "midi": 54,
      "hit": false,
      "t": 34850.160000000025,
      "d": 86.0775000000067,
      "v": 90
    },
    {
      "midi": 46,
      "hit": false,
      "t": 35209.44000000003,
      "d": 520.2075000000041,
      "v": 90
    },
    {
      "midi": 53,
      "hit": false,
      "t": 35568.72000000003,
      "d": 119.76000000000204,
      "v": 72
    },
    {
      "midi": 56,
      "hit": false,
      "t": 35568.72000000003,
      "d": 119.76000000000204,
      "v": 94
    },
    {
      "midi": 61,
      "hit": false,
      "t": 35568.72000000003,
      "d": 123.50250000000233,
      "v": 90
    },
    {
      "midi": 39,
      "hit": false,
      "t": 35928.00000000004,
      "d": 160.92749999999796,
      "v": 76
    },
    {
      "midi": 58,
      "hit": false,
      "t": 36156.29250000003,
      "d": 29.94000000000233,
      "v": 68
    },
    {
      "midi": 54,
      "hit": false,
      "t": 36156.29250000003,
      "d": 56.137500000004366,
      "v": 90
    },
    {
      "midi": 63,
      "hit": false,
      "t": 36156.29250000003,
      "d": 59.88000000000466,
      "v": 86
    },
    {
      "midi": 39,
      "hit": false,
      "t": 36515.57250000004,
      "d": 112.27500000000146,
      "v": 94
    },
    {
      "midi": 58,
      "hit": false,
      "t": 36646.56000000004,
      "d": 41.1675000000032,
      "v": 86
    },
    {
      "midi": 63,
      "hit": false,
      "t": 36646.56000000004,
      "d": 48.65250000000378,
      "v": 68
    },
    {
      "midi": 54,
      "hit": false,
      "t": 36646.56000000004,
      "d": 86.0775000000067,
      "v": 90
    },
    {
      "midi": 46,
      "hit": false,
      "t": 37005.84000000005,
      "d": 520.2075000000041,
      "v": 90
    },
    {
      "midi": 53,
      "hit": false,
      "t": 37365.120000000046,
      "d": 119.76000000000204,
      "v": 72
    },
    {
      "midi": 56,
      "hit": false,
      "t": 37365.120000000046,
      "d": 119.76000000000204,
      "v": 94
    },
    {
      "midi": 61,
      "hit": false,
      "t": 37365.120000000046,
      "d": 123.50250000000233,
      "v": 90
    },
    {
      "midi": 47,
      "hit": false,
      "t": 37724.40000000005,
      "d": 553.8900000000067,
      "v": 68
    },
    {
      "midi": 59,
      "hit": false,
      "t": 37952.692500000056,
      "d": 56.13749999999709,
      "v": 68
    },
    {
      "midi": 61,
      "hit": false,
      "t": 37952.692500000056,
      "d": 59.87999999999738,
      "v": 68
    },
    {
      "midi": 63,
      "hit": false,
      "t": 37952.692500000056,
      "d": 63.62249999999767,
      "v": 68
    },
    {
      "midi": 54,
      "hit": false,
      "t": 37952.692500000056,
      "d": 93.5625,
      "v": 84
    },
    {
      "midi": 51,
      "hit": false,
      "t": 38311.97250000006,
      "d": 490.26750000000175,
      "v": 75
    },
    {
      "midi": 53,
      "hit": false,
      "t": 38802.24000000006,
      "d": 465.9412499999962,
      "v": 84
    },
    {
      "midi": 59,
      "hit": false,
      "t": 39161.52000000006,
      "d": 86.07749999999942,
      "v": 68
    },
    {
      "midi": 63,
      "hit": false,
      "t": 39161.52000000006,
      "d": 104.79000000000087,
      "v": 57
    },
    {
      "midi": 46,
      "hit": false,
      "t": 39520.80000000006,
      "d": 688.6200000000026,
      "v": 84
    },
    {
      "midi": 58,
      "hit": false,
      "t": 39749.092500000064,
      "d": 67.36499999999796,
      "v": 66
    },
    {
      "midi": 61,
      "hit": false,
      "t": 39749.092500000064,
      "d": 93.5625,
      "v": 79
    },
    {
      "midi": 53,
      "hit": false,
      "t": 39749.092500000064,
      "d": 101.04750000000058,
      "v": 62
    },
    {
      "midi": 49,
      "hit": false,
      "t": 40108.37250000006,
      "d": 494.01000000000204,
      "v": 88
    },
    {
      "midi": 51,
      "hit": false,
      "t": 40598.640000000065,
      "d": 467.8125,
      "v": 84
    },
    {
      "midi": 58,
      "hit": false,
      "t": 40957.920000000064,
      "d": 127.24500000000262,
      "v": 60
    },
    {
      "midi": 63,
      "hit": false,
      "t": 40957.920000000064,
      "d": 130.9875000000029,
      "v": 64
    },
    {
      "midi": 54,
      "hit": false,
      "t": 40957.920000000064,
      "d": 149.70000000000437,
      "v": 55
    },
    {
      "midi": 44,
      "hit": false,
      "t": 41317.20000000007,
      "d": 542.6624999999985,
      "v": 79
    },
    {
      "midi": 59,
      "hit": false,
      "t": 41545.49250000007,
      "d": 52.3949999999968,
      "v": 79
    },
    {
      "midi": 63,
      "hit": false,
      "t": 41545.49250000007,
      "d": 71.10749999999825,
      "v": 84
    },
    {
      "midi": 54,
      "hit": false,
      "t": 41545.49250000007,
      "d": 74.84999999999854,
      "v": 66
    },
    {
      "midi": 47,
      "hit": false,
      "t": 41904.77250000007,
      "d": 479.0400000000009,
      "v": 68
    },
    {
      "midi": 49,
      "hit": false,
      "t": 42395.04000000007,
      "d": 561.375,
      "v": 95
    },
    {
      "midi": 59,
      "hit": false,
      "t": 42754.32000000007,
      "d": 67.36499999999796,
      "v": 70
    },
    {
      "midi": 61,
      "hit": false,
      "t": 42754.32000000007,
      "d": 71.10749999999825,
      "v": 63
    },
    {
      "midi": 56,
      "hit": false,
      "t": 42754.32000000007,
      "d": 89.81999999999971,
      "v": 66
    },
    {
      "midi": 42,
      "hit": false,
      "t": 43113.60000000007,
      "d": 479.0400000000009,
      "v": 95
    },
    {
      "midi": 58,
      "hit": false,
      "t": 43341.892500000075,
      "d": 52.3949999999968,
      "v": 53
    },
    {
      "midi": 61,
      "hit": false,
      "t": 43341.892500000075,
      "d": 67.36499999999796,
      "v": 66
    },
    {
      "midi": 66,
      "hit": false,
      "t": 43341.892500000075,
      "d": 86.07749999999942,
      "v": 68
    },
    {
      "midi": 42,
      "hit": false,
      "t": 43701.17250000007,
      "d": 512.7225000000035,
      "v": 88
    },
    {
      "midi": 46,
      "hit": false,
      "t": 44191.440000000075,
      "d": 598.7999999999956,
      "v": 84
    },
    {
      "midi": 58,
      "hit": false,
      "t": 44550.720000000074,
      "d": 63.62249999999767,
      "v": 62
    },
    {
      "midi": 61,
      "hit": false,
      "t": 44550.720000000074,
      "d": 78.59249999999884,
      "v": 64
    },
    {
      "midi": 66,
      "hit": false,
      "t": 44550.720000000074,
      "d": 82.33499999999913,
      "v": 59
    },
    {
      "midi": 47,
      "hit": false,
      "t": 44910.00000000007,
      "d": 553.8900000000067,
      "v": 68
    },
    {
      "midi": 59,
      "hit": false,
      "t": 45138.292500000076,
      "d": 56.13749999999709,
      "v": 68
    },
    {
      "midi": 61,
      "hit": false,
      "t": 45138.292500000076,
      "d": 59.87999999999738,
      "v": 68
    },
    {
      "midi": 63,
      "hit": false,
      "t": 45138.292500000076,
      "d": 63.62249999999767,
      "v": 68
    },
    {
      "midi": 54,
      "hit": false,
      "t": 45138.292500000076,
      "d": 93.5625,
      "v": 84
    },
    {
      "midi": 51,
      "hit": false,
      "t": 45497.57250000008,
      "d": 490.26750000000175,
      "v": 75
    },
    {
      "midi": 53,
      "hit": false,
      "t": 45987.840000000084,
      "d": 465.9412499999962,
      "v": 84
    },
    {
      "midi": 59,
      "hit": false,
      "t": 46347.12000000008,
      "d": 86.07749999999942,
      "v": 68
    },
    {
      "midi": 63,
      "hit": false,
      "t": 46347.12000000008,
      "d": 104.79000000000087,
      "v": 57
    },
    {
      "midi": 46,
      "hit": false,
      "t": 46706.40000000008,
      "d": 688.6200000000026,
      "v": 84
    },
    {
      "midi": 58,
      "hit": false,
      "t": 46934.692500000085,
      "d": 67.36499999999796,
      "v": 66
    },
    {
      "midi": 61,
      "hit": false,
      "t": 46934.692500000085,
      "d": 93.5625,
      "v": 79
    },
    {
      "midi": 53,
      "hit": false,
      "t": 46934.692500000085,
      "d": 101.04750000000058,
      "v": 62
    },
    {
      "midi": 49,
      "hit": false,
      "t": 47293.97250000008,
      "d": 494.01000000000204,
      "v": 88
    },
    {
      "midi": 51,
      "hit": false,
      "t": 47784.240000000085,
      "d": 467.8125,
      "v": 84
    },
    {
      "midi": 58,
      "hit": false,
      "t": 48143.520000000084,
      "d": 127.24500000000262,
      "v": 60
    },
    {
      "midi": 63,
      "hit": false,
      "t": 48143.520000000084,
      "d": 130.9875000000029,
      "v": 64
    },
    {
      "midi": 54,
      "hit": false,
      "t": 48143.520000000084,
      "d": 149.70000000000437,
      "v": 55
    },
    {
      "midi": 44,
      "hit": false,
      "t": 48502.80000000009,
      "d": 542.6624999999985,
      "v": 79
    },
    {
      "midi": 59,
      "hit": false,
      "t": 48731.09250000009,
      "d": 52.3949999999968,
      "v": 79
    },
    {
      "midi": 63,
      "hit": false,
      "t": 48731.09250000009,
      "d": 71.10749999999825,
      "v": 84
    },
    {
      "midi": 54,
      "hit": false,
      "t": 48731.09250000009,
      "d": 74.84999999999854,
      "v": 66
    },
    {
      "midi": 47,
      "hit": false,
      "t": 49090.37250000009,
      "d": 479.0400000000009,
      "v": 68
    },
    {
      "midi": 49,
      "hit": false,
      "t": 49580.640000000094,
      "d": 561.375,
      "v": 95
    },
    {
      "midi": 59,
      "hit": false,
      "t": 49939.92000000009,
      "d": 67.36499999999796,
      "v": 70
    },
    {
      "midi": 61,
      "hit": false,
      "t": 49939.92000000009,
      "d": 71.10749999999825,
      "v": 63
    },
    {
      "midi": 56,
      "hit": false,
      "t": 49939.92000000009,
      "d": 89.81999999999971,
      "v": 66
    },
    {
      "midi": 41,
      "hit": false,
      "t": 50299.20000000009,
      "d": 389.22000000000844,
      "v": 68
    },
    {
      "midi": 60,
      "hit": false,
      "t": 50527.492500000095,
      "d": 44.91000000000349,
      "v": 57
    },
    {
      "midi": 56,
      "hit": false,
      "t": 50527.492500000095,
      "d": 63.62250000000495,
      "v": 39
    },
    {
      "midi": 63,
      "hit": false,
      "t": 50527.492500000095,
      "d": 67.36500000000524,
      "v": 66
    },
    {
      "midi": 41,
      "hit": false,
      "t": 50886.7725000001,
      "d": 542.6624999999985,
      "v": 84
    },
    {
      "midi": 60,
      "hit": false,
      "t": 51017.760000000104,
      "d": 71.10749999999825,
      "v": 66
    },
    {
      "midi": 63,
      "hit": false,
      "t": 51017.760000000104,
      "d": 78.59249999999884,
      "v": 66
    },
    {
      "midi": 46,
      "hit": false,
      "t": 51377.0400000001,
      "d": 523.9499999999971,
      "v": 68
    },
    {
      "midi": 39,
      "hit": false,
      "t": 52095.6000000001,
      "d": 160.92749999999796,
      "v": 76
    },
    {
      "midi": 58,
      "hit": false,
      "t": 52323.892500000096,
      "d": 29.94000000000233,
      "v": 68
    },
    {
      "midi": 54,
      "hit": false,
      "t": 52323.892500000096,
      "d": 56.137500000004366,
      "v": 90
    },
    {
      "midi": 63,
      "hit": false,
      "t": 52323.892500000096,
      "d": 59.88000000000466,
      "v": 86
    },
    {
      "midi": 39,
      "hit": false,
      "t": 52683.1725000001,
      "d": 112.27500000000146,
      "v": 94
    },
    {
      "midi": 58,
      "hit": false,
      "t": 52814.160000000105,
      "d": 41.1675000000032,
      "v": 86
    },
    {
      "midi": 63,
      "hit": false,
      "t": 52814.160000000105,
      "d": 48.65250000000378,
      "v": 68
    },
    {
      "midi": 54,
      "hit": false,
      "t": 52814.160000000105,
      "d": 86.0775000000067,
      "v": 90
    },
    {
      "midi": 46,
      "hit": false,
      "t": 53173.44000000011,
      "d": 520.2075000000041,
      "v": 90
    },
    {
      "midi": 53,
      "hit": false,
      "t": 53532.72000000011,
      "d": 119.76000000000204,
      "v": 72
    },
    {
      "midi": 56,
      "hit": false,
      "t": 53532.72000000011,
      "d": 119.76000000000204,
      "v": 94
    },
    {
      "midi": 61,
      "hit": false,
      "t": 53532.72000000011,
      "d": 123.50250000000233,
      "v": 90
    },
    {
      "midi": 39,
      "hit": false,
      "t": 53892.00000000012,
      "d": 160.92749999999796,
      "v": 76
    },
    {
      "midi": 58,
      "hit": false,
      "t": 54120.29250000011,
      "d": 29.94000000000233,
      "v": 68
    },
    {
      "midi": 54,
      "hit": false,
      "t": 54120.29250000011,
      "d": 56.137500000004366,
      "v": 90
    },
    {
      "midi": 63,
      "hit": false,
      "t": 54120.29250000011,
      "d": 59.88000000000466,
      "v": 86
    },
    {
      "midi": 39,
      "hit": false,
      "t": 54479.57250000012,
      "d": 112.27500000000146,
      "v": 94
    },
    {
      "midi": 58,
      "hit": false,
      "t": 54610.56000000012,
      "d": 41.1675000000032,
      "v": 86
    },
    {
      "midi": 63,
      "hit": false,
      "t": 54610.56000000012,
      "d": 48.65250000000378,
      "v": 68
    },
    {
      "midi": 54,
      "hit": false,
      "t": 54610.56000000012,
      "d": 86.0775000000067,
      "v": 90
    },
    {
      "midi": 46,
      "hit": false,
      "t": 54969.84000000013,
      "d": 520.2075000000041,
      "v": 90
    },
    {
      "midi": 53,
      "hit": false,
      "t": 55329.120000000126,
      "d": 119.76000000000204,
      "v": 72
    },
    {
      "midi": 56,
      "hit": false,
      "t": 55329.120000000126,
      "d": 119.76000000000204,
      "v": 94
    },
    {
      "midi": 61,
      "hit": false,
      "t": 55329.120000000126,
      "d": 123.50250000000233,
      "v": 90
    },
    {
      "midi": 39,
      "hit": false,
      "t": 55688.40000000013,
      "d": 160.92749999999796,
      "v": 76
    },
    {
      "midi": 58,
      "hit": false,
      "t": 55916.69250000013,
      "d": 29.94000000000233,
      "v": 68
    },
    {
      "midi": 54,
      "hit": false,
      "t": 55916.69250000013,
      "d": 56.137500000004366,
      "v": 90
    },
    {
      "midi": 63,
      "hit": false,
      "t": 55916.69250000013,
      "d": 59.88000000000466,
      "v": 86
    },
    {
      "midi": 39,
      "hit": false,
      "t": 56275.972500000134,
      "d": 112.27500000000146,
      "v": 94
    },
    {
      "midi": 58,
      "hit": false,
      "t": 56406.96000000014,
      "d": 41.1675000000032,
      "v": 86
    },
    {
      "midi": 63,
      "hit": false,
      "t": 56406.96000000014,
      "d": 48.65250000000378,
      "v": 68
    },
    {
      "midi": 54,
      "hit": false,
      "t": 56406.96000000014,
      "d": 86.0775000000067,
      "v": 90
    },
    {
      "midi": 46,
      "hit": false,
      "t": 56766.24000000014,
      "d": 520.2075000000041,
      "v": 90
    },
    {
      "midi": 53,
      "hit": false,
      "t": 57125.52000000014,
      "d": 119.76000000000204,
      "v": 72
    },
    {
      "midi": 56,
      "hit": false,
      "t": 57125.52000000014,
      "d": 119.76000000000204,
      "v": 94
    },
    {
      "midi": 61,
      "hit": false,
      "t": 57125.52000000014,
      "d": 123.50250000000233,
      "v": 90
    },
    {
      "midi": 39,
      "hit": false,
      "t": 57484.80000000015,
      "d": 160.92749999999796,
      "v": 76
    },
    {
      "midi": 58,
      "hit": false,
      "t": 57713.092500000144,
      "d": 29.94000000000233,
      "v": 68
    },
    {
      "midi": 54,
      "hit": false,
      "t": 57713.092500000144,
      "d": 56.137500000004366,
      "v": 90
    },
    {
      "midi": 63,
      "hit": false,
      "t": 57713.092500000144,
      "d": 59.88000000000466,
      "v": 86
    },
    {
      "midi": 39,
      "hit": false,
      "t": 58072.37250000015,
      "d": 112.27500000000146,
      "v": 94
    },
    {
      "midi": 58,
      "hit": false,
      "t": 58203.36000000015,
      "d": 41.1675000000032,
      "v": 86
    },
    {
      "midi": 63,
      "hit": false,
      "t": 58203.36000000015,
      "d": 48.65250000000378,
      "v": 68
    },
    {
      "midi": 54,
      "hit": false,
      "t": 58203.36000000015,
      "d": 86.0775000000067,
      "v": 90
    },
    {
      "midi": 46,
      "hit": false,
      "t": 58562.64000000016,
      "d": 520.2075000000041,
      "v": 90
    },
    {
      "midi": 53,
      "hit": false,
      "t": 58921.92000000016,
      "d": 119.76000000000204,
      "v": 72
    },
    {
      "midi": 56,
      "hit": false,
      "t": 58921.92000000016,
      "d": 119.76000000000204,
      "v": 94
    },
    {
      "midi": 61,
      "hit": false,
      "t": 58921.92000000016,
      "d": 123.50250000000233,
      "v": 90
    },
    {
      "midi": 39,
      "hit": false,
      "t": 59281.200000000164,
      "d": 160.92749999999796,
      "v": 76
    },
    {
      "midi": 58,
      "hit": false,
      "t": 59509.49250000016,
      "d": 29.94000000000233,
      "v": 68
    },
    {
      "midi": 54,
      "hit": false,
      "t": 59509.49250000016,
      "d": 56.137500000004366,
      "v": 90
    },
    {
      "midi": 63,
      "hit": false,
      "t": 59509.49250000016,
      "d": 59.88000000000466,
      "v": 86
    },
    {
      "midi": 39,
      "hit": false,
      "t": 59868.77250000017,
      "d": 112.27500000000146,
      "v": 94
    },
    {
      "midi": 58,
      "hit": false,
      "t": 59999.76000000017,
      "d": 41.1675000000032,
      "v": 86
    },
    {
      "midi": 63,
      "hit": false,
      "t": 59999.76000000017,
      "d": 48.65250000000378,
      "v": 68
    },
    {
      "midi": 54,
      "hit": false,
      "t": 59999.76000000017,
      "d": 86.0775000000067,
      "v": 90
    },
    {
      "midi": 46,
      "hit": false,
      "t": 60359.040000000175,
      "d": 520.2075000000041,
      "v": 90
    },
    {
      "midi": 53,
      "hit": false,
      "t": 60718.320000000174,
      "d": 119.76000000000204,
      "v": 72
    },
    {
      "midi": 56,
      "hit": false,
      "t": 60718.320000000174,
      "d": 119.76000000000204,
      "v": 94
    },
    {
      "midi": 61,
      "hit": false,
      "t": 60718.320000000174,
      "d": 123.50250000000233,
      "v": 90
    },
    {
      "midi": 39,
      "hit": false,
      "t": 61077.60000000018,
      "d": 160.92749999999796,
      "v": 76
    },
    {
      "midi": 58,
      "hit": false,
      "t": 61305.89250000018,
      "d": 29.94000000000233,
      "v": 68
    },
    {
      "midi": 54,
      "hit": false,
      "t": 61305.89250000018,
      "d": 56.137500000004366,
      "v": 90
    },
    {
      "midi": 63,
      "hit": false,
      "t": 61305.89250000018,
      "d": 59.88000000000466,
      "v": 86
    },
    {
      "midi": 39,
      "hit": false,
      "t": 61665.17250000018,
      "d": 112.27500000000146,
      "v": 94
    },
    {
      "midi": 58,
      "hit": false,
      "t": 61796.160000000185,
      "d": 41.1675000000032,
      "v": 86
    },
    {
      "midi": 63,
      "hit": false,
      "t": 61796.160000000185,
      "d": 48.65250000000378,
      "v": 68
    },
    {
      "midi": 54,
      "hit": false,
      "t": 61796.160000000185,
      "d": 86.0775000000067,
      "v": 90
    },
    {
      "midi": 46,
      "hit": false,
      "t": 62155.44000000019,
      "d": 520.2075000000041,
      "v": 90
    },
    {
      "midi": 53,
      "hit": false,
      "t": 62514.72000000019,
      "d": 119.76000000000204,
      "v": 72
    },
    {
      "midi": 56,
      "hit": false,
      "t": 62514.72000000019,
      "d": 119.76000000000204,
      "v": 94
    },
    {
      "midi": 61,
      "hit": false,
      "t": 62514.72000000019,
      "d": 123.50250000000233,
      "v": 90
    },
    {
      "midi": 39,
      "hit": false,
      "t": 62874.0000000002,
      "d": 160.92749999999796,
      "v": 76
    },
    {
      "midi": 58,
      "hit": false,
      "t": 63102.29250000019,
      "d": 29.94000000000233,
      "v": 68
    },
    {
      "midi": 54,
      "hit": false,
      "t": 63102.29250000019,
      "d": 56.137500000004366,
      "v": 90
    },
    {
      "midi": 63,
      "hit": false,
      "t": 63102.29250000019,
      "d": 59.88000000000466,
      "v": 86
    },
    {
      "midi": 39,
      "hit": false,
      "t": 63461.5725000002,
      "d": 112.27500000000146,
      "v": 94
    },
    {
      "midi": 58,
      "hit": false,
      "t": 63592.5600000002,
      "d": 41.1675000000032,
      "v": 86
    },
    {
      "midi": 63,
      "hit": false,
      "t": 63592.5600000002,
      "d": 48.65250000000378,
      "v": 68
    },
    {
      "midi": 54,
      "hit": false,
      "t": 63592.5600000002,
      "d": 86.0775000000067,
      "v": 90
    },
    {
      "midi": 46,
      "hit": false,
      "t": 63951.84000000021,
      "d": 520.2075000000041,
      "v": 90
    },
    {
      "midi": 53,
      "hit": false,
      "t": 64311.120000000206,
      "d": 119.76000000000204,
      "v": 72
    },
    {
      "midi": 56,
      "hit": false,
      "t": 64311.120000000206,
      "d": 119.76000000000204,
      "v": 94
    },
    {
      "midi": 61,
      "hit": false,
      "t": 64311.120000000206,
      "d": 123.50250000000233,
      "v": 90
    },
    {
      "midi": 39,
      "hit": false,
      "t": 64670.40000000021,
      "d": 160.92749999999796,
      "v": 76
    },
    {
      "midi": 58,
      "hit": false,
      "t": 64898.69250000021,
      "d": 29.94000000000233,
      "v": 68
    },
    {
      "midi": 54,
      "hit": false,
      "t": 64898.69250000021,
      "d": 56.137500000004366,
      "v": 90
    },
    {
      "midi": 63,
      "hit": false,
      "t": 64898.69250000021,
      "d": 59.88000000000466,
      "v": 86
    },
    {
      "midi": 39,
      "hit": false,
      "t": 65257.972500000214,
      "d": 112.27500000000146,
      "v": 94
    },
    {
      "midi": 58,
      "hit": false,
      "t": 65388.96000000022,
      "d": 41.1675000000032,
      "v": 86
    },
    {
      "midi": 63,
      "hit": false,
      "t": 65388.96000000022,
      "d": 48.65250000000378,
      "v": 68
    },
    {
      "midi": 54,
      "hit": false,
      "t": 65388.96000000022,
      "d": 86.0775000000067,
      "v": 90
    },
    {
      "midi": 46,
      "hit": false,
      "t": 65748.24000000022,
      "d": 520.2074999999895,
      "v": 90
    },
    {
      "midi": 53,
      "hit": false,
      "t": 66107.52000000022,
      "d": 119.75999999999476,
      "v": 72
    },
    {
      "midi": 56,
      "hit": false,
      "t": 66107.52000000022,
      "d": 119.75999999999476,
      "v": 94
    },
    {
      "midi": 61,
      "hit": false,
      "t": 66107.52000000022,
      "d": 123.50249999998778,
      "v": 90
    },
    {
      "midi": 39,
      "hit": false,
      "t": 66466.8000000002,
      "d": 160.92750000000524,
      "v": 76
    },
    {
      "midi": 58,
      "hit": false,
      "t": 66695.09250000022,
      "d": 29.94000000000233,
      "v": 68
    },
    {
      "midi": 54,
      "hit": false,
      "t": 66695.09250000022,
      "d": 56.13749999999709,
      "v": 90
    },
    {
      "midi": 63,
      "hit": false,
      "t": 66695.09250000022,
      "d": 59.879999999990105,
      "v": 86
    },
    {
      "midi": 39,
      "hit": false,
      "t": 67054.3725000002,
      "d": 112.27499999999418,
      "v": 94
    },
    {
      "midi": 58,
      "hit": false,
      "t": 67185.36000000019,
      "d": 41.167499999995925,
      "v": 86
    },
    {
      "midi": 63,
      "hit": false,
      "t": 67185.36000000019,
      "d": 48.65249999999651,
      "v": 68
    },
    {
      "midi": 54,
      "hit": false,
      "t": 67185.36000000019,
      "d": 86.07749999999942,
      "v": 90
    },
    {
      "midi": 46,
      "hit": false,
      "t": 67544.64000000019,
      "d": 520.2074999999895,
      "v": 90
    },
    {
      "midi": 53,
      "hit": false,
      "t": 67903.92000000019,
      "d": 119.75999999999476,
      "v": 72
    },
    {
      "midi": 56,
      "hit": false,
      "t": 67903.92000000019,
      "d": 119.75999999999476,
      "v": 94
    },
    {
      "midi": 61,
      "hit": false,
      "t": 67903.92000000019,
      "d": 123.50249999998778,
      "v": 90
    },
    {
      "midi": 39,
      "hit": false,
      "t": 68263.20000000017,
      "d": 160.92750000000524,
      "v": 76
    },
    {
      "midi": 58,
      "hit": false,
      "t": 68491.49250000018,
      "d": 29.94000000000233,
      "v": 68
    },
    {
      "midi": 54,
      "hit": false,
      "t": 68491.49250000018,
      "d": 56.13749999999709,
      "v": 90
    },
    {
      "midi": 63,
      "hit": false,
      "t": 68491.49250000018,
      "d": 59.879999999990105,
      "v": 86
    },
    {
      "midi": 39,
      "hit": false,
      "t": 68850.77250000017,
      "d": 112.27499999999418,
      "v": 94
    },
    {
      "midi": 58,
      "hit": false,
      "t": 68981.76000000015,
      "d": 41.167499999995925,
      "v": 86
    },
    {
      "midi": 63,
      "hit": false,
      "t": 68981.76000000015,
      "d": 48.65249999999651,
      "v": 68
    },
    {
      "midi": 54,
      "hit": false,
      "t": 68981.76000000015,
      "d": 86.07749999999942,
      "v": 90
    },
    {
      "midi": 46,
      "hit": false,
      "t": 69341.04000000015,
      "d": 520.2074999999895,
      "v": 90
    },
    {
      "midi": 53,
      "hit": false,
      "t": 69700.32000000015,
      "d": 119.75999999999476,
      "v": 72
    },
    {
      "midi": 56,
      "hit": false,
      "t": 69700.32000000015,
      "d": 119.75999999999476,
      "v": 94
    },
    {
      "midi": 61,
      "hit": false,
      "t": 69700.32000000015,
      "d": 123.50249999998778,
      "v": 90
    },
    {
      "midi": 39,
      "hit": false,
      "t": 70059.60000000014,
      "d": 160.92750000000524,
      "v": 76
    },
    {
      "midi": 58,
      "hit": false,
      "t": 70287.89250000015,
      "d": 29.94000000000233,
      "v": 68
    },
    {
      "midi": 54,
      "hit": false,
      "t": 70287.89250000015,
      "d": 56.13749999999709,
      "v": 90
    },
    {
      "midi": 63,
      "hit": false,
      "t": 70287.89250000015,
      "d": 59.879999999990105,
      "v": 86
    },
    {
      "midi": 39,
      "hit": false,
      "t": 70647.17250000013,
      "d": 112.27499999999418,
      "v": 94
    },
    {
      "midi": 58,
      "hit": false,
      "t": 70778.16000000012,
      "d": 41.167499999995925,
      "v": 86
    },
    {
      "midi": 63,
      "hit": false,
      "t": 70778.16000000012,
      "d": 48.65249999999651,
      "v": 68
    },
    {
      "midi": 54,
      "hit": false,
      "t": 70778.16000000012,
      "d": 86.07749999999942,
      "v": 90
    },
    {
      "midi": 46,
      "hit": false,
      "t": 71137.44000000012,
      "d": 520.2074999999895,
      "v": 90
    },
    {
      "midi": 53,
      "hit": false,
      "t": 71496.72000000012,
      "d": 119.75999999999476,
      "v": 72
    },
    {
      "midi": 56,
      "hit": false,
      "t": 71496.72000000012,
      "d": 119.75999999999476,
      "v": 94
    },
    {
      "midi": 61,
      "hit": false,
      "t": 71496.72000000012,
      "d": 123.50249999998778,
      "v": 90
    },
    {
      "midi": 39,
      "hit": false,
      "t": 71856.0000000001,
      "d": 160.92750000000524,
      "v": 76
    },
    {
      "midi": 58,
      "hit": false,
      "t": 72084.29250000011,
      "d": 29.94000000000233,
      "v": 68
    },
    {
      "midi": 54,
      "hit": false,
      "t": 72084.29250000011,
      "d": 56.13749999999709,
      "v": 90
    },
    {
      "midi": 63,
      "hit": false,
      "t": 72084.29250000011,
      "d": 59.879999999990105,
      "v": 86
    },
    {
      "midi": 39,
      "hit": false,
      "t": 72443.5725000001,
      "d": 112.27499999999418,
      "v": 94
    },
    {
      "midi": 58,
      "hit": false,
      "t": 72574.56000000008,
      "d": 41.167499999995925,
      "v": 86
    },
    {
      "midi": 63,
      "hit": false,
      "t": 72574.56000000008,
      "d": 48.65249999999651,
      "v": 68
    },
    {
      "midi": 54,
      "hit": false,
      "t": 72574.56000000008,
      "d": 86.07749999999942,
      "v": 90
    },
    {
      "midi": 46,
      "hit": false,
      "t": 72933.84000000008,
      "d": 520.2074999999895,
      "v": 90
    },
    {
      "midi": 53,
      "hit": false,
      "t": 73293.12000000008,
      "d": 119.75999999999476,
      "v": 72
    },
    {
      "midi": 56,
      "hit": false,
      "t": 73293.12000000008,
      "d": 119.75999999999476,
      "v": 94
    },
    {
      "midi": 61,
      "hit": false,
      "t": 73293.12000000008,
      "d": 123.50249999998778,
      "v": 90
    },
    {
      "midi": 39,
      "hit": false,
      "t": 73652.40000000007,
      "d": 160.92750000000524,
      "v": 76
    },
    {
      "midi": 58,
      "hit": false,
      "t": 73880.69250000008,
      "d": 29.94000000000233,
      "v": 68
    },
    {
      "midi": 54,
      "hit": false,
      "t": 73880.69250000008,
      "d": 56.13749999999709,
      "v": 90
    },
    {
      "midi": 63,
      "hit": false,
      "t": 73880.69250000008,
      "d": 59.879999999990105,
      "v": 86
    },
    {
      "midi": 39,
      "hit": false,
      "t": 74239.97250000006,
      "d": 112.27499999999418,
      "v": 94
    },
    {
      "midi": 58,
      "hit": false,
      "t": 74370.96000000005,
      "d": 41.167499999995925,
      "v": 86
    },
    {
      "midi": 63,
      "hit": false,
      "t": 74370.96000000005,
      "d": 48.65249999999651,
      "v": 68
    },
    {
      "midi": 54,
      "hit": false,
      "t": 74370.96000000005,
      "d": 86.07749999999942,
      "v": 90
    },
    {
      "midi": 46,
      "hit": false,
      "t": 74730.24000000005,
      "d": 520.2074999999895,
      "v": 90
    },
    {
      "midi": 53,
      "hit": false,
      "t": 75089.52000000005,
      "d": 119.75999999999476,
      "v": 72
    },
    {
      "midi": 56,
      "hit": false,
      "t": 75089.52000000005,
      "d": 119.75999999999476,
      "v": 94
    },
    {
      "midi": 61,
      "hit": false,
      "t": 75089.52000000005,
      "d": 123.50249999998778,
      "v": 90
    },
    {
      "midi": 39,
      "hit": false,
      "t": 75448.80000000003,
      "d": 160.92750000000524,
      "v": 76
    },
    {
      "midi": 58,
      "hit": false,
      "t": 75677.09250000004,
      "d": 29.94000000000233,
      "v": 68
    },
    {
      "midi": 54,
      "hit": false,
      "t": 75677.09250000004,
      "d": 56.13749999999709,
      "v": 90
    },
    {
      "midi": 63,
      "hit": false,
      "t": 75677.09250000004,
      "d": 59.879999999990105,
      "v": 86
    },
    {
      "midi": 39,
      "hit": false,
      "t": 76036.37250000003,
      "d": 112.27499999999418,
      "v": 94
    },
    {
      "midi": 58,
      "hit": false,
      "t": 76167.36000000002,
      "d": 41.167499999995925,
      "v": 86
    },
    {
      "midi": 63,
      "hit": false,
      "t": 76167.36000000002,
      "d": 48.65249999999651,
      "v": 68
    },
    {
      "midi": 54,
      "hit": false,
      "t": 76167.36000000002,
      "d": 86.07749999999942,
      "v": 90
    },
    {
      "midi": 46,
      "hit": false,
      "t": 76526.64000000001,
      "d": 520.2074999999895,
      "v": 90
    },
    {
      "midi": 53,
      "hit": false,
      "t": 76885.92000000001,
      "d": 119.75999999999476,
      "v": 72
    },
    {
      "midi": 56,
      "hit": false,
      "t": 76885.92000000001,
      "d": 119.75999999999476,
      "v": 94
    },
    {
      "midi": 61,
      "hit": false,
      "t": 76885.92000000001,
      "d": 123.50249999998778,
      "v": 90
    },
    {
      "midi": 39,
      "hit": false,
      "t": 77245.2,
      "d": 160.92750000000524,
      "v": 76
    },
    {
      "midi": 58,
      "hit": false,
      "t": 77473.49250000001,
      "d": 29.94000000000233,
      "v": 68
    },
    {
      "midi": 54,
      "hit": false,
      "t": 77473.49250000001,
      "d": 56.13749999999709,
      "v": 90
    },
    {
      "midi": 63,
      "hit": false,
      "t": 77473.49250000001,
      "d": 59.879999999990105,
      "v": 86
    },
    {
      "midi": 39,
      "hit": false,
      "t": 77832.77249999999,
      "d": 112.27499999999418,
      "v": 94
    },
    {
      "midi": 58,
      "hit": false,
      "t": 77963.75999999998,
      "d": 41.167499999995925,
      "v": 86
    },
    {
      "midi": 63,
      "hit": false,
      "t": 77963.75999999998,
      "d": 48.65249999999651,
      "v": 68
    },
    {
      "midi": 54,
      "hit": false,
      "t": 77963.75999999998,
      "d": 86.07749999999942,
      "v": 90
    },
    {
      "midi": 46,
      "hit": false,
      "t": 78323.03999999998,
      "d": 520.2074999999895,
      "v": 90
    },
    {
      "midi": 53,
      "hit": false,
      "t": 78682.31999999998,
      "d": 119.75999999999476,
      "v": 72
    },
    {
      "midi": 56,
      "hit": false,
      "t": 78682.31999999998,
      "d": 119.75999999999476,
      "v": 94
    },
    {
      "midi": 61,
      "hit": false,
      "t": 78682.31999999998,
      "d": 123.50249999998778,
      "v": 90
    },
    {
      "midi": 39,
      "hit": false,
      "t": 79041.59999999996,
      "d": 160.92750000000524,
      "v": 76
    },
    {
      "midi": 58,
      "hit": false,
      "t": 79269.89249999997,
      "d": 29.94000000000233,
      "v": 68
    },
    {
      "midi": 54,
      "hit": false,
      "t": 79269.89249999997,
      "d": 56.13749999999709,
      "v": 90
    },
    {
      "midi": 63,
      "hit": false,
      "t": 79269.89249999997,
      "d": 59.879999999990105,
      "v": 86
    },
    {
      "midi": 39,
      "hit": false,
      "t": 79629.17249999996,
      "d": 112.27499999999418,
      "v": 94
    },
    {
      "midi": 58,
      "hit": false,
      "t": 79760.15999999995,
      "d": 41.167499999995925,
      "v": 86
    },
    {
      "midi": 63,
      "hit": false,
      "t": 79760.15999999995,
      "d": 48.65249999999651,
      "v": 68
    },
    {
      "midi": 54,
      "hit": false,
      "t": 79760.15999999995,
      "d": 86.07749999999942,
      "v": 90
    },
    {
      "midi": 46,
      "hit": false,
      "t": 80119.43999999994,
      "d": 520.2074999999895,
      "v": 90
    },
    {
      "midi": 53,
      "hit": false,
      "t": 80478.71999999994,
      "d": 119.75999999999476,
      "v": 72
    },
    {
      "midi": 56,
      "hit": false,
      "t": 80478.71999999994,
      "d": 119.75999999999476,
      "v": 94
    },
    {
      "midi": 61,
      "hit": false,
      "t": 80478.71999999994,
      "d": 123.50249999998778,
      "v": 90
    },
    {
      "midi": 39,
      "hit": false,
      "t": 80837.99999999993,
      "d": 160.92750000000524,
      "v": 76
    },
    {
      "midi": 58,
      "hit": false,
      "t": 81066.29249999994,
      "d": 29.94000000000233,
      "v": 68
    },
    {
      "midi": 54,
      "hit": false,
      "t": 81066.29249999994,
      "d": 56.13749999999709,
      "v": 90
    },
    {
      "midi": 63,
      "hit": false,
      "t": 81066.29249999994,
      "d": 59.879999999990105,
      "v": 86
    },
    {
      "midi": 39,
      "hit": false,
      "t": 81425.57249999992,
      "d": 112.27499999999418,
      "v": 94
    },
    {
      "midi": 58,
      "hit": false,
      "t": 81556.55999999991,
      "d": 41.167499999995925,
      "v": 86
    },
    {
      "midi": 63,
      "hit": false,
      "t": 81556.55999999991,
      "d": 48.65249999999651,
      "v": 68
    },
    {
      "midi": 54,
      "hit": false,
      "t": 81556.55999999991,
      "d": 86.07749999999942,
      "v": 90
    },
    {
      "midi": 46,
      "hit": false,
      "t": 81915.83999999991,
      "d": 520.2074999999895,
      "v": 90
    },
    {
      "midi": 53,
      "hit": false,
      "t": 82275.11999999991,
      "d": 119.75999999999476,
      "v": 72
    },
    {
      "midi": 56,
      "hit": false,
      "t": 82275.11999999991,
      "d": 119.75999999999476,
      "v": 94
    },
    {
      "midi": 61,
      "hit": false,
      "t": 82275.11999999991,
      "d": 123.50249999998778,
      "v": 90
    },
    {
      "midi": 39,
      "hit": false,
      "t": 82634.39999999989,
      "d": 160.92750000000524,
      "v": 76
    },
    {
      "midi": 58,
      "hit": false,
      "t": 82862.6924999999,
      "d": 29.94000000000233,
      "v": 68
    },
    {
      "midi": 54,
      "hit": false,
      "t": 82862.6924999999,
      "d": 56.13749999999709,
      "v": 90
    },
    {
      "midi": 63,
      "hit": false,
      "t": 82862.6924999999,
      "d": 59.879999999990105,
      "v": 86
    },
    {
      "midi": 39,
      "hit": false,
      "t": 83221.97249999989,
      "d": 112.27499999999418,
      "v": 94
    },
    {
      "midi": 58,
      "hit": false,
      "t": 83352.95999999988,
      "d": 41.167499999995925,
      "v": 86
    },
    {
      "midi": 63,
      "hit": false,
      "t": 83352.95999999988,
      "d": 48.65249999999651,
      "v": 68
    },
    {
      "midi": 54,
      "hit": false,
      "t": 83352.95999999988,
      "d": 86.07749999999942,
      "v": 90
    },
    {
      "midi": 46,
      "hit": false,
      "t": 83712.23999999987,
      "d": 520.2074999999895,
      "v": 90
    },
    {
      "midi": 53,
      "hit": false,
      "t": 84071.51999999987,
      "d": 119.75999999999476,
      "v": 72
    },
    {
      "midi": 56,
      "hit": false,
      "t": 84071.51999999987,
      "d": 119.75999999999476,
      "v": 94
    },
    {
      "midi": 61,
      "hit": false,
      "t": 84071.51999999987,
      "d": 123.50249999998778,
      "v": 90
    },
    {
      "midi": 39,
      "hit": false,
      "t": 84430.79999999986,
      "d": 160.92750000000524,
      "v": 76
    },
    {
      "midi": 58,
      "hit": false,
      "t": 84659.09249999987,
      "d": 29.94000000000233,
      "v": 68
    },
    {
      "midi": 54,
      "hit": false,
      "t": 84659.09249999987,
      "d": 56.13749999999709,
      "v": 90
    },
    {
      "midi": 63,
      "hit": false,
      "t": 84659.09249999987,
      "d": 59.879999999990105,
      "v": 86
    },
    {
      "midi": 39,
      "hit": false,
      "t": 85018.37249999985,
      "d": 112.27499999999418,
      "v": 94
    },
    {
      "midi": 58,
      "hit": false,
      "t": 85149.35999999984,
      "d": 41.167499999995925,
      "v": 86
    },
    {
      "midi": 63,
      "hit": false,
      "t": 85149.35999999984,
      "d": 48.65249999999651,
      "v": 68
    },
    {
      "midi": 54,
      "hit": false,
      "t": 85149.35999999984,
      "d": 86.07749999999942,
      "v": 90
    },
    {
      "midi": 46,
      "hit": false,
      "t": 85508.63999999984,
      "d": 520.2074999999895,
      "v": 90
    },
    {
      "midi": 53,
      "hit": false,
      "t": 85867.91999999984,
      "d": 119.75999999999476,
      "v": 72
    },
    {
      "midi": 56,
      "hit": false,
      "t": 85867.91999999984,
      "d": 119.75999999999476,
      "v": 94
    },
    {
      "midi": 61,
      "hit": false,
      "t": 85867.91999999984,
      "d": 123.50249999998778,
      "v": 90
    },
    {
      "midi": 39,
      "hit": false,
      "t": 86227.19999999982,
      "d": 160.92750000000524,
      "v": 76
    },
    {
      "midi": 58,
      "hit": false,
      "t": 86455.49249999983,
      "d": 29.94000000000233,
      "v": 68
    },
    {
      "midi": 54,
      "hit": false,
      "t": 86455.49249999983,
      "d": 56.13749999999709,
      "v": 90
    },
    {
      "midi": 63,
      "hit": false,
      "t": 86455.49249999983,
      "d": 59.879999999990105,
      "v": 86
    },
    {
      "midi": 39,
      "hit": false,
      "t": 86814.77249999982,
      "d": 112.27499999999418,
      "v": 94
    },
    {
      "midi": 58,
      "hit": false,
      "t": 86945.7599999998,
      "d": 41.167499999995925,
      "v": 86
    },
    {
      "midi": 63,
      "hit": false,
      "t": 86945.7599999998,
      "d": 48.65249999999651,
      "v": 68
    },
    {
      "midi": 54,
      "hit": false,
      "t": 86945.7599999998,
      "d": 86.07749999999942,
      "v": 90
    },
    {
      "midi": 46,
      "hit": false,
      "t": 87305.0399999998,
      "d": 520.2074999999895,
      "v": 90
    },
    {
      "midi": 53,
      "hit": false,
      "t": 87664.3199999998,
      "d": 119.75999999999476,
      "v": 72
    },
    {
      "midi": 56,
      "hit": false,
      "t": 87664.3199999998,
      "d": 119.75999999999476,
      "v": 94
    },
    {
      "midi": 61,
      "hit": false,
      "t": 87664.3199999998,
      "d": 123.50249999998778,
      "v": 90
    },
    {
      "midi": 39,
      "hit": false,
      "t": 88023.59999999979,
      "d": 160.92750000000524,
      "v": 76
    },
    {
      "midi": 58,
      "hit": false,
      "t": 88251.8924999998,
      "d": 29.94000000000233,
      "v": 68
    },
    {
      "midi": 54,
      "hit": false,
      "t": 88251.8924999998,
      "d": 56.13749999999709,
      "v": 90
    },
    {
      "midi": 63,
      "hit": false,
      "t": 88251.8924999998,
      "d": 59.879999999990105,
      "v": 86
    },
    {
      "midi": 39,
      "hit": false,
      "t": 88611.17249999978,
      "d": 112.27499999999418,
      "v": 94
    },
    {
      "midi": 58,
      "hit": false,
      "t": 88742.15999999977,
      "d": 41.167499999995925,
      "v": 86
    },
    {
      "midi": 63,
      "hit": false,
      "t": 88742.15999999977,
      "d": 48.65249999999651,
      "v": 68
    },
    {
      "midi": 54,
      "hit": false,
      "t": 88742.15999999977,
      "d": 86.07749999999942,
      "v": 90
    },
    {
      "midi": 46,
      "hit": false,
      "t": 89101.43999999977,
      "d": 520.2074999999895,
      "v": 90
    },
    {
      "midi": 53,
      "hit": false,
      "t": 89460.71999999977,
      "d": 119.75999999999476,
      "v": 72
    },
    {
      "midi": 56,
      "hit": false,
      "t": 89460.71999999977,
      "d": 119.75999999999476,
      "v": 94
    },
    {
      "midi": 61,
      "hit": false,
      "t": 89460.71999999977,
      "d": 123.50249999998778,
      "v": 90
    },
    {
      "midi": 39,
      "hit": false,
      "t": 89819.99999999975,
      "d": 160.92750000000524,
      "v": 76
    },
    {
      "midi": 58,
      "hit": false,
      "t": 90048.29249999976,
      "d": 29.94000000000233,
      "v": 68
    },
    {
      "midi": 54,
      "hit": false,
      "t": 90048.29249999976,
      "d": 56.13749999999709,
      "v": 90
    },
    {
      "midi": 63,
      "hit": false,
      "t": 90048.29249999976,
      "d": 59.879999999990105,
      "v": 86
    },
    {
      "midi": 39,
      "hit": false,
      "t": 90407.57249999975,
      "d": 112.27499999999418,
      "v": 94
    },
    {
      "midi": 58,
      "hit": false,
      "t": 90538.55999999974,
      "d": 41.167499999995925,
      "v": 86
    },
    {
      "midi": 63,
      "hit": false,
      "t": 90538.55999999974,
      "d": 48.65249999999651,
      "v": 68
    },
    {
      "midi": 54,
      "hit": false,
      "t": 90538.55999999974,
      "d": 86.07749999999942,
      "v": 90
    },
    {
      "midi": 46,
      "hit": false,
      "t": 90897.83999999973,
      "d": 520.2074999999895,
      "v": 90
    },
    {
      "midi": 53,
      "hit": false,
      "t": 91257.11999999973,
      "d": 119.75999999999476,
      "v": 72
    },
    {
      "midi": 56,
      "hit": false,
      "t": 91257.11999999973,
      "d": 119.75999999999476,
      "v": 94
    },
    {
      "midi": 61,
      "hit": false,
      "t": 91257.11999999973,
      "d": 123.50249999998778,
      "v": 90
    },
    {
      "midi": 39,
      "hit": false,
      "t": 91616.39999999972,
      "d": 160.92750000000524,
      "v": 76
    },
    {
      "midi": 58,
      "hit": false,
      "t": 91844.69249999973,
      "d": 29.94000000000233,
      "v": 68
    },
    {
      "midi": 54,
      "hit": false,
      "t": 91844.69249999973,
      "d": 56.13749999999709,
      "v": 90
    },
    {
      "midi": 63,
      "hit": false,
      "t": 91844.69249999973,
      "d": 59.879999999990105,
      "v": 86
    },
    {
      "midi": 39,
      "hit": false,
      "t": 92203.97249999971,
      "d": 112.27499999999418,
      "v": 94
    },
    {
      "midi": 58,
      "hit": false,
      "t": 92334.9599999997,
      "d": 41.167499999995925,
      "v": 86
    },
    {
      "midi": 63,
      "hit": false,
      "t": 92334.9599999997,
      "d": 48.65249999999651,
      "v": 68
    },
    {
      "midi": 54,
      "hit": false,
      "t": 92334.9599999997,
      "d": 86.07749999999942,
      "v": 90
    },
    {
      "midi": 46,
      "hit": false,
      "t": 92694.2399999997,
      "d": 520.2074999999895,
      "v": 90
    },
    {
      "midi": 53,
      "hit": false,
      "t": 93053.5199999997,
      "d": 119.75999999999476,
      "v": 72
    },
    {
      "midi": 56,
      "hit": false,
      "t": 93053.5199999997,
      "d": 119.75999999999476,
      "v": 94
    },
    {
      "midi": 61,
      "hit": false,
      "t": 93053.5199999997,
      "d": 123.50249999998778,
      "v": 90
    },
    {
      "midi": 39,
      "hit": false,
      "t": 93412.79999999968,
      "d": 160.92750000000524,
      "v": 76
    },
    {
      "midi": 58,
      "hit": false,
      "t": 93641.0924999997,
      "d": 29.94000000000233,
      "v": 68
    },
    {
      "midi": 54,
      "hit": false,
      "t": 93641.0924999997,
      "d": 56.13749999999709,
      "v": 90
    },
    {
      "midi": 63,
      "hit": false,
      "t": 93641.0924999997,
      "d": 59.879999999990105,
      "v": 86
    },
    {
      "midi": 39,
      "hit": false,
      "t": 94000.37249999968,
      "d": 112.27499999999418,
      "v": 94
    },
    {
      "midi": 58,
      "hit": false,
      "t": 94131.35999999967,
      "d": 41.167499999995925,
      "v": 86
    },
    {
      "midi": 63,
      "hit": false,
      "t": 94131.35999999967,
      "d": 48.65249999999651,
      "v": 68
    },
    {
      "midi": 54,
      "hit": false,
      "t": 94131.35999999967,
      "d": 86.07749999999942,
      "v": 90
    },
    {
      "midi": 46,
      "hit": false,
      "t": 94490.63999999966,
      "d": 520.2074999999895,
      "v": 90
    },
    {
      "midi": 53,
      "hit": false,
      "t": 94849.91999999966,
      "d": 119.75999999999476,
      "v": 72
    },
    {
      "midi": 56,
      "hit": false,
      "t": 94849.91999999966,
      "d": 119.75999999999476,
      "v": 94
    },
    {
      "midi": 61,
      "hit": false,
      "t": 94849.91999999966,
      "d": 123.50249999998778,
      "v": 90
    },
    {
      "midi": 39,
      "hit": false,
      "t": 95209.19999999965,
      "d": 160.92750000000524,
      "v": 76
    },
    {
      "midi": 58,
      "hit": false,
      "t": 95437.49249999966,
      "d": 29.94000000000233,
      "v": 68
    },
    {
      "midi": 54,
      "hit": false,
      "t": 95437.49249999966,
      "d": 56.13749999999709,
      "v": 90
    },
    {
      "midi": 63,
      "hit": false,
      "t": 95437.49249999966,
      "d": 59.879999999990105,
      "v": 86
    },
    {
      "midi": 39,
      "hit": false,
      "t": 95796.77249999964,
      "d": 112.27499999999418,
      "v": 94
    },
    {
      "midi": 58,
      "hit": false,
      "t": 95927.75999999963,
      "d": 41.167499999995925,
      "v": 86
    },
    {
      "midi": 63,
      "hit": false,
      "t": 95927.75999999963,
      "d": 48.65249999999651,
      "v": 68
    },
    {
      "midi": 54,
      "hit": false,
      "t": 95927.75999999963,
      "d": 86.07749999999942,
      "v": 90
    },
    {
      "midi": 46,
      "hit": false,
      "t": 96287.03999999963,
      "d": 520.2074999999895,
      "v": 90
    },
    {
      "midi": 53,
      "hit": false,
      "t": 96646.31999999963,
      "d": 119.75999999999476,
      "v": 72
    },
    {
      "midi": 56,
      "hit": false,
      "t": 96646.31999999963,
      "d": 119.75999999999476,
      "v": 94
    },
    {
      "midi": 61,
      "hit": false,
      "t": 96646.31999999963,
      "d": 123.50249999998778,
      "v": 90
    },
    {
      "midi": 39,
      "hit": false,
      "t": 97005.59999999961,
      "d": 160.92750000000524,
      "v": 76
    },
    {
      "midi": 58,
      "hit": false,
      "t": 97233.89249999962,
      "d": 29.94000000000233,
      "v": 68
    },
    {
      "midi": 54,
      "hit": false,
      "t": 97233.89249999962,
      "d": 56.13749999999709,
      "v": 90
    },
    {
      "midi": 63,
      "hit": false,
      "t": 97233.89249999962,
      "d": 59.879999999990105,
      "v": 86
    },
    {
      "midi": 39,
      "hit": false,
      "t": 97593.17249999961,
      "d": 112.27499999999418,
      "v": 94
    },
    {
      "midi": 58,
      "hit": false,
      "t": 97724.1599999996,
      "d": 41.167499999995925,
      "v": 86
    },
    {
      "midi": 63,
      "hit": false,
      "t": 97724.1599999996,
      "d": 48.65249999999651,
      "v": 68
    },
    {
      "midi": 54,
      "hit": false,
      "t": 97724.1599999996,
      "d": 86.07749999999942,
      "v": 90
    },
    {
      "midi": 46,
      "hit": false,
      "t": 98083.4399999996,
      "d": 520.2074999999895,
      "v": 90
    },
    {
      "midi": 53,
      "hit": false,
      "t": 98442.7199999996,
      "d": 119.75999999999476,
      "v": 72
    },
    {
      "midi": 56,
      "hit": false,
      "t": 98442.7199999996,
      "d": 119.75999999999476,
      "v": 94
    },
    {
      "midi": 61,
      "hit": false,
      "t": 98442.7199999996,
      "d": 123.50249999998778,
      "v": 90
    },
    {
      "midi": 39,
      "hit": false,
      "t": 98801.99999999958,
      "d": 160.92750000000524,
      "v": 76
    },
    {
      "midi": 58,
      "hit": false,
      "t": 99030.29249999959,
      "d": 29.94000000000233,
      "v": 68
    },
    {
      "midi": 54,
      "hit": false,
      "t": 99030.29249999959,
      "d": 56.13749999999709,
      "v": 90
    },
    {
      "midi": 63,
      "hit": false,
      "t": 99030.29249999959,
      "d": 59.879999999990105,
      "v": 86
    },
    {
      "midi": 39,
      "hit": false,
      "t": 99389.57249999957,
      "d": 112.27499999999418,
      "v": 94
    },
    {
      "midi": 58,
      "hit": false,
      "t": 99520.55999999956,
      "d": 41.167499999995925,
      "v": 86
    },
    {
      "midi": 63,
      "hit": false,
      "t": 99520.55999999956,
      "d": 48.65249999999651,
      "v": 68
    },
    {
      "midi": 54,
      "hit": false,
      "t": 99520.55999999956,
      "d": 86.07749999999942,
      "v": 90
    },
    {
      "midi": 46,
      "hit": false,
      "t": 99879.83999999956,
      "d": 520.2074999999895,
      "v": 90
    },
    {
      "midi": 53,
      "hit": false,
      "t": 100239.11999999956,
      "d": 119.75999999999476,
      "v": 72
    },
    {
      "midi": 56,
      "hit": false,
      "t": 100239.11999999956,
      "d": 119.75999999999476,
      "v": 94
    },
    {
      "midi": 61,
      "hit": false,
      "t": 100239.11999999956,
      "d": 123.50249999998778,
      "v": 90
    },
    {
      "midi": 39,
      "hit": false,
      "t": 100598.39999999954,
      "d": 160.92750000000524,
      "v": 76
    },
    {
      "midi": 58,
      "hit": false,
      "t": 100826.69249999955,
      "d": 29.94000000000233,
      "v": 68
    },
    {
      "midi": 54,
      "hit": false,
      "t": 100826.69249999955,
      "d": 56.13749999999709,
      "v": 90
    },
    {
      "midi": 63,
      "hit": false,
      "t": 100826.69249999955,
      "d": 59.879999999990105,
      "v": 86
    },
    {
      "midi": 39,
      "hit": false,
      "t": 101185.97249999954,
      "d": 112.27499999999418,
      "v": 94
    },
    {
      "midi": 58,
      "hit": false,
      "t": 101316.95999999953,
      "d": 41.167499999995925,
      "v": 86
    },
    {
      "midi": 63,
      "hit": false,
      "t": 101316.95999999953,
      "d": 48.65249999999651,
      "v": 68
    },
    {
      "midi": 54,
      "hit": false,
      "t": 101316.95999999953,
      "d": 86.07749999999942,
      "v": 90
    },
    {
      "midi": 46,
      "hit": false,
      "t": 101676.23999999953,
      "d": 520.2074999999895,
      "v": 90
    },
    {
      "midi": 53,
      "hit": false,
      "t": 102035.51999999952,
      "d": 119.75999999999476,
      "v": 72
    },
    {
      "midi": 56,
      "hit": false,
      "t": 102035.51999999952,
      "d": 119.75999999999476,
      "v": 94
    },
    {
      "midi": 61,
      "hit": false,
      "t": 102035.51999999952,
      "d": 123.50249999998778,
      "v": 90
    },
    {
      "midi": 39,
      "hit": false,
      "t": 102394.79999999951,
      "d": 160.92750000000524,
      "v": 76
    },
    {
      "midi": 58,
      "hit": false,
      "t": 102623.09249999952,
      "d": 29.94000000000233,
      "v": 68
    },
    {
      "midi": 54,
      "hit": false,
      "t": 102623.09249999952,
      "d": 56.13749999999709,
      "v": 90
    },
    {
      "midi": 63,
      "hit": false,
      "t": 102623.09249999952,
      "d": 59.879999999990105,
      "v": 86
    },
    {
      "midi": 39,
      "hit": false,
      "t": 102982.3724999995,
      "d": 112.27499999999418,
      "v": 94
    },
    {
      "midi": 58,
      "hit": false,
      "t": 103113.35999999949,
      "d": 41.167499999995925,
      "v": 86
    },
    {
      "midi": 63,
      "hit": false,
      "t": 103113.35999999949,
      "d": 48.65249999999651,
      "v": 68
    },
    {
      "midi": 54,
      "hit": false,
      "t": 103113.35999999949,
      "d": 86.07749999999942,
      "v": 90
    },
    {
      "midi": 46,
      "hit": false,
      "t": 103472.63999999949,
      "d": 520.2074999999895,
      "v": 90
    },
    {
      "midi": 53,
      "hit": false,
      "t": 103831.91999999949,
      "d": 119.75999999999476,
      "v": 72
    },
    {
      "midi": 56,
      "hit": false,
      "t": 103831.91999999949,
      "d": 119.75999999999476,
      "v": 94
    },
    {
      "midi": 61,
      "hit": false,
      "t": 103831.91999999949,
      "d": 123.50249999998778,
      "v": 90
    },
    {
      "midi": 39,
      "hit": false,
      "t": 104191.19999999947,
      "d": 160.92750000000524,
      "v": 76
    },
    {
      "midi": 58,
      "hit": false,
      "t": 104419.49249999948,
      "d": 29.94000000000233,
      "v": 68
    },
    {
      "midi": 54,
      "hit": false,
      "t": 104419.49249999948,
      "d": 56.13749999999709,
      "v": 90
    },
    {
      "midi": 63,
      "hit": false,
      "t": 104419.49249999948,
      "d": 59.879999999990105,
      "v": 86
    },
    {
      "midi": 39,
      "hit": false,
      "t": 104778.77249999947,
      "d": 112.27499999999418,
      "v": 94
    },
    {
      "midi": 58,
      "hit": false,
      "t": 104909.75999999946,
      "d": 41.167499999995925,
      "v": 86
    },
    {
      "midi": 63,
      "hit": false,
      "t": 104909.75999999946,
      "d": 48.65249999999651,
      "v": 68
    },
    {
      "midi": 54,
      "hit": false,
      "t": 104909.75999999946,
      "d": 86.07749999999942,
      "v": 90
    },
    {
      "midi": 46,
      "hit": false,
      "t": 105269.03999999946,
      "d": 520.2074999999895,
      "v": 90
    },
    {
      "midi": 53,
      "hit": false,
      "t": 105628.31999999945,
      "d": 119.75999999999476,
      "v": 72
    },
    {
      "midi": 56,
      "hit": false,
      "t": 105628.31999999945,
      "d": 119.75999999999476,
      "v": 94
    },
    {
      "midi": 61,
      "hit": false,
      "t": 105628.31999999945,
      "d": 123.50249999998778,
      "v": 90
    },
    {
      "midi": 39,
      "hit": false,
      "t": 105987.59999999944,
      "d": 160.92750000000524,
      "v": 76
    },
    {
      "midi": 58,
      "hit": false,
      "t": 106215.89249999945,
      "d": 29.94000000000233,
      "v": 68
    },
    {
      "midi": 54,
      "hit": false,
      "t": 106215.89249999945,
      "d": 56.13749999999709,
      "v": 90
    },
    {
      "midi": 63,
      "hit": false,
      "t": 106215.89249999945,
      "d": 59.879999999990105,
      "v": 86
    },
    {
      "midi": 39,
      "hit": false,
      "t": 106575.17249999943,
      "d": 112.27499999999418,
      "v": 94
    },
    {
      "midi": 58,
      "hit": false,
      "t": 106706.15999999942,
      "d": 41.167499999995925,
      "v": 86
    },
    {
      "midi": 63,
      "hit": false,
      "t": 106706.15999999942,
      "d": 48.65249999999651,
      "v": 68
    },
    {
      "midi": 54,
      "hit": false,
      "t": 106706.15999999942,
      "d": 86.07749999999942,
      "v": 90
    },
    {
      "midi": 46,
      "hit": false,
      "t": 107065.43999999942,
      "d": 520.2074999999895,
      "v": 90
    },
    {
      "midi": 53,
      "hit": false,
      "t": 107424.71999999942,
      "d": 119.75999999999476,
      "v": 72
    },
    {
      "midi": 56,
      "hit": false,
      "t": 107424.71999999942,
      "d": 119.75999999999476,
      "v": 94
    },
    {
      "midi": 61,
      "hit": false,
      "t": 107424.71999999942,
      "d": 123.50249999998778,
      "v": 90
    },
    {
      "midi": 39,
      "hit": false,
      "t": 107783.9999999994,
      "d": 160.92750000000524,
      "v": 76
    },
    {
      "midi": 58,
      "hit": false,
      "t": 108012.29249999941,
      "d": 29.94000000000233,
      "v": 68
    },
    {
      "midi": 54,
      "hit": false,
      "t": 108012.29249999941,
      "d": 56.13749999999709,
      "v": 90
    },
    {
      "midi": 63,
      "hit": false,
      "t": 108012.29249999941,
      "d": 59.879999999990105,
      "v": 86
    },
    {
      "midi": 39,
      "hit": false,
      "t": 108371.5724999994,
      "d": 112.27499999999418,
      "v": 94
    },
    {
      "midi": 58,
      "hit": false,
      "t": 108502.55999999939,
      "d": 41.167499999995925,
      "v": 86
    },
    {
      "midi": 63,
      "hit": false,
      "t": 108502.55999999939,
      "d": 48.65249999999651,
      "v": 68
    },
    {
      "midi": 54,
      "hit": false,
      "t": 108502.55999999939,
      "d": 86.07749999999942,
      "v": 90
    },
    {
      "midi": 46,
      "hit": false,
      "t": 108861.83999999939,
      "d": 520.2074999999895,
      "v": 90
    },
    {
      "midi": 53,
      "hit": false,
      "t": 109221.11999999938,
      "d": 119.75999999999476,
      "v": 72
    },
    {
      "midi": 56,
      "hit": false,
      "t": 109221.11999999938,
      "d": 119.75999999999476,
      "v": 94
    },
    {
      "midi": 61,
      "hit": false,
      "t": 109221.11999999938,
      "d": 123.50249999998778,
      "v": 90
    },
    {
      "midi": 39,
      "hit": false,
      "t": 109580.39999999937,
      "d": 160.92750000000524,
      "v": 76
    },
    {
      "midi": 58,
      "hit": false,
      "t": 109808.69249999938,
      "d": 29.94000000000233,
      "v": 68
    },
    {
      "midi": 54,
      "hit": false,
      "t": 109808.69249999938,
      "d": 56.13749999999709,
      "v": 90
    },
    {
      "midi": 63,
      "hit": false,
      "t": 109808.69249999938,
      "d": 59.879999999990105,
      "v": 86
    },
    {
      "midi": 39,
      "hit": false,
      "t": 110167.97249999936,
      "d": 112.27499999999418,
      "v": 94
    },
    {
      "midi": 58,
      "hit": false,
      "t": 110298.95999999935,
      "d": 41.167499999995925,
      "v": 86
    },
    {
      "midi": 63,
      "hit": false,
      "t": 110298.95999999935,
      "d": 48.65249999999651,
      "v": 68
    },
    {
      "midi": 54,
      "hit": false,
      "t": 110298.95999999935,
      "d": 86.07749999999942,
      "v": 90
    },
    {
      "midi": 46,
      "hit": false,
      "t": 110658.23999999935,
      "d": 520.2074999999895,
      "v": 90
    },
    {
      "midi": 53,
      "hit": false,
      "t": 111017.51999999935,
      "d": 119.75999999999476,
      "v": 72
    },
    {
      "midi": 56,
      "hit": false,
      "t": 111017.51999999935,
      "d": 119.75999999999476,
      "v": 94
    },
    {
      "midi": 61,
      "hit": false,
      "t": 111017.51999999935,
      "d": 123.50249999998778,
      "v": 90
    },
    {
      "midi": 39,
      "hit": false,
      "t": 111376.79999999933,
      "d": 142.2149999999965,
      "v": 86
    },
    {
      "midi": 58,
      "hit": false,
      "t": 111605.09249999933,
      "d": 56.13749999999709,
      "v": 62
    },
    {
      "midi": 54,
      "hit": false,
      "t": 111605.09249999933,
      "d": 59.879999999990105,
      "v": 50
    },
    {
      "midi": 63,
      "hit": false,
      "t": 111605.09249999933,
      "d": 59.879999999990105,
      "v": 68
    },
    {
      "midi": 39,
      "hit": false,
      "t": 111964.37249999931,
      "d": 86.07749999999942,
      "v": 76
    },
    {
      "midi": 58,
      "hit": false,
      "t": 112095.35999999932,
      "d": 67.36500000000524,
      "v": 76
    },
    {
      "midi": 54,
      "hit": false,
      "t": 112095.35999999932,
      "d": 78.59249999999884,
      "v": 76
    },
    {
      "midi": 63,
      "hit": false,
      "t": 112095.35999999932,
      "d": 104.7899999999936,
      "v": 94
    },
    {
      "midi": 58,
      "hit": false,
      "t": 112454.63999999932,
      "d": 303.14250000000175,
      "v": 76
    },
    {
      "midi": 61,
      "hit": false,
      "t": 112454.63999999932,
      "d": 310.6275000000023,
      "v": 76
    },
    {
      "midi": 46,
      "hit": false,
      "t": 112454.63999999932,
      "d": 587.5724999999948,
      "v": 72
    },
    {
      "midi": 60,
      "hit": false,
      "t": 112813.91999999931,
      "d": 179.63999999999942,
      "v": 86
    },
    {
      "midi": 56,
      "hit": false,
      "t": 112813.91999999931,
      "d": 213.32249999999476,
      "v": 64
    },
    {
      "midi": 39,
      "hit": false,
      "t": 113173.19999999931,
      "d": 160.92750000000524,
      "v": 76
    },
    {
      "midi": 58,
      "hit": false,
      "t": 113401.49249999932,
      "d": 29.94000000000233,
      "v": 68
    },
    {
      "midi": 54,
      "hit": false,
      "t": 113401.49249999932,
      "d": 56.13749999999709,
      "v": 90
    },
    {
      "midi": 63,
      "hit": false,
      "t": 113401.49249999932,
      "d": 59.879999999990105,
      "v": 86
    },
    {
      "midi": 39,
      "hit": false,
      "t": 113760.77249999931,
      "d": 112.27499999999418,
      "v": 94
    },
    {
      "midi": 58,
      "hit": false,
      "t": 113891.7599999993,
      "d": 41.167499999995925,
      "v": 86
    },
    {
      "midi": 63,
      "hit": false,
      "t": 113891.7599999993,
      "d": 48.65249999999651,
      "v": 68
    },
    {
      "midi": 54,
      "hit": false,
      "t": 113891.7599999993,
      "d": 86.07749999999942,
      "v": 90
    },
    {
      "midi": 46,
      "hit": false,
      "t": 114251.0399999993,
      "d": 520.2074999999895,
      "v": 90
    },
    {
      "midi": 53,
      "hit": false,
      "t": 114610.3199999993,
      "d": 119.75999999999476,
      "v": 72
    },
    {
      "midi": 56,
      "hit": false,
      "t": 114610.3199999993,
      "d": 119.75999999999476,
      "v": 94
    },
    {
      "midi": 61,
      "hit": false,
      "t": 114610.3199999993,
      "d": 123.50249999998778,
      "v": 90
    },
    {
      "midi": 39,
      "hit": false,
      "t": 114969.59999999928,
      "d": 160.92750000000524,
      "v": 76
    },
    {
      "midi": 58,
      "hit": false,
      "t": 115197.89249999929,
      "d": 29.94000000000233,
      "v": 68
    },
    {
      "midi": 54,
      "hit": false,
      "t": 115197.89249999929,
      "d": 56.13749999999709,
      "v": 90
    },
    {
      "midi": 63,
      "hit": false,
      "t": 115197.89249999929,
      "d": 59.879999999990105,
      "v": 86
    },
    {
      "midi": 39,
      "hit": false,
      "t": 115557.17249999927,
      "d": 112.27499999999418,
      "v": 94
    },
    {
      "midi": 58,
      "hit": false,
      "t": 115688.15999999926,
      "d": 41.167499999995925,
      "v": 86
    },
    {
      "midi": 63,
      "hit": false,
      "t": 115688.15999999926,
      "d": 48.65249999999651,
      "v": 68
    },
    {
      "midi": 54,
      "hit": false,
      "t": 115688.15999999926,
      "d": 86.07749999999942,
      "v": 90
    },
    {
      "midi": 46,
      "hit": false,
      "t": 116047.43999999926,
      "d": 520.2074999999895,
      "v": 90
    },
    {
      "midi": 53,
      "hit": false,
      "t": 116406.71999999926,
      "d": 119.75999999999476,
      "v": 72
    },
    {
      "midi": 56,
      "hit": false,
      "t": 116406.71999999926,
      "d": 119.75999999999476,
      "v": 94
    },
    {
      "midi": 61,
      "hit": false,
      "t": 116406.71999999926,
      "d": 123.50249999998778,
      "v": 90
    },
    {
      "midi": 39,
      "hit": false,
      "t": 116765.99999999924,
      "d": 160.92750000000524,
      "v": 76
    },
    {
      "midi": 58,
      "hit": false,
      "t": 116994.29249999925,
      "d": 29.94000000000233,
      "v": 68
    },
    {
      "midi": 54,
      "hit": false,
      "t": 116994.29249999925,
      "d": 56.13749999999709,
      "v": 90
    },
    {
      "midi": 63,
      "hit": false,
      "t": 116994.29249999925,
      "d": 59.879999999990105,
      "v": 86
    },
    {
      "midi": 39,
      "hit": false,
      "t": 117353.57249999924,
      "d": 112.27499999999418,
      "v": 94
    },
    {
      "midi": 58,
      "hit": false,
      "t": 117484.55999999923,
      "d": 41.167499999995925,
      "v": 86
    },
    {
      "midi": 63,
      "hit": false,
      "t": 117484.55999999923,
      "d": 48.65249999999651,
      "v": 68
    },
    {
      "midi": 54,
      "hit": false,
      "t": 117484.55999999923,
      "d": 86.07749999999942,
      "v": 90
    },
    {
      "midi": 46,
      "hit": false,
      "t": 117843.83999999923,
      "d": 520.2074999999895,
      "v": 90
    },
    {
      "midi": 53,
      "hit": false,
      "t": 118203.11999999922,
      "d": 119.75999999999476,
      "v": 72
    },
    {
      "midi": 56,
      "hit": false,
      "t": 118203.11999999922,
      "d": 119.75999999999476,
      "v": 94
    },
    {
      "midi": 61,
      "hit": false,
      "t": 118203.11999999922,
      "d": 123.50249999998778,
      "v": 90
    },
    {
      "midi": 39,
      "hit": false,
      "t": 118562.39999999921,
      "d": 160.92750000000524,
      "v": 76
    },
    {
      "midi": 58,
      "hit": false,
      "t": 118790.69249999922,
      "d": 29.94000000000233,
      "v": 68
    },
    {
      "midi": 54,
      "hit": false,
      "t": 118790.69249999922,
      "d": 56.13749999999709,
      "v": 90
    },
    {
      "midi": 63,
      "hit": false,
      "t": 118790.69249999922,
      "d": 59.879999999990105,
      "v": 86
    },
    {
      "midi": 39,
      "hit": false,
      "t": 119149.9724999992,
      "d": 112.27499999999418,
      "v": 94
    },
    {
      "midi": 58,
      "hit": false,
      "t": 119280.95999999919,
      "d": 41.167499999995925,
      "v": 86
    },
    {
      "midi": 63,
      "hit": false,
      "t": 119280.95999999919,
      "d": 48.65249999999651,
      "v": 68
    },
    {
      "midi": 54,
      "hit": false,
      "t": 119280.95999999919,
      "d": 86.07749999999942,
      "v": 90
    },
    {
      "midi": 46,
      "hit": false,
      "t": 119640.23999999919,
      "d": 520.2074999999895,
      "v": 90
    },
    {
      "midi": 53,
      "hit": false,
      "t": 119999.51999999919,
      "d": 119.75999999999476,
      "v": 72
    },
    {
      "midi": 56,
      "hit": false,
      "t": 119999.51999999919,
      "d": 119.75999999999476,
      "v": 94
    },
    {
      "midi": 61,
      "hit": false,
      "t": 119999.51999999919,
      "d": 123.50249999998778,
      "v": 90
    },
    {
      "midi": 39,
      "hit": false,
      "t": 120358.79999999917,
      "d": 160.92750000000524,
      "v": 76
    },
    {
      "midi": 58,
      "hit": false,
      "t": 120587.09249999918,
      "d": 29.94000000000233,
      "v": 68
    },
    {
      "midi": 54,
      "hit": false,
      "t": 120587.09249999918,
      "d": 56.13749999999709,
      "v": 90
    },
    {
      "midi": 63,
      "hit": false,
      "t": 120587.09249999918,
      "d": 59.879999999990105,
      "v": 86
    },
    {
      "midi": 39,
      "hit": false,
      "t": 120946.37249999917,
      "d": 112.27499999999418,
      "v": 94
    },
    {
      "midi": 58,
      "hit": false,
      "t": 121077.35999999916,
      "d": 41.167499999995925,
      "v": 86
    },
    {
      "midi": 63,
      "hit": false,
      "t": 121077.35999999916,
      "d": 48.65249999999651,
      "v": 68
    },
    {
      "midi": 54,
      "hit": false,
      "t": 121077.35999999916,
      "d": 86.07749999999942,
      "v": 90
    },
    {
      "midi": 46,
      "hit": false,
      "t": 121436.63999999916,
      "d": 520.2074999999895,
      "v": 90
    },
    {
      "midi": 53,
      "hit": false,
      "t": 121795.91999999915,
      "d": 119.75999999999476,
      "v": 72
    },
    {
      "midi": 56,
      "hit": false,
      "t": 121795.91999999915,
      "d": 119.75999999999476,
      "v": 94
    },
    {
      "midi": 61,
      "hit": false,
      "t": 121795.91999999915,
      "d": 123.50249999998778,
      "v": 90
    },
    {
      "midi": 39,
      "hit": false,
      "t": 122155.19999999914,
      "d": 160.92750000000524,
      "v": 76
    },
    {
      "midi": 58,
      "hit": false,
      "t": 122383.49249999915,
      "d": 29.94000000000233,
      "v": 68
    },
    {
      "midi": 54,
      "hit": false,
      "t": 122383.49249999915,
      "d": 56.13749999999709,
      "v": 90
    },
    {
      "midi": 63,
      "hit": false,
      "t": 122383.49249999915,
      "d": 59.879999999990105,
      "v": 86
    },
    {
      "midi": 39,
      "hit": false,
      "t": 122742.77249999913,
      "d": 112.27499999999418,
      "v": 94
    },
    {
      "midi": 58,
      "hit": false,
      "t": 122873.75999999912,
      "d": 41.167499999995925,
      "v": 86
    },
    {
      "midi": 63,
      "hit": false,
      "t": 122873.75999999912,
      "d": 48.65249999999651,
      "v": 68
    },
    {
      "midi": 54,
      "hit": false,
      "t": 122873.75999999912,
      "d": 86.07749999999942,
      "v": 90
    },
    {
      "midi": 46,
      "hit": false,
      "t": 123233.03999999912,
      "d": 520.2074999999895,
      "v": 90
    },
    {
      "midi": 53,
      "hit": false,
      "t": 123592.31999999912,
      "d": 119.75999999999476,
      "v": 72
    },
    {
      "midi": 56,
      "hit": false,
      "t": 123592.31999999912,
      "d": 119.75999999999476,
      "v": 94
    },
    {
      "midi": 61,
      "hit": false,
      "t": 123592.31999999912,
      "d": 123.50249999998778,
      "v": 90
    },
    {
      "midi": 39,
      "hit": false,
      "t": 123951.5999999991,
      "d": 160.92750000000524,
      "v": 76
    },
    {
      "midi": 58,
      "hit": false,
      "t": 124179.89249999911,
      "d": 29.94000000000233,
      "v": 68
    },
    {
      "midi": 54,
      "hit": false,
      "t": 124179.89249999911,
      "d": 56.13749999999709,
      "v": 90
    },
    {
      "midi": 63,
      "hit": false,
      "t": 124179.89249999911,
      "d": 59.879999999990105,
      "v": 86
    },
    {
      "midi": 39,
      "hit": false,
      "t": 124539.1724999991,
      "d": 112.27499999999418,
      "v": 94
    },
    {
      "midi": 58,
      "hit": false,
      "t": 124670.15999999909,
      "d": 41.167499999995925,
      "v": 86
    },
    {
      "midi": 63,
      "hit": false,
      "t": 124670.15999999909,
      "d": 48.65249999999651,
      "v": 68
    },
    {
      "midi": 54,
      "hit": false,
      "t": 124670.15999999909,
      "d": 86.07749999999942,
      "v": 90
    },
    {
      "midi": 46,
      "hit": false,
      "t": 125029.43999999909,
      "d": 520.2074999999895,
      "v": 90
    },
    {
      "midi": 53,
      "hit": false,
      "t": 125388.71999999908,
      "d": 119.75999999999476,
      "v": 72
    },
    {
      "midi": 56,
      "hit": false,
      "t": 125388.71999999908,
      "d": 119.75999999999476,
      "v": 94
    },
    {
      "midi": 61,
      "hit": false,
      "t": 125388.71999999908,
      "d": 123.50249999998778,
      "v": 90
    },
    {
      "midi": 39,
      "hit": false,
      "t": 125747.99999999907,
      "d": 160.92750000000524,
      "v": 76
    },
    {
      "midi": 58,
      "hit": false,
      "t": 125976.29249999908,
      "d": 29.94000000000233,
      "v": 68
    },
    {
      "midi": 54,
      "hit": false,
      "t": 125976.29249999908,
      "d": 56.13749999999709,
      "v": 90
    },
    {
      "midi": 63,
      "hit": false,
      "t": 125976.29249999908,
      "d": 59.879999999990105,
      "v": 86
    },
    {
      "midi": 39,
      "hit": false,
      "t": 126335.57249999906,
      "d": 112.27499999999418,
      "v": 94
    },
    {
      "midi": 58,
      "hit": false,
      "t": 126466.55999999905,
      "d": 41.167499999995925,
      "v": 86
    },
    {
      "midi": 63,
      "hit": false,
      "t": 126466.55999999905,
      "d": 48.65249999999651,
      "v": 68
    },
    {
      "midi": 54,
      "hit": false,
      "t": 126466.55999999905,
      "d": 86.07749999999942,
      "v": 90
    },
    {
      "midi": 46,
      "hit": false,
      "t": 126825.83999999905,
      "d": 520.2074999999895,
      "v": 90
    },
    {
      "midi": 53,
      "hit": false,
      "t": 127185.11999999905,
      "d": 119.75999999999476,
      "v": 72
    },
    {
      "midi": 56,
      "hit": false,
      "t": 127185.11999999905,
      "d": 119.75999999999476,
      "v": 94
    },
    {
      "midi": 61,
      "hit": false,
      "t": 127185.11999999905,
      "d": 123.50249999998778,
      "v": 90
    },
    {
      "midi": 39,
      "hit": false,
      "t": 127544.39999999903,
      "d": 160.92750000000524,
      "v": 76
    },
    {
      "midi": 58,
      "hit": false,
      "t": 127772.69249999904,
      "d": 29.94000000000233,
      "v": 68
    },
    {
      "midi": 54,
      "hit": false,
      "t": 127772.69249999904,
      "d": 56.13749999999709,
      "v": 90
    },
    {
      "midi": 63,
      "hit": false,
      "t": 127772.69249999904,
      "d": 59.879999999990105,
      "v": 86
    },
    {
      "midi": 39,
      "hit": false,
      "t": 128131.97249999903,
      "d": 112.27499999999418,
      "v": 94
    },
    {
      "midi": 58,
      "hit": false,
      "t": 128262.95999999902,
      "d": 41.167499999995925,
      "v": 86
    },
    {
      "midi": 63,
      "hit": false,
      "t": 128262.95999999902,
      "d": 48.65249999999651,
      "v": 68
    },
    {
      "midi": 54,
      "hit": false,
      "t": 128262.95999999902,
      "d": 86.07749999999942,
      "v": 90
    },
    {
      "midi": 46,
      "hit": false,
      "t": 128622.23999999902,
      "d": 520.2074999999895,
      "v": 90
    },
    {
      "midi": 53,
      "hit": false,
      "t": 128981.51999999901,
      "d": 119.75999999999476,
      "v": 72
    },
    {
      "midi": 56,
      "hit": false,
      "t": 128981.51999999901,
      "d": 119.75999999999476,
      "v": 94
    },
    {
      "midi": 61,
      "hit": false,
      "t": 128981.51999999901,
      "d": 123.50249999998778,
      "v": 90
    },
    {
      "midi": 39,
      "hit": false,
      "t": 129340.799999999,
      "d": 160.92750000000524,
      "v": 76
    },
    {
      "midi": 58,
      "hit": false,
      "t": 129569.09249999901,
      "d": 29.94000000000233,
      "v": 68
    },
    {
      "midi": 54,
      "hit": false,
      "t": 129569.09249999901,
      "d": 56.13749999999709,
      "v": 90
    },
    {
      "midi": 63,
      "hit": false,
      "t": 129569.09249999901,
      "d": 59.879999999990105,
      "v": 86
    },
    {
      "midi": 39,
      "hit": false,
      "t": 129928.372499999,
      "d": 112.27499999999418,
      "v": 94
    },
    {
      "midi": 58,
      "hit": false,
      "t": 130059.35999999898,
      "d": 41.167499999995925,
      "v": 86
    },
    {
      "midi": 63,
      "hit": false,
      "t": 130059.35999999898,
      "d": 48.65249999999651,
      "v": 68
    },
    {
      "midi": 54,
      "hit": false,
      "t": 130059.35999999898,
      "d": 86.07749999999942,
      "v": 90
    },
    {
      "midi": 46,
      "hit": false,
      "t": 130418.63999999898,
      "d": 520.2074999999895,
      "v": 90
    },
    {
      "midi": 53,
      "hit": false,
      "t": 130777.91999999898,
      "d": 119.75999999999476,
      "v": 72
    },
    {
      "midi": 56,
      "hit": false,
      "t": 130777.91999999898,
      "d": 119.75999999999476,
      "v": 94
    },
    {
      "midi": 61,
      "hit": false,
      "t": 130777.91999999898,
      "d": 123.50249999998778,
      "v": 90
    },
    {
      "midi": 39,
      "hit": false,
      "t": 131137.19999999896,
      "d": 160.9274999999907,
      "v": 76
    },
    {
      "midi": 58,
      "hit": false,
      "t": 131365.49249999895,
      "d": 29.94000000000233,
      "v": 68
    },
    {
      "midi": 54,
      "hit": false,
      "t": 131365.49249999895,
      "d": 56.13750000001164,
      "v": 90
    },
    {
      "midi": 63,
      "hit": false,
      "t": 131365.49249999895,
      "d": 59.88000000000466,
      "v": 86
    },
    {
      "midi": 39,
      "hit": false,
      "t": 131724.77249999894,
      "d": 112.27499999999418,
      "v": 94
    },
    {
      "midi": 58,
      "hit": false,
      "t": 131855.75999999893,
      "d": 41.16750000001048,
      "v": 86
    },
    {
      "midi": 63,
      "hit": false,
      "t": 131855.75999999893,
      "d": 48.65249999999651,
      "v": 68
    },
    {
      "midi": 54,
      "hit": false,
      "t": 131855.75999999893,
      "d": 86.07749999998487,
      "v": 90
    },
    {
      "midi": 46,
      "hit": false,
      "t": 132215.03999999893,
      "d": 520.2074999999895,
      "v": 90
    },
    {
      "midi": 53,
      "hit": false,
      "t": 132574.31999999893,
      "d": 119.76000000000931,
      "v": 72
    },
    {
      "midi": 56,
      "hit": false,
      "t": 132574.31999999893,
      "d": 119.76000000000931,
      "v": 94
    },
    {
      "midi": 61,
      "hit": false,
      "t": 132574.31999999893,
      "d": 123.50250000000233,
      "v": 90
    },
    {
      "midi": 39,
      "hit": false,
      "t": 132933.59999999893,
      "d": 160.9274999999907,
      "v": 76
    },
    {
      "midi": 58,
      "hit": false,
      "t": 133161.8924999989,
      "d": 29.94000000000233,
      "v": 68
    },
    {
      "midi": 54,
      "hit": false,
      "t": 133161.8924999989,
      "d": 56.13750000001164,
      "v": 90
    },
    {
      "midi": 63,
      "hit": false,
      "t": 133161.8924999989,
      "d": 59.88000000000466,
      "v": 86
    },
    {
      "midi": 39,
      "hit": false,
      "t": 133521.1724999989,
      "d": 112.27499999999418,
      "v": 94
    },
    {
      "midi": 58,
      "hit": false,
      "t": 133652.1599999989,
      "d": 41.16750000001048,
      "v": 86
    },
    {
      "midi": 63,
      "hit": false,
      "t": 133652.1599999989,
      "d": 48.65249999999651,
      "v": 68
    },
    {
      "midi": 54,
      "hit": false,
      "t": 133652.1599999989,
      "d": 86.07749999998487,
      "v": 90
    },
    {
      "midi": 46,
      "hit": false,
      "t": 134011.4399999989,
      "d": 520.2074999999895,
      "v": 90
    },
    {
      "midi": 53,
      "hit": false,
      "t": 134370.7199999989,
      "d": 119.76000000000931,
      "v": 72
    },
    {
      "midi": 56,
      "hit": false,
      "t": 134370.7199999989,
      "d": 119.76000000000931,
      "v": 94
    },
    {
      "midi": 61,
      "hit": false,
      "t": 134370.7199999989,
      "d": 123.50250000000233,
      "v": 90
    },
    {
      "midi": 39,
      "hit": false,
      "t": 134729.9999999989,
      "d": 160.9274999999907,
      "v": 76
    },
    {
      "midi": 58,
      "hit": false,
      "t": 134958.29249999888,
      "d": 29.94000000000233,
      "v": 68
    },
    {
      "midi": 54,
      "hit": false,
      "t": 134958.29249999888,
      "d": 56.13750000001164,
      "v": 90
    },
    {
      "midi": 63,
      "hit": false,
      "t": 134958.29249999888,
      "d": 59.88000000000466,
      "v": 86
    },
    {
      "midi": 39,
      "hit": false,
      "t": 135317.57249999887,
      "d": 112.27499999999418,
      "v": 94
    },
    {
      "midi": 58,
      "hit": false,
      "t": 135448.55999999886,
      "d": 41.16750000001048,
      "v": 86
    },
    {
      "midi": 63,
      "hit": false,
      "t": 135448.55999999886,
      "d": 48.65249999999651,
      "v": 68
    },
    {
      "midi": 54,
      "hit": false,
      "t": 135448.55999999886,
      "d": 86.07749999998487,
      "v": 90
    },
    {
      "midi": 46,
      "hit": false,
      "t": 135807.83999999886,
      "d": 520.2074999999895,
      "v": 90
    },
    {
      "midi": 53,
      "hit": false,
      "t": 136167.11999999886,
      "d": 119.76000000000931,
      "v": 72
    },
    {
      "midi": 56,
      "hit": false,
      "t": 136167.11999999886,
      "d": 119.76000000000931,
      "v": 94
    },
    {
      "midi": 61,
      "hit": false,
      "t": 136167.11999999886,
      "d": 123.50250000000233,
      "v": 90
    },
    {
      "midi": 39,
      "hit": false,
      "t": 136526.39999999886,
      "d": 160.9274999999907,
      "v": 76
    },
    {
      "midi": 58,
      "hit": false,
      "t": 136754.69249999884,
      "d": 29.94000000000233,
      "v": 68
    },
    {
      "midi": 54,
      "hit": false,
      "t": 136754.69249999884,
      "d": 56.13750000001164,
      "v": 90
    },
    {
      "midi": 63,
      "hit": false,
      "t": 136754.69249999884,
      "d": 59.88000000000466,
      "v": 86
    },
    {
      "midi": 39,
      "hit": false,
      "t": 137113.97249999884,
      "d": 112.27499999999418,
      "v": 94
    },
    {
      "midi": 58,
      "hit": false,
      "t": 137244.95999999883,
      "d": 41.16750000001048,
      "v": 86
    },
    {
      "midi": 63,
      "hit": false,
      "t": 137244.95999999883,
      "d": 48.65249999999651,
      "v": 68
    },
    {
      "midi": 54,
      "hit": false,
      "t": 137244.95999999883,
      "d": 86.07749999998487,
      "v": 90
    },
    {
      "midi": 46,
      "hit": false,
      "t": 137604.23999999883,
      "d": 520.2074999999895,
      "v": 90
    },
    {
      "midi": 53,
      "hit": false,
      "t": 137963.51999999883,
      "d": 119.76000000000931,
      "v": 72
    },
    {
      "midi": 56,
      "hit": false,
      "t": 137963.51999999883,
      "d": 119.76000000000931,
      "v": 94
    },
    {
      "midi": 61,
      "hit": false,
      "t": 137963.51999999883,
      "d": 123.50250000000233,
      "v": 90
    },
    {
      "midi": 39,
      "hit": false,
      "t": 138322.79999999882,
      "d": 160.9274999999907,
      "v": 76
    },
    {
      "midi": 58,
      "hit": false,
      "t": 138551.0924999988,
      "d": 29.94000000000233,
      "v": 68
    },
    {
      "midi": 54,
      "hit": false,
      "t": 138551.0924999988,
      "d": 56.13750000001164,
      "v": 90
    },
    {
      "midi": 63,
      "hit": false,
      "t": 138551.0924999988,
      "d": 59.88000000000466,
      "v": 86
    },
    {
      "midi": 39,
      "hit": false,
      "t": 138910.3724999988,
      "d": 112.27499999999418,
      "v": 94
    },
    {
      "midi": 58,
      "hit": false,
      "t": 139041.3599999988,
      "d": 41.16750000001048,
      "v": 86
    },
    {
      "midi": 63,
      "hit": false,
      "t": 139041.3599999988,
      "d": 48.65249999999651,
      "v": 68
    },
    {
      "midi": 54,
      "hit": false,
      "t": 139041.3599999988,
      "d": 86.07749999998487,
      "v": 90
    },
    {
      "midi": 46,
      "hit": false,
      "t": 139400.6399999988,
      "d": 520.2074999999895,
      "v": 90
    },
    {
      "midi": 53,
      "hit": false,
      "t": 139759.9199999988,
      "d": 119.76000000000931,
      "v": 72
    },
    {
      "midi": 56,
      "hit": false,
      "t": 139759.9199999988,
      "d": 119.76000000000931,
      "v": 94
    },
    {
      "midi": 61,
      "hit": false,
      "t": 139759.9199999988,
      "d": 123.50250000000233,
      "v": 90
    },
    {
      "midi": 39,
      "hit": false,
      "t": 140119.1999999988,
      "d": 160.9274999999907,
      "v": 76
    },
    {
      "midi": 58,
      "hit": false,
      "t": 140347.49249999877,
      "d": 29.94000000000233,
      "v": 68
    },
    {
      "midi": 54,
      "hit": false,
      "t": 140347.49249999877,
      "d": 56.13750000001164,
      "v": 90
    },
    {
      "midi": 63,
      "hit": false,
      "t": 140347.49249999877,
      "d": 59.88000000000466,
      "v": 86
    },
    {
      "midi": 39,
      "hit": false,
      "t": 140706.77249999877,
      "d": 112.27499999999418,
      "v": 94
    },
    {
      "midi": 58,
      "hit": false,
      "t": 140837.75999999876,
      "d": 41.16750000001048,
      "v": 86
    },
    {
      "midi": 63,
      "hit": false,
      "t": 140837.75999999876,
      "d": 48.65249999999651,
      "v": 68
    },
    {
      "midi": 54,
      "hit": false,
      "t": 140837.75999999876,
      "d": 86.07749999998487,
      "v": 90
    },
    {
      "midi": 46,
      "hit": false,
      "t": 141197.03999999876,
      "d": 520.2074999999895,
      "v": 90
    },
    {
      "midi": 53,
      "hit": false,
      "t": 141556.31999999876,
      "d": 119.76000000000931,
      "v": 72
    },
    {
      "midi": 56,
      "hit": false,
      "t": 141556.31999999876,
      "d": 119.76000000000931,
      "v": 94
    },
    {
      "midi": 61,
      "hit": false,
      "t": 141556.31999999876,
      "d": 123.50250000000233,
      "v": 90
    },
    {
      "midi": 39,
      "hit": false,
      "t": 141915.59999999875,
      "d": 160.9274999999907,
      "v": 76
    },
    {
      "midi": 58,
      "hit": false,
      "t": 142143.89249999874,
      "d": 29.94000000000233,
      "v": 68
    },
    {
      "midi": 54,
      "hit": false,
      "t": 142143.89249999874,
      "d": 56.13750000001164,
      "v": 90
    },
    {
      "midi": 63,
      "hit": false,
      "t": 142143.89249999874,
      "d": 59.88000000000466,
      "v": 86
    },
    {
      "midi": 39,
      "hit": false,
      "t": 142503.17249999873,
      "d": 112.27499999999418,
      "v": 94
    },
    {
      "midi": 58,
      "hit": false,
      "t": 142634.15999999872,
      "d": 41.16750000001048,
      "v": 86
    },
    {
      "midi": 63,
      "hit": false,
      "t": 142634.15999999872,
      "d": 48.65249999999651,
      "v": 68
    },
    {
      "midi": 54,
      "hit": false,
      "t": 142634.15999999872,
      "d": 86.07749999998487,
      "v": 90
    },
    {
      "midi": 46,
      "hit": false,
      "t": 142993.43999999872,
      "d": 520.2074999999895,
      "v": 90
    },
    {
      "midi": 53,
      "hit": false,
      "t": 143352.71999999872,
      "d": 119.76000000000931,
      "v": 72
    },
    {
      "midi": 56,
      "hit": false,
      "t": 143352.71999999872,
      "d": 119.76000000000931,
      "v": 94
    },
    {
      "midi": 61,
      "hit": false,
      "t": 143352.71999999872,
      "d": 123.50250000000233,
      "v": 90
    },
    {
      "midi": 39,
      "hit": false,
      "t": 143711.99999999872,
      "d": 160.9274999999907,
      "v": 76
    },
    {
      "midi": 58,
      "hit": false,
      "t": 143940.2924999987,
      "d": 29.94000000000233,
      "v": 68
    },
    {
      "midi": 54,
      "hit": false,
      "t": 143940.2924999987,
      "d": 56.13750000001164,
      "v": 90
    },
    {
      "midi": 63,
      "hit": false,
      "t": 143940.2924999987,
      "d": 59.88000000000466,
      "v": 86
    },
    {
      "midi": 39,
      "hit": false,
      "t": 144299.5724999987,
      "d": 112.27499999999418,
      "v": 94
    },
    {
      "midi": 58,
      "hit": false,
      "t": 144430.5599999987,
      "d": 41.16750000001048,
      "v": 86
    },
    {
      "midi": 63,
      "hit": false,
      "t": 144430.5599999987,
      "d": 48.65249999999651,
      "v": 68
    },
    {
      "midi": 54,
      "hit": false,
      "t": 144430.5599999987,
      "d": 86.07749999998487,
      "v": 90
    },
    {
      "midi": 46,
      "hit": false,
      "t": 144789.8399999987,
      "d": 520.2074999999895,
      "v": 90
    },
    {
      "midi": 53,
      "hit": false,
      "t": 145149.1199999987,
      "d": 119.76000000000931,
      "v": 72
    },
    {
      "midi": 56,
      "hit": false,
      "t": 145149.1199999987,
      "d": 119.76000000000931,
      "v": 94
    },
    {
      "midi": 61,
      "hit": false,
      "t": 145149.1199999987,
      "d": 123.50250000000233,
      "v": 90
    },
    {
      "midi": 39,
      "hit": false,
      "t": 145508.39999999868,
      "d": 160.9274999999907,
      "v": 76
    },
    {
      "midi": 58,
      "hit": false,
      "t": 145736.69249999867,
      "d": 29.94000000000233,
      "v": 68
    },
    {
      "midi": 54,
      "hit": false,
      "t": 145736.69249999867,
      "d": 56.13750000001164,
      "v": 90
    },
    {
      "midi": 63,
      "hit": false,
      "t": 145736.69249999867,
      "d": 59.88000000000466,
      "v": 86
    },
    {
      "midi": 39,
      "hit": false,
      "t": 146095.97249999866,
      "d": 112.27499999999418,
      "v": 94
    },
    {
      "midi": 58,
      "hit": false,
      "t": 146226.95999999865,
      "d": 41.16750000001048,
      "v": 86
    },
    {
      "midi": 63,
      "hit": false,
      "t": 146226.95999999865,
      "d": 48.65249999999651,
      "v": 68
    },
    {
      "midi": 54,
      "hit": false,
      "t": 146226.95999999865,
      "d": 86.07749999998487,
      "v": 90
    },
    {
      "midi": 46,
      "hit": false,
      "t": 146586.23999999865,
      "d": 520.2074999999895,
      "v": 90
    },
    {
      "midi": 53,
      "hit": false,
      "t": 146945.51999999865,
      "d": 119.76000000000931,
      "v": 72
    },
    {
      "midi": 56,
      "hit": false,
      "t": 146945.51999999865,
      "d": 119.76000000000931,
      "v": 94
    },
    {
      "midi": 61,
      "hit": false,
      "t": 146945.51999999865,
      "d": 123.50250000000233,
      "v": 90
    },
    {
      "midi": 39,
      "hit": false,
      "t": 147304.79999999865,
      "d": 160.9274999999907,
      "v": 76
    },
    {
      "midi": 58,
      "hit": false,
      "t": 147533.09249999863,
      "d": 29.94000000000233,
      "v": 68
    },
    {
      "midi": 54,
      "hit": false,
      "t": 147533.09249999863,
      "d": 56.13750000001164,
      "v": 90
    },
    {
      "midi": 63,
      "hit": false,
      "t": 147533.09249999863,
      "d": 59.88000000000466,
      "v": 86
    },
    {
      "midi": 39,
      "hit": false,
      "t": 147892.37249999863,
      "d": 112.27499999999418,
      "v": 94
    },
    {
      "midi": 58,
      "hit": false,
      "t": 148023.35999999862,
      "d": 41.16750000001048,
      "v": 86
    },
    {
      "midi": 63,
      "hit": false,
      "t": 148023.35999999862,
      "d": 48.65249999999651,
      "v": 68
    },
    {
      "midi": 54,
      "hit": false,
      "t": 148023.35999999862,
      "d": 86.07749999998487,
      "v": 90
    },
    {
      "midi": 46,
      "hit": false,
      "t": 148382.63999999862,
      "d": 520.2074999999895,
      "v": 90
    },
    {
      "midi": 53,
      "hit": false,
      "t": 148741.91999999862,
      "d": 119.76000000000931,
      "v": 72
    },
    {
      "midi": 56,
      "hit": false,
      "t": 148741.91999999862,
      "d": 119.76000000000931,
      "v": 94
    },
    {
      "midi": 61,
      "hit": false,
      "t": 148741.91999999862,
      "d": 123.50250000000233,
      "v": 90
    },
    {
      "midi": 39,
      "hit": false,
      "t": 149101.19999999861,
      "d": 160.9274999999907,
      "v": 76
    },
    {
      "midi": 58,
      "hit": false,
      "t": 149329.4924999986,
      "d": 29.94000000000233,
      "v": 68
    },
    {
      "midi": 54,
      "hit": false,
      "t": 149329.4924999986,
      "d": 56.13750000001164,
      "v": 90
    },
    {
      "midi": 63,
      "hit": false,
      "t": 149329.4924999986,
      "d": 59.88000000000466,
      "v": 86
    },
    {
      "midi": 39,
      "hit": false,
      "t": 149688.7724999986,
      "d": 112.27499999999418,
      "v": 94
    },
    {
      "midi": 58,
      "hit": false,
      "t": 149819.75999999858,
      "d": 41.16750000001048,
      "v": 86
    },
    {
      "midi": 63,
      "hit": false,
      "t": 149819.75999999858,
      "d": 48.65249999999651,
      "v": 68
    },
    {
      "midi": 54,
      "hit": false,
      "t": 149819.75999999858,
      "d": 86.07749999998487,
      "v": 90
    },
    {
      "midi": 46,
      "hit": false,
      "t": 150179.03999999858,
      "d": 520.2074999999895,
      "v": 90
    },
    {
      "midi": 53,
      "hit": false,
      "t": 150538.31999999858,
      "d": 119.76000000000931,
      "v": 72
    },
    {
      "midi": 56,
      "hit": false,
      "t": 150538.31999999858,
      "d": 119.76000000000931,
      "v": 94
    },
    {
      "midi": 61,
      "hit": false,
      "t": 150538.31999999858,
      "d": 123.50250000000233,
      "v": 90
    },
    {
      "midi": 39,
      "hit": false,
      "t": 150897.59999999858,
      "d": 160.9274999999907,
      "v": 76
    },
    {
      "midi": 58,
      "hit": false,
      "t": 151125.89249999856,
      "d": 29.94000000000233,
      "v": 68
    },
    {
      "midi": 54,
      "hit": false,
      "t": 151125.89249999856,
      "d": 56.13750000001164,
      "v": 90
    },
    {
      "midi": 63,
      "hit": false,
      "t": 151125.89249999856,
      "d": 59.88000000000466,
      "v": 86
    },
    {
      "midi": 39,
      "hit": false,
      "t": 151485.17249999856,
      "d": 112.27499999999418,
      "v": 94
    },
    {
      "midi": 58,
      "hit": false,
      "t": 151616.15999999855,
      "d": 41.16750000001048,
      "v": 86
    },
    {
      "midi": 63,
      "hit": false,
      "t": 151616.15999999855,
      "d": 48.65249999999651,
      "v": 68
    },
    {
      "midi": 54,
      "hit": false,
      "t": 151616.15999999855,
      "d": 86.07749999998487,
      "v": 90
    },
    {
      "midi": 46,
      "hit": false,
      "t": 151975.43999999855,
      "d": 520.2074999999895,
      "v": 90
    },
    {
      "midi": 53,
      "hit": false,
      "t": 152334.71999999855,
      "d": 119.76000000000931,
      "v": 72
    },
    {
      "midi": 56,
      "hit": false,
      "t": 152334.71999999855,
      "d": 119.76000000000931,
      "v": 94
    },
    {
      "midi": 61,
      "hit": false,
      "t": 152334.71999999855,
      "d": 123.50250000000233,
      "v": 90
    },
    {
      "midi": 39,
      "hit": false,
      "t": 152693.99999999854,
      "d": 160.9274999999907,
      "v": 76
    },
    {
      "midi": 58,
      "hit": false,
      "t": 152922.29249999853,
      "d": 29.94000000000233,
      "v": 68
    },
    {
      "midi": 54,
      "hit": false,
      "t": 152922.29249999853,
      "d": 56.13750000001164,
      "v": 90
    },
    {
      "midi": 63,
      "hit": false,
      "t": 152922.29249999853,
      "d": 59.88000000000466,
      "v": 86
    },
    {
      "midi": 39,
      "hit": false,
      "t": 153281.57249999853,
      "d": 112.27499999999418,
      "v": 94
    },
    {
      "midi": 58,
      "hit": false,
      "t": 153412.5599999985,
      "d": 41.16750000001048,
      "v": 86
    },
    {
      "midi": 63,
      "hit": false,
      "t": 153412.5599999985,
      "d": 48.65249999999651,
      "v": 68
    },
    {
      "midi": 54,
      "hit": false,
      "t": 153412.5599999985,
      "d": 86.07749999998487,
      "v": 90
    },
    {
      "midi": 46,
      "hit": false,
      "t": 153771.8399999985,
      "d": 520.2074999999895,
      "v": 90
    },
    {
      "midi": 53,
      "hit": false,
      "t": 154131.1199999985,
      "d": 119.76000000000931,
      "v": 72
    },
    {
      "midi": 56,
      "hit": false,
      "t": 154131.1199999985,
      "d": 119.76000000000931,
      "v": 94
    },
    {
      "midi": 61,
      "hit": false,
      "t": 154131.1199999985,
      "d": 123.50250000000233,
      "v": 90
    },
    {
      "midi": 39,
      "hit": false,
      "t": 154490.3999999985,
      "d": 160.9274999999907,
      "v": 76
    },
    {
      "midi": 58,
      "hit": false,
      "t": 154718.6924999985,
      "d": 29.94000000000233,
      "v": 68
    },
    {
      "midi": 54,
      "hit": false,
      "t": 154718.6924999985,
      "d": 56.13750000001164,
      "v": 90
    },
    {
      "midi": 63,
      "hit": false,
      "t": 154718.6924999985,
      "d": 59.88000000000466,
      "v": 86
    },
    {
      "midi": 39,
      "hit": false,
      "t": 155077.9724999985,
      "d": 112.27499999999418,
      "v": 94
    },
    {
      "midi": 58,
      "hit": false,
      "t": 155208.95999999848,
      "d": 41.16750000001048,
      "v": 86
    },
    {
      "midi": 63,
      "hit": false,
      "t": 155208.95999999848,
      "d": 48.65249999999651,
      "v": 68
    },
    {
      "midi": 54,
      "hit": false,
      "t": 155208.95999999848,
      "d": 86.07749999998487,
      "v": 90
    },
    {
      "midi": 46,
      "hit": false,
      "t": 155568.23999999848,
      "d": 520.2074999999895,
      "v": 90
    },
    {
      "midi": 53,
      "hit": false,
      "t": 155927.51999999848,
      "d": 119.76000000000931,
      "v": 72
    },
    {
      "midi": 56,
      "hit": false,
      "t": 155927.51999999848,
      "d": 119.76000000000931,
      "v": 94
    },
    {
      "midi": 61,
      "hit": false,
      "t": 155927.51999999848,
      "d": 123.50250000000233,
      "v": 90
    },
    {
      "midi": 39,
      "hit": false,
      "t": 156286.79999999847,
      "d": 160.9274999999907,
      "v": 76
    },
    {
      "midi": 58,
      "hit": false,
      "t": 156515.09249999846,
      "d": 29.94000000000233,
      "v": 68
    },
    {
      "midi": 54,
      "hit": false,
      "t": 156515.09249999846,
      "d": 56.13750000001164,
      "v": 90
    },
    {
      "midi": 63,
      "hit": false,
      "t": 156515.09249999846,
      "d": 59.88000000000466,
      "v": 86
    },
    {
      "midi": 39,
      "hit": false,
      "t": 156874.37249999846,
      "d": 112.27499999999418,
      "v": 94
    },
    {
      "midi": 58,
      "hit": false,
      "t": 157005.35999999844,
      "d": 41.16750000001048,
      "v": 86
    },
    {
      "midi": 63,
      "hit": false,
      "t": 157005.35999999844,
      "d": 48.65249999999651,
      "v": 68
    },
    {
      "midi": 54,
      "hit": false,
      "t": 157005.35999999844,
      "d": 86.07749999998487,
      "v": 90
    },
    {
      "midi": 46,
      "hit": false,
      "t": 157364.63999999844,
      "d": 520.2074999999895,
      "v": 90
    },
    {
      "midi": 53,
      "hit": false,
      "t": 157723.91999999844,
      "d": 119.76000000000931,
      "v": 72
    },
    {
      "midi": 56,
      "hit": false,
      "t": 157723.91999999844,
      "d": 119.76000000000931,
      "v": 94
    },
    {
      "midi": 61,
      "hit": false,
      "t": 157723.91999999844,
      "d": 123.50250000000233,
      "v": 90
    },
    {
      "midi": 39,
      "hit": false,
      "t": 158083.19999999844,
      "d": 160.9274999999907,
      "v": 76
    },
    {
      "midi": 58,
      "hit": false,
      "t": 158311.49249999842,
      "d": 29.94000000000233,
      "v": 68
    },
    {
      "midi": 54,
      "hit": false,
      "t": 158311.49249999842,
      "d": 56.13750000001164,
      "v": 90
    },
    {
      "midi": 63,
      "hit": false,
      "t": 158311.49249999842,
      "d": 59.88000000000466,
      "v": 86
    },
    {
      "midi": 39,
      "hit": false,
      "t": 158670.77249999842,
      "d": 112.27499999999418,
      "v": 94
    },
    {
      "midi": 58,
      "hit": false,
      "t": 158801.7599999984,
      "d": 41.16750000001048,
      "v": 86
    },
    {
      "midi": 63,
      "hit": false,
      "t": 158801.7599999984,
      "d": 48.65249999999651,
      "v": 68
    },
    {
      "midi": 54,
      "hit": false,
      "t": 158801.7599999984,
      "d": 86.07749999998487,
      "v": 90
    },
    {
      "midi": 46,
      "hit": false,
      "t": 159161.0399999984,
      "d": 520.2074999999895,
      "v": 90
    },
    {
      "midi": 53,
      "hit": false,
      "t": 159520.3199999984,
      "d": 119.76000000000931,
      "v": 72
    },
    {
      "midi": 56,
      "hit": false,
      "t": 159520.3199999984,
      "d": 119.76000000000931,
      "v": 94
    },
    {
      "midi": 61,
      "hit": false,
      "t": 159520.3199999984,
      "d": 123.50250000000233,
      "v": 90
    },
    {
      "midi": 39,
      "hit": false,
      "t": 159879.5999999984,
      "d": 160.9274999999907,
      "v": 76
    },
    {
      "midi": 58,
      "hit": false,
      "t": 160107.8924999984,
      "d": 29.94000000000233,
      "v": 68
    },
    {
      "midi": 54,
      "hit": false,
      "t": 160107.8924999984,
      "d": 56.13750000001164,
      "v": 90
    },
    {
      "midi": 63,
      "hit": false,
      "t": 160107.8924999984,
      "d": 59.88000000000466,
      "v": 86
    },
    {
      "midi": 39,
      "hit": false,
      "t": 160467.17249999839,
      "d": 112.27499999999418,
      "v": 94
    },
    {
      "midi": 58,
      "hit": false,
      "t": 160598.15999999837,
      "d": 41.16750000001048,
      "v": 86
    },
    {
      "midi": 63,
      "hit": false,
      "t": 160598.15999999837,
      "d": 48.65249999999651,
      "v": 68
    },
    {
      "midi": 54,
      "hit": false,
      "t": 160598.15999999837,
      "d": 86.07749999998487,
      "v": 90
    },
    {
      "midi": 46,
      "hit": false,
      "t": 160957.43999999837,
      "d": 520.2074999999895,
      "v": 90
    },
    {
      "midi": 53,
      "hit": false,
      "t": 161316.71999999837,
      "d": 119.76000000000931,
      "v": 72
    },
    {
      "midi": 56,
      "hit": false,
      "t": 161316.71999999837,
      "d": 119.76000000000931,
      "v": 94
    },
    {
      "midi": 61,
      "hit": false,
      "t": 161316.71999999837,
      "d": 123.50250000000233,
      "v": 90
    },
    {
      "midi": 39,
      "hit": false,
      "t": 161675.99999999837,
      "d": 160.9274999999907,
      "v": 76
    },
    {
      "midi": 58,
      "hit": false,
      "t": 161904.29249999835,
      "d": 29.94000000000233,
      "v": 68
    },
    {
      "midi": 54,
      "hit": false,
      "t": 161904.29249999835,
      "d": 56.13750000001164,
      "v": 90
    },
    {
      "midi": 63,
      "hit": false,
      "t": 161904.29249999835,
      "d": 59.88000000000466,
      "v": 86
    },
    {
      "midi": 39,
      "hit": false,
      "t": 162263.57249999835,
      "d": 112.27499999999418,
      "v": 94
    },
    {
      "midi": 58,
      "hit": false,
      "t": 162394.55999999834,
      "d": 41.16750000001048,
      "v": 86
    },
    {
      "midi": 63,
      "hit": false,
      "t": 162394.55999999834,
      "d": 48.65249999999651,
      "v": 68
    },
    {
      "midi": 54,
      "hit": false,
      "t": 162394.55999999834,
      "d": 86.07749999998487,
      "v": 90
    },
    {
      "midi": 46,
      "hit": false,
      "t": 162753.83999999834,
      "d": 520.2074999999895,
      "v": 90
    },
    {
      "midi": 53,
      "hit": false,
      "t": 163113.11999999834,
      "d": 119.76000000000931,
      "v": 72
    },
    {
      "midi": 56,
      "hit": false,
      "t": 163113.11999999834,
      "d": 119.76000000000931,
      "v": 94
    },
    {
      "midi": 61,
      "hit": false,
      "t": 163113.11999999834,
      "d": 123.50250000000233,
      "v": 90
    },
    {
      "midi": 39,
      "hit": false,
      "t": 163472.39999999834,
      "d": 160.9274999999907,
      "v": 76
    },
    {
      "midi": 58,
      "hit": false,
      "t": 163700.69249999832,
      "d": 29.94000000000233,
      "v": 68
    },
    {
      "midi": 54,
      "hit": false,
      "t": 163700.69249999832,
      "d": 56.13750000001164,
      "v": 90
    },
    {
      "midi": 63,
      "hit": false,
      "t": 163700.69249999832,
      "d": 59.88000000000466,
      "v": 86
    },
    {
      "midi": 39,
      "hit": false,
      "t": 164059.97249999832,
      "d": 112.27499999999418,
      "v": 94
    },
    {
      "midi": 58,
      "hit": false,
      "t": 164190.9599999983,
      "d": 41.16750000001048,
      "v": 86
    },
    {
      "midi": 63,
      "hit": false,
      "t": 164190.9599999983,
      "d": 48.65249999999651,
      "v": 68
    },
    {
      "midi": 54,
      "hit": false,
      "t": 164190.9599999983,
      "d": 86.07749999998487,
      "v": 90
    },
    {
      "midi": 46,
      "hit": false,
      "t": 164550.2399999983,
      "d": 520.2074999999895,
      "v": 90
    },
    {
      "midi": 53,
      "hit": false,
      "t": 164909.5199999983,
      "d": 119.76000000000931,
      "v": 72
    },
    {
      "midi": 56,
      "hit": false,
      "t": 164909.5199999983,
      "d": 119.76000000000931,
      "v": 94
    },
    {
      "midi": 61,
      "hit": false,
      "t": 164909.5199999983,
      "d": 123.50250000000233,
      "v": 90
    },
    {
      "midi": 39,
      "hit": false,
      "t": 165268.7999999983,
      "d": 160.9274999999907,
      "v": 76
    },
    {
      "midi": 58,
      "hit": false,
      "t": 165497.09249999828,
      "d": 29.94000000000233,
      "v": 68
    },
    {
      "midi": 54,
      "hit": false,
      "t": 165497.09249999828,
      "d": 56.13750000001164,
      "v": 90
    },
    {
      "midi": 63,
      "hit": false,
      "t": 165497.09249999828,
      "d": 59.88000000000466,
      "v": 86
    },
    {
      "midi": 39,
      "hit": false,
      "t": 165856.37249999828,
      "d": 112.27499999999418,
      "v": 94
    },
    {
      "midi": 58,
      "hit": false,
      "t": 165987.35999999827,
      "d": 41.16750000001048,
      "v": 86
    },
    {
      "midi": 63,
      "hit": false,
      "t": 165987.35999999827,
      "d": 48.65249999999651,
      "v": 68
    },
    {
      "midi": 54,
      "hit": false,
      "t": 165987.35999999827,
      "d": 86.07749999998487,
      "v": 90
    },
    {
      "midi": 46,
      "hit": false,
      "t": 166346.63999999827,
      "d": 520.2074999999895,
      "v": 90
    },
    {
      "midi": 53,
      "hit": false,
      "t": 166705.91999999827,
      "d": 119.76000000000931,
      "v": 72
    },
    {
      "midi": 56,
      "hit": false,
      "t": 166705.91999999827,
      "d": 119.76000000000931,
      "v": 94
    },
    {
      "midi": 61,
      "hit": false,
      "t": 166705.91999999827,
      "d": 123.50250000000233,
      "v": 90
    },
    {
      "midi": 39,
      "hit": false,
      "t": 167065.19999999827,
      "d": 160.9274999999907,
      "v": 76
    },
    {
      "midi": 58,
      "hit": false,
      "t": 167293.49249999825,
      "d": 29.94000000000233,
      "v": 68
    },
    {
      "midi": 54,
      "hit": false,
      "t": 167293.49249999825,
      "d": 56.13750000001164,
      "v": 90
    },
    {
      "midi": 63,
      "hit": false,
      "t": 167293.49249999825,
      "d": 59.88000000000466,
      "v": 86
    },
    {
      "midi": 39,
      "hit": false,
      "t": 167652.77249999825,
      "d": 112.27499999999418,
      "v": 94
    },
    {
      "midi": 58,
      "hit": false,
      "t": 167783.75999999823,
      "d": 41.16750000001048,
      "v": 86
    },
    {
      "midi": 63,
      "hit": false,
      "t": 167783.75999999823,
      "d": 48.65249999999651,
      "v": 68
    },
    {
      "midi": 54,
      "hit": false,
      "t": 167783.75999999823,
      "d": 86.07749999998487,
      "v": 90
    },
    {
      "midi": 46,
      "hit": false,
      "t": 168143.03999999823,
      "d": 520.2074999999895,
      "v": 90
    },
    {
      "midi": 53,
      "hit": false,
      "t": 168502.31999999823,
      "d": 119.76000000000931,
      "v": 72
    },
    {
      "midi": 56,
      "hit": false,
      "t": 168502.31999999823,
      "d": 119.76000000000931,
      "v": 94
    },
    {
      "midi": 61,
      "hit": false,
      "t": 168502.31999999823,
      "d": 123.50250000000233,
      "v": 90
    },
    {
      "midi": 39,
      "hit": false,
      "t": 168861.59999999823,
      "d": 160.9274999999907,
      "v": 76
    },
    {
      "midi": 58,
      "hit": false,
      "t": 169089.8924999982,
      "d": 29.94000000000233,
      "v": 68
    },
    {
      "midi": 54,
      "hit": false,
      "t": 169089.8924999982,
      "d": 56.13750000001164,
      "v": 90
    },
    {
      "midi": 63,
      "hit": false,
      "t": 169089.8924999982,
      "d": 59.88000000000466,
      "v": 86
    },
    {
      "midi": 39,
      "hit": false,
      "t": 169449.1724999982,
      "d": 112.27499999999418,
      "v": 94
    },
    {
      "midi": 58,
      "hit": false,
      "t": 169580.1599999982,
      "d": 41.16750000001048,
      "v": 86
    },
    {
      "midi": 63,
      "hit": false,
      "t": 169580.1599999982,
      "d": 48.65249999999651,
      "v": 68
    },
    {
      "midi": 54,
      "hit": false,
      "t": 169580.1599999982,
      "d": 86.07749999998487,
      "v": 90
    },
    {
      "midi": 46,
      "hit": false,
      "t": 169939.4399999982,
      "d": 520.2074999999895,
      "v": 90
    },
    {
      "midi": 53,
      "hit": false,
      "t": 170298.7199999982,
      "d": 119.76000000000931,
      "v": 72
    },
    {
      "midi": 56,
      "hit": false,
      "t": 170298.7199999982,
      "d": 119.76000000000931,
      "v": 94
    },
    {
      "midi": 61,
      "hit": false,
      "t": 170298.7199999982,
      "d": 123.50250000000233,
      "v": 90
    },
    {
      "midi": 39,
      "hit": false,
      "t": 170657.9999999982,
      "d": 160.9274999999907,
      "v": 76
    },
    {
      "midi": 58,
      "hit": false,
      "t": 170886.29249999818,
      "d": 29.94000000000233,
      "v": 68
    },
    {
      "midi": 54,
      "hit": false,
      "t": 170886.29249999818,
      "d": 56.13750000001164,
      "v": 90
    },
    {
      "midi": 63,
      "hit": false,
      "t": 170886.29249999818,
      "d": 59.88000000000466,
      "v": 86
    },
    {
      "midi": 39,
      "hit": false,
      "t": 171245.57249999818,
      "d": 112.27499999999418,
      "v": 94
    },
    {
      "midi": 58,
      "hit": false,
      "t": 171376.55999999816,
      "d": 41.16750000001048,
      "v": 86
    },
    {
      "midi": 63,
      "hit": false,
      "t": 171376.55999999816,
      "d": 48.65249999999651,
      "v": 68
    },
    {
      "midi": 54,
      "hit": false,
      "t": 171376.55999999816,
      "d": 86.07749999998487,
      "v": 90
    },
    {
      "midi": 46,
      "hit": false,
      "t": 171735.83999999816,
      "d": 520.2074999999895,
      "v": 90
    },
    {
      "midi": 53,
      "hit": false,
      "t": 172095.11999999816,
      "d": 119.76000000000931,
      "v": 72
    },
    {
      "midi": 56,
      "hit": false,
      "t": 172095.11999999816,
      "d": 119.76000000000931,
      "v": 94
    },
    {
      "midi": 61,
      "hit": false,
      "t": 172095.11999999816,
      "d": 123.50250000000233,
      "v": 90
    },
    {
      "midi": 39,
      "hit": false,
      "t": 172454.39999999816,
      "d": 160.9274999999907,
      "v": 76
    },
    {
      "midi": 58,
      "hit": false,
      "t": 172682.69249999814,
      "d": 29.94000000000233,
      "v": 68
    },
    {
      "midi": 54,
      "hit": false,
      "t": 172682.69249999814,
      "d": 56.13750000001164,
      "v": 90
    },
    {
      "midi": 63,
      "hit": false,
      "t": 172682.69249999814,
      "d": 59.88000000000466,
      "v": 86
    },
    {
      "midi": 39,
      "hit": false,
      "t": 173041.97249999814,
      "d": 112.27499999999418,
      "v": 94
    },
    {
      "midi": 58,
      "hit": false,
      "t": 173172.95999999813,
      "d": 41.16750000001048,
      "v": 86
    },
    {
      "midi": 63,
      "hit": false,
      "t": 173172.95999999813,
      "d": 48.65249999999651,
      "v": 68
    },
    {
      "midi": 54,
      "hit": false,
      "t": 173172.95999999813,
      "d": 86.07749999998487,
      "v": 90
    },
    {
      "midi": 46,
      "hit": false,
      "t": 173532.23999999813,
      "d": 520.2074999999895,
      "v": 90
    },
    {
      "midi": 53,
      "hit": false,
      "t": 173891.51999999813,
      "d": 119.76000000000931,
      "v": 72
    },
    {
      "midi": 56,
      "hit": false,
      "t": 173891.51999999813,
      "d": 119.76000000000931,
      "v": 94
    },
    {
      "midi": 61,
      "hit": false,
      "t": 173891.51999999813,
      "d": 123.50250000000233,
      "v": 90
    },
    {
      "midi": 39,
      "hit": false,
      "t": 174250.79999999813,
      "d": 160.9274999999907,
      "v": 76
    },
    {
      "midi": 58,
      "hit": false,
      "t": 174479.0924999981,
      "d": 29.94000000000233,
      "v": 68
    },
    {
      "midi": 54,
      "hit": false,
      "t": 174479.0924999981,
      "d": 56.13750000001164,
      "v": 90
    },
    {
      "midi": 63,
      "hit": false,
      "t": 174479.0924999981,
      "d": 59.88000000000466,
      "v": 86
    },
    {
      "midi": 39,
      "hit": false,
      "t": 174838.3724999981,
      "d": 112.27499999999418,
      "v": 94
    },
    {
      "midi": 58,
      "hit": false,
      "t": 174969.3599999981,
      "d": 41.16750000001048,
      "v": 86
    },
    {
      "midi": 63,
      "hit": false,
      "t": 174969.3599999981,
      "d": 48.65249999999651,
      "v": 68
    },
    {
      "midi": 54,
      "hit": false,
      "t": 174969.3599999981,
      "d": 86.07749999998487,
      "v": 90
    },
    {
      "midi": 46,
      "hit": false,
      "t": 175328.6399999981,
      "d": 520.2074999999895,
      "v": 90
    },
    {
      "midi": 53,
      "hit": false,
      "t": 175687.9199999981,
      "d": 119.76000000000931,
      "v": 72
    },
    {
      "midi": 56,
      "hit": false,
      "t": 175687.9199999981,
      "d": 119.76000000000931,
      "v": 94
    },
    {
      "midi": 61,
      "hit": false,
      "t": 175687.9199999981,
      "d": 123.50250000000233,
      "v": 90
    },
    {
      "midi": 39,
      "hit": false,
      "t": 176047.1999999981,
      "d": 160.9274999999907,
      "v": 76
    },
    {
      "midi": 58,
      "hit": false,
      "t": 176275.49249999807,
      "d": 29.94000000000233,
      "v": 68
    },
    {
      "midi": 54,
      "hit": false,
      "t": 176275.49249999807,
      "d": 56.13750000001164,
      "v": 90
    },
    {
      "midi": 63,
      "hit": false,
      "t": 176275.49249999807,
      "d": 59.88000000000466,
      "v": 86
    },
    {
      "midi": 39,
      "hit": false,
      "t": 176634.77249999807,
      "d": 112.27499999999418,
      "v": 94
    },
    {
      "midi": 58,
      "hit": false,
      "t": 176765.75999999806,
      "d": 41.16750000001048,
      "v": 86
    },
    {
      "midi": 63,
      "hit": false,
      "t": 176765.75999999806,
      "d": 48.65249999999651,
      "v": 68
    },
    {
      "midi": 54,
      "hit": false,
      "t": 176765.75999999806,
      "d": 86.07749999998487,
      "v": 90
    },
    {
      "midi": 46,
      "hit": false,
      "t": 177125.03999999806,
      "d": 520.2074999999895,
      "v": 90
    },
    {
      "midi": 53,
      "hit": false,
      "t": 177484.31999999806,
      "d": 119.76000000000931,
      "v": 72
    },
    {
      "midi": 56,
      "hit": false,
      "t": 177484.31999999806,
      "d": 119.76000000000931,
      "v": 94
    },
    {
      "midi": 61,
      "hit": false,
      "t": 177484.31999999806,
      "d": 123.50250000000233,
      "v": 90
    },
    {
      "midi": 39,
      "hit": false,
      "t": 177843.59999999806,
      "d": 160.9274999999907,
      "v": 76
    },
    {
      "midi": 58,
      "hit": false,
      "t": 178071.89249999804,
      "d": 29.94000000000233,
      "v": 68
    },
    {
      "midi": 54,
      "hit": false,
      "t": 178071.89249999804,
      "d": 56.13750000001164,
      "v": 90
    },
    {
      "midi": 63,
      "hit": false,
      "t": 178071.89249999804,
      "d": 59.88000000000466,
      "v": 86
    },
    {
      "midi": 39,
      "hit": false,
      "t": 178431.17249999804,
      "d": 112.27499999999418,
      "v": 94
    },
    {
      "midi": 58,
      "hit": false,
      "t": 178562.15999999802,
      "d": 41.16750000001048,
      "v": 86
    },
    {
      "midi": 63,
      "hit": false,
      "t": 178562.15999999802,
      "d": 48.65249999999651,
      "v": 68
    },
    {
      "midi": 54,
      "hit": false,
      "t": 178562.15999999802,
      "d": 86.07749999998487,
      "v": 90
    },
    {
      "midi": 46,
      "hit": false,
      "t": 178921.43999999802,
      "d": 520.2074999999895,
      "v": 90
    },
    {
      "midi": 53,
      "hit": false,
      "t": 179280.71999999802,
      "d": 119.76000000000931,
      "v": 72
    },
    {
      "midi": 56,
      "hit": false,
      "t": 179280.71999999802,
      "d": 119.76000000000931,
      "v": 94
    },
    {
      "midi": 61,
      "hit": false,
      "t": 179280.71999999802,
      "d": 123.50250000000233,
      "v": 90
    },
    {
      "midi": 39,
      "hit": false,
      "t": 179639.99999999802,
      "d": 160.9274999999907,
      "v": 76
    },
    {
      "midi": 58,
      "hit": false,
      "t": 179868.292499998,
      "d": 29.94000000000233,
      "v": 68
    },
    {
      "midi": 54,
      "hit": false,
      "t": 179868.292499998,
      "d": 56.13750000001164,
      "v": 90
    },
    {
      "midi": 63,
      "hit": false,
      "t": 179868.292499998,
      "d": 59.88000000000466,
      "v": 86
    },
    {
      "midi": 39,
      "hit": false,
      "t": 180227.572499998,
      "d": 112.27499999999418,
      "v": 94
    },
    {
      "midi": 58,
      "hit": false,
      "t": 180358.559999998,
      "d": 41.16750000001048,
      "v": 86
    },
    {
      "midi": 63,
      "hit": false,
      "t": 180358.559999998,
      "d": 48.65249999999651,
      "v": 68
    },
    {
      "midi": 54,
      "hit": false,
      "t": 180358.559999998,
      "d": 86.07749999998487,
      "v": 90
    },
    {
      "midi": 46,
      "hit": false,
      "t": 180717.839999998,
      "d": 520.2074999999895,
      "v": 90
    },
    {
      "midi": 53,
      "hit": false,
      "t": 181077.119999998,
      "d": 119.76000000000931,
      "v": 72
    },
    {
      "midi": 56,
      "hit": false,
      "t": 181077.119999998,
      "d": 119.76000000000931,
      "v": 94
    },
    {
      "midi": 61,
      "hit": false,
      "t": 181077.119999998,
      "d": 123.50250000000233,
      "v": 90
    },
    {
      "midi": 39,
      "hit": false,
      "t": 181436.399999998,
      "d": 160.9274999999907,
      "v": 76
    },
    {
      "midi": 58,
      "hit": false,
      "t": 181664.69249999797,
      "d": 29.94000000000233,
      "v": 68
    },
    {
      "midi": 54,
      "hit": false,
      "t": 181664.69249999797,
      "d": 56.13750000001164,
      "v": 90
    },
    {
      "midi": 63,
      "hit": false,
      "t": 181664.69249999797,
      "d": 59.88000000000466,
      "v": 86
    },
    {
      "midi": 39,
      "hit": false,
      "t": 182023.97249999797,
      "d": 112.27499999999418,
      "v": 94
    },
    {
      "midi": 58,
      "hit": false,
      "t": 182154.95999999795,
      "d": 41.16750000001048,
      "v": 86
    },
    {
      "midi": 63,
      "hit": false,
      "t": 182154.95999999795,
      "d": 48.65249999999651,
      "v": 68
    },
    {
      "midi": 54,
      "hit": false,
      "t": 182154.95999999795,
      "d": 86.07749999998487,
      "v": 90
    },
    {
      "midi": 46,
      "hit": false,
      "t": 182514.23999999795,
      "d": 520.2074999999895,
      "v": 90
    },
    {
      "midi": 53,
      "hit": false,
      "t": 182873.51999999795,
      "d": 119.76000000000931,
      "v": 72
    },
    {
      "midi": 56,
      "hit": false,
      "t": 182873.51999999795,
      "d": 119.76000000000931,
      "v": 94
    },
    {
      "midi": 61,
      "hit": false,
      "t": 182873.51999999795,
      "d": 123.50250000000233,
      "v": 90
    },
    {
      "midi": 39,
      "hit": false,
      "t": 183232.79999999795,
      "d": 160.9274999999907,
      "v": 76
    },
    {
      "midi": 58,
      "hit": false,
      "t": 183461.09249999793,
      "d": 29.94000000000233,
      "v": 68
    },
    {
      "midi": 54,
      "hit": false,
      "t": 183461.09249999793,
      "d": 56.13750000001164,
      "v": 90
    },
    {
      "midi": 63,
      "hit": false,
      "t": 183461.09249999793,
      "d": 59.88000000000466,
      "v": 86
    },
    {
      "midi": 39,
      "hit": false,
      "t": 183820.37249999793,
      "d": 112.27499999999418,
      "v": 94
    },
    {
      "midi": 58,
      "hit": false,
      "t": 183951.35999999792,
      "d": 41.16750000001048,
      "v": 86
    },
    {
      "midi": 63,
      "hit": false,
      "t": 183951.35999999792,
      "d": 48.65249999999651,
      "v": 68
    },
    {
      "midi": 54,
      "hit": false,
      "t": 183951.35999999792,
      "d": 86.07749999998487,
      "v": 90
    },
    {
      "midi": 46,
      "hit": false,
      "t": 184310.63999999792,
      "d": 520.2074999999895,
      "v": 90
    },
    {
      "midi": 53,
      "hit": false,
      "t": 184669.91999999792,
      "d": 119.76000000000931,
      "v": 72
    },
    {
      "midi": 56,
      "hit": false,
      "t": 184669.91999999792,
      "d": 119.76000000000931,
      "v": 94
    },
    {
      "midi": 61,
      "hit": false,
      "t": 184669.91999999792,
      "d": 123.50250000000233,
      "v": 90
    },
    {
      "midi": 39,
      "hit": false,
      "t": 185029.19999999792,
      "d": 160.9274999999907,
      "v": 76
    },
    {
      "midi": 58,
      "hit": false,
      "t": 185257.4924999979,
      "d": 29.94000000000233,
      "v": 68
    },
    {
      "midi": 54,
      "hit": false,
      "t": 185257.4924999979,
      "d": 56.13750000001164,
      "v": 90
    },
    {
      "midi": 63,
      "hit": false,
      "t": 185257.4924999979,
      "d": 59.88000000000466,
      "v": 86
    },
    {
      "midi": 39,
      "hit": false,
      "t": 185616.7724999979,
      "d": 112.27499999999418,
      "v": 94
    },
    {
      "midi": 58,
      "hit": false,
      "t": 185747.75999999788,
      "d": 41.16750000001048,
      "v": 86
    },
    {
      "midi": 63,
      "hit": false,
      "t": 185747.75999999788,
      "d": 48.65249999999651,
      "v": 68
    },
    {
      "midi": 54,
      "hit": false,
      "t": 185747.75999999788,
      "d": 86.07749999998487,
      "v": 90
    },
    {
      "midi": 46,
      "hit": false,
      "t": 186107.03999999788,
      "d": 520.2074999999895,
      "v": 90
    },
    {
      "midi": 53,
      "hit": false,
      "t": 186466.31999999788,
      "d": 119.76000000000931,
      "v": 72
    },
    {
      "midi": 56,
      "hit": false,
      "t": 186466.31999999788,
      "d": 119.76000000000931,
      "v": 94
    },
    {
      "midi": 61,
      "hit": false,
      "t": 186466.31999999788,
      "d": 123.50250000000233,
      "v": 90
    },
    {
      "midi": 39,
      "hit": false,
      "t": 186825.59999999788,
      "d": 160.9274999999907,
      "v": 76
    },
    {
      "midi": 58,
      "hit": false,
      "t": 187053.89249999786,
      "d": 29.94000000000233,
      "v": 68
    },
    {
      "midi": 54,
      "hit": false,
      "t": 187053.89249999786,
      "d": 56.13750000001164,
      "v": 90
    },
    {
      "midi": 63,
      "hit": false,
      "t": 187053.89249999786,
      "d": 59.88000000000466,
      "v": 86
    },
    {
      "midi": 39,
      "hit": false,
      "t": 187413.17249999786,
      "d": 112.27499999999418,
      "v": 94
    },
    {
      "midi": 58,
      "hit": false,
      "t": 187544.15999999785,
      "d": 41.16750000001048,
      "v": 86
    },
    {
      "midi": 63,
      "hit": false,
      "t": 187544.15999999785,
      "d": 48.65249999999651,
      "v": 68
    },
    {
      "midi": 54,
      "hit": false,
      "t": 187544.15999999785,
      "d": 86.07749999998487,
      "v": 90
    },
    {
      "midi": 46,
      "hit": false,
      "t": 187903.43999999785,
      "d": 520.2074999999895,
      "v": 90
    },
    {
      "midi": 53,
      "hit": false,
      "t": 188262.71999999785,
      "d": 119.76000000000931,
      "v": 72
    },
    {
      "midi": 56,
      "hit": false,
      "t": 188262.71999999785,
      "d": 119.76000000000931,
      "v": 94
    },
    {
      "midi": 61,
      "hit": false,
      "t": 188262.71999999785,
      "d": 123.50250000000233,
      "v": 90
    },
    {
      "midi": 39,
      "hit": false,
      "t": 188621.99999999785,
      "d": 160.9274999999907,
      "v": 76
    },
    {
      "midi": 58,
      "hit": false,
      "t": 188850.29249999783,
      "d": 29.94000000000233,
      "v": 68
    },
    {
      "midi": 54,
      "hit": false,
      "t": 188850.29249999783,
      "d": 56.13750000001164,
      "v": 90
    },
    {
      "midi": 63,
      "hit": false,
      "t": 188850.29249999783,
      "d": 59.88000000000466,
      "v": 86
    },
    {
      "midi": 39,
      "hit": false,
      "t": 189209.57249999783,
      "d": 112.27499999999418,
      "v": 94
    },
    {
      "midi": 58,
      "hit": false,
      "t": 189340.55999999781,
      "d": 41.16750000001048,
      "v": 86
    },
    {
      "midi": 63,
      "hit": false,
      "t": 189340.55999999781,
      "d": 48.65249999999651,
      "v": 68
    },
    {
      "midi": 54,
      "hit": false,
      "t": 189340.55999999781,
      "d": 86.07749999998487,
      "v": 90
    },
    {
      "midi": 46,
      "hit": false,
      "t": 189699.8399999978,
      "d": 520.2074999999895,
      "v": 90
    },
    {
      "midi": 53,
      "hit": false,
      "t": 190059.1199999978,
      "d": 119.76000000000931,
      "v": 72
    },
    {
      "midi": 56,
      "hit": false,
      "t": 190059.1199999978,
      "d": 119.76000000000931,
      "v": 94
    },
    {
      "midi": 61,
      "hit": false,
      "t": 190059.1199999978,
      "d": 123.50250000000233,
      "v": 90
    },
    {
      "midi": 39,
      "hit": false,
      "t": 190418.3999999978,
      "d": 160.9274999999907,
      "v": 76
    },
    {
      "midi": 58,
      "hit": false,
      "t": 190646.6924999978,
      "d": 29.94000000000233,
      "v": 68
    },
    {
      "midi": 54,
      "hit": false,
      "t": 190646.6924999978,
      "d": 56.13750000001164,
      "v": 90
    },
    {
      "midi": 63,
      "hit": false,
      "t": 190646.6924999978,
      "d": 59.88000000000466,
      "v": 86
    },
    {
      "midi": 39,
      "hit": false,
      "t": 191005.9724999978,
      "d": 112.27499999999418,
      "v": 94
    },
    {
      "midi": 58,
      "hit": false,
      "t": 191136.95999999778,
      "d": 41.16750000001048,
      "v": 86
    },
    {
      "midi": 63,
      "hit": false,
      "t": 191136.95999999778,
      "d": 48.65249999999651,
      "v": 68
    },
    {
      "midi": 54,
      "hit": false,
      "t": 191136.95999999778,
      "d": 86.07749999998487,
      "v": 90
    },
    {
      "midi": 46,
      "hit": false,
      "t": 191496.23999999778,
      "d": 520.2074999999895,
      "v": 90
    },
    {
      "midi": 53,
      "hit": false,
      "t": 191855.51999999778,
      "d": 119.76000000000931,
      "v": 72
    },
    {
      "midi": 56,
      "hit": false,
      "t": 191855.51999999778,
      "d": 119.76000000000931,
      "v": 94
    },
    {
      "midi": 61,
      "hit": false,
      "t": 191855.51999999778,
      "d": 123.50250000000233,
      "v": 90
    },
    {
      "midi": 39,
      "hit": false,
      "t": 192214.79999999778,
      "d": 160.9274999999907,
      "v": 76
    },
    {
      "midi": 58,
      "hit": false,
      "t": 192443.09249999776,
      "d": 29.94000000000233,
      "v": 68
    },
    {
      "midi": 54,
      "hit": false,
      "t": 192443.09249999776,
      "d": 56.13750000001164,
      "v": 90
    },
    {
      "midi": 63,
      "hit": false,
      "t": 192443.09249999776,
      "d": 59.88000000000466,
      "v": 86
    },
    {
      "midi": 39,
      "hit": false,
      "t": 192802.37249999776,
      "d": 112.27499999999418,
      "v": 94
    },
    {
      "midi": 58,
      "hit": false,
      "t": 192933.35999999775,
      "d": 41.16750000001048,
      "v": 86
    },
    {
      "midi": 63,
      "hit": false,
      "t": 192933.35999999775,
      "d": 48.65249999999651,
      "v": 68
    },
    {
      "midi": 54,
      "hit": false,
      "t": 192933.35999999775,
      "d": 86.07749999998487,
      "v": 90
    },
    {
      "midi": 46,
      "hit": false,
      "t": 193292.63999999774,
      "d": 520.2074999999895,
      "v": 90
    },
    {
      "midi": 53,
      "hit": false,
      "t": 193651.91999999774,
      "d": 119.76000000000931,
      "v": 72
    },
    {
      "midi": 56,
      "hit": false,
      "t": 193651.91999999774,
      "d": 119.76000000000931,
      "v": 94
    },
    {
      "midi": 61,
      "hit": false,
      "t": 193651.91999999774,
      "d": 123.50250000000233,
      "v": 90
    },
    {
      "midi": 39,
      "hit": false,
      "t": 194011.19999999774,
      "d": 160.9274999999907,
      "v": 76
    },
    {
      "midi": 58,
      "hit": false,
      "t": 194239.49249999772,
      "d": 29.94000000000233,
      "v": 68
    },
    {
      "midi": 54,
      "hit": false,
      "t": 194239.49249999772,
      "d": 56.13750000001164,
      "v": 90
    },
    {
      "midi": 63,
      "hit": false,
      "t": 194239.49249999772,
      "d": 59.88000000000466,
      "v": 86
    },
    {
      "midi": 39,
      "hit": false,
      "t": 194598.77249999772,
      "d": 112.27499999999418,
      "v": 94
    },
    {
      "midi": 58,
      "hit": false,
      "t": 194729.7599999977,
      "d": 41.16750000001048,
      "v": 86
    },
    {
      "midi": 63,
      "hit": false,
      "t": 194729.7599999977,
      "d": 48.65249999999651,
      "v": 68
    },
    {
      "midi": 54,
      "hit": false,
      "t": 194729.7599999977,
      "d": 86.07749999998487,
      "v": 90
    },
    {
      "midi": 46,
      "hit": false,
      "t": 195089.0399999977,
      "d": 520.2074999999895,
      "v": 90
    },
    {
      "midi": 53,
      "hit": false,
      "t": 195448.3199999977,
      "d": 119.76000000000931,
      "v": 72
    },
    {
      "midi": 56,
      "hit": false,
      "t": 195448.3199999977,
      "d": 119.76000000000931,
      "v": 94
    },
    {
      "midi": 61,
      "hit": false,
      "t": 195448.3199999977,
      "d": 123.50250000000233,
      "v": 90
    },
    {
      "midi": 39,
      "hit": false,
      "t": 195807.5999999977,
      "d": 160.9274999999907,
      "v": 76
    },
    {
      "midi": 58,
      "hit": false,
      "t": 196035.8924999977,
      "d": 29.94000000000233,
      "v": 68
    },
    {
      "midi": 54,
      "hit": false,
      "t": 196035.8924999977,
      "d": 56.13750000001164,
      "v": 90
    },
    {
      "midi": 63,
      "hit": false,
      "t": 196035.8924999977,
      "d": 59.88000000000466,
      "v": 86
    },
    {
      "midi": 39,
      "hit": false,
      "t": 196395.1724999977,
      "d": 112.27499999999418,
      "v": 94
    },
    {
      "midi": 58,
      "hit": false,
      "t": 196526.15999999768,
      "d": 41.16750000001048,
      "v": 86
    },
    {
      "midi": 63,
      "hit": false,
      "t": 196526.15999999768,
      "d": 48.65249999999651,
      "v": 68
    },
    {
      "midi": 54,
      "hit": false,
      "t": 196526.15999999768,
      "d": 86.07749999998487,
      "v": 90
    },
    {
      "midi": 46,
      "hit": false,
      "t": 196885.43999999767,
      "d": 520.2074999999895,
      "v": 90
    },
    {
      "midi": 53,
      "hit": false,
      "t": 197244.71999999767,
      "d": 119.76000000000931,
      "v": 72
    },
    {
      "midi": 56,
      "hit": false,
      "t": 197244.71999999767,
      "d": 119.76000000000931,
      "v": 94
    },
    {
      "midi": 61,
      "hit": false,
      "t": 197244.71999999767,
      "d": 123.50250000000233,
      "v": 90
    },
    {
      "midi": 39,
      "hit": false,
      "t": 197603.99999999767,
      "d": 160.9274999999907,
      "v": 76
    },
    {
      "midi": 58,
      "hit": false,
      "t": 197832.29249999765,
      "d": 29.94000000000233,
      "v": 68
    },
    {
      "midi": 54,
      "hit": false,
      "t": 197832.29249999765,
      "d": 56.13750000001164,
      "v": 90
    },
    {
      "midi": 63,
      "hit": false,
      "t": 197832.29249999765,
      "d": 59.88000000000466,
      "v": 86
    },
    {
      "midi": 39,
      "hit": false,
      "t": 198191.57249999765,
      "d": 112.27499999999418,
      "v": 94
    },
    {
      "midi": 58,
      "hit": false,
      "t": 198322.55999999764,
      "d": 41.16750000001048,
      "v": 86
    },
    {
      "midi": 63,
      "hit": false,
      "t": 198322.55999999764,
      "d": 48.65249999999651,
      "v": 68
    },
    {
      "midi": 54,
      "hit": false,
      "t": 198322.55999999764,
      "d": 86.07749999998487,
      "v": 90
    },
    {
      "midi": 46,
      "hit": false,
      "t": 198681.83999999764,
      "d": 520.2074999999895,
      "v": 90
    },
    {
      "midi": 53,
      "hit": false,
      "t": 199041.11999999764,
      "d": 119.76000000000931,
      "v": 72
    },
    {
      "midi": 56,
      "hit": false,
      "t": 199041.11999999764,
      "d": 119.76000000000931,
      "v": 94
    },
    {
      "midi": 61,
      "hit": false,
      "t": 199041.11999999764,
      "d": 123.50250000000233,
      "v": 90
    },
    {
      "midi": 39,
      "hit": false,
      "t": 199400.39999999764,
      "d": 160.9274999999907,
      "v": 76
    },
    {
      "midi": 58,
      "hit": false,
      "t": 199628.69249999762,
      "d": 29.94000000000233,
      "v": 68
    },
    {
      "midi": 54,
      "hit": false,
      "t": 199628.69249999762,
      "d": 56.13750000001164,
      "v": 90
    },
    {
      "midi": 63,
      "hit": false,
      "t": 199628.69249999762,
      "d": 59.88000000000466,
      "v": 86
    },
    {
      "midi": 39,
      "hit": false,
      "t": 199987.97249999762,
      "d": 112.27499999999418,
      "v": 94
    },
    {
      "midi": 58,
      "hit": false,
      "t": 200118.9599999976,
      "d": 41.16750000001048,
      "v": 86
    },
    {
      "midi": 63,
      "hit": false,
      "t": 200118.9599999976,
      "d": 48.65249999999651,
      "v": 68
    },
    {
      "midi": 54,
      "hit": false,
      "t": 200118.9599999976,
      "d": 86.07749999998487,
      "v": 90
    },
    {
      "midi": 46,
      "hit": false,
      "t": 200478.2399999976,
      "d": 520.2074999999895,
      "v": 90
    },
    {
      "midi": 53,
      "hit": false,
      "t": 200837.5199999976,
      "d": 119.76000000000931,
      "v": 72
    },
    {
      "midi": 56,
      "hit": false,
      "t": 200837.5199999976,
      "d": 119.76000000000931,
      "v": 94
    },
    {
      "midi": 61,
      "hit": false,
      "t": 200837.5199999976,
      "d": 123.50250000000233,
      "v": 90
    },
    {
      "midi": 39,
      "hit": false,
      "t": 201196.7999999976,
      "d": 160.9274999999907,
      "v": 76
    },
    {
      "midi": 58,
      "hit": false,
      "t": 201425.09249999758,
      "d": 29.94000000000233,
      "v": 68
    },
    {
      "midi": 54,
      "hit": false,
      "t": 201425.09249999758,
      "d": 56.13750000001164,
      "v": 90
    },
    {
      "midi": 63,
      "hit": false,
      "t": 201425.09249999758,
      "d": 59.88000000000466,
      "v": 86
    },
    {
      "midi": 39,
      "hit": false,
      "t": 201784.37249999758,
      "d": 112.27499999999418,
      "v": 94
    },
    {
      "midi": 58,
      "hit": false,
      "t": 201915.35999999757,
      "d": 41.16750000001048,
      "v": 86
    },
    {
      "midi": 63,
      "hit": false,
      "t": 201915.35999999757,
      "d": 48.65249999999651,
      "v": 68
    },
    {
      "midi": 54,
      "hit": false,
      "t": 201915.35999999757,
      "d": 86.07749999998487,
      "v": 90
    },
    {
      "midi": 46,
      "hit": false,
      "t": 202274.63999999757,
      "d": 520.2074999999895,
      "v": 90
    },
    {
      "midi": 53,
      "hit": false,
      "t": 202633.91999999757,
      "d": 119.76000000000931,
      "v": 72
    },
    {
      "midi": 56,
      "hit": false,
      "t": 202633.91999999757,
      "d": 119.76000000000931,
      "v": 94
    },
    {
      "midi": 61,
      "hit": false,
      "t": 202633.91999999757,
      "d": 123.50250000000233,
      "v": 90
    },
    {
      "midi": 39,
      "hit": false,
      "t": 202993.19999999757,
      "d": 160.9274999999907,
      "v": 76
    },
    {
      "midi": 58,
      "hit": false,
      "t": 203221.49249999755,
      "d": 29.94000000000233,
      "v": 68
    },
    {
      "midi": 54,
      "hit": false,
      "t": 203221.49249999755,
      "d": 56.13750000001164,
      "v": 90
    },
    {
      "midi": 63,
      "hit": false,
      "t": 203221.49249999755,
      "d": 59.88000000000466,
      "v": 86
    },
    {
      "midi": 39,
      "hit": false,
      "t": 203580.77249999755,
      "d": 112.27499999999418,
      "v": 94
    },
    {
      "midi": 58,
      "hit": false,
      "t": 203711.75999999754,
      "d": 41.16750000001048,
      "v": 86
    },
    {
      "midi": 63,
      "hit": false,
      "t": 203711.75999999754,
      "d": 48.65249999999651,
      "v": 68
    },
    {
      "midi": 54,
      "hit": false,
      "t": 203711.75999999754,
      "d": 86.07749999998487,
      "v": 90
    },
    {
      "midi": 46,
      "hit": false,
      "t": 204071.03999999753,
      "d": 520.2074999999895,
      "v": 90
    },
    {
      "midi": 53,
      "hit": false,
      "t": 204430.31999999753,
      "d": 119.76000000000931,
      "v": 72
    },
    {
      "midi": 56,
      "hit": false,
      "t": 204430.31999999753,
      "d": 119.76000000000931,
      "v": 94
    },
    {
      "midi": 61,
      "hit": false,
      "t": 204430.31999999753,
      "d": 123.50250000000233,
      "v": 90
    },
    {
      "midi": 39,
      "hit": false,
      "t": 204789.59999999753,
      "d": 160.9274999999907,
      "v": 76
    },
    {
      "midi": 58,
      "hit": false,
      "t": 205017.8924999975,
      "d": 29.94000000000233,
      "v": 68
    },
    {
      "midi": 54,
      "hit": false,
      "t": 205017.8924999975,
      "d": 56.13750000001164,
      "v": 90
    },
    {
      "midi": 63,
      "hit": false,
      "t": 205017.8924999975,
      "d": 59.88000000000466,
      "v": 86
    },
    {
      "midi": 39,
      "hit": false,
      "t": 205377.1724999975,
      "d": 112.27499999999418,
      "v": 94
    },
    {
      "midi": 58,
      "hit": false,
      "t": 205508.1599999975,
      "d": 41.16750000001048,
      "v": 86
    },
    {
      "midi": 63,
      "hit": false,
      "t": 205508.1599999975,
      "d": 48.65249999999651,
      "v": 68
    },
    {
      "midi": 54,
      "hit": false,
      "t": 205508.1599999975,
      "d": 86.07749999998487,
      "v": 90
    },
    {
      "midi": 46,
      "hit": false,
      "t": 205867.4399999975,
      "d": 520.2074999999895,
      "v": 90
    },
    {
      "midi": 53,
      "hit": false,
      "t": 206226.7199999975,
      "d": 119.76000000000931,
      "v": 72
    },
    {
      "midi": 56,
      "hit": false,
      "t": 206226.7199999975,
      "d": 119.76000000000931,
      "v": 94
    },
    {
      "midi": 61,
      "hit": false,
      "t": 206226.7199999975,
      "d": 123.50250000000233,
      "v": 90
    },
    {
      "midi": 39,
      "hit": false,
      "t": 206585.9999999975,
      "d": 160.9274999999907,
      "v": 76
    },
    {
      "midi": 58,
      "hit": false,
      "t": 206814.29249999748,
      "d": 29.94000000000233,
      "v": 68
    },
    {
      "midi": 54,
      "hit": false,
      "t": 206814.29249999748,
      "d": 56.13750000001164,
      "v": 90
    },
    {
      "midi": 63,
      "hit": false,
      "t": 206814.29249999748,
      "d": 59.88000000000466,
      "v": 86
    },
    {
      "midi": 39,
      "hit": false,
      "t": 207173.57249999748,
      "d": 112.27499999999418,
      "v": 94
    },
    {
      "midi": 58,
      "hit": false,
      "t": 207304.55999999747,
      "d": 41.16750000001048,
      "v": 86
    },
    {
      "midi": 63,
      "hit": false,
      "t": 207304.55999999747,
      "d": 48.65249999999651,
      "v": 68
    },
    {
      "midi": 54,
      "hit": false,
      "t": 207304.55999999747,
      "d": 86.07749999998487,
      "v": 90
    },
    {
      "midi": 46,
      "hit": false,
      "t": 207663.83999999746,
      "d": 520.2074999999895,
      "v": 90
    },
    {
      "midi": 53,
      "hit": false,
      "t": 208023.11999999746,
      "d": 119.76000000000931,
      "v": 72
    },
    {
      "midi": 56,
      "hit": false,
      "t": 208023.11999999746,
      "d": 119.76000000000931,
      "v": 94
    },
    {
      "midi": 61,
      "hit": false,
      "t": 208023.11999999746,
      "d": 123.50250000000233,
      "v": 90
    },
    {
      "midi": 39,
      "hit": false,
      "t": 208382.39999999746,
      "d": 160.9274999999907,
      "v": 76
    },
    {
      "midi": 58,
      "hit": false,
      "t": 208610.69249999744,
      "d": 29.94000000000233,
      "v": 68
    },
    {
      "midi": 54,
      "hit": false,
      "t": 208610.69249999744,
      "d": 56.13750000001164,
      "v": 90
    },
    {
      "midi": 63,
      "hit": false,
      "t": 208610.69249999744,
      "d": 59.88000000000466,
      "v": 86
    },
    {
      "midi": 39,
      "hit": false,
      "t": 208969.97249999744,
      "d": 112.27499999999418,
      "v": 94
    },
    {
      "midi": 58,
      "hit": false,
      "t": 209100.95999999743,
      "d": 41.16750000001048,
      "v": 86
    },
    {
      "midi": 63,
      "hit": false,
      "t": 209100.95999999743,
      "d": 48.65249999999651,
      "v": 68
    },
    {
      "midi": 54,
      "hit": false,
      "t": 209100.95999999743,
      "d": 86.07749999998487,
      "v": 90
    },
    {
      "midi": 46,
      "hit": false,
      "t": 209460.23999999743,
      "d": 520.2074999999895,
      "v": 90
    },
    {
      "midi": 53,
      "hit": false,
      "t": 209819.51999999743,
      "d": 119.76000000000931,
      "v": 72
    },
    {
      "midi": 56,
      "hit": false,
      "t": 209819.51999999743,
      "d": 119.76000000000931,
      "v": 94
    },
    {
      "midi": 61,
      "hit": false,
      "t": 209819.51999999743,
      "d": 123.50250000000233,
      "v": 90
    },
    {
      "midi": 39,
      "hit": false,
      "t": 210178.79999999743,
      "d": 160.9274999999907,
      "v": 76
    },
    {
      "midi": 58,
      "hit": false,
      "t": 210407.0924999974,
      "d": 29.94000000000233,
      "v": 68
    },
    {
      "midi": 54,
      "hit": false,
      "t": 210407.0924999974,
      "d": 56.13750000001164,
      "v": 90
    },
    {
      "midi": 63,
      "hit": false,
      "t": 210407.0924999974,
      "d": 59.88000000000466,
      "v": 86
    },
    {
      "midi": 39,
      "hit": false,
      "t": 210766.3724999974,
      "d": 112.27499999999418,
      "v": 94
    },
    {
      "midi": 58,
      "hit": false,
      "t": 210897.3599999974,
      "d": 41.16750000001048,
      "v": 86
    },
    {
      "midi": 63,
      "hit": false,
      "t": 210897.3599999974,
      "d": 48.65249999999651,
      "v": 68
    },
    {
      "midi": 54,
      "hit": false,
      "t": 210897.3599999974,
      "d": 86.07749999998487,
      "v": 90
    },
    {
      "midi": 46,
      "hit": false,
      "t": 211256.6399999974,
      "d": 520.2074999999895,
      "v": 90
    },
    {
      "midi": 53,
      "hit": false,
      "t": 211615.9199999974,
      "d": 119.76000000000931,
      "v": 72
    },
    {
      "midi": 56,
      "hit": false,
      "t": 211615.9199999974,
      "d": 119.76000000000931,
      "v": 94
    },
    {
      "midi": 61,
      "hit": false,
      "t": 211615.9199999974,
      "d": 123.50250000000233,
      "v": 90
    },
    {
      "midi": 39,
      "hit": false,
      "t": 211975.1999999974,
      "d": 160.9274999999907,
      "v": 76
    },
    {
      "midi": 58,
      "hit": false,
      "t": 212203.49249999737,
      "d": 29.94000000000233,
      "v": 68
    },
    {
      "midi": 54,
      "hit": false,
      "t": 212203.49249999737,
      "d": 56.13750000001164,
      "v": 90
    },
    {
      "midi": 63,
      "hit": false,
      "t": 212203.49249999737,
      "d": 59.88000000000466,
      "v": 86
    },
    {
      "midi": 39,
      "hit": false,
      "t": 212562.77249999737,
      "d": 112.27499999999418,
      "v": 94
    },
    {
      "midi": 58,
      "hit": false,
      "t": 212693.75999999736,
      "d": 41.16750000001048,
      "v": 86
    },
    {
      "midi": 63,
      "hit": false,
      "t": 212693.75999999736,
      "d": 48.65249999999651,
      "v": 68
    },
    {
      "midi": 54,
      "hit": false,
      "t": 212693.75999999736,
      "d": 86.07749999998487,
      "v": 90
    },
    {
      "midi": 46,
      "hit": false,
      "t": 213053.03999999736,
      "d": 520.2074999999895,
      "v": 90
    },
    {
      "midi": 53,
      "hit": false,
      "t": 213412.31999999736,
      "d": 119.76000000000931,
      "v": 72
    },
    {
      "midi": 56,
      "hit": false,
      "t": 213412.31999999736,
      "d": 119.76000000000931,
      "v": 94
    },
    {
      "midi": 61,
      "hit": false,
      "t": 213412.31999999736,
      "d": 123.50250000000233,
      "v": 90
    },
    {
      "midi": 39,
      "hit": false,
      "t": 213771.59999999736,
      "d": 160.9274999999907,
      "v": 76
    },
    {
      "midi": 58,
      "hit": false,
      "t": 213999.89249999734,
      "d": 29.94000000000233,
      "v": 68
    },
    {
      "midi": 54,
      "hit": false,
      "t": 213999.89249999734,
      "d": 56.13750000001164,
      "v": 90
    },
    {
      "midi": 63,
      "hit": false,
      "t": 213999.89249999734,
      "d": 59.88000000000466,
      "v": 86
    },
    {
      "midi": 39,
      "hit": false,
      "t": 214359.17249999734,
      "d": 112.27499999999418,
      "v": 94
    },
    {
      "midi": 58,
      "hit": false,
      "t": 214490.15999999733,
      "d": 41.16750000001048,
      "v": 86
    },
    {
      "midi": 63,
      "hit": false,
      "t": 214490.15999999733,
      "d": 48.65249999999651,
      "v": 68
    },
    {
      "midi": 54,
      "hit": false,
      "t": 214490.15999999733,
      "d": 86.07749999998487,
      "v": 90
    },
    {
      "midi": 46,
      "hit": false,
      "t": 214849.43999999732,
      "d": 520.2074999999895,
      "v": 90
    },
    {
      "midi": 53,
      "hit": false,
      "t": 215208.71999999732,
      "d": 119.76000000000931,
      "v": 72
    },
    {
      "midi": 56,
      "hit": false,
      "t": 215208.71999999732,
      "d": 119.76000000000931,
      "v": 94
    },
    {
      "midi": 61,
      "hit": false,
      "t": 215208.71999999732,
      "d": 123.50250000000233,
      "v": 90
    },
    {
      "midi": 39,
      "hit": false,
      "t": 215567.99999999732,
      "d": 160.9274999999907,
      "v": 76
    },
    {
      "midi": 58,
      "hit": false,
      "t": 215796.2924999973,
      "d": 29.94000000000233,
      "v": 68
    },
    {
      "midi": 54,
      "hit": false,
      "t": 215796.2924999973,
      "d": 56.13750000001164,
      "v": 90
    },
    {
      "midi": 63,
      "hit": false,
      "t": 215796.2924999973,
      "d": 59.88000000000466,
      "v": 86
    },
    {
      "midi": 39,
      "hit": false,
      "t": 216155.5724999973,
      "d": 112.27499999999418,
      "v": 94
    },
    {
      "midi": 58,
      "hit": false,
      "t": 216286.5599999973,
      "d": 41.16750000001048,
      "v": 86
    },
    {
      "midi": 63,
      "hit": false,
      "t": 216286.5599999973,
      "d": 48.65249999999651,
      "v": 68
    },
    {
      "midi": 54,
      "hit": false,
      "t": 216286.5599999973,
      "d": 86.07749999998487,
      "v": 90
    },
    {
      "midi": 46,
      "hit": false,
      "t": 216645.8399999973,
      "d": 520.2074999999895,
      "v": 90
    },
    {
      "midi": 53,
      "hit": false,
      "t": 217005.1199999973,
      "d": 119.76000000000931,
      "v": 72
    },
    {
      "midi": 56,
      "hit": false,
      "t": 217005.1199999973,
      "d": 119.76000000000931,
      "v": 94
    },
    {
      "midi": 61,
      "hit": false,
      "t": 217005.1199999973,
      "d": 123.50250000000233,
      "v": 90
    },
    {
      "midi": 39,
      "hit": false,
      "t": 217364.3999999973,
      "d": 160.9274999999907,
      "v": 76
    },
    {
      "midi": 58,
      "hit": false,
      "t": 217592.69249999727,
      "d": 29.94000000000233,
      "v": 68
    },
    {
      "midi": 54,
      "hit": false,
      "t": 217592.69249999727,
      "d": 56.13750000001164,
      "v": 90
    },
    {
      "midi": 63,
      "hit": false,
      "t": 217592.69249999727,
      "d": 59.88000000000466,
      "v": 86
    },
    {
      "midi": 39,
      "hit": false,
      "t": 217951.97249999727,
      "d": 112.27499999999418,
      "v": 94
    },
    {
      "midi": 58,
      "hit": false,
      "t": 218082.95999999726,
      "d": 41.16750000001048,
      "v": 86
    },
    {
      "midi": 63,
      "hit": false,
      "t": 218082.95999999726,
      "d": 48.65249999999651,
      "v": 68
    },
    {
      "midi": 54,
      "hit": false,
      "t": 218082.95999999726,
      "d": 86.07749999998487,
      "v": 90
    },
    {
      "midi": 46,
      "hit": false,
      "t": 218442.23999999725,
      "d": 520.2074999999895,
      "v": 90
    },
    {
      "midi": 53,
      "hit": false,
      "t": 218801.51999999725,
      "d": 119.76000000000931,
      "v": 72
    },
    {
      "midi": 56,
      "hit": false,
      "t": 218801.51999999725,
      "d": 119.76000000000931,
      "v": 94
    },
    {
      "midi": 61,
      "hit": false,
      "t": 218801.51999999725,
      "d": 123.50250000000233,
      "v": 90
    },
    {
      "midi": 39,
      "hit": false,
      "t": 219160.79999999725,
      "d": 160.9274999999907,
      "v": 76
    },
    {
      "midi": 58,
      "hit": false,
      "t": 219389.09249999723,
      "d": 29.94000000000233,
      "v": 68
    },
    {
      "midi": 54,
      "hit": false,
      "t": 219389.09249999723,
      "d": 56.13750000001164,
      "v": 90
    },
    {
      "midi": 63,
      "hit": false,
      "t": 219389.09249999723,
      "d": 59.88000000000466,
      "v": 86
    },
    {
      "midi": 39,
      "hit": false,
      "t": 219748.37249999723,
      "d": 112.27499999999418,
      "v": 94
    },
    {
      "midi": 58,
      "hit": false,
      "t": 219879.35999999722,
      "d": 41.16750000001048,
      "v": 86
    },
    {
      "midi": 63,
      "hit": false,
      "t": 219879.35999999722,
      "d": 48.65249999999651,
      "v": 68
    },
    {
      "midi": 54,
      "hit": false,
      "t": 219879.35999999722,
      "d": 86.07749999998487,
      "v": 90
    },
    {
      "midi": 46,
      "hit": false,
      "t": 220238.63999999722,
      "d": 520.2074999999895,
      "v": 90
    },
    {
      "midi": 53,
      "hit": false,
      "t": 220597.91999999722,
      "d": 119.76000000000931,
      "v": 72
    },
    {
      "midi": 56,
      "hit": false,
      "t": 220597.91999999722,
      "d": 119.76000000000931,
      "v": 94
    },
    {
      "midi": 61,
      "hit": false,
      "t": 220597.91999999722,
      "d": 123.50250000000233,
      "v": 90
    },
    {
      "midi": 39,
      "hit": false,
      "t": 220957.19999999722,
      "d": 160.9274999999907,
      "v": 76
    },
    {
      "midi": 58,
      "hit": false,
      "t": 221185.4924999972,
      "d": 29.94000000000233,
      "v": 68
    },
    {
      "midi": 54,
      "hit": false,
      "t": 221185.4924999972,
      "d": 56.13750000001164,
      "v": 90
    },
    {
      "midi": 63,
      "hit": false,
      "t": 221185.4924999972,
      "d": 59.88000000000466,
      "v": 86
    },
    {
      "midi": 39,
      "hit": false,
      "t": 221544.7724999972,
      "d": 112.27499999999418,
      "v": 94
    },
    {
      "midi": 58,
      "hit": false,
      "t": 221675.7599999972,
      "d": 41.16750000001048,
      "v": 86
    },
    {
      "midi": 63,
      "hit": false,
      "t": 221675.7599999972,
      "d": 48.65249999999651,
      "v": 68
    },
    {
      "midi": 54,
      "hit": false,
      "t": 221675.7599999972,
      "d": 86.07749999998487,
      "v": 90
    },
    {
      "midi": 46,
      "hit": false,
      "t": 222035.03999999719,
      "d": 520.2074999999895,
      "v": 90
    },
    {
      "midi": 53,
      "hit": false,
      "t": 222394.31999999718,
      "d": 119.76000000000931,
      "v": 72
    },
    {
      "midi": 56,
      "hit": false,
      "t": 222394.31999999718,
      "d": 119.76000000000931,
      "v": 94
    },
    {
      "midi": 61,
      "hit": false,
      "t": 222394.31999999718,
      "d": 123.50250000000233,
      "v": 90
    },
    {
      "midi": 39,
      "hit": false,
      "t": 222753.59999999718,
      "d": 160.9274999999907,
      "v": 76
    },
    {
      "midi": 58,
      "hit": false,
      "t": 222981.89249999716,
      "d": 29.94000000000233,
      "v": 68
    },
    {
      "midi": 54,
      "hit": false,
      "t": 222981.89249999716,
      "d": 56.13750000001164,
      "v": 90
    },
    {
      "midi": 63,
      "hit": false,
      "t": 222981.89249999716,
      "d": 59.88000000000466,
      "v": 86
    },
    {
      "midi": 39,
      "hit": false,
      "t": 223341.17249999716,
      "d": 112.27499999999418,
      "v": 94
    },
    {
      "midi": 58,
      "hit": false,
      "t": 223472.15999999715,
      "d": 41.16750000001048,
      "v": 86
    },
    {
      "midi": 63,
      "hit": false,
      "t": 223472.15999999715,
      "d": 48.65249999999651,
      "v": 68
    },
    {
      "midi": 54,
      "hit": false,
      "t": 223472.15999999715,
      "d": 86.07749999998487,
      "v": 90
    },
    {
      "midi": 46,
      "hit": false,
      "t": 223831.43999999715,
      "d": 520.2074999999895,
      "v": 90
    },
    {
      "midi": 53,
      "hit": false,
      "t": 224190.71999999715,
      "d": 119.76000000000931,
      "v": 72
    },
    {
      "midi": 56,
      "hit": false,
      "t": 224190.71999999715,
      "d": 119.76000000000931,
      "v": 94
    },
    {
      "midi": 61,
      "hit": false,
      "t": 224190.71999999715,
      "d": 123.50250000000233,
      "v": 90
    },
    {
      "midi": 39,
      "hit": false,
      "t": 224549.99999999715,
      "d": 160.9274999999907,
      "v": 76
    },
    {
      "midi": 58,
      "hit": false,
      "t": 224778.29249999713,
      "d": 29.94000000000233,
      "v": 68
    },
    {
      "midi": 54,
      "hit": false,
      "t": 224778.29249999713,
      "d": 56.13750000001164,
      "v": 90
    },
    {
      "midi": 63,
      "hit": false,
      "t": 224778.29249999713,
      "d": 59.88000000000466,
      "v": 86
    },
    {
      "midi": 39,
      "hit": false,
      "t": 225137.57249999713,
      "d": 112.27499999999418,
      "v": 94
    },
    {
      "midi": 58,
      "hit": false,
      "t": 225268.55999999712,
      "d": 41.16750000001048,
      "v": 86
    },
    {
      "midi": 63,
      "hit": false,
      "t": 225268.55999999712,
      "d": 48.65249999999651,
      "v": 68
    },
    {
      "midi": 54,
      "hit": false,
      "t": 225268.55999999712,
      "d": 86.07749999998487,
      "v": 90
    },
    {
      "midi": 46,
      "hit": false,
      "t": 225627.83999999712,
      "d": 520.2074999999895,
      "v": 90
    },
    {
      "midi": 53,
      "hit": false,
      "t": 225987.1199999971,
      "d": 119.76000000000931,
      "v": 72
    },
    {
      "midi": 56,
      "hit": false,
      "t": 225987.1199999971,
      "d": 119.76000000000931,
      "v": 94
    },
    {
      "midi": 61,
      "hit": false,
      "t": 225987.1199999971,
      "d": 123.50250000000233,
      "v": 90
    },
    {
      "midi": 39,
      "hit": false,
      "t": 226346.3999999971,
      "d": 160.9274999999907,
      "v": 76
    },
    {
      "midi": 58,
      "hit": false,
      "t": 226574.6924999971,
      "d": 29.94000000000233,
      "v": 68
    },
    {
      "midi": 54,
      "hit": false,
      "t": 226574.6924999971,
      "d": 56.13750000001164,
      "v": 90
    },
    {
      "midi": 63,
      "hit": false,
      "t": 226574.6924999971,
      "d": 59.88000000000466,
      "v": 86
    },
    {
      "midi": 39,
      "hit": false,
      "t": 226933.9724999971,
      "d": 112.27499999999418,
      "v": 94
    },
    {
      "midi": 58,
      "hit": false,
      "t": 227064.95999999708,
      "d": 41.16750000001048,
      "v": 86
    },
    {
      "midi": 63,
      "hit": false,
      "t": 227064.95999999708,
      "d": 48.65249999999651,
      "v": 68
    },
    {
      "midi": 54,
      "hit": false,
      "t": 227064.95999999708,
      "d": 86.07749999998487,
      "v": 90
    },
    {
      "midi": 46,
      "hit": false,
      "t": 227424.23999999708,
      "d": 520.2074999999895,
      "v": 90
    },
    {
      "midi": 53,
      "hit": false,
      "t": 227783.51999999708,
      "d": 119.76000000000931,
      "v": 72
    },
    {
      "midi": 56,
      "hit": false,
      "t": 227783.51999999708,
      "d": 119.76000000000931,
      "v": 94
    },
    {
      "midi": 61,
      "hit": false,
      "t": 227783.51999999708,
      "d": 123.50250000000233,
      "v": 90
    },
    {
      "midi": 39,
      "hit": false,
      "t": 228142.79999999708,
      "d": 160.9274999999907,
      "v": 76
    },
    {
      "midi": 58,
      "hit": false,
      "t": 228371.09249999706,
      "d": 29.94000000000233,
      "v": 68
    },
    {
      "midi": 54,
      "hit": false,
      "t": 228371.09249999706,
      "d": 56.13750000001164,
      "v": 90
    },
    {
      "midi": 63,
      "hit": false,
      "t": 228371.09249999706,
      "d": 59.88000000000466,
      "v": 86
    },
    {
      "midi": 39,
      "hit": false,
      "t": 228730.37249999706,
      "d": 112.27499999999418,
      "v": 94
    },
    {
      "midi": 58,
      "hit": false,
      "t": 228861.35999999705,
      "d": 41.16750000001048,
      "v": 86
    },
    {
      "midi": 63,
      "hit": false,
      "t": 228861.35999999705,
      "d": 48.65249999999651,
      "v": 68
    },
    {
      "midi": 54,
      "hit": false,
      "t": 228861.35999999705,
      "d": 86.07749999998487,
      "v": 90
    },
    {
      "midi": 46,
      "hit": false,
      "t": 229220.63999999705,
      "d": 520.2074999999895,
      "v": 90
    },
    {
      "midi": 53,
      "hit": false,
      "t": 229579.91999999704,
      "d": 119.76000000000931,
      "v": 72
    },
    {
      "midi": 56,
      "hit": false,
      "t": 229579.91999999704,
      "d": 119.76000000000931,
      "v": 94
    },
    {
      "midi": 61,
      "hit": false,
      "t": 229579.91999999704,
      "d": 123.50250000000233,
      "v": 90
    },
    {
      "midi": 39,
      "hit": false,
      "t": 229939.19999999704,
      "d": 160.9274999999907,
      "v": 76
    },
    {
      "midi": 58,
      "hit": false,
      "t": 230167.49249999702,
      "d": 29.94000000000233,
      "v": 68
    },
    {
      "midi": 54,
      "hit": false,
      "t": 230167.49249999702,
      "d": 56.13750000001164,
      "v": 90
    },
    {
      "midi": 63,
      "hit": false,
      "t": 230167.49249999702,
      "d": 59.88000000000466,
      "v": 86
    },
    {
      "midi": 39,
      "hit": false,
      "t": 230526.77249999702,
      "d": 112.27499999999418,
      "v": 94
    },
    {
      "midi": 58,
      "hit": false,
      "t": 230657.759999997,
      "d": 41.16750000001048,
      "v": 86
    },
    {
      "midi": 63,
      "hit": false,
      "t": 230657.759999997,
      "d": 48.65249999999651,
      "v": 68
    },
    {
      "midi": 54,
      "hit": false,
      "t": 230657.759999997,
      "d": 86.07749999998487,
      "v": 90
    },
    {
      "midi": 46,
      "hit": false,
      "t": 231017.039999997,
      "d": 520.2074999999895,
      "v": 90
    },
    {
      "midi": 53,
      "hit": false,
      "t": 231376.319999997,
      "d": 119.76000000000931,
      "v": 72
    },
    {
      "midi": 56,
      "hit": false,
      "t": 231376.319999997,
      "d": 119.76000000000931,
      "v": 94
    },
    {
      "midi": 61,
      "hit": false,
      "t": 231376.319999997,
      "d": 123.50250000000233,
      "v": 90
    },
    {
      "midi": 39,
      "hit": false,
      "t": 231735.599999997,
      "d": 160.9274999999907,
      "v": 76
    },
    {
      "midi": 58,
      "hit": false,
      "t": 231963.892499997,
      "d": 29.94000000000233,
      "v": 68
    },
    {
      "midi": 54,
      "hit": false,
      "t": 231963.892499997,
      "d": 56.13750000001164,
      "v": 90
    },
    {
      "midi": 63,
      "hit": false,
      "t": 231963.892499997,
      "d": 59.88000000000466,
      "v": 86
    },
    {
      "midi": 39,
      "hit": false,
      "t": 232323.172499997,
      "d": 112.27499999999418,
      "v": 94
    },
    {
      "midi": 58,
      "hit": false,
      "t": 232454.15999999698,
      "d": 41.16750000001048,
      "v": 86
    },
    {
      "midi": 63,
      "hit": false,
      "t": 232454.15999999698,
      "d": 48.65249999999651,
      "v": 68
    },
    {
      "midi": 54,
      "hit": false,
      "t": 232454.15999999698,
      "d": 86.07749999998487,
      "v": 90
    },
    {
      "midi": 46,
      "hit": false,
      "t": 232813.43999999698,
      "d": 520.2074999999895,
      "v": 90
    },
    {
      "midi": 53,
      "hit": false,
      "t": 233172.71999999697,
      "d": 119.76000000000931,
      "v": 72
    },
    {
      "midi": 56,
      "hit": false,
      "t": 233172.71999999697,
      "d": 119.76000000000931,
      "v": 94
    },
    {
      "midi": 61,
      "hit": false,
      "t": 233172.71999999697,
      "d": 123.50250000000233,
      "v": 90
    },
    {
      "midi": 39,
      "hit": false,
      "t": 233531.99999999697,
      "d": 160.9274999999907,
      "v": 76
    },
    {
      "midi": 58,
      "hit": false,
      "t": 233760.29249999695,
      "d": 29.94000000000233,
      "v": 68
    },
    {
      "midi": 54,
      "hit": false,
      "t": 233760.29249999695,
      "d": 56.13750000001164,
      "v": 90
    },
    {
      "midi": 63,
      "hit": false,
      "t": 233760.29249999695,
      "d": 59.88000000000466,
      "v": 86
    },
    {
      "midi": 39,
      "hit": false,
      "t": 234119.57249999695,
      "d": 112.27499999999418,
      "v": 94
    },
    {
      "midi": 58,
      "hit": false,
      "t": 234250.55999999694,
      "d": 41.16750000001048,
      "v": 86
    },
    {
      "midi": 63,
      "hit": false,
      "t": 234250.55999999694,
      "d": 48.65249999999651,
      "v": 68
    },
    {
      "midi": 54,
      "hit": false,
      "t": 234250.55999999694,
      "d": 86.07749999998487,
      "v": 90
    },
    {
      "midi": 46,
      "hit": false,
      "t": 234609.83999999694,
      "d": 520.2074999999895,
      "v": 90
    },
    {
      "midi": 53,
      "hit": false,
      "t": 234969.11999999694,
      "d": 119.76000000000931,
      "v": 72
    },
    {
      "midi": 56,
      "hit": false,
      "t": 234969.11999999694,
      "d": 119.76000000000931,
      "v": 94
    },
    {
      "midi": 61,
      "hit": false,
      "t": 234969.11999999694,
      "d": 123.50250000000233,
      "v": 90
    },
    {
      "midi": 39,
      "hit": false,
      "t": 235328.39999999694,
      "d": 160.9274999999907,
      "v": 76
    },
    {
      "midi": 58,
      "hit": false,
      "t": 235556.69249999692,
      "d": 29.94000000000233,
      "v": 68
    },
    {
      "midi": 54,
      "hit": false,
      "t": 235556.69249999692,
      "d": 56.13750000001164,
      "v": 90
    },
    {
      "midi": 63,
      "hit": false,
      "t": 235556.69249999692,
      "d": 59.88000000000466,
      "v": 86
    },
    {
      "midi": 39,
      "hit": false,
      "t": 235915.97249999692,
      "d": 112.27499999999418,
      "v": 94
    },
    {
      "midi": 58,
      "hit": false,
      "t": 236046.9599999969,
      "d": 41.16750000001048,
      "v": 86
    },
    {
      "midi": 63,
      "hit": false,
      "t": 236046.9599999969,
      "d": 48.65249999999651,
      "v": 68
    },
    {
      "midi": 54,
      "hit": false,
      "t": 236046.9599999969,
      "d": 86.07749999998487,
      "v": 90
    },
    {
      "midi": 46,
      "hit": false,
      "t": 236406.2399999969,
      "d": 520.2074999999895,
      "v": 90
    },
    {
      "midi": 53,
      "hit": false,
      "t": 236765.5199999969,
      "d": 119.76000000000931,
      "v": 72
    },
    {
      "midi": 56,
      "hit": false,
      "t": 236765.5199999969,
      "d": 119.76000000000931,
      "v": 94
    },
    {
      "midi": 61,
      "hit": false,
      "t": 236765.5199999969,
      "d": 123.50250000000233,
      "v": 90
    },
    {
      "midi": 39,
      "hit": false,
      "t": 237124.7999999969,
      "d": 160.9274999999907,
      "v": 76
    },
    {
      "midi": 58,
      "hit": false,
      "t": 237353.09249999688,
      "d": 29.94000000000233,
      "v": 68
    },
    {
      "midi": 54,
      "hit": false,
      "t": 237353.09249999688,
      "d": 56.13750000001164,
      "v": 90
    },
    {
      "midi": 63,
      "hit": false,
      "t": 237353.09249999688,
      "d": 59.88000000000466,
      "v": 86
    },
    {
      "midi": 39,
      "hit": false,
      "t": 237712.37249999688,
      "d": 112.27499999999418,
      "v": 94
    },
    {
      "midi": 58,
      "hit": false,
      "t": 237843.35999999687,
      "d": 41.16750000001048,
      "v": 86
    },
    {
      "midi": 63,
      "hit": false,
      "t": 237843.35999999687,
      "d": 48.65249999999651,
      "v": 68
    },
    {
      "midi": 54,
      "hit": false,
      "t": 237843.35999999687,
      "d": 86.07749999998487,
      "v": 90
    },
    {
      "midi": 46,
      "hit": false,
      "t": 238202.63999999687,
      "d": 520.2074999999895,
      "v": 90
    },
    {
      "midi": 53,
      "hit": false,
      "t": 238561.91999999687,
      "d": 119.76000000000931,
      "v": 72
    },
    {
      "midi": 56,
      "hit": false,
      "t": 238561.91999999687,
      "d": 119.76000000000931,
      "v": 94
    },
    {
      "midi": 61,
      "hit": false,
      "t": 238561.91999999687,
      "d": 123.50250000000233,
      "v": 90
    },
    {
      "midi": 39,
      "hit": false,
      "t": 238921.19999999687,
      "d": 160.9274999999907,
      "v": 76
    },
    {
      "midi": 58,
      "hit": false,
      "t": 239149.49249999685,
      "d": 29.94000000000233,
      "v": 68
    },
    {
      "midi": 54,
      "hit": false,
      "t": 239149.49249999685,
      "d": 56.13750000001164,
      "v": 90
    },
    {
      "midi": 63,
      "hit": false,
      "t": 239149.49249999685,
      "d": 59.88000000000466,
      "v": 86
    },
    {
      "midi": 39,
      "hit": false,
      "t": 239508.77249999685,
      "d": 112.27499999999418,
      "v": 94
    },
    {
      "midi": 58,
      "hit": false,
      "t": 239639.75999999684,
      "d": 41.16750000001048,
      "v": 86
    },
    {
      "midi": 63,
      "hit": false,
      "t": 239639.75999999684,
      "d": 48.65249999999651,
      "v": 68
    },
    {
      "midi": 54,
      "hit": false,
      "t": 239639.75999999684,
      "d": 86.07749999998487,
      "v": 90
    },
    {
      "midi": 46,
      "hit": false,
      "t": 239999.03999999684,
      "d": 520.2074999999895,
      "v": 90
    },
    {
      "midi": 53,
      "hit": false,
      "t": 240358.31999999683,
      "d": 119.76000000000931,
      "v": 72
    },
    {
      "midi": 56,
      "hit": false,
      "t": 240358.31999999683,
      "d": 119.76000000000931,
      "v": 94
    },
    {
      "midi": 61,
      "hit": false,
      "t": 240358.31999999683,
      "d": 123.50250000000233,
      "v": 90
    },
    {
      "midi": 39,
      "hit": false,
      "t": 240717.59999999683,
      "d": 160.9274999999907,
      "v": 76
    },
    {
      "midi": 58,
      "hit": false,
      "t": 240945.89249999681,
      "d": 29.94000000000233,
      "v": 68
    },
    {
      "midi": 54,
      "hit": false,
      "t": 240945.89249999681,
      "d": 56.13750000001164,
      "v": 90
    },
    {
      "midi": 63,
      "hit": false,
      "t": 240945.89249999681,
      "d": 59.88000000000466,
      "v": 86
    },
    {
      "midi": 39,
      "hit": false,
      "t": 241305.1724999968,
      "d": 112.27499999999418,
      "v": 94
    },
    {
      "midi": 58,
      "hit": false,
      "t": 241436.1599999968,
      "d": 41.16750000001048,
      "v": 86
    },
    {
      "midi": 63,
      "hit": false,
      "t": 241436.1599999968,
      "d": 48.65249999999651,
      "v": 68
    },
    {
      "midi": 54,
      "hit": false,
      "t": 241436.1599999968,
      "d": 86.07749999998487,
      "v": 90
    },
    {
      "midi": 46,
      "hit": false,
      "t": 241795.4399999968,
      "d": 520.2074999999895,
      "v": 90
    },
    {
      "midi": 53,
      "hit": false,
      "t": 242154.7199999968,
      "d": 119.76000000000931,
      "v": 72
    },
    {
      "midi": 56,
      "hit": false,
      "t": 242154.7199999968,
      "d": 119.76000000000931,
      "v": 94
    },
    {
      "midi": 61,
      "hit": false,
      "t": 242154.7199999968,
      "d": 123.50250000000233,
      "v": 90
    },
    {
      "midi": 39,
      "hit": false,
      "t": 242513.9999999968,
      "d": 160.9274999999907,
      "v": 76
    },
    {
      "midi": 58,
      "hit": false,
      "t": 242742.29249999678,
      "d": 29.94000000000233,
      "v": 68
    },
    {
      "midi": 54,
      "hit": false,
      "t": 242742.29249999678,
      "d": 56.13750000001164,
      "v": 90
    },
    {
      "midi": 63,
      "hit": false,
      "t": 242742.29249999678,
      "d": 59.88000000000466,
      "v": 86
    },
    {
      "midi": 39,
      "hit": false,
      "t": 243101.57249999678,
      "d": 112.27499999999418,
      "v": 94
    },
    {
      "midi": 58,
      "hit": false,
      "t": 243232.55999999677,
      "d": 41.16750000001048,
      "v": 86
    },
    {
      "midi": 63,
      "hit": false,
      "t": 243232.55999999677,
      "d": 48.65249999999651,
      "v": 68
    },
    {
      "midi": 54,
      "hit": false,
      "t": 243232.55999999677,
      "d": 86.07749999998487,
      "v": 90
    },
    {
      "midi": 46,
      "hit": false,
      "t": 243591.83999999677,
      "d": 520.2074999999895,
      "v": 90
    },
    {
      "midi": 53,
      "hit": false,
      "t": 243951.11999999676,
      "d": 119.76000000000931,
      "v": 72
    },
    {
      "midi": 56,
      "hit": false,
      "t": 243951.11999999676,
      "d": 119.76000000000931,
      "v": 94
    },
    {
      "midi": 61,
      "hit": false,
      "t": 243951.11999999676,
      "d": 123.50250000000233,
      "v": 90
    },
    {
      "midi": 39,
      "hit": false,
      "t": 244310.39999999676,
      "d": 160.9274999999907,
      "v": 76
    },
    {
      "midi": 58,
      "hit": false,
      "t": 244538.69249999675,
      "d": 29.94000000000233,
      "v": 68
    },
    {
      "midi": 54,
      "hit": false,
      "t": 244538.69249999675,
      "d": 56.13750000001164,
      "v": 90
    },
    {
      "midi": 63,
      "hit": false,
      "t": 244538.69249999675,
      "d": 59.88000000000466,
      "v": 86
    },
    {
      "midi": 39,
      "hit": false,
      "t": 244897.97249999674,
      "d": 112.27499999999418,
      "v": 94
    },
    {
      "midi": 58,
      "hit": false,
      "t": 245028.95999999673,
      "d": 41.16750000001048,
      "v": 86
    },
    {
      "midi": 63,
      "hit": false,
      "t": 245028.95999999673,
      "d": 48.65249999999651,
      "v": 68
    },
    {
      "midi": 54,
      "hit": false,
      "t": 245028.95999999673,
      "d": 86.07749999998487,
      "v": 90
    },
    {
      "midi": 46,
      "hit": false,
      "t": 245388.23999999673,
      "d": 520.2074999999895,
      "v": 90
    },
    {
      "midi": 53,
      "hit": false,
      "t": 245747.51999999673,
      "d": 119.76000000000931,
      "v": 72
    },
    {
      "midi": 56,
      "hit": false,
      "t": 245747.51999999673,
      "d": 119.76000000000931,
      "v": 94
    },
    {
      "midi": 61,
      "hit": false,
      "t": 245747.51999999673,
      "d": 123.50250000000233,
      "v": 90
    },
    {
      "midi": 39,
      "hit": false,
      "t": 246106.79999999673,
      "d": 160.9274999999907,
      "v": 76
    },
    {
      "midi": 58,
      "hit": false,
      "t": 246335.0924999967,
      "d": 29.94000000000233,
      "v": 68
    },
    {
      "midi": 54,
      "hit": false,
      "t": 246335.0924999967,
      "d": 56.13750000001164,
      "v": 90
    },
    {
      "midi": 63,
      "hit": false,
      "t": 246335.0924999967,
      "d": 59.88000000000466,
      "v": 86
    },
    {
      "midi": 39,
      "hit": false,
      "t": 246694.3724999967,
      "d": 112.27499999999418,
      "v": 94
    },
    {
      "midi": 58,
      "hit": false,
      "t": 246825.3599999967,
      "d": 41.16750000001048,
      "v": 86
    },
    {
      "midi": 63,
      "hit": false,
      "t": 246825.3599999967,
      "d": 48.65249999999651,
      "v": 68
    },
    {
      "midi": 54,
      "hit": false,
      "t": 246825.3599999967,
      "d": 86.07749999998487,
      "v": 90
    },
    {
      "midi": 46,
      "hit": false,
      "t": 247184.6399999967,
      "d": 520.2074999999895,
      "v": 90
    },
    {
      "midi": 53,
      "hit": false,
      "t": 247543.9199999967,
      "d": 119.76000000000931,
      "v": 72
    },
    {
      "midi": 56,
      "hit": false,
      "t": 247543.9199999967,
      "d": 119.76000000000931,
      "v": 94
    },
    {
      "midi": 61,
      "hit": false,
      "t": 247543.9199999967,
      "d": 123.50250000000233,
      "v": 90
    },
    {
      "midi": 39,
      "hit": false,
      "t": 247903.1999999967,
      "d": 160.9274999999907,
      "v": 76
    },
    {
      "midi": 58,
      "hit": false,
      "t": 248131.49249999668,
      "d": 29.94000000000233,
      "v": 68
    },
    {
      "midi": 54,
      "hit": false,
      "t": 248131.49249999668,
      "d": 56.13750000001164,
      "v": 90
    },
    {
      "midi": 63,
      "hit": false,
      "t": 248131.49249999668,
      "d": 59.88000000000466,
      "v": 86
    },
    {
      "midi": 39,
      "hit": false,
      "t": 248490.77249999667,
      "d": 112.27499999999418,
      "v": 94
    },
    {
      "midi": 58,
      "hit": false,
      "t": 248621.75999999666,
      "d": 41.16750000001048,
      "v": 86
    },
    {
      "midi": 63,
      "hit": false,
      "t": 248621.75999999666,
      "d": 48.65249999999651,
      "v": 68
    },
    {
      "midi": 54,
      "hit": false,
      "t": 248621.75999999666,
      "d": 86.07749999998487,
      "v": 90
    },
    {
      "midi": 46,
      "hit": false,
      "t": 248981.03999999666,
      "d": 520.2074999999895,
      "v": 90
    },
    {
      "midi": 53,
      "hit": false,
      "t": 249340.31999999666,
      "d": 119.76000000000931,
      "v": 72
    },
    {
      "midi": 56,
      "hit": false,
      "t": 249340.31999999666,
      "d": 119.76000000000931,
      "v": 94
    },
    {
      "midi": 61,
      "hit": false,
      "t": 249340.31999999666,
      "d": 123.50250000000233,
      "v": 90
    },
    {
      "midi": 39,
      "hit": false,
      "t": 249699.59999999666,
      "d": 160.9274999999907,
      "v": 76
    },
    {
      "midi": 58,
      "hit": false,
      "t": 249927.89249999664,
      "d": 29.94000000000233,
      "v": 68
    },
    {
      "midi": 54,
      "hit": false,
      "t": 249927.89249999664,
      "d": 56.13750000001164,
      "v": 90
    },
    {
      "midi": 63,
      "hit": false,
      "t": 249927.89249999664,
      "d": 59.88000000000466,
      "v": 86
    },
    {
      "midi": 39,
      "hit": false,
      "t": 250287.17249999664,
      "d": 112.27499999999418,
      "v": 94
    },
    {
      "midi": 58,
      "hit": false,
      "t": 250418.15999999663,
      "d": 41.16750000001048,
      "v": 86
    },
    {
      "midi": 63,
      "hit": false,
      "t": 250418.15999999663,
      "d": 48.65249999999651,
      "v": 68
    },
    {
      "midi": 54,
      "hit": false,
      "t": 250418.15999999663,
      "d": 86.07749999998487,
      "v": 90
    },
    {
      "midi": 46,
      "hit": false,
      "t": 250777.43999999663,
      "d": 520.2074999999895,
      "v": 90
    },
    {
      "midi": 53,
      "hit": false,
      "t": 251136.71999999663,
      "d": 119.76000000000931,
      "v": 72
    },
    {
      "midi": 56,
      "hit": false,
      "t": 251136.71999999663,
      "d": 119.76000000000931,
      "v": 94
    },
    {
      "midi": 61,
      "hit": false,
      "t": 251136.71999999663,
      "d": 123.50250000000233,
      "v": 90
    },
    {
      "midi": 39,
      "hit": false,
      "t": 251495.99999999662,
      "d": 160.9274999999907,
      "v": 76
    },
    {
      "midi": 58,
      "hit": false,
      "t": 251724.2924999966,
      "d": 29.94000000000233,
      "v": 68
    },
    {
      "midi": 54,
      "hit": false,
      "t": 251724.2924999966,
      "d": 56.13750000001164,
      "v": 90
    },
    {
      "midi": 63,
      "hit": false,
      "t": 251724.2924999966,
      "d": 59.88000000000466,
      "v": 86
    },
    {
      "midi": 39,
      "hit": false,
      "t": 252083.5724999966,
      "d": 112.27499999999418,
      "v": 94
    },
    {
      "midi": 58,
      "hit": false,
      "t": 252214.5599999966,
      "d": 41.16750000001048,
      "v": 86
    },
    {
      "midi": 63,
      "hit": false,
      "t": 252214.5599999966,
      "d": 48.65249999999651,
      "v": 68
    },
    {
      "midi": 54,
      "hit": false,
      "t": 252214.5599999966,
      "d": 86.07749999998487,
      "v": 90
    },
    {
      "midi": 46,
      "hit": false,
      "t": 252573.8399999966,
      "d": 520.2074999999895,
      "v": 90
    },
    {
      "midi": 53,
      "hit": false,
      "t": 252933.1199999966,
      "d": 119.76000000000931,
      "v": 72
    },
    {
      "midi": 56,
      "hit": false,
      "t": 252933.1199999966,
      "d": 119.76000000000931,
      "v": 94
    },
    {
      "midi": 61,
      "hit": false,
      "t": 252933.1199999966,
      "d": 123.50250000000233,
      "v": 90
    },
    {
      "midi": 39,
      "hit": false,
      "t": 253292.3999999966,
      "d": 160.9274999999907,
      "v": 76
    },
    {
      "midi": 58,
      "hit": false,
      "t": 253520.69249999657,
      "d": 29.94000000000233,
      "v": 68
    },
    {
      "midi": 54,
      "hit": false,
      "t": 253520.69249999657,
      "d": 56.13750000001164,
      "v": 90
    },
    {
      "midi": 63,
      "hit": false,
      "t": 253520.69249999657,
      "d": 59.88000000000466,
      "v": 86
    },
    {
      "midi": 39,
      "hit": false,
      "t": 253879.97249999657,
      "d": 112.27499999999418,
      "v": 94
    },
    {
      "midi": 58,
      "hit": false,
      "t": 254010.95999999656,
      "d": 41.16750000001048,
      "v": 86
    },
    {
      "midi": 63,
      "hit": false,
      "t": 254010.95999999656,
      "d": 48.65249999999651,
      "v": 68
    },
    {
      "midi": 54,
      "hit": false,
      "t": 254010.95999999656,
      "d": 86.07749999998487,
      "v": 90
    },
    {
      "midi": 46,
      "hit": false,
      "t": 254370.23999999656,
      "d": 520.2074999999895,
      "v": 90
    },
    {
      "midi": 53,
      "hit": false,
      "t": 254729.51999999656,
      "d": 119.76000000000931,
      "v": 72
    },
    {
      "midi": 56,
      "hit": false,
      "t": 254729.51999999656,
      "d": 119.76000000000931,
      "v": 94
    },
    {
      "midi": 61,
      "hit": false,
      "t": 254729.51999999656,
      "d": 123.50250000000233,
      "v": 90
    },
    {
      "midi": 39,
      "hit": false,
      "t": 255088.79999999655,
      "d": 160.9274999999907,
      "v": 76
    },
    {
      "midi": 58,
      "hit": false,
      "t": 255317.09249999654,
      "d": 29.94000000000233,
      "v": 68
    },
    {
      "midi": 54,
      "hit": false,
      "t": 255317.09249999654,
      "d": 56.13750000001164,
      "v": 90
    },
    {
      "midi": 63,
      "hit": false,
      "t": 255317.09249999654,
      "d": 59.88000000000466,
      "v": 86
    },
    {
      "midi": 39,
      "hit": false,
      "t": 255676.37249999653,
      "d": 112.27499999999418,
      "v": 94
    },
    {
      "midi": 58,
      "hit": false,
      "t": 255807.35999999652,
      "d": 41.16750000001048,
      "v": 86
    },
    {
      "midi": 63,
      "hit": false,
      "t": 255807.35999999652,
      "d": 48.65249999999651,
      "v": 68
    },
    {
      "midi": 54,
      "hit": false,
      "t": 255807.35999999652,
      "d": 86.07749999998487,
      "v": 90
    },
    {
      "midi": 46,
      "hit": false,
      "t": 256166.63999999652,
      "d": 520.2074999999895,
      "v": 90
    },
    {
      "midi": 53,
      "hit": false,
      "t": 256525.91999999652,
      "d": 119.76000000000931,
      "v": 72
    },
    {
      "midi": 56,
      "hit": false,
      "t": 256525.91999999652,
      "d": 119.76000000000931,
      "v": 94
    },
    {
      "midi": 61,
      "hit": false,
      "t": 256525.91999999652,
      "d": 123.50250000000233,
      "v": 90
    },
    {
      "midi": 39,
      "hit": false,
      "t": 256885.19999999652,
      "d": 160.9274999999907,
      "v": 76
    },
    {
      "midi": 58,
      "hit": false,
      "t": 257113.4924999965,
      "d": 29.94000000000233,
      "v": 68
    },
    {
      "midi": 54,
      "hit": false,
      "t": 257113.4924999965,
      "d": 56.13750000001164,
      "v": 90
    },
    {
      "midi": 63,
      "hit": false,
      "t": 257113.4924999965,
      "d": 59.88000000000466,
      "v": 86
    },
    {
      "midi": 39,
      "hit": false,
      "t": 257472.7724999965,
      "d": 112.27499999999418,
      "v": 94
    },
    {
      "midi": 58,
      "hit": false,
      "t": 257603.7599999965,
      "d": 41.16750000001048,
      "v": 86
    },
    {
      "midi": 63,
      "hit": false,
      "t": 257603.7599999965,
      "d": 48.65249999999651,
      "v": 68
    },
    {
      "midi": 54,
      "hit": false,
      "t": 257603.7599999965,
      "d": 86.07749999998487,
      "v": 90
    },
    {
      "midi": 46,
      "hit": false,
      "t": 257963.0399999965,
      "d": 520.2074999999895,
      "v": 90
    },
    {
      "midi": 53,
      "hit": false,
      "t": 258322.31999999649,
      "d": 119.76000000000931,
      "v": 72
    },
    {
      "midi": 56,
      "hit": false,
      "t": 258322.31999999649,
      "d": 119.76000000000931,
      "v": 94
    },
    {
      "midi": 61,
      "hit": false,
      "t": 258322.31999999649,
      "d": 123.50250000000233,
      "v": 90
    },
    {
      "midi": 39,
      "hit": false,
      "t": 258681.59999999648,
      "d": 160.9274999999907,
      "v": 76
    },
    {
      "midi": 58,
      "hit": false,
      "t": 258909.89249999647,
      "d": 29.94000000000233,
      "v": 68
    },
    {
      "midi": 54,
      "hit": false,
      "t": 258909.89249999647,
      "d": 56.13750000001164,
      "v": 90
    },
    {
      "midi": 63,
      "hit": false,
      "t": 258909.89249999647,
      "d": 59.88000000000466,
      "v": 86
    },
    {
      "midi": 39,
      "hit": false,
      "t": 259269.17249999646,
      "d": 112.27499999999418,
      "v": 94
    },
    {
      "midi": 58,
      "hit": false,
      "t": 259400.15999999645,
      "d": 41.16750000001048,
      "v": 86
    },
    {
      "midi": 63,
      "hit": false,
      "t": 259400.15999999645,
      "d": 48.65249999999651,
      "v": 68
    },
    {
      "midi": 54,
      "hit": false,
      "t": 259400.15999999645,
      "d": 86.07749999998487,
      "v": 90
    },
    {
      "midi": 46,
      "hit": false,
      "t": 259759.43999999645,
      "d": 520.2074999999895,
      "v": 90
    },
    {
      "midi": 53,
      "hit": false,
      "t": 260118.71999999645,
      "d": 119.76000000000931,
      "v": 72
    },
    {
      "midi": 56,
      "hit": false,
      "t": 260118.71999999645,
      "d": 119.76000000000931,
      "v": 94
    },
    {
      "midi": 61,
      "hit": false,
      "t": 260118.71999999645,
      "d": 123.50250000000233,
      "v": 90
    },
    {
      "midi": 39,
      "hit": false,
      "t": 260477.99999999645,
      "d": 160.9274999999907,
      "v": 76
    },
    {
      "midi": 58,
      "hit": false,
      "t": 260706.29249999643,
      "d": 29.94000000000233,
      "v": 68
    },
    {
      "midi": 54,
      "hit": false,
      "t": 260706.29249999643,
      "d": 56.13750000001164,
      "v": 90
    },
    {
      "midi": 63,
      "hit": false,
      "t": 260706.29249999643,
      "d": 59.88000000000466,
      "v": 86
    },
    {
      "midi": 39,
      "hit": false,
      "t": 261065.57249999643,
      "d": 112.27499999999418,
      "v": 94
    },
    {
      "midi": 58,
      "hit": false,
      "t": 261196.55999999642,
      "d": 41.16750000001048,
      "v": 86
    },
    {
      "midi": 63,
      "hit": false,
      "t": 261196.55999999642,
      "d": 48.65249999999651,
      "v": 68
    },
    {
      "midi": 54,
      "hit": false,
      "t": 261196.55999999642,
      "d": 86.07749999998487,
      "v": 90
    },
    {
      "midi": 46,
      "hit": false,
      "t": 261555.83999999642,
      "d": 520.2074999999895,
      "v": 90
    },
    {
      "midi": 53,
      "hit": false,
      "t": 261915.11999999642,
      "d": 119.76000000000931,
      "v": 72
    },
    {
      "midi": 56,
      "hit": false,
      "t": 261915.11999999642,
      "d": 119.76000000000931,
      "v": 94
    },
    {
      "midi": 61,
      "hit": false,
      "t": 261915.11999999642,
      "d": 123.50250000000233,
      "v": 90
    },
    {
      "midi": 39,
      "hit": false,
      "t": 262274.3999999964,
      "d": 160.9274999999907,
      "v": 76
    },
    {
      "midi": 58,
      "hit": false,
      "t": 262502.6924999964,
      "d": 29.94000000000233,
      "v": 68
    },
    {
      "midi": 54,
      "hit": false,
      "t": 262502.6924999964,
      "d": 56.13750000001164,
      "v": 90
    },
    {
      "midi": 63,
      "hit": false,
      "t": 262502.6924999964,
      "d": 59.88000000000466,
      "v": 86
    },
    {
      "midi": 39,
      "hit": false,
      "t": 262861.9724999964,
      "d": 112.27500000002328,
      "v": 94
    },
    {
      "midi": 58,
      "hit": false,
      "t": 262992.95999999647,
      "d": 41.16749999998137,
      "v": 86
    },
    {
      "midi": 63,
      "hit": false,
      "t": 262992.95999999647,
      "d": 48.652499999967404,
      "v": 68
    },
    {
      "midi": 54,
      "hit": false,
      "t": 262992.95999999647,
      "d": 86.07749999995576,
      "v": 90
    },
    {
      "midi": 46,
      "hit": false,
      "t": 263352.23999999644,
      "d": 520.2075000000186,
      "v": 90
    },
    {
      "midi": 53,
      "hit": false,
      "t": 263711.51999999647,
      "d": 119.76000000000931,
      "v": 72
    },
    {
      "midi": 56,
      "hit": false,
      "t": 263711.51999999647,
      "d": 119.76000000000931,
      "v": 94
    },
    {
      "midi": 61,
      "hit": false,
      "t": 263711.51999999647,
      "d": 123.50250000000233,
      "v": 90
    },
    {
      "midi": 39,
      "hit": false,
      "t": 264070.79999999644,
      "d": 160.9274999999907,
      "v": 54
    },
    {
      "midi": 58,
      "hit": false,
      "t": 264299.0924999964,
      "d": 29.94000000000233,
      "v": 48
    },
    {
      "midi": 54,
      "hit": false,
      "t": 264299.0924999964,
      "d": 56.13750000001164,
      "v": 64
    },
    {
      "midi": 63,
      "hit": false,
      "t": 264299.0924999964,
      "d": 59.88000000000466,
      "v": 60
    },
    {
      "midi": 39,
      "hit": false,
      "t": 264658.37249999645,
      "d": 112.27500000002328,
      "v": 66
    },
    {
      "midi": 58,
      "hit": false,
      "t": 264789.3599999965,
      "d": 41.16749999998137,
      "v": 60
    },
    {
      "midi": 63,
      "hit": false,
      "t": 264789.3599999965,
      "d": 48.652499999967404,
      "v": 48
    },
    {
      "midi": 54,
      "hit": false,
      "t": 264789.3599999965,
      "d": 86.07749999995576,
      "v": 64
    },
    {
      "midi": 46,
      "hit": false,
      "t": 265148.63999999646,
      "d": 520.2075000000186,
      "v": 64
    },
    {
      "midi": 53,
      "hit": false,
      "t": 265507.9199999965,
      "d": 119.76000000000931,
      "v": 50
    },
    {
      "midi": 56,
      "hit": false,
      "t": 265507.9199999965,
      "d": 119.76000000000931,
      "v": 66
    },
    {
      "midi": 61,
      "hit": false,
      "t": 265507.9199999965,
      "d": 123.50250000000233,
      "v": 64
    },
    {
      "midi": 39,
      "hit": false,
      "t": 265867.19999999646,
      "d": 160.9274999999907,
      "v": 54
    },
    {
      "midi": 58,
      "hit": false,
      "t": 266095.49249999644,
      "d": 29.94000000000233,
      "v": 48
    },
    {
      "midi": 54,
      "hit": false,
      "t": 266095.49249999644,
      "d": 56.13750000001164,
      "v": 64
    },
    {
      "midi": 63,
      "hit": false,
      "t": 266095.49249999644,
      "d": 59.88000000000466,
      "v": 60
    },
    {
      "midi": 39,
      "hit": false,
      "t": 266454.77249999647,
      "d": 112.27500000002328,
      "v": 66
    },
    {
      "midi": 58,
      "hit": false,
      "t": 266585.7599999965,
      "d": 41.16749999998137,
      "v": 60
    },
    {
      "midi": 63,
      "hit": false,
      "t": 266585.7599999965,
      "d": 48.652499999967404,
      "v": 48
    },
    {
      "midi": 54,
      "hit": false,
      "t": 266585.7599999965,
      "d": 86.07749999995576,
      "v": 64
    },
    {
      "midi": 46,
      "hit": false,
      "t": 266945.0399999965,
      "d": 520.2075000000186,
      "v": 64
    },
    {
      "midi": 53,
      "hit": false,
      "t": 267304.3199999965,
      "d": 119.76000000000931,
      "v": 50
    },
    {
      "midi": 56,
      "hit": false,
      "t": 267304.3199999965,
      "d": 119.76000000000931,
      "v": 66
    },
    {
      "midi": 61,
      "hit": false,
      "t": 267304.3199999965,
      "d": 123.50250000000233,
      "v": 64
    },
    {
      "midi": 39,
      "hit": false,
      "t": 267663.5999999965,
      "d": 160.9274999999907,
      "v": 54
    },
    {
      "midi": 58,
      "hit": false,
      "t": 267891.89249999647,
      "d": 29.94000000000233,
      "v": 48
    },
    {
      "midi": 54,
      "hit": false,
      "t": 267891.89249999647,
      "d": 56.13750000001164,
      "v": 64
    },
    {
      "midi": 63,
      "hit": false,
      "t": 267891.89249999647,
      "d": 59.88000000000466,
      "v": 60
    },
    {
      "midi": 39,
      "hit": false,
      "t": 268251.1724999965,
      "d": 112.27500000002328,
      "v": 66
    },
    {
      "midi": 58,
      "hit": false,
      "t": 268382.15999999654,
      "d": 41.16749999998137,
      "v": 60
    },
    {
      "midi": 63,
      "hit": false,
      "t": 268382.15999999654,
      "d": 48.652499999967404,
      "v": 48
    },
    {
      "midi": 54,
      "hit": false,
      "t": 268382.15999999654,
      "d": 86.07749999995576,
      "v": 64
    },
    {
      "midi": 46,
      "hit": false,
      "t": 268741.4399999965,
      "d": 520.2075000000186,
      "v": 64
    },
    {
      "midi": 53,
      "hit": false,
      "t": 269100.71999999654,
      "d": 119.76000000000931,
      "v": 50
    },
    {
      "midi": 56,
      "hit": false,
      "t": 269100.71999999654,
      "d": 119.76000000000931,
      "v": 66
    },
    {
      "midi": 61,
      "hit": false,
      "t": 269100.71999999654,
      "d": 123.50250000000233,
      "v": 64
    },
    {
      "midi": 39,
      "hit": false,
      "t": 269459.9999999965,
      "d": 160.9274999999907,
      "v": 54
    },
    {
      "midi": 58,
      "hit": false,
      "t": 269688.2924999965,
      "d": 29.94000000000233,
      "v": 48
    },
    {
      "midi": 54,
      "hit": false,
      "t": 269688.2924999965,
      "d": 56.13750000001164,
      "v": 64
    },
    {
      "midi": 63,
      "hit": false,
      "t": 269688.2924999965,
      "d": 59.88000000000466,
      "v": 60
    },
    {
      "midi": 39,
      "hit": false,
      "t": 270047.5724999965,
      "d": 112.27500000002328,
      "v": 66
    },
    {
      "midi": 58,
      "hit": false,
      "t": 270178.55999999656,
      "d": 41.16749999998137,
      "v": 60
    },
    {
      "midi": 63,
      "hit": false,
      "t": 270178.55999999656,
      "d": 48.652499999967404,
      "v": 48
    },
    {
      "midi": 54,
      "hit": false,
      "t": 270178.55999999656,
      "d": 86.07749999995576,
      "v": 64
    },
    {
      "midi": 46,
      "hit": false,
      "t": 270537.83999999653,
      "d": 520.2075000000186,
      "v": 64
    },
    {
      "midi": 53,
      "hit": false,
      "t": 270897.11999999656,
      "d": 119.76000000000931,
      "v": 50
    },
    {
      "midi": 56,
      "hit": false,
      "t": 270897.11999999656,
      "d": 119.76000000000931,
      "v": 66
    },
    {
      "midi": 61,
      "hit": false,
      "t": 270897.11999999656,
      "d": 123.50250000000233,
      "v": 64
    },
    {
      "midi": 39,
      "hit": false,
      "t": 271256.39999999653,
      "d": 160.9274999999907,
      "v": 76
    },
    {
      "midi": 58,
      "hit": false,
      "t": 271484.6924999965,
      "d": 29.94000000000233,
      "v": 68
    },
    {
      "midi": 54,
      "hit": false,
      "t": 271484.6924999965,
      "d": 56.13750000001164,
      "v": 90
    },
    {
      "midi": 63,
      "hit": false,
      "t": 271484.6924999965,
      "d": 59.88000000000466,
      "v": 86
    },
    {
      "midi": 39,
      "hit": false,
      "t": 271843.97249999654,
      "d": 112.27500000002328,
      "v": 94
    },
    {
      "midi": 58,
      "hit": false,
      "t": 271974.9599999966,
      "d": 41.16749999998137,
      "v": 86
    },
    {
      "midi": 63,
      "hit": false,
      "t": 271974.9599999966,
      "d": 48.652499999967404,
      "v": 68
    },
    {
      "midi": 54,
      "hit": false,
      "t": 271974.9599999966,
      "d": 86.07749999995576,
      "v": 90
    },
    {
      "midi": 46,
      "hit": false,
      "t": 272334.23999999656,
      "d": 520.2075000000186,
      "v": 90
    },
    {
      "midi": 53,
      "hit": false,
      "t": 272693.5199999966,
      "d": 119.76000000000931,
      "v": 72
    },
    {
      "midi": 56,
      "hit": false,
      "t": 272693.5199999966,
      "d": 119.76000000000931,
      "v": 94
    },
    {
      "midi": 61,
      "hit": false,
      "t": 272693.5199999966,
      "d": 123.50250000000233,
      "v": 90
    },
    {
      "midi": 39,
      "hit": false,
      "t": 273052.79999999655,
      "d": 160.9274999999907,
      "v": 76
    },
    {
      "midi": 58,
      "hit": false,
      "t": 273281.09249999654,
      "d": 29.94000000000233,
      "v": 68
    },
    {
      "midi": 54,
      "hit": false,
      "t": 273281.09249999654,
      "d": 56.13750000001164,
      "v": 90
    },
    {
      "midi": 63,
      "hit": false,
      "t": 273281.09249999654,
      "d": 59.88000000000466,
      "v": 86
    },
    {
      "midi": 39,
      "hit": false,
      "t": 273640.37249999656,
      "d": 112.27500000002328,
      "v": 94
    },
    {
      "midi": 58,
      "hit": false,
      "t": 273771.3599999966,
      "d": 41.16749999998137,
      "v": 86
    },
    {
      "midi": 63,
      "hit": false,
      "t": 273771.3599999966,
      "d": 48.652499999967404,
      "v": 68
    },
    {
      "midi": 54,
      "hit": false,
      "t": 273771.3599999966,
      "d": 86.07749999995576,
      "v": 90
    },
    {
      "midi": 46,
      "hit": false,
      "t": 274130.6399999966,
      "d": 520.2075000000186,
      "v": 90
    },
    {
      "midi": 53,
      "hit": false,
      "t": 274489.9199999966,
      "d": 119.76000000000931,
      "v": 72
    },
    {
      "midi": 56,
      "hit": false,
      "t": 274489.9199999966,
      "d": 119.76000000000931,
      "v": 94
    },
    {
      "midi": 61,
      "hit": false,
      "t": 274489.9199999966,
      "d": 123.50250000000233,
      "v": 90
    },
    {
      "midi": 39,
      "hit": false,
      "t": 274849.1999999966,
      "d": 160.9274999999907,
      "v": 76
    },
    {
      "midi": 58,
      "hit": false,
      "t": 275077.49249999656,
      "d": 29.94000000000233,
      "v": 68
    },
    {
      "midi": 54,
      "hit": false,
      "t": 275077.49249999656,
      "d": 56.13750000001164,
      "v": 90
    },
    {
      "midi": 63,
      "hit": false,
      "t": 275077.49249999656,
      "d": 59.88000000000466,
      "v": 86
    },
    {
      "midi": 39,
      "hit": false,
      "t": 275436.7724999966,
      "d": 112.27500000002328,
      "v": 94
    },
    {
      "midi": 58,
      "hit": false,
      "t": 275567.75999999663,
      "d": 41.16749999998137,
      "v": 86
    },
    {
      "midi": 63,
      "hit": false,
      "t": 275567.75999999663,
      "d": 48.652499999967404,
      "v": 68
    },
    {
      "midi": 54,
      "hit": false,
      "t": 275567.75999999663,
      "d": 86.07749999995576,
      "v": 90
    },
    {
      "midi": 46,
      "hit": false,
      "t": 275927.0399999966,
      "d": 520.2075000000186,
      "v": 90
    },
    {
      "midi": 53,
      "hit": false,
      "t": 276286.31999999663,
      "d": 119.76000000000931,
      "v": 72
    },
    {
      "midi": 56,
      "hit": false,
      "t": 276286.31999999663,
      "d": 119.76000000000931,
      "v": 94
    },
    {
      "midi": 61,
      "hit": false,
      "t": 276286.31999999663,
      "d": 123.50250000000233,
      "v": 90
    },
    {
      "midi": 39,
      "hit": false,
      "t": 276645.5999999966,
      "d": 160.9274999999907,
      "v": 76
    },
    {
      "midi": 58,
      "hit": false,
      "t": 276873.8924999966,
      "d": 29.94000000000233,
      "v": 68
    },
    {
      "midi": 54,
      "hit": false,
      "t": 276873.8924999966,
      "d": 56.13750000001164,
      "v": 90
    },
    {
      "midi": 63,
      "hit": false,
      "t": 276873.8924999966,
      "d": 59.88000000000466,
      "v": 86
    },
    {
      "midi": 39,
      "hit": false,
      "t": 277233.1724999966,
      "d": 112.27500000002328,
      "v": 94
    },
    {
      "midi": 58,
      "hit": false,
      "t": 277364.15999999666,
      "d": 41.16749999998137,
      "v": 86
    },
    {
      "midi": 63,
      "hit": false,
      "t": 277364.15999999666,
      "d": 48.652499999967404,
      "v": 68
    },
    {
      "midi": 54,
      "hit": false,
      "t": 277364.15999999666,
      "d": 86.07749999995576,
      "v": 90
    },
    {
      "midi": 46,
      "hit": false,
      "t": 277723.4399999966,
      "d": 520.2075000000186,
      "v": 90
    },
    {
      "midi": 53,
      "hit": false,
      "t": 278082.71999999665,
      "d": 119.76000000000931,
      "v": 72
    },
    {
      "midi": 56,
      "hit": false,
      "t": 278082.71999999665,
      "d": 119.76000000000931,
      "v": 94
    },
    {
      "midi": 61,
      "hit": false,
      "t": 278082.71999999665,
      "d": 123.50250000000233,
      "v": 90
    },
    {
      "midi": 39,
      "hit": false,
      "t": 278441.9999999966,
      "d": 160.9274999999907,
      "v": 76
    },
    {
      "midi": 58,
      "hit": false,
      "t": 278670.2924999966,
      "d": 29.94000000000233,
      "v": 68
    },
    {
      "midi": 54,
      "hit": false,
      "t": 278670.2924999966,
      "d": 56.13750000001164,
      "v": 90
    },
    {
      "midi": 63,
      "hit": false,
      "t": 278670.2924999966,
      "d": 59.88000000000466,
      "v": 86
    },
    {
      "midi": 39,
      "hit": false,
      "t": 279029.57249999663,
      "d": 112.27500000002328,
      "v": 94
    },
    {
      "midi": 58,
      "hit": false,
      "t": 279160.5599999967,
      "d": 41.16749999998137,
      "v": 86
    },
    {
      "midi": 63,
      "hit": false,
      "t": 279160.5599999967,
      "d": 48.652499999967404,
      "v": 68
    },
    {
      "midi": 54,
      "hit": false,
      "t": 279160.5599999967,
      "d": 86.07749999995576,
      "v": 90
    },
    {
      "midi": 46,
      "hit": false,
      "t": 279519.83999999665,
      "d": 520.2075000000186,
      "v": 90
    },
    {
      "midi": 53,
      "hit": false,
      "t": 279879.1199999967,
      "d": 119.76000000000931,
      "v": 72
    },
    {
      "midi": 56,
      "hit": false,
      "t": 279879.1199999967,
      "d": 119.76000000000931,
      "v": 94
    },
    {
      "midi": 61,
      "hit": false,
      "t": 279879.1199999967,
      "d": 123.50250000000233,
      "v": 90
    },
    {
      "midi": 39,
      "hit": false,
      "t": 280238.39999999665,
      "d": 160.9274999999907,
      "v": 76
    },
    {
      "midi": 58,
      "hit": false,
      "t": 280466.6924999966,
      "d": 29.94000000000233,
      "v": 68
    },
    {
      "midi": 54,
      "hit": false,
      "t": 280466.6924999966,
      "d": 56.13750000001164,
      "v": 90
    },
    {
      "midi": 63,
      "hit": false,
      "t": 280466.6924999966,
      "d": 59.88000000000466,
      "v": 86
    },
    {
      "midi": 39,
      "hit": false,
      "t": 280825.97249999666,
      "d": 112.27500000002328,
      "v": 94
    },
    {
      "midi": 58,
      "hit": false,
      "t": 280956.9599999967,
      "d": 41.16749999998137,
      "v": 86
    },
    {
      "midi": 63,
      "hit": false,
      "t": 280956.9599999967,
      "d": 48.652499999967404,
      "v": 68
    },
    {
      "midi": 54,
      "hit": false,
      "t": 280956.9599999967,
      "d": 86.07749999995576,
      "v": 90
    },
    {
      "midi": 46,
      "hit": false,
      "t": 281316.2399999967,
      "d": 520.2075000000186,
      "v": 90
    },
    {
      "midi": 53,
      "hit": false,
      "t": 281675.5199999967,
      "d": 119.76000000000931,
      "v": 72
    },
    {
      "midi": 56,
      "hit": false,
      "t": 281675.5199999967,
      "d": 119.76000000000931,
      "v": 94
    },
    {
      "midi": 61,
      "hit": false,
      "t": 281675.5199999967,
      "d": 123.50250000000233,
      "v": 90
    },
    {
      "midi": 39,
      "hit": false,
      "t": 282034.79999999667,
      "d": 160.9274999999907,
      "v": 76
    },
    {
      "midi": 58,
      "hit": false,
      "t": 282263.09249999665,
      "d": 29.94000000000233,
      "v": 68
    },
    {
      "midi": 54,
      "hit": false,
      "t": 282263.09249999665,
      "d": 56.13750000001164,
      "v": 90
    },
    {
      "midi": 63,
      "hit": false,
      "t": 282263.09249999665,
      "d": 59.88000000000466,
      "v": 86
    },
    {
      "midi": 39,
      "hit": false,
      "t": 282622.3724999967,
      "d": 112.27500000002328,
      "v": 94
    },
    {
      "midi": 58,
      "hit": false,
      "t": 282753.3599999967,
      "d": 41.16749999998137,
      "v": 86
    },
    {
      "midi": 63,
      "hit": false,
      "t": 282753.3599999967,
      "d": 48.652499999967404,
      "v": 68
    },
    {
      "midi": 54,
      "hit": false,
      "t": 282753.3599999967,
      "d": 86.07749999995576,
      "v": 90
    },
    {
      "midi": 46,
      "hit": false,
      "t": 283112.6399999967,
      "d": 520.2075000000186,
      "v": 90
    },
    {
      "midi": 53,
      "hit": false,
      "t": 283471.9199999967,
      "d": 119.76000000000931,
      "v": 72
    },
    {
      "midi": 56,
      "hit": false,
      "t": 283471.9199999967,
      "d": 119.76000000000931,
      "v": 94
    },
    {
      "midi": 61,
      "hit": false,
      "t": 283471.9199999967,
      "d": 123.50250000000233,
      "v": 90
    },
    {
      "midi": 39,
      "hit": false,
      "t": 283831.1999999967,
      "d": 160.9274999999907,
      "v": 76
    },
    {
      "midi": 58,
      "hit": false,
      "t": 284059.4924999967,
      "d": 29.94000000000233,
      "v": 68
    },
    {
      "midi": 54,
      "hit": false,
      "t": 284059.4924999967,
      "d": 56.13750000001164,
      "v": 90
    },
    {
      "midi": 63,
      "hit": false,
      "t": 284059.4924999967,
      "d": 59.88000000000466,
      "v": 86
    },
    {
      "midi": 39,
      "hit": false,
      "t": 284418.7724999967,
      "d": 112.27500000002328,
      "v": 94
    },
    {
      "midi": 58,
      "hit": false,
      "t": 284549.75999999675,
      "d": 41.16749999998137,
      "v": 86
    },
    {
      "midi": 63,
      "hit": false,
      "t": 284549.75999999675,
      "d": 48.652499999967404,
      "v": 68
    },
    {
      "midi": 54,
      "hit": false,
      "t": 284549.75999999675,
      "d": 86.07749999995576,
      "v": 90
    },
    {
      "midi": 46,
      "hit": false,
      "t": 284909.0399999967,
      "d": 520.2075000000186,
      "v": 90
    },
    {
      "midi": 53,
      "hit": false,
      "t": 285268.31999999675,
      "d": 119.76000000000931,
      "v": 72
    },
    {
      "midi": 56,
      "hit": false,
      "t": 285268.31999999675,
      "d": 119.76000000000931,
      "v": 94
    },
    {
      "midi": 61,
      "hit": false,
      "t": 285268.31999999675,
      "d": 123.50250000000233,
      "v": 90
    },
    {
      "midi": 47,
      "hit": false,
      "t": 285627.5999999967,
      "d": 553.8899999999558,
      "v": 68
    },
    {
      "midi": 59,
      "hit": false,
      "t": 285855.8924999967,
      "d": 56.13750000001164,
      "v": 68
    },
    {
      "midi": 61,
      "hit": false,
      "t": 285855.8924999967,
      "d": 59.88000000000466,
      "v": 68
    },
    {
      "midi": 63,
      "hit": false,
      "t": 285855.8924999967,
      "d": 63.62249999999767,
      "v": 68
    },
    {
      "midi": 54,
      "hit": false,
      "t": 285855.8924999967,
      "d": 93.5625,
      "v": 84
    },
    {
      "midi": 51,
      "hit": false,
      "t": 286215.17249999667,
      "d": 490.2675000000163,
      "v": 75
    },
    {
      "midi": 53,
      "hit": false,
      "t": 286705.4399999967,
      "d": 465.9412500000908,
      "v": 84
    },
    {
      "midi": 59,
      "hit": false,
      "t": 287064.7199999967,
      "d": 86.07750000001397,
      "v": 68
    },
    {
      "midi": 63,
      "hit": false,
      "t": 287064.7199999967,
      "d": 104.79000000003725,
      "v": 57
    },
    {
      "midi": 46,
      "hit": false,
      "t": 287423.9999999968,
      "d": 688.6199999999371,
      "v": 84
    },
    {
      "midi": 58,
      "hit": false,
      "t": 287652.2924999968,
      "d": 67.36499999999069,
      "v": 66
    },
    {
      "midi": 61,
      "hit": false,
      "t": 287652.2924999968,
      "d": 93.5625,
      "v": 79
    },
    {
      "midi": 53,
      "hit": false,
      "t": 287652.2924999968,
      "d": 101.04749999998603,
      "v": 62
    },
    {
      "midi": 49,
      "hit": false,
      "t": 288011.57249999675,
      "d": 494.0099999999511,
      "v": 88
    },
    {
      "midi": 51,
      "hit": false,
      "t": 288501.8399999967,
      "d": 467.8124999999418,
      "v": 84
    },
    {
      "midi": 58,
      "hit": false,
      "t": 288861.1199999967,
      "d": 127.24499999999534,
      "v": 60
    },
    {
      "midi": 63,
      "hit": false,
      "t": 288861.1199999967,
      "d": 130.98749999998836,
      "v": 64
    },
    {
      "midi": 54,
      "hit": false,
      "t": 288861.1199999967,
      "d": 149.70000000001164,
      "v": 55
    },
    {
      "midi": 44,
      "hit": false,
      "t": 289220.3999999967,
      "d": 542.6625000000349,
      "v": 79
    },
    {
      "midi": 59,
      "hit": false,
      "t": 289448.6924999967,
      "d": 52.39500000001863,
      "v": 79
    },
    {
      "midi": 63,
      "hit": false,
      "t": 289448.6924999967,
      "d": 71.10750000004191,
      "v": 84
    },
    {
      "midi": 54,
      "hit": false,
      "t": 289448.6924999967,
      "d": 74.85000000003492,
      "v": 66
    },
    {
      "midi": 47,
      "hit": false,
      "t": 289807.9724999967,
      "d": 479.03999999997905,
      "v": 68
    },
    {
      "midi": 49,
      "hit": false,
      "t": 290298.2399999967,
      "d": 561.3750000000582,
      "v": 95
    },
    {
      "midi": 59,
      "hit": false,
      "t": 290657.5199999967,
      "d": 67.36499999999069,
      "v": 70
    },
    {
      "midi": 61,
      "hit": false,
      "t": 290657.5199999967,
      "d": 71.1074999999837,
      "v": 63
    },
    {
      "midi": 56,
      "hit": false,
      "t": 290657.5199999967,
      "d": 89.82000000000698,
      "v": 66
    },
    {
      "midi": 42,
      "hit": false,
      "t": 291016.7999999967,
      "d": 479.03999999997905,
      "v": 95
    },
    {
      "midi": 58,
      "hit": false,
      "t": 291245.0924999967,
      "d": 52.39500000001863,
      "v": 53
    },
    {
      "midi": 61,
      "hit": false,
      "t": 291245.0924999967,
      "d": 67.36499999999069,
      "v": 66
    },
    {
      "midi": 66,
      "hit": false,
      "t": 291245.0924999967,
      "d": 86.07750000001397,
      "v": 68
    },
    {
      "midi": 42,
      "hit": false,
      "t": 291604.3724999967,
      "d": 512.7225000000326,
      "v": 88
    },
    {
      "midi": 46,
      "hit": false,
      "t": 292094.6399999967,
      "d": 598.7999999999884,
      "v": 84
    },
    {
      "midi": 58,
      "hit": false,
      "t": 292453.9199999967,
      "d": 63.62249999999767,
      "v": 62
    },
    {
      "midi": 61,
      "hit": false,
      "t": 292453.9199999967,
      "d": 78.59249999996973,
      "v": 64
    },
    {
      "midi": 66,
      "hit": false,
      "t": 292453.9199999967,
      "d": 82.33499999996275,
      "v": 59
    },
    {
      "midi": 47,
      "hit": false,
      "t": 292813.1999999967,
      "d": 553.8899999999558,
      "v": 68
    },
    {
      "midi": 59,
      "hit": false,
      "t": 293041.4924999967,
      "d": 56.13750000001164,
      "v": 68
    },
    {
      "midi": 61,
      "hit": false,
      "t": 293041.4924999967,
      "d": 59.88000000000466,
      "v": 68
    },
    {
      "midi": 63,
      "hit": false,
      "t": 293041.4924999967,
      "d": 63.62249999999767,
      "v": 68
    },
    {
      "midi": 54,
      "hit": false,
      "t": 293041.4924999967,
      "d": 93.5625,
      "v": 84
    },
    {
      "midi": 51,
      "hit": false,
      "t": 293400.77249999664,
      "d": 490.2675000000163,
      "v": 75
    },
    {
      "midi": 53,
      "hit": false,
      "t": 293891.03999999666,
      "d": 465.9412500000908,
      "v": 84
    },
    {
      "midi": 59,
      "hit": false,
      "t": 294250.3199999967,
      "d": 86.07750000001397,
      "v": 68
    },
    {
      "midi": 63,
      "hit": false,
      "t": 294250.3199999967,
      "d": 104.79000000003725,
      "v": 57
    },
    {
      "midi": 46,
      "hit": false,
      "t": 294609.5999999968,
      "d": 688.6199999999371,
      "v": 84
    },
    {
      "midi": 58,
      "hit": false,
      "t": 294837.89249999676,
      "d": 67.36499999999069,
      "v": 66
    },
    {
      "midi": 61,
      "hit": false,
      "t": 294837.89249999676,
      "d": 93.5625,
      "v": 79
    },
    {
      "midi": 53,
      "hit": false,
      "t": 294837.89249999676,
      "d": 101.04749999998603,
      "v": 62
    },
    {
      "midi": 49,
      "hit": false,
      "t": 295197.1724999967,
      "d": 494.0099999999511,
      "v": 88
    },
    {
      "midi": 51,
      "hit": false,
      "t": 295687.4399999967,
      "d": 467.8124999999418,
      "v": 84
    },
    {
      "midi": 58,
      "hit": false,
      "t": 296046.71999999665,
      "d": 127.24499999999534,
      "v": 60
    },
    {
      "midi": 63,
      "hit": false,
      "t": 296046.71999999665,
      "d": 130.98749999998836,
      "v": 64
    },
    {
      "midi": 54,
      "hit": false,
      "t": 296046.71999999665,
      "d": 149.70000000001164,
      "v": 55
    },
    {
      "midi": 44,
      "hit": false,
      "t": 296405.9999999967,
      "d": 542.6625000000349,
      "v": 79
    },
    {
      "midi": 59,
      "hit": false,
      "t": 296634.29249999666,
      "d": 52.39500000001863,
      "v": 79
    },
    {
      "midi": 63,
      "hit": false,
      "t": 296634.29249999666,
      "d": 71.10750000004191,
      "v": 84
    },
    {
      "midi": 54,
      "hit": false,
      "t": 296634.29249999666,
      "d": 74.85000000003492,
      "v": 66
    },
    {
      "midi": 47,
      "hit": false,
      "t": 296993.5724999967,
      "d": 479.03999999997905,
      "v": 68
    },
    {
      "midi": 49,
      "hit": false,
      "t": 297483.83999999665,
      "d": 561.3750000000582,
      "v": 95
    },
    {
      "midi": 59,
      "hit": false,
      "t": 297843.1199999967,
      "d": 67.36499999999069,
      "v": 70
    },
    {
      "midi": 61,
      "hit": false,
      "t": 297843.1199999967,
      "d": 71.1074999999837,
      "v": 63
    },
    {
      "midi": 56,
      "hit": false,
      "t": 297843.1199999967,
      "d": 89.82000000000698,
      "v": 66
    },
    {
      "midi": 41,
      "hit": false,
      "t": 298202.3999999967,
      "d": 389.21999999997206,
      "v": 68
    },
    {
      "midi": 60,
      "hit": false,
      "t": 298430.6924999967,
      "d": 44.90999999997439,
      "v": 57
    },
    {
      "midi": 56,
      "hit": false,
      "t": 298430.6924999967,
      "d": 63.62249999999767,
      "v": 39
    },
    {
      "midi": 63,
      "hit": false,
      "t": 298430.6924999967,
      "d": 67.36499999999069,
      "v": 66
    },
    {
      "midi": 41,
      "hit": false,
      "t": 298789.97249999666,
      "d": 542.6624999999767,
      "v": 84
    },
    {
      "midi": 60,
      "hit": false,
      "t": 298920.95999999664,
      "d": 71.1074999999837,
      "v": 66
    },
    {
      "midi": 63,
      "hit": false,
      "t": 298920.95999999664,
      "d": 78.59249999996973,
      "v": 66
    },
    {
      "midi": 46,
      "hit": false,
      "t": 299280.2399999966,
      "d": 523.9500000000116,
      "v": 68
    },
    {
      "midi": 39,
      "hit": false,
      "t": 299998.7999999966,
      "d": 160.9274999999907,
      "v": 76
    },
    {
      "midi": 58,
      "hit": false,
      "t": 300227.0924999966,
      "d": 29.94000000000233,
      "v": 68
    },
    {
      "midi": 54,
      "hit": false,
      "t": 300227.0924999966,
      "d": 56.13750000001164,
      "v": 90
    },
    {
      "midi": 63,
      "hit": false,
      "t": 300227.0924999966,
      "d": 59.88000000000466,
      "v": 86
    },
    {
      "midi": 39,
      "hit": false,
      "t": 300586.3724999966,
      "d": 112.27500000002328,
      "v": 94
    },
    {
      "midi": 58,
      "hit": false,
      "t": 300717.35999999667,
      "d": 41.16749999998137,
      "v": 86
    },
    {
      "midi": 63,
      "hit": false,
      "t": 300717.35999999667,
      "d": 48.652499999967404,
      "v": 68
    },
    {
      "midi": 54,
      "hit": false,
      "t": 300717.35999999667,
      "d": 86.07749999995576,
      "v": 90
    },
    {
      "midi": 46,
      "hit": false,
      "t": 301076.63999999664,
      "d": 520.2075000000186,
      "v": 90
    },
    {
      "midi": 53,
      "hit": false,
      "t": 301435.91999999667,
      "d": 119.76000000000931,
      "v": 72
    },
    {
      "midi": 56,
      "hit": false,
      "t": 301435.91999999667,
      "d": 119.76000000000931,
      "v": 94
    },
    {
      "midi": 61,
      "hit": false,
      "t": 301435.91999999667,
      "d": 123.50250000000233,
      "v": 90
    },
    {
      "midi": 39,
      "hit": false,
      "t": 301795.19999999664,
      "d": 160.9274999999907,
      "v": 76
    },
    {
      "midi": 58,
      "hit": false,
      "t": 302023.4924999966,
      "d": 29.94000000000233,
      "v": 68
    },
    {
      "midi": 54,
      "hit": false,
      "t": 302023.4924999966,
      "d": 56.13750000001164,
      "v": 90
    },
    {
      "midi": 63,
      "hit": false,
      "t": 302023.4924999966,
      "d": 59.88000000000466,
      "v": 86
    },
    {
      "midi": 39,
      "hit": false,
      "t": 302382.77249999664,
      "d": 112.27500000002328,
      "v": 94
    },
    {
      "midi": 58,
      "hit": false,
      "t": 302513.7599999967,
      "d": 41.16749999998137,
      "v": 86
    },
    {
      "midi": 63,
      "hit": false,
      "t": 302513.7599999967,
      "d": 48.652499999967404,
      "v": 68
    },
    {
      "midi": 54,
      "hit": false,
      "t": 302513.7599999967,
      "d": 86.07749999995576,
      "v": 90
    },
    {
      "midi": 46,
      "hit": false,
      "t": 302873.03999999666,
      "d": 520.2075000000186,
      "v": 90
    },
    {
      "midi": 53,
      "hit": false,
      "t": 303232.3199999967,
      "d": 119.76000000000931,
      "v": 72
    },
    {
      "midi": 56,
      "hit": false,
      "t": 303232.3199999967,
      "d": 119.76000000000931,
      "v": 94
    },
    {
      "midi": 61,
      "hit": false,
      "t": 303232.3199999967,
      "d": 123.50250000000233,
      "v": 90
    },
    {
      "midi": 39,
      "hit": false,
      "t": 303591.59999999666,
      "d": 160.9274999999907,
      "v": 76
    },
    {
      "midi": 58,
      "hit": false,
      "t": 303819.89249999664,
      "d": 29.94000000000233,
      "v": 68
    },
    {
      "midi": 54,
      "hit": false,
      "t": 303819.89249999664,
      "d": 56.13750000001164,
      "v": 90
    },
    {
      "midi": 63,
      "hit": false,
      "t": 303819.89249999664,
      "d": 59.88000000000466,
      "v": 86
    },
    {
      "midi": 39,
      "hit": false,
      "t": 304179.17249999667,
      "d": 112.27500000002328,
      "v": 94
    },
    {
      "midi": 58,
      "hit": false,
      "t": 304310.1599999967,
      "d": 41.16749999998137,
      "v": 86
    },
    {
      "midi": 63,
      "hit": false,
      "t": 304310.1599999967,
      "d": 48.652499999967404,
      "v": 68
    },
    {
      "midi": 54,
      "hit": false,
      "t": 304310.1599999967,
      "d": 86.07749999995576,
      "v": 90
    },
    {
      "midi": 46,
      "hit": false,
      "t": 304669.4399999967,
      "d": 520.2075000000186,
      "v": 90
    },
    {
      "midi": 53,
      "hit": false,
      "t": 305028.7199999967,
      "d": 119.76000000000931,
      "v": 72
    },
    {
      "midi": 56,
      "hit": false,
      "t": 305028.7199999967,
      "d": 119.76000000000931,
      "v": 94
    },
    {
      "midi": 61,
      "hit": false,
      "t": 305028.7199999967,
      "d": 123.50250000000233,
      "v": 90
    },
    {
      "midi": 39,
      "hit": false,
      "t": 305387.9999999967,
      "d": 160.9274999999907,
      "v": 76
    },
    {
      "midi": 58,
      "hit": false,
      "t": 305616.29249999666,
      "d": 29.94000000000233,
      "v": 68
    },
    {
      "midi": 54,
      "hit": false,
      "t": 305616.29249999666,
      "d": 56.13750000001164,
      "v": 90
    },
    {
      "midi": 63,
      "hit": false,
      "t": 305616.29249999666,
      "d": 59.88000000000466,
      "v": 86
    },
    {
      "midi": 39,
      "hit": false,
      "t": 305975.5724999967,
      "d": 112.27500000002328,
      "v": 94
    },
    {
      "midi": 58,
      "hit": false,
      "t": 306106.55999999674,
      "d": 41.16749999998137,
      "v": 86
    },
    {
      "midi": 63,
      "hit": false,
      "t": 306106.55999999674,
      "d": 48.652499999967404,
      "v": 68
    },
    {
      "midi": 54,
      "hit": false,
      "t": 306106.55999999674,
      "d": 86.07749999995576,
      "v": 90
    },
    {
      "midi": 46,
      "hit": false,
      "t": 306465.8399999967,
      "d": 520.2075000000186,
      "v": 90
    },
    {
      "midi": 53,
      "hit": false,
      "t": 306825.11999999674,
      "d": 119.76000000000931,
      "v": 72
    },
    {
      "midi": 56,
      "hit": false,
      "t": 306825.11999999674,
      "d": 119.76000000000931,
      "v": 94
    },
    {
      "midi": 61,
      "hit": false,
      "t": 306825.11999999674,
      "d": 123.50250000000233,
      "v": 90
    },
    {
      "midi": 39,
      "hit": false,
      "t": 307184.3999999967,
      "d": 160.9274999999907,
      "v": 76
    },
    {
      "midi": 58,
      "hit": false,
      "t": 307412.6924999967,
      "d": 29.94000000000233,
      "v": 68
    },
    {
      "midi": 54,
      "hit": false,
      "t": 307412.6924999967,
      "d": 56.13750000001164,
      "v": 90
    },
    {
      "midi": 63,
      "hit": false,
      "t": 307412.6924999967,
      "d": 59.88000000000466,
      "v": 86
    },
    {
      "midi": 39,
      "hit": false,
      "t": 307771.9724999967,
      "d": 112.27500000002328,
      "v": 94
    },
    {
      "midi": 58,
      "hit": false,
      "t": 307902.95999999676,
      "d": 41.16749999998137,
      "v": 86
    },
    {
      "midi": 63,
      "hit": false,
      "t": 307902.95999999676,
      "d": 48.652499999967404,
      "v": 68
    },
    {
      "midi": 54,
      "hit": false,
      "t": 307902.95999999676,
      "d": 86.07749999995576,
      "v": 90
    },
    {
      "midi": 46,
      "hit": false,
      "t": 308262.23999999673,
      "d": 520.2075000000186,
      "v": 90
    },
    {
      "midi": 53,
      "hit": false,
      "t": 308621.51999999676,
      "d": 119.76000000000931,
      "v": 72
    },
    {
      "midi": 56,
      "hit": false,
      "t": 308621.51999999676,
      "d": 119.76000000000931,
      "v": 94
    },
    {
      "midi": 61,
      "hit": false,
      "t": 308621.51999999676,
      "d": 123.50250000000233,
      "v": 90
    },
    {
      "midi": 39,
      "hit": false,
      "t": 308980.7999999967,
      "d": 160.9274999999907,
      "v": 76
    },
    {
      "midi": 58,
      "hit": false,
      "t": 309209.0924999967,
      "d": 29.94000000000233,
      "v": 68
    },
    {
      "midi": 54,
      "hit": false,
      "t": 309209.0924999967,
      "d": 56.13750000001164,
      "v": 90
    },
    {
      "midi": 63,
      "hit": false,
      "t": 309209.0924999967,
      "d": 59.88000000000466,
      "v": 86
    },
    {
      "midi": 39,
      "hit": false,
      "t": 309568.37249999674,
      "d": 112.27500000002328,
      "v": 94
    },
    {
      "midi": 58,
      "hit": false,
      "t": 309699.3599999968,
      "d": 41.16749999998137,
      "v": 86
    },
    {
      "midi": 63,
      "hit": false,
      "t": 309699.3599999968,
      "d": 48.652499999967404,
      "v": 68
    },
    {
      "midi": 54,
      "hit": false,
      "t": 309699.3599999968,
      "d": 86.07749999995576,
      "v": 90
    },
    {
      "midi": 46,
      "hit": false,
      "t": 310058.63999999675,
      "d": 520.2075000000186,
      "v": 90
    },
    {
      "midi": 53,
      "hit": false,
      "t": 310417.9199999968,
      "d": 119.76000000000931,
      "v": 72
    },
    {
      "midi": 56,
      "hit": false,
      "t": 310417.9199999968,
      "d": 119.76000000000931,
      "v": 94
    },
    {
      "midi": 61,
      "hit": false,
      "t": 310417.9199999968,
      "d": 123.50250000000233,
      "v": 90
    },
    {
      "midi": 39,
      "hit": false,
      "t": 310777.19999999675,
      "d": 160.9274999999907,
      "v": 76
    },
    {
      "midi": 58,
      "hit": false,
      "t": 311005.49249999673,
      "d": 29.94000000000233,
      "v": 68
    },
    {
      "midi": 54,
      "hit": false,
      "t": 311005.49249999673,
      "d": 56.13750000001164,
      "v": 90
    },
    {
      "midi": 63,
      "hit": false,
      "t": 311005.49249999673,
      "d": 59.88000000000466,
      "v": 86
    },
    {
      "midi": 39,
      "hit": false,
      "t": 311364.77249999676,
      "d": 112.27500000002328,
      "v": 94
    },
    {
      "midi": 58,
      "hit": false,
      "t": 311495.7599999968,
      "d": 41.16749999998137,
      "v": 86
    },
    {
      "midi": 63,
      "hit": false,
      "t": 311495.7599999968,
      "d": 48.652499999967404,
      "v": 68
    },
    {
      "midi": 54,
      "hit": false,
      "t": 311495.7599999968,
      "d": 86.07749999995576,
      "v": 90
    },
    {
      "midi": 46,
      "hit": false,
      "t": 311855.0399999968,
      "d": 520.2075000000186,
      "v": 90
    },
    {
      "midi": 53,
      "hit": false,
      "t": 312214.3199999968,
      "d": 119.76000000000931,
      "v": 72
    },
    {
      "midi": 56,
      "hit": false,
      "t": 312214.3199999968,
      "d": 119.76000000000931,
      "v": 94
    },
    {
      "midi": 61,
      "hit": false,
      "t": 312214.3199999968,
      "d": 123.50250000000233,
      "v": 90
    },
    {
      "midi": 39,
      "hit": false,
      "t": 312573.5999999968,
      "d": 160.9274999999907,
      "v": 76
    },
    {
      "midi": 58,
      "hit": false,
      "t": 312801.89249999676,
      "d": 29.94000000000233,
      "v": 68
    },
    {
      "midi": 54,
      "hit": false,
      "t": 312801.89249999676,
      "d": 56.13750000001164,
      "v": 90
    },
    {
      "midi": 63,
      "hit": false,
      "t": 312801.89249999676,
      "d": 59.88000000000466,
      "v": 86
    },
    {
      "midi": 39,
      "hit": false,
      "t": 313161.1724999968,
      "d": 112.27500000002328,
      "v": 94
    },
    {
      "midi": 58,
      "hit": false,
      "t": 313292.15999999683,
      "d": 41.16749999998137,
      "v": 86
    },
    {
      "midi": 63,
      "hit": false,
      "t": 313292.15999999683,
      "d": 48.652499999967404,
      "v": 68
    },
    {
      "midi": 54,
      "hit": false,
      "t": 313292.15999999683,
      "d": 86.07749999995576,
      "v": 90
    },
    {
      "midi": 46,
      "hit": false,
      "t": 313651.4399999968,
      "d": 520.2075000000186,
      "v": 90
    },
    {
      "midi": 53,
      "hit": false,
      "t": 314010.7199999968,
      "d": 119.76000000000931,
      "v": 72
    },
    {
      "midi": 56,
      "hit": false,
      "t": 314010.7199999968,
      "d": 119.76000000000931,
      "v": 94
    },
    {
      "midi": 61,
      "hit": false,
      "t": 314010.7199999968,
      "d": 123.50250000000233,
      "v": 90
    },
    {
      "midi": 39,
      "hit": false,
      "t": 314369.9999999968,
      "d": 160.9274999999907,
      "v": 76
    },
    {
      "midi": 58,
      "hit": false,
      "t": 314598.2924999968,
      "d": 29.94000000000233,
      "v": 68
    },
    {
      "midi": 54,
      "hit": false,
      "t": 314598.2924999968,
      "d": 56.13750000001164,
      "v": 90
    },
    {
      "midi": 63,
      "hit": false,
      "t": 314598.2924999968,
      "d": 59.88000000000466,
      "v": 86
    },
    {
      "midi": 39,
      "hit": false,
      "t": 314957.5724999968,
      "d": 112.27500000002328,
      "v": 94
    },
    {
      "midi": 58,
      "hit": false,
      "t": 315088.55999999685,
      "d": 41.16749999998137,
      "v": 86
    },
    {
      "midi": 63,
      "hit": false,
      "t": 315088.55999999685,
      "d": 48.652499999967404,
      "v": 68
    },
    {
      "midi": 54,
      "hit": false,
      "t": 315088.55999999685,
      "d": 86.07749999995576,
      "v": 90
    },
    {
      "midi": 46,
      "hit": false,
      "t": 315447.8399999968,
      "d": 520.2075000000186,
      "v": 90
    },
    {
      "midi": 53,
      "hit": false,
      "t": 315807.11999999685,
      "d": 119.76000000000931,
      "v": 72
    },
    {
      "midi": 56,
      "hit": false,
      "t": 315807.11999999685,
      "d": 119.76000000000931,
      "v": 94
    },
    {
      "midi": 61,
      "hit": false,
      "t": 315807.11999999685,
      "d": 123.50250000000233,
      "v": 90
    },
    {
      "midi": 39,
      "hit": false,
      "t": 316166.3999999968,
      "d": 160.9274999999907,
      "v": 76
    },
    {
      "midi": 58,
      "hit": false,
      "t": 316394.6924999968,
      "d": 29.94000000000233,
      "v": 68
    },
    {
      "midi": 54,
      "hit": false,
      "t": 316394.6924999968,
      "d": 56.13750000001164,
      "v": 90
    },
    {
      "midi": 63,
      "hit": false,
      "t": 316394.6924999968,
      "d": 59.88000000000466,
      "v": 86
    },
    {
      "midi": 39,
      "hit": false,
      "t": 316753.97249999683,
      "d": 112.27500000002328,
      "v": 94
    },
    {
      "midi": 58,
      "hit": false,
      "t": 316884.9599999969,
      "d": 41.16749999998137,
      "v": 86
    },
    {
      "midi": 63,
      "hit": false,
      "t": 316884.9599999969,
      "d": 48.652499999967404,
      "v": 68
    },
    {
      "midi": 54,
      "hit": false,
      "t": 316884.9599999969,
      "d": 86.07749999995576,
      "v": 90
    },
    {
      "midi": 46,
      "hit": false,
      "t": 317244.23999999685,
      "d": 520.2075000000186,
      "v": 90
    },
    {
      "midi": 53,
      "hit": false,
      "t": 317603.5199999969,
      "d": 119.76000000000931,
      "v": 72
    },
    {
      "midi": 56,
      "hit": false,
      "t": 317603.5199999969,
      "d": 119.76000000000931,
      "v": 94
    },
    {
      "midi": 61,
      "hit": false,
      "t": 317603.5199999969,
      "d": 123.50250000000233,
      "v": 90
    },
    {
      "midi": 39,
      "hit": false,
      "t": 317962.79999999685,
      "d": 160.9274999999907,
      "v": 76
    },
    {
      "midi": 58,
      "hit": false,
      "t": 318191.0924999968,
      "d": 29.94000000000233,
      "v": 68
    },
    {
      "midi": 54,
      "hit": false,
      "t": 318191.0924999968,
      "d": 56.13750000001164,
      "v": 90
    },
    {
      "midi": 63,
      "hit": false,
      "t": 318191.0924999968,
      "d": 59.88000000000466,
      "v": 86
    },
    {
      "midi": 39,
      "hit": false,
      "t": 318550.37249999685,
      "d": 112.27500000002328,
      "v": 94
    },
    {
      "midi": 58,
      "hit": false,
      "t": 318681.3599999969,
      "d": 41.16749999998137,
      "v": 86
    },
    {
      "midi": 63,
      "hit": false,
      "t": 318681.3599999969,
      "d": 48.652499999967404,
      "v": 68
    },
    {
      "midi": 54,
      "hit": false,
      "t": 318681.3599999969,
      "d": 86.07749999995576,
      "v": 90
    },
    {
      "midi": 46,
      "hit": false,
      "t": 319040.63999999687,
      "d": 520.2075000000186,
      "v": 90
    },
    {
      "midi": 53,
      "hit": false,
      "t": 319399.9199999969,
      "d": 119.76000000000931,
      "v": 72
    },
    {
      "midi": 56,
      "hit": false,
      "t": 319399.9199999969,
      "d": 119.76000000000931,
      "v": 94
    },
    {
      "midi": 61,
      "hit": false,
      "t": 319399.9199999969,
      "d": 123.50250000000233,
      "v": 90
    },
    {
      "midi": 39,
      "hit": false,
      "t": 319759.19999999687,
      "d": 160.9274999999907,
      "v": 76
    },
    {
      "midi": 58,
      "hit": false,
      "t": 319987.49249999685,
      "d": 29.94000000000233,
      "v": 68
    },
    {
      "midi": 54,
      "hit": false,
      "t": 319987.49249999685,
      "d": 56.13750000001164,
      "v": 90
    },
    {
      "midi": 63,
      "hit": false,
      "t": 319987.49249999685,
      "d": 59.88000000000466,
      "v": 86
    },
    {
      "midi": 39,
      "hit": false,
      "t": 320346.7724999969,
      "d": 112.27500000002328,
      "v": 94
    },
    {
      "midi": 58,
      "hit": false,
      "t": 320477.7599999969,
      "d": 41.16749999998137,
      "v": 86
    },
    {
      "midi": 63,
      "hit": false,
      "t": 320477.7599999969,
      "d": 48.652499999967404,
      "v": 68
    },
    {
      "midi": 54,
      "hit": false,
      "t": 320477.7599999969,
      "d": 86.07749999995576,
      "v": 90
    },
    {
      "midi": 46,
      "hit": false,
      "t": 320837.0399999969,
      "d": 520.2075000000186,
      "v": 90
    },
    {
      "midi": 53,
      "hit": false,
      "t": 321196.3199999969,
      "d": 119.76000000000931,
      "v": 72
    },
    {
      "midi": 56,
      "hit": false,
      "t": 321196.3199999969,
      "d": 119.76000000000931,
      "v": 94
    },
    {
      "midi": 61,
      "hit": false,
      "t": 321196.3199999969,
      "d": 123.50250000000233,
      "v": 90
    },
    {
      "midi": 39,
      "hit": false,
      "t": 321555.5999999969,
      "d": 160.9274999999907,
      "v": 76
    },
    {
      "midi": 58,
      "hit": false,
      "t": 321783.8924999969,
      "d": 29.94000000000233,
      "v": 68
    },
    {
      "midi": 54,
      "hit": false,
      "t": 321783.8924999969,
      "d": 56.13750000001164,
      "v": 90
    },
    {
      "midi": 63,
      "hit": false,
      "t": 321783.8924999969,
      "d": 59.88000000000466,
      "v": 86
    },
    {
      "midi": 39,
      "hit": false,
      "t": 322143.1724999969,
      "d": 112.27500000002328,
      "v": 94
    },
    {
      "midi": 58,
      "hit": false,
      "t": 322274.15999999695,
      "d": 41.16749999998137,
      "v": 86
    },
    {
      "midi": 63,
      "hit": false,
      "t": 322274.15999999695,
      "d": 48.652499999967404,
      "v": 68
    },
    {
      "midi": 54,
      "hit": false,
      "t": 322274.15999999695,
      "d": 86.07749999995576,
      "v": 90
    },
    {
      "midi": 46,
      "hit": false,
      "t": 322633.4399999969,
      "d": 520.2075000000186,
      "v": 90
    },
    {
      "midi": 53,
      "hit": false,
      "t": 322992.71999999695,
      "d": 119.76000000000931,
      "v": 72
    },
    {
      "midi": 56,
      "hit": false,
      "t": 322992.71999999695,
      "d": 119.76000000000931,
      "v": 94
    },
    {
      "midi": 61,
      "hit": false,
      "t": 322992.71999999695,
      "d": 123.50250000000233,
      "v": 90
    },
    {
      "midi": 39,
      "hit": false,
      "t": 323351.9999999969,
      "d": 160.9274999999907,
      "v": 76
    },
    {
      "midi": 58,
      "hit": false,
      "t": 323580.2924999969,
      "d": 29.94000000000233,
      "v": 68
    },
    {
      "midi": 54,
      "hit": false,
      "t": 323580.2924999969,
      "d": 56.13750000001164,
      "v": 90
    },
    {
      "midi": 63,
      "hit": false,
      "t": 323580.2924999969,
      "d": 59.88000000000466,
      "v": 86
    },
    {
      "midi": 39,
      "hit": false,
      "t": 323939.5724999969,
      "d": 112.27500000002328,
      "v": 94
    },
    {
      "midi": 58,
      "hit": false,
      "t": 324070.55999999697,
      "d": 41.16749999998137,
      "v": 86
    },
    {
      "midi": 63,
      "hit": false,
      "t": 324070.55999999697,
      "d": 48.652499999967404,
      "v": 68
    },
    {
      "midi": 54,
      "hit": false,
      "t": 324070.55999999697,
      "d": 86.07749999995576,
      "v": 90
    },
    {
      "midi": 46,
      "hit": false,
      "t": 324429.83999999694,
      "d": 520.2075000000186,
      "v": 90
    },
    {
      "midi": 53,
      "hit": false,
      "t": 324789.11999999697,
      "d": 119.76000000000931,
      "v": 72
    },
    {
      "midi": 56,
      "hit": false,
      "t": 324789.11999999697,
      "d": 119.76000000000931,
      "v": 94
    },
    {
      "midi": 61,
      "hit": false,
      "t": 324789.11999999697,
      "d": 123.50250000000233,
      "v": 90
    },
    {
      "midi": 39,
      "hit": false,
      "t": 325148.39999999694,
      "d": 160.9274999999907,
      "v": 76
    },
    {
      "midi": 58,
      "hit": false,
      "t": 325376.6924999969,
      "d": 29.94000000000233,
      "v": 68
    },
    {
      "midi": 54,
      "hit": false,
      "t": 325376.6924999969,
      "d": 56.13750000001164,
      "v": 90
    },
    {
      "midi": 63,
      "hit": false,
      "t": 325376.6924999969,
      "d": 59.88000000000466,
      "v": 86
    },
    {
      "midi": 39,
      "hit": false,
      "t": 325735.97249999695,
      "d": 112.27500000002328,
      "v": 94
    },
    {
      "midi": 58,
      "hit": false,
      "t": 325866.959999997,
      "d": 41.16749999998137,
      "v": 86
    },
    {
      "midi": 63,
      "hit": false,
      "t": 325866.959999997,
      "d": 48.652499999967404,
      "v": 68
    },
    {
      "midi": 54,
      "hit": false,
      "t": 325866.959999997,
      "d": 86.07749999995576,
      "v": 90
    },
    {
      "midi": 46,
      "hit": false,
      "t": 326226.23999999696,
      "d": 520.2075000000186,
      "v": 90
    },
    {
      "midi": 53,
      "hit": false,
      "t": 326585.519999997,
      "d": 119.76000000000931,
      "v": 72
    },
    {
      "midi": 56,
      "hit": false,
      "t": 326585.519999997,
      "d": 119.76000000000931,
      "v": 94
    },
    {
      "midi": 61,
      "hit": false,
      "t": 326585.519999997,
      "d": 123.50250000000233,
      "v": 90
    },
    {
      "midi": 39,
      "hit": false,
      "t": 326944.79999999696,
      "d": 160.9274999999907,
      "v": 76
    },
    {
      "midi": 58,
      "hit": false,
      "t": 327173.09249999694,
      "d": 29.94000000000233,
      "v": 68
    },
    {
      "midi": 54,
      "hit": false,
      "t": 327173.09249999694,
      "d": 56.13750000001164,
      "v": 90
    },
    {
      "midi": 63,
      "hit": false,
      "t": 327173.09249999694,
      "d": 59.88000000000466,
      "v": 86
    },
    {
      "midi": 39,
      "hit": false,
      "t": 327532.37249999697,
      "d": 112.27500000002328,
      "v": 94
    },
    {
      "midi": 58,
      "hit": false,
      "t": 327663.359999997,
      "d": 41.16749999998137,
      "v": 86
    },
    {
      "midi": 63,
      "hit": false,
      "t": 327663.359999997,
      "d": 48.652499999967404,
      "v": 68
    },
    {
      "midi": 54,
      "hit": false,
      "t": 327663.359999997,
      "d": 86.07749999995576,
      "v": 90
    },
    {
      "midi": 46,
      "hit": false,
      "t": 328022.639999997,
      "d": 520.2075000000186,
      "v": 90
    },
    {
      "midi": 53,
      "hit": false,
      "t": 328381.919999997,
      "d": 119.76000000000931,
      "v": 72
    },
    {
      "midi": 56,
      "hit": false,
      "t": 328381.919999997,
      "d": 119.76000000000931,
      "v": 94
    },
    {
      "midi": 61,
      "hit": false,
      "t": 328381.919999997,
      "d": 123.50250000000233,
      "v": 90
    },
    {
      "midi": 54,
      "hit": false,
      "t": 328741.199999997,
      "d": 3542.2762499999953,
      "v": 46
    },
    {
      "midi": 58,
      "hit": false,
      "t": 328741.199999997,
      "d": 3553.5037499999744,
      "v": 60
    },
    {
      "midi": 63,
      "hit": false,
      "t": 328741.199999997,
      "d": 3564.7312499999534,
      "v": 60
    },
    {
      "midi": 39,
      "hit": false,
      "t": 328741.199999997,
      "d": 3590.9287499999627,
      "v": 56
    }
  ]
}