{
  "jsonPath": "Unknown/Unknown/Gardonyi Zoltan/roman-nepdal.json",
  "path": "Unknown\\Unknown\\Gardonyi Zoltan\\Roman Nepdal.mid",
  "name": "Roman Nepdal",
  "difficulty": "Advanced",
  "bpm": 100,
  "notes": [
    {
      "midi": 72,
      "hit": false,
      "t": 0,
      "d": 300,
      "v": 100
    },
    {
      "midi": 71,
      "hit": false,
      "t": 300,
      "d": 150,
      "v": 100
    },
    {
      "midi": 69,
      "hit": false,
      "t": 450,
      "d": 150,
      "v": 100
    },
    {
      "midi": 72,
      "hit": false,
      "t": 600,
      "d": 300,
      "v": 100
    },
    {
      "midi": 57,
      "hit": false,
      "t": 600,
      "d": 300,
      "v": 100
    },
    {
      "midi": 64,
      "hit": false,
      "t": 600,
      "d": 300,
      "v": 100
    },
    {
      "midi": 71,
      "hit": false,
      "t": 900,
      "d": 150,
      "v": 100
    },
    {
      "midi": 69,
      "hit": false,
      "t": 1050,
      "d": 150,
      "v": 100
    },
    {
      "midi": 72,
      "hit": false,
      "t": 1200,
      "d": 300,
      "v": 100
    },
    {
      "midi": 62,
      "hit": false,
      "t": 1200,
      "d": 600,
      "v": 100
    },
    {
      "midi": 65,
      "hit": false,
      "t": 1200,
      "d": 600,
      "v": 100
    },
    {
      "midi": 71,
      "hit": false,
      "t": 1500,
      "d": 150,
      "v": 100
    },
    {
      "midi": 69,
      "hit": false,
      "t": 1650,
      "d": 150,
      "v": 100
    },
    {
      "midi": 68,
      "hit": false,
      "t": 1800,
      "d": 150,
      "v": 100
    },
    {
      "midi": 65,
      "hit": false,
      "t": 1950,
      "d": 150,
      "v": 100
    },
    {
      "midi": 64,
      "hit": false,
      "t": 2100,
      "d": 150,
      "v": 100
    },
    {
      "midi": 62,
      "hit": false,
      "t": 2250,
      "d": 150,
      "v": 100
    },
    {
      "midi": 72,
      "hit": false,
      "t": 2400,
      "d": 300,
      "v": 100
    },
    {
      "midi": 71,
      "hit": false,
      "t": 2700,
      "d": 150,
      "v": 100
    },
    {
      "midi": 69,
      "hit": false,
      "t": 2850,
      "d": 150,
      "v": 100
    },
    {
      "midi": 72,
      "hit": false,
      "t": 3000,
      "d": 300,
      "v": 100
    },
    {
      "midi": 53,
      "hit": false,
      "t": 3000,
      "d": 300,
      "v": 100
    },
    {
      "midi": 60,
      "hit": false,
      "t": 3000,
      "d": 300,
      "v": 100
    },
    {
      "midi": 71,
      "hit": false,
      "t": 3300,
      "d": 150,
      "v": 100
    },
    {
      "midi": 69,
      "hit": false,
      "t": 3450,
      "d": 150,
      "v": 100
    },
    {
      "midi": 68,
      "hit": false,
      "t": 3600,
      "d": 150,
      "v": 100
    },
    {
      "midi": 58,
      "hit": false,
      "t": 3600,
      "d": 600,
      "v": 100
    },
    {
      "midi": 62,
      "hit": false,
      "t": 3600,
      "d": 600,
      "v": 100
    },
    {
      "midi": 65,
      "hit": false,
      "t": 3750,
      "d": 150,
      "v": 100
    },
    {
      "midi": 64,
      "hit": false,
      "t": 3900,
      "d": 150,
      "v": 100
    },
    {
      "midi": 62,
      "hit": false,
      "t": 4050,
      "d": 150,
      "v": 100
    },
    {
      "midi": 62,
      "hit": false,
      "t": 4200,
      "d": 300,
      "v": 100
    },
    {
      "midi": 58,
      "hit": false,
      "t": 4350,
      "d": 150,
      "v": 100
    },
    {
      "midi": 57,
      "hit": false,
      "t": 4500,
      "d": 150,
      "v": 100
    },
    {
      "midi": 56,
      "hit": false,
      "t": 4650,
      "d": 150,
      "v": 100
    },
    {
      "midi": 65,
      "hit": false,
      "t": 4800,
      "d": 300,
      "v": 100
    },
    {
      "midi": 50,
      "hit": false,
      "t": 4800,
      "d": 300,
      "v": 100
    },
    {
      "midi": 57,
      "hit": false,
      "t": 4800,
      "d": 300,
      "v": 100
    },
    {
      "midi": 64,
      "hit": false,
      "t": 5100,
      "d": 150,
      "v": 100
    },
    {
      "midi": 62,
      "hit": false,
      "t": 5250,
      "d": 150,
      "v": 100
    },
    {
      "midi": 65,
      "hit": false,
      "t": 5400,
      "d": 300,
      "v": 100
    },
    {
      "midi": 55,
      "hit": false,
      "t": 5400,
      "d": 300,
      "v": 100
    },
    {
      "midi": 58,
      "hit": false,
      "t": 5400,
      "d": 300,
      "v": 100
    },
    {
      "midi": 64,
      "hit": false,
      "t": 5700,
      "d": 150,
      "v": 100
    },
    {
      "midi": 62,
      "hit": false,
      "t": 5850,
      "d": 150,
      "v": 100
    },
    {
      "midi": 72,
      "hit": false,
      "t": 6000,
      "d": 300,
      "v": 100
    },
    {
      "midi": 53,
      "hit": false,
      "t": 6000,
      "d": 600,
      "v": 100
    },
    {
      "midi": 57,
      "hit": false,
      "t": 6000,
      "d": 600,
      "v": 100
    },
    {
      "midi": 71,
      "hit": false,
      "t": 6300,
      "d": 150,
      "v": 100
    },
    {
      "midi": 69,
      "hit": false,
      "t": 6450,
      "d": 150,
      "v": 100
    },
    {
      "midi": 68,
      "hit": false,
      "t": 6600,
      "d": 150,
      "v": 100
    },
    {
      "midi": 65,
      "hit": false,
      "t": 6750,
      "d": 150,
      "v": 100
    },
    {
      "midi": 64,
      "hit": false,
      "t": 6900,
      "d": 150,
      "v": 100
    },
    {
      "midi": 62,
      "hit": false,
      "t": 7050,
      "d": 150,
      "v": 100
    },
    {
      "midi": 65,
      "hit": false,
      "t": 7200,
      "d": 300,
      "v": 100
    },
    {
      "midi": 64,
      "hit": false,
      "t": 7500,
      "d": 150,
      "v": 100
    },
    {
      "midi": 62,
      "hit": false,
      "t": 7650,
      "d": 150,
      "v": 100
    },
    {
      "midi": 72,
      "hit": false,
      "t": 7800,
      "d": 300,
      "v": 100
    },
    {
      "midi": 52,
      "hit": false,
      "t": 7800,
      "d": 600,
      "v": 100
    },
    {
      "midi": 56,
      "hit": false,
      "t": 7800,
      "d": 600,
      "v": 100
    },
    {
      "midi": 71,
      "hit": false,
      "t": 8100,
      "d": 150,
      "v": 100
    },
    {
      "midi": 69,
      "hit": false,
      "t": 8250,
      "d": 150,
      "v": 100
    },
    {
      "midi": 68,
      "hit": false,
      "t": 8400,
      "d": 150,
      "v": 100
    },
    {
      "midi": 65,
      "hit": false,
      "t": 8550,
      "d": 150,
      "v": 100
    },
    {
      "midi": 64,
      "hit": false,
      "t": 8700,
      "d": 150,
      "v": 100
    },
    {
      "midi": 55,
      "hit": false,
      "t": 8700,
      "d": 300,
      "v": 100
    },
    {
      "midi": 58,
      "hit": false,
      "t": 8700,
      "d": 300,
      "v": 100
    },
    {
      "midi": 62,
      "hit": false,
      "t": 8850,
      "d": 150,
      "v": 100
    },
    {
      "midi": 62,
      "hit": false,
      "t": 9000,
      "d": 600,
      "v": 100
    },
    {
      "midi": 53,
      "hit": false,
      "t": 9000,
      "d": 300,
      "v": 100
    },
    {
      "midi": 57,
      "hit": false,
      "t": 9000,
      "d": 300,
      "v": 100
    },
    {
      "midi": 50,
      "hit": false,
      "t": 9300,
      "d": 300,
      "v": 100
    },
    {
      "midi": 72,
      "hit": false,
      "t": 9600,
      "d": 300,
      "v": 100
    },
    {
      "midi": 71,
      "hit": false,
      "t": 9900,
      "d": 150,
      "v": 100
    },
    {
      "midi": 69,
      "hit": false,
      "t": 10050,
      "d": 150,
      "v": 100
    },
    {
      "midi": 60,
      "hit": false,
      "t": 10200,
      "d": 300,
      "v": 100
    },
    {
      "midi": 59,
      "hit": false,
      "t": 10500,
      "d": 150,
      "v": 100
    },
    {
      "midi": 57,
      "hit": false,
      "t": 10650,
      "d": 150,
      "v": 100
    },
    {
      "midi": 84,
      "hit": false,
      "t": 10800,
      "d": 300,
      "v": 100
    },
    {
      "midi": 83,
      "hit": false,
      "t": 11100,
      "d": 150,
      "v": 100
    },
    {
      "midi": 81,
      "hit": false,
      "t": 11250,
      "d": 150,
      "v": 100
    },
    {
      "midi": 80,
      "hit": false,
      "t": 11400,
      "d": 300,
      "v": 100
    },
    {
      "midi": 77,
      "hit": false,
      "t": 11550,
      "d": 150,
      "v": 100
    },
    {
      "midi": 81,
      "hit": false,
      "t": 11700,
      "d": 300,
      "v": 100
    },
    {
      "midi": 76,
      "hit": false,
      "t": 11700,
      "d": 150,
      "v": 100
    },
    {
      "midi": 74,
      "hit": false,
      "t": 11850,
      "d": 150,
      "v": 100
    },
    {
      "midi": 72,
      "hit": false,
      "t": 12000,
      "d": 300,
      "v": 100
    },
    {
      "midi": 71,
      "hit": false,
      "t": 12300,
      "d": 150,
      "v": 100
    },
    {
      "midi": 69,
      "hit": false,
      "t": 12450,
      "d": 150,
      "v": 100
    },
    {
      "midi": 84,
      "hit": false,
      "t": 12600,
      "d": 300,
      "v": 100
    },
    {
      "midi": 83,
      "hit": false,
      "t": 12900,
      "d": 150,
      "v": 100
    },
    {
      "midi": 81,
      "hit": false,
      "t": 13050,
      "d": 150,
      "v": 100
    },
    {
      "midi": 80,
      "hit": false,
      "t": 13200,
      "d": 150,
      "v": 100
    },
    {
      "midi": 77,
      "hit": false,
      "t": 13350,
      "d": 150,
      "v": 100
    },
    {
      "midi": 76,
      "hit": false,
      "t": 13500,
      "d": 150,
      "v": 100
    },
    {
      "midi": 65,
      "hit": false,
      "t": 13500,
      "d": 300,
      "v": 100
    },
    {
      "midi": 72,
      "hit": false,
      "t": 13500,
      "d": 300,
      "v": 100
    },
    {
      "midi": 74,
      "hit": false,
      "t": 13650,
      "d": 150,
      "v": 100
    },
    {
      "midi": 74,
      "hit": false,
      "t": 13800,
      "d": 300,
      "v": 100
    },
    {
      "midi": 67,
      "hit": false,
      "t": 13800,
      "d": 300,
      "v": 100
    },
    {
      "midi": 71,
      "hit": false,
      "t": 13800,
      "d": 300,
      "v": 100
    },
    {
      "midi": 62,
      "hit": false,
      "t": 14100,
      "d": 300,
      "v": 100
    },
    {
      "midi": 65,
      "hit": false,
      "t": 14400,
      "d": 300,
      "v": 100
    },
    {
      "midi": 64,
      "hit": false,
      "t": 14700,
      "d": 150,
      "v": 100
    },
    {
      "midi": 62,
      "hit": false,
      "t": 14850,
      "d": 150,
      "v": 100
    },
    {
      "midi": 77,
      "hit": false,
      "t": 15000,
      "d": 300,
      "v": 100
    },
    {
      "midi": 76,
      "hit": false,
      "t": 15300,
      "d": 150,
      "v": 100
    },
    {
      "midi": 74,
      "hit": false,
      "t": 15450,
      "d": 150,
      "v": 100
    },
    {
      "midi": 72,
      "hit": false,
      "t": 15600,
      "d": 300,
      "v": 100
    },
    {
      "midi": 71,
      "hit": false,
      "t": 15900,
      "d": 150,
      "v": 100
    },
    {
      "midi": 69,
      "hit": false,
      "t": 16050,
      "d": 150,
      "v": 100
    },
    {
      "midi": 68,
      "hit": false,
      "t": 16200,
      "d": 300,
      "v": 100
    },
    {
      "midi": 65,
      "hit": false,
      "t": 16350,
      "d": 150,
      "v": 100
    },
    {
      "midi": 69,
      "hit": false,
      "t": 16500,
      "d": 300,
      "v": 100
    },
    {
      "midi": 64,
      "hit": false,
      "t": 16500,
      "d": 150,
      "v": 100
    },
    {
      "midi": 62,
      "hit": false,
      "t": 16650,
      "d": 150,
      "v": 100
    },
    {
      "midi": 65,
      "hit": false,
      "t": 16800,
      "d": 300,
      "v": 100
    },
    {
      "midi": 64,
      "hit": false,
      "t": 17100,
      "d": 150,
      "v": 100
    },
    {
      "midi": 62,
      "hit": false,
      "t": 17250,
      "d": 150,
      "v": 100
    },
    {
      "midi": 72,
      "hit": false,
      "t": 17400,
      "d": 300,
      "v": 100
    },
    {
      "midi": 71,
      "hit": false,
      "t": 17700,
      "d": 150,
      "v": 100
    },
    {
      "midi": 69,
      "hit": false,
      "t": 17850,
      "d": 150,
      "v": 100
    },
    {
      "midi": 68,
      "hit": false,
      "t": 18000,
      "d": 750,
      "v": 100
    },
    {
      "midi": 65,
      "hit": false,
      "t": 18750,
      "d": 150,
      "v": 100
    },
    {
      "midi": 64,
      "hit": false,
      "t": 18900,
      "d": 150,
      "v": 100
    },
    {
      "midi": 48,
      "hit": false,
      "t": 18900,
      "d": 300,
      "v": 100
    },
    {
      "midi": 58,
      "hit": false,
      "t": 18900,
      "d": 300,
      "v": 100
    },
    {
      "midi": 62,
      "hit": false,
      "t": 19050,
      "d": 150,
      "v": 100
    },
    {
      "midi": 62,
      "hit": false,
      "t": 19200,
      "d": 600,
      "v": 100
    },
    {
      "midi": 50,
      "hit": false,
      "t": 19200,
      "d": 150,
      "v": 100
    },
    {
      "midi": 52,
      "hit": false,
      "t": 19350,
      "d": 150,
      "v": 100
    },
    {
      "midi": 53,
      "hit": false,
      "t": 19500,
      "d": 150,
      "v": 100
    },
    {
      "midi": 57,
      "hit": false,
      "t": 19650,
      "d": 150,
      "v": 100
    },
    {
      "midi": 62,
      "hit": false,
      "t": 19800,
      "d": 150,
      "v": 100
    },
    {
      "midi": 64,
      "hit": false,
      "t": 19950,
      "d": 150,
      "v": 100
    },
    {
      "midi": 65,
      "hit": false,
      "t": 20100,
      "d": 150,
      "v": 100
    },
    {
      "midi": 69,
      "hit": false,
      "t": 20250,
      "d": 150,
      "v": 100
    },
    {
      "midi": 74,
      "hit": false,
      "t": 20400,
      "d": 1200,
      "v": 100
    }
  ]
}