{
  "jsonPath": "Jazz/Contemporary Jazz/Chick Corea/strange-meadow-lark.json",
  "path": "Jazz\\Contemporary Jazz\\Chick Corea\\Strange Meadow Lark.mid",
  "name": "Strange Meadow Lark",
  "difficulty": "Advanced",
  "bpm": 104.99992125005906,
  "notes": [
    {
      "midi": 81,
      "hit": false,
      "t": 2004.7634083333335,
      "d": 714.8814885416666,
      "v": 68
    },
    {
      "midi": 82,
      "hit": false,
      "t": 2667.85914375,
      "d": 1114.2865500000003,
      "v": 71
    },
    {
      "midi": 84,
      "hit": false,
      "t": 3800.598088541667,
      "d": 2575.0019312499994,
      "v": 62
    },
    {
      "midi": 53,
      "hit": false,
      "t": 3837.5028781250003,
      "d": 910.1197302083328,
      "v": 22
    },
    {
      "midi": 72,
      "hit": false,
      "t": 5469.646959375,
      "d": 485.7146499999999,
      "v": 37
    },
    {
      "midi": 88,
      "hit": false,
      "t": 6418.457194791667,
      "d": 525.0003937500005,
      "v": 64
    },
    {
      "midi": 77,
      "hit": false,
      "t": 6432.742919791666,
      "d": 513.0956229166677,
      "v": 41
    },
    {
      "midi": 84,
      "hit": false,
      "t": 6921.4337625,
      "d": 420.23841041666765,
      "v": 55
    },
    {
      "midi": 76,
      "hit": false,
      "t": 6939.886157291667,
      "d": 463.6908239583345,
      "v": 29
    },
    {
      "midi": 91,
      "hit": false,
      "t": 7413.696036458335,
      "d": 2214.8826135416666,
      "v": 63
    },
    {
      "midi": 74,
      "hit": false,
      "t": 7427.386522916668,
      "d": 651.1909645833339,
      "v": 31
    },
    {
      "midi": 79,
      "hit": false,
      "t": 7428.577000000001,
      "d": 3704.169444791669,
      "v": 40
    },
    {
      "midi": 72,
      "hit": false,
      "t": 8021.434587500002,
      "d": 1749.4060739583329,
      "v": 32
    },
    {
      "midi": 89,
      "hit": false,
      "t": 9696.435843750001,
      "d": 1267.2628552083333,
      "v": 54
    },
    {
      "midi": 71,
      "hit": false,
      "t": 9702.388229166669,
      "d": 1262.5009468749995,
      "v": 36
    },
    {
      "midi": 91,
      "hit": false,
      "t": 10977.389185416669,
      "d": 498.21465937500216,
      "v": 51
    },
    {
      "midi": 70,
      "hit": false,
      "t": 10993.46062604167,
      "d": 1608.334539583333,
      "v": 31
    },
    {
      "midi": 93,
      "hit": false,
      "t": 12293.46160104167,
      "d": 305.95261041666527,
      "v": 67
    },
    {
      "midi": 77,
      "hit": false,
      "t": 12310.723518750003,
      "d": 289.88116979166625,
      "v": 44
    },
    {
      "midi": 89,
      "hit": false,
      "t": 12605.366596875003,
      "d": 280.3573531250004,
      "v": 59
    },
    {
      "midi": 74,
      "hit": false,
      "t": 12609.533266666669,
      "d": 249.404948958334,
      "v": 45
    },
    {
      "midi": 76,
      "hit": false,
      "t": 12884.53347291667,
      "d": 269.0478208333334,
      "v": 43
    },
    {
      "midi": 91,
      "hit": false,
      "t": 12886.914427083337,
      "d": 270.8335364583327,
      "v": 69
    },
    {
      "midi": 88,
      "hit": false,
      "t": 13144.652715625003,
      "d": 322.0240510416661,
      "v": 60
    },
    {
      "midi": 72,
      "hit": false,
      "t": 13155.367009375002,
      "d": 281.54783020833383,
      "v": 35
    },
    {
      "midi": 89,
      "hit": false,
      "t": 13421.438637500003,
      "d": 510.11943020833496,
      "v": 63
    },
    {
      "midi": 74,
      "hit": false,
      "t": 13433.938646875004,
      "d": 286.9049770833335,
      "v": 34
    },
    {
      "midi": 86,
      "hit": false,
      "t": 13713.700761458336,
      "d": 300.0002250000016,
      "v": 49
    },
    {
      "midi": 70,
      "hit": false,
      "t": 13719.653146875004,
      "d": 304.7621333333336,
      "v": 42
    },
    {
      "midi": 88,
      "hit": false,
      "t": 14056.558161458337,
      "d": 439.88128229166614,
      "v": 49
    },
    {
      "midi": 72,
      "hit": false,
      "t": 14059.53435416667,
      "d": 367.85741875000167,
      "v": 32
    },
    {
      "midi": 84,
      "hit": false,
      "t": 14428.582250000005,
      "d": 101.78579062499921,
      "v": 48
    },
    {
      "midi": 69,
      "hit": false,
      "t": 14445.844167708337,
      "d": 61.90480833333277,
      "v": 22
    },
    {
      "midi": 41,
      "hit": false,
      "t": 15361.916283333338,
      "d": 130.9524791666663,
      "v": 34
    },
    {
      "midi": 48,
      "hit": false,
      "t": 15495.844955208337,
      "d": 107.73817604166652,
      "v": 38
    },
    {
      "midi": 75,
      "hit": false,
      "t": 15597.630745833336,
      "d": 1186.3104135416615,
      "v": 39
    },
    {
      "midi": 57,
      "hit": false,
      "t": 15636.916489583336,
      "d": 97.619120833333,
      "v": 50
    },
    {
      "midi": 79,
      "hit": false,
      "t": 15683.940334375004,
      "d": 1390.4772333333258,
      "v": 33
    },
    {
      "midi": 83,
      "hit": false,
      "t": 15751.797528125002,
      "d": 1357.1438749999925,
      "v": 48
    },
    {
      "midi": 86,
      "hit": false,
      "t": 15807.74995104167,
      "d": 1469.0487208333234,
      "v": 49
    },
    {
      "midi": 62,
      "hit": false,
      "t": 15847.630933333336,
      "d": 682.7386072916652,
      "v": 45
    },
    {
      "midi": 67,
      "hit": false,
      "t": 16564.893376041666,
      "d": 425.00031874999695,
      "v": 38
    },
    {
      "midi": 70,
      "hit": false,
      "t": 16978.584162499996,
      "d": 3236.311951041658,
      "v": 30
    },
    {
      "midi": 71,
      "hit": false,
      "t": 17252.39389166666,
      "d": 429.1669885416668,
      "v": 38
    },
    {
      "midi": 74,
      "hit": false,
      "t": 17446.441656249994,
      "d": 105.95246041666542,
      "v": 42
    },
    {
      "midi": 79,
      "hit": false,
      "t": 17661.918008333327,
      "d": 118.45246979166404,
      "v": 27
    },
    {
      "midi": 74,
      "hit": false,
      "t": 17729.775202083325,
      "d": 2422.6208645833285,
      "v": 24
    },
    {
      "midi": 83,
      "hit": false,
      "t": 17861.918158333323,
      "d": 103.57150624999849,
      "v": 39
    },
    {
      "midi": 86,
      "hit": false,
      "t": 18036.918289583322,
      "d": 66.66671666666662,
      "v": 48
    },
    {
      "midi": 91,
      "hit": false,
      "t": 18228.58509999999,
      "d": 164.28583749999962,
      "v": 35
    },
    {
      "midi": 98,
      "hit": false,
      "t": 18447.63288333332,
      "d": 186.30966354166594,
      "v": 43
    },
    {
      "midi": 95,
      "hit": false,
      "t": 18698.823547916654,
      "d": 48.8095604166665,
      "v": 36
    },
    {
      "midi": 103,
      "hit": false,
      "t": 18944.657065624986,
      "d": 73.80957916666739,
      "v": 49
    },
    {
      "midi": 107,
      "hit": false,
      "t": 19240.49062083332,
      "d": 108.92865312499998,
      "v": 49
    },
    {
      "midi": 86,
      "hit": false,
      "t": 21110.730118749987,
      "d": 101.78579062499921,
      "v": 33
    },
    {
      "midi": 62,
      "hit": false,
      "t": 21159.539679166654,
      "d": 113.09532291666619,
      "v": 29
    },
    {
      "midi": 87,
      "hit": false,
      "t": 21174.42064270832,
      "d": 108.33341458333234,
      "v": 44
    },
    {
      "midi": 63,
      "hit": false,
      "t": 21187.515890624985,
      "d": 49.40479895833414,
      "v": 25
    },
    {
      "midi": 88,
      "hit": false,
      "t": 21219.658771874987,
      "d": 73.80957916666375,
      "v": 66
    },
    {
      "midi": 64,
      "hit": false,
      "t": 21240.492120833318,
      "d": 77.38101041666596,
      "v": 49
    },
    {
      "midi": 65,
      "hit": false,
      "t": 21305.373121874985,
      "d": 590.4766333333355,
      "v": 45
    },
    {
      "midi": 89,
      "hit": false,
      "t": 21320.84932395832,
      "d": 976.7864468750013,
      "v": 57
    },
    {
      "midi": 77,
      "hit": false,
      "t": 22338.70723020832,
      "d": 316.66690416666825,
      "v": 30
    },
    {
      "midi": 46,
      "hit": false,
      "t": 22383.94535937499,
      "d": 638.6909552083343,
      "v": 30
    },
    {
      "midi": 53,
      "hit": false,
      "t": 22700.612263541658,
      "d": 308.3335645833322,
      "v": 26
    },
    {
      "midi": 65,
      "hit": false,
      "t": 23044.66014062499,
      "d": 572.0242385416641,
      "v": 47
    },
    {
      "midi": 57,
      "hit": false,
      "t": 23046.44585624999,
      "d": 347.024069791667,
      "v": 41
    },
    {
      "midi": 62,
      "hit": false,
      "t": 23052.398241666655,
      "d": 502.9765677083342,
      "v": 31
    },
    {
      "midi": 69,
      "hit": false,
      "t": 23055.37443437499,
      "d": 611.3099822916665,
      "v": 36
    },
    {
      "midi": 58,
      "hit": false,
      "t": 23461.922358333322,
      "d": 900.595913541667,
      "v": 39
    },
    {
      "midi": 62,
      "hit": false,
      "t": 23951.80367812499,
      "d": 669.6433593749971,
      "v": 31
    },
    {
      "midi": 65,
      "hit": false,
      "t": 23959.54177916666,
      "d": 689.2862312499965,
      "v": 30
    },
    {
      "midi": 69,
      "hit": false,
      "t": 23960.73225624999,
      "d": 691.0719468749994,
      "v": 35
    },
    {
      "midi": 58,
      "hit": false,
      "t": 24490.49455833332,
      "d": 554.1670822916676,
      "v": 55
    },
    {
      "midi": 69,
      "hit": false,
      "t": 25000.613988541656,
      "d": 1442.858225,
      "v": 41
    },
    {
      "midi": 65,
      "hit": false,
      "t": 25006.56637395832,
      "d": 1477.9772989583362,
      "v": 37
    },
    {
      "midi": 62,
      "hit": false,
      "t": 25011.923520833323,
      "d": 1410.7153437499983,
      "v": 31
    },
    {
      "midi": 52,
      "hit": false,
      "t": 25970.85281145832,
      "d": 250.00018750000163,
      "v": 62
    },
    {
      "midi": 53,
      "hit": false,
      "t": 26255.376834374987,
      "d": 179.1668010416688,
      "v": 48
    },
    {
      "midi": 54,
      "hit": false,
      "t": 26498.82939791666,
      "d": 91.07149687499987,
      "v": 50
    },
    {
      "midi": 61,
      "hit": false,
      "t": 26847.639183333325,
      "d": 464.8813010416634,
      "v": 35
    },
    {
      "midi": 69,
      "hit": false,
      "t": 26862.52014687499,
      "d": 552.3813666666647,
      "v": 46
    },
    {
      "midi": 65,
      "hit": false,
      "t": 26870.853486458323,
      "d": 488.69084270833264,
      "v": 45
    },
    {
      "midi": 39,
      "hit": false,
      "t": 26879.782064583324,
      "d": 257.14304999999877,
      "v": 45
    },
    {
      "midi": 46,
      "hit": false,
      "t": 27176.80609687499,
      "d": 267.85734375000175,
      "v": 44
    },
    {
      "midi": 55,
      "hit": false,
      "t": 27481.568230208322,
      "d": 116.07151562500076,
      "v": 42
    },
    {
      "midi": 61,
      "hit": false,
      "t": 27787.52084062499,
      "d": 971.4292999999998,
      "v": 42
    },
    {
      "midi": 65,
      "hit": false,
      "t": 28153.59254374999,
      "d": 861.9054083333358,
      "v": 47
    },
    {
      "midi": 73,
      "hit": false,
      "t": 28170.854461458322,
      "d": 919.6435468750024,
      "v": 26
    },
    {
      "midi": 81,
      "hit": false,
      "t": 28171.44969999999,
      "d": 727.3814979166673,
      "v": 36
    },
    {
      "midi": 77,
      "hit": false,
      "t": 28176.80684687499,
      "d": 764.8815260416668,
      "v": 35
    },
    {
      "midi": 69,
      "hit": false,
      "t": 28195.854480208323,
      "d": 713.6910114583334,
      "v": 24
    },
    {
      "midi": 61,
      "hit": false,
      "t": 28908.95025312499,
      "d": 825.5958572916716,
      "v": 46
    },
    {
      "midi": 77,
      "hit": false,
      "t": 29347.641058333324,
      "d": 1376.1915083333406,
      "v": 75
    },
    {
      "midi": 73,
      "hit": false,
      "t": 29355.379159374992,
      "d": 1546.4297312500057,
      "v": 70
    },
    {
      "midi": 65,
      "hit": false,
      "t": 29366.68869166666,
      "d": 1004.7626583333367,
      "v": 44
    },
    {
      "midi": 79,
      "hit": false,
      "t": 30778.594512499996,
      "d": 167.26203020833418,
      "v": 57
    },
    {
      "midi": 41,
      "hit": false,
      "t": 31598.833222916663,
      "d": 444.643190625,
      "v": 33
    },
    {
      "midi": 48,
      "hit": false,
      "t": 31728.595224999997,
      "d": 354.1669322916641,
      "v": 31
    },
    {
      "midi": 81,
      "hit": false,
      "t": 31749.428573958332,
      "d": 719.0481583333276,
      "v": 45
    },
    {
      "midi": 76,
      "hit": false,
      "t": 31790.500033333334,
      "d": 632.1433312499939,
      "v": 50
    },
    {
      "midi": 74,
      "hit": false,
      "t": 31805.380996875,
      "d": 604.1671197916621,
      "v": 53
    },
    {
      "midi": 57,
      "hit": false,
      "t": 31815.50005208333,
      "d": 330.3573906249985,
      "v": 29
    },
    {
      "midi": 69,
      "hit": false,
      "t": 31861.92865833333,
      "d": 488.69084270833264,
      "v": 25
    },
    {
      "midi": 64,
      "hit": false,
      "t": 32967.881868749995,
      "d": 310.7145187499991,
      "v": 45
    },
    {
      "midi": 60,
      "hit": false,
      "t": 32969.667584375,
      "d": 230.95255416665896,
      "v": 47
    },
    {
      "midi": 84,
      "hit": false,
      "t": 32977.40568541666,
      "d": 296.42879374999757,
      "v": 80
    },
    {
      "midi": 72,
      "hit": false,
      "t": 32979.786639583326,
      "d": 244.64304062500014,
      "v": 70
    },
    {
      "midi": 81,
      "hit": false,
      "t": 33280.382103125,
      "d": 77.97624895832996,
      "v": 65
    },
    {
      "midi": 88,
      "hit": false,
      "t": 33733.35863333333,
      "d": 305.3573718749976,
      "v": 51
    },
    {
      "midi": 76,
      "hit": false,
      "t": 33744.668165625,
      "d": 426.19079583332496,
      "v": 40
    },
    {
      "midi": 80,
      "hit": false,
      "t": 33747.64435833333,
      "d": 382.1431437499996,
      "v": 31
    },
    {
      "midi": 56,
      "hit": false,
      "t": 33748.83483541667,
      "d": 3134.526160416659,
      "v": 46
    },
    {
      "midi": 83,
      "hit": false,
      "t": 33752.406266666665,
      "d": 327.38119791666395,
      "v": 48
    },
    {
      "midi": 62,
      "hit": false,
      "t": 34168.47800729166,
      "d": 808.3339395833318,
      "v": 24
    },
    {
      "midi": 65,
      "hit": false,
      "t": 34621.454537499994,
      "d": 675.0005062499986,
      "v": 25
    },
    {
      "midi": 68,
      "hit": false,
      "t": 34625.62120729166,
      "d": 804.7625083333332,
      "v": 30
    },
    {
      "midi": 71,
      "hit": false,
      "t": 34626.811684374996,
      "d": 806.5482239583289,
      "v": 34
    },
    {
      "midi": 62,
      "hit": false,
      "t": 35171.45494999999,
      "d": 1590.477383333331,
      "v": 33
    },
    {
      "midi": 74,
      "hit": false,
      "t": 36058.36037708332,
      "d": 177.38108541666588,
      "v": 76
    },
    {
      "midi": 74,
      "hit": false,
      "t": 36440.50352083332,
      "d": 282.1430687500033,
      "v": 66
    },
    {
      "midi": 76,
      "hit": false,
      "t": 36771.45614999999,
      "d": 182.14299374999973,
      "v": 72
    },
    {
      "midi": 70,
      "hit": false,
      "t": 37650.623476041656,
      "d": 226.19064583333966,
      "v": 56
    },
    {
      "midi": 58,
      "hit": false,
      "t": 37651.81395312499,
      "d": 205.95253541666898,
      "v": 51
    },
    {
      "midi": 77,
      "hit": false,
      "t": 37653.599668749994,
      "d": 242.26208645833685,
      "v": 66
    },
    {
      "midi": 65,
      "hit": false,
      "t": 37668.480632291656,
      "d": 185.11918645833794,
      "v": 50
    },
    {
      "midi": 62,
      "hit": false,
      "t": 37687.52826562499,
      "d": 136.30962604167144,
      "v": 20
    },
    {
      "midi": 74,
      "hit": false,
      "t": 37930.385590624996,
      "d": 102.38102916666685,
      "v": 64
    },
    {
      "midi": 76,
      "hit": false,
      "t": 38278.6001375,
      "d": 275.0002062499989,
      "v": 43
    },
    {
      "midi": 64,
      "hit": false,
      "t": 38290.50490833333,
      "d": 395.23839166666585,
      "v": 47
    },
    {
      "midi": 68,
      "hit": false,
      "t": 38303.600156249995,
      "d": 229.76207708333823,
      "v": 37
    },
    {
      "midi": 58,
      "hit": false,
      "t": 38319.67159687499,
      "d": 142.26201145834057,
      "v": 35
    },
    {
      "midi": 48,
      "hit": false,
      "t": 38352.40971666666,
      "d": 116.07151562500803,
      "v": 20
    },
    {
      "midi": 72,
      "hit": false,
      "t": 38611.93372083333,
      "d": 117.8572312499964,
      "v": 54
    },
    {
      "midi": 68,
      "hit": false,
      "t": 38641.69564791666,
      "d": 120.23818541666697,
      "v": 25
    },
    {
      "midi": 41,
      "hit": false,
      "t": 38892.8863125,
      "d": 614.8814135416615,
      "v": 32
    },
    {
      "midi": 48,
      "hit": false,
      "t": 38957.76731354166,
      "d": 567.8575687499979,
      "v": 31
    },
    {
      "midi": 63,
      "hit": false,
      "t": 38973.83875416666,
      "d": 650.595726041669,
      "v": 42
    },
    {
      "midi": 57,
      "hit": false,
      "t": 39034.553085416665,
      "d": 579.1671010416612,
      "v": 32
    },
    {
      "midi": 67,
      "hit": false,
      "t": 39046.457856249996,
      "d": 643.4528635416646,
      "v": 32
    },
    {
      "midi": 71,
      "hit": false,
      "t": 39065.50548958333,
      "d": 235.11922395833244,
      "v": 44
    },
    {
      "midi": 74,
      "hit": false,
      "t": 39111.934095833334,
      "d": 391.66696041666,
      "v": 32
    },
    {
      "midi": 71,
      "hit": false,
      "t": 39542.88679999999,
      "d": 150.00011249999807,
      "v": 51
    },
    {
      "midi": 62,
      "hit": false,
      "t": 40004.791908333325,
      "d": 325.595482291661,
      "v": 31
    },
    {
      "midi": 72,
      "hit": false,
      "t": 40005.38714687499,
      "d": 405.3574468749939,
      "v": 36
    },
    {
      "midi": 65,
      "hit": false,
      "t": 40009.55381666666,
      "d": 617.8576062500069,
      "v": 36
    },
    {
      "midi": 69,
      "hit": false,
      "t": 40016.69667916666,
      "d": 235.71446250000008,
      "v": 39
    },
    {
      "midi": 57,
      "hit": false,
      "t": 40027.41097291666,
      "d": 201.19062708332785,
      "v": 36
    },
    {
      "midi": 46,
      "hit": false,
      "t": 40038.72050520832,
      "d": 563.6908989583462,
      "v": 23
    },
    {
      "midi": 62,
      "hit": false,
      "t": 40430.38746562499,
      "d": 130.35724062500958,
      "v": 38
    },
    {
      "midi": 55,
      "hit": false,
      "t": 40431.577942708325,
      "d": 101.19055208333884,
      "v": 32
    },
    {
      "midi": 69,
      "hit": false,
      "t": 40433.36365833333,
      "d": 336.3097760416713,
      "v": 45
    },
    {
      "midi": 61,
      "hit": false,
      "t": 40884.554472916665,
      "d": 1220.8342489583229,
      "v": 45
    },
    {
      "midi": 70,
      "hit": false,
      "t": 40900.62591354166,
      "d": 3180.954766666655,
      "v": 40
    },
    {
      "midi": 65,
      "hit": false,
      "t": 40903.60210624999,
      "d": 958.9292906249975,
      "v": 34
    },
    {
      "midi": 39,
      "hit": false,
      "t": 40926.81640937499,
      "d": 300.59546354167105,
      "v": 36
    },
    {
      "midi": 46,
      "hit": false,
      "t": 41233.36425833333,
      "d": 253.5716187500002,
      "v": 38
    },
    {
      "midi": 55,
      "hit": false,
      "t": 41530.38829062499,
      "d": 266.0716281249988,
      "v": 44
    },
    {
      "midi": 57,
      "hit": false,
      "t": 41824.43613020833,
      "d": 247.02399479166343,
      "v": 40
    },
    {
      "midi": 61,
      "hit": false,
      "t": 42160.74590624999,
      "d": 666.6671666666662,
      "v": 19
    },
    {
      "midi": 58,
      "hit": false,
      "t": 42194.674503124996,
      "d": 376.19075833333045,
      "v": 48
    },
    {
      "midi": 65,
      "hit": false,
      "t": 42195.86498020833,
      "d": 575.000431249995,
      "v": 36
    },
    {
      "midi": 60,
      "hit": false,
      "t": 42547.650958333325,
      "d": 485.1194114583268,
      "v": 38
    },
    {
      "midi": 61,
      "hit": false,
      "t": 42986.93700208332,
      "d": 438.69080520833086,
      "v": 31
    },
    {
      "midi": 65,
      "hit": false,
      "t": 43007.770351041654,
      "d": 585.1194864583304,
      "v": 35
    },
    {
      "midi": 58,
      "hit": false,
      "t": 43021.46083749999,
      "d": 627.3814229166601,
      "v": 33
    },
    {
      "midi": 61,
      "hit": false,
      "t": 43601.818415624984,
      "d": 422.024126041666,
      "v": 34
    },
    {
      "midi": 60,
      "hit": false,
      "t": 44090.50925833332,
      "d": 317.8573812500035,
      "v": 39
    },
    {
      "midi": 65,
      "hit": false,
      "t": 44109.55689166665,
      "d": 386.3098135416658,
      "v": 44
    },
    {
      "midi": 50,
      "hit": false,
      "t": 44119.67594687499,
      "d": 592.8575874999951,
      "v": 28
    },
    {
      "midi": 57,
      "hit": false,
      "t": 44513.72386145832,
      "d": 267.85734374999447,
      "v": 56
    },
    {
      "midi": 77,
      "hit": false,
      "t": 45673.843779166644,
      "d": 228.57159999999567,
      "v": 70
    },
    {
      "midi": 67,
      "hit": false,
      "t": 45676.819971874975,
      "d": 385.1193364583378,
      "v": 57
    },
    {
      "midi": 81,
      "hit": false,
      "t": 45678.60568749998,
      "d": 239.28589374999865,
      "v": 66
    },
    {
      "midi": 72,
      "hit": false,
      "t": 45682.772357291644,
      "d": 263.0954354166679,
      "v": 68
    },
    {
      "midi": 71,
      "hit": false,
      "t": 46078.605987499985,
      "d": 211.90492083332356,
      "v": 60
    },
    {
      "midi": 79,
      "hit": false,
      "t": 46081.582180208316,
      "d": 158.92869062499813,
      "v": 52
    },
    {
      "midi": 76,
      "hit": false,
      "t": 46085.74884999998,
      "d": 157.1429749999952,
      "v": 57
    },
    {
      "midi": 65,
      "hit": false,
      "t": 46099.439336458316,
      "d": 88.0953041666653,
      "v": 40
    },
    {
      "midi": 74,
      "hit": false,
      "t": 46495.86820520831,
      "d": 1069.0484208333364,
      "v": 47
    },
    {
      "midi": 71,
      "hit": false,
      "t": 46504.79678333331,
      "d": 1041.6674479166686,
      "v": 43
    },
    {
      "midi": 62,
      "hit": false,
      "t": 46505.39202187498,
      "d": 1148.2151468750017,
      "v": 33
    },
    {
      "midi": 77,
      "hit": false,
      "t": 46510.74916874998,
      "d": 1080.9531916666674,
      "v": 40
    },
    {
      "midi": 69,
      "hit": false,
      "t": 46543.48728854165,
      "d": 433.928896874997,
      "v": 22
    },
    {
      "midi": 55,
      "hit": false,
      "t": 46981.58285520831,
      "d": 379.16695104166865,
      "v": 37
    },
    {
      "midi": 55,
      "hit": false,
      "t": 47470.86893645831,
      "d": 728.5719749999989,
      "v": 24
    },
    {
      "midi": 81,
      "hit": false,
      "t": 48011.94077083331,
      "d": 258.9287656250017,
      "v": 39
    },
    {
      "midi": 62,
      "hit": false,
      "t": 48027.416972916646,
      "d": 100.00007500000356,
      "v": 29
    },
    {
      "midi": 71,
      "hit": false,
      "t": 48028.60744999998,
      "d": 154.76202083333192,
      "v": 28
    },
    {
      "midi": 74,
      "hit": false,
      "t": 48028.60744999998,
      "d": 195.83348020832636,
      "v": 42
    },
    {
      "midi": 77,
      "hit": false,
      "t": 48030.393165624984,
      "d": 199.40491145832493,
      "v": 36
    },
    {
      "midi": 84,
      "hit": false,
      "t": 48772.65562708331,
      "d": 257.7382885416737,
      "v": 33
    },
    {
      "midi": 77,
      "hit": false,
      "t": 48787.53659062498,
      "d": 275.00020625000616,
      "v": 43
    },
    {
      "midi": 74,
      "hit": false,
      "t": 48788.727067708314,
      "d": 323.214528125005,
      "v": 34
    },
    {
      "midi": 48,
      "hit": false,
      "t": 48791.703260416645,
      "d": 713.0957729166694,
      "v": 31
    },
    {
      "midi": 55,
      "hit": false,
      "t": 49198.84642291665,
      "d": 550.5956510416654,
      "v": 31
    },
    {
      "midi": 62,
      "hit": false,
      "t": 49600.632438541645,
      "d": 483.92893437500607,
      "v": 31
    },
    {
      "midi": 65,
      "hit": false,
      "t": 49605.39434687498,
      "d": 626.1909458333394,
      "v": 35
    },
    {
      "midi": 55,
      "hit": false,
      "t": 50026.823234374984,
      "d": 1250.5961760416685,
      "v": 24
    },
    {
      "midi": 64,
      "hit": false,
      "t": 50487.53786562498,
      "d": 758.929140625005,
      "v": 47
    },
    {
      "midi": 62,
      "hit": false,
      "t": 50490.51405833331,
      "d": 649.405248958341,
      "v": 37
    },
    {
      "midi": 60,
      "hit": false,
      "t": 50509.56169166665,
      "d": 348.21454687500227,
      "v": 36
    },
    {
      "midi": 60,
      "hit": false,
      "t": 51005.395396874985,
      "d": 181.5477552083321,
      "v": 29
    },
    {
      "midi": 60,
      "hit": false,
      "t": 51473.848129166654,
      "d": 1072.0246135416673,
      "v": 53
    },
    {
      "midi": 64,
      "hit": false,
      "t": 51482.776707291654,
      "d": 1007.1436125000037,
      "v": 46
    },
    {
      "midi": 50,
      "hit": false,
      "t": 51493.49100104166,
      "d": 202.97634270833078,
      "v": 57
    },
    {
      "midi": 48,
      "hit": false,
      "t": 51945.87229270832,
      "d": 308.92880312500347,
      "v": 68
    },
    {
      "midi": 47,
      "hit": false,
      "t": 52236.943939583325,
      "d": 200.00014999999985,
      "v": 73
    },
    {
      "midi": 46,
      "hit": false,
      "t": 52455.39648437499,
      "d": 139.2858187499951,
      "v": 76
    },
    {
      "midi": 45,
      "hit": false,
      "t": 52657.777588541656,
      "d": 197.02395729166892,
      "v": 60
    },
    {
      "midi": 44,
      "hit": false,
      "t": 52779.801489583326,
      "d": 142.85725000000093,
      "v": 49
    },
    {
      "midi": 43,
      "hit": false,
      "t": 52921.46826249999,
      "d": 180.95251666667173,
      "v": 41
    },
    {
      "midi": 42,
      "hit": false,
      "t": 53123.84936666666,
      "d": 522.6194395833372,
      "v": 53
    },
    {
      "midi": 52,
      "hit": false,
      "t": 53131.58746770833,
      "d": 422.0241260416733,
      "v": 35
    },
    {
      "midi": 56,
      "hit": false,
      "t": 53143.49223854166,
      "d": 499.4051364583429,
      "v": 42
    },
    {
      "midi": 60,
      "hit": false,
      "t": 53154.80177083333,
      "d": 494.64322812500177,
      "v": 33
    },
    {
      "midi": 63,
      "hit": false,
      "t": 53155.397009374996,
      "d": 535.1194489583359,
      "v": 39
    },
    {
      "midi": 61,
      "hit": false,
      "t": 53164.92082604166,
      "d": 519.643246874999,
      "v": 30
    },
    {
      "midi": 75,
      "hit": false,
      "t": 54175.635869791666,
      "d": 751.1910395833402,
      "v": 37
    },
    {
      "midi": 64,
      "hit": false,
      "t": 54178.6120625,
      "d": 476.78607187500165,
      "v": 31
    },
    {
      "midi": 68,
      "hit": false,
      "t": 54183.37397083333,
      "d": 648.2147718750057,
      "v": 35
    },
    {
      "midi": 72,
      "hit": false,
      "t": 54190.51683333333,
      "d": 630.3576156250056,
      "v": 40
    },
    {
      "midi": 58,
      "hit": false,
      "t": 54195.87398020833,
      "d": 1334.5248104166749,
      "v": 46
    },
    {
      "midi": 69,
      "hit": false,
      "t": 55264.92240104167,
      "d": 329.7621520833345,
      "v": 101
    },
    {
      "midi": 70,
      "hit": false,
      "t": 55641.70839791667,
      "d": 239.8811322916663,
      "v": 79
    },
    {
      "midi": 72,
      "hit": false,
      "t": 56280.399353125,
      "d": 349.4050239583303,
      "v": 53
    },
    {
      "midi": 62,
      "hit": false,
      "t": 56281.58983020834,
      "d": 286.90497708332987,
      "v": 40
    },
    {
      "midi": 67,
      "hit": false,
      "t": 56285.7565,
      "d": 344.6431156249964,
      "v": 49
    },
    {
      "midi": 41,
      "hit": false,
      "t": 56325.63748229167,
      "d": 385.1193364583305,
      "v": 33
    },
    {
      "midi": 48,
      "hit": false,
      "t": 56613.732936458335,
      "d": 252.97638020833256,
      "v": 51
    },
    {
      "midi": 57,
      "hit": false,
      "t": 56906.590298958334,
      "d": 67.26195520833426,
      "v": 48
    },
    {
      "midi": 76,
      "hit": false,
      "t": 56937.542703125,
      "d": 255.35733437500312,
      "v": 74
    },
    {
      "midi": 60,
      "hit": false,
      "t": 57232.78101979167,
      "d": 82.14291874999617,
      "v": 48
    },
    {
      "midi": 72,
      "hit": false,
      "t": 57236.947689583336,
      "d": 83.92863437499909,
      "v": 59
    },
    {
      "midi": 72,
      "hit": false,
      "t": 57605.400346875,
      "d": 550.0004124999978,
      "v": 43
    },
    {
      "midi": 46,
      "hit": false,
      "t": 57608.37653958333,
      "d": 364.28598749999946,
      "v": 38
    },
    {
      "midi": 79,
      "hit": false,
      "t": 57617.90035625,
      "d": 712.5005343750017,
      "v": 48
    },
    {
      "midi": 76,
      "hit": false,
      "t": 57629.80512708333,
      "d": 447.02414479167055,
      "v": 55
    },
    {
      "midi": 56,
      "hit": false,
      "t": 57942.9006,
      "d": 70.83338645833282,
      "v": 51
    },
    {
      "midi": 72,
      "hit": false,
      "t": 58345.87709270834,
      "d": 767.8577187499977,
      "v": 37
    },
    {
      "midi": 76,
      "hit": false,
      "t": 58350.63900104167,
      "d": 720.2386354166665,
      "v": 35
    },
    {
      "midi": 67,
      "hit": false,
      "t": 58356.59138645834,
      "d": 105.35722187499778,
      "v": 31
    },
    {
      "midi": 62,
      "hit": false,
      "t": 58367.900918750005,
      "d": 842.8577749999968,
      "v": 36
    },
    {
      "midi": 67,
      "hit": false,
      "t": 58732.78214479167,
      "d": 441.6669979166618,
      "v": 49
    },
    {
      "midi": 77,
      "hit": false,
      "t": 59139.92530729167,
      "d": 172.0239385416644,
      "v": 58
    },
    {
      "midi": 79,
      "hit": false,
      "t": 59338.73498020833,
      "d": 110.11913020832435,
      "v": 60
    },
    {
      "midi": 77,
      "hit": false,
      "t": 59354.80642083333,
      "d": 82.73815729166381,
      "v": 24
    },
    {
      "midi": 61,
      "hit": false,
      "t": 59605.40184687499,
      "d": 1085.1198614583336,
      "v": 47
    },
    {
      "midi": 55,
      "hit": false,
      "t": 59611.94947083332,
      "d": 987.5007406250006,
      "v": 38
    },
    {
      "midi": 66,
      "hit": false,
      "t": 59616.711379166656,
      "d": 1032.7388697916685,
      "v": 51
    },
    {
      "midi": 81,
      "hit": false,
      "t": 59628.61614999999,
      "d": 1076.1912833333408,
      "v": 70
    },
    {
      "midi": 77,
      "hit": false,
      "t": 60730.40269062499,
      "d": 106.54769895833306,
      "v": 50
    },
    {
      "midi": 79,
      "hit": false,
      "t": 61144.688715624994,
      "d": 279.76211458333273,
      "v": 39
    },
    {
      "midi": 72,
      "hit": false,
      "t": 61148.85538541666,
      "d": 350.5955010416583,
      "v": 35
    },
    {
      "midi": 60,
      "hit": false,
      "t": 61153.617293749994,
      "d": 402.97649270832335,
      "v": 27
    },
    {
      "midi": 65,
      "hit": false,
      "t": 61154.80777083333,
      "d": 229.76207708333095,
      "v": 32
    },
    {
      "midi": 50,
      "hit": false,
      "t": 61172.66492708333,
      "d": 276.78592187499453,
      "v": 25
    },
    {
      "midi": 76,
      "hit": false,
      "t": 61452.427041666655,
      "d": 109.52389166666399,
      "v": 62
    },
    {
      "midi": 78,
      "hit": false,
      "t": 61928.61787499999,
      "d": 391.0717218750069,
      "v": 28
    },
    {
      "midi": 65,
      "hit": false,
      "t": 61970.87981145832,
      "d": 383.92885937501705,
      "v": 49
    },
    {
      "midi": 71,
      "hit": false,
      "t": 61974.45124270832,
      "d": 451.1908145833513,
      "v": 53
    },
    {
      "midi": 68,
      "hit": false,
      "t": 61988.73696770832,
      "d": 410.71459375001723,
      "v": 36
    },
    {
      "midi": 74,
      "hit": false,
      "t": 61989.927444791654,
      "d": 77.97624895833724,
      "v": 36
    },
    {
      "midi": 74,
      "hit": false,
      "t": 62321.4753125,
      "d": 130.95247916666995,
      "v": 62
    },
    {
      "midi": 59,
      "hit": false,
      "t": 62353.61819375,
      "d": 113.09532291666983,
      "v": 32
    },
    {
      "midi": 76,
      "hit": false,
      "t": 62714.92798854167,
      "d": 387.50029062500107,
      "v": 38
    },
    {
      "midi": 68,
      "hit": false,
      "t": 62724.45180520834,
      "d": 302.3811791666667,
      "v": 34
    },
    {
      "midi": 60,
      "hit": false,
      "t": 62725.64228229167,
      "d": 167.26203020833054,
      "v": 32
    },
    {
      "midi": 64,
      "hit": false,
      "t": 62737.547053125,
      "d": 277.38116041666945,
      "v": 26
    },
    {
      "midi": 72,
      "hit": false,
      "t": 63120.88067395834,
      "d": 257.7382885416737,
      "v": 51
    },
    {
      "midi": 48,
      "hit": false,
      "t": 63122.66638958334,
      "d": 113.09532291666983,
      "v": 31
    },
    {
      "midi": 64,
      "hit": false,
      "t": 63123.856866666676,
      "d": 232.73826979166915,
      "v": 44
    },
    {
      "midi": 58,
      "hit": false,
      "t": 63124.452105208344,
      "d": 119.04770833333168,
      "v": 25
    },
    {
      "midi": 68,
      "hit": false,
      "t": 63140.52354583334,
      "d": 299.40498645833577,
      "v": 31
    },
    {
      "midi": 63,
      "hit": false,
      "t": 63661.95250833334,
      "d": 163.69059895834653,
      "v": 46
    },
    {
      "midi": 74,
      "hit": false,
      "t": 63677.42871041668,
      "d": 227.97636145834258,
      "v": 28
    },
    {
      "midi": 71,
      "hit": false,
      "t": 63683.38109583335,
      "d": 173.21441562500695,
      "v": 34
    },
    {
      "midi": 41,
      "hit": false,
      "t": 63716.714454166686,
      "d": 366.0717031250024,
      "v": 31
    },
    {
      "midi": 86,
      "hit": false,
      "t": 64115.52427708336,
      "d": 300.00022499999614,
      "v": 66
    },
    {
      "midi": 57,
      "hit": false,
      "t": 64131.595717708355,
      "d": 44.04765208333265,
      "v": 36
    },
    {
      "midi": 86,
      "hit": false,
      "t": 64602.42940416669,
      "d": 2087.501565624989,
      "v": 54
    },
    {
      "midi": 63,
      "hit": false,
      "t": 64613.73893645835,
      "d": 782.1434437500066,
      "v": 37
    },
    {
      "midi": 74,
      "hit": false,
      "t": 64618.500844791684,
      "d": 1980.9538666666704,
      "v": 34
    },
    {
      "midi": 83,
      "hit": false,
      "t": 64626.83418437502,
      "d": 2048.811060416665,
      "v": 49
    },
    {
      "midi": 67,
      "hit": false,
      "t": 64635.76276250002,
      "d": 838.6911052083378,
      "v": 26
    },
    {
      "midi": 79,
      "hit": false,
      "t": 64636.358001041684,
      "d": 687.5005156250045,
      "v": 32
    },
    {
      "midi": 62,
      "hit": false,
      "t": 64650.643726041686,
      "d": 354.76217083333177,
      "v": 32
    },
    {
      "midi": 60,
      "hit": false,
      "t": 65073.85832916669,
      "d": 1014.8817135416612,
      "v": 35
    },
    {
      "midi": 67,
      "hit": false,
      "t": 65578.62061250002,
      "d": 2111.31110729168,
      "v": 41
    },
    {
      "midi": 63,
      "hit": false,
      "t": 65585.76347500001,
      "d": 2119.6444468750124,
      "v": 46
    },
    {
      "midi": 59,
      "hit": false,
      "t": 66404.81170833335,
      "d": 581.5480552083318,
      "v": 58
    },
    {
      "midi": 89,
      "hit": false,
      "t": 67067.90744375002,
      "d": 473.8098791666707,
      "v": 71
    },
    {
      "midi": 77,
      "hit": false,
      "t": 67078.62173750003,
      "d": 569.0480458333332,
      "v": 68
    },
    {
      "midi": 58,
      "hit": false,
      "t": 67080.40745312502,
      "d": 394.04791458333784,
      "v": 32
    },
    {
      "midi": 57,
      "hit": false,
      "t": 67611.3602322917,
      "d": 150.00011249999807,
      "v": 48
    },
    {
      "midi": 77,
      "hit": false,
      "t": 68489.9323197917,
      "d": 364.8812260416744,
      "v": 46
    },
    {
      "midi": 69,
      "hit": false,
      "t": 68528.62282500003,
      "d": 361.90503333334345,
      "v": 18
    },
    {
      "midi": 46,
      "hit": false,
      "t": 68528.62282500003,
      "d": 551.1908895833476,
      "v": 32
    },
    {
      "midi": 53,
      "hit": false,
      "t": 68924.45645520838,
      "d": 368.4526572916657,
      "v": 29
    },
    {
      "midi": 65,
      "hit": false,
      "t": 69303.62340625004,
      "d": 504.76228333332983,
      "v": 32
    },
    {
      "midi": 69,
      "hit": false,
      "t": 69312.55198437504,
      "d": 505.35752187500475,
      "v": 31
    },
    {
      "midi": 57,
      "hit": false,
      "t": 69330.40914062504,
      "d": 362.5002718750038,
      "v": 38
    },
    {
      "midi": 60,
      "hit": false,
      "t": 69736.36182604171,
      "d": 83.33339583332418,
      "v": 35
    },
    {
      "midi": 69,
      "hit": false,
      "t": 70215.52885208337,
      "d": 847.024444791663,
      "v": 32
    },
    {
      "midi": 51,
      "hit": false,
      "t": 70218.5050447917,
      "d": 1883.9299843749905,
      "v": 29
    },
    {
      "midi": 65,
      "hit": false,
      "t": 70220.88599895837,
      "d": 825.5958572916716,
      "v": 30
    },
    {
      "midi": 60,
      "hit": false,
      "t": 70231.60029270838,
      "d": 510.1194302083313,
      "v": 27
    },
    {
      "midi": 61,
      "hit": false,
      "t": 70234.5764854167,
      "d": 826.1910958333319,
      "v": 12
    },
    {
      "midi": 58,
      "hit": false,
      "t": 70718.5054197917,
      "d": 350.00026249999064,
      "v": 42
    },
    {
      "midi": 61,
      "hit": false,
      "t": 71323.8630166667,
      "d": 369.04789583332604,
      "v": 29
    },
    {
      "midi": 60,
      "hit": false,
      "t": 71344.69636562503,
      "d": 816.6672791666642,
      "v": 28
    },
    {
      "midi": 69,
      "hit": false,
      "t": 71352.4344666667,
      "d": 327.9764364583243,
      "v": 28
    },
    {
      "midi": 65,
      "hit": false,
      "t": 71361.3630447917,
      "d": 357.1431250000023,
      "v": 29
    },
    {
      "midi": 65,
      "hit": false,
      "t": 72057.7921385417,
      "d": 245.83351770833542,
      "v": 44
    },
    {
      "midi": 67,
      "hit": false,
      "t": 72295.88755520836,
      "d": 140.47629583334492,
      "v": 57
    },
    {
      "midi": 66,
      "hit": false,
      "t": 72660.76878125004,
      "d": 760.119617708333,
      "v": 59
    },
    {
      "midi": 55,
      "hit": false,
      "t": 72661.3640197917,
      "d": 823.214903125001,
      "v": 40
    },
    {
      "midi": 61,
      "hit": false,
      "t": 72662.55449687503,
      "d": 1105.9532104166574,
      "v": 48
    },
    {
      "midi": 69,
      "hit": false,
      "t": 72664.9354510417,
      "d": 453.57176875000005,
      "v": 71
    },
    {
      "midi": 72,
      "hit": false,
      "t": 73195.88823020837,
      "d": 379.762189583329,
      "v": 71
    },
    {
      "midi": 69,
      "hit": false,
      "t": 73437.55507812503,
      "d": 205.35729687499406,
      "v": 66
    },
    {
      "midi": 76,
      "hit": false,
      "t": 73859.57920416669,
      "d": 714.881488541665,
      "v": 36
    },
    {
      "midi": 68,
      "hit": false,
      "t": 73863.74587395835,
      "d": 651.786203124997,
      "v": 37
    },
    {
      "midi": 71,
      "hit": false,
      "t": 73866.72206666668,
      "d": 644.0481020833395,
      "v": 42
    },
    {
      "midi": 64,
      "hit": false,
      "t": 73867.91254375002,
      "d": 572.0242385416641,
      "v": 44
    },
    {
      "midi": 54,
      "hit": false,
      "t": 73888.74589270835,
      "d": 1694.6441281250009,
      "v": 43
    },
    {
      "midi": 60,
      "hit": false,
      "t": 73891.72208541668,
      "d": 1679.1679260416713,
      "v": 32
    },
    {
      "midi": 74,
      "hit": false,
      "t": 75335.77078750002,
      "d": 347.02406979167426,
      "v": 47
    },
    {
      "midi": 76,
      "hit": false,
      "t": 75661.36626979169,
      "d": 164.2858375000069,
      "v": 62
    },
    {
      "midi": 71,
      "hit": false,
      "t": 76043.5094135417,
      "d": 302.38117916668125,
      "v": 60
    },
    {
      "midi": 77,
      "hit": false,
      "t": 76045.89036770837,
      "d": 254.76209583334276,
      "v": 66
    },
    {
      "midi": 64,
      "hit": false,
      "t": 76051.84275312503,
      "d": 266.07162812502065,
      "v": 47
    },
    {
      "midi": 65,
      "hit": false,
      "t": 76059.5808541667,
      "d": 225.00016875000438,
      "v": 53
    },
    {
      "midi": 59,
      "hit": false,
      "t": 76062.55704687504,
      "d": 285.1192614583415,
      "v": 33
    },
    {
      "midi": 53,
      "hit": false,
      "t": 76081.60468020837,
      "d": 304.76213333333726,
      "v": 22
    },
    {
      "midi": 74,
      "hit": false,
      "t": 76349.46202395837,
      "d": 108.33341458333598,
      "v": 57
    },
    {
      "midi": 76,
      "hit": false,
      "t": 76656.60511145837,
      "d": 313.0954729166551,
      "v": 56
    },
    {
      "midi": 64,
      "hit": false,
      "t": 76668.5098822917,
      "d": 427.3812729166384,
      "v": 50
    },
    {
      "midi": 58,
      "hit": false,
      "t": 76678.62893750003,
      "d": 248.80971041666635,
      "v": 38
    },
    {
      "midi": 62,
      "hit": false,
      "t": 76682.7956072917,
      "d": 233.92874687499716,
      "v": 30
    },
    {
      "midi": 52,
      "hit": false,
      "t": 76684.5813229167,
      "d": 275.0002062499989,
      "v": 34
    },
    {
      "midi": 68,
      "hit": false,
      "t": 76695.89085520836,
      "d": 237.500178125003,
      "v": 27
    },
    {
      "midi": 72,
      "hit": false,
      "t": 76978.62916250002,
      "d": 95.23816666666244,
      "v": 58
    },
    {
      "midi": 41,
      "hit": false,
      "t": 77294.70082812502,
      "d": 479.76226458331803,
      "v": 36
    },
    {
      "midi": 74,
      "hit": false,
      "t": 77394.700903125,
      "d": 366.6669416666555,
      "v": 52
    },
    {
      "midi": 63,
      "hit": false,
      "t": 77396.48661875,
      "d": 570.2385229166684,
      "v": 37
    },
    {
      "midi": 71,
      "hit": false,
      "t": 77400.65328854167,
      "d": 192.85728749999544,
      "v": 29
    },
    {
      "midi": 67,
      "hit": false,
      "t": 77414.93901354166,
      "d": 532.7384947916726,
      "v": 34
    },
    {
      "midi": 57,
      "hit": false,
      "t": 77451.843803125,
      "d": 422.61936458334094,
      "v": 39
    },
    {
      "midi": 71,
      "hit": false,
      "t": 77823.86789166667,
      "d": 150.00011249999807,
      "v": 49
    },
    {
      "midi": 72,
      "hit": false,
      "t": 78314.93968854166,
      "d": 653.5719187499926,
      "v": 41
    },
    {
      "midi": 62,
      "hit": false,
      "t": 78320.89207395833,
      "d": 984.5245479166624,
      "v": 30
    },
    {
      "midi": 67,
      "hit": false,
      "t": 78327.43969791666,
      "d": 905.3578218749899,
      "v": 35
    },
    {
      "midi": 56,
      "hit": false,
      "t": 78345.89209270832,
      "d": 345.833592708339,
      "v": 29
    },
    {
      "midi": 46,
      "hit": false,
      "t": 78364.93972604166,
      "d": 144.64296562499658,
      "v": 25
    },
    {
      "midi": 69,
      "hit": false,
      "t": 78991.72591041666,
      "d": 288.6906927083328,
      "v": 41
    },
    {
      "midi": 39,
      "hit": false,
      "t": 79805.41699687499,
      "d": 165.47631458334217,
      "v": 31
    },
    {
      "midi": 70,
      "hit": false,
      "t": 79822.67891458333,
      "d": 155.95249791667447,
      "v": 34
    },
    {
      "midi": 46,
      "hit": false,
      "t": 79834.58368541667,
      "d": 155.95249791667447,
      "v": 27
    },
    {
      "midi": 61,
      "hit": false,
      "t": 80231.60779270834,
      "d": 154.16678229166428,
      "v": 23
    },
    {
      "midi": 70,
      "hit": false,
      "t": 80243.51256354168,
      "d": 164.28583749999234,
      "v": 35
    },
    {
      "midi": 39,
      "hit": false,
      "t": 80251.84590312501,
      "d": 136.90486458332452,
      "v": 30
    },
    {
      "midi": 46,
      "hit": false,
      "t": 80261.36971979168,
      "d": 156.5477364583203,
      "v": 25
    },
    {
      "midi": 65,
      "hit": false,
      "t": 80268.51258229167,
      "d": 113.09532291666255,
      "v": 35
    },
    {
      "midi": 61,
      "hit": false,
      "t": 80685.7748,
      "d": 357.1431249999878,
      "v": 23
    },
    {
      "midi": 70,
      "hit": false,
      "t": 80690.53670833333,
      "d": 452.3812916666502,
      "v": 35
    },
    {
      "midi": 46,
      "hit": false,
      "t": 80700.65576354165,
      "d": 323.80976666667266,
      "v": 31
    },
    {
      "midi": 65,
      "hit": false,
      "t": 80715.53672708332,
      "d": 377.38123541665846,
      "v": 30
    },
    {
      "midi": 55,
      "hit": false,
      "t": 81089.94176979165,
      "d": 370.8336114583217,
      "v": 32
    },
    {
      "midi": 58,
      "hit": false,
      "t": 81532.79924479163,
      "d": 1650.5964760416973,
      "v": 31
    },
    {
      "midi": 82,
      "hit": false,
      "t": 81923.87096666664,
      "d": 376.78599687501264,
      "v": 47
    },
    {
      "midi": 70,
      "hit": false,
      "t": 81952.44241666664,
      "d": 319.0478583333461,
      "v": 30
    },
    {
      "midi": 65,
      "hit": false,
      "t": 81957.79956354164,
      "d": 260.7144812500046,
      "v": 24
    },
    {
      "midi": 82,
      "hit": false,
      "t": 82506.60949895832,
      "d": 641.0719093750085,
      "v": 39
    },
    {
      "midi": 70,
      "hit": false,
      "t": 82543.51428854166,
      "d": 655.3576343750028,
      "v": 20
    },
    {
      "midi": 65,
      "hit": false,
      "t": 82544.70476562499,
      "d": 504.16704479166947,
      "v": 26
    },
    {
      "midi": 69,
      "hit": false,
      "t": 83816.72952916667,
      "d": 844.6434906250215,
      "v": 47
    },
    {
      "midi": 65,
      "hit": false,
      "t": 83898.87244791667,
      "d": 753.5719937500253,
      "v": 47
    },
    {
      "midi": 60,
      "hit": false,
      "t": 83992.92013750001,
      "d": 453.5717687500146,
      "v": 34
    },
    {
      "midi": 50,
      "hit": false,
      "t": 84004.82490833335,
      "d": 1222.0247260416654,
      "v": 24
    },
    {
      "midi": 57,
      "hit": false,
      "t": 84461.3728697917,
      "d": 705.3576718749973,
      "v": 32
    },
    {
      "midi": 69,
      "hit": false,
      "t": 84851.84935312503,
      "d": 316.66690416666097,
      "v": 63
    },
    {
      "midi": 65,
      "hit": false,
      "t": 84858.39697708336,
      "d": 389.28600624998217,
      "v": 68
    },
    {
      "midi": 60,
      "hit": false,
      "t": 84870.89698645836,
      "d": 251.78590312499728,
      "v": 31
    },
    {
      "midi": 67,
      "hit": false,
      "t": 85198.87342291669,
      "d": 447.61938333332364,
      "v": 66
    },
    {
      "midi": 64,
      "hit": false,
      "t": 85207.80200104168,
      "d": 120.8334239583346,
      "v": 65
    },
    {
      "midi": 62,
      "hit": false,
      "t": 85687.56426562501,
      "d": 1026.191245833339,
      "v": 37
    },
    {
      "midi": 65,
      "hit": false,
      "t": 85693.51665104167,
      "d": 1735.1203489583422,
      "v": 38
    },
    {
      "midi": 43,
      "hit": false,
      "t": 85709.58809166668,
      "d": 469.0479708333296,
      "v": 24
    },
    {
      "midi": 53,
      "hit": false,
      "t": 85715.54047708334,
      "d": 430.35746562499844,
      "v": 20
    },
    {
      "midi": 50,
      "hit": false,
      "t": 86153.63604375001,
      "d": 70.23814791666518,
      "v": 37
    },
    {
      "midi": 59,
      "hit": false,
      "t": 86676.85072187502,
      "d": 980.9531166666711,
      "v": 42
    },
    {
      "midi": 69,
      "hit": false,
      "t": 87466.73226666669,
      "d": 910.1197302083456,
      "v": 36
    },
    {
      "midi": 73,
      "hit": false,
      "t": 88099.47083645836,
      "d": 1154.1675322916708,
      "v": 46
    },
    {
      "midi": 45,
      "hit": false,
      "t": 88146.49468125003,
      "d": 1098.8103479166748,
      "v": 39
    },
    {
      "midi": 52,
      "hit": false,
      "t": 88589.35215625004,
      "d": 1032.1436312499718,
      "v": 27
    },
    {
      "midi": 64,
      "hit": false,
      "t": 88967.32863020837,
      "d": 702.3814791666373,
      "v": 48
    },
    {
      "midi": 57,
      "hit": false,
      "t": 88988.1619791667,
      "d": 717.2624427083065,
      "v": 37
    },
    {
      "midi": 73,
      "hit": false,
      "t": 89335.18604895836,
      "d": 252.976380208318,
      "v": 56
    },
    {
      "midi": 45,
      "hit": false,
      "t": 89360.18606770836,
      "d": 187.50014062499395,
      "v": 38
    },
    {
      "midi": 73,
      "hit": false,
      "t": 89679.23392604168,
      "d": 1449.4058489582967,
      "v": 57
    },
    {
      "midi": 45,
      "hit": false,
      "t": 89714.353,
      "d": 1247.0247447916481,
      "v": 59
    },
    {
      "midi": 54,
      "hit": false,
      "t": 90028.63895,
      "d": 717.857681249996,
      "v": 47
    },
    {
      "midi": 57,
      "hit": false,
      "t": 90379.23445104166,
      "d": 496.4289437499974,
      "v": 59
    },
    {
      "midi": 62,
      "hit": false,
      "t": 90755.42520937498,
      "d": 207.73825104166463,
      "v": 41
    },
    {
      "midi": 66,
      "hit": false,
      "t": 90756.61568645832,
      "d": 275.59544479165925,
      "v": 55
    },
    {
      "midi": 45,
      "hit": false,
      "t": 91060.1873427083,
      "d": 1298.2152593750216,
      "v": 59
    },
    {
      "midi": 62,
      "hit": false,
      "t": 91140.54454583331,
      "d": 1482.1439687500242,
      "v": 48
    },
    {
      "midi": 53,
      "hit": false,
      "t": 91141.13978437497,
      "d": 1510.1201802083524,
      "v": 22
    },
    {
      "midi": 65,
      "hit": false,
      "t": 91180.42552812498,
      "d": 1464.8820510416845,
      "v": 48
    },
    {
      "midi": 68,
      "hit": false,
      "t": 91209.59221666664,
      "d": 1479.7630145833537,
      "v": 62
    },
    {
      "midi": 56,
      "hit": false,
      "t": 91254.23510729165,
      "d": 1139.2865687500162,
      "v": 63
    },
    {
      "midi": 73,
      "hit": false,
      "t": 91256.61606145832,
      "d": 358.928840624998,
      "v": 43
    },
    {
      "midi": 73,
      "hit": false,
      "t": 91703.64020624998,
      "d": 350.0002625000052,
      "v": 51
    },
    {
      "midi": 73,
      "hit": false,
      "t": 92151.25958958332,
      "d": 229.1668385416706,
      "v": 39
    },
    {
      "midi": 73,
      "hit": false,
      "t": 92588.16467916667,
      "d": 382.14314374998503,
      "v": 39
    },
    {
      "midi": 73,
      "hit": false,
      "t": 93163.16511041665,
      "d": 2033.3348583333136,
      "v": 34
    },
    {
      "midi": 45,
      "hit": false,
      "t": 93197.68894583332,
      "d": 2626.7876843749837,
      "v": 53
    },
    {
      "midi": 54,
      "hit": false,
      "t": 93669.71310937496,
      "d": 2252.977880208331,
      "v": 34
    },
    {
      "midi": 66,
      "hit": false,
      "t": 94266.14212812496,
      "d": 869.0482708333293,
      "v": 23
    },
    {
      "midi": 64,
      "hit": false,
      "t": 94270.30879791663,
      "d": 752.9767552083358,
      "v": 36
    },
    {
      "midi": 57,
      "hit": false,
      "t": 94313.16597291663,
      "d": 1651.1917145833286,
      "v": 33
    },
    {
      "midi": 73,
      "hit": false,
      "t": 95924.47670520829,
      "d": 375.00028125000244,
      "v": 38
    },
    {
      "midi": 74,
      "hit": false,
      "t": 96438.16756666663,
      "d": 201.1906270833133,
      "v": 46
    },
    {
      "midi": 69,
      "hit": false,
      "t": 96447.6913833333,
      "d": 139.88105729165545,
      "v": 30
    },
    {
      "midi": 57,
      "hit": false,
      "t": 96453.64376874996,
      "d": 157.73821354165557,
      "v": 40
    },
    {
      "midi": 57,
      "hit": false,
      "t": 96878.64408749994,
      "d": 187.50014062499395,
      "v": 31
    },
    {
      "midi": 81,
      "hit": false,
      "t": 97228.64434999993,
      "d": 654.7623958333425,
      "v": 54
    },
    {
      "midi": 78,
      "hit": false,
      "t": 97249.47769895826,
      "d": 670.238597916672,
      "v": 51
    },
    {
      "midi": 69,
      "hit": false,
      "t": 97262.57294687493,
      "d": 585.714724999998,
      "v": 37
    },
    {
      "midi": 57,
      "hit": false,
      "t": 97613.1684479166,
      "d": 147.02391979166714,
      "v": 40
    },
    {
      "midi": 57,
      "hit": false,
      "t": 98283.40704583327,
      "d": 416.07174062500417,
      "v": 53
    },
    {
      "midi": 81,
      "hit": false,
      "t": 98634.59778541661,
      "d": 392.85743750000256,
      "v": 59
    },
    {
      "midi": 69,
      "hit": false,
      "t": 98645.31207916662,
      "d": 479.1670260416722,
      "v": 55
    },
    {
      "midi": 78,
      "hit": false,
      "t": 98646.50255624995,
      "d": 573.2147156249994,
      "v": 54
    },
    {
      "midi": 74,
      "hit": false,
      "t": 98670.31209791661,
      "d": 355.95264791666705,
      "v": 41
    },
    {
      "midi": 57,
      "hit": false,
      "t": 98983.40757083328,
      "d": 245.83351770833542,
      "v": 64
    },
    {
      "midi": 80,
      "hit": false,
      "t": 99337.57450312495,
      "d": 644.0481020833249,
      "v": 65
    },
    {
      "midi": 57,
      "hit": false,
      "t": 99353.64594374996,
      "d": 172.0239385416644,
      "v": 54
    },
    {
      "midi": 76,
      "hit": false,
      "t": 99357.21737499996,
      "d": 569.0480458333186,
      "v": 68
    },
    {
      "midi": 73,
      "hit": false,
      "t": 99362.57452187497,
      "d": 557.1432749999803,
      "v": 45
    },
    {
      "midi": 69,
      "hit": false,
      "t": 99364.36023749996,
      "d": 501.190852083324,
      "v": 57
    },
    {
      "midi": 57,
      "hit": false,
      "t": 99738.17004166661,
      "d": 327.9764364583243,
      "v": 46
    },
    {
      "midi": 78,
      "hit": false,
      "t": 100065.55123958328,
      "d": 297.6192708333256,
      "v": 54
    },
    {
      "midi": 69,
      "hit": false,
      "t": 100088.1703041666,
      "d": 348.214546874995,
      "v": 33
    },
    {
      "midi": 74,
      "hit": false,
      "t": 100096.50364374994,
      "d": 214.88111354166176,
      "v": 38
    },
    {
      "midi": 57,
      "hit": false,
      "t": 100411.3848322916,
      "d": 130.95247916666267,
      "v": 39
    },
    {
      "midi": 57,
      "hit": false,
      "t": 101141.14728437494,
      "d": 309.52404166666383,
      "v": 46
    },
    {
      "midi": 76,
      "hit": false,
      "t": 101508.40946458327,
      "d": 392.26219895832764,
      "v": 50
    },
    {
      "midi": 69,
      "hit": false,
      "t": 101520.3142354166,
      "d": 339.8812072916626,
      "v": 32
    },
    {
      "midi": 73,
      "hit": false,
      "t": 101527.4570979166,
      "d": 379.1669510416541,
      "v": 32
    },
    {
      "midi": 57,
      "hit": false,
      "t": 101875.6716447916,
      "d": 161.90488333332178,
      "v": 55
    },
    {
      "midi": 79,
      "hit": false,
      "t": 102255.43383437493,
      "d": 732.1434062500048,
      "v": 62
    },
    {
      "midi": 73,
      "hit": false,
      "t": 102277.45766041659,
      "d": 1964.8824260416732,
      "v": 51
    },
    {
      "midi": 57,
      "hit": false,
      "t": 102278.64813749993,
      "d": 213.69063645834103,
      "v": 49
    },
    {
      "midi": 76,
      "hit": false,
      "t": 102282.21956874993,
      "d": 1508.3344645833422,
      "v": 50
    },
    {
      "midi": 70,
      "hit": false,
      "t": 102291.14814687493,
      "d": 722.0243510416767,
      "v": 59
    },
    {
      "midi": 57,
      "hit": false,
      "t": 102682.21986874993,
      "d": 432.14318125000864,
      "v": 57
    },
    {
      "midi": 70,
      "hit": false,
      "t": 103074.48206770828,
      "d": 938.6911802083341,
      "v": 36
    },
    {
      "midi": 78,
      "hit": false,
      "t": 103075.67254479161,
      "d": 785.7148750000051,
      "v": 60
    },
    {
      "midi": 57,
      "hit": false,
      "t": 103402.45850416661,
      "d": 310.7145187499991,
      "v": 58
    },
    {
      "midi": 57,
      "hit": false,
      "t": 104126.26857083327,
      "d": 419.04793333332054,
      "v": 52
    },
    {
      "midi": 70,
      "hit": false,
      "t": 104480.43550312493,
      "d": 288.0954541666579,
      "v": 39
    },
    {
      "midi": 76,
      "hit": false,
      "t": 104481.62598020826,
      "d": 319.047858333317,
      "v": 53
    },
    {
      "midi": 73,
      "hit": false,
      "t": 104518.5307697916,
      "d": 272.61925208331377,
      "v": 14
    },
    {
      "midi": 74,
      "hit": false,
      "t": 104844.72149062491,
      "d": 81.54768020834308,
      "v": 57
    },
    {
      "midi": 57,
      "hit": false,
      "t": 104874.48341770825,
      "d": 170.83346145834366,
      "v": 38
    },
    {
      "midi": 76,
      "hit": false,
      "t": 105264.36466249994,
      "d": 2279.168376041678,
      "v": 37
    },
    {
      "midi": 66,
      "hit": false,
      "t": 105273.29324062493,
      "d": 2199.4064114583452,
      "v": 33
    },
    {
      "midi": 73,
      "hit": false,
      "t": 105291.15039687493,
      "d": 2258.335027083347,
      "v": 29
    },
    {
      "midi": 69,
      "hit": false,
      "t": 105297.69802083327,
      "d": 2197.0254572916747,
      "v": 32
    },
    {
      "midi": 57,
      "hit": false,
      "t": 105640.55542083328,
      "d": 354.76217083333177,
      "v": 40
    },
    {
      "midi": 57,
      "hit": false,
      "t": 106337.57975312494,
      "d": 610.1195052083349,
      "v": 31
    },
    {
      "midi": 45,
      "hit": false,
      "t": 106712.58003437494,
      "d": 1222.0247260416654,
      "v": 45
    },
    {
      "midi": 57,
      "hit": false,
      "t": 107118.5327197916,
      "d": 357.73836354167724,
      "v": 62
    },
    {
      "midi": 57,
      "hit": false,
      "t": 107791.15227187495,
      "d": 296.4287937499903,
      "v": 65
    },
    {
      "midi": 57,
      "hit": false,
      "t": 108182.22399374994,
      "d": 329.16691354167415,
      "v": 67
    },
    {
      "midi": 71,
      "hit": false,
      "t": 108187.58114062494,
      "d": 604.7623583333334,
      "v": 74
    },
    {
      "midi": 68,
      "hit": false,
      "t": 108191.15257187495,
      "d": 612.5004593749909,
      "v": 74
    },
    {
      "midi": 65,
      "hit": false,
      "t": 108192.34304895828,
      "d": 577.976623958326,
      "v": 77
    },
    {
      "midi": 57,
      "hit": false,
      "t": 108610.20050520828,
      "d": 508.3337145833211,
      "v": 82
    },
    {
      "midi": 77,
      "hit": false,
      "t": 109292.34387395826,
      "d": 1455.953472916648,
      "v": 72
    },
    {
      "midi": 68,
      "hit": false,
      "t": 109301.27245208326,
      "d": 1536.9059145833307,
      "v": 78
    },
    {
      "midi": 71,
      "hit": false,
      "t": 109303.65340624993,
      "d": 1612.5012093749974,
      "v": 74
    },
    {
      "midi": 74,
      "hit": false,
      "t": 109307.22483749993,
      "d": 1436.3106010416523,
      "v": 68
    },
    {
      "midi": 57,
      "hit": false,
      "t": 109311.3915072916,
      "d": 302.97641770832706,
      "v": 81
    },
    {
      "midi": 57,
      "hit": false,
      "t": 109943.53483854159,
      "d": 310.11928020833875,
      "v": 96
    },
    {
      "midi": 57,
      "hit": false,
      "t": 110387.58279062492,
      "d": 235.11922395833244,
      "v": 80
    },
    {
      "midi": 57,
      "hit": false,
      "t": 110769.72593437492,
      "d": 190.47633333333943,
      "v": 68
    },
    {
      "midi": 76,
      "hit": false,
      "t": 111140.55954583327,
      "d": 1011.9055208333302,
      "v": 64
    },
    {
      "midi": 73,
      "hit": false,
      "t": 111141.15478437493,
      "d": 962.5007218749961,
      "v": 51
    },
    {
      "midi": 68,
      "hit": false,
      "t": 111143.5357385416,
      "d": 926.1911708333209,
      "v": 58
    },
    {
      "midi": 57,
      "hit": false,
      "t": 111165.55956458327,
      "d": 250.00018750000163,
      "v": 64
    },
    {
      "midi": 57,
      "hit": false,
      "t": 111575.6789197916,
      "d": 427.9765114583279,
      "v": 46
    },
    {
      "midi": 74,
      "hit": false,
      "t": 112239.36989374993,
      "d": 161.90488333332178,
      "v": 50
    },
    {
      "midi": 68,
      "hit": false,
      "t": 112241.15560937492,
      "d": 131.54771770832303,
      "v": 36
    },
    {
      "midi": 57,
      "hit": false,
      "t": 112256.63181145825,
      "d": 706.548148958318,
      "v": 44
    },
    {
      "midi": 73,
      "hit": false,
      "t": 112672.70355208324,
      "d": 1362.5010218750103,
      "v": 34
    },
    {
      "midi": 64,
      "hit": false,
      "t": 112683.41784583325,
      "d": 782.7386822916596,
      "v": 46
    },
    {
      "midi": 45,
      "hit": false,
      "t": 112703.65595624992,
      "d": 1498.8106479166745,
      "v": 37
    },
    {
      "midi": 57,
      "hit": false,
      "t": 113117.34674270824,
      "d": 320.2383354166668,
      "v": 44
    },
    {
      "midi": 64,
      "hit": false,
      "t": 113821.51393749991,
      "d": 107.73817604167562,
      "v": 42
    },
    {
      "midi": 57,
      "hit": false,
      "t": 113832.22823124992,
      "d": 166.07155312500254,
      "v": 41
    },
    {
      "midi": 76,
      "hit": false,
      "t": 114246.51425624992,
      "d": 939.8816572916694,
      "v": 56
    },
    {
      "midi": 66,
      "hit": false,
      "t": 114267.34760520827,
      "d": 848.2149218749837,
      "v": 37
    },
    {
      "midi": 57,
      "hit": false,
      "t": 114277.4666604166,
      "d": 157.1429749999952,
      "v": 42
    },
    {
      "midi": 69,
      "hit": false,
      "t": 114284.6095229166,
      "d": 881.5482802083279,
      "v": 34
    },
    {
      "midi": 73,
      "hit": false,
      "t": 114315.56192708327,
      "d": 832.7387197916541,
      "v": 15
    },
    {
      "midi": 57,
      "hit": false,
      "t": 114679.2526760416,
      "d": 355.95264791666705,
      "v": 41
    },
    {
      "midi": 74,
      "hit": false,
      "t": 115361.39604479159,
      "d": 102.97626770833449,
      "v": 36
    },
    {
      "midi": 66,
      "hit": false,
      "t": 115373.30081562493,
      "d": 125.00009374998626,
      "v": 30
    },
    {
      "midi": 69,
      "hit": false,
      "t": 115381.63415520826,
      "d": 97.02388229165808,
      "v": 35
    },
    {
      "midi": 57,
      "hit": false,
      "t": 115388.1817791666,
      "d": 161.30964479164686,
      "v": 30
    },
    {
      "midi": 73,
      "hit": false,
      "t": 115855.44403437492,
      "d": 925.0006937500002,
      "v": 34
    },
    {
      "midi": 62,
      "hit": false,
      "t": 115875.68214479159,
      "d": 804.762508333326,
      "v": 24
    },
    {
      "midi": 68,
      "hit": false,
      "t": 115881.63453020825,
      "d": 906.5482989583397,
      "v": 48
    },
    {
      "midi": 65,
      "hit": false,
      "t": 115885.20596145825,
      "d": 850.0006374999939,
      "v": 40
    },
    {
      "midi": 57,
      "hit": false,
      "t": 115895.32501666658,
      "d": 245.83351770833542,
      "v": 39
    },
    {
      "midi": 57,
      "hit": false,
      "t": 116378.65871249992,
      "d": 192.85728749999544,
      "v": 37
    },
    {
      "midi": 71,
      "hit": false,
      "t": 117035.20682395826,
      "d": 187.5001406250085,
      "v": 40
    },
    {
      "midi": 57,
      "hit": false,
      "t": 117062.58779687493,
      "d": 507.73847604166076,
      "v": 40
    },
    {
      "midi": 65,
      "hit": false,
      "t": 117069.13542083326,
      "d": 333.3335833333258,
      "v": 29
    },
    {
      "midi": 62,
      "hit": false,
      "t": 117072.70685208327,
      "d": 293.45260104165936,
      "v": 31
    },
    {
      "midi": 45,
      "hit": false,
      "t": 117552.46911666659,
      "d": 832.7387197916687,
      "v": 36
    },
    {
      "midi": 69,
      "hit": false,
      "t": 117592.35009895825,
      "d": 1492.8582624999835,
      "v": 32
    },
    {
      "midi": 57,
      "hit": false,
      "t": 117996.51706874992,
      "d": 269.6430593749974,
      "v": 37
    },
    {
      "midi": 61,
      "hit": false,
      "t": 118392.35069895825,
      "d": 700.0005249999813,
      "v": 37
    },
    {
      "midi": 44,
      "hit": false,
      "t": 118714.37474999992,
      "d": 169.04774583333347,
      "v": 57
    },
    {
      "midi": 43,
      "hit": false,
      "t": 118951.27968958324,
      "d": 198.21443437499693,
      "v": 41
    },
    {
      "midi": 42,
      "hit": false,
      "t": 119089.3750312499,
      "d": 161.30964479167596,
      "v": 39
    },
    {
      "midi": 41,
      "hit": false,
      "t": 119260.20849270825,
      "d": 266.07162812499155,
      "v": 50
    },
    {
      "midi": 40,
      "hit": false,
      "t": 119432.23243124991,
      "d": 161.90488333332178,
      "v": 43
    },
    {
      "midi": 39,
      "hit": false,
      "t": 119600.68493854157,
      "d": 1218.4532947916596,
      "v": 51
    },
    {
      "midi": 61,
      "hit": false,
      "t": 119615.56590208324,
      "d": 950.5959510416578,
      "v": 35
    },
    {
      "midi": 69,
      "hit": false,
      "t": 119630.44686562491,
      "d": 1245.8342677083274,
      "v": 38
    },
    {
      "midi": 65,
      "hit": false,
      "t": 119640.56592083324,
      "d": 961.9054833333212,
      "v": 46
    },
    {
      "midi": 69,
      "hit": false,
      "t": 121407.2339124999,
      "d": 444.04795208333235,
      "v": 74
    },
    {
      "midi": 66,
      "hit": false,
      "t": 121902.47237916656,
      "d": 289.88116979166807,
      "v": 58
    },
    {
      "midi": 71,
      "hit": false,
      "t": 121902.47237916656,
      "d": 341.6669229166728,
      "v": 60
    },
    {
      "midi": 50,
      "hit": false,
      "t": 121947.71050833323,
      "d": 961.9054833333503,
      "v": 36
    },
    {
      "midi": 57,
      "hit": false,
      "t": 122271.5202749999,
      "d": 1261.9057083333464,
      "v": 64
    },
    {
      "midi": 81,
      "hit": false,
      "t": 122647.71103333324,
      "d": 351.78597812500084,
      "v": 82
    },
    {
      "midi": 50,
      "hit": false,
      "t": 123083.42564583324,
      "d": 129.16676354166702,
      "v": 30
    },
    {
      "midi": 81,
      "hit": false,
      "t": 123101.28280208324,
      "d": 244.04780208333977,
      "v": 64
    },
    {
      "midi": 81,
      "hit": false,
      "t": 123553.66409374992,
      "d": 337.500253124992,
      "v": 50
    },
    {
      "midi": 51,
      "hit": false,
      "t": 123556.64028645825,
      "d": 2050.5967760416534,
      "v": 43
    },
    {
      "midi": 72,
      "hit": false,
      "t": 123576.28315833324,
      "d": 377.38123541665846,
      "v": 34
    },
    {
      "midi": 57,
      "hit": false,
      "t": 123987.59299062491,
      "d": 355.95264791666705,
      "v": 41
    },
    {
      "midi": 63,
      "hit": false,
      "t": 124443.54571354158,
      "d": 323.8097666666581,
      "v": 36
    },
    {
      "midi": 60,
      "hit": false,
      "t": 124450.68857604158,
      "d": 1530.9535291666543,
      "v": 27
    },
    {
      "midi": 66,
      "hit": false,
      "t": 124455.4504843749,
      "d": 342.26216145833314,
      "v": 44
    },
    {
      "midi": 81,
      "hit": false,
      "t": 125543.54653854157,
      "d": 144.04772708332166,
      "v": 62
    },
    {
      "midi": 80,
      "hit": false,
      "t": 126008.42783958322,
      "d": 1273.8104791666701,
      "v": 39
    },
    {
      "midi": 52,
      "hit": false,
      "t": 126017.35641770822,
      "d": 838.0958666666702,
      "v": 32
    },
    {
      "midi": 59,
      "hit": false,
      "t": 126390.57098333322,
      "d": 297.0240322916652,
      "v": 20
    },
    {
      "midi": 64,
      "hit": false,
      "t": 126753.66649374989,
      "d": 125.00009375000081,
      "v": 33
    },
    {
      "midi": 78,
      "hit": false,
      "t": 127125.69058229156,
      "d": 310.7145187499991,
      "v": 45
    },
    {
      "midi": 76,
      "hit": false,
      "t": 127656.64336145822,
      "d": 419.64317187501,
      "v": 38
    },
    {
      "midi": 54,
      "hit": false,
      "t": 127666.16717812489,
      "d": 145.2382041666715,
      "v": 36
    },
    {
      "midi": 66,
      "hit": false,
      "t": 128032.2388812499,
      "d": 73.21434062499611,
      "v": 36
    },
    {
      "midi": 67,
      "hit": false,
      "t": 128120.33418541656,
      "d": 100.00007499998901,
      "v": 43
    },
    {
      "midi": 72,
      "hit": false,
      "t": 128197.71519583323,
      "d": 141.6667729166511,
      "v": 51
    },
    {
      "midi": 76,
      "hit": false,
      "t": 128312.59623437488,
      "d": 82.73815729166381,
      "v": 51
    },
    {
      "midi": 78,
      "hit": false,
      "t": 128404.26296979154,
      "d": 88.09530416667985,
      "v": 38
    },
    {
      "midi": 79,
      "hit": false,
      "t": 128479.26302604155,
      "d": 95.23816666667699,
      "v": 56
    },
    {
      "midi": 84,
      "hit": false,
      "t": 128583.42977083322,
      "d": 104.76198333333014,
      "v": 52
    },
    {
      "midi": 88,
      "hit": false,
      "t": 128671.52507499988,
      "d": 69.64290937500482,
      "v": 53
    },
    {
      "midi": 90,
      "hit": false,
      "t": 128763.19181041655,
      "d": 102.38102916667413,
      "v": 51
    },
    {
      "midi": 91,
      "hit": false,
      "t": 128864.38236249989,
      "d": 120.8334239583346,
      "v": 34
    },
    {
      "midi": 96,
      "hit": false,
      "t": 128928.6681249999,
      "d": 172.0239385416644,
      "v": 36
    },
    {
      "midi": 100,
      "hit": false,
      "t": 128996.52531874989,
      "d": 269.6430593749974,
      "v": 62
    },
    {
      "midi": 103,
      "hit": false,
      "t": 129162.59687187489,
      "d": 148.8096354166628,
      "v": 60
    },
    {
      "midi": 79,
      "hit": false,
      "t": 130990.57443333323,
      "d": 219.64302187498834,
      "v": 48
    },
    {
      "midi": 79,
      "hit": false,
      "t": 131759.62262916655,
      "d": 288.0954541666724,
      "v": 48
    },
    {
      "midi": 71,
      "hit": false,
      "t": 131776.28930833322,
      "d": 577.3813854166656,
      "v": 42
    },
    {
      "midi": 74,
      "hit": false,
      "t": 131777.47978541654,
      "d": 807.7387010417006,
      "v": 46
    },
    {
      "midi": 64,
      "hit": false,
      "t": 131796.52741874987,
      "d": 397.6193458333437,
      "v": 30
    },
    {
      "midi": 69,
      "hit": false,
      "t": 131899.50368645822,
      "d": 282.73830729167094,
      "v": 5
    },
    {
      "midi": 78,
      "hit": false,
      "t": 132224.50393020822,
      "d": 219.04778333334252,
      "v": 58
    },
    {
      "midi": 62,
      "hit": false,
      "t": 132225.69440729154,
      "d": 275.59544479168835,
      "v": 32
    },
    {
      "midi": 76,
      "hit": false,
      "t": 132671.5280749999,
      "d": 579.1671010416758,
      "v": 52
    },
    {
      "midi": 73,
      "hit": false,
      "t": 132690.57570833323,
      "d": 416.6669791666791,
      "v": 24
    },
    {
      "midi": 57,
      "hit": false,
      "t": 132692.36142395824,
      "d": 526.7861093750107,
      "v": 39
    },
    {
      "midi": 64,
      "hit": false,
      "t": 132732.24240624992,
      "d": 377.38123541665846,
      "v": 13
    },
    {
      "midi": 74,
      "hit": false,
      "t": 133120.33793541658,
      "d": 133.92867187497905,
      "v": 54
    },
    {
      "midi": 76,
      "hit": false,
      "t": 133872.71945208323,
      "d": 254.76209583331365,
      "v": 53
    },
    {
      "midi": 47,
      "hit": false,
      "t": 133887.60041562488,
      "d": 869.0482708332711,
      "v": 39
    },
    {
      "midi": 62,
      "hit": false,
      "t": 133904.26709479155,
      "d": 673.2147906249738,
      "v": 29
    },
    {
      "midi": 67,
      "hit": false,
      "t": 134271.52927499986,
      "d": 341.6669229166582,
      "v": 55
    },
    {
      "midi": 55,
      "hit": false,
      "t": 134315.5769270832,
      "d": 160.11916770832613,
      "v": 22
    },
    {
      "midi": 68,
      "hit": false,
      "t": 134672.72005208317,
      "d": 277.9763989583298,
      "v": 48
    },
    {
      "midi": 56,
      "hit": false,
      "t": 134684.6248229165,
      "d": 827.9768114583276,
      "v": 34
    },
    {
      "midi": 71,
      "hit": false,
      "t": 135558.43500208316,
      "d": 1554.1678322917141,
      "v": 46
    },
    {
      "midi": 49,
      "hit": false,
      "t": 135568.5540572915,
      "d": 2435.7161125000275,
      "v": 27
    },
    {
      "midi": 68,
      "hit": false,
      "t": 136485.2214114582,
      "d": 587.5004406250082,
      "v": 35
    },
    {
      "midi": 56,
      "hit": false,
      "t": 136527.4833479165,
      "d": 532.1432562500122,
      "v": 27
    },
    {
      "midi": 69,
      "hit": false,
      "t": 137101.2933020832,
      "d": 683.3338458333164,
      "v": 41
    },
    {
      "midi": 57,
      "hit": false,
      "t": 137123.31712812488,
      "d": 1130.9532291666546,
      "v": 24
    },
    {
      "midi": 69,
      "hit": false,
      "t": 137929.27011354154,
      "d": 326.1907208333141,
      "v": 38
    },
    {
      "midi": 71,
      "hit": false,
      "t": 138331.6513677082,
      "d": 300.00022499999614,
      "v": 41
    },
    {
      "midi": 50,
      "hit": false,
      "t": 138338.19899166652,
      "d": 908.3340145833499,
      "v": 29
    },
    {
      "midi": 57,
      "hit": false,
      "t": 138664.38971249986,
      "d": 533.9289718749933,
      "v": 42
    },
    {
      "midi": 60,
      "hit": false,
      "t": 138985.2232864582,
      "d": 176.1906083333306,
      "v": 44
    },
    {
      "midi": 77,
      "hit": false,
      "t": 139300.69971354154,
      "d": 163.69059895834653,
      "v": 61
    },
    {
      "midi": 77,
      "hit": false,
      "t": 139689.3904812499,
      "d": 1457.1439499999397,
      "v": 44
    },
    {
      "midi": 71,
      "hit": false,
      "t": 139703.6762062499,
      "d": 662.5004968749708,
      "v": 41
    },
    {
      "midi": 65,
      "hit": false,
      "t": 139705.4619218749,
      "d": 722.0243510416185,
      "v": 29
    },
    {
      "midi": 31,
      "hit": false,
      "t": 139713.20002291657,
      "d": 166.071553124988,
      "v": 32
    },
    {
      "midi": 43,
      "hit": false,
      "t": 139714.3904999999,
      "d": 219.04778333331342,
      "v": 22
    },
    {
      "midi": 59,
      "hit": false,
      "t": 140162.60512187486,
      "d": 481.5479802083282,
      "v": 50
    },
    {
      "midi": 71,
      "hit": false,
      "t": 140612.60545937484,
      "d": 528.5718249999918,
      "v": 41
    },
    {
      "midi": 65,
      "hit": false,
      "t": 140615.58165208317,
      "d": 452.9765302083397,
      "v": 34
    },
    {
      "midi": 61,
      "hit": false,
      "t": 140617.36736770818,
      "d": 244.04780208333977,
      "v": 37
    },
    {
      "midi": 77,
      "hit": false,
      "t": 141314.39169999983,
      "d": 364.285987500014,
      "v": 45
    },
    {
      "midi": 65,
      "hit": false,
      "t": 141335.22504895818,
      "d": 130.95247916667722,
      "v": 37
    },
    {
      "midi": 76,
      "hit": false,
      "t": 142034.6303354165,
      "d": 333.92882187495707,
      "v": 38
    },
    {
      "midi": 71,
      "hit": false,
      "t": 142035.22557395816,
      "d": 400.00029999995604,
      "v": 46
    },
    {
      "midi": 64,
      "hit": false,
      "t": 142040.58272083316,
      "d": 566.071853124944,
      "v": 44
    },
    {
      "midi": 49,
      "hit": false,
      "t": 142041.17795937482,
      "d": 559.5242291666218,
      "v": 42
    },
    {
      "midi": 59,
      "hit": false,
      "t": 142091.17799687482,
      "d": 130.35724062498775,
      "v": 17
    },
    {
      "midi": 74,
      "hit": false,
      "t": 142511.41640729146,
      "d": 239.88113229165901,
      "v": 53
    },
    {
      "midi": 73,
      "hit": false,
      "t": 143077.48826041646,
      "d": 541.6670729166362,
      "v": 37
    },
    {
      "midi": 64,
      "hit": false,
      "t": 143092.3692239581,
      "d": 670.8338364583033,
      "v": 33
    },
    {
      "midi": 66,
      "hit": false,
      "t": 143103.67875624978,
      "d": 717.8576812499668,
      "v": 42
    },
    {
      "midi": 42,
      "hit": false,
      "t": 143110.2263802081,
      "d": 575.000431249995,
      "v": 27
    },
    {
      "midi": 30,
      "hit": false,
      "t": 143113.20257291643,
      "d": 488.09560416667955,
      "v": 32
    },
    {
      "midi": 73,
      "hit": false,
      "t": 143731.6554177081,
      "d": 200.00014999997802,
      "v": 47
    },
    {
      "midi": 76,
      "hit": false,
      "t": 144353.67969374976,
      "d": 752.9767552083067,
      "v": 85
    },
    {
      "midi": 64,
      "hit": false,
      "t": 144354.27493229142,
      "d": 1043.4531635416497,
      "v": 68
    },
    {
      "midi": 73,
      "hit": false,
      "t": 144357.25112499975,
      "d": 851.1911145833146,
      "v": 71
    },
    {
      "midi": 66,
      "hit": false,
      "t": 144359.63207916642,
      "d": 986.9055020833039,
      "v": 77
    },
    {
      "midi": 62,
      "hit": false,
      "t": 144360.22731770808,
      "d": 1038.0960166666482,
      "v": 55
    },
    {
      "midi": 69,
      "hit": false,
      "t": 144368.5606572914,
      "d": 750.5958010416653,
      "v": 85
    },
    {
      "midi": 74,
      "hit": false,
      "t": 145323.32327812474,
      "d": 320.8335739583126,
      "v": 83
    },
    {
      "midi": 73,
      "hit": false,
      "t": 146044.15715208306,
      "d": 669.0481208332931,
      "v": 64
    },
    {
      "midi": 66,
      "hit": false,
      "t": 146064.39526249972,
      "d": 727.9767364583095,
      "v": 71
    },
    {
      "midi": 70,
      "hit": false,
      "t": 146065.58573958304,
      "d": 622.619514583319,
      "v": 60
    },
    {
      "midi": 62,
      "hit": false,
      "t": 146076.30003333304,
      "d": 486.30988854164025,
      "v": 41
    },
    {
      "midi": 56,
      "hit": false,
      "t": 146077.49051041636,
      "d": 1036.9055395832984,
      "v": 47
    },
    {
      "midi": 52,
      "hit": false,
      "t": 146086.41908854136,
      "d": 1039.8817322916293,
      "v": 33
    },
    {
      "midi": 71,
      "hit": false,
      "t": 146944.15782708302,
      "d": 399.4050614582957,
      "v": 54
    },
    {
      "midi": 62,
      "hit": false,
      "t": 146958.44355208302,
      "d": 397.0241072916251,
      "v": 36
    },
    {
      "midi": 68,
      "hit": false,
      "t": 146961.41974479135,
      "d": 544.0480270832777,
      "v": 46
    },
    {
      "midi": 65,
      "hit": false,
      "t": 146976.300708333,
      "d": 504.1670447916258,
      "v": 42
    },
    {
      "midi": 61,
      "hit": false,
      "t": 147849.51564895798,
      "d": 404.76220833332627,
      "v": 49
    },
    {
      "midi": 69,
      "hit": false,
      "t": 147859.63470416632,
      "d": 344.0478770833288,
      "v": 49
    },
    {
      "midi": 45,
      "hit": false,
      "t": 147862.61089687466,
      "d": 906.5482989583106,
      "v": 44
    },
    {
      "midi": 55,
      "hit": false,
      "t": 147885.22996145798,
      "d": 592.2623489583202,
      "v": 22
    },
    {
      "midi": 61,
      "hit": false,
      "t": 148852.4925916663,
      "d": 794.6434531249979,
      "v": 43
    },
    {
      "midi": 57,
      "hit": false,
      "t": 148853.6830687496,
      "d": 755.9529479166667,
      "v": 55
    },
    {
      "midi": 45,
      "hit": false,
      "t": 149230.4690656246,
      "d": 307.7383260416682,
      "v": 80
    },
    {
      "midi": 44,
      "hit": false,
      "t": 149505.4692718746,
      "d": 207.73825104167918,
      "v": 75
    },
    {
      "midi": 43,
      "hit": false,
      "t": 149724.51705520795,
      "d": 188.69061770834378,
      "v": 55
    },
    {
      "midi": 42,
      "hit": false,
      "t": 149899.51718645796,
      "d": 116.66675416665385,
      "v": 64
    },
    {
      "midi": 41,
      "hit": false,
      "t": 150060.23159270795,
      "d": 130.95247916667722,
      "v": 58
    },
    {
      "midi": 40,
      "hit": false,
      "t": 150193.5650260413,
      "d": 127.9762864583463,
      "v": 42
    },
    {
      "midi": 39,
      "hit": false,
      "t": 150352.4937166663,
      "d": 207.1430124999897,
      "v": 55
    },
    {
      "midi": 37,
      "hit": false,
      "t": 150492.37477395797,
      "d": 166.071553124988,
      "v": 52
    },
    {
      "midi": 58,
      "hit": false,
      "t": 150642.37488645795,
      "d": 539.8813572916843,
      "v": 57
    },
    {
      "midi": 69,
      "hit": false,
      "t": 150652.4939416663,
      "d": 648.8100104166369,
      "v": 57
    },
    {
      "midi": 62,
      "hit": false,
      "t": 150666.18442812463,
      "d": 530.9527791666624,
      "v": 46
    },
    {
      "midi": 38,
      "hit": false,
      "t": 150672.1368135413,
      "d": 37.50002812501043,
      "v": 42
    },
    {
      "midi": 64,
      "hit": false,
      "t": 150676.30348333297,
      "d": 588.0956791666395,
      "v": 40
    },
    {
      "midi": 36,
      "hit": false,
      "t": 150678.68443749964,
      "d": 543.4527885416464,
      "v": 49
    },
    {
      "midi": 24,
      "hit": false,
      "t": 151147.1371697913,
      "d": 41.07145937500172,
      "v": 53
    },
    {
      "midi": 70,
      "hit": false,
      "t": 151764.3995374996,
      "d": 1054.762695833313,
      "v": 44
    },
    {
      "midi": 62,
      "hit": false,
      "t": 151769.16144583293,
      "d": 996.4293187499861,
      "v": 37
    },
    {
      "midi": 65,
      "hit": false,
      "t": 151777.49478541626,
      "d": 1044.04840208331,
      "v": 43
    },
    {
      "midi": 58,
      "hit": false,
      "t": 151784.63764791627,
      "d": 534.5242104166537,
      "v": 36
    },
    {
      "midi": 48,
      "hit": false,
      "t": 152377.49523541625,
      "d": 179.16680104166153,
      "v": 50
    },
    {
      "midi": 41,
      "hit": false,
      "t": 153019.1623833329,
      "d": 139.88105729167,
      "v": 41
    },
    {
      "midi": 48,
      "hit": false,
      "t": 153045.9481177079,
      "d": 190.47633333332487,
      "v": 45
    },
    {
      "midi": 84,
      "hit": false,
      "t": 153111.42435729125,
      "d": 252.97638020830345,
      "v": 68
    },
    {
      "midi": 77,
      "hit": false,
      "t": 153114.99578854124,
      "d": 201.19062708332785,
      "v": 73
    },
    {
      "midi": 72,
      "hit": false,
      "t": 153117.37674270791,
      "d": 163.09536041665706,
      "v": 73
    },
    {
      "midi": 57,
      "hit": false,
      "t": 153120.9481739579,
      "d": 152.38106666665408,
      "v": 54
    },
    {
      "midi": 81,
      "hit": false,
      "t": 153123.92436666624,
      "d": 217.26206770833232,
      "v": 68
    },
    {
      "midi": 60,
      "hit": false,
      "t": 153623.32950312455,
      "d": 288.0954541666724,
      "v": 49
    },
    {
      "midi": 88,
      "hit": false,
      "t": 153628.0914114579,
      "d": 283.92878437499166,
      "v": 79
    },
    {
      "midi": 64,
      "hit": false,
      "t": 153629.2818885412,
      "d": 276.1906833333487,
      "v": 58
    },
    {
      "midi": 53,
      "hit": false,
      "t": 153633.4485583329,
      "d": 317.8573812499817,
      "v": 40
    },
    {
      "midi": 57,
      "hit": false,
      "t": 153644.1628520829,
      "d": 261.90495833332534,
      "v": 51
    },
    {
      "midi": 76,
      "hit": false,
      "t": 153651.90095312457,
      "d": 268.45258229164756,
      "v": 79
    },
    {
      "midi": 84,
      "hit": false,
      "t": 153945.94879270787,
      "d": 94.04768958332716,
      "v": 75
    },
    {
      "midi": 86,
      "hit": false,
      "t": 153988.2107291662,
      "d": 45.83336770834285,
      "v": 34
    },
    {
      "midi": 34,
      "hit": false,
      "t": 154398.9253229162,
      "d": 180.35727812501136,
      "v": 64
    },
    {
      "midi": 91,
      "hit": false,
      "t": 154411.42533229123,
      "d": 894.0482895833266,
      "v": 83
    },
    {
      "midi": 67,
      "hit": false,
      "t": 154975.11623124956,
      "d": 329.16691354167415,
      "v": 68
    },
    {
      "midi": 62,
      "hit": false,
      "t": 154976.90194687457,
      "d": 319.04785833333153,
      "v": 59
    },
    {
      "midi": 56,
      "hit": false,
      "t": 154981.06861666625,
      "d": 314.2859499999904,
      "v": 69
    },
    {
      "midi": 89,
      "hit": false,
      "t": 155431.06895416623,
      "d": 200.00014999997802,
      "v": 82
    },
    {
      "midi": 77,
      "hit": false,
      "t": 155442.97372499955,
      "d": 175.00013124998077,
      "v": 80
    },
    {
      "midi": 67,
      "hit": false,
      "t": 155447.14039479123,
      "d": 194.04776458331617,
      "v": 80
    },
    {
      "midi": 84,
      "hit": false,
      "t": 155450.11658749956,
      "d": 114.88103854164365,
      "v": 70
    },
    {
      "midi": 62,
      "hit": false,
      "t": 155451.30706458288,
      "d": 195.83348020832636,
      "v": 65
    },
    {
      "midi": 56,
      "hit": false,
      "t": 155451.90230312455,
      "d": 178.57156250000116,
      "v": 85
    },
    {
      "midi": 91,
      "hit": false,
      "t": 155772.1406385412,
      "d": 155.95249791664537,
      "v": 82
    },
    {
      "midi": 79,
      "hit": false,
      "t": 155785.23588645787,
      "d": 113.09532291663345,
      "v": 68
    },
    {
      "midi": 62,
      "hit": false,
      "t": 155785.23588645787,
      "d": 148.80963541663368,
      "v": 53
    },
    {
      "midi": 77,
      "hit": false,
      "t": 155786.4263635412,
      "d": 77.97624895832269,
      "v": 63
    },
    {
      "midi": 67,
      "hit": false,
      "t": 155788.2120791662,
      "d": 111.90484583331272,
      "v": 77
    },
    {
      "midi": 56,
      "hit": false,
      "t": 155789.40255624952,
      "d": 194.04776458331617,
      "v": 77
    },
    {
      "midi": 93,
      "hit": false,
      "t": 156151.30758958284,
      "d": 182.14299374999246,
      "v": 85
    },
    {
      "midi": 61,
      "hit": false,
      "t": 156151.9028281245,
      "d": 424.40508020835114,
      "v": 77
    },
    {
      "midi": 55,
      "hit": false,
      "t": 156157.2599749995,
      "d": 408.92887812500703,
      "v": 76
    },
    {
      "midi": 66,
      "hit": false,
      "t": 156159.0456906245,
      "d": 383.3336208333203,
      "v": 90
    },
    {
      "midi": 88,
      "hit": false,
      "t": 156162.02188333284,
      "d": 175.00013124998077,
      "v": 81
    },
    {
      "midi": 81,
      "hit": false,
      "t": 156163.21236041616,
      "d": 200.00015000000712,
      "v": 80
    },
    {
      "midi": 89,
      "hit": false,
      "t": 156541.1888343745,
      "d": 188.09537916668341,
      "v": 66
    },
    {
      "midi": 84,
      "hit": false,
      "t": 156547.14121979117,
      "d": 160.11916770835523,
      "v": 70
    },
    {
      "midi": 77,
      "hit": false,
      "t": 156550.1174124995,
      "d": 141.07153437501984,
      "v": 69
    },
    {
      "midi": 91,
      "hit": false,
      "t": 156894.16528958286,
      "d": 142.85725000000093,
      "v": 80
    },
    {
      "midi": 84,
      "hit": false,
      "t": 156903.09386770785,
      "d": 191.07157187501434,
      "v": 70
    },
    {
      "midi": 57,
      "hit": false,
      "t": 156907.26053749953,
      "d": 339.881207291648,
      "v": 68
    },
    {
      "midi": 60,
      "hit": false,
      "t": 156909.04625312454,
      "d": 379.16695104163955,
      "v": 69
    },
    {
      "midi": 50,
      "hit": false,
      "t": 156910.23673020786,
      "d": 298.21450937501504,
      "v": 59
    },
    {
      "midi": 53,
      "hit": false,
      "t": 156910.23673020786,
      "d": 326.1907208333432,
      "v": 47
    },
    {
      "midi": 79,
      "hit": false,
      "t": 156912.02244583287,
      "d": 155.357259374985,
      "v": 61
    },
    {
      "midi": 83,
      "hit": false,
      "t": 157233.45125833288,
      "d": 175.00013124998077,
      "v": 73
    },
    {
      "midi": 88,
      "hit": false,
      "t": 157239.9988822912,
      "d": 167.26203020833782,
      "v": 66
    },
    {
      "midi": 76,
      "hit": false,
      "t": 157241.18935937452,
      "d": 139.28581875000964,
      "v": 66
    },
    {
      "midi": 64,
      "hit": false,
      "t": 157559.04674062453,
      "d": 294.0478395833343,
      "v": 71
    },
    {
      "midi": 89,
      "hit": false,
      "t": 157560.23721770785,
      "d": 111.90484583334182,
      "v": 76
    },
    {
      "midi": 84,
      "hit": false,
      "t": 157564.40388749953,
      "d": 109.52389166667126,
      "v": 76
    },
    {
      "midi": 53,
      "hit": false,
      "t": 157564.9991260412,
      "d": 355.35740937502123,
      "v": 50
    },
    {
      "midi": 77,
      "hit": false,
      "t": 157566.1896031245,
      "d": 144.04772708335076,
      "v": 77
    },
    {
      "midi": 59,
      "hit": false,
      "t": 157573.92770416618,
      "d": 311.3097572916886,
      "v": 60
    },
    {
      "midi": 86,
      "hit": false,
      "t": 157870.95173645785,
      "d": 155.95249791667447,
      "v": 66
    },
    {
      "midi": 81,
      "hit": false,
      "t": 157875.11840624953,
      "d": 133.92867187500815,
      "v": 66
    },
    {
      "midi": 74,
      "hit": false,
      "t": 157879.2850760412,
      "d": 92.85721250000643,
      "v": 60
    },
    {
      "midi": 88,
      "hit": false,
      "t": 158272.14251354118,
      "d": 208.9287281249999,
      "v": 71
    },
    {
      "midi": 80,
      "hit": false,
      "t": 158281.07109166618,
      "d": 248.21447187499143,
      "v": 71
    },
    {
      "midi": 84,
      "hit": false,
      "t": 158284.0472843745,
      "d": 189.28585625000414,
      "v": 69
    },
    {
      "midi": 76,
      "hit": false,
      "t": 158285.23776145783,
      "d": 210.7144437500101,
      "v": 72
    },
    {
      "midi": 48,
      "hit": false,
      "t": 158289.99966979117,
      "d": 155.95249791667447,
      "v": 64
    },
    {
      "midi": 36,
      "hit": false,
      "t": 158294.16633958285,
      "d": 95.83340520833735,
      "v": 43
    },
    {
      "midi": 86,
      "hit": false,
      "t": 158304.2853947912,
      "d": 185.71442499998375,
      "v": 44
    },
    {
      "midi": 64,
      "hit": false,
      "t": 158789.4048062495,
      "d": 231.5477927083557,
      "v": 58
    },
    {
      "midi": 84,
      "hit": false,
      "t": 158790.00004479117,
      "d": 210.11920520834974,
      "v": 63
    },
    {
      "midi": 58,
      "hit": false,
      "t": 158794.16671458285,
      "d": 261.3097197916941,
      "v": 55
    },
    {
      "midi": 79,
      "hit": false,
      "t": 158801.90481562453,
      "d": 257.1430500000133,
      "v": 66
    },
    {
      "midi": 72,
      "hit": false,
      "t": 158803.09529270785,
      "d": 207.1430125000188,
      "v": 54
    },
    {
      "midi": 86,
      "hit": false,
      "t": 159514.40534999952,
      "d": 225.59540729163564,
      "v": 82
    },
    {
      "midi": 83,
      "hit": false,
      "t": 159523.3339281245,
      "d": 233.92874687496806,
      "v": 81
    },
    {
      "midi": 74,
      "hit": false,
      "t": 159525.11964374952,
      "d": 302.97641770829796,
      "v": 85
    },
    {
      "midi": 79,
      "hit": false,
      "t": 159526.31012083284,
      "d": 260.11924270831514,
      "v": 80
    },
    {
      "midi": 41,
      "hit": false,
      "t": 159529.28631354118,
      "d": 160.7144062499865,
      "v": 80
    },
    {
      "midi": 63,
      "hit": false,
      "t": 161212.0256708328,
      "d": 86.90482708334457,
      "v": 50
    },
    {
      "midi": 65,
      "hit": false,
      "t": 161316.19241562448,
      "d": 113.09532291666255,
      "v": 38
    },
    {
      "midi": 67,
      "hit": false,
      "t": 161375.12103124947,
      "d": 176.1906083333306,
      "v": 45
    },
    {
      "midi": 69,
      "hit": false,
      "t": 161461.43061979115,
      "d": 107.73817604163196,
      "v": 36
    },
    {
      "midi": 71,
      "hit": false,
      "t": 161539.40686874947,
      "d": 76.78577187497285,
      "v": 50
    },
    {
      "midi": 75,
      "hit": false,
      "t": 161620.9545489578,
      "d": 87.50006562500494,
      "v": 57
    },
    {
      "midi": 77,
      "hit": false,
      "t": 161750.12131249945,
      "d": 86.90482708331547,
      "v": 44
    },
    {
      "midi": 79,
      "hit": false,
      "t": 161819.16898333278,
      "d": 108.92865312498179,
      "v": 47
    },
    {
      "midi": 81,
      "hit": false,
      "t": 161865.0023510411,
      "d": 57.14290000000619,
      "v": 41
    },
    {
      "midi": 83,
      "hit": false,
      "t": 161942.97859999942,
      "d": 54.166707291675266,
      "v": 53
    },
    {
      "midi": 85,
      "hit": false,
      "t": 162026.31199583277,
      "d": 44.04765208333265,
      "v": 30
    },
    {
      "midi": 89,
      "hit": false,
      "t": 162136.4311260411,
      "d": 131.5477177083376,
      "v": 55
    },
    {
      "midi": 91,
      "hit": false,
      "t": 162217.97880624945,
      "d": 142.26201145831146,
      "v": 47
    },
    {
      "midi": 93,
      "hit": false,
      "t": 162357.26462499943,
      "d": 123.80961666666553,
      "v": 62
    },
    {
      "midi": 95,
      "hit": false,
      "t": 162433.45515833277,
      "d": 58.92861562498729,
      "v": 46
    },
    {
      "midi": 99,
      "hit": false,
      "t": 162526.31237083275,
      "d": 91.07149687499623,
      "v": 53
    },
    {
      "midi": 103,
      "hit": false,
      "t": 162742.38396145773,
      "d": 64.88100104164914,
      "v": 26
    },
    {
      "midi": 105,
      "hit": false,
      "t": 162767.9792187494,
      "d": 105.3572218749905,
      "v": 43
    },
    {
      "midi": 107,
      "hit": false,
      "t": 162867.38405520772,
      "d": 80.95244166665361,
      "v": 74
    },
    {
      "midi": 64,
      "hit": false,
      "t": 165331.07637916604,
      "d": 42.85717500001192,
      "v": 31
    },
    {
      "midi": 87,
      "hit": false,
      "t": 165336.43352604104,
      "d": 129.7620020833274,
      "v": 37
    },
    {
      "midi": 88,
      "hit": false,
      "t": 165369.1716458327,
      "d": 54.16670729164616,
      "v": 40
    },
    {
      "midi": 65,
      "hit": false,
      "t": 165376.9097468744,
      "d": 504.1670447916549,
      "v": 51
    },
    {
      "midi": 89,
      "hit": false,
      "t": 165422.14787604104,
      "d": 548.809935416677,
      "v": 53
    },
    {
      "midi": 77,
      "hit": false,
      "t": 166632.26783124937,
      "d": 432.1431812499941,
      "v": 44
    },
    {
      "midi": 46,
      "hit": false,
      "t": 166645.9583177077,
      "d": 810.1196552083129,
      "v": 27
    },
    {
      "midi": 53,
      "hit": false,
      "t": 166967.3871302077,
      "d": 405.952685416647,
      "v": 25
    },
    {
      "midi": 57,
      "hit": false,
      "t": 167372.14933854103,
      "d": 636.3100010416529,
      "v": 39
    },
    {
      "midi": 61,
      "hit": false,
      "t": 167917.38784270769,
      "d": 1169.6437343749858,
      "v": 31
    },
    {
      "midi": 62,
      "hit": false,
      "t": 168336.435776041,
      "d": 157.73821354165557,
      "v": 38
    },
    {
      "midi": 64,
      "hit": false,
      "t": 168619.17408333265,
      "d": 411.3098322916776,
      "v": 42
    },
    {
      "midi": 69,
      "hit": false,
      "t": 168916.1981156243,
      "d": 223.80969166668365,
      "v": 34
    },
    {
      "midi": 70,
      "hit": false,
      "t": 169192.98403749932,
      "d": 237.50017812498845,
      "v": 47
    },
    {
      "midi": 72,
      "hit": false,
      "t": 169464.4128124993,
      "d": 263.69067395833554,
      "v": 49
    },
    {
      "midi": 39,
      "hit": false,
      "t": 169509.0557031243,
      "d": 245.2382791666605,
      "v": 37
    },
    {
      "midi": 73,
      "hit": false,
      "t": 169729.29396354096,
      "d": 204.76205833331915,
      "v": 44
    },
    {
      "midi": 46,
      "hit": false,
      "t": 169741.19873437428,
      "d": 189.8810947916645,
      "v": 36
    },
    {
      "midi": 55,
      "hit": false,
      "t": 169988.22272916595,
      "d": 248.21447187502054,
      "v": 29
    },
    {
      "midi": 75,
      "hit": false,
      "t": 170012.03227083263,
      "d": 69.0476708333299,
      "v": 35
    },
    {
      "midi": 79,
      "hit": false,
      "t": 170244.17530208264,
      "d": 210.11920520832064,
      "v": 41
    },
    {
      "midi": 58,
      "hit": false,
      "t": 170253.10388020764,
      "d": 1647.0250447916624,
      "v": 40
    },
    {
      "midi": 61,
      "hit": false,
      "t": 170559.0564906243,
      "d": 211.30968229167047,
      "v": 27
    },
    {
      "midi": 82,
      "hit": false,
      "t": 170561.43744479096,
      "d": 194.64300312500563,
      "v": 44
    },
    {
      "midi": 84,
      "hit": false,
      "t": 170845.96146770765,
      "d": 1289.2866812499706,
      "v": 40
    },
    {
      "midi": 65,
      "hit": false,
      "t": 170870.96148645764,
      "d": 187.50014062499395,
      "v": 24
    },
    {
      "midi": 73,
      "hit": false,
      "t": 171173.93790416597,
      "d": 1320.2390854166588,
      "v": 27
    },
    {
      "midi": 77,
      "hit": false,
      "t": 171189.4141062493,
      "d": 983.929309374973,
      "v": 45
    },
    {
      "midi": 65,
      "hit": false,
      "t": 171217.39031770764,
      "d": 1314.8819385416573,
      "v": 25
    },
    {
      "midi": 61,
      "hit": false,
      "t": 171550.1286624993,
      "d": 664.8814510416414,
      "v": 28
    },
    {
      "midi": 55,
      "hit": false,
      "t": 172044.17665208262,
      "d": 1254.7628458333493,
      "v": 17
    },
    {
      "midi": 61,
      "hit": false,
      "t": 172417.39121770763,
      "d": 858.9292156250158,
      "v": 33
    },
    {
      "midi": 77,
      "hit": false,
      "t": 172798.3438843743,
      "d": 503.57180624999455,
      "v": 64
    },
    {
      "midi": 65,
      "hit": false,
      "t": 172806.08198541598,
      "d": 423.2146031250013,
      "v": 29
    },
    {
      "midi": 79,
      "hit": false,
      "t": 173260.24899270764,
      "d": 485.714650000009,
      "v": 66
    },
    {
      "midi": 33,
      "hit": false,
      "t": 173823.93989166597,
      "d": 92.26197395834606,
      "v": 55
    },
    {
      "midi": 76,
      "hit": false,
      "t": 174419.17843333265,
      "d": 292.85736249995534,
      "v": 74
    },
    {
      "midi": 73,
      "hit": false,
      "t": 174420.36891041597,
      "d": 294.64307812496554,
      "v": 71
    },
    {
      "midi": 61,
      "hit": false,
      "t": 174422.15462604098,
      "d": 388.0955291666032,
      "v": 71
    },
    {
      "midi": 81,
      "hit": false,
      "t": 174423.3451031243,
      "d": 319.6430968749628,
      "v": 74
    },
    {
      "midi": 55,
      "hit": false,
      "t": 174423.94034166596,
      "d": 279.16687604165054,
      "v": 64
    },
    {
      "midi": 69,
      "hit": false,
      "t": 174429.29748854096,
      "d": 238.09541666664882,
      "v": 80
    },
    {
      "midi": 66,
      "hit": false,
      "t": 174430.48796562428,
      "d": 264.88115104165627,
      "v": 81
    },
    {
      "midi": 55,
      "hit": false,
      "t": 175003.10744270758,
      "d": 248.8097104166809,
      "v": 60
    },
    {
      "midi": 61,
      "hit": false,
      "t": 175004.2979197909,
      "d": 347.6193083333492,
      "v": 51
    },
    {
      "midi": 66,
      "hit": false,
      "t": 175010.25030520756,
      "d": 258.9287656250235,
      "v": 78
    },
    {
      "midi": 84,
      "hit": false,
      "t": 175012.03602083257,
      "d": 196.42871875004494,
      "v": 79
    },
    {
      "midi": 72,
      "hit": false,
      "t": 175019.17888333258,
      "d": 223.21445312502328,
      "v": 79
    },
    {
      "midi": 81,
      "hit": false,
      "t": 175023.34555312427,
      "d": 166.0715531250171,
      "v": 72
    },
    {
      "midi": 81,
      "hit": false,
      "t": 175651.3222145826,
      "d": 200.00015000000712,
      "v": 57
    },
    {
      "midi": 69,
      "hit": false,
      "t": 175654.29840729092,
      "d": 147.0239197916526,
      "v": 53
    },
    {
      "midi": 77,
      "hit": false,
      "t": 175659.06031562426,
      "d": 166.071553124988,
      "v": 59
    },
    {
      "midi": 61,
      "hit": false,
      "t": 175660.25079270758,
      "d": 132.14295624999795,
      "v": 45
    },
    {
      "midi": 66,
      "hit": false,
      "t": 175666.20317812424,
      "d": 73.80957916667103,
      "v": 55
    },
    {
      "midi": 55,
      "hit": false,
      "t": 175669.17937083257,
      "d": 145.2382041666715,
      "v": 40
    },
    {
      "midi": 26,
      "hit": false,
      "t": 176370.37037291593,
      "d": 285.71450000000186,
      "v": 60
    },
    {
      "midi": 88,
      "hit": false,
      "t": 177320.37108541594,
      "d": 613.6909364583262,
      "v": 40
    },
    {
      "midi": 54,
      "hit": false,
      "t": 177329.29966354094,
      "d": 583.9290093749878,
      "v": 38
    },
    {
      "midi": 76,
      "hit": false,
      "t": 177331.08537916595,
      "d": 604.1671197916439,
      "v": 36
    },
    {
      "midi": 80,
      "hit": false,
      "t": 177332.27585624927,
      "d": 711.905295833305,
      "v": 31
    },
    {
      "midi": 64,
      "hit": false,
      "t": 177335.2520489576,
      "d": 575.000431249995,
      "v": 34
    },
    {
      "midi": 83,
      "hit": false,
      "t": 177338.22824166593,
      "d": 675.000506249984,
      "v": 52
    },
    {
      "midi": 60,
      "hit": false,
      "t": 177340.01395729094,
      "d": 571.4289999999746,
      "v": 30
    },
    {
      "midi": 86,
      "hit": false,
      "t": 178167.39553020758,
      "d": 248.8097104166518,
      "v": 59
    },
    {
      "midi": 80,
      "hit": false,
      "t": 178173.34791562424,
      "d": 427.9765114582842,
      "v": 57
    },
    {
      "midi": 74,
      "hit": false,
      "t": 178182.27649374923,
      "d": 280.95259166666074,
      "v": 52
    },
    {
      "midi": 54,
      "hit": false,
      "t": 178183.46697083255,
      "d": 362.5002718749747,
      "v": 48
    },
    {
      "midi": 64,
      "hit": false,
      "t": 178185.25268645756,
      "d": 345.8335927083099,
      "v": 45
    },
    {
      "midi": 83,
      "hit": false,
      "t": 178191.20507187422,
      "d": 339.28596874998766,
      "v": 60
    },
    {
      "midi": 60,
      "hit": false,
      "t": 178198.34793437424,
      "d": 320.8335739583126,
      "v": 38
    },
    {
      "midi": 88,
      "hit": false,
      "t": 179295.37256666584,
      "d": 347.0240697916888,
      "v": 48
    },
    {
      "midi": 80,
      "hit": false,
      "t": 179300.13447499918,
      "d": 308.928803125018,
      "v": 40
    },
    {
      "midi": 64,
      "hit": false,
      "t": 179304.30114479086,
      "d": 144.64296562498203,
      "v": 44
    },
    {
      "midi": 83,
      "hit": false,
      "t": 179310.25353020753,
      "d": 227.9763614583353,
      "v": 53
    },
    {
      "midi": 76,
      "hit": false,
      "t": 179315.01543854087,
      "d": 197.0239572916471,
      "v": 35
    },
    {
      "midi": 54,
      "hit": false,
      "t": 179323.94401666586,
      "d": 71.42862500000047,
      "v": 31
    },
    {
      "midi": 70,
      "hit": false,
      "t": 180055.4921843742,
      "d": 330.95262916665524,
      "v": 25
    },
    {
      "midi": 72,
      "hit": false,
      "t": 180108.46841458252,
      "d": 101.78579062499921,
      "v": 33
    },
    {
      "midi": 82,
      "hit": false,
      "t": 180158.4684520825,
      "d": 341.6669229166582,
      "v": 61
    },
    {
      "midi": 89,
      "hit": false,
      "t": 180164.42083749917,
      "d": 373.80980416666716,
      "v": 66
    },
    {
      "midi": 79,
      "hit": false,
      "t": 180183.4684708325,
      "d": 327.9764364583243,
      "v": 45
    },
    {
      "midi": 74,
      "hit": false,
      "t": 180185.25418645752,
      "d": 748.8100854166842,
      "v": 54
    },
    {
      "midi": 86,
      "hit": false,
      "t": 180195.37324166586,
      "d": 50.59527604165487,
      "v": 38
    },
    {
      "midi": 86,
      "hit": false,
      "t": 180540.01635729085,
      "d": 152.97630520834355,
      "v": 61
    },
    {
      "midi": 88,
      "hit": false,
      "t": 180857.2784999992,
      "d": 276.78592187498,
      "v": 60
    },
    {
      "midi": 82,
      "hit": false,
      "t": 180867.39755520754,
      "d": 373.80980416663806,
      "v": 49
    },
    {
      "midi": 79,
      "hit": false,
      "t": 180884.0642343742,
      "d": 305.3573718749685,
      "v": 36
    },
    {
      "midi": 72,
      "hit": false,
      "t": 180889.4213812492,
      "d": 519.0480083333096,
      "v": 34
    },
    {
      "midi": 84,
      "hit": false,
      "t": 181166.2073031242,
      "d": 83.92863437498454,
      "v": 55
    },
    {
      "midi": 86,
      "hit": false,
      "t": 181491.20754687418,
      "d": 373.2145656250068,
      "v": 62
    },
    {
      "midi": 71,
      "hit": false,
      "t": 181510.25518020752,
      "d": 785.1196364583448,
      "v": 41
    },
    {
      "midi": 79,
      "hit": false,
      "t": 181511.44565729084,
      "d": 487.5003656250192,
      "v": 50
    },
    {
      "midi": 75,
      "hit": false,
      "t": 181516.20756562418,
      "d": 529.7623020833416,
      "v": 42
    },
    {
      "midi": 83,
      "hit": false,
      "t": 181889.4221312492,
      "d": 155.95249791667447,
      "v": 62
    },
    {
      "midi": 81,
      "hit": false,
      "t": 182290.01766979086,
      "d": 277.38116041664034,
      "v": 54
    },
    {
      "midi": 74,
      "hit": false,
      "t": 182301.92244062418,
      "d": 632.1433312499721,
      "v": 40
    },
    {
      "midi": 70,
      "hit": false,
      "t": 182304.30339479086,
      "d": 963.6911989583168,
      "v": 45
    },
    {
      "midi": 84,
      "hit": false,
      "t": 182310.25578020752,
      "d": 510.11943020831677,
      "v": 38
    },
    {
      "midi": 81,
      "hit": false,
      "t": 182744.1846770825,
      "d": 200.00015000000712,
      "v": 50
    },
    {
      "midi": 82,
      "hit": false,
      "t": 183267.3993552075,
      "d": 836.9053895833495,
      "v": 49
    },
    {
      "midi": 73,
      "hit": false,
      "t": 183282.28031874917,
      "d": 830.9530041666876,
      "v": 23
    },
    {
      "midi": 77,
      "hit": false,
      "t": 183284.06603437418,
      "d": 747.024369791674,
      "v": 42
    },
    {
      "midi": 69,
      "hit": false,
      "t": 183301.92319062416,
      "d": 176.1906083333306,
      "v": 30
    },
    {
      "midi": 39,
      "hit": false,
      "t": 183817.99500624917,
      "d": 273.2144906250178,
      "v": 39
    },
    {
      "midi": 46,
      "hit": false,
      "t": 184169.1857458325,
      "d": 329.7621520833345,
      "v": 36
    },
    {
      "midi": 61,
      "hit": false,
      "t": 184523.35267812418,
      "d": 91.66673541665659,
      "v": 36
    },
    {
      "midi": 55,
      "hit": false,
      "t": 184523.94791666584,
      "d": 333.3335833333258,
      "v": 30
    },
    {
      "midi": 65,
      "hit": false,
      "t": 184526.92410937417,
      "d": 137.50010312499944,
      "v": 46
    },
    {
      "midi": 58,
      "hit": false,
      "t": 184898.94819791583,
      "d": 2927.3831479166693,
      "v": 37
    },
    {
      "midi": 61,
      "hit": false,
      "t": 185298.94849791584,
      "d": 445.23842916666763,
      "v": 40
    },
    {
      "midi": 73,
      "hit": false,
      "t": 185767.9964687492,
      "d": 1535.1201989583205,
      "v": 23
    },
    {
      "midi": 81,
      "hit": false,
      "t": 185773.3536156242,
      "d": 1210.7151937499875,
      "v": 20
    },
    {
      "midi": 67,
      "hit": false,
      "t": 185786.44886354086,
      "d": 1415.4772520833067,
      "v": 24
    },
    {
      "midi": 65,
      "hit": false,
      "t": 185795.97268020752,
      "d": 1887.5014156249817,
      "v": 25
    },
    {
      "midi": 38,
      "hit": false,
      "t": 187282.28331874916,
      "d": 570.8337614583434,
      "v": 61
    },
    {
      "midi": 45,
      "hit": false,
      "t": 187745.9741427075,
      "d": 1130.3579906249943,
      "v": 56
    },
    {
      "midi": 60,
      "hit": false,
      "t": 188323.35552812417,
      "d": 769.6434343750007,
      "v": 68
    },
    {
      "midi": 69,
      "hit": false,
      "t": 188323.95076666583,
      "d": 629.1671385416703,
      "v": 71
    },
    {
      "midi": 65,
      "hit": false,
      "t": 188330.49839062415,
      "d": 694.6433781250089,
      "v": 72
    },
    {
      "midi": 53,
      "hit": false,
      "t": 188338.23649166583,
      "d": 732.7386447916797,
      "v": 49
    },
    {
      "midi": 67,
      "hit": false,
      "t": 188826.3320958325,
      "d": 185.71442499998375,
      "v": 68
    },
    {
      "midi": 65,
      "hit": false,
      "t": 189367.99916874917,
      "d": 669.0481208333222,
      "v": 53
    },
    {
      "midi": 59,
      "hit": false,
      "t": 189378.1182239575,
      "d": 730.35769062498,
      "v": 54
    },
    {
      "midi": 62,
      "hit": false,
      "t": 189382.2848937492,
      "d": 863.6911239582987,
      "v": 45
    },
    {
      "midi": 53,
      "hit": false,
      "t": 189397.16585729085,
      "d": 380.95266666664975,
      "v": 27
    },
    {
      "midi": 43,
      "hit": false,
      "t": 189398.35633437417,
      "d": 679.7624145833252,
      "v": 30
    },
    {
      "midi": 50,
      "hit": false,
      "t": 189759.07089062416,
      "d": 311.90499583331984,
      "v": 60
    },
    {
      "midi": 53,
      "hit": false,
      "t": 190088.23780416584,
      "d": 135.11914895832888,
      "v": 55
    },
    {
      "midi": 62,
      "hit": false,
      "t": 190411.45233229082,
      "d": 102.97626770831994,
      "v": 67
    },
    {
      "midi": 65,
      "hit": false,
      "t": 190412.04757083248,
      "d": 127.38104791665683,
      "v": 67
    },
    {
      "midi": 69,
      "hit": false,
      "t": 190414.42852499915,
      "d": 150.00011249998352,
      "v": 61
    },
    {
      "midi": 57,
      "hit": false,
      "t": 190417.40471770748,
      "d": 95.83340520833735,
      "v": 51
    },
    {
      "midi": 72,
      "hit": false,
      "t": 190886.4526885408,
      "d": 202.97634270833805,
      "v": 66
    },
    {
      "midi": 65,
      "hit": false,
      "t": 190888.2384041658,
      "d": 157.1429749999952,
      "v": 80
    },
    {
      "midi": 62,
      "hit": false,
      "t": 190900.14317499913,
      "d": 113.09532291666255,
      "v": 70
    },
    {
      "midi": 48,
      "hit": false,
      "t": 190900.14317499913,
      "d": 1139.286568749987,
      "v": 62
    },
    {
      "midi": 58,
      "hit": false,
      "t": 190901.92889062414,
      "d": 356.54788645831286,
      "v": 61
    },
    {
      "midi": 84,
      "hit": false,
      "t": 191361.45304479077,
      "d": 247.0239947916707,
      "v": 83
    },
    {
      "midi": 55,
      "hit": false,
      "t": 191363.23876041578,
      "d": 1529.763052083319,
      "v": 33
    },
    {
      "midi": 84,
      "hit": false,
      "t": 191831.09625416578,
      "d": 385.1193364583305,
      "v": 61
    },
    {
      "midi": 72,
      "hit": false,
      "t": 191858.47722708245,
      "d": 833.9291968749894,
      "v": 48
    },
    {
      "midi": 59,
      "hit": false,
      "t": 191869.19152083245,
      "d": 892.2625739583164,
      "v": 20
    },
    {
      "midi": 84,
      "hit": false,
      "t": 192348.95378541577,
      "d": 301.19070208334597,
      "v": 60
    },
    {
      "midi": 48,
      "hit": false,
      "t": 192365.02522604077,
      "d": 158.33345208334504,
      "v": 27
    },
    {
      "midi": 48,
      "hit": false,
      "t": 192865.02560104078,
      "d": 121.42866250002407,
      "v": 36
    },
    {
      "midi": 84,
      "hit": false,
      "t": 192875.14465624912,
      "d": 242.26208645835868,
      "v": 52
    },
    {
      "midi": 72,
      "hit": false,
      "t": 192900.14467499912,
      "d": 308.928803125018,
      "v": 35
    },
    {
      "midi": 61,
      "hit": false,
      "t": 193419.19268333245,
      "d": 114.28580000001239,
      "v": 39
    },
    {
      "midi": 64,
      "hit": false,
      "t": 193572.1689885408,
      "d": 130.95247916667722,
      "v": 40
    },
    {
      "midi": 67,
      "hit": false,
      "t": 193667.40715520747,
      "d": 138.69058020832017,
      "v": 40
    },
    {
      "midi": 72,
      "hit": false,
      "t": 193805.50249687413,
      "d": 68.45243229166954,
      "v": 46
    },
    {
      "midi": 73,
      "hit": false,
      "t": 193889.43113124915,
      "d": 66.66671666665934,
      "v": 21
    },
    {
      "midi": 79,
      "hit": false,
      "t": 194093.00271249915,
      "d": 82.14291875000345,
      "v": 35
    },
    {
      "midi": 85,
      "hit": false,
      "t": 194273.35999062416,
      "d": 126.78580937499646,
      "v": 34
    },
    {
      "midi": 88,
      "hit": false,
      "t": 194343.00289999915,
      "d": 932.1435562500264,
      "v": 31
    },
    {
      "midi": 91,
      "hit": false,
      "t": 194430.50296562415,
      "d": 820.833948958345,
      "v": 40
    },
    {
      "midi": 96,
      "hit": false,
      "t": 194570.97926145748,
      "d": 623.2147531250084,
      "v": 37
    },
    {
      "midi": 72,
      "hit": false,
      "t": 195866.21832812417,
      "d": 429.7622270833235,
      "v": 70
    },
    {
      "midi": 41,
      "hit": false,
      "t": 196284.07578437417,
      "d": 771.4291499999817,
      "v": 32
    },
    {
      "midi": 48,
      "hit": false,
      "t": 196370.9806114575,
      "d": 504.1670447916258,
      "v": 35
    },
    {
      "midi": 63,
      "hit": false,
      "t": 196395.38539166583,
      "d": 550.0004124999687,
      "v": 31
    },
    {
      "midi": 57,
      "hit": false,
      "t": 196445.98066770748,
      "d": 552.3813666666683,
      "v": 47
    },
    {
      "midi": 69,
      "hit": false,
      "t": 196459.07591562415,
      "d": 570.2385229166539,
      "v": 51
    },
    {
      "midi": 72,
      "hit": false,
      "t": 196460.26639270748,
      "d": 595.8337802083406,
      "v": 62
    },
    {
      "midi": 48,
      "hit": false,
      "t": 196994.19536458247,
      "d": 126.1905708333361,
      "v": 62
    },
    {
      "midi": 57,
      "hit": false,
      "t": 197448.36237187413,
      "d": 2029.7634270833805,
      "v": 33
    },
    {
      "midi": 62,
      "hit": false,
      "t": 197451.93380312412,
      "d": 2379.16845104174,
      "v": 37
    },
    {
      "midi": 74,
      "hit": false,
      "t": 197467.41000520746,
      "d": 488.09560416670865,
      "v": 67
    },
    {
      "midi": 63,
      "hit": false,
      "t": 197508.48146458247,
      "d": 384.52409791669925,
      "v": 51
    },
    {
      "midi": 79,
      "hit": false,
      "t": 197511.4576572908,
      "d": 455.9527229166997,
      "v": 47
    },
    {
      "midi": 83,
      "hit": false,
      "t": 197548.36244687415,
      "d": 430.95270416667336,
      "v": 77
    },
    {
      "midi": 67,
      "hit": false,
      "t": 197550.14816249916,
      "d": 467.8574937499943,
      "v": 62
    },
    {
      "midi": 86,
      "hit": false,
      "t": 197569.1957958325,
      "d": 408.92887812500703,
      "v": 75
    },
    {
      "midi": 72,
      "hit": false,
      "t": 198060.26759270747,
      "d": 325.0002437500225,
      "v": 37
    },
    {
      "midi": 79,
      "hit": false,
      "t": 198101.33905208248,
      "d": 185.71442500001285,
      "v": 64
    },
    {
      "midi": 84,
      "hit": false,
      "t": 198115.0295385408,
      "d": 202.3811041666777,
      "v": 74
    },
    {
      "midi": 63,
      "hit": false,
      "t": 198678.1251989575,
      "d": 233.92874687502626,
      "v": 47
    },
    {
      "midi": 82,
      "hit": false,
      "t": 198685.26806145752,
      "d": 617.8576062499778,
      "v": 60
    },
    {
      "midi": 67,
      "hit": false,
      "t": 198692.41092395753,
      "d": 220.83349895832362,
      "v": 40
    },
    {
      "midi": 70,
      "hit": false,
      "t": 198695.38711666586,
      "d": 614.8814135416469,
      "v": 53
    },
    {
      "midi": 79,
      "hit": false,
      "t": 198695.98235520752,
      "d": 480.95274166666786,
      "v": 50
    },
    {
      "midi": 63,
      "hit": false,
      "t": 199072.17311354086,
      "d": 270.8335364583181,
      "v": 50
    },
    {
      "midi": 67,
      "hit": false,
      "t": 199090.03026979085,
      "d": 176.1906083333306,
      "v": 39
    },
    {
      "midi": 81,
      "hit": false,
      "t": 199451.3400645825,
      "d": 1289.8819197917182,
      "v": 65
    },
    {
      "midi": 63,
      "hit": false,
      "t": 199454.31625729083,
      "d": 402.9764927083743,
      "v": 43
    },
    {
      "midi": 69,
      "hit": false,
      "t": 199464.43531249918,
      "d": 1155.95324791671,
      "v": 58
    },
    {
      "midi": 67,
      "hit": false,
      "t": 199473.95912916583,
      "d": 349.4050239583594,
      "v": 46
    },
    {
      "midi": 57,
      "hit": false,
      "t": 199823.95939166585,
      "d": 101.19055208336795,
      "v": 63
    },
    {
      "midi": 34,
      "hit": false,
      "t": 200301.93594062421,
      "d": 117.26199270834331,
      "v": 65
    },
    {
      "midi": 65,
      "hit": false,
      "t": 200872.1744635409,
      "d": 339.28596875001676,
      "v": 55
    },
    {
      "midi": 62,
      "hit": false,
      "t": 200876.93637187424,
      "d": 326.1907208333432,
      "v": 47
    },
    {
      "midi": 60,
      "hit": false,
      "t": 200888.2459041659,
      "d": 313.0954729166697,
      "v": 44
    },
    {
      "midi": 79,
      "hit": false,
      "t": 201389.43675624926,
      "d": 448.8098604166298,
      "v": 89
    },
    {
      "midi": 74,
      "hit": false,
      "t": 201392.4129489576,
      "d": 447.6193833333091,
      "v": 101
    },
    {
      "midi": 62,
      "hit": false,
      "t": 201401.93676562424,
      "d": 369.04789583332604,
      "v": 68
    },
    {
      "midi": 65,
      "hit": false,
      "t": 201409.07962812425,
      "d": 322.02405104166246,
      "v": 71
    },
    {
      "midi": 60,
      "hit": false,
      "t": 201412.05582083258,
      "d": 344.0478770833288,
      "v": 57
    },
    {
      "midi": 72,
      "hit": false,
      "t": 201888.2466541659,
      "d": 314.8811885416508,
      "v": 64
    },
    {
      "midi": 77,
      "hit": false,
      "t": 201889.43713124923,
      "d": 938.6911802083487,
      "v": 68
    },
    {
      "midi": 65,
      "hit": false,
      "t": 201906.1038104159,
      "d": 305.3573718749976,
      "v": 57
    },
    {
      "midi": 62,
      "hit": false,
      "t": 201907.29428749921,
      "d": 363.69074895835365,
      "v": 43
    },
    {
      "midi": 60,
      "hit": false,
      "t": 201928.12763645756,
      "d": 322.02405104166246,
      "v": 41
    },
    {
      "midi": 70,
      "hit": false,
      "t": 202835.2711739576,
      "d": 900.0006749999884,
      "v": 57
    },
    {
      "midi": 76,
      "hit": false,
      "t": 202841.22355937425,
      "d": 1100.0008249999955,
      "v": 58
    },
    {
      "midi": 60,
      "hit": false,
      "t": 202850.15213749924,
      "d": 316.0716656250006,
      "v": 34
    },
    {
      "midi": 65,
      "hit": false,
      "t": 202851.34261458257,
      "d": 285.1192614583415,
      "v": 37
    },
    {
      "midi": 62,
      "hit": false,
      "t": 202857.29499999923,
      "d": 291.6668854166928,
      "v": 34
    },
    {
      "midi": 65,
      "hit": false,
      "t": 203383.48587083258,
      "d": 211.90492083333083,
      "v": 27
    },
    {
      "midi": 62,
      "hit": false,
      "t": 203393.00968749923,
      "d": 205.35729687500861,
      "v": 31
    },
    {
      "midi": 60,
      "hit": false,
      "t": 203400.15254999924,
      "d": 230.95255416666623,
      "v": 24
    },
    {
      "midi": 74,
      "hit": false,
      "t": 204012.0577708326,
      "d": 239.88113229165901,
      "v": 42
    },
    {
      "midi": 65,
      "hit": false,
      "t": 204036.46255104092,
      "d": 100.59531354164938,
      "v": 26
    },
    {
      "midi": 60,
      "hit": false,
      "t": 204043.01017499925,
      "d": 127.38104791665683,
      "v": 26
    },
    {
      "midi": 62,
      "hit": false,
      "t": 204051.34351458258,
      "d": 91.66673541665659,
      "v": 24
    },
    {
      "midi": 69,
      "hit": false,
      "t": 204063.2482854159,
      "d": 289.8811697916826,
      "v": 22
    },
    {
      "midi": 65,
      "hit": false,
      "t": 204650.15348749925,
      "d": 1017.8579062500212,
      "v": 39
    },
    {
      "midi": 72,
      "hit": false,
      "t": 204657.29634999926,
      "d": 1758.9298906250042,
      "v": 43
    },
    {
      "midi": 60,
      "hit": false,
      "t": 204662.0582583326,
      "d": 488.09560416665045,
      "v": 24
    },
    {
      "midi": 50,
      "hit": false,
      "t": 204670.39159791594,
      "d": 1878.572837499989,
      "v": 27
    },
    {
      "midi": 57,
      "hit": false,
      "t": 205098.36810937425,
      "d": 303.57165625001653,
      "v": 45
    },
    {
      "midi": 70,
      "hit": false,
      "t": 205684.08283437428,
      "d": 480.3575031249784,
      "v": 70
    },
    {
      "midi": 58,
      "hit": false,
      "t": 205700.15427499928,
      "d": 291.07164687500335,
      "v": 51
    },
    {
      "midi": 67,
      "hit": false,
      "t": 206092.4164739576,
      "d": 147.61915833334206,
      "v": 65
    },
    {
      "midi": 55,
      "hit": false,
      "t": 206110.27363020758,
      "d": 113.09532291669166,
      "v": 45
    },
    {
      "midi": 74,
      "hit": false,
      "t": 206807.29796249926,
      "d": 1011.9055208333302,
      "v": 79
    },
    {
      "midi": 50,
      "hit": false,
      "t": 206826.3455958326,
      "d": 1197.619945833314,
      "v": 50
    },
    {
      "midi": 58,
      "hit": false,
      "t": 207307.29833749926,
      "d": 939.8816572916403,
      "v": 32
    },
    {
      "midi": 70,
      "hit": false,
      "t": 207810.2749052076,
      "d": 495.23846666663303,
      "v": 47
    },
    {
      "midi": 65,
      "hit": false,
      "t": 207837.06063958257,
      "d": 808.3339395833318,
      "v": 31
    },
    {
      "midi": 62,
      "hit": false,
      "t": 207851.34636458257,
      "d": 291.07164687500335,
      "v": 24
    },
    {
      "midi": 31,
      "hit": false,
      "t": 209126.94255937423,
      "d": 179.16680104163243,
      "v": 51
    },
    {
      "midi": 77,
      "hit": false,
      "t": 209150.15686249922,
      "d": 444.0479520833178,
      "v": 87
    },
    {
      "midi": 61,
      "hit": false,
      "t": 209701.9429906242,
      "d": 237.50017812498845,
      "v": 57
    },
    {
      "midi": 63,
      "hit": false,
      "t": 209905.5145718742,
      "d": 82.73815729166381,
      "v": 57
    },
    {
      "midi": 65,
      "hit": false,
      "t": 210028.13371145754,
      "d": 105.95246041665087,
      "v": 53
    },
    {
      "midi": 67,
      "hit": false,
      "t": 210086.46708854087,
      "d": 175.00013124998077,
      "v": 54
    },
    {
      "midi": 69,
      "hit": false,
      "t": 210198.96717291587,
      "d": 67.2619552083197,
      "v": 37
    },
    {
      "midi": 71,
      "hit": false,
      "t": 210241.2291093742,
      "d": 73.21434062501066,
      "v": 61
    },
    {
      "midi": 73,
      "hit": false,
      "t": 210262.0624583325,
      "d": 118.45246979169315,
      "v": 46
    },
    {
      "midi": 75,
      "hit": false,
      "t": 210328.13393645754,
      "d": 86.90482708334457,
      "v": 45
    },
    {
      "midi": 77,
      "hit": false,
      "t": 210418.01495624922,
      "d": 85.11911145833437,
      "v": 63
    },
    {
      "midi": 79,
      "hit": false,
      "t": 210512.06264583254,
      "d": 102.97626770834904,
      "v": 42
    },
    {
      "midi": 81,
      "hit": false,
      "t": 210514.4435999992,
      "d": 104.76198333335924,
      "v": 37
    },
    {
      "midi": 83,
      "hit": false,
      "t": 210595.99128020756,
      "d": 67.26195520834881,
      "v": 62
    },
    {
      "midi": 85,
      "hit": false,
      "t": 210662.06275833258,
      "d": 92.26197395831696,
      "v": 60
    },
    {
      "midi": 89,
      "hit": false,
      "t": 210773.37236562424,
      "d": 110.11913020833163,
      "v": 55
    },
    {
      "midi": 91,
      "hit": false,
      "t": 210847.1819447909,
      "d": 120.23818541664514,
      "v": 54
    },
    {
      "midi": 93,
      "hit": false,
      "t": 210911.4677072909,
      "d": 53.5714687499858,
      "v": 49
    },
    {
      "midi": 95,
      "hit": false,
      "t": 210964.44393749922,
      "d": 53.5714687499858,
      "v": 56
    },
    {
      "midi": 99,
      "hit": false,
      "t": 211097.18213229088,
      "d": 88.0953041666653,
      "v": 49
    },
    {
      "midi": 101,
      "hit": false,
      "t": 211166.2298031242,
      "d": 92.85721250000643,
      "v": 44
    },
    {
      "midi": 103,
      "hit": false,
      "t": 211237.06318958255,
      "d": 139.28581874998054,
      "v": 55
    },
    {
      "midi": 105,
      "hit": false,
      "t": 211312.06324583254,
      "d": 97.02388229165808,
      "v": 62
    },
    {
      "midi": 107,
      "hit": false,
      "t": 211398.96807291586,
      "d": 442.2622364583367,
      "v": 78
    },
    {
      "midi": 76,
      "hit": false,
      "t": 212837.06438958252,
      "d": 580.3575781249965,
      "v": 64
    },
    {
      "midi": 72,
      "hit": false,
      "t": 213309.0885531242,
      "d": 716.0719656249858,
      "v": 38
    },
    {
      "midi": 79,
      "hit": false,
      "t": 214048.37482187417,
      "d": 1913.0966729166685,
      "v": 47
    },
    {
      "midi": 34,
      "hit": false,
      "t": 214048.97006041583,
      "d": 113.09532291666255,
      "v": 37
    },
    {
      "midi": 56,
      "hit": false,
      "t": 215487.0663770825,
      "d": 307.1430875000078,
      "v": 34
    },
    {
      "midi": 58,
      "hit": false,
      "t": 215792.4237489575,
      "d": 319.04785833336064,
      "v": 33
    },
    {
      "midi": 67,
      "hit": false,
      "t": 216107.30493749917,
      "d": 469.6432093750045,
      "v": 31
    },
    {
      "midi": 68,
      "hit": false,
      "t": 216544.2100270825,
      "d": 185.71442500001285,
      "v": 42
    },
    {
      "midi": 67,
      "hit": false,
      "t": 216766.23400312418,
      "d": 92.26197395831696,
      "v": 33
    },
    {
      "midi": 72,
      "hit": false,
      "t": 216829.9245270825,
      "d": 155.357259374985,
      "v": 40
    },
    {
      "midi": 76,
      "hit": false,
      "t": 216931.11507916581,
      "d": 123.21437812500517,
      "v": 41
    },
    {
      "midi": 79,
      "hit": false,
      "t": 217029.92467708248,
      "d": 37.50002812501043,
      "v": 36
    },
    {
      "midi": 80,
      "hit": false,
      "t": 217112.0675958325,
      "d": 50.000037499994505,
      "v": 43
    },
    {
      "midi": 79,
      "hit": false,
      "t": 217179.3295510408,
      "d": 108.9286531250109,
      "v": 31
    },
    {
      "midi": 84,
      "hit": false,
      "t": 217263.25818541582,
      "d": 130.95247916664812,
      "v": 48
    },
    {
      "midi": 88,
      "hit": false,
      "t": 217338.2582416658,
      "d": 88.0953041666653,
      "v": 33
    },
    {
      "midi": 91,
      "hit": false,
      "t": 217423.9725916658,
      "d": 44.04765208333265,
      "v": 36
    },
    {
      "midi": 91,
      "hit": false,
      "t": 217534.09172187414,
      "d": 1089.2865312499925,
      "v": 50
    },
    {
      "midi": 94,
      "hit": false,
      "t": 217564.44888749914,
      "d": 36.90478958332096,
      "v": 21
    },
    {
      "midi": 96,
      "hit": false,
      "t": 217648.37752187412,
      "d": 772.0243885416712,
      "v": 30
    },
    {
      "midi": 100,
      "hit": false,
      "t": 217706.1156604158,
      "d": 700.0005250000104,
      "v": 54
    },
    {
      "midi": 103,
      "hit": false,
      "t": 217826.94908437412,
      "d": 461.3098697916721,
      "v": 43
    },
    {
      "midi": 64,
      "hit": false,
      "t": 219412.06932083247,
      "d": 1017.8579062500212,
      "v": 54
    },
    {
      "midi": 76,
      "hit": false,
      "t": 219414.45027499914,
      "d": 1033.9293468750257,
      "v": 72
    },
    {
      "midi": 72,
      "hit": false,
      "t": 220400.16529999915,
      "d": 442.2622364583658,
      "v": 36
    },
    {
      "midi": 60,
      "hit": false,
      "t": 220413.26054791582,
      "d": 345.2383541666786,
      "v": 33
    },
    {
      "midi": 84,
      "hit": false,
      "t": 221815.04731354085,
      "d": 305.952610416658,
      "v": 74
    },
    {
      "midi": 76,
      "hit": false,
      "t": 221828.7377999992,
      "d": 347.0240697916597,
      "v": 63
    },
    {
      "midi": 57,
      "hit": false,
      "t": 221837.66637812418,
      "d": 745.2386541666638,
      "v": 60
    },
    {
      "midi": 64,
      "hit": false,
      "t": 222365.6429645825,
      "d": 205.95253541666898,
      "v": 37
    },
    {
      "midi": 69,
      "hit": false,
      "t": 222387.66679062418,
      "d": 154.16678229166428,
      "v": 26
    },
    {
      "midi": 56,
      "hit": false,
      "t": 222926.95290937417,
      "d": 913.6911614583514,
      "v": 53
    },
    {
      "midi": 83,
      "hit": false,
      "t": 223322.7865395825,
      "d": 307.7383260416682,
      "v": 49
    },
    {
      "midi": 75,
      "hit": false,
      "t": 223327.54844791585,
      "d": 549.4051739583374,
      "v": 38
    },
    {
      "midi": 71,
      "hit": false,
      "t": 223334.69131041586,
      "d": 361.309794791654,
      "v": 35
    },
    {
      "midi": 78,
      "hit": false,
      "t": 223340.64369583252,
      "d": 464.286062500003,
      "v": 47
    },
    {
      "midi": 65,
      "hit": false,
      "t": 223341.83417291584,
      "d": 500.00037500000326,
      "v": 36
    },
    {
      "midi": 82,
      "hit": false,
      "t": 224046.5966062492,
      "d": 529.1670635417395,
      "v": 51
    },
    {
      "midi": 70,
      "hit": false,
      "t": 224062.6680468742,
      "d": 461.9051083333907,
      "v": 37
    },
    {
      "midi": 65,
      "hit": false,
      "t": 224072.78710208254,
      "d": 442.8574750000553,
      "v": 34
    },
    {
      "midi": 74,
      "hit": false,
      "t": 224079.92996458255,
      "d": 417.8574562500289,
      "v": 40
    },
    {
      "midi": 55,
      "hit": false,
      "t": 224100.7633135409,
      "d": 404.166969791695,
      "v": 18
    },
    {
      "midi": 77,
      "hit": false,
      "t": 224130.52524062424,
      "d": 393.45267604169203,
      "v": 22
    },
    {
      "midi": 54,
      "hit": false,
      "t": 225046.0021177076,
      "d": 169.64298437500838,
      "v": 35
    },
    {
      "midi": 81,
      "hit": false,
      "t": 225053.74021874927,
      "d": 161.30964479167596,
      "v": 34
    },
    {
      "midi": 64,
      "hit": false,
      "t": 225058.5021270826,
      "d": 139.28581875000964,
      "v": 31
    },
    {
      "midi": 73,
      "hit": false,
      "t": 225063.8592739576,
      "d": 114.88103854167275,
      "v": 25
    },
    {
      "midi": 76,
      "hit": false,
      "t": 225071.59737499928,
      "d": 125.00009375001537,
      "v": 40
    },
    {
      "midi": 69,
      "hit": false,
      "t": 225078.7402374993,
      "d": 104.76198333333014,
      "v": 24
    },
    {
      "midi": 81,
      "hit": false,
      "t": 225540.05010729094,
      "d": 63.09528541666805,
      "v": 67
    },
    {
      "midi": 82,
      "hit": false,
      "t": 225757.31217499927,
      "d": 76.19053333334159,
      "v": 49
    },
    {
      "midi": 84,
      "hit": false,
      "t": 226093.02671249927,
      "d": 169.04774583334802,
      "v": 65
    },
    {
      "midi": 41,
      "hit": false,
      "t": 226234.69348541595,
      "d": 107.73817604166106,
      "v": 32
    },
    {
      "midi": 48,
      "hit": false,
      "t": 226267.43160520762,
      "d": 101.78579062499921,
      "v": 24
    },
    {
      "midi": 57,
      "hit": false,
      "t": 226298.97924791594,
      "d": 129.16676354166702,
      "v": 19
    },
    {
      "midi": 88,
      "hit": false,
      "t": 226640.6461708326,
      "d": 139.88105729167,
      "v": 69
    },
    {
      "midi": 84,
      "hit": false,
      "t": 226858.5034770826,
      "d": 116.66675416668295,
      "v": 54
    },
    {
      "midi": 57,
      "hit": false,
      "t": 226863.8606239576,
      "d": 306.54784895834746,
      "v": 32
    },
    {
      "midi": 62,
      "hit": false,
      "t": 226865.6463395826,
      "d": 411.90507083333796,
      "v": 33
    },
    {
      "midi": 67,
      "hit": false,
      "t": 226974.5749927076,
      "d": 220.83349895832362,
      "v": 1
    },
    {
      "midi": 91,
      "hit": false,
      "t": 227235.88471249928,
      "d": 191.6668104166456,
      "v": 67
    },
    {
      "midi": 79,
      "hit": false,
      "t": 227246.00376770762,
      "d": 186.90490208330448,
      "v": 48
    },
    {
      "midi": 87,
      "hit": false,
      "t": 227246.59900624928,
      "d": 127.97628645831719,
      "v": 59
    },
    {
      "midi": 88,
      "hit": false,
      "t": 227371.0038614576,
      "d": 100.59531354164938,
      "v": 29
    },
    {
      "midi": 67,
      "hit": false,
      "t": 227434.69438541593,
      "d": 378.5717124999792,
      "v": 33
    },
    {
      "midi": 56,
      "hit": false,
      "t": 227451.95630312426,
      "d": 702.3814791666518,
      "v": 26
    },
    {
      "midi": 62,
      "hit": false,
      "t": 227453.14678020758,
      "d": 430.357465625013,
      "v": 33
    },
    {
      "midi": 62,
      "hit": false,
      "t": 228062.0758083326,
      "d": 38.69050520833116,
      "v": 41
    },
    {
      "midi": 65,
      "hit": false,
      "t": 228237.07593958257,
      "d": 82.14291875000345,
      "v": 59
    },
    {
      "midi": 67,
      "hit": false,
      "t": 228410.29035520757,
      "d": 94.64292812498752,
      "v": 68
    },
    {
      "midi": 66,
      "hit": false,
      "t": 228586.48096354087,
      "d": 259.5240041666548,
      "v": 60
    },
    {
      "midi": 61,
      "hit": false,
      "t": 228590.05239479087,
      "d": 436.9050895833352,
      "v": 43
    },
    {
      "midi": 55,
      "hit": false,
      "t": 228593.62382604086,
      "d": 294.64307812499464,
      "v": 44
    },
    {
      "midi": 69,
      "hit": false,
      "t": 228597.79049583254,
      "d": 479.16702604165766,
      "v": 84
    },
    {
      "midi": 65,
      "hit": false,
      "t": 228970.40982291586,
      "d": 140.47629583333037,
      "v": 53
    },
    {
      "midi": 64,
      "hit": false,
      "t": 229155.52900937418,
      "d": 110.11913020830252,
      "v": 44
    },
    {
      "midi": 53,
      "hit": false,
      "t": 229171.00521145752,
      "d": 186.309663541615,
      "v": 32
    },
    {
      "midi": 60,
      "hit": false,
      "t": 229173.98140416585,
      "d": 105.95246041662176,
      "v": 32
    },
    {
      "midi": 57,
      "hit": false,
      "t": 229175.17188124917,
      "d": 135.71438749996014,
      "v": 42
    },
    {
      "midi": 67,
      "hit": false,
      "t": 229176.3623583325,
      "d": 298.21450937498594,
      "v": 60
    },
    {
      "midi": 64,
      "hit": false,
      "t": 229503.74355624916,
      "d": 92.26197395834606,
      "v": 43
    },
    {
      "midi": 65,
      "hit": false,
      "t": 229723.98181666585,
      "d": 304.166894791706,
      "v": 55
    },
    {
      "midi": 43,
      "hit": false,
      "t": 229731.12467916586,
      "d": 443.45271354168653,
      "v": 27
    },
    {
      "midi": 53,
      "hit": false,
      "t": 229734.1008718742,
      "d": 229.16683854168514,
      "v": 35
    },
    {
      "midi": 47,
      "hit": false,
      "t": 230115.64877708256,
      "d": 176.78584687499097,
      "v": 44
    },
    {
      "midi": 64,
      "hit": false,
      "t": 230304.33939479088,
      "d": 239.88113229165901,
      "v": 55
    },
    {
      "midi": 58,
      "hit": false,
      "t": 230307.91082604087,
      "d": 204.76205833334825,
      "v": 37
    },
    {
      "midi": 48,
      "hit": false,
      "t": 230318.0298812492,
      "d": 122.6191395833448,
      "v": 43
    },
    {
      "midi": 41,
      "hit": false,
      "t": 230856.12552291586,
      "d": 101.19055208330974,
      "v": 44
    },
    {
      "midi": 62,
      "hit": false,
      "t": 230865.05410104085,
      "d": 95.23816666664788,
      "v": 57
    },
    {
      "midi": 51,
      "hit": false,
      "t": 230868.03029374918,
      "d": 75.00005624999176,
      "v": 35
    },
    {
      "midi": 59,
      "hit": false,
      "t": 230881.12554166585,
      "d": 80.35720312496414,
      "v": 38
    },
    {
      "midi": 74,
      "hit": false,
      "t": 231270.4115479158,
      "d": 156.54773645833484,
      "v": 64
    },
    {
      "midi": 67,
      "hit": false,
      "t": 231486.48313854082,
      "d": 272.6192520833283,
      "v": 50
    },
    {
      "midi": 63,
      "hit": false,
      "t": 231487.07837708248,
      "d": 270.8335364583472,
      "v": 37
    },
    {
      "midi": 62,
      "hit": false,
      "t": 231494.2212395825,
      "d": 300.00022499999614,
      "v": 51
    },
    {
      "midi": 63,
      "hit": false,
      "t": 231848.98341041582,
      "d": 67.85719375000917,
      "v": 42
    },
    {
      "midi": 67,
      "hit": false,
      "t": 231850.76912604083,
      "d": 92.26197395834606,
      "v": 40
    },
    {
      "midi": 53,
      "hit": false,
      "t": 232004.93590833253,
      "d": 807.1434625000111,
      "v": 34
    },
    {
      "midi": 60,
      "hit": false,
      "t": 232012.6740093742,
      "d": 254.76209583334276,
      "v": 22
    },
    {
      "midi": 77,
      "hit": false,
      "t": 232191.84081041586,
      "d": 840.4768208333408,
      "v": 64
    },
    {
      "midi": 60,
      "hit": false,
      "t": 232572.19823854088,
      "d": 198.21443437499693,
      "v": 26
    },
    {
      "midi": 65,
      "hit": false,
      "t": 233158.50820208254,
      "d": 171.42870000001858,
      "v": 33
    },
    {
      "midi": 74,
      "hit": false,
      "t": 233173.98440416588,
      "d": 79.16672604167252,
      "v": 60
    },
    {
      "midi": 62,
      "hit": false,
      "t": 233195.4129916659,
      "d": 851.1911145833728,
      "v": 31
    },
    {
      "midi": 60,
      "hit": false,
      "t": 233195.4129916659,
      "d": 905.3578218750481,
      "v": 25
    },
    {
      "midi": 75,
      "hit": false,
      "t": 233307.9130760409,
      "d": 35.11907395833987,
      "v": 26
    },
    {
      "midi": 74,
      "hit": false,
      "t": 233331.72261770756,
      "d": 97.61912083334755,
      "v": 47
    },
    {
      "midi": 73,
      "hit": false,
      "t": 233427.5560229159,
      "d": 79.16672604167252,
      "v": 43
    },
    {
      "midi": 74,
      "hit": false,
      "t": 233553.15135520758,
      "d": 88.69054270832567,
      "v": 60
    },
    {
      "midi": 53,
      "hit": false,
      "t": 233690.05621979092,
      "d": 255.35733437500312,
      "v": 42
    },
    {
      "midi": 77,
      "hit": false,
      "t": 233717.43719270758,
      "d": 67.85719375000917,
      "v": 53
    },
    {
      "midi": 79,
      "hit": false,
      "t": 233862.67539687426,
      "d": 142.85725000000093,
      "v": 50
    },
    {
      "midi": 81,
      "hit": false,
      "t": 233967.4373802076,
      "d": 142.85725000000093,
      "v": 60
    },
    {
      "midi": 82,
      "hit": false,
      "t": 234082.31841874926,
      "d": 142.85725000000093,
      "v": 50
    },
    {
      "midi": 84,
      "hit": false,
      "t": 234214.46137499926,
      "d": 469.04797083331505,
      "v": 81
    },
    {
      "midi": 51,
      "hit": false,
      "t": 234266.84236666592,
      "d": 824.4053802082781,
      "v": 31
    },
    {
      "midi": 61,
      "hit": false,
      "t": 234276.36618333258,
      "d": 486.9051270833297,
      "v": 29
    },
    {
      "midi": 67,
      "hit": false,
      "t": 234290.65190833257,
      "d": 441.071759375016,
      "v": 31
    },
    {
      "midi": 77,
      "hit": false,
      "t": 234447.79488333256,
      "d": 450.00033749997965,
      "v": 58
    },
    {
      "midi": 79,
      "hit": false,
      "t": 234846.00946770757,
      "d": 318.45261979161296,
      "v": 62
    },
    {
      "midi": 61,
      "hit": false,
      "t": 234848.9856604159,
      "d": 305.9526104166289,
      "v": 39
    },
    {
      "midi": 67,
      "hit": false,
      "t": 234855.53328437422,
      "d": 249.40494895831216,
      "v": 34
    },
    {
      "midi": 81,
      "hit": false,
      "t": 235427.55752291586,
      "d": 258.9287656250235,
      "v": 71
    },
    {
      "midi": 61,
      "hit": false,
      "t": 235429.93847708253,
      "d": 524.405155208311,
      "v": 68
    },
    {
      "midi": 55,
      "hit": false,
      "t": 235431.72419270754,
      "d": 279.16687604165054,
      "v": 70
    },
    {
      "midi": 76,
      "hit": false,
      "t": 235434.1051468742,
      "d": 255.35733437500312,
      "v": 76
    },
    {
      "midi": 73,
      "hit": false,
      "t": 235435.89086249922,
      "d": 260.11924270831514,
      "v": 70
    },
    {
      "midi": 66,
      "hit": false,
      "t": 235437.08133958254,
      "d": 287.50021562498296,
      "v": 79
    },
    {
      "midi": 69,
      "hit": false,
      "t": 235438.86705520755,
      "d": 219.04778333334252,
      "v": 79
    },
    {
      "midi": 79,
      "hit": false,
      "t": 235459.1051656242,
      "d": 243.4525635416503,
      "v": 34
    },
    {
      "midi": 55,
      "hit": false,
      "t": 235779.93873958252,
      "d": 111.30960729168146,
      "v": 53
    },
    {
      "midi": 66,
      "hit": false,
      "t": 235780.53397812418,
      "d": 106.54769895834033,
      "v": 60
    },
    {
      "midi": 84,
      "hit": false,
      "t": 235787.6768406242,
      "d": 135.11914895832888,
      "v": 76
    },
    {
      "midi": 66,
      "hit": false,
      "t": 235988.27222916583,
      "d": 242.26208645832958,
      "v": 52
    },
    {
      "midi": 61,
      "hit": false,
      "t": 235991.24842187416,
      "d": 327.38119791666395,
      "v": 23
    },
    {
      "midi": 55,
      "hit": false,
      "t": 235997.20080729082,
      "d": 176.78584687499097,
      "v": 41
    },
    {
      "midi": 81,
      "hit": false,
      "t": 236013.8674864575,
      "d": 35.11907395833987,
      "v": 48
    },
    {
      "midi": 88,
      "hit": false,
      "t": 236350.77250104083,
      "d": 361.3097947916831,
      "v": 54
    },
    {
      "midi": 80,
      "hit": false,
      "t": 236353.1534552075,
      "d": 457.7384385416808,
      "v": 39
    },
    {
      "midi": 54,
      "hit": false,
      "t": 236354.9391708325,
      "d": 460.11939270835137,
      "v": 51
    },
    {
      "midi": 76,
      "hit": false,
      "t": 236355.53440937417,
      "d": 377.9764739583479,
      "v": 51
    },
    {
      "midi": 60,
      "hit": false,
      "t": 236358.5106020825,
      "d": 382.1431437500287,
      "v": 37
    },
    {
      "midi": 83,
      "hit": false,
      "t": 236360.2963177075,
      "d": 439.2860437500058,
      "v": 56
    },
    {
      "midi": 65,
      "hit": false,
      "t": 236360.89155624917,
      "d": 411.3098322916776,
      "v": 49
    },
    {
      "midi": 86,
      "hit": false,
      "t": 236387.67729062418,
      "d": 341.07168437499786,
      "v": 30
    },
    {
      "midi": 54,
      "hit": false,
      "t": 236918.63006979087,
      "d": 120.8334239583346,
      "v": 45
    },
    {
      "midi": 65,
      "hit": false,
      "t": 236922.20150104086,
      "d": 81.54768020834308,
      "v": 48
    },
    {
      "midi": 60,
      "hit": false,
      "t": 236927.55864791587,
      "d": 111.30960729168146,
      "v": 34
    },
    {
      "midi": 86,
      "hit": false,
      "t": 236931.13007916586,
      "d": 74.4048177083605,
      "v": 56
    },
    {
      "midi": 74,
      "hit": false,
      "t": 236934.1062718742,
      "d": 40.47622083334136,
      "v": 54
    },
    {
      "midi": 80,
      "hit": false,
      "t": 236935.8919874992,
      "d": 116.66675416668295,
      "v": 45
    },
    {
      "midi": 54,
      "hit": false,
      "t": 237124.58260520757,
      "d": 245.83351770832087,
      "v": 43
    },
    {
      "midi": 65,
      "hit": false,
      "t": 237132.32070624924,
      "d": 115.47627708333312,
      "v": 28
    },
    {
      "midi": 88,
      "hit": false,
      "t": 237138.2730916659,
      "d": 120.23818541664514,
      "v": 54
    },
    {
      "midi": 60,
      "hit": false,
      "t": 237138.86833020757,
      "d": 112.50008437500219,
      "v": 36
    },
    {
      "midi": 76,
      "hit": false,
      "t": 237146.01119270758,
      "d": 106.54769895831123,
      "v": 43
    },
    {
      "midi": 89,
      "hit": false,
      "t": 237498.9876479159,
      "d": 521.4289625000674,
      "v": 76
    },
    {
      "midi": 86,
      "hit": false,
      "t": 237503.15431770758,
      "d": 478.5717875000555,
      "v": 74
    },
    {
      "midi": 77,
      "hit": false,
      "t": 237506.1305104159,
      "d": 529.7623020833998,
      "v": 80
    },
    {
      "midi": 82,
      "hit": false,
      "t": 237510.2971802076,
      "d": 555.3575593750575,
      "v": 65
    },
    {
      "midi": 55,
      "hit": false,
      "t": 237512.67813437426,
      "d": 422.0241260417097,
      "v": 63
    },
    {
      "midi": 62,
      "hit": false,
      "t": 237514.46384999927,
      "d": 471.4289250000438,
      "v": 77
    },
    {
      "midi": 58,
      "hit": false,
      "t": 237517.4400427076,
      "d": 469.6432093750336,
      "v": 62
    },
    {
      "midi": 53,
      "hit": false,
      "t": 237527.55909791595,
      "d": 117.26199270834331,
      "v": 49
    },
    {
      "midi": 88,
      "hit": false,
      "t": 237529.34481354096,
      "d": 39.285743749991525,
      "v": 41
    },
    {
      "midi": 88,
      "hit": false,
      "t": 238265.65488958266,
      "d": 370.23837291664677,
      "v": 73
    },
    {
      "midi": 80,
      "hit": false,
      "t": 238270.416797916,
      "d": 440.4765208333265,
      "v": 64
    },
    {
      "midi": 76,
      "hit": false,
      "t": 238273.39299062433,
      "d": 380.3574281249894,
      "v": 74
    },
    {
      "midi": 58,
      "hit": false,
      "t": 238274.58346770765,
      "d": 408.92887812500703,
      "v": 59
    },
    {
      "midi": 84,
      "hit": false,
      "t": 238275.77394479097,
      "d": 361.90503333334345,
      "v": 67
    },
    {
      "midi": 69,
      "hit": false,
      "t": 238276.36918333263,
      "d": 370.23837291667587,
      "v": 64
    },
    {
      "midi": 64,
      "hit": false,
      "t": 238282.3215687493,
      "d": 324.405005208333,
      "v": 67
    },
    {
      "midi": 86,
      "hit": false,
      "t": 238302.55967916595,
      "d": 351.78597812502994,
      "v": 35
    },
    {
      "midi": 86,
      "hit": false,
      "t": 238811.488632291,
      "d": 598.2147343749821,
      "v": 62
    },
    {
      "midi": 67,
      "hit": false,
      "t": 238817.44101770766,
      "d": 625.0004687499895,
      "v": 46
    },
    {
      "midi": 63,
      "hit": false,
      "t": 238824.58388020768,
      "d": 657.1433499999694,
      "v": 40
    },
    {
      "midi": 83,
      "hit": false,
      "t": 238825.17911874934,
      "d": 556.54803645832,
      "v": 60
    },
    {
      "midi": 62,
      "hit": false,
      "t": 238826.96483437435,
      "d": 606.5480739583145,
      "v": 55
    },
    {
      "midi": 79,
      "hit": false,
      "t": 238829.34578854102,
      "d": 575.0004312499659,
      "v": 54
    },
    {
      "midi": 74,
      "hit": false,
      "t": 238830.53626562434,
      "d": 614.2861749999865,
      "v": 44
    },
    {
      "midi": 57,
      "hit": false,
      "t": 238837.08388958266,
      "d": 638.6909552083234,
      "v": 44
    },
    {
      "midi": 84,
      "hit": false,
      "t": 239735.29884895764,
      "d": 151.19058958333335,
      "v": 60
    },
    {
      "midi": 79,
      "hit": false,
      "t": 239748.3940968743,
      "d": 97.61912083334755,
      "v": 51
    },
    {
      "midi": 56,
      "hit": false,
      "t": 239748.98933541597,
      "d": 229.7620770833455,
      "v": 46
    },
    {
      "midi": 72,
      "hit": false,
      "t": 239750.77505104098,
      "d": 113.09532291666255,
      "v": 45
    },
    {
      "midi": 62,
      "hit": false,
      "t": 239757.917913541,
      "d": 127.38104791665683,
      "v": 49
    },
    {
      "midi": 73,
      "hit": false,
      "t": 240071.60862499932,
      "d": 306.54784895834746,
      "v": 47
    },
    {
      "midi": 82,
      "hit": false,
      "t": 240073.39434062433,
      "d": 308.33356458332855,
      "v": 56
    },
    {
      "midi": 55,
      "hit": false,
      "t": 240081.72768020767,
      "d": 232.14303124998696,
      "v": 43
    },
    {
      "midi": 61,
      "hit": false,
      "t": 240091.25149687432,
      "d": 194.64300312500563,
      "v": 33
    },
    {
      "midi": 65,
      "hit": false,
      "t": 240093.03721249933,
      "d": 169.64298437500838,
      "v": 42
    },
    {
      "midi": 77,
      "hit": false,
      "t": 240095.418166666,
      "d": 267.26210520832683,
      "v": 51
    },
    {
      "midi": 39,
      "hit": false,
      "t": 240603.7518812493,
      "d": 150.59535104167298,
      "v": 47
    },
    {
      "midi": 46,
      "hit": false,
      "t": 240609.1090281243,
      "d": 1670.2393479166785,
      "v": 54
    },
    {
      "midi": 70,
      "hit": false,
      "t": 241150.77610104097,
      "d": 909.5244916666707,
      "v": 51
    },
    {
      "midi": 61,
      "hit": false,
      "t": 241160.29991770763,
      "d": 394.64315312501276,
      "v": 37
    },
    {
      "midi": 55,
      "hit": false,
      "t": 241178.7523124993,
      "d": 388.6907677083509,
      "v": 40
    },
    {
      "midi": 65,
      "hit": false,
      "t": 241180.5380281243,
      "d": 362.5002718750038,
      "v": 49
    },
    {
      "midi": 61,
      "hit": false,
      "t": 241706.72889895766,
      "d": 279.7621145833109,
      "v": 34
    },
    {
      "midi": 65,
      "hit": false,
      "t": 241729.94320208265,
      "d": 229.16683854165603,
      "v": 42
    },
    {
      "midi": 55,
      "hit": false,
      "t": 241741.2527343743,
      "d": 402.9764927083452,
      "v": 27
    },
    {
      "midi": 50,
      "hit": false,
      "t": 242317.44364270766,
      "d": 1100.0008250000246,
      "v": 41
    },
    {
      "midi": 60,
      "hit": false,
      "t": 242628.15816145766,
      "d": 89.28578125001513,
      "v": 40
    },
    {
      "midi": 57,
      "hit": false,
      "t": 242632.32483124934,
      "d": 63.69052395832841,
      "v": 44
    },
    {
      "midi": 64,
      "hit": false,
      "t": 242882.920257291,
      "d": 317.8573812500108,
      "v": 58
    },
    {
      "midi": 60,
      "hit": false,
      "t": 242883.51549583266,
      "d": 214.2858750000305,
      "v": 48
    },
    {
      "midi": 69,
      "hit": false,
      "t": 242885.30121145767,
      "d": 200.00015000000712,
      "v": 57
    },
    {
      "midi": 65,
      "hit": false,
      "t": 242894.22978958266,
      "d": 199.40491145834676,
      "v": 53
    },
    {
      "midi": 67,
      "hit": false,
      "t": 243156.13474791602,
      "d": 182.14299374999246,
      "v": 57
    },
    {
      "midi": 59,
      "hit": false,
      "t": 243423.992091666,
      "d": 348.8097854166699,
      "v": 35
    },
    {
      "midi": 65,
      "hit": false,
      "t": 243426.37304583268,
      "d": 370.83361145833624,
      "v": 44
    },
    {
      "midi": 43,
      "hit": false,
      "t": 243431.73019270768,
      "d": 544.6432656249963,
      "v": 27
    },
    {
      "midi": 63,
      "hit": false,
      "t": 243432.32543124934,
      "d": 398.8098229166644,
      "v": 38
    },
    {
      "midi": 53,
      "hit": false,
      "t": 243448.39687187434,
      "d": 276.1906833333196,
      "v": 19
    },
    {
      "midi": 59,
      "hit": false,
      "t": 243968.635357291,
      "d": 124.4048552083259,
      "v": 44
    },
    {
      "midi": 69,
      "hit": false,
      "t": 243973.992504166,
      "d": 170.8334614583291,
      "v": 38
    },
    {
      "midi": 63,
      "hit": false,
      "t": 243975.778219791,
      "d": 192.85728749999544,
      "v": 39
    },
    {
      "midi": 53,
      "hit": false,
      "t": 243981.73060520767,
      "d": 55.95242291665636,
      "v": 24
    },
    {
      "midi": 72,
      "hit": false,
      "t": 244539.46911874934,
      "d": 148.8096354166919,
      "v": 47
    },
    {
      "midi": 60,
      "hit": false,
      "t": 244541.25483437435,
      "d": 823.8101416666759,
      "v": 30
    },
    {
      "midi": 65,
      "hit": false,
      "t": 244551.96912812436,
      "d": 93.45245104166679,
      "v": 38
    },
    {
      "midi": 70,
      "hit": false,
      "t": 244554.35008229103,
      "d": 148.21439687500242,
      "v": 35
    },
    {
      "midi": 84,
      "hit": false,
      "t": 244856.7312614577,
      "d": 32.14288125000894,
      "v": 59
    },
    {
      "midi": 84,
      "hit": false,
      "t": 245113.27907291605,
      "d": 30.952404166659107,
      "v": 61
    },
    {
      "midi": 48,
      "hit": false,
      "t": 245132.92194479104,
      "d": 1350.001012499968,
      "v": 32
    },
    {
      "midi": 96,
      "hit": false,
      "t": 245409.70786666602,
      "d": 39.285743749991525,
      "v": 62
    },
    {
      "midi": 96,
      "hit": false,
      "t": 245692.4461739577,
      "d": 29.166688541678013,
      "v": 69
    },
    {
      "midi": 60,
      "hit": false,
      "t": 245978.7559124994,
      "d": 125.00009374998626,
      "v": 33
    },
    {
      "midi": 68,
      "hit": false,
      "t": 246247.20849479103,
      "d": 275.0002062499698,
      "v": 52
    },
    {
      "midi": 64,
      "hit": false,
      "t": 246247.8037333327,
      "d": 272.02401354163885,
      "v": 47
    },
    {
      "midi": 60,
      "hit": false,
      "t": 246253.75611874936,
      "d": 690.476708333299,
      "v": 33
    },
    {
      "midi": 72,
      "hit": false,
      "t": 246543.04204999935,
      "d": 72.6191020833212,
      "v": 59
    },
    {
      "midi": 48,
      "hit": false,
      "t": 246548.994435416,
      "d": 1003.5721812499978,
      "v": 62
    },
    {
      "midi": 84,
      "hit": false,
      "t": 246831.137504166,
      "d": 66.66671666665934,
      "v": 90
    },
    {
      "midi": 96,
      "hit": false,
      "t": 247102.566279166,
      "d": 169.0477458333189,
      "v": 96
    },
    {
      "midi": 60,
      "hit": false,
      "t": 247400.18554999933,
      "d": 366.6669416666846,
      "v": 35
    },
    {
      "midi": 96,
      "hit": false,
      "t": 247408.51888958266,
      "d": 60.11909270833712,
      "v": 74
    },
    {
      "midi": 48,
      "hit": false,
      "t": 247692.44767395768,
      "d": 875.000656249962,
      "v": 40
    },
    {
      "midi": 60,
      "hit": false,
      "t": 248003.16219270768,
      "d": 314.2859499999613,
      "v": 31
    },
    {
      "midi": 64,
      "hit": false,
      "t": 248004.352669791,
      "d": 204.76205833331915,
      "v": 51
    },
    {
      "midi": 72,
      "hit": false,
      "t": 248006.73362395767,
      "d": 479.16702604162856,
      "v": 40
    },
    {
      "midi": 68,
      "hit": false,
      "t": 248015.66220208266,
      "d": 273.80972916664905,
      "v": 40
    },
    {
      "midi": 69,
      "hit": false,
      "t": 248767.44848020765,
      "d": 89.8810197916755,
      "v": 66
    },
    {
      "midi": 70,
      "hit": false,
      "t": 248926.37717083265,
      "d": 107.1429375000007,
      "v": 57
    },
    {
      "midi": 48,
      "hit": false,
      "t": 249097.210632291,
      "d": 161.30964479167596,
      "v": 40
    },
    {
      "midi": 72,
      "hit": false,
      "t": 249104.94873333268,
      "d": 286.30973854169133,
      "v": 70
    },
    {
      "midi": 41,
      "hit": false,
      "t": 249109.11540312436,
      "d": 92.85721249997732,
      "v": 28
    },
    {
      "midi": 57,
      "hit": false,
      "t": 249110.30588020768,
      "d": 172.02393854167894,
      "v": 49
    },
    {
      "midi": 76,
      "hit": false,
      "t": 249486.49663854105,
      "d": 179.7620395833219,
      "v": 73
    },
    {
      "midi": 60,
      "hit": false,
      "t": 249693.63965104104,
      "d": 91.07149687499623,
      "v": 24
    },
    {
      "midi": 53,
      "hit": false,
      "t": 249697.21108229103,
      "d": 144.04772708332166,
      "v": 28
    },
    {
      "midi": 57,
      "hit": false,
      "t": 249701.3777520827,
      "d": 138.69058020832017,
      "v": 38
    },
    {
      "midi": 72,
      "hit": false,
      "t": 249728.75872499938,
      "d": 114.28579999998328,
      "v": 24
    },
    {
      "midi": 79,
      "hit": false,
      "t": 250078.75898749937,
      "d": 747.024369791674,
      "v": 74
    },
    {
      "midi": 76,
      "hit": false,
      "t": 250081.7351802077,
      "d": 730.3576906250091,
      "v": 73
    },
    {
      "midi": 72,
      "hit": false,
      "t": 250085.3066114577,
      "d": 656.5481114583381,
      "v": 75
    },
    {
      "midi": 67,
      "hit": false,
      "t": 250087.0923270827,
      "d": 536.9051645833242,
      "v": 74
    },
    {
      "midi": 62,
      "hit": false,
      "t": 250265.6638895827,
      "d": 111.30960729165236,
      "v": 35
    },
    {
      "midi": 56,
      "hit": false,
      "t": 250271.61627499937,
      "d": 171.42869999998948,
      "v": 42
    },
    {
      "midi": 46,
      "hit": false,
      "t": 250856.14052291604,
      "d": 92.26197395831696,
      "v": 34
    },
    {
      "midi": 77,
      "hit": false,
      "t": 251070.42639791602,
      "d": 83.92863437501364,
      "v": 60
    },
    {
      "midi": 79,
      "hit": false,
      "t": 251248.40272187436,
      "d": 73.21434062501066,
      "v": 54
    },
    {
      "midi": 61,
      "hit": false,
      "t": 251429.35523854106,
      "d": 545.8337427083461,
      "v": 37
    },
    {
      "midi": 79,
      "hit": false,
      "t": 251430.54571562438,
      "d": 84.52387291667401,
      "v": 42
    },
    {
      "midi": 66,
      "hit": false,
      "t": 251447.21239479104,
      "d": 413.0955479166878,
      "v": 32
    },
    {
      "midi": 55,
      "hit": false,
      "t": 251452.56954166605,
      "d": 398.8098229166644,
      "v": 27
    },
    {
      "midi": 80,
      "hit": false,
      "t": 251472.21241354104,
      "d": 71.42862500000047,
      "v": 45
    },
    {
      "midi": 81,
      "hit": false,
      "t": 251546.61723124937,
      "d": 69.0476708333299,
      "v": 41
    },
    {
      "midi": 81,
      "hit": false,
      "t": 251744.2364270827,
      "d": 111.90484583334182,
      "v": 55
    },
    {
      "midi": 60,
      "hit": false,
      "t": 252025.1890187494,
      "d": 276.7859218750091,
      "v": 29
    },
    {
      "midi": 64,
      "hit": false,
      "t": 252031.14140416606,
      "d": 348.21454687500955,
      "v": 39
    },
    {
      "midi": 79,
      "hit": false,
      "t": 252031.73664270772,
      "d": 90.47625833333586,
      "v": 55
    },
    {
      "midi": 57,
      "hit": false,
      "t": 252064.4747624994,
      "d": 320.83357395834173,
      "v": 27
    },
    {
      "midi": 53,
      "hit": false,
      "t": 252071.6176249994,
      "d": 288.6906927083328,
      "v": 19
    },
    {
      "midi": 79,
      "hit": false,
      "t": 252206.14153541607,
      "d": 175.59536979167024,
      "v": 49
    },
    {
      "midi": 64,
      "hit": false,
      "t": 252545.4275041661,
      "d": 311.90499583334895,
      "v": 47
    },
    {
      "midi": 77,
      "hit": false,
      "t": 252550.7846510411,
      "d": 91.66673541665659,
      "v": 57
    },
    {
      "midi": 59,
      "hit": false,
      "t": 252562.6894218744,
      "d": 283.3335458333604,
      "v": 36
    },
    {
      "midi": 53,
      "hit": false,
      "t": 252568.64180729107,
      "d": 325.59548229168286,
      "v": 31
    },
    {
      "midi": 77,
      "hit": false,
      "t": 252726.97525937442,
      "d": 194.04776458334527,
      "v": 46
    },
    {
      "midi": 76,
      "hit": false,
      "t": 253097.2136322911,
      "d": 87.50006562497583,
      "v": 58
    },
    {
      "midi": 58,
      "hit": false,
      "t": 253121.61841249943,
      "d": 171.42869999998948,
      "v": 28
    },
    {
      "midi": 62,
      "hit": false,
      "t": 253122.2136510411,
      "d": 194.64300312500563,
      "v": 24
    },
    {
      "midi": 52,
      "hit": false,
      "t": 253125.78508229108,
      "d": 126.78580937499646,
      "v": 25
    },
    {
      "midi": 76,
      "hit": false,
      "t": 253260.30899270775,
      "d": 213.69063645834103,
      "v": 55
    },
    {
      "midi": 74,
      "hit": false,
      "t": 253657.33309999944,
      "d": 91.66673541665659,
      "v": 58
    },
    {
      "midi": 63,
      "hit": false,
      "t": 253676.97597187443,
      "d": 375.59551979164826,
      "v": 31
    },
    {
      "midi": 67,
      "hit": false,
      "t": 253680.54740312442,
      "d": 362.5002718750038,
      "v": 22
    },
    {
      "midi": 62,
      "hit": false,
      "t": 253683.52359583275,
      "d": 469.04797083331505,
      "v": 39
    },
    {
      "midi": 57,
      "hit": false,
      "t": 253688.2855041661,
      "d": 956.5483364583342,
      "v": 37
    },
    {
      "midi": 74,
      "hit": false,
      "t": 253834.7141854161,
      "d": 264.88115104165627,
      "v": 46
    },
    {
      "midi": 79,
      "hit": false,
      "t": 254219.23828333273,
      "d": 94.64292812501662,
      "v": 68
    },
    {
      "midi": 67,
      "hit": false,
      "t": 254222.21447604106,
      "d": 161.90488333336543,
      "v": 38
    },
    {
      "midi": 63,
      "hit": false,
      "t": 254230.5478156244,
      "d": 463.69082395834266,
      "v": 35
    },
    {
      "midi": 62,
      "hit": false,
      "t": 254243.64306354107,
      "d": 432.73841979168355,
      "v": 5
    },
    {
      "midi": 79,
      "hit": false,
      "t": 254379.95268958274,
      "d": 325.59548229165375,
      "v": 50
    },
    {
      "midi": 63,
      "hit": false,
      "t": 254791.85776041605,
      "d": 367.8574187500344,
      "v": 25
    },
    {
      "midi": 71,
      "hit": false,
      "t": 254795.42919166607,
      "d": 381.5479052083392,
      "v": 51
    },
    {
      "midi": 57,
      "hit": false,
      "t": 254812.6911093744,
      "d": 763.6910489583388,
      "v": 24
    },
    {
      "midi": 67,
      "hit": false,
      "t": 254814.4768249994,
      "d": 304.1668947916769,
      "v": 19
    },
    {
      "midi": 62,
      "hit": false,
      "t": 254824.00064166606,
      "d": 400.00030000001425,
      "v": 29
    },
    {
      "midi": 74,
      "hit": false,
      "t": 255184.71519791608,
      "d": 185.71442499998375,
      "v": 58
    },
    {
      "midi": 63,
      "hit": false,
      "t": 255351.97722812442,
      "d": 123.80961666663643,
      "v": 37
    },
    {
      "midi": 67,
      "hit": false,
      "t": 255363.88199895775,
      "d": 62.50004687497858,
      "v": 24
    },
    {
      "midi": 77,
      "hit": false,
      "t": 255494.8344781244,
      "d": 213.69063645834103,
      "v": 92
    },
    {
      "midi": 77,
      "hit": false,
      "t": 255783.52517083273,
      "d": 220.23826041666325,
      "v": 71
    },
    {
      "midi": 46,
      "hit": false,
      "t": 255938.88243020774,
      "d": 114.28579999998328,
      "v": 54
    },
    {
      "midi": 65,
      "hit": false,
      "t": 256103.16826770772,
      "d": 217.26206770833232,
      "v": 31
    },
    {
      "midi": 65,
      "hit": false,
      "t": 256560.3114677077,
      "d": 276.1906833333487,
      "v": 47
    },
    {
      "midi": 62,
      "hit": false,
      "t": 256562.09718333272,
      "d": 191.07157187501434,
      "v": 33
    },
    {
      "midi": 60,
      "hit": false,
      "t": 256581.74005520772,
      "d": 251.78590312501183,
      "v": 26
    },
    {
      "midi": 61,
      "hit": false,
      "t": 257115.07378854105,
      "d": 420.83364895833074,
      "v": 26
    },
    {
      "midi": 69,
      "hit": false,
      "t": 257119.8356968744,
      "d": 297.0240322916652,
      "v": 41
    },
    {
      "midi": 65,
      "hit": false,
      "t": 257136.50237604105,
      "d": 436.9050895833352,
      "v": 29
    },
    {
      "midi": 55,
      "hit": false,
      "t": 257141.2642843744,
      "d": 671.4290749999927,
      "v": 19
    },
    {
      "midi": 61,
      "hit": false,
      "t": 257718.0504312494,
      "d": 77.97624895832269,
      "v": 42
    },
    {
      "midi": 65,
      "hit": false,
      "t": 257922.21725104106,
      "d": 76.19053333334159,
      "v": 48
    },
    {
      "midi": 67,
      "hit": false,
      "t": 258090.07451979106,
      "d": 72.02386354166083,
      "v": 47
    },
    {
      "midi": 61,
      "hit": false,
      "t": 258271.02703645773,
      "d": 270.8335364583472,
      "v": 46
    },
    {
      "midi": 55,
      "hit": false,
      "t": 258274.59846770772,
      "d": 244.04780208336888,
      "v": 39
    },
    {
      "midi": 66,
      "hit": false,
      "t": 258288.28895416606,
      "d": 94.04768958335626,
      "v": 29
    },
    {
      "midi": 69,
      "hit": false,
      "t": 258290.07466979107,
      "d": 158.33345208334504,
      "v": 49
    },
    {
      "midi": 61,
      "hit": false,
      "t": 258657.93208854107,
      "d": 161.90488333333633,
      "v": 47
    },
    {
      "midi": 66,
      "hit": false,
      "t": 258662.6939968744,
      "d": 72.02386354166083,
      "v": 48
    },
    {
      "midi": 55,
      "hit": false,
      "t": 258663.88447395773,
      "d": 109.52389166667126,
      "v": 48
    },
    {
      "midi": 72,
      "hit": false,
      "t": 258666.2654281244,
      "d": 172.6191770833393,
      "v": 74
    },
    {
      "midi": 66,
      "hit": false,
      "t": 258884.71797291606,
      "d": 104.76198333335924,
      "v": 37
    },
    {
      "midi": 61,
      "hit": false,
      "t": 258897.81322083273,
      "d": 291.07164687503246,
      "v": 40
    },
    {
      "midi": 55,
      "hit": false,
      "t": 258899.59893645774,
      "d": 147.0239197916817,
      "v": 34
    },
    {
      "midi": 69,
      "hit": false,
      "t": 258909.71799166608,
      "d": 51.19051458334434,
      "v": 41
    },
    {
      "midi": 76,
      "hit": false,
      "t": 259244.24205208276,
      "d": 395.8336302083626,
      "v": 49
    },
    {
      "midi": 68,
      "hit": false,
      "t": 259249.0039604161,
      "d": 330.95262916668435,
      "v": 39
    },
    {
      "midi": 64,
      "hit": false,
      "t": 259251.98015312443,
      "d": 267.26210520835593,
      "v": 43
    },
    {
      "midi": 71,
      "hit": false,
      "t": 259256.74206145777,
      "d": 327.38119791669305,
      "v": 48
    },
    {
      "midi": 54,
      "hit": false,
      "t": 259260.90873124945,
      "d": 544.6432656249963,
      "v": 40
    },
    {
      "midi": 60,
      "hit": false,
      "t": 259262.09920833277,
      "d": 455.9527229166706,
      "v": 37
    },
    {
      "midi": 74,
      "hit": false,
      "t": 259831.74249270777,
      "d": 79.76196458333288,
      "v": 80
    },
    {
      "midi": 62,
      "hit": false,
      "t": 259838.2901166661,
      "d": 86.90482708334457,
      "v": 61
    },
    {
      "midi": 74,
      "hit": false,
      "t": 259990.67118333277,
      "d": 84.52387291667401,
      "v": 62
    },
    {
      "midi": 62,
      "hit": false,
      "t": 260004.3616697911,
      "d": 100.00007500001811,
      "v": 46
    },
    {
      "midi": 76,
      "hit": false,
      "t": 260156.14749791613,
      "d": 88.0953041666653,
      "v": 82
    },
    {
      "midi": 64,
      "hit": false,
      "t": 260162.69512187445,
      "d": 87.50006562500494,
      "v": 63
    },
    {
      "midi": 76,
      "hit": false,
      "t": 260318.64761979113,
      "d": 114.88103854167275,
      "v": 64
    },
    {
      "midi": 64,
      "hit": false,
      "t": 260331.7428677078,
      "d": 79.76196458333288,
      "v": 36
    },
    {
      "midi": 65,
      "hit": false,
      "t": 260502.57632916613,
      "d": 380.95266666667885,
      "v": 59
    },
    {
      "midi": 55,
      "hit": false,
      "t": 260503.1715677078,
      "d": 412.5003093750274,
      "v": 57
    },
    {
      "midi": 77,
      "hit": false,
      "t": 260510.90966874946,
      "d": 425.0003187500115,
      "v": 72
    },
    {
      "midi": 74,
      "hit": false,
      "t": 260511.50490729112,
      "d": 336.30977604168584,
      "v": 77
    },
    {
      "midi": 74,
      "hit": false,
      "t": 260972.21953854113,
      "d": 48.809560416673776,
      "v": 40
    },
    {
      "midi": 76,
      "hit": false,
      "t": 261153.1720552078,
      "d": 250.00018750000163,
      "v": 49
    },
    {
      "midi": 64,
      "hit": false,
      "t": 261163.29111041615,
      "d": 311.90499583331984,
      "v": 57
    },
    {
      "midi": 58,
      "hit": false,
      "t": 261172.8149270828,
      "d": 392.2621989583422,
      "v": 42
    },
    {
      "midi": 63,
      "hit": false,
      "t": 261722.8153395828,
      "d": 266.0716281250061,
      "v": 53
    },
    {
      "midi": 74,
      "hit": false,
      "t": 261724.6010552078,
      "d": 213.69063645831193,
      "v": 50
    },
    {
      "midi": 67,
      "hit": false,
      "t": 261746.62488124947,
      "d": 235.1192239583179,
      "v": 39
    },
    {
      "midi": 71,
      "hit": false,
      "t": 261747.8153583328,
      "d": 214.88111354166176,
      "v": 34
    },
    {
      "midi": 57,
      "hit": false,
      "t": 261751.3867895828,
      "d": 173.21441562499967,
      "v": 39
    },
    {
      "midi": 72,
      "hit": false,
      "t": 262285.3157614578,
      "d": 329.7621520833927,
      "v": 44
    },
    {
      "midi": 62,
      "hit": false,
      "t": 262288.8871927078,
      "d": 219.04778333334252,
      "v": 41
    },
    {
      "midi": 65,
      "hit": false,
      "t": 262293.64910104114,
      "d": 394.64315312501276,
      "v": 35
    },
    {
      "midi": 69,
      "hit": false,
      "t": 262297.8157708328,
      "d": 262.5001968750148,
      "v": 37
    },
    {
      "midi": 56,
      "hit": false,
      "t": 262299.00624791614,
      "d": 133.33343333331868,
      "v": 33
    },
    {
      "midi": 70,
      "hit": false,
      "t": 262844.8399906245,
      "d": 2223.21595312492,
      "v": 38
    },
    {
      "midi": 61,
      "hit": false,
      "t": 262846.6257062495,
      "d": 14189.891594791436,
      "v": 35
    },
    {
      "midi": 55,
      "hit": false,
      "t": 262859.72095416614,
      "d": 92.26197395834606,
      "v": 34
    },
    {
      "midi": 65,
      "hit": false,
      "t": 262860.91143124946,
      "d": 2191.073071874969,
      "v": 44
    },
    {
      "midi": 39,
      "hit": false,
      "t": 263401.38802708284,
      "d": 699.4052864583209,
      "v": 38
    },
    {
      "midi": 27,
      "hit": false,
      "t": 263429.36423854117,
      "d": 634.5242854166427,
      "v": 32
    },
    {
      "midi": 39,
      "hit": false,
      "t": 264365.6744645828,
      "d": 206.54777395830024,
      "v": 42
    },
    {
      "midi": 27,
      "hit": false,
      "t": 264378.1744739578,
      "d": 132.73819479165832,
      "v": 38
    },
    {
      "midi": 50,
      "hit": false,
      "t": 265116.27026562445,
      "d": 585.7147250000271,
      "v": 38
    },
    {
      "midi": 57,
      "hit": false,
      "t": 265510.3181802078,
      "d": 164.88107604166726,
      "v": 48
    },
    {
      "midi": 69,
      "hit": false,
      "t": 265513.29437291616,
      "d": 144.64296562498203,
      "v": 44
    },
    {
      "midi": 60,
      "hit": false,
      "t": 265516.8658041662,
      "d": 273.2144906249596,
      "v": 47
    },
    {
      "midi": 64,
      "hit": false,
      "t": 265517.46104270784,
      "d": 274.4049677082803,
      "v": 49
    },
    {
      "midi": 65,
      "hit": false,
      "t": 265523.4134281245,
      "d": 155.95249791664537,
      "v": 40
    },
    {
      "midi": 67,
      "hit": false,
      "t": 265749.60407395783,
      "d": 237.50017812498845,
      "v": 43
    },
    {
      "midi": 65,
      "hit": false,
      "t": 266101.39005208283,
      "d": 235.71446250000736,
      "v": 53
    },
    {
      "midi": 43,
      "hit": false,
      "t": 266107.3424374995,
      "d": 533.9289718749933,
      "v": 24
    },
    {
      "midi": 53,
      "hit": false,
      "t": 266110.31863020785,
      "d": 589.2861562499893,
      "v": 30
    },
    {
      "midi": 59,
      "hit": false,
      "t": 266111.5091072912,
      "d": 171.42869999998948,
      "v": 34
    },
    {
      "midi": 69,
      "hit": false,
      "t": 266847.81918333285,
      "d": 157.73821354168467,
      "v": 39
    },
    {
      "midi": 73,
      "hit": false,
      "t": 267413.2957979162,
      "d": 968.4531072915997,
      "v": 37
    },
    {
      "midi": 64,
      "hit": false,
      "t": 267430.5577156245,
      "d": 910.1197302083019,
      "v": 34
    },
    {
      "midi": 68,
      "hit": false,
      "t": 267431.74819270783,
      "d": 978.5721624999424,
      "v": 34
    },
    {
      "midi": 57,
      "hit": false,
      "t": 268011.51053229114,
      "d": 110.11913020833163,
      "v": 42
    },
    {
      "midi": 57,
      "hit": false,
      "t": 268320.43933541613,
      "d": 347.0240697916015,
      "v": 38
    },
    {
      "midi": 73,
      "hit": false,
      "t": 268599.60621145775,
      "d": 1273.215240624908,
      "v": 40
    },
    {
      "midi": 66,
      "hit": false,
      "t": 268607.3443124994,
      "d": 1152.9770552082919,
      "v": 46
    },
    {
      "midi": 62,
      "hit": false,
      "t": 268613.29669791606,
      "d": 1075.5960447916295,
      "v": 44
    },
    {
      "midi": 57,
      "hit": false,
      "t": 268881.74928020773,
      "d": 40.476220833312254,
      "v": 65
    },
    {
      "midi": 57,
      "hit": false,
      "t": 269156.74948645773,
      "d": 266.66686666663736,
      "v": 96
    },
    {
      "midi": 57,
      "hit": false,
      "t": 269458.5354270827,
      "d": 773.2148656249628,
      "v": 89
    },
    {
      "midi": 73,
      "hit": false,
      "t": 270024.6072802077,
      "d": 1010.1198052082909,
      "v": 42
    },
    {
      "midi": 68,
      "hit": false,
      "t": 270034.726335416,
      "d": 900.5959135416197,
      "v": 52
    },
    {
      "midi": 65,
      "hit": false,
      "t": 270042.46443645767,
      "d": 853.5720687499852,
      "v": 59
    },
    {
      "midi": 62,
      "hit": false,
      "t": 270049.012060416,
      "d": 831.5482427083189,
      "v": 54
    },
    {
      "midi": 57,
      "hit": false,
      "t": 270352.583716666,
      "d": 88.0953041666653,
      "v": 74
    },
    {
      "midi": 57,
      "hit": false,
      "t": 270639.4886937493,
      "d": 648.2147718750639,
      "v": 94
    },
    {
      "midi": 73,
      "hit": false,
      "t": 271174.6081427077,
      "d": 497.02418229170144,
      "v": 56
    },
    {
      "midi": 69,
      "hit": false,
      "t": 271179.9652895827,
      "d": 438.6908052083454,
      "v": 67
    },
    {
      "midi": 64,
      "hit": false,
      "t": 271182.94148229103,
      "d": 402.3812541666557,
      "v": 68
    },
    {
      "midi": 57,
      "hit": false,
      "t": 271472.8226520827,
      "d": 107.1429374999716,
      "v": 82
    },
    {
      "midi": 57,
      "hit": false,
      "t": 271772.227638541,
      "d": 61.30956979165785,
      "v": 62
    },
    {
      "midi": 69,
      "hit": false,
      "t": 272034.1325968743,
      "d": 383.92885937495157,
      "v": 60
    },
    {
      "midi": 74,
      "hit": false,
      "t": 272035.9183124993,
      "d": 385.1193364583305,
      "v": 64
    },
    {
      "midi": 57,
      "hit": false,
      "t": 272043.65641354094,
      "d": 1380.358178125054,
      "v": 66
    },
    {
      "midi": 81,
      "hit": false,
      "t": 272599.01397291594,
      "d": 397.6193458333728,
      "v": 45
    },
    {
      "midi": 78,
      "hit": false,
      "t": 272602.58540416596,
      "d": 382.1431437500287,
      "v": 37
    },
    {
      "midi": 69,
      "hit": false,
      "t": 272612.10922083264,
      "d": 317.26214270835044,
      "v": 35
    },
    {
      "midi": 74,
      "hit": false,
      "t": 272616.871129166,
      "d": 322.61928958335193,
      "v": 48
    },
    {
      "midi": 66,
      "hit": false,
      "t": 272621.6330374993,
      "d": 284.52402291668113,
      "v": 23
    },
    {
      "midi": 62,
      "hit": false,
      "t": 272628.18066145765,
      "d": 195.83348020835547,
      "v": 47
    },
    {
      "midi": 81,
      "hit": false,
      "t": 273163.8953489576,
      "d": 379.16695104166865,
      "v": 44
    },
    {
      "midi": 78,
      "hit": false,
      "t": 273166.871541666,
      "d": 386.30981354165124,
      "v": 39
    },
    {
      "midi": 66,
      "hit": false,
      "t": 273169.84773437434,
      "d": 839.881582291564,
      "v": 32
    },
    {
      "midi": 74,
      "hit": false,
      "t": 273175.800119791,
      "d": 326.7859593749745,
      "v": 45
    },
    {
      "midi": 69,
      "hit": false,
      "t": 273183.53822083265,
      "d": 297.6192708333256,
      "v": 22
    },
    {
      "midi": 62,
      "hit": false,
      "t": 273212.10967083264,
      "d": 736.3100760416128,
      "v": 36
    },
    {
      "midi": 57,
      "hit": false,
      "t": 273714.4909999993,
      "d": 781.548205208208,
      "v": 44
    },
    {
      "midi": 81,
      "hit": false,
      "t": 273715.08623854094,
      "d": 232.14303124998696,
      "v": 46
    },
    {
      "midi": 78,
      "hit": false,
      "t": 273725.2052937493,
      "d": 434.52413541660644,
      "v": 40
    },
    {
      "midi": 74,
      "hit": false,
      "t": 273730.5624406243,
      "d": 245.83351770829177,
      "v": 51
    },
    {
      "midi": 69,
      "hit": false,
      "t": 273743.65768854093,
      "d": 243.4525635416503,
      "v": 24
    },
    {
      "midi": 80,
      "hit": false,
      "t": 274258.53902708256,
      "d": 833.3339583333,
      "v": 72
    },
    {
      "midi": 76,
      "hit": false,
      "t": 274269.8485593742,
      "d": 796.4291687499499,
      "v": 78
    },
    {
      "midi": 73,
      "hit": false,
      "t": 274274.61046770756,
      "d": 788.6910677082487,
      "v": 68
    },
    {
      "midi": 69,
      "hit": false,
      "t": 274279.3723760409,
      "d": 714.8814885415486,
      "v": 77
    },
    {
      "midi": 68,
      "hit": false,
      "t": 274279.96761458257,
      "d": 454.1670072915731,
      "v": 69
    },
    {
      "midi": 57,
      "hit": false,
      "t": 274834.7299354158,
      "d": 837.5006281250389,
      "v": 58
    },
    {
      "midi": 78,
      "hit": false,
      "t": 275141.2777843742,
      "d": 172.6191770833102,
      "v": 65
    },
    {
      "midi": 74,
      "hit": false,
      "t": 275149.01588541584,
      "d": 157.1429750000243,
      "v": 76
    },
    {
      "midi": 69,
      "hit": false,
      "t": 275151.9920781242,
      "d": 147.0239197916817,
      "v": 62
    },
    {
      "midi": 80,
      "hit": false,
      "t": 275171.6349499992,
      "d": 29.761927083309274,
      "v": 23
    },
    {
      "midi": 66,
      "hit": false,
      "t": 275172.2301885409,
      "d": 98.80959791666828,
      "v": 42
    },
    {
      "midi": 64,
      "hit": false,
      "t": 275434.73038541584,
      "d": 613.6909364582971,
      "v": 55
    },
    {
      "midi": 73,
      "hit": false,
      "t": 275436.5161010408,
      "d": 594.6433031249908,
      "v": 46
    },
    {
      "midi": 69,
      "hit": false,
      "t": 275437.1113395825,
      "d": 524.405155208311,
      "v": 47
    },
    {
      "midi": 76,
      "hit": false,
      "t": 275438.3018166658,
      "d": 616.6671291666571,
      "v": 65
    },
    {
      "midi": 57,
      "hit": false,
      "t": 275937.70695312414,
      "d": 103.5715062500094,
      "v": 54
    },
    {
      "midi": 90,
      "hit": false,
      "t": 276540.08835729084,
      "d": 100.59531354170758,
      "v": 37
    },
    {
      "midi": 66,
      "hit": false,
      "t": 276549.01693541586,
      "d": 460.71463125006994,
      "v": 47
    },
    {
      "midi": 55,
      "hit": false,
      "t": 276549.6121739575,
      "d": 428.571750000061,
      "v": 41
    },
    {
      "midi": 78,
      "hit": false,
      "t": 276550.80265104084,
      "d": 51.78575312503381,
      "v": 55
    },
    {
      "midi": 86,
      "hit": false,
      "t": 276576.3979083325,
      "d": 417.26221770839766,
      "v": 38
    },
    {
      "midi": 91,
      "hit": false,
      "t": 276588.30267916585,
      "d": 341.07168437505607,
      "v": 45
    },
    {
      "midi": 79,
      "hit": false,
      "t": 276631.15985416586,
      "d": 343.4526385416975,
      "v": 36
    },
    {
      "midi": 90,
      "hit": false,
      "t": 277128.1840364576,
      "d": 280.3573531250004,
      "v": 46
    },
    {
      "midi": 66,
      "hit": false,
      "t": 277131.75546770764,
      "d": 271.4287749999785,
      "v": 39
    },
    {
      "midi": 61,
      "hit": false,
      "t": 277134.1364218743,
      "d": 2291.073146874958,
      "v": 38
    },
    {
      "midi": 78,
      "hit": false,
      "t": 277143.0649999993,
      "d": 285.1192614583415,
      "v": 48
    },
    {
      "midi": 85,
      "hit": false,
      "t": 277149.6126239576,
      "d": 295.8335552083445,
      "v": 45
    },
    {
      "midi": 55,
      "hit": false,
      "t": 277151.3983395826,
      "d": 229.16683854168514,
      "v": 25
    },
    {
      "midi": 64,
      "hit": false,
      "t": 277677.58921041596,
      "d": 730.3576906249509,
      "v": 45
    },
    {
      "midi": 88,
      "hit": false,
      "t": 277678.7796874993,
      "d": 245.83351770829177,
      "v": 52
    },
    {
      "midi": 83,
      "hit": false,
      "t": 277691.27969687426,
      "d": 225.59540729166474,
      "v": 51
    },
    {
      "midi": 76,
      "hit": false,
      "t": 277700.80351354094,
      "d": 333.3335833332967,
      "v": 22
    },
    {
      "midi": 55,
      "hit": false,
      "t": 278257.35154999926,
      "d": 171.42869999998948,
      "v": 40
    },
    {
      "midi": 86,
      "hit": false,
      "t": 278534.7327104159,
      "d": 116.66675416665385,
      "v": 52
    },
    {
      "midi": 74,
      "hit": false,
      "t": 278550.20891249925,
      "d": 77.38101041666232,
      "v": 54
    },
    {
      "midi": 88,
      "hit": false,
      "t": 278837.70912812423,
      "d": 179.16680104163243,
      "v": 43
    },
    {
      "midi": 81,
      "hit": false,
      "t": 278851.39961458254,
      "d": 185.71442500001285,
      "v": 35
    },
    {
      "midi": 76,
      "hit": false,
      "t": 278856.1615229159,
      "d": 247.0239947916707,
      "v": 30
    },
    {
      "midi": 85,
      "hit": false,
      "t": 278863.30438541586,
      "d": 177.9763239583699,
      "v": 34
    },
    {
      "midi": 57,
      "hit": false,
      "t": 278873.4234406242,
      "d": 1769.0489458334632,
      "v": 33
    },
    {
      "midi": 66,
      "hit": false,
      "t": 279440.0905322909,
      "d": 453.57176875002915,
      "v": 37
    },
    {
      "midi": 76,
      "hit": false,
      "t": 279448.4238718743,
      "d": 1429.1677385417279,
      "v": 31
    },
    {
      "midi": 73,
      "hit": false,
      "t": 279459.1381656243,
      "d": 457.7384385416517,
      "v": 28
    },
    {
      "midi": 69,
      "hit": false,
      "t": 279466.87626666593,
      "d": 425.59555729170097,
      "v": 31
    },
    {
      "midi": 64,
      "hit": false,
      "t": 279740.09075729095,
      "d": 1430.3582156249904,
      "v": 57
    },
    {
      "midi": 66,
      "hit": false,
      "t": 280052.59099166596,
      "d": 404.7622083333554,
      "v": 28
    },
    {
      "midi": 73,
      "hit": false,
      "t": 280066.876716666,
      "d": 413.69078645831905,
      "v": 25
    },
    {
      "midi": 69,
      "hit": false,
      "t": 280080.5672031243,
      "d": 355.35740937502123,
      "v": 31
    },
    {
      "midi": 66,
      "hit": false,
      "t": 280632.948569791,
      "d": 325.0002437499934,
      "v": 26
    },
    {
      "midi": 69,
      "hit": false,
      "t": 280634.1390468743,
      "d": 321.4288125000312,
      "v": 33
    },
    {
      "midi": 57,
      "hit": false,
      "t": 280907.3535374993,
      "d": 212.5001593749621,
      "v": 46
    },
    {
      "midi": 71,
      "hit": false,
      "t": 281199.0204229159,
      "d": 321.4288125000312,
      "v": 71
    },
    {
      "midi": 68,
      "hit": false,
      "t": 281202.59185416595,
      "d": 328.5716750000138,
      "v": 57
    },
    {
      "midi": 65,
      "hit": false,
      "t": 281203.1870927076,
      "d": 302.3811791666667,
      "v": 59
    },
    {
      "midi": 57,
      "hit": false,
      "t": 281216.28234062425,
      "d": 619.6433218750753,
      "v": 40
    },
    {
      "midi": 59,
      "hit": false,
      "t": 281499.6158864576,
      "d": 288.09545416670153,
      "v": 57
    },
    {
      "midi": 77,
      "hit": false,
      "t": 281782.3541937493,
      "d": 431.5479427083628,
      "v": 80
    },
    {
      "midi": 68,
      "hit": false,
      "t": 281789.4970562493,
      "d": 420.2384104166995,
      "v": 67
    },
    {
      "midi": 71,
      "hit": false,
      "t": 281790.09229479096,
      "d": 439.88128229172435,
      "v": 72
    },
    {
      "midi": 62,
      "hit": false,
      "t": 281793.663726041,
      "d": 225.59540729166474,
      "v": 62
    },
    {
      "midi": 65,
      "hit": false,
      "t": 282074.61631770764,
      "d": 638.6909552083234,
      "v": 74
    },
    {
      "midi": 77,
      "hit": false,
      "t": 282369.8546343743,
      "d": 434.52413541666465,
      "v": 48
    },
    {
      "midi": 71,
      "hit": false,
      "t": 282377.59273541596,
      "d": 440.4765208333265,
      "v": 45
    },
    {
      "midi": 68,
      "hit": false,
      "t": 282377.59273541596,
      "d": 444.0479520833469,
      "v": 28
    },
    {
      "midi": 67,
      "hit": false,
      "t": 282656.164372916,
      "d": 358.33360208332306,
      "v": 80
    },
    {
      "midi": 68,
      "hit": false,
      "t": 282932.95029479096,
      "d": 399.4050614583539,
      "v": 37
    },
    {
      "midi": 77,
      "hit": false,
      "t": 282933.5455333326,
      "d": 287.50021562504116,
      "v": 46
    },
    {
      "midi": 71,
      "hit": false,
      "t": 282942.47411145765,
      "d": 450.00033750000875,
      "v": 47
    },
    {
      "midi": 65,
      "hit": false,
      "t": 282976.40270833264,
      "d": 520.2384854166885,
      "v": 48
    },
    {
      "midi": 57,
      "hit": false,
      "t": 283228.7838499993,
      "d": 161.90488333336543,
      "v": 47
    },
    {
      "midi": 73,
      "hit": false,
      "t": 283522.8316895826,
      "d": 494.0479895832832,
      "v": 46
    },
    {
      "midi": 76,
      "hit": false,
      "t": 283523.4269281243,
      "d": 521.428962499951,
      "v": 57
    },
    {
      "midi": 71,
      "hit": false,
      "t": 283525.21264374926,
      "d": 467.26225520833395,
      "v": 57
    },
    {
      "midi": 57,
      "hit": false,
      "t": 283532.9507447909,
      "d": 589.8813947917079,
      "v": 37
    },
    {
      "midi": 64,
      "hit": false,
      "t": 283818.07000624924,
      "d": 704.1671947917202,
      "v": 38
    },
    {
      "midi": 71,
      "hit": false,
      "t": 284076.4035333326,
      "d": 229.7620770833455,
      "v": 36
    },
    {
      "midi": 74,
      "hit": false,
      "t": 284091.8797354159,
      "d": 239.88113229168812,
      "v": 56
    },
    {
      "midi": 57,
      "hit": false,
      "t": 284365.09422604094,
      "d": 186.30966354167322,
      "v": 45
    },
    {
      "midi": 73,
      "hit": false,
      "t": 284628.1896614576,
      "d": 1044.0484020833392,
      "v": 36
    },
    {
      "midi": 64,
      "hit": false,
      "t": 284631.16585416597,
      "d": 814.881563541654,
      "v": 48
    },
    {
      "midi": 69,
      "hit": false,
      "t": 284645.451579166,
      "d": 888.691142708296,
      "v": 51
    },
    {
      "midi": 57,
      "hit": false,
      "t": 284659.1420656243,
      "d": 160.11916770832613,
      "v": 56
    },
    {
      "midi": 57,
      "hit": false,
      "t": 285467.47600520763,
      "d": 181.5477552083321,
      "v": 51
    },
    {
      "midi": 76,
      "hit": false,
      "t": 285997.23830729094,
      "d": 276.1906833333196,
      "v": 69
    },
    {
      "midi": 66,
      "hit": false,
      "t": 286001.4049770826,
      "d": 301.7859406249481,
      "v": 62
    },
    {
      "midi": 73,
      "hit": false,
      "t": 286002.59545416594,
      "d": 579.7623395833652,
      "v": 46
    },
    {
      "midi": 69,
      "hit": false,
      "t": 286009.7383166659,
      "d": 507.7384760417044,
      "v": 54
    },
    {
      "midi": 57,
      "hit": false,
      "t": 286015.0954635409,
      "d": 300.00022499996703,
      "v": 66
    },
    {
      "midi": 74,
      "hit": false,
      "t": 286346.64333124924,
      "d": 172.6191770833684,
      "v": 69
    },
    {
      "midi": 66,
      "hit": false,
      "t": 286349.6195239576,
      "d": 195.2382416666951,
      "v": 30
    },
    {
      "midi": 57,
      "hit": false,
      "t": 286597.238757291,
      "d": 189.28585624997504,
      "v": 48
    },
    {
      "midi": 73,
      "hit": false,
      "t": 286874.024679166,
      "d": 647.0242947916267,
      "v": 53
    },
    {
      "midi": 68,
      "hit": false,
      "t": 286877.596110416,
      "d": 664.286212499952,
      "v": 52
    },
    {
      "midi": 62,
      "hit": false,
      "t": 286887.1199270826,
      "d": 573.809954166587,
      "v": 51
    },
    {
      "midi": 65,
      "hit": false,
      "t": 286889.50088124926,
      "d": 575.0004312499659,
      "v": 52
    },
    {
      "midi": 57,
      "hit": false,
      "t": 286913.3104229159,
      "d": 227.9763614583062,
      "v": 29
    },
    {
      "midi": 57,
      "hit": false,
      "t": 287219.26303333254,
      "d": 254.1668572917115,
      "v": 73
    },
    {
      "midi": 71,
      "hit": false,
      "t": 287637.1204895826,
      "d": 126.78580937493825,
      "v": 64
    },
    {
      "midi": 65,
      "hit": false,
      "t": 287650.8109760409,
      "d": 172.02393854164984,
      "v": 58
    },
    {
      "midi": 62,
      "hit": false,
      "t": 287652.5966916659,
      "d": 126.78580937499646,
      "v": 58
    },
    {
      "midi": 57,
      "hit": false,
      "t": 287653.7871687492,
      "d": 184.52394791669212,
      "v": 65
    },
    {
      "midi": 68,
      "hit": false,
      "t": 287656.76336145756,
      "d": 141.07153437496163,
      "v": 45
    },
    {
      "midi": 64,
      "hit": false,
      "t": 288007.9541010409,
      "d": 939.286418750009,
      "v": 78
    },
    {
      "midi": 61,
      "hit": false,
      "t": 288009.1445781242,
      "d": 1032.7388697916758,
      "v": 79
    },
    {
      "midi": 69,
      "hit": false,
      "t": 288010.33505520754,
      "d": 951.7864281250513,
      "v": 73
    },
    {
      "midi": 57,
      "hit": false,
      "t": 288023.4303031242,
      "d": 101.19055208330974,
      "v": 83
    },
    {
      "midi": 57,
      "hit": false,
      "t": 288391.2877218742,
      "d": 392.2621989583713,
      "v": 95
    },
    {
      "midi": 56,
      "hit": false,
      "t": 288746.04989270755,
      "d": 107.1429375000298,
      "v": 91
    },
    {
      "midi": 55,
      "hit": false,
      "t": 288901.4071520826,
      "d": 119.0477083332953,
      "v": 61
    },
    {
      "midi": 54,
      "hit": false,
      "t": 288985.3357864576,
      "d": 125.59533229167573,
      "v": 42
    },
    {
      "midi": 53,
      "hit": false,
      "t": 289114.5025499993,
      "d": 160.11916770832613,
      "v": 42
    },
    {
      "midi": 52,
      "hit": false,
      "t": 289244.8597906243,
      "d": 88.0953041666653,
      "v": 51
    },
    {
      "midi": 61,
      "hit": false,
      "t": 289357.955113541,
      "d": 578.5718625000445,
      "v": 44
    },
    {
      "midi": 51,
      "hit": false,
      "t": 289374.026554166,
      "d": 741.6672229166725,
      "v": 51
    },
    {
      "midi": 69,
      "hit": false,
      "t": 289380.5741781243,
      "d": 481.54798020835733,
      "v": 52
    },
    {
      "midi": 65,
      "hit": false,
      "t": 289386.526563541,
      "d": 590.4766333333682,
      "v": 50
    },
    {
      "midi": 69,
      "hit": false,
      "t": 290069.2651708327,
      "d": 207.73825104167918,
      "v": 41
    },
    {
      "midi": 50,
      "hit": false,
      "t": 290280.5748531244,
      "d": 608.9290281250142,
      "v": 43
    },
    {
      "midi": 81,
      "hit": false,
      "t": 290863.9086239577,
      "d": 207.73825104167918,
      "v": 54
    },
    {
      "midi": 81,
      "hit": false,
      "t": 291231.17080416606,
      "d": 904.7625833333586,
      "v": 49
    },
    {
      "midi": 69,
      "hit": false,
      "t": 291243.0755749994,
      "d": 847.6196833333233,
      "v": 32
    },
    {
      "midi": 75,
      "hit": false,
      "t": 291243.67081354104,
      "d": 893.4530510416953,
      "v": 38
    },
    {
      "midi": 78,
      "hit": false,
      "t": 291247.8374833327,
      "d": 882.143518750032,
      "v": 35
    },
    {
      "midi": 39,
      "hit": false,
      "t": 291397.24235729105,
      "d": 122.6191395833157,
      "v": 34
    },
    {
      "midi": 54,
      "hit": false,
      "t": 291426.4090458327,
      "d": 202.97634270833805,
      "v": 25
    },
    {
      "midi": 63,
      "hit": false,
      "t": 291990.09994479106,
      "d": 79.76196458330378,
      "v": 43
    },
    {
      "midi": 54,
      "hit": false,
      "t": 291999.0285229161,
      "d": 122.6191395833157,
      "v": 37
    },
    {
      "midi": 60,
      "hit": false,
      "t": 292006.7666239577,
      "d": 89.8810197916464,
      "v": 31
    },
    {
      "midi": 81,
      "hit": false,
      "t": 292349.62402395776,
      "d": 97.61912083334755,
      "v": 58
    },
    {
      "midi": 75,
      "hit": false,
      "t": 292357.3621249994,
      "d": 174.4048927083495,
      "v": 55
    },
    {
      "midi": 69,
      "hit": false,
      "t": 292365.69546458276,
      "d": 58.92861562501639,
      "v": 36
    },
    {
      "midi": 52,
      "hit": false,
      "t": 292556.17179791606,
      "d": 52.976230208354536,
      "v": 57
    },
    {
      "midi": 80,
      "hit": false,
      "t": 292572.24323854106,
      "d": 350.5955010416801,
      "v": 54
    },
    {
      "midi": 68,
      "hit": false,
      "t": 292599.62421145773,
      "d": 289.8811697916826,
      "v": 25
    },
    {
      "midi": 76,
      "hit": false,
      "t": 292635.9337624994,
      "d": 351.1907395833405,
      "v": 20
    },
    {
      "midi": 78,
      "hit": false,
      "t": 293119.26745833276,
      "d": 139.8810572916409,
      "v": 57
    },
    {
      "midi": 50,
      "hit": false,
      "t": 293134.7436604161,
      "d": 250.00018749997253,
      "v": 52
    },
    {
      "midi": 62,
      "hit": false,
      "t": 293140.69604583277,
      "d": 224.4049302082858,
      "v": 43
    },
    {
      "midi": 76,
      "hit": false,
      "t": 293670.4583479161,
      "d": 732.7386447917088,
      "v": 60
    },
    {
      "midi": 70,
      "hit": false,
      "t": 293682.3631187494,
      "d": 781.5482052083244,
      "v": 43
    },
    {
      "midi": 64,
      "hit": false,
      "t": 293690.10121979105,
      "d": 760.1196177083766,
      "v": 44
    },
    {
      "midi": 73,
      "hit": false,
      "t": 293696.0536052077,
      "d": 707.7386260417406,
      "v": 48
    },
    {
      "midi": 49,
      "hit": false,
      "t": 293707.95837604103,
      "d": 194.04776458337437,
      "v": 37
    },
    {
      "midi": 42,
      "hit": false,
      "t": 294226.41114583274,
      "d": 97.02388229168719,
      "v": 50
    },
    {
      "midi": 67,
      "hit": false,
      "t": 294845.45922916604,
      "d": 362.5002718750038,
      "v": 68
    },
    {
      "midi": 62,
      "hit": false,
      "t": 294860.9354312494,
      "d": 393.4526760416338,
      "v": 80
    },
    {
      "midi": 60,
      "hit": false,
      "t": 294863.316385416,
      "d": 373.80980416666716,
      "v": 72
    },
    {
      "midi": 43,
      "hit": false,
      "t": 294874.6259177077,
      "d": 676.1909833332174,
      "v": 44
    },
    {
      "midi": 50,
      "hit": false,
      "t": 294878.1973489577,
      "d": 703.571956249827,
      "v": 50
    },
    {
      "midi": 66,
      "hit": false,
      "t": 295409.745366666,
      "d": 325.59548229153734,
      "v": 75
    },
    {
      "midi": 62,
      "hit": false,
      "t": 295412.12632083264,
      "d": 303.571656249871,
      "v": 83
    },
    {
      "midi": 54,
      "hit": false,
      "t": 295413.9120364576,
      "d": 166.07155312492978,
      "v": 56
    },
    {
      "midi": 60,
      "hit": false,
      "t": 295420.45966041595,
      "d": 348.21454687492223,
      "v": 66
    },
    {
      "midi": 61,
      "hit": false,
      "t": 295977.60293541587,
      "d": 428.5717499999446,
      "v": 55
    },
    {
      "midi": 64,
      "hit": false,
      "t": 295981.1743666659,
      "d": 450.00033749995055,
      "v": 74
    },
    {
      "midi": 57,
      "hit": false,
      "t": 295994.8648531242,
      "d": 294.0478395833052,
      "v": 41
    },
    {
      "midi": 45,
      "hit": false,
      "t": 295998.4362843742,
      "d": 654.7623958332697,
      "v": 60
    },
    {
      "midi": 52,
      "hit": false,
      "t": 296516.2938156242,
      "d": 140.47629583330126,
      "v": 19
    },
    {
      "midi": 62,
      "hit": false,
      "t": 296534.74621041585,
      "d": 370.23837291664677,
      "v": 69
    },
    {
      "midi": 55,
      "hit": false,
      "t": 296542.4843114575,
      "d": 250.5954260416911,
      "v": 40
    },
    {
      "midi": 57,
      "hit": false,
      "t": 296546.0557427075,
      "d": 193.4525260416558,
      "v": 50
    },
    {
      "midi": 61,
      "hit": false,
      "t": 296552.60336666583,
      "d": 351.78597812500084,
      "v": 37
    },
    {
      "midi": 61,
      "hit": false,
      "t": 297105.5799718742,
      "d": 1113.6913114583003,
      "v": 57
    },
    {
      "midi": 57,
      "hit": false,
      "t": 297116.88950416585,
      "d": 164.28583749994868,
      "v": 46
    },
    {
      "midi": 64,
      "hit": false,
      "t": 297117.4847427075,
      "d": 1018.4531447916524,
      "v": 62
    },
    {
      "midi": 47,
      "hit": false,
      "t": 297124.6276052075,
      "d": 772.0243885416421,
      "v": 34
    },
    {
      "midi": 56,
      "hit": false,
      "t": 297715.1042385408,
      "d": 305.9526104166871,
      "v": 62
    },
    {
      "midi": 49,
      "hit": false,
      "t": 298270.4617979158,
      "d": 710.1195802083239,
      "v": 37
    },
    {
      "midi": 59,
      "hit": false,
      "t": 298272.2475135408,
      "d": 720.2386354166665,
      "v": 58
    },
    {
      "midi": 63,
      "hit": false,
      "t": 298554.98582083243,
      "d": 498.21465937502217,
      "v": 18
    },
    {
      "midi": 57,
      "hit": false,
      "t": 298818.0812562491,
      "d": 176.1906083333306,
      "v": 58
    },
    {
      "midi": 71,
      "hit": false,
      "t": 299401.4150270825,
      "d": 243.4525635415921,
      "v": 48
    },
    {
      "midi": 65,
      "hit": false,
      "t": 299406.17693541583,
      "d": 215.47635208326392,
      "v": 51
    },
    {
      "midi": 60,
      "hit": false,
      "t": 299407.36741249915,
      "d": 141.07153437496163,
      "v": 30
    },
    {
      "midi": 50,
      "hit": false,
      "t": 299415.1055135408,
      "d": 573.8099541666452,
      "v": 36
    },
    {
      "midi": 57,
      "hit": false,
      "t": 299709.74859166576,
      "d": 283.92878437502077,
      "v": 40
    },
    {
      "midi": 60,
      "hit": false,
      "t": 299994.27261458244,
      "d": 50.59527604165487,
      "v": 32
    },
    {
      "midi": 62,
      "hit": false,
      "t": 300261.53471979074,
      "d": 200.00014999997802,
      "v": 51
    },
    {
      "midi": 77,
      "hit": false,
      "t": 300553.2016052074,
      "d": 580.9528166666278,
      "v": 33
    },
    {
      "midi": 65,
      "hit": false,
      "t": 300557.3682749991,
      "d": 223.80969166668365,
      "v": 36
    },
    {
      "midi": 71,
      "hit": false,
      "t": 300559.7492291657,
      "d": 520.8337239583489,
      "v": 56
    },
    {
      "midi": 59,
      "hit": false,
      "t": 300849.6303989574,
      "d": 523.8099166665925,
      "v": 34
    },
    {
      "midi": 65,
      "hit": false,
      "t": 301141.8925229157,
      "d": 221.42873749998398,
      "v": 43
    },
    {
      "midi": 62,
      "hit": false,
      "t": 301143.67823854066,
      "d": 249.40494895837037,
      "v": 38
    },
    {
      "midi": 74,
      "hit": false,
      "t": 301459.7499041657,
      "d": 141.07153437501984,
      "v": 55
    },
    {
      "midi": 76,
      "hit": false,
      "t": 301725.8215322907,
      "d": 419.04793333332054,
      "v": 62
    },
    {
      "midi": 64,
      "hit": false,
      "t": 301728.20248645736,
      "d": 391.07172187499236,
      "v": 62
    },
    {
      "midi": 49,
      "hit": false,
      "t": 301731.7739177074,
      "d": 617.857606250036,
      "v": 37
    },
    {
      "midi": 68,
      "hit": false,
      "t": 301755.58345937403,
      "d": 807.7387010416714,
      "v": 32
    },
    {
      "midi": 55,
      "hit": false,
      "t": 302010.34555520734,
      "d": 214.2858750000596,
      "v": 24
    },
    {
      "midi": 64,
      "hit": false,
      "t": 302294.2743395824,
      "d": 255.95257291663438,
      "v": 29
    },
    {
      "midi": 74,
      "hit": false,
      "t": 302591.298371874,
      "d": 142.26201145834057,
      "v": 62
    },
    {
      "midi": 42,
      "hit": false,
      "t": 302869.87000937405,
      "d": 38.69050520833116,
      "v": 35
    },
    {
      "midi": 73,
      "hit": false,
      "t": 302872.8462020824,
      "d": 756.5481864583562,
      "v": 37
    },
    {
      "midi": 64,
      "hit": false,
      "t": 302880.58430312405,
      "d": 377.9764739583479,
      "v": 30
    },
    {
      "midi": 66,
      "hit": false,
      "t": 302891.29859687405,
      "d": 336.30977604165673,
      "v": 42
    },
    {
      "midi": 66,
      "hit": false,
      "t": 303437.7275781241,
      "d": 181.5477552083321,
      "v": 44
    },
    {
      "midi": 64,
      "hit": false,
      "t": 303440.10853229073,
      "d": 102.97626770834904,
      "v": 51
    },
    {
      "midi": 66,
      "hit": false,
      "t": 304009.1565781241,
      "d": 286.9049770832644,
      "v": 71
    },
    {
      "midi": 73,
      "hit": false,
      "t": 304010.9422937491,
      "d": 432.73841979156714,
      "v": 76
    },
    {
      "midi": 64,
      "hit": false,
      "t": 304013.3232479157,
      "d": 289.8811697916244,
      "v": 66
    },
    {
      "midi": 76,
      "hit": false,
      "t": 304015.1089635407,
      "d": 498.21465937496396,
      "v": 80
    },
    {
      "midi": 69,
      "hit": false,
      "t": 304022.2518260407,
      "d": 499.4051364583429,
      "v": 80
    },
    {
      "midi": 62,
      "hit": false,
      "t": 304029.9899270823,
      "d": 279.16687604167964,
      "v": 62
    },
    {
      "midi": 74,
      "hit": false,
      "t": 304587.13320208236,
      "d": 141.07153437501984,
      "v": 67
    },
    {
      "midi": 52,
      "hit": false,
      "t": 305060.9430812491,
      "d": 843.4530135416426,
      "v": 51
    },
    {
      "midi": 61,
      "hit": false,
      "t": 305110.3478802074,
      "d": 862.5006468750071,
      "v": 44
    },
    {
      "midi": 56,
      "hit": false,
      "t": 305158.5622020824,
      "d": 734.5243604166317,
      "v": 38
    },
    {
      "midi": 66,
      "hit": false,
      "t": 305159.75267916574,
      "d": 880.953041666653,
      "v": 58
    },
    {
      "midi": 62,
      "hit": false,
      "t": 305174.63364270737,
      "d": 529.1670635417104,
      "v": 69
    },
    {
      "midi": 70,
      "hit": false,
      "t": 305181.77650520735,
      "d": 496.42894375004107,
      "v": 64
    },
    {
      "midi": 73,
      "hit": false,
      "t": 305201.4193770824,
      "d": 457.7384385417099,
      "v": 57
    },
    {
      "midi": 71,
      "hit": false,
      "t": 305715.11023854074,
      "d": 203.57158124999842,
      "v": 66
    },
    {
      "midi": 61,
      "hit": false,
      "t": 306253.8011187491,
      "d": 248.80971041671,
      "v": 63
    },
    {
      "midi": 69,
      "hit": false,
      "t": 306261.5392197907,
      "d": 204.166819791717,
      "v": 58
    },
    {
      "midi": 67,
      "hit": false,
      "t": 306266.8963666657,
      "d": 214.2858750000596,
      "v": 60
    },
    {
      "midi": 57,
      "hit": false,
      "t": 306271.0630364574,
      "d": 190.47633333335398,
      "v": 49
    },
    {
      "midi": 65,
      "hit": false,
      "t": 306832.3729812491,
      "d": 245.2382791666896,
      "v": 66
    },
    {
      "midi": 58,
      "hit": false,
      "t": 306837.7301281241,
      "d": 273.2144906250178,
      "v": 68
    },
    {
      "midi": 48,
      "hit": false,
      "t": 306841.30155937414,
      "d": 87.50006562500494,
      "v": 57
    },
    {
      "midi": 55,
      "hit": false,
      "t": 306843.6825135408,
      "d": 238.09541666670702,
      "v": 63
    },
    {
      "midi": 62,
      "hit": false,
      "t": 306847.84918333247,
      "d": 255.35733437503222,
      "v": 70
    },
    {
      "midi": 69,
      "hit": false,
      "t": 307434.15914687415,
      "d": 167.26203020830872,
      "v": 62
    },
    {
      "midi": 58,
      "hit": false,
      "t": 307435.94486249913,
      "d": 155.357259374985,
      "v": 57
    },
    {
      "midi": 64,
      "hit": false,
      "t": 307443.0877249991,
      "d": 199.40491145837586,
      "v": 60
    },
    {
      "midi": 24,
      "hit": false,
      "t": 307444.8734406241,
      "d": 84.52387291670311,
      "v": 49
    },
    {
      "midi": 62,
      "hit": false,
      "t": 307450.82582604076,
      "d": 177.38108541670954,
      "v": 60
    },
    {
      "midi": 36,
      "hit": false,
      "t": 307453.8020187491,
      "d": 104.16674479166977,
      "v": 36
    },
    {
      "midi": 58,
      "hit": false,
      "t": 308016.8976791658,
      "d": 78.57148749998305,
      "v": 64
    },
    {
      "midi": 68,
      "hit": false,
      "t": 308023.44530312414,
      "d": 370.83361145830713,
      "v": 59
    },
    {
      "midi": 64,
      "hit": false,
      "t": 308024.0405416658,
      "d": 242.85732499998994,
      "v": 65
    },
    {
      "midi": 70,
      "hit": false,
      "t": 308026.42149583244,
      "d": 402.9764927083161,
      "v": 58
    },
    {
      "midi": 57,
      "hit": false,
      "t": 308560.9457062491,
      "d": 175.00013124995166,
      "v": 39
    },
    {
      "midi": 72,
      "hit": false,
      "t": 308568.0885687491,
      "d": 158.9286906249472,
      "v": 56
    },
    {
      "midi": 64,
      "hit": false,
      "t": 308574.6361927074,
      "d": 161.90488333330723,
      "v": 58
    },
    {
      "midi": 60,
      "hit": false,
      "t": 308576.4219083324,
      "d": 87.50006562500494,
      "v": 34
    },
    {
      "midi": 72,
      "hit": false,
      "t": 308973.44601562404,
      "d": 297.024032291607,
      "v": 74
    },
    {
      "midi": 62,
      "hit": false,
      "t": 309138.92233020737,
      "d": 77.38101041660411,
      "v": 26
    },
    {
      "midi": 53,
      "hit": false,
      "t": 309150.8271010407,
      "d": 90.47625833330676,
      "v": 24
    },
    {
      "midi": 57,
      "hit": false,
      "t": 309157.9699635407,
      "d": 113.69056145829381,
      "v": 33
    },
    {
      "midi": 69,
      "hit": false,
      "t": 309307.37483749894,
      "d": 189.28585624997504,
      "v": 56
    },
    {
      "midi": 75,
      "hit": false,
      "t": 309684.75607291557,
      "d": 63.6905239582411,
      "v": 59
    },
    {
      "midi": 56,
      "hit": false,
      "t": 309720.47038541554,
      "d": 992.2626489583054,
      "v": 30
    },
    {
      "midi": 67,
      "hit": false,
      "t": 309722.8513395822,
      "d": 469.04797083331505,
      "v": 26
    },
    {
      "midi": 62,
      "hit": false,
      "t": 309735.35134895716,
      "d": 464.2860624999739,
      "v": 42
    },
    {
      "midi": 76,
      "hit": false,
      "t": 309741.3037343738,
      "d": 210.714443749981,
      "v": 65
    },
    {
      "midi": 79,
      "hit": false,
      "t": 309952.61341666547,
      "d": 311.90499583334895,
      "v": 71
    },
    {
      "midi": 79,
      "hit": false,
      "t": 310322.8517895822,
      "d": 227.9763614583644,
      "v": 75
    },
    {
      "midi": 67,
      "hit": false,
      "t": 310328.80417499883,
      "d": 211.30968229169957,
      "v": 36
    },
    {
      "midi": 62,
      "hit": false,
      "t": 310351.42323958216,
      "d": 214.88111354171997,
      "v": 38
    },
    {
      "midi": 77,
      "hit": false,
      "t": 310529.9948020822,
      "d": 104.76198333333014,
      "v": 56
    },
    {
      "midi": 79,
      "hit": false,
      "t": 310687.7330156239,
      "d": 146.42868124996312,
      "v": 85
    },
    {
      "midi": 77,
      "hit": false,
      "t": 310710.94731874886,
      "d": 34.5238354166504,
      "v": 29
    },
    {
      "midi": 55,
      "hit": false,
      "t": 310862.7331468738,
      "d": 391.6669604165945,
      "v": 43
    },
    {
      "midi": 61,
      "hit": false,
      "t": 310864.5188624988,
      "d": 499.4051364582847,
      "v": 44
    },
    {
      "midi": 66,
      "hit": false,
      "t": 310866.89981666545,
      "d": 410.714593749959,
      "v": 39
    },
    {
      "midi": 81,
      "hit": false,
      "t": 310885.94744999876,
      "d": 405.9526854166761,
      "v": 80
    },
    {
      "midi": 77,
      "hit": false,
      "t": 311239.51914374874,
      "d": 236.9049395833281,
      "v": 69
    },
    {
      "midi": 60,
      "hit": false,
      "t": 311397.2573572904,
      "d": 363.0955104166642,
      "v": 30
    },
    {
      "midi": 64,
      "hit": false,
      "t": 311408.5668895821,
      "d": 416.0717406250187,
      "v": 60
    },
    {
      "midi": 57,
      "hit": false,
      "t": 311432.37643124873,
      "d": 393.45267604169203,
      "v": 44
    },
    {
      "midi": 79,
      "hit": false,
      "t": 311438.92405520706,
      "d": 332.73834479169454,
      "v": 68
    },
    {
      "midi": 53,
      "hit": false,
      "t": 311442.4954864571,
      "d": 367.26218020834494,
      "v": 33
    },
    {
      "midi": 76,
      "hit": false,
      "t": 311787.73384062375,
      "d": 173.80965416668914,
      "v": 71
    },
    {
      "midi": 64,
      "hit": false,
      "t": 311984.16255937377,
      "d": 248.21447187499143,
      "v": 45
    },
    {
      "midi": 77,
      "hit": false,
      "t": 311988.32922916545,
      "d": 179.7620395832928,
      "v": 69
    },
    {
      "midi": 59,
      "hit": false,
      "t": 312010.3530552071,
      "d": 230.35731562500587,
      "v": 33
    },
    {
      "midi": 53,
      "hit": false,
      "t": 312010.3530552071,
      "d": 282.14306874998147,
      "v": 27
    },
    {
      "midi": 74,
      "hit": false,
      "t": 312166.9007916654,
      "d": 79.76196458336199,
      "v": 48
    },
    {
      "midi": 76,
      "hit": false,
      "t": 312534.7582104154,
      "d": 258.33352708327584,
      "v": 45
    },
    {
      "midi": 64,
      "hit": false,
      "t": 312540.7105958321,
      "d": 228.57159999996657,
      "v": 45
    },
    {
      "midi": 68,
      "hit": false,
      "t": 312547.8534583321,
      "d": 248.21447187499143,
      "v": 37
    },
    {
      "midi": 72,
      "hit": false,
      "t": 312550.82965104043,
      "d": 139.8810572916409,
      "v": 44
    },
    {
      "midi": 52,
      "hit": false,
      "t": 312574.6391927071,
      "d": 217.26206770830322,
      "v": 22
    },
    {
      "midi": 62,
      "hit": false,
      "t": 312578.80586249876,
      "d": 182.73823229165282,
      "v": 20
    },
    {
      "midi": 58,
      "hit": false,
      "t": 312581.1868166654,
      "d": 220.23826041666325,
      "v": 25
    },
    {
      "midi": 72,
      "hit": false,
      "t": 312897.8537208321,
      "d": 101.19055208330974,
      "v": 59
    },
    {
      "midi": 73,
      "hit": false,
      "t": 313094.28243958205,
      "d": 30.35716562496964,
      "v": 36
    },
    {
      "midi": 63,
      "hit": false,
      "t": 313122.2586510404,
      "d": 1864.8823510415968,
      "v": 59
    },
    {
      "midi": 57,
      "hit": false,
      "t": 313129.996752082,
      "d": 105.95246041659266,
      "v": 33
    },
    {
      "midi": 71,
      "hit": false,
      "t": 313132.37770624866,
      "d": 1752.382266666682,
      "v": 45
    },
    {
      "midi": 74,
      "hit": false,
      "t": 313133.568183332,
      "d": 1752.382266666682,
      "v": 50
    },
    {
      "midi": 67,
      "hit": false,
      "t": 313134.16342187364,
      "d": 1789.8822947916924,
      "v": 51
    },
    {
      "midi": 72,
      "hit": false,
      "t": 313168.6872572903,
      "d": 1833.3347083333647,
      "v": 27
    },
    {
      "midi": 41,
      "hit": false,
      "t": 313468.68748229026,
      "d": 162.5001218750258,
      "v": 38
    },
    {
      "midi": 48,
      "hit": false,
      "t": 313696.06860520697,
      "d": 120.23818541667424,
      "v": 24
    },
    {
      "midi": 55,
      "hit": false,
      "t": 313852.6163416653,
      "d": 142.85725000000093,
      "v": 30
    },
    {
      "midi": 57,
      "hit": false,
      "t": 314054.997445832,
      "d": 782.1434437499847,
      "v": 60
    },
    {
      "midi": 60,
      "hit": false,
      "t": 314819.87897187367,
      "d": 102.97626770834904,
      "v": 40
    },
    {
      "midi": 53,
      "hit": false,
      "t": 315204.998308332,
      "d": 164.2858375000069,
      "v": 34
    },
    {
      "midi": 65,
      "hit": false,
      "t": 315410.355605207,
      "d": 264.2859124999959,
      "v": 41
    },
    {
      "midi": 77,
      "hit": false,
      "t": 315705.59392187366,
      "d": 175.00013125000987,
      "v": 57
    },
    {
      "midi": 65,
      "hit": false,
      "t": 315711.5463072903,
      "d": 157.1429750000243,
      "v": 56
    },
    {
      "midi": 62,
      "hit": false,
      "t": 315722.2606010403,
      "d": 145.2382041667006,
      "v": 55
    },
    {
      "midi": 72,
      "hit": false,
      "t": 315722.855839582,
      "d": 163.69059895834653,
      "v": 42
    },
    {
      "midi": 60,
      "hit": false,
      "t": 315726.427270832,
      "d": 142.85725000000093,
      "v": 38
    },
    {
      "midi": 77,
      "hit": false,
      "t": 316007.3798624986,
      "d": 114.88103854167275,
      "v": 54
    },
    {
      "midi": 62,
      "hit": false,
      "t": 316011.5465322903,
      "d": 29.16668854164891,
      "v": 60
    },
    {
      "midi": 72,
      "hit": false,
      "t": 316015.1179635403,
      "d": 133.92867187497905,
      "v": 59
    },
    {
      "midi": 65,
      "hit": false,
      "t": 316020.4751104153,
      "d": 135.11914895829977,
      "v": 53
    },
    {
      "midi": 60,
      "hit": false,
      "t": 316038.3322666653,
      "d": 36.90478958329186,
      "v": 29
    },
    {
      "midi": 40,
      "hit": false,
      "t": 316291.30864687363,
      "d": 32.738119791669305,
      "v": 51
    },
    {
      "midi": 61,
      "hit": false,
      "t": 316597.856495832,
      "d": 414.2860249999212,
      "v": 52
    },
    {
      "midi": 55,
      "hit": false,
      "t": 316603.80888124864,
      "d": 154.76202083326643,
      "v": 50
    },
    {
      "midi": 65,
      "hit": false,
      "t": 316605.5945968736,
      "d": 385.71457499993267,
      "v": 60
    },
    {
      "midi": 69,
      "hit": false,
      "t": 316612.7374593736,
      "d": 777.3815354166436,
      "v": 54
    },
    {
      "midi": 57,
      "hit": false,
      "t": 317152.61881666526,
      "d": 239.28589374996955,
      "v": 37
    },
    {
      "midi": 61,
      "hit": false,
      "t": 317153.2140552069,
      "d": 233.3335083333077,
      "v": 45
    },
    {
      "midi": 65,
      "hit": false,
      "t": 317160.3569177069,
      "d": 244.04780208331067,
      "v": 51
    },
    {
      "midi": 45,
      "hit": false,
      "t": 317687.7382656236,
      "d": 41.66669791669119,
      "v": 45
    },
    {
      "midi": 69,
      "hit": false,
      "t": 317704.40494479024,
      "d": 79.76196458336199,
      "v": 42
    },
    {
      "midi": 72,
      "hit": false,
      "t": 318017.5004177069,
      "d": 91.6667354166857,
      "v": 50
    },
    {
      "midi": 72,
      "hit": false,
      "t": 318277.0244218736,
      "d": 108.33341458329232,
      "v": 57
    },
    {
      "midi": 61,
      "hit": false,
      "t": 318280.59585312364,
      "d": 409.5241166666383,
      "v": 31
    },
    {
      "midi": 65,
      "hit": false,
      "t": 318282.9768072903,
      "d": 174.4048927082913,
      "v": 36
    },
    {
      "midi": 55,
      "hit": false,
      "t": 318290.7149083319,
      "d": 214.2858750000014,
      "v": 27
    },
    {
      "midi": 69,
      "hit": false,
      "t": 318434.1673968736,
      "d": 64.88100104167825,
      "v": 35
    },
    {
      "midi": 75,
      "hit": false,
      "t": 318578.81036249857,
      "d": 83.33339583338238,
      "v": 60
    },
    {
      "midi": 76,
      "hit": false,
      "t": 318653.2151802069,
      "d": 98.80959791666828,
      "v": 58
    },
    {
      "midi": 64,
      "hit": false,
      "t": 318869.2867708319,
      "d": 416.0717406250187,
      "v": 43
    },
    {
      "midi": 54,
      "hit": false,
      "t": 318884.1677343736,
      "d": 962.5007218750543,
      "v": 35
    },
    {
      "midi": 60,
      "hit": false,
      "t": 318888.3344041653,
      "d": 401.190777083335,
      "v": 30
    },
    {
      "midi": 64,
      "hit": false,
      "t": 319427.62052291527,
      "d": 329.7621520833927,
      "v": 42
    },
    {
      "midi": 74,
      "hit": false,
      "t": 319431.78719270695,
      "d": 77.38101041666232,
      "v": 74
    },
    {
      "midi": 60,
      "hit": false,
      "t": 319434.1681468736,
      "d": 251.19066458340967,
      "v": 24
    },
    {
      "midi": 74,
      "hit": false,
      "t": 319584.16825937363,
      "d": 75.59529479168123,
      "v": 50
    },
    {
      "midi": 75,
      "hit": false,
      "t": 319734.1683718737,
      "d": 77.38101041666232,
      "v": 56
    },
    {
      "midi": 76,
      "hit": false,
      "t": 319872.26371354033,
      "d": 88.0953041666653,
      "v": 71
    },
    {
      "midi": 64,
      "hit": false,
      "t": 319995.4780916653,
      "d": 307.1430874999496,
      "v": 43
    },
    {
      "midi": 59,
      "hit": false,
      "t": 319999.04952291533,
      "d": 319.0478583332733,
      "v": 39
    },
    {
      "midi": 77,
      "hit": false,
      "t": 320000.8352385403,
      "d": 344.0478770832997,
      "v": 78
    },
    {
      "midi": 53,
      "hit": false,
      "t": 320016.9066791653,
      "d": 283.3335458333022,
      "v": 36
    },
    {
      "midi": 74,
      "hit": false,
      "t": 320281.1925916653,
      "d": 213.69063645828282,
      "v": 51
    },
    {
      "midi": 62,
      "hit": false,
      "t": 320534.1689718736,
      "d": 329.7621520832763,
      "v": 50
    },
    {
      "midi": 58,
      "hit": false,
      "t": 320536.5499260402,
      "d": 273.2144906249596,
      "v": 39
    },
    {
      "midi": 76,
      "hit": false,
      "t": 320538.3356416652,
      "d": 163.69059895834653,
      "v": 58
    },
    {
      "midi": 52,
      "hit": false,
      "t": 320552.62136666523,
      "d": 217.85730624996359,
      "v": 24
    },
    {
      "midi": 72,
      "hit": false,
      "t": 320724.0500666652,
      "d": 302.97641770832706,
      "v": 32
    },
    {
      "midi": 67,
      "hit": false,
      "t": 321126.4313208319,
      "d": 267.26210520835593,
      "v": 50
    },
    {
      "midi": 63,
      "hit": false,
      "t": 321130.59799062356,
      "d": 352.97645520832157,
      "v": 46
    },
    {
      "midi": 74,
      "hit": false,
      "t": 321131.1932291652,
      "d": 307.1430875000078,
      "v": 68
    },
    {
      "midi": 57,
      "hit": false,
      "t": 321134.76466041524,
      "d": 270.23829791665776,
      "v": 50
    },
    {
      "midi": 71,
      "hit": false,
      "t": 321423.45535312354,
      "d": 198.21443437505513,
      "v": 57
    },
    {
      "midi": 67,
      "hit": false,
      "t": 321691.3126968736,
      "d": 167.26203020836692,
      "v": 37
    },
    {
      "midi": 72,
      "hit": false,
      "t": 321701.43175208196,
      "d": 154.16678229166428,
      "v": 42
    },
    {
      "midi": 56,
      "hit": false,
      "t": 321705.003183332,
      "d": 358.33360208332306,
      "v": 29
    },
    {
      "midi": 62,
      "hit": false,
      "t": 321709.16985312366,
      "d": 200.59538854163839,
      "v": 44
    },
    {
      "midi": 69,
      "hit": false,
      "t": 321853.217580207,
      "d": 352.3812166666612,
      "v": 42
    },
    {
      "midi": 65,
      "hit": false,
      "t": 322264.52741249866,
      "d": 58.33337708323961,
      "v": 38
    },
    {
      "midi": 61,
      "hit": false,
      "t": 322266.31312812364,
      "d": 109.52389166661305,
      "v": 31
    },
    {
      "midi": 70,
      "hit": false,
      "t": 322274.0512291653,
      "d": 1086.9055770832347,
      "v": 55
    },
    {
      "midi": 61,
      "hit": false,
      "t": 322813.3373479153,
      "d": 210.7144437500392,
      "v": 45
    },
    {
      "midi": 39,
      "hit": false,
      "t": 322819.28973333194,
      "d": 216.66682916670106,
      "v": 34
    },
    {
      "midi": 27,
      "hit": false,
      "t": 322831.1945041653,
      "d": 211.90492083330173,
      "v": 35
    },
    {
      "midi": 65,
      "hit": false,
      "t": 322846.67070624867,
      "d": 165.47631458332762,
      "v": 43
    },
    {
      "midi": 61,
      "hit": false,
      "t": 323183.5757208319,
      "d": 189.8810947915772,
      "v": 35
    },
    {
      "midi": 39,
      "hit": false,
      "t": 323193.69477604027,
      "d": 186.3096635415568,
      "v": 37
    },
    {
      "midi": 65,
      "hit": false,
      "t": 323195.48049166525,
      "d": 152.38106666662497,
      "v": 50
    },
    {
      "midi": 27,
      "hit": false,
      "t": 323203.2185927069,
      "d": 152.38106666662497,
      "v": 37
    },
    {
      "midi": 65,
      "hit": false,
      "t": 323630.00462708186,
      "d": 223.80969166668365,
      "v": 50
    },
    {
      "midi": 61,
      "hit": false,
      "t": 323635.9570124985,
      "d": 202.3811041666777,
      "v": 43
    },
    {
      "midi": 60,
      "hit": false,
      "t": 323638.33796666516,
      "d": 164.88107604166726,
      "v": 40
    },
    {
      "midi": 55,
      "hit": false,
      "t": 323641.9093979152,
      "d": 181.5477552083321,
      "v": 30
    },
    {
      "midi": 39,
      "hit": false,
      "t": 323643.0998749985,
      "d": 212.5001593750203,
      "v": 42
    },
    {
      "midi": 27,
      "hit": false,
      "t": 323650.83797604014,
      "d": 191.07157187507255,
      "v": 37
    },
    {
      "midi": 39,
      "hit": false,
      "t": 323985.95727499854,
      "d": 107.1429375000298,
      "v": 46
    },
    {
      "midi": 61,
      "hit": false,
      "t": 323996.0763302069,
      "d": 295.8335552084027,
      "v": 52
    },
    {
      "midi": 65,
      "hit": false,
      "t": 324000.24299999856,
      "d": 266.66686666669557,
      "v": 49
    },
    {
      "midi": 60,
      "hit": false,
      "t": 324002.6239541652,
      "d": 237.50017812504666,
      "v": 51
    },
    {
      "midi": 55,
      "hit": false,
      "t": 324015.12396354025,
      "d": 160.11916770832613,
      "v": 40
    },
    {
      "midi": 50,
      "hit": false,
      "t": 324362.7432718736,
      "d": 229.7620770832291,
      "v": 70
    },
    {
      "midi": 38,
      "hit": false,
      "t": 324372.2670885403,
      "d": 161.90488333324902,
      "v": 60
    },
    {
      "midi": 60,
      "hit": false,
      "t": 324373.4575656236,
      "d": 301.19070208317135,
      "v": 62
    },
    {
      "midi": 65,
      "hit": false,
      "t": 324375.83851979027,
      "d": 277.38116041658213,
      "v": 69
    },
    {
      "midi": 57,
      "hit": false,
      "t": 324383.5766208319,
      "d": 175.00013124995166,
      "v": 69
    },
    {
      "midi": 62,
      "hit": false,
      "t": 324385.3623364569,
      "d": 281.5478302082629,
      "v": 66
    },
    {
      "midi": 65,
      "hit": false,
      "t": 325150.83910104015,
      "d": 283.3335458333022,
      "v": 73
    },
    {
      "midi": 69,
      "hit": false,
      "t": 325157.3867249985,
      "d": 264.88115104165627,
      "v": 71
    },
    {
      "midi": 60,
      "hit": false,
      "t": 325158.5772020818,
      "d": 235.71446250000736,
      "v": 70
    },
    {
      "midi": 59,
      "hit": false,
      "t": 325176.4343583318,
      "d": 177.9763239583699,
      "v": 54
    },
    {
      "midi": 55,
      "hit": false,
      "t": 325471.0774364568,
      "d": 44.04765208333265,
      "v": 38
    },
    {
      "midi": 67,
      "hit": false,
      "t": 325477.02982187347,
      "d": 174.4048927083495,
      "v": 66
    },
    {
      "midi": 60,
      "hit": false,
      "t": 325484.7679229151,
      "d": 77.38101041672053,
      "v": 32
    },
    {
      "midi": 65,
      "hit": false,
      "t": 325698.4585593735,
      "d": 358.92884062509984,
      "v": 61
    },
    {
      "midi": 59,
      "hit": false,
      "t": 325716.3157156235,
      "d": 145.83344270841917,
      "v": 50
    },
    {
      "midi": 43,
      "hit": false,
      "t": 325718.1014312485,
      "d": 91.6667354167439,
      "v": 38
    },
    {
      "midi": 53,
      "hit": false,
      "t": 325722.26810104016,
      "d": 144.04772708343808,
      "v": 38
    },
    {
      "midi": 62,
      "hit": false,
      "t": 325725.8395322902,
      "d": 333.9288218750735,
      "v": 55
    },
    {
      "midi": 65,
      "hit": false,
      "t": 326257.98278854025,
      "d": 167.26203020830872,
      "v": 56
    },
    {
      "midi": 69,
      "hit": false,
      "t": 326259.76850416523,
      "d": 171.42869999998948,
      "v": 54
    },
    {
      "midi": 57,
      "hit": false,
      "t": 326261.5542197902,
      "d": 91.6667354166857,
      "v": 45
    },
    {
      "midi": 62,
      "hit": false,
      "t": 326267.5066052069,
      "d": 136.3096260416787,
      "v": 64
    },
    {
      "midi": 70,
      "hit": false,
      "t": 326837.74512812356,
      "d": 1079.762714583252,
      "v": 77
    },
    {
      "midi": 72,
      "hit": false,
      "t": 326840.72132083186,
      "d": 1033.9293468749383,
      "v": 72
    },
    {
      "midi": 65,
      "hit": false,
      "t": 326841.9117979152,
      "d": 867.8577937499504,
      "v": 88
    },
    {
      "midi": 62,
      "hit": false,
      "t": 326842.50703645684,
      "d": 849.4053989583044,
      "v": 94
    },
    {
      "midi": 60,
      "hit": false,
      "t": 326860.3641927068,
      "d": 900.0006749999593,
      "v": 64
    },
    {
      "midi": 48,
      "hit": false,
      "t": 327210.95969374845,
      "d": 350.00026250001974,
      "v": 84
    },
    {
      "midi": 48,
      "hit": false,
      "t": 327654.41240729013,
      "d": 595.8337802082533,
      "v": 71
    },
    {
      "midi": 68,
      "hit": false,
      "t": 327994.88885312347,
      "d": 914.2863999999245,
      "v": 62
    },
    {
      "midi": 58,
      "hit": false,
      "t": 327995.48409166513,
      "d": 180.95251666661352,
      "v": 52
    },
    {
      "midi": 72,
      "hit": false,
      "t": 327997.2698072901,
      "d": 991.667410416645,
      "v": 57
    },
    {
      "midi": 60,
      "hit": false,
      "t": 328003.81743124843,
      "d": 839.2863437499618,
      "v": 47
    },
    {
      "midi": 64,
      "hit": false,
      "t": 328005.00790833175,
      "d": 849.4053989583044,
      "v": 54
    },
    {
      "midi": 48,
      "hit": false,
      "t": 328368.10341874836,
      "d": 251.19066458335146,
      "v": 71
    },
    {
      "midi": 48,
      "hit": false,
      "t": 328741.31798437337,
      "d": 560.7147062501172,
      "v": 72
    },
    {
      "midi": 72,
      "hit": false,
      "t": 329105.6039718734,
      "d": 232.14303125010338,
      "v": 50
    },
    {
      "midi": 67,
      "hit": false,
      "t": 329109.17540312343,
      "d": 212.5001593750785,
      "v": 57
    },
    {
      "midi": 60,
      "hit": false,
      "t": 329112.1515958318,
      "d": 433.9288968750625,
      "v": 50
    },
    {
      "midi": 57,
      "hit": false,
      "t": 329113.3420729151,
      "d": 358.33360208338127,
      "v": 60
    },
    {
      "midi": 64,
      "hit": false,
      "t": 329124.0563666651,
      "d": 147.61915833334206,
      "v": 39
    },
    {
      "midi": 69,
      "hit": false,
      "t": 329125.8420822901,
      "d": 198.8096729167737,
      "v": 47
    },
    {
      "midi": 48,
      "hit": false,
      "t": 329497.86617083184,
      "d": 1079.16747604165,
      "v": 69
    },
    {
      "midi": 74,
      "hit": false,
      "t": 329507.3899874985,
      "d": 269.047820833337,
      "v": 85
    },
    {
      "midi": 69,
      "hit": false,
      "t": 329509.77094166516,
      "d": 191.6668104166747,
      "v": 90
    },
    {
      "midi": 72,
      "hit": false,
      "t": 329853.8188187485,
      "d": 171.42869999998948,
      "v": 68
    },
    {
      "midi": 69,
      "hit": false,
      "t": 329863.3426354152,
      "d": 136.3096260416787,
      "v": 69
    },
    {
      "midi": 60,
      "hit": false,
      "t": 329865.1283510402,
      "d": 131.5477177083376,
      "v": 41
    },
    {
      "midi": 65,
      "hit": false,
      "t": 329874.0569291652,
      "d": 149.40487395832315,
      "v": 65
    },
    {
      "midi": 70,
      "hit": false,
      "t": 330245.4857791652,
      "d": 843.4530135415262,
      "v": 60
    },
    {
      "midi": 62,
      "hit": false,
      "t": 330258.5810270818,
      "d": 320.23833541665226,
      "v": 53
    },
    {
      "midi": 65,
      "hit": false,
      "t": 330259.1762656235,
      "d": 333.3335833332967,
      "v": 53
    },
    {
      "midi": 60,
      "hit": false,
      "t": 330265.12865104014,
      "d": 677.9766989582567,
      "v": 51
    },
    {
      "midi": 67,
      "hit": false,
      "t": 330290.7239083318,
      "d": 817.2625177081791,
      "v": 24
    },
    {
      "midi": 48,
      "hit": false,
      "t": 330864.5338624984,
      "d": 146.42868124996312,
      "v": 44
    },
    {
      "midi": 69,
      "hit": false,
      "t": 331196.0817302067,
      "d": 217.85730624996359,
      "v": 55
    },
    {
      "midi": 46,
      "hit": false,
      "t": 331449.05811041495,
      "d": 105.3572218749905,
      "v": 31
    },
    {
      "midi": 67,
      "hit": false,
      "t": 331455.0104958316,
      "d": 89.8810197916464,
      "v": 44
    },
    {
      "midi": 62,
      "hit": false,
      "t": 331458.5819270816,
      "d": 32.14288125000894,
      "v": 41
    },
    {
      "midi": 53,
      "hit": false,
      "t": 331509.77244166494,
      "d": 48.809560416673776,
      "v": 17
    },
    {
      "midi": 79,
      "hit": false,
      "t": 331842.51078645664,
      "d": 407.7384010417154,
      "v": 74
    },
    {
      "midi": 78,
      "hit": false,
      "t": 331844.8917406233,
      "d": 81.54768020834308,
      "v": 60
    },
    {
      "midi": 67,
      "hit": false,
      "t": 331845.48697916494,
      "d": 266.66686666669557,
      "v": 75
    },
    {
      "midi": 66,
      "hit": false,
      "t": 331852.6298416649,
      "d": 117.26199270837242,
      "v": 53
    },
    {
      "midi": 77,
      "hit": false,
      "t": 332208.58248958166,
      "d": 413.69078645837726,
      "v": 67
    },
    {
      "midi": 65,
      "hit": false,
      "t": 332209.1777281233,
      "d": 387.5002906250302,
      "v": 57
    },
    {
      "midi": 76,
      "hit": false,
      "t": 332580.60657812335,
      "d": 624.4052302083583,
      "v": 64
    },
    {
      "midi": 64,
      "hit": false,
      "t": 332581.79705520667,
      "d": 428.5717500000028,
      "v": 54
    },
    {
      "midi": 74,
      "hit": false,
      "t": 332973.4640156234,
      "d": 205.95253541663988,
      "v": 58
    },
    {
      "midi": 62,
      "hit": false,
      "t": 332991.916410415,
      "d": 111.90484583331272,
      "v": 44
    },
    {
      "midi": 46,
      "hit": false,
      "t": 333656.7978614567,
      "d": 1729.167963541695,
      "v": 70
    },
    {
      "midi": 53,
      "hit": false,
      "t": 334352.03647812334,
      "d": 1144.6437156250468,
      "v": 36
    },
    {
      "midi": 65,
      "hit": false,
      "t": 334375.84601979,
      "d": 314.881188541709,
      "v": 94
    },
    {
      "midi": 62,
      "hit": false,
      "t": 334663.9414739567,
      "d": 144.04772708332166,
      "v": 71
    },
    {
      "midi": 57,
      "hit": false,
      "t": 334999.060772915,
      "d": 554.7623208333389,
      "v": 58
    },
    {
      "midi": 69,
      "hit": false,
      "t": 335002.0369656234,
      "d": 201.78586562501732,
      "v": 84
    },
    {
      "midi": 72,
      "hit": false,
      "t": 335430.6087156234,
      "d": 189.28585624997504,
      "v": 89
    },
    {
      "midi": 72,
      "hit": false,
      "t": 335808.5851895817,
      "d": 114.28580000001239,
      "v": 74
    },
    {
      "midi": 71,
      "hit": false,
      "t": 335817.5137677067,
      "d": 33.33335833332967,
      "v": 74
    },
    {
      "midi": 77,
      "hit": false,
      "t": 336288.94269270665,
      "d": 660.1195427083876,
      "v": 82
    },
    {
      "midi": 30,
      "hit": false,
      "t": 336289.5379312483,
      "d": 119.04770833335351,
      "v": 57
    },
    {
      "midi": 72,
      "hit": false,
      "t": 336290.72840833163,
      "d": 560.1194677083986,
      "v": 89
    },
    {
      "midi": 42,
      "hit": false,
      "t": 336305.01413333166,
      "d": 151.78582812502282,
      "v": 39
    },
    {
      "midi": 70,
      "hit": false,
      "t": 336797.8716458317,
      "d": 92.85721250000643,
      "v": 55
    },
    {
      "midi": 54,
      "hit": false,
      "t": 336872.8717020817,
      "d": 2532.144756249967,
      "v": 34
    },
    {
      "midi": 89,
      "hit": false,
      "t": 337244.8957906234,
      "d": 138.69058020832017,
      "v": 55
    },
    {
      "midi": 77,
      "hit": false,
      "t": 337250.84817604005,
      "d": 76.19053333334159,
      "v": 48
    },
    {
      "midi": 58,
      "hit": false,
      "t": 337260.9672312484,
      "d": 2213.692136458296,
      "v": 43
    },
    {
      "midi": 60,
      "hit": false,
      "t": 337707.99137604004,
      "d": 1613.6916864583036,
      "v": 31
    },
    {
      "midi": 101,
      "hit": false,
      "t": 337713.9437614567,
      "d": 366.6669416666846,
      "v": 53
    },
    {
      "midi": 89,
      "hit": false,
      "t": 337739.5390187484,
      "d": 252.97638020833256,
      "v": 28
    },
    {
      "midi": 89,
      "hit": false,
      "t": 338302.634679165,
      "d": 821.4291874999763,
      "v": 32
    },
    {
      "midi": 101,
      "hit": false,
      "t": 338305.01563333167,
      "d": 655.9528729166486,
      "v": 36
    },
    {
      "midi": 65,
      "hit": false,
      "t": 338333.58708333166,
      "d": 1065.4769895833451,
      "v": 35
    },
    {
      "midi": 61,
      "hit": false,
      "t": 339824.6596302067,
      "d": 150.0001124999253,
      "v": 46
    },
    {
      "midi": 75,
      "hit": false,
      "t": 339859.778704165,
      "d": 122.02390104159713,
      "v": 60
    },
    {
      "midi": 63,
      "hit": false,
      "t": 339861.56441979,
      "d": 124.4048552082968,
      "v": 52
    },
    {
      "midi": 76,
      "hit": false,
      "t": 339924.65970520664,
      "d": 489.88131979166064,
      "v": 75
    },
    {
      "midi": 64,
      "hit": false,
      "t": 339925.85018228996,
      "d": 513.6908614583663,
      "v": 83
    },
    {
      "midi": 72,
      "hit": false,
      "t": 340371.0886114566,
      "d": 430.95270416670246,
      "v": 73
    },
    {
      "midi": 60,
      "hit": false,
      "t": 340388.9457677066,
      "d": 111.90484583337093,
      "v": 53
    },
    {
      "midi": 34,
      "hit": false,
      "t": 340997.8747958317,
      "d": 144.04772708337987,
      "v": 78
    },
    {
      "midi": 79,
      "hit": false,
      "t": 341000.85098854004,
      "d": 582.7385322917253,
      "v": 91
    },
    {
      "midi": 58,
      "hit": false,
      "t": 341574.66094270675,
      "d": 522.0242010416696,
      "v": 80
    },
    {
      "midi": 60,
      "hit": false,
      "t": 341971.08981145674,
      "d": 221.42873749998398,
      "v": 75
    },
    {
      "midi": 64,
      "hit": false,
      "t": 342209.78046666505,
      "d": 148.21439687500242,
      "v": 66
    },
    {
      "midi": 70,
      "hit": false,
      "t": 342422.8758645817,
      "d": 176.1906083333306,
      "v": 71
    },
    {
      "midi": 67,
      "hit": false,
      "t": 342624.66173020675,
      "d": 117.85723124997457,
      "v": 62
    },
    {
      "midi": 72,
      "hit": false,
      "t": 342797.8761458317,
      "d": 166.071553124988,
      "v": 62
    },
    {
      "midi": 76,
      "hit": false,
      "t": 342947.8762583317,
      "d": 89.8810197916464,
      "v": 58
    },
    {
      "midi": 82,
      "hit": false,
      "t": 343052.63824166503,
      "d": 86.3095885416842,
      "v": 52
    },
    {
      "midi": 79,
      "hit": false,
      "t": 343218.7097947901,
      "d": 75.00005625002086,
      "v": 44
    },
    {
      "midi": 84,
      "hit": false,
      "t": 343306.80509895674,
      "d": 88.0953041666653,
      "v": 60
    },
    {
      "midi": 88,
      "hit": false,
      "t": 343399.0670729151,
      "d": 50.000037499994505,
      "v": 59
    },
    {
      "midi": 94,
      "hit": false,
      "t": 343482.9957072901,
      "d": 110.71436874999199,
      "v": 60
    },
    {
      "midi": 91,
      "hit": false,
      "t": 343564.5433874984,
      "d": 1077.3817604166106,
      "v": 34
    },
    {
      "midi": 96,
      "hit": false,
      "t": 343639.5434437484,
      "d": 966.0721531249583,
      "v": 41
    },
    {
      "midi": 103,
      "hit": false,
      "t": 343744.90066562337,
      "d": 744.6434156249743,
      "v": 74
    },
    {
      "midi": 63,
      "hit": false,
      "t": 345294.9018281234,
      "d": 122.02390104165534,
      "v": 49
    },
    {
      "midi": 64,
      "hit": false,
      "t": 345317.5208927067,
      "d": 1122.0246510416619,
      "v": 80
    },
    {
      "midi": 76,
      "hit": false,
      "t": 345330.0209020817,
      "d": 1114.8817885416793,
      "v": 87
    },
    {
      "midi": 61,
      "hit": false,
      "t": 345352.639966665,
      "d": 33.928596874990035,
      "v": 23
    },
    {
      "midi": 72,
      "hit": false,
      "t": 346403.8312312484,
      "d": 483.9289343749988,
      "v": 61
    },
    {
      "midi": 60,
      "hit": false,
      "t": 346421.0931489567,
      "d": 1118.4532197916997,
      "v": 49
    },
    {
      "midi": 84,
      "hit": false,
      "t": 347652.6416916651,
      "d": 349.4050239583594,
      "v": 73
    },
    {
      "midi": 76,
      "hit": false,
      "t": 347663.95122395677,
      "d": 404.7622083333554,
      "v": 66
    },
    {
      "midi": 53,
      "hit": false,
      "t": 347666.92741666513,
      "d": 935.7149875000468,
      "v": 35
    },
    {
      "midi": 60,
      "hit": false,
      "t": 348055.0229458318,
      "d": 1191.0723218749627,
      "v": 34
    },
    {
      "midi": 81,
      "hit": false,
      "t": 348412.7613093735,
      "d": 316.0716656250297,
      "v": 67
    },
    {
      "midi": 72,
      "hit": false,
      "t": 348417.5232177068,
      "d": 387.50029062497197,
      "v": 52
    },
    {
      "midi": 65,
      "hit": false,
      "t": 348421.09464895685,
      "d": 717.8576812499668,
      "v": 45
    },
    {
      "midi": 53,
      "hit": false,
      "t": 348780.6187281235,
      "d": 233.92874687496806,
      "v": 42
    },
    {
      "midi": 80,
      "hit": false,
      "t": 349206.8095239568,
      "d": 561.9051833333215,
      "v": 60
    },
    {
      "midi": 76,
      "hit": false,
      "t": 349236.5714510401,
      "d": 452.3812916666502,
      "v": 70
    },
    {
      "midi": 71,
      "hit": false,
      "t": 349255.0238458318,
      "d": 514.8813385416288,
      "v": 66
    },
    {
      "midi": 53,
      "hit": false,
      "t": 349267.5238552068,
      "d": 2229.16833854164,
      "v": 32
    },
    {
      "midi": 59,
      "hit": false,
      "t": 349697.8813208318,
      "d": 873.2149406250101,
      "v": 32
    },
    {
      "midi": 68,
      "hit": false,
      "t": 350163.9530989568,
      "d": 757.7386635416769,
      "v": 38
    },
    {
      "midi": 71,
      "hit": false,
      "t": 350175.8578697901,
      "d": 779.1672510416829,
      "v": 36
    },
    {
      "midi": 64,
      "hit": false,
      "t": 350196.0959802068,
      "d": 1793.4537260416546,
      "v": 37
    },
    {
      "midi": 59,
      "hit": false,
      "t": 351340.7396958318,
      "d": 629.1671385416412,
      "v": 25
    },
    {
      "midi": 53,
      "hit": false,
      "t": 351944.90681562346,
      "d": 1158.9294406248373,
      "v": 36
    },
    {
      "midi": 84,
      "hit": false,
      "t": 351947.8830083318,
      "d": 252.97638020827435,
      "v": 76
    },
    {
      "midi": 77,
      "hit": false,
      "t": 351949.6687239568,
      "d": 366.0717031249078,
      "v": 77
    },
    {
      "midi": 81,
      "hit": false,
      "t": 352265.74038958177,
      "d": 233.33350833324948,
      "v": 36
    },
    {
      "midi": 60,
      "hit": false,
      "t": 352283.59754583176,
      "d": 474.40511770825833,
      "v": 33
    },
    {
      "midi": 72,
      "hit": false,
      "t": 352285.9784999984,
      "d": 139.8810572916409,
      "v": 38
    },
    {
      "midi": 65,
      "hit": false,
      "t": 352658.00258854,
      "d": 604.7623583332752,
      "v": 35
    },
    {
      "midi": 84,
      "hit": false,
      "t": 352672.8835520817,
      "d": 219.04778333328431,
      "v": 69
    },
    {
      "midi": 77,
      "hit": false,
      "t": 352674.6692677067,
      "d": 232.14303124998696,
      "v": 72
    },
    {
      "midi": 81,
      "hit": false,
      "t": 352969.9075843733,
      "d": 182.73823229165282,
      "v": 43
    },
    {
      "midi": 60,
      "hit": false,
      "t": 352971.6932999983,
      "d": 322.02405104169156,
      "v": 34
    },
    {
      "midi": 72,
      "hit": false,
      "t": 352981.81235520664,
      "d": 244.04780208331067,
      "v": 37
    },
    {
      "midi": 77,
      "hit": false,
      "t": 352992.52664895664,
      "d": 101.19055208330974,
      "v": 34
    },
    {
      "midi": 53,
      "hit": false,
      "t": 353299.074497915,
      "d": 1233.9294968749164,
      "v": 34
    },
    {
      "midi": 76,
      "hit": false,
      "t": 353299.66973645665,
      "d": 530.3575406249147,
      "v": 61
    },
    {
      "midi": 83,
      "hit": false,
      "t": 353305.02688333165,
      "d": 1432.7391697915737,
      "v": 62
    },
    {
      "midi": 59,
      "hit": false,
      "t": 353680.0271645816,
      "d": 1563.691648958309,
      "v": 33
    },
    {
      "midi": 80,
      "hit": false,
      "t": 354119.90844687325,
      "d": 976.7864468750195,
      "v": 23
    },
    {
      "midi": 71,
      "hit": false,
      "t": 354136.5751260399,
      "d": 793.4529760416481,
      "v": 35
    },
    {
      "midi": 76,
      "hit": false,
      "t": 354146.69418124825,
      "d": 739.2862687499728,
      "v": 32
    },
    {
      "midi": 64,
      "hit": false,
      "t": 354163.9560989566,
      "d": 1000.5959885416669,
      "v": 35
    },
    {
      "midi": 53,
      "hit": false,
      "t": 354683.0041072899,
      "d": 272.6192520833574,
      "v": 44
    },
    {
      "midi": 82,
      "hit": false,
      "t": 355189.5521062483,
      "d": 806.5482239582925,
      "v": 75
    },
    {
      "midi": 75,
      "hit": false,
      "t": 355209.7902166649,
      "d": 610.1195052083349,
      "v": 82
    },
    {
      "midi": 79,
      "hit": false,
      "t": 355215.74260208156,
      "d": 782.1434437499847,
      "v": 66
    },
    {
      "midi": 70,
      "hit": false,
      "t": 355217.52831770654,
      "d": 648.2147718750057,
      "v": 79
    },
    {
      "midi": 53,
      "hit": false,
      "t": 355224.07594166487,
      "d": 941.6673729166505,
      "v": 54
    },
    {
      "midi": 58,
      "hit": false,
      "t": 355627.05243437324,
      "d": 1100.5960635415977,
      "v": 62
    },
    {
      "midi": 75,
      "hit": false,
      "t": 356014.5527249982,
      "d": 331.5478677082574,
      "v": 67
    },
    {
      "midi": 70,
      "hit": false,
      "t": 356021.10034895653,
      "d": 217.85730624996359,
      "v": 64
    },
    {
      "midi": 63,
      "hit": false,
      "t": 356027.64797291486,
      "d": 683.3338458333164,
      "v": 46
    },
    {
      "midi": 82,
      "hit": false,
      "t": 356383.6006208315,
      "d": 236.30970104166772,
      "v": 67
    },
    {
      "midi": 53,
      "hit": false,
      "t": 356388.9577677065,
      "d": 203.57158124999842,
      "v": 53
    },
    {
      "midi": 75,
      "hit": false,
      "t": 356399.0768229148,
      "d": 297.6192708333256,
      "v": 79
    },
    {
      "midi": 70,
      "hit": false,
      "t": 356400.8625385398,
      "d": 164.88107604166726,
      "v": 71
    },
    {
      "midi": 81,
      "hit": false,
      "t": 356862.7676468732,
      "d": 2472.025663541688,
      "v": 75
    },
    {
      "midi": 74,
      "hit": false,
      "t": 356866.9343166649,
      "d": 857.1435000000056,
      "v": 84
    },
    {
      "midi": 78,
      "hit": false,
      "t": 356868.72003228986,
      "d": 958.9292906250339,
      "v": 72
    },
    {
      "midi": 69,
      "hit": false,
      "t": 356871.6962249982,
      "d": 869.0482708333293,
      "v": 81
    },
    {
      "midi": 53,
      "hit": false,
      "t": 356883.0057572899,
      "d": 2054.763445833407,
      "v": 53
    },
    {
      "midi": 79,
      "hit": false,
      "t": 356905.6248218732,
      "d": 39.285743749991525,
      "v": 35
    },
    {
      "midi": 57,
      "hit": false,
      "t": 357384.79184791486,
      "d": 983.9293093750603,
      "v": 54
    },
    {
      "midi": 74,
      "hit": false,
      "t": 358014.5542249982,
      "d": 1252.977130208339,
      "v": 36
    },
    {
      "midi": 69,
      "hit": false,
      "t": 358024.0780416649,
      "d": 1203.572331250005,
      "v": 26
    },
    {
      "midi": 62,
      "hit": false,
      "t": 358028.83994999825,
      "d": 1467.2630052083405,
      "v": 31
    },
    {
      "midi": 78,
      "hit": false,
      "t": 358033.0066197899,
      "d": 1364.8819760416518,
      "v": 18
    },
    {
      "midi": 53,
      "hit": false,
      "t": 359087.76931562327,
      "d": 267.8573437499581,
      "v": 35
    },
    {
      "midi": 53,
      "hit": false,
      "t": 359902.05564062326,
      "d": 1685.7155500000226,
      "v": 22
    },
    {
      "midi": 58,
      "hit": false,
      "t": 359916.93660416495,
      "d": 2963.0974604166113,
      "v": 43
    },
    {
      "midi": 70,
      "hit": false,
      "t": 359933.00804478995,
      "d": 1094.0484395833337,
      "v": 37
    },
    {
      "midi": 75,
      "hit": false,
      "t": 359962.76997187326,
      "d": 1110.1198802083381,
      "v": 59
    },
    {
      "midi": 63,
      "hit": false,
      "t": 359999.07952291495,
      "d": 577.976623958326,
      "v": 34
    },
    {
      "midi": 82,
      "hit": false,
      "t": 360034.793835415,
      "d": 526.1908708332921,
      "v": 62
    },
    {
      "midi": 82,
      "hit": false,
      "t": 360685.9847999983,
      "d": 388.09552916663233,
      "v": 62
    },
    {
      "midi": 63,
      "hit": false,
      "t": 360702.65147916495,
      "d": 380.3574281249894,
      "v": 32
    },
    {
      "midi": 63,
      "hit": false,
      "t": 361427.65202291496,
      "d": 998.2150343749672,
      "v": 33
    },
    {
      "midi": 82,
      "hit": false,
      "t": 361430.6282156233,
      "d": 696.4290937499609,
      "v": 45
    },
    {
      "midi": 75,
      "hit": false,
      "t": 361449.08061041497,
      "d": 1584.5249979165965,
      "v": 44
    },
    {
      "midi": 70,
      "hit": false,
      "t": 361458.60442708165,
      "d": 1265.477139583265,
      "v": 25
    },
    {
      "midi": 82,
      "hit": false,
      "t": 362309.79554166493,
      "d": 569.0480458333041,
      "v": 46
    },
    {
      "midi": 53,
      "hit": false,
      "t": 362335.9860374983,
      "d": 273.80972916661995,
      "v": 24
    },
    {
      "midi": 53,
      "hit": false,
      "t": 363675.8679947899,
      "d": 5650.004237499961,
      "v": 38
    },
    {
      "midi": 69,
      "hit": false,
      "t": 363683.0108572899,
      "d": 1092.857962500013,
      "v": 46
    },
    {
      "midi": 74,
      "hit": false,
      "t": 363683.60609583155,
      "d": 1076.191283333348,
      "v": 52
    },
    {
      "midi": 81,
      "hit": false,
      "t": 363685.9870499982,
      "d": 1086.905577083351,
      "v": 48
    },
    {
      "midi": 78,
      "hit": false,
      "t": 363694.9156281232,
      "d": 1104.1674947916763,
      "v": 38
    },
    {
      "midi": 57,
      "hit": false,
      "t": 364699.0830479149,
      "d": 4568.455807291612,
      "v": 37
    },
    {
      "midi": 62,
      "hit": false,
      "t": 365077.6547604149,
      "d": 4199.4079114582855,
      "v": 33
    },
    {
      "midi": 66,
      "hit": false,
      "t": 365518.7265197899,
      "d": 419.04793333332054,
      "v": 21
    },
    {
      "midi": 65,
      "hit": false,
      "t": 365983.01258228987,
      "d": 244.64304062497104,
      "v": 28
    },
    {
      "midi": 69,
      "hit": false,
      "t": 366309.79854166484,
      "d": 202.97634270833805,
      "v": 27
    },
    {
      "midi": 74,
      "hit": false,
      "t": 366556.8225364565,
      "d": 129.16676354163792,
      "v": 34
    },
    {
      "midi": 78,
      "hit": false,
      "t": 366805.0370083315,
      "d": 227.9763614583062,
      "v": 46
    },
    {
      "midi": 77,
      "hit": false,
      "t": 367041.94194791483,
      "d": 1207.7390010416275,
      "v": 45
    },
    {
      "midi": 86,
      "hit": false,
      "t": 367416.9422291648,
      "d": 850.000637500023,
      "v": 46
    },
    {
      "midi": 81,
      "hit": false,
      "t": 368258.0142885398,
      "d": 86.90482708334457,
      "v": 22
    },
    {
      "midi": 101,
      "hit": false,
      "t": 368824.0861416648,
      "d": 493.45275104168104,
      "v": 36
    }
  ]
}