{
  "jsonPath": "Electronic/Italian Disco/Desireless/voyage-voyage-maxi-version.json",
  "path": "Electronic\\Italian Disco\\Desireless\\Voyage_ voyage (Maxi version).mid",
  "name": "Voyage_ voyage (Maxi version)",
  "difficulty": "Advanced",
  "bpm": 120,
  "notes": [
    {
      "midi": 75,
      "hit": false,
      "t": 6252.604166666666,
      "d": 125.00000000000091,
      "v": 87
    },
    {
      "midi": 80,
      "hit": false,
      "t": 6255.208333333333,
      "d": 125.00000000000091,
      "v": 87
    },
    {
      "midi": 83,
      "hit": false,
      "t": 6257.8125,
      "d": 122.39583333333394,
      "v": 87
    },
    {
      "midi": 75,
      "hit": false,
      "t": 6752.604166666667,
      "d": 125.00000000000091,
      "v": 87
    },
    {
      "midi": 80,
      "hit": false,
      "t": 6755.208333333334,
      "d": 125.00000000000091,
      "v": 87
    },
    {
      "midi": 83,
      "hit": false,
      "t": 6757.812500000001,
      "d": 122.39583333333394,
      "v": 87
    },
    {
      "midi": 75,
      "hit": false,
      "t": 7252.604166666668,
      "d": 125.00000000000091,
      "v": 87
    },
    {
      "midi": 80,
      "hit": false,
      "t": 7255.208333333335,
      "d": 125.00000000000091,
      "v": 87
    },
    {
      "midi": 82,
      "hit": false,
      "t": 7257.812500000002,
      "d": 122.39583333333394,
      "v": 87
    },
    {
      "midi": 71,
      "hit": false,
      "t": 7505.208333333336,
      "d": 59.89583333333303,
      "v": 93
    },
    {
      "midi": 75,
      "hit": false,
      "t": 7752.604166666669,
      "d": 125,
      "v": 87
    },
    {
      "midi": 80,
      "hit": false,
      "t": 7755.208333333336,
      "d": 125,
      "v": 87
    },
    {
      "midi": 82,
      "hit": false,
      "t": 7755.208333333336,
      "d": 125,
      "v": 87
    },
    {
      "midi": 75,
      "hit": false,
      "t": 8252.60416666667,
      "d": 124.99999999999818,
      "v": 87
    },
    {
      "midi": 80,
      "hit": false,
      "t": 8255.208333333336,
      "d": 124.99999999999818,
      "v": 87
    },
    {
      "midi": 83,
      "hit": false,
      "t": 8257.812500000002,
      "d": 122.39583333333212,
      "v": 87
    },
    {
      "midi": 75,
      "hit": false,
      "t": 8752.604166666668,
      "d": 124.99999999999818,
      "v": 87
    },
    {
      "midi": 80,
      "hit": false,
      "t": 8755.208333333334,
      "d": 124.99999999999818,
      "v": 87
    },
    {
      "midi": 83,
      "hit": false,
      "t": 8757.8125,
      "d": 122.39583333333212,
      "v": 87
    },
    {
      "midi": 75,
      "hit": false,
      "t": 9252.604166666666,
      "d": 124.99999999999818,
      "v": 87
    },
    {
      "midi": 80,
      "hit": false,
      "t": 9255.208333333332,
      "d": 122.39583333333212,
      "v": 87
    },
    {
      "midi": 82,
      "hit": false,
      "t": 9257.812499999998,
      "d": 122.39583333333212,
      "v": 87
    },
    {
      "midi": 71,
      "hit": false,
      "t": 9505.20833333333,
      "d": 59.89583333333394,
      "v": 93
    },
    {
      "midi": 75,
      "hit": false,
      "t": 9752.604166666664,
      "d": 124.99999999999818,
      "v": 87
    },
    {
      "midi": 80,
      "hit": false,
      "t": 9755.20833333333,
      "d": 124.99999999999818,
      "v": 87
    },
    {
      "midi": 82,
      "hit": false,
      "t": 9757.812499999996,
      "d": 122.39583333333212,
      "v": 87
    },
    {
      "midi": 75,
      "hit": false,
      "t": 10252.604166666662,
      "d": 124.99999999999818,
      "v": 87
    },
    {
      "midi": 80,
      "hit": false,
      "t": 10255.208333333328,
      "d": 124.99999999999818,
      "v": 87
    },
    {
      "midi": 83,
      "hit": false,
      "t": 10257.812499999995,
      "d": 122.39583333333212,
      "v": 87
    },
    {
      "midi": 75,
      "hit": false,
      "t": 10752.60416666666,
      "d": 124.99999999999818,
      "v": 87
    },
    {
      "midi": 80,
      "hit": false,
      "t": 10755.208333333327,
      "d": 124.99999999999818,
      "v": 87
    },
    {
      "midi": 83,
      "hit": false,
      "t": 10757.812499999993,
      "d": 122.39583333333212,
      "v": 87
    },
    {
      "midi": 75,
      "hit": false,
      "t": 11252.604166666659,
      "d": 124.99999999999818,
      "v": 87
    },
    {
      "midi": 80,
      "hit": false,
      "t": 11255.208333333325,
      "d": 122.39583333333212,
      "v": 87
    },
    {
      "midi": 82,
      "hit": false,
      "t": 11257.81249999999,
      "d": 122.39583333333212,
      "v": 87
    },
    {
      "midi": 71,
      "hit": false,
      "t": 11505.208333333323,
      "d": 59.89583333333394,
      "v": 93
    },
    {
      "midi": 75,
      "hit": false,
      "t": 11752.604166666657,
      "d": 124.99999999999818,
      "v": 87
    },
    {
      "midi": 80,
      "hit": false,
      "t": 11755.208333333323,
      "d": 124.99999999999818,
      "v": 87
    },
    {
      "midi": 82,
      "hit": false,
      "t": 11757.812499999989,
      "d": 122.39583333333212,
      "v": 87
    },
    {
      "midi": 75,
      "hit": false,
      "t": 12252.604166666655,
      "d": 124.99999999999818,
      "v": 87
    },
    {
      "midi": 80,
      "hit": false,
      "t": 12255.208333333321,
      "d": 124.99999999999818,
      "v": 87
    },
    {
      "midi": 83,
      "hit": false,
      "t": 12257.812499999987,
      "d": 122.39583333333212,
      "v": 87
    },
    {
      "midi": 75,
      "hit": false,
      "t": 12752.604166666653,
      "d": 124.99999999999818,
      "v": 87
    },
    {
      "midi": 80,
      "hit": false,
      "t": 12755.20833333332,
      "d": 124.99999999999818,
      "v": 87
    },
    {
      "midi": 83,
      "hit": false,
      "t": 12757.812499999985,
      "d": 122.39583333333212,
      "v": 87
    },
    {
      "midi": 75,
      "hit": false,
      "t": 13252.604166666652,
      "d": 124.99999999999818,
      "v": 87
    },
    {
      "midi": 80,
      "hit": false,
      "t": 13255.208333333318,
      "d": 124.99999999999818,
      "v": 87
    },
    {
      "midi": 82,
      "hit": false,
      "t": 13257.812499999984,
      "d": 122.39583333333212,
      "v": 87
    },
    {
      "midi": 71,
      "hit": false,
      "t": 13505.208333333316,
      "d": 59.89583333333394,
      "v": 93
    },
    {
      "midi": 75,
      "hit": false,
      "t": 13752.60416666665,
      "d": 124.99999999999818,
      "v": 87
    },
    {
      "midi": 80,
      "hit": false,
      "t": 13755.208333333316,
      "d": 124.99999999999818,
      "v": 87
    },
    {
      "midi": 82,
      "hit": false,
      "t": 13757.812499999982,
      "d": 122.39583333333212,
      "v": 87
    },
    {
      "midi": 73,
      "hit": false,
      "t": 14252.604166666648,
      "d": 124.99999999999818,
      "v": 87
    },
    {
      "midi": 78,
      "hit": false,
      "t": 14255.208333333314,
      "d": 124.99999999999818,
      "v": 87
    },
    {
      "midi": 82,
      "hit": false,
      "t": 14257.81249999998,
      "d": 122.39583333333212,
      "v": 87
    },
    {
      "midi": 73,
      "hit": false,
      "t": 14752.604166666646,
      "d": 124.99999999999818,
      "v": 87
    },
    {
      "midi": 78,
      "hit": false,
      "t": 14755.208333333312,
      "d": 122.39583333333212,
      "v": 87
    },
    {
      "midi": 82,
      "hit": false,
      "t": 14757.812499999978,
      "d": 122.39583333333212,
      "v": 87
    },
    {
      "midi": 73,
      "hit": false,
      "t": 15252.604166666644,
      "d": 124.99999999999818,
      "v": 87
    },
    {
      "midi": 78,
      "hit": false,
      "t": 15255.20833333331,
      "d": 124.99999999999818,
      "v": 87
    },
    {
      "midi": 80,
      "hit": false,
      "t": 15257.812499999976,
      "d": 122.39583333333212,
      "v": 87
    },
    {
      "midi": 70,
      "hit": false,
      "t": 15505.208333333308,
      "d": 59.89583333333394,
      "v": 93
    },
    {
      "midi": 73,
      "hit": false,
      "t": 15752.604166666642,
      "d": 124.99999999999818,
      "v": 87
    },
    {
      "midi": 78,
      "hit": false,
      "t": 15755.208333333308,
      "d": 124.99999999999818,
      "v": 87
    },
    {
      "midi": 80,
      "hit": false,
      "t": 15757.812499999975,
      "d": 122.39583333333212,
      "v": 87
    },
    {
      "midi": 73,
      "hit": false,
      "t": 16252.60416666664,
      "d": 124.99999999999818,
      "v": 87
    },
    {
      "midi": 78,
      "hit": false,
      "t": 16255.208333333307,
      "d": 124.99999999999818,
      "v": 87
    },
    {
      "midi": 82,
      "hit": false,
      "t": 16257.812499999973,
      "d": 122.39583333333212,
      "v": 87
    },
    {
      "midi": 73,
      "hit": false,
      "t": 16752.60416666664,
      "d": 125,
      "v": 87
    },
    {
      "midi": 78,
      "hit": false,
      "t": 16755.208333333307,
      "d": 125,
      "v": 87
    },
    {
      "midi": 82,
      "hit": false,
      "t": 16755.208333333307,
      "d": 125,
      "v": 87
    },
    {
      "midi": 73,
      "hit": false,
      "t": 17252.60416666664,
      "d": 125.00000000000364,
      "v": 87
    },
    {
      "midi": 78,
      "hit": false,
      "t": 17255.208333333307,
      "d": 125.00000000000364,
      "v": 87
    },
    {
      "midi": 80,
      "hit": false,
      "t": 17257.812499999975,
      "d": 122.39583333333576,
      "v": 87
    },
    {
      "midi": 70,
      "hit": false,
      "t": 17505.20833333331,
      "d": 59.89583333333212,
      "v": 93
    },
    {
      "midi": 73,
      "hit": false,
      "t": 17752.604166666642,
      "d": 125.00000000000364,
      "v": 87
    },
    {
      "midi": 78,
      "hit": false,
      "t": 17755.20833333331,
      "d": 125.00000000000364,
      "v": 87
    },
    {
      "midi": 80,
      "hit": false,
      "t": 17757.812499999978,
      "d": 122.39583333333576,
      "v": 87
    },
    {
      "midi": 75,
      "hit": false,
      "t": 18252.604166666646,
      "d": 125.00000000000364,
      "v": 87
    },
    {
      "midi": 80,
      "hit": false,
      "t": 18255.208333333314,
      "d": 125.00000000000364,
      "v": 87
    },
    {
      "midi": 83,
      "hit": false,
      "t": 18257.81249999998,
      "d": 122.39583333333576,
      "v": 87
    },
    {
      "midi": 75,
      "hit": false,
      "t": 18752.60416666665,
      "d": 125,
      "v": 87
    },
    {
      "midi": 80,
      "hit": false,
      "t": 18755.208333333318,
      "d": 122.39583333333212,
      "v": 87
    },
    {
      "midi": 83,
      "hit": false,
      "t": 18755.208333333318,
      "d": 125,
      "v": 87
    },
    {
      "midi": 75,
      "hit": false,
      "t": 19252.60416666665,
      "d": 125.00000000000364,
      "v": 87
    },
    {
      "midi": 80,
      "hit": false,
      "t": 19255.208333333318,
      "d": 125.00000000000364,
      "v": 87
    },
    {
      "midi": 82,
      "hit": false,
      "t": 19257.812499999985,
      "d": 122.39583333333576,
      "v": 87
    },
    {
      "midi": 71,
      "hit": false,
      "t": 19505.20833333332,
      "d": 62.5,
      "v": 93
    },
    {
      "midi": 75,
      "hit": false,
      "t": 19752.604166666653,
      "d": 125.00000000000364,
      "v": 87
    },
    {
      "midi": 80,
      "hit": false,
      "t": 19755.20833333332,
      "d": 125.00000000000364,
      "v": 87
    },
    {
      "midi": 82,
      "hit": false,
      "t": 19757.81249999999,
      "d": 122.39583333333576,
      "v": 87
    },
    {
      "midi": 75,
      "hit": false,
      "t": 20255.208333333325,
      "d": 125,
      "v": 87
    },
    {
      "midi": 80,
      "hit": false,
      "t": 20255.208333333325,
      "d": 125,
      "v": 87
    },
    {
      "midi": 83,
      "hit": false,
      "t": 20257.812499999993,
      "d": 122.39583333333212,
      "v": 87
    },
    {
      "midi": 75,
      "hit": false,
      "t": 20755.208333333325,
      "d": 122.39583333333576,
      "v": 87
    },
    {
      "midi": 80,
      "hit": false,
      "t": 20755.208333333325,
      "d": 125.00000000000364,
      "v": 87
    },
    {
      "midi": 83,
      "hit": false,
      "t": 20757.812499999993,
      "d": 122.39583333333576,
      "v": 87
    },
    {
      "midi": 75,
      "hit": false,
      "t": 21252.60416666666,
      "d": 125.00000000000364,
      "v": 87
    },
    {
      "midi": 80,
      "hit": false,
      "t": 21255.20833333333,
      "d": 125.00000000000364,
      "v": 87
    },
    {
      "midi": 82,
      "hit": false,
      "t": 21257.812499999996,
      "d": 122.39583333333576,
      "v": 87
    },
    {
      "midi": 71,
      "hit": false,
      "t": 21505.208333333332,
      "d": 62.5,
      "v": 93
    },
    {
      "midi": 75,
      "hit": false,
      "t": 21752.604166666664,
      "d": 125.00000000000364,
      "v": 87
    },
    {
      "midi": 80,
      "hit": false,
      "t": 21755.208333333332,
      "d": 125.00000000000364,
      "v": 87
    },
    {
      "midi": 82,
      "hit": false,
      "t": 21757.8125,
      "d": 122.39583333333576,
      "v": 87
    },
    {
      "midi": 75,
      "hit": false,
      "t": 22010.416666666668,
      "d": 117.1875,
      "v": 87
    },
    {
      "midi": 80,
      "hit": false,
      "t": 22010.416666666668,
      "d": 119.79166666666788,
      "v": 87
    },
    {
      "midi": 83,
      "hit": false,
      "t": 22015.625,
      "d": 114.58333333333576,
      "v": 87
    },
    {
      "midi": 75,
      "hit": false,
      "t": 22252.604166666668,
      "d": 125.00000000000364,
      "v": 87
    },
    {
      "midi": 80,
      "hit": false,
      "t": 22255.208333333336,
      "d": 125.00000000000364,
      "v": 87
    },
    {
      "midi": 83,
      "hit": false,
      "t": 22257.812500000004,
      "d": 122.39583333333576,
      "v": 87
    },
    {
      "midi": 75,
      "hit": false,
      "t": 22752.60416666667,
      "d": 125.00000000000364,
      "v": 87
    },
    {
      "midi": 80,
      "hit": false,
      "t": 22755.20833333334,
      "d": 125.00000000000364,
      "v": 87
    },
    {
      "midi": 83,
      "hit": false,
      "t": 22757.812500000007,
      "d": 122.39583333333576,
      "v": 87
    },
    {
      "midi": 75,
      "hit": false,
      "t": 23252.604166666675,
      "d": 125.00000000000364,
      "v": 87
    },
    {
      "midi": 80,
      "hit": false,
      "t": 23255.208333333343,
      "d": 125.00000000000364,
      "v": 87
    },
    {
      "midi": 82,
      "hit": false,
      "t": 23257.81250000001,
      "d": 122.39583333333576,
      "v": 87
    },
    {
      "midi": 71,
      "hit": false,
      "t": 23505.208333333347,
      "d": 59.89583333333212,
      "v": 93
    },
    {
      "midi": 75,
      "hit": false,
      "t": 23752.60416666668,
      "d": 125.00000000000364,
      "v": 87
    },
    {
      "midi": 80,
      "hit": false,
      "t": 23755.208333333347,
      "d": 125.00000000000364,
      "v": 87
    },
    {
      "midi": 82,
      "hit": false,
      "t": 23757.812500000015,
      "d": 122.39583333333576,
      "v": 87
    },
    {
      "midi": 75,
      "hit": false,
      "t": 24252.604166666682,
      "d": 125,
      "v": 87
    },
    {
      "midi": 80,
      "hit": false,
      "t": 24255.20833333335,
      "d": 125,
      "v": 87
    },
    {
      "midi": 83,
      "hit": false,
      "t": 24255.20833333335,
      "d": 125,
      "v": 87
    },
    {
      "midi": 75,
      "hit": false,
      "t": 24752.604166666682,
      "d": 125.00000000000364,
      "v": 87
    },
    {
      "midi": 80,
      "hit": false,
      "t": 24755.20833333335,
      "d": 125.00000000000364,
      "v": 87
    },
    {
      "midi": 83,
      "hit": false,
      "t": 24757.81250000002,
      "d": 122.39583333333576,
      "v": 87
    },
    {
      "midi": 75,
      "hit": false,
      "t": 25252.604166666686,
      "d": 125.00000000000364,
      "v": 87
    },
    {
      "midi": 80,
      "hit": false,
      "t": 25255.208333333354,
      "d": 125.00000000000364,
      "v": 87
    },
    {
      "midi": 82,
      "hit": false,
      "t": 25257.812500000022,
      "d": 122.39583333333576,
      "v": 87
    },
    {
      "midi": 71,
      "hit": false,
      "t": 25505.208333333358,
      "d": 59.89583333333212,
      "v": 93
    },
    {
      "midi": 75,
      "hit": false,
      "t": 25752.60416666669,
      "d": 127.60416666666788,
      "v": 87
    },
    {
      "midi": 80,
      "hit": false,
      "t": 25755.208333333358,
      "d": 125,
      "v": 87
    },
    {
      "midi": 82,
      "hit": false,
      "t": 25757.812500000025,
      "d": 122.39583333333212,
      "v": 87
    },
    {
      "midi": 75,
      "hit": false,
      "t": 26252.60416666669,
      "d": 125.00000000000364,
      "v": 87
    },
    {
      "midi": 80,
      "hit": false,
      "t": 26255.208333333358,
      "d": 125.00000000000364,
      "v": 87
    },
    {
      "midi": 83,
      "hit": false,
      "t": 26257.812500000025,
      "d": 122.39583333333576,
      "v": 87
    },
    {
      "midi": 75,
      "hit": false,
      "t": 26752.604166666693,
      "d": 125.00000000000364,
      "v": 87
    },
    {
      "midi": 80,
      "hit": false,
      "t": 26755.20833333336,
      "d": 125.00000000000364,
      "v": 87
    },
    {
      "midi": 83,
      "hit": false,
      "t": 26757.81250000003,
      "d": 122.39583333333576,
      "v": 87
    },
    {
      "midi": 75,
      "hit": false,
      "t": 27252.604166666697,
      "d": 125.00000000000364,
      "v": 87
    },
    {
      "midi": 80,
      "hit": false,
      "t": 27255.208333333365,
      "d": 125.00000000000364,
      "v": 87
    },
    {
      "midi": 82,
      "hit": false,
      "t": 27257.812500000033,
      "d": 122.39583333333576,
      "v": 87
    },
    {
      "midi": 71,
      "hit": false,
      "t": 27505.20833333337,
      "d": 59.89583333333212,
      "v": 93
    },
    {
      "midi": 75,
      "hit": false,
      "t": 27752.6041666667,
      "d": 125.00000000000364,
      "v": 87
    },
    {
      "midi": 80,
      "hit": false,
      "t": 27755.20833333337,
      "d": 125.00000000000364,
      "v": 87
    },
    {
      "midi": 82,
      "hit": false,
      "t": 27757.812500000036,
      "d": 122.39583333333576,
      "v": 87
    },
    {
      "midi": 75,
      "hit": false,
      "t": 28255.208333333372,
      "d": 122.39583333333576,
      "v": 87
    },
    {
      "midi": 80,
      "hit": false,
      "t": 28255.208333333372,
      "d": 125.00000000000364,
      "v": 87
    },
    {
      "midi": 83,
      "hit": false,
      "t": 28257.81250000004,
      "d": 122.39583333333576,
      "v": 87
    },
    {
      "midi": 75,
      "hit": false,
      "t": 28752.604166666708,
      "d": 125.00000000000364,
      "v": 87
    },
    {
      "midi": 80,
      "hit": false,
      "t": 28755.208333333376,
      "d": 125.00000000000364,
      "v": 87
    },
    {
      "midi": 83,
      "hit": false,
      "t": 28757.812500000044,
      "d": 122.39583333333576,
      "v": 87
    },
    {
      "midi": 75,
      "hit": false,
      "t": 29252.60416666671,
      "d": 125.00000000000364,
      "v": 87
    },
    {
      "midi": 80,
      "hit": false,
      "t": 29255.20833333338,
      "d": 125.00000000000364,
      "v": 87
    },
    {
      "midi": 82,
      "hit": false,
      "t": 29257.812500000047,
      "d": 122.39583333333576,
      "v": 87
    },
    {
      "midi": 71,
      "hit": false,
      "t": 29505.208333333383,
      "d": 59.89583333333212,
      "v": 93
    },
    {
      "midi": 75,
      "hit": false,
      "t": 29752.604166666715,
      "d": 125,
      "v": 87
    },
    {
      "midi": 80,
      "hit": false,
      "t": 29755.208333333383,
      "d": 125,
      "v": 87
    },
    {
      "midi": 82,
      "hit": false,
      "t": 29755.208333333383,
      "d": 125,
      "v": 87
    },
    {
      "midi": 73,
      "hit": false,
      "t": 30252.604166666715,
      "d": 125.00000000000364,
      "v": 87
    },
    {
      "midi": 78,
      "hit": false,
      "t": 30255.208333333383,
      "d": 125.00000000000364,
      "v": 87
    },
    {
      "midi": 82,
      "hit": false,
      "t": 30257.81250000005,
      "d": 122.39583333333576,
      "v": 87
    },
    {
      "midi": 73,
      "hit": false,
      "t": 30752.60416666672,
      "d": 125.00000000000364,
      "v": 87
    },
    {
      "midi": 78,
      "hit": false,
      "t": 30755.208333333387,
      "d": 125.00000000000364,
      "v": 87
    },
    {
      "midi": 82,
      "hit": false,
      "t": 30757.812500000055,
      "d": 122.39583333333576,
      "v": 87
    },
    {
      "midi": 73,
      "hit": false,
      "t": 31252.604166666722,
      "d": 125.00000000000364,
      "v": 87
    },
    {
      "midi": 78,
      "hit": false,
      "t": 31255.20833333339,
      "d": 125.00000000000364,
      "v": 87
    },
    {
      "midi": 80,
      "hit": false,
      "t": 31257.81250000006,
      "d": 122.39583333333576,
      "v": 87
    },
    {
      "midi": 70,
      "hit": false,
      "t": 31505.208333333394,
      "d": 59.89583333333212,
      "v": 93
    },
    {
      "midi": 73,
      "hit": false,
      "t": 31752.604166666726,
      "d": 125,
      "v": 87
    },
    {
      "midi": 78,
      "hit": false,
      "t": 31755.208333333394,
      "d": 125,
      "v": 87
    },
    {
      "midi": 80,
      "hit": false,
      "t": 31755.208333333394,
      "d": 125,
      "v": 87
    },
    {
      "midi": 73,
      "hit": false,
      "t": 32252.604166666726,
      "d": 125.00000000000364,
      "v": 87
    },
    {
      "midi": 78,
      "hit": false,
      "t": 32255.208333333394,
      "d": 125.00000000000364,
      "v": 87
    },
    {
      "midi": 82,
      "hit": false,
      "t": 32257.812500000062,
      "d": 122.39583333333576,
      "v": 87
    },
    {
      "midi": 73,
      "hit": false,
      "t": 32752.60416666673,
      "d": 125,
      "v": 87
    },
    {
      "midi": 78,
      "hit": false,
      "t": 32755.208333333398,
      "d": 124.99999999999636,
      "v": 87
    },
    {
      "midi": 82,
      "hit": false,
      "t": 32757.812500000065,
      "d": 122.39583333332848,
      "v": 87
    },
    {
      "midi": 73,
      "hit": false,
      "t": 33252.60416666673,
      "d": 124.99999999999272,
      "v": 87
    },
    {
      "midi": 78,
      "hit": false,
      "t": 33255.208333333394,
      "d": 124.99999999999272,
      "v": 87
    },
    {
      "midi": 80,
      "hit": false,
      "t": 33257.81250000006,
      "d": 122.39583333332848,
      "v": 87
    },
    {
      "midi": 70,
      "hit": false,
      "t": 33505.20833333339,
      "d": 59.89583333333576,
      "v": 93
    },
    {
      "midi": 73,
      "hit": false,
      "t": 33755.20833333339,
      "d": 122.39583333332848,
      "v": 87
    },
    {
      "midi": 78,
      "hit": false,
      "t": 33755.20833333339,
      "d": 124.99999999999272,
      "v": 87
    },
    {
      "midi": 80,
      "hit": false,
      "t": 33757.81250000005,
      "d": 122.39583333332848,
      "v": 87
    },
    {
      "midi": 75,
      "hit": false,
      "t": 34252.604166666715,
      "d": 124.99999999999272,
      "v": 87
    },
    {
      "midi": 80,
      "hit": false,
      "t": 34255.20833333338,
      "d": 124.99999999999272,
      "v": 87
    },
    {
      "midi": 83,
      "hit": false,
      "t": 34257.812500000044,
      "d": 122.39583333332848,
      "v": 87
    },
    {
      "midi": 75,
      "hit": false,
      "t": 34752.60416666671,
      "d": 124.99999999999272,
      "v": 87
    },
    {
      "midi": 80,
      "hit": false,
      "t": 34755.20833333337,
      "d": 124.99999999999272,
      "v": 87
    },
    {
      "midi": 83,
      "hit": false,
      "t": 34757.81250000004,
      "d": 122.39583333332848,
      "v": 87
    },
    {
      "midi": 75,
      "hit": false,
      "t": 35252.6041666667,
      "d": 124.99999999999272,
      "v": 87
    },
    {
      "midi": 80,
      "hit": false,
      "t": 35255.208333333365,
      "d": 124.99999999999272,
      "v": 87
    },
    {
      "midi": 82,
      "hit": false,
      "t": 35257.81250000003,
      "d": 122.39583333332848,
      "v": 87
    },
    {
      "midi": 71,
      "hit": false,
      "t": 35505.20833333336,
      "d": 59.89583333333576,
      "v": 93
    },
    {
      "midi": 75,
      "hit": false,
      "t": 35752.60416666669,
      "d": 124.99999999999272,
      "v": 87
    },
    {
      "midi": 80,
      "hit": false,
      "t": 35755.20833333336,
      "d": 124.99999999999272,
      "v": 87
    },
    {
      "midi": 82,
      "hit": false,
      "t": 35757.81250000002,
      "d": 122.39583333332848,
      "v": 87
    },
    {
      "midi": 75,
      "hit": false,
      "t": 36252.604166666686,
      "d": 124.99999999999272,
      "v": 87
    },
    {
      "midi": 80,
      "hit": false,
      "t": 36255.20833333335,
      "d": 124.99999999999272,
      "v": 87
    },
    {
      "midi": 83,
      "hit": false,
      "t": 36257.812500000015,
      "d": 122.39583333332848,
      "v": 87
    },
    {
      "midi": 75,
      "hit": false,
      "t": 36752.60416666668,
      "d": 124.99999999999272,
      "v": 87
    },
    {
      "midi": 80,
      "hit": false,
      "t": 36755.20833333334,
      "d": 124.99999999999272,
      "v": 87
    },
    {
      "midi": 83,
      "hit": false,
      "t": 36757.81250000001,
      "d": 122.39583333332848,
      "v": 87
    },
    {
      "midi": 75,
      "hit": false,
      "t": 37252.60416666667,
      "d": 125,
      "v": 87
    },
    {
      "midi": 80,
      "hit": false,
      "t": 37255.208333333336,
      "d": 125,
      "v": 87
    },
    {
      "midi": 82,
      "hit": false,
      "t": 37255.208333333336,
      "d": 125,
      "v": 87
    },
    {
      "midi": 71,
      "hit": false,
      "t": 37505.208333333336,
      "d": 59.89583333333576,
      "v": 93
    },
    {
      "midi": 75,
      "hit": false,
      "t": 37752.60416666667,
      "d": 124.99999999999272,
      "v": 87
    },
    {
      "midi": 80,
      "hit": false,
      "t": 37755.208333333336,
      "d": 124.99999999999272,
      "v": 87
    },
    {
      "midi": 82,
      "hit": false,
      "t": 37757.8125,
      "d": 122.39583333332848,
      "v": 87
    },
    {
      "midi": 75,
      "hit": false,
      "t": 38007.81249999999,
      "d": 119.79166666666424,
      "v": 87
    },
    {
      "midi": 80,
      "hit": false,
      "t": 38007.81249999999,
      "d": 122.39583333332848,
      "v": 87
    },
    {
      "midi": 83,
      "hit": false,
      "t": 38015.62499999999,
      "d": 114.58333333332848,
      "v": 87
    },
    {
      "midi": 75,
      "hit": false,
      "t": 38252.60416666666,
      "d": 124.99999999999272,
      "v": 87
    },
    {
      "midi": 80,
      "hit": false,
      "t": 38255.20833333332,
      "d": 124.99999999999272,
      "v": 87
    },
    {
      "midi": 83,
      "hit": false,
      "t": 38257.812499999985,
      "d": 122.39583333332848,
      "v": 87
    },
    {
      "midi": 75,
      "hit": false,
      "t": 38752.60416666665,
      "d": 127.60416666666424,
      "v": 87
    },
    {
      "midi": 80,
      "hit": false,
      "t": 38755.208333333314,
      "d": 125,
      "v": 87
    },
    {
      "midi": 83,
      "hit": false,
      "t": 38757.81249999998,
      "d": 122.39583333333576,
      "v": 87
    },
    {
      "midi": 75,
      "hit": false,
      "t": 39252.60416666665,
      "d": 125,
      "v": 87
    },
    {
      "midi": 80,
      "hit": false,
      "t": 39255.208333333314,
      "d": 125,
      "v": 87
    },
    {
      "midi": 82,
      "hit": false,
      "t": 39255.208333333314,
      "d": 125,
      "v": 87
    },
    {
      "midi": 71,
      "hit": false,
      "t": 39505.208333333314,
      "d": 59.89583333333576,
      "v": 93
    },
    {
      "midi": 75,
      "hit": false,
      "t": 39752.60416666665,
      "d": 124.99999999999272,
      "v": 87
    },
    {
      "midi": 80,
      "hit": false,
      "t": 39755.208333333314,
      "d": 124.99999999999272,
      "v": 87
    },
    {
      "midi": 82,
      "hit": false,
      "t": 39757.81249999998,
      "d": 122.39583333332848,
      "v": 87
    },
    {
      "midi": 75,
      "hit": false,
      "t": 40252.60416666664,
      "d": 124.99999999999272,
      "v": 87
    },
    {
      "midi": 80,
      "hit": false,
      "t": 40255.20833333331,
      "d": 124.99999999999272,
      "v": 87
    },
    {
      "midi": 83,
      "hit": false,
      "t": 40257.81249999997,
      "d": 122.39583333332848,
      "v": 87
    },
    {
      "midi": 75,
      "hit": false,
      "t": 40752.604166666635,
      "d": 124.99999999999272,
      "v": 87
    },
    {
      "midi": 80,
      "hit": false,
      "t": 40755.2083333333,
      "d": 124.99999999999272,
      "v": 87
    },
    {
      "midi": 83,
      "hit": false,
      "t": 40757.81249999996,
      "d": 122.39583333332848,
      "v": 87
    },
    {
      "midi": 75,
      "hit": false,
      "t": 41255.20833333329,
      "d": 122.39583333332848,
      "v": 87
    },
    {
      "midi": 80,
      "hit": false,
      "t": 41255.20833333329,
      "d": 124.99999999999272,
      "v": 87
    },
    {
      "midi": 82,
      "hit": false,
      "t": 41257.812499999956,
      "d": 122.39583333332848,
      "v": 87
    },
    {
      "midi": 71,
      "hit": false,
      "t": 41505.208333333285,
      "d": 59.89583333333576,
      "v": 93
    },
    {
      "midi": 75,
      "hit": false,
      "t": 41752.60416666662,
      "d": 124.99999999999272,
      "v": 87
    },
    {
      "midi": 80,
      "hit": false,
      "t": 41755.208333333285,
      "d": 124.99999999999272,
      "v": 87
    },
    {
      "midi": 82,
      "hit": false,
      "t": 41757.81249999995,
      "d": 122.39583333332848,
      "v": 87
    },
    {
      "midi": 75,
      "hit": false,
      "t": 42252.60416666661,
      "d": 124.99999999999272,
      "v": 87
    },
    {
      "midi": 80,
      "hit": false,
      "t": 42255.20833333328,
      "d": 124.99999999999272,
      "v": 87
    },
    {
      "midi": 83,
      "hit": false,
      "t": 42257.81249999994,
      "d": 122.39583333332848,
      "v": 87
    },
    {
      "midi": 75,
      "hit": false,
      "t": 42752.604166666606,
      "d": 125,
      "v": 87
    },
    {
      "midi": 80,
      "hit": false,
      "t": 42755.20833333327,
      "d": 125,
      "v": 87
    },
    {
      "midi": 83,
      "hit": false,
      "t": 42755.20833333327,
      "d": 125,
      "v": 87
    },
    {
      "midi": 75,
      "hit": false,
      "t": 43252.604166666606,
      "d": 124.99999999999272,
      "v": 87
    },
    {
      "midi": 80,
      "hit": false,
      "t": 43255.20833333327,
      "d": 124.99999999999272,
      "v": 87
    },
    {
      "midi": 82,
      "hit": false,
      "t": 43257.812499999935,
      "d": 122.39583333332848,
      "v": 87
    },
    {
      "midi": 71,
      "hit": false,
      "t": 43505.20833333326,
      "d": 59.89583333333576,
      "v": 93
    },
    {
      "midi": 75,
      "hit": false,
      "t": 43752.6041666666,
      "d": 124.99999999999272,
      "v": 87
    },
    {
      "midi": 80,
      "hit": false,
      "t": 43755.20833333326,
      "d": 124.99999999999272,
      "v": 87
    },
    {
      "midi": 82,
      "hit": false,
      "t": 43757.81249999993,
      "d": 122.39583333332848,
      "v": 87
    },
    {
      "midi": 75,
      "hit": false,
      "t": 44252.60416666659,
      "d": 124.99999999999272,
      "v": 87
    },
    {
      "midi": 80,
      "hit": false,
      "t": 44255.208333333256,
      "d": 124.99999999999272,
      "v": 87
    },
    {
      "midi": 83,
      "hit": false,
      "t": 44257.81249999992,
      "d": 122.39583333332848,
      "v": 87
    },
    {
      "midi": 75,
      "hit": false,
      "t": 44752.604166666584,
      "d": 124.99999999999272,
      "v": 87
    },
    {
      "midi": 80,
      "hit": false,
      "t": 44755.20833333325,
      "d": 124.99999999999272,
      "v": 87
    },
    {
      "midi": 83,
      "hit": false,
      "t": 44757.81249999991,
      "d": 122.39583333332848,
      "v": 87
    },
    {
      "midi": 75,
      "hit": false,
      "t": 45252.60416666658,
      "d": 124.99999999999272,
      "v": 87
    },
    {
      "midi": 80,
      "hit": false,
      "t": 45255.20833333324,
      "d": 124.99999999999272,
      "v": 87
    },
    {
      "midi": 82,
      "hit": false,
      "t": 45257.812499999905,
      "d": 122.39583333332848,
      "v": 87
    },
    {
      "midi": 71,
      "hit": false,
      "t": 45505.208333333234,
      "d": 62.5,
      "v": 93
    },
    {
      "midi": 75,
      "hit": false,
      "t": 45752.60416666657,
      "d": 124.99999999999272,
      "v": 87
    },
    {
      "midi": 80,
      "hit": false,
      "t": 45755.208333333234,
      "d": 124.99999999999272,
      "v": 87
    },
    {
      "midi": 82,
      "hit": false,
      "t": 45757.8124999999,
      "d": 122.39583333332848,
      "v": 87
    },
    {
      "midi": 73,
      "hit": false,
      "t": 46252.60416666656,
      "d": 127.60416666666424,
      "v": 87
    },
    {
      "midi": 78,
      "hit": false,
      "t": 46255.20833333323,
      "d": 125,
      "v": 87
    },
    {
      "midi": 82,
      "hit": false,
      "t": 46257.81249999989,
      "d": 122.39583333333576,
      "v": 87
    },
    {
      "midi": 73,
      "hit": false,
      "t": 46755.20833333323,
      "d": 122.39583333332848,
      "v": 87
    },
    {
      "midi": 78,
      "hit": false,
      "t": 46755.20833333323,
      "d": 124.99999999999272,
      "v": 87
    },
    {
      "midi": 82,
      "hit": false,
      "t": 46757.81249999989,
      "d": 122.39583333332848,
      "v": 87
    },
    {
      "midi": 73,
      "hit": false,
      "t": 47252.604166666555,
      "d": 124.99999999999272,
      "v": 87
    },
    {
      "midi": 78,
      "hit": false,
      "t": 47255.20833333322,
      "d": 124.99999999999272,
      "v": 87
    },
    {
      "midi": 80,
      "hit": false,
      "t": 47257.81249999988,
      "d": 122.39583333332848,
      "v": 87
    },
    {
      "midi": 70,
      "hit": false,
      "t": 47505.20833333321,
      "d": 62.5,
      "v": 93
    },
    {
      "midi": 73,
      "hit": false,
      "t": 47752.60416666655,
      "d": 124.99999999999272,
      "v": 87
    },
    {
      "midi": 78,
      "hit": false,
      "t": 47755.20833333321,
      "d": 124.99999999999272,
      "v": 87
    },
    {
      "midi": 80,
      "hit": false,
      "t": 47757.812499999876,
      "d": 122.39583333332848,
      "v": 87
    },
    {
      "midi": 73,
      "hit": false,
      "t": 48252.60416666654,
      "d": 124.99999999999272,
      "v": 87
    },
    {
      "midi": 78,
      "hit": false,
      "t": 48255.208333333205,
      "d": 124.99999999999272,
      "v": 87
    },
    {
      "midi": 82,
      "hit": false,
      "t": 48257.81249999987,
      "d": 122.39583333332848,
      "v": 87
    },
    {
      "midi": 73,
      "hit": false,
      "t": 48755.2083333332,
      "d": 122.39583333332848,
      "v": 87
    },
    {
      "midi": 78,
      "hit": false,
      "t": 48755.2083333332,
      "d": 124.99999999999272,
      "v": 87
    },
    {
      "midi": 82,
      "hit": false,
      "t": 48757.81249999986,
      "d": 122.39583333332848,
      "v": 87
    },
    {
      "midi": 73,
      "hit": false,
      "t": 49252.604166666526,
      "d": 124.99999999999272,
      "v": 87
    },
    {
      "midi": 78,
      "hit": false,
      "t": 49255.20833333319,
      "d": 124.99999999999272,
      "v": 87
    },
    {
      "midi": 80,
      "hit": false,
      "t": 49257.812499999854,
      "d": 122.39583333332848,
      "v": 87
    },
    {
      "midi": 70,
      "hit": false,
      "t": 49505.20833333318,
      "d": 59.89583333333576,
      "v": 93
    },
    {
      "midi": 73,
      "hit": false,
      "t": 49752.60416666652,
      "d": 124.99999999999272,
      "v": 87
    },
    {
      "midi": 78,
      "hit": false,
      "t": 49755.20833333318,
      "d": 124.99999999999272,
      "v": 87
    },
    {
      "midi": 80,
      "hit": false,
      "t": 49757.81249999985,
      "d": 122.39583333332848,
      "v": 87
    },
    {
      "midi": 75,
      "hit": false,
      "t": 50252.60416666651,
      "d": 125,
      "v": 87
    },
    {
      "midi": 80,
      "hit": false,
      "t": 50255.208333333176,
      "d": 125,
      "v": 87
    },
    {
      "midi": 83,
      "hit": false,
      "t": 50255.208333333176,
      "d": 125,
      "v": 87
    },
    {
      "midi": 75,
      "hit": false,
      "t": 50752.60416666651,
      "d": 124.99999999999272,
      "v": 87
    },
    {
      "midi": 80,
      "hit": false,
      "t": 50755.208333333176,
      "d": 124.99999999999272,
      "v": 87
    },
    {
      "midi": 83,
      "hit": false,
      "t": 50757.81249999984,
      "d": 122.39583333332848,
      "v": 87
    },
    {
      "midi": 75,
      "hit": false,
      "t": 51252.604166666504,
      "d": 124.99999999999272,
      "v": 87
    },
    {
      "midi": 80,
      "hit": false,
      "t": 51255.20833333317,
      "d": 124.99999999999272,
      "v": 87
    },
    {
      "midi": 82,
      "hit": false,
      "t": 51257.81249999983,
      "d": 122.39583333332848,
      "v": 87
    },
    {
      "midi": 71,
      "hit": false,
      "t": 51505.20833333316,
      "d": 59.89583333333576,
      "v": 93
    },
    {
      "midi": 75,
      "hit": false,
      "t": 51752.6041666665,
      "d": 124.99999999999272,
      "v": 87
    },
    {
      "midi": 80,
      "hit": false,
      "t": 51755.20833333316,
      "d": 124.99999999999272,
      "v": 87
    },
    {
      "midi": 82,
      "hit": false,
      "t": 51757.812499999825,
      "d": 122.39583333332848,
      "v": 87
    },
    {
      "midi": 75,
      "hit": false,
      "t": 52255.208333333154,
      "d": 122.39583333332848,
      "v": 87
    },
    {
      "midi": 80,
      "hit": false,
      "t": 52255.208333333154,
      "d": 124.99999999999272,
      "v": 87
    },
    {
      "midi": 83,
      "hit": false,
      "t": 52257.81249999982,
      "d": 122.39583333332848,
      "v": 87
    },
    {
      "midi": 75,
      "hit": false,
      "t": 52752.60416666648,
      "d": 124.99999999999272,
      "v": 87
    },
    {
      "midi": 80,
      "hit": false,
      "t": 52755.20833333315,
      "d": 124.99999999999272,
      "v": 87
    },
    {
      "midi": 83,
      "hit": false,
      "t": 52757.81249999981,
      "d": 122.39583333332848,
      "v": 87
    },
    {
      "midi": 75,
      "hit": false,
      "t": 53252.604166666475,
      "d": 124.99999999999272,
      "v": 87
    },
    {
      "midi": 80,
      "hit": false,
      "t": 53255.20833333314,
      "d": 124.99999999999272,
      "v": 87
    },
    {
      "midi": 82,
      "hit": false,
      "t": 53257.8124999998,
      "d": 122.39583333332848,
      "v": 87
    },
    {
      "midi": 71,
      "hit": false,
      "t": 53505.20833333313,
      "d": 59.89583333333576,
      "v": 93
    },
    {
      "midi": 75,
      "hit": false,
      "t": 53755.20833333313,
      "d": 125,
      "v": 87
    },
    {
      "midi": 80,
      "hit": false,
      "t": 53755.20833333313,
      "d": 125,
      "v": 87
    },
    {
      "midi": 82,
      "hit": false,
      "t": 53757.812499999796,
      "d": 122.39583333333576,
      "v": 87
    },
    {
      "midi": 75,
      "hit": false,
      "t": 54007.812499999796,
      "d": 119.79166666666424,
      "v": 87
    },
    {
      "midi": 80,
      "hit": false,
      "t": 54010.41666666646,
      "d": 119.79166666666424,
      "v": 87
    },
    {
      "midi": 83,
      "hit": false,
      "t": 54015.624999999796,
      "d": 114.58333333332848,
      "v": 87
    },
    {
      "midi": 75,
      "hit": false,
      "t": 54252.60416666646,
      "d": 124.99999999999272,
      "v": 87
    },
    {
      "midi": 80,
      "hit": false,
      "t": 54255.208333333125,
      "d": 124.99999999999272,
      "v": 87
    },
    {
      "midi": 83,
      "hit": false,
      "t": 54257.81249999979,
      "d": 122.39583333332848,
      "v": 87
    },
    {
      "midi": 75,
      "hit": false,
      "t": 54752.60416666645,
      "d": 124.99999999999272,
      "v": 87
    },
    {
      "midi": 80,
      "hit": false,
      "t": 54755.20833333312,
      "d": 124.99999999999272,
      "v": 87
    },
    {
      "midi": 83,
      "hit": false,
      "t": 54757.81249999978,
      "d": 122.39583333332848,
      "v": 87
    },
    {
      "midi": 75,
      "hit": false,
      "t": 55252.604166666446,
      "d": 124.99999999999272,
      "v": 87
    },
    {
      "midi": 80,
      "hit": false,
      "t": 55255.20833333311,
      "d": 124.99999999999272,
      "v": 87
    },
    {
      "midi": 82,
      "hit": false,
      "t": 55257.812499999774,
      "d": 122.39583333332848,
      "v": 87
    },
    {
      "midi": 71,
      "hit": false,
      "t": 55505.2083333331,
      "d": 59.89583333333576,
      "v": 93
    },
    {
      "midi": 75,
      "hit": false,
      "t": 55752.60416666644,
      "d": 125,
      "v": 87
    },
    {
      "midi": 80,
      "hit": false,
      "t": 55755.2083333331,
      "d": 125,
      "v": 87
    },
    {
      "midi": 82,
      "hit": false,
      "t": 55755.2083333331,
      "d": 125,
      "v": 87
    },
    {
      "midi": 75,
      "hit": false,
      "t": 56252.60416666644,
      "d": 124.99999999999272,
      "v": 87
    },
    {
      "midi": 80,
      "hit": false,
      "t": 56255.2083333331,
      "d": 124.99999999999272,
      "v": 87
    },
    {
      "midi": 83,
      "hit": false,
      "t": 56257.81249999977,
      "d": 122.39583333332848,
      "v": 87
    },
    {
      "midi": 75,
      "hit": false,
      "t": 56752.60416666643,
      "d": 124.99999999999272,
      "v": 87
    },
    {
      "midi": 80,
      "hit": false,
      "t": 56755.208333333096,
      "d": 124.99999999999272,
      "v": 87
    },
    {
      "midi": 83,
      "hit": false,
      "t": 56757.81249999976,
      "d": 122.39583333332848,
      "v": 87
    },
    {
      "midi": 75,
      "hit": false,
      "t": 57252.604166666424,
      "d": 124.99999999999272,
      "v": 87
    },
    {
      "midi": 80,
      "hit": false,
      "t": 57255.20833333309,
      "d": 124.99999999999272,
      "v": 87
    },
    {
      "midi": 82,
      "hit": false,
      "t": 57257.81249999975,
      "d": 122.39583333332848,
      "v": 87
    },
    {
      "midi": 71,
      "hit": false,
      "t": 57505.20833333308,
      "d": 59.89583333333576,
      "v": 93
    },
    {
      "midi": 75,
      "hit": false,
      "t": 57752.60416666642,
      "d": 125,
      "v": 87
    },
    {
      "midi": 80,
      "hit": false,
      "t": 57755.20833333308,
      "d": 125,
      "v": 87
    },
    {
      "midi": 82,
      "hit": false,
      "t": 57755.20833333308,
      "d": 125,
      "v": 87
    },
    {
      "midi": 76,
      "hit": false,
      "t": 58007.812499999745,
      "d": 122.39583333332848,
      "v": 87
    },
    {
      "midi": 80,
      "hit": false,
      "t": 58010.41666666641,
      "d": 119.79166666666424,
      "v": 87
    },
    {
      "midi": 83,
      "hit": false,
      "t": 58010.41666666641,
      "d": 119.79166666666424,
      "v": 87
    },
    {
      "midi": 76,
      "hit": false,
      "t": 58252.60416666641,
      "d": 124.99999999999272,
      "v": 87
    },
    {
      "midi": 80,
      "hit": false,
      "t": 58255.208333333074,
      "d": 124.99999999999272,
      "v": 87
    },
    {
      "midi": 83,
      "hit": false,
      "t": 58257.81249999974,
      "d": 122.39583333332848,
      "v": 87
    },
    {
      "midi": 76,
      "hit": false,
      "t": 58752.6041666664,
      "d": 124.99999999999272,
      "v": 87
    },
    {
      "midi": 80,
      "hit": false,
      "t": 58755.20833333307,
      "d": 124.99999999999272,
      "v": 87
    },
    {
      "midi": 83,
      "hit": false,
      "t": 58757.81249999973,
      "d": 122.39583333332848,
      "v": 87
    },
    {
      "midi": 76,
      "hit": false,
      "t": 59252.604166666395,
      "d": 127.60416666666424,
      "v": 87
    },
    {
      "midi": 80,
      "hit": false,
      "t": 59255.20833333306,
      "d": 125,
      "v": 87
    },
    {
      "midi": 82,
      "hit": false,
      "t": 59257.81249999972,
      "d": 122.39583333333576,
      "v": 87
    },
    {
      "midi": 71,
      "hit": false,
      "t": 59505.20833333306,
      "d": 59.89583333333576,
      "v": 93
    },
    {
      "midi": 76,
      "hit": false,
      "t": 59752.604166666395,
      "d": 125,
      "v": 87
    },
    {
      "midi": 80,
      "hit": false,
      "t": 59755.20833333306,
      "d": 125,
      "v": 87
    },
    {
      "midi": 82,
      "hit": false,
      "t": 59755.20833333306,
      "d": 125,
      "v": 87
    },
    {
      "midi": 76,
      "hit": false,
      "t": 60252.604166666395,
      "d": 124.99999999999272,
      "v": 87
    },
    {
      "midi": 80,
      "hit": false,
      "t": 60255.20833333306,
      "d": 124.99999999999272,
      "v": 87
    },
    {
      "midi": 83,
      "hit": false,
      "t": 60257.81249999972,
      "d": 122.39583333332848,
      "v": 87
    },
    {
      "midi": 76,
      "hit": false,
      "t": 60752.60416666639,
      "d": 124.99999999999272,
      "v": 87
    },
    {
      "midi": 80,
      "hit": false,
      "t": 60755.20833333305,
      "d": 124.99999999999272,
      "v": 87
    },
    {
      "midi": 83,
      "hit": false,
      "t": 60757.812499999716,
      "d": 122.39583333332848,
      "v": 87
    },
    {
      "midi": 76,
      "hit": false,
      "t": 61252.60416666638,
      "d": 124.99999999999272,
      "v": 87
    },
    {
      "midi": 80,
      "hit": false,
      "t": 61255.208333333045,
      "d": 124.99999999999272,
      "v": 87
    },
    {
      "midi": 82,
      "hit": false,
      "t": 61257.81249999971,
      "d": 122.39583333332848,
      "v": 87
    },
    {
      "midi": 71,
      "hit": false,
      "t": 61505.20833333304,
      "d": 59.89583333333576,
      "v": 93
    },
    {
      "midi": 76,
      "hit": false,
      "t": 61755.20833333304,
      "d": 122.39583333332848,
      "v": 87
    },
    {
      "midi": 80,
      "hit": false,
      "t": 61755.20833333304,
      "d": 124.99999999999272,
      "v": 87
    },
    {
      "midi": 82,
      "hit": false,
      "t": 61757.8124999997,
      "d": 122.39583333332848,
      "v": 87
    },
    {
      "midi": 73,
      "hit": false,
      "t": 62007.812499999694,
      "d": 122.39583333333576,
      "v": 87
    },
    {
      "midi": 78,
      "hit": false,
      "t": 62007.812499999694,
      "d": 122.39583333333576,
      "v": 87
    },
    {
      "midi": 80,
      "hit": false,
      "t": 62015.624999999694,
      "d": 114.58333333333576,
      "v": 87
    },
    {
      "midi": 82,
      "hit": false,
      "t": 62015.624999999694,
      "d": 117.1875,
      "v": 87
    },
    {
      "midi": 73,
      "hit": false,
      "t": 62252.60416666636,
      "d": 124.99999999999272,
      "v": 87
    },
    {
      "midi": 78,
      "hit": false,
      "t": 62255.20833333302,
      "d": 124.99999999999272,
      "v": 87
    },
    {
      "midi": 80,
      "hit": false,
      "t": 62257.81249999969,
      "d": 122.39583333332848,
      "v": 87
    },
    {
      "midi": 82,
      "hit": false,
      "t": 62257.81249999969,
      "d": 124.99999999999272,
      "v": 87
    },
    {
      "midi": 73,
      "hit": false,
      "t": 62752.604166666344,
      "d": 124.99999999999272,
      "v": 87
    },
    {
      "midi": 78,
      "hit": false,
      "t": 62755.20833333301,
      "d": 124.99999999999272,
      "v": 87
    },
    {
      "midi": 80,
      "hit": false,
      "t": 62755.20833333301,
      "d": 124.99999999999272,
      "v": 87
    },
    {
      "midi": 82,
      "hit": false,
      "t": 62757.81249999967,
      "d": 122.39583333332848,
      "v": 87
    },
    {
      "midi": 73,
      "hit": false,
      "t": 63252.60416666634,
      "d": 124.99999999999272,
      "v": 87
    },
    {
      "midi": 78,
      "hit": false,
      "t": 63255.208333333,
      "d": 124.99999999999272,
      "v": 87
    },
    {
      "midi": 80,
      "hit": false,
      "t": 63255.208333333,
      "d": 124.99999999999272,
      "v": 87
    },
    {
      "midi": 82,
      "hit": false,
      "t": 63257.812499999665,
      "d": 124.99999999999272,
      "v": 87
    },
    {
      "midi": 73,
      "hit": false,
      "t": 63752.60416666632,
      "d": 124.99999999999272,
      "v": 87
    },
    {
      "midi": 78,
      "hit": false,
      "t": 63755.20833333299,
      "d": 124.99999999999272,
      "v": 87
    },
    {
      "midi": 80,
      "hit": false,
      "t": 63757.81249999965,
      "d": 122.39583333332848,
      "v": 87
    },
    {
      "midi": 82,
      "hit": false,
      "t": 63757.81249999965,
      "d": 124.99999999999272,
      "v": 87
    },
    {
      "midi": 73,
      "hit": false,
      "t": 64010.41666666631,
      "d": 117.1875,
      "v": 87
    },
    {
      "midi": 78,
      "hit": false,
      "t": 64013.02083333297,
      "d": 117.1875,
      "v": 87
    },
    {
      "midi": 80,
      "hit": false,
      "t": 64013.02083333297,
      "d": 117.1875,
      "v": 87
    },
    {
      "midi": 82,
      "hit": false,
      "t": 64013.02083333297,
      "d": 119.79166666666424,
      "v": 87
    },
    {
      "midi": 71,
      "hit": false,
      "t": 66127.60416666631,
      "d": 125,
      "v": 77
    },
    {
      "midi": 76,
      "hit": false,
      "t": 66130.20833333298,
      "d": 125,
      "v": 77
    },
    {
      "midi": 80,
      "hit": false,
      "t": 66130.20833333298,
      "d": 125,
      "v": 77
    },
    {
      "midi": 71,
      "hit": false,
      "t": 66257.81249999965,
      "d": 119.79166666667152,
      "v": 102
    },
    {
      "midi": 76,
      "hit": false,
      "t": 66257.81249999965,
      "d": 122.39583333334303,
      "v": 102
    },
    {
      "midi": 80,
      "hit": false,
      "t": 66260.41666666632,
      "d": 119.79166666667152,
      "v": 102
    },
    {
      "midi": 71,
      "hit": false,
      "t": 66382.81249999967,
      "d": 122.39583333332848,
      "v": 77
    },
    {
      "midi": 76,
      "hit": false,
      "t": 66382.81249999967,
      "d": 122.39583333332848,
      "v": 77
    },
    {
      "midi": 80,
      "hit": false,
      "t": 66382.81249999967,
      "d": 125,
      "v": 77
    },
    {
      "midi": 71,
      "hit": false,
      "t": 66510.41666666634,
      "d": 117.1875,
      "v": 102
    },
    {
      "midi": 76,
      "hit": false,
      "t": 66510.41666666634,
      "d": 119.79166666667152,
      "v": 102
    },
    {
      "midi": 80,
      "hit": false,
      "t": 66510.41666666634,
      "d": 119.79166666667152,
      "v": 102
    },
    {
      "midi": 71,
      "hit": false,
      "t": 66632.81249999968,
      "d": 119.79166666667152,
      "v": 87
    },
    {
      "midi": 76,
      "hit": false,
      "t": 66632.81249999968,
      "d": 122.39583333334303,
      "v": 87
    },
    {
      "midi": 80,
      "hit": false,
      "t": 66635.41666666635,
      "d": 119.79166666667152,
      "v": 87
    },
    {
      "midi": 71,
      "hit": false,
      "t": 66757.8124999997,
      "d": 119.79166666667152,
      "v": 82
    },
    {
      "midi": 76,
      "hit": false,
      "t": 66757.8124999997,
      "d": 122.39583333334303,
      "v": 82
    },
    {
      "midi": 80,
      "hit": false,
      "t": 66757.8124999997,
      "d": 122.39583333334303,
      "v": 82
    },
    {
      "midi": 71,
      "hit": false,
      "t": 66882.81249999971,
      "d": 122.39583333332848,
      "v": 77
    },
    {
      "midi": 76,
      "hit": false,
      "t": 66882.81249999971,
      "d": 122.39583333332848,
      "v": 77
    },
    {
      "midi": 80,
      "hit": false,
      "t": 66882.81249999971,
      "d": 125,
      "v": 77
    },
    {
      "midi": 71,
      "hit": false,
      "t": 67255.20833333304,
      "d": 122.39583333334303,
      "v": 102
    },
    {
      "midi": 76,
      "hit": false,
      "t": 67255.20833333304,
      "d": 125.00000000001455,
      "v": 102
    },
    {
      "midi": 80,
      "hit": false,
      "t": 67257.81249999971,
      "d": 122.39583333334303,
      "v": 102
    },
    {
      "midi": 71,
      "hit": false,
      "t": 67382.81249999972,
      "d": 122.39583333332848,
      "v": 92
    },
    {
      "midi": 76,
      "hit": false,
      "t": 67382.81249999972,
      "d": 125,
      "v": 92
    },
    {
      "midi": 80,
      "hit": false,
      "t": 67382.81249999972,
      "d": 125,
      "v": 92
    },
    {
      "midi": 68,
      "hit": false,
      "t": 68127.6041666664,
      "d": 125,
      "v": 77
    },
    {
      "midi": 73,
      "hit": false,
      "t": 68130.20833333307,
      "d": 125,
      "v": 77
    },
    {
      "midi": 76,
      "hit": false,
      "t": 68130.20833333307,
      "d": 125,
      "v": 77
    },
    {
      "midi": 68,
      "hit": false,
      "t": 68257.81249999974,
      "d": 119.79166666667152,
      "v": 102
    },
    {
      "midi": 73,
      "hit": false,
      "t": 68257.81249999974,
      "d": 122.39583333334303,
      "v": 102
    },
    {
      "midi": 76,
      "hit": false,
      "t": 68260.41666666641,
      "d": 119.79166666667152,
      "v": 102
    },
    {
      "midi": 68,
      "hit": false,
      "t": 68380.20833333308,
      "d": 125,
      "v": 77
    },
    {
      "midi": 73,
      "hit": false,
      "t": 68382.81249999975,
      "d": 122.39583333332848,
      "v": 77
    },
    {
      "midi": 76,
      "hit": false,
      "t": 68382.81249999975,
      "d": 125,
      "v": 77
    },
    {
      "midi": 68,
      "hit": false,
      "t": 68510.41666666642,
      "d": 117.1875,
      "v": 102
    },
    {
      "midi": 73,
      "hit": false,
      "t": 68510.41666666642,
      "d": 119.79166666667152,
      "v": 102
    },
    {
      "midi": 76,
      "hit": false,
      "t": 68510.41666666642,
      "d": 119.79166666667152,
      "v": 102
    },
    {
      "midi": 68,
      "hit": false,
      "t": 68632.81249999977,
      "d": 122.39583333334303,
      "v": 87
    },
    {
      "midi": 73,
      "hit": false,
      "t": 68632.81249999977,
      "d": 122.39583333334303,
      "v": 87
    },
    {
      "midi": 76,
      "hit": false,
      "t": 68635.41666666644,
      "d": 119.79166666667152,
      "v": 87
    },
    {
      "midi": 68,
      "hit": false,
      "t": 68757.81249999978,
      "d": 119.79166666667152,
      "v": 82
    },
    {
      "midi": 73,
      "hit": false,
      "t": 68757.81249999978,
      "d": 122.39583333334303,
      "v": 82
    },
    {
      "midi": 76,
      "hit": false,
      "t": 68760.41666666645,
      "d": 119.79166666667152,
      "v": 82
    },
    {
      "midi": 68,
      "hit": false,
      "t": 68882.8124999998,
      "d": 122.39583333332848,
      "v": 77
    },
    {
      "midi": 73,
      "hit": false,
      "t": 68882.8124999998,
      "d": 125,
      "v": 77
    },
    {
      "midi": 76,
      "hit": false,
      "t": 68882.8124999998,
      "d": 127.60416666667152,
      "v": 77
    },
    {
      "midi": 68,
      "hit": false,
      "t": 69252.60416666647,
      "d": 125,
      "v": 102
    },
    {
      "midi": 73,
      "hit": false,
      "t": 69255.20833333314,
      "d": 125,
      "v": 102
    },
    {
      "midi": 76,
      "hit": false,
      "t": 69255.20833333314,
      "d": 125,
      "v": 102
    },
    {
      "midi": 68,
      "hit": false,
      "t": 69382.81249999981,
      "d": 122.39583333334303,
      "v": 92
    },
    {
      "midi": 73,
      "hit": false,
      "t": 69382.81249999981,
      "d": 125.00000000001455,
      "v": 92
    },
    {
      "midi": 76,
      "hit": false,
      "t": 69385.41666666648,
      "d": 122.39583333334303,
      "v": 92
    },
    {
      "midi": 68,
      "hit": false,
      "t": 69752.6041666665,
      "d": 125.00000000001455,
      "v": 92
    },
    {
      "midi": 73,
      "hit": false,
      "t": 69755.20833333317,
      "d": 125.00000000001455,
      "v": 92
    },
    {
      "midi": 76,
      "hit": false,
      "t": 69757.81249999984,
      "d": 122.39583333334303,
      "v": 92
    },
    {
      "midi": 68,
      "hit": false,
      "t": 69882.81249999985,
      "d": 122.39583333332848,
      "v": 92
    },
    {
      "midi": 73,
      "hit": false,
      "t": 69882.81249999985,
      "d": 125,
      "v": 92
    },
    {
      "midi": 76,
      "hit": false,
      "t": 69882.81249999985,
      "d": 127.60416666667152,
      "v": 92
    },
    {
      "midi": 70,
      "hit": false,
      "t": 70127.60416666653,
      "d": 125,
      "v": 77
    },
    {
      "midi": 73,
      "hit": false,
      "t": 70130.2083333332,
      "d": 125,
      "v": 77
    },
    {
      "midi": 78,
      "hit": false,
      "t": 70130.2083333332,
      "d": 125,
      "v": 77
    },
    {
      "midi": 70,
      "hit": false,
      "t": 70257.81249999987,
      "d": 119.79166666667152,
      "v": 102
    },
    {
      "midi": 73,
      "hit": false,
      "t": 70257.81249999987,
      "d": 122.39583333334303,
      "v": 102
    },
    {
      "midi": 78,
      "hit": false,
      "t": 70257.81249999987,
      "d": 122.39583333334303,
      "v": 102
    },
    {
      "midi": 70,
      "hit": false,
      "t": 70380.20833333321,
      "d": 125,
      "v": 77
    },
    {
      "midi": 73,
      "hit": false,
      "t": 70382.81249999988,
      "d": 122.39583333332848,
      "v": 77
    },
    {
      "midi": 78,
      "hit": false,
      "t": 70382.81249999988,
      "d": 125,
      "v": 77
    },
    {
      "midi": 70,
      "hit": false,
      "t": 70510.41666666656,
      "d": 119.79166666667152,
      "v": 102
    },
    {
      "midi": 73,
      "hit": false,
      "t": 70510.41666666656,
      "d": 119.79166666667152,
      "v": 102
    },
    {
      "midi": 78,
      "hit": false,
      "t": 70510.41666666656,
      "d": 119.79166666667152,
      "v": 102
    },
    {
      "midi": 70,
      "hit": false,
      "t": 70632.8124999999,
      "d": 119.79166666667152,
      "v": 87
    },
    {
      "midi": 73,
      "hit": false,
      "t": 70632.8124999999,
      "d": 122.39583333334303,
      "v": 87
    },
    {
      "midi": 78,
      "hit": false,
      "t": 70632.8124999999,
      "d": 122.39583333334303,
      "v": 87
    },
    {
      "midi": 70,
      "hit": false,
      "t": 70757.81249999991,
      "d": 119.79166666667152,
      "v": 82
    },
    {
      "midi": 73,
      "hit": false,
      "t": 70757.81249999991,
      "d": 122.39583333334303,
      "v": 82
    },
    {
      "midi": 78,
      "hit": false,
      "t": 70760.41666666658,
      "d": 119.79166666667152,
      "v": 82
    },
    {
      "midi": 70,
      "hit": false,
      "t": 70882.81249999993,
      "d": 122.39583333332848,
      "v": 77
    },
    {
      "midi": 73,
      "hit": false,
      "t": 70882.81249999993,
      "d": 125,
      "v": 77
    },
    {
      "midi": 78,
      "hit": false,
      "t": 70882.81249999993,
      "d": 127.60416666667152,
      "v": 77
    },
    {
      "midi": 70,
      "hit": false,
      "t": 71252.6041666666,
      "d": 125.00000000001455,
      "v": 102
    },
    {
      "midi": 73,
      "hit": false,
      "t": 71255.20833333327,
      "d": 125.00000000001455,
      "v": 102
    },
    {
      "midi": 78,
      "hit": false,
      "t": 71257.81249999994,
      "d": 122.39583333334303,
      "v": 102
    },
    {
      "midi": 70,
      "hit": false,
      "t": 71382.81249999996,
      "d": 122.39583333334303,
      "v": 92
    },
    {
      "midi": 73,
      "hit": false,
      "t": 71382.81249999996,
      "d": 125.00000000001455,
      "v": 92
    },
    {
      "midi": 78,
      "hit": false,
      "t": 71385.41666666663,
      "d": 122.39583333334303,
      "v": 92
    },
    {
      "midi": 70,
      "hit": false,
      "t": 72127.60416666664,
      "d": 125,
      "v": 77
    },
    {
      "midi": 75,
      "hit": false,
      "t": 72130.20833333331,
      "d": 125,
      "v": 77
    },
    {
      "midi": 78,
      "hit": false,
      "t": 72130.20833333331,
      "d": 125,
      "v": 77
    },
    {
      "midi": 70,
      "hit": false,
      "t": 72257.81249999999,
      "d": 122.39583333332848,
      "v": 102
    },
    {
      "midi": 75,
      "hit": false,
      "t": 72257.81249999999,
      "d": 122.39583333332848,
      "v": 102
    },
    {
      "midi": 78,
      "hit": false,
      "t": 72257.81249999999,
      "d": 122.39583333332848,
      "v": 102
    },
    {
      "midi": 70,
      "hit": false,
      "t": 72382.81249999999,
      "d": 122.39583333332848,
      "v": 77
    },
    {
      "midi": 75,
      "hit": false,
      "t": 72382.81249999999,
      "d": 125,
      "v": 77
    },
    {
      "midi": 78,
      "hit": false,
      "t": 72382.81249999999,
      "d": 125,
      "v": 77
    },
    {
      "midi": 70,
      "hit": false,
      "t": 72510.41666666666,
      "d": 119.79166666667152,
      "v": 102
    },
    {
      "midi": 75,
      "hit": false,
      "t": 72510.41666666666,
      "d": 119.79166666667152,
      "v": 102
    },
    {
      "midi": 78,
      "hit": false,
      "t": 72510.41666666666,
      "d": 119.79166666667152,
      "v": 102
    },
    {
      "midi": 70,
      "hit": false,
      "t": 72632.8125,
      "d": 122.39583333332848,
      "v": 87
    },
    {
      "midi": 75,
      "hit": false,
      "t": 72632.8125,
      "d": 122.39583333332848,
      "v": 87
    },
    {
      "midi": 78,
      "hit": false,
      "t": 72632.8125,
      "d": 122.39583333332848,
      "v": 87
    },
    {
      "midi": 70,
      "hit": false,
      "t": 72757.8125,
      "d": 119.79166666667152,
      "v": 82
    },
    {
      "midi": 75,
      "hit": false,
      "t": 72757.8125,
      "d": 122.39583333334303,
      "v": 82
    },
    {
      "midi": 78,
      "hit": false,
      "t": 72760.41666666667,
      "d": 119.79166666667152,
      "v": 82
    },
    {
      "midi": 70,
      "hit": false,
      "t": 72882.81250000001,
      "d": 122.39583333334303,
      "v": 77
    },
    {
      "midi": 75,
      "hit": false,
      "t": 72882.81250000001,
      "d": 125.00000000001455,
      "v": 77
    },
    {
      "midi": 78,
      "hit": false,
      "t": 72885.41666666669,
      "d": 122.39583333334303,
      "v": 77
    },
    {
      "midi": 70,
      "hit": false,
      "t": 73252.6041666667,
      "d": 125.00000000001455,
      "v": 102
    },
    {
      "midi": 75,
      "hit": false,
      "t": 73255.20833333337,
      "d": 125.00000000001455,
      "v": 102
    },
    {
      "midi": 78,
      "hit": false,
      "t": 73257.81250000004,
      "d": 122.39583333334303,
      "v": 102
    },
    {
      "midi": 70,
      "hit": false,
      "t": 73382.81250000006,
      "d": 122.39583333334303,
      "v": 92
    },
    {
      "midi": 75,
      "hit": false,
      "t": 73382.81250000006,
      "d": 122.39583333334303,
      "v": 92
    },
    {
      "midi": 78,
      "hit": false,
      "t": 73385.41666666673,
      "d": 122.39583333334303,
      "v": 92
    },
    {
      "midi": 70,
      "hit": false,
      "t": 73755.2083333334,
      "d": 122.39583333334303,
      "v": 92
    },
    {
      "midi": 75,
      "hit": false,
      "t": 73755.2083333334,
      "d": 125.00000000001455,
      "v": 92
    },
    {
      "midi": 78,
      "hit": false,
      "t": 73757.81250000007,
      "d": 122.39583333334303,
      "v": 92
    },
    {
      "midi": 70,
      "hit": false,
      "t": 73880.20833333342,
      "d": 125,
      "v": 92
    },
    {
      "midi": 75,
      "hit": false,
      "t": 73882.81250000009,
      "d": 125,
      "v": 92
    },
    {
      "midi": 78,
      "hit": false,
      "t": 73882.81250000009,
      "d": 127.60416666667152,
      "v": 92
    },
    {
      "midi": 71,
      "hit": false,
      "t": 74127.60416666676,
      "d": 125,
      "v": 77
    },
    {
      "midi": 76,
      "hit": false,
      "t": 74130.20833333343,
      "d": 125,
      "v": 77
    },
    {
      "midi": 80,
      "hit": false,
      "t": 74130.20833333343,
      "d": 125,
      "v": 77
    },
    {
      "midi": 71,
      "hit": false,
      "t": 74257.8125000001,
      "d": 119.79166666667152,
      "v": 102
    },
    {
      "midi": 76,
      "hit": false,
      "t": 74257.8125000001,
      "d": 122.39583333334303,
      "v": 102
    },
    {
      "midi": 80,
      "hit": false,
      "t": 74257.8125000001,
      "d": 122.39583333334303,
      "v": 102
    },
    {
      "midi": 71,
      "hit": false,
      "t": 74382.81250000012,
      "d": 122.39583333332848,
      "v": 77
    },
    {
      "midi": 76,
      "hit": false,
      "t": 74382.81250000012,
      "d": 125,
      "v": 77
    },
    {
      "midi": 80,
      "hit": false,
      "t": 74382.81250000012,
      "d": 125,
      "v": 77
    },
    {
      "midi": 71,
      "hit": false,
      "t": 74510.41666666679,
      "d": 119.79166666667152,
      "v": 102
    },
    {
      "midi": 76,
      "hit": false,
      "t": 74510.41666666679,
      "d": 119.79166666667152,
      "v": 102
    },
    {
      "midi": 80,
      "hit": false,
      "t": 74510.41666666679,
      "d": 119.79166666667152,
      "v": 102
    },
    {
      "midi": 71,
      "hit": false,
      "t": 74632.81250000013,
      "d": 122.39583333332848,
      "v": 87
    },
    {
      "midi": 76,
      "hit": false,
      "t": 74632.81250000013,
      "d": 122.39583333332848,
      "v": 87
    },
    {
      "midi": 80,
      "hit": false,
      "t": 74632.81250000013,
      "d": 122.39583333332848,
      "v": 87
    },
    {
      "midi": 71,
      "hit": false,
      "t": 74757.81250000013,
      "d": 119.79166666667152,
      "v": 82
    },
    {
      "midi": 76,
      "hit": false,
      "t": 74757.81250000013,
      "d": 122.39583333334303,
      "v": 82
    },
    {
      "midi": 80,
      "hit": false,
      "t": 74760.4166666668,
      "d": 119.79166666667152,
      "v": 82
    },
    {
      "midi": 71,
      "hit": false,
      "t": 74882.81250000015,
      "d": 122.39583333334303,
      "v": 77
    },
    {
      "midi": 76,
      "hit": false,
      "t": 74882.81250000015,
      "d": 125.00000000001455,
      "v": 77
    },
    {
      "midi": 80,
      "hit": false,
      "t": 74885.41666666682,
      "d": 122.39583333334303,
      "v": 77
    },
    {
      "midi": 71,
      "hit": false,
      "t": 75252.60416666683,
      "d": 125.00000000001455,
      "v": 102
    },
    {
      "midi": 76,
      "hit": false,
      "t": 75255.2083333335,
      "d": 125.00000000001455,
      "v": 102
    },
    {
      "midi": 80,
      "hit": false,
      "t": 75257.81250000017,
      "d": 122.39583333334303,
      "v": 102
    },
    {
      "midi": 71,
      "hit": false,
      "t": 75382.81250000019,
      "d": 122.39583333332848,
      "v": 92
    },
    {
      "midi": 76,
      "hit": false,
      "t": 75382.81250000019,
      "d": 122.39583333332848,
      "v": 92
    },
    {
      "midi": 80,
      "hit": false,
      "t": 75382.81250000019,
      "d": 125,
      "v": 92
    },
    {
      "midi": 68,
      "hit": false,
      "t": 76127.60416666686,
      "d": 125,
      "v": 77
    },
    {
      "midi": 73,
      "hit": false,
      "t": 76130.20833333353,
      "d": 125,
      "v": 77
    },
    {
      "midi": 76,
      "hit": false,
      "t": 76130.20833333353,
      "d": 125,
      "v": 77
    },
    {
      "midi": 68,
      "hit": false,
      "t": 76257.8125000002,
      "d": 119.79166666667152,
      "v": 102
    },
    {
      "midi": 73,
      "hit": false,
      "t": 76257.8125000002,
      "d": 122.39583333334303,
      "v": 102
    },
    {
      "midi": 76,
      "hit": false,
      "t": 76257.8125000002,
      "d": 122.39583333334303,
      "v": 102
    },
    {
      "midi": 68,
      "hit": false,
      "t": 76382.81250000022,
      "d": 122.39583333332848,
      "v": 77
    },
    {
      "midi": 73,
      "hit": false,
      "t": 76382.81250000022,
      "d": 125,
      "v": 77
    },
    {
      "midi": 76,
      "hit": false,
      "t": 76382.81250000022,
      "d": 125,
      "v": 77
    },
    {
      "midi": 68,
      "hit": false,
      "t": 76510.41666666689,
      "d": 119.79166666667152,
      "v": 102
    },
    {
      "midi": 73,
      "hit": false,
      "t": 76510.41666666689,
      "d": 119.79166666667152,
      "v": 102
    },
    {
      "midi": 76,
      "hit": false,
      "t": 76510.41666666689,
      "d": 119.79166666667152,
      "v": 102
    },
    {
      "midi": 68,
      "hit": false,
      "t": 76632.81250000023,
      "d": 119.79166666667152,
      "v": 87
    },
    {
      "midi": 73,
      "hit": false,
      "t": 76632.81250000023,
      "d": 122.39583333334303,
      "v": 87
    },
    {
      "midi": 76,
      "hit": false,
      "t": 76632.81250000023,
      "d": 122.39583333334303,
      "v": 87
    },
    {
      "midi": 68,
      "hit": false,
      "t": 76757.81250000025,
      "d": 119.79166666667152,
      "v": 82
    },
    {
      "midi": 73,
      "hit": false,
      "t": 76760.41666666692,
      "d": 119.79166666667152,
      "v": 82
    },
    {
      "midi": 76,
      "hit": false,
      "t": 76760.41666666692,
      "d": 119.79166666667152,
      "v": 82
    },
    {
      "midi": 68,
      "hit": false,
      "t": 76882.81250000026,
      "d": 122.39583333332848,
      "v": 77
    },
    {
      "midi": 73,
      "hit": false,
      "t": 76882.81250000026,
      "d": 125,
      "v": 77
    },
    {
      "midi": 76,
      "hit": false,
      "t": 76882.81250000026,
      "d": 125,
      "v": 77
    },
    {
      "midi": 68,
      "hit": false,
      "t": 77252.60416666693,
      "d": 125.00000000001455,
      "v": 102
    },
    {
      "midi": 73,
      "hit": false,
      "t": 77255.2083333336,
      "d": 125.00000000001455,
      "v": 102
    },
    {
      "midi": 76,
      "hit": false,
      "t": 77257.81250000028,
      "d": 122.39583333334303,
      "v": 102
    },
    {
      "midi": 68,
      "hit": false,
      "t": 77382.81250000029,
      "d": 122.39583333332848,
      "v": 92
    },
    {
      "midi": 73,
      "hit": false,
      "t": 77382.81250000029,
      "d": 125,
      "v": 92
    },
    {
      "midi": 76,
      "hit": false,
      "t": 77382.81250000029,
      "d": 125,
      "v": 92
    },
    {
      "midi": 68,
      "hit": false,
      "t": 77752.60416666696,
      "d": 127.60416666667152,
      "v": 92
    },
    {
      "midi": 73,
      "hit": false,
      "t": 77755.20833333363,
      "d": 125,
      "v": 92
    },
    {
      "midi": 76,
      "hit": false,
      "t": 77757.8125000003,
      "d": 122.39583333332848,
      "v": 92
    },
    {
      "midi": 68,
      "hit": false,
      "t": 77882.8125000003,
      "d": 122.39583333332848,
      "v": 92
    },
    {
      "midi": 73,
      "hit": false,
      "t": 77882.8125000003,
      "d": 125,
      "v": 92
    },
    {
      "midi": 76,
      "hit": false,
      "t": 77882.8125000003,
      "d": 127.60416666667152,
      "v": 92
    },
    {
      "midi": 70,
      "hit": false,
      "t": 78130.20833333365,
      "d": 122.39583333332848,
      "v": 77
    },
    {
      "midi": 73,
      "hit": false,
      "t": 78130.20833333365,
      "d": 125,
      "v": 77
    },
    {
      "midi": 78,
      "hit": false,
      "t": 78130.20833333365,
      "d": 125,
      "v": 77
    },
    {
      "midi": 70,
      "hit": false,
      "t": 78257.81250000032,
      "d": 119.79166666667152,
      "v": 102
    },
    {
      "midi": 73,
      "hit": false,
      "t": 78257.81250000032,
      "d": 122.39583333334303,
      "v": 102
    },
    {
      "midi": 78,
      "hit": false,
      "t": 78260.41666666699,
      "d": 119.79166666667152,
      "v": 102
    },
    {
      "midi": 70,
      "hit": false,
      "t": 78382.81250000033,
      "d": 122.39583333332848,
      "v": 77
    },
    {
      "midi": 73,
      "hit": false,
      "t": 78382.81250000033,
      "d": 125,
      "v": 77
    },
    {
      "midi": 78,
      "hit": false,
      "t": 78382.81250000033,
      "d": 125,
      "v": 77
    },
    {
      "midi": 70,
      "hit": false,
      "t": 78510.416666667,
      "d": 119.79166666667152,
      "v": 102
    },
    {
      "midi": 73,
      "hit": false,
      "t": 78510.416666667,
      "d": 119.79166666667152,
      "v": 102
    },
    {
      "midi": 78,
      "hit": false,
      "t": 78510.416666667,
      "d": 119.79166666667152,
      "v": 102
    },
    {
      "midi": 70,
      "hit": false,
      "t": 78632.81250000035,
      "d": 119.79166666667152,
      "v": 87
    },
    {
      "midi": 73,
      "hit": false,
      "t": 78632.81250000035,
      "d": 122.39583333334303,
      "v": 87
    },
    {
      "midi": 78,
      "hit": false,
      "t": 78635.41666666702,
      "d": 119.79166666667152,
      "v": 87
    },
    {
      "midi": 70,
      "hit": false,
      "t": 78757.81250000036,
      "d": 119.79166666667152,
      "v": 82
    },
    {
      "midi": 73,
      "hit": false,
      "t": 78757.81250000036,
      "d": 122.39583333334303,
      "v": 82
    },
    {
      "midi": 78,
      "hit": false,
      "t": 78760.41666666704,
      "d": 119.79166666667152,
      "v": 82
    },
    {
      "midi": 70,
      "hit": false,
      "t": 78882.81250000038,
      "d": 122.39583333334303,
      "v": 77
    },
    {
      "midi": 73,
      "hit": false,
      "t": 78882.81250000038,
      "d": 122.39583333334303,
      "v": 77
    },
    {
      "midi": 78,
      "hit": false,
      "t": 78885.41666666705,
      "d": 122.39583333334303,
      "v": 77
    },
    {
      "midi": 70,
      "hit": false,
      "t": 79252.60416666706,
      "d": 125.00000000001455,
      "v": 102
    },
    {
      "midi": 73,
      "hit": false,
      "t": 79255.20833333374,
      "d": 125.00000000001455,
      "v": 102
    },
    {
      "midi": 78,
      "hit": false,
      "t": 79257.81250000041,
      "d": 122.39583333334303,
      "v": 102
    },
    {
      "midi": 70,
      "hit": false,
      "t": 79382.81250000042,
      "d": 122.39583333332848,
      "v": 92
    },
    {
      "midi": 73,
      "hit": false,
      "t": 79382.81250000042,
      "d": 122.39583333332848,
      "v": 92
    },
    {
      "midi": 78,
      "hit": false,
      "t": 79382.81250000042,
      "d": 125,
      "v": 92
    },
    {
      "midi": 70,
      "hit": false,
      "t": 80130.20833333375,
      "d": 125,
      "v": 77
    },
    {
      "midi": 75,
      "hit": false,
      "t": 80130.20833333375,
      "d": 125,
      "v": 77
    },
    {
      "midi": 79,
      "hit": false,
      "t": 80130.20833333375,
      "d": 125,
      "v": 77
    },
    {
      "midi": 70,
      "hit": false,
      "t": 80257.81250000042,
      "d": 119.79166666667152,
      "v": 102
    },
    {
      "midi": 75,
      "hit": false,
      "t": 80257.81250000042,
      "d": 122.39583333334303,
      "v": 102
    },
    {
      "midi": 79,
      "hit": false,
      "t": 80260.4166666671,
      "d": 119.79166666667152,
      "v": 102
    },
    {
      "midi": 70,
      "hit": false,
      "t": 80382.81250000044,
      "d": 122.39583333332848,
      "v": 77
    },
    {
      "midi": 75,
      "hit": false,
      "t": 80382.81250000044,
      "d": 125,
      "v": 77
    },
    {
      "midi": 79,
      "hit": false,
      "t": 80382.81250000044,
      "d": 125,
      "v": 77
    },
    {
      "midi": 70,
      "hit": false,
      "t": 80510.41666666711,
      "d": 119.79166666667152,
      "v": 102
    },
    {
      "midi": 75,
      "hit": false,
      "t": 80510.41666666711,
      "d": 119.79166666667152,
      "v": 102
    },
    {
      "midi": 79,
      "hit": false,
      "t": 80510.41666666711,
      "d": 119.79166666667152,
      "v": 102
    },
    {
      "midi": 70,
      "hit": false,
      "t": 80632.81250000045,
      "d": 119.79166666667152,
      "v": 87
    },
    {
      "midi": 75,
      "hit": false,
      "t": 80632.81250000045,
      "d": 122.39583333334303,
      "v": 87
    },
    {
      "midi": 79,
      "hit": false,
      "t": 80635.41666666712,
      "d": 119.79166666667152,
      "v": 87
    },
    {
      "midi": 70,
      "hit": false,
      "t": 80757.81250000047,
      "d": 119.79166666667152,
      "v": 82
    },
    {
      "midi": 75,
      "hit": false,
      "t": 80760.41666666714,
      "d": 119.79166666667152,
      "v": 82
    },
    {
      "midi": 79,
      "hit": false,
      "t": 80760.41666666714,
      "d": 119.79166666667152,
      "v": 82
    },
    {
      "midi": 70,
      "hit": false,
      "t": 80882.81250000048,
      "d": 122.39583333332848,
      "v": 77
    },
    {
      "midi": 75,
      "hit": false,
      "t": 80882.81250000048,
      "d": 125,
      "v": 77
    },
    {
      "midi": 79,
      "hit": false,
      "t": 80882.81250000048,
      "d": 127.60416666667152,
      "v": 77
    },
    {
      "midi": 70,
      "hit": false,
      "t": 81255.20833333382,
      "d": 122.39583333334303,
      "v": 102
    },
    {
      "midi": 75,
      "hit": false,
      "t": 81255.20833333382,
      "d": 125.00000000001455,
      "v": 102
    },
    {
      "midi": 79,
      "hit": false,
      "t": 81257.8125000005,
      "d": 122.39583333334303,
      "v": 102
    },
    {
      "midi": 70,
      "hit": false,
      "t": 81380.20833333384,
      "d": 125,
      "v": 92
    },
    {
      "midi": 75,
      "hit": false,
      "t": 81382.81250000051,
      "d": 122.39583333332848,
      "v": 92
    },
    {
      "midi": 79,
      "hit": false,
      "t": 81382.81250000051,
      "d": 125,
      "v": 92
    },
    {
      "midi": 71,
      "hit": false,
      "t": 82130.20833333384,
      "d": 122.39583333332848,
      "v": 77
    },
    {
      "midi": 76,
      "hit": false,
      "t": 82130.20833333384,
      "d": 125,
      "v": 77
    },
    {
      "midi": 80,
      "hit": false,
      "t": 82130.20833333384,
      "d": 125,
      "v": 77
    },
    {
      "midi": 71,
      "hit": false,
      "t": 82257.81250000051,
      "d": 119.79166666667152,
      "v": 102
    },
    {
      "midi": 76,
      "hit": false,
      "t": 82257.81250000051,
      "d": 122.39583333334303,
      "v": 102
    },
    {
      "midi": 80,
      "hit": false,
      "t": 82260.41666666718,
      "d": 119.79166666667152,
      "v": 102
    },
    {
      "midi": 71,
      "hit": false,
      "t": 82382.81250000052,
      "d": 122.39583333334303,
      "v": 77
    },
    {
      "midi": 76,
      "hit": false,
      "t": 82382.81250000052,
      "d": 125.00000000001455,
      "v": 77
    },
    {
      "midi": 80,
      "hit": false,
      "t": 82385.4166666672,
      "d": 122.39583333334303,
      "v": 77
    },
    {
      "midi": 71,
      "hit": false,
      "t": 82510.41666666721,
      "d": 119.79166666667152,
      "v": 102
    },
    {
      "midi": 76,
      "hit": false,
      "t": 82510.41666666721,
      "d": 119.79166666667152,
      "v": 102
    },
    {
      "midi": 80,
      "hit": false,
      "t": 82510.41666666721,
      "d": 119.79166666667152,
      "v": 102
    },
    {
      "midi": 71,
      "hit": false,
      "t": 82632.81250000055,
      "d": 119.79166666667152,
      "v": 87
    },
    {
      "midi": 76,
      "hit": false,
      "t": 82632.81250000055,
      "d": 122.39583333334303,
      "v": 87
    },
    {
      "midi": 80,
      "hit": false,
      "t": 82635.41666666722,
      "d": 119.79166666667152,
      "v": 87
    },
    {
      "midi": 71,
      "hit": false,
      "t": 82757.81250000057,
      "d": 119.79166666667152,
      "v": 82
    },
    {
      "midi": 76,
      "hit": false,
      "t": 82757.81250000057,
      "d": 122.39583333334303,
      "v": 82
    },
    {
      "midi": 80,
      "hit": false,
      "t": 82760.41666666724,
      "d": 119.79166666667152,
      "v": 82
    },
    {
      "midi": 71,
      "hit": false,
      "t": 82882.81250000058,
      "d": 122.39583333332848,
      "v": 77
    },
    {
      "midi": 76,
      "hit": false,
      "t": 82882.81250000058,
      "d": 125,
      "v": 77
    },
    {
      "midi": 80,
      "hit": false,
      "t": 82882.81250000058,
      "d": 125,
      "v": 77
    },
    {
      "midi": 71,
      "hit": false,
      "t": 83252.60416666725,
      "d": 125.00000000001455,
      "v": 102
    },
    {
      "midi": 76,
      "hit": false,
      "t": 83255.20833333393,
      "d": 125.00000000001455,
      "v": 102
    },
    {
      "midi": 80,
      "hit": false,
      "t": 83257.8125000006,
      "d": 122.39583333334303,
      "v": 102
    },
    {
      "midi": 71,
      "hit": false,
      "t": 83380.20833333394,
      "d": 125,
      "v": 92
    },
    {
      "midi": 76,
      "hit": false,
      "t": 83382.81250000061,
      "d": 122.39583333332848,
      "v": 92
    },
    {
      "midi": 80,
      "hit": false,
      "t": 83382.81250000061,
      "d": 125,
      "v": 92
    },
    {
      "midi": 68,
      "hit": false,
      "t": 84130.20833333394,
      "d": 122.39583333332848,
      "v": 77
    },
    {
      "midi": 73,
      "hit": false,
      "t": 84130.20833333394,
      "d": 125,
      "v": 77
    },
    {
      "midi": 76,
      "hit": false,
      "t": 84130.20833333394,
      "d": 125,
      "v": 77
    },
    {
      "midi": 68,
      "hit": false,
      "t": 84257.81250000061,
      "d": 119.79166666667152,
      "v": 102
    },
    {
      "midi": 73,
      "hit": false,
      "t": 84257.81250000061,
      "d": 122.39583333334303,
      "v": 102
    },
    {
      "midi": 76,
      "hit": false,
      "t": 84260.41666666728,
      "d": 119.79166666667152,
      "v": 102
    },
    {
      "midi": 68,
      "hit": false,
      "t": 84382.81250000063,
      "d": 122.39583333334303,
      "v": 77
    },
    {
      "midi": 73,
      "hit": false,
      "t": 84382.81250000063,
      "d": 125.00000000001455,
      "v": 77
    },
    {
      "midi": 76,
      "hit": false,
      "t": 84385.4166666673,
      "d": 122.39583333334303,
      "v": 77
    },
    {
      "midi": 68,
      "hit": false,
      "t": 84510.41666666731,
      "d": 117.1875,
      "v": 102
    },
    {
      "midi": 73,
      "hit": false,
      "t": 84510.41666666731,
      "d": 119.79166666667152,
      "v": 102
    },
    {
      "midi": 76,
      "hit": false,
      "t": 84513.02083333398,
      "d": 117.1875,
      "v": 102
    },
    {
      "midi": 68,
      "hit": false,
      "t": 84632.81250000065,
      "d": 119.79166666667152,
      "v": 87
    },
    {
      "midi": 73,
      "hit": false,
      "t": 84632.81250000065,
      "d": 122.39583333334303,
      "v": 87
    },
    {
      "midi": 76,
      "hit": false,
      "t": 84635.41666666733,
      "d": 119.79166666667152,
      "v": 87
    },
    {
      "midi": 68,
      "hit": false,
      "t": 84757.81250000067,
      "d": 119.79166666667152,
      "v": 82
    },
    {
      "midi": 73,
      "hit": false,
      "t": 84757.81250000067,
      "d": 122.39583333334303,
      "v": 82
    },
    {
      "midi": 76,
      "hit": false,
      "t": 84760.41666666734,
      "d": 119.79166666667152,
      "v": 82
    },
    {
      "midi": 68,
      "hit": false,
      "t": 84882.81250000068,
      "d": 122.39583333332848,
      "v": 77
    },
    {
      "midi": 73,
      "hit": false,
      "t": 84882.81250000068,
      "d": 122.39583333332848,
      "v": 77
    },
    {
      "midi": 76,
      "hit": false,
      "t": 84882.81250000068,
      "d": 125,
      "v": 77
    },
    {
      "midi": 68,
      "hit": false,
      "t": 85252.60416666736,
      "d": 125.00000000001455,
      "v": 102
    },
    {
      "midi": 73,
      "hit": false,
      "t": 85255.20833333403,
      "d": 125.00000000001455,
      "v": 102
    },
    {
      "midi": 76,
      "hit": false,
      "t": 85257.8125000007,
      "d": 122.39583333334303,
      "v": 102
    },
    {
      "midi": 68,
      "hit": false,
      "t": 85382.81250000071,
      "d": 122.39583333332848,
      "v": 92
    },
    {
      "midi": 73,
      "hit": false,
      "t": 85382.81250000071,
      "d": 125,
      "v": 92
    },
    {
      "midi": 76,
      "hit": false,
      "t": 85382.81250000071,
      "d": 125,
      "v": 92
    },
    {
      "midi": 68,
      "hit": false,
      "t": 85752.60416666738,
      "d": 125.00000000001455,
      "v": 92
    },
    {
      "midi": 73,
      "hit": false,
      "t": 85755.20833333406,
      "d": 125.00000000001455,
      "v": 92
    },
    {
      "midi": 76,
      "hit": false,
      "t": 85757.81250000073,
      "d": 122.39583333334303,
      "v": 92
    },
    {
      "midi": 68,
      "hit": false,
      "t": 85882.81250000074,
      "d": 125,
      "v": 92
    },
    {
      "midi": 73,
      "hit": false,
      "t": 85882.81250000074,
      "d": 125,
      "v": 92
    },
    {
      "midi": 76,
      "hit": false,
      "t": 85882.81250000074,
      "d": 127.60416666667152,
      "v": 92
    },
    {
      "midi": 70,
      "hit": false,
      "t": 86130.20833333409,
      "d": 125,
      "v": 77
    },
    {
      "midi": 73,
      "hit": false,
      "t": 86130.20833333409,
      "d": 125,
      "v": 77
    },
    {
      "midi": 78,
      "hit": false,
      "t": 86130.20833333409,
      "d": 125,
      "v": 77
    },
    {
      "midi": 70,
      "hit": false,
      "t": 86260.41666666741,
      "d": 117.1875,
      "v": 102
    },
    {
      "midi": 73,
      "hit": false,
      "t": 86260.41666666741,
      "d": 119.79166666667152,
      "v": 102
    },
    {
      "midi": 78,
      "hit": false,
      "t": 86260.41666666741,
      "d": 119.79166666667152,
      "v": 102
    },
    {
      "midi": 70,
      "hit": false,
      "t": 86382.81250000076,
      "d": 122.39583333334303,
      "v": 77
    },
    {
      "midi": 73,
      "hit": false,
      "t": 86382.81250000076,
      "d": 122.39583333334303,
      "v": 77
    },
    {
      "midi": 78,
      "hit": false,
      "t": 86385.41666666743,
      "d": 122.39583333334303,
      "v": 77
    },
    {
      "midi": 70,
      "hit": false,
      "t": 86510.41666666744,
      "d": 117.1875,
      "v": 102
    },
    {
      "midi": 73,
      "hit": false,
      "t": 86510.41666666744,
      "d": 119.79166666667152,
      "v": 102
    },
    {
      "midi": 78,
      "hit": false,
      "t": 86510.41666666744,
      "d": 119.79166666667152,
      "v": 102
    },
    {
      "midi": 70,
      "hit": false,
      "t": 86632.81250000079,
      "d": 119.79166666667152,
      "v": 87
    },
    {
      "midi": 73,
      "hit": false,
      "t": 86632.81250000079,
      "d": 122.39583333334303,
      "v": 87
    },
    {
      "midi": 78,
      "hit": false,
      "t": 86635.41666666746,
      "d": 119.79166666667152,
      "v": 87
    },
    {
      "midi": 70,
      "hit": false,
      "t": 86757.8125000008,
      "d": 119.79166666667152,
      "v": 82
    },
    {
      "midi": 73,
      "hit": false,
      "t": 86757.8125000008,
      "d": 122.39583333334303,
      "v": 82
    },
    {
      "midi": 78,
      "hit": false,
      "t": 86760.41666666747,
      "d": 119.79166666667152,
      "v": 82
    },
    {
      "midi": 70,
      "hit": false,
      "t": 86880.20833333414,
      "d": 125,
      "v": 77
    },
    {
      "midi": 73,
      "hit": false,
      "t": 86882.81250000081,
      "d": 125,
      "v": 77
    },
    {
      "midi": 78,
      "hit": false,
      "t": 86882.81250000081,
      "d": 127.60416666667152,
      "v": 77
    },
    {
      "midi": 70,
      "hit": false,
      "t": 87255.20833333416,
      "d": 122.39583333334303,
      "v": 102
    },
    {
      "midi": 73,
      "hit": false,
      "t": 87255.20833333416,
      "d": 125.00000000001455,
      "v": 102
    },
    {
      "midi": 78,
      "hit": false,
      "t": 87257.81250000083,
      "d": 122.39583333334303,
      "v": 102
    },
    {
      "midi": 70,
      "hit": false,
      "t": 87382.81250000084,
      "d": 122.39583333332848,
      "v": 92
    },
    {
      "midi": 73,
      "hit": false,
      "t": 87382.81250000084,
      "d": 122.39583333332848,
      "v": 92
    },
    {
      "midi": 78,
      "hit": false,
      "t": 87382.81250000084,
      "d": 125,
      "v": 92
    },
    {
      "midi": 70,
      "hit": false,
      "t": 88130.20833333417,
      "d": 122.39583333332848,
      "v": 77
    },
    {
      "midi": 75,
      "hit": false,
      "t": 88130.20833333417,
      "d": 125,
      "v": 77
    },
    {
      "midi": 78,
      "hit": false,
      "t": 88130.20833333417,
      "d": 125,
      "v": 77
    },
    {
      "midi": 70,
      "hit": false,
      "t": 88257.81250000084,
      "d": 119.79166666667152,
      "v": 102
    },
    {
      "midi": 75,
      "hit": false,
      "t": 88257.81250000084,
      "d": 122.39583333334303,
      "v": 102
    },
    {
      "midi": 78,
      "hit": false,
      "t": 88260.41666666752,
      "d": 119.79166666667152,
      "v": 102
    },
    {
      "midi": 70,
      "hit": false,
      "t": 88382.81250000086,
      "d": 122.39583333332848,
      "v": 77
    },
    {
      "midi": 75,
      "hit": false,
      "t": 88382.81250000086,
      "d": 125,
      "v": 77
    },
    {
      "midi": 78,
      "hit": false,
      "t": 88382.81250000086,
      "d": 125,
      "v": 77
    },
    {
      "midi": 70,
      "hit": false,
      "t": 88510.41666666753,
      "d": 117.1875,
      "v": 102
    },
    {
      "midi": 75,
      "hit": false,
      "t": 88510.41666666753,
      "d": 119.79166666667152,
      "v": 102
    },
    {
      "midi": 78,
      "hit": false,
      "t": 88513.0208333342,
      "d": 117.1875,
      "v": 102
    },
    {
      "midi": 70,
      "hit": false,
      "t": 88632.81250000087,
      "d": 122.39583333334303,
      "v": 87
    },
    {
      "midi": 75,
      "hit": false,
      "t": 88632.81250000087,
      "d": 122.39583333334303,
      "v": 87
    },
    {
      "midi": 78,
      "hit": false,
      "t": 88635.41666666754,
      "d": 119.79166666667152,
      "v": 87
    },
    {
      "midi": 70,
      "hit": false,
      "t": 88757.81250000089,
      "d": 119.79166666667152,
      "v": 82
    },
    {
      "midi": 75,
      "hit": false,
      "t": 88757.81250000089,
      "d": 122.39583333334303,
      "v": 82
    },
    {
      "midi": 78,
      "hit": false,
      "t": 88760.41666666756,
      "d": 119.79166666667152,
      "v": 82
    },
    {
      "midi": 70,
      "hit": false,
      "t": 88880.20833333423,
      "d": 125,
      "v": 77
    },
    {
      "midi": 75,
      "hit": false,
      "t": 88882.8125000009,
      "d": 125,
      "v": 77
    },
    {
      "midi": 78,
      "hit": false,
      "t": 88882.8125000009,
      "d": 127.60416666667152,
      "v": 77
    },
    {
      "midi": 70,
      "hit": false,
      "t": 89252.60416666757,
      "d": 125,
      "v": 102
    },
    {
      "midi": 75,
      "hit": false,
      "t": 89255.20833333425,
      "d": 125,
      "v": 102
    },
    {
      "midi": 78,
      "hit": false,
      "t": 89255.20833333425,
      "d": 125,
      "v": 102
    },
    {
      "midi": 70,
      "hit": false,
      "t": 89382.81250000092,
      "d": 122.39583333332848,
      "v": 92
    },
    {
      "midi": 75,
      "hit": false,
      "t": 89382.81250000092,
      "d": 125,
      "v": 92
    },
    {
      "midi": 78,
      "hit": false,
      "t": 89382.81250000092,
      "d": 127.60416666667152,
      "v": 92
    },
    {
      "midi": 71,
      "hit": false,
      "t": 90130.20833333426,
      "d": 122.39583333332848,
      "v": 77
    },
    {
      "midi": 76,
      "hit": false,
      "t": 90130.20833333426,
      "d": 125,
      "v": 77
    },
    {
      "midi": 80,
      "hit": false,
      "t": 90130.20833333426,
      "d": 125,
      "v": 77
    },
    {
      "midi": 71,
      "hit": false,
      "t": 90260.41666666759,
      "d": 117.1875,
      "v": 102
    },
    {
      "midi": 76,
      "hit": false,
      "t": 90260.41666666759,
      "d": 119.79166666667152,
      "v": 102
    },
    {
      "midi": 80,
      "hit": false,
      "t": 90260.41666666759,
      "d": 119.79166666667152,
      "v": 102
    },
    {
      "midi": 71,
      "hit": false,
      "t": 90382.81250000093,
      "d": 122.39583333332848,
      "v": 77
    },
    {
      "midi": 76,
      "hit": false,
      "t": 90382.81250000093,
      "d": 125,
      "v": 77
    },
    {
      "midi": 80,
      "hit": false,
      "t": 90382.81250000093,
      "d": 125,
      "v": 77
    },
    {
      "midi": 71,
      "hit": false,
      "t": 90510.4166666676,
      "d": 117.1875,
      "v": 102
    },
    {
      "midi": 76,
      "hit": false,
      "t": 90510.4166666676,
      "d": 119.79166666667152,
      "v": 102
    },
    {
      "midi": 80,
      "hit": false,
      "t": 90513.02083333427,
      "d": 117.1875,
      "v": 102
    },
    {
      "midi": 71,
      "hit": false,
      "t": 90632.81250000095,
      "d": 122.39583333334303,
      "v": 87
    },
    {
      "midi": 76,
      "hit": false,
      "t": 90632.81250000095,
      "d": 122.39583333334303,
      "v": 87
    },
    {
      "midi": 80,
      "hit": false,
      "t": 90635.41666666762,
      "d": 119.79166666667152,
      "v": 87
    },
    {
      "midi": 71,
      "hit": false,
      "t": 90757.81250000096,
      "d": 122.39583333334303,
      "v": 82
    },
    {
      "midi": 76,
      "hit": false,
      "t": 90757.81250000096,
      "d": 122.39583333334303,
      "v": 82
    },
    {
      "midi": 80,
      "hit": false,
      "t": 90760.41666666763,
      "d": 119.79166666667152,
      "v": 82
    },
    {
      "midi": 71,
      "hit": false,
      "t": 90882.81250000097,
      "d": 122.39583333332848,
      "v": 77
    },
    {
      "midi": 76,
      "hit": false,
      "t": 90882.81250000097,
      "d": 122.39583333332848,
      "v": 77
    },
    {
      "midi": 80,
      "hit": false,
      "t": 90882.81250000097,
      "d": 125,
      "v": 77
    },
    {
      "midi": 71,
      "hit": false,
      "t": 91255.2083333343,
      "d": 122.39583333334303,
      "v": 102
    },
    {
      "midi": 76,
      "hit": false,
      "t": 91255.2083333343,
      "d": 125.00000000001455,
      "v": 102
    },
    {
      "midi": 80,
      "hit": false,
      "t": 91257.81250000097,
      "d": 122.39583333334303,
      "v": 102
    },
    {
      "midi": 71,
      "hit": false,
      "t": 91382.81250000099,
      "d": 122.39583333332848,
      "v": 92
    },
    {
      "midi": 76,
      "hit": false,
      "t": 91382.81250000099,
      "d": 125,
      "v": 92
    },
    {
      "midi": 80,
      "hit": false,
      "t": 91382.81250000099,
      "d": 125,
      "v": 92
    },
    {
      "midi": 68,
      "hit": false,
      "t": 92127.60416666766,
      "d": 125,
      "v": 77
    },
    {
      "midi": 73,
      "hit": false,
      "t": 92130.20833333433,
      "d": 125,
      "v": 77
    },
    {
      "midi": 76,
      "hit": false,
      "t": 92130.20833333433,
      "d": 125,
      "v": 77
    },
    {
      "midi": 68,
      "hit": false,
      "t": 92257.812500001,
      "d": 119.79166666667152,
      "v": 102
    },
    {
      "midi": 73,
      "hit": false,
      "t": 92257.812500001,
      "d": 122.39583333334303,
      "v": 102
    },
    {
      "midi": 76,
      "hit": false,
      "t": 92260.41666666768,
      "d": 119.79166666667152,
      "v": 102
    },
    {
      "midi": 68,
      "hit": false,
      "t": 92382.81250000102,
      "d": 122.39583333332848,
      "v": 77
    },
    {
      "midi": 73,
      "hit": false,
      "t": 92382.81250000102,
      "d": 122.39583333332848,
      "v": 77
    },
    {
      "midi": 76,
      "hit": false,
      "t": 92382.81250000102,
      "d": 125,
      "v": 77
    },
    {
      "midi": 68,
      "hit": false,
      "t": 92510.41666666769,
      "d": 117.1875,
      "v": 102
    },
    {
      "midi": 73,
      "hit": false,
      "t": 92510.41666666769,
      "d": 119.79166666667152,
      "v": 102
    },
    {
      "midi": 76,
      "hit": false,
      "t": 92510.41666666769,
      "d": 119.79166666667152,
      "v": 102
    },
    {
      "midi": 68,
      "hit": false,
      "t": 92632.81250000103,
      "d": 122.39583333334303,
      "v": 87
    },
    {
      "midi": 73,
      "hit": false,
      "t": 92632.81250000103,
      "d": 122.39583333334303,
      "v": 87
    },
    {
      "midi": 76,
      "hit": false,
      "t": 92635.4166666677,
      "d": 122.39583333334303,
      "v": 87
    },
    {
      "midi": 68,
      "hit": false,
      "t": 92757.81250000105,
      "d": 122.39583333334303,
      "v": 82
    },
    {
      "midi": 73,
      "hit": false,
      "t": 92757.81250000105,
      "d": 122.39583333334303,
      "v": 82
    },
    {
      "midi": 76,
      "hit": false,
      "t": 92760.41666666772,
      "d": 119.79166666667152,
      "v": 82
    },
    {
      "midi": 68,
      "hit": false,
      "t": 92882.81250000106,
      "d": 122.39583333332848,
      "v": 77
    },
    {
      "midi": 73,
      "hit": false,
      "t": 92882.81250000106,
      "d": 125,
      "v": 77
    },
    {
      "midi": 76,
      "hit": false,
      "t": 92882.81250000106,
      "d": 125,
      "v": 77
    },
    {
      "midi": 68,
      "hit": false,
      "t": 93255.20833333439,
      "d": 122.39583333334303,
      "v": 102
    },
    {
      "midi": 73,
      "hit": false,
      "t": 93255.20833333439,
      "d": 125.00000000001455,
      "v": 102
    },
    {
      "midi": 76,
      "hit": false,
      "t": 93257.81250000106,
      "d": 122.39583333334303,
      "v": 102
    },
    {
      "midi": 68,
      "hit": false,
      "t": 93382.81250000108,
      "d": 122.39583333332848,
      "v": 92
    },
    {
      "midi": 73,
      "hit": false,
      "t": 93382.81250000108,
      "d": 125,
      "v": 92
    },
    {
      "midi": 76,
      "hit": false,
      "t": 93382.81250000108,
      "d": 125,
      "v": 92
    },
    {
      "midi": 68,
      "hit": false,
      "t": 93752.60416666775,
      "d": 125.00000000001455,
      "v": 92
    },
    {
      "midi": 73,
      "hit": false,
      "t": 93755.20833333442,
      "d": 125.00000000001455,
      "v": 92
    },
    {
      "midi": 76,
      "hit": false,
      "t": 93757.81250000109,
      "d": 122.39583333334303,
      "v": 92
    },
    {
      "midi": 68,
      "hit": false,
      "t": 93882.8125000011,
      "d": 122.39583333332848,
      "v": 92
    },
    {
      "midi": 73,
      "hit": false,
      "t": 93882.8125000011,
      "d": 125,
      "v": 92
    },
    {
      "midi": 76,
      "hit": false,
      "t": 93882.8125000011,
      "d": 127.60416666667152,
      "v": 92
    },
    {
      "midi": 70,
      "hit": false,
      "t": 94127.60416666778,
      "d": 125,
      "v": 77
    },
    {
      "midi": 73,
      "hit": false,
      "t": 94130.20833333445,
      "d": 125,
      "v": 77
    },
    {
      "midi": 78,
      "hit": false,
      "t": 94130.20833333445,
      "d": 125,
      "v": 77
    },
    {
      "midi": 70,
      "hit": false,
      "t": 94257.81250000112,
      "d": 119.79166666667152,
      "v": 102
    },
    {
      "midi": 73,
      "hit": false,
      "t": 94257.81250000112,
      "d": 122.39583333334303,
      "v": 102
    },
    {
      "midi": 78,
      "hit": false,
      "t": 94260.41666666779,
      "d": 119.79166666667152,
      "v": 102
    },
    {
      "midi": 70,
      "hit": false,
      "t": 94380.20833333446,
      "d": 125,
      "v": 77
    },
    {
      "midi": 73,
      "hit": false,
      "t": 94382.81250000114,
      "d": 122.39583333332848,
      "v": 77
    },
    {
      "midi": 78,
      "hit": false,
      "t": 94382.81250000114,
      "d": 125,
      "v": 77
    },
    {
      "midi": 70,
      "hit": false,
      "t": 94510.4166666678,
      "d": 117.1875,
      "v": 102
    },
    {
      "midi": 73,
      "hit": false,
      "t": 94510.4166666678,
      "d": 119.79166666667152,
      "v": 102
    },
    {
      "midi": 78,
      "hit": false,
      "t": 94510.4166666678,
      "d": 119.79166666667152,
      "v": 102
    },
    {
      "midi": 70,
      "hit": false,
      "t": 94632.81250000115,
      "d": 119.79166666667152,
      "v": 87
    },
    {
      "midi": 73,
      "hit": false,
      "t": 94632.81250000115,
      "d": 122.39583333334303,
      "v": 87
    },
    {
      "midi": 78,
      "hit": false,
      "t": 94635.41666666782,
      "d": 119.79166666667152,
      "v": 87
    },
    {
      "midi": 70,
      "hit": false,
      "t": 94757.81250000116,
      "d": 119.79166666667152,
      "v": 82
    },
    {
      "midi": 73,
      "hit": false,
      "t": 94757.81250000116,
      "d": 122.39583333334303,
      "v": 82
    },
    {
      "midi": 78,
      "hit": false,
      "t": 94760.41666666784,
      "d": 119.79166666667152,
      "v": 82
    },
    {
      "midi": 70,
      "hit": false,
      "t": 94882.81250000118,
      "d": 122.39583333332848,
      "v": 77
    },
    {
      "midi": 73,
      "hit": false,
      "t": 94882.81250000118,
      "d": 125,
      "v": 77
    },
    {
      "midi": 78,
      "hit": false,
      "t": 94882.81250000118,
      "d": 125,
      "v": 77
    },
    {
      "midi": 70,
      "hit": false,
      "t": 95252.60416666785,
      "d": 125.00000000001455,
      "v": 102
    },
    {
      "midi": 73,
      "hit": false,
      "t": 95255.20833333452,
      "d": 125.00000000001455,
      "v": 102
    },
    {
      "midi": 78,
      "hit": false,
      "t": 95257.8125000012,
      "d": 122.39583333334303,
      "v": 102
    },
    {
      "midi": 70,
      "hit": false,
      "t": 95382.81250000121,
      "d": 122.39583333334303,
      "v": 92
    },
    {
      "midi": 73,
      "hit": false,
      "t": 95382.81250000121,
      "d": 125.00000000001455,
      "v": 92
    },
    {
      "midi": 78,
      "hit": false,
      "t": 95385.41666666788,
      "d": 122.39583333334303,
      "v": 92
    },
    {
      "midi": 70,
      "hit": false,
      "t": 96127.6041666679,
      "d": 125,
      "v": 77
    },
    {
      "midi": 75,
      "hit": false,
      "t": 96130.20833333457,
      "d": 125,
      "v": 77
    },
    {
      "midi": 79,
      "hit": false,
      "t": 96130.20833333457,
      "d": 125,
      "v": 77
    },
    {
      "midi": 70,
      "hit": false,
      "t": 96257.81250000124,
      "d": 122.39583333332848,
      "v": 102
    },
    {
      "midi": 75,
      "hit": false,
      "t": 96257.81250000124,
      "d": 122.39583333332848,
      "v": 102
    },
    {
      "midi": 79,
      "hit": false,
      "t": 96257.81250000124,
      "d": 122.39583333332848,
      "v": 102
    },
    {
      "midi": 70,
      "hit": false,
      "t": 96382.81250000124,
      "d": 122.39583333332848,
      "v": 77
    },
    {
      "midi": 75,
      "hit": false,
      "t": 96382.81250000124,
      "d": 122.39583333332848,
      "v": 77
    },
    {
      "midi": 79,
      "hit": false,
      "t": 96382.81250000124,
      "d": 125,
      "v": 77
    },
    {
      "midi": 70,
      "hit": false,
      "t": 96510.41666666791,
      "d": 117.1875,
      "v": 102
    },
    {
      "midi": 75,
      "hit": false,
      "t": 96510.41666666791,
      "d": 119.79166666667152,
      "v": 102
    },
    {
      "midi": 79,
      "hit": false,
      "t": 96510.41666666791,
      "d": 119.79166666667152,
      "v": 102
    },
    {
      "midi": 70,
      "hit": false,
      "t": 96632.81250000125,
      "d": 122.39583333332848,
      "v": 87
    },
    {
      "midi": 75,
      "hit": false,
      "t": 96632.81250000125,
      "d": 122.39583333332848,
      "v": 87
    },
    {
      "midi": 79,
      "hit": false,
      "t": 96632.81250000125,
      "d": 122.39583333332848,
      "v": 87
    },
    {
      "midi": 70,
      "hit": false,
      "t": 96757.81250000125,
      "d": 119.79166666667152,
      "v": 82
    },
    {
      "midi": 75,
      "hit": false,
      "t": 96757.81250000125,
      "d": 122.39583333334303,
      "v": 82
    },
    {
      "midi": 79,
      "hit": false,
      "t": 96760.41666666792,
      "d": 119.79166666667152,
      "v": 82
    },
    {
      "midi": 70,
      "hit": false,
      "t": 96882.81250000127,
      "d": 122.39583333332848,
      "v": 77
    },
    {
      "midi": 75,
      "hit": false,
      "t": 96882.81250000127,
      "d": 125,
      "v": 77
    },
    {
      "midi": 79,
      "hit": false,
      "t": 96882.81250000127,
      "d": 125,
      "v": 77
    },
    {
      "midi": 70,
      "hit": false,
      "t": 97252.60416666794,
      "d": 125.00000000001455,
      "v": 102
    },
    {
      "midi": 75,
      "hit": false,
      "t": 97255.20833333461,
      "d": 125.00000000001455,
      "v": 102
    },
    {
      "midi": 79,
      "hit": false,
      "t": 97257.81250000128,
      "d": 122.39583333334303,
      "v": 102
    },
    {
      "midi": 70,
      "hit": false,
      "t": 97382.8125000013,
      "d": 122.39583333334303,
      "v": 92
    },
    {
      "midi": 75,
      "hit": false,
      "t": 97382.8125000013,
      "d": 125.00000000001455,
      "v": 92
    },
    {
      "midi": 79,
      "hit": false,
      "t": 97385.41666666797,
      "d": 122.39583333334303,
      "v": 92
    },
    {
      "midi": 80,
      "hit": false,
      "t": 98013.02083333333,
      "d": 117.1875,
      "v": 100
    },
    {
      "midi": 92,
      "hit": false,
      "t": 98013.02083333333,
      "d": 119.79166666667152,
      "v": 100
    },
    {
      "midi": 75,
      "hit": false,
      "t": 98252.60416666798,
      "d": 127.60416666667152,
      "v": 87
    },
    {
      "midi": 80,
      "hit": false,
      "t": 98255.20833333465,
      "d": 125,
      "v": 87
    },
    {
      "midi": 71,
      "hit": false,
      "t": 98257.81250000132,
      "d": 59.89583333332848,
      "v": 98
    },
    {
      "midi": 83,
      "hit": false,
      "t": 98257.81250000132,
      "d": 125,
      "v": 87
    },
    {
      "midi": 78,
      "hit": false,
      "t": 98263.02083333333,
      "d": 122.39583333332848,
      "v": 100
    },
    {
      "midi": 90,
      "hit": false,
      "t": 98263.02083333333,
      "d": 122.39583333332848,
      "v": 100
    },
    {
      "midi": 71,
      "hit": false,
      "t": 98382.81250000132,
      "d": 57.29166666667152,
      "v": 90
    },
    {
      "midi": 80,
      "hit": false,
      "t": 98507.81249999999,
      "d": 125,
      "v": 100
    },
    {
      "midi": 71,
      "hit": false,
      "t": 98507.81250000132,
      "d": 57.29166666667152,
      "v": 98
    },
    {
      "midi": 92,
      "hit": false,
      "t": 98510.41666666666,
      "d": 122.39583333332848,
      "v": 100
    },
    {
      "midi": 71,
      "hit": false,
      "t": 98630.20833333467,
      "d": 62.5,
      "v": 90
    },
    {
      "midi": 75,
      "hit": false,
      "t": 98755.20833333467,
      "d": 122.39583333332848,
      "v": 87
    },
    {
      "midi": 80,
      "hit": false,
      "t": 98755.20833333467,
      "d": 125,
      "v": 87
    },
    {
      "midi": 75,
      "hit": false,
      "t": 98757.81249999999,
      "d": 125,
      "v": 100
    },
    {
      "midi": 87,
      "hit": false,
      "t": 98757.81249999999,
      "d": 125,
      "v": 100
    },
    {
      "midi": 71,
      "hit": false,
      "t": 98760.416666668,
      "d": 54.6875,
      "v": 95
    },
    {
      "midi": 83,
      "hit": false,
      "t": 98760.416666668,
      "d": 125,
      "v": 87
    },
    {
      "midi": 71,
      "hit": false,
      "t": 98885.416666668,
      "d": 57.29166666667152,
      "v": 90
    },
    {
      "midi": 78,
      "hit": false,
      "t": 99007.81249999999,
      "d": 125,
      "v": 100
    },
    {
      "midi": 90,
      "hit": false,
      "t": 99010.41666666666,
      "d": 122.39583333332848,
      "v": 100
    },
    {
      "midi": 75,
      "hit": false,
      "t": 99252.604166668,
      "d": 125.00000000001455,
      "v": 87
    },
    {
      "midi": 80,
      "hit": false,
      "t": 99255.20833333467,
      "d": 125.00000000001455,
      "v": 87
    },
    {
      "midi": 70,
      "hit": false,
      "t": 99257.81250000134,
      "d": 57.29166666667152,
      "v": 98
    },
    {
      "midi": 82,
      "hit": false,
      "t": 99257.81250000134,
      "d": 127.60416666667152,
      "v": 87
    },
    {
      "midi": 80,
      "hit": false,
      "t": 99263.02083333331,
      "d": 119.79166666667152,
      "v": 100
    },
    {
      "midi": 92,
      "hit": false,
      "t": 99263.02083333331,
      "d": 119.79166666667152,
      "v": 100
    },
    {
      "midi": 70,
      "hit": false,
      "t": 99385.41666666801,
      "d": 54.6875,
      "v": 90
    },
    {
      "midi": 75,
      "hit": false,
      "t": 99752.60416666801,
      "d": 125.00000000001455,
      "v": 87
    },
    {
      "midi": 80,
      "hit": false,
      "t": 99755.20833333468,
      "d": 125.00000000001455,
      "v": 87
    },
    {
      "midi": 70,
      "hit": false,
      "t": 99757.81250000135,
      "d": 57.29166666667152,
      "v": 98
    },
    {
      "midi": 82,
      "hit": false,
      "t": 99757.81250000135,
      "d": 125.00000000001455,
      "v": 87
    },
    {
      "midi": 78,
      "hit": false,
      "t": 99763.02083333331,
      "d": 122.39583333332848,
      "v": 100
    },
    {
      "midi": 90,
      "hit": false,
      "t": 99763.02083333331,
      "d": 122.39583333332848,
      "v": 100
    },
    {
      "midi": 70,
      "hit": false,
      "t": 99882.81250000137,
      "d": 59.89583333332848,
      "v": 90
    },
    {
      "midi": 80,
      "hit": false,
      "t": 100013.02083333331,
      "d": 119.79166666667152,
      "v": 100
    },
    {
      "midi": 92,
      "hit": false,
      "t": 100013.02083333331,
      "d": 119.79166666667152,
      "v": 100
    },
    {
      "midi": 75,
      "hit": false,
      "t": 100252.60416666802,
      "d": 125.00000000001455,
      "v": 87
    },
    {
      "midi": 80,
      "hit": false,
      "t": 100255.2083333347,
      "d": 125.00000000001455,
      "v": 87
    },
    {
      "midi": 83,
      "hit": false,
      "t": 100257.81249999999,
      "d": 127.60416666667152,
      "v": 100
    },
    {
      "midi": 95,
      "hit": false,
      "t": 100257.81249999999,
      "d": 130.20833333334303,
      "v": 100
    },
    {
      "midi": 83,
      "hit": false,
      "t": 100257.81250000137,
      "d": 122.39583333334303,
      "v": 87
    },
    {
      "midi": 71,
      "hit": false,
      "t": 100260.41666666804,
      "d": 57.29166666667152,
      "v": 98
    },
    {
      "midi": 71,
      "hit": false,
      "t": 100382.81250000138,
      "d": 57.29166666667152,
      "v": 90
    },
    {
      "midi": 71,
      "hit": false,
      "t": 100505.20833333473,
      "d": 59.89583333332848,
      "v": 98
    },
    {
      "midi": 71,
      "hit": false,
      "t": 100627.60416666805,
      "d": 65.10416666667152,
      "v": 90
    },
    {
      "midi": 75,
      "hit": false,
      "t": 100755.20833333473,
      "d": 122.39583333334303,
      "v": 87
    },
    {
      "midi": 80,
      "hit": false,
      "t": 100755.20833333473,
      "d": 125.00000000001455,
      "v": 87
    },
    {
      "midi": 71,
      "hit": false,
      "t": 100757.8125000014,
      "d": 57.29166666667152,
      "v": 95
    },
    {
      "midi": 83,
      "hit": false,
      "t": 100757.8125000014,
      "d": 122.39583333334303,
      "v": 87
    },
    {
      "midi": 71,
      "hit": false,
      "t": 100882.81250000141,
      "d": 57.29166666667152,
      "v": 90
    },
    {
      "midi": 75,
      "hit": false,
      "t": 101252.60416666808,
      "d": 125.00000000001455,
      "v": 87
    },
    {
      "midi": 80,
      "hit": false,
      "t": 101255.20833333475,
      "d": 125.00000000001455,
      "v": 87
    },
    {
      "midi": 70,
      "hit": false,
      "t": 101257.81250000143,
      "d": 57.29166666667152,
      "v": 98
    },
    {
      "midi": 82,
      "hit": false,
      "t": 101257.81250000143,
      "d": 122.39583333334303,
      "v": 87
    },
    {
      "midi": 70,
      "hit": false,
      "t": 101382.81250000144,
      "d": 57.29166666667152,
      "v": 90
    },
    {
      "midi": 75,
      "hit": false,
      "t": 101752.60416666811,
      "d": 125.00000000001455,
      "v": 87
    },
    {
      "midi": 80,
      "hit": false,
      "t": 101755.20833333478,
      "d": 125.00000000001455,
      "v": 87
    },
    {
      "midi": 70,
      "hit": false,
      "t": 101757.81250000146,
      "d": 57.29166666667152,
      "v": 98
    },
    {
      "midi": 82,
      "hit": false,
      "t": 101757.81250000146,
      "d": 122.39583333334303,
      "v": 87
    },
    {
      "midi": 70,
      "hit": false,
      "t": 101880.2083333348,
      "d": 62.5,
      "v": 90
    },
    {
      "midi": 80,
      "hit": false,
      "t": 102013.02083333333,
      "d": 117.1875,
      "v": 100
    },
    {
      "midi": 92,
      "hit": false,
      "t": 102013.02083333333,
      "d": 119.79166666667152,
      "v": 100
    },
    {
      "midi": 75,
      "hit": false,
      "t": 102252.60416666813,
      "d": 125,
      "v": 87
    },
    {
      "midi": 80,
      "hit": false,
      "t": 102255.2083333348,
      "d": 125,
      "v": 87
    },
    {
      "midi": 71,
      "hit": false,
      "t": 102257.81250000147,
      "d": 59.89583333332848,
      "v": 98
    },
    {
      "midi": 83,
      "hit": false,
      "t": 102257.81250000147,
      "d": 122.39583333332848,
      "v": 87
    },
    {
      "midi": 78,
      "hit": false,
      "t": 102263.02083333333,
      "d": 122.39583333332848,
      "v": 100
    },
    {
      "midi": 90,
      "hit": false,
      "t": 102263.02083333333,
      "d": 125,
      "v": 100
    },
    {
      "midi": 71,
      "hit": false,
      "t": 102382.81250000147,
      "d": 57.29166666667152,
      "v": 90
    },
    {
      "midi": 71,
      "hit": false,
      "t": 102507.81250000147,
      "d": 57.29166666667152,
      "v": 98
    },
    {
      "midi": 80,
      "hit": false,
      "t": 102510.41666666666,
      "d": 122.39583333332848,
      "v": 100
    },
    {
      "midi": 92,
      "hit": false,
      "t": 102510.41666666666,
      "d": 122.39583333332848,
      "v": 100
    },
    {
      "midi": 71,
      "hit": false,
      "t": 102630.20833333481,
      "d": 62.5,
      "v": 90
    },
    {
      "midi": 75,
      "hit": false,
      "t": 102752.60416666814,
      "d": 125.00000000001455,
      "v": 87
    },
    {
      "midi": 80,
      "hit": false,
      "t": 102755.20833333481,
      "d": 125.00000000001455,
      "v": 87
    },
    {
      "midi": 71,
      "hit": false,
      "t": 102757.81250000148,
      "d": 57.29166666667152,
      "v": 95
    },
    {
      "midi": 83,
      "hit": false,
      "t": 102757.81250000148,
      "d": 127.60416666667152,
      "v": 87
    },
    {
      "midi": 75,
      "hit": false,
      "t": 102760.41666666666,
      "d": 122.39583333332848,
      "v": 100
    },
    {
      "midi": 87,
      "hit": false,
      "t": 102760.41666666666,
      "d": 122.39583333332848,
      "v": 100
    },
    {
      "midi": 71,
      "hit": false,
      "t": 102885.41666666816,
      "d": 57.29166666667152,
      "v": 90
    },
    {
      "midi": 78,
      "hit": false,
      "t": 103007.81249999999,
      "d": 125,
      "v": 100
    },
    {
      "midi": 90,
      "hit": false,
      "t": 103010.41666666666,
      "d": 122.39583333332848,
      "v": 100
    },
    {
      "midi": 75,
      "hit": false,
      "t": 103252.60416666816,
      "d": 125,
      "v": 87
    },
    {
      "midi": 80,
      "hit": false,
      "t": 103255.20833333483,
      "d": 125,
      "v": 87
    },
    {
      "midi": 70,
      "hit": false,
      "t": 103257.8125000015,
      "d": 59.89583333332848,
      "v": 98
    },
    {
      "midi": 82,
      "hit": false,
      "t": 103257.8125000015,
      "d": 125,
      "v": 87
    },
    {
      "midi": 80,
      "hit": false,
      "t": 103260.41666666666,
      "d": 122.39583333332848,
      "v": 100
    },
    {
      "midi": 92,
      "hit": false,
      "t": 103260.41666666666,
      "d": 122.39583333332848,
      "v": 100
    },
    {
      "midi": 70,
      "hit": false,
      "t": 103385.41666666817,
      "d": 54.6875,
      "v": 90
    },
    {
      "midi": 75,
      "hit": false,
      "t": 103752.60416666817,
      "d": 125,
      "v": 87
    },
    {
      "midi": 80,
      "hit": false,
      "t": 103755.20833333484,
      "d": 125,
      "v": 87
    },
    {
      "midi": 70,
      "hit": false,
      "t": 103757.81250000151,
      "d": 59.89583333332848,
      "v": 98
    },
    {
      "midi": 82,
      "hit": false,
      "t": 103757.81250000151,
      "d": 127.60416666665697,
      "v": 87
    },
    {
      "midi": 78,
      "hit": false,
      "t": 103763.02083333331,
      "d": 119.79166666667152,
      "v": 100
    },
    {
      "midi": 90,
      "hit": false,
      "t": 103763.02083333331,
      "d": 119.79166666667152,
      "v": 100
    },
    {
      "midi": 70,
      "hit": false,
      "t": 103885.41666666817,
      "d": 54.6875,
      "v": 90
    },
    {
      "midi": 80,
      "hit": false,
      "t": 104013.02083333331,
      "d": 119.79166666667152,
      "v": 100
    },
    {
      "midi": 92,
      "hit": false,
      "t": 104013.02083333331,
      "d": 119.79166666667152,
      "v": 100
    },
    {
      "midi": 75,
      "hit": false,
      "t": 104255.20833333484,
      "d": 122.39583333332848,
      "v": 87
    },
    {
      "midi": 80,
      "hit": false,
      "t": 104255.20833333484,
      "d": 125,
      "v": 87
    },
    {
      "midi": 83,
      "hit": false,
      "t": 104257.81249999999,
      "d": 125,
      "v": 100
    },
    {
      "midi": 95,
      "hit": false,
      "t": 104257.81249999999,
      "d": 125,
      "v": 100
    },
    {
      "midi": 71,
      "hit": false,
      "t": 104260.41666666817,
      "d": 54.6875,
      "v": 98
    },
    {
      "midi": 83,
      "hit": false,
      "t": 104260.41666666817,
      "d": 125,
      "v": 87
    },
    {
      "midi": 71,
      "hit": false,
      "t": 104385.41666666817,
      "d": 54.6875,
      "v": 90
    },
    {
      "midi": 71,
      "hit": false,
      "t": 104505.20833333484,
      "d": 59.89583333332848,
      "v": 98
    },
    {
      "midi": 71,
      "hit": false,
      "t": 104627.60416666817,
      "d": 65.10416666667152,
      "v": 90
    },
    {
      "midi": 75,
      "hit": false,
      "t": 104752.60416666817,
      "d": 125.00000000001455,
      "v": 87
    },
    {
      "midi": 80,
      "hit": false,
      "t": 104755.20833333484,
      "d": 125.00000000001455,
      "v": 87
    },
    {
      "midi": 83,
      "hit": false,
      "t": 104755.20833333484,
      "d": 125.00000000001455,
      "v": 87
    },
    {
      "midi": 71,
      "hit": false,
      "t": 104757.81250000151,
      "d": 57.29166666667152,
      "v": 95
    },
    {
      "midi": 71,
      "hit": false,
      "t": 104882.81250000153,
      "d": 57.29166666667152,
      "v": 90
    },
    {
      "midi": 75,
      "hit": false,
      "t": 105252.6041666682,
      "d": 125.00000000001455,
      "v": 87
    },
    {
      "midi": 80,
      "hit": false,
      "t": 105255.20833333487,
      "d": 125.00000000001455,
      "v": 87
    },
    {
      "midi": 70,
      "hit": false,
      "t": 105257.81250000154,
      "d": 57.29166666667152,
      "v": 98
    },
    {
      "midi": 82,
      "hit": false,
      "t": 105257.81250000154,
      "d": 122.39583333334303,
      "v": 87
    },
    {
      "midi": 70,
      "hit": false,
      "t": 105382.81250000156,
      "d": 57.29166666667152,
      "v": 90
    },
    {
      "midi": 75,
      "hit": false,
      "t": 105752.60416666823,
      "d": 127.60416666667152,
      "v": 87
    },
    {
      "midi": 80,
      "hit": false,
      "t": 105755.2083333349,
      "d": 125,
      "v": 87
    },
    {
      "midi": 70,
      "hit": false,
      "t": 105757.81250000157,
      "d": 59.89583333332848,
      "v": 98
    },
    {
      "midi": 82,
      "hit": false,
      "t": 105757.81250000157,
      "d": 122.39583333332848,
      "v": 87
    },
    {
      "midi": 70,
      "hit": false,
      "t": 105882.81250000157,
      "d": 57.29166666667152,
      "v": 90
    },
    {
      "midi": 80,
      "hit": false,
      "t": 106013.02083333331,
      "d": 117.1875,
      "v": 100
    },
    {
      "midi": 92,
      "hit": false,
      "t": 106013.02083333331,
      "d": 119.79166666667152,
      "v": 100
    },
    {
      "midi": 73,
      "hit": false,
      "t": 106252.60416666824,
      "d": 125.00000000001455,
      "v": 87
    },
    {
      "midi": 78,
      "hit": false,
      "t": 106255.20833333491,
      "d": 125.00000000001455,
      "v": 87
    },
    {
      "midi": 70,
      "hit": false,
      "t": 106257.81250000159,
      "d": 57.29166666667152,
      "v": 98
    },
    {
      "midi": 82,
      "hit": false,
      "t": 106257.81250000159,
      "d": 125.00000000001455,
      "v": 87
    },
    {
      "midi": 78,
      "hit": false,
      "t": 106263.02083333331,
      "d": 122.39583333332848,
      "v": 100
    },
    {
      "midi": 90,
      "hit": false,
      "t": 106263.02083333331,
      "d": 122.39583333332848,
      "v": 100
    },
    {
      "midi": 70,
      "hit": false,
      "t": 106382.8125000016,
      "d": 57.29166666667152,
      "v": 90
    },
    {
      "midi": 80,
      "hit": false,
      "t": 106507.81249999997,
      "d": 125,
      "v": 100
    },
    {
      "midi": 92,
      "hit": false,
      "t": 106507.81249999997,
      "d": 125,
      "v": 100
    },
    {
      "midi": 70,
      "hit": false,
      "t": 106507.8125000016,
      "d": 59.89583333332848,
      "v": 98
    },
    {
      "midi": 70,
      "hit": false,
      "t": 106630.20833333493,
      "d": 59.89583333332848,
      "v": 90
    },
    {
      "midi": 73,
      "hit": false,
      "t": 106752.60416666826,
      "d": 125.00000000001455,
      "v": 87
    },
    {
      "midi": 78,
      "hit": false,
      "t": 106755.20833333493,
      "d": 125.00000000001455,
      "v": 87
    },
    {
      "midi": 70,
      "hit": false,
      "t": 106757.8125000016,
      "d": 57.29166666667152,
      "v": 95
    },
    {
      "midi": 82,
      "hit": false,
      "t": 106757.8125000016,
      "d": 125.00000000001455,
      "v": 87
    },
    {
      "midi": 75,
      "hit": false,
      "t": 106763.0208333333,
      "d": 119.79166666667152,
      "v": 100
    },
    {
      "midi": 87,
      "hit": false,
      "t": 106765.62499999997,
      "d": 117.1875,
      "v": 100
    },
    {
      "midi": 70,
      "hit": false,
      "t": 106885.41666666829,
      "d": 57.29166666667152,
      "v": 90
    },
    {
      "midi": 78,
      "hit": false,
      "t": 107007.81249999997,
      "d": 125,
      "v": 100
    },
    {
      "midi": 90,
      "hit": false,
      "t": 107010.41666666664,
      "d": 122.39583333332848,
      "v": 100
    },
    {
      "midi": 73,
      "hit": false,
      "t": 107252.60416666829,
      "d": 125,
      "v": 87
    },
    {
      "midi": 78,
      "hit": false,
      "t": 107255.20833333496,
      "d": 125,
      "v": 87
    },
    {
      "midi": 80,
      "hit": false,
      "t": 107257.81249999997,
      "d": 127.60416666667152,
      "v": 100
    },
    {
      "midi": 92,
      "hit": false,
      "t": 107257.81249999997,
      "d": 127.60416666667152,
      "v": 100
    },
    {
      "midi": 68,
      "hit": false,
      "t": 107260.41666666829,
      "d": 57.29166666667152,
      "v": 98
    },
    {
      "midi": 80,
      "hit": false,
      "t": 107260.41666666829,
      "d": 119.79166666667152,
      "v": 87
    },
    {
      "midi": 68,
      "hit": false,
      "t": 107382.81250000163,
      "d": 57.29166666667152,
      "v": 90
    },
    {
      "midi": 73,
      "hit": false,
      "t": 107752.6041666683,
      "d": 125,
      "v": 87
    },
    {
      "midi": 78,
      "hit": false,
      "t": 107755.20833333497,
      "d": 125,
      "v": 87
    },
    {
      "midi": 68,
      "hit": false,
      "t": 107757.81250000164,
      "d": 59.89583333332848,
      "v": 98
    },
    {
      "midi": 80,
      "hit": false,
      "t": 107757.81250000164,
      "d": 122.39583333332848,
      "v": 87
    },
    {
      "midi": 80,
      "hit": false,
      "t": 107763.02083333331,
      "d": 122.39583333332848,
      "v": 100
    },
    {
      "midi": 92,
      "hit": false,
      "t": 107763.02083333331,
      "d": 122.39583333332848,
      "v": 100
    },
    {
      "midi": 68,
      "hit": false,
      "t": 107882.81250000164,
      "d": 57.29166666667152,
      "v": 90
    },
    {
      "midi": 73,
      "hit": false,
      "t": 108007.81250000164,
      "d": 119.79166666667152,
      "v": 87
    },
    {
      "midi": 78,
      "hit": false,
      "t": 108010.41666666832,
      "d": 119.79166666667152,
      "v": 87
    },
    {
      "midi": 82,
      "hit": false,
      "t": 108010.41666666832,
      "d": 122.39583333334303,
      "v": 87
    },
    {
      "midi": 78,
      "hit": false,
      "t": 108015.62499999997,
      "d": 119.79166666667152,
      "v": 100
    },
    {
      "midi": 90,
      "hit": false,
      "t": 108018.22916666664,
      "d": 117.1875,
      "v": 100
    },
    {
      "midi": 75,
      "hit": false,
      "t": 110007.81250000166,
      "d": 119.79166666667152,
      "v": 87
    },
    {
      "midi": 80,
      "hit": false,
      "t": 110007.81250000166,
      "d": 122.39583333334303,
      "v": 87
    },
    {
      "midi": 83,
      "hit": false,
      "t": 110010.41666666833,
      "d": 119.79166666667152,
      "v": 87
    },
    {
      "midi": 75,
      "hit": false,
      "t": 110252.60416666833,
      "d": 125.00000000001455,
      "v": 87
    },
    {
      "midi": 80,
      "hit": false,
      "t": 110255.208333335,
      "d": 125.00000000001455,
      "v": 87
    },
    {
      "midi": 71,
      "hit": false,
      "t": 110257.81250000167,
      "d": 57.29166666667152,
      "v": 98
    },
    {
      "midi": 83,
      "hit": false,
      "t": 110257.81250000167,
      "d": 127.60416666667152,
      "v": 87
    },
    {
      "midi": 71,
      "hit": false,
      "t": 110385.41666666834,
      "d": 57.29166666667152,
      "v": 90
    },
    {
      "midi": 71,
      "hit": false,
      "t": 110507.81250000169,
      "d": 59.89583333332848,
      "v": 98
    },
    {
      "midi": 71,
      "hit": false,
      "t": 110630.20833333502,
      "d": 59.89583333332848,
      "v": 90
    },
    {
      "midi": 75,
      "hit": false,
      "t": 110752.60416666834,
      "d": 125.00000000001455,
      "v": 87
    },
    {
      "midi": 80,
      "hit": false,
      "t": 110755.20833333502,
      "d": 125.00000000001455,
      "v": 87
    },
    {
      "midi": 71,
      "hit": false,
      "t": 110757.81250000169,
      "d": 57.29166666667152,
      "v": 95
    },
    {
      "midi": 83,
      "hit": false,
      "t": 110757.81250000169,
      "d": 125.00000000001455,
      "v": 87
    },
    {
      "midi": 71,
      "hit": false,
      "t": 110882.8125000017,
      "d": 59.89583333332848,
      "v": 90
    },
    {
      "midi": 75,
      "hit": false,
      "t": 111252.60416666836,
      "d": 125,
      "v": 87
    },
    {
      "midi": 80,
      "hit": false,
      "t": 111255.20833333503,
      "d": 125,
      "v": 87
    },
    {
      "midi": 70,
      "hit": false,
      "t": 111257.8125000017,
      "d": 59.89583333332848,
      "v": 98
    },
    {
      "midi": 82,
      "hit": false,
      "t": 111257.8125000017,
      "d": 122.39583333332848,
      "v": 87
    },
    {
      "midi": 70,
      "hit": false,
      "t": 111388.02083333503,
      "d": 52.08333333332848,
      "v": 90
    },
    {
      "midi": 75,
      "hit": false,
      "t": 111752.60416666836,
      "d": 125.00000000001455,
      "v": 87
    },
    {
      "midi": 80,
      "hit": false,
      "t": 111755.20833333503,
      "d": 125.00000000001455,
      "v": 87
    },
    {
      "midi": 70,
      "hit": false,
      "t": 111757.8125000017,
      "d": 57.29166666667152,
      "v": 98
    },
    {
      "midi": 82,
      "hit": false,
      "t": 111757.8125000017,
      "d": 125.00000000001455,
      "v": 87
    },
    {
      "midi": 70,
      "hit": false,
      "t": 111888.02083333505,
      "d": 52.08333333332848,
      "v": 90
    },
    {
      "midi": 75,
      "hit": false,
      "t": 112252.60416666837,
      "d": 125.00000000001455,
      "v": 87
    },
    {
      "midi": 80,
      "hit": false,
      "t": 112255.20833333505,
      "d": 125.00000000001455,
      "v": 87
    },
    {
      "midi": 71,
      "hit": false,
      "t": 112257.81250000172,
      "d": 57.29166666667152,
      "v": 98
    },
    {
      "midi": 83,
      "hit": false,
      "t": 112257.81250000172,
      "d": 125.00000000001455,
      "v": 87
    },
    {
      "midi": 71,
      "hit": false,
      "t": 112388.02083333506,
      "d": 54.6875,
      "v": 90
    },
    {
      "midi": 71,
      "hit": false,
      "t": 112507.81250000173,
      "d": 59.89583333332848,
      "v": 98
    },
    {
      "midi": 71,
      "hit": false,
      "t": 112630.20833333506,
      "d": 62.5,
      "v": 90
    },
    {
      "midi": 75,
      "hit": false,
      "t": 112752.60416666839,
      "d": 125,
      "v": 87
    },
    {
      "midi": 80,
      "hit": false,
      "t": 112755.20833333506,
      "d": 125,
      "v": 87
    },
    {
      "midi": 83,
      "hit": false,
      "t": 112757.81250000173,
      "d": 125,
      "v": 87
    },
    {
      "midi": 71,
      "hit": false,
      "t": 112763.02083333506,
      "d": 54.6875,
      "v": 95
    },
    {
      "midi": 71,
      "hit": false,
      "t": 112885.4166666684,
      "d": 57.29166666667152,
      "v": 90
    },
    {
      "midi": 75,
      "hit": false,
      "t": 113252.6041666684,
      "d": 125,
      "v": 87
    },
    {
      "midi": 80,
      "hit": false,
      "t": 113255.20833333507,
      "d": 125,
      "v": 87
    },
    {
      "midi": 70,
      "hit": false,
      "t": 113257.81250000175,
      "d": 59.89583333332848,
      "v": 98
    },
    {
      "midi": 82,
      "hit": false,
      "t": 113257.81250000175,
      "d": 125,
      "v": 87
    },
    {
      "midi": 70,
      "hit": false,
      "t": 113385.41666666842,
      "d": 54.6875,
      "v": 90
    },
    {
      "midi": 75,
      "hit": false,
      "t": 113752.60416666842,
      "d": 125.00000000001455,
      "v": 87
    },
    {
      "midi": 80,
      "hit": false,
      "t": 113755.20833333509,
      "d": 125.00000000001455,
      "v": 87
    },
    {
      "midi": 70,
      "hit": false,
      "t": 113757.81250000176,
      "d": 57.29166666667152,
      "v": 98
    },
    {
      "midi": 82,
      "hit": false,
      "t": 113757.81250000176,
      "d": 122.39583333334303,
      "v": 87
    },
    {
      "midi": 70,
      "hit": false,
      "t": 113885.41666666843,
      "d": 54.6875,
      "v": 90
    },
    {
      "midi": 75,
      "hit": false,
      "t": 114252.60416666843,
      "d": 125.00000000001455,
      "v": 87
    },
    {
      "midi": 80,
      "hit": false,
      "t": 114255.2083333351,
      "d": 125.00000000001455,
      "v": 87
    },
    {
      "midi": 71,
      "hit": false,
      "t": 114257.81250000178,
      "d": 57.29166666667152,
      "v": 98
    },
    {
      "midi": 83,
      "hit": false,
      "t": 114257.81250000178,
      "d": 125.00000000001455,
      "v": 87
    },
    {
      "midi": 71,
      "hit": false,
      "t": 114388.02083333512,
      "d": 54.6875,
      "v": 90
    },
    {
      "midi": 71,
      "hit": false,
      "t": 114507.81250000179,
      "d": 57.29166666667152,
      "v": 98
    },
    {
      "midi": 71,
      "hit": false,
      "t": 114630.20833333513,
      "d": 62.5,
      "v": 90
    },
    {
      "midi": 75,
      "hit": false,
      "t": 114752.60416666846,
      "d": 125,
      "v": 87
    },
    {
      "midi": 80,
      "hit": false,
      "t": 114755.20833333513,
      "d": 125,
      "v": 87
    },
    {
      "midi": 83,
      "hit": false,
      "t": 114757.8125000018,
      "d": 122.39583333332848,
      "v": 87
    },
    {
      "midi": 71,
      "hit": false,
      "t": 114763.02083333513,
      "d": 54.6875,
      "v": 95
    },
    {
      "midi": 71,
      "hit": false,
      "t": 114888.02083333513,
      "d": 54.6875,
      "v": 90
    },
    {
      "midi": 75,
      "hit": false,
      "t": 115252.60416666846,
      "d": 125,
      "v": 87
    },
    {
      "midi": 80,
      "hit": false,
      "t": 115255.20833333513,
      "d": 125,
      "v": 87
    },
    {
      "midi": 70,
      "hit": false,
      "t": 115257.8125000018,
      "d": 59.89583333332848,
      "v": 98
    },
    {
      "midi": 82,
      "hit": false,
      "t": 115257.8125000018,
      "d": 125,
      "v": 87
    },
    {
      "midi": 70,
      "hit": false,
      "t": 115385.41666666848,
      "d": 54.6875,
      "v": 90
    },
    {
      "midi": 75,
      "hit": false,
      "t": 115752.60416666848,
      "d": 125.00000000001455,
      "v": 87
    },
    {
      "midi": 80,
      "hit": false,
      "t": 115755.20833333515,
      "d": 125.00000000001455,
      "v": 87
    },
    {
      "midi": 70,
      "hit": false,
      "t": 115757.81250000182,
      "d": 57.29166666667152,
      "v": 98
    },
    {
      "midi": 82,
      "hit": false,
      "t": 115757.81250000182,
      "d": 125.00000000001455,
      "v": 87
    },
    {
      "midi": 70,
      "hit": false,
      "t": 115885.4166666685,
      "d": 54.6875,
      "v": 90
    },
    {
      "midi": 75,
      "hit": false,
      "t": 116252.6041666685,
      "d": 125.00000000001455,
      "v": 87
    },
    {
      "midi": 80,
      "hit": false,
      "t": 116255.20833333518,
      "d": 125.00000000001455,
      "v": 87
    },
    {
      "midi": 83,
      "hit": false,
      "t": 116257.81250000185,
      "d": 125.00000000001455,
      "v": 87
    },
    {
      "midi": 71,
      "hit": false,
      "t": 116260.41666666852,
      "d": 57.29166666667152,
      "v": 98
    },
    {
      "midi": 71,
      "hit": false,
      "t": 116382.81250000186,
      "d": 59.89583333332848,
      "v": 90
    },
    {
      "midi": 71,
      "hit": false,
      "t": 116507.81250000186,
      "d": 57.29166666667152,
      "v": 98
    },
    {
      "midi": 71,
      "hit": false,
      "t": 116632.81250000186,
      "d": 59.89583333332848,
      "v": 90
    },
    {
      "midi": 75,
      "hit": false,
      "t": 116752.60416666852,
      "d": 125,
      "v": 87
    },
    {
      "midi": 80,
      "hit": false,
      "t": 116755.20833333519,
      "d": 125,
      "v": 87
    },
    {
      "midi": 71,
      "hit": false,
      "t": 116757.81250000186,
      "d": 59.89583333332848,
      "v": 95
    },
    {
      "midi": 83,
      "hit": false,
      "t": 116757.81250000186,
      "d": 125,
      "v": 87
    },
    {
      "midi": 71,
      "hit": false,
      "t": 116885.41666666853,
      "d": 54.6875,
      "v": 90
    },
    {
      "midi": 75,
      "hit": false,
      "t": 117252.60416666853,
      "d": 125,
      "v": 87
    },
    {
      "midi": 80,
      "hit": false,
      "t": 117255.2083333352,
      "d": 125,
      "v": 87
    },
    {
      "midi": 70,
      "hit": false,
      "t": 117257.81250000188,
      "d": 59.89583333332848,
      "v": 98
    },
    {
      "midi": 82,
      "hit": false,
      "t": 117257.81250000188,
      "d": 125,
      "v": 87
    },
    {
      "midi": 70,
      "hit": false,
      "t": 117388.0208333352,
      "d": 52.08333333332848,
      "v": 90
    },
    {
      "midi": 75,
      "hit": false,
      "t": 117752.60416666853,
      "d": 125.00000000001455,
      "v": 87
    },
    {
      "midi": 80,
      "hit": false,
      "t": 117755.2083333352,
      "d": 125.00000000001455,
      "v": 87
    },
    {
      "midi": 70,
      "hit": false,
      "t": 117757.81250000188,
      "d": 57.29166666667152,
      "v": 98
    },
    {
      "midi": 82,
      "hit": false,
      "t": 117757.81250000188,
      "d": 125.00000000001455,
      "v": 87
    },
    {
      "midi": 70,
      "hit": false,
      "t": 117885.41666666856,
      "d": 54.6875,
      "v": 90
    },
    {
      "midi": 73,
      "hit": false,
      "t": 118252.60416666856,
      "d": 125,
      "v": 87
    },
    {
      "midi": 78,
      "hit": false,
      "t": 118255.20833333523,
      "d": 125,
      "v": 87
    },
    {
      "midi": 70,
      "hit": false,
      "t": 118257.8125000019,
      "d": 59.89583333332848,
      "v": 98
    },
    {
      "midi": 82,
      "hit": false,
      "t": 118257.8125000019,
      "d": 125,
      "v": 87
    },
    {
      "midi": 70,
      "hit": false,
      "t": 118388.02083333523,
      "d": 54.6875,
      "v": 90
    },
    {
      "midi": 70,
      "hit": false,
      "t": 118507.8125000019,
      "d": 57.29166666667152,
      "v": 98
    },
    {
      "midi": 70,
      "hit": false,
      "t": 118630.20833333525,
      "d": 62.5,
      "v": 90
    },
    {
      "midi": 73,
      "hit": false,
      "t": 118752.60416666858,
      "d": 127.60416666667152,
      "v": 87
    },
    {
      "midi": 78,
      "hit": false,
      "t": 118755.20833333525,
      "d": 125,
      "v": 87
    },
    {
      "midi": 70,
      "hit": false,
      "t": 118757.81250000192,
      "d": 59.89583333332848,
      "v": 95
    },
    {
      "midi": 82,
      "hit": false,
      "t": 118757.81250000192,
      "d": 122.39583333332848,
      "v": 87
    },
    {
      "midi": 70,
      "hit": false,
      "t": 118888.02083333525,
      "d": 52.08333333332848,
      "v": 90
    },
    {
      "midi": 73,
      "hit": false,
      "t": 119255.20833333525,
      "d": 122.39583333334303,
      "v": 87
    },
    {
      "midi": 78,
      "hit": false,
      "t": 119255.20833333525,
      "d": 125.00000000001455,
      "v": 87
    },
    {
      "midi": 68,
      "hit": false,
      "t": 119257.81250000192,
      "d": 57.29166666667152,
      "v": 98
    },
    {
      "midi": 80,
      "hit": false,
      "t": 119257.81250000192,
      "d": 122.39583333334303,
      "v": 87
    },
    {
      "midi": 68,
      "hit": false,
      "t": 119388.02083333526,
      "d": 52.08333333332848,
      "v": 90
    },
    {
      "midi": 73,
      "hit": false,
      "t": 119752.60416666859,
      "d": 125.00000000001455,
      "v": 87
    },
    {
      "midi": 78,
      "hit": false,
      "t": 119755.20833333526,
      "d": 125.00000000001455,
      "v": 87
    },
    {
      "midi": 68,
      "hit": false,
      "t": 119757.81250000194,
      "d": 57.29166666667152,
      "v": 98
    },
    {
      "midi": 80,
      "hit": false,
      "t": 119757.81250000194,
      "d": 125.00000000001455,
      "v": 87
    },
    {
      "midi": 68,
      "hit": false,
      "t": 119882.81250000195,
      "d": 57.29166666667152,
      "v": 90
    },
    {
      "midi": 73,
      "hit": false,
      "t": 120252.60416666862,
      "d": 125,
      "v": 87
    },
    {
      "midi": 78,
      "hit": false,
      "t": 120255.2083333353,
      "d": 125,
      "v": 87
    },
    {
      "midi": 70,
      "hit": false,
      "t": 120257.81250000196,
      "d": 59.89583333332848,
      "v": 98
    },
    {
      "midi": 82,
      "hit": false,
      "t": 120257.81250000196,
      "d": 122.39583333332848,
      "v": 87
    },
    {
      "midi": 70,
      "hit": false,
      "t": 120388.0208333353,
      "d": 54.6875,
      "v": 90
    },
    {
      "midi": 70,
      "hit": false,
      "t": 120507.81250000196,
      "d": 57.29166666667152,
      "v": 98
    },
    {
      "midi": 70,
      "hit": false,
      "t": 120630.20833333531,
      "d": 62.5,
      "v": 90
    },
    {
      "midi": 73,
      "hit": false,
      "t": 120752.60416666864,
      "d": 125,
      "v": 87
    },
    {
      "midi": 78,
      "hit": false,
      "t": 120755.20833333531,
      "d": 125,
      "v": 87
    },
    {
      "midi": 70,
      "hit": false,
      "t": 120757.81250000198,
      "d": 59.89583333332848,
      "v": 95
    },
    {
      "midi": 82,
      "hit": false,
      "t": 120757.81250000198,
      "d": 125,
      "v": 87
    },
    {
      "midi": 70,
      "hit": false,
      "t": 120882.81250000198,
      "d": 57.29166666667152,
      "v": 90
    },
    {
      "midi": 73,
      "hit": false,
      "t": 121252.60416666865,
      "d": 125.00000000001455,
      "v": 87
    },
    {
      "midi": 78,
      "hit": false,
      "t": 121255.20833333532,
      "d": 125.00000000001455,
      "v": 87
    },
    {
      "midi": 68,
      "hit": false,
      "t": 121257.812500002,
      "d": 57.29166666667152,
      "v": 98
    },
    {
      "midi": 80,
      "hit": false,
      "t": 121257.812500002,
      "d": 125.00000000001455,
      "v": 87
    },
    {
      "midi": 68,
      "hit": false,
      "t": 121385.41666666868,
      "d": 54.6875,
      "v": 90
    },
    {
      "midi": 73,
      "hit": false,
      "t": 121752.60416666868,
      "d": 125.00000000001455,
      "v": 87
    },
    {
      "midi": 78,
      "hit": false,
      "t": 121755.20833333535,
      "d": 125.00000000001455,
      "v": 87
    },
    {
      "midi": 68,
      "hit": false,
      "t": 121757.81250000202,
      "d": 57.29166666667152,
      "v": 98
    },
    {
      "midi": 80,
      "hit": false,
      "t": 121757.81250000202,
      "d": 125.00000000001455,
      "v": 87
    },
    {
      "midi": 68,
      "hit": false,
      "t": 121882.81250000204,
      "d": 57.29166666667152,
      "v": 90
    },
    {
      "midi": 75,
      "hit": false,
      "t": 122252.60416666871,
      "d": 125,
      "v": 87
    },
    {
      "midi": 80,
      "hit": false,
      "t": 122255.20833333538,
      "d": 125,
      "v": 87
    },
    {
      "midi": 71,
      "hit": false,
      "t": 122257.81250000205,
      "d": 59.89583333332848,
      "v": 98
    },
    {
      "midi": 83,
      "hit": false,
      "t": 122257.81250000205,
      "d": 125,
      "v": 87
    },
    {
      "midi": 71,
      "hit": false,
      "t": 122385.41666666872,
      "d": 54.6875,
      "v": 90
    },
    {
      "midi": 71,
      "hit": false,
      "t": 122507.81250000205,
      "d": 57.29166666667152,
      "v": 98
    },
    {
      "midi": 71,
      "hit": false,
      "t": 122630.2083333354,
      "d": 62.5,
      "v": 90
    },
    {
      "midi": 75,
      "hit": false,
      "t": 122755.2083333354,
      "d": 122.39583333332848,
      "v": 87
    },
    {
      "midi": 80,
      "hit": false,
      "t": 122755.2083333354,
      "d": 125,
      "v": 87
    },
    {
      "midi": 83,
      "hit": false,
      "t": 122755.2083333354,
      "d": 127.60416666667152,
      "v": 87
    },
    {
      "midi": 71,
      "hit": false,
      "t": 122765.62500000207,
      "d": 52.08333333332848,
      "v": 95
    },
    {
      "midi": 71,
      "hit": false,
      "t": 122888.0208333354,
      "d": 52.08333333332848,
      "v": 90
    },
    {
      "midi": 75,
      "hit": false,
      "t": 123252.60416666872,
      "d": 125.00000000001455,
      "v": 87
    },
    {
      "midi": 80,
      "hit": false,
      "t": 123255.2083333354,
      "d": 125.00000000001455,
      "v": 87
    },
    {
      "midi": 70,
      "hit": false,
      "t": 123257.81250000207,
      "d": 57.29166666667152,
      "v": 98
    },
    {
      "midi": 82,
      "hit": false,
      "t": 123257.81250000207,
      "d": 125.00000000001455,
      "v": 87
    },
    {
      "midi": 70,
      "hit": false,
      "t": 123385.41666666875,
      "d": 54.6875,
      "v": 90
    },
    {
      "midi": 75,
      "hit": false,
      "t": 123752.60416666875,
      "d": 125,
      "v": 87
    },
    {
      "midi": 80,
      "hit": false,
      "t": 123755.20833333542,
      "d": 125,
      "v": 87
    },
    {
      "midi": 70,
      "hit": false,
      "t": 123757.8125000021,
      "d": 59.89583333332848,
      "v": 98
    },
    {
      "midi": 82,
      "hit": false,
      "t": 123757.8125000021,
      "d": 125,
      "v": 87
    },
    {
      "midi": 70,
      "hit": false,
      "t": 123888.02083333542,
      "d": 52.08333333332848,
      "v": 90
    },
    {
      "midi": 75,
      "hit": false,
      "t": 124252.60416666875,
      "d": 127.60416666667152,
      "v": 87
    },
    {
      "midi": 80,
      "hit": false,
      "t": 124255.20833333542,
      "d": 125,
      "v": 87
    },
    {
      "midi": 71,
      "hit": false,
      "t": 124257.8125000021,
      "d": 59.89583333332848,
      "v": 98
    },
    {
      "midi": 83,
      "hit": false,
      "t": 124257.8125000021,
      "d": 122.39583333332848,
      "v": 87
    },
    {
      "midi": 71,
      "hit": false,
      "t": 124388.02083333542,
      "d": 52.08333333332848,
      "v": 90
    },
    {
      "midi": 71,
      "hit": false,
      "t": 124507.81250000208,
      "d": 57.29166666667152,
      "v": 98
    },
    {
      "midi": 71,
      "hit": false,
      "t": 124630.20833333542,
      "d": 62.5,
      "v": 90
    },
    {
      "midi": 75,
      "hit": false,
      "t": 124755.20833333542,
      "d": 122.39583333334303,
      "v": 87
    },
    {
      "midi": 80,
      "hit": false,
      "t": 124755.20833333542,
      "d": 125.00000000001455,
      "v": 87
    },
    {
      "midi": 71,
      "hit": false,
      "t": 124757.8125000021,
      "d": 57.29166666667152,
      "v": 95
    },
    {
      "midi": 83,
      "hit": false,
      "t": 124757.8125000021,
      "d": 125.00000000001455,
      "v": 87
    },
    {
      "midi": 71,
      "hit": false,
      "t": 124885.41666666878,
      "d": 54.6875,
      "v": 90
    },
    {
      "midi": 75,
      "hit": false,
      "t": 125252.60416666878,
      "d": 125.00000000001455,
      "v": 87
    },
    {
      "midi": 80,
      "hit": false,
      "t": 125255.20833333545,
      "d": 125.00000000001455,
      "v": 87
    },
    {
      "midi": 70,
      "hit": false,
      "t": 125257.81250000212,
      "d": 57.29166666667152,
      "v": 98
    },
    {
      "midi": 82,
      "hit": false,
      "t": 125257.81250000212,
      "d": 125.00000000001455,
      "v": 87
    },
    {
      "midi": 70,
      "hit": false,
      "t": 125385.41666666881,
      "d": 54.6875,
      "v": 90
    },
    {
      "midi": 75,
      "hit": false,
      "t": 125752.60416666881,
      "d": 125,
      "v": 87
    },
    {
      "midi": 80,
      "hit": false,
      "t": 125755.20833333548,
      "d": 125,
      "v": 87
    },
    {
      "midi": 70,
      "hit": false,
      "t": 125757.81250000215,
      "d": 59.89583333332848,
      "v": 98
    },
    {
      "midi": 82,
      "hit": false,
      "t": 125757.81250000215,
      "d": 125,
      "v": 87
    },
    {
      "midi": 70,
      "hit": false,
      "t": 125888.02083333548,
      "d": 52.08333333332848,
      "v": 90
    },
    {
      "midi": 75,
      "hit": false,
      "t": 126007.81250000214,
      "d": 119.79166666665697,
      "v": 87
    },
    {
      "midi": 80,
      "hit": false,
      "t": 126013.02083333547,
      "d": 117.1875,
      "v": 87
    },
    {
      "midi": 83,
      "hit": false,
      "t": 126013.02083333547,
      "d": 117.1875,
      "v": 87
    },
    {
      "midi": 75,
      "hit": false,
      "t": 126255.20833333547,
      "d": 125,
      "v": 87
    },
    {
      "midi": 80,
      "hit": false,
      "t": 126255.20833333547,
      "d": 125,
      "v": 87
    },
    {
      "midi": 83,
      "hit": false,
      "t": 126257.81250000214,
      "d": 122.39583333332848,
      "v": 87
    },
    {
      "midi": 71,
      "hit": false,
      "t": 126265.62500000214,
      "d": 52.08333333332848,
      "v": 98
    },
    {
      "midi": 71,
      "hit": false,
      "t": 126388.02083333547,
      "d": 52.08333333332848,
      "v": 90
    },
    {
      "midi": 71,
      "hit": false,
      "t": 126507.81250000212,
      "d": 57.29166666667152,
      "v": 98
    },
    {
      "midi": 71,
      "hit": false,
      "t": 126630.20833333547,
      "d": 62.5,
      "v": 90
    },
    {
      "midi": 75,
      "hit": false,
      "t": 126755.20833333547,
      "d": 122.39583333334303,
      "v": 87
    },
    {
      "midi": 80,
      "hit": false,
      "t": 126755.20833333547,
      "d": 125.00000000001455,
      "v": 87
    },
    {
      "midi": 83,
      "hit": false,
      "t": 126757.81250000214,
      "d": 125.00000000001455,
      "v": 87
    },
    {
      "midi": 71,
      "hit": false,
      "t": 126765.62500000214,
      "d": 49.47916666667152,
      "v": 95
    },
    {
      "midi": 71,
      "hit": false,
      "t": 126885.41666666883,
      "d": 54.6875,
      "v": 90
    },
    {
      "midi": 75,
      "hit": false,
      "t": 127252.60416666883,
      "d": 125.00000000001455,
      "v": 87
    },
    {
      "midi": 80,
      "hit": false,
      "t": 127255.2083333355,
      "d": 125.00000000001455,
      "v": 87
    },
    {
      "midi": 70,
      "hit": false,
      "t": 127257.81250000217,
      "d": 57.29166666667152,
      "v": 98
    },
    {
      "midi": 82,
      "hit": false,
      "t": 127257.81250000217,
      "d": 125.00000000001455,
      "v": 87
    },
    {
      "midi": 70,
      "hit": false,
      "t": 127382.81250000218,
      "d": 57.29166666667152,
      "v": 90
    },
    {
      "midi": 75,
      "hit": false,
      "t": 127752.60416666885,
      "d": 125,
      "v": 87
    },
    {
      "midi": 80,
      "hit": false,
      "t": 127755.20833333553,
      "d": 125,
      "v": 87
    },
    {
      "midi": 70,
      "hit": false,
      "t": 127757.8125000022,
      "d": 59.89583333332848,
      "v": 98
    },
    {
      "midi": 82,
      "hit": false,
      "t": 127757.8125000022,
      "d": 125,
      "v": 87
    },
    {
      "midi": 70,
      "hit": false,
      "t": 127882.8125000022,
      "d": 59.89583333332848,
      "v": 90
    },
    {
      "midi": 75,
      "hit": false,
      "t": 128252.60416666885,
      "d": 125,
      "v": 87
    },
    {
      "midi": 80,
      "hit": false,
      "t": 128255.20833333553,
      "d": 125,
      "v": 87
    },
    {
      "midi": 71,
      "hit": false,
      "t": 128257.8125000022,
      "d": 59.89583333332848,
      "v": 98
    },
    {
      "midi": 83,
      "hit": false,
      "t": 128257.8125000022,
      "d": 122.39583333332848,
      "v": 87
    },
    {
      "midi": 71,
      "hit": false,
      "t": 128388.02083333553,
      "d": 52.08333333332848,
      "v": 90
    },
    {
      "midi": 71,
      "hit": false,
      "t": 128507.81250000218,
      "d": 57.29166666667152,
      "v": 98
    },
    {
      "midi": 71,
      "hit": false,
      "t": 128632.81250000218,
      "d": 59.89583333332848,
      "v": 90
    },
    {
      "midi": 75,
      "hit": false,
      "t": 128752.60416666884,
      "d": 125,
      "v": 87
    },
    {
      "midi": 80,
      "hit": false,
      "t": 128755.20833333551,
      "d": 125,
      "v": 87
    },
    {
      "midi": 83,
      "hit": false,
      "t": 128757.81250000218,
      "d": 125,
      "v": 87
    },
    {
      "midi": 71,
      "hit": false,
      "t": 128763.02083333551,
      "d": 52.08333333332848,
      "v": 95
    },
    {
      "midi": 71,
      "hit": false,
      "t": 128885.41666666885,
      "d": 54.6875,
      "v": 90
    },
    {
      "midi": 75,
      "hit": false,
      "t": 129252.60416666885,
      "d": 125.00000000001455,
      "v": 87
    },
    {
      "midi": 80,
      "hit": false,
      "t": 129255.20833333553,
      "d": 125.00000000001455,
      "v": 87
    },
    {
      "midi": 70,
      "hit": false,
      "t": 129257.8125000022,
      "d": 57.29166666667152,
      "v": 98
    },
    {
      "midi": 82,
      "hit": false,
      "t": 129257.8125000022,
      "d": 125.00000000001455,
      "v": 87
    },
    {
      "midi": 70,
      "hit": false,
      "t": 129388.02083333554,
      "d": 52.08333333332848,
      "v": 90
    },
    {
      "midi": 75,
      "hit": false,
      "t": 129752.60416666887,
      "d": 127.60416666667152,
      "v": 87
    },
    {
      "midi": 80,
      "hit": false,
      "t": 129755.20833333554,
      "d": 125,
      "v": 87
    },
    {
      "midi": 70,
      "hit": false,
      "t": 129757.81250000221,
      "d": 59.89583333332848,
      "v": 98
    },
    {
      "midi": 82,
      "hit": false,
      "t": 129757.81250000221,
      "d": 122.39583333332848,
      "v": 87
    },
    {
      "midi": 70,
      "hit": false,
      "t": 129888.02083333554,
      "d": 52.08333333332848,
      "v": 90
    },
    {
      "midi": 75,
      "hit": false,
      "t": 130252.60416666887,
      "d": 125,
      "v": 87
    },
    {
      "midi": 80,
      "hit": false,
      "t": 130255.20833333554,
      "d": 125,
      "v": 87
    },
    {
      "midi": 71,
      "hit": false,
      "t": 130257.81250000221,
      "d": 59.89583333332848,
      "v": 98
    },
    {
      "midi": 83,
      "hit": false,
      "t": 130257.81250000221,
      "d": 122.39583333332848,
      "v": 87
    },
    {
      "midi": 71,
      "hit": false,
      "t": 130388.02083333554,
      "d": 54.6875,
      "v": 90
    },
    {
      "midi": 71,
      "hit": false,
      "t": 130507.81250000221,
      "d": 57.29166666667152,
      "v": 98
    },
    {
      "midi": 71,
      "hit": false,
      "t": 130630.20833333555,
      "d": 62.5,
      "v": 90
    },
    {
      "midi": 75,
      "hit": false,
      "t": 130752.60416666888,
      "d": 125,
      "v": 87
    },
    {
      "midi": 80,
      "hit": false,
      "t": 130755.20833333555,
      "d": 125,
      "v": 87
    },
    {
      "midi": 83,
      "hit": false,
      "t": 130757.81250000223,
      "d": 125,
      "v": 87
    },
    {
      "midi": 71,
      "hit": false,
      "t": 130763.02083333555,
      "d": 52.08333333332848,
      "v": 95
    },
    {
      "midi": 71,
      "hit": false,
      "t": 130885.4166666689,
      "d": 54.6875,
      "v": 90
    },
    {
      "midi": 75,
      "hit": false,
      "t": 131252.6041666689,
      "d": 125,
      "v": 87
    },
    {
      "midi": 80,
      "hit": false,
      "t": 131255.20833333555,
      "d": 125,
      "v": 87
    },
    {
      "midi": 70,
      "hit": false,
      "t": 131257.8125000022,
      "d": 59.895833333343035,
      "v": 98
    },
    {
      "midi": 82,
      "hit": false,
      "t": 131257.8125000022,
      "d": 125,
      "v": 87
    },
    {
      "midi": 70,
      "hit": false,
      "t": 131388.02083333555,
      "d": 52.083333333343035,
      "v": 90
    },
    {
      "midi": 75,
      "hit": false,
      "t": 131752.6041666689,
      "d": 127.60416666665697,
      "v": 87
    },
    {
      "midi": 80,
      "hit": false,
      "t": 131755.20833333555,
      "d": 125,
      "v": 87
    },
    {
      "midi": 70,
      "hit": false,
      "t": 131757.8125000022,
      "d": 59.895833333343035,
      "v": 98
    },
    {
      "midi": 82,
      "hit": false,
      "t": 131757.8125000022,
      "d": 122.39583333334303,
      "v": 87
    },
    {
      "midi": 70,
      "hit": false,
      "t": 131888.02083333555,
      "d": 52.083333333343035,
      "v": 90
    },
    {
      "midi": 75,
      "hit": false,
      "t": 132255.20833333555,
      "d": 122.39583333331393,
      "v": 87
    },
    {
      "midi": 80,
      "hit": false,
      "t": 132255.20833333555,
      "d": 124.9999999999709,
      "v": 87
    },
    {
      "midi": 83,
      "hit": false,
      "t": 132257.8125000022,
      "d": 124.9999999999709,
      "v": 87
    },
    {
      "midi": 71,
      "hit": false,
      "t": 132265.6250000022,
      "d": 49.479166666656965,
      "v": 98
    },
    {
      "midi": 71,
      "hit": false,
      "t": 132385.41666666884,
      "d": 57.291666666656965,
      "v": 90
    },
    {
      "midi": 71,
      "hit": false,
      "t": 132507.81250000215,
      "d": 57.291666666656965,
      "v": 98
    },
    {
      "midi": 71,
      "hit": false,
      "t": 132630.20833333547,
      "d": 59.895833333343035,
      "v": 90
    },
    {
      "midi": 75,
      "hit": false,
      "t": 132752.6041666688,
      "d": 124.9999999999709,
      "v": 87
    },
    {
      "midi": 80,
      "hit": false,
      "t": 132755.20833333547,
      "d": 124.9999999999709,
      "v": 87
    },
    {
      "midi": 83,
      "hit": false,
      "t": 132757.81250000212,
      "d": 124.9999999999709,
      "v": 87
    },
    {
      "midi": 71,
      "hit": false,
      "t": 132760.41666666878,
      "d": 54.6875,
      "v": 95
    },
    {
      "midi": 71,
      "hit": false,
      "t": 132882.8125000021,
      "d": 57.291666666656965,
      "v": 90
    },
    {
      "midi": 75,
      "hit": false,
      "t": 133252.60416666875,
      "d": 125,
      "v": 87
    },
    {
      "midi": 80,
      "hit": false,
      "t": 133255.2083333354,
      "d": 125,
      "v": 87
    },
    {
      "midi": 70,
      "hit": false,
      "t": 133257.81250000207,
      "d": 59.895833333343035,
      "v": 98
    },
    {
      "midi": 82,
      "hit": false,
      "t": 133257.81250000207,
      "d": 125,
      "v": 87
    },
    {
      "midi": 70,
      "hit": false,
      "t": 133382.81250000207,
      "d": 57.291666666656965,
      "v": 90
    },
    {
      "midi": 75,
      "hit": false,
      "t": 133752.60416666872,
      "d": 125,
      "v": 87
    },
    {
      "midi": 80,
      "hit": false,
      "t": 133755.20833333538,
      "d": 125,
      "v": 87
    },
    {
      "midi": 70,
      "hit": false,
      "t": 133757.81250000204,
      "d": 59.895833333343035,
      "v": 98
    },
    {
      "midi": 82,
      "hit": false,
      "t": 133757.81250000204,
      "d": 122.39583333334303,
      "v": 87
    },
    {
      "midi": 70,
      "hit": false,
      "t": 133888.02083333538,
      "d": 52.083333333343035,
      "v": 90
    },
    {
      "midi": 73,
      "hit": false,
      "t": 134255.20833333538,
      "d": 122.39583333331393,
      "v": 87
    },
    {
      "midi": 78,
      "hit": false,
      "t": 134255.20833333538,
      "d": 124.9999999999709,
      "v": 87
    },
    {
      "midi": 70,
      "hit": false,
      "t": 134257.81250000204,
      "d": 57.291666666656965,
      "v": 98
    },
    {
      "midi": 82,
      "hit": false,
      "t": 134257.81250000204,
      "d": 124.9999999999709,
      "v": 87
    },
    {
      "midi": 70,
      "hit": false,
      "t": 134385.41666666867,
      "d": 57.291666666656965,
      "v": 90
    },
    {
      "midi": 70,
      "hit": false,
      "t": 134507.81250000198,
      "d": 59.895833333343035,
      "v": 98
    },
    {
      "midi": 70,
      "hit": false,
      "t": 134630.20833333532,
      "d": 59.895833333343035,
      "v": 90
    },
    {
      "midi": 73,
      "hit": false,
      "t": 134752.60416666867,
      "d": 125,
      "v": 87
    },
    {
      "midi": 78,
      "hit": false,
      "t": 134755.20833333532,
      "d": 125,
      "v": 87
    },
    {
      "midi": 82,
      "hit": false,
      "t": 134757.81250000198,
      "d": 125,
      "v": 87
    },
    {
      "midi": 70,
      "hit": false,
      "t": 134763.02083333532,
      "d": 52.083333333343035,
      "v": 95
    },
    {
      "midi": 70,
      "hit": false,
      "t": 134888.02083333532,
      "d": 54.6875,
      "v": 90
    },
    {
      "midi": 73,
      "hit": false,
      "t": 135252.60416666867,
      "d": 125,
      "v": 87
    },
    {
      "midi": 78,
      "hit": false,
      "t": 135255.20833333532,
      "d": 125,
      "v": 87
    },
    {
      "midi": 68,
      "hit": false,
      "t": 135257.81250000198,
      "d": 59.895833333343035,
      "v": 98
    },
    {
      "midi": 80,
      "hit": false,
      "t": 135257.81250000198,
      "d": 125,
      "v": 87
    },
    {
      "midi": 68,
      "hit": false,
      "t": 135385.41666666864,
      "d": 57.291666666656965,
      "v": 90
    },
    {
      "midi": 73,
      "hit": false,
      "t": 135752.60416666864,
      "d": 125,
      "v": 87
    },
    {
      "midi": 78,
      "hit": false,
      "t": 135755.2083333353,
      "d": 125,
      "v": 87
    },
    {
      "midi": 68,
      "hit": false,
      "t": 135757.81250000195,
      "d": 59.895833333343035,
      "v": 98
    },
    {
      "midi": 80,
      "hit": false,
      "t": 135757.81250000195,
      "d": 125,
      "v": 87
    },
    {
      "midi": 68,
      "hit": false,
      "t": 135885.4166666686,
      "d": 54.6875,
      "v": 90
    },
    {
      "midi": 73,
      "hit": false,
      "t": 136252.6041666686,
      "d": 124.9999999999709,
      "v": 87
    },
    {
      "midi": 78,
      "hit": false,
      "t": 136255.20833333526,
      "d": 124.9999999999709,
      "v": 87
    },
    {
      "midi": 70,
      "hit": false,
      "t": 136257.81250000192,
      "d": 57.291666666656965,
      "v": 98
    },
    {
      "midi": 82,
      "hit": false,
      "t": 136257.81250000192,
      "d": 124.9999999999709,
      "v": 87
    },
    {
      "midi": 70,
      "hit": false,
      "t": 136385.41666666855,
      "d": 57.291666666656965,
      "v": 90
    },
    {
      "midi": 70,
      "hit": false,
      "t": 136507.81250000186,
      "d": 59.895833333343035,
      "v": 98
    },
    {
      "midi": 70,
      "hit": false,
      "t": 136630.2083333352,
      "d": 59.895833333343035,
      "v": 90
    },
    {
      "midi": 73,
      "hit": false,
      "t": 136752.60416666855,
      "d": 124.9999999999709,
      "v": 87
    },
    {
      "midi": 78,
      "hit": false,
      "t": 136755.2083333352,
      "d": 124.9999999999709,
      "v": 87
    },
    {
      "midi": 82,
      "hit": false,
      "t": 136757.81250000186,
      "d": 124.9999999999709,
      "v": 87
    },
    {
      "midi": 70,
      "hit": false,
      "t": 136760.41666666852,
      "d": 57.291666666656965,
      "v": 95
    },
    {
      "midi": 70,
      "hit": false,
      "t": 136888.02083333518,
      "d": 54.6875,
      "v": 90
    },
    {
      "midi": 73,
      "hit": false,
      "t": 137252.60416666852,
      "d": 127.60416666665697,
      "v": 87
    },
    {
      "midi": 78,
      "hit": false,
      "t": 137255.20833333518,
      "d": 125,
      "v": 87
    },
    {
      "midi": 68,
      "hit": false,
      "t": 137257.81250000183,
      "d": 59.895833333343035,
      "v": 98
    },
    {
      "midi": 80,
      "hit": false,
      "t": 137257.81250000183,
      "d": 125,
      "v": 87
    },
    {
      "midi": 68,
      "hit": false,
      "t": 137385.4166666685,
      "d": 54.6875,
      "v": 90
    },
    {
      "midi": 73,
      "hit": false,
      "t": 137752.6041666685,
      "d": 124.9999999999709,
      "v": 87
    },
    {
      "midi": 78,
      "hit": false,
      "t": 137755.20833333515,
      "d": 124.9999999999709,
      "v": 87
    },
    {
      "midi": 68,
      "hit": false,
      "t": 137757.8125000018,
      "d": 57.291666666656965,
      "v": 98
    },
    {
      "midi": 80,
      "hit": false,
      "t": 137757.8125000018,
      "d": 124.9999999999709,
      "v": 87
    },
    {
      "midi": 68,
      "hit": false,
      "t": 137885.41666666843,
      "d": 54.6875,
      "v": 90
    },
    {
      "midi": 75,
      "hit": false,
      "t": 138252.60416666843,
      "d": 124.9999999999709,
      "v": 87
    },
    {
      "midi": 80,
      "hit": false,
      "t": 138255.2083333351,
      "d": 124.9999999999709,
      "v": 87
    },
    {
      "midi": 71,
      "hit": false,
      "t": 138257.81250000175,
      "d": 57.291666666656965,
      "v": 98
    },
    {
      "midi": 83,
      "hit": false,
      "t": 138257.81250000175,
      "d": 124.9999999999709,
      "v": 87
    },
    {
      "midi": 71,
      "hit": false,
      "t": 138382.81250000172,
      "d": 59.895833333343035,
      "v": 90
    },
    {
      "midi": 71,
      "hit": false,
      "t": 138507.81250000172,
      "d": 59.895833333343035,
      "v": 98
    },
    {
      "midi": 71,
      "hit": false,
      "t": 138630.20833333506,
      "d": 59.895833333343035,
      "v": 90
    },
    {
      "midi": 75,
      "hit": false,
      "t": 138752.6041666684,
      "d": 125,
      "v": 87
    },
    {
      "midi": 80,
      "hit": false,
      "t": 138755.20833333506,
      "d": 125,
      "v": 87
    },
    {
      "midi": 71,
      "hit": false,
      "t": 138757.81250000172,
      "d": 59.895833333343035,
      "v": 95
    },
    {
      "midi": 83,
      "hit": false,
      "t": 138757.81250000172,
      "d": 125,
      "v": 87
    },
    {
      "midi": 71,
      "hit": false,
      "t": 138882.81250000172,
      "d": 59.895833333343035,
      "v": 90
    },
    {
      "midi": 75,
      "hit": false,
      "t": 139252.6041666684,
      "d": 127.60416666665697,
      "v": 87
    },
    {
      "midi": 80,
      "hit": false,
      "t": 139255.20833333506,
      "d": 125,
      "v": 87
    },
    {
      "midi": 70,
      "hit": false,
      "t": 139257.81250000172,
      "d": 59.895833333343035,
      "v": 98
    },
    {
      "midi": 82,
      "hit": false,
      "t": 139257.81250000172,
      "d": 122.39583333334303,
      "v": 87
    },
    {
      "midi": 70,
      "hit": false,
      "t": 139388.02083333506,
      "d": 52.083333333343035,
      "v": 90
    },
    {
      "midi": 75,
      "hit": false,
      "t": 139755.20833333506,
      "d": 122.39583333334303,
      "v": 87
    },
    {
      "midi": 80,
      "hit": false,
      "t": 139755.20833333506,
      "d": 125,
      "v": 87
    },
    {
      "midi": 82,
      "hit": false,
      "t": 139755.20833333506,
      "d": 127.60416666665697,
      "v": 87
    },
    {
      "midi": 70,
      "hit": false,
      "t": 139763.02083333506,
      "d": 52.083333333343035,
      "v": 98
    },
    {
      "midi": 70,
      "hit": false,
      "t": 139885.41666666837,
      "d": 54.6875,
      "v": 90
    },
    {
      "midi": 75,
      "hit": false,
      "t": 140252.60416666837,
      "d": 124.9999999999709,
      "v": 87
    },
    {
      "midi": 80,
      "hit": false,
      "t": 140255.20833333503,
      "d": 124.9999999999709,
      "v": 87
    },
    {
      "midi": 71,
      "hit": false,
      "t": 140257.8125000017,
      "d": 57.291666666656965,
      "v": 98
    },
    {
      "midi": 83,
      "hit": false,
      "t": 140257.8125000017,
      "d": 124.9999999999709,
      "v": 87
    },
    {
      "midi": 71,
      "hit": false,
      "t": 140388.020833335,
      "d": 54.6875,
      "v": 90
    },
    {
      "midi": 71,
      "hit": false,
      "t": 140507.81250000166,
      "d": 59.895833333343035,
      "v": 98
    },
    {
      "midi": 71,
      "hit": false,
      "t": 140630.208333335,
      "d": 62.5,
      "v": 90
    },
    {
      "midi": 75,
      "hit": false,
      "t": 140752.60416666834,
      "d": 124.9999999999709,
      "v": 87
    },
    {
      "midi": 80,
      "hit": false,
      "t": 140755.208333335,
      "d": 124.9999999999709,
      "v": 87
    },
    {
      "midi": 83,
      "hit": false,
      "t": 140757.81250000166,
      "d": 124.9999999999709,
      "v": 87
    },
    {
      "midi": 71,
      "hit": false,
      "t": 140760.41666666832,
      "d": 57.291666666656965,
      "v": 95
    },
    {
      "midi": 71,
      "hit": false,
      "t": 140885.4166666683,
      "d": 57.291666666656965,
      "v": 90
    },
    {
      "midi": 75,
      "hit": false,
      "t": 141252.6041666683,
      "d": 125,
      "v": 87
    },
    {
      "midi": 80,
      "hit": false,
      "t": 141255.20833333494,
      "d": 125,
      "v": 87
    },
    {
      "midi": 70,
      "hit": false,
      "t": 141257.8125000016,
      "d": 59.895833333343035,
      "v": 98
    },
    {
      "midi": 82,
      "hit": false,
      "t": 141257.8125000016,
      "d": 125,
      "v": 87
    },
    {
      "midi": 70,
      "hit": false,
      "t": 141385.41666666826,
      "d": 54.6875,
      "v": 90
    },
    {
      "midi": 75,
      "hit": false,
      "t": 141752.60416666826,
      "d": 124.9999999999709,
      "v": 87
    },
    {
      "midi": 80,
      "hit": false,
      "t": 141755.20833333491,
      "d": 124.9999999999709,
      "v": 87
    },
    {
      "midi": 70,
      "hit": false,
      "t": 141757.81250000157,
      "d": 57.291666666656965,
      "v": 98
    },
    {
      "midi": 82,
      "hit": false,
      "t": 141757.81250000157,
      "d": 124.9999999999709,
      "v": 87
    },
    {
      "midi": 70,
      "hit": false,
      "t": 141885.4166666682,
      "d": 54.6875,
      "v": 90
    },
    {
      "midi": 75,
      "hit": false,
      "t": 142007.81250000154,
      "d": 122.39583333334303,
      "v": 87
    },
    {
      "midi": 80,
      "hit": false,
      "t": 142013.0208333349,
      "d": 117.1875,
      "v": 87
    },
    {
      "midi": 83,
      "hit": false,
      "t": 142013.0208333349,
      "d": 117.1875,
      "v": 87
    },
    {
      "midi": 75,
      "hit": false,
      "t": 142252.60416666823,
      "d": 124.9999999999709,
      "v": 87
    },
    {
      "midi": 80,
      "hit": false,
      "t": 142255.2083333349,
      "d": 124.9999999999709,
      "v": 87
    },
    {
      "midi": 83,
      "hit": false,
      "t": 142257.81250000154,
      "d": 124.9999999999709,
      "v": 87
    },
    {
      "midi": 71,
      "hit": false,
      "t": 142260.4166666682,
      "d": 57.291666666656965,
      "v": 98
    },
    {
      "midi": 71,
      "hit": false,
      "t": 142388.02083333486,
      "d": 54.6875,
      "v": 90
    },
    {
      "midi": 71,
      "hit": false,
      "t": 142507.8125000015,
      "d": 57.291666666656965,
      "v": 98
    },
    {
      "midi": 71,
      "hit": false,
      "t": 142630.20833333483,
      "d": 62.5,
      "v": 90
    },
    {
      "midi": 75,
      "hit": false,
      "t": 142752.60416666817,
      "d": 125,
      "v": 87
    },
    {
      "midi": 80,
      "hit": false,
      "t": 142755.20833333483,
      "d": 125,
      "v": 87
    },
    {
      "midi": 83,
      "hit": false,
      "t": 142757.81250000148,
      "d": 125,
      "v": 87
    },
    {
      "midi": 71,
      "hit": false,
      "t": 142765.62500000148,
      "d": 52.083333333343035,
      "v": 95
    },
    {
      "midi": 71,
      "hit": false,
      "t": 142885.41666666814,
      "d": 54.6875,
      "v": 90
    },
    {
      "midi": 75,
      "hit": false,
      "t": 143255.2083333348,
      "d": 122.39583333334303,
      "v": 87
    },
    {
      "midi": 80,
      "hit": false,
      "t": 143255.2083333348,
      "d": 125,
      "v": 87
    },
    {
      "midi": 82,
      "hit": false,
      "t": 143255.2083333348,
      "d": 127.60416666665697,
      "v": 87
    },
    {
      "midi": 70,
      "hit": false,
      "t": 143265.62500000146,
      "d": 52.083333333343035,
      "v": 98
    },
    {
      "midi": 70,
      "hit": false,
      "t": 143388.0208333348,
      "d": 52.083333333343035,
      "v": 90
    },
    {
      "midi": 75,
      "hit": false,
      "t": 143752.60416666814,
      "d": 124.9999999999709,
      "v": 87
    },
    {
      "midi": 80,
      "hit": false,
      "t": 143755.2083333348,
      "d": 124.9999999999709,
      "v": 87
    },
    {
      "midi": 70,
      "hit": false,
      "t": 143757.81250000146,
      "d": 57.291666666656965,
      "v": 98
    },
    {
      "midi": 82,
      "hit": false,
      "t": 143757.81250000146,
      "d": 124.9999999999709,
      "v": 87
    },
    {
      "midi": 70,
      "hit": false,
      "t": 143885.41666666808,
      "d": 54.6875,
      "v": 90
    },
    {
      "midi": 75,
      "hit": false,
      "t": 144252.60416666808,
      "d": 125,
      "v": 87
    },
    {
      "midi": 80,
      "hit": false,
      "t": 144255.20833333474,
      "d": 125,
      "v": 87
    },
    {
      "midi": 71,
      "hit": false,
      "t": 144257.8125000014,
      "d": 59.895833333343035,
      "v": 98
    },
    {
      "midi": 83,
      "hit": false,
      "t": 144257.8125000014,
      "d": 125,
      "v": 87
    },
    {
      "midi": 71,
      "hit": false,
      "t": 144385.41666666805,
      "d": 57.291666666656965,
      "v": 90
    },
    {
      "midi": 71,
      "hit": false,
      "t": 144507.81250000137,
      "d": 57.291666666656965,
      "v": 98
    },
    {
      "midi": 71,
      "hit": false,
      "t": 144630.20833333468,
      "d": 62.5,
      "v": 90
    },
    {
      "midi": 75,
      "hit": false,
      "t": 144752.60416666802,
      "d": 125,
      "v": 87
    },
    {
      "midi": 80,
      "hit": false,
      "t": 144755.20833333468,
      "d": 125,
      "v": 87
    },
    {
      "midi": 71,
      "hit": false,
      "t": 144757.81250000134,
      "d": 59.895833333343035,
      "v": 95
    },
    {
      "midi": 83,
      "hit": false,
      "t": 144757.81250000134,
      "d": 125,
      "v": 87
    },
    {
      "midi": 71,
      "hit": false,
      "t": 144885.416666668,
      "d": 54.6875,
      "v": 90
    },
    {
      "midi": 70,
      "hit": false,
      "t": 145007.81250000134,
      "d": 59.895833333343035,
      "v": 98
    },
    {
      "midi": 75,
      "hit": false,
      "t": 145255.20833333468,
      "d": 122.39583333331393,
      "v": 87
    },
    {
      "midi": 80,
      "hit": false,
      "t": 145255.20833333468,
      "d": 124.9999999999709,
      "v": 87
    },
    {
      "midi": 70,
      "hit": false,
      "t": 145257.81250000134,
      "d": 57.291666666656965,
      "v": 98
    },
    {
      "midi": 82,
      "hit": false,
      "t": 145257.81250000134,
      "d": 122.39583333331393,
      "v": 87
    },
    {
      "midi": 70,
      "hit": false,
      "t": 145388.02083333465,
      "d": 52.083333333343035,
      "v": 90
    },
    {
      "midi": 71,
      "hit": false,
      "t": 145507.81250000134,
      "d": 59.895833333343035,
      "v": 98
    },
    {
      "midi": 75,
      "hit": false,
      "t": 145752.60416666802,
      "d": 124.9999999999709,
      "v": 87
    },
    {
      "midi": 80,
      "hit": false,
      "t": 145755.20833333468,
      "d": 124.9999999999709,
      "v": 87
    },
    {
      "midi": 70,
      "hit": false,
      "t": 145757.81250000134,
      "d": 57.291666666656965,
      "v": 98
    },
    {
      "midi": 82,
      "hit": false,
      "t": 145757.81250000134,
      "d": 124.9999999999709,
      "v": 87
    },
    {
      "midi": 70,
      "hit": false,
      "t": 145888.02083333465,
      "d": 52.083333333343035,
      "v": 90
    },
    {
      "midi": 76,
      "hit": false,
      "t": 146007.81250000134,
      "d": 119.79166666668607,
      "v": 87
    },
    {
      "midi": 80,
      "hit": false,
      "t": 146013.02083333468,
      "d": 117.1875,
      "v": 87
    },
    {
      "midi": 83,
      "hit": false,
      "t": 146013.02083333468,
      "d": 117.1875,
      "v": 87
    },
    {
      "midi": 76,
      "hit": false,
      "t": 146252.60416666802,
      "d": 125,
      "v": 87
    },
    {
      "midi": 80,
      "hit": false,
      "t": 146255.20833333468,
      "d": 125,
      "v": 87
    },
    {
      "midi": 71,
      "hit": false,
      "t": 146257.81250000134,
      "d": 59.895833333343035,
      "v": 98
    },
    {
      "midi": 83,
      "hit": false,
      "t": 146257.81250000134,
      "d": 122.39583333334303,
      "v": 87
    },
    {
      "midi": 71,
      "hit": false,
      "t": 146388.02083333468,
      "d": 54.6875,
      "v": 90
    },
    {
      "midi": 71,
      "hit": false,
      "t": 146507.81250000134,
      "d": 57.291666666656965,
      "v": 98
    },
    {
      "midi": 71,
      "hit": false,
      "t": 146630.20833333465,
      "d": 62.5,
      "v": 90
    },
    {
      "midi": 76,
      "hit": false,
      "t": 146752.604166668,
      "d": 125,
      "v": 87
    },
    {
      "midi": 80,
      "hit": false,
      "t": 146755.20833333465,
      "d": 125,
      "v": 87
    },
    {
      "midi": 71,
      "hit": false,
      "t": 146757.8125000013,
      "d": 59.895833333343035,
      "v": 95
    },
    {
      "midi": 83,
      "hit": false,
      "t": 146757.8125000013,
      "d": 125,
      "v": 87
    },
    {
      "midi": 71,
      "hit": false,
      "t": 146885.41666666797,
      "d": 54.6875,
      "v": 90
    },
    {
      "midi": 76,
      "hit": false,
      "t": 147252.60416666797,
      "d": 124.9999999999709,
      "v": 87
    },
    {
      "midi": 80,
      "hit": false,
      "t": 147255.20833333462,
      "d": 124.9999999999709,
      "v": 87
    },
    {
      "midi": 70,
      "hit": false,
      "t": 147257.81250000128,
      "d": 57.291666666656965,
      "v": 98
    },
    {
      "midi": 82,
      "hit": false,
      "t": 147257.81250000128,
      "d": 124.9999999999709,
      "v": 87
    },
    {
      "midi": 70,
      "hit": false,
      "t": 147385.4166666679,
      "d": 54.6875,
      "v": 90
    },
    {
      "midi": 76,
      "hit": false,
      "t": 147752.6041666679,
      "d": 124.9999999999709,
      "v": 87
    },
    {
      "midi": 80,
      "hit": false,
      "t": 147755.20833333457,
      "d": 124.9999999999709,
      "v": 87
    },
    {
      "midi": 70,
      "hit": false,
      "t": 147757.81250000122,
      "d": 57.291666666656965,
      "v": 98
    },
    {
      "midi": 82,
      "hit": false,
      "t": 147757.81250000122,
      "d": 124.9999999999709,
      "v": 87
    },
    {
      "midi": 70,
      "hit": false,
      "t": 147885.41666666785,
      "d": 54.6875,
      "v": 90
    },
    {
      "midi": 76,
      "hit": false,
      "t": 148252.60416666785,
      "d": 125,
      "v": 87
    },
    {
      "midi": 80,
      "hit": false,
      "t": 148255.2083333345,
      "d": 125,
      "v": 87
    },
    {
      "midi": 71,
      "hit": false,
      "t": 148257.81250000116,
      "d": 59.895833333343035,
      "v": 98
    },
    {
      "midi": 83,
      "hit": false,
      "t": 148257.81250000116,
      "d": 122.39583333334303,
      "v": 87
    },
    {
      "midi": 71,
      "hit": false,
      "t": 148388.0208333345,
      "d": 54.6875,
      "v": 90
    },
    {
      "midi": 71,
      "hit": false,
      "t": 148507.81250000116,
      "d": 57.291666666656965,
      "v": 98
    },
    {
      "midi": 71,
      "hit": false,
      "t": 148630.20833333448,
      "d": 62.5,
      "v": 90
    },
    {
      "midi": 76,
      "hit": false,
      "t": 148755.20833333448,
      "d": 122.39583333334303,
      "v": 87
    },
    {
      "midi": 80,
      "hit": false,
      "t": 148755.20833333448,
      "d": 125,
      "v": 87
    },
    {
      "midi": 83,
      "hit": false,
      "t": 148755.20833333448,
      "d": 127.60416666665697,
      "v": 87
    },
    {
      "midi": 71,
      "hit": false,
      "t": 148765.62500000114,
      "d": 52.083333333343035,
      "v": 95
    },
    {
      "midi": 71,
      "hit": false,
      "t": 148888.02083333448,
      "d": 52.083333333343035,
      "v": 90
    },
    {
      "midi": 70,
      "hit": false,
      "t": 149005.20833333448,
      "d": 62.5,
      "v": 98
    },
    {
      "midi": 76,
      "hit": false,
      "t": 149252.60416666782,
      "d": 124.9999999999709,
      "v": 87
    },
    {
      "midi": 80,
      "hit": false,
      "t": 149255.20833333448,
      "d": 124.9999999999709,
      "v": 87
    },
    {
      "midi": 70,
      "hit": false,
      "t": 149257.81250000114,
      "d": 57.291666666656965,
      "v": 98
    },
    {
      "midi": 82,
      "hit": false,
      "t": 149257.81250000114,
      "d": 124.9999999999709,
      "v": 87
    },
    {
      "midi": 70,
      "hit": false,
      "t": 149385.41666666776,
      "d": 54.6875,
      "v": 90
    },
    {
      "midi": 71,
      "hit": false,
      "t": 149507.8125000011,
      "d": 59.895833333343035,
      "v": 98
    },
    {
      "midi": 76,
      "hit": false,
      "t": 149752.6041666678,
      "d": 125,
      "v": 87
    },
    {
      "midi": 80,
      "hit": false,
      "t": 149755.20833333445,
      "d": 125,
      "v": 87
    },
    {
      "midi": 70,
      "hit": false,
      "t": 149757.8125000011,
      "d": 59.895833333343035,
      "v": 98
    },
    {
      "midi": 82,
      "hit": false,
      "t": 149757.8125000011,
      "d": 125,
      "v": 87
    },
    {
      "midi": 70,
      "hit": false,
      "t": 149882.8125000011,
      "d": 57.291666666656965,
      "v": 90
    },
    {
      "midi": 73,
      "hit": false,
      "t": 150007.8125000011,
      "d": 119.79166666665697,
      "v": 87
    },
    {
      "midi": 78,
      "hit": false,
      "t": 150013.02083333445,
      "d": 117.1874999999709,
      "v": 87
    },
    {
      "midi": 80,
      "hit": false,
      "t": 150015.6250000011,
      "d": 114.58333333331393,
      "v": 87
    },
    {
      "midi": 82,
      "hit": false,
      "t": 150015.6250000011,
      "d": 117.1874999999709,
      "v": 87
    },
    {
      "midi": 73,
      "hit": false,
      "t": 150252.60416666773,
      "d": 127.60416666665697,
      "v": 87
    },
    {
      "midi": 78,
      "hit": false,
      "t": 150255.2083333344,
      "d": 125,
      "v": 87
    },
    {
      "midi": 70,
      "hit": false,
      "t": 150257.81250000105,
      "d": 59.895833333343035,
      "v": 98
    },
    {
      "midi": 80,
      "hit": false,
      "t": 150257.81250000105,
      "d": 125,
      "v": 87
    },
    {
      "midi": 82,
      "hit": false,
      "t": 150257.81250000105,
      "d": 125,
      "v": 87
    },
    {
      "midi": 70,
      "hit": false,
      "t": 150385.4166666677,
      "d": 54.6875,
      "v": 90
    },
    {
      "midi": 70,
      "hit": false,
      "t": 150507.81250000105,
      "d": 57.291666666656965,
      "v": 98
    },
    {
      "midi": 70,
      "hit": false,
      "t": 150630.20833333436,
      "d": 62.5,
      "v": 90
    },
    {
      "midi": 73,
      "hit": false,
      "t": 150752.6041666677,
      "d": 124.9999999999709,
      "v": 87
    },
    {
      "midi": 78,
      "hit": false,
      "t": 150755.20833333436,
      "d": 124.9999999999709,
      "v": 87
    },
    {
      "midi": 80,
      "hit": false,
      "t": 150755.20833333436,
      "d": 127.60416666662786,
      "v": 87
    },
    {
      "midi": 70,
      "hit": false,
      "t": 150757.81250000102,
      "d": 57.291666666656965,
      "v": 95
    },
    {
      "midi": 82,
      "hit": false,
      "t": 150757.81250000102,
      "d": 124.9999999999709,
      "v": 87
    },
    {
      "midi": 70,
      "hit": false,
      "t": 150885.41666666765,
      "d": 54.6875,
      "v": 90
    },
    {
      "midi": 73,
      "hit": false,
      "t": 151252.60416666765,
      "d": 124.9999999999709,
      "v": 87
    },
    {
      "midi": 78,
      "hit": false,
      "t": 151255.2083333343,
      "d": 124.9999999999709,
      "v": 87
    },
    {
      "midi": 80,
      "hit": false,
      "t": 151257.81250000096,
      "d": 124.9999999999709,
      "v": 87
    },
    {
      "midi": 82,
      "hit": false,
      "t": 151257.81250000096,
      "d": 124.9999999999709,
      "v": 87
    },
    {
      "midi": 68,
      "hit": false,
      "t": 151260.41666666762,
      "d": 54.6875,
      "v": 98
    },
    {
      "midi": 68,
      "hit": false,
      "t": 151385.4166666676,
      "d": 54.6875,
      "v": 90
    },
    {
      "midi": 73,
      "hit": false,
      "t": 151752.6041666676,
      "d": 125,
      "v": 87
    },
    {
      "midi": 78,
      "hit": false,
      "t": 151755.20833333425,
      "d": 125,
      "v": 87
    },
    {
      "midi": 68,
      "hit": false,
      "t": 151757.8125000009,
      "d": 59.895833333343035,
      "v": 98
    },
    {
      "midi": 80,
      "hit": false,
      "t": 151757.8125000009,
      "d": 125,
      "v": 87
    },
    {
      "midi": 82,
      "hit": false,
      "t": 151757.8125000009,
      "d": 125,
      "v": 87
    },
    {
      "midi": 68,
      "hit": false,
      "t": 151885.41666666756,
      "d": 54.6875,
      "v": 90
    },
    {
      "midi": 73,
      "hit": false,
      "t": 152013.02083333422,
      "d": 114.58333333334303,
      "v": 87
    },
    {
      "midi": 78,
      "hit": false,
      "t": 152013.02083333422,
      "d": 117.1875,
      "v": 87
    },
    {
      "midi": 80,
      "hit": false,
      "t": 152013.02083333422,
      "d": 119.79166666665697,
      "v": 87
    },
    {
      "midi": 82,
      "hit": false,
      "t": 152020.83333333422,
      "d": 111.97916666665697,
      "v": 87
    },
    {
      "midi": 71,
      "hit": false,
      "t": 154127.60416666753,
      "d": 125,
      "v": 77
    },
    {
      "midi": 76,
      "hit": false,
      "t": 154130.2083333342,
      "d": 125,
      "v": 77
    },
    {
      "midi": 80,
      "hit": false,
      "t": 154130.2083333342,
      "d": 125,
      "v": 77
    },
    {
      "midi": 71,
      "hit": false,
      "t": 154257.81250000084,
      "d": 119.79166666665697,
      "v": 102
    },
    {
      "midi": 76,
      "hit": false,
      "t": 154257.81250000084,
      "d": 122.39583333331393,
      "v": 102
    },
    {
      "midi": 80,
      "hit": false,
      "t": 154260.4166666675,
      "d": 119.79166666665697,
      "v": 102
    },
    {
      "midi": 71,
      "hit": false,
      "t": 154382.81250000081,
      "d": 122.39583333334303,
      "v": 77
    },
    {
      "midi": 76,
      "hit": false,
      "t": 154382.81250000081,
      "d": 125,
      "v": 77
    },
    {
      "midi": 80,
      "hit": false,
      "t": 154382.81250000081,
      "d": 125,
      "v": 77
    },
    {
      "midi": 71,
      "hit": false,
      "t": 154510.41666666747,
      "d": 119.79166666665697,
      "v": 102
    },
    {
      "midi": 76,
      "hit": false,
      "t": 154510.41666666747,
      "d": 119.79166666665697,
      "v": 102
    },
    {
      "midi": 80,
      "hit": false,
      "t": 154510.41666666747,
      "d": 119.79166666665697,
      "v": 102
    },
    {
      "midi": 71,
      "hit": false,
      "t": 154632.8125000008,
      "d": 119.79166666665697,
      "v": 87
    },
    {
      "midi": 76,
      "hit": false,
      "t": 154632.8125000008,
      "d": 122.39583333331393,
      "v": 87
    },
    {
      "midi": 80,
      "hit": false,
      "t": 154632.8125000008,
      "d": 122.39583333331393,
      "v": 87
    },
    {
      "midi": 71,
      "hit": false,
      "t": 154757.81250000076,
      "d": 119.79166666665697,
      "v": 82
    },
    {
      "midi": 76,
      "hit": false,
      "t": 154757.81250000076,
      "d": 122.39583333331393,
      "v": 82
    },
    {
      "midi": 80,
      "hit": false,
      "t": 154760.4166666674,
      "d": 119.79166666665697,
      "v": 82
    },
    {
      "midi": 71,
      "hit": false,
      "t": 154882.81250000073,
      "d": 122.39583333331393,
      "v": 77
    },
    {
      "midi": 76,
      "hit": false,
      "t": 154882.81250000073,
      "d": 124.9999999999709,
      "v": 77
    },
    {
      "midi": 80,
      "hit": false,
      "t": 154885.41666666738,
      "d": 122.39583333331393,
      "v": 77
    },
    {
      "midi": 71,
      "hit": false,
      "t": 155252.60416666736,
      "d": 124.9999999999709,
      "v": 102
    },
    {
      "midi": 76,
      "hit": false,
      "t": 155255.208333334,
      "d": 124.9999999999709,
      "v": 102
    },
    {
      "midi": 80,
      "hit": false,
      "t": 155257.81250000067,
      "d": 122.39583333331393,
      "v": 102
    },
    {
      "midi": 71,
      "hit": false,
      "t": 155382.81250000064,
      "d": 122.39583333334303,
      "v": 92
    },
    {
      "midi": 76,
      "hit": false,
      "t": 155382.81250000064,
      "d": 122.39583333334303,
      "v": 92
    },
    {
      "midi": 80,
      "hit": false,
      "t": 155382.81250000064,
      "d": 125,
      "v": 92
    },
    {
      "midi": 68,
      "hit": false,
      "t": 156127.6041666673,
      "d": 125,
      "v": 77
    },
    {
      "midi": 73,
      "hit": false,
      "t": 156130.20833333395,
      "d": 125,
      "v": 77
    },
    {
      "midi": 76,
      "hit": false,
      "t": 156130.20833333395,
      "d": 125,
      "v": 77
    },
    {
      "midi": 68,
      "hit": false,
      "t": 156257.8125000006,
      "d": 119.79166666665697,
      "v": 102
    },
    {
      "midi": 73,
      "hit": false,
      "t": 156257.8125000006,
      "d": 122.39583333331393,
      "v": 102
    },
    {
      "midi": 76,
      "hit": false,
      "t": 156260.41666666727,
      "d": 119.79166666665697,
      "v": 102
    },
    {
      "midi": 68,
      "hit": false,
      "t": 156382.81250000058,
      "d": 122.39583333334303,
      "v": 77
    },
    {
      "midi": 73,
      "hit": false,
      "t": 156382.81250000058,
      "d": 125,
      "v": 77
    },
    {
      "midi": 76,
      "hit": false,
      "t": 156382.81250000058,
      "d": 125,
      "v": 77
    },
    {
      "midi": 68,
      "hit": false,
      "t": 156510.41666666724,
      "d": 119.79166666665697,
      "v": 102
    },
    {
      "midi": 73,
      "hit": false,
      "t": 156510.41666666724,
      "d": 119.79166666665697,
      "v": 102
    },
    {
      "midi": 76,
      "hit": false,
      "t": 156510.41666666724,
      "d": 119.79166666665697,
      "v": 102
    },
    {
      "midi": 68,
      "hit": false,
      "t": 156632.81250000055,
      "d": 119.79166666665697,
      "v": 87
    },
    {
      "midi": 73,
      "hit": false,
      "t": 156632.81250000055,
      "d": 122.39583333331393,
      "v": 87
    },
    {
      "midi": 76,
      "hit": false,
      "t": 156632.81250000055,
      "d": 122.39583333331393,
      "v": 87
    },
    {
      "midi": 68,
      "hit": false,
      "t": 156757.81250000052,
      "d": 119.79166666665697,
      "v": 82
    },
    {
      "midi": 73,
      "hit": false,
      "t": 156757.81250000052,
      "d": 122.39583333331393,
      "v": 82
    },
    {
      "midi": 76,
      "hit": false,
      "t": 156760.41666666718,
      "d": 119.79166666665697,
      "v": 82
    },
    {
      "midi": 68,
      "hit": false,
      "t": 156882.8125000005,
      "d": 122.39583333331393,
      "v": 77
    },
    {
      "midi": 73,
      "hit": false,
      "t": 156882.8125000005,
      "d": 124.9999999999709,
      "v": 77
    },
    {
      "midi": 76,
      "hit": false,
      "t": 156885.41666666715,
      "d": 122.39583333331393,
      "v": 77
    },
    {
      "midi": 68,
      "hit": false,
      "t": 157252.60416666712,
      "d": 124.9999999999709,
      "v": 102
    },
    {
      "midi": 73,
      "hit": false,
      "t": 157255.20833333378,
      "d": 124.9999999999709,
      "v": 102
    },
    {
      "midi": 76,
      "hit": false,
      "t": 157257.81250000044,
      "d": 122.39583333331393,
      "v": 102
    },
    {
      "midi": 68,
      "hit": false,
      "t": 157382.8125000004,
      "d": 122.39583333334303,
      "v": 92
    },
    {
      "midi": 73,
      "hit": false,
      "t": 157382.8125000004,
      "d": 125,
      "v": 92
    },
    {
      "midi": 76,
      "hit": false,
      "t": 157382.8125000004,
      "d": 125,
      "v": 92
    },
    {
      "midi": 68,
      "hit": false,
      "t": 157752.60416666706,
      "d": 127.60416666665697,
      "v": 92
    },
    {
      "midi": 73,
      "hit": false,
      "t": 157755.20833333372,
      "d": 125,
      "v": 92
    },
    {
      "midi": 76,
      "hit": false,
      "t": 157757.81250000038,
      "d": 122.39583333334303,
      "v": 92
    },
    {
      "midi": 68,
      "hit": false,
      "t": 157882.81250000038,
      "d": 122.39583333334303,
      "v": 92
    },
    {
      "midi": 73,
      "hit": false,
      "t": 157882.81250000038,
      "d": 125,
      "v": 92
    },
    {
      "midi": 76,
      "hit": false,
      "t": 157882.81250000038,
      "d": 127.60416666665697,
      "v": 92
    },
    {
      "midi": 70,
      "hit": false,
      "t": 158130.2083333337,
      "d": 122.39583333334303,
      "v": 77
    },
    {
      "midi": 73,
      "hit": false,
      "t": 158130.2083333337,
      "d": 125,
      "v": 77
    },
    {
      "midi": 78,
      "hit": false,
      "t": 158130.2083333337,
      "d": 125,
      "v": 77
    },
    {
      "midi": 70,
      "hit": false,
      "t": 158257.81250000035,
      "d": 119.79166666665697,
      "v": 102
    },
    {
      "midi": 73,
      "hit": false,
      "t": 158257.81250000035,
      "d": 122.39583333331393,
      "v": 102
    },
    {
      "midi": 78,
      "hit": false,
      "t": 158260.416666667,
      "d": 119.79166666665697,
      "v": 102
    },
    {
      "midi": 70,
      "hit": false,
      "t": 158382.81250000032,
      "d": 122.39583333334303,
      "v": 77
    },
    {
      "midi": 73,
      "hit": false,
      "t": 158382.81250000032,
      "d": 125,
      "v": 77
    },
    {
      "midi": 78,
      "hit": false,
      "t": 158382.81250000032,
      "d": 125,
      "v": 77
    },
    {
      "midi": 70,
      "hit": false,
      "t": 158510.41666666698,
      "d": 119.79166666665697,
      "v": 102
    },
    {
      "midi": 73,
      "hit": false,
      "t": 158510.41666666698,
      "d": 119.79166666665697,
      "v": 102
    },
    {
      "midi": 78,
      "hit": false,
      "t": 158510.41666666698,
      "d": 119.79166666665697,
      "v": 102
    },
    {
      "midi": 70,
      "hit": false,
      "t": 158632.8125000003,
      "d": 119.79166666665697,
      "v": 87
    },
    {
      "midi": 73,
      "hit": false,
      "t": 158632.8125000003,
      "d": 122.39583333331393,
      "v": 87
    },
    {
      "midi": 78,
      "hit": false,
      "t": 158635.41666666695,
      "d": 119.79166666665697,
      "v": 87
    },
    {
      "midi": 70,
      "hit": false,
      "t": 158757.81250000026,
      "d": 119.79166666665697,
      "v": 82
    },
    {
      "midi": 73,
      "hit": false,
      "t": 158757.81250000026,
      "d": 122.39583333331393,
      "v": 82
    },
    {
      "midi": 78,
      "hit": false,
      "t": 158760.41666666692,
      "d": 119.79166666665697,
      "v": 82
    },
    {
      "midi": 70,
      "hit": false,
      "t": 158882.81250000023,
      "d": 122.39583333331393,
      "v": 77
    },
    {
      "midi": 73,
      "hit": false,
      "t": 158882.81250000023,
      "d": 124.9999999999709,
      "v": 77
    },
    {
      "midi": 78,
      "hit": false,
      "t": 158885.4166666669,
      "d": 122.39583333331393,
      "v": 77
    },
    {
      "midi": 70,
      "hit": false,
      "t": 159255.20833333355,
      "d": 122.39583333331393,
      "v": 102
    },
    {
      "midi": 73,
      "hit": false,
      "t": 159255.20833333355,
      "d": 124.9999999999709,
      "v": 102
    },
    {
      "midi": 78,
      "hit": false,
      "t": 159257.8125000002,
      "d": 122.39583333331393,
      "v": 102
    },
    {
      "midi": 70,
      "hit": false,
      "t": 159382.81250000017,
      "d": 122.39583333334303,
      "v": 92
    },
    {
      "midi": 73,
      "hit": false,
      "t": 159382.81250000017,
      "d": 122.39583333334303,
      "v": 92
    },
    {
      "midi": 78,
      "hit": false,
      "t": 159382.81250000017,
      "d": 125,
      "v": 92
    },
    {
      "midi": 70,
      "hit": false,
      "t": 160130.20833333352,
      "d": 125,
      "v": 77
    },
    {
      "midi": 75,
      "hit": false,
      "t": 160130.20833333352,
      "d": 125,
      "v": 77
    },
    {
      "midi": 78,
      "hit": false,
      "t": 160130.20833333352,
      "d": 125,
      "v": 77
    },
    {
      "midi": 70,
      "hit": false,
      "t": 160257.81250000017,
      "d": 119.79166666665697,
      "v": 102
    },
    {
      "midi": 75,
      "hit": false,
      "t": 160257.81250000017,
      "d": 122.39583333331393,
      "v": 102
    },
    {
      "midi": 78,
      "hit": false,
      "t": 160260.41666666683,
      "d": 119.79166666665697,
      "v": 102
    },
    {
      "midi": 70,
      "hit": false,
      "t": 160382.81250000015,
      "d": 122.39583333331393,
      "v": 77
    },
    {
      "midi": 75,
      "hit": false,
      "t": 160382.81250000015,
      "d": 124.9999999999709,
      "v": 77
    },
    {
      "midi": 78,
      "hit": false,
      "t": 160385.4166666668,
      "d": 122.39583333331393,
      "v": 77
    },
    {
      "midi": 70,
      "hit": false,
      "t": 160510.41666666677,
      "d": 119.79166666665697,
      "v": 102
    },
    {
      "midi": 75,
      "hit": false,
      "t": 160510.41666666677,
      "d": 119.79166666665697,
      "v": 102
    },
    {
      "midi": 78,
      "hit": false,
      "t": 160513.02083333343,
      "d": 117.1875,
      "v": 102
    },
    {
      "midi": 70,
      "hit": false,
      "t": 160632.8125000001,
      "d": 122.39583333331393,
      "v": 87
    },
    {
      "midi": 75,
      "hit": false,
      "t": 160632.8125000001,
      "d": 122.39583333331393,
      "v": 87
    },
    {
      "midi": 78,
      "hit": false,
      "t": 160635.41666666674,
      "d": 119.79166666665697,
      "v": 87
    },
    {
      "midi": 70,
      "hit": false,
      "t": 160757.81250000006,
      "d": 119.79166666665697,
      "v": 82
    },
    {
      "midi": 75,
      "hit": false,
      "t": 160760.41666666672,
      "d": 119.79166666665697,
      "v": 82
    },
    {
      "midi": 78,
      "hit": false,
      "t": 160760.41666666672,
      "d": 119.79166666665697,
      "v": 82
    },
    {
      "midi": 70,
      "hit": false,
      "t": 160882.81250000003,
      "d": 122.39583333334303,
      "v": 77
    },
    {
      "midi": 75,
      "hit": false,
      "t": 160882.81250000003,
      "d": 125,
      "v": 77
    },
    {
      "midi": 78,
      "hit": false,
      "t": 160882.81250000003,
      "d": 125,
      "v": 77
    },
    {
      "midi": 70,
      "hit": false,
      "t": 161252.6041666667,
      "d": 124.9999999999709,
      "v": 102
    },
    {
      "midi": 75,
      "hit": false,
      "t": 161255.20833333334,
      "d": 124.9999999999709,
      "v": 102
    },
    {
      "midi": 78,
      "hit": false,
      "t": 161257.8125,
      "d": 122.39583333331393,
      "v": 102
    },
    {
      "midi": 70,
      "hit": false,
      "t": 161380.2083333333,
      "d": 125,
      "v": 92
    },
    {
      "midi": 75,
      "hit": false,
      "t": 161382.81249999997,
      "d": 122.39583333334303,
      "v": 92
    },
    {
      "midi": 78,
      "hit": false,
      "t": 161382.81249999997,
      "d": 125,
      "v": 92
    },
    {
      "midi": 70,
      "hit": false,
      "t": 161752.60416666663,
      "d": 125,
      "v": 92
    },
    {
      "midi": 75,
      "hit": false,
      "t": 161755.20833333328,
      "d": 125,
      "v": 92
    },
    {
      "midi": 78,
      "hit": false,
      "t": 161755.20833333328,
      "d": 125,
      "v": 92
    },
    {
      "midi": 70,
      "hit": false,
      "t": 161882.81249999994,
      "d": 122.39583333334303,
      "v": 92
    },
    {
      "midi": 75,
      "hit": false,
      "t": 161882.81249999994,
      "d": 125,
      "v": 92
    },
    {
      "midi": 78,
      "hit": false,
      "t": 161882.81249999994,
      "d": 127.60416666665697,
      "v": 92
    },
    {
      "midi": 71,
      "hit": false,
      "t": 162130.20833333326,
      "d": 122.39583333334303,
      "v": 77
    },
    {
      "midi": 76,
      "hit": false,
      "t": 162130.20833333326,
      "d": 125,
      "v": 77
    },
    {
      "midi": 80,
      "hit": false,
      "t": 162130.20833333326,
      "d": 125,
      "v": 77
    },
    {
      "midi": 71,
      "hit": false,
      "t": 162257.8124999999,
      "d": 119.79166666665697,
      "v": 102
    },
    {
      "midi": 76,
      "hit": false,
      "t": 162257.8124999999,
      "d": 122.39583333331393,
      "v": 102
    },
    {
      "midi": 80,
      "hit": false,
      "t": 162260.41666666657,
      "d": 119.79166666665697,
      "v": 102
    },
    {
      "midi": 71,
      "hit": false,
      "t": 162382.81249999988,
      "d": 122.39583333331393,
      "v": 77
    },
    {
      "midi": 76,
      "hit": false,
      "t": 162382.81249999988,
      "d": 124.9999999999709,
      "v": 77
    },
    {
      "midi": 80,
      "hit": false,
      "t": 162385.41666666654,
      "d": 122.39583333331393,
      "v": 77
    },
    {
      "midi": 71,
      "hit": false,
      "t": 162510.4166666665,
      "d": 119.79166666665697,
      "v": 102
    },
    {
      "midi": 76,
      "hit": false,
      "t": 162510.4166666665,
      "d": 119.79166666665697,
      "v": 102
    },
    {
      "midi": 80,
      "hit": false,
      "t": 162510.4166666665,
      "d": 119.79166666665697,
      "v": 102
    },
    {
      "midi": 71,
      "hit": false,
      "t": 162632.81249999983,
      "d": 122.39583333331393,
      "v": 87
    },
    {
      "midi": 76,
      "hit": false,
      "t": 162632.81249999983,
      "d": 122.39583333331393,
      "v": 87
    },
    {
      "midi": 80,
      "hit": false,
      "t": 162635.41666666648,
      "d": 119.79166666665697,
      "v": 87
    },
    {
      "midi": 71,
      "hit": false,
      "t": 162757.8124999998,
      "d": 119.79166666665697,
      "v": 82
    },
    {
      "midi": 76,
      "hit": false,
      "t": 162760.41666666645,
      "d": 119.79166666665697,
      "v": 82
    },
    {
      "midi": 80,
      "hit": false,
      "t": 162760.41666666645,
      "d": 119.79166666665697,
      "v": 82
    },
    {
      "midi": 71,
      "hit": false,
      "t": 162882.81249999977,
      "d": 122.39583333334303,
      "v": 77
    },
    {
      "midi": 76,
      "hit": false,
      "t": 162882.81249999977,
      "d": 122.39583333334303,
      "v": 77
    },
    {
      "midi": 80,
      "hit": false,
      "t": 162882.81249999977,
      "d": 125,
      "v": 77
    },
    {
      "midi": 71,
      "hit": false,
      "t": 163252.60416666642,
      "d": 124.9999999999709,
      "v": 102
    },
    {
      "midi": 76,
      "hit": false,
      "t": 163255.20833333308,
      "d": 124.9999999999709,
      "v": 102
    },
    {
      "midi": 80,
      "hit": false,
      "t": 163257.81249999974,
      "d": 122.39583333331393,
      "v": 102
    },
    {
      "midi": 71,
      "hit": false,
      "t": 163380.20833333305,
      "d": 125,
      "v": 92
    },
    {
      "midi": 76,
      "hit": false,
      "t": 163382.8124999997,
      "d": 122.39583333334303,
      "v": 92
    },
    {
      "midi": 80,
      "hit": false,
      "t": 163382.8124999997,
      "d": 125,
      "v": 92
    },
    {
      "midi": 68,
      "hit": false,
      "t": 164130.20833333305,
      "d": 122.39583333334303,
      "v": 77
    },
    {
      "midi": 73,
      "hit": false,
      "t": 164130.20833333305,
      "d": 125,
      "v": 77
    },
    {
      "midi": 76,
      "hit": false,
      "t": 164130.20833333305,
      "d": 125,
      "v": 77
    },
    {
      "midi": 68,
      "hit": false,
      "t": 164257.8124999997,
      "d": 119.79166666665697,
      "v": 102
    },
    {
      "midi": 73,
      "hit": false,
      "t": 164257.8124999997,
      "d": 122.39583333331393,
      "v": 102
    },
    {
      "midi": 76,
      "hit": false,
      "t": 164260.41666666637,
      "d": 119.79166666665697,
      "v": 102
    },
    {
      "midi": 68,
      "hit": false,
      "t": 164382.81249999968,
      "d": 122.39583333331393,
      "v": 77
    },
    {
      "midi": 73,
      "hit": false,
      "t": 164382.81249999968,
      "d": 122.39583333331393,
      "v": 77
    },
    {
      "midi": 76,
      "hit": false,
      "t": 164385.41666666634,
      "d": 122.39583333331393,
      "v": 77
    },
    {
      "midi": 68,
      "hit": false,
      "t": 164510.4166666663,
      "d": 117.1875,
      "v": 102
    },
    {
      "midi": 73,
      "hit": false,
      "t": 164510.4166666663,
      "d": 119.79166666665697,
      "v": 102
    },
    {
      "midi": 76,
      "hit": false,
      "t": 164510.4166666663,
      "d": 119.79166666665697,
      "v": 102
    },
    {
      "midi": 68,
      "hit": false,
      "t": 164632.81249999962,
      "d": 119.79166666665697,
      "v": 87
    },
    {
      "midi": 73,
      "hit": false,
      "t": 164632.81249999962,
      "d": 122.39583333331393,
      "v": 87
    },
    {
      "midi": 76,
      "hit": false,
      "t": 164635.41666666628,
      "d": 119.79166666665697,
      "v": 87
    },
    {
      "midi": 68,
      "hit": false,
      "t": 164757.8124999996,
      "d": 119.79166666665697,
      "v": 82
    },
    {
      "midi": 73,
      "hit": false,
      "t": 164757.8124999996,
      "d": 122.39583333331393,
      "v": 82
    },
    {
      "midi": 76,
      "hit": false,
      "t": 164760.41666666625,
      "d": 119.79166666665697,
      "v": 82
    },
    {
      "midi": 68,
      "hit": false,
      "t": 164882.81249999956,
      "d": 122.39583333334303,
      "v": 77
    },
    {
      "midi": 73,
      "hit": false,
      "t": 164882.81249999956,
      "d": 122.39583333334303,
      "v": 77
    },
    {
      "midi": 76,
      "hit": false,
      "t": 164882.81249999956,
      "d": 125,
      "v": 77
    },
    {
      "midi": 68,
      "hit": false,
      "t": 165252.60416666622,
      "d": 127.60416666665697,
      "v": 102
    },
    {
      "midi": 73,
      "hit": false,
      "t": 165255.20833333288,
      "d": 125,
      "v": 102
    },
    {
      "midi": 76,
      "hit": false,
      "t": 165257.81249999953,
      "d": 122.39583333334303,
      "v": 102
    },
    {
      "midi": 68,
      "hit": false,
      "t": 165382.81249999953,
      "d": 122.39583333334303,
      "v": 92
    },
    {
      "midi": 73,
      "hit": false,
      "t": 165382.81249999953,
      "d": 122.39583333334303,
      "v": 92
    },
    {
      "midi": 76,
      "hit": false,
      "t": 165382.81249999953,
      "d": 125,
      "v": 92
    },
    {
      "midi": 70,
      "hit": false,
      "t": 166130.20833333288,
      "d": 122.39583333334303,
      "v": 77
    },
    {
      "midi": 73,
      "hit": false,
      "t": 166130.20833333288,
      "d": 125,
      "v": 77
    },
    {
      "midi": 78,
      "hit": false,
      "t": 166130.20833333288,
      "d": 125,
      "v": 77
    },
    {
      "midi": 70,
      "hit": false,
      "t": 166260.41666666622,
      "d": 117.1875,
      "v": 102
    },
    {
      "midi": 73,
      "hit": false,
      "t": 166260.41666666622,
      "d": 119.79166666665697,
      "v": 102
    },
    {
      "midi": 78,
      "hit": false,
      "t": 166260.41666666622,
      "d": 119.79166666665697,
      "v": 102
    },
    {
      "midi": 70,
      "hit": false,
      "t": 166382.81249999953,
      "d": 122.39583333334303,
      "v": 77
    },
    {
      "midi": 73,
      "hit": false,
      "t": 166382.81249999953,
      "d": 125,
      "v": 77
    },
    {
      "midi": 78,
      "hit": false,
      "t": 166382.81249999953,
      "d": 125,
      "v": 77
    },
    {
      "midi": 70,
      "hit": false,
      "t": 166510.4166666662,
      "d": 117.1875,
      "v": 102
    },
    {
      "midi": 73,
      "hit": false,
      "t": 166510.4166666662,
      "d": 119.79166666665697,
      "v": 102
    },
    {
      "midi": 78,
      "hit": false,
      "t": 166510.4166666662,
      "d": 119.79166666665697,
      "v": 102
    },
    {
      "midi": 70,
      "hit": false,
      "t": 166632.8124999995,
      "d": 119.79166666665697,
      "v": 87
    },
    {
      "midi": 73,
      "hit": false,
      "t": 166632.8124999995,
      "d": 122.39583333331393,
      "v": 87
    },
    {
      "midi": 78,
      "hit": false,
      "t": 166635.41666666616,
      "d": 119.79166666665697,
      "v": 87
    },
    {
      "midi": 70,
      "hit": false,
      "t": 166757.81249999948,
      "d": 119.79166666665697,
      "v": 82
    },
    {
      "midi": 73,
      "hit": false,
      "t": 166757.81249999948,
      "d": 122.39583333331393,
      "v": 82
    },
    {
      "midi": 78,
      "hit": false,
      "t": 166760.41666666613,
      "d": 119.79166666665697,
      "v": 82
    },
    {
      "midi": 70,
      "hit": false,
      "t": 166880.2083333328,
      "d": 125,
      "v": 77
    },
    {
      "midi": 73,
      "hit": false,
      "t": 166882.81249999945,
      "d": 122.39583333334303,
      "v": 77
    },
    {
      "midi": 78,
      "hit": false,
      "t": 166882.81249999945,
      "d": 125,
      "v": 77
    },
    {
      "midi": 70,
      "hit": false,
      "t": 167252.6041666661,
      "d": 124.9999999999709,
      "v": 102
    },
    {
      "midi": 73,
      "hit": false,
      "t": 167255.20833333276,
      "d": 124.9999999999709,
      "v": 102
    },
    {
      "midi": 78,
      "hit": false,
      "t": 167257.81249999942,
      "d": 122.39583333331393,
      "v": 102
    },
    {
      "midi": 70,
      "hit": false,
      "t": 167382.8124999994,
      "d": 122.39583333334303,
      "v": 92
    },
    {
      "midi": 73,
      "hit": false,
      "t": 167382.8124999994,
      "d": 125,
      "v": 92
    },
    {
      "midi": 78,
      "hit": false,
      "t": 167382.8124999994,
      "d": 127.60416666665697,
      "v": 92
    },
    {
      "midi": 70,
      "hit": false,
      "t": 168130.2083333327,
      "d": 122.39583333334303,
      "v": 77
    },
    {
      "midi": 75,
      "hit": false,
      "t": 168130.2083333327,
      "d": 125,
      "v": 77
    },
    {
      "midi": 79,
      "hit": false,
      "t": 168130.2083333327,
      "d": 125,
      "v": 77
    },
    {
      "midi": 70,
      "hit": false,
      "t": 168257.81249999936,
      "d": 119.79166666665697,
      "v": 102
    },
    {
      "midi": 75,
      "hit": false,
      "t": 168257.81249999936,
      "d": 122.39583333331393,
      "v": 102
    },
    {
      "midi": 79,
      "hit": false,
      "t": 168260.41666666602,
      "d": 119.79166666665697,
      "v": 102
    },
    {
      "midi": 70,
      "hit": false,
      "t": 168382.81249999933,
      "d": 122.39583333334303,
      "v": 77
    },
    {
      "midi": 75,
      "hit": false,
      "t": 168382.81249999933,
      "d": 122.39583333334303,
      "v": 77
    },
    {
      "midi": 79,
      "hit": false,
      "t": 168382.81249999933,
      "d": 125,
      "v": 77
    },
    {
      "midi": 70,
      "hit": false,
      "t": 168510.416666666,
      "d": 117.1875,
      "v": 102
    },
    {
      "midi": 75,
      "hit": false,
      "t": 168510.416666666,
      "d": 119.79166666665697,
      "v": 102
    },
    {
      "midi": 79,
      "hit": false,
      "t": 168510.416666666,
      "d": 119.79166666665697,
      "v": 102
    },
    {
      "midi": 70,
      "hit": false,
      "t": 168632.8124999993,
      "d": 122.39583333331393,
      "v": 87
    },
    {
      "midi": 75,
      "hit": false,
      "t": 168632.8124999993,
      "d": 122.39583333331393,
      "v": 87
    },
    {
      "midi": 79,
      "hit": false,
      "t": 168635.41666666596,
      "d": 119.79166666665697,
      "v": 87
    },
    {
      "midi": 70,
      "hit": false,
      "t": 168757.81249999927,
      "d": 119.79166666665697,
      "v": 82
    },
    {
      "midi": 75,
      "hit": false,
      "t": 168757.81249999927,
      "d": 122.39583333331393,
      "v": 82
    },
    {
      "midi": 79,
      "hit": false,
      "t": 168760.41666666593,
      "d": 119.79166666665697,
      "v": 82
    },
    {
      "midi": 70,
      "hit": false,
      "t": 168880.2083333326,
      "d": 125,
      "v": 77
    },
    {
      "midi": 75,
      "hit": false,
      "t": 168882.81249999924,
      "d": 125,
      "v": 77
    },
    {
      "midi": 79,
      "hit": false,
      "t": 168882.81249999924,
      "d": 127.60416666665697,
      "v": 77
    },
    {
      "midi": 70,
      "hit": false,
      "t": 169252.6041666659,
      "d": 125,
      "v": 102
    },
    {
      "midi": 75,
      "hit": false,
      "t": 169255.20833333256,
      "d": 125,
      "v": 102
    },
    {
      "midi": 79,
      "hit": false,
      "t": 169255.20833333256,
      "d": 125,
      "v": 102
    },
    {
      "midi": 70,
      "hit": false,
      "t": 169382.8124999992,
      "d": 122.39583333334303,
      "v": 92
    },
    {
      "midi": 75,
      "hit": false,
      "t": 169382.8124999992,
      "d": 125,
      "v": 92
    },
    {
      "midi": 79,
      "hit": false,
      "t": 169382.8124999992,
      "d": 125,
      "v": 92
    },
    {
      "midi": 71,
      "hit": false,
      "t": 170127.60416666587,
      "d": 125,
      "v": 77
    },
    {
      "midi": 76,
      "hit": false,
      "t": 170130.20833333253,
      "d": 125,
      "v": 77
    },
    {
      "midi": 80,
      "hit": false,
      "t": 170130.20833333253,
      "d": 125,
      "v": 77
    },
    {
      "midi": 71,
      "hit": false,
      "t": 170257.81249999919,
      "d": 119.79166666665697,
      "v": 102
    },
    {
      "midi": 76,
      "hit": false,
      "t": 170257.81249999919,
      "d": 122.39583333331393,
      "v": 102
    },
    {
      "midi": 80,
      "hit": false,
      "t": 170260.41666666584,
      "d": 119.79166666665697,
      "v": 102
    },
    {
      "midi": 71,
      "hit": false,
      "t": 170382.81249999916,
      "d": 122.39583333334303,
      "v": 77
    },
    {
      "midi": 76,
      "hit": false,
      "t": 170382.81249999916,
      "d": 122.39583333334303,
      "v": 77
    },
    {
      "midi": 80,
      "hit": false,
      "t": 170382.81249999916,
      "d": 125,
      "v": 77
    },
    {
      "midi": 71,
      "hit": false,
      "t": 170510.4166666658,
      "d": 117.1875,
      "v": 102
    },
    {
      "midi": 76,
      "hit": false,
      "t": 170510.4166666658,
      "d": 119.79166666665697,
      "v": 102
    },
    {
      "midi": 80,
      "hit": false,
      "t": 170510.4166666658,
      "d": 119.79166666665697,
      "v": 102
    },
    {
      "midi": 71,
      "hit": false,
      "t": 170632.81249999913,
      "d": 119.79166666665697,
      "v": 87
    },
    {
      "midi": 76,
      "hit": false,
      "t": 170632.81249999913,
      "d": 122.39583333331393,
      "v": 87
    },
    {
      "midi": 80,
      "hit": false,
      "t": 170635.41666666578,
      "d": 119.79166666665697,
      "v": 87
    },
    {
      "midi": 71,
      "hit": false,
      "t": 170757.8124999991,
      "d": 119.79166666665697,
      "v": 82
    },
    {
      "midi": 76,
      "hit": false,
      "t": 170757.8124999991,
      "d": 122.39583333331393,
      "v": 82
    },
    {
      "midi": 80,
      "hit": false,
      "t": 170757.8124999991,
      "d": 122.39583333331393,
      "v": 82
    },
    {
      "midi": 71,
      "hit": false,
      "t": 170880.2083333324,
      "d": 125,
      "v": 77
    },
    {
      "midi": 76,
      "hit": false,
      "t": 170882.81249999907,
      "d": 122.39583333334303,
      "v": 77
    },
    {
      "midi": 80,
      "hit": false,
      "t": 170882.81249999907,
      "d": 125,
      "v": 77
    },
    {
      "midi": 71,
      "hit": false,
      "t": 171255.2083333324,
      "d": 122.39583333331393,
      "v": 102
    },
    {
      "midi": 76,
      "hit": false,
      "t": 171255.2083333324,
      "d": 124.9999999999709,
      "v": 102
    },
    {
      "midi": 80,
      "hit": false,
      "t": 171257.81249999907,
      "d": 122.39583333331393,
      "v": 102
    },
    {
      "midi": 71,
      "hit": false,
      "t": 171382.81249999904,
      "d": 122.39583333334303,
      "v": 92
    },
    {
      "midi": 76,
      "hit": false,
      "t": 171382.81249999904,
      "d": 125,
      "v": 92
    },
    {
      "midi": 80,
      "hit": false,
      "t": 171382.81249999904,
      "d": 125,
      "v": 92
    },
    {
      "midi": 68,
      "hit": false,
      "t": 172127.6041666657,
      "d": 125,
      "v": 77
    },
    {
      "midi": 73,
      "hit": false,
      "t": 172130.20833333235,
      "d": 125,
      "v": 77
    },
    {
      "midi": 76,
      "hit": false,
      "t": 172130.20833333235,
      "d": 125,
      "v": 77
    },
    {
      "midi": 68,
      "hit": false,
      "t": 172257.812499999,
      "d": 119.79166666665697,
      "v": 102
    },
    {
      "midi": 73,
      "hit": false,
      "t": 172257.812499999,
      "d": 122.39583333331393,
      "v": 102
    },
    {
      "midi": 76,
      "hit": false,
      "t": 172260.41666666567,
      "d": 119.79166666665697,
      "v": 102
    },
    {
      "midi": 68,
      "hit": false,
      "t": 172382.81249999898,
      "d": 122.39583333334303,
      "v": 77
    },
    {
      "midi": 73,
      "hit": false,
      "t": 172382.81249999898,
      "d": 122.39583333334303,
      "v": 77
    },
    {
      "midi": 76,
      "hit": false,
      "t": 172382.81249999898,
      "d": 125,
      "v": 77
    },
    {
      "midi": 68,
      "hit": false,
      "t": 172510.41666666564,
      "d": 119.79166666665697,
      "v": 102
    },
    {
      "midi": 73,
      "hit": false,
      "t": 172510.41666666564,
      "d": 119.79166666665697,
      "v": 102
    },
    {
      "midi": 76,
      "hit": false,
      "t": 172510.41666666564,
      "d": 119.79166666665697,
      "v": 102
    },
    {
      "midi": 68,
      "hit": false,
      "t": 172632.81249999895,
      "d": 122.39583333331393,
      "v": 87
    },
    {
      "midi": 73,
      "hit": false,
      "t": 172632.81249999895,
      "d": 122.39583333331393,
      "v": 87
    },
    {
      "midi": 76,
      "hit": false,
      "t": 172635.4166666656,
      "d": 122.39583333331393,
      "v": 87
    },
    {
      "midi": 68,
      "hit": false,
      "t": 172757.81249999892,
      "d": 119.79166666665697,
      "v": 82
    },
    {
      "midi": 73,
      "hit": false,
      "t": 172757.81249999892,
      "d": 122.39583333331393,
      "v": 82
    },
    {
      "midi": 76,
      "hit": false,
      "t": 172760.41666666558,
      "d": 119.79166666665697,
      "v": 82
    },
    {
      "midi": 68,
      "hit": false,
      "t": 172882.8124999989,
      "d": 122.39583333334303,
      "v": 77
    },
    {
      "midi": 73,
      "hit": false,
      "t": 172882.8124999989,
      "d": 125,
      "v": 77
    },
    {
      "midi": 76,
      "hit": false,
      "t": 172882.8124999989,
      "d": 125,
      "v": 77
    },
    {
      "midi": 68,
      "hit": false,
      "t": 173255.20833333224,
      "d": 122.39583333331393,
      "v": 102
    },
    {
      "midi": 73,
      "hit": false,
      "t": 173255.20833333224,
      "d": 124.9999999999709,
      "v": 102
    },
    {
      "midi": 76,
      "hit": false,
      "t": 173257.8124999989,
      "d": 122.39583333331393,
      "v": 102
    },
    {
      "midi": 68,
      "hit": false,
      "t": 173382.81249999886,
      "d": 122.39583333334303,
      "v": 92
    },
    {
      "midi": 73,
      "hit": false,
      "t": 173382.81249999886,
      "d": 125,
      "v": 92
    },
    {
      "midi": 76,
      "hit": false,
      "t": 173382.81249999886,
      "d": 125,
      "v": 92
    },
    {
      "midi": 68,
      "hit": false,
      "t": 173752.60416666552,
      "d": 124.9999999999709,
      "v": 92
    },
    {
      "midi": 73,
      "hit": false,
      "t": 173755.20833333218,
      "d": 124.9999999999709,
      "v": 92
    },
    {
      "midi": 76,
      "hit": false,
      "t": 173757.81249999884,
      "d": 122.39583333331393,
      "v": 92
    },
    {
      "midi": 68,
      "hit": false,
      "t": 173882.8124999988,
      "d": 122.39583333334303,
      "v": 92
    },
    {
      "midi": 73,
      "hit": false,
      "t": 173882.8124999988,
      "d": 125,
      "v": 92
    },
    {
      "midi": 76,
      "hit": false,
      "t": 173882.8124999988,
      "d": 127.60416666665697,
      "v": 92
    },
    {
      "midi": 70,
      "hit": false,
      "t": 174127.60416666546,
      "d": 125,
      "v": 77
    },
    {
      "midi": 73,
      "hit": false,
      "t": 174130.20833333212,
      "d": 125,
      "v": 77
    },
    {
      "midi": 78,
      "hit": false,
      "t": 174130.20833333212,
      "d": 125,
      "v": 77
    },
    {
      "midi": 70,
      "hit": false,
      "t": 174257.81249999878,
      "d": 119.79166666665697,
      "v": 102
    },
    {
      "midi": 73,
      "hit": false,
      "t": 174257.81249999878,
      "d": 122.39583333331393,
      "v": 102
    },
    {
      "midi": 78,
      "hit": false,
      "t": 174257.81249999878,
      "d": 122.39583333331393,
      "v": 102
    },
    {
      "midi": 70,
      "hit": false,
      "t": 174380.2083333321,
      "d": 125,
      "v": 77
    },
    {
      "midi": 73,
      "hit": false,
      "t": 174382.81249999875,
      "d": 122.39583333334303,
      "v": 77
    },
    {
      "midi": 78,
      "hit": false,
      "t": 174382.81249999875,
      "d": 125,
      "v": 77
    },
    {
      "midi": 70,
      "hit": false,
      "t": 174510.4166666654,
      "d": 119.79166666665697,
      "v": 102
    },
    {
      "midi": 73,
      "hit": false,
      "t": 174510.4166666654,
      "d": 119.79166666665697,
      "v": 102
    },
    {
      "midi": 78,
      "hit": false,
      "t": 174510.4166666654,
      "d": 119.79166666665697,
      "v": 102
    },
    {
      "midi": 70,
      "hit": false,
      "t": 174632.81249999872,
      "d": 119.79166666665697,
      "v": 87
    },
    {
      "midi": 73,
      "hit": false,
      "t": 174632.81249999872,
      "d": 122.39583333331393,
      "v": 87
    },
    {
      "midi": 78,
      "hit": false,
      "t": 174635.41666666538,
      "d": 119.79166666665697,
      "v": 87
    },
    {
      "midi": 70,
      "hit": false,
      "t": 174757.8124999987,
      "d": 119.79166666665697,
      "v": 82
    },
    {
      "midi": 73,
      "hit": false,
      "t": 174757.8124999987,
      "d": 122.39583333331393,
      "v": 82
    },
    {
      "midi": 78,
      "hit": false,
      "t": 174760.41666666535,
      "d": 119.79166666665697,
      "v": 82
    },
    {
      "midi": 70,
      "hit": false,
      "t": 174882.81249999866,
      "d": 122.39583333334303,
      "v": 77
    },
    {
      "midi": 73,
      "hit": false,
      "t": 174882.81249999866,
      "d": 122.39583333334303,
      "v": 77
    },
    {
      "midi": 78,
      "hit": false,
      "t": 174882.81249999866,
      "d": 125,
      "v": 77
    },
    {
      "midi": 70,
      "hit": false,
      "t": 175252.60416666532,
      "d": 124.9999999999709,
      "v": 102
    },
    {
      "midi": 73,
      "hit": false,
      "t": 175255.20833333198,
      "d": 124.9999999999709,
      "v": 102
    },
    {
      "midi": 78,
      "hit": false,
      "t": 175257.81249999863,
      "d": 122.39583333331393,
      "v": 102
    },
    {
      "midi": 70,
      "hit": false,
      "t": 175382.8124999986,
      "d": 122.39583333331393,
      "v": 92
    },
    {
      "midi": 73,
      "hit": false,
      "t": 175382.8124999986,
      "d": 124.9999999999709,
      "v": 92
    },
    {
      "midi": 78,
      "hit": false,
      "t": 175385.41666666526,
      "d": 122.39583333331393,
      "v": 92
    },
    {
      "midi": 70,
      "hit": false,
      "t": 176127.60416666523,
      "d": 125,
      "v": 77
    },
    {
      "midi": 75,
      "hit": false,
      "t": 176130.2083333319,
      "d": 125,
      "v": 77
    },
    {
      "midi": 78,
      "hit": false,
      "t": 176130.2083333319,
      "d": 125,
      "v": 77
    },
    {
      "midi": 70,
      "hit": false,
      "t": 176257.81249999854,
      "d": 119.79166666665697,
      "v": 102
    },
    {
      "midi": 75,
      "hit": false,
      "t": 176257.81249999854,
      "d": 122.39583333331393,
      "v": 102
    },
    {
      "midi": 78,
      "hit": false,
      "t": 176257.81249999854,
      "d": 122.39583333331393,
      "v": 102
    },
    {
      "midi": 70,
      "hit": false,
      "t": 176380.20833333186,
      "d": 125,
      "v": 77
    },
    {
      "midi": 75,
      "hit": false,
      "t": 176382.81249999852,
      "d": 122.39583333334303,
      "v": 77
    },
    {
      "midi": 78,
      "hit": false,
      "t": 176382.81249999852,
      "d": 125,
      "v": 77
    },
    {
      "midi": 70,
      "hit": false,
      "t": 176510.41666666517,
      "d": 119.79166666665697,
      "v": 102
    },
    {
      "midi": 75,
      "hit": false,
      "t": 176510.41666666517,
      "d": 119.79166666665697,
      "v": 102
    },
    {
      "midi": 78,
      "hit": false,
      "t": 176510.41666666517,
      "d": 119.79166666665697,
      "v": 102
    },
    {
      "midi": 70,
      "hit": false,
      "t": 176632.8124999985,
      "d": 119.79166666665697,
      "v": 87
    },
    {
      "midi": 75,
      "hit": false,
      "t": 176632.8124999985,
      "d": 122.39583333331393,
      "v": 87
    },
    {
      "midi": 78,
      "hit": false,
      "t": 176632.8124999985,
      "d": 122.39583333331393,
      "v": 87
    },
    {
      "midi": 70,
      "hit": false,
      "t": 176757.81249999846,
      "d": 119.79166666665697,
      "v": 82
    },
    {
      "midi": 75,
      "hit": false,
      "t": 176757.81249999846,
      "d": 122.39583333331393,
      "v": 82
    },
    {
      "midi": 78,
      "hit": false,
      "t": 176760.4166666651,
      "d": 119.79166666665697,
      "v": 82
    },
    {
      "midi": 70,
      "hit": false,
      "t": 176882.81249999843,
      "d": 122.39583333334303,
      "v": 77
    },
    {
      "midi": 75,
      "hit": false,
      "t": 176882.81249999843,
      "d": 125,
      "v": 77
    },
    {
      "midi": 78,
      "hit": false,
      "t": 176882.81249999843,
      "d": 127.60416666665697,
      "v": 77
    },
    {
      "midi": 70,
      "hit": false,
      "t": 177252.60416666509,
      "d": 124.9999999999709,
      "v": 102
    },
    {
      "midi": 75,
      "hit": false,
      "t": 177255.20833333174,
      "d": 124.9999999999709,
      "v": 102
    },
    {
      "midi": 78,
      "hit": false,
      "t": 177257.8124999984,
      "d": 122.39583333331393,
      "v": 102
    },
    {
      "midi": 70,
      "hit": false,
      "t": 177382.81249999837,
      "d": 122.39583333331393,
      "v": 92
    },
    {
      "midi": 75,
      "hit": false,
      "t": 177382.81249999837,
      "d": 124.9999999999709,
      "v": 92
    },
    {
      "midi": 78,
      "hit": false,
      "t": 177385.41666666503,
      "d": 122.39583333331393,
      "v": 92
    },
    {
      "midi": 71,
      "hit": false,
      "t": 178127.604166665,
      "d": 125,
      "v": 77
    },
    {
      "midi": 76,
      "hit": false,
      "t": 178130.20833333166,
      "d": 125,
      "v": 77
    },
    {
      "midi": 80,
      "hit": false,
      "t": 178130.20833333166,
      "d": 125,
      "v": 77
    },
    {
      "midi": 71,
      "hit": false,
      "t": 178257.8124999983,
      "d": 122.39583333334303,
      "v": 102
    },
    {
      "midi": 76,
      "hit": false,
      "t": 178257.8124999983,
      "d": 122.39583333334303,
      "v": 102
    },
    {
      "midi": 80,
      "hit": false,
      "t": 178257.8124999983,
      "d": 122.39583333334303,
      "v": 102
    },
    {
      "midi": 71,
      "hit": false,
      "t": 178382.8124999983,
      "d": 122.39583333334303,
      "v": 77
    },
    {
      "midi": 76,
      "hit": false,
      "t": 178382.8124999983,
      "d": 125,
      "v": 77
    },
    {
      "midi": 80,
      "hit": false,
      "t": 178382.8124999983,
      "d": 125,
      "v": 77
    },
    {
      "midi": 71,
      "hit": false,
      "t": 178510.41666666497,
      "d": 119.79166666665697,
      "v": 102
    },
    {
      "midi": 76,
      "hit": false,
      "t": 178510.41666666497,
      "d": 119.79166666665697,
      "v": 102
    },
    {
      "midi": 80,
      "hit": false,
      "t": 178510.41666666497,
      "d": 119.79166666665697,
      "v": 102
    },
    {
      "midi": 71,
      "hit": false,
      "t": 178632.81249999828,
      "d": 122.39583333334303,
      "v": 87
    },
    {
      "midi": 76,
      "hit": false,
      "t": 178632.81249999828,
      "d": 122.39583333334303,
      "v": 87
    },
    {
      "midi": 80,
      "hit": false,
      "t": 178632.81249999828,
      "d": 122.39583333334303,
      "v": 87
    },
    {
      "midi": 71,
      "hit": false,
      "t": 178757.81249999828,
      "d": 119.79166666665697,
      "v": 82
    },
    {
      "midi": 76,
      "hit": false,
      "t": 178757.81249999828,
      "d": 122.39583333331393,
      "v": 82
    },
    {
      "midi": 80,
      "hit": false,
      "t": 178760.41666666494,
      "d": 119.79166666665697,
      "v": 82
    },
    {
      "midi": 71,
      "hit": false,
      "t": 178882.81249999825,
      "d": 122.39583333334303,
      "v": 77
    },
    {
      "midi": 76,
      "hit": false,
      "t": 178882.81249999825,
      "d": 125,
      "v": 77
    },
    {
      "midi": 80,
      "hit": false,
      "t": 178882.81249999825,
      "d": 125,
      "v": 77
    },
    {
      "midi": 71,
      "hit": false,
      "t": 179252.6041666649,
      "d": 124.9999999999709,
      "v": 102
    },
    {
      "midi": 76,
      "hit": false,
      "t": 179255.20833333157,
      "d": 124.9999999999709,
      "v": 102
    },
    {
      "midi": 80,
      "hit": false,
      "t": 179257.81249999822,
      "d": 122.39583333331393,
      "v": 102
    },
    {
      "midi": 71,
      "hit": false,
      "t": 179382.8124999982,
      "d": 122.39583333334303,
      "v": 92
    },
    {
      "midi": 76,
      "hit": false,
      "t": 179382.8124999982,
      "d": 122.39583333334303,
      "v": 92
    },
    {
      "midi": 80,
      "hit": false,
      "t": 179382.8124999982,
      "d": 125,
      "v": 92
    },
    {
      "midi": 68,
      "hit": false,
      "t": 180127.60416666485,
      "d": 127.60416666665697,
      "v": 77
    },
    {
      "midi": 73,
      "hit": false,
      "t": 180130.2083333315,
      "d": 125,
      "v": 77
    },
    {
      "midi": 76,
      "hit": false,
      "t": 180130.2083333315,
      "d": 127.60416666665697,
      "v": 77
    },
    {
      "midi": 68,
      "hit": false,
      "t": 180260.41666666482,
      "d": 117.1875,
      "v": 102
    },
    {
      "midi": 73,
      "hit": false,
      "t": 180260.41666666482,
      "d": 119.79166666665697,
      "v": 102
    },
    {
      "midi": 76,
      "hit": false,
      "t": 180260.41666666482,
      "d": 119.79166666665697,
      "v": 102
    },
    {
      "midi": 68,
      "hit": false,
      "t": 180382.81249999814,
      "d": 122.39583333334303,
      "v": 77
    },
    {
      "midi": 73,
      "hit": false,
      "t": 180382.81249999814,
      "d": 122.39583333334303,
      "v": 77
    },
    {
      "midi": 76,
      "hit": false,
      "t": 180382.81249999814,
      "d": 125,
      "v": 77
    },
    {
      "midi": 68,
      "hit": false,
      "t": 180510.4166666648,
      "d": 119.79166666665697,
      "v": 102
    },
    {
      "midi": 73,
      "hit": false,
      "t": 180510.4166666648,
      "d": 119.79166666665697,
      "v": 102
    },
    {
      "midi": 76,
      "hit": false,
      "t": 180510.4166666648,
      "d": 119.79166666665697,
      "v": 102
    },
    {
      "midi": 68,
      "hit": false,
      "t": 180632.8124999981,
      "d": 122.39583333334303,
      "v": 87
    },
    {
      "midi": 73,
      "hit": false,
      "t": 180632.8124999981,
      "d": 122.39583333334303,
      "v": 87
    },
    {
      "midi": 76,
      "hit": false,
      "t": 180632.8124999981,
      "d": 122.39583333334303,
      "v": 87
    },
    {
      "midi": 68,
      "hit": false,
      "t": 180757.8124999981,
      "d": 119.79166666665697,
      "v": 82
    },
    {
      "midi": 73,
      "hit": false,
      "t": 180757.8124999981,
      "d": 122.39583333331393,
      "v": 82
    },
    {
      "midi": 76,
      "hit": false,
      "t": 180760.41666666477,
      "d": 119.79166666665697,
      "v": 82
    },
    {
      "midi": 68,
      "hit": false,
      "t": 180882.81249999808,
      "d": 122.39583333331393,
      "v": 77
    },
    {
      "midi": 73,
      "hit": false,
      "t": 180882.81249999808,
      "d": 124.9999999999709,
      "v": 77
    },
    {
      "midi": 76,
      "hit": false,
      "t": 180885.41666666474,
      "d": 122.39583333331393,
      "v": 77
    },
    {
      "midi": 68,
      "hit": false,
      "t": 181252.6041666647,
      "d": 124.9999999999709,
      "v": 102
    },
    {
      "midi": 73,
      "hit": false,
      "t": 181255.20833333136,
      "d": 124.9999999999709,
      "v": 102
    },
    {
      "midi": 76,
      "hit": false,
      "t": 181257.81249999802,
      "d": 122.39583333331393,
      "v": 102
    },
    {
      "midi": 68,
      "hit": false,
      "t": 181382.812499998,
      "d": 122.39583333334303,
      "v": 92
    },
    {
      "midi": 73,
      "hit": false,
      "t": 181382.812499998,
      "d": 122.39583333334303,
      "v": 92
    },
    {
      "midi": 76,
      "hit": false,
      "t": 181382.812499998,
      "d": 125,
      "v": 92
    },
    {
      "midi": 70,
      "hit": false,
      "t": 182127.60416666465,
      "d": 127.60416666665697,
      "v": 77
    },
    {
      "midi": 73,
      "hit": false,
      "t": 182130.2083333313,
      "d": 125,
      "v": 77
    },
    {
      "midi": 78,
      "hit": false,
      "t": 182130.2083333313,
      "d": 125,
      "v": 77
    },
    {
      "midi": 70,
      "hit": false,
      "t": 182260.41666666465,
      "d": 117.1875,
      "v": 102
    },
    {
      "midi": 73,
      "hit": false,
      "t": 182260.41666666465,
      "d": 119.79166666665697,
      "v": 102
    },
    {
      "midi": 78,
      "hit": false,
      "t": 182260.41666666465,
      "d": 119.79166666665697,
      "v": 102
    },
    {
      "midi": 70,
      "hit": false,
      "t": 182382.81249999796,
      "d": 122.39583333334303,
      "v": 77
    },
    {
      "midi": 73,
      "hit": false,
      "t": 182382.81249999796,
      "d": 122.39583333334303,
      "v": 77
    },
    {
      "midi": 78,
      "hit": false,
      "t": 182382.81249999796,
      "d": 125,
      "v": 77
    },
    {
      "midi": 70,
      "hit": false,
      "t": 182510.41666666462,
      "d": 119.79166666665697,
      "v": 102
    },
    {
      "midi": 73,
      "hit": false,
      "t": 182510.41666666462,
      "d": 119.79166666665697,
      "v": 102
    },
    {
      "midi": 78,
      "hit": false,
      "t": 182510.41666666462,
      "d": 119.79166666665697,
      "v": 102
    },
    {
      "midi": 70,
      "hit": false,
      "t": 182632.81249999793,
      "d": 119.79166666665697,
      "v": 87
    },
    {
      "midi": 73,
      "hit": false,
      "t": 182632.81249999793,
      "d": 122.39583333331393,
      "v": 87
    },
    {
      "midi": 78,
      "hit": false,
      "t": 182632.81249999793,
      "d": 122.39583333331393,
      "v": 87
    },
    {
      "midi": 70,
      "hit": false,
      "t": 182757.8124999979,
      "d": 119.79166666665697,
      "v": 82
    },
    {
      "midi": 73,
      "hit": false,
      "t": 182757.8124999979,
      "d": 122.39583333331393,
      "v": 82
    },
    {
      "midi": 78,
      "hit": false,
      "t": 182760.41666666456,
      "d": 119.79166666665697,
      "v": 82
    },
    {
      "midi": 70,
      "hit": false,
      "t": 182882.81249999788,
      "d": 122.39583333331393,
      "v": 77
    },
    {
      "midi": 73,
      "hit": false,
      "t": 182882.81249999788,
      "d": 124.9999999999709,
      "v": 77
    },
    {
      "midi": 78,
      "hit": false,
      "t": 182885.41666666453,
      "d": 122.39583333331393,
      "v": 77
    },
    {
      "midi": 70,
      "hit": false,
      "t": 183252.6041666645,
      "d": 124.9999999999709,
      "v": 102
    },
    {
      "midi": 73,
      "hit": false,
      "t": 183255.20833333116,
      "d": 124.9999999999709,
      "v": 102
    },
    {
      "midi": 78,
      "hit": false,
      "t": 183257.81249999782,
      "d": 122.39583333331393,
      "v": 102
    },
    {
      "midi": 70,
      "hit": false,
      "t": 183382.8124999978,
      "d": 122.39583333334303,
      "v": 92
    },
    {
      "midi": 73,
      "hit": false,
      "t": 183382.8124999978,
      "d": 122.39583333334303,
      "v": 92
    },
    {
      "midi": 78,
      "hit": false,
      "t": 183382.8124999978,
      "d": 125,
      "v": 92
    },
    {
      "midi": 70,
      "hit": false,
      "t": 184130.20833333113,
      "d": 122.39583333334303,
      "v": 77
    },
    {
      "midi": 75,
      "hit": false,
      "t": 184130.20833333113,
      "d": 125,
      "v": 77
    },
    {
      "midi": 79,
      "hit": false,
      "t": 184130.20833333113,
      "d": 125,
      "v": 77
    },
    {
      "midi": 70,
      "hit": false,
      "t": 184257.8124999978,
      "d": 119.79166666665697,
      "v": 102
    },
    {
      "midi": 75,
      "hit": false,
      "t": 184257.8124999978,
      "d": 122.39583333331393,
      "v": 102
    },
    {
      "midi": 79,
      "hit": false,
      "t": 184257.8124999978,
      "d": 122.39583333331393,
      "v": 102
    },
    {
      "midi": 70,
      "hit": false,
      "t": 184382.81249999776,
      "d": 122.39583333334303,
      "v": 77
    },
    {
      "midi": 75,
      "hit": false,
      "t": 184382.81249999776,
      "d": 122.39583333334303,
      "v": 77
    },
    {
      "midi": 79,
      "hit": false,
      "t": 184382.81249999776,
      "d": 125,
      "v": 77
    },
    {
      "midi": 70,
      "hit": false,
      "t": 184507.81249999776,
      "d": 122.39583333334303,
      "v": 102
    },
    {
      "midi": 75,
      "hit": false,
      "t": 184510.41666666442,
      "d": 119.79166666668607,
      "v": 102
    },
    {
      "midi": 79,
      "hit": false,
      "t": 184515.62499999776,
      "d": 114.58333333334303,
      "v": 102
    },
    {
      "midi": 70,
      "hit": false,
      "t": 184632.81249999776,
      "d": 119.79166666665697,
      "v": 87
    },
    {
      "midi": 75,
      "hit": false,
      "t": 184632.81249999776,
      "d": 122.39583333331393,
      "v": 87
    },
    {
      "midi": 79,
      "hit": false,
      "t": 184635.41666666442,
      "d": 119.79166666665697,
      "v": 87
    },
    {
      "midi": 70,
      "hit": false,
      "t": 184757.81249999773,
      "d": 119.79166666665697,
      "v": 82
    },
    {
      "midi": 75,
      "hit": false,
      "t": 184757.81249999773,
      "d": 122.39583333331393,
      "v": 82
    },
    {
      "midi": 79,
      "hit": false,
      "t": 184760.4166666644,
      "d": 119.79166666665697,
      "v": 82
    },
    {
      "midi": 70,
      "hit": false,
      "t": 184882.8124999977,
      "d": 122.39583333331393,
      "v": 77
    },
    {
      "midi": 75,
      "hit": false,
      "t": 184882.8124999977,
      "d": 124.9999999999709,
      "v": 77
    },
    {
      "midi": 79,
      "hit": false,
      "t": 184885.41666666436,
      "d": 122.39583333331393,
      "v": 77
    },
    {
      "midi": 70,
      "hit": false,
      "t": 185252.60416666433,
      "d": 124.9999999999709,
      "v": 102
    },
    {
      "midi": 75,
      "hit": false,
      "t": 185255.208333331,
      "d": 124.9999999999709,
      "v": 102
    },
    {
      "midi": 79,
      "hit": false,
      "t": 185257.81249999764,
      "d": 122.39583333331393,
      "v": 102
    },
    {
      "midi": 70,
      "hit": false,
      "t": 185382.8124999976,
      "d": 122.39583333334303,
      "v": 92
    },
    {
      "midi": 75,
      "hit": false,
      "t": 185382.8124999976,
      "d": 125,
      "v": 92
    },
    {
      "midi": 79,
      "hit": false,
      "t": 185382.8124999976,
      "d": 125,
      "v": 92
    },
    {
      "midi": 80,
      "hit": false,
      "t": 186013.0208333333,
      "d": 117.1875,
      "v": 100
    },
    {
      "midi": 92,
      "hit": false,
      "t": 186013.0208333333,
      "d": 119.79166666665697,
      "v": 100
    },
    {
      "midi": 75,
      "hit": false,
      "t": 186255.20833333096,
      "d": 122.39583333331393,
      "v": 87
    },
    {
      "midi": 80,
      "hit": false,
      "t": 186255.20833333096,
      "d": 124.9999999999709,
      "v": 87
    },
    {
      "midi": 71,
      "hit": false,
      "t": 186257.8124999976,
      "d": 57.291666666656965,
      "v": 98
    },
    {
      "midi": 83,
      "hit": false,
      "t": 186257.8124999976,
      "d": 124.9999999999709,
      "v": 87
    },
    {
      "midi": 78,
      "hit": false,
      "t": 186260.41666666663,
      "d": 125,
      "v": 100
    },
    {
      "midi": 90,
      "hit": false,
      "t": 186260.41666666663,
      "d": 125,
      "v": 100
    },
    {
      "midi": 71,
      "hit": false,
      "t": 186382.81249999758,
      "d": 57.291666666656965,
      "v": 90
    },
    {
      "midi": 71,
      "hit": false,
      "t": 186507.81249999758,
      "d": 59.895833333343035,
      "v": 98
    },
    {
      "midi": 80,
      "hit": false,
      "t": 186507.81249999997,
      "d": 125,
      "v": 100
    },
    {
      "midi": 92,
      "hit": false,
      "t": 186507.81249999997,
      "d": 125,
      "v": 100
    },
    {
      "midi": 71,
      "hit": false,
      "t": 186630.20833333093,
      "d": 59.895833333343035,
      "v": 90
    },
    {
      "midi": 75,
      "hit": false,
      "t": 186752.60416666427,
      "d": 124.9999999999709,
      "v": 87
    },
    {
      "midi": 80,
      "hit": false,
      "t": 186755.20833333093,
      "d": 124.9999999999709,
      "v": 87
    },
    {
      "midi": 71,
      "hit": false,
      "t": 186757.81249999758,
      "d": 57.291666666656965,
      "v": 95
    },
    {
      "midi": 83,
      "hit": false,
      "t": 186757.81249999758,
      "d": 124.9999999999709,
      "v": 87
    },
    {
      "midi": 75,
      "hit": false,
      "t": 186763.0208333333,
      "d": 122.39583333331393,
      "v": 100
    },
    {
      "midi": 87,
      "hit": false,
      "t": 186765.62499999997,
      "d": 119.79166666665697,
      "v": 100
    },
    {
      "midi": 71,
      "hit": false,
      "t": 186882.81249999756,
      "d": 59.895833333343035,
      "v": 90
    },
    {
      "midi": 78,
      "hit": false,
      "t": 187007.81249999997,
      "d": 125,
      "v": 100
    },
    {
      "midi": 90,
      "hit": false,
      "t": 187010.41666666663,
      "d": 122.39583333334303,
      "v": 100
    },
    {
      "midi": 75,
      "hit": false,
      "t": 187252.60416666424,
      "d": 125,
      "v": 87
    },
    {
      "midi": 80,
      "hit": false,
      "t": 187255.2083333309,
      "d": 125,
      "v": 87
    },
    {
      "midi": 80,
      "hit": false,
      "t": 187257.81249999997,
      "d": 127.60416666665697,
      "v": 100
    },
    {
      "midi": 92,
      "hit": false,
      "t": 187257.81249999997,
      "d": 127.60416666665697,
      "v": 100
    },
    {
      "midi": 70,
      "hit": false,
      "t": 187260.41666666424,
      "d": 57.291666666656965,
      "v": 98
    },
    {
      "midi": 82,
      "hit": false,
      "t": 187260.41666666424,
      "d": 119.79166666665697,
      "v": 87
    },
    {
      "midi": 70,
      "hit": false,
      "t": 187382.81249999756,
      "d": 57.291666666656965,
      "v": 90
    },
    {
      "midi": 75,
      "hit": false,
      "t": 187752.6041666642,
      "d": 125,
      "v": 87
    },
    {
      "midi": 80,
      "hit": false,
      "t": 187755.20833333087,
      "d": 125,
      "v": 87
    },
    {
      "midi": 70,
      "hit": false,
      "t": 187757.81249999753,
      "d": 59.895833333343035,
      "v": 98
    },
    {
      "midi": 82,
      "hit": false,
      "t": 187757.81249999753,
      "d": 122.39583333334303,
      "v": 87
    },
    {
      "midi": 78,
      "hit": false,
      "t": 187763.02083333328,
      "d": 122.39583333334303,
      "v": 100
    },
    {
      "midi": 90,
      "hit": false,
      "t": 187763.02083333328,
      "d": 122.39583333334303,
      "v": 100
    },
    {
      "midi": 70,
      "hit": false,
      "t": 187882.81249999753,
      "d": 57.291666666656965,
      "v": 90
    },
    {
      "midi": 80,
      "hit": false,
      "t": 188010.41666666663,
      "d": 122.39583333331393,
      "v": 100
    },
    {
      "midi": 92,
      "hit": false,
      "t": 188013.02083333328,
      "d": 119.79166666665697,
      "v": 100
    },
    {
      "midi": 75,
      "hit": false,
      "t": 188252.60416666418,
      "d": 124.9999999999709,
      "v": 87
    },
    {
      "midi": 80,
      "hit": false,
      "t": 188255.20833333084,
      "d": 124.9999999999709,
      "v": 87
    },
    {
      "midi": 71,
      "hit": false,
      "t": 188257.8124999975,
      "d": 57.291666666656965,
      "v": 98
    },
    {
      "midi": 83,
      "hit": false,
      "t": 188257.8124999975,
      "d": 127.60416666665697,
      "v": 87
    },
    {
      "midi": 83,
      "hit": false,
      "t": 188263.02083333328,
      "d": 119.79166666665697,
      "v": 100
    },
    {
      "midi": 95,
      "hit": false,
      "t": 188263.02083333328,
      "d": 119.79166666665697,
      "v": 100
    },
    {
      "midi": 71,
      "hit": false,
      "t": 188385.41666666415,
      "d": 54.6875,
      "v": 90
    },
    {
      "midi": 71,
      "hit": false,
      "t": 188505.2083333308,
      "d": 59.895833333343035,
      "v": 98
    },
    {
      "midi": 71,
      "hit": false,
      "t": 188630.2083333308,
      "d": 59.895833333343035,
      "v": 90
    },
    {
      "midi": 75,
      "hit": false,
      "t": 188752.60416666415,
      "d": 124.9999999999709,
      "v": 87
    },
    {
      "midi": 80,
      "hit": false,
      "t": 188755.2083333308,
      "d": 124.9999999999709,
      "v": 87
    },
    {
      "midi": 71,
      "hit": false,
      "t": 188757.81249999747,
      "d": 57.291666666656965,
      "v": 95
    },
    {
      "midi": 83,
      "hit": false,
      "t": 188757.81249999747,
      "d": 122.39583333331393,
      "v": 87
    },
    {
      "midi": 71,
      "hit": false,
      "t": 188882.81249999744,
      "d": 59.895833333343035,
      "v": 90
    },
    {
      "midi": 75,
      "hit": false,
      "t": 189252.60416666412,
      "d": 124.9999999999709,
      "v": 87
    },
    {
      "midi": 80,
      "hit": false,
      "t": 189255.20833333078,
      "d": 124.9999999999709,
      "v": 87
    },
    {
      "midi": 70,
      "hit": false,
      "t": 189257.81249999744,
      "d": 57.291666666656965,
      "v": 98
    },
    {
      "midi": 82,
      "hit": false,
      "t": 189257.81249999744,
      "d": 122.39583333331393,
      "v": 87
    },
    {
      "midi": 70,
      "hit": false,
      "t": 189380.20833333075,
      "d": 59.895833333343035,
      "v": 90
    },
    {
      "midi": 75,
      "hit": false,
      "t": 189755.20833333075,
      "d": 122.39583333334303,
      "v": 87
    },
    {
      "midi": 80,
      "hit": false,
      "t": 189755.20833333075,
      "d": 125,
      "v": 87
    },
    {
      "midi": 70,
      "hit": false,
      "t": 189757.8124999974,
      "d": 59.895833333343035,
      "v": 98
    },
    {
      "midi": 82,
      "hit": false,
      "t": 189757.8124999974,
      "d": 122.39583333334303,
      "v": 87
    },
    {
      "midi": 70,
      "hit": false,
      "t": 189882.8124999974,
      "d": 57.291666666656965,
      "v": 90
    },
    {
      "midi": 80,
      "hit": false,
      "t": 190013.02083333328,
      "d": 117.1875,
      "v": 100
    },
    {
      "midi": 92,
      "hit": false,
      "t": 190013.02083333328,
      "d": 119.79166666665697,
      "v": 100
    },
    {
      "midi": 75,
      "hit": false,
      "t": 190252.60416666407,
      "d": 124.9999999999709,
      "v": 87
    },
    {
      "midi": 80,
      "hit": false,
      "t": 190255.20833333072,
      "d": 124.9999999999709,
      "v": 87
    },
    {
      "midi": 71,
      "hit": false,
      "t": 190257.81249999738,
      "d": 57.291666666656965,
      "v": 98
    },
    {
      "midi": 83,
      "hit": false,
      "t": 190257.81249999738,
      "d": 127.60416666665697,
      "v": 87
    },
    {
      "midi": 78,
      "hit": false,
      "t": 190263.02083333328,
      "d": 119.79166666665697,
      "v": 100
    },
    {
      "midi": 90,
      "hit": false,
      "t": 190263.02083333328,
      "d": 119.79166666665697,
      "v": 100
    },
    {
      "midi": 71,
      "hit": false,
      "t": 190385.41666666404,
      "d": 57.291666666656965,
      "v": 90
    },
    {
      "midi": 71,
      "hit": false,
      "t": 190507.81249999735,
      "d": 59.895833333343035,
      "v": 98
    },
    {
      "midi": 80,
      "hit": false,
      "t": 190510.4166666666,
      "d": 122.39583333334303,
      "v": 100
    },
    {
      "midi": 92,
      "hit": false,
      "t": 190510.4166666666,
      "d": 122.39583333334303,
      "v": 100
    },
    {
      "midi": 71,
      "hit": false,
      "t": 190630.2083333307,
      "d": 59.895833333343035,
      "v": 90
    },
    {
      "midi": 75,
      "hit": false,
      "t": 190752.60416666404,
      "d": 125,
      "v": 87
    },
    {
      "midi": 80,
      "hit": false,
      "t": 190755.2083333307,
      "d": 125,
      "v": 87
    },
    {
      "midi": 75,
      "hit": false,
      "t": 190757.81249999994,
      "d": 127.60416666665697,
      "v": 100
    },
    {
      "midi": 87,
      "hit": false,
      "t": 190757.81249999994,
      "d": 127.60416666665697,
      "v": 100
    },
    {
      "midi": 71,
      "hit": false,
      "t": 190760.41666666404,
      "d": 54.6875,
      "v": 95
    },
    {
      "midi": 83,
      "hit": false,
      "t": 190760.41666666404,
      "d": 122.39583333331393,
      "v": 87
    },
    {
      "midi": 71,
      "hit": false,
      "t": 190882.81249999735,
      "d": 59.895833333343035,
      "v": 90
    },
    {
      "midi": 78,
      "hit": false,
      "t": 191007.81249999994,
      "d": 125,
      "v": 100
    },
    {
      "midi": 90,
      "hit": false,
      "t": 191010.4166666666,
      "d": 122.39583333334303,
      "v": 100
    },
    {
      "midi": 75,
      "hit": false,
      "t": 191252.60416666404,
      "d": 127.60416666665697,
      "v": 87
    },
    {
      "midi": 80,
      "hit": false,
      "t": 191255.2083333307,
      "d": 125,
      "v": 87
    },
    {
      "midi": 70,
      "hit": false,
      "t": 191257.81249999735,
      "d": 59.895833333343035,
      "v": 98
    },
    {
      "midi": 82,
      "hit": false,
      "t": 191257.81249999735,
      "d": 122.39583333334303,
      "v": 87
    },
    {
      "midi": 80,
      "hit": false,
      "t": 191263.02083333328,
      "d": 122.39583333334303,
      "v": 100
    },
    {
      "midi": 92,
      "hit": false,
      "t": 191263.02083333328,
      "d": 125,
      "v": 100
    },
    {
      "midi": 70,
      "hit": false,
      "t": 191382.81249999735,
      "d": 57.291666666656965,
      "v": 90
    },
    {
      "midi": 75,
      "hit": false,
      "t": 191752.604166664,
      "d": 124.9999999999709,
      "v": 87
    },
    {
      "midi": 80,
      "hit": false,
      "t": 191755.20833333067,
      "d": 124.9999999999709,
      "v": 87
    },
    {
      "midi": 70,
      "hit": false,
      "t": 191757.81249999732,
      "d": 57.291666666656965,
      "v": 98
    },
    {
      "midi": 82,
      "hit": false,
      "t": 191757.81249999732,
      "d": 124.9999999999709,
      "v": 87
    },
    {
      "midi": 78,
      "hit": false,
      "t": 191763.02083333328,
      "d": 122.39583333334303,
      "v": 100
    },
    {
      "midi": 90,
      "hit": false,
      "t": 191763.02083333328,
      "d": 122.39583333334303,
      "v": 100
    },
    {
      "midi": 70,
      "hit": false,
      "t": 191882.8124999973,
      "d": 57.291666666656965,
      "v": 90
    },
    {
      "midi": 80,
      "hit": false,
      "t": 192010.41666666663,
      "d": 122.39583333331393,
      "v": 100
    },
    {
      "midi": 92,
      "hit": false,
      "t": 192013.02083333328,
      "d": 119.79166666665697,
      "v": 100
    },
    {
      "midi": 75,
      "hit": false,
      "t": 192252.60416666395,
      "d": 124.9999999999709,
      "v": 87
    },
    {
      "midi": 80,
      "hit": false,
      "t": 192255.2083333306,
      "d": 124.9999999999709,
      "v": 87
    },
    {
      "midi": 71,
      "hit": false,
      "t": 192257.81249999726,
      "d": 57.291666666656965,
      "v": 98
    },
    {
      "midi": 83,
      "hit": false,
      "t": 192257.81249999726,
      "d": 124.9999999999709,
      "v": 87
    },
    {
      "midi": 83,
      "hit": false,
      "t": 192263.02083333328,
      "d": 119.79166666665697,
      "v": 100
    },
    {
      "midi": 95,
      "hit": false,
      "t": 192263.02083333328,
      "d": 119.79166666665697,
      "v": 100
    },
    {
      "midi": 71,
      "hit": false,
      "t": 192385.4166666639,
      "d": 57.291666666656965,
      "v": 90
    },
    {
      "midi": 71,
      "hit": false,
      "t": 192505.20833333055,
      "d": 62.5,
      "v": 98
    },
    {
      "midi": 71,
      "hit": false,
      "t": 192627.6041666639,
      "d": 62.5,
      "v": 90
    },
    {
      "midi": 75,
      "hit": false,
      "t": 192752.6041666639,
      "d": 125,
      "v": 87
    },
    {
      "midi": 80,
      "hit": false,
      "t": 192755.20833333055,
      "d": 125,
      "v": 87
    },
    {
      "midi": 83,
      "hit": false,
      "t": 192755.20833333055,
      "d": 125,
      "v": 87
    },
    {
      "midi": 71,
      "hit": false,
      "t": 192760.4166666639,
      "d": 54.6875,
      "v": 95
    },
    {
      "midi": 71,
      "hit": false,
      "t": 192880.20833333055,
      "d": 62.5,
      "v": 90
    },
    {
      "midi": 75,
      "hit": false,
      "t": 193252.6041666639,
      "d": 125,
      "v": 87
    },
    {
      "midi": 80,
      "hit": false,
      "t": 193255.20833333055,
      "d": 125,
      "v": 87
    },
    {
      "midi": 70,
      "hit": false,
      "t": 193257.8124999972,
      "d": 59.895833333343035,
      "v": 98
    },
    {
      "midi": 82,
      "hit": false,
      "t": 193257.8124999972,
      "d": 122.39583333334303,
      "v": 87
    },
    {
      "midi": 70,
      "hit": false,
      "t": 193382.8124999972,
      "d": 57.291666666656965,
      "v": 90
    },
    {
      "midi": 75,
      "hit": false,
      "t": 193752.60416666386,
      "d": 124.9999999999709,
      "v": 87
    },
    {
      "midi": 80,
      "hit": false,
      "t": 193755.20833333052,
      "d": 124.9999999999709,
      "v": 87
    },
    {
      "midi": 70,
      "hit": false,
      "t": 193757.81249999718,
      "d": 57.291666666656965,
      "v": 98
    },
    {
      "midi": 82,
      "hit": false,
      "t": 193757.81249999718,
      "d": 122.39583333331393,
      "v": 87
    },
    {
      "midi": 70,
      "hit": false,
      "t": 193882.81249999715,
      "d": 57.291666666656965,
      "v": 90
    },
    {
      "midi": 80,
      "hit": false,
      "t": 194013.02083333328,
      "d": 117.1875,
      "v": 100
    },
    {
      "midi": 92,
      "hit": false,
      "t": 194015.62499999994,
      "d": 117.1875,
      "v": 100
    },
    {
      "midi": 73,
      "hit": false,
      "t": 194252.6041666638,
      "d": 125,
      "v": 87
    },
    {
      "midi": 78,
      "hit": false,
      "t": 194255.20833333046,
      "d": 125,
      "v": 87
    },
    {
      "midi": 78,
      "hit": false,
      "t": 194257.81249999994,
      "d": 127.60416666665697,
      "v": 100
    },
    {
      "midi": 90,
      "hit": false,
      "t": 194257.81249999994,
      "d": 127.60416666665697,
      "v": 100
    },
    {
      "midi": 70,
      "hit": false,
      "t": 194260.4166666638,
      "d": 54.6875,
      "v": 98
    },
    {
      "midi": 82,
      "hit": false,
      "t": 194260.4166666638,
      "d": 122.39583333331393,
      "v": 87
    },
    {
      "midi": 70,
      "hit": false,
      "t": 194382.81249999712,
      "d": 59.895833333343035,
      "v": 90
    },
    {
      "midi": 70,
      "hit": false,
      "t": 194507.81249999712,
      "d": 57.291666666656965,
      "v": 98
    },
    {
      "midi": 80,
      "hit": false,
      "t": 194507.81249999994,
      "d": 125,
      "v": 100
    },
    {
      "midi": 92,
      "hit": false,
      "t": 194510.4166666666,
      "d": 122.39583333334303,
      "v": 100
    },
    {
      "midi": 70,
      "hit": false,
      "t": 194630.20833333043,
      "d": 62.5,
      "v": 90
    },
    {
      "midi": 73,
      "hit": false,
      "t": 194752.60416666378,
      "d": 125,
      "v": 87
    },
    {
      "midi": 78,
      "hit": false,
      "t": 194755.20833333043,
      "d": 125,
      "v": 87
    },
    {
      "midi": 70,
      "hit": false,
      "t": 194757.8124999971,
      "d": 59.895833333343035,
      "v": 95
    },
    {
      "midi": 82,
      "hit": false,
      "t": 194757.8124999971,
      "d": 127.60416666668607,
      "v": 87
    },
    {
      "midi": 75,
      "hit": false,
      "t": 194763.02083333328,
      "d": 119.79166666665697,
      "v": 100
    },
    {
      "midi": 87,
      "hit": false,
      "t": 194765.62499999994,
      "d": 117.1875,
      "v": 100
    },
    {
      "midi": 70,
      "hit": false,
      "t": 194885.41666666378,
      "d": 57.291666666656965,
      "v": 90
    },
    {
      "midi": 78,
      "hit": false,
      "t": 195010.4166666666,
      "d": 122.39583333334303,
      "v": 100
    },
    {
      "midi": 90,
      "hit": false,
      "t": 195010.4166666666,
      "d": 122.39583333334303,
      "v": 100
    },
    {
      "midi": 73,
      "hit": false,
      "t": 195252.60416666378,
      "d": 125,
      "v": 87
    },
    {
      "midi": 78,
      "hit": false,
      "t": 195255.20833333043,
      "d": 125,
      "v": 87
    },
    {
      "midi": 68,
      "hit": false,
      "t": 195257.8124999971,
      "d": 59.895833333343035,
      "v": 98
    },
    {
      "midi": 80,
      "hit": false,
      "t": 195257.8124999971,
      "d": 127.60416666668607,
      "v": 87
    },
    {
      "midi": 80,
      "hit": false,
      "t": 195263.02083333328,
      "d": 119.79166666665697,
      "v": 100
    },
    {
      "midi": 92,
      "hit": false,
      "t": 195263.02083333328,
      "d": 119.79166666665697,
      "v": 100
    },
    {
      "midi": 68,
      "hit": false,
      "t": 195385.41666666378,
      "d": 54.6875,
      "v": 90
    },
    {
      "midi": 73,
      "hit": false,
      "t": 195752.60416666378,
      "d": 124.9999999999709,
      "v": 87
    },
    {
      "midi": 78,
      "hit": false,
      "t": 195755.20833333043,
      "d": 124.9999999999709,
      "v": 87
    },
    {
      "midi": 68,
      "hit": false,
      "t": 195757.8124999971,
      "d": 57.291666666656965,
      "v": 98
    },
    {
      "midi": 80,
      "hit": false,
      "t": 195757.8124999971,
      "d": 124.9999999999709,
      "v": 87
    },
    {
      "midi": 80,
      "hit": false,
      "t": 195763.02083333328,
      "d": 122.39583333334303,
      "v": 100
    },
    {
      "midi": 92,
      "hit": false,
      "t": 195763.02083333328,
      "d": 122.39583333334303,
      "v": 100
    },
    {
      "midi": 68,
      "hit": false,
      "t": 195882.81249999706,
      "d": 57.291666666656965,
      "v": 90
    },
    {
      "midi": 73,
      "hit": false,
      "t": 196007.81249999706,
      "d": 119.79166666668607,
      "v": 87
    },
    {
      "midi": 78,
      "hit": false,
      "t": 196007.81249999706,
      "d": 122.39583333334303,
      "v": 87
    },
    {
      "midi": 78,
      "hit": false,
      "t": 196010.41666666663,
      "d": 122.39583333331393,
      "v": 100
    },
    {
      "midi": 82,
      "hit": false,
      "t": 196013.0208333304,
      "d": 122.39583333334303,
      "v": 87
    },
    {
      "midi": 90,
      "hit": false,
      "t": 196013.02083333328,
      "d": 119.79166666665697,
      "v": 100
    },
    {
      "midi": 75,
      "hit": false,
      "t": 198252.60416666375,
      "d": 125,
      "v": 87
    },
    {
      "midi": 80,
      "hit": false,
      "t": 198255.2083333304,
      "d": 125,
      "v": 87
    },
    {
      "midi": 71,
      "hit": false,
      "t": 198257.81249999706,
      "d": 59.895833333343035,
      "v": 98
    },
    {
      "midi": 83,
      "hit": false,
      "t": 198257.81249999706,
      "d": 125,
      "v": 87
    },
    {
      "midi": 71,
      "hit": false,
      "t": 198382.81249999706,
      "d": 59.895833333343035,
      "v": 90
    },
    {
      "midi": 71,
      "hit": false,
      "t": 198507.81249999706,
      "d": 57.291666666656965,
      "v": 98
    },
    {
      "midi": 71,
      "hit": false,
      "t": 198630.20833333037,
      "d": 62.5,
      "v": 90
    },
    {
      "midi": 75,
      "hit": false,
      "t": 198755.20833333037,
      "d": 125,
      "v": 87
    },
    {
      "midi": 80,
      "hit": false,
      "t": 198755.20833333037,
      "d": 125,
      "v": 87
    },
    {
      "midi": 83,
      "hit": false,
      "t": 198757.81249999703,
      "d": 125,
      "v": 87
    },
    {
      "midi": 71,
      "hit": false,
      "t": 198765.62499999703,
      "d": 52.083333333343035,
      "v": 95
    },
    {
      "midi": 71,
      "hit": false,
      "t": 198885.4166666637,
      "d": 54.6875,
      "v": 90
    },
    {
      "midi": 75,
      "hit": false,
      "t": 199255.20833333035,
      "d": 122.39583333331393,
      "v": 87
    },
    {
      "midi": 80,
      "hit": false,
      "t": 199255.20833333035,
      "d": 124.9999999999709,
      "v": 87
    },
    {
      "midi": 70,
      "hit": false,
      "t": 199257.812499997,
      "d": 57.291666666656965,
      "v": 98
    },
    {
      "midi": 82,
      "hit": false,
      "t": 199257.812499997,
      "d": 124.9999999999709,
      "v": 87
    },
    {
      "midi": 70,
      "hit": false,
      "t": 199385.41666666363,
      "d": 54.6875,
      "v": 90
    },
    {
      "midi": 75,
      "hit": false,
      "t": 199752.60416666363,
      "d": 124.9999999999709,
      "v": 87
    },
    {
      "midi": 80,
      "hit": false,
      "t": 199755.2083333303,
      "d": 124.9999999999709,
      "v": 87
    },
    {
      "midi": 82,
      "hit": false,
      "t": 199757.81249999694,
      "d": 124.9999999999709,
      "v": 87
    },
    {
      "midi": 70,
      "hit": false,
      "t": 199760.4166666636,
      "d": 54.6875,
      "v": 98
    },
    {
      "midi": 70,
      "hit": false,
      "t": 199882.81249999691,
      "d": 57.291666666656965,
      "v": 90
    },
    {
      "midi": 75,
      "hit": false,
      "t": 200252.60416666357,
      "d": 125,
      "v": 87
    },
    {
      "midi": 80,
      "hit": false,
      "t": 200255.20833333023,
      "d": 125,
      "v": 87
    },
    {
      "midi": 83,
      "hit": false,
      "t": 200257.8124999969,
      "d": 125,
      "v": 87
    },
    {
      "midi": 71,
      "hit": false,
      "t": 200263.02083333023,
      "d": 54.6875,
      "v": 98
    },
    {
      "midi": 71,
      "hit": false,
      "t": 200382.8124999969,
      "d": 59.895833333343035,
      "v": 90
    },
    {
      "midi": 71,
      "hit": false,
      "t": 200507.8124999969,
      "d": 57.291666666656965,
      "v": 98
    },
    {
      "midi": 71,
      "hit": false,
      "t": 200630.2083333302,
      "d": 62.5,
      "v": 90
    },
    {
      "midi": 75,
      "hit": false,
      "t": 200752.60416666354,
      "d": 125,
      "v": 87
    },
    {
      "midi": 80,
      "hit": false,
      "t": 200755.2083333302,
      "d": 125,
      "v": 87
    },
    {
      "midi": 71,
      "hit": false,
      "t": 200757.81249999686,
      "d": 59.895833333343035,
      "v": 95
    },
    {
      "midi": 83,
      "hit": false,
      "t": 200757.81249999686,
      "d": 125,
      "v": 87
    },
    {
      "midi": 71,
      "hit": false,
      "t": 200885.4166666635,
      "d": 54.6875,
      "v": 90
    },
    {
      "midi": 70,
      "hit": false,
      "t": 201007.81249999686,
      "d": 59.895833333343035,
      "v": 98
    },
    {
      "midi": 75,
      "hit": false,
      "t": 201252.60416666354,
      "d": 124.9999999999709,
      "v": 87
    },
    {
      "midi": 80,
      "hit": false,
      "t": 201255.2083333302,
      "d": 124.9999999999709,
      "v": 87
    },
    {
      "midi": 82,
      "hit": false,
      "t": 201257.81249999686,
      "d": 124.9999999999709,
      "v": 87
    },
    {
      "midi": 70,
      "hit": false,
      "t": 201260.4166666635,
      "d": 54.6875,
      "v": 98
    },
    {
      "midi": 70,
      "hit": false,
      "t": 201382.81249999683,
      "d": 57.291666666656965,
      "v": 90
    },
    {
      "midi": 71,
      "hit": false,
      "t": 201507.81249999683,
      "d": 59.895833333343035,
      "v": 98
    },
    {
      "midi": 75,
      "hit": false,
      "t": 201752.6041666635,
      "d": 125,
      "v": 87
    },
    {
      "midi": 80,
      "hit": false,
      "t": 201755.20833333017,
      "d": 125,
      "v": 87
    },
    {
      "midi": 70,
      "hit": false,
      "t": 201757.81249999683,
      "d": 59.895833333343035,
      "v": 98
    },
    {
      "midi": 82,
      "hit": false,
      "t": 201757.81249999683,
      "d": 125,
      "v": 87
    },
    {
      "midi": 70,
      "hit": false,
      "t": 201888.02083333017,
      "d": 52.083333333343035,
      "v": 90
    },
    {
      "midi": 75,
      "hit": false,
      "t": 202252.6041666635,
      "d": 127.60416666665697,
      "v": 87
    },
    {
      "midi": 80,
      "hit": false,
      "t": 202255.20833333017,
      "d": 125,
      "v": 87
    },
    {
      "midi": 71,
      "hit": false,
      "t": 202257.81249999683,
      "d": 59.895833333343035,
      "v": 98
    },
    {
      "midi": 83,
      "hit": false,
      "t": 202257.81249999683,
      "d": 122.39583333334303,
      "v": 87
    },
    {
      "midi": 71,
      "hit": false,
      "t": 202388.02083333017,
      "d": 52.083333333343035,
      "v": 90
    },
    {
      "midi": 71,
      "hit": false,
      "t": 202507.81249999686,
      "d": 57.291666666656965,
      "v": 98
    },
    {
      "midi": 71,
      "hit": false,
      "t": 202630.20833333017,
      "d": 62.5,
      "v": 90
    },
    {
      "midi": 75,
      "hit": false,
      "t": 202752.6041666635,
      "d": 125,
      "v": 87
    },
    {
      "midi": 80,
      "hit": false,
      "t": 202755.20833333017,
      "d": 125,
      "v": 87
    },
    {
      "midi": 71,
      "hit": false,
      "t": 202757.81249999683,
      "d": 59.895833333343035,
      "v": 95
    },
    {
      "midi": 83,
      "hit": false,
      "t": 202757.81249999683,
      "d": 125,
      "v": 87
    },
    {
      "midi": 71,
      "hit": false,
      "t": 202885.41666666348,
      "d": 54.6875,
      "v": 90
    },
    {
      "midi": 75,
      "hit": false,
      "t": 203252.60416666348,
      "d": 124.9999999999709,
      "v": 87
    },
    {
      "midi": 80,
      "hit": false,
      "t": 203255.20833333014,
      "d": 124.9999999999709,
      "v": 87
    },
    {
      "midi": 70,
      "hit": false,
      "t": 203257.8124999968,
      "d": 57.291666666656965,
      "v": 98
    },
    {
      "midi": 82,
      "hit": false,
      "t": 203257.8124999968,
      "d": 124.9999999999709,
      "v": 87
    },
    {
      "midi": 70,
      "hit": false,
      "t": 203388.0208333301,
      "d": 52.083333333343035,
      "v": 90
    },
    {
      "midi": 75,
      "hit": false,
      "t": 203752.60416666346,
      "d": 125,
      "v": 87
    },
    {
      "midi": 80,
      "hit": false,
      "t": 203755.2083333301,
      "d": 125,
      "v": 87
    },
    {
      "midi": 70,
      "hit": false,
      "t": 203757.81249999677,
      "d": 59.895833333343035,
      "v": 98
    },
    {
      "midi": 82,
      "hit": false,
      "t": 203757.81249999677,
      "d": 125,
      "v": 87
    },
    {
      "midi": 70,
      "hit": false,
      "t": 203888.0208333301,
      "d": 52.083333333343035,
      "v": 90
    },
    {
      "midi": 75,
      "hit": false,
      "t": 204252.60416666346,
      "d": 127.60416666665697,
      "v": 87
    },
    {
      "midi": 80,
      "hit": false,
      "t": 204255.2083333301,
      "d": 125,
      "v": 87
    },
    {
      "midi": 71,
      "hit": false,
      "t": 204257.81249999677,
      "d": 59.895833333343035,
      "v": 98
    },
    {
      "midi": 83,
      "hit": false,
      "t": 204257.81249999677,
      "d": 125,
      "v": 87
    },
    {
      "midi": 71,
      "hit": false,
      "t": 204385.41666666343,
      "d": 54.6875,
      "v": 90
    },
    {
      "midi": 71,
      "hit": false,
      "t": 204507.81249999677,
      "d": 57.291666666656965,
      "v": 98
    },
    {
      "midi": 71,
      "hit": false,
      "t": 204630.20833333008,
      "d": 62.5,
      "v": 90
    },
    {
      "midi": 75,
      "hit": false,
      "t": 204755.20833333008,
      "d": 122.39583333331393,
      "v": 87
    },
    {
      "midi": 80,
      "hit": false,
      "t": 204755.20833333008,
      "d": 124.9999999999709,
      "v": 87
    },
    {
      "midi": 83,
      "hit": false,
      "t": 204757.81249999674,
      "d": 124.9999999999709,
      "v": 87
    },
    {
      "midi": 71,
      "hit": false,
      "t": 204765.62499999674,
      "d": 49.479166666656965,
      "v": 95
    },
    {
      "midi": 71,
      "hit": false,
      "t": 204888.02083333005,
      "d": 54.6875,
      "v": 90
    },
    {
      "midi": 70,
      "hit": false,
      "t": 205007.8124999967,
      "d": 59.895833333343035,
      "v": 98
    },
    {
      "midi": 75,
      "hit": false,
      "t": 205252.6041666634,
      "d": 125,
      "v": 87
    },
    {
      "midi": 80,
      "hit": false,
      "t": 205255.20833333005,
      "d": 125,
      "v": 87
    },
    {
      "midi": 82,
      "hit": false,
      "t": 205257.8124999967,
      "d": 125,
      "v": 87
    },
    {
      "midi": 70,
      "hit": false,
      "t": 205263.02083333005,
      "d": 52.083333333343035,
      "v": 98
    },
    {
      "midi": 70,
      "hit": false,
      "t": 205388.02083333005,
      "d": 52.083333333343035,
      "v": 90
    },
    {
      "midi": 71,
      "hit": false,
      "t": 205507.81249999674,
      "d": 59.895833333343035,
      "v": 98
    },
    {
      "midi": 75,
      "hit": false,
      "t": 205752.60416666343,
      "d": 125,
      "v": 87
    },
    {
      "midi": 80,
      "hit": false,
      "t": 205755.20833333008,
      "d": 125,
      "v": 87
    },
    {
      "midi": 70,
      "hit": false,
      "t": 205757.81249999674,
      "d": 59.895833333343035,
      "v": 98
    },
    {
      "midi": 82,
      "hit": false,
      "t": 205757.81249999674,
      "d": 122.39583333334303,
      "v": 87
    },
    {
      "midi": 70,
      "hit": false,
      "t": 205888.02083333008,
      "d": 52.083333333343035,
      "v": 90
    },
    {
      "midi": 73,
      "hit": false,
      "t": 206252.60416666343,
      "d": 125,
      "v": 87
    },
    {
      "midi": 78,
      "hit": false,
      "t": 206255.20833333008,
      "d": 125,
      "v": 87
    },
    {
      "midi": 70,
      "hit": false,
      "t": 206257.81249999674,
      "d": 59.895833333343035,
      "v": 98
    },
    {
      "midi": 82,
      "hit": false,
      "t": 206257.81249999674,
      "d": 125,
      "v": 87
    },
    {
      "midi": 70,
      "hit": false,
      "t": 206385.4166666634,
      "d": 54.6875,
      "v": 90
    },
    {
      "midi": 70,
      "hit": false,
      "t": 206507.81249999674,
      "d": 57.291666666656965,
      "v": 98
    },
    {
      "midi": 70,
      "hit": false,
      "t": 206632.81249999674,
      "d": 59.895833333343035,
      "v": 90
    },
    {
      "midi": 73,
      "hit": false,
      "t": 206755.20833333008,
      "d": 122.39583333331393,
      "v": 87
    },
    {
      "midi": 78,
      "hit": false,
      "t": 206755.20833333008,
      "d": 124.9999999999709,
      "v": 87
    },
    {
      "midi": 82,
      "hit": false,
      "t": 206757.81249999674,
      "d": 124.9999999999709,
      "v": 87
    },
    {
      "midi": 70,
      "hit": false,
      "t": 206760.4166666634,
      "d": 54.6875,
      "v": 95
    },
    {
      "midi": 70,
      "hit": false,
      "t": 206885.41666666337,
      "d": 54.6875,
      "v": 90
    },
    {
      "midi": 73,
      "hit": false,
      "t": 207252.60416666337,
      "d": 124.9999999999709,
      "v": 87
    },
    {
      "midi": 78,
      "hit": false,
      "t": 207255.20833333003,
      "d": 124.9999999999709,
      "v": 87
    },
    {
      "midi": 68,
      "hit": false,
      "t": 207257.81249999668,
      "d": 57.291666666656965,
      "v": 98
    },
    {
      "midi": 80,
      "hit": false,
      "t": 207257.81249999668,
      "d": 124.9999999999709,
      "v": 87
    },
    {
      "midi": 68,
      "hit": false,
      "t": 207382.81249999665,
      "d": 57.291666666656965,
      "v": 90
    },
    {
      "midi": 73,
      "hit": false,
      "t": 207752.6041666633,
      "d": 125,
      "v": 87
    },
    {
      "midi": 78,
      "hit": false,
      "t": 207755.20833332997,
      "d": 125,
      "v": 87
    },
    {
      "midi": 68,
      "hit": false,
      "t": 207757.81249999662,
      "d": 59.895833333343035,
      "v": 98
    },
    {
      "midi": 80,
      "hit": false,
      "t": 207757.81249999662,
      "d": 122.39583333334303,
      "v": 87
    },
    {
      "midi": 68,
      "hit": false,
      "t": 207888.02083332997,
      "d": 52.083333333343035,
      "v": 90
    },
    {
      "midi": 73,
      "hit": false,
      "t": 208252.6041666633,
      "d": 125,
      "v": 87
    },
    {
      "midi": 78,
      "hit": false,
      "t": 208255.20833332997,
      "d": 125,
      "v": 87
    },
    {
      "midi": 70,
      "hit": false,
      "t": 208257.81249999662,
      "d": 59.895833333343035,
      "v": 98
    },
    {
      "midi": 82,
      "hit": false,
      "t": 208257.81249999662,
      "d": 122.39583333334303,
      "v": 87
    },
    {
      "midi": 70,
      "hit": false,
      "t": 208388.02083332997,
      "d": 52.083333333343035,
      "v": 90
    },
    {
      "midi": 70,
      "hit": false,
      "t": 208507.81249999665,
      "d": 57.291666666656965,
      "v": 98
    },
    {
      "midi": 70,
      "hit": false,
      "t": 208630.20833332997,
      "d": 62.5,
      "v": 90
    },
    {
      "midi": 73,
      "hit": false,
      "t": 208752.6041666633,
      "d": 124.9999999999709,
      "v": 87
    },
    {
      "midi": 78,
      "hit": false,
      "t": 208755.20833332997,
      "d": 124.9999999999709,
      "v": 87
    },
    {
      "midi": 70,
      "hit": false,
      "t": 208757.81249999662,
      "d": 57.291666666656965,
      "v": 95
    },
    {
      "midi": 82,
      "hit": false,
      "t": 208757.81249999662,
      "d": 124.9999999999709,
      "v": 87
    },
    {
      "midi": 70,
      "hit": false,
      "t": 208885.41666666325,
      "d": 57.291666666656965,
      "v": 90
    },
    {
      "midi": 68,
      "hit": false,
      "t": 209007.81249999657,
      "d": 59.895833333343035,
      "v": 98
    },
    {
      "midi": 73,
      "hit": false,
      "t": 209252.60416666325,
      "d": 125,
      "v": 87
    },
    {
      "midi": 78,
      "hit": false,
      "t": 209255.2083333299,
      "d": 125,
      "v": 87
    },
    {
      "midi": 68,
      "hit": false,
      "t": 209257.81249999657,
      "d": 59.895833333343035,
      "v": 98
    },
    {
      "midi": 80,
      "hit": false,
      "t": 209257.81249999657,
      "d": 125,
      "v": 87
    },
    {
      "midi": 68,
      "hit": false,
      "t": 209382.81249999657,
      "d": 57.291666666656965,
      "v": 90
    },
    {
      "midi": 70,
      "hit": false,
      "t": 209507.81249999657,
      "d": 57.291666666656965,
      "v": 98
    },
    {
      "midi": 73,
      "hit": false,
      "t": 209752.60416666322,
      "d": 127.60416666665697,
      "v": 87
    },
    {
      "midi": 78,
      "hit": false,
      "t": 209755.20833332988,
      "d": 125,
      "v": 87
    },
    {
      "midi": 68,
      "hit": false,
      "t": 209757.81249999654,
      "d": 59.895833333343035,
      "v": 98
    },
    {
      "midi": 80,
      "hit": false,
      "t": 209757.81249999654,
      "d": 122.39583333334303,
      "v": 87
    },
    {
      "midi": 68,
      "hit": false,
      "t": 209888.02083332988,
      "d": 52.083333333343035,
      "v": 90
    },
    {
      "midi": 75,
      "hit": false,
      "t": 210252.60416666322,
      "d": 124.9999999999709,
      "v": 87
    },
    {
      "midi": 80,
      "hit": false,
      "t": 210255.20833332988,
      "d": 124.9999999999709,
      "v": 87
    },
    {
      "midi": 71,
      "hit": false,
      "t": 210257.81249999654,
      "d": 57.291666666656965,
      "v": 98
    },
    {
      "midi": 83,
      "hit": false,
      "t": 210257.81249999654,
      "d": 124.9999999999709,
      "v": 87
    },
    {
      "midi": 71,
      "hit": false,
      "t": 210385.41666666316,
      "d": 54.6875,
      "v": 90
    },
    {
      "midi": 71,
      "hit": false,
      "t": 210507.8124999965,
      "d": 57.291666666656965,
      "v": 98
    },
    {
      "midi": 71,
      "hit": false,
      "t": 210630.20833332982,
      "d": 62.5,
      "v": 90
    },
    {
      "midi": 75,
      "hit": false,
      "t": 210752.60416666316,
      "d": 124.9999999999709,
      "v": 87
    },
    {
      "midi": 80,
      "hit": false,
      "t": 210755.20833332982,
      "d": 124.9999999999709,
      "v": 87
    },
    {
      "midi": 71,
      "hit": false,
      "t": 210757.81249999648,
      "d": 57.291666666656965,
      "v": 95
    },
    {
      "midi": 83,
      "hit": false,
      "t": 210757.81249999648,
      "d": 124.9999999999709,
      "v": 87
    },
    {
      "midi": 71,
      "hit": false,
      "t": 210885.4166666631,
      "d": 57.291666666656965,
      "v": 90
    },
    {
      "midi": 75,
      "hit": false,
      "t": 211252.6041666631,
      "d": 125,
      "v": 87
    },
    {
      "midi": 80,
      "hit": false,
      "t": 211255.20833332976,
      "d": 125,
      "v": 87
    },
    {
      "midi": 70,
      "hit": false,
      "t": 211257.81249999642,
      "d": 59.895833333343035,
      "v": 98
    },
    {
      "midi": 82,
      "hit": false,
      "t": 211257.81249999642,
      "d": 125,
      "v": 87
    },
    {
      "midi": 70,
      "hit": false,
      "t": 211388.02083332976,
      "d": 54.6875,
      "v": 90
    },
    {
      "midi": 75,
      "hit": false,
      "t": 211752.6041666631,
      "d": 127.60416666665697,
      "v": 87
    },
    {
      "midi": 80,
      "hit": false,
      "t": 211755.20833332976,
      "d": 125,
      "v": 87
    },
    {
      "midi": 70,
      "hit": false,
      "t": 211757.81249999642,
      "d": 59.895833333343035,
      "v": 98
    },
    {
      "midi": 82,
      "hit": false,
      "t": 211757.81249999642,
      "d": 125,
      "v": 87
    },
    {
      "midi": 70,
      "hit": false,
      "t": 211882.81249999642,
      "d": 57.291666666656965,
      "v": 90
    },
    {
      "midi": 75,
      "hit": false,
      "t": 212255.20833332973,
      "d": 122.39583333331393,
      "v": 87
    },
    {
      "midi": 80,
      "hit": false,
      "t": 212255.20833332973,
      "d": 124.9999999999709,
      "v": 87
    },
    {
      "midi": 71,
      "hit": false,
      "t": 212257.8124999964,
      "d": 57.291666666656965,
      "v": 98
    },
    {
      "midi": 83,
      "hit": false,
      "t": 212257.8124999964,
      "d": 124.9999999999709,
      "v": 87
    },
    {
      "midi": 71,
      "hit": false,
      "t": 212385.41666666302,
      "d": 54.6875,
      "v": 90
    },
    {
      "midi": 71,
      "hit": false,
      "t": 212507.81249999636,
      "d": 59.895833333343035,
      "v": 98
    },
    {
      "midi": 71,
      "hit": false,
      "t": 212630.2083333297,
      "d": 59.895833333343035,
      "v": 90
    },
    {
      "midi": 75,
      "hit": false,
      "t": 212752.60416666305,
      "d": 124.9999999999709,
      "v": 87
    },
    {
      "midi": 80,
      "hit": false,
      "t": 212755.2083333297,
      "d": 124.9999999999709,
      "v": 87
    },
    {
      "midi": 83,
      "hit": false,
      "t": 212757.81249999636,
      "d": 124.9999999999709,
      "v": 87
    },
    {
      "midi": 71,
      "hit": false,
      "t": 212760.41666666302,
      "d": 54.6875,
      "v": 95
    },
    {
      "midi": 71,
      "hit": false,
      "t": 212882.81249999633,
      "d": 59.895833333343035,
      "v": 90
    },
    {
      "midi": 70,
      "hit": false,
      "t": 213005.20833332968,
      "d": 62.5,
      "v": 98
    },
    {
      "midi": 75,
      "hit": false,
      "t": 213252.60416666302,
      "d": 125,
      "v": 87
    },
    {
      "midi": 80,
      "hit": false,
      "t": 213255.20833332968,
      "d": 125,
      "v": 87
    },
    {
      "midi": 70,
      "hit": false,
      "t": 213257.81249999633,
      "d": 59.895833333343035,
      "v": 98
    },
    {
      "midi": 82,
      "hit": false,
      "t": 213257.81249999633,
      "d": 125,
      "v": 87
    },
    {
      "midi": 70,
      "hit": false,
      "t": 213382.81249999633,
      "d": 59.895833333343035,
      "v": 90
    },
    {
      "midi": 71,
      "hit": false,
      "t": 213507.81249999633,
      "d": 57.291666666656965,
      "v": 98
    },
    {
      "midi": 75,
      "hit": false,
      "t": 213752.604166663,
      "d": 125,
      "v": 87
    },
    {
      "midi": 80,
      "hit": false,
      "t": 213755.20833332965,
      "d": 125,
      "v": 87
    },
    {
      "midi": 70,
      "hit": false,
      "t": 213757.8124999963,
      "d": 59.895833333343035,
      "v": 98
    },
    {
      "midi": 82,
      "hit": false,
      "t": 213757.8124999963,
      "d": 125,
      "v": 87
    },
    {
      "midi": 70,
      "hit": false,
      "t": 213885.41666666296,
      "d": 54.6875,
      "v": 90
    },
    {
      "midi": 75,
      "hit": false,
      "t": 214010.41666666296,
      "d": 119.79166666665697,
      "v": 87
    },
    {
      "midi": 80,
      "hit": false,
      "t": 214010.41666666296,
      "d": 119.79166666665697,
      "v": 87
    },
    {
      "midi": 83,
      "hit": false,
      "t": 214010.41666666296,
      "d": 119.79166666665697,
      "v": 87
    },
    {
      "midi": 75,
      "hit": false,
      "t": 214252.60416666296,
      "d": 125,
      "v": 87
    },
    {
      "midi": 80,
      "hit": false,
      "t": 214255.20833332962,
      "d": 125,
      "v": 87
    },
    {
      "midi": 83,
      "hit": false,
      "t": 214257.81249999627,
      "d": 125,
      "v": 87
    },
    {
      "midi": 71,
      "hit": false,
      "t": 214263.02083332962,
      "d": 52.083333333343035,
      "v": 98
    },
    {
      "midi": 71,
      "hit": false,
      "t": 214385.41666666293,
      "d": 57.291666666656965,
      "v": 90
    },
    {
      "midi": 71,
      "hit": false,
      "t": 214507.81249999625,
      "d": 59.895833333343035,
      "v": 98
    },
    {
      "midi": 71,
      "hit": false,
      "t": 214630.2083333296,
      "d": 59.895833333343035,
      "v": 90
    },
    {
      "midi": 75,
      "hit": false,
      "t": 214752.60416666293,
      "d": 125,
      "v": 87
    },
    {
      "midi": 80,
      "hit": false,
      "t": 214755.2083333296,
      "d": 125,
      "v": 87
    },
    {
      "midi": 83,
      "hit": false,
      "t": 214757.81249999625,
      "d": 125,
      "v": 87
    },
    {
      "midi": 71,
      "hit": false,
      "t": 214763.0208333296,
      "d": 54.6875,
      "v": 95
    },
    {
      "midi": 71,
      "hit": false,
      "t": 214888.0208333296,
      "d": 54.6875,
      "v": 90
    },
    {
      "midi": 75,
      "hit": false,
      "t": 215252.60416666293,
      "d": 125,
      "v": 87
    },
    {
      "midi": 80,
      "hit": false,
      "t": 215255.2083333296,
      "d": 125,
      "v": 87
    },
    {
      "midi": 70,
      "hit": false,
      "t": 215257.81249999625,
      "d": 59.895833333343035,
      "v": 98
    },
    {
      "midi": 82,
      "hit": false,
      "t": 215257.81249999625,
      "d": 125,
      "v": 87
    },
    {
      "midi": 70,
      "hit": false,
      "t": 215385.4166666629,
      "d": 54.6875,
      "v": 90
    },
    {
      "midi": 75,
      "hit": false,
      "t": 215752.6041666629,
      "d": 125,
      "v": 87
    },
    {
      "midi": 80,
      "hit": false,
      "t": 215755.20833332956,
      "d": 125,
      "v": 87
    },
    {
      "midi": 70,
      "hit": false,
      "t": 215757.81249999622,
      "d": 59.895833333343035,
      "v": 98
    },
    {
      "midi": 82,
      "hit": false,
      "t": 215757.81249999622,
      "d": 125,
      "v": 87
    },
    {
      "midi": 70,
      "hit": false,
      "t": 215885.41666666287,
      "d": 54.6875,
      "v": 90
    },
    {
      "midi": 75,
      "hit": false,
      "t": 216252.60416666287,
      "d": 124.9999999999709,
      "v": 87
    },
    {
      "midi": 80,
      "hit": false,
      "t": 216255.20833332953,
      "d": 124.9999999999709,
      "v": 87
    },
    {
      "midi": 71,
      "hit": false,
      "t": 216257.8124999962,
      "d": 57.291666666656965,
      "v": 98
    },
    {
      "midi": 83,
      "hit": false,
      "t": 216257.8124999962,
      "d": 124.9999999999709,
      "v": 87
    },
    {
      "midi": 71,
      "hit": false,
      "t": 216385.41666666282,
      "d": 57.291666666656965,
      "v": 90
    },
    {
      "midi": 71,
      "hit": false,
      "t": 216507.81249999613,
      "d": 59.895833333343035,
      "v": 98
    },
    {
      "midi": 71,
      "hit": false,
      "t": 216630.20833332947,
      "d": 62.5,
      "v": 90
    },
    {
      "midi": 75,
      "hit": false,
      "t": 216752.60416666282,
      "d": 125,
      "v": 87
    },
    {
      "midi": 80,
      "hit": false,
      "t": 216755.20833332947,
      "d": 125,
      "v": 87
    },
    {
      "midi": 71,
      "hit": false,
      "t": 216757.81249999613,
      "d": 59.895833333343035,
      "v": 95
    },
    {
      "midi": 83,
      "hit": false,
      "t": 216757.81249999613,
      "d": 125,
      "v": 87
    },
    {
      "midi": 71,
      "hit": false,
      "t": 216888.02083332947,
      "d": 54.6875,
      "v": 90
    },
    {
      "midi": 70,
      "hit": false,
      "t": 217005.20833332947,
      "d": 62.5,
      "v": 98
    },
    {
      "midi": 75,
      "hit": false,
      "t": 217252.60416666282,
      "d": 125,
      "v": 87
    },
    {
      "midi": 80,
      "hit": false,
      "t": 217255.20833332947,
      "d": 125,
      "v": 87
    },
    {
      "midi": 70,
      "hit": false,
      "t": 217257.81249999613,
      "d": 59.895833333343035,
      "v": 98
    },
    {
      "midi": 82,
      "hit": false,
      "t": 217257.81249999613,
      "d": 125,
      "v": 87
    },
    {
      "midi": 70,
      "hit": false,
      "t": 217385.4166666628,
      "d": 54.6875,
      "v": 90
    },
    {
      "midi": 71,
      "hit": false,
      "t": 217507.81249999613,
      "d": 57.291666666656965,
      "v": 98
    },
    {
      "midi": 75,
      "hit": false,
      "t": 217752.6041666628,
      "d": 124.9999999999709,
      "v": 87
    },
    {
      "midi": 80,
      "hit": false,
      "t": 217755.20833332944,
      "d": 124.9999999999709,
      "v": 87
    },
    {
      "midi": 70,
      "hit": false,
      "t": 217757.8124999961,
      "d": 57.291666666656965,
      "v": 98
    },
    {
      "midi": 82,
      "hit": false,
      "t": 217757.8124999961,
      "d": 124.9999999999709,
      "v": 87
    },
    {
      "midi": 70,
      "hit": false,
      "t": 217885.41666666273,
      "d": 54.6875,
      "v": 90
    },
    {
      "midi": 76,
      "hit": false,
      "t": 218013.02083332938,
      "d": 117.1875,
      "v": 87
    },
    {
      "midi": 80,
      "hit": false,
      "t": 218013.02083332938,
      "d": 117.1875,
      "v": 87
    },
    {
      "midi": 83,
      "hit": false,
      "t": 218013.02083332938,
      "d": 117.1875,
      "v": 87
    },
    {
      "midi": 76,
      "hit": false,
      "t": 218252.60416666273,
      "d": 124.9999999999709,
      "v": 87
    },
    {
      "midi": 80,
      "hit": false,
      "t": 218255.20833332938,
      "d": 124.9999999999709,
      "v": 87
    },
    {
      "midi": 71,
      "hit": false,
      "t": 218257.81249999604,
      "d": 57.291666666656965,
      "v": 98
    },
    {
      "midi": 83,
      "hit": false,
      "t": 218257.81249999604,
      "d": 124.9999999999709,
      "v": 87
    },
    {
      "midi": 71,
      "hit": false,
      "t": 218385.41666666267,
      "d": 57.291666666656965,
      "v": 90
    },
    {
      "midi": 71,
      "hit": false,
      "t": 218507.81249999598,
      "d": 59.895833333343035,
      "v": 98
    },
    {
      "midi": 71,
      "hit": false,
      "t": 218630.20833332933,
      "d": 59.895833333343035,
      "v": 90
    },
    {
      "midi": 76,
      "hit": false,
      "t": 218752.60416666267,
      "d": 125,
      "v": 87
    },
    {
      "midi": 80,
      "hit": false,
      "t": 218755.20833332933,
      "d": 125,
      "v": 87
    },
    {
      "midi": 71,
      "hit": false,
      "t": 218757.81249999598,
      "d": 59.895833333343035,
      "v": 95
    },
    {
      "midi": 83,
      "hit": false,
      "t": 218757.81249999598,
      "d": 125,
      "v": 87
    },
    {
      "midi": 71,
      "hit": false,
      "t": 218882.81249999598,
      "d": 59.895833333343035,
      "v": 90
    },
    {
      "midi": 76,
      "hit": false,
      "t": 219252.60416666267,
      "d": 125,
      "v": 87
    },
    {
      "midi": 80,
      "hit": false,
      "t": 219255.20833332933,
      "d": 125,
      "v": 87
    },
    {
      "midi": 70,
      "hit": false,
      "t": 219257.81249999598,
      "d": 59.895833333343035,
      "v": 98
    },
    {
      "midi": 82,
      "hit": false,
      "t": 219257.81249999598,
      "d": 122.39583333334303,
      "v": 87
    },
    {
      "midi": 70,
      "hit": false,
      "t": 219388.02083332933,
      "d": 52.083333333343035,
      "v": 90
    },
    {
      "midi": 76,
      "hit": false,
      "t": 219755.20833332933,
      "d": 122.39583333331393,
      "v": 87
    },
    {
      "midi": 80,
      "hit": false,
      "t": 219755.20833332933,
      "d": 124.9999999999709,
      "v": 87
    },
    {
      "midi": 82,
      "hit": false,
      "t": 219757.81249999598,
      "d": 124.9999999999709,
      "v": 87
    },
    {
      "midi": 70,
      "hit": false,
      "t": 219765.62499999598,
      "d": 49.479166666656965,
      "v": 98
    },
    {
      "midi": 70,
      "hit": false,
      "t": 219885.4166666626,
      "d": 54.6875,
      "v": 90
    },
    {
      "midi": 76,
      "hit": false,
      "t": 220252.6041666626,
      "d": 124.9999999999709,
      "v": 87
    },
    {
      "midi": 80,
      "hit": false,
      "t": 220255.20833332927,
      "d": 124.9999999999709,
      "v": 87
    },
    {
      "midi": 71,
      "hit": false,
      "t": 220257.81249999593,
      "d": 57.291666666656965,
      "v": 98
    },
    {
      "midi": 83,
      "hit": false,
      "t": 220257.81249999593,
      "d": 124.9999999999709,
      "v": 87
    },
    {
      "midi": 71,
      "hit": false,
      "t": 220388.02083332924,
      "d": 54.6875,
      "v": 90
    },
    {
      "midi": 71,
      "hit": false,
      "t": 220507.8124999959,
      "d": 57.291666666656965,
      "v": 98
    },
    {
      "midi": 71,
      "hit": false,
      "t": 220630.2083333292,
      "d": 62.5,
      "v": 90
    },
    {
      "midi": 76,
      "hit": false,
      "t": 220752.60416666255,
      "d": 127.60416666665697,
      "v": 87
    },
    {
      "midi": 80,
      "hit": false,
      "t": 220755.2083333292,
      "d": 125,
      "v": 87
    },
    {
      "midi": 83,
      "hit": false,
      "t": 220757.81249999587,
      "d": 122.39583333334303,
      "v": 87
    },
    {
      "midi": 71,
      "hit": false,
      "t": 220763.0208333292,
      "d": 54.6875,
      "v": 95
    },
    {
      "midi": 71,
      "hit": false,
      "t": 220888.0208333292,
      "d": 54.6875,
      "v": 90
    },
    {
      "midi": 70,
      "hit": false,
      "t": 221005.2083333292,
      "d": 59.895833333343035,
      "v": 98
    },
    {
      "midi": 76,
      "hit": false,
      "t": 221252.60416666255,
      "d": 125,
      "v": 87
    },
    {
      "midi": 80,
      "hit": false,
      "t": 221255.2083333292,
      "d": 125,
      "v": 87
    },
    {
      "midi": 70,
      "hit": false,
      "t": 221257.81249999587,
      "d": 59.895833333343035,
      "v": 98
    },
    {
      "midi": 82,
      "hit": false,
      "t": 221257.81249999587,
      "d": 122.39583333334303,
      "v": 87
    },
    {
      "midi": 70,
      "hit": false,
      "t": 221388.0208333292,
      "d": 52.083333333343035,
      "v": 90
    },
    {
      "midi": 71,
      "hit": false,
      "t": 221507.8124999959,
      "d": 57.291666666656965,
      "v": 98
    },
    {
      "midi": 76,
      "hit": false,
      "t": 221752.60416666255,
      "d": 124.9999999999709,
      "v": 87
    },
    {
      "midi": 80,
      "hit": false,
      "t": 221755.2083333292,
      "d": 124.9999999999709,
      "v": 87
    },
    {
      "midi": 70,
      "hit": false,
      "t": 221757.81249999587,
      "d": 57.291666666656965,
      "v": 98
    },
    {
      "midi": 82,
      "hit": false,
      "t": 221757.81249999587,
      "d": 124.9999999999709,
      "v": 87
    },
    {
      "midi": 70,
      "hit": false,
      "t": 221885.4166666625,
      "d": 54.6875,
      "v": 90
    },
    {
      "midi": 73,
      "hit": false,
      "t": 222010.4166666625,
      "d": 119.79166666665697,
      "v": 87
    },
    {
      "midi": 78,
      "hit": false,
      "t": 222010.4166666625,
      "d": 119.79166666665697,
      "v": 87
    },
    {
      "midi": 80,
      "hit": false,
      "t": 222010.4166666625,
      "d": 119.79166666665697,
      "v": 87
    },
    {
      "midi": 82,
      "hit": false,
      "t": 222018.2291666625,
      "d": 114.58333333331393,
      "v": 87
    },
    {
      "midi": 73,
      "hit": false,
      "t": 222252.60416666247,
      "d": 124.9999999999709,
      "v": 87
    },
    {
      "midi": 78,
      "hit": false,
      "t": 222255.20833332912,
      "d": 124.9999999999709,
      "v": 87
    },
    {
      "midi": 80,
      "hit": false,
      "t": 222257.81249999578,
      "d": 124.9999999999709,
      "v": 87
    },
    {
      "midi": 82,
      "hit": false,
      "t": 222257.81249999578,
      "d": 124.9999999999709,
      "v": 87
    },
    {
      "midi": 70,
      "hit": false,
      "t": 222260.41666666244,
      "d": 57.291666666656965,
      "v": 98
    },
    {
      "midi": 70,
      "hit": false,
      "t": 222385.4166666624,
      "d": 57.291666666656965,
      "v": 90
    },
    {
      "midi": 70,
      "hit": false,
      "t": 222507.81249999572,
      "d": 57.291666666656965,
      "v": 98
    },
    {
      "midi": 70,
      "hit": false,
      "t": 222630.20833332904,
      "d": 62.5,
      "v": 90
    },
    {
      "midi": 73,
      "hit": false,
      "t": 222752.60416666238,
      "d": 127.60416666665697,
      "v": 87
    },
    {
      "midi": 78,
      "hit": false,
      "t": 222755.20833332904,
      "d": 125,
      "v": 87
    },
    {
      "midi": 70,
      "hit": false,
      "t": 222757.8124999957,
      "d": 59.895833333343035,
      "v": 95
    },
    {
      "midi": 80,
      "hit": false,
      "t": 222757.8124999957,
      "d": 125,
      "v": 87
    },
    {
      "midi": 82,
      "hit": false,
      "t": 222757.8124999957,
      "d": 125,
      "v": 87
    },
    {
      "midi": 70,
      "hit": false,
      "t": 222885.41666666235,
      "d": 54.6875,
      "v": 90
    },
    {
      "midi": 73,
      "hit": false,
      "t": 223252.60416666235,
      "d": 124.9999999999709,
      "v": 87
    },
    {
      "midi": 78,
      "hit": false,
      "t": 223255.208333329,
      "d": 124.9999999999709,
      "v": 87
    },
    {
      "midi": 68,
      "hit": false,
      "t": 223257.81249999566,
      "d": 57.291666666656965,
      "v": 98
    },
    {
      "midi": 80,
      "hit": false,
      "t": 223257.81249999566,
      "d": 124.9999999999709,
      "v": 87
    },
    {
      "midi": 82,
      "hit": false,
      "t": 223257.81249999566,
      "d": 124.9999999999709,
      "v": 87
    },
    {
      "midi": 68,
      "hit": false,
      "t": 223385.4166666623,
      "d": 54.6875,
      "v": 90
    },
    {
      "midi": 73,
      "hit": false,
      "t": 223752.6041666623,
      "d": 124.9999999999709,
      "v": 87
    },
    {
      "midi": 78,
      "hit": false,
      "t": 223755.20833332895,
      "d": 124.9999999999709,
      "v": 87
    },
    {
      "midi": 68,
      "hit": false,
      "t": 223757.8124999956,
      "d": 57.291666666656965,
      "v": 98
    },
    {
      "midi": 80,
      "hit": false,
      "t": 223757.8124999956,
      "d": 124.9999999999709,
      "v": 87
    },
    {
      "midi": 82,
      "hit": false,
      "t": 223757.8124999956,
      "d": 124.9999999999709,
      "v": 87
    },
    {
      "midi": 68,
      "hit": false,
      "t": 223885.41666666223,
      "d": 54.6875,
      "v": 90
    },
    {
      "midi": 73,
      "hit": false,
      "t": 224013.0208333289,
      "d": 114.58333333334303,
      "v": 87
    },
    {
      "midi": 78,
      "hit": false,
      "t": 224013.0208333289,
      "d": 117.1875,
      "v": 87
    },
    {
      "midi": 80,
      "hit": false,
      "t": 224013.0208333289,
      "d": 119.79166666665697,
      "v": 87
    },
    {
      "midi": 82,
      "hit": false,
      "t": 224020.8333333289,
      "d": 111.97916666665697,
      "v": 87
    },
    {
      "midi": 71,
      "hit": false,
      "t": 226127.6041666622,
      "d": 125,
      "v": 77
    },
    {
      "midi": 76,
      "hit": false,
      "t": 226130.20833332886,
      "d": 125,
      "v": 77
    },
    {
      "midi": 80,
      "hit": false,
      "t": 226130.20833332886,
      "d": 125,
      "v": 77
    },
    {
      "midi": 71,
      "hit": false,
      "t": 226257.81249999552,
      "d": 119.79166666665697,
      "v": 102
    },
    {
      "midi": 76,
      "hit": false,
      "t": 226257.81249999552,
      "d": 122.39583333331393,
      "v": 102
    },
    {
      "midi": 80,
      "hit": false,
      "t": 226260.41666666217,
      "d": 119.79166666665697,
      "v": 102
    },
    {
      "midi": 71,
      "hit": false,
      "t": 226382.8124999955,
      "d": 122.39583333334303,
      "v": 77
    },
    {
      "midi": 76,
      "hit": false,
      "t": 226382.8124999955,
      "d": 122.39583333334303,
      "v": 77
    },
    {
      "midi": 80,
      "hit": false,
      "t": 226382.8124999955,
      "d": 125,
      "v": 77
    },
    {
      "midi": 71,
      "hit": false,
      "t": 226510.41666666215,
      "d": 117.1875,
      "v": 102
    },
    {
      "midi": 76,
      "hit": false,
      "t": 226510.41666666215,
      "d": 119.79166666665697,
      "v": 102
    },
    {
      "midi": 80,
      "hit": false,
      "t": 226510.41666666215,
      "d": 119.79166666665697,
      "v": 102
    },
    {
      "midi": 71,
      "hit": false,
      "t": 226632.81249999546,
      "d": 119.79166666665697,
      "v": 87
    },
    {
      "midi": 76,
      "hit": false,
      "t": 226632.81249999546,
      "d": 122.39583333331393,
      "v": 87
    },
    {
      "midi": 80,
      "hit": false,
      "t": 226635.41666666212,
      "d": 119.79166666665697,
      "v": 87
    },
    {
      "midi": 71,
      "hit": false,
      "t": 226757.81249999543,
      "d": 119.79166666665697,
      "v": 82
    },
    {
      "midi": 76,
      "hit": false,
      "t": 226757.81249999543,
      "d": 122.39583333331393,
      "v": 82
    },
    {
      "midi": 80,
      "hit": false,
      "t": 226760.4166666621,
      "d": 119.79166666665697,
      "v": 82
    },
    {
      "midi": 71,
      "hit": false,
      "t": 226882.8124999954,
      "d": 122.39583333334303,
      "v": 77
    },
    {
      "midi": 76,
      "hit": false,
      "t": 226882.8124999954,
      "d": 125,
      "v": 77
    },
    {
      "midi": 80,
      "hit": false,
      "t": 226882.8124999954,
      "d": 127.60416666665697,
      "v": 77
    },
    {
      "midi": 71,
      "hit": false,
      "t": 227252.60416666206,
      "d": 124.9999999999709,
      "v": 102
    },
    {
      "midi": 76,
      "hit": false,
      "t": 227255.20833332872,
      "d": 124.9999999999709,
      "v": 102
    },
    {
      "midi": 80,
      "hit": false,
      "t": 227257.81249999537,
      "d": 122.39583333331393,
      "v": 102
    },
    {
      "midi": 71,
      "hit": false,
      "t": 227382.81249999534,
      "d": 122.39583333331393,
      "v": 92
    },
    {
      "midi": 76,
      "hit": false,
      "t": 227382.81249999534,
      "d": 124.9999999999709,
      "v": 92
    },
    {
      "midi": 80,
      "hit": false,
      "t": 227385.416666662,
      "d": 122.39583333331393,
      "v": 92
    },
    {
      "midi": 68,
      "hit": false,
      "t": 228127.60416666197,
      "d": 127.60416666665697,
      "v": 77
    },
    {
      "midi": 73,
      "hit": false,
      "t": 228130.20833332863,
      "d": 125,
      "v": 77
    },
    {
      "midi": 76,
      "hit": false,
      "t": 228130.20833332863,
      "d": 125,
      "v": 77
    },
    {
      "midi": 68,
      "hit": false,
      "t": 228257.81249999529,
      "d": 119.79166666665697,
      "v": 102
    },
    {
      "midi": 73,
      "hit": false,
      "t": 228260.41666666194,
      "d": 119.79166666665697,
      "v": 102
    },
    {
      "midi": 76,
      "hit": false,
      "t": 228260.41666666194,
      "d": 119.79166666665697,
      "v": 102
    },
    {
      "midi": 68,
      "hit": false,
      "t": 228380.2083333286,
      "d": 125,
      "v": 77
    },
    {
      "midi": 73,
      "hit": false,
      "t": 228382.81249999526,
      "d": 122.39583333334303,
      "v": 77
    },
    {
      "midi": 76,
      "hit": false,
      "t": 228382.81249999526,
      "d": 125,
      "v": 77
    },
    {
      "midi": 68,
      "hit": false,
      "t": 228510.4166666619,
      "d": 119.79166666665697,
      "v": 102
    },
    {
      "midi": 73,
      "hit": false,
      "t": 228510.4166666619,
      "d": 119.79166666665697,
      "v": 102
    },
    {
      "midi": 76,
      "hit": false,
      "t": 228510.4166666619,
      "d": 119.79166666665697,
      "v": 102
    },
    {
      "midi": 68,
      "hit": false,
      "t": 228632.81249999523,
      "d": 122.39583333334303,
      "v": 87
    },
    {
      "midi": 73,
      "hit": false,
      "t": 228632.81249999523,
      "d": 122.39583333334303,
      "v": 87
    },
    {
      "midi": 76,
      "hit": false,
      "t": 228632.81249999523,
      "d": 122.39583333334303,
      "v": 87
    },
    {
      "midi": 68,
      "hit": false,
      "t": 228757.81249999523,
      "d": 119.79166666665697,
      "v": 82
    },
    {
      "midi": 73,
      "hit": false,
      "t": 228757.81249999523,
      "d": 122.39583333331393,
      "v": 82
    },
    {
      "midi": 76,
      "hit": false,
      "t": 228760.41666666188,
      "d": 119.79166666665697,
      "v": 82
    },
    {
      "midi": 68,
      "hit": false,
      "t": 228882.8124999952,
      "d": 122.39583333334303,
      "v": 77
    },
    {
      "midi": 73,
      "hit": false,
      "t": 228882.8124999952,
      "d": 125,
      "v": 77
    },
    {
      "midi": 76,
      "hit": false,
      "t": 228882.8124999952,
      "d": 127.60416666665697,
      "v": 77
    },
    {
      "midi": 68,
      "hit": false,
      "t": 229252.60416666185,
      "d": 124.9999999999709,
      "v": 102
    },
    {
      "midi": 73,
      "hit": false,
      "t": 229255.2083333285,
      "d": 124.9999999999709,
      "v": 102
    },
    {
      "midi": 76,
      "hit": false,
      "t": 229257.81249999517,
      "d": 122.39583333331393,
      "v": 102
    },
    {
      "midi": 68,
      "hit": false,
      "t": 229382.81249999514,
      "d": 122.39583333331393,
      "v": 92
    },
    {
      "midi": 73,
      "hit": false,
      "t": 229382.81249999514,
      "d": 124.9999999999709,
      "v": 92
    },
    {
      "midi": 76,
      "hit": false,
      "t": 229385.4166666618,
      "d": 122.39583333331393,
      "v": 92
    },
    {
      "midi": 68,
      "hit": false,
      "t": 229752.60416666177,
      "d": 124.9999999999709,
      "v": 92
    },
    {
      "midi": 73,
      "hit": false,
      "t": 229755.20833332842,
      "d": 124.9999999999709,
      "v": 92
    },
    {
      "midi": 76,
      "hit": false,
      "t": 229757.81249999508,
      "d": 122.39583333331393,
      "v": 92
    },
    {
      "midi": 68,
      "hit": false,
      "t": 229882.81249999505,
      "d": 122.39583333334303,
      "v": 92
    },
    {
      "midi": 73,
      "hit": false,
      "t": 229882.81249999505,
      "d": 125,
      "v": 92
    },
    {
      "midi": 76,
      "hit": false,
      "t": 229882.81249999505,
      "d": 127.60416666665697,
      "v": 92
    },
    {
      "midi": 70,
      "hit": false,
      "t": 230127.6041666617,
      "d": 127.60416666665697,
      "v": 77
    },
    {
      "midi": 73,
      "hit": false,
      "t": 230130.20833332837,
      "d": 125,
      "v": 77
    },
    {
      "midi": 78,
      "hit": false,
      "t": 230130.20833332837,
      "d": 127.60416666665697,
      "v": 77
    },
    {
      "midi": 70,
      "hit": false,
      "t": 230260.41666666168,
      "d": 117.1875,
      "v": 102
    },
    {
      "midi": 73,
      "hit": false,
      "t": 230260.41666666168,
      "d": 119.79166666665697,
      "v": 102
    },
    {
      "midi": 78,
      "hit": false,
      "t": 230260.41666666168,
      "d": 119.79166666665697,
      "v": 102
    },
    {
      "midi": 70,
      "hit": false,
      "t": 230380.20833332834,
      "d": 125,
      "v": 77
    },
    {
      "midi": 73,
      "hit": false,
      "t": 230382.812499995,
      "d": 122.39583333334303,
      "v": 77
    },
    {
      "midi": 78,
      "hit": false,
      "t": 230382.812499995,
      "d": 125,
      "v": 77
    },
    {
      "midi": 70,
      "hit": false,
      "t": 230510.41666666165,
      "d": 119.79166666665697,
      "v": 102
    },
    {
      "midi": 73,
      "hit": false,
      "t": 230510.41666666165,
      "d": 119.79166666665697,
      "v": 102
    },
    {
      "midi": 78,
      "hit": false,
      "t": 230510.41666666165,
      "d": 119.79166666665697,
      "v": 102
    },
    {
      "midi": 70,
      "hit": false,
      "t": 230632.81249999497,
      "d": 122.39583333334303,
      "v": 87
    },
    {
      "midi": 73,
      "hit": false,
      "t": 230632.81249999497,
      "d": 122.39583333334303,
      "v": 87
    },
    {
      "midi": 78,
      "hit": false,
      "t": 230632.81249999497,
      "d": 122.39583333334303,
      "v": 87
    },
    {
      "midi": 70,
      "hit": false,
      "t": 230757.81249999497,
      "d": 119.79166666665697,
      "v": 82
    },
    {
      "midi": 73,
      "hit": false,
      "t": 230757.81249999497,
      "d": 122.39583333331393,
      "v": 82
    },
    {
      "midi": 78,
      "hit": false,
      "t": 230760.41666666162,
      "d": 119.79166666665697,
      "v": 82
    },
    {
      "midi": 70,
      "hit": false,
      "t": 230882.81249999494,
      "d": 122.39583333334303,
      "v": 77
    },
    {
      "midi": 73,
      "hit": false,
      "t": 230882.81249999494,
      "d": 125,
      "v": 77
    },
    {
      "midi": 78,
      "hit": false,
      "t": 230882.81249999494,
      "d": 125,
      "v": 77
    },
    {
      "midi": 70,
      "hit": false,
      "t": 231252.6041666616,
      "d": 124.9999999999709,
      "v": 102
    },
    {
      "midi": 73,
      "hit": false,
      "t": 231255.20833332825,
      "d": 124.9999999999709,
      "v": 102
    },
    {
      "midi": 78,
      "hit": false,
      "t": 231257.8124999949,
      "d": 122.39583333331393,
      "v": 102
    },
    {
      "midi": 70,
      "hit": false,
      "t": 231382.81249999488,
      "d": 122.39583333331393,
      "v": 92
    },
    {
      "midi": 73,
      "hit": false,
      "t": 231382.81249999488,
      "d": 122.39583333331393,
      "v": 92
    },
    {
      "midi": 78,
      "hit": false,
      "t": 231385.41666666153,
      "d": 122.39583333331393,
      "v": 92
    },
    {
      "midi": 70,
      "hit": false,
      "t": 232127.6041666615,
      "d": 125,
      "v": 77
    },
    {
      "midi": 75,
      "hit": false,
      "t": 232130.20833332816,
      "d": 125,
      "v": 77
    },
    {
      "midi": 78,
      "hit": false,
      "t": 232130.20833332816,
      "d": 125,
      "v": 77
    },
    {
      "midi": 70,
      "hit": false,
      "t": 232257.81249999482,
      "d": 119.79166666665697,
      "v": 102
    },
    {
      "midi": 75,
      "hit": false,
      "t": 232257.81249999482,
      "d": 122.39583333331393,
      "v": 102
    },
    {
      "midi": 78,
      "hit": false,
      "t": 232257.81249999482,
      "d": 122.39583333331393,
      "v": 102
    },
    {
      "midi": 70,
      "hit": false,
      "t": 232382.8124999948,
      "d": 122.39583333334303,
      "v": 77
    },
    {
      "midi": 75,
      "hit": false,
      "t": 232382.8124999948,
      "d": 125,
      "v": 77
    },
    {
      "midi": 78,
      "hit": false,
      "t": 232382.8124999948,
      "d": 125,
      "v": 77
    },
    {
      "midi": 70,
      "hit": false,
      "t": 232510.41666666145,
      "d": 119.79166666665697,
      "v": 102
    },
    {
      "midi": 75,
      "hit": false,
      "t": 232510.41666666145,
      "d": 119.79166666665697,
      "v": 102
    },
    {
      "midi": 78,
      "hit": false,
      "t": 232510.41666666145,
      "d": 119.79166666665697,
      "v": 102
    },
    {
      "midi": 70,
      "hit": false,
      "t": 232632.81249999476,
      "d": 122.39583333334303,
      "v": 87
    },
    {
      "midi": 75,
      "hit": false,
      "t": 232632.81249999476,
      "d": 122.39583333334303,
      "v": 87
    },
    {
      "midi": 78,
      "hit": false,
      "t": 232632.81249999476,
      "d": 122.39583333334303,
      "v": 87
    },
    {
      "midi": 70,
      "hit": false,
      "t": 232757.81249999476,
      "d": 119.79166666665697,
      "v": 82
    },
    {
      "midi": 75,
      "hit": false,
      "t": 232757.81249999476,
      "d": 122.39583333331393,
      "v": 82
    },
    {
      "midi": 78,
      "hit": false,
      "t": 232760.41666666142,
      "d": 119.79166666665697,
      "v": 82
    },
    {
      "midi": 70,
      "hit": false,
      "t": 232882.81249999473,
      "d": 122.39583333334303,
      "v": 77
    },
    {
      "midi": 75,
      "hit": false,
      "t": 232882.81249999473,
      "d": 125,
      "v": 77
    },
    {
      "midi": 78,
      "hit": false,
      "t": 232882.81249999473,
      "d": 125,
      "v": 77
    },
    {
      "midi": 70,
      "hit": false,
      "t": 233252.6041666614,
      "d": 124.9999999999709,
      "v": 102
    },
    {
      "midi": 75,
      "hit": false,
      "t": 233255.20833332805,
      "d": 124.9999999999709,
      "v": 102
    },
    {
      "midi": 78,
      "hit": false,
      "t": 233257.8124999947,
      "d": 122.39583333331393,
      "v": 102
    },
    {
      "midi": 70,
      "hit": false,
      "t": 233382.81249999467,
      "d": 122.39583333334303,
      "v": 92
    },
    {
      "midi": 75,
      "hit": false,
      "t": 233382.81249999467,
      "d": 122.39583333334303,
      "v": 92
    },
    {
      "midi": 78,
      "hit": false,
      "t": 233382.81249999467,
      "d": 125,
      "v": 92
    },
    {
      "midi": 71,
      "hit": false,
      "t": 234130.20833332802,
      "d": 122.39583333334303,
      "v": 77
    },
    {
      "midi": 76,
      "hit": false,
      "t": 234130.20833332802,
      "d": 125,
      "v": 77
    },
    {
      "midi": 80,
      "hit": false,
      "t": 234130.20833332802,
      "d": 125,
      "v": 77
    },
    {
      "midi": 71,
      "hit": false,
      "t": 234257.81249999467,
      "d": 119.79166666665697,
      "v": 102
    },
    {
      "midi": 76,
      "hit": false,
      "t": 234257.81249999467,
      "d": 122.39583333331393,
      "v": 102
    },
    {
      "midi": 80,
      "hit": false,
      "t": 234260.41666666133,
      "d": 119.79166666665697,
      "v": 102
    },
    {
      "midi": 71,
      "hit": false,
      "t": 234382.81249999464,
      "d": 122.39583333334303,
      "v": 77
    },
    {
      "midi": 76,
      "hit": false,
      "t": 234382.81249999464,
      "d": 125,
      "v": 77
    },
    {
      "midi": 80,
      "hit": false,
      "t": 234382.81249999464,
      "d": 125,
      "v": 77
    },
    {
      "midi": 71,
      "hit": false,
      "t": 234510.4166666613,
      "d": 119.79166666665697,
      "v": 102
    },
    {
      "midi": 76,
      "hit": false,
      "t": 234510.4166666613,
      "d": 119.79166666665697,
      "v": 102
    },
    {
      "midi": 80,
      "hit": false,
      "t": 234510.4166666613,
      "d": 119.79166666665697,
      "v": 102
    },
    {
      "midi": 71,
      "hit": false,
      "t": 234632.81249999462,
      "d": 119.79166666665697,
      "v": 87
    },
    {
      "midi": 76,
      "hit": false,
      "t": 234632.81249999462,
      "d": 122.39583333331393,
      "v": 87
    },
    {
      "midi": 80,
      "hit": false,
      "t": 234632.81249999462,
      "d": 122.39583333331393,
      "v": 87
    },
    {
      "midi": 71,
      "hit": false,
      "t": 234757.8124999946,
      "d": 119.79166666665697,
      "v": 82
    },
    {
      "midi": 76,
      "hit": false,
      "t": 234760.41666666124,
      "d": 119.79166666665697,
      "v": 82
    },
    {
      "midi": 80,
      "hit": false,
      "t": 234760.41666666124,
      "d": 119.79166666665697,
      "v": 82
    },
    {
      "midi": 71,
      "hit": false,
      "t": 234882.81249999456,
      "d": 122.39583333334303,
      "v": 77
    },
    {
      "midi": 76,
      "hit": false,
      "t": 234882.81249999456,
      "d": 125,
      "v": 77
    },
    {
      "midi": 80,
      "hit": false,
      "t": 234882.81249999456,
      "d": 125,
      "v": 77
    },
    {
      "midi": 71,
      "hit": false,
      "t": 235252.6041666612,
      "d": 124.9999999999709,
      "v": 102
    },
    {
      "midi": 76,
      "hit": false,
      "t": 235255.20833332787,
      "d": 124.9999999999709,
      "v": 102
    },
    {
      "midi": 80,
      "hit": false,
      "t": 235257.81249999453,
      "d": 122.39583333331393,
      "v": 102
    },
    {
      "midi": 71,
      "hit": false,
      "t": 235382.8124999945,
      "d": 122.39583333334303,
      "v": 92
    },
    {
      "midi": 76,
      "hit": false,
      "t": 235382.8124999945,
      "d": 125,
      "v": 92
    },
    {
      "midi": 80,
      "hit": false,
      "t": 235382.8124999945,
      "d": 125,
      "v": 92
    },
    {
      "midi": 68,
      "hit": false,
      "t": 236127.60416666116,
      "d": 127.60416666665697,
      "v": 77
    },
    {
      "midi": 73,
      "hit": false,
      "t": 236130.2083333278,
      "d": 125,
      "v": 77
    },
    {
      "midi": 76,
      "hit": false,
      "t": 236130.2083333278,
      "d": 125,
      "v": 77
    },
    {
      "midi": 68,
      "hit": false,
      "t": 236257.81249999447,
      "d": 119.79166666665697,
      "v": 102
    },
    {
      "midi": 73,
      "hit": false,
      "t": 236257.81249999447,
      "d": 122.39583333331393,
      "v": 102
    },
    {
      "midi": 76,
      "hit": false,
      "t": 236260.41666666113,
      "d": 119.79166666665697,
      "v": 102
    },
    {
      "midi": 68,
      "hit": false,
      "t": 236382.81249999444,
      "d": 122.39583333334303,
      "v": 77
    },
    {
      "midi": 73,
      "hit": false,
      "t": 236382.81249999444,
      "d": 125,
      "v": 77
    },
    {
      "midi": 76,
      "hit": false,
      "t": 236382.81249999444,
      "d": 125,
      "v": 77
    },
    {
      "midi": 68,
      "hit": false,
      "t": 236510.4166666611,
      "d": 119.79166666665697,
      "v": 102
    },
    {
      "midi": 73,
      "hit": false,
      "t": 236510.4166666611,
      "d": 119.79166666665697,
      "v": 102
    },
    {
      "midi": 76,
      "hit": false,
      "t": 236510.4166666611,
      "d": 119.79166666665697,
      "v": 102
    },
    {
      "midi": 68,
      "hit": false,
      "t": 236632.8124999944,
      "d": 119.79166666665697,
      "v": 87
    },
    {
      "midi": 73,
      "hit": false,
      "t": 236632.8124999944,
      "d": 122.39583333331393,
      "v": 87
    },
    {
      "midi": 76,
      "hit": false,
      "t": 236635.41666666107,
      "d": 119.79166666665697,
      "v": 87
    },
    {
      "midi": 68,
      "hit": false,
      "t": 236757.81249999438,
      "d": 119.79166666665697,
      "v": 82
    },
    {
      "midi": 73,
      "hit": false,
      "t": 236760.41666666104,
      "d": 119.79166666665697,
      "v": 82
    },
    {
      "midi": 76,
      "hit": false,
      "t": 236760.41666666104,
      "d": 119.79166666665697,
      "v": 82
    },
    {
      "midi": 68,
      "hit": false,
      "t": 236882.81249999435,
      "d": 122.39583333331393,
      "v": 77
    },
    {
      "midi": 73,
      "hit": false,
      "t": 236882.81249999435,
      "d": 122.39583333331393,
      "v": 77
    },
    {
      "midi": 76,
      "hit": false,
      "t": 236885.416666661,
      "d": 122.39583333331393,
      "v": 77
    },
    {
      "midi": 68,
      "hit": false,
      "t": 237252.60416666098,
      "d": 124.9999999999709,
      "v": 102
    },
    {
      "midi": 73,
      "hit": false,
      "t": 237255.20833332764,
      "d": 124.9999999999709,
      "v": 102
    },
    {
      "midi": 76,
      "hit": false,
      "t": 237257.8124999943,
      "d": 122.39583333331393,
      "v": 102
    },
    {
      "midi": 68,
      "hit": false,
      "t": 237382.81249999427,
      "d": 122.39583333334303,
      "v": 92
    },
    {
      "midi": 73,
      "hit": false,
      "t": 237382.81249999427,
      "d": 122.39583333334303,
      "v": 92
    },
    {
      "midi": 76,
      "hit": false,
      "t": 237382.81249999427,
      "d": 125,
      "v": 92
    },
    {
      "midi": 68,
      "hit": false,
      "t": 237755.2083333276,
      "d": 125,
      "v": 92
    },
    {
      "midi": 73,
      "hit": false,
      "t": 237755.2083333276,
      "d": 125,
      "v": 92
    },
    {
      "midi": 76,
      "hit": false,
      "t": 237757.81249999427,
      "d": 122.39583333334303,
      "v": 92
    },
    {
      "midi": 68,
      "hit": false,
      "t": 237882.81249999427,
      "d": 125,
      "v": 92
    },
    {
      "midi": 73,
      "hit": false,
      "t": 237882.81249999427,
      "d": 125,
      "v": 92
    },
    {
      "midi": 76,
      "hit": false,
      "t": 237882.81249999427,
      "d": 127.60416666665697,
      "v": 92
    },
    {
      "midi": 70,
      "hit": false,
      "t": 238130.20833332758,
      "d": 122.39583333334303,
      "v": 77
    },
    {
      "midi": 73,
      "hit": false,
      "t": 238130.20833332758,
      "d": 125,
      "v": 77
    },
    {
      "midi": 78,
      "hit": false,
      "t": 238130.20833332758,
      "d": 125,
      "v": 77
    },
    {
      "midi": 70,
      "hit": false,
      "t": 238257.81249999424,
      "d": 119.79166666665697,
      "v": 102
    },
    {
      "midi": 73,
      "hit": false,
      "t": 238257.81249999424,
      "d": 122.39583333331393,
      "v": 102
    },
    {
      "midi": 78,
      "hit": false,
      "t": 238260.4166666609,
      "d": 119.79166666665697,
      "v": 102
    },
    {
      "midi": 70,
      "hit": false,
      "t": 238382.8124999942,
      "d": 122.39583333334303,
      "v": 77
    },
    {
      "midi": 73,
      "hit": false,
      "t": 238382.8124999942,
      "d": 125,
      "v": 77
    },
    {
      "midi": 78,
      "hit": false,
      "t": 238382.8124999942,
      "d": 125,
      "v": 77
    },
    {
      "midi": 70,
      "hit": false,
      "t": 238510.41666666087,
      "d": 119.79166666665697,
      "v": 102
    },
    {
      "midi": 73,
      "hit": false,
      "t": 238510.41666666087,
      "d": 119.79166666665697,
      "v": 102
    },
    {
      "midi": 78,
      "hit": false,
      "t": 238510.41666666087,
      "d": 119.79166666665697,
      "v": 102
    },
    {
      "midi": 70,
      "hit": false,
      "t": 238632.81249999418,
      "d": 119.79166666665697,
      "v": 87
    },
    {
      "midi": 73,
      "hit": false,
      "t": 238632.81249999418,
      "d": 122.39583333331393,
      "v": 87
    },
    {
      "midi": 78,
      "hit": false,
      "t": 238635.41666666084,
      "d": 119.79166666665697,
      "v": 87
    },
    {
      "midi": 70,
      "hit": false,
      "t": 238757.81249999415,
      "d": 119.79166666665697,
      "v": 82
    },
    {
      "midi": 73,
      "hit": false,
      "t": 238757.81249999415,
      "d": 122.39583333331393,
      "v": 82
    },
    {
      "midi": 78,
      "hit": false,
      "t": 238760.4166666608,
      "d": 119.79166666665697,
      "v": 82
    },
    {
      "midi": 70,
      "hit": false,
      "t": 238882.81249999412,
      "d": 122.39583333334303,
      "v": 77
    },
    {
      "midi": 73,
      "hit": false,
      "t": 238882.81249999412,
      "d": 122.39583333334303,
      "v": 77
    },
    {
      "midi": 78,
      "hit": false,
      "t": 238882.81249999412,
      "d": 125,
      "v": 77
    },
    {
      "midi": 70,
      "hit": false,
      "t": 239252.60416666078,
      "d": 124.9999999999709,
      "v": 102
    },
    {
      "midi": 73,
      "hit": false,
      "t": 239255.20833332743,
      "d": 124.9999999999709,
      "v": 102
    },
    {
      "midi": 78,
      "hit": false,
      "t": 239257.8124999941,
      "d": 122.39583333331393,
      "v": 102
    },
    {
      "midi": 70,
      "hit": false,
      "t": 239380.2083333274,
      "d": 125,
      "v": 92
    },
    {
      "midi": 73,
      "hit": false,
      "t": 239382.81249999406,
      "d": 122.39583333334303,
      "v": 92
    },
    {
      "midi": 78,
      "hit": false,
      "t": 239382.81249999406,
      "d": 125,
      "v": 92
    },
    {
      "midi": 70,
      "hit": false,
      "t": 240130.2083333274,
      "d": 122.39583333334303,
      "v": 77
    },
    {
      "midi": 75,
      "hit": false,
      "t": 240130.2083333274,
      "d": 125,
      "v": 77
    },
    {
      "midi": 79,
      "hit": false,
      "t": 240130.2083333274,
      "d": 125,
      "v": 77
    },
    {
      "midi": 70,
      "hit": false,
      "t": 240257.81249999406,
      "d": 119.79166666665697,
      "v": 102
    },
    {
      "midi": 75,
      "hit": false,
      "t": 240257.81249999406,
      "d": 122.39583333331393,
      "v": 102
    },
    {
      "midi": 79,
      "hit": false,
      "t": 240260.41666666072,
      "d": 119.79166666665697,
      "v": 102
    },
    {
      "midi": 70,
      "hit": false,
      "t": 240382.81249999403,
      "d": 122.39583333331393,
      "v": 77
    },
    {
      "midi": 75,
      "hit": false,
      "t": 240382.81249999403,
      "d": 124.9999999999709,
      "v": 77
    },
    {
      "midi": 79,
      "hit": false,
      "t": 240385.4166666607,
      "d": 122.39583333331393,
      "v": 77
    },
    {
      "midi": 70,
      "hit": false,
      "t": 240510.41666666066,
      "d": 119.79166666665697,
      "v": 102
    },
    {
      "midi": 75,
      "hit": false,
      "t": 240510.41666666066,
      "d": 119.79166666665697,
      "v": 102
    },
    {
      "midi": 79,
      "hit": false,
      "t": 240510.41666666066,
      "d": 119.79166666665697,
      "v": 102
    },
    {
      "midi": 70,
      "hit": false,
      "t": 240632.81249999398,
      "d": 119.79166666665697,
      "v": 87
    },
    {
      "midi": 75,
      "hit": false,
      "t": 240632.81249999398,
      "d": 122.39583333331393,
      "v": 87
    },
    {
      "midi": 79,
      "hit": false,
      "t": 240635.41666666063,
      "d": 119.79166666665697,
      "v": 87
    },
    {
      "midi": 70,
      "hit": false,
      "t": 240757.81249999395,
      "d": 119.79166666665697,
      "v": 82
    },
    {
      "midi": 75,
      "hit": false,
      "t": 240760.4166666606,
      "d": 119.79166666665697,
      "v": 82
    },
    {
      "midi": 79,
      "hit": false,
      "t": 240760.4166666606,
      "d": 119.79166666665697,
      "v": 82
    },
    {
      "midi": 70,
      "hit": false,
      "t": 240882.81249999392,
      "d": 122.39583333334303,
      "v": 77
    },
    {
      "midi": 75,
      "hit": false,
      "t": 240882.81249999392,
      "d": 125,
      "v": 77
    },
    {
      "midi": 79,
      "hit": false,
      "t": 240882.81249999392,
      "d": 125,
      "v": 77
    },
    {
      "midi": 70,
      "hit": false,
      "t": 241252.60416666057,
      "d": 125,
      "v": 102
    },
    {
      "midi": 75,
      "hit": false,
      "t": 241255.20833332723,
      "d": 125,
      "v": 102
    },
    {
      "midi": 79,
      "hit": false,
      "t": 241255.20833332723,
      "d": 125,
      "v": 102
    },
    {
      "midi": 70,
      "hit": false,
      "t": 241382.8124999939,
      "d": 122.39583333334303,
      "v": 92
    },
    {
      "midi": 75,
      "hit": false,
      "t": 241382.8124999939,
      "d": 122.39583333334303,
      "v": 92
    },
    {
      "midi": 79,
      "hit": false,
      "t": 241382.8124999939,
      "d": 125,
      "v": 92
    },
    {
      "midi": 71,
      "hit": false,
      "t": 242130.20833332723,
      "d": 122.39583333334303,
      "v": 77
    },
    {
      "midi": 76,
      "hit": false,
      "t": 242130.20833332723,
      "d": 125,
      "v": 77
    },
    {
      "midi": 80,
      "hit": false,
      "t": 242130.20833332723,
      "d": 125,
      "v": 77
    },
    {
      "midi": 71,
      "hit": false,
      "t": 242260.41666666057,
      "d": 117.1875,
      "v": 102
    },
    {
      "midi": 76,
      "hit": false,
      "t": 242260.41666666057,
      "d": 119.79166666665697,
      "v": 102
    },
    {
      "midi": 80,
      "hit": false,
      "t": 242260.41666666057,
      "d": 119.79166666665697,
      "v": 102
    },
    {
      "midi": 71,
      "hit": false,
      "t": 242382.8124999939,
      "d": 122.39583333334303,
      "v": 77
    },
    {
      "midi": 76,
      "hit": false,
      "t": 242382.8124999939,
      "d": 125,
      "v": 77
    },
    {
      "midi": 80,
      "hit": false,
      "t": 242382.8124999939,
      "d": 125,
      "v": 77
    },
    {
      "midi": 71,
      "hit": false,
      "t": 242510.41666666055,
      "d": 117.1875,
      "v": 102
    },
    {
      "midi": 76,
      "hit": false,
      "t": 242510.41666666055,
      "d": 119.79166666665697,
      "v": 102
    },
    {
      "midi": 80,
      "hit": false,
      "t": 242510.41666666055,
      "d": 119.79166666665697,
      "v": 102
    },
    {
      "midi": 71,
      "hit": false,
      "t": 242632.81249999386,
      "d": 122.39583333331393,
      "v": 87
    },
    {
      "midi": 76,
      "hit": false,
      "t": 242632.81249999386,
      "d": 122.39583333331393,
      "v": 87
    },
    {
      "midi": 80,
      "hit": false,
      "t": 242635.41666666052,
      "d": 119.79166666665697,
      "v": 87
    },
    {
      "midi": 71,
      "hit": false,
      "t": 242757.81249999383,
      "d": 119.79166666665697,
      "v": 82
    },
    {
      "midi": 76,
      "hit": false,
      "t": 242760.4166666605,
      "d": 119.79166666665697,
      "v": 82
    },
    {
      "midi": 80,
      "hit": false,
      "t": 242760.4166666605,
      "d": 119.79166666665697,
      "v": 82
    },
    {
      "midi": 71,
      "hit": false,
      "t": 242882.8124999938,
      "d": 122.39583333334303,
      "v": 77
    },
    {
      "midi": 76,
      "hit": false,
      "t": 242882.8124999938,
      "d": 122.39583333334303,
      "v": 77
    },
    {
      "midi": 80,
      "hit": false,
      "t": 242882.8124999938,
      "d": 125,
      "v": 77
    },
    {
      "midi": 71,
      "hit": false,
      "t": 243252.60416666046,
      "d": 124.9999999999709,
      "v": 102
    },
    {
      "midi": 76,
      "hit": false,
      "t": 243255.20833332711,
      "d": 124.9999999999709,
      "v": 102
    },
    {
      "midi": 80,
      "hit": false,
      "t": 243257.81249999377,
      "d": 122.39583333331393,
      "v": 102
    },
    {
      "midi": 71,
      "hit": false,
      "t": 243380.2083333271,
      "d": 125,
      "v": 92
    },
    {
      "midi": 76,
      "hit": false,
      "t": 243382.81249999374,
      "d": 122.39583333334303,
      "v": 92
    },
    {
      "midi": 80,
      "hit": false,
      "t": 243382.81249999374,
      "d": 125,
      "v": 92
    },
    {
      "midi": 68,
      "hit": false,
      "t": 244130.2083333271,
      "d": 122.39583333334303,
      "v": 77
    },
    {
      "midi": 73,
      "hit": false,
      "t": 244130.2083333271,
      "d": 125,
      "v": 77
    },
    {
      "midi": 76,
      "hit": false,
      "t": 244130.2083333271,
      "d": 125,
      "v": 77
    },
    {
      "midi": 68,
      "hit": false,
      "t": 244257.81249999374,
      "d": 119.79166666665697,
      "v": 102
    },
    {
      "midi": 73,
      "hit": false,
      "t": 244257.81249999374,
      "d": 122.39583333331393,
      "v": 102
    },
    {
      "midi": 76,
      "hit": false,
      "t": 244260.4166666604,
      "d": 119.79166666665697,
      "v": 102
    },
    {
      "midi": 68,
      "hit": false,
      "t": 244382.8124999937,
      "d": 122.39583333331393,
      "v": 77
    },
    {
      "midi": 73,
      "hit": false,
      "t": 244382.8124999937,
      "d": 122.39583333331393,
      "v": 77
    },
    {
      "midi": 76,
      "hit": false,
      "t": 244385.41666666037,
      "d": 122.39583333331393,
      "v": 77
    },
    {
      "midi": 68,
      "hit": false,
      "t": 244510.41666666034,
      "d": 117.1875,
      "v": 102
    },
    {
      "midi": 73,
      "hit": false,
      "t": 244510.41666666034,
      "d": 119.79166666665697,
      "v": 102
    },
    {
      "midi": 76,
      "hit": false,
      "t": 244510.41666666034,
      "d": 119.79166666665697,
      "v": 102
    },
    {
      "midi": 68,
      "hit": false,
      "t": 244632.81249999366,
      "d": 119.79166666665697,
      "v": 87
    },
    {
      "midi": 73,
      "hit": false,
      "t": 244632.81249999366,
      "d": 122.39583333331393,
      "v": 87
    },
    {
      "midi": 76,
      "hit": false,
      "t": 244635.4166666603,
      "d": 119.79166666665697,
      "v": 87
    },
    {
      "midi": 68,
      "hit": false,
      "t": 244757.81249999363,
      "d": 119.79166666665697,
      "v": 82
    },
    {
      "midi": 73,
      "hit": false,
      "t": 244757.81249999363,
      "d": 122.39583333331393,
      "v": 82
    },
    {
      "midi": 76,
      "hit": false,
      "t": 244760.41666666028,
      "d": 119.79166666665697,
      "v": 82
    },
    {
      "midi": 68,
      "hit": false,
      "t": 244882.8124999936,
      "d": 122.39583333334303,
      "v": 77
    },
    {
      "midi": 73,
      "hit": false,
      "t": 244882.8124999936,
      "d": 125,
      "v": 77
    },
    {
      "midi": 76,
      "hit": false,
      "t": 244882.8124999936,
      "d": 127.60416666665697,
      "v": 77
    },
    {
      "midi": 68,
      "hit": false,
      "t": 245252.60416666025,
      "d": 127.60416666665697,
      "v": 102
    },
    {
      "midi": 73,
      "hit": false,
      "t": 245255.2083333269,
      "d": 125,
      "v": 102
    },
    {
      "midi": 76,
      "hit": false,
      "t": 245257.81249999357,
      "d": 122.39583333334303,
      "v": 102
    },
    {
      "midi": 68,
      "hit": false,
      "t": 245382.81249999357,
      "d": 122.39583333334303,
      "v": 92
    },
    {
      "midi": 73,
      "hit": false,
      "t": 245382.81249999357,
      "d": 125,
      "v": 92
    },
    {
      "midi": 76,
      "hit": false,
      "t": 245382.81249999357,
      "d": 127.60416666665697,
      "v": 92
    },
    {
      "midi": 68,
      "hit": false,
      "t": 245755.20833332688,
      "d": 122.39583333331393,
      "v": 92
    },
    {
      "midi": 73,
      "hit": false,
      "t": 245755.20833332688,
      "d": 124.9999999999709,
      "v": 92
    },
    {
      "midi": 76,
      "hit": false,
      "t": 245757.81249999354,
      "d": 122.39583333331393,
      "v": 92
    },
    {
      "midi": 68,
      "hit": false,
      "t": 245882.8124999935,
      "d": 125,
      "v": 92
    },
    {
      "midi": 73,
      "hit": false,
      "t": 245882.8124999935,
      "d": 125,
      "v": 92
    },
    {
      "midi": 76,
      "hit": false,
      "t": 245882.8124999935,
      "d": 125,
      "v": 92
    },
    {
      "midi": 70,
      "hit": false,
      "t": 246130.20833332685,
      "d": 122.39583333334303,
      "v": 77
    },
    {
      "midi": 73,
      "hit": false,
      "t": 246130.20833332685,
      "d": 125,
      "v": 77
    },
    {
      "midi": 78,
      "hit": false,
      "t": 246130.20833332685,
      "d": 125,
      "v": 77
    },
    {
      "midi": 70,
      "hit": false,
      "t": 246257.8124999935,
      "d": 119.79166666665697,
      "v": 102
    },
    {
      "midi": 73,
      "hit": false,
      "t": 246257.8124999935,
      "d": 122.39583333331393,
      "v": 102
    },
    {
      "midi": 78,
      "hit": false,
      "t": 246260.41666666017,
      "d": 119.79166666665697,
      "v": 102
    },
    {
      "midi": 70,
      "hit": false,
      "t": 246382.81249999348,
      "d": 122.39583333334303,
      "v": 77
    },
    {
      "midi": 73,
      "hit": false,
      "t": 246382.81249999348,
      "d": 125,
      "v": 77
    },
    {
      "midi": 78,
      "hit": false,
      "t": 246382.81249999348,
      "d": 125,
      "v": 77
    },
    {
      "midi": 70,
      "hit": false,
      "t": 246510.41666666014,
      "d": 117.1875,
      "v": 102
    },
    {
      "midi": 73,
      "hit": false,
      "t": 246510.41666666014,
      "d": 119.79166666665697,
      "v": 102
    },
    {
      "midi": 78,
      "hit": false,
      "t": 246513.0208333268,
      "d": 117.1875,
      "v": 102
    },
    {
      "midi": 70,
      "hit": false,
      "t": 246632.81249999345,
      "d": 122.39583333331393,
      "v": 87
    },
    {
      "midi": 73,
      "hit": false,
      "t": 246632.81249999345,
      "d": 122.39583333331393,
      "v": 87
    },
    {
      "midi": 78,
      "hit": false,
      "t": 246635.4166666601,
      "d": 119.79166666665697,
      "v": 87
    },
    {
      "midi": 70,
      "hit": false,
      "t": 246757.81249999342,
      "d": 119.79166666665697,
      "v": 82
    },
    {
      "midi": 73,
      "hit": false,
      "t": 246757.81249999342,
      "d": 122.39583333331393,
      "v": 82
    },
    {
      "midi": 78,
      "hit": false,
      "t": 246760.41666666008,
      "d": 119.79166666665697,
      "v": 82
    },
    {
      "midi": 70,
      "hit": false,
      "t": 246880.20833332674,
      "d": 125,
      "v": 77
    },
    {
      "midi": 73,
      "hit": false,
      "t": 246882.8124999934,
      "d": 125,
      "v": 77
    },
    {
      "midi": 78,
      "hit": false,
      "t": 246882.8124999934,
      "d": 127.60416666665697,
      "v": 77
    },
    {
      "midi": 70,
      "hit": false,
      "t": 247252.60416666005,
      "d": 125,
      "v": 102
    },
    {
      "midi": 73,
      "hit": false,
      "t": 247255.2083333267,
      "d": 125,
      "v": 102
    },
    {
      "midi": 78,
      "hit": false,
      "t": 247255.2083333267,
      "d": 125,
      "v": 102
    },
    {
      "midi": 70,
      "hit": false,
      "t": 247382.81249999336,
      "d": 122.39583333334303,
      "v": 92
    },
    {
      "midi": 73,
      "hit": false,
      "t": 247382.81249999336,
      "d": 125,
      "v": 92
    },
    {
      "midi": 78,
      "hit": false,
      "t": 247382.81249999336,
      "d": 127.60416666665697,
      "v": 92
    },
    {
      "midi": 70,
      "hit": false,
      "t": 248130.20833332668,
      "d": 122.39583333334303,
      "v": 77
    },
    {
      "midi": 75,
      "hit": false,
      "t": 248130.20833332668,
      "d": 125,
      "v": 77
    },
    {
      "midi": 78,
      "hit": false,
      "t": 248130.20833332668,
      "d": 125,
      "v": 77
    },
    {
      "midi": 70,
      "hit": false,
      "t": 248257.81249999334,
      "d": 119.79166666665697,
      "v": 102
    },
    {
      "midi": 75,
      "hit": false,
      "t": 248257.81249999334,
      "d": 122.39583333331393,
      "v": 102
    },
    {
      "midi": 78,
      "hit": false,
      "t": 248260.41666666,
      "d": 119.79166666665697,
      "v": 102
    },
    {
      "midi": 70,
      "hit": false,
      "t": 248382.8124999933,
      "d": 122.39583333334303,
      "v": 77
    },
    {
      "midi": 75,
      "hit": false,
      "t": 248382.8124999933,
      "d": 122.39583333334303,
      "v": 77
    },
    {
      "midi": 78,
      "hit": false,
      "t": 248382.8124999933,
      "d": 125,
      "v": 77
    },
    {
      "midi": 70,
      "hit": false,
      "t": 248510.41666665996,
      "d": 117.1875,
      "v": 102
    },
    {
      "midi": 75,
      "hit": false,
      "t": 248510.41666665996,
      "d": 119.79166666665697,
      "v": 102
    },
    {
      "midi": 78,
      "hit": false,
      "t": 248510.41666665996,
      "d": 119.79166666665697,
      "v": 102
    },
    {
      "midi": 70,
      "hit": false,
      "t": 248632.81249999328,
      "d": 119.79166666665697,
      "v": 87
    },
    {
      "midi": 75,
      "hit": false,
      "t": 248632.81249999328,
      "d": 122.39583333331393,
      "v": 87
    },
    {
      "midi": 78,
      "hit": false,
      "t": 248635.41666665993,
      "d": 119.79166666665697,
      "v": 87
    },
    {
      "midi": 70,
      "hit": false,
      "t": 248757.81249999325,
      "d": 119.79166666665697,
      "v": 82
    },
    {
      "midi": 75,
      "hit": false,
      "t": 248757.81249999325,
      "d": 122.39583333331393,
      "v": 82
    },
    {
      "midi": 78,
      "hit": false,
      "t": 248757.81249999325,
      "d": 122.39583333331393,
      "v": 82
    },
    {
      "midi": 70,
      "hit": false,
      "t": 248880.20833332656,
      "d": 125,
      "v": 77
    },
    {
      "midi": 75,
      "hit": false,
      "t": 248882.81249999322,
      "d": 122.39583333334303,
      "v": 77
    },
    {
      "midi": 78,
      "hit": false,
      "t": 248882.81249999322,
      "d": 125,
      "v": 77
    },
    {
      "midi": 70,
      "hit": false,
      "t": 249252.60416665988,
      "d": 125,
      "v": 102
    },
    {
      "midi": 75,
      "hit": false,
      "t": 249255.20833332653,
      "d": 125,
      "v": 102
    },
    {
      "midi": 78,
      "hit": false,
      "t": 249255.20833332653,
      "d": 125,
      "v": 102
    },
    {
      "midi": 70,
      "hit": false,
      "t": 249382.8124999932,
      "d": 122.39583333334303,
      "v": 92
    },
    {
      "midi": 75,
      "hit": false,
      "t": 249382.8124999932,
      "d": 125,
      "v": 92
    },
    {
      "midi": 78,
      "hit": false,
      "t": 249382.8124999932,
      "d": 127.60416666665697,
      "v": 92
    },
    {
      "midi": 71,
      "hit": false,
      "t": 250127.60416665985,
      "d": 125,
      "v": 77
    },
    {
      "midi": 76,
      "hit": false,
      "t": 250130.2083333265,
      "d": 125,
      "v": 77
    },
    {
      "midi": 80,
      "hit": false,
      "t": 250130.2083333265,
      "d": 125,
      "v": 77
    },
    {
      "midi": 71,
      "hit": false,
      "t": 250257.81249999316,
      "d": 119.79166666665697,
      "v": 102
    },
    {
      "midi": 76,
      "hit": false,
      "t": 250257.81249999316,
      "d": 122.39583333331393,
      "v": 102
    },
    {
      "midi": 80,
      "hit": false,
      "t": 250260.41666665982,
      "d": 119.79166666665697,
      "v": 102
    },
    {
      "midi": 71,
      "hit": false,
      "t": 250382.81249999313,
      "d": 122.39583333334303,
      "v": 77
    },
    {
      "midi": 76,
      "hit": false,
      "t": 250382.81249999313,
      "d": 122.39583333334303,
      "v": 77
    },
    {
      "midi": 80,
      "hit": false,
      "t": 250382.81249999313,
      "d": 125,
      "v": 77
    },
    {
      "midi": 71,
      "hit": false,
      "t": 250510.4166666598,
      "d": 117.1875,
      "v": 102
    },
    {
      "midi": 76,
      "hit": false,
      "t": 250510.4166666598,
      "d": 119.79166666665697,
      "v": 102
    },
    {
      "midi": 80,
      "hit": false,
      "t": 250510.4166666598,
      "d": 119.79166666665697,
      "v": 102
    },
    {
      "midi": 71,
      "hit": false,
      "t": 250632.8124999931,
      "d": 122.39583333331393,
      "v": 87
    },
    {
      "midi": 76,
      "hit": false,
      "t": 250632.8124999931,
      "d": 122.39583333331393,
      "v": 87
    },
    {
      "midi": 80,
      "hit": false,
      "t": 250635.41666665976,
      "d": 122.39583333331393,
      "v": 87
    },
    {
      "midi": 71,
      "hit": false,
      "t": 250757.81249999307,
      "d": 122.39583333331393,
      "v": 82
    },
    {
      "midi": 76,
      "hit": false,
      "t": 250757.81249999307,
      "d": 122.39583333331393,
      "v": 82
    },
    {
      "midi": 80,
      "hit": false,
      "t": 250760.41666665973,
      "d": 119.79166666665697,
      "v": 82
    },
    {
      "midi": 71,
      "hit": false,
      "t": 250882.81249999304,
      "d": 122.39583333334303,
      "v": 77
    },
    {
      "midi": 76,
      "hit": false,
      "t": 250882.81249999304,
      "d": 122.39583333334303,
      "v": 77
    },
    {
      "midi": 80,
      "hit": false,
      "t": 250882.81249999304,
      "d": 125,
      "v": 77
    },
    {
      "midi": 71,
      "hit": false,
      "t": 251255.2083333264,
      "d": 122.39583333331393,
      "v": 102
    },
    {
      "midi": 76,
      "hit": false,
      "t": 251255.2083333264,
      "d": 124.9999999999709,
      "v": 102
    },
    {
      "midi": 80,
      "hit": false,
      "t": 251257.81249999304,
      "d": 122.39583333331393,
      "v": 102
    },
    {
      "midi": 71,
      "hit": false,
      "t": 251382.81249999302,
      "d": 122.39583333334303,
      "v": 92
    },
    {
      "midi": 76,
      "hit": false,
      "t": 251382.81249999302,
      "d": 125,
      "v": 92
    },
    {
      "midi": 80,
      "hit": false,
      "t": 251382.81249999302,
      "d": 125,
      "v": 92
    },
    {
      "midi": 68,
      "hit": false,
      "t": 252127.60416665967,
      "d": 125,
      "v": 77
    },
    {
      "midi": 73,
      "hit": false,
      "t": 252130.20833332633,
      "d": 125,
      "v": 77
    },
    {
      "midi": 76,
      "hit": false,
      "t": 252130.20833332633,
      "d": 125,
      "v": 77
    },
    {
      "midi": 68,
      "hit": false,
      "t": 252257.812499993,
      "d": 119.79166666665697,
      "v": 102
    },
    {
      "midi": 73,
      "hit": false,
      "t": 252257.812499993,
      "d": 122.39583333331393,
      "v": 102
    },
    {
      "midi": 76,
      "hit": false,
      "t": 252260.41666665964,
      "d": 119.79166666665697,
      "v": 102
    },
    {
      "midi": 68,
      "hit": false,
      "t": 252380.2083333263,
      "d": 125,
      "v": 77
    },
    {
      "midi": 73,
      "hit": false,
      "t": 252382.81249999296,
      "d": 122.39583333334303,
      "v": 77
    },
    {
      "midi": 76,
      "hit": false,
      "t": 252382.81249999296,
      "d": 125,
      "v": 77
    },
    {
      "midi": 68,
      "hit": false,
      "t": 252510.4166666596,
      "d": 117.1875,
      "v": 102
    },
    {
      "midi": 73,
      "hit": false,
      "t": 252510.4166666596,
      "d": 119.79166666665697,
      "v": 102
    },
    {
      "midi": 76,
      "hit": false,
      "t": 252510.4166666596,
      "d": 119.79166666665697,
      "v": 102
    },
    {
      "midi": 68,
      "hit": false,
      "t": 252632.81249999293,
      "d": 122.39583333331393,
      "v": 87
    },
    {
      "midi": 73,
      "hit": false,
      "t": 252632.81249999293,
      "d": 122.39583333331393,
      "v": 87
    },
    {
      "midi": 76,
      "hit": false,
      "t": 252635.41666665958,
      "d": 122.39583333331393,
      "v": 87
    },
    {
      "midi": 68,
      "hit": false,
      "t": 252757.8124999929,
      "d": 119.79166666665697,
      "v": 82
    },
    {
      "midi": 73,
      "hit": false,
      "t": 252757.8124999929,
      "d": 122.39583333331393,
      "v": 82
    },
    {
      "midi": 76,
      "hit": false,
      "t": 252760.41666665956,
      "d": 119.79166666665697,
      "v": 82
    },
    {
      "midi": 68,
      "hit": false,
      "t": 252882.81249999287,
      "d": 122.39583333334303,
      "v": 77
    },
    {
      "midi": 73,
      "hit": false,
      "t": 252882.81249999287,
      "d": 125,
      "v": 77
    },
    {
      "midi": 76,
      "hit": false,
      "t": 252882.81249999287,
      "d": 125,
      "v": 77
    },
    {
      "midi": 68,
      "hit": false,
      "t": 253252.60416665953,
      "d": 125,
      "v": 102
    },
    {
      "midi": 73,
      "hit": false,
      "t": 253255.20833332618,
      "d": 125,
      "v": 102
    },
    {
      "midi": 76,
      "hit": false,
      "t": 253255.20833332618,
      "d": 125,
      "v": 102
    },
    {
      "midi": 68,
      "hit": false,
      "t": 253382.81249999284,
      "d": 122.39583333334303,
      "v": 92
    },
    {
      "midi": 73,
      "hit": false,
      "t": 253382.81249999284,
      "d": 125,
      "v": 92
    },
    {
      "midi": 76,
      "hit": false,
      "t": 253382.81249999284,
      "d": 125,
      "v": 92
    },
    {
      "midi": 68,
      "hit": false,
      "t": 253752.6041666595,
      "d": 124.9999999999709,
      "v": 92
    },
    {
      "midi": 73,
      "hit": false,
      "t": 253755.20833332615,
      "d": 124.9999999999709,
      "v": 92
    },
    {
      "midi": 76,
      "hit": false,
      "t": 253757.8124999928,
      "d": 122.39583333331393,
      "v": 92
    },
    {
      "midi": 68,
      "hit": false,
      "t": 253882.81249999278,
      "d": 122.39583333334303,
      "v": 92
    },
    {
      "midi": 73,
      "hit": false,
      "t": 253882.81249999278,
      "d": 125,
      "v": 92
    },
    {
      "midi": 76,
      "hit": false,
      "t": 253882.81249999278,
      "d": 127.60416666665697,
      "v": 92
    },
    {
      "midi": 70,
      "hit": false,
      "t": 254127.60416665944,
      "d": 125,
      "v": 77
    },
    {
      "midi": 73,
      "hit": false,
      "t": 254130.2083333261,
      "d": 125,
      "v": 77
    },
    {
      "midi": 78,
      "hit": false,
      "t": 254130.2083333261,
      "d": 125,
      "v": 77
    },
    {
      "midi": 70,
      "hit": false,
      "t": 254257.81249999275,
      "d": 119.79166666665697,
      "v": 102
    },
    {
      "midi": 73,
      "hit": false,
      "t": 254257.81249999275,
      "d": 122.39583333331393,
      "v": 102
    },
    {
      "midi": 78,
      "hit": false,
      "t": 254257.81249999275,
      "d": 122.39583333331393,
      "v": 102
    },
    {
      "midi": 70,
      "hit": false,
      "t": 254382.81249999272,
      "d": 122.39583333334303,
      "v": 77
    },
    {
      "midi": 73,
      "hit": false,
      "t": 254382.81249999272,
      "d": 125,
      "v": 77
    },
    {
      "midi": 78,
      "hit": false,
      "t": 254382.81249999272,
      "d": 125,
      "v": 77
    },
    {
      "midi": 70,
      "hit": false,
      "t": 254510.41666665938,
      "d": 117.1875,
      "v": 102
    },
    {
      "midi": 73,
      "hit": false,
      "t": 254510.41666665938,
      "d": 119.79166666665697,
      "v": 102
    },
    {
      "midi": 78,
      "hit": false,
      "t": 254513.02083332604,
      "d": 117.1875,
      "v": 102
    },
    {
      "midi": 70,
      "hit": false,
      "t": 254632.8124999927,
      "d": 122.39583333331393,
      "v": 87
    },
    {
      "midi": 73,
      "hit": false,
      "t": 254632.8124999927,
      "d": 122.39583333331393,
      "v": 87
    },
    {
      "midi": 78,
      "hit": false,
      "t": 254635.41666665935,
      "d": 119.79166666665697,
      "v": 87
    },
    {
      "midi": 70,
      "hit": false,
      "t": 254757.81249999267,
      "d": 119.79166666665697,
      "v": 82
    },
    {
      "midi": 73,
      "hit": false,
      "t": 254757.81249999267,
      "d": 122.39583333331393,
      "v": 82
    },
    {
      "midi": 78,
      "hit": false,
      "t": 254760.41666665932,
      "d": 119.79166666665697,
      "v": 82
    },
    {
      "midi": 70,
      "hit": false,
      "t": 254882.81249999264,
      "d": 122.39583333334303,
      "v": 77
    },
    {
      "midi": 73,
      "hit": false,
      "t": 254882.81249999264,
      "d": 125,
      "v": 77
    },
    {
      "midi": 78,
      "hit": false,
      "t": 254882.81249999264,
      "d": 127.60416666665697,
      "v": 77
    },
    {
      "midi": 70,
      "hit": false,
      "t": 255252.6041666593,
      "d": 124.9999999999709,
      "v": 102
    },
    {
      "midi": 73,
      "hit": false,
      "t": 255255.20833332595,
      "d": 124.9999999999709,
      "v": 102
    },
    {
      "midi": 78,
      "hit": false,
      "t": 255257.8124999926,
      "d": 122.39583333331393,
      "v": 102
    },
    {
      "midi": 70,
      "hit": false,
      "t": 255382.81249999258,
      "d": 122.39583333331393,
      "v": 92
    },
    {
      "midi": 73,
      "hit": false,
      "t": 255382.81249999258,
      "d": 124.9999999999709,
      "v": 92
    },
    {
      "midi": 78,
      "hit": false,
      "t": 255385.41666665924,
      "d": 122.39583333331393,
      "v": 92
    },
    {
      "midi": 70,
      "hit": false,
      "t": 256127.6041666592,
      "d": 125,
      "v": 77
    },
    {
      "midi": 75,
      "hit": false,
      "t": 256130.20833332586,
      "d": 125,
      "v": 77
    },
    {
      "midi": 79,
      "hit": false,
      "t": 256130.20833332586,
      "d": 125,
      "v": 77
    },
    {
      "midi": 70,
      "hit": false,
      "t": 256257.81249999252,
      "d": 122.39583333334303,
      "v": 102
    },
    {
      "midi": 75,
      "hit": false,
      "t": 256257.81249999252,
      "d": 122.39583333334303,
      "v": 102
    },
    {
      "midi": 79,
      "hit": false,
      "t": 256257.81249999252,
      "d": 122.39583333334303,
      "v": 102
    },
    {
      "midi": 70,
      "hit": false,
      "t": 256382.81249999252,
      "d": 122.39583333334303,
      "v": 77
    },
    {
      "midi": 75,
      "hit": false,
      "t": 256382.81249999252,
      "d": 125,
      "v": 77
    },
    {
      "midi": 79,
      "hit": false,
      "t": 256382.81249999252,
      "d": 125,
      "v": 77
    },
    {
      "midi": 70,
      "hit": false,
      "t": 256510.41666665918,
      "d": 119.79166666665697,
      "v": 102
    },
    {
      "midi": 75,
      "hit": false,
      "t": 256510.41666665918,
      "d": 119.79166666665697,
      "v": 102
    },
    {
      "midi": 79,
      "hit": false,
      "t": 256510.41666665918,
      "d": 119.79166666665697,
      "v": 102
    },
    {
      "midi": 70,
      "hit": false,
      "t": 256632.8124999925,
      "d": 122.39583333334303,
      "v": 87
    },
    {
      "midi": 75,
      "hit": false,
      "t": 256632.8124999925,
      "d": 122.39583333334303,
      "v": 87
    },
    {
      "midi": 79,
      "hit": false,
      "t": 256632.8124999925,
      "d": 122.39583333334303,
      "v": 87
    },
    {
      "midi": 70,
      "hit": false,
      "t": 256757.8124999925,
      "d": 119.79166666665697,
      "v": 82
    },
    {
      "midi": 75,
      "hit": false,
      "t": 256757.8124999925,
      "d": 122.39583333331393,
      "v": 82
    },
    {
      "midi": 79,
      "hit": false,
      "t": 256760.41666665915,
      "d": 119.79166666665697,
      "v": 82
    },
    {
      "midi": 70,
      "hit": false,
      "t": 256882.81249999246,
      "d": 122.39583333334303,
      "v": 77
    },
    {
      "midi": 75,
      "hit": false,
      "t": 256882.81249999246,
      "d": 125,
      "v": 77
    },
    {
      "midi": 79,
      "hit": false,
      "t": 256882.81249999246,
      "d": 125,
      "v": 77
    },
    {
      "midi": 70,
      "hit": false,
      "t": 257252.60416665912,
      "d": 124.9999999999709,
      "v": 102
    },
    {
      "midi": 75,
      "hit": false,
      "t": 257255.20833332578,
      "d": 124.9999999999709,
      "v": 102
    },
    {
      "midi": 79,
      "hit": false,
      "t": 257257.81249999243,
      "d": 122.39583333331393,
      "v": 102
    },
    {
      "midi": 70,
      "hit": false,
      "t": 257382.8124999924,
      "d": 122.39583333331393,
      "v": 92
    },
    {
      "midi": 75,
      "hit": false,
      "t": 257382.8124999924,
      "d": 122.39583333331393,
      "v": 92
    },
    {
      "midi": 79,
      "hit": false,
      "t": 257385.41666665906,
      "d": 122.39583333331393,
      "v": 92
    },
    {
      "midi": 71,
      "hit": false,
      "t": 258127.60416665903,
      "d": 125,
      "v": 77
    },
    {
      "midi": 76,
      "hit": false,
      "t": 258130.2083333257,
      "d": 125,
      "v": 77
    },
    {
      "midi": 80,
      "hit": false,
      "t": 258130.2083333257,
      "d": 125,
      "v": 77
    },
    {
      "midi": 71,
      "hit": false,
      "t": 258257.81249999235,
      "d": 119.79166666665697,
      "v": 102
    },
    {
      "midi": 76,
      "hit": false,
      "t": 258257.81249999235,
      "d": 122.39583333331393,
      "v": 102
    },
    {
      "midi": 80,
      "hit": false,
      "t": 258257.81249999235,
      "d": 122.39583333331393,
      "v": 102
    },
    {
      "midi": 71,
      "hit": false,
      "t": 258380.20833332566,
      "d": 125,
      "v": 77
    },
    {
      "midi": 76,
      "hit": false,
      "t": 258382.81249999232,
      "d": 125,
      "v": 77
    },
    {
      "midi": 80,
      "hit": false,
      "t": 258382.81249999232,
      "d": 125,
      "v": 77
    },
    {
      "midi": 71,
      "hit": false,
      "t": 258510.41666665897,
      "d": 119.79166666665697,
      "v": 102
    },
    {
      "midi": 76,
      "hit": false,
      "t": 258510.41666665897,
      "d": 119.79166666665697,
      "v": 102
    },
    {
      "midi": 80,
      "hit": false,
      "t": 258510.41666665897,
      "d": 119.79166666665697,
      "v": 102
    },
    {
      "midi": 71,
      "hit": false,
      "t": 258632.8124999923,
      "d": 119.79166666665697,
      "v": 87
    },
    {
      "midi": 76,
      "hit": false,
      "t": 258632.8124999923,
      "d": 122.39583333331393,
      "v": 87
    },
    {
      "midi": 80,
      "hit": false,
      "t": 258632.8124999923,
      "d": 122.39583333331393,
      "v": 87
    },
    {
      "midi": 71,
      "hit": false,
      "t": 258757.81249999226,
      "d": 119.79166666665697,
      "v": 82
    },
    {
      "midi": 76,
      "hit": false,
      "t": 258757.81249999226,
      "d": 122.39583333331393,
      "v": 82
    },
    {
      "midi": 80,
      "hit": false,
      "t": 258760.41666665892,
      "d": 119.79166666665697,
      "v": 82
    },
    {
      "midi": 71,
      "hit": false,
      "t": 258882.81249999223,
      "d": 122.39583333334303,
      "v": 77
    },
    {
      "midi": 76,
      "hit": false,
      "t": 258882.81249999223,
      "d": 125,
      "v": 77
    },
    {
      "midi": 80,
      "hit": false,
      "t": 258882.81249999223,
      "d": 125,
      "v": 77
    },
    {
      "midi": 71,
      "hit": false,
      "t": 259252.6041666589,
      "d": 124.9999999999709,
      "v": 102
    },
    {
      "midi": 76,
      "hit": false,
      "t": 259255.20833332554,
      "d": 124.9999999999709,
      "v": 102
    },
    {
      "midi": 80,
      "hit": false,
      "t": 259257.8124999922,
      "d": 122.39583333331393,
      "v": 102
    },
    {
      "midi": 71,
      "hit": false,
      "t": 259382.81249999217,
      "d": 122.39583333334303,
      "v": 92
    },
    {
      "midi": 76,
      "hit": false,
      "t": 259382.81249999217,
      "d": 122.39583333334303,
      "v": 92
    },
    {
      "midi": 80,
      "hit": false,
      "t": 259382.81249999217,
      "d": 125,
      "v": 92
    },
    {
      "midi": 68,
      "hit": false,
      "t": 260127.60416665883,
      "d": 125,
      "v": 77
    },
    {
      "midi": 73,
      "hit": false,
      "t": 260130.20833332549,
      "d": 125,
      "v": 77
    },
    {
      "midi": 76,
      "hit": false,
      "t": 260130.20833332549,
      "d": 125,
      "v": 77
    },
    {
      "midi": 68,
      "hit": false,
      "t": 260257.81249999214,
      "d": 119.79166666665697,
      "v": 102
    },
    {
      "midi": 73,
      "hit": false,
      "t": 260257.81249999214,
      "d": 122.39583333331393,
      "v": 102
    },
    {
      "midi": 76,
      "hit": false,
      "t": 260257.81249999214,
      "d": 122.39583333331393,
      "v": 102
    },
    {
      "midi": 68,
      "hit": false,
      "t": 260382.8124999921,
      "d": 122.39583333334303,
      "v": 77
    },
    {
      "midi": 73,
      "hit": false,
      "t": 260382.8124999921,
      "d": 125,
      "v": 77
    },
    {
      "midi": 76,
      "hit": false,
      "t": 260382.8124999921,
      "d": 125,
      "v": 77
    },
    {
      "midi": 68,
      "hit": false,
      "t": 260510.41666665877,
      "d": 119.79166666665697,
      "v": 102
    },
    {
      "midi": 73,
      "hit": false,
      "t": 260510.41666665877,
      "d": 119.79166666665697,
      "v": 102
    },
    {
      "midi": 76,
      "hit": false,
      "t": 260510.41666665877,
      "d": 119.79166666665697,
      "v": 102
    },
    {
      "midi": 68,
      "hit": false,
      "t": 260632.81249999208,
      "d": 119.79166666665697,
      "v": 87
    },
    {
      "midi": 73,
      "hit": false,
      "t": 260632.81249999208,
      "d": 122.39583333331393,
      "v": 87
    },
    {
      "midi": 76,
      "hit": false,
      "t": 260632.81249999208,
      "d": 122.39583333331393,
      "v": 87
    },
    {
      "midi": 68,
      "hit": false,
      "t": 260757.81249999205,
      "d": 119.79166666665697,
      "v": 82
    },
    {
      "midi": 73,
      "hit": false,
      "t": 260760.4166666587,
      "d": 119.79166666665697,
      "v": 82
    },
    {
      "midi": 76,
      "hit": false,
      "t": 260760.4166666587,
      "d": 119.79166666665697,
      "v": 82
    },
    {
      "midi": 68,
      "hit": false,
      "t": 260882.81249999203,
      "d": 122.39583333334303,
      "v": 77
    },
    {
      "midi": 73,
      "hit": false,
      "t": 260882.81249999203,
      "d": 125,
      "v": 77
    },
    {
      "midi": 76,
      "hit": false,
      "t": 260882.81249999203,
      "d": 125,
      "v": 77
    },
    {
      "midi": 68,
      "hit": false,
      "t": 261252.60416665868,
      "d": 124.9999999999709,
      "v": 102
    },
    {
      "midi": 73,
      "hit": false,
      "t": 261255.20833332534,
      "d": 124.9999999999709,
      "v": 102
    },
    {
      "midi": 76,
      "hit": false,
      "t": 261257.812499992,
      "d": 122.39583333331393,
      "v": 102
    },
    {
      "midi": 68,
      "hit": false,
      "t": 261382.81249999197,
      "d": 122.39583333334303,
      "v": 92
    },
    {
      "midi": 73,
      "hit": false,
      "t": 261382.81249999197,
      "d": 122.39583333334303,
      "v": 92
    },
    {
      "midi": 76,
      "hit": false,
      "t": 261382.81249999197,
      "d": 125,
      "v": 92
    },
    {
      "midi": 68,
      "hit": false,
      "t": 261752.60416665862,
      "d": 124.9999999999709,
      "v": 92
    },
    {
      "midi": 73,
      "hit": false,
      "t": 261755.20833332528,
      "d": 124.9999999999709,
      "v": 92
    },
    {
      "midi": 76,
      "hit": false,
      "t": 261757.81249999194,
      "d": 122.39583333331393,
      "v": 92
    },
    {
      "midi": 68,
      "hit": false,
      "t": 261880.20833332525,
      "d": 124.9999999999709,
      "v": 92
    },
    {
      "midi": 73,
      "hit": false,
      "t": 261882.8124999919,
      "d": 124.9999999999709,
      "v": 92
    },
    {
      "midi": 76,
      "hit": false,
      "t": 261882.8124999919,
      "d": 127.60416666662786,
      "v": 92
    },
    {
      "midi": 70,
      "hit": false,
      "t": 262127.60416665854,
      "d": 125,
      "v": 77
    },
    {
      "midi": 73,
      "hit": false,
      "t": 262130.2083333252,
      "d": 125.0000000000291,
      "v": 77
    },
    {
      "midi": 78,
      "hit": false,
      "t": 262130.2083333252,
      "d": 125.0000000000291,
      "v": 77
    },
    {
      "midi": 70,
      "hit": false,
      "t": 262257.8124999919,
      "d": 119.79166666668607,
      "v": 102
    },
    {
      "midi": 73,
      "hit": false,
      "t": 262257.8124999919,
      "d": 122.39583333337214,
      "v": 102
    },
    {
      "midi": 78,
      "hit": false,
      "t": 262260.4166666586,
      "d": 119.79166666668607,
      "v": 102
    },
    {
      "midi": 70,
      "hit": false,
      "t": 262382.81249999197,
      "d": 122.39583333331393,
      "v": 77
    },
    {
      "midi": 73,
      "hit": false,
      "t": 262382.81249999197,
      "d": 125,
      "v": 77
    },
    {
      "midi": 78,
      "hit": false,
      "t": 262385.41666665865,
      "d": 122.39583333331393,
      "v": 77
    },
    {
      "midi": 70,
      "hit": false,
      "t": 262510.41666665865,
      "d": 117.1875,
      "v": 102
    },
    {
      "midi": 73,
      "hit": false,
      "t": 262510.41666665865,
      "d": 119.79166666668607,
      "v": 102
    },
    {
      "midi": 78,
      "hit": false,
      "t": 262510.41666665865,
      "d": 119.79166666668607,
      "v": 102
    },
    {
      "midi": 70,
      "hit": false,
      "t": 262630.20833332534,
      "d": 122.39583333337214,
      "v": 87
    },
    {
      "midi": 73,
      "hit": false,
      "t": 262632.812499992,
      "d": 122.39583333337214,
      "v": 87
    },
    {
      "midi": 78,
      "hit": false,
      "t": 262632.812499992,
      "d": 122.39583333337214,
      "v": 87
    },
    {
      "midi": 70,
      "hit": false,
      "t": 262757.8124999921,
      "d": 119.79166666668607,
      "v": 82
    },
    {
      "midi": 73,
      "hit": false,
      "t": 262760.41666665877,
      "d": 119.79166666668607,
      "v": 82
    },
    {
      "midi": 78,
      "hit": false,
      "t": 262760.41666665877,
      "d": 119.79166666668607,
      "v": 82
    },
    {
      "midi": 70,
      "hit": false,
      "t": 262882.81249999214,
      "d": 122.39583333331393,
      "v": 77
    },
    {
      "midi": 73,
      "hit": false,
      "t": 262882.81249999214,
      "d": 125,
      "v": 77
    },
    {
      "midi": 78,
      "hit": false,
      "t": 262885.4166666588,
      "d": 122.39583333331393,
      "v": 77
    },
    {
      "midi": 70,
      "hit": false,
      "t": 263252.6041666588,
      "d": 125.00000000005821,
      "v": 102
    },
    {
      "midi": 73,
      "hit": false,
      "t": 263255.2083333255,
      "d": 125.00000000005821,
      "v": 102
    },
    {
      "midi": 78,
      "hit": false,
      "t": 263257.8124999922,
      "d": 122.39583333337214,
      "v": 102
    },
    {
      "midi": 70,
      "hit": false,
      "t": 263382.81249999226,
      "d": 122.39583333331393,
      "v": 92
    },
    {
      "midi": 73,
      "hit": false,
      "t": 263382.81249999226,
      "d": 122.39583333331393,
      "v": 92
    },
    {
      "midi": 78,
      "hit": false,
      "t": 263382.81249999226,
      "d": 125,
      "v": 92
    },
    {
      "midi": 70,
      "hit": false,
      "t": 264127.60416665894,
      "d": 127.60416666668607,
      "v": 77
    },
    {
      "midi": 75,
      "hit": false,
      "t": 264130.20833332563,
      "d": 125,
      "v": 77
    },
    {
      "midi": 78,
      "hit": false,
      "t": 264130.20833332563,
      "d": 125,
      "v": 77
    },
    {
      "midi": 70,
      "hit": false,
      "t": 264257.8124999923,
      "d": 119.79166666668607,
      "v": 102
    },
    {
      "midi": 75,
      "hit": false,
      "t": 264257.8124999923,
      "d": 122.39583333337214,
      "v": 102
    },
    {
      "midi": 78,
      "hit": false,
      "t": 264260.416666659,
      "d": 119.79166666668607,
      "v": 102
    },
    {
      "midi": 70,
      "hit": false,
      "t": 264382.8124999924,
      "d": 122.39583333337214,
      "v": 77
    },
    {
      "midi": 75,
      "hit": false,
      "t": 264382.8124999924,
      "d": 125.00000000005821,
      "v": 77
    },
    {
      "midi": 78,
      "hit": false,
      "t": 264382.8124999924,
      "d": 125.00000000005821,
      "v": 77
    },
    {
      "midi": 70,
      "hit": false,
      "t": 264510.4166666591,
      "d": 119.79166666668607,
      "v": 102
    },
    {
      "midi": 75,
      "hit": false,
      "t": 264510.4166666591,
      "d": 119.79166666668607,
      "v": 102
    },
    {
      "midi": 78,
      "hit": false,
      "t": 264510.4166666591,
      "d": 119.79166666668607,
      "v": 102
    },
    {
      "midi": 70,
      "hit": false,
      "t": 264632.8124999925,
      "d": 119.79166666668607,
      "v": 87
    },
    {
      "midi": 75,
      "hit": false,
      "t": 264632.8124999925,
      "d": 122.39583333337214,
      "v": 87
    },
    {
      "midi": 78,
      "hit": false,
      "t": 264632.8124999925,
      "d": 122.39583333337214,
      "v": 87
    },
    {
      "midi": 70,
      "hit": false,
      "t": 264757.81249999255,
      "d": 119.79166666668607,
      "v": 82
    },
    {
      "midi": 75,
      "hit": false,
      "t": 264757.81249999255,
      "d": 122.39583333337214,
      "v": 82
    },
    {
      "midi": 78,
      "hit": false,
      "t": 264760.41666665924,
      "d": 119.79166666668607,
      "v": 82
    },
    {
      "midi": 70,
      "hit": false,
      "t": 264882.8124999926,
      "d": 122.39583333331393,
      "v": 77
    },
    {
      "midi": 75,
      "hit": false,
      "t": 264882.8124999926,
      "d": 125,
      "v": 77
    },
    {
      "midi": 78,
      "hit": false,
      "t": 264882.8124999926,
      "d": 125,
      "v": 77
    },
    {
      "midi": 70,
      "hit": false,
      "t": 265252.6041666593,
      "d": 125.00000000005821,
      "v": 102
    },
    {
      "midi": 75,
      "hit": false,
      "t": 265255.208333326,
      "d": 125.00000000005821,
      "v": 102
    },
    {
      "midi": 78,
      "hit": false,
      "t": 265257.81249999267,
      "d": 122.39583333337214,
      "v": 102
    },
    {
      "midi": 70,
      "hit": false,
      "t": 265380.20833332604,
      "d": 125,
      "v": 92
    },
    {
      "midi": 75,
      "hit": false,
      "t": 265382.8124999927,
      "d": 125,
      "v": 92
    },
    {
      "midi": 78,
      "hit": false,
      "t": 265382.8124999927,
      "d": 125,
      "v": 92
    },
    {
      "midi": 71,
      "hit": false,
      "t": 266127.6041666594,
      "d": 127.60416666668607,
      "v": 77
    },
    {
      "midi": 76,
      "hit": false,
      "t": 266130.2083333261,
      "d": 125,
      "v": 77
    },
    {
      "midi": 80,
      "hit": false,
      "t": 266130.2083333261,
      "d": 125,
      "v": 77
    },
    {
      "midi": 71,
      "hit": false,
      "t": 266257.8124999928,
      "d": 119.79166666668607,
      "v": 102
    },
    {
      "midi": 76,
      "hit": false,
      "t": 266257.8124999928,
      "d": 122.39583333337214,
      "v": 102
    },
    {
      "midi": 80,
      "hit": false,
      "t": 266260.41666665947,
      "d": 119.79166666668607,
      "v": 102
    },
    {
      "midi": 71,
      "hit": false,
      "t": 266382.81249999284,
      "d": 122.39583333337214,
      "v": 77
    },
    {
      "midi": 76,
      "hit": false,
      "t": 266382.81249999284,
      "d": 125.00000000005821,
      "v": 77
    },
    {
      "midi": 80,
      "hit": false,
      "t": 266385.4166666595,
      "d": 122.39583333337214,
      "v": 77
    },
    {
      "midi": 71,
      "hit": false,
      "t": 266510.4166666596,
      "d": 119.79166666668607,
      "v": 102
    },
    {
      "midi": 76,
      "hit": false,
      "t": 266510.4166666596,
      "d": 119.79166666668607,
      "v": 102
    },
    {
      "midi": 80,
      "hit": false,
      "t": 266510.4166666596,
      "d": 119.79166666668607,
      "v": 102
    },
    {
      "midi": 71,
      "hit": false,
      "t": 266632.81249999296,
      "d": 119.79166666668607,
      "v": 87
    },
    {
      "midi": 76,
      "hit": false,
      "t": 266632.81249999296,
      "d": 122.39583333337214,
      "v": 87
    },
    {
      "midi": 80,
      "hit": false,
      "t": 266632.81249999296,
      "d": 122.39583333337214,
      "v": 87
    },
    {
      "midi": 71,
      "hit": false,
      "t": 266757.812499993,
      "d": 119.79166666668607,
      "v": 82
    },
    {
      "midi": 76,
      "hit": false,
      "t": 266757.812499993,
      "d": 122.39583333337214,
      "v": 82
    },
    {
      "midi": 80,
      "hit": false,
      "t": 266760.4166666597,
      "d": 119.79166666668607,
      "v": 82
    },
    {
      "midi": 71,
      "hit": false,
      "t": 266882.8124999931,
      "d": 122.39583333331393,
      "v": 77
    },
    {
      "midi": 76,
      "hit": false,
      "t": 266882.8124999931,
      "d": 122.39583333331393,
      "v": 77
    },
    {
      "midi": 80,
      "hit": false,
      "t": 266882.8124999931,
      "d": 125,
      "v": 77
    },
    {
      "midi": 71,
      "hit": false,
      "t": 267252.60416665976,
      "d": 125.00000000005821,
      "v": 102
    },
    {
      "midi": 76,
      "hit": false,
      "t": 267255.20833332645,
      "d": 125.00000000005821,
      "v": 102
    },
    {
      "midi": 80,
      "hit": false,
      "t": 267257.81249999313,
      "d": 122.39583333337214,
      "v": 102
    },
    {
      "midi": 71,
      "hit": false,
      "t": 267380.2083333265,
      "d": 125,
      "v": 92
    },
    {
      "midi": 76,
      "hit": false,
      "t": 267382.8124999932,
      "d": 125,
      "v": 92
    },
    {
      "midi": 80,
      "hit": false,
      "t": 267382.8124999932,
      "d": 125,
      "v": 92
    },
    {
      "midi": 68,
      "hit": false,
      "t": 268130.20833332656,
      "d": 122.39583333337214,
      "v": 77
    },
    {
      "midi": 73,
      "hit": false,
      "t": 268130.20833332656,
      "d": 125.00000000005821,
      "v": 77
    },
    {
      "midi": 76,
      "hit": false,
      "t": 268130.20833332656,
      "d": 125.00000000005821,
      "v": 77
    },
    {
      "midi": 68,
      "hit": false,
      "t": 268260.41666665993,
      "d": 117.1875,
      "v": 102
    },
    {
      "midi": 73,
      "hit": false,
      "t": 268260.41666665993,
      "d": 119.79166666668607,
      "v": 102
    },
    {
      "midi": 76,
      "hit": false,
      "t": 268260.41666665993,
      "d": 119.79166666668607,
      "v": 102
    },
    {
      "midi": 68,
      "hit": false,
      "t": 268382.8124999933,
      "d": 122.39583333337214,
      "v": 77
    },
    {
      "midi": 73,
      "hit": false,
      "t": 268382.8124999933,
      "d": 125.00000000005821,
      "v": 77
    },
    {
      "midi": 76,
      "hit": false,
      "t": 268385.41666666,
      "d": 122.39583333337214,
      "v": 77
    },
    {
      "midi": 68,
      "hit": false,
      "t": 268510.41666666005,
      "d": 117.1875,
      "v": 102
    },
    {
      "midi": 73,
      "hit": false,
      "t": 268510.41666666005,
      "d": 119.79166666668607,
      "v": 102
    },
    {
      "midi": 76,
      "hit": false,
      "t": 268510.41666666005,
      "d": 119.79166666668607,
      "v": 102
    },
    {
      "midi": 68,
      "hit": false,
      "t": 268632.8124999934,
      "d": 119.79166666668607,
      "v": 87
    },
    {
      "midi": 73,
      "hit": false,
      "t": 268632.8124999934,
      "d": 122.39583333337214,
      "v": 87
    },
    {
      "midi": 76,
      "hit": false,
      "t": 268632.8124999934,
      "d": 122.39583333337214,
      "v": 87
    },
    {
      "midi": 68,
      "hit": false,
      "t": 268757.8124999935,
      "d": 119.79166666668607,
      "v": 82
    },
    {
      "midi": 73,
      "hit": false,
      "t": 268757.8124999935,
      "d": 122.39583333337214,
      "v": 82
    },
    {
      "midi": 76,
      "hit": false,
      "t": 268760.41666666017,
      "d": 119.79166666668607,
      "v": 82
    },
    {
      "midi": 68,
      "hit": false,
      "t": 268882.81249999354,
      "d": 122.39583333331393,
      "v": 77
    },
    {
      "midi": 73,
      "hit": false,
      "t": 268882.81249999354,
      "d": 125,
      "v": 77
    },
    {
      "midi": 76,
      "hit": false,
      "t": 268882.81249999354,
      "d": 125,
      "v": 77
    },
    {
      "midi": 68,
      "hit": false,
      "t": 269252.6041666602,
      "d": 125.00000000005821,
      "v": 102
    },
    {
      "midi": 73,
      "hit": false,
      "t": 269255.2083333269,
      "d": 125.00000000005821,
      "v": 102
    },
    {
      "midi": 76,
      "hit": false,
      "t": 269257.8124999936,
      "d": 122.39583333337214,
      "v": 102
    },
    {
      "midi": 68,
      "hit": false,
      "t": 269382.81249999366,
      "d": 122.39583333331393,
      "v": 92
    },
    {
      "midi": 73,
      "hit": false,
      "t": 269382.81249999366,
      "d": 122.39583333331393,
      "v": 92
    },
    {
      "midi": 76,
      "hit": false,
      "t": 269382.81249999366,
      "d": 125,
      "v": 92
    },
    {
      "midi": 68,
      "hit": false,
      "t": 269755.20833332697,
      "d": 122.39583333331393,
      "v": 92
    },
    {
      "midi": 73,
      "hit": false,
      "t": 269755.20833332697,
      "d": 125,
      "v": 92
    },
    {
      "midi": 76,
      "hit": false,
      "t": 269755.20833332697,
      "d": 125,
      "v": 92
    },
    {
      "midi": 68,
      "hit": false,
      "t": 269882.81249999366,
      "d": 125,
      "v": 92
    },
    {
      "midi": 73,
      "hit": false,
      "t": 269882.81249999366,
      "d": 125,
      "v": 92
    },
    {
      "midi": 76,
      "hit": false,
      "t": 269882.81249999366,
      "d": 125,
      "v": 92
    },
    {
      "midi": 70,
      "hit": false,
      "t": 270130.20833332697,
      "d": 122.39583333337214,
      "v": 57
    },
    {
      "midi": 73,
      "hit": false,
      "t": 270130.20833332697,
      "d": 125.00000000005821,
      "v": 57
    },
    {
      "midi": 78,
      "hit": false,
      "t": 270130.20833332697,
      "d": 125.00000000005821,
      "v": 57
    },
    {
      "midi": 70,
      "hit": false,
      "t": 270257.8124999937,
      "d": 119.79166666668607,
      "v": 82
    },
    {
      "midi": 73,
      "hit": false,
      "t": 270257.8124999937,
      "d": 122.39583333337214,
      "v": 82
    },
    {
      "midi": 78,
      "hit": false,
      "t": 270260.4166666604,
      "d": 119.79166666668607,
      "v": 82
    },
    {
      "midi": 70,
      "hit": false,
      "t": 270382.8124999938,
      "d": 122.39583333337214,
      "v": 57
    },
    {
      "midi": 73,
      "hit": false,
      "t": 270382.8124999938,
      "d": 122.39583333337214,
      "v": 57
    },
    {
      "midi": 78,
      "hit": false,
      "t": 270385.41666666046,
      "d": 122.39583333337214,
      "v": 57
    },
    {
      "midi": 70,
      "hit": false,
      "t": 270510.4166666605,
      "d": 117.1875,
      "v": 82
    },
    {
      "midi": 73,
      "hit": false,
      "t": 270510.4166666605,
      "d": 119.79166666668607,
      "v": 82
    },
    {
      "midi": 78,
      "hit": false,
      "t": 270510.4166666605,
      "d": 119.79166666668607,
      "v": 82
    },
    {
      "midi": 70,
      "hit": false,
      "t": 270632.8124999939,
      "d": 119.79166666668607,
      "v": 67
    },
    {
      "midi": 73,
      "hit": false,
      "t": 270632.8124999939,
      "d": 122.39583333337214,
      "v": 67
    },
    {
      "midi": 78,
      "hit": false,
      "t": 270632.8124999939,
      "d": 122.39583333337214,
      "v": 67
    },
    {
      "midi": 70,
      "hit": false,
      "t": 270757.81249999395,
      "d": 119.79166666668607,
      "v": 62
    },
    {
      "midi": 73,
      "hit": false,
      "t": 270757.81249999395,
      "d": 122.39583333337214,
      "v": 62
    },
    {
      "midi": 78,
      "hit": false,
      "t": 270760.41666666063,
      "d": 119.79166666668607,
      "v": 62
    },
    {
      "midi": 70,
      "hit": false,
      "t": 270882.812499994,
      "d": 122.39583333331393,
      "v": 57
    },
    {
      "midi": 73,
      "hit": false,
      "t": 270882.812499994,
      "d": 125,
      "v": 57
    },
    {
      "midi": 78,
      "hit": false,
      "t": 270882.812499994,
      "d": 125,
      "v": 57
    },
    {
      "midi": 70,
      "hit": false,
      "t": 271252.6041666607,
      "d": 125.00000000005821,
      "v": 82
    },
    {
      "midi": 73,
      "hit": false,
      "t": 271255.2083333274,
      "d": 125.00000000005821,
      "v": 82
    },
    {
      "midi": 78,
      "hit": false,
      "t": 271257.81249999406,
      "d": 122.39583333337214,
      "v": 82
    },
    {
      "midi": 70,
      "hit": false,
      "t": 271382.8124999941,
      "d": 122.39583333331393,
      "v": 72
    },
    {
      "midi": 73,
      "hit": false,
      "t": 271382.8124999941,
      "d": 125,
      "v": 72
    },
    {
      "midi": 78,
      "hit": false,
      "t": 271382.8124999941,
      "d": 127.60416666668607,
      "v": 72
    },
    {
      "midi": 70,
      "hit": false,
      "t": 272130.2083333275,
      "d": 122.39583333337214,
      "v": 52
    },
    {
      "midi": 75,
      "hit": false,
      "t": 272130.2083333275,
      "d": 125.00000000005821,
      "v": 52
    },
    {
      "midi": 79,
      "hit": false,
      "t": 272130.2083333275,
      "d": 125.00000000005821,
      "v": 52
    },
    {
      "midi": 70,
      "hit": false,
      "t": 272257.81249999424,
      "d": 119.79166666668607,
      "v": 77
    },
    {
      "midi": 75,
      "hit": false,
      "t": 272257.81249999424,
      "d": 122.39583333337214,
      "v": 77
    },
    {
      "midi": 79,
      "hit": false,
      "t": 272260.4166666609,
      "d": 119.79166666668607,
      "v": 77
    },
    {
      "midi": 70,
      "hit": false,
      "t": 272382.8124999943,
      "d": 122.39583333331393,
      "v": 52
    },
    {
      "midi": 75,
      "hit": false,
      "t": 272382.8124999943,
      "d": 122.39583333331393,
      "v": 52
    },
    {
      "midi": 79,
      "hit": false,
      "t": 272382.8124999943,
      "d": 125,
      "v": 52
    },
    {
      "midi": 70,
      "hit": false,
      "t": 272510.416666661,
      "d": 117.1875,
      "v": 77
    },
    {
      "midi": 75,
      "hit": false,
      "t": 272510.416666661,
      "d": 119.79166666668607,
      "v": 77
    },
    {
      "midi": 79,
      "hit": false,
      "t": 272513.02083332767,
      "d": 117.1875,
      "v": 77
    },
    {
      "midi": 70,
      "hit": false,
      "t": 272632.81249999435,
      "d": 119.79166666668607,
      "v": 62
    },
    {
      "midi": 75,
      "hit": false,
      "t": 272632.81249999435,
      "d": 122.39583333337214,
      "v": 62
    },
    {
      "midi": 79,
      "hit": false,
      "t": 272632.81249999435,
      "d": 122.39583333337214,
      "v": 62
    },
    {
      "midi": 70,
      "hit": false,
      "t": 272757.8124999944,
      "d": 119.79166666668607,
      "v": 57
    },
    {
      "midi": 75,
      "hit": false,
      "t": 272757.8124999944,
      "d": 122.39583333337214,
      "v": 57
    },
    {
      "midi": 79,
      "hit": false,
      "t": 272760.4166666611,
      "d": 119.79166666668607,
      "v": 57
    },
    {
      "midi": 70,
      "hit": false,
      "t": 272880.2083333278,
      "d": 125,
      "v": 52
    },
    {
      "midi": 75,
      "hit": false,
      "t": 272882.81249999447,
      "d": 122.39583333331393,
      "v": 52
    },
    {
      "midi": 79,
      "hit": false,
      "t": 272882.81249999447,
      "d": 125,
      "v": 52
    }
  ]
}