{
  "jsonPath": "Soundtracks/Classic Soundtrack/Marvin Hamlisch/the-entertainer.json",
  "path": "Soundtracks\\Classic Soundtrack\\Marvin Hamlisch\\The Entertainer.mid",
  "name": "The Entertainer",
  "difficulty": "Advanced",
  "bpm": 69.00009660013524,
  "notes": [
    {
      "midi": 74,
      "hit": false,
      "t": 0,
      "d": 179.87772500000003,
      "v": 92
    },
    {
      "midi": 86,
      "hit": false,
      "t": 0,
      "d": 210.36547500000003,
      "v": 109
    },
    {
      "midi": 76,
      "hit": false,
      "t": 182.92650000000003,
      "d": 182.92650000000003,
      "v": 90
    },
    {
      "midi": 88,
      "hit": false,
      "t": 185.97527500000004,
      "d": 198.170375,
      "v": 117
    },
    {
      "midi": 84,
      "hit": false,
      "t": 365.85300000000007,
      "d": 225.60934999999995,
      "v": 113
    },
    {
      "midi": 72,
      "hit": false,
      "t": 365.85300000000007,
      "d": 237.80444999999997,
      "v": 91
    },
    {
      "midi": 81,
      "hit": false,
      "t": 594.511125,
      "d": 195.12160000000017,
      "v": 103
    },
    {
      "midi": 69,
      "hit": false,
      "t": 615.8525500000001,
      "d": 149.38997500000005,
      "v": 83
    },
    {
      "midi": 83,
      "hit": false,
      "t": 929.8763750000002,
      "d": 164.63385000000005,
      "v": 91
    },
    {
      "midi": 71,
      "hit": false,
      "t": 939.0227000000002,
      "d": 149.38997500000005,
      "v": 69
    },
    {
      "midi": 79,
      "hit": false,
      "t": 1097.5590000000002,
      "d": 54.877950000000055,
      "v": 90
    },
    {
      "midi": 67,
      "hit": false,
      "t": 1106.7053250000001,
      "d": 60.97550000000024,
      "v": 81
    },
    {
      "midi": 74,
      "hit": false,
      "t": 1463.4120000000003,
      "d": 140.2436499999999,
      "v": 86
    },
    {
      "midi": 62,
      "hit": false,
      "t": 1469.5095500000002,
      "d": 149.38997500000005,
      "v": 60
    },
    {
      "midi": 76,
      "hit": false,
      "t": 1640.2409500000003,
      "d": 204.2679250000001,
      "v": 81
    },
    {
      "midi": 64,
      "hit": false,
      "t": 1646.3385000000003,
      "d": 176.82895000000008,
      "v": 70
    },
    {
      "midi": 72,
      "hit": false,
      "t": 1829.2650000000003,
      "d": 164.63384999999994,
      "v": 85
    },
    {
      "midi": 60,
      "hit": false,
      "t": 1847.5576500000004,
      "d": 137.1948749999999,
      "v": 62
    },
    {
      "midi": 69,
      "hit": false,
      "t": 2015.2402750000003,
      "d": 329.2677000000001,
      "v": 76
    },
    {
      "midi": 57,
      "hit": false,
      "t": 2030.4841500000002,
      "d": 286.5848500000002,
      "v": 70
    },
    {
      "midi": 59,
      "hit": false,
      "t": 2365.8494000000005,
      "d": 173.78017500000033,
      "v": 57
    },
    {
      "midi": 71,
      "hit": false,
      "t": 2368.8981750000003,
      "d": 179.87772499999983,
      "v": 66
    },
    {
      "midi": 67,
      "hit": false,
      "t": 2560.971,
      "d": 94.51202500000045,
      "v": 71
    },
    {
      "midi": 55,
      "hit": false,
      "t": 2560.971000000001,
      "d": 112.80467500000032,
      "v": 69
    },
    {
      "midi": 62,
      "hit": false,
      "t": 2926.8240000000005,
      "d": 124.99977500000023,
      "v": 67
    },
    {
      "midi": 50,
      "hit": false,
      "t": 2935.970325000001,
      "d": 143.2924250000001,
      "v": 52
    },
    {
      "midi": 64,
      "hit": false,
      "t": 3100.604175000001,
      "d": 173.78017500000033,
      "v": 64
    },
    {
      "midi": 52,
      "hit": false,
      "t": 3103.652950000001,
      "d": 149.38997500000005,
      "v": 71
    },
    {
      "midi": 60,
      "hit": false,
      "t": 3271.335575000001,
      "d": 228.65812500000038,
      "v": 74
    },
    {
      "midi": 48,
      "hit": false,
      "t": 3292.677000000001,
      "d": 182.92650000000003,
      "v": 59
    },
    {
      "midi": 57,
      "hit": false,
      "t": 3515.237575000001,
      "d": 237.8044500000001,
      "v": 74
    },
    {
      "midi": 45,
      "hit": false,
      "t": 3542.676550000001,
      "d": 149.38997500000005,
      "v": 56
    },
    {
      "midi": 47,
      "hit": false,
      "t": 3871.944250000001,
      "d": 100.60957499999995,
      "v": 38
    },
    {
      "midi": 59,
      "hit": false,
      "t": 3878.041800000001,
      "d": 128.04854999999998,
      "v": 58
    },
    {
      "midi": 57,
      "hit": false,
      "t": 4024.3830000000007,
      "d": 152.43875000000025,
      "v": 66
    },
    {
      "midi": 45,
      "hit": false,
      "t": 4033.529325000001,
      "d": 167.68262499999992,
      "v": 45
    },
    {
      "midi": 56,
      "hit": false,
      "t": 4192.065625000001,
      "d": 179.87772499999937,
      "v": 49
    },
    {
      "midi": 44,
      "hit": false,
      "t": 4201.211950000001,
      "d": 118.90222499999982,
      "v": 56
    },
    {
      "midi": 55,
      "hit": false,
      "t": 4390.236000000001,
      "d": 164.63385000000017,
      "v": 76
    },
    {
      "midi": 43,
      "hit": false,
      "t": 4405.479875000001,
      "d": 128.04855000000043,
      "v": 49
    },
    {
      "midi": 79,
      "hit": false,
      "t": 5121.942000000002,
      "d": 39.63407500000085,
      "v": 114
    },
    {
      "midi": 67,
      "hit": false,
      "t": 5124.990775000002,
      "d": 33.53652500000044,
      "v": 97
    },
    {
      "midi": 74,
      "hit": false,
      "t": 5124.990775000002,
      "d": 36.58530000000064,
      "v": 87
    },
    {
      "midi": 31,
      "hit": false,
      "t": 5128.039550000001,
      "d": 33.53652500000044,
      "v": 104
    },
    {
      "midi": 43,
      "hit": false,
      "t": 5131.0883250000015,
      "d": 30.487750000000233,
      "v": 98
    },
    {
      "midi": 71,
      "hit": false,
      "t": 5131.088325000002,
      "d": 33.53652500000044,
      "v": 72
    },
    {
      "midi": 62,
      "hit": false,
      "t": 5554.868050000003,
      "d": 109.75590000000011,
      "v": 57
    },
    {
      "midi": 59,
      "hit": false,
      "t": 5560.965600000002,
      "d": 140.24365000000034,
      "v": 47
    },
    {
      "midi": 55,
      "hit": false,
      "t": 5564.0143750000025,
      "d": 94.512025,
      "v": 57
    },
    {
      "midi": 63,
      "hit": false,
      "t": 5704.258025000003,
      "d": 121.95100000000002,
      "v": 56
    },
    {
      "midi": 64,
      "hit": false,
      "t": 5853.648000000003,
      "d": 158.53629999999976,
      "v": 58
    },
    {
      "midi": 48,
      "hit": false,
      "t": 5871.940650000002,
      "d": 210.3654749999996,
      "v": 44
    },
    {
      "midi": 72,
      "hit": false,
      "t": 6057.915925000003,
      "d": 94.512025,
      "v": 50
    },
    {
      "midi": 52,
      "hit": false,
      "t": 6204.257125000002,
      "d": 42.682850000000144,
      "v": 38
    },
    {
      "midi": 60,
      "hit": false,
      "t": 6219.501000000003,
      "d": 45.73162500000035,
      "v": 19
    },
    {
      "midi": 64,
      "hit": false,
      "t": 6399.378725000003,
      "d": 79.26814999999988,
      "v": 47
    },
    {
      "midi": 43,
      "hit": false,
      "t": 6585.354000000002,
      "d": 45.73162500000035,
      "v": 49
    },
    {
      "midi": 72,
      "hit": false,
      "t": 6594.500325000003,
      "d": 149.38997500000005,
      "v": 66
    },
    {
      "midi": 64,
      "hit": false,
      "t": 6929.8655750000025,
      "d": 115.85345000000143,
      "v": 65
    },
    {
      "midi": 60,
      "hit": false,
      "t": 6935.963125000003,
      "d": 48.780400000000554,
      "v": 55
    },
    {
      "midi": 58,
      "hit": false,
      "t": 6945.109450000003,
      "d": 48.780400000000554,
      "v": 40
    },
    {
      "midi": 72,
      "hit": false,
      "t": 7115.840850000004,
      "d": 722.5596749999995,
      "v": 74
    },
    {
      "midi": 41,
      "hit": false,
      "t": 7317.060000000003,
      "d": 39.63407499999994,
      "v": 58
    },
    {
      "midi": 53,
      "hit": false,
      "t": 7317.060000000003,
      "d": 39.63407499999994,
      "v": 61
    },
    {
      "midi": 57,
      "hit": false,
      "t": 7679.864225000003,
      "d": 51.82917499999985,
      "v": 76
    },
    {
      "midi": 60,
      "hit": false,
      "t": 7682.913000000004,
      "d": 48.780399999999645,
      "v": 72
    },
    {
      "midi": 40,
      "hit": false,
      "t": 8039.619675000004,
      "d": 57.92672499999935,
      "v": 81
    },
    {
      "midi": 52,
      "hit": false,
      "t": 8048.766000000003,
      "d": 48.780399999999645,
      "v": 64
    },
    {
      "midi": 84,
      "hit": false,
      "t": 8207.302300000005,
      "d": 45.73162500000035,
      "v": 98
    },
    {
      "midi": 76,
      "hit": false,
      "t": 8216.448625000005,
      "d": 48.780400000001464,
      "v": 74
    },
    {
      "midi": 72,
      "hit": false,
      "t": 8216.448625000005,
      "d": 51.82917500000076,
      "v": 50
    },
    {
      "midi": 60,
      "hit": false,
      "t": 8384.131250000006,
      "d": 51.82917500000076,
      "v": 67
    },
    {
      "midi": 55,
      "hit": false,
      "t": 8387.180025000003,
      "d": 60.97549999999865,
      "v": 82
    },
    {
      "midi": 86,
      "hit": false,
      "t": 8390.228800000006,
      "d": 51.82917500000076,
      "v": 107
    },
    {
      "midi": 77,
      "hit": false,
      "t": 8399.375125000006,
      "d": 54.877950000001874,
      "v": 78
    },
    {
      "midi": 74,
      "hit": false,
      "t": 8414.619000000006,
      "d": 51.82917500000258,
      "v": 37
    },
    {
      "midi": 87,
      "hit": false,
      "t": 8570.106525000008,
      "d": 70.12182499999835,
      "v": 101
    },
    {
      "midi": 75,
      "hit": false,
      "t": 8573.155300000008,
      "d": 54.877950000000055,
      "v": 81
    },
    {
      "midi": 78,
      "hit": false,
      "t": 8576.204075000007,
      "d": 54.877950000000055,
      "v": 80
    },
    {
      "midi": 43,
      "hit": false,
      "t": 8780.472000000002,
      "d": 45.73162500000035,
      "v": 87
    },
    {
      "midi": 88,
      "hit": false,
      "t": 8780.472000000005,
      "d": 42.682849999999235,
      "v": 110
    },
    {
      "midi": 79,
      "hit": false,
      "t": 8780.472000000005,
      "d": 48.780399999999645,
      "v": 110
    },
    {
      "midi": 76,
      "hit": false,
      "t": 8783.520775000005,
      "d": 51.82917500000076,
      "v": 83
    },
    {
      "midi": 76,
      "hit": false,
      "t": 8951.203400000006,
      "d": 54.877949999998236,
      "v": 102
    },
    {
      "midi": 84,
      "hit": false,
      "t": 8954.252175000005,
      "d": 54.877949999998236,
      "v": 110
    },
    {
      "midi": 72,
      "hit": false,
      "t": 8957.300950000004,
      "d": 51.82917499999894,
      "v": 96
    },
    {
      "midi": 60,
      "hit": false,
      "t": 9124.983575000004,
      "d": 57.92672499999935,
      "v": 78
    },
    {
      "midi": 55,
      "hit": false,
      "t": 9134.129900000002,
      "d": 57.92672499999935,
      "v": 82
    },
    {
      "midi": 52,
      "hit": false,
      "t": 9140.227450000002,
      "d": 54.877949999998236,
      "v": 79
    },
    {
      "midi": 74,
      "hit": false,
      "t": 9143.276225000003,
      "d": 54.877950000000055,
      "v": 96
    },
    {
      "midi": 77,
      "hit": false,
      "t": 9143.276225000003,
      "d": 54.877950000000055,
      "v": 106
    },
    {
      "midi": 86,
      "hit": false,
      "t": 9146.325000000003,
      "d": 51.82917500000076,
      "v": 115
    },
    {
      "midi": 88,
      "hit": false,
      "t": 9332.300275000003,
      "d": 143.29242499999782,
      "v": 116
    },
    {
      "midi": 79,
      "hit": false,
      "t": 9335.349050000003,
      "d": 131.09732499999882,
      "v": 108
    },
    {
      "midi": 76,
      "hit": false,
      "t": 9335.349050000003,
      "d": 149.38997499999823,
      "v": 98
    },
    {
      "midi": 43,
      "hit": false,
      "t": 9512.178,
      "d": 48.780399999999645,
      "v": 89
    },
    {
      "midi": 71,
      "hit": false,
      "t": 9689.00695,
      "d": 45.73162499999853,
      "v": 85
    },
    {
      "midi": 74,
      "hit": false,
      "t": 9689.00695,
      "d": 48.780399999997826,
      "v": 93
    },
    {
      "midi": 83,
      "hit": false,
      "t": 9692.055725,
      "d": 48.780399999997826,
      "v": 99
    },
    {
      "midi": 86,
      "hit": false,
      "t": 9878.030999999997,
      "d": 60.97549999999865,
      "v": 118
    },
    {
      "midi": 74,
      "hit": false,
      "t": 9881.079774999997,
      "d": 64.02427499999794,
      "v": 82
    },
    {
      "midi": 53,
      "hit": false,
      "t": 9887.177324999999,
      "d": 67.07305000000088,
      "v": 70
    },
    {
      "midi": 55,
      "hit": false,
      "t": 9887.177324999999,
      "d": 70.12182500000017,
      "v": 70
    },
    {
      "midi": 59,
      "hit": false,
      "t": 9887.177324999999,
      "d": 88.41447499999958,
      "v": 63
    },
    {
      "midi": 77,
      "hit": false,
      "t": 9890.226099999996,
      "d": 51.82917499999894,
      "v": 74
    },
    {
      "midi": 84,
      "hit": false,
      "t": 10243.883999999995,
      "d": 673.779274999999,
      "v": 102
    },
    {
      "midi": 76,
      "hit": false,
      "t": 10243.883999999995,
      "d": 704.2670249999992,
      "v": 90
    },
    {
      "midi": 72,
      "hit": false,
      "t": 10243.883999999995,
      "d": 707.3157999999985,
      "v": 86
    },
    {
      "midi": 48,
      "hit": false,
      "t": 10265.225424999999,
      "d": 60.975500000000466,
      "v": 51
    },
    {
      "midi": 60,
      "hit": false,
      "t": 10600.590674999994,
      "d": 82.31692499999917,
      "v": 64
    },
    {
      "midi": 55,
      "hit": false,
      "t": 10600.590675,
      "d": 76.21937500000058,
      "v": 67
    },
    {
      "midi": 52,
      "hit": false,
      "t": 10609.737,
      "d": 54.877950000000055,
      "v": 63
    },
    {
      "midi": 55,
      "hit": false,
      "t": 10975.59,
      "d": 57.92672500000117,
      "v": 61
    },
    {
      "midi": 60,
      "hit": false,
      "t": 10984.736324999993,
      "d": 54.877950000000055,
      "v": 56
    },
    {
      "midi": 52,
      "hit": false,
      "t": 10987.785100000001,
      "d": 45.73162500000035,
      "v": 59
    },
    {
      "midi": 62,
      "hit": false,
      "t": 11365.833199999992,
      "d": 121.95099999999911,
      "v": 60
    },
    {
      "midi": 59,
      "hit": false,
      "t": 11390.2234,
      "d": 88.41447499999776,
      "v": 45
    },
    {
      "midi": 55,
      "hit": false,
      "t": 11393.272175,
      "d": 42.682849999999235,
      "v": 44
    },
    {
      "midi": 63,
      "hit": false,
      "t": 11533.515824999991,
      "d": 140.24365000000034,
      "v": 68
    },
    {
      "midi": 64,
      "hit": false,
      "t": 11707.295999999991,
      "d": 146.34120000000075,
      "v": 63
    },
    {
      "midi": 48,
      "hit": false,
      "t": 11719.4911,
      "d": 51.82917500000076,
      "v": 53
    },
    {
      "midi": 72,
      "hit": false,
      "t": 11920.710249999991,
      "d": 283.53607499999816,
      "v": 46
    },
    {
      "midi": 60,
      "hit": false,
      "t": 12073.14899999999,
      "d": 48.780399999999645,
      "v": 47
    },
    {
      "midi": 55,
      "hit": false,
      "t": 12073.149,
      "d": 48.780399999999645,
      "v": 50
    },
    {
      "midi": 52,
      "hit": false,
      "t": 12076.197774999999,
      "d": 51.82917500000076,
      "v": 62
    },
    {
      "midi": 64,
      "hit": false,
      "t": 12249.97794999999,
      "d": 164.63385000000017,
      "v": 61
    },
    {
      "midi": 43,
      "hit": false,
      "t": 12439.001999999999,
      "d": 45.73162500000035,
      "v": 70
    },
    {
      "midi": 72,
      "hit": false,
      "t": 12445.09954999999,
      "d": 317.07260000000133,
      "v": 84
    },
    {
      "midi": 55,
      "hit": false,
      "t": 12451.1971,
      "d": 48.780399999999645,
      "v": 46
    },
    {
      "midi": 64,
      "hit": false,
      "t": 12804.85499999999,
      "d": 118.90222499999982,
      "v": 66
    },
    {
      "midi": 60,
      "hit": false,
      "t": 12807.90377499999,
      "d": 51.82917500000076,
      "v": 53
    },
    {
      "midi": 55,
      "hit": false,
      "t": 12810.95255,
      "d": 57.92672499999935,
      "v": 66
    },
    {
      "midi": 72,
      "hit": false,
      "t": 12978.63517499999,
      "d": 814.0229249999993,
      "v": 82
    },
    {
      "midi": 41,
      "hit": false,
      "t": 13192.049425,
      "d": 48.780399999999645,
      "v": 65
    },
    {
      "midi": 53,
      "hit": false,
      "t": 13201.195749999999,
      "d": 60.975500000000466,
      "v": 64
    },
    {
      "midi": 60,
      "hit": false,
      "t": 13536.56099999999,
      "d": 73.17059999999947,
      "v": 79
    },
    {
      "midi": 57,
      "hit": false,
      "t": 13539.609774999999,
      "d": 67.07305000000088,
      "v": 74
    },
    {
      "midi": 40,
      "hit": false,
      "t": 13905.462775,
      "d": 85.36570000000029,
      "v": 81
    },
    {
      "midi": 52,
      "hit": false,
      "t": 13923.755425,
      "d": 60.975500000000466,
      "v": 69
    },
    {
      "midi": 81,
      "hit": false,
      "t": 14259.12067499999,
      "d": 73.17059999999947,
      "v": 103
    },
    {
      "midi": 51,
      "hit": false,
      "t": 14268.267,
      "d": 79.26814999999988,
      "v": 80
    },
    {
      "midi": 39,
      "hit": false,
      "t": 14268.267,
      "d": 82.31692499999917,
      "v": 84
    },
    {
      "midi": 69,
      "hit": false,
      "t": 14271.31577499999,
      "d": 60.97549999999865,
      "v": 74
    },
    {
      "midi": 72,
      "hit": false,
      "t": 14323.144949999989,
      "d": 48.780399999999645,
      "v": 20
    },
    {
      "midi": 79,
      "hit": false,
      "t": 14438.99839999999,
      "d": 57.92672500000117,
      "v": 103
    },
    {
      "midi": 67,
      "hit": false,
      "t": 14445.09594999999,
      "d": 51.82917500000076,
      "v": 93
    },
    {
      "midi": 66,
      "hit": false,
      "t": 14634.119999999992,
      "d": 48.780399999999645,
      "v": 86
    },
    {
      "midi": 78,
      "hit": false,
      "t": 14634.119999999992,
      "d": 57.92672499999935,
      "v": 102
    },
    {
      "midi": 38,
      "hit": false,
      "t": 14634.119999999999,
      "d": 45.73162500000035,
      "v": 100
    },
    {
      "midi": 50,
      "hit": false,
      "t": 14640.21755,
      "d": 51.82917500000076,
      "v": 64
    },
    {
      "midi": 81,
      "hit": false,
      "t": 14804.85139999999,
      "d": 57.92672499999935,
      "v": 118
    },
    {
      "midi": 69,
      "hit": false,
      "t": 14807.90017499999,
      "d": 54.877950000000055,
      "v": 83
    },
    {
      "midi": 71,
      "hit": false,
      "t": 14829.24159999999,
      "d": 54.877950000000055,
      "v": 34
    },
    {
      "midi": 54,
      "hit": false,
      "t": 14999.973,
      "d": 97.56079999999929,
      "v": 82
    },
    {
      "midi": 60,
      "hit": false,
      "t": 15003.021774999992,
      "d": 73.17059999999947,
      "v": 82
    },
    {
      "midi": 57,
      "hit": false,
      "t": 15003.021775,
      "d": 76.21937500000058,
      "v": 90
    },
    {
      "midi": 72,
      "hit": false,
      "t": 15006.070549999991,
      "d": 54.877950000000055,
      "v": 83
    },
    {
      "midi": 84,
      "hit": false,
      "t": 15006.070549999991,
      "d": 54.877950000000055,
      "v": 120
    },
    {
      "midi": 74,
      "hit": false,
      "t": 15024.36319999999,
      "d": 54.877950000000055,
      "v": 61
    },
    {
      "midi": 88,
      "hit": false,
      "t": 15201.192149999992,
      "d": 192.07282499999747,
      "v": 117
    },
    {
      "midi": 76,
      "hit": false,
      "t": 15201.192149999992,
      "d": 219.51179999999658,
      "v": 94
    },
    {
      "midi": 50,
      "hit": false,
      "t": 15374.972324999999,
      "d": 152.43874999999935,
      "v": 90
    },
    {
      "midi": 86,
      "hit": false,
      "t": 15563.996374999988,
      "d": 57.92672499999935,
      "v": 102
    },
    {
      "midi": 74,
      "hit": false,
      "t": 15567.045149999987,
      "d": 51.82917500000076,
      "v": 95
    },
    {
      "midi": 54,
      "hit": false,
      "t": 15731.678999999998,
      "d": 85.36570000000029,
      "v": 67
    },
    {
      "midi": 84,
      "hit": false,
      "t": 15734.727774999987,
      "d": 48.780399999997826,
      "v": 114
    },
    {
      "midi": 57,
      "hit": false,
      "t": 15740.825324999998,
      "d": 112.80467500000123,
      "v": 68
    },
    {
      "midi": 72,
      "hit": false,
      "t": 15743.874099999986,
      "d": 45.73162499999853,
      "v": 94
    },
    {
      "midi": 60,
      "hit": false,
      "t": 15746.922874999986,
      "d": 54.877950000000055,
      "v": 58
    },
    {
      "midi": 81,
      "hit": false,
      "t": 15905.459174999985,
      "d": 45.73162500000035,
      "v": 96
    },
    {
      "midi": 69,
      "hit": false,
      "t": 15914.605499999985,
      "d": 51.82917500000076,
      "v": 38
    },
    {
      "midi": 86,
      "hit": false,
      "t": 16097.531999999987,
      "d": 728.6572249999972,
      "v": 94
    },
    {
      "midi": 74,
      "hit": false,
      "t": 16097.531999999987,
      "d": 759.1449749999938,
      "v": 93
    },
    {
      "midi": 55,
      "hit": false,
      "t": 16103.62955,
      "d": 45.73162500000035,
      "v": 82
    },
    {
      "midi": 77,
      "hit": false,
      "t": 16109.727099999987,
      "d": 740.8523249999944,
      "v": 79
    },
    {
      "midi": 59,
      "hit": false,
      "t": 16109.7271,
      "d": 45.73162500000035,
      "v": 62
    },
    {
      "midi": 43,
      "hit": false,
      "t": 16463.385,
      "d": 64.02427499999976,
      "v": 68
    },
    {
      "midi": 55,
      "hit": false,
      "t": 16463.385,
      "d": 91.4632500000007,
      "v": 70
    },
    {
      "midi": 57,
      "hit": false,
      "t": 16853.628200000003,
      "d": 57.92672500000117,
      "v": 50
    },
    {
      "midi": 45,
      "hit": false,
      "t": 16856.676975000002,
      "d": 45.73162500000035,
      "v": 41
    },
    {
      "midi": 47,
      "hit": false,
      "t": 17167.652025000007,
      "d": 48.780399999999645,
      "v": 66
    },
    {
      "midi": 62,
      "hit": false,
      "t": 17176.79834999998,
      "d": 103.65834999999788,
      "v": 63
    },
    {
      "midi": 59,
      "hit": false,
      "t": 17176.79835000001,
      "d": 57.92672499999753,
      "v": 46
    },
    {
      "midi": 63,
      "hit": false,
      "t": 17365.822399999975,
      "d": 57.92672500000117,
      "v": 48
    },
    {
      "midi": 64,
      "hit": false,
      "t": 17560.943999999978,
      "d": 158.53629999999976,
      "v": 60
    },
    {
      "midi": 48,
      "hit": false,
      "t": 17560.944000000007,
      "d": 70.12182499999835,
      "v": 60
    },
    {
      "midi": 72,
      "hit": false,
      "t": 17756.065599999976,
      "d": 317.0725999999995,
      "v": 66
    },
    {
      "midi": 60,
      "hit": false,
      "t": 17942.040874999977,
      "d": 51.82917499999894,
      "v": 43
    },
    {
      "midi": 55,
      "hit": false,
      "t": 17945.089650000005,
      "d": 64.02427499999976,
      "v": 52
    },
    {
      "midi": 64,
      "hit": false,
      "t": 18137.162474999976,
      "d": 121.95100000000093,
      "v": 46
    },
    {
      "midi": 43,
      "hit": false,
      "t": 18313.991425000004,
      "d": 57.92672500000117,
      "v": 59
    },
    {
      "midi": 72,
      "hit": false,
      "t": 18323.137749999976,
      "d": 274.3897500000021,
      "v": 72
    },
    {
      "midi": 55,
      "hit": false,
      "t": 18341.430400000005,
      "d": 45.73162500000035,
      "v": 44
    },
    {
      "midi": 64,
      "hit": false,
      "t": 18643.25912499998,
      "d": 124.99977500000023,
      "v": 64
    },
    {
      "midi": 55,
      "hit": false,
      "t": 18658.503000000004,
      "d": 51.82917500000258,
      "v": 65
    },
    {
      "midi": 58,
      "hit": false,
      "t": 18670.698100000005,
      "d": 54.877950000001874,
      "v": 30
    },
    {
      "midi": 72,
      "hit": false,
      "t": 18841.429499999977,
      "d": 853.6570000000065,
      "v": 84
    },
    {
      "midi": 41,
      "hit": false,
      "t": 19024.356000000007,
      "d": 64.02427499999976,
      "v": 76
    },
    {
      "midi": 53,
      "hit": false,
      "t": 19039.599875000007,
      "d": 48.780399999999645,
      "v": 49
    },
    {
      "midi": 57,
      "hit": false,
      "t": 19390.20900000001,
      "d": 54.877949999998236,
      "v": 72
    },
    {
      "midi": 60,
      "hit": false,
      "t": 19402.40409999998,
      "d": 57.92672500000117,
      "v": 65
    },
    {
      "midi": 40,
      "hit": false,
      "t": 19789.59852500001,
      "d": 48.780399999999645,
      "v": 84
    },
    {
      "midi": 52,
      "hit": false,
      "t": 19801.79362500001,
      "d": 48.780399999999645,
      "v": 63
    },
    {
      "midi": 84,
      "hit": false,
      "t": 19960.329924999984,
      "d": 45.73162500000035,
      "v": 103
    },
    {
      "midi": 76,
      "hit": false,
      "t": 19963.378699999983,
      "d": 45.73162500000035,
      "v": 81
    },
    {
      "midi": 72,
      "hit": false,
      "t": 19963.378699999983,
      "d": 48.780399999999645,
      "v": 74
    },
    {
      "midi": 55,
      "hit": false,
      "t": 20103.62235000001,
      "d": 67.0730500000027,
      "v": 88
    },
    {
      "midi": 60,
      "hit": false,
      "t": 20121.914999999983,
      "d": 51.82917499999894,
      "v": 60
    },
    {
      "midi": 86,
      "hit": false,
      "t": 20121.914999999983,
      "d": 54.877949999998236,
      "v": 113
    },
    {
      "midi": 77,
      "hit": false,
      "t": 20124.963774999982,
      "d": 54.877949999998236,
      "v": 97
    },
    {
      "midi": 74,
      "hit": false,
      "t": 20131.06132499998,
      "d": 51.82917499999894,
      "v": 75
    },
    {
      "midi": 87,
      "hit": false,
      "t": 20292.64639999998,
      "d": 54.877949999998236,
      "v": 106
    },
    {
      "midi": 75,
      "hit": false,
      "t": 20298.74394999998,
      "d": 51.82917499999894,
      "v": 78
    },
    {
      "midi": 78,
      "hit": false,
      "t": 20298.74394999998,
      "d": 54.877949999998236,
      "v": 81
    },
    {
      "midi": 88,
      "hit": false,
      "t": 20487.767999999975,
      "d": 54.877949999998236,
      "v": 116
    },
    {
      "midi": 43,
      "hit": false,
      "t": 20487.768000000007,
      "d": 54.877949999998236,
      "v": 93
    },
    {
      "midi": 76,
      "hit": false,
      "t": 20493.865549999973,
      "d": 54.877949999998236,
      "v": 85
    },
    {
      "midi": 79,
      "hit": false,
      "t": 20496.914324999972,
      "d": 48.780399999999645,
      "v": 91
    },
    {
      "midi": 72,
      "hit": false,
      "t": 20667.64572499997,
      "d": 48.780399999999645,
      "v": 98
    },
    {
      "midi": 76,
      "hit": false,
      "t": 20670.69449999997,
      "d": 48.780399999999645,
      "v": 95
    },
    {
      "midi": 84,
      "hit": false,
      "t": 20670.69449999997,
      "d": 48.780399999999645,
      "v": 110
    },
    {
      "midi": 52,
      "hit": false,
      "t": 20844.47467500001,
      "d": 51.82917499999894,
      "v": 85
    },
    {
      "midi": 60,
      "hit": false,
      "t": 20847.523449999968,
      "d": 51.82917499999894,
      "v": 72
    },
    {
      "midi": 86,
      "hit": false,
      "t": 20850.572224999967,
      "d": 51.82917499999894,
      "v": 116
    },
    {
      "midi": 74,
      "hit": false,
      "t": 20850.572224999967,
      "d": 54.877949999998236,
      "v": 91
    },
    {
      "midi": 55,
      "hit": false,
      "t": 20850.572225000007,
      "d": 51.82917499999894,
      "v": 67
    },
    {
      "midi": 77,
      "hit": false,
      "t": 20853.620999999966,
      "d": 51.82917499999894,
      "v": 92
    },
    {
      "midi": 88,
      "hit": false,
      "t": 21042.645049999966,
      "d": 115.85344999999506,
      "v": 121
    },
    {
      "midi": 76,
      "hit": false,
      "t": 21045.693824999966,
      "d": 140.2436499999967,
      "v": 99
    },
    {
      "midi": 79,
      "hit": false,
      "t": 21048.742599999965,
      "d": 54.877949999998236,
      "v": 113
    },
    {
      "midi": 43,
      "hit": false,
      "t": 21219.474000000006,
      "d": 48.780399999999645,
      "v": 91
    },
    {
      "midi": 71,
      "hit": false,
      "t": 21390.205399999963,
      "d": 51.82917499999894,
      "v": 92
    },
    {
      "midi": 74,
      "hit": false,
      "t": 21390.205399999963,
      "d": 51.82917499999894,
      "v": 91
    },
    {
      "midi": 83,
      "hit": false,
      "t": 21393.254174999962,
      "d": 51.82917499999894,
      "v": 101
    },
    {
      "midi": 86,
      "hit": false,
      "t": 21585.326999999957,
      "d": 79.26814999999988,
      "v": 113
    },
    {
      "midi": 53,
      "hit": false,
      "t": 21588.375775000008,
      "d": 70.12182499999835,
      "v": 75
    },
    {
      "midi": 77,
      "hit": false,
      "t": 21591.424549999956,
      "d": 51.82917499999894,
      "v": 96
    },
    {
      "midi": 74,
      "hit": false,
      "t": 21591.424549999956,
      "d": 109.75590000000011,
      "v": 84
    },
    {
      "midi": 59,
      "hit": false,
      "t": 21597.52210000001,
      "d": 88.41447499999776,
      "v": 67
    },
    {
      "midi": 55,
      "hit": false,
      "t": 21600.57087500001,
      "d": 70.12182499999835,
      "v": 74
    },
    {
      "midi": 84,
      "hit": false,
      "t": 21951.179999999957,
      "d": 835.3643499999962,
      "v": 106
    },
    {
      "midi": 76,
      "hit": false,
      "t": 21957.277549999955,
      "d": 801.8278250000003,
      "v": 86
    },
    {
      "midi": 72,
      "hit": false,
      "t": 21957.277549999955,
      "d": 823.169249999999,
      "v": 81
    },
    {
      "midi": 48,
      "hit": false,
      "t": 21963.375100000005,
      "d": 67.07304999999906,
      "v": 81
    },
    {
      "midi": 52,
      "hit": false,
      "t": 22335.325650000002,
      "d": 85.36569999999847,
      "v": 76
    },
    {
      "midi": 60,
      "hit": false,
      "t": 22341.423199999957,
      "d": 85.36569999999847,
      "v": 62
    },
    {
      "midi": 55,
      "hit": false,
      "t": 22341.4232,
      "d": 57.92672500000117,
      "v": 67
    },
    {
      "midi": 64,
      "hit": false,
      "t": 22740.812724999956,
      "d": 51.8291749999953,
      "v": 64
    },
    {
      "midi": 55,
      "hit": false,
      "t": 22743.861500000003,
      "d": 51.82917499999894,
      "v": 51
    },
    {
      "midi": 60,
      "hit": false,
      "t": 22746.910274999955,
      "d": 51.8291749999953,
      "v": 59
    },
    {
      "midi": 84,
      "hit": false,
      "t": 23124.95837499995,
      "d": 54.877949999998236,
      "v": 85
    },
    {
      "midi": 72,
      "hit": false,
      "t": 23128.00714999995,
      "d": 45.73162500000035,
      "v": 75
    },
    {
      "midi": 74,
      "hit": false,
      "t": 23274.34834999995,
      "d": 36.585299999998824,
      "v": 67
    },
    {
      "midi": 86,
      "hit": false,
      "t": 23274.34834999995,
      "d": 39.63407499999812,
      "v": 82
    },
    {
      "midi": 48,
      "hit": false,
      "t": 23414.592,
      "d": 51.82917500000258,
      "v": 77
    },
    {
      "midi": 88,
      "hit": false,
      "t": 23417.640774999945,
      "d": 51.82917500000258,
      "v": 85
    },
    {
      "midi": 76,
      "hit": false,
      "t": 23426.787099999947,
      "d": 51.82917500000258,
      "v": 59
    },
    {
      "midi": 60,
      "hit": false,
      "t": 23435.93342499995,
      "d": 48.780399999999645,
      "v": 59
    },
    {
      "midi": 84,
      "hit": false,
      "t": 23594.469724999948,
      "d": 48.780399999999645,
      "v": 93
    },
    {
      "midi": 72,
      "hit": false,
      "t": 23597.518499999947,
      "d": 48.780399999999645,
      "v": 71
    },
    {
      "midi": 64,
      "hit": false,
      "t": 23780.44499999995,
      "d": 51.82917499999894,
      "v": 59
    },
    {
      "midi": 74,
      "hit": false,
      "t": 23780.44499999995,
      "d": 54.877949999998236,
      "v": 82
    },
    {
      "midi": 60,
      "hit": false,
      "t": 23783.493774999948,
      "d": 51.82917499999894,
      "v": 59
    },
    {
      "midi": 86,
      "hit": false,
      "t": 23789.591324999947,
      "d": 54.877950000001874,
      "v": 60
    },
    {
      "midi": 55,
      "hit": false,
      "t": 23798.737650000003,
      "d": 51.82917499999894,
      "v": 46
    },
    {
      "midi": 84,
      "hit": false,
      "t": 23817.030299999948,
      "d": 54.877950000001874,
      "v": 1
    },
    {
      "midi": 76,
      "hit": false,
      "t": 23963.37149999995,
      "d": 149.38997499999823,
      "v": 77
    },
    {
      "midi": 88,
      "hit": false,
      "t": 23966.42027499995,
      "d": 128.04854999999952,
      "v": 88
    },
    {
      "midi": 46,
      "hit": false,
      "t": 24146.298000000003,
      "d": 54.877949999998236,
      "v": 59
    },
    {
      "midi": 58,
      "hit": false,
      "t": 24149.346775,
      "d": 60.975500000000466,
      "v": 61
    },
    {
      "midi": 72,
      "hit": false,
      "t": 24335.322049999948,
      "d": 51.82917499999894,
      "v": 79
    },
    {
      "midi": 84,
      "hit": false,
      "t": 24335.322049999948,
      "d": 57.92672499999753,
      "v": 86
    },
    {
      "midi": 64,
      "hit": false,
      "t": 24512.150999999947,
      "d": 54.877949999998236,
      "v": 71
    },
    {
      "midi": 60,
      "hit": false,
      "t": 24512.150999999947,
      "d": 57.92672499999753,
      "v": 72
    },
    {
      "midi": 55,
      "hit": false,
      "t": 24518.248550000004,
      "d": 60.975500000000466,
      "v": 74
    },
    {
      "midi": 86,
      "hit": false,
      "t": 24524.346099999948,
      "d": 54.877949999998236,
      "v": 98
    },
    {
      "midi": 74,
      "hit": false,
      "t": 24527.394874999947,
      "d": 51.82917499999894,
      "v": 82
    },
    {
      "midi": 72,
      "hit": false,
      "t": 24679.833624999945,
      "d": 48.780399999999645,
      "v": 91
    },
    {
      "midi": 84,
      "hit": false,
      "t": 24679.833624999945,
      "d": 51.82917499999894,
      "v": 93
    },
    {
      "midi": 88,
      "hit": false,
      "t": 24878.003999999943,
      "d": 51.82917500000258,
      "v": 101
    },
    {
      "midi": 45,
      "hit": false,
      "t": 24878.004000000004,
      "d": 51.82917499999894,
      "v": 86
    },
    {
      "midi": 76,
      "hit": false,
      "t": 24887.150324999944,
      "d": 48.780399999999645,
      "v": 81
    },
    {
      "midi": 57,
      "hit": false,
      "t": 24896.296650000004,
      "d": 51.82917499999894,
      "v": 50
    },
    {
      "midi": 72,
      "hit": false,
      "t": 25060.930499999944,
      "d": 51.82917499999894,
      "v": 94
    },
    {
      "midi": 84,
      "hit": false,
      "t": 25060.930499999944,
      "d": 54.877949999998236,
      "v": 101
    },
    {
      "midi": 65,
      "hit": false,
      "t": 25240.808224999942,
      "d": 64.02427499999612,
      "v": 76
    },
    {
      "midi": 57,
      "hit": false,
      "t": 25240.808225,
      "d": 73.17060000000129,
      "v": 77
    },
    {
      "midi": 74,
      "hit": false,
      "t": 25243.85699999994,
      "d": 54.877949999998236,
      "v": 83
    },
    {
      "midi": 60,
      "hit": false,
      "t": 25243.85699999994,
      "d": 70.12182499999835,
      "v": 79
    },
    {
      "midi": 86,
      "hit": false,
      "t": 25246.90577499994,
      "d": 54.877949999998236,
      "v": 87
    },
    {
      "midi": 84,
      "hit": false,
      "t": 25265.19842499994,
      "d": 51.82917499999894,
      "v": 48
    },
    {
      "midi": 88,
      "hit": false,
      "t": 25429.83227499994,
      "d": 167.68262499999764,
      "v": 108
    },
    {
      "midi": 76,
      "hit": false,
      "t": 25432.881049999938,
      "d": 164.63384999999835,
      "v": 96
    },
    {
      "midi": 44,
      "hit": false,
      "t": 25606.661225000003,
      "d": 60.975500000000466,
      "v": 92
    },
    {
      "midi": 56,
      "hit": false,
      "t": 25609.710000000003,
      "d": 64.02427499999976,
      "v": 86
    },
    {
      "midi": 72,
      "hit": false,
      "t": 25768.246299999937,
      "d": 67.07304999999906,
      "v": 103
    },
    {
      "midi": 84,
      "hit": false,
      "t": 25768.246299999937,
      "d": 70.12182499999835,
      "v": 106
    },
    {
      "midi": 56,
      "hit": false,
      "t": 25957.270350000003,
      "d": 76.21937500000058,
      "v": 79
    },
    {
      "midi": 64,
      "hit": false,
      "t": 25963.367899999936,
      "d": 51.8291749999953,
      "v": 69
    },
    {
      "midi": 65,
      "hit": false,
      "t": 25963.367899999936,
      "d": 51.8291749999953,
      "v": 68
    },
    {
      "midi": 60,
      "hit": false,
      "t": 25969.465449999934,
      "d": 51.8291749999953,
      "v": 76
    },
    {
      "midi": 74,
      "hit": false,
      "t": 25975.562999999933,
      "d": 48.78039999999601,
      "v": 96
    },
    {
      "midi": 86,
      "hit": false,
      "t": 25978.611774999932,
      "d": 45.73162499999671,
      "v": 107
    },
    {
      "midi": 84,
      "hit": false,
      "t": 26134.09929999993,
      "d": 57.92672499999753,
      "v": 112
    },
    {
      "midi": 72,
      "hit": false,
      "t": 26140.196849999928,
      "d": 51.82917499999894,
      "v": 89
    },
    {
      "midi": 88,
      "hit": false,
      "t": 26341.415999999925,
      "d": 45.73162499999671,
      "v": 117
    },
    {
      "midi": 76,
      "hit": false,
      "t": 26347.513549999923,
      "d": 51.82917499999894,
      "v": 80
    },
    {
      "midi": 43,
      "hit": false,
      "t": 26347.513550000003,
      "d": 60.97549999999683,
      "v": 90
    },
    {
      "midi": 79,
      "hit": false,
      "t": 26350.562324999923,
      "d": 51.82917499999894,
      "v": 84
    },
    {
      "midi": 55,
      "hit": false,
      "t": 26353.611100000002,
      "d": 51.82917499999894,
      "v": 66
    },
    {
      "midi": 72,
      "hit": false,
      "t": 26515.19617499992,
      "d": 51.82917499999894,
      "v": 100
    },
    {
      "midi": 76,
      "hit": false,
      "t": 26515.19617499992,
      "d": 51.82917499999894,
      "v": 99
    },
    {
      "midi": 84,
      "hit": false,
      "t": 26518.24494999992,
      "d": 51.82917499999894,
      "v": 110
    },
    {
      "midi": 74,
      "hit": false,
      "t": 26707.26899999992,
      "d": 45.73162500000035,
      "v": 95
    },
    {
      "midi": 77,
      "hit": false,
      "t": 26707.26899999992,
      "d": 48.780399999999645,
      "v": 107
    },
    {
      "midi": 64,
      "hit": false,
      "t": 26707.26899999992,
      "d": 57.92672499999753,
      "v": 82
    },
    {
      "midi": 55,
      "hit": false,
      "t": 26707.269,
      "d": 64.02427499999976,
      "v": 84
    },
    {
      "midi": 86,
      "hit": false,
      "t": 26710.31777499992,
      "d": 48.780399999999645,
      "v": 116
    },
    {
      "midi": 60,
      "hit": false,
      "t": 26710.31777499992,
      "d": 54.877949999998236,
      "v": 82
    },
    {
      "midi": 88,
      "hit": false,
      "t": 26884.09794999992,
      "d": 140.2436499999967,
      "v": 116
    },
    {
      "midi": 79,
      "hit": false,
      "t": 26890.195499999918,
      "d": 45.73162500000035,
      "v": 106
    },
    {
      "midi": 76,
      "hit": false,
      "t": 26890.195499999918,
      "d": 146.34119999999893,
      "v": 94
    },
    {
      "midi": 79,
      "hit": false,
      "t": 26987.756299999917,
      "d": 45.73162500000035,
      "v": 55
    },
    {
      "midi": 43,
      "hit": false,
      "t": 27073.122000000003,
      "d": 64.02427499999976,
      "v": 87
    },
    {
      "midi": 55,
      "hit": false,
      "t": 27082.268325000005,
      "d": 51.82917499999894,
      "v": 76
    },
    {
      "midi": 83,
      "hit": false,
      "t": 27225.560749999917,
      "d": 48.780399999999645,
      "v": 105
    },
    {
      "midi": 71,
      "hit": false,
      "t": 27225.560749999917,
      "d": 51.82917499999894,
      "v": 73
    },
    {
      "midi": 74,
      "hit": false,
      "t": 27225.560749999917,
      "d": 51.82917499999894,
      "v": 92
    },
    {
      "midi": 86,
      "hit": false,
      "t": 27429.828674999917,
      "d": 45.73162499999671,
      "v": 115
    },
    {
      "midi": 77,
      "hit": false,
      "t": 27432.877449999916,
      "d": 45.73162499999671,
      "v": 102
    },
    {
      "midi": 55,
      "hit": false,
      "t": 27432.877450000004,
      "d": 97.56079999999565,
      "v": 87
    },
    {
      "midi": 59,
      "hit": false,
      "t": 27435.926225000003,
      "d": 88.41447499999776,
      "v": 69
    },
    {
      "midi": 74,
      "hit": false,
      "t": 27438.974999999915,
      "d": 42.682849999997416,
      "v": 87
    },
    {
      "midi": 84,
      "hit": false,
      "t": 27804.827999999914,
      "d": 512.1941999999981,
      "v": 99
    },
    {
      "midi": 76,
      "hit": false,
      "t": 27804.827999999914,
      "d": 539.633174999999,
      "v": 92
    },
    {
      "midi": 55,
      "hit": false,
      "t": 27804.828,
      "d": 45.73162500000035,
      "v": 74
    },
    {
      "midi": 72,
      "hit": false,
      "t": 27813.974324999916,
      "d": 530.4868499999975,
      "v": 78
    },
    {
      "midi": 48,
      "hit": false,
      "t": 27813.974325000003,
      "d": 48.780399999999645,
      "v": 56
    },
    {
      "midi": 43,
      "hit": false,
      "t": 28164.583450000002,
      "d": 60.97549999999683,
      "v": 68
    },
    {
      "midi": 55,
      "hit": false,
      "t": 28170.681,
      "d": 67.07304999999906,
      "v": 72
    },
    {
      "midi": 45,
      "hit": false,
      "t": 28536.534,
      "d": 60.975500000000466,
      "v": 58
    },
    {
      "midi": 57,
      "hit": false,
      "t": 28539.582775,
      "d": 76.21937500000058,
      "v": 61
    },
    {
      "midi": 47,
      "hit": false,
      "t": 28902.387,
      "d": 57.92672500000117,
      "v": 66
    },
    {
      "midi": 59,
      "hit": false,
      "t": 28914.5821,
      "d": 76.21937500000058,
      "v": 55
    },
    {
      "midi": 62,
      "hit": false,
      "t": 28945.069849999913,
      "d": 94.512025,
      "v": 48
    },
    {
      "midi": 63,
      "hit": false,
      "t": 29097.508599999914,
      "d": 155.48752500000046,
      "v": 58
    },
    {
      "midi": 48,
      "hit": false,
      "t": 29289.581425,
      "d": 36.585299999998824,
      "v": 57
    },
    {
      "midi": 64,
      "hit": false,
      "t": 29301.776524999914,
      "d": 128.04854999999952,
      "v": 51
    },
    {
      "midi": 72,
      "hit": false,
      "t": 29460.312824999914,
      "d": 289.6336249999986,
      "v": 65
    },
    {
      "midi": 52,
      "hit": false,
      "t": 29615.800349999998,
      "d": 70.12182499999835,
      "v": 62
    },
    {
      "midi": 55,
      "hit": false,
      "t": 29634.092999999997,
      "d": 48.780399999999645,
      "v": 30
    },
    {
      "midi": 60,
      "hit": false,
      "t": 29649.336874999914,
      "d": 51.82917499999894,
      "v": 4
    },
    {
      "midi": 64,
      "hit": false,
      "t": 29801.77562499991,
      "d": 161.5850750000027,
      "v": 45
    },
    {
      "midi": 43,
      "hit": false,
      "t": 29999.945999999996,
      "d": 48.780399999999645,
      "v": 71
    },
    {
      "midi": 72,
      "hit": false,
      "t": 30006.043549999915,
      "d": 317.0725999999995,
      "v": 77
    },
    {
      "midi": 55,
      "hit": false,
      "t": 30018.238649999996,
      "d": 45.73162500000035,
      "v": 52
    },
    {
      "midi": 64,
      "hit": false,
      "t": 30353.603899999915,
      "d": 134.1460999999981,
      "v": 66
    },
    {
      "midi": 55,
      "hit": false,
      "t": 30365.799,
      "d": 60.975500000000466,
      "v": 65
    },
    {
      "midi": 60,
      "hit": false,
      "t": 30381.042874999916,
      "d": 54.877949999998236,
      "v": 46
    },
    {
      "midi": 58,
      "hit": false,
      "t": 30387.140424999998,
      "d": 57.92672500000117,
      "v": 37
    },
    {
      "midi": 72,
      "hit": false,
      "t": 30548.725499999913,
      "d": 756.0962,
      "v": 83
    },
    {
      "midi": 41,
      "hit": false,
      "t": 30749.944649999998,
      "d": 54.877950000001874,
      "v": 70
    },
    {
      "midi": 53,
      "hit": false,
      "t": 30762.13975,
      "d": 54.877950000001874,
      "v": 61
    },
    {
      "midi": 60,
      "hit": false,
      "t": 31097.504999999914,
      "d": 48.780399999999645,
      "v": 64
    },
    {
      "midi": 57,
      "hit": false,
      "t": 31097.504999999997,
      "d": 51.82917499999894,
      "v": 63
    },
    {
      "midi": 40,
      "hit": false,
      "t": 31463.357999999997,
      "d": 57.92672499999753,
      "v": 86
    },
    {
      "midi": 52,
      "hit": false,
      "t": 31490.796974999994,
      "d": 54.877950000001874,
      "v": 49
    },
    {
      "midi": 84,
      "hit": false,
      "t": 31640.186949999912,
      "d": 54.877949999998236,
      "v": 101
    },
    {
      "midi": 72,
      "hit": false,
      "t": 31646.28449999991,
      "d": 54.877949999998236,
      "v": 82
    },
    {
      "midi": 76,
      "hit": false,
      "t": 31646.28449999991,
      "d": 54.877949999998236,
      "v": 83
    },
    {
      "midi": 55,
      "hit": false,
      "t": 31829.210999999996,
      "d": 64.02427499999976,
      "v": 85
    },
    {
      "midi": 60,
      "hit": false,
      "t": 31832.25977499991,
      "d": 51.8291749999953,
      "v": 76
    },
    {
      "midi": 77,
      "hit": false,
      "t": 31835.30854999991,
      "d": 51.8291749999953,
      "v": 102
    },
    {
      "midi": 86,
      "hit": false,
      "t": 31838.35732499991,
      "d": 51.8291749999953,
      "v": 115
    },
    {
      "midi": 74,
      "hit": false,
      "t": 31844.45487499991,
      "d": 51.8291749999953,
      "v": 78
    },
    {
      "midi": 87,
      "hit": false,
      "t": 32006.039949999904,
      "d": 57.92672499999753,
      "v": 106
    },
    {
      "midi": 75,
      "hit": false,
      "t": 32012.137499999903,
      "d": 48.780399999999645,
      "v": 84
    },
    {
      "midi": 88,
      "hit": false,
      "t": 32195.0639999999,
      "d": 51.82917499999894,
      "v": 97
    },
    {
      "midi": 79,
      "hit": false,
      "t": 32195.0639999999,
      "d": 54.877949999998236,
      "v": 110
    },
    {
      "midi": 43,
      "hit": false,
      "t": 32195.063999999995,
      "d": 51.82917500000258,
      "v": 90
    },
    {
      "midi": 76,
      "hit": false,
      "t": 32201.1615499999,
      "d": 48.780399999999645,
      "v": 94
    },
    {
      "midi": 72,
      "hit": false,
      "t": 32368.8441749999,
      "d": 48.780399999999645,
      "v": 97
    },
    {
      "midi": 76,
      "hit": false,
      "t": 32368.8441749999,
      "d": 48.780399999999645,
      "v": 99
    },
    {
      "midi": 84,
      "hit": false,
      "t": 32371.8929499999,
      "d": 51.82917499999894,
      "v": 113
    },
    {
      "midi": 74,
      "hit": false,
      "t": 32560.9169999999,
      "d": 51.82917499999894,
      "v": 96
    },
    {
      "midi": 86,
      "hit": false,
      "t": 32560.9169999999,
      "d": 51.82917499999894,
      "v": 117
    },
    {
      "midi": 52,
      "hit": false,
      "t": 32560.916999999998,
      "d": 51.82917500000258,
      "v": 83
    },
    {
      "midi": 60,
      "hit": false,
      "t": 32563.9657749999,
      "d": 48.780399999999645,
      "v": 65
    },
    {
      "midi": 77,
      "hit": false,
      "t": 32563.9657749999,
      "d": 51.82917499999894,
      "v": 105
    },
    {
      "midi": 55,
      "hit": false,
      "t": 32570.063325,
      "d": 51.82917500000258,
      "v": 62
    },
    {
      "midi": 88,
      "hit": false,
      "t": 32743.843499999897,
      "d": 131.09732499999882,
      "v": 119
    },
    {
      "midi": 79,
      "hit": false,
      "t": 32746.892274999896,
      "d": 51.82917499999894,
      "v": 112
    },
    {
      "midi": 76,
      "hit": false,
      "t": 32746.892274999896,
      "d": 152.43875000000116,
      "v": 99
    },
    {
      "midi": 79,
      "hit": false,
      "t": 32841.40429999989,
      "d": 51.82917500000622,
      "v": 60
    },
    {
      "midi": 43,
      "hit": false,
      "t": 32926.77,
      "d": 54.877950000001874,
      "v": 87
    },
    {
      "midi": 71,
      "hit": false,
      "t": 33094.452624999896,
      "d": 54.87795000000915,
      "v": 90
    },
    {
      "midi": 83,
      "hit": false,
      "t": 33094.452624999896,
      "d": 54.87795000000915,
      "v": 104
    },
    {
      "midi": 74,
      "hit": false,
      "t": 33097.5013999999,
      "d": 48.78040000000328,
      "v": 95
    },
    {
      "midi": 86,
      "hit": false,
      "t": 33292.62299999991,
      "d": 106.70712500000809,
      "v": 122
    },
    {
      "midi": 53,
      "hit": false,
      "t": 33292.623,
      "d": 82.31692500000645,
      "v": 80
    },
    {
      "midi": 77,
      "hit": false,
      "t": 33295.671774999915,
      "d": 48.78040000000328,
      "v": 108
    },
    {
      "midi": 74,
      "hit": false,
      "t": 33295.671774999915,
      "d": 131.09732500000246,
      "v": 100
    },
    {
      "midi": 59,
      "hit": false,
      "t": 33295.671775,
      "d": 100.60957500000222,
      "v": 67
    },
    {
      "midi": 55,
      "hit": false,
      "t": 33295.671775,
      "d": 103.65835000000516,
      "v": 80
    },
    {
      "midi": 84,
      "hit": false,
      "t": 33658.47599999992,
      "d": 731.7059999999983,
      "v": 111
    },
    {
      "midi": 48,
      "hit": false,
      "t": 33664.57355000001,
      "d": 57.92672499999753,
      "v": 80
    },
    {
      "midi": 72,
      "hit": false,
      "t": 33667.622324999924,
      "d": 740.8523249999998,
      "v": 88
    },
    {
      "midi": 76,
      "hit": false,
      "t": 33667.622324999924,
      "d": 743.9011000000028,
      "v": 94
    },
    {
      "midi": 52,
      "hit": false,
      "t": 34024.329000000005,
      "d": 85.36570000000211,
      "v": 72
    },
    {
      "midi": 55,
      "hit": false,
      "t": 34030.426550000004,
      "d": 70.12182500000199,
      "v": 74
    },
    {
      "midi": 60,
      "hit": false,
      "t": 34036.52409999992,
      "d": 73.17059999999765,
      "v": 65
    },
    {
      "midi": 52,
      "hit": false,
      "t": 34445.05995000001,
      "d": 48.78040000000328,
      "v": 1
    },
    {
      "midi": 60,
      "hit": false,
      "t": 34448.108724999925,
      "d": 45.73162500000035,
      "v": 26
    },
    {
      "midi": 55,
      "hit": false,
      "t": 34454.20627500001,
      "d": 60.975500000000466,
      "v": 48
    },
    {
      "midi": 55,
      "hit": false,
      "t": 34756.03500000001,
      "d": 39.63407500000176,
      "v": 56
    },
    {
      "midi": 62,
      "hit": false,
      "t": 34759.08377499993,
      "d": 121.95100000000093,
      "v": 53
    },
    {
      "midi": 59,
      "hit": false,
      "t": 34771.27887500001,
      "d": 48.78040000000328,
      "v": 51
    },
    {
      "midi": 63,
      "hit": false,
      "t": 34935.91272499993,
      "d": 149.38997499999823,
      "v": 54
    },
    {
      "midi": 64,
      "hit": false,
      "t": 35121.887999999926,
      "d": 155.4875250000041,
      "v": 63
    },
    {
      "midi": 48,
      "hit": false,
      "t": 35121.88800000001,
      "d": 76.21937500000058,
      "v": 67
    },
    {
      "midi": 72,
      "hit": false,
      "t": 35320.058374999935,
      "d": 317.0726000000068,
      "v": 69
    },
    {
      "midi": 52,
      "hit": false,
      "t": 35502.98487500001,
      "d": 67.07304999999906,
      "v": 64
    },
    {
      "midi": 60,
      "hit": false,
      "t": 35509.082424999935,
      "d": 54.877950000001874,
      "v": 60
    },
    {
      "midi": 55,
      "hit": false,
      "t": 35512.13120000001,
      "d": 60.975500000000466,
      "v": 62
    },
    {
      "midi": 64,
      "hit": false,
      "t": 35670.667499999945,
      "d": 176.8289500000028,
      "v": 65
    },
    {
      "midi": 43,
      "hit": false,
      "t": 35865.78910000001,
      "d": 67.07304999999906,
      "v": 76
    },
    {
      "midi": 72,
      "hit": false,
      "t": 35871.88664999995,
      "d": 329.26770000000397,
      "v": 92
    },
    {
      "midi": 55,
      "hit": false,
      "t": 35902.37440000001,
      "d": 45.73162500000035,
      "v": 32
    },
    {
      "midi": 64,
      "hit": false,
      "t": 36228.59332499996,
      "d": 134.1461000000054,
      "v": 75
    },
    {
      "midi": 58,
      "hit": false,
      "t": 36237.73965000001,
      "d": 54.877950000001874,
      "v": 53
    },
    {
      "midi": 55,
      "hit": false,
      "t": 36240.78842500001,
      "d": 54.877950000001874,
      "v": 69
    },
    {
      "midi": 60,
      "hit": false,
      "t": 36243.83719999996,
      "d": 54.877950000001874,
      "v": 48
    },
    {
      "midi": 72,
      "hit": false,
      "t": 36408.471049999964,
      "d": 899.3886249999996,
      "v": 94
    },
    {
      "midi": 41,
      "hit": false,
      "t": 36615.78775000002,
      "d": 76.21937500000058,
      "v": 77
    },
    {
      "midi": 53,
      "hit": false,
      "t": 36624.93407500002,
      "d": 70.12182500000199,
      "v": 61
    },
    {
      "midi": 57,
      "hit": false,
      "t": 36981.64075000002,
      "d": 48.78040000000328,
      "v": 72
    },
    {
      "midi": 60,
      "hit": false,
      "t": 36996.88462499996,
      "d": 51.82917499999894,
      "v": 56
    },
    {
      "midi": 40,
      "hit": false,
      "t": 37347.49375000002,
      "d": 70.12182499999471,
      "v": 80
    },
    {
      "midi": 52,
      "hit": false,
      "t": 37359.68885000002,
      "d": 57.92672499999753,
      "v": 71
    },
    {
      "midi": 81,
      "hit": false,
      "t": 37655.42002499996,
      "d": 67.07304999999906,
      "v": 104
    },
    {
      "midi": 39,
      "hit": false,
      "t": 37658.46880000002,
      "d": 82.31692499999917,
      "v": 73
    },
    {
      "midi": 51,
      "hit": false,
      "t": 37658.46880000002,
      "d": 82.31692499999917,
      "v": 76
    },
    {
      "midi": 69,
      "hit": false,
      "t": 37661.51757499996,
      "d": 57.92672499999753,
      "v": 85
    },
    {
      "midi": 72,
      "hit": false,
      "t": 37682.85899999996,
      "d": 51.82917499999894,
      "v": 69
    },
    {
      "midi": 67,
      "hit": false,
      "t": 37847.49284999996,
      "d": 54.877950000001874,
      "v": 92
    },
    {
      "midi": 79,
      "hit": false,
      "t": 37847.49284999996,
      "d": 60.975500000000466,
      "v": 107
    },
    {
      "midi": 66,
      "hit": false,
      "t": 38048.711999999956,
      "d": 45.73162500000035,
      "v": 80
    },
    {
      "midi": 78,
      "hit": false,
      "t": 38048.711999999956,
      "d": 54.877950000001874,
      "v": 90
    },
    {
      "midi": 38,
      "hit": false,
      "t": 38048.71200000001,
      "d": 36.585299999998824,
      "v": 96
    },
    {
      "midi": 50,
      "hit": false,
      "t": 38048.71200000001,
      "d": 48.78039999999601,
      "v": 75
    },
    {
      "midi": 81,
      "hit": false,
      "t": 38219.44339999996,
      "d": 54.8779499999946,
      "v": 113
    },
    {
      "midi": 69,
      "hit": false,
      "t": 38231.63849999996,
      "d": 54.8779499999946,
      "v": 59
    },
    {
      "midi": 60,
      "hit": false,
      "t": 38414.56499999995,
      "d": 97.56079999999929,
      "v": 79
    },
    {
      "midi": 57,
      "hit": false,
      "t": 38414.565,
      "d": 88.41447500000504,
      "v": 77
    },
    {
      "midi": 54,
      "hit": false,
      "t": 38417.613775000005,
      "d": 97.56079999999929,
      "v": 64
    },
    {
      "midi": 72,
      "hit": false,
      "t": 38420.66254999995,
      "d": 51.82917499999894,
      "v": 89
    },
    {
      "midi": 84,
      "hit": false,
      "t": 38420.66254999995,
      "d": 51.82917499999894,
      "v": 116
    },
    {
      "midi": 50,
      "hit": false,
      "t": 38423.711325000004,
      "d": 70.12182500000199,
      "v": 61
    },
    {
      "midi": 88,
      "hit": false,
      "t": 38594.44272499996,
      "d": 201.21915000000445,
      "v": 121
    },
    {
      "midi": 76,
      "hit": false,
      "t": 38597.49149999996,
      "d": 204.2679250000001,
      "v": 100
    },
    {
      "midi": 50,
      "hit": false,
      "t": 38780.418000000005,
      "d": 143.29242499999964,
      "v": 87
    },
    {
      "midi": 74,
      "hit": false,
      "t": 38963.34449999996,
      "d": 57.92672499999753,
      "v": 96
    },
    {
      "midi": 86,
      "hit": false,
      "t": 38963.34449999996,
      "d": 64.02427499999612,
      "v": 112
    },
    {
      "midi": 84,
      "hit": false,
      "t": 39146.27099999996,
      "d": 51.82917500000622,
      "v": 114
    },
    {
      "midi": 54,
      "hit": false,
      "t": 39146.27100000001,
      "d": 85.36570000000938,
      "v": 57
    },
    {
      "midi": 72,
      "hit": false,
      "t": 39149.31977499996,
      "d": 51.82917500000622,
      "v": 92
    },
    {
      "midi": 60,
      "hit": false,
      "t": 39149.31977499996,
      "d": 60.97550000000774,
      "v": 63
    },
    {
      "midi": 57,
      "hit": false,
      "t": 39149.31977500001,
      "d": 94.51202500000363,
      "v": 65
    },
    {
      "midi": 81,
      "hit": false,
      "t": 39307.85607499997,
      "d": 51.82917499999894,
      "v": 106
    },
    {
      "midi": 69,
      "hit": false,
      "t": 39313.953624999966,
      "d": 51.82917499999894,
      "v": 72
    },
    {
      "midi": 86,
      "hit": false,
      "t": 39512.12399999997,
      "d": 731.7059999999983,
      "v": 108
    },
    {
      "midi": 77,
      "hit": false,
      "t": 39512.12399999997,
      "d": 753.047424999997,
      "v": 96
    },
    {
      "midi": 74,
      "hit": false,
      "t": 39515.17277499997,
      "d": 768.2912999999971,
      "v": 87
    },
    {
      "midi": 55,
      "hit": false,
      "t": 39521.27032500001,
      "d": 45.73162500000035,
      "v": 81
    },
    {
      "midi": 59,
      "hit": false,
      "t": 39527.36787500001,
      "d": 45.73162500000035,
      "v": 69
    },
    {
      "midi": 43,
      "hit": false,
      "t": 39877.97700000001,
      "d": 85.36570000000211,
      "v": 70
    },
    {
      "midi": 55,
      "hit": false,
      "t": 39881.02577500002,
      "d": 103.65834999999788,
      "v": 68
    },
    {
      "midi": 45,
      "hit": false,
      "t": 40243.83000000001,
      "d": 48.78040000000328,
      "v": 63
    },
    {
      "midi": 57,
      "hit": false,
      "t": 40262.12265000001,
      "d": 70.12182500000199,
      "v": 52
    },
    {
      "midi": 47,
      "hit": false,
      "t": 40597.487900000015,
      "d": 64.0242750000034,
      "v": 71
    },
    {
      "midi": 59,
      "hit": false,
      "t": 40609.68300000001,
      "d": 82.31692500000645,
      "v": 53
    },
    {
      "midi": 62,
      "hit": false,
      "t": 40631.02442499997,
      "d": 112.8046749999994,
      "v": 55
    },
    {
      "midi": 63,
      "hit": false,
      "t": 40795.658274999965,
      "d": 109.75589999999647,
      "v": 65
    },
    {
      "midi": 64,
      "hit": false,
      "t": 40975.535999999964,
      "d": 140.2436499999967,
      "v": 59
    },
    {
      "midi": 48,
      "hit": false,
      "t": 40975.53600000002,
      "d": 94.51202499999636,
      "v": 59
    },
    {
      "midi": 72,
      "hit": false,
      "t": 41161.51127499996,
      "d": 329.2676999999967,
      "v": 64
    },
    {
      "midi": 60,
      "hit": false,
      "t": 41353.58409999996,
      "d": 64.0242750000034,
      "v": 49
    },
    {
      "midi": 55,
      "hit": false,
      "t": 41356.632875000025,
      "d": 51.82917499999894,
      "v": 51
    },
    {
      "midi": 52,
      "hit": false,
      "t": 41362.73042500002,
      "d": 64.0242750000034,
      "v": 69
    },
    {
      "midi": 64,
      "hit": false,
      "t": 41554.80324999996,
      "d": 152.43875000000116,
      "v": 49
    },
    {
      "midi": 43,
      "hit": false,
      "t": 41743.827300000026,
      "d": 64.0242750000034,
      "v": 56
    },
    {
      "midi": 72,
      "hit": false,
      "t": 41765.16872499996,
      "d": 292.68240000000515,
      "v": 60
    },
    {
      "midi": 55,
      "hit": false,
      "t": 41783.46137500003,
      "d": 48.78040000000328,
      "v": 34
    },
    {
      "midi": 64,
      "hit": false,
      "t": 42100.53397499996,
      "d": 112.8046749999994,
      "v": 54
    },
    {
      "midi": 60,
      "hit": false,
      "t": 42118.826624999965,
      "d": 51.82917499999894,
      "v": 37
    },
    {
      "midi": 55,
      "hit": false,
      "t": 42121.87540000004,
      "d": 48.78040000000328,
      "v": 52
    },
    {
      "midi": 58,
      "hit": false,
      "t": 42131.02172500004,
      "d": 45.73162500000035,
      "v": 21
    },
    {
      "midi": 72,
      "hit": false,
      "t": 42262.11904999996,
      "d": 728.6572250000027,
      "v": 80
    },
    {
      "midi": 41,
      "hit": false,
      "t": 42460.28942500004,
      "d": 51.82917499999894,
      "v": 50
    },
    {
      "midi": 53,
      "hit": false,
      "t": 42469.43575000004,
      "d": 51.82917499999894,
      "v": 50
    },
    {
      "midi": 60,
      "hit": false,
      "t": 42847.48384999996,
      "d": 45.73162500000035,
      "v": 55
    },
    {
      "midi": 57,
      "hit": false,
      "t": 42853.58140000004,
      "d": 45.73162500000035,
      "v": 52
    },
    {
      "midi": 40,
      "hit": false,
      "t": 43161.50767500004,
      "d": 57.92672500000481,
      "v": 80
    },
    {
      "midi": 52,
      "hit": false,
      "t": 43170.65400000004,
      "d": 54.877950000001874,
      "v": 68
    },
    {
      "midi": 84,
      "hit": false,
      "t": 43350.53172499996,
      "d": 51.82917500000622,
      "v": 87
    },
    {
      "midi": 72,
      "hit": false,
      "t": 43350.53172499996,
      "d": 54.87795000000915,
      "v": 69
    },
    {
      "midi": 76,
      "hit": false,
      "t": 43359.67804999996,
      "d": 54.87795000000915,
      "v": 70
    },
    {
      "midi": 60,
      "hit": false,
      "t": 43536.50699999997,
      "d": 54.87795000000915,
      "v": 65
    },
    {
      "midi": 55,
      "hit": false,
      "t": 43539.555775000044,
      "d": 54.877950000001874,
      "v": 79
    },
    {
      "midi": 86,
      "hit": false,
      "t": 43551.75087499997,
      "d": 54.87795000000915,
      "v": 105
    },
    {
      "midi": 77,
      "hit": false,
      "t": 43554.79964999997,
      "d": 54.87795000000915,
      "v": 87
    },
    {
      "midi": 74,
      "hit": false,
      "t": 43557.848424999975,
      "d": 54.87795000000915,
      "v": 59
    },
    {
      "midi": 87,
      "hit": false,
      "t": 43722.48227499998,
      "d": 54.877950000001874,
      "v": 106
    },
    {
      "midi": 78,
      "hit": false,
      "t": 43728.57982499998,
      "d": 54.877950000001874,
      "v": 69
    },
    {
      "midi": 75,
      "hit": false,
      "t": 43737.72614999998,
      "d": 51.82917499999894,
      "v": 60
    },
    {
      "midi": 88,
      "hit": false,
      "t": 43911.50632499998,
      "d": 51.82917499999894,
      "v": 115
    },
    {
      "midi": 43,
      "hit": false,
      "t": 43914.55510000005,
      "d": 51.82917499999894,
      "v": 88
    },
    {
      "midi": 76,
      "hit": false,
      "t": 43917.60387499998,
      "d": 51.82917499999894,
      "v": 84
    },
    {
      "midi": 79,
      "hit": false,
      "t": 43932.84774999998,
      "d": 48.78039999999601,
      "v": 70
    },
    {
      "midi": 76,
      "hit": false,
      "t": 44085.28649999997,
      "d": 48.78040000000328,
      "v": 101
    },
    {
      "midi": 84,
      "hit": false,
      "t": 44085.28649999997,
      "d": 48.78040000000328,
      "v": 113
    },
    {
      "midi": 72,
      "hit": false,
      "t": 44088.335274999976,
      "d": 48.78040000000328,
      "v": 96
    },
    {
      "midi": 52,
      "hit": false,
      "t": 44268.21300000005,
      "d": 48.78040000000328,
      "v": 85
    },
    {
      "midi": 55,
      "hit": false,
      "t": 44268.21300000005,
      "d": 48.78040000000328,
      "v": 75
    },
    {
      "midi": 60,
      "hit": false,
      "t": 44271.26177499998,
      "d": 51.82917499999894,
      "v": 64
    },
    {
      "midi": 74,
      "hit": false,
      "t": 44274.31054999998,
      "d": 51.82917499999894,
      "v": 99
    },
    {
      "midi": 86,
      "hit": false,
      "t": 44274.31054999998,
      "d": 51.82917499999894,
      "v": 117
    },
    {
      "midi": 77,
      "hit": false,
      "t": 44280.40809999998,
      "d": 51.82917499999894,
      "v": 105
    },
    {
      "midi": 88,
      "hit": false,
      "t": 44454.18827499998,
      "d": 143.29242499999964,
      "v": 120
    },
    {
      "midi": 79,
      "hit": false,
      "t": 44460.28582499998,
      "d": 131.09732500000246,
      "v": 112
    },
    {
      "midi": 76,
      "hit": false,
      "t": 44460.28582499998,
      "d": 146.34120000000257,
      "v": 97
    },
    {
      "midi": 43,
      "hit": false,
      "t": 44634.06600000005,
      "d": 48.78040000000328,
      "v": 90
    },
    {
      "midi": 83,
      "hit": false,
      "t": 44801.74862499998,
      "d": 48.78040000000328,
      "v": 106
    },
    {
      "midi": 71,
      "hit": false,
      "t": 44804.79739999998,
      "d": 48.78040000000328,
      "v": 62
    },
    {
      "midi": 74,
      "hit": false,
      "t": 44829.18759999998,
      "d": 48.78040000000328,
      "v": 1
    },
    {
      "midi": 86,
      "hit": false,
      "t": 44987.72389999998,
      "d": 115.85345000000962,
      "v": 117
    },
    {
      "midi": 53,
      "hit": false,
      "t": 44987.723900000055,
      "d": 76.21937500000058,
      "v": 72
    },
    {
      "midi": 55,
      "hit": false,
      "t": 44990.77267500006,
      "d": 79.26814999999624,
      "v": 69
    },
    {
      "midi": 77,
      "hit": false,
      "t": 44996.870224999984,
      "d": 103.65835000000516,
      "v": 98
    },
    {
      "midi": 74,
      "hit": false,
      "t": 44999.91899999999,
      "d": 121.95100000000821,
      "v": 84
    },
    {
      "midi": 76,
      "hit": false,
      "t": 45365.77199999999,
      "d": 899.3886250000069,
      "v": 84
    },
    {
      "midi": 84,
      "hit": false,
      "t": 45365.77199999999,
      "d": 911.583725000004,
      "v": 110
    },
    {
      "midi": 72,
      "hit": false,
      "t": 45365.77199999999,
      "d": 920.7300500000056,
      "v": 80
    },
    {
      "midi": 48,
      "hit": false,
      "t": 45365.77200000005,
      "d": 39.63407500000176,
      "v": 80
    },
    {
      "midi": 60,
      "hit": false,
      "t": 45725.52744999999,
      "d": 64.0242750000034,
      "v": 86
    },
    {
      "midi": 52,
      "hit": false,
      "t": 45725.527450000045,
      "d": 51.82917499999894,
      "v": 88
    },
    {
      "midi": 55,
      "hit": false,
      "t": 45731.625000000044,
      "d": 48.78040000000328,
      "v": 78
    },
    {
      "midi": 64,
      "hit": false,
      "t": 46097.477999999996,
      "d": 54.877950000001874,
      "v": 78
    },
    {
      "midi": 55,
      "hit": false,
      "t": 46103.575550000045,
      "d": 57.92672499999753,
      "v": 76
    },
    {
      "midi": 60,
      "hit": false,
      "t": 46106.624325,
      "d": 57.92672499999753,
      "v": 76
    },
    {
      "midi": 84,
      "hit": false,
      "t": 46551.745474999996,
      "d": 39.634075000009034,
      "v": 80
    },
    {
      "midi": 72,
      "hit": false,
      "t": 46554.79425,
      "d": 33.53652500000317,
      "v": 56
    },
    {
      "midi": 74,
      "hit": false,
      "t": 46691.98912500001,
      "d": 33.53652500000317,
      "v": 70
    },
    {
      "midi": 86,
      "hit": false,
      "t": 46691.98912500001,
      "d": 36.5853000000061,
      "v": 78
    },
    {
      "midi": 48,
      "hit": false,
      "t": 46829.18400000004,
      "d": 45.73162500000035,
      "v": 69
    },
    {
      "midi": 88,
      "hit": false,
      "t": 46838.33032500001,
      "d": 48.78040000000328,
      "v": 79
    },
    {
      "midi": 76,
      "hit": false,
      "t": 46841.37910000001,
      "d": 48.78040000000328,
      "v": 69
    },
    {
      "midi": 60,
      "hit": false,
      "t": 46853.57420000001,
      "d": 48.78040000000328,
      "v": 46
    },
    {
      "midi": 84,
      "hit": false,
      "t": 47027.35437500001,
      "d": 45.73162500000035,
      "v": 81
    },
    {
      "midi": 72,
      "hit": false,
      "t": 47033.45192500001,
      "d": 45.731625000007625,
      "v": 67
    },
    {
      "midi": 74,
      "hit": false,
      "t": 47195.03700000002,
      "d": 48.78040000001056,
      "v": 75
    },
    {
      "midi": 86,
      "hit": false,
      "t": 47198.08577500002,
      "d": 45.731625000007625,
      "v": 81
    },
    {
      "midi": 64,
      "hit": false,
      "t": 47201.134550000024,
      "d": 51.82917500000622,
      "v": 49
    },
    {
      "midi": 55,
      "hit": false,
      "t": 47207.23210000003,
      "d": 51.82917499999894,
      "v": 55
    },
    {
      "midi": 60,
      "hit": false,
      "t": 47210.280875000026,
      "d": 51.82917500000622,
      "v": 32
    },
    {
      "midi": 88,
      "hit": false,
      "t": 47371.86595000003,
      "d": 131.09732500000246,
      "v": 96
    },
    {
      "midi": 76,
      "hit": false,
      "t": 47377.96350000003,
      "d": 137.19487500000105,
      "v": 78
    },
    {
      "midi": 46,
      "hit": false,
      "t": 47548.69490000003,
      "d": 51.82917499999894,
      "v": 55
    },
    {
      "midi": 58,
      "hit": false,
      "t": 47560.89000000003,
      "d": 54.877950000001874,
      "v": 48
    },
    {
      "midi": 72,
      "hit": false,
      "t": 47737.71895000003,
      "d": 51.82917499999894,
      "v": 62
    },
    {
      "midi": 84,
      "hit": false,
      "t": 47737.71895000003,
      "d": 54.877950000001874,
      "v": 89
    },
    {
      "midi": 64,
      "hit": false,
      "t": 47914.54790000003,
      "d": 51.82917500000622,
      "v": 61
    },
    {
      "midi": 55,
      "hit": false,
      "t": 47914.54790000003,
      "d": 54.877950000001874,
      "v": 74
    },
    {
      "midi": 86,
      "hit": false,
      "t": 47917.59667500003,
      "d": 54.877950000001874,
      "v": 100
    },
    {
      "midi": 74,
      "hit": false,
      "t": 47923.69422500003,
      "d": 54.87795000000915,
      "v": 83
    },
    {
      "midi": 60,
      "hit": false,
      "t": 47926.74300000003,
      "d": 48.78040000000328,
      "v": 59
    },
    {
      "midi": 84,
      "hit": false,
      "t": 48106.62072500004,
      "d": 51.82917500000622,
      "v": 72
    },
    {
      "midi": 72,
      "hit": false,
      "t": 48109.66950000004,
      "d": 51.82917500000622,
      "v": 75
    },
    {
      "midi": 45,
      "hit": false,
      "t": 48292.59600000003,
      "d": 33.53652500000317,
      "v": 77
    },
    {
      "midi": 76,
      "hit": false,
      "t": 48292.59600000004,
      "d": 48.78040000000328,
      "v": 81
    },
    {
      "midi": 88,
      "hit": false,
      "t": 48292.59600000004,
      "d": 48.78040000000328,
      "v": 90
    },
    {
      "midi": 57,
      "hit": false,
      "t": 48323.08375000003,
      "d": 51.82917500000622,
      "v": 30
    },
    {
      "midi": 84,
      "hit": false,
      "t": 48466.37617500004,
      "d": 51.82917500000622,
      "v": 98
    },
    {
      "midi": 72,
      "hit": false,
      "t": 48469.424950000044,
      "d": 48.78040000000328,
      "v": 84
    },
    {
      "midi": 65,
      "hit": false,
      "t": 48637.10757500005,
      "d": 67.07304999999906,
      "v": 74
    },
    {
      "midi": 57,
      "hit": false,
      "t": 48640.156350000034,
      "d": 73.17060000000492,
      "v": 72
    },
    {
      "midi": 60,
      "hit": false,
      "t": 48640.156350000056,
      "d": 73.17059999999765,
      "v": 73
    },
    {
      "midi": 86,
      "hit": false,
      "t": 48652.35145000005,
      "d": 57.92672499999753,
      "v": 69
    },
    {
      "midi": 74,
      "hit": false,
      "t": 48658.44900000005,
      "d": 51.82917499999894,
      "v": 58
    },
    {
      "midi": 72,
      "hit": false,
      "t": 48658.44900000005,
      "d": 57.92672500000481,
      "v": 56
    },
    {
      "midi": 84,
      "hit": false,
      "t": 48664.54655000005,
      "d": 54.87795000000915,
      "v": 68
    },
    {
      "midi": 88,
      "hit": false,
      "t": 48844.424275000056,
      "d": 158.53629999999976,
      "v": 99
    },
    {
      "midi": 76,
      "hit": false,
      "t": 48844.424275000056,
      "d": 167.68262500000128,
      "v": 87
    },
    {
      "midi": 44,
      "hit": false,
      "t": 49006.00935000004,
      "d": 54.877950000001874,
      "v": 84
    },
    {
      "midi": 56,
      "hit": false,
      "t": 49024.30200000004,
      "d": 54.877950000001874,
      "v": 62
    },
    {
      "midi": 72,
      "hit": false,
      "t": 49191.984625000056,
      "d": 54.877950000001874,
      "v": 90
    },
    {
      "midi": 84,
      "hit": false,
      "t": 49191.984625000056,
      "d": 57.92672500000481,
      "v": 101
    },
    {
      "midi": 65,
      "hit": false,
      "t": 49365.76480000006,
      "d": 51.82917499999894,
      "v": 67
    },
    {
      "midi": 60,
      "hit": false,
      "t": 49371.86235000006,
      "d": 51.82917499999894,
      "v": 79
    },
    {
      "midi": 56,
      "hit": false,
      "t": 49374.91112500004,
      "d": 60.975500000000466,
      "v": 67
    },
    {
      "midi": 74,
      "hit": false,
      "t": 49384.057450000066,
      "d": 51.829174999991665,
      "v": 69
    },
    {
      "midi": 86,
      "hit": false,
      "t": 49390.155000000064,
      "d": 48.78039999999601,
      "v": 93
    },
    {
      "midi": 84,
      "hit": false,
      "t": 49551.74007500006,
      "d": 51.82917499999894,
      "v": 92
    },
    {
      "midi": 72,
      "hit": false,
      "t": 49557.83762500006,
      "d": 48.78040000000328,
      "v": 72
    },
    {
      "midi": 88,
      "hit": false,
      "t": 49756.00800000007,
      "d": 45.731625000007625,
      "v": 114
    },
    {
      "midi": 76,
      "hit": false,
      "t": 49756.00800000007,
      "d": 51.82917500000622,
      "v": 90
    },
    {
      "midi": 43,
      "hit": false,
      "t": 49759.05677500004,
      "d": 51.82917499999894,
      "v": 82
    },
    {
      "midi": 79,
      "hit": false,
      "t": 49759.05677500007,
      "d": 48.78040000000328,
      "v": 103
    },
    {
      "midi": 55,
      "hit": false,
      "t": 49765.15432500004,
      "d": 57.92672499999753,
      "v": 79
    },
    {
      "midi": 84,
      "hit": false,
      "t": 49932.83695000007,
      "d": 51.82917499999894,
      "v": 111
    },
    {
      "midi": 72,
      "hit": false,
      "t": 49938.93450000007,
      "d": 48.78040000000328,
      "v": 90
    },
    {
      "midi": 76,
      "hit": false,
      "t": 49945.03205000007,
      "d": 48.78040000000328,
      "v": 67
    },
    {
      "midi": 77,
      "hit": false,
      "t": 49963.32470000007,
      "d": 51.82917499999894,
      "v": 32
    },
    {
      "midi": 64,
      "hit": false,
      "t": 50121.86100000007,
      "d": 54.877950000001874,
      "v": 77
    },
    {
      "midi": 60,
      "hit": false,
      "t": 50131.00732500007,
      "d": 57.92672499999753,
      "v": 70
    },
    {
      "midi": 74,
      "hit": false,
      "t": 50131.00732500007,
      "d": 57.92672499999753,
      "v": 92
    },
    {
      "midi": 55,
      "hit": false,
      "t": 50134.05610000004,
      "d": 54.877950000001874,
      "v": 78
    },
    {
      "midi": 77,
      "hit": false,
      "t": 50134.056100000074,
      "d": 54.8779499999946,
      "v": 94
    },
    {
      "midi": 86,
      "hit": false,
      "t": 50134.056100000074,
      "d": 54.8779499999946,
      "v": 118
    },
    {
      "midi": 88,
      "hit": false,
      "t": 50332.22647500007,
      "d": 152.43875000000116,
      "v": 117
    },
    {
      "midi": 79,
      "hit": false,
      "t": 50341.37280000007,
      "d": 60.975500000000466,
      "v": 100
    },
    {
      "midi": 76,
      "hit": false,
      "t": 50341.37280000007,
      "d": 158.53629999999976,
      "v": 93
    },
    {
      "midi": 79,
      "hit": false,
      "t": 50463.32380000007,
      "d": 48.78039999999601,
      "v": 30
    },
    {
      "midi": 43,
      "hit": false,
      "t": 50533.44562500004,
      "d": 45.73162500000035,
      "v": 84
    },
    {
      "midi": 55,
      "hit": false,
      "t": 50539.543175000035,
      "d": 48.78040000000328,
      "v": 84
    },
    {
      "midi": 71,
      "hit": false,
      "t": 50670.64050000007,
      "d": 42.68285000000469,
      "v": 88
    },
    {
      "midi": 83,
      "hit": false,
      "t": 50670.64050000007,
      "d": 45.731625000007625,
      "v": 98
    },
    {
      "midi": 74,
      "hit": false,
      "t": 50673.68927500007,
      "d": 39.63407500000176,
      "v": 92
    },
    {
      "midi": 55,
      "hit": false,
      "t": 50853.56700000004,
      "d": 67.07304999999906,
      "v": 84
    },
    {
      "midi": 59,
      "hit": false,
      "t": 50859.66455000004,
      "d": 57.92672499999753,
      "v": 66
    },
    {
      "midi": 86,
      "hit": false,
      "t": 50862.71332500008,
      "d": 45.73162499999307,
      "v": 84
    },
    {
      "midi": 74,
      "hit": false,
      "t": 50868.810875000076,
      "d": 45.73162499999307,
      "v": 41
    },
    {
      "midi": 77,
      "hit": false,
      "t": 50874.908425000074,
      "d": 45.73162499999307,
      "v": 41
    },
    {
      "midi": 79,
      "hit": false,
      "t": 50881.00597500007,
      "d": 48.78039999999601,
      "v": 40
    },
    {
      "midi": 55,
      "hit": false,
      "t": 51219.420000000035,
      "d": 45.73162500000035,
      "v": 70
    },
    {
      "midi": 48,
      "hit": false,
      "t": 51219.420000000035,
      "d": 48.78040000000328,
      "v": 72
    },
    {
      "midi": 60,
      "hit": false,
      "t": 51219.42000000007,
      "d": 42.682849999997416,
      "v": 76
    },
    {
      "midi": 76,
      "hit": false,
      "t": 51219.42000000007,
      "d": 594.5111249999973,
      "v": 86
    },
    {
      "midi": 84,
      "hit": false,
      "t": 51219.42000000007,
      "d": 600.6086749999959,
      "v": 102
    },
    {
      "midi": 72,
      "hit": false,
      "t": 51219.42000000007,
      "d": 609.7549999999974,
      "v": 82
    },
    {
      "midi": 43,
      "hit": false,
      "t": 51585.273000000045,
      "d": 39.63407500000176,
      "v": 73
    },
    {
      "midi": 55,
      "hit": false,
      "t": 51585.273000000045,
      "d": 39.63407500000176,
      "v": 77
    },
    {
      "midi": 36,
      "hit": false,
      "t": 51951.12600000005,
      "d": 42.68285000000469,
      "v": 79
    },
    {
      "midi": 48,
      "hit": false,
      "t": 51960.27232500005,
      "d": 45.73162500000035,
      "v": 58
    },
    {
      "midi": 76,
      "hit": false,
      "t": 52158.442700000065,
      "d": 76.21937500000786,
      "v": 94
    },
    {
      "midi": 64,
      "hit": false,
      "t": 52161.49147500007,
      "d": 45.73162500000035,
      "v": 82
    },
    {
      "midi": 72,
      "hit": false,
      "t": 52167.58902500007,
      "d": 42.68285000000469,
      "v": 77
    },
    {
      "midi": 77,
      "hit": false,
      "t": 52316.97900000007,
      "d": 45.73162500000035,
      "v": 102
    },
    {
      "midi": 65,
      "hit": false,
      "t": 52323.07655000007,
      "d": 48.78040000000328,
      "v": 74
    },
    {
      "midi": 66,
      "hit": false,
      "t": 52478.564075000075,
      "d": 51.82917499999894,
      "v": 87
    },
    {
      "midi": 78,
      "hit": false,
      "t": 52478.564075000075,
      "d": 100.60957500000222,
      "v": 95
    },
    {
      "midi": 79,
      "hit": false,
      "t": 52682.832000000075,
      "d": 67.07305000000633,
      "v": 108
    },
    {
      "midi": 67,
      "hit": false,
      "t": 52685.88077500008,
      "d": 51.82917499999894,
      "v": 98
    },
    {
      "midi": 76,
      "hit": false,
      "t": 52691.97832500008,
      "d": 48.78040000000328,
      "v": 82
    },
    {
      "midi": 36,
      "hit": false,
      "t": 52701.12465000005,
      "d": 48.78040000000328,
      "v": 88
    },
    {
      "midi": 48,
      "hit": false,
      "t": 52707.22220000005,
      "d": 48.78040000000328,
      "v": 79
    },
    {
      "midi": 78,
      "hit": false,
      "t": 52841.36830000008,
      "d": 48.78040000000328,
      "v": 40
    },
    {
      "midi": 81,
      "hit": false,
      "t": 53036.48990000009,
      "d": 57.92672499999753,
      "v": 101
    },
    {
      "midi": 69,
      "hit": false,
      "t": 53048.685000000085,
      "d": 51.82917499999894,
      "v": 96
    },
    {
      "midi": 55,
      "hit": false,
      "t": 53054.78255000005,
      "d": 45.73162500000035,
      "v": 85
    },
    {
      "midi": 60,
      "hit": false,
      "t": 53054.78255000008,
      "d": 51.82917500000622,
      "v": 84
    },
    {
      "midi": 64,
      "hit": false,
      "t": 53057.83132500009,
      "d": 45.73162500000035,
      "v": 68
    },
    {
      "midi": 79,
      "hit": false,
      "t": 53219.41640000009,
      "d": 185.97527500000433,
      "v": 102
    },
    {
      "midi": 76,
      "hit": false,
      "t": 53222.46517500009,
      "d": 185.97527500000433,
      "v": 97
    },
    {
      "midi": 67,
      "hit": false,
      "t": 53228.56272500009,
      "d": 158.53629999999976,
      "v": 89
    },
    {
      "midi": 43,
      "hit": false,
      "t": 53414.53800000005,
      "d": 51.82917499999894,
      "v": 84
    },
    {
      "midi": 76,
      "hit": false,
      "t": 53551.732875000096,
      "d": 82.31692500001373,
      "v": 100
    },
    {
      "midi": 72,
      "hit": false,
      "t": 53560.8792000001,
      "d": 54.87795000000915,
      "v": 90
    },
    {
      "midi": 73,
      "hit": false,
      "t": 53576.1230750001,
      "d": 54.87795000000915,
      "v": 1
    },
    {
      "midi": 64,
      "hit": false,
      "t": 53579.1718500001,
      "d": 54.87795000000915,
      "v": 40
    },
    {
      "midi": 65,
      "hit": false,
      "t": 53597.464500000104,
      "d": 57.92672500000481,
      "v": 1
    },
    {
      "midi": 65,
      "hit": false,
      "t": 53737.70815000011,
      "d": 54.877950000001874,
      "v": 91
    },
    {
      "midi": 77,
      "hit": false,
      "t": 53737.70815000011,
      "d": 57.92672500000481,
      "v": 97
    },
    {
      "midi": 55,
      "hit": false,
      "t": 53743.80570000005,
      "d": 54.8779499999946,
      "v": 82
    },
    {
      "midi": 64,
      "hit": false,
      "t": 53743.805700000106,
      "d": 54.87795000000915,
      "v": 78
    },
    {
      "midi": 60,
      "hit": false,
      "t": 53746.85447500011,
      "d": 57.92672500000481,
      "v": 86
    },
    {
      "midi": 73,
      "hit": false,
      "t": 53780.39100000011,
      "d": 51.82917499999894,
      "v": 1
    },
    {
      "midi": 78,
      "hit": false,
      "t": 53926.732200000115,
      "d": 88.41447500000504,
      "v": 99
    },
    {
      "midi": 66,
      "hit": false,
      "t": 53929.78097500012,
      "d": 54.877950000001874,
      "v": 91
    },
    {
      "midi": 48,
      "hit": false,
      "t": 54146.24400000004,
      "d": 51.82917499999894,
      "v": 87
    },
    {
      "midi": 67,
      "hit": false,
      "t": 54146.244000000115,
      "d": 48.78040000000328,
      "v": 96
    },
    {
      "midi": 76,
      "hit": false,
      "t": 54146.244000000115,
      "d": 51.82917500000622,
      "v": 89
    },
    {
      "midi": 79,
      "hit": false,
      "t": 54146.244000000115,
      "d": 54.87795000000915,
      "v": 102
    },
    {
      "midi": 81,
      "hit": false,
      "t": 54478.56047500013,
      "d": 67.07305000000633,
      "v": 102
    },
    {
      "midi": 69,
      "hit": false,
      "t": 54484.65802500013,
      "d": 64.02427500001068,
      "v": 87
    },
    {
      "midi": 55,
      "hit": false,
      "t": 54490.75557500004,
      "d": 54.877950000001874,
      "v": 76
    },
    {
      "midi": 76,
      "hit": false,
      "t": 54490.75557500013,
      "d": 51.82917500000622,
      "v": 79
    },
    {
      "midi": 60,
      "hit": false,
      "t": 54493.80435000013,
      "d": 51.82917500000622,
      "v": 78
    },
    {
      "midi": 64,
      "hit": false,
      "t": 54496.85312500013,
      "d": 51.82917500000622,
      "v": 66
    },
    {
      "midi": 79,
      "hit": false,
      "t": 54679.77962500014,
      "d": 231.7068999999974,
      "v": 96
    },
    {
      "midi": 67,
      "hit": false,
      "t": 54685.87717500014,
      "d": 201.21914999999717,
      "v": 90
    },
    {
      "midi": 76,
      "hit": false,
      "t": 54695.02350000014,
      "d": 198.17037499999424,
      "v": 81
    },
    {
      "midi": 43,
      "hit": false,
      "t": 54877.95000000003,
      "d": 45.73162500000035,
      "v": 80
    },
    {
      "midi": 76,
      "hit": false,
      "t": 55045.63262500014,
      "d": 222.56057500000315,
      "v": 82
    },
    {
      "midi": 72,
      "hit": false,
      "t": 55216.36402500013,
      "d": 137.19487500000105,
      "v": 79
    },
    {
      "midi": 64,
      "hit": false,
      "t": 55225.510350000135,
      "d": 54.877950000001874,
      "v": 62
    },
    {
      "midi": 55,
      "hit": false,
      "t": 55231.60790000003,
      "d": 54.877950000001874,
      "v": 72
    },
    {
      "midi": 60,
      "hit": false,
      "t": 55243.80300000014,
      "d": 51.82917499999894,
      "v": 60
    },
    {
      "midi": 67,
      "hit": false,
      "t": 55411.48562500013,
      "d": 146.34120000000257,
      "v": 72
    },
    {
      "midi": 41,
      "hit": false,
      "t": 55609.65600000003,
      "d": 45.73162500000035,
      "v": 69
    },
    {
      "midi": 69,
      "hit": false,
      "t": 55609.656000000134,
      "d": 170.73139999999694,
      "v": 75
    },
    {
      "midi": 71,
      "hit": false,
      "t": 55759.04597500013,
      "d": 112.8046749999994,
      "v": 67
    },
    {
      "midi": 72,
      "hit": false,
      "t": 55932.82615000013,
      "d": 149.3899750000055,
      "v": 66
    },
    {
      "midi": 57,
      "hit": false,
      "t": 55954.16757500003,
      "d": 54.877950000001874,
      "v": 35
    },
    {
      "midi": 65,
      "hit": false,
      "t": 55957.21635000013,
      "d": 54.877950000001874,
      "v": 43
    },
    {
      "midi": 60,
      "hit": false,
      "t": 55957.21635000013,
      "d": 57.92672500000481,
      "v": 57
    },
    {
      "midi": 74,
      "hit": false,
      "t": 56134.045300000136,
      "d": 152.43875000000116,
      "v": 66
    },
    {
      "midi": 76,
      "hit": false,
      "t": 56332.21567500014,
      "d": 234.75567500000034,
      "v": 67
    },
    {
      "midi": 53,
      "hit": false,
      "t": 56341.36200000003,
      "d": 48.78040000000328,
      "v": 53
    },
    {
      "midi": 74,
      "hit": false,
      "t": 56505.99585000014,
      "d": 137.19487500000105,
      "v": 62
    },
    {
      "midi": 56,
      "hit": false,
      "t": 56679.776025000036,
      "d": 57.92672500000481,
      "v": 52
    },
    {
      "midi": 72,
      "hit": false,
      "t": 56685.873575000136,
      "d": 121.95100000000821,
      "v": 59
    },
    {
      "midi": 65,
      "hit": false,
      "t": 56688.92235000014,
      "d": 54.877950000001874,
      "v": 37
    },
    {
      "midi": 60,
      "hit": false,
      "t": 56707.21500000014,
      "d": 54.877950000001874,
      "v": 30
    },
    {
      "midi": 74,
      "hit": false,
      "t": 56859.65375000014,
      "d": 128.04854999999952,
      "v": 59
    },
    {
      "midi": 52,
      "hit": false,
      "t": 57073.06800000004,
      "d": 45.73162500000035,
      "v": 53
    },
    {
      "midi": 67,
      "hit": false,
      "t": 57073.068000000145,
      "d": 106.70712500000081,
      "v": 54
    },
    {
      "midi": 76,
      "hit": false,
      "t": 57231.604300000145,
      "d": 137.19487499999377,
      "v": 52
    },
    {
      "midi": 77,
      "hit": false,
      "t": 57411.482025000136,
      "d": 131.09732500000246,
      "v": 57
    },
    {
      "midi": 60,
      "hit": false,
      "t": 57432.823450000134,
      "d": 57.92672499999753,
      "v": 41
    },
    {
      "midi": 55,
      "hit": false,
      "t": 57438.92100000004,
      "d": 54.877950000001874,
      "v": 39
    },
    {
      "midi": 64,
      "hit": false,
      "t": 57438.92100000013,
      "d": 54.877950000001874,
      "v": 33
    },
    {
      "midi": 79,
      "hit": false,
      "t": 57603.55485000014,
      "d": 143.29242499999964,
      "v": 58
    },
    {
      "midi": 81,
      "hit": false,
      "t": 57783.43257500014,
      "d": 158.53629999999976,
      "v": 57
    },
    {
      "midi": 43,
      "hit": false,
      "t": 57804.77400000004,
      "d": 48.78040000000328,
      "v": 47
    },
    {
      "midi": 79,
      "hit": false,
      "t": 57945.01765000014,
      "d": 207.31669999999576,
      "v": 58
    },
    {
      "midi": 76,
      "hit": false,
      "t": 58164.52945000014,
      "d": 128.0485500000068,
      "v": 55
    },
    {
      "midi": 60,
      "hit": false,
      "t": 58167.57822500014,
      "d": 51.82917499999894,
      "v": 46
    },
    {
      "midi": 55,
      "hit": false,
      "t": 58170.627000000044,
      "d": 51.82917499999894,
      "v": 46
    },
    {
      "midi": 64,
      "hit": false,
      "t": 58176.724550000145,
      "d": 51.82917499999894,
      "v": 29
    },
    {
      "midi": 77,
      "hit": false,
      "t": 58323.06575000015,
      "d": 51.82917500000622,
      "v": 59
    },
    {
      "midi": 48,
      "hit": false,
      "t": 58536.48000000004,
      "d": 45.73162500000035,
      "v": 52
    },
    {
      "midi": 76,
      "hit": false,
      "t": 58536.480000000156,
      "d": 48.78040000000328,
      "v": 51
    },
    {
      "midi": 67,
      "hit": false,
      "t": 58536.480000000156,
      "d": 51.82917500000622,
      "v": 59
    },
    {
      "midi": 79,
      "hit": false,
      "t": 58536.480000000156,
      "d": 76.21937500000786,
      "v": 68
    },
    {
      "midi": 81,
      "hit": false,
      "t": 58887.089125000166,
      "d": 67.07305000001361,
      "v": 62
    },
    {
      "midi": 55,
      "hit": false,
      "t": 58893.18667500004,
      "d": 51.82917500000622,
      "v": 48
    },
    {
      "midi": 60,
      "hit": false,
      "t": 58896.23545000017,
      "d": 54.87795000000915,
      "v": 41
    },
    {
      "midi": 76,
      "hit": false,
      "t": 58896.23545000017,
      "d": 54.87795000000915,
      "v": 53
    },
    {
      "midi": 69,
      "hit": false,
      "t": 58899.28422500017,
      "d": 51.82917500000622,
      "v": 55
    },
    {
      "midi": 64,
      "hit": false,
      "t": 58902.33300000017,
      "d": 51.82917500000622,
      "v": 32
    },
    {
      "midi": 67,
      "hit": false,
      "t": 59100.50337500018,
      "d": 176.8289500000028,
      "v": 54
    },
    {
      "midi": 76,
      "hit": false,
      "t": 59100.50337500018,
      "d": 192.07282500000292,
      "v": 55
    },
    {
      "midi": 79,
      "hit": false,
      "t": 59100.50337500018,
      "d": 192.07282500000292,
      "v": 58
    },
    {
      "midi": 43,
      "hit": false,
      "t": 59268.186000000045,
      "d": 48.78040000000328,
      "v": 43
    },
    {
      "midi": 76,
      "hit": false,
      "t": 59451.112500000185,
      "d": 73.17059999999765,
      "v": 52
    },
    {
      "midi": 72,
      "hit": false,
      "t": 59460.258825000186,
      "d": 51.82917499999894,
      "v": 50
    },
    {
      "midi": 60,
      "hit": false,
      "t": 59606.60002500018,
      "d": 51.82917499999894,
      "v": 45
    },
    {
      "midi": 55,
      "hit": false,
      "t": 59609.648800000046,
      "d": 48.78040000000328,
      "v": 35
    },
    {
      "midi": 64,
      "hit": false,
      "t": 59612.69757500018,
      "d": 48.78040000000328,
      "v": 35
    },
    {
      "midi": 77,
      "hit": false,
      "t": 59618.79512500018,
      "d": 60.97550000000774,
      "v": 59
    },
    {
      "midi": 65,
      "hit": false,
      "t": 59634.03900000018,
      "d": 48.78040000001056,
      "v": 42
    },
    {
      "midi": 78,
      "hit": false,
      "t": 59780.38020000019,
      "d": 82.31692499999917,
      "v": 54
    },
    {
      "midi": 66,
      "hit": false,
      "t": 59786.47775000019,
      "d": 51.82917499999894,
      "v": 45
    },
    {
      "midi": 48,
      "hit": false,
      "t": 59999.89200000005,
      "d": 48.78040000000328,
      "v": 32
    },
    {
      "midi": 76,
      "hit": false,
      "t": 59999.89200000019,
      "d": 33.53652500000317,
      "v": 50
    },
    {
      "midi": 67,
      "hit": false,
      "t": 59999.89200000019,
      "d": 36.5853000000061,
      "v": 49
    },
    {
      "midi": 79,
      "hit": false,
      "t": 59999.89200000019,
      "d": 48.78040000000328,
      "v": 57
    },
    {
      "midi": 81,
      "hit": false,
      "t": 60301.720725000196,
      "d": 51.82917499999894,
      "v": 50
    },
    {
      "midi": 76,
      "hit": false,
      "t": 60307.818275000194,
      "d": 51.82917499999894,
      "v": 42
    },
    {
      "midi": 60,
      "hit": false,
      "t": 60313.91582500019,
      "d": 51.82917499999894,
      "v": 36
    },
    {
      "midi": 69,
      "hit": false,
      "t": 60316.964600000196,
      "d": 48.78039999999601,
      "v": 32
    },
    {
      "midi": 55,
      "hit": false,
      "t": 60326.11092500005,
      "d": 48.78040000000328,
      "v": 16
    },
    {
      "midi": 64,
      "hit": false,
      "t": 60329.15970000019,
      "d": 48.78039999999601,
      "v": 18
    },
    {
      "midi": 79,
      "hit": false,
      "t": 60487.696000000185,
      "d": 155.48752499999682,
      "v": 50
    },
    {
      "midi": 67,
      "hit": false,
      "t": 60499.89110000018,
      "d": 60.975500000000466,
      "v": 42
    },
    {
      "midi": 76,
      "hit": false,
      "t": 60530.37885000018,
      "d": 54.877950000001874,
      "v": 1
    },
    {
      "midi": 52,
      "hit": false,
      "t": 60731.598000000056,
      "d": 112.8046749999994,
      "v": 41
    },
    {
      "midi": 79,
      "hit": false,
      "t": 60905.37817500018,
      "d": 146.34120000000257,
      "v": 43
    },
    {
      "midi": 81,
      "hit": false,
      "t": 61097.45100000018,
      "d": 124.99977500000386,
      "v": 42
    },
    {
      "midi": 51,
      "hit": false,
      "t": 61115.743650000055,
      "d": 237.804449999996,
      "v": 29
    },
    {
      "midi": 82,
      "hit": false,
      "t": 61268.18240000019,
      "d": 48.78040000000328,
      "v": 37
    },
    {
      "midi": 50,
      "hit": false,
      "t": 61463.304000000055,
      "d": 45.73162500000035,
      "v": 33
    },
    {
      "midi": 83,
      "hit": false,
      "t": 61463.30400000019,
      "d": 33.53652500000317,
      "v": 35
    },
    {
      "midi": 74,
      "hit": false,
      "t": 61463.30400000019,
      "d": 39.63407500000176,
      "v": 35
    },
    {
      "midi": 79,
      "hit": false,
      "t": 61463.30400000019,
      "d": 48.78040000000328,
      "v": 29
    },
    {
      "midi": 79,
      "hit": false,
      "t": 61640.132950000196,
      "d": 167.68262500000856,
      "v": 39
    },
    {
      "midi": 74,
      "hit": false,
      "t": 61643.1817250002,
      "d": 94.51202500000363,
      "v": 34
    },
    {
      "midi": 83,
      "hit": false,
      "t": 61643.1817250002,
      "d": 173.78017500000715,
      "v": 40
    },
    {
      "midi": 55,
      "hit": false,
      "t": 61829.15700000006,
      "d": 48.78040000000328,
      "v": 29
    },
    {
      "midi": 59,
      "hit": false,
      "t": 61829.15700000006,
      "d": 48.78040000000328,
      "v": 28
    },
    {
      "midi": 62,
      "hit": false,
      "t": 61835.25455000021,
      "d": 51.82917499999894,
      "v": 24
    },
    {
      "midi": 83,
      "hit": false,
      "t": 62012.083500000204,
      "d": 262.19464999999764,
      "v": 38
    },
    {
      "midi": 72,
      "hit": false,
      "t": 62018.1810500002,
      "d": 234.75567500000034,
      "v": 34
    },
    {
      "midi": 78,
      "hit": false,
      "t": 62021.229825000206,
      "d": 286.5848499999993,
      "v": 31
    },
    {
      "midi": 50,
      "hit": false,
      "t": 62195.01000000006,
      "d": 91.4632500000007,
      "v": 28
    },
    {
      "midi": 81,
      "hit": false,
      "t": 62365.7414000002,
      "d": 112.8046749999994,
      "v": 30
    },
    {
      "midi": 78,
      "hit": false,
      "t": 62536.4728000002,
      "d": 219.51179999998567,
      "v": 27
    },
    {
      "midi": 72,
      "hit": false,
      "t": 62554.7654500002,
      "d": 97.56079999999201,
      "v": 21
    },
    {
      "midi": 60,
      "hit": false,
      "t": 62560.8630000002,
      "d": 109.7558999999892,
      "v": 21
    },
    {
      "midi": 62,
      "hit": false,
      "t": 62566.9605500002,
      "d": 97.56079999999201,
      "v": 20
    },
    {
      "midi": 57,
      "hit": false,
      "t": 62570.00932500006,
      "d": 115.85345000000234,
      "v": 20
    },
    {
      "midi": 74,
      "hit": false,
      "t": 62728.54562500019,
      "d": 91.4632500000007,
      "v": 25
    },
    {
      "midi": 59,
      "hit": false,
      "t": 62926.71600000006,
      "d": 45.73162500000035,
      "v": 21
    },
    {
      "midi": 74,
      "hit": false,
      "t": 62926.71600000019,
      "d": 551.8282749999998,
      "v": 20
    },
    {
      "midi": 71,
      "hit": false,
      "t": 62926.71600000019,
      "d": 554.8770500000028,
      "v": 22
    },
    {
      "midi": 79,
      "hit": false,
      "t": 62926.71600000019,
      "d": 564.0233750000043,
      "v": 27
    },
    {
      "midi": 55,
      "hit": false,
      "t": 62929.76477500006,
      "d": 48.78039999999601,
      "v": 20
    },
    {
      "midi": 62,
      "hit": false,
      "t": 62935.86232500019,
      "d": 51.82917499999894,
      "v": 15
    },
    {
      "midi": 41,
      "hit": false,
      "t": 63292.56900000006,
      "d": 91.4632500000007,
      "v": 21
    },
    {
      "midi": 53,
      "hit": false,
      "t": 63295.617775000064,
      "d": 88.41447499999776,
      "v": 23
    },
    {
      "midi": 44,
      "hit": false,
      "t": 63338.30062500006,
      "d": 54.877950000001874,
      "v": 8
    },
    {
      "midi": 52,
      "hit": false,
      "t": 63664.51955000006,
      "d": 79.26815000000352,
      "v": 20
    },
    {
      "midi": 40,
      "hit": false,
      "t": 63664.51955000006,
      "d": 91.4632500000007,
      "v": 22
    },
    {
      "midi": 76,
      "hit": false,
      "t": 63829.15340000019,
      "d": 115.85345000000234,
      "v": 17
    },
    {
      "midi": 64,
      "hit": false,
      "t": 63841.34850000019,
      "d": 51.82917499999894,
      "v": 11
    },
    {
      "midi": 72,
      "hit": false,
      "t": 63853.54360000019,
      "d": 57.92672500000481,
      "v": 9
    },
    {
      "midi": 50,
      "hit": false,
      "t": 64012.07990000006,
      "d": 67.07304999999906,
      "v": 15
    },
    {
      "midi": 38,
      "hit": false,
      "t": 64018.17745000006,
      "d": 57.92672499999753,
      "v": 16
    },
    {
      "midi": 77,
      "hit": false,
      "t": 64021.226225000195,
      "d": 57.92672500000481,
      "v": 17
    },
    {
      "midi": 65,
      "hit": false,
      "t": 64024.2750000002,
      "d": 51.82917499999894,
      "v": 14
    },
    {
      "midi": 66,
      "hit": false,
      "t": 64179.7625250002,
      "d": 42.682849999997416,
      "v": 11
    },
    {
      "midi": 78,
      "hit": false,
      "t": 64179.7625250002,
      "d": 91.4632500000007,
      "v": 14
    },
    {
      "midi": 36,
      "hit": false,
      "t": 64390.12800000006,
      "d": 51.82917499999894,
      "v": 10
    },
    {
      "midi": 79,
      "hit": false,
      "t": 64393.1767750002,
      "d": 76.21937500000786,
      "v": 11
    },
    {
      "midi": 67,
      "hit": false,
      "t": 64405.37187500021,
      "d": 54.877950000001874,
      "v": 9
    },
    {
      "midi": 76,
      "hit": false,
      "t": 64435.85962500021,
      "d": 51.82917500000622,
      "v": 3
    },
    {
      "midi": 81,
      "hit": false,
      "t": 64755.98100000022,
      "d": 48.78040000000328,
      "v": 8
    },
    {
      "midi": 60,
      "hit": false,
      "t": 64765.12732500022,
      "d": 45.73162500000035,
      "v": 7
    },
    {
      "midi": 69,
      "hit": false,
      "t": 64771.22487500022,
      "d": 51.82917499999894,
      "v": 6
    },
    {
      "midi": 55,
      "hit": false,
      "t": 64777.322425000064,
      "d": 45.73162500000035,
      "v": 6
    },
    {
      "midi": 64,
      "hit": false,
      "t": 64786.46875000022,
      "d": 45.73162500000035,
      "v": 4
    },
    {
      "midi": 79,
      "hit": false,
      "t": 64941.95627500022,
      "d": 170.73140000000421,
      "v": 7
    },
    {
      "midi": 67,
      "hit": false,
      "t": 64945.005050000225,
      "d": 146.34120000000257,
      "v": 6
    },
    {
      "midi": 76,
      "hit": false,
      "t": 64951.102600000224,
      "d": 170.73140000000421,
      "v": 6
    },
    {
      "midi": 43,
      "hit": false,
      "t": 65121.83400000007,
      "d": 42.682849999997416,
      "v": 4
    },
    {
      "midi": 76,
      "hit": false,
      "t": 65277.321525000225,
      "d": 51.82917499999894,
      "v": 4
    },
    {
      "midi": 64,
      "hit": false,
      "t": 65417.56517500022,
      "d": 45.73162500000035,
      "v": 2
    },
    {
      "midi": 77,
      "hit": false,
      "t": 65417.56517500022,
      "d": 54.877950000001874,
      "v": 4
    },
    {
      "midi": 60,
      "hit": false,
      "t": 65423.66272500022,
      "d": 45.73162500000035,
      "v": 2
    },
    {
      "midi": 55,
      "hit": false,
      "t": 65426.71150000006,
      "d": 42.682849999997416,
      "v": 2
    },
    {
      "midi": 65,
      "hit": false,
      "t": 65432.80905000022,
      "d": 45.73162500000035,
      "v": 2
    },
    {
      "midi": 78,
      "hit": false,
      "t": 65591.34535000022,
      "d": 100.60957499999495,
      "v": 2
    },
    {
      "midi": 66,
      "hit": false,
      "t": 65597.44290000023,
      "d": 54.8779499999946,
      "v": 1
    }
  ]
}