{
  "jsonPath": "Rock/Deep Christian Rock/Leslie Phillips/heart-of-hearts-lp-version.json",
  "path": "Rock\\Deep Christian Rock\\Leslie Phillips\\Heart Of Hearts (LP Version).mid",
  "name": "Heart Of Hearts (LP Version)",
  "difficulty": "Advanced",
  "bpm": 95.00014250021376,
  "notes": [
    {
      "midi": 54,
      "hit": false,
      "t": 63368.326,
      "d": 618.4201249999969,
      "v": 103
    },
    {
      "midi": 75,
      "hit": false,
      "t": 63717.0096875,
      "d": 944.0775312499973,
      "v": 1
    },
    {
      "midi": 75,
      "hit": false,
      "t": 63999.903999999995,
      "d": 618.4201249999969,
      "v": 106
    },
    {
      "midi": 73,
      "hit": false,
      "t": 64631.48199999999,
      "d": 618.4201249999969,
      "v": 101
    },
    {
      "midi": 73,
      "hit": false,
      "t": 64664.3766875,
      "d": 657.8937500000029,
      "v": 1
    },
    {
      "midi": 71,
      "hit": false,
      "t": 65263.05999999998,
      "d": 618.4201250000042,
      "v": 104
    },
    {
      "midi": 71,
      "hit": false,
      "t": 65295.9546875,
      "d": 1871.7077187500036,
      "v": 1
    },
    {
      "midi": 54,
      "hit": false,
      "t": 65894.63799999999,
      "d": 618.4201250000042,
      "v": 99
    },
    {
      "midi": 71,
      "hit": false,
      "t": 66526.216,
      "d": 618.4201250000042,
      "v": 108
    },
    {
      "midi": 70,
      "hit": false,
      "t": 67157.79400000001,
      "d": 618.4201250000042,
      "v": 101
    },
    {
      "midi": 70,
      "hit": false,
      "t": 67170.951875,
      "d": 555.920218750005,
      "v": 1
    },
    {
      "midi": 71,
      "hit": false,
      "t": 67730.1615625,
      "d": 194.07865624999977,
      "v": 1
    },
    {
      "midi": 71,
      "hit": false,
      "t": 67789.37200000002,
      "d": 618.4201250000042,
      "v": 111
    },
    {
      "midi": 70,
      "hit": false,
      "t": 67927.52968749999,
      "d": 200.65759375000198,
      "v": 1
    },
    {
      "midi": 66,
      "hit": false,
      "t": 68131.47674999999,
      "d": 832.235593749996,
      "v": 1
    },
    {
      "midi": 54,
      "hit": false,
      "t": 68420.95000000003,
      "d": 618.4201250000042,
      "v": 99
    },
    {
      "midi": 71,
      "hit": false,
      "t": 69052.52800000003,
      "d": 513.1571249999979,
      "v": 98
    },
    {
      "midi": 70,
      "hit": false,
      "t": 69684.10600000003,
      "d": 618.4201250000042,
      "v": 100
    },
    {
      "midi": 71,
      "hit": false,
      "t": 70315.68400000004,
      "d": 302.6311249999999,
      "v": 105
    },
    {
      "midi": 75,
      "hit": false,
      "t": 70631.47300000004,
      "d": 302.6311249999999,
      "v": 107
    },
    {
      "midi": 73,
      "hit": false,
      "t": 70947.26200000005,
      "d": 302.6311249999999,
      "v": 103
    },
    {
      "midi": 71,
      "hit": false,
      "t": 71263.05100000005,
      "d": 302.6311249999999,
      "v": 98
    },
    {
      "midi": 73,
      "hit": false,
      "t": 71578.84000000005,
      "d": 618.4201250000042,
      "v": 104
    },
    {
      "midi": 76,
      "hit": false,
      "t": 72210.41800000006,
      "d": 302.6311249999999,
      "v": 110
    },
    {
      "midi": 75,
      "hit": false,
      "t": 72526.20700000007,
      "d": 302.6311249999999,
      "v": 101
    },
    {
      "midi": 71,
      "hit": false,
      "t": 72841.99600000007,
      "d": 618.4201250000042,
      "v": 106
    },
    {
      "midi": 54,
      "hit": false,
      "t": 73473.57400000008,
      "d": 618.4201250000042,
      "v": 107
    },
    {
      "midi": 75,
      "hit": false,
      "t": 73822.25768749998,
      "d": 944.0775312500045,
      "v": 1
    },
    {
      "midi": 75,
      "hit": false,
      "t": 74105.15200000009,
      "d": 618.4201250000042,
      "v": 96
    },
    {
      "midi": 73,
      "hit": false,
      "t": 74736.7300000001,
      "d": 618.4201250000042,
      "v": 100
    },
    {
      "midi": 73,
      "hit": false,
      "t": 74769.62468749998,
      "d": 657.8937499999884,
      "v": 1
    },
    {
      "midi": 71,
      "hit": false,
      "t": 75368.3080000001,
      "d": 618.4201250000042,
      "v": 110
    },
    {
      "midi": 71,
      "hit": false,
      "t": 75401.20268749997,
      "d": 1871.7077187499963,
      "v": 1
    },
    {
      "midi": 54,
      "hit": false,
      "t": 75999.88600000012,
      "d": 618.4201250000042,
      "v": 91
    },
    {
      "midi": 71,
      "hit": false,
      "t": 76631.46400000012,
      "d": 618.4201250000042,
      "v": 110
    },
    {
      "midi": 70,
      "hit": false,
      "t": 77263.04200000013,
      "d": 618.4201250000042,
      "v": 99
    },
    {
      "midi": 70,
      "hit": false,
      "t": 77276.19987499996,
      "d": 555.920218750005,
      "v": 1
    },
    {
      "midi": 71,
      "hit": false,
      "t": 77835.40956249996,
      "d": 194.07865624999977,
      "v": 1
    },
    {
      "midi": 71,
      "hit": false,
      "t": 77894.62000000014,
      "d": 618.4201250000042,
      "v": 101
    },
    {
      "midi": 70,
      "hit": false,
      "t": 78032.77768749995,
      "d": 200.65759375000198,
      "v": 1
    },
    {
      "midi": 66,
      "hit": false,
      "t": 78236.72474999995,
      "d": 832.235593749996,
      "v": 1
    },
    {
      "midi": 54,
      "hit": false,
      "t": 78526.19800000015,
      "d": 302.6311249999999,
      "v": 105
    },
    {
      "midi": 78,
      "hit": false,
      "t": 78841.98700000015,
      "d": 302.6311249999999,
      "v": 105
    },
    {
      "midi": 75,
      "hit": false,
      "t": 79157.77600000016,
      "d": 618.4201250000042,
      "v": 102
    },
    {
      "midi": 70,
      "hit": false,
      "t": 79789.35400000017,
      "d": 618.4201250000042,
      "v": 101
    },
    {
      "midi": 71,
      "hit": false,
      "t": 80420.93200000018,
      "d": 302.6311249999999,
      "v": 108
    },
    {
      "midi": 70,
      "hit": false,
      "t": 80736.72100000018,
      "d": 342.1047499999986,
      "v": 105
    },
    {
      "midi": 70,
      "hit": false,
      "t": 81368.29900000017,
      "d": 276.3153750000056,
      "v": 107
    },
    {
      "midi": 30,
      "hit": false,
      "t": 81388.0358125,
      "d": 1881.5761250000069,
      "v": 117
    },
    {
      "midi": 42,
      "hit": false,
      "t": 81388.0358125,
      "d": 1881.5761250000069,
      "v": 120
    },
    {
      "midi": 49,
      "hit": false,
      "t": 81388.0358125,
      "d": 1894.7340000000113,
      "v": 121
    },
    {
      "midi": 54,
      "hit": false,
      "t": 134105.06200000018,
      "d": 618.4201250000042,
      "v": 108
    },
    {
      "midi": 75,
      "hit": false,
      "t": 134453.74568749993,
      "d": 944.07753124999,
      "v": 1
    },
    {
      "midi": 75,
      "hit": false,
      "t": 134736.6400000002,
      "d": 618.4201250000042,
      "v": 105
    },
    {
      "midi": 73,
      "hit": false,
      "t": 135368.2180000002,
      "d": 618.4201250000042,
      "v": 98
    },
    {
      "midi": 73,
      "hit": false,
      "t": 135401.11268749993,
      "d": 657.8937500000175,
      "v": 1
    },
    {
      "midi": 71,
      "hit": false,
      "t": 135999.7960000002,
      "d": 618.4201250000042,
      "v": 105
    },
    {
      "midi": 71,
      "hit": false,
      "t": 136032.69068749994,
      "d": 1871.7077187499963,
      "v": 1
    },
    {
      "midi": 54,
      "hit": false,
      "t": 136631.3740000002,
      "d": 618.4201250000042,
      "v": 101
    },
    {
      "midi": 71,
      "hit": false,
      "t": 137262.95200000022,
      "d": 618.4201250000042,
      "v": 111
    },
    {
      "midi": 70,
      "hit": false,
      "t": 137894.53000000023,
      "d": 618.4201250000042,
      "v": 94
    },
    {
      "midi": 70,
      "hit": false,
      "t": 137907.68787499995,
      "d": 555.9202187499905,
      "v": 1
    },
    {
      "midi": 71,
      "hit": false,
      "t": 138466.89756249994,
      "d": 194.07865624999977,
      "v": 1
    },
    {
      "midi": 71,
      "hit": false,
      "t": 138526.10800000024,
      "d": 618.4201250000042,
      "v": 100
    },
    {
      "midi": 70,
      "hit": false,
      "t": 138664.26568749995,
      "d": 200.65759374998743,
      "v": 1
    },
    {
      "midi": 66,
      "hit": false,
      "t": 138868.21274999995,
      "d": 832.235593749996,
      "v": 1
    },
    {
      "midi": 54,
      "hit": false,
      "t": 139157.68600000025,
      "d": 618.4201250000042,
      "v": 99
    },
    {
      "midi": 71,
      "hit": false,
      "t": 139789.26400000026,
      "d": 513.1571249999979,
      "v": 105
    },
    {
      "midi": 70,
      "hit": false,
      "t": 140420.84200000027,
      "d": 618.4201250000042,
      "v": 109
    },
    {
      "midi": 71,
      "hit": false,
      "t": 141052.42000000027,
      "d": 302.63112500001444,
      "v": 103
    },
    {
      "midi": 75,
      "hit": false,
      "t": 141368.2090000003,
      "d": 302.63112500001444,
      "v": 104
    },
    {
      "midi": 73,
      "hit": false,
      "t": 141683.9980000003,
      "d": 302.63112500001444,
      "v": 101
    },
    {
      "midi": 71,
      "hit": false,
      "t": 141999.78700000033,
      "d": 302.63112500001444,
      "v": 99
    },
    {
      "midi": 73,
      "hit": false,
      "t": 142315.57600000035,
      "d": 618.4201250000042,
      "v": 106
    },
    {
      "midi": 76,
      "hit": false,
      "t": 142947.15400000036,
      "d": 302.63112500001444,
      "v": 106
    },
    {
      "midi": 75,
      "hit": false,
      "t": 143262.94300000038,
      "d": 302.63112500001444,
      "v": 98
    },
    {
      "midi": 71,
      "hit": false,
      "t": 143578.7320000004,
      "d": 618.4201250000042,
      "v": 104
    },
    {
      "midi": 54,
      "hit": false,
      "t": 144210.3100000004,
      "d": 618.4201250000042,
      "v": 104
    },
    {
      "midi": 75,
      "hit": false,
      "t": 144558.99368749995,
      "d": 944.07753124999,
      "v": 1
    },
    {
      "midi": 75,
      "hit": false,
      "t": 144841.8880000004,
      "d": 618.4201250000042,
      "v": 109
    },
    {
      "midi": 73,
      "hit": false,
      "t": 145473.46600000042,
      "d": 618.4201250000042,
      "v": 101
    },
    {
      "midi": 73,
      "hit": false,
      "t": 145506.36068749995,
      "d": 657.8937500000175,
      "v": 1
    },
    {
      "midi": 71,
      "hit": false,
      "t": 146105.04400000043,
      "d": 618.4201250000042,
      "v": 99
    },
    {
      "midi": 71,
      "hit": false,
      "t": 146137.93868749996,
      "d": 1871.7077187499963,
      "v": 1
    },
    {
      "midi": 54,
      "hit": false,
      "t": 146736.62200000044,
      "d": 618.4201250000042,
      "v": 98
    },
    {
      "midi": 71,
      "hit": false,
      "t": 147368.20000000045,
      "d": 618.4201250000042,
      "v": 106
    },
    {
      "midi": 70,
      "hit": false,
      "t": 147999.77800000046,
      "d": 618.4201250000042,
      "v": 95
    },
    {
      "midi": 70,
      "hit": false,
      "t": 148012.93587499997,
      "d": 555.9202187499905,
      "v": 1
    },
    {
      "midi": 71,
      "hit": false,
      "t": 148572.14556249997,
      "d": 194.07865624999977,
      "v": 1
    },
    {
      "midi": 71,
      "hit": false,
      "t": 148631.35600000047,
      "d": 618.4201250000042,
      "v": 102
    },
    {
      "midi": 70,
      "hit": false,
      "t": 148769.51368749997,
      "d": 200.65759374998743,
      "v": 1
    },
    {
      "midi": 66,
      "hit": false,
      "t": 148973.46074999997,
      "d": 832.235593749996,
      "v": 1
    },
    {
      "midi": 54,
      "hit": false,
      "t": 149262.93400000047,
      "d": 302.63112500001444,
      "v": 106
    },
    {
      "midi": 78,
      "hit": false,
      "t": 149578.7230000005,
      "d": 302.63112500001444,
      "v": 102
    },
    {
      "midi": 75,
      "hit": false,
      "t": 149894.5120000005,
      "d": 618.4201250000042,
      "v": 103
    },
    {
      "midi": 70,
      "hit": false,
      "t": 150526.09000000052,
      "d": 618.4201250000042,
      "v": 105
    },
    {
      "midi": 71,
      "hit": false,
      "t": 151157.66800000053,
      "d": 302.63112500001444,
      "v": 103
    },
    {
      "midi": 70,
      "hit": false,
      "t": 151473.45700000055,
      "d": 342.1047499999986,
      "v": 102
    },
    {
      "midi": 70,
      "hit": false,
      "t": 152105.03500000056,
      "d": 276.3153750000056,
      "v": 107
    },
    {
      "midi": 30,
      "hit": false,
      "t": 152124.77181250002,
      "d": 1855.2603750000708,
      "v": 119
    },
    {
      "midi": 42,
      "hit": false,
      "t": 152124.77181250002,
      "d": 1855.2603750000708,
      "v": 118
    },
    {
      "midi": 49,
      "hit": false,
      "t": 152124.77181250002,
      "d": 1868.4182500000752,
      "v": 126
    },
    {
      "midi": 52,
      "hit": false,
      "t": 154315.55800000057,
      "d": 2046.0495624999458,
      "v": 105
    },
    {
      "midi": 56,
      "hit": false,
      "t": 154631.34700000056,
      "d": 1677.6290624999674,
      "v": 112
    },
    {
      "midi": 66,
      "hit": false,
      "t": 154947.13600000055,
      "d": 624.9990624999919,
      "v": 109
    },
    {
      "midi": 64,
      "hit": false,
      "t": 155578.71400000053,
      "d": 776.3146249999991,
      "v": 110
    },
    {
      "midi": 68,
      "hit": false,
      "t": 156526.08100000053,
      "d": 1230.2613124999916,
      "v": 101
    },
    {
      "midi": 66,
      "hit": false,
      "t": 157789.23700000052,
      "d": 1072.3668124999967,
      "v": 102
    },
    {
      "midi": 63,
      "hit": false,
      "t": 159052.3930000005,
      "d": 2282.8913124999963,
      "v": 113
    },
    {
      "midi": 54,
      "hit": false,
      "t": 159368.1820000005,
      "d": 1914.4708124999888,
      "v": 95
    },
    {
      "midi": 59,
      "hit": false,
      "t": 159683.97100000049,
      "d": 1624.997562500008,
      "v": 103
    },
    {
      "midi": 61,
      "hit": false,
      "t": 159999.76000000047,
      "d": 1210.5244999999995,
      "v": 82
    },
    {
      "midi": 40,
      "hit": false,
      "t": 161578.7050000005,
      "d": 2289.470249999955,
      "v": 109
    },
    {
      "midi": 54,
      "hit": false,
      "t": 161894.4940000005,
      "d": 1953.944437499973,
      "v": 97
    },
    {
      "midi": 56,
      "hit": false,
      "t": 162210.2830000005,
      "d": 1618.4186249999912,
      "v": 96
    },
    {
      "midi": 59,
      "hit": false,
      "t": 162526.07200000048,
      "d": 1296.0506875000137,
      "v": 102
    },
    {
      "midi": 52,
      "hit": false,
      "t": 164420.80600000048,
      "d": 2046.0495624999458,
      "v": 103
    },
    {
      "midi": 56,
      "hit": false,
      "t": 164736.59500000047,
      "d": 1677.6290624999674,
      "v": 105
    },
    {
      "midi": 66,
      "hit": false,
      "t": 165052.38400000046,
      "d": 624.9990624999919,
      "v": 105
    },
    {
      "midi": 64,
      "hit": false,
      "t": 165683.96200000044,
      "d": 776.3146249999991,
      "v": 104
    },
    {
      "midi": 68,
      "hit": false,
      "t": 166631.32900000043,
      "d": 1230.2613124999916,
      "v": 112
    },
    {
      "midi": 66,
      "hit": false,
      "t": 167894.48500000042,
      "d": 1072.3668124999967,
      "v": 104
    },
    {
      "midi": 59,
      "hit": false,
      "t": 169157.6410000004,
      "d": 2249.9966249999707,
      "v": 104
    },
    {
      "midi": 63,
      "hit": false,
      "t": 169473.4300000004,
      "d": 532.89393749999,
      "v": 96
    },
    {
      "midi": 71,
      "hit": false,
      "t": 169789.2190000004,
      "d": 236.84174999999232,
      "v": 105
    },
    {
      "midi": 63,
      "hit": false,
      "t": 170105.00800000038,
      "d": 1296.0506875000137,
      "v": 100
    },
    {
      "midi": 71,
      "hit": false,
      "t": 170105.00800000038,
      "d": 1302.6296250000014,
      "v": 110
    },
    {
      "midi": 52,
      "hit": false,
      "t": 171683.9530000004,
      "d": 2203.9440624999697,
      "v": 102
    },
    {
      "midi": 68,
      "hit": false,
      "t": 171999.74200000038,
      "d": 1855.2603749999835,
      "v": 109
    },
    {
      "midi": 66,
      "hit": false,
      "t": 172315.53100000037,
      "d": 381.57837499998277,
      "v": 107
    },
    {
      "midi": 64,
      "hit": false,
      "t": 172631.32000000036,
      "d": 1243.419187499996,
      "v": 97
    },
    {
      "midi": 66,
      "hit": false,
      "t": 172947.10900000035,
      "d": 940.7880625000107,
      "v": 94
    },
    {
      "midi": 63,
      "hit": false,
      "t": 174526.05400000035,
      "d": 2026.3127499999828,
      "v": 108
    },
    {
      "midi": 64,
      "hit": false,
      "t": 174841.84300000034,
      "d": 1730.260562499985,
      "v": 105
    },
    {
      "midi": 71,
      "hit": false,
      "t": 175157.63200000033,
      "d": 1427.6294374999998,
      "v": 109
    },
    {
      "midi": 71,
      "hit": false,
      "t": 176736.57700000034,
      "d": 868.4197500000009,
      "v": 111
    },
    {
      "midi": 30,
      "hit": false,
      "t": 176802.3663750001,
      "d": 2447.364750000037,
      "v": 120
    },
    {
      "midi": 42,
      "hit": false,
      "t": 176802.3663750001,
      "d": 2460.5226250000414,
      "v": 126
    },
    {
      "midi": 71,
      "hit": false,
      "t": 177683.94400000034,
      "d": 546.0518124999944,
      "v": 98
    },
    {
      "midi": 71,
      "hit": false,
      "t": 178315.52200000035,
      "d": 934.209124999994,
      "v": 107
    },
    {
      "midi": 54,
      "hit": false,
      "t": 179578.67800000033,
      "d": 618.4201250000042,
      "v": 111
    },
    {
      "midi": 75,
      "hit": false,
      "t": 179927.36168749997,
      "d": 944.07753124999,
      "v": 1
    },
    {
      "midi": 75,
      "hit": false,
      "t": 180210.25600000034,
      "d": 618.4201250000042,
      "v": 98
    },
    {
      "midi": 73,
      "hit": false,
      "t": 180841.83400000035,
      "d": 618.4201250000042,
      "v": 98
    },
    {
      "midi": 73,
      "hit": false,
      "t": 180874.72868749997,
      "d": 657.8937500000175,
      "v": 1
    },
    {
      "midi": 71,
      "hit": false,
      "t": 181473.41200000036,
      "d": 618.4201250000042,
      "v": 99
    },
    {
      "midi": 71,
      "hit": false,
      "t": 181506.30668749998,
      "d": 1871.7077187499963,
      "v": 1
    },
    {
      "midi": 54,
      "hit": false,
      "t": 182104.99000000037,
      "d": 618.4201250000042,
      "v": 103
    },
    {
      "midi": 71,
      "hit": false,
      "t": 182736.56800000038,
      "d": 618.4201250000042,
      "v": 108
    },
    {
      "midi": 70,
      "hit": false,
      "t": 183368.1460000004,
      "d": 618.4201250000042,
      "v": 100
    },
    {
      "midi": 70,
      "hit": false,
      "t": 183381.30387499998,
      "d": 555.9202187499905,
      "v": 1
    },
    {
      "midi": 71,
      "hit": false,
      "t": 183940.51356249998,
      "d": 194.07865624999977,
      "v": 1
    },
    {
      "midi": 71,
      "hit": false,
      "t": 183999.7240000004,
      "d": 618.4201250000042,
      "v": 105
    },
    {
      "midi": 70,
      "hit": false,
      "t": 184137.8816875,
      "d": 200.65759374998743,
      "v": 1
    },
    {
      "midi": 66,
      "hit": false,
      "t": 184341.82875,
      "d": 832.235593749996,
      "v": 1
    },
    {
      "midi": 54,
      "hit": false,
      "t": 184631.3020000004,
      "d": 618.4201250000042,
      "v": 105
    },
    {
      "midi": 71,
      "hit": false,
      "t": 185262.8800000004,
      "d": 513.1571249999979,
      "v": 100
    },
    {
      "midi": 70,
      "hit": false,
      "t": 185894.45800000042,
      "d": 618.4201250000042,
      "v": 110
    },
    {
      "midi": 71,
      "hit": false,
      "t": 186526.03600000043,
      "d": 302.63112500001444,
      "v": 105
    },
    {
      "midi": 75,
      "hit": false,
      "t": 186841.82500000045,
      "d": 302.63112500001444,
      "v": 106
    },
    {
      "midi": 73,
      "hit": false,
      "t": 187157.61400000047,
      "d": 302.63112500001444,
      "v": 96
    },
    {
      "midi": 71,
      "hit": false,
      "t": 187473.4030000005,
      "d": 302.63112500001444,
      "v": 98
    },
    {
      "midi": 73,
      "hit": false,
      "t": 187789.1920000005,
      "d": 618.4201250000042,
      "v": 108
    },
    {
      "midi": 76,
      "hit": false,
      "t": 188420.7700000005,
      "d": 302.63112500001444,
      "v": 109
    },
    {
      "midi": 75,
      "hit": false,
      "t": 188736.55900000053,
      "d": 302.63112500001444,
      "v": 100
    },
    {
      "midi": 71,
      "hit": false,
      "t": 189052.34800000055,
      "d": 618.4201250000042,
      "v": 100
    },
    {
      "midi": 54,
      "hit": false,
      "t": 189683.92600000056,
      "d": 618.4201250000042,
      "v": 108
    },
    {
      "midi": 75,
      "hit": false,
      "t": 190032.6096875,
      "d": 944.07753124999,
      "v": 1
    },
    {
      "midi": 75,
      "hit": false,
      "t": 190315.50400000057,
      "d": 618.4201250000042,
      "v": 97
    },
    {
      "midi": 73,
      "hit": false,
      "t": 190947.08200000058,
      "d": 618.4201250000042,
      "v": 97
    },
    {
      "midi": 73,
      "hit": false,
      "t": 190979.9766875,
      "d": 657.8937500000175,
      "v": 1
    },
    {
      "midi": 71,
      "hit": false,
      "t": 191578.6600000006,
      "d": 618.4201250000042,
      "v": 109
    },
    {
      "midi": 71,
      "hit": false,
      "t": 191611.5546875,
      "d": 1871.7077187499963,
      "v": 1
    },
    {
      "midi": 54,
      "hit": false,
      "t": 192210.2380000006,
      "d": 618.4201250000042,
      "v": 102
    },
    {
      "midi": 71,
      "hit": false,
      "t": 192841.8160000006,
      "d": 618.4201250000042,
      "v": 107
    },
    {
      "midi": 70,
      "hit": false,
      "t": 193473.3940000006,
      "d": 618.4201250000042,
      "v": 101
    },
    {
      "midi": 70,
      "hit": false,
      "t": 193486.551875,
      "d": 555.9202187499905,
      "v": 1
    },
    {
      "midi": 71,
      "hit": false,
      "t": 194045.7615625,
      "d": 194.07865624999977,
      "v": 1
    },
    {
      "midi": 71,
      "hit": false,
      "t": 194104.97200000062,
      "d": 618.4201250000042,
      "v": 100
    },
    {
      "midi": 70,
      "hit": false,
      "t": 194243.1296875,
      "d": 200.65759374998743,
      "v": 1
    },
    {
      "midi": 66,
      "hit": false,
      "t": 194447.07675,
      "d": 832.235593749996,
      "v": 1
    },
    {
      "midi": 54,
      "hit": false,
      "t": 194736.55000000063,
      "d": 302.63112500001444,
      "v": 102
    },
    {
      "midi": 78,
      "hit": false,
      "t": 195052.33900000065,
      "d": 302.63112500001444,
      "v": 109
    },
    {
      "midi": 75,
      "hit": false,
      "t": 195368.12800000067,
      "d": 618.4201250000042,
      "v": 98
    },
    {
      "midi": 70,
      "hit": false,
      "t": 195999.70600000067,
      "d": 618.4201250000042,
      "v": 102
    },
    {
      "midi": 71,
      "hit": false,
      "t": 196631.28400000068,
      "d": 302.63112500001444,
      "v": 106
    },
    {
      "midi": 70,
      "hit": false,
      "t": 196947.0730000007,
      "d": 342.1047499999986,
      "v": 103
    },
    {
      "midi": 70,
      "hit": false,
      "t": 197578.6510000007,
      "d": 276.3153750000056,
      "v": 97
    },
    {
      "midi": 30,
      "hit": false,
      "t": 197598.38781250015,
      "d": 1881.5761250000796,
      "v": 121
    },
    {
      "midi": 42,
      "hit": false,
      "t": 197598.38781250015,
      "d": 1881.5761250000796,
      "v": 120
    },
    {
      "midi": 49,
      "hit": false,
      "t": 197598.38781250015,
      "d": 1894.734000000084,
      "v": 123
    },
    {
      "midi": 54,
      "hit": false,
      "t": 199789.17400000073,
      "d": 618.4201250000042,
      "v": 106
    },
    {
      "midi": 75,
      "hit": false,
      "t": 200137.8576875,
      "d": 944.07753124999,
      "v": 1
    },
    {
      "midi": 75,
      "hit": false,
      "t": 200420.75200000074,
      "d": 618.4201250000042,
      "v": 103
    },
    {
      "midi": 73,
      "hit": false,
      "t": 201052.33000000074,
      "d": 618.4201250000042,
      "v": 100
    },
    {
      "midi": 73,
      "hit": false,
      "t": 201085.2246875,
      "d": 657.8937500000175,
      "v": 1
    },
    {
      "midi": 71,
      "hit": false,
      "t": 201683.90800000075,
      "d": 618.4201250000042,
      "v": 97
    },
    {
      "midi": 71,
      "hit": false,
      "t": 201716.80268750002,
      "d": 1871.7077187499963,
      "v": 1
    },
    {
      "midi": 54,
      "hit": false,
      "t": 202315.48600000076,
      "d": 618.4201250000042,
      "v": 100
    },
    {
      "midi": 71,
      "hit": false,
      "t": 202947.06400000077,
      "d": 618.4201250000042,
      "v": 107
    },
    {
      "midi": 70,
      "hit": false,
      "t": 203578.64200000078,
      "d": 618.4201250000042,
      "v": 98
    },
    {
      "midi": 70,
      "hit": false,
      "t": 203591.79987500003,
      "d": 555.9202187499905,
      "v": 1
    },
    {
      "midi": 71,
      "hit": false,
      "t": 204151.00956250002,
      "d": 194.07865624999977,
      "v": 1
    },
    {
      "midi": 71,
      "hit": false,
      "t": 204210.2200000008,
      "d": 618.4201250000042,
      "v": 109
    },
    {
      "midi": 70,
      "hit": false,
      "t": 204348.37768750003,
      "d": 200.65759374998743,
      "v": 1
    },
    {
      "midi": 66,
      "hit": false,
      "t": 204552.32475000003,
      "d": 832.235593749996,
      "v": 1
    },
    {
      "midi": 54,
      "hit": false,
      "t": 204841.7980000008,
      "d": 618.4201250000042,
      "v": 102
    },
    {
      "midi": 71,
      "hit": false,
      "t": 205473.3760000008,
      "d": 513.1571249999979,
      "v": 100
    },
    {
      "midi": 70,
      "hit": false,
      "t": 206104.9540000008,
      "d": 618.4201250000042,
      "v": 106
    },
    {
      "midi": 71,
      "hit": false,
      "t": 206736.53200000082,
      "d": 302.63112500001444,
      "v": 97
    },
    {
      "midi": 75,
      "hit": false,
      "t": 207052.32100000084,
      "d": 302.63112500001444,
      "v": 105
    },
    {
      "midi": 73,
      "hit": false,
      "t": 207368.11000000086,
      "d": 302.63112500001444,
      "v": 101
    },
    {
      "midi": 71,
      "hit": false,
      "t": 207683.89900000088,
      "d": 302.63112500001444,
      "v": 104
    },
    {
      "midi": 73,
      "hit": false,
      "t": 207999.6880000009,
      "d": 618.4201250000042,
      "v": 105
    },
    {
      "midi": 76,
      "hit": false,
      "t": 208631.2660000009,
      "d": 302.63112500001444,
      "v": 101
    },
    {
      "midi": 75,
      "hit": false,
      "t": 208947.05500000092,
      "d": 302.63112500001444,
      "v": 101
    },
    {
      "midi": 71,
      "hit": false,
      "t": 209262.84400000094,
      "d": 618.4201250000042,
      "v": 102
    },
    {
      "midi": 54,
      "hit": false,
      "t": 209894.42200000095,
      "d": 618.4201250000042,
      "v": 108
    },
    {
      "midi": 75,
      "hit": false,
      "t": 210243.10568750004,
      "d": 944.07753124999,
      "v": 1
    },
    {
      "midi": 75,
      "hit": false,
      "t": 210526.00000000096,
      "d": 618.4201250000042,
      "v": 101
    },
    {
      "midi": 73,
      "hit": false,
      "t": 211157.57800000097,
      "d": 618.4201250000042,
      "v": 99
    },
    {
      "midi": 73,
      "hit": false,
      "t": 211190.47268750003,
      "d": 657.8937500000175,
      "v": 1
    },
    {
      "midi": 71,
      "hit": false,
      "t": 211789.15600000098,
      "d": 618.4201250000042,
      "v": 101
    },
    {
      "midi": 71,
      "hit": false,
      "t": 211822.05068750004,
      "d": 1871.7077187499963,
      "v": 1
    },
    {
      "midi": 54,
      "hit": false,
      "t": 212420.734000001,
      "d": 618.4201250000042,
      "v": 99
    },
    {
      "midi": 71,
      "hit": false,
      "t": 213052.312000001,
      "d": 618.4201250000042,
      "v": 106
    },
    {
      "midi": 70,
      "hit": false,
      "t": 213683.890000001,
      "d": 618.4201250000042,
      "v": 95
    },
    {
      "midi": 70,
      "hit": false,
      "t": 213697.04787500005,
      "d": 555.9202187499905,
      "v": 1
    },
    {
      "midi": 71,
      "hit": false,
      "t": 214256.25756250005,
      "d": 194.07865624999977,
      "v": 1
    },
    {
      "midi": 71,
      "hit": false,
      "t": 214315.468000001,
      "d": 618.4201250000042,
      "v": 111
    },
    {
      "midi": 70,
      "hit": false,
      "t": 214453.62568750005,
      "d": 200.65759374998743,
      "v": 1
    },
    {
      "midi": 66,
      "hit": false,
      "t": 214657.57275000005,
      "d": 832.235593749996,
      "v": 1
    },
    {
      "midi": 54,
      "hit": false,
      "t": 214947.04600000102,
      "d": 302.63112500001444,
      "v": 102
    },
    {
      "midi": 78,
      "hit": false,
      "t": 215262.83500000104,
      "d": 302.63112500001444,
      "v": 105
    },
    {
      "midi": 75,
      "hit": false,
      "t": 215578.62400000106,
      "d": 618.4201250000042,
      "v": 97
    },
    {
      "midi": 70,
      "hit": false,
      "t": 216210.20200000107,
      "d": 618.4201250000042,
      "v": 100
    },
    {
      "midi": 71,
      "hit": false,
      "t": 216841.78000000108,
      "d": 302.63112500001444,
      "v": 102
    },
    {
      "midi": 70,
      "hit": false,
      "t": 217157.5690000011,
      "d": 342.1047499999986,
      "v": 103
    },
    {
      "midi": 70,
      "hit": false,
      "t": 217789.1470000011,
      "d": 276.3153750000056,
      "v": 108
    },
    {
      "midi": 30,
      "hit": false,
      "t": 217808.88381250025,
      "d": 1855.2603750000708,
      "v": 119
    },
    {
      "midi": 42,
      "hit": false,
      "t": 217808.88381250025,
      "d": 1855.2603750000708,
      "v": 127
    },
    {
      "midi": 49,
      "hit": false,
      "t": 217808.88381250025,
      "d": 1868.4182500000752,
      "v": 125
    },
    {
      "midi": 54,
      "hit": false,
      "t": 219999.67000000112,
      "d": 618.4201250000042,
      "v": 105
    },
    {
      "midi": 75,
      "hit": false,
      "t": 220631.24800000113,
      "d": 618.4201250000042,
      "v": 101
    },
    {
      "midi": 73,
      "hit": false,
      "t": 221262.82600000114,
      "d": 618.4201250000042,
      "v": 100
    },
    {
      "midi": 71,
      "hit": false,
      "t": 221894.40400000114,
      "d": 618.4201250000042,
      "v": 106
    },
    {
      "midi": 54,
      "hit": false,
      "t": 222525.98200000115,
      "d": 618.4201250000042,
      "v": 100
    },
    {
      "midi": 71,
      "hit": false,
      "t": 223157.56000000116,
      "d": 618.4201250000042,
      "v": 109
    },
    {
      "midi": 70,
      "hit": false,
      "t": 223789.13800000117,
      "d": 618.4201250000042,
      "v": 102
    },
    {
      "midi": 71,
      "hit": false,
      "t": 224420.71600000118,
      "d": 618.4201250000042,
      "v": 110
    },
    {
      "midi": 54,
      "hit": false,
      "t": 225052.2940000012,
      "d": 618.4201250000042,
      "v": 105
    },
    {
      "midi": 71,
      "hit": false,
      "t": 225683.8720000012,
      "d": 513.1571249999979,
      "v": 103
    },
    {
      "midi": 70,
      "hit": false,
      "t": 226315.4500000012,
      "d": 618.4201250000042,
      "v": 104
    },
    {
      "midi": 71,
      "hit": false,
      "t": 226947.0280000012,
      "d": 302.63112500001444,
      "v": 100
    },
    {
      "midi": 75,
      "hit": false,
      "t": 227262.81700000123,
      "d": 302.63112500001444,
      "v": 109
    },
    {
      "midi": 73,
      "hit": false,
      "t": 227578.60600000125,
      "d": 302.63112500001444,
      "v": 100
    },
    {
      "midi": 71,
      "hit": false,
      "t": 227894.39500000127,
      "d": 302.63112500001444,
      "v": 100
    },
    {
      "midi": 73,
      "hit": false,
      "t": 228210.1840000013,
      "d": 618.4201250000042,
      "v": 104
    },
    {
      "midi": 76,
      "hit": false,
      "t": 228841.7620000013,
      "d": 302.63112500001444,
      "v": 106
    },
    {
      "midi": 75,
      "hit": false,
      "t": 229157.55100000132,
      "d": 302.63112500001444,
      "v": 102
    },
    {
      "midi": 71,
      "hit": false,
      "t": 229473.34000000134,
      "d": 618.4201250000042,
      "v": 101
    },
    {
      "midi": 54,
      "hit": false,
      "t": 230104.91800000134,
      "d": 618.4201250000042,
      "v": 105
    },
    {
      "midi": 75,
      "hit": false,
      "t": 230736.49600000135,
      "d": 618.4201250000042,
      "v": 102
    },
    {
      "midi": 73,
      "hit": false,
      "t": 231368.07400000136,
      "d": 618.4201250000042,
      "v": 103
    },
    {
      "midi": 71,
      "hit": false,
      "t": 231999.65200000137,
      "d": 618.4201250000042,
      "v": 108
    },
    {
      "midi": 54,
      "hit": false,
      "t": 232631.23000000138,
      "d": 618.4201250000042,
      "v": 102
    },
    {
      "midi": 71,
      "hit": false,
      "t": 233262.8080000014,
      "d": 618.4201250000042,
      "v": 107
    },
    {
      "midi": 70,
      "hit": false,
      "t": 233894.3860000014,
      "d": 618.4201250000042,
      "v": 99
    },
    {
      "midi": 71,
      "hit": false,
      "t": 234525.9640000014,
      "d": 618.4201250000042,
      "v": 113
    },
    {
      "midi": 54,
      "hit": false,
      "t": 235157.5420000014,
      "d": 302.63112500001444,
      "v": 99
    },
    {
      "midi": 78,
      "hit": false,
      "t": 235473.33100000143,
      "d": 302.63112500001444,
      "v": 100
    },
    {
      "midi": 75,
      "hit": false,
      "t": 235789.12000000145,
      "d": 618.4201250000042,
      "v": 103
    },
    {
      "midi": 70,
      "hit": false,
      "t": 236420.69800000146,
      "d": 618.4201250000042,
      "v": 104
    },
    {
      "midi": 71,
      "hit": false,
      "t": 237052.27600000147,
      "d": 302.63112500001444,
      "v": 101
    },
    {
      "midi": 70,
      "hit": false,
      "t": 237368.0650000015,
      "d": 342.1047499999986,
      "v": 104
    },
    {
      "midi": 70,
      "hit": false,
      "t": 237999.6430000015,
      "d": 276.3153750000056,
      "v": 106
    },
    {
      "midi": 30,
      "hit": false,
      "t": 238019.37981250035,
      "d": 1855.2603750000708,
      "v": 120
    },
    {
      "midi": 42,
      "hit": false,
      "t": 238019.37981250035,
      "d": 1855.2603750000708,
      "v": 123
    },
    {
      "midi": 49,
      "hit": false,
      "t": 238019.37981250035,
      "d": 1868.4182500000752,
      "v": 120
    }
  ]
}