{
  "jsonPath": "Rock/Mod Revival/Paul Bevoir/the-survey-on-lonely-street.json",
  "path": "Rock\\Mod Revival\\Paul Bevoir\\The Survey On Lonely Street.mid",
  "name": "The Survey On Lonely Street",
  "difficulty": "Advanced",
  "bpm": 78.00017940041262,
  "notes": [
    {
      "midi": 65,
      "hit": false,
      "t": 41538.366,
      "d": 1478.3619843749984,
      "v": 98
    },
    {
      "midi": 69,
      "hit": false,
      "t": 47692.198000000004,
      "d": 1157.8499010416708,
      "v": 91
    },
    {
      "midi": 67,
      "hit": false,
      "t": 48846.04150000001,
      "d": 404.64650520833675,
      "v": 91
    },
    {
      "midi": 69,
      "hit": false,
      "t": 49230.65600000001,
      "d": 1718.7460468749996,
      "v": 89
    },
    {
      "midi": 69,
      "hit": false,
      "t": 51538.34300000001,
      "d": 1185.8947083333333,
      "v": 90
    },
    {
      "midi": 65,
      "hit": false,
      "t": 53846.030000000006,
      "d": 713.1393854166672,
      "v": 89
    },
    {
      "midi": 65,
      "hit": false,
      "t": 54615.259000000005,
      "d": 765.2225989583312,
      "v": 83
    },
    {
      "midi": 62,
      "hit": false,
      "t": 55384.488000000005,
      "d": 1654.6436302083312,
      "v": 59
    },
    {
      "midi": 67,
      "hit": false,
      "t": 60769.091,
      "d": 749.1969947916659,
      "v": 98
    },
    {
      "midi": 64,
      "hit": false,
      "t": 61538.32,
      "d": 2007.2069218749966,
      "v": 95
    },
    {
      "midi": 60,
      "hit": false,
      "t": 64615.236,
      "d": 1205.9267135416667,
      "v": 88
    },
    {
      "midi": 65,
      "hit": false,
      "t": 64615.236,
      "d": 1229.965119791661,
      "v": 89
    },
    {
      "midi": 69,
      "hit": false,
      "t": 65384.465,
      "d": 408.6529062500049,
      "v": 90
    },
    {
      "midi": 59,
      "hit": false,
      "t": 66153.69399999999,
      "d": 1117.785890625004,
      "v": 87
    },
    {
      "midi": 67,
      "hit": false,
      "t": 66153.69399999999,
      "d": 1137.81789583333,
      "v": 89
    },
    {
      "midi": 64,
      "hit": false,
      "t": 67692.15199999999,
      "d": 2600.1542760416633,
      "v": 91
    },
    {
      "midi": 60,
      "hit": false,
      "t": 67692.15199999999,
      "d": 2608.1670781249995,
      "v": 89
    },
    {
      "midi": 62,
      "hit": false,
      "t": 70769.06799999998,
      "d": 2303.680598958337,
      "v": 87
    },
    {
      "midi": 67,
      "hit": false,
      "t": 70769.06799999998,
      "d": 2696.3079010416695,
      "v": 86
    },
    {
      "midi": 59,
      "hit": false,
      "t": 73076.75499999999,
      "d": 388.6209010416642,
      "v": 87
    },
    {
      "midi": 67,
      "hit": false,
      "t": 73845.98399999998,
      "d": 1586.5348125000019,
      "v": 88
    },
    {
      "midi": 60,
      "hit": false,
      "t": 73845.98399999998,
      "d": 2704.3207031250204,
      "v": 86
    },
    {
      "midi": 64,
      "hit": false,
      "t": 75384.44199999998,
      "d": 1149.837098958349,
      "v": 87
    },
    {
      "midi": 57,
      "hit": false,
      "t": 76922.9,
      "d": 1125.7986927083257,
      "v": 86
    },
    {
      "midi": 65,
      "hit": false,
      "t": 76922.9,
      "d": 1141.8242968749983,
      "v": 88
    },
    {
      "midi": 62,
      "hit": false,
      "t": 78461.358,
      "d": 1077.721880208337,
      "v": 88
    },
    {
      "midi": 59,
      "hit": false,
      "t": 78461.358,
      "d": 1097.7538854166633,
      "v": 87
    },
    {
      "midi": 67,
      "hit": false,
      "t": 79230.587,
      "d": 304.4864791666623,
      "v": 88
    },
    {
      "midi": 64,
      "hit": false,
      "t": 79999.81599999999,
      "d": 1205.9267135416594,
      "v": 88
    },
    {
      "midi": 60,
      "hit": false,
      "t": 79999.81599999999,
      "d": 1217.9459166666638,
      "v": 87
    },
    {
      "midi": 62,
      "hit": false,
      "t": 81538.27399999999,
      "d": 1021.6322656249977,
      "v": 87
    },
    {
      "midi": 59,
      "hit": false,
      "t": 81538.27399999999,
      "d": 1073.715479166669,
      "v": 86
    },
    {
      "midi": 60,
      "hit": false,
      "t": 83076.73199999999,
      "d": 2151.437359375006,
      "v": 88
    },
    {
      "midi": 55,
      "hit": false,
      "t": 83076.73199999999,
      "d": 2159.4501614583423,
      "v": 86
    },
    {
      "midi": 60,
      "hit": false,
      "t": 86922.87700000001,
      "d": 144.23043749999488,
      "v": 99
    },
    {
      "midi": 60,
      "hit": false,
      "t": 87115.18425,
      "d": 196.31365104166616,
      "v": 97
    },
    {
      "midi": 62,
      "hit": false,
      "t": 87307.4915,
      "d": 240.38406250000116,
      "v": 101
    },
    {
      "midi": 64,
      "hit": false,
      "t": 87499.79875,
      "d": 560.896145833336,
      "v": 105
    },
    {
      "midi": 65,
      "hit": false,
      "t": 88076.72050000001,
      "d": 444.71051562498906,
      "v": 98
    },
    {
      "midi": 64,
      "hit": false,
      "t": 88461.335,
      "d": 384.61449999999604,
      "v": 103
    },
    {
      "midi": 60,
      "hit": false,
      "t": 88845.9495,
      "d": 364.5824947916699,
      "v": 100
    },
    {
      "midi": 62,
      "hit": false,
      "t": 89230.564,
      "d": 1554.4836041666713,
      "v": 97
    },
    {
      "midi": 65,
      "hit": false,
      "t": 90769.022,
      "d": 436.6977135416819,
      "v": 98
    },
    {
      "midi": 57,
      "hit": false,
      "t": 91153.63650000001,
      "d": 392.6273020833469,
      "v": 95
    },
    {
      "midi": 65,
      "hit": false,
      "t": 91538.25100000002,
      "d": 404.6465052083222,
      "v": 96
    },
    {
      "midi": 57,
      "hit": false,
      "t": 91922.86550000001,
      "d": 424.6785104166629,
      "v": 96
    },
    {
      "midi": 59,
      "hit": false,
      "t": 92307.48000000001,
      "d": 2347.751010416672,
      "v": 97
    },
    {
      "midi": 72,
      "hit": false,
      "t": 96922.85400000002,
      "d": 232.37126041666488,
      "v": 107
    },
    {
      "midi": 71,
      "hit": false,
      "t": 97115.16125000002,
      "d": 228.36485937499674,
      "v": 100
    },
    {
      "midi": 69,
      "hit": false,
      "t": 97307.46850000002,
      "d": 208.3328541666706,
      "v": 97
    },
    {
      "midi": 67,
      "hit": false,
      "t": 97499.77575000002,
      "d": 156.2496406249993,
      "v": 101
    },
    {
      "midi": 67,
      "hit": false,
      "t": 97692.08300000001,
      "d": 344.5504895833292,
      "v": 101
    },
    {
      "midi": 69,
      "hit": false,
      "t": 98076.69750000001,
      "d": 196.31365104166616,
      "v": 104
    },
    {
      "midi": 71,
      "hit": false,
      "t": 98269.00475000001,
      "d": 220.35205729166046,
      "v": 104
    },
    {
      "midi": 69,
      "hit": false,
      "t": 98461.312,
      "d": 737.1777916666615,
      "v": 101
    },
    {
      "midi": 60,
      "hit": false,
      "t": 99214.51539583334,
      "d": 384.61449999999604,
      "v": 100
    },
    {
      "midi": 62,
      "hit": false,
      "t": 99603.136296875,
      "d": 228.36485937499674,
      "v": 99
    },
    {
      "midi": 64,
      "hit": false,
      "t": 99823.48835416666,
      "d": 584.9345520833303,
      "v": 100
    },
    {
      "midi": 65,
      "hit": false,
      "t": 100420.442109375,
      "d": 200.3200520833343,
      "v": 99
    },
    {
      "midi": 64,
      "hit": false,
      "t": 100604.73655729166,
      "d": 572.9153489583405,
      "v": 99
    },
    {
      "midi": 60,
      "hit": false,
      "t": 101161.62630208333,
      "d": 364.5824947916699,
      "v": 100
    },
    {
      "midi": 62,
      "hit": false,
      "t": 101518.19599479166,
      "d": 1430.2851718750026,
      "v": 102
    },
    {
      "midi": 65,
      "hit": false,
      "t": 103080.69240104167,
      "d": 677.0817760416685,
      "v": 96
    },
    {
      "midi": 65,
      "hit": false,
      "t": 103853.92780208334,
      "d": 785.2546041666646,
      "v": 94
    },
    {
      "midi": 59,
      "hit": false,
      "t": 104619.15040104168,
      "d": 1370.189156249995,
      "v": 96
    },
    {
      "midi": 62,
      "hit": false,
      "t": 105772.99390104167,
      "d": 368.58889583333803,
      "v": 98
    },
    {
      "midi": 65,
      "hit": false,
      "t": 106137.57639583334,
      "d": 412.65930729167303,
      "v": 99
    },
    {
      "midi": 67,
      "hit": false,
      "t": 106538.21650000001,
      "d": 412.65930729167303,
      "v": 96
    },
    {
      "midi": 65,
      "hit": false,
      "t": 106918.82459895835,
      "d": 388.6209010416642,
      "v": 96
    },
    {
      "midi": 62,
      "hit": false,
      "t": 107303.43909895835,
      "d": 396.63370312500047,
      "v": 96
    },
    {
      "midi": 64,
      "hit": false,
      "t": 107688.05359895834,
      "d": 1177.8819062500115,
      "v": 93
    },
    {
      "midi": 67,
      "hit": false,
      "t": 108877.95470833336,
      "d": 352.56329166666546,
      "v": 96
    },
    {
      "midi": 64,
      "hit": false,
      "t": 109222.50519791669,
      "d": 717.1457864583354,
      "v": 94
    },
    {
      "midi": 64,
      "hit": false,
      "t": 110019.77900520836,
      "d": 629.0049635416653,
      "v": 92
    },
    {
      "midi": 64,
      "hit": false,
      "t": 110756.95679687502,
      "d": 985.574656249999,
      "v": 92
    },
    {
      "midi": 62,
      "hit": false,
      "t": 113845.89199999999,
      "d": 384.6145000000106,
      "v": 84
    },
    {
      "midi": 65,
      "hit": false,
      "t": 113845.89199999999,
      "d": 548.8769427083462,
      "v": 84
    },
    {
      "midi": 69,
      "hit": false,
      "t": 113845.89199999999,
      "d": 620.9921614583436,
      "v": 82
    },
    {
      "midi": 50,
      "hit": false,
      "t": 113845.89199999999,
      "d": 2636.211885416691,
      "v": 76
    },
    {
      "midi": 65,
      "hit": false,
      "t": 114422.81375,
      "d": 1358.1699531250051,
      "v": 64
    },
    {
      "midi": 69,
      "hit": false,
      "t": 114615.121,
      "d": 981.5682552083308,
      "v": 88
    },
    {
      "midi": 74,
      "hit": false,
      "t": 114999.7355,
      "d": 1290.0611354166904,
      "v": 90
    },
    {
      "midi": 69,
      "hit": false,
      "t": 114999.73550000002,
      "d": 376.60169791665976,
      "v": 102
    },
    {
      "midi": 77,
      "hit": false,
      "t": 115384.35000000002,
      "d": 741.1841927083296,
      "v": 97
    },
    {
      "midi": 69,
      "hit": false,
      "t": 115768.9645,
      "d": 396.633703125015,
      "v": 70
    },
    {
      "midi": 65,
      "hit": false,
      "t": 116153.57900000001,
      "d": 124.19843229166872,
      "v": 75
    },
    {
      "midi": 77,
      "hit": false,
      "t": 116153.57900000001,
      "d": 745.1905937499978,
      "v": 93
    },
    {
      "midi": 62,
      "hit": false,
      "t": 116538.19350000002,
      "d": 68.1088177083293,
      "v": 70
    },
    {
      "midi": 74,
      "hit": false,
      "t": 116922.808,
      "d": 637.0177656250016,
      "v": 93
    },
    {
      "midi": 71,
      "hit": false,
      "t": 116922.808,
      "d": 645.0305677083379,
      "v": 88
    },
    {
      "midi": 62,
      "hit": false,
      "t": 116922.80800000002,
      "d": 432.6913124999992,
      "v": 78
    },
    {
      "midi": 67,
      "hit": false,
      "t": 116922.80800000002,
      "d": 673.0753750000003,
      "v": 82
    },
    {
      "midi": 71,
      "hit": false,
      "t": 116922.80800000002,
      "d": 773.2354010416748,
      "v": 80
    },
    {
      "midi": 55,
      "hit": false,
      "t": 116922.80800000002,
      "d": 2399.8342239583435,
      "v": 75
    },
    {
      "midi": 74,
      "hit": false,
      "t": 117692.03700000001,
      "d": 312.4992812499986,
      "v": 101
    },
    {
      "midi": 67,
      "hit": false,
      "t": 117692.03700000003,
      "d": 1778.8420624999999,
      "v": 71
    },
    {
      "midi": 76,
      "hit": false,
      "t": 118076.6515,
      "d": 196.31365104166616,
      "v": 101
    },
    {
      "midi": 79,
      "hit": false,
      "t": 118076.65150000002,
      "d": 244.3904635416693,
      "v": 90
    },
    {
      "midi": 77,
      "hit": false,
      "t": 118305.016359375,
      "d": 344.5504895833292,
      "v": 97
    },
    {
      "midi": 79,
      "hit": false,
      "t": 118677.61165625,
      "d": 292.46727604167245,
      "v": 96
    },
    {
      "midi": 62,
      "hit": false,
      "t": 118845.88050000003,
      "d": 669.0689739583322,
      "v": 76
    },
    {
      "midi": 74,
      "hit": false,
      "t": 119022.16214583334,
      "d": 320.5120833333349,
      "v": 98
    },
    {
      "midi": 71,
      "hit": false,
      "t": 119230.49500000002,
      "d": 308.49288020833046,
      "v": 82
    },
    {
      "midi": 74,
      "hit": false,
      "t": 119394.75744270835,
      "d": 568.9089479166723,
      "v": 93
    },
    {
      "midi": 59,
      "hit": false,
      "t": 119615.10950000002,
      "d": 400.6401041666686,
      "v": 78
    },
    {
      "midi": 76,
      "hit": false,
      "t": 119967.67279166669,
      "d": 1554.4836041666713,
      "v": 94
    },
    {
      "midi": 64,
      "hit": false,
      "t": 119999.72400000002,
      "d": 2075.3157395833405,
      "v": 78
    },
    {
      "midi": 67,
      "hit": false,
      "t": 119999.72400000002,
      "d": 2359.7702135416766,
      "v": 82
    },
    {
      "midi": 60,
      "hit": false,
      "t": 119999.72400000002,
      "d": 2692.301500000016,
      "v": 80
    },
    {
      "midi": 72,
      "hit": false,
      "t": 119999.72400000002,
      "d": 2724.3527083333465,
      "v": 80
    },
    {
      "midi": 76,
      "hit": false,
      "t": 121538.18200000003,
      "d": 212.33925520832418,
      "v": 107
    },
    {
      "midi": 74,
      "hit": false,
      "t": 121730.48925000003,
      "d": 200.3200520833343,
      "v": 101
    },
    {
      "midi": 72,
      "hit": false,
      "t": 121922.79650000003,
      "d": 208.3328541666706,
      "v": 98
    },
    {
      "midi": 71,
      "hit": false,
      "t": 122115.10375000002,
      "d": 200.32005208334886,
      "v": 93
    },
    {
      "midi": 64,
      "hit": false,
      "t": 122307.41100000002,
      "d": 3681.8825572916685,
      "v": 82
    },
    {
      "midi": 69,
      "hit": false,
      "t": 122307.41100000004,
      "d": 376.6016979166743,
      "v": 101
    },
    {
      "midi": 67,
      "hit": false,
      "t": 122692.02550000003,
      "d": 416.6657083333266,
      "v": 84
    },
    {
      "midi": 67,
      "hit": false,
      "t": 122692.02550000005,
      "d": 376.60169791665976,
      "v": 97
    },
    {
      "midi": 69,
      "hit": false,
      "t": 123076.64000000003,
      "d": 1266.022729166667,
      "v": 86
    },
    {
      "midi": 72,
      "hit": false,
      "t": 123076.64000000003,
      "d": 1270.0291302083351,
      "v": 82
    },
    {
      "midi": 57,
      "hit": false,
      "t": 123076.64000000003,
      "d": 2780.442322916657,
      "v": 76
    },
    {
      "midi": 69,
      "hit": false,
      "t": 123076.64000000004,
      "d": 665.0625729166641,
      "v": 97
    },
    {
      "midi": 72,
      "hit": false,
      "t": 123845.86900000004,
      "d": 404.6465052083222,
      "v": 105
    },
    {
      "midi": 74,
      "hit": false,
      "t": 124230.48350000003,
      "d": 396.63370312500047,
      "v": 106
    },
    {
      "midi": 76,
      "hit": false,
      "t": 124615.09800000003,
      "d": 400.64010416668316,
      "v": 99
    },
    {
      "midi": 76,
      "hit": false,
      "t": 124999.71250000002,
      "d": 452.72331770832534,
      "v": 90
    },
    {
      "midi": 77,
      "hit": false,
      "t": 124999.71250000004,
      "d": 400.64010416668316,
      "v": 101
    },
    {
      "midi": 69,
      "hit": false,
      "t": 125384.32700000002,
      "d": 592.9473541666666,
      "v": 84
    },
    {
      "midi": 72,
      "hit": false,
      "t": 125384.32700000005,
      "d": 324.518484375003,
      "v": 101
    },
    {
      "midi": 72,
      "hit": false,
      "t": 125768.94150000004,
      "d": 348.5568906249973,
      "v": 101
    },
    {
      "midi": 65,
      "hit": false,
      "t": 126153.55600000003,
      "d": 1766.8228593749955,
      "v": 84
    },
    {
      "midi": 69,
      "hit": false,
      "t": 126153.55600000003,
      "d": 1951.1173072916572,
      "v": 88
    },
    {
      "midi": 74,
      "hit": false,
      "t": 126153.55600000003,
      "d": 2315.699802083327,
      "v": 86
    },
    {
      "midi": 50,
      "hit": false,
      "t": 126153.55600000003,
      "d": 2704.3207031249913,
      "v": 82
    },
    {
      "midi": 74,
      "hit": false,
      "t": 126153.55600000004,
      "d": 1518.4259947916726,
      "v": 91
    },
    {
      "midi": 62,
      "hit": false,
      "t": 127307.39950000003,
      "d": 1274.0355312499887,
      "v": 82
    },
    {
      "midi": 77,
      "hit": false,
      "t": 127692.01400000002,
      "d": 777.2418020833284,
      "v": 80
    },
    {
      "midi": 77,
      "hit": false,
      "t": 127692.01400000004,
      "d": 661.0561718749959,
      "v": 97
    },
    {
      "midi": 65,
      "hit": false,
      "t": 128076.62850000002,
      "d": 641.0241666666552,
      "v": 73
    },
    {
      "midi": 69,
      "hit": false,
      "t": 128461.24300000002,
      "d": 236.37766145833302,
      "v": 88
    },
    {
      "midi": 77,
      "hit": false,
      "t": 128461.24300000003,
      "d": 372.59529687500617,
      "v": 93
    },
    {
      "midi": 62,
      "hit": false,
      "t": 128845.85750000001,
      "d": 88.14082291667,
      "v": 74
    },
    {
      "midi": 69,
      "hit": false,
      "t": 128845.85750000004,
      "d": 368.58889583333803,
      "v": 90
    },
    {
      "midi": 62,
      "hit": false,
      "t": 129230.47200000001,
      "d": 1822.9124739583349,
      "v": 84
    },
    {
      "midi": 67,
      "hit": false,
      "t": 129230.47200000001,
      "d": 1971.149312499998,
      "v": 84
    },
    {
      "midi": 71,
      "hit": false,
      "t": 129230.47200000001,
      "d": 2339.7382083333505,
      "v": 82
    },
    {
      "midi": 55,
      "hit": false,
      "t": 129230.47200000001,
      "d": 2776.4359218750033,
      "v": 78
    },
    {
      "midi": 71,
      "hit": false,
      "t": 129230.47200000005,
      "d": 665.0625729166641,
      "v": 80
    },
    {
      "midi": 67,
      "hit": false,
      "t": 129230.47200000005,
      "d": 673.0753750000003,
      "v": 84
    },
    {
      "midi": 71,
      "hit": false,
      "t": 129999.70100000006,
      "d": 444.71051562498906,
      "v": 106
    },
    {
      "midi": 74,
      "hit": false,
      "t": 130384.31550000001,
      "d": 1157.8499010416708,
      "v": 88
    },
    {
      "midi": 72,
      "hit": false,
      "t": 130384.31550000006,
      "d": 392.6273020833323,
      "v": 98
    },
    {
      "midi": 74,
      "hit": false,
      "t": 130768.93000000005,
      "d": 124.19843229166872,
      "v": 106
    },
    {
      "midi": 74,
      "hit": false,
      "t": 130961.23725000005,
      "d": 216.34565625000687,
      "v": 88
    },
    {
      "midi": 62,
      "hit": false,
      "t": 131153.54450000002,
      "d": 857.3698229166621,
      "v": 80
    },
    {
      "midi": 76,
      "hit": false,
      "t": 131153.54450000005,
      "d": 384.61449999999604,
      "v": 97
    },
    {
      "midi": 67,
      "hit": false,
      "t": 131538.159,
      "d": 428.6849114583456,
      "v": 75
    },
    {
      "midi": 74,
      "hit": false,
      "t": 131538.15900000004,
      "d": 392.6273020833323,
      "v": 93
    },
    {
      "midi": 71,
      "hit": false,
      "t": 131922.77350000004,
      "d": 424.67851041661925,
      "v": 88
    },
    {
      "midi": 71,
      "hit": false,
      "t": 131922.77350000004,
      "d": 400.6401041666686,
      "v": 84
    },
    {
      "midi": 64,
      "hit": false,
      "t": 132307.388,
      "d": 2776.435921874974,
      "v": 76
    },
    {
      "midi": 67,
      "hit": false,
      "t": 132307.388,
      "d": 2776.435921874974,
      "v": 86
    },
    {
      "midi": 72,
      "hit": false,
      "t": 132307.388,
      "d": 2788.4551249999786,
      "v": 80
    },
    {
      "midi": 60,
      "hit": false,
      "t": 132307.388,
      "d": 2804.480729166651,
      "v": 88
    },
    {
      "midi": 64,
      "hit": false,
      "t": 132307.38800000004,
      "d": 2223.5525781250035,
      "v": 94
    },
    {
      "midi": 72,
      "hit": false,
      "t": 132307.38800000004,
      "d": 2235.571781250008,
      "v": 101
    },
    {
      "midi": 64,
      "hit": false,
      "t": 135384.304,
      "d": 2007.2069218750112,
      "v": 95
    },
    {
      "midi": 60,
      "hit": false,
      "t": 138461.22,
      "d": 1205.926713541674,
      "v": 88
    },
    {
      "midi": 65,
      "hit": false,
      "t": 138461.22,
      "d": 1229.9651197916828,
      "v": 89
    },
    {
      "midi": 69,
      "hit": false,
      "t": 139230.449,
      "d": 408.6529062500049,
      "v": 90
    },
    {
      "midi": 59,
      "hit": false,
      "t": 139999.67800000004,
      "d": 1117.785890625004,
      "v": 87
    },
    {
      "midi": 67,
      "hit": false,
      "t": 139999.67800000004,
      "d": 1137.8178958333447,
      "v": 89
    },
    {
      "midi": 64,
      "hit": false,
      "t": 141538.13600000006,
      "d": 2600.1542760416633,
      "v": 91
    },
    {
      "midi": 60,
      "hit": false,
      "t": 141538.13600000006,
      "d": 2608.1670781249995,
      "v": 89
    },
    {
      "midi": 62,
      "hit": false,
      "t": 144615.05200000005,
      "d": 2303.680598958337,
      "v": 87
    },
    {
      "midi": 67,
      "hit": false,
      "t": 144615.05200000005,
      "d": 2696.3079010416695,
      "v": 86
    },
    {
      "midi": 59,
      "hit": false,
      "t": 146922.73900000006,
      "d": 388.6209010416642,
      "v": 87
    },
    {
      "midi": 67,
      "hit": false,
      "t": 147691.96800000005,
      "d": 1586.5348125000019,
      "v": 88
    },
    {
      "midi": 60,
      "hit": false,
      "t": 147691.96800000005,
      "d": 2704.320703125006,
      "v": 86
    },
    {
      "midi": 64,
      "hit": false,
      "t": 149230.42600000006,
      "d": 1149.83709895832,
      "v": 87
    },
    {
      "midi": 57,
      "hit": false,
      "t": 150768.88400000005,
      "d": 1125.7986927083402,
      "v": 86
    },
    {
      "midi": 65,
      "hit": false,
      "t": 150768.88400000005,
      "d": 1141.8242968750128,
      "v": 88
    },
    {
      "midi": 62,
      "hit": false,
      "t": 152307.34200000006,
      "d": 1077.7218802083225,
      "v": 88
    },
    {
      "midi": 59,
      "hit": false,
      "t": 152307.34200000006,
      "d": 1097.7538854166633,
      "v": 87
    },
    {
      "midi": 67,
      "hit": false,
      "t": 153076.57100000005,
      "d": 304.4864791666623,
      "v": 88
    },
    {
      "midi": 64,
      "hit": false,
      "t": 153845.80000000008,
      "d": 1205.926713541674,
      "v": 88
    },
    {
      "midi": 60,
      "hit": false,
      "t": 153845.80000000008,
      "d": 1217.9459166666784,
      "v": 87
    },
    {
      "midi": 62,
      "hit": false,
      "t": 155384.2580000001,
      "d": 1021.6322656250268,
      "v": 87
    },
    {
      "midi": 59,
      "hit": false,
      "t": 155384.2580000001,
      "d": 1073.7154791666835,
      "v": 86
    },
    {
      "midi": 60,
      "hit": false,
      "t": 156922.7160000001,
      "d": 2151.437359375006,
      "v": 88
    },
    {
      "midi": 55,
      "hit": false,
      "t": 156922.7160000001,
      "d": 2159.4501614583423,
      "v": 86
    },
    {
      "midi": 64,
      "hit": false,
      "t": 160027.67680729178,
      "d": 588.940953125013,
      "v": 98
    },
    {
      "midi": 72,
      "hit": false,
      "t": 160027.67680729178,
      "d": 1766.82285937501,
      "v": 94
    },
    {
      "midi": 69,
      "hit": false,
      "t": 160027.67680729178,
      "d": 1899.0340937500296,
      "v": 102
    },
    {
      "midi": 57,
      "hit": false,
      "t": 160031.68320833344,
      "d": 2271.629390625021,
      "v": 111
    },
    {
      "midi": 64,
      "hit": false,
      "t": 160776.87380208346,
      "d": 829.3250156249851,
      "v": 86
    },
    {
      "midi": 76,
      "hit": false,
      "t": 161141.4562968751,
      "d": 1189.9011093750305,
      "v": 115
    },
    {
      "midi": 64,
      "hit": false,
      "t": 161898.66609375013,
      "d": 460.7361197916907,
      "v": 98
    },
    {
      "midi": 69,
      "hit": false,
      "t": 162303.31259895847,
      "d": 96.15362500000629,
      "v": 94
    },
    {
      "midi": 57,
      "hit": false,
      "t": 162703.95270312513,
      "d": 96.15362500000629,
      "v": 82
    },
    {
      "midi": 69,
      "hit": false,
      "t": 163088.56720312516,
      "d": 1598.5540156250063,
      "v": 102
    },
    {
      "midi": 72,
      "hit": false,
      "t": 163088.56720312516,
      "d": 1951.1173072916572,
      "v": 102
    },
    {
      "midi": 65,
      "hit": false,
      "t": 163092.57360416683,
      "d": 568.9089479166723,
      "v": 94
    },
    {
      "midi": 53,
      "hit": false,
      "t": 163092.57360416683,
      "d": 2267.622989583324,
      "v": 102
    },
    {
      "midi": 65,
      "hit": false,
      "t": 163841.7705989585,
      "d": 608.9729583333246,
      "v": 78
    },
    {
      "midi": 77,
      "hit": false,
      "t": 164214.3658958335,
      "d": 1205.9267135416449,
      "v": 102
    },
    {
      "midi": 65,
      "hit": false,
      "t": 164594.97399479183,
      "d": 941.504244791664,
      "v": 85
    },
    {
      "midi": 69,
      "hit": false,
      "t": 164995.6140989585,
      "d": 536.8577395833272,
      "v": 88
    },
    {
      "midi": 72,
      "hit": false,
      "t": 165380.2285989585,
      "d": 148.23683854166302,
      "v": 102
    },
    {
      "midi": 53,
      "hit": false,
      "t": 165760.83669791682,
      "d": 108.17282812501071,
      "v": 85
    },
    {
      "midi": 67,
      "hit": false,
      "t": 166161.4768020835,
      "d": 408.6529062500049,
      "v": 102
    },
    {
      "midi": 72,
      "hit": false,
      "t": 166161.4768020835,
      "d": 424.67851041667745,
      "v": 102
    },
    {
      "midi": 64,
      "hit": false,
      "t": 166165.48320312516,
      "d": 388.6209010416642,
      "v": 102
    },
    {
      "midi": 48,
      "hit": false,
      "t": 166177.50240625016,
      "d": 2648.231088541652,
      "v": 115
    },
    {
      "midi": 67,
      "hit": false,
      "t": 166934.71220312518,
      "d": 496.7937291666458,
      "v": 94
    },
    {
      "midi": 79,
      "hit": false,
      "t": 167311.31390104184,
      "d": 1205.9267135416158,
      "v": 111
    },
    {
      "midi": 60,
      "hit": false,
      "t": 167311.31390104184,
      "d": 1278.0419322916132,
      "v": 85
    },
    {
      "midi": 67,
      "hit": false,
      "t": 167719.9668072918,
      "d": 913.459437499987,
      "v": 86
    },
    {
      "midi": 72,
      "hit": false,
      "t": 168092.5621041668,
      "d": 532.8513385416591,
      "v": 106
    },
    {
      "midi": 76,
      "hit": false,
      "t": 168469.16380208347,
      "d": 196.3136510416807,
      "v": 111
    },
    {
      "midi": 60,
      "hit": false,
      "t": 168849.77190104182,
      "d": 96.15362500000629,
      "v": 86
    },
    {
      "midi": 71,
      "hit": false,
      "t": 169218.36079687517,
      "d": 785.2546041666646,
      "v": 106
    },
    {
      "midi": 55,
      "hit": false,
      "t": 169218.36079687517,
      "d": 2844.5447395833035,
      "v": 102
    },
    {
      "midi": 67,
      "hit": false,
      "t": 169222.36719791684,
      "d": 508.8129322916502,
      "v": 98
    },
    {
      "midi": 74,
      "hit": false,
      "t": 169222.36719791684,
      "d": 777.2418020833284,
      "v": 98
    },
    {
      "midi": 67,
      "hit": false,
      "t": 170011.62820312518,
      "d": 1189.9011093750014,
      "v": 86
    },
    {
      "midi": 69,
      "hit": false,
      "t": 170384.22350000017,
      "d": 464.74252083335887,
      "v": 106
    },
    {
      "midi": 71,
      "hit": false,
      "t": 170760.82519791686,
      "d": 745.1905937499832,
      "v": 94
    },
    {
      "midi": 74,
      "hit": false,
      "t": 171153.4525000002,
      "d": 556.8897447916388,
      "v": 90
    },
    {
      "midi": 64,
      "hit": false,
      "t": 171502.00939062517,
      "d": 1358.169953124976,
      "v": 86
    },
    {
      "midi": 72,
      "hit": false,
      "t": 171910.66229687515,
      "d": 1153.8434999999881,
      "v": 90
    },
    {
      "midi": 69,
      "hit": false,
      "t": 172307.29600000015,
      "d": 761.2161979166558,
      "v": 102
    },
    {
      "midi": 57,
      "hit": false,
      "t": 172315.30880208348,
      "d": 2275.63579166666,
      "v": 102
    },
    {
      "midi": 64,
      "hit": false,
      "t": 173104.56980729182,
      "d": 484.77452604167047,
      "v": 85
    },
    {
      "midi": 76,
      "hit": false,
      "t": 173453.12669791683,
      "d": 1169.8691041666607,
      "v": 102
    },
    {
      "midi": 64,
      "hit": false,
      "t": 173897.83721354182,
      "d": 881.4082291666709,
      "v": 83
    },
    {
      "midi": 69,
      "hit": false,
      "t": 174222.35569791682,
      "d": 568.9089479166723,
      "v": 88
    },
    {
      "midi": 72,
      "hit": false,
      "t": 174614.98300000015,
      "d": 236.37766145833302,
      "v": 106
    },
    {
      "midi": 57,
      "hit": false,
      "t": 174971.55269270847,
      "d": 104.16642708334257,
      "v": 75
    },
    {
      "midi": 65,
      "hit": false,
      "t": 175388.21840104184,
      "d": 552.8833437499998,
      "v": 94
    },
    {
      "midi": 69,
      "hit": false,
      "t": 175388.21840104184,
      "d": 1622.592421874986,
      "v": 102
    },
    {
      "midi": 72,
      "hit": false,
      "t": 175388.21840104184,
      "d": 1903.0404947916395,
      "v": 102
    },
    {
      "midi": 53,
      "hit": false,
      "t": 175388.21840104184,
      "d": 2339.7382083332923,
      "v": 88
    },
    {
      "midi": 65,
      "hit": false,
      "t": 176169.46660416684,
      "d": 592.9473541666521,
      "v": 83
    },
    {
      "midi": 77,
      "hit": false,
      "t": 176530.04269791683,
      "d": 1254.0035260416334,
      "v": 102
    },
    {
      "midi": 65,
      "hit": false,
      "t": 176906.6443958335,
      "d": 969.5490520833118,
      "v": 86
    },
    {
      "midi": 69,
      "hit": false,
      "t": 177303.2780989585,
      "d": 568.9089479166432,
      "v": 90
    },
    {
      "midi": 72,
      "hit": false,
      "t": 177671.8669947918,
      "d": 172.27524479164276,
      "v": 106
    },
    {
      "midi": 53,
      "hit": false,
      "t": 178052.47509375014,
      "d": 144.23043749999488,
      "v": 90
    },
    {
      "midi": 72,
      "hit": false,
      "t": 178449.10879687514,
      "d": 721.1521875000035,
      "v": 102
    },
    {
      "midi": 67,
      "hit": false,
      "t": 178453.1151979168,
      "d": 624.9985624999972,
      "v": 102
    },
    {
      "midi": 64,
      "hit": false,
      "t": 178457.12159895847,
      "d": 472.75532291666605,
      "v": 94
    },
    {
      "midi": 60,
      "hit": false,
      "t": 178473.14720312515,
      "d": 2732.3655104166246,
      "v": 88
    },
    {
      "midi": 67,
      "hit": false,
      "t": 179242.37620312514,
      "d": 2195.5077708332974,
      "v": 90
    },
    {
      "midi": 64,
      "hit": false,
      "t": 179602.95229687513,
      "d": 937.4978437499958,
      "v": 78
    },
    {
      "midi": 76,
      "hit": false,
      "t": 180364.16849479178,
      "d": 773.2354010416602,
      "v": 94
    },
    {
      "midi": 64,
      "hit": false,
      "t": 180768.81500000012,
      "d": 444.71051562498906,
      "v": 88
    },
    {
      "midi": 72,
      "hit": false,
      "t": 181165.44870312512,
      "d": 316.50568229163764,
      "v": 86
    },
    {
      "midi": 71,
      "hit": false,
      "t": 181534.03759895844,
      "d": 901.4402343750116,
      "v": 94
    },
    {
      "midi": 55,
      "hit": false,
      "t": 181538.0440000001,
      "d": 2700.314302083367,
      "v": 98
    },
    {
      "midi": 67,
      "hit": false,
      "t": 181546.05680208345,
      "d": 641.0241666666698,
      "v": 94
    },
    {
      "midi": 74,
      "hit": false,
      "t": 181546.05680208345,
      "d": 893.4274322916754,
      "v": 88
    },
    {
      "midi": 67,
      "hit": false,
      "t": 182335.31780729178,
      "d": 1185.8947083333624,
      "v": 90
    },
    {
      "midi": 71,
      "hit": false,
      "t": 182703.90670312513,
      "d": 1177.881906249997,
      "v": 94
    },
    {
      "midi": 74,
      "hit": false,
      "t": 183425.05889062514,
      "d": 841.3442187500186,
      "v": 88
    },
    {
      "midi": 67,
      "hit": false,
      "t": 183833.71179687514,
      "d": 476.7617239583342,
      "v": 82
    },
    {
      "midi": 71,
      "hit": false,
      "t": 184226.33909895847,
      "d": 360.5760937500163,
      "v": 85
    },
    {
      "midi": 69,
      "hit": false,
      "t": 184602.94079687516,
      "d": 544.8705416666635,
      "v": 88
    },
    {
      "midi": 72,
      "hit": false,
      "t": 184602.94079687516,
      "d": 641.0241666666698,
      "v": 94
    },
    {
      "midi": 65,
      "hit": false,
      "t": 184606.94719791683,
      "d": 356.56969270831905,
      "v": 102
    },
    {
      "midi": 53,
      "hit": false,
      "t": 184610.9535989585,
      "d": 2744.384713541658,
      "v": 115
    },
    {
      "midi": 69,
      "hit": false,
      "t": 185412.23380729184,
      "d": 384.61449999999604,
      "v": 86
    },
    {
      "midi": 77,
      "hit": false,
      "t": 185748.77149479184,
      "d": 877.4018281250028,
      "v": 111
    },
    {
      "midi": 69,
      "hit": false,
      "t": 186129.37959375017,
      "d": 865.3826249999984,
      "v": 83
    },
    {
      "midi": 72,
      "hit": false,
      "t": 186542.03890104184,
      "d": 677.0817760416539,
      "v": 90
    },
    {
      "midi": 77,
      "hit": false,
      "t": 186922.64700000017,
      "d": 364.58249479165534,
      "v": 82
    },
    {
      "midi": 65,
      "hit": false,
      "t": 187335.30630729182,
      "d": 104.16642708334257,
      "v": 85
    },
    {
      "midi": 55,
      "hit": false,
      "t": 187699.8888020835,
      "d": 2479.962244791648,
      "v": 102
    },
    {
      "midi": 71,
      "hit": false,
      "t": 187703.89520312517,
      "d": 1634.6116249999905,
      "v": 106
    },
    {
      "midi": 74,
      "hit": false,
      "t": 187703.89520312517,
      "d": 1963.1365104166616,
      "v": 102
    },
    {
      "midi": 67,
      "hit": false,
      "t": 187707.90160416684,
      "d": 608.9729583333246,
      "v": 98
    },
    {
      "midi": 67,
      "hit": false,
      "t": 188449.08579687515,
      "d": 657.0497708333423,
      "v": 82
    },
    {
      "midi": 79,
      "hit": false,
      "t": 188845.71950000015,
      "d": 1846.9508802083146,
      "v": 94
    },
    {
      "midi": 67,
      "hit": false,
      "t": 189214.3083958335,
      "d": 1498.3939895833028,
      "v": 81
    },
    {
      "midi": 71,
      "hit": false,
      "t": 189614.94850000017,
      "d": 1085.7346822916297,
      "v": 85
    },
    {
      "midi": 74,
      "hit": false,
      "t": 189979.53099479183,
      "d": 729.1649895833107,
      "v": 90
    },
    {
      "midi": 55,
      "hit": false,
      "t": 190392.19030208347,
      "d": 328.52488541667117,
      "v": 83
    },
    {
      "midi": 55,
      "hit": false,
      "t": 190768.79200000013,
      "d": 2275.63579166666,
      "v": 83
    },
    {
      "midi": 64,
      "hit": false,
      "t": 190768.79200000013,
      "d": 2283.6485937499965,
      "v": 95
    },
    {
      "midi": 60,
      "hit": false,
      "t": 190768.79200000013,
      "d": 2287.6549947916646,
      "v": 89
    },
    {
      "midi": 60,
      "hit": false,
      "t": 193845.70800000013,
      "d": 1205.926713541674,
      "v": 88
    },
    {
      "midi": 65,
      "hit": false,
      "t": 193845.70800000013,
      "d": 1229.9651197916828,
      "v": 89
    },
    {
      "midi": 69,
      "hit": false,
      "t": 194614.93700000012,
      "d": 408.6529062500049,
      "v": 90
    },
    {
      "midi": 59,
      "hit": false,
      "t": 195384.16600000017,
      "d": 1117.785890625004,
      "v": 87
    },
    {
      "midi": 67,
      "hit": false,
      "t": 195384.16600000017,
      "d": 1137.8178958333447,
      "v": 89
    },
    {
      "midi": 64,
      "hit": false,
      "t": 196922.62400000019,
      "d": 2600.1542760416633,
      "v": 91
    },
    {
      "midi": 60,
      "hit": false,
      "t": 196922.62400000019,
      "d": 2608.1670781249995,
      "v": 89
    },
    {
      "midi": 62,
      "hit": false,
      "t": 199999.54000000018,
      "d": 2303.680598958337,
      "v": 87
    },
    {
      "midi": 67,
      "hit": false,
      "t": 199999.54000000018,
      "d": 2696.3079010416695,
      "v": 86
    },
    {
      "midi": 59,
      "hit": false,
      "t": 202307.2270000002,
      "d": 388.6209010416642,
      "v": 87
    },
    {
      "midi": 67,
      "hit": false,
      "t": 203076.45600000018,
      "d": 1586.5348125000019,
      "v": 88
    },
    {
      "midi": 60,
      "hit": false,
      "t": 203076.45600000018,
      "d": 2704.320703125006,
      "v": 86
    },
    {
      "midi": 64,
      "hit": false,
      "t": 204614.9140000002,
      "d": 1149.83709895832,
      "v": 87
    },
    {
      "midi": 57,
      "hit": false,
      "t": 206153.37200000018,
      "d": 1125.7986927083402,
      "v": 86
    },
    {
      "midi": 65,
      "hit": false,
      "t": 206153.37200000018,
      "d": 1141.8242968750128,
      "v": 88
    },
    {
      "midi": 62,
      "hit": false,
      "t": 207691.8300000002,
      "d": 1077.7218802083225,
      "v": 88
    },
    {
      "midi": 59,
      "hit": false,
      "t": 207691.8300000002,
      "d": 1097.7538854166633,
      "v": 87
    },
    {
      "midi": 67,
      "hit": false,
      "t": 208461.05900000018,
      "d": 304.4864791666623,
      "v": 88
    },
    {
      "midi": 64,
      "hit": false,
      "t": 209230.2880000002,
      "d": 1205.926713541674,
      "v": 88
    },
    {
      "midi": 60,
      "hit": false,
      "t": 209230.2880000002,
      "d": 1217.9459166666784,
      "v": 87
    },
    {
      "midi": 62,
      "hit": false,
      "t": 210768.74600000022,
      "d": 1021.6322656250268,
      "v": 87
    },
    {
      "midi": 59,
      "hit": false,
      "t": 210768.74600000022,
      "d": 1073.7154791666835,
      "v": 86
    },
    {
      "midi": 60,
      "hit": false,
      "t": 212307.20400000023,
      "d": 1506.4067916666681,
      "v": 88
    },
    {
      "midi": 57,
      "hit": false,
      "t": 212307.20400000023,
      "d": 1514.4195937500044,
      "v": 86
    },
    {
      "midi": 57,
      "hit": false,
      "t": 213845.66200000024,
      "d": 1157.8499010416854,
      "v": 89
    },
    {
      "midi": 65,
      "hit": false,
      "t": 213845.66200000024,
      "d": 1165.8627031250217,
      "v": 85
    },
    {
      "midi": 60,
      "hit": false,
      "t": 215384.12000000026,
      "d": 1105.7666874999995,
      "v": 94
    },
    {
      "midi": 64,
      "hit": false,
      "t": 215384.12000000026,
      "d": 1113.7794895833358,
      "v": 93
    },
    {
      "midi": 67,
      "hit": false,
      "t": 216922.57800000027,
      "d": 1125.7986927083111,
      "v": 85
    },
    {
      "midi": 59,
      "hit": false,
      "t": 216922.57800000027,
      "d": 1129.8050937499793,
      "v": 89
    },
    {
      "midi": 60,
      "hit": false,
      "t": 218461.03600000025,
      "d": 3124.992812499986,
      "v": 93
    },
    {
      "midi": 64,
      "hit": false,
      "t": 218461.03600000025,
      "d": 3124.992812499986,
      "v": 95
    }
  ]
}