{
  "jsonPath": "Rock/Pop Rock/Joan Osborne/alone-with-you-album-version.json",
  "path": "Rock\\Pop Rock\\Joan Osborne\\Alone with You (Album Version).mid",
  "name": "Alone with You (Album Version)",
  "difficulty": "Advanced",
  "bpm": 104.0005546696249,
  "notes": [
    {
      "midi": 68,
      "hit": false,
      "t": 4615.36,
      "d": 486.7762499999999,
      "v": 100
    },
    {
      "midi": 63,
      "hit": false,
      "t": 4615.36,
      "d": 528.8433333333332,
      "v": 92
    },
    {
      "midi": 71,
      "hit": false,
      "t": 4615.36,
      "d": 552.8816666666662,
      "v": 100
    },
    {
      "midi": 52,
      "hit": false,
      "t": 4615.36,
      "d": 1748.7887499999988,
      "v": 96
    },
    {
      "midi": 59,
      "hit": false,
      "t": 4615.36,
      "d": 1754.7983333333323,
      "v": 86
    },
    {
      "midi": 63,
      "hit": false,
      "t": 5192.28,
      "d": 303.48395833333325,
      "v": 114
    },
    {
      "midi": 75,
      "hit": false,
      "t": 5192.28,
      "d": 303.48395833333325,
      "v": 114
    },
    {
      "midi": 71,
      "hit": false,
      "t": 5480.739999999999,
      "d": 603.9631249999993,
      "v": 100
    },
    {
      "midi": 66,
      "hit": false,
      "t": 5480.739999999999,
      "d": 640.0206249999992,
      "v": 112
    },
    {
      "midi": 63,
      "hit": false,
      "t": 5769.2,
      "d": 291.4647916666663,
      "v": 114
    },
    {
      "midi": 75,
      "hit": false,
      "t": 5769.2,
      "d": 291.4647916666663,
      "v": 114
    },
    {
      "midi": 59,
      "hit": false,
      "t": 6057.66,
      "d": 432.6899999999996,
      "v": 109
    },
    {
      "midi": 71,
      "hit": false,
      "t": 6057.66,
      "d": 432.6899999999996,
      "v": 109
    },
    {
      "midi": 59,
      "hit": false,
      "t": 6634.579999999999,
      "d": 318.50791666666646,
      "v": 118
    },
    {
      "midi": 71,
      "hit": false,
      "t": 6634.579999999999,
      "d": 318.50791666666646,
      "v": 118
    },
    {
      "midi": 56,
      "hit": false,
      "t": 6778.809999999999,
      "d": 766.2218749999993,
      "v": 62
    },
    {
      "midi": 52,
      "hit": false,
      "t": 6778.809999999999,
      "d": 982.5668749999995,
      "v": 68
    },
    {
      "midi": 59,
      "hit": false,
      "t": 6923.039999999998,
      "d": 979.5620833333332,
      "v": 68
    },
    {
      "midi": 68,
      "hit": false,
      "t": 6923.039999999998,
      "d": 1060.6914583333337,
      "v": 85
    },
    {
      "midi": 63,
      "hit": false,
      "t": 6923.039999999998,
      "d": 1159.8495833333336,
      "v": 85
    },
    {
      "midi": 56,
      "hit": false,
      "t": 6923.039999999999,
      "d": 1340.137083333333,
      "v": 105
    },
    {
      "midi": 68,
      "hit": false,
      "t": 6923.039999999999,
      "d": 1340.137083333333,
      "v": 105
    },
    {
      "midi": 56,
      "hit": false,
      "t": 8653.8,
      "d": 285.45520833333285,
      "v": 119
    },
    {
      "midi": 68,
      "hit": false,
      "t": 8653.8,
      "d": 285.45520833333285,
      "v": 119
    },
    {
      "midi": 52,
      "hit": false,
      "t": 8942.259999999998,
      "d": 348.555833333332,
      "v": 112
    },
    {
      "midi": 64,
      "hit": false,
      "t": 8942.259999999998,
      "d": 348.555833333332,
      "v": 112
    },
    {
      "midi": 66,
      "hit": false,
      "t": 9230.719999999998,
      "d": 429.6852083333324,
      "v": 87
    },
    {
      "midi": 69,
      "hit": false,
      "t": 9230.719999999998,
      "d": 432.6899999999987,
      "v": 90
    },
    {
      "midi": 61,
      "hit": false,
      "t": 9230.719999999998,
      "d": 441.70437499999935,
      "v": 81
    },
    {
      "midi": 54,
      "hit": false,
      "t": 9230.719999999998,
      "d": 1144.8256249999995,
      "v": 61
    },
    {
      "midi": 49,
      "hit": false,
      "t": 9230.719999999998,
      "d": 1153.8400000000001,
      "v": 62
    },
    {
      "midi": 57,
      "hit": false,
      "t": 9230.719999999998,
      "d": 1177.878333333334,
      "v": 70
    },
    {
      "midi": 54,
      "hit": false,
      "t": 9230.719999999998,
      "d": 225.359375,
      "v": 119
    },
    {
      "midi": 66,
      "hit": false,
      "t": 9230.719999999998,
      "d": 225.359375,
      "v": 119
    },
    {
      "midi": 54,
      "hit": false,
      "t": 9519.179999999997,
      "d": 1727.755208333334,
      "v": 94
    },
    {
      "midi": 66,
      "hit": false,
      "t": 9519.179999999997,
      "d": 1727.755208333334,
      "v": 94
    },
    {
      "midi": 64,
      "hit": false,
      "t": 10096.099999999997,
      "d": 183.29229166666664,
      "v": 96
    },
    {
      "midi": 69,
      "hit": false,
      "t": 10096.099999999997,
      "d": 219.34979166666744,
      "v": 93
    },
    {
      "midi": 69,
      "hit": false,
      "t": 10961.479999999998,
      "d": 123.1964583333338,
      "v": 118
    },
    {
      "midi": 71,
      "hit": false,
      "t": 11249.939999999999,
      "d": 96.15333333333365,
      "v": 109
    },
    {
      "midi": 73,
      "hit": false,
      "t": 11538.399999999998,
      "d": 606.9679166666665,
      "v": 112
    },
    {
      "midi": 75,
      "hit": false,
      "t": 12115.319999999998,
      "d": 573.9152083333338,
      "v": 108
    },
    {
      "midi": 76,
      "hit": false,
      "t": 12692.239999999998,
      "d": 603.9631250000002,
      "v": 100
    },
    {
      "midi": 78,
      "hit": false,
      "t": 13269.159999999998,
      "d": 96.15333333333365,
      "v": 117
    },
    {
      "midi": 68,
      "hit": false,
      "t": 13846.079999999998,
      "d": 618.9870833333334,
      "v": 97
    },
    {
      "midi": 63,
      "hit": false,
      "t": 13846.079999999998,
      "d": 661.0541666666668,
      "v": 94
    },
    {
      "midi": 71,
      "hit": false,
      "t": 13846.079999999998,
      "d": 709.1308333333327,
      "v": 94
    },
    {
      "midi": 52,
      "hit": false,
      "t": 13846.079999999998,
      "d": 2379.7949999999983,
      "v": 84
    },
    {
      "midi": 59,
      "hit": false,
      "t": 13846.079999999998,
      "d": 2385.804583333331,
      "v": 69
    },
    {
      "midi": 63,
      "hit": false,
      "t": 14422.999999999996,
      "d": 303.48395833333416,
      "v": 114
    },
    {
      "midi": 75,
      "hit": false,
      "t": 14422.999999999996,
      "d": 303.48395833333416,
      "v": 114
    },
    {
      "midi": 71,
      "hit": false,
      "t": 14711.459999999997,
      "d": 931.4854166666664,
      "v": 98
    },
    {
      "midi": 66,
      "hit": false,
      "t": 14711.459999999997,
      "d": 1015.6195833333331,
      "v": 104
    },
    {
      "midi": 63,
      "hit": false,
      "t": 14999.919999999996,
      "d": 291.4647916666654,
      "v": 114
    },
    {
      "midi": 75,
      "hit": false,
      "t": 14999.919999999996,
      "d": 291.4647916666654,
      "v": 114
    },
    {
      "midi": 59,
      "hit": false,
      "t": 15288.379999999996,
      "d": 432.6900000000005,
      "v": 109
    },
    {
      "midi": 71,
      "hit": false,
      "t": 15288.379999999996,
      "d": 432.6900000000005,
      "v": 109
    },
    {
      "midi": 59,
      "hit": false,
      "t": 15865.299999999996,
      "d": 318.50791666666555,
      "v": 118
    },
    {
      "midi": 71,
      "hit": false,
      "t": 15865.299999999996,
      "d": 318.50791666666555,
      "v": 118
    },
    {
      "midi": 56,
      "hit": false,
      "t": 16153.759999999995,
      "d": 1340.1370833333349,
      "v": 105
    },
    {
      "midi": 68,
      "hit": false,
      "t": 16153.759999999995,
      "d": 1340.1370833333349,
      "v": 105
    },
    {
      "midi": 68,
      "hit": false,
      "t": 16730.679999999993,
      "d": 357.57020833333445,
      "v": 92
    },
    {
      "midi": 64,
      "hit": false,
      "t": 16730.679999999993,
      "d": 381.6085416666683,
      "v": 94
    },
    {
      "midi": 71,
      "hit": false,
      "t": 16730.679999999993,
      "d": 390.62291666666715,
      "v": 94
    },
    {
      "midi": 59,
      "hit": false,
      "t": 16730.679999999993,
      "d": 1069.7058333333334,
      "v": 68
    },
    {
      "midi": 52,
      "hit": false,
      "t": 16730.679999999993,
      "d": 1105.7633333333324,
      "v": 75
    },
    {
      "midi": 66,
      "hit": false,
      "t": 17307.599999999995,
      "d": 192.3066666666673,
      "v": 104
    },
    {
      "midi": 71,
      "hit": false,
      "t": 17307.599999999995,
      "d": 402.64208333333227,
      "v": 84
    },
    {
      "midi": 64,
      "hit": false,
      "t": 17884.519999999993,
      "d": 111.17729166666686,
      "v": 98
    },
    {
      "midi": 56,
      "hit": false,
      "t": 17884.519999999997,
      "d": 285.45520833333285,
      "v": 119
    },
    {
      "midi": 68,
      "hit": false,
      "t": 17884.519999999997,
      "d": 285.45520833333285,
      "v": 119
    },
    {
      "midi": 52,
      "hit": false,
      "t": 18172.979999999996,
      "d": 348.555833333332,
      "v": 112
    },
    {
      "midi": 64,
      "hit": false,
      "t": 18172.979999999996,
      "d": 348.555833333332,
      "v": 112
    },
    {
      "midi": 45,
      "hit": false,
      "t": 18461.439999999995,
      "d": 156.24916666666832,
      "v": 77
    },
    {
      "midi": 57,
      "hit": false,
      "t": 18461.439999999995,
      "d": 459.7331250000025,
      "v": 82
    },
    {
      "midi": 61,
      "hit": false,
      "t": 18461.439999999995,
      "d": 477.7618750000038,
      "v": 77
    },
    {
      "midi": 64,
      "hit": false,
      "t": 18461.439999999995,
      "d": 489.7810416666689,
      "v": 80
    },
    {
      "midi": 54,
      "hit": false,
      "t": 18461.439999999995,
      "d": 225.359375,
      "v": 119
    },
    {
      "midi": 66,
      "hit": false,
      "t": 18461.439999999995,
      "d": 225.359375,
      "v": 119
    },
    {
      "midi": 54,
      "hit": false,
      "t": 18749.899999999994,
      "d": 1727.7552083333321,
      "v": 94
    },
    {
      "midi": 66,
      "hit": false,
      "t": 18749.899999999994,
      "d": 1727.7552083333321,
      "v": 94
    },
    {
      "midi": 66,
      "hit": false,
      "t": 19326.819999999996,
      "d": 126.20124999999825,
      "v": 79
    },
    {
      "midi": 61,
      "hit": false,
      "t": 19326.819999999996,
      "d": 141.22520833333328,
      "v": 77
    },
    {
      "midi": 64,
      "hit": false,
      "t": 20769.119999999995,
      "d": 369.58937499999956,
      "v": 100
    },
    {
      "midi": 61,
      "hit": false,
      "t": 21634.499999999996,
      "d": 679.0829166666663,
      "v": 76
    },
    {
      "midi": 64,
      "hit": false,
      "t": 21634.499999999996,
      "d": 700.1164583333339,
      "v": 80
    },
    {
      "midi": 57,
      "hit": false,
      "t": 21634.499999999996,
      "d": 706.1260416666664,
      "v": 76
    },
    {
      "midi": 40,
      "hit": false,
      "t": 23076.8,
      "d": 2364.771041666667,
      "v": 87
    },
    {
      "midi": 56,
      "hit": false,
      "t": 23076.8,
      "d": 2611.1639583333344,
      "v": 79
    },
    {
      "midi": 59,
      "hit": false,
      "t": 23076.8,
      "d": 2752.3891666666677,
      "v": 98
    },
    {
      "midi": 63,
      "hit": false,
      "t": 23076.8,
      "d": 2770.417916666669,
      "v": 83
    },
    {
      "midi": 40,
      "hit": false,
      "t": 25672.94,
      "d": 336.5366666666705,
      "v": 83
    },
    {
      "midi": 56,
      "hit": false,
      "t": 25961.4,
      "d": 249.39770833333387,
      "v": 100
    },
    {
      "midi": 59,
      "hit": false,
      "t": 26249.86,
      "d": 216.34500000000116,
      "v": 70
    },
    {
      "midi": 63,
      "hit": false,
      "t": 26538.320000000003,
      "d": 171.2731249999997,
      "v": 87
    },
    {
      "midi": 57,
      "hit": false,
      "t": 27692.160000000003,
      "d": 3091.930625000001,
      "v": 78
    },
    {
      "midi": 42,
      "hit": false,
      "t": 27692.160000000003,
      "d": 3173.0600000000013,
      "v": 89
    },
    {
      "midi": 61,
      "hit": false,
      "t": 27692.160000000003,
      "d": 3224.1414583333353,
      "v": 72
    },
    {
      "midi": 64,
      "hit": false,
      "t": 27692.160000000003,
      "d": 3227.1462500000016,
      "v": 81
    },
    {
      "midi": 57,
      "hit": false,
      "t": 30865.220000000005,
      "d": 204.3258333333324,
      "v": 74
    },
    {
      "midi": 64,
      "hit": false,
      "t": 31153.680000000004,
      "d": 456.72833333333256,
      "v": 93
    },
    {
      "midi": 61,
      "hit": false,
      "t": 31730.600000000002,
      "d": 99.15812500000175,
      "v": 97
    },
    {
      "midi": 40,
      "hit": false,
      "t": 32307.520000000004,
      "d": 3061.882708333338,
      "v": 84
    },
    {
      "midi": 56,
      "hit": false,
      "t": 32307.520000000004,
      "d": 3269.2133333333404,
      "v": 83
    },
    {
      "midi": 59,
      "hit": false,
      "t": 32307.520000000004,
      "d": 3479.5487500000017,
      "v": 96
    },
    {
      "midi": 63,
      "hit": false,
      "t": 32307.520000000004,
      "d": 3533.635000000002,
      "v": 83
    },
    {
      "midi": 40,
      "hit": false,
      "t": 35480.58000000001,
      "d": 216.34500000000116,
      "v": 87
    },
    {
      "midi": 56,
      "hit": false,
      "t": 35769.04000000001,
      "d": 216.34500000000116,
      "v": 97
    },
    {
      "midi": 59,
      "hit": false,
      "t": 36057.50000000001,
      "d": 210.3354166666686,
      "v": 90
    },
    {
      "midi": 63,
      "hit": false,
      "t": 36345.96000000001,
      "d": 129.20604166666453,
      "v": 92
    },
    {
      "midi": 42,
      "hit": false,
      "t": 36922.880000000005,
      "d": 2127.3924999999945,
      "v": 83
    },
    {
      "midi": 61,
      "hit": false,
      "t": 36922.880000000005,
      "d": 2187.4883333333273,
      "v": 83
    },
    {
      "midi": 57,
      "hit": false,
      "t": 36922.880000000005,
      "d": 2199.5074999999924,
      "v": 88
    },
    {
      "midi": 64,
      "hit": false,
      "t": 36922.880000000005,
      "d": 2202.5122916666587,
      "v": 87
    },
    {
      "midi": 57,
      "hit": false,
      "t": 39230.56,
      "d": 117.18687499999942,
      "v": 86
    },
    {
      "midi": 61,
      "hit": false,
      "t": 39230.56,
      "d": 135.2156249999971,
      "v": 92
    },
    {
      "midi": 64,
      "hit": false,
      "t": 39230.56,
      "d": 135.2156249999971,
      "v": 87
    },
    {
      "midi": 42,
      "hit": false,
      "t": 39230.56,
      "d": 147.2347916666622,
      "v": 77
    },
    {
      "midi": 61,
      "hit": false,
      "t": 40384.399999999994,
      "d": 165.26354166666715,
      "v": 85
    },
    {
      "midi": 69,
      "hit": false,
      "t": 40384.399999999994,
      "d": 165.26354166666715,
      "v": 87
    },
    {
      "midi": 64,
      "hit": false,
      "t": 40384.399999999994,
      "d": 168.26833333333343,
      "v": 90
    },
    {
      "midi": 61,
      "hit": false,
      "t": 41538.23999999999,
      "d": 2163.449999999997,
      "v": 77
    },
    {
      "midi": 45,
      "hit": false,
      "t": 41538.23999999999,
      "d": 2175.469166666662,
      "v": 78
    },
    {
      "midi": 57,
      "hit": false,
      "t": 41538.23999999999,
      "d": 2175.469166666662,
      "v": 82
    },
    {
      "midi": 64,
      "hit": false,
      "t": 41538.23999999999,
      "d": 2190.4931249999936,
      "v": 81
    },
    {
      "midi": 44,
      "hit": false,
      "t": 43845.919999999984,
      "d": 1141.8208333333387,
      "v": 85
    },
    {
      "midi": 59,
      "hit": false,
      "t": 43845.919999999984,
      "d": 1262.0125000000044,
      "v": 93
    },
    {
      "midi": 56,
      "hit": false,
      "t": 43845.919999999984,
      "d": 1292.0604166666744,
      "v": 83
    },
    {
      "midi": 63,
      "hit": false,
      "t": 43845.919999999984,
      "d": 1292.0604166666744,
      "v": 81
    },
    {
      "midi": 44,
      "hit": false,
      "t": 45288.219999999994,
      "d": 426.6804166666625,
      "v": 92
    },
    {
      "midi": 56,
      "hit": false,
      "t": 45576.67999999999,
      "d": 201.3210416666625,
      "v": 108
    },
    {
      "midi": 57,
      "hit": false,
      "t": 46153.59999999999,
      "d": 1322.10833333333,
      "v": 100
    },
    {
      "midi": 54,
      "hit": false,
      "t": 46153.59999999999,
      "d": 1328.1179166666625,
      "v": 85
    },
    {
      "midi": 61,
      "hit": false,
      "t": 46153.59999999999,
      "d": 1337.1322916666613,
      "v": 87
    },
    {
      "midi": 42,
      "hit": false,
      "t": 46153.59999999999,
      "d": 1358.1658333333253,
      "v": 100
    },
    {
      "midi": 45,
      "hit": false,
      "t": 48461.279999999984,
      "d": 859.3704166666721,
      "v": 94
    },
    {
      "midi": 61,
      "hit": false,
      "t": 48461.279999999984,
      "d": 880.403958333336,
      "v": 83
    },
    {
      "midi": 57,
      "hit": false,
      "t": 48461.279999999984,
      "d": 886.4135416666686,
      "v": 84
    },
    {
      "midi": 64,
      "hit": false,
      "t": 48461.279999999984,
      "d": 892.4231250000012,
      "v": 88
    },
    {
      "midi": 40,
      "hit": false,
      "t": 50768.959999999985,
      "d": 1295.0652083333334,
      "v": 84
    },
    {
      "midi": 59,
      "hit": false,
      "t": 50768.959999999985,
      "d": 1334.1275000000023,
      "v": 83
    },
    {
      "midi": 64,
      "hit": false,
      "t": 50768.959999999985,
      "d": 1388.2137500000026,
      "v": 79
    },
    {
      "midi": 56,
      "hit": false,
      "t": 50768.959999999985,
      "d": 1394.2233333333352,
      "v": 71
    },
    {
      "midi": 45,
      "hit": false,
      "t": 53076.63999999999,
      "d": 1006.6052083333343,
      "v": 82
    },
    {
      "midi": 61,
      "hit": false,
      "t": 53076.63999999999,
      "d": 1060.6914583333346,
      "v": 81
    },
    {
      "midi": 64,
      "hit": false,
      "t": 53076.63999999999,
      "d": 1060.6914583333346,
      "v": 86
    },
    {
      "midi": 57,
      "hit": false,
      "t": 53076.63999999999,
      "d": 1078.7202083333323,
      "v": 88
    },
    {
      "midi": 56,
      "hit": false,
      "t": 55384.31999999999,
      "d": 2217.5362499999974,
      "v": 87
    },
    {
      "midi": 59,
      "hit": false,
      "t": 55384.31999999999,
      "d": 2217.5362499999974,
      "v": 90
    },
    {
      "midi": 40,
      "hit": false,
      "t": 55384.31999999999,
      "d": 2226.550624999996,
      "v": 84
    },
    {
      "midi": 52,
      "hit": false,
      "t": 55384.31999999999,
      "d": 2226.550624999996,
      "v": 86
    },
    {
      "midi": 40,
      "hit": false,
      "t": 55384.31999999999,
      "d": 1814.8941666666506,
      "v": 109
    },
    {
      "midi": 64,
      "hit": false,
      "t": 55961.23999999999,
      "d": 117.18687499999942,
      "v": 87
    },
    {
      "midi": 64,
      "hit": false,
      "t": 56249.69999999999,
      "d": 138.22041666666337,
      "v": 87
    },
    {
      "midi": 59,
      "hit": false,
      "t": 56538.15999999999,
      "d": 132.2108333333308,
      "v": 91
    },
    {
      "midi": 61,
      "hit": false,
      "t": 56682.389999999985,
      "d": 120.1916666666657,
      "v": 69
    },
    {
      "midi": 59,
      "hit": false,
      "t": 56826.61999999998,
      "d": 652.039791666648,
      "v": 109
    },
    {
      "midi": 56,
      "hit": false,
      "t": 57115.07999999998,
      "d": 964.5381249999846,
      "v": 114
    },
    {
      "midi": 40,
      "hit": false,
      "t": 57691.99999999996,
      "d": 1571.5060416666674,
      "v": 125
    },
    {
      "midi": 56,
      "hit": false,
      "t": 57691.999999999985,
      "d": 2139.411666666667,
      "v": 83
    },
    {
      "midi": 40,
      "hit": false,
      "t": 57691.999999999985,
      "d": 2145.4212499999994,
      "v": 93
    },
    {
      "midi": 52,
      "hit": false,
      "t": 57691.999999999985,
      "d": 2145.4212499999994,
      "v": 81
    },
    {
      "midi": 59,
      "hit": false,
      "t": 57691.999999999985,
      "d": 2163.449999999997,
      "v": 87
    },
    {
      "midi": 64,
      "hit": false,
      "t": 58268.91999999996,
      "d": 117.18687499999942,
      "v": 90
    },
    {
      "midi": 64,
      "hit": false,
      "t": 58557.37999999996,
      "d": 144.2300000000032,
      "v": 87
    },
    {
      "midi": 59,
      "hit": false,
      "t": 58845.83999999997,
      "d": 165.26354166666715,
      "v": 88
    },
    {
      "midi": 61,
      "hit": false,
      "t": 58990.06999999997,
      "d": 141.22520833332965,
      "v": 89
    },
    {
      "midi": 59,
      "hit": false,
      "t": 59134.29999999997,
      "d": 408.6516666666648,
      "v": 97
    },
    {
      "midi": 56,
      "hit": false,
      "t": 59999.67999999995,
      "d": 1.5023958333331393,
      "v": 76
    },
    {
      "midi": 40,
      "hit": false,
      "t": 59999.67999999995,
      "d": 2364.771041666667,
      "v": 84
    },
    {
      "midi": 59,
      "hit": false,
      "t": 59999.67999999995,
      "d": 2752.3891666666677,
      "v": 95
    },
    {
      "midi": 63,
      "hit": false,
      "t": 59999.67999999995,
      "d": 2770.4179166666654,
      "v": 80
    },
    {
      "midi": 40,
      "hit": false,
      "t": 59999.679999999986,
      "d": 2364.771041666667,
      "v": 87
    },
    {
      "midi": 56,
      "hit": false,
      "t": 59999.679999999986,
      "d": 2611.163958333331,
      "v": 79
    },
    {
      "midi": 59,
      "hit": false,
      "t": 59999.679999999986,
      "d": 2752.3891666666677,
      "v": 98
    },
    {
      "midi": 63,
      "hit": false,
      "t": 59999.679999999986,
      "d": 2770.4179166666654,
      "v": 83
    },
    {
      "midi": 40,
      "hit": false,
      "t": 62595.81999999995,
      "d": 336.53666666666686,
      "v": 80
    },
    {
      "midi": 40,
      "hit": false,
      "t": 62595.819999999985,
      "d": 336.53666666666686,
      "v": 83
    },
    {
      "midi": 56,
      "hit": false,
      "t": 62884.27999999995,
      "d": 249.3977083333375,
      "v": 97
    },
    {
      "midi": 56,
      "hit": false,
      "t": 62884.279999999984,
      "d": 249.3977083333375,
      "v": 100
    },
    {
      "midi": 59,
      "hit": false,
      "t": 63172.739999999954,
      "d": 216.34500000000116,
      "v": 67
    },
    {
      "midi": 59,
      "hit": false,
      "t": 63172.73999999999,
      "d": 216.34500000000116,
      "v": 70
    },
    {
      "midi": 63,
      "hit": false,
      "t": 63461.19999999995,
      "d": 171.2731249999997,
      "v": 84
    },
    {
      "midi": 63,
      "hit": false,
      "t": 63461.19999999999,
      "d": 171.2731249999997,
      "v": 87
    },
    {
      "midi": 57,
      "hit": false,
      "t": 64615.03999999996,
      "d": 3091.930625000001,
      "v": 75
    },
    {
      "midi": 42,
      "hit": false,
      "t": 64615.03999999996,
      "d": 3173.060000000005,
      "v": 86
    },
    {
      "midi": 61,
      "hit": false,
      "t": 64615.03999999996,
      "d": 3224.1414583333317,
      "v": 69
    },
    {
      "midi": 64,
      "hit": false,
      "t": 64615.03999999996,
      "d": 3227.146249999998,
      "v": 78
    },
    {
      "midi": 57,
      "hit": false,
      "t": 64615.03999999999,
      "d": 3091.930625000008,
      "v": 78
    },
    {
      "midi": 42,
      "hit": false,
      "t": 64615.03999999999,
      "d": 3173.060000000012,
      "v": 89
    },
    {
      "midi": 61,
      "hit": false,
      "t": 64615.03999999999,
      "d": 3224.141458333339,
      "v": 72
    },
    {
      "midi": 64,
      "hit": false,
      "t": 64615.03999999999,
      "d": 3227.1462500000052,
      "v": 81
    },
    {
      "midi": 57,
      "hit": false,
      "t": 67788.09999999996,
      "d": 204.3258333333215,
      "v": 71
    },
    {
      "midi": 57,
      "hit": false,
      "t": 67788.1,
      "d": 204.3258333333215,
      "v": 74
    },
    {
      "midi": 64,
      "hit": false,
      "t": 68076.55999999995,
      "d": 456.72833333333256,
      "v": 90
    },
    {
      "midi": 64,
      "hit": false,
      "t": 68076.56,
      "d": 456.72833333333256,
      "v": 93
    },
    {
      "midi": 61,
      "hit": false,
      "t": 68653.47999999995,
      "d": 99.15812500000175,
      "v": 94
    },
    {
      "midi": 61,
      "hit": false,
      "t": 68653.48,
      "d": 99.15812500000175,
      "v": 97
    },
    {
      "midi": 40,
      "hit": false,
      "t": 69230.39999999995,
      "d": 3061.882708333331,
      "v": 81
    },
    {
      "midi": 56,
      "hit": false,
      "t": 69230.39999999995,
      "d": 3269.213333333333,
      "v": 80
    },
    {
      "midi": 59,
      "hit": false,
      "t": 69230.39999999995,
      "d": 3479.5487500000017,
      "v": 93
    },
    {
      "midi": 63,
      "hit": false,
      "t": 69230.39999999995,
      "d": 3533.6349999999948,
      "v": 80
    },
    {
      "midi": 40,
      "hit": false,
      "t": 69230.4,
      "d": 3061.882708333331,
      "v": 84
    },
    {
      "midi": 56,
      "hit": false,
      "t": 69230.4,
      "d": 3269.213333333333,
      "v": 83
    },
    {
      "midi": 59,
      "hit": false,
      "t": 69230.4,
      "d": 3479.5487500000017,
      "v": 96
    },
    {
      "midi": 63,
      "hit": false,
      "t": 69230.4,
      "d": 3533.6349999999948,
      "v": 83
    },
    {
      "midi": 40,
      "hit": false,
      "t": 72403.45999999995,
      "d": 216.34500000000116,
      "v": 84
    },
    {
      "midi": 40,
      "hit": false,
      "t": 72403.45999999999,
      "d": 216.34500000000116,
      "v": 87
    },
    {
      "midi": 56,
      "hit": false,
      "t": 72691.91999999995,
      "d": 216.3449999999866,
      "v": 94
    },
    {
      "midi": 56,
      "hit": false,
      "t": 72691.92,
      "d": 216.3449999999866,
      "v": 97
    },
    {
      "midi": 59,
      "hit": false,
      "t": 72980.37999999995,
      "d": 210.3354166666686,
      "v": 87
    },
    {
      "midi": 59,
      "hit": false,
      "t": 72980.37999999999,
      "d": 210.3354166666686,
      "v": 90
    },
    {
      "midi": 63,
      "hit": false,
      "t": 73268.83999999995,
      "d": 129.20604166666453,
      "v": 89
    },
    {
      "midi": 63,
      "hit": false,
      "t": 73268.84,
      "d": 129.20604166666453,
      "v": 92
    },
    {
      "midi": 42,
      "hit": false,
      "t": 73845.75999999995,
      "d": 2127.3925000000017,
      "v": 80
    },
    {
      "midi": 61,
      "hit": false,
      "t": 73845.75999999995,
      "d": 2187.488333333342,
      "v": 80
    },
    {
      "midi": 57,
      "hit": false,
      "t": 73845.75999999995,
      "d": 2199.507500000007,
      "v": 85
    },
    {
      "midi": 64,
      "hit": false,
      "t": 73845.75999999995,
      "d": 2202.5122916666733,
      "v": 84
    },
    {
      "midi": 42,
      "hit": false,
      "t": 73845.76,
      "d": 2127.3925000000017,
      "v": 83
    },
    {
      "midi": 61,
      "hit": false,
      "t": 73845.76,
      "d": 2187.488333333342,
      "v": 83
    },
    {
      "midi": 57,
      "hit": false,
      "t": 73845.76,
      "d": 2199.507500000007,
      "v": 88
    },
    {
      "midi": 64,
      "hit": false,
      "t": 73845.76,
      "d": 2202.5122916666733,
      "v": 87
    },
    {
      "midi": 57,
      "hit": false,
      "t": 76153.43999999996,
      "d": 117.18687499999942,
      "v": 83
    },
    {
      "midi": 61,
      "hit": false,
      "t": 76153.43999999996,
      "d": 135.2156249999971,
      "v": 89
    },
    {
      "midi": 64,
      "hit": false,
      "t": 76153.43999999996,
      "d": 135.2156249999971,
      "v": 84
    },
    {
      "midi": 42,
      "hit": false,
      "t": 76153.43999999996,
      "d": 147.2347916666622,
      "v": 74
    },
    {
      "midi": 57,
      "hit": false,
      "t": 76153.44,
      "d": 117.18687499999942,
      "v": 86
    },
    {
      "midi": 61,
      "hit": false,
      "t": 76153.44,
      "d": 135.2156249999971,
      "v": 92
    },
    {
      "midi": 64,
      "hit": false,
      "t": 76153.44,
      "d": 135.2156249999971,
      "v": 87
    },
    {
      "midi": 42,
      "hit": false,
      "t": 76153.44,
      "d": 147.2347916666622,
      "v": 77
    },
    {
      "midi": 61,
      "hit": false,
      "t": 77307.27999999996,
      "d": 165.26354166665988,
      "v": 82
    },
    {
      "midi": 69,
      "hit": false,
      "t": 77307.27999999996,
      "d": 165.26354166665988,
      "v": 84
    },
    {
      "midi": 64,
      "hit": false,
      "t": 77307.27999999996,
      "d": 168.26833333332615,
      "v": 87
    },
    {
      "midi": 61,
      "hit": false,
      "t": 77307.28,
      "d": 165.26354166665988,
      "v": 85
    },
    {
      "midi": 69,
      "hit": false,
      "t": 77307.28,
      "d": 165.26354166665988,
      "v": 87
    },
    {
      "midi": 64,
      "hit": false,
      "t": 77307.28,
      "d": 168.26833333332615,
      "v": 90
    },
    {
      "midi": 61,
      "hit": false,
      "t": 78461.11999999995,
      "d": 2163.449999999997,
      "v": 74
    },
    {
      "midi": 45,
      "hit": false,
      "t": 78461.11999999995,
      "d": 2175.469166666662,
      "v": 75
    },
    {
      "midi": 57,
      "hit": false,
      "t": 78461.11999999995,
      "d": 2175.469166666662,
      "v": 79
    },
    {
      "midi": 64,
      "hit": false,
      "t": 78461.11999999995,
      "d": 2190.4931249999936,
      "v": 78
    },
    {
      "midi": 61,
      "hit": false,
      "t": 78461.12,
      "d": 2163.449999999997,
      "v": 77
    },
    {
      "midi": 45,
      "hit": false,
      "t": 78461.12,
      "d": 2175.469166666662,
      "v": 78
    },
    {
      "midi": 57,
      "hit": false,
      "t": 78461.12,
      "d": 2175.469166666662,
      "v": 82
    },
    {
      "midi": 64,
      "hit": false,
      "t": 78461.12,
      "d": 2190.4931249999936,
      "v": 81
    },
    {
      "midi": 44,
      "hit": false,
      "t": 80768.79999999994,
      "d": 1141.8208333333314,
      "v": 82
    },
    {
      "midi": 59,
      "hit": false,
      "t": 80768.79999999994,
      "d": 1262.012499999997,
      "v": 90
    },
    {
      "midi": 56,
      "hit": false,
      "t": 80768.79999999994,
      "d": 1292.0604166666599,
      "v": 80
    },
    {
      "midi": 63,
      "hit": false,
      "t": 80768.79999999994,
      "d": 1292.0604166666599,
      "v": 78
    },
    {
      "midi": 44,
      "hit": false,
      "t": 80768.79999999999,
      "d": 1141.8208333333314,
      "v": 85
    },
    {
      "midi": 59,
      "hit": false,
      "t": 80768.79999999999,
      "d": 1262.012499999997,
      "v": 93
    },
    {
      "midi": 56,
      "hit": false,
      "t": 80768.79999999999,
      "d": 1292.0604166666599,
      "v": 83
    },
    {
      "midi": 63,
      "hit": false,
      "t": 80768.79999999999,
      "d": 1292.0604166666599,
      "v": 81
    },
    {
      "midi": 44,
      "hit": false,
      "t": 82211.09999999993,
      "d": 426.68041666666977,
      "v": 89
    },
    {
      "midi": 44,
      "hit": false,
      "t": 82211.09999999998,
      "d": 426.68041666666977,
      "v": 92
    },
    {
      "midi": 56,
      "hit": false,
      "t": 82499.55999999994,
      "d": 201.32104166666977,
      "v": 105
    },
    {
      "midi": 56,
      "hit": false,
      "t": 82499.55999999998,
      "d": 201.32104166666977,
      "v": 108
    },
    {
      "midi": 57,
      "hit": false,
      "t": 83076.47999999994,
      "d": 1322.1083333333372,
      "v": 97
    },
    {
      "midi": 54,
      "hit": false,
      "t": 83076.47999999994,
      "d": 1328.1179166666698,
      "v": 82
    },
    {
      "midi": 61,
      "hit": false,
      "t": 83076.47999999994,
      "d": 1337.1322916666686,
      "v": 84
    },
    {
      "midi": 42,
      "hit": false,
      "t": 83076.47999999994,
      "d": 1358.1658333333326,
      "v": 97
    },
    {
      "midi": 57,
      "hit": false,
      "t": 83076.47999999998,
      "d": 1322.1083333333372,
      "v": 100
    },
    {
      "midi": 54,
      "hit": false,
      "t": 83076.47999999998,
      "d": 1328.1179166666698,
      "v": 85
    },
    {
      "midi": 61,
      "hit": false,
      "t": 83076.47999999998,
      "d": 1337.1322916666686,
      "v": 87
    },
    {
      "midi": 42,
      "hit": false,
      "t": 83076.47999999998,
      "d": 1358.1658333333326,
      "v": 100
    },
    {
      "midi": 45,
      "hit": false,
      "t": 85384.15999999995,
      "d": 859.3704166666575,
      "v": 91
    },
    {
      "midi": 61,
      "hit": false,
      "t": 85384.15999999995,
      "d": 880.4039583333215,
      "v": 80
    },
    {
      "midi": 57,
      "hit": false,
      "t": 85384.15999999995,
      "d": 886.413541666654,
      "v": 81
    },
    {
      "midi": 64,
      "hit": false,
      "t": 85384.15999999995,
      "d": 892.4231249999866,
      "v": 85
    },
    {
      "midi": 45,
      "hit": false,
      "t": 85384.15999999999,
      "d": 859.3704166666575,
      "v": 94
    },
    {
      "midi": 61,
      "hit": false,
      "t": 85384.15999999999,
      "d": 880.4039583333215,
      "v": 83
    },
    {
      "midi": 57,
      "hit": false,
      "t": 85384.15999999999,
      "d": 886.413541666654,
      "v": 84
    },
    {
      "midi": 64,
      "hit": false,
      "t": 85384.15999999999,
      "d": 892.4231249999866,
      "v": 88
    },
    {
      "midi": 40,
      "hit": false,
      "t": 87691.83999999992,
      "d": 1295.0652083333407,
      "v": 81
    },
    {
      "midi": 59,
      "hit": false,
      "t": 87691.83999999992,
      "d": 1334.1275000000023,
      "v": 80
    },
    {
      "midi": 64,
      "hit": false,
      "t": 87691.83999999992,
      "d": 1388.2137499999953,
      "v": 76
    },
    {
      "midi": 56,
      "hit": false,
      "t": 87691.83999999992,
      "d": 1394.223333333328,
      "v": 68
    },
    {
      "midi": 40,
      "hit": false,
      "t": 87691.83999999997,
      "d": 1295.0652083333407,
      "v": 84
    },
    {
      "midi": 59,
      "hit": false,
      "t": 87691.83999999997,
      "d": 1334.1275000000023,
      "v": 83
    },
    {
      "midi": 64,
      "hit": false,
      "t": 87691.83999999997,
      "d": 1388.2137499999953,
      "v": 79
    },
    {
      "midi": 56,
      "hit": false,
      "t": 87691.83999999997,
      "d": 1394.223333333328,
      "v": 71
    },
    {
      "midi": 45,
      "hit": false,
      "t": 89999.51999999992,
      "d": 1006.6052083333198,
      "v": 79
    },
    {
      "midi": 61,
      "hit": false,
      "t": 89999.51999999992,
      "d": 1060.6914583333128,
      "v": 78
    },
    {
      "midi": 64,
      "hit": false,
      "t": 89999.51999999992,
      "d": 1060.6914583333128,
      "v": 83
    },
    {
      "midi": 57,
      "hit": false,
      "t": 89999.51999999992,
      "d": 1078.7202083333104,
      "v": 85
    },
    {
      "midi": 45,
      "hit": false,
      "t": 89999.51999999996,
      "d": 1006.6052083333198,
      "v": 82
    },
    {
      "midi": 61,
      "hit": false,
      "t": 89999.51999999996,
      "d": 1060.6914583333128,
      "v": 81
    },
    {
      "midi": 64,
      "hit": false,
      "t": 89999.51999999996,
      "d": 1060.6914583333128,
      "v": 86
    },
    {
      "midi": 57,
      "hit": false,
      "t": 89999.51999999996,
      "d": 1078.7202083333104,
      "v": 88
    },
    {
      "midi": 40,
      "hit": false,
      "t": 92307.1999999999,
      "d": 1814.8941666666651,
      "v": 109
    },
    {
      "midi": 56,
      "hit": false,
      "t": 92307.19999999994,
      "d": 2217.5362500000047,
      "v": 87
    },
    {
      "midi": 59,
      "hit": false,
      "t": 92307.19999999994,
      "d": 2217.5362500000047,
      "v": 90
    },
    {
      "midi": 40,
      "hit": false,
      "t": 92307.19999999994,
      "d": 2226.5506250000035,
      "v": 84
    },
    {
      "midi": 52,
      "hit": false,
      "t": 92307.19999999994,
      "d": 2226.5506250000035,
      "v": 86
    },
    {
      "midi": 64,
      "hit": false,
      "t": 92884.1199999999,
      "d": 117.18687499999942,
      "v": 87
    },
    {
      "midi": 64,
      "hit": false,
      "t": 93172.5799999999,
      "d": 138.22041666666337,
      "v": 87
    },
    {
      "midi": 59,
      "hit": false,
      "t": 93461.03999999989,
      "d": 132.2108333333308,
      "v": 91
    },
    {
      "midi": 61,
      "hit": false,
      "t": 93605.26999999989,
      "d": 120.1916666666657,
      "v": 69
    },
    {
      "midi": 59,
      "hit": false,
      "t": 93749.49999999988,
      "d": 652.0397916666552,
      "v": 109
    },
    {
      "midi": 56,
      "hit": false,
      "t": 94037.95999999989,
      "d": 964.5381249999773,
      "v": 114
    },
    {
      "midi": 40,
      "hit": false,
      "t": 94614.87999999987,
      "d": 1571.506041666653,
      "v": 125
    },
    {
      "midi": 56,
      "hit": false,
      "t": 94614.87999999995,
      "d": 2139.411666666667,
      "v": 83
    },
    {
      "midi": 40,
      "hit": false,
      "t": 94614.87999999995,
      "d": 2145.4212499999994,
      "v": 93
    },
    {
      "midi": 52,
      "hit": false,
      "t": 94614.87999999995,
      "d": 2145.4212499999994,
      "v": 81
    },
    {
      "midi": 59,
      "hit": false,
      "t": 94614.87999999995,
      "d": 2163.449999999997,
      "v": 87
    },
    {
      "midi": 64,
      "hit": false,
      "t": 95191.79999999987,
      "d": 117.18687499999942,
      "v": 90
    },
    {
      "midi": 64,
      "hit": false,
      "t": 95480.25999999988,
      "d": 144.22999999999593,
      "v": 87
    },
    {
      "midi": 59,
      "hit": false,
      "t": 95768.71999999987,
      "d": 165.26354166665988,
      "v": 88
    },
    {
      "midi": 61,
      "hit": false,
      "t": 95912.94999999987,
      "d": 141.22520833332965,
      "v": 89
    },
    {
      "midi": 59,
      "hit": false,
      "t": 96057.17999999986,
      "d": 408.65166666665755,
      "v": 97
    },
    {
      "midi": 56,
      "hit": false,
      "t": 96345.63999999985,
      "d": 576.9199999999837,
      "v": 119
    },
    {
      "midi": 57,
      "hit": false,
      "t": 96922.55999999984,
      "d": 2247.5841666666674,
      "v": 72
    },
    {
      "midi": 54,
      "hit": false,
      "t": 96922.55999999984,
      "d": 2271.6224999999977,
      "v": 63
    },
    {
      "midi": 50,
      "hit": false,
      "t": 96922.55999999984,
      "d": 2274.627291666664,
      "v": 65
    },
    {
      "midi": 57,
      "hit": false,
      "t": 96922.55999999994,
      "d": 2247.5841666666674,
      "v": 75
    },
    {
      "midi": 54,
      "hit": false,
      "t": 96922.55999999994,
      "d": 2271.6224999999977,
      "v": 66
    },
    {
      "midi": 50,
      "hit": false,
      "t": 96922.55999999994,
      "d": 2274.627291666664,
      "v": 68
    },
    {
      "midi": 74,
      "hit": false,
      "t": 96934.5791666665,
      "d": 2337.727916666656,
      "v": 112
    },
    {
      "midi": 74,
      "hit": false,
      "t": 96934.5791666666,
      "d": 2337.727916666656,
      "v": 115
    },
    {
      "midi": 50,
      "hit": false,
      "t": 99230.23999999983,
      "d": 2091.3349999999773,
      "v": 34
    },
    {
      "midi": 59,
      "hit": false,
      "t": 99230.23999999983,
      "d": 2145.4212499999703,
      "v": 77
    },
    {
      "midi": 55,
      "hit": false,
      "t": 99230.23999999983,
      "d": 4540.2402083333,
      "v": 78
    },
    {
      "midi": 50,
      "hit": false,
      "t": 99230.23999999993,
      "d": 2091.3349999999773,
      "v": 37
    },
    {
      "midi": 59,
      "hit": false,
      "t": 99230.23999999993,
      "d": 2145.4212499999703,
      "v": 80
    },
    {
      "midi": 55,
      "hit": false,
      "t": 99230.23999999993,
      "d": 4540.2402083333,
      "v": 81
    },
    {
      "midi": 71,
      "hit": false,
      "t": 99233.2447916665,
      "d": 1153.8399999999965,
      "v": 78
    },
    {
      "midi": 71,
      "hit": false,
      "t": 99233.2447916666,
      "d": 1153.8399999999965,
      "v": 81
    },
    {
      "midi": 67,
      "hit": false,
      "t": 100369.0560416665,
      "d": 432.6899999999878,
      "v": 104
    },
    {
      "midi": 67,
      "hit": false,
      "t": 100369.0560416666,
      "d": 432.6899999999878,
      "v": 107
    },
    {
      "midi": 69,
      "hit": false,
      "t": 100762.68374999982,
      "d": 414.6612499999901,
      "v": 83
    },
    {
      "midi": 69,
      "hit": false,
      "t": 100762.68374999992,
      "d": 414.6612499999901,
      "v": 86
    },
    {
      "midi": 71,
      "hit": false,
      "t": 101138.28270833315,
      "d": 411.6564583333093,
      "v": 78
    },
    {
      "midi": 71,
      "hit": false,
      "t": 101138.28270833325,
      "d": 411.6564583333093,
      "v": 81
    },
    {
      "midi": 52,
      "hit": false,
      "t": 101393.6899999998,
      "d": 2310.6847916666593,
      "v": 58
    },
    {
      "midi": 52,
      "hit": false,
      "t": 101393.6899999999,
      "d": 2310.6847916666593,
      "v": 61
    },
    {
      "midi": 72,
      "hit": false,
      "t": 101513.88166666646,
      "d": 2334.7231249999895,
      "v": 112
    },
    {
      "midi": 72,
      "hit": false,
      "t": 101513.88166666657,
      "d": 2334.7231249999895,
      "v": 115
    },
    {
      "midi": 60,
      "hit": false,
      "t": 101537.9199999998,
      "d": 2238.5697916666686,
      "v": 78
    },
    {
      "midi": 60,
      "hit": false,
      "t": 101537.9199999999,
      "d": 2238.5697916666686,
      "v": 81
    },
    {
      "midi": 71,
      "hit": false,
      "t": 103821.56166666646,
      "d": 1153.8399999999965,
      "v": 91
    },
    {
      "midi": 71,
      "hit": false,
      "t": 103821.56166666656,
      "d": 1153.8399999999965,
      "v": 94
    },
    {
      "midi": 50,
      "hit": false,
      "t": 103845.59999999979,
      "d": 2124.387708333321,
      "v": 67
    },
    {
      "midi": 59,
      "hit": false,
      "t": 103845.59999999979,
      "d": 2175.4691666666477,
      "v": 83
    },
    {
      "midi": 54,
      "hit": false,
      "t": 103845.59999999979,
      "d": 2187.4883333333128,
      "v": 65
    },
    {
      "midi": 50,
      "hit": false,
      "t": 103845.59999999989,
      "d": 2124.387708333321,
      "v": 70
    },
    {
      "midi": 59,
      "hit": false,
      "t": 103845.59999999989,
      "d": 2175.4691666666477,
      "v": 86
    },
    {
      "midi": 54,
      "hit": false,
      "t": 103845.59999999989,
      "d": 2187.4883333333128,
      "v": 68
    },
    {
      "midi": 74,
      "hit": false,
      "t": 104981.41124999979,
      "d": 438.6995833333349,
      "v": 97
    },
    {
      "midi": 74,
      "hit": false,
      "t": 104981.41124999989,
      "d": 438.6995833333349,
      "v": 100
    },
    {
      "midi": 76,
      "hit": false,
      "t": 105384.05333333313,
      "d": 420.67083333332266,
      "v": 78
    },
    {
      "midi": 76,
      "hit": false,
      "t": 105384.05333333323,
      "d": 420.67083333332266,
      "v": 81
    },
    {
      "midi": 78,
      "hit": false,
      "t": 105792.70499999978,
      "d": 357.57020833331626,
      "v": 80
    },
    {
      "midi": 78,
      "hit": false,
      "t": 105792.70499999989,
      "d": 357.57020833331626,
      "v": 83
    },
    {
      "midi": 79,
      "hit": false,
      "t": 106123.2320833331,
      "d": 2364.7710416666523,
      "v": 66
    },
    {
      "midi": 79,
      "hit": false,
      "t": 106123.2320833332,
      "d": 2364.7710416666523,
      "v": 69
    },
    {
      "midi": 55,
      "hit": false,
      "t": 106153.27999999977,
      "d": 2187.4883333333273,
      "v": 67
    },
    {
      "midi": 60,
      "hit": false,
      "t": 106153.27999999977,
      "d": 2187.4883333333273,
      "v": 72
    },
    {
      "midi": 52,
      "hit": false,
      "t": 106153.27999999977,
      "d": 2208.5218749999913,
      "v": 53
    },
    {
      "midi": 55,
      "hit": false,
      "t": 106153.27999999987,
      "d": 2187.4883333333273,
      "v": 70
    },
    {
      "midi": 60,
      "hit": false,
      "t": 106153.27999999987,
      "d": 2187.4883333333273,
      "v": 75
    },
    {
      "midi": 52,
      "hit": false,
      "t": 106153.27999999987,
      "d": 2208.5218749999913,
      "v": 56
    },
    {
      "midi": 78,
      "hit": false,
      "t": 108418.89291666643,
      "d": 1219.9454166666546,
      "v": 76
    },
    {
      "midi": 78,
      "hit": false,
      "t": 108418.89291666653,
      "d": 1219.9454166666546,
      "v": 79
    },
    {
      "midi": 54,
      "hit": false,
      "t": 108460.95999999976,
      "d": 2193.49791666666,
      "v": 74
    },
    {
      "midi": 50,
      "hit": false,
      "t": 108460.95999999976,
      "d": 2199.5074999999924,
      "v": 67
    },
    {
      "midi": 59,
      "hit": false,
      "t": 108460.95999999976,
      "d": 2208.5218749999913,
      "v": 78
    },
    {
      "midi": 54,
      "hit": false,
      "t": 108460.95999999986,
      "d": 2193.49791666666,
      "v": 77
    },
    {
      "midi": 50,
      "hit": false,
      "t": 108460.95999999986,
      "d": 2199.5074999999924,
      "v": 70
    },
    {
      "midi": 59,
      "hit": false,
      "t": 108460.95999999986,
      "d": 2208.5218749999913,
      "v": 81
    },
    {
      "midi": 76,
      "hit": false,
      "t": 109587.75687499976,
      "d": 612.9774999999936,
      "v": 67
    },
    {
      "midi": 76,
      "hit": false,
      "t": 109587.75687499986,
      "d": 612.9774999999936,
      "v": 70
    },
    {
      "midi": 74,
      "hit": false,
      "t": 110149.65291666643,
      "d": 624.9966666666587,
      "v": 71
    },
    {
      "midi": 74,
      "hit": false,
      "t": 110149.65291666653,
      "d": 624.9966666666587,
      "v": 74
    },
    {
      "midi": 76,
      "hit": false,
      "t": 110738.59208333309,
      "d": 2361.766249999986,
      "v": 71
    },
    {
      "midi": 76,
      "hit": false,
      "t": 110738.59208333319,
      "d": 2361.766249999986,
      "v": 74
    },
    {
      "midi": 57,
      "hit": false,
      "t": 110768.63999999975,
      "d": 2190.4931249999936,
      "v": 71
    },
    {
      "midi": 48,
      "hit": false,
      "t": 110768.63999999975,
      "d": 2214.531458333324,
      "v": 62
    },
    {
      "midi": 52,
      "hit": false,
      "t": 110768.63999999975,
      "d": 2214.531458333324,
      "v": 69
    },
    {
      "midi": 57,
      "hit": false,
      "t": 110768.63999999985,
      "d": 2190.4931249999936,
      "v": 74
    },
    {
      "midi": 48,
      "hit": false,
      "t": 110768.63999999985,
      "d": 2214.531458333324,
      "v": 65
    },
    {
      "midi": 52,
      "hit": false,
      "t": 110768.63999999985,
      "d": 2214.531458333324,
      "v": 72
    },
    {
      "midi": 74,
      "hit": false,
      "t": 113064.30083333308,
      "d": 2334.723124999975,
      "v": 95
    },
    {
      "midi": 74,
      "hit": false,
      "t": 113064.30083333318,
      "d": 2334.723124999975,
      "v": 98
    },
    {
      "midi": 47,
      "hit": false,
      "t": 113076.31999999975,
      "d": 2211.5266666666575,
      "v": 70
    },
    {
      "midi": 50,
      "hit": false,
      "t": 113076.31999999975,
      "d": 2238.569791666654,
      "v": 81
    },
    {
      "midi": 55,
      "hit": false,
      "t": 113076.31999999975,
      "d": 2253.5937499999854,
      "v": 84
    },
    {
      "midi": 47,
      "hit": false,
      "t": 113076.31999999985,
      "d": 2211.5266666666575,
      "v": 73
    },
    {
      "midi": 50,
      "hit": false,
      "t": 113076.31999999985,
      "d": 2238.569791666654,
      "v": 84
    },
    {
      "midi": 55,
      "hit": false,
      "t": 113076.31999999985,
      "d": 2253.5937499999854,
      "v": 87
    },
    {
      "midi": 75,
      "hit": false,
      "t": 115371.98083333306,
      "d": 2301.6704166666605,
      "v": 94
    },
    {
      "midi": 75,
      "hit": false,
      "t": 115371.98083333316,
      "d": 2301.6704166666605,
      "v": 97
    },
    {
      "midi": 59,
      "hit": false,
      "t": 115383.99999999972,
      "d": 2235.5650000000023,
      "v": 65
    },
    {
      "midi": 51,
      "hit": false,
      "t": 115383.99999999972,
      "d": 2271.6224999999977,
      "v": 59
    },
    {
      "midi": 54,
      "hit": false,
      "t": 115383.99999999972,
      "d": 2271.6224999999977,
      "v": 63
    },
    {
      "midi": 59,
      "hit": false,
      "t": 115383.99999999983,
      "d": 2235.5650000000023,
      "v": 68
    },
    {
      "midi": 51,
      "hit": false,
      "t": 115383.99999999983,
      "d": 2271.6224999999977,
      "v": 62
    },
    {
      "midi": 54,
      "hit": false,
      "t": 115383.99999999983,
      "d": 2271.6224999999977,
      "v": 66
    },
    {
      "midi": 40,
      "hit": false,
      "t": 117691.67999999972,
      "d": 2364.771041666667,
      "v": 84
    },
    {
      "midi": 56,
      "hit": false,
      "t": 117691.67999999972,
      "d": 2611.163958333331,
      "v": 76
    },
    {
      "midi": 59,
      "hit": false,
      "t": 117691.67999999972,
      "d": 2752.3891666666605,
      "v": 95
    },
    {
      "midi": 63,
      "hit": false,
      "t": 117691.67999999972,
      "d": 2770.417916666658,
      "v": 80
    },
    {
      "midi": 40,
      "hit": false,
      "t": 117691.67999999982,
      "d": 2364.771041666667,
      "v": 87
    },
    {
      "midi": 56,
      "hit": false,
      "t": 117691.67999999982,
      "d": 2611.163958333331,
      "v": 79
    },
    {
      "midi": 59,
      "hit": false,
      "t": 117691.67999999982,
      "d": 2752.3891666666605,
      "v": 98
    },
    {
      "midi": 63,
      "hit": false,
      "t": 117691.67999999982,
      "d": 2770.417916666658,
      "v": 83
    },
    {
      "midi": 40,
      "hit": false,
      "t": 120287.81999999972,
      "d": 336.5366666666523,
      "v": 80
    },
    {
      "midi": 40,
      "hit": false,
      "t": 120287.81999999982,
      "d": 336.5366666666523,
      "v": 83
    },
    {
      "midi": 56,
      "hit": false,
      "t": 120576.27999999971,
      "d": 249.39770833333023,
      "v": 97
    },
    {
      "midi": 56,
      "hit": false,
      "t": 120576.27999999981,
      "d": 249.39770833333023,
      "v": 100
    },
    {
      "midi": 59,
      "hit": false,
      "t": 120864.7399999997,
      "d": 216.34500000000116,
      "v": 67
    },
    {
      "midi": 59,
      "hit": false,
      "t": 120864.7399999998,
      "d": 216.34500000000116,
      "v": 70
    },
    {
      "midi": 63,
      "hit": false,
      "t": 121153.1999999997,
      "d": 171.27312500000698,
      "v": 84
    },
    {
      "midi": 63,
      "hit": false,
      "t": 121153.19999999981,
      "d": 171.27312500000698,
      "v": 87
    },
    {
      "midi": 57,
      "hit": false,
      "t": 122307.0399999997,
      "d": 3091.930625000008,
      "v": 75
    },
    {
      "midi": 42,
      "hit": false,
      "t": 122307.0399999997,
      "d": 3173.060000000012,
      "v": 86
    },
    {
      "midi": 61,
      "hit": false,
      "t": 122307.0399999997,
      "d": 3224.141458333339,
      "v": 69
    },
    {
      "midi": 64,
      "hit": false,
      "t": 122307.0399999997,
      "d": 3227.1462500000052,
      "v": 78
    },
    {
      "midi": 57,
      "hit": false,
      "t": 122307.0399999998,
      "d": 3091.930625000008,
      "v": 78
    },
    {
      "midi": 42,
      "hit": false,
      "t": 122307.0399999998,
      "d": 3173.060000000012,
      "v": 89
    },
    {
      "midi": 61,
      "hit": false,
      "t": 122307.0399999998,
      "d": 3224.141458333339,
      "v": 72
    },
    {
      "midi": 64,
      "hit": false,
      "t": 122307.0399999998,
      "d": 3227.1462500000052,
      "v": 81
    },
    {
      "midi": 57,
      "hit": false,
      "t": 125480.09999999971,
      "d": 204.3258333333215,
      "v": 71
    },
    {
      "midi": 57,
      "hit": false,
      "t": 125480.09999999982,
      "d": 204.3258333333215,
      "v": 74
    },
    {
      "midi": 64,
      "hit": false,
      "t": 125768.5599999997,
      "d": 456.72833333333256,
      "v": 90
    },
    {
      "midi": 64,
      "hit": false,
      "t": 125768.55999999981,
      "d": 456.72833333333256,
      "v": 93
    },
    {
      "midi": 61,
      "hit": false,
      "t": 126345.4799999997,
      "d": 99.15812500000175,
      "v": 94
    },
    {
      "midi": 61,
      "hit": false,
      "t": 126345.4799999998,
      "d": 99.15812500000175,
      "v": 97
    },
    {
      "midi": 40,
      "hit": false,
      "t": 126922.3999999997,
      "d": 3061.882708333331,
      "v": 81
    },
    {
      "midi": 56,
      "hit": false,
      "t": 126922.3999999997,
      "d": 3269.213333333333,
      "v": 80
    },
    {
      "midi": 59,
      "hit": false,
      "t": 126922.3999999997,
      "d": 3479.5487500000017,
      "v": 93
    },
    {
      "midi": 63,
      "hit": false,
      "t": 126922.3999999997,
      "d": 3533.6349999999948,
      "v": 80
    },
    {
      "midi": 40,
      "hit": false,
      "t": 126922.3999999998,
      "d": 3061.882708333331,
      "v": 84
    },
    {
      "midi": 56,
      "hit": false,
      "t": 126922.3999999998,
      "d": 3269.213333333333,
      "v": 83
    },
    {
      "midi": 59,
      "hit": false,
      "t": 126922.3999999998,
      "d": 3479.5487500000017,
      "v": 96
    },
    {
      "midi": 63,
      "hit": false,
      "t": 126922.3999999998,
      "d": 3533.6349999999948,
      "v": 83
    },
    {
      "midi": 40,
      "hit": false,
      "t": 130095.4599999997,
      "d": 216.34500000000116,
      "v": 84
    },
    {
      "midi": 40,
      "hit": false,
      "t": 130095.4599999998,
      "d": 216.34500000000116,
      "v": 87
    },
    {
      "midi": 56,
      "hit": false,
      "t": 130383.9199999997,
      "d": 216.3449999999866,
      "v": 94
    },
    {
      "midi": 56,
      "hit": false,
      "t": 130383.91999999981,
      "d": 216.3449999999866,
      "v": 97
    },
    {
      "midi": 59,
      "hit": false,
      "t": 130672.3799999997,
      "d": 210.3354166666686,
      "v": 87
    },
    {
      "midi": 59,
      "hit": false,
      "t": 130672.3799999998,
      "d": 210.3354166666686,
      "v": 90
    },
    {
      "midi": 63,
      "hit": false,
      "t": 130960.8399999997,
      "d": 129.20604166667908,
      "v": 89
    },
    {
      "midi": 63,
      "hit": false,
      "t": 130960.83999999981,
      "d": 129.20604166666453,
      "v": 92
    },
    {
      "midi": 42,
      "hit": false,
      "t": 131537.75999999972,
      "d": 2127.3925000000163,
      "v": 80
    },
    {
      "midi": 61,
      "hit": false,
      "t": 131537.75999999972,
      "d": 2187.488333333342,
      "v": 80
    },
    {
      "midi": 57,
      "hit": false,
      "t": 131537.75999999972,
      "d": 2199.507500000007,
      "v": 85
    },
    {
      "midi": 64,
      "hit": false,
      "t": 131537.75999999972,
      "d": 2202.5122916666733,
      "v": 84
    },
    {
      "midi": 42,
      "hit": false,
      "t": 131537.7599999998,
      "d": 2127.3925000000163,
      "v": 83
    },
    {
      "midi": 61,
      "hit": false,
      "t": 131537.7599999998,
      "d": 2187.488333333342,
      "v": 83
    },
    {
      "midi": 57,
      "hit": false,
      "t": 131537.7599999998,
      "d": 2199.507500000007,
      "v": 88
    },
    {
      "midi": 64,
      "hit": false,
      "t": 131537.7599999998,
      "d": 2202.5122916666733,
      "v": 87
    },
    {
      "midi": 57,
      "hit": false,
      "t": 133845.4399999997,
      "d": 117.18687500001397,
      "v": 83
    },
    {
      "midi": 61,
      "hit": false,
      "t": 133845.4399999997,
      "d": 135.21562500001164,
      "v": 89
    },
    {
      "midi": 64,
      "hit": false,
      "t": 133845.4399999997,
      "d": 135.21562500001164,
      "v": 84
    },
    {
      "midi": 42,
      "hit": false,
      "t": 133845.4399999997,
      "d": 147.23479166667676,
      "v": 74
    },
    {
      "midi": 57,
      "hit": false,
      "t": 133845.4399999998,
      "d": 117.18687500001397,
      "v": 86
    },
    {
      "midi": 61,
      "hit": false,
      "t": 133845.4399999998,
      "d": 135.21562500001164,
      "v": 92
    },
    {
      "midi": 64,
      "hit": false,
      "t": 133845.4399999998,
      "d": 135.21562500001164,
      "v": 87
    },
    {
      "midi": 42,
      "hit": false,
      "t": 133845.4399999998,
      "d": 147.23479166667676,
      "v": 77
    },
    {
      "midi": 61,
      "hit": false,
      "t": 134999.2799999997,
      "d": 165.26354166667443,
      "v": 82
    },
    {
      "midi": 69,
      "hit": false,
      "t": 134999.2799999997,
      "d": 165.26354166667443,
      "v": 84
    },
    {
      "midi": 64,
      "hit": false,
      "t": 134999.2799999997,
      "d": 168.2683333333407,
      "v": 87
    },
    {
      "midi": 61,
      "hit": false,
      "t": 134999.2799999998,
      "d": 165.26354166667443,
      "v": 85
    },
    {
      "midi": 69,
      "hit": false,
      "t": 134999.2799999998,
      "d": 165.26354166667443,
      "v": 87
    },
    {
      "midi": 64,
      "hit": false,
      "t": 134999.2799999998,
      "d": 168.2683333333407,
      "v": 90
    },
    {
      "midi": 61,
      "hit": false,
      "t": 136153.1199999997,
      "d": 2163.4500000000116,
      "v": 74
    },
    {
      "midi": 45,
      "hit": false,
      "t": 136153.1199999997,
      "d": 2175.4691666666768,
      "v": 75
    },
    {
      "midi": 57,
      "hit": false,
      "t": 136153.1199999997,
      "d": 2175.4691666666768,
      "v": 79
    },
    {
      "midi": 64,
      "hit": false,
      "t": 136153.1199999997,
      "d": 2190.493125000008,
      "v": 78
    },
    {
      "midi": 61,
      "hit": false,
      "t": 136153.1199999998,
      "d": 2163.4500000000116,
      "v": 77
    },
    {
      "midi": 45,
      "hit": false,
      "t": 136153.1199999998,
      "d": 2175.4691666666768,
      "v": 78
    },
    {
      "midi": 57,
      "hit": false,
      "t": 136153.1199999998,
      "d": 2175.4691666666768,
      "v": 82
    },
    {
      "midi": 64,
      "hit": false,
      "t": 136153.1199999998,
      "d": 2190.493125000008,
      "v": 81
    },
    {
      "midi": 44,
      "hit": false,
      "t": 138460.79999999973,
      "d": 1141.8208333333314,
      "v": 82
    },
    {
      "midi": 59,
      "hit": false,
      "t": 138460.79999999973,
      "d": 1262.0125000000116,
      "v": 90
    },
    {
      "midi": 56,
      "hit": false,
      "t": 138460.79999999973,
      "d": 1292.0604166666744,
      "v": 80
    },
    {
      "midi": 63,
      "hit": false,
      "t": 138460.79999999973,
      "d": 1292.0604166666744,
      "v": 78
    },
    {
      "midi": 44,
      "hit": false,
      "t": 138460.7999999998,
      "d": 1141.8208333333314,
      "v": 85
    },
    {
      "midi": 59,
      "hit": false,
      "t": 138460.7999999998,
      "d": 1262.0125000000116,
      "v": 93
    },
    {
      "midi": 56,
      "hit": false,
      "t": 138460.7999999998,
      "d": 1292.0604166666744,
      "v": 83
    },
    {
      "midi": 63,
      "hit": false,
      "t": 138460.7999999998,
      "d": 1292.0604166666744,
      "v": 81
    },
    {
      "midi": 44,
      "hit": false,
      "t": 139903.09999999974,
      "d": 426.68041666664067,
      "v": 89
    },
    {
      "midi": 44,
      "hit": false,
      "t": 139903.09999999983,
      "d": 426.68041666664067,
      "v": 92
    },
    {
      "midi": 56,
      "hit": false,
      "t": 140191.55999999974,
      "d": 201.32104166664067,
      "v": 105
    },
    {
      "midi": 56,
      "hit": false,
      "t": 140191.55999999982,
      "d": 201.32104166664067,
      "v": 108
    },
    {
      "midi": 57,
      "hit": false,
      "t": 140768.47999999972,
      "d": 1322.108333333308,
      "v": 97
    },
    {
      "midi": 54,
      "hit": false,
      "t": 140768.47999999972,
      "d": 1328.1179166666407,
      "v": 82
    },
    {
      "midi": 61,
      "hit": false,
      "t": 140768.47999999972,
      "d": 1337.1322916666395,
      "v": 84
    },
    {
      "midi": 42,
      "hit": false,
      "t": 140768.47999999972,
      "d": 1358.1658333333035,
      "v": 97
    },
    {
      "midi": 57,
      "hit": false,
      "t": 140768.4799999998,
      "d": 1322.108333333308,
      "v": 100
    },
    {
      "midi": 54,
      "hit": false,
      "t": 140768.4799999998,
      "d": 1328.1179166666407,
      "v": 85
    },
    {
      "midi": 61,
      "hit": false,
      "t": 140768.4799999998,
      "d": 1337.1322916666395,
      "v": 87
    },
    {
      "midi": 42,
      "hit": false,
      "t": 140768.4799999998,
      "d": 1358.1658333333035,
      "v": 100
    },
    {
      "midi": 45,
      "hit": false,
      "t": 143076.15999999968,
      "d": 859.3704166666721,
      "v": 91
    },
    {
      "midi": 61,
      "hit": false,
      "t": 143076.15999999968,
      "d": 880.403958333336,
      "v": 80
    },
    {
      "midi": 57,
      "hit": false,
      "t": 143076.15999999968,
      "d": 886.4135416666686,
      "v": 81
    },
    {
      "midi": 64,
      "hit": false,
      "t": 143076.15999999968,
      "d": 892.4231250000012,
      "v": 85
    },
    {
      "midi": 45,
      "hit": false,
      "t": 143076.15999999977,
      "d": 859.3704166666721,
      "v": 94
    },
    {
      "midi": 61,
      "hit": false,
      "t": 143076.15999999977,
      "d": 880.403958333336,
      "v": 83
    },
    {
      "midi": 57,
      "hit": false,
      "t": 143076.15999999977,
      "d": 886.4135416666686,
      "v": 84
    },
    {
      "midi": 64,
      "hit": false,
      "t": 143076.15999999977,
      "d": 892.4231250000012,
      "v": 88
    },
    {
      "midi": 40,
      "hit": false,
      "t": 145383.83999999968,
      "d": 1295.0652083333116,
      "v": 81
    },
    {
      "midi": 59,
      "hit": false,
      "t": 145383.83999999968,
      "d": 1334.1274999999732,
      "v": 80
    },
    {
      "midi": 64,
      "hit": false,
      "t": 145383.83999999968,
      "d": 1388.2137499999662,
      "v": 76
    },
    {
      "midi": 56,
      "hit": false,
      "t": 145383.83999999968,
      "d": 1394.2233333332988,
      "v": 68
    },
    {
      "midi": 40,
      "hit": false,
      "t": 145383.83999999976,
      "d": 1295.0652083333116,
      "v": 84
    },
    {
      "midi": 59,
      "hit": false,
      "t": 145383.83999999976,
      "d": 1334.1274999999732,
      "v": 83
    },
    {
      "midi": 64,
      "hit": false,
      "t": 145383.83999999976,
      "d": 1388.2137499999662,
      "v": 79
    },
    {
      "midi": 56,
      "hit": false,
      "t": 145383.83999999976,
      "d": 1394.2233333332988,
      "v": 71
    },
    {
      "midi": 45,
      "hit": false,
      "t": 147691.51999999964,
      "d": 1006.6052083333198,
      "v": 79
    },
    {
      "midi": 61,
      "hit": false,
      "t": 147691.51999999964,
      "d": 1060.6914583333128,
      "v": 78
    },
    {
      "midi": 64,
      "hit": false,
      "t": 147691.51999999964,
      "d": 1060.6914583333128,
      "v": 83
    },
    {
      "midi": 57,
      "hit": false,
      "t": 147691.51999999964,
      "d": 1078.7202083333104,
      "v": 85
    },
    {
      "midi": 45,
      "hit": false,
      "t": 147691.51999999973,
      "d": 1006.6052083333198,
      "v": 82
    },
    {
      "midi": 61,
      "hit": false,
      "t": 147691.51999999973,
      "d": 1060.6914583333128,
      "v": 81
    },
    {
      "midi": 64,
      "hit": false,
      "t": 147691.51999999973,
      "d": 1060.6914583333128,
      "v": 86
    },
    {
      "midi": 57,
      "hit": false,
      "t": 147691.51999999973,
      "d": 1078.7202083333104,
      "v": 88
    },
    {
      "midi": 40,
      "hit": false,
      "t": 149999.1999999996,
      "d": 1814.8941666667233,
      "v": 109
    },
    {
      "midi": 56,
      "hit": false,
      "t": 149999.1999999997,
      "d": 2217.5362500000047,
      "v": 87
    },
    {
      "midi": 59,
      "hit": false,
      "t": 149999.1999999997,
      "d": 2217.5362500000047,
      "v": 90
    },
    {
      "midi": 40,
      "hit": false,
      "t": 149999.1999999997,
      "d": 2226.5506250000035,
      "v": 84
    },
    {
      "midi": 52,
      "hit": false,
      "t": 149999.1999999997,
      "d": 2226.5506250000035,
      "v": 86
    },
    {
      "midi": 64,
      "hit": false,
      "t": 150576.11999999962,
      "d": 117.18687500001397,
      "v": 87
    },
    {
      "midi": 64,
      "hit": false,
      "t": 150864.57999999964,
      "d": 138.22041666667792,
      "v": 87
    },
    {
      "midi": 59,
      "hit": false,
      "t": 151153.03999999966,
      "d": 132.21083333334536,
      "v": 91
    },
    {
      "midi": 61,
      "hit": false,
      "t": 151297.26999999967,
      "d": 120.19166666668025,
      "v": 69
    },
    {
      "midi": 59,
      "hit": false,
      "t": 151441.49999999968,
      "d": 652.0397916666116,
      "v": 109
    },
    {
      "midi": 56,
      "hit": false,
      "t": 151729.95999999967,
      "d": 964.5381249999627,
      "v": 114
    },
    {
      "midi": 40,
      "hit": false,
      "t": 152306.87999999963,
      "d": 1571.5060416667257,
      "v": 125
    },
    {
      "midi": 56,
      "hit": false,
      "t": 152306.87999999968,
      "d": 2139.4116666666523,
      "v": 83
    },
    {
      "midi": 40,
      "hit": false,
      "t": 152306.87999999968,
      "d": 2145.421249999985,
      "v": 93
    },
    {
      "midi": 52,
      "hit": false,
      "t": 152306.87999999968,
      "d": 2145.421249999985,
      "v": 81
    },
    {
      "midi": 59,
      "hit": false,
      "t": 152306.87999999968,
      "d": 2163.4499999999825,
      "v": 87
    },
    {
      "midi": 64,
      "hit": false,
      "t": 152883.79999999964,
      "d": 117.18687500001397,
      "v": 90
    },
    {
      "midi": 64,
      "hit": false,
      "t": 153172.25999999966,
      "d": 144.23000000001048,
      "v": 87
    },
    {
      "midi": 59,
      "hit": false,
      "t": 153460.71999999968,
      "d": 165.26354166667443,
      "v": 88
    },
    {
      "midi": 61,
      "hit": false,
      "t": 153604.9499999997,
      "d": 141.2252083333442,
      "v": 89
    },
    {
      "midi": 59,
      "hit": false,
      "t": 153749.1799999997,
      "d": 408.6516666666721,
      "v": 97
    },
    {
      "midi": 56,
      "hit": false,
      "t": 154037.6399999997,
      "d": 576.9199999999837,
      "v": 119
    },
    {
      "midi": 40,
      "hit": false,
      "t": 154614.55999999968,
      "d": 2364.7710416666523,
      "v": 87
    },
    {
      "midi": 56,
      "hit": false,
      "t": 154614.55999999968,
      "d": 2611.1639583333163,
      "v": 79
    },
    {
      "midi": 59,
      "hit": false,
      "t": 154614.55999999968,
      "d": 2752.3891666666605,
      "v": 98
    },
    {
      "midi": 63,
      "hit": false,
      "t": 154614.55999999968,
      "d": 2770.417916666658,
      "v": 83
    },
    {
      "midi": 68,
      "hit": false,
      "t": 155479.93999999968,
      "d": 216.34500000000116,
      "v": 94
    },
    {
      "midi": 80,
      "hit": false,
      "t": 155479.93999999968,
      "d": 216.34500000000116,
      "v": 94
    },
    {
      "midi": 68,
      "hit": false,
      "t": 155768.39999999967,
      "d": 486.77624999999534,
      "v": 94
    },
    {
      "midi": 80,
      "hit": false,
      "t": 155768.39999999967,
      "d": 486.77624999999534,
      "v": 94
    },
    {
      "midi": 68,
      "hit": false,
      "t": 156345.31999999966,
      "d": 462.7379166666651,
      "v": 89
    },
    {
      "midi": 80,
      "hit": false,
      "t": 156345.31999999966,
      "d": 462.7379166666651,
      "v": 89
    },
    {
      "midi": 68,
      "hit": false,
      "t": 156922.23999999967,
      "d": 1325.1131250000035,
      "v": 97
    },
    {
      "midi": 80,
      "hit": false,
      "t": 156922.23999999967,
      "d": 1325.1131250000035,
      "v": 97
    },
    {
      "midi": 40,
      "hit": false,
      "t": 157210.69999999966,
      "d": 336.5366666666814,
      "v": 83
    },
    {
      "midi": 56,
      "hit": false,
      "t": 157499.15999999968,
      "d": 249.39770833333023,
      "v": 100
    },
    {
      "midi": 59,
      "hit": false,
      "t": 157787.61999999968,
      "d": 216.34500000000116,
      "v": 70
    },
    {
      "midi": 63,
      "hit": false,
      "t": 158076.07999999967,
      "d": 171.27312500000698,
      "v": 87
    },
    {
      "midi": 68,
      "hit": false,
      "t": 158364.5399999997,
      "d": 438.6995833333349,
      "v": 91
    },
    {
      "midi": 80,
      "hit": false,
      "t": 158364.5399999997,
      "d": 438.6995833333349,
      "v": 91
    },
    {
      "midi": 68,
      "hit": false,
      "t": 158941.4599999997,
      "d": 288.45999999999185,
      "v": 91
    },
    {
      "midi": 80,
      "hit": false,
      "t": 158941.4599999997,
      "d": 288.45999999999185,
      "v": 91
    },
    {
      "midi": 57,
      "hit": false,
      "t": 159229.91999999966,
      "d": 3091.930625000008,
      "v": 78
    },
    {
      "midi": 42,
      "hit": false,
      "t": 159229.91999999966,
      "d": 3173.0599999999977,
      "v": 89
    },
    {
      "midi": 61,
      "hit": false,
      "t": 159229.91999999966,
      "d": 3224.1414583333244,
      "v": 72
    },
    {
      "midi": 64,
      "hit": false,
      "t": 159229.91999999966,
      "d": 3227.1462499999907,
      "v": 81
    },
    {
      "midi": 66,
      "hit": false,
      "t": 159229.9199999997,
      "d": 2914.6479166666686,
      "v": 91
    },
    {
      "midi": 78,
      "hit": false,
      "t": 159229.9199999997,
      "d": 2914.6479166666686,
      "v": 91
    },
    {
      "midi": 57,
      "hit": false,
      "t": 162402.97999999966,
      "d": 204.32583333333605,
      "v": 74
    },
    {
      "midi": 64,
      "hit": false,
      "t": 162691.43999999965,
      "d": 456.72833333333256,
      "v": 93
    },
    {
      "midi": 61,
      "hit": false,
      "t": 163268.35999999967,
      "d": 99.1581249999872,
      "v": 97
    },
    {
      "midi": 40,
      "hit": false,
      "t": 163845.27999999965,
      "d": 3061.8827083333163,
      "v": 84
    },
    {
      "midi": 56,
      "hit": false,
      "t": 163845.27999999965,
      "d": 3269.2133333332895,
      "v": 83
    },
    {
      "midi": 59,
      "hit": false,
      "t": 163845.27999999965,
      "d": 3479.548749999958,
      "v": 96
    },
    {
      "midi": 63,
      "hit": false,
      "t": 163845.27999999965,
      "d": 3533.634999999951,
      "v": 83
    },
    {
      "midi": 68,
      "hit": false,
      "t": 164710.65999999968,
      "d": 213.34020833333489,
      "v": 89
    },
    {
      "midi": 80,
      "hit": false,
      "t": 164710.65999999968,
      "d": 213.34020833333489,
      "v": 89
    },
    {
      "midi": 68,
      "hit": false,
      "t": 164999.11999999968,
      "d": 468.7474999999977,
      "v": 89
    },
    {
      "midi": 80,
      "hit": false,
      "t": 164999.11999999968,
      "d": 468.7474999999977,
      "v": 89
    },
    {
      "midi": 68,
      "hit": false,
      "t": 165576.03999999966,
      "d": 480.7666666666628,
      "v": 91
    },
    {
      "midi": 80,
      "hit": false,
      "t": 165576.03999999966,
      "d": 480.7666666666628,
      "v": 91
    },
    {
      "midi": 68,
      "hit": false,
      "t": 166152.95999999964,
      "d": 1553.4772916666698,
      "v": 94
    },
    {
      "midi": 80,
      "hit": false,
      "t": 166152.95999999964,
      "d": 1553.4772916666698,
      "v": 94
    },
    {
      "midi": 40,
      "hit": false,
      "t": 167018.33999999962,
      "d": 216.34500000000116,
      "v": 87
    },
    {
      "midi": 56,
      "hit": false,
      "t": 167306.7999999996,
      "d": 216.34500000000116,
      "v": 97
    },
    {
      "midi": 59,
      "hit": false,
      "t": 167595.2599999996,
      "d": 210.3354166666686,
      "v": 90
    },
    {
      "midi": 63,
      "hit": false,
      "t": 167883.7199999996,
      "d": 129.20604166667908,
      "v": 92
    },
    {
      "midi": 68,
      "hit": false,
      "t": 167883.71999999965,
      "d": 576.9200000000128,
      "v": 114
    },
    {
      "midi": 80,
      "hit": false,
      "t": 167883.71999999965,
      "d": 576.9200000000128,
      "v": 114
    },
    {
      "midi": 42,
      "hit": false,
      "t": 168460.6399999996,
      "d": 2127.3925000000163,
      "v": 83
    },
    {
      "midi": 61,
      "hit": false,
      "t": 168460.6399999996,
      "d": 2187.488333333342,
      "v": 83
    },
    {
      "midi": 57,
      "hit": false,
      "t": 168460.6399999996,
      "d": 2199.507500000007,
      "v": 88
    },
    {
      "midi": 64,
      "hit": false,
      "t": 168460.6399999996,
      "d": 2202.5122916666733,
      "v": 87
    },
    {
      "midi": 66,
      "hit": false,
      "t": 168460.63999999966,
      "d": 1715.736041666678,
      "v": 109
    },
    {
      "midi": 78,
      "hit": false,
      "t": 168460.63999999966,
      "d": 1715.736041666678,
      "v": 109
    },
    {
      "midi": 57,
      "hit": false,
      "t": 170768.3199999996,
      "d": 117.18687500001397,
      "v": 86
    },
    {
      "midi": 61,
      "hit": false,
      "t": 170768.3199999996,
      "d": 135.21562500001164,
      "v": 92
    },
    {
      "midi": 64,
      "hit": false,
      "t": 170768.3199999996,
      "d": 135.21562500001164,
      "v": 87
    },
    {
      "midi": 42,
      "hit": false,
      "t": 170768.3199999996,
      "d": 147.23479166667676,
      "v": 77
    },
    {
      "midi": 57,
      "hit": false,
      "t": 170768.3199999997,
      "d": 117.18687500001397,
      "v": 83
    },
    {
      "midi": 61,
      "hit": false,
      "t": 170768.3199999997,
      "d": 135.21562500001164,
      "v": 89
    },
    {
      "midi": 64,
      "hit": false,
      "t": 170768.3199999997,
      "d": 135.21562500001164,
      "v": 84
    },
    {
      "midi": 42,
      "hit": false,
      "t": 170768.3199999997,
      "d": 147.23479166667676,
      "v": 74
    },
    {
      "midi": 61,
      "hit": false,
      "t": 171922.1599999996,
      "d": 165.26354166667443,
      "v": 85
    },
    {
      "midi": 69,
      "hit": false,
      "t": 171922.1599999996,
      "d": 165.26354166667443,
      "v": 87
    },
    {
      "midi": 64,
      "hit": false,
      "t": 171922.1599999996,
      "d": 168.2683333333407,
      "v": 90
    },
    {
      "midi": 61,
      "hit": false,
      "t": 171922.15999999968,
      "d": 165.26354166667443,
      "v": 82
    },
    {
      "midi": 69,
      "hit": false,
      "t": 171922.15999999968,
      "d": 165.26354166667443,
      "v": 84
    },
    {
      "midi": 64,
      "hit": false,
      "t": 171922.15999999968,
      "d": 168.2683333333407,
      "v": 87
    },
    {
      "midi": 61,
      "hit": false,
      "t": 173075.9999999996,
      "d": 2163.4500000000116,
      "v": 77
    },
    {
      "midi": 45,
      "hit": false,
      "t": 173075.9999999996,
      "d": 2175.4691666666768,
      "v": 78
    },
    {
      "midi": 57,
      "hit": false,
      "t": 173075.9999999996,
      "d": 2175.4691666666768,
      "v": 82
    },
    {
      "midi": 64,
      "hit": false,
      "t": 173075.9999999996,
      "d": 2190.493125000008,
      "v": 81
    },
    {
      "midi": 61,
      "hit": false,
      "t": 173075.99999999968,
      "d": 2163.4500000000116,
      "v": 74
    },
    {
      "midi": 45,
      "hit": false,
      "t": 173075.99999999968,
      "d": 2175.4691666666768,
      "v": 75
    },
    {
      "midi": 57,
      "hit": false,
      "t": 173075.99999999968,
      "d": 2175.4691666666768,
      "v": 79
    },
    {
      "midi": 64,
      "hit": false,
      "t": 173075.99999999968,
      "d": 2190.493125000008,
      "v": 78
    },
    {
      "midi": 44,
      "hit": false,
      "t": 175383.67999999961,
      "d": 1141.8208333333314,
      "v": 85
    },
    {
      "midi": 59,
      "hit": false,
      "t": 175383.67999999961,
      "d": 1262.0125000000116,
      "v": 93
    },
    {
      "midi": 56,
      "hit": false,
      "t": 175383.67999999961,
      "d": 1292.0604166666744,
      "v": 83
    },
    {
      "midi": 63,
      "hit": false,
      "t": 175383.67999999961,
      "d": 1292.0604166666744,
      "v": 81
    },
    {
      "midi": 44,
      "hit": false,
      "t": 175383.6799999997,
      "d": 1141.8208333333314,
      "v": 82
    },
    {
      "midi": 59,
      "hit": false,
      "t": 175383.6799999997,
      "d": 1262.0125000000116,
      "v": 90
    },
    {
      "midi": 56,
      "hit": false,
      "t": 175383.6799999997,
      "d": 1292.0604166666744,
      "v": 80
    },
    {
      "midi": 63,
      "hit": false,
      "t": 175383.6799999997,
      "d": 1292.0604166666744,
      "v": 78
    },
    {
      "midi": 44,
      "hit": false,
      "t": 176825.97999999963,
      "d": 426.68041666664067,
      "v": 92
    },
    {
      "midi": 44,
      "hit": false,
      "t": 176825.97999999972,
      "d": 426.68041666664067,
      "v": 89
    },
    {
      "midi": 56,
      "hit": false,
      "t": 177114.43999999962,
      "d": 201.32104166664067,
      "v": 108
    },
    {
      "midi": 56,
      "hit": false,
      "t": 177114.4399999997,
      "d": 201.32104166664067,
      "v": 105
    },
    {
      "midi": 57,
      "hit": false,
      "t": 177691.3599999996,
      "d": 1322.108333333308,
      "v": 100
    },
    {
      "midi": 54,
      "hit": false,
      "t": 177691.3599999996,
      "d": 1328.1179166666407,
      "v": 85
    },
    {
      "midi": 61,
      "hit": false,
      "t": 177691.3599999996,
      "d": 1337.1322916666395,
      "v": 87
    },
    {
      "midi": 42,
      "hit": false,
      "t": 177691.3599999996,
      "d": 1358.1658333333035,
      "v": 100
    },
    {
      "midi": 57,
      "hit": false,
      "t": 177691.3599999997,
      "d": 1322.108333333308,
      "v": 97
    },
    {
      "midi": 54,
      "hit": false,
      "t": 177691.3599999997,
      "d": 1328.1179166666407,
      "v": 82
    },
    {
      "midi": 61,
      "hit": false,
      "t": 177691.3599999997,
      "d": 1337.1322916666395,
      "v": 84
    },
    {
      "midi": 42,
      "hit": false,
      "t": 177691.3599999997,
      "d": 1358.1658333333035,
      "v": 97
    },
    {
      "midi": 45,
      "hit": false,
      "t": 179999.03999999957,
      "d": 859.3704166666721,
      "v": 94
    },
    {
      "midi": 61,
      "hit": false,
      "t": 179999.03999999957,
      "d": 880.403958333336,
      "v": 83
    },
    {
      "midi": 57,
      "hit": false,
      "t": 179999.03999999957,
      "d": 886.4135416666686,
      "v": 84
    },
    {
      "midi": 64,
      "hit": false,
      "t": 179999.03999999957,
      "d": 892.4231250000012,
      "v": 88
    },
    {
      "midi": 45,
      "hit": false,
      "t": 179999.03999999966,
      "d": 859.3704166666721,
      "v": 91
    },
    {
      "midi": 61,
      "hit": false,
      "t": 179999.03999999966,
      "d": 880.403958333336,
      "v": 80
    },
    {
      "midi": 57,
      "hit": false,
      "t": 179999.03999999966,
      "d": 886.4135416666686,
      "v": 81
    },
    {
      "midi": 64,
      "hit": false,
      "t": 179999.03999999966,
      "d": 892.4231250000012,
      "v": 85
    },
    {
      "midi": 40,
      "hit": false,
      "t": 182306.71999999956,
      "d": 1295.0652083333116,
      "v": 84
    },
    {
      "midi": 59,
      "hit": false,
      "t": 182306.71999999956,
      "d": 1334.1274999999732,
      "v": 83
    },
    {
      "midi": 64,
      "hit": false,
      "t": 182306.71999999956,
      "d": 1388.2137499999662,
      "v": 79
    },
    {
      "midi": 56,
      "hit": false,
      "t": 182306.71999999956,
      "d": 1394.2233333332988,
      "v": 71
    },
    {
      "midi": 40,
      "hit": false,
      "t": 182306.71999999965,
      "d": 1295.0652083333116,
      "v": 81
    },
    {
      "midi": 59,
      "hit": false,
      "t": 182306.71999999965,
      "d": 1334.1274999999732,
      "v": 80
    },
    {
      "midi": 64,
      "hit": false,
      "t": 182306.71999999965,
      "d": 1388.2137499999662,
      "v": 76
    },
    {
      "midi": 56,
      "hit": false,
      "t": 182306.71999999965,
      "d": 1394.2233333332988,
      "v": 68
    },
    {
      "midi": 45,
      "hit": false,
      "t": 184614.39999999953,
      "d": 1006.6052083333198,
      "v": 82
    },
    {
      "midi": 61,
      "hit": false,
      "t": 184614.39999999953,
      "d": 1060.6914583333128,
      "v": 81
    },
    {
      "midi": 64,
      "hit": false,
      "t": 184614.39999999953,
      "d": 1060.6914583333128,
      "v": 86
    },
    {
      "midi": 57,
      "hit": false,
      "t": 184614.39999999953,
      "d": 1078.7202083333104,
      "v": 88
    },
    {
      "midi": 45,
      "hit": false,
      "t": 184614.39999999962,
      "d": 1006.6052083333198,
      "v": 79
    },
    {
      "midi": 61,
      "hit": false,
      "t": 184614.39999999962,
      "d": 1060.6914583333128,
      "v": 78
    },
    {
      "midi": 64,
      "hit": false,
      "t": 184614.39999999962,
      "d": 1060.6914583333128,
      "v": 83
    },
    {
      "midi": 57,
      "hit": false,
      "t": 184614.39999999962,
      "d": 1078.7202083333104,
      "v": 85
    },
    {
      "midi": 56,
      "hit": false,
      "t": 186922.0799999995,
      "d": 2217.5362500000047,
      "v": 87
    },
    {
      "midi": 59,
      "hit": false,
      "t": 186922.0799999995,
      "d": 2217.5362500000047,
      "v": 90
    },
    {
      "midi": 40,
      "hit": false,
      "t": 186922.0799999995,
      "d": 2226.5506250000035,
      "v": 84
    },
    {
      "midi": 52,
      "hit": false,
      "t": 186922.0799999995,
      "d": 2226.5506250000035,
      "v": 86
    },
    {
      "midi": 40,
      "hit": false,
      "t": 186922.07999999958,
      "d": 1814.8941666667233,
      "v": 109
    },
    {
      "midi": 64,
      "hit": false,
      "t": 187498.9999999996,
      "d": 117.18687500001397,
      "v": 87
    },
    {
      "midi": 64,
      "hit": false,
      "t": 187787.4599999996,
      "d": 138.22041666667792,
      "v": 87
    },
    {
      "midi": 59,
      "hit": false,
      "t": 188075.91999999963,
      "d": 132.21083333334536,
      "v": 91
    },
    {
      "midi": 61,
      "hit": false,
      "t": 188220.14999999964,
      "d": 120.19166666668025,
      "v": 69
    },
    {
      "midi": 59,
      "hit": false,
      "t": 188364.37999999966,
      "d": 652.0397916666116,
      "v": 109
    },
    {
      "midi": 56,
      "hit": false,
      "t": 188652.83999999965,
      "d": 964.5381249999627,
      "v": 114
    },
    {
      "midi": 56,
      "hit": false,
      "t": 189229.75999999949,
      "d": 2139.4116666666523,
      "v": 83
    },
    {
      "midi": 40,
      "hit": false,
      "t": 189229.75999999949,
      "d": 2145.421249999985,
      "v": 93
    },
    {
      "midi": 52,
      "hit": false,
      "t": 189229.75999999949,
      "d": 2145.421249999985,
      "v": 81
    },
    {
      "midi": 59,
      "hit": false,
      "t": 189229.75999999949,
      "d": 2163.4499999999825,
      "v": 87
    },
    {
      "midi": 40,
      "hit": false,
      "t": 189229.7599999996,
      "d": 1571.5060416667257,
      "v": 125
    },
    {
      "midi": 64,
      "hit": false,
      "t": 189806.67999999961,
      "d": 117.18687500001397,
      "v": 90
    },
    {
      "midi": 64,
      "hit": false,
      "t": 190095.13999999964,
      "d": 144.23000000001048,
      "v": 87
    },
    {
      "midi": 59,
      "hit": false,
      "t": 190383.59999999966,
      "d": 165.26354166667443,
      "v": 88
    },
    {
      "midi": 61,
      "hit": false,
      "t": 190527.82999999967,
      "d": 141.2252083333442,
      "v": 89
    },
    {
      "midi": 59,
      "hit": false,
      "t": 190672.05999999968,
      "d": 408.6516666666721,
      "v": 97
    },
    {
      "midi": 56,
      "hit": false,
      "t": 190960.51999999967,
      "d": 576.9199999999837,
      "v": 119
    },
    {
      "midi": 68,
      "hit": false,
      "t": 191537.43999999948,
      "d": 486.77625000002445,
      "v": 100
    },
    {
      "midi": 63,
      "hit": false,
      "t": 191537.43999999948,
      "d": 528.8433333333523,
      "v": 92
    },
    {
      "midi": 71,
      "hit": false,
      "t": 191537.43999999948,
      "d": 552.8816666666826,
      "v": 100
    },
    {
      "midi": 52,
      "hit": false,
      "t": 191537.43999999948,
      "d": 1748.7887499999779,
      "v": 96
    },
    {
      "midi": 59,
      "hit": false,
      "t": 191537.43999999948,
      "d": 1754.7983333333104,
      "v": 86
    },
    {
      "midi": 63,
      "hit": false,
      "t": 192114.35999999967,
      "d": 303.48395833332324,
      "v": 114
    },
    {
      "midi": 75,
      "hit": false,
      "t": 192114.35999999967,
      "d": 303.48395833332324,
      "v": 114
    },
    {
      "midi": 71,
      "hit": false,
      "t": 192402.81999999948,
      "d": 603.9631249999802,
      "v": 100
    },
    {
      "midi": 66,
      "hit": false,
      "t": 192402.81999999948,
      "d": 640.0206249999756,
      "v": 112
    },
    {
      "midi": 63,
      "hit": false,
      "t": 192691.27999999965,
      "d": 291.46479166665813,
      "v": 114
    },
    {
      "midi": 75,
      "hit": false,
      "t": 192691.27999999965,
      "d": 291.46479166665813,
      "v": 114
    },
    {
      "midi": 59,
      "hit": false,
      "t": 192979.73999999964,
      "d": 432.6900000000023,
      "v": 109
    },
    {
      "midi": 71,
      "hit": false,
      "t": 192979.73999999964,
      "d": 432.6900000000023,
      "v": 109
    },
    {
      "midi": 59,
      "hit": false,
      "t": 193556.65999999965,
      "d": 318.50791666665464,
      "v": 118
    },
    {
      "midi": 71,
      "hit": false,
      "t": 193556.65999999965,
      "d": 318.50791666665464,
      "v": 118
    },
    {
      "midi": 56,
      "hit": false,
      "t": 193700.88999999946,
      "d": 766.2218749999884,
      "v": 62
    },
    {
      "midi": 52,
      "hit": false,
      "t": 193700.88999999946,
      "d": 982.5668749999895,
      "v": 68
    },
    {
      "midi": 59,
      "hit": false,
      "t": 193845.11999999944,
      "d": 979.5620833333523,
      "v": 68
    },
    {
      "midi": 68,
      "hit": false,
      "t": 193845.11999999944,
      "d": 1060.6914583333419,
      "v": 85
    },
    {
      "midi": 63,
      "hit": false,
      "t": 193845.11999999944,
      "d": 1159.849583333329,
      "v": 85
    },
    {
      "midi": 56,
      "hit": false,
      "t": 193845.11999999965,
      "d": 1340.1370833333349,
      "v": 105
    },
    {
      "midi": 68,
      "hit": false,
      "t": 193845.11999999965,
      "d": 1340.1370833333349,
      "v": 105
    },
    {
      "midi": 56,
      "hit": false,
      "t": 195575.87999999966,
      "d": 285.4552083333256,
      "v": 119
    },
    {
      "midi": 68,
      "hit": false,
      "t": 195575.87999999966,
      "d": 285.4552083333256,
      "v": 119
    },
    {
      "midi": 52,
      "hit": false,
      "t": 195864.33999999965,
      "d": 348.5558333333174,
      "v": 112
    },
    {
      "midi": 64,
      "hit": false,
      "t": 195864.33999999965,
      "d": 348.5558333333174,
      "v": 112
    },
    {
      "midi": 66,
      "hit": false,
      "t": 196152.79999999944,
      "d": 429.68520833330695,
      "v": 87
    },
    {
      "midi": 69,
      "hit": false,
      "t": 196152.79999999944,
      "d": 432.6899999999732,
      "v": 90
    },
    {
      "midi": 61,
      "hit": false,
      "t": 196152.79999999944,
      "d": 441.70437499997206,
      "v": 81
    },
    {
      "midi": 54,
      "hit": false,
      "t": 196152.79999999944,
      "d": 1144.8256249999686,
      "v": 61
    },
    {
      "midi": 49,
      "hit": false,
      "t": 196152.79999999944,
      "d": 1153.8399999999674,
      "v": 62
    },
    {
      "midi": 57,
      "hit": false,
      "t": 196152.79999999944,
      "d": 1177.8783333332976,
      "v": 70
    },
    {
      "midi": 54,
      "hit": false,
      "t": 196152.79999999964,
      "d": 225.359375,
      "v": 119
    },
    {
      "midi": 66,
      "hit": false,
      "t": 196152.79999999964,
      "d": 225.359375,
      "v": 119
    },
    {
      "midi": 54,
      "hit": false,
      "t": 196441.25999999963,
      "d": 1727.755208333343,
      "v": 94
    },
    {
      "midi": 66,
      "hit": false,
      "t": 196441.25999999963,
      "d": 1727.755208333343,
      "v": 94
    },
    {
      "midi": 64,
      "hit": false,
      "t": 197018.1799999994,
      "d": 183.2922916666721,
      "v": 96
    },
    {
      "midi": 69,
      "hit": false,
      "t": 197018.1799999994,
      "d": 219.34979166666744,
      "v": 93
    },
    {
      "midi": 69,
      "hit": false,
      "t": 197883.5599999994,
      "d": 123.19645833334653,
      "v": 118
    },
    {
      "midi": 71,
      "hit": false,
      "t": 198172.0199999994,
      "d": 96.15333333332092,
      "v": 109
    },
    {
      "midi": 73,
      "hit": false,
      "t": 198460.4799999994,
      "d": 606.9679166666756,
      "v": 112
    },
    {
      "midi": 75,
      "hit": false,
      "t": 199037.3999999994,
      "d": 573.9152083333174,
      "v": 108
    },
    {
      "midi": 76,
      "hit": false,
      "t": 199614.3199999994,
      "d": 603.9631250000093,
      "v": 100
    },
    {
      "midi": 78,
      "hit": false,
      "t": 200191.2399999994,
      "d": 96.15333333332092,
      "v": 117
    },
    {
      "midi": 68,
      "hit": false,
      "t": 200768.1599999994,
      "d": 618.9870833333407,
      "v": 97
    },
    {
      "midi": 63,
      "hit": false,
      "t": 200768.1599999994,
      "d": 661.0541666666686,
      "v": 94
    },
    {
      "midi": 71,
      "hit": false,
      "t": 200768.1599999994,
      "d": 709.1308333333291,
      "v": 94
    },
    {
      "midi": 52,
      "hit": false,
      "t": 200768.1599999994,
      "d": 2379.7949999999837,
      "v": 84
    },
    {
      "midi": 59,
      "hit": false,
      "t": 200768.1599999994,
      "d": 2385.8045833333163,
      "v": 69
    },
    {
      "midi": 63,
      "hit": false,
      "t": 201345.07999999964,
      "d": 303.48395833332324,
      "v": 114
    },
    {
      "midi": 75,
      "hit": false,
      "t": 201345.07999999964,
      "d": 303.48395833332324,
      "v": 114
    },
    {
      "midi": 71,
      "hit": false,
      "t": 201633.5399999994,
      "d": 931.4854166666628,
      "v": 98
    },
    {
      "midi": 66,
      "hit": false,
      "t": 201633.5399999994,
      "d": 1015.6195833333186,
      "v": 104
    },
    {
      "midi": 63,
      "hit": false,
      "t": 201921.99999999962,
      "d": 291.46479166665813,
      "v": 114
    },
    {
      "midi": 75,
      "hit": false,
      "t": 201921.99999999962,
      "d": 291.46479166665813,
      "v": 114
    },
    {
      "midi": 59,
      "hit": false,
      "t": 202210.4599999996,
      "d": 432.6900000000023,
      "v": 109
    },
    {
      "midi": 71,
      "hit": false,
      "t": 202210.4599999996,
      "d": 432.6900000000023,
      "v": 109
    },
    {
      "midi": 59,
      "hit": false,
      "t": 202787.37999999963,
      "d": 318.50791666665464,
      "v": 118
    },
    {
      "midi": 71,
      "hit": false,
      "t": 202787.37999999963,
      "d": 318.50791666665464,
      "v": 118
    },
    {
      "midi": 56,
      "hit": false,
      "t": 203075.83999999962,
      "d": 1340.1370833333349,
      "v": 105
    },
    {
      "midi": 68,
      "hit": false,
      "t": 203075.83999999962,
      "d": 1340.1370833333349,
      "v": 105
    },
    {
      "midi": 68,
      "hit": false,
      "t": 203652.75999999937,
      "d": 357.57020833334536,
      "v": 92
    },
    {
      "midi": 64,
      "hit": false,
      "t": 203652.75999999937,
      "d": 381.6085416666756,
      "v": 94
    },
    {
      "midi": 71,
      "hit": false,
      "t": 203652.75999999937,
      "d": 390.6229166666744,
      "v": 94
    },
    {
      "midi": 59,
      "hit": false,
      "t": 203652.75999999937,
      "d": 1069.7058333333407,
      "v": 68
    },
    {
      "midi": 52,
      "hit": false,
      "t": 203652.75999999937,
      "d": 1105.763333333336,
      "v": 75
    },
    {
      "midi": 66,
      "hit": false,
      "t": 204229.67999999938,
      "d": 192.30666666667094,
      "v": 104
    },
    {
      "midi": 71,
      "hit": false,
      "t": 204229.67999999938,
      "d": 402.64208333333954,
      "v": 84
    },
    {
      "midi": 64,
      "hit": false,
      "t": 204806.59999999937,
      "d": 111.17729166665231,
      "v": 98
    },
    {
      "midi": 56,
      "hit": false,
      "t": 204806.59999999963,
      "d": 285.4552083333256,
      "v": 119
    },
    {
      "midi": 68,
      "hit": false,
      "t": 204806.59999999963,
      "d": 285.4552083333256,
      "v": 119
    },
    {
      "midi": 52,
      "hit": false,
      "t": 205095.05999999962,
      "d": 348.5558333333174,
      "v": 112
    },
    {
      "midi": 64,
      "hit": false,
      "t": 205095.05999999962,
      "d": 348.5558333333174,
      "v": 112
    },
    {
      "midi": 45,
      "hit": false,
      "t": 205383.51999999935,
      "d": 156.2491666666756,
      "v": 77
    },
    {
      "midi": 57,
      "hit": false,
      "t": 205383.51999999935,
      "d": 459.73312499999884,
      "v": 82
    },
    {
      "midi": 61,
      "hit": false,
      "t": 205383.51999999935,
      "d": 477.7618749999965,
      "v": 77
    },
    {
      "midi": 64,
      "hit": false,
      "t": 205383.51999999935,
      "d": 489.7810416666616,
      "v": 80
    },
    {
      "midi": 54,
      "hit": false,
      "t": 205383.5199999996,
      "d": 225.359375,
      "v": 119
    },
    {
      "midi": 66,
      "hit": false,
      "t": 205383.5199999996,
      "d": 225.359375,
      "v": 119
    },
    {
      "midi": 54,
      "hit": false,
      "t": 205671.9799999996,
      "d": 1727.755208333343,
      "v": 94
    },
    {
      "midi": 66,
      "hit": false,
      "t": 205671.9799999996,
      "d": 1727.755208333343,
      "v": 94
    },
    {
      "midi": 66,
      "hit": false,
      "t": 206248.89999999935,
      "d": 126.2012500000128,
      "v": 79
    },
    {
      "midi": 61,
      "hit": false,
      "t": 206248.89999999935,
      "d": 141.2252083333442,
      "v": 77
    },
    {
      "midi": 64,
      "hit": false,
      "t": 207691.19999999937,
      "d": 369.5893750000105,
      "v": 100
    },
    {
      "midi": 61,
      "hit": false,
      "t": 208556.57999999938,
      "d": 679.0829166666372,
      "v": 76
    },
    {
      "midi": 64,
      "hit": false,
      "t": 208556.57999999938,
      "d": 700.1164583333011,
      "v": 80
    },
    {
      "midi": 57,
      "hit": false,
      "t": 208556.57999999938,
      "d": 706.1260416666337,
      "v": 76
    },
    {
      "midi": 68,
      "hit": false,
      "t": 209998.87999999934,
      "d": 486.77625000002445,
      "v": 100
    },
    {
      "midi": 63,
      "hit": false,
      "t": 209998.87999999934,
      "d": 528.8433333333523,
      "v": 92
    },
    {
      "midi": 71,
      "hit": false,
      "t": 209998.87999999934,
      "d": 552.8816666666826,
      "v": 100
    },
    {
      "midi": 52,
      "hit": false,
      "t": 209998.87999999934,
      "d": 1748.7887499999779,
      "v": 96
    },
    {
      "midi": 59,
      "hit": false,
      "t": 209998.87999999934,
      "d": 1754.7983333333104,
      "v": 86
    },
    {
      "midi": 63,
      "hit": false,
      "t": 210575.7999999996,
      "d": 303.48395833332324,
      "v": 114
    },
    {
      "midi": 75,
      "hit": false,
      "t": 210575.7999999996,
      "d": 303.48395833332324,
      "v": 114
    },
    {
      "midi": 71,
      "hit": false,
      "t": 210864.25999999934,
      "d": 603.9631249999802,
      "v": 100
    },
    {
      "midi": 66,
      "hit": false,
      "t": 210864.25999999934,
      "d": 640.0206249999756,
      "v": 112
    },
    {
      "midi": 63,
      "hit": false,
      "t": 211152.7199999996,
      "d": 291.46479166665813,
      "v": 114
    },
    {
      "midi": 75,
      "hit": false,
      "t": 211152.7199999996,
      "d": 291.46479166665813,
      "v": 114
    },
    {
      "midi": 59,
      "hit": false,
      "t": 211441.1799999996,
      "d": 432.6900000000023,
      "v": 109
    },
    {
      "midi": 71,
      "hit": false,
      "t": 211441.1799999996,
      "d": 432.6900000000023,
      "v": 109
    },
    {
      "midi": 59,
      "hit": false,
      "t": 212018.0999999996,
      "d": 318.50791666665464,
      "v": 118
    },
    {
      "midi": 71,
      "hit": false,
      "t": 212018.0999999996,
      "d": 318.50791666665464,
      "v": 118
    },
    {
      "midi": 56,
      "hit": false,
      "t": 212162.32999999932,
      "d": 766.2218749999884,
      "v": 62
    },
    {
      "midi": 52,
      "hit": false,
      "t": 212162.32999999932,
      "d": 982.5668749999895,
      "v": 68
    },
    {
      "midi": 59,
      "hit": false,
      "t": 212306.5599999993,
      "d": 979.5620833333523,
      "v": 68
    },
    {
      "midi": 68,
      "hit": false,
      "t": 212306.5599999993,
      "d": 1060.6914583333419,
      "v": 85
    },
    {
      "midi": 63,
      "hit": false,
      "t": 212306.5599999993,
      "d": 1159.849583333329,
      "v": 85
    },
    {
      "midi": 56,
      "hit": false,
      "t": 212306.5599999996,
      "d": 1340.1370833333349,
      "v": 105
    },
    {
      "midi": 68,
      "hit": false,
      "t": 212306.5599999996,
      "d": 1340.1370833333349,
      "v": 105
    },
    {
      "midi": 56,
      "hit": false,
      "t": 214037.3199999996,
      "d": 285.4552083333256,
      "v": 119
    },
    {
      "midi": 68,
      "hit": false,
      "t": 214037.3199999996,
      "d": 285.4552083333256,
      "v": 119
    },
    {
      "midi": 52,
      "hit": false,
      "t": 214325.7799999996,
      "d": 348.5558333333174,
      "v": 112
    },
    {
      "midi": 64,
      "hit": false,
      "t": 214325.7799999996,
      "d": 348.5558333333174,
      "v": 112
    },
    {
      "midi": 66,
      "hit": false,
      "t": 214614.2399999993,
      "d": 429.68520833330695,
      "v": 87
    },
    {
      "midi": 69,
      "hit": false,
      "t": 214614.2399999993,
      "d": 432.6899999999732,
      "v": 90
    },
    {
      "midi": 61,
      "hit": false,
      "t": 214614.2399999993,
      "d": 441.70437499997206,
      "v": 81
    },
    {
      "midi": 54,
      "hit": false,
      "t": 214614.2399999993,
      "d": 1144.8256249999686,
      "v": 61
    },
    {
      "midi": 49,
      "hit": false,
      "t": 214614.2399999993,
      "d": 1153.8399999999674,
      "v": 62
    },
    {
      "midi": 57,
      "hit": false,
      "t": 214614.2399999993,
      "d": 1177.8783333332976,
      "v": 70
    },
    {
      "midi": 54,
      "hit": false,
      "t": 214614.23999999958,
      "d": 225.359375,
      "v": 119
    },
    {
      "midi": 66,
      "hit": false,
      "t": 214614.23999999958,
      "d": 225.359375,
      "v": 119
    },
    {
      "midi": 54,
      "hit": false,
      "t": 214902.69999999958,
      "d": 1727.755208333343,
      "v": 94
    },
    {
      "midi": 66,
      "hit": false,
      "t": 214902.69999999958,
      "d": 1727.755208333343,
      "v": 94
    },
    {
      "midi": 64,
      "hit": false,
      "t": 215479.61999999927,
      "d": 183.2922916666721,
      "v": 96
    },
    {
      "midi": 69,
      "hit": false,
      "t": 215479.61999999927,
      "d": 219.34979166666744,
      "v": 93
    },
    {
      "midi": 69,
      "hit": false,
      "t": 216344.99999999924,
      "d": 123.19645833334653,
      "v": 118
    },
    {
      "midi": 71,
      "hit": false,
      "t": 216633.45999999926,
      "d": 96.15333333332092,
      "v": 109
    },
    {
      "midi": 54,
      "hit": false,
      "t": 216921.91999999926,
      "d": 156.2491666666756,
      "v": 112
    },
    {
      "midi": 61,
      "hit": false,
      "t": 216921.91999999926,
      "d": 174.27791666667326,
      "v": 100
    },
    {
      "midi": 57,
      "hit": false,
      "t": 216921.91999999926,
      "d": 180.28750000000582,
      "v": 94
    },
    {
      "midi": 64,
      "hit": false,
      "t": 216921.91999999926,
      "d": 180.28750000000582,
      "v": 91
    },
    {
      "midi": 54,
      "hit": false,
      "t": 216921.91999999958,
      "d": 156.2491666666756,
      "v": 109
    },
    {
      "midi": 61,
      "hit": false,
      "t": 216921.91999999958,
      "d": 174.27791666667326,
      "v": 97
    },
    {
      "midi": 57,
      "hit": false,
      "t": 216921.91999999958,
      "d": 180.28750000000582,
      "v": 91
    },
    {
      "midi": 64,
      "hit": false,
      "t": 216921.91999999958,
      "d": 180.28750000000582,
      "v": 88
    },
    {
      "midi": 54,
      "hit": false,
      "t": 217306.5333333326,
      "d": 135.21562500001164,
      "v": 108
    },
    {
      "midi": 61,
      "hit": false,
      "t": 217306.5333333326,
      "d": 156.2491666666756,
      "v": 94
    },
    {
      "midi": 57,
      "hit": false,
      "t": 217306.5333333326,
      "d": 165.26354166667443,
      "v": 91
    },
    {
      "midi": 64,
      "hit": false,
      "t": 217306.5333333326,
      "d": 165.26354166667443,
      "v": 91
    },
    {
      "midi": 54,
      "hit": false,
      "t": 217306.53333333292,
      "d": 135.21562500001164,
      "v": 105
    },
    {
      "midi": 61,
      "hit": false,
      "t": 217306.53333333292,
      "d": 156.2491666666756,
      "v": 91
    },
    {
      "midi": 57,
      "hit": false,
      "t": 217306.53333333292,
      "d": 165.26354166667443,
      "v": 88
    },
    {
      "midi": 64,
      "hit": false,
      "t": 217306.53333333292,
      "d": 165.26354166667443,
      "v": 88
    },
    {
      "midi": 54,
      "hit": false,
      "t": 217691.14666666594,
      "d": 144.23000000001048,
      "v": 104
    },
    {
      "midi": 61,
      "hit": false,
      "t": 217691.14666666594,
      "d": 162.25875000000815,
      "v": 94
    },
    {
      "midi": 57,
      "hit": false,
      "t": 217691.14666666594,
      "d": 168.2683333333407,
      "v": 93
    },
    {
      "midi": 64,
      "hit": false,
      "t": 217691.14666666594,
      "d": 177.28270833333954,
      "v": 91
    },
    {
      "midi": 54,
      "hit": false,
      "t": 217691.14666666626,
      "d": 144.23000000001048,
      "v": 101
    },
    {
      "midi": 61,
      "hit": false,
      "t": 217691.14666666626,
      "d": 162.25875000000815,
      "v": 91
    },
    {
      "midi": 57,
      "hit": false,
      "t": 217691.14666666626,
      "d": 168.2683333333407,
      "v": 90
    },
    {
      "midi": 64,
      "hit": false,
      "t": 217691.14666666626,
      "d": 177.28270833333954,
      "v": 88
    },
    {
      "midi": 54,
      "hit": false,
      "t": 218075.75999999928,
      "d": 180.28750000000582,
      "v": 100
    },
    {
      "midi": 61,
      "hit": false,
      "t": 218075.75999999928,
      "d": 183.2922916666721,
      "v": 94
    },
    {
      "midi": 57,
      "hit": false,
      "t": 218075.75999999928,
      "d": 189.30187500000466,
      "v": 93
    },
    {
      "midi": 64,
      "hit": false,
      "t": 218075.75999999928,
      "d": 198.3162500000035,
      "v": 91
    },
    {
      "midi": 54,
      "hit": false,
      "t": 218075.7599999996,
      "d": 180.28750000000582,
      "v": 97
    },
    {
      "midi": 61,
      "hit": false,
      "t": 218075.7599999996,
      "d": 183.2922916666721,
      "v": 91
    },
    {
      "midi": 57,
      "hit": false,
      "t": 218075.7599999996,
      "d": 189.30187500000466,
      "v": 90
    },
    {
      "midi": 64,
      "hit": false,
      "t": 218075.7599999996,
      "d": 198.3162500000035,
      "v": 88
    },
    {
      "midi": 54,
      "hit": false,
      "t": 218460.37333333262,
      "d": 159.25395833334187,
      "v": 100
    },
    {
      "midi": 57,
      "hit": false,
      "t": 218460.37333333262,
      "d": 183.2922916666721,
      "v": 93
    },
    {
      "midi": 64,
      "hit": false,
      "t": 218460.37333333262,
      "d": 183.2922916666721,
      "v": 93
    },
    {
      "midi": 61,
      "hit": false,
      "t": 218460.37333333262,
      "d": 189.30187500000466,
      "v": 92
    },
    {
      "midi": 54,
      "hit": false,
      "t": 218460.37333333294,
      "d": 159.25395833334187,
      "v": 97
    },
    {
      "midi": 57,
      "hit": false,
      "t": 218460.37333333294,
      "d": 183.2922916666721,
      "v": 90
    },
    {
      "midi": 64,
      "hit": false,
      "t": 218460.37333333294,
      "d": 183.2922916666721,
      "v": 90
    },
    {
      "midi": 61,
      "hit": false,
      "t": 218460.37333333294,
      "d": 189.30187500000466,
      "v": 89
    },
    {
      "midi": 61,
      "hit": false,
      "t": 218844.98666666597,
      "d": 168.2683333333407,
      "v": 92
    },
    {
      "midi": 57,
      "hit": false,
      "t": 218844.98666666597,
      "d": 180.28750000000582,
      "v": 96
    },
    {
      "midi": 54,
      "hit": false,
      "t": 218844.98666666597,
      "d": 195.3114583333372,
      "v": 108
    },
    {
      "midi": 64,
      "hit": false,
      "t": 218844.98666666597,
      "d": 204.32583333333605,
      "v": 94
    },
    {
      "midi": 61,
      "hit": false,
      "t": 218844.9866666663,
      "d": 168.2683333333407,
      "v": 89
    },
    {
      "midi": 57,
      "hit": false,
      "t": 218844.9866666663,
      "d": 180.28750000000582,
      "v": 93
    },
    {
      "midi": 54,
      "hit": false,
      "t": 218844.9866666663,
      "d": 195.3114583333372,
      "v": 105
    },
    {
      "midi": 64,
      "hit": false,
      "t": 218844.9866666663,
      "d": 204.32583333333605,
      "v": 91
    },
    {
      "midi": 52,
      "hit": false,
      "t": 219229.5999999993,
      "d": 4675.455833333341,
      "v": 77
    },
    {
      "midi": 59,
      "hit": false,
      "t": 219229.5999999993,
      "d": 4690.479791666672,
      "v": 100
    },
    {
      "midi": 56,
      "hit": false,
      "t": 219229.5999999993,
      "d": 4705.5037500000035,
      "v": 85
    },
    {
      "midi": 40,
      "hit": false,
      "t": 219229.5999999993,
      "d": 4711.513333333336,
      "v": 82
    },
    {
      "midi": 63,
      "hit": false,
      "t": 219229.5999999993,
      "d": 4723.532500000001,
      "v": 77
    },
    {
      "midi": 52,
      "hit": false,
      "t": 219229.59999999963,
      "d": 4675.455833333341,
      "v": 74
    },
    {
      "midi": 59,
      "hit": false,
      "t": 219229.59999999963,
      "d": 4690.479791666672,
      "v": 97
    },
    {
      "midi": 56,
      "hit": false,
      "t": 219229.59999999963,
      "d": 4705.5037500000035,
      "v": 82
    },
    {
      "midi": 40,
      "hit": false,
      "t": 219229.59999999963,
      "d": 4711.513333333336,
      "v": 79
    },
    {
      "midi": 63,
      "hit": false,
      "t": 219229.59999999963,
      "d": 4723.532500000001,
      "v": 74
    }
  ]
}