{
  "jsonPath": "Pop/Classic Uk Pop/George Baker/una-paloma-blanca.json",
  "path": "Pop\\Classic Uk Pop\\George Baker\\Una Paloma Blanca.mid",
  "name": "Una Paloma Blanca",
  "difficulty": "Advanced",
  "bpm": 222.000222000222,
  "notes": [
    {
      "midi": 65,
      "hit": false,
      "t": 540.54,
      "d": 270.27,
      "v": 78
    },
    {
      "midi": 69,
      "hit": false,
      "t": 810.81,
      "d": 270.27,
      "v": 82
    },
    {
      "midi": 72,
      "hit": false,
      "t": 1081.08,
      "d": 540.54,
      "v": 82
    },
    {
      "midi": 53,
      "hit": false,
      "t": 1081.08,
      "d": 540.54,
      "v": 89
    },
    {
      "midi": 69,
      "hit": false,
      "t": 1621.62,
      "d": 540.54,
      "v": 89
    },
    {
      "midi": 57,
      "hit": false,
      "t": 1621.62,
      "d": 540.54,
      "v": 92
    },
    {
      "midi": 60,
      "hit": false,
      "t": 1621.62,
      "d": 540.54,
      "v": 65
    },
    {
      "midi": 46,
      "hit": false,
      "t": 2162.16,
      "d": 540.54,
      "v": 81
    },
    {
      "midi": 77,
      "hit": false,
      "t": 2432.43,
      "d": 540.54,
      "v": 89
    },
    {
      "midi": 50,
      "hit": false,
      "t": 2702.7,
      "d": 540.54,
      "v": 101
    },
    {
      "midi": 53,
      "hit": false,
      "t": 2702.7,
      "d": 540.54,
      "v": 74
    },
    {
      "midi": 74,
      "hit": false,
      "t": 2972.97,
      "d": 270.27,
      "v": 101
    },
    {
      "midi": 72,
      "hit": false,
      "t": 3243.24,
      "d": 540.54,
      "v": 89
    },
    {
      "midi": 53,
      "hit": false,
      "t": 3243.24,
      "d": 540.54,
      "v": 87
    },
    {
      "midi": 69,
      "hit": false,
      "t": 3783.7799999999997,
      "d": 540.54,
      "v": 82
    },
    {
      "midi": 57,
      "hit": false,
      "t": 3783.7799999999997,
      "d": 540.54,
      "v": 84
    },
    {
      "midi": 60,
      "hit": false,
      "t": 3783.7799999999997,
      "d": 540.54,
      "v": 68
    },
    {
      "midi": 53,
      "hit": false,
      "t": 4324.32,
      "d": 540.54,
      "v": 89
    },
    {
      "midi": 65,
      "hit": false,
      "t": 4864.86,
      "d": 270.2699999999995,
      "v": 76
    },
    {
      "midi": 57,
      "hit": false,
      "t": 4864.86,
      "d": 540.54,
      "v": 84
    },
    {
      "midi": 60,
      "hit": false,
      "t": 4864.86,
      "d": 540.54,
      "v": 67
    },
    {
      "midi": 69,
      "hit": false,
      "t": 5135.129999999999,
      "d": 270.27000000000044,
      "v": 84
    },
    {
      "midi": 72,
      "hit": false,
      "t": 5405.4,
      "d": 540.54,
      "v": 78
    },
    {
      "midi": 53,
      "hit": false,
      "t": 5405.4,
      "d": 540.54,
      "v": 80
    },
    {
      "midi": 69,
      "hit": false,
      "t": 5945.94,
      "d": 540.54,
      "v": 84
    },
    {
      "midi": 57,
      "hit": false,
      "t": 5945.94,
      "d": 540.54,
      "v": 82
    },
    {
      "midi": 60,
      "hit": false,
      "t": 5945.94,
      "d": 540.54,
      "v": 64
    },
    {
      "midi": 77,
      "hit": false,
      "t": 6486.48,
      "d": 270.27000000000044,
      "v": 71
    },
    {
      "midi": 46,
      "hit": false,
      "t": 6486.48,
      "d": 540.54,
      "v": 77
    },
    {
      "midi": 74,
      "hit": false,
      "t": 6756.75,
      "d": 540.54,
      "v": 87
    },
    {
      "midi": 50,
      "hit": false,
      "t": 7027.0199999999995,
      "d": 540.54,
      "v": 97
    },
    {
      "midi": 53,
      "hit": false,
      "t": 7027.0199999999995,
      "d": 540.54,
      "v": 82
    },
    {
      "midi": 72,
      "hit": false,
      "t": 7297.29,
      "d": 270.2699999999995,
      "v": 92
    },
    {
      "midi": 53,
      "hit": false,
      "t": 7567.5599999999995,
      "d": 540.54,
      "v": 87
    },
    {
      "midi": 57,
      "hit": false,
      "t": 8108.099999999999,
      "d": 540.54,
      "v": 82
    },
    {
      "midi": 60,
      "hit": false,
      "t": 8108.099999999999,
      "d": 540.54,
      "v": 71
    },
    {
      "midi": 53,
      "hit": false,
      "t": 8648.64,
      "d": 540.5400000000009,
      "v": 80
    },
    {
      "midi": 65,
      "hit": false,
      "t": 9189.18,
      "d": 270.27000000000044,
      "v": 78
    },
    {
      "midi": 57,
      "hit": false,
      "t": 9189.18,
      "d": 540.5400000000009,
      "v": 78
    },
    {
      "midi": 60,
      "hit": false,
      "t": 9189.18,
      "d": 540.5400000000009,
      "v": 72
    },
    {
      "midi": 69,
      "hit": false,
      "t": 9459.45,
      "d": 270.27000000000044,
      "v": 87
    },
    {
      "midi": 72,
      "hit": false,
      "t": 9729.720000000001,
      "d": 540.5400000000009,
      "v": 80
    },
    {
      "midi": 53,
      "hit": false,
      "t": 9729.720000000001,
      "d": 540.5400000000009,
      "v": 74
    },
    {
      "midi": 69,
      "hit": false,
      "t": 10270.260000000002,
      "d": 540.5400000000009,
      "v": 82
    },
    {
      "midi": 57,
      "hit": false,
      "t": 10270.260000000002,
      "d": 540.5400000000009,
      "v": 67
    },
    {
      "midi": 60,
      "hit": false,
      "t": 10270.260000000002,
      "d": 540.5400000000009,
      "v": 54
    },
    {
      "midi": 77,
      "hit": false,
      "t": 10810.800000000003,
      "d": 270.27000000000044,
      "v": 80
    },
    {
      "midi": 46,
      "hit": false,
      "t": 10810.800000000003,
      "d": 540.5400000000009,
      "v": 81
    },
    {
      "midi": 74,
      "hit": false,
      "t": 11081.070000000003,
      "d": 540.5400000000009,
      "v": 54
    },
    {
      "midi": 50,
      "hit": false,
      "t": 11351.340000000004,
      "d": 540.5400000000009,
      "v": 101
    },
    {
      "midi": 53,
      "hit": false,
      "t": 11351.340000000004,
      "d": 540.5400000000009,
      "v": 69
    },
    {
      "midi": 72,
      "hit": false,
      "t": 11621.610000000004,
      "d": 270.27000000000044,
      "v": 97
    },
    {
      "midi": 53,
      "hit": false,
      "t": 11891.880000000005,
      "d": 540.5400000000009,
      "v": 84
    },
    {
      "midi": 69,
      "hit": false,
      "t": 12432.420000000006,
      "d": 540.5400000000009,
      "v": 80
    },
    {
      "midi": 57,
      "hit": false,
      "t": 12432.420000000006,
      "d": 540.5400000000009,
      "v": 82
    },
    {
      "midi": 60,
      "hit": false,
      "t": 12432.420000000006,
      "d": 540.5400000000009,
      "v": 71
    },
    {
      "midi": 53,
      "hit": false,
      "t": 12972.960000000006,
      "d": 540.5400000000009,
      "v": 82
    },
    {
      "midi": 65,
      "hit": false,
      "t": 13513.500000000007,
      "d": 270.27000000000044,
      "v": 78
    },
    {
      "midi": 57,
      "hit": false,
      "t": 13513.500000000007,
      "d": 540.5400000000009,
      "v": 82
    },
    {
      "midi": 60,
      "hit": false,
      "t": 13513.500000000007,
      "d": 540.5400000000009,
      "v": 67
    },
    {
      "midi": 69,
      "hit": false,
      "t": 13783.770000000008,
      "d": 270.27000000000044,
      "v": 74
    },
    {
      "midi": 72,
      "hit": false,
      "t": 14054.040000000008,
      "d": 540.5400000000009,
      "v": 84
    },
    {
      "midi": 53,
      "hit": false,
      "t": 14054.040000000008,
      "d": 540.5400000000009,
      "v": 84
    },
    {
      "midi": 72,
      "hit": false,
      "t": 14594.580000000009,
      "d": 540.5400000000009,
      "v": 84
    },
    {
      "midi": 57,
      "hit": false,
      "t": 14594.580000000009,
      "d": 540.5400000000009,
      "v": 84
    },
    {
      "midi": 60,
      "hit": false,
      "t": 14594.580000000009,
      "d": 540.5400000000009,
      "v": 69
    },
    {
      "midi": 70,
      "hit": false,
      "t": 15135.12000000001,
      "d": 270.27000000000044,
      "v": 65
    },
    {
      "midi": 48,
      "hit": false,
      "t": 15135.12000000001,
      "d": 540.5400000000009,
      "v": 72
    },
    {
      "midi": 67,
      "hit": false,
      "t": 15405.39000000001,
      "d": 810.8099999999995,
      "v": 78
    },
    {
      "midi": 52,
      "hit": false,
      "t": 15675.66000000001,
      "d": 540.5400000000009,
      "v": 84
    },
    {
      "midi": 55,
      "hit": false,
      "t": 15675.66000000001,
      "d": 540.5400000000009,
      "v": 80
    },
    {
      "midi": 65,
      "hit": false,
      "t": 16216.20000000001,
      "d": 270.2699999999986,
      "v": 74
    },
    {
      "midi": 53,
      "hit": false,
      "t": 16216.200000000012,
      "d": 540.5400000000009,
      "v": 80
    },
    {
      "midi": 68,
      "hit": false,
      "t": 16486.47000000001,
      "d": 270.27000000000044,
      "v": 66
    },
    {
      "midi": 69,
      "hit": false,
      "t": 16756.74000000001,
      "d": 270.27000000000044,
      "v": 65
    },
    {
      "midi": 57,
      "hit": false,
      "t": 16756.740000000013,
      "d": 540.5400000000009,
      "v": 89
    },
    {
      "midi": 60,
      "hit": false,
      "t": 16756.740000000013,
      "d": 540.5400000000009,
      "v": 68
    },
    {
      "midi": 69,
      "hit": false,
      "t": 17027.01000000001,
      "d": 270.27000000000044,
      "v": 74
    },
    {
      "midi": 68,
      "hit": false,
      "t": 17297.28000000001,
      "d": 270.27000000000044,
      "v": 59
    },
    {
      "midi": 53,
      "hit": false,
      "t": 17297.280000000013,
      "d": 540.5400000000009,
      "v": 87
    },
    {
      "midi": 69,
      "hit": false,
      "t": 17567.55000000001,
      "d": 270.27000000000044,
      "v": 72
    },
    {
      "midi": 69,
      "hit": false,
      "t": 17837.82000000001,
      "d": 270.27000000000044,
      "v": 76
    },
    {
      "midi": 57,
      "hit": false,
      "t": 17837.820000000014,
      "d": 540.5400000000009,
      "v": 80
    },
    {
      "midi": 60,
      "hit": false,
      "t": 17837.820000000014,
      "d": 540.5400000000009,
      "v": 66
    },
    {
      "midi": 69,
      "hit": false,
      "t": 18108.09000000001,
      "d": 270.27000000000044,
      "v": 80
    },
    {
      "midi": 68,
      "hit": false,
      "t": 18378.36000000001,
      "d": 270.27000000000044,
      "v": 69
    },
    {
      "midi": 53,
      "hit": false,
      "t": 18378.360000000015,
      "d": 540.5400000000009,
      "v": 80
    },
    {
      "midi": 69,
      "hit": false,
      "t": 18648.630000000012,
      "d": 270.27000000000044,
      "v": 72
    },
    {
      "midi": 69,
      "hit": false,
      "t": 18918.900000000012,
      "d": 135.1349999999984,
      "v": 69
    },
    {
      "midi": 57,
      "hit": false,
      "t": 18918.900000000016,
      "d": 540.5400000000009,
      "v": 82
    },
    {
      "midi": 60,
      "hit": false,
      "t": 18918.900000000016,
      "d": 540.5400000000009,
      "v": 67
    },
    {
      "midi": 68,
      "hit": false,
      "t": 19054.03500000001,
      "d": 135.1349999999984,
      "v": 72
    },
    {
      "midi": 67,
      "hit": false,
      "t": 19189.17000000001,
      "d": 270.27000000000044,
      "v": 78
    },
    {
      "midi": 65,
      "hit": false,
      "t": 19459.44000000001,
      "d": 540.5400000000009,
      "v": 71
    },
    {
      "midi": 53,
      "hit": false,
      "t": 19459.440000000017,
      "d": 540.5400000000009,
      "v": 87
    },
    {
      "midi": 65,
      "hit": false,
      "t": 19999.98000000001,
      "d": 270.27000000000044,
      "v": 89
    },
    {
      "midi": 57,
      "hit": false,
      "t": 19999.980000000018,
      "d": 540.5400000000009,
      "v": 87
    },
    {
      "midi": 60,
      "hit": false,
      "t": 19999.980000000018,
      "d": 540.5400000000009,
      "v": 74
    },
    {
      "midi": 69,
      "hit": false,
      "t": 20270.25000000001,
      "d": 270.27000000000044,
      "v": 92
    },
    {
      "midi": 72,
      "hit": false,
      "t": 20540.52000000001,
      "d": 540.5400000000009,
      "v": 84
    },
    {
      "midi": 53,
      "hit": false,
      "t": 20540.52000000002,
      "d": 540.5400000000009,
      "v": 92
    },
    {
      "midi": 69,
      "hit": false,
      "t": 21081.060000000012,
      "d": 540.5400000000009,
      "v": 80
    },
    {
      "midi": 57,
      "hit": false,
      "t": 21081.06000000002,
      "d": 540.5400000000009,
      "v": 87
    },
    {
      "midi": 60,
      "hit": false,
      "t": 21081.06000000002,
      "d": 540.5400000000009,
      "v": 72
    },
    {
      "midi": 46,
      "hit": false,
      "t": 21621.60000000002,
      "d": 540.5400000000009,
      "v": 84
    },
    {
      "midi": 77,
      "hit": false,
      "t": 21891.870000000014,
      "d": 540.5400000000009,
      "v": 92
    },
    {
      "midi": 50,
      "hit": false,
      "t": 22162.14000000002,
      "d": 540.5400000000009,
      "v": 101
    },
    {
      "midi": 53,
      "hit": false,
      "t": 22162.14000000002,
      "d": 540.5400000000009,
      "v": 82
    },
    {
      "midi": 74,
      "hit": false,
      "t": 22432.410000000014,
      "d": 270.27000000000044,
      "v": 92
    },
    {
      "midi": 72,
      "hit": false,
      "t": 22702.680000000015,
      "d": 540.5400000000009,
      "v": 80
    },
    {
      "midi": 53,
      "hit": false,
      "t": 22702.680000000022,
      "d": 540.5400000000009,
      "v": 89
    },
    {
      "midi": 69,
      "hit": false,
      "t": 23243.220000000016,
      "d": 540.5400000000009,
      "v": 84
    },
    {
      "midi": 57,
      "hit": false,
      "t": 23243.220000000023,
      "d": 540.5400000000009,
      "v": 82
    },
    {
      "midi": 60,
      "hit": false,
      "t": 23243.220000000023,
      "d": 540.5400000000009,
      "v": 68
    },
    {
      "midi": 53,
      "hit": false,
      "t": 23783.760000000024,
      "d": 540.5400000000009,
      "v": 84
    },
    {
      "midi": 65,
      "hit": false,
      "t": 24324.300000000017,
      "d": 270.27000000000044,
      "v": 78
    },
    {
      "midi": 57,
      "hit": false,
      "t": 24324.300000000025,
      "d": 540.5400000000009,
      "v": 92
    },
    {
      "midi": 60,
      "hit": false,
      "t": 24324.300000000025,
      "d": 540.5400000000009,
      "v": 68
    },
    {
      "midi": 69,
      "hit": false,
      "t": 24594.570000000018,
      "d": 270.27000000000044,
      "v": 80
    },
    {
      "midi": 72,
      "hit": false,
      "t": 24864.84000000002,
      "d": 540.5400000000009,
      "v": 84
    },
    {
      "midi": 53,
      "hit": false,
      "t": 24864.840000000026,
      "d": 540.5400000000009,
      "v": 89
    },
    {
      "midi": 69,
      "hit": false,
      "t": 25405.38000000002,
      "d": 540.5400000000009,
      "v": 84
    },
    {
      "midi": 57,
      "hit": false,
      "t": 25405.380000000026,
      "d": 540.5400000000009,
      "v": 84
    },
    {
      "midi": 60,
      "hit": false,
      "t": 25405.380000000026,
      "d": 540.5400000000009,
      "v": 76
    },
    {
      "midi": 77,
      "hit": false,
      "t": 25945.92000000002,
      "d": 270.27000000000044,
      "v": 68
    },
    {
      "midi": 46,
      "hit": false,
      "t": 25945.920000000027,
      "d": 540.5400000000009,
      "v": 81
    },
    {
      "midi": 74,
      "hit": false,
      "t": 26216.19000000002,
      "d": 540.5400000000009,
      "v": 82
    },
    {
      "midi": 50,
      "hit": false,
      "t": 26486.46000000003,
      "d": 540.5400000000009,
      "v": 104
    },
    {
      "midi": 53,
      "hit": false,
      "t": 26486.46000000003,
      "d": 540.5400000000009,
      "v": 78
    },
    {
      "midi": 72,
      "hit": false,
      "t": 26756.73000000002,
      "d": 270.27000000000044,
      "v": 92
    },
    {
      "midi": 53,
      "hit": false,
      "t": 27027.00000000003,
      "d": 540.5400000000009,
      "v": 84
    },
    {
      "midi": 57,
      "hit": false,
      "t": 27567.54000000003,
      "d": 540.5400000000009,
      "v": 78
    },
    {
      "midi": 60,
      "hit": false,
      "t": 27567.54000000003,
      "d": 540.5400000000009,
      "v": 72
    },
    {
      "midi": 53,
      "hit": false,
      "t": 28108.08000000003,
      "d": 540.5400000000009,
      "v": 84
    },
    {
      "midi": 65,
      "hit": false,
      "t": 28648.62000000002,
      "d": 270.27000000000044,
      "v": 87
    },
    {
      "midi": 57,
      "hit": false,
      "t": 28648.62000000003,
      "d": 540.5400000000009,
      "v": 82
    },
    {
      "midi": 60,
      "hit": false,
      "t": 28648.62000000003,
      "d": 540.5400000000009,
      "v": 71
    },
    {
      "midi": 69,
      "hit": false,
      "t": 28918.89000000002,
      "d": 270.27000000000044,
      "v": 87
    },
    {
      "midi": 72,
      "hit": false,
      "t": 29189.16000000002,
      "d": 540.5400000000009,
      "v": 80
    },
    {
      "midi": 53,
      "hit": false,
      "t": 29189.160000000033,
      "d": 540.5400000000009,
      "v": 82
    },
    {
      "midi": 69,
      "hit": false,
      "t": 29729.700000000023,
      "d": 540.5400000000009,
      "v": 78
    },
    {
      "midi": 57,
      "hit": false,
      "t": 29729.700000000033,
      "d": 540.5400000000009,
      "v": 89
    },
    {
      "midi": 60,
      "hit": false,
      "t": 29729.700000000033,
      "d": 540.5400000000009,
      "v": 71
    },
    {
      "midi": 77,
      "hit": false,
      "t": 30270.240000000023,
      "d": 270.27000000000044,
      "v": 76
    },
    {
      "midi": 46,
      "hit": false,
      "t": 30270.240000000034,
      "d": 540.5400000000009,
      "v": 84
    },
    {
      "midi": 74,
      "hit": false,
      "t": 30540.510000000024,
      "d": 540.5400000000009,
      "v": 92
    },
    {
      "midi": 50,
      "hit": false,
      "t": 30810.780000000035,
      "d": 540.5400000000009,
      "v": 104
    },
    {
      "midi": 53,
      "hit": false,
      "t": 30810.780000000035,
      "d": 540.5400000000009,
      "v": 80
    },
    {
      "midi": 72,
      "hit": false,
      "t": 31081.050000000025,
      "d": 270.27000000000044,
      "v": 84
    },
    {
      "midi": 53,
      "hit": false,
      "t": 31351.320000000036,
      "d": 540.5400000000009,
      "v": 82
    },
    {
      "midi": 69,
      "hit": false,
      "t": 31891.860000000026,
      "d": 540.5400000000009,
      "v": 84
    },
    {
      "midi": 57,
      "hit": false,
      "t": 31891.860000000037,
      "d": 540.5400000000009,
      "v": 89
    },
    {
      "midi": 60,
      "hit": false,
      "t": 31891.860000000037,
      "d": 540.5400000000009,
      "v": 68
    },
    {
      "midi": 53,
      "hit": false,
      "t": 32432.400000000038,
      "d": 540.5400000000009,
      "v": 87
    },
    {
      "midi": 65,
      "hit": false,
      "t": 32972.940000000024,
      "d": 270.2699999999968,
      "v": 80
    },
    {
      "midi": 57,
      "hit": false,
      "t": 32972.94000000004,
      "d": 540.5400000000009,
      "v": 80
    },
    {
      "midi": 60,
      "hit": false,
      "t": 32972.94000000004,
      "d": 540.5400000000009,
      "v": 74
    },
    {
      "midi": 69,
      "hit": false,
      "t": 33243.21000000002,
      "d": 270.2699999999968,
      "v": 68
    },
    {
      "midi": 72,
      "hit": false,
      "t": 33513.48000000002,
      "d": 540.5400000000009,
      "v": 84
    },
    {
      "midi": 53,
      "hit": false,
      "t": 33513.48000000004,
      "d": 540.5400000000009,
      "v": 82
    },
    {
      "midi": 72,
      "hit": false,
      "t": 34054.02000000002,
      "d": 540.5400000000009,
      "v": 74
    },
    {
      "midi": 57,
      "hit": false,
      "t": 34054.02000000004,
      "d": 540.5400000000009,
      "v": 89
    },
    {
      "midi": 60,
      "hit": false,
      "t": 34054.02000000004,
      "d": 540.5400000000009,
      "v": 72
    },
    {
      "midi": 70,
      "hit": false,
      "t": 34594.56000000002,
      "d": 270.2699999999968,
      "v": 66
    },
    {
      "midi": 48,
      "hit": false,
      "t": 34594.56000000004,
      "d": 540.5400000000009,
      "v": 87
    },
    {
      "midi": 67,
      "hit": false,
      "t": 34864.830000000016,
      "d": 540.5400000000009,
      "v": 84
    },
    {
      "midi": 52,
      "hit": false,
      "t": 35135.10000000004,
      "d": 540.5400000000009,
      "v": 87
    },
    {
      "midi": 55,
      "hit": false,
      "t": 35135.10000000004,
      "d": 540.5400000000009,
      "v": 80
    },
    {
      "midi": 65,
      "hit": false,
      "t": 35405.37000000002,
      "d": 270.2699999999968,
      "v": 82
    },
    {
      "midi": 53,
      "hit": false,
      "t": 35675.64000000004,
      "d": 540.5400000000009,
      "v": 87
    },
    {
      "midi": 68,
      "hit": false,
      "t": 35945.91000000001,
      "d": 270.2699999999968,
      "v": 65
    },
    {
      "midi": 69,
      "hit": false,
      "t": 36216.18000000001,
      "d": 270.2699999999968,
      "v": 72
    },
    {
      "midi": 57,
      "hit": false,
      "t": 36216.180000000044,
      "d": 540.5400000000009,
      "v": 84
    },
    {
      "midi": 60,
      "hit": false,
      "t": 36216.180000000044,
      "d": 540.5400000000009,
      "v": 68
    },
    {
      "midi": 69,
      "hit": false,
      "t": 36486.450000000004,
      "d": 270.2699999999968,
      "v": 82
    },
    {
      "midi": 68,
      "hit": false,
      "t": 36756.72,
      "d": 270.2699999999968,
      "v": 61
    },
    {
      "midi": 53,
      "hit": false,
      "t": 36756.720000000045,
      "d": 540.5400000000009,
      "v": 87
    },
    {
      "midi": 69,
      "hit": false,
      "t": 37026.99,
      "d": 270.2699999999968,
      "v": 72
    },
    {
      "midi": 69,
      "hit": false,
      "t": 37297.259999999995,
      "d": 270.2699999999968,
      "v": 78
    },
    {
      "midi": 57,
      "hit": false,
      "t": 37297.260000000046,
      "d": 540.5400000000009,
      "v": 78
    },
    {
      "midi": 60,
      "hit": false,
      "t": 37297.260000000046,
      "d": 540.5400000000009,
      "v": 76
    },
    {
      "midi": 69,
      "hit": false,
      "t": 37567.52999999999,
      "d": 270.2699999999968,
      "v": 80
    },
    {
      "midi": 68,
      "hit": false,
      "t": 37837.79999999999,
      "d": 270.2699999999968,
      "v": 74
    },
    {
      "midi": 53,
      "hit": false,
      "t": 37837.80000000005,
      "d": 540.5400000000009,
      "v": 84
    },
    {
      "midi": 69,
      "hit": false,
      "t": 38108.069999999985,
      "d": 270.2699999999968,
      "v": 63
    },
    {
      "midi": 69,
      "hit": false,
      "t": 38378.33999999998,
      "d": 135.13500000000204,
      "v": 66
    },
    {
      "midi": 57,
      "hit": false,
      "t": 38378.34000000005,
      "d": 540.5400000000009,
      "v": 82
    },
    {
      "midi": 60,
      "hit": false,
      "t": 38378.34000000005,
      "d": 540.5400000000009,
      "v": 74
    },
    {
      "midi": 68,
      "hit": false,
      "t": 38513.474999999984,
      "d": 135.13500000000204,
      "v": 66
    },
    {
      "midi": 67,
      "hit": false,
      "t": 38648.609999999986,
      "d": 270.2699999999968,
      "v": 80
    },
    {
      "midi": 65,
      "hit": false,
      "t": 38918.87999999998,
      "d": 1081.0800000000017,
      "v": 72
    },
    {
      "midi": 53,
      "hit": false,
      "t": 38918.88000000005,
      "d": 540.5400000000009,
      "v": 82
    },
    {
      "midi": 57,
      "hit": false,
      "t": 39459.42000000005,
      "d": 540.5400000000009,
      "v": 84
    },
    {
      "midi": 60,
      "hit": false,
      "t": 39459.42000000005,
      "d": 540.5400000000009,
      "v": 72
    },
    {
      "midi": 72,
      "hit": false,
      "t": 39999.959999999985,
      "d": 540.5400000000009,
      "v": 82
    },
    {
      "midi": 53,
      "hit": false,
      "t": 39999.96000000005,
      "d": 540.5400000000009,
      "v": 84
    },
    {
      "midi": 72,
      "hit": false,
      "t": 40540.499999999985,
      "d": 270.2699999999968,
      "v": 71
    },
    {
      "midi": 57,
      "hit": false,
      "t": 40540.50000000005,
      "d": 540.5400000000009,
      "v": 89
    },
    {
      "midi": 60,
      "hit": false,
      "t": 40540.50000000005,
      "d": 540.5400000000009,
      "v": 76
    },
    {
      "midi": 72,
      "hit": false,
      "t": 40810.76999999998,
      "d": 270.2699999999968,
      "v": 80
    },
    {
      "midi": 72,
      "hit": false,
      "t": 41081.03999999998,
      "d": 270.2699999999968,
      "v": 92
    },
    {
      "midi": 53,
      "hit": false,
      "t": 41081.04000000005,
      "d": 540.5400000000009,
      "v": 87
    },
    {
      "midi": 72,
      "hit": false,
      "t": 41351.309999999976,
      "d": 810.8099999999977,
      "v": 97
    },
    {
      "midi": 57,
      "hit": false,
      "t": 41621.58000000005,
      "d": 540.5400000000009,
      "v": 82
    },
    {
      "midi": 60,
      "hit": false,
      "t": 41621.58000000005,
      "d": 540.5400000000009,
      "v": 74
    },
    {
      "midi": 74,
      "hit": false,
      "t": 42162.11999999997,
      "d": 540.5400000000009,
      "v": 89
    },
    {
      "midi": 46,
      "hit": false,
      "t": 42162.12000000005,
      "d": 540.5400000000009,
      "v": 81
    },
    {
      "midi": 74,
      "hit": false,
      "t": 42702.659999999974,
      "d": 540.5400000000009,
      "v": 87
    },
    {
      "midi": 50,
      "hit": false,
      "t": 42702.660000000054,
      "d": 540.5400000000009,
      "v": 97
    },
    {
      "midi": 53,
      "hit": false,
      "t": 42702.660000000054,
      "d": 540.5400000000009,
      "v": 74
    },
    {
      "midi": 46,
      "hit": false,
      "t": 43243.200000000055,
      "d": 540.5400000000009,
      "v": 77
    },
    {
      "midi": 50,
      "hit": false,
      "t": 43783.740000000056,
      "d": 540.5400000000009,
      "v": 95
    },
    {
      "midi": 53,
      "hit": false,
      "t": 43783.740000000056,
      "d": 540.5400000000009,
      "v": 69
    },
    {
      "midi": 46,
      "hit": false,
      "t": 44324.28000000006,
      "d": 540.5400000000009,
      "v": 77
    },
    {
      "midi": 50,
      "hit": false,
      "t": 44864.82000000006,
      "d": 540.5400000000009,
      "v": 89
    },
    {
      "midi": 53,
      "hit": false,
      "t": 44864.82000000006,
      "d": 540.5400000000009,
      "v": 72
    },
    {
      "midi": 46,
      "hit": false,
      "t": 45405.36000000006,
      "d": 540.5400000000009,
      "v": 77
    },
    {
      "midi": 50,
      "hit": false,
      "t": 45945.90000000006,
      "d": 540.5400000000009,
      "v": 89
    },
    {
      "midi": 53,
      "hit": false,
      "t": 45945.90000000006,
      "d": 540.5400000000009,
      "v": 68
    },
    {
      "midi": 77,
      "hit": false,
      "t": 46486.43999999997,
      "d": 540.5400000000009,
      "v": 87
    },
    {
      "midi": 46,
      "hit": false,
      "t": 46486.44000000006,
      "d": 540.5400000000009,
      "v": 65
    },
    {
      "midi": 77,
      "hit": false,
      "t": 47026.979999999974,
      "d": 270.2699999999968,
      "v": 78
    },
    {
      "midi": 50,
      "hit": false,
      "t": 47026.98000000006,
      "d": 540.5400000000009,
      "v": 89
    },
    {
      "midi": 53,
      "hit": false,
      "t": 47026.98000000006,
      "d": 540.5400000000009,
      "v": 69
    },
    {
      "midi": 77,
      "hit": false,
      "t": 47297.24999999997,
      "d": 270.2699999999968,
      "v": 74
    },
    {
      "midi": 77,
      "hit": false,
      "t": 47567.51999999997,
      "d": 270.2699999999968,
      "v": 82
    },
    {
      "midi": 46,
      "hit": false,
      "t": 47567.52000000006,
      "d": 540.5400000000009,
      "v": 77
    },
    {
      "midi": 76,
      "hit": false,
      "t": 47837.789999999964,
      "d": 270.2699999999968,
      "v": 84
    },
    {
      "midi": 74,
      "hit": false,
      "t": 48108.05999999996,
      "d": 270.2699999999968,
      "v": 66
    },
    {
      "midi": 50,
      "hit": false,
      "t": 48108.06000000006,
      "d": 540.5400000000009,
      "v": 87
    },
    {
      "midi": 53,
      "hit": false,
      "t": 48108.06000000006,
      "d": 540.5400000000009,
      "v": 67
    },
    {
      "midi": 72,
      "hit": false,
      "t": 48378.32999999996,
      "d": 270.2699999999968,
      "v": 82
    },
    {
      "midi": 53,
      "hit": false,
      "t": 48648.600000000064,
      "d": 540.5400000000009,
      "v": 82
    },
    {
      "midi": 57,
      "hit": false,
      "t": 49189.140000000065,
      "d": 540.5400000000009,
      "v": 72
    },
    {
      "midi": 60,
      "hit": false,
      "t": 49189.140000000065,
      "d": 540.5400000000009,
      "v": 62
    },
    {
      "midi": 53,
      "hit": false,
      "t": 49729.680000000066,
      "d": 540.5400000000009,
      "v": 82
    },
    {
      "midi": 57,
      "hit": false,
      "t": 50270.22000000007,
      "d": 540.5400000000009,
      "v": 74
    },
    {
      "midi": 60,
      "hit": false,
      "t": 50270.22000000007,
      "d": 540.5400000000009,
      "v": 65
    },
    {
      "midi": 72,
      "hit": false,
      "t": 50810.75999999995,
      "d": 540.5400000000009,
      "v": 95
    },
    {
      "midi": 53,
      "hit": false,
      "t": 50810.76000000007,
      "d": 540.5400000000009,
      "v": 82
    },
    {
      "midi": 72,
      "hit": false,
      "t": 51351.29999999995,
      "d": 270.2699999999968,
      "v": 76
    },
    {
      "midi": 57,
      "hit": false,
      "t": 51351.30000000007,
      "d": 540.5400000000009,
      "v": 76
    },
    {
      "midi": 60,
      "hit": false,
      "t": 51351.30000000007,
      "d": 540.5400000000009,
      "v": 69
    },
    {
      "midi": 72,
      "hit": false,
      "t": 51621.56999999995,
      "d": 270.2699999999968,
      "v": 78
    },
    {
      "midi": 72,
      "hit": false,
      "t": 51891.839999999946,
      "d": 270.2699999999968,
      "v": 89
    },
    {
      "midi": 53,
      "hit": false,
      "t": 51891.84000000007,
      "d": 540.5400000000009,
      "v": 80
    },
    {
      "midi": 72,
      "hit": false,
      "t": 52162.10999999994,
      "d": 810.8099999999977,
      "v": 95
    },
    {
      "midi": 57,
      "hit": false,
      "t": 52432.38000000007,
      "d": 540.5400000000009,
      "v": 72
    },
    {
      "midi": 60,
      "hit": false,
      "t": 52432.38000000007,
      "d": 540.5400000000009,
      "v": 68
    },
    {
      "midi": 74,
      "hit": false,
      "t": 52972.91999999994,
      "d": 540.5400000000009,
      "v": 95
    },
    {
      "midi": 46,
      "hit": false,
      "t": 52972.92000000007,
      "d": 540.5400000000009,
      "v": 77
    },
    {
      "midi": 74,
      "hit": false,
      "t": 53513.45999999994,
      "d": 540.5400000000009,
      "v": 95
    },
    {
      "midi": 50,
      "hit": false,
      "t": 53513.46000000007,
      "d": 540.5400000000009,
      "v": 92
    },
    {
      "midi": 53,
      "hit": false,
      "t": 53513.46000000007,
      "d": 540.5400000000009,
      "v": 69
    },
    {
      "midi": 46,
      "hit": false,
      "t": 54054.00000000007,
      "d": 540.5400000000009,
      "v": 74
    },
    {
      "midi": 50,
      "hit": false,
      "t": 54594.54000000007,
      "d": 540.5400000000009,
      "v": 87
    },
    {
      "midi": 53,
      "hit": false,
      "t": 54594.54000000007,
      "d": 540.5400000000009,
      "v": 74
    },
    {
      "midi": 46,
      "hit": false,
      "t": 55135.080000000075,
      "d": 540.5400000000009,
      "v": 77
    },
    {
      "midi": 50,
      "hit": false,
      "t": 55675.620000000075,
      "d": 540.5400000000009,
      "v": 92
    },
    {
      "midi": 53,
      "hit": false,
      "t": 55675.620000000075,
      "d": 540.5400000000009,
      "v": 71
    },
    {
      "midi": 46,
      "hit": false,
      "t": 56216.160000000076,
      "d": 540.5400000000009,
      "v": 72
    },
    {
      "midi": 50,
      "hit": false,
      "t": 56756.70000000008,
      "d": 540.5400000000009,
      "v": 92
    },
    {
      "midi": 53,
      "hit": false,
      "t": 56756.70000000008,
      "d": 540.5400000000009,
      "v": 66
    },
    {
      "midi": 77,
      "hit": false,
      "t": 57297.23999999994,
      "d": 540.5400000000009,
      "v": 80
    },
    {
      "midi": 46,
      "hit": false,
      "t": 57297.24000000008,
      "d": 540.5400000000009,
      "v": 81
    },
    {
      "midi": 77,
      "hit": false,
      "t": 57837.77999999994,
      "d": 270.2699999999968,
      "v": 78
    },
    {
      "midi": 50,
      "hit": false,
      "t": 57837.78000000008,
      "d": 540.5400000000009,
      "v": 84
    },
    {
      "midi": 53,
      "hit": false,
      "t": 57837.78000000008,
      "d": 540.5400000000009,
      "v": 72
    },
    {
      "midi": 77,
      "hit": false,
      "t": 58108.04999999994,
      "d": 270.2699999999968,
      "v": 71
    },
    {
      "midi": 77,
      "hit": false,
      "t": 58378.319999999934,
      "d": 270.2699999999968,
      "v": 80
    },
    {
      "midi": 46,
      "hit": false,
      "t": 58378.32000000008,
      "d": 540.5400000000009,
      "v": 74
    },
    {
      "midi": 76,
      "hit": false,
      "t": 58648.58999999993,
      "d": 270.2699999999968,
      "v": 87
    },
    {
      "midi": 74,
      "hit": false,
      "t": 58918.85999999993,
      "d": 270.2699999999968,
      "v": 78
    },
    {
      "midi": 50,
      "hit": false,
      "t": 58918.86000000008,
      "d": 540.5400000000009,
      "v": 92
    },
    {
      "midi": 53,
      "hit": false,
      "t": 58918.86000000008,
      "d": 540.5400000000009,
      "v": 84
    },
    {
      "midi": 72,
      "hit": false,
      "t": 59189.129999999925,
      "d": 270.2699999999968,
      "v": 82
    },
    {
      "midi": 53,
      "hit": false,
      "t": 59459.40000000008,
      "d": 540.5400000000009,
      "v": 84
    },
    {
      "midi": 57,
      "hit": false,
      "t": 59999.94000000008,
      "d": 540.5400000000009,
      "v": 84
    },
    {
      "midi": 60,
      "hit": false,
      "t": 59999.94000000008,
      "d": 540.5400000000009,
      "v": 68
    },
    {
      "midi": 72,
      "hit": false,
      "t": 60540.47999999992,
      "d": 270.2699999999968,
      "v": 74
    },
    {
      "midi": 53,
      "hit": false,
      "t": 60540.48000000008,
      "d": 540.5400000000009,
      "v": 72
    },
    {
      "midi": 70,
      "hit": false,
      "t": 60810.74999999992,
      "d": 270.2699999999968,
      "v": 55
    },
    {
      "midi": 69,
      "hit": false,
      "t": 61081.01999999992,
      "d": 270.2699999999968,
      "v": 78
    },
    {
      "midi": 57,
      "hit": false,
      "t": 61081.020000000084,
      "d": 540.5400000000009,
      "v": 78
    },
    {
      "midi": 60,
      "hit": false,
      "t": 61081.020000000084,
      "d": 540.5400000000009,
      "v": 66
    },
    {
      "midi": 67,
      "hit": false,
      "t": 61351.28999999991,
      "d": 270.2699999999968,
      "v": 80
    },
    {
      "midi": 48,
      "hit": false,
      "t": 61621.560000000085,
      "d": 540.5400000000009,
      "v": 76
    },
    {
      "midi": 52,
      "hit": false,
      "t": 62162.100000000086,
      "d": 540.5400000000009,
      "v": 80
    },
    {
      "midi": 55,
      "hit": false,
      "t": 62162.100000000086,
      "d": 540.5400000000009,
      "v": 67
    },
    {
      "midi": 67,
      "hit": false,
      "t": 62432.36999999991,
      "d": 270.2699999999968,
      "v": 84
    },
    {
      "midi": 70,
      "hit": false,
      "t": 62702.639999999905,
      "d": 270.2699999999968,
      "v": 65
    },
    {
      "midi": 48,
      "hit": false,
      "t": 62702.64000000009,
      "d": 540.5400000000009,
      "v": 82
    },
    {
      "midi": 69,
      "hit": false,
      "t": 62972.9099999999,
      "d": 270.2699999999968,
      "v": 76
    },
    {
      "midi": 67,
      "hit": false,
      "t": 63243.1799999999,
      "d": 270.2699999999968,
      "v": 80
    },
    {
      "midi": 52,
      "hit": false,
      "t": 63243.18000000009,
      "d": 540.5400000000009,
      "v": 76
    },
    {
      "midi": 55,
      "hit": false,
      "t": 63243.18000000009,
      "d": 540.5400000000009,
      "v": 80
    },
    {
      "midi": 65,
      "hit": false,
      "t": 63513.449999999895,
      "d": 270.2699999999968,
      "v": 82
    },
    {
      "midi": 53,
      "hit": false,
      "t": 63783.72000000009,
      "d": 540.5400000000009,
      "v": 80
    },
    {
      "midi": 57,
      "hit": false,
      "t": 64324.26000000009,
      "d": 540.5400000000009,
      "v": 84
    },
    {
      "midi": 60,
      "hit": false,
      "t": 64324.26000000009,
      "d": 540.5400000000009,
      "v": 71
    },
    {
      "midi": 53,
      "hit": false,
      "t": 64864.80000000009,
      "d": 1081.0800000000017,
      "v": 89
    }
  ]
}