{
  "jsonPath": "Country/Country/The Tractors/christmas-is-comin.json",
  "path": "Country\\Country\\The Tractors\\Christmas Is Comin.mid",
  "name": "Christmas Is Comin",
  "difficulty": "Advanced",
  "bpm": 120,
  "notes": [
    {
      "midi": 65,
      "hit": false,
      "t": 5883.333333333334,
      "d": 16.66666666666697,
      "v": 93
    },
    {
      "midi": 69,
      "hit": false,
      "t": 5883.333333333334,
      "d": 16.66666666666697,
      "v": 113
    },
    {
      "midi": 74,
      "hit": false,
      "t": 5883.333333333334,
      "d": 16.66666666666697,
      "v": 97
    },
    {
      "midi": 62,
      "hit": false,
      "t": 5900.000000000001,
      "d": 16.66666666666697,
      "v": 76
    },
    {
      "midi": 50,
      "hit": false,
      "t": 5900.000000000001,
      "d": 266.66666666666697,
      "v": 91
    },
    {
      "midi": 62,
      "hit": false,
      "t": 7833.333333333335,
      "d": 16.66666666666697,
      "v": 80
    },
    {
      "midi": 65,
      "hit": false,
      "t": 7833.333333333335,
      "d": 16.66666666666697,
      "v": 101
    },
    {
      "midi": 69,
      "hit": false,
      "t": 7833.333333333335,
      "d": 16.66666666666697,
      "v": 113
    },
    {
      "midi": 74,
      "hit": false,
      "t": 7833.333333333335,
      "d": 16.66666666666697,
      "v": 99
    },
    {
      "midi": 50,
      "hit": false,
      "t": 7833.333333333335,
      "d": 1466.666666666667,
      "v": 90
    },
    {
      "midi": 57,
      "hit": false,
      "t": 8783.333333333336,
      "d": 16.66666666666606,
      "v": 60
    },
    {
      "midi": 65,
      "hit": false,
      "t": 9100.000000000002,
      "d": 16.66666666666606,
      "v": 79
    },
    {
      "midi": 74,
      "hit": false,
      "t": 9300.000000000002,
      "d": 16.66666666666606,
      "v": 105
    },
    {
      "midi": 69,
      "hit": false,
      "t": 9600.000000000002,
      "d": 16.66666666666606,
      "v": 79
    },
    {
      "midi": 55,
      "hit": false,
      "t": 9783.333333333334,
      "d": 16.66666666666606,
      "v": 102
    },
    {
      "midi": 67,
      "hit": false,
      "t": 9783.333333333334,
      "d": 16.66666666666606,
      "v": 99
    },
    {
      "midi": 71,
      "hit": false,
      "t": 9783.333333333334,
      "d": 16.66666666666606,
      "v": 103
    },
    {
      "midi": 74,
      "hit": false,
      "t": 9783.333333333334,
      "d": 16.66666666666606,
      "v": 87
    },
    {
      "midi": 62,
      "hit": false,
      "t": 10233.333333333334,
      "d": 16.66666666666606,
      "v": 77
    },
    {
      "midi": 65,
      "hit": false,
      "t": 11700,
      "d": 16.66666666666606,
      "v": 101
    },
    {
      "midi": 69,
      "hit": false,
      "t": 11700,
      "d": 16.66666666666606,
      "v": 115
    },
    {
      "midi": 60,
      "hit": false,
      "t": 11716.666666666666,
      "d": 16.66666666666606,
      "v": 77
    },
    {
      "midi": 72,
      "hit": false,
      "t": 11716.666666666666,
      "d": 16.66666666666606,
      "v": 102
    },
    {
      "midi": 53,
      "hit": false,
      "t": 11716.666666666666,
      "d": 1750,
      "v": 76
    },
    {
      "midi": 60,
      "hit": false,
      "t": 13683.333333333332,
      "d": 16.66666666666606,
      "v": 71
    },
    {
      "midi": 69,
      "hit": false,
      "t": 13683.333333333332,
      "d": 16.66666666666606,
      "v": 99
    },
    {
      "midi": 72,
      "hit": false,
      "t": 13683.333333333332,
      "d": 16.66666666666606,
      "v": 104
    },
    {
      "midi": 77,
      "hit": false,
      "t": 13683.333333333332,
      "d": 16.66666666666606,
      "v": 91
    },
    {
      "midi": 53,
      "hit": false,
      "t": 13683.333333333332,
      "d": 1633.3333333333285,
      "v": 80
    },
    {
      "midi": 65,
      "hit": false,
      "t": 14149.999999999998,
      "d": 16.66666666666606,
      "v": 79
    },
    {
      "midi": 69,
      "hit": false,
      "t": 14633.33333333333,
      "d": 16.66666666666606,
      "v": 69
    },
    {
      "midi": 77,
      "hit": false,
      "t": 14916.666666666662,
      "d": 16.66666666666606,
      "v": 101
    },
    {
      "midi": 72,
      "hit": false,
      "t": 15149.999999999995,
      "d": 16.66666666666606,
      "v": 77
    },
    {
      "midi": 55,
      "hit": false,
      "t": 15666.66666666666,
      "d": 16.66666666666606,
      "v": 88
    },
    {
      "midi": 62,
      "hit": false,
      "t": 15666.66666666666,
      "d": 16.66666666666606,
      "v": 85
    },
    {
      "midi": 67,
      "hit": false,
      "t": 15666.66666666666,
      "d": 16.66666666666606,
      "v": 105
    },
    {
      "midi": 71,
      "hit": false,
      "t": 15666.66666666666,
      "d": 16.66666666666606,
      "v": 102
    },
    {
      "midi": 74,
      "hit": false,
      "t": 15666.66666666666,
      "d": 16.66666666666606,
      "v": 90
    },
    {
      "midi": 57,
      "hit": false,
      "t": 17599.999999999993,
      "d": 16.66666666666788,
      "v": 94
    },
    {
      "midi": 69,
      "hit": false,
      "t": 17599.999999999993,
      "d": 16.66666666666788,
      "v": 107
    },
    {
      "midi": 73,
      "hit": false,
      "t": 17599.999999999993,
      "d": 16.66666666666788,
      "v": 106
    },
    {
      "midi": 76,
      "hit": false,
      "t": 17599.999999999993,
      "d": 16.66666666666788,
      "v": 97
    },
    {
      "midi": 45,
      "hit": false,
      "t": 17599.999999999993,
      "d": 416.6666666666679,
      "v": 100
    },
    {
      "midi": 62,
      "hit": false,
      "t": 19516.66666666666,
      "d": 16.66666666666788,
      "v": 88
    },
    {
      "midi": 65,
      "hit": false,
      "t": 19516.66666666666,
      "d": 16.66666666666788,
      "v": 104
    },
    {
      "midi": 69,
      "hit": false,
      "t": 19516.66666666666,
      "d": 16.66666666666788,
      "v": 115
    },
    {
      "midi": 74,
      "hit": false,
      "t": 19516.66666666666,
      "d": 16.66666666666788,
      "v": 90
    },
    {
      "midi": 50,
      "hit": false,
      "t": 19516.66666666666,
      "d": 1600,
      "v": 97
    },
    {
      "midi": 65,
      "hit": false,
      "t": 37116.66666666666,
      "d": 16.66666666666424,
      "v": 96
    },
    {
      "midi": 62,
      "hit": false,
      "t": 37133.33333333332,
      "d": 16.66666666666424,
      "v": 79
    },
    {
      "midi": 69,
      "hit": false,
      "t": 37133.33333333332,
      "d": 16.66666666666424,
      "v": 106
    },
    {
      "midi": 74,
      "hit": false,
      "t": 37133.33333333332,
      "d": 16.66666666666424,
      "v": 88
    },
    {
      "midi": 65,
      "hit": false,
      "t": 37133.33333333332,
      "d": 1383.3333333333285,
      "v": 96
    },
    {
      "midi": 50,
      "hit": false,
      "t": 37133.33333333332,
      "d": 1399.9999999999927,
      "v": 85
    },
    {
      "midi": 57,
      "hit": false,
      "t": 39066.66666666665,
      "d": 16.66666666666424,
      "v": 85
    },
    {
      "midi": 45,
      "hit": false,
      "t": 39066.66666666665,
      "d": 1649.9999999999927,
      "v": 92
    },
    {
      "midi": 69,
      "hit": false,
      "t": 39083.333333333314,
      "d": 16.66666666666424,
      "v": 101
    },
    {
      "midi": 73,
      "hit": false,
      "t": 39083.333333333314,
      "d": 16.66666666666424,
      "v": 73
    },
    {
      "midi": 76,
      "hit": false,
      "t": 39083.333333333314,
      "d": 16.66666666666424,
      "v": 82
    },
    {
      "midi": 69,
      "hit": false,
      "t": 41033.33333333331,
      "d": 16.66666666666424,
      "v": 113
    },
    {
      "midi": 73,
      "hit": false,
      "t": 41033.33333333331,
      "d": 16.66666666666424,
      "v": 94
    },
    {
      "midi": 76,
      "hit": false,
      "t": 41033.33333333331,
      "d": 16.66666666666424,
      "v": 90
    },
    {
      "midi": 57,
      "hit": false,
      "t": 41049.99999999997,
      "d": 16.66666666666424,
      "v": 77
    },
    {
      "midi": 45,
      "hit": false,
      "t": 41049.99999999997,
      "d": 1316.6666666666642,
      "v": 79
    },
    {
      "midi": 65,
      "hit": false,
      "t": 42999.99999999997,
      "d": 16.66666666666424,
      "v": 101
    },
    {
      "midi": 69,
      "hit": false,
      "t": 42999.99999999997,
      "d": 16.66666666666424,
      "v": 115
    },
    {
      "midi": 74,
      "hit": false,
      "t": 42999.99999999997,
      "d": 16.66666666666424,
      "v": 92
    },
    {
      "midi": 62,
      "hit": false,
      "t": 43016.666666666635,
      "d": 16.66666666666424,
      "v": 81
    },
    {
      "midi": 50,
      "hit": false,
      "t": 43016.666666666635,
      "d": 1700,
      "v": 88
    },
    {
      "midi": 62,
      "hit": false,
      "t": 44933.3333333333,
      "d": 16.66666666666424,
      "v": 81
    },
    {
      "midi": 65,
      "hit": false,
      "t": 44933.3333333333,
      "d": 16.66666666666424,
      "v": 90
    },
    {
      "midi": 69,
      "hit": false,
      "t": 44933.3333333333,
      "d": 16.66666666666424,
      "v": 100
    },
    {
      "midi": 74,
      "hit": false,
      "t": 44949.99999999996,
      "d": 16.66666666666424,
      "v": 80
    },
    {
      "midi": 62,
      "hit": false,
      "t": 44949.99999999996,
      "d": 1350,
      "v": 81
    },
    {
      "midi": 50,
      "hit": false,
      "t": 44949.99999999996,
      "d": 1366.6666666666642,
      "v": 80
    },
    {
      "midi": 57,
      "hit": false,
      "t": 46899.99999999996,
      "d": 16.66666666666424,
      "v": 85
    },
    {
      "midi": 69,
      "hit": false,
      "t": 46899.99999999996,
      "d": 16.66666666666424,
      "v": 109
    },
    {
      "midi": 73,
      "hit": false,
      "t": 46899.99999999996,
      "d": 16.66666666666424,
      "v": 87
    },
    {
      "midi": 76,
      "hit": false,
      "t": 46899.99999999996,
      "d": 16.66666666666424,
      "v": 97
    },
    {
      "midi": 45,
      "hit": false,
      "t": 46899.99999999996,
      "d": 1650,
      "v": 87
    },
    {
      "midi": 69,
      "hit": false,
      "t": 48833.3333333333,
      "d": 16.66666666666424,
      "v": 90
    },
    {
      "midi": 57,
      "hit": false,
      "t": 48849.99999999996,
      "d": 16.66666666666424,
      "v": 76
    },
    {
      "midi": 64,
      "hit": false,
      "t": 48849.99999999996,
      "d": 16.66666666666424,
      "v": 85
    },
    {
      "midi": 73,
      "hit": false,
      "t": 48849.99999999996,
      "d": 16.66666666666424,
      "v": 67
    },
    {
      "midi": 76,
      "hit": false,
      "t": 48849.99999999996,
      "d": 16.66666666666424,
      "v": 82
    },
    {
      "midi": 45,
      "hit": false,
      "t": 48849.99999999996,
      "d": 1233.3333333333285,
      "v": 79
    },
    {
      "midi": 69,
      "hit": false,
      "t": 48849.99999999996,
      "d": 1483.3333333333285,
      "v": 90
    },
    {
      "midi": 65,
      "hit": false,
      "t": 50799.999999999956,
      "d": 16.66666666666424,
      "v": 90
    },
    {
      "midi": 69,
      "hit": false,
      "t": 50799.999999999956,
      "d": 16.66666666666424,
      "v": 104
    },
    {
      "midi": 74,
      "hit": false,
      "t": 50799.999999999956,
      "d": 16.66666666666424,
      "v": 82
    },
    {
      "midi": 50,
      "hit": false,
      "t": 50799.999999999956,
      "d": 349.9999999999927,
      "v": 88
    },
    {
      "midi": 62,
      "hit": false,
      "t": 50816.66666666662,
      "d": 16.66666666666424,
      "v": 80
    },
    {
      "midi": 65,
      "hit": false,
      "t": 52733.333333333285,
      "d": 16.66666666666424,
      "v": 107
    },
    {
      "midi": 74,
      "hit": false,
      "t": 52733.333333333285,
      "d": 16.66666666666424,
      "v": 104
    },
    {
      "midi": 62,
      "hit": false,
      "t": 52749.99999999995,
      "d": 16.66666666666424,
      "v": 101
    },
    {
      "midi": 69,
      "hit": false,
      "t": 52749.99999999995,
      "d": 16.66666666666424,
      "v": 118
    },
    {
      "midi": 50,
      "hit": false,
      "t": 52749.99999999995,
      "d": 216.66666666666424,
      "v": 111
    },
    {
      "midi": 62,
      "hit": false,
      "t": 53216.66666666661,
      "d": 16.66666666666424,
      "v": 99
    },
    {
      "midi": 50,
      "hit": false,
      "t": 53216.66666666661,
      "d": 216.66666666666424,
      "v": 110
    },
    {
      "midi": 65,
      "hit": false,
      "t": 53233.33333333328,
      "d": 16.66666666666424,
      "v": 111
    },
    {
      "midi": 69,
      "hit": false,
      "t": 53233.33333333328,
      "d": 16.66666666666424,
      "v": 119
    },
    {
      "midi": 74,
      "hit": false,
      "t": 53233.33333333328,
      "d": 16.66666666666424,
      "v": 106
    },
    {
      "midi": 62,
      "hit": false,
      "t": 54699.99999999994,
      "d": 16.66666666666424,
      "v": 93
    },
    {
      "midi": 65,
      "hit": false,
      "t": 54699.99999999994,
      "d": 16.66666666666424,
      "v": 100
    },
    {
      "midi": 69,
      "hit": false,
      "t": 54699.99999999994,
      "d": 16.66666666666424,
      "v": 116
    },
    {
      "midi": 74,
      "hit": false,
      "t": 54699.99999999994,
      "d": 16.66666666666424,
      "v": 99
    },
    {
      "midi": 50,
      "hit": false,
      "t": 54699.99999999994,
      "d": 1750,
      "v": 96
    },
    {
      "midi": 73,
      "hit": false,
      "t": 56649.99999999994,
      "d": 16.66666666666424,
      "v": 94
    },
    {
      "midi": 57,
      "hit": false,
      "t": 56666.666666666606,
      "d": 16.66666666666424,
      "v": 94
    },
    {
      "midi": 69,
      "hit": false,
      "t": 56666.666666666606,
      "d": 16.66666666666424,
      "v": 111
    },
    {
      "midi": 76,
      "hit": false,
      "t": 56666.666666666606,
      "d": 16.66666666666424,
      "v": 97
    },
    {
      "midi": 57,
      "hit": false,
      "t": 58599.999999999935,
      "d": 16.66666666666424,
      "v": 96
    },
    {
      "midi": 69,
      "hit": false,
      "t": 58599.999999999935,
      "d": 16.66666666666424,
      "v": 110
    },
    {
      "midi": 73,
      "hit": false,
      "t": 58599.999999999935,
      "d": 16.66666666666424,
      "v": 98
    },
    {
      "midi": 76,
      "hit": false,
      "t": 58599.999999999935,
      "d": 16.66666666666424,
      "v": 98
    },
    {
      "midi": 62,
      "hit": false,
      "t": 60566.6666666666,
      "d": 16.66666666666424,
      "v": 81
    },
    {
      "midi": 65,
      "hit": false,
      "t": 60566.6666666666,
      "d": 16.66666666666424,
      "v": 98
    },
    {
      "midi": 69,
      "hit": false,
      "t": 60566.6666666666,
      "d": 16.66666666666424,
      "v": 115
    },
    {
      "midi": 74,
      "hit": false,
      "t": 60566.6666666666,
      "d": 16.66666666666424,
      "v": 97
    },
    {
      "midi": 50,
      "hit": false,
      "t": 60566.6666666666,
      "d": 1683.3333333333285,
      "v": 90
    },
    {
      "midi": 62,
      "hit": false,
      "t": 62516.66666666659,
      "d": 16.66666666666424,
      "v": 84
    },
    {
      "midi": 65,
      "hit": false,
      "t": 62516.66666666659,
      "d": 16.66666666666424,
      "v": 98
    },
    {
      "midi": 69,
      "hit": false,
      "t": 62516.66666666659,
      "d": 16.66666666666424,
      "v": 115
    },
    {
      "midi": 74,
      "hit": false,
      "t": 62516.66666666659,
      "d": 16.66666666666424,
      "v": 92
    },
    {
      "midi": 50,
      "hit": false,
      "t": 62516.66666666659,
      "d": 1500,
      "v": 84
    },
    {
      "midi": 74,
      "hit": false,
      "t": 62533.333333333256,
      "d": 1766.6666666666715,
      "v": 92
    },
    {
      "midi": 67,
      "hit": false,
      "t": 64483.33333333326,
      "d": 16.66666666666424,
      "v": 104
    },
    {
      "midi": 70,
      "hit": false,
      "t": 64483.33333333326,
      "d": 16.66666666666424,
      "v": 104
    },
    {
      "midi": 74,
      "hit": false,
      "t": 64483.33333333326,
      "d": 16.66666666666424,
      "v": 103
    },
    {
      "midi": 55,
      "hit": false,
      "t": 64516.66666666659,
      "d": 16.66666666666424,
      "v": 88
    },
    {
      "midi": 62,
      "hit": false,
      "t": 64516.66666666659,
      "d": 16.66666666666424,
      "v": 72
    },
    {
      "midi": 69,
      "hit": false,
      "t": 66399.99999999993,
      "d": 16.666666666671517,
      "v": 100
    },
    {
      "midi": 73,
      "hit": false,
      "t": 66399.99999999993,
      "d": 1650.0000000000146,
      "v": 86
    },
    {
      "midi": 64,
      "hit": false,
      "t": 66416.6666666666,
      "d": 16.666666666671517,
      "v": 84
    },
    {
      "midi": 76,
      "hit": false,
      "t": 66416.6666666666,
      "d": 16.666666666671517,
      "v": 88
    },
    {
      "midi": 57,
      "hit": false,
      "t": 66433.33333333327,
      "d": 16.666666666671517,
      "v": 85
    },
    {
      "midi": 62,
      "hit": false,
      "t": 68383.33333333327,
      "d": 16.666666666671517,
      "v": 84
    },
    {
      "midi": 65,
      "hit": false,
      "t": 68383.33333333327,
      "d": 16.666666666671517,
      "v": 94
    },
    {
      "midi": 69,
      "hit": false,
      "t": 68383.33333333327,
      "d": 16.666666666671517,
      "v": 115
    },
    {
      "midi": 74,
      "hit": false,
      "t": 68383.33333333327,
      "d": 16.666666666671517,
      "v": 97
    },
    {
      "midi": 50,
      "hit": false,
      "t": 68399.99999999994,
      "d": 1766.666666666686,
      "v": 87
    },
    {
      "midi": 57,
      "hit": false,
      "t": 69366.66666666661,
      "d": 16.666666666671517,
      "v": 69
    },
    {
      "midi": 65,
      "hit": false,
      "t": 69666.66666666661,
      "d": 16.666666666671517,
      "v": 68
    },
    {
      "midi": 74,
      "hit": false,
      "t": 69833.33333333328,
      "d": 16.666666666671517,
      "v": 88
    },
    {
      "midi": 69,
      "hit": false,
      "t": 70149.99999999996,
      "d": 16.666666666671517,
      "v": 77
    },
    {
      "midi": 65,
      "hit": false,
      "t": 70316.66666666663,
      "d": 16.666666666671517,
      "v": 79
    },
    {
      "midi": 69,
      "hit": false,
      "t": 70316.66666666663,
      "d": 16.666666666671517,
      "v": 98
    },
    {
      "midi": 74,
      "hit": false,
      "t": 70316.66666666663,
      "d": 16.666666666671517,
      "v": 94
    },
    {
      "midi": 62,
      "hit": false,
      "t": 70333.3333333333,
      "d": 16.666666666671517,
      "v": 91
    },
    {
      "midi": 50,
      "hit": false,
      "t": 70333.3333333333,
      "d": 1416.6666666666715,
      "v": 91
    },
    {
      "midi": 57,
      "hit": false,
      "t": 72299.99999999997,
      "d": 16.666666666671517,
      "v": 81
    },
    {
      "midi": 64,
      "hit": false,
      "t": 72299.99999999997,
      "d": 16.666666666671517,
      "v": 104
    },
    {
      "midi": 69,
      "hit": false,
      "t": 72299.99999999997,
      "d": 16.666666666671517,
      "v": 111
    },
    {
      "midi": 73,
      "hit": false,
      "t": 72299.99999999997,
      "d": 16.666666666671517,
      "v": 82
    },
    {
      "midi": 76,
      "hit": false,
      "t": 72299.99999999997,
      "d": 16.666666666671517,
      "v": 87
    },
    {
      "midi": 45,
      "hit": false,
      "t": 72299.99999999997,
      "d": 1733.333333333343,
      "v": 80
    },
    {
      "midi": 64,
      "hit": false,
      "t": 72316.66666666664,
      "d": 1700,
      "v": 104
    },
    {
      "midi": 69,
      "hit": false,
      "t": 74233.33333333331,
      "d": 16.666666666671517,
      "v": 106
    },
    {
      "midi": 73,
      "hit": false,
      "t": 74233.33333333331,
      "d": 16.666666666671517,
      "v": 90
    },
    {
      "midi": 57,
      "hit": false,
      "t": 74249.99999999999,
      "d": 16.666666666671517,
      "v": 77
    },
    {
      "midi": 76,
      "hit": false,
      "t": 74249.99999999999,
      "d": 16.666666666671517,
      "v": 91
    },
    {
      "midi": 45,
      "hit": false,
      "t": 74249.99999999999,
      "d": 1400,
      "v": 75
    },
    {
      "midi": 62,
      "hit": false,
      "t": 76199.99999999999,
      "d": 16.666666666671517,
      "v": 79
    },
    {
      "midi": 65,
      "hit": false,
      "t": 76199.99999999999,
      "d": 16.666666666671517,
      "v": 93
    },
    {
      "midi": 69,
      "hit": false,
      "t": 76199.99999999999,
      "d": 16.666666666671517,
      "v": 114
    },
    {
      "midi": 74,
      "hit": false,
      "t": 76199.99999999999,
      "d": 16.666666666671517,
      "v": 92
    },
    {
      "midi": 50,
      "hit": false,
      "t": 76199.99999999999,
      "d": 1650,
      "v": 92
    },
    {
      "midi": 62,
      "hit": false,
      "t": 78133.33333333331,
      "d": 16.666666666671517,
      "v": 80
    },
    {
      "midi": 69,
      "hit": false,
      "t": 78133.33333333331,
      "d": 16.666666666671517,
      "v": 107
    },
    {
      "midi": 65,
      "hit": false,
      "t": 78149.99999999999,
      "d": 16.666666666671517,
      "v": 87
    },
    {
      "midi": 74,
      "hit": false,
      "t": 78149.99999999999,
      "d": 16.666666666671517,
      "v": 90
    },
    {
      "midi": 50,
      "hit": false,
      "t": 78149.99999999999,
      "d": 1766.6666666666715,
      "v": 73
    },
    {
      "midi": 62,
      "hit": false,
      "t": 78149.99999999999,
      "d": 1783.333333333343,
      "v": 80
    },
    {
      "midi": 67,
      "hit": false,
      "t": 80100,
      "d": 16.666666666671517,
      "v": 93
    },
    {
      "midi": 70,
      "hit": false,
      "t": 80100,
      "d": 16.666666666671517,
      "v": 98
    },
    {
      "midi": 74,
      "hit": false,
      "t": 80100,
      "d": 16.666666666671517,
      "v": 91
    },
    {
      "midi": 55,
      "hit": false,
      "t": 80116.66666666667,
      "d": 16.666666666671517,
      "v": 100
    },
    {
      "midi": 64,
      "hit": false,
      "t": 82050.00000000001,
      "d": 16.666666666671517,
      "v": 90
    },
    {
      "midi": 69,
      "hit": false,
      "t": 82050.00000000001,
      "d": 16.666666666671517,
      "v": 109
    },
    {
      "midi": 73,
      "hit": false,
      "t": 82050.00000000001,
      "d": 16.666666666671517,
      "v": 98
    },
    {
      "midi": 57,
      "hit": false,
      "t": 82066.66666666669,
      "d": 16.666666666671517,
      "v": 99
    },
    {
      "midi": 65,
      "hit": false,
      "t": 84033.33333333336,
      "d": 16.666666666671517,
      "v": 107
    },
    {
      "midi": 69,
      "hit": false,
      "t": 84033.33333333336,
      "d": 16.666666666671517,
      "v": 119
    },
    {
      "midi": 74,
      "hit": false,
      "t": 84033.33333333336,
      "d": 16.666666666671517,
      "v": 104
    },
    {
      "midi": 62,
      "hit": false,
      "t": 84116.6666666667,
      "d": 16.666666666671517,
      "v": 90
    },
    {
      "midi": 62,
      "hit": false,
      "t": 84550.00000000004,
      "d": 16.666666666671517,
      "v": 90
    },
    {
      "midi": 65,
      "hit": false,
      "t": 84550.00000000004,
      "d": 16.666666666671517,
      "v": 100
    },
    {
      "midi": 69,
      "hit": false,
      "t": 84550.00000000004,
      "d": 16.666666666671517,
      "v": 105
    },
    {
      "midi": 74,
      "hit": false,
      "t": 84566.66666666672,
      "d": 16.666666666671517,
      "v": 80
    },
    {
      "midi": 62,
      "hit": false,
      "t": 84566.66666666672,
      "d": 133.33333333334303,
      "v": 90
    },
    {
      "midi": 62,
      "hit": false,
      "t": 85950.00000000006,
      "d": 16.666666666671517,
      "v": 100
    },
    {
      "midi": 65,
      "hit": false,
      "t": 85950.00000000006,
      "d": 16.666666666671517,
      "v": 103
    },
    {
      "midi": 69,
      "hit": false,
      "t": 85950.00000000006,
      "d": 16.666666666671517,
      "v": 116
    },
    {
      "midi": 74,
      "hit": false,
      "t": 85950.00000000006,
      "d": 16.666666666671517,
      "v": 99
    },
    {
      "midi": 69,
      "hit": false,
      "t": 87900.00000000006,
      "d": 16.666666666671517,
      "v": 111
    },
    {
      "midi": 73,
      "hit": false,
      "t": 87900.00000000006,
      "d": 16.666666666671517,
      "v": 92
    },
    {
      "midi": 76,
      "hit": false,
      "t": 87900.00000000006,
      "d": 16.666666666671517,
      "v": 97
    },
    {
      "midi": 57,
      "hit": false,
      "t": 87916.66666666673,
      "d": 16.666666666671517,
      "v": 94
    },
    {
      "midi": 69,
      "hit": false,
      "t": 89883.3333333334,
      "d": 16.666666666671517,
      "v": 114
    },
    {
      "midi": 76,
      "hit": false,
      "t": 89883.3333333334,
      "d": 16.666666666671517,
      "v": 96
    },
    {
      "midi": 73,
      "hit": false,
      "t": 89883.3333333334,
      "d": 1766.6666666666715,
      "v": 94
    },
    {
      "midi": 57,
      "hit": false,
      "t": 89900.00000000007,
      "d": 16.666666666671517,
      "v": 92
    },
    {
      "midi": 62,
      "hit": false,
      "t": 91816.66666666674,
      "d": 16.666666666671517,
      "v": 93
    },
    {
      "midi": 65,
      "hit": false,
      "t": 91816.66666666674,
      "d": 16.666666666671517,
      "v": 99
    },
    {
      "midi": 69,
      "hit": false,
      "t": 91816.66666666674,
      "d": 16.666666666671517,
      "v": 116
    },
    {
      "midi": 74,
      "hit": false,
      "t": 91816.66666666674,
      "d": 16.666666666671517,
      "v": 99
    },
    {
      "midi": 62,
      "hit": false,
      "t": 93733.33333333342,
      "d": 16.666666666671517,
      "v": 84
    },
    {
      "midi": 65,
      "hit": false,
      "t": 93733.33333333342,
      "d": 16.666666666671517,
      "v": 96
    },
    {
      "midi": 69,
      "hit": false,
      "t": 93733.33333333342,
      "d": 16.666666666671517,
      "v": 114
    },
    {
      "midi": 74,
      "hit": false,
      "t": 93733.33333333342,
      "d": 16.666666666671517,
      "v": 101
    },
    {
      "midi": 50,
      "hit": false,
      "t": 93750.00000000009,
      "d": 1500,
      "v": 82
    },
    {
      "midi": 69,
      "hit": false,
      "t": 95733.33333333342,
      "d": 16.666666666671517,
      "v": 102
    },
    {
      "midi": 73,
      "hit": false,
      "t": 95733.33333333342,
      "d": 16.666666666671517,
      "v": 87
    },
    {
      "midi": 76,
      "hit": false,
      "t": 95733.33333333342,
      "d": 16.666666666671517,
      "v": 90
    },
    {
      "midi": 57,
      "hit": false,
      "t": 95766.66666666676,
      "d": 16.666666666671517,
      "v": 91
    },
    {
      "midi": 69,
      "hit": false,
      "t": 97650.0000000001,
      "d": 16.666666666671517,
      "v": 107
    },
    {
      "midi": 73,
      "hit": false,
      "t": 97650.0000000001,
      "d": 16.666666666671517,
      "v": 87
    },
    {
      "midi": 76,
      "hit": false,
      "t": 97650.0000000001,
      "d": 16.666666666671517,
      "v": 91
    },
    {
      "midi": 57,
      "hit": false,
      "t": 97666.66666666677,
      "d": 16.666666666671517,
      "v": 91
    },
    {
      "midi": 76,
      "hit": false,
      "t": 97666.66666666677,
      "d": 1783.333333333343,
      "v": 91
    },
    {
      "midi": 62,
      "hit": false,
      "t": 99633.33333333344,
      "d": 16.666666666671517,
      "v": 85
    },
    {
      "midi": 65,
      "hit": false,
      "t": 99633.33333333344,
      "d": 16.666666666671517,
      "v": 90
    },
    {
      "midi": 69,
      "hit": false,
      "t": 99633.33333333344,
      "d": 16.666666666671517,
      "v": 109
    },
    {
      "midi": 74,
      "hit": false,
      "t": 99633.33333333344,
      "d": 16.666666666671517,
      "v": 90
    },
    {
      "midi": 62,
      "hit": false,
      "t": 101600.00000000012,
      "d": 16.666666666671517,
      "v": 85
    },
    {
      "midi": 65,
      "hit": false,
      "t": 101600.00000000012,
      "d": 16.666666666671517,
      "v": 93
    },
    {
      "midi": 69,
      "hit": false,
      "t": 101600.00000000012,
      "d": 16.666666666671517,
      "v": 107
    },
    {
      "midi": 74,
      "hit": false,
      "t": 101600.00000000012,
      "d": 16.666666666671517,
      "v": 91
    },
    {
      "midi": 57,
      "hit": false,
      "t": 103533.33333333346,
      "d": 16.666666666671517,
      "v": 93
    },
    {
      "midi": 69,
      "hit": false,
      "t": 103533.33333333346,
      "d": 16.666666666671517,
      "v": 107
    },
    {
      "midi": 73,
      "hit": false,
      "t": 103533.33333333346,
      "d": 16.666666666671517,
      "v": 86
    },
    {
      "midi": 76,
      "hit": false,
      "t": 103533.33333333346,
      "d": 16.666666666671517,
      "v": 85
    },
    {
      "midi": 57,
      "hit": false,
      "t": 105483.33333333346,
      "d": 16.666666666671517,
      "v": 91
    },
    {
      "midi": 69,
      "hit": false,
      "t": 105483.33333333346,
      "d": 16.666666666671517,
      "v": 105
    },
    {
      "midi": 73,
      "hit": false,
      "t": 105483.33333333346,
      "d": 16.666666666671517,
      "v": 90
    },
    {
      "midi": 76,
      "hit": false,
      "t": 105483.33333333346,
      "d": 16.666666666671517,
      "v": 85
    },
    {
      "midi": 65,
      "hit": false,
      "t": 107466.6666666668,
      "d": 16.666666666671517,
      "v": 94
    },
    {
      "midi": 69,
      "hit": false,
      "t": 107466.6666666668,
      "d": 16.666666666671517,
      "v": 111
    },
    {
      "midi": 74,
      "hit": false,
      "t": 107466.6666666668,
      "d": 16.666666666671517,
      "v": 92
    },
    {
      "midi": 62,
      "hit": false,
      "t": 107483.33333333347,
      "d": 16.666666666671517,
      "v": 85
    },
    {
      "midi": 65,
      "hit": false,
      "t": 109400.00000000015,
      "d": 16.666666666671517,
      "v": 96
    },
    {
      "midi": 69,
      "hit": false,
      "t": 109400.00000000015,
      "d": 16.666666666671517,
      "v": 105
    },
    {
      "midi": 62,
      "hit": false,
      "t": 109416.66666666682,
      "d": 16.666666666671517,
      "v": 85
    },
    {
      "midi": 74,
      "hit": false,
      "t": 109416.66666666682,
      "d": 16.666666666671517,
      "v": 85
    },
    {
      "midi": 65,
      "hit": false,
      "t": 110666.66666666682,
      "d": 16.666666666671517,
      "v": 84
    },
    {
      "midi": 74,
      "hit": false,
      "t": 110833.33333333349,
      "d": 16.666666666671517,
      "v": 105
    },
    {
      "midi": 69,
      "hit": false,
      "t": 111166.66666666683,
      "d": 16.666666666671517,
      "v": 88
    },
    {
      "midi": 69,
      "hit": false,
      "t": 111366.66666666683,
      "d": 16.666666666671517,
      "v": 104
    },
    {
      "midi": 73,
      "hit": false,
      "t": 111366.66666666683,
      "d": 16.666666666671517,
      "v": 90
    },
    {
      "midi": 76,
      "hit": false,
      "t": 111366.66666666683,
      "d": 16.666666666671517,
      "v": 102
    },
    {
      "midi": 57,
      "hit": false,
      "t": 111383.3333333335,
      "d": 16.666666666671517,
      "v": 90
    },
    {
      "midi": 69,
      "hit": false,
      "t": 113266.66666666685,
      "d": 16.666666666671517,
      "v": 107
    },
    {
      "midi": 73,
      "hit": false,
      "t": 113266.66666666685,
      "d": 16.666666666671517,
      "v": 88
    },
    {
      "midi": 76,
      "hit": false,
      "t": 113266.66666666685,
      "d": 16.666666666671517,
      "v": 91
    },
    {
      "midi": 57,
      "hit": false,
      "t": 113283.33333333352,
      "d": 16.666666666671517,
      "v": 85
    },
    {
      "midi": 62,
      "hit": false,
      "t": 115233.33333333352,
      "d": 16.666666666671517,
      "v": 92
    },
    {
      "midi": 65,
      "hit": false,
      "t": 115250.00000000019,
      "d": 16.666666666671517,
      "v": 101
    },
    {
      "midi": 69,
      "hit": false,
      "t": 115250.00000000019,
      "d": 16.666666666671517,
      "v": 115
    },
    {
      "midi": 74,
      "hit": false,
      "t": 115250.00000000019,
      "d": 16.666666666671517,
      "v": 90
    },
    {
      "midi": 69,
      "hit": false,
      "t": 118483.33333333353,
      "d": 16.666666666671517,
      "v": 105
    },
    {
      "midi": 65,
      "hit": false,
      "t": 118500.0000000002,
      "d": 16.666666666671517,
      "v": 88
    },
    {
      "midi": 74,
      "hit": false,
      "t": 118500.0000000002,
      "d": 16.666666666671517,
      "v": 90
    },
    {
      "midi": 69,
      "hit": false,
      "t": 118500.0000000002,
      "d": 283.33333333334303,
      "v": 105
    },
    {
      "midi": 62,
      "hit": false,
      "t": 118650.0000000002,
      "d": 16.666666666671517,
      "v": 85
    },
    {
      "midi": 69,
      "hit": false,
      "t": 119116.66666666688,
      "d": 16.666666666671517,
      "v": 103
    },
    {
      "midi": 73,
      "hit": false,
      "t": 119116.66666666688,
      "d": 16.666666666671517,
      "v": 78
    },
    {
      "midi": 57,
      "hit": false,
      "t": 119133.33333333355,
      "d": 16.666666666671517,
      "v": 93
    },
    {
      "midi": 76,
      "hit": false,
      "t": 119133.33333333355,
      "d": 16.666666666671517,
      "v": 79
    },
    {
      "midi": 57,
      "hit": false,
      "t": 119150.00000000022,
      "d": 1766.6666666666715,
      "v": 93
    },
    {
      "midi": 69,
      "hit": false,
      "t": 121066.66666666689,
      "d": 16.666666666671517,
      "v": 107
    },
    {
      "midi": 73,
      "hit": false,
      "t": 121066.66666666689,
      "d": 16.666666666671517,
      "v": 90
    },
    {
      "midi": 76,
      "hit": false,
      "t": 121066.66666666689,
      "d": 16.666666666671517,
      "v": 88
    },
    {
      "midi": 57,
      "hit": false,
      "t": 121083.33333333356,
      "d": 16.666666666671517,
      "v": 93
    },
    {
      "midi": 69,
      "hit": false,
      "t": 123066.6666666669,
      "d": 16.666666666671517,
      "v": 118
    },
    {
      "midi": 73,
      "hit": false,
      "t": 123066.6666666669,
      "d": 16.666666666671517,
      "v": 106
    },
    {
      "midi": 76,
      "hit": false,
      "t": 123066.6666666669,
      "d": 16.666666666671517,
      "v": 107
    },
    {
      "midi": 57,
      "hit": false,
      "t": 123083.33333333358,
      "d": 16.666666666671517,
      "v": 113
    },
    {
      "midi": 62,
      "hit": false,
      "t": 125016.66666666692,
      "d": 16.666666666671517,
      "v": 79
    },
    {
      "midi": 65,
      "hit": false,
      "t": 125016.66666666692,
      "d": 16.666666666671517,
      "v": 100
    },
    {
      "midi": 69,
      "hit": false,
      "t": 125016.66666666692,
      "d": 16.666666666671517,
      "v": 116
    },
    {
      "midi": 74,
      "hit": false,
      "t": 125016.66666666692,
      "d": 16.666666666671517,
      "v": 90
    },
    {
      "midi": 50,
      "hit": false,
      "t": 125016.66666666692,
      "d": 1700,
      "v": 98
    },
    {
      "midi": 55,
      "hit": false,
      "t": 126950.00000000025,
      "d": 16.666666666671517,
      "v": 96
    },
    {
      "midi": 67,
      "hit": false,
      "t": 126950.00000000025,
      "d": 16.666666666671517,
      "v": 97
    },
    {
      "midi": 71,
      "hit": false,
      "t": 126950.00000000025,
      "d": 16.666666666671517,
      "v": 111
    },
    {
      "midi": 74,
      "hit": false,
      "t": 126950.00000000025,
      "d": 16.666666666671517,
      "v": 100
    },
    {
      "midi": 65,
      "hit": false,
      "t": 128916.66666666692,
      "d": 16.666666666671517,
      "v": 96
    },
    {
      "midi": 69,
      "hit": false,
      "t": 128916.66666666692,
      "d": 16.666666666671517,
      "v": 111
    },
    {
      "midi": 72,
      "hit": false,
      "t": 128916.66666666692,
      "d": 16.666666666671517,
      "v": 102
    },
    {
      "midi": 53,
      "hit": false,
      "t": 128916.66666666692,
      "d": 1783.333333333343,
      "v": 92
    },
    {
      "midi": 65,
      "hit": false,
      "t": 130866.66666666693,
      "d": 16.666666666671517,
      "v": 80
    },
    {
      "midi": 69,
      "hit": false,
      "t": 130866.66666666693,
      "d": 16.666666666671517,
      "v": 98
    },
    {
      "midi": 72,
      "hit": false,
      "t": 130866.66666666693,
      "d": 16.666666666671517,
      "v": 91
    },
    {
      "midi": 53,
      "hit": false,
      "t": 130866.66666666693,
      "d": 1933.3333333332994,
      "v": 87
    },
    {
      "midi": 65,
      "hit": false,
      "t": 132166.66666666695,
      "d": 16.666666666656965,
      "v": 84
    },
    {
      "midi": 72,
      "hit": false,
      "t": 132333.3333333336,
      "d": 16.666666666656965,
      "v": 109
    },
    {
      "midi": 69,
      "hit": false,
      "t": 132666.66666666692,
      "d": 116.66666666665697,
      "v": 71
    },
    {
      "midi": 55,
      "hit": false,
      "t": 132850.00000000023,
      "d": 16.666666666656965,
      "v": 97
    },
    {
      "midi": 71,
      "hit": false,
      "t": 132850.00000000023,
      "d": 16.666666666656965,
      "v": 106
    },
    {
      "midi": 67,
      "hit": false,
      "t": 132850.00000000023,
      "d": 1683.333333333314,
      "v": 87
    },
    {
      "midi": 69,
      "hit": false,
      "t": 134750.0000000002,
      "d": 16.666666666656965,
      "v": 110
    },
    {
      "midi": 57,
      "hit": false,
      "t": 134766.66666666686,
      "d": 16.666666666656965,
      "v": 115
    },
    {
      "midi": 73,
      "hit": false,
      "t": 134766.66666666686,
      "d": 16.666666666656965,
      "v": 108
    },
    {
      "midi": 76,
      "hit": false,
      "t": 134766.66666666686,
      "d": 16.666666666656965,
      "v": 106
    },
    {
      "midi": 62,
      "hit": false,
      "t": 136750.00000000017,
      "d": 16.666666666656965,
      "v": 100
    },
    {
      "midi": 65,
      "hit": false,
      "t": 136750.00000000017,
      "d": 16.666666666656965,
      "v": 103
    },
    {
      "midi": 69,
      "hit": false,
      "t": 136750.00000000017,
      "d": 16.666666666656965,
      "v": 116
    },
    {
      "midi": 50,
      "hit": false,
      "t": 136750.00000000017,
      "d": 1683.333333333314,
      "v": 93
    },
    {
      "midi": 74,
      "hit": false,
      "t": 136750.00000000017,
      "d": 1716.666666666657,
      "v": 100
    },
    {
      "midi": 65,
      "hit": false,
      "t": 138683.3333333335,
      "d": 16.666666666656965,
      "v": 94
    },
    {
      "midi": 69,
      "hit": false,
      "t": 138683.3333333335,
      "d": 16.666666666656965,
      "v": 114
    },
    {
      "midi": 74,
      "hit": false,
      "t": 138683.3333333335,
      "d": 16.666666666656965,
      "v": 91
    },
    {
      "midi": 62,
      "hit": false,
      "t": 138700.00000000015,
      "d": 16.666666666656965,
      "v": 80
    },
    {
      "midi": 50,
      "hit": false,
      "t": 138700.00000000015,
      "d": 1749.999999999971,
      "v": 85
    },
    {
      "midi": 57,
      "hit": false,
      "t": 139666.6666666668,
      "d": 16.666666666656965,
      "v": 69
    },
    {
      "midi": 65,
      "hit": false,
      "t": 139966.6666666668,
      "d": 16.666666666656965,
      "v": 75
    },
    {
      "midi": 74,
      "hit": false,
      "t": 140150.00000000012,
      "d": 16.666666666656965,
      "v": 103
    },
    {
      "midi": 69,
      "hit": false,
      "t": 140466.66666666677,
      "d": 16.666666666656965,
      "v": 80
    },
    {
      "midi": 55,
      "hit": false,
      "t": 140633.33333333343,
      "d": 16.666666666656965,
      "v": 101
    },
    {
      "midi": 74,
      "hit": false,
      "t": 140633.33333333343,
      "d": 16.666666666656965,
      "v": 84
    },
    {
      "midi": 67,
      "hit": false,
      "t": 140650.0000000001,
      "d": 16.666666666656965,
      "v": 93
    },
    {
      "midi": 71,
      "hit": false,
      "t": 140650.0000000001,
      "d": 16.666666666656965,
      "v": 99
    },
    {
      "midi": 72,
      "hit": false,
      "t": 142600.0000000001,
      "d": 16.666666666656965,
      "v": 96
    },
    {
      "midi": 60,
      "hit": false,
      "t": 142616.66666666674,
      "d": 16.666666666656965,
      "v": 75
    },
    {
      "midi": 65,
      "hit": false,
      "t": 142616.66666666674,
      "d": 16.666666666656965,
      "v": 92
    },
    {
      "midi": 69,
      "hit": false,
      "t": 142616.66666666674,
      "d": 16.666666666656965,
      "v": 111
    },
    {
      "midi": 53,
      "hit": false,
      "t": 142616.66666666674,
      "d": 1766.666666666657,
      "v": 88
    },
    {
      "midi": 65,
      "hit": false,
      "t": 144516.66666666674,
      "d": 16.666666666656965,
      "v": 88
    },
    {
      "midi": 69,
      "hit": false,
      "t": 144516.66666666674,
      "d": 16.666666666656965,
      "v": 105
    },
    {
      "midi": 72,
      "hit": false,
      "t": 144516.66666666674,
      "d": 16.666666666656965,
      "v": 94
    },
    {
      "midi": 60,
      "hit": false,
      "t": 144533.3333333334,
      "d": 16.666666666656965,
      "v": 81
    },
    {
      "midi": 69,
      "hit": false,
      "t": 144533.3333333334,
      "d": 883.3333333333139,
      "v": 105
    },
    {
      "midi": 53,
      "hit": false,
      "t": 144533.3333333334,
      "d": 1916.6666666665988,
      "v": 73
    },
    {
      "midi": 65,
      "hit": false,
      "t": 145500.00000000006,
      "d": 16.666666666656965,
      "v": 99
    },
    {
      "midi": 72,
      "hit": false,
      "t": 145833.33333333337,
      "d": 16.666666666656965,
      "v": 105
    },
    {
      "midi": 69,
      "hit": false,
      "t": 146016.6666666667,
      "d": 16.666666666656965,
      "v": 87
    },
    {
      "midi": 55,
      "hit": false,
      "t": 146533.33333333334,
      "d": 16.666666666656965,
      "v": 105
    },
    {
      "midi": 67,
      "hit": false,
      "t": 146533.33333333334,
      "d": 16.666666666656965,
      "v": 97
    },
    {
      "midi": 71,
      "hit": false,
      "t": 146533.33333333334,
      "d": 16.666666666656965,
      "v": 103
    },
    {
      "midi": 74,
      "hit": false,
      "t": 146533.33333333334,
      "d": 16.666666666656965,
      "v": 80
    },
    {
      "midi": 57,
      "hit": false,
      "t": 148450,
      "d": 16.666666666656965,
      "v": 115
    },
    {
      "midi": 69,
      "hit": false,
      "t": 148450,
      "d": 16.666666666656965,
      "v": 110
    },
    {
      "midi": 73,
      "hit": false,
      "t": 148450,
      "d": 16.666666666656965,
      "v": 110
    },
    {
      "midi": 76,
      "hit": false,
      "t": 148450,
      "d": 16.666666666656965,
      "v": 99
    },
    {
      "midi": 62,
      "hit": false,
      "t": 150416.66666666666,
      "d": 16.666666666656965,
      "v": 100
    },
    {
      "midi": 65,
      "hit": false,
      "t": 150416.66666666666,
      "d": 16.666666666656965,
      "v": 104
    },
    {
      "midi": 69,
      "hit": false,
      "t": 150416.66666666666,
      "d": 16.666666666656965,
      "v": 116
    },
    {
      "midi": 74,
      "hit": false,
      "t": 150416.66666666666,
      "d": 16.666666666656965,
      "v": 100
    },
    {
      "midi": 50,
      "hit": false,
      "t": 150433.3333333333,
      "d": 1833.333333333343,
      "v": 105
    },
    {
      "midi": 62,
      "hit": false,
      "t": 150433.3333333333,
      "d": 1850,
      "v": 100
    },
    {
      "midi": 65,
      "hit": false,
      "t": 167983.3333333333,
      "d": 16.666666666656965,
      "v": 105
    },
    {
      "midi": 69,
      "hit": false,
      "t": 167983.3333333333,
      "d": 16.666666666656965,
      "v": 115
    },
    {
      "midi": 50,
      "hit": false,
      "t": 167983.3333333333,
      "d": 1683.333333333314,
      "v": 81
    },
    {
      "midi": 57,
      "hit": false,
      "t": 167999.99999999997,
      "d": 16.666666666656965,
      "v": 79
    },
    {
      "midi": 62,
      "hit": false,
      "t": 167999.99999999997,
      "d": 16.666666666656965,
      "v": 84
    },
    {
      "midi": 74,
      "hit": false,
      "t": 167999.99999999997,
      "d": 16.666666666656965,
      "v": 99
    },
    {
      "midi": 73,
      "hit": false,
      "t": 169933.33333333328,
      "d": 16.666666666656965,
      "v": 91
    },
    {
      "midi": 57,
      "hit": false,
      "t": 169949.99999999994,
      "d": 16.666666666656965,
      "v": 106
    },
    {
      "midi": 69,
      "hit": false,
      "t": 169949.99999999994,
      "d": 16.666666666656965,
      "v": 113
    },
    {
      "midi": 76,
      "hit": false,
      "t": 169949.99999999994,
      "d": 16.666666666656965,
      "v": 91
    },
    {
      "midi": 69,
      "hit": false,
      "t": 171883.33333333326,
      "d": 16.666666666656965,
      "v": 111
    },
    {
      "midi": 73,
      "hit": false,
      "t": 171883.33333333326,
      "d": 16.666666666656965,
      "v": 94
    },
    {
      "midi": 76,
      "hit": false,
      "t": 171883.33333333326,
      "d": 16.666666666656965,
      "v": 88
    },
    {
      "midi": 57,
      "hit": false,
      "t": 171916.66666666657,
      "d": 16.666666666656965,
      "v": 103
    },
    {
      "midi": 62,
      "hit": false,
      "t": 173849.99999999988,
      "d": 16.666666666656965,
      "v": 94
    },
    {
      "midi": 65,
      "hit": false,
      "t": 173849.99999999988,
      "d": 16.666666666656965,
      "v": 93
    },
    {
      "midi": 69,
      "hit": false,
      "t": 173866.66666666654,
      "d": 16.666666666656965,
      "v": 114
    },
    {
      "midi": 74,
      "hit": false,
      "t": 173866.66666666654,
      "d": 16.666666666656965,
      "v": 97
    },
    {
      "midi": 62,
      "hit": false,
      "t": 175799.99999999985,
      "d": 16.666666666656965,
      "v": 80
    },
    {
      "midi": 65,
      "hit": false,
      "t": 175799.99999999985,
      "d": 16.666666666656965,
      "v": 91
    },
    {
      "midi": 69,
      "hit": false,
      "t": 175799.99999999985,
      "d": 16.666666666656965,
      "v": 105
    },
    {
      "midi": 74,
      "hit": false,
      "t": 175799.99999999985,
      "d": 16.666666666656965,
      "v": 85
    },
    {
      "midi": 73,
      "hit": false,
      "t": 177749.99999999985,
      "d": 16.666666666656965,
      "v": 92
    },
    {
      "midi": 57,
      "hit": false,
      "t": 177766.6666666665,
      "d": 16.666666666656965,
      "v": 96
    },
    {
      "midi": 69,
      "hit": false,
      "t": 177766.6666666665,
      "d": 16.666666666656965,
      "v": 106
    },
    {
      "midi": 76,
      "hit": false,
      "t": 177766.6666666665,
      "d": 16.666666666656965,
      "v": 91
    },
    {
      "midi": 69,
      "hit": false,
      "t": 179683.33333333317,
      "d": 16.666666666656965,
      "v": 106
    },
    {
      "midi": 73,
      "hit": false,
      "t": 179683.33333333317,
      "d": 16.666666666656965,
      "v": 87
    },
    {
      "midi": 76,
      "hit": false,
      "t": 179683.33333333317,
      "d": 16.666666666656965,
      "v": 87
    },
    {
      "midi": 57,
      "hit": false,
      "t": 179699.99999999983,
      "d": 16.666666666656965,
      "v": 91
    },
    {
      "midi": 62,
      "hit": false,
      "t": 181666.66666666648,
      "d": 16.666666666656965,
      "v": 94
    },
    {
      "midi": 65,
      "hit": false,
      "t": 181666.66666666648,
      "d": 16.666666666656965,
      "v": 98
    },
    {
      "midi": 69,
      "hit": false,
      "t": 181683.33333333314,
      "d": 16.666666666656965,
      "v": 116
    },
    {
      "midi": 74,
      "hit": false,
      "t": 181683.33333333314,
      "d": 1666.666666666657,
      "v": 96
    },
    {
      "midi": 62,
      "hit": false,
      "t": 183583.33333333314,
      "d": 16.666666666656965,
      "v": 91
    },
    {
      "midi": 65,
      "hit": false,
      "t": 183583.33333333314,
      "d": 16.666666666656965,
      "v": 106
    },
    {
      "midi": 69,
      "hit": false,
      "t": 183583.33333333314,
      "d": 16.666666666656965,
      "v": 117
    },
    {
      "midi": 74,
      "hit": false,
      "t": 183583.33333333314,
      "d": 16.666666666656965,
      "v": 101
    },
    {
      "midi": 62,
      "hit": false,
      "t": 184083.33333333314,
      "d": 16.666666666656965,
      "v": 105
    },
    {
      "midi": 65,
      "hit": false,
      "t": 184099.9999999998,
      "d": 16.666666666656965,
      "v": 110
    },
    {
      "midi": 69,
      "hit": false,
      "t": 184099.9999999998,
      "d": 16.666666666656965,
      "v": 119
    },
    {
      "midi": 74,
      "hit": false,
      "t": 184116.66666666645,
      "d": 16.666666666656965,
      "v": 109
    },
    {
      "midi": 62,
      "hit": false,
      "t": 185566.66666666645,
      "d": 16.666666666656965,
      "v": 104
    },
    {
      "midi": 65,
      "hit": false,
      "t": 185566.66666666645,
      "d": 16.666666666656965,
      "v": 105
    },
    {
      "midi": 69,
      "hit": false,
      "t": 185566.66666666645,
      "d": 16.666666666656965,
      "v": 116
    },
    {
      "midi": 74,
      "hit": false,
      "t": 185566.66666666645,
      "d": 16.666666666656965,
      "v": 97
    },
    {
      "midi": 57,
      "hit": false,
      "t": 187533.3333333331,
      "d": 16.666666666656965,
      "v": 97
    },
    {
      "midi": 69,
      "hit": false,
      "t": 187533.3333333331,
      "d": 16.666666666656965,
      "v": 114
    },
    {
      "midi": 73,
      "hit": false,
      "t": 187533.3333333331,
      "d": 16.666666666656965,
      "v": 98
    },
    {
      "midi": 76,
      "hit": false,
      "t": 187533.3333333331,
      "d": 16.666666666656965,
      "v": 99
    },
    {
      "midi": 57,
      "hit": false,
      "t": 189433.3333333331,
      "d": 16.666666666656965,
      "v": 85
    },
    {
      "midi": 69,
      "hit": false,
      "t": 189433.3333333331,
      "d": 16.666666666656965,
      "v": 113
    },
    {
      "midi": 73,
      "hit": false,
      "t": 189433.3333333331,
      "d": 16.666666666656965,
      "v": 92
    },
    {
      "midi": 76,
      "hit": false,
      "t": 189433.3333333331,
      "d": 16.666666666656965,
      "v": 90
    },
    {
      "midi": 62,
      "hit": false,
      "t": 191399.99999999977,
      "d": 16.666666666656965,
      "v": 87
    },
    {
      "midi": 69,
      "hit": false,
      "t": 191399.99999999977,
      "d": 16.666666666656965,
      "v": 114
    },
    {
      "midi": 74,
      "hit": false,
      "t": 191399.99999999977,
      "d": 16.666666666656965,
      "v": 100
    },
    {
      "midi": 65,
      "hit": false,
      "t": 191399.99999999977,
      "d": 1783.333333333314,
      "v": 94
    },
    {
      "midi": 69,
      "hit": false,
      "t": 193349.99999999974,
      "d": 16.666666666656965,
      "v": 111
    },
    {
      "midi": 62,
      "hit": false,
      "t": 193366.6666666664,
      "d": 16.666666666656965,
      "v": 82
    },
    {
      "midi": 65,
      "hit": false,
      "t": 193366.6666666664,
      "d": 16.666666666656965,
      "v": 96
    },
    {
      "midi": 74,
      "hit": false,
      "t": 193366.6666666664,
      "d": 16.666666666656965,
      "v": 91
    },
    {
      "midi": 69,
      "hit": false,
      "t": 193366.6666666664,
      "d": 1300,
      "v": 111
    },
    {
      "midi": 65,
      "hit": false,
      "t": 194816.6666666664,
      "d": 16.666666666656965,
      "v": 94
    },
    {
      "midi": 69,
      "hit": false,
      "t": 194833.33333333305,
      "d": 16.666666666656965,
      "v": 111
    },
    {
      "midi": 74,
      "hit": false,
      "t": 194833.33333333305,
      "d": 16.666666666656965,
      "v": 93
    },
    {
      "midi": 65,
      "hit": false,
      "t": 194833.33333333305,
      "d": 350,
      "v": 94
    },
    {
      "midi": 74,
      "hit": false,
      "t": 195316.6666666664,
      "d": 16.666666666656965,
      "v": 103
    },
    {
      "midi": 55,
      "hit": false,
      "t": 195333.33333333305,
      "d": 16.666666666656965,
      "v": 91
    },
    {
      "midi": 62,
      "hit": false,
      "t": 195333.33333333305,
      "d": 16.666666666656965,
      "v": 79
    },
    {
      "midi": 67,
      "hit": false,
      "t": 195333.33333333305,
      "d": 16.666666666656965,
      "v": 101
    },
    {
      "midi": 70,
      "hit": false,
      "t": 195333.33333333305,
      "d": 16.666666666656965,
      "v": 106
    },
    {
      "midi": 57,
      "hit": false,
      "t": 197266.66666666637,
      "d": 16.666666666656965,
      "v": 98
    },
    {
      "midi": 69,
      "hit": false,
      "t": 197266.66666666637,
      "d": 16.666666666656965,
      "v": 113
    },
    {
      "midi": 73,
      "hit": false,
      "t": 197266.66666666637,
      "d": 16.666666666656965,
      "v": 102
    },
    {
      "midi": 76,
      "hit": false,
      "t": 197266.66666666637,
      "d": 16.666666666656965,
      "v": 94
    },
    {
      "midi": 65,
      "hit": false,
      "t": 199216.66666666637,
      "d": 16.666666666656965,
      "v": 96
    },
    {
      "midi": 69,
      "hit": false,
      "t": 199216.66666666637,
      "d": 16.666666666656965,
      "v": 113
    },
    {
      "midi": 74,
      "hit": false,
      "t": 199216.66666666637,
      "d": 16.666666666656965,
      "v": 94
    },
    {
      "midi": 62,
      "hit": false,
      "t": 199233.33333333302,
      "d": 16.666666666656965,
      "v": 82
    },
    {
      "midi": 65,
      "hit": false,
      "t": 200499.99999999968,
      "d": 16.666666666656965,
      "v": 80
    },
    {
      "midi": 69,
      "hit": false,
      "t": 200666.66666666634,
      "d": 16.666666666656965,
      "v": 93
    },
    {
      "midi": 74,
      "hit": false,
      "t": 200966.66666666634,
      "d": 16.666666666656965,
      "v": 85
    },
    {
      "midi": 62,
      "hit": false,
      "t": 201166.66666666634,
      "d": 16.666666666656965,
      "v": 94
    },
    {
      "midi": 65,
      "hit": false,
      "t": 201166.66666666634,
      "d": 16.666666666656965,
      "v": 90
    },
    {
      "midi": 69,
      "hit": false,
      "t": 201166.66666666634,
      "d": 16.666666666656965,
      "v": 109
    },
    {
      "midi": 74,
      "hit": false,
      "t": 201166.66666666634,
      "d": 16.666666666656965,
      "v": 98
    },
    {
      "midi": 69,
      "hit": false,
      "t": 203149.99999999965,
      "d": 16.666666666656965,
      "v": 106
    },
    {
      "midi": 73,
      "hit": false,
      "t": 203149.99999999965,
      "d": 16.666666666656965,
      "v": 87
    },
    {
      "midi": 76,
      "hit": false,
      "t": 203149.99999999965,
      "d": 16.666666666656965,
      "v": 85
    },
    {
      "midi": 57,
      "hit": false,
      "t": 203166.6666666663,
      "d": 16.666666666656965,
      "v": 96
    },
    {
      "midi": 57,
      "hit": false,
      "t": 205083.33333333296,
      "d": 16.666666666656965,
      "v": 91
    },
    {
      "midi": 64,
      "hit": false,
      "t": 205083.33333333296,
      "d": 16.666666666656965,
      "v": 76
    },
    {
      "midi": 69,
      "hit": false,
      "t": 205083.33333333296,
      "d": 16.666666666656965,
      "v": 105
    },
    {
      "midi": 73,
      "hit": false,
      "t": 205083.33333333296,
      "d": 16.666666666656965,
      "v": 88
    },
    {
      "midi": 76,
      "hit": false,
      "t": 205083.33333333296,
      "d": 16.666666666656965,
      "v": 91
    },
    {
      "midi": 65,
      "hit": false,
      "t": 207049.99999999962,
      "d": 16.666666666656965,
      "v": 100
    },
    {
      "midi": 69,
      "hit": false,
      "t": 207049.99999999962,
      "d": 16.666666666656965,
      "v": 116
    },
    {
      "midi": 74,
      "hit": false,
      "t": 207049.99999999962,
      "d": 16.666666666656965,
      "v": 94
    },
    {
      "midi": 62,
      "hit": false,
      "t": 207066.66666666628,
      "d": 16.666666666656965,
      "v": 102
    },
    {
      "midi": 57,
      "hit": false,
      "t": 208999.9999999996,
      "d": 16.666666666656965,
      "v": 85
    },
    {
      "midi": 62,
      "hit": false,
      "t": 208999.9999999996,
      "d": 16.666666666656965,
      "v": 88
    },
    {
      "midi": 65,
      "hit": false,
      "t": 208999.9999999996,
      "d": 16.666666666656965,
      "v": 90
    },
    {
      "midi": 69,
      "hit": false,
      "t": 208999.9999999996,
      "d": 16.666666666656965,
      "v": 106
    },
    {
      "midi": 74,
      "hit": false,
      "t": 208999.9999999996,
      "d": 16.666666666656965,
      "v": 87
    },
    {
      "midi": 70,
      "hit": false,
      "t": 210949.9999999996,
      "d": 16.666666666656965,
      "v": 100
    },
    {
      "midi": 55,
      "hit": false,
      "t": 210966.66666666625,
      "d": 16.666666666656965,
      "v": 101
    },
    {
      "midi": 62,
      "hit": false,
      "t": 210966.66666666625,
      "d": 16.666666666656965,
      "v": 85
    },
    {
      "midi": 67,
      "hit": false,
      "t": 210966.66666666625,
      "d": 16.666666666656965,
      "v": 98
    },
    {
      "midi": 74,
      "hit": false,
      "t": 210966.66666666625,
      "d": 16.666666666656965,
      "v": 91
    },
    {
      "midi": 70,
      "hit": false,
      "t": 210966.66666666625,
      "d": 1700,
      "v": 100
    },
    {
      "midi": 69,
      "hit": false,
      "t": 212883.3333333329,
      "d": 16.666666666656965,
      "v": 109
    },
    {
      "midi": 73,
      "hit": false,
      "t": 212883.3333333329,
      "d": 16.666666666656965,
      "v": 94
    },
    {
      "midi": 76,
      "hit": false,
      "t": 212883.3333333329,
      "d": 16.666666666656965,
      "v": 90
    },
    {
      "midi": 57,
      "hit": false,
      "t": 212899.99999999956,
      "d": 16.666666666656965,
      "v": 96
    },
    {
      "midi": 62,
      "hit": false,
      "t": 214833.33333333288,
      "d": 16.666666666656965,
      "v": 105
    },
    {
      "midi": 65,
      "hit": false,
      "t": 214849.99999999953,
      "d": 16.666666666656965,
      "v": 103
    },
    {
      "midi": 69,
      "hit": false,
      "t": 214849.99999999953,
      "d": 16.666666666656965,
      "v": 116
    },
    {
      "midi": 74,
      "hit": false,
      "t": 214849.99999999953,
      "d": 16.666666666656965,
      "v": 102
    },
    {
      "midi": 62,
      "hit": false,
      "t": 215349.99999999953,
      "d": 16.666666666656965,
      "v": 111
    },
    {
      "midi": 65,
      "hit": false,
      "t": 215349.99999999953,
      "d": 16.666666666656965,
      "v": 107
    },
    {
      "midi": 69,
      "hit": false,
      "t": 215349.99999999953,
      "d": 16.666666666656965,
      "v": 117
    },
    {
      "midi": 74,
      "hit": false,
      "t": 215349.99999999953,
      "d": 16.666666666656965,
      "v": 107
    },
    {
      "midi": 62,
      "hit": false,
      "t": 216816.6666666662,
      "d": 16.666666666656965,
      "v": 106
    },
    {
      "midi": 65,
      "hit": false,
      "t": 216816.6666666662,
      "d": 16.666666666656965,
      "v": 104
    },
    {
      "midi": 74,
      "hit": false,
      "t": 216816.6666666662,
      "d": 16.666666666656965,
      "v": 97
    },
    {
      "midi": 69,
      "hit": false,
      "t": 216833.33333333285,
      "d": 16.666666666656965,
      "v": 115
    },
    {
      "midi": 69,
      "hit": false,
      "t": 218783.33333333285,
      "d": 16.666666666656965,
      "v": 113
    },
    {
      "midi": 73,
      "hit": false,
      "t": 218783.33333333285,
      "d": 16.666666666656965,
      "v": 90
    },
    {
      "midi": 76,
      "hit": false,
      "t": 218783.33333333285,
      "d": 16.666666666656965,
      "v": 91
    },
    {
      "midi": 57,
      "hit": false,
      "t": 218799.9999999995,
      "d": 16.666666666656965,
      "v": 94
    },
    {
      "midi": 64,
      "hit": false,
      "t": 218799.9999999995,
      "d": 16.666666666656965,
      "v": 87
    },
    {
      "midi": 57,
      "hit": false,
      "t": 220699.9999999995,
      "d": 16.666666666656965,
      "v": 91
    },
    {
      "midi": 69,
      "hit": false,
      "t": 220699.9999999995,
      "d": 16.666666666656965,
      "v": 107
    },
    {
      "midi": 64,
      "hit": false,
      "t": 220716.66666666616,
      "d": 16.666666666656965,
      "v": 85
    },
    {
      "midi": 73,
      "hit": false,
      "t": 220716.66666666616,
      "d": 16.666666666656965,
      "v": 87
    },
    {
      "midi": 76,
      "hit": false,
      "t": 220716.66666666616,
      "d": 16.666666666656965,
      "v": 85
    },
    {
      "midi": 69,
      "hit": false,
      "t": 220716.66666666616,
      "d": 1816.666666666657,
      "v": 107
    },
    {
      "midi": 62,
      "hit": false,
      "t": 222716.66666666616,
      "d": 16.666666666656965,
      "v": 103
    },
    {
      "midi": 65,
      "hit": false,
      "t": 222716.66666666616,
      "d": 16.666666666656965,
      "v": 92
    },
    {
      "midi": 69,
      "hit": false,
      "t": 222716.66666666616,
      "d": 16.666666666656965,
      "v": 109
    },
    {
      "midi": 74,
      "hit": false,
      "t": 222716.66666666616,
      "d": 16.666666666656965,
      "v": 88
    },
    {
      "midi": 62,
      "hit": false,
      "t": 224599.99999999948,
      "d": 16.666666666656965,
      "v": 87
    },
    {
      "midi": 65,
      "hit": false,
      "t": 224616.66666666613,
      "d": 16.666666666656965,
      "v": 98
    },
    {
      "midi": 69,
      "hit": false,
      "t": 224616.66666666613,
      "d": 16.666666666656965,
      "v": 111
    },
    {
      "midi": 74,
      "hit": false,
      "t": 224616.66666666613,
      "d": 16.666666666656965,
      "v": 90
    },
    {
      "midi": 57,
      "hit": false,
      "t": 226616.66666666613,
      "d": 16.666666666656965,
      "v": 96
    },
    {
      "midi": 69,
      "hit": false,
      "t": 226616.66666666613,
      "d": 16.666666666656965,
      "v": 114
    },
    {
      "midi": 73,
      "hit": false,
      "t": 226616.66666666613,
      "d": 16.666666666656965,
      "v": 92
    },
    {
      "midi": 76,
      "hit": false,
      "t": 226616.66666666613,
      "d": 16.666666666656965,
      "v": 93
    },
    {
      "midi": 57,
      "hit": false,
      "t": 228533.3333333328,
      "d": 16.666666666656965,
      "v": 91
    },
    {
      "midi": 69,
      "hit": false,
      "t": 228533.3333333328,
      "d": 16.666666666656965,
      "v": 109
    },
    {
      "midi": 73,
      "hit": false,
      "t": 228533.3333333328,
      "d": 16.666666666656965,
      "v": 90
    },
    {
      "midi": 76,
      "hit": false,
      "t": 228533.3333333328,
      "d": 16.666666666656965,
      "v": 88
    },
    {
      "midi": 62,
      "hit": false,
      "t": 230516.6666666661,
      "d": 16.666666666656965,
      "v": 92
    },
    {
      "midi": 65,
      "hit": false,
      "t": 230516.6666666661,
      "d": 16.666666666656965,
      "v": 97
    },
    {
      "midi": 69,
      "hit": false,
      "t": 230516.6666666661,
      "d": 16.666666666656965,
      "v": 116
    },
    {
      "midi": 74,
      "hit": false,
      "t": 230516.6666666661,
      "d": 16.666666666656965,
      "v": 98
    },
    {
      "midi": 62,
      "hit": false,
      "t": 232416.6666666661,
      "d": 16.666666666656965,
      "v": 87
    },
    {
      "midi": 65,
      "hit": false,
      "t": 232416.6666666661,
      "d": 16.666666666656965,
      "v": 93
    },
    {
      "midi": 69,
      "hit": false,
      "t": 232416.6666666661,
      "d": 16.666666666656965,
      "v": 113
    },
    {
      "midi": 74,
      "hit": false,
      "t": 232416.6666666661,
      "d": 16.666666666656965,
      "v": 90
    },
    {
      "midi": 62,
      "hit": false,
      "t": 232433.33333333276,
      "d": 1850,
      "v": 87
    },
    {
      "midi": 73,
      "hit": false,
      "t": 234383.33333333276,
      "d": 16.666666666656965,
      "v": 100
    },
    {
      "midi": 57,
      "hit": false,
      "t": 234399.99999999942,
      "d": 16.666666666656965,
      "v": 91
    },
    {
      "midi": 69,
      "hit": false,
      "t": 234399.99999999942,
      "d": 16.666666666656965,
      "v": 113
    },
    {
      "midi": 76,
      "hit": false,
      "t": 234399.99999999942,
      "d": 16.666666666656965,
      "v": 90
    },
    {
      "midi": 57,
      "hit": false,
      "t": 236333.33333333273,
      "d": 16.666666666656965,
      "v": 96
    },
    {
      "midi": 69,
      "hit": false,
      "t": 236333.33333333273,
      "d": 16.666666666656965,
      "v": 109
    },
    {
      "midi": 73,
      "hit": false,
      "t": 236333.33333333273,
      "d": 16.666666666656965,
      "v": 96
    },
    {
      "midi": 76,
      "hit": false,
      "t": 236333.33333333273,
      "d": 16.666666666656965,
      "v": 88
    },
    {
      "midi": 62,
      "hit": false,
      "t": 238299.9999999994,
      "d": 16.666666666656965,
      "v": 96
    },
    {
      "midi": 65,
      "hit": false,
      "t": 238299.9999999994,
      "d": 16.666666666656965,
      "v": 96
    },
    {
      "midi": 69,
      "hit": false,
      "t": 238316.66666666605,
      "d": 16.666666666656965,
      "v": 114
    },
    {
      "midi": 74,
      "hit": false,
      "t": 238316.66666666605,
      "d": 16.666666666656965,
      "v": 97
    },
    {
      "midi": 62,
      "hit": false,
      "t": 240266.66666666605,
      "d": 16.666666666656965,
      "v": 87
    },
    {
      "midi": 65,
      "hit": false,
      "t": 240266.66666666605,
      "d": 16.666666666656965,
      "v": 93
    },
    {
      "midi": 69,
      "hit": false,
      "t": 240266.66666666605,
      "d": 16.666666666656965,
      "v": 114
    },
    {
      "midi": 74,
      "hit": false,
      "t": 240266.66666666605,
      "d": 16.666666666656965,
      "v": 94
    },
    {
      "midi": 73,
      "hit": false,
      "t": 242199.99999999936,
      "d": 16.666666666656965,
      "v": 91
    },
    {
      "midi": 57,
      "hit": false,
      "t": 242216.66666666602,
      "d": 16.666666666656965,
      "v": 97
    },
    {
      "midi": 69,
      "hit": false,
      "t": 242216.66666666602,
      "d": 16.666666666656965,
      "v": 107
    },
    {
      "midi": 76,
      "hit": false,
      "t": 242216.66666666602,
      "d": 16.666666666656965,
      "v": 84
    },
    {
      "midi": 73,
      "hit": false,
      "t": 242216.66666666602,
      "d": 1733.333333333314,
      "v": 91
    },
    {
      "midi": 69,
      "hit": false,
      "t": 244149.99999999933,
      "d": 16.666666666656965,
      "v": 107
    },
    {
      "midi": 73,
      "hit": false,
      "t": 244149.99999999933,
      "d": 16.666666666656965,
      "v": 91
    },
    {
      "midi": 57,
      "hit": false,
      "t": 244166.666666666,
      "d": 16.666666666656965,
      "v": 91
    },
    {
      "midi": 76,
      "hit": false,
      "t": 244166.666666666,
      "d": 16.666666666656965,
      "v": 85
    },
    {
      "midi": 69,
      "hit": false,
      "t": 246099.9999999993,
      "d": 16.666666666656965,
      "v": 111
    },
    {
      "midi": 62,
      "hit": false,
      "t": 246116.66666666596,
      "d": 16.666666666656965,
      "v": 79
    },
    {
      "midi": 65,
      "hit": false,
      "t": 246116.66666666596,
      "d": 16.666666666656965,
      "v": 92
    },
    {
      "midi": 74,
      "hit": false,
      "t": 246116.66666666596,
      "d": 16.666666666656965,
      "v": 98
    },
    {
      "midi": 69,
      "hit": false,
      "t": 246116.66666666596,
      "d": 1733.333333333314,
      "v": 111
    },
    {
      "midi": 62,
      "hit": false,
      "t": 248066.66666666593,
      "d": 16.666666666656965,
      "v": 85
    },
    {
      "midi": 65,
      "hit": false,
      "t": 248066.66666666593,
      "d": 16.666666666656965,
      "v": 93
    },
    {
      "midi": 69,
      "hit": false,
      "t": 248066.66666666593,
      "d": 16.666666666656965,
      "v": 110
    },
    {
      "midi": 74,
      "hit": false,
      "t": 248066.66666666593,
      "d": 16.666666666656965,
      "v": 88
    },
    {
      "midi": 69,
      "hit": false,
      "t": 249999.99999999924,
      "d": 16.666666666656965,
      "v": 109
    },
    {
      "midi": 73,
      "hit": false,
      "t": 249999.99999999924,
      "d": 16.666666666656965,
      "v": 96
    },
    {
      "midi": 57,
      "hit": false,
      "t": 250016.6666666659,
      "d": 16.666666666656965,
      "v": 91
    },
    {
      "midi": 76,
      "hit": false,
      "t": 250016.6666666659,
      "d": 16.666666666656965,
      "v": 88
    },
    {
      "midi": 73,
      "hit": false,
      "t": 250016.6666666659,
      "d": 1750,
      "v": 96
    },
    {
      "midi": 57,
      "hit": false,
      "t": 251966.6666666659,
      "d": 16.666666666656965,
      "v": 92
    },
    {
      "midi": 69,
      "hit": false,
      "t": 251966.6666666659,
      "d": 16.666666666656965,
      "v": 109
    },
    {
      "midi": 73,
      "hit": false,
      "t": 251966.6666666659,
      "d": 16.666666666656965,
      "v": 91
    },
    {
      "midi": 76,
      "hit": false,
      "t": 251983.33333333256,
      "d": 16.666666666656965,
      "v": 80
    },
    {
      "midi": 62,
      "hit": false,
      "t": 253933.33333333256,
      "d": 16.666666666656965,
      "v": 82
    },
    {
      "midi": 65,
      "hit": false,
      "t": 253933.33333333256,
      "d": 16.666666666656965,
      "v": 100
    },
    {
      "midi": 69,
      "hit": false,
      "t": 253949.9999999992,
      "d": 16.666666666656965,
      "v": 118
    },
    {
      "midi": 74,
      "hit": false,
      "t": 253949.9999999992,
      "d": 16.666666666656965,
      "v": 101
    },
    {
      "midi": 65,
      "hit": false,
      "t": 253949.9999999992,
      "d": 1733.333333333314,
      "v": 100
    },
    {
      "midi": 62,
      "hit": false,
      "t": 255866.66666666587,
      "d": 16.666666666656965,
      "v": 101
    },
    {
      "midi": 65,
      "hit": false,
      "t": 255866.66666666587,
      "d": 16.666666666656965,
      "v": 106
    },
    {
      "midi": 69,
      "hit": false,
      "t": 255866.66666666587,
      "d": 16.666666666656965,
      "v": 117
    },
    {
      "midi": 74,
      "hit": false,
      "t": 255866.66666666587,
      "d": 16.666666666656965,
      "v": 105
    },
    {
      "midi": 57,
      "hit": false,
      "t": 257299.99999999919,
      "d": 16.666666666656965,
      "v": 116
    },
    {
      "midi": 69,
      "hit": false,
      "t": 257316.66666666584,
      "d": 16.666666666656965,
      "v": 119
    },
    {
      "midi": 73,
      "hit": false,
      "t": 257316.66666666584,
      "d": 16.666666666656965,
      "v": 110
    },
    {
      "midi": 76,
      "hit": false,
      "t": 257316.66666666584,
      "d": 16.666666666656965,
      "v": 109
    },
    {
      "midi": 62,
      "hit": false,
      "t": 257816.66666666584,
      "d": 16.666666666656965,
      "v": 116
    },
    {
      "midi": 65,
      "hit": false,
      "t": 257816.66666666584,
      "d": 16.666666666656965,
      "v": 114
    },
    {
      "midi": 69,
      "hit": false,
      "t": 257816.66666666584,
      "d": 16.666666666656965,
      "v": 122
    },
    {
      "midi": 74,
      "hit": false,
      "t": 257816.66666666584,
      "d": 16.666666666656965,
      "v": 107
    }
  ]
}