{
  "jsonPath": "Unknown/Unknown/Bernd Krueger/christmas-fantasia.json",
  "path": "Unknown\\Unknown\\Bernd Krueger\\Christmas Fantasia.mid",
  "name": "Christmas Fantasia",
  "difficulty": "Advanced",
  "bpm": 91.000091000091,
  "notes": [
    {
      "midi": 31,
      "hit": false,
      "t": 0,
      "d": 164.835,
      "v": 32
    },
    {
      "midi": 43,
      "hit": false,
      "t": 0,
      "d": 164.835,
      "v": 24
    },
    {
      "midi": 31,
      "hit": false,
      "t": 164.835,
      "d": 164.835,
      "v": 32
    },
    {
      "midi": 43,
      "hit": false,
      "t": 164.835,
      "d": 164.835,
      "v": 24
    },
    {
      "midi": 31,
      "hit": false,
      "t": 329.67,
      "d": 164.83499999999998,
      "v": 32
    },
    {
      "midi": 43,
      "hit": false,
      "t": 329.67,
      "d": 164.83499999999998,
      "v": 24
    },
    {
      "midi": 31,
      "hit": false,
      "t": 494.505,
      "d": 164.83500000000004,
      "v": 32
    },
    {
      "midi": 43,
      "hit": false,
      "t": 494.505,
      "d": 164.83500000000004,
      "v": 24
    },
    {
      "midi": 31,
      "hit": false,
      "t": 659.34,
      "d": 164.83500000000004,
      "v": 32
    },
    {
      "midi": 43,
      "hit": false,
      "t": 659.34,
      "d": 164.83500000000004,
      "v": 24
    },
    {
      "midi": 31,
      "hit": false,
      "t": 824.1750000000001,
      "d": 164.83500000000004,
      "v": 32
    },
    {
      "midi": 43,
      "hit": false,
      "t": 824.1750000000001,
      "d": 164.83500000000004,
      "v": 24
    },
    {
      "midi": 31,
      "hit": false,
      "t": 989.0100000000001,
      "d": 164.83499999999992,
      "v": 32
    },
    {
      "midi": 43,
      "hit": false,
      "t": 989.0100000000001,
      "d": 164.83499999999992,
      "v": 24
    },
    {
      "midi": 31,
      "hit": false,
      "t": 1153.845,
      "d": 164.83500000000004,
      "v": 32
    },
    {
      "midi": 43,
      "hit": false,
      "t": 1153.845,
      "d": 164.83500000000004,
      "v": 24
    },
    {
      "midi": 59,
      "hit": false,
      "t": 1318.68,
      "d": 659.3399999999999,
      "v": 48
    },
    {
      "midi": 65,
      "hit": false,
      "t": 1318.68,
      "d": 659.3399999999999,
      "v": 48
    },
    {
      "midi": 67,
      "hit": false,
      "t": 1318.68,
      "d": 659.3399999999999,
      "v": 48
    },
    {
      "midi": 31,
      "hit": false,
      "t": 1318.68,
      "d": 164.83500000000004,
      "v": 32
    },
    {
      "midi": 43,
      "hit": false,
      "t": 1318.68,
      "d": 164.83500000000004,
      "v": 24
    },
    {
      "midi": 31,
      "hit": false,
      "t": 1483.515,
      "d": 164.83500000000004,
      "v": 32
    },
    {
      "midi": 43,
      "hit": false,
      "t": 1483.515,
      "d": 164.83500000000004,
      "v": 24
    },
    {
      "midi": 31,
      "hit": false,
      "t": 1648.3500000000001,
      "d": 164.83500000000004,
      "v": 32
    },
    {
      "midi": 43,
      "hit": false,
      "t": 1648.3500000000001,
      "d": 164.83500000000004,
      "v": 24
    },
    {
      "midi": 31,
      "hit": false,
      "t": 1813.1850000000002,
      "d": 164.83500000000004,
      "v": 32
    },
    {
      "midi": 43,
      "hit": false,
      "t": 1813.1850000000002,
      "d": 164.83500000000004,
      "v": 24
    },
    {
      "midi": 59,
      "hit": false,
      "t": 1978.02,
      "d": 494.5050000000001,
      "v": 50
    },
    {
      "midi": 65,
      "hit": false,
      "t": 1978.02,
      "d": 494.5050000000001,
      "v": 50
    },
    {
      "midi": 67,
      "hit": false,
      "t": 1978.02,
      "d": 494.5050000000001,
      "v": 50
    },
    {
      "midi": 31,
      "hit": false,
      "t": 1978.0200000000002,
      "d": 164.8349999999998,
      "v": 32
    },
    {
      "midi": 43,
      "hit": false,
      "t": 1978.0200000000002,
      "d": 164.8349999999998,
      "v": 24
    },
    {
      "midi": 31,
      "hit": false,
      "t": 2142.855,
      "d": 164.83500000000004,
      "v": 32
    },
    {
      "midi": 43,
      "hit": false,
      "t": 2142.855,
      "d": 164.83500000000004,
      "v": 24
    },
    {
      "midi": 31,
      "hit": false,
      "t": 2307.69,
      "d": 164.83500000000004,
      "v": 32
    },
    {
      "midi": 43,
      "hit": false,
      "t": 2307.69,
      "d": 164.83500000000004,
      "v": 24
    },
    {
      "midi": 59,
      "hit": false,
      "t": 2472.525,
      "d": 164.83500000000004,
      "v": 45
    },
    {
      "midi": 65,
      "hit": false,
      "t": 2472.525,
      "d": 164.83500000000004,
      "v": 45
    },
    {
      "midi": 67,
      "hit": false,
      "t": 2472.525,
      "d": 164.83500000000004,
      "v": 45
    },
    {
      "midi": 31,
      "hit": false,
      "t": 2472.525,
      "d": 164.83500000000004,
      "v": 32
    },
    {
      "midi": 43,
      "hit": false,
      "t": 2472.525,
      "d": 164.83500000000004,
      "v": 24
    },
    {
      "midi": 60,
      "hit": false,
      "t": 2637.36,
      "d": 1318.6799999999998,
      "v": 53
    },
    {
      "midi": 65,
      "hit": false,
      "t": 2637.36,
      "d": 1318.6799999999998,
      "v": 53
    },
    {
      "midi": 69,
      "hit": false,
      "t": 2637.36,
      "d": 1318.6799999999998,
      "v": 53
    },
    {
      "midi": 31,
      "hit": false,
      "t": 2637.36,
      "d": 164.83500000000004,
      "v": 32
    },
    {
      "midi": 43,
      "hit": false,
      "t": 2637.36,
      "d": 164.83500000000004,
      "v": 24
    },
    {
      "midi": 31,
      "hit": false,
      "t": 2802.195,
      "d": 164.83500000000004,
      "v": 32
    },
    {
      "midi": 43,
      "hit": false,
      "t": 2802.195,
      "d": 164.83500000000004,
      "v": 24
    },
    {
      "midi": 31,
      "hit": false,
      "t": 2967.03,
      "d": 164.83500000000004,
      "v": 32
    },
    {
      "midi": 43,
      "hit": false,
      "t": 2967.03,
      "d": 164.83500000000004,
      "v": 24
    },
    {
      "midi": 31,
      "hit": false,
      "t": 3131.8650000000002,
      "d": 164.83500000000004,
      "v": 32
    },
    {
      "midi": 43,
      "hit": false,
      "t": 3131.8650000000002,
      "d": 164.83500000000004,
      "v": 24
    },
    {
      "midi": 31,
      "hit": false,
      "t": 3296.7000000000003,
      "d": 164.83500000000004,
      "v": 32
    },
    {
      "midi": 43,
      "hit": false,
      "t": 3296.7000000000003,
      "d": 164.83500000000004,
      "v": 24
    },
    {
      "midi": 31,
      "hit": false,
      "t": 3461.5350000000003,
      "d": 164.83500000000004,
      "v": 32
    },
    {
      "midi": 43,
      "hit": false,
      "t": 3461.5350000000003,
      "d": 164.83500000000004,
      "v": 24
    },
    {
      "midi": 31,
      "hit": false,
      "t": 3626.3700000000003,
      "d": 164.83500000000004,
      "v": 32
    },
    {
      "midi": 43,
      "hit": false,
      "t": 3626.3700000000003,
      "d": 164.83500000000004,
      "v": 24
    },
    {
      "midi": 31,
      "hit": false,
      "t": 3791.2050000000004,
      "d": 164.83500000000004,
      "v": 32
    },
    {
      "midi": 43,
      "hit": false,
      "t": 3791.2050000000004,
      "d": 164.83500000000004,
      "v": 24
    },
    {
      "midi": 62,
      "hit": false,
      "t": 3956.04,
      "d": 659.3400000000001,
      "v": 56
    },
    {
      "midi": 65,
      "hit": false,
      "t": 3956.04,
      "d": 659.3400000000001,
      "v": 56
    },
    {
      "midi": 71,
      "hit": false,
      "t": 3956.04,
      "d": 659.3400000000001,
      "v": 56
    },
    {
      "midi": 31,
      "hit": false,
      "t": 3956.0400000000004,
      "d": 164.83499999999958,
      "v": 32
    },
    {
      "midi": 43,
      "hit": false,
      "t": 3956.0400000000004,
      "d": 164.83499999999958,
      "v": 24
    },
    {
      "midi": 31,
      "hit": false,
      "t": 4120.875,
      "d": 164.83500000000004,
      "v": 32
    },
    {
      "midi": 43,
      "hit": false,
      "t": 4120.875,
      "d": 164.83500000000004,
      "v": 24
    },
    {
      "midi": 31,
      "hit": false,
      "t": 4285.71,
      "d": 164.83500000000004,
      "v": 32
    },
    {
      "midi": 43,
      "hit": false,
      "t": 4285.71,
      "d": 164.83500000000004,
      "v": 24
    },
    {
      "midi": 31,
      "hit": false,
      "t": 4450.545,
      "d": 164.83500000000004,
      "v": 33
    },
    {
      "midi": 43,
      "hit": false,
      "t": 4450.545,
      "d": 164.83500000000004,
      "v": 25
    },
    {
      "midi": 62,
      "hit": false,
      "t": 4615.38,
      "d": 494.5050000000001,
      "v": 55
    },
    {
      "midi": 65,
      "hit": false,
      "t": 4615.38,
      "d": 494.5050000000001,
      "v": 55
    },
    {
      "midi": 71,
      "hit": false,
      "t": 4615.38,
      "d": 494.5050000000001,
      "v": 55
    },
    {
      "midi": 31,
      "hit": false,
      "t": 4615.38,
      "d": 164.83500000000004,
      "v": 33
    },
    {
      "midi": 43,
      "hit": false,
      "t": 4615.38,
      "d": 164.83500000000004,
      "v": 25
    },
    {
      "midi": 31,
      "hit": false,
      "t": 4780.215,
      "d": 164.83500000000004,
      "v": 33
    },
    {
      "midi": 43,
      "hit": false,
      "t": 4780.215,
      "d": 164.83500000000004,
      "v": 25
    },
    {
      "midi": 31,
      "hit": false,
      "t": 4945.05,
      "d": 164.83500000000004,
      "v": 34
    },
    {
      "midi": 43,
      "hit": false,
      "t": 4945.05,
      "d": 164.83500000000004,
      "v": 26
    },
    {
      "midi": 62,
      "hit": false,
      "t": 5109.885,
      "d": 164.83500000000004,
      "v": 60
    },
    {
      "midi": 65,
      "hit": false,
      "t": 5109.885,
      "d": 164.83500000000004,
      "v": 60
    },
    {
      "midi": 71,
      "hit": false,
      "t": 5109.885,
      "d": 164.83500000000004,
      "v": 60
    },
    {
      "midi": 31,
      "hit": false,
      "t": 5109.885,
      "d": 164.83500000000004,
      "v": 34
    },
    {
      "midi": 43,
      "hit": false,
      "t": 5109.885,
      "d": 164.83500000000004,
      "v": 27
    },
    {
      "midi": 64,
      "hit": false,
      "t": 5274.72,
      "d": 1318.6800000000003,
      "v": 66
    },
    {
      "midi": 67,
      "hit": false,
      "t": 5274.72,
      "d": 1318.6800000000003,
      "v": 66
    },
    {
      "midi": 72,
      "hit": false,
      "t": 5274.72,
      "d": 1318.6800000000003,
      "v": 66
    },
    {
      "midi": 31,
      "hit": false,
      "t": 5274.72,
      "d": 164.83500000000004,
      "v": 36
    },
    {
      "midi": 43,
      "hit": false,
      "t": 5274.72,
      "d": 164.83500000000004,
      "v": 27
    },
    {
      "midi": 31,
      "hit": false,
      "t": 5439.555,
      "d": 164.83500000000004,
      "v": 36
    },
    {
      "midi": 43,
      "hit": false,
      "t": 5439.555,
      "d": 164.83500000000004,
      "v": 27
    },
    {
      "midi": 31,
      "hit": false,
      "t": 5604.39,
      "d": 164.83500000000004,
      "v": 36
    },
    {
      "midi": 43,
      "hit": false,
      "t": 5604.39,
      "d": 164.83500000000004,
      "v": 27
    },
    {
      "midi": 31,
      "hit": false,
      "t": 5769.225,
      "d": 164.83500000000004,
      "v": 37
    },
    {
      "midi": 43,
      "hit": false,
      "t": 5769.225,
      "d": 164.83500000000004,
      "v": 27
    },
    {
      "midi": 31,
      "hit": false,
      "t": 5934.06,
      "d": 164.83500000000004,
      "v": 37
    },
    {
      "midi": 43,
      "hit": false,
      "t": 5934.06,
      "d": 164.83500000000004,
      "v": 27
    },
    {
      "midi": 31,
      "hit": false,
      "t": 6098.895,
      "d": 164.83500000000004,
      "v": 37
    },
    {
      "midi": 43,
      "hit": false,
      "t": 6098.895,
      "d": 164.83500000000004,
      "v": 27
    },
    {
      "midi": 31,
      "hit": false,
      "t": 6263.7300000000005,
      "d": 164.83500000000004,
      "v": 37
    },
    {
      "midi": 43,
      "hit": false,
      "t": 6263.7300000000005,
      "d": 164.83500000000004,
      "v": 28
    },
    {
      "midi": 31,
      "hit": false,
      "t": 6428.5650000000005,
      "d": 164.83500000000004,
      "v": 37
    },
    {
      "midi": 43,
      "hit": false,
      "t": 6428.5650000000005,
      "d": 164.83500000000004,
      "v": 28
    },
    {
      "midi": 65,
      "hit": false,
      "t": 6593.400000000001,
      "d": 659.3400000000001,
      "v": 74
    },
    {
      "midi": 71,
      "hit": false,
      "t": 6593.400000000001,
      "d": 659.3400000000001,
      "v": 74
    },
    {
      "midi": 74,
      "hit": false,
      "t": 6593.400000000001,
      "d": 659.3400000000001,
      "v": 74
    },
    {
      "midi": 31,
      "hit": false,
      "t": 6593.400000000001,
      "d": 164.83500000000004,
      "v": 45
    },
    {
      "midi": 43,
      "hit": false,
      "t": 6593.400000000001,
      "d": 164.83500000000004,
      "v": 33
    },
    {
      "midi": 31,
      "hit": false,
      "t": 6758.235000000001,
      "d": 164.83500000000004,
      "v": 45
    },
    {
      "midi": 43,
      "hit": false,
      "t": 6758.235000000001,
      "d": 164.83500000000004,
      "v": 34
    },
    {
      "midi": 31,
      "hit": false,
      "t": 6923.070000000001,
      "d": 164.83500000000004,
      "v": 48
    },
    {
      "midi": 43,
      "hit": false,
      "t": 6923.070000000001,
      "d": 164.83500000000004,
      "v": 36
    },
    {
      "midi": 31,
      "hit": false,
      "t": 7087.905000000001,
      "d": 164.83500000000004,
      "v": 48
    },
    {
      "midi": 43,
      "hit": false,
      "t": 7087.905000000001,
      "d": 164.83500000000004,
      "v": 36
    },
    {
      "midi": 64,
      "hit": false,
      "t": 7252.740000000001,
      "d": 659.3400000000001,
      "v": 78
    },
    {
      "midi": 70,
      "hit": false,
      "t": 7252.740000000001,
      "d": 659.3400000000001,
      "v": 78
    },
    {
      "midi": 73,
      "hit": false,
      "t": 7252.740000000001,
      "d": 659.3400000000001,
      "v": 78
    },
    {
      "midi": 31,
      "hit": false,
      "t": 7252.740000000001,
      "d": 164.83500000000004,
      "v": 48
    },
    {
      "midi": 43,
      "hit": false,
      "t": 7252.740000000001,
      "d": 164.83500000000004,
      "v": 36
    },
    {
      "midi": 31,
      "hit": false,
      "t": 7417.575000000001,
      "d": 164.83500000000004,
      "v": 49
    },
    {
      "midi": 43,
      "hit": false,
      "t": 7417.575000000001,
      "d": 164.83500000000004,
      "v": 37
    },
    {
      "midi": 31,
      "hit": false,
      "t": 7582.410000000001,
      "d": 164.83500000000004,
      "v": 49
    },
    {
      "midi": 43,
      "hit": false,
      "t": 7582.410000000001,
      "d": 164.83500000000004,
      "v": 38
    },
    {
      "midi": 31,
      "hit": false,
      "t": 7747.245000000001,
      "d": 164.83500000000004,
      "v": 50
    },
    {
      "midi": 43,
      "hit": false,
      "t": 7747.245000000001,
      "d": 164.83500000000004,
      "v": 38
    },
    {
      "midi": 65,
      "hit": false,
      "t": 7912.080000000001,
      "d": 659.3399999999992,
      "v": 78
    },
    {
      "midi": 71,
      "hit": false,
      "t": 7912.080000000001,
      "d": 659.3399999999992,
      "v": 78
    },
    {
      "midi": 74,
      "hit": false,
      "t": 7912.080000000001,
      "d": 659.3399999999992,
      "v": 78
    },
    {
      "midi": 31,
      "hit": false,
      "t": 7912.080000000001,
      "d": 164.83500000000004,
      "v": 50
    },
    {
      "midi": 43,
      "hit": false,
      "t": 7912.080000000001,
      "d": 164.83500000000004,
      "v": 38
    },
    {
      "midi": 31,
      "hit": false,
      "t": 8076.915000000001,
      "d": 164.83499999999913,
      "v": 52
    },
    {
      "midi": 43,
      "hit": false,
      "t": 8076.915000000001,
      "d": 164.83499999999913,
      "v": 38
    },
    {
      "midi": 31,
      "hit": false,
      "t": 8241.75,
      "d": 164.83499999999913,
      "v": 52
    },
    {
      "midi": 43,
      "hit": false,
      "t": 8241.75,
      "d": 164.83499999999913,
      "v": 40
    },
    {
      "midi": 31,
      "hit": false,
      "t": 8406.585,
      "d": 164.83499999999913,
      "v": 52
    },
    {
      "midi": 43,
      "hit": false,
      "t": 8406.585,
      "d": 164.83499999999913,
      "v": 40
    },
    {
      "midi": 31,
      "hit": false,
      "t": 8571.419999999998,
      "d": 164.83499999999913,
      "v": 56
    },
    {
      "midi": 43,
      "hit": false,
      "t": 8571.419999999998,
      "d": 164.83499999999913,
      "v": 40
    },
    {
      "midi": 67,
      "hit": false,
      "t": 8571.42,
      "d": 659.3400000000001,
      "v": 78
    },
    {
      "midi": 70,
      "hit": false,
      "t": 8571.42,
      "d": 659.3400000000001,
      "v": 78
    },
    {
      "midi": 73,
      "hit": false,
      "t": 8571.42,
      "d": 659.3400000000001,
      "v": 78
    },
    {
      "midi": 76,
      "hit": false,
      "t": 8571.42,
      "d": 659.3400000000001,
      "v": 78
    },
    {
      "midi": 31,
      "hit": false,
      "t": 8736.254999999997,
      "d": 164.83499999999913,
      "v": 57
    },
    {
      "midi": 43,
      "hit": false,
      "t": 8736.254999999997,
      "d": 164.83499999999913,
      "v": 40
    },
    {
      "midi": 31,
      "hit": false,
      "t": 8901.089999999997,
      "d": 164.83499999999913,
      "v": 57
    },
    {
      "midi": 43,
      "hit": false,
      "t": 8901.089999999997,
      "d": 164.83499999999913,
      "v": 43
    },
    {
      "midi": 31,
      "hit": false,
      "t": 9065.924999999996,
      "d": 164.83499999999913,
      "v": 57
    },
    {
      "midi": 43,
      "hit": false,
      "t": 9065.924999999996,
      "d": 164.83499999999913,
      "v": 44
    },
    {
      "midi": 31,
      "hit": false,
      "t": 9230.759999999995,
      "d": 1318.6800000000003,
      "v": 43
    },
    {
      "midi": 67,
      "hit": false,
      "t": 9230.76,
      "d": 659.3400000000001,
      "v": 84
    },
    {
      "midi": 71,
      "hit": false,
      "t": 9230.76,
      "d": 659.3400000000001,
      "v": 84
    },
    {
      "midi": 74,
      "hit": false,
      "t": 9230.76,
      "d": 659.3400000000001,
      "v": 84
    },
    {
      "midi": 77,
      "hit": false,
      "t": 9230.76,
      "d": 659.3400000000001,
      "v": 84
    },
    {
      "midi": 91,
      "hit": false,
      "t": 9890.1,
      "d": 164.83499999999913,
      "v": 79
    },
    {
      "midi": 79,
      "hit": false,
      "t": 10054.935,
      "d": 164.83499999999913,
      "v": 70
    },
    {
      "midi": 91,
      "hit": false,
      "t": 10219.769999999999,
      "d": 164.83499999999913,
      "v": 72
    },
    {
      "midi": 79,
      "hit": false,
      "t": 10384.604999999998,
      "d": 164.83499999999913,
      "v": 60
    },
    {
      "midi": 91,
      "hit": false,
      "t": 10549.439999999997,
      "d": 1318.6800000000003,
      "v": 74
    },
    {
      "midi": 74,
      "hit": false,
      "t": 11208.779999999995,
      "d": 494.5049999999992,
      "v": 77
    },
    {
      "midi": 77,
      "hit": false,
      "t": 11208.779999999995,
      "d": 494.5049999999992,
      "v": 77
    },
    {
      "midi": 72,
      "hit": false,
      "t": 11703.284999999994,
      "d": 164.83499999999913,
      "v": 69
    },
    {
      "midi": 76,
      "hit": false,
      "t": 11703.284999999994,
      "d": 164.83499999999913,
      "v": 69
    },
    {
      "midi": 67,
      "hit": false,
      "t": 11868.119999999994,
      "d": 1318.6800000000003,
      "v": 65
    },
    {
      "midi": 74,
      "hit": false,
      "t": 11868.119999999994,
      "d": 1318.6800000000003,
      "v": 65
    },
    {
      "midi": 91,
      "hit": false,
      "t": 12527.459999999997,
      "d": 164.83499999999913,
      "v": 63
    },
    {
      "midi": 79,
      "hit": false,
      "t": 12692.294999999996,
      "d": 164.83499999999913,
      "v": 51
    },
    {
      "midi": 91,
      "hit": false,
      "t": 12857.129999999996,
      "d": 164.83499999999913,
      "v": 56
    },
    {
      "midi": 79,
      "hit": false,
      "t": 13021.964999999995,
      "d": 164.83499999999913,
      "v": 46
    },
    {
      "midi": 91,
      "hit": false,
      "t": 13186.799999999994,
      "d": 1318.6800000000003,
      "v": 63
    },
    {
      "midi": 74,
      "hit": false,
      "t": 13846.139999999994,
      "d": 494.5049999999992,
      "v": 59
    },
    {
      "midi": 77,
      "hit": false,
      "t": 13846.139999999994,
      "d": 494.5049999999992,
      "v": 59
    },
    {
      "midi": 72,
      "hit": false,
      "t": 14340.644999999993,
      "d": 164.83499999999913,
      "v": 55
    },
    {
      "midi": 76,
      "hit": false,
      "t": 14340.644999999993,
      "d": 164.83499999999913,
      "v": 55
    },
    {
      "midi": 67,
      "hit": false,
      "t": 14505.479999999992,
      "d": 659.3400000000001,
      "v": 52
    },
    {
      "midi": 74,
      "hit": false,
      "t": 14505.479999999992,
      "d": 659.3400000000001,
      "v": 52
    },
    {
      "midi": 91,
      "hit": false,
      "t": 14505.479999999994,
      "d": 164.83499999999913,
      "v": 51
    },
    {
      "midi": 79,
      "hit": false,
      "t": 14670.314999999993,
      "d": 164.83499999999913,
      "v": 41
    },
    {
      "midi": 91,
      "hit": false,
      "t": 14835.149999999992,
      "d": 164.83499999999913,
      "v": 52
    },
    {
      "midi": 79,
      "hit": false,
      "t": 14999.984999999991,
      "d": 164.83499999999913,
      "v": 41
    },
    {
      "midi": 91,
      "hit": false,
      "t": 15164.81999999999,
      "d": 164.83499999999913,
      "v": 46
    },
    {
      "midi": 72,
      "hit": false,
      "t": 15164.819999999992,
      "d": 659.3400000000001,
      "v": 60
    },
    {
      "midi": 76,
      "hit": false,
      "t": 15164.819999999992,
      "d": 659.3400000000001,
      "v": 60
    },
    {
      "midi": 79,
      "hit": false,
      "t": 15329.65499999999,
      "d": 164.83499999999913,
      "v": 41
    },
    {
      "midi": 91,
      "hit": false,
      "t": 15494.489999999989,
      "d": 164.83499999999913,
      "v": 46
    },
    {
      "midi": 79,
      "hit": false,
      "t": 15659.324999999988,
      "d": 164.83499999999913,
      "v": 41
    },
    {
      "midi": 91,
      "hit": false,
      "t": 15824.159999999987,
      "d": 164.83499999999913,
      "v": 51
    },
    {
      "midi": 67,
      "hit": false,
      "t": 15824.159999999993,
      "d": 659.3400000000001,
      "v": 65
    },
    {
      "midi": 74,
      "hit": false,
      "t": 15824.159999999993,
      "d": 659.3400000000001,
      "v": 65
    },
    {
      "midi": 79,
      "hit": false,
      "t": 15988.994999999986,
      "d": 164.83499999999913,
      "v": 46
    },
    {
      "midi": 91,
      "hit": false,
      "t": 16153.829999999985,
      "d": 164.83499999999913,
      "v": 56
    },
    {
      "midi": 79,
      "hit": false,
      "t": 16318.664999999985,
      "d": 164.83500000000095,
      "v": 50
    },
    {
      "midi": 91,
      "hit": false,
      "t": 16483.499999999985,
      "d": 164.83499999999913,
      "v": 61
    },
    {
      "midi": 72,
      "hit": false,
      "t": 16483.499999999993,
      "d": 659.3400000000001,
      "v": 64
    },
    {
      "midi": 76,
      "hit": false,
      "t": 16483.499999999993,
      "d": 659.3400000000001,
      "v": 64
    },
    {
      "midi": 79,
      "hit": false,
      "t": 16648.334999999985,
      "d": 164.83499999999913,
      "v": 54
    },
    {
      "midi": 91,
      "hit": false,
      "t": 16813.169999999984,
      "d": 164.83499999999913,
      "v": 63
    },
    {
      "midi": 79,
      "hit": false,
      "t": 16978.004999999983,
      "d": 164.83499999999913,
      "v": 56
    },
    {
      "midi": 79,
      "hit": false,
      "t": 17142.839999999982,
      "d": 1318.6800000000003,
      "v": 63
    },
    {
      "midi": 91,
      "hit": false,
      "t": 17142.839999999982,
      "d": 1318.6800000000003,
      "v": 63
    },
    {
      "midi": 67,
      "hit": false,
      "t": 17142.839999999993,
      "d": 659.3400000000001,
      "v": 72
    },
    {
      "midi": 74,
      "hit": false,
      "t": 17142.839999999993,
      "d": 659.3400000000001,
      "v": 72
    },
    {
      "midi": 45,
      "hit": false,
      "t": 17802.179999999993,
      "d": 659.3400000000001,
      "v": 77
    },
    {
      "midi": 57,
      "hit": false,
      "t": 17802.179999999993,
      "d": 659.3400000000001,
      "v": 77
    },
    {
      "midi": 43,
      "hit": false,
      "t": 18461.519999999993,
      "d": 659.3400000000001,
      "v": 86
    },
    {
      "midi": 55,
      "hit": false,
      "t": 18461.519999999993,
      "d": 659.3400000000001,
      "v": 86
    },
    {
      "midi": 42,
      "hit": false,
      "t": 19120.859999999993,
      "d": 659.3400000000001,
      "v": 76
    },
    {
      "midi": 54,
      "hit": false,
      "t": 19120.859999999993,
      "d": 659.3400000000001,
      "v": 76
    },
    {
      "midi": 43,
      "hit": false,
      "t": 19780.199999999993,
      "d": 659.3400000000001,
      "v": 77
    },
    {
      "midi": 55,
      "hit": false,
      "t": 19780.199999999993,
      "d": 659.3400000000001,
      "v": 77
    },
    {
      "midi": 41,
      "hit": false,
      "t": 20439.539999999994,
      "d": 659.3400000000001,
      "v": 79
    },
    {
      "midi": 53,
      "hit": false,
      "t": 20439.539999999994,
      "d": 659.3400000000001,
      "v": 79
    },
    {
      "midi": 40,
      "hit": false,
      "t": 21098.879999999994,
      "d": 659.3400000000001,
      "v": 82
    },
    {
      "midi": 52,
      "hit": false,
      "t": 21098.879999999994,
      "d": 659.3400000000001,
      "v": 82
    },
    {
      "midi": 38,
      "hit": false,
      "t": 21758.219999999994,
      "d": 659.3400000000001,
      "v": 85
    },
    {
      "midi": 50,
      "hit": false,
      "t": 21758.219999999994,
      "d": 659.3400000000001,
      "v": 85
    },
    {
      "midi": 60,
      "hit": false,
      "t": 22417.559999999983,
      "d": 1318.6800000000003,
      "v": 87
    },
    {
      "midi": 64,
      "hit": false,
      "t": 22417.559999999983,
      "d": 1318.6800000000003,
      "v": 87
    },
    {
      "midi": 67,
      "hit": false,
      "t": 22417.559999999983,
      "d": 1318.6800000000003,
      "v": 87
    },
    {
      "midi": 72,
      "hit": false,
      "t": 22417.559999999983,
      "d": 1318.6800000000003,
      "v": 87
    },
    {
      "midi": 36,
      "hit": false,
      "t": 22417.559999999994,
      "d": 1318.6800000000003,
      "v": 79
    },
    {
      "midi": 48,
      "hit": false,
      "t": 22417.559999999994,
      "d": 1318.6800000000003,
      "v": 79
    },
    {
      "midi": 62,
      "hit": false,
      "t": 23736.239999999983,
      "d": 1318.6800000000003,
      "v": 87
    },
    {
      "midi": 67,
      "hit": false,
      "t": 23736.239999999983,
      "d": 1318.6800000000003,
      "v": 87
    },
    {
      "midi": 71,
      "hit": false,
      "t": 23736.239999999983,
      "d": 1318.6800000000003,
      "v": 87
    },
    {
      "midi": 43,
      "hit": false,
      "t": 23736.239999999994,
      "d": 1318.6800000000003,
      "v": 79
    },
    {
      "midi": 55,
      "hit": false,
      "t": 23736.239999999994,
      "d": 1318.6800000000003,
      "v": 79
    },
    {
      "midi": 62,
      "hit": false,
      "t": 25054.919999999984,
      "d": 1318.6800000000003,
      "v": 83
    },
    {
      "midi": 66,
      "hit": false,
      "t": 25054.919999999984,
      "d": 1318.6800000000003,
      "v": 83
    },
    {
      "midi": 69,
      "hit": false,
      "t": 25054.919999999984,
      "d": 1318.6800000000003,
      "v": 83
    },
    {
      "midi": 38,
      "hit": false,
      "t": 25054.919999999995,
      "d": 1318.6800000000003,
      "v": 74
    },
    {
      "midi": 50,
      "hit": false,
      "t": 25054.919999999995,
      "d": 1318.6800000000003,
      "v": 74
    },
    {
      "midi": 62,
      "hit": false,
      "t": 26373.599999999984,
      "d": 1318.6800000000003,
      "v": 87
    },
    {
      "midi": 67,
      "hit": false,
      "t": 26373.599999999984,
      "d": 1318.6800000000003,
      "v": 87
    },
    {
      "midi": 71,
      "hit": false,
      "t": 26373.599999999984,
      "d": 1318.6800000000003,
      "v": 87
    },
    {
      "midi": 43,
      "hit": false,
      "t": 26373.599999999995,
      "d": 1318.6800000000003,
      "v": 79
    },
    {
      "midi": 55,
      "hit": false,
      "t": 26373.599999999995,
      "d": 1318.6800000000003,
      "v": 79
    },
    {
      "midi": 60,
      "hit": false,
      "t": 27692.279999999984,
      "d": 1318.6800000000003,
      "v": 87
    },
    {
      "midi": 67,
      "hit": false,
      "t": 27692.279999999984,
      "d": 1318.6800000000003,
      "v": 87
    },
    {
      "midi": 40,
      "hit": false,
      "t": 27692.279999999995,
      "d": 1318.6800000000003,
      "v": 79
    },
    {
      "midi": 52,
      "hit": false,
      "t": 27692.279999999995,
      "d": 1318.6800000000003,
      "v": 79
    },
    {
      "midi": 60,
      "hit": false,
      "t": 29010.959999999985,
      "d": 1318.6800000000003,
      "v": 87
    },
    {
      "midi": 65,
      "hit": false,
      "t": 29010.959999999985,
      "d": 1318.6800000000003,
      "v": 87
    },
    {
      "midi": 69,
      "hit": false,
      "t": 29010.959999999985,
      "d": 1318.6800000000003,
      "v": 87
    },
    {
      "midi": 41,
      "hit": false,
      "t": 29010.959999999995,
      "d": 659.3400000000001,
      "v": 79
    },
    {
      "midi": 53,
      "hit": false,
      "t": 29010.959999999995,
      "d": 659.3400000000001,
      "v": 79
    },
    {
      "midi": 40,
      "hit": false,
      "t": 29670.299999999996,
      "d": 659.3400000000001,
      "v": 74
    },
    {
      "midi": 52,
      "hit": false,
      "t": 29670.299999999996,
      "d": 659.3400000000001,
      "v": 74
    },
    {
      "midi": 62,
      "hit": false,
      "t": 30329.639999999985,
      "d": 1318.6800000000003,
      "v": 84
    },
    {
      "midi": 65,
      "hit": false,
      "t": 30329.639999999985,
      "d": 1318.6800000000003,
      "v": 84
    },
    {
      "midi": 71,
      "hit": false,
      "t": 30329.639999999985,
      "d": 1318.6800000000003,
      "v": 84
    },
    {
      "midi": 38,
      "hit": false,
      "t": 30329.639999999996,
      "d": 1318.6800000000003,
      "v": 74
    },
    {
      "midi": 50,
      "hit": false,
      "t": 30329.639999999996,
      "d": 1318.6800000000003,
      "v": 74
    },
    {
      "midi": 60,
      "hit": false,
      "t": 31648.319999999985,
      "d": 659.3400000000001,
      "v": 87
    },
    {
      "midi": 64,
      "hit": false,
      "t": 31648.319999999985,
      "d": 659.3400000000001,
      "v": 87
    },
    {
      "midi": 67,
      "hit": false,
      "t": 31648.319999999985,
      "d": 659.3400000000001,
      "v": 87
    },
    {
      "midi": 72,
      "hit": false,
      "t": 31648.319999999985,
      "d": 659.3400000000001,
      "v": 87
    },
    {
      "midi": 36,
      "hit": false,
      "t": 31648.319999999996,
      "d": 659.3400000000001,
      "v": 79
    },
    {
      "midi": 48,
      "hit": false,
      "t": 31648.319999999996,
      "d": 659.3400000000001,
      "v": 79
    },
    {
      "midi": 76,
      "hit": false,
      "t": 32966.999999999985,
      "d": 1318.6800000000003,
      "v": 44
    },
    {
      "midi": 79,
      "hit": false,
      "t": 32966.999999999985,
      "d": 1318.6800000000003,
      "v": 44
    },
    {
      "midi": 84,
      "hit": false,
      "t": 32966.999999999985,
      "d": 1318.6800000000003,
      "v": 44
    },
    {
      "midi": 60,
      "hit": false,
      "t": 32966.99999999999,
      "d": 1318.6800000000003,
      "v": 39
    },
    {
      "midi": 67,
      "hit": false,
      "t": 32966.99999999999,
      "d": 1318.6800000000003,
      "v": 39
    },
    {
      "midi": 76,
      "hit": false,
      "t": 34285.679999999986,
      "d": 1318.6800000000003,
      "v": 36
    },
    {
      "midi": 81,
      "hit": false,
      "t": 34285.679999999986,
      "d": 1318.6800000000003,
      "v": 36
    },
    {
      "midi": 84,
      "hit": false,
      "t": 34285.679999999986,
      "d": 1318.6800000000003,
      "v": 36
    },
    {
      "midi": 57,
      "hit": false,
      "t": 34285.67999999999,
      "d": 1318.6800000000003,
      "v": 32
    },
    {
      "midi": 69,
      "hit": false,
      "t": 34285.67999999999,
      "d": 1318.6800000000003,
      "v": 32
    },
    {
      "midi": 74,
      "hit": false,
      "t": 35604.359999999986,
      "d": 1318.6800000000003,
      "v": 47
    },
    {
      "midi": 79,
      "hit": false,
      "t": 35604.359999999986,
      "d": 1318.6800000000003,
      "v": 47
    },
    {
      "midi": 59,
      "hit": false,
      "t": 35604.35999999999,
      "d": 1318.6800000000003,
      "v": 41
    },
    {
      "midi": 67,
      "hit": false,
      "t": 35604.35999999999,
      "d": 1318.6800000000003,
      "v": 41
    },
    {
      "midi": 76,
      "hit": false,
      "t": 36923.039999999986,
      "d": 1318.6800000000003,
      "v": 54
    },
    {
      "midi": 79,
      "hit": false,
      "t": 36923.039999999986,
      "d": 1318.6800000000003,
      "v": 54
    },
    {
      "midi": 60,
      "hit": false,
      "t": 36923.03999999999,
      "d": 1318.6800000000003,
      "v": 48
    },
    {
      "midi": 67,
      "hit": false,
      "t": 36923.03999999999,
      "d": 1318.6800000000003,
      "v": 48
    },
    {
      "midi": 76,
      "hit": false,
      "t": 38241.71999999999,
      "d": 659.3399999999965,
      "v": 45
    },
    {
      "midi": 67,
      "hit": false,
      "t": 38241.719999999994,
      "d": 659.3399999999965,
      "v": 49
    },
    {
      "midi": 77,
      "hit": false,
      "t": 38901.05999999998,
      "d": 659.3399999999965,
      "v": 40
    },
    {
      "midi": 62,
      "hit": false,
      "t": 38901.05999999999,
      "d": 659.3399999999965,
      "v": 52
    },
    {
      "midi": 72,
      "hit": false,
      "t": 39560.39999999998,
      "d": 1318.6800000000003,
      "v": 49
    },
    {
      "midi": 79,
      "hit": false,
      "t": 39560.39999999998,
      "d": 1318.6800000000003,
      "v": 49
    },
    {
      "midi": 64,
      "hit": false,
      "t": 39560.39999999999,
      "d": 1318.6800000000003,
      "v": 45
    },
    {
      "midi": 67,
      "hit": false,
      "t": 39560.39999999999,
      "d": 1318.6800000000003,
      "v": 45
    },
    {
      "midi": 72,
      "hit": false,
      "t": 40879.07999999998,
      "d": 1318.6800000000003,
      "v": 47
    },
    {
      "midi": 77,
      "hit": false,
      "t": 40879.07999999998,
      "d": 1318.6800000000003,
      "v": 47
    },
    {
      "midi": 62,
      "hit": false,
      "t": 40879.07999999999,
      "d": 1318.6800000000003,
      "v": 43
    },
    {
      "midi": 69,
      "hit": false,
      "t": 40879.07999999999,
      "d": 1318.6800000000003,
      "v": 43
    },
    {
      "midi": 71,
      "hit": false,
      "t": 42197.75999999998,
      "d": 659.3399999999965,
      "v": 49
    },
    {
      "midi": 76,
      "hit": false,
      "t": 42197.75999999998,
      "d": 659.3399999999965,
      "v": 49
    },
    {
      "midi": 64,
      "hit": false,
      "t": 42197.75999999999,
      "d": 659.3399999999965,
      "v": 37
    },
    {
      "midi": 68,
      "hit": false,
      "t": 42197.75999999999,
      "d": 659.3399999999965,
      "v": 37
    },
    {
      "midi": 72,
      "hit": false,
      "t": 43516.43999999997,
      "d": 1318.6800000000003,
      "v": 59
    },
    {
      "midi": 76,
      "hit": false,
      "t": 43516.43999999997,
      "d": 1318.6800000000003,
      "v": 59
    },
    {
      "midi": 57,
      "hit": false,
      "t": 43516.43999999998,
      "d": 659.3399999999965,
      "v": 54
    },
    {
      "midi": 69,
      "hit": false,
      "t": 43516.43999999998,
      "d": 659.3399999999965,
      "v": 54
    },
    {
      "midi": 55,
      "hit": false,
      "t": 44175.77999999998,
      "d": 659.3399999999965,
      "v": 52
    },
    {
      "midi": 67,
      "hit": false,
      "t": 44175.77999999998,
      "d": 659.3399999999965,
      "v": 52
    },
    {
      "midi": 72,
      "hit": false,
      "t": 44835.11999999997,
      "d": 1318.6800000000003,
      "v": 56
    },
    {
      "midi": 77,
      "hit": false,
      "t": 44835.11999999997,
      "d": 1318.6800000000003,
      "v": 56
    },
    {
      "midi": 81,
      "hit": false,
      "t": 44835.11999999997,
      "d": 1318.6800000000003,
      "v": 56
    },
    {
      "midi": 53,
      "hit": false,
      "t": 44835.11999999997,
      "d": 1318.6800000000003,
      "v": 61
    },
    {
      "midi": 65,
      "hit": false,
      "t": 44835.11999999997,
      "d": 1318.6800000000003,
      "v": 61
    },
    {
      "midi": 72,
      "hit": false,
      "t": 46153.799999999974,
      "d": 1318.6800000000003,
      "v": 66
    },
    {
      "midi": 74,
      "hit": false,
      "t": 46153.799999999974,
      "d": 1318.6800000000003,
      "v": 66
    },
    {
      "midi": 81,
      "hit": false,
      "t": 46153.799999999974,
      "d": 1318.6800000000003,
      "v": 66
    },
    {
      "midi": 54,
      "hit": false,
      "t": 46153.799999999974,
      "d": 1318.6800000000003,
      "v": 64
    },
    {
      "midi": 66,
      "hit": false,
      "t": 46153.799999999974,
      "d": 1318.6800000000003,
      "v": 64
    },
    {
      "midi": 71,
      "hit": false,
      "t": 47472.479999999974,
      "d": 1318.6800000000003,
      "v": 70
    },
    {
      "midi": 74,
      "hit": false,
      "t": 47472.479999999974,
      "d": 1318.6800000000003,
      "v": 70
    },
    {
      "midi": 79,
      "hit": false,
      "t": 47472.479999999974,
      "d": 1318.6800000000003,
      "v": 70
    },
    {
      "midi": 55,
      "hit": false,
      "t": 47472.479999999974,
      "d": 1318.6800000000003,
      "v": 64
    },
    {
      "midi": 67,
      "hit": false,
      "t": 47472.479999999974,
      "d": 1318.6800000000003,
      "v": 64
    },
    {
      "midi": 74,
      "hit": false,
      "t": 48791.159999999974,
      "d": 1318.6800000000003,
      "v": 71
    },
    {
      "midi": 76,
      "hit": false,
      "t": 48791.159999999974,
      "d": 1318.6800000000003,
      "v": 71
    },
    {
      "midi": 83,
      "hit": false,
      "t": 48791.159999999974,
      "d": 1318.6800000000003,
      "v": 71
    },
    {
      "midi": 56,
      "hit": false,
      "t": 48791.159999999974,
      "d": 1318.6800000000003,
      "v": 70
    },
    {
      "midi": 68,
      "hit": false,
      "t": 48791.159999999974,
      "d": 1318.6800000000003,
      "v": 70
    },
    {
      "midi": 72,
      "hit": false,
      "t": 50109.839999999975,
      "d": 1318.6800000000003,
      "v": 71
    },
    {
      "midi": 76,
      "hit": false,
      "t": 50109.839999999975,
      "d": 1318.6800000000003,
      "v": 71
    },
    {
      "midi": 81,
      "hit": false,
      "t": 50109.839999999975,
      "d": 1318.6800000000003,
      "v": 71
    },
    {
      "midi": 84,
      "hit": false,
      "t": 50109.839999999975,
      "d": 1318.6800000000003,
      "v": 71
    },
    {
      "midi": 57,
      "hit": false,
      "t": 50109.839999999975,
      "d": 1318.6800000000003,
      "v": 65
    },
    {
      "midi": 69,
      "hit": false,
      "t": 50109.839999999975,
      "d": 1318.6800000000003,
      "v": 65
    },
    {
      "midi": 78,
      "hit": false,
      "t": 51428.519999999975,
      "d": 1318.6800000000003,
      "v": 70
    },
    {
      "midi": 81,
      "hit": false,
      "t": 51428.519999999975,
      "d": 1318.6800000000003,
      "v": 70
    },
    {
      "midi": 74,
      "hit": false,
      "t": 51428.519999999975,
      "d": 659.3399999999965,
      "v": 59
    },
    {
      "midi": 72,
      "hit": false,
      "t": 52087.85999999997,
      "d": 659.3399999999965,
      "v": 56
    },
    {
      "midi": 67,
      "hit": false,
      "t": 52747.19999999997,
      "d": 659.3399999999965,
      "v": 56
    },
    {
      "midi": 71,
      "hit": false,
      "t": 52747.19999999997,
      "d": 659.3399999999965,
      "v": 56
    },
    {
      "midi": 74,
      "hit": false,
      "t": 52747.199999999975,
      "d": 659.3399999999965,
      "v": 74
    },
    {
      "midi": 79,
      "hit": false,
      "t": 52747.199999999975,
      "d": 659.3399999999965,
      "v": 74
    },
    {
      "midi": 45,
      "hit": false,
      "t": 54065.87999999996,
      "d": 1318.6800000000003,
      "v": 72
    },
    {
      "midi": 52,
      "hit": false,
      "t": 54065.87999999996,
      "d": 1318.6800000000003,
      "v": 68
    },
    {
      "midi": 57,
      "hit": false,
      "t": 54065.87999999996,
      "d": 1318.6800000000003,
      "v": 68
    },
    {
      "midi": 60,
      "hit": false,
      "t": 54230.714999999975,
      "d": 989.010000000002,
      "v": 68
    },
    {
      "midi": 64,
      "hit": false,
      "t": 54230.714999999975,
      "d": 989.010000000002,
      "v": 68
    },
    {
      "midi": 69,
      "hit": false,
      "t": 54230.714999999975,
      "d": 989.010000000002,
      "v": 73
    },
    {
      "midi": 72,
      "hit": false,
      "t": 54230.714999999975,
      "d": 989.010000000002,
      "v": 63
    },
    {
      "midi": 40,
      "hit": false,
      "t": 55384.55999999996,
      "d": 1318.6800000000003,
      "v": 74
    },
    {
      "midi": 52,
      "hit": false,
      "t": 55384.55999999996,
      "d": 1318.6800000000003,
      "v": 74
    },
    {
      "midi": 59,
      "hit": false,
      "t": 55384.559999999976,
      "d": 1318.6800000000003,
      "v": 74
    },
    {
      "midi": 64,
      "hit": false,
      "t": 55384.559999999976,
      "d": 1318.6800000000003,
      "v": 74
    },
    {
      "midi": 67,
      "hit": false,
      "t": 55384.559999999976,
      "d": 1318.6800000000003,
      "v": 74
    },
    {
      "midi": 71,
      "hit": false,
      "t": 55384.559999999976,
      "d": 1318.6800000000003,
      "v": 74
    },
    {
      "midi": 41,
      "hit": false,
      "t": 56703.23999999996,
      "d": 1318.6800000000003,
      "v": 69
    },
    {
      "midi": 48,
      "hit": false,
      "t": 56703.23999999996,
      "d": 1318.6800000000003,
      "v": 64
    },
    {
      "midi": 53,
      "hit": false,
      "t": 56703.23999999996,
      "d": 1318.6800000000003,
      "v": 73
    },
    {
      "midi": 57,
      "hit": false,
      "t": 56868.074999999975,
      "d": 989.010000000002,
      "v": 74
    },
    {
      "midi": 60,
      "hit": false,
      "t": 56868.074999999975,
      "d": 989.010000000002,
      "v": 65
    },
    {
      "midi": 65,
      "hit": false,
      "t": 56868.074999999975,
      "d": 989.010000000002,
      "v": 72
    },
    {
      "midi": 69,
      "hit": false,
      "t": 56868.074999999975,
      "d": 989.010000000002,
      "v": 63
    },
    {
      "midi": 36,
      "hit": false,
      "t": 58021.91999999996,
      "d": 1318.6800000000003,
      "v": 70
    },
    {
      "midi": 48,
      "hit": false,
      "t": 58021.91999999996,
      "d": 1318.6800000000003,
      "v": 70
    },
    {
      "midi": 55,
      "hit": false,
      "t": 58021.91999999998,
      "d": 1318.6800000000003,
      "v": 77
    },
    {
      "midi": 60,
      "hit": false,
      "t": 58021.91999999998,
      "d": 1318.6800000000003,
      "v": 77
    },
    {
      "midi": 64,
      "hit": false,
      "t": 58021.91999999998,
      "d": 1318.6800000000003,
      "v": 77
    },
    {
      "midi": 67,
      "hit": false,
      "t": 58021.91999999998,
      "d": 1318.6800000000003,
      "v": 77
    },
    {
      "midi": 37,
      "hit": false,
      "t": 59340.59999999996,
      "d": 1318.6800000000003,
      "v": 66
    },
    {
      "midi": 49,
      "hit": false,
      "t": 59340.59999999996,
      "d": 1318.6800000000003,
      "v": 66
    },
    {
      "midi": 57,
      "hit": false,
      "t": 59340.59999999998,
      "d": 1318.6800000000003,
      "v": 74
    },
    {
      "midi": 64,
      "hit": false,
      "t": 59340.59999999998,
      "d": 1318.6800000000003,
      "v": 74
    },
    {
      "midi": 69,
      "hit": false,
      "t": 59340.59999999998,
      "d": 1318.6800000000003,
      "v": 74
    },
    {
      "midi": 38,
      "hit": false,
      "t": 60659.27999999996,
      "d": 1318.6800000000003,
      "v": 70
    },
    {
      "midi": 50,
      "hit": false,
      "t": 60659.27999999996,
      "d": 1318.6800000000003,
      "v": 70
    },
    {
      "midi": 65,
      "hit": false,
      "t": 60659.27999999998,
      "d": 659.3399999999965,
      "v": 77
    },
    {
      "midi": 64,
      "hit": false,
      "t": 61318.61999999997,
      "d": 659.3399999999965,
      "v": 66
    },
    {
      "midi": 55,
      "hit": false,
      "t": 61977.95999999996,
      "d": 659.3399999999965,
      "v": 70
    },
    {
      "midi": 59,
      "hit": false,
      "t": 61977.95999999997,
      "d": 1318.6800000000003,
      "v": 78
    },
    {
      "midi": 62,
      "hit": false,
      "t": 61977.95999999997,
      "d": 1318.6800000000003,
      "v": 78
    },
    {
      "midi": 53,
      "hit": false,
      "t": 62637.29999999996,
      "d": 659.3399999999965,
      "v": 70
    },
    {
      "midi": 36,
      "hit": false,
      "t": 63296.639999999956,
      "d": 164.83499999999913,
      "v": 75
    },
    {
      "midi": 43,
      "hit": false,
      "t": 63296.639999999956,
      "d": 164.83499999999913,
      "v": 51
    },
    {
      "midi": 52,
      "hit": false,
      "t": 63296.639999999956,
      "d": 164.83499999999913,
      "v": 75
    },
    {
      "midi": 55,
      "hit": false,
      "t": 63296.639999999956,
      "d": 164.83499999999913,
      "v": 75
    },
    {
      "midi": 60,
      "hit": false,
      "t": 63296.63999999997,
      "d": 329.66999999999825,
      "v": 83
    },
    {
      "midi": 55,
      "hit": false,
      "t": 63461.474999999955,
      "d": 164.83499999999913,
      "v": 51
    },
    {
      "midi": 60,
      "hit": false,
      "t": 63626.309999999954,
      "d": 329.66999999999825,
      "v": 51
    },
    {
      "midi": 64,
      "hit": false,
      "t": 63626.30999999997,
      "d": 164.83499999999913,
      "v": 57
    },
    {
      "midi": 67,
      "hit": false,
      "t": 63626.30999999997,
      "d": 164.83499999999913,
      "v": 52
    },
    {
      "midi": 72,
      "hit": false,
      "t": 63791.14499999997,
      "d": 164.83499999999913,
      "v": 52
    },
    {
      "midi": 76,
      "hit": false,
      "t": 63791.14499999997,
      "d": 164.83499999999913,
      "v": 57
    },
    {
      "midi": 48,
      "hit": false,
      "t": 63955.97999999995,
      "d": 164.83499999999913,
      "v": 57
    },
    {
      "midi": 55,
      "hit": false,
      "t": 63955.97999999995,
      "d": 164.83499999999913,
      "v": 51
    },
    {
      "midi": 67,
      "hit": false,
      "t": 63955.97999999997,
      "d": 329.66999999999825,
      "v": 52
    },
    {
      "midi": 60,
      "hit": false,
      "t": 64120.81499999995,
      "d": 164.83499999999913,
      "v": 53
    },
    {
      "midi": 64,
      "hit": false,
      "t": 64120.81499999995,
      "d": 164.83499999999913,
      "v": 60
    },
    {
      "midi": 67,
      "hit": false,
      "t": 64120.81499999995,
      "d": 164.83499999999913,
      "v": 56
    },
    {
      "midi": 72,
      "hit": false,
      "t": 64285.64999999995,
      "d": 329.66999999999825,
      "v": 57
    },
    {
      "midi": 76,
      "hit": false,
      "t": 64285.649999999965,
      "d": 164.83499999999913,
      "v": 64
    },
    {
      "midi": 79,
      "hit": false,
      "t": 64285.649999999965,
      "d": 164.83499999999913,
      "v": 61
    },
    {
      "midi": 84,
      "hit": false,
      "t": 64450.484999999964,
      "d": 164.83499999999913,
      "v": 62
    },
    {
      "midi": 88,
      "hit": false,
      "t": 64450.484999999964,
      "d": 164.83499999999913,
      "v": 69
    },
    {
      "midi": 60,
      "hit": false,
      "t": 64615.31999999995,
      "d": 164.83499999999913,
      "v": 69
    },
    {
      "midi": 67,
      "hit": false,
      "t": 64615.31999999995,
      "d": 164.83499999999913,
      "v": 63
    },
    {
      "midi": 79,
      "hit": false,
      "t": 64615.31999999996,
      "d": 329.66999999999825,
      "v": 66
    },
    {
      "midi": 72,
      "hit": false,
      "t": 64780.15499999995,
      "d": 164.83499999999913,
      "v": 63
    },
    {
      "midi": 76,
      "hit": false,
      "t": 64780.15499999995,
      "d": 164.83499999999913,
      "v": 69
    },
    {
      "midi": 79,
      "hit": false,
      "t": 64780.15499999995,
      "d": 164.83499999999913,
      "v": 63
    },
    {
      "midi": 84,
      "hit": false,
      "t": 64944.98999999995,
      "d": 329.66999999999825,
      "v": 63
    },
    {
      "midi": 88,
      "hit": false,
      "t": 64944.98999999996,
      "d": 164.83499999999913,
      "v": 69
    },
    {
      "midi": 91,
      "hit": false,
      "t": 64944.98999999996,
      "d": 164.83499999999913,
      "v": 64
    },
    {
      "midi": 96,
      "hit": false,
      "t": 65109.82499999996,
      "d": 164.83499999999913,
      "v": 64
    },
    {
      "midi": 100,
      "hit": false,
      "t": 65109.82499999996,
      "d": 164.83499999999913,
      "v": 69
    },
    {
      "midi": 60,
      "hit": false,
      "t": 65274.659999999945,
      "d": 164.83499999999913,
      "v": 69
    },
    {
      "midi": 67,
      "hit": false,
      "t": 65274.659999999945,
      "d": 164.83499999999913,
      "v": 62
    },
    {
      "midi": 91,
      "hit": false,
      "t": 65274.65999999996,
      "d": 329.66999999999825,
      "v": 64
    },
    {
      "midi": 72,
      "hit": false,
      "t": 65439.494999999944,
      "d": 164.83499999999913,
      "v": 60
    },
    {
      "midi": 76,
      "hit": false,
      "t": 65439.494999999944,
      "d": 164.83499999999913,
      "v": 66
    },
    {
      "midi": 79,
      "hit": false,
      "t": 65439.494999999944,
      "d": 164.83499999999913,
      "v": 59
    },
    {
      "midi": 84,
      "hit": false,
      "t": 65604.32999999994,
      "d": 329.66999999999825,
      "v": 58
    },
    {
      "midi": 88,
      "hit": false,
      "t": 65604.32999999996,
      "d": 164.8350000000064,
      "v": 64
    },
    {
      "midi": 91,
      "hit": false,
      "t": 65604.32999999996,
      "d": 164.8350000000064,
      "v": 58
    },
    {
      "midi": 96,
      "hit": false,
      "t": 65769.16499999996,
      "d": 164.8350000000064,
      "v": 58
    },
    {
      "midi": 100,
      "hit": false,
      "t": 65769.16499999996,
      "d": 164.8350000000064,
      "v": 52
    },
    {
      "midi": 72,
      "hit": false,
      "t": 65933.99999999994,
      "d": 1978.020000000004,
      "v": 55
    },
    {
      "midi": 76,
      "hit": false,
      "t": 65933.99999999994,
      "d": 1978.020000000004,
      "v": 55
    },
    {
      "midi": 79,
      "hit": false,
      "t": 65933.99999999994,
      "d": 1978.020000000004,
      "v": 55
    },
    {
      "midi": 88,
      "hit": false,
      "t": 65933.99999999997,
      "d": 1978.020000000004,
      "v": 55
    },
    {
      "midi": 91,
      "hit": false,
      "t": 65933.99999999997,
      "d": 1978.020000000004,
      "v": 43
    },
    {
      "midi": 96,
      "hit": false,
      "t": 65933.99999999997,
      "d": 1978.020000000004,
      "v": 55
    },
    {
      "midi": 60,
      "hit": false,
      "t": 68571.35999999997,
      "d": 659.3399999999965,
      "v": 59
    },
    {
      "midi": 60,
      "hit": false,
      "t": 69230.69999999997,
      "d": 494.50500000000466,
      "v": 56
    },
    {
      "midi": 60,
      "hit": false,
      "t": 69725.20499999997,
      "d": 164.8350000000064,
      "v": 51
    },
    {
      "midi": 60,
      "hit": false,
      "t": 69890.03999999998,
      "d": 659.3399999999965,
      "v": 58
    },
    {
      "midi": 60,
      "hit": false,
      "t": 70549.37999999998,
      "d": 659.3399999999965,
      "v": 56
    },
    {
      "midi": 60,
      "hit": false,
      "t": 71208.71999999997,
      "d": 659.3399999999965,
      "v": 67
    },
    {
      "midi": 64,
      "hit": false,
      "t": 71208.71999999997,
      "d": 659.3399999999965,
      "v": 67
    },
    {
      "midi": 60,
      "hit": false,
      "t": 71868.05999999997,
      "d": 494.50500000000466,
      "v": 62
    },
    {
      "midi": 64,
      "hit": false,
      "t": 71868.05999999997,
      "d": 494.50500000000466,
      "v": 62
    },
    {
      "midi": 60,
      "hit": false,
      "t": 72362.56499999997,
      "d": 164.8350000000064,
      "v": 56
    },
    {
      "midi": 64,
      "hit": false,
      "t": 72362.56499999997,
      "d": 164.8350000000064,
      "v": 56
    },
    {
      "midi": 60,
      "hit": false,
      "t": 72527.39999999998,
      "d": 659.3399999999965,
      "v": 67
    },
    {
      "midi": 64,
      "hit": false,
      "t": 72527.39999999998,
      "d": 659.3399999999965,
      "v": 67
    },
    {
      "midi": 60,
      "hit": false,
      "t": 73186.73999999998,
      "d": 659.3399999999965,
      "v": 62
    },
    {
      "midi": 64,
      "hit": false,
      "t": 73186.73999999998,
      "d": 659.3399999999965,
      "v": 62
    },
    {
      "midi": 60,
      "hit": false,
      "t": 73846.07999999997,
      "d": 659.3399999999965,
      "v": 70
    },
    {
      "midi": 64,
      "hit": false,
      "t": 73846.07999999997,
      "d": 659.3399999999965,
      "v": 70
    },
    {
      "midi": 67,
      "hit": false,
      "t": 73846.07999999997,
      "d": 659.3399999999965,
      "v": 70
    },
    {
      "midi": 60,
      "hit": false,
      "t": 74505.41999999997,
      "d": 659.3399999999965,
      "v": 67
    },
    {
      "midi": 64,
      "hit": false,
      "t": 74505.41999999997,
      "d": 659.3399999999965,
      "v": 67
    },
    {
      "midi": 67,
      "hit": false,
      "t": 74505.41999999997,
      "d": 659.3399999999965,
      "v": 67
    },
    {
      "midi": 60,
      "hit": false,
      "t": 75164.75999999997,
      "d": 659.3399999999965,
      "v": 70
    },
    {
      "midi": 63,
      "hit": false,
      "t": 75164.75999999997,
      "d": 659.3399999999965,
      "v": 70
    },
    {
      "midi": 66,
      "hit": false,
      "t": 75164.75999999997,
      "d": 659.3399999999965,
      "v": 70
    },
    {
      "midi": 69,
      "hit": false,
      "t": 75164.75999999997,
      "d": 659.3399999999965,
      "v": 70
    },
    {
      "midi": 60,
      "hit": false,
      "t": 75824.09999999996,
      "d": 659.3399999999965,
      "v": 67
    },
    {
      "midi": 63,
      "hit": false,
      "t": 75824.09999999996,
      "d": 659.3399999999965,
      "v": 67
    },
    {
      "midi": 66,
      "hit": false,
      "t": 75824.09999999996,
      "d": 659.3399999999965,
      "v": 67
    },
    {
      "midi": 69,
      "hit": false,
      "t": 75824.09999999996,
      "d": 659.3399999999965,
      "v": 67
    },
    {
      "midi": 60,
      "hit": false,
      "t": 76483.43999999996,
      "d": 1978.020000000004,
      "v": 70
    },
    {
      "midi": 64,
      "hit": false,
      "t": 76483.43999999996,
      "d": 1978.020000000004,
      "v": 70
    },
    {
      "midi": 67,
      "hit": false,
      "t": 76483.43999999996,
      "d": 1978.020000000004,
      "v": 70
    },
    {
      "midi": 70,
      "hit": false,
      "t": 76483.43999999996,
      "d": 1978.020000000004,
      "v": 70
    },
    {
      "midi": 48,
      "hit": false,
      "t": 77142.77999999994,
      "d": 164.8350000000064,
      "v": 55
    },
    {
      "midi": 50,
      "hit": false,
      "t": 77307.61499999995,
      "d": 164.8350000000064,
      "v": 57
    },
    {
      "midi": 52,
      "hit": false,
      "t": 77472.44999999995,
      "d": 164.8350000000064,
      "v": 60
    },
    {
      "midi": 53,
      "hit": false,
      "t": 77637.28499999996,
      "d": 164.8350000000064,
      "v": 62
    },
    {
      "midi": 55,
      "hit": false,
      "t": 77802.11999999997,
      "d": 164.8350000000064,
      "v": 64
    },
    {
      "midi": 53,
      "hit": false,
      "t": 77966.95499999997,
      "d": 164.8350000000064,
      "v": 63
    },
    {
      "midi": 52,
      "hit": false,
      "t": 78131.78999999998,
      "d": 164.8350000000064,
      "v": 62
    },
    {
      "midi": 50,
      "hit": false,
      "t": 78296.62499999999,
      "d": 164.8350000000064,
      "v": 61
    },
    {
      "midi": 48,
      "hit": false,
      "t": 78461.45999999999,
      "d": 164.8350000000064,
      "v": 59
    },
    {
      "midi": 46,
      "hit": false,
      "t": 78626.295,
      "d": 164.8350000000064,
      "v": 58
    },
    {
      "midi": 45,
      "hit": false,
      "t": 78791.13,
      "d": 164.8350000000064,
      "v": 57
    },
    {
      "midi": 43,
      "hit": false,
      "t": 78955.96500000001,
      "d": 164.8350000000064,
      "v": 56
    },
    {
      "midi": 57,
      "hit": false,
      "t": 79120.79999999996,
      "d": 329.66999999999825,
      "v": 68
    },
    {
      "midi": 60,
      "hit": false,
      "t": 79120.79999999996,
      "d": 329.66999999999825,
      "v": 68
    },
    {
      "midi": 65,
      "hit": false,
      "t": 79120.79999999996,
      "d": 329.66999999999825,
      "v": 68
    },
    {
      "midi": 41,
      "hit": false,
      "t": 79120.80000000002,
      "d": 329.66999999999825,
      "v": 60
    },
    {
      "midi": 57,
      "hit": false,
      "t": 79450.46999999996,
      "d": 329.66999999999825,
      "v": 53
    },
    {
      "midi": 60,
      "hit": false,
      "t": 79450.46999999996,
      "d": 329.66999999999825,
      "v": 53
    },
    {
      "midi": 65,
      "hit": false,
      "t": 79450.46999999996,
      "d": 329.66999999999825,
      "v": 53
    },
    {
      "midi": 53,
      "hit": false,
      "t": 79450.47000000002,
      "d": 329.66999999999825,
      "v": 46
    },
    {
      "midi": 57,
      "hit": false,
      "t": 79780.13999999996,
      "d": 329.66999999999825,
      "v": 59
    },
    {
      "midi": 60,
      "hit": false,
      "t": 79780.13999999996,
      "d": 329.66999999999825,
      "v": 59
    },
    {
      "midi": 65,
      "hit": false,
      "t": 79780.13999999996,
      "d": 329.66999999999825,
      "v": 59
    },
    {
      "midi": 41,
      "hit": false,
      "t": 79780.14000000001,
      "d": 329.66999999999825,
      "v": 50
    },
    {
      "midi": 57,
      "hit": false,
      "t": 80109.80999999995,
      "d": 329.66999999999825,
      "v": 55
    },
    {
      "midi": 60,
      "hit": false,
      "t": 80109.80999999995,
      "d": 329.66999999999825,
      "v": 55
    },
    {
      "midi": 53,
      "hit": false,
      "t": 80109.81000000001,
      "d": 329.66999999999825,
      "v": 45
    },
    {
      "midi": 60,
      "hit": false,
      "t": 80439.47999999995,
      "d": 329.66999999999825,
      "v": 68
    },
    {
      "midi": 65,
      "hit": false,
      "t": 80439.47999999995,
      "d": 329.66999999999825,
      "v": 68
    },
    {
      "midi": 69,
      "hit": false,
      "t": 80439.47999999995,
      "d": 329.66999999999825,
      "v": 68
    },
    {
      "midi": 41,
      "hit": false,
      "t": 80439.48000000001,
      "d": 329.66999999999825,
      "v": 62
    },
    {
      "midi": 60,
      "hit": false,
      "t": 80769.14999999995,
      "d": 329.66999999999825,
      "v": 54
    },
    {
      "midi": 65,
      "hit": false,
      "t": 80769.14999999995,
      "d": 329.66999999999825,
      "v": 54
    },
    {
      "midi": 69,
      "hit": false,
      "t": 80769.14999999995,
      "d": 329.66999999999825,
      "v": 54
    },
    {
      "midi": 53,
      "hit": false,
      "t": 80769.15000000001,
      "d": 329.66999999999825,
      "v": 55
    },
    {
      "midi": 60,
      "hit": false,
      "t": 81098.81999999995,
      "d": 329.66999999999825,
      "v": 60
    },
    {
      "midi": 65,
      "hit": false,
      "t": 81098.81999999995,
      "d": 329.66999999999825,
      "v": 60
    },
    {
      "midi": 69,
      "hit": false,
      "t": 81098.81999999995,
      "d": 329.66999999999825,
      "v": 60
    },
    {
      "midi": 41,
      "hit": false,
      "t": 81098.82,
      "d": 329.66999999999825,
      "v": 59
    },
    {
      "midi": 60,
      "hit": false,
      "t": 81428.48999999995,
      "d": 329.66999999999825,
      "v": 55
    },
    {
      "midi": 65,
      "hit": false,
      "t": 81428.48999999995,
      "d": 329.66999999999825,
      "v": 55
    },
    {
      "midi": 53,
      "hit": false,
      "t": 81428.49,
      "d": 329.66999999999825,
      "v": 53
    },
    {
      "midi": 69,
      "hit": false,
      "t": 81758.15999999995,
      "d": 329.66999999999825,
      "v": 67
    },
    {
      "midi": 72,
      "hit": false,
      "t": 81758.15999999995,
      "d": 329.66999999999825,
      "v": 67
    },
    {
      "midi": 41,
      "hit": false,
      "t": 81758.16,
      "d": 329.66999999999825,
      "v": 63
    },
    {
      "midi": 69,
      "hit": false,
      "t": 82087.82999999994,
      "d": 329.66999999999825,
      "v": 57
    },
    {
      "midi": 72,
      "hit": false,
      "t": 82087.82999999994,
      "d": 329.66999999999825,
      "v": 57
    },
    {
      "midi": 53,
      "hit": false,
      "t": 82087.83,
      "d": 329.66999999999825,
      "v": 55
    },
    {
      "midi": 67,
      "hit": false,
      "t": 82417.49999999994,
      "d": 329.66999999999825,
      "v": 64
    },
    {
      "midi": 70,
      "hit": false,
      "t": 82417.49999999994,
      "d": 329.66999999999825,
      "v": 64
    },
    {
      "midi": 52,
      "hit": false,
      "t": 82417.5,
      "d": 329.66999999999825,
      "v": 60
    },
    {
      "midi": 67,
      "hit": false,
      "t": 82747.16999999994,
      "d": 329.66999999999825,
      "v": 55
    },
    {
      "midi": 70,
      "hit": false,
      "t": 82747.16999999994,
      "d": 329.66999999999825,
      "v": 55
    },
    {
      "midi": 60,
      "hit": false,
      "t": 82747.17,
      "d": 329.66999999999825,
      "v": 53
    },
    {
      "midi": 65,
      "hit": false,
      "t": 83076.83999999994,
      "d": 329.66999999999825,
      "v": 62
    },
    {
      "midi": 69,
      "hit": false,
      "t": 83076.83999999994,
      "d": 329.66999999999825,
      "v": 62
    },
    {
      "midi": 53,
      "hit": false,
      "t": 83076.84,
      "d": 329.66999999999825,
      "v": 61
    },
    {
      "midi": 65,
      "hit": false,
      "t": 83406.50999999994,
      "d": 329.66999999999825,
      "v": 52
    },
    {
      "midi": 69,
      "hit": false,
      "t": 83406.50999999994,
      "d": 329.66999999999825,
      "v": 52
    },
    {
      "midi": 60,
      "hit": false,
      "t": 83406.51,
      "d": 329.66999999999825,
      "v": 46
    },
    {
      "midi": 64,
      "hit": false,
      "t": 83736.17999999993,
      "d": 659.3399999999965,
      "v": 60
    },
    {
      "midi": 67,
      "hit": false,
      "t": 83736.17999999993,
      "d": 659.3399999999965,
      "v": 60
    },
    {
      "midi": 48,
      "hit": false,
      "t": 83736.18,
      "d": 329.66999999999825,
      "v": 52
    },
    {
      "midi": 60,
      "hit": false,
      "t": 84065.84999999999,
      "d": 329.66999999999825,
      "v": 42
    },
    {
      "midi": 57,
      "hit": false,
      "t": 84395.51999999993,
      "d": 329.66999999999825,
      "v": 68
    },
    {
      "midi": 60,
      "hit": false,
      "t": 84395.51999999993,
      "d": 329.66999999999825,
      "v": 68
    },
    {
      "midi": 65,
      "hit": false,
      "t": 84395.51999999993,
      "d": 329.66999999999825,
      "v": 68
    },
    {
      "midi": 41,
      "hit": false,
      "t": 84395.51999999999,
      "d": 329.66999999999825,
      "v": 60
    },
    {
      "midi": 57,
      "hit": false,
      "t": 84725.18999999993,
      "d": 329.66999999999825,
      "v": 53
    },
    {
      "midi": 60,
      "hit": false,
      "t": 84725.18999999993,
      "d": 329.66999999999825,
      "v": 53
    },
    {
      "midi": 65,
      "hit": false,
      "t": 84725.18999999993,
      "d": 329.66999999999825,
      "v": 53
    },
    {
      "midi": 53,
      "hit": false,
      "t": 84725.18999999999,
      "d": 329.66999999999825,
      "v": 46
    },
    {
      "midi": 57,
      "hit": false,
      "t": 85054.85999999993,
      "d": 329.66999999999825,
      "v": 59
    },
    {
      "midi": 60,
      "hit": false,
      "t": 85054.85999999993,
      "d": 329.66999999999825,
      "v": 59
    },
    {
      "midi": 65,
      "hit": false,
      "t": 85054.85999999993,
      "d": 329.66999999999825,
      "v": 59
    },
    {
      "midi": 41,
      "hit": false,
      "t": 85054.85999999999,
      "d": 329.66999999999825,
      "v": 50
    },
    {
      "midi": 57,
      "hit": false,
      "t": 85384.52999999993,
      "d": 329.66999999999825,
      "v": 55
    },
    {
      "midi": 60,
      "hit": false,
      "t": 85384.52999999993,
      "d": 329.66999999999825,
      "v": 55
    },
    {
      "midi": 53,
      "hit": false,
      "t": 85384.52999999998,
      "d": 329.66999999999825,
      "v": 45
    },
    {
      "midi": 60,
      "hit": false,
      "t": 85714.19999999992,
      "d": 329.66999999999825,
      "v": 67
    },
    {
      "midi": 65,
      "hit": false,
      "t": 85714.19999999992,
      "d": 329.66999999999825,
      "v": 67
    },
    {
      "midi": 69,
      "hit": false,
      "t": 85714.19999999992,
      "d": 329.66999999999825,
      "v": 67
    },
    {
      "midi": 41,
      "hit": false,
      "t": 85714.19999999998,
      "d": 329.66999999999825,
      "v": 62
    },
    {
      "midi": 60,
      "hit": false,
      "t": 86043.86999999992,
      "d": 329.66999999999825,
      "v": 54
    },
    {
      "midi": 65,
      "hit": false,
      "t": 86043.86999999992,
      "d": 329.66999999999825,
      "v": 54
    },
    {
      "midi": 69,
      "hit": false,
      "t": 86043.86999999992,
      "d": 329.66999999999825,
      "v": 54
    },
    {
      "midi": 53,
      "hit": false,
      "t": 86043.86999999998,
      "d": 329.66999999999825,
      "v": 55
    },
    {
      "midi": 60,
      "hit": false,
      "t": 86373.53999999992,
      "d": 329.66999999999825,
      "v": 60
    },
    {
      "midi": 65,
      "hit": false,
      "t": 86373.53999999992,
      "d": 329.66999999999825,
      "v": 60
    },
    {
      "midi": 69,
      "hit": false,
      "t": 86373.53999999992,
      "d": 329.66999999999825,
      "v": 60
    },
    {
      "midi": 41,
      "hit": false,
      "t": 86373.53999999998,
      "d": 329.66999999999825,
      "v": 59
    },
    {
      "midi": 60,
      "hit": false,
      "t": 86703.20999999992,
      "d": 329.66999999999825,
      "v": 55
    },
    {
      "midi": 65,
      "hit": false,
      "t": 86703.20999999992,
      "d": 329.66999999999825,
      "v": 55
    },
    {
      "midi": 53,
      "hit": false,
      "t": 86703.20999999998,
      "d": 329.66999999999825,
      "v": 53
    },
    {
      "midi": 69,
      "hit": false,
      "t": 87032.87999999992,
      "d": 329.66999999999825,
      "v": 67
    },
    {
      "midi": 72,
      "hit": false,
      "t": 87032.87999999992,
      "d": 329.66999999999825,
      "v": 67
    },
    {
      "midi": 41,
      "hit": false,
      "t": 87032.87999999998,
      "d": 329.66999999999825,
      "v": 63
    },
    {
      "midi": 69,
      "hit": false,
      "t": 87362.54999999992,
      "d": 329.66999999999825,
      "v": 57
    },
    {
      "midi": 72,
      "hit": false,
      "t": 87362.54999999992,
      "d": 329.66999999999825,
      "v": 57
    },
    {
      "midi": 53,
      "hit": false,
      "t": 87362.54999999997,
      "d": 329.66999999999825,
      "v": 55
    },
    {
      "midi": 67,
      "hit": false,
      "t": 87692.21999999991,
      "d": 329.66999999999825,
      "v": 64
    },
    {
      "midi": 70,
      "hit": false,
      "t": 87692.21999999991,
      "d": 329.66999999999825,
      "v": 64
    },
    {
      "midi": 52,
      "hit": false,
      "t": 87692.21999999997,
      "d": 329.66999999999825,
      "v": 60
    },
    {
      "midi": 67,
      "hit": false,
      "t": 88021.88999999991,
      "d": 329.66999999999825,
      "v": 55
    },
    {
      "midi": 70,
      "hit": false,
      "t": 88021.88999999991,
      "d": 329.66999999999825,
      "v": 55
    },
    {
      "midi": 60,
      "hit": false,
      "t": 88021.88999999997,
      "d": 329.66999999999825,
      "v": 53
    },
    {
      "midi": 65,
      "hit": false,
      "t": 88351.55999999991,
      "d": 329.66999999999825,
      "v": 62
    },
    {
      "midi": 69,
      "hit": false,
      "t": 88351.55999999991,
      "d": 329.66999999999825,
      "v": 62
    },
    {
      "midi": 53,
      "hit": false,
      "t": 88351.55999999997,
      "d": 329.66999999999825,
      "v": 61
    },
    {
      "midi": 65,
      "hit": false,
      "t": 88681.22999999991,
      "d": 329.66999999999825,
      "v": 52
    },
    {
      "midi": 69,
      "hit": false,
      "t": 88681.22999999991,
      "d": 329.66999999999825,
      "v": 52
    },
    {
      "midi": 60,
      "hit": false,
      "t": 88681.22999999997,
      "d": 329.66999999999825,
      "v": 46
    },
    {
      "midi": 64,
      "hit": false,
      "t": 89010.8999999999,
      "d": 659.3399999999965,
      "v": 60
    },
    {
      "midi": 67,
      "hit": false,
      "t": 89010.8999999999,
      "d": 659.3399999999965,
      "v": 60
    },
    {
      "midi": 48,
      "hit": false,
      "t": 89010.89999999997,
      "d": 329.66999999999825,
      "v": 52
    },
    {
      "midi": 60,
      "hit": false,
      "t": 89340.56999999996,
      "d": 329.66999999999825,
      "v": 42
    },
    {
      "midi": 69,
      "hit": false,
      "t": 89670.2399999999,
      "d": 329.66999999999825,
      "v": 70
    },
    {
      "midi": 72,
      "hit": false,
      "t": 89670.2399999999,
      "d": 329.66999999999825,
      "v": 70
    },
    {
      "midi": 41,
      "hit": false,
      "t": 89670.23999999996,
      "d": 659.3399999999965,
      "v": 62
    },
    {
      "midi": 53,
      "hit": false,
      "t": 89670.23999999996,
      "d": 659.3399999999965,
      "v": 62
    },
    {
      "midi": 69,
      "hit": false,
      "t": 89999.9099999999,
      "d": 329.66999999999825,
      "v": 63
    },
    {
      "midi": 72,
      "hit": false,
      "t": 89999.9099999999,
      "d": 329.66999999999825,
      "v": 63
    },
    {
      "midi": 65,
      "hit": false,
      "t": 90329.5799999999,
      "d": 329.66999999999825,
      "v": 70
    },
    {
      "midi": 69,
      "hit": false,
      "t": 90329.5799999999,
      "d": 329.66999999999825,
      "v": 70
    },
    {
      "midi": 65,
      "hit": false,
      "t": 90659.2499999999,
      "d": 329.66999999999825,
      "v": 64
    },
    {
      "midi": 65,
      "hit": false,
      "t": 90988.9199999999,
      "d": 329.66999999999825,
      "v": 75
    },
    {
      "midi": 70,
      "hit": false,
      "t": 90988.9199999999,
      "d": 329.66999999999825,
      "v": 75
    },
    {
      "midi": 74,
      "hit": false,
      "t": 90988.9199999999,
      "d": 329.66999999999825,
      "v": 75
    },
    {
      "midi": 34,
      "hit": false,
      "t": 90988.91999999995,
      "d": 329.66999999999825,
      "v": 68
    },
    {
      "midi": 46,
      "hit": false,
      "t": 90988.91999999995,
      "d": 329.66999999999825,
      "v": 68
    },
    {
      "midi": 65,
      "hit": false,
      "t": 91318.5899999999,
      "d": 329.66999999999825,
      "v": 69
    },
    {
      "midi": 70,
      "hit": false,
      "t": 91318.5899999999,
      "d": 329.66999999999825,
      "v": 69
    },
    {
      "midi": 74,
      "hit": false,
      "t": 91318.5899999999,
      "d": 329.66999999999825,
      "v": 69
    },
    {
      "midi": 38,
      "hit": false,
      "t": 91318.58999999995,
      "d": 329.66999999999825,
      "v": 62
    },
    {
      "midi": 50,
      "hit": false,
      "t": 91318.58999999995,
      "d": 329.66999999999825,
      "v": 62
    },
    {
      "midi": 65,
      "hit": false,
      "t": 91648.2599999999,
      "d": 659.3399999999965,
      "v": 74
    },
    {
      "midi": 69,
      "hit": false,
      "t": 91648.2599999999,
      "d": 659.3399999999965,
      "v": 74
    },
    {
      "midi": 72,
      "hit": false,
      "t": 91648.2599999999,
      "d": 659.3399999999965,
      "v": 74
    },
    {
      "midi": 41,
      "hit": false,
      "t": 91648.25999999995,
      "d": 659.3399999999965,
      "v": 74
    },
    {
      "midi": 53,
      "hit": false,
      "t": 91648.25999999995,
      "d": 659.3399999999965,
      "v": 74
    },
    {
      "midi": 65,
      "hit": false,
      "t": 92307.59999999989,
      "d": 494.50500000000466,
      "v": 78
    },
    {
      "midi": 69,
      "hit": false,
      "t": 92307.59999999989,
      "d": 494.50500000000466,
      "v": 78
    },
    {
      "midi": 72,
      "hit": false,
      "t": 92307.59999999989,
      "d": 494.50500000000466,
      "v": 78
    },
    {
      "midi": 77,
      "hit": false,
      "t": 92307.59999999989,
      "d": 494.50500000000466,
      "v": 78
    },
    {
      "midi": 36,
      "hit": false,
      "t": 92307.59999999995,
      "d": 1318.679999999993,
      "v": 74
    },
    {
      "midi": 48,
      "hit": false,
      "t": 92307.59999999995,
      "d": 1318.679999999993,
      "v": 74
    },
    {
      "midi": 72,
      "hit": false,
      "t": 92802.1049999999,
      "d": 164.8350000000064,
      "v": 74
    },
    {
      "midi": 69,
      "hit": false,
      "t": 92966.9399999999,
      "d": 329.66999999999825,
      "v": 80
    },
    {
      "midi": 65,
      "hit": false,
      "t": 93296.6099999999,
      "d": 329.66999999999825,
      "v": 69
    },
    {
      "midi": 64,
      "hit": false,
      "t": 93626.2799999999,
      "d": 329.66999999999825,
      "v": 72
    },
    {
      "midi": 67,
      "hit": false,
      "t": 93626.2799999999,
      "d": 329.66999999999825,
      "v": 72
    },
    {
      "midi": 72,
      "hit": false,
      "t": 93626.2799999999,
      "d": 329.66999999999825,
      "v": 72
    },
    {
      "midi": 48,
      "hit": false,
      "t": 93626.27999999994,
      "d": 329.66999999999825,
      "v": 64
    },
    {
      "midi": 58,
      "hit": false,
      "t": 93626.27999999994,
      "d": 329.66999999999825,
      "v": 64
    },
    {
      "midi": 64,
      "hit": false,
      "t": 93955.9499999999,
      "d": 329.66999999999825,
      "v": 63
    },
    {
      "midi": 67,
      "hit": false,
      "t": 93955.9499999999,
      "d": 329.66999999999825,
      "v": 63
    },
    {
      "midi": 72,
      "hit": false,
      "t": 93955.9499999999,
      "d": 329.66999999999825,
      "v": 63
    },
    {
      "midi": 48,
      "hit": false,
      "t": 93955.94999999994,
      "d": 329.66999999999825,
      "v": 62
    },
    {
      "midi": 58,
      "hit": false,
      "t": 93955.94999999994,
      "d": 329.66999999999825,
      "v": 62
    },
    {
      "midi": 65,
      "hit": false,
      "t": 94285.6199999999,
      "d": 659.3399999999965,
      "v": 70
    },
    {
      "midi": 53,
      "hit": false,
      "t": 94285.61999999994,
      "d": 659.3399999999965,
      "v": 66
    },
    {
      "midi": 57,
      "hit": false,
      "t": 94285.61999999994,
      "d": 659.3399999999965,
      "v": 66
    },
    {
      "midi": 72,
      "hit": false,
      "t": 94944.95999999989,
      "d": 164.8350000000064,
      "v": 56
    },
    {
      "midi": 52,
      "hit": false,
      "t": 94944.95999999993,
      "d": 329.66999999999825,
      "v": 56
    },
    {
      "midi": 58,
      "hit": false,
      "t": 94944.95999999993,
      "d": 329.66999999999825,
      "v": 56
    },
    {
      "midi": 74,
      "hit": false,
      "t": 95109.7949999999,
      "d": 164.8350000000064,
      "v": 58
    },
    {
      "midi": 76,
      "hit": false,
      "t": 95274.6299999999,
      "d": 164.8350000000064,
      "v": 60
    },
    {
      "midi": 60,
      "hit": false,
      "t": 95274.62999999993,
      "d": 329.66999999999825,
      "v": 50
    },
    {
      "midi": 77,
      "hit": false,
      "t": 95439.46499999991,
      "d": 164.8350000000064,
      "v": 63
    },
    {
      "midi": 79,
      "hit": false,
      "t": 95604.29999999992,
      "d": 164.8350000000064,
      "v": 64
    },
    {
      "midi": 48,
      "hit": false,
      "t": 95604.29999999993,
      "d": 329.66999999999825,
      "v": 56
    },
    {
      "midi": 77,
      "hit": false,
      "t": 95769.13499999992,
      "d": 164.8350000000064,
      "v": 63
    },
    {
      "midi": 76,
      "hit": false,
      "t": 95933.96999999993,
      "d": 164.8350000000064,
      "v": 61
    },
    {
      "midi": 60,
      "hit": false,
      "t": 95933.96999999993,
      "d": 329.66999999999825,
      "v": 51
    },
    {
      "midi": 74,
      "hit": false,
      "t": 96098.80499999993,
      "d": 164.8350000000064,
      "v": 59
    },
    {
      "midi": 53,
      "hit": false,
      "t": 96263.63999999993,
      "d": 329.66999999999825,
      "v": 56
    },
    {
      "midi": 57,
      "hit": false,
      "t": 96263.63999999993,
      "d": 329.66999999999825,
      "v": 56
    },
    {
      "midi": 72,
      "hit": false,
      "t": 96263.63999999994,
      "d": 164.8350000000064,
      "v": 64
    },
    {
      "midi": 77,
      "hit": false,
      "t": 96428.47499999995,
      "d": 164.8350000000064,
      "v": 57
    },
    {
      "midi": 60,
      "hit": false,
      "t": 96593.30999999992,
      "d": 329.66999999999825,
      "v": 51
    },
    {
      "midi": 81,
      "hit": false,
      "t": 96593.30999999995,
      "d": 164.8350000000064,
      "v": 64
    },
    {
      "midi": 77,
      "hit": false,
      "t": 96758.14499999996,
      "d": 164.8350000000064,
      "v": 59
    },
    {
      "midi": 48,
      "hit": false,
      "t": 96922.97999999992,
      "d": 329.66999999999825,
      "v": 56
    },
    {
      "midi": 84,
      "hit": false,
      "t": 96922.97999999997,
      "d": 659.3399999999965,
      "v": 64
    },
    {
      "midi": 60,
      "hit": false,
      "t": 97252.64999999992,
      "d": 329.66999999999825,
      "v": 51
    },
    {
      "midi": 52,
      "hit": false,
      "t": 97582.31999999992,
      "d": 329.66999999999825,
      "v": 56
    },
    {
      "midi": 58,
      "hit": false,
      "t": 97582.31999999992,
      "d": 329.66999999999825,
      "v": 56
    },
    {
      "midi": 84,
      "hit": false,
      "t": 97582.31999999996,
      "d": 164.8350000000064,
      "v": 59
    },
    {
      "midi": 86,
      "hit": false,
      "t": 97747.15499999997,
      "d": 164.8350000000064,
      "v": 60
    },
    {
      "midi": 60,
      "hit": false,
      "t": 97911.98999999992,
      "d": 329.66999999999825,
      "v": 51
    },
    {
      "midi": 88,
      "hit": false,
      "t": 97911.98999999998,
      "d": 164.8350000000064,
      "v": 62
    },
    {
      "midi": 89,
      "hit": false,
      "t": 98076.82499999998,
      "d": 164.8350000000064,
      "v": 64
    },
    {
      "midi": 48,
      "hit": false,
      "t": 98241.65999999992,
      "d": 329.66999999999825,
      "v": 56
    },
    {
      "midi": 91,
      "hit": false,
      "t": 98241.65999999999,
      "d": 659.3399999999965,
      "v": 66
    },
    {
      "midi": 60,
      "hit": false,
      "t": 98571.32999999991,
      "d": 329.66999999999825,
      "v": 51
    },
    {
      "midi": 53,
      "hit": false,
      "t": 98900.99999999991,
      "d": 329.66999999999825,
      "v": 56
    },
    {
      "midi": 57,
      "hit": false,
      "t": 98900.99999999991,
      "d": 329.66999999999825,
      "v": 56
    },
    {
      "midi": 89,
      "hit": false,
      "t": 98900.99999999999,
      "d": 164.8350000000064,
      "v": 57
    },
    {
      "midi": 91,
      "hit": false,
      "t": 99065.83499999999,
      "d": 164.8350000000064,
      "v": 60
    },
    {
      "midi": 60,
      "hit": false,
      "t": 99230.66999999991,
      "d": 329.66999999999825,
      "v": 52
    },
    {
      "midi": 93,
      "hit": false,
      "t": 99230.67,
      "d": 164.8350000000064,
      "v": 62
    },
    {
      "midi": 94,
      "hit": false,
      "t": 99395.505,
      "d": 164.8350000000064,
      "v": 65
    },
    {
      "midi": 48,
      "hit": false,
      "t": 99560.33999999991,
      "d": 329.66999999999825,
      "v": 56
    },
    {
      "midi": 96,
      "hit": false,
      "t": 99560.34000000001,
      "d": 659.3399999999965,
      "v": 68
    },
    {
      "midi": 60,
      "hit": false,
      "t": 99890.00999999991,
      "d": 329.66999999999825,
      "v": 52
    },
    {
      "midi": 52,
      "hit": false,
      "t": 100219.6799999999,
      "d": 329.66999999999825,
      "v": 56
    },
    {
      "midi": 58,
      "hit": false,
      "t": 100219.6799999999,
      "d": 329.66999999999825,
      "v": 56
    },
    {
      "midi": 72,
      "hit": false,
      "t": 100219.68000000001,
      "d": 164.8350000000064,
      "v": 56
    },
    {
      "midi": 74,
      "hit": false,
      "t": 100384.51500000001,
      "d": 164.8350000000064,
      "v": 58
    },
    {
      "midi": 60,
      "hit": false,
      "t": 100549.3499999999,
      "d": 329.66999999999825,
      "v": 50
    },
    {
      "midi": 76,
      "hit": false,
      "t": 100549.35000000002,
      "d": 164.8350000000064,
      "v": 60
    },
    {
      "midi": 77,
      "hit": false,
      "t": 100714.18500000003,
      "d": 164.8350000000064,
      "v": 63
    },
    {
      "midi": 48,
      "hit": false,
      "t": 100879.0199999999,
      "d": 329.66999999999825,
      "v": 56
    },
    {
      "midi": 79,
      "hit": false,
      "t": 100879.02000000003,
      "d": 164.8350000000064,
      "v": 64
    },
    {
      "midi": 77,
      "hit": false,
      "t": 101043.85500000004,
      "d": 164.8350000000064,
      "v": 63
    },
    {
      "midi": 60,
      "hit": false,
      "t": 101208.6899999999,
      "d": 329.66999999999825,
      "v": 51
    },
    {
      "midi": 76,
      "hit": false,
      "t": 101208.69000000005,
      "d": 164.8350000000064,
      "v": 61
    },
    {
      "midi": 74,
      "hit": false,
      "t": 101373.52500000005,
      "d": 164.8350000000064,
      "v": 59
    },
    {
      "midi": 53,
      "hit": false,
      "t": 101538.3599999999,
      "d": 329.66999999999825,
      "v": 56
    },
    {
      "midi": 57,
      "hit": false,
      "t": 101538.3599999999,
      "d": 329.66999999999825,
      "v": 56
    },
    {
      "midi": 72,
      "hit": false,
      "t": 101538.36000000006,
      "d": 164.8350000000064,
      "v": 64
    },
    {
      "midi": 77,
      "hit": false,
      "t": 101703.19500000007,
      "d": 164.8350000000064,
      "v": 57
    },
    {
      "midi": 60,
      "hit": false,
      "t": 101868.0299999999,
      "d": 329.66999999999825,
      "v": 51
    },
    {
      "midi": 81,
      "hit": false,
      "t": 101868.03000000007,
      "d": 164.8350000000064,
      "v": 64
    },
    {
      "midi": 77,
      "hit": false,
      "t": 102032.86500000008,
      "d": 164.8350000000064,
      "v": 59
    },
    {
      "midi": 48,
      "hit": false,
      "t": 102197.6999999999,
      "d": 329.66999999999825,
      "v": 56
    },
    {
      "midi": 84,
      "hit": false,
      "t": 102197.70000000008,
      "d": 659.3399999999965,
      "v": 64
    },
    {
      "midi": 60,
      "hit": false,
      "t": 102527.3699999999,
      "d": 329.66999999999825,
      "v": 51
    },
    {
      "midi": 52,
      "hit": false,
      "t": 102857.03999999989,
      "d": 329.66999999999825,
      "v": 56
    },
    {
      "midi": 58,
      "hit": false,
      "t": 102857.03999999989,
      "d": 329.66999999999825,
      "v": 56
    },
    {
      "midi": 84,
      "hit": false,
      "t": 102857.04000000008,
      "d": 164.8350000000064,
      "v": 56
    },
    {
      "midi": 86,
      "hit": false,
      "t": 103021.87500000009,
      "d": 164.8350000000064,
      "v": 58
    },
    {
      "midi": 60,
      "hit": false,
      "t": 103186.70999999989,
      "d": 329.66999999999825,
      "v": 50
    },
    {
      "midi": 88,
      "hit": false,
      "t": 103186.7100000001,
      "d": 164.8350000000064,
      "v": 60
    },
    {
      "midi": 89,
      "hit": false,
      "t": 103351.5450000001,
      "d": 164.8350000000064,
      "v": 63
    },
    {
      "midi": 48,
      "hit": false,
      "t": 103516.37999999989,
      "d": 329.66999999999825,
      "v": 56
    },
    {
      "midi": 91,
      "hit": false,
      "t": 103516.3800000001,
      "d": 164.8350000000064,
      "v": 64
    },
    {
      "midi": 88,
      "hit": false,
      "t": 103681.21500000011,
      "d": 164.8350000000064,
      "v": 63
    },
    {
      "midi": 60,
      "hit": false,
      "t": 103846.04999999989,
      "d": 329.66999999999825,
      "v": 51
    },
    {
      "midi": 86,
      "hit": false,
      "t": 103846.05000000012,
      "d": 164.8350000000064,
      "v": 61
    },
    {
      "midi": 84,
      "hit": false,
      "t": 104010.88500000013,
      "d": 164.8350000000064,
      "v": 59
    },
    {
      "midi": 53,
      "hit": false,
      "t": 104175.71999999988,
      "d": 659.3399999999965,
      "v": 54
    },
    {
      "midi": 57,
      "hit": false,
      "t": 104175.71999999988,
      "d": 659.3399999999965,
      "v": 54
    },
    {
      "midi": 89,
      "hit": false,
      "t": 104175.72000000013,
      "d": 329.66999999999825,
      "v": 66
    },
    {
      "midi": 87,
      "hit": false,
      "t": 104505.39000000013,
      "d": 164.8350000000064,
      "v": 65
    },
    {
      "midi": 89,
      "hit": false,
      "t": 104670.22500000014,
      "d": 164.8350000000064,
      "v": 62
    },
    {
      "midi": 91,
      "hit": false,
      "t": 104835.06000000014,
      "d": 164.8350000000064,
      "v": 65
    },
    {
      "midi": 89,
      "hit": false,
      "t": 104999.89500000015,
      "d": 164.8350000000064,
      "v": 62
    },
    {
      "midi": 87,
      "hit": false,
      "t": 105164.73000000016,
      "d": 164.8350000000064,
      "v": 65
    },
    {
      "midi": 86,
      "hit": false,
      "t": 105329.56500000016,
      "d": 164.8350000000064,
      "v": 62
    },
    {
      "midi": 53,
      "hit": false,
      "t": 105494.39999999988,
      "d": 659.3399999999965,
      "v": 52
    },
    {
      "midi": 57,
      "hit": false,
      "t": 105494.39999999988,
      "d": 659.3399999999965,
      "v": 52
    },
    {
      "midi": 60,
      "hit": false,
      "t": 105494.39999999988,
      "d": 659.3399999999965,
      "v": 52
    },
    {
      "midi": 63,
      "hit": false,
      "t": 105494.39999999988,
      "d": 659.3399999999965,
      "v": 52
    },
    {
      "midi": 84,
      "hit": false,
      "t": 105494.40000000017,
      "d": 329.66999999999825,
      "v": 67
    },
    {
      "midi": 84,
      "hit": false,
      "t": 105824.07000000017,
      "d": 164.8350000000064,
      "v": 65
    },
    {
      "midi": 86,
      "hit": false,
      "t": 105988.90500000017,
      "d": 164.8350000000064,
      "v": 62
    },
    {
      "midi": 87,
      "hit": false,
      "t": 106153.74000000018,
      "d": 164.8350000000064,
      "v": 65
    },
    {
      "midi": 86,
      "hit": false,
      "t": 106318.57500000019,
      "d": 164.8350000000064,
      "v": 62
    },
    {
      "midi": 84,
      "hit": false,
      "t": 106483.41000000019,
      "d": 164.8350000000064,
      "v": 65
    },
    {
      "midi": 82,
      "hit": false,
      "t": 106648.2450000002,
      "d": 164.8350000000064,
      "v": 62
    },
    {
      "midi": 65,
      "hit": false,
      "t": 106813.07999999987,
      "d": 659.3399999999965,
      "v": 52
    },
    {
      "midi": 69,
      "hit": false,
      "t": 106813.07999999987,
      "d": 659.3399999999965,
      "v": 52
    },
    {
      "midi": 72,
      "hit": false,
      "t": 106813.07999999987,
      "d": 659.3399999999965,
      "v": 52
    },
    {
      "midi": 75,
      "hit": false,
      "t": 106813.07999999987,
      "d": 659.3399999999965,
      "v": 52
    },
    {
      "midi": 81,
      "hit": false,
      "t": 106813.0800000002,
      "d": 329.66999999999825,
      "v": 67
    },
    {
      "midi": 81,
      "hit": false,
      "t": 107142.7500000002,
      "d": 164.8350000000064,
      "v": 65
    },
    {
      "midi": 82,
      "hit": false,
      "t": 107307.58500000021,
      "d": 164.8350000000064,
      "v": 62
    },
    {
      "midi": 84,
      "hit": false,
      "t": 107472.42000000022,
      "d": 164.8350000000064,
      "v": 65
    },
    {
      "midi": 82,
      "hit": false,
      "t": 107637.25500000022,
      "d": 164.8350000000064,
      "v": 62
    },
    {
      "midi": 81,
      "hit": false,
      "t": 107802.09000000023,
      "d": 164.8350000000064,
      "v": 65
    },
    {
      "midi": 79,
      "hit": false,
      "t": 107966.92500000024,
      "d": 164.8350000000064,
      "v": 62
    },
    {
      "midi": 53,
      "hit": false,
      "t": 108131.75999999986,
      "d": 659.3399999999965,
      "v": 52
    },
    {
      "midi": 57,
      "hit": false,
      "t": 108131.75999999986,
      "d": 659.3399999999965,
      "v": 52
    },
    {
      "midi": 60,
      "hit": false,
      "t": 108131.75999999986,
      "d": 659.3399999999965,
      "v": 52
    },
    {
      "midi": 63,
      "hit": false,
      "t": 108131.75999999986,
      "d": 659.3399999999965,
      "v": 52
    },
    {
      "midi": 77,
      "hit": false,
      "t": 108131.76000000024,
      "d": 659.3399999999965,
      "v": 67
    },
    {
      "midi": 41,
      "hit": false,
      "t": 108791.09999999986,
      "d": 494.50500000000466,
      "v": 61
    },
    {
      "midi": 53,
      "hit": false,
      "t": 108791.09999999986,
      "d": 494.50500000000466,
      "v": 61
    },
    {
      "midi": 65,
      "hit": false,
      "t": 108791.10000000024,
      "d": 494.50500000000466,
      "v": 62
    },
    {
      "midi": 40,
      "hit": false,
      "t": 109285.60499999986,
      "d": 164.8350000000064,
      "v": 53
    },
    {
      "midi": 52,
      "hit": false,
      "t": 109285.60499999986,
      "d": 164.8350000000064,
      "v": 53
    },
    {
      "midi": 64,
      "hit": false,
      "t": 109285.60500000024,
      "d": 164.8350000000064,
      "v": 54
    },
    {
      "midi": 41,
      "hit": false,
      "t": 109450.43999999987,
      "d": 329.66999999999825,
      "v": 59
    },
    {
      "midi": 53,
      "hit": false,
      "t": 109450.43999999987,
      "d": 329.66999999999825,
      "v": 59
    },
    {
      "midi": 65,
      "hit": false,
      "t": 109450.44000000025,
      "d": 329.66999999999825,
      "v": 58
    },
    {
      "midi": 39,
      "hit": false,
      "t": 109780.10999999987,
      "d": 329.66999999999825,
      "v": 63
    },
    {
      "midi": 51,
      "hit": false,
      "t": 109780.10999999987,
      "d": 329.66999999999825,
      "v": 63
    },
    {
      "midi": 63,
      "hit": false,
      "t": 109780.11000000025,
      "d": 329.66999999999825,
      "v": 63
    },
    {
      "midi": 38,
      "hit": false,
      "t": 110109.77999999987,
      "d": 329.66999999999825,
      "v": 67
    },
    {
      "midi": 50,
      "hit": false,
      "t": 110109.77999999987,
      "d": 329.66999999999825,
      "v": 67
    },
    {
      "midi": 62,
      "hit": false,
      "t": 110109.78000000025,
      "d": 329.66999999999825,
      "v": 68
    },
    {
      "midi": 36,
      "hit": false,
      "t": 110439.44999999987,
      "d": 329.66999999999825,
      "v": 69
    },
    {
      "midi": 48,
      "hit": false,
      "t": 110439.44999999987,
      "d": 329.66999999999825,
      "v": 69
    },
    {
      "midi": 57,
      "hit": false,
      "t": 110439.45000000024,
      "d": 329.66999999999825,
      "v": 77
    },
    {
      "midi": 63,
      "hit": false,
      "t": 110439.45000000024,
      "d": 329.66999999999825,
      "v": 77
    },
    {
      "midi": 65,
      "hit": false,
      "t": 110439.45000000024,
      "d": 329.66999999999825,
      "v": 77
    },
    {
      "midi": 34,
      "hit": false,
      "t": 110769.11999999986,
      "d": 494.50500000000466,
      "v": 74
    },
    {
      "midi": 46,
      "hit": false,
      "t": 110769.11999999986,
      "d": 494.50500000000466,
      "v": 74
    },
    {
      "midi": 58,
      "hit": false,
      "t": 110769.12000000024,
      "d": 494.50500000000466,
      "v": 79
    },
    {
      "midi": 62,
      "hit": false,
      "t": 110769.12000000024,
      "d": 494.50500000000466,
      "v": 79
    },
    {
      "midi": 65,
      "hit": false,
      "t": 110769.12000000024,
      "d": 494.50500000000466,
      "v": 79
    },
    {
      "midi": 70,
      "hit": false,
      "t": 110769.12000000024,
      "d": 494.50500000000466,
      "v": 79
    },
    {
      "midi": 46,
      "hit": false,
      "t": 111263.62499999987,
      "d": 164.8350000000064,
      "v": 69
    },
    {
      "midi": 58,
      "hit": false,
      "t": 111263.62499999987,
      "d": 164.8350000000064,
      "v": 69
    },
    {
      "midi": 62,
      "hit": false,
      "t": 111263.62500000025,
      "d": 164.8350000000064,
      "v": 72
    },
    {
      "midi": 65,
      "hit": false,
      "t": 111263.62500000025,
      "d": 164.8350000000064,
      "v": 72
    },
    {
      "midi": 70,
      "hit": false,
      "t": 111263.62500000025,
      "d": 164.8350000000064,
      "v": 72
    },
    {
      "midi": 46,
      "hit": false,
      "t": 111428.45999999988,
      "d": 659.3399999999965,
      "v": 77
    },
    {
      "midi": 58,
      "hit": false,
      "t": 111428.45999999988,
      "d": 659.3399999999965,
      "v": 77
    },
    {
      "midi": 62,
      "hit": false,
      "t": 111428.46000000025,
      "d": 659.3399999999965,
      "v": 78
    },
    {
      "midi": 65,
      "hit": false,
      "t": 111428.46000000025,
      "d": 659.3399999999965,
      "v": 78
    },
    {
      "midi": 70,
      "hit": false,
      "t": 111428.46000000025,
      "d": 659.3399999999965,
      "v": 78
    },
    {
      "midi": 41,
      "hit": false,
      "t": 112087.79999999987,
      "d": 659.3399999999965,
      "v": 77
    },
    {
      "midi": 53,
      "hit": false,
      "t": 112087.79999999987,
      "d": 659.3399999999965,
      "v": 77
    },
    {
      "midi": 65,
      "hit": false,
      "t": 112087.80000000025,
      "d": 659.3399999999965,
      "v": 79
    },
    {
      "midi": 69,
      "hit": false,
      "t": 112087.80000000025,
      "d": 659.3399999999965,
      "v": 79
    },
    {
      "midi": 72,
      "hit": false,
      "t": 112087.80000000025,
      "d": 659.3399999999965,
      "v": 79
    },
    {
      "midi": 34,
      "hit": false,
      "t": 112747.13999999987,
      "d": 494.50500000000466,
      "v": 80
    },
    {
      "midi": 46,
      "hit": false,
      "t": 112747.13999999987,
      "d": 494.50500000000466,
      "v": 80
    },
    {
      "midi": 65,
      "hit": false,
      "t": 112747.14000000025,
      "d": 494.50500000000466,
      "v": 82
    },
    {
      "midi": 70,
      "hit": false,
      "t": 112747.14000000025,
      "d": 494.50500000000466,
      "v": 82
    },
    {
      "midi": 74,
      "hit": false,
      "t": 112747.14000000025,
      "d": 494.50500000000466,
      "v": 82
    },
    {
      "midi": 46,
      "hit": false,
      "t": 113241.64499999987,
      "d": 164.8350000000064,
      "v": 73
    },
    {
      "midi": 58,
      "hit": false,
      "t": 113241.64499999987,
      "d": 164.8350000000064,
      "v": 73
    },
    {
      "midi": 65,
      "hit": false,
      "t": 113241.64500000025,
      "d": 164.8350000000064,
      "v": 78
    },
    {
      "midi": 70,
      "hit": false,
      "t": 113241.64500000025,
      "d": 164.8350000000064,
      "v": 78
    },
    {
      "midi": 74,
      "hit": false,
      "t": 113241.64500000025,
      "d": 164.8350000000064,
      "v": 78
    },
    {
      "midi": 46,
      "hit": false,
      "t": 113406.47999999988,
      "d": 659.3399999999965,
      "v": 79
    },
    {
      "midi": 58,
      "hit": false,
      "t": 113406.47999999988,
      "d": 659.3399999999965,
      "v": 79
    },
    {
      "midi": 65,
      "hit": false,
      "t": 113406.48000000026,
      "d": 659.3399999999965,
      "v": 83
    },
    {
      "midi": 70,
      "hit": false,
      "t": 113406.48000000026,
      "d": 659.3399999999965,
      "v": 83
    },
    {
      "midi": 74,
      "hit": false,
      "t": 113406.48000000026,
      "d": 659.3399999999965,
      "v": 83
    },
    {
      "midi": 43,
      "hit": false,
      "t": 114065.81999999988,
      "d": 659.3399999999965,
      "v": 70
    },
    {
      "midi": 55,
      "hit": false,
      "t": 114065.81999999988,
      "d": 659.3399999999965,
      "v": 70
    },
    {
      "midi": 67,
      "hit": false,
      "t": 114065.82000000025,
      "d": 659.3399999999965,
      "v": 67
    },
    {
      "midi": 70,
      "hit": false,
      "t": 114065.82000000025,
      "d": 659.3399999999965,
      "v": 67
    },
    {
      "midi": 74,
      "hit": false,
      "t": 114065.82000000025,
      "d": 659.3399999999965,
      "v": 67
    },
    {
      "midi": 39,
      "hit": false,
      "t": 114725.15999999987,
      "d": 329.66999999999825,
      "v": 72
    },
    {
      "midi": 51,
      "hit": false,
      "t": 114725.15999999987,
      "d": 329.66999999999825,
      "v": 72
    },
    {
      "midi": 67,
      "hit": false,
      "t": 114725.16000000025,
      "d": 329.66999999999825,
      "v": 72
    },
    {
      "midi": 72,
      "hit": false,
      "t": 114725.16000000025,
      "d": 329.66999999999825,
      "v": 72
    },
    {
      "midi": 38,
      "hit": false,
      "t": 115054.82999999987,
      "d": 329.66999999999825,
      "v": 66
    },
    {
      "midi": 50,
      "hit": false,
      "t": 115054.82999999987,
      "d": 329.66999999999825,
      "v": 66
    },
    {
      "midi": 67,
      "hit": false,
      "t": 115054.83000000025,
      "d": 329.66999999999825,
      "v": 64
    },
    {
      "midi": 71,
      "hit": false,
      "t": 115054.83000000025,
      "d": 329.66999999999825,
      "v": 64
    },
    {
      "midi": 74,
      "hit": false,
      "t": 115054.83000000025,
      "d": 329.66999999999825,
      "v": 64
    },
    {
      "midi": 36,
      "hit": false,
      "t": 115384.49999999987,
      "d": 659.3399999999965,
      "v": 70
    },
    {
      "midi": 48,
      "hit": false,
      "t": 115384.49999999987,
      "d": 659.3399999999965,
      "v": 70
    },
    {
      "midi": 67,
      "hit": false,
      "t": 115384.50000000025,
      "d": 659.3399999999965,
      "v": 67
    },
    {
      "midi": 72,
      "hit": false,
      "t": 115384.50000000025,
      "d": 659.3399999999965,
      "v": 67
    },
    {
      "midi": 75,
      "hit": false,
      "t": 115384.50000000025,
      "d": 659.3399999999965,
      "v": 67
    },
    {
      "midi": 41,
      "hit": false,
      "t": 116043.83999999987,
      "d": 659.3399999999965,
      "v": 60
    },
    {
      "midi": 53,
      "hit": false,
      "t": 116043.83999999987,
      "d": 659.3399999999965,
      "v": 60
    },
    {
      "midi": 63,
      "hit": false,
      "t": 116043.84000000024,
      "d": 659.3399999999965,
      "v": 59
    },
    {
      "midi": 69,
      "hit": false,
      "t": 116043.84000000024,
      "d": 659.3399999999965,
      "v": 59
    },
    {
      "midi": 46,
      "hit": false,
      "t": 116703.17999999986,
      "d": 659.3399999999965,
      "v": 65
    },
    {
      "midi": 53,
      "hit": false,
      "t": 116703.17999999986,
      "d": 659.3399999999965,
      "v": 65
    },
    {
      "midi": 63,
      "hit": false,
      "t": 116703.18000000024,
      "d": 659.3399999999965,
      "v": 63
    },
    {
      "midi": 69,
      "hit": false,
      "t": 116703.18000000024,
      "d": 659.3399999999965,
      "v": 63
    },
    {
      "midi": 72,
      "hit": false,
      "t": 116703.18000000024,
      "d": 659.3399999999965,
      "v": 63
    },
    {
      "midi": 58,
      "hit": false,
      "t": 117362.51999999986,
      "d": 659.3399999999965,
      "v": 64
    },
    {
      "midi": 62,
      "hit": false,
      "t": 117362.52000000024,
      "d": 659.3399999999965,
      "v": 59
    },
    {
      "midi": 70,
      "hit": false,
      "t": 117362.52000000024,
      "d": 659.3399999999965,
      "v": 59
    },
    {
      "midi": 53,
      "hit": false,
      "t": 118021.85999999986,
      "d": 659.3399999999965,
      "v": 42
    },
    {
      "midi": 65,
      "hit": false,
      "t": 118021.85999999986,
      "d": 659.3399999999965,
      "v": 42
    },
    {
      "midi": 69,
      "hit": false,
      "t": 118021.86000000023,
      "d": 659.3399999999965,
      "v": 46
    },
    {
      "midi": 75,
      "hit": false,
      "t": 118021.86000000023,
      "d": 659.3399999999965,
      "v": 46
    },
    {
      "midi": 77,
      "hit": false,
      "t": 118021.86000000023,
      "d": 659.3399999999965,
      "v": 46
    },
    {
      "midi": 46,
      "hit": false,
      "t": 118681.19999999985,
      "d": 494.50500000000466,
      "v": 45
    },
    {
      "midi": 58,
      "hit": false,
      "t": 118681.19999999985,
      "d": 494.50500000000466,
      "v": 45
    },
    {
      "midi": 70,
      "hit": false,
      "t": 118681.20000000023,
      "d": 494.50500000000466,
      "v": 48
    },
    {
      "midi": 74,
      "hit": false,
      "t": 118681.20000000023,
      "d": 494.50500000000466,
      "v": 48
    },
    {
      "midi": 77,
      "hit": false,
      "t": 118681.20000000023,
      "d": 494.50500000000466,
      "v": 48
    },
    {
      "midi": 82,
      "hit": false,
      "t": 118681.20000000023,
      "d": 494.50500000000466,
      "v": 48
    },
    {
      "midi": 70,
      "hit": false,
      "t": 119175.70499999986,
      "d": 164.8350000000064,
      "v": 42
    },
    {
      "midi": 74,
      "hit": false,
      "t": 119175.70500000023,
      "d": 164.8350000000064,
      "v": 44
    },
    {
      "midi": 77,
      "hit": false,
      "t": 119175.70500000023,
      "d": 164.8350000000064,
      "v": 44
    },
    {
      "midi": 82,
      "hit": false,
      "t": 119175.70500000023,
      "d": 164.8350000000064,
      "v": 44
    },
    {
      "midi": 70,
      "hit": false,
      "t": 119340.53999999986,
      "d": 659.3399999999965,
      "v": 46
    },
    {
      "midi": 74,
      "hit": false,
      "t": 119340.54000000024,
      "d": 659.3399999999965,
      "v": 47
    },
    {
      "midi": 77,
      "hit": false,
      "t": 119340.54000000024,
      "d": 659.3399999999965,
      "v": 47
    },
    {
      "midi": 82,
      "hit": false,
      "t": 119340.54000000024,
      "d": 659.3399999999965,
      "v": 47
    },
    {
      "midi": 53,
      "hit": false,
      "t": 119999.87999999986,
      "d": 659.3399999999965,
      "v": 46
    },
    {
      "midi": 65,
      "hit": false,
      "t": 119999.87999999986,
      "d": 659.3399999999965,
      "v": 46
    },
    {
      "midi": 77,
      "hit": false,
      "t": 119999.88000000024,
      "d": 659.3399999999965,
      "v": 48
    },
    {
      "midi": 81,
      "hit": false,
      "t": 119999.88000000024,
      "d": 659.3399999999965,
      "v": 48
    },
    {
      "midi": 84,
      "hit": false,
      "t": 119999.88000000024,
      "d": 659.3399999999965,
      "v": 48
    },
    {
      "midi": 46,
      "hit": false,
      "t": 120659.21999999986,
      "d": 494.50500000000466,
      "v": 49
    },
    {
      "midi": 58,
      "hit": false,
      "t": 120659.21999999986,
      "d": 494.50500000000466,
      "v": 49
    },
    {
      "midi": 77,
      "hit": false,
      "t": 120659.22000000023,
      "d": 494.50500000000466,
      "v": 50
    },
    {
      "midi": 82,
      "hit": false,
      "t": 120659.22000000023,
      "d": 494.50500000000466,
      "v": 50
    },
    {
      "midi": 86,
      "hit": false,
      "t": 120659.22000000023,
      "d": 494.50500000000466,
      "v": 50
    },
    {
      "midi": 70,
      "hit": false,
      "t": 121153.72499999986,
      "d": 164.8350000000064,
      "v": 44
    },
    {
      "midi": 77,
      "hit": false,
      "t": 121153.72500000024,
      "d": 164.8350000000064,
      "v": 47
    },
    {
      "midi": 82,
      "hit": false,
      "t": 121153.72500000024,
      "d": 164.8350000000064,
      "v": 47
    },
    {
      "midi": 86,
      "hit": false,
      "t": 121153.72500000024,
      "d": 164.8350000000064,
      "v": 47
    },
    {
      "midi": 70,
      "hit": false,
      "t": 121318.55999999987,
      "d": 659.3399999999965,
      "v": 48
    },
    {
      "midi": 77,
      "hit": false,
      "t": 121318.56000000025,
      "d": 659.3399999999965,
      "v": 51
    },
    {
      "midi": 82,
      "hit": false,
      "t": 121318.56000000025,
      "d": 659.3399999999965,
      "v": 51
    },
    {
      "midi": 86,
      "hit": false,
      "t": 121318.56000000025,
      "d": 659.3399999999965,
      "v": 51
    },
    {
      "midi": 67,
      "hit": false,
      "t": 121977.89999999986,
      "d": 659.3399999999965,
      "v": 42
    },
    {
      "midi": 79,
      "hit": false,
      "t": 121977.90000000024,
      "d": 659.3399999999965,
      "v": 40
    },
    {
      "midi": 82,
      "hit": false,
      "t": 121977.90000000024,
      "d": 659.3399999999965,
      "v": 40
    },
    {
      "midi": 86,
      "hit": false,
      "t": 121977.90000000024,
      "d": 659.3399999999965,
      "v": 40
    },
    {
      "midi": 63,
      "hit": false,
      "t": 122637.23999999986,
      "d": 329.66999999999825,
      "v": 44
    },
    {
      "midi": 79,
      "hit": false,
      "t": 122637.24000000024,
      "d": 329.66999999999825,
      "v": 44
    },
    {
      "midi": 84,
      "hit": false,
      "t": 122637.24000000024,
      "d": 329.66999999999825,
      "v": 44
    },
    {
      "midi": 62,
      "hit": false,
      "t": 122966.90999999986,
      "d": 329.66999999999825,
      "v": 40
    },
    {
      "midi": 79,
      "hit": false,
      "t": 122966.91000000024,
      "d": 329.66999999999825,
      "v": 38
    },
    {
      "midi": 83,
      "hit": false,
      "t": 122966.91000000024,
      "d": 329.66999999999825,
      "v": 38
    },
    {
      "midi": 86,
      "hit": false,
      "t": 122966.91000000024,
      "d": 329.66999999999825,
      "v": 38
    },
    {
      "midi": 60,
      "hit": false,
      "t": 123296.57999999986,
      "d": 659.3399999999965,
      "v": 42
    },
    {
      "midi": 79,
      "hit": false,
      "t": 123296.58000000023,
      "d": 659.3399999999965,
      "v": 40
    },
    {
      "midi": 84,
      "hit": false,
      "t": 123296.58000000023,
      "d": 659.3399999999965,
      "v": 40
    },
    {
      "midi": 87,
      "hit": false,
      "t": 123296.58000000023,
      "d": 659.3399999999965,
      "v": 40
    },
    {
      "midi": 53,
      "hit": false,
      "t": 123955.91999999985,
      "d": 659.3399999999965,
      "v": 37
    },
    {
      "midi": 65,
      "hit": false,
      "t": 123955.91999999985,
      "d": 659.3399999999965,
      "v": 37
    },
    {
      "midi": 75,
      "hit": false,
      "t": 123955.92000000023,
      "d": 659.3399999999965,
      "v": 36
    },
    {
      "midi": 81,
      "hit": false,
      "t": 123955.92000000023,
      "d": 659.3399999999965,
      "v": 36
    },
    {
      "midi": 58,
      "hit": false,
      "t": 124615.25999999985,
      "d": 659.3399999999965,
      "v": 39
    },
    {
      "midi": 65,
      "hit": false,
      "t": 124615.25999999985,
      "d": 659.3399999999965,
      "v": 39
    },
    {
      "midi": 75,
      "hit": false,
      "t": 124615.26000000023,
      "d": 659.3399999999965,
      "v": 38
    },
    {
      "midi": 81,
      "hit": false,
      "t": 124615.26000000023,
      "d": 659.3399999999965,
      "v": 38
    },
    {
      "midi": 84,
      "hit": false,
      "t": 124615.26000000023,
      "d": 659.3399999999965,
      "v": 38
    },
    {
      "midi": 70,
      "hit": false,
      "t": 125274.59999999985,
      "d": 659.3399999999965,
      "v": 38
    },
    {
      "midi": 74,
      "hit": false,
      "t": 125274.60000000022,
      "d": 659.3399999999965,
      "v": 36
    },
    {
      "midi": 82,
      "hit": false,
      "t": 125274.60000000022,
      "d": 659.3399999999965,
      "v": 36
    },
    {
      "midi": 74,
      "hit": false,
      "t": 126263.61000000022,
      "d": 329.66999999999825,
      "v": 71
    },
    {
      "midi": 77,
      "hit": false,
      "t": 126263.61000000022,
      "d": 329.66999999999825,
      "v": 71
    },
    {
      "midi": 34,
      "hit": false,
      "t": 126593.27999999984,
      "d": 659.3399999999965,
      "v": 55
    },
    {
      "midi": 46,
      "hit": false,
      "t": 126593.27999999984,
      "d": 659.3399999999965,
      "v": 55
    },
    {
      "midi": 74,
      "hit": false,
      "t": 126593.28000000022,
      "d": 329.66999999999825,
      "v": 73
    },
    {
      "midi": 77,
      "hit": false,
      "t": 126593.28000000022,
      "d": 329.66999999999825,
      "v": 73
    },
    {
      "midi": 70,
      "hit": false,
      "t": 126922.95000000022,
      "d": 329.66999999999825,
      "v": 71
    },
    {
      "midi": 74,
      "hit": false,
      "t": 126922.95000000022,
      "d": 329.66999999999825,
      "v": 71
    },
    {
      "midi": 58,
      "hit": false,
      "t": 127252.61999999984,
      "d": 659.3399999999965,
      "v": 48
    },
    {
      "midi": 62,
      "hit": false,
      "t": 127252.61999999984,
      "d": 659.3399999999965,
      "v": 48
    },
    {
      "midi": 65,
      "hit": false,
      "t": 127252.61999999984,
      "d": 659.3399999999965,
      "v": 48
    },
    {
      "midi": 75,
      "hit": false,
      "t": 127252.62000000021,
      "d": 989.0099999999948,
      "v": 79
    },
    {
      "midi": 79,
      "hit": false,
      "t": 127252.62000000021,
      "d": 989.0099999999948,
      "v": 79
    },
    {
      "midi": 58,
      "hit": false,
      "t": 127911.95999999983,
      "d": 659.3399999999965,
      "v": 48
    },
    {
      "midi": 62,
      "hit": false,
      "t": 127911.95999999983,
      "d": 659.3399999999965,
      "v": 48
    },
    {
      "midi": 65,
      "hit": false,
      "t": 127911.95999999983,
      "d": 659.3399999999965,
      "v": 48
    },
    {
      "midi": 74,
      "hit": false,
      "t": 128241.63000000021,
      "d": 329.66999999999825,
      "v": 75
    },
    {
      "midi": 77,
      "hit": false,
      "t": 128241.63000000021,
      "d": 329.66999999999825,
      "v": 75
    },
    {
      "midi": 41,
      "hit": false,
      "t": 128571.29999999983,
      "d": 659.3399999999965,
      "v": 62
    },
    {
      "midi": 53,
      "hit": false,
      "t": 128571.29999999983,
      "d": 659.3399999999965,
      "v": 62
    },
    {
      "midi": 74,
      "hit": false,
      "t": 128571.3000000002,
      "d": 329.66999999999825,
      "v": 77
    },
    {
      "midi": 77,
      "hit": false,
      "t": 128571.3000000002,
      "d": 329.66999999999825,
      "v": 77
    },
    {
      "midi": 72,
      "hit": false,
      "t": 128900.9700000002,
      "d": 329.66999999999825,
      "v": 71
    },
    {
      "midi": 75,
      "hit": false,
      "t": 128900.9700000002,
      "d": 329.66999999999825,
      "v": 71
    },
    {
      "midi": 57,
      "hit": false,
      "t": 129230.63999999982,
      "d": 659.3399999999965,
      "v": 48
    },
    {
      "midi": 63,
      "hit": false,
      "t": 129230.63999999982,
      "d": 659.3399999999965,
      "v": 48
    },
    {
      "midi": 65,
      "hit": false,
      "t": 129230.63999999982,
      "d": 659.3399999999965,
      "v": 48
    },
    {
      "midi": 72,
      "hit": false,
      "t": 129230.6400000002,
      "d": 989.0099999999948,
      "v": 71
    },
    {
      "midi": 75,
      "hit": false,
      "t": 129230.6400000002,
      "d": 989.0099999999948,
      "v": 71
    },
    {
      "midi": 57,
      "hit": false,
      "t": 129889.97999999982,
      "d": 659.3399999999965,
      "v": 48
    },
    {
      "midi": 63,
      "hit": false,
      "t": 129889.97999999982,
      "d": 659.3399999999965,
      "v": 48
    },
    {
      "midi": 65,
      "hit": false,
      "t": 129889.97999999982,
      "d": 659.3399999999965,
      "v": 48
    },
    {
      "midi": 72,
      "hit": false,
      "t": 130219.6500000002,
      "d": 329.66999999999825,
      "v": 71
    },
    {
      "midi": 75,
      "hit": false,
      "t": 130219.6500000002,
      "d": 329.66999999999825,
      "v": 71
    },
    {
      "midi": 29,
      "hit": false,
      "t": 130549.31999999982,
      "d": 659.3400000000111,
      "v": 59
    },
    {
      "midi": 41,
      "hit": false,
      "t": 130549.31999999982,
      "d": 659.3400000000111,
      "v": 59
    },
    {
      "midi": 72,
      "hit": false,
      "t": 130549.3200000002,
      "d": 329.66999999999825,
      "v": 73
    },
    {
      "midi": 75,
      "hit": false,
      "t": 130549.3200000002,
      "d": 329.66999999999825,
      "v": 73
    },
    {
      "midi": 69,
      "hit": false,
      "t": 130878.9900000002,
      "d": 329.6700000000128,
      "v": 71
    },
    {
      "midi": 72,
      "hit": false,
      "t": 130878.9900000002,
      "d": 329.6700000000128,
      "v": 71
    },
    {
      "midi": 57,
      "hit": false,
      "t": 131208.65999999983,
      "d": 659.3399999999965,
      "v": 48
    },
    {
      "midi": 63,
      "hit": false,
      "t": 131208.65999999983,
      "d": 659.3399999999965,
      "v": 48
    },
    {
      "midi": 65,
      "hit": false,
      "t": 131208.65999999983,
      "d": 659.3399999999965,
      "v": 48
    },
    {
      "midi": 74,
      "hit": false,
      "t": 131208.6600000002,
      "d": 989.0100000000093,
      "v": 78
    },
    {
      "midi": 77,
      "hit": false,
      "t": 131208.6600000002,
      "d": 989.0100000000093,
      "v": 78
    },
    {
      "midi": 57,
      "hit": false,
      "t": 131867.99999999983,
      "d": 659.3399999999965,
      "v": 48
    },
    {
      "midi": 63,
      "hit": false,
      "t": 131867.99999999983,
      "d": 659.3399999999965,
      "v": 48
    },
    {
      "midi": 65,
      "hit": false,
      "t": 131867.99999999983,
      "d": 659.3399999999965,
      "v": 48
    },
    {
      "midi": 72,
      "hit": false,
      "t": 132197.67000000022,
      "d": 329.6700000000128,
      "v": 73
    },
    {
      "midi": 75,
      "hit": false,
      "t": 132197.67000000022,
      "d": 329.6700000000128,
      "v": 73
    },
    {
      "midi": 34,
      "hit": false,
      "t": 132527.33999999982,
      "d": 659.3399999999965,
      "v": 55
    },
    {
      "midi": 46,
      "hit": false,
      "t": 132527.33999999982,
      "d": 659.3399999999965,
      "v": 55
    },
    {
      "midi": 72,
      "hit": false,
      "t": 132527.34000000023,
      "d": 329.6700000000128,
      "v": 77
    },
    {
      "midi": 75,
      "hit": false,
      "t": 132527.34000000023,
      "d": 329.6700000000128,
      "v": 77
    },
    {
      "midi": 70,
      "hit": false,
      "t": 132857.01000000024,
      "d": 329.6700000000128,
      "v": 71
    },
    {
      "midi": 74,
      "hit": false,
      "t": 132857.01000000024,
      "d": 329.6700000000128,
      "v": 71
    },
    {
      "midi": 58,
      "hit": false,
      "t": 133186.67999999982,
      "d": 659.3399999999965,
      "v": 48
    },
    {
      "midi": 62,
      "hit": false,
      "t": 133186.67999999982,
      "d": 659.3399999999965,
      "v": 48
    },
    {
      "midi": 65,
      "hit": false,
      "t": 133186.67999999982,
      "d": 659.3399999999965,
      "v": 48
    },
    {
      "midi": 70,
      "hit": false,
      "t": 133186.68000000025,
      "d": 659.3399999999965,
      "v": 71
    },
    {
      "midi": 74,
      "hit": false,
      "t": 133186.68000000025,
      "d": 659.3399999999965,
      "v": 71
    },
    {
      "midi": 41,
      "hit": false,
      "t": 133846.01999999981,
      "d": 659.3399999999965,
      "v": 69
    },
    {
      "midi": 53,
      "hit": false,
      "t": 133846.01999999981,
      "d": 659.3399999999965,
      "v": 69
    },
    {
      "midi": 57,
      "hit": false,
      "t": 133846.02000000025,
      "d": 659.3399999999965,
      "v": 77
    },
    {
      "midi": 63,
      "hit": false,
      "t": 133846.02000000025,
      "d": 659.3399999999965,
      "v": 77
    },
    {
      "midi": 65,
      "hit": false,
      "t": 133846.02000000025,
      "d": 659.3399999999965,
      "v": 77
    },
    {
      "midi": 34,
      "hit": false,
      "t": 134505.3599999998,
      "d": 494.50500000000466,
      "v": 74
    },
    {
      "midi": 46,
      "hit": false,
      "t": 134505.3599999998,
      "d": 494.50500000000466,
      "v": 74
    },
    {
      "midi": 58,
      "hit": false,
      "t": 134505.36000000025,
      "d": 494.50500000000466,
      "v": 79
    },
    {
      "midi": 62,
      "hit": false,
      "t": 134505.36000000025,
      "d": 494.50500000000466,
      "v": 79
    },
    {
      "midi": 65,
      "hit": false,
      "t": 134505.36000000025,
      "d": 494.50500000000466,
      "v": 79
    },
    {
      "midi": 70,
      "hit": false,
      "t": 134505.36000000025,
      "d": 494.50500000000466,
      "v": 79
    },
    {
      "midi": 46,
      "hit": false,
      "t": 134999.86499999982,
      "d": 164.83499999999185,
      "v": 69
    },
    {
      "midi": 58,
      "hit": false,
      "t": 134999.86499999982,
      "d": 164.83499999999185,
      "v": 69
    },
    {
      "midi": 62,
      "hit": false,
      "t": 134999.86500000025,
      "d": 164.83499999999185,
      "v": 72
    },
    {
      "midi": 65,
      "hit": false,
      "t": 134999.86500000025,
      "d": 164.83499999999185,
      "v": 72
    },
    {
      "midi": 70,
      "hit": false,
      "t": 134999.86500000025,
      "d": 164.83499999999185,
      "v": 72
    },
    {
      "midi": 46,
      "hit": false,
      "t": 135164.6999999998,
      "d": 659.3399999999965,
      "v": 77
    },
    {
      "midi": 58,
      "hit": false,
      "t": 135164.6999999998,
      "d": 659.3399999999965,
      "v": 77
    },
    {
      "midi": 62,
      "hit": false,
      "t": 135164.70000000024,
      "d": 659.3399999999965,
      "v": 78
    },
    {
      "midi": 65,
      "hit": false,
      "t": 135164.70000000024,
      "d": 659.3399999999965,
      "v": 78
    },
    {
      "midi": 70,
      "hit": false,
      "t": 135164.70000000024,
      "d": 659.3399999999965,
      "v": 78
    },
    {
      "midi": 41,
      "hit": false,
      "t": 135824.0399999998,
      "d": 659.3399999999965,
      "v": 77
    },
    {
      "midi": 53,
      "hit": false,
      "t": 135824.0399999998,
      "d": 659.3399999999965,
      "v": 77
    },
    {
      "midi": 65,
      "hit": false,
      "t": 135824.04000000024,
      "d": 659.3399999999965,
      "v": 79
    },
    {
      "midi": 69,
      "hit": false,
      "t": 135824.04000000024,
      "d": 659.3399999999965,
      "v": 79
    },
    {
      "midi": 72,
      "hit": false,
      "t": 135824.04000000024,
      "d": 659.3399999999965,
      "v": 79
    },
    {
      "midi": 34,
      "hit": false,
      "t": 136483.3799999998,
      "d": 494.50500000000466,
      "v": 80
    },
    {
      "midi": 46,
      "hit": false,
      "t": 136483.3799999998,
      "d": 494.50500000000466,
      "v": 80
    },
    {
      "midi": 65,
      "hit": false,
      "t": 136483.38000000024,
      "d": 494.50500000000466,
      "v": 82
    },
    {
      "midi": 70,
      "hit": false,
      "t": 136483.38000000024,
      "d": 494.50500000000466,
      "v": 82
    },
    {
      "midi": 74,
      "hit": false,
      "t": 136483.38000000024,
      "d": 494.50500000000466,
      "v": 82
    },
    {
      "midi": 46,
      "hit": false,
      "t": 136977.8849999998,
      "d": 164.83499999999185,
      "v": 73
    },
    {
      "midi": 58,
      "hit": false,
      "t": 136977.8849999998,
      "d": 164.83499999999185,
      "v": 73
    },
    {
      "midi": 65,
      "hit": false,
      "t": 136977.88500000024,
      "d": 164.83499999999185,
      "v": 78
    },
    {
      "midi": 70,
      "hit": false,
      "t": 136977.88500000024,
      "d": 164.83499999999185,
      "v": 78
    },
    {
      "midi": 74,
      "hit": false,
      "t": 136977.88500000024,
      "d": 164.83499999999185,
      "v": 78
    },
    {
      "midi": 46,
      "hit": false,
      "t": 137142.7199999998,
      "d": 659.3399999999965,
      "v": 79
    },
    {
      "midi": 58,
      "hit": false,
      "t": 137142.7199999998,
      "d": 659.3399999999965,
      "v": 79
    },
    {
      "midi": 65,
      "hit": false,
      "t": 137142.72000000023,
      "d": 659.3399999999965,
      "v": 83
    },
    {
      "midi": 70,
      "hit": false,
      "t": 137142.72000000023,
      "d": 659.3399999999965,
      "v": 83
    },
    {
      "midi": 74,
      "hit": false,
      "t": 137142.72000000023,
      "d": 659.3399999999965,
      "v": 83
    },
    {
      "midi": 43,
      "hit": false,
      "t": 137802.0599999998,
      "d": 659.3399999999965,
      "v": 64
    },
    {
      "midi": 55,
      "hit": false,
      "t": 137802.0599999998,
      "d": 659.3399999999965,
      "v": 64
    },
    {
      "midi": 67,
      "hit": false,
      "t": 137802.06000000023,
      "d": 659.3399999999965,
      "v": 62
    },
    {
      "midi": 70,
      "hit": false,
      "t": 137802.06000000023,
      "d": 659.3399999999965,
      "v": 62
    },
    {
      "midi": 74,
      "hit": false,
      "t": 137802.06000000023,
      "d": 659.3399999999965,
      "v": 62
    },
    {
      "midi": 39,
      "hit": false,
      "t": 138461.3999999998,
      "d": 329.6700000000128,
      "v": 66
    },
    {
      "midi": 51,
      "hit": false,
      "t": 138461.3999999998,
      "d": 329.6700000000128,
      "v": 66
    },
    {
      "midi": 67,
      "hit": false,
      "t": 138461.40000000023,
      "d": 329.6700000000128,
      "v": 66
    },
    {
      "midi": 72,
      "hit": false,
      "t": 138461.40000000023,
      "d": 329.6700000000128,
      "v": 66
    },
    {
      "midi": 38,
      "hit": false,
      "t": 138791.0699999998,
      "d": 329.6700000000128,
      "v": 60
    },
    {
      "midi": 50,
      "hit": false,
      "t": 138791.0699999998,
      "d": 329.6700000000128,
      "v": 60
    },
    {
      "midi": 67,
      "hit": false,
      "t": 138791.07000000024,
      "d": 329.6700000000128,
      "v": 58
    },
    {
      "midi": 71,
      "hit": false,
      "t": 138791.07000000024,
      "d": 329.6700000000128,
      "v": 58
    },
    {
      "midi": 74,
      "hit": false,
      "t": 138791.07000000024,
      "d": 329.6700000000128,
      "v": 58
    },
    {
      "midi": 36,
      "hit": false,
      "t": 139120.73999999982,
      "d": 659.3399999999965,
      "v": 64
    },
    {
      "midi": 48,
      "hit": false,
      "t": 139120.73999999982,
      "d": 659.3399999999965,
      "v": 64
    },
    {
      "midi": 67,
      "hit": false,
      "t": 139120.74000000025,
      "d": 659.3399999999965,
      "v": 62
    },
    {
      "midi": 72,
      "hit": false,
      "t": 139120.74000000025,
      "d": 659.3399999999965,
      "v": 62
    },
    {
      "midi": 75,
      "hit": false,
      "t": 139120.74000000025,
      "d": 659.3399999999965,
      "v": 62
    },
    {
      "midi": 41,
      "hit": false,
      "t": 139780.0799999998,
      "d": 659.3399999999965,
      "v": 56
    },
    {
      "midi": 53,
      "hit": false,
      "t": 139780.0799999998,
      "d": 659.3399999999965,
      "v": 56
    },
    {
      "midi": 63,
      "hit": false,
      "t": 139780.08000000025,
      "d": 659.3399999999965,
      "v": 55
    },
    {
      "midi": 69,
      "hit": false,
      "t": 139780.08000000025,
      "d": 659.3399999999965,
      "v": 55
    },
    {
      "midi": 46,
      "hit": false,
      "t": 140439.4199999998,
      "d": 659.3399999999965,
      "v": 59
    },
    {
      "midi": 53,
      "hit": false,
      "t": 140439.4199999998,
      "d": 659.3399999999965,
      "v": 59
    },
    {
      "midi": 63,
      "hit": false,
      "t": 140439.42000000025,
      "d": 659.3399999999965,
      "v": 57
    },
    {
      "midi": 69,
      "hit": false,
      "t": 140439.42000000025,
      "d": 659.3399999999965,
      "v": 57
    },
    {
      "midi": 72,
      "hit": false,
      "t": 140439.42000000025,
      "d": 659.3399999999965,
      "v": 57
    },
    {
      "midi": 58,
      "hit": false,
      "t": 141098.7599999998,
      "d": 659.3399999999965,
      "v": 58
    },
    {
      "midi": 62,
      "hit": false,
      "t": 141098.76000000024,
      "d": 659.3399999999965,
      "v": 55
    },
    {
      "midi": 70,
      "hit": false,
      "t": 141098.76000000024,
      "d": 659.3399999999965,
      "v": 55
    },
    {
      "midi": 67,
      "hit": false,
      "t": 141758.0999999998,
      "d": 659.3399999999965,
      "v": 39
    },
    {
      "midi": 79,
      "hit": false,
      "t": 141758.10000000024,
      "d": 659.3399999999965,
      "v": 37
    },
    {
      "midi": 82,
      "hit": false,
      "t": 141758.10000000024,
      "d": 659.3399999999965,
      "v": 37
    },
    {
      "midi": 86,
      "hit": false,
      "t": 141758.10000000024,
      "d": 659.3399999999965,
      "v": 37
    },
    {
      "midi": 63,
      "hit": false,
      "t": 142417.4399999998,
      "d": 329.6700000000128,
      "v": 40
    },
    {
      "midi": 79,
      "hit": false,
      "t": 142417.44000000024,
      "d": 329.6700000000128,
      "v": 40
    },
    {
      "midi": 84,
      "hit": false,
      "t": 142417.44000000024,
      "d": 329.6700000000128,
      "v": 40
    },
    {
      "midi": 62,
      "hit": false,
      "t": 142747.1099999998,
      "d": 329.6700000000128,
      "v": 37
    },
    {
      "midi": 79,
      "hit": false,
      "t": 142747.11000000025,
      "d": 329.6700000000128,
      "v": 35
    },
    {
      "midi": 83,
      "hit": false,
      "t": 142747.11000000025,
      "d": 329.6700000000128,
      "v": 35
    },
    {
      "midi": 86,
      "hit": false,
      "t": 142747.11000000025,
      "d": 329.6700000000128,
      "v": 35
    },
    {
      "midi": 60,
      "hit": false,
      "t": 143076.77999999982,
      "d": 659.3399999999965,
      "v": 39
    },
    {
      "midi": 79,
      "hit": false,
      "t": 143076.78000000026,
      "d": 659.3399999999965,
      "v": 37
    },
    {
      "midi": 84,
      "hit": false,
      "t": 143076.78000000026,
      "d": 659.3399999999965,
      "v": 37
    },
    {
      "midi": 87,
      "hit": false,
      "t": 143076.78000000026,
      "d": 659.3399999999965,
      "v": 37
    },
    {
      "midi": 65,
      "hit": false,
      "t": 143736.11999999982,
      "d": 659.3399999999965,
      "v": 34
    },
    {
      "midi": 75,
      "hit": false,
      "t": 143736.12000000026,
      "d": 659.3399999999965,
      "v": 33
    },
    {
      "midi": 81,
      "hit": false,
      "t": 143736.12000000026,
      "d": 659.3399999999965,
      "v": 33
    },
    {
      "midi": 58,
      "hit": false,
      "t": 144395.45999999982,
      "d": 659.3399999999965,
      "v": 36
    },
    {
      "midi": 65,
      "hit": false,
      "t": 144395.45999999982,
      "d": 659.3399999999965,
      "v": 36
    },
    {
      "midi": 75,
      "hit": false,
      "t": 144395.46000000025,
      "d": 659.3399999999965,
      "v": 35
    },
    {
      "midi": 81,
      "hit": false,
      "t": 144395.46000000025,
      "d": 659.3399999999965,
      "v": 35
    },
    {
      "midi": 84,
      "hit": false,
      "t": 144395.46000000025,
      "d": 659.3399999999965,
      "v": 35
    },
    {
      "midi": 70,
      "hit": false,
      "t": 145054.7999999998,
      "d": 659.3399999999965,
      "v": 35
    },
    {
      "midi": 74,
      "hit": false,
      "t": 145054.80000000025,
      "d": 659.3399999999965,
      "v": 33
    },
    {
      "midi": 82,
      "hit": false,
      "t": 145054.80000000025,
      "d": 659.3399999999965,
      "v": 33
    },
    {
      "midi": 77,
      "hit": false,
      "t": 145714.14000000025,
      "d": 164.83499999999185,
      "v": 57
    },
    {
      "midi": 82,
      "hit": false,
      "t": 145878.97500000024,
      "d": 164.83499999999185,
      "v": 59
    },
    {
      "midi": 86,
      "hit": false,
      "t": 146043.81000000023,
      "d": 164.83499999999185,
      "v": 62
    },
    {
      "midi": 89,
      "hit": false,
      "t": 146208.64500000022,
      "d": 164.83499999999185,
      "v": 66
    },
    {
      "midi": 41,
      "hit": false,
      "t": 146373.4799999998,
      "d": 659.3399999999965,
      "v": 44
    },
    {
      "midi": 53,
      "hit": false,
      "t": 146373.4799999998,
      "d": 659.3399999999965,
      "v": 44
    },
    {
      "midi": 89,
      "hit": false,
      "t": 146373.4800000002,
      "d": 164.83499999999185,
      "v": 77
    },
    {
      "midi": 87,
      "hit": false,
      "t": 146538.3150000002,
      "d": 164.83499999999185,
      "v": 63
    },
    {
      "midi": 84,
      "hit": false,
      "t": 146703.1500000002,
      "d": 164.83499999999185,
      "v": 60
    },
    {
      "midi": 77,
      "hit": false,
      "t": 146867.9850000002,
      "d": 164.83499999999185,
      "v": 60
    },
    {
      "midi": 57,
      "hit": false,
      "t": 147032.8199999998,
      "d": 659.3399999999965,
      "v": 38
    },
    {
      "midi": 63,
      "hit": false,
      "t": 147032.8199999998,
      "d": 659.3399999999965,
      "v": 38
    },
    {
      "midi": 65,
      "hit": false,
      "t": 147032.8199999998,
      "d": 659.3399999999965,
      "v": 38
    },
    {
      "midi": 89,
      "hit": false,
      "t": 147032.82000000018,
      "d": 164.83499999999185,
      "v": 77
    },
    {
      "midi": 87,
      "hit": false,
      "t": 147197.65500000017,
      "d": 164.83499999999185,
      "v": 62
    },
    {
      "midi": 84,
      "hit": false,
      "t": 147362.49000000017,
      "d": 164.83499999999185,
      "v": 60
    },
    {
      "midi": 77,
      "hit": false,
      "t": 147527.32500000016,
      "d": 164.83499999999185,
      "v": 60
    },
    {
      "midi": 57,
      "hit": false,
      "t": 147692.1599999998,
      "d": 659.3399999999965,
      "v": 38
    },
    {
      "midi": 63,
      "hit": false,
      "t": 147692.1599999998,
      "d": 659.3399999999965,
      "v": 38
    },
    {
      "midi": 65,
      "hit": false,
      "t": 147692.1599999998,
      "d": 659.3399999999965,
      "v": 38
    },
    {
      "midi": 76,
      "hit": false,
      "t": 147692.16000000015,
      "d": 164.83499999999185,
      "v": 60
    },
    {
      "midi": 77,
      "hit": false,
      "t": 147856.99500000014,
      "d": 164.83499999999185,
      "v": 57
    },
    {
      "midi": 81,
      "hit": false,
      "t": 148021.83000000013,
      "d": 164.83499999999185,
      "v": 60
    },
    {
      "midi": 84,
      "hit": false,
      "t": 148186.66500000012,
      "d": 164.83499999999185,
      "v": 57
    },
    {
      "midi": 34,
      "hit": false,
      "t": 148351.4999999998,
      "d": 659.3399999999965,
      "v": 49
    },
    {
      "midi": 46,
      "hit": false,
      "t": 148351.4999999998,
      "d": 659.3399999999965,
      "v": 49
    },
    {
      "midi": 87,
      "hit": false,
      "t": 148351.50000000012,
      "d": 164.83499999999185,
      "v": 77
    },
    {
      "midi": 86,
      "hit": false,
      "t": 148516.3350000001,
      "d": 164.83499999999185,
      "v": 62
    },
    {
      "midi": 82,
      "hit": false,
      "t": 148681.1700000001,
      "d": 164.83499999999185,
      "v": 58
    },
    {
      "midi": 77,
      "hit": false,
      "t": 148846.0050000001,
      "d": 164.83499999999185,
      "v": 58
    },
    {
      "midi": 53,
      "hit": false,
      "t": 149010.8399999998,
      "d": 659.3399999999965,
      "v": 37
    },
    {
      "midi": 58,
      "hit": false,
      "t": 149010.8399999998,
      "d": 659.3399999999965,
      "v": 37
    },
    {
      "midi": 62,
      "hit": false,
      "t": 149010.8399999998,
      "d": 659.3399999999965,
      "v": 37
    },
    {
      "midi": 87,
      "hit": false,
      "t": 149010.84000000008,
      "d": 164.83499999999185,
      "v": 75
    },
    {
      "midi": 86,
      "hit": false,
      "t": 149175.67500000008,
      "d": 164.83499999999185,
      "v": 61
    },
    {
      "midi": 82,
      "hit": false,
      "t": 149340.51000000007,
      "d": 164.83499999999185,
      "v": 57
    },
    {
      "midi": 77,
      "hit": false,
      "t": 149505.34500000006,
      "d": 164.83499999999185,
      "v": 57
    },
    {
      "midi": 53,
      "hit": false,
      "t": 149670.1799999998,
      "d": 659.3399999999965,
      "v": 37
    },
    {
      "midi": 58,
      "hit": false,
      "t": 149670.1799999998,
      "d": 659.3399999999965,
      "v": 37
    },
    {
      "midi": 62,
      "hit": false,
      "t": 149670.1799999998,
      "d": 659.3399999999965,
      "v": 37
    },
    {
      "midi": 76,
      "hit": false,
      "t": 149670.18000000005,
      "d": 164.83499999999185,
      "v": 57
    },
    {
      "midi": 77,
      "hit": false,
      "t": 149835.01500000004,
      "d": 164.83499999999185,
      "v": 55
    },
    {
      "midi": 76,
      "hit": false,
      "t": 149999.85000000003,
      "d": 164.83499999999185,
      "v": 57
    },
    {
      "midi": 77,
      "hit": false,
      "t": 150164.68500000003,
      "d": 164.83499999999185,
      "v": 55
    },
    {
      "midi": 41,
      "hit": false,
      "t": 150329.5199999998,
      "d": 659.3399999999965,
      "v": 50
    },
    {
      "midi": 53,
      "hit": false,
      "t": 150329.5199999998,
      "d": 659.3399999999965,
      "v": 50
    },
    {
      "midi": 81,
      "hit": false,
      "t": 150329.52000000002,
      "d": 164.83499999999185,
      "v": 72
    },
    {
      "midi": 69,
      "hit": false,
      "t": 150494.355,
      "d": 164.83499999999185,
      "v": 45
    },
    {
      "midi": 79,
      "hit": false,
      "t": 150659.19,
      "d": 164.83499999999185,
      "v": 69
    },
    {
      "midi": 69,
      "hit": false,
      "t": 150824.025,
      "d": 164.83499999999185,
      "v": 47
    },
    {
      "midi": 53,
      "hit": false,
      "t": 150988.85999999978,
      "d": 659.3399999999965,
      "v": 39
    },
    {
      "midi": 60,
      "hit": false,
      "t": 150988.85999999978,
      "d": 659.3399999999965,
      "v": 39
    },
    {
      "midi": 63,
      "hit": false,
      "t": 150988.85999999978,
      "d": 659.3399999999965,
      "v": 39
    },
    {
      "midi": 77,
      "hit": false,
      "t": 150988.86,
      "d": 164.83499999999185,
      "v": 71
    },
    {
      "midi": 69,
      "hit": false,
      "t": 151153.69499999998,
      "d": 164.83499999999185,
      "v": 47
    },
    {
      "midi": 75,
      "hit": false,
      "t": 151318.52999999997,
      "d": 164.83499999999185,
      "v": 71
    },
    {
      "midi": 69,
      "hit": false,
      "t": 151483.36499999996,
      "d": 164.83499999999185,
      "v": 48
    },
    {
      "midi": 53,
      "hit": false,
      "t": 151648.19999999978,
      "d": 659.3399999999965,
      "v": 39
    },
    {
      "midi": 60,
      "hit": false,
      "t": 151648.19999999978,
      "d": 659.3399999999965,
      "v": 39
    },
    {
      "midi": 63,
      "hit": false,
      "t": 151648.19999999978,
      "d": 659.3399999999965,
      "v": 39
    },
    {
      "midi": 74,
      "hit": false,
      "t": 151648.19999999995,
      "d": 164.83499999999185,
      "v": 73
    },
    {
      "midi": 69,
      "hit": false,
      "t": 151813.03499999995,
      "d": 164.83499999999185,
      "v": 49
    },
    {
      "midi": 72,
      "hit": false,
      "t": 151977.86999999994,
      "d": 164.83499999999185,
      "v": 74
    },
    {
      "midi": 69,
      "hit": false,
      "t": 152142.70499999993,
      "d": 164.83499999999185,
      "v": 51
    },
    {
      "midi": 34,
      "hit": false,
      "t": 152307.53999999978,
      "d": 659.3399999999965,
      "v": 49
    },
    {
      "midi": 46,
      "hit": false,
      "t": 152307.53999999978,
      "d": 659.3399999999965,
      "v": 49
    },
    {
      "midi": 75,
      "hit": false,
      "t": 152307.53999999992,
      "d": 659.3399999999965,
      "v": 78
    },
    {
      "midi": 79,
      "hit": false,
      "t": 152307.53999999992,
      "d": 659.3399999999965,
      "v": 78
    },
    {
      "midi": 53,
      "hit": false,
      "t": 152966.87999999977,
      "d": 659.3399999999965,
      "v": 36
    },
    {
      "midi": 58,
      "hit": false,
      "t": 152966.87999999977,
      "d": 659.3399999999965,
      "v": 36
    },
    {
      "midi": 62,
      "hit": false,
      "t": 152966.87999999977,
      "d": 659.3399999999965,
      "v": 36
    },
    {
      "midi": 74,
      "hit": false,
      "t": 152966.87999999992,
      "d": 659.3399999999965,
      "v": 66
    },
    {
      "midi": 77,
      "hit": false,
      "t": 152966.87999999992,
      "d": 659.3399999999965,
      "v": 66
    },
    {
      "midi": 53,
      "hit": false,
      "t": 153626.21999999977,
      "d": 659.3399999999965,
      "v": 39
    },
    {
      "midi": 58,
      "hit": false,
      "t": 153626.21999999977,
      "d": 659.3399999999965,
      "v": 39
    },
    {
      "midi": 62,
      "hit": false,
      "t": 153626.21999999977,
      "d": 659.3399999999965,
      "v": 39
    },
    {
      "midi": 77,
      "hit": false,
      "t": 153626.2199999999,
      "d": 164.83499999999185,
      "v": 62
    },
    {
      "midi": 82,
      "hit": false,
      "t": 153791.0549999999,
      "d": 164.83499999999185,
      "v": 64
    },
    {
      "midi": 86,
      "hit": false,
      "t": 153955.8899999999,
      "d": 164.83499999999185,
      "v": 68
    },
    {
      "midi": 89,
      "hit": false,
      "t": 154120.7249999999,
      "d": 164.83499999999185,
      "v": 72
    },
    {
      "midi": 41,
      "hit": false,
      "t": 154285.55999999976,
      "d": 659.3399999999965,
      "v": 48
    },
    {
      "midi": 53,
      "hit": false,
      "t": 154285.55999999976,
      "d": 659.3399999999965,
      "v": 48
    },
    {
      "midi": 89,
      "hit": false,
      "t": 154285.55999999988,
      "d": 164.83499999999185,
      "v": 84
    },
    {
      "midi": 87,
      "hit": false,
      "t": 154450.39499999987,
      "d": 164.83499999999185,
      "v": 69
    },
    {
      "midi": 84,
      "hit": false,
      "t": 154615.22999999986,
      "d": 164.83499999999185,
      "v": 66
    },
    {
      "midi": 77,
      "hit": false,
      "t": 154780.06499999986,
      "d": 164.83499999999185,
      "v": 66
    },
    {
      "midi": 57,
      "hit": false,
      "t": 154944.89999999976,
      "d": 659.3399999999965,
      "v": 41
    },
    {
      "midi": 63,
      "hit": false,
      "t": 154944.89999999976,
      "d": 659.3399999999965,
      "v": 41
    },
    {
      "midi": 65,
      "hit": false,
      "t": 154944.89999999976,
      "d": 659.3399999999965,
      "v": 41
    },
    {
      "midi": 89,
      "hit": false,
      "t": 154944.89999999985,
      "d": 164.83499999999185,
      "v": 84
    },
    {
      "midi": 87,
      "hit": false,
      "t": 155109.73499999984,
      "d": 164.83499999999185,
      "v": 68
    },
    {
      "midi": 84,
      "hit": false,
      "t": 155274.56999999983,
      "d": 164.83499999999185,
      "v": 66
    },
    {
      "midi": 77,
      "hit": false,
      "t": 155439.40499999982,
      "d": 164.83499999999185,
      "v": 66
    },
    {
      "midi": 57,
      "hit": false,
      "t": 155604.23999999976,
      "d": 659.3399999999965,
      "v": 41
    },
    {
      "midi": 63,
      "hit": false,
      "t": 155604.23999999976,
      "d": 659.3399999999965,
      "v": 41
    },
    {
      "midi": 65,
      "hit": false,
      "t": 155604.23999999976,
      "d": 659.3399999999965,
      "v": 41
    },
    {
      "midi": 76,
      "hit": false,
      "t": 155604.23999999982,
      "d": 164.83499999999185,
      "v": 66
    },
    {
      "midi": 77,
      "hit": false,
      "t": 155769.0749999998,
      "d": 164.83499999999185,
      "v": 62
    },
    {
      "midi": 81,
      "hit": false,
      "t": 155933.9099999998,
      "d": 164.83499999999185,
      "v": 66
    },
    {
      "midi": 84,
      "hit": false,
      "t": 156098.7449999998,
      "d": 164.83499999999185,
      "v": 62
    },
    {
      "midi": 34,
      "hit": false,
      "t": 156263.57999999975,
      "d": 659.3399999999965,
      "v": 53
    },
    {
      "midi": 46,
      "hit": false,
      "t": 156263.57999999975,
      "d": 659.3399999999965,
      "v": 53
    },
    {
      "midi": 87,
      "hit": false,
      "t": 156263.57999999978,
      "d": 164.83499999999185,
      "v": 85
    },
    {
      "midi": 86,
      "hit": false,
      "t": 156428.41499999978,
      "d": 164.83499999999185,
      "v": 68
    },
    {
      "midi": 82,
      "hit": false,
      "t": 156593.24999999977,
      "d": 164.83499999999185,
      "v": 63
    },
    {
      "midi": 77,
      "hit": false,
      "t": 156758.08499999976,
      "d": 164.83499999999185,
      "v": 63
    },
    {
      "midi": 87,
      "hit": false,
      "t": 156922.91999999975,
      "d": 164.83499999999185,
      "v": 85
    },
    {
      "midi": 53,
      "hit": false,
      "t": 156922.91999999975,
      "d": 659.3399999999965,
      "v": 40
    },
    {
      "midi": 58,
      "hit": false,
      "t": 156922.91999999975,
      "d": 659.3399999999965,
      "v": 40
    },
    {
      "midi": 62,
      "hit": false,
      "t": 156922.91999999975,
      "d": 659.3399999999965,
      "v": 40
    },
    {
      "midi": 86,
      "hit": false,
      "t": 157087.75499999974,
      "d": 164.83499999999185,
      "v": 67
    },
    {
      "midi": 82,
      "hit": false,
      "t": 157252.58999999973,
      "d": 164.83499999999185,
      "v": 62
    },
    {
      "midi": 77,
      "hit": false,
      "t": 157417.42499999973,
      "d": 164.83499999999185,
      "v": 62
    },
    {
      "midi": 76,
      "hit": false,
      "t": 157582.25999999972,
      "d": 164.83499999999185,
      "v": 67
    },
    {
      "midi": 53,
      "hit": false,
      "t": 157582.25999999975,
      "d": 659.3399999999965,
      "v": 40
    },
    {
      "midi": 58,
      "hit": false,
      "t": 157582.25999999975,
      "d": 659.3399999999965,
      "v": 40
    },
    {
      "midi": 62,
      "hit": false,
      "t": 157582.25999999975,
      "d": 659.3399999999965,
      "v": 40
    },
    {
      "midi": 77,
      "hit": false,
      "t": 157747.0949999997,
      "d": 164.83499999999185,
      "v": 65
    },
    {
      "midi": 76,
      "hit": false,
      "t": 157911.9299999997,
      "d": 164.83499999999185,
      "v": 71
    },
    {
      "midi": 77,
      "hit": false,
      "t": 158076.7649999997,
      "d": 164.83499999999185,
      "v": 67
    },
    {
      "midi": 79,
      "hit": false,
      "t": 158241.5999999997,
      "d": 164.83499999999185,
      "v": 73
    },
    {
      "midi": 51,
      "hit": false,
      "t": 158241.59999999974,
      "d": 1978.0199999999895,
      "v": 56
    },
    {
      "midi": 55,
      "hit": false,
      "t": 158241.59999999974,
      "d": 1978.0199999999895,
      "v": 56
    },
    {
      "midi": 60,
      "hit": false,
      "t": 158241.59999999974,
      "d": 1978.0199999999895,
      "v": 56
    },
    {
      "midi": 77,
      "hit": false,
      "t": 158406.43499999968,
      "d": 164.83499999999185,
      "v": 70
    },
    {
      "midi": 75,
      "hit": false,
      "t": 158571.26999999967,
      "d": 164.83499999999185,
      "v": 70
    },
    {
      "midi": 74,
      "hit": false,
      "t": 158736.10499999966,
      "d": 164.83499999999185,
      "v": 70
    },
    {
      "midi": 72,
      "hit": false,
      "t": 158900.93999999965,
      "d": 164.83499999999185,
      "v": 70
    },
    {
      "midi": 74,
      "hit": false,
      "t": 159065.77499999964,
      "d": 164.83499999999185,
      "v": 70
    },
    {
      "midi": 75,
      "hit": false,
      "t": 159230.60999999964,
      "d": 164.83499999999185,
      "v": 69
    },
    {
      "midi": 77,
      "hit": false,
      "t": 159395.44499999963,
      "d": 164.83499999999185,
      "v": 70
    },
    {
      "midi": 79,
      "hit": false,
      "t": 159560.27999999962,
      "d": 164.83499999999185,
      "v": 72
    },
    {
      "midi": 81,
      "hit": false,
      "t": 159725.1149999996,
      "d": 164.83499999999185,
      "v": 74
    },
    {
      "midi": 82,
      "hit": false,
      "t": 159889.9499999996,
      "d": 164.83499999999185,
      "v": 75
    },
    {
      "midi": 83,
      "hit": false,
      "t": 160054.7849999996,
      "d": 164.83499999999185,
      "v": 79
    },
    {
      "midi": 84,
      "hit": false,
      "t": 160219.6199999996,
      "d": 494.50500000000466,
      "v": 84
    },
    {
      "midi": 53,
      "hit": false,
      "t": 160219.61999999973,
      "d": 659.3399999999965,
      "v": 56
    },
    {
      "midi": 57,
      "hit": false,
      "t": 160219.61999999973,
      "d": 659.3399999999965,
      "v": 56
    },
    {
      "midi": 63,
      "hit": false,
      "t": 160219.61999999973,
      "d": 659.3399999999965,
      "v": 56
    },
    {
      "midi": 101,
      "hit": false,
      "t": 160714.1249999996,
      "d": 164.83499999999185,
      "v": 68
    },
    {
      "midi": 89,
      "hit": false,
      "t": 160878.95999999958,
      "d": 659.3399999999965,
      "v": 90
    },
    {
      "midi": 29,
      "hit": false,
      "t": 161538.29999999973,
      "d": 659.3399999999965,
      "v": 75
    },
    {
      "midi": 41,
      "hit": false,
      "t": 161538.29999999973,
      "d": 659.3399999999965,
      "v": 75
    },
    {
      "midi": 74,
      "hit": false,
      "t": 161867.9699999996,
      "d": 329.6700000000128,
      "v": 67
    },
    {
      "midi": 77,
      "hit": false,
      "t": 161867.9699999996,
      "d": 329.6700000000128,
      "v": 67
    },
    {
      "midi": 74,
      "hit": false,
      "t": 162197.6399999996,
      "d": 659.3399999999965,
      "v": 73
    },
    {
      "midi": 77,
      "hit": false,
      "t": 162197.6399999996,
      "d": 659.3399999999965,
      "v": 73
    },
    {
      "midi": 34,
      "hit": false,
      "t": 162197.63999999972,
      "d": 329.6700000000128,
      "v": 69
    },
    {
      "midi": 46,
      "hit": false,
      "t": 162197.63999999972,
      "d": 329.6700000000128,
      "v": 69
    },
    {
      "midi": 53,
      "hit": false,
      "t": 162527.30999999974,
      "d": 329.6700000000128,
      "v": 44
    },
    {
      "midi": 70,
      "hit": false,
      "t": 162856.9799999996,
      "d": 329.6700000000128,
      "v": 67
    },
    {
      "midi": 74,
      "hit": false,
      "t": 162856.9799999996,
      "d": 329.6700000000128,
      "v": 67
    },
    {
      "midi": 58,
      "hit": false,
      "t": 162856.97999999975,
      "d": 329.6700000000128,
      "v": 48
    },
    {
      "midi": 62,
      "hit": false,
      "t": 162856.97999999975,
      "d": 329.6700000000128,
      "v": 48
    },
    {
      "midi": 74,
      "hit": false,
      "t": 163186.64999999962,
      "d": 329.6700000000128,
      "v": 62
    },
    {
      "midi": 77,
      "hit": false,
      "t": 163186.64999999962,
      "d": 329.6700000000128,
      "v": 62
    },
    {
      "midi": 53,
      "hit": false,
      "t": 163186.64999999976,
      "d": 329.6700000000128,
      "v": 44
    },
    {
      "midi": 74,
      "hit": false,
      "t": 163516.31999999963,
      "d": 659.3399999999965,
      "v": 72
    },
    {
      "midi": 77,
      "hit": false,
      "t": 163516.31999999963,
      "d": 659.3399999999965,
      "v": 72
    },
    {
      "midi": 46,
      "hit": false,
      "t": 163516.31999999977,
      "d": 329.6700000000128,
      "v": 70
    },
    {
      "midi": 53,
      "hit": false,
      "t": 163845.9899999998,
      "d": 329.6700000000128,
      "v": 43
    },
    {
      "midi": 70,
      "hit": false,
      "t": 164175.65999999963,
      "d": 329.6700000000128,
      "v": 67
    },
    {
      "midi": 74,
      "hit": false,
      "t": 164175.65999999963,
      "d": 329.6700000000128,
      "v": 67
    },
    {
      "midi": 58,
      "hit": false,
      "t": 164175.6599999998,
      "d": 329.6700000000128,
      "v": 47
    },
    {
      "midi": 62,
      "hit": false,
      "t": 164175.6599999998,
      "d": 329.6700000000128,
      "v": 47
    },
    {
      "midi": 74,
      "hit": false,
      "t": 164505.32999999964,
      "d": 329.6700000000128,
      "v": 62
    },
    {
      "midi": 77,
      "hit": false,
      "t": 164505.32999999964,
      "d": 329.6700000000128,
      "v": 62
    },
    {
      "midi": 53,
      "hit": false,
      "t": 164505.3299999998,
      "d": 329.6700000000128,
      "v": 43
    },
    {
      "midi": 72,
      "hit": false,
      "t": 164834.99999999965,
      "d": 659.3399999999965,
      "v": 65
    },
    {
      "midi": 75,
      "hit": false,
      "t": 164834.99999999965,
      "d": 659.3399999999965,
      "v": 65
    },
    {
      "midi": 41,
      "hit": false,
      "t": 164834.99999999983,
      "d": 329.6700000000128,
      "v": 55
    },
    {
      "midi": 53,
      "hit": false,
      "t": 164834.99999999983,
      "d": 329.6700000000128,
      "v": 55
    },
    {
      "midi": 53,
      "hit": false,
      "t": 165164.66999999984,
      "d": 329.6700000000128,
      "v": 43
    },
    {
      "midi": 69,
      "hit": false,
      "t": 165494.33999999965,
      "d": 329.6700000000128,
      "v": 59
    },
    {
      "midi": 72,
      "hit": false,
      "t": 165494.33999999965,
      "d": 329.6700000000128,
      "v": 59
    },
    {
      "midi": 57,
      "hit": false,
      "t": 165494.33999999985,
      "d": 329.6700000000128,
      "v": 48
    },
    {
      "midi": 63,
      "hit": false,
      "t": 165494.33999999985,
      "d": 329.6700000000128,
      "v": 48
    },
    {
      "midi": 72,
      "hit": false,
      "t": 165824.00999999966,
      "d": 329.6700000000128,
      "v": 57
    },
    {
      "midi": 75,
      "hit": false,
      "t": 165824.00999999966,
      "d": 329.6700000000128,
      "v": 57
    },
    {
      "midi": 53,
      "hit": false,
      "t": 165824.00999999986,
      "d": 329.6700000000128,
      "v": 44
    },
    {
      "midi": 70,
      "hit": false,
      "t": 166153.67999999967,
      "d": 659.3399999999965,
      "v": 61
    },
    {
      "midi": 74,
      "hit": false,
      "t": 166153.67999999967,
      "d": 659.3399999999965,
      "v": 61
    },
    {
      "midi": 46,
      "hit": false,
      "t": 166153.67999999988,
      "d": 329.6700000000128,
      "v": 66
    },
    {
      "midi": 53,
      "hit": false,
      "t": 166483.3499999999,
      "d": 329.6700000000128,
      "v": 43
    },
    {
      "midi": 58,
      "hit": false,
      "t": 166813.0199999999,
      "d": 659.3399999999965,
      "v": 50
    },
    {
      "midi": 62,
      "hit": false,
      "t": 166813.0199999999,
      "d": 659.3399999999965,
      "v": 50
    },
    {
      "midi": 74,
      "hit": false,
      "t": 167142.68999999968,
      "d": 329.6700000000128,
      "v": 67
    },
    {
      "midi": 77,
      "hit": false,
      "t": 167142.68999999968,
      "d": 329.6700000000128,
      "v": 67
    },
    {
      "midi": 74,
      "hit": false,
      "t": 167472.3599999997,
      "d": 659.3399999999965,
      "v": 73
    },
    {
      "midi": 77,
      "hit": false,
      "t": 167472.3599999997,
      "d": 659.3399999999965,
      "v": 73
    },
    {
      "midi": 34,
      "hit": false,
      "t": 167472.3599999999,
      "d": 329.6700000000128,
      "v": 69
    },
    {
      "midi": 46,
      "hit": false,
      "t": 167472.3599999999,
      "d": 329.6700000000128,
      "v": 69
    },
    {
      "midi": 53,
      "hit": false,
      "t": 167802.0299999999,
      "d": 329.6700000000128,
      "v": 44
    },
    {
      "midi": 70,
      "hit": false,
      "t": 168131.6999999997,
      "d": 329.6700000000128,
      "v": 67
    },
    {
      "midi": 74,
      "hit": false,
      "t": 168131.6999999997,
      "d": 329.6700000000128,
      "v": 67
    },
    {
      "midi": 58,
      "hit": false,
      "t": 168131.69999999992,
      "d": 329.6700000000128,
      "v": 48
    },
    {
      "midi": 62,
      "hit": false,
      "t": 168131.69999999992,
      "d": 329.6700000000128,
      "v": 48
    },
    {
      "midi": 74,
      "hit": false,
      "t": 168461.3699999997,
      "d": 329.6700000000128,
      "v": 62
    },
    {
      "midi": 77,
      "hit": false,
      "t": 168461.3699999997,
      "d": 329.6700000000128,
      "v": 62
    },
    {
      "midi": 53,
      "hit": false,
      "t": 168461.36999999994,
      "d": 329.6700000000128,
      "v": 44
    },
    {
      "midi": 74,
      "hit": false,
      "t": 168791.03999999972,
      "d": 659.3399999999965,
      "v": 72
    },
    {
      "midi": 77,
      "hit": false,
      "t": 168791.03999999972,
      "d": 659.3399999999965,
      "v": 72
    },
    {
      "midi": 46,
      "hit": false,
      "t": 168791.03999999995,
      "d": 329.6700000000128,
      "v": 70
    },
    {
      "midi": 53,
      "hit": false,
      "t": 169120.70999999996,
      "d": 329.6700000000128,
      "v": 43
    },
    {
      "midi": 70,
      "hit": false,
      "t": 169450.3799999997,
      "d": 329.6700000000128,
      "v": 67
    },
    {
      "midi": 74,
      "hit": false,
      "t": 169450.3799999997,
      "d": 329.6700000000128,
      "v": 67
    },
    {
      "midi": 58,
      "hit": false,
      "t": 169450.37999999998,
      "d": 329.6700000000128,
      "v": 47
    },
    {
      "midi": 62,
      "hit": false,
      "t": 169450.37999999998,
      "d": 329.6700000000128,
      "v": 47
    },
    {
      "midi": 74,
      "hit": false,
      "t": 169780.04999999973,
      "d": 329.6700000000128,
      "v": 62
    },
    {
      "midi": 77,
      "hit": false,
      "t": 169780.04999999973,
      "d": 329.6700000000128,
      "v": 62
    },
    {
      "midi": 53,
      "hit": false,
      "t": 169780.05,
      "d": 329.6700000000128,
      "v": 43
    },
    {
      "midi": 72,
      "hit": false,
      "t": 170109.71999999974,
      "d": 659.3399999999965,
      "v": 65
    },
    {
      "midi": 75,
      "hit": false,
      "t": 170109.71999999974,
      "d": 659.3399999999965,
      "v": 65
    },
    {
      "midi": 41,
      "hit": false,
      "t": 170109.72,
      "d": 329.6700000000128,
      "v": 55
    },
    {
      "midi": 53,
      "hit": false,
      "t": 170109.72,
      "d": 329.6700000000128,
      "v": 55
    },
    {
      "midi": 53,
      "hit": false,
      "t": 170439.39,
      "d": 329.6700000000128,
      "v": 43
    },
    {
      "midi": 69,
      "hit": false,
      "t": 170769.05999999974,
      "d": 329.6700000000128,
      "v": 59
    },
    {
      "midi": 72,
      "hit": false,
      "t": 170769.05999999974,
      "d": 329.6700000000128,
      "v": 59
    },
    {
      "midi": 57,
      "hit": false,
      "t": 170769.06000000003,
      "d": 329.6700000000128,
      "v": 48
    },
    {
      "midi": 63,
      "hit": false,
      "t": 170769.06000000003,
      "d": 329.6700000000128,
      "v": 48
    },
    {
      "midi": 72,
      "hit": false,
      "t": 171098.72999999975,
      "d": 329.6700000000128,
      "v": 57
    },
    {
      "midi": 75,
      "hit": false,
      "t": 171098.72999999975,
      "d": 329.6700000000128,
      "v": 57
    },
    {
      "midi": 53,
      "hit": false,
      "t": 171098.73000000004,
      "d": 329.6700000000128,
      "v": 44
    },
    {
      "midi": 70,
      "hit": false,
      "t": 171428.39999999976,
      "d": 659.3399999999965,
      "v": 61
    },
    {
      "midi": 74,
      "hit": false,
      "t": 171428.39999999976,
      "d": 659.3399999999965,
      "v": 61
    },
    {
      "midi": 46,
      "hit": false,
      "t": 171428.40000000005,
      "d": 329.6700000000128,
      "v": 66
    },
    {
      "midi": 53,
      "hit": false,
      "t": 171758.07000000007,
      "d": 329.6700000000128,
      "v": 43
    },
    {
      "midi": 58,
      "hit": false,
      "t": 172087.74000000008,
      "d": 659.3399999999965,
      "v": 50
    },
    {
      "midi": 62,
      "hit": false,
      "t": 172087.74000000008,
      "d": 659.3399999999965,
      "v": 50
    },
    {
      "midi": 70,
      "hit": false,
      "t": 172417.40999999977,
      "d": 329.6700000000128,
      "v": 61
    },
    {
      "midi": 74,
      "hit": false,
      "t": 172417.40999999977,
      "d": 329.6700000000128,
      "v": 61
    },
    {
      "midi": 69,
      "hit": false,
      "t": 172747.07999999978,
      "d": 659.3399999999965,
      "v": 65
    },
    {
      "midi": 72,
      "hit": false,
      "t": 172747.07999999978,
      "d": 659.3399999999965,
      "v": 65
    },
    {
      "midi": 41,
      "hit": false,
      "t": 172747.08000000007,
      "d": 164.83499999999185,
      "v": 48
    },
    {
      "midi": 53,
      "hit": false,
      "t": 172911.91500000007,
      "d": 164.83499999999185,
      "v": 40
    },
    {
      "midi": 41,
      "hit": false,
      "t": 173076.75000000006,
      "d": 164.83499999999185,
      "v": 48
    },
    {
      "midi": 53,
      "hit": false,
      "t": 173241.58500000005,
      "d": 164.83499999999185,
      "v": 40
    },
    {
      "midi": 69,
      "hit": false,
      "t": 173406.41999999978,
      "d": 329.6700000000128,
      "v": 61
    },
    {
      "midi": 72,
      "hit": false,
      "t": 173406.41999999978,
      "d": 329.6700000000128,
      "v": 61
    },
    {
      "midi": 41,
      "hit": false,
      "t": 173406.42000000004,
      "d": 164.83499999999185,
      "v": 48
    },
    {
      "midi": 53,
      "hit": false,
      "t": 173571.25500000003,
      "d": 164.83499999999185,
      "v": 40
    },
    {
      "midi": 69,
      "hit": false,
      "t": 173736.0899999998,
      "d": 329.6700000000128,
      "v": 61
    },
    {
      "midi": 72,
      "hit": false,
      "t": 173736.0899999998,
      "d": 329.6700000000128,
      "v": 61
    },
    {
      "midi": 41,
      "hit": false,
      "t": 173736.09000000003,
      "d": 164.83499999999185,
      "v": 48
    },
    {
      "midi": 53,
      "hit": false,
      "t": 173900.92500000002,
      "d": 164.83499999999185,
      "v": 41
    },
    {
      "midi": 72,
      "hit": false,
      "t": 174065.7599999998,
      "d": 659.3399999999965,
      "v": 66
    },
    {
      "midi": 75,
      "hit": false,
      "t": 174065.7599999998,
      "d": 659.3399999999965,
      "v": 66
    },
    {
      "midi": 41,
      "hit": false,
      "t": 174065.76,
      "d": 164.83499999999185,
      "v": 48
    },
    {
      "midi": 53,
      "hit": false,
      "t": 174230.595,
      "d": 164.83499999999185,
      "v": 41
    },
    {
      "midi": 41,
      "hit": false,
      "t": 174395.43,
      "d": 164.83499999999185,
      "v": 50
    },
    {
      "midi": 53,
      "hit": false,
      "t": 174560.26499999998,
      "d": 164.83499999999185,
      "v": 43
    },
    {
      "midi": 72,
      "hit": false,
      "t": 174725.0999999998,
      "d": 329.6700000000128,
      "v": 63
    },
    {
      "midi": 75,
      "hit": false,
      "t": 174725.0999999998,
      "d": 329.6700000000128,
      "v": 63
    },
    {
      "midi": 41,
      "hit": false,
      "t": 174725.09999999998,
      "d": 164.83499999999185,
      "v": 51
    },
    {
      "midi": 53,
      "hit": false,
      "t": 174889.93499999997,
      "d": 164.83499999999185,
      "v": 44
    },
    {
      "midi": 72,
      "hit": false,
      "t": 175054.76999999981,
      "d": 329.6700000000128,
      "v": 70
    },
    {
      "midi": 75,
      "hit": false,
      "t": 175054.76999999981,
      "d": 329.6700000000128,
      "v": 70
    },
    {
      "midi": 41,
      "hit": false,
      "t": 175054.76999999996,
      "d": 164.83499999999185,
      "v": 52
    },
    {
      "midi": 53,
      "hit": false,
      "t": 175219.60499999995,
      "d": 164.83499999999185,
      "v": 46
    },
    {
      "midi": 70,
      "hit": false,
      "t": 175384.43999999983,
      "d": 659.3399999999965,
      "v": 77
    },
    {
      "midi": 74,
      "hit": false,
      "t": 175384.43999999983,
      "d": 659.3399999999965,
      "v": 77
    },
    {
      "midi": 46,
      "hit": false,
      "t": 175384.43999999994,
      "d": 164.83499999999185,
      "v": 57
    },
    {
      "midi": 58,
      "hit": false,
      "t": 175549.27499999994,
      "d": 164.83499999999185,
      "v": 47
    },
    {
      "midi": 46,
      "hit": false,
      "t": 175714.10999999993,
      "d": 164.83499999999185,
      "v": 60
    },
    {
      "midi": 58,
      "hit": false,
      "t": 175878.94499999992,
      "d": 164.83499999999185,
      "v": 49
    },
    {
      "midi": 70,
      "hit": false,
      "t": 176043.77999999982,
      "d": 329.6700000000128,
      "v": 76
    },
    {
      "midi": 74,
      "hit": false,
      "t": 176043.77999999982,
      "d": 329.6700000000128,
      "v": 76
    },
    {
      "midi": 46,
      "hit": false,
      "t": 176043.7799999999,
      "d": 164.83499999999185,
      "v": 63
    },
    {
      "midi": 58,
      "hit": false,
      "t": 176208.6149999999,
      "d": 164.83499999999185,
      "v": 51
    },
    {
      "midi": 70,
      "hit": false,
      "t": 176373.44999999984,
      "d": 329.6700000000128,
      "v": 79
    },
    {
      "midi": 74,
      "hit": false,
      "t": 176373.44999999984,
      "d": 329.6700000000128,
      "v": 79
    },
    {
      "midi": 46,
      "hit": false,
      "t": 176373.4499999999,
      "d": 164.83499999999185,
      "v": 64
    },
    {
      "midi": 58,
      "hit": false,
      "t": 176538.2849999999,
      "d": 164.83499999999185,
      "v": 53
    },
    {
      "midi": 70,
      "hit": false,
      "t": 176703.11999999985,
      "d": 989.0100000000093,
      "v": 84
    },
    {
      "midi": 75,
      "hit": false,
      "t": 176703.11999999985,
      "d": 989.0100000000093,
      "v": 84
    },
    {
      "midi": 79,
      "hit": false,
      "t": 176703.11999999985,
      "d": 989.0100000000093,
      "v": 84
    },
    {
      "midi": 39,
      "hit": false,
      "t": 176703.11999999988,
      "d": 989.0100000000093,
      "v": 64
    },
    {
      "midi": 51,
      "hit": false,
      "t": 176703.11999999988,
      "d": 989.0100000000093,
      "v": 64
    },
    {
      "midi": 70,
      "hit": false,
      "t": 177692.12999999986,
      "d": 329.6700000000128,
      "v": 78
    },
    {
      "midi": 75,
      "hit": false,
      "t": 177692.12999999986,
      "d": 329.6700000000128,
      "v": 78
    },
    {
      "midi": 79,
      "hit": false,
      "t": 177692.12999999986,
      "d": 329.6700000000128,
      "v": 78
    },
    {
      "midi": 39,
      "hit": false,
      "t": 177692.1299999999,
      "d": 329.6700000000128,
      "v": 66
    },
    {
      "midi": 51,
      "hit": false,
      "t": 177692.1299999999,
      "d": 329.6700000000128,
      "v": 66
    },
    {
      "midi": 70,
      "hit": false,
      "t": 178021.79999999987,
      "d": 659.3399999999965,
      "v": 84
    },
    {
      "midi": 74,
      "hit": false,
      "t": 178021.79999999987,
      "d": 659.3399999999965,
      "v": 84
    },
    {
      "midi": 77,
      "hit": false,
      "t": 178021.79999999987,
      "d": 659.3399999999965,
      "v": 84
    },
    {
      "midi": 41,
      "hit": false,
      "t": 178021.7999999999,
      "d": 659.3399999999965,
      "v": 71
    },
    {
      "midi": 53,
      "hit": false,
      "t": 178021.7999999999,
      "d": 659.3399999999965,
      "v": 71
    },
    {
      "midi": 70,
      "hit": false,
      "t": 178681.13999999987,
      "d": 329.6700000000128,
      "v": 79
    },
    {
      "midi": 74,
      "hit": false,
      "t": 178681.13999999987,
      "d": 329.6700000000128,
      "v": 79
    },
    {
      "midi": 77,
      "hit": false,
      "t": 178681.13999999987,
      "d": 329.6700000000128,
      "v": 79
    },
    {
      "midi": 41,
      "hit": false,
      "t": 178681.1399999999,
      "d": 329.6700000000128,
      "v": 67
    },
    {
      "midi": 53,
      "hit": false,
      "t": 178681.1399999999,
      "d": 329.6700000000128,
      "v": 67
    },
    {
      "midi": 70,
      "hit": false,
      "t": 179010.80999999988,
      "d": 329.6700000000128,
      "v": 76
    },
    {
      "midi": 74,
      "hit": false,
      "t": 179010.80999999988,
      "d": 329.6700000000128,
      "v": 76
    },
    {
      "midi": 77,
      "hit": false,
      "t": 179010.80999999988,
      "d": 329.6700000000128,
      "v": 76
    },
    {
      "midi": 41,
      "hit": false,
      "t": 179010.8099999999,
      "d": 329.6700000000128,
      "v": 67
    },
    {
      "midi": 53,
      "hit": false,
      "t": 179010.8099999999,
      "d": 329.6700000000128,
      "v": 67
    },
    {
      "midi": 70,
      "hit": false,
      "t": 179340.4799999999,
      "d": 659.3399999999965,
      "v": 89
    },
    {
      "midi": 74,
      "hit": false,
      "t": 179340.4799999999,
      "d": 659.3399999999965,
      "v": 89
    },
    {
      "midi": 77,
      "hit": false,
      "t": 179340.4799999999,
      "d": 659.3399999999965,
      "v": 89
    },
    {
      "midi": 82,
      "hit": false,
      "t": 179340.4799999999,
      "d": 659.3399999999965,
      "v": 89
    },
    {
      "midi": 29,
      "hit": false,
      "t": 179340.47999999992,
      "d": 659.3399999999965,
      "v": 75
    },
    {
      "midi": 41,
      "hit": false,
      "t": 179340.47999999992,
      "d": 659.3399999999965,
      "v": 75
    },
    {
      "midi": 70,
      "hit": false,
      "t": 179999.8199999999,
      "d": 329.6700000000128,
      "v": 80
    },
    {
      "midi": 74,
      "hit": false,
      "t": 179999.8199999999,
      "d": 329.6700000000128,
      "v": 80
    },
    {
      "midi": 77,
      "hit": false,
      "t": 179999.8199999999,
      "d": 329.6700000000128,
      "v": 80
    },
    {
      "midi": 41,
      "hit": false,
      "t": 179999.81999999992,
      "d": 329.6700000000128,
      "v": 70
    },
    {
      "midi": 53,
      "hit": false,
      "t": 179999.81999999992,
      "d": 329.6700000000128,
      "v": 70
    },
    {
      "midi": 65,
      "hit": false,
      "t": 180329.4899999999,
      "d": 329.6700000000128,
      "v": 76
    },
    {
      "midi": 70,
      "hit": false,
      "t": 180329.4899999999,
      "d": 329.6700000000128,
      "v": 76
    },
    {
      "midi": 74,
      "hit": false,
      "t": 180329.4899999999,
      "d": 329.6700000000128,
      "v": 76
    },
    {
      "midi": 41,
      "hit": false,
      "t": 180329.48999999993,
      "d": 329.6700000000128,
      "v": 65
    },
    {
      "midi": 53,
      "hit": false,
      "t": 180329.48999999993,
      "d": 329.6700000000128,
      "v": 65
    },
    {
      "midi": 67,
      "hit": false,
      "t": 180659.15999999992,
      "d": 659.3399999999965,
      "v": 83
    },
    {
      "midi": 72,
      "hit": false,
      "t": 180659.15999999992,
      "d": 659.3399999999965,
      "v": 83
    },
    {
      "midi": 75,
      "hit": false,
      "t": 180659.15999999992,
      "d": 659.3399999999965,
      "v": 83
    },
    {
      "midi": 41,
      "hit": false,
      "t": 180659.15999999995,
      "d": 659.3399999999965,
      "v": 70
    },
    {
      "midi": 53,
      "hit": false,
      "t": 180659.15999999995,
      "d": 659.3399999999965,
      "v": 70
    },
    {
      "midi": 63,
      "hit": false,
      "t": 181318.4999999999,
      "d": 329.6700000000128,
      "v": 77
    },
    {
      "midi": 69,
      "hit": false,
      "t": 181318.4999999999,
      "d": 329.6700000000128,
      "v": 77
    },
    {
      "midi": 72,
      "hit": false,
      "t": 181318.4999999999,
      "d": 329.6700000000128,
      "v": 77
    },
    {
      "midi": 41,
      "hit": false,
      "t": 181318.49999999994,
      "d": 329.6700000000128,
      "v": 65
    },
    {
      "midi": 53,
      "hit": false,
      "t": 181318.49999999994,
      "d": 329.6700000000128,
      "v": 65
    },
    {
      "midi": 60,
      "hit": false,
      "t": 181648.16999999993,
      "d": 329.6700000000128,
      "v": 69
    },
    {
      "midi": 63,
      "hit": false,
      "t": 181648.16999999993,
      "d": 329.6700000000128,
      "v": 69
    },
    {
      "midi": 69,
      "hit": false,
      "t": 181648.16999999993,
      "d": 329.6700000000128,
      "v": 69
    },
    {
      "midi": 41,
      "hit": false,
      "t": 181648.16999999995,
      "d": 329.6700000000128,
      "v": 65
    },
    {
      "midi": 53,
      "hit": false,
      "t": 181648.16999999995,
      "d": 329.6700000000128,
      "v": 65
    },
    {
      "midi": 62,
      "hit": false,
      "t": 181977.83999999994,
      "d": 659.3399999999965,
      "v": 67
    },
    {
      "midi": 65,
      "hit": false,
      "t": 181977.83999999994,
      "d": 659.3399999999965,
      "v": 67
    },
    {
      "midi": 70,
      "hit": false,
      "t": 181977.83999999994,
      "d": 659.3399999999965,
      "v": 67
    },
    {
      "midi": 46,
      "hit": false,
      "t": 181977.83999999997,
      "d": 659.3399999999965,
      "v": 56
    },
    {
      "midi": 53,
      "hit": false,
      "t": 181977.83999999997,
      "d": 659.3399999999965,
      "v": 56
    },
    {
      "midi": 55,
      "hit": false,
      "t": 183296.51999999993,
      "d": 659.3399999999965,
      "v": 48
    },
    {
      "midi": 60,
      "hit": false,
      "t": 183296.51999999993,
      "d": 659.3399999999965,
      "v": 48
    },
    {
      "midi": 63,
      "hit": false,
      "t": 183296.51999999993,
      "d": 659.3399999999965,
      "v": 48
    },
    {
      "midi": 36,
      "hit": false,
      "t": 183296.51999999996,
      "d": 659.3399999999965,
      "v": 47
    },
    {
      "midi": 48,
      "hit": false,
      "t": 183296.51999999996,
      "d": 659.3399999999965,
      "v": 47
    },
    {
      "midi": 57,
      "hit": false,
      "t": 183955.85999999993,
      "d": 329.6700000000128,
      "v": 42
    },
    {
      "midi": 60,
      "hit": false,
      "t": 183955.85999999993,
      "d": 329.6700000000128,
      "v": 42
    },
    {
      "midi": 41,
      "hit": false,
      "t": 183955.85999999996,
      "d": 329.6700000000128,
      "v": 42
    },
    {
      "midi": 51,
      "hit": false,
      "t": 183955.85999999996,
      "d": 329.6700000000128,
      "v": 42
    },
    {
      "midi": 53,
      "hit": false,
      "t": 184285.52999999994,
      "d": 329.6700000000128,
      "v": 42
    },
    {
      "midi": 57,
      "hit": false,
      "t": 184285.52999999994,
      "d": 329.6700000000128,
      "v": 42
    },
    {
      "midi": 41,
      "hit": false,
      "t": 184285.52999999997,
      "d": 329.6700000000128,
      "v": 42
    },
    {
      "midi": 51,
      "hit": false,
      "t": 184285.52999999997,
      "d": 329.6700000000128,
      "v": 42
    },
    {
      "midi": 53,
      "hit": false,
      "t": 184615.19999999995,
      "d": 659.3399999999965,
      "v": 48
    },
    {
      "midi": 58,
      "hit": false,
      "t": 184615.19999999995,
      "d": 659.3399999999965,
      "v": 48
    },
    {
      "midi": 46,
      "hit": false,
      "t": 184615.19999999998,
      "d": 659.3399999999965,
      "v": 47
    },
    {
      "midi": 50,
      "hit": false,
      "t": 184615.19999999998,
      "d": 659.3399999999965,
      "v": 47
    },
    {
      "midi": 70,
      "hit": false,
      "t": 185933.87999999995,
      "d": 659.3399999999965,
      "v": 54
    },
    {
      "midi": 77,
      "hit": false,
      "t": 185933.87999999995,
      "d": 659.3399999999965,
      "v": 54
    },
    {
      "midi": 58,
      "hit": false,
      "t": 185933.87999999998,
      "d": 659.3399999999965,
      "v": 39
    },
    {
      "midi": 62,
      "hit": false,
      "t": 185933.87999999998,
      "d": 659.3399999999965,
      "v": 39
    },
    {
      "midi": 68,
      "hit": false,
      "t": 185933.87999999998,
      "d": 659.3399999999965,
      "v": 39
    },
    {
      "midi": 70,
      "hit": false,
      "t": 186593.21999999994,
      "d": 329.6700000000128,
      "v": 50
    },
    {
      "midi": 74,
      "hit": false,
      "t": 186593.21999999994,
      "d": 329.6700000000128,
      "v": 50
    },
    {
      "midi": 58,
      "hit": false,
      "t": 186593.21999999997,
      "d": 329.6700000000128,
      "v": 37
    },
    {
      "midi": 62,
      "hit": false,
      "t": 186593.21999999997,
      "d": 329.6700000000128,
      "v": 37
    },
    {
      "midi": 68,
      "hit": false,
      "t": 186593.21999999997,
      "d": 329.6700000000128,
      "v": 37
    },
    {
      "midi": 70,
      "hit": false,
      "t": 186922.88999999996,
      "d": 329.6700000000128,
      "v": 52
    },
    {
      "midi": 77,
      "hit": false,
      "t": 186922.88999999996,
      "d": 329.6700000000128,
      "v": 52
    },
    {
      "midi": 58,
      "hit": false,
      "t": 186922.88999999998,
      "d": 329.6700000000128,
      "v": 37
    },
    {
      "midi": 62,
      "hit": false,
      "t": 186922.88999999998,
      "d": 329.6700000000128,
      "v": 37
    },
    {
      "midi": 68,
      "hit": false,
      "t": 186922.88999999998,
      "d": 329.6700000000128,
      "v": 37
    },
    {
      "midi": 70,
      "hit": false,
      "t": 187252.55999999997,
      "d": 659.3399999999965,
      "v": 57
    },
    {
      "midi": 80,
      "hit": false,
      "t": 187252.55999999997,
      "d": 659.3399999999965,
      "v": 57
    },
    {
      "midi": 58,
      "hit": false,
      "t": 187252.56,
      "d": 659.3399999999965,
      "v": 40
    },
    {
      "midi": 62,
      "hit": false,
      "t": 187252.56,
      "d": 659.3399999999965,
      "v": 40
    },
    {
      "midi": 68,
      "hit": false,
      "t": 187252.56,
      "d": 659.3399999999965,
      "v": 40
    },
    {
      "midi": 74,
      "hit": false,
      "t": 187911.89999999997,
      "d": 329.6700000000128,
      "v": 58
    },
    {
      "midi": 77,
      "hit": false,
      "t": 187911.89999999997,
      "d": 329.6700000000128,
      "v": 58
    },
    {
      "midi": 58,
      "hit": false,
      "t": 187911.9,
      "d": 329.6700000000128,
      "v": 43
    },
    {
      "midi": 62,
      "hit": false,
      "t": 187911.9,
      "d": 329.6700000000128,
      "v": 43
    },
    {
      "midi": 68,
      "hit": false,
      "t": 187911.9,
      "d": 329.6700000000128,
      "v": 43
    },
    {
      "midi": 74,
      "hit": false,
      "t": 188241.56999999998,
      "d": 329.6700000000128,
      "v": 62
    },
    {
      "midi": 80,
      "hit": false,
      "t": 188241.56999999998,
      "d": 329.6700000000128,
      "v": 62
    },
    {
      "midi": 58,
      "hit": false,
      "t": 188241.57,
      "d": 329.6700000000128,
      "v": 43
    },
    {
      "midi": 62,
      "hit": false,
      "t": 188241.57,
      "d": 329.6700000000128,
      "v": 43
    },
    {
      "midi": 68,
      "hit": false,
      "t": 188241.57,
      "d": 329.6700000000128,
      "v": 43
    },
    {
      "midi": 74,
      "hit": false,
      "t": 188571.24,
      "d": 659.3399999999965,
      "v": 66
    },
    {
      "midi": 84,
      "hit": false,
      "t": 188571.24,
      "d": 659.3399999999965,
      "v": 66
    },
    {
      "midi": 58,
      "hit": false,
      "t": 188571.24000000002,
      "d": 659.3399999999965,
      "v": 48
    },
    {
      "midi": 62,
      "hit": false,
      "t": 188571.24000000002,
      "d": 659.3399999999965,
      "v": 48
    },
    {
      "midi": 68,
      "hit": false,
      "t": 188571.24000000002,
      "d": 659.3399999999965,
      "v": 48
    },
    {
      "midi": 74,
      "hit": false,
      "t": 189230.58,
      "d": 659.3399999999965,
      "v": 65
    },
    {
      "midi": 83,
      "hit": false,
      "t": 189230.58,
      "d": 659.3399999999965,
      "v": 65
    },
    {
      "midi": 58,
      "hit": false,
      "t": 189230.58000000002,
      "d": 659.3399999999965,
      "v": 45
    },
    {
      "midi": 65,
      "hit": false,
      "t": 189230.58000000002,
      "d": 659.3399999999965,
      "v": 45
    },
    {
      "midi": 68,
      "hit": false,
      "t": 189230.58000000002,
      "d": 659.3399999999965,
      "v": 45
    },
    {
      "midi": 82,
      "hit": false,
      "t": 189889.91999999998,
      "d": 164.83499999999185,
      "v": 65
    },
    {
      "midi": 86,
      "hit": false,
      "t": 189889.91999999998,
      "d": 164.83499999999185,
      "v": 54
    },
    {
      "midi": 56,
      "hit": false,
      "t": 189889.92,
      "d": 164.83499999999185,
      "v": 41
    },
    {
      "midi": 89,
      "hit": false,
      "t": 190054.75499999998,
      "d": 164.83499999999185,
      "v": 60
    },
    {
      "midi": 92,
      "hit": false,
      "t": 190054.75499999998,
      "d": 164.83499999999185,
      "v": 59
    },
    {
      "midi": 62,
      "hit": false,
      "t": 190054.755,
      "d": 989.0100000000093,
      "v": 48
    },
    {
      "midi": 92,
      "hit": false,
      "t": 190219.58999999997,
      "d": 164.83499999999185,
      "v": 61
    },
    {
      "midi": 94,
      "hit": false,
      "t": 190219.58999999997,
      "d": 164.83499999999185,
      "v": 65
    },
    {
      "midi": 86,
      "hit": false,
      "t": 190384.42499999996,
      "d": 164.83499999999185,
      "v": 59
    },
    {
      "midi": 89,
      "hit": false,
      "t": 190384.42499999996,
      "d": 164.83499999999185,
      "v": 64
    },
    {
      "midi": 80,
      "hit": false,
      "t": 190549.25999999995,
      "d": 164.83499999999185,
      "v": 58
    },
    {
      "midi": 82,
      "hit": false,
      "t": 190549.25999999995,
      "d": 164.83499999999185,
      "v": 62
    },
    {
      "midi": 74,
      "hit": false,
      "t": 190714.09499999994,
      "d": 164.83499999999185,
      "v": 55
    },
    {
      "midi": 77,
      "hit": false,
      "t": 190714.09499999994,
      "d": 164.83499999999185,
      "v": 60
    },
    {
      "midi": 68,
      "hit": false,
      "t": 190878.92999999993,
      "d": 164.83499999999185,
      "v": 57
    },
    {
      "midi": 70,
      "hit": false,
      "t": 190878.92999999993,
      "d": 164.83499999999185,
      "v": 58
    },
    {
      "midi": 56,
      "hit": false,
      "t": 191043.76499999993,
      "d": 164.83499999999185,
      "v": 54
    },
    {
      "midi": 58,
      "hit": false,
      "t": 191043.76499999993,
      "d": 164.83499999999185,
      "v": 55
    },
    {
      "midi": 62,
      "hit": false,
      "t": 191043.76499999993,
      "d": 164.83499999999185,
      "v": 56
    },
    {
      "midi": 65,
      "hit": false,
      "t": 191043.76499999993,
      "d": 164.83499999999185,
      "v": 56
    },
    {
      "midi": 53,
      "hit": false,
      "t": 191208.59999999992,
      "d": 659.3399999999965,
      "v": 54
    },
    {
      "midi": 39,
      "hit": false,
      "t": 191208.6,
      "d": 659.3399999999965,
      "v": 53
    },
    {
      "midi": 51,
      "hit": false,
      "t": 191208.6,
      "d": 659.3399999999965,
      "v": 53
    },
    {
      "midi": 34,
      "hit": false,
      "t": 191867.94,
      "d": 659.3399999999965,
      "v": 48
    },
    {
      "midi": 46,
      "hit": false,
      "t": 191867.94,
      "d": 659.3399999999965,
      "v": 48
    },
    {
      "midi": 39,
      "hit": false,
      "t": 192527.28,
      "d": 659.3399999999965,
      "v": 53
    },
    {
      "midi": 51,
      "hit": false,
      "t": 192527.28,
      "d": 659.3399999999965,
      "v": 53
    },
    {
      "midi": 34,
      "hit": false,
      "t": 193186.62,
      "d": 659.3399999999965,
      "v": 48
    },
    {
      "midi": 46,
      "hit": false,
      "t": 193186.62,
      "d": 659.3399999999965,
      "v": 48
    },
    {
      "midi": 39,
      "hit": false,
      "t": 193845.96,
      "d": 659.3399999999965,
      "v": 53
    },
    {
      "midi": 51,
      "hit": false,
      "t": 193845.96,
      "d": 659.3399999999965,
      "v": 53
    },
    {
      "midi": 34,
      "hit": false,
      "t": 194505.3,
      "d": 659.3399999999965,
      "v": 49
    },
    {
      "midi": 46,
      "hit": false,
      "t": 194505.3,
      "d": 659.3399999999965,
      "v": 49
    },
    {
      "midi": 39,
      "hit": false,
      "t": 195164.63999999998,
      "d": 659.3399999999965,
      "v": 53
    },
    {
      "midi": 51,
      "hit": false,
      "t": 195164.63999999998,
      "d": 659.3399999999965,
      "v": 53
    },
    {
      "midi": 34,
      "hit": false,
      "t": 195823.97999999998,
      "d": 659.3399999999965,
      "v": 48
    },
    {
      "midi": 46,
      "hit": false,
      "t": 195823.97999999998,
      "d": 659.3399999999965,
      "v": 48
    },
    {
      "midi": 63,
      "hit": false,
      "t": 196483.31999999992,
      "d": 1318.679999999993,
      "v": 47
    },
    {
      "midi": 67,
      "hit": false,
      "t": 196483.31999999992,
      "d": 1318.679999999993,
      "v": 47
    },
    {
      "midi": 70,
      "hit": false,
      "t": 196483.31999999992,
      "d": 1318.679999999993,
      "v": 47
    },
    {
      "midi": 39,
      "hit": false,
      "t": 196483.31999999998,
      "d": 659.3399999999965,
      "v": 53
    },
    {
      "midi": 51,
      "hit": false,
      "t": 196483.31999999998,
      "d": 659.3399999999965,
      "v": 53
    },
    {
      "midi": 34,
      "hit": false,
      "t": 197142.65999999997,
      "d": 659.3399999999965,
      "v": 48
    },
    {
      "midi": 46,
      "hit": false,
      "t": 197142.65999999997,
      "d": 659.3399999999965,
      "v": 48
    },
    {
      "midi": 63,
      "hit": false,
      "t": 197801.9999999999,
      "d": 1318.679999999993,
      "v": 46
    },
    {
      "midi": 68,
      "hit": false,
      "t": 197801.9999999999,
      "d": 1318.679999999993,
      "v": 46
    },
    {
      "midi": 72,
      "hit": false,
      "t": 197801.9999999999,
      "d": 1318.679999999993,
      "v": 46
    },
    {
      "midi": 39,
      "hit": false,
      "t": 197801.99999999997,
      "d": 659.3399999999965,
      "v": 53
    },
    {
      "midi": 51,
      "hit": false,
      "t": 197801.99999999997,
      "d": 659.3399999999965,
      "v": 53
    },
    {
      "midi": 34,
      "hit": false,
      "t": 198461.33999999997,
      "d": 659.3399999999965,
      "v": 48
    },
    {
      "midi": 46,
      "hit": false,
      "t": 198461.33999999997,
      "d": 659.3399999999965,
      "v": 48
    },
    {
      "midi": 63,
      "hit": false,
      "t": 199120.6799999999,
      "d": 989.0100000000093,
      "v": 47
    },
    {
      "midi": 67,
      "hit": false,
      "t": 199120.6799999999,
      "d": 989.0100000000093,
      "v": 47
    },
    {
      "midi": 70,
      "hit": false,
      "t": 199120.6799999999,
      "d": 989.0100000000093,
      "v": 47
    },
    {
      "midi": 39,
      "hit": false,
      "t": 199120.67999999996,
      "d": 659.3399999999965,
      "v": 54
    },
    {
      "midi": 51,
      "hit": false,
      "t": 199120.67999999996,
      "d": 659.3399999999965,
      "v": 54
    },
    {
      "midi": 34,
      "hit": false,
      "t": 199780.01999999996,
      "d": 659.3399999999965,
      "v": 49
    },
    {
      "midi": 46,
      "hit": false,
      "t": 199780.01999999996,
      "d": 659.3399999999965,
      "v": 49
    },
    {
      "midi": 65,
      "hit": false,
      "t": 200109.68999999992,
      "d": 329.6700000000128,
      "v": 37
    },
    {
      "midi": 68,
      "hit": false,
      "t": 200109.68999999992,
      "d": 329.6700000000128,
      "v": 37
    },
    {
      "midi": 63,
      "hit": false,
      "t": 200439.35999999993,
      "d": 659.3399999999965,
      "v": 47
    },
    {
      "midi": 67,
      "hit": false,
      "t": 200439.35999999993,
      "d": 659.3399999999965,
      "v": 47
    },
    {
      "midi": 39,
      "hit": false,
      "t": 200439.35999999996,
      "d": 659.3399999999965,
      "v": 53
    },
    {
      "midi": 51,
      "hit": false,
      "t": 200439.35999999996,
      "d": 659.3399999999965,
      "v": 53
    },
    {
      "midi": 65,
      "hit": false,
      "t": 201098.69999999992,
      "d": 659.3399999999965,
      "v": 50
    },
    {
      "midi": 68,
      "hit": false,
      "t": 201098.69999999992,
      "d": 659.3399999999965,
      "v": 50
    },
    {
      "midi": 34,
      "hit": false,
      "t": 201098.69999999995,
      "d": 659.3399999999965,
      "v": 48
    },
    {
      "midi": 46,
      "hit": false,
      "t": 201098.69999999995,
      "d": 659.3399999999965,
      "v": 48
    },
    {
      "midi": 63,
      "hit": false,
      "t": 201758.03999999992,
      "d": 1318.679999999993,
      "v": 55
    },
    {
      "midi": 67,
      "hit": false,
      "t": 201758.03999999992,
      "d": 1318.679999999993,
      "v": 55
    },
    {
      "midi": 70,
      "hit": false,
      "t": 201758.03999999992,
      "d": 1318.679999999993,
      "v": 55
    },
    {
      "midi": 39,
      "hit": false,
      "t": 201758.03999999995,
      "d": 659.3399999999965,
      "v": 53
    },
    {
      "midi": 51,
      "hit": false,
      "t": 201758.03999999995,
      "d": 659.3399999999965,
      "v": 53
    },
    {
      "midi": 34,
      "hit": false,
      "t": 202417.37999999995,
      "d": 659.3399999999965,
      "v": 47
    },
    {
      "midi": 46,
      "hit": false,
      "t": 202417.37999999995,
      "d": 659.3399999999965,
      "v": 47
    },
    {
      "midi": 63,
      "hit": false,
      "t": 203076.7199999999,
      "d": 1318.679999999993,
      "v": 44
    },
    {
      "midi": 68,
      "hit": false,
      "t": 203076.7199999999,
      "d": 1318.679999999993,
      "v": 44
    },
    {
      "midi": 72,
      "hit": false,
      "t": 203076.7199999999,
      "d": 1318.679999999993,
      "v": 44
    },
    {
      "midi": 32,
      "hit": false,
      "t": 203076.71999999994,
      "d": 659.3399999999965,
      "v": 59
    },
    {
      "midi": 44,
      "hit": false,
      "t": 203076.71999999994,
      "d": 659.3399999999965,
      "v": 59
    },
    {
      "midi": 36,
      "hit": false,
      "t": 203736.05999999994,
      "d": 659.3399999999965,
      "v": 49
    },
    {
      "midi": 48,
      "hit": false,
      "t": 203736.05999999994,
      "d": 659.3399999999965,
      "v": 49
    },
    {
      "midi": 63,
      "hit": false,
      "t": 204395.3999999999,
      "d": 989.0100000000093,
      "v": 49
    },
    {
      "midi": 67,
      "hit": false,
      "t": 204395.3999999999,
      "d": 989.0100000000093,
      "v": 49
    },
    {
      "midi": 70,
      "hit": false,
      "t": 204395.3999999999,
      "d": 989.0100000000093,
      "v": 49
    },
    {
      "midi": 39,
      "hit": false,
      "t": 204395.39999999994,
      "d": 659.3399999999965,
      "v": 54
    },
    {
      "midi": 51,
      "hit": false,
      "t": 204395.39999999994,
      "d": 659.3399999999965,
      "v": 54
    },
    {
      "midi": 34,
      "hit": false,
      "t": 205054.73999999993,
      "d": 659.3399999999965,
      "v": 48
    },
    {
      "midi": 46,
      "hit": false,
      "t": 205054.73999999993,
      "d": 659.3399999999965,
      "v": 48
    },
    {
      "midi": 65,
      "hit": false,
      "t": 205384.40999999992,
      "d": 329.6700000000128,
      "v": 39
    },
    {
      "midi": 68,
      "hit": false,
      "t": 205384.40999999992,
      "d": 329.6700000000128,
      "v": 39
    },
    {
      "midi": 63,
      "hit": false,
      "t": 205714.07999999993,
      "d": 659.3399999999965,
      "v": 49
    },
    {
      "midi": 67,
      "hit": false,
      "t": 205714.07999999993,
      "d": 659.3399999999965,
      "v": 49
    },
    {
      "midi": 39,
      "hit": false,
      "t": 205714.07999999993,
      "d": 659.3399999999965,
      "v": 54
    },
    {
      "midi": 51,
      "hit": false,
      "t": 205714.07999999993,
      "d": 659.3399999999965,
      "v": 54
    },
    {
      "midi": 65,
      "hit": false,
      "t": 206373.41999999993,
      "d": 659.3399999999965,
      "v": 53
    },
    {
      "midi": 68,
      "hit": false,
      "t": 206373.41999999993,
      "d": 659.3399999999965,
      "v": 53
    },
    {
      "midi": 34,
      "hit": false,
      "t": 206373.41999999993,
      "d": 659.3399999999965,
      "v": 49
    },
    {
      "midi": 46,
      "hit": false,
      "t": 206373.41999999993,
      "d": 659.3399999999965,
      "v": 49
    },
    {
      "midi": 63,
      "hit": false,
      "t": 207032.75999999992,
      "d": 1318.679999999993,
      "v": 50
    },
    {
      "midi": 67,
      "hit": false,
      "t": 207032.75999999992,
      "d": 1318.679999999993,
      "v": 50
    },
    {
      "midi": 70,
      "hit": false,
      "t": 207032.75999999992,
      "d": 1318.679999999993,
      "v": 50
    },
    {
      "midi": 39,
      "hit": false,
      "t": 207032.75999999992,
      "d": 659.3399999999965,
      "v": 56
    },
    {
      "midi": 51,
      "hit": false,
      "t": 207032.75999999992,
      "d": 659.3399999999965,
      "v": 56
    },
    {
      "midi": 34,
      "hit": false,
      "t": 207692.09999999992,
      "d": 659.3399999999965,
      "v": 50
    },
    {
      "midi": 46,
      "hit": false,
      "t": 207692.09999999992,
      "d": 659.3399999999965,
      "v": 50
    },
    {
      "midi": 58,
      "hit": false,
      "t": 208351.43999999992,
      "d": 1318.679999999993,
      "v": 61
    },
    {
      "midi": 65,
      "hit": false,
      "t": 208351.43999999992,
      "d": 1318.679999999993,
      "v": 61
    },
    {
      "midi": 70,
      "hit": false,
      "t": 208351.43999999992,
      "d": 1318.679999999993,
      "v": 61
    },
    {
      "midi": 38,
      "hit": false,
      "t": 208351.43999999992,
      "d": 659.3399999999965,
      "v": 60
    },
    {
      "midi": 50,
      "hit": false,
      "t": 208351.43999999992,
      "d": 659.3399999999965,
      "v": 60
    },
    {
      "midi": 34,
      "hit": false,
      "t": 209010.7799999999,
      "d": 659.3399999999965,
      "v": 54
    },
    {
      "midi": 46,
      "hit": false,
      "t": 209010.7799999999,
      "d": 659.3399999999965,
      "v": 54
    },
    {
      "midi": 65,
      "hit": false,
      "t": 209670.1199999999,
      "d": 1318.679999999993,
      "v": 66
    },
    {
      "midi": 69,
      "hit": false,
      "t": 209670.1199999999,
      "d": 1318.679999999993,
      "v": 66
    },
    {
      "midi": 72,
      "hit": false,
      "t": 209670.1199999999,
      "d": 1318.679999999993,
      "v": 66
    },
    {
      "midi": 41,
      "hit": false,
      "t": 209670.1199999999,
      "d": 659.3399999999965,
      "v": 65
    },
    {
      "midi": 53,
      "hit": false,
      "t": 209670.1199999999,
      "d": 659.3399999999965,
      "v": 65
    },
    {
      "midi": 36,
      "hit": false,
      "t": 210329.4599999999,
      "d": 659.3399999999965,
      "v": 56
    },
    {
      "midi": 48,
      "hit": false,
      "t": 210329.4599999999,
      "d": 659.3399999999965,
      "v": 56
    },
    {
      "midi": 65,
      "hit": false,
      "t": 210988.7999999999,
      "d": 659.3399999999965,
      "v": 69
    },
    {
      "midi": 70,
      "hit": false,
      "t": 210988.7999999999,
      "d": 659.3399999999965,
      "v": 69
    },
    {
      "midi": 74,
      "hit": false,
      "t": 210988.7999999999,
      "d": 659.3399999999965,
      "v": 69
    },
    {
      "midi": 34,
      "hit": false,
      "t": 210988.7999999999,
      "d": 659.3399999999965,
      "v": 74
    },
    {
      "midi": 46,
      "hit": false,
      "t": 210988.7999999999,
      "d": 659.3399999999965,
      "v": 74
    },
    {
      "midi": 67,
      "hit": false,
      "t": 211648.1399999999,
      "d": 659.3399999999965,
      "v": 73
    },
    {
      "midi": 72,
      "hit": false,
      "t": 211648.1399999999,
      "d": 659.3399999999965,
      "v": 73
    },
    {
      "midi": 75,
      "hit": false,
      "t": 211648.1399999999,
      "d": 659.3399999999965,
      "v": 73
    },
    {
      "midi": 39,
      "hit": false,
      "t": 211648.1399999999,
      "d": 659.3399999999965,
      "v": 68
    },
    {
      "midi": 51,
      "hit": false,
      "t": 211648.1399999999,
      "d": 659.3399999999965,
      "v": 68
    },
    {
      "midi": 65,
      "hit": false,
      "t": 212307.4799999999,
      "d": 1318.679999999993,
      "v": 77
    },
    {
      "midi": 70,
      "hit": false,
      "t": 212307.4799999999,
      "d": 1318.679999999993,
      "v": 77
    },
    {
      "midi": 74,
      "hit": false,
      "t": 212307.4799999999,
      "d": 1318.679999999993,
      "v": 77
    },
    {
      "midi": 29,
      "hit": false,
      "t": 212307.4799999999,
      "d": 659.3399999999965,
      "v": 79
    },
    {
      "midi": 41,
      "hit": false,
      "t": 212307.4799999999,
      "d": 659.3399999999965,
      "v": 79
    },
    {
      "midi": 53,
      "hit": false,
      "t": 212966.8199999999,
      "d": 659.3399999999965,
      "v": 68
    },
    {
      "midi": 63,
      "hit": false,
      "t": 213626.1599999999,
      "d": 1318.679999999993,
      "v": 71
    },
    {
      "midi": 69,
      "hit": false,
      "t": 213626.1599999999,
      "d": 1318.679999999993,
      "v": 71
    },
    {
      "midi": 72,
      "hit": false,
      "t": 213626.1599999999,
      "d": 1318.679999999993,
      "v": 71
    },
    {
      "midi": 29,
      "hit": false,
      "t": 213626.1599999999,
      "d": 659.3399999999965,
      "v": 75
    },
    {
      "midi": 41,
      "hit": false,
      "t": 213626.1599999999,
      "d": 659.3399999999965,
      "v": 75
    },
    {
      "midi": 53,
      "hit": false,
      "t": 214285.49999999988,
      "d": 659.3399999999965,
      "v": 64
    },
    {
      "midi": 62,
      "hit": false,
      "t": 214944.83999999988,
      "d": 2637.359999999986,
      "v": 69
    },
    {
      "midi": 65,
      "hit": false,
      "t": 214944.83999999988,
      "d": 2637.359999999986,
      "v": 69
    },
    {
      "midi": 70,
      "hit": false,
      "t": 214944.83999999988,
      "d": 2637.359999999986,
      "v": 69
    },
    {
      "midi": 34,
      "hit": false,
      "t": 214944.83999999988,
      "d": 659.3399999999965,
      "v": 73
    },
    {
      "midi": 46,
      "hit": false,
      "t": 214944.83999999988,
      "d": 659.3399999999965,
      "v": 73
    },
    {
      "midi": 46,
      "hit": false,
      "t": 215604.17999999988,
      "d": 659.3399999999965,
      "v": 78
    },
    {
      "midi": 58,
      "hit": false,
      "t": 215604.17999999988,
      "d": 659.3399999999965,
      "v": 78
    },
    {
      "midi": 41,
      "hit": false,
      "t": 216263.51999999987,
      "d": 659.3399999999965,
      "v": 71
    },
    {
      "midi": 53,
      "hit": false,
      "t": 216263.51999999987,
      "d": 659.3399999999965,
      "v": 71
    },
    {
      "midi": 38,
      "hit": false,
      "t": 216922.85999999987,
      "d": 659.3399999999965,
      "v": 64
    },
    {
      "midi": 50,
      "hit": false,
      "t": 216922.85999999987,
      "d": 659.3399999999965,
      "v": 64
    },
    {
      "midi": 58,
      "hit": false,
      "t": 217582.19999999987,
      "d": 989.0100000000093,
      "v": 41
    },
    {
      "midi": 62,
      "hit": false,
      "t": 217582.19999999987,
      "d": 989.0100000000093,
      "v": 41
    },
    {
      "midi": 65,
      "hit": false,
      "t": 217582.19999999987,
      "d": 989.0100000000093,
      "v": 41
    },
    {
      "midi": 34,
      "hit": false,
      "t": 217582.19999999987,
      "d": 659.3399999999965,
      "v": 40
    },
    {
      "midi": 46,
      "hit": false,
      "t": 217582.19999999987,
      "d": 659.3399999999965,
      "v": 40
    },
    {
      "midi": 70,
      "hit": false,
      "t": 218241.53999999986,
      "d": 659.3399999999965,
      "v": 35
    },
    {
      "midi": 58,
      "hit": false,
      "t": 218571.20999999988,
      "d": 329.6700000000128,
      "v": 36
    },
    {
      "midi": 63,
      "hit": false,
      "t": 218571.20999999988,
      "d": 329.6700000000128,
      "v": 36
    },
    {
      "midi": 67,
      "hit": false,
      "t": 218571.20999999988,
      "d": 329.6700000000128,
      "v": 36
    },
    {
      "midi": 70,
      "hit": false,
      "t": 218900.87999999986,
      "d": 659.3399999999965,
      "v": 38
    },
    {
      "midi": 58,
      "hit": false,
      "t": 218900.8799999999,
      "d": 659.3399999999965,
      "v": 40
    },
    {
      "midi": 62,
      "hit": false,
      "t": 218900.8799999999,
      "d": 659.3399999999965,
      "v": 40
    },
    {
      "midi": 65,
      "hit": false,
      "t": 218900.8799999999,
      "d": 659.3399999999965,
      "v": 40
    },
    {
      "midi": 70,
      "hit": false,
      "t": 219560.21999999986,
      "d": 659.3399999999965,
      "v": 40
    },
    {
      "midi": 58,
      "hit": false,
      "t": 219560.21999999988,
      "d": 659.3399999999965,
      "v": 41
    },
    {
      "midi": 63,
      "hit": false,
      "t": 219560.21999999988,
      "d": 659.3399999999965,
      "v": 41
    },
    {
      "midi": 67,
      "hit": false,
      "t": 219560.21999999988,
      "d": 659.3399999999965,
      "v": 41
    },
    {
      "midi": 34,
      "hit": false,
      "t": 220219.55999999985,
      "d": 659.3399999999965,
      "v": 47
    },
    {
      "midi": 46,
      "hit": false,
      "t": 220219.55999999985,
      "d": 659.3399999999965,
      "v": 47
    },
    {
      "midi": 58,
      "hit": false,
      "t": 220219.55999999988,
      "d": 989.0100000000093,
      "v": 41
    },
    {
      "midi": 65,
      "hit": false,
      "t": 220219.55999999988,
      "d": 989.0100000000093,
      "v": 41
    },
    {
      "midi": 68,
      "hit": false,
      "t": 220219.55999999988,
      "d": 989.0100000000093,
      "v": 41
    },
    {
      "midi": 82,
      "hit": false,
      "t": 220878.89999999985,
      "d": 659.3399999999965,
      "v": 48
    },
    {
      "midi": 58,
      "hit": false,
      "t": 221208.5699999999,
      "d": 329.6700000000128,
      "v": 34
    },
    {
      "midi": 67,
      "hit": false,
      "t": 221208.5699999999,
      "d": 329.6700000000128,
      "v": 34
    },
    {
      "midi": 70,
      "hit": false,
      "t": 221208.5699999999,
      "d": 329.6700000000128,
      "v": 34
    },
    {
      "midi": 82,
      "hit": false,
      "t": 221538.23999999985,
      "d": 659.3399999999965,
      "v": 48
    },
    {
      "midi": 58,
      "hit": false,
      "t": 221538.2399999999,
      "d": 1318.679999999993,
      "v": 40
    },
    {
      "midi": 65,
      "hit": false,
      "t": 221538.2399999999,
      "d": 1318.679999999993,
      "v": 40
    },
    {
      "midi": 68,
      "hit": false,
      "t": 221538.2399999999,
      "d": 1318.679999999993,
      "v": 40
    },
    {
      "midi": 82,
      "hit": false,
      "t": 222197.57999999984,
      "d": 659.3399999999965,
      "v": 49
    },
    {
      "midi": 39,
      "hit": false,
      "t": 222856.91999999984,
      "d": 659.3399999999965,
      "v": 48
    },
    {
      "midi": 51,
      "hit": false,
      "t": 222856.91999999984,
      "d": 659.3399999999965,
      "v": 48
    },
    {
      "midi": 58,
      "hit": false,
      "t": 222856.9199999999,
      "d": 989.0100000000093,
      "v": 47
    },
    {
      "midi": 63,
      "hit": false,
      "t": 222856.9199999999,
      "d": 989.0100000000093,
      "v": 47
    },
    {
      "midi": 67,
      "hit": false,
      "t": 222856.9199999999,
      "d": 989.0100000000093,
      "v": 47
    },
    {
      "midi": 75,
      "hit": false,
      "t": 223516.25999999983,
      "d": 659.3399999999965,
      "v": 51
    },
    {
      "midi": 58,
      "hit": false,
      "t": 223845.9299999999,
      "d": 329.6700000000128,
      "v": 39
    },
    {
      "midi": 65,
      "hit": false,
      "t": 223845.9299999999,
      "d": 329.6700000000128,
      "v": 39
    },
    {
      "midi": 68,
      "hit": false,
      "t": 223845.9299999999,
      "d": 329.6700000000128,
      "v": 39
    },
    {
      "midi": 75,
      "hit": false,
      "t": 224175.59999999983,
      "d": 659.3399999999965,
      "v": 51
    },
    {
      "midi": 58,
      "hit": false,
      "t": 224175.59999999992,
      "d": 659.3399999999965,
      "v": 51
    },
    {
      "midi": 63,
      "hit": false,
      "t": 224175.59999999992,
      "d": 659.3399999999965,
      "v": 51
    },
    {
      "midi": 67,
      "hit": false,
      "t": 224175.59999999992,
      "d": 659.3399999999965,
      "v": 51
    },
    {
      "midi": 75,
      "hit": false,
      "t": 224834.93999999983,
      "d": 659.3399999999965,
      "v": 54
    },
    {
      "midi": 58,
      "hit": false,
      "t": 224834.93999999992,
      "d": 659.3399999999965,
      "v": 51
    },
    {
      "midi": 65,
      "hit": false,
      "t": 224834.93999999992,
      "d": 659.3399999999965,
      "v": 51
    },
    {
      "midi": 68,
      "hit": false,
      "t": 224834.93999999992,
      "d": 659.3399999999965,
      "v": 51
    },
    {
      "midi": 39,
      "hit": false,
      "t": 225494.27999999982,
      "d": 659.3399999999965,
      "v": 57
    },
    {
      "midi": 51,
      "hit": false,
      "t": 225494.27999999982,
      "d": 659.3399999999965,
      "v": 57
    },
    {
      "midi": 63,
      "hit": false,
      "t": 225494.2799999999,
      "d": 989.0100000000093,
      "v": 55
    },
    {
      "midi": 67,
      "hit": false,
      "t": 225494.2799999999,
      "d": 989.0100000000093,
      "v": 55
    },
    {
      "midi": 70,
      "hit": false,
      "t": 225494.2799999999,
      "d": 989.0100000000093,
      "v": 55
    },
    {
      "midi": 87,
      "hit": false,
      "t": 226153.61999999982,
      "d": 659.3399999999965,
      "v": 64
    },
    {
      "midi": 63,
      "hit": false,
      "t": 226483.28999999992,
      "d": 329.6700000000128,
      "v": 44
    },
    {
      "midi": 68,
      "hit": false,
      "t": 226483.28999999992,
      "d": 329.6700000000128,
      "v": 44
    },
    {
      "midi": 72,
      "hit": false,
      "t": 226483.28999999992,
      "d": 329.6700000000128,
      "v": 44
    },
    {
      "midi": 87,
      "hit": false,
      "t": 226812.95999999982,
      "d": 659.3399999999965,
      "v": 64
    },
    {
      "midi": 63,
      "hit": false,
      "t": 226812.95999999993,
      "d": 1318.679999999993,
      "v": 55
    },
    {
      "midi": 67,
      "hit": false,
      "t": 226812.95999999993,
      "d": 1318.679999999993,
      "v": 55
    },
    {
      "midi": 70,
      "hit": false,
      "t": 226812.95999999993,
      "d": 1318.679999999993,
      "v": 55
    },
    {
      "midi": 87,
      "hit": false,
      "t": 227472.2999999998,
      "d": 659.3399999999965,
      "v": 64
    },
    {
      "midi": 39,
      "hit": false,
      "t": 228131.6399999998,
      "d": 1318.679999999993,
      "v": 67
    },
    {
      "midi": 51,
      "hit": false,
      "t": 228131.6399999998,
      "d": 1318.679999999993,
      "v": 67
    },
    {
      "midi": 63,
      "hit": false,
      "t": 228131.63999999993,
      "d": 659.3399999999965,
      "v": 82
    },
    {
      "midi": 67,
      "hit": false,
      "t": 228131.63999999993,
      "d": 659.3399999999965,
      "v": 82
    },
    {
      "midi": 70,
      "hit": false,
      "t": 228131.63999999993,
      "d": 659.3399999999965,
      "v": 82
    },
    {
      "midi": 75,
      "hit": false,
      "t": 228131.63999999993,
      "d": 659.3399999999965,
      "v": 82
    },
    {
      "midi": 63,
      "hit": false,
      "t": 228790.97999999992,
      "d": 659.3399999999965,
      "v": 80
    },
    {
      "midi": 70,
      "hit": false,
      "t": 228790.97999999992,
      "d": 659.3399999999965,
      "v": 80
    },
    {
      "midi": 74,
      "hit": false,
      "t": 228790.97999999992,
      "d": 659.3399999999965,
      "v": 80
    },
    {
      "midi": 44,
      "hit": false,
      "t": 229450.3199999998,
      "d": 659.3399999999965,
      "v": 57
    },
    {
      "midi": 56,
      "hit": false,
      "t": 229450.3199999998,
      "d": 659.3399999999965,
      "v": 57
    },
    {
      "midi": 63,
      "hit": false,
      "t": 229450.31999999992,
      "d": 659.3399999999965,
      "v": 77
    },
    {
      "midi": 68,
      "hit": false,
      "t": 229450.31999999992,
      "d": 659.3399999999965,
      "v": 77
    },
    {
      "midi": 72,
      "hit": false,
      "t": 229450.31999999992,
      "d": 659.3399999999965,
      "v": 77
    },
    {
      "midi": 39,
      "hit": false,
      "t": 230109.6599999998,
      "d": 659.3399999999965,
      "v": 56
    },
    {
      "midi": 51,
      "hit": false,
      "t": 230109.6599999998,
      "d": 659.3399999999965,
      "v": 56
    },
    {
      "midi": 63,
      "hit": false,
      "t": 230109.65999999992,
      "d": 659.3399999999965,
      "v": 76
    },
    {
      "midi": 67,
      "hit": false,
      "t": 230109.65999999992,
      "d": 659.3399999999965,
      "v": 76
    },
    {
      "midi": 70,
      "hit": false,
      "t": 230109.65999999992,
      "d": 659.3399999999965,
      "v": 76
    },
    {
      "midi": 32,
      "hit": false,
      "t": 230768.9999999998,
      "d": 1318.679999999993,
      "v": 74
    },
    {
      "midi": 44,
      "hit": false,
      "t": 230768.9999999998,
      "d": 1318.679999999993,
      "v": 74
    },
    {
      "midi": 63,
      "hit": false,
      "t": 230768.9999999999,
      "d": 659.3399999999965,
      "v": 86
    },
    {
      "midi": 72,
      "hit": false,
      "t": 230768.9999999999,
      "d": 659.3399999999965,
      "v": 86
    },
    {
      "midi": 75,
      "hit": false,
      "t": 230768.9999999999,
      "d": 659.3399999999965,
      "v": 86
    },
    {
      "midi": 63,
      "hit": false,
      "t": 231428.3399999999,
      "d": 659.3399999999965,
      "v": 74
    },
    {
      "midi": 68,
      "hit": false,
      "t": 231428.3399999999,
      "d": 659.3399999999965,
      "v": 74
    },
    {
      "midi": 72,
      "hit": false,
      "t": 231428.3399999999,
      "d": 659.3399999999965,
      "v": 74
    },
    {
      "midi": 36,
      "hit": false,
      "t": 232087.6799999998,
      "d": 659.3399999999965,
      "v": 66
    },
    {
      "midi": 48,
      "hit": false,
      "t": 232087.6799999998,
      "d": 659.3399999999965,
      "v": 66
    },
    {
      "midi": 60,
      "hit": false,
      "t": 232087.6799999999,
      "d": 659.3399999999965,
      "v": 75
    },
    {
      "midi": 67,
      "hit": false,
      "t": 232087.6799999999,
      "d": 659.3399999999965,
      "v": 75
    },
    {
      "midi": 70,
      "hit": false,
      "t": 232087.6799999999,
      "d": 659.3399999999965,
      "v": 75
    },
    {
      "midi": 41,
      "hit": false,
      "t": 232747.0199999998,
      "d": 659.3399999999965,
      "v": 57
    },
    {
      "midi": 53,
      "hit": false,
      "t": 232747.0199999998,
      "d": 659.3399999999965,
      "v": 57
    },
    {
      "midi": 60,
      "hit": false,
      "t": 232747.0199999999,
      "d": 659.3399999999965,
      "v": 69
    },
    {
      "midi": 65,
      "hit": false,
      "t": 232747.0199999999,
      "d": 659.3399999999965,
      "v": 69
    },
    {
      "midi": 68,
      "hit": false,
      "t": 232747.0199999999,
      "d": 659.3399999999965,
      "v": 69
    },
    {
      "midi": 34,
      "hit": false,
      "t": 233406.35999999978,
      "d": 659.3399999999965,
      "v": 71
    },
    {
      "midi": 46,
      "hit": false,
      "t": 233406.35999999978,
      "d": 659.3399999999965,
      "v": 71
    },
    {
      "midi": 58,
      "hit": false,
      "t": 233406.3599999999,
      "d": 1318.679999999993,
      "v": 82
    },
    {
      "midi": 63,
      "hit": false,
      "t": 233406.3599999999,
      "d": 1318.679999999993,
      "v": 82
    },
    {
      "midi": 67,
      "hit": false,
      "t": 233406.3599999999,
      "d": 1318.679999999993,
      "v": 82
    },
    {
      "midi": 70,
      "hit": false,
      "t": 234065.69999999978,
      "d": 659.3399999999965,
      "v": 58
    },
    {
      "midi": 34,
      "hit": false,
      "t": 234725.03999999978,
      "d": 659.3399999999965,
      "v": 69
    },
    {
      "midi": 46,
      "hit": false,
      "t": 234725.03999999978,
      "d": 659.3399999999965,
      "v": 69
    },
    {
      "midi": 56,
      "hit": false,
      "t": 234725.0399999999,
      "d": 1318.679999999993,
      "v": 61
    },
    {
      "midi": 58,
      "hit": false,
      "t": 234725.0399999999,
      "d": 1318.679999999993,
      "v": 61
    },
    {
      "midi": 62,
      "hit": false,
      "t": 234725.0399999999,
      "d": 1318.679999999993,
      "v": 61
    },
    {
      "midi": 65,
      "hit": false,
      "t": 234725.0399999999,
      "d": 1318.679999999993,
      "v": 61
    },
    {
      "midi": 82,
      "hit": false,
      "t": 235384.37999999977,
      "d": 659.3399999999965,
      "v": 63
    },
    {
      "midi": 39,
      "hit": false,
      "t": 236043.71999999977,
      "d": 659.3399999999965,
      "v": 54
    },
    {
      "midi": 51,
      "hit": false,
      "t": 236043.71999999977,
      "d": 659.3399999999965,
      "v": 54
    },
    {
      "midi": 55,
      "hit": false,
      "t": 236043.71999999988,
      "d": 659.3399999999965,
      "v": 62
    },
    {
      "midi": 58,
      "hit": false,
      "t": 236043.71999999988,
      "d": 659.3399999999965,
      "v": 62
    },
    {
      "midi": 63,
      "hit": false,
      "t": 236043.71999999988,
      "d": 659.3399999999965,
      "v": 62
    },
    {
      "midi": 58,
      "hit": false,
      "t": 236703.05999999976,
      "d": 659.3399999999965,
      "v": 56
    },
    {
      "midi": 63,
      "hit": false,
      "t": 236703.05999999976,
      "d": 659.3399999999965,
      "v": 56
    },
    {
      "midi": 67,
      "hit": false,
      "t": 236703.05999999976,
      "d": 659.3399999999965,
      "v": 56
    },
    {
      "midi": 82,
      "hit": false,
      "t": 236703.05999999988,
      "d": 164.83499999999185,
      "v": 59
    },
    {
      "midi": 70,
      "hit": false,
      "t": 236867.89499999987,
      "d": 164.83499999999185,
      "v": 49
    },
    {
      "midi": 82,
      "hit": false,
      "t": 237032.72999999986,
      "d": 164.83499999999185,
      "v": 64
    },
    {
      "midi": 70,
      "hit": false,
      "t": 237197.56499999986,
      "d": 164.83499999999185,
      "v": 52
    },
    {
      "midi": 56,
      "hit": false,
      "t": 237362.39999999976,
      "d": 659.3399999999965,
      "v": 59
    },
    {
      "midi": 58,
      "hit": false,
      "t": 237362.39999999976,
      "d": 659.3399999999965,
      "v": 59
    },
    {
      "midi": 65,
      "hit": false,
      "t": 237362.39999999976,
      "d": 659.3399999999965,
      "v": 59
    },
    {
      "midi": 82,
      "hit": false,
      "t": 237362.39999999985,
      "d": 164.83499999999185,
      "v": 65
    },
    {
      "midi": 70,
      "hit": false,
      "t": 237527.23499999984,
      "d": 164.83499999999185,
      "v": 52
    },
    {
      "midi": 82,
      "hit": false,
      "t": 237692.06999999983,
      "d": 164.83499999999185,
      "v": 68
    },
    {
      "midi": 70,
      "hit": false,
      "t": 237856.90499999982,
      "d": 164.83499999999185,
      "v": 55
    },
    {
      "midi": 53,
      "hit": false,
      "t": 238021.73999999976,
      "d": 659.3399999999965,
      "v": 61
    },
    {
      "midi": 58,
      "hit": false,
      "t": 238021.73999999976,
      "d": 659.3399999999965,
      "v": 61
    },
    {
      "midi": 62,
      "hit": false,
      "t": 238021.73999999976,
      "d": 659.3399999999965,
      "v": 61
    },
    {
      "midi": 82,
      "hit": false,
      "t": 238021.73999999982,
      "d": 164.83499999999185,
      "v": 69
    },
    {
      "midi": 70,
      "hit": false,
      "t": 238186.5749999998,
      "d": 164.83499999999185,
      "v": 58
    },
    {
      "midi": 82,
      "hit": false,
      "t": 238351.4099999998,
      "d": 164.83499999999185,
      "v": 72
    },
    {
      "midi": 70,
      "hit": false,
      "t": 238516.2449999998,
      "d": 164.83499999999185,
      "v": 60
    },
    {
      "midi": 39,
      "hit": false,
      "t": 238681.07999999975,
      "d": 164.83499999999185,
      "v": 73
    },
    {
      "midi": 70,
      "hit": false,
      "t": 238681.07999999978,
      "d": 1318.679999999993,
      "v": 82
    },
    {
      "midi": 75,
      "hit": false,
      "t": 238681.07999999978,
      "d": 1318.679999999993,
      "v": 82
    },
    {
      "midi": 79,
      "hit": false,
      "t": 238681.07999999978,
      "d": 1318.679999999993,
      "v": 82
    },
    {
      "midi": 82,
      "hit": false,
      "t": 238681.07999999978,
      "d": 1318.679999999993,
      "v": 82
    },
    {
      "midi": 46,
      "hit": false,
      "t": 238845.91499999975,
      "d": 164.83499999999185,
      "v": 61
    },
    {
      "midi": 51,
      "hit": false,
      "t": 239010.74999999974,
      "d": 164.83499999999185,
      "v": 68
    },
    {
      "midi": 55,
      "hit": false,
      "t": 239175.58499999973,
      "d": 164.83499999999185,
      "v": 59
    },
    {
      "midi": 58,
      "hit": false,
      "t": 239340.41999999972,
      "d": 164.83499999999185,
      "v": 73
    },
    {
      "midi": 63,
      "hit": false,
      "t": 239505.2549999997,
      "d": 164.83499999999185,
      "v": 62
    },
    {
      "midi": 67,
      "hit": false,
      "t": 239670.0899999997,
      "d": 164.83499999999185,
      "v": 68
    },
    {
      "midi": 63,
      "hit": false,
      "t": 239834.9249999997,
      "d": 164.83499999999185,
      "v": 60
    },
    {
      "midi": 68,
      "hit": false,
      "t": 239999.7599999997,
      "d": 329.6700000000128,
      "v": 78
    },
    {
      "midi": 72,
      "hit": false,
      "t": 239999.75999999978,
      "d": 1318.679999999993,
      "v": 80
    },
    {
      "midi": 75,
      "hit": false,
      "t": 239999.75999999978,
      "d": 1318.679999999993,
      "v": 80
    },
    {
      "midi": 80,
      "hit": false,
      "t": 239999.75999999978,
      "d": 1318.679999999993,
      "v": 80
    },
    {
      "midi": 84,
      "hit": false,
      "t": 239999.75999999978,
      "d": 1318.679999999993,
      "v": 80
    },
    {
      "midi": 63,
      "hit": false,
      "t": 240329.4299999997,
      "d": 329.6700000000128,
      "v": 70
    },
    {
      "midi": 60,
      "hit": false,
      "t": 240659.09999999971,
      "d": 329.6700000000128,
      "v": 75
    },
    {
      "midi": 56,
      "hit": false,
      "t": 240988.76999999973,
      "d": 329.6700000000128,
      "v": 70
    },
    {
      "midi": 39,
      "hit": false,
      "t": 241318.43999999974,
      "d": 164.83499999999185,
      "v": 73
    },
    {
      "midi": 70,
      "hit": false,
      "t": 241318.43999999977,
      "d": 989.0100000000093,
      "v": 82
    },
    {
      "midi": 75,
      "hit": false,
      "t": 241318.43999999977,
      "d": 989.0100000000093,
      "v": 82
    },
    {
      "midi": 79,
      "hit": false,
      "t": 241318.43999999977,
      "d": 989.0100000000093,
      "v": 82
    },
    {
      "midi": 82,
      "hit": false,
      "t": 241318.43999999977,
      "d": 989.0100000000093,
      "v": 82
    },
    {
      "midi": 46,
      "hit": false,
      "t": 241483.27499999973,
      "d": 164.83499999999185,
      "v": 66
    },
    {
      "midi": 51,
      "hit": false,
      "t": 241648.10999999972,
      "d": 164.83499999999185,
      "v": 66
    },
    {
      "midi": 55,
      "hit": false,
      "t": 241812.94499999972,
      "d": 164.83499999999185,
      "v": 66
    },
    {
      "midi": 58,
      "hit": false,
      "t": 241977.7799999997,
      "d": 329.6700000000128,
      "v": 75
    },
    {
      "midi": 63,
      "hit": false,
      "t": 242307.44999999972,
      "d": 329.6700000000128,
      "v": 66
    },
    {
      "midi": 68,
      "hit": false,
      "t": 242307.44999999978,
      "d": 329.6700000000128,
      "v": 66
    },
    {
      "midi": 77,
      "hit": false,
      "t": 242307.44999999978,
      "d": 329.6700000000128,
      "v": 66
    },
    {
      "midi": 80,
      "hit": false,
      "t": 242307.44999999978,
      "d": 329.6700000000128,
      "v": 66
    },
    {
      "midi": 51,
      "hit": false,
      "t": 242637.11999999973,
      "d": 329.6700000000128,
      "v": 80
    },
    {
      "midi": 67,
      "hit": false,
      "t": 242637.1199999998,
      "d": 659.3399999999965,
      "v": 82
    },
    {
      "midi": 75,
      "hit": false,
      "t": 242637.1199999998,
      "d": 659.3399999999965,
      "v": 82
    },
    {
      "midi": 79,
      "hit": false,
      "t": 242637.1199999998,
      "d": 659.3399999999965,
      "v": 82
    },
    {
      "midi": 63,
      "hit": false,
      "t": 242966.78999999975,
      "d": 329.6700000000128,
      "v": 73
    },
    {
      "midi": 46,
      "hit": false,
      "t": 243296.45999999976,
      "d": 329.6700000000128,
      "v": 81
    },
    {
      "midi": 68,
      "hit": false,
      "t": 243296.4599999998,
      "d": 659.3399999999965,
      "v": 89
    },
    {
      "midi": 77,
      "hit": false,
      "t": 243296.4599999998,
      "d": 659.3399999999965,
      "v": 89
    },
    {
      "midi": 80,
      "hit": false,
      "t": 243296.4599999998,
      "d": 659.3399999999965,
      "v": 89
    },
    {
      "midi": 58,
      "hit": false,
      "t": 243626.12999999977,
      "d": 329.6700000000128,
      "v": 66
    },
    {
      "midi": 70,
      "hit": false,
      "t": 243955.79999999978,
      "d": 1318.679999999993,
      "v": 96
    },
    {
      "midi": 75,
      "hit": false,
      "t": 243955.79999999978,
      "d": 1318.679999999993,
      "v": 96
    },
    {
      "midi": 79,
      "hit": false,
      "t": 243955.79999999978,
      "d": 1318.679999999993,
      "v": 96
    },
    {
      "midi": 82,
      "hit": false,
      "t": 243955.79999999978,
      "d": 1318.679999999993,
      "v": 96
    },
    {
      "midi": 39,
      "hit": false,
      "t": 243955.79999999978,
      "d": 164.83499999999185,
      "v": 78
    },
    {
      "midi": 46,
      "hit": false,
      "t": 244120.63499999978,
      "d": 164.83499999999185,
      "v": 63
    },
    {
      "midi": 51,
      "hit": false,
      "t": 244285.46999999977,
      "d": 164.83499999999185,
      "v": 63
    },
    {
      "midi": 55,
      "hit": false,
      "t": 244450.30499999976,
      "d": 164.83499999999185,
      "v": 63
    },
    {
      "midi": 58,
      "hit": false,
      "t": 244615.13999999975,
      "d": 164.83499999999185,
      "v": 73
    },
    {
      "midi": 63,
      "hit": false,
      "t": 244779.97499999974,
      "d": 164.83499999999185,
      "v": 62
    },
    {
      "midi": 67,
      "hit": false,
      "t": 244944.80999999974,
      "d": 164.83499999999185,
      "v": 62
    },
    {
      "midi": 63,
      "hit": false,
      "t": 245109.64499999973,
      "d": 164.83499999999185,
      "v": 62
    },
    {
      "midi": 68,
      "hit": false,
      "t": 245274.47999999972,
      "d": 329.6700000000128,
      "v": 78
    },
    {
      "midi": 72,
      "hit": false,
      "t": 245274.47999999978,
      "d": 1318.679999999993,
      "v": 88
    },
    {
      "midi": 75,
      "hit": false,
      "t": 245274.47999999978,
      "d": 1318.679999999993,
      "v": 88
    },
    {
      "midi": 80,
      "hit": false,
      "t": 245274.47999999978,
      "d": 1318.679999999993,
      "v": 88
    },
    {
      "midi": 84,
      "hit": false,
      "t": 245274.47999999978,
      "d": 1318.679999999993,
      "v": 88
    },
    {
      "midi": 63,
      "hit": false,
      "t": 245604.14999999973,
      "d": 329.6700000000128,
      "v": 66
    },
    {
      "midi": 60,
      "hit": false,
      "t": 245933.81999999975,
      "d": 329.6700000000128,
      "v": 73
    },
    {
      "midi": 56,
      "hit": false,
      "t": 246263.48999999976,
      "d": 329.6700000000128,
      "v": 66
    },
    {
      "midi": 70,
      "hit": false,
      "t": 246593.15999999977,
      "d": 989.0100000000093,
      "v": 93
    },
    {
      "midi": 75,
      "hit": false,
      "t": 246593.15999999977,
      "d": 989.0100000000093,
      "v": 93
    },
    {
      "midi": 79,
      "hit": false,
      "t": 246593.15999999977,
      "d": 989.0100000000093,
      "v": 93
    },
    {
      "midi": 82,
      "hit": false,
      "t": 246593.15999999977,
      "d": 989.0100000000093,
      "v": 93
    },
    {
      "midi": 39,
      "hit": false,
      "t": 246593.15999999977,
      "d": 164.83499999999185,
      "v": 74
    },
    {
      "midi": 46,
      "hit": false,
      "t": 246757.99499999976,
      "d": 164.83499999999185,
      "v": 61
    },
    {
      "midi": 51,
      "hit": false,
      "t": 246922.82999999975,
      "d": 164.83499999999185,
      "v": 61
    },
    {
      "midi": 55,
      "hit": false,
      "t": 247087.66499999975,
      "d": 164.83499999999185,
      "v": 61
    },
    {
      "midi": 58,
      "hit": false,
      "t": 247252.49999999974,
      "d": 329.6700000000128,
      "v": 66
    },
    {
      "midi": 63,
      "hit": false,
      "t": 247582.16999999975,
      "d": 329.6700000000128,
      "v": 60
    },
    {
      "midi": 68,
      "hit": false,
      "t": 247582.16999999978,
      "d": 329.6700000000128,
      "v": 70
    },
    {
      "midi": 77,
      "hit": false,
      "t": 247582.16999999978,
      "d": 329.6700000000128,
      "v": 70
    },
    {
      "midi": 80,
      "hit": false,
      "t": 247582.16999999978,
      "d": 329.6700000000128,
      "v": 70
    },
    {
      "midi": 51,
      "hit": false,
      "t": 247911.83999999976,
      "d": 329.6700000000128,
      "v": 66
    },
    {
      "midi": 67,
      "hit": false,
      "t": 247911.8399999998,
      "d": 659.3399999999965,
      "v": 86
    },
    {
      "midi": 75,
      "hit": false,
      "t": 247911.8399999998,
      "d": 659.3399999999965,
      "v": 86
    },
    {
      "midi": 79,
      "hit": false,
      "t": 247911.8399999998,
      "d": 659.3399999999965,
      "v": 86
    },
    {
      "midi": 63,
      "hit": false,
      "t": 248241.50999999978,
      "d": 329.6700000000128,
      "v": 60
    },
    {
      "midi": 68,
      "hit": false,
      "t": 248571.1799999998,
      "d": 659.3399999999965,
      "v": 93
    },
    {
      "midi": 77,
      "hit": false,
      "t": 248571.1799999998,
      "d": 659.3399999999965,
      "v": 93
    },
    {
      "midi": 80,
      "hit": false,
      "t": 248571.1799999998,
      "d": 659.3399999999965,
      "v": 93
    },
    {
      "midi": 46,
      "hit": false,
      "t": 248571.1799999998,
      "d": 329.6700000000128,
      "v": 66
    },
    {
      "midi": 58,
      "hit": false,
      "t": 248900.8499999998,
      "d": 329.6700000000128,
      "v": 60
    },
    {
      "midi": 70,
      "hit": false,
      "t": 249230.5199999998,
      "d": 1318.679999999993,
      "v": 95
    },
    {
      "midi": 75,
      "hit": false,
      "t": 249230.5199999998,
      "d": 1318.679999999993,
      "v": 95
    },
    {
      "midi": 79,
      "hit": false,
      "t": 249230.5199999998,
      "d": 1318.679999999993,
      "v": 95
    },
    {
      "midi": 82,
      "hit": false,
      "t": 249230.5199999998,
      "d": 1318.679999999993,
      "v": 95
    },
    {
      "midi": 39,
      "hit": false,
      "t": 249230.51999999981,
      "d": 164.83499999999185,
      "v": 74
    },
    {
      "midi": 46,
      "hit": false,
      "t": 249395.3549999998,
      "d": 164.83499999999185,
      "v": 62
    },
    {
      "midi": 51,
      "hit": false,
      "t": 249560.1899999998,
      "d": 164.83499999999185,
      "v": 62
    },
    {
      "midi": 55,
      "hit": false,
      "t": 249725.0249999998,
      "d": 164.83499999999185,
      "v": 62
    },
    {
      "midi": 46,
      "hit": false,
      "t": 249889.85999999978,
      "d": 164.83499999999185,
      "v": 71
    },
    {
      "midi": 51,
      "hit": false,
      "t": 250054.69499999977,
      "d": 164.83499999999185,
      "v": 62
    },
    {
      "midi": 55,
      "hit": false,
      "t": 250219.52999999977,
      "d": 164.83499999999185,
      "v": 62
    },
    {
      "midi": 58,
      "hit": false,
      "t": 250384.36499999976,
      "d": 164.83499999999185,
      "v": 63
    },
    {
      "midi": 50,
      "hit": false,
      "t": 250549.19999999975,
      "d": 164.83499999999185,
      "v": 79
    },
    {
      "midi": 70,
      "hit": false,
      "t": 250549.19999999978,
      "d": 1318.679999999993,
      "v": 96
    },
    {
      "midi": 74,
      "hit": false,
      "t": 250549.19999999978,
      "d": 1318.679999999993,
      "v": 96
    },
    {
      "midi": 77,
      "hit": false,
      "t": 250549.19999999978,
      "d": 1318.679999999993,
      "v": 96
    },
    {
      "midi": 82,
      "hit": false,
      "t": 250549.19999999978,
      "d": 1318.679999999993,
      "v": 96
    },
    {
      "midi": 53,
      "hit": false,
      "t": 250714.03499999974,
      "d": 164.83499999999185,
      "v": 64
    },
    {
      "midi": 58,
      "hit": false,
      "t": 250878.86999999973,
      "d": 164.83499999999185,
      "v": 64
    },
    {
      "midi": 62,
      "hit": false,
      "t": 251043.70499999973,
      "d": 164.83499999999185,
      "v": 64
    },
    {
      "midi": 58,
      "hit": false,
      "t": 251208.53999999972,
      "d": 164.83499999999185,
      "v": 79
    },
    {
      "midi": 62,
      "hit": false,
      "t": 251373.3749999997,
      "d": 164.83499999999185,
      "v": 66
    },
    {
      "midi": 58,
      "hit": false,
      "t": 251538.2099999997,
      "d": 164.83499999999185,
      "v": 66
    },
    {
      "midi": 53,
      "hit": false,
      "t": 251703.0449999997,
      "d": 164.83499999999185,
      "v": 66
    },
    {
      "midi": 41,
      "hit": false,
      "t": 251867.87999999968,
      "d": 329.6700000000128,
      "v": 79
    },
    {
      "midi": 72,
      "hit": false,
      "t": 251867.87999999977,
      "d": 1318.679999999993,
      "v": 97
    },
    {
      "midi": 77,
      "hit": false,
      "t": 251867.87999999977,
      "d": 1318.679999999993,
      "v": 97
    },
    {
      "midi": 81,
      "hit": false,
      "t": 251867.87999999977,
      "d": 1318.679999999993,
      "v": 97
    },
    {
      "midi": 84,
      "hit": false,
      "t": 251867.87999999977,
      "d": 1318.679999999993,
      "v": 97
    },
    {
      "midi": 45,
      "hit": false,
      "t": 252197.5499999997,
      "d": 164.83499999999185,
      "v": 66
    },
    {
      "midi": 48,
      "hit": false,
      "t": 252362.3849999997,
      "d": 164.83499999999185,
      "v": 66
    },
    {
      "midi": 53,
      "hit": false,
      "t": 252527.21999999968,
      "d": 164.83499999999185,
      "v": 72
    },
    {
      "midi": 57,
      "hit": false,
      "t": 252692.05499999967,
      "d": 164.83499999999185,
      "v": 66
    },
    {
      "midi": 60,
      "hit": false,
      "t": 252856.88999999966,
      "d": 164.83499999999185,
      "v": 66
    },
    {
      "midi": 65,
      "hit": false,
      "t": 253021.72499999966,
      "d": 164.83499999999185,
      "v": 66
    },
    {
      "midi": 46,
      "hit": false,
      "t": 253186.55999999965,
      "d": 659.3399999999965,
      "v": 78
    },
    {
      "midi": 58,
      "hit": false,
      "t": 253186.55999999965,
      "d": 659.3399999999965,
      "v": 78
    },
    {
      "midi": 74,
      "hit": false,
      "t": 253186.55999999976,
      "d": 659.3399999999965,
      "v": 101
    },
    {
      "midi": 77,
      "hit": false,
      "t": 253186.55999999976,
      "d": 659.3399999999965,
      "v": 101
    },
    {
      "midi": 82,
      "hit": false,
      "t": 253186.55999999976,
      "d": 659.3399999999965,
      "v": 101
    },
    {
      "midi": 86,
      "hit": false,
      "t": 253186.55999999976,
      "d": 659.3399999999965,
      "v": 101
    },
    {
      "midi": 39,
      "hit": false,
      "t": 253845.89999999964,
      "d": 659.3399999999965,
      "v": 80
    },
    {
      "midi": 51,
      "hit": false,
      "t": 253845.89999999964,
      "d": 659.3399999999965,
      "v": 80
    },
    {
      "midi": 75,
      "hit": false,
      "t": 253845.89999999976,
      "d": 659.3399999999965,
      "v": 105
    },
    {
      "midi": 79,
      "hit": false,
      "t": 253845.89999999976,
      "d": 659.3399999999965,
      "v": 105
    },
    {
      "midi": 84,
      "hit": false,
      "t": 253845.89999999976,
      "d": 659.3399999999965,
      "v": 105
    },
    {
      "midi": 87,
      "hit": false,
      "t": 253845.89999999976,
      "d": 659.3399999999965,
      "v": 105
    },
    {
      "midi": 41,
      "hit": false,
      "t": 254505.23999999964,
      "d": 329.6700000000128,
      "v": 83
    },
    {
      "midi": 53,
      "hit": false,
      "t": 254505.23999999964,
      "d": 329.6700000000128,
      "v": 83
    },
    {
      "midi": 74,
      "hit": false,
      "t": 254505.23999999976,
      "d": 1318.679999999993,
      "v": 108
    },
    {
      "midi": 77,
      "hit": false,
      "t": 254505.23999999976,
      "d": 1318.679999999993,
      "v": 108
    },
    {
      "midi": 82,
      "hit": false,
      "t": 254505.23999999976,
      "d": 1318.679999999993,
      "v": 108
    },
    {
      "midi": 86,
      "hit": false,
      "t": 254505.23999999976,
      "d": 1318.679999999993,
      "v": 108
    },
    {
      "midi": 70,
      "hit": false,
      "t": 254834.90999999965,
      "d": 164.83499999999185,
      "v": 78
    },
    {
      "midi": 69,
      "hit": false,
      "t": 254999.74499999965,
      "d": 164.83499999999185,
      "v": 78
    },
    {
      "midi": 67,
      "hit": false,
      "t": 255164.57999999964,
      "d": 164.83499999999185,
      "v": 77
    },
    {
      "midi": 65,
      "hit": false,
      "t": 255329.41499999963,
      "d": 164.83499999999185,
      "v": 77
    },
    {
      "midi": 63,
      "hit": false,
      "t": 255494.24999999962,
      "d": 164.83499999999185,
      "v": 75
    },
    {
      "midi": 62,
      "hit": false,
      "t": 255659.0849999996,
      "d": 164.83499999999185,
      "v": 75
    },
    {
      "midi": 60,
      "hit": false,
      "t": 255823.9199999996,
      "d": 164.83499999999185,
      "v": 72
    },
    {
      "midi": 72,
      "hit": false,
      "t": 255823.91999999975,
      "d": 1318.679999999993,
      "v": 98
    },
    {
      "midi": 75,
      "hit": false,
      "t": 255823.91999999975,
      "d": 1318.679999999993,
      "v": 98
    },
    {
      "midi": 81,
      "hit": false,
      "t": 255823.91999999975,
      "d": 1318.679999999993,
      "v": 98
    },
    {
      "midi": 84,
      "hit": false,
      "t": 255823.91999999975,
      "d": 1318.679999999993,
      "v": 98
    },
    {
      "midi": 58,
      "hit": false,
      "t": 255988.7549999996,
      "d": 164.83499999999185,
      "v": 72
    },
    {
      "midi": 57,
      "hit": false,
      "t": 256153.5899999996,
      "d": 164.83499999999185,
      "v": 71
    },
    {
      "midi": 55,
      "hit": false,
      "t": 256318.42499999958,
      "d": 164.83499999999185,
      "v": 70
    },
    {
      "midi": 53,
      "hit": false,
      "t": 256483.25999999957,
      "d": 164.83499999999185,
      "v": 69
    },
    {
      "midi": 51,
      "hit": false,
      "t": 256648.09499999956,
      "d": 164.83499999999185,
      "v": 69
    },
    {
      "midi": 50,
      "hit": false,
      "t": 256812.92999999956,
      "d": 164.83499999999185,
      "v": 68
    },
    {
      "midi": 48,
      "hit": false,
      "t": 256977.76499999955,
      "d": 164.83499999999185,
      "v": 67
    },
    {
      "midi": 46,
      "hit": false,
      "t": 257142.59999999954,
      "d": 659.3399999999965,
      "v": 79
    },
    {
      "midi": 70,
      "hit": false,
      "t": 257142.59999999974,
      "d": 1978.0199999999895,
      "v": 95
    },
    {
      "midi": 74,
      "hit": false,
      "t": 257142.59999999974,
      "d": 1978.0199999999895,
      "v": 95
    },
    {
      "midi": 77,
      "hit": false,
      "t": 257142.59999999974,
      "d": 1978.0199999999895,
      "v": 95
    },
    {
      "midi": 82,
      "hit": false,
      "t": 257142.59999999974,
      "d": 1978.0199999999895,
      "v": 95
    },
    {
      "midi": 46,
      "hit": false,
      "t": 257801.93999999954,
      "d": 659.3399999999965,
      "v": 82
    },
    {
      "midi": 58,
      "hit": false,
      "t": 257801.93999999954,
      "d": 659.3399999999965,
      "v": 82
    },
    {
      "midi": 41,
      "hit": false,
      "t": 258461.27999999953,
      "d": 659.3399999999965,
      "v": 76
    },
    {
      "midi": 53,
      "hit": false,
      "t": 258461.27999999953,
      "d": 659.3399999999965,
      "v": 76
    },
    {
      "midi": 38,
      "hit": false,
      "t": 259120.61999999953,
      "d": 659.3399999999965,
      "v": 74
    },
    {
      "midi": 50,
      "hit": false,
      "t": 259120.61999999953,
      "d": 659.3399999999965,
      "v": 74
    },
    {
      "midi": 34,
      "hit": false,
      "t": 259779.95999999953,
      "d": 659.3399999999965,
      "v": 40
    },
    {
      "midi": 46,
      "hit": false,
      "t": 259779.95999999953,
      "d": 659.3399999999965,
      "v": 40
    },
    {
      "midi": 62,
      "hit": false,
      "t": 259779.95999999973,
      "d": 164.83499999999185,
      "v": 41
    },
    {
      "midi": 65,
      "hit": false,
      "t": 259779.95999999973,
      "d": 164.83499999999185,
      "v": 41
    },
    {
      "midi": 58,
      "hit": false,
      "t": 259944.79499999972,
      "d": 164.83499999999185,
      "v": 28
    },
    {
      "midi": 62,
      "hit": false,
      "t": 260109.6299999997,
      "d": 164.83499999999185,
      "v": 33
    },
    {
      "midi": 65,
      "hit": false,
      "t": 260109.6299999997,
      "d": 164.83499999999185,
      "v": 33
    },
    {
      "midi": 58,
      "hit": false,
      "t": 260274.4649999997,
      "d": 164.83499999999185,
      "v": 27
    },
    {
      "midi": 62,
      "hit": false,
      "t": 260439.2999999997,
      "d": 164.83499999999185,
      "v": 33
    },
    {
      "midi": 65,
      "hit": false,
      "t": 260439.2999999997,
      "d": 164.83499999999185,
      "v": 33
    },
    {
      "midi": 58,
      "hit": false,
      "t": 260604.1349999997,
      "d": 164.83499999999185,
      "v": 28
    },
    {
      "midi": 70,
      "hit": false,
      "t": 260768.96999999954,
      "d": 329.6700000000128,
      "v": 48
    },
    {
      "midi": 63,
      "hit": false,
      "t": 260768.96999999968,
      "d": 164.83499999999185,
      "v": 36
    },
    {
      "midi": 67,
      "hit": false,
      "t": 260768.96999999968,
      "d": 164.83499999999185,
      "v": 36
    },
    {
      "midi": 58,
      "hit": false,
      "t": 260933.80499999967,
      "d": 164.83499999999185,
      "v": 31
    },
    {
      "midi": 70,
      "hit": false,
      "t": 261098.63999999955,
      "d": 659.3399999999965,
      "v": 52
    },
    {
      "midi": 62,
      "hit": false,
      "t": 261098.63999999966,
      "d": 164.83499999999185,
      "v": 40
    },
    {
      "midi": 65,
      "hit": false,
      "t": 261098.63999999966,
      "d": 164.83499999999185,
      "v": 40
    },
    {
      "midi": 58,
      "hit": false,
      "t": 261263.47499999966,
      "d": 164.83499999999185,
      "v": 32
    },
    {
      "midi": 62,
      "hit": false,
      "t": 261428.30999999965,
      "d": 164.83499999999185,
      "v": 35
    },
    {
      "midi": 65,
      "hit": false,
      "t": 261428.30999999965,
      "d": 164.83499999999185,
      "v": 35
    },
    {
      "midi": 58,
      "hit": false,
      "t": 261593.14499999964,
      "d": 164.83499999999185,
      "v": 30
    },
    {
      "midi": 70,
      "hit": false,
      "t": 261757.97999999954,
      "d": 659.3399999999965,
      "v": 51
    },
    {
      "midi": 63,
      "hit": false,
      "t": 261757.97999999963,
      "d": 164.83499999999185,
      "v": 41
    },
    {
      "midi": 67,
      "hit": false,
      "t": 261757.97999999963,
      "d": 164.83499999999185,
      "v": 41
    },
    {
      "midi": 58,
      "hit": false,
      "t": 261922.81499999962,
      "d": 164.83499999999185,
      "v": 32
    },
    {
      "midi": 63,
      "hit": false,
      "t": 262087.64999999962,
      "d": 164.83500000002095,
      "v": 35
    },
    {
      "midi": 67,
      "hit": false,
      "t": 262087.64999999962,
      "d": 164.83500000002095,
      "v": 35
    },
    {
      "midi": 58,
      "hit": false,
      "t": 262252.48499999964,
      "d": 164.83500000002095,
      "v": 32
    },
    {
      "midi": 34,
      "hit": false,
      "t": 262417.31999999954,
      "d": 659.3400000000256,
      "v": 47
    },
    {
      "midi": 46,
      "hit": false,
      "t": 262417.31999999954,
      "d": 659.3400000000256,
      "v": 47
    },
    {
      "midi": 65,
      "hit": false,
      "t": 262417.31999999966,
      "d": 164.83500000002095,
      "v": 41
    },
    {
      "midi": 68,
      "hit": false,
      "t": 262417.31999999966,
      "d": 164.83500000002095,
      "v": 41
    },
    {
      "midi": 58,
      "hit": false,
      "t": 262582.1549999997,
      "d": 164.83500000002095,
      "v": 27
    },
    {
      "midi": 65,
      "hit": false,
      "t": 262746.9899999997,
      "d": 164.83500000002095,
      "v": 31
    },
    {
      "midi": 68,
      "hit": false,
      "t": 262746.9899999997,
      "d": 164.83500000002095,
      "v": 31
    },
    {
      "midi": 58,
      "hit": false,
      "t": 262911.8249999997,
      "d": 164.83500000002095,
      "v": 27
    },
    {
      "midi": 65,
      "hit": false,
      "t": 263076.65999999974,
      "d": 164.83500000002095,
      "v": 31
    },
    {
      "midi": 68,
      "hit": false,
      "t": 263076.65999999974,
      "d": 164.83500000002095,
      "v": 31
    },
    {
      "midi": 58,
      "hit": false,
      "t": 263241.49499999976,
      "d": 164.83500000002095,
      "v": 27
    },
    {
      "midi": 82,
      "hit": false,
      "t": 263406.32999999955,
      "d": 329.6699999999837,
      "v": 54
    },
    {
      "midi": 67,
      "hit": false,
      "t": 263406.3299999998,
      "d": 164.83500000002095,
      "v": 34
    },
    {
      "midi": 70,
      "hit": false,
      "t": 263406.3299999998,
      "d": 164.83500000002095,
      "v": 34
    },
    {
      "midi": 58,
      "hit": false,
      "t": 263571.1649999998,
      "d": 164.83500000002095,
      "v": 30
    },
    {
      "midi": 82,
      "hit": false,
      "t": 263735.99999999953,
      "d": 1318.679999999993,
      "v": 53
    },
    {
      "midi": 65,
      "hit": false,
      "t": 263735.9999999998,
      "d": 164.83500000002095,
      "v": 40
    },
    {
      "midi": 68,
      "hit": false,
      "t": 263735.9999999998,
      "d": 164.83500000002095,
      "v": 40
    },
    {
      "midi": 58,
      "hit": false,
      "t": 263900.83499999985,
      "d": 164.83500000002095,
      "v": 32
    },
    {
      "midi": 65,
      "hit": false,
      "t": 264065.66999999987,
      "d": 164.83500000002095,
      "v": 35
    },
    {
      "midi": 68,
      "hit": false,
      "t": 264065.66999999987,
      "d": 164.83500000002095,
      "v": 35
    },
    {
      "midi": 58,
      "hit": false,
      "t": 264230.5049999999,
      "d": 164.83500000002095,
      "v": 33
    },
    {
      "midi": 65,
      "hit": false,
      "t": 264395.3399999999,
      "d": 164.83500000002095,
      "v": 35
    },
    {
      "midi": 68,
      "hit": false,
      "t": 264395.3399999999,
      "d": 164.83500000002095,
      "v": 35
    },
    {
      "midi": 58,
      "hit": false,
      "t": 264560.17499999993,
      "d": 164.83500000002095,
      "v": 31
    },
    {
      "midi": 65,
      "hit": false,
      "t": 264725.00999999995,
      "d": 164.83500000002095,
      "v": 35
    },
    {
      "midi": 68,
      "hit": false,
      "t": 264725.00999999995,
      "d": 164.83500000002095,
      "v": 35
    },
    {
      "midi": 58,
      "hit": false,
      "t": 264889.845,
      "d": 164.83500000002095,
      "v": 31
    },
    {
      "midi": 39,
      "hit": false,
      "t": 265054.6799999995,
      "d": 659.3400000000256,
      "v": 48
    },
    {
      "midi": 51,
      "hit": false,
      "t": 265054.6799999995,
      "d": 659.3400000000256,
      "v": 48
    },
    {
      "midi": 63,
      "hit": false,
      "t": 265054.68,
      "d": 164.83500000002095,
      "v": 47
    },
    {
      "midi": 67,
      "hit": false,
      "t": 265054.68,
      "d": 164.83500000002095,
      "v": 47
    },
    {
      "midi": 58,
      "hit": false,
      "t": 265219.515,
      "d": 164.83500000002095,
      "v": 27
    },
    {
      "midi": 63,
      "hit": false,
      "t": 265384.35000000003,
      "d": 164.83500000002095,
      "v": 32
    },
    {
      "midi": 67,
      "hit": false,
      "t": 265384.35000000003,
      "d": 164.83500000002095,
      "v": 32
    },
    {
      "midi": 58,
      "hit": false,
      "t": 265549.18500000006,
      "d": 164.83500000002095,
      "v": 26
    },
    {
      "midi": 63,
      "hit": false,
      "t": 265714.0200000001,
      "d": 164.83500000002095,
      "v": 33
    },
    {
      "midi": 67,
      "hit": false,
      "t": 265714.0200000001,
      "d": 164.83500000002095,
      "v": 33
    },
    {
      "midi": 58,
      "hit": false,
      "t": 265878.8550000001,
      "d": 164.83500000002095,
      "v": 29
    },
    {
      "midi": 75,
      "hit": false,
      "t": 266043.68999999954,
      "d": 329.6699999999837,
      "v": 55
    },
    {
      "midi": 65,
      "hit": false,
      "t": 266043.6900000001,
      "d": 164.83500000002095,
      "v": 39
    },
    {
      "midi": 68,
      "hit": false,
      "t": 266043.6900000001,
      "d": 164.83500000002095,
      "v": 39
    },
    {
      "midi": 58,
      "hit": false,
      "t": 266208.52500000014,
      "d": 164.83500000002095,
      "v": 34
    },
    {
      "midi": 75,
      "hit": false,
      "t": 266373.3599999995,
      "d": 659.3400000000256,
      "v": 56
    },
    {
      "midi": 63,
      "hit": false,
      "t": 266373.36000000016,
      "d": 164.83500000002095,
      "v": 51
    },
    {
      "midi": 67,
      "hit": false,
      "t": 266373.36000000016,
      "d": 164.83500000002095,
      "v": 51
    },
    {
      "midi": 58,
      "hit": false,
      "t": 266538.1950000002,
      "d": 164.83500000002095,
      "v": 37
    },
    {
      "midi": 63,
      "hit": false,
      "t": 266703.0300000002,
      "d": 164.83500000002095,
      "v": 37
    },
    {
      "midi": 67,
      "hit": false,
      "t": 266703.0300000002,
      "d": 164.83500000002095,
      "v": 37
    },
    {
      "midi": 58,
      "hit": false,
      "t": 266867.8650000002,
      "d": 164.83500000002095,
      "v": 35
    },
    {
      "midi": 75,
      "hit": false,
      "t": 267032.69999999955,
      "d": 659.3400000000256,
      "v": 54
    },
    {
      "midi": 65,
      "hit": false,
      "t": 267032.70000000024,
      "d": 164.83500000002095,
      "v": 51
    },
    {
      "midi": 68,
      "hit": false,
      "t": 267032.70000000024,
      "d": 164.83500000002095,
      "v": 51
    },
    {
      "midi": 58,
      "hit": false,
      "t": 267197.53500000027,
      "d": 164.83500000002095,
      "v": 37
    },
    {
      "midi": 65,
      "hit": false,
      "t": 267362.3700000003,
      "d": 164.83500000002095,
      "v": 42
    },
    {
      "midi": 68,
      "hit": false,
      "t": 267362.3700000003,
      "d": 164.83500000002095,
      "v": 42
    },
    {
      "midi": 58,
      "hit": false,
      "t": 267527.2050000003,
      "d": 164.83500000002095,
      "v": 37
    },
    {
      "midi": 39,
      "hit": false,
      "t": 267692.0399999996,
      "d": 659.3400000000256,
      "v": 57
    },
    {
      "midi": 51,
      "hit": false,
      "t": 267692.0399999996,
      "d": 659.3400000000256,
      "v": 57
    },
    {
      "midi": 67,
      "hit": false,
      "t": 267692.0400000003,
      "d": 164.83500000002095,
      "v": 55
    },
    {
      "midi": 70,
      "hit": false,
      "t": 267692.0400000003,
      "d": 164.83500000002095,
      "v": 55
    },
    {
      "midi": 63,
      "hit": false,
      "t": 267856.87500000035,
      "d": 164.83500000002095,
      "v": 41
    },
    {
      "midi": 67,
      "hit": false,
      "t": 268021.71000000037,
      "d": 164.83500000002095,
      "v": 46
    },
    {
      "midi": 70,
      "hit": false,
      "t": 268021.71000000037,
      "d": 164.83500000002095,
      "v": 46
    },
    {
      "midi": 63,
      "hit": false,
      "t": 268186.5450000004,
      "d": 164.83500000002095,
      "v": 41
    },
    {
      "midi": 67,
      "hit": false,
      "t": 268351.3800000004,
      "d": 164.83500000002095,
      "v": 36
    },
    {
      "midi": 70,
      "hit": false,
      "t": 268351.3800000004,
      "d": 164.83500000002095,
      "v": 36
    },
    {
      "midi": 63,
      "hit": false,
      "t": 268516.21500000043,
      "d": 164.83500000002095,
      "v": 36
    },
    {
      "midi": 87,
      "hit": false,
      "t": 268681.0499999996,
      "d": 329.6699999999837,
      "v": 70
    },
    {
      "midi": 68,
      "hit": false,
      "t": 268681.05000000045,
      "d": 164.83500000002095,
      "v": 44
    },
    {
      "midi": 72,
      "hit": false,
      "t": 268681.05000000045,
      "d": 164.83500000002095,
      "v": 44
    },
    {
      "midi": 63,
      "hit": false,
      "t": 268845.8850000005,
      "d": 164.83500000002095,
      "v": 41
    },
    {
      "midi": 87,
      "hit": false,
      "t": 269010.71999999956,
      "d": 1318.679999999993,
      "v": 73
    },
    {
      "midi": 67,
      "hit": false,
      "t": 269010.7200000005,
      "d": 164.83500000002095,
      "v": 55
    },
    {
      "midi": 70,
      "hit": false,
      "t": 269010.7200000005,
      "d": 164.83500000002095,
      "v": 55
    },
    {
      "midi": 63,
      "hit": false,
      "t": 269175.5550000005,
      "d": 164.83500000002095,
      "v": 34
    },
    {
      "midi": 67,
      "hit": false,
      "t": 269340.39000000054,
      "d": 164.83500000002095,
      "v": 41
    },
    {
      "midi": 70,
      "hit": false,
      "t": 269340.39000000054,
      "d": 164.83500000002095,
      "v": 41
    },
    {
      "midi": 63,
      "hit": false,
      "t": 269505.22500000056,
      "d": 164.83500000002095,
      "v": 36
    },
    {
      "midi": 67,
      "hit": false,
      "t": 269670.0600000006,
      "d": 164.83500000002095,
      "v": 41
    },
    {
      "midi": 70,
      "hit": false,
      "t": 269670.0600000006,
      "d": 164.83500000002095,
      "v": 41
    },
    {
      "midi": 63,
      "hit": false,
      "t": 269834.8950000006,
      "d": 164.83500000002095,
      "v": 37
    },
    {
      "midi": 67,
      "hit": false,
      "t": 269999.7300000006,
      "d": 164.83500000002095,
      "v": 45
    },
    {
      "midi": 70,
      "hit": false,
      "t": 269999.7300000006,
      "d": 164.83500000002095,
      "v": 45
    },
    {
      "midi": 63,
      "hit": false,
      "t": 270164.56500000064,
      "d": 164.83500000002095,
      "v": 41
    },
    {
      "midi": 39,
      "hit": false,
      "t": 270329.39999999956,
      "d": 659.3400000000256,
      "v": 67
    },
    {
      "midi": 51,
      "hit": false,
      "t": 270329.39999999956,
      "d": 659.3400000000256,
      "v": 67
    },
    {
      "midi": 63,
      "hit": false,
      "t": 270329.40000000066,
      "d": 659.3400000000256,
      "v": 82
    },
    {
      "midi": 67,
      "hit": false,
      "t": 270329.40000000066,
      "d": 659.3400000000256,
      "v": 82
    },
    {
      "midi": 70,
      "hit": false,
      "t": 270329.40000000066,
      "d": 659.3400000000256,
      "v": 82
    },
    {
      "midi": 75,
      "hit": false,
      "t": 270329.40000000066,
      "d": 659.3400000000256,
      "v": 82
    },
    {
      "midi": 43,
      "hit": false,
      "t": 270988.7399999996,
      "d": 494.50500000000466,
      "v": 67
    },
    {
      "midi": 55,
      "hit": false,
      "t": 270988.7399999996,
      "d": 494.50500000000466,
      "v": 67
    },
    {
      "midi": 63,
      "hit": false,
      "t": 270988.7400000007,
      "d": 494.50500000000466,
      "v": 80
    },
    {
      "midi": 70,
      "hit": false,
      "t": 270988.7400000007,
      "d": 494.50500000000466,
      "v": 80
    },
    {
      "midi": 74,
      "hit": false,
      "t": 270988.7400000007,
      "d": 494.50500000000466,
      "v": 80
    },
    {
      "midi": 44,
      "hit": false,
      "t": 271483.2449999996,
      "d": 164.83500000002095,
      "v": 60
    },
    {
      "midi": 63,
      "hit": false,
      "t": 271483.2450000007,
      "d": 164.83500000002095,
      "v": 71
    },
    {
      "midi": 51,
      "hit": false,
      "t": 271648.0799999996,
      "d": 659.3400000000256,
      "v": 64
    },
    {
      "midi": 56,
      "hit": false,
      "t": 271648.0799999996,
      "d": 659.3400000000256,
      "v": 72
    },
    {
      "midi": 68,
      "hit": false,
      "t": 271648.0800000007,
      "d": 659.3400000000256,
      "v": 75
    },
    {
      "midi": 72,
      "hit": false,
      "t": 271648.0800000007,
      "d": 659.3400000000256,
      "v": 77
    },
    {
      "midi": 39,
      "hit": false,
      "t": 272307.41999999963,
      "d": 659.3400000000256,
      "v": 62
    },
    {
      "midi": 51,
      "hit": false,
      "t": 272307.41999999963,
      "d": 659.3400000000256,
      "v": 62
    },
    {
      "midi": 58,
      "hit": false,
      "t": 272307.42000000074,
      "d": 659.3400000000256,
      "v": 72
    },
    {
      "midi": 63,
      "hit": false,
      "t": 272307.42000000074,
      "d": 659.3400000000256,
      "v": 72
    },
    {
      "midi": 67,
      "hit": false,
      "t": 272307.42000000074,
      "d": 659.3400000000256,
      "v": 72
    },
    {
      "midi": 70,
      "hit": false,
      "t": 272307.42000000074,
      "d": 659.3400000000256,
      "v": 72
    },
    {
      "midi": 32,
      "hit": false,
      "t": 272966.75999999966,
      "d": 659.3400000000256,
      "v": 82
    },
    {
      "midi": 44,
      "hit": false,
      "t": 272966.75999999966,
      "d": 659.3400000000256,
      "v": 82
    },
    {
      "midi": 75,
      "hit": false,
      "t": 272966.76000000077,
      "d": 659.3400000000256,
      "v": 96
    },
    {
      "midi": 80,
      "hit": false,
      "t": 272966.76000000077,
      "d": 659.3400000000256,
      "v": 96
    },
    {
      "midi": 84,
      "hit": false,
      "t": 272966.76000000077,
      "d": 659.3400000000256,
      "v": 96
    },
    {
      "midi": 87,
      "hit": false,
      "t": 272966.76000000077,
      "d": 659.3400000000256,
      "v": 96
    },
    {
      "midi": 44,
      "hit": false,
      "t": 273626.0999999997,
      "d": 494.50500000000466,
      "v": 77
    },
    {
      "midi": 56,
      "hit": false,
      "t": 273626.0999999997,
      "d": 494.50500000000466,
      "v": 77
    },
    {
      "midi": 72,
      "hit": false,
      "t": 273626.1000000008,
      "d": 494.50500000000466,
      "v": 91
    },
    {
      "midi": 75,
      "hit": false,
      "t": 273626.1000000008,
      "d": 494.50500000000466,
      "v": 91
    },
    {
      "midi": 80,
      "hit": false,
      "t": 273626.1000000008,
      "d": 494.50500000000466,
      "v": 91
    },
    {
      "midi": 84,
      "hit": false,
      "t": 273626.1000000008,
      "d": 494.50500000000466,
      "v": 91
    },
    {
      "midi": 52,
      "hit": false,
      "t": 274120.6049999997,
      "d": 164.83500000002095,
      "v": 62
    },
    {
      "midi": 76,
      "hit": false,
      "t": 274120.6050000008,
      "d": 164.83500000002095,
      "v": 80
    },
    {
      "midi": 55,
      "hit": false,
      "t": 274285.4399999997,
      "d": 659.3400000000256,
      "v": 63
    },
    {
      "midi": 60,
      "hit": false,
      "t": 274285.4399999997,
      "d": 659.3400000000256,
      "v": 72
    },
    {
      "midi": 79,
      "hit": false,
      "t": 274285.4400000008,
      "d": 659.3400000000256,
      "v": 84
    },
    {
      "midi": 82,
      "hit": false,
      "t": 274285.4400000008,
      "d": 659.3400000000256,
      "v": 88
    },
    {
      "midi": 41,
      "hit": false,
      "t": 274944.77999999974,
      "d": 659.3400000000256,
      "v": 74
    },
    {
      "midi": 53,
      "hit": false,
      "t": 274944.77999999974,
      "d": 659.3400000000256,
      "v": 74
    },
    {
      "midi": 68,
      "hit": false,
      "t": 274944.78000000084,
      "d": 659.3400000000256,
      "v": 88
    },
    {
      "midi": 72,
      "hit": false,
      "t": 274944.78000000084,
      "d": 659.3400000000256,
      "v": 88
    },
    {
      "midi": 77,
      "hit": false,
      "t": 274944.78000000084,
      "d": 659.3400000000256,
      "v": 88
    },
    {
      "midi": 80,
      "hit": false,
      "t": 274944.78000000084,
      "d": 659.3400000000256,
      "v": 88
    },
    {
      "midi": 46,
      "hit": false,
      "t": 275604.11999999976,
      "d": 659.3400000000256,
      "v": 76
    },
    {
      "midi": 58,
      "hit": false,
      "t": 275604.11999999976,
      "d": 659.3400000000256,
      "v": 76
    },
    {
      "midi": 67,
      "hit": false,
      "t": 275604.12000000087,
      "d": 659.3400000000256,
      "v": 94
    },
    {
      "midi": 70,
      "hit": false,
      "t": 275604.12000000087,
      "d": 659.3400000000256,
      "v": 94
    },
    {
      "midi": 75,
      "hit": false,
      "t": 275604.12000000087,
      "d": 659.3400000000256,
      "v": 94
    },
    {
      "midi": 79,
      "hit": false,
      "t": 275604.12000000087,
      "d": 659.3400000000256,
      "v": 94
    },
    {
      "midi": 34,
      "hit": false,
      "t": 276263.4599999998,
      "d": 494.50500000000466,
      "v": 77
    },
    {
      "midi": 46,
      "hit": false,
      "t": 276263.4599999998,
      "d": 494.50500000000466,
      "v": 77
    },
    {
      "midi": 56,
      "hit": false,
      "t": 276757.9649999998,
      "d": 164.83500000002095,
      "v": 64
    },
    {
      "midi": 68,
      "hit": false,
      "t": 276757.9650000009,
      "d": 164.83500000002095,
      "v": 72
    },
    {
      "midi": 58,
      "hit": false,
      "t": 276922.7999999998,
      "d": 659.3400000000256,
      "v": 67
    },
    {
      "midi": 62,
      "hit": false,
      "t": 276922.7999999998,
      "d": 659.3400000000256,
      "v": 72
    },
    {
      "midi": 74,
      "hit": false,
      "t": 276922.8000000009,
      "d": 1318.679999999993,
      "v": 75
    },
    {
      "midi": 77,
      "hit": false,
      "t": 276922.8000000009,
      "d": 1318.679999999993,
      "v": 85
    },
    {
      "midi": 34,
      "hit": false,
      "t": 277582.13999999984,
      "d": 659.3400000000256,
      "v": 76
    },
    {
      "midi": 46,
      "hit": false,
      "t": 277582.13999999984,
      "d": 659.3400000000256,
      "v": 76
    },
    {
      "midi": 39,
      "hit": false,
      "t": 278241.47999999986,
      "d": 109.89000000001397,
      "v": 62
    },
    {
      "midi": 63,
      "hit": false,
      "t": 278241.4800000009,
      "d": 659.3400000000256,
      "v": 71
    },
    {
      "midi": 67,
      "hit": false,
      "t": 278241.4800000009,
      "d": 659.3400000000256,
      "v": 71
    },
    {
      "midi": 70,
      "hit": false,
      "t": 278241.4800000009,
      "d": 659.3400000000256,
      "v": 71
    },
    {
      "midi": 75,
      "hit": false,
      "t": 278241.4800000009,
      "d": 659.3400000000256,
      "v": 71
    },
    {
      "midi": 51,
      "hit": false,
      "t": 278351.3699999999,
      "d": 109.89000000001397,
      "v": 52
    },
    {
      "midi": 39,
      "hit": false,
      "t": 278461.2599999999,
      "d": 109.89000000001397,
      "v": 57
    },
    {
      "midi": 51,
      "hit": false,
      "t": 278571.1499999999,
      "d": 109.89000000001397,
      "v": 51
    },
    {
      "midi": 39,
      "hit": false,
      "t": 278681.0399999999,
      "d": 109.89000000001397,
      "v": 57
    },
    {
      "midi": 51,
      "hit": false,
      "t": 278790.92999999993,
      "d": 109.89000000001397,
      "v": 51
    },
    {
      "midi": 39,
      "hit": false,
      "t": 278900.81999999995,
      "d": 109.89000000001397,
      "v": 62
    },
    {
      "midi": 63,
      "hit": false,
      "t": 278900.82000000094,
      "d": 219.78000000002794,
      "v": 71
    },
    {
      "midi": 51,
      "hit": false,
      "t": 279010.70999999996,
      "d": 109.89000000001397,
      "v": 52
    },
    {
      "midi": 39,
      "hit": false,
      "t": 279120.6,
      "d": 109.89000000001397,
      "v": 57
    },
    {
      "midi": 67,
      "hit": false,
      "t": 279120.60000000097,
      "d": 219.78000000002794,
      "v": 71
    },
    {
      "midi": 51,
      "hit": false,
      "t": 279230.49,
      "d": 109.89000000001397,
      "v": 51
    },
    {
      "midi": 39,
      "hit": false,
      "t": 279340.38,
      "d": 109.89000000001397,
      "v": 57
    },
    {
      "midi": 70,
      "hit": false,
      "t": 279340.380000001,
      "d": 219.78000000002794,
      "v": 71
    },
    {
      "midi": 51,
      "hit": false,
      "t": 279450.27,
      "d": 109.89000000001397,
      "v": 51
    },
    {
      "midi": 39,
      "hit": false,
      "t": 279560.16000000003,
      "d": 109.89000000001397,
      "v": 66
    },
    {
      "midi": 63,
      "hit": false,
      "t": 279560.160000001,
      "d": 659.3400000000256,
      "v": 71
    },
    {
      "midi": 68,
      "hit": false,
      "t": 279560.160000001,
      "d": 659.3400000000256,
      "v": 71
    },
    {
      "midi": 71,
      "hit": false,
      "t": 279560.160000001,
      "d": 659.3400000000256,
      "v": 71
    },
    {
      "midi": 75,
      "hit": false,
      "t": 279560.160000001,
      "d": 659.3400000000256,
      "v": 71
    },
    {
      "midi": 51,
      "hit": false,
      "t": 279670.05000000005,
      "d": 109.89000000001397,
      "v": 52
    },
    {
      "midi": 39,
      "hit": false,
      "t": 279779.94000000006,
      "d": 109.89000000001397,
      "v": 57
    },
    {
      "midi": 51,
      "hit": false,
      "t": 279889.8300000001,
      "d": 109.89000000001397,
      "v": 51
    },
    {
      "midi": 39,
      "hit": false,
      "t": 279999.7200000001,
      "d": 109.89000000001397,
      "v": 57
    },
    {
      "midi": 51,
      "hit": false,
      "t": 280109.6100000001,
      "d": 109.89000000001397,
      "v": 51
    },
    {
      "midi": 39,
      "hit": false,
      "t": 280219.5000000001,
      "d": 109.89000000001397,
      "v": 69
    },
    {
      "midi": 68,
      "hit": false,
      "t": 280219.50000000105,
      "d": 659.3400000000256,
      "v": 71
    },
    {
      "midi": 71,
      "hit": false,
      "t": 280219.50000000105,
      "d": 659.3400000000256,
      "v": 71
    },
    {
      "midi": 75,
      "hit": false,
      "t": 280219.50000000105,
      "d": 659.3400000000256,
      "v": 71
    },
    {
      "midi": 80,
      "hit": false,
      "t": 280219.50000000105,
      "d": 659.3400000000256,
      "v": 71
    },
    {
      "midi": 51,
      "hit": false,
      "t": 280329.39000000013,
      "d": 109.89000000001397,
      "v": 52
    },
    {
      "midi": 39,
      "hit": false,
      "t": 280439.28000000014,
      "d": 109.89000000001397,
      "v": 59
    },
    {
      "midi": 51,
      "hit": false,
      "t": 280549.17000000016,
      "d": 109.89000000001397,
      "v": 51
    },
    {
      "midi": 39,
      "hit": false,
      "t": 280659.0600000002,
      "d": 109.89000000001397,
      "v": 60
    },
    {
      "midi": 51,
      "hit": false,
      "t": 280768.9500000002,
      "d": 109.89000000001397,
      "v": 51
    },
    {
      "midi": 39,
      "hit": false,
      "t": 280878.8400000002,
      "d": 109.89000000001397,
      "v": 69
    },
    {
      "midi": 67,
      "hit": false,
      "t": 280878.8400000011,
      "d": 659.3400000000256,
      "v": 71
    },
    {
      "midi": 70,
      "hit": false,
      "t": 280878.8400000011,
      "d": 659.3400000000256,
      "v": 71
    },
    {
      "midi": 75,
      "hit": false,
      "t": 280878.8400000011,
      "d": 659.3400000000256,
      "v": 71
    },
    {
      "midi": 79,
      "hit": false,
      "t": 280878.8400000011,
      "d": 659.3400000000256,
      "v": 71
    },
    {
      "midi": 51,
      "hit": false,
      "t": 280988.7300000002,
      "d": 109.89000000001397,
      "v": 52
    },
    {
      "midi": 39,
      "hit": false,
      "t": 281098.6200000002,
      "d": 109.89000000001397,
      "v": 59
    },
    {
      "midi": 51,
      "hit": false,
      "t": 281208.51000000024,
      "d": 109.89000000001397,
      "v": 51
    },
    {
      "midi": 39,
      "hit": false,
      "t": 281318.40000000026,
      "d": 109.89000000001397,
      "v": 59
    },
    {
      "midi": 51,
      "hit": false,
      "t": 281428.29000000027,
      "d": 109.89000000001397,
      "v": 51
    },
    {
      "midi": 39,
      "hit": false,
      "t": 281538.1800000003,
      "d": 109.89000000001397,
      "v": 62
    },
    {
      "midi": 75,
      "hit": false,
      "t": 281538.1800000011,
      "d": 219.78000000002794,
      "v": 74
    },
    {
      "midi": 51,
      "hit": false,
      "t": 281648.0700000003,
      "d": 109.89000000001397,
      "v": 52
    },
    {
      "midi": 39,
      "hit": false,
      "t": 281757.9600000003,
      "d": 109.89000000001397,
      "v": 58
    },
    {
      "midi": 79,
      "hit": false,
      "t": 281757.9600000011,
      "d": 219.78000000002794,
      "v": 74
    },
    {
      "midi": 51,
      "hit": false,
      "t": 281867.8500000003,
      "d": 109.89000000001397,
      "v": 51
    },
    {
      "midi": 39,
      "hit": false,
      "t": 281977.74000000034,
      "d": 109.89000000001397,
      "v": 58
    },
    {
      "midi": 82,
      "hit": false,
      "t": 281977.74000000115,
      "d": 219.78000000002794,
      "v": 75
    },
    {
      "midi": 51,
      "hit": false,
      "t": 282087.63000000035,
      "d": 109.89000000001397,
      "v": 51
    },
    {
      "midi": 39,
      "hit": false,
      "t": 282197.52000000037,
      "d": 109.89000000001397,
      "v": 68
    },
    {
      "midi": 75,
      "hit": false,
      "t": 282197.5200000012,
      "d": 659.3400000000256,
      "v": 81
    },
    {
      "midi": 80,
      "hit": false,
      "t": 282197.5200000012,
      "d": 659.3400000000256,
      "v": 81
    },
    {
      "midi": 83,
      "hit": false,
      "t": 282197.5200000012,
      "d": 659.3400000000256,
      "v": 81
    },
    {
      "midi": 87,
      "hit": false,
      "t": 282197.5200000012,
      "d": 659.3400000000256,
      "v": 81
    },
    {
      "midi": 51,
      "hit": false,
      "t": 282307.4100000004,
      "d": 109.89000000001397,
      "v": 52
    },
    {
      "midi": 39,
      "hit": false,
      "t": 282417.3000000004,
      "d": 109.89000000001397,
      "v": 60
    },
    {
      "midi": 51,
      "hit": false,
      "t": 282527.1900000004,
      "d": 109.89000000001397,
      "v": 51
    },
    {
      "midi": 39,
      "hit": false,
      "t": 282637.0800000004,
      "d": 109.89000000001397,
      "v": 59
    },
    {
      "midi": 51,
      "hit": false,
      "t": 282746.97000000044,
      "d": 109.89000000001397,
      "v": 51
    },
    {
      "midi": 39,
      "hit": false,
      "t": 282856.86000000045,
      "d": 109.89000000001397,
      "v": 67
    },
    {
      "midi": 80,
      "hit": false,
      "t": 282856.8600000012,
      "d": 659.3400000000256,
      "v": 86
    },
    {
      "midi": 83,
      "hit": false,
      "t": 282856.8600000012,
      "d": 659.3400000000256,
      "v": 86
    },
    {
      "midi": 87,
      "hit": false,
      "t": 282856.8600000012,
      "d": 659.3400000000256,
      "v": 86
    },
    {
      "midi": 92,
      "hit": false,
      "t": 282856.8600000012,
      "d": 659.3400000000256,
      "v": 86
    },
    {
      "midi": 51,
      "hit": false,
      "t": 282966.75000000047,
      "d": 109.89000000001397,
      "v": 52
    },
    {
      "midi": 39,
      "hit": false,
      "t": 283076.6400000005,
      "d": 109.89000000001397,
      "v": 59
    },
    {
      "midi": 51,
      "hit": false,
      "t": 283186.5300000005,
      "d": 109.89000000001397,
      "v": 51
    },
    {
      "midi": 39,
      "hit": false,
      "t": 283296.4200000005,
      "d": 109.89000000001397,
      "v": 58
    },
    {
      "midi": 51,
      "hit": false,
      "t": 283406.3100000005,
      "d": 109.89000000001397,
      "v": 51
    },
    {
      "midi": 27,
      "hit": false,
      "t": 283516.20000000054,
      "d": 1318.679999999993,
      "v": 58
    },
    {
      "midi": 39,
      "hit": false,
      "t": 283516.20000000054,
      "d": 1318.679999999993,
      "v": 58
    },
    {
      "midi": 79,
      "hit": false,
      "t": 283516.20000000123,
      "d": 659.3400000000256,
      "v": 85
    },
    {
      "midi": 82,
      "hit": false,
      "t": 283516.20000000123,
      "d": 659.3400000000256,
      "v": 85
    },
    {
      "midi": 87,
      "hit": false,
      "t": 283516.20000000123,
      "d": 659.3400000000256,
      "v": 85
    },
    {
      "midi": 91,
      "hit": false,
      "t": 283516.20000000123,
      "d": 659.3400000000256,
      "v": 85
    },
    {
      "midi": 63,
      "hit": false,
      "t": 284175.54000000126,
      "d": 494.50500000000466,
      "v": 75
    },
    {
      "midi": 75,
      "hit": false,
      "t": 284175.54000000126,
      "d": 494.50500000000466,
      "v": 75
    },
    {
      "midi": 63,
      "hit": false,
      "t": 284670.04500000126,
      "d": 164.83500000002095,
      "v": 70
    },
    {
      "midi": 75,
      "hit": false,
      "t": 284670.04500000126,
      "d": 164.83500000002095,
      "v": 70
    },
    {
      "midi": 63,
      "hit": false,
      "t": 284834.8800000013,
      "d": 1318.679999999993,
      "v": 76
    },
    {
      "midi": 75,
      "hit": false,
      "t": 284834.8800000013,
      "d": 1318.679999999993,
      "v": 76
    },
    {
      "midi": 27,
      "hit": false,
      "t": 285494.22000000055,
      "d": 494.50500000000466,
      "v": 44
    },
    {
      "midi": 39,
      "hit": false,
      "t": 285494.22000000055,
      "d": 494.50500000000466,
      "v": 44
    },
    {
      "midi": 29,
      "hit": false,
      "t": 285988.72500000056,
      "d": 164.83500000002095,
      "v": 40
    },
    {
      "midi": 41,
      "hit": false,
      "t": 285988.72500000056,
      "d": 164.83500000002095,
      "v": 40
    },
    {
      "midi": 31,
      "hit": false,
      "t": 286153.5600000006,
      "d": 659.3400000000256,
      "v": 46
    },
    {
      "midi": 43,
      "hit": false,
      "t": 286153.5600000006,
      "d": 659.3400000000256,
      "v": 46
    },
    {
      "midi": 31,
      "hit": false,
      "t": 286812.9000000006,
      "d": 659.3400000000256,
      "v": 40
    },
    {
      "midi": 43,
      "hit": false,
      "t": 286812.9000000006,
      "d": 659.3400000000256,
      "v": 40
    },
    {
      "midi": 31,
      "hit": false,
      "t": 287472.24000000063,
      "d": 659.3400000000256,
      "v": 43
    },
    {
      "midi": 43,
      "hit": false,
      "t": 287472.24000000063,
      "d": 659.3400000000256,
      "v": 43
    },
    {
      "midi": 51,
      "hit": false,
      "t": 287472.2400000013,
      "d": 659.3400000000256,
      "v": 44
    },
    {
      "midi": 55,
      "hit": false,
      "t": 287472.2400000013,
      "d": 659.3400000000256,
      "v": 44
    },
    {
      "midi": 60,
      "hit": false,
      "t": 287472.2400000013,
      "d": 659.3400000000256,
      "v": 44
    },
    {
      "midi": 31,
      "hit": false,
      "t": 288131.58000000066,
      "d": 659.3400000000256,
      "v": 40
    },
    {
      "midi": 43,
      "hit": false,
      "t": 288131.58000000066,
      "d": 659.3400000000256,
      "v": 40
    },
    {
      "midi": 51,
      "hit": false,
      "t": 288131.5800000013,
      "d": 659.3400000000256,
      "v": 40
    },
    {
      "midi": 54,
      "hit": false,
      "t": 288131.5800000013,
      "d": 659.3400000000256,
      "v": 40
    },
    {
      "midi": 57,
      "hit": false,
      "t": 288131.5800000013,
      "d": 659.3400000000256,
      "v": 40
    },
    {
      "midi": 60,
      "hit": false,
      "t": 288131.5800000013,
      "d": 659.3400000000256,
      "v": 40
    },
    {
      "midi": 31,
      "hit": false,
      "t": 288790.9200000007,
      "d": 1978.0200000000186,
      "v": 43
    },
    {
      "midi": 43,
      "hit": false,
      "t": 288790.9200000007,
      "d": 1978.0200000000186,
      "v": 43
    },
    {
      "midi": 50,
      "hit": false,
      "t": 288790.9200000013,
      "d": 989.0100000000093,
      "v": 45
    },
    {
      "midi": 55,
      "hit": false,
      "t": 288790.9200000013,
      "d": 989.0100000000093,
      "v": 45
    },
    {
      "midi": 59,
      "hit": false,
      "t": 288790.9200000013,
      "d": 989.0100000000093,
      "v": 45
    },
    {
      "midi": 48,
      "hit": false,
      "t": 289779.93000000133,
      "d": 329.6699999999837,
      "v": 40
    },
    {
      "midi": 57,
      "hit": false,
      "t": 289779.93000000133,
      "d": 329.6699999999837,
      "v": 40
    },
    {
      "midi": 47,
      "hit": false,
      "t": 290109.6000000013,
      "d": 659.3400000000256,
      "v": 38
    },
    {
      "midi": 55,
      "hit": false,
      "t": 290109.6000000013,
      "d": 659.3400000000256,
      "v": 38
    },
    {
      "midi": 27,
      "hit": false,
      "t": 290768.9400000007,
      "d": 494.50500000000466,
      "v": 44
    },
    {
      "midi": 39,
      "hit": false,
      "t": 290768.9400000007,
      "d": 494.50500000000466,
      "v": 44
    },
    {
      "midi": 29,
      "hit": false,
      "t": 291263.4450000007,
      "d": 164.83500000002095,
      "v": 40
    },
    {
      "midi": 41,
      "hit": false,
      "t": 291263.4450000007,
      "d": 164.83500000002095,
      "v": 40
    },
    {
      "midi": 31,
      "hit": false,
      "t": 291428.2800000007,
      "d": 659.3400000000256,
      "v": 46
    },
    {
      "midi": 43,
      "hit": false,
      "t": 291428.2800000007,
      "d": 659.3400000000256,
      "v": 46
    },
    {
      "midi": 31,
      "hit": false,
      "t": 292087.62000000075,
      "d": 659.3400000000256,
      "v": 40
    },
    {
      "midi": 43,
      "hit": false,
      "t": 292087.62000000075,
      "d": 659.3400000000256,
      "v": 40
    },
    {
      "midi": 31,
      "hit": false,
      "t": 292746.9600000008,
      "d": 659.3400000000256,
      "v": 51
    },
    {
      "midi": 43,
      "hit": false,
      "t": 292746.9600000008,
      "d": 659.3400000000256,
      "v": 51
    },
    {
      "midi": 51,
      "hit": false,
      "t": 292746.96000000136,
      "d": 659.3400000000256,
      "v": 54
    },
    {
      "midi": 55,
      "hit": false,
      "t": 292746.96000000136,
      "d": 659.3400000000256,
      "v": 54
    },
    {
      "midi": 60,
      "hit": false,
      "t": 292746.96000000136,
      "d": 659.3400000000256,
      "v": 54
    },
    {
      "midi": 63,
      "hit": false,
      "t": 292746.96000000136,
      "d": 659.3400000000256,
      "v": 54
    },
    {
      "midi": 31,
      "hit": false,
      "t": 293406.3000000008,
      "d": 659.3400000000256,
      "v": 50
    },
    {
      "midi": 43,
      "hit": false,
      "t": 293406.3000000008,
      "d": 659.3400000000256,
      "v": 50
    },
    {
      "midi": 54,
      "hit": false,
      "t": 293406.3000000014,
      "d": 659.3400000000256,
      "v": 53
    },
    {
      "midi": 57,
      "hit": false,
      "t": 293406.3000000014,
      "d": 659.3400000000256,
      "v": 53
    },
    {
      "midi": 60,
      "hit": false,
      "t": 293406.3000000014,
      "d": 659.3400000000256,
      "v": 53
    },
    {
      "midi": 63,
      "hit": false,
      "t": 293406.3000000014,
      "d": 659.3400000000256,
      "v": 53
    },
    {
      "midi": 31,
      "hit": false,
      "t": 294065.6400000008,
      "d": 219.78000000002794,
      "v": 44
    },
    {
      "midi": 55,
      "hit": false,
      "t": 294065.6400000014,
      "d": 2637.359999999986,
      "v": 56
    },
    {
      "midi": 59,
      "hit": false,
      "t": 294065.6400000014,
      "d": 2637.359999999986,
      "v": 56
    },
    {
      "midi": 62,
      "hit": false,
      "t": 294065.6400000014,
      "d": 2637.359999999986,
      "v": 56
    },
    {
      "midi": 38,
      "hit": false,
      "t": 294285.42000000086,
      "d": 219.78000000002794,
      "v": 37
    },
    {
      "midi": 43,
      "hit": false,
      "t": 294505.2000000009,
      "d": 219.78000000002794,
      "v": 37
    },
    {
      "midi": 47,
      "hit": false,
      "t": 294724.9800000009,
      "d": 219.78000000002794,
      "v": 44
    },
    {
      "midi": 50,
      "hit": false,
      "t": 294944.76000000094,
      "d": 219.78000000002794,
      "v": 37
    },
    {
      "midi": 55,
      "hit": false,
      "t": 295164.54000000097,
      "d": 219.78000000002794,
      "v": 37
    },
    {
      "midi": 43,
      "hit": false,
      "t": 295384.320000001,
      "d": 219.78000000002794,
      "v": 46
    },
    {
      "midi": 50,
      "hit": false,
      "t": 295604.100000001,
      "d": 219.78000000002794,
      "v": 37
    },
    {
      "midi": 55,
      "hit": false,
      "t": 295823.88000000105,
      "d": 219.78000000002794,
      "v": 39
    },
    {
      "midi": 59,
      "hit": false,
      "t": 296043.6600000011,
      "d": 219.78000000002794,
      "v": 43
    },
    {
      "midi": 62,
      "hit": false,
      "t": 296263.4400000011,
      "d": 219.78000000002794,
      "v": 35
    },
    {
      "midi": 67,
      "hit": false,
      "t": 296483.22000000114,
      "d": 219.78000000002794,
      "v": 35
    },
    {
      "midi": 55,
      "hit": false,
      "t": 296703.00000000116,
      "d": 219.78000000002794,
      "v": 41
    },
    {
      "midi": 62,
      "hit": false,
      "t": 296922.7800000012,
      "d": 219.78000000002794,
      "v": 33
    },
    {
      "midi": 67,
      "hit": false,
      "t": 297142.5600000012,
      "d": 219.78000000002794,
      "v": 33
    },
    {
      "midi": 71,
      "hit": false,
      "t": 297362.34000000125,
      "d": 219.78000000002794,
      "v": 39
    },
    {
      "midi": 74,
      "hit": false,
      "t": 297582.1200000013,
      "d": 219.78000000002794,
      "v": 34
    },
    {
      "midi": 79,
      "hit": false,
      "t": 297801.9000000013,
      "d": 219.78000000002794,
      "v": 33
    },
    {
      "midi": 67,
      "hit": false,
      "t": 298021.68000000133,
      "d": 219.78000000002794,
      "v": 36
    },
    {
      "midi": 74,
      "hit": false,
      "t": 298241.46000000136,
      "d": 219.78000000002794,
      "v": 30
    },
    {
      "midi": 79,
      "hit": false,
      "t": 298461.2400000014,
      "d": 219.78000000002794,
      "v": 34
    },
    {
      "midi": 83,
      "hit": false,
      "t": 298681.0200000014,
      "d": 219.78000000002794,
      "v": 38
    },
    {
      "midi": 86,
      "hit": false,
      "t": 298900.80000000144,
      "d": 219.78000000002794,
      "v": 31
    },
    {
      "midi": 91,
      "hit": false,
      "t": 299120.5800000015,
      "d": 219.78000000002794,
      "v": 31
    },
    {
      "midi": 103,
      "hit": false,
      "t": 299340.3600000015,
      "d": 1978.0200000000186,
      "v": 37
    },
    {
      "midi": 72,
      "hit": false,
      "t": 301812.8850000015,
      "d": 164.83500000002095,
      "v": 46
    },
    {
      "midi": 36,
      "hit": false,
      "t": 301977.7200000014,
      "d": 164.83500000002095,
      "v": 28
    },
    {
      "midi": 48,
      "hit": false,
      "t": 301977.7200000014,
      "d": 164.83500000002095,
      "v": 28
    },
    {
      "midi": 76,
      "hit": false,
      "t": 301977.72000000154,
      "d": 494.50500000000466,
      "v": 46
    },
    {
      "midi": 79,
      "hit": false,
      "t": 301977.72000000154,
      "d": 494.50500000000466,
      "v": 46
    },
    {
      "midi": 52,
      "hit": false,
      "t": 302142.55500000145,
      "d": 164.83500000002095,
      "v": 31
    },
    {
      "midi": 55,
      "hit": false,
      "t": 302307.39000000147,
      "d": 164.83500000002095,
      "v": 35
    },
    {
      "midi": 60,
      "hit": false,
      "t": 302472.2250000015,
      "d": 164.83500000002095,
      "v": 38
    },
    {
      "midi": 69,
      "hit": false,
      "t": 302472.22500000155,
      "d": 164.83500000002095,
      "v": 38
    },
    {
      "midi": 77,
      "hit": false,
      "t": 302472.22500000155,
      "d": 164.83500000002095,
      "v": 38
    },
    {
      "midi": 81,
      "hit": false,
      "t": 302472.22500000155,
      "d": 164.83500000002095,
      "v": 38
    },
    {
      "midi": 55,
      "hit": false,
      "t": 302637.0600000015,
      "d": 164.83500000002095,
      "v": 36
    },
    {
      "midi": 67,
      "hit": false,
      "t": 302637.06000000157,
      "d": 329.6699999999837,
      "v": 41
    },
    {
      "midi": 76,
      "hit": false,
      "t": 302637.06000000157,
      "d": 329.6699999999837,
      "v": 41
    },
    {
      "midi": 79,
      "hit": false,
      "t": 302637.06000000157,
      "d": 329.6699999999837,
      "v": 41
    },
    {
      "midi": 52,
      "hit": false,
      "t": 302801.89500000153,
      "d": 164.83500000002095,
      "v": 30
    },
    {
      "midi": 64,
      "hit": false,
      "t": 302966.73000000155,
      "d": 659.3400000000256,
      "v": 42
    },
    {
      "midi": 72,
      "hit": false,
      "t": 302966.73000000155,
      "d": 659.3400000000256,
      "v": 42
    },
    {
      "midi": 76,
      "hit": false,
      "t": 302966.73000000155,
      "d": 659.3400000000256,
      "v": 42
    },
    {
      "midi": 48,
      "hit": false,
      "t": 302966.73000000155,
      "d": 164.83500000002095,
      "v": 30
    },
    {
      "midi": 52,
      "hit": false,
      "t": 303131.5650000016,
      "d": 164.83500000002095,
      "v": 32
    },
    {
      "midi": 55,
      "hit": false,
      "t": 303296.4000000016,
      "d": 164.83500000002095,
      "v": 35
    },
    {
      "midi": 60,
      "hit": false,
      "t": 303461.2350000016,
      "d": 164.83500000002095,
      "v": 31
    },
    {
      "midi": 55,
      "hit": false,
      "t": 303626.07000000164,
      "d": 164.83500000002095,
      "v": 31
    },
    {
      "midi": 72,
      "hit": false,
      "t": 303790.9050000016,
      "d": 164.83500000002095,
      "v": 46
    },
    {
      "midi": 52,
      "hit": false,
      "t": 303790.90500000166,
      "d": 164.83500000002095,
      "v": 29
    },
    {
      "midi": 76,
      "hit": false,
      "t": 303955.7400000016,
      "d": 494.50500000000466,
      "v": 46
    },
    {
      "midi": 79,
      "hit": false,
      "t": 303955.7400000016,
      "d": 494.50500000000466,
      "v": 46
    },
    {
      "midi": 36,
      "hit": false,
      "t": 303955.7400000017,
      "d": 164.83500000002095,
      "v": 30
    },
    {
      "midi": 48,
      "hit": false,
      "t": 303955.7400000017,
      "d": 164.83500000002095,
      "v": 30
    },
    {
      "midi": 52,
      "hit": false,
      "t": 304120.5750000017,
      "d": 164.83500000002095,
      "v": 32
    },
    {
      "midi": 55,
      "hit": false,
      "t": 304285.4100000017,
      "d": 164.83500000002095,
      "v": 34
    },
    {
      "midi": 69,
      "hit": false,
      "t": 304450.2450000016,
      "d": 164.83500000002095,
      "v": 38
    },
    {
      "midi": 77,
      "hit": false,
      "t": 304450.2450000016,
      "d": 164.83500000002095,
      "v": 38
    },
    {
      "midi": 81,
      "hit": false,
      "t": 304450.2450000016,
      "d": 164.83500000002095,
      "v": 38
    },
    {
      "midi": 60,
      "hit": false,
      "t": 304450.24500000174,
      "d": 164.83500000002095,
      "v": 35
    },
    {
      "midi": 67,
      "hit": false,
      "t": 304615.08000000165,
      "d": 329.6699999999837,
      "v": 41
    },
    {
      "midi": 76,
      "hit": false,
      "t": 304615.08000000165,
      "d": 329.6699999999837,
      "v": 41
    },
    {
      "midi": 79,
      "hit": false,
      "t": 304615.08000000165,
      "d": 329.6699999999837,
      "v": 41
    },
    {
      "midi": 55,
      "hit": false,
      "t": 304615.08000000176,
      "d": 164.83500000002095,
      "v": 34
    },
    {
      "midi": 52,
      "hit": false,
      "t": 304779.9150000018,
      "d": 164.83500000002095,
      "v": 32
    },
    {
      "midi": 64,
      "hit": false,
      "t": 304944.75000000163,
      "d": 659.3400000000256,
      "v": 41
    },
    {
      "midi": 72,
      "hit": false,
      "t": 304944.75000000163,
      "d": 659.3400000000256,
      "v": 41
    },
    {
      "midi": 76,
      "hit": false,
      "t": 304944.75000000163,
      "d": 659.3400000000256,
      "v": 41
    },
    {
      "midi": 48,
      "hit": false,
      "t": 304944.7500000018,
      "d": 164.83500000002095,
      "v": 32
    },
    {
      "midi": 52,
      "hit": false,
      "t": 305109.5850000018,
      "d": 164.83500000002095,
      "v": 34
    },
    {
      "midi": 55,
      "hit": false,
      "t": 305274.42000000185,
      "d": 164.83500000002095,
      "v": 36
    },
    {
      "midi": 60,
      "hit": false,
      "t": 305439.25500000187,
      "d": 164.83500000002095,
      "v": 35
    },
    {
      "midi": 55,
      "hit": false,
      "t": 305604.0900000019,
      "d": 164.83500000002095,
      "v": 33
    },
    {
      "midi": 77,
      "hit": false,
      "t": 305768.9250000017,
      "d": 164.83500000002095,
      "v": 61
    },
    {
      "midi": 52,
      "hit": false,
      "t": 305768.9250000019,
      "d": 164.83500000002095,
      "v": 32
    },
    {
      "midi": 79,
      "hit": false,
      "t": 305933.7600000017,
      "d": 659.3400000000256,
      "v": 61
    },
    {
      "midi": 86,
      "hit": false,
      "t": 305933.7600000017,
      "d": 659.3400000000256,
      "v": 61
    },
    {
      "midi": 31,
      "hit": false,
      "t": 305933.76000000193,
      "d": 164.83500000002095,
      "v": 31
    },
    {
      "midi": 43,
      "hit": false,
      "t": 305933.76000000193,
      "d": 164.83500000002095,
      "v": 31
    },
    {
      "midi": 53,
      "hit": false,
      "t": 306098.59500000195,
      "d": 164.83500000002095,
      "v": 33
    },
    {
      "midi": 55,
      "hit": false,
      "t": 306263.430000002,
      "d": 164.83500000002095,
      "v": 34
    },
    {
      "midi": 59,
      "hit": false,
      "t": 306428.265000002,
      "d": 164.83500000002095,
      "v": 33
    },
    {
      "midi": 74,
      "hit": false,
      "t": 306593.1000000017,
      "d": 329.6699999999837,
      "v": 48
    },
    {
      "midi": 77,
      "hit": false,
      "t": 306593.1000000017,
      "d": 329.6699999999837,
      "v": 48
    },
    {
      "midi": 86,
      "hit": false,
      "t": 306593.1000000017,
      "d": 329.6699999999837,
      "v": 58
    },
    {
      "midi": 55,
      "hit": false,
      "t": 306593.100000002,
      "d": 164.83500000002095,
      "v": 32
    },
    {
      "midi": 53,
      "hit": false,
      "t": 306757.93500000203,
      "d": 164.83500000002095,
      "v": 32
    },
    {
      "midi": 71,
      "hit": false,
      "t": 306922.7700000017,
      "d": 659.3400000000256,
      "v": 48
    },
    {
      "midi": 77,
      "hit": false,
      "t": 306922.7700000017,
      "d": 659.3400000000256,
      "v": 48
    },
    {
      "midi": 83,
      "hit": false,
      "t": 306922.7700000017,
      "d": 659.3400000000256,
      "v": 48
    },
    {
      "midi": 43,
      "hit": false,
      "t": 306922.77000000206,
      "d": 164.83500000002095,
      "v": 29
    },
    {
      "midi": 53,
      "hit": false,
      "t": 307087.6050000021,
      "d": 164.83500000002095,
      "v": 31
    },
    {
      "midi": 55,
      "hit": false,
      "t": 307252.4400000021,
      "d": 164.83500000002095,
      "v": 33
    },
    {
      "midi": 59,
      "hit": false,
      "t": 307417.2750000021,
      "d": 164.83500000002095,
      "v": 33
    },
    {
      "midi": 55,
      "hit": false,
      "t": 307582.11000000214,
      "d": 164.83500000002095,
      "v": 32
    },
    {
      "midi": 76,
      "hit": false,
      "t": 307746.94500000175,
      "d": 164.83500000002095,
      "v": 54
    },
    {
      "midi": 53,
      "hit": false,
      "t": 307746.94500000216,
      "d": 164.83500000002095,
      "v": 29
    },
    {
      "midi": 79,
      "hit": false,
      "t": 307911.7800000018,
      "d": 659.3400000000256,
      "v": 54
    },
    {
      "midi": 84,
      "hit": false,
      "t": 307911.7800000018,
      "d": 659.3400000000256,
      "v": 54
    },
    {
      "midi": 36,
      "hit": false,
      "t": 307911.7800000022,
      "d": 164.83500000002095,
      "v": 32
    },
    {
      "midi": 48,
      "hit": false,
      "t": 307911.7800000022,
      "d": 164.83500000002095,
      "v": 32
    },
    {
      "midi": 52,
      "hit": false,
      "t": 308076.6150000022,
      "d": 164.83500000002095,
      "v": 33
    },
    {
      "midi": 55,
      "hit": false,
      "t": 308241.4500000022,
      "d": 164.83500000002095,
      "v": 34
    },
    {
      "midi": 60,
      "hit": false,
      "t": 308406.28500000224,
      "d": 164.83500000002095,
      "v": 35
    },
    {
      "midi": 72,
      "hit": false,
      "t": 308571.1200000018,
      "d": 329.6699999999837,
      "v": 48
    },
    {
      "midi": 76,
      "hit": false,
      "t": 308571.1200000018,
      "d": 329.6699999999837,
      "v": 48
    },
    {
      "midi": 84,
      "hit": false,
      "t": 308571.1200000018,
      "d": 329.6699999999837,
      "v": 48
    },
    {
      "midi": 55,
      "hit": false,
      "t": 308571.12000000227,
      "d": 164.83500000002095,
      "v": 36
    },
    {
      "midi": 52,
      "hit": false,
      "t": 308735.9550000023,
      "d": 164.83500000002095,
      "v": 33
    },
    {
      "midi": 67,
      "hit": false,
      "t": 308900.7900000018,
      "d": 659.3400000000256,
      "v": 44
    },
    {
      "midi": 76,
      "hit": false,
      "t": 308900.7900000018,
      "d": 659.3400000000256,
      "v": 44
    },
    {
      "midi": 79,
      "hit": false,
      "t": 308900.7900000018,
      "d": 659.3400000000256,
      "v": 44
    },
    {
      "midi": 48,
      "hit": false,
      "t": 308900.7900000023,
      "d": 164.83500000002095,
      "v": 36
    },
    {
      "midi": 52,
      "hit": false,
      "t": 309065.6250000023,
      "d": 164.83500000002095,
      "v": 31
    },
    {
      "midi": 55,
      "hit": false,
      "t": 309230.46000000235,
      "d": 164.83500000002095,
      "v": 33
    },
    {
      "midi": 60,
      "hit": false,
      "t": 309395.29500000237,
      "d": 164.83500000002095,
      "v": 31
    },
    {
      "midi": 55,
      "hit": false,
      "t": 309560.1300000024,
      "d": 164.83500000002095,
      "v": 31
    },
    {
      "midi": 72,
      "hit": false,
      "t": 309724.96500000183,
      "d": 164.83500000002095,
      "v": 54
    },
    {
      "midi": 52,
      "hit": false,
      "t": 309724.9650000024,
      "d": 164.83500000002095,
      "v": 33
    },
    {
      "midi": 77,
      "hit": false,
      "t": 309889.80000000185,
      "d": 659.3400000000256,
      "v": 54
    },
    {
      "midi": 81,
      "hit": false,
      "t": 309889.80000000185,
      "d": 659.3400000000256,
      "v": 54
    },
    {
      "midi": 41,
      "hit": false,
      "t": 309889.80000000243,
      "d": 164.83500000002095,
      "v": 32
    },
    {
      "midi": 53,
      "hit": false,
      "t": 309889.80000000243,
      "d": 164.83500000002095,
      "v": 32
    },
    {
      "midi": 57,
      "hit": false,
      "t": 310054.63500000245,
      "d": 164.83500000002095,
      "v": 33
    },
    {
      "midi": 60,
      "hit": false,
      "t": 310219.4700000025,
      "d": 164.83500000002095,
      "v": 34
    },
    {
      "midi": 65,
      "hit": false,
      "t": 310384.3050000025,
      "d": 164.83500000002095,
      "v": 35
    },
    {
      "midi": 69,
      "hit": false,
      "t": 310549.1400000019,
      "d": 329.6699999999837,
      "v": 59
    },
    {
      "midi": 77,
      "hit": false,
      "t": 310549.1400000019,
      "d": 329.6699999999837,
      "v": 59
    },
    {
      "midi": 81,
      "hit": false,
      "t": 310549.1400000019,
      "d": 329.6699999999837,
      "v": 59
    },
    {
      "midi": 60,
      "hit": false,
      "t": 310549.1400000025,
      "d": 164.83500000002095,
      "v": 39
    },
    {
      "midi": 57,
      "hit": false,
      "t": 310713.97500000254,
      "d": 164.83500000002095,
      "v": 33
    },
    {
      "midi": 72,
      "hit": false,
      "t": 310878.81000000186,
      "d": 494.50500000000466,
      "v": 62
    },
    {
      "midi": 81,
      "hit": false,
      "t": 310878.81000000186,
      "d": 494.50500000000466,
      "v": 62
    },
    {
      "midi": 84,
      "hit": false,
      "t": 310878.81000000186,
      "d": 494.50500000000466,
      "v": 62
    },
    {
      "midi": 53,
      "hit": false,
      "t": 310878.81000000256,
      "d": 164.83500000002095,
      "v": 36
    },
    {
      "midi": 57,
      "hit": false,
      "t": 311043.6450000026,
      "d": 164.83500000002095,
      "v": 31
    },
    {
      "midi": 60,
      "hit": false,
      "t": 311208.4800000026,
      "d": 164.83500000002095,
      "v": 34
    },
    {
      "midi": 71,
      "hit": false,
      "t": 311373.31500000186,
      "d": 164.83500000002095,
      "v": 55
    },
    {
      "midi": 79,
      "hit": false,
      "t": 311373.31500000186,
      "d": 164.83500000002095,
      "v": 55
    },
    {
      "midi": 83,
      "hit": false,
      "t": 311373.31500000186,
      "d": 164.83500000002095,
      "v": 55
    },
    {
      "midi": 65,
      "hit": false,
      "t": 311373.3150000026,
      "d": 164.83500000002095,
      "v": 33
    },
    {
      "midi": 69,
      "hit": false,
      "t": 311538.1500000019,
      "d": 164.83500000002095,
      "v": 62
    },
    {
      "midi": 77,
      "hit": false,
      "t": 311538.1500000019,
      "d": 164.83500000002095,
      "v": 62
    },
    {
      "midi": 81,
      "hit": false,
      "t": 311538.1500000019,
      "d": 164.83500000002095,
      "v": 62
    },
    {
      "midi": 60,
      "hit": false,
      "t": 311538.15000000264,
      "d": 164.83500000002095,
      "v": 32
    },
    {
      "midi": 72,
      "hit": false,
      "t": 311702.9850000019,
      "d": 164.83500000002095,
      "v": 61
    },
    {
      "midi": 57,
      "hit": false,
      "t": 311702.98500000266,
      "d": 164.83500000002095,
      "v": 33
    },
    {
      "midi": 76,
      "hit": false,
      "t": 311867.8200000019,
      "d": 494.50500000000466,
      "v": 61
    },
    {
      "midi": 79,
      "hit": false,
      "t": 311867.8200000019,
      "d": 494.50500000000466,
      "v": 61
    },
    {
      "midi": 36,
      "hit": false,
      "t": 311867.8200000027,
      "d": 164.83500000002095,
      "v": 32
    },
    {
      "midi": 48,
      "hit": false,
      "t": 311867.8200000027,
      "d": 164.83500000002095,
      "v": 32
    },
    {
      "midi": 52,
      "hit": false,
      "t": 312032.6550000027,
      "d": 164.83500000002095,
      "v": 33
    },
    {
      "midi": 55,
      "hit": false,
      "t": 312197.4900000027,
      "d": 164.83500000002095,
      "v": 34
    },
    {
      "midi": 69,
      "hit": false,
      "t": 312362.32500000193,
      "d": 164.83500000002095,
      "v": 49
    },
    {
      "midi": 77,
      "hit": false,
      "t": 312362.32500000193,
      "d": 164.83500000002095,
      "v": 49
    },
    {
      "midi": 81,
      "hit": false,
      "t": 312362.32500000193,
      "d": 164.83500000002095,
      "v": 49
    },
    {
      "midi": 60,
      "hit": false,
      "t": 312362.32500000275,
      "d": 164.83500000002095,
      "v": 35
    },
    {
      "midi": 67,
      "hit": false,
      "t": 312527.16000000195,
      "d": 329.6699999999837,
      "v": 52
    },
    {
      "midi": 76,
      "hit": false,
      "t": 312527.16000000195,
      "d": 329.6699999999837,
      "v": 52
    },
    {
      "midi": 79,
      "hit": false,
      "t": 312527.16000000195,
      "d": 329.6699999999837,
      "v": 52
    },
    {
      "midi": 55,
      "hit": false,
      "t": 312527.16000000277,
      "d": 164.83500000002095,
      "v": 36
    },
    {
      "midi": 52,
      "hit": false,
      "t": 312691.9950000028,
      "d": 164.83500000002095,
      "v": 33
    },
    {
      "midi": 64,
      "hit": false,
      "t": 312856.83000000194,
      "d": 659.3400000000256,
      "v": 49
    },
    {
      "midi": 72,
      "hit": false,
      "t": 312856.83000000194,
      "d": 659.3400000000256,
      "v": 49
    },
    {
      "midi": 76,
      "hit": false,
      "t": 312856.83000000194,
      "d": 659.3400000000256,
      "v": 49
    },
    {
      "midi": 48,
      "hit": false,
      "t": 312856.8300000028,
      "d": 164.83500000002095,
      "v": 36
    },
    {
      "midi": 52,
      "hit": false,
      "t": 313021.66500000283,
      "d": 164.83500000002095,
      "v": 31
    },
    {
      "midi": 55,
      "hit": false,
      "t": 313186.50000000285,
      "d": 164.83500000002095,
      "v": 32
    },
    {
      "midi": 60,
      "hit": false,
      "t": 313351.3350000029,
      "d": 164.83500000002095,
      "v": 30
    },
    {
      "midi": 55,
      "hit": false,
      "t": 313516.1700000029,
      "d": 164.83500000002095,
      "v": 30
    },
    {
      "midi": 72,
      "hit": false,
      "t": 313681.005000002,
      "d": 164.83500000002095,
      "v": 54
    },
    {
      "midi": 52,
      "hit": false,
      "t": 313681.0050000029,
      "d": 164.83500000002095,
      "v": 29
    },
    {
      "midi": 77,
      "hit": false,
      "t": 313845.840000002,
      "d": 659.3400000000256,
      "v": 54
    },
    {
      "midi": 81,
      "hit": false,
      "t": 313845.840000002,
      "d": 659.3400000000256,
      "v": 54
    },
    {
      "midi": 41,
      "hit": false,
      "t": 313845.84000000294,
      "d": 164.83500000002095,
      "v": 32
    },
    {
      "midi": 53,
      "hit": false,
      "t": 313845.84000000294,
      "d": 164.83500000002095,
      "v": 32
    },
    {
      "midi": 57,
      "hit": false,
      "t": 314010.67500000296,
      "d": 164.83500000002095,
      "v": 33
    },
    {
      "midi": 60,
      "hit": false,
      "t": 314175.510000003,
      "d": 164.83500000002095,
      "v": 34
    },
    {
      "midi": 65,
      "hit": false,
      "t": 314340.345000003,
      "d": 164.83500000002095,
      "v": 35
    },
    {
      "midi": 69,
      "hit": false,
      "t": 314505.18000000203,
      "d": 329.6699999999837,
      "v": 59
    },
    {
      "midi": 77,
      "hit": false,
      "t": 314505.18000000203,
      "d": 329.6699999999837,
      "v": 59
    },
    {
      "midi": 81,
      "hit": false,
      "t": 314505.18000000203,
      "d": 329.6699999999837,
      "v": 59
    },
    {
      "midi": 60,
      "hit": false,
      "t": 314505.180000003,
      "d": 164.83500000002095,
      "v": 39
    },
    {
      "midi": 57,
      "hit": false,
      "t": 314670.01500000304,
      "d": 164.83500000002095,
      "v": 33
    },
    {
      "midi": 72,
      "hit": false,
      "t": 314834.850000002,
      "d": 494.50500000000466,
      "v": 62
    },
    {
      "midi": 81,
      "hit": false,
      "t": 314834.850000002,
      "d": 494.50500000000466,
      "v": 62
    },
    {
      "midi": 84,
      "hit": false,
      "t": 314834.850000002,
      "d": 494.50500000000466,
      "v": 62
    },
    {
      "midi": 53,
      "hit": false,
      "t": 314834.85000000306,
      "d": 164.83500000002095,
      "v": 36
    },
    {
      "midi": 57,
      "hit": false,
      "t": 314999.6850000031,
      "d": 164.83500000002095,
      "v": 31
    },
    {
      "midi": 60,
      "hit": false,
      "t": 315164.5200000031,
      "d": 164.83500000002095,
      "v": 34
    },
    {
      "midi": 71,
      "hit": false,
      "t": 315329.355000002,
      "d": 164.83500000002095,
      "v": 55
    },
    {
      "midi": 79,
      "hit": false,
      "t": 315329.355000002,
      "d": 164.83500000002095,
      "v": 55
    },
    {
      "midi": 83,
      "hit": false,
      "t": 315329.355000002,
      "d": 164.83500000002095,
      "v": 55
    },
    {
      "midi": 65,
      "hit": false,
      "t": 315329.3550000031,
      "d": 164.83500000002095,
      "v": 33
    },
    {
      "midi": 69,
      "hit": false,
      "t": 315494.19000000204,
      "d": 164.83500000002095,
      "v": 62
    },
    {
      "midi": 77,
      "hit": false,
      "t": 315494.19000000204,
      "d": 164.83500000002095,
      "v": 62
    },
    {
      "midi": 81,
      "hit": false,
      "t": 315494.19000000204,
      "d": 164.83500000002095,
      "v": 62
    },
    {
      "midi": 60,
      "hit": false,
      "t": 315494.19000000315,
      "d": 164.83500000002095,
      "v": 32
    },
    {
      "midi": 72,
      "hit": false,
      "t": 315659.02500000206,
      "d": 164.83500000002095,
      "v": 61
    },
    {
      "midi": 57,
      "hit": false,
      "t": 315659.02500000317,
      "d": 164.83500000002095,
      "v": 33
    },
    {
      "midi": 76,
      "hit": false,
      "t": 315823.8600000021,
      "d": 494.50500000000466,
      "v": 61
    },
    {
      "midi": 79,
      "hit": false,
      "t": 315823.8600000021,
      "d": 494.50500000000466,
      "v": 61
    },
    {
      "midi": 36,
      "hit": false,
      "t": 315823.8600000032,
      "d": 164.83500000002095,
      "v": 32
    },
    {
      "midi": 48,
      "hit": false,
      "t": 315823.8600000032,
      "d": 164.83500000002095,
      "v": 32
    },
    {
      "midi": 52,
      "hit": false,
      "t": 315988.6950000032,
      "d": 164.83500000002095,
      "v": 33
    },
    {
      "midi": 55,
      "hit": false,
      "t": 316153.53000000323,
      "d": 164.83500000002095,
      "v": 34
    },
    {
      "midi": 69,
      "hit": false,
      "t": 316318.3650000021,
      "d": 164.83500000002095,
      "v": 49
    },
    {
      "midi": 77,
      "hit": false,
      "t": 316318.3650000021,
      "d": 164.83500000002095,
      "v": 49
    },
    {
      "midi": 81,
      "hit": false,
      "t": 316318.3650000021,
      "d": 164.83500000002095,
      "v": 49
    },
    {
      "midi": 60,
      "hit": false,
      "t": 316318.36500000325,
      "d": 164.83500000002095,
      "v": 35
    },
    {
      "midi": 67,
      "hit": false,
      "t": 316483.2000000021,
      "d": 329.6699999999837,
      "v": 52
    },
    {
      "midi": 76,
      "hit": false,
      "t": 316483.2000000021,
      "d": 329.6699999999837,
      "v": 52
    },
    {
      "midi": 79,
      "hit": false,
      "t": 316483.2000000021,
      "d": 329.6699999999837,
      "v": 52
    },
    {
      "midi": 55,
      "hit": false,
      "t": 316483.2000000033,
      "d": 164.83500000002095,
      "v": 36
    },
    {
      "midi": 52,
      "hit": false,
      "t": 316648.0350000033,
      "d": 164.83500000002095,
      "v": 33
    },
    {
      "midi": 64,
      "hit": false,
      "t": 316812.8700000021,
      "d": 659.3400000000256,
      "v": 49
    },
    {
      "midi": 72,
      "hit": false,
      "t": 316812.8700000021,
      "d": 659.3400000000256,
      "v": 49
    },
    {
      "midi": 76,
      "hit": false,
      "t": 316812.8700000021,
      "d": 659.3400000000256,
      "v": 49
    },
    {
      "midi": 48,
      "hit": false,
      "t": 316812.8700000033,
      "d": 164.83500000002095,
      "v": 36
    },
    {
      "midi": 52,
      "hit": false,
      "t": 316977.70500000333,
      "d": 164.83500000002095,
      "v": 31
    },
    {
      "midi": 55,
      "hit": false,
      "t": 317142.54000000336,
      "d": 164.83500000002095,
      "v": 32
    },
    {
      "midi": 60,
      "hit": false,
      "t": 317307.3750000034,
      "d": 164.83500000002095,
      "v": 30
    },
    {
      "midi": 55,
      "hit": false,
      "t": 317472.2100000034,
      "d": 164.83500000002095,
      "v": 30
    },
    {
      "midi": 77,
      "hit": false,
      "t": 317637.04500000214,
      "d": 164.83500000002095,
      "v": 62
    },
    {
      "midi": 52,
      "hit": false,
      "t": 317637.0450000034,
      "d": 164.83500000002095,
      "v": 29
    },
    {
      "midi": 79,
      "hit": false,
      "t": 317801.88000000216,
      "d": 659.3400000000256,
      "v": 62
    },
    {
      "midi": 86,
      "hit": false,
      "t": 317801.88000000216,
      "d": 659.3400000000256,
      "v": 62
    },
    {
      "midi": 31,
      "hit": false,
      "t": 317801.88000000344,
      "d": 164.83500000002095,
      "v": 31
    },
    {
      "midi": 43,
      "hit": false,
      "t": 317801.88000000344,
      "d": 164.83500000002095,
      "v": 31
    },
    {
      "midi": 53,
      "hit": false,
      "t": 317966.71500000346,
      "d": 164.83500000002095,
      "v": 33
    },
    {
      "midi": 55,
      "hit": false,
      "t": 318131.5500000035,
      "d": 164.83500000002095,
      "v": 34
    },
    {
      "midi": 59,
      "hit": false,
      "t": 318296.3850000035,
      "d": 164.83500000002095,
      "v": 33
    },
    {
      "midi": 74,
      "hit": false,
      "t": 318461.2200000022,
      "d": 164.83500000002095,
      "v": 62
    },
    {
      "midi": 77,
      "hit": false,
      "t": 318461.2200000022,
      "d": 164.83500000002095,
      "v": 62
    },
    {
      "midi": 86,
      "hit": false,
      "t": 318461.2200000022,
      "d": 164.83500000002095,
      "v": 62
    },
    {
      "midi": 55,
      "hit": false,
      "t": 318461.2200000035,
      "d": 164.83500000002095,
      "v": 32
    },
    {
      "midi": 77,
      "hit": false,
      "t": 318626.0550000022,
      "d": 164.83500000002095,
      "v": 68
    },
    {
      "midi": 53,
      "hit": false,
      "t": 318626.05500000354,
      "d": 164.83500000002095,
      "v": 32
    },
    {
      "midi": 83,
      "hit": false,
      "t": 318790.8900000022,
      "d": 494.50500000000466,
      "v": 68
    },
    {
      "midi": 89,
      "hit": false,
      "t": 318790.8900000022,
      "d": 494.50500000000466,
      "v": 68
    },
    {
      "midi": 43,
      "hit": false,
      "t": 318790.89000000356,
      "d": 164.83500000002095,
      "v": 29
    },
    {
      "midi": 53,
      "hit": false,
      "t": 318955.7250000036,
      "d": 164.83500000002095,
      "v": 31
    },
    {
      "midi": 55,
      "hit": false,
      "t": 319120.5600000036,
      "d": 164.83500000002095,
      "v": 33
    },
    {
      "midi": 74,
      "hit": false,
      "t": 319285.39500000223,
      "d": 164.83500000002095,
      "v": 63
    },
    {
      "midi": 77,
      "hit": false,
      "t": 319285.39500000223,
      "d": 164.83500000002095,
      "v": 63
    },
    {
      "midi": 86,
      "hit": false,
      "t": 319285.39500000223,
      "d": 164.83500000002095,
      "v": 63
    },
    {
      "midi": 59,
      "hit": false,
      "t": 319285.3950000036,
      "d": 164.83500000002095,
      "v": 36
    },
    {
      "midi": 71,
      "hit": false,
      "t": 319450.23000000225,
      "d": 164.83500000002095,
      "v": 63
    },
    {
      "midi": 77,
      "hit": false,
      "t": 319450.23000000225,
      "d": 164.83500000002095,
      "v": 63
    },
    {
      "midi": 83,
      "hit": false,
      "t": 319450.23000000225,
      "d": 164.83500000002095,
      "v": 63
    },
    {
      "midi": 55,
      "hit": false,
      "t": 319450.23000000365,
      "d": 164.83500000002095,
      "v": 33
    },
    {
      "midi": 76,
      "hit": false,
      "t": 319615.0650000023,
      "d": 164.83500000002095,
      "v": 59
    },
    {
      "midi": 53,
      "hit": false,
      "t": 319615.06500000367,
      "d": 164.83500000002095,
      "v": 32
    },
    {
      "midi": 79,
      "hit": false,
      "t": 319779.9000000023,
      "d": 989.0100000000093,
      "v": 59
    },
    {
      "midi": 84,
      "hit": false,
      "t": 319779.9000000023,
      "d": 989.0100000000093,
      "v": 59
    },
    {
      "midi": 36,
      "hit": false,
      "t": 319779.9000000037,
      "d": 164.83500000002095,
      "v": 32
    },
    {
      "midi": 48,
      "hit": false,
      "t": 319779.9000000037,
      "d": 164.83500000002095,
      "v": 32
    },
    {
      "midi": 52,
      "hit": false,
      "t": 319944.7350000037,
      "d": 164.83500000002095,
      "v": 33
    },
    {
      "midi": 55,
      "hit": false,
      "t": 320109.57000000373,
      "d": 164.83500000002095,
      "v": 34
    },
    {
      "midi": 60,
      "hit": false,
      "t": 320274.40500000375,
      "d": 164.83500000002095,
      "v": 35
    },
    {
      "midi": 55,
      "hit": false,
      "t": 320439.2400000038,
      "d": 164.83500000002095,
      "v": 36
    },
    {
      "midi": 52,
      "hit": false,
      "t": 320604.0750000038,
      "d": 164.83500000002095,
      "v": 33
    },
    {
      "midi": 76,
      "hit": false,
      "t": 320768.9100000023,
      "d": 659.3400000000256,
      "v": 49
    },
    {
      "midi": 79,
      "hit": false,
      "t": 320768.9100000023,
      "d": 659.3400000000256,
      "v": 49
    },
    {
      "midi": 88,
      "hit": false,
      "t": 320768.9100000023,
      "d": 659.3400000000256,
      "v": 49
    },
    {
      "midi": 48,
      "hit": false,
      "t": 320768.9100000038,
      "d": 164.83500000002095,
      "v": 30
    },
    {
      "midi": 52,
      "hit": false,
      "t": 320933.74500000384,
      "d": 164.83500000002095,
      "v": 25
    },
    {
      "midi": 55,
      "hit": false,
      "t": 321098.58000000386,
      "d": 164.83500000002095,
      "v": 29
    },
    {
      "midi": 60,
      "hit": false,
      "t": 321263.4150000039,
      "d": 164.83500000002095,
      "v": 25
    },
    {
      "midi": 64,
      "hit": false,
      "t": 321428.2500000039,
      "d": 329.6699999999837,
      "v": 24
    },
    {
      "midi": 76,
      "hit": false,
      "t": 321593.08500000235,
      "d": 164.83500000002095,
      "v": 49
    },
    {
      "midi": 79,
      "hit": false,
      "t": 321757.92000000237,
      "d": 494.50500000000466,
      "v": 49
    },
    {
      "midi": 84,
      "hit": false,
      "t": 321757.92000000237,
      "d": 494.50500000000466,
      "v": 49
    },
    {
      "midi": 31,
      "hit": false,
      "t": 321757.9200000039,
      "d": 164.83500000002095,
      "v": 35
    },
    {
      "midi": 43,
      "hit": false,
      "t": 321757.9200000039,
      "d": 164.83500000002095,
      "v": 35
    },
    {
      "midi": 52,
      "hit": false,
      "t": 321922.7550000039,
      "d": 164.83500000002095,
      "v": 32
    },
    {
      "midi": 55,
      "hit": false,
      "t": 322087.5900000039,
      "d": 164.83500000002095,
      "v": 32
    },
    {
      "midi": 67,
      "hit": false,
      "t": 322252.4250000024,
      "d": 164.83500000002095,
      "v": 46
    },
    {
      "midi": 76,
      "hit": false,
      "t": 322252.4250000024,
      "d": 164.83500000002095,
      "v": 46
    },
    {
      "midi": 79,
      "hit": false,
      "t": 322252.4250000024,
      "d": 164.83500000002095,
      "v": 46
    },
    {
      "midi": 60,
      "hit": false,
      "t": 322252.42500000395,
      "d": 164.83500000002095,
      "v": 32
    },
    {
      "midi": 64,
      "hit": false,
      "t": 322417.2600000024,
      "d": 164.83500000002095,
      "v": 46
    },
    {
      "midi": 72,
      "hit": false,
      "t": 322417.2600000024,
      "d": 164.83500000002095,
      "v": 46
    },
    {
      "midi": 76,
      "hit": false,
      "t": 322417.2600000024,
      "d": 164.83500000002095,
      "v": 46
    },
    {
      "midi": 55,
      "hit": false,
      "t": 322417.26000000397,
      "d": 164.83500000002095,
      "v": 29
    },
    {
      "midi": 71,
      "hit": false,
      "t": 322582.0950000024,
      "d": 164.83500000002095,
      "v": 50
    },
    {
      "midi": 52,
      "hit": false,
      "t": 322582.095000004,
      "d": 164.83500000002095,
      "v": 29
    },
    {
      "midi": 74,
      "hit": false,
      "t": 322746.93000000244,
      "d": 494.50500000000466,
      "v": 50
    },
    {
      "midi": 79,
      "hit": false,
      "t": 322746.93000000244,
      "d": 494.50500000000466,
      "v": 50
    },
    {
      "midi": 31,
      "hit": false,
      "t": 322746.930000004,
      "d": 164.83500000002095,
      "v": 35
    },
    {
      "midi": 43,
      "hit": false,
      "t": 322746.930000004,
      "d": 164.83500000002095,
      "v": 35
    },
    {
      "midi": 53,
      "hit": false,
      "t": 322911.76500000403,
      "d": 164.83500000002095,
      "v": 32
    },
    {
      "midi": 55,
      "hit": false,
      "t": 323076.60000000405,
      "d": 164.83500000002095,
      "v": 28
    },
    {
      "midi": 65,
      "hit": false,
      "t": 323241.43500000244,
      "d": 164.83500000002095,
      "v": 45
    },
    {
      "midi": 77,
      "hit": false,
      "t": 323241.43500000244,
      "d": 164.83500000002095,
      "v": 45
    },
    {
      "midi": 59,
      "hit": false,
      "t": 323241.4350000041,
      "d": 164.83500000002095,
      "v": 30
    },
    {
      "midi": 62,
      "hit": false,
      "t": 323406.27000000246,
      "d": 329.6699999999837,
      "v": 42
    },
    {
      "midi": 71,
      "hit": false,
      "t": 323406.27000000246,
      "d": 329.6699999999837,
      "v": 42
    },
    {
      "midi": 74,
      "hit": false,
      "t": 323406.27000000246,
      "d": 329.6699999999837,
      "v": 42
    },
    {
      "midi": 55,
      "hit": false,
      "t": 323406.2700000041,
      "d": 164.83500000002095,
      "v": 29
    },
    {
      "midi": 53,
      "hit": false,
      "t": 323571.1050000041,
      "d": 164.83500000002095,
      "v": 30
    },
    {
      "midi": 60,
      "hit": false,
      "t": 323735.94000000245,
      "d": 989.0100000000093,
      "v": 42
    },
    {
      "midi": 64,
      "hit": false,
      "t": 323735.94000000245,
      "d": 989.0100000000093,
      "v": 42
    },
    {
      "midi": 67,
      "hit": false,
      "t": 323735.94000000245,
      "d": 989.0100000000093,
      "v": 42
    },
    {
      "midi": 72,
      "hit": false,
      "t": 323735.94000000245,
      "d": 989.0100000000093,
      "v": 42
    },
    {
      "midi": 36,
      "hit": false,
      "t": 323735.94000000414,
      "d": 164.83500000002095,
      "v": 32
    },
    {
      "midi": 48,
      "hit": false,
      "t": 323735.94000000414,
      "d": 164.83500000002095,
      "v": 32
    },
    {
      "midi": 52,
      "hit": false,
      "t": 323900.77500000416,
      "d": 164.83500000002095,
      "v": 33
    },
    {
      "midi": 55,
      "hit": false,
      "t": 324065.6100000042,
      "d": 164.83500000002095,
      "v": 34
    },
    {
      "midi": 60,
      "hit": false,
      "t": 324230.4450000042,
      "d": 164.83500000002095,
      "v": 35
    },
    {
      "midi": 55,
      "hit": false,
      "t": 324395.2800000042,
      "d": 164.83500000002095,
      "v": 36
    },
    {
      "midi": 52,
      "hit": false,
      "t": 324560.11500000424,
      "d": 164.83500000002095,
      "v": 33
    },
    {
      "midi": 48,
      "hit": false,
      "t": 324724.95000000426,
      "d": 164.83500000002095,
      "v": 36
    },
    {
      "midi": 52,
      "hit": false,
      "t": 324889.7850000043,
      "d": 164.83500000002095,
      "v": 34
    },
    {
      "midi": 55,
      "hit": false,
      "t": 325054.6200000043,
      "d": 164.83500000002095,
      "v": 36
    },
    {
      "midi": 60,
      "hit": false,
      "t": 325219.4550000043,
      "d": 164.83500000002095,
      "v": 39
    },
    {
      "midi": 55,
      "hit": false,
      "t": 325384.29000000434,
      "d": 164.83500000002095,
      "v": 38
    },
    {
      "midi": 72,
      "hit": false,
      "t": 325549.12500000244,
      "d": 164.83500000002095,
      "v": 66
    },
    {
      "midi": 52,
      "hit": false,
      "t": 325549.12500000437,
      "d": 164.83500000002095,
      "v": 36
    },
    {
      "midi": 77,
      "hit": false,
      "t": 325713.96000000247,
      "d": 989.0100000000093,
      "v": 66
    },
    {
      "midi": 80,
      "hit": false,
      "t": 325713.96000000247,
      "d": 989.0100000000093,
      "v": 66
    },
    {
      "midi": 36,
      "hit": false,
      "t": 325713.9600000044,
      "d": 164.83500000002095,
      "v": 41
    },
    {
      "midi": 48,
      "hit": false,
      "t": 325713.9600000044,
      "d": 164.83500000002095,
      "v": 41
    },
    {
      "midi": 53,
      "hit": false,
      "t": 325878.7950000044,
      "d": 164.83500000002095,
      "v": 42
    },
    {
      "midi": 56,
      "hit": false,
      "t": 326043.6300000044,
      "d": 164.83500000002095,
      "v": 44
    },
    {
      "midi": 60,
      "hit": false,
      "t": 326208.46500000445,
      "d": 164.83500000002095,
      "v": 45
    },
    {
      "midi": 56,
      "hit": false,
      "t": 326373.30000000447,
      "d": 164.83500000002095,
      "v": 46
    },
    {
      "midi": 53,
      "hit": false,
      "t": 326538.1350000045,
      "d": 164.83500000002095,
      "v": 42
    },
    {
      "midi": 68,
      "hit": false,
      "t": 326702.9700000025,
      "d": 659.3400000000256,
      "v": 63
    },
    {
      "midi": 72,
      "hit": false,
      "t": 326702.9700000025,
      "d": 659.3400000000256,
      "v": 63
    },
    {
      "midi": 77,
      "hit": false,
      "t": 326702.9700000025,
      "d": 659.3400000000256,
      "v": 63
    },
    {
      "midi": 80,
      "hit": false,
      "t": 326702.9700000025,
      "d": 659.3400000000256,
      "v": 63
    },
    {
      "midi": 48,
      "hit": false,
      "t": 326702.9700000045,
      "d": 164.83500000002095,
      "v": 46
    },
    {
      "midi": 53,
      "hit": false,
      "t": 326867.80500000453,
      "d": 164.83500000002095,
      "v": 44
    },
    {
      "midi": 56,
      "hit": false,
      "t": 327032.64000000455,
      "d": 164.83500000002095,
      "v": 46
    },
    {
      "midi": 60,
      "hit": false,
      "t": 327197.4750000046,
      "d": 164.83500000002095,
      "v": 50
    },
    {
      "midi": 68,
      "hit": false,
      "t": 327362.3100000025,
      "d": 329.6699999999837,
      "v": 63
    },
    {
      "midi": 72,
      "hit": false,
      "t": 327362.3100000025,
      "d": 329.6699999999837,
      "v": 63
    },
    {
      "midi": 77,
      "hit": false,
      "t": 327362.3100000025,
      "d": 329.6699999999837,
      "v": 63
    },
    {
      "midi": 80,
      "hit": false,
      "t": 327362.3100000025,
      "d": 329.6699999999837,
      "v": 63
    },
    {
      "midi": 56,
      "hit": false,
      "t": 327362.3100000046,
      "d": 164.83500000002095,
      "v": 49
    },
    {
      "midi": 53,
      "hit": false,
      "t": 327527.1450000046,
      "d": 164.83500000002095,
      "v": 46
    },
    {
      "midi": 76,
      "hit": false,
      "t": 327691.9800000025,
      "d": 1813.1849999999977,
      "v": 64
    },
    {
      "midi": 79,
      "hit": false,
      "t": 327691.9800000025,
      "d": 1813.1849999999977,
      "v": 64
    },
    {
      "midi": 36,
      "hit": false,
      "t": 327691.98000000464,
      "d": 164.83500000002095,
      "v": 41
    },
    {
      "midi": 48,
      "hit": false,
      "t": 327691.98000000464,
      "d": 164.83500000002095,
      "v": 41
    },
    {
      "midi": 52,
      "hit": false,
      "t": 327856.81500000466,
      "d": 164.83500000002095,
      "v": 42
    },
    {
      "midi": 55,
      "hit": false,
      "t": 328021.6500000047,
      "d": 164.83500000002095,
      "v": 44
    },
    {
      "midi": 60,
      "hit": false,
      "t": 328186.4850000047,
      "d": 164.83500000002095,
      "v": 45
    },
    {
      "midi": 55,
      "hit": false,
      "t": 328351.3200000047,
      "d": 164.83500000002095,
      "v": 46
    },
    {
      "midi": 52,
      "hit": false,
      "t": 328516.15500000474,
      "d": 164.83500000002095,
      "v": 42
    },
    {
      "midi": 48,
      "hit": false,
      "t": 328680.99000000476,
      "d": 164.83500000002095,
      "v": 46
    },
    {
      "midi": 52,
      "hit": false,
      "t": 328845.8250000048,
      "d": 164.83500000002095,
      "v": 44
    },
    {
      "midi": 55,
      "hit": false,
      "t": 329010.6600000048,
      "d": 164.83500000002095,
      "v": 46
    },
    {
      "midi": 60,
      "hit": false,
      "t": 329175.4950000048,
      "d": 164.83500000002095,
      "v": 50
    },
    {
      "midi": 55,
      "hit": false,
      "t": 329340.33000000485,
      "d": 164.83500000002095,
      "v": 49
    },
    {
      "midi": 77,
      "hit": false,
      "t": 329505.1650000025,
      "d": 164.83500000002095,
      "v": 71
    },
    {
      "midi": 52,
      "hit": false,
      "t": 329505.16500000487,
      "d": 164.83500000002095,
      "v": 46
    },
    {
      "midi": 80,
      "hit": false,
      "t": 329670.0000000025,
      "d": 989.0100000000093,
      "v": 71
    },
    {
      "midi": 84,
      "hit": false,
      "t": 329670.0000000025,
      "d": 989.0100000000093,
      "v": 71
    },
    {
      "midi": 36,
      "hit": false,
      "t": 329670.0000000049,
      "d": 164.83500000002095,
      "v": 41
    },
    {
      "midi": 48,
      "hit": false,
      "t": 329670.0000000049,
      "d": 164.83500000002095,
      "v": 41
    },
    {
      "midi": 53,
      "hit": false,
      "t": 329834.8350000049,
      "d": 164.83500000002095,
      "v": 42
    },
    {
      "midi": 56,
      "hit": false,
      "t": 329999.67000000493,
      "d": 164.83500000002095,
      "v": 44
    },
    {
      "midi": 60,
      "hit": false,
      "t": 330164.50500000495,
      "d": 164.83500000002095,
      "v": 45
    },
    {
      "midi": 56,
      "hit": false,
      "t": 330329.340000005,
      "d": 164.83500000002095,
      "v": 46
    },
    {
      "midi": 53,
      "hit": false,
      "t": 330494.175000005,
      "d": 164.83500000002095,
      "v": 42
    },
    {
      "midi": 72,
      "hit": false,
      "t": 330659.0100000025,
      "d": 659.3400000000256,
      "v": 73
    },
    {
      "midi": 77,
      "hit": false,
      "t": 330659.0100000025,
      "d": 659.3400000000256,
      "v": 73
    },
    {
      "midi": 80,
      "hit": false,
      "t": 330659.0100000025,
      "d": 659.3400000000256,
      "v": 73
    },
    {
      "midi": 84,
      "hit": false,
      "t": 330659.0100000025,
      "d": 659.3400000000256,
      "v": 73
    },
    {
      "midi": 48,
      "hit": false,
      "t": 330659.010000005,
      "d": 164.83500000002095,
      "v": 46
    },
    {
      "midi": 53,
      "hit": false,
      "t": 330823.84500000504,
      "d": 164.83500000002095,
      "v": 44
    },
    {
      "midi": 56,
      "hit": false,
      "t": 330988.68000000506,
      "d": 164.83500000002095,
      "v": 46
    },
    {
      "midi": 60,
      "hit": false,
      "t": 331153.5150000051,
      "d": 164.83500000002095,
      "v": 50
    },
    {
      "midi": 72,
      "hit": false,
      "t": 331318.35000000254,
      "d": 329.6699999999837,
      "v": 78
    },
    {
      "midi": 77,
      "hit": false,
      "t": 331318.35000000254,
      "d": 329.6699999999837,
      "v": 78
    },
    {
      "midi": 80,
      "hit": false,
      "t": 331318.35000000254,
      "d": 329.6699999999837,
      "v": 78
    },
    {
      "midi": 84,
      "hit": false,
      "t": 331318.35000000254,
      "d": 329.6699999999837,
      "v": 78
    },
    {
      "midi": 56,
      "hit": false,
      "t": 331318.3500000051,
      "d": 164.83500000002095,
      "v": 49
    },
    {
      "midi": 53,
      "hit": false,
      "t": 331483.1850000051,
      "d": 164.83500000002095,
      "v": 46
    },
    {
      "midi": 72,
      "hit": false,
      "t": 331648.0200000025,
      "d": 989.0100000000093,
      "v": 88
    },
    {
      "midi": 76,
      "hit": false,
      "t": 331648.0200000025,
      "d": 989.0100000000093,
      "v": 88
    },
    {
      "midi": 79,
      "hit": false,
      "t": 331648.0200000025,
      "d": 989.0100000000093,
      "v": 88
    },
    {
      "midi": 84,
      "hit": false,
      "t": 331648.0200000025,
      "d": 989.0100000000093,
      "v": 88
    },
    {
      "midi": 36,
      "hit": false,
      "t": 331648.02000000514,
      "d": 164.83500000002095,
      "v": 49
    },
    {
      "midi": 48,
      "hit": false,
      "t": 331648.02000000514,
      "d": 164.83500000002095,
      "v": 49
    },
    {
      "midi": 52,
      "hit": false,
      "t": 331812.85500000516,
      "d": 164.83500000002095,
      "v": 50
    },
    {
      "midi": 55,
      "hit": false,
      "t": 331977.6900000052,
      "d": 164.83500000002095,
      "v": 52
    },
    {
      "midi": 60,
      "hit": false,
      "t": 332142.5250000052,
      "d": 164.83500000002095,
      "v": 54
    },
    {
      "midi": 55,
      "hit": false,
      "t": 332307.3600000052,
      "d": 164.83500000002095,
      "v": 55
    },
    {
      "midi": 52,
      "hit": false,
      "t": 332472.19500000525,
      "d": 164.83500000002095,
      "v": 50
    },
    {
      "midi": 79,
      "hit": false,
      "t": 332637.03000000253,
      "d": 989.0100000000093,
      "v": 89
    },
    {
      "midi": 84,
      "hit": false,
      "t": 332637.03000000253,
      "d": 989.0100000000093,
      "v": 89
    },
    {
      "midi": 88,
      "hit": false,
      "t": 332637.03000000253,
      "d": 989.0100000000093,
      "v": 89
    },
    {
      "midi": 91,
      "hit": false,
      "t": 332637.03000000253,
      "d": 989.0100000000093,
      "v": 89
    },
    {
      "midi": 48,
      "hit": false,
      "t": 332637.03000000527,
      "d": 164.83500000002095,
      "v": 55
    },
    {
      "midi": 52,
      "hit": false,
      "t": 332801.8650000053,
      "d": 164.83500000002095,
      "v": 52
    },
    {
      "midi": 55,
      "hit": false,
      "t": 332966.7000000053,
      "d": 164.83500000002095,
      "v": 55
    },
    {
      "midi": 60,
      "hit": false,
      "t": 333131.53500000533,
      "d": 164.83500000002095,
      "v": 60
    },
    {
      "midi": 55,
      "hit": false,
      "t": 333296.37000000535,
      "d": 164.83500000002095,
      "v": 58
    },
    {
      "midi": 52,
      "hit": false,
      "t": 333461.2050000054,
      "d": 164.83500000002095,
      "v": 55
    },
    {
      "midi": 84,
      "hit": false,
      "t": 333626.04000000254,
      "d": 1318.679999999993,
      "v": 96
    },
    {
      "midi": 88,
      "hit": false,
      "t": 333626.04000000254,
      "d": 1318.679999999993,
      "v": 96
    },
    {
      "midi": 91,
      "hit": false,
      "t": 333626.04000000254,
      "d": 1318.679999999993,
      "v": 96
    },
    {
      "midi": 96,
      "hit": false,
      "t": 333626.04000000254,
      "d": 1318.679999999993,
      "v": 96
    },
    {
      "midi": 36,
      "hit": false,
      "t": 333626.0400000054,
      "d": 1318.679999999993,
      "v": 67
    },
    {
      "midi": 48,
      "hit": false,
      "t": 333626.0400000054,
      "d": 1318.679999999993,
      "v": 67
    },
    {
      "midi": 76,
      "hit": false,
      "t": 334944.72000000253,
      "d": 1318.679999999993,
      "v": 44
    },
    {
      "midi": 81,
      "hit": false,
      "t": 334944.72000000253,
      "d": 1318.679999999993,
      "v": 44
    },
    {
      "midi": 84,
      "hit": false,
      "t": 334944.72000000253,
      "d": 1318.679999999993,
      "v": 44
    },
    {
      "midi": 69,
      "hit": false,
      "t": 334944.7200000054,
      "d": 1318.679999999993,
      "v": 39
    },
    {
      "midi": 72,
      "hit": false,
      "t": 334944.7200000054,
      "d": 1318.679999999993,
      "v": 39
    },
    {
      "midi": 76,
      "hit": false,
      "t": 336263.4000000025,
      "d": 1318.679999999993,
      "v": 36
    },
    {
      "midi": 79,
      "hit": false,
      "t": 336263.4000000025,
      "d": 1318.679999999993,
      "v": 36
    },
    {
      "midi": 83,
      "hit": false,
      "t": 336263.4000000025,
      "d": 1318.679999999993,
      "v": 36
    },
    {
      "midi": 64,
      "hit": false,
      "t": 336263.4000000054,
      "d": 1318.679999999993,
      "v": 32
    },
    {
      "midi": 71,
      "hit": false,
      "t": 336263.4000000054,
      "d": 1318.679999999993,
      "v": 32
    },
    {
      "midi": 72,
      "hit": false,
      "t": 337582.0800000025,
      "d": 1318.679999999993,
      "v": 48
    },
    {
      "midi": 77,
      "hit": false,
      "t": 337582.0800000025,
      "d": 1318.679999999993,
      "v": 48
    },
    {
      "midi": 81,
      "hit": false,
      "t": 337582.0800000025,
      "d": 1318.679999999993,
      "v": 48
    },
    {
      "midi": 65,
      "hit": false,
      "t": 337582.0800000054,
      "d": 1318.679999999993,
      "v": 42
    },
    {
      "midi": 69,
      "hit": false,
      "t": 337582.0800000054,
      "d": 1318.679999999993,
      "v": 42
    },
    {
      "midi": 72,
      "hit": false,
      "t": 338900.7600000025,
      "d": 1318.679999999993,
      "v": 62
    },
    {
      "midi": 76,
      "hit": false,
      "t": 338900.7600000025,
      "d": 1318.679999999993,
      "v": 62
    },
    {
      "midi": 79,
      "hit": false,
      "t": 338900.7600000025,
      "d": 1318.679999999993,
      "v": 62
    },
    {
      "midi": 60,
      "hit": false,
      "t": 338900.76000000536,
      "d": 1318.679999999993,
      "v": 50
    },
    {
      "midi": 67,
      "hit": false,
      "t": 338900.76000000536,
      "d": 1318.679999999993,
      "v": 50
    },
    {
      "midi": 73,
      "hit": false,
      "t": 340219.4400000025,
      "d": 1318.679999999993,
      "v": 72
    },
    {
      "midi": 76,
      "hit": false,
      "t": 340219.4400000025,
      "d": 1318.679999999993,
      "v": 72
    },
    {
      "midi": 81,
      "hit": false,
      "t": 340219.4400000025,
      "d": 1318.679999999993,
      "v": 72
    },
    {
      "midi": 57,
      "hit": false,
      "t": 340219.44000000536,
      "d": 1318.679999999993,
      "v": 61
    },
    {
      "midi": 69,
      "hit": false,
      "t": 340219.44000000536,
      "d": 1318.679999999993,
      "v": 61
    },
    {
      "midi": 74,
      "hit": false,
      "t": 341538.1200000025,
      "d": 1318.679999999993,
      "v": 80
    },
    {
      "midi": 77,
      "hit": false,
      "t": 341538.1200000025,
      "d": 1318.679999999993,
      "v": 80
    },
    {
      "midi": 62,
      "hit": false,
      "t": 341538.12000000535,
      "d": 1318.679999999993,
      "v": 66
    },
    {
      "midi": 69,
      "hit": false,
      "t": 341538.12000000535,
      "d": 1318.679999999993,
      "v": 66
    },
    {
      "midi": 71,
      "hit": false,
      "t": 342856.8000000025,
      "d": 1318.679999999993,
      "v": 88
    },
    {
      "midi": 74,
      "hit": false,
      "t": 342856.8000000025,
      "d": 1318.679999999993,
      "v": 88
    },
    {
      "midi": 67,
      "hit": false,
      "t": 342856.80000000534,
      "d": 659.3400000000256,
      "v": 72
    },
    {
      "midi": 65,
      "hit": false,
      "t": 343516.14000000537,
      "d": 659.3400000000256,
      "v": 80
    },
    {
      "midi": 64,
      "hit": false,
      "t": 344175.4800000025,
      "d": 329.6699999999837,
      "v": 79
    },
    {
      "midi": 67,
      "hit": false,
      "t": 344175.4800000025,
      "d": 329.6699999999837,
      "v": 79
    },
    {
      "midi": 72,
      "hit": false,
      "t": 344175.4800000025,
      "d": 329.6699999999837,
      "v": 79
    },
    {
      "midi": 36,
      "hit": false,
      "t": 344175.4800000054,
      "d": 164.83500000002095,
      "v": 83
    },
    {
      "midi": 43,
      "hit": false,
      "t": 344175.4800000054,
      "d": 164.83500000002095,
      "v": 58
    },
    {
      "midi": 48,
      "hit": false,
      "t": 344340.3150000054,
      "d": 164.83500000002095,
      "v": 58
    },
    {
      "midi": 52,
      "hit": false,
      "t": 344340.3150000054,
      "d": 164.83500000002095,
      "v": 65
    },
    {
      "midi": 55,
      "hit": false,
      "t": 344340.3150000054,
      "d": 164.83500000002095,
      "v": 58
    },
    {
      "midi": 67,
      "hit": false,
      "t": 344505.15000000247,
      "d": 164.83500000002095,
      "v": 59
    },
    {
      "midi": 60,
      "hit": false,
      "t": 344505.15000000544,
      "d": 329.6699999999837,
      "v": 58
    },
    {
      "midi": 72,
      "hit": false,
      "t": 344669.9850000025,
      "d": 164.83500000002095,
      "v": 59
    },
    {
      "midi": 76,
      "hit": false,
      "t": 344669.9850000025,
      "d": 164.83500000002095,
      "v": 65
    },
    {
      "midi": 67,
      "hit": false,
      "t": 344834.8200000025,
      "d": 329.6699999999837,
      "v": 59
    },
    {
      "midi": 48,
      "hit": false,
      "t": 344834.8200000054,
      "d": 164.83500000002095,
      "v": 65
    },
    {
      "midi": 55,
      "hit": false,
      "t": 344834.8200000054,
      "d": 164.83500000002095,
      "v": 58
    },
    {
      "midi": 60,
      "hit": false,
      "t": 344999.65500000544,
      "d": 164.83500000002095,
      "v": 60
    },
    {
      "midi": 64,
      "hit": false,
      "t": 344999.65500000544,
      "d": 164.83500000002095,
      "v": 69
    },
    {
      "midi": 67,
      "hit": false,
      "t": 344999.65500000544,
      "d": 164.83500000002095,
      "v": 64
    },
    {
      "midi": 76,
      "hit": false,
      "t": 345164.4900000025,
      "d": 164.83500000002095,
      "v": 73
    },
    {
      "midi": 79,
      "hit": false,
      "t": 345164.4900000025,
      "d": 164.83500000002095,
      "v": 67
    },
    {
      "midi": 72,
      "hit": false,
      "t": 345164.49000000546,
      "d": 329.6699999999837,
      "v": 65
    },
    {
      "midi": 84,
      "hit": false,
      "t": 345329.3250000025,
      "d": 164.83500000002095,
      "v": 68
    },
    {
      "midi": 88,
      "hit": false,
      "t": 345329.3250000025,
      "d": 164.83500000002095,
      "v": 79
    },
    {
      "midi": 79,
      "hit": false,
      "t": 345494.16000000254,
      "d": 329.6699999999837,
      "v": 71
    },
    {
      "midi": 60,
      "hit": false,
      "t": 345494.16000000545,
      "d": 164.83500000002095,
      "v": 74
    },
    {
      "midi": 67,
      "hit": false,
      "t": 345494.16000000545,
      "d": 164.83500000002095,
      "v": 68
    },
    {
      "midi": 72,
      "hit": false,
      "t": 345658.99500000547,
      "d": 164.83500000002095,
      "v": 69
    },
    {
      "midi": 76,
      "hit": false,
      "t": 345658.99500000547,
      "d": 164.83500000002095,
      "v": 74
    },
    {
      "midi": 79,
      "hit": false,
      "t": 345658.99500000547,
      "d": 164.83500000002095,
      "v": 69
    },
    {
      "midi": 88,
      "hit": false,
      "t": 345823.8300000025,
      "d": 164.83500000002095,
      "v": 79
    },
    {
      "midi": 91,
      "hit": false,
      "t": 345823.8300000025,
      "d": 164.83500000002095,
      "v": 73
    },
    {
      "midi": 84,
      "hit": false,
      "t": 345823.8300000055,
      "d": 329.6699999999837,
      "v": 69
    },
    {
      "midi": 96,
      "hit": false,
      "t": 345988.66500000254,
      "d": 164.83500000002095,
      "v": 73
    },
    {
      "midi": 100,
      "hit": false,
      "t": 345988.66500000254,
      "d": 164.83500000002095,
      "v": 79
    },
    {
      "midi": 91,
      "hit": false,
      "t": 346153.50000000256,
      "d": 329.6699999999837,
      "v": 73
    },
    {
      "midi": 60,
      "hit": false,
      "t": 346153.5000000055,
      "d": 164.83500000002095,
      "v": 76
    },
    {
      "midi": 67,
      "hit": false,
      "t": 346153.5000000055,
      "d": 164.83500000002095,
      "v": 72
    },
    {
      "midi": 72,
      "hit": false,
      "t": 346318.3350000055,
      "d": 164.83500000002095,
      "v": 72
    },
    {
      "midi": 76,
      "hit": false,
      "t": 346318.3350000055,
      "d": 164.83500000002095,
      "v": 81
    },
    {
      "midi": 79,
      "hit": false,
      "t": 346318.3350000055,
      "d": 164.83500000002095,
      "v": 74
    },
    {
      "midi": 88,
      "hit": false,
      "t": 346483.17000000254,
      "d": 164.83500000002095,
      "v": 80
    },
    {
      "midi": 91,
      "hit": false,
      "t": 346483.17000000254,
      "d": 164.83500000002095,
      "v": 76
    },
    {
      "midi": 84,
      "hit": false,
      "t": 346483.1700000055,
      "d": 329.6699999999837,
      "v": 74
    },
    {
      "midi": 96,
      "hit": false,
      "t": 346648.00500000257,
      "d": 164.83500000002095,
      "v": 76
    },
    {
      "midi": 100,
      "hit": false,
      "t": 346648.00500000257,
      "d": 164.83500000002095,
      "v": 84
    },
    {
      "midi": 88,
      "hit": false,
      "t": 346812.8400000026,
      "d": 1318.679999999993,
      "v": 98
    },
    {
      "midi": 91,
      "hit": false,
      "t": 346812.8400000026,
      "d": 1318.679999999993,
      "v": 79
    },
    {
      "midi": 96,
      "hit": false,
      "t": 346812.8400000026,
      "d": 1318.679999999993,
      "v": 98
    },
    {
      "midi": 72,
      "hit": false,
      "t": 346812.8400000055,
      "d": 1318.679999999993,
      "v": 85
    },
    {
      "midi": 76,
      "hit": false,
      "t": 346812.8400000055,
      "d": 1318.679999999993,
      "v": 85
    },
    {
      "midi": 79,
      "hit": false,
      "t": 346812.8400000055,
      "d": 1318.679999999993,
      "v": 85
    },
    {
      "midi": 76,
      "hit": false,
      "t": 348131.5200000026,
      "d": 1318.679999999993,
      "v": 95
    },
    {
      "midi": 79,
      "hit": false,
      "t": 348131.5200000026,
      "d": 1318.679999999993,
      "v": 95
    },
    {
      "midi": 84,
      "hit": false,
      "t": 348131.5200000026,
      "d": 1318.679999999993,
      "v": 95
    },
    {
      "midi": 60,
      "hit": false,
      "t": 348131.5200000055,
      "d": 1318.679999999993,
      "v": 78
    },
    {
      "midi": 67,
      "hit": false,
      "t": 348131.5200000055,
      "d": 1318.679999999993,
      "v": 78
    },
    {
      "midi": 72,
      "hit": false,
      "t": 348131.5200000055,
      "d": 1318.679999999993,
      "v": 78
    },
    {
      "midi": 64,
      "hit": false,
      "t": 349450.2000000026,
      "d": 1318.679999999993,
      "v": 95
    },
    {
      "midi": 67,
      "hit": false,
      "t": 349450.2000000026,
      "d": 1318.679999999993,
      "v": 95
    },
    {
      "midi": 72,
      "hit": false,
      "t": 349450.2000000026,
      "d": 1318.679999999993,
      "v": 95
    },
    {
      "midi": 48,
      "hit": false,
      "t": 349450.2000000055,
      "d": 1318.679999999993,
      "v": 78
    },
    {
      "midi": 55,
      "hit": false,
      "t": 349450.2000000055,
      "d": 1318.679999999993,
      "v": 78
    },
    {
      "midi": 60,
      "hit": false,
      "t": 349450.2000000055,
      "d": 1318.679999999993,
      "v": 78
    },
    {
      "midi": 52,
      "hit": false,
      "t": 350768.88000000257,
      "d": 1318.679999999993,
      "v": 92
    },
    {
      "midi": 55,
      "hit": false,
      "t": 350768.88000000257,
      "d": 1318.679999999993,
      "v": 92
    },
    {
      "midi": 60,
      "hit": false,
      "t": 350768.88000000257,
      "d": 1318.679999999993,
      "v": 92
    },
    {
      "midi": 36,
      "hit": false,
      "t": 350768.8800000055,
      "d": 1318.679999999993,
      "v": 78
    },
    {
      "midi": 43,
      "hit": false,
      "t": 350768.8800000055,
      "d": 1318.679999999993,
      "v": 78
    },
    {
      "midi": 48,
      "hit": false,
      "t": 350768.8800000055,
      "d": 1318.679999999993,
      "v": 78
    },
    {
      "midi": 48,
      "hit": false,
      "t": 352087.56000000256,
      "d": 2637.359999999986,
      "v": 101
    },
    {
      "midi": 24,
      "hit": false,
      "t": 352087.56000000547,
      "d": 2637.359999999986,
      "v": 84
    },
    {
      "midi": 36,
      "hit": false,
      "t": 352087.56000000547,
      "d": 2637.359999999986,
      "v": 84
    }
  ]
}