{
  "jsonPath": "Country/Contemporary Country/Alan Jackson/chattahoochee.json",
  "path": "Country\\Contemporary Country\\Alan Jackson\\Chattahoochee.mid",
  "name": "Chattahoochee",
  "difficulty": "Advanced",
  "bpm": 180.99984313346928,
  "notes": [
    {
      "midi": 48,
      "hit": false,
      "t": 3965.47305,
      "d": 415.746216666666,
      "v": 55
    },
    {
      "midi": 67,
      "hit": false,
      "t": 4314.920866666666,
      "d": 400.5528333333323,
      "v": 72
    },
    {
      "midi": 64,
      "hit": false,
      "t": 4317.6833,
      "d": 381.21579999999904,
      "v": 82
    },
    {
      "midi": 60,
      "hit": false,
      "t": 4320.445733333333,
      "d": 408.84013333333223,
      "v": 62
    },
    {
      "midi": 48,
      "hit": false,
      "t": 4636.744349999999,
      "d": 440.6081166666654,
      "v": 72
    },
    {
      "midi": 67,
      "hit": false,
      "t": 4991.7170333333315,
      "d": 411.60256666666555,
      "v": 82
    },
    {
      "midi": 64,
      "hit": false,
      "t": 4994.479466666665,
      "d": 404.69648333333225,
      "v": 89
    },
    {
      "midi": 60,
      "hit": false,
      "t": 4998.623116666665,
      "d": 428.17716666666547,
      "v": 78
    },
    {
      "midi": 48,
      "hit": false,
      "t": 5339.783633333331,
      "d": 375.6909333333324,
      "v": 78
    },
    {
      "midi": 67,
      "hit": false,
      "t": 5658.84468333333,
      "d": 385.359449999999,
      "v": 78
    },
    {
      "midi": 64,
      "hit": false,
      "t": 5661.607116666663,
      "d": 359.1163333333325,
      "v": 85
    },
    {
      "midi": 60,
      "hit": false,
      "t": 5665.750766666663,
      "d": 388.12188333333233,
      "v": 72
    },
    {
      "midi": 48,
      "hit": false,
      "t": 5966.855999999996,
      "d": 375.6909333333324,
      "v": 69
    },
    {
      "midi": 67,
      "hit": false,
      "t": 6279.010966666662,
      "d": 401.93404999999893,
      "v": 69
    },
    {
      "midi": 64,
      "hit": false,
      "t": 6283.154616666662,
      "d": 383.97823333333235,
      "v": 82
    },
    {
      "midi": 60,
      "hit": false,
      "t": 6285.9170499999955,
      "d": 414.3649999999989,
      "v": 67
    },
    {
      "midi": 48,
      "hit": false,
      "t": 6598.0720166666615,
      "d": 395.02796666666563,
      "v": 67
    },
    {
      "midi": 67,
      "hit": false,
      "t": 6950.282266666661,
      "d": 381.21579999999904,
      "v": 75
    },
    {
      "midi": 60,
      "hit": false,
      "t": 6953.044699999994,
      "d": 397.79039999999895,
      "v": 69
    },
    {
      "midi": 64,
      "hit": false,
      "t": 6955.807133333327,
      "d": 359.1163333333325,
      "v": 85
    },
    {
      "midi": 48,
      "hit": false,
      "t": 7267.962099999993,
      "d": 375.6909333333324,
      "v": 67
    },
    {
      "midi": 67,
      "hit": false,
      "t": 7600.835316666659,
      "d": 308.01131666666606,
      "v": 75
    },
    {
      "midi": 60,
      "hit": false,
      "t": 7603.597749999993,
      "d": 302.4864499999994,
      "v": 69
    },
    {
      "midi": 64,
      "hit": false,
      "t": 7606.360183333326,
      "d": 295.5803666666661,
      "v": 85
    },
    {
      "midi": 55,
      "hit": false,
      "t": 7918.515149999992,
      "d": 375.6909333333333,
      "v": 64
    },
    {
      "midi": 71,
      "hit": false,
      "t": 8247.244716666659,
      "d": 371.5472833333333,
      "v": 69
    },
    {
      "midi": 67,
      "hit": false,
      "t": 8251.388366666659,
      "d": 364.6412,
      "v": 69
    },
    {
      "midi": 62,
      "hit": false,
      "t": 8261.056883333325,
      "d": 371.5472833333333,
      "v": 48
    },
    {
      "midi": 55,
      "hit": false,
      "t": 8580.117933333326,
      "d": 314.91740000000027,
      "v": 72
    },
    {
      "midi": 48,
      "hit": false,
      "t": 8635.366599999992,
      "d": 328.72956666666687,
      "v": 67
    },
    {
      "midi": 67,
      "hit": false,
      "t": 8935.09061666666,
      "d": 341.1605166666668,
      "v": 75
    },
    {
      "midi": 64,
      "hit": false,
      "t": 8940.615483333326,
      "d": 323.20470000000023,
      "v": 85
    },
    {
      "midi": 60,
      "hit": false,
      "t": 8947.521566666659,
      "d": 335.63565000000017,
      "v": 72
    },
    {
      "midi": 48,
      "hit": false,
      "t": 9252.770449999993,
      "d": 375.6909333333333,
      "v": 69
    },
    {
      "midi": 67,
      "hit": false,
      "t": 9595.312183333326,
      "d": 378.4533666666666,
      "v": 75
    },
    {
      "midi": 64,
      "hit": false,
      "t": 9602.21826666666,
      "d": 354.9726833333334,
      "v": 85
    },
    {
      "midi": 60,
      "hit": false,
      "t": 9604.980699999993,
      "d": 375.6909333333333,
      "v": 69
    },
    {
      "midi": 48,
      "hit": false,
      "t": 9919.898099999993,
      "d": 399.1716166666665,
      "v": 72
    },
    {
      "midi": 67,
      "hit": false,
      "t": 10285.92051666666,
      "d": 381.21579999999994,
      "v": 75
    },
    {
      "midi": 64,
      "hit": false,
      "t": 10295.589033333326,
      "d": 348.0666000000001,
      "v": 85
    },
    {
      "midi": 60,
      "hit": false,
      "t": 10295.589033333326,
      "d": 381.21579999999994,
      "v": 69
    },
    {
      "midi": 48,
      "hit": false,
      "t": 10593.931833333327,
      "d": 388.12188333333324,
      "v": 75
    },
    {
      "midi": 67,
      "hit": false,
      "t": 10936.47356666666,
      "d": 364.6412,
      "v": 78
    },
    {
      "midi": 64,
      "hit": false,
      "t": 10939.235999999994,
      "d": 335.63565000000017,
      "v": 82
    },
    {
      "midi": 60,
      "hit": false,
      "t": 10939.235999999994,
      "d": 378.4533666666666,
      "v": 69
    },
    {
      "midi": 48,
      "hit": false,
      "t": 11248.628533333327,
      "d": 367.40363333333335,
      "v": 72
    },
    {
      "midi": 67,
      "hit": false,
      "t": 11577.358099999994,
      "d": 377.07214999999997,
      "v": 75
    },
    {
      "midi": 60,
      "hit": false,
      "t": 11580.120533333327,
      "d": 385.3594499999999,
      "v": 62
    },
    {
      "midi": 64,
      "hit": false,
      "t": 11582.88296666666,
      "d": 352.2102500000001,
      "v": 78
    },
    {
      "midi": 48,
      "hit": false,
      "t": 11888.131849999994,
      "d": 401.93404999999984,
      "v": 82
    },
    {
      "midi": 67,
      "hit": false,
      "t": 12250.010616666661,
      "d": 392.2655333333332,
      "v": 82
    },
    {
      "midi": 60,
      "hit": false,
      "t": 12254.154266666661,
      "d": 397.79039999999986,
      "v": 72
    },
    {
      "midi": 64,
      "hit": false,
      "t": 12256.916699999994,
      "d": 368.78485,
      "v": 85
    },
    {
      "midi": 48,
      "hit": false,
      "t": 12559.403149999995,
      "d": 368.78485,
      "v": 75
    },
    {
      "midi": 67,
      "hit": false,
      "t": 12911.613399999995,
      "d": 251.38143333333392,
      "v": 78
    },
    {
      "midi": 64,
      "hit": false,
      "t": 12914.375833333328,
      "d": 245.85656666666728,
      "v": 85
    },
    {
      "midi": 60,
      "hit": false,
      "t": 12914.375833333328,
      "d": 255.5250833333339,
      "v": 69
    },
    {
      "midi": 55,
      "hit": false,
      "t": 13259.679999999995,
      "d": 328.72956666666687,
      "v": 78
    },
    {
      "midi": 67,
      "hit": false,
      "t": 13581.503483333328,
      "d": 328.72956666666687,
      "v": 72
    },
    {
      "midi": 62,
      "hit": false,
      "t": 13591.171999999995,
      "d": 305.24888333333365,
      "v": 85
    },
    {
      "midi": 59,
      "hit": false,
      "t": 13591.171999999995,
      "d": 321.82348333333357,
      "v": 62
    },
    {
      "midi": 67,
      "hit": false,
      "t": 14287.305199999995,
      "d": 323.20470000000023,
      "v": 72
    },
    {
      "midi": 64,
      "hit": false,
      "t": 14291.448849999995,
      "d": 298.34280000000035,
      "v": 78
    },
    {
      "midi": 60,
      "hit": false,
      "t": 14294.211283333329,
      "d": 319.06105000000025,
      "v": 67
    },
    {
      "midi": 43,
      "hit": false,
      "t": 14585.647999999996,
      "d": 483.4258333333328,
      "v": 57
    },
    {
      "midi": 59,
      "hit": false,
      "t": 14877.084716666663,
      "d": 354.9726833333316,
      "v": 69
    },
    {
      "midi": 67,
      "hit": false,
      "t": 14883.990799999996,
      "d": 342.54173333333165,
      "v": 72
    },
    {
      "midi": 62,
      "hit": false,
      "t": 14893.659316666663,
      "d": 335.63564999999835,
      "v": 53
    },
    {
      "midi": 60,
      "hit": false,
      "t": 15248.631999999994,
      "d": 164.36478333333253,
      "v": 59
    },
    {
      "midi": 60,
      "hit": false,
      "t": 15414.377999999993,
      "d": 164.36478333333253,
      "v": 59
    },
    {
      "midi": 55,
      "hit": false,
      "t": 15580.123999999993,
      "d": 164.36478333333253,
      "v": 69
    },
    {
      "midi": 55,
      "hit": false,
      "t": 15745.869999999992,
      "d": 164.36478333333253,
      "v": 72
    },
    {
      "midi": 57,
      "hit": false,
      "t": 15911.61599999999,
      "d": 164.36478333333253,
      "v": 62
    },
    {
      "midi": 57,
      "hit": false,
      "t": 16077.36199999999,
      "d": 164.36478333333253,
      "v": 60
    },
    {
      "midi": 59,
      "hit": false,
      "t": 16243.10799999999,
      "d": 164.36478333333434,
      "v": 56
    },
    {
      "midi": 55,
      "hit": false,
      "t": 16408.853999999992,
      "d": 164.36478333333434,
      "v": 56
    },
    {
      "midi": 48,
      "hit": false,
      "t": 16574.599999999995,
      "d": 374.3097166666703,
      "v": 72
    },
    {
      "midi": 67,
      "hit": false,
      "t": 16901.948349999995,
      "d": 428.1771666666755,
      "v": 64
    },
    {
      "midi": 64,
      "hit": false,
      "t": 16906.091999999997,
      "d": 414.36500000000524,
      "v": 72
    },
    {
      "midi": 60,
      "hit": false,
      "t": 16906.091999999997,
      "d": 418.50865000000704,
      "v": 56
    },
    {
      "midi": 48,
      "hit": false,
      "t": 17247.252516666667,
      "d": 428.17716666667184,
      "v": 75
    },
    {
      "midi": 67,
      "hit": false,
      "t": 17599.46276666667,
      "d": 359.1163333333425,
      "v": 75
    },
    {
      "midi": 60,
      "hit": false,
      "t": 17602.225200000004,
      "d": 352.21025000000736,
      "v": 72
    },
    {
      "midi": 64,
      "hit": false,
      "t": 17606.368850000006,
      "d": 338.3980833333371,
      "v": 85
    },
    {
      "midi": 48,
      "hit": false,
      "t": 17901.949216666675,
      "d": 397.7904000000053,
      "v": 75
    },
    {
      "midi": 67,
      "hit": false,
      "t": 18230.678783333347,
      "d": 371.5472833333333,
      "v": 72
    },
    {
      "midi": 60,
      "hit": false,
      "t": 18230.678783333347,
      "d": 374.30971666666665,
      "v": 67
    },
    {
      "midi": 64,
      "hit": false,
      "t": 18233.44121666668,
      "d": 354.9726833333334,
      "v": 78
    },
    {
      "midi": 48,
      "hit": false,
      "t": 18552.50226666668,
      "d": 374.30971666666665,
      "v": 72
    },
    {
      "midi": 60,
      "hit": false,
      "t": 18867.41966666668,
      "d": 404.6964833333368,
      "v": 64
    },
    {
      "midi": 64,
      "hit": false,
      "t": 18870.182100000013,
      "d": 389.5031000000017,
      "v": 78
    },
    {
      "midi": 67,
      "hit": false,
      "t": 18870.182100000013,
      "d": 401.9340500000035,
      "v": 67
    },
    {
      "midi": 48,
      "hit": false,
      "t": 19189.243150000013,
      "d": 411.6025666666719,
      "v": 78
    },
    {
      "midi": 67,
      "hit": false,
      "t": 19551.12191666668,
      "d": 381.2158000000054,
      "v": 75
    },
    {
      "midi": 64,
      "hit": false,
      "t": 19553.884350000015,
      "d": 361.87876666667216,
      "v": 85
    },
    {
      "midi": 60,
      "hit": false,
      "t": 19558.028000000017,
      "d": 368.78485000000364,
      "v": 78
    },
    {
      "midi": 48,
      "hit": false,
      "t": 19863.27688333335,
      "d": 375.69093333333876,
      "v": 78
    },
    {
      "midi": 67,
      "hit": false,
      "t": 20185.100366666687,
      "d": 305.2488833333373,
      "v": 82
    },
    {
      "midi": 60,
      "hit": false,
      "t": 20187.86280000002,
      "d": 295.58036666666885,
      "v": 78
    },
    {
      "midi": 64,
      "hit": false,
      "t": 20192.006450000023,
      "d": 291.43671666666705,
      "v": 89
    },
    {
      "midi": 55,
      "hit": false,
      "t": 20513.82993333336,
      "d": 401.9340500000035,
      "v": 69
    },
    {
      "midi": 67,
      "hit": false,
      "t": 20868.802616666693,
      "d": 397.79040000000896,
      "v": 69
    },
    {
      "midi": 62,
      "hit": false,
      "t": 20872.946266666695,
      "d": 367.4036333333388,
      "v": 78
    },
    {
      "midi": 59,
      "hit": false,
      "t": 20875.70870000003,
      "d": 371.5472833333406,
      "v": 64
    },
    {
      "midi": 48,
      "hit": false,
      "t": 21238.968683333365,
      "d": 374.3097166666739,
      "v": 67
    },
    {
      "midi": 67,
      "hit": false,
      "t": 21551.123650000034,
      "d": 401.9340500000071,
      "v": 62
    },
    {
      "midi": 64,
      "hit": false,
      "t": 21558.02973333337,
      "d": 374.3097166666703,
      "v": 72
    },
    {
      "midi": 60,
      "hit": false,
      "t": 21567.698250000038,
      "d": 368.78485000000364,
      "v": 55
    },
    {
      "midi": 48,
      "hit": false,
      "t": 21913.002416666706,
      "d": 323.2047000000057,
      "v": 67
    },
    {
      "midi": 64,
      "hit": false,
      "t": 22189.245750000042,
      "d": 395.027966666672,
      "v": 75
    },
    {
      "midi": 67,
      "hit": false,
      "t": 22189.245750000042,
      "d": 422.6523000000052,
      "v": 64
    },
    {
      "midi": 60,
      "hit": false,
      "t": 22196.151833333377,
      "d": 404.6964833333368,
      "v": 58
    },
    {
      "midi": 48,
      "hit": false,
      "t": 22541.456000000046,
      "d": 364.6412000000055,
      "v": 82
    },
    {
      "midi": 67,
      "hit": false,
      "t": 22870.185566666714,
      "d": 385.35945000000356,
      "v": 69
    },
    {
      "midi": 64,
      "hit": false,
      "t": 22872.948000000048,
      "d": 361.8787666666685,
      "v": 78
    },
    {
      "midi": 60,
      "hit": false,
      "t": 22877.09165000005,
      "d": 368.78485,
      "v": 67
    },
    {
      "midi": 48,
      "hit": false,
      "t": 23196.15270000005,
      "d": 354.97268333333705,
      "v": 75
    },
    {
      "midi": 60,
      "hit": false,
      "t": 23513.832533333385,
      "d": 392.2655333333387,
      "v": 69
    },
    {
      "midi": 67,
      "hit": false,
      "t": 23517.976183333387,
      "d": 383.9782333333351,
      "v": 75
    },
    {
      "midi": 64,
      "hit": false,
      "t": 23520.73861666672,
      "d": 368.78485,
      "v": 82
    },
    {
      "midi": 48,
      "hit": false,
      "t": 23846.705750000052,
      "d": 348.0666000000092,
      "v": 82
    },
    {
      "midi": 67,
      "hit": false,
      "t": 24164.38558333339,
      "d": 388.1218833333405,
      "v": 67
    },
    {
      "midi": 60,
      "hit": false,
      "t": 24164.38558333339,
      "d": 401.9340500000071,
      "v": 58
    },
    {
      "midi": 64,
      "hit": false,
      "t": 24171.291666666726,
      "d": 371.54728333333696,
      "v": 75
    },
    {
      "midi": 48,
      "hit": false,
      "t": 24497.25880000006,
      "d": 348.06660000000556,
      "v": 78
    },
    {
      "midi": 67,
      "hit": false,
      "t": 24831.513233333397,
      "d": 361.8787666666685,
      "v": 75
    },
    {
      "midi": 60,
      "hit": false,
      "t": 24831.513233333397,
      "d": 385.35945000000356,
      "v": 72
    },
    {
      "midi": 64,
      "hit": false,
      "t": 24835.6568833334,
      "d": 354.9726833333334,
      "v": 82
    },
    {
      "midi": 48,
      "hit": false,
      "t": 25174.054966666732,
      "d": 352.2102500000037,
      "v": 85
    },
    {
      "midi": 60,
      "hit": false,
      "t": 25498.6408833334,
      "d": 328.7295666666723,
      "v": 75
    },
    {
      "midi": 67,
      "hit": false,
      "t": 25502.7845333334,
      "d": 321.8234833333372,
      "v": 78
    },
    {
      "midi": 64,
      "hit": false,
      "t": 25505.546966666734,
      "d": 314.9174000000021,
      "v": 85
    },
    {
      "midi": 55,
      "hit": false,
      "t": 25900.574933333406,
      "d": 291.43671666666705,
      "v": 72
    },
    {
      "midi": 62,
      "hit": false,
      "t": 26163.00610000007,
      "d": 397.7904000000017,
      "v": 69
    },
    {
      "midi": 67,
      "hit": false,
      "t": 26165.768533333405,
      "d": 401.9340500000035,
      "v": 58
    },
    {
      "midi": 59,
      "hit": false,
      "t": 26172.67461666674,
      "d": 397.7904000000017,
      "v": 53
    },
    {
      "midi": 48,
      "hit": false,
      "t": 26564.940150000075,
      "d": 88.39786666666623,
      "v": 55
    },
    {
      "midi": 48,
      "hit": false,
      "t": 26730.686150000074,
      "d": 128.4531500000012,
      "v": 75
    },
    {
      "midi": 50,
      "hit": false,
      "t": 26866.04538333341,
      "d": 165.74599999999919,
      "v": 62
    },
    {
      "midi": 52,
      "hit": false,
      "t": 27012.454350000076,
      "d": 191.98911666666754,
      "v": 64
    },
    {
      "midi": 53,
      "hit": false,
      "t": 27171.294266666744,
      "d": 361.8787666666685,
      "v": 62
    },
    {
      "midi": 69,
      "hit": false,
      "t": 27497.261400000076,
      "d": 418.50865000000704,
      "v": 62
    },
    {
      "midi": 65,
      "hit": false,
      "t": 27500.02383333341,
      "d": 385.3594500000072,
      "v": 67
    },
    {
      "midi": 60,
      "hit": false,
      "t": 27509.692350000078,
      "d": 389.50310000000536,
      "v": 53
    },
    {
      "midi": 53,
      "hit": false,
      "t": 27838.421916666746,
      "d": 30.386766666670155,
      "v": 72
    },
    {
      "midi": 65,
      "hit": false,
      "t": 28178.20121666675,
      "d": 390.8843166666702,
      "v": 72
    },
    {
      "midi": 69,
      "hit": false,
      "t": 28178.20121666675,
      "d": 407.4589166666701,
      "v": 62
    },
    {
      "midi": 60,
      "hit": false,
      "t": 28180.96365000008,
      "d": 401.9340500000035,
      "v": 67
    },
    {
      "midi": 53,
      "hit": false,
      "t": 28509.69321666675,
      "d": 354.97268333333705,
      "v": 75
    },
    {
      "midi": 65,
      "hit": false,
      "t": 28841.185216666752,
      "d": 361.8787666666685,
      "v": 82
    },
    {
      "midi": 69,
      "hit": false,
      "t": 28841.185216666752,
      "d": 385.35945000000356,
      "v": 75
    },
    {
      "midi": 60,
      "hit": false,
      "t": 28845.328866666754,
      "d": 377.07214999999997,
      "v": 78
    },
    {
      "midi": 53,
      "hit": false,
      "t": 29172.677216666754,
      "d": 349.44781666666677,
      "v": 75
    },
    {
      "midi": 60,
      "hit": false,
      "t": 29505.55043333342,
      "d": 288.67428333333373,
      "v": 72
    },
    {
      "midi": 65,
      "hit": false,
      "t": 29505.55043333342,
      "d": 288.67428333333373,
      "v": 82
    },
    {
      "midi": 69,
      "hit": false,
      "t": 29505.55043333342,
      "d": 301.1052333333355,
      "v": 72
    },
    {
      "midi": 48,
      "hit": false,
      "t": 29834.28000000009,
      "d": 364.64120000000185,
      "v": 78
    },
    {
      "midi": 64,
      "hit": false,
      "t": 30165.772000000088,
      "d": 361.8787666666685,
      "v": 75
    },
    {
      "midi": 67,
      "hit": false,
      "t": 30165.772000000088,
      "d": 368.78485000000364,
      "v": 62
    },
    {
      "midi": 60,
      "hit": false,
      "t": 30175.440516666757,
      "d": 361.8787666666685,
      "v": 62
    },
    {
      "midi": 48,
      "hit": false,
      "t": 30494.501566666757,
      "d": 345.3041666666686,
      "v": 75
    },
    {
      "midi": 60,
      "hit": false,
      "t": 30825.99356666676,
      "d": 248.61899999999878,
      "v": 69
    },
    {
      "midi": 67,
      "hit": false,
      "t": 30825.99356666676,
      "d": 262.4311666666654,
      "v": 75
    },
    {
      "midi": 64,
      "hit": false,
      "t": 30828.756000000092,
      "d": 245.85656666666546,
      "v": 85
    },
    {
      "midi": 55,
      "hit": false,
      "t": 31180.966250000092,
      "d": 331.492000000002,
      "v": 69
    },
    {
      "midi": 67,
      "hit": false,
      "t": 31469.640533333426,
      "d": 335.6356500000038,
      "v": 64
    },
    {
      "midi": 62,
      "hit": false,
      "t": 31476.54661666676,
      "d": 321.82348333333357,
      "v": 67
    },
    {
      "midi": 59,
      "hit": false,
      "t": 31476.54661666676,
      "d": 328.7295666666687,
      "v": 58
    },
    {
      "midi": 48,
      "hit": false,
      "t": 31835.6629500001,
      "d": 334.2544333333353,
      "v": 75
    },
    {
      "midi": 64,
      "hit": false,
      "t": 32157.486433333434,
      "d": 341.16051666667045,
      "v": 78
    },
    {
      "midi": 67,
      "hit": false,
      "t": 32157.486433333434,
      "d": 354.9726833333407,
      "v": 75
    },
    {
      "midi": 60,
      "hit": false,
      "t": 32160.248866666767,
      "d": 342.5417333333389,
      "v": 72
    },
    {
      "midi": 53,
      "hit": false,
      "t": 32529.033716666774,
      "d": 345.3041666666686,
      "v": 69
    },
    {
      "midi": 65,
      "hit": false,
      "t": 32813.56435000011,
      "d": 392.2655333333314,
      "v": 75
    },
    {
      "midi": 69,
      "hit": false,
      "t": 32817.70800000011,
      "d": 401.9340500000035,
      "v": 67
    },
    {
      "midi": 60,
      "hit": false,
      "t": 32827.37651666677,
      "d": 408.8401333333386,
      "v": 58
    },
    {
      "midi": 53,
      "hit": false,
      "t": 33158.86851666677,
      "d": 356.35390000001644,
      "v": 75
    },
    {
      "midi": 65,
      "hit": false,
      "t": 33482.07321666678,
      "d": 381.2158000000127,
      "v": 78
    },
    {
      "midi": 60,
      "hit": false,
      "t": 33482.07321666678,
      "d": 407.4589166666847,
      "v": 69
    },
    {
      "midi": 69,
      "hit": false,
      "t": 33484.83565000012,
      "d": 381.2158000000127,
      "v": 67
    },
    {
      "midi": 53,
      "hit": false,
      "t": 33787.32210000012,
      "d": 390.88431666668475,
      "v": 75
    },
    {
      "midi": 69,
      "hit": false,
      "t": 34135.388700000134,
      "d": 385.35945000001084,
      "v": 72
    },
    {
      "midi": 60,
      "hit": false,
      "t": 34138.15113333347,
      "d": 395.02796666667564,
      "v": 64
    },
    {
      "midi": 65,
      "hit": false,
      "t": 34142.29478333347,
      "d": 361.8787666666758,
      "v": 78
    },
    {
      "midi": 53,
      "hit": false,
      "t": 34466.88070000014,
      "d": 371.5472833333479,
      "v": 75
    },
    {
      "midi": 60,
      "hit": false,
      "t": 34779.035666666816,
      "d": 314.9174000000057,
      "v": 64
    },
    {
      "midi": 64,
      "hit": false,
      "t": 34783.179316666814,
      "d": 314.9174000000057,
      "v": 72
    },
    {
      "midi": 67,
      "hit": false,
      "t": 34785.94175000015,
      "d": 302.48645000000397,
      "v": 82
    },
    {
      "midi": 50,
      "hit": false,
      "t": 35154.726600000155,
      "d": 390.8843166666629,
      "v": 89
    },
    {
      "midi": 62,
      "hit": false,
      "t": 35465.500350000155,
      "d": 399.1716166666665,
      "v": 89
    },
    {
      "midi": 65,
      "hit": false,
      "t": 35469.64400000015,
      "d": 401.9340500000035,
      "v": 68
    },
    {
      "midi": 57,
      "hit": false,
      "t": 35801.13600000015,
      "d": 75.96691666667175,
      "v": 78
    },
    {
      "midi": 65,
      "hit": false,
      "t": 36136.771650000155,
      "d": 281.7682000000059,
      "v": 61
    },
    {
      "midi": 57,
      "hit": false,
      "t": 36146.44016666682,
      "d": 262.431166666669,
      "v": 69
    },
    {
      "midi": 62,
      "hit": false,
      "t": 36146.44016666682,
      "d": 265.193600000006,
      "v": 78
    },
    {
      "midi": 55,
      "hit": false,
      "t": 36459.976350000165,
      "d": 354.97268333332613,
      "v": 82
    },
    {
      "midi": 67,
      "hit": false,
      "t": 36772.131316666826,
      "d": 401.9340500000035,
      "v": 62
    },
    {
      "midi": 62,
      "hit": false,
      "t": 36781.79983333349,
      "d": 378.45336666666844,
      "v": 69
    },
    {
      "midi": 59,
      "hit": false,
      "t": 36781.79983333349,
      "d": 399.1716166666738,
      "v": 55
    },
    {
      "midi": 55,
      "hit": false,
      "t": 37103.623316666824,
      "d": 375.69093333334604,
      "v": 64
    },
    {
      "midi": 67,
      "hit": false,
      "t": 37422.68436666683,
      "d": 381.2158000000127,
      "v": 58
    },
    {
      "midi": 62,
      "hit": false,
      "t": 37429.59045000016,
      "d": 361.8787666666758,
      "v": 72
    },
    {
      "midi": 59,
      "hit": false,
      "t": 37432.3528833335,
      "d": 371.5472833333406,
      "v": 58
    },
    {
      "midi": 55,
      "hit": false,
      "t": 37777.65705000017,
      "d": 328.72956666667596,
      "v": 75
    },
    {
      "midi": 67,
      "hit": false,
      "t": 38082.90593333351,
      "d": 401.9340500000035,
      "v": 60
    },
    {
      "midi": 62,
      "hit": false,
      "t": 38093.95566666684,
      "d": 371.5472833333333,
      "v": 78
    },
    {
      "midi": 59,
      "hit": false,
      "t": 38096.71810000018,
      "d": 371.5472833333333,
      "v": 67
    },
    {
      "midi": 55,
      "hit": false,
      "t": 38421.30401666684,
      "d": 378.453366666683,
      "v": 72
    },
    {
      "midi": 67,
      "hit": false,
      "t": 38763.84575000018,
      "d": 338.39808333334076,
      "v": 67
    },
    {
      "midi": 59,
      "hit": false,
      "t": 38777.65791666685,
      "d": 317.6798333333354,
      "v": 72
    },
    {
      "midi": 62,
      "hit": false,
      "t": 38780.42035000019,
      "d": 305.24888333333365,
      "v": 85
    },
    {
      "midi": 48,
      "hit": false,
      "t": 39116.05600000019,
      "d": 400.552833333335,
      "v": 85
    },
    {
      "midi": 64,
      "hit": false,
      "t": 39464.12260000019,
      "d": 381.2158000000054,
      "v": 75
    },
    {
      "midi": 67,
      "hit": false,
      "t": 39464.12260000019,
      "d": 390.8843166666702,
      "v": 64
    },
    {
      "midi": 60,
      "hit": false,
      "t": 39471.02868333353,
      "d": 390.8843166666702,
      "v": 64
    },
    {
      "midi": 48,
      "hit": false,
      "t": 39772.13391666686,
      "d": 399.1716166666665,
      "v": 78
    },
    {
      "midi": 64,
      "hit": false,
      "t": 40117.43808333353,
      "d": 371.5472833333333,
      "v": 69
    },
    {
      "midi": 67,
      "hit": false,
      "t": 40121.58173333353,
      "d": 374.3097166666703,
      "v": 64
    },
    {
      "midi": 60,
      "hit": false,
      "t": 40121.58173333353,
      "d": 381.2158000000054,
      "v": 60
    },
    {
      "midi": 48,
      "hit": false,
      "t": 40426.83061666686,
      "d": 397.7904000000126,
      "v": 78
    },
    {
      "midi": 64,
      "hit": false,
      "t": 40774.89721666687,
      "d": 378.4533666666757,
      "v": 69
    },
    {
      "midi": 60,
      "hit": false,
      "t": 40774.89721666687,
      "d": 392.26553333334596,
      "v": 58
    },
    {
      "midi": 67,
      "hit": false,
      "t": 40777.659650000205,
      "d": 382.5970166666739,
      "v": 67
    },
    {
      "midi": 48,
      "hit": false,
      "t": 41096.72070000021,
      "d": 371.5472833333406,
      "v": 75
    },
    {
      "midi": 60,
      "hit": false,
      "t": 41428.212700000215,
      "d": 382.5970166666666,
      "v": 58
    },
    {
      "midi": 64,
      "hit": false,
      "t": 41432.35635000021,
      "d": 364.6412000000055,
      "v": 69
    },
    {
      "midi": 67,
      "hit": false,
      "t": 41435.11878333355,
      "d": 366.0224166666667,
      "v": 60
    },
    {
      "midi": 48,
      "hit": false,
      "t": 41744.51131666688,
      "d": 374.3097166666703,
      "v": 78
    },
    {
      "midi": 64,
      "hit": false,
      "t": 42076.00331666688,
      "d": 368.7848500000109,
      "v": 69
    },
    {
      "midi": 60,
      "hit": false,
      "t": 42076.00331666688,
      "d": 381.2158000000127,
      "v": 58
    },
    {
      "midi": 67,
      "hit": false,
      "t": 42078.76575000022,
      "d": 366.02241666667396,
      "v": 58
    },
    {
      "midi": 48,
      "hit": false,
      "t": 42411.638966666884,
      "d": 374.30971666667756,
      "v": 78
    },
    {
      "midi": 60,
      "hit": false,
      "t": 42743.13096666689,
      "d": 279.00576666666893,
      "v": 64
    },
    {
      "midi": 64,
      "hit": false,
      "t": 42745.89340000023,
      "d": 279.00576666666893,
      "v": 75
    },
    {
      "midi": 67,
      "hit": false,
      "t": 42750.037050000225,
      "d": 272.0996833333338,
      "v": 67
    },
    {
      "midi": 55,
      "hit": false,
      "t": 43095.3412166669,
      "d": 378.45336666666844,
      "v": 89
    },
    {
      "midi": 67,
      "hit": false,
      "t": 43400.590100000234,
      "d": 371.5472833333406,
      "v": 62
    },
    {
      "midi": 62,
      "hit": false,
      "t": 43410.2586166669,
      "d": 354.9726833333407,
      "v": 78
    },
    {
      "midi": 59,
      "hit": false,
      "t": 43417.164700000234,
      "d": 364.6412000000055,
      "v": 60
    },
    {
      "midi": 67,
      "hit": false,
      "t": 44074.62383333357,
      "d": 357.73511666667036,
      "v": 55
    },
    {
      "midi": 64,
      "hit": false,
      "t": 44077.38626666691,
      "d": 354.9726833333334,
      "v": 62
    },
    {
      "midi": 60,
      "hit": false,
      "t": 44081.52991666691,
      "d": 357.73511666667036,
      "v": 56
    },
    {
      "midi": 48,
      "hit": false,
      "t": 44389.54123333357,
      "d": 368.78485000000364,
      "v": 69
    },
    {
      "midi": 67,
      "hit": false,
      "t": 44744.51391666691,
      "d": 366.0224166666667,
      "v": 58
    },
    {
      "midi": 64,
      "hit": false,
      "t": 44744.51391666691,
      "d": 368.78485000000364,
      "v": 67
    },
    {
      "midi": 60,
      "hit": false,
      "t": 44748.65756666691,
      "d": 371.5472833333406,
      "v": 60
    },
    {
      "midi": 48,
      "hit": false,
      "t": 45070.48105000024,
      "d": 341.1605166666777,
      "v": 72
    },
    {
      "midi": 64,
      "hit": false,
      "t": 45388.160883333585,
      "d": 372.92849999999453,
      "v": 62
    },
    {
      "midi": 67,
      "hit": false,
      "t": 45392.30453333358,
      "d": 364.6411999999982,
      "v": 55
    },
    {
      "midi": 60,
      "hit": false,
      "t": 45395.06696666692,
      "d": 371.54728333332605,
      "v": 55
    },
    {
      "midi": 48,
      "hit": false,
      "t": 45730.70261666692,
      "d": 371.5472833333333,
      "v": 75
    },
    {
      "midi": 64,
      "hit": false,
      "t": 46059.43218333358,
      "d": 378.4533666666757,
      "v": 67
    },
    {
      "midi": 67,
      "hit": false,
      "t": 46062.194616666915,
      "d": 368.78485000000364,
      "v": 58
    },
    {
      "midi": 60,
      "hit": false,
      "t": 46066.33826666691,
      "d": 371.5472833333406,
      "v": 55
    },
    {
      "midi": 48,
      "hit": false,
      "t": 46395.06783333358,
      "d": 367.40363333334244,
      "v": 78
    },
    {
      "midi": 64,
      "hit": false,
      "t": 46726.55983333359,
      "d": 371.5472833333406,
      "v": 67
    },
    {
      "midi": 67,
      "hit": false,
      "t": 46729.322266666924,
      "d": 366.0224166666667,
      "v": 58
    },
    {
      "midi": 60,
      "hit": false,
      "t": 46733.46591666692,
      "d": 364.6412000000055,
      "v": 60
    },
    {
      "midi": 48,
      "hit": false,
      "t": 47051.14575000026,
      "d": 368.7848500000109,
      "v": 78
    },
    {
      "midi": 64,
      "hit": false,
      "t": 47400.593566666925,
      "d": 371.5472833333479,
      "v": 67
    },
    {
      "midi": 67,
      "hit": false,
      "t": 47403.35600000026,
      "d": 354.9726833333407,
      "v": 60
    },
    {
      "midi": 60,
      "hit": false,
      "t": 47406.1184333336,
      "d": 375.69093333333876,
      "v": 58
    },
    {
      "midi": 48,
      "hit": false,
      "t": 47722.417050000266,
      "d": 374.30971666667756,
      "v": 78
    },
    {
      "midi": 64,
      "hit": false,
      "t": 48051.146616666934,
      "d": 255.52508333334117,
      "v": 69
    },
    {
      "midi": 60,
      "hit": false,
      "t": 48053.90905000027,
      "d": 252.76265000000421,
      "v": 64
    },
    {
      "midi": 67,
      "hit": false,
      "t": 48056.67148333361,
      "d": 226.51953333333222,
      "v": 58
    },
    {
      "midi": 55,
      "hit": false,
      "t": 48395.06956666694,
      "d": 349.44781666666677,
      "v": 85
    },
    {
      "midi": 67,
      "hit": false,
      "t": 48694.79358333361,
      "d": 397.7904000000053,
      "v": 64
    },
    {
      "midi": 62,
      "hit": false,
      "t": 48697.556016666946,
      "d": 381.2157999999981,
      "v": 72
    },
    {
      "midi": 59,
      "hit": false,
      "t": 48701.699666666944,
      "d": 388.12188333333324,
      "v": 64
    },
    {
      "midi": 64,
      "hit": false,
      "t": 49408.88260000028,
      "d": 327.3483500000075,
      "v": 75
    },
    {
      "midi": 67,
      "hit": false,
      "t": 49411.64503333362,
      "d": 324.5859166666705,
      "v": 72
    },
    {
      "midi": 60,
      "hit": false,
      "t": 49411.64503333362,
      "d": 328.7295666666687,
      "v": 69
    },
    {
      "midi": 48,
      "hit": false,
      "t": 49743.13703333362,
      "d": 325.96713333333173,
      "v": 82
    },
    {
      "midi": 67,
      "hit": false,
      "t": 50076.01025000029,
      "d": 343.9229500000074,
      "v": 60
    },
    {
      "midi": 64,
      "hit": false,
      "t": 50076.01025000029,
      "d": 348.06660000000556,
      "v": 67
    },
    {
      "midi": 60,
      "hit": false,
      "t": 50078.77268333363,
      "d": 348.06660000000556,
      "v": 62
    },
    {
      "midi": 48,
      "hit": false,
      "t": 50400.59616666696,
      "d": 335.6356500000038,
      "v": 72
    },
    {
      "midi": 64,
      "hit": false,
      "t": 50715.51356666697,
      "d": 359.11633333333884,
      "v": 67
    },
    {
      "midi": 60,
      "hit": false,
      "t": 50719.657216666965,
      "d": 357.73511666667764,
      "v": 62
    },
    {
      "midi": 67,
      "hit": false,
      "t": 50719.657216666965,
      "d": 357.73511666667764,
      "v": 60
    },
    {
      "midi": 48,
      "hit": false,
      "t": 51031.81218333363,
      "d": 364.64120000001276,
      "v": 75
    },
    {
      "midi": 64,
      "hit": false,
      "t": 51389.54730000031,
      "d": 338.3980833333335,
      "v": 69
    },
    {
      "midi": 67,
      "hit": false,
      "t": 51389.54730000031,
      "d": 338.3980833333335,
      "v": 64
    },
    {
      "midi": 60,
      "hit": false,
      "t": 51396.453383333646,
      "d": 338.3980833333335,
      "v": 62
    },
    {
      "midi": 48,
      "hit": false,
      "t": 51682.36523333364,
      "d": 383.97823333334236,
      "v": 69
    },
    {
      "midi": 64,
      "hit": false,
      "t": 52030.43183333365,
      "d": 368.78485000000364,
      "v": 64
    },
    {
      "midi": 67,
      "hit": false,
      "t": 52030.43183333365,
      "d": 368.78485000000364,
      "v": 58
    },
    {
      "midi": 60,
      "hit": false,
      "t": 52037.337916666984,
      "d": 368.78485000000364,
      "v": 60
    },
    {
      "midi": 48,
      "hit": false,
      "t": 52368.82991666698,
      "d": 364.6412000000055,
      "v": 72
    },
    {
      "midi": 64,
      "hit": false,
      "t": 52700.32191666699,
      "d": 356.3539000000019,
      "v": 62
    },
    {
      "midi": 67,
      "hit": false,
      "t": 52704.465566666986,
      "d": 348.06660000000556,
      "v": 56
    },
    {
      "midi": 60,
      "hit": false,
      "t": 52707.22800000032,
      "d": 361.8787666666685,
      "v": 55
    },
    {
      "midi": 48,
      "hit": false,
      "t": 53019.382966666984,
      "d": 397.7904000000126,
      "v": 72
    },
    {
      "midi": 67,
      "hit": false,
      "t": 53357.781050000325,
      "d": 319.0610500000039,
      "v": 62
    },
    {
      "midi": 64,
      "hit": false,
      "t": 53361.92470000032,
      "d": 317.6798333333427,
      "v": 69
    },
    {
      "midi": 60,
      "hit": false,
      "t": 53364.68713333366,
      "d": 314.9174000000057,
      "v": 64
    },
    {
      "midi": 43,
      "hit": false,
      "t": 53703.085216667,
      "d": 236.18804999999702,
      "v": 75
    },
    {
      "midi": 62,
      "hit": false,
      "t": 54062.20155000033,
      "d": 332.87321666666685,
      "v": 72
    },
    {
      "midi": 67,
      "hit": false,
      "t": 54062.20155000033,
      "d": 361.8787666666685,
      "v": 60
    },
    {
      "midi": 59,
      "hit": false,
      "t": 54073.251283333666,
      "d": 338.3980833333335,
      "v": 55
    },
    {
      "midi": 48,
      "hit": false,
      "t": 55063.58363333367,
      "d": 319.0610500000039,
      "v": 89
    },
    {
      "midi": 67,
      "hit": false,
      "t": 55352.257916667004,
      "d": 385.35945000000356,
      "v": 55
    },
    {
      "midi": 64,
      "hit": false,
      "t": 55355.02035000034,
      "d": 361.87876666666125,
      "v": 64
    },
    {
      "midi": 60,
      "hit": false,
      "t": 55361.926433333676,
      "d": 361.87876666666125,
      "v": 55
    },
    {
      "midi": 48,
      "hit": false,
      "t": 55690.65600000034,
      "d": 371.5472833333333,
      "v": 78
    },
    {
      "midi": 67,
      "hit": false,
      "t": 56029.05408333367,
      "d": 378.4533666666757,
      "v": 58
    },
    {
      "midi": 64,
      "hit": false,
      "t": 56033.19773333367,
      "d": 357.73511666667036,
      "v": 72
    },
    {
      "midi": 60,
      "hit": false,
      "t": 56035.960166667006,
      "d": 368.78485000000364,
      "v": 62
    },
    {
      "midi": 48,
      "hit": false,
      "t": 56345.35270000034,
      "d": 381.2158000000127,
      "v": 72
    },
    {
      "midi": 64,
      "hit": false,
      "t": 56683.75078333368,
      "d": 371.5472833333406,
      "v": 64
    },
    {
      "midi": 67,
      "hit": false,
      "t": 56683.75078333368,
      "d": 388.1218833333405,
      "v": 53
    },
    {
      "midi": 60,
      "hit": false,
      "t": 56686.513216667016,
      "d": 378.45336666666844,
      "v": 56
    },
    {
      "midi": 48,
      "hit": false,
      "t": 57008.33670000035,
      "d": 368.7848500000109,
      "v": 72
    },
    {
      "midi": 67,
      "hit": false,
      "t": 57343.97235000035,
      "d": 368.7848500000109,
      "v": 60
    },
    {
      "midi": 64,
      "hit": false,
      "t": 57346.73478333369,
      "d": 342.5417333333389,
      "v": 72
    },
    {
      "midi": 60,
      "hit": false,
      "t": 57346.73478333369,
      "d": 361.8787666666758,
      "v": 62
    },
    {
      "midi": 48,
      "hit": false,
      "t": 57672.70191666703,
      "d": 354.9726833333407,
      "v": 78
    },
    {
      "midi": 67,
      "hit": false,
      "t": 57997.2878333337,
      "d": 359.11633333333884,
      "v": 64
    },
    {
      "midi": 64,
      "hit": false,
      "t": 58001.4314833337,
      "d": 341.16051666667045,
      "v": 75
    },
    {
      "midi": 60,
      "hit": false,
      "t": 58004.193916667035,
      "d": 359.11633333333884,
      "v": 64
    },
    {
      "midi": 48,
      "hit": false,
      "t": 58330.161050000366,
      "d": 383.97823333334236,
      "v": 82
    },
    {
      "midi": 67,
      "hit": false,
      "t": 58668.55913333371,
      "d": 338.39808333334076,
      "v": 64
    },
    {
      "midi": 64,
      "hit": false,
      "t": 58671.321566667044,
      "d": 331.49199999999837,
      "v": 78
    },
    {
      "midi": 60,
      "hit": false,
      "t": 58671.321566667044,
      "d": 335.6356500000038,
      "v": 67
    },
    {
      "midi": 55,
      "hit": false,
      "t": 59009.719650000385,
      "d": 375.6909333333315,
      "v": 85
    },
    {
      "midi": 67,
      "hit": false,
      "t": 59319.11218333372,
      "d": 350.82903333333525,
      "v": 67
    },
    {
      "midi": 62,
      "hit": false,
      "t": 59326.01826666705,
      "d": 338.3980833333335,
      "v": 78
    },
    {
      "midi": 59,
      "hit": false,
      "t": 59331.54313333372,
      "d": 352.2102500000037,
      "v": 67
    },
    {
      "midi": 48,
      "hit": false,
      "t": 59680.990950000385,
      "d": 354.9726833333334,
      "v": 78
    },
    {
      "midi": 64,
      "hit": false,
      "t": 59998.67078333372,
      "d": 352.2102500000037,
      "v": 75
    },
    {
      "midi": 67,
      "hit": false,
      "t": 59998.67078333372,
      "d": 368.78485000000364,
      "v": 62
    },
    {
      "midi": 60,
      "hit": false,
      "t": 60002.81443333372,
      "d": 354.9726833333407,
      "v": 64
    },
    {
      "midi": 48,
      "hit": false,
      "t": 60320.494266667054,
      "d": 339.77930000000197,
      "v": 82
    },
    {
      "midi": 64,
      "hit": false,
      "t": 60649.22383333372,
      "d": 372.9285000000018,
      "v": 78
    },
    {
      "midi": 67,
      "hit": false,
      "t": 60649.22383333372,
      "d": 385.35945000000356,
      "v": 69
    },
    {
      "midi": 60,
      "hit": false,
      "t": 60656.12991666706,
      "d": 361.8787666666685,
      "v": 67
    },
    {
      "midi": 48,
      "hit": false,
      "t": 60991.765566667054,
      "d": 357.73511666667764,
      "v": 78
    },
    {
      "midi": 64,
      "hit": false,
      "t": 61327.40121666706,
      "d": 294.19915000000765,
      "v": 78
    },
    {
      "midi": 67,
      "hit": false,
      "t": 61327.40121666706,
      "d": 314.9174000000057,
      "v": 67
    },
    {
      "midi": 60,
      "hit": false,
      "t": 61330.163650000395,
      "d": 295.58036666666885,
      "v": 60
    },
    {
      "midi": 48,
      "hit": false,
      "t": 61632.6501000004,
      "d": 383.9782333333351,
      "v": 78
    },
    {
      "midi": 67,
      "hit": false,
      "t": 61973.81061666706,
      "d": 349.4478166666813,
      "v": 72
    },
    {
      "midi": 64,
      "hit": false,
      "t": 61980.7167000004,
      "d": 325.967133333339,
      "v": 82
    },
    {
      "midi": 60,
      "hit": false,
      "t": 61980.7167000004,
      "d": 331.49200000000565,
      "v": 67
    },
    {
      "midi": 48,
      "hit": false,
      "t": 62320.49600000041,
      "d": 374.309716666663,
      "v": 72
    },
    {
      "midi": 67,
      "hit": false,
      "t": 62647.84435000041,
      "d": 428.1771666666609,
      "v": 64
    },
    {
      "midi": 64,
      "hit": false,
      "t": 62651.988000000405,
      "d": 414.36499999999796,
      "v": 72
    },
    {
      "midi": 60,
      "hit": false,
      "t": 62651.988000000405,
      "d": 418.5086499999961,
      "v": 56
    },
    {
      "midi": 48,
      "hit": false,
      "t": 62993.14851666707,
      "d": 428.1771666666682,
      "v": 75
    },
    {
      "midi": 67,
      "hit": false,
      "t": 63345.358766667065,
      "d": 359.11633333333157,
      "v": 75
    },
    {
      "midi": 60,
      "hit": false,
      "t": 63348.1212000004,
      "d": 352.21024999999645,
      "v": 72
    },
    {
      "midi": 64,
      "hit": false,
      "t": 63352.2648500004,
      "d": 338.3980833333335,
      "v": 85
    },
    {
      "midi": 48,
      "hit": false,
      "t": 63647.84521666707,
      "d": 397.79039999999804,
      "v": 75
    },
    {
      "midi": 67,
      "hit": false,
      "t": 63976.57478333373,
      "d": 371.5472833333406,
      "v": 72
    },
    {
      "midi": 60,
      "hit": false,
      "t": 63976.57478333373,
      "d": 374.30971666667756,
      "v": 67
    },
    {
      "midi": 64,
      "hit": false,
      "t": 63979.33721666707,
      "d": 354.9726833333334,
      "v": 78
    },
    {
      "midi": 48,
      "hit": false,
      "t": 64298.39826666706,
      "d": 374.30971666668484,
      "v": 72
    },
    {
      "midi": 60,
      "hit": false,
      "t": 64613.31566666708,
      "d": 404.69648333334044,
      "v": 64
    },
    {
      "midi": 64,
      "hit": false,
      "t": 64616.07810000041,
      "d": 389.5031000000017,
      "v": 78
    },
    {
      "midi": 67,
      "hit": false,
      "t": 64616.07810000041,
      "d": 401.9340500000035,
      "v": 67
    },
    {
      "midi": 48,
      "hit": false,
      "t": 64935.13915000042,
      "d": 411.6025666666683,
      "v": 78
    },
    {
      "midi": 67,
      "hit": false,
      "t": 65297.017916667086,
      "d": 381.2158000000054,
      "v": 75
    },
    {
      "midi": 64,
      "hit": false,
      "t": 65299.78035000042,
      "d": 361.87876666666125,
      "v": 85
    },
    {
      "midi": 60,
      "hit": false,
      "t": 65303.92400000042,
      "d": 368.78484999999637,
      "v": 78
    },
    {
      "midi": 48,
      "hit": false,
      "t": 65609.17288333375,
      "d": 375.69093333334604,
      "v": 78
    },
    {
      "midi": 67,
      "hit": false,
      "t": 65930.9963666671,
      "d": 305.24888333333365,
      "v": 82
    },
    {
      "midi": 60,
      "hit": false,
      "t": 65933.75880000043,
      "d": 295.5803666666616,
      "v": 78
    },
    {
      "midi": 64,
      "hit": false,
      "t": 65937.90245000043,
      "d": 291.4367166666634,
      "v": 89
    },
    {
      "midi": 55,
      "hit": false,
      "t": 66259.72593333376,
      "d": 401.93405000001076,
      "v": 69
    },
    {
      "midi": 67,
      "hit": false,
      "t": 66614.6986166671,
      "d": 397.7903999999835,
      "v": 69
    },
    {
      "midi": 62,
      "hit": false,
      "t": 66618.8422666671,
      "d": 367.4036333333206,
      "v": 78
    },
    {
      "midi": 59,
      "hit": false,
      "t": 66621.60470000043,
      "d": 371.5472833333188,
      "v": 64
    },
    {
      "midi": 48,
      "hit": false,
      "t": 66984.86468333376,
      "d": 374.30971666665573,
      "v": 67
    },
    {
      "midi": 67,
      "hit": false,
      "t": 67297.01965000041,
      "d": 401.93405000001076,
      "v": 62
    },
    {
      "midi": 64,
      "hit": false,
      "t": 67303.92573333374,
      "d": 374.3097166666703,
      "v": 72
    },
    {
      "midi": 60,
      "hit": false,
      "t": 67313.59425000042,
      "d": 368.78484999999637,
      "v": 55
    },
    {
      "midi": 48,
      "hit": false,
      "t": 67658.89841666709,
      "d": 323.20470000000205,
      "v": 67
    },
    {
      "midi": 64,
      "hit": false,
      "t": 67935.14175000042,
      "d": 395.02796666667564,
      "v": 75
    },
    {
      "midi": 67,
      "hit": false,
      "t": 67935.14175000042,
      "d": 422.6523000000161,
      "v": 64
    },
    {
      "midi": 60,
      "hit": false,
      "t": 67942.04783333375,
      "d": 404.6964833333477,
      "v": 58
    },
    {
      "midi": 48,
      "hit": false,
      "t": 68287.35200000042,
      "d": 364.64120000001276,
      "v": 82
    },
    {
      "midi": 67,
      "hit": false,
      "t": 68616.0815666671,
      "d": 385.35945000000356,
      "v": 69
    },
    {
      "midi": 64,
      "hit": false,
      "t": 68618.84400000043,
      "d": 361.87876666666125,
      "v": 78
    },
    {
      "midi": 60,
      "hit": false,
      "t": 68622.98765000043,
      "d": 368.78484999999637,
      "v": 67
    },
    {
      "midi": 48,
      "hit": false,
      "t": 68942.04870000044,
      "d": 354.97268333332613,
      "v": 75
    },
    {
      "midi": 60,
      "hit": false,
      "t": 69259.72853333376,
      "d": 392.26553333332413,
      "v": 69
    },
    {
      "midi": 67,
      "hit": false,
      "t": 69263.87218333376,
      "d": 383.9782333333278,
      "v": 75
    },
    {
      "midi": 64,
      "hit": false,
      "t": 69266.6346166671,
      "d": 368.78484999999637,
      "v": 82
    },
    {
      "midi": 48,
      "hit": false,
      "t": 69592.60175000042,
      "d": 348.066599999991,
      "v": 82
    },
    {
      "midi": 67,
      "hit": false,
      "t": 69910.28158333375,
      "d": 388.12188333332597,
      "v": 67
    },
    {
      "midi": 60,
      "hit": false,
      "t": 69910.28158333375,
      "d": 401.9340499999962,
      "v": 58
    },
    {
      "midi": 64,
      "hit": false,
      "t": 69917.18766666709,
      "d": 371.5472833333188,
      "v": 75
    },
    {
      "midi": 48,
      "hit": false,
      "t": 70243.15480000041,
      "d": 348.06660000000556,
      "v": 78
    },
    {
      "midi": 67,
      "hit": false,
      "t": 70577.40923333375,
      "d": 361.8787666666758,
      "v": 75
    },
    {
      "midi": 60,
      "hit": false,
      "t": 70577.40923333375,
      "d": 385.35945000000356,
      "v": 72
    },
    {
      "midi": 64,
      "hit": false,
      "t": 70581.55288333374,
      "d": 354.9726833333407,
      "v": 82
    },
    {
      "midi": 48,
      "hit": false,
      "t": 70919.95096666708,
      "d": 352.2102500000183,
      "v": 85
    },
    {
      "midi": 60,
      "hit": false,
      "t": 71244.53688333376,
      "d": 328.72956666667596,
      "v": 75
    },
    {
      "midi": 67,
      "hit": false,
      "t": 71248.68053333375,
      "d": 321.82348333334085,
      "v": 78
    },
    {
      "midi": 64,
      "hit": false,
      "t": 71251.44296666709,
      "d": 314.9174000000057,
      "v": 85
    },
    {
      "midi": 36,
      "hit": false,
      "t": 71646.47093333377,
      "d": 291.4367166666634,
      "v": 72
    },
    {
      "midi": 60,
      "hit": false,
      "t": 71908.90210000043,
      "d": 397.79039999999804,
      "v": 69
    },
    {
      "midi": 64,
      "hit": false,
      "t": 71911.66453333377,
      "d": 401.9340499999962,
      "v": 58
    },
    {
      "midi": 67,
      "hit": false,
      "t": 71918.5706166671,
      "d": 397.79039999999804,
      "v": 53
    },
    {
      "midi": 48,
      "hit": false,
      "t": 72310.83615000042,
      "d": 88.39786666668078,
      "v": 55
    },
    {
      "midi": 48,
      "hit": false,
      "t": 72476.58215000044,
      "d": 128.4531500000012,
      "v": 75
    },
    {
      "midi": 52,
      "hit": false,
      "t": 72476.58215000044,
      "d": 128.4531500000012,
      "v": 75
    },
    {
      "midi": 50,
      "hit": false,
      "t": 72611.94138333377,
      "d": 165.74599999999919,
      "v": 62
    },
    {
      "midi": 53,
      "hit": false,
      "t": 72611.94138333377,
      "d": 165.74599999999919,
      "v": 62
    },
    {
      "midi": 52,
      "hit": false,
      "t": 72758.35035000044,
      "d": 191.9891166666639,
      "v": 64
    },
    {
      "midi": 55,
      "hit": false,
      "t": 72758.35035000044,
      "d": 191.9891166666639,
      "v": 64
    },
    {
      "midi": 53,
      "hit": false,
      "t": 72917.19026666711,
      "d": 361.8787666666758,
      "v": 62
    },
    {
      "midi": 57,
      "hit": false,
      "t": 72917.19026666711,
      "d": 361.8787666666758,
      "v": 62
    },
    {
      "midi": 69,
      "hit": false,
      "t": 73243.15740000045,
      "d": 418.50865000001795,
      "v": 62
    },
    {
      "midi": 65,
      "hit": false,
      "t": 73245.91983333378,
      "d": 385.35945000000356,
      "v": 67
    },
    {
      "midi": 60,
      "hit": false,
      "t": 73255.58835000046,
      "d": 389.5031000000017,
      "v": 53
    },
    {
      "midi": 53,
      "hit": false,
      "t": 73584.31791666712,
      "d": 361.8787666666758,
      "v": 72
    },
    {
      "midi": 65,
      "hit": false,
      "t": 73924.09721666713,
      "d": 390.8843166666629,
      "v": 72
    },
    {
      "midi": 69,
      "hit": false,
      "t": 73924.09721666713,
      "d": 407.4589166666701,
      "v": 62
    },
    {
      "midi": 60,
      "hit": false,
      "t": 73926.85965000046,
      "d": 401.9340499999962,
      "v": 67
    },
    {
      "midi": 53,
      "hit": false,
      "t": 74255.58921666713,
      "d": 354.97268333332613,
      "v": 75
    },
    {
      "midi": 65,
      "hit": false,
      "t": 74587.08121666712,
      "d": 361.8787666666467,
      "v": 82
    },
    {
      "midi": 69,
      "hit": false,
      "t": 74587.08121666712,
      "d": 385.35944999997446,
      "v": 75
    },
    {
      "midi": 60,
      "hit": false,
      "t": 74591.22486666712,
      "d": 377.07214999997814,
      "v": 78
    },
    {
      "midi": 53,
      "hit": false,
      "t": 74918.57321666711,
      "d": 349.44781666666677,
      "v": 75
    },
    {
      "midi": 60,
      "hit": false,
      "t": 75251.44643333377,
      "d": 288.674283333341,
      "v": 72
    },
    {
      "midi": 65,
      "hit": false,
      "t": 75251.44643333377,
      "d": 288.674283333341,
      "v": 82
    },
    {
      "midi": 69,
      "hit": false,
      "t": 75251.44643333377,
      "d": 301.1052333333355,
      "v": 72
    },
    {
      "midi": 48,
      "hit": false,
      "t": 75580.17600000044,
      "d": 364.6411999999982,
      "v": 78
    },
    {
      "midi": 64,
      "hit": false,
      "t": 75911.66800000044,
      "d": 361.87876666666125,
      "v": 75
    },
    {
      "midi": 67,
      "hit": false,
      "t": 75911.66800000044,
      "d": 368.78484999999637,
      "v": 62
    },
    {
      "midi": 60,
      "hit": false,
      "t": 75921.33651666711,
      "d": 361.87876666666125,
      "v": 62
    },
    {
      "midi": 48,
      "hit": false,
      "t": 76240.3975666671,
      "d": 345.3041666666686,
      "v": 75
    },
    {
      "midi": 60,
      "hit": false,
      "t": 76571.8895666671,
      "d": 248.61900000000605,
      "v": 69
    },
    {
      "midi": 67,
      "hit": false,
      "t": 76571.8895666671,
      "d": 262.4311666666763,
      "v": 75
    },
    {
      "midi": 64,
      "hit": false,
      "t": 76574.65200000044,
      "d": 245.8565666666691,
      "v": 85
    },
    {
      "midi": 55,
      "hit": false,
      "t": 76926.86225000046,
      "d": 331.49199999999837,
      "v": 69
    },
    {
      "midi": 67,
      "hit": false,
      "t": 77215.53653333378,
      "d": 335.6356500000111,
      "v": 64
    },
    {
      "midi": 62,
      "hit": false,
      "t": 77222.44261666712,
      "d": 321.82348333334085,
      "v": 67
    },
    {
      "midi": 59,
      "hit": false,
      "t": 77222.44261666712,
      "d": 328.72956666667596,
      "v": 58
    },
    {
      "midi": 48,
      "hit": false,
      "t": 77581.55895000046,
      "d": 334.2544333333353,
      "v": 75
    },
    {
      "midi": 64,
      "hit": false,
      "t": 77903.38243333378,
      "d": 341.16051666667045,
      "v": 78
    },
    {
      "midi": 67,
      "hit": false,
      "t": 77903.38243333378,
      "d": 354.9726833333407,
      "v": 75
    },
    {
      "midi": 60,
      "hit": false,
      "t": 77906.14486666712,
      "d": 342.54173333333165,
      "v": 72
    },
    {
      "midi": 53,
      "hit": false,
      "t": 78274.92971666713,
      "d": 345.3041666666686,
      "v": 69
    },
    {
      "midi": 65,
      "hit": false,
      "t": 78559.46035000046,
      "d": 392.26553333335323,
      "v": 75
    },
    {
      "midi": 69,
      "hit": false,
      "t": 78563.60400000046,
      "d": 401.9340500000253,
      "v": 67
    },
    {
      "midi": 60,
      "hit": false,
      "t": 78573.27251666713,
      "d": 408.8401333333604,
      "v": 58
    },
    {
      "midi": 53,
      "hit": false,
      "t": 78904.76451666714,
      "d": 356.35390000001644,
      "v": 75
    },
    {
      "midi": 65,
      "hit": false,
      "t": 79227.96921666716,
      "d": 381.2158000000054,
      "v": 78
    },
    {
      "midi": 60,
      "hit": false,
      "t": 79227.96921666716,
      "d": 407.4589166666701,
      "v": 69
    },
    {
      "midi": 69,
      "hit": false,
      "t": 79230.7316500005,
      "d": 381.2158000000054,
      "v": 67
    },
    {
      "midi": 53,
      "hit": false,
      "t": 79533.2181000005,
      "d": 390.8843166666775,
      "v": 75
    },
    {
      "midi": 69,
      "hit": false,
      "t": 79881.2847000005,
      "d": 385.35945000000356,
      "v": 72
    },
    {
      "midi": 60,
      "hit": false,
      "t": 79884.04713333384,
      "d": 395.0279666666611,
      "v": 64
    },
    {
      "midi": 65,
      "hit": false,
      "t": 79888.19078333383,
      "d": 361.87876666666125,
      "v": 78
    },
    {
      "midi": 53,
      "hit": false,
      "t": 80212.7767000005,
      "d": 371.5472833333333,
      "v": 75
    },
    {
      "midi": 60,
      "hit": false,
      "t": 80524.93166666717,
      "d": 314.9174000000057,
      "v": 64
    },
    {
      "midi": 64,
      "hit": false,
      "t": 80529.07531666716,
      "d": 314.9174000000057,
      "v": 72
    },
    {
      "midi": 67,
      "hit": false,
      "t": 80531.8377500005,
      "d": 302.4864499999967,
      "v": 82
    },
    {
      "midi": 50,
      "hit": false,
      "t": 80900.62260000051,
      "d": 390.8843166666629,
      "v": 89
    },
    {
      "midi": 62,
      "hit": false,
      "t": 81211.3963500005,
      "d": 414.3649999999907,
      "v": 89
    },
    {
      "midi": 65,
      "hit": false,
      "t": 81215.5400000005,
      "d": 414.3649999999907,
      "v": 68
    },
    {
      "midi": 57,
      "hit": false,
      "t": 81547.0320000005,
      "d": 82.87299999999232,
      "v": 78
    },
    {
      "midi": 65,
      "hit": false,
      "t": 81882.6676500005,
      "d": 281.7682000000059,
      "v": 61
    },
    {
      "midi": 57,
      "hit": false,
      "t": 81892.33616666717,
      "d": 262.43116666666174,
      "v": 69
    },
    {
      "midi": 62,
      "hit": false,
      "t": 81892.33616666717,
      "d": 265.1935999999987,
      "v": 78
    },
    {
      "midi": 55,
      "hit": false,
      "t": 82205.8723500005,
      "d": 354.9726833333407,
      "v": 82
    },
    {
      "midi": 67,
      "hit": false,
      "t": 82518.02731666717,
      "d": 401.9340499999962,
      "v": 62
    },
    {
      "midi": 62,
      "hit": false,
      "t": 82527.69583333384,
      "d": 378.4533666666539,
      "v": 69
    },
    {
      "midi": 59,
      "hit": false,
      "t": 82527.69583333384,
      "d": 399.17161666665925,
      "v": 55
    },
    {
      "midi": 55,
      "hit": false,
      "t": 82849.51931666717,
      "d": 375.69093333334604,
      "v": 64
    },
    {
      "midi": 67,
      "hit": false,
      "t": 83168.58036666717,
      "d": 381.21579999999085,
      "v": 58
    },
    {
      "midi": 62,
      "hit": false,
      "t": 83175.4864500005,
      "d": 361.87876666666125,
      "v": 72
    },
    {
      "midi": 59,
      "hit": false,
      "t": 83178.24888333384,
      "d": 371.5472833333188,
      "v": 58
    },
    {
      "midi": 55,
      "hit": false,
      "t": 83523.55305000051,
      "d": 328.7295666666614,
      "v": 75
    },
    {
      "midi": 67,
      "hit": false,
      "t": 83828.80193333383,
      "d": 401.9340500000253,
      "v": 60
    },
    {
      "midi": 62,
      "hit": false,
      "t": 83839.85166666716,
      "d": 371.5472833333479,
      "v": 78
    },
    {
      "midi": 59,
      "hit": false,
      "t": 83842.6141000005,
      "d": 371.5472833333479,
      "v": 67
    },
    {
      "midi": 55,
      "hit": false,
      "t": 84167.20001666718,
      "d": 378.453366666683,
      "v": 72
    },
    {
      "midi": 67,
      "hit": false,
      "t": 84509.74175000052,
      "d": 338.39808333334804,
      "v": 67
    },
    {
      "midi": 59,
      "hit": false,
      "t": 84523.5539166672,
      "d": 317.6798333333427,
      "v": 72
    },
    {
      "midi": 62,
      "hit": false,
      "t": 84526.31635000053,
      "d": 305.24888333333365,
      "v": 85
    },
    {
      "midi": 48,
      "hit": false,
      "t": 84861.95200000054,
      "d": 400.552833333335,
      "v": 85
    },
    {
      "midi": 64,
      "hit": false,
      "t": 85210.01860000055,
      "d": 381.21579999999085,
      "v": 75
    },
    {
      "midi": 67,
      "hit": false,
      "t": 85210.01860000055,
      "d": 390.8843166666629,
      "v": 64
    },
    {
      "midi": 60,
      "hit": false,
      "t": 85216.92468333388,
      "d": 390.8843166666629,
      "v": 64
    },
    {
      "midi": 48,
      "hit": false,
      "t": 85518.0299166672,
      "d": 399.1716166666738,
      "v": 78
    },
    {
      "midi": 64,
      "hit": false,
      "t": 85863.33408333387,
      "d": 371.5472833333333,
      "v": 69
    },
    {
      "midi": 67,
      "hit": false,
      "t": 85867.47773333387,
      "d": 374.3097166666703,
      "v": 64
    },
    {
      "midi": 60,
      "hit": false,
      "t": 85867.47773333387,
      "d": 381.2158000000054,
      "v": 60
    },
    {
      "midi": 48,
      "hit": false,
      "t": 86172.7266166672,
      "d": 397.7904000000126,
      "v": 78
    },
    {
      "midi": 64,
      "hit": false,
      "t": 86520.79321666721,
      "d": 378.45336666666844,
      "v": 69
    },
    {
      "midi": 60,
      "hit": false,
      "t": 86520.79321666721,
      "d": 392.2655333333387,
      "v": 58
    },
    {
      "midi": 67,
      "hit": false,
      "t": 86523.55565000055,
      "d": 382.5970166666666,
      "v": 67
    },
    {
      "midi": 48,
      "hit": false,
      "t": 86842.61670000055,
      "d": 371.5472833333333,
      "v": 75
    },
    {
      "midi": 60,
      "hit": false,
      "t": 87174.10870000055,
      "d": 382.5970166666666,
      "v": 58
    },
    {
      "midi": 64,
      "hit": false,
      "t": 87178.25235000055,
      "d": 364.6411999999982,
      "v": 69
    },
    {
      "midi": 67,
      "hit": false,
      "t": 87181.01478333389,
      "d": 366.0224166666594,
      "v": 60
    },
    {
      "midi": 48,
      "hit": false,
      "t": 87490.40731666722,
      "d": 374.3097166666703,
      "v": 78
    },
    {
      "midi": 64,
      "hit": false,
      "t": 87821.89931666722,
      "d": 368.7848500000109,
      "v": 69
    },
    {
      "midi": 60,
      "hit": false,
      "t": 87821.89931666722,
      "d": 381.2158000000054,
      "v": 58
    },
    {
      "midi": 67,
      "hit": false,
      "t": 87824.66175000055,
      "d": 366.02241666667396,
      "v": 58
    },
    {
      "midi": 48,
      "hit": false,
      "t": 88157.53496666723,
      "d": 374.3097166666703,
      "v": 78
    },
    {
      "midi": 60,
      "hit": false,
      "t": 88489.02696666722,
      "d": 279.00576666666893,
      "v": 64
    },
    {
      "midi": 64,
      "hit": false,
      "t": 88491.78940000056,
      "d": 279.00576666666893,
      "v": 75
    },
    {
      "midi": 67,
      "hit": false,
      "t": 88495.93305000056,
      "d": 272.0996833333338,
      "v": 67
    },
    {
      "midi": 55,
      "hit": false,
      "t": 88841.23721666723,
      "d": 378.45336666666844,
      "v": 89
    },
    {
      "midi": 67,
      "hit": false,
      "t": 89146.48610000056,
      "d": 371.5472833333333,
      "v": 62
    },
    {
      "midi": 62,
      "hit": false,
      "t": 89156.15461666723,
      "d": 354.97268333332613,
      "v": 78
    },
    {
      "midi": 59,
      "hit": false,
      "t": 89163.06070000057,
      "d": 364.6411999999982,
      "v": 60
    },
    {
      "midi": 67,
      "hit": false,
      "t": 89820.5198333339,
      "d": 357.7351166666631,
      "v": 55
    },
    {
      "midi": 64,
      "hit": false,
      "t": 89823.28226666724,
      "d": 354.97268333332613,
      "v": 62
    },
    {
      "midi": 60,
      "hit": false,
      "t": 89827.42591666724,
      "d": 357.7351166666631,
      "v": 56
    },
    {
      "midi": 48,
      "hit": false,
      "t": 90135.43723333391,
      "d": 368.78484999999637,
      "v": 69
    },
    {
      "midi": 67,
      "hit": false,
      "t": 90490.40991666724,
      "d": 366.02241666667396,
      "v": 58
    },
    {
      "midi": 64,
      "hit": false,
      "t": 90490.40991666724,
      "d": 368.7848500000109,
      "v": 67
    },
    {
      "midi": 60,
      "hit": false,
      "t": 90494.55356666724,
      "d": 371.5472833333479,
      "v": 60
    },
    {
      "midi": 48,
      "hit": false,
      "t": 90816.37705000058,
      "d": 341.160516666685,
      "v": 72
    },
    {
      "midi": 64,
      "hit": false,
      "t": 91134.05688333392,
      "d": 372.9285000000091,
      "v": 62
    },
    {
      "midi": 67,
      "hit": false,
      "t": 91138.20053333392,
      "d": 364.64120000001276,
      "v": 55
    },
    {
      "midi": 60,
      "hit": false,
      "t": 91140.96296666726,
      "d": 371.5472833333479,
      "v": 55
    },
    {
      "midi": 48,
      "hit": false,
      "t": 91476.59861666727,
      "d": 371.5472833333479,
      "v": 75
    },
    {
      "midi": 64,
      "hit": false,
      "t": 91805.32818333394,
      "d": 378.453366666683,
      "v": 67
    },
    {
      "midi": 67,
      "hit": false,
      "t": 91808.09061666728,
      "d": 368.7848500000109,
      "v": 58
    },
    {
      "midi": 60,
      "hit": false,
      "t": 91812.23426666728,
      "d": 371.5472833333479,
      "v": 55
    },
    {
      "midi": 48,
      "hit": false,
      "t": 92140.96383333395,
      "d": 367.40363333333516,
      "v": 78
    },
    {
      "midi": 64,
      "hit": false,
      "t": 92472.45583333395,
      "d": 371.5472833333333,
      "v": 67
    },
    {
      "midi": 67,
      "hit": false,
      "t": 92475.21826666729,
      "d": 366.0224166666594,
      "v": 58
    },
    {
      "midi": 60,
      "hit": false,
      "t": 92479.36191666729,
      "d": 364.6411999999982,
      "v": 60
    },
    {
      "midi": 48,
      "hit": false,
      "t": 92797.04175000062,
      "d": 368.7848500000109,
      "v": 78
    },
    {
      "midi": 64,
      "hit": false,
      "t": 93146.48956666728,
      "d": 371.5472833333333,
      "v": 67
    },
    {
      "midi": 67,
      "hit": false,
      "t": 93149.25200000062,
      "d": 354.97268333332613,
      "v": 60
    },
    {
      "midi": 60,
      "hit": false,
      "t": 93152.01443333396,
      "d": 375.6909333333315,
      "v": 58
    },
    {
      "midi": 48,
      "hit": false,
      "t": 93468.31305000062,
      "d": 374.3097166666703,
      "v": 78
    },
    {
      "midi": 64,
      "hit": false,
      "t": 93797.04261666728,
      "d": 255.52508333334117,
      "v": 69
    },
    {
      "midi": 60,
      "hit": false,
      "t": 93799.80505000062,
      "d": 252.76265000000421,
      "v": 64
    },
    {
      "midi": 67,
      "hit": false,
      "t": 93802.56748333396,
      "d": 226.5195333333395,
      "v": 58
    },
    {
      "midi": 55,
      "hit": false,
      "t": 94140.96556666729,
      "d": 349.4478166666813,
      "v": 85
    },
    {
      "midi": 67,
      "hit": false,
      "t": 94440.68958333397,
      "d": 397.7904000000126,
      "v": 64
    },
    {
      "midi": 62,
      "hit": false,
      "t": 94443.4520166673,
      "d": 381.2158000000054,
      "v": 72
    },
    {
      "midi": 59,
      "hit": false,
      "t": 94447.5956666673,
      "d": 388.1218833333405,
      "v": 64
    },
    {
      "midi": 64,
      "hit": false,
      "t": 95154.77860000065,
      "d": 327.3483500000002,
      "v": 75
    },
    {
      "midi": 67,
      "hit": false,
      "t": 95157.54103333398,
      "d": 324.58591666666325,
      "v": 72
    },
    {
      "midi": 60,
      "hit": false,
      "t": 95157.54103333398,
      "d": 328.7295666666614,
      "v": 69
    },
    {
      "midi": 69,
      "hit": false,
      "t": 95784.61340000064,
      "d": 418.50865000001795,
      "v": 62
    },
    {
      "midi": 65,
      "hit": false,
      "t": 95787.37583333398,
      "d": 385.35945000000356,
      "v": 67
    },
    {
      "midi": 60,
      "hit": false,
      "t": 95797.04435000065,
      "d": 389.5031000000017,
      "v": 53
    },
    {
      "midi": 53,
      "hit": false,
      "t": 96125.77391666731,
      "d": 361.8787666666758,
      "v": 72
    },
    {
      "midi": 65,
      "hit": false,
      "t": 96465.55321666732,
      "d": 390.8843166666629,
      "v": 72
    },
    {
      "midi": 69,
      "hit": false,
      "t": 96465.55321666732,
      "d": 407.4589166666701,
      "v": 62
    },
    {
      "midi": 60,
      "hit": false,
      "t": 96468.31565000066,
      "d": 401.9340499999962,
      "v": 67
    },
    {
      "midi": 53,
      "hit": false,
      "t": 96797.04521666732,
      "d": 354.97268333332613,
      "v": 75
    },
    {
      "midi": 65,
      "hit": false,
      "t": 97128.53721666732,
      "d": 361.8787666666467,
      "v": 82
    },
    {
      "midi": 69,
      "hit": false,
      "t": 97128.53721666732,
      "d": 385.35944999997446,
      "v": 75
    },
    {
      "midi": 60,
      "hit": false,
      "t": 97132.68086666732,
      "d": 377.07214999997814,
      "v": 78
    },
    {
      "midi": 53,
      "hit": false,
      "t": 97460.0292166673,
      "d": 349.44781666666677,
      "v": 75
    },
    {
      "midi": 60,
      "hit": false,
      "t": 97792.90243333396,
      "d": 288.674283333341,
      "v": 72
    },
    {
      "midi": 65,
      "hit": false,
      "t": 97792.90243333396,
      "d": 288.674283333341,
      "v": 82
    },
    {
      "midi": 69,
      "hit": false,
      "t": 97792.90243333396,
      "d": 301.1052333333355,
      "v": 72
    },
    {
      "midi": 48,
      "hit": false,
      "t": 98121.63200000064,
      "d": 364.6411999999982,
      "v": 78
    },
    {
      "midi": 64,
      "hit": false,
      "t": 98453.12400000064,
      "d": 361.87876666666125,
      "v": 75
    },
    {
      "midi": 67,
      "hit": false,
      "t": 98453.12400000064,
      "d": 368.78484999999637,
      "v": 62
    },
    {
      "midi": 60,
      "hit": false,
      "t": 98462.79251666731,
      "d": 361.87876666666125,
      "v": 62
    },
    {
      "midi": 48,
      "hit": false,
      "t": 98781.8535666673,
      "d": 345.3041666666686,
      "v": 75
    },
    {
      "midi": 60,
      "hit": false,
      "t": 99113.3455666673,
      "d": 248.61900000000605,
      "v": 69
    },
    {
      "midi": 67,
      "hit": false,
      "t": 99113.3455666673,
      "d": 262.4311666666763,
      "v": 75
    },
    {
      "midi": 64,
      "hit": false,
      "t": 99116.10800000063,
      "d": 245.8565666666691,
      "v": 85
    },
    {
      "midi": 55,
      "hit": false,
      "t": 99468.31825000065,
      "d": 331.49199999999837,
      "v": 69
    },
    {
      "midi": 67,
      "hit": false,
      "t": 99756.99253333398,
      "d": 335.6356500000111,
      "v": 64
    },
    {
      "midi": 62,
      "hit": false,
      "t": 99763.89861666731,
      "d": 321.82348333334085,
      "v": 67
    },
    {
      "midi": 59,
      "hit": false,
      "t": 99763.89861666731,
      "d": 328.72956666667596,
      "v": 58
    },
    {
      "midi": 48,
      "hit": false,
      "t": 100123.01495000065,
      "d": 334.2544333333353,
      "v": 75
    },
    {
      "midi": 64,
      "hit": false,
      "t": 100444.83843333398,
      "d": 341.16051666667045,
      "v": 78
    },
    {
      "midi": 67,
      "hit": false,
      "t": 100444.83843333398,
      "d": 354.9726833333407,
      "v": 75
    },
    {
      "midi": 60,
      "hit": false,
      "t": 100447.60086666732,
      "d": 342.54173333333165,
      "v": 72
    },
    {
      "midi": 53,
      "hit": false,
      "t": 100816.38571666733,
      "d": 345.3041666666686,
      "v": 69
    },
    {
      "midi": 65,
      "hit": false,
      "t": 101100.91635000065,
      "d": 392.26553333335323,
      "v": 75
    },
    {
      "midi": 69,
      "hit": false,
      "t": 101105.06000000065,
      "d": 401.9340500000253,
      "v": 67
    },
    {
      "midi": 60,
      "hit": false,
      "t": 101114.72851666732,
      "d": 408.8401333333604,
      "v": 58
    },
    {
      "midi": 53,
      "hit": false,
      "t": 101446.22051666734,
      "d": 356.35390000001644,
      "v": 75
    },
    {
      "midi": 65,
      "hit": false,
      "t": 101769.42521666735,
      "d": 381.2158000000054,
      "v": 78
    },
    {
      "midi": 60,
      "hit": false,
      "t": 101769.42521666735,
      "d": 407.4589166666701,
      "v": 69
    },
    {
      "midi": 69,
      "hit": false,
      "t": 101772.18765000069,
      "d": 381.2158000000054,
      "v": 67
    },
    {
      "midi": 53,
      "hit": false,
      "t": 102074.67410000069,
      "d": 390.8843166666775,
      "v": 75
    },
    {
      "midi": 69,
      "hit": false,
      "t": 102422.7407000007,
      "d": 385.35945000000356,
      "v": 72
    },
    {
      "midi": 60,
      "hit": false,
      "t": 102425.50313333403,
      "d": 395.0279666666611,
      "v": 64
    },
    {
      "midi": 65,
      "hit": false,
      "t": 102429.64678333403,
      "d": 361.87876666666125,
      "v": 78
    },
    {
      "midi": 53,
      "hit": false,
      "t": 102754.23270000069,
      "d": 371.5472833333333,
      "v": 75
    },
    {
      "midi": 60,
      "hit": false,
      "t": 103066.38766666736,
      "d": 314.9174000000057,
      "v": 64
    },
    {
      "midi": 64,
      "hit": false,
      "t": 103070.53131666736,
      "d": 314.9174000000057,
      "v": 72
    },
    {
      "midi": 67,
      "hit": false,
      "t": 103073.2937500007,
      "d": 302.4864499999967,
      "v": 82
    },
    {
      "midi": 50,
      "hit": false,
      "t": 103442.0786000007,
      "d": 390.8843166666629,
      "v": 89
    },
    {
      "midi": 62,
      "hit": false,
      "t": 103752.8523500007,
      "d": 399.17161666665925,
      "v": 89
    },
    {
      "midi": 65,
      "hit": false,
      "t": 103756.9960000007,
      "d": 401.9340499999962,
      "v": 68
    },
    {
      "midi": 57,
      "hit": false,
      "t": 104088.4880000007,
      "d": 75.96691666667175,
      "v": 78
    },
    {
      "midi": 65,
      "hit": false,
      "t": 104424.1236500007,
      "d": 281.7682000000059,
      "v": 61
    },
    {
      "midi": 57,
      "hit": false,
      "t": 104433.79216666738,
      "d": 262.43116666666174,
      "v": 69
    },
    {
      "midi": 62,
      "hit": false,
      "t": 104433.79216666738,
      "d": 265.1935999999987,
      "v": 78
    },
    {
      "midi": 55,
      "hit": false,
      "t": 104747.32835000071,
      "d": 354.9726833333407,
      "v": 82
    },
    {
      "midi": 67,
      "hit": false,
      "t": 105059.48331666738,
      "d": 401.9340499999962,
      "v": 62
    },
    {
      "midi": 62,
      "hit": false,
      "t": 105069.15183333405,
      "d": 378.4533666666539,
      "v": 69
    },
    {
      "midi": 59,
      "hit": false,
      "t": 105069.15183333405,
      "d": 399.17161666665925,
      "v": 55
    },
    {
      "midi": 55,
      "hit": false,
      "t": 105390.97531666738,
      "d": 375.69093333334604,
      "v": 64
    },
    {
      "midi": 67,
      "hit": false,
      "t": 105710.03636666738,
      "d": 381.21579999999085,
      "v": 58
    },
    {
      "midi": 62,
      "hit": false,
      "t": 105716.94245000072,
      "d": 361.87876666666125,
      "v": 72
    },
    {
      "midi": 59,
      "hit": false,
      "t": 105719.70488333405,
      "d": 371.5472833333188,
      "v": 58
    },
    {
      "midi": 55,
      "hit": false,
      "t": 106065.00905000072,
      "d": 328.7295666666614,
      "v": 75
    },
    {
      "midi": 67,
      "hit": false,
      "t": 106370.25793333404,
      "d": 401.9340500000253,
      "v": 60
    },
    {
      "midi": 62,
      "hit": false,
      "t": 106381.30766666737,
      "d": 371.5472833333479,
      "v": 78
    },
    {
      "midi": 59,
      "hit": false,
      "t": 106384.07010000071,
      "d": 371.5472833333479,
      "v": 67
    },
    {
      "midi": 55,
      "hit": false,
      "t": 106708.65601666739,
      "d": 378.453366666683,
      "v": 72
    },
    {
      "midi": 67,
      "hit": false,
      "t": 107051.19775000073,
      "d": 338.39808333334804,
      "v": 67
    },
    {
      "midi": 59,
      "hit": false,
      "t": 107065.0099166674,
      "d": 317.6798333333427,
      "v": 72
    },
    {
      "midi": 62,
      "hit": false,
      "t": 107067.77235000074,
      "d": 305.24888333333365,
      "v": 85
    },
    {
      "midi": 48,
      "hit": false,
      "t": 107403.40800000075,
      "d": 400.552833333335,
      "v": 85
    },
    {
      "midi": 64,
      "hit": false,
      "t": 107751.47460000076,
      "d": 381.21579999999085,
      "v": 75
    },
    {
      "midi": 67,
      "hit": false,
      "t": 107751.47460000076,
      "d": 390.8843166666629,
      "v": 64
    },
    {
      "midi": 60,
      "hit": false,
      "t": 107758.3806833341,
      "d": 390.8843166666629,
      "v": 64
    },
    {
      "midi": 48,
      "hit": false,
      "t": 108059.48591666741,
      "d": 399.1716166666738,
      "v": 78
    },
    {
      "midi": 64,
      "hit": false,
      "t": 108404.79008333408,
      "d": 371.5472833333333,
      "v": 69
    },
    {
      "midi": 67,
      "hit": false,
      "t": 108408.93373333408,
      "d": 374.3097166666703,
      "v": 64
    },
    {
      "midi": 60,
      "hit": false,
      "t": 108408.93373333408,
      "d": 381.2158000000054,
      "v": 60
    },
    {
      "midi": 48,
      "hit": false,
      "t": 108714.18261666741,
      "d": 397.7904000000126,
      "v": 78
    },
    {
      "midi": 64,
      "hit": false,
      "t": 109062.24921666742,
      "d": 378.45336666666844,
      "v": 69
    },
    {
      "midi": 60,
      "hit": false,
      "t": 109062.24921666742,
      "d": 392.2655333333387,
      "v": 58
    },
    {
      "midi": 67,
      "hit": false,
      "t": 109065.01165000076,
      "d": 382.5970166666666,
      "v": 67
    },
    {
      "midi": 48,
      "hit": false,
      "t": 109384.07270000076,
      "d": 371.5472833333333,
      "v": 75
    },
    {
      "midi": 60,
      "hit": false,
      "t": 109715.56470000076,
      "d": 382.5970166666666,
      "v": 58
    },
    {
      "midi": 64,
      "hit": false,
      "t": 109719.70835000076,
      "d": 364.6411999999982,
      "v": 69
    },
    {
      "midi": 67,
      "hit": false,
      "t": 109722.4707833341,
      "d": 366.0224166666594,
      "v": 60
    },
    {
      "midi": 48,
      "hit": false,
      "t": 110031.86331666743,
      "d": 374.3097166666703,
      "v": 78
    },
    {
      "midi": 64,
      "hit": false,
      "t": 110363.35531666742,
      "d": 368.7848500000109,
      "v": 69
    },
    {
      "midi": 60,
      "hit": false,
      "t": 110363.35531666742,
      "d": 381.2158000000054,
      "v": 58
    },
    {
      "midi": 67,
      "hit": false,
      "t": 110366.11775000076,
      "d": 366.02241666667396,
      "v": 58
    },
    {
      "midi": 48,
      "hit": false,
      "t": 110698.99096666744,
      "d": 374.3097166666703,
      "v": 78
    },
    {
      "midi": 60,
      "hit": false,
      "t": 111030.48296666743,
      "d": 279.00576666666893,
      "v": 64
    },
    {
      "midi": 64,
      "hit": false,
      "t": 111033.24540000077,
      "d": 279.00576666666893,
      "v": 75
    },
    {
      "midi": 67,
      "hit": false,
      "t": 111037.38905000077,
      "d": 272.0996833333338,
      "v": 67
    },
    {
      "midi": 55,
      "hit": false,
      "t": 111382.69321666744,
      "d": 378.45336666666844,
      "v": 89
    },
    {
      "midi": 67,
      "hit": false,
      "t": 111687.94210000077,
      "d": 371.5472833333333,
      "v": 62
    },
    {
      "midi": 62,
      "hit": false,
      "t": 111697.61061666744,
      "d": 354.97268333332613,
      "v": 78
    },
    {
      "midi": 59,
      "hit": false,
      "t": 111704.51670000078,
      "d": 364.6411999999982,
      "v": 60
    },
    {
      "midi": 67,
      "hit": false,
      "t": 112361.97583333412,
      "d": 357.7351166666631,
      "v": 55
    },
    {
      "midi": 64,
      "hit": false,
      "t": 112364.73826666745,
      "d": 354.97268333332613,
      "v": 62
    },
    {
      "midi": 60,
      "hit": false,
      "t": 112368.88191666745,
      "d": 357.7351166666631,
      "v": 56
    },
    {
      "midi": 48,
      "hit": false,
      "t": 112676.89323333412,
      "d": 368.78484999999637,
      "v": 69
    },
    {
      "midi": 67,
      "hit": false,
      "t": 113031.86591666745,
      "d": 366.02241666667396,
      "v": 58
    },
    {
      "midi": 64,
      "hit": false,
      "t": 113031.86591666745,
      "d": 368.7848500000109,
      "v": 67
    },
    {
      "midi": 60,
      "hit": false,
      "t": 113036.00956666745,
      "d": 371.5472833333479,
      "v": 60
    },
    {
      "midi": 48,
      "hit": false,
      "t": 113357.83305000079,
      "d": 341.160516666685,
      "v": 72
    },
    {
      "midi": 64,
      "hit": false,
      "t": 113675.51288333413,
      "d": 372.9285000000091,
      "v": 62
    },
    {
      "midi": 67,
      "hit": false,
      "t": 113679.65653333413,
      "d": 364.64120000001276,
      "v": 55
    },
    {
      "midi": 60,
      "hit": false,
      "t": 113682.41896666746,
      "d": 371.5472833333479,
      "v": 55
    },
    {
      "midi": 48,
      "hit": false,
      "t": 114018.05461666748,
      "d": 371.5472833333479,
      "v": 75
    },
    {
      "midi": 64,
      "hit": false,
      "t": 114346.78418333415,
      "d": 378.453366666683,
      "v": 67
    },
    {
      "midi": 67,
      "hit": false,
      "t": 114349.54661666749,
      "d": 368.7848500000109,
      "v": 58
    },
    {
      "midi": 60,
      "hit": false,
      "t": 114353.69026666749,
      "d": 371.5472833333479,
      "v": 55
    },
    {
      "midi": 48,
      "hit": false,
      "t": 114682.41983333416,
      "d": 367.40363333333516,
      "v": 78
    },
    {
      "midi": 64,
      "hit": false,
      "t": 115013.91183333416,
      "d": 371.5472833333333,
      "v": 67
    },
    {
      "midi": 67,
      "hit": false,
      "t": 115016.6742666675,
      "d": 366.0224166666594,
      "v": 58
    },
    {
      "midi": 60,
      "hit": false,
      "t": 115020.8179166675,
      "d": 364.6411999999982,
      "v": 60
    },
    {
      "midi": 48,
      "hit": false,
      "t": 115338.49775000082,
      "d": 368.7848500000109,
      "v": 78
    },
    {
      "midi": 64,
      "hit": false,
      "t": 115687.94556666749,
      "d": 371.5472833333333,
      "v": 67
    },
    {
      "midi": 67,
      "hit": false,
      "t": 115690.70800000083,
      "d": 354.97268333332613,
      "v": 60
    },
    {
      "midi": 60,
      "hit": false,
      "t": 115693.47043333417,
      "d": 375.6909333333315,
      "v": 58
    },
    {
      "midi": 48,
      "hit": false,
      "t": 116009.76905000083,
      "d": 374.3097166666703,
      "v": 78
    },
    {
      "midi": 64,
      "hit": false,
      "t": 116338.4986166675,
      "d": 255.52508333334117,
      "v": 69
    },
    {
      "midi": 60,
      "hit": false,
      "t": 116341.26105000083,
      "d": 252.76265000000421,
      "v": 64
    },
    {
      "midi": 67,
      "hit": false,
      "t": 116344.02348333417,
      "d": 226.5195333333395,
      "v": 58
    },
    {
      "midi": 55,
      "hit": false,
      "t": 116682.4215666675,
      "d": 349.4478166666813,
      "v": 85
    },
    {
      "midi": 67,
      "hit": false,
      "t": 116982.14558333418,
      "d": 397.7904000000126,
      "v": 64
    },
    {
      "midi": 62,
      "hit": false,
      "t": 116984.90801666751,
      "d": 381.2158000000054,
      "v": 72
    },
    {
      "midi": 59,
      "hit": false,
      "t": 116989.05166666751,
      "d": 388.1218833333405,
      "v": 64
    },
    {
      "midi": 64,
      "hit": false,
      "t": 117696.23460000085,
      "d": 327.3483500000002,
      "v": 75
    },
    {
      "midi": 67,
      "hit": false,
      "t": 117698.99703333419,
      "d": 324.58591666666325,
      "v": 72
    },
    {
      "midi": 60,
      "hit": false,
      "t": 117698.99703333419,
      "d": 328.7295666666614,
      "v": 69
    },
    {
      "midi": 48,
      "hit": false,
      "t": 118037.39511666753,
      "d": 381.21580000001995,
      "v": 75
    },
    {
      "midi": 64,
      "hit": false,
      "t": 118407.5611833342,
      "d": 338.39808333334804,
      "v": 58
    },
    {
      "midi": 67,
      "hit": false,
      "t": 118410.32361666753,
      "d": 350.8290333333425,
      "v": 42
    },
    {
      "midi": 60,
      "hit": false,
      "t": 118413.08605000087,
      "d": 345.3041666666686,
      "v": 53
    },
    {
      "midi": 48,
      "hit": false,
      "t": 118714.1912833342,
      "d": 332.8732166666887,
      "v": 69
    },
    {
      "midi": 67,
      "hit": false,
      "t": 119024.96503333421,
      "d": 303.86766666667245,
      "v": 52
    },
    {
      "midi": 64,
      "hit": false,
      "t": 119030.48990000089,
      "d": 294.1991500000004,
      "v": 62
    },
    {
      "midi": 60,
      "hit": false,
      "t": 119030.48990000089,
      "d": 296.96158333333733,
      "v": 55
    },
    {
      "midi": 55,
      "hit": false,
      "t": 119337.12000000088,
      "d": 371.5472833333333,
      "v": 72
    },
    {
      "midi": 67,
      "hit": false,
      "t": 119658.94348333421,
      "d": 330.11078333333717,
      "v": 60
    },
    {
      "midi": 62,
      "hit": false,
      "t": 119668.61200000088,
      "d": 319.0610500000039,
      "v": 72
    },
    {
      "midi": 59,
      "hit": false,
      "t": 119668.61200000088,
      "d": 323.20470000000205,
      "v": 55
    },
    {
      "midi": 48,
      "hit": false,
      "t": 120000.10400000088,
      "d": 1933.7033333333384,
      "v": 56
    },
    {
      "midi": 60,
      "hit": false,
      "t": 120000.10400000088,
      "d": 1933.7033333333384,
      "v": 44
    },
    {
      "midi": 64,
      "hit": false,
      "t": 120000.10400000088,
      "d": 1933.7033333333384,
      "v": 67
    },
    {
      "midi": 67,
      "hit": false,
      "t": 120000.10400000088,
      "d": 1933.7033333333384,
      "v": 48
    },
    {
      "midi": 48,
      "hit": false,
      "t": 127280.49705000088,
      "d": 415.746216666681,
      "v": 55
    },
    {
      "midi": 67,
      "hit": false,
      "t": 127629.94486666755,
      "d": 400.55283333334955,
      "v": 72
    },
    {
      "midi": 64,
      "hit": false,
      "t": 127632.70730000088,
      "d": 381.2158000000054,
      "v": 82
    },
    {
      "midi": 60,
      "hit": false,
      "t": 127635.46973333422,
      "d": 408.8401333333459,
      "v": 62
    },
    {
      "midi": 48,
      "hit": false,
      "t": 127951.76835000089,
      "d": 440.60811666666996,
      "v": 72
    },
    {
      "midi": 67,
      "hit": false,
      "t": 128306.74103333423,
      "d": 411.6025666666683,
      "v": 82
    },
    {
      "midi": 64,
      "hit": false,
      "t": 128309.50346666756,
      "d": 404.69648333333316,
      "v": 89
    },
    {
      "midi": 60,
      "hit": false,
      "t": 128313.64711666756,
      "d": 428.1771666666609,
      "v": 78
    },
    {
      "midi": 48,
      "hit": false,
      "t": 128654.80763333423,
      "d": 375.6909333333315,
      "v": 78
    },
    {
      "midi": 67,
      "hit": false,
      "t": 128973.86868333422,
      "d": 385.35945000000356,
      "v": 78
    },
    {
      "midi": 64,
      "hit": false,
      "t": 128976.63111666756,
      "d": 359.11633333333884,
      "v": 85
    },
    {
      "midi": 60,
      "hit": false,
      "t": 128980.77476666756,
      "d": 388.1218833333405,
      "v": 72
    },
    {
      "midi": 48,
      "hit": false,
      "t": 129281.88000000089,
      "d": 375.6909333333315,
      "v": 69
    },
    {
      "midi": 67,
      "hit": false,
      "t": 129594.03496666756,
      "d": 401.9340499999962,
      "v": 69
    },
    {
      "midi": 64,
      "hit": false,
      "t": 129598.17861666756,
      "d": 383.9782333333278,
      "v": 82
    },
    {
      "midi": 60,
      "hit": false,
      "t": 129600.9410500009,
      "d": 414.3649999999907,
      "v": 67
    },
    {
      "midi": 48,
      "hit": false,
      "t": 129913.09601666755,
      "d": 395.02796666667564,
      "v": 67
    },
    {
      "midi": 67,
      "hit": false,
      "t": 130265.30626666755,
      "d": 381.21580000001995,
      "v": 75
    },
    {
      "midi": 60,
      "hit": false,
      "t": 130268.06870000089,
      "d": 397.7904000000126,
      "v": 69
    },
    {
      "midi": 64,
      "hit": false,
      "t": 130270.83113333423,
      "d": 359.11633333333884,
      "v": 85
    },
    {
      "midi": 48,
      "hit": false,
      "t": 130582.9861000009,
      "d": 375.69093333334604,
      "v": 67
    },
    {
      "midi": 67,
      "hit": false,
      "t": 130915.85931666757,
      "d": 308.0113166666706,
      "v": 75
    },
    {
      "midi": 60,
      "hit": false,
      "t": 130918.62175000091,
      "d": 302.48645000001125,
      "v": 69
    },
    {
      "midi": 64,
      "hit": false,
      "t": 130921.38418333424,
      "d": 295.5803666666616,
      "v": 85
    },
    {
      "midi": 55,
      "hit": false,
      "t": 131233.5391500009,
      "d": 375.6909333333606,
      "v": 64
    },
    {
      "midi": 71,
      "hit": false,
      "t": 131562.26871666758,
      "d": 371.5472833333479,
      "v": 69
    },
    {
      "midi": 67,
      "hit": false,
      "t": 131566.4123666676,
      "d": 364.64120000001276,
      "v": 69
    },
    {
      "midi": 62,
      "hit": false,
      "t": 131576.08088333425,
      "d": 371.5472833333479,
      "v": 48
    },
    {
      "midi": 55,
      "hit": false,
      "t": 131895.14193333426,
      "d": 314.9173999999766,
      "v": 72
    },
    {
      "midi": 48,
      "hit": false,
      "t": 131950.39060000092,
      "d": 328.72956666664686,
      "v": 67
    },
    {
      "midi": 67,
      "hit": false,
      "t": 132250.11461666756,
      "d": 341.160516666685,
      "v": 75
    },
    {
      "midi": 64,
      "hit": false,
      "t": 132255.63948333423,
      "d": 323.20470000000205,
      "v": 85
    },
    {
      "midi": 60,
      "hit": false,
      "t": 132262.54556666757,
      "d": 335.6356500000111,
      "v": 72
    },
    {
      "midi": 48,
      "hit": false,
      "t": 132567.7944500009,
      "d": 375.6909333333315,
      "v": 69
    },
    {
      "midi": 67,
      "hit": false,
      "t": 132910.33618333424,
      "d": 378.4533666666539,
      "v": 75
    },
    {
      "midi": 64,
      "hit": false,
      "t": 132917.24226666757,
      "d": 354.97268333332613,
      "v": 85
    },
    {
      "midi": 60,
      "hit": false,
      "t": 132920.0047000009,
      "d": 375.6909333333315,
      "v": 69
    },
    {
      "midi": 48,
      "hit": false,
      "t": 133234.9221000009,
      "d": 399.17161666663014,
      "v": 72
    },
    {
      "midi": 67,
      "hit": false,
      "t": 133600.94451666754,
      "d": 381.2157999999763,
      "v": 75
    },
    {
      "midi": 64,
      "hit": false,
      "t": 133610.6130333342,
      "d": 348.066599999991,
      "v": 85
    },
    {
      "midi": 60,
      "hit": false,
      "t": 133610.6130333342,
      "d": 381.2157999999763,
      "v": 69
    },
    {
      "midi": 48,
      "hit": false,
      "t": 133908.95583333418,
      "d": 388.1218833333114,
      "v": 75
    },
    {
      "midi": 67,
      "hit": false,
      "t": 134251.4975666675,
      "d": 364.64120000001276,
      "v": 78
    },
    {
      "midi": 64,
      "hit": false,
      "t": 134254.26000000082,
      "d": 335.6356500000111,
      "v": 82
    },
    {
      "midi": 60,
      "hit": false,
      "t": 134254.26000000082,
      "d": 378.453366666683,
      "v": 69
    },
    {
      "midi": 48,
      "hit": false,
      "t": 134563.65253333416,
      "d": 367.40363333333516,
      "v": 72
    },
    {
      "midi": 67,
      "hit": false,
      "t": 134892.38210000083,
      "d": 377.0721499999927,
      "v": 75
    },
    {
      "midi": 60,
      "hit": false,
      "t": 134895.14453333415,
      "d": 385.3594500000181,
      "v": 62
    },
    {
      "midi": 64,
      "hit": false,
      "t": 134897.90696666748,
      "d": 352.2102500000037,
      "v": 78
    },
    {
      "midi": 48,
      "hit": false,
      "t": 135203.15585000083,
      "d": 401.93405000003986,
      "v": 82
    },
    {
      "midi": 67,
      "hit": false,
      "t": 135565.03461666752,
      "d": 392.26553333335323,
      "v": 82
    },
    {
      "midi": 60,
      "hit": false,
      "t": 135569.17826666753,
      "d": 397.79039999999804,
      "v": 72
    },
    {
      "midi": 64,
      "hit": false,
      "t": 135571.94070000085,
      "d": 368.7848500000255,
      "v": 85
    },
    {
      "midi": 48,
      "hit": false,
      "t": 135874.42715000088,
      "d": 368.78484999996726,
      "v": 75
    },
    {
      "midi": 67,
      "hit": false,
      "t": 136226.63740000085,
      "d": 251.38143333332846,
      "v": 78
    },
    {
      "midi": 64,
      "hit": false,
      "t": 136229.39983333417,
      "d": 245.85656666668365,
      "v": 85
    },
    {
      "midi": 60,
      "hit": false,
      "t": 136229.39983333417,
      "d": 255.52508333334117,
      "v": 69
    },
    {
      "midi": 55,
      "hit": false,
      "t": 136574.70400000084,
      "d": 328.72956666667596,
      "v": 78
    },
    {
      "midi": 67,
      "hit": false,
      "t": 136896.52748333418,
      "d": 328.72956666664686,
      "v": 72
    },
    {
      "midi": 62,
      "hit": false,
      "t": 136906.19600000084,
      "d": 305.2488833333191,
      "v": 85
    },
    {
      "midi": 59,
      "hit": false,
      "t": 136906.19600000084,
      "d": 321.82348333331174,
      "v": 62
    },
    {
      "midi": 48,
      "hit": false,
      "t": 137237.6880000008,
      "d": 1933.7033333333384,
      "v": 72
    },
    {
      "midi": 60,
      "hit": false,
      "t": 137237.6880000008,
      "d": 1933.7033333333384,
      "v": 72
    },
    {
      "midi": 64,
      "hit": false,
      "t": 137237.6880000008,
      "d": 1933.7033333333384,
      "v": 72
    },
    {
      "midi": 67,
      "hit": false,
      "t": 137237.6880000008,
      "d": 1933.7033333333384,
      "v": 72
    }
  ]
}