{
  "jsonPath": "Folk/Deep New Americana/Will Kimbrough/im-on-your-side.json",
  "path": "Folk\\Deep New Americana\\Will Kimbrough\\Im On Your Side.mid",
  "name": "Im On Your Side",
  "difficulty": "Advanced",
  "bpm": 120.00768049155145,
  "notes": [
    {
      "midi": 41,
      "hit": false,
      "t": 4437.862,
      "d": 676.9620000000004,
      "v": 84
    },
    {
      "midi": 57,
      "hit": false,
      "t": 4993.318,
      "d": 358.73199999999997,
      "v": 100
    },
    {
      "midi": 60,
      "hit": false,
      "t": 4993.318,
      "d": 358.73199999999997,
      "v": 94
    },
    {
      "midi": 52,
      "hit": false,
      "t": 4993.318,
      "d": 381.8760000000002,
      "v": 112
    },
    {
      "midi": 41,
      "hit": false,
      "t": 5276.832,
      "d": 121.50600000000031,
      "v": 94
    },
    {
      "midi": 41,
      "hit": false,
      "t": 5560.3460000000005,
      "d": 630.674,
      "v": 102
    },
    {
      "midi": 52,
      "hit": false,
      "t": 6115.802000000001,
      "d": 381.8760000000002,
      "v": 108
    },
    {
      "midi": 57,
      "hit": false,
      "t": 6115.802000000001,
      "d": 381.8760000000002,
      "v": 100
    },
    {
      "midi": 60,
      "hit": false,
      "t": 6115.802000000001,
      "d": 381.8760000000002,
      "v": 94
    },
    {
      "midi": 41,
      "hit": false,
      "t": 6387.744000000001,
      "d": 121.50600000000031,
      "v": 88
    },
    {
      "midi": 43,
      "hit": false,
      "t": 6943.200000000001,
      "d": 277.72800000000007,
      "v": 78
    },
    {
      "midi": 55,
      "hit": false,
      "t": 7220.928000000001,
      "d": 190.9380000000001,
      "v": 73
    },
    {
      "midi": 59,
      "hit": false,
      "t": 7220.928000000001,
      "d": 214.08200000000033,
      "v": 73
    },
    {
      "midi": 43,
      "hit": false,
      "t": 7764.812000000001,
      "d": 966.2619999999997,
      "v": 106
    },
    {
      "midi": 55,
      "hit": false,
      "t": 7782.170000000001,
      "d": 1047.2659999999987,
      "v": 98
    },
    {
      "midi": 59,
      "hit": false,
      "t": 7782.170000000001,
      "d": 1047.2659999999987,
      "v": 91
    },
    {
      "midi": 41,
      "hit": false,
      "t": 8887.296,
      "d": 653.8179999999993,
      "v": 94
    },
    {
      "midi": 53,
      "hit": false,
      "t": 9436.966,
      "d": 295.08599999999933,
      "v": 102
    },
    {
      "midi": 57,
      "hit": false,
      "t": 9436.966,
      "d": 295.08599999999933,
      "v": 94
    },
    {
      "midi": 48,
      "hit": false,
      "t": 9436.966,
      "d": 318.22999999999956,
      "v": 100
    },
    {
      "midi": 41,
      "hit": false,
      "t": 9714.694,
      "d": 109.9340000000011,
      "v": 94
    },
    {
      "midi": 41,
      "hit": false,
      "t": 9998.208,
      "d": 584.3860000000004,
      "v": 97
    },
    {
      "midi": 48,
      "hit": false,
      "t": 10553.664,
      "d": 300.8720000000012,
      "v": 112
    },
    {
      "midi": 53,
      "hit": false,
      "t": 10553.664,
      "d": 300.8720000000012,
      "v": 110
    },
    {
      "midi": 57,
      "hit": false,
      "t": 10553.664,
      "d": 300.8720000000012,
      "v": 106
    },
    {
      "midi": 41,
      "hit": false,
      "t": 10825.606000000002,
      "d": 248.79800000000068,
      "v": 76
    },
    {
      "midi": 43,
      "hit": false,
      "t": 11381.062000000002,
      "d": 405.0199999999986,
      "v": 80
    },
    {
      "midi": 50,
      "hit": false,
      "t": 11670.362000000001,
      "d": 121.5059999999994,
      "v": 102
    },
    {
      "midi": 55,
      "hit": false,
      "t": 11670.362000000001,
      "d": 121.5059999999994,
      "v": 94
    },
    {
      "midi": 59,
      "hit": false,
      "t": 11670.362000000001,
      "d": 121.5059999999994,
      "v": 87
    },
    {
      "midi": 50,
      "hit": false,
      "t": 12220.032000000001,
      "d": 966.2620000000006,
      "v": 114
    },
    {
      "midi": 55,
      "hit": false,
      "t": 12220.032000000001,
      "d": 977.8340000000007,
      "v": 104
    },
    {
      "midi": 59,
      "hit": false,
      "t": 12220.032000000001,
      "d": 977.8340000000007,
      "v": 97
    },
    {
      "midi": 43,
      "hit": false,
      "t": 12220.032000000001,
      "d": 1058.8380000000016,
      "v": 112
    },
    {
      "midi": 41,
      "hit": false,
      "t": 13319.372000000003,
      "d": 688.5339999999997,
      "v": 91
    },
    {
      "midi": 52,
      "hit": false,
      "t": 13892.186000000003,
      "d": 271.9419999999991,
      "v": 108
    },
    {
      "midi": 57,
      "hit": false,
      "t": 13892.186000000003,
      "d": 271.9419999999991,
      "v": 102
    },
    {
      "midi": 60,
      "hit": false,
      "t": 13892.186000000003,
      "d": 271.9419999999991,
      "v": 97
    },
    {
      "midi": 41,
      "hit": false,
      "t": 14164.128000000002,
      "d": 109.93399999999929,
      "v": 92
    },
    {
      "midi": 41,
      "hit": false,
      "t": 14441.856000000002,
      "d": 630.6740000000009,
      "v": 100
    },
    {
      "midi": 52,
      "hit": false,
      "t": 14991.526000000002,
      "d": 335.58800000000156,
      "v": 112
    },
    {
      "midi": 57,
      "hit": false,
      "t": 14991.526000000002,
      "d": 335.58800000000156,
      "v": 106
    },
    {
      "midi": 60,
      "hit": false,
      "t": 14991.526000000002,
      "d": 335.58800000000156,
      "v": 97
    },
    {
      "midi": 41,
      "hit": false,
      "t": 15269.254000000003,
      "d": 277.728000000001,
      "v": 97
    },
    {
      "midi": 43,
      "hit": false,
      "t": 15552.768000000004,
      "d": 665.3899999999994,
      "v": 100
    },
    {
      "midi": 50,
      "hit": false,
      "t": 16102.438000000004,
      "d": 156.22199999999975,
      "v": 108
    },
    {
      "midi": 55,
      "hit": false,
      "t": 16102.438000000004,
      "d": 156.22199999999975,
      "v": 100
    },
    {
      "midi": 59,
      "hit": false,
      "t": 16102.438000000004,
      "d": 179.36599999999999,
      "v": 85
    },
    {
      "midi": 43,
      "hit": false,
      "t": 16385.952000000005,
      "d": 98.36200000000099,
      "v": 84
    },
    {
      "midi": 43,
      "hit": false,
      "t": 16657.894000000008,
      "d": 700.1059999999998,
      "v": 100
    },
    {
      "midi": 59,
      "hit": false,
      "t": 16663.680000000008,
      "d": 989.4060000000027,
      "v": 92
    },
    {
      "midi": 50,
      "hit": false,
      "t": 16663.680000000008,
      "d": 1012.5500000000029,
      "v": 110
    },
    {
      "midi": 55,
      "hit": false,
      "t": 16663.680000000008,
      "d": 1012.5500000000029,
      "v": 106
    },
    {
      "midi": 43,
      "hit": false,
      "t": 17491.07800000001,
      "d": 277.7280000000028,
      "v": 87
    },
    {
      "midi": 41,
      "hit": false,
      "t": 17774.59200000001,
      "d": 653.8179999999993,
      "v": 95
    },
    {
      "midi": 53,
      "hit": false,
      "t": 18324.26200000001,
      "d": 335.58799999999974,
      "v": 106
    },
    {
      "midi": 57,
      "hit": false,
      "t": 18324.26200000001,
      "d": 335.58799999999974,
      "v": 92
    },
    {
      "midi": 48,
      "hit": false,
      "t": 18324.26200000001,
      "d": 358.73199999999997,
      "v": 108
    },
    {
      "midi": 41,
      "hit": false,
      "t": 18613.56200000001,
      "d": 98.36200000000099,
      "v": 85
    },
    {
      "midi": 41,
      "hit": false,
      "t": 18885.50400000001,
      "d": 676.9619999999995,
      "v": 95
    },
    {
      "midi": 48,
      "hit": false,
      "t": 19446.74600000001,
      "d": 295.08600000000297,
      "v": 110
    },
    {
      "midi": 57,
      "hit": false,
      "t": 19446.74600000001,
      "d": 295.08600000000297,
      "v": 102
    },
    {
      "midi": 53,
      "hit": false,
      "t": 19446.74600000001,
      "d": 312.44400000000314,
      "v": 110
    },
    {
      "midi": 41,
      "hit": false,
      "t": 19718.688000000013,
      "d": 214.08200000000215,
      "v": 88
    },
    {
      "midi": 43,
      "hit": false,
      "t": 19990.630000000016,
      "d": 700.1059999999998,
      "v": 94
    },
    {
      "midi": 50,
      "hit": false,
      "t": 20546.086000000014,
      "d": 179.3660000000018,
      "v": 102
    },
    {
      "midi": 59,
      "hit": false,
      "t": 20546.086000000014,
      "d": 179.3660000000018,
      "v": 90
    },
    {
      "midi": 55,
      "hit": false,
      "t": 20551.872000000014,
      "d": 144.65000000000146,
      "v": 95
    },
    {
      "midi": 43,
      "hit": false,
      "t": 20835.386000000017,
      "d": 98.36200000000099,
      "v": 90
    },
    {
      "midi": 43,
      "hit": false,
      "t": 21107.32800000002,
      "d": 665.3899999999994,
      "v": 102
    },
    {
      "midi": 50,
      "hit": false,
      "t": 21107.32800000002,
      "d": 972.0480000000025,
      "v": 108
    },
    {
      "midi": 59,
      "hit": false,
      "t": 21107.32800000002,
      "d": 972.0480000000025,
      "v": 104
    },
    {
      "midi": 55,
      "hit": false,
      "t": 21113.11400000002,
      "d": 972.0480000000025,
      "v": 104
    },
    {
      "midi": 43,
      "hit": false,
      "t": 21946.29800000002,
      "d": 277.7280000000028,
      "v": 104
    },
    {
      "midi": 41,
      "hit": false,
      "t": 22224.026000000023,
      "d": 659.6039999999994,
      "v": 92
    },
    {
      "midi": 57,
      "hit": false,
      "t": 22779.48200000002,
      "d": 248.7980000000025,
      "v": 104
    },
    {
      "midi": 52,
      "hit": false,
      "t": 22779.48200000002,
      "d": 266.1560000000027,
      "v": 112
    },
    {
      "midi": 60,
      "hit": false,
      "t": 22779.48200000002,
      "d": 266.1560000000027,
      "v": 98
    },
    {
      "midi": 41,
      "hit": false,
      "t": 23039.852000000024,
      "d": 121.50600000000122,
      "v": 85
    },
    {
      "midi": 41,
      "hit": false,
      "t": 23358.082000000024,
      "d": 676.9620000000032,
      "v": 98
    },
    {
      "midi": 52,
      "hit": false,
      "t": 23873.036000000026,
      "d": 347.1600000000035,
      "v": 112
    },
    {
      "midi": 57,
      "hit": false,
      "t": 23873.036000000026,
      "d": 347.1600000000035,
      "v": 106
    },
    {
      "midi": 60,
      "hit": false,
      "t": 23873.036000000026,
      "d": 347.1600000000035,
      "v": 97
    },
    {
      "midi": 41,
      "hit": false,
      "t": 24179.69400000003,
      "d": 115.72000000000116,
      "v": 94
    },
    {
      "midi": 43,
      "hit": false,
      "t": 24440.06400000003,
      "d": 665.3899999999994,
      "v": 102
    },
    {
      "midi": 55,
      "hit": false,
      "t": 24995.52000000003,
      "d": 156.22200000000157,
      "v": 98
    },
    {
      "midi": 50,
      "hit": false,
      "t": 24995.52000000003,
      "d": 179.3660000000018,
      "v": 112
    },
    {
      "midi": 59,
      "hit": false,
      "t": 24995.52000000003,
      "d": 179.3660000000018,
      "v": 90
    },
    {
      "midi": 43,
      "hit": false,
      "t": 25279.034000000032,
      "d": 92.57600000000093,
      "v": 92
    },
    {
      "midi": 50,
      "hit": false,
      "t": 25550.97600000003,
      "d": 1093.554,
      "v": 110
    },
    {
      "midi": 55,
      "hit": false,
      "t": 25550.97600000003,
      "d": 1093.554,
      "v": 106
    },
    {
      "midi": 59,
      "hit": false,
      "t": 25550.97600000003,
      "d": 1093.554,
      "v": 100
    },
    {
      "midi": 43,
      "hit": false,
      "t": 25556.76200000003,
      "d": 948.9039999999986,
      "v": 110
    },
    {
      "midi": 41,
      "hit": false,
      "t": 26656.10200000003,
      "d": 630.6739999999991,
      "v": 90
    },
    {
      "midi": 53,
      "hit": false,
      "t": 27217.34400000003,
      "d": 295.08599999999933,
      "v": 106
    },
    {
      "midi": 48,
      "hit": false,
      "t": 27217.34400000003,
      "d": 300.8719999999994,
      "v": 106
    },
    {
      "midi": 57,
      "hit": false,
      "t": 27217.34400000003,
      "d": 300.8719999999994,
      "v": 97
    },
    {
      "midi": 41,
      "hit": false,
      "t": 27489.28600000003,
      "d": 133.07800000000134,
      "v": 92
    },
    {
      "midi": 41,
      "hit": false,
      "t": 27778.586000000032,
      "d": 595.9579999999987,
      "v": 97
    },
    {
      "midi": 48,
      "hit": false,
      "t": 28328.25600000003,
      "d": 190.93800000000192,
      "v": 110
    },
    {
      "midi": 53,
      "hit": false,
      "t": 28328.25600000003,
      "d": 202.51000000000204,
      "v": 108
    },
    {
      "midi": 57,
      "hit": false,
      "t": 28328.25600000003,
      "d": 214.08200000000215,
      "v": 94
    },
    {
      "midi": 41,
      "hit": false,
      "t": 28600.198000000033,
      "d": 277.72799999999916,
      "v": 92
    },
    {
      "midi": 43,
      "hit": false,
      "t": 28883.712000000032,
      "d": 619.101999999999,
      "v": 102
    },
    {
      "midi": 50,
      "hit": false,
      "t": 29433.38200000003,
      "d": 202.51000000000204,
      "v": 102
    },
    {
      "midi": 55,
      "hit": false,
      "t": 29433.38200000003,
      "d": 202.51000000000204,
      "v": 94
    },
    {
      "midi": 59,
      "hit": false,
      "t": 29433.38200000003,
      "d": 202.51000000000204,
      "v": 87
    },
    {
      "midi": 43,
      "hit": false,
      "t": 29711.110000000033,
      "d": 98.36200000000099,
      "v": 102
    },
    {
      "midi": 50,
      "hit": false,
      "t": 29994.624000000033,
      "d": 925.7599999999984,
      "v": 114
    },
    {
      "midi": 59,
      "hit": false,
      "t": 29994.624000000033,
      "d": 925.7599999999984,
      "v": 98
    },
    {
      "midi": 55,
      "hit": false,
      "t": 29994.624000000033,
      "d": 937.3319999999985,
      "v": 102
    },
    {
      "midi": 43,
      "hit": false,
      "t": 29994.624000000033,
      "d": 1139.8420000000006,
      "v": 106
    },
    {
      "midi": 41,
      "hit": false,
      "t": 31099.750000000033,
      "d": 607.5300000000025,
      "v": 95
    },
    {
      "midi": 57,
      "hit": false,
      "t": 31655.206000000035,
      "d": 277.72799999999916,
      "v": 98
    },
    {
      "midi": 60,
      "hit": false,
      "t": 31655.206000000035,
      "d": 277.72799999999916,
      "v": 92
    },
    {
      "midi": 52,
      "hit": false,
      "t": 31655.206000000035,
      "d": 300.8719999999994,
      "v": 112
    },
    {
      "midi": 41,
      "hit": false,
      "t": 31932.934000000034,
      "d": 144.65000000000146,
      "v": 91
    },
    {
      "midi": 41,
      "hit": false,
      "t": 32216.448000000037,
      "d": 665.390000000003,
      "v": 98
    },
    {
      "midi": 57,
      "hit": false,
      "t": 32771.90400000004,
      "d": 260.3700000000026,
      "v": 102
    },
    {
      "midi": 60,
      "hit": false,
      "t": 32771.90400000004,
      "d": 271.94200000000274,
      "v": 100
    },
    {
      "midi": 52,
      "hit": false,
      "t": 32771.90400000004,
      "d": 283.51400000000285,
      "v": 108
    },
    {
      "midi": 41,
      "hit": false,
      "t": 33055.41800000004,
      "d": 277.7280000000028,
      "v": 100
    },
    {
      "midi": 43,
      "hit": false,
      "t": 33333.146000000044,
      "d": 595.9579999999987,
      "v": 100
    },
    {
      "midi": 55,
      "hit": false,
      "t": 33888.60200000004,
      "d": 144.65000000000146,
      "v": 87
    },
    {
      "midi": 59,
      "hit": false,
      "t": 33888.60200000004,
      "d": 144.65000000000146,
      "v": 80
    },
    {
      "midi": 50,
      "hit": false,
      "t": 33888.60200000004,
      "d": 167.7940000000017,
      "v": 98
    },
    {
      "midi": 43,
      "hit": false,
      "t": 34160.544000000045,
      "d": 98.36200000000099,
      "v": 100
    },
    {
      "midi": 59,
      "hit": false,
      "t": 34432.48600000005,
      "d": 1035.6940000000031,
      "v": 104
    },
    {
      "midi": 55,
      "hit": false,
      "t": 34432.48600000005,
      "d": 1047.2660000000033,
      "v": 104
    },
    {
      "midi": 50,
      "hit": false,
      "t": 34432.48600000005,
      "d": 1058.8380000000034,
      "v": 112
    },
    {
      "midi": 43,
      "hit": false,
      "t": 34432.48600000005,
      "d": 1110.912000000004,
      "v": 102
    },
    {
      "midi": 41,
      "hit": false,
      "t": 35543.39800000005,
      "d": 619.101999999999,
      "v": 98
    },
    {
      "midi": 48,
      "hit": false,
      "t": 36110.42600000005,
      "d": 329.8020000000033,
      "v": 112
    },
    {
      "midi": 53,
      "hit": false,
      "t": 36110.42600000005,
      "d": 329.8020000000033,
      "v": 106
    },
    {
      "midi": 57,
      "hit": false,
      "t": 36110.42600000005,
      "d": 329.8020000000033,
      "v": 97
    },
    {
      "midi": 41,
      "hit": false,
      "t": 36376.58200000005,
      "d": 121.50600000000122,
      "v": 88
    },
    {
      "midi": 41,
      "hit": false,
      "t": 36665.882000000056,
      "d": 561.2419999999984,
      "v": 95
    },
    {
      "midi": 48,
      "hit": false,
      "t": 37209.766000000054,
      "d": 295.08600000000297,
      "v": 108
    },
    {
      "midi": 57,
      "hit": false,
      "t": 37209.766000000054,
      "d": 295.08600000000297,
      "v": 94
    },
    {
      "midi": 53,
      "hit": false,
      "t": 37209.766000000054,
      "d": 306.6580000000031,
      "v": 108
    },
    {
      "midi": 41,
      "hit": false,
      "t": 37475.92200000006,
      "d": 277.7280000000028,
      "v": 90
    },
    {
      "midi": 43,
      "hit": false,
      "t": 37765.22200000006,
      "d": 700.1059999999998,
      "v": 104
    },
    {
      "midi": 55,
      "hit": false,
      "t": 38320.67800000006,
      "d": 214.08200000000215,
      "v": 100
    },
    {
      "midi": 50,
      "hit": false,
      "t": 38320.67800000006,
      "d": 237.2260000000024,
      "v": 108
    },
    {
      "midi": 59,
      "hit": false,
      "t": 38320.67800000006,
      "d": 237.2260000000024,
      "v": 94
    },
    {
      "midi": 43,
      "hit": false,
      "t": 38615.76400000006,
      "d": 75.21800000000076,
      "v": 87
    },
    {
      "midi": 50,
      "hit": false,
      "t": 38876.134000000064,
      "d": 960.4760000000024,
      "v": 110
    },
    {
      "midi": 55,
      "hit": false,
      "t": 38876.134000000064,
      "d": 960.4760000000024,
      "v": 106
    },
    {
      "midi": 59,
      "hit": false,
      "t": 38876.134000000064,
      "d": 960.4760000000024,
      "v": 100
    },
    {
      "midi": 43,
      "hit": false,
      "t": 38887.706000000064,
      "d": 914.1880000000019,
      "v": 114
    },
    {
      "midi": 41,
      "hit": false,
      "t": 39992.83200000007,
      "d": 630.6739999999991,
      "v": 97
    },
    {
      "midi": 60,
      "hit": false,
      "t": 40548.288000000066,
      "d": 266.1560000000027,
      "v": 97
    },
    {
      "midi": 52,
      "hit": false,
      "t": 40548.288000000066,
      "d": 289.3000000000029,
      "v": 108
    },
    {
      "midi": 57,
      "hit": false,
      "t": 40548.288000000066,
      "d": 289.3000000000029,
      "v": 104
    },
    {
      "midi": 41,
      "hit": false,
      "t": 40820.23000000007,
      "d": 121.50600000000122,
      "v": 86
    },
    {
      "midi": 41,
      "hit": false,
      "t": 41109.53000000007,
      "d": 630.6739999999991,
      "v": 95
    },
    {
      "midi": 60,
      "hit": false,
      "t": 41659.20000000007,
      "d": 381.87600000000384,
      "v": 98
    },
    {
      "midi": 52,
      "hit": false,
      "t": 41659.20000000007,
      "d": 393.44800000000396,
      "v": 110
    },
    {
      "midi": 57,
      "hit": false,
      "t": 41659.20000000007,
      "d": 393.44800000000396,
      "v": 100
    },
    {
      "midi": 41,
      "hit": false,
      "t": 41931.14200000007,
      "d": 295.08600000000297,
      "v": 94
    },
    {
      "midi": 43,
      "hit": false,
      "t": 42220.442000000075,
      "d": 642.2459999999992,
      "v": 97
    },
    {
      "midi": 55,
      "hit": false,
      "t": 42770.112000000074,
      "d": 179.3660000000018,
      "v": 102
    },
    {
      "midi": 50,
      "hit": false,
      "t": 42770.112000000074,
      "d": 190.93800000000192,
      "v": 106
    },
    {
      "midi": 59,
      "hit": false,
      "t": 42770.112000000074,
      "d": 190.93800000000192,
      "v": 92
    },
    {
      "midi": 43,
      "hit": false,
      "t": 43047.84000000008,
      "d": 109.9340000000011,
      "v": 88
    },
    {
      "midi": 59,
      "hit": false,
      "t": 43319.78200000008,
      "d": 1116.6979999999967,
      "v": 97
    },
    {
      "midi": 55,
      "hit": false,
      "t": 43319.78200000008,
      "d": 1139.841999999997,
      "v": 104
    },
    {
      "midi": 50,
      "hit": false,
      "t": 43319.78200000008,
      "d": 1151.413999999997,
      "v": 106
    },
    {
      "midi": 43,
      "hit": false,
      "t": 43325.56800000008,
      "d": 1110.9119999999966,
      "v": 102
    },
    {
      "midi": 41,
      "hit": false,
      "t": 44436.480000000076,
      "d": 555.4559999999983,
      "v": 102
    },
    {
      "midi": 53,
      "hit": false,
      "t": 44991.936000000074,
      "d": 416.5920000000042,
      "v": 108
    },
    {
      "midi": 57,
      "hit": false,
      "t": 44991.936000000074,
      "d": 416.5920000000042,
      "v": 94
    },
    {
      "midi": 48,
      "hit": false,
      "t": 44997.722000000074,
      "d": 393.44800000000396,
      "v": 104
    },
    {
      "midi": 41,
      "hit": false,
      "t": 45263.87800000008,
      "d": 121.50600000000122,
      "v": 86
    },
    {
      "midi": 41,
      "hit": false,
      "t": 45547.39200000008,
      "d": 595.9579999999987,
      "v": 95
    },
    {
      "midi": 48,
      "hit": false,
      "t": 46097.06200000008,
      "d": 335.5880000000034,
      "v": 110
    },
    {
      "midi": 57,
      "hit": false,
      "t": 46097.06200000008,
      "d": 335.5880000000034,
      "v": 100
    },
    {
      "midi": 53,
      "hit": false,
      "t": 46097.06200000008,
      "d": 347.1600000000035,
      "v": 108
    },
    {
      "midi": 41,
      "hit": false,
      "t": 46374.79000000008,
      "d": 277.7280000000028,
      "v": 86
    },
    {
      "midi": 43,
      "hit": false,
      "t": 46652.518000000084,
      "d": 277.7280000000028,
      "v": 106
    },
    {
      "midi": 43,
      "hit": false,
      "t": 46936.03200000009,
      "d": 179.3660000000018,
      "v": 72
    },
    {
      "midi": 55,
      "hit": false,
      "t": 47207.97400000009,
      "d": 202.51000000000204,
      "v": 95
    },
    {
      "midi": 59,
      "hit": false,
      "t": 47207.97400000009,
      "d": 202.51000000000204,
      "v": 88
    },
    {
      "midi": 50,
      "hit": false,
      "t": 47207.97400000009,
      "d": 225.65400000000227,
      "v": 104
    },
    {
      "midi": 50,
      "hit": false,
      "t": 47769.216000000095,
      "d": 1006.7640000000029,
      "v": 110
    },
    {
      "midi": 55,
      "hit": false,
      "t": 47769.216000000095,
      "d": 1029.908000000003,
      "v": 104
    },
    {
      "midi": 59,
      "hit": false,
      "t": 47769.216000000095,
      "d": 1029.908000000003,
      "v": 100
    },
    {
      "midi": 43,
      "hit": false,
      "t": 47780.788000000095,
      "d": 1058.8380000000034,
      "v": 112
    },
    {
      "midi": 41,
      "hit": false,
      "t": 48874.3420000001,
      "d": 665.3899999999994,
      "v": 92
    },
    {
      "midi": 57,
      "hit": false,
      "t": 49435.5840000001,
      "d": 347.1600000000035,
      "v": 100
    },
    {
      "midi": 52,
      "hit": false,
      "t": 49441.3700000001,
      "d": 324.01600000000326,
      "v": 108
    },
    {
      "midi": 60,
      "hit": false,
      "t": 49441.3700000001,
      "d": 324.01600000000326,
      "v": 92
    },
    {
      "midi": 41,
      "hit": false,
      "t": 49713.3120000001,
      "d": 109.9340000000011,
      "v": 80
    },
    {
      "midi": 41,
      "hit": false,
      "t": 49996.8260000001,
      "d": 584.3859999999986,
      "v": 102
    },
    {
      "midi": 52,
      "hit": false,
      "t": 50552.2820000001,
      "d": 335.5880000000034,
      "v": 104
    },
    {
      "midi": 57,
      "hit": false,
      "t": 50552.2820000001,
      "d": 335.5880000000034,
      "v": 100
    },
    {
      "midi": 60,
      "hit": false,
      "t": 50552.2820000001,
      "d": 335.5880000000034,
      "v": 88
    },
    {
      "midi": 41,
      "hit": false,
      "t": 50818.438000000104,
      "d": 277.7280000000028,
      "v": 91
    },
    {
      "midi": 43,
      "hit": false,
      "t": 51101.95200000011,
      "d": 867.9000000000015,
      "v": 106
    },
    {
      "midi": 55,
      "hit": false,
      "t": 51657.408000000105,
      "d": 167.7940000000017,
      "v": 87
    },
    {
      "midi": 59,
      "hit": false,
      "t": 51657.408000000105,
      "d": 190.93800000000192,
      "v": 78
    },
    {
      "midi": 50,
      "hit": false,
      "t": 51657.408000000105,
      "d": 214.08200000000215,
      "v": 98
    },
    {
      "midi": 43,
      "hit": false,
      "t": 52212.86400000011,
      "d": 914.1880000000019,
      "v": 97
    },
    {
      "midi": 50,
      "hit": false,
      "t": 52212.86400000011,
      "d": 1035.6940000000031,
      "v": 110
    },
    {
      "midi": 55,
      "hit": false,
      "t": 52212.86400000011,
      "d": 1035.6940000000031,
      "v": 104
    },
    {
      "midi": 59,
      "hit": false,
      "t": 52212.86400000011,
      "d": 1035.6940000000031,
      "v": 95
    },
    {
      "midi": 41,
      "hit": false,
      "t": 53317.990000000114,
      "d": 619.101999999999,
      "v": 91
    },
    {
      "midi": 53,
      "hit": false,
      "t": 53879.23200000011,
      "d": 318.2300000000032,
      "v": 106
    },
    {
      "midi": 48,
      "hit": false,
      "t": 53885.01800000011,
      "d": 329.8020000000033,
      "v": 106
    },
    {
      "midi": 57,
      "hit": false,
      "t": 53885.01800000011,
      "d": 329.8020000000033,
      "v": 98
    },
    {
      "midi": 41,
      "hit": false,
      "t": 54151.174000000115,
      "d": 144.65000000000146,
      "v": 86
    },
    {
      "midi": 41,
      "hit": false,
      "t": 54440.47400000012,
      "d": 642.2459999999992,
      "v": 95
    },
    {
      "midi": 48,
      "hit": false,
      "t": 54990.14400000012,
      "d": 312.44400000000314,
      "v": 104
    },
    {
      "midi": 53,
      "hit": false,
      "t": 54990.14400000012,
      "d": 312.44400000000314,
      "v": 104
    },
    {
      "midi": 57,
      "hit": false,
      "t": 54990.14400000012,
      "d": 312.44400000000314,
      "v": 98
    },
    {
      "midi": 41,
      "hit": false,
      "t": 55267.87200000012,
      "d": 277.7280000000028,
      "v": 81
    },
    {
      "midi": 43,
      "hit": false,
      "t": 55539.81400000012,
      "d": 700.1059999999998,
      "v": 98
    },
    {
      "midi": 55,
      "hit": false,
      "t": 56095.27000000012,
      "d": 202.51000000000204,
      "v": 97
    },
    {
      "midi": 50,
      "hit": false,
      "t": 56101.05600000012,
      "d": 190.93800000000192,
      "v": 106
    },
    {
      "midi": 59,
      "hit": false,
      "t": 56101.05600000012,
      "d": 190.93800000000192,
      "v": 90
    },
    {
      "midi": 43,
      "hit": false,
      "t": 56384.57000000012,
      "d": 75.21800000000076,
      "v": 94
    },
    {
      "midi": 50,
      "hit": false,
      "t": 56656.512000000126,
      "d": 989.4060000000027,
      "v": 110
    },
    {
      "midi": 55,
      "hit": false,
      "t": 56656.512000000126,
      "d": 1012.5500000000029,
      "v": 104
    },
    {
      "midi": 59,
      "hit": false,
      "t": 56656.512000000126,
      "d": 1012.5500000000029,
      "v": 102
    },
    {
      "midi": 43,
      "hit": false,
      "t": 56656.512000000126,
      "d": 1058.8380000000034,
      "v": 104
    },
    {
      "midi": 41,
      "hit": false,
      "t": 57761.63800000013,
      "d": 653.8179999999993,
      "v": 100
    },
    {
      "midi": 60,
      "hit": false,
      "t": 58317.09400000013,
      "d": 358.7320000000036,
      "v": 92
    },
    {
      "midi": 52,
      "hit": false,
      "t": 58322.88000000013,
      "d": 347.1600000000035,
      "v": 106
    },
    {
      "midi": 57,
      "hit": false,
      "t": 58322.88000000013,
      "d": 347.1600000000035,
      "v": 97
    },
    {
      "midi": 41,
      "hit": false,
      "t": 58600.60800000013,
      "d": 104.14800000000105,
      "v": 80
    },
    {
      "midi": 41,
      "hit": false,
      "t": 58872.550000000134,
      "d": 653.8179999999993,
      "v": 97
    },
    {
      "midi": 60,
      "hit": false,
      "t": 59433.79200000013,
      "d": 393.44800000000396,
      "v": 92
    },
    {
      "midi": 57,
      "hit": false,
      "t": 59433.79200000013,
      "d": 405.0200000000041,
      "v": 100
    },
    {
      "midi": 52,
      "hit": false,
      "t": 59433.79200000013,
      "d": 416.5920000000042,
      "v": 106
    },
    {
      "midi": 41,
      "hit": false,
      "t": 59711.520000000135,
      "d": 283.51400000000285,
      "v": 87
    },
    {
      "midi": 43,
      "hit": false,
      "t": 59989.24800000014,
      "d": 653.8179999999993,
      "v": 100
    },
    {
      "midi": 55,
      "hit": false,
      "t": 60538.918000000136,
      "d": 190.93800000000192,
      "v": 92
    },
    {
      "midi": 50,
      "hit": false,
      "t": 60538.918000000136,
      "d": 214.08200000000215,
      "v": 100
    },
    {
      "midi": 59,
      "hit": false,
      "t": 60544.704000000136,
      "d": 167.7940000000017,
      "v": 85
    },
    {
      "midi": 43,
      "hit": false,
      "t": 60828.21800000014,
      "d": 109.9340000000011,
      "v": 84
    },
    {
      "midi": 55,
      "hit": false,
      "t": 61094.37400000014,
      "d": 1093.5540000000037,
      "v": 104
    },
    {
      "midi": 50,
      "hit": false,
      "t": 61094.37400000014,
      "d": 1116.698000000004,
      "v": 110
    },
    {
      "midi": 59,
      "hit": false,
      "t": 61094.37400000014,
      "d": 1116.698000000004,
      "v": 102
    },
    {
      "midi": 43,
      "hit": false,
      "t": 61105.94600000014,
      "d": 1081.9820000000036,
      "v": 104
    },
    {
      "midi": 41,
      "hit": false,
      "t": 62205.286000000146,
      "d": 688.5339999999997,
      "v": 100
    },
    {
      "midi": 53,
      "hit": false,
      "t": 62772.314000000144,
      "d": 347.1600000000035,
      "v": 104
    },
    {
      "midi": 57,
      "hit": false,
      "t": 62772.314000000144,
      "d": 347.1600000000035,
      "v": 94
    },
    {
      "midi": 48,
      "hit": false,
      "t": 62772.314000000144,
      "d": 370.3040000000037,
      "v": 106
    },
    {
      "midi": 41,
      "hit": false,
      "t": 63044.25600000015,
      "d": 98.36200000000099,
      "v": 83
    },
    {
      "midi": 41,
      "hit": false,
      "t": 63321.98400000015,
      "d": 642.2459999999992,
      "v": 95
    },
    {
      "midi": 48,
      "hit": false,
      "t": 63877.44000000015,
      "d": 312.44400000000314,
      "v": 104
    },
    {
      "midi": 53,
      "hit": false,
      "t": 63877.44000000015,
      "d": 324.01600000000326,
      "v": 104
    },
    {
      "midi": 57,
      "hit": false,
      "t": 63877.44000000015,
      "d": 324.01600000000326,
      "v": 92
    },
    {
      "midi": 41,
      "hit": false,
      "t": 64155.16800000015,
      "d": 277.7280000000028,
      "v": 92
    },
    {
      "midi": 43,
      "hit": false,
      "t": 64432.89600000015,
      "d": 607.5299999999988,
      "v": 102
    },
    {
      "midi": 55,
      "hit": false,
      "t": 64988.35200000015,
      "d": 179.3660000000018,
      "v": 91
    },
    {
      "midi": 50,
      "hit": false,
      "t": 64988.35200000015,
      "d": 190.93800000000192,
      "v": 100
    },
    {
      "midi": 59,
      "hit": false,
      "t": 64988.35200000015,
      "d": 190.93800000000192,
      "v": 83
    },
    {
      "midi": 43,
      "hit": false,
      "t": 65266.080000000155,
      "d": 86.79000000000087,
      "v": 104
    },
    {
      "midi": 43,
      "hit": false,
      "t": 65538.02200000016,
      "d": 1105.1259999999893,
      "v": 102
    },
    {
      "midi": 50,
      "hit": false,
      "t": 65543.80800000015,
      "d": 937.3319999999949,
      "v": 110
    },
    {
      "midi": 55,
      "hit": false,
      "t": 65543.80800000015,
      "d": 937.3319999999949,
      "v": 104
    },
    {
      "midi": 59,
      "hit": false,
      "t": 65543.80800000015,
      "d": 937.3319999999949,
      "v": 102
    },
    {
      "midi": 41,
      "hit": false,
      "t": 66648.93400000014,
      "d": 653.8179999999993,
      "v": 95
    },
    {
      "midi": 57,
      "hit": false,
      "t": 67204.39000000014,
      "d": 260.36999999999534,
      "v": 102
    },
    {
      "midi": 60,
      "hit": false,
      "t": 67204.39000000014,
      "d": 260.36999999999534,
      "v": 98
    },
    {
      "midi": 52,
      "hit": false,
      "t": 67204.39000000014,
      "d": 283.5139999999956,
      "v": 110
    },
    {
      "midi": 41,
      "hit": false,
      "t": 67493.69000000013,
      "d": 109.93399999999383,
      "v": 94
    },
    {
      "midi": 41,
      "hit": false,
      "t": 67771.41800000012,
      "d": 653.8179999999993,
      "v": 94
    },
    {
      "midi": 57,
      "hit": false,
      "t": 68315.30200000013,
      "d": 370.3039999999892,
      "v": 98
    },
    {
      "midi": 60,
      "hit": false,
      "t": 68315.30200000013,
      "d": 370.3039999999892,
      "v": 92
    },
    {
      "midi": 52,
      "hit": false,
      "t": 68315.30200000013,
      "d": 393.4479999999894,
      "v": 108
    },
    {
      "midi": 41,
      "hit": false,
      "t": 68593.03000000012,
      "d": 277.7280000000028,
      "v": 88
    },
    {
      "midi": 43,
      "hit": false,
      "t": 68876.54400000011,
      "d": 653.8179999999993,
      "v": 100
    },
    {
      "midi": 55,
      "hit": false,
      "t": 69432.00000000012,
      "d": 237.2259999999951,
      "v": 92
    },
    {
      "midi": 59,
      "hit": false,
      "t": 69432.00000000012,
      "d": 237.2259999999951,
      "v": 90
    },
    {
      "midi": 50,
      "hit": false,
      "t": 69432.00000000012,
      "d": 260.36999999999534,
      "v": 100
    },
    {
      "midi": 43,
      "hit": false,
      "t": 69715.51400000011,
      "d": 109.93399999999383,
      "v": 86
    },
    {
      "midi": 50,
      "hit": false,
      "t": 69987.45600000011,
      "d": 1070.409999999989,
      "v": 106
    },
    {
      "midi": 55,
      "hit": false,
      "t": 69987.45600000011,
      "d": 1070.409999999989,
      "v": 102
    },
    {
      "midi": 59,
      "hit": false,
      "t": 69987.45600000011,
      "d": 1070.409999999989,
      "v": 97
    },
    {
      "midi": 43,
      "hit": false,
      "t": 69993.2420000001,
      "d": 1093.5539999999892,
      "v": 106
    },
    {
      "midi": 41,
      "hit": false,
      "t": 71098.36800000009,
      "d": 619.101999999999,
      "v": 100
    },
    {
      "midi": 53,
      "hit": false,
      "t": 71653.8240000001,
      "d": 381.8759999999893,
      "v": 104
    },
    {
      "midi": 57,
      "hit": false,
      "t": 71653.8240000001,
      "d": 381.8759999999893,
      "v": 90
    },
    {
      "midi": 48,
      "hit": false,
      "t": 71653.8240000001,
      "d": 405.01999999997497,
      "v": 102
    },
    {
      "midi": 41,
      "hit": false,
      "t": 71931.55200000008,
      "d": 109.93399999999383,
      "v": 90
    },
    {
      "midi": 41,
      "hit": false,
      "t": 72215.06600000006,
      "d": 653.8179999999993,
      "v": 97
    },
    {
      "midi": 48,
      "hit": false,
      "t": 72758.95000000007,
      "d": 335.5879999999888,
      "v": 108
    },
    {
      "midi": 53,
      "hit": false,
      "t": 72758.95000000007,
      "d": 335.5879999999888,
      "v": 108
    },
    {
      "midi": 57,
      "hit": false,
      "t": 72758.95000000007,
      "d": 335.5879999999888,
      "v": 98
    },
    {
      "midi": 41,
      "hit": false,
      "t": 73042.46400000007,
      "d": 277.72799999998824,
      "v": 87
    },
    {
      "midi": 43,
      "hit": false,
      "t": 73331.76400000005,
      "d": 607.5299999999988,
      "v": 100
    },
    {
      "midi": 55,
      "hit": false,
      "t": 73875.64800000006,
      "d": 202.50999999999476,
      "v": 100
    },
    {
      "midi": 59,
      "hit": false,
      "t": 73875.64800000006,
      "d": 202.50999999999476,
      "v": 92
    },
    {
      "midi": 50,
      "hit": false,
      "t": 73875.64800000006,
      "d": 225.653999999995,
      "v": 104
    },
    {
      "midi": 43,
      "hit": false,
      "t": 74159.16200000005,
      "d": 86.7899999999936,
      "v": 92
    },
    {
      "midi": 50,
      "hit": false,
      "t": 74425.31800000004,
      "d": 948.903999999995,
      "v": 110
    },
    {
      "midi": 55,
      "hit": false,
      "t": 74425.31800000004,
      "d": 972.0479999999952,
      "v": 104
    },
    {
      "midi": 59,
      "hit": false,
      "t": 74425.31800000004,
      "d": 972.0479999999952,
      "v": 100
    },
    {
      "midi": 43,
      "hit": false,
      "t": 74431.10400000004,
      "d": 1110.9119999999966,
      "v": 104
    },
    {
      "midi": 41,
      "hit": false,
      "t": 75542.01600000003,
      "d": 630.6739999999991,
      "v": 98
    },
    {
      "midi": 52,
      "hit": false,
      "t": 76103.25800000003,
      "d": 428.16399999998976,
      "v": 106
    },
    {
      "midi": 60,
      "hit": false,
      "t": 76103.25800000003,
      "d": 428.16399999998976,
      "v": 71
    },
    {
      "midi": 57,
      "hit": false,
      "t": 76103.25800000003,
      "d": 439.7359999999899,
      "v": 100
    },
    {
      "midi": 41,
      "hit": false,
      "t": 76369.41400000003,
      "d": 109.93399999999383,
      "v": 83
    },
    {
      "midi": 41,
      "hit": false,
      "t": 76652.92800000001,
      "d": 821.6119999999937,
      "v": 98
    },
    {
      "midi": 57,
      "hit": false,
      "t": 77202.59800000001,
      "d": 381.8759999999893,
      "v": 97
    },
    {
      "midi": 60,
      "hit": false,
      "t": 77202.59800000001,
      "d": 381.8759999999893,
      "v": 95
    },
    {
      "midi": 52,
      "hit": false,
      "t": 77202.59800000001,
      "d": 405.0199999999895,
      "v": 104
    },
    {
      "midi": 41,
      "hit": false,
      "t": 77503.47,
      "d": 167.7939999999944,
      "v": 87
    },
    {
      "midi": 43,
      "hit": false,
      "t": 77763.84,
      "d": 653.8179999999993,
      "v": 104
    },
    {
      "midi": 55,
      "hit": false,
      "t": 78325.082,
      "d": 156.2219999999943,
      "v": 91
    },
    {
      "midi": 50,
      "hit": false,
      "t": 78325.082,
      "d": 179.36599999999453,
      "v": 100
    },
    {
      "midi": 59,
      "hit": false,
      "t": 78325.082,
      "d": 179.36599999999453,
      "v": 92
    },
    {
      "midi": 43,
      "hit": false,
      "t": 78597.02399999999,
      "d": 98.36199999999371,
      "v": 73
    },
    {
      "midi": 50,
      "hit": false,
      "t": 78868.96599999999,
      "d": 1116.6979999999894,
      "v": 108
    },
    {
      "midi": 55,
      "hit": false,
      "t": 78868.96599999999,
      "d": 1116.6979999999894,
      "v": 104
    },
    {
      "midi": 59,
      "hit": false,
      "t": 78868.96599999999,
      "d": 1116.6979999999894,
      "v": 98
    },
    {
      "midi": 43,
      "hit": false,
      "t": 78874.75199999998,
      "d": 1110.9119999999966,
      "v": 98
    },
    {
      "midi": 41,
      "hit": false,
      "t": 79985.66399999998,
      "d": 642.2459999999992,
      "v": 92
    },
    {
      "midi": 48,
      "hit": false,
      "t": 80535.33399999997,
      "d": 393.4479999999894,
      "v": 104
    },
    {
      "midi": 53,
      "hit": false,
      "t": 80535.33399999997,
      "d": 393.4479999999894,
      "v": 102
    },
    {
      "midi": 57,
      "hit": false,
      "t": 80535.33399999997,
      "d": 393.4479999999894,
      "v": 97
    },
    {
      "midi": 41,
      "hit": false,
      "t": 80813.06199999998,
      "d": 109.93399999999383,
      "v": 85
    },
    {
      "midi": 41,
      "hit": false,
      "t": 81096.57599999996,
      "d": 642.2459999999992,
      "v": 98
    },
    {
      "midi": 48,
      "hit": false,
      "t": 81652.03199999996,
      "d": 428.16399999998976,
      "v": 108
    },
    {
      "midi": 53,
      "hit": false,
      "t": 81652.03199999996,
      "d": 428.16399999998976,
      "v": 104
    },
    {
      "midi": 57,
      "hit": false,
      "t": 81652.03199999996,
      "d": 428.16399999998976,
      "v": 98
    },
    {
      "midi": 41,
      "hit": false,
      "t": 81923.97399999996,
      "d": 277.72799999998824,
      "v": 91
    },
    {
      "midi": 43,
      "hit": false,
      "t": 82201.70199999995,
      "d": 676.961999999985,
      "v": 100
    },
    {
      "midi": 55,
      "hit": false,
      "t": 82762.94399999994,
      "d": 190.9379999999801,
      "v": 100
    },
    {
      "midi": 59,
      "hit": false,
      "t": 82768.72999999994,
      "d": 167.7939999999944,
      "v": 91
    },
    {
      "midi": 50,
      "hit": false,
      "t": 82768.72999999994,
      "d": 179.36599999999453,
      "v": 102
    },
    {
      "midi": 43,
      "hit": false,
      "t": 83052.24399999992,
      "d": 81.00400000000081,
      "v": 90
    },
    {
      "midi": 50,
      "hit": false,
      "t": 83312.61399999991,
      "d": 416.5920000000042,
      "v": 108
    },
    {
      "midi": 55,
      "hit": false,
      "t": 83312.61399999991,
      "d": 439.7360000000044,
      "v": 104
    },
    {
      "midi": 59,
      "hit": false,
      "t": 83312.61399999991,
      "d": 451.30800000000454,
      "v": 92
    },
    {
      "midi": 43,
      "hit": false,
      "t": 83324.18599999991,
      "d": 1081.9820000000036,
      "v": 97
    },
    {
      "midi": 64,
      "hit": false,
      "t": 84435.09799999991,
      "d": 156.2219999999943,
      "v": 86
    },
    {
      "midi": 57,
      "hit": false,
      "t": 84435.09799999991,
      "d": 167.7939999999944,
      "v": 98
    },
    {
      "midi": 41,
      "hit": false,
      "t": 84435.09799999991,
      "d": 179.36599999999453,
      "v": 104
    },
    {
      "midi": 53,
      "hit": false,
      "t": 84435.09799999991,
      "d": 202.50999999999476,
      "v": 108
    },
    {
      "midi": 60,
      "hit": false,
      "t": 84435.09799999991,
      "d": 202.50999999999476,
      "v": 95
    },
    {
      "midi": 41,
      "hit": false,
      "t": 84984.76799999991,
      "d": 1186.12999999999,
      "v": 110
    },
    {
      "midi": 57,
      "hit": false,
      "t": 84990.5539999999,
      "d": 1203.4879999999976,
      "v": 102
    },
    {
      "midi": 53,
      "hit": false,
      "t": 84990.5539999999,
      "d": 1215.0599999999977,
      "v": 112
    },
    {
      "midi": 60,
      "hit": false,
      "t": 84990.5539999999,
      "d": 1215.0599999999977,
      "v": 94
    },
    {
      "midi": 64,
      "hit": false,
      "t": 84990.5539999999,
      "d": 1215.0599999999977,
      "v": 88
    },
    {
      "midi": 41,
      "hit": false,
      "t": 86373.4079999999,
      "d": 271.94199999999546,
      "v": 110
    },
    {
      "midi": 57,
      "hit": false,
      "t": 86384.9799999999,
      "d": 75.21799999999348,
      "v": 98
    },
    {
      "midi": 53,
      "hit": false,
      "t": 86384.9799999999,
      "d": 109.93399999999383,
      "v": 122
    },
    {
      "midi": 60,
      "hit": false,
      "t": 86384.9799999999,
      "d": 109.93399999999383,
      "v": 95
    },
    {
      "midi": 64,
      "hit": false,
      "t": 86384.9799999999,
      "d": 133.07799999999406,
      "v": 98
    },
    {
      "midi": 43,
      "hit": false,
      "t": 86923.07799999989,
      "d": 271.94199999999546,
      "v": 114
    },
    {
      "midi": 57,
      "hit": false,
      "t": 87206.59199999989,
      "d": 190.93799999999464,
      "v": 87
    },
    {
      "midi": 60,
      "hit": false,
      "t": 87206.59199999989,
      "d": 202.50999999999476,
      "v": 72
    },
    {
      "midi": 53,
      "hit": false,
      "t": 87206.59199999989,
      "d": 225.653999999995,
      "v": 100
    },
    {
      "midi": 64,
      "hit": false,
      "t": 87206.59199999989,
      "d": 225.653999999995,
      "v": 88
    },
    {
      "midi": 43,
      "hit": false,
      "t": 87478.53399999988,
      "d": 86.7899999999936,
      "v": 92
    },
    {
      "midi": 43,
      "hit": false,
      "t": 87756.26199999987,
      "d": 914.1879999999655,
      "v": 114
    },
    {
      "midi": 53,
      "hit": false,
      "t": 87762.04799999986,
      "d": 902.61599999998,
      "v": 110
    },
    {
      "midi": 60,
      "hit": false,
      "t": 87762.04799999986,
      "d": 914.1879999999655,
      "v": 98
    },
    {
      "midi": 64,
      "hit": false,
      "t": 87767.83399999986,
      "d": 879.4719999999943,
      "v": 97
    },
    {
      "midi": 57,
      "hit": false,
      "t": 87767.83399999986,
      "d": 891.0439999999944,
      "v": 97
    },
    {
      "midi": 41,
      "hit": false,
      "t": 88867.17399999982,
      "d": 225.6539999999659,
      "v": 98
    },
    {
      "midi": 53,
      "hit": false,
      "t": 88872.95999999982,
      "d": 156.22199999997974,
      "v": 92
    },
    {
      "midi": 57,
      "hit": false,
      "t": 88878.74599999981,
      "d": 109.93399999999383,
      "v": 83
    },
    {
      "midi": 64,
      "hit": false,
      "t": 88878.74599999981,
      "d": 121.50599999999395,
      "v": 84
    },
    {
      "midi": 60,
      "hit": false,
      "t": 88878.74599999981,
      "d": 133.07799999999406,
      "v": 86
    },
    {
      "midi": 64,
      "hit": false,
      "t": 89434.20199999979,
      "d": 1151.4140000000043,
      "v": 98
    },
    {
      "midi": 41,
      "hit": false,
      "t": 89434.20199999979,
      "d": 1162.9860000000044,
      "v": 100
    },
    {
      "midi": 53,
      "hit": false,
      "t": 89434.20199999979,
      "d": 1162.9860000000044,
      "v": 110
    },
    {
      "midi": 57,
      "hit": false,
      "t": 89434.20199999979,
      "d": 1162.9860000000044,
      "v": 104
    },
    {
      "midi": 60,
      "hit": false,
      "t": 89434.20199999979,
      "d": 1162.9860000000044,
      "v": 100
    },
    {
      "midi": 41,
      "hit": false,
      "t": 90817.0559999998,
      "d": 271.9419999999809,
      "v": 114
    },
    {
      "midi": 60,
      "hit": false,
      "t": 90822.84199999979,
      "d": 225.653999999995,
      "v": 92
    },
    {
      "midi": 64,
      "hit": false,
      "t": 90822.84199999979,
      "d": 237.2259999999951,
      "v": 88
    },
    {
      "midi": 112,
      "hit": false,
      "t": 90822.84199999979,
      "d": 50708.503999999186,
      "v": 57
    },
    {
      "midi": 43,
      "hit": false,
      "t": 91372.51199999977,
      "d": 237.2259999999951,
      "v": 96
    },
    {
      "midi": 55,
      "hit": false,
      "t": 91644.45399999977,
      "d": 133.07799999999406,
      "v": 87
    },
    {
      "midi": 59,
      "hit": false,
      "t": 91644.45399999977,
      "d": 144.64999999999418,
      "v": 66
    },
    {
      "midi": 62,
      "hit": false,
      "t": 91644.45399999977,
      "d": 167.7939999999944,
      "v": 87
    },
    {
      "midi": 53,
      "hit": false,
      "t": 91644.45399999977,
      "d": 179.36599999999453,
      "v": 98
    },
    {
      "midi": 43,
      "hit": false,
      "t": 91916.39599999976,
      "d": 86.7899999999936,
      "v": 96
    },
    {
      "midi": 43,
      "hit": false,
      "t": 92194.12399999975,
      "d": 1035.693999999974,
      "v": 117
    },
    {
      "midi": 53,
      "hit": false,
      "t": 92199.90999999974,
      "d": 844.7559999999794,
      "v": 117
    },
    {
      "midi": 59,
      "hit": false,
      "t": 92199.90999999974,
      "d": 856.3279999999795,
      "v": 104
    },
    {
      "midi": 62,
      "hit": false,
      "t": 92199.90999999974,
      "d": 856.3279999999795,
      "v": 97
    },
    {
      "midi": 55,
      "hit": false,
      "t": 92205.69599999973,
      "d": 821.6119999999937,
      "v": 100
    },
    {
      "midi": 41,
      "hit": false,
      "t": 93322.39399999972,
      "d": 214.08199999999488,
      "v": 100
    },
    {
      "midi": 57,
      "hit": false,
      "t": 93866.27799999971,
      "d": 960.4759999999806,
      "v": 92
    },
    {
      "midi": 53,
      "hit": false,
      "t": 93866.27799999971,
      "d": 972.0479999999661,
      "v": 102
    },
    {
      "midi": 60,
      "hit": false,
      "t": 93866.27799999971,
      "d": 972.0479999999661,
      "v": 92
    },
    {
      "midi": 64,
      "hit": false,
      "t": 93872.06399999971,
      "d": 960.4759999999806,
      "v": 94
    },
    {
      "midi": 41,
      "hit": false,
      "t": 93877.8499999997,
      "d": 1139.841999999975,
      "v": 108
    },
    {
      "midi": 41,
      "hit": false,
      "t": 95260.70399999968,
      "d": 277.72799999998824,
      "v": 117
    },
    {
      "midi": 57,
      "hit": false,
      "t": 95266.48999999967,
      "d": 98.36199999999371,
      "v": 97
    },
    {
      "midi": 60,
      "hit": false,
      "t": 95266.48999999967,
      "d": 109.93399999999383,
      "v": 85
    },
    {
      "midi": 53,
      "hit": false,
      "t": 95266.48999999967,
      "d": 133.07799999999406,
      "v": 106
    },
    {
      "midi": 64,
      "hit": false,
      "t": 95266.48999999967,
      "d": 133.07799999999406,
      "v": 95
    },
    {
      "midi": 43,
      "hit": false,
      "t": 95538.43199999967,
      "d": 277.7280000000028,
      "v": 102
    },
    {
      "midi": 43,
      "hit": false,
      "t": 96093.88799999967,
      "d": 1342.351999999999,
      "v": 122
    },
    {
      "midi": 64,
      "hit": false,
      "t": 96093.88799999967,
      "d": 1377.0679999999993,
      "v": 97
    },
    {
      "midi": 53,
      "hit": false,
      "t": 96093.88799999967,
      "d": 1388.6399999999994,
      "v": 112
    },
    {
      "midi": 57,
      "hit": false,
      "t": 96093.88799999967,
      "d": 1388.6399999999994,
      "v": 102
    },
    {
      "midi": 60,
      "hit": false,
      "t": 96093.88799999967,
      "d": 1388.6399999999994,
      "v": 97
    },
    {
      "midi": 60,
      "hit": false,
      "t": 97754.46999999967,
      "d": 190.9379999999801,
      "v": 92
    },
    {
      "midi": 53,
      "hit": false,
      "t": 97754.46999999967,
      "d": 214.08199999998033,
      "v": 100
    },
    {
      "midi": 41,
      "hit": false,
      "t": 97754.46999999967,
      "d": 225.65399999998044,
      "v": 100
    },
    {
      "midi": 57,
      "hit": false,
      "t": 97760.25599999966,
      "d": 179.36599999999453,
      "v": 91
    },
    {
      "midi": 64,
      "hit": false,
      "t": 97760.25599999966,
      "d": 179.36599999999453,
      "v": 90
    },
    {
      "midi": 53,
      "hit": false,
      "t": 98315.71199999965,
      "d": 1128.270000000004,
      "v": 110
    },
    {
      "midi": 57,
      "hit": false,
      "t": 98315.71199999965,
      "d": 1128.270000000004,
      "v": 104
    },
    {
      "midi": 64,
      "hit": false,
      "t": 98315.71199999965,
      "d": 1128.270000000004,
      "v": 100
    },
    {
      "midi": 60,
      "hit": false,
      "t": 98315.71199999965,
      "d": 1139.8420000000042,
      "v": 102
    },
    {
      "midi": 41,
      "hit": false,
      "t": 98315.71199999965,
      "d": 1151.4140000000043,
      "v": 110
    },
    {
      "midi": 41,
      "hit": false,
      "t": 99698.56599999966,
      "d": 260.36999999999534,
      "v": 112
    },
    {
      "midi": 57,
      "hit": false,
      "t": 99710.13799999966,
      "d": 121.50599999999395,
      "v": 98
    },
    {
      "midi": 64,
      "hit": false,
      "t": 99710.13799999966,
      "d": 121.50599999999395,
      "v": 90
    },
    {
      "midi": 60,
      "hit": false,
      "t": 99710.13799999966,
      "d": 144.64999999999418,
      "v": 95
    },
    {
      "midi": 53,
      "hit": false,
      "t": 99710.13799999966,
      "d": 156.2219999999943,
      "v": 110
    },
    {
      "midi": 43,
      "hit": false,
      "t": 100259.80799999966,
      "d": 260.36999999999534,
      "v": 122
    },
    {
      "midi": 53,
      "hit": false,
      "t": 100525.96399999964,
      "d": 214.08199999998033,
      "v": 102
    },
    {
      "midi": 57,
      "hit": false,
      "t": 100531.74999999964,
      "d": 167.7939999999944,
      "v": 95
    },
    {
      "midi": 64,
      "hit": false,
      "t": 100531.74999999964,
      "d": 167.7939999999944,
      "v": 88
    },
    {
      "midi": 60,
      "hit": false,
      "t": 100531.74999999964,
      "d": 190.93799999999464,
      "v": 91
    },
    {
      "midi": 43,
      "hit": false,
      "t": 100815.26399999962,
      "d": 98.36199999999371,
      "v": 90
    },
    {
      "midi": 43,
      "hit": false,
      "t": 101087.20599999961,
      "d": 867.8999999999796,
      "v": 114
    },
    {
      "midi": 53,
      "hit": false,
      "t": 101092.9919999996,
      "d": 821.6119999999937,
      "v": 110
    },
    {
      "midi": 57,
      "hit": false,
      "t": 101092.9919999996,
      "d": 821.6119999999937,
      "v": 100
    },
    {
      "midi": 60,
      "hit": false,
      "t": 101092.9919999996,
      "d": 821.6119999999937,
      "v": 97
    },
    {
      "midi": 64,
      "hit": false,
      "t": 101092.9919999996,
      "d": 821.6119999999937,
      "v": 95
    },
    {
      "midi": 41,
      "hit": false,
      "t": 102198.1179999996,
      "d": 202.5099999999802,
      "v": 100
    },
    {
      "midi": 57,
      "hit": false,
      "t": 102203.90399999959,
      "d": 167.7939999999944,
      "v": 94
    },
    {
      "midi": 64,
      "hit": false,
      "t": 102203.90399999959,
      "d": 179.36599999999453,
      "v": 91
    },
    {
      "midi": 60,
      "hit": false,
      "t": 102203.90399999959,
      "d": 190.93799999999464,
      "v": 92
    },
    {
      "midi": 53,
      "hit": false,
      "t": 102203.90399999959,
      "d": 214.08199999998033,
      "v": 102
    },
    {
      "midi": 53,
      "hit": false,
      "t": 102759.35999999956,
      "d": 1093.5540000000037,
      "v": 110
    },
    {
      "midi": 57,
      "hit": false,
      "t": 102759.35999999956,
      "d": 1093.5540000000037,
      "v": 100
    },
    {
      "midi": 64,
      "hit": false,
      "t": 102759.35999999956,
      "d": 1093.5540000000037,
      "v": 95
    },
    {
      "midi": 60,
      "hit": false,
      "t": 102759.35999999956,
      "d": 1105.1260000000038,
      "v": 102
    },
    {
      "midi": 41,
      "hit": false,
      "t": 102759.35999999956,
      "d": 1139.8420000000042,
      "v": 102
    },
    {
      "midi": 41,
      "hit": false,
      "t": 104142.21399999957,
      "d": 271.9419999999809,
      "v": 102
    },
    {
      "midi": 57,
      "hit": false,
      "t": 104147.99999999956,
      "d": 144.64999999999418,
      "v": 104
    },
    {
      "midi": 64,
      "hit": false,
      "t": 104147.99999999956,
      "d": 156.2219999999943,
      "v": 92
    },
    {
      "midi": 60,
      "hit": false,
      "t": 104147.99999999956,
      "d": 167.7939999999944,
      "v": 98
    },
    {
      "midi": 53,
      "hit": false,
      "t": 104147.99999999956,
      "d": 179.36599999999453,
      "v": 114
    },
    {
      "midi": 43,
      "hit": false,
      "t": 104703.45599999955,
      "d": 283.5139999999956,
      "v": 112
    },
    {
      "midi": 55,
      "hit": false,
      "t": 104975.39799999955,
      "d": 202.50999999999476,
      "v": 95
    },
    {
      "midi": 62,
      "hit": false,
      "t": 104975.39799999955,
      "d": 202.50999999999476,
      "v": 86
    },
    {
      "midi": 59,
      "hit": false,
      "t": 104975.39799999955,
      "d": 214.08199999999488,
      "v": 90
    },
    {
      "midi": 53,
      "hit": false,
      "t": 104975.39799999955,
      "d": 225.653999999995,
      "v": 102
    },
    {
      "midi": 53,
      "hit": false,
      "t": 105530.85399999954,
      "d": 867.8999999999942,
      "v": 112
    },
    {
      "midi": 55,
      "hit": false,
      "t": 105530.85399999954,
      "d": 867.8999999999942,
      "v": 104
    },
    {
      "midi": 59,
      "hit": false,
      "t": 105530.85399999954,
      "d": 867.8999999999942,
      "v": 104
    },
    {
      "midi": 62,
      "hit": false,
      "t": 105530.85399999954,
      "d": 867.8999999999942,
      "v": 102
    },
    {
      "midi": 43,
      "hit": false,
      "t": 105542.42599999954,
      "d": 844.755999999994,
      "v": 117
    },
    {
      "midi": 60,
      "hit": false,
      "t": 106647.55199999953,
      "d": 179.36599999997998,
      "v": 83
    },
    {
      "midi": 53,
      "hit": false,
      "t": 106647.55199999953,
      "d": 214.08199999996577,
      "v": 88
    },
    {
      "midi": 41,
      "hit": false,
      "t": 106647.55199999953,
      "d": 237.225999999966,
      "v": 102
    },
    {
      "midi": 57,
      "hit": false,
      "t": 106653.33799999952,
      "d": 156.2219999999943,
      "v": 66
    },
    {
      "midi": 64,
      "hit": false,
      "t": 106653.33799999952,
      "d": 179.36599999997998,
      "v": 80
    },
    {
      "midi": 41,
      "hit": false,
      "t": 107197.2219999995,
      "d": 1220.8459999999905,
      "v": 102
    },
    {
      "midi": 64,
      "hit": false,
      "t": 107203.00799999949,
      "d": 1070.4100000000035,
      "v": 97
    },
    {
      "midi": 53,
      "hit": false,
      "t": 107203.00799999949,
      "d": 1093.5540000000037,
      "v": 110
    },
    {
      "midi": 57,
      "hit": false,
      "t": 107203.00799999949,
      "d": 1093.5540000000037,
      "v": 97
    },
    {
      "midi": 60,
      "hit": false,
      "t": 107203.00799999949,
      "d": 1093.5540000000037,
      "v": 95
    },
    {
      "midi": 41,
      "hit": false,
      "t": 108585.86199999948,
      "d": 248.79799999998068,
      "v": 108
    },
    {
      "midi": 57,
      "hit": false,
      "t": 108591.64799999948,
      "d": 283.513999999981,
      "v": 100
    },
    {
      "midi": 60,
      "hit": false,
      "t": 108591.64799999948,
      "d": 283.513999999981,
      "v": 94
    },
    {
      "midi": 53,
      "hit": false,
      "t": 108591.64799999948,
      "d": 306.6579999999667,
      "v": 108
    },
    {
      "midi": 64,
      "hit": false,
      "t": 108597.43399999947,
      "d": 283.513999999981,
      "v": 94
    },
    {
      "midi": 43,
      "hit": false,
      "t": 109141.31799999945,
      "d": 248.79799999999523,
      "v": 114
    },
    {
      "midi": 57,
      "hit": false,
      "t": 109419.04599999943,
      "d": 202.5099999999802,
      "v": 88
    },
    {
      "midi": 53,
      "hit": false,
      "t": 109419.04599999943,
      "d": 214.08199999998033,
      "v": 95
    },
    {
      "midi": 64,
      "hit": false,
      "t": 109419.04599999943,
      "d": 214.08199999998033,
      "v": 91
    },
    {
      "midi": 60,
      "hit": false,
      "t": 109424.83199999943,
      "d": 156.2219999999943,
      "v": 75
    },
    {
      "midi": 43,
      "hit": false,
      "t": 109702.55999999942,
      "d": 75.21799999999348,
      "v": 102
    },
    {
      "midi": 57,
      "hit": false,
      "t": 109974.50199999941,
      "d": 792.6820000000007,
      "v": 98
    },
    {
      "midi": 64,
      "hit": false,
      "t": 109974.50199999941,
      "d": 792.6820000000007,
      "v": 97
    },
    {
      "midi": 53,
      "hit": false,
      "t": 109974.50199999941,
      "d": 804.2540000000008,
      "v": 108
    },
    {
      "midi": 60,
      "hit": false,
      "t": 109974.50199999941,
      "d": 804.2540000000008,
      "v": 102
    },
    {
      "midi": 43,
      "hit": false,
      "t": 109974.50199999941,
      "d": 937.3319999999949,
      "v": 112
    },
    {
      "midi": 64,
      "hit": false,
      "t": 111085.41399999941,
      "d": 202.50999999999476,
      "v": 84
    },
    {
      "midi": 53,
      "hit": false,
      "t": 111085.41399999941,
      "d": 214.08199999999488,
      "v": 92
    },
    {
      "midi": 57,
      "hit": false,
      "t": 111085.41399999941,
      "d": 214.08199999999488,
      "v": 87
    },
    {
      "midi": 60,
      "hit": false,
      "t": 111085.41399999941,
      "d": 214.08199999999488,
      "v": 86
    },
    {
      "midi": 41,
      "hit": false,
      "t": 111096.98599999941,
      "d": 260.36999999999534,
      "v": 102
    },
    {
      "midi": 53,
      "hit": false,
      "t": 111640.8699999994,
      "d": 1116.6979999999749,
      "v": 110
    },
    {
      "midi": 60,
      "hit": false,
      "t": 111646.65599999939,
      "d": 1093.5539999999892,
      "v": 95
    },
    {
      "midi": 57,
      "hit": false,
      "t": 111646.65599999939,
      "d": 1105.1259999999893,
      "v": 100
    },
    {
      "midi": 64,
      "hit": false,
      "t": 111646.65599999939,
      "d": 1105.1259999999893,
      "v": 97
    },
    {
      "midi": 41,
      "hit": false,
      "t": 111652.44199999938,
      "d": 1162.9859999999899,
      "v": 106
    },
    {
      "midi": 60,
      "hit": false,
      "t": 113035.29599999938,
      "d": 370.3039999999746,
      "v": 97
    },
    {
      "midi": 53,
      "hit": false,
      "t": 113035.29599999938,
      "d": 405.01999999997497,
      "v": 108
    },
    {
      "midi": 41,
      "hit": false,
      "t": 113041.08199999937,
      "d": 260.36999999999534,
      "v": 104
    },
    {
      "midi": 64,
      "hit": false,
      "t": 113041.08199999937,
      "d": 283.5139999999956,
      "v": 80
    },
    {
      "midi": 57,
      "hit": false,
      "t": 113041.08199999937,
      "d": 335.5879999999888,
      "v": 100
    },
    {
      "midi": 43,
      "hit": false,
      "t": 113596.53799999935,
      "d": 225.653999999995,
      "v": 110
    },
    {
      "midi": 57,
      "hit": false,
      "t": 113862.69399999933,
      "d": 254.583999999988,
      "v": 91
    },
    {
      "midi": 60,
      "hit": false,
      "t": 113862.69399999933,
      "d": 254.583999999988,
      "v": 95
    },
    {
      "midi": 53,
      "hit": false,
      "t": 113862.69399999933,
      "d": 266.1559999999881,
      "v": 98
    },
    {
      "midi": 64,
      "hit": false,
      "t": 113868.47999999933,
      "d": 57.86000000000058,
      "v": 72
    },
    {
      "midi": 43,
      "hit": false,
      "t": 114146.20799999931,
      "d": 75.21799999999348,
      "v": 95
    },
    {
      "midi": 53,
      "hit": false,
      "t": 114418.14999999931,
      "d": 763.7519999999786,
      "v": 106
    },
    {
      "midi": 57,
      "hit": false,
      "t": 114423.9359999993,
      "d": 729.0359999999928,
      "v": 98
    },
    {
      "midi": 60,
      "hit": false,
      "t": 114423.9359999993,
      "d": 763.7519999999786,
      "v": 97
    },
    {
      "midi": 43,
      "hit": false,
      "t": 114423.9359999993,
      "d": 902.61599999998,
      "v": 114
    },
    {
      "midi": 57,
      "hit": false,
      "t": 115529.06199999928,
      "d": 248.79799999998068,
      "v": 90
    },
    {
      "midi": 60,
      "hit": false,
      "t": 115529.06199999928,
      "d": 248.79799999998068,
      "v": 90
    },
    {
      "midi": 64,
      "hit": false,
      "t": 115529.06199999928,
      "d": 248.79799999998068,
      "v": 86
    },
    {
      "midi": 53,
      "hit": false,
      "t": 115529.06199999928,
      "d": 271.9419999999809,
      "v": 108
    },
    {
      "midi": 41,
      "hit": false,
      "t": 115534.84799999927,
      "d": 202.50999999999476,
      "v": 100
    },
    {
      "midi": 60,
      "hit": false,
      "t": 116090.30399999926,
      "d": 1105.1260000000038,
      "v": 97
    },
    {
      "midi": 64,
      "hit": false,
      "t": 116090.30399999926,
      "d": 1105.1260000000038,
      "v": 100
    },
    {
      "midi": 53,
      "hit": false,
      "t": 116090.30399999926,
      "d": 1116.698000000004,
      "v": 110
    },
    {
      "midi": 57,
      "hit": false,
      "t": 116090.30399999926,
      "d": 1116.698000000004,
      "v": 98
    },
    {
      "midi": 41,
      "hit": false,
      "t": 116090.30399999926,
      "d": 1232.4180000000051,
      "v": 102
    },
    {
      "midi": 41,
      "hit": false,
      "t": 117478.94399999926,
      "d": 277.7280000000028,
      "v": 106
    },
    {
      "midi": 60,
      "hit": false,
      "t": 117478.94399999926,
      "d": 324.01600000000326,
      "v": 95
    },
    {
      "midi": 53,
      "hit": false,
      "t": 117478.94399999926,
      "d": 335.5880000000034,
      "v": 110
    },
    {
      "midi": 57,
      "hit": false,
      "t": 117478.94399999926,
      "d": 335.5880000000034,
      "v": 100
    },
    {
      "midi": 64,
      "hit": false,
      "t": 117478.94399999926,
      "d": 370.3040000000037,
      "v": 100
    },
    {
      "midi": 43,
      "hit": false,
      "t": 118034.39999999927,
      "d": 237.2259999999951,
      "v": 95
    },
    {
      "midi": 57,
      "hit": false,
      "t": 118300.55599999925,
      "d": 214.08199999999488,
      "v": 95
    },
    {
      "midi": 64,
      "hit": false,
      "t": 118300.55599999925,
      "d": 225.653999999995,
      "v": 92
    },
    {
      "midi": 53,
      "hit": false,
      "t": 118300.55599999925,
      "d": 237.2259999999951,
      "v": 102
    },
    {
      "midi": 60,
      "hit": false,
      "t": 118300.55599999925,
      "d": 237.2259999999951,
      "v": 92
    },
    {
      "midi": 43,
      "hit": false,
      "t": 118589.85599999924,
      "d": 63.645999999993364,
      "v": 86
    },
    {
      "midi": 43,
      "hit": false,
      "t": 118867.58399999923,
      "d": 740.6079999999929,
      "v": 117
    },
    {
      "midi": 57,
      "hit": false,
      "t": 118867.58399999923,
      "d": 1186.12999999999,
      "v": 98
    },
    {
      "midi": 60,
      "hit": false,
      "t": 118867.58399999923,
      "d": 1186.12999999999,
      "v": 95
    },
    {
      "midi": 53,
      "hit": false,
      "t": 118867.58399999923,
      "d": 1209.2739999999903,
      "v": 108
    },
    {
      "midi": 64,
      "hit": false,
      "t": 118867.58399999923,
      "d": 1209.2739999999903,
      "v": 95
    },
    {
      "midi": 41,
      "hit": false,
      "t": 119972.70999999922,
      "d": 2065.601999999999,
      "v": 114
    },
    {
      "midi": 53,
      "hit": false,
      "t": 120528.16599999923,
      "d": 1186.12999999999,
      "v": 104
    },
    {
      "midi": 57,
      "hit": false,
      "t": 120533.95199999922,
      "d": 1139.8420000000042,
      "v": 94
    },
    {
      "midi": 60,
      "hit": false,
      "t": 120533.95199999922,
      "d": 1139.8420000000042,
      "v": 91
    },
    {
      "midi": 64,
      "hit": false,
      "t": 120533.95199999922,
      "d": 1139.8420000000042,
      "v": 91
    },
    {
      "midi": 53,
      "hit": false,
      "t": 122200.31999999922,
      "d": 1625.8659999999945,
      "v": 98
    },
    {
      "midi": 62,
      "hit": false,
      "t": 122200.31999999922,
      "d": 1683.725999999995,
      "v": 86
    },
    {
      "midi": 55,
      "hit": false,
      "t": 122200.31999999922,
      "d": 1706.8699999999953,
      "v": 91
    },
    {
      "midi": 59,
      "hit": false,
      "t": 122200.31999999922,
      "d": 1706.8699999999953,
      "v": 95
    },
    {
      "midi": 43,
      "hit": false,
      "t": 122206.10599999921,
      "d": 1724.2280000000028,
      "v": 117
    },
    {
      "midi": 55,
      "hit": false,
      "t": 124132.84399999921,
      "d": 1614.2939999999944,
      "v": 102
    },
    {
      "midi": 59,
      "hit": false,
      "t": 124132.84399999921,
      "d": 1614.2939999999944,
      "v": 104
    },
    {
      "midi": 43,
      "hit": false,
      "t": 124144.41599999921,
      "d": 1637.4379999999946,
      "v": 120
    },
    {
      "midi": 43,
      "hit": false,
      "t": 126071.15399999921,
      "d": 277.72799999998824,
      "v": 104
    },
    {
      "midi": 55,
      "hit": false,
      "t": 126076.9399999992,
      "d": 109.93399999999383,
      "v": 92
    },
    {
      "midi": 59,
      "hit": false,
      "t": 126076.9399999992,
      "d": 121.50599999999395,
      "v": 98
    },
    {
      "midi": 41,
      "hit": false,
      "t": 126354.66799999919,
      "d": 1191.9159999999974,
      "v": 102
    },
    {
      "midi": 53,
      "hit": false,
      "t": 126360.45399999918,
      "d": 1162.9860000000044,
      "v": 98
    },
    {
      "midi": 57,
      "hit": false,
      "t": 126360.45399999918,
      "d": 1162.9860000000044,
      "v": 106
    },
    {
      "midi": 41,
      "hit": false,
      "t": 127749.09399999918,
      "d": 555.455999999991,
      "v": 102
    },
    {
      "midi": 53,
      "hit": false,
      "t": 127754.87999999918,
      "d": 306.6579999999958,
      "v": 98
    },
    {
      "midi": 57,
      "hit": false,
      "t": 127754.87999999918,
      "d": 306.6579999999958,
      "v": 97
    },
    {
      "midi": 59,
      "hit": false,
      "t": 128304.54999999917,
      "d": 271.94199999999546,
      "v": 81
    },
    {
      "midi": 55,
      "hit": false,
      "t": 128304.54999999917,
      "d": 289.29999999998836,
      "v": 98
    },
    {
      "midi": 43,
      "hit": false,
      "t": 128310.33599999917,
      "d": 549.6699999999983,
      "v": 120
    },
    {
      "midi": 52,
      "hit": false,
      "t": 128865.79199999916,
      "d": 190.93799999999464,
      "v": 112
    },
    {
      "midi": 57,
      "hit": false,
      "t": 128865.79199999916,
      "d": 190.93799999999464,
      "v": 108
    },
    {
      "midi": 45,
      "hit": false,
      "t": 128865.79199999916,
      "d": 225.65399999998044,
      "v": 106
    },
    {
      "midi": 60,
      "hit": false,
      "t": 128871.57799999915,
      "d": 190.93799999999464,
      "v": 92
    },
    {
      "midi": 45,
      "hit": false,
      "t": 129421.24799999913,
      "d": 867.8999999999942,
      "v": 100
    },
    {
      "midi": 57,
      "hit": false,
      "t": 129421.24799999913,
      "d": 925.7599999999948,
      "v": 108
    },
    {
      "midi": 64,
      "hit": false,
      "t": 129421.24799999913,
      "d": 925.7599999999948,
      "v": 112
    },
    {
      "midi": 60,
      "hit": false,
      "t": 129421.24799999913,
      "d": 937.3319999999949,
      "v": 106
    },
    {
      "midi": 60,
      "hit": false,
      "t": 130526.37399999912,
      "d": 81.00399999998626,
      "v": 94
    },
    {
      "midi": 57,
      "hit": false,
      "t": 130526.37399999912,
      "d": 104.1479999999865,
      "v": 94
    },
    {
      "midi": 45,
      "hit": false,
      "t": 130526.37399999912,
      "d": 277.72799999998824,
      "v": 90
    },
    {
      "midi": 64,
      "hit": false,
      "t": 130532.15999999912,
      "d": 69.4320000000007,
      "v": 94
    },
    {
      "midi": 55,
      "hit": false,
      "t": 130809.8879999991,
      "d": 642.2460000000137,
      "v": 117
    },
    {
      "midi": 59,
      "hit": false,
      "t": 130809.8879999991,
      "d": 642.2460000000137,
      "v": 110
    },
    {
      "midi": 62,
      "hit": false,
      "t": 130809.8879999991,
      "d": 642.2460000000137,
      "v": 116
    },
    {
      "midi": 43,
      "hit": false,
      "t": 130809.8879999991,
      "d": 1961.454000000027,
      "v": 101
    },
    {
      "midi": 62,
      "hit": false,
      "t": 131637.28599999912,
      "d": 1186.1300000000047,
      "v": 111
    },
    {
      "midi": 55,
      "hit": false,
      "t": 131637.28599999912,
      "d": 1197.7019999999902,
      "v": 108
    },
    {
      "midi": 59,
      "hit": false,
      "t": 131637.28599999912,
      "d": 1220.8459999999905,
      "v": 111
    },
    {
      "midi": 55,
      "hit": false,
      "t": 133025.9259999991,
      "d": 2007.7419999999984,
      "v": 117
    },
    {
      "midi": 59,
      "hit": false,
      "t": 133025.9259999991,
      "d": 2019.313999999984,
      "v": 112
    },
    {
      "midi": 43,
      "hit": false,
      "t": 133025.9259999991,
      "d": 2221.8239999999932,
      "v": 111
    },
    {
      "midi": 41,
      "hit": false,
      "t": 135247.7499999991,
      "d": 2146.6059999999998,
      "v": 102
    },
    {
      "midi": 53,
      "hit": false,
      "t": 135253.5359999991,
      "d": 2430.1199999999953,
      "v": 117
    },
    {
      "midi": 57,
      "hit": false,
      "t": 135253.5359999991,
      "d": 2441.691999999981,
      "v": 112
    },
    {
      "midi": 41,
      "hit": false,
      "t": 137753.08799999906,
      "d": 584.3859999999986,
      "v": 100
    },
    {
      "midi": 57,
      "hit": false,
      "t": 138314.32999999906,
      "d": 248.79800000000978,
      "v": 104
    },
    {
      "midi": 52,
      "hit": false,
      "t": 138314.32999999906,
      "d": 266.15600000001723,
      "v": 112
    },
    {
      "midi": 60,
      "hit": false,
      "t": 138314.32999999906,
      "d": 266.15600000001723,
      "v": 98
    },
    {
      "midi": 41,
      "hit": false,
      "t": 138592.05799999906,
      "d": 98.36199999999371,
      "v": 90
    },
    {
      "midi": 41,
      "hit": false,
      "t": 138863.99999999904,
      "d": 619.1019999999844,
      "v": 100
    },
    {
      "midi": 52,
      "hit": false,
      "t": 139407.88399999903,
      "d": 347.1599999999744,
      "v": 112
    },
    {
      "midi": 57,
      "hit": false,
      "t": 139407.88399999903,
      "d": 347.1599999999744,
      "v": 106
    },
    {
      "midi": 60,
      "hit": false,
      "t": 139407.88399999903,
      "d": 347.1599999999744,
      "v": 97
    },
    {
      "midi": 41,
      "hit": false,
      "t": 139697.18399999902,
      "d": 289.29999999998836,
      "v": 100
    },
    {
      "midi": 43,
      "hit": false,
      "t": 139986.483999999,
      "d": 619.1019999999844,
      "v": 110
    },
    {
      "midi": 55,
      "hit": false,
      "t": 140530.367999999,
      "d": 156.22199999997974,
      "v": 98
    },
    {
      "midi": 50,
      "hit": false,
      "t": 140530.367999999,
      "d": 179.36599999997998,
      "v": 112
    },
    {
      "midi": 59,
      "hit": false,
      "t": 140530.367999999,
      "d": 179.36599999997998,
      "v": 90
    },
    {
      "midi": 43,
      "hit": false,
      "t": 140808.09599999897,
      "d": 109.93400000000838,
      "v": 90
    },
    {
      "midi": 50,
      "hit": false,
      "t": 141085.82399999897,
      "d": 1093.5540000000037,
      "v": 110
    },
    {
      "midi": 55,
      "hit": false,
      "t": 141085.82399999897,
      "d": 1093.5540000000037,
      "v": 106
    },
    {
      "midi": 59,
      "hit": false,
      "t": 141085.82399999897,
      "d": 1093.5540000000037,
      "v": 100
    },
    {
      "midi": 43,
      "hit": false,
      "t": 141091.60999999897,
      "d": 1105.1260000000184,
      "v": 112
    },
    {
      "midi": 41,
      "hit": false,
      "t": 142196.735999999,
      "d": 607.5299999999988,
      "v": 98
    },
    {
      "midi": 53,
      "hit": false,
      "t": 142752.191999999,
      "d": 295.08599999998114,
      "v": 106
    },
    {
      "midi": 48,
      "hit": false,
      "t": 142752.191999999,
      "d": 300.8719999999739,
      "v": 106
    },
    {
      "midi": 57,
      "hit": false,
      "t": 142752.191999999,
      "d": 300.8719999999739,
      "v": 97
    },
    {
      "midi": 41,
      "hit": false,
      "t": 143024.13399999897,
      "d": 98.36199999999371,
      "v": 91
    },
    {
      "midi": 41,
      "hit": false,
      "t": 143307.64799999897,
      "d": 630.6739999999991,
      "v": 104
    },
    {
      "midi": 48,
      "hit": false,
      "t": 143863.10399999897,
      "d": 190.93799999999464,
      "v": 110
    },
    {
      "midi": 53,
      "hit": false,
      "t": 143863.10399999897,
      "d": 202.5099999999802,
      "v": 108
    },
    {
      "midi": 57,
      "hit": false,
      "t": 143863.10399999897,
      "d": 214.08199999996577,
      "v": 94
    },
    {
      "midi": 41,
      "hit": false,
      "t": 144135.04599999893,
      "d": 277.7280000000028,
      "v": 90
    },
    {
      "midi": 43,
      "hit": false,
      "t": 144418.55999999892,
      "d": 653.8179999999993,
      "v": 106
    },
    {
      "midi": 50,
      "hit": false,
      "t": 144968.22999999893,
      "d": 202.5099999999802,
      "v": 102
    },
    {
      "midi": 55,
      "hit": false,
      "t": 144968.22999999893,
      "d": 202.5099999999802,
      "v": 94
    },
    {
      "midi": 59,
      "hit": false,
      "t": 144968.22999999893,
      "d": 202.5099999999802,
      "v": 87
    },
    {
      "midi": 43,
      "hit": false,
      "t": 145257.52999999892,
      "d": 81.00399999998626,
      "v": 108
    },
    {
      "midi": 50,
      "hit": false,
      "t": 145529.4719999989,
      "d": 925.7600000000093,
      "v": 114
    },
    {
      "midi": 59,
      "hit": false,
      "t": 145529.4719999989,
      "d": 925.7600000000093,
      "v": 98
    },
    {
      "midi": 55,
      "hit": false,
      "t": 145529.4719999989,
      "d": 937.3319999999949,
      "v": 102
    },
    {
      "midi": 43,
      "hit": false,
      "t": 145529.4719999989,
      "d": 1070.4100000000035,
      "v": 100
    },
    {
      "midi": 41,
      "hit": false,
      "t": 146628.8119999989,
      "d": 642.2459999999846,
      "v": 92
    },
    {
      "midi": 57,
      "hit": false,
      "t": 147190.0539999989,
      "d": 277.7279999999737,
      "v": 98
    },
    {
      "midi": 60,
      "hit": false,
      "t": 147190.0539999989,
      "d": 277.7279999999737,
      "v": 92
    },
    {
      "midi": 52,
      "hit": false,
      "t": 147190.0539999989,
      "d": 300.8719999999739,
      "v": 112
    },
    {
      "midi": 41,
      "hit": false,
      "t": 147461.99599999888,
      "d": 109.93399999997928,
      "v": 79
    },
    {
      "midi": 41,
      "hit": false,
      "t": 147745.50999999885,
      "d": 740.6080000000075,
      "v": 100
    },
    {
      "midi": 57,
      "hit": false,
      "t": 148306.75199999884,
      "d": 260.36999999999534,
      "v": 102
    },
    {
      "midi": 60,
      "hit": false,
      "t": 148306.75199999884,
      "d": 271.9419999999809,
      "v": 100
    },
    {
      "midi": 52,
      "hit": false,
      "t": 148306.75199999884,
      "d": 283.5139999999665,
      "v": 108
    },
    {
      "midi": 41,
      "hit": false,
      "t": 148590.2659999988,
      "d": 295.08599999998114,
      "v": 94
    },
    {
      "midi": 43,
      "hit": false,
      "t": 148856.4219999988,
      "d": 653.8179999999993,
      "v": 104
    },
    {
      "midi": 55,
      "hit": false,
      "t": 149423.4499999988,
      "d": 144.64999999999418,
      "v": 87
    },
    {
      "midi": 59,
      "hit": false,
      "t": 149423.4499999988,
      "d": 144.64999999999418,
      "v": 80
    },
    {
      "midi": 50,
      "hit": false,
      "t": 149423.4499999988,
      "d": 167.7939999999944,
      "v": 98
    },
    {
      "midi": 43,
      "hit": false,
      "t": 149701.1779999988,
      "d": 86.79000000000815,
      "v": 94
    },
    {
      "midi": 59,
      "hit": false,
      "t": 149967.3339999988,
      "d": 1035.6939999999886,
      "v": 104
    },
    {
      "midi": 55,
      "hit": false,
      "t": 149967.3339999988,
      "d": 1047.2659999999742,
      "v": 104
    },
    {
      "midi": 50,
      "hit": false,
      "t": 149967.3339999988,
      "d": 1058.8379999999597,
      "v": 112
    },
    {
      "midi": 43,
      "hit": false,
      "t": 149978.9059999988,
      "d": 1029.9079999999958,
      "v": 106
    },
    {
      "midi": 41,
      "hit": false,
      "t": 151072.45999999877,
      "d": 653.8179999999993,
      "v": 86
    },
    {
      "midi": 48,
      "hit": false,
      "t": 151645.27399999878,
      "d": 329.80199999999604,
      "v": 112
    },
    {
      "midi": 53,
      "hit": false,
      "t": 151645.27399999878,
      "d": 329.80199999999604,
      "v": 106
    },
    {
      "midi": 57,
      "hit": false,
      "t": 151645.27399999878,
      "d": 329.80199999999604,
      "v": 97
    },
    {
      "midi": 41,
      "hit": false,
      "t": 151911.42999999877,
      "d": 109.93400000000838,
      "v": 85
    },
    {
      "midi": 41,
      "hit": false,
      "t": 152189.15799999877,
      "d": 619.1020000000135,
      "v": 98
    },
    {
      "midi": 48,
      "hit": false,
      "t": 152744.61399999878,
      "d": 295.08600000001024,
      "v": 108
    },
    {
      "midi": 57,
      "hit": false,
      "t": 152744.61399999878,
      "d": 295.08600000001024,
      "v": 94
    },
    {
      "midi": 53,
      "hit": false,
      "t": 152744.61399999878,
      "d": 306.6579999999958,
      "v": 108
    },
    {
      "midi": 41,
      "hit": false,
      "t": 153016.5559999988,
      "d": 295.08599999998114,
      "v": 95
    },
    {
      "midi": 43,
      "hit": false,
      "t": 153305.85599999878,
      "d": 619.1019999999844,
      "v": 106
    },
    {
      "midi": 55,
      "hit": false,
      "t": 153855.52599999876,
      "d": 214.08199999999488,
      "v": 100
    },
    {
      "midi": 50,
      "hit": false,
      "t": 153855.52599999876,
      "d": 237.2259999999951,
      "v": 108
    },
    {
      "midi": 59,
      "hit": false,
      "t": 153855.52599999876,
      "d": 237.2259999999951,
      "v": 94
    },
    {
      "midi": 43,
      "hit": false,
      "t": 154139.03999999876,
      "d": 98.36199999999371,
      "v": 86
    },
    {
      "midi": 50,
      "hit": false,
      "t": 154410.98199999874,
      "d": 960.4759999999951,
      "v": 110
    },
    {
      "midi": 55,
      "hit": false,
      "t": 154410.98199999874,
      "d": 960.4759999999951,
      "v": 106
    },
    {
      "midi": 59,
      "hit": false,
      "t": 154410.98199999874,
      "d": 960.4759999999951,
      "v": 100
    },
    {
      "midi": 43,
      "hit": false,
      "t": 154416.76799999873,
      "d": 1035.6939999999886,
      "v": 112
    },
    {
      "midi": 41,
      "hit": false,
      "t": 155533.4659999987,
      "d": 584.3859999999986,
      "v": 95
    },
    {
      "midi": 60,
      "hit": false,
      "t": 156083.13599999872,
      "d": 266.1559999999881,
      "v": 97
    },
    {
      "midi": 52,
      "hit": false,
      "t": 156083.13599999872,
      "d": 289.29999999998836,
      "v": 108
    },
    {
      "midi": 57,
      "hit": false,
      "t": 156083.13599999872,
      "d": 289.29999999998836,
      "v": 104
    },
    {
      "midi": 41,
      "hit": false,
      "t": 156355.0779999987,
      "d": 133.07800000000861,
      "v": 80
    },
    {
      "midi": 41,
      "hit": false,
      "t": 156638.5919999987,
      "d": 607.5299999999988,
      "v": 97
    },
    {
      "midi": 60,
      "hit": false,
      "t": 157194.0479999987,
      "d": 381.8759999999893,
      "v": 98
    },
    {
      "midi": 52,
      "hit": false,
      "t": 157194.0479999987,
      "d": 393.44799999997485,
      "v": 110
    },
    {
      "midi": 57,
      "hit": false,
      "t": 157194.0479999987,
      "d": 393.44799999997485,
      "v": 100
    },
    {
      "midi": 41,
      "hit": false,
      "t": 157460.2039999987,
      "d": 277.7279999999737,
      "v": 91
    },
    {
      "midi": 43,
      "hit": false,
      "t": 157749.50399999865,
      "d": 676.9619999999995,
      "v": 104
    },
    {
      "midi": 55,
      "hit": false,
      "t": 158304.95999999865,
      "d": 179.36599999997998,
      "v": 102
    },
    {
      "midi": 50,
      "hit": false,
      "t": 158304.95999999865,
      "d": 190.93799999996554,
      "v": 106
    },
    {
      "midi": 59,
      "hit": false,
      "t": 158304.95999999865,
      "d": 190.93799999996554,
      "v": 92
    },
    {
      "midi": 43,
      "hit": false,
      "t": 158588.47399999862,
      "d": 86.79000000000815,
      "v": 85
    },
    {
      "midi": 50,
      "hit": false,
      "t": 158854.62999999864,
      "d": 1110.911999999982,
      "v": 106
    },
    {
      "midi": 59,
      "hit": false,
      "t": 158854.62999999864,
      "d": 1116.6979999999749,
      "v": 97
    },
    {
      "midi": 55,
      "hit": false,
      "t": 158854.62999999864,
      "d": 1139.841999999975,
      "v": 104
    },
    {
      "midi": 43,
      "hit": false,
      "t": 158866.20199999862,
      "d": 925.7600000000093,
      "v": 114
    },
    {
      "midi": 41,
      "hit": false,
      "t": 159971.3279999986,
      "d": 607.5299999999988,
      "v": 91
    },
    {
      "midi": 53,
      "hit": false,
      "t": 160526.78399999862,
      "d": 416.5920000000042,
      "v": 108
    },
    {
      "midi": 57,
      "hit": false,
      "t": 160526.78399999862,
      "d": 416.5920000000042,
      "v": 94
    },
    {
      "midi": 48,
      "hit": false,
      "t": 160532.5699999986,
      "d": 393.44800000000396,
      "v": 104
    },
    {
      "midi": 41,
      "hit": false,
      "t": 160792.9399999986,
      "d": 133.07800000000861,
      "v": 88
    },
    {
      "midi": 41,
      "hit": false,
      "t": 161076.45399999863,
      "d": 595.9580000000133,
      "v": 98
    },
    {
      "midi": 48,
      "hit": false,
      "t": 161631.90999999864,
      "d": 335.5880000000179,
      "v": 110
    },
    {
      "midi": 57,
      "hit": false,
      "t": 161631.90999999864,
      "d": 335.5880000000179,
      "v": 100
    },
    {
      "midi": 53,
      "hit": false,
      "t": 161631.90999999864,
      "d": 347.1600000000035,
      "v": 108
    },
    {
      "midi": 41,
      "hit": false,
      "t": 161903.85199999865,
      "d": 277.7280000000028,
      "v": 94
    },
    {
      "midi": 43,
      "hit": false,
      "t": 162187.36599999864,
      "d": 254.58400000000256,
      "v": 106
    },
    {
      "midi": 43,
      "hit": false,
      "t": 162465.09399999864,
      "d": 190.93799999999464,
      "v": 71
    },
    {
      "midi": 55,
      "hit": false,
      "t": 162742.82199999865,
      "d": 202.5100000000093,
      "v": 95
    },
    {
      "midi": 59,
      "hit": false,
      "t": 162742.82199999865,
      "d": 202.5100000000093,
      "v": 88
    },
    {
      "midi": 50,
      "hit": false,
      "t": 162742.82199999865,
      "d": 225.65400000000955,
      "v": 104
    },
    {
      "midi": 50,
      "hit": false,
      "t": 163304.06399999865,
      "d": 1006.7639999999956,
      "v": 110
    },
    {
      "midi": 55,
      "hit": false,
      "t": 163304.06399999865,
      "d": 1029.9079999999958,
      "v": 104
    },
    {
      "midi": 59,
      "hit": false,
      "t": 163304.06399999865,
      "d": 1029.9079999999958,
      "v": 100
    },
    {
      "midi": 43,
      "hit": false,
      "t": 163304.06399999865,
      "d": 1058.8379999999888,
      "v": 122
    },
    {
      "midi": 41,
      "hit": false,
      "t": 164403.40399999864,
      "d": 642.2459999999846,
      "v": 98
    },
    {
      "midi": 57,
      "hit": false,
      "t": 164970.43199999863,
      "d": 347.1600000000035,
      "v": 100
    },
    {
      "midi": 52,
      "hit": false,
      "t": 164976.21799999863,
      "d": 324.01600000000326,
      "v": 108
    },
    {
      "midi": 60,
      "hit": false,
      "t": 164976.21799999863,
      "d": 324.01600000000326,
      "v": 92
    },
    {
      "midi": 41,
      "hit": false,
      "t": 165248.15999999864,
      "d": 98.36199999999371,
      "v": 95
    },
    {
      "midi": 41,
      "hit": false,
      "t": 165520.10199999862,
      "d": 619.1019999999844,
      "v": 102
    },
    {
      "midi": 52,
      "hit": false,
      "t": 166087.1299999986,
      "d": 335.5879999999888,
      "v": 104
    },
    {
      "midi": 57,
      "hit": false,
      "t": 166087.1299999986,
      "d": 335.5879999999888,
      "v": 100
    },
    {
      "midi": 60,
      "hit": false,
      "t": 166087.1299999986,
      "d": 335.5879999999888,
      "v": 88
    },
    {
      "midi": 41,
      "hit": false,
      "t": 166353.2859999986,
      "d": 277.7280000000028,
      "v": 92
    },
    {
      "midi": 43,
      "hit": false,
      "t": 166631.0139999986,
      "d": 277.7280000000028,
      "v": 110
    },
    {
      "midi": 41,
      "hit": false,
      "t": 166908.7419999986,
      "d": 277.7280000000028,
      "v": 79
    },
    {
      "midi": 55,
      "hit": false,
      "t": 167192.2559999986,
      "d": 167.7939999999944,
      "v": 87
    },
    {
      "midi": 59,
      "hit": false,
      "t": 167192.2559999986,
      "d": 190.93799999999464,
      "v": 78
    },
    {
      "midi": 50,
      "hit": false,
      "t": 167192.2559999986,
      "d": 214.08199999999488,
      "v": 98
    },
    {
      "midi": 50,
      "hit": false,
      "t": 167747.7119999986,
      "d": 1035.6939999999886,
      "v": 110
    },
    {
      "midi": 55,
      "hit": false,
      "t": 167747.7119999986,
      "d": 1035.6939999999886,
      "v": 104
    },
    {
      "midi": 59,
      "hit": false,
      "t": 167747.7119999986,
      "d": 1035.6939999999886,
      "v": 95
    },
    {
      "midi": 43,
      "hit": false,
      "t": 167747.7119999986,
      "d": 1081.981999999989,
      "v": 120
    },
    {
      "midi": 41,
      "hit": false,
      "t": 168847.0519999986,
      "d": 653.8179999999702,
      "v": 91
    },
    {
      "midi": 53,
      "hit": false,
      "t": 169414.0799999986,
      "d": 318.2299999999814,
      "v": 106
    },
    {
      "midi": 48,
      "hit": false,
      "t": 169419.86599999858,
      "d": 329.80199999999604,
      "v": 106
    },
    {
      "midi": 57,
      "hit": false,
      "t": 169419.86599999858,
      "d": 329.80199999999604,
      "v": 98
    },
    {
      "midi": 41,
      "hit": false,
      "t": 169686.02199999857,
      "d": 109.93400000000838,
      "v": 87
    },
    {
      "midi": 41,
      "hit": false,
      "t": 169969.53599999857,
      "d": 630.6739999999991,
      "v": 100
    },
    {
      "midi": 48,
      "hit": false,
      "t": 170524.99199999857,
      "d": 312.4439999999886,
      "v": 104
    },
    {
      "midi": 53,
      "hit": false,
      "t": 170524.99199999857,
      "d": 312.4439999999886,
      "v": 104
    },
    {
      "midi": 57,
      "hit": false,
      "t": 170524.99199999857,
      "d": 312.4439999999886,
      "v": 98
    },
    {
      "midi": 41,
      "hit": false,
      "t": 170791.14799999856,
      "d": 277.7280000000028,
      "v": 80
    },
    {
      "midi": 43,
      "hit": false,
      "t": 171074.66199999856,
      "d": 630.6739999999991,
      "v": 108
    },
    {
      "midi": 55,
      "hit": false,
      "t": 171630.11799999856,
      "d": 202.5099999999802,
      "v": 97
    },
    {
      "midi": 50,
      "hit": false,
      "t": 171635.90399999855,
      "d": 190.93799999999464,
      "v": 106
    },
    {
      "midi": 59,
      "hit": false,
      "t": 171635.90399999855,
      "d": 190.93799999999464,
      "v": 90
    },
    {
      "midi": 43,
      "hit": false,
      "t": 171919.41799999855,
      "d": 63.646000000007916,
      "v": 84
    },
    {
      "midi": 50,
      "hit": false,
      "t": 172191.35999999856,
      "d": 989.4059999999881,
      "v": 110
    },
    {
      "midi": 55,
      "hit": false,
      "t": 172191.35999999856,
      "d": 1012.5499999999884,
      "v": 104
    },
    {
      "midi": 59,
      "hit": false,
      "t": 172191.35999999856,
      "d": 1012.5499999999884,
      "v": 102
    },
    {
      "midi": 43,
      "hit": false,
      "t": 172191.35999999856,
      "d": 1035.6939999999886,
      "v": 108
    },
    {
      "midi": 41,
      "hit": false,
      "t": 173290.69999999856,
      "d": 642.2459999999846,
      "v": 98
    },
    {
      "midi": 60,
      "hit": false,
      "t": 173851.94199999855,
      "d": 358.73199999998906,
      "v": 92
    },
    {
      "midi": 52,
      "hit": false,
      "t": 173857.72799999855,
      "d": 347.1600000000035,
      "v": 106
    },
    {
      "midi": 57,
      "hit": false,
      "t": 173857.72799999855,
      "d": 347.1600000000035,
      "v": 97
    },
    {
      "midi": 41,
      "hit": false,
      "t": 174141.24199999854,
      "d": 86.79000000000815,
      "v": 95
    },
    {
      "midi": 41,
      "hit": false,
      "t": 174413.18399999855,
      "d": 653.8179999999993,
      "v": 100
    },
    {
      "midi": 60,
      "hit": false,
      "t": 174968.63999999856,
      "d": 393.44800000000396,
      "v": 92
    },
    {
      "midi": 57,
      "hit": false,
      "t": 174968.63999999856,
      "d": 405.0199999999895,
      "v": 100
    },
    {
      "midi": 52,
      "hit": false,
      "t": 174968.63999999856,
      "d": 416.5919999999751,
      "v": 106
    },
    {
      "midi": 41,
      "hit": false,
      "t": 175246.36799999856,
      "d": 277.7279999999737,
      "v": 98
    },
    {
      "midi": 43,
      "hit": false,
      "t": 175524.09599999854,
      "d": 642.2460000000137,
      "v": 102
    },
    {
      "midi": 55,
      "hit": false,
      "t": 176073.76599999855,
      "d": 190.93799999999464,
      "v": 92
    },
    {
      "midi": 50,
      "hit": false,
      "t": 176073.76599999855,
      "d": 214.08199999999488,
      "v": 100
    },
    {
      "midi": 59,
      "hit": false,
      "t": 176079.55199999854,
      "d": 167.7939999999944,
      "v": 85
    },
    {
      "midi": 43,
      "hit": false,
      "t": 176363.06599999854,
      "d": 81.00399999998626,
      "v": 90
    },
    {
      "midi": 55,
      "hit": false,
      "t": 176629.22199999852,
      "d": 1093.5539999999746,
      "v": 104
    },
    {
      "midi": 50,
      "hit": false,
      "t": 176629.22199999852,
      "d": 1116.6979999999458,
      "v": 110
    },
    {
      "midi": 59,
      "hit": false,
      "t": 176629.22199999852,
      "d": 1116.6979999999458,
      "v": 102
    },
    {
      "midi": 43,
      "hit": false,
      "t": 176635.00799999852,
      "d": 1058.8379999999888,
      "v": 104
    },
    {
      "midi": 41,
      "hit": false,
      "t": 177734.34799999848,
      "d": 595.9579999999842,
      "v": 97
    },
    {
      "midi": 53,
      "hit": false,
      "t": 178307.16199999847,
      "d": 347.1600000000035,
      "v": 104
    },
    {
      "midi": 57,
      "hit": false,
      "t": 178307.16199999847,
      "d": 347.1600000000035,
      "v": 94
    },
    {
      "midi": 48,
      "hit": false,
      "t": 178307.16199999847,
      "d": 370.3040000000037,
      "v": 106
    },
    {
      "midi": 41,
      "hit": false,
      "t": 178579.10399999848,
      "d": 81.00399999998626,
      "v": 97
    },
    {
      "midi": 41,
      "hit": false,
      "t": 178851.04599999846,
      "d": 642.2459999999846,
      "v": 98
    },
    {
      "midi": 48,
      "hit": false,
      "t": 179412.28799999846,
      "d": 312.4439999999886,
      "v": 104
    },
    {
      "midi": 53,
      "hit": false,
      "t": 179412.28799999846,
      "d": 324.01599999997416,
      "v": 104
    },
    {
      "midi": 57,
      "hit": false,
      "t": 179412.28799999846,
      "d": 324.01599999997416,
      "v": 92
    },
    {
      "midi": 41,
      "hit": false,
      "t": 179678.44399999845,
      "d": 277.7279999999737,
      "v": 88
    },
    {
      "midi": 43,
      "hit": false,
      "t": 179961.9579999984,
      "d": 619.1019999999844,
      "v": 106
    },
    {
      "midi": 55,
      "hit": false,
      "t": 180523.1999999984,
      "d": 179.36599999997998,
      "v": 91
    },
    {
      "midi": 50,
      "hit": false,
      "t": 180523.1999999984,
      "d": 190.93799999996554,
      "v": 100
    },
    {
      "midi": 59,
      "hit": false,
      "t": 180523.1999999984,
      "d": 190.93799999996554,
      "v": 83
    },
    {
      "midi": 43,
      "hit": false,
      "t": 180800.92799999838,
      "d": 75.21799999999348,
      "v": 100
    },
    {
      "midi": 43,
      "hit": false,
      "t": 181072.86999999837,
      "d": 1018.3359999999811,
      "v": 102
    },
    {
      "midi": 50,
      "hit": false,
      "t": 181078.65599999836,
      "d": 937.3319999999949,
      "v": 110
    },
    {
      "midi": 55,
      "hit": false,
      "t": 181078.65599999836,
      "d": 937.3319999999949,
      "v": 104
    },
    {
      "midi": 59,
      "hit": false,
      "t": 181078.65599999836,
      "d": 937.3319999999949,
      "v": 102
    },
    {
      "midi": 41,
      "hit": false,
      "t": 182177.99599999835,
      "d": 642.2459999999846,
      "v": 98
    },
    {
      "midi": 57,
      "hit": false,
      "t": 182739.23799999835,
      "d": 260.36999999999534,
      "v": 102
    },
    {
      "midi": 60,
      "hit": false,
      "t": 182739.23799999835,
      "d": 260.36999999999534,
      "v": 98
    },
    {
      "midi": 52,
      "hit": false,
      "t": 182739.23799999835,
      "d": 283.5139999999956,
      "v": 110
    },
    {
      "midi": 41,
      "hit": false,
      "t": 183028.53799999834,
      "d": 86.79000000000815,
      "v": 91
    },
    {
      "midi": 41,
      "hit": false,
      "t": 183306.26599999834,
      "d": 584.3859999999986,
      "v": 92
    },
    {
      "midi": 57,
      "hit": false,
      "t": 183850.14999999834,
      "d": 370.3040000000037,
      "v": 98
    },
    {
      "midi": 60,
      "hit": false,
      "t": 183850.14999999834,
      "d": 370.3040000000037,
      "v": 92
    },
    {
      "midi": 52,
      "hit": false,
      "t": 183850.14999999834,
      "d": 393.44800000000396,
      "v": 108
    },
    {
      "midi": 41,
      "hit": false,
      "t": 184133.66399999833,
      "d": 277.7280000000028,
      "v": 98
    },
    {
      "midi": 43,
      "hit": false,
      "t": 184428.74999999834,
      "d": 572.8139999999839,
      "v": 95
    },
    {
      "midi": 55,
      "hit": false,
      "t": 184966.84799999834,
      "d": 237.2259999999951,
      "v": 92
    },
    {
      "midi": 59,
      "hit": false,
      "t": 184966.84799999834,
      "d": 237.2259999999951,
      "v": 90
    },
    {
      "midi": 50,
      "hit": false,
      "t": 184966.84799999834,
      "d": 260.36999999999534,
      "v": 100
    },
    {
      "midi": 43,
      "hit": false,
      "t": 185256.14799999833,
      "d": 86.79000000000815,
      "v": 88
    },
    {
      "midi": 50,
      "hit": false,
      "t": 185522.30399999834,
      "d": 1070.4100000000035,
      "v": 106
    },
    {
      "midi": 55,
      "hit": false,
      "t": 185522.30399999834,
      "d": 1070.4100000000035,
      "v": 102
    },
    {
      "midi": 59,
      "hit": false,
      "t": 185522.30399999834,
      "d": 1070.4100000000035,
      "v": 97
    },
    {
      "midi": 43,
      "hit": false,
      "t": 185528.08999999834,
      "d": 1081.9820000000182,
      "v": 98
    },
    {
      "midi": 41,
      "hit": false,
      "t": 186633.21599999836,
      "d": 572.814000000013,
      "v": 92
    },
    {
      "midi": 53,
      "hit": false,
      "t": 187188.67199999836,
      "d": 381.8759999999893,
      "v": 104
    },
    {
      "midi": 57,
      "hit": false,
      "t": 187188.67199999836,
      "d": 381.8759999999893,
      "v": 90
    },
    {
      "midi": 48,
      "hit": false,
      "t": 187188.67199999836,
      "d": 405.0199999999895,
      "v": 102
    },
    {
      "midi": 41,
      "hit": false,
      "t": 187460.61399999837,
      "d": 75.21799999999348,
      "v": 91
    },
    {
      "midi": 41,
      "hit": false,
      "t": 187744.12799999834,
      "d": 607.5299999999988,
      "v": 97
    },
    {
      "midi": 48,
      "hit": false,
      "t": 188293.79799999835,
      "d": 335.5879999999597,
      "v": 108
    },
    {
      "midi": 53,
      "hit": false,
      "t": 188293.79799999835,
      "d": 335.5879999999597,
      "v": 108
    },
    {
      "midi": 57,
      "hit": false,
      "t": 188293.79799999835,
      "d": 335.5879999999597,
      "v": 98
    },
    {
      "midi": 41,
      "hit": false,
      "t": 188571.52599999832,
      "d": 277.7279999999737,
      "v": 102
    },
    {
      "midi": 43,
      "hit": false,
      "t": 188860.82599999828,
      "d": 584.3859999999986,
      "v": 104
    },
    {
      "midi": 55,
      "hit": false,
      "t": 189410.4959999983,
      "d": 202.5099999999802,
      "v": 100
    },
    {
      "midi": 59,
      "hit": false,
      "t": 189410.4959999983,
      "d": 202.5099999999802,
      "v": 92
    },
    {
      "midi": 50,
      "hit": false,
      "t": 189410.4959999983,
      "d": 225.65399999998044,
      "v": 104
    },
    {
      "midi": 43,
      "hit": false,
      "t": 189694.00999999826,
      "d": 75.21799999999348,
      "v": 87
    },
    {
      "midi": 50,
      "hit": false,
      "t": 189960.16599999825,
      "d": 948.9039999999804,
      "v": 110
    },
    {
      "midi": 55,
      "hit": false,
      "t": 189960.16599999825,
      "d": 972.0479999999807,
      "v": 104
    },
    {
      "midi": 59,
      "hit": false,
      "t": 189960.16599999825,
      "d": 972.0479999999807,
      "v": 100
    },
    {
      "midi": 43,
      "hit": false,
      "t": 189965.95199999824,
      "d": 1110.911999999982,
      "v": 100
    },
    {
      "midi": 41,
      "hit": false,
      "t": 191082.64999999822,
      "d": 572.814000000013,
      "v": 102
    },
    {
      "midi": 52,
      "hit": false,
      "t": 191638.10599999822,
      "d": 428.16400000001886,
      "v": 106
    },
    {
      "midi": 60,
      "hit": false,
      "t": 191638.10599999822,
      "d": 428.16400000001886,
      "v": 71
    },
    {
      "midi": 57,
      "hit": false,
      "t": 191638.10599999822,
      "d": 439.7360000000044,
      "v": 100
    },
    {
      "midi": 41,
      "hit": false,
      "t": 191910.04799999823,
      "d": 86.79000000000815,
      "v": 90
    },
    {
      "midi": 41,
      "hit": false,
      "t": 192181.98999999822,
      "d": 642.2460000000137,
      "v": 95
    },
    {
      "midi": 57,
      "hit": false,
      "t": 192737.44599999822,
      "d": 381.8759999999893,
      "v": 97
    },
    {
      "midi": 60,
      "hit": false,
      "t": 192737.44599999822,
      "d": 381.8759999999893,
      "v": 95
    },
    {
      "midi": 52,
      "hit": false,
      "t": 192737.44599999822,
      "d": 405.0199999999895,
      "v": 104
    },
    {
      "midi": 41,
      "hit": false,
      "t": 193020.95999999822,
      "d": 277.7280000000028,
      "v": 94
    },
    {
      "midi": 43,
      "hit": false,
      "t": 193304.4739999982,
      "d": 630.6739999999991,
      "v": 102
    },
    {
      "midi": 55,
      "hit": false,
      "t": 193859.92999999822,
      "d": 156.22199999997974,
      "v": 91
    },
    {
      "midi": 50,
      "hit": false,
      "t": 193859.92999999822,
      "d": 179.36599999997998,
      "v": 100
    },
    {
      "midi": 59,
      "hit": false,
      "t": 193859.92999999822,
      "d": 179.36599999997998,
      "v": 92
    },
    {
      "midi": 43,
      "hit": false,
      "t": 194137.6579999982,
      "d": 75.21799999999348,
      "v": 85
    },
    {
      "midi": 50,
      "hit": false,
      "t": 194403.81399999818,
      "d": 1116.698000000004,
      "v": 108
    },
    {
      "midi": 55,
      "hit": false,
      "t": 194403.81399999818,
      "d": 1116.698000000004,
      "v": 104
    },
    {
      "midi": 59,
      "hit": false,
      "t": 194403.81399999818,
      "d": 1116.698000000004,
      "v": 98
    },
    {
      "midi": 43,
      "hit": false,
      "t": 194415.38599999817,
      "d": 948.9040000000095,
      "v": 100
    },
    {
      "midi": 41,
      "hit": false,
      "t": 195520.51199999818,
      "d": 607.5299999999988,
      "v": 100
    },
    {
      "midi": 48,
      "hit": false,
      "t": 196070.1819999982,
      "d": 393.44800000000396,
      "v": 104
    },
    {
      "midi": 53,
      "hit": false,
      "t": 196070.1819999982,
      "d": 393.44800000000396,
      "v": 102
    },
    {
      "midi": 57,
      "hit": false,
      "t": 196070.1819999982,
      "d": 393.44800000000396,
      "v": 97
    },
    {
      "midi": 41,
      "hit": false,
      "t": 196353.6959999982,
      "d": 109.93400000000838,
      "v": 95
    },
    {
      "midi": 41,
      "hit": false,
      "t": 196631.4239999982,
      "d": 549.6700000000128,
      "v": 94
    },
    {
      "midi": 48,
      "hit": false,
      "t": 197186.8799999982,
      "d": 428.16400000001886,
      "v": 108
    },
    {
      "midi": 53,
      "hit": false,
      "t": 197186.8799999982,
      "d": 428.16400000001886,
      "v": 104
    },
    {
      "midi": 57,
      "hit": false,
      "t": 197186.8799999982,
      "d": 428.16400000001886,
      "v": 98
    },
    {
      "midi": 41,
      "hit": false,
      "t": 197458.8219999982,
      "d": 277.7280000000028,
      "v": 102
    },
    {
      "midi": 43,
      "hit": false,
      "t": 197748.1219999982,
      "d": 619.1020000000135,
      "v": 100
    },
    {
      "midi": 55,
      "hit": false,
      "t": 198297.7919999982,
      "d": 190.93799999996554,
      "v": 100
    },
    {
      "midi": 59,
      "hit": false,
      "t": 198303.5779999982,
      "d": 167.7939999999944,
      "v": 91
    },
    {
      "midi": 50,
      "hit": false,
      "t": 198303.5779999982,
      "d": 179.36599999997998,
      "v": 102
    },
    {
      "midi": 43,
      "hit": false,
      "t": 198581.30599999818,
      "d": 69.4320000000007,
      "v": 95
    },
    {
      "midi": 50,
      "hit": false,
      "t": 198847.46199999817,
      "d": 416.5920000000042,
      "v": 108
    },
    {
      "midi": 55,
      "hit": false,
      "t": 198847.46199999817,
      "d": 439.7360000000044,
      "v": 104
    },
    {
      "midi": 59,
      "hit": false,
      "t": 198847.46199999817,
      "d": 451.30799999999,
      "v": 92
    },
    {
      "midi": 43,
      "hit": false,
      "t": 198853.24799999816,
      "d": 810.0400000000081,
      "v": 102
    },
    {
      "midi": 41,
      "hit": false,
      "t": 199958.37399999818,
      "d": 133.0779999999795,
      "v": 102
    },
    {
      "midi": 64,
      "hit": false,
      "t": 199969.94599999816,
      "d": 156.22199999997974,
      "v": 86
    },
    {
      "midi": 57,
      "hit": false,
      "t": 199969.94599999816,
      "d": 167.7939999999653,
      "v": 98
    },
    {
      "midi": 53,
      "hit": false,
      "t": 199969.94599999816,
      "d": 202.5099999999511,
      "v": 108
    },
    {
      "midi": 60,
      "hit": false,
      "t": 199969.94599999816,
      "d": 202.5099999999511,
      "v": 95
    },
    {
      "midi": 41,
      "hit": false,
      "t": 200519.61599999812,
      "d": 1116.698000000004,
      "v": 110
    },
    {
      "midi": 57,
      "hit": false,
      "t": 200525.4019999981,
      "d": 1203.488000000012,
      "v": 102
    },
    {
      "midi": 53,
      "hit": false,
      "t": 200525.4019999981,
      "d": 1215.0599999999977,
      "v": 112
    },
    {
      "midi": 60,
      "hit": false,
      "t": 200525.4019999981,
      "d": 1215.0599999999977,
      "v": 94
    },
    {
      "midi": 64,
      "hit": false,
      "t": 200525.4019999981,
      "d": 1215.0599999999977,
      "v": 88
    },
    {
      "midi": 41,
      "hit": false,
      "t": 201908.2559999981,
      "d": 237.225999999966,
      "v": 120
    },
    {
      "midi": 57,
      "hit": false,
      "t": 201919.8279999981,
      "d": 75.21799999999348,
      "v": 98
    },
    {
      "midi": 53,
      "hit": false,
      "t": 201919.8279999981,
      "d": 109.93399999997928,
      "v": 122
    },
    {
      "midi": 60,
      "hit": false,
      "t": 201919.8279999981,
      "d": 109.93399999997928,
      "v": 95
    },
    {
      "midi": 64,
      "hit": false,
      "t": 201919.8279999981,
      "d": 133.0779999999795,
      "v": 98
    },
    {
      "midi": 43,
      "hit": false,
      "t": 202469.49799999807,
      "d": 248.79800000000978,
      "v": 112
    },
    {
      "midi": 57,
      "hit": false,
      "t": 202741.43999999808,
      "d": 190.93799999999464,
      "v": 87
    },
    {
      "midi": 60,
      "hit": false,
      "t": 202741.43999999808,
      "d": 202.5099999999802,
      "v": 72
    },
    {
      "midi": 53,
      "hit": false,
      "t": 202741.43999999808,
      "d": 225.65399999998044,
      "v": 100
    },
    {
      "midi": 64,
      "hit": false,
      "t": 202741.43999999808,
      "d": 225.65399999998044,
      "v": 88
    },
    {
      "midi": 43,
      "hit": false,
      "t": 203019.16799999806,
      "d": 75.21799999999348,
      "v": 88
    },
    {
      "midi": 43,
      "hit": false,
      "t": 203296.89599999806,
      "d": 804.2539999999863,
      "v": 112
    },
    {
      "midi": 53,
      "hit": false,
      "t": 203296.89599999806,
      "d": 902.6159999999509,
      "v": 110
    },
    {
      "midi": 60,
      "hit": false,
      "t": 203296.89599999806,
      "d": 914.1879999999364,
      "v": 98
    },
    {
      "midi": 64,
      "hit": false,
      "t": 203302.68199999805,
      "d": 879.4719999999797,
      "v": 97
    },
    {
      "midi": 57,
      "hit": false,
      "t": 203302.68199999805,
      "d": 891.0439999999653,
      "v": 97
    },
    {
      "midi": 53,
      "hit": false,
      "t": 204407.80799999798,
      "d": 156.22199999997974,
      "v": 92
    },
    {
      "midi": 41,
      "hit": false,
      "t": 204407.80799999798,
      "d": 179.36599999997998,
      "v": 102
    },
    {
      "midi": 57,
      "hit": false,
      "t": 204413.59399999797,
      "d": 109.93400000000838,
      "v": 83
    },
    {
      "midi": 64,
      "hit": false,
      "t": 204413.59399999797,
      "d": 121.50599999999395,
      "v": 84
    },
    {
      "midi": 60,
      "hit": false,
      "t": 204413.59399999797,
      "d": 133.0779999999795,
      "v": 86
    },
    {
      "midi": 41,
      "hit": false,
      "t": 204957.47799999797,
      "d": 1093.5539999999746,
      "v": 100
    },
    {
      "midi": 64,
      "hit": false,
      "t": 204969.04999999795,
      "d": 1151.4139999999898,
      "v": 98
    },
    {
      "midi": 53,
      "hit": false,
      "t": 204969.04999999795,
      "d": 1162.9859999999753,
      "v": 110
    },
    {
      "midi": 57,
      "hit": false,
      "t": 204969.04999999795,
      "d": 1162.9859999999753,
      "v": 104
    },
    {
      "midi": 60,
      "hit": false,
      "t": 204969.04999999795,
      "d": 1162.9859999999753,
      "v": 100
    },
    {
      "midi": 41,
      "hit": false,
      "t": 206346.11799999792,
      "d": 266.1559999999881,
      "v": 110
    },
    {
      "midi": 60,
      "hit": false,
      "t": 206357.6899999979,
      "d": 225.65400000000955,
      "v": 92
    },
    {
      "midi": 64,
      "hit": false,
      "t": 206357.6899999979,
      "d": 237.2259999999951,
      "v": 88
    },
    {
      "midi": 112,
      "hit": false,
      "t": 206357.6899999979,
      "d": 50708.50399999888,
      "v": 57
    },
    {
      "midi": 43,
      "hit": false,
      "t": 206901.5739999979,
      "d": 214.08199999999488,
      "v": 117
    },
    {
      "midi": 55,
      "hit": false,
      "t": 207179.3019999979,
      "d": 133.07800000000861,
      "v": 87
    },
    {
      "midi": 59,
      "hit": false,
      "t": 207179.3019999979,
      "d": 144.64999999999418,
      "v": 66
    },
    {
      "midi": 62,
      "hit": false,
      "t": 207179.3019999979,
      "d": 167.7939999999944,
      "v": 87
    },
    {
      "midi": 53,
      "hit": false,
      "t": 207179.3019999979,
      "d": 179.36599999997998,
      "v": 98
    },
    {
      "midi": 43,
      "hit": false,
      "t": 207462.81599999787,
      "d": 86.79000000000815,
      "v": 108
    },
    {
      "midi": 53,
      "hit": false,
      "t": 207734.75799999788,
      "d": 844.755999999994,
      "v": 117
    },
    {
      "midi": 59,
      "hit": false,
      "t": 207734.75799999788,
      "d": 856.3279999999795,
      "v": 104
    },
    {
      "midi": 62,
      "hit": false,
      "t": 207734.75799999788,
      "d": 856.3279999999795,
      "v": 97
    },
    {
      "midi": 43,
      "hit": false,
      "t": 207740.54399999787,
      "d": 775.3239999999932,
      "v": 112
    },
    {
      "midi": 55,
      "hit": false,
      "t": 207740.54399999787,
      "d": 821.6119999999937,
      "v": 100
    },
    {
      "midi": 41,
      "hit": false,
      "t": 208839.88399999787,
      "d": 283.5139999999956,
      "v": 102
    },
    {
      "midi": 53,
      "hit": false,
      "t": 208845.66999999786,
      "d": 121.50599999999395,
      "v": 92
    },
    {
      "midi": 60,
      "hit": false,
      "t": 208845.66999999786,
      "d": 144.64999999999418,
      "v": 87
    },
    {
      "midi": 57,
      "hit": false,
      "t": 208851.45599999785,
      "d": 109.93400000000838,
      "v": 57
    },
    {
      "midi": 64,
      "hit": false,
      "t": 208851.45599999785,
      "d": 109.93400000000838,
      "v": 60
    },
    {
      "midi": 57,
      "hit": false,
      "t": 209401.12599999786,
      "d": 960.4759999999951,
      "v": 92
    },
    {
      "midi": 53,
      "hit": false,
      "t": 209401.12599999786,
      "d": 972.0479999999807,
      "v": 102
    },
    {
      "midi": 60,
      "hit": false,
      "t": 209401.12599999786,
      "d": 972.0479999999807,
      "v": 92
    },
    {
      "midi": 64,
      "hit": false,
      "t": 209406.91199999786,
      "d": 960.4759999999951,
      "v": 94
    },
    {
      "midi": 41,
      "hit": false,
      "t": 209406.91199999786,
      "d": 1105.1259999999893,
      "v": 100
    },
    {
      "midi": 41,
      "hit": false,
      "t": 210789.76599999785,
      "d": 248.79799999995157,
      "v": 114
    },
    {
      "midi": 57,
      "hit": false,
      "t": 210801.33799999784,
      "d": 98.36199999999371,
      "v": 97
    },
    {
      "midi": 60,
      "hit": false,
      "t": 210801.33799999784,
      "d": 109.93399999997928,
      "v": 85
    },
    {
      "midi": 53,
      "hit": false,
      "t": 210801.33799999784,
      "d": 133.0779999999795,
      "v": 106
    },
    {
      "midi": 64,
      "hit": false,
      "t": 210801.33799999784,
      "d": 133.0779999999795,
      "v": 95
    },
    {
      "midi": 43,
      "hit": false,
      "t": 211622.9499999978,
      "d": 1388.6399999999849,
      "v": 108
    },
    {
      "midi": 64,
      "hit": false,
      "t": 211628.7359999978,
      "d": 1377.0679999999993,
      "v": 97
    },
    {
      "midi": 53,
      "hit": false,
      "t": 211628.7359999978,
      "d": 1388.6399999999849,
      "v": 112
    },
    {
      "midi": 57,
      "hit": false,
      "t": 211628.7359999978,
      "d": 1388.6399999999849,
      "v": 102
    },
    {
      "midi": 60,
      "hit": false,
      "t": 211628.7359999978,
      "d": 1388.6399999999849,
      "v": 97
    },
    {
      "midi": 60,
      "hit": false,
      "t": 213289.3179999978,
      "d": 190.93799999999464,
      "v": 92
    },
    {
      "midi": 53,
      "hit": false,
      "t": 213289.3179999978,
      "d": 214.08199999999488,
      "v": 100
    },
    {
      "midi": 57,
      "hit": false,
      "t": 213295.10399999778,
      "d": 179.36600000000908,
      "v": 91
    },
    {
      "midi": 64,
      "hit": false,
      "t": 213295.10399999778,
      "d": 179.36600000000908,
      "v": 90
    },
    {
      "midi": 41,
      "hit": false,
      "t": 213295.10399999778,
      "d": 202.5100000000093,
      "v": 100
    },
    {
      "midi": 41,
      "hit": false,
      "t": 213844.7739999978,
      "d": 1174.5579999999609,
      "v": 104
    },
    {
      "midi": 53,
      "hit": false,
      "t": 213850.5599999978,
      "d": 1128.2699999999895,
      "v": 110
    },
    {
      "midi": 57,
      "hit": false,
      "t": 213850.5599999978,
      "d": 1128.2699999999895,
      "v": 104
    },
    {
      "midi": 64,
      "hit": false,
      "t": 213850.5599999978,
      "d": 1128.2699999999895,
      "v": 100
    },
    {
      "midi": 60,
      "hit": false,
      "t": 213850.5599999978,
      "d": 1139.841999999975,
      "v": 102
    },
    {
      "midi": 41,
      "hit": false,
      "t": 215239.19999999774,
      "d": 237.225999999966,
      "v": 117
    },
    {
      "midi": 57,
      "hit": false,
      "t": 215244.98599999773,
      "d": 121.50599999999395,
      "v": 98
    },
    {
      "midi": 64,
      "hit": false,
      "t": 215244.98599999773,
      "d": 121.50599999999395,
      "v": 90
    },
    {
      "midi": 60,
      "hit": false,
      "t": 215244.98599999773,
      "d": 144.64999999999418,
      "v": 95
    },
    {
      "midi": 53,
      "hit": false,
      "t": 215244.98599999773,
      "d": 156.22199999997974,
      "v": 110
    },
    {
      "midi": 43,
      "hit": false,
      "t": 215794.65599999772,
      "d": 202.5100000000093,
      "v": 108
    },
    {
      "midi": 53,
      "hit": false,
      "t": 216060.81199999774,
      "d": 214.08199999999488,
      "v": 102
    },
    {
      "midi": 57,
      "hit": false,
      "t": 216066.59799999773,
      "d": 167.7939999999944,
      "v": 95
    },
    {
      "midi": 64,
      "hit": false,
      "t": 216066.59799999773,
      "d": 167.7939999999944,
      "v": 88
    },
    {
      "midi": 60,
      "hit": false,
      "t": 216066.59799999773,
      "d": 190.93799999999464,
      "v": 91
    },
    {
      "midi": 43,
      "hit": false,
      "t": 216355.89799999772,
      "d": 81.00399999998626,
      "v": 85
    },
    {
      "midi": 53,
      "hit": false,
      "t": 216627.8399999977,
      "d": 821.6119999999937,
      "v": 110
    },
    {
      "midi": 57,
      "hit": false,
      "t": 216627.8399999977,
      "d": 821.6119999999937,
      "v": 100
    },
    {
      "midi": 60,
      "hit": false,
      "t": 216627.8399999977,
      "d": 821.6119999999937,
      "v": 97
    },
    {
      "midi": 64,
      "hit": false,
      "t": 216627.8399999977,
      "d": 821.6119999999937,
      "v": 95
    },
    {
      "midi": 43,
      "hit": false,
      "t": 216627.8399999977,
      "d": 1070.4100000000035,
      "v": 122
    },
    {
      "midi": 41,
      "hit": false,
      "t": 217727.1799999977,
      "d": 202.5099999999511,
      "v": 97
    },
    {
      "midi": 57,
      "hit": false,
      "t": 217738.75199999768,
      "d": 167.7939999999944,
      "v": 94
    },
    {
      "midi": 64,
      "hit": false,
      "t": 217738.75199999768,
      "d": 179.36599999997998,
      "v": 91
    },
    {
      "midi": 60,
      "hit": false,
      "t": 217738.75199999768,
      "d": 190.93799999996554,
      "v": 92
    },
    {
      "midi": 53,
      "hit": false,
      "t": 217738.75199999768,
      "d": 214.08199999996577,
      "v": 102
    },
    {
      "midi": 53,
      "hit": false,
      "t": 218294.20799999766,
      "d": 1093.5540000000037,
      "v": 110
    },
    {
      "midi": 57,
      "hit": false,
      "t": 218294.20799999766,
      "d": 1093.5540000000037,
      "v": 100
    },
    {
      "midi": 64,
      "hit": false,
      "t": 218294.20799999766,
      "d": 1093.5540000000037,
      "v": 95
    },
    {
      "midi": 60,
      "hit": false,
      "t": 218294.20799999766,
      "d": 1105.1259999999893,
      "v": 102
    },
    {
      "midi": 41,
      "hit": false,
      "t": 218294.20799999766,
      "d": 1139.841999999975,
      "v": 104
    },
    {
      "midi": 57,
      "hit": false,
      "t": 219682.84799999764,
      "d": 144.64999999999418,
      "v": 104
    },
    {
      "midi": 64,
      "hit": false,
      "t": 219682.84799999764,
      "d": 156.22199999997974,
      "v": 92
    },
    {
      "midi": 60,
      "hit": false,
      "t": 219682.84799999764,
      "d": 167.7939999999653,
      "v": 98
    },
    {
      "midi": 53,
      "hit": false,
      "t": 219682.84799999764,
      "d": 179.36599999995087,
      "v": 114
    },
    {
      "midi": 41,
      "hit": false,
      "t": 219688.63399999763,
      "d": 260.36999999996624,
      "v": 120
    },
    {
      "midi": 43,
      "hit": false,
      "t": 220238.3039999976,
      "d": 295.08600000001024,
      "v": 120
    },
    {
      "midi": 55,
      "hit": false,
      "t": 220510.2459999976,
      "d": 202.5100000000093,
      "v": 95
    },
    {
      "midi": 62,
      "hit": false,
      "t": 220510.2459999976,
      "d": 202.5100000000093,
      "v": 86
    },
    {
      "midi": 59,
      "hit": false,
      "t": 220510.2459999976,
      "d": 214.08199999999488,
      "v": 90
    },
    {
      "midi": 53,
      "hit": false,
      "t": 220510.2459999976,
      "d": 225.65399999998044,
      "v": 102
    },
    {
      "midi": 53,
      "hit": false,
      "t": 221065.70199999757,
      "d": 867.8999999999942,
      "v": 112
    },
    {
      "midi": 55,
      "hit": false,
      "t": 221065.70199999757,
      "d": 867.8999999999942,
      "v": 104
    },
    {
      "midi": 59,
      "hit": false,
      "t": 221065.70199999757,
      "d": 867.8999999999942,
      "v": 104
    },
    {
      "midi": 62,
      "hit": false,
      "t": 221065.70199999757,
      "d": 867.8999999999942,
      "v": 102
    },
    {
      "midi": 43,
      "hit": false,
      "t": 221071.48799999757,
      "d": 1081.981999999989,
      "v": 114
    },
    {
      "midi": 41,
      "hit": false,
      "t": 222176.61399999756,
      "d": 167.7939999999944,
      "v": 102
    },
    {
      "midi": 60,
      "hit": false,
      "t": 222182.39999999755,
      "d": 179.36600000000908,
      "v": 83
    },
    {
      "midi": 53,
      "hit": false,
      "t": 222182.39999999755,
      "d": 214.08199999999488,
      "v": 88
    },
    {
      "midi": 57,
      "hit": false,
      "t": 222188.18599999754,
      "d": 156.22200000000885,
      "v": 66
    },
    {
      "midi": 64,
      "hit": false,
      "t": 222188.18599999754,
      "d": 179.36600000000908,
      "v": 80
    },
    {
      "midi": 64,
      "hit": false,
      "t": 222737.85599999756,
      "d": 1070.4099999999744,
      "v": 97
    },
    {
      "midi": 53,
      "hit": false,
      "t": 222737.85599999756,
      "d": 1093.5539999999746,
      "v": 110
    },
    {
      "midi": 57,
      "hit": false,
      "t": 222737.85599999756,
      "d": 1093.5539999999746,
      "v": 97
    },
    {
      "midi": 60,
      "hit": false,
      "t": 222737.85599999756,
      "d": 1093.5539999999746,
      "v": 95
    },
    {
      "midi": 41,
      "hit": false,
      "t": 222743.64199999755,
      "d": 1058.8379999999888,
      "v": 104
    },
    {
      "midi": 57,
      "hit": false,
      "t": 224126.49599999754,
      "d": 283.5139999999956,
      "v": 100
    },
    {
      "midi": 60,
      "hit": false,
      "t": 224126.49599999754,
      "d": 283.5139999999956,
      "v": 94
    },
    {
      "midi": 53,
      "hit": false,
      "t": 224126.49599999754,
      "d": 306.6579999999958,
      "v": 108
    },
    {
      "midi": 41,
      "hit": false,
      "t": 224132.28199999753,
      "d": 214.08199999999488,
      "v": 117
    },
    {
      "midi": 64,
      "hit": false,
      "t": 224132.28199999753,
      "d": 283.5139999999956,
      "v": 94
    },
    {
      "midi": 43,
      "hit": false,
      "t": 224681.95199999755,
      "d": 98.36199999999371,
      "v": 106
    },
    {
      "midi": 57,
      "hit": false,
      "t": 224953.89399999753,
      "d": 202.5100000000093,
      "v": 88
    },
    {
      "midi": 53,
      "hit": false,
      "t": 224953.89399999753,
      "d": 214.08199999999488,
      "v": 95
    },
    {
      "midi": 64,
      "hit": false,
      "t": 224953.89399999753,
      "d": 214.08199999999488,
      "v": 91
    },
    {
      "midi": 60,
      "hit": false,
      "t": 224959.67999999752,
      "d": 156.22200000000885,
      "v": 75
    },
    {
      "midi": 43,
      "hit": false,
      "t": 225237.40799999752,
      "d": 63.646000000007916,
      "v": 110
    },
    {
      "midi": 57,
      "hit": false,
      "t": 225509.34999999753,
      "d": 792.6820000000007,
      "v": 98
    },
    {
      "midi": 64,
      "hit": false,
      "t": 225509.34999999753,
      "d": 792.6820000000007,
      "v": 97
    },
    {
      "midi": 53,
      "hit": false,
      "t": 225509.34999999753,
      "d": 804.2539999999863,
      "v": 108
    },
    {
      "midi": 60,
      "hit": false,
      "t": 225509.34999999753,
      "d": 804.2539999999863,
      "v": 102
    },
    {
      "midi": 43,
      "hit": false,
      "t": 225515.13599999752,
      "d": 1081.981999999989,
      "v": 112
    },
    {
      "midi": 41,
      "hit": false,
      "t": 226614.47599999752,
      "d": 295.08599999998114,
      "v": 92
    },
    {
      "midi": 64,
      "hit": false,
      "t": 226620.2619999975,
      "d": 202.5100000000093,
      "v": 84
    },
    {
      "midi": 53,
      "hit": false,
      "t": 226620.2619999975,
      "d": 214.08199999999488,
      "v": 92
    },
    {
      "midi": 57,
      "hit": false,
      "t": 226620.2619999975,
      "d": 214.08199999999488,
      "v": 87
    },
    {
      "midi": 60,
      "hit": false,
      "t": 226620.2619999975,
      "d": 214.08199999999488,
      "v": 86
    },
    {
      "midi": 53,
      "hit": false,
      "t": 227175.7179999975,
      "d": 1116.6979999999749,
      "v": 110
    },
    {
      "midi": 60,
      "hit": false,
      "t": 227181.50399999748,
      "d": 1093.5540000000037,
      "v": 95
    },
    {
      "midi": 57,
      "hit": false,
      "t": 227181.50399999748,
      "d": 1105.1259999999893,
      "v": 100
    },
    {
      "midi": 64,
      "hit": false,
      "t": 227181.50399999748,
      "d": 1105.1259999999893,
      "v": 97
    },
    {
      "midi": 41,
      "hit": false,
      "t": 227181.50399999748,
      "d": 1243.9899999999907,
      "v": 104
    },
    {
      "midi": 41,
      "hit": false,
      "t": 228558.57199999748,
      "d": 225.65399999998044,
      "v": 92
    },
    {
      "midi": 60,
      "hit": false,
      "t": 228570.14399999747,
      "d": 370.3039999999746,
      "v": 97
    },
    {
      "midi": 53,
      "hit": false,
      "t": 228570.14399999747,
      "d": 405.0199999999604,
      "v": 108
    },
    {
      "midi": 64,
      "hit": false,
      "t": 228575.92999999746,
      "d": 283.5139999999956,
      "v": 80
    },
    {
      "midi": 57,
      "hit": false,
      "t": 228575.92999999746,
      "d": 335.5879999999888,
      "v": 100
    },
    {
      "midi": 43,
      "hit": false,
      "t": 229131.38599999744,
      "d": 144.64999999999418,
      "v": 104
    },
    {
      "midi": 57,
      "hit": false,
      "t": 229397.54199999743,
      "d": 254.58399999997346,
      "v": 91
    },
    {
      "midi": 60,
      "hit": false,
      "t": 229397.54199999743,
      "d": 254.58399999997346,
      "v": 95
    },
    {
      "midi": 53,
      "hit": false,
      "t": 229397.54199999743,
      "d": 266.155999999959,
      "v": 98
    },
    {
      "midi": 64,
      "hit": false,
      "t": 229403.32799999742,
      "d": 57.85999999998603,
      "v": 72
    },
    {
      "midi": 43,
      "hit": false,
      "t": 229681.0559999974,
      "d": 57.85999999998603,
      "v": 80
    },
    {
      "midi": 53,
      "hit": false,
      "t": 229952.99799999737,
      "d": 763.7519999999786,
      "v": 106
    },
    {
      "midi": 57,
      "hit": false,
      "t": 229958.78399999737,
      "d": 729.0359999999928,
      "v": 98
    },
    {
      "midi": 60,
      "hit": false,
      "t": 229958.78399999737,
      "d": 763.7519999999786,
      "v": 97
    },
    {
      "midi": 43,
      "hit": false,
      "t": 229958.78399999737,
      "d": 1116.6979999999749,
      "v": 112
    },
    {
      "midi": 41,
      "hit": false,
      "t": 231063.90999999736,
      "d": 237.2259999999951,
      "v": 97
    },
    {
      "midi": 57,
      "hit": false,
      "t": 231063.90999999736,
      "d": 248.79799999998068,
      "v": 90
    },
    {
      "midi": 60,
      "hit": false,
      "t": 231063.90999999736,
      "d": 248.79799999998068,
      "v": 90
    },
    {
      "midi": 64,
      "hit": false,
      "t": 231063.90999999736,
      "d": 248.79799999998068,
      "v": 86
    },
    {
      "midi": 53,
      "hit": false,
      "t": 231063.90999999736,
      "d": 271.9419999999809,
      "v": 108
    },
    {
      "midi": 60,
      "hit": false,
      "t": 231625.15199999732,
      "d": 1105.1259999999893,
      "v": 97
    },
    {
      "midi": 64,
      "hit": false,
      "t": 231625.15199999732,
      "d": 1105.1259999999893,
      "v": 100
    },
    {
      "midi": 53,
      "hit": false,
      "t": 231625.15199999732,
      "d": 1116.6979999999749,
      "v": 110
    },
    {
      "midi": 57,
      "hit": false,
      "t": 231625.15199999732,
      "d": 1116.6979999999749,
      "v": 98
    },
    {
      "midi": 41,
      "hit": false,
      "t": 231630.93799999732,
      "d": 1116.6979999999749,
      "v": 108
    },
    {
      "midi": 60,
      "hit": false,
      "t": 233013.79199999728,
      "d": 324.01599999997416,
      "v": 95
    },
    {
      "midi": 53,
      "hit": false,
      "t": 233013.79199999728,
      "d": 335.5879999999597,
      "v": 110
    },
    {
      "midi": 57,
      "hit": false,
      "t": 233013.79199999728,
      "d": 335.5879999999597,
      "v": 100
    },
    {
      "midi": 64,
      "hit": false,
      "t": 233013.79199999728,
      "d": 370.3039999999455,
      "v": 100
    },
    {
      "midi": 41,
      "hit": false,
      "t": 233019.57799999727,
      "d": 237.2259999999951,
      "v": 114
    },
    {
      "midi": 43,
      "hit": false,
      "t": 233580.8199999972,
      "d": 167.7939999999944,
      "v": 104
    },
    {
      "midi": 64,
      "hit": false,
      "t": 233841.1899999972,
      "d": 202.5100000000093,
      "v": 90
    },
    {
      "midi": 53,
      "hit": false,
      "t": 233841.1899999972,
      "d": 214.08199999999488,
      "v": 110
    },
    {
      "midi": 57,
      "hit": false,
      "t": 233841.1899999972,
      "d": 214.08199999999488,
      "v": 94
    },
    {
      "midi": 60,
      "hit": false,
      "t": 233841.1899999972,
      "d": 214.08199999999488,
      "v": 92
    },
    {
      "midi": 43,
      "hit": false,
      "t": 234136.2759999972,
      "d": 57.85999999998603,
      "v": 94
    },
    {
      "midi": 55,
      "hit": false,
      "t": 234396.64599999718,
      "d": 723.25,
      "v": 108
    },
    {
      "midi": 59,
      "hit": false,
      "t": 234396.64599999718,
      "d": 734.8219999999856,
      "v": 104
    },
    {
      "midi": 43,
      "hit": false,
      "t": 234396.64599999718,
      "d": 960.4759999999951,
      "v": 106
    },
    {
      "midi": 60,
      "hit": false,
      "t": 235507.55799999717,
      "d": 179.36599999997998,
      "v": 92
    },
    {
      "midi": 53,
      "hit": false,
      "t": 235507.55799999717,
      "d": 202.5099999999802,
      "v": 110
    },
    {
      "midi": 41,
      "hit": false,
      "t": 235507.55799999717,
      "d": 237.225999999966,
      "v": 98
    },
    {
      "midi": 57,
      "hit": false,
      "t": 235513.34399999716,
      "d": 144.64999999999418,
      "v": 90
    },
    {
      "midi": 64,
      "hit": false,
      "t": 235513.34399999716,
      "d": 156.22199999997974,
      "v": 79
    },
    {
      "midi": 53,
      "hit": false,
      "t": 236063.01399999714,
      "d": 1324.993999999977,
      "v": 108
    },
    {
      "midi": 57,
      "hit": false,
      "t": 236068.79999999714,
      "d": 1162.9860000000044,
      "v": 98
    },
    {
      "midi": 60,
      "hit": false,
      "t": 236068.79999999714,
      "d": 1174.55799999999,
      "v": 97
    },
    {
      "midi": 64,
      "hit": false,
      "t": 236068.79999999714,
      "d": 1174.55799999999,
      "v": 95
    },
    {
      "midi": 41,
      "hit": false,
      "t": 236068.79999999714,
      "d": 1365.4959999999846,
      "v": 108
    },
    {
      "midi": 41,
      "hit": false,
      "t": 237457.43999999712,
      "d": 237.225999999966,
      "v": 102
    },
    {
      "midi": 57,
      "hit": false,
      "t": 237463.2259999971,
      "d": 179.36600000000908,
      "v": 98
    },
    {
      "midi": 64,
      "hit": false,
      "t": 237463.2259999971,
      "d": 190.93799999999464,
      "v": 86
    },
    {
      "midi": 60,
      "hit": false,
      "t": 237463.2259999971,
      "d": 202.5099999999802,
      "v": 98
    },
    {
      "midi": 53,
      "hit": false,
      "t": 237463.2259999971,
      "d": 214.08199999996577,
      "v": 110
    },
    {
      "midi": 43,
      "hit": false,
      "t": 238024.46799999708,
      "d": 121.50599999999395,
      "v": 117
    },
    {
      "midi": 57,
      "hit": false,
      "t": 238284.83799999708,
      "d": 202.5100000000093,
      "v": 95
    },
    {
      "midi": 53,
      "hit": false,
      "t": 238284.83799999708,
      "d": 248.79800000000978,
      "v": 108
    },
    {
      "midi": 43,
      "hit": false,
      "t": 238574.1379999971,
      "d": 69.4320000000007,
      "v": 86
    },
    {
      "midi": 57,
      "hit": false,
      "t": 238846.0799999971,
      "d": 1012.5499999999884,
      "v": 102
    },
    {
      "midi": 43,
      "hit": false,
      "t": 238846.0799999971,
      "d": 1058.8379999999888,
      "v": 106
    },
    {
      "midi": 53,
      "hit": false,
      "t": 238846.0799999971,
      "d": 1099.3399999999965,
      "v": 112
    },
    {
      "midi": 60,
      "hit": false,
      "t": 238846.0799999971,
      "d": 1099.3399999999965,
      "v": 100
    },
    {
      "midi": 64,
      "hit": false,
      "t": 238851.8659999971,
      "d": 1099.3399999999965,
      "v": 100
    },
    {
      "midi": 41,
      "hit": false,
      "t": 239951.2059999971,
      "d": 190.93799999996554,
      "v": 92
    },
    {
      "midi": 60,
      "hit": false,
      "t": 239956.9919999971,
      "d": 167.7939999999944,
      "v": 92
    },
    {
      "midi": 53,
      "hit": false,
      "t": 239956.9919999971,
      "d": 179.36599999997998,
      "v": 104
    },
    {
      "midi": 57,
      "hit": false,
      "t": 239962.77799999708,
      "d": 133.07800000000861,
      "v": 88
    },
    {
      "midi": 64,
      "hit": false,
      "t": 239962.77799999708,
      "d": 133.07800000000861,
      "v": 90
    },
    {
      "midi": 41,
      "hit": false,
      "t": 240512.44799999706,
      "d": 1342.3519999999844,
      "v": 104
    },
    {
      "midi": 57,
      "hit": false,
      "t": 240518.23399999706,
      "d": 1128.2699999999895,
      "v": 100
    },
    {
      "midi": 60,
      "hit": false,
      "t": 240518.23399999706,
      "d": 1128.2699999999895,
      "v": 98
    },
    {
      "midi": 64,
      "hit": false,
      "t": 240518.23399999706,
      "d": 1128.2699999999895,
      "v": 95
    },
    {
      "midi": 53,
      "hit": false,
      "t": 240518.23399999706,
      "d": 1151.4139999999898,
      "v": 112
    },
    {
      "midi": 41,
      "hit": false,
      "t": 241889.51599999703,
      "d": 237.2259999999951,
      "v": 100
    },
    {
      "midi": 57,
      "hit": false,
      "t": 241906.87399999704,
      "d": 86.79000000000815,
      "v": 95
    },
    {
      "midi": 64,
      "hit": false,
      "t": 241906.87399999704,
      "d": 98.36199999999371,
      "v": 91
    },
    {
      "midi": 60,
      "hit": false,
      "t": 241906.87399999704,
      "d": 121.50599999999395,
      "v": 97
    },
    {
      "midi": 53,
      "hit": false,
      "t": 241906.87399999704,
      "d": 133.0779999999795,
      "v": 110
    },
    {
      "midi": 43,
      "hit": false,
      "t": 242456.54399999703,
      "d": 133.07800000000861,
      "v": 106
    },
    {
      "midi": 53,
      "hit": false,
      "t": 242728.48599999704,
      "d": 237.225999999966,
      "v": 110
    },
    {
      "midi": 64,
      "hit": false,
      "t": 242734.27199999703,
      "d": 202.5100000000093,
      "v": 91
    },
    {
      "midi": 57,
      "hit": false,
      "t": 242734.27199999703,
      "d": 214.08199999999488,
      "v": 98
    },
    {
      "midi": 60,
      "hit": false,
      "t": 242734.27199999703,
      "d": 225.65399999998044,
      "v": 94
    },
    {
      "midi": 43,
      "hit": false,
      "t": 243006.213999997,
      "d": 63.646000000007916,
      "v": 90
    },
    {
      "midi": 57,
      "hit": false,
      "t": 243283.941999997,
      "d": 775.3239999999932,
      "v": 104
    },
    {
      "midi": 53,
      "hit": false,
      "t": 243283.941999997,
      "d": 798.4679999999935,
      "v": 110
    },
    {
      "midi": 60,
      "hit": false,
      "t": 243289.727999997,
      "d": 775.3239999999932,
      "v": 97
    },
    {
      "midi": 64,
      "hit": false,
      "t": 243289.727999997,
      "d": 775.3239999999932,
      "v": 91
    },
    {
      "midi": 43,
      "hit": false,
      "t": 243289.727999997,
      "d": 1105.1259999999893,
      "v": 117
    },
    {
      "midi": 57,
      "hit": false,
      "t": 244394.853999997,
      "d": 202.5100000000093,
      "v": 95
    },
    {
      "midi": 60,
      "hit": false,
      "t": 244394.853999997,
      "d": 202.5100000000093,
      "v": 95
    },
    {
      "midi": 64,
      "hit": false,
      "t": 244394.853999997,
      "d": 202.5100000000093,
      "v": 95
    },
    {
      "midi": 53,
      "hit": false,
      "t": 244394.853999997,
      "d": 214.08199999999488,
      "v": 110
    },
    {
      "midi": 41,
      "hit": false,
      "t": 244394.853999997,
      "d": 237.2259999999951,
      "v": 97
    },
    {
      "midi": 41,
      "hit": false,
      "t": 244956.095999997,
      "d": 1197.7019999999902,
      "v": 98
    },
    {
      "midi": 64,
      "hit": false,
      "t": 244961.881999997,
      "d": 1093.5540000000037,
      "v": 98
    },
    {
      "midi": 53,
      "hit": false,
      "t": 244961.881999997,
      "d": 1116.698000000004,
      "v": 112
    },
    {
      "midi": 57,
      "hit": false,
      "t": 244961.881999997,
      "d": 1116.698000000004,
      "v": 100
    },
    {
      "midi": 60,
      "hit": false,
      "t": 244961.881999997,
      "d": 1116.698000000004,
      "v": 98
    },
    {
      "midi": 57,
      "hit": false,
      "t": 246350.52199999697,
      "d": 225.65400000000955,
      "v": 102
    },
    {
      "midi": 60,
      "hit": false,
      "t": 246350.52199999697,
      "d": 225.65400000000955,
      "v": 98
    },
    {
      "midi": 64,
      "hit": false,
      "t": 246350.52199999697,
      "d": 225.65400000000955,
      "v": 97
    },
    {
      "midi": 53,
      "hit": false,
      "t": 246350.52199999697,
      "d": 237.2259999999951,
      "v": 112
    },
    {
      "midi": 41,
      "hit": false,
      "t": 246350.52199999697,
      "d": 248.79799999998068,
      "v": 112
    },
    {
      "midi": 43,
      "hit": false,
      "t": 246894.40599999696,
      "d": 1915.1659999999974,
      "v": 108
    },
    {
      "midi": 60,
      "hit": false,
      "t": 247177.91999999696,
      "d": 1296.064000000013,
      "v": 95
    },
    {
      "midi": 64,
      "hit": false,
      "t": 247177.91999999696,
      "d": 1296.064000000013,
      "v": 98
    },
    {
      "midi": 53,
      "hit": false,
      "t": 247183.70599999695,
      "d": 1272.9200000000128,
      "v": 114
    },
    {
      "midi": 57,
      "hit": false,
      "t": 247183.70599999695,
      "d": 1272.9200000000128,
      "v": 106
    },
    {
      "midi": 57,
      "hit": false,
      "t": 248838.50199999695,
      "d": 190.93799999999464,
      "v": 100
    },
    {
      "midi": 60,
      "hit": false,
      "t": 248838.50199999695,
      "d": 190.93799999999464,
      "v": 92
    },
    {
      "midi": 64,
      "hit": false,
      "t": 248838.50199999695,
      "d": 190.93799999999464,
      "v": 95
    },
    {
      "midi": 53,
      "hit": false,
      "t": 248838.50199999695,
      "d": 225.65399999998044,
      "v": 110
    },
    {
      "midi": 41,
      "hit": false,
      "t": 248838.50199999695,
      "d": 237.225999999966,
      "v": 100
    },
    {
      "midi": 57,
      "hit": false,
      "t": 249399.74399999692,
      "d": 1139.8420000000042,
      "v": 106
    },
    {
      "midi": 64,
      "hit": false,
      "t": 249399.74399999692,
      "d": 1139.8420000000042,
      "v": 94
    },
    {
      "midi": 53,
      "hit": false,
      "t": 249399.74399999692,
      "d": 1151.4139999999898,
      "v": 120
    },
    {
      "midi": 60,
      "hit": false,
      "t": 249399.74399999692,
      "d": 1151.4139999999898,
      "v": 100
    },
    {
      "midi": 41,
      "hit": false,
      "t": 249399.74399999692,
      "d": 1330.7799999999988,
      "v": 106
    },
    {
      "midi": 57,
      "hit": false,
      "t": 250788.3839999969,
      "d": 156.22199999997974,
      "v": 100
    },
    {
      "midi": 53,
      "hit": false,
      "t": 250788.3839999969,
      "d": 179.36599999997998,
      "v": 110
    },
    {
      "midi": 64,
      "hit": false,
      "t": 250788.3839999969,
      "d": 179.36599999997998,
      "v": 97
    },
    {
      "midi": 41,
      "hit": false,
      "t": 250788.3839999969,
      "d": 202.5099999999802,
      "v": 100
    },
    {
      "midi": 60,
      "hit": false,
      "t": 250794.1699999969,
      "d": 167.7939999999944,
      "v": 94
    },
    {
      "midi": 43,
      "hit": false,
      "t": 251349.62599999688,
      "d": 98.36199999999371,
      "v": 106
    },
    {
      "midi": 64,
      "hit": false,
      "t": 251627.35399999688,
      "d": 202.5100000000093,
      "v": 95
    },
    {
      "midi": 53,
      "hit": false,
      "t": 251627.35399999688,
      "d": 214.08199999999488,
      "v": 110
    },
    {
      "midi": 57,
      "hit": false,
      "t": 251627.35399999688,
      "d": 214.08199999999488,
      "v": 104
    },
    {
      "midi": 60,
      "hit": false,
      "t": 251627.35399999688,
      "d": 214.08199999999488,
      "v": 94
    },
    {
      "midi": 43,
      "hit": false,
      "t": 251899.29599999686,
      "d": 86.79000000000815,
      "v": 102
    },
    {
      "midi": 57,
      "hit": false,
      "t": 252171.23799999687,
      "d": 786.8959999999788,
      "v": 106
    },
    {
      "midi": 60,
      "hit": false,
      "t": 252171.23799999687,
      "d": 798.4679999999644,
      "v": 100
    },
    {
      "midi": 53,
      "hit": false,
      "t": 252177.02399999686,
      "d": 775.3239999999932,
      "v": 117
    },
    {
      "midi": 64,
      "hit": false,
      "t": 252177.02399999686,
      "d": 775.3239999999932,
      "v": 92
    },
    {
      "midi": 43,
      "hit": false,
      "t": 252177.02399999686,
      "d": 810.039999999979,
      "v": 112
    },
    {
      "midi": 57,
      "hit": false,
      "t": 253287.93599999684,
      "d": 202.5099999999802,
      "v": 100
    },
    {
      "midi": 64,
      "hit": false,
      "t": 253287.93599999684,
      "d": 202.5099999999802,
      "v": 98
    },
    {
      "midi": 53,
      "hit": false,
      "t": 253287.93599999684,
      "d": 225.65399999998044,
      "v": 110
    },
    {
      "midi": 60,
      "hit": false,
      "t": 253287.93599999684,
      "d": 225.65399999998044,
      "v": 97
    },
    {
      "midi": 41,
      "hit": false,
      "t": 253293.72199999684,
      "d": 167.7939999999944,
      "v": 106
    },
    {
      "midi": 41,
      "hit": false,
      "t": 253843.39199999682,
      "d": 752.179999999993,
      "v": 106
    },
    {
      "midi": 64,
      "hit": false,
      "t": 253843.39199999682,
      "d": 1162.9860000000044,
      "v": 98
    },
    {
      "midi": 53,
      "hit": false,
      "t": 253843.39199999682,
      "d": 1174.55799999999,
      "v": 110
    },
    {
      "midi": 57,
      "hit": false,
      "t": 253843.39199999682,
      "d": 1174.55799999999,
      "v": 100
    },
    {
      "midi": 60,
      "hit": false,
      "t": 253843.39199999682,
      "d": 1174.55799999999,
      "v": 95
    },
    {
      "midi": 41,
      "hit": false,
      "t": 255237.8179999968,
      "d": 179.36600000000908,
      "v": 114
    },
    {
      "midi": 53,
      "hit": false,
      "t": 255237.8179999968,
      "d": 260.36999999999534,
      "v": 112
    },
    {
      "midi": 57,
      "hit": false,
      "t": 255237.8179999968,
      "d": 260.36999999999534,
      "v": 100
    },
    {
      "midi": 60,
      "hit": false,
      "t": 255237.8179999968,
      "d": 260.36999999999534,
      "v": 98
    },
    {
      "midi": 64,
      "hit": false,
      "t": 255237.8179999968,
      "d": 277.7280000000028,
      "v": 97
    },
    {
      "midi": 43,
      "hit": false,
      "t": 255787.4879999968,
      "d": 144.64999999999418,
      "v": 117
    },
    {
      "midi": 55,
      "hit": false,
      "t": 256059.4299999968,
      "d": 260.36999999999534,
      "v": 100
    },
    {
      "midi": 59,
      "hit": false,
      "t": 256059.4299999968,
      "d": 260.36999999999534,
      "v": 98
    },
    {
      "midi": 62,
      "hit": false,
      "t": 256059.4299999968,
      "d": 260.36999999999534,
      "v": 98
    },
    {
      "midi": 43,
      "hit": false,
      "t": 256337.1579999968,
      "d": 86.79000000000815,
      "v": 102
    },
    {
      "midi": 55,
      "hit": false,
      "t": 256614.8859999968,
      "d": 734.8219999999856,
      "v": 108
    },
    {
      "midi": 59,
      "hit": false,
      "t": 256614.8859999968,
      "d": 734.8219999999856,
      "v": 100
    },
    {
      "midi": 62,
      "hit": false,
      "t": 256614.8859999968,
      "d": 746.3939999999711,
      "v": 102
    },
    {
      "midi": 43,
      "hit": false,
      "t": 256614.8859999968,
      "d": 914.1879999999655,
      "v": 104
    },
    {
      "midi": 64,
      "hit": false,
      "t": 257737.36999999676,
      "d": 144.64999999996508,
      "v": 67
    },
    {
      "midi": 41,
      "hit": false,
      "t": 257737.36999999676,
      "d": 179.36599999995087,
      "v": 108
    },
    {
      "midi": 57,
      "hit": false,
      "t": 257737.36999999676,
      "d": 179.36599999995087,
      "v": 86
    },
    {
      "midi": 53,
      "hit": false,
      "t": 257737.36999999676,
      "d": 214.08199999993667,
      "v": 100
    },
    {
      "midi": 60,
      "hit": false,
      "t": 257743.15599999676,
      "d": 104.1479999999865,
      "v": 78
    },
    {
      "midi": 53,
      "hit": false,
      "t": 258281.2539999967,
      "d": 1070.4099999999744,
      "v": 100
    },
    {
      "midi": 60,
      "hit": false,
      "t": 258281.2539999967,
      "d": 1070.4099999999744,
      "v": 97
    },
    {
      "midi": 64,
      "hit": false,
      "t": 258281.2539999967,
      "d": 1070.4099999999744,
      "v": 91
    },
    {
      "midi": 57,
      "hit": false,
      "t": 258287.0399999967,
      "d": 1058.8379999999888,
      "v": 78
    },
    {
      "midi": 41,
      "hit": false,
      "t": 258292.82599999668,
      "d": 1093.5539999999746,
      "v": 104
    },
    {
      "midi": 64,
      "hit": false,
      "t": 259664.10799999666,
      "d": 214.08199999999488,
      "v": 90
    },
    {
      "midi": 57,
      "hit": false,
      "t": 259664.10799999666,
      "d": 225.65399999998044,
      "v": 95
    },
    {
      "midi": 60,
      "hit": false,
      "t": 259664.10799999666,
      "d": 225.65399999998044,
      "v": 92
    },
    {
      "midi": 53,
      "hit": false,
      "t": 259664.10799999666,
      "d": 248.79799999998068,
      "v": 104
    },
    {
      "midi": 41,
      "hit": false,
      "t": 259669.89399999665,
      "d": 260.36999999999534,
      "v": 114
    },
    {
      "midi": 43,
      "hit": false,
      "t": 260225.34999999666,
      "d": 202.5100000000093,
      "v": 117
    },
    {
      "midi": 57,
      "hit": false,
      "t": 260503.07799999666,
      "d": 225.65400000000955,
      "v": 95
    },
    {
      "midi": 60,
      "hit": false,
      "t": 260503.07799999666,
      "d": 225.65400000000955,
      "v": 90
    },
    {
      "midi": 64,
      "hit": false,
      "t": 260503.07799999666,
      "d": 225.65400000000955,
      "v": 92
    },
    {
      "midi": 53,
      "hit": false,
      "t": 260503.07799999666,
      "d": 248.79800000000978,
      "v": 106
    },
    {
      "midi": 43,
      "hit": false,
      "t": 260786.59199999666,
      "d": 75.21799999999348,
      "v": 92
    },
    {
      "midi": 57,
      "hit": false,
      "t": 261064.31999999666,
      "d": 798.4679999999935,
      "v": 104
    },
    {
      "midi": 60,
      "hit": false,
      "t": 261064.31999999666,
      "d": 798.4679999999935,
      "v": 95
    },
    {
      "midi": 64,
      "hit": false,
      "t": 261064.31999999666,
      "d": 798.4679999999935,
      "v": 98
    },
    {
      "midi": 53,
      "hit": false,
      "t": 261064.31999999666,
      "d": 821.6119999999937,
      "v": 110
    },
    {
      "midi": 43,
      "hit": false,
      "t": 261064.31999999666,
      "d": 1110.9120000000403,
      "v": 110
    },
    {
      "midi": 64,
      "hit": false,
      "t": 262169.4459999967,
      "d": 225.65400000003865,
      "v": 92
    },
    {
      "midi": 53,
      "hit": false,
      "t": 262169.4459999967,
      "d": 260.37000000005355,
      "v": 106
    },
    {
      "midi": 41,
      "hit": false,
      "t": 262175.2319999967,
      "d": 757.9660000000731,
      "v": 97
    },
    {
      "midi": 53,
      "hit": false,
      "t": 262724.90199999674,
      "d": 1197.7020000000484,
      "v": 112
    },
    {
      "midi": 57,
      "hit": false,
      "t": 262724.90199999674,
      "d": 1197.7020000000484,
      "v": 104
    },
    {
      "midi": 64,
      "hit": false,
      "t": 262730.68799999676,
      "d": 1174.558000000019,
      "v": 100
    },
    {
      "midi": 60,
      "hit": false,
      "t": 262730.68799999676,
      "d": 1186.1300000000047,
      "v": 97
    },
    {
      "midi": 41,
      "hit": false,
      "t": 264119.3279999968,
      "d": 214.08199999999488,
      "v": 122
    },
    {
      "midi": 57,
      "hit": false,
      "t": 264125.1139999968,
      "d": 214.08199999999488,
      "v": 104
    },
    {
      "midi": 60,
      "hit": false,
      "t": 264125.1139999968,
      "d": 214.08199999999488,
      "v": 98
    },
    {
      "midi": 64,
      "hit": false,
      "t": 264125.1139999968,
      "d": 214.08199999999488,
      "v": 102
    },
    {
      "midi": 53,
      "hit": false,
      "t": 264125.1139999968,
      "d": 225.65399999998044,
      "v": 114
    },
    {
      "midi": 43,
      "hit": false,
      "t": 264668.99799999676,
      "d": 225.65399999998044,
      "v": 100
    },
    {
      "midi": 64,
      "hit": false,
      "t": 264946.72599999676,
      "d": 243.0119999999879,
      "v": 98
    },
    {
      "midi": 53,
      "hit": false,
      "t": 264946.72599999676,
      "d": 254.58399999997346,
      "v": 110
    },
    {
      "midi": 57,
      "hit": false,
      "t": 264952.5119999968,
      "d": 214.08199999999488,
      "v": 94
    },
    {
      "midi": 60,
      "hit": false,
      "t": 264952.5119999968,
      "d": 214.08199999999488,
      "v": 87
    },
    {
      "midi": 43,
      "hit": false,
      "t": 265224.4539999967,
      "d": 63.646000000007916,
      "v": 81
    },
    {
      "midi": 53,
      "hit": false,
      "t": 265502.1819999967,
      "d": 810.039999999979,
      "v": 112
    },
    {
      "midi": 57,
      "hit": false,
      "t": 265502.1819999967,
      "d": 810.039999999979,
      "v": 104
    },
    {
      "midi": 60,
      "hit": false,
      "t": 265502.1819999967,
      "d": 810.039999999979,
      "v": 98
    },
    {
      "midi": 64,
      "hit": false,
      "t": 265502.1819999967,
      "d": 810.039999999979,
      "v": 95
    },
    {
      "midi": 43,
      "hit": false,
      "t": 265502.1819999967,
      "d": 1093.5540000000037,
      "v": 104
    },
    {
      "midi": 41,
      "hit": false,
      "t": 266613.0939999967,
      "d": 237.22600000002421,
      "v": 97
    },
    {
      "midi": 57,
      "hit": false,
      "t": 266613.0939999967,
      "d": 237.22600000002421,
      "v": 94
    },
    {
      "midi": 60,
      "hit": false,
      "t": 266613.0939999967,
      "d": 237.22600000002421,
      "v": 90
    },
    {
      "midi": 64,
      "hit": false,
      "t": 266613.0939999967,
      "d": 237.22600000002421,
      "v": 88
    },
    {
      "midi": 53,
      "hit": false,
      "t": 266613.0939999967,
      "d": 260.36999999999534,
      "v": 102
    },
    {
      "midi": 41,
      "hit": false,
      "t": 267168.5499999967,
      "d": 1191.9160000000265,
      "v": 106
    },
    {
      "midi": 53,
      "hit": false,
      "t": 267174.33599999675,
      "d": 1226.6319999999832,
      "v": 112
    },
    {
      "midi": 57,
      "hit": false,
      "t": 267174.33599999675,
      "d": 1226.6319999999832,
      "v": 102
    },
    {
      "midi": 60,
      "hit": false,
      "t": 267174.33599999675,
      "d": 1226.6319999999832,
      "v": 95
    },
    {
      "midi": 64,
      "hit": false,
      "t": 267174.33599999675,
      "d": 1226.6319999999832,
      "v": 97
    },
    {
      "midi": 41,
      "hit": false,
      "t": 268562.9759999967,
      "d": 358.73200000001816,
      "v": 114
    },
    {
      "midi": 57,
      "hit": false,
      "t": 268568.7619999967,
      "d": 214.08199999999488,
      "v": 102
    },
    {
      "midi": 60,
      "hit": false,
      "t": 268568.7619999967,
      "d": 214.08199999999488,
      "v": 94
    },
    {
      "midi": 64,
      "hit": false,
      "t": 268568.7619999967,
      "d": 214.08199999999488,
      "v": 95
    },
    {
      "midi": 53,
      "hit": false,
      "t": 268568.7619999967,
      "d": 225.65399999998044,
      "v": 112
    },
    {
      "midi": 43,
      "hit": false,
      "t": 269118.4319999967,
      "d": 347.1599999999744,
      "v": 112
    },
    {
      "midi": 57,
      "hit": false,
      "t": 269396.1599999967,
      "d": 237.225999999966,
      "v": 95
    },
    {
      "midi": 60,
      "hit": false,
      "t": 269396.1599999967,
      "d": 248.79799999995157,
      "v": 92
    },
    {
      "midi": 64,
      "hit": false,
      "t": 269396.1599999967,
      "d": 248.79799999995157,
      "v": 90
    },
    {
      "midi": 53,
      "hit": false,
      "t": 269396.1599999967,
      "d": 254.58399999997346,
      "v": 108
    },
    {
      "midi": 43,
      "hit": false,
      "t": 269691.24599999667,
      "d": 40.50199999997858,
      "v": 78
    },
    {
      "midi": 60,
      "hit": false,
      "t": 269945.82999999664,
      "d": 653.8180000000284,
      "v": 91
    },
    {
      "midi": 53,
      "hit": false,
      "t": 269945.82999999664,
      "d": 676.9619999999995,
      "v": 112
    },
    {
      "midi": 57,
      "hit": false,
      "t": 269945.82999999664,
      "d": 676.9619999999995,
      "v": 102
    },
    {
      "midi": 64,
      "hit": false,
      "t": 269945.82999999664,
      "d": 688.5339999999851,
      "v": 94
    },
    {
      "midi": 43,
      "hit": false,
      "t": 269963.18799999665,
      "d": 879.4719999999506,
      "v": 112
    },
    {
      "midi": 57,
      "hit": false,
      "t": 271045.1699999966,
      "d": 260.36999999993714,
      "v": 98
    },
    {
      "midi": 60,
      "hit": false,
      "t": 271045.1699999966,
      "d": 260.36999999993714,
      "v": 91
    },
    {
      "midi": 53,
      "hit": false,
      "t": 271045.1699999966,
      "d": 271.9419999999227,
      "v": 108
    },
    {
      "midi": 64,
      "hit": false,
      "t": 271045.1699999966,
      "d": 271.9419999999227,
      "v": 90
    },
    {
      "midi": 41,
      "hit": false,
      "t": 271068.3139999966,
      "d": 214.08199999999488,
      "v": 100
    },
    {
      "midi": 53,
      "hit": false,
      "t": 271612.19799999654,
      "d": 1249.7760000000708,
      "v": 110
    },
    {
      "midi": 57,
      "hit": false,
      "t": 271612.19799999654,
      "d": 1249.7760000000708,
      "v": 95
    },
    {
      "midi": 60,
      "hit": false,
      "t": 271612.19799999654,
      "d": 1249.7760000000708,
      "v": 90
    },
    {
      "midi": 64,
      "hit": false,
      "t": 271612.19799999654,
      "d": 1261.3480000000563,
      "v": 91
    },
    {
      "midi": 41,
      "hit": false,
      "t": 271617.98399999656,
      "d": 1238.204000000027,
      "v": 106
    },
    {
      "midi": 41,
      "hit": false,
      "t": 273006.6239999966,
      "d": 277.7280000000028,
      "v": 114
    },
    {
      "midi": 57,
      "hit": false,
      "t": 273018.19599999656,
      "d": 190.93800000002375,
      "v": 97
    },
    {
      "midi": 60,
      "hit": false,
      "t": 273018.19599999656,
      "d": 190.93800000002375,
      "v": 92
    },
    {
      "midi": 64,
      "hit": false,
      "t": 273018.19599999656,
      "d": 190.93800000002375,
      "v": 91
    },
    {
      "midi": 53,
      "hit": false,
      "t": 273018.19599999656,
      "d": 225.65400000003865,
      "v": 110
    },
    {
      "midi": 43,
      "hit": false,
      "t": 273567.8659999966,
      "d": 225.65399999998044,
      "v": 108
    },
    {
      "midi": 57,
      "hit": false,
      "t": 273834.02199999656,
      "d": 225.65399999998044,
      "v": 98
    },
    {
      "midi": 60,
      "hit": false,
      "t": 273834.02199999656,
      "d": 225.65399999998044,
      "v": 94
    },
    {
      "midi": 53,
      "hit": false,
      "t": 273834.02199999656,
      "d": 237.225999999966,
      "v": 108
    },
    {
      "midi": 64,
      "hit": false,
      "t": 273834.02199999656,
      "d": 237.225999999966,
      "v": 94
    },
    {
      "midi": 43,
      "hit": false,
      "t": 274117.53599999653,
      "d": 81.00400000001537,
      "v": 77
    },
    {
      "midi": 57,
      "hit": false,
      "t": 274389.47799999657,
      "d": 815.8260000000009,
      "v": 104
    },
    {
      "midi": 60,
      "hit": false,
      "t": 274389.47799999657,
      "d": 815.8260000000009,
      "v": 97
    },
    {
      "midi": 64,
      "hit": false,
      "t": 274389.47799999657,
      "d": 815.8260000000009,
      "v": 97
    },
    {
      "midi": 53,
      "hit": false,
      "t": 274389.47799999657,
      "d": 821.6120000000228,
      "v": 112
    },
    {
      "midi": 43,
      "hit": false,
      "t": 274389.47799999657,
      "d": 972.0480000000098,
      "v": 112
    },
    {
      "midi": 60,
      "hit": false,
      "t": 275506.1759999966,
      "d": 248.79800000000978,
      "v": 90
    },
    {
      "midi": 64,
      "hit": false,
      "t": 275506.1759999966,
      "d": 248.79800000000978,
      "v": 95
    },
    {
      "midi": 57,
      "hit": false,
      "t": 275506.1759999966,
      "d": 260.36999999999534,
      "v": 98
    },
    {
      "midi": 41,
      "hit": false,
      "t": 275506.1759999966,
      "d": 266.15600000001723,
      "v": 100
    },
    {
      "midi": 53,
      "hit": false,
      "t": 275506.1759999966,
      "d": 266.15600000001723,
      "v": 106
    },
    {
      "midi": 41,
      "hit": false,
      "t": 276067.4179999966,
      "d": 1197.7019999999902,
      "v": 98
    },
    {
      "midi": 53,
      "hit": false,
      "t": 276067.4179999966,
      "d": 1197.7019999999902,
      "v": 110
    },
    {
      "midi": 60,
      "hit": false,
      "t": 276067.4179999966,
      "d": 1197.7019999999902,
      "v": 95
    },
    {
      "midi": 64,
      "hit": false,
      "t": 276067.4179999966,
      "d": 1197.7019999999902,
      "v": 95
    },
    {
      "midi": 57,
      "hit": false,
      "t": 276067.4179999966,
      "d": 1209.2739999999758,
      "v": 102
    },
    {
      "midi": 41,
      "hit": false,
      "t": 277444.4859999966,
      "d": 248.79800000000978,
      "v": 97
    },
    {
      "midi": 57,
      "hit": false,
      "t": 277456.0579999966,
      "d": 271.9420000000391,
      "v": 100
    },
    {
      "midi": 60,
      "hit": false,
      "t": 277456.0579999966,
      "d": 271.9420000000391,
      "v": 95
    },
    {
      "midi": 64,
      "hit": false,
      "t": 277456.0579999966,
      "d": 271.9420000000391,
      "v": 90
    },
    {
      "midi": 53,
      "hit": false,
      "t": 277456.0579999966,
      "d": 300.87200000003213,
      "v": 110
    },
    {
      "midi": 43,
      "hit": false,
      "t": 278005.7279999966,
      "d": 190.93800000002375,
      "v": 92
    },
    {
      "midi": 57,
      "hit": false,
      "t": 278277.66999999667,
      "d": 214.08199999999488,
      "v": 102
    },
    {
      "midi": 60,
      "hit": false,
      "t": 278277.66999999667,
      "d": 214.08199999999488,
      "v": 95
    },
    {
      "midi": 64,
      "hit": false,
      "t": 278277.66999999667,
      "d": 214.08199999999488,
      "v": 94
    },
    {
      "midi": 53,
      "hit": false,
      "t": 278277.66999999667,
      "d": 225.65399999998044,
      "v": 114
    },
    {
      "midi": 43,
      "hit": false,
      "t": 278543.8259999966,
      "d": 109.93400000000838,
      "v": 86
    },
    {
      "midi": 43,
      "hit": false,
      "t": 278827.33999999665,
      "d": 723.25,
      "v": 108
    },
    {
      "midi": 57,
      "hit": false,
      "t": 278833.1259999967,
      "d": 1087.7679999999818,
      "v": 106
    },
    {
      "midi": 53,
      "hit": false,
      "t": 278833.1259999967,
      "d": 1093.5540000000037,
      "v": 112
    },
    {
      "midi": 60,
      "hit": false,
      "t": 278833.1259999967,
      "d": 1099.3400000000256,
      "v": 97
    },
    {
      "midi": 64,
      "hit": false,
      "t": 278833.1259999967,
      "d": 1105.1260000000475,
      "v": 98
    },
    {
      "midi": 41,
      "hit": false,
      "t": 279944.03799999674,
      "d": 5276.831999999995,
      "v": 117
    },
    {
      "midi": 53,
      "hit": false,
      "t": 279944.03799999674,
      "d": 5276.831999999995,
      "v": 114
    },
    {
      "midi": 57,
      "hit": false,
      "t": 279944.03799999674,
      "d": 5276.831999999995,
      "v": 98
    },
    {
      "midi": 59,
      "hit": false,
      "t": 279944.03799999674,
      "d": 5276.831999999995,
      "v": 104
    },
    {
      "midi": 64,
      "hit": false,
      "t": 279944.03799999674,
      "d": 5276.831999999995,
      "v": 100
    }
  ]
}