{
  "jsonPath": "Rap/Toronto Rap/Klee/fur-alle-die.json",
  "path": "Rap\\Toronto Rap\\Klee\\Für alle_ die.mid",
  "name": "Für alle_ die",
  "difficulty": "Advanced",
  "bpm": 134.00005806669182,
  "notes": [
    {
      "midi": 65,
      "hit": false,
      "t": 3582.0880000000006,
      "d": 1679.1037500000002,
      "v": 90
    },
    {
      "midi": 57,
      "hit": false,
      "t": 3582.0880000000006,
      "d": 1686.1000156250002,
      "v": 95
    },
    {
      "midi": 60,
      "hit": false,
      "t": 3582.0880000000006,
      "d": 1700.0925468750002,
      "v": 101
    },
    {
      "midi": 53,
      "hit": false,
      "t": 3582.0880000000006,
      "d": 1802.7044427083329,
      "v": 93
    },
    {
      "midi": 67,
      "hit": false,
      "t": 5373.1320000000005,
      "d": 1690.7641927083332,
      "v": 93
    },
    {
      "midi": 60,
      "hit": false,
      "t": 5373.1320000000005,
      "d": 1714.085078125,
      "v": 93
    },
    {
      "midi": 48,
      "hit": false,
      "t": 5373.1320000000005,
      "d": 1737.405963541667,
      "v": 93
    },
    {
      "midi": 64,
      "hit": false,
      "t": 5373.1320000000005,
      "d": 1744.402229166667,
      "v": 93
    },
    {
      "midi": 62,
      "hit": false,
      "t": 7164.176000000001,
      "d": 3348.8791458333344,
      "v": 93
    },
    {
      "midi": 60,
      "hit": false,
      "t": 7164.176000000001,
      "d": 3388.5246510416673,
      "v": 93
    },
    {
      "midi": 65,
      "hit": false,
      "t": 7164.176000000001,
      "d": 3390.8567395833343,
      "v": 93
    },
    {
      "midi": 58,
      "hit": false,
      "t": 7164.176000000001,
      "d": 3437.498510416668,
      "v": 93
    },
    {
      "midi": 46,
      "hit": false,
      "t": 7164.176000000001,
      "d": 3460.819395833334,
      "v": 93
    },
    {
      "midi": 70,
      "hit": false,
      "t": 8059.698000000001,
      "d": 312.4998645833339,
      "v": 95
    },
    {
      "midi": 70,
      "hit": false,
      "t": 8507.459000000003,
      "d": 405.78340625000055,
      "v": 67
    },
    {
      "midi": 69,
      "hit": false,
      "t": 8955.220000000003,
      "d": 317.1640416666669,
      "v": 97
    },
    {
      "midi": 69,
      "hit": false,
      "t": 9402.981000000003,
      "d": 305.5035989583339,
      "v": 69
    },
    {
      "midi": 70,
      "hit": false,
      "t": 9850.742000000004,
      "d": 324.16030729166596,
      "v": 95
    },
    {
      "midi": 70,
      "hit": false,
      "t": 10298.503000000002,
      "d": 286.846890625,
      "v": 65
    },
    {
      "midi": 65,
      "hit": false,
      "t": 10746.264000000003,
      "d": 1679.1037500000002,
      "v": 90
    },
    {
      "midi": 57,
      "hit": false,
      "t": 10746.264000000003,
      "d": 1686.100015625001,
      "v": 95
    },
    {
      "midi": 60,
      "hit": false,
      "t": 10746.264000000003,
      "d": 1700.092546875001,
      "v": 101
    },
    {
      "midi": 53,
      "hit": false,
      "t": 10746.264000000003,
      "d": 1802.7044427083347,
      "v": 93
    },
    {
      "midi": 67,
      "hit": false,
      "t": 12537.308000000005,
      "d": 1690.7641927083332,
      "v": 93
    },
    {
      "midi": 60,
      "hit": false,
      "t": 12537.308000000005,
      "d": 1714.0850781249992,
      "v": 93
    },
    {
      "midi": 48,
      "hit": false,
      "t": 12537.308000000005,
      "d": 1737.4059635416652,
      "v": 93
    },
    {
      "midi": 64,
      "hit": false,
      "t": 12537.308000000005,
      "d": 1744.402229166666,
      "v": 93
    },
    {
      "midi": 62,
      "hit": false,
      "t": 14328.352000000004,
      "d": 3348.8791458333344,
      "v": 93
    },
    {
      "midi": 60,
      "hit": false,
      "t": 14328.352000000004,
      "d": 3388.5246510416673,
      "v": 93
    },
    {
      "midi": 65,
      "hit": false,
      "t": 14328.352000000004,
      "d": 3390.8567395833325,
      "v": 93
    },
    {
      "midi": 58,
      "hit": false,
      "t": 14328.352000000004,
      "d": 3437.4985104166644,
      "v": 93
    },
    {
      "midi": 46,
      "hit": false,
      "t": 14328.352000000004,
      "d": 3460.8193958333304,
      "v": 93
    },
    {
      "midi": 70,
      "hit": false,
      "t": 15223.874000000005,
      "d": 312.49986458333296,
      "v": 95
    },
    {
      "midi": 82,
      "hit": false,
      "t": 15223.874000000005,
      "d": 895.5220000000008,
      "v": 95
    },
    {
      "midi": 70,
      "hit": false,
      "t": 15671.635000000006,
      "d": 405.78340625000055,
      "v": 67
    },
    {
      "midi": 69,
      "hit": false,
      "t": 16119.396000000006,
      "d": 317.16404166666507,
      "v": 97
    },
    {
      "midi": 81,
      "hit": false,
      "t": 16119.396000000006,
      "d": 895.521999999999,
      "v": 97
    },
    {
      "midi": 69,
      "hit": false,
      "t": 16567.157000000003,
      "d": 305.5035989583339,
      "v": 69
    },
    {
      "midi": 70,
      "hit": false,
      "t": 17014.918000000005,
      "d": 324.16030729166596,
      "v": 95
    },
    {
      "midi": 82,
      "hit": false,
      "t": 17014.918000000005,
      "d": 895.5219999999972,
      "v": 95
    },
    {
      "midi": 70,
      "hit": false,
      "t": 17462.679000000004,
      "d": 286.8468906249982,
      "v": 65
    },
    {
      "midi": 62,
      "hit": false,
      "t": 32238.792000000005,
      "d": 1802.7044427083347,
      "v": 87
    },
    {
      "midi": 64,
      "hit": false,
      "t": 34029.836,
      "d": 1791.0440000000017,
      "v": 87
    },
    {
      "midi": 65,
      "hit": false,
      "t": 35820.880000000005,
      "d": 1784.0477343750026,
      "v": 87
    },
    {
      "midi": 69,
      "hit": false,
      "t": 35820.880000000005,
      "d": 1791.0440000000017,
      "v": 87
    },
    {
      "midi": 64,
      "hit": false,
      "t": 37611.924000000006,
      "d": 1802.7044427083383,
      "v": 85
    },
    {
      "midi": 67,
      "hit": false,
      "t": 37611.924000000006,
      "d": 1802.7044427083383,
      "v": 85
    },
    {
      "midi": 65,
      "hit": false,
      "t": 39402.96800000001,
      "d": 1630.1298906250013,
      "v": 84
    },
    {
      "midi": 72,
      "hit": false,
      "t": 39402.96800000001,
      "d": 1669.7753958333342,
      "v": 84
    },
    {
      "midi": 81,
      "hit": false,
      "t": 39402.96800000001,
      "d": 1669.7753958333342,
      "v": 84
    },
    {
      "midi": 77,
      "hit": false,
      "t": 39402.96800000001,
      "d": 1700.0925468749992,
      "v": 84
    },
    {
      "midi": 79,
      "hit": false,
      "t": 41194.01200000001,
      "d": 1569.495588541664,
      "v": 84
    },
    {
      "midi": 76,
      "hit": false,
      "t": 41194.01200000001,
      "d": 1578.8239427083317,
      "v": 85
    },
    {
      "midi": 60,
      "hit": false,
      "t": 41194.01200000001,
      "d": 1791.0440000000017,
      "v": 85
    },
    {
      "midi": 72,
      "hit": false,
      "t": 41194.01200000001,
      "d": 1791.0440000000017,
      "v": 84
    },
    {
      "midi": 74,
      "hit": false,
      "t": 42985.05600000001,
      "d": 562.033338541667,
      "v": 89
    },
    {
      "midi": 77,
      "hit": false,
      "t": 42985.05600000001,
      "d": 641.3243489583328,
      "v": 89
    },
    {
      "midi": 70,
      "hit": false,
      "t": 42985.05600000001,
      "d": 783.5817499999976,
      "v": 89
    },
    {
      "midi": 58,
      "hit": false,
      "t": 42985.05600000001,
      "d": 3381.528385416663,
      "v": 89
    },
    {
      "midi": 70,
      "hit": false,
      "t": 43880.57800000001,
      "d": 813.8989010416699,
      "v": 87
    },
    {
      "midi": 82,
      "hit": false,
      "t": 43880.57800000001,
      "d": 839.5518750000047,
      "v": 87
    },
    {
      "midi": 69,
      "hit": false,
      "t": 44776.10000000001,
      "d": 687.9661197916648,
      "v": 85
    },
    {
      "midi": 81,
      "hit": false,
      "t": 44776.10000000001,
      "d": 748.6004218749949,
      "v": 85
    },
    {
      "midi": 70,
      "hit": false,
      "t": 45671.62200000001,
      "d": 715.9511822916611,
      "v": 90
    },
    {
      "midi": 82,
      "hit": false,
      "t": 45671.62200000001,
      "d": 753.2645989583252,
      "v": 90
    },
    {
      "midi": 65,
      "hit": false,
      "t": 46567.144,
      "d": 1630.1298906250013,
      "v": 84
    },
    {
      "midi": 72,
      "hit": false,
      "t": 46567.144,
      "d": 1669.7753958333342,
      "v": 84
    },
    {
      "midi": 81,
      "hit": false,
      "t": 46567.144,
      "d": 1669.7753958333342,
      "v": 84
    },
    {
      "midi": 77,
      "hit": false,
      "t": 46567.144,
      "d": 1700.0925468749992,
      "v": 84
    },
    {
      "midi": 79,
      "hit": false,
      "t": 48358.188,
      "d": 1569.495588541664,
      "v": 84
    },
    {
      "midi": 76,
      "hit": false,
      "t": 48358.188,
      "d": 1578.8239427083317,
      "v": 85
    },
    {
      "midi": 60,
      "hit": false,
      "t": 48358.188,
      "d": 1791.0440000000017,
      "v": 85
    },
    {
      "midi": 72,
      "hit": false,
      "t": 48358.188,
      "d": 1791.0440000000017,
      "v": 84
    },
    {
      "midi": 74,
      "hit": false,
      "t": 50149.232,
      "d": 562.033338541667,
      "v": 89
    },
    {
      "midi": 77,
      "hit": false,
      "t": 50149.232,
      "d": 641.3243489583328,
      "v": 89
    },
    {
      "midi": 70,
      "hit": false,
      "t": 50149.232,
      "d": 783.5817499999976,
      "v": 89
    },
    {
      "midi": 58,
      "hit": false,
      "t": 50149.232,
      "d": 3381.528385416663,
      "v": 89
    },
    {
      "midi": 70,
      "hit": false,
      "t": 51044.754,
      "d": 813.8989010416699,
      "v": 87
    },
    {
      "midi": 82,
      "hit": false,
      "t": 51044.754,
      "d": 839.5518750000047,
      "v": 87
    },
    {
      "midi": 69,
      "hit": false,
      "t": 51940.276000000005,
      "d": 687.9661197916648,
      "v": 85
    },
    {
      "midi": 81,
      "hit": false,
      "t": 51940.276000000005,
      "d": 748.6004218749949,
      "v": 85
    },
    {
      "midi": 70,
      "hit": false,
      "t": 52835.798,
      "d": 715.9511822916611,
      "v": 90
    },
    {
      "midi": 82,
      "hit": false,
      "t": 52835.798,
      "d": 753.2645989583252,
      "v": 90
    },
    {
      "midi": 81,
      "hit": false,
      "t": 53731.31999999999,
      "d": 1653.4507760416673,
      "v": 92
    },
    {
      "midi": 72,
      "hit": false,
      "t": 53731.31999999999,
      "d": 1667.4433072916654,
      "v": 92
    },
    {
      "midi": 77,
      "hit": false,
      "t": 53731.31999999999,
      "d": 1686.100015625001,
      "v": 92
    },
    {
      "midi": 72,
      "hit": false,
      "t": 55522.363999999994,
      "d": 1660.4470416666663,
      "v": 92
    },
    {
      "midi": 76,
      "hit": false,
      "t": 55522.363999999994,
      "d": 1672.107484375003,
      "v": 92
    },
    {
      "midi": 79,
      "hit": false,
      "t": 55522.363999999994,
      "d": 1700.0925468750065,
      "v": 92
    },
    {
      "midi": 70,
      "hit": false,
      "t": 57313.408,
      "d": 3537.778317708333,
      "v": 90
    },
    {
      "midi": 72,
      "hit": false,
      "t": 57313.408,
      "d": 3563.4312916666677,
      "v": 90
    },
    {
      "midi": 74,
      "hit": false,
      "t": 57313.408,
      "d": 3600.744708333339,
      "v": 90
    },
    {
      "midi": 77,
      "hit": false,
      "t": 60895.49600000001,
      "d": 18.6567083333357,
      "v": 84
    },
    {
      "midi": 65,
      "hit": false,
      "t": 60895.49600000001,
      "d": 1630.1298906250013,
      "v": 84
    },
    {
      "midi": 72,
      "hit": false,
      "t": 60895.49600000001,
      "d": 1669.7753958333342,
      "v": 84
    },
    {
      "midi": 81,
      "hit": false,
      "t": 60895.49600000001,
      "d": 1669.7753958333342,
      "v": 84
    },
    {
      "midi": 79,
      "hit": false,
      "t": 62686.54000000001,
      "d": 1569.495588541664,
      "v": 84
    },
    {
      "midi": 76,
      "hit": false,
      "t": 62686.54000000001,
      "d": 1578.8239427083317,
      "v": 85
    },
    {
      "midi": 60,
      "hit": false,
      "t": 62686.54000000001,
      "d": 1791.0440000000017,
      "v": 85
    },
    {
      "midi": 72,
      "hit": false,
      "t": 62686.54000000001,
      "d": 1791.0440000000017,
      "v": 84
    },
    {
      "midi": 74,
      "hit": false,
      "t": 64477.58400000001,
      "d": 562.033338541667,
      "v": 89
    },
    {
      "midi": 77,
      "hit": false,
      "t": 64477.58400000001,
      "d": 641.3243489583328,
      "v": 89
    },
    {
      "midi": 70,
      "hit": false,
      "t": 64477.58400000001,
      "d": 783.5817499999976,
      "v": 89
    },
    {
      "midi": 58,
      "hit": false,
      "t": 64477.58400000001,
      "d": 3381.52838541667,
      "v": 89
    },
    {
      "midi": 70,
      "hit": false,
      "t": 65373.10600000001,
      "d": 813.8989010416626,
      "v": 87
    },
    {
      "midi": 82,
      "hit": false,
      "t": 65373.10600000001,
      "d": 839.5518749999974,
      "v": 87
    },
    {
      "midi": 69,
      "hit": false,
      "t": 66268.62800000001,
      "d": 687.9661197916721,
      "v": 85
    },
    {
      "midi": 81,
      "hit": false,
      "t": 66268.62800000001,
      "d": 748.6004218750022,
      "v": 85
    },
    {
      "midi": 70,
      "hit": false,
      "t": 67164.15000000001,
      "d": 715.9511822916684,
      "v": 90
    },
    {
      "midi": 82,
      "hit": false,
      "t": 67164.15000000001,
      "d": 753.2645989583398,
      "v": 90
    },
    {
      "midi": 62,
      "hit": false,
      "t": 89552.20000000001,
      "d": 1802.704442708331,
      "v": 87
    },
    {
      "midi": 64,
      "hit": false,
      "t": 91343.244,
      "d": 1791.044000000009,
      "v": 87
    },
    {
      "midi": 65,
      "hit": false,
      "t": 93134.28800000002,
      "d": 1784.0477343749953,
      "v": 87
    },
    {
      "midi": 69,
      "hit": false,
      "t": 93134.28800000002,
      "d": 1791.0439999999944,
      "v": 87
    },
    {
      "midi": 64,
      "hit": false,
      "t": 94925.33200000001,
      "d": 1802.704442708331,
      "v": 85
    },
    {
      "midi": 67,
      "hit": false,
      "t": 94925.33200000001,
      "d": 1802.704442708331,
      "v": 85
    },
    {
      "midi": 65,
      "hit": false,
      "t": 96716.376,
      "d": 1630.1298906250013,
      "v": 84
    },
    {
      "midi": 72,
      "hit": false,
      "t": 96716.376,
      "d": 1669.7753958333342,
      "v": 84
    },
    {
      "midi": 81,
      "hit": false,
      "t": 96716.376,
      "d": 1669.7753958333342,
      "v": 84
    },
    {
      "midi": 77,
      "hit": false,
      "t": 96716.376,
      "d": 1700.0925468750065,
      "v": 84
    },
    {
      "midi": 79,
      "hit": false,
      "t": 98507.42000000001,
      "d": 1569.4955885416712,
      "v": 84
    },
    {
      "midi": 76,
      "hit": false,
      "t": 98507.42000000001,
      "d": 1578.8239427083317,
      "v": 85
    },
    {
      "midi": 60,
      "hit": false,
      "t": 98507.42000000001,
      "d": 1791.0439999999944,
      "v": 85
    },
    {
      "midi": 72,
      "hit": false,
      "t": 98507.42000000001,
      "d": 1791.0439999999944,
      "v": 84
    },
    {
      "midi": 74,
      "hit": false,
      "t": 100298.464,
      "d": 562.0333385416598,
      "v": 89
    },
    {
      "midi": 77,
      "hit": false,
      "t": 100298.464,
      "d": 641.3243489583256,
      "v": 89
    },
    {
      "midi": 70,
      "hit": false,
      "t": 100298.464,
      "d": 783.5817499999976,
      "v": 89
    },
    {
      "midi": 58,
      "hit": false,
      "t": 100298.464,
      "d": 3381.5283854166773,
      "v": 89
    },
    {
      "midi": 70,
      "hit": false,
      "t": 101193.986,
      "d": 813.8989010416699,
      "v": 87
    },
    {
      "midi": 82,
      "hit": false,
      "t": 101193.986,
      "d": 839.5518750000047,
      "v": 87
    },
    {
      "midi": 69,
      "hit": false,
      "t": 102089.50800000002,
      "d": 687.9661197916721,
      "v": 85
    },
    {
      "midi": 81,
      "hit": false,
      "t": 102089.50800000002,
      "d": 748.6004218750022,
      "v": 85
    },
    {
      "midi": 70,
      "hit": false,
      "t": 102985.03000000001,
      "d": 715.9511822916684,
      "v": 90
    },
    {
      "midi": 82,
      "hit": false,
      "t": 102985.03000000001,
      "d": 753.2645989583398,
      "v": 90
    },
    {
      "midi": 65,
      "hit": false,
      "t": 103880.55200000003,
      "d": 1630.1298906250013,
      "v": 84
    },
    {
      "midi": 72,
      "hit": false,
      "t": 103880.55200000003,
      "d": 1669.7753958333342,
      "v": 84
    },
    {
      "midi": 81,
      "hit": false,
      "t": 103880.55200000003,
      "d": 1669.7753958333342,
      "v": 84
    },
    {
      "midi": 77,
      "hit": false,
      "t": 103880.55200000003,
      "d": 1700.0925468750065,
      "v": 84
    },
    {
      "midi": 79,
      "hit": false,
      "t": 105671.59600000003,
      "d": 1569.4955885416712,
      "v": 84
    },
    {
      "midi": 76,
      "hit": false,
      "t": 105671.59600000003,
      "d": 1578.8239427083317,
      "v": 85
    },
    {
      "midi": 60,
      "hit": false,
      "t": 105671.59600000003,
      "d": 1791.0439999999944,
      "v": 85
    },
    {
      "midi": 72,
      "hit": false,
      "t": 105671.59600000003,
      "d": 1791.0439999999944,
      "v": 84
    },
    {
      "midi": 74,
      "hit": false,
      "t": 107462.64000000003,
      "d": 562.0333385416598,
      "v": 89
    },
    {
      "midi": 77,
      "hit": false,
      "t": 107462.64000000003,
      "d": 641.3243489583256,
      "v": 89
    },
    {
      "midi": 70,
      "hit": false,
      "t": 107462.64000000003,
      "d": 783.5817499999976,
      "v": 89
    },
    {
      "midi": 58,
      "hit": false,
      "t": 107462.64000000003,
      "d": 3381.5283854166773,
      "v": 89
    },
    {
      "midi": 70,
      "hit": false,
      "t": 108358.16200000003,
      "d": 813.8989010416699,
      "v": 87
    },
    {
      "midi": 82,
      "hit": false,
      "t": 108358.16200000003,
      "d": 839.5518750000047,
      "v": 87
    },
    {
      "midi": 69,
      "hit": false,
      "t": 109253.68400000004,
      "d": 687.9661197916721,
      "v": 85
    },
    {
      "midi": 81,
      "hit": false,
      "t": 109253.68400000004,
      "d": 748.6004218750022,
      "v": 85
    },
    {
      "midi": 70,
      "hit": false,
      "t": 110149.20600000003,
      "d": 715.9511822916684,
      "v": 90
    },
    {
      "midi": 82,
      "hit": false,
      "t": 110149.20600000003,
      "d": 753.2645989583398,
      "v": 90
    },
    {
      "midi": 81,
      "hit": false,
      "t": 111044.72800000005,
      "d": 1653.45077604166,
      "v": 92
    },
    {
      "midi": 72,
      "hit": false,
      "t": 111044.72800000005,
      "d": 1667.4433072916581,
      "v": 92
    },
    {
      "midi": 77,
      "hit": false,
      "t": 111044.72800000005,
      "d": 1686.1000156249938,
      "v": 92
    },
    {
      "midi": 72,
      "hit": false,
      "t": 112835.77200000004,
      "d": 1660.4470416666736,
      "v": 92
    },
    {
      "midi": 76,
      "hit": false,
      "t": 112835.77200000004,
      "d": 1672.1074843750102,
      "v": 92
    },
    {
      "midi": 79,
      "hit": false,
      "t": 112835.77200000004,
      "d": 1700.0925468750065,
      "v": 92
    },
    {
      "midi": 70,
      "hit": false,
      "t": 114626.81600000005,
      "d": 3537.778317708333,
      "v": 90
    },
    {
      "midi": 72,
      "hit": false,
      "t": 114626.81600000005,
      "d": 3563.4312916666677,
      "v": 90
    },
    {
      "midi": 74,
      "hit": false,
      "t": 114626.81600000005,
      "d": 3600.744708333339,
      "v": 90
    },
    {
      "midi": 77,
      "hit": false,
      "t": 118208.90400000005,
      "d": 18.6567083333357,
      "v": 84
    },
    {
      "midi": 65,
      "hit": false,
      "t": 118208.90400000005,
      "d": 1630.1298906250013,
      "v": 84
    },
    {
      "midi": 72,
      "hit": false,
      "t": 118208.90400000005,
      "d": 1669.7753958333342,
      "v": 84
    },
    {
      "midi": 81,
      "hit": false,
      "t": 118208.90400000005,
      "d": 1669.7753958333342,
      "v": 84
    },
    {
      "midi": 79,
      "hit": false,
      "t": 119999.94800000005,
      "d": 1569.4955885416712,
      "v": 84
    },
    {
      "midi": 76,
      "hit": false,
      "t": 119999.94800000005,
      "d": 1578.8239427083317,
      "v": 85
    },
    {
      "midi": 60,
      "hit": false,
      "t": 119999.94800000005,
      "d": 1791.0439999999944,
      "v": 85
    },
    {
      "midi": 72,
      "hit": false,
      "t": 119999.94800000005,
      "d": 1791.0439999999944,
      "v": 84
    },
    {
      "midi": 74,
      "hit": false,
      "t": 121790.99200000004,
      "d": 562.0333385416598,
      "v": 89
    },
    {
      "midi": 77,
      "hit": false,
      "t": 121790.99200000004,
      "d": 641.3243489583256,
      "v": 89
    },
    {
      "midi": 70,
      "hit": false,
      "t": 121790.99200000004,
      "d": 783.5817499999976,
      "v": 89
    },
    {
      "midi": 58,
      "hit": false,
      "t": 121790.99200000004,
      "d": 3381.5283854166773,
      "v": 89
    },
    {
      "midi": 70,
      "hit": false,
      "t": 122686.51400000004,
      "d": 813.8989010416699,
      "v": 87
    },
    {
      "midi": 82,
      "hit": false,
      "t": 122686.51400000004,
      "d": 839.5518750000047,
      "v": 87
    },
    {
      "midi": 69,
      "hit": false,
      "t": 123582.03600000005,
      "d": 687.9661197916721,
      "v": 85
    },
    {
      "midi": 81,
      "hit": false,
      "t": 123582.03600000005,
      "d": 748.6004218750022,
      "v": 85
    },
    {
      "midi": 70,
      "hit": false,
      "t": 124477.55800000005,
      "d": 715.9511822916684,
      "v": 90
    },
    {
      "midi": 82,
      "hit": false,
      "t": 124477.55800000005,
      "d": 753.2645989583398,
      "v": 90
    },
    {
      "midi": 62,
      "hit": false,
      "t": 146865.60800000007,
      "d": 1802.7044427083165,
      "v": 87
    },
    {
      "midi": 64,
      "hit": false,
      "t": 148656.65200000006,
      "d": 1791.0439999999944,
      "v": 87
    },
    {
      "midi": 65,
      "hit": false,
      "t": 150447.69600000005,
      "d": 1784.0477343749953,
      "v": 87
    },
    {
      "midi": 69,
      "hit": false,
      "t": 150447.69600000005,
      "d": 1791.0439999999944,
      "v": 87
    },
    {
      "midi": 64,
      "hit": false,
      "t": 152238.74000000005,
      "d": 1802.7044427083165,
      "v": 85
    },
    {
      "midi": 67,
      "hit": false,
      "t": 152238.74000000005,
      "d": 1802.7044427083165,
      "v": 85
    },
    {
      "midi": 62,
      "hit": false,
      "t": 154029.78400000004,
      "d": 1802.7044427083165,
      "v": 87
    },
    {
      "midi": 64,
      "hit": false,
      "t": 155820.82800000004,
      "d": 1791.0439999999944,
      "v": 87
    },
    {
      "midi": 65,
      "hit": false,
      "t": 157611.87200000003,
      "d": 1784.0477343749953,
      "v": 87
    },
    {
      "midi": 69,
      "hit": false,
      "t": 157611.87200000003,
      "d": 1791.0439999999944,
      "v": 87
    },
    {
      "midi": 64,
      "hit": false,
      "t": 159402.91600000003,
      "d": 1802.7044427083165,
      "v": 85
    },
    {
      "midi": 67,
      "hit": false,
      "t": 159402.91600000003,
      "d": 1802.7044427083165,
      "v": 85
    },
    {
      "midi": 65,
      "hit": false,
      "t": 161193.96000000002,
      "d": 1630.1298906249867,
      "v": 84
    },
    {
      "midi": 72,
      "hit": false,
      "t": 161193.96000000002,
      "d": 1669.7753958333342,
      "v": 84
    },
    {
      "midi": 81,
      "hit": false,
      "t": 161193.96000000002,
      "d": 1669.7753958333342,
      "v": 84
    },
    {
      "midi": 77,
      "hit": false,
      "t": 161193.96000000002,
      "d": 1700.0925468750065,
      "v": 84
    },
    {
      "midi": 79,
      "hit": false,
      "t": 162985.00400000002,
      "d": 1569.4955885416712,
      "v": 84
    },
    {
      "midi": 76,
      "hit": false,
      "t": 162985.00400000002,
      "d": 1578.8239427083463,
      "v": 85
    },
    {
      "midi": 60,
      "hit": false,
      "t": 162985.00400000002,
      "d": 1791.0440000000235,
      "v": 85
    },
    {
      "midi": 72,
      "hit": false,
      "t": 162985.00400000002,
      "d": 1791.0440000000235,
      "v": 84
    },
    {
      "midi": 74,
      "hit": false,
      "t": 164776.04800000004,
      "d": 562.0333385416598,
      "v": 89
    },
    {
      "midi": 77,
      "hit": false,
      "t": 164776.04800000004,
      "d": 641.3243489583256,
      "v": 89
    },
    {
      "midi": 70,
      "hit": false,
      "t": 164776.04800000004,
      "d": 783.581749999983,
      "v": 89
    },
    {
      "midi": 58,
      "hit": false,
      "t": 164776.04800000004,
      "d": 3381.528385416663,
      "v": 89
    },
    {
      "midi": 70,
      "hit": false,
      "t": 165671.57000000004,
      "d": 813.8989010416553,
      "v": 87
    },
    {
      "midi": 82,
      "hit": false,
      "t": 165671.57000000004,
      "d": 839.5518749999756,
      "v": 87
    },
    {
      "midi": 69,
      "hit": false,
      "t": 166567.092,
      "d": 687.9661197916721,
      "v": 85
    },
    {
      "midi": 81,
      "hit": false,
      "t": 166567.092,
      "d": 748.6004218750168,
      "v": 85
    },
    {
      "midi": 70,
      "hit": false,
      "t": 167462.61400000003,
      "d": 715.9511822916684,
      "v": 90
    },
    {
      "midi": 82,
      "hit": false,
      "t": 167462.61400000003,
      "d": 753.2645989583398,
      "v": 90
    },
    {
      "midi": 65,
      "hit": false,
      "t": 168358.13600000003,
      "d": 1630.1298906249867,
      "v": 84
    },
    {
      "midi": 72,
      "hit": false,
      "t": 168358.13600000003,
      "d": 1669.7753958333342,
      "v": 84
    },
    {
      "midi": 81,
      "hit": false,
      "t": 168358.13600000003,
      "d": 1669.7753958333342,
      "v": 84
    },
    {
      "midi": 77,
      "hit": false,
      "t": 168358.13600000003,
      "d": 1700.0925468750065,
      "v": 84
    },
    {
      "midi": 79,
      "hit": false,
      "t": 170149.18000000002,
      "d": 1569.4955885416712,
      "v": 84
    },
    {
      "midi": 76,
      "hit": false,
      "t": 170149.18000000002,
      "d": 1578.8239427083463,
      "v": 85
    },
    {
      "midi": 60,
      "hit": false,
      "t": 170149.18000000002,
      "d": 1791.0440000000235,
      "v": 85
    },
    {
      "midi": 72,
      "hit": false,
      "t": 170149.18000000002,
      "d": 1791.0440000000235,
      "v": 84
    },
    {
      "midi": 74,
      "hit": false,
      "t": 171940.22400000005,
      "d": 562.0333385416598,
      "v": 89
    },
    {
      "midi": 77,
      "hit": false,
      "t": 171940.22400000005,
      "d": 641.3243489583256,
      "v": 89
    },
    {
      "midi": 70,
      "hit": false,
      "t": 171940.22400000005,
      "d": 783.581749999983,
      "v": 89
    },
    {
      "midi": 58,
      "hit": false,
      "t": 171940.22400000005,
      "d": 3381.528385416663,
      "v": 89
    },
    {
      "midi": 70,
      "hit": false,
      "t": 172835.74600000004,
      "d": 813.8989010416553,
      "v": 87
    },
    {
      "midi": 82,
      "hit": false,
      "t": 172835.74600000004,
      "d": 839.5518749999756,
      "v": 87
    },
    {
      "midi": 69,
      "hit": false,
      "t": 173731.268,
      "d": 687.9661197916721,
      "v": 85
    },
    {
      "midi": 81,
      "hit": false,
      "t": 173731.268,
      "d": 748.6004218750168,
      "v": 85
    },
    {
      "midi": 70,
      "hit": false,
      "t": 174626.79000000004,
      "d": 715.9511822916684,
      "v": 90
    },
    {
      "midi": 82,
      "hit": false,
      "t": 174626.79000000004,
      "d": 753.2645989583398,
      "v": 90
    },
    {
      "midi": 65,
      "hit": false,
      "t": 175522.31200000003,
      "d": 1630.1298906249867,
      "v": 84
    },
    {
      "midi": 72,
      "hit": false,
      "t": 175522.31200000003,
      "d": 1669.7753958333342,
      "v": 84
    },
    {
      "midi": 81,
      "hit": false,
      "t": 175522.31200000003,
      "d": 1669.7753958333342,
      "v": 84
    },
    {
      "midi": 77,
      "hit": false,
      "t": 175522.31200000003,
      "d": 1700.0925468750065,
      "v": 84
    },
    {
      "midi": 79,
      "hit": false,
      "t": 177313.35600000003,
      "d": 1569.4955885416712,
      "v": 84
    },
    {
      "midi": 76,
      "hit": false,
      "t": 177313.35600000003,
      "d": 1578.8239427083463,
      "v": 85
    },
    {
      "midi": 60,
      "hit": false,
      "t": 177313.35600000003,
      "d": 1791.0440000000235,
      "v": 85
    },
    {
      "midi": 72,
      "hit": false,
      "t": 177313.35600000003,
      "d": 1791.0440000000235,
      "v": 84
    },
    {
      "midi": 74,
      "hit": false,
      "t": 179104.40000000005,
      "d": 562.0333385416598,
      "v": 89
    },
    {
      "midi": 77,
      "hit": false,
      "t": 179104.40000000005,
      "d": 641.3243489583256,
      "v": 89
    },
    {
      "midi": 70,
      "hit": false,
      "t": 179104.40000000005,
      "d": 783.581749999983,
      "v": 89
    },
    {
      "midi": 58,
      "hit": false,
      "t": 179104.40000000005,
      "d": 3381.528385416663,
      "v": 89
    },
    {
      "midi": 70,
      "hit": false,
      "t": 179999.92200000005,
      "d": 813.8989010416553,
      "v": 87
    },
    {
      "midi": 82,
      "hit": false,
      "t": 179999.92200000005,
      "d": 839.5518749999756,
      "v": 87
    },
    {
      "midi": 69,
      "hit": false,
      "t": 180895.44400000002,
      "d": 687.9661197916721,
      "v": 85
    },
    {
      "midi": 81,
      "hit": false,
      "t": 180895.44400000002,
      "d": 748.6004218750168,
      "v": 85
    },
    {
      "midi": 70,
      "hit": false,
      "t": 181790.96600000004,
      "d": 715.9511822916684,
      "v": 90
    },
    {
      "midi": 82,
      "hit": false,
      "t": 181790.96600000004,
      "d": 753.2645989583398,
      "v": 90
    },
    {
      "midi": 65,
      "hit": false,
      "t": 182686.48800000004,
      "d": 1630.1298906249867,
      "v": 84
    },
    {
      "midi": 72,
      "hit": false,
      "t": 182686.48800000004,
      "d": 1669.7753958333342,
      "v": 84
    },
    {
      "midi": 81,
      "hit": false,
      "t": 182686.48800000004,
      "d": 1669.7753958333342,
      "v": 84
    },
    {
      "midi": 77,
      "hit": false,
      "t": 182686.48800000004,
      "d": 1700.0925468750065,
      "v": 84
    },
    {
      "midi": 79,
      "hit": false,
      "t": 184477.53200000004,
      "d": 1569.4955885416712,
      "v": 84
    },
    {
      "midi": 76,
      "hit": false,
      "t": 184477.53200000004,
      "d": 1578.8239427083463,
      "v": 85
    },
    {
      "midi": 60,
      "hit": false,
      "t": 184477.53200000004,
      "d": 1791.0440000000235,
      "v": 85
    },
    {
      "midi": 72,
      "hit": false,
      "t": 184477.53200000004,
      "d": 1791.0440000000235,
      "v": 84
    },
    {
      "midi": 74,
      "hit": false,
      "t": 186268.57600000006,
      "d": 562.0333385416598,
      "v": 89
    },
    {
      "midi": 77,
      "hit": false,
      "t": 186268.57600000006,
      "d": 641.3243489583256,
      "v": 89
    },
    {
      "midi": 70,
      "hit": false,
      "t": 186268.57600000006,
      "d": 783.581749999983,
      "v": 89
    },
    {
      "midi": 58,
      "hit": false,
      "t": 186268.57600000006,
      "d": 3381.528385416663,
      "v": 89
    },
    {
      "midi": 70,
      "hit": false,
      "t": 187164.09800000006,
      "d": 813.8989010416553,
      "v": 87
    },
    {
      "midi": 82,
      "hit": false,
      "t": 187164.09800000006,
      "d": 839.5518749999756,
      "v": 87
    },
    {
      "midi": 69,
      "hit": false,
      "t": 188059.62000000002,
      "d": 687.9661197916721,
      "v": 85
    },
    {
      "midi": 81,
      "hit": false,
      "t": 188059.62000000002,
      "d": 748.6004218750168,
      "v": 85
    },
    {
      "midi": 70,
      "hit": false,
      "t": 188955.14200000005,
      "d": 715.9511822916684,
      "v": 90
    },
    {
      "midi": 82,
      "hit": false,
      "t": 188955.14200000005,
      "d": 753.2645989583398,
      "v": 90
    },
    {
      "midi": 81,
      "hit": false,
      "t": 189850.66400000005,
      "d": 1653.45077604166,
      "v": 92
    },
    {
      "midi": 72,
      "hit": false,
      "t": 189850.66400000005,
      "d": 1667.4433072916581,
      "v": 92
    },
    {
      "midi": 77,
      "hit": false,
      "t": 189850.66400000005,
      "d": 1686.1000156249793,
      "v": 92
    },
    {
      "midi": 72,
      "hit": false,
      "t": 191641.708,
      "d": 1660.447041666659,
      "v": 92
    },
    {
      "midi": 76,
      "hit": false,
      "t": 191641.708,
      "d": 1672.1074843749811,
      "v": 92
    },
    {
      "midi": 79,
      "hit": false,
      "t": 191641.708,
      "d": 1700.0925468749774,
      "v": 92
    },
    {
      "midi": 70,
      "hit": false,
      "t": 193432.75199999998,
      "d": 3537.7783177083475,
      "v": 90
    },
    {
      "midi": 72,
      "hit": false,
      "t": 193432.75199999998,
      "d": 3563.4312916666677,
      "v": 90
    },
    {
      "midi": 74,
      "hit": false,
      "t": 193432.75199999998,
      "d": 3600.74470833331,
      "v": 90
    },
    {
      "midi": 77,
      "hit": false,
      "t": 197014.83999999997,
      "d": 18.65670833332115,
      "v": 84
    },
    {
      "midi": 65,
      "hit": false,
      "t": 197014.83999999997,
      "d": 1630.1298906249867,
      "v": 84
    },
    {
      "midi": 72,
      "hit": false,
      "t": 197014.83999999997,
      "d": 1669.7753958333342,
      "v": 84
    },
    {
      "midi": 81,
      "hit": false,
      "t": 197014.83999999997,
      "d": 1669.7753958333342,
      "v": 84
    },
    {
      "midi": 79,
      "hit": false,
      "t": 198805.88399999996,
      "d": 1569.4955885416712,
      "v": 84
    },
    {
      "midi": 76,
      "hit": false,
      "t": 198805.88399999996,
      "d": 1578.8239427083463,
      "v": 85
    },
    {
      "midi": 60,
      "hit": false,
      "t": 198805.88399999996,
      "d": 1791.0440000000235,
      "v": 85
    },
    {
      "midi": 72,
      "hit": false,
      "t": 198805.88399999996,
      "d": 1791.0440000000235,
      "v": 84
    },
    {
      "midi": 74,
      "hit": false,
      "t": 200596.92799999999,
      "d": 562.0333385416598,
      "v": 89
    },
    {
      "midi": 77,
      "hit": false,
      "t": 200596.92799999999,
      "d": 641.3243489583256,
      "v": 89
    },
    {
      "midi": 70,
      "hit": false,
      "t": 200596.92799999999,
      "d": 783.581749999983,
      "v": 89
    },
    {
      "midi": 58,
      "hit": false,
      "t": 200596.92799999999,
      "d": 3381.528385416663,
      "v": 89
    },
    {
      "midi": 70,
      "hit": false,
      "t": 201492.44999999998,
      "d": 813.8989010416553,
      "v": 87
    },
    {
      "midi": 82,
      "hit": false,
      "t": 201492.44999999998,
      "d": 839.5518749999756,
      "v": 87
    },
    {
      "midi": 69,
      "hit": false,
      "t": 202387.97199999995,
      "d": 687.9661197916721,
      "v": 85
    },
    {
      "midi": 81,
      "hit": false,
      "t": 202387.97199999995,
      "d": 748.6004218750168,
      "v": 85
    },
    {
      "midi": 70,
      "hit": false,
      "t": 203283.49399999998,
      "d": 715.9511822916684,
      "v": 90
    },
    {
      "midi": 82,
      "hit": false,
      "t": 203283.49399999998,
      "d": 753.2645989583398,
      "v": 90
    },
    {
      "midi": 65,
      "hit": false,
      "t": 204179.01599999997,
      "d": 1630.1298906249867,
      "v": 84
    },
    {
      "midi": 72,
      "hit": false,
      "t": 204179.01599999997,
      "d": 1669.7753958333342,
      "v": 84
    },
    {
      "midi": 81,
      "hit": false,
      "t": 204179.01599999997,
      "d": 1669.7753958333342,
      "v": 84
    },
    {
      "midi": 77,
      "hit": false,
      "t": 204179.01599999997,
      "d": 1700.0925468750065,
      "v": 84
    },
    {
      "midi": 79,
      "hit": false,
      "t": 205970.05999999997,
      "d": 1569.4955885416712,
      "v": 84
    },
    {
      "midi": 76,
      "hit": false,
      "t": 205970.05999999997,
      "d": 1578.8239427083463,
      "v": 85
    },
    {
      "midi": 60,
      "hit": false,
      "t": 205970.05999999997,
      "d": 1791.0440000000235,
      "v": 85
    },
    {
      "midi": 72,
      "hit": false,
      "t": 205970.05999999997,
      "d": 1791.0440000000235,
      "v": 84
    },
    {
      "midi": 74,
      "hit": false,
      "t": 207761.104,
      "d": 562.0333385416598,
      "v": 89
    },
    {
      "midi": 77,
      "hit": false,
      "t": 207761.104,
      "d": 641.3243489583256,
      "v": 89
    },
    {
      "midi": 70,
      "hit": false,
      "t": 207761.104,
      "d": 783.581749999983,
      "v": 89
    },
    {
      "midi": 58,
      "hit": false,
      "t": 207761.104,
      "d": 3381.528385416663,
      "v": 89
    },
    {
      "midi": 70,
      "hit": false,
      "t": 208656.626,
      "d": 813.8989010416553,
      "v": 87
    },
    {
      "midi": 82,
      "hit": false,
      "t": 208656.626,
      "d": 839.5518749999756,
      "v": 87
    },
    {
      "midi": 69,
      "hit": false,
      "t": 209552.14799999996,
      "d": 687.9661197916721,
      "v": 85
    },
    {
      "midi": 81,
      "hit": false,
      "t": 209552.14799999996,
      "d": 748.6004218750168,
      "v": 85
    },
    {
      "midi": 70,
      "hit": false,
      "t": 210447.66999999998,
      "d": 715.9511822916684,
      "v": 90
    },
    {
      "midi": 82,
      "hit": false,
      "t": 210447.66999999998,
      "d": 753.2645989583398,
      "v": 90
    },
    {
      "midi": 65,
      "hit": false,
      "t": 211343.19199999998,
      "d": 1630.1298906249867,
      "v": 84
    },
    {
      "midi": 72,
      "hit": false,
      "t": 211343.19199999998,
      "d": 1669.7753958333342,
      "v": 84
    },
    {
      "midi": 81,
      "hit": false,
      "t": 211343.19199999998,
      "d": 1669.7753958333342,
      "v": 84
    },
    {
      "midi": 77,
      "hit": false,
      "t": 211343.19199999998,
      "d": 1700.0925468750065,
      "v": 84
    },
    {
      "midi": 79,
      "hit": false,
      "t": 213134.23599999998,
      "d": 1569.4955885416712,
      "v": 84
    },
    {
      "midi": 76,
      "hit": false,
      "t": 213134.23599999998,
      "d": 1578.8239427083463,
      "v": 85
    },
    {
      "midi": 60,
      "hit": false,
      "t": 213134.23599999998,
      "d": 1791.0440000000235,
      "v": 85
    },
    {
      "midi": 72,
      "hit": false,
      "t": 213134.23599999998,
      "d": 1791.0440000000235,
      "v": 84
    },
    {
      "midi": 74,
      "hit": false,
      "t": 214925.28,
      "d": 562.0333385416598,
      "v": 89
    },
    {
      "midi": 77,
      "hit": false,
      "t": 214925.28,
      "d": 641.3243489583256,
      "v": 89
    },
    {
      "midi": 70,
      "hit": false,
      "t": 214925.28,
      "d": 783.581749999983,
      "v": 89
    },
    {
      "midi": 58,
      "hit": false,
      "t": 214925.28,
      "d": 3381.528385416663,
      "v": 89
    },
    {
      "midi": 70,
      "hit": false,
      "t": 215820.802,
      "d": 813.8989010416553,
      "v": 87
    },
    {
      "midi": 82,
      "hit": false,
      "t": 215820.802,
      "d": 839.5518749999756,
      "v": 87
    },
    {
      "midi": 69,
      "hit": false,
      "t": 216716.32399999996,
      "d": 687.9661197916721,
      "v": 85
    },
    {
      "midi": 81,
      "hit": false,
      "t": 216716.32399999996,
      "d": 748.6004218750168,
      "v": 85
    },
    {
      "midi": 70,
      "hit": false,
      "t": 217611.846,
      "d": 715.9511822916684,
      "v": 90
    },
    {
      "midi": 82,
      "hit": false,
      "t": 217611.846,
      "d": 753.2645989583398,
      "v": 90
    },
    {
      "midi": 65,
      "hit": false,
      "t": 218507.368,
      "d": 1630.1298906251905,
      "v": 84
    },
    {
      "midi": 72,
      "hit": false,
      "t": 218507.368,
      "d": 1669.775395833538,
      "v": 84
    },
    {
      "midi": 81,
      "hit": false,
      "t": 218507.368,
      "d": 1669.775395833538,
      "v": 84
    },
    {
      "midi": 77,
      "hit": false,
      "t": 218507.368,
      "d": 1700.0925468752102,
      "v": 84
    },
    {
      "midi": 79,
      "hit": false,
      "t": 220298.4120000002,
      "d": 1569.495588541875,
      "v": 84
    },
    {
      "midi": 76,
      "hit": false,
      "t": 220298.4120000002,
      "d": 1578.82394270855,
      "v": 85
    },
    {
      "midi": 60,
      "hit": false,
      "t": 220298.4120000002,
      "d": 1791.0440000002272,
      "v": 85
    },
    {
      "midi": 72,
      "hit": false,
      "t": 220298.4120000002,
      "d": 1791.0440000002272,
      "v": 84
    },
    {
      "midi": 74,
      "hit": false,
      "t": 222089.4560000004,
      "d": 562.0333385417471,
      "v": 89
    },
    {
      "midi": 77,
      "hit": false,
      "t": 222089.4560000004,
      "d": 641.3243489584129,
      "v": 89
    },
    {
      "midi": 70,
      "hit": false,
      "t": 222089.4560000004,
      "d": 783.5817500000994,
      "v": 89
    },
    {
      "midi": 58,
      "hit": false,
      "t": 222089.4560000004,
      "d": 3381.5283854170702,
      "v": 89
    },
    {
      "midi": 70,
      "hit": false,
      "t": 222984.97800000053,
      "d": 813.8989010417718,
      "v": 87
    },
    {
      "midi": 82,
      "hit": false,
      "t": 222984.97800000053,
      "d": 839.551875000092,
      "v": 87
    },
    {
      "midi": 69,
      "hit": false,
      "t": 223880.5000000006,
      "d": 687.9661197917594,
      "v": 85
    },
    {
      "midi": 81,
      "hit": false,
      "t": 223880.5000000006,
      "d": 748.6004218751041,
      "v": 85
    },
    {
      "midi": 70,
      "hit": false,
      "t": 224776.02200000072,
      "d": 715.9511822917557,
      "v": 90
    },
    {
      "midi": 82,
      "hit": false,
      "t": 224776.02200000072,
      "d": 753.2645989584271,
      "v": 90
    },
    {
      "midi": 65,
      "hit": false,
      "t": 225671.54400000084,
      "d": 1630.1298906251905,
      "v": 84
    },
    {
      "midi": 72,
      "hit": false,
      "t": 225671.54400000084,
      "d": 1669.775395833538,
      "v": 84
    },
    {
      "midi": 81,
      "hit": false,
      "t": 225671.54400000084,
      "d": 1669.775395833538,
      "v": 84
    },
    {
      "midi": 77,
      "hit": false,
      "t": 225671.54400000084,
      "d": 1700.0925468752102,
      "v": 84
    },
    {
      "midi": 79,
      "hit": false,
      "t": 227462.58800000104,
      "d": 1569.495588541875,
      "v": 84
    },
    {
      "midi": 76,
      "hit": false,
      "t": 227462.58800000104,
      "d": 1578.82394270855,
      "v": 85
    },
    {
      "midi": 60,
      "hit": false,
      "t": 227462.58800000104,
      "d": 1791.0440000002272,
      "v": 85
    },
    {
      "midi": 72,
      "hit": false,
      "t": 227462.58800000104,
      "d": 1791.0440000002272,
      "v": 84
    },
    {
      "midi": 74,
      "hit": false,
      "t": 229253.63200000126,
      "d": 562.0333385417471,
      "v": 89
    },
    {
      "midi": 77,
      "hit": false,
      "t": 229253.63200000126,
      "d": 641.3243489584129,
      "v": 89
    },
    {
      "midi": 70,
      "hit": false,
      "t": 229253.63200000126,
      "d": 783.5817500000994,
      "v": 89
    },
    {
      "midi": 58,
      "hit": false,
      "t": 229253.63200000126,
      "d": 3381.5283854170702,
      "v": 89
    },
    {
      "midi": 70,
      "hit": false,
      "t": 230149.15400000138,
      "d": 813.8989010417718,
      "v": 87
    },
    {
      "midi": 82,
      "hit": false,
      "t": 230149.15400000138,
      "d": 839.551875000092,
      "v": 87
    },
    {
      "midi": 69,
      "hit": false,
      "t": 231044.67600000146,
      "d": 687.9661197917594,
      "v": 85
    },
    {
      "midi": 81,
      "hit": false,
      "t": 231044.67600000146,
      "d": 748.6004218751041,
      "v": 85
    },
    {
      "midi": 70,
      "hit": false,
      "t": 231940.19800000158,
      "d": 715.9511822917557,
      "v": 90
    },
    {
      "midi": 82,
      "hit": false,
      "t": 231940.19800000158,
      "d": 753.2645989584271,
      "v": 90
    },
    {
      "midi": 65,
      "hit": false,
      "t": 232835.7200000017,
      "d": 1630.1298906251905,
      "v": 84
    },
    {
      "midi": 72,
      "hit": false,
      "t": 232835.7200000017,
      "d": 1669.775395833538,
      "v": 84
    },
    {
      "midi": 81,
      "hit": false,
      "t": 232835.7200000017,
      "d": 1669.775395833538,
      "v": 84
    },
    {
      "midi": 77,
      "hit": false,
      "t": 232835.7200000017,
      "d": 1700.0925468752102,
      "v": 84
    },
    {
      "midi": 79,
      "hit": false,
      "t": 234626.7640000019,
      "d": 1569.495588541875,
      "v": 84
    },
    {
      "midi": 76,
      "hit": false,
      "t": 234626.7640000019,
      "d": 1578.82394270855,
      "v": 85
    },
    {
      "midi": 60,
      "hit": false,
      "t": 234626.7640000019,
      "d": 1791.0440000002272,
      "v": 85
    },
    {
      "midi": 72,
      "hit": false,
      "t": 234626.7640000019,
      "d": 1791.0440000002272,
      "v": 84
    },
    {
      "midi": 74,
      "hit": false,
      "t": 236417.80800000211,
      "d": 562.0333385417471,
      "v": 89
    },
    {
      "midi": 77,
      "hit": false,
      "t": 236417.80800000211,
      "d": 641.3243489584129,
      "v": 89
    },
    {
      "midi": 70,
      "hit": false,
      "t": 236417.80800000211,
      "d": 783.5817500000994,
      "v": 89
    },
    {
      "midi": 58,
      "hit": false,
      "t": 236417.80800000211,
      "d": 3381.5283854170702,
      "v": 89
    },
    {
      "midi": 70,
      "hit": false,
      "t": 237313.33000000223,
      "d": 813.8989010417718,
      "v": 87
    },
    {
      "midi": 82,
      "hit": false,
      "t": 237313.33000000223,
      "d": 839.551875000092,
      "v": 87
    },
    {
      "midi": 69,
      "hit": false,
      "t": 238208.8520000023,
      "d": 687.9661197917594,
      "v": 85
    },
    {
      "midi": 81,
      "hit": false,
      "t": 238208.8520000023,
      "d": 748.6004218751041,
      "v": 85
    },
    {
      "midi": 70,
      "hit": false,
      "t": 239104.37400000243,
      "d": 715.9511822917557,
      "v": 90
    },
    {
      "midi": 82,
      "hit": false,
      "t": 239104.37400000243,
      "d": 753.2645989584271,
      "v": 90
    },
    {
      "midi": 65,
      "hit": false,
      "t": 239999.89600000254,
      "d": 1630.1298906251905,
      "v": 84
    },
    {
      "midi": 72,
      "hit": false,
      "t": 239999.89600000254,
      "d": 1669.775395833538,
      "v": 84
    },
    {
      "midi": 81,
      "hit": false,
      "t": 239999.89600000254,
      "d": 1669.775395833538,
      "v": 84
    },
    {
      "midi": 77,
      "hit": false,
      "t": 239999.89600000254,
      "d": 1700.0925468752102,
      "v": 84
    },
    {
      "midi": 79,
      "hit": false,
      "t": 241790.94000000274,
      "d": 1569.495588541875,
      "v": 84
    },
    {
      "midi": 76,
      "hit": false,
      "t": 241790.94000000274,
      "d": 1578.82394270855,
      "v": 85
    },
    {
      "midi": 60,
      "hit": false,
      "t": 241790.94000000274,
      "d": 1791.0440000002272,
      "v": 85
    },
    {
      "midi": 72,
      "hit": false,
      "t": 241790.94000000274,
      "d": 1791.0440000002272,
      "v": 84
    },
    {
      "midi": 74,
      "hit": false,
      "t": 243581.98400000297,
      "d": 562.0333385417471,
      "v": 89
    },
    {
      "midi": 77,
      "hit": false,
      "t": 243581.98400000297,
      "d": 641.3243489584129,
      "v": 89
    },
    {
      "midi": 70,
      "hit": false,
      "t": 243581.98400000297,
      "d": 783.5817500000994,
      "v": 89
    },
    {
      "midi": 58,
      "hit": false,
      "t": 243581.98400000297,
      "d": 3381.5283854170702,
      "v": 89
    },
    {
      "midi": 70,
      "hit": false,
      "t": 244477.50600000308,
      "d": 813.8989010417718,
      "v": 87
    },
    {
      "midi": 82,
      "hit": false,
      "t": 244477.50600000308,
      "d": 839.551875000092,
      "v": 87
    },
    {
      "midi": 69,
      "hit": false,
      "t": 245373.02800000316,
      "d": 687.9661197917594,
      "v": 85
    },
    {
      "midi": 81,
      "hit": false,
      "t": 245373.02800000316,
      "d": 748.6004218751041,
      "v": 85
    },
    {
      "midi": 70,
      "hit": false,
      "t": 246268.55000000328,
      "d": 715.9511822917557,
      "v": 90
    },
    {
      "midi": 82,
      "hit": false,
      "t": 246268.55000000328,
      "d": 753.2645989584271,
      "v": 90
    }
  ]
}