{
  "jsonPath": "Unknown/Unknown/Sergey Rachmaninov/mazurka-op-68-no-2-in-a-minor.json",
  "path": "Unknown\\Unknown\\Sergey Rachmaninov\\Mazurka Op 68 No 2 in A Minor.mid",
  "name": "Mazurka Op 68 No 2 in A Minor",
  "difficulty": "Advanced",
  "bpm": 120,
  "notes": [
    {
      "midi": 64,
      "hit": false,
      "t": 2000,
      "d": 153.64583333333348,
      "v": 45
    },
    {
      "midi": 69,
      "hit": false,
      "t": 2140.625,
      "d": 505.2083333333335,
      "v": 57
    },
    {
      "midi": 72,
      "hit": false,
      "t": 2591.1458333333335,
      "d": 161.45833333333348,
      "v": 64
    },
    {
      "midi": 64,
      "hit": false,
      "t": 2677.0833333333335,
      "d": 111.97916666666652,
      "v": 56
    },
    {
      "midi": 76,
      "hit": false,
      "t": 2770.8333333333335,
      "d": 234.375,
      "v": 76
    },
    {
      "midi": 33,
      "hit": false,
      "t": 2773.4375,
      "d": 145.83333333333348,
      "v": 38
    },
    {
      "midi": 76,
      "hit": false,
      "t": 3177.0833333333335,
      "d": 111.97916666666652,
      "v": 69
    },
    {
      "midi": 60,
      "hit": false,
      "t": 3265.625,
      "d": 286.45833333333303,
      "v": 45
    },
    {
      "midi": 72,
      "hit": false,
      "t": 3265.625,
      "d": 361.9791666666665,
      "v": 79
    },
    {
      "midi": 52,
      "hit": false,
      "t": 3281.25,
      "d": 239.58333333333303,
      "v": 37
    },
    {
      "midi": 75,
      "hit": false,
      "t": 3697.9166666666665,
      "d": 46.875,
      "v": 69
    },
    {
      "midi": 59,
      "hit": false,
      "t": 3705.7291666666665,
      "d": 369.7916666666665,
      "v": 44
    },
    {
      "midi": 52,
      "hit": false,
      "t": 3710.9375,
      "d": 354.1666666666665,
      "v": 48
    },
    {
      "midi": 76,
      "hit": false,
      "t": 3763.020833333333,
      "d": 54.6875,
      "v": 75
    },
    {
      "midi": 75,
      "hit": false,
      "t": 3828.1249999999995,
      "d": 65.10416666666697,
      "v": 57
    },
    {
      "midi": 76,
      "hit": false,
      "t": 3911.458333333333,
      "d": 54.6875,
      "v": 66
    },
    {
      "midi": 75,
      "hit": false,
      "t": 3958.333333333333,
      "d": 70.3125,
      "v": 69
    },
    {
      "midi": 74,
      "hit": false,
      "t": 4036.458333333333,
      "d": 46.875,
      "v": 61
    },
    {
      "midi": 75,
      "hit": false,
      "t": 4101.5625,
      "d": 98.95833333333394,
      "v": 68
    },
    {
      "midi": 45,
      "hit": false,
      "t": 4174.479166666667,
      "d": 283.8541666666679,
      "v": 49
    },
    {
      "midi": 76,
      "hit": false,
      "t": 4197.916666666667,
      "d": 218.7500000000009,
      "v": 75
    },
    {
      "midi": 76,
      "hit": false,
      "t": 4578.125000000002,
      "d": 83.33333333333303,
      "v": 55
    },
    {
      "midi": 69,
      "hit": false,
      "t": 4682.291666666668,
      "d": 533.854166666667,
      "v": 68
    },
    {
      "midi": 60,
      "hit": false,
      "t": 4692.708333333335,
      "d": 205.72916666666697,
      "v": 30
    },
    {
      "midi": 52,
      "hit": false,
      "t": 4718.750000000002,
      "d": 171.875,
      "v": 33
    },
    {
      "midi": 72,
      "hit": false,
      "t": 5171.875000000002,
      "d": 424.47916666666697,
      "v": 59
    },
    {
      "midi": 60,
      "hit": false,
      "t": 5203.125000000002,
      "d": 166.66666666666697,
      "v": 41
    },
    {
      "midi": 52,
      "hit": false,
      "t": 5203.125000000002,
      "d": 296.875,
      "v": 37
    },
    {
      "midi": 71,
      "hit": false,
      "t": 5578.125000000002,
      "d": 161.45833333333394,
      "v": 59
    },
    {
      "midi": 45,
      "hit": false,
      "t": 5585.937500000002,
      "d": 91.14583333333394,
      "v": 39
    },
    {
      "midi": 71,
      "hit": false,
      "t": 5877.604166666669,
      "d": 80.72916666666697,
      "v": 52
    },
    {
      "midi": 66,
      "hit": false,
      "t": 5976.562500000003,
      "d": 268.22916666666697,
      "v": 64
    },
    {
      "midi": 62,
      "hit": false,
      "t": 5989.583333333336,
      "d": 174.47916666666697,
      "v": 24
    },
    {
      "midi": 52,
      "hit": false,
      "t": 6007.812500000003,
      "d": 174.47916666666697,
      "v": 26
    },
    {
      "midi": 52,
      "hit": false,
      "t": 6388.020833333337,
      "d": 200.52083333333394,
      "v": 35
    },
    {
      "midi": 62,
      "hit": false,
      "t": 6398.437500000004,
      "d": 143.22916666666697,
      "v": 33
    },
    {
      "midi": 68,
      "hit": false,
      "t": 6401.041666666671,
      "d": 52.08333333333303,
      "v": 50
    },
    {
      "midi": 69,
      "hit": false,
      "t": 6476.562500000004,
      "d": 54.6875,
      "v": 41
    },
    {
      "midi": 68,
      "hit": false,
      "t": 6533.854166666671,
      "d": 65.10416666666697,
      "v": 70
    },
    {
      "midi": 69,
      "hit": false,
      "t": 6606.770833333338,
      "d": 49.47916666666697,
      "v": 61
    },
    {
      "midi": 68,
      "hit": false,
      "t": 6658.8541666666715,
      "d": 132.8125,
      "v": 66
    },
    {
      "midi": 66,
      "hit": false,
      "t": 6765.625000000005,
      "d": 80.72916666666697,
      "v": 64
    },
    {
      "midi": 68,
      "hit": false,
      "t": 6864.5833333333385,
      "d": 85.9375,
      "v": 64
    },
    {
      "midi": 45,
      "hit": false,
      "t": 6942.7083333333385,
      "d": 476.5625,
      "v": 40
    },
    {
      "midi": 69,
      "hit": false,
      "t": 6958.3333333333385,
      "d": 195.3125,
      "v": 70
    },
    {
      "midi": 64,
      "hit": false,
      "t": 7369.7916666666715,
      "d": 57.29166666666697,
      "v": 57
    },
    {
      "midi": 60,
      "hit": false,
      "t": 7440.1041666666715,
      "d": 145.83333333333394,
      "v": 32
    },
    {
      "midi": 69,
      "hit": false,
      "t": 7442.7083333333385,
      "d": 140.625,
      "v": 66
    },
    {
      "midi": 52,
      "hit": false,
      "t": 7468.7500000000055,
      "d": 122.39583333333303,
      "v": 32
    },
    {
      "midi": 64,
      "hit": false,
      "t": 7750.0000000000055,
      "d": 57.29166666666697,
      "v": 55
    },
    {
      "midi": 69,
      "hit": false,
      "t": 7833.333333333339,
      "d": 98.95833333333394,
      "v": 58
    },
    {
      "midi": 52,
      "hit": false,
      "t": 7833.333333333339,
      "d": 187.5000000000009,
      "v": 38
    },
    {
      "midi": 60,
      "hit": false,
      "t": 7843.750000000006,
      "d": 104.16666666666697,
      "v": 32
    },
    {
      "midi": 72,
      "hit": false,
      "t": 8119.791666666673,
      "d": 72.91666666666606,
      "v": 59
    },
    {
      "midi": 45,
      "hit": false,
      "t": 8210.937500000005,
      "d": 138.02083333333212,
      "v": 39
    },
    {
      "midi": 76,
      "hit": false,
      "t": 8244.791666666672,
      "d": 132.8125,
      "v": 55
    },
    {
      "midi": 76,
      "hit": false,
      "t": 8630.208333333338,
      "d": 70.3125,
      "v": 54
    },
    {
      "midi": 60,
      "hit": false,
      "t": 8731.770833333338,
      "d": 296.8750000000018,
      "v": 27
    },
    {
      "midi": 72,
      "hit": false,
      "t": 8731.770833333338,
      "d": 382.8125000000018,
      "v": 61
    },
    {
      "midi": 52,
      "hit": false,
      "t": 8760.416666666672,
      "d": 268.2291666666679,
      "v": 17
    },
    {
      "midi": 75,
      "hit": false,
      "t": 9174.479166666673,
      "d": 44.27083333333212,
      "v": 68
    },
    {
      "midi": 52,
      "hit": false,
      "t": 9200.52083333334,
      "d": 304.6875000000018,
      "v": 19
    },
    {
      "midi": 59,
      "hit": false,
      "t": 9203.125000000005,
      "d": 242.18750000000182,
      "v": 28
    },
    {
      "midi": 76,
      "hit": false,
      "t": 9239.58333333334,
      "d": 54.6875,
      "v": 76
    },
    {
      "midi": 75,
      "hit": false,
      "t": 9307.291666666673,
      "d": 91.14583333333394,
      "v": 53
    },
    {
      "midi": 76,
      "hit": false,
      "t": 9385.416666666673,
      "d": 80.72916666666788,
      "v": 71
    },
    {
      "midi": 75,
      "hit": false,
      "t": 9468.750000000007,
      "d": 54.6875,
      "v": 68
    },
    {
      "midi": 74,
      "hit": false,
      "t": 9544.270833333341,
      "d": 57.29166666666606,
      "v": 64
    },
    {
      "midi": 75,
      "hit": false,
      "t": 9611.979166666673,
      "d": 114.58333333333394,
      "v": 61
    },
    {
      "midi": 45,
      "hit": false,
      "t": 9692.70833333334,
      "d": 138.02083333333576,
      "v": 47
    },
    {
      "midi": 76,
      "hit": false,
      "t": 9713.541666666673,
      "d": 132.81250000000182,
      "v": 77
    },
    {
      "midi": 76,
      "hit": false,
      "t": 10067.708333333341,
      "d": 59.89583333333394,
      "v": 68
    },
    {
      "midi": 60,
      "hit": false,
      "t": 10151.041666666675,
      "d": 208.33333333333394,
      "v": 29
    },
    {
      "midi": 69,
      "hit": false,
      "t": 10171.87500000001,
      "d": 473.9583333333321,
      "v": 66
    },
    {
      "midi": 52,
      "hit": false,
      "t": 10182.291666666675,
      "d": 187.5,
      "v": 26
    },
    {
      "midi": 72,
      "hit": false,
      "t": 10619.791666666675,
      "d": 414.0624999999982,
      "v": 58
    },
    {
      "midi": 60,
      "hit": false,
      "t": 10638.020833333341,
      "d": 148.4375,
      "v": 29
    },
    {
      "midi": 52,
      "hit": false,
      "t": 10645.833333333341,
      "d": 156.25,
      "v": 34
    },
    {
      "midi": 71,
      "hit": false,
      "t": 11039.062500000007,
      "d": 80.72916666666606,
      "v": 47
    },
    {
      "midi": 45,
      "hit": false,
      "t": 11052.083333333341,
      "d": 49.47916666666606,
      "v": 44
    },
    {
      "midi": 71,
      "hit": false,
      "t": 11369.791666666673,
      "d": 62.5,
      "v": 45
    },
    {
      "midi": 66,
      "hit": false,
      "t": 11440.104166666673,
      "d": 265.625,
      "v": 48
    },
    {
      "midi": 62,
      "hit": false,
      "t": 11445.312500000007,
      "d": 153.64583333333212,
      "v": 25
    },
    {
      "midi": 52,
      "hit": false,
      "t": 11471.354166666673,
      "d": 96.35416666666606,
      "v": 25
    },
    {
      "midi": 62,
      "hit": false,
      "t": 11854.166666666673,
      "d": 197.91666666666606,
      "v": 27
    },
    {
      "midi": 68,
      "hit": false,
      "t": 11880.20833333334,
      "d": 70.3125,
      "v": 33
    },
    {
      "midi": 52,
      "hit": false,
      "t": 11880.20833333334,
      "d": 226.5625,
      "v": 26
    },
    {
      "midi": 69,
      "hit": false,
      "t": 11968.750000000005,
      "d": 59.89583333333394,
      "v": 36
    },
    {
      "midi": 68,
      "hit": false,
      "t": 12020.83333333334,
      "d": 49.47916666666606,
      "v": 53
    },
    {
      "midi": 69,
      "hit": false,
      "t": 12119.791666666673,
      "d": 57.29166666666606,
      "v": 50
    },
    {
      "midi": 68,
      "hit": false,
      "t": 12174.479166666673,
      "d": 111.97916666666606,
      "v": 44
    },
    {
      "midi": 66,
      "hit": false,
      "t": 12286.45833333334,
      "d": 88.54166666666788,
      "v": 46
    },
    {
      "midi": 68,
      "hit": false,
      "t": 12369.791666666673,
      "d": 96.35416666666788,
      "v": 55
    },
    {
      "midi": 69,
      "hit": false,
      "t": 12513.020833333341,
      "d": 85.9375,
      "v": 53
    },
    {
      "midi": 45,
      "hit": false,
      "t": 12528.645833333341,
      "d": 408.85416666666606,
      "v": 35
    },
    {
      "midi": 81,
      "hit": false,
      "t": 12726.562500000007,
      "d": 580.7291666666661,
      "v": 54
    },
    {
      "midi": 60,
      "hit": false,
      "t": 13348.95833333334,
      "d": 658.8541666666661,
      "v": 17
    },
    {
      "midi": 52,
      "hit": false,
      "t": 13351.562500000005,
      "d": 700.5208333333339,
      "v": 15
    },
    {
      "midi": 64,
      "hit": false,
      "t": 14020.83333333334,
      "d": 106.77083333333394,
      "v": 31
    },
    {
      "midi": 69,
      "hit": false,
      "t": 14171.875000000007,
      "d": 411.4583333333321,
      "v": 41
    },
    {
      "midi": 72,
      "hit": false,
      "t": 14541.666666666673,
      "d": 166.66666666666606,
      "v": 50
    },
    {
      "midi": 64,
      "hit": false,
      "t": 14669.27083333334,
      "d": 192.70833333333212,
      "v": 44
    },
    {
      "midi": 33,
      "hit": false,
      "t": 14820.312500000005,
      "d": 153.64583333333212,
      "v": 24
    },
    {
      "midi": 76,
      "hit": false,
      "t": 14830.729166666672,
      "d": 210.9375,
      "v": 41
    },
    {
      "midi": 76,
      "hit": false,
      "t": 15338.541666666672,
      "d": 80.72916666666606,
      "v": 41
    },
    {
      "midi": 60,
      "hit": false,
      "t": 15476.562500000004,
      "d": 393.2291666666679,
      "v": 29
    },
    {
      "midi": 72,
      "hit": false,
      "t": 15476.562500000004,
      "d": 518.2291666666679,
      "v": 39
    },
    {
      "midi": 52,
      "hit": false,
      "t": 15489.583333333338,
      "d": 364.58333333333394,
      "v": 26
    },
    {
      "midi": 75,
      "hit": false,
      "t": 16018.229166666672,
      "d": 52.08333333333212,
      "v": 45
    },
    {
      "midi": 59,
      "hit": false,
      "t": 16036.458333333338,
      "d": 382.8124999999982,
      "v": 26
    },
    {
      "midi": 52,
      "hit": false,
      "t": 16052.083333333338,
      "d": 197.91666666666424,
      "v": 24
    },
    {
      "midi": 76,
      "hit": false,
      "t": 16078.125000000004,
      "d": 46.875,
      "v": 61
    },
    {
      "midi": 75,
      "hit": false,
      "t": 16151.04166666667,
      "d": 65.10416666666606,
      "v": 54
    },
    {
      "midi": 76,
      "hit": false,
      "t": 16226.562500000002,
      "d": 109.375,
      "v": 51
    },
    {
      "midi": 75,
      "hit": false,
      "t": 16299.479166666668,
      "d": 75.52083333333394,
      "v": 57
    },
    {
      "midi": 74,
      "hit": false,
      "t": 16393.229166666668,
      "d": 57.29166666666788,
      "v": 53
    },
    {
      "midi": 75,
      "hit": false,
      "t": 16453.125000000004,
      "d": 98.95833333333576,
      "v": 53
    },
    {
      "midi": 45,
      "hit": false,
      "t": 16536.45833333334,
      "d": 156.24999999999636,
      "v": 32
    },
    {
      "midi": 76,
      "hit": false,
      "t": 16565.10416666667,
      "d": 226.56249999999636,
      "v": 51
    },
    {
      "midi": 76,
      "hit": false,
      "t": 16914.0625,
      "d": 104.16666666666788,
      "v": 54
    },
    {
      "midi": 60,
      "hit": false,
      "t": 17015.625,
      "d": 273.4375,
      "v": 28
    },
    {
      "midi": 52,
      "hit": false,
      "t": 17033.854166666668,
      "d": 231.77083333333212,
      "v": 20
    },
    {
      "midi": 69,
      "hit": false,
      "t": 17039.0625,
      "d": 541.6666666666679,
      "v": 53
    },
    {
      "midi": 72,
      "hit": false,
      "t": 17523.4375,
      "d": 450.5208333333321,
      "v": 63
    },
    {
      "midi": 52,
      "hit": false,
      "t": 17539.0625,
      "d": 187.5,
      "v": 40
    },
    {
      "midi": 60,
      "hit": false,
      "t": 17557.291666666668,
      "d": 169.27083333333212,
      "v": 29
    },
    {
      "midi": 71,
      "hit": false,
      "t": 17968.75,
      "d": 169.27083333333212,
      "v": 52
    },
    {
      "midi": 45,
      "hit": false,
      "t": 17994.791666666664,
      "d": 72.91666666666788,
      "v": 45
    },
    {
      "midi": 71,
      "hit": false,
      "t": 18328.125,
      "d": 59.89583333333212,
      "v": 37
    },
    {
      "midi": 62,
      "hit": false,
      "t": 18406.25,
      "d": 255.20833333333212,
      "v": 39
    },
    {
      "midi": 66,
      "hit": false,
      "t": 18411.458333333332,
      "d": 281.25,
      "v": 57
    },
    {
      "midi": 52,
      "hit": false,
      "t": 18427.083333333332,
      "d": 229.16666666666788,
      "v": 33
    },
    {
      "midi": 68,
      "hit": false,
      "t": 18830.729166666664,
      "d": 49.47916666666788,
      "v": 61
    },
    {
      "midi": 62,
      "hit": false,
      "t": 18864.583333333332,
      "d": 143.22916666666424,
      "v": 30
    },
    {
      "midi": 52,
      "hit": false,
      "t": 18875,
      "d": 171.87499999999636,
      "v": 29
    },
    {
      "midi": 69,
      "hit": false,
      "t": 18908.854166666664,
      "d": 46.875,
      "v": 54
    },
    {
      "midi": 68,
      "hit": false,
      "t": 18953.124999999996,
      "d": 62.5,
      "v": 55
    },
    {
      "midi": 69,
      "hit": false,
      "t": 19039.062499999996,
      "d": 65.10416666666424,
      "v": 64
    },
    {
      "midi": 68,
      "hit": false,
      "t": 19091.14583333333,
      "d": 85.9375,
      "v": 61
    },
    {
      "midi": 66,
      "hit": false,
      "t": 19177.08333333333,
      "d": 67.70833333333212,
      "v": 56
    },
    {
      "midi": 68,
      "hit": false,
      "t": 19252.60416666666,
      "d": 83.33333333333212,
      "v": 66
    },
    {
      "midi": 69,
      "hit": false,
      "t": 19335.937499999993,
      "d": 114.58333333333576,
      "v": 69
    },
    {
      "midi": 45,
      "hit": false,
      "t": 19338.54166666666,
      "d": 776.0416666666642,
      "v": 38
    },
    {
      "midi": 64,
      "hit": false,
      "t": 19697.91666666666,
      "d": 46.875,
      "v": 59
    },
    {
      "midi": 52,
      "hit": false,
      "t": 19749.999999999993,
      "d": 171.87499999999636,
      "v": 40
    },
    {
      "midi": 60,
      "hit": false,
      "t": 19763.020833333325,
      "d": 177.08333333333212,
      "v": 36
    },
    {
      "midi": 69,
      "hit": false,
      "t": 19776.041666666657,
      "d": 127.60416666666424,
      "v": 65
    },
    {
      "midi": 64,
      "hit": false,
      "t": 20072.916666666657,
      "d": 91.14583333333576,
      "v": 59
    },
    {
      "midi": 69,
      "hit": false,
      "t": 20153.645833333325,
      "d": 125,
      "v": 69
    },
    {
      "midi": 60,
      "hit": false,
      "t": 20177.083333333325,
      "d": 75.52083333333212,
      "v": 38
    },
    {
      "midi": 52,
      "hit": false,
      "t": 20182.291666666657,
      "d": 62.5,
      "v": 42
    },
    {
      "midi": 72,
      "hit": false,
      "t": 20481.770833333325,
      "d": 75.52083333333576,
      "v": 70
    },
    {
      "midi": 45,
      "hit": false,
      "t": 20557.29166666666,
      "d": 489.5833333333321,
      "v": 50
    },
    {
      "midi": 76,
      "hit": false,
      "t": 20593.749999999993,
      "d": 138.02083333333576,
      "v": 68
    },
    {
      "midi": 76,
      "hit": false,
      "t": 21010.41666666666,
      "d": 67.70833333333212,
      "v": 60
    },
    {
      "midi": 72,
      "hit": false,
      "t": 21091.145833333325,
      "d": 359.375,
      "v": 79
    },
    {
      "midi": 60,
      "hit": false,
      "t": 21104.166666666657,
      "d": 283.8541666666679,
      "v": 41
    },
    {
      "midi": 52,
      "hit": false,
      "t": 21114.583333333325,
      "d": 242.1875,
      "v": 38
    },
    {
      "midi": 75,
      "hit": false,
      "t": 21557.291666666657,
      "d": 49.47916666666424,
      "v": 62
    },
    {
      "midi": 59,
      "hit": false,
      "t": 21565.104166666657,
      "d": 317.7083333333285,
      "v": 23
    },
    {
      "midi": 52,
      "hit": false,
      "t": 21570.31249999999,
      "d": 304.68749999999636,
      "v": 36
    },
    {
      "midi": 76,
      "hit": false,
      "t": 21624.99999999999,
      "d": 46.875,
      "v": 69
    },
    {
      "midi": 75,
      "hit": false,
      "t": 21677.08333333332,
      "d": 91.14583333333212,
      "v": 56
    },
    {
      "midi": 76,
      "hit": false,
      "t": 21768.229166666653,
      "d": 59.89583333333212,
      "v": 59
    },
    {
      "midi": 75,
      "hit": false,
      "t": 21822.916666666653,
      "d": 78.125,
      "v": 61
    },
    {
      "midi": 74,
      "hit": false,
      "t": 21906.249999999985,
      "d": 62.5,
      "v": 57
    },
    {
      "midi": 75,
      "hit": false,
      "t": 21971.354166666653,
      "d": 104.16666666666424,
      "v": 68
    },
    {
      "midi": 45,
      "hit": false,
      "t": 22039.062499999985,
      "d": 231.77083333333212,
      "v": 37
    },
    {
      "midi": 76,
      "hit": false,
      "t": 22072.91666666665,
      "d": 179.6875,
      "v": 76
    },
    {
      "midi": 76,
      "hit": false,
      "t": 22416.66666666665,
      "d": 54.6875,
      "v": 76
    },
    {
      "midi": 60,
      "hit": false,
      "t": 22520.833333333318,
      "d": 177.08333333333576,
      "v": 22
    },
    {
      "midi": 69,
      "hit": false,
      "t": 22531.249999999985,
      "d": 513.0208333333358,
      "v": 66
    },
    {
      "midi": 52,
      "hit": false,
      "t": 22536.458333333318,
      "d": 158.85416666666788,
      "v": 33
    },
    {
      "midi": 72,
      "hit": false,
      "t": 23020.83333333332,
      "d": 416.6666666666679,
      "v": 53
    },
    {
      "midi": 60,
      "hit": false,
      "t": 23046.87499999999,
      "d": 169.27083333333212,
      "v": 35
    },
    {
      "midi": 52,
      "hit": false,
      "t": 23052.08333333332,
      "d": 273.4375,
      "v": 36
    },
    {
      "midi": 71,
      "hit": false,
      "t": 23437.49999999999,
      "d": 148.4375,
      "v": 45
    },
    {
      "midi": 45,
      "hit": false,
      "t": 23494.791666666657,
      "d": 54.6875,
      "v": 37
    },
    {
      "midi": 71,
      "hit": false,
      "t": 23768.229166666657,
      "d": 59.89583333333212,
      "v": 44
    },
    {
      "midi": 62,
      "hit": false,
      "t": 23874.99999999999,
      "d": 190.10416666666788,
      "v": 26
    },
    {
      "midi": 66,
      "hit": false,
      "t": 23874.99999999999,
      "d": 289.06250000000364,
      "v": 45
    },
    {
      "midi": 52,
      "hit": false,
      "t": 23906.24999999999,
      "d": 174.47916666666788,
      "v": 23
    },
    {
      "midi": 68,
      "hit": false,
      "t": 24322.91666666666,
      "d": 62.5,
      "v": 45
    },
    {
      "midi": 52,
      "hit": false,
      "t": 24374.999999999993,
      "d": 244.79166666667152,
      "v": 21
    },
    {
      "midi": 62,
      "hit": false,
      "t": 24382.812499999993,
      "d": 255.2083333333394,
      "v": 15
    },
    {
      "midi": 69,
      "hit": false,
      "t": 24416.66666666666,
      "d": 57.29166666666788,
      "v": 41
    },
    {
      "midi": 68,
      "hit": false,
      "t": 24481.77083333333,
      "d": 57.29166666666788,
      "v": 44
    },
    {
      "midi": 69,
      "hit": false,
      "t": 24580.729166666664,
      "d": 91.14583333333576,
      "v": 40
    },
    {
      "midi": 68,
      "hit": false,
      "t": 24677.083333333332,
      "d": 88.54166666666788,
      "v": 50
    },
    {
      "midi": 66,
      "hit": false,
      "t": 24789.0625,
      "d": 117.1875,
      "v": 52
    },
    {
      "midi": 68,
      "hit": false,
      "t": 24919.270833333332,
      "d": 75.52083333333212,
      "v": 47
    },
    {
      "midi": 60,
      "hit": false,
      "t": 25020.833333333332,
      "d": 640.6250000000036,
      "v": 23
    },
    {
      "midi": 57,
      "hit": false,
      "t": 25046.875,
      "d": 692.7083333333358,
      "v": 20
    },
    {
      "midi": 69,
      "hit": false,
      "t": 25072.916666666668,
      "d": 520.8333333333358,
      "v": 20
    },
    {
      "midi": 81,
      "hit": false,
      "t": 25268.229166666668,
      "d": 739.5833333333358,
      "v": 41
    },
    {
      "midi": 67,
      "hit": false,
      "t": 26419.270833333336,
      "d": 127.60416666666788,
      "v": 48
    },
    {
      "midi": 72,
      "hit": false,
      "t": 26531.250000000004,
      "d": 375,
      "v": 75
    },
    {
      "midi": 76,
      "hit": false,
      "t": 26875.000000000004,
      "d": 125,
      "v": 77
    },
    {
      "midi": 79,
      "hit": false,
      "t": 26989.583333333336,
      "d": 250,
      "v": 82
    },
    {
      "midi": 48,
      "hit": false,
      "t": 27002.60416666667,
      "d": 192.70833333333212,
      "v": 45
    },
    {
      "midi": 79,
      "hit": false,
      "t": 27494.791666666668,
      "d": 148.43750000000364,
      "v": 77
    },
    {
      "midi": 64,
      "hit": false,
      "t": 27557.291666666668,
      "d": 401.0416666666715,
      "v": 60
    },
    {
      "midi": 55,
      "hit": false,
      "t": 27575.520833333336,
      "d": 299.4791666666679,
      "v": 41
    },
    {
      "midi": 76,
      "hit": false,
      "t": 27601.562500000004,
      "d": 330.7291666666679,
      "v": 81
    },
    {
      "midi": 78,
      "hit": false,
      "t": 28046.875000000007,
      "d": 44.27083333333212,
      "v": 64
    },
    {
      "midi": 63,
      "hit": false,
      "t": 28052.08333333334,
      "d": 203.12499999999636,
      "v": 53
    },
    {
      "midi": 55,
      "hit": false,
      "t": 28065.10416666667,
      "d": 195.3125,
      "v": 44
    },
    {
      "midi": 79,
      "hit": false,
      "t": 28098.95833333334,
      "d": 44.27083333333212,
      "v": 76
    },
    {
      "midi": 78,
      "hit": false,
      "t": 28156.250000000004,
      "d": 101.5625,
      "v": 59
    },
    {
      "midi": 79,
      "hit": false,
      "t": 28239.583333333336,
      "d": 96.35416666667152,
      "v": 66
    },
    {
      "midi": 78,
      "hit": false,
      "t": 28302.08333333334,
      "d": 78.12500000000364,
      "v": 45
    },
    {
      "midi": 77,
      "hit": false,
      "t": 28369.791666666675,
      "d": 119.79166666666424,
      "v": 75
    },
    {
      "midi": 78,
      "hit": false,
      "t": 28447.916666666675,
      "d": 122.39583333333212,
      "v": 71
    },
    {
      "midi": 48,
      "hit": false,
      "t": 28531.250000000007,
      "d": 182.29166666666788,
      "v": 55
    },
    {
      "midi": 79,
      "hit": false,
      "t": 28531.250000000007,
      "d": 213.54166666666788,
      "v": 83
    },
    {
      "midi": 79,
      "hit": false,
      "t": 28903.645833333343,
      "d": 70.3125,
      "v": 77
    },
    {
      "midi": 64,
      "hit": false,
      "t": 28968.75000000001,
      "d": 317.7083333333321,
      "v": 52
    },
    {
      "midi": 55,
      "hit": false,
      "t": 28981.770833333343,
      "d": 210.9375,
      "v": 44
    },
    {
      "midi": 76,
      "hit": false,
      "t": 28989.583333333343,
      "d": 278.6458333333321,
      "v": 81
    },
    {
      "midi": 78,
      "hit": false,
      "t": 29401.04166666668,
      "d": 41.66666666666424,
      "v": 70
    },
    {
      "midi": 63,
      "hit": false,
      "t": 29421.87500000001,
      "d": 119.79166666667152,
      "v": 52
    },
    {
      "midi": 55,
      "hit": false,
      "t": 29437.50000000001,
      "d": 140.62500000000364,
      "v": 48
    },
    {
      "midi": 79,
      "hit": false,
      "t": 29453.12500000001,
      "d": 59.89583333333576,
      "v": 77
    },
    {
      "midi": 78,
      "hit": false,
      "t": 29531.250000000015,
      "d": 80.72916666666788,
      "v": 54
    },
    {
      "midi": 79,
      "hit": false,
      "t": 29604.166666666682,
      "d": 83.33333333333212,
      "v": 69
    },
    {
      "midi": 78,
      "hit": false,
      "t": 29674.479166666682,
      "d": 57.29166666666424,
      "v": 56
    },
    {
      "midi": 77,
      "hit": false,
      "t": 29726.562500000015,
      "d": 49.47916666666788,
      "v": 77
    },
    {
      "midi": 78,
      "hit": false,
      "t": 29802.08333333335,
      "d": 114.58333333333576,
      "v": 68
    },
    {
      "midi": 48,
      "hit": false,
      "t": 29875.00000000002,
      "d": 148.4375,
      "v": 41
    },
    {
      "midi": 79,
      "hit": false,
      "t": 29890.62500000002,
      "d": 182.29166666666788,
      "v": 79
    },
    {
      "midi": 79,
      "hit": false,
      "t": 30252.604166666686,
      "d": 122.39583333333576,
      "v": 73
    },
    {
      "midi": 64,
      "hit": false,
      "t": 30364.583333333354,
      "d": 255.20833333333576,
      "v": 44
    },
    {
      "midi": 72,
      "hit": false,
      "t": 30364.583333333354,
      "d": 466.1458333333394,
      "v": 77
    },
    {
      "midi": 55,
      "hit": false,
      "t": 30377.60416666669,
      "d": 216.14583333333212,
      "v": 34
    },
    {
      "midi": 74,
      "hit": false,
      "t": 30796.875000000025,
      "d": 447.9166666666715,
      "v": 79
    },
    {
      "midi": 65,
      "hit": false,
      "t": 30807.291666666693,
      "d": 169.27083333333576,
      "v": 53
    },
    {
      "midi": 55,
      "hit": false,
      "t": 30807.291666666693,
      "d": 223.95833333333576,
      "v": 46
    },
    {
      "midi": 72,
      "hit": false,
      "t": 31260.416666666697,
      "d": 114.58333333333212,
      "v": 70
    },
    {
      "midi": 48,
      "hit": false,
      "t": 31286.458333333365,
      "d": 351.56249999999636,
      "v": 32
    },
    {
      "midi": 74,
      "hit": false,
      "t": 31388.02083333336,
      "d": 132.8125,
      "v": 59
    },
    {
      "midi": 76,
      "hit": false,
      "t": 31523.43750000003,
      "d": 1591.1458333333358,
      "v": 51
    },
    {
      "midi": 55,
      "hit": false,
      "t": 31869.791666666693,
      "d": 229.16666666666788,
      "v": 35
    },
    {
      "midi": 64,
      "hit": false,
      "t": 31875.000000000025,
      "d": 302.08333333333576,
      "v": 33
    },
    {
      "midi": 62,
      "hit": false,
      "t": 32658.854166666693,
      "d": 346.3541666666715,
      "v": 20
    },
    {
      "midi": 56,
      "hit": false,
      "t": 32682.291666666693,
      "d": 395.83333333333576,
      "v": 24
    },
    {
      "midi": 52,
      "hit": false,
      "t": 32682.291666666693,
      "d": 432.2916666666715,
      "v": 14
    },
    {
      "midi": 64,
      "hit": false,
      "t": 33447.9166666667,
      "d": 216.14583333333576,
      "v": 32
    },
    {
      "midi": 76,
      "hit": false,
      "t": 33726.56250000004,
      "d": 174.47916666666424,
      "v": 36
    },
    {
      "midi": 33,
      "hit": false,
      "t": 33750.00000000004,
      "d": 127.60416666666424,
      "v": 25
    },
    {
      "midi": 76,
      "hit": false,
      "t": 34236.9791666667,
      "d": 75.52083333333576,
      "v": 33
    },
    {
      "midi": 72,
      "hit": false,
      "t": 34328.12500000004,
      "d": 382.8124999999927,
      "v": 51
    },
    {
      "midi": 60,
      "hit": false,
      "t": 34338.5416666667,
      "d": 286.4583333333285,
      "v": 31
    },
    {
      "midi": 52,
      "hit": false,
      "t": 34364.583333333365,
      "d": 236.97916666666424,
      "v": 27
    },
    {
      "midi": 52,
      "hit": false,
      "t": 34812.50000000003,
      "d": 361.97916666665697,
      "v": 34
    },
    {
      "midi": 75,
      "hit": false,
      "t": 34815.10416666669,
      "d": 54.6875,
      "v": 43
    },
    {
      "midi": 59,
      "hit": false,
      "t": 34815.10416666669,
      "d": 265.625,
      "v": 32
    },
    {
      "midi": 76,
      "hit": false,
      "t": 34875.00000000003,
      "d": 46.875,
      "v": 56
    },
    {
      "midi": 75,
      "hit": false,
      "t": 34940.10416666669,
      "d": 54.6875,
      "v": 59
    },
    {
      "midi": 76,
      "hit": false,
      "t": 35002.60416666669,
      "d": 88.54166666666424,
      "v": 56
    },
    {
      "midi": 75,
      "hit": false,
      "t": 35075.52083333336,
      "d": 62.5,
      "v": 56
    },
    {
      "midi": 74,
      "hit": false,
      "t": 35164.06250000002,
      "d": 54.687499999992724,
      "v": 47
    },
    {
      "midi": 75,
      "hit": false,
      "t": 35216.14583333335,
      "d": 96.35416666666424,
      "v": 57
    },
    {
      "midi": 45,
      "hit": false,
      "t": 35307.29166666668,
      "d": 132.8125,
      "v": 33
    },
    {
      "midi": 76,
      "hit": false,
      "t": 35322.91666666668,
      "d": 171.875,
      "v": 59
    },
    {
      "midi": 76,
      "hit": false,
      "t": 35677.08333333334,
      "d": 54.6875,
      "v": 52
    },
    {
      "midi": 60,
      "hit": false,
      "t": 35770.83333333334,
      "d": 130.20833333332848,
      "v": 28
    },
    {
      "midi": 69,
      "hit": false,
      "t": 35783.85416666668,
      "d": 499.9999999999927,
      "v": 52
    },
    {
      "midi": 52,
      "hit": false,
      "t": 35817.70833333334,
      "d": 101.56249999999272,
      "v": 16
    },
    {
      "midi": 72,
      "hit": false,
      "t": 36231.770833333336,
      "d": 434.89583333333576,
      "v": 50
    },
    {
      "midi": 52,
      "hit": false,
      "t": 36270.833333333336,
      "d": 109.375,
      "v": 30
    },
    {
      "midi": 60,
      "hit": false,
      "t": 36270.833333333336,
      "d": 127.60416666667152,
      "v": 23
    },
    {
      "midi": 71,
      "hit": false,
      "t": 36658.85416666667,
      "d": 164.0625,
      "v": 47
    },
    {
      "midi": 45,
      "hit": false,
      "t": 36682.29166666667,
      "d": 62.5,
      "v": 35
    },
    {
      "midi": 71,
      "hit": false,
      "t": 37028.645833333336,
      "d": 54.6875,
      "v": 47
    },
    {
      "midi": 52,
      "hit": false,
      "t": 37132.8125,
      "d": 187.5,
      "v": 29
    },
    {
      "midi": 62,
      "hit": false,
      "t": 37135.416666666664,
      "d": 203.125,
      "v": 14
    },
    {
      "midi": 66,
      "hit": false,
      "t": 37143.229166666664,
      "d": 304.6875,
      "v": 39
    },
    {
      "midi": 52,
      "hit": false,
      "t": 37562.5,
      "d": 197.91666666667152,
      "v": 21
    },
    {
      "midi": 62,
      "hit": false,
      "t": 37567.708333333336,
      "d": 135.41666666667152,
      "v": 27
    },
    {
      "midi": 68,
      "hit": false,
      "t": 37635.41666666667,
      "d": 75.52083333333576,
      "v": 31
    },
    {
      "midi": 69,
      "hit": false,
      "t": 37716.14583333334,
      "d": 57.29166666666424,
      "v": 37
    },
    {
      "midi": 68,
      "hit": false,
      "t": 37757.81250000001,
      "d": 70.3125,
      "v": 33
    },
    {
      "midi": 69,
      "hit": false,
      "t": 37864.58333333334,
      "d": 46.875,
      "v": 60
    },
    {
      "midi": 68,
      "hit": false,
      "t": 37908.85416666668,
      "d": 122.39583333333576,
      "v": 59
    },
    {
      "midi": 66,
      "hit": false,
      "t": 38018.22916666668,
      "d": 80.72916666667152,
      "v": 49
    },
    {
      "midi": 68,
      "hit": false,
      "t": 38109.375000000015,
      "d": 72.91666666667152,
      "v": 60
    },
    {
      "midi": 45,
      "hit": false,
      "t": 38177.08333333335,
      "d": 151.04166666667152,
      "v": 34
    },
    {
      "midi": 69,
      "hit": false,
      "t": 38218.75000000002,
      "d": 143.22916666666424,
      "v": 56
    },
    {
      "midi": 64,
      "hit": false,
      "t": 38567.70833333335,
      "d": 59.89583333333576,
      "v": 53
    },
    {
      "midi": 60,
      "hit": false,
      "t": 38632.81250000002,
      "d": 135.41666666666424,
      "v": 33
    },
    {
      "midi": 69,
      "hit": false,
      "t": 38648.43750000002,
      "d": 132.8125,
      "v": 65
    },
    {
      "midi": 52,
      "hit": false,
      "t": 38677.08333333336,
      "d": 88.54166666666424,
      "v": 19
    },
    {
      "midi": 64,
      "hit": false,
      "t": 38966.14583333335,
      "d": 109.375,
      "v": 61
    },
    {
      "midi": 69,
      "hit": false,
      "t": 39057.291666666686,
      "d": 93.74999999999272,
      "v": 68
    },
    {
      "midi": 60,
      "hit": false,
      "t": 39075.52083333335,
      "d": 72.91666666666424,
      "v": 37
    },
    {
      "midi": 52,
      "hit": false,
      "t": 39083.33333333335,
      "d": 80.72916666666424,
      "v": 32
    },
    {
      "midi": 72,
      "hit": false,
      "t": 39333.33333333335,
      "d": 138.02083333333576,
      "v": 68
    },
    {
      "midi": 76,
      "hit": false,
      "t": 39450.52083333335,
      "d": 122.39583333332848,
      "v": 68
    },
    {
      "midi": 45,
      "hit": false,
      "t": 39473.95833333335,
      "d": 78.125,
      "v": 35
    },
    {
      "midi": 76,
      "hit": false,
      "t": 39807.29166666668,
      "d": 67.70833333333576,
      "v": 68
    },
    {
      "midi": 72,
      "hit": false,
      "t": 39932.29166666668,
      "d": 416.6666666666715,
      "v": 71
    },
    {
      "midi": 60,
      "hit": false,
      "t": 39937.500000000015,
      "d": 286.45833333333576,
      "v": 32
    },
    {
      "midi": 52,
      "hit": false,
      "t": 39976.562500000015,
      "d": 223.95833333333576,
      "v": 28
    },
    {
      "midi": 75,
      "hit": false,
      "t": 40427.08333333335,
      "d": 46.875,
      "v": 54
    },
    {
      "midi": 59,
      "hit": false,
      "t": 40427.08333333335,
      "d": 333.3333333333285,
      "v": 35
    },
    {
      "midi": 52,
      "hit": false,
      "t": 40445.312500000015,
      "d": 236.97916666666424,
      "v": 30
    },
    {
      "midi": 76,
      "hit": false,
      "t": 40489.58333333335,
      "d": 41.66666666666424,
      "v": 66
    },
    {
      "midi": 75,
      "hit": false,
      "t": 40541.66666666668,
      "d": 85.9375,
      "v": 61
    },
    {
      "midi": 76,
      "hit": false,
      "t": 40627.60416666668,
      "d": 101.5625,
      "v": 65
    },
    {
      "midi": 75,
      "hit": false,
      "t": 40700.52083333334,
      "d": 111.97916666667152,
      "v": 70
    },
    {
      "midi": 74,
      "hit": false,
      "t": 40791.66666666668,
      "d": 70.3125,
      "v": 67
    },
    {
      "midi": 75,
      "hit": false,
      "t": 40875.000000000015,
      "d": 78.125,
      "v": 67
    },
    {
      "midi": 45,
      "hit": false,
      "t": 40955.72916666668,
      "d": 127.60416666666424,
      "v": 41
    },
    {
      "midi": 76,
      "hit": false,
      "t": 40958.33333333334,
      "d": 153.64583333332848,
      "v": 76
    },
    {
      "midi": 76,
      "hit": false,
      "t": 41322.91666666667,
      "d": 46.875,
      "v": 64
    },
    {
      "midi": 60,
      "hit": false,
      "t": 41424.47916666667,
      "d": 182.29166666666424,
      "v": 30
    },
    {
      "midi": 69,
      "hit": false,
      "t": 41437.50000000001,
      "d": 466.1458333333285,
      "v": 49
    },
    {
      "midi": 52,
      "hit": false,
      "t": 41445.31250000001,
      "d": 135.41666666666424,
      "v": 30
    },
    {
      "midi": 72,
      "hit": false,
      "t": 41888.020833333336,
      "d": 419.27083333333576,
      "v": 48
    },
    {
      "midi": 52,
      "hit": false,
      "t": 41927.083333333336,
      "d": 158.85416666667152,
      "v": 32
    },
    {
      "midi": 60,
      "hit": false,
      "t": 41932.29166666667,
      "d": 117.1875,
      "v": 23
    },
    {
      "midi": 71,
      "hit": false,
      "t": 42315.10416666667,
      "d": 125,
      "v": 46
    },
    {
      "midi": 45,
      "hit": false,
      "t": 42348.958333333336,
      "d": 54.6875,
      "v": 39
    },
    {
      "midi": 71,
      "hit": false,
      "t": 42669.27083333334,
      "d": 54.6875,
      "v": 41
    },
    {
      "midi": 66,
      "hit": false,
      "t": 42768.22916666668,
      "d": 263.0208333333285,
      "v": 42
    },
    {
      "midi": 62,
      "hit": false,
      "t": 42770.83333333334,
      "d": 161.45833333332848,
      "v": 18
    },
    {
      "midi": 52,
      "hit": false,
      "t": 42781.25000000001,
      "d": 151.04166666666424,
      "v": 32
    },
    {
      "midi": 62,
      "hit": false,
      "t": 43208.33333333334,
      "d": 223.95833333333576,
      "v": 31
    },
    {
      "midi": 52,
      "hit": false,
      "t": 43231.77083333334,
      "d": 263.02083333333576,
      "v": 23
    },
    {
      "midi": 68,
      "hit": false,
      "t": 43239.58333333334,
      "d": 67.70833333333576,
      "v": 21
    },
    {
      "midi": 69,
      "hit": false,
      "t": 43322.91666666668,
      "d": 72.91666666666424,
      "v": 22
    },
    {
      "midi": 68,
      "hit": false,
      "t": 43348.95833333334,
      "d": 75.52083333333576,
      "v": 23
    },
    {
      "midi": 69,
      "hit": false,
      "t": 43442.70833333334,
      "d": 91.14583333333576,
      "v": 25
    },
    {
      "midi": 68,
      "hit": false,
      "t": 43518.22916666668,
      "d": 111.97916666666424,
      "v": 45
    },
    {
      "midi": 66,
      "hit": false,
      "t": 43640.62500000001,
      "d": 91.14583333333576,
      "v": 45
    },
    {
      "midi": 68,
      "hit": false,
      "t": 43726.56250000001,
      "d": 106.77083333333576,
      "v": 45
    },
    {
      "midi": 45,
      "hit": false,
      "t": 43869.79166666668,
      "d": 356.7708333333285,
      "v": 30
    },
    {
      "midi": 69,
      "hit": false,
      "t": 43888.02083333334,
      "d": 140.625,
      "v": 37
    },
    {
      "midi": 81,
      "hit": false,
      "t": 44078.12500000001,
      "d": 687.4999999999927,
      "v": 47
    },
    {
      "midi": 60,
      "hit": false,
      "t": 44658.85416666667,
      "d": 593.7499999999927,
      "v": 19
    },
    {
      "midi": 52,
      "hit": false,
      "t": 44677.083333333336,
      "d": 604.1666666666642,
      "v": 23
    },
    {
      "midi": 67,
      "hit": false,
      "t": 45250,
      "d": 174.47916666667152,
      "v": 48
    },
    {
      "midi": 72,
      "hit": false,
      "t": 45395.833333333336,
      "d": 411.45833333333576,
      "v": 68
    },
    {
      "midi": 76,
      "hit": false,
      "t": 45796.87500000001,
      "d": 130.20833333332848,
      "v": 69
    },
    {
      "midi": 79,
      "hit": false,
      "t": 45937.5,
      "d": 203.125,
      "v": 59
    },
    {
      "midi": 48,
      "hit": false,
      "t": 45966.145833333336,
      "d": 140.625,
      "v": 32
    },
    {
      "midi": 79,
      "hit": false,
      "t": 46395.833333333336,
      "d": 104.16666666666424,
      "v": 58
    },
    {
      "midi": 76,
      "hit": false,
      "t": 46523.4375,
      "d": 442.70833333333576,
      "v": 62
    },
    {
      "midi": 64,
      "hit": false,
      "t": 46533.854166666664,
      "d": 294.27083333333576,
      "v": 34
    },
    {
      "midi": 55,
      "hit": false,
      "t": 46541.666666666664,
      "d": 229.16666666667152,
      "v": 25
    },
    {
      "midi": 63,
      "hit": false,
      "t": 47031.25,
      "d": 343.75,
      "v": 41
    },
    {
      "midi": 78,
      "hit": false,
      "t": 47033.854166666664,
      "d": 49.47916666667152,
      "v": 54
    },
    {
      "midi": 55,
      "hit": false,
      "t": 47039.0625,
      "d": 325.52083333333576,
      "v": 40
    },
    {
      "midi": 79,
      "hit": false,
      "t": 47096.35416666667,
      "d": 49.47916666666424,
      "v": 61
    },
    {
      "midi": 78,
      "hit": false,
      "t": 47158.85416666667,
      "d": 91.14583333332848,
      "v": 50
    },
    {
      "midi": 79,
      "hit": false,
      "t": 47250,
      "d": 106.77083333333576,
      "v": 61
    },
    {
      "midi": 78,
      "hit": false,
      "t": 47335.9375,
      "d": 104.16666666666424,
      "v": 57
    },
    {
      "midi": 77,
      "hit": false,
      "t": 47432.291666666664,
      "d": 91.14583333332848,
      "v": 67
    },
    {
      "midi": 78,
      "hit": false,
      "t": 47513.02083333333,
      "d": 111.97916666666424,
      "v": 61
    },
    {
      "midi": 48,
      "hit": false,
      "t": 47609.37499999999,
      "d": 143.22916666666424,
      "v": 44
    },
    {
      "midi": 79,
      "hit": false,
      "t": 47609.37499999999,
      "d": 203.125,
      "v": 70
    },
    {
      "midi": 79,
      "hit": false,
      "t": 47976.56249999999,
      "d": 62.5,
      "v": 74
    },
    {
      "midi": 64,
      "hit": false,
      "t": 48080.72916666666,
      "d": 278.6458333333285,
      "v": 46
    },
    {
      "midi": 76,
      "hit": false,
      "t": 48088.54166666666,
      "d": 348.9583333333285,
      "v": 77
    },
    {
      "midi": 55,
      "hit": false,
      "t": 48111.97916666666,
      "d": 236.97916666666424,
      "v": 33
    },
    {
      "midi": 78,
      "hit": false,
      "t": 48546.874999999985,
      "d": 54.6875,
      "v": 66
    },
    {
      "midi": 63,
      "hit": false,
      "t": 48557.29166666665,
      "d": 205.7291666666788,
      "v": 45
    },
    {
      "midi": 55,
      "hit": false,
      "t": 48565.10416666665,
      "d": 174.47916666667152,
      "v": 27
    },
    {
      "midi": 79,
      "hit": false,
      "t": 48611.97916666665,
      "d": 44.27083333333576,
      "v": 68
    },
    {
      "midi": 78,
      "hit": false,
      "t": 48669.27083333332,
      "d": 75.52083333333576,
      "v": 61
    },
    {
      "midi": 79,
      "hit": false,
      "t": 48749.99999999999,
      "d": 83.33333333333576,
      "v": 59
    },
    {
      "midi": 78,
      "hit": false,
      "t": 48820.31249999999,
      "d": 59.89583333333576,
      "v": 62
    },
    {
      "midi": 77,
      "hit": false,
      "t": 48882.81249999999,
      "d": 72.91666666666424,
      "v": 72
    },
    {
      "midi": 78,
      "hit": false,
      "t": 48958.33333333332,
      "d": 111.97916666666424,
      "v": 66
    },
    {
      "midi": 48,
      "hit": false,
      "t": 49031.249999999985,
      "d": 151.04166666666424,
      "v": 40
    },
    {
      "midi": 79,
      "hit": false,
      "t": 49057.29166666665,
      "d": 169.27083333333576,
      "v": 78
    },
    {
      "midi": 79,
      "hit": false,
      "t": 49401.04166666665,
      "d": 54.6875,
      "v": 72
    },
    {
      "midi": 72,
      "hit": false,
      "t": 49515.624999999985,
      "d": 510.4166666666715,
      "v": 70
    },
    {
      "midi": 64,
      "hit": false,
      "t": 49520.83333333332,
      "d": 236.97916666667152,
      "v": 45
    },
    {
      "midi": 55,
      "hit": false,
      "t": 49541.66666666666,
      "d": 195.3125,
      "v": 29
    },
    {
      "midi": 74,
      "hit": false,
      "t": 50005.20833333333,
      "d": 497.3958333333285,
      "v": 66
    },
    {
      "midi": 55,
      "hit": false,
      "t": 50023.43749999999,
      "d": 221.35416666666424,
      "v": 36
    },
    {
      "midi": 65,
      "hit": false,
      "t": 50031.24999999999,
      "d": 179.6875,
      "v": 39
    },
    {
      "midi": 48,
      "hit": false,
      "t": 50515.62499999999,
      "d": 385.41666666665697,
      "v": 25
    },
    {
      "midi": 72,
      "hit": false,
      "t": 50518.22916666666,
      "d": 106.77083333333576,
      "v": 51
    },
    {
      "midi": 74,
      "hit": false,
      "t": 50658.85416666666,
      "d": 143.22916666666424,
      "v": 33
    },
    {
      "midi": 76,
      "hit": false,
      "t": 50802.08333333332,
      "d": 1494.7916666666642,
      "v": 48
    },
    {
      "midi": 64,
      "hit": false,
      "t": 51166.66666666665,
      "d": 197.91666666667152,
      "v": 20
    },
    {
      "midi": 55,
      "hit": false,
      "t": 51171.874999999985,
      "d": 177.08333333333576,
      "v": 24
    },
    {
      "midi": 62,
      "hit": false,
      "t": 51895.83333333332,
      "d": 276.04166666666424,
      "v": 18
    },
    {
      "midi": 52,
      "hit": false,
      "t": 51919.27083333332,
      "d": 341.1458333333285,
      "v": 18
    },
    {
      "midi": 56,
      "hit": false,
      "t": 51932.29166666666,
      "d": 328.1249999999927,
      "v": 20
    },
    {
      "midi": 64,
      "hit": false,
      "t": 52609.374999999985,
      "d": 130.20833333333576,
      "v": 37
    },
    {
      "midi": 33,
      "hit": false,
      "t": 52825.52083333332,
      "d": 114.58333333332848,
      "v": 26
    },
    {
      "midi": 76,
      "hit": false,
      "t": 52828.124999999985,
      "d": 197.91666666666424,
      "v": 38
    },
    {
      "midi": 76,
      "hit": false,
      "t": 53302.083333333314,
      "d": 72.91666666666424,
      "v": 47
    },
    {
      "midi": 60,
      "hit": false,
      "t": 53408.85416666664,
      "d": 242.18750000000728,
      "v": 26
    },
    {
      "midi": 72,
      "hit": false,
      "t": 53414.06249999998,
      "d": 322.9166666666715,
      "v": 45
    },
    {
      "midi": 52,
      "hit": false,
      "t": 53421.87499999998,
      "d": 255.20833333333576,
      "v": 28
    },
    {
      "midi": 75,
      "hit": false,
      "t": 53885.41666666665,
      "d": 52.08333333333576,
      "v": 45
    },
    {
      "midi": 59,
      "hit": false,
      "t": 53893.22916666665,
      "d": 226.5625,
      "v": 24
    },
    {
      "midi": 52,
      "hit": false,
      "t": 53901.04166666665,
      "d": 98.95833333333576,
      "v": 28
    },
    {
      "midi": 76,
      "hit": false,
      "t": 53945.312499999985,
      "d": 44.27083333333576,
      "v": 59
    },
    {
      "midi": 75,
      "hit": false,
      "t": 54010.41666666665,
      "d": 70.3125,
      "v": 61
    },
    {
      "midi": 76,
      "hit": false,
      "t": 54088.54166666665,
      "d": 67.70833333333576,
      "v": 51
    },
    {
      "midi": 75,
      "hit": false,
      "t": 54164.062499999985,
      "d": 62.5,
      "v": 44
    },
    {
      "midi": 74,
      "hit": false,
      "t": 54239.58333333332,
      "d": 52.08333333333576,
      "v": 57
    },
    {
      "midi": 75,
      "hit": false,
      "t": 54296.87499999999,
      "d": 111.97916666666424,
      "v": 59
    },
    {
      "midi": 45,
      "hit": false,
      "t": 54382.81249999999,
      "d": 156.25,
      "v": 30
    },
    {
      "midi": 76,
      "hit": false,
      "t": 54408.85416666666,
      "d": 164.0625,
      "v": 68
    },
    {
      "midi": 76,
      "hit": false,
      "t": 54770.83333333332,
      "d": 49.47916666666424,
      "v": 58
    },
    {
      "midi": 60,
      "hit": false,
      "t": 54861.97916666665,
      "d": 171.875,
      "v": 25
    },
    {
      "midi": 69,
      "hit": false,
      "t": 54882.812499999985,
      "d": 492.1874999999927,
      "v": 48
    },
    {
      "midi": 52,
      "hit": false,
      "t": 54898.437499999985,
      "d": 127.60416666666424,
      "v": 23
    },
    {
      "midi": 72,
      "hit": false,
      "t": 55364.583333333314,
      "d": 442.7083333333212,
      "v": 47
    },
    {
      "midi": 60,
      "hit": false,
      "t": 55382.81249999998,
      "d": 166.66666666666424,
      "v": 25
    },
    {
      "midi": 52,
      "hit": false,
      "t": 55393.22916666664,
      "d": 190.10416666666424,
      "v": 27
    },
    {
      "midi": 71,
      "hit": false,
      "t": 55807.291666666635,
      "d": 109.375,
      "v": 35
    },
    {
      "midi": 45,
      "hit": false,
      "t": 55820.31249999997,
      "d": 62.5,
      "v": 42
    },
    {
      "midi": 71,
      "hit": false,
      "t": 56153.6458333333,
      "d": 62.5,
      "v": 46
    },
    {
      "midi": 66,
      "hit": false,
      "t": 56249.99999999996,
      "d": 299.4791666666715,
      "v": 43
    },
    {
      "midi": 62,
      "hit": false,
      "t": 56255.2083333333,
      "d": 239.58333333333576,
      "v": 30
    },
    {
      "midi": 52,
      "hit": false,
      "t": 56286.4583333333,
      "d": 213.54166666667152,
      "v": 22
    },
    {
      "midi": 68,
      "hit": false,
      "t": 56687.49999999997,
      "d": 52.08333333333576,
      "v": 48
    },
    {
      "midi": 62,
      "hit": false,
      "t": 56700.52083333331,
      "d": 197.91666666665697,
      "v": 26
    },
    {
      "midi": 52,
      "hit": false,
      "t": 56723.95833333331,
      "d": 223.9583333333212,
      "v": 24
    },
    {
      "midi": 69,
      "hit": false,
      "t": 56757.81249999997,
      "d": 44.27083333333576,
      "v": 57
    },
    {
      "midi": 68,
      "hit": false,
      "t": 56812.49999999997,
      "d": 67.70833333332848,
      "v": 58
    },
    {
      "midi": 69,
      "hit": false,
      "t": 56895.8333333333,
      "d": 78.12499999999272,
      "v": 45
    },
    {
      "midi": 68,
      "hit": false,
      "t": 56958.33333333329,
      "d": 117.1875,
      "v": 66
    },
    {
      "midi": 66,
      "hit": false,
      "t": 57067.70833333329,
      "d": 72.91666666666424,
      "v": 56
    },
    {
      "midi": 68,
      "hit": false,
      "t": 57156.249999999956,
      "d": 70.3125,
      "v": 59
    },
    {
      "midi": 45,
      "hit": false,
      "t": 57223.95833333329,
      "d": 184.89583333333576,
      "v": 32
    },
    {
      "midi": 69,
      "hit": false,
      "t": 57255.20833333329,
      "d": 148.4375,
      "v": 69
    },
    {
      "midi": 64,
      "hit": false,
      "t": 57604.16666666663,
      "d": 59.89583333333576,
      "v": 57
    },
    {
      "midi": 60,
      "hit": false,
      "t": 57669.2708333333,
      "d": 171.87499999999272,
      "v": 34
    },
    {
      "midi": 69,
      "hit": false,
      "t": 57687.49999999996,
      "d": 127.60416666666424,
      "v": 64
    },
    {
      "midi": 52,
      "hit": false,
      "t": 57710.93749999996,
      "d": 96.35416666666424,
      "v": 26
    },
    {
      "midi": 64,
      "hit": false,
      "t": 57994.79166666663,
      "d": 67.70833333333576,
      "v": 65
    },
    {
      "midi": 60,
      "hit": false,
      "t": 58093.74999999996,
      "d": 135.41666666666424,
      "v": 36
    },
    {
      "midi": 69,
      "hit": false,
      "t": 58096.35416666663,
      "d": 109.375,
      "v": 67
    },
    {
      "midi": 52,
      "hit": false,
      "t": 58111.97916666663,
      "d": 114.58333333333576,
      "v": 31
    },
    {
      "midi": 72,
      "hit": false,
      "t": 58395.8333333333,
      "d": 80.72916666666424,
      "v": 59
    },
    {
      "midi": 76,
      "hit": false,
      "t": 58513.0208333333,
      "d": 156.25,
      "v": 68
    },
    {
      "midi": 45,
      "hit": false,
      "t": 58523.43749999996,
      "d": 145.83333333333576,
      "v": 42
    },
    {
      "midi": 76,
      "hit": false,
      "t": 58914.06249999996,
      "d": 65.10416666666424,
      "v": 51
    },
    {
      "midi": 60,
      "hit": false,
      "t": 58984.37499999996,
      "d": 273.4375,
      "v": 36
    },
    {
      "midi": 72,
      "hit": false,
      "t": 58989.5833333333,
      "d": 343.75,
      "v": 68
    },
    {
      "midi": 52,
      "hit": false,
      "t": 59013.0208333333,
      "d": 250,
      "v": 29
    },
    {
      "midi": 75,
      "hit": false,
      "t": 59437.49999999996,
      "d": 52.08333333332848,
      "v": 50
    },
    {
      "midi": 59,
      "hit": false,
      "t": 59440.10416666663,
      "d": 289.0624999999927,
      "v": 37
    },
    {
      "midi": 52,
      "hit": false,
      "t": 59471.35416666663,
      "d": 330.72916666665697,
      "v": 24
    },
    {
      "midi": 76,
      "hit": false,
      "t": 59499.999999999956,
      "d": 46.875,
      "v": 64
    },
    {
      "midi": 75,
      "hit": false,
      "t": 59557.29166666662,
      "d": 96.35416666667152,
      "v": 60
    },
    {
      "midi": 76,
      "hit": false,
      "t": 59656.249999999956,
      "d": 57.29166666666424,
      "v": 58
    },
    {
      "midi": 75,
      "hit": false,
      "t": 59723.958333333285,
      "d": 59.89583333333576,
      "v": 54
    },
    {
      "midi": 74,
      "hit": false,
      "t": 59794.270833333285,
      "d": 65.10416666666424,
      "v": 63
    },
    {
      "midi": 75,
      "hit": false,
      "t": 59869.79166666661,
      "d": 101.5625,
      "v": 53
    },
    {
      "midi": 76,
      "hit": false,
      "t": 59989.58333333328,
      "d": 156.25,
      "v": 57
    },
    {
      "midi": 45,
      "hit": false,
      "t": 59994.79166666661,
      "d": 106.77083333333576,
      "v": 38
    },
    {
      "midi": 76,
      "hit": false,
      "t": 60338.54166666661,
      "d": 57.29166666666424,
      "v": 61
    },
    {
      "midi": 60,
      "hit": false,
      "t": 60473.95833333328,
      "d": 179.6875,
      "v": 29
    },
    {
      "midi": 69,
      "hit": false,
      "t": 60473.95833333328,
      "d": 507.8125,
      "v": 49
    },
    {
      "midi": 52,
      "hit": false,
      "t": 60486.97916666661,
      "d": 231.77083333332848,
      "v": 29
    },
    {
      "midi": 72,
      "hit": false,
      "t": 60963.54166666661,
      "d": 434.89583333333576,
      "v": 50
    },
    {
      "midi": 52,
      "hit": false,
      "t": 60994.79166666661,
      "d": 335.9375,
      "v": 22
    },
    {
      "midi": 60,
      "hit": false,
      "t": 61005.20833333328,
      "d": 151.04166666667152,
      "v": 28
    },
    {
      "midi": 71,
      "hit": false,
      "t": 61408.85416666661,
      "d": 161.45833333333576,
      "v": 36
    },
    {
      "midi": 45,
      "hit": false,
      "t": 61437.49999999995,
      "d": 93.75,
      "v": 29
    },
    {
      "midi": 71,
      "hit": false,
      "t": 61763.020833333285,
      "d": 85.9375,
      "v": 37
    },
    {
      "midi": 62,
      "hit": false,
      "t": 61859.37499999995,
      "d": 231.77083333333576,
      "v": 21
    },
    {
      "midi": 66,
      "hit": false,
      "t": 61877.60416666662,
      "d": 312.5,
      "v": 36
    },
    {
      "midi": 52,
      "hit": false,
      "t": 61911.458333333285,
      "d": 164.0625,
      "v": 26
    },
    {
      "midi": 68,
      "hit": false,
      "t": 62361.97916666662,
      "d": 65.10416666667152,
      "v": 41
    },
    {
      "midi": 52,
      "hit": false,
      "t": 62374.999999999956,
      "d": 388.0208333333285,
      "v": 21
    },
    {
      "midi": 62,
      "hit": false,
      "t": 62382.812499999956,
      "d": 315.10416666666424,
      "v": 23
    },
    {
      "midi": 68,
      "hit": false,
      "t": 62523.437499999956,
      "d": 62.5,
      "v": 37
    },
    {
      "midi": 69,
      "hit": false,
      "t": 62601.562499999956,
      "d": 57.29166666666424,
      "v": 14
    },
    {
      "midi": 68,
      "hit": false,
      "t": 62671.874999999956,
      "d": 59.89583333332848,
      "v": 53
    },
    {
      "midi": 69,
      "hit": false,
      "t": 62744.79166666662,
      "d": 114.58333333332848,
      "v": 53
    },
    {
      "midi": 68,
      "hit": false,
      "t": 62835.93749999995,
      "d": 119.79166666666424,
      "v": 46
    },
    {
      "midi": 66,
      "hit": false,
      "t": 62958.33333333328,
      "d": 104.16666666666424,
      "v": 49
    },
    {
      "midi": 68,
      "hit": false,
      "t": 63070.31249999994,
      "d": 143.22916666666424,
      "v": 38
    },
    {
      "midi": 45,
      "hit": false,
      "t": 63213.541666666606,
      "d": 463.54166666665697,
      "v": 29
    },
    {
      "midi": 69,
      "hit": false,
      "t": 63273.437499999935,
      "d": 171.875,
      "v": 34
    },
    {
      "midi": 81,
      "hit": false,
      "t": 63502.6041666666,
      "d": 466.1458333333285,
      "v": 45
    },
    {
      "midi": 60,
      "hit": false,
      "t": 64140.62499999993,
      "d": 911.4583333333358,
      "v": 14
    },
    {
      "midi": 52,
      "hit": false,
      "t": 64177.08333333326,
      "d": 927.0833333333358,
      "v": 14
    },
    {
      "midi": 64,
      "hit": false,
      "t": 65114.58333333326,
      "d": 57.29166666666424,
      "v": 43
    },
    {
      "midi": 64,
      "hit": false,
      "t": 65281.24999999993,
      "d": 416.6666666666715,
      "v": 52
    },
    {
      "midi": 64,
      "hit": false,
      "t": 65799.4791666666,
      "d": 57.29166666667152,
      "v": 63
    },
    {
      "midi": 73,
      "hit": false,
      "t": 65994.7916666666,
      "d": 265.625,
      "v": 73
    },
    {
      "midi": 61,
      "hit": false,
      "t": 66028.64583333327,
      "d": 153.64583333332848,
      "v": 42
    },
    {
      "midi": 52,
      "hit": false,
      "t": 66033.8541666666,
      "d": 171.875,
      "v": 20
    },
    {
      "midi": 64,
      "hit": false,
      "t": 66036.45833333327,
      "d": 109.375,
      "v": 18
    },
    {
      "midi": 45,
      "hit": false,
      "t": 66039.06249999994,
      "d": 187.49999999998545,
      "v": 35
    },
    {
      "midi": 73,
      "hit": false,
      "t": 66432.2916666666,
      "d": 117.1875,
      "v": 69
    },
    {
      "midi": 61,
      "hit": false,
      "t": 66572.9166666666,
      "d": 270.8333333333285,
      "v": 59
    },
    {
      "midi": 64,
      "hit": false,
      "t": 66572.9166666666,
      "d": 541.6666666666861,
      "v": 78
    },
    {
      "midi": 52,
      "hit": false,
      "t": 66588.5416666666,
      "d": 205.72916666667152,
      "v": 33
    },
    {
      "midi": 45,
      "hit": false,
      "t": 66598.95833333327,
      "d": 216.14583333332848,
      "v": 36
    },
    {
      "midi": 61,
      "hit": false,
      "t": 67088.5416666666,
      "d": 200.5208333333576,
      "v": 56
    },
    {
      "midi": 69,
      "hit": false,
      "t": 67091.14583333327,
      "d": 252.60416666668607,
      "v": 82
    },
    {
      "midi": 45,
      "hit": false,
      "t": 67093.74999999994,
      "d": 187.50000000001455,
      "v": 50
    },
    {
      "midi": 52,
      "hit": false,
      "t": 67104.16666666661,
      "d": 153.64583333334303,
      "v": 41
    },
    {
      "midi": 73,
      "hit": false,
      "t": 67539.06249999996,
      "d": 148.43750000001455,
      "v": 83
    },
    {
      "midi": 61,
      "hit": false,
      "t": 67541.66666666663,
      "d": 83.33333333332848,
      "v": 62
    },
    {
      "midi": 45,
      "hit": false,
      "t": 67557.29166666663,
      "d": 70.3125,
      "v": 57
    },
    {
      "midi": 64,
      "hit": false,
      "t": 67562.49999999996,
      "d": 52.08333333332848,
      "v": 66
    },
    {
      "midi": 52,
      "hit": false,
      "t": 67562.49999999996,
      "d": 67.70833333334303,
      "v": 51
    },
    {
      "midi": 73,
      "hit": false,
      "t": 67903.6458333333,
      "d": 114.58333333334303,
      "v": 77
    },
    {
      "midi": 64,
      "hit": false,
      "t": 68007.81249999997,
      "d": 406.25000000001455,
      "v": 93
    },
    {
      "midi": 61,
      "hit": false,
      "t": 68013.0208333333,
      "d": 164.06250000001455,
      "v": 78
    },
    {
      "midi": 52,
      "hit": false,
      "t": 68015.62499999997,
      "d": 158.85416666667152,
      "v": 59
    },
    {
      "midi": 45,
      "hit": false,
      "t": 68020.83333333331,
      "d": 148.4375,
      "v": 63
    },
    {
      "midi": 61,
      "hit": false,
      "t": 68445.31249999999,
      "d": 101.5625,
      "v": 79
    },
    {
      "midi": 69,
      "hit": false,
      "t": 68453.12499999999,
      "d": 125,
      "v": 97
    },
    {
      "midi": 45,
      "hit": false,
      "t": 68466.14583333331,
      "d": 36.45833333332848,
      "v": 81
    },
    {
      "midi": 52,
      "hit": false,
      "t": 68471.35416666664,
      "d": 33.85416666667152,
      "v": 89
    },
    {
      "midi": 76,
      "hit": false,
      "t": 68914.06249999999,
      "d": 518.229166666657,
      "v": 99
    },
    {
      "midi": 64,
      "hit": false,
      "t": 68927.08333333331,
      "d": 315.10416666665697,
      "v": 101
    },
    {
      "midi": 73,
      "hit": false,
      "t": 68927.08333333331,
      "d": 380.2083333333285,
      "v": 70
    },
    {
      "midi": 61,
      "hit": false,
      "t": 68932.29166666664,
      "d": 171.875,
      "v": 67
    },
    {
      "midi": 57,
      "hit": false,
      "t": 68934.89583333331,
      "d": 1242.1874999999854,
      "v": 64
    },
    {
      "midi": 63,
      "hit": false,
      "t": 69273.43749999997,
      "d": 130.20833333334303,
      "v": 79
    },
    {
      "midi": 75,
      "hit": false,
      "t": 69283.85416666664,
      "d": 140.625,
      "v": 85
    },
    {
      "midi": 72,
      "hit": false,
      "t": 69296.87499999997,
      "d": 205.72916666665697,
      "v": 85
    },
    {
      "midi": 60,
      "hit": false,
      "t": 69299.47916666664,
      "d": 132.8125,
      "v": 62
    },
    {
      "midi": 66,
      "hit": false,
      "t": 69455.72916666664,
      "d": 630.2083333333139,
      "v": 80
    },
    {
      "midi": 62,
      "hit": false,
      "t": 69460.93749999997,
      "d": 539.0624999999854,
      "v": 63
    },
    {
      "midi": 78,
      "hit": false,
      "t": 69460.93749999997,
      "d": 776.041666666657,
      "v": 78
    },
    {
      "midi": 74,
      "hit": false,
      "t": 69466.1458333333,
      "d": 692.7083333333285,
      "v": 79
    },
    {
      "midi": 76,
      "hit": false,
      "t": 70231.7708333333,
      "d": 114.58333333332848,
      "v": 72
    },
    {
      "midi": 64,
      "hit": false,
      "t": 70236.97916666663,
      "d": 101.5625,
      "v": 59
    },
    {
      "midi": 61,
      "hit": false,
      "t": 70239.5833333333,
      "d": 62.5,
      "v": 49
    },
    {
      "midi": 73,
      "hit": false,
      "t": 70244.79166666663,
      "d": 62.5,
      "v": 54
    },
    {
      "midi": 75,
      "hit": false,
      "t": 70523.43749999996,
      "d": 62.50000000001455,
      "v": 43
    },
    {
      "midi": 72,
      "hit": false,
      "t": 70526.04166666663,
      "d": 78.12500000001455,
      "v": 47
    },
    {
      "midi": 57,
      "hit": false,
      "t": 70559.8958333333,
      "d": 359.375,
      "v": 15
    },
    {
      "midi": 61,
      "hit": false,
      "t": 70562.49999999997,
      "d": 330.7291666666715,
      "v": 30
    },
    {
      "midi": 64,
      "hit": false,
      "t": 70565.10416666664,
      "d": 299.4791666666715,
      "v": 37
    },
    {
      "midi": 78,
      "hit": false,
      "t": 70578.12499999997,
      "d": 91.14583333334303,
      "v": 54
    },
    {
      "midi": 76,
      "hit": false,
      "t": 70674.47916666664,
      "d": 351.56249999998545,
      "v": 48
    },
    {
      "midi": 73,
      "hit": false,
      "t": 70692.70833333331,
      "d": 221.35416666665697,
      "v": 34
    },
    {
      "midi": 75,
      "hit": false,
      "t": 71052.0833333333,
      "d": 75.52083333334303,
      "v": 37
    },
    {
      "midi": 72,
      "hit": false,
      "t": 71083.3333333333,
      "d": 156.25000000001455,
      "v": 29
    },
    {
      "midi": 63,
      "hit": false,
      "t": 71091.1458333333,
      "d": 83.33333333334303,
      "v": 15
    },
    {
      "midi": 60,
      "hit": false,
      "t": 71101.56249999997,
      "d": 88.54166666667152,
      "v": 26
    },
    {
      "midi": 78,
      "hit": false,
      "t": 71268.22916666664,
      "d": 606.770833333343,
      "v": 36
    },
    {
      "midi": 74,
      "hit": false,
      "t": 71302.08333333331,
      "d": 445.3125,
      "v": 33
    },
    {
      "midi": 66,
      "hit": false,
      "t": 71307.29166666664,
      "d": 552.083333333343,
      "v": 28
    },
    {
      "midi": 62,
      "hit": false,
      "t": 71317.70833333331,
      "d": 479.1666666666715,
      "v": 17
    },
    {
      "midi": 76,
      "hit": false,
      "t": 72111.97916666666,
      "d": 59.89583333332848,
      "v": 34
    },
    {
      "midi": 64,
      "hit": false,
      "t": 72114.58333333333,
      "d": 59.89583333332848,
      "v": 34
    },
    {
      "midi": 73,
      "hit": false,
      "t": 72119.79166666666,
      "d": 88.54166666667152,
      "v": 20
    },
    {
      "midi": 61,
      "hit": false,
      "t": 72127.60416666666,
      "d": 62.5,
      "v": 26
    },
    {
      "midi": 61,
      "hit": false,
      "t": 72596.35416666666,
      "d": 210.93750000001455,
      "v": 45
    },
    {
      "midi": 73,
      "hit": false,
      "t": 72598.95833333333,
      "d": 184.89583333334303,
      "v": 52
    },
    {
      "midi": 45,
      "hit": false,
      "t": 72624.99999999999,
      "d": 171.87500000001455,
      "v": 31
    },
    {
      "midi": 52,
      "hit": false,
      "t": 72627.60416666666,
      "d": 169.27083333334303,
      "v": 18
    },
    {
      "midi": 64,
      "hit": false,
      "t": 72638.02083333333,
      "d": 210.93750000001455,
      "v": 39
    },
    {
      "midi": 73,
      "hit": false,
      "t": 72994.79166666667,
      "d": 67.70833333332848,
      "v": 65
    },
    {
      "midi": 61,
      "hit": false,
      "t": 73096.35416666667,
      "d": 156.25,
      "v": 50
    },
    {
      "midi": 64,
      "hit": false,
      "t": 73111.97916666667,
      "d": 479.16666666665697,
      "v": 65
    },
    {
      "midi": 52,
      "hit": false,
      "t": 73130.20833333334,
      "d": 119.79166666665697,
      "v": 47
    },
    {
      "midi": 45,
      "hit": false,
      "t": 73135.41666666667,
      "d": 109.375,
      "v": 28
    },
    {
      "midi": 61,
      "hit": false,
      "t": 73578.125,
      "d": 98.95833333332848,
      "v": 46
    },
    {
      "midi": 69,
      "hit": false,
      "t": 73591.14583333333,
      "d": 177.08333333332848,
      "v": 64
    },
    {
      "midi": 45,
      "hit": false,
      "t": 73598.95833333333,
      "d": 67.70833333332848,
      "v": 48
    },
    {
      "midi": 52,
      "hit": false,
      "t": 73630.20833333333,
      "d": 78.125,
      "v": 20
    },
    {
      "midi": 73,
      "hit": false,
      "t": 74026.04166666666,
      "d": 156.25,
      "v": 47
    },
    {
      "midi": 61,
      "hit": false,
      "t": 74036.45833333333,
      "d": 101.5625,
      "v": 43
    },
    {
      "midi": 64,
      "hit": false,
      "t": 74049.47916666666,
      "d": 78.125,
      "v": 45
    },
    {
      "midi": 45,
      "hit": false,
      "t": 74057.29166666666,
      "d": 104.16666666667152,
      "v": 35
    },
    {
      "midi": 52,
      "hit": false,
      "t": 74070.31249999999,
      "d": 65.10416666667152,
      "v": 38
    },
    {
      "midi": 73,
      "hit": false,
      "t": 74356.77083333333,
      "d": 75.52083333332848,
      "v": 65
    },
    {
      "midi": 61,
      "hit": false,
      "t": 74455.72916666666,
      "d": 174.47916666667152,
      "v": 50
    },
    {
      "midi": 64,
      "hit": false,
      "t": 74473.95833333333,
      "d": 466.1458333333285,
      "v": 75
    },
    {
      "midi": 45,
      "hit": false,
      "t": 74484.375,
      "d": 153.64583333332848,
      "v": 39
    },
    {
      "midi": 52,
      "hit": false,
      "t": 74500,
      "d": 109.375,
      "v": 43
    },
    {
      "midi": 61,
      "hit": false,
      "t": 74906.25,
      "d": 127.60416666665697,
      "v": 59
    },
    {
      "midi": 69,
      "hit": false,
      "t": 74919.27083333333,
      "d": 192.70833333332848,
      "v": 84
    },
    {
      "midi": 52,
      "hit": false,
      "t": 74924.47916666666,
      "d": 161.45833333332848,
      "v": 69
    },
    {
      "midi": 45,
      "hit": false,
      "t": 74937.49999999999,
      "d": 83.33333333334303,
      "v": 55
    },
    {
      "midi": 56,
      "hit": false,
      "t": 75330.72916666666,
      "d": 140.625,
      "v": 65
    },
    {
      "midi": 64,
      "hit": false,
      "t": 75338.54166666666,
      "d": 161.45833333332848,
      "v": 81
    },
    {
      "midi": 73,
      "hit": false,
      "t": 75338.54166666666,
      "d": 223.95833333332848,
      "v": 82
    },
    {
      "midi": 44,
      "hit": false,
      "t": 75346.35416666666,
      "d": 927.0833333333285,
      "v": 60
    },
    {
      "midi": 63,
      "hit": false,
      "t": 75640.62499999999,
      "d": 41.66666666667152,
      "v": 68
    },
    {
      "midi": 56,
      "hit": false,
      "t": 75648.43749999999,
      "d": 44.270833333343035,
      "v": 65
    },
    {
      "midi": 63,
      "hit": false,
      "t": 75739.58333333333,
      "d": 98.95833333332848,
      "v": 83
    },
    {
      "midi": 72,
      "hit": false,
      "t": 75752.60416666666,
      "d": 158.85416666667152,
      "v": 45
    },
    {
      "midi": 56,
      "hit": false,
      "t": 75773.43749999999,
      "d": 726.5625,
      "v": 58
    },
    {
      "midi": 75,
      "hit": false,
      "t": 75903.64583333333,
      "d": 750,
      "v": 80
    },
    {
      "midi": 66,
      "hit": false,
      "t": 75924.47916666666,
      "d": 593.75,
      "v": 67
    },
    {
      "midi": 49,
      "hit": false,
      "t": 76411.45833333331,
      "d": 317.7083333333576,
      "v": 56
    },
    {
      "midi": 73,
      "hit": false,
      "t": 76630.20833333333,
      "d": 72.91666666667152,
      "v": 73
    },
    {
      "midi": 64,
      "hit": false,
      "t": 76648.4375,
      "d": 80.72916666667152,
      "v": 52
    },
    {
      "midi": 73,
      "hit": false,
      "t": 76864.58333333334,
      "d": 278.6458333333285,
      "v": 64
    },
    {
      "midi": 44,
      "hit": false,
      "t": 76864.58333333334,
      "d": 1046.875,
      "v": 35
    },
    {
      "midi": 64,
      "hit": false,
      "t": 76869.79166666667,
      "d": 80.72916666665697,
      "v": 31
    },
    {
      "midi": 56,
      "hit": false,
      "t": 76882.8125,
      "d": 93.75,
      "v": 29
    },
    {
      "midi": 63,
      "hit": false,
      "t": 77182.29166666667,
      "d": 67.70833333332848,
      "v": 50
    },
    {
      "midi": 72,
      "hit": false,
      "t": 77187.5,
      "d": 164.0625,
      "v": 62
    },
    {
      "midi": 56,
      "hit": false,
      "t": 77223.95833333333,
      "d": 59.895833333343035,
      "v": 21
    },
    {
      "midi": 75,
      "hit": false,
      "t": 77359.375,
      "d": 640.6250000000146,
      "v": 54
    },
    {
      "midi": 66,
      "hit": false,
      "t": 77382.8125,
      "d": 593.7500000000146,
      "v": 47
    },
    {
      "midi": 56,
      "hit": false,
      "t": 77408.85416666667,
      "d": 932.2916666666861,
      "v": 40
    },
    {
      "midi": 73,
      "hit": false,
      "t": 78000.00000000001,
      "d": 322.9166666666715,
      "v": 39
    },
    {
      "midi": 64,
      "hit": false,
      "t": 78028.64583333334,
      "d": 291.6666666666715,
      "v": 30
    },
    {
      "midi": 49,
      "hit": false,
      "t": 78036.45833333334,
      "d": 250,
      "v": 20
    },
    {
      "midi": 73,
      "hit": false,
      "t": 78750.00000000003,
      "d": 195.3125000000291,
      "v": 58
    },
    {
      "midi": 61,
      "hit": false,
      "t": 78768.2291666667,
      "d": 213.54166666668607,
      "v": 25
    },
    {
      "midi": 64,
      "hit": false,
      "t": 78781.25000000004,
      "d": 138.02083333334303,
      "v": 30
    },
    {
      "midi": 52,
      "hit": false,
      "t": 78791.66666666672,
      "d": 166.66666666667152,
      "v": 25
    },
    {
      "midi": 45,
      "hit": false,
      "t": 78802.08333333339,
      "d": 161.45833333332848,
      "v": 35
    },
    {
      "midi": 73,
      "hit": false,
      "t": 79161.45833333339,
      "d": 57.29166666667152,
      "v": 42
    },
    {
      "midi": 61,
      "hit": false,
      "t": 79270.83333333339,
      "d": 171.875,
      "v": 55
    },
    {
      "midi": 64,
      "hit": false,
      "t": 79289.06250000006,
      "d": 460.9374999999709,
      "v": 67
    },
    {
      "midi": 45,
      "hit": false,
      "t": 79312.50000000006,
      "d": 158.85416666665697,
      "v": 33
    },
    {
      "midi": 52,
      "hit": false,
      "t": 79317.70833333339,
      "d": 125,
      "v": 30
    },
    {
      "midi": 69,
      "hit": false,
      "t": 79721.35416666672,
      "d": 174.4791666666424,
      "v": 65
    },
    {
      "midi": 61,
      "hit": false,
      "t": 79726.56250000004,
      "d": 101.56249999998545,
      "v": 44
    },
    {
      "midi": 52,
      "hit": false,
      "t": 79739.58333333337,
      "d": 72.91666666665697,
      "v": 45
    },
    {
      "midi": 45,
      "hit": false,
      "t": 79744.7916666667,
      "d": 72.91666666665697,
      "v": 52
    },
    {
      "midi": 69,
      "hit": false,
      "t": 80036.45833333336,
      "d": 57.29166666667152,
      "v": 44
    },
    {
      "midi": 73,
      "hit": false,
      "t": 80130.20833333336,
      "d": 182.29166666665697,
      "v": 78
    },
    {
      "midi": 61,
      "hit": false,
      "t": 80140.62500000003,
      "d": 75.52083333332848,
      "v": 59
    },
    {
      "midi": 45,
      "hit": false,
      "t": 80148.43750000003,
      "d": 143.22916666665697,
      "v": 46
    },
    {
      "midi": 52,
      "hit": false,
      "t": 80156.25000000003,
      "d": 111.97916666665697,
      "v": 49
    },
    {
      "midi": 64,
      "hit": false,
      "t": 80156.25000000003,
      "d": 130.20833333332848,
      "v": 64
    },
    {
      "midi": 73,
      "hit": false,
      "t": 80455.72916666669,
      "d": 127.60416666667152,
      "v": 69
    },
    {
      "midi": 61,
      "hit": false,
      "t": 80552.08333333336,
      "d": 98.95833333332848,
      "v": 67
    },
    {
      "midi": 64,
      "hit": false,
      "t": 80557.29166666669,
      "d": 208.33333333332848,
      "v": 84
    },
    {
      "midi": 45,
      "hit": false,
      "t": 80567.70833333336,
      "d": 57.29166666667152,
      "v": 55
    },
    {
      "midi": 52,
      "hit": false,
      "t": 80580.72916666669,
      "d": 57.29166666667152,
      "v": 50
    },
    {
      "midi": 64,
      "hit": false,
      "t": 80888.02083333334,
      "d": 57.29166666667152,
      "v": 27
    },
    {
      "midi": 61,
      "hit": false,
      "t": 80958.33333333334,
      "d": 41.66666666667152,
      "v": 74
    },
    {
      "midi": 69,
      "hit": false,
      "t": 80963.54166666667,
      "d": 98.95833333334303,
      "v": 96
    },
    {
      "midi": 52,
      "hit": false,
      "t": 80973.95833333334,
      "d": 33.85416666667152,
      "v": 88
    },
    {
      "midi": 45,
      "hit": false,
      "t": 80976.56250000001,
      "d": 41.66666666667152,
      "v": 70
    },
    {
      "midi": 76,
      "hit": false,
      "t": 81411.45833333334,
      "d": 401.04166666668607,
      "v": 101
    },
    {
      "midi": 64,
      "hit": false,
      "t": 81437.50000000001,
      "d": 195.31250000001455,
      "v": 92
    },
    {
      "midi": 73,
      "hit": false,
      "t": 81445.31250000001,
      "d": 67.70833333334303,
      "v": 43
    },
    {
      "midi": 61,
      "hit": false,
      "t": 81447.91666666669,
      "d": 143.22916666667152,
      "v": 55
    },
    {
      "midi": 57,
      "hit": false,
      "t": 81450.52083333336,
      "d": 1195.3125000000146,
      "v": 41
    },
    {
      "midi": 75,
      "hit": false,
      "t": 81768.2291666667,
      "d": 263.0208333333285,
      "v": 86
    },
    {
      "midi": 63,
      "hit": false,
      "t": 81781.25000000003,
      "d": 80.72916666667152,
      "v": 69
    },
    {
      "midi": 72,
      "hit": false,
      "t": 81791.6666666667,
      "d": 145.83333333332848,
      "v": 77
    },
    {
      "midi": 60,
      "hit": false,
      "t": 81807.2916666667,
      "d": 67.70833333332848,
      "v": 42
    },
    {
      "midi": 78,
      "hit": false,
      "t": 81945.31250000003,
      "d": 794.270833333343,
      "v": 85
    },
    {
      "midi": 66,
      "hit": false,
      "t": 81950.52083333336,
      "d": 601.5625000000146,
      "v": 66
    },
    {
      "midi": 62,
      "hit": false,
      "t": 81958.33333333336,
      "d": 494.79166666668607,
      "v": 38
    },
    {
      "midi": 74,
      "hit": false,
      "t": 82104.1666666667,
      "d": 473.95833333334303,
      "v": 24
    },
    {
      "midi": 76,
      "hit": false,
      "t": 82708.33333333337,
      "d": 187.49999999998545,
      "v": 80
    },
    {
      "midi": 64,
      "hit": false,
      "t": 82723.95833333337,
      "d": 132.81249999998545,
      "v": 50
    },
    {
      "midi": 73,
      "hit": false,
      "t": 82744.7916666667,
      "d": 78.125,
      "v": 35
    },
    {
      "midi": 61,
      "hit": false,
      "t": 82755.20833333337,
      "d": 80.72916666665697,
      "v": 28
    },
    {
      "midi": 64,
      "hit": false,
      "t": 83096.35416666669,
      "d": 385.4166666666715,
      "v": 34
    },
    {
      "midi": 76,
      "hit": false,
      "t": 83098.95833333336,
      "d": 46.875,
      "v": 48
    },
    {
      "midi": 73,
      "hit": false,
      "t": 83098.95833333336,
      "d": 270.8333333333285,
      "v": 38
    },
    {
      "midi": 61,
      "hit": false,
      "t": 83106.77083333336,
      "d": 401.0416666666715,
      "v": 27
    },
    {
      "midi": 57,
      "hit": false,
      "t": 83161.45833333336,
      "d": 372.39583333334303,
      "v": 16
    },
    {
      "midi": 78,
      "hit": false,
      "t": 83166.66666666669,
      "d": 65.10416666665697,
      "v": 53
    },
    {
      "midi": 76,
      "hit": false,
      "t": 83250.00000000001,
      "d": 403.6458333333576,
      "v": 55
    },
    {
      "midi": 75,
      "hit": false,
      "t": 83708.33333333337,
      "d": 78.12499999998545,
      "v": 41
    },
    {
      "midi": 72,
      "hit": false,
      "t": 83713.5416666667,
      "d": 78.12499999998545,
      "v": 40
    },
    {
      "midi": 63,
      "hit": false,
      "t": 83726.56250000003,
      "d": 111.97916666665697,
      "v": 20
    },
    {
      "midi": 60,
      "hit": false,
      "t": 83731.77083333336,
      "d": 119.79166666665697,
      "v": 19
    },
    {
      "midi": 78,
      "hit": false,
      "t": 83919.27083333334,
      "d": 820.3124999999709,
      "v": 36
    },
    {
      "midi": 66,
      "hit": false,
      "t": 83947.91666666667,
      "d": 580.7291666666424,
      "v": 20
    },
    {
      "midi": 74,
      "hit": false,
      "t": 83955.72916666667,
      "d": 518.229166666657,
      "v": 24
    },
    {
      "midi": 62,
      "hit": false,
      "t": 83968.75,
      "d": 510.41666666665697,
      "v": 25
    },
    {
      "midi": 61,
      "hit": false,
      "t": 84768.22916666664,
      "d": 125,
      "v": 25
    },
    {
      "midi": 73,
      "hit": false,
      "t": 84773.43749999997,
      "d": 101.5625,
      "v": 18
    },
    {
      "midi": 76,
      "hit": false,
      "t": 84786.4583333333,
      "d": 57.29166666667152,
      "v": 26
    },
    {
      "midi": 73,
      "hit": false,
      "t": 85320.31249999997,
      "d": 192.70833333334303,
      "v": 41
    },
    {
      "midi": 61,
      "hit": false,
      "t": 85328.12499999997,
      "d": 218.75000000001455,
      "v": 32
    },
    {
      "midi": 64,
      "hit": false,
      "t": 85343.74999999997,
      "d": 208.33333333334303,
      "v": 39
    },
    {
      "midi": 52,
      "hit": false,
      "t": 85354.16666666664,
      "d": 148.4375,
      "v": 24
    },
    {
      "midi": 45,
      "hit": false,
      "t": 85354.16666666664,
      "d": 169.27083333334303,
      "v": 33
    },
    {
      "midi": 73,
      "hit": false,
      "t": 85755.20833333331,
      "d": 75.52083333332848,
      "v": 47
    },
    {
      "midi": 61,
      "hit": false,
      "t": 85869.79166666664,
      "d": 203.12500000001455,
      "v": 44
    },
    {
      "midi": 64,
      "hit": false,
      "t": 85885.41666666664,
      "d": 205.72916666668607,
      "v": 52
    },
    {
      "midi": 52,
      "hit": false,
      "t": 85903.64583333331,
      "d": 109.375,
      "v": 32
    },
    {
      "midi": 45,
      "hit": false,
      "t": 85911.45833333331,
      "d": 119.79166666667152,
      "v": 20
    },
    {
      "midi": 64,
      "hit": false,
      "t": 86208.33333333333,
      "d": 171.875,
      "v": 30
    },
    {
      "midi": 61,
      "hit": false,
      "t": 86359.375,
      "d": 140.62499999998545,
      "v": 38
    },
    {
      "midi": 69,
      "hit": false,
      "t": 86359.375,
      "d": 213.54166666665697,
      "v": 59
    },
    {
      "midi": 52,
      "hit": false,
      "t": 86385.41666666666,
      "d": 109.375,
      "v": 19
    },
    {
      "midi": 45,
      "hit": false,
      "t": 86390.62499999999,
      "d": 104.16666666667152,
      "v": 32
    },
    {
      "midi": 73,
      "hit": false,
      "t": 86812.49999999999,
      "d": 88.54166666667152,
      "v": 55
    },
    {
      "midi": 61,
      "hit": false,
      "t": 86817.70833333331,
      "d": 75.52083333334303,
      "v": 50
    },
    {
      "midi": 64,
      "hit": false,
      "t": 86835.93749999999,
      "d": 65.10416666667152,
      "v": 41
    },
    {
      "midi": 52,
      "hit": false,
      "t": 86838.54166666666,
      "d": 65.10416666667152,
      "v": 35
    },
    {
      "midi": 45,
      "hit": false,
      "t": 86841.14583333333,
      "d": 85.9375,
      "v": 38
    },
    {
      "midi": 73,
      "hit": false,
      "t": 87145.83333333333,
      "d": 80.72916666667152,
      "v": 67
    },
    {
      "midi": 61,
      "hit": false,
      "t": 87276.04166666667,
      "d": 114.58333333332848,
      "v": 53
    },
    {
      "midi": 64,
      "hit": false,
      "t": 87276.04166666667,
      "d": 434.8958333333285,
      "v": 80
    },
    {
      "midi": 45,
      "hit": false,
      "t": 87283.85416666667,
      "d": 161.45833333332848,
      "v": 44
    },
    {
      "midi": 52,
      "hit": false,
      "t": 87302.08333333334,
      "d": 83.33333333332848,
      "v": 40
    },
    {
      "midi": 61,
      "hit": false,
      "t": 87695.3125,
      "d": 98.95833333332848,
      "v": 56
    },
    {
      "midi": 69,
      "hit": false,
      "t": 87697.91666666667,
      "d": 192.70833333332848,
      "v": 88
    },
    {
      "midi": 45,
      "hit": false,
      "t": 87716.14583333333,
      "d": 57.29166666667152,
      "v": 59
    },
    {
      "midi": 52,
      "hit": false,
      "t": 87718.75,
      "d": 46.875,
      "v": 68
    },
    {
      "midi": 64,
      "hit": false,
      "t": 88138.02083333333,
      "d": 127.60416666665697,
      "v": 76
    },
    {
      "midi": 56,
      "hit": false,
      "t": 88145.83333333333,
      "d": 114.58333333332848,
      "v": 55
    },
    {
      "midi": 73,
      "hit": false,
      "t": 88145.83333333333,
      "d": 184.89583333332848,
      "v": 79
    },
    {
      "midi": 44,
      "hit": false,
      "t": 88151.04166666666,
      "d": 1000.0000000000291,
      "v": 54
    },
    {
      "midi": 63,
      "hit": false,
      "t": 88466.14583333333,
      "d": 44.270833333343035,
      "v": 68
    },
    {
      "midi": 56,
      "hit": false,
      "t": 88476.5625,
      "d": 49.47916666667152,
      "v": 58
    },
    {
      "midi": 72,
      "hit": false,
      "t": 88479.16666666667,
      "d": 44.27083333332848,
      "v": 73
    },
    {
      "midi": 63,
      "hit": false,
      "t": 88578.125,
      "d": 83.33333333334303,
      "v": 74
    },
    {
      "midi": 72,
      "hit": false,
      "t": 88601.5625,
      "d": 132.81250000001455,
      "v": 84
    },
    {
      "midi": 56,
      "hit": false,
      "t": 88619.79166666667,
      "d": 908.8541666667006,
      "v": 44
    },
    {
      "midi": 75,
      "hit": false,
      "t": 88736.97916666669,
      "d": 765.6250000000146,
      "v": 76
    },
    {
      "midi": 66,
      "hit": false,
      "t": 88750.00000000001,
      "d": 682.2916666666861,
      "v": 68
    },
    {
      "midi": 49,
      "hit": false,
      "t": 89192.70833333336,
      "d": 440.1041666666715,
      "v": 46
    },
    {
      "midi": 64,
      "hit": false,
      "t": 89494.7916666667,
      "d": 125,
      "v": 54
    },
    {
      "midi": 73,
      "hit": false,
      "t": 89500.00000000003,
      "d": 67.70833333334303,
      "v": 62
    },
    {
      "midi": 56,
      "hit": false,
      "t": 89765.62500000003,
      "d": 127.60416666667152,
      "v": 39
    },
    {
      "midi": 73,
      "hit": false,
      "t": 89765.62500000003,
      "d": 255.20833333334303,
      "v": 48
    },
    {
      "midi": 44,
      "hit": false,
      "t": 89770.83333333337,
      "d": 1325.5208333333285,
      "v": 40
    },
    {
      "midi": 64,
      "hit": false,
      "t": 89783.8541666667,
      "d": 111.97916666667152,
      "v": 27
    },
    {
      "midi": 72,
      "hit": false,
      "t": 90140.62500000004,
      "d": 70.3125,
      "v": 49
    },
    {
      "midi": 63,
      "hit": false,
      "t": 90140.62500000004,
      "d": 80.72916666665697,
      "v": 41
    },
    {
      "midi": 56,
      "hit": false,
      "t": 90148.43750000004,
      "d": 67.70833333332848,
      "v": 19
    },
    {
      "midi": 75,
      "hit": false,
      "t": 90322.9166666667,
      "d": 757.8125,
      "v": 48
    },
    {
      "midi": 66,
      "hit": false,
      "t": 90330.7291666667,
      "d": 742.1875,
      "v": 40
    },
    {
      "midi": 56,
      "hit": false,
      "t": 90338.5416666667,
      "d": 1140.6249999999854,
      "v": 26
    },
    {
      "midi": 73,
      "hit": false,
      "t": 91026.0416666667,
      "d": 492.18749999998545,
      "v": 42
    },
    {
      "midi": 64,
      "hit": false,
      "t": 91046.87500000003,
      "d": 359.375,
      "v": 26
    },
    {
      "midi": 49,
      "hit": false,
      "t": 91062.50000000003,
      "d": 348.9583333333285,
      "v": 23
    },
    {
      "midi": 74,
      "hit": false,
      "t": 91885.41666666669,
      "d": 252.60416666668607,
      "v": 52
    },
    {
      "midi": 66,
      "hit": false,
      "t": 91893.22916666669,
      "d": 242.18750000001455,
      "v": 29
    },
    {
      "midi": 62,
      "hit": false,
      "t": 91919.27083333336,
      "d": 239.58333333334303,
      "v": 18
    },
    {
      "midi": 59,
      "hit": false,
      "t": 91927.08333333336,
      "d": 177.08333333334303,
      "v": 23
    },
    {
      "midi": 47,
      "hit": false,
      "t": 91945.31250000003,
      "d": 294.27083333334303,
      "v": 22
    },
    {
      "midi": 74,
      "hit": false,
      "t": 92377.6041666667,
      "d": 166.66666666667152,
      "v": 66
    },
    {
      "midi": 71,
      "hit": false,
      "t": 92572.9166666667,
      "d": 578.1250000000146,
      "v": 60
    },
    {
      "midi": 68,
      "hit": false,
      "t": 92585.93750000003,
      "d": 169.27083333334303,
      "v": 34
    },
    {
      "midi": 62,
      "hit": false,
      "t": 92588.5416666667,
      "d": 244.79166666667152,
      "v": 38
    },
    {
      "midi": 59,
      "hit": false,
      "t": 92598.95833333337,
      "d": 192.70833333332848,
      "v": 19
    },
    {
      "midi": 52,
      "hit": false,
      "t": 92614.58333333337,
      "d": 197.91666666665697,
      "v": 28
    },
    {
      "midi": 62,
      "hit": false,
      "t": 93072.9166666667,
      "d": 85.93750000001455,
      "v": 36
    },
    {
      "midi": 76,
      "hit": false,
      "t": 93075.52083333337,
      "d": 98.95833333334303,
      "v": 66
    },
    {
      "midi": 59,
      "hit": false,
      "t": 93078.12500000004,
      "d": 114.58333333334303,
      "v": 27
    },
    {
      "midi": 68,
      "hit": false,
      "t": 93093.75000000004,
      "d": 83.33333333334303,
      "v": 39
    },
    {
      "midi": 52,
      "hit": false,
      "t": 93119.79166666672,
      "d": 80.72916666667152,
      "v": 20
    },
    {
      "midi": 73,
      "hit": false,
      "t": 93507.81250000006,
      "d": 182.29166666667152,
      "v": 63
    },
    {
      "midi": 61,
      "hit": false,
      "t": 93510.41666666673,
      "d": 127.60416666665697,
      "v": 48
    },
    {
      "midi": 45,
      "hit": false,
      "t": 93515.62500000007,
      "d": 195.31249999998545,
      "v": 27
    },
    {
      "midi": 64,
      "hit": false,
      "t": 93520.8333333334,
      "d": 62.49999999998545,
      "v": 44
    },
    {
      "midi": 57,
      "hit": false,
      "t": 93526.04166666673,
      "d": 106.77083333332848,
      "v": 35
    },
    {
      "midi": 52,
      "hit": false,
      "t": 93531.25000000006,
      "d": 164.0625,
      "v": 36
    },
    {
      "midi": 73,
      "hit": false,
      "t": 93885.41666666673,
      "d": 164.0625,
      "v": 55
    },
    {
      "midi": 64,
      "hit": false,
      "t": 94062.50000000006,
      "d": 567.708333333343,
      "v": 68
    },
    {
      "midi": 61,
      "hit": false,
      "t": 94072.91666666673,
      "d": 221.35416666665697,
      "v": 40
    },
    {
      "midi": 45,
      "hit": false,
      "t": 94109.37500000006,
      "d": 197.91666666665697,
      "v": 28
    },
    {
      "midi": 52,
      "hit": false,
      "t": 94114.58333333339,
      "d": 192.70833333332848,
      "v": 24
    },
    {
      "midi": 61,
      "hit": false,
      "t": 94583.33333333339,
      "d": 205.72916666667152,
      "v": 39
    },
    {
      "midi": 69,
      "hit": false,
      "t": 94593.75000000006,
      "d": 276.0416666666715,
      "v": 57
    },
    {
      "midi": 45,
      "hit": false,
      "t": 94627.60416666673,
      "d": 140.625,
      "v": 33
    },
    {
      "midi": 52,
      "hit": false,
      "t": 94635.41666666673,
      "d": 192.70833333332848,
      "v": 39
    },
    {
      "midi": 71,
      "hit": false,
      "t": 95057.29166666673,
      "d": 166.66666666665697,
      "v": 65
    },
    {
      "midi": 63,
      "hit": false,
      "t": 95065.10416666673,
      "d": 388.02083333331393,
      "v": 45
    },
    {
      "midi": 54,
      "hit": false,
      "t": 95072.91666666673,
      "d": 291.66666666665697,
      "v": 40
    },
    {
      "midi": 66,
      "hit": false,
      "t": 95078.12500000006,
      "d": 307.29166666665697,
      "v": 50
    },
    {
      "midi": 45,
      "hit": false,
      "t": 95106.77083333339,
      "d": 151.04166666667152,
      "v": 37
    },
    {
      "midi": 71,
      "hit": false,
      "t": 95401.04166666672,
      "d": 39.0625,
      "v": 69
    },
    {
      "midi": 71,
      "hit": false,
      "t": 95539.06250000004,
      "d": 361.9791666666715,
      "v": 54
    },
    {
      "midi": 62,
      "hit": false,
      "t": 95557.29166666672,
      "d": 328.125,
      "v": 50
    },
    {
      "midi": 56,
      "hit": false,
      "t": 95565.10416666672,
      "d": 299.4791666666715,
      "v": 41
    },
    {
      "midi": 65,
      "hit": false,
      "t": 95567.70833333339,
      "d": 283.8541666666715,
      "v": 55
    },
    {
      "midi": 45,
      "hit": false,
      "t": 95578.12500000006,
      "d": 221.35416666667152,
      "v": 36
    },
    {
      "midi": 71,
      "hit": false,
      "t": 96041.66666666672,
      "d": 226.5625,
      "v": 59
    },
    {
      "midi": 56,
      "hit": false,
      "t": 96052.08333333339,
      "d": 229.16666666665697,
      "v": 46
    },
    {
      "midi": 64,
      "hit": false,
      "t": 96067.70833333339,
      "d": 234.37499999998545,
      "v": 50
    },
    {
      "midi": 62,
      "hit": false,
      "t": 96072.91666666672,
      "d": 177.08333333332848,
      "v": 47
    },
    {
      "midi": 45,
      "hit": false,
      "t": 96075.52083333339,
      "d": 169.27083333332848,
      "v": 44
    },
    {
      "midi": 73,
      "hit": false,
      "t": 96489.58333333337,
      "d": 156.25,
      "v": 61
    },
    {
      "midi": 64,
      "hit": false,
      "t": 96526.0416666667,
      "d": 177.08333333332848,
      "v": 36
    },
    {
      "midi": 57,
      "hit": false,
      "t": 96526.0416666667,
      "d": 401.0416666666715,
      "v": 39
    },
    {
      "midi": 61,
      "hit": false,
      "t": 96528.64583333337,
      "d": 169.27083333332848,
      "v": 18
    },
    {
      "midi": 45,
      "hit": false,
      "t": 96546.87500000004,
      "d": 140.62499999998545,
      "v": 43
    },
    {
      "midi": 73,
      "hit": false,
      "t": 96924.4791666667,
      "d": 70.3125,
      "v": 39
    },
    {
      "midi": 64,
      "hit": false,
      "t": 97067.70833333337,
      "d": 539.0625,
      "v": 59
    },
    {
      "midi": 61,
      "hit": false,
      "t": 97070.31250000004,
      "d": 205.72916666665697,
      "v": 32
    },
    {
      "midi": 52,
      "hit": false,
      "t": 97091.14583333337,
      "d": 208.33333333332848,
      "v": 36
    },
    {
      "midi": 45,
      "hit": false,
      "t": 97096.3541666667,
      "d": 158.85416666667152,
      "v": 39
    },
    {
      "midi": 61,
      "hit": false,
      "t": 97591.14583333337,
      "d": 171.875,
      "v": 38
    },
    {
      "midi": 69,
      "hit": false,
      "t": 97604.1666666667,
      "d": 203.12500000001455,
      "v": 52
    },
    {
      "midi": 45,
      "hit": false,
      "t": 97643.2291666667,
      "d": 138.02083333334303,
      "v": 39
    },
    {
      "midi": 52,
      "hit": false,
      "t": 97671.87500000003,
      "d": 80.72916666667152,
      "v": 25
    },
    {
      "midi": 74,
      "hit": false,
      "t": 98164.06250000004,
      "d": 218.74999999998545,
      "v": 75
    },
    {
      "midi": 54,
      "hit": false,
      "t": 98177.08333333337,
      "d": 419.2708333333285,
      "v": 50
    },
    {
      "midi": 62,
      "hit": false,
      "t": 98182.2916666667,
      "d": 283.85416666665697,
      "v": 42
    },
    {
      "midi": 69,
      "hit": false,
      "t": 98190.1041666667,
      "d": 242.18749999998545,
      "v": 54
    },
    {
      "midi": 45,
      "hit": false,
      "t": 98218.75000000003,
      "d": 208.33333333332848,
      "v": 42
    },
    {
      "midi": 74,
      "hit": false,
      "t": 98515.62500000003,
      "d": 132.8125,
      "v": 72
    },
    {
      "midi": 71,
      "hit": false,
      "t": 98648.43750000003,
      "d": 635.4166666666861,
      "v": 79
    },
    {
      "midi": 69,
      "hit": false,
      "t": 98664.06250000003,
      "d": 148.4375,
      "v": 72
    },
    {
      "midi": 62,
      "hit": false,
      "t": 98664.06250000003,
      "d": 210.9375,
      "v": 55
    },
    {
      "midi": 53,
      "hit": false,
      "t": 98669.27083333336,
      "d": 598.9583333333576,
      "v": 68
    },
    {
      "midi": 45,
      "hit": false,
      "t": 98708.33333333336,
      "d": 192.70833333334303,
      "v": 44
    },
    {
      "midi": 62,
      "hit": false,
      "t": 99223.95833333337,
      "d": 187.50000000001455,
      "v": 49
    },
    {
      "midi": 68,
      "hit": false,
      "t": 99231.77083333337,
      "d": 242.18750000001455,
      "v": 65
    },
    {
      "midi": 76,
      "hit": false,
      "t": 99234.37500000004,
      "d": 192.70833333334303,
      "v": 73
    },
    {
      "midi": 52,
      "hit": false,
      "t": 99270.83333333339,
      "d": 192.70833333332848,
      "v": 64
    },
    {
      "midi": 45,
      "hit": false,
      "t": 99276.04166666672,
      "d": 205.72916666667152,
      "v": 45
    },
    {
      "midi": 73,
      "hit": false,
      "t": 99695.31250000006,
      "d": 213.54166666667152,
      "v": 69
    },
    {
      "midi": 61,
      "hit": false,
      "t": 99710.93750000006,
      "d": 250.00000000001455,
      "v": 38
    },
    {
      "midi": 52,
      "hit": false,
      "t": 99718.75000000006,
      "d": 205.72916666667152,
      "v": 61
    },
    {
      "midi": 64,
      "hit": false,
      "t": 99734.37500000006,
      "d": 216.14583333334303,
      "v": 51
    },
    {
      "midi": 45,
      "hit": false,
      "t": 99744.79166666673,
      "d": 195.3125,
      "v": 41
    },
    {
      "midi": 73,
      "hit": false,
      "t": 100057.29166666674,
      "d": 130.20833333334303,
      "v": 65
    },
    {
      "midi": 61,
      "hit": false,
      "t": 100151.04166666674,
      "d": 260.41666666668607,
      "v": 53
    },
    {
      "midi": 64,
      "hit": false,
      "t": 100166.66666666674,
      "d": 270.8333333333576,
      "v": 63
    },
    {
      "midi": 45,
      "hit": false,
      "t": 100177.08333333342,
      "d": 231.77083333334303,
      "v": 39
    },
    {
      "midi": 52,
      "hit": false,
      "t": 100200.52083333342,
      "d": 182.29166666667152,
      "v": 43
    },
    {
      "midi": 69,
      "hit": false,
      "t": 100661.45833333343,
      "d": 315.1041666666715,
      "v": 61
    },
    {
      "midi": 61,
      "hit": false,
      "t": 100677.08333333343,
      "d": 179.6875,
      "v": 31
    },
    {
      "midi": 64,
      "hit": false,
      "t": 100687.5000000001,
      "d": 98.95833333332848,
      "v": 39
    },
    {
      "midi": 52,
      "hit": false,
      "t": 100687.5000000001,
      "d": 177.08333333332848,
      "v": 36
    },
    {
      "midi": 45,
      "hit": false,
      "t": 100695.3125000001,
      "d": 161.45833333332848,
      "v": 33
    },
    {
      "midi": 71,
      "hit": false,
      "t": 101174.47916666677,
      "d": 218.75,
      "v": 56
    },
    {
      "midi": 63,
      "hit": false,
      "t": 101182.29166666677,
      "d": 403.6458333333285,
      "v": 39
    },
    {
      "midi": 54,
      "hit": false,
      "t": 101200.52083333344,
      "d": 244.79166666665697,
      "v": 29
    },
    {
      "midi": 66,
      "hit": false,
      "t": 101208.33333333344,
      "d": 268.22916666665697,
      "v": 38
    },
    {
      "midi": 45,
      "hit": false,
      "t": 101223.95833333344,
      "d": 158.85416666667152,
      "v": 38
    },
    {
      "midi": 71,
      "hit": false,
      "t": 101526.04166666677,
      "d": 54.6875,
      "v": 39
    },
    {
      "midi": 71,
      "hit": false,
      "t": 101700.52083333343,
      "d": 270.8333333333285,
      "v": 58
    },
    {
      "midi": 56,
      "hit": false,
      "t": 101718.7500000001,
      "d": 218.75,
      "v": 26
    },
    {
      "midi": 62,
      "hit": false,
      "t": 101729.16666666677,
      "d": 234.37499999998545,
      "v": 31
    },
    {
      "midi": 45,
      "hit": false,
      "t": 101744.79166666677,
      "d": 140.625,
      "v": 32
    },
    {
      "midi": 65,
      "hit": false,
      "t": 101744.79166666677,
      "d": 197.91666666665697,
      "v": 29
    },
    {
      "midi": 71,
      "hit": false,
      "t": 102182.29166666676,
      "d": 179.68750000001455,
      "v": 46
    },
    {
      "midi": 56,
      "hit": false,
      "t": 102195.31250000009,
      "d": 190.10416666668607,
      "v": 35
    },
    {
      "midi": 45,
      "hit": false,
      "t": 102221.35416666676,
      "d": 114.58333333334303,
      "v": 31
    },
    {
      "midi": 64,
      "hit": false,
      "t": 102223.95833333343,
      "d": 88.54166666667152,
      "v": 29
    },
    {
      "midi": 62,
      "hit": false,
      "t": 102223.95833333343,
      "d": 151.04166666667152,
      "v": 27
    },
    {
      "midi": 73,
      "hit": false,
      "t": 102794.27083333344,
      "d": 294.27083333334303,
      "v": 27
    },
    {
      "midi": 61,
      "hit": false,
      "t": 102802.08333333344,
      "d": 375.00000000001455,
      "v": 18
    },
    {
      "midi": 64,
      "hit": false,
      "t": 102828.12500000012,
      "d": 130.20833333334303,
      "v": 18
    },
    {
      "midi": 57,
      "hit": false,
      "t": 102828.12500000012,
      "d": 1966.145833333343,
      "v": 20
    },
    {
      "midi": 45,
      "hit": false,
      "t": 102841.14583333346,
      "d": 203.125,
      "v": 24
    },
    {
      "midi": 73,
      "hit": false,
      "t": 103351.56250000013,
      "d": 268.2291666666715,
      "v": 43
    },
    {
      "midi": 61,
      "hit": false,
      "t": 103609.37500000013,
      "d": 307.2916666666715,
      "v": 18
    },
    {
      "midi": 45,
      "hit": false,
      "t": 103619.7916666668,
      "d": 210.9375,
      "v": 28
    },
    {
      "midi": 64,
      "hit": false,
      "t": 103619.7916666668,
      "d": 750,
      "v": 39
    },
    {
      "midi": 52,
      "hit": false,
      "t": 103627.6041666668,
      "d": 263.0208333333285,
      "v": 24
    },
    {
      "midi": 61,
      "hit": false,
      "t": 104416.6666666668,
      "d": 401.04166666665697,
      "v": 19
    },
    {
      "midi": 69,
      "hit": false,
      "t": 104424.4791666668,
      "d": 1257.8124999999854,
      "v": 30
    },
    {
      "midi": 45,
      "hit": false,
      "t": 104432.2916666668,
      "d": 367.18749999998545,
      "v": 20
    },
    {
      "midi": 52,
      "hit": false,
      "t": 104437.50000000013,
      "d": 278.6458333333285,
      "v": 18
    },
    {
      "midi": 64,
      "hit": false,
      "t": 105606.77083333346,
      "d": 317.7083333333285,
      "v": 34
    },
    {
      "midi": 76,
      "hit": false,
      "t": 105950.52083333346,
      "d": 244.79166666667152,
      "v": 44
    },
    {
      "midi": 33,
      "hit": false,
      "t": 105981.77083333346,
      "d": 151.04166666667152,
      "v": 35
    },
    {
      "midi": 76,
      "hit": false,
      "t": 106570.31250000013,
      "d": 125,
      "v": 41
    },
    {
      "midi": 72,
      "hit": false,
      "t": 106710.93750000013,
      "d": 476.5625,
      "v": 57
    },
    {
      "midi": 60,
      "hit": false,
      "t": 106731.77083333346,
      "d": 354.1666666666715,
      "v": 30
    },
    {
      "midi": 52,
      "hit": false,
      "t": 106770.83333333346,
      "d": 265.625,
      "v": 29
    },
    {
      "midi": 75,
      "hit": false,
      "t": 107315.1041666668,
      "d": 59.895833333343035,
      "v": 45
    },
    {
      "midi": 59,
      "hit": false,
      "t": 107322.9166666668,
      "d": 437.5,
      "v": 34
    },
    {
      "midi": 52,
      "hit": false,
      "t": 107341.14583333347,
      "d": 484.375,
      "v": 37
    },
    {
      "midi": 76,
      "hit": false,
      "t": 107388.02083333347,
      "d": 44.27083333332848,
      "v": 63
    },
    {
      "midi": 75,
      "hit": false,
      "t": 107453.12500000013,
      "d": 59.895833333343035,
      "v": 67
    },
    {
      "midi": 76,
      "hit": false,
      "t": 107518.2291666668,
      "d": 122.39583333332848,
      "v": 73
    },
    {
      "midi": 75,
      "hit": false,
      "t": 107619.7916666668,
      "d": 111.97916666667152,
      "v": 71
    },
    {
      "midi": 74,
      "hit": false,
      "t": 107721.3541666668,
      "d": 52.08333333332848,
      "v": 80
    },
    {
      "midi": 75,
      "hit": false,
      "t": 107807.2916666668,
      "d": 106.77083333332848,
      "v": 77
    },
    {
      "midi": 45,
      "hit": false,
      "t": 107901.0416666668,
      "d": 171.87499999998545,
      "v": 36
    },
    {
      "midi": 76,
      "hit": false,
      "t": 107919.27083333346,
      "d": 192.70833333332848,
      "v": 83
    },
    {
      "midi": 76,
      "hit": false,
      "t": 108296.87500000012,
      "d": 65.10416666667152,
      "v": 54
    },
    {
      "midi": 60,
      "hit": false,
      "t": 108398.43750000012,
      "d": 278.6458333333285,
      "v": 38
    },
    {
      "midi": 69,
      "hit": false,
      "t": 108403.64583333344,
      "d": 601.5624999999854,
      "v": 65
    },
    {
      "midi": 52,
      "hit": false,
      "t": 108458.33333333344,
      "d": 231.77083333332848,
      "v": 23
    },
    {
      "midi": 72,
      "hit": false,
      "t": 108971.35416666677,
      "d": 502.60416666665697,
      "v": 63
    },
    {
      "midi": 60,
      "hit": false,
      "t": 109000.0000000001,
      "d": 229.16666666667152,
      "v": 35
    },
    {
      "midi": 52,
      "hit": false,
      "t": 109000.0000000001,
      "d": 250,
      "v": 33
    },
    {
      "midi": 71,
      "hit": false,
      "t": 109463.54166666676,
      "d": 195.3125,
      "v": 55
    },
    {
      "midi": 45,
      "hit": false,
      "t": 109486.97916666676,
      "d": 143.22916666667152,
      "v": 35
    },
    {
      "midi": 71,
      "hit": false,
      "t": 109843.75000000009,
      "d": 54.6875,
      "v": 51
    },
    {
      "midi": 66,
      "hit": false,
      "t": 109937.50000000009,
      "d": 302.08333333334303,
      "v": 60
    },
    {
      "midi": 62,
      "hit": false,
      "t": 109953.12500000009,
      "d": 234.37500000001455,
      "v": 31
    },
    {
      "midi": 52,
      "hit": false,
      "t": 109971.35416666676,
      "d": 205.72916666667152,
      "v": 38
    },
    {
      "midi": 68,
      "hit": false,
      "t": 110388.02083333343,
      "d": 57.291666666656965,
      "v": 56
    },
    {
      "midi": 62,
      "hit": false,
      "t": 110388.02083333343,
      "d": 236.9791666666424,
      "v": 39
    },
    {
      "midi": 52,
      "hit": false,
      "t": 110388.02083333343,
      "d": 286.45833333331393,
      "v": 34
    },
    {
      "midi": 69,
      "hit": false,
      "t": 110473.95833333342,
      "d": 52.08333333332848,
      "v": 52
    },
    {
      "midi": 68,
      "hit": false,
      "t": 110520.83333333342,
      "d": 54.68749999998545,
      "v": 74
    },
    {
      "midi": 69,
      "hit": false,
      "t": 110614.5833333334,
      "d": 67.70833333334303,
      "v": 74
    },
    {
      "midi": 68,
      "hit": false,
      "t": 110677.08333333342,
      "d": 119.79166666665697,
      "v": 58
    },
    {
      "midi": 66,
      "hit": false,
      "t": 110791.66666666674,
      "d": 65.10416666665697,
      "v": 72
    },
    {
      "midi": 68,
      "hit": false,
      "t": 110869.79166666673,
      "d": 96.35416666665697,
      "v": 69
    },
    {
      "midi": 45,
      "hit": false,
      "t": 110945.31250000006,
      "d": 518.2291666666715,
      "v": 40
    },
    {
      "midi": 69,
      "hit": false,
      "t": 110973.95833333339,
      "d": 135.41666666667152,
      "v": 83
    },
    {
      "midi": 64,
      "hit": false,
      "t": 111359.37500000006,
      "d": 52.083333333343035,
      "v": 79
    },
    {
      "midi": 69,
      "hit": false,
      "t": 111447.91666666673,
      "d": 122.39583333332848,
      "v": 84
    },
    {
      "midi": 60,
      "hit": false,
      "t": 111447.91666666673,
      "d": 229.16666666665697,
      "v": 48
    },
    {
      "midi": 52,
      "hit": false,
      "t": 111468.75000000006,
      "d": 213.54166666665697,
      "v": 50
    },
    {
      "midi": 64,
      "hit": false,
      "t": 111796.87500000004,
      "d": 80.72916666667152,
      "v": 72
    },
    {
      "midi": 69,
      "hit": false,
      "t": 111888.02083333339,
      "d": 111.97916666667152,
      "v": 83
    },
    {
      "midi": 60,
      "hit": false,
      "t": 111888.02083333339,
      "d": 226.56250000001455,
      "v": 49
    },
    {
      "midi": 52,
      "hit": false,
      "t": 111890.62500000006,
      "d": 372.39583333334303,
      "v": 51
    },
    {
      "midi": 72,
      "hit": false,
      "t": 112252.60416666673,
      "d": 98.95833333332848,
      "v": 74
    },
    {
      "midi": 76,
      "hit": false,
      "t": 112361.97916666673,
      "d": 138.02083333332848,
      "v": 84
    },
    {
      "midi": 45,
      "hit": false,
      "t": 112377.60416666673,
      "d": 164.0625,
      "v": 52
    },
    {
      "midi": 76,
      "hit": false,
      "t": 112817.7083333334,
      "d": 57.29166666667152,
      "v": 64
    },
    {
      "midi": 60,
      "hit": false,
      "t": 112895.8333333334,
      "d": 328.125,
      "v": 40
    },
    {
      "midi": 72,
      "hit": false,
      "t": 112901.04166666673,
      "d": 380.20833333334303,
      "v": 90
    },
    {
      "midi": 52,
      "hit": false,
      "t": 112927.0833333334,
      "d": 307.2916666666715,
      "v": 41
    },
    {
      "midi": 75,
      "hit": false,
      "t": 113380.2083333334,
      "d": 52.08333333332848,
      "v": 83
    },
    {
      "midi": 59,
      "hit": false,
      "t": 113395.8333333334,
      "d": 484.37499999998545,
      "v": 47
    },
    {
      "midi": 52,
      "hit": false,
      "t": 113414.06250000007,
      "d": 588.5416666666424,
      "v": 26
    },
    {
      "midi": 76,
      "hit": false,
      "t": 113447.91666666673,
      "d": 52.08333333332848,
      "v": 89
    },
    {
      "midi": 75,
      "hit": false,
      "t": 113510.41666666673,
      "d": 52.08333333332848,
      "v": 57
    },
    {
      "midi": 76,
      "hit": false,
      "t": 113593.75000000006,
      "d": 41.66666666667152,
      "v": 65
    },
    {
      "midi": 75,
      "hit": false,
      "t": 113627.60416666673,
      "d": 111.97916666667152,
      "v": 78
    },
    {
      "midi": 76,
      "hit": false,
      "t": 113723.9583333334,
      "d": 91.14583333332848,
      "v": 71
    },
    {
      "midi": 75,
      "hit": false,
      "t": 113807.29166666673,
      "d": 67.70833333332848,
      "v": 88
    },
    {
      "midi": 74,
      "hit": false,
      "t": 113898.43750000006,
      "d": 54.6875,
      "v": 80
    },
    {
      "midi": 75,
      "hit": false,
      "t": 113966.14583333339,
      "d": 111.97916666665697,
      "v": 75
    },
    {
      "midi": 45,
      "hit": false,
      "t": 114041.66666666672,
      "d": 171.875,
      "v": 40
    },
    {
      "midi": 76,
      "hit": false,
      "t": 114072.91666666672,
      "d": 179.6875,
      "v": 87
    },
    {
      "midi": 76,
      "hit": false,
      "t": 114450.52083333339,
      "d": 52.08333333332848,
      "v": 80
    },
    {
      "midi": 69,
      "hit": false,
      "t": 114562.50000000004,
      "d": 552.0833333333285,
      "v": 73
    },
    {
      "midi": 60,
      "hit": false,
      "t": 114580.72916666672,
      "d": 197.91666666665697,
      "v": 32
    },
    {
      "midi": 52,
      "hit": false,
      "t": 114611.97916666672,
      "d": 195.31249999998545,
      "v": 32
    },
    {
      "midi": 72,
      "hit": false,
      "t": 115101.56250000003,
      "d": 473.9583333333576,
      "v": 71
    },
    {
      "midi": 60,
      "hit": false,
      "t": 115111.9791666667,
      "d": 182.29166666667152,
      "v": 34
    },
    {
      "midi": 52,
      "hit": false,
      "t": 115114.58333333337,
      "d": 197.91666666667152,
      "v": 40
    },
    {
      "midi": 71,
      "hit": false,
      "t": 115565.10416666672,
      "d": 161.45833333334303,
      "v": 59
    },
    {
      "midi": 45,
      "hit": false,
      "t": 115591.14583333339,
      "d": 91.14583333332848,
      "v": 43
    },
    {
      "midi": 71,
      "hit": false,
      "t": 115942.70833333339,
      "d": 80.72916666667152,
      "v": 44
    },
    {
      "midi": 62,
      "hit": false,
      "t": 116044.27083333339,
      "d": 208.33333333334303,
      "v": 23
    },
    {
      "midi": 66,
      "hit": false,
      "t": 116044.27083333339,
      "d": 273.43750000001455,
      "v": 54
    },
    {
      "midi": 52,
      "hit": false,
      "t": 116062.50000000006,
      "d": 213.54166666667152,
      "v": 37
    },
    {
      "midi": 68,
      "hit": false,
      "t": 116518.22916666673,
      "d": 62.5,
      "v": 55
    },
    {
      "midi": 52,
      "hit": false,
      "t": 116526.04166666673,
      "d": 541.6666666666715,
      "v": 34
    },
    {
      "midi": 62,
      "hit": false,
      "t": 116528.6458333334,
      "d": 250,
      "v": 34
    },
    {
      "midi": 69,
      "hit": false,
      "t": 116619.79166666673,
      "d": 57.29166666667152,
      "v": 48
    },
    {
      "midi": 68,
      "hit": false,
      "t": 116661.4583333334,
      "d": 62.5,
      "v": 61
    },
    {
      "midi": 69,
      "hit": false,
      "t": 116765.62500000007,
      "d": 57.291666666656965,
      "v": 49
    },
    {
      "midi": 68,
      "hit": false,
      "t": 116815.10416666673,
      "d": 78.125,
      "v": 60
    },
    {
      "midi": 66,
      "hit": false,
      "t": 116908.85416666673,
      "d": 70.3125,
      "v": 54
    },
    {
      "midi": 68,
      "hit": false,
      "t": 116989.5833333334,
      "d": 67.70833333332848,
      "v": 61
    },
    {
      "midi": 69,
      "hit": false,
      "t": 117111.97916666673,
      "d": 127.60416666665697,
      "v": 61
    },
    {
      "midi": 60,
      "hit": false,
      "t": 117138.02083333339,
      "d": 640.625,
      "v": 27
    },
    {
      "midi": 57,
      "hit": false,
      "t": 117140.62500000006,
      "d": 645.8333333333285,
      "v": 30
    },
    {
      "midi": 81,
      "hit": false,
      "t": 117286.45833333339,
      "d": 570.3125,
      "v": 59
    },
    {
      "midi": 67,
      "hit": false,
      "t": 118476.56250000006,
      "d": 143.22916666667152,
      "v": 44
    },
    {
      "midi": 72,
      "hit": false,
      "t": 118625.00000000006,
      "d": 364.58333333334303,
      "v": 64
    },
    {
      "midi": 76,
      "hit": false,
      "t": 119018.22916666673,
      "d": 59.89583333332848,
      "v": 55
    },
    {
      "midi": 79,
      "hit": false,
      "t": 119143.22916666673,
      "d": 218.75,
      "v": 64
    },
    {
      "midi": 48,
      "hit": false,
      "t": 119145.8333333334,
      "d": 200.52083333332848,
      "v": 30
    },
    {
      "midi": 79,
      "hit": false,
      "t": 119640.62500000006,
      "d": 70.3125,
      "v": 68
    },
    {
      "midi": 64,
      "hit": false,
      "t": 119765.62500000006,
      "d": 359.375,
      "v": 34
    },
    {
      "midi": 76,
      "hit": false,
      "t": 119802.08333333339,
      "d": 411.45833333334303,
      "v": 44
    },
    {
      "midi": 55,
      "hit": false,
      "t": 119807.29166666672,
      "d": 177.08333333334303,
      "v": 25
    },
    {
      "midi": 78,
      "hit": false,
      "t": 120330.72916666673,
      "d": 57.291666666656965,
      "v": 59
    },
    {
      "midi": 63,
      "hit": false,
      "t": 120343.75000000006,
      "d": 247.39583333334303,
      "v": 33
    },
    {
      "midi": 55,
      "hit": false,
      "t": 120375.00000000006,
      "d": 218.75000000001455,
      "v": 32
    },
    {
      "midi": 79,
      "hit": false,
      "t": 120398.43750000006,
      "d": 44.27083333332848,
      "v": 70
    },
    {
      "midi": 78,
      "hit": false,
      "t": 120458.33333333339,
      "d": 57.29166666667152,
      "v": 71
    },
    {
      "midi": 79,
      "hit": false,
      "t": 120536.4583333334,
      "d": 83.33333333332848,
      "v": 59
    },
    {
      "midi": 78,
      "hit": false,
      "t": 120606.7708333334,
      "d": 98.95833333332848,
      "v": 62
    },
    {
      "midi": 77,
      "hit": false,
      "t": 120718.75000000006,
      "d": 54.6875,
      "v": 66
    },
    {
      "midi": 78,
      "hit": false,
      "t": 120781.25000000006,
      "d": 114.58333333334303,
      "v": 72
    },
    {
      "midi": 79,
      "hit": false,
      "t": 120903.6458333334,
      "d": 195.31249999998545,
      "v": 82
    },
    {
      "midi": 48,
      "hit": false,
      "t": 120916.66666666673,
      "d": 145.83333333332848,
      "v": 42
    },
    {
      "midi": 79,
      "hit": false,
      "t": 121291.66666666672,
      "d": 88.54166666667152,
      "v": 83
    },
    {
      "midi": 64,
      "hit": false,
      "t": 121419.27083333339,
      "d": 343.75,
      "v": 43
    },
    {
      "midi": 76,
      "hit": false,
      "t": 121427.08333333339,
      "d": 351.5625,
      "v": 95
    },
    {
      "midi": 55,
      "hit": false,
      "t": 121442.70833333339,
      "d": 257.8125,
      "v": 25
    },
    {
      "midi": 63,
      "hit": false,
      "t": 121916.66666666672,
      "d": 242.1875,
      "v": 63
    },
    {
      "midi": 78,
      "hit": false,
      "t": 121937.50000000004,
      "d": 52.083333333343035,
      "v": 80
    },
    {
      "midi": 55,
      "hit": false,
      "t": 121940.10416666672,
      "d": 234.375,
      "v": 38
    },
    {
      "midi": 79,
      "hit": false,
      "t": 122010.41666666672,
      "d": 46.875,
      "v": 84
    },
    {
      "midi": 78,
      "hit": false,
      "t": 122070.31250000004,
      "d": 70.3125,
      "v": 62
    },
    {
      "midi": 79,
      "hit": false,
      "t": 122148.43750000004,
      "d": 91.14583333332848,
      "v": 79
    },
    {
      "midi": 78,
      "hit": false,
      "t": 122210.93750000004,
      "d": 88.54166666667152,
      "v": 76
    },
    {
      "midi": 77,
      "hit": false,
      "t": 122289.06250000004,
      "d": 59.895833333343035,
      "v": 83
    },
    {
      "midi": 78,
      "hit": false,
      "t": 122364.58333333339,
      "d": 114.58333333332848,
      "v": 81
    },
    {
      "midi": 79,
      "hit": false,
      "t": 122463.54166666672,
      "d": 229.16666666667152,
      "v": 97
    },
    {
      "midi": 48,
      "hit": false,
      "t": 122489.58333333339,
      "d": 169.27083333332848,
      "v": 56
    },
    {
      "midi": 79,
      "hit": false,
      "t": 122864.58333333339,
      "d": 67.70833333332848,
      "v": 88
    },
    {
      "midi": 72,
      "hit": false,
      "t": 122966.14583333339,
      "d": 518.2291666666861,
      "v": 88
    },
    {
      "midi": 64,
      "hit": false,
      "t": 122968.75000000006,
      "d": 283.8541666666715,
      "v": 49
    },
    {
      "midi": 55,
      "hit": false,
      "t": 123010.41666666673,
      "d": 205.72916666665697,
      "v": 22
    },
    {
      "midi": 74,
      "hit": false,
      "t": 123458.3333333334,
      "d": 473.95833333334303,
      "v": 76
    },
    {
      "midi": 65,
      "hit": false,
      "t": 123484.37500000007,
      "d": 171.875,
      "v": 50
    },
    {
      "midi": 55,
      "hit": false,
      "t": 123489.5833333334,
      "d": 205.72916666667152,
      "v": 40
    },
    {
      "midi": 72,
      "hit": false,
      "t": 123937.50000000007,
      "d": 127.60416666667152,
      "v": 84
    },
    {
      "midi": 48,
      "hit": false,
      "t": 123984.37500000007,
      "d": 468.75,
      "v": 32
    },
    {
      "midi": 74,
      "hit": false,
      "t": 124098.95833333342,
      "d": 216.14583333332848,
      "v": 79
    },
    {
      "midi": 76,
      "hit": false,
      "t": 124299.47916666674,
      "d": 1656.2499999999854,
      "v": 63
    },
    {
      "midi": 64,
      "hit": false,
      "t": 124723.9583333334,
      "d": 369.7916666666715,
      "v": 37
    },
    {
      "midi": 55,
      "hit": false,
      "t": 124765.62500000007,
      "d": 364.5833333333285,
      "v": 28
    },
    {
      "midi": 62,
      "hit": false,
      "t": 125552.0833333334,
      "d": 369.79166666665697,
      "v": 26
    },
    {
      "midi": 56,
      "hit": false,
      "t": 125565.10416666673,
      "d": 442.7083333333285,
      "v": 30
    },
    {
      "midi": 52,
      "hit": false,
      "t": 125578.12500000006,
      "d": 398.4375,
      "v": 18
    },
    {
      "midi": 64,
      "hit": false,
      "t": 126341.14583333339,
      "d": 125,
      "v": 36
    },
    {
      "midi": 76,
      "hit": false,
      "t": 126557.29166666672,
      "d": 192.70833333332848,
      "v": 54
    },
    {
      "midi": 33,
      "hit": false,
      "t": 126562.50000000004,
      "d": 140.625,
      "v": 19
    },
    {
      "midi": 76,
      "hit": false,
      "t": 127070.31250000004,
      "d": 85.9375,
      "v": 50
    },
    {
      "midi": 60,
      "hit": false,
      "t": 127174.47916666672,
      "d": 333.3333333333285,
      "v": 39
    },
    {
      "midi": 72,
      "hit": false,
      "t": 127197.91666666672,
      "d": 382.8125,
      "v": 46
    },
    {
      "midi": 52,
      "hit": false,
      "t": 127226.56250000004,
      "d": 195.3125,
      "v": 27
    },
    {
      "midi": 75,
      "hit": false,
      "t": 127731.77083333339,
      "d": 49.47916666667152,
      "v": 22
    },
    {
      "midi": 59,
      "hit": false,
      "t": 127739.58333333339,
      "d": 278.6458333333576,
      "v": 26
    },
    {
      "midi": 52,
      "hit": false,
      "t": 127739.58333333339,
      "d": 338.5416666667006,
      "v": 40
    },
    {
      "midi": 76,
      "hit": false,
      "t": 127789.06250000006,
      "d": 49.47916666667152,
      "v": 53
    },
    {
      "midi": 75,
      "hit": false,
      "t": 127856.7708333334,
      "d": 57.29166666667152,
      "v": 47
    },
    {
      "midi": 76,
      "hit": false,
      "t": 127919.2708333334,
      "d": 65.10416666667152,
      "v": 68
    },
    {
      "midi": 75,
      "hit": false,
      "t": 128018.22916666674,
      "d": 57.29166666667152,
      "v": 47
    },
    {
      "midi": 74,
      "hit": false,
      "t": 128083.33333333342,
      "d": 59.89583333332848,
      "v": 57
    },
    {
      "midi": 75,
      "hit": false,
      "t": 128158.85416666674,
      "d": 85.9375,
      "v": 51
    },
    {
      "midi": 45,
      "hit": false,
      "t": 128268.22916666674,
      "d": 135.41666666667152,
      "v": 41
    },
    {
      "midi": 76,
      "hit": false,
      "t": 128270.83333333342,
      "d": 98.95833333332848,
      "v": 60
    },
    {
      "midi": 76,
      "hit": false,
      "t": 128666.66666666674,
      "d": 62.5,
      "v": 41
    },
    {
      "midi": 60,
      "hit": false,
      "t": 128778.64583333342,
      "d": 153.64583333334303,
      "v": 19
    },
    {
      "midi": 69,
      "hit": false,
      "t": 128781.25000000009,
      "d": 536.458333333343,
      "v": 50
    },
    {
      "midi": 52,
      "hit": false,
      "t": 128820.31250000009,
      "d": 127.60416666667152,
      "v": 18
    },
    {
      "midi": 72,
      "hit": false,
      "t": 129291.66666666676,
      "d": 463.5416666666715,
      "v": 56
    },
    {
      "midi": 60,
      "hit": false,
      "t": 129333.33333333343,
      "d": 161.45833333334303,
      "v": 27
    },
    {
      "midi": 52,
      "hit": false,
      "t": 129343.7500000001,
      "d": 242.1875,
      "v": 32
    },
    {
      "midi": 71,
      "hit": false,
      "t": 129760.41666666676,
      "d": 70.3125,
      "v": 52
    },
    {
      "midi": 45,
      "hit": false,
      "t": 129802.08333333343,
      "d": 85.9375,
      "v": 44
    },
    {
      "midi": 71,
      "hit": false,
      "t": 130125.00000000009,
      "d": 62.5,
      "v": 55
    },
    {
      "midi": 66,
      "hit": false,
      "t": 130223.95833333342,
      "d": 296.87499999998545,
      "v": 59
    },
    {
      "midi": 62,
      "hit": false,
      "t": 130239.58333333342,
      "d": 208.33333333332848,
      "v": 35
    },
    {
      "midi": 52,
      "hit": false,
      "t": 130255.20833333342,
      "d": 197.91666666665697,
      "v": 36
    },
    {
      "midi": 62,
      "hit": false,
      "t": 130648.43750000007,
      "d": 208.33333333331393,
      "v": 49
    },
    {
      "midi": 52,
      "hit": false,
      "t": 130658.85416666674,
      "d": 257.8124999999709,
      "v": 39
    },
    {
      "midi": 68,
      "hit": false,
      "t": 130687.50000000007,
      "d": 52.08333333332848,
      "v": 73
    },
    {
      "midi": 69,
      "hit": false,
      "t": 130768.22916666673,
      "d": 44.27083333332848,
      "v": 67
    },
    {
      "midi": 68,
      "hit": false,
      "t": 130812.50000000006,
      "d": 83.33333333332848,
      "v": 79
    },
    {
      "midi": 69,
      "hit": false,
      "t": 130903.64583333339,
      "d": 65.10416666665697,
      "v": 61
    },
    {
      "midi": 68,
      "hit": false,
      "t": 130979.16666666672,
      "d": 49.47916666667152,
      "v": 79
    },
    {
      "midi": 66,
      "hit": false,
      "t": 131041.66666666672,
      "d": 114.58333333334303,
      "v": 66
    },
    {
      "midi": 68,
      "hit": false,
      "t": 131125.00000000006,
      "d": 85.9375,
      "v": 58
    },
    {
      "midi": 45,
      "hit": false,
      "t": 131182.29166666672,
      "d": 216.14583333334303,
      "v": 52
    },
    {
      "midi": 69,
      "hit": false,
      "t": 131205.72916666672,
      "d": 158.85416666668607,
      "v": 76
    },
    {
      "midi": 64,
      "hit": false,
      "t": 131578.12500000006,
      "d": 54.6875,
      "v": 71
    },
    {
      "midi": 60,
      "hit": false,
      "t": 131658.85416666672,
      "d": 200.52083333331393,
      "v": 29
    },
    {
      "midi": 69,
      "hit": false,
      "t": 131669.27083333337,
      "d": 127.60416666665697,
      "v": 68
    },
    {
      "midi": 52,
      "hit": false,
      "t": 131677.08333333337,
      "d": 184.89583333331393,
      "v": 43
    },
    {
      "midi": 64,
      "hit": false,
      "t": 132023.43750000003,
      "d": 54.6875,
      "v": 67
    },
    {
      "midi": 60,
      "hit": false,
      "t": 132096.3541666667,
      "d": 200.52083333334303,
      "v": 46
    },
    {
      "midi": 69,
      "hit": false,
      "t": 132114.58333333334,
      "d": 72.91666666668607,
      "v": 67
    },
    {
      "midi": 52,
      "hit": false,
      "t": 132119.7916666667,
      "d": 187.5,
      "v": 32
    },
    {
      "midi": 72,
      "hit": false,
      "t": 132450.52083333334,
      "d": 80.72916666665697,
      "v": 55
    },
    {
      "midi": 45,
      "hit": false,
      "t": 132565.10416666666,
      "d": 184.89583333331393,
      "v": 47
    },
    {
      "midi": 76,
      "hit": false,
      "t": 132567.7083333333,
      "d": 85.9375,
      "v": 54
    },
    {
      "midi": 76,
      "hit": false,
      "t": 132984.37499999997,
      "d": 78.125,
      "v": 60
    },
    {
      "midi": 72,
      "hit": false,
      "t": 133078.12499999997,
      "d": 393.22916666665697,
      "v": 68
    },
    {
      "midi": 60,
      "hit": false,
      "t": 133080.72916666663,
      "d": 312.5,
      "v": 30
    },
    {
      "midi": 52,
      "hit": false,
      "t": 133138.02083333328,
      "d": 276.04166666668607,
      "v": 26
    },
    {
      "midi": 59,
      "hit": false,
      "t": 133614.58333333328,
      "d": 367.1874999999418,
      "v": 41
    },
    {
      "midi": 52,
      "hit": false,
      "t": 133645.83333333328,
      "d": 427.0833333332557,
      "v": 35
    },
    {
      "midi": 75,
      "hit": false,
      "t": 133687.49999999994,
      "d": 52.083333333343035,
      "v": 55
    },
    {
      "midi": 76,
      "hit": false,
      "t": 133757.81249999994,
      "d": 44.27083333331393,
      "v": 74
    },
    {
      "midi": 75,
      "hit": false,
      "t": 133812.4999999999,
      "d": 57.291666666656965,
      "v": 65
    },
    {
      "midi": 76,
      "hit": false,
      "t": 133895.83333333323,
      "d": 104.16666666665697,
      "v": 71
    },
    {
      "midi": 75,
      "hit": false,
      "t": 133976.56249999988,
      "d": 104.16666666665697,
      "v": 73
    },
    {
      "midi": 74,
      "hit": false,
      "t": 134088.54166666654,
      "d": 49.479166666656965,
      "v": 68
    },
    {
      "midi": 75,
      "hit": false,
      "t": 134161.4583333332,
      "d": 78.125,
      "v": 76
    },
    {
      "midi": 45,
      "hit": false,
      "t": 134239.5833333332,
      "d": 156.25,
      "v": 40
    },
    {
      "midi": 76,
      "hit": false,
      "t": 134270.8333333332,
      "d": 117.1875,
      "v": 73
    },
    {
      "midi": 76,
      "hit": false,
      "t": 134671.87499999985,
      "d": 59.895833333343035,
      "v": 51
    },
    {
      "midi": 60,
      "hit": false,
      "t": 134749.99999999985,
      "d": 221.35416666668607,
      "v": 30
    },
    {
      "midi": 69,
      "hit": false,
      "t": 134781.24999999985,
      "d": 557.2916666666861,
      "v": 54
    },
    {
      "midi": 52,
      "hit": false,
      "t": 134796.87499999985,
      "d": 85.9375,
      "v": 37
    },
    {
      "midi": 72,
      "hit": false,
      "t": 135302.0833333332,
      "d": 489.58333333334303,
      "v": 42
    },
    {
      "midi": 60,
      "hit": false,
      "t": 135322.91666666654,
      "d": 234.375,
      "v": 33
    },
    {
      "midi": 52,
      "hit": false,
      "t": 135343.74999999988,
      "d": 236.97916666665697,
      "v": 30
    },
    {
      "midi": 71,
      "hit": false,
      "t": 135791.66666666654,
      "d": 158.85416666668607,
      "v": 35
    },
    {
      "midi": 45,
      "hit": false,
      "t": 135830.72916666654,
      "d": 106.77083333334303,
      "v": 36
    },
    {
      "midi": 71,
      "hit": false,
      "t": 136216.14583333323,
      "d": 85.9375,
      "v": 42
    },
    {
      "midi": 62,
      "hit": false,
      "t": 136322.91666666657,
      "d": 276.04166666668607,
      "v": 35
    },
    {
      "midi": 66,
      "hit": false,
      "t": 136343.7499999999,
      "d": 375.0000000000291,
      "v": 51
    },
    {
      "midi": 52,
      "hit": false,
      "t": 136364.58333333326,
      "d": 247.39583333334303,
      "v": 32
    },
    {
      "midi": 68,
      "hit": false,
      "t": 136999.99999999994,
      "d": 72.91666666665697,
      "v": 50
    },
    {
      "midi": 62,
      "hit": false,
      "t": 137010.4166666666,
      "d": 489.58333333331393,
      "v": 23
    },
    {
      "midi": 52,
      "hit": false,
      "t": 137023.43749999994,
      "d": 549.479166666657,
      "v": 30
    },
    {
      "midi": 69,
      "hit": false,
      "t": 137114.58333333326,
      "d": 62.5,
      "v": 45
    },
    {
      "midi": 68,
      "hit": false,
      "t": 137177.08333333326,
      "d": 72.91666666665697,
      "v": 38
    },
    {
      "midi": 69,
      "hit": false,
      "t": 137270.83333333326,
      "d": 62.5,
      "v": 45
    },
    {
      "midi": 68,
      "hit": false,
      "t": 137348.95833333326,
      "d": 62.5,
      "v": 54
    },
    {
      "midi": 69,
      "hit": false,
      "t": 137445.3124999999,
      "d": 91.14583333334303,
      "v": 36
    },
    {
      "midi": 68,
      "hit": false,
      "t": 137531.2499999999,
      "d": 101.5625000000291,
      "v": 42
    },
    {
      "midi": 66,
      "hit": false,
      "t": 137664.06249999994,
      "d": 125,
      "v": 55
    },
    {
      "midi": 68,
      "hit": false,
      "t": 137817.70833333328,
      "d": 177.08333333334303,
      "v": 45
    },
    {
      "midi": 45,
      "hit": false,
      "t": 138033.85416666663,
      "d": 994.791666666657,
      "v": 30
    },
    {
      "midi": 69,
      "hit": false,
      "t": 138036.45833333328,
      "d": 416.66666666665697,
      "v": 48
    },
    {
      "midi": 81,
      "hit": false,
      "t": 138466.14583333328,
      "d": 1502.604166666657,
      "v": 46
    },
    {
      "midi": 60,
      "hit": false,
      "t": 139453.12499999994,
      "d": 234.375,
      "v": 18
    },
    {
      "midi": 52,
      "hit": false,
      "t": 139473.95833333328,
      "d": 101.5625,
      "v": 28
    }
  ]
}