{
  "jsonPath": "Unknown/Unknown/Eros Ramazzotti  Anastacia/i-belong-to-you-il-ritmo-della-passione.json",
  "path": "Unknown\\Unknown\\Eros Ramazzotti  Anastacia\\I Belong To You (Il Ritmo Della Passione).mid",
  "name": "I Belong To You (Il Ritmo Della Passione)",
  "difficulty": "Advanced",
  "bpm": 63.000129150264755,
  "notes": [
    {
      "midi": 66,
      "hit": false,
      "t": 5257.388000000001,
      "d": 780.3935312499998,
      "v": 101
    },
    {
      "midi": 59,
      "hit": false,
      "t": 5257.388000000001,
      "d": 869.3857760416668,
      "v": 92
    },
    {
      "midi": 35,
      "hit": false,
      "t": 5257.388000000001,
      "d": 5223.160213541667,
      "v": 73
    },
    {
      "midi": 47,
      "hit": false,
      "t": 5914.561500000001,
      "d": 4518.0678125,
      "v": 59
    },
    {
      "midi": 59,
      "hit": false,
      "t": 6571.735000000001,
      "d": 1314.3469999999998,
      "v": 80
    },
    {
      "midi": 66,
      "hit": false,
      "t": 6571.735000000001,
      "d": 1314.3469999999998,
      "v": 80
    },
    {
      "midi": 66,
      "hit": false,
      "t": 7886.082,
      "d": 883.0768906249996,
      "v": 73
    },
    {
      "midi": 59,
      "hit": false,
      "t": 7886.082,
      "d": 1026.8335937499996,
      "v": 73
    },
    {
      "midi": 59,
      "hit": false,
      "t": 9200.429,
      "d": 1280.1192135416677,
      "v": 71
    },
    {
      "midi": 66,
      "hit": false,
      "t": 9200.429,
      "d": 1280.1192135416677,
      "v": 71
    },
    {
      "midi": 66,
      "hit": false,
      "t": 10514.776000000002,
      "d": 581.8723697916666,
      "v": 85
    },
    {
      "midi": 63,
      "hit": false,
      "t": 10514.776000000002,
      "d": 609.2545989583341,
      "v": 82
    },
    {
      "midi": 59,
      "hit": false,
      "t": 10514.776000000002,
      "d": 643.482385416668,
      "v": 94
    },
    {
      "midi": 35,
      "hit": false,
      "t": 10514.776000000002,
      "d": 4668.670072916666,
      "v": 82
    },
    {
      "midi": 47,
      "hit": false,
      "t": 11171.949500000002,
      "d": 2368.562822916667,
      "v": 59
    },
    {
      "midi": 66,
      "hit": false,
      "t": 11829.123000000003,
      "d": 643.4823854166661,
      "v": 98
    },
    {
      "midi": 63,
      "hit": false,
      "t": 11829.123000000003,
      "d": 664.0190572916654,
      "v": 98
    },
    {
      "midi": 59,
      "hit": false,
      "t": 11829.123000000003,
      "d": 691.4012864583328,
      "v": 99
    },
    {
      "midi": 66,
      "hit": false,
      "t": 13143.470000000003,
      "d": 691.4012864583328,
      "v": 105
    },
    {
      "midi": 63,
      "hit": false,
      "t": 13143.470000000003,
      "d": 698.2468437499992,
      "v": 101
    },
    {
      "midi": 59,
      "hit": false,
      "t": 13143.470000000003,
      "d": 718.7835156249985,
      "v": 99
    },
    {
      "midi": 47,
      "hit": false,
      "t": 13800.643500000002,
      "d": 1170.5902968749997,
      "v": 59
    },
    {
      "midi": 66,
      "hit": false,
      "t": 14457.817000000001,
      "d": 349.1234218749996,
      "v": 105
    },
    {
      "midi": 63,
      "hit": false,
      "t": 14457.817000000001,
      "d": 403.8878802083327,
      "v": 105
    },
    {
      "midi": 59,
      "hit": false,
      "t": 14457.817000000001,
      "d": 438.1156666666666,
      "v": 99
    },
    {
      "midi": 66,
      "hit": false,
      "t": 15772.164,
      "d": 622.9457135416669,
      "v": 87
    },
    {
      "midi": 59,
      "hit": false,
      "t": 15772.164,
      "d": 677.7101718750018,
      "v": 94
    },
    {
      "midi": 62,
      "hit": false,
      "t": 15772.164,
      "d": 691.4012864583347,
      "v": 99
    },
    {
      "midi": 31,
      "hit": false,
      "t": 15772.164,
      "d": 4689.206744791667,
      "v": 73
    },
    {
      "midi": 43,
      "hit": false,
      "t": 16429.3375,
      "d": 903.6135625000024,
      "v": 59
    },
    {
      "midi": 66,
      "hit": false,
      "t": 17086.511000000002,
      "d": 739.3201875000013,
      "v": 94
    },
    {
      "midi": 59,
      "hit": false,
      "t": 17086.511000000002,
      "d": 766.702416666667,
      "v": 103
    },
    {
      "midi": 62,
      "hit": false,
      "t": 17086.511000000002,
      "d": 780.3935312499998,
      "v": 103
    },
    {
      "midi": 43,
      "hit": false,
      "t": 17743.684500000003,
      "d": 937.8413489583327,
      "v": 59
    },
    {
      "midi": 66,
      "hit": false,
      "t": 18400.858000000004,
      "d": 732.4746302083295,
      "v": 101
    },
    {
      "midi": 59,
      "hit": false,
      "t": 18400.858000000004,
      "d": 807.7757604166618,
      "v": 105
    },
    {
      "midi": 62,
      "hit": false,
      "t": 18400.858000000004,
      "d": 814.62131770833,
      "v": 103
    },
    {
      "midi": 43,
      "hit": false,
      "t": 19058.0315,
      "d": 1013.1424791666686,
      "v": 59
    },
    {
      "midi": 66,
      "hit": false,
      "t": 19715.205,
      "d": 684.5557291666664,
      "v": 109
    },
    {
      "midi": 59,
      "hit": false,
      "t": 19715.205,
      "d": 705.0924010416675,
      "v": 101
    },
    {
      "midi": 62,
      "hit": false,
      "t": 19715.205,
      "d": 732.4746302083331,
      "v": 105
    },
    {
      "midi": 43,
      "hit": false,
      "t": 20372.378500000003,
      "d": 561.3356979166638,
      "v": 59
    },
    {
      "midi": 66,
      "hit": false,
      "t": 21029.552,
      "d": 616.1001562500023,
      "v": 101
    },
    {
      "midi": 63,
      "hit": false,
      "t": 21029.552,
      "d": 629.7912708333351,
      "v": 101
    },
    {
      "midi": 59,
      "hit": false,
      "t": 21029.552,
      "d": 650.3279427083362,
      "v": 105
    },
    {
      "midi": 35,
      "hit": false,
      "t": 21029.552,
      "d": 4552.295598958339,
      "v": 82
    },
    {
      "midi": 47,
      "hit": false,
      "t": 21686.725500000004,
      "d": 1033.679151041666,
      "v": 64
    },
    {
      "midi": 63,
      "hit": false,
      "t": 22343.899000000005,
      "d": 602.4090416666659,
      "v": 98
    },
    {
      "midi": 66,
      "hit": false,
      "t": 22343.899000000005,
      "d": 616.1001562499987,
      "v": 101
    },
    {
      "midi": 59,
      "hit": false,
      "t": 22343.899000000005,
      "d": 711.9379583333321,
      "v": 94
    },
    {
      "midi": 47,
      "hit": false,
      "t": 23001.072500000002,
      "d": 1013.1424791666686,
      "v": 68
    },
    {
      "midi": 66,
      "hit": false,
      "t": 23658.246000000003,
      "d": 616.1001562500023,
      "v": 92
    },
    {
      "midi": 63,
      "hit": false,
      "t": 23658.246000000003,
      "d": 629.7912708333351,
      "v": 92
    },
    {
      "midi": 59,
      "hit": false,
      "t": 23658.246000000003,
      "d": 664.019057291669,
      "v": 94
    },
    {
      "midi": 47,
      "hit": false,
      "t": 24315.419500000004,
      "d": 944.6869062500009,
      "v": 67
    },
    {
      "midi": 59,
      "hit": false,
      "t": 24972.593000000004,
      "d": 609.2545989583341,
      "v": 103
    },
    {
      "midi": 66,
      "hit": false,
      "t": 24972.593000000004,
      "d": 609.2545989583341,
      "v": 94
    },
    {
      "midi": 63,
      "hit": false,
      "t": 24972.593000000004,
      "d": 616.1001562500023,
      "v": 101
    },
    {
      "midi": 66,
      "hit": false,
      "t": 26286.940000000006,
      "d": 629.7912708333351,
      "v": 98
    },
    {
      "midi": 59,
      "hit": false,
      "t": 26286.940000000006,
      "d": 684.5557291666664,
      "v": 97
    },
    {
      "midi": 62,
      "hit": false,
      "t": 26286.940000000006,
      "d": 698.2468437499992,
      "v": 103
    },
    {
      "midi": 31,
      "hit": false,
      "t": 26286.940000000006,
      "d": 4613.905614583335,
      "v": 69
    },
    {
      "midi": 43,
      "hit": false,
      "t": 26944.113500000007,
      "d": 1095.2891666666656,
      "v": 65
    },
    {
      "midi": 66,
      "hit": false,
      "t": 27601.287000000004,
      "d": 691.4012864583347,
      "v": 92
    },
    {
      "midi": 59,
      "hit": false,
      "t": 27601.287000000004,
      "d": 739.3201875000013,
      "v": 97
    },
    {
      "midi": 62,
      "hit": false,
      "t": 27601.287000000004,
      "d": 739.3201875000013,
      "v": 97
    },
    {
      "midi": 43,
      "hit": false,
      "t": 28258.460500000005,
      "d": 1054.215822916667,
      "v": 59
    },
    {
      "midi": 66,
      "hit": false,
      "t": 28915.634000000005,
      "d": 705.0924010416675,
      "v": 98
    },
    {
      "midi": 59,
      "hit": false,
      "t": 28915.634000000005,
      "d": 773.5479739583352,
      "v": 99
    },
    {
      "midi": 62,
      "hit": false,
      "t": 28915.634000000005,
      "d": 773.5479739583352,
      "v": 103
    },
    {
      "midi": 43,
      "hit": false,
      "t": 29572.807500000006,
      "d": 896.7680052083342,
      "v": 59
    },
    {
      "midi": 66,
      "hit": false,
      "t": 30229.981000000007,
      "d": 431.2701093750002,
      "v": 101
    },
    {
      "midi": 62,
      "hit": false,
      "t": 30229.981000000007,
      "d": 438.1156666666684,
      "v": 103
    },
    {
      "midi": 59,
      "hit": false,
      "t": 30229.981000000007,
      "d": 513.4167968750007,
      "v": 101
    },
    {
      "midi": 43,
      "hit": false,
      "t": 30887.154500000008,
      "d": 568.181255208332,
      "v": 68
    },
    {
      "midi": 64,
      "hit": false,
      "t": 31544.32800000001,
      "d": 636.6368281249997,
      "v": 109
    },
    {
      "midi": 61,
      "hit": false,
      "t": 31544.32800000001,
      "d": 670.8646145833336,
      "v": 101
    },
    {
      "midi": 57,
      "hit": false,
      "t": 31544.32800000001,
      "d": 677.7101718750018,
      "v": 101
    },
    {
      "midi": 33,
      "hit": false,
      "t": 31544.32800000001,
      "d": 4360.61999479169,
      "v": 90
    },
    {
      "midi": 45,
      "hit": false,
      "t": 32201.50150000001,
      "d": 917.3046770833353,
      "v": 61
    },
    {
      "midi": 64,
      "hit": false,
      "t": 32858.67500000001,
      "d": 636.6368281250034,
      "v": 105
    },
    {
      "midi": 57,
      "hit": false,
      "t": 32858.67500000001,
      "d": 650.3279427083398,
      "v": 101
    },
    {
      "midi": 61,
      "hit": false,
      "t": 32858.67500000001,
      "d": 677.7101718750055,
      "v": 98
    },
    {
      "midi": 45,
      "hit": false,
      "t": 33515.848500000015,
      "d": 889.9224479166733,
      "v": 60
    },
    {
      "midi": 64,
      "hit": false,
      "t": 34173.02200000002,
      "d": 657.1735000000044,
      "v": 99
    },
    {
      "midi": 57,
      "hit": false,
      "t": 34173.02200000002,
      "d": 698.2468437500065,
      "v": 101
    },
    {
      "midi": 61,
      "hit": false,
      "t": 34173.02200000002,
      "d": 718.7835156250076,
      "v": 92
    },
    {
      "midi": 45,
      "hit": false,
      "t": 34830.19550000002,
      "d": 1061.061380208339,
      "v": 62
    },
    {
      "midi": 64,
      "hit": false,
      "t": 35487.36900000003,
      "d": 657.1735000000044,
      "v": 103
    },
    {
      "midi": 57,
      "hit": false,
      "t": 35487.36900000003,
      "d": 684.5557291666701,
      "v": 99
    },
    {
      "midi": 61,
      "hit": false,
      "t": 35487.36900000003,
      "d": 725.6290729166722,
      "v": 98
    },
    {
      "midi": 33,
      "hit": false,
      "t": 36144.54250000003,
      "d": 75.30113020833232,
      "v": 74
    },
    {
      "midi": 64,
      "hit": false,
      "t": 36801.71600000003,
      "d": 527.1079114583335,
      "v": 101
    },
    {
      "midi": 56,
      "hit": false,
      "t": 36801.71600000003,
      "d": 602.4090416666659,
      "v": 98
    },
    {
      "midi": 59,
      "hit": false,
      "t": 36801.71600000003,
      "d": 629.7912708333315,
      "v": 99
    },
    {
      "midi": 28,
      "hit": false,
      "t": 36801.71600000003,
      "d": 4524.913369791662,
      "v": 88
    },
    {
      "midi": 40,
      "hit": false,
      "t": 37458.88950000003,
      "d": 2313.79836458333,
      "v": 59
    },
    {
      "midi": 64,
      "hit": false,
      "t": 38116.063000000024,
      "d": 362.81453645833244,
      "v": 101
    },
    {
      "midi": 56,
      "hit": false,
      "t": 38116.063000000024,
      "d": 403.88788020833454,
      "v": 94
    },
    {
      "midi": 59,
      "hit": false,
      "t": 38116.063000000024,
      "d": 410.7334374999991,
      "v": 92
    },
    {
      "midi": 64,
      "hit": false,
      "t": 39430.410000000025,
      "d": 554.4901406249992,
      "v": 105
    },
    {
      "midi": 56,
      "hit": false,
      "t": 39430.410000000025,
      "d": 602.4090416666659,
      "v": 105
    },
    {
      "midi": 59,
      "hit": false,
      "t": 39430.410000000025,
      "d": 622.9457135416669,
      "v": 101
    },
    {
      "midi": 40,
      "hit": false,
      "t": 40087.58350000002,
      "d": 903.6135624999952,
      "v": 70
    },
    {
      "midi": 59,
      "hit": false,
      "t": 40744.75700000002,
      "d": 451.8067812500012,
      "v": 99
    },
    {
      "midi": 56,
      "hit": false,
      "t": 40744.75700000002,
      "d": 458.6523385416658,
      "v": 105
    },
    {
      "midi": 64,
      "hit": false,
      "t": 40744.75700000002,
      "d": 472.34345312500227,
      "v": 103
    },
    {
      "midi": 40,
      "hit": false,
      "t": 41401.930500000024,
      "d": 95.83780208333337,
      "v": 64
    },
    {
      "midi": 63,
      "hit": false,
      "t": 42059.10400000002,
      "d": 698.2468437499992,
      "v": 98
    },
    {
      "midi": 66,
      "hit": false,
      "t": 42059.10400000002,
      "d": 698.2468437499992,
      "v": 101
    },
    {
      "midi": 59,
      "hit": false,
      "t": 42059.10400000002,
      "d": 705.0924010416638,
      "v": 99
    },
    {
      "midi": 35,
      "hit": false,
      "t": 42059.10400000002,
      "d": 5257.388000000006,
      "v": 79
    },
    {
      "midi": 47,
      "hit": false,
      "t": 42716.27750000002,
      "d": 937.8413489583327,
      "v": 70
    },
    {
      "midi": 66,
      "hit": false,
      "t": 43373.451000000015,
      "d": 533.9534687500054,
      "v": 94
    },
    {
      "midi": 63,
      "hit": false,
      "t": 43373.451000000015,
      "d": 568.1812552083356,
      "v": 105
    },
    {
      "midi": 59,
      "hit": false,
      "t": 43373.451000000015,
      "d": 595.5634843750013,
      "v": 105
    },
    {
      "midi": 47,
      "hit": false,
      "t": 44030.62450000002,
      "d": 889.922447916666,
      "v": 62
    },
    {
      "midi": 66,
      "hit": false,
      "t": 44687.79800000002,
      "d": 643.482385416668,
      "v": 94
    },
    {
      "midi": 63,
      "hit": false,
      "t": 44687.79800000002,
      "d": 657.1735000000044,
      "v": 109
    },
    {
      "midi": 59,
      "hit": false,
      "t": 44687.79800000002,
      "d": 698.2468437500065,
      "v": 99
    },
    {
      "midi": 47,
      "hit": false,
      "t": 45344.97150000002,
      "d": 828.3124322916701,
      "v": 73
    },
    {
      "midi": 59,
      "hit": false,
      "t": 46002.145000000026,
      "d": 390.1967656249981,
      "v": 101
    },
    {
      "midi": 63,
      "hit": false,
      "t": 46002.145000000026,
      "d": 431.2701093750002,
      "v": 105
    },
    {
      "midi": 66,
      "hit": false,
      "t": 46002.145000000026,
      "d": 444.96122395833663,
      "v": 98
    },
    {
      "midi": 47,
      "hit": false,
      "t": 46659.31850000003,
      "d": 657.1734999999971,
      "v": 74
    },
    {
      "midi": 66,
      "hit": false,
      "t": 47316.49200000003,
      "d": 568.1812552083284,
      "v": 101
    },
    {
      "midi": 63,
      "hit": false,
      "t": 47316.49200000003,
      "d": 595.563484374994,
      "v": 92
    },
    {
      "midi": 59,
      "hit": false,
      "t": 47316.49200000003,
      "d": 609.2545989583305,
      "v": 99
    },
    {
      "midi": 35,
      "hit": false,
      "t": 47316.49200000003,
      "d": 4367.465552083333,
      "v": 88
    },
    {
      "midi": 47,
      "hit": false,
      "t": 47973.665500000025,
      "d": 848.8491041666639,
      "v": 82
    },
    {
      "midi": 66,
      "hit": false,
      "t": 48630.83900000002,
      "d": 616.1001562500023,
      "v": 101
    },
    {
      "midi": 63,
      "hit": false,
      "t": 48630.83900000002,
      "d": 629.7912708333388,
      "v": 98
    },
    {
      "midi": 59,
      "hit": false,
      "t": 48630.83900000002,
      "d": 677.7101718750055,
      "v": 103
    },
    {
      "midi": 47,
      "hit": false,
      "t": 49288.012500000026,
      "d": 978.9146927083348,
      "v": 81
    },
    {
      "midi": 63,
      "hit": false,
      "t": 49945.18600000003,
      "d": 684.5557291666628,
      "v": 98
    },
    {
      "midi": 66,
      "hit": false,
      "t": 49945.18600000003,
      "d": 691.4012864583274,
      "v": 109
    },
    {
      "midi": 59,
      "hit": false,
      "t": 49945.18600000003,
      "d": 746.1657447916587,
      "v": 101
    },
    {
      "midi": 47,
      "hit": false,
      "t": 50602.35950000003,
      "d": 1252.7369843749984,
      "v": 77
    },
    {
      "midi": 66,
      "hit": false,
      "t": 51259.533000000025,
      "d": 718.7835156250076,
      "v": 94
    },
    {
      "midi": 63,
      "hit": false,
      "t": 51259.533000000025,
      "d": 725.6290729166722,
      "v": 105
    },
    {
      "midi": 59,
      "hit": false,
      "t": 51259.533000000025,
      "d": 746.1657447916732,
      "v": 105
    },
    {
      "midi": 35,
      "hit": false,
      "t": 51916.70650000003,
      "d": 109.52891666666983,
      "v": 67
    },
    {
      "midi": 66,
      "hit": false,
      "t": 52573.880000000034,
      "d": 643.482385416668,
      "v": 109
    },
    {
      "midi": 59,
      "hit": false,
      "t": 52573.880000000034,
      "d": 705.0924010416711,
      "v": 103
    },
    {
      "midi": 62,
      "hit": false,
      "t": 52573.880000000034,
      "d": 711.9379583333357,
      "v": 105
    },
    {
      "midi": 31,
      "hit": false,
      "t": 52573.880000000034,
      "d": 4038.878802083338,
      "v": 92
    },
    {
      "midi": 43,
      "hit": false,
      "t": 53231.05350000004,
      "d": 978.9146927083275,
      "v": 68
    },
    {
      "midi": 66,
      "hit": false,
      "t": 53888.227000000035,
      "d": 670.8646145833336,
      "v": 109
    },
    {
      "midi": 59,
      "hit": false,
      "t": 53888.227000000035,
      "d": 739.3201875000013,
      "v": 103
    },
    {
      "midi": 62,
      "hit": false,
      "t": 53888.227000000035,
      "d": 746.1657447916659,
      "v": 105
    },
    {
      "midi": 43,
      "hit": false,
      "t": 54545.40050000003,
      "d": 1006.2969218750077,
      "v": 83
    },
    {
      "midi": 66,
      "hit": false,
      "t": 55202.57400000004,
      "d": 691.4012864583347,
      "v": 105
    },
    {
      "midi": 59,
      "hit": false,
      "t": 55202.57400000004,
      "d": 759.8568593750024,
      "v": 103
    },
    {
      "midi": 62,
      "hit": false,
      "t": 55202.57400000004,
      "d": 794.0846458333326,
      "v": 105
    },
    {
      "midi": 43,
      "hit": false,
      "t": 55859.74750000004,
      "d": 1273.2736562499922,
      "v": 59
    },
    {
      "midi": 66,
      "hit": false,
      "t": 56516.92100000004,
      "d": 581.8723697916648,
      "v": 105
    },
    {
      "midi": 59,
      "hit": false,
      "t": 56516.92100000004,
      "d": 609.2545989583305,
      "v": 103
    },
    {
      "midi": 62,
      "hit": false,
      "t": 56516.92100000004,
      "d": 616.100156249995,
      "v": 103
    },
    {
      "midi": 31,
      "hit": false,
      "t": 57174.094500000036,
      "d": 123.22003124999901,
      "v": 81
    },
    {
      "midi": 66,
      "hit": false,
      "t": 57831.26800000004,
      "d": 636.6368281249961,
      "v": 101
    },
    {
      "midi": 63,
      "hit": false,
      "t": 57831.26800000004,
      "d": 650.3279427083326,
      "v": 109
    },
    {
      "midi": 59,
      "hit": false,
      "t": 57831.26800000004,
      "d": 691.4012864583274,
      "v": 97
    },
    {
      "midi": 35,
      "hit": false,
      "t": 57831.26800000004,
      "d": 4326.3922083333455,
      "v": 94
    },
    {
      "midi": 47,
      "hit": false,
      "t": 58488.44150000004,
      "d": 889.922447916666,
      "v": 78
    },
    {
      "midi": 66,
      "hit": false,
      "t": 59145.615000000034,
      "d": 636.6368281250034,
      "v": 105
    },
    {
      "midi": 63,
      "hit": false,
      "t": 59145.615000000034,
      "d": 657.1735000000044,
      "v": 105
    },
    {
      "midi": 59,
      "hit": false,
      "t": 59145.615000000034,
      "d": 698.2468437500065,
      "v": 101
    },
    {
      "midi": 47,
      "hit": false,
      "t": 59802.78850000004,
      "d": 965.2235781250056,
      "v": 86
    },
    {
      "midi": 66,
      "hit": false,
      "t": 60459.96200000004,
      "d": 643.482385416668,
      "v": 109
    },
    {
      "midi": 63,
      "hit": false,
      "t": 60459.96200000004,
      "d": 670.8646145833409,
      "v": 109
    },
    {
      "midi": 59,
      "hit": false,
      "t": 60459.96200000004,
      "d": 711.937958333343,
      "v": 97
    },
    {
      "midi": 47,
      "hit": false,
      "t": 61117.13550000005,
      "d": 1266.4280989583349,
      "v": 78
    },
    {
      "midi": 59,
      "hit": false,
      "t": 61774.30900000005,
      "d": 636.6368281249961,
      "v": 105
    },
    {
      "midi": 66,
      "hit": false,
      "t": 61774.30900000005,
      "d": 643.4823854166607,
      "v": 98
    },
    {
      "midi": 63,
      "hit": false,
      "t": 61774.30900000005,
      "d": 650.3279427083253,
      "v": 109
    },
    {
      "midi": 35,
      "hit": false,
      "t": 62431.48250000004,
      "d": 123.22003124999901,
      "v": 77
    },
    {
      "midi": 66,
      "hit": false,
      "t": 63088.65600000004,
      "d": 629.7912708333315,
      "v": 109
    },
    {
      "midi": 62,
      "hit": false,
      "t": 63088.65600000004,
      "d": 677.7101718749982,
      "v": 105
    },
    {
      "midi": 59,
      "hit": false,
      "t": 63088.65600000004,
      "d": 698.2468437499992,
      "v": 101
    },
    {
      "midi": 31,
      "hit": false,
      "t": 63088.65600000004,
      "d": 4545.450041666663,
      "v": 81
    },
    {
      "midi": 43,
      "hit": false,
      "t": 63745.829500000036,
      "d": 965.2235781250056,
      "v": 67
    },
    {
      "midi": 66,
      "hit": false,
      "t": 64403.00300000004,
      "d": 664.019057291669,
      "v": 105
    },
    {
      "midi": 59,
      "hit": false,
      "t": 64403.00300000004,
      "d": 711.9379583333357,
      "v": 103
    },
    {
      "midi": 62,
      "hit": false,
      "t": 64403.00300000004,
      "d": 739.3201875000013,
      "v": 105
    },
    {
      "midi": 43,
      "hit": false,
      "t": 65060.176500000045,
      "d": 965.223578124991,
      "v": 71
    },
    {
      "midi": 66,
      "hit": false,
      "t": 65717.35000000003,
      "d": 753.0113020833378,
      "v": 105
    },
    {
      "midi": 59,
      "hit": false,
      "t": 65717.35000000003,
      "d": 787.239088541668,
      "v": 103
    },
    {
      "midi": 62,
      "hit": false,
      "t": 65717.35000000003,
      "d": 794.0846458333399,
      "v": 101
    },
    {
      "midi": 43,
      "hit": false,
      "t": 66374.52350000004,
      "d": 883.0768906250014,
      "v": 65
    },
    {
      "midi": 66,
      "hit": false,
      "t": 67031.69700000004,
      "d": 451.80678124999395,
      "v": 105
    },
    {
      "midi": 62,
      "hit": false,
      "t": 67031.69700000004,
      "d": 472.343453124995,
      "v": 105
    },
    {
      "midi": 59,
      "hit": false,
      "t": 67031.69700000004,
      "d": 533.9534687499981,
      "v": 103
    },
    {
      "midi": 43,
      "hit": false,
      "t": 67688.87050000003,
      "d": 540.79902604167,
      "v": 86
    },
    {
      "midi": 64,
      "hit": false,
      "t": 68346.04400000002,
      "d": 595.5634843750013,
      "v": 109
    },
    {
      "midi": 61,
      "hit": false,
      "t": 68346.04400000002,
      "d": 622.9457135416742,
      "v": 101
    },
    {
      "midi": 57,
      "hit": false,
      "t": 68346.04400000002,
      "d": 664.0190572916763,
      "v": 101
    },
    {
      "midi": 33,
      "hit": false,
      "t": 68346.04400000002,
      "d": 4504.376697916683,
      "v": 99
    },
    {
      "midi": 45,
      "hit": false,
      "t": 69003.21750000003,
      "d": 855.694661458343,
      "v": 88
    },
    {
      "midi": 64,
      "hit": false,
      "t": 69660.39100000003,
      "d": 609.254598958345,
      "v": 103
    },
    {
      "midi": 61,
      "hit": false,
      "t": 69660.39100000003,
      "d": 657.1735000000044,
      "v": 109
    },
    {
      "midi": 57,
      "hit": false,
      "t": 69660.39100000003,
      "d": 677.7101718750055,
      "v": 101
    },
    {
      "midi": 45,
      "hit": false,
      "t": 70317.56450000004,
      "d": 855.694661458343,
      "v": 86
    },
    {
      "midi": 64,
      "hit": false,
      "t": 70974.73800000004,
      "d": 609.254598958345,
      "v": 107
    },
    {
      "midi": 61,
      "hit": false,
      "t": 70974.73800000004,
      "d": 664.0190572916763,
      "v": 105
    },
    {
      "midi": 57,
      "hit": false,
      "t": 70974.73800000004,
      "d": 677.7101718750055,
      "v": 103
    },
    {
      "midi": 45,
      "hit": false,
      "t": 71631.91150000005,
      "d": 835.157989583342,
      "v": 73
    },
    {
      "midi": 57,
      "hit": false,
      "t": 72289.08500000005,
      "d": 417.5789947916637,
      "v": 103
    },
    {
      "midi": 61,
      "hit": false,
      "t": 72289.08500000005,
      "d": 465.4978958333231,
      "v": 109
    },
    {
      "midi": 64,
      "hit": false,
      "t": 72289.08500000005,
      "d": 492.88012499999604,
      "v": 99
    },
    {
      "midi": 45,
      "hit": false,
      "t": 72946.25850000004,
      "d": 513.4167968749971,
      "v": 86
    },
    {
      "midi": 63,
      "hit": false,
      "t": 73603.43200000003,
      "d": 575.0268125000002,
      "v": 105
    },
    {
      "midi": 66,
      "hit": false,
      "t": 73603.43200000003,
      "d": 595.5634843750013,
      "v": 98
    },
    {
      "midi": 59,
      "hit": false,
      "t": 73603.43200000003,
      "d": 657.1735000000044,
      "v": 97
    },
    {
      "midi": 35,
      "hit": false,
      "t": 73603.43200000003,
      "d": 4401.693338541663,
      "v": 90
    },
    {
      "midi": 47,
      "hit": false,
      "t": 74260.60550000003,
      "d": 862.5402187500003,
      "v": 81
    },
    {
      "midi": 66,
      "hit": false,
      "t": 74917.77900000004,
      "d": 547.6445833333273,
      "v": 109
    },
    {
      "midi": 63,
      "hit": false,
      "t": 74917.77900000004,
      "d": 575.0268125000002,
      "v": 109
    },
    {
      "midi": 59,
      "hit": false,
      "t": 74917.77900000004,
      "d": 670.8646145833336,
      "v": 103
    },
    {
      "midi": 47,
      "hit": false,
      "t": 75574.95250000004,
      "d": 876.2313333333295,
      "v": 86
    },
    {
      "midi": 66,
      "hit": false,
      "t": 76232.12600000003,
      "d": 479.18901041666686,
      "v": 105
    },
    {
      "midi": 63,
      "hit": false,
      "t": 76232.12600000003,
      "d": 513.4167968749971,
      "v": 94
    },
    {
      "midi": 59,
      "hit": false,
      "t": 76232.12600000003,
      "d": 568.1812552083284,
      "v": 103
    },
    {
      "midi": 47,
      "hit": false,
      "t": 76889.29950000002,
      "d": 1156.8991822916723,
      "v": 75
    },
    {
      "midi": 66,
      "hit": false,
      "t": 77546.47300000003,
      "d": 410.7334375000064,
      "v": 98
    },
    {
      "midi": 63,
      "hit": false,
      "t": 77546.47300000003,
      "d": 444.96122395833663,
      "v": 105
    },
    {
      "midi": 59,
      "hit": false,
      "t": 77546.47300000003,
      "d": 486.0345677083387,
      "v": 97
    },
    {
      "midi": 35,
      "hit": false,
      "t": 78203.64650000003,
      "d": 150.60226041666465,
      "v": 75
    },
    {
      "midi": 68,
      "hit": false,
      "t": 78860.82000000002,
      "d": 561.335697916671,
      "v": 92
    },
    {
      "midi": 63,
      "hit": false,
      "t": 78860.82000000002,
      "d": 581.8723697916721,
      "v": 105
    },
    {
      "midi": 59,
      "hit": false,
      "t": 78860.82000000002,
      "d": 629.7912708333315,
      "v": 103
    },
    {
      "midi": 32,
      "hit": false,
      "t": 78860.82000000002,
      "d": 4326.3922083333455,
      "v": 92
    },
    {
      "midi": 44,
      "hit": false,
      "t": 79517.99350000003,
      "d": 917.3046770833316,
      "v": 71
    },
    {
      "midi": 68,
      "hit": false,
      "t": 80175.16700000003,
      "d": 451.80678124999395,
      "v": 98
    },
    {
      "midi": 63,
      "hit": false,
      "t": 80175.16700000003,
      "d": 479.18901041666686,
      "v": 101
    },
    {
      "midi": 59,
      "hit": false,
      "t": 80175.16700000003,
      "d": 513.4167968749971,
      "v": 101
    },
    {
      "midi": 44,
      "hit": false,
      "t": 80832.34050000002,
      "d": 835.157989583342,
      "v": 73
    },
    {
      "midi": 68,
      "hit": false,
      "t": 81489.51400000002,
      "d": 575.0268125000002,
      "v": 98
    },
    {
      "midi": 63,
      "hit": false,
      "t": 81489.51400000002,
      "d": 581.8723697916721,
      "v": 101
    },
    {
      "midi": 59,
      "hit": false,
      "t": 81489.51400000002,
      "d": 602.4090416666731,
      "v": 99
    },
    {
      "midi": 44,
      "hit": false,
      "t": 82146.68750000003,
      "d": 1328.0381145833235,
      "v": 73
    },
    {
      "midi": 68,
      "hit": false,
      "t": 82803.86100000003,
      "d": 424.4245520833356,
      "v": 92
    },
    {
      "midi": 63,
      "hit": false,
      "t": 82803.86100000003,
      "d": 444.96122395833663,
      "v": 101
    },
    {
      "midi": 59,
      "hit": false,
      "t": 82803.86100000003,
      "d": 492.88012499999604,
      "v": 103
    },
    {
      "midi": 32,
      "hit": false,
      "t": 83461.03450000002,
      "d": 109.52891666666255,
      "v": 92
    },
    {
      "midi": 64,
      "hit": false,
      "t": 84118.20800000001,
      "d": 499.7256822916679,
      "v": 94
    },
    {
      "midi": 56,
      "hit": false,
      "t": 84118.20800000001,
      "d": 711.9379583333357,
      "v": 94
    },
    {
      "midi": 59,
      "hit": false,
      "t": 84118.20800000001,
      "d": 787.239088541668,
      "v": 90
    },
    {
      "midi": 28,
      "hit": false,
      "t": 84118.20800000001,
      "d": 4470.148911458324,
      "v": 97
    },
    {
      "midi": 40,
      "hit": false,
      "t": 84775.38150000002,
      "d": 862.5402187499858,
      "v": 77
    },
    {
      "midi": 59,
      "hit": false,
      "t": 85432.55500000001,
      "d": 465.4978958333231,
      "v": 99
    },
    {
      "midi": 64,
      "hit": false,
      "t": 85432.55500000001,
      "d": 499.72568229165336,
      "v": 94
    },
    {
      "midi": 56,
      "hit": false,
      "t": 85432.55500000001,
      "d": 540.7990260416555,
      "v": 101
    },
    {
      "midi": 40,
      "hit": false,
      "t": 86089.7285,
      "d": 814.6213177083409,
      "v": 90
    },
    {
      "midi": 59,
      "hit": false,
      "t": 86746.902,
      "d": 588.7179270833294,
      "v": 103
    },
    {
      "midi": 56,
      "hit": false,
      "t": 86746.902,
      "d": 616.1001562500023,
      "v": 109
    },
    {
      "midi": 52,
      "hit": false,
      "t": 86746.902,
      "d": 677.7101718750055,
      "v": 103
    },
    {
      "midi": 40,
      "hit": false,
      "t": 87404.0755,
      "d": 828.3124322916701,
      "v": 82
    },
    {
      "midi": 52,
      "hit": false,
      "t": 88061.24900000001,
      "d": 239.59450520832615,
      "v": 105
    },
    {
      "midi": 56,
      "hit": false,
      "t": 88061.24900000001,
      "d": 280.66784895832825,
      "v": 109
    },
    {
      "midi": 59,
      "hit": false,
      "t": 88061.24900000001,
      "d": 301.2045208333293,
      "v": 105
    },
    {
      "midi": 40,
      "hit": false,
      "t": 88718.4225,
      "d": 554.4901406249992,
      "v": 90
    },
    {
      "midi": 63,
      "hit": false,
      "t": 89375.596,
      "d": 657.1734999999899,
      "v": 101
    },
    {
      "midi": 59,
      "hit": false,
      "t": 89375.596,
      "d": 670.864614583319,
      "v": 99
    },
    {
      "midi": 66,
      "hit": false,
      "t": 89375.596,
      "d": 677.7101718749909,
      "v": 101
    },
    {
      "midi": 35,
      "hit": false,
      "t": 89375.596,
      "d": 4271.627749999985,
      "v": 69
    },
    {
      "midi": 47,
      "hit": false,
      "t": 90032.7695,
      "d": 883.0768906250014,
      "v": 81
    },
    {
      "midi": 66,
      "hit": false,
      "t": 90689.943,
      "d": 711.9379583333211,
      "v": 101
    },
    {
      "midi": 63,
      "hit": false,
      "t": 90689.943,
      "d": 718.783515624993,
      "v": 105
    },
    {
      "midi": 59,
      "hit": false,
      "t": 90689.943,
      "d": 739.3201874999941,
      "v": 99
    },
    {
      "midi": 47,
      "hit": false,
      "t": 91347.11649999999,
      "d": 883.0768906250014,
      "v": 86
    },
    {
      "midi": 66,
      "hit": false,
      "t": 92004.29,
      "d": 780.3935312499962,
      "v": 109
    },
    {
      "midi": 63,
      "hit": false,
      "t": 92004.29,
      "d": 807.7757604166691,
      "v": 105
    },
    {
      "midi": 59,
      "hit": false,
      "t": 92004.29,
      "d": 855.6946614583285,
      "v": 105
    },
    {
      "midi": 47,
      "hit": false,
      "t": 92661.46349999998,
      "d": 1019.9880364583369,
      "v": 81
    },
    {
      "midi": 59,
      "hit": false,
      "t": 93318.63699999999,
      "d": 1300.6558854166651,
      "v": 103
    },
    {
      "midi": 63,
      "hit": false,
      "t": 93318.63699999999,
      "d": 1300.6558854166651,
      "v": 109
    },
    {
      "midi": 66,
      "hit": false,
      "t": 93318.63699999999,
      "d": 1300.6558854166651,
      "v": 105
    },
    {
      "midi": 66,
      "hit": false,
      "t": 94632.98399999998,
      "d": 595.5634843750013,
      "v": 105
    },
    {
      "midi": 63,
      "hit": false,
      "t": 94632.98399999998,
      "d": 629.7912708333315,
      "v": 105
    },
    {
      "midi": 59,
      "hit": false,
      "t": 94632.98399999998,
      "d": 705.0924010416638,
      "v": 101
    },
    {
      "midi": 35,
      "hit": false,
      "t": 94632.98399999998,
      "d": 4374.31110937499,
      "v": 94
    },
    {
      "midi": 47,
      "hit": false,
      "t": 95290.15749999999,
      "d": 869.3857760416577,
      "v": 90
    },
    {
      "midi": 66,
      "hit": false,
      "t": 95947.33099999998,
      "d": 581.8723697916721,
      "v": 109
    },
    {
      "midi": 63,
      "hit": false,
      "t": 95947.33099999998,
      "d": 595.5634843750013,
      "v": 101
    },
    {
      "midi": 59,
      "hit": false,
      "t": 95947.33099999998,
      "d": 602.4090416666731,
      "v": 103
    },
    {
      "midi": 47,
      "hit": false,
      "t": 96604.50449999998,
      "d": 924.1502343750035,
      "v": 82
    },
    {
      "midi": 66,
      "hit": false,
      "t": 97261.67799999999,
      "d": 540.79902604167,
      "v": 101
    },
    {
      "midi": 63,
      "hit": false,
      "t": 97261.67799999999,
      "d": 575.0268125000002,
      "v": 105
    },
    {
      "midi": 59,
      "hit": false,
      "t": 97261.67799999999,
      "d": 670.8646145833336,
      "v": 103
    },
    {
      "midi": 47,
      "hit": false,
      "t": 97918.85149999999,
      "d": 1252.7369843749766,
      "v": 85
    },
    {
      "midi": 63,
      "hit": false,
      "t": 98576.02499999998,
      "d": 335.4323072916595,
      "v": 101
    },
    {
      "midi": 59,
      "hit": false,
      "t": 98576.02499999998,
      "d": 342.2778645833314,
      "v": 105
    },
    {
      "midi": 66,
      "hit": false,
      "t": 98576.02499999998,
      "d": 362.81453645833244,
      "v": 105
    },
    {
      "midi": 35,
      "hit": false,
      "t": 99233.19849999997,
      "d": 123.22003125000629,
      "v": 73
    },
    {
      "midi": 68,
      "hit": false,
      "t": 99890.37199999997,
      "d": 581.8723697916721,
      "v": 92
    },
    {
      "midi": 59,
      "hit": false,
      "t": 99890.37199999997,
      "d": 609.254598958345,
      "v": 103
    },
    {
      "midi": 63,
      "hit": false,
      "t": 99890.37199999997,
      "d": 616.1001562500169,
      "v": 109
    },
    {
      "midi": 32,
      "hit": false,
      "t": 99890.37199999997,
      "d": 4353.774437500004,
      "v": 87
    },
    {
      "midi": 44,
      "hit": false,
      "t": 100547.5455,
      "d": 842.0035468749993,
      "v": 67
    },
    {
      "midi": 68,
      "hit": false,
      "t": 101204.719,
      "d": 513.4167968749971,
      "v": 94
    },
    {
      "midi": 63,
      "hit": false,
      "t": 101204.719,
      "d": 561.3356979166565,
      "v": 105
    },
    {
      "midi": 59,
      "hit": false,
      "t": 101204.719,
      "d": 575.0268124999857,
      "v": 105
    },
    {
      "midi": 44,
      "hit": false,
      "t": 101861.89249999999,
      "d": 917.3046770833316,
      "v": 81
    },
    {
      "midi": 68,
      "hit": false,
      "t": 102519.06599999999,
      "d": 499.72568229165336,
      "v": 98
    },
    {
      "midi": 63,
      "hit": false,
      "t": 102519.06599999999,
      "d": 533.9534687499836,
      "v": 101
    },
    {
      "midi": 59,
      "hit": false,
      "t": 102519.06599999999,
      "d": 691.4012864583201,
      "v": 103
    },
    {
      "midi": 44,
      "hit": false,
      "t": 103176.23949999998,
      "d": 1328.0381145833235,
      "v": 73
    },
    {
      "midi": 68,
      "hit": false,
      "t": 103833.41299999997,
      "d": 383.3512083333335,
      "v": 92
    },
    {
      "midi": 63,
      "hit": false,
      "t": 103833.41299999997,
      "d": 403.88788020833454,
      "v": 101
    },
    {
      "midi": 59,
      "hit": false,
      "t": 103833.41299999997,
      "d": 444.96122395833663,
      "v": 97
    },
    {
      "midi": 32,
      "hit": false,
      "t": 104490.58649999998,
      "d": 102.68335937499069,
      "v": 85
    },
    {
      "midi": 66,
      "hit": false,
      "t": 105147.75999999997,
      "d": 533.9534687499981,
      "v": 90
    },
    {
      "midi": 56,
      "hit": false,
      "t": 105147.75999999997,
      "d": 814.6213177083409,
      "v": 94
    },
    {
      "midi": 59,
      "hit": false,
      "t": 105147.75999999997,
      "d": 821.4668750000128,
      "v": 97
    },
    {
      "midi": 28,
      "hit": false,
      "t": 105147.75999999997,
      "d": 4552.295598958357,
      "v": 95
    },
    {
      "midi": 40,
      "hit": false,
      "t": 105804.93349999997,
      "d": 889.9224479166733,
      "v": 71
    },
    {
      "midi": 66,
      "hit": false,
      "t": 106462.10699999997,
      "d": 136.91114583333547,
      "v": 101
    },
    {
      "midi": 59,
      "hit": false,
      "t": 106462.10699999997,
      "d": 479.18901041666686,
      "v": 99
    },
    {
      "midi": 56,
      "hit": false,
      "t": 106462.10699999997,
      "d": 533.9534687499981,
      "v": 98
    },
    {
      "midi": 40,
      "hit": false,
      "t": 107119.28049999998,
      "d": 848.8491041666712,
      "v": 85
    },
    {
      "midi": 59,
      "hit": false,
      "t": 107776.45399999998,
      "d": 677.7101718750055,
      "v": 103
    },
    {
      "midi": 56,
      "hit": false,
      "t": 107776.45399999998,
      "d": 746.1657447916659,
      "v": 109
    },
    {
      "midi": 52,
      "hit": false,
      "t": 107776.45399999998,
      "d": 787.239088541668,
      "v": 105
    },
    {
      "midi": 40,
      "hit": false,
      "t": 108433.62749999999,
      "d": 1115.8258385416702,
      "v": 71
    },
    {
      "midi": 52,
      "hit": false,
      "t": 109090.80099999998,
      "d": 157.44781770833652,
      "v": 103
    },
    {
      "midi": 56,
      "hit": false,
      "t": 109090.80099999998,
      "d": 184.83004687500943,
      "v": 109
    },
    {
      "midi": 59,
      "hit": false,
      "t": 109090.80099999998,
      "d": 205.36671875001048,
      "v": 103
    },
    {
      "midi": 40,
      "hit": false,
      "t": 109747.97449999998,
      "d": 123.22003125000629,
      "v": 77
    },
    {
      "midi": 63,
      "hit": false,
      "t": 110405.14799999999,
      "d": 588.7179270833294,
      "v": 101
    },
    {
      "midi": 66,
      "hit": false,
      "t": 110405.14799999999,
      "d": 602.4090416666586,
      "v": 94
    },
    {
      "midi": 59,
      "hit": false,
      "t": 110405.14799999999,
      "d": 732.4746302083222,
      "v": 101
    },
    {
      "midi": 35,
      "hit": false,
      "t": 110405.14799999999,
      "d": 4388.0022239583195,
      "v": 86
    },
    {
      "midi": 47,
      "hit": false,
      "t": 111062.32149999998,
      "d": 835.157989583342,
      "v": 73
    },
    {
      "midi": 66,
      "hit": false,
      "t": 111719.49499999998,
      "d": 595.5634843750013,
      "v": 75
    },
    {
      "midi": 63,
      "hit": false,
      "t": 111719.49499999998,
      "d": 636.6368281250034,
      "v": 73
    },
    {
      "midi": 59,
      "hit": false,
      "t": 111719.49499999998,
      "d": 650.3279427083326,
      "v": 83
    },
    {
      "midi": 47,
      "hit": false,
      "t": 112376.66849999999,
      "d": 862.5402187500003,
      "v": 64
    },
    {
      "midi": 66,
      "hit": false,
      "t": 113033.84199999999,
      "d": 602.4090416666586,
      "v": 68
    },
    {
      "midi": 63,
      "hit": false,
      "t": 113033.84199999999,
      "d": 622.9457135416596,
      "v": 67
    },
    {
      "midi": 59,
      "hit": false,
      "t": 113033.84199999999,
      "d": 670.864614583319,
      "v": 77
    },
    {
      "midi": 47,
      "hit": false,
      "t": 113691.01549999998,
      "d": 1286.964770833336,
      "v": 60
    },
    {
      "midi": 66,
      "hit": false,
      "t": 114348.18899999997,
      "d": 472.34345312500955,
      "v": 92
    },
    {
      "midi": 63,
      "hit": false,
      "t": 114348.18899999997,
      "d": 520.262354166669,
      "v": 94
    },
    {
      "midi": 59,
      "hit": false,
      "t": 114348.18899999997,
      "d": 547.6445833333419,
      "v": 90
    },
    {
      "midi": 35,
      "hit": false,
      "t": 115005.36249999999,
      "d": 102.68335937500524,
      "v": 73
    },
    {
      "midi": 63,
      "hit": false,
      "t": 115662.536,
      "d": 780.3935312499962,
      "v": 90
    },
    {
      "midi": 59,
      "hit": false,
      "t": 115662.536,
      "d": 842.0035468749993,
      "v": 97
    },
    {
      "midi": 57,
      "hit": false,
      "t": 115662.536,
      "d": 855.6946614583285,
      "v": 90
    },
    {
      "midi": 33,
      "hit": false,
      "t": 115662.536,
      "d": 2437.0183958333364,
      "v": 86
    },
    {
      "midi": 45,
      "hit": false,
      "t": 116319.70949999998,
      "d": 930.9957916666754,
      "v": 69
    },
    {
      "midi": 63,
      "hit": false,
      "t": 116976.88299999999,
      "d": 664.0190572916763,
      "v": 70
    },
    {
      "midi": 57,
      "hit": false,
      "t": 116976.88299999999,
      "d": 732.4746302083367,
      "v": 86
    },
    {
      "midi": 59,
      "hit": false,
      "t": 116976.88299999999,
      "d": 732.4746302083367,
      "v": 94
    },
    {
      "midi": 45,
      "hit": false,
      "t": 117634.05649999999,
      "d": 883.0768906250014,
      "v": 86
    },
    {
      "midi": 57,
      "hit": false,
      "t": 118291.23,
      "d": 869.3857760416722,
      "v": 90
    },
    {
      "midi": 61,
      "hit": false,
      "t": 118291.23,
      "d": 869.3857760416722,
      "v": 105
    },
    {
      "midi": 59,
      "hit": false,
      "t": 118291.23,
      "d": 889.9224479166733,
      "v": 74
    },
    {
      "midi": 33,
      "hit": false,
      "t": 118291.23,
      "d": 1677.1615364583413,
      "v": 75
    },
    {
      "midi": 45,
      "hit": false,
      "t": 118948.4035,
      "d": 780.3935312500107,
      "v": 67
    },
    {
      "midi": 57,
      "hit": false,
      "t": 119605.577,
      "d": 588.7179270833294,
      "v": 86
    },
    {
      "midi": 59,
      "hit": false,
      "t": 119605.577,
      "d": 657.1734999999899,
      "v": 72
    },
    {
      "midi": 61,
      "hit": false,
      "t": 119605.577,
      "d": 670.864614583319,
      "v": 85
    },
    {
      "midi": 33,
      "hit": false,
      "t": 120262.7505,
      "d": 82.14668749998964,
      "v": 64
    },
    {
      "midi": 64,
      "hit": false,
      "t": 120919.92399999998,
      "d": 4203.172177083339,
      "v": 90
    },
    {
      "midi": 59,
      "hit": false,
      "t": 120919.92399999998,
      "d": 4210.017734375011,
      "v": 95
    },
    {
      "midi": 56,
      "hit": false,
      "t": 120919.92399999998,
      "d": 4223.70884895834,
      "v": 76
    },
    {
      "midi": 28,
      "hit": false,
      "t": 120919.92399999998,
      "d": 4798.7356614583405,
      "v": 95
    },
    {
      "midi": 40,
      "hit": false,
      "t": 120919.92399999998,
      "d": 4798.7356614583405,
      "v": 82
    },
    {
      "midi": 63,
      "hit": false,
      "t": 126177.31199999999,
      "d": 670.8646145833336,
      "v": 101
    },
    {
      "midi": 56,
      "hit": false,
      "t": 126177.31199999999,
      "d": 698.2468437500065,
      "v": 109
    },
    {
      "midi": 59,
      "hit": false,
      "t": 126177.31199999999,
      "d": 766.702416666667,
      "v": 101
    },
    {
      "midi": 44,
      "hit": false,
      "t": 126177.31199999999,
      "d": 1697.6982083333278,
      "v": 109
    },
    {
      "midi": 63,
      "hit": false,
      "t": 127491.65899999999,
      "d": 616.1001562500023,
      "v": 105
    },
    {
      "midi": 56,
      "hit": false,
      "t": 127491.65899999999,
      "d": 664.0190572916763,
      "v": 105
    },
    {
      "midi": 59,
      "hit": false,
      "t": 127491.65899999999,
      "d": 691.4012864583492,
      "v": 99
    },
    {
      "midi": 44,
      "hit": false,
      "t": 128148.83249999999,
      "d": 2286.4161354166863,
      "v": 73
    },
    {
      "midi": 63,
      "hit": false,
      "t": 128806.006,
      "d": 657.1735000000044,
      "v": 98
    },
    {
      "midi": 56,
      "hit": false,
      "t": 128806.006,
      "d": 889.9224479166733,
      "v": 105
    },
    {
      "midi": 59,
      "hit": false,
      "t": 128806.006,
      "d": 889.9224479166733,
      "v": 101
    },
    {
      "midi": 63,
      "hit": false,
      "t": 130120.353,
      "d": 533.9534687500127,
      "v": 98
    },
    {
      "midi": 59,
      "hit": false,
      "t": 130120.353,
      "d": 547.6445833333419,
      "v": 103
    },
    {
      "midi": 56,
      "hit": false,
      "t": 130120.353,
      "d": 568.1812552083429,
      "v": 109
    },
    {
      "midi": 44,
      "hit": false,
      "t": 130777.5265,
      "d": 95.83780208333337,
      "v": 68
    },
    {
      "midi": 63,
      "hit": false,
      "t": 131434.7,
      "d": 622.9457135416451,
      "v": 98
    },
    {
      "midi": 58,
      "hit": false,
      "t": 131434.7,
      "d": 698.2468437499774,
      "v": 101
    },
    {
      "midi": 54,
      "hit": false,
      "t": 131434.7,
      "d": 725.6290729166358,
      "v": 109
    },
    {
      "midi": 39,
      "hit": false,
      "t": 131434.7,
      "d": 2081.0494166666176,
      "v": 101
    },
    {
      "midi": 63,
      "hit": false,
      "t": 132749.047,
      "d": 376.5056510416616,
      "v": 101
    },
    {
      "midi": 54,
      "hit": false,
      "t": 132749.047,
      "d": 438.1156666666502,
      "v": 98
    },
    {
      "midi": 58,
      "hit": false,
      "t": 132749.047,
      "d": 438.1156666666502,
      "v": 109
    },
    {
      "midi": 63,
      "hit": false,
      "t": 134063.39399999997,
      "d": 581.8723697916721,
      "v": 101
    },
    {
      "midi": 54,
      "hit": false,
      "t": 134063.39399999997,
      "d": 595.5634843750158,
      "v": 105
    },
    {
      "midi": 58,
      "hit": false,
      "t": 134063.39399999997,
      "d": 629.7912708333461,
      "v": 101
    },
    {
      "midi": 54,
      "hit": false,
      "t": 135377.74099999998,
      "d": 355.9689791666751,
      "v": 105
    },
    {
      "midi": 58,
      "hit": false,
      "t": 135377.74099999998,
      "d": 362.814536458347,
      "v": 98
    },
    {
      "midi": 63,
      "hit": false,
      "t": 135377.74099999998,
      "d": 383.3512083333335,
      "v": 94
    },
    {
      "midi": 64,
      "hit": false,
      "t": 136692.088,
      "d": 698.2468437500065,
      "v": 101
    },
    {
      "midi": 61,
      "hit": false,
      "t": 136692.088,
      "d": 739.3201875000086,
      "v": 101
    },
    {
      "midi": 57,
      "hit": false,
      "t": 136692.088,
      "d": 780.3935312500107,
      "v": 99
    },
    {
      "midi": 42,
      "hit": false,
      "t": 136692.088,
      "d": 1971.5204999999842,
      "v": 101
    },
    {
      "midi": 64,
      "hit": false,
      "t": 138006.435,
      "d": 527.1079114583263,
      "v": 103
    },
    {
      "midi": 57,
      "hit": false,
      "t": 138006.435,
      "d": 568.1812552083284,
      "v": 101
    },
    {
      "midi": 61,
      "hit": false,
      "t": 138006.435,
      "d": 595.5634843749867,
      "v": 101
    },
    {
      "midi": 63,
      "hit": false,
      "t": 139320.78199999998,
      "d": 547.6445833333419,
      "v": 92
    },
    {
      "midi": 60,
      "hit": false,
      "t": 139320.78199999998,
      "d": 602.4090416666877,
      "v": 92
    },
    {
      "midi": 56,
      "hit": false,
      "t": 139320.78199999998,
      "d": 636.6368281250179,
      "v": 105
    },
    {
      "midi": 44,
      "hit": false,
      "t": 139320.78199999998,
      "d": 1855.1460260416789,
      "v": 105
    },
    {
      "midi": 56,
      "hit": false,
      "t": 140635.129,
      "d": 397.0423229166772,
      "v": 109
    },
    {
      "midi": 60,
      "hit": false,
      "t": 140635.129,
      "d": 424.4245520833356,
      "v": 92
    },
    {
      "midi": 63,
      "hit": false,
      "t": 140635.129,
      "d": 424.4245520833356,
      "v": 98
    },
    {
      "midi": 56,
      "hit": false,
      "t": 141949.476,
      "d": 540.79902604167,
      "v": 105
    },
    {
      "midi": 61,
      "hit": false,
      "t": 141949.476,
      "d": 554.4901406250137,
      "v": 94
    },
    {
      "midi": 64,
      "hit": false,
      "t": 141949.476,
      "d": 554.4901406250137,
      "v": 99
    },
    {
      "midi": 49,
      "hit": false,
      "t": 141949.476,
      "d": 2656.076229166676,
      "v": 109
    },
    {
      "midi": 56,
      "hit": false,
      "t": 143263.823,
      "d": 506.5712395833398,
      "v": 109
    },
    {
      "midi": 61,
      "hit": false,
      "t": 143263.823,
      "d": 513.4167968750116,
      "v": 94
    },
    {
      "midi": 64,
      "hit": false,
      "t": 143263.823,
      "d": 533.9534687499981,
      "v": 103
    },
    {
      "midi": 64,
      "hit": false,
      "t": 144578.17,
      "d": 438.1156666666502,
      "v": 105
    },
    {
      "midi": 61,
      "hit": false,
      "t": 144578.17,
      "d": 465.4978958333086,
      "v": 98
    },
    {
      "midi": 56,
      "hit": false,
      "t": 144578.17,
      "d": 486.03456770829507,
      "v": 105
    },
    {
      "midi": 64,
      "hit": false,
      "t": 145892.51699999996,
      "d": 568.1812552083284,
      "v": 101
    },
    {
      "midi": 56,
      "hit": false,
      "t": 145892.51699999996,
      "d": 609.2545989583305,
      "v": 105
    },
    {
      "midi": 61,
      "hit": false,
      "t": 145892.51699999996,
      "d": 629.791270833317,
      "v": 92
    },
    {
      "midi": 66,
      "hit": false,
      "t": 147206.86399999994,
      "d": 773.5479739583388,
      "v": 98
    },
    {
      "midi": 61,
      "hit": false,
      "t": 147206.86399999994,
      "d": 780.3935312500107,
      "v": 98
    },
    {
      "midi": 58,
      "hit": false,
      "t": 147206.86399999994,
      "d": 862.5402187500149,
      "v": 105
    },
    {
      "midi": 46,
      "hit": false,
      "t": 147206.86399999994,
      "d": 1499.1770468750037,
      "v": 105
    },
    {
      "midi": 61,
      "hit": false,
      "t": 148521.21099999995,
      "d": 814.6213177083409,
      "v": 105
    },
    {
      "midi": 66,
      "hit": false,
      "t": 148521.21099999995,
      "d": 814.6213177083409,
      "v": 105
    },
    {
      "midi": 58,
      "hit": false,
      "t": 148521.21099999995,
      "d": 855.694661458343,
      "v": 105
    },
    {
      "midi": 66,
      "hit": false,
      "t": 149835.55799999996,
      "d": 739.3201874999795,
      "v": 98
    },
    {
      "midi": 61,
      "hit": false,
      "t": 149835.55799999996,
      "d": 821.4668749999837,
      "v": 98
    },
    {
      "midi": 58,
      "hit": false,
      "t": 149835.55799999996,
      "d": 842.0035468749702,
      "v": 87
    },
    {
      "midi": 42,
      "hit": false,
      "t": 149835.55799999996,
      "d": 2087.8949739582895,
      "v": 94
    },
    {
      "midi": 61,
      "hit": false,
      "t": 151149.90499999994,
      "d": 677.7101718749909,
      "v": 101
    },
    {
      "midi": 66,
      "hit": false,
      "t": 151149.90499999994,
      "d": 732.4746302083367,
      "v": 105
    },
    {
      "midi": 58,
      "hit": false,
      "t": 151149.90499999994,
      "d": 753.0113020833232,
      "v": 98
    },
    {
      "midi": 63,
      "hit": false,
      "t": 152464.25199999992,
      "d": 670.864614583319,
      "v": 94
    },
    {
      "midi": 59,
      "hit": false,
      "t": 152464.25199999992,
      "d": 711.9379583333211,
      "v": 95
    },
    {
      "midi": 56,
      "hit": false,
      "t": 152464.25199999992,
      "d": 766.702416666667,
      "v": 105
    },
    {
      "midi": 44,
      "hit": false,
      "t": 152464.25199999992,
      "d": 1451.2581458333298,
      "v": 105
    },
    {
      "midi": 63,
      "hit": false,
      "t": 153778.59899999993,
      "d": 1074.752494791639,
      "v": 105
    },
    {
      "midi": 56,
      "hit": false,
      "t": 153778.59899999993,
      "d": 1115.8258385416411,
      "v": 105
    },
    {
      "midi": 59,
      "hit": false,
      "t": 153778.59899999993,
      "d": 1177.4358541666297,
      "v": 101
    },
    {
      "midi": 44,
      "hit": false,
      "t": 154435.7724999999,
      "d": 308.05007812500116,
      "v": 90
    },
    {
      "midi": 42,
      "hit": false,
      "t": 154764.3592499999,
      "d": 246.44006250001257,
      "v": 71
    },
    {
      "midi": 56,
      "hit": false,
      "t": 155092.9459999999,
      "d": 684.5557291666628,
      "v": 105
    },
    {
      "midi": 64,
      "hit": false,
      "t": 155092.9459999999,
      "d": 705.0924010416493,
      "v": 101
    },
    {
      "midi": 59,
      "hit": false,
      "t": 155092.9459999999,
      "d": 732.4746302083076,
      "v": 99
    },
    {
      "midi": 40,
      "hit": false,
      "t": 155092.9459999999,
      "d": 2224.8061197916686,
      "v": 95
    },
    {
      "midi": 56,
      "hit": false,
      "t": 156407.2929999999,
      "d": 513.4167968750116,
      "v": 109
    },
    {
      "midi": 59,
      "hit": false,
      "t": 156407.2929999999,
      "d": 527.1079114583554,
      "v": 99
    },
    {
      "midi": 64,
      "hit": false,
      "t": 156407.2929999999,
      "d": 561.3356979166856,
      "v": 99
    },
    {
      "midi": 66,
      "hit": false,
      "t": 157721.6399999999,
      "d": 889.9224479166733,
      "v": 98
    },
    {
      "midi": 59,
      "hit": false,
      "t": 157721.6399999999,
      "d": 924.1502343750035,
      "v": 99
    },
    {
      "midi": 63,
      "hit": false,
      "t": 157721.6399999999,
      "d": 930.9957916666754,
      "v": 98
    },
    {
      "midi": 42,
      "hit": false,
      "t": 157721.6399999999,
      "d": 2252.188348958327,
      "v": 101
    },
    {
      "midi": 59,
      "hit": false,
      "t": 159035.9869999999,
      "d": 910.4591197916598,
      "v": 103
    },
    {
      "midi": 66,
      "hit": false,
      "t": 159035.9869999999,
      "d": 917.3046770833316,
      "v": 94
    },
    {
      "midi": 63,
      "hit": false,
      "t": 159035.9869999999,
      "d": 958.3780208333046,
      "v": 101
    },
    {
      "midi": 61,
      "hit": false,
      "t": 160350.3339999999,
      "d": 1506.0226041666465,
      "v": 94
    },
    {
      "midi": 66,
      "hit": false,
      "t": 160350.3339999999,
      "d": 1526.559276041633,
      "v": 92
    },
    {
      "midi": 58,
      "hit": false,
      "t": 160350.3339999999,
      "d": 1560.7870624999632,
      "v": 90
    },
    {
      "midi": 42,
      "hit": false,
      "t": 160350.3339999999,
      "d": 1711.3893229166279,
      "v": 90
    },
    {
      "midi": 59,
      "hit": false,
      "t": 162979.02799999985,
      "d": 3730.828723958344,
      "v": 85
    },
    {
      "midi": 56,
      "hit": false,
      "t": 162979.02799999985,
      "d": 3744.519838541688,
      "v": 73
    },
    {
      "midi": 63,
      "hit": false,
      "t": 162979.02799999985,
      "d": 3751.36539583336,
      "v": 69
    },
    {
      "midi": 44,
      "hit": false,
      "t": 162979.02799999985,
      "d": 3970.423229166685,
      "v": 75
    },
    {
      "midi": 66,
      "hit": false,
      "t": 168236.41599999985,
      "d": 568.1812552083284,
      "v": 101
    },
    {
      "midi": 63,
      "hit": false,
      "t": 168236.41599999985,
      "d": 595.5634843749867,
      "v": 92
    },
    {
      "midi": 59,
      "hit": false,
      "t": 168236.41599999985,
      "d": 609.2545989583305,
      "v": 99
    },
    {
      "midi": 35,
      "hit": false,
      "t": 168236.41599999985,
      "d": 4367.465552083333,
      "v": 88
    },
    {
      "midi": 63,
      "hit": false,
      "t": 168236.416,
      "d": 1300.6558854166651,
      "v": 100
    },
    {
      "midi": 66,
      "hit": false,
      "t": 168236.416,
      "d": 1300.6558854166651,
      "v": 100
    },
    {
      "midi": 47,
      "hit": false,
      "t": 168893.58949999986,
      "d": 848.8491041666712,
      "v": 82
    },
    {
      "midi": 66,
      "hit": false,
      "t": 169550.76299999986,
      "d": 616.1001562500023,
      "v": 101
    },
    {
      "midi": 63,
      "hit": false,
      "t": 169550.76299999986,
      "d": 629.7912708333461,
      "v": 98
    },
    {
      "midi": 59,
      "hit": false,
      "t": 169550.76299999986,
      "d": 677.7101718749909,
      "v": 103
    },
    {
      "midi": 63,
      "hit": false,
      "t": 169550.763,
      "d": 1300.6558854166651,
      "v": 100
    },
    {
      "midi": 66,
      "hit": false,
      "t": 169550.763,
      "d": 1300.6558854166651,
      "v": 100
    },
    {
      "midi": 47,
      "hit": false,
      "t": 170207.93649999987,
      "d": 978.9146927083202,
      "v": 81
    },
    {
      "midi": 63,
      "hit": false,
      "t": 170865.10999999984,
      "d": 684.5557291666628,
      "v": 98
    },
    {
      "midi": 66,
      "hit": false,
      "t": 170865.10999999984,
      "d": 691.4012864583347,
      "v": 109
    },
    {
      "midi": 59,
      "hit": false,
      "t": 170865.10999999984,
      "d": 746.1657447916805,
      "v": 101
    },
    {
      "midi": 63,
      "hit": false,
      "t": 170865.11000000002,
      "d": 1300.6558854166651,
      "v": 100
    },
    {
      "midi": 66,
      "hit": false,
      "t": 170865.11000000002,
      "d": 1300.6558854166651,
      "v": 100
    },
    {
      "midi": 47,
      "hit": false,
      "t": 171522.28349999984,
      "d": 1252.7369843750203,
      "v": 77
    },
    {
      "midi": 66,
      "hit": false,
      "t": 172179.45699999985,
      "d": 718.783515624993,
      "v": 94
    },
    {
      "midi": 63,
      "hit": false,
      "t": 172179.45699999985,
      "d": 725.6290729166649,
      "v": 105
    },
    {
      "midi": 59,
      "hit": false,
      "t": 172179.45699999985,
      "d": 746.1657447916514,
      "v": 105
    },
    {
      "midi": 63,
      "hit": false,
      "t": 172179.45700000002,
      "d": 1300.6558854166651,
      "v": 100
    },
    {
      "midi": 66,
      "hit": false,
      "t": 172179.45700000002,
      "d": 1300.6558854166651,
      "v": 100
    },
    {
      "midi": 35,
      "hit": false,
      "t": 172836.63049999985,
      "d": 109.52891666663345,
      "v": 67
    },
    {
      "midi": 66,
      "hit": false,
      "t": 173493.80399999983,
      "d": 643.4823854166607,
      "v": 109
    },
    {
      "midi": 59,
      "hit": false,
      "t": 173493.80399999983,
      "d": 705.0924010416784,
      "v": 103
    },
    {
      "midi": 62,
      "hit": false,
      "t": 173493.80399999983,
      "d": 711.9379583333503,
      "v": 105
    },
    {
      "midi": 31,
      "hit": false,
      "t": 173493.80399999983,
      "d": 4038.8788020833163,
      "v": 92
    },
    {
      "midi": 62,
      "hit": false,
      "t": 173493.80400000003,
      "d": 1300.6558854166651,
      "v": 100
    },
    {
      "midi": 66,
      "hit": false,
      "t": 173493.80400000003,
      "d": 1300.6558854166651,
      "v": 100
    },
    {
      "midi": 43,
      "hit": false,
      "t": 174150.97749999983,
      "d": 978.9146927083493,
      "v": 68
    },
    {
      "midi": 66,
      "hit": false,
      "t": 174808.15099999984,
      "d": 670.8646145833482,
      "v": 109
    },
    {
      "midi": 59,
      "hit": false,
      "t": 174808.15099999984,
      "d": 739.3201875000086,
      "v": 103
    },
    {
      "midi": 62,
      "hit": false,
      "t": 174808.15099999984,
      "d": 746.1657447916805,
      "v": 105
    },
    {
      "midi": 62,
      "hit": false,
      "t": 174808.15100000004,
      "d": 1300.6558854166651,
      "v": 100
    },
    {
      "midi": 66,
      "hit": false,
      "t": 174808.15100000004,
      "d": 1300.6558854166651,
      "v": 100
    },
    {
      "midi": 43,
      "hit": false,
      "t": 175465.32449999984,
      "d": 1006.2969218750077,
      "v": 83
    },
    {
      "midi": 66,
      "hit": false,
      "t": 176122.49799999985,
      "d": 691.4012864583347,
      "v": 105
    },
    {
      "midi": 59,
      "hit": false,
      "t": 176122.49799999985,
      "d": 759.8568593749951,
      "v": 103
    },
    {
      "midi": 62,
      "hit": false,
      "t": 176122.49799999985,
      "d": 794.0846458333253,
      "v": 105
    },
    {
      "midi": 62,
      "hit": false,
      "t": 176122.49800000005,
      "d": 1300.6558854166651,
      "v": 100
    },
    {
      "midi": 66,
      "hit": false,
      "t": 176122.49800000005,
      "d": 1300.6558854166651,
      "v": 100
    },
    {
      "midi": 43,
      "hit": false,
      "t": 176779.67149999985,
      "d": 1273.2736562499485,
      "v": 59
    },
    {
      "midi": 66,
      "hit": false,
      "t": 177436.84499999983,
      "d": 581.872369791643,
      "v": 105
    },
    {
      "midi": 59,
      "hit": false,
      "t": 177436.84499999983,
      "d": 609.2545989583014,
      "v": 103
    },
    {
      "midi": 62,
      "hit": false,
      "t": 177436.84499999983,
      "d": 616.1001562499732,
      "v": 103
    },
    {
      "midi": 62,
      "hit": false,
      "t": 177436.84500000006,
      "d": 1300.6558854166651,
      "v": 100
    },
    {
      "midi": 66,
      "hit": false,
      "t": 177436.84500000006,
      "d": 1300.6558854166651,
      "v": 100
    },
    {
      "midi": 31,
      "hit": false,
      "t": 178094.0184999998,
      "d": 123.22003125000629,
      "v": 81
    },
    {
      "midi": 66,
      "hit": false,
      "t": 178751.1919999998,
      "d": 636.6368281249888,
      "v": 101
    },
    {
      "midi": 63,
      "hit": false,
      "t": 178751.1919999998,
      "d": 650.3279427083326,
      "v": 109
    },
    {
      "midi": 59,
      "hit": false,
      "t": 178751.1919999998,
      "d": 691.4012864583347,
      "v": 97
    },
    {
      "midi": 35,
      "hit": false,
      "t": 178751.1919999998,
      "d": 4326.392208333331,
      "v": 94
    },
    {
      "midi": 63,
      "hit": false,
      "t": 178751.19200000007,
      "d": 1300.6558854166651,
      "v": 100
    },
    {
      "midi": 66,
      "hit": false,
      "t": 178751.19200000007,
      "d": 1300.6558854166651,
      "v": 100
    },
    {
      "midi": 47,
      "hit": false,
      "t": 179408.3654999998,
      "d": 889.9224479166733,
      "v": 78
    },
    {
      "midi": 66,
      "hit": false,
      "t": 180065.53899999982,
      "d": 636.6368281249888,
      "v": 105
    },
    {
      "midi": 63,
      "hit": false,
      "t": 180065.53899999982,
      "d": 657.1734999999753,
      "v": 105
    },
    {
      "midi": 59,
      "hit": false,
      "t": 180065.53899999982,
      "d": 698.2468437499774,
      "v": 101
    },
    {
      "midi": 63,
      "hit": false,
      "t": 180065.53900000008,
      "d": 1300.6558854166651,
      "v": 100
    },
    {
      "midi": 66,
      "hit": false,
      "t": 180065.53900000008,
      "d": 1300.6558854166651,
      "v": 100
    },
    {
      "midi": 47,
      "hit": false,
      "t": 180722.7124999998,
      "d": 965.2235781250056,
      "v": 86
    },
    {
      "midi": 66,
      "hit": false,
      "t": 181379.8859999998,
      "d": 643.4823854166607,
      "v": 109
    },
    {
      "midi": 63,
      "hit": false,
      "t": 181379.8859999998,
      "d": 670.8646145833482,
      "v": 109
    },
    {
      "midi": 59,
      "hit": false,
      "t": 181379.8859999998,
      "d": 711.9379583333503,
      "v": 97
    },
    {
      "midi": 63,
      "hit": false,
      "t": 181379.8860000001,
      "d": 1300.6558854166651,
      "v": 100
    },
    {
      "midi": 66,
      "hit": false,
      "t": 181379.8860000001,
      "d": 1300.6558854166651,
      "v": 100
    },
    {
      "midi": 47,
      "hit": false,
      "t": 182037.0594999998,
      "d": 1266.4280989583349,
      "v": 78
    },
    {
      "midi": 59,
      "hit": false,
      "t": 182694.2329999998,
      "d": 636.6368281249888,
      "v": 105
    },
    {
      "midi": 66,
      "hit": false,
      "t": 182694.2329999998,
      "d": 643.4823854166607,
      "v": 98
    },
    {
      "midi": 63,
      "hit": false,
      "t": 182694.2329999998,
      "d": 650.3279427083326,
      "v": 109
    },
    {
      "midi": 63,
      "hit": false,
      "t": 182694.2330000001,
      "d": 1300.6558854166651,
      "v": 100
    },
    {
      "midi": 66,
      "hit": false,
      "t": 182694.2330000001,
      "d": 1300.6558854166651,
      "v": 100
    },
    {
      "midi": 35,
      "hit": false,
      "t": 183351.4064999998,
      "d": 123.22003125000629,
      "v": 77
    },
    {
      "midi": 66,
      "hit": false,
      "t": 184008.5799999998,
      "d": 629.7912708333461,
      "v": 109
    },
    {
      "midi": 62,
      "hit": false,
      "t": 184008.5799999998,
      "d": 677.7101718749909,
      "v": 105
    },
    {
      "midi": 59,
      "hit": false,
      "t": 184008.5799999998,
      "d": 698.2468437499774,
      "v": 101
    },
    {
      "midi": 31,
      "hit": false,
      "t": 184008.5799999998,
      "d": 4545.450041666598,
      "v": 81
    },
    {
      "midi": 62,
      "hit": false,
      "t": 184008.5800000001,
      "d": 1300.6558854166651,
      "v": 100
    },
    {
      "midi": 66,
      "hit": false,
      "t": 184008.5800000001,
      "d": 1300.6558854166651,
      "v": 100
    },
    {
      "midi": 43,
      "hit": false,
      "t": 184665.75349999982,
      "d": 965.2235781249765,
      "v": 67
    },
    {
      "midi": 66,
      "hit": false,
      "t": 185322.9269999998,
      "d": 664.0190572916763,
      "v": 105
    },
    {
      "midi": 59,
      "hit": false,
      "t": 185322.9269999998,
      "d": 711.9379583333503,
      "v": 103
    },
    {
      "midi": 62,
      "hit": false,
      "t": 185322.9269999998,
      "d": 739.3201875000086,
      "v": 105
    },
    {
      "midi": 62,
      "hit": false,
      "t": 185322.9270000001,
      "d": 1300.6558854166651,
      "v": 100
    },
    {
      "midi": 66,
      "hit": false,
      "t": 185322.9270000001,
      "d": 1300.6558854166651,
      "v": 100
    },
    {
      "midi": 43,
      "hit": false,
      "t": 185980.1004999998,
      "d": 965.2235781250056,
      "v": 71
    },
    {
      "midi": 66,
      "hit": false,
      "t": 186637.2739999998,
      "d": 753.0113020833232,
      "v": 105
    },
    {
      "midi": 59,
      "hit": false,
      "t": 186637.2739999998,
      "d": 787.2390885416535,
      "v": 103
    },
    {
      "midi": 62,
      "hit": false,
      "t": 186637.2739999998,
      "d": 794.0846458333253,
      "v": 101
    },
    {
      "midi": 62,
      "hit": false,
      "t": 186637.27400000012,
      "d": 1300.6558854166651,
      "v": 100
    },
    {
      "midi": 66,
      "hit": false,
      "t": 186637.27400000012,
      "d": 1300.6558854166651,
      "v": 100
    },
    {
      "midi": 43,
      "hit": false,
      "t": 187294.4474999998,
      "d": 883.0768906249723,
      "v": 65
    },
    {
      "midi": 66,
      "hit": false,
      "t": 187951.62099999978,
      "d": 451.80678124999395,
      "v": 105
    },
    {
      "midi": 62,
      "hit": false,
      "t": 187951.62099999978,
      "d": 472.34345312498044,
      "v": 105
    },
    {
      "midi": 59,
      "hit": false,
      "t": 187951.62099999978,
      "d": 533.953468749969,
      "v": 103
    },
    {
      "midi": 62,
      "hit": false,
      "t": 187951.62100000013,
      "d": 1300.6558854166651,
      "v": 100
    },
    {
      "midi": 66,
      "hit": false,
      "t": 187951.62100000013,
      "d": 1300.6558854166651,
      "v": 100
    },
    {
      "midi": 43,
      "hit": false,
      "t": 188608.79449999976,
      "d": 540.79902604167,
      "v": 86
    },
    {
      "midi": 64,
      "hit": false,
      "t": 189265.96799999976,
      "d": 595.5634843750158,
      "v": 109
    },
    {
      "midi": 61,
      "hit": false,
      "t": 189265.96799999976,
      "d": 622.9457135416742,
      "v": 101
    },
    {
      "midi": 57,
      "hit": false,
      "t": 189265.96799999976,
      "d": 664.0190572916763,
      "v": 101
    },
    {
      "midi": 33,
      "hit": false,
      "t": 189265.96799999976,
      "d": 4504.376697916654,
      "v": 99
    },
    {
      "midi": 61,
      "hit": false,
      "t": 189265.96800000014,
      "d": 1300.6558854166651,
      "v": 100
    },
    {
      "midi": 64,
      "hit": false,
      "t": 189265.96800000014,
      "d": 1300.6558854166651,
      "v": 100
    },
    {
      "midi": 45,
      "hit": false,
      "t": 189923.14149999977,
      "d": 855.694661458343,
      "v": 88
    },
    {
      "midi": 64,
      "hit": false,
      "t": 190580.31499999977,
      "d": 609.2545989583305,
      "v": 103
    },
    {
      "midi": 61,
      "hit": false,
      "t": 190580.31499999977,
      "d": 657.1735000000044,
      "v": 109
    },
    {
      "midi": 57,
      "hit": false,
      "t": 190580.31499999977,
      "d": 677.7101718749909,
      "v": 101
    },
    {
      "midi": 61,
      "hit": false,
      "t": 190580.31500000015,
      "d": 1300.6558854166651,
      "v": 100
    },
    {
      "midi": 64,
      "hit": false,
      "t": 190580.31500000015,
      "d": 1300.6558854166651,
      "v": 100
    },
    {
      "midi": 45,
      "hit": false,
      "t": 191237.48849999977,
      "d": 855.6946614583139,
      "v": 86
    },
    {
      "midi": 64,
      "hit": false,
      "t": 191894.66199999975,
      "d": 609.2545989583305,
      "v": 107
    },
    {
      "midi": 61,
      "hit": false,
      "t": 191894.66199999975,
      "d": 664.0190572916763,
      "v": 105
    },
    {
      "midi": 57,
      "hit": false,
      "t": 191894.66199999975,
      "d": 677.71017187502,
      "v": 103
    },
    {
      "midi": 61,
      "hit": false,
      "t": 191894.66200000016,
      "d": 1300.6558854166651,
      "v": 100
    },
    {
      "midi": 64,
      "hit": false,
      "t": 191894.66200000016,
      "d": 1300.6558854166651,
      "v": 100
    },
    {
      "midi": 45,
      "hit": false,
      "t": 192551.83549999975,
      "d": 835.1579895833274,
      "v": 73
    },
    {
      "midi": 57,
      "hit": false,
      "t": 193209.00899999976,
      "d": 417.5789947916637,
      "v": 103
    },
    {
      "midi": 61,
      "hit": false,
      "t": 193209.00899999976,
      "d": 465.4978958333377,
      "v": 109
    },
    {
      "midi": 64,
      "hit": false,
      "t": 193209.00899999976,
      "d": 492.88012499999604,
      "v": 99
    },
    {
      "midi": 61,
      "hit": false,
      "t": 193209.00900000017,
      "d": 1300.6558854166651,
      "v": 100
    },
    {
      "midi": 64,
      "hit": false,
      "t": 193209.00900000017,
      "d": 1300.6558854166651,
      "v": 100
    },
    {
      "midi": 45,
      "hit": false,
      "t": 193866.18249999973,
      "d": 513.4167968749825,
      "v": 86
    },
    {
      "midi": 63,
      "hit": false,
      "t": 194523.3559999997,
      "d": 575.0268125000002,
      "v": 105
    },
    {
      "midi": 66,
      "hit": false,
      "t": 194523.3559999997,
      "d": 595.5634843749867,
      "v": 98
    },
    {
      "midi": 59,
      "hit": false,
      "t": 194523.3559999997,
      "d": 657.1734999999753,
      "v": 97
    },
    {
      "midi": 35,
      "hit": false,
      "t": 194523.3559999997,
      "d": 4401.693338541663,
      "v": 90
    },
    {
      "midi": 63,
      "hit": false,
      "t": 194523.35600000017,
      "d": 1300.6558854166651,
      "v": 100
    },
    {
      "midi": 66,
      "hit": false,
      "t": 194523.35600000017,
      "d": 1300.6558854166651,
      "v": 100
    },
    {
      "midi": 47,
      "hit": false,
      "t": 195180.52949999968,
      "d": 862.5402187500149,
      "v": 81
    },
    {
      "midi": 66,
      "hit": false,
      "t": 195837.7029999997,
      "d": 547.6445833333419,
      "v": 109
    },
    {
      "midi": 63,
      "hit": false,
      "t": 195837.7029999997,
      "d": 575.0268125000002,
      "v": 109
    },
    {
      "midi": 59,
      "hit": false,
      "t": 195837.7029999997,
      "d": 670.8646145833482,
      "v": 103
    },
    {
      "midi": 63,
      "hit": false,
      "t": 195837.70300000018,
      "d": 1300.6558854166651,
      "v": 100
    },
    {
      "midi": 66,
      "hit": false,
      "t": 195837.70300000018,
      "d": 1300.6558854166651,
      "v": 100
    },
    {
      "midi": 47,
      "hit": false,
      "t": 196494.8764999997,
      "d": 876.2313333333295,
      "v": 86
    },
    {
      "midi": 66,
      "hit": false,
      "t": 197152.0499999997,
      "d": 479.1890104166523,
      "v": 105
    },
    {
      "midi": 63,
      "hit": false,
      "t": 197152.0499999997,
      "d": 513.4167968749825,
      "v": 94
    },
    {
      "midi": 59,
      "hit": false,
      "t": 197152.0499999997,
      "d": 568.1812552083284,
      "v": 103
    },
    {
      "midi": 63,
      "hit": false,
      "t": 197152.0500000002,
      "d": 1300.6558854166651,
      "v": 100
    },
    {
      "midi": 66,
      "hit": false,
      "t": 197152.0500000002,
      "d": 1300.6558854166651,
      "v": 100
    },
    {
      "midi": 47,
      "hit": false,
      "t": 197809.2234999997,
      "d": 1156.8991822916723,
      "v": 75
    },
    {
      "midi": 66,
      "hit": false,
      "t": 198466.3969999997,
      "d": 410.73343749999185,
      "v": 98
    },
    {
      "midi": 63,
      "hit": false,
      "t": 198466.3969999997,
      "d": 444.9612239583221,
      "v": 105
    },
    {
      "midi": 59,
      "hit": false,
      "t": 198466.3969999997,
      "d": 486.0345677083242,
      "v": 97
    },
    {
      "midi": 63,
      "hit": false,
      "t": 198466.3970000002,
      "d": 1300.6558854166651,
      "v": 100
    },
    {
      "midi": 66,
      "hit": false,
      "t": 198466.3970000002,
      "d": 1300.6558854166651,
      "v": 100
    },
    {
      "midi": 35,
      "hit": false,
      "t": 199123.5704999997,
      "d": 150.60226041666465,
      "v": 75
    },
    {
      "midi": 68,
      "hit": false,
      "t": 199780.74399999972,
      "d": 561.3356979166856,
      "v": 92
    },
    {
      "midi": 63,
      "hit": false,
      "t": 199780.74399999972,
      "d": 581.8723697916721,
      "v": 105
    },
    {
      "midi": 59,
      "hit": false,
      "t": 199780.74399999972,
      "d": 629.7912708333461,
      "v": 103
    },
    {
      "midi": 32,
      "hit": false,
      "t": 199780.74399999972,
      "d": 4326.392208333331,
      "v": 92
    },
    {
      "midi": 63,
      "hit": false,
      "t": 199780.7440000002,
      "d": 1300.6558854166651,
      "v": 100
    },
    {
      "midi": 66,
      "hit": false,
      "t": 199780.7440000002,
      "d": 1300.6558854166651,
      "v": 100
    },
    {
      "midi": 44,
      "hit": false,
      "t": 200437.91749999972,
      "d": 917.3046770833316,
      "v": 71
    },
    {
      "midi": 68,
      "hit": false,
      "t": 201095.09099999972,
      "d": 451.80678124999395,
      "v": 98
    },
    {
      "midi": 63,
      "hit": false,
      "t": 201095.09099999972,
      "d": 479.1890104166523,
      "v": 101
    },
    {
      "midi": 59,
      "hit": false,
      "t": 201095.09099999972,
      "d": 513.4167968749825,
      "v": 101
    },
    {
      "midi": 63,
      "hit": false,
      "t": 201095.09100000022,
      "d": 1300.6558854166651,
      "v": 100
    },
    {
      "midi": 66,
      "hit": false,
      "t": 201095.09100000022,
      "d": 1300.6558854166651,
      "v": 100
    },
    {
      "midi": 44,
      "hit": false,
      "t": 201752.2644999997,
      "d": 835.1579895833274,
      "v": 73
    },
    {
      "midi": 68,
      "hit": false,
      "t": 202409.4379999997,
      "d": 575.0268125000002,
      "v": 98
    },
    {
      "midi": 63,
      "hit": false,
      "t": 202409.4379999997,
      "d": 581.8723697916721,
      "v": 101
    },
    {
      "midi": 59,
      "hit": false,
      "t": 202409.4379999997,
      "d": 602.4090416666586,
      "v": 99
    },
    {
      "midi": 63,
      "hit": false,
      "t": 202409.43800000023,
      "d": 1300.6558854166651,
      "v": 100
    },
    {
      "midi": 66,
      "hit": false,
      "t": 202409.43800000023,
      "d": 1300.6558854166651,
      "v": 100
    },
    {
      "midi": 44,
      "hit": false,
      "t": 203066.6114999997,
      "d": 1328.0381145833526,
      "v": 73
    },
    {
      "midi": 68,
      "hit": false,
      "t": 203723.7849999997,
      "d": 424.4245520833356,
      "v": 92
    },
    {
      "midi": 63,
      "hit": false,
      "t": 203723.7849999997,
      "d": 444.9612239583221,
      "v": 101
    },
    {
      "midi": 59,
      "hit": false,
      "t": 203723.7849999997,
      "d": 492.88012499999604,
      "v": 103
    },
    {
      "midi": 63,
      "hit": false,
      "t": 203723.78500000024,
      "d": 1300.6558854166651,
      "v": 100
    },
    {
      "midi": 66,
      "hit": false,
      "t": 203723.78500000024,
      "d": 1300.6558854166651,
      "v": 100
    },
    {
      "midi": 32,
      "hit": false,
      "t": 204380.95849999972,
      "d": 109.52891666666255,
      "v": 92
    },
    {
      "midi": 64,
      "hit": false,
      "t": 205038.1319999997,
      "d": 499.7256822916679,
      "v": 94
    },
    {
      "midi": 56,
      "hit": false,
      "t": 205038.1319999997,
      "d": 711.9379583333503,
      "v": 94
    },
    {
      "midi": 59,
      "hit": false,
      "t": 205038.1319999997,
      "d": 787.2390885416826,
      "v": 90
    },
    {
      "midi": 28,
      "hit": false,
      "t": 205038.1319999997,
      "d": 4470.148911458324,
      "v": 81
    },
    {
      "midi": 59,
      "hit": false,
      "t": 205038.13200000025,
      "d": 1300.6558854166651,
      "v": 100
    },
    {
      "midi": 64,
      "hit": false,
      "t": 205038.13200000025,
      "d": 1300.6558854166651,
      "v": 100
    },
    {
      "midi": 40,
      "hit": false,
      "t": 205695.3054999997,
      "d": 862.5402187500149,
      "v": 77
    },
    {
      "midi": 59,
      "hit": false,
      "t": 206352.4789999997,
      "d": 465.4978958333377,
      "v": 99
    },
    {
      "midi": 64,
      "hit": false,
      "t": 206352.4789999997,
      "d": 499.7256822916679,
      "v": 94
    },
    {
      "midi": 56,
      "hit": false,
      "t": 206352.4789999997,
      "d": 540.79902604167,
      "v": 101
    },
    {
      "midi": 59,
      "hit": false,
      "t": 206352.47900000025,
      "d": 1300.6558854166651,
      "v": 100
    },
    {
      "midi": 64,
      "hit": false,
      "t": 206352.47900000025,
      "d": 1300.6558854166651,
      "v": 100
    },
    {
      "midi": 40,
      "hit": false,
      "t": 207009.6524999997,
      "d": 814.6213177083409,
      "v": 90
    },
    {
      "midi": 59,
      "hit": false,
      "t": 207666.8259999997,
      "d": 588.717927083344,
      "v": 103
    },
    {
      "midi": 56,
      "hit": false,
      "t": 207666.8259999997,
      "d": 616.1001562500023,
      "v": 109
    },
    {
      "midi": 52,
      "hit": false,
      "t": 207666.8259999997,
      "d": 677.7101718749909,
      "v": 103
    },
    {
      "midi": 59,
      "hit": false,
      "t": 207666.82600000026,
      "d": 1300.6558854166651,
      "v": 100
    },
    {
      "midi": 64,
      "hit": false,
      "t": 207666.82600000026,
      "d": 1300.6558854166651,
      "v": 100
    },
    {
      "midi": 40,
      "hit": false,
      "t": 208323.9994999997,
      "d": 828.3124322916556,
      "v": 82
    },
    {
      "midi": 52,
      "hit": false,
      "t": 208981.1729999997,
      "d": 239.5945052083407,
      "v": 105
    },
    {
      "midi": 56,
      "hit": false,
      "t": 208981.1729999997,
      "d": 280.6678489583428,
      "v": 109
    },
    {
      "midi": 59,
      "hit": false,
      "t": 208981.1729999997,
      "d": 301.2045208333293,
      "v": 105
    },
    {
      "midi": 59,
      "hit": false,
      "t": 208981.17300000027,
      "d": 1300.6558854166651,
      "v": 100
    },
    {
      "midi": 64,
      "hit": false,
      "t": 208981.17300000027,
      "d": 1300.6558854166651,
      "v": 100
    },
    {
      "midi": 40,
      "hit": false,
      "t": 209638.3464999997,
      "d": 554.4901406250137,
      "v": 90
    },
    {
      "midi": 63,
      "hit": false,
      "t": 210295.5199999997,
      "d": 657.1735000000044,
      "v": 101
    },
    {
      "midi": 59,
      "hit": false,
      "t": 210295.5199999997,
      "d": 670.8646145833482,
      "v": 99
    },
    {
      "midi": 66,
      "hit": false,
      "t": 210295.5199999997,
      "d": 677.71017187502,
      "v": 101
    },
    {
      "midi": 35,
      "hit": false,
      "t": 210295.5199999997,
      "d": 4271.627750000014,
      "v": 69
    },
    {
      "midi": 63,
      "hit": false,
      "t": 210295.52000000028,
      "d": 1300.6558854166651,
      "v": 100
    },
    {
      "midi": 66,
      "hit": false,
      "t": 210295.52000000028,
      "d": 1300.6558854166651,
      "v": 100
    },
    {
      "midi": 47,
      "hit": false,
      "t": 210952.6934999997,
      "d": 883.0768906250014,
      "v": 81
    },
    {
      "midi": 66,
      "hit": false,
      "t": 211609.8669999997,
      "d": 711.9379583333503,
      "v": 101
    },
    {
      "midi": 63,
      "hit": false,
      "t": 211609.8669999997,
      "d": 718.7835156250221,
      "v": 105
    },
    {
      "midi": 59,
      "hit": false,
      "t": 211609.8669999997,
      "d": 739.3201875000086,
      "v": 99
    },
    {
      "midi": 63,
      "hit": false,
      "t": 211609.8670000003,
      "d": 1300.6558854166651,
      "v": 100
    },
    {
      "midi": 66,
      "hit": false,
      "t": 211609.8670000003,
      "d": 1300.6558854166651,
      "v": 100
    },
    {
      "midi": 47,
      "hit": false,
      "t": 212267.0404999997,
      "d": 883.0768906250014,
      "v": 86
    },
    {
      "midi": 66,
      "hit": false,
      "t": 212924.21399999972,
      "d": 780.3935312500107,
      "v": 109
    },
    {
      "midi": 63,
      "hit": false,
      "t": 212924.21399999972,
      "d": 807.7757604166691,
      "v": 105
    },
    {
      "midi": 59,
      "hit": false,
      "t": 212924.21399999972,
      "d": 855.694661458343,
      "v": 105
    },
    {
      "midi": 63,
      "hit": false,
      "t": 212924.2140000003,
      "d": 1300.6558854166651,
      "v": 100
    },
    {
      "midi": 66,
      "hit": false,
      "t": 212924.2140000003,
      "d": 1300.6558854166651,
      "v": 100
    },
    {
      "midi": 47,
      "hit": false,
      "t": 213581.38749999972,
      "d": 1019.9880364583223,
      "v": 81
    },
    {
      "midi": 66,
      "hit": false,
      "t": 214238.56099999973,
      "d": 513.4167968749825,
      "v": 105
    },
    {
      "midi": 63,
      "hit": false,
      "t": 214238.56099999973,
      "d": 533.953468749969,
      "v": 109
    },
    {
      "midi": 59,
      "hit": false,
      "t": 214238.56099999973,
      "d": 684.5557291666337,
      "v": 103
    },
    {
      "midi": 63,
      "hit": false,
      "t": 214238.5610000003,
      "d": 1300.6558854166651,
      "v": 100
    },
    {
      "midi": 66,
      "hit": false,
      "t": 214238.5610000003,
      "d": 1300.6558854166651,
      "v": 100
    },
    {
      "midi": 66,
      "hit": false,
      "t": 215552.9079999997,
      "d": 595.5634843750158,
      "v": 105
    },
    {
      "midi": 63,
      "hit": false,
      "t": 215552.9079999997,
      "d": 629.7912708333461,
      "v": 105
    },
    {
      "midi": 59,
      "hit": false,
      "t": 215552.9079999997,
      "d": 705.0924010416784,
      "v": 101
    },
    {
      "midi": 35,
      "hit": false,
      "t": 215552.9079999997,
      "d": 4374.311109375005,
      "v": 94
    },
    {
      "midi": 63,
      "hit": false,
      "t": 215552.90800000032,
      "d": 1300.6558854166651,
      "v": 100
    },
    {
      "midi": 66,
      "hit": false,
      "t": 215552.90800000032,
      "d": 1300.6558854166651,
      "v": 100
    },
    {
      "midi": 47,
      "hit": false,
      "t": 216210.0814999997,
      "d": 869.3857760416577,
      "v": 90
    },
    {
      "midi": 66,
      "hit": false,
      "t": 216867.2549999997,
      "d": 581.872369791643,
      "v": 109
    },
    {
      "midi": 63,
      "hit": false,
      "t": 216867.2549999997,
      "d": 595.5634843749867,
      "v": 101
    },
    {
      "midi": 59,
      "hit": false,
      "t": 216867.2549999997,
      "d": 602.4090416666586,
      "v": 103
    },
    {
      "midi": 63,
      "hit": false,
      "t": 216867.25500000032,
      "d": 1300.6558854166651,
      "v": 100
    },
    {
      "midi": 66,
      "hit": false,
      "t": 216867.25500000032,
      "d": 1300.6558854166651,
      "v": 100
    },
    {
      "midi": 47,
      "hit": false,
      "t": 217524.42849999972,
      "d": 924.1502343750035,
      "v": 82
    },
    {
      "midi": 66,
      "hit": false,
      "t": 218181.60199999972,
      "d": 540.79902604167,
      "v": 101
    },
    {
      "midi": 63,
      "hit": false,
      "t": 218181.60199999972,
      "d": 575.0268125000002,
      "v": 105
    },
    {
      "midi": 59,
      "hit": false,
      "t": 218181.60199999972,
      "d": 670.8646145833482,
      "v": 103
    },
    {
      "midi": 63,
      "hit": false,
      "t": 218181.60200000033,
      "d": 1300.6558854166651,
      "v": 100
    },
    {
      "midi": 66,
      "hit": false,
      "t": 218181.60200000033,
      "d": 1300.6558854166651,
      "v": 100
    },
    {
      "midi": 47,
      "hit": false,
      "t": 218838.77549999973,
      "d": 1252.7369843749912,
      "v": 85
    },
    {
      "midi": 63,
      "hit": false,
      "t": 219495.94899999973,
      "d": 335.4323072916595,
      "v": 101
    },
    {
      "midi": 59,
      "hit": false,
      "t": 219495.94899999973,
      "d": 342.2778645833314,
      "v": 105
    },
    {
      "midi": 66,
      "hit": false,
      "t": 219495.94899999973,
      "d": 362.8145364583179,
      "v": 105
    },
    {
      "midi": 63,
      "hit": false,
      "t": 219495.94900000034,
      "d": 1300.6558854166651,
      "v": 100
    },
    {
      "midi": 66,
      "hit": false,
      "t": 219495.94900000034,
      "d": 1300.6558854166651,
      "v": 100
    },
    {
      "midi": 35,
      "hit": false,
      "t": 220153.1224999997,
      "d": 123.22003125000629,
      "v": 73
    },
    {
      "midi": 68,
      "hit": false,
      "t": 220810.2959999997,
      "d": 581.8723697916721,
      "v": 92
    },
    {
      "midi": 59,
      "hit": false,
      "t": 220810.2959999997,
      "d": 609.2545989583305,
      "v": 103
    },
    {
      "midi": 63,
      "hit": false,
      "t": 220810.2959999997,
      "d": 616.1001562500023,
      "v": 109
    },
    {
      "midi": 32,
      "hit": false,
      "t": 220810.2959999997,
      "d": 4353.774437500018,
      "v": 87
    },
    {
      "midi": 63,
      "hit": false,
      "t": 220810.29600000035,
      "d": 1300.6558854166651,
      "v": 100
    },
    {
      "midi": 66,
      "hit": false,
      "t": 220810.29600000035,
      "d": 1300.6558854166651,
      "v": 100
    },
    {
      "midi": 44,
      "hit": false,
      "t": 221467.46949999972,
      "d": 842.0035468749993,
      "v": 67
    },
    {
      "midi": 68,
      "hit": false,
      "t": 222124.64299999972,
      "d": 513.4167968749825,
      "v": 94
    },
    {
      "midi": 63,
      "hit": false,
      "t": 222124.64299999972,
      "d": 561.3356979166565,
      "v": 105
    },
    {
      "midi": 59,
      "hit": false,
      "t": 222124.64299999972,
      "d": 575.0268125000002,
      "v": 105
    },
    {
      "midi": 63,
      "hit": false,
      "t": 222124.64300000036,
      "d": 1300.6558854166651,
      "v": 100
    },
    {
      "midi": 66,
      "hit": false,
      "t": 222124.64300000036,
      "d": 1300.6558854166651,
      "v": 100
    },
    {
      "midi": 44,
      "hit": false,
      "t": 222781.81649999972,
      "d": 917.3046770833316,
      "v": 81
    },
    {
      "midi": 68,
      "hit": false,
      "t": 223438.98999999973,
      "d": 499.7256822916679,
      "v": 98
    },
    {
      "midi": 63,
      "hit": false,
      "t": 223438.98999999973,
      "d": 533.9534687499981,
      "v": 101
    },
    {
      "midi": 59,
      "hit": false,
      "t": 223438.98999999973,
      "d": 691.4012864583347,
      "v": 103
    },
    {
      "midi": 63,
      "hit": false,
      "t": 223438.99000000037,
      "d": 1300.6558854166651,
      "v": 100
    },
    {
      "midi": 66,
      "hit": false,
      "t": 223438.99000000037,
      "d": 1300.6558854166651,
      "v": 100
    },
    {
      "midi": 44,
      "hit": false,
      "t": 224096.16349999973,
      "d": 1328.0381145833235,
      "v": 73
    },
    {
      "midi": 68,
      "hit": false,
      "t": 224753.33699999974,
      "d": 383.3512083333335,
      "v": 92
    },
    {
      "midi": 63,
      "hit": false,
      "t": 224753.33699999974,
      "d": 403.88788020832,
      "v": 101
    },
    {
      "midi": 59,
      "hit": false,
      "t": 224753.33699999974,
      "d": 444.9612239583221,
      "v": 97
    },
    {
      "midi": 63,
      "hit": false,
      "t": 224753.33700000038,
      "d": 1300.6558854166651,
      "v": 100
    },
    {
      "midi": 66,
      "hit": false,
      "t": 224753.33700000038,
      "d": 1300.6558854166651,
      "v": 100
    },
    {
      "midi": 32,
      "hit": false,
      "t": 225410.5104999997,
      "d": 102.68335937501979,
      "v": 85
    },
    {
      "midi": 66,
      "hit": false,
      "t": 226067.68399999975,
      "d": 533.9534687499981,
      "v": 90
    },
    {
      "midi": 56,
      "hit": false,
      "t": 226067.68399999975,
      "d": 814.6213177083409,
      "v": 94
    },
    {
      "midi": 59,
      "hit": false,
      "t": 226067.68399999975,
      "d": 821.4668750000128,
      "v": 97
    },
    {
      "midi": 28,
      "hit": false,
      "t": 226067.68399999975,
      "d": 4552.295598958299,
      "v": 95
    },
    {
      "midi": 59,
      "hit": false,
      "t": 226067.6840000004,
      "d": 1300.6558854166651,
      "v": 100
    },
    {
      "midi": 64,
      "hit": false,
      "t": 226067.6840000004,
      "d": 1300.6558854166651,
      "v": 100
    },
    {
      "midi": 40,
      "hit": false,
      "t": 226724.85749999975,
      "d": 889.9224479166442,
      "v": 71
    },
    {
      "midi": 66,
      "hit": false,
      "t": 227382.03099999976,
      "d": 136.91114583332092,
      "v": 101
    },
    {
      "midi": 59,
      "hit": false,
      "t": 227382.03099999976,
      "d": 479.1890104166523,
      "v": 99
    },
    {
      "midi": 56,
      "hit": false,
      "t": 227382.03099999976,
      "d": 533.9534687499981,
      "v": 98
    },
    {
      "midi": 59,
      "hit": false,
      "t": 227382.0310000004,
      "d": 1300.6558854166651,
      "v": 100
    },
    {
      "midi": 64,
      "hit": false,
      "t": 227382.0310000004,
      "d": 1300.6558854166651,
      "v": 100
    },
    {
      "midi": 40,
      "hit": false,
      "t": 228039.20449999976,
      "d": 848.8491041666712,
      "v": 85
    },
    {
      "midi": 59,
      "hit": false,
      "t": 228696.37799999976,
      "d": 677.7101718749909,
      "v": 103
    },
    {
      "midi": 56,
      "hit": false,
      "t": 228696.37799999976,
      "d": 746.1657447916514,
      "v": 109
    },
    {
      "midi": 52,
      "hit": false,
      "t": 228696.37799999976,
      "d": 787.2390885416535,
      "v": 105
    },
    {
      "midi": 59,
      "hit": false,
      "t": 228696.3780000004,
      "d": 1300.6558854166651,
      "v": 100
    },
    {
      "midi": 64,
      "hit": false,
      "t": 228696.3780000004,
      "d": 1300.6558854166651,
      "v": 100
    },
    {
      "midi": 40,
      "hit": false,
      "t": 229353.55149999977,
      "d": 1115.825838541612,
      "v": 71
    },
    {
      "midi": 52,
      "hit": false,
      "t": 230010.72499999974,
      "d": 157.44781770833652,
      "v": 103
    },
    {
      "midi": 56,
      "hit": false,
      "t": 230010.72499999974,
      "d": 184.83004687499488,
      "v": 109
    },
    {
      "midi": 59,
      "hit": false,
      "t": 230010.72499999974,
      "d": 205.36671874998137,
      "v": 103
    },
    {
      "midi": 59,
      "hit": false,
      "t": 230010.7250000004,
      "d": 1300.6558854166651,
      "v": 100
    },
    {
      "midi": 64,
      "hit": false,
      "t": 230010.7250000004,
      "d": 1300.6558854166651,
      "v": 100
    },
    {
      "midi": 40,
      "hit": false,
      "t": 230667.89849999972,
      "d": 123.22003125000629,
      "v": 77
    },
    {
      "midi": 63,
      "hit": false,
      "t": 231325.07199999972,
      "d": 622.9457135416742,
      "v": 94
    },
    {
      "midi": 59,
      "hit": false,
      "t": 231325.07199999972,
      "d": 650.3279427083326,
      "v": 99
    },
    {
      "midi": 54,
      "hit": false,
      "t": 231325.07199999972,
      "d": 657.1735000000044,
      "v": 105
    },
    {
      "midi": 35,
      "hit": false,
      "t": 231325.07199999972,
      "d": 4579.677828124986,
      "v": 90
    },
    {
      "midi": 59,
      "hit": false,
      "t": 231325.07200000042,
      "d": 1300.6558854166651,
      "v": 100
    },
    {
      "midi": 63,
      "hit": false,
      "t": 231325.07200000042,
      "d": 1300.6558854166651,
      "v": 100
    },
    {
      "midi": 47,
      "hit": false,
      "t": 231982.24549999973,
      "d": 800.9302031249972,
      "v": 85
    },
    {
      "midi": 63,
      "hit": false,
      "t": 232639.41899999973,
      "d": 636.6368281249888,
      "v": 92
    },
    {
      "midi": 59,
      "hit": false,
      "t": 232639.41899999973,
      "d": 670.864614583319,
      "v": 90
    },
    {
      "midi": 54,
      "hit": false,
      "t": 232639.41899999973,
      "d": 705.0924010416493,
      "v": 105
    },
    {
      "midi": 59,
      "hit": false,
      "t": 232639.41900000043,
      "d": 1300.6558854166651,
      "v": 100
    },
    {
      "midi": 63,
      "hit": false,
      "t": 232639.41900000043,
      "d": 1300.6558854166651,
      "v": 100
    },
    {
      "midi": 47,
      "hit": false,
      "t": 233296.5924999997,
      "d": 828.3124322916847,
      "v": 85
    },
    {
      "midi": 63,
      "hit": false,
      "t": 233953.7659999997,
      "d": 650.3279427083326,
      "v": 87
    },
    {
      "midi": 59,
      "hit": false,
      "t": 233953.7659999997,
      "d": 705.0924010416784,
      "v": 99
    },
    {
      "midi": 54,
      "hit": false,
      "t": 233953.7659999997,
      "d": 732.4746302083367,
      "v": 105
    },
    {
      "midi": 59,
      "hit": false,
      "t": 233953.76600000044,
      "d": 1300.6558854166651,
      "v": 100
    },
    {
      "midi": 63,
      "hit": false,
      "t": 233953.76600000044,
      "d": 1300.6558854166651,
      "v": 100
    },
    {
      "midi": 47,
      "hit": false,
      "t": 234610.93949999972,
      "d": 1225.3547552083328,
      "v": 95
    },
    {
      "midi": 54,
      "hit": false,
      "t": 235268.11299999972,
      "d": 397.0423229166772,
      "v": 101
    },
    {
      "midi": 63,
      "hit": false,
      "t": 235268.11299999972,
      "d": 417.5789947916637,
      "v": 92
    },
    {
      "midi": 59,
      "hit": false,
      "t": 235268.11299999972,
      "d": 513.4167968749825,
      "v": 101
    },
    {
      "midi": 63,
      "hit": false,
      "t": 235268.11300000045,
      "d": 657.1735000000044,
      "v": 100
    },
    {
      "midi": 59,
      "hit": false,
      "t": 235268.11300000045,
      "d": 1136.3625104166567,
      "v": 100
    },
    {
      "midi": 59,
      "hit": false,
      "t": 235925.2864999997,
      "d": 68.45557291666046,
      "v": 81
    },
    {
      "midi": 54,
      "hit": false,
      "t": 235925.2864999997,
      "d": 171.13893229165114,
      "v": 101
    },
    {
      "midi": 61,
      "hit": false,
      "t": 235925.2864999997,
      "d": 273.82229166664183,
      "v": 94
    },
    {
      "midi": 61,
      "hit": false,
      "t": 235925.28650000045,
      "d": 643.4823854166607,
      "v": 100
    },
    {
      "midi": 57,
      "hit": false,
      "t": 236582.45999999967,
      "d": 677.7101718749909,
      "v": 95
    },
    {
      "midi": 63,
      "hit": false,
      "t": 236582.45999999967,
      "d": 705.0924010416493,
      "v": 82
    },
    {
      "midi": 59,
      "hit": false,
      "t": 236582.45999999967,
      "d": 759.8568593749951,
      "v": 99
    },
    {
      "midi": 33,
      "hit": false,
      "t": 236582.45999999967,
      "d": 2368.5628229166614,
      "v": 101
    },
    {
      "midi": 57,
      "hit": false,
      "t": 236582.46000000046,
      "d": 1300.6558854166651,
      "v": 100
    },
    {
      "midi": 63,
      "hit": false,
      "t": 236582.46000000046,
      "d": 1300.6558854166651,
      "v": 100
    },
    {
      "midi": 45,
      "hit": false,
      "t": 237239.63349999968,
      "d": 910.4591197916598,
      "v": 83
    },
    {
      "midi": 63,
      "hit": false,
      "t": 237896.80699999968,
      "d": 746.1657447916514,
      "v": 75
    },
    {
      "midi": 59,
      "hit": false,
      "t": 237896.80699999968,
      "d": 951.5324635416619,
      "v": 103
    },
    {
      "midi": 57,
      "hit": false,
      "t": 237896.80699999968,
      "d": 1067.9069374999963,
      "v": 99
    },
    {
      "midi": 57,
      "hit": false,
      "t": 237896.80700000047,
      "d": 1300.6558854166651,
      "v": 100
    },
    {
      "midi": 63,
      "hit": false,
      "t": 237896.80700000047,
      "d": 1300.6558854166651,
      "v": 90
    },
    {
      "midi": 45,
      "hit": false,
      "t": 238553.98049999966,
      "d": 1013.1424791666795,
      "v": 88
    },
    {
      "midi": 61,
      "hit": false,
      "t": 239211.15399999966,
      "d": 814.6213177083409,
      "v": 105
    },
    {
      "midi": 59,
      "hit": false,
      "t": 239211.15399999966,
      "d": 835.1579895833274,
      "v": 79
    },
    {
      "midi": 57,
      "hit": false,
      "t": 239211.15399999966,
      "d": 848.8491041666712,
      "v": 92
    },
    {
      "midi": 33,
      "hit": false,
      "t": 239211.15399999966,
      "d": 2074.203859375033,
      "v": 90
    },
    {
      "midi": 57,
      "hit": false,
      "t": 239211.15400000048,
      "d": 1300.6558854166651,
      "v": 100
    },
    {
      "midi": 61,
      "hit": false,
      "t": 239211.15400000048,
      "d": 1300.6558854166651,
      "v": 100
    },
    {
      "midi": 45,
      "hit": false,
      "t": 239868.32749999966,
      "d": 889.9224479166733,
      "v": 76
    },
    {
      "midi": 59,
      "hit": false,
      "t": 240525.50099999967,
      "d": 547.6445833333419,
      "v": 79
    },
    {
      "midi": 61,
      "hit": false,
      "t": 240525.50099999967,
      "d": 554.4901406250137,
      "v": 105
    },
    {
      "midi": 57,
      "hit": false,
      "t": 240525.50099999967,
      "d": 602.4090416666877,
      "v": 97
    },
    {
      "midi": 57,
      "hit": false,
      "t": 240525.50100000048,
      "d": 1300.6558854166651,
      "v": 100
    },
    {
      "midi": 61,
      "hit": false,
      "t": 240525.50100000048,
      "d": 1300.6558854166651,
      "v": 100
    },
    {
      "midi": 45,
      "hit": false,
      "t": 241182.6744999997,
      "d": 527.1079114583263,
      "v": 82
    },
    {
      "midi": 52,
      "hit": false,
      "t": 241839.8479999997,
      "d": 575.0268125000002,
      "v": 97
    },
    {
      "midi": 59,
      "hit": false,
      "t": 241839.8479999997,
      "d": 759.8568593749951,
      "v": 97
    },
    {
      "midi": 56,
      "hit": false,
      "t": 241839.8479999997,
      "d": 773.5479739583388,
      "v": 98
    },
    {
      "midi": 40,
      "hit": false,
      "t": 241839.8479999997,
      "d": 1567.6326197916642,
      "v": 92
    },
    {
      "midi": 52,
      "hit": false,
      "t": 241839.8480000005,
      "d": 1300.6558854166651,
      "v": 100
    },
    {
      "midi": 59,
      "hit": false,
      "t": 241839.8480000005,
      "d": 1300.6558854166651,
      "v": 100
    },
    {
      "midi": 59,
      "hit": false,
      "t": 243154.19499999972,
      "d": 746.1657447916514,
      "v": 101
    },
    {
      "midi": 52,
      "hit": false,
      "t": 243154.19499999972,
      "d": 753.0113020833232,
      "v": 95
    },
    {
      "midi": 56,
      "hit": false,
      "t": 243154.19499999972,
      "d": 759.8568593749951,
      "v": 105
    },
    {
      "midi": 52,
      "hit": false,
      "t": 243154.1950000005,
      "d": 1300.6558854166651,
      "v": 100
    },
    {
      "midi": 59,
      "hit": false,
      "t": 243154.1950000005,
      "d": 1300.6558854166651,
      "v": 100
    },
    {
      "midi": 40,
      "hit": false,
      "t": 243811.3684999997,
      "d": 992.605807291693,
      "v": 85
    },
    {
      "midi": 59,
      "hit": false,
      "t": 244468.54199999972,
      "d": 842.0035468749993,
      "v": 101
    },
    {
      "midi": 52,
      "hit": false,
      "t": 244468.54199999972,
      "d": 896.7680052083451,
      "v": 101
    },
    {
      "midi": 56,
      "hit": false,
      "t": 244468.54199999972,
      "d": 924.1502343750035,
      "v": 105
    },
    {
      "midi": 52,
      "hit": false,
      "t": 244468.5420000005,
      "d": 1300.6558854166651,
      "v": 100
    },
    {
      "midi": 59,
      "hit": false,
      "t": 244468.5420000005,
      "d": 1300.6558854166651,
      "v": 100
    },
    {
      "midi": 40,
      "hit": false,
      "t": 245125.71549999973,
      "d": 999.4513645833358,
      "v": 90
    },
    {
      "midi": 52,
      "hit": false,
      "t": 245782.88899999973,
      "d": 1225.3547552083328,
      "v": 105
    },
    {
      "midi": 56,
      "hit": false,
      "t": 245782.88899999973,
      "d": 1300.6558854166651,
      "v": 109
    },
    {
      "midi": 59,
      "hit": false,
      "t": 245782.88899999973,
      "d": 1300.6558854166651,
      "v": 107
    },
    {
      "midi": 52,
      "hit": false,
      "t": 245782.88900000052,
      "d": 1040.524708333338,
      "v": 100
    },
    {
      "midi": 59,
      "hit": false,
      "t": 245782.88900000052,
      "d": 1040.524708333338,
      "v": 100
    },
    {
      "midi": 40,
      "hit": false,
      "t": 246440.06249999974,
      "d": 650.3279427083326,
      "v": 94
    },
    {
      "midi": 63,
      "hit": false,
      "t": 247097.23599999974,
      "d": 643.4823854166607,
      "v": 101
    },
    {
      "midi": 59,
      "hit": false,
      "t": 247097.23599999974,
      "d": 718.783515624993,
      "v": 103
    },
    {
      "midi": 56,
      "hit": false,
      "t": 247097.23599999974,
      "d": 739.3201874999795,
      "v": 105
    },
    {
      "midi": 44,
      "hit": false,
      "t": 247097.23599999974,
      "d": 1547.0959479166486,
      "v": 109
    },
    {
      "midi": 63,
      "hit": false,
      "t": 248411.58299999972,
      "d": 629.7912708333461,
      "v": 90
    },
    {
      "midi": 59,
      "hit": false,
      "t": 248411.58299999972,
      "d": 739.3201875000086,
      "v": 101
    },
    {
      "midi": 56,
      "hit": false,
      "t": 248411.58299999972,
      "d": 773.5479739583388,
      "v": 109
    },
    {
      "midi": 44,
      "hit": false,
      "t": 249068.75649999973,
      "d": 944.68690624999,
      "v": 90
    },
    {
      "midi": 63,
      "hit": false,
      "t": 249725.92999999973,
      "d": 595.5634843749867,
      "v": 101
    },
    {
      "midi": 59,
      "hit": false,
      "t": 249725.92999999973,
      "d": 636.6368281249888,
      "v": 99
    },
    {
      "midi": 56,
      "hit": false,
      "t": 249725.92999999973,
      "d": 691.4012864583055,
      "v": 101
    },
    {
      "midi": 44,
      "hit": false,
      "t": 250383.1034999997,
      "d": 924.1502343750035,
      "v": 79
    },
    {
      "midi": 59,
      "hit": false,
      "t": 251040.2769999997,
      "d": 616.1001562500023,
      "v": 101
    },
    {
      "midi": 63,
      "hit": false,
      "t": 251040.2769999997,
      "d": 622.9457135416742,
      "v": 94
    },
    {
      "midi": 56,
      "hit": false,
      "t": 251040.2769999997,
      "d": 636.6368281250179,
      "v": 109
    },
    {
      "midi": 44,
      "hit": false,
      "t": 251697.45049999972,
      "d": 520.2623541666835,
      "v": 73
    },
    {
      "midi": 54,
      "hit": false,
      "t": 252354.62399999972,
      "d": 533.9534687499981,
      "v": 101
    },
    {
      "midi": 63,
      "hit": false,
      "t": 252354.62399999972,
      "d": 602.4090416666586,
      "v": 94
    },
    {
      "midi": 58,
      "hit": false,
      "t": 252354.62399999972,
      "d": 684.5557291666628,
      "v": 105
    },
    {
      "midi": 39,
      "hit": false,
      "t": 252354.62399999972,
      "d": 1430.7214739583433,
      "v": 90
    },
    {
      "midi": 63,
      "hit": false,
      "t": 253668.97099999973,
      "d": 807.7757604166691,
      "v": 101
    },
    {
      "midi": 58,
      "hit": false,
      "t": 253668.97099999973,
      "d": 835.1579895833274,
      "v": 98
    },
    {
      "midi": 54,
      "hit": false,
      "t": 253668.97099999973,
      "d": 869.3857760416577,
      "v": 105
    },
    {
      "midi": 39,
      "hit": false,
      "t": 254326.14449999973,
      "d": 937.8413489583181,
      "v": 75
    },
    {
      "midi": 63,
      "hit": false,
      "t": 254983.3179999997,
      "d": 595.5634843750158,
      "v": 94
    },
    {
      "midi": 54,
      "hit": false,
      "t": 254983.3179999997,
      "d": 602.4090416666877,
      "v": 101
    },
    {
      "midi": 58,
      "hit": false,
      "t": 254983.3179999997,
      "d": 602.4090416666877,
      "v": 101
    },
    {
      "midi": 39,
      "hit": false,
      "t": 255640.49149999974,
      "d": 924.1502343750035,
      "v": 71
    },
    {
      "midi": 63,
      "hit": false,
      "t": 256297.66499999975,
      "d": 588.717927083344,
      "v": 101
    },
    {
      "midi": 54,
      "hit": false,
      "t": 256297.66499999975,
      "d": 616.1001562500023,
      "v": 101
    },
    {
      "midi": 58,
      "hit": false,
      "t": 256297.66499999975,
      "d": 622.9457135416742,
      "v": 105
    },
    {
      "midi": 39,
      "hit": false,
      "t": 256954.83849999975,
      "d": 191.67560416666674,
      "v": 64
    },
    {
      "midi": 64,
      "hit": false,
      "t": 257612.01199999976,
      "d": 903.613562500017,
      "v": 107
    },
    {
      "midi": 57,
      "hit": false,
      "t": 257612.01199999976,
      "d": 951.532463541691,
      "v": 101
    },
    {
      "midi": 61,
      "hit": false,
      "t": 257612.01199999976,
      "d": 978.9146927083493,
      "v": 109
    },
    {
      "midi": 42,
      "hit": false,
      "t": 257612.01199999976,
      "d": 1601.8604062499944,
      "v": 101
    },
    {
      "midi": 64,
      "hit": false,
      "t": 258926.35899999976,
      "d": 636.6368281249888,
      "v": 107
    },
    {
      "midi": 57,
      "hit": false,
      "t": 258926.35899999976,
      "d": 664.0190572916472,
      "v": 103
    },
    {
      "midi": 61,
      "hit": false,
      "t": 258926.35899999976,
      "d": 664.0190572916472,
      "v": 105
    },
    {
      "midi": 42,
      "hit": false,
      "t": 259583.53249999974,
      "d": 123.22003125000629,
      "v": 66
    },
    {
      "midi": 63,
      "hit": false,
      "t": 260240.70599999974,
      "d": 657.1734999999753,
      "v": 94
    },
    {
      "midi": 60,
      "hit": false,
      "t": 260240.70599999974,
      "d": 746.1657447916514,
      "v": 97
    },
    {
      "midi": 56,
      "hit": false,
      "t": 260240.70599999974,
      "d": 800.9302031249972,
      "v": 105
    },
    {
      "midi": 44,
      "hit": false,
      "t": 260240.70599999974,
      "d": 1595.0148489583516,
      "v": 105
    },
    {
      "midi": 56,
      "hit": false,
      "t": 261555.05299999975,
      "d": 588.717927083344,
      "v": 109
    },
    {
      "midi": 60,
      "hit": false,
      "t": 261555.05299999975,
      "d": 602.4090416666877,
      "v": 95
    },
    {
      "midi": 63,
      "hit": false,
      "t": 261555.05299999975,
      "d": 636.6368281250179,
      "v": 92
    },
    {
      "midi": 44,
      "hit": false,
      "t": 262212.22649999976,
      "d": 575.0268125000293,
      "v": 77
    },
    {
      "midi": 64,
      "hit": false,
      "t": 262869.3999999998,
      "d": 670.864614583319,
      "v": 99
    },
    {
      "midi": 61,
      "hit": false,
      "t": 262869.3999999998,
      "d": 711.937958333292,
      "v": 101
    },
    {
      "midi": 56,
      "hit": false,
      "t": 262869.3999999998,
      "d": 807.77576041664,
      "v": 105
    },
    {
      "midi": 49,
      "hit": false,
      "t": 262869.3999999998,
      "d": 1663.470421874954,
      "v": 101
    },
    {
      "midi": 56,
      "hit": false,
      "t": 264183.74699999974,
      "d": 684.5557291666628,
      "v": 109
    },
    {
      "midi": 64,
      "hit": false,
      "t": 264183.74699999974,
      "d": 684.5557291666628,
      "v": 107
    },
    {
      "midi": 61,
      "hit": false,
      "t": 264183.74699999974,
      "d": 698.2468437500065,
      "v": 101
    },
    {
      "midi": 49,
      "hit": false,
      "t": 264840.9204999997,
      "d": 191.67560416669585,
      "v": 105
    },
    {
      "midi": 42,
      "hit": false,
      "t": 265498.09399999975,
      "d": 499.7256822916679,
      "v": 98
    },
    {
      "midi": 66,
      "hit": false,
      "t": 265498.09399999975,
      "d": 753.0113020833232,
      "v": 105
    },
    {
      "midi": 58,
      "hit": false,
      "t": 265498.09399999975,
      "d": 773.5479739583097,
      "v": 101
    },
    {
      "midi": 61,
      "hit": false,
      "t": 265498.09399999975,
      "d": 773.5479739583097,
      "v": 105
    },
    {
      "midi": 42,
      "hit": false,
      "t": 266155.2674999997,
      "d": 869.3857760416577,
      "v": 92
    },
    {
      "midi": 66,
      "hit": false,
      "t": 266812.4409999997,
      "d": 513.4167968750116,
      "v": 98
    },
    {
      "midi": 61,
      "hit": false,
      "t": 266812.4409999997,
      "d": 540.7990260416991,
      "v": 105
    },
    {
      "midi": 58,
      "hit": false,
      "t": 266812.4409999997,
      "d": 581.8723697916721,
      "v": 98
    },
    {
      "midi": 42,
      "hit": false,
      "t": 267469.61449999973,
      "d": 150.60226041666465,
      "v": 76
    },
    {
      "midi": 63,
      "hit": false,
      "t": 268126.78799999977,
      "d": 595.5634843750158,
      "v": 94
    },
    {
      "midi": 59,
      "hit": false,
      "t": 268126.78799999977,
      "d": 759.8568593750242,
      "v": 101
    },
    {
      "midi": 56,
      "hit": false,
      "t": 268126.78799999977,
      "d": 766.702416666667,
      "v": 109
    },
    {
      "midi": 44,
      "hit": false,
      "t": 268126.78799999977,
      "d": 1656.6248645833693,
      "v": 109
    },
    {
      "midi": 63,
      "hit": false,
      "t": 269441.1349999998,
      "d": 664.0190572916763,
      "v": 98
    },
    {
      "midi": 59,
      "hit": false,
      "t": 269441.1349999998,
      "d": 698.2468437500065,
      "v": 97
    },
    {
      "midi": 56,
      "hit": false,
      "t": 269441.1349999998,
      "d": 746.1657447916805,
      "v": 105
    },
    {
      "midi": 44,
      "hit": false,
      "t": 270098.3084999998,
      "d": 807.77576041664,
      "v": 77
    },
    {
      "midi": 63,
      "hit": false,
      "t": 270755.4819999998,
      "d": 629.7912708333461,
      "v": 98
    },
    {
      "midi": 56,
      "hit": false,
      "t": 270755.4819999998,
      "d": 698.2468437500065,
      "v": 105
    },
    {
      "midi": 59,
      "hit": false,
      "t": 270755.4819999998,
      "d": 705.0924010416493,
      "v": 101
    },
    {
      "midi": 44,
      "hit": false,
      "t": 271412.6554999998,
      "d": 944.6869062499609,
      "v": 76
    },
    {
      "midi": 63,
      "hit": false,
      "t": 272069.8289999998,
      "d": 527.1079114582972,
      "v": 92
    },
    {
      "midi": 59,
      "hit": false,
      "t": 272069.8289999998,
      "d": 533.9534687499399,
      "v": 101
    },
    {
      "midi": 56,
      "hit": false,
      "t": 272069.8289999998,
      "d": 547.6445833332837,
      "v": 105
    },
    {
      "midi": 44,
      "hit": false,
      "t": 272727.00249999977,
      "d": 547.6445833333419,
      "v": 92
    },
    {
      "midi": 54,
      "hit": false,
      "t": 273384.1759999998,
      "d": 547.6445833333419,
      "v": 105
    },
    {
      "midi": 58,
      "hit": false,
      "t": 273384.1759999998,
      "d": 657.1735000000335,
      "v": 101
    },
    {
      "midi": 63,
      "hit": false,
      "t": 273384.1759999998,
      "d": 670.8646145833773,
      "v": 98
    },
    {
      "midi": 39,
      "hit": false,
      "t": 273384.1759999998,
      "d": 1444.4125885417452,
      "v": 94
    },
    {
      "midi": 58,
      "hit": false,
      "t": 274698.52299999987,
      "d": 773.547973958368,
      "v": 98
    },
    {
      "midi": 63,
      "hit": false,
      "t": 274698.52299999987,
      "d": 773.547973958368,
      "v": 98
    },
    {
      "midi": 54,
      "hit": false,
      "t": 274698.52299999987,
      "d": 814.6213177083409,
      "v": 105
    },
    {
      "midi": 39,
      "hit": false,
      "t": 275355.6964999999,
      "d": 965.2235781249474,
      "v": 94
    },
    {
      "midi": 63,
      "hit": false,
      "t": 276012.8699999999,
      "d": 595.5634843749576,
      "v": 101
    },
    {
      "midi": 58,
      "hit": false,
      "t": 276012.8699999999,
      "d": 629.7912708332879,
      "v": 101
    },
    {
      "midi": 54,
      "hit": false,
      "t": 276012.8699999999,
      "d": 650.3279427082743,
      "v": 105
    },
    {
      "midi": 39,
      "hit": false,
      "t": 276670.0434999998,
      "d": 1074.752494791639,
      "v": 82
    },
    {
      "midi": 54,
      "hit": false,
      "t": 277327.2169999998,
      "d": 438.1156666666502,
      "v": 109
    },
    {
      "midi": 58,
      "hit": false,
      "t": 277327.2169999998,
      "d": 465.4978958333377,
      "v": 105
    },
    {
      "midi": 63,
      "hit": false,
      "t": 277327.2169999998,
      "d": 465.4978958333377,
      "v": 98
    },
    {
      "midi": 39,
      "hit": false,
      "t": 277984.39049999975,
      "d": 362.814536458347,
      "v": 79
    },
    {
      "midi": 64,
      "hit": false,
      "t": 278641.5639999998,
      "d": 896.7680052083451,
      "v": 103
    },
    {
      "midi": 57,
      "hit": false,
      "t": 278641.5639999998,
      "d": 917.3046770833316,
      "v": 101
    },
    {
      "midi": 61,
      "hit": false,
      "t": 278641.5639999998,
      "d": 972.0691354166484,
      "v": 105
    },
    {
      "midi": 42,
      "hit": false,
      "t": 278641.5639999998,
      "d": 1471.7948177083163,
      "v": 101
    },
    {
      "midi": 64,
      "hit": false,
      "t": 279955.9109999998,
      "d": 602.4090416666586,
      "v": 105
    },
    {
      "midi": 57,
      "hit": false,
      "t": 279955.9109999998,
      "d": 616.1001562500023,
      "v": 103
    },
    {
      "midi": 61,
      "hit": false,
      "t": 279955.9109999998,
      "d": 657.1734999999753,
      "v": 109
    },
    {
      "midi": 42,
      "hit": false,
      "t": 280613.08449999976,
      "d": 184.83004687499488,
      "v": 77
    },
    {
      "midi": 63,
      "hit": false,
      "t": 281270.25799999974,
      "d": 657.1734999999753,
      "v": 98
    },
    {
      "midi": 60,
      "hit": false,
      "t": 281270.25799999974,
      "d": 759.856859374966,
      "v": 99
    },
    {
      "midi": 56,
      "hit": false,
      "t": 281270.25799999974,
      "d": 787.2390885416535,
      "v": 109
    },
    {
      "midi": 44,
      "hit": false,
      "t": 281270.25799999974,
      "d": 1478.6403750000172,
      "v": 105
    },
    {
      "midi": 63,
      "hit": false,
      "t": 282584.60499999975,
      "d": 568.1812552083284,
      "v": 94
    },
    {
      "midi": 60,
      "hit": false,
      "t": 282584.60499999975,
      "d": 588.7179270833149,
      "v": 92
    },
    {
      "midi": 56,
      "hit": false,
      "t": 282584.60499999975,
      "d": 616.1001562500023,
      "v": 105
    },
    {
      "midi": 44,
      "hit": false,
      "t": 283241.7784999997,
      "d": 451.80678124999395,
      "v": 82
    },
    {
      "midi": 64,
      "hit": false,
      "t": 283898.95199999976,
      "d": 629.7912708333461,
      "v": 103
    },
    {
      "midi": 61,
      "hit": false,
      "t": 283898.95199999976,
      "d": 643.4823854166898,
      "v": 94
    },
    {
      "midi": 56,
      "hit": false,
      "t": 283898.95199999976,
      "d": 753.0113020833815,
      "v": 109
    },
    {
      "midi": 49,
      "hit": false,
      "t": 283898.95199999976,
      "d": 1588.169291666709,
      "v": 101
    },
    {
      "midi": 64,
      "hit": false,
      "t": 285213.2989999998,
      "d": 657.1734999999753,
      "v": 107
    },
    {
      "midi": 61,
      "hit": false,
      "t": 285213.2989999998,
      "d": 670.864614583319,
      "v": 105
    },
    {
      "midi": 56,
      "hit": false,
      "t": 285213.2989999998,
      "d": 684.5557291666628,
      "v": 105
    },
    {
      "midi": 49,
      "hit": false,
      "t": 285870.4724999998,
      "d": 1088.443609375041,
      "v": 101
    },
    {
      "midi": 64,
      "hit": false,
      "t": 286527.64599999983,
      "d": 664.0190572916763,
      "v": 107
    },
    {
      "midi": 61,
      "hit": false,
      "t": 286527.64599999983,
      "d": 677.71017187502,
      "v": 98
    },
    {
      "midi": 56,
      "hit": false,
      "t": 286527.64599999983,
      "d": 753.0113020833815,
      "v": 109
    },
    {
      "midi": 49,
      "hit": false,
      "t": 287184.81949999987,
      "d": 910.4591197916889,
      "v": 90
    },
    {
      "midi": 64,
      "hit": false,
      "t": 287841.9929999999,
      "d": 506.57123958331067,
      "v": 101
    },
    {
      "midi": 56,
      "hit": false,
      "t": 287841.9929999999,
      "d": 520.2623541666544,
      "v": 109
    },
    {
      "midi": 61,
      "hit": false,
      "t": 287841.9929999999,
      "d": 554.4901406249846,
      "v": 94
    },
    {
      "midi": 49,
      "hit": false,
      "t": 288499.1664999999,
      "d": 164.29337500000838,
      "v": 98
    },
    {
      "midi": 61,
      "hit": false,
      "t": 289156.33999999985,
      "d": 705.0924010416493,
      "v": 105
    },
    {
      "midi": 66,
      "hit": false,
      "t": 289156.33999999985,
      "d": 739.3201874999795,
      "v": 94
    },
    {
      "midi": 58,
      "hit": false,
      "t": 289156.33999999985,
      "d": 855.6946614583139,
      "v": 101
    },
    {
      "midi": 46,
      "hit": false,
      "t": 289156.33999999985,
      "d": 1403.3392447916558,
      "v": 101
    },
    {
      "midi": 61,
      "hit": false,
      "t": 290470.68699999986,
      "d": 766.702416666667,
      "v": 101
    },
    {
      "midi": 66,
      "hit": false,
      "t": 290470.68699999986,
      "d": 773.5479739583097,
      "v": 101
    },
    {
      "midi": 58,
      "hit": false,
      "t": 290470.68699999986,
      "d": 828.3124322916265,
      "v": 101
    },
    {
      "midi": 46,
      "hit": false,
      "t": 291127.86049999984,
      "d": 369.66009374998976,
      "v": 85
    },
    {
      "midi": 42,
      "hit": false,
      "t": 291785.0339999998,
      "d": 575.0268125000293,
      "v": 101
    },
    {
      "midi": 66,
      "hit": false,
      "t": 291785.0339999998,
      "d": 780.3935312500107,
      "v": 98
    },
    {
      "midi": 58,
      "hit": false,
      "t": 291785.0339999998,
      "d": 814.6213177083409,
      "v": 101
    },
    {
      "midi": 61,
      "hit": false,
      "t": 291785.0339999998,
      "d": 821.4668749999837,
      "v": 101
    },
    {
      "midi": 42,
      "hit": false,
      "t": 292442.20749999984,
      "d": 842.0035468749702,
      "v": 70
    },
    {
      "midi": 61,
      "hit": false,
      "t": 293099.3809999998,
      "d": 575.0268124999711,
      "v": 105
    },
    {
      "midi": 66,
      "hit": false,
      "t": 293099.3809999998,
      "d": 629.7912708332879,
      "v": 109
    },
    {
      "midi": 58,
      "hit": false,
      "t": 293099.3809999998,
      "d": 657.1734999999753,
      "v": 92
    },
    {
      "midi": 42,
      "hit": false,
      "t": 293756.5544999998,
      "d": 513.4167968750116,
      "v": 90
    },
    {
      "midi": 63,
      "hit": false,
      "t": 294413.7279999998,
      "d": 684.555729166721,
      "v": 92
    },
    {
      "midi": 59,
      "hit": false,
      "t": 294413.7279999998,
      "d": 828.3124322917429,
      "v": 101
    },
    {
      "midi": 56,
      "hit": false,
      "t": 294413.7279999998,
      "d": 848.8491041667294,
      "v": 98
    },
    {
      "midi": 44,
      "hit": false,
      "t": 294413.7279999998,
      "d": 1355.42034375004,
      "v": 101
    },
    {
      "midi": 56,
      "hit": false,
      "t": 295728.0749999999,
      "d": 732.4746302083367,
      "v": 109
    },
    {
      "midi": 63,
      "hit": false,
      "t": 295728.0749999999,
      "d": 732.4746302083367,
      "v": 105
    },
    {
      "midi": 59,
      "hit": false,
      "t": 295728.0749999999,
      "d": 753.0113020833232,
      "v": 103
    },
    {
      "midi": 44,
      "hit": false,
      "t": 296385.24849999987,
      "d": 438.1156666667084,
      "v": 92
    },
    {
      "midi": 42,
      "hit": false,
      "t": 296713.8352499999,
      "d": 246.44006250001257,
      "v": 69
    },
    {
      "midi": 59,
      "hit": false,
      "t": 297042.4219999999,
      "d": 739.3201874999795,
      "v": 101
    },
    {
      "midi": 64,
      "hit": false,
      "t": 297042.4219999999,
      "d": 753.0113020833232,
      "v": 103
    },
    {
      "midi": 56,
      "hit": false,
      "t": 297042.4219999999,
      "d": 930.9957916666754,
      "v": 105
    },
    {
      "midi": 40,
      "hit": false,
      "t": 297042.4219999999,
      "d": 1841.4549114583642,
      "v": 99
    },
    {
      "midi": 56,
      "hit": false,
      "t": 298356.7689999999,
      "d": 540.7990260416991,
      "v": 109
    },
    {
      "midi": 59,
      "hit": false,
      "t": 298356.7689999999,
      "d": 547.6445833333419,
      "v": 95
    },
    {
      "midi": 64,
      "hit": false,
      "t": 298356.7689999999,
      "d": 568.1812552083284,
      "v": 101
    },
    {
      "midi": 40,
      "hit": false,
      "t": 299013.9424999999,
      "d": 157.4478177083074,
      "v": 81
    },
    {
      "midi": 63,
      "hit": false,
      "t": 299671.11599999986,
      "d": 896.7680052083451,
      "v": 90
    },
    {
      "midi": 66,
      "hit": false,
      "t": 299671.11599999986,
      "d": 896.7680052083451,
      "v": 98
    },
    {
      "midi": 59,
      "hit": false,
      "t": 299671.11599999986,
      "d": 910.4591197916889,
      "v": 101
    },
    {
      "midi": 42,
      "hit": false,
      "t": 299671.11599999986,
      "d": 1636.0881927083246,
      "v": 101
    },
    {
      "midi": 66,
      "hit": false,
      "t": 300985.4629999999,
      "d": 520.2623541666544,
      "v": 101
    },
    {
      "midi": 59,
      "hit": false,
      "t": 300985.4629999999,
      "d": 581.8723697916721,
      "v": 97
    },
    {
      "midi": 63,
      "hit": false,
      "t": 300985.4629999999,
      "d": 581.8723697916721,
      "v": 101
    },
    {
      "midi": 42,
      "hit": false,
      "t": 301642.6364999999,
      "d": 479.1890104166814,
      "v": 94
    },
    {
      "midi": 63,
      "hit": false,
      "t": 302299.8099999999,
      "d": 896.7680052083451,
      "v": 90
    },
    {
      "midi": 61,
      "hit": false,
      "t": 302299.8099999999,
      "d": 951.5324635416619,
      "v": 90
    },
    {
      "midi": 54,
      "hit": false,
      "t": 302299.8099999999,
      "d": 972.0691354166484,
      "v": 101
    },
    {
      "midi": 58,
      "hit": false,
      "t": 302299.8099999999,
      "d": 999.4513645833358,
      "v": 92
    },
    {
      "midi": 42,
      "hit": false,
      "t": 302299.8099999999,
      "d": 1533.404833333334,
      "v": 98
    },
    {
      "midi": 63,
      "hit": false,
      "t": 303614.1569999999,
      "d": 643.4823854166316,
      "v": 90
    },
    {
      "midi": 54,
      "hit": false,
      "t": 303614.1569999999,
      "d": 664.0190572916181,
      "v": 101
    },
    {
      "midi": 61,
      "hit": false,
      "t": 303614.1569999999,
      "d": 677.7101718749618,
      "v": 92
    },
    {
      "midi": 58,
      "hit": false,
      "t": 303614.1569999999,
      "d": 698.2468437499483,
      "v": 92
    },
    {
      "midi": 42,
      "hit": false,
      "t": 304271.33049999987,
      "d": 465.4978958332795,
      "v": 92
    },
    {
      "midi": 63,
      "hit": false,
      "t": 304928.50399999984,
      "d": 670.8646145833773,
      "v": 101
    },
    {
      "midi": 56,
      "hit": false,
      "t": 304928.50399999984,
      "d": 698.2468437500647,
      "v": 109
    },
    {
      "midi": 59,
      "hit": false,
      "t": 304928.50399999984,
      "d": 766.7024166667252,
      "v": 101
    },
    {
      "midi": 44,
      "hit": false,
      "t": 304928.50399999984,
      "d": 1697.6982083334005,
      "v": 109
    },
    {
      "midi": 63,
      "hit": false,
      "t": 306242.8509999999,
      "d": 616.1001562500023,
      "v": 105
    },
    {
      "midi": 56,
      "hit": false,
      "t": 306242.8509999999,
      "d": 664.0190572916181,
      "v": 105
    },
    {
      "midi": 59,
      "hit": false,
      "t": 306242.8509999999,
      "d": 691.4012864583055,
      "v": 99
    },
    {
      "midi": 44,
      "hit": false,
      "t": 306900.0244999999,
      "d": 2286.416135416599,
      "v": 73
    },
    {
      "midi": 63,
      "hit": false,
      "t": 307557.19799999986,
      "d": 657.1734999999753,
      "v": 98
    },
    {
      "midi": 56,
      "hit": false,
      "t": 307557.19799999986,
      "d": 889.9224479166442,
      "v": 105
    },
    {
      "midi": 59,
      "hit": false,
      "t": 307557.19799999986,
      "d": 889.9224479166442,
      "v": 101
    },
    {
      "midi": 63,
      "hit": false,
      "t": 308871.5449999998,
      "d": 533.9534687499981,
      "v": 98
    },
    {
      "midi": 59,
      "hit": false,
      "t": 308871.5449999998,
      "d": 547.6445833333419,
      "v": 103
    },
    {
      "midi": 56,
      "hit": false,
      "t": 308871.5449999998,
      "d": 568.1812552083284,
      "v": 109
    },
    {
      "midi": 44,
      "hit": false,
      "t": 309528.7184999998,
      "d": 95.83780208334792,
      "v": 68
    },
    {
      "midi": 63,
      "hit": false,
      "t": 310185.8919999998,
      "d": 622.9457135417033,
      "v": 98
    },
    {
      "midi": 58,
      "hit": false,
      "t": 310185.8919999998,
      "d": 698.2468437500647,
      "v": 101
    },
    {
      "midi": 54,
      "hit": false,
      "t": 310185.8919999998,
      "d": 725.6290729167522,
      "v": 109
    },
    {
      "midi": 39,
      "hit": false,
      "t": 310185.8919999998,
      "d": 2081.0494166667922,
      "v": 101
    },
    {
      "midi": 63,
      "hit": false,
      "t": 311500.2389999999,
      "d": 376.5056510416907,
      "v": 101
    },
    {
      "midi": 54,
      "hit": false,
      "t": 311500.2389999999,
      "d": 438.1156666667084,
      "v": 98
    },
    {
      "midi": 58,
      "hit": false,
      "t": 311500.2389999999,
      "d": 438.1156666667084,
      "v": 109
    },
    {
      "midi": 63,
      "hit": false,
      "t": 312814.58599999995,
      "d": 581.8723697916721,
      "v": 101
    },
    {
      "midi": 54,
      "hit": false,
      "t": 312814.58599999995,
      "d": 595.5634843750158,
      "v": 105
    },
    {
      "midi": 58,
      "hit": false,
      "t": 312814.58599999995,
      "d": 629.7912708333461,
      "v": 101
    },
    {
      "midi": 54,
      "hit": false,
      "t": 314128.93299999996,
      "d": 355.968979166646,
      "v": 105
    },
    {
      "midi": 58,
      "hit": false,
      "t": 314128.93299999996,
      "d": 362.8145364582888,
      "v": 98
    },
    {
      "midi": 63,
      "hit": false,
      "t": 314128.93299999996,
      "d": 383.3512083332753,
      "v": 94
    },
    {
      "midi": 64,
      "hit": false,
      "t": 315443.2799999999,
      "d": 698.2468437500065,
      "v": 101
    },
    {
      "midi": 61,
      "hit": false,
      "t": 315443.2799999999,
      "d": 739.3201874999795,
      "v": 101
    },
    {
      "midi": 57,
      "hit": false,
      "t": 315443.2799999999,
      "d": 780.3935312499525,
      "v": 99
    },
    {
      "midi": 42,
      "hit": false,
      "t": 315443.2799999999,
      "d": 1971.5204999999842,
      "v": 101
    },
    {
      "midi": 64,
      "hit": false,
      "t": 316757.62699999986,
      "d": 527.1079114583554,
      "v": 103
    },
    {
      "midi": 57,
      "hit": false,
      "t": 316757.62699999986,
      "d": 568.1812552083284,
      "v": 101
    },
    {
      "midi": 61,
      "hit": false,
      "t": 316757.62699999986,
      "d": 595.5634843750158,
      "v": 101
    },
    {
      "midi": 63,
      "hit": false,
      "t": 318071.9739999999,
      "d": 547.6445833333419,
      "v": 92
    },
    {
      "midi": 60,
      "hit": false,
      "t": 318071.9739999999,
      "d": 602.4090416666586,
      "v": 92
    },
    {
      "midi": 56,
      "hit": false,
      "t": 318071.9739999999,
      "d": 636.6368281249888,
      "v": 105
    },
    {
      "midi": 44,
      "hit": false,
      "t": 318071.9739999999,
      "d": 1855.146026041708,
      "v": 105
    },
    {
      "midi": 56,
      "hit": false,
      "t": 319386.3209999999,
      "d": 397.0423229166772,
      "v": 109
    },
    {
      "midi": 60,
      "hit": false,
      "t": 319386.3209999999,
      "d": 424.4245520833647,
      "v": 92
    },
    {
      "midi": 63,
      "hit": false,
      "t": 319386.3209999999,
      "d": 424.4245520833647,
      "v": 98
    },
    {
      "midi": 56,
      "hit": false,
      "t": 320700.6679999999,
      "d": 540.7990260416991,
      "v": 105
    },
    {
      "midi": 61,
      "hit": false,
      "t": 320700.6679999999,
      "d": 554.4901406250428,
      "v": 94
    },
    {
      "midi": 64,
      "hit": false,
      "t": 320700.6679999999,
      "d": 554.4901406250428,
      "v": 99
    },
    {
      "midi": 49,
      "hit": false,
      "t": 320700.6679999999,
      "d": 2656.076229166705,
      "v": 109
    },
    {
      "midi": 56,
      "hit": false,
      "t": 322015.01499999996,
      "d": 506.57123958331067,
      "v": 109
    },
    {
      "midi": 61,
      "hit": false,
      "t": 322015.01499999996,
      "d": 513.4167968749534,
      "v": 94
    },
    {
      "midi": 64,
      "hit": false,
      "t": 322015.01499999996,
      "d": 533.9534687499399,
      "v": 103
    },
    {
      "midi": 64,
      "hit": false,
      "t": 323329.3619999999,
      "d": 438.1156666667084,
      "v": 105
    },
    {
      "midi": 61,
      "hit": false,
      "t": 323329.3619999999,
      "d": 465.4978958333959,
      "v": 98
    },
    {
      "midi": 56,
      "hit": false,
      "t": 323329.3619999999,
      "d": 486.0345677083824,
      "v": 105
    },
    {
      "midi": 64,
      "hit": false,
      "t": 324643.709,
      "d": 568.1812552083284,
      "v": 101
    },
    {
      "midi": 56,
      "hit": false,
      "t": 324643.709,
      "d": 609.2545989583014,
      "v": 105
    },
    {
      "midi": 61,
      "hit": false,
      "t": 324643.709,
      "d": 629.7912708332879,
      "v": 92
    },
    {
      "midi": 66,
      "hit": false,
      "t": 325958.0559999999,
      "d": 773.547973958368,
      "v": 98
    },
    {
      "midi": 61,
      "hit": false,
      "t": 325958.0559999999,
      "d": 780.3935312500107,
      "v": 98
    },
    {
      "midi": 58,
      "hit": false,
      "t": 325958.0559999999,
      "d": 862.5402187500149,
      "v": 105
    },
    {
      "midi": 46,
      "hit": false,
      "t": 325958.0559999999,
      "d": 1499.1770468750037,
      "v": 105
    },
    {
      "midi": 61,
      "hit": false,
      "t": 327272.40299999993,
      "d": 814.6213177083409,
      "v": 105
    },
    {
      "midi": 66,
      "hit": false,
      "t": 327272.40299999993,
      "d": 814.6213177083409,
      "v": 105
    },
    {
      "midi": 58,
      "hit": false,
      "t": 327272.40299999993,
      "d": 855.6946614583139,
      "v": 105
    },
    {
      "midi": 66,
      "hit": false,
      "t": 328586.7499999999,
      "d": 739.3201875000377,
      "v": 98
    },
    {
      "midi": 61,
      "hit": false,
      "t": 328586.7499999999,
      "d": 821.4668750000419,
      "v": 98
    },
    {
      "midi": 58,
      "hit": false,
      "t": 328586.7499999999,
      "d": 842.0035468750284,
      "v": 87
    },
    {
      "midi": 42,
      "hit": false,
      "t": 328586.7499999999,
      "d": 2087.8949739583186,
      "v": 94
    },
    {
      "midi": 61,
      "hit": false,
      "t": 329901.0969999999,
      "d": 677.71017187502,
      "v": 101
    },
    {
      "midi": 66,
      "hit": false,
      "t": 329901.0969999999,
      "d": 732.4746302083367,
      "v": 105
    },
    {
      "midi": 58,
      "hit": false,
      "t": 329901.0969999999,
      "d": 753.0113020833232,
      "v": 98
    },
    {
      "midi": 63,
      "hit": false,
      "t": 331215.44399999984,
      "d": 670.8646145833773,
      "v": 94
    },
    {
      "midi": 59,
      "hit": false,
      "t": 331215.44399999984,
      "d": 711.9379583333503,
      "v": 95
    },
    {
      "midi": 56,
      "hit": false,
      "t": 331215.44399999984,
      "d": 766.702416666667,
      "v": 105
    },
    {
      "midi": 44,
      "hit": false,
      "t": 331215.44399999984,
      "d": 1451.2581458333298,
      "v": 105
    },
    {
      "midi": 63,
      "hit": false,
      "t": 332529.79099999985,
      "d": 1074.7524947915808,
      "v": 105
    },
    {
      "midi": 56,
      "hit": false,
      "t": 332529.79099999985,
      "d": 1115.8258385415538,
      "v": 105
    },
    {
      "midi": 59,
      "hit": false,
      "t": 332529.79099999985,
      "d": 1177.4358541665715,
      "v": 101
    },
    {
      "midi": 44,
      "hit": false,
      "t": 333186.9644999998,
      "d": 308.05007812497206,
      "v": 90
    },
    {
      "midi": 42,
      "hit": false,
      "t": 333515.5512499998,
      "d": 246.44006249995437,
      "v": 71
    },
    {
      "midi": 56,
      "hit": false,
      "t": 333844.13799999974,
      "d": 684.5557291666628,
      "v": 105
    },
    {
      "midi": 64,
      "hit": false,
      "t": 333844.13799999974,
      "d": 705.0924010416493,
      "v": 101
    },
    {
      "midi": 59,
      "hit": false,
      "t": 333844.13799999974,
      "d": 732.4746302083367,
      "v": 99
    },
    {
      "midi": 40,
      "hit": false,
      "t": 333844.13799999974,
      "d": 2224.8061197916977,
      "v": 95
    },
    {
      "midi": 56,
      "hit": false,
      "t": 335158.48499999975,
      "d": 513.4167968750116,
      "v": 109
    },
    {
      "midi": 59,
      "hit": false,
      "t": 335158.48499999975,
      "d": 527.1079114583554,
      "v": 99
    },
    {
      "midi": 64,
      "hit": false,
      "t": 335158.48499999975,
      "d": 561.3356979166856,
      "v": 99
    },
    {
      "midi": 66,
      "hit": false,
      "t": 336472.8319999998,
      "d": 766.702416666667,
      "v": 101
    },
    {
      "midi": 59,
      "hit": false,
      "t": 336472.8319999998,
      "d": 835.1579895833274,
      "v": 101
    },
    {
      "midi": 63,
      "hit": false,
      "t": 336472.8319999998,
      "d": 869.3857760416577,
      "v": 90
    },
    {
      "midi": 42,
      "hit": false,
      "t": 336472.8319999998,
      "d": 1485.48593229166,
      "v": 105
    },
    {
      "midi": 66,
      "hit": false,
      "t": 337787.1789999998,
      "d": 739.3201874999795,
      "v": 105
    },
    {
      "midi": 59,
      "hit": false,
      "t": 337787.1789999998,
      "d": 766.702416666667,
      "v": 99
    },
    {
      "midi": 63,
      "hit": false,
      "t": 337787.1789999998,
      "d": 855.6946614583139,
      "v": 94
    },
    {
      "midi": 42,
      "hit": false,
      "t": 338444.3524999998,
      "d": 533.9534687499981,
      "v": 101
    },
    {
      "midi": 42,
      "hit": false,
      "t": 339101.5259999998,
      "d": 1978.366057291627,
      "v": 94
    },
    {
      "midi": 66,
      "hit": false,
      "t": 339101.5259999998,
      "d": 1985.2116145832697,
      "v": 92
    },
    {
      "midi": 61,
      "hit": false,
      "t": 339101.5259999998,
      "d": 1992.0571718749125,
      "v": 105
    },
    {
      "midi": 58,
      "hit": false,
      "t": 339101.5259999998,
      "d": 2005.7482864582562,
      "v": 94
    },
    {
      "midi": 62,
      "hit": false,
      "t": 341730.2199999997,
      "d": 657.1735000000335,
      "v": 97
    },
    {
      "midi": 66,
      "hit": false,
      "t": 341730.2199999997,
      "d": 746.1657447916805,
      "v": 90
    },
    {
      "midi": 59,
      "hit": false,
      "t": 341730.2199999997,
      "d": 889.9224479167024,
      "v": 88
    },
    {
      "midi": 43,
      "hit": false,
      "t": 341730.2199999997,
      "d": 2170.041661458323,
      "v": 68
    },
    {
      "midi": 66,
      "hit": false,
      "t": 343044.5669999997,
      "d": 889.9224479166442,
      "v": 101
    },
    {
      "midi": 62,
      "hit": false,
      "t": 343044.5669999997,
      "d": 951.5324635416619,
      "v": 105
    },
    {
      "midi": 59,
      "hit": false,
      "t": 343044.5669999997,
      "d": 992.6058072916348,
      "v": 97
    },
    {
      "midi": 57,
      "hit": false,
      "t": 344358.91399999964,
      "d": 1054.2158229166525,
      "v": 95
    },
    {
      "midi": 61,
      "hit": false,
      "t": 344358.91399999964,
      "d": 1136.3625104166567,
      "v": 101
    },
    {
      "midi": 64,
      "hit": false,
      "t": 344358.91399999964,
      "d": 1177.4358541666297,
      "v": 103
    },
    {
      "midi": 45,
      "hit": false,
      "t": 344358.91399999964,
      "d": 1725.0804374999716,
      "v": 81
    },
    {
      "midi": 57,
      "hit": false,
      "t": 345673.2609999996,
      "d": 568.1812552083284,
      "v": 94
    },
    {
      "midi": 64,
      "hit": false,
      "t": 345673.2609999996,
      "d": 616.1001562500023,
      "v": 105
    },
    {
      "midi": 61,
      "hit": false,
      "t": 345673.2609999996,
      "d": 622.9457135416451,
      "v": 109
    },
    {
      "midi": 66,
      "hit": false,
      "t": 346987.6079999996,
      "d": 999.4513645833358,
      "v": 105
    },
    {
      "midi": 59,
      "hit": false,
      "t": 346987.6079999996,
      "d": 1006.2969218749786,
      "v": 99
    },
    {
      "midi": 63,
      "hit": false,
      "t": 346987.6079999996,
      "d": 1040.5247083333088,
      "v": 101
    },
    {
      "midi": 47,
      "hit": false,
      "t": 346987.6079999996,
      "d": 2539.7017552082543,
      "v": 85
    },
    {
      "midi": 59,
      "hit": false,
      "t": 348301.95499999955,
      "d": 1136.3625104166567,
      "v": 101
    },
    {
      "midi": 66,
      "hit": false,
      "t": 348301.95499999955,
      "d": 1136.3625104166567,
      "v": 101
    },
    {
      "midi": 63,
      "hit": false,
      "t": 348301.95499999955,
      "d": 1177.4358541666297,
      "v": 109
    },
    {
      "midi": 59,
      "hit": false,
      "t": 349616.3019999995,
      "d": 1047.3702656250098,
      "v": 103
    },
    {
      "midi": 66,
      "hit": false,
      "t": 349616.3019999995,
      "d": 1061.0613802083535,
      "v": 105
    },
    {
      "midi": 63,
      "hit": false,
      "t": 349616.3019999995,
      "d": 1088.443609375041,
      "v": 105
    },
    {
      "midi": 66,
      "hit": false,
      "t": 350930.64899999957,
      "d": 794.0846458333544,
      "v": 101
    },
    {
      "midi": 59,
      "hit": false,
      "t": 350930.64899999957,
      "d": 821.4668750000419,
      "v": 92
    },
    {
      "midi": 63,
      "hit": false,
      "t": 350930.64899999957,
      "d": 842.0035468750284,
      "v": 98
    },
    {
      "midi": 66,
      "hit": false,
      "t": 352244.9959999996,
      "d": 978.9146927082911,
      "v": 90
    },
    {
      "midi": 59,
      "hit": false,
      "t": 352244.9959999996,
      "d": 1006.2969218749786,
      "v": 92
    },
    {
      "midi": 62,
      "hit": false,
      "t": 352244.9959999996,
      "d": 1047.3702656249516,
      "v": 94
    },
    {
      "midi": 43,
      "hit": false,
      "t": 352244.9959999996,
      "d": 2327.489479166572,
      "v": 83
    },
    {
      "midi": 66,
      "hit": false,
      "t": 353559.3429999995,
      "d": 773.5479739583097,
      "v": 105
    },
    {
      "midi": 62,
      "hit": false,
      "t": 353559.3429999995,
      "d": 862.5402187499567,
      "v": 99
    },
    {
      "midi": 59,
      "hit": false,
      "t": 353559.3429999995,
      "d": 992.6058072916348,
      "v": 101
    },
    {
      "midi": 57,
      "hit": false,
      "t": 354873.6899999995,
      "d": 1519.7137187499902,
      "v": 92
    },
    {
      "midi": 64,
      "hit": false,
      "t": 354873.6899999995,
      "d": 1533.404833333334,
      "v": 97
    },
    {
      "midi": 61,
      "hit": false,
      "t": 354873.6899999995,
      "d": 1567.6326197916642,
      "v": 92
    },
    {
      "midi": 45,
      "hit": false,
      "t": 354873.6899999995,
      "d": 1622.397078124981,
      "v": 95
    },
    {
      "midi": 59,
      "hit": false,
      "t": 357502.38399999944,
      "d": 7003.0051093749935,
      "v": 90
    },
    {
      "midi": 63,
      "hit": false,
      "t": 357502.38399999944,
      "d": 7050.924010416667,
      "v": 92
    },
    {
      "midi": 35,
      "hit": false,
      "t": 357502.38399999944,
      "d": 7064.615125000011,
      "v": 86
    },
    {
      "midi": 66,
      "hit": false,
      "t": 357502.38399999944,
      "d": 7064.615125000011,
      "v": 90
    }
  ]
}