{
  "jsonPath": "Ambient/Lounge/Michael Bublé/always-on-my-mind-album-version.json",
  "path": "Ambient\\Lounge\\Michael Bublé\\Always On My Mind (Album Version).mid",
  "name": "Always On My Mind (Album Version)",
  "difficulty": "Advanced",
  "bpm": 65.00013541694878,
  "notes": [
    {
      "midi": 64,
      "hit": false,
      "t": 7382.676927083334,
      "d": 1828.8423437499987,
      "v": 103
    },
    {
      "midi": 69,
      "hit": false,
      "t": 7384.6,
      "d": 3673.0692708333318,
      "v": 103
    },
    {
      "midi": 59,
      "hit": false,
      "t": 7386.523072916667,
      "d": 3671.146197916665,
      "v": 103
    },
    {
      "midi": 38,
      "hit": false,
      "t": 7388.4461458333335,
      "d": 3669.2231249999986,
      "v": 103
    },
    {
      "midi": 54,
      "hit": false,
      "t": 7388.4461458333335,
      "d": 3669.2231249999986,
      "v": 103
    },
    {
      "midi": 50,
      "hit": false,
      "t": 7390.36921875,
      "d": 3667.300052083332,
      "v": 103
    },
    {
      "midi": 61,
      "hit": false,
      "t": 8307.675,
      "d": 903.8442708333332,
      "v": 91
    },
    {
      "midi": 81,
      "hit": false,
      "t": 8774.98171875,
      "d": 2282.687552083333,
      "v": 90
    },
    {
      "midi": 57,
      "hit": false,
      "t": 9228.826927083332,
      "d": 1828.8423437500005,
      "v": 64
    },
    {
      "midi": 61,
      "hit": false,
      "t": 9230.749999999998,
      "d": 1826.919270833334,
      "v": 64
    },
    {
      "midi": 64,
      "hit": false,
      "t": 9232.673072916665,
      "d": 1824.9961979166674,
      "v": 64
    },
    {
      "midi": 93,
      "hit": false,
      "t": 9694.210572916665,
      "d": 1363.458697916667,
      "v": 90
    },
    {
      "midi": 91,
      "hit": false,
      "t": 10617.285572916666,
      "d": 440.3836979166663,
      "v": 90
    },
    {
      "midi": 62,
      "hit": false,
      "t": 11071.130781249998,
      "d": 909.6134895833329,
      "v": 103
    },
    {
      "midi": 59,
      "hit": false,
      "t": 11073.053854166665,
      "d": 907.6904166666664,
      "v": 103
    },
    {
      "midi": 55,
      "hit": false,
      "t": 11076.899999999998,
      "d": 3673.06927083333,
      "v": 103
    },
    {
      "midi": 43,
      "hit": false,
      "t": 11078.823072916664,
      "d": 3671.1461979166634,
      "v": 103
    },
    {
      "midi": 90,
      "hit": false,
      "t": 11532.668281249998,
      "d": 3217.3009895833293,
      "v": 89
    },
    {
      "midi": 59,
      "hit": false,
      "t": 11994.205781249997,
      "d": 909.6134895833329,
      "v": 71
    },
    {
      "midi": 66,
      "hit": false,
      "t": 11996.128854166664,
      "d": 907.6904166666664,
      "v": 71
    },
    {
      "midi": 62,
      "hit": false,
      "t": 11999.974999999997,
      "d": 903.8442708333332,
      "v": 71
    },
    {
      "midi": 81,
      "hit": false,
      "t": 12463.435572916664,
      "d": 2286.533697916664,
      "v": 92
    },
    {
      "midi": 62,
      "hit": false,
      "t": 12919.203854166662,
      "d": 1830.7654166666653,
      "v": 65
    },
    {
      "midi": 59,
      "hit": false,
      "t": 12926.896145833329,
      "d": 899.9981250000001,
      "v": 65
    },
    {
      "midi": 66,
      "hit": false,
      "t": 12926.896145833329,
      "d": 1823.073124999999,
      "v": 65
    },
    {
      "midi": 88,
      "hit": false,
      "t": 13386.510572916663,
      "d": 1363.4586979166652,
      "v": 91
    },
    {
      "midi": 59,
      "hit": false,
      "t": 13851.894218749996,
      "d": 898.0750520833317,
      "v": 67
    },
    {
      "midi": 79,
      "hit": false,
      "t": 14301.893281249995,
      "d": 448.07598958333256,
      "v": 89
    },
    {
      "midi": 61,
      "hit": false,
      "t": 14763.430781249994,
      "d": 909.6134895833329,
      "v": 103
    },
    {
      "midi": 78,
      "hit": false,
      "t": 14765.35385416666,
      "d": 3676.915416666663,
      "v": 103
    },
    {
      "midi": 38,
      "hit": false,
      "t": 14769.199999999993,
      "d": 3673.06927083333,
      "v": 103
    },
    {
      "midi": 54,
      "hit": false,
      "t": 14771.12307291666,
      "d": 901.9211979166666,
      "v": 103
    },
    {
      "midi": 57,
      "hit": false,
      "t": 14771.12307291666,
      "d": 901.9211979166666,
      "v": 103
    },
    {
      "midi": 57,
      "hit": false,
      "t": 15690.351927083326,
      "d": 2751.9173437499976,
      "v": 71
    },
    {
      "midi": 54,
      "hit": false,
      "t": 15692.274999999992,
      "d": 2749.994270833331,
      "v": 71
    },
    {
      "midi": 61,
      "hit": false,
      "t": 15698.044218749992,
      "d": 1821.1500520833342,
      "v": 71
    },
    {
      "midi": 85,
      "hit": false,
      "t": 16148.043281249993,
      "d": 2294.2259895833304,
      "v": 90
    },
    {
      "midi": 81,
      "hit": false,
      "t": 17076.887499999993,
      "d": 1365.38177083333,
      "v": 90
    },
    {
      "midi": 61,
      "hit": false,
      "t": 17532.655781249992,
      "d": 909.6134895833311,
      "v": 62
    },
    {
      "midi": 76,
      "hit": false,
      "t": 17999.96249999999,
      "d": 442.30677083333285,
      "v": 90
    },
    {
      "midi": 78,
      "hit": false,
      "t": 18459.576927083323,
      "d": 3674.99234375,
      "v": 103
    },
    {
      "midi": 62,
      "hit": false,
      "t": 18461.49999999999,
      "d": 903.844270833335,
      "v": 103
    },
    {
      "midi": 59,
      "hit": false,
      "t": 18465.346145833322,
      "d": 899.9981250000019,
      "v": 103
    },
    {
      "midi": 43,
      "hit": false,
      "t": 18465.346145833322,
      "d": 3669.2231250000004,
      "v": 103
    },
    {
      "midi": 55,
      "hit": false,
      "t": 18465.346145833322,
      "d": 3669.2231250000004,
      "v": 103
    },
    {
      "midi": 66,
      "hit": false,
      "t": 19378.80578124999,
      "d": 2755.7634895833326,
      "v": 71
    },
    {
      "midi": 59,
      "hit": false,
      "t": 19380.728854166657,
      "d": 2753.840416666666,
      "v": 71
    },
    {
      "midi": 62,
      "hit": false,
      "t": 19390.34421874999,
      "d": 2744.225052083333,
      "v": 71
    },
    {
      "midi": 38,
      "hit": false,
      "t": 22151.87692708332,
      "d": 3674.99234375,
      "v": 103
    },
    {
      "midi": 54,
      "hit": false,
      "t": 22155.723072916655,
      "d": 3671.146197916667,
      "v": 103
    },
    {
      "midi": 61,
      "hit": false,
      "t": 22157.64614583332,
      "d": 3669.2231250000004,
      "v": 103
    },
    {
      "midi": 69,
      "hit": false,
      "t": 22157.64614583332,
      "d": 3669.2231250000004,
      "v": 103
    },
    {
      "midi": 64,
      "hit": false,
      "t": 22159.569218749988,
      "d": 3667.300052083334,
      "v": 103
    },
    {
      "midi": 69,
      "hit": false,
      "t": 25842.253854166654,
      "d": 1830.7654166666653,
      "v": 103
    },
    {
      "midi": 62,
      "hit": false,
      "t": 25844.17692708332,
      "d": 3674.9923437499965,
      "v": 103
    },
    {
      "midi": 66,
      "hit": false,
      "t": 25846.099999999988,
      "d": 3673.06927083333,
      "v": 103
    },
    {
      "midi": 67,
      "hit": false,
      "t": 25846.099999999988,
      "d": 3673.06927083333,
      "v": 103
    },
    {
      "midi": 45,
      "hit": false,
      "t": 25849.94614583332,
      "d": 3669.223124999997,
      "v": 103
    },
    {
      "midi": 57,
      "hit": false,
      "t": 25849.94614583332,
      "d": 3669.223124999997,
      "v": 103
    },
    {
      "midi": 59,
      "hit": false,
      "t": 25849.94614583332,
      "d": 3669.223124999997,
      "v": 103
    },
    {
      "midi": 64,
      "hit": false,
      "t": 25851.869218749987,
      "d": 3667.3000520833302,
      "v": 103
    },
    {
      "midi": 81,
      "hit": false,
      "t": 27228.78942708332,
      "d": 2290.3798437499972,
      "v": 92
    },
    {
      "midi": 69,
      "hit": false,
      "t": 27686.480781249986,
      "d": 1832.6884895833318,
      "v": 62
    },
    {
      "midi": 79,
      "hit": false,
      "t": 29080.708645833318,
      "d": 438.4606249999997,
      "v": 89
    },
    {
      "midi": 78,
      "hit": false,
      "t": 29311.477395833317,
      "d": 207.69187500000044,
      "v": 88
    },
    {
      "midi": 57,
      "hit": false,
      "t": 29532.630781249984,
      "d": 3678.8384895833333,
      "v": 103
    },
    {
      "midi": 62,
      "hit": false,
      "t": 29534.55385416665,
      "d": 3676.9154166666667,
      "v": 103
    },
    {
      "midi": 66,
      "hit": false,
      "t": 29534.55385416665,
      "d": 3676.9154166666667,
      "v": 103
    },
    {
      "midi": 76,
      "hit": false,
      "t": 29538.399999999983,
      "d": 3673.0692708333336,
      "v": 103
    },
    {
      "midi": 47,
      "hit": false,
      "t": 29540.32307291665,
      "d": 3671.146197916667,
      "v": 103
    },
    {
      "midi": 78,
      "hit": false,
      "t": 30003.783645833315,
      "d": 3207.685625000002,
      "v": 92
    },
    {
      "midi": 59,
      "hit": false,
      "t": 31382.626927083315,
      "d": 1828.8423437500023,
      "v": 64
    },
    {
      "midi": 71,
      "hit": false,
      "t": 32765.316354166647,
      "d": 446.1529166666696,
      "v": 90
    },
    {
      "midi": 43,
      "hit": false,
      "t": 33228.776927083316,
      "d": 3674.9923437499965,
      "v": 103
    },
    {
      "midi": 73,
      "hit": false,
      "t": 33230.69999999998,
      "d": 903.8442708333314,
      "v": 103
    },
    {
      "midi": 57,
      "hit": false,
      "t": 33230.69999999998,
      "d": 3673.06927083333,
      "v": 103
    },
    {
      "midi": 69,
      "hit": false,
      "t": 33234.546145833316,
      "d": 3669.223124999997,
      "v": 103
    },
    {
      "midi": 59,
      "hit": false,
      "t": 34151.85192708331,
      "d": 2751.9173437499994,
      "v": 70
    },
    {
      "midi": 74,
      "hit": false,
      "t": 34155.698072916646,
      "d": 2748.0711979166663,
      "v": 100
    },
    {
      "midi": 66,
      "hit": false,
      "t": 34159.54421874998,
      "d": 2744.225052083333,
      "v": 80
    },
    {
      "midi": 64,
      "hit": false,
      "t": 36457.61635416665,
      "d": 446.152916666666,
      "v": 89
    },
    {
      "midi": 50,
      "hit": false,
      "t": 36921.07692708331,
      "d": 3674.9923437499965,
      "v": 103
    },
    {
      "midi": 57,
      "hit": false,
      "t": 36924.923072916645,
      "d": 3671.1461979166634,
      "v": 103
    },
    {
      "midi": 59,
      "hit": false,
      "t": 36924.923072916645,
      "d": 3671.1461979166634,
      "v": 103
    },
    {
      "midi": 61,
      "hit": false,
      "t": 36926.84614583331,
      "d": 1823.0731249999953,
      "v": 103
    },
    {
      "midi": 38,
      "hit": false,
      "t": 36926.84614583331,
      "d": 3669.223124999997,
      "v": 103
    },
    {
      "midi": 66,
      "hit": false,
      "t": 36928.76921874998,
      "d": 3667.3000520833302,
      "v": 103
    },
    {
      "midi": 64,
      "hit": false,
      "t": 37844.15192708331,
      "d": 2751.9173437499994,
      "v": 71
    },
    {
      "midi": 73,
      "hit": false,
      "t": 37849.92114583331,
      "d": 2746.1481249999997,
      "v": 100
    },
    {
      "midi": 81,
      "hit": false,
      "t": 37917.22869791664,
      "d": 2678.8405729166698,
      "v": 100
    },
    {
      "midi": 61,
      "hit": false,
      "t": 38771.07307291664,
      "d": 1824.9961979166692,
      "v": 64
    },
    {
      "midi": 62,
      "hit": false,
      "t": 40611.45385416664,
      "d": 1830.765416666669,
      "v": 103
    },
    {
      "midi": 69,
      "hit": false,
      "t": 40611.45385416664,
      "d": 1830.765416666669,
      "v": 103
    },
    {
      "midi": 59,
      "hit": false,
      "t": 40615.299999999974,
      "d": 1826.9192708333358,
      "v": 103
    },
    {
      "midi": 64,
      "hit": false,
      "t": 40615.299999999974,
      "d": 1826.9192708333358,
      "v": 103
    },
    {
      "midi": 45,
      "hit": false,
      "t": 40617.22307291664,
      "d": 1824.9961979166692,
      "v": 103
    },
    {
      "midi": 57,
      "hit": false,
      "t": 40621.06921874997,
      "d": 1821.150052083336,
      "v": 103
    },
    {
      "midi": 58,
      "hit": false,
      "t": 42459.52692708331,
      "d": 1828.8423437500023,
      "v": 98
    },
    {
      "midi": 67,
      "hit": false,
      "t": 42459.52692708331,
      "d": 1828.8423437500023,
      "v": 98
    },
    {
      "midi": 64,
      "hit": false,
      "t": 42465.29614583331,
      "d": 1823.0731250000026,
      "v": 98
    },
    {
      "midi": 42,
      "hit": false,
      "t": 42467.219218749975,
      "d": 1821.150052083336,
      "v": 98
    },
    {
      "midi": 61,
      "hit": false,
      "t": 42467.219218749975,
      "d": 1821.150052083336,
      "v": 98
    },
    {
      "midi": 66,
      "hit": false,
      "t": 44303.75385416664,
      "d": 1830.765416666669,
      "v": 103
    },
    {
      "midi": 59,
      "hit": false,
      "t": 44305.67692708331,
      "d": 1828.8423437500023,
      "v": 103
    },
    {
      "midi": 62,
      "hit": false,
      "t": 44305.67692708331,
      "d": 1828.8423437500023,
      "v": 103
    },
    {
      "midi": 47,
      "hit": false,
      "t": 44309.52307291664,
      "d": 1824.9961979166692,
      "v": 103
    },
    {
      "midi": 61,
      "hit": false,
      "t": 44313.36921874998,
      "d": 1821.150052083336,
      "v": 103
    },
    {
      "midi": 64,
      "hit": false,
      "t": 44313.36921874998,
      "d": 1821.150052083336,
      "v": 103
    },
    {
      "midi": 57,
      "hit": false,
      "t": 46153.74999999998,
      "d": 1826.9192708333358,
      "v": 100
    },
    {
      "midi": 45,
      "hit": false,
      "t": 46155.673072916645,
      "d": 1824.9961979166692,
      "v": 100
    },
    {
      "midi": 62,
      "hit": false,
      "t": 46157.59614583331,
      "d": 1823.0731250000026,
      "v": 100
    },
    {
      "midi": 59,
      "hit": false,
      "t": 46159.51921874998,
      "d": 1821.150052083336,
      "v": 100
    },
    {
      "midi": 66,
      "hit": false,
      "t": 46159.51921874998,
      "d": 1821.150052083336,
      "v": 100
    },
    {
      "midi": 59,
      "hit": false,
      "t": 47994.13078124998,
      "d": 3678.8384895833296,
      "v": 103
    },
    {
      "midi": 52,
      "hit": false,
      "t": 47996.05385416665,
      "d": 3676.915416666663,
      "v": 103
    },
    {
      "midi": 44,
      "hit": false,
      "t": 47997.97692708331,
      "d": 3674.9923437499965,
      "v": 103
    },
    {
      "midi": 64,
      "hit": false,
      "t": 48003.74614583331,
      "d": 899.9981249999983,
      "v": 103
    },
    {
      "midi": 64,
      "hit": false,
      "t": 48919.12885416664,
      "d": 2753.840416666666,
      "v": 91
    },
    {
      "midi": 71,
      "hit": false,
      "t": 49382.58942708331,
      "d": 2290.379843750001,
      "v": 77
    },
    {
      "midi": 76,
      "hit": false,
      "t": 49844.12692708331,
      "d": 1828.8423437500023,
      "v": 80
    },
    {
      "midi": 62,
      "hit": false,
      "t": 51688.35385416664,
      "d": 907.6904166666645,
      "v": 103
    },
    {
      "midi": 43,
      "hit": false,
      "t": 51688.35385416664,
      "d": 3676.915416666663,
      "v": 103
    },
    {
      "midi": 59,
      "hit": false,
      "t": 51690.27692708331,
      "d": 905.767343749998,
      "v": 103
    },
    {
      "midi": 57,
      "hit": false,
      "t": 51696.04614583331,
      "d": 3669.223124999997,
      "v": 103
    },
    {
      "midi": 86,
      "hit": false,
      "t": 51697.969218749975,
      "d": 3667.3000520833302,
      "v": 103
    },
    {
      "midi": 59,
      "hit": false,
      "t": 52611.42885416664,
      "d": 2753.840416666666,
      "v": 100
    },
    {
      "midi": 62,
      "hit": false,
      "t": 52621.04421874997,
      "d": 2744.225052083333,
      "v": 100
    },
    {
      "midi": 66,
      "hit": false,
      "t": 52621.04421874997,
      "d": 2744.225052083333,
      "v": 100
    },
    {
      "midi": 83,
      "hit": false,
      "t": 54926.808645833305,
      "d": 438.4606249999997,
      "v": 90
    },
    {
      "midi": 85,
      "hit": false,
      "t": 55378.73078124997,
      "d": 3678.8384895833224,
      "v": 103
    },
    {
      "midi": 61,
      "hit": false,
      "t": 55380.65385416664,
      "d": 907.6904166666645,
      "v": 103
    },
    {
      "midi": 38,
      "hit": false,
      "t": 55380.65385416664,
      "d": 3676.915416666656,
      "v": 103
    },
    {
      "midi": 57,
      "hit": false,
      "t": 55382.576927083304,
      "d": 905.767343749998,
      "v": 103
    },
    {
      "midi": 54,
      "hit": false,
      "t": 55386.42307291664,
      "d": 3671.146197916656,
      "v": 103
    },
    {
      "midi": 64,
      "hit": false,
      "t": 55388.346145833304,
      "d": 899.9981249999983,
      "v": 103
    },
    {
      "midi": 76,
      "hit": false,
      "t": 55851.80671874997,
      "d": 2590.379218749993,
      "v": 89
    },
    {
      "midi": 57,
      "hit": false,
      "t": 56301.80578124997,
      "d": 2755.7634895833253,
      "v": 76
    },
    {
      "midi": 81,
      "hit": false,
      "t": 56305.6519270833,
      "d": 2751.917343749992,
      "v": 100
    },
    {
      "midi": 64,
      "hit": false,
      "t": 56311.4211458333,
      "d": 899.9981249999983,
      "v": 76
    },
    {
      "midi": 61,
      "hit": false,
      "t": 56311.4211458333,
      "d": 2746.1481249999924,
      "v": 76
    },
    {
      "midi": 64,
      "hit": false,
      "t": 57230.649999999965,
      "d": 1826.9192708333285,
      "v": 56
    },
    {
      "midi": 74,
      "hit": false,
      "t": 58153.72499999996,
      "d": 903.8442708333314,
      "v": 79
    },
    {
      "midi": 76,
      "hit": false,
      "t": 58459.49359374996,
      "d": 598.0756770833323,
      "v": 73
    },
    {
      "midi": 78,
      "hit": false,
      "t": 58763.339114583294,
      "d": 294.2301562499997,
      "v": 88
    },
    {
      "midi": 55,
      "hit": false,
      "t": 59071.03078124996,
      "d": 1832.6884895833355,
      "v": 103
    },
    {
      "midi": 66,
      "hit": false,
      "t": 59071.03078124996,
      "d": 1832.6884895833355,
      "v": 83
    },
    {
      "midi": 74,
      "hit": false,
      "t": 59072.953854166626,
      "d": 1830.765416666669,
      "v": 103
    },
    {
      "midi": 43,
      "hit": false,
      "t": 59074.87692708329,
      "d": 1828.8423437500023,
      "v": 103
    },
    {
      "midi": 59,
      "hit": false,
      "t": 59074.87692708329,
      "d": 1828.8423437500023,
      "v": 103
    },
    {
      "midi": 62,
      "hit": false,
      "t": 59080.64614583329,
      "d": 1823.0731250000026,
      "v": 78
    },
    {
      "midi": 62,
      "hit": false,
      "t": 60921.026927083294,
      "d": 1828.8423437500023,
      "v": 92
    },
    {
      "midi": 57,
      "hit": false,
      "t": 60922.94999999996,
      "d": 1826.9192708333358,
      "v": 92
    },
    {
      "midi": 69,
      "hit": false,
      "t": 60924.87307291663,
      "d": 1824.9961979166692,
      "v": 92
    },
    {
      "midi": 42,
      "hit": false,
      "t": 60926.796145833294,
      "d": 1823.0731250000026,
      "v": 92
    },
    {
      "midi": 40,
      "hit": false,
      "t": 62771.02307291663,
      "d": 1824.996197916662,
      "v": 88
    },
    {
      "midi": 66,
      "hit": false,
      "t": 62771.02307291663,
      "d": 1824.996197916662,
      "v": 88
    },
    {
      "midi": 52,
      "hit": false,
      "t": 62774.86921874996,
      "d": 1821.1500520833288,
      "v": 88
    },
    {
      "midi": 67,
      "hit": false,
      "t": 62809.48453124996,
      "d": 1786.5347395833305,
      "v": 88
    },
    {
      "midi": 71,
      "hit": false,
      "t": 62847.94598958329,
      "d": 1748.0732812499991,
      "v": 88
    },
    {
      "midi": 50,
      "hit": false,
      "t": 64609.48078124996,
      "d": 909.6134895833311,
      "v": 98
    },
    {
      "midi": 54,
      "hit": false,
      "t": 64609.48078124996,
      "d": 909.6134895833311,
      "v": 98
    },
    {
      "midi": 38,
      "hit": false,
      "t": 64613.32692708329,
      "d": 905.767343749998,
      "v": 98
    },
    {
      "midi": 69,
      "hit": false,
      "t": 64613.32692708329,
      "d": 905.767343749998,
      "v": 98
    },
    {
      "midi": 64,
      "hit": false,
      "t": 64617.17307291662,
      "d": 901.9211979166648,
      "v": 98
    },
    {
      "midi": 57,
      "hit": false,
      "t": 64619.09614583329,
      "d": 899.9981249999983,
      "v": 98
    },
    {
      "midi": 59,
      "hit": false,
      "t": 64621.019218749956,
      "d": 898.0750520833317,
      "v": 98
    },
    {
      "midi": 62,
      "hit": false,
      "t": 65532.555781249954,
      "d": 909.6134895833311,
      "v": 94
    },
    {
      "midi": 69,
      "hit": false,
      "t": 65534.47885416662,
      "d": 907.6904166666645,
      "v": 94
    },
    {
      "midi": 47,
      "hit": false,
      "t": 65538.32499999995,
      "d": 903.8442708333314,
      "v": 94
    },
    {
      "midi": 66,
      "hit": false,
      "t": 65538.32499999995,
      "d": 903.8442708333314,
      "v": 94
    },
    {
      "midi": 74,
      "hit": false,
      "t": 65538.32499999995,
      "d": 903.8442708333314,
      "v": 94
    },
    {
      "midi": 66,
      "hit": false,
      "t": 66459.47692708329,
      "d": 3444.2235937500227,
      "v": 103
    },
    {
      "midi": 57,
      "hit": false,
      "t": 66461.39999999997,
      "d": 3442.300520833349,
      "v": 103
    },
    {
      "midi": 45,
      "hit": false,
      "t": 66463.32307291664,
      "d": 3440.377447916675,
      "v": 103
    },
    {
      "midi": 55,
      "hit": false,
      "t": 66463.32307291664,
      "d": 3440.377447916675,
      "v": 103
    },
    {
      "midi": 59,
      "hit": false,
      "t": 66463.32307291664,
      "d": 3440.377447916675,
      "v": 103
    },
    {
      "midi": 62,
      "hit": false,
      "t": 66465.24614583331,
      "d": 3438.454375000001,
      "v": 103
    },
    {
      "midi": 69,
      "hit": false,
      "t": 67378.70578124998,
      "d": 2524.9947395833296,
      "v": 100
    },
    {
      "midi": 81,
      "hit": false,
      "t": 67505.62859374998,
      "d": 2398.071927083336,
      "v": 84
    },
    {
      "midi": 66,
      "hit": false,
      "t": 69926.77739583331,
      "d": 3899.9918750000506,
      "v": 92
    },
    {
      "midi": 64,
      "hit": false,
      "t": 69974.85421874998,
      "d": 2005.7650520833558,
      "v": 92
    },
    {
      "midi": 61,
      "hit": false,
      "t": 70034.46947916666,
      "d": 1946.149791666685,
      "v": 91
    },
    {
      "midi": 59,
      "hit": false,
      "t": 70096.00781249999,
      "d": 1884.6114583333547,
      "v": 100
    },
    {
      "midi": 38,
      "hit": false,
      "t": 70147.93078124999,
      "d": 3678.8384895833733,
      "v": 100
    },
    {
      "midi": 57,
      "hit": false,
      "t": 70159.46921874999,
      "d": 1821.1500520833506,
      "v": 100
    },
    {
      "midi": 81,
      "hit": false,
      "t": 71076.775,
      "d": 2749.9942708333692,
      "v": 100
    },
    {
      "midi": 93,
      "hit": false,
      "t": 71542.15864583333,
      "d": 2284.6106250000303,
      "v": 92
    },
    {
      "midi": 64,
      "hit": false,
      "t": 71997.92692708335,
      "d": 905.7673437500052,
      "v": 77
    },
    {
      "midi": 57,
      "hit": false,
      "t": 72001.77307291668,
      "d": 901.9211979166721,
      "v": 77
    },
    {
      "midi": 59,
      "hit": false,
      "t": 72001.77307291668,
      "d": 1824.9961979166837,
      "v": 77
    },
    {
      "midi": 54,
      "hit": false,
      "t": 72003.69614583335,
      "d": 899.9981249999983,
      "v": 77
    },
    {
      "midi": 61,
      "hit": false,
      "t": 72003.69614583335,
      "d": 899.9981249999983,
      "v": 77
    },
    {
      "midi": 91,
      "hit": false,
      "t": 72467.15671875002,
      "d": 1359.6125520833448,
      "v": 91
    },
    {
      "midi": 54,
      "hit": false,
      "t": 72917.15578125003,
      "d": 909.6134895833384,
      "v": 73
    },
    {
      "midi": 61,
      "hit": false,
      "t": 72919.0788541667,
      "d": 907.6904166666645,
      "v": 73
    },
    {
      "midi": 57,
      "hit": false,
      "t": 72921.00192708337,
      "d": 905.7673437499907,
      "v": 73
    },
    {
      "midi": 64,
      "hit": false,
      "t": 72928.69421875004,
      "d": 898.0750520833244,
      "v": 73
    },
    {
      "midi": 83,
      "hit": false,
      "t": 73236.3858854167,
      "d": 590.3833854166587,
      "v": 85
    },
    {
      "midi": 90,
      "hit": false,
      "t": 73544.07755208337,
      "d": 282.691718749993,
      "v": 88
    },
    {
      "midi": 43,
      "hit": false,
      "t": 73840.23078125004,
      "d": 1832.688489583321,
      "v": 103
    },
    {
      "midi": 62,
      "hit": false,
      "t": 73840.23078125004,
      "d": 1832.688489583321,
      "v": 103
    },
    {
      "midi": 59,
      "hit": false,
      "t": 73844.07692708337,
      "d": 790.3829687499965,
      "v": 103
    },
    {
      "midi": 55,
      "hit": false,
      "t": 73844.07692708337,
      "d": 905.7673437499907,
      "v": 103
    },
    {
      "midi": 86,
      "hit": false,
      "t": 73847.9230729167,
      "d": 1824.9961979166546,
      "v": 103
    },
    {
      "midi": 59,
      "hit": false,
      "t": 74653.69062500003,
      "d": 1019.2286458333256,
      "v": 60
    },
    {
      "midi": 55,
      "hit": false,
      "t": 74772.92114583336,
      "d": 899.9981249999983,
      "v": 70
    },
    {
      "midi": 66,
      "hit": false,
      "t": 74772.92114583336,
      "d": 899.9981249999983,
      "v": 70
    },
    {
      "midi": 45,
      "hit": false,
      "t": 75688.30385416669,
      "d": 1830.7654166666762,
      "v": 74
    },
    {
      "midi": 57,
      "hit": false,
      "t": 75692.15000000002,
      "d": 1826.919270833343,
      "v": 74
    },
    {
      "midi": 33,
      "hit": false,
      "t": 75694.0730729167,
      "d": 1824.9961979166692,
      "v": 74
    },
    {
      "midi": 61,
      "hit": false,
      "t": 75697.91921875003,
      "d": 1821.150052083336,
      "v": 74
    },
    {
      "midi": 64,
      "hit": false,
      "t": 75697.91921875003,
      "d": 1821.150052083336,
      "v": 74
    },
    {
      "midi": 86,
      "hit": false,
      "t": 77072.9163541667,
      "d": 446.15291666667326,
      "v": 90
    },
    {
      "midi": 50,
      "hit": false,
      "t": 77534.4538541667,
      "d": 1715.381041666682,
      "v": 67
    },
    {
      "midi": 81,
      "hit": false,
      "t": 77534.4538541667,
      "d": 1715.381041666682,
      "v": 103
    },
    {
      "midi": 62,
      "hit": false,
      "t": 77536.37692708337,
      "d": 1713.4579687500081,
      "v": 67
    },
    {
      "midi": 57,
      "hit": false,
      "t": 77538.30000000005,
      "d": 1711.5348958333343,
      "v": 67
    },
    {
      "midi": 38,
      "hit": false,
      "t": 77542.14614583338,
      "d": 1707.6887500000012,
      "v": 67
    },
    {
      "midi": 54,
      "hit": false,
      "t": 77542.14614583338,
      "d": 1707.6887500000012,
      "v": 67
    },
    {
      "midi": 61,
      "hit": false,
      "t": 79311.37322916671,
      "d": 101.92286458335002,
      "v": 98
    },
    {
      "midi": 59,
      "hit": false,
      "t": 79378.68078125005,
      "d": 909.6134895833529,
      "v": 86
    },
    {
      "midi": 43,
      "hit": false,
      "t": 79382.52692708338,
      "d": 905.7673437500198,
      "v": 86
    },
    {
      "midi": 50,
      "hit": false,
      "t": 79384.45000000006,
      "d": 903.844270833346,
      "v": 86
    },
    {
      "midi": 62,
      "hit": false,
      "t": 79388.29614583339,
      "d": 899.9981250000128,
      "v": 86
    },
    {
      "midi": 54,
      "hit": false,
      "t": 79390.21921875006,
      "d": 898.075052083339,
      "v": 86
    },
    {
      "midi": 61,
      "hit": false,
      "t": 80303.67885416673,
      "d": 753.8445833333535,
      "v": 103
    },
    {
      "midi": 45,
      "hit": false,
      "t": 80305.60192708341,
      "d": 751.9215104166797,
      "v": 103
    },
    {
      "midi": 57,
      "hit": false,
      "t": 80307.52500000008,
      "d": 749.9984375000058,
      "v": 103
    },
    {
      "midi": 64,
      "hit": false,
      "t": 80309.44807291676,
      "d": 748.075364583332,
      "v": 103
    },
    {
      "midi": 57,
      "hit": false,
      "t": 81074.8310937501,
      "d": 3828.8381770833366,
      "v": 88
    },
    {
      "midi": 61,
      "hit": false,
      "t": 81120.98484375009,
      "d": 3782.684427083339,
      "v": 103
    },
    {
      "midi": 64,
      "hit": false,
      "t": 81178.67703125009,
      "d": 3724.992239583342,
      "v": 103
    },
    {
      "midi": 66,
      "hit": false,
      "t": 81230.6000000001,
      "d": 3673.069270833337,
      "v": 103
    },
    {
      "midi": 38,
      "hit": false,
      "t": 81234.44614583343,
      "d": 3669.223125000004,
      "v": 103
    },
    {
      "midi": 69,
      "hit": false,
      "t": 84697.9004687501,
      "d": 205.76880208333023,
      "v": 92
    },
    {
      "midi": 45,
      "hit": false,
      "t": 84919.05385416676,
      "d": 2753.840416666688,
      "v": 73
    },
    {
      "midi": 33,
      "hit": false,
      "t": 84922.9000000001,
      "d": 2749.9942708333547,
      "v": 73
    },
    {
      "midi": 71,
      "hit": false,
      "t": 84924.82307291677,
      "d": 2748.071197916681,
      "v": 103
    },
    {
      "midi": 66,
      "hit": false,
      "t": 85847.89807291677,
      "d": 1824.9961979166837,
      "v": 70
    },
    {
      "midi": 67,
      "hit": false,
      "t": 85849.82114583344,
      "d": 1823.07312500001,
      "v": 70
    },
    {
      "midi": 59,
      "hit": false,
      "t": 85851.74421875011,
      "d": 1821.150052083336,
      "v": 70
    },
    {
      "midi": 62,
      "hit": false,
      "t": 85851.74421875011,
      "d": 1821.150052083336,
      "v": 70
    },
    {
      "midi": 58,
      "hit": false,
      "t": 87686.35578125012,
      "d": 909.6134895833529,
      "v": 103
    },
    {
      "midi": 67,
      "hit": false,
      "t": 87686.35578125012,
      "d": 909.6134895833529,
      "v": 103
    },
    {
      "midi": 64,
      "hit": false,
      "t": 87692.12500000013,
      "d": 903.844270833346,
      "v": 103
    },
    {
      "midi": 61,
      "hit": false,
      "t": 87694.0480729168,
      "d": 901.9211979166721,
      "v": 103
    },
    {
      "midi": 66,
      "hit": false,
      "t": 88159.43171875014,
      "d": 436.53755208333314,
      "v": 89
    },
    {
      "midi": 66,
      "hit": false,
      "t": 88611.35385416681,
      "d": 907.6904166666791,
      "v": 103
    },
    {
      "midi": 59,
      "hit": false,
      "t": 88617.12307291682,
      "d": 901.9211979166721,
      "v": 103
    },
    {
      "midi": 62,
      "hit": false,
      "t": 88617.12307291682,
      "d": 901.9211979166721,
      "v": 103
    },
    {
      "midi": 47,
      "hit": false,
      "t": 88617.12307291682,
      "d": 1824.9961979166983,
      "v": 73
    },
    {
      "midi": 62,
      "hit": false,
      "t": 89536.3519270835,
      "d": 905.7673437500198,
      "v": 88
    },
    {
      "midi": 59,
      "hit": false,
      "t": 89542.1211458335,
      "d": 899.9981250000128,
      "v": 88
    },
    {
      "midi": 66,
      "hit": false,
      "t": 89544.04421875018,
      "d": 898.075052083339,
      "v": 88
    },
    {
      "midi": 59,
      "hit": false,
      "t": 90455.58078125019,
      "d": 909.6134895833384,
      "v": 100
    },
    {
      "midi": 57,
      "hit": false,
      "t": 90455.58078125019,
      "d": 1832.6884895833646,
      "v": 100
    },
    {
      "midi": 62,
      "hit": false,
      "t": 90459.42692708352,
      "d": 905.7673437500052,
      "v": 100
    },
    {
      "midi": 66,
      "hit": false,
      "t": 90459.42692708352,
      "d": 905.7673437500052,
      "v": 100
    },
    {
      "midi": 45,
      "hit": false,
      "t": 90467.11921875019,
      "d": 1821.1500520833652,
      "v": 100
    },
    {
      "midi": 69,
      "hit": false,
      "t": 91378.6557812502,
      "d": 909.6134895833529,
      "v": 86
    },
    {
      "midi": 62,
      "hit": false,
      "t": 91380.57885416687,
      "d": 907.6904166666791,
      "v": 86
    },
    {
      "midi": 59,
      "hit": false,
      "t": 91382.50192708355,
      "d": 905.7673437500052,
      "v": 86
    },
    {
      "midi": 66,
      "hit": false,
      "t": 91382.50192708355,
      "d": 905.7673437500052,
      "v": 86
    },
    {
      "midi": 59,
      "hit": false,
      "t": 92307.50000000023,
      "d": 2749.9942708333547,
      "v": 103
    },
    {
      "midi": 57,
      "hit": false,
      "t": 92311.34614583357,
      "d": 2746.1481250000215,
      "v": 103
    },
    {
      "midi": 43,
      "hit": false,
      "t": 92313.26921875024,
      "d": 2744.2250520833477,
      "v": 79
    },
    {
      "midi": 55,
      "hit": false,
      "t": 93228.65192708357,
      "d": 1828.8423437500169,
      "v": 97
    },
    {
      "midi": 62,
      "hit": false,
      "t": 94153.65000000024,
      "d": 442.3067708333401,
      "v": 98
    },
    {
      "midi": 67,
      "hit": false,
      "t": 94153.65000000024,
      "d": 442.3067708333401,
      "v": 98
    },
    {
      "midi": 71,
      "hit": false,
      "t": 94155.57307291692,
      "d": 440.3836979166663,
      "v": 98
    },
    {
      "midi": 64,
      "hit": false,
      "t": 94615.18750000025,
      "d": 442.3067708333401,
      "v": 91
    },
    {
      "midi": 69,
      "hit": false,
      "t": 94617.11057291692,
      "d": 440.3836979166663,
      "v": 91
    },
    {
      "midi": 73,
      "hit": false,
      "t": 94617.11057291692,
      "d": 440.3836979166663,
      "v": 91
    },
    {
      "midi": 55,
      "hit": false,
      "t": 95072.87885416692,
      "d": 907.6904166666936,
      "v": 79
    },
    {
      "midi": 45,
      "hit": false,
      "t": 95074.8019270836,
      "d": 905.7673437500198,
      "v": 79
    },
    {
      "midi": 71,
      "hit": false,
      "t": 95076.72500000027,
      "d": 903.844270833346,
      "v": 103
    },
    {
      "midi": 74,
      "hit": false,
      "t": 95080.5711458336,
      "d": 899.9981250000128,
      "v": 103
    },
    {
      "midi": 66,
      "hit": false,
      "t": 95082.49421875027,
      "d": 898.075052083339,
      "v": 103
    },
    {
      "midi": 76,
      "hit": false,
      "t": 95542.1086458336,
      "d": 438.460625000007,
      "v": 89
    },
    {
      "midi": 69,
      "hit": false,
      "t": 95995.95385416695,
      "d": 3676.915416666685,
      "v": 103
    },
    {
      "midi": 50,
      "hit": false,
      "t": 96001.72307291695,
      "d": 3671.146197916678,
      "v": 79
    },
    {
      "midi": 66,
      "hit": false,
      "t": 96003.64614583363,
      "d": 3669.223125000004,
      "v": 103
    },
    {
      "midi": 73,
      "hit": false,
      "t": 96003.64614583363,
      "d": 3669.223125000004,
      "v": 103
    },
    {
      "midi": 64,
      "hit": false,
      "t": 96005.5692187503,
      "d": 3667.3000520833302,
      "v": 103
    },
    {
      "midi": 81,
      "hit": false,
      "t": 97384.4125000003,
      "d": 2288.4567708333343,
      "v": 90
    },
    {
      "midi": 62,
      "hit": false,
      "t": 99694.02307291697,
      "d": 1824.9961979166692,
      "v": 79
    },
    {
      "midi": 66,
      "hit": false,
      "t": 99694.02307291697,
      "d": 1824.9961979166692,
      "v": 79
    },
    {
      "midi": 52,
      "hit": false,
      "t": 99695.94614583364,
      "d": 1823.0731249999953,
      "v": 79
    },
    {
      "midi": 55,
      "hit": false,
      "t": 99695.94614583364,
      "d": 1823.0731249999953,
      "v": 79
    },
    {
      "midi": 59,
      "hit": false,
      "t": 99695.94614583364,
      "d": 1823.0731249999953,
      "v": 79
    },
    {
      "midi": 55,
      "hit": false,
      "t": 101536.32692708365,
      "d": 905.7673437500198,
      "v": 74
    },
    {
      "midi": 66,
      "hit": false,
      "t": 101538.25000000032,
      "d": 596.1526041666802,
      "v": 98
    },
    {
      "midi": 59,
      "hit": false,
      "t": 101544.01921875033,
      "d": 898.075052083339,
      "v": 74
    },
    {
      "midi": 62,
      "hit": false,
      "t": 101544.01921875033,
      "d": 898.075052083339,
      "v": 74
    },
    {
      "midi": 67,
      "hit": false,
      "t": 102149.78718750033,
      "d": 984.6133333333419,
      "v": 91
    },
    {
      "midi": 58,
      "hit": false,
      "t": 102463.248072917,
      "d": 901.9211979166721,
      "v": 79
    },
    {
      "midi": 61,
      "hit": false,
      "t": 102463.248072917,
      "d": 901.9211979166721,
      "v": 79
    },
    {
      "midi": 64,
      "hit": false,
      "t": 102463.248072917,
      "d": 901.9211979166721,
      "v": 79
    },
    {
      "midi": 66,
      "hit": false,
      "t": 103159.40046875035,
      "d": 205.76880208333023,
      "v": 88
    },
    {
      "midi": 47,
      "hit": false,
      "t": 103380.55385416701,
      "d": 1830.7654166666762,
      "v": 79
    },
    {
      "midi": 66,
      "hit": false,
      "t": 103380.55385416701,
      "d": 1830.7654166666762,
      "v": 79
    },
    {
      "midi": 61,
      "hit": false,
      "t": 103384.40000000034,
      "d": 903.8442708333314,
      "v": 79
    },
    {
      "midi": 64,
      "hit": false,
      "t": 103384.40000000034,
      "d": 903.8442708333314,
      "v": 79
    },
    {
      "midi": 62,
      "hit": false,
      "t": 104303.62885416701,
      "d": 907.6904166666791,
      "v": 76
    },
    {
      "midi": 59,
      "hit": false,
      "t": 104313.24421875035,
      "d": 436.53755208333314,
      "v": 76
    },
    {
      "midi": 59,
      "hit": false,
      "t": 104765.16635416701,
      "d": 446.15291666667326,
      "v": 90
    },
    {
      "midi": 54,
      "hit": false,
      "t": 105230.55000000035,
      "d": 1826.919270833343,
      "v": 76
    },
    {
      "midi": 62,
      "hit": false,
      "t": 105232.47307291703,
      "d": 1824.9961979166692,
      "v": 76
    },
    {
      "midi": 57,
      "hit": false,
      "t": 105234.3961458337,
      "d": 1823.0731249999953,
      "v": 76
    },
    {
      "midi": 74,
      "hit": false,
      "t": 106770.93140625037,
      "d": 286.53786458332615,
      "v": 92
    },
    {
      "midi": 59,
      "hit": false,
      "t": 107076.70000000036,
      "d": 3673.069270833337,
      "v": 79
    },
    {
      "midi": 56,
      "hit": false,
      "t": 107078.62307291703,
      "d": 3671.1461979166634,
      "v": 79
    },
    {
      "midi": 64,
      "hit": false,
      "t": 107082.46921875037,
      "d": 3667.3000520833302,
      "v": 79
    },
    {
      "midi": 76,
      "hit": false,
      "t": 107082.46921875037,
      "d": 3667.3000520833302,
      "v": 103
    },
    {
      "midi": 62,
      "hit": false,
      "t": 110763.23078125037,
      "d": 3678.838489583344,
      "v": 79
    },
    {
      "midi": 59,
      "hit": false,
      "t": 110769.00000000038,
      "d": 3673.069270833337,
      "v": 79
    },
    {
      "midi": 55,
      "hit": false,
      "t": 110772.84614583371,
      "d": 3669.223125000004,
      "v": 79
    },
    {
      "midi": 66,
      "hit": false,
      "t": 110774.76921875039,
      "d": 2744.225052083333,
      "v": 79
    },
    {
      "midi": 95,
      "hit": false,
      "t": 112153.61250000038,
      "d": 2288.4567708333343,
      "v": 90
    },
    {
      "midi": 66,
      "hit": false,
      "t": 113534.37885416705,
      "d": 907.6904166666645,
      "v": 74
    },
    {
      "midi": 93,
      "hit": false,
      "t": 113993.99328125038,
      "d": 448.07598958333256,
      "v": 90
    },
    {
      "midi": 57,
      "hit": false,
      "t": 114455.53078125039,
      "d": 3678.8384895833588,
      "v": 79
    },
    {
      "midi": 61,
      "hit": false,
      "t": 114455.53078125039,
      "d": 3678.8384895833588,
      "v": 79
    },
    {
      "midi": 66,
      "hit": false,
      "t": 114465.14614583373,
      "d": 3669.2231250000186,
      "v": 79
    },
    {
      "midi": 64,
      "hit": false,
      "t": 114467.0692187504,
      "d": 3667.300052083345,
      "v": 79
    },
    {
      "midi": 81,
      "hit": false,
      "t": 114926.68364583373,
      "d": 3207.685625000013,
      "v": 89
    },
    {
      "midi": 91,
      "hit": false,
      "t": 115843.98942708374,
      "d": 905.7673437500052,
      "v": 92
    },
    {
      "midi": 90,
      "hit": false,
      "t": 116772.83364583374,
      "d": 1361.535625000004,
      "v": 91
    },
    {
      "midi": 86,
      "hit": false,
      "t": 117686.29328125042,
      "d": 448.07598958333256,
      "v": 89
    },
    {
      "midi": 55,
      "hit": false,
      "t": 118147.83078125042,
      "d": 1832.6884895833355,
      "v": 79
    },
    {
      "midi": 59,
      "hit": false,
      "t": 118147.83078125042,
      "d": 1832.6884895833355,
      "v": 79
    },
    {
      "midi": 62,
      "hit": false,
      "t": 118151.67692708375,
      "d": 1828.8423437500023,
      "v": 79
    },
    {
      "midi": 66,
      "hit": false,
      "t": 118151.67692708375,
      "d": 1828.8423437500023,
      "v": 79
    },
    {
      "midi": 83,
      "hit": false,
      "t": 119763.21203125043,
      "d": 217.30723958332965,
      "v": 97
    },
    {
      "midi": 81,
      "hit": false,
      "t": 119995.90385416709,
      "d": 1830.7654166666762,
      "v": 100
    },
    {
      "midi": 57,
      "hit": false,
      "t": 120001.6730729171,
      "d": 1824.9961979166692,
      "v": 76
    },
    {
      "midi": 62,
      "hit": false,
      "t": 120003.59614583377,
      "d": 1823.0731249999953,
      "v": 76
    },
    {
      "midi": 59,
      "hit": false,
      "t": 121840.13078125044,
      "d": 1832.6884895833355,
      "v": 79
    },
    {
      "midi": 64,
      "hit": false,
      "t": 121843.97692708377,
      "d": 1521.1506770833366,
      "v": 79
    },
    {
      "midi": 55,
      "hit": false,
      "t": 121843.97692708377,
      "d": 1828.8423437500023,
      "v": 79
    },
    {
      "midi": 74,
      "hit": false,
      "t": 121843.97692708377,
      "d": 1828.8423437500023,
      "v": 91
    },
    {
      "midi": 71,
      "hit": false,
      "t": 121845.90000000045,
      "d": 1826.9192708333285,
      "v": 91
    },
    {
      "midi": 62,
      "hit": false,
      "t": 121849.74614583378,
      "d": 1823.0731249999953,
      "v": 79
    },
    {
      "midi": 64,
      "hit": false,
      "t": 123390.12755208378,
      "d": 282.691718749993,
      "v": 97
    },
    {
      "midi": 66,
      "hit": false,
      "t": 123482.43505208378,
      "d": 199.9995833333378,
      "v": 97
    },
    {
      "midi": 67,
      "hit": false,
      "t": 123576.66562500045,
      "d": 105.7690104166686,
      "v": 98
    },
    {
      "midi": 66,
      "hit": false,
      "t": 123688.20385416712,
      "d": 907.6904166666791,
      "v": 98
    },
    {
      "midi": 62,
      "hit": false,
      "t": 123693.97307291713,
      "d": 901.9211979166721,
      "v": 74
    },
    {
      "midi": 57,
      "hit": false,
      "t": 123697.81921875046,
      "d": 898.075052083339,
      "v": 74
    },
    {
      "midi": 69,
      "hit": false,
      "t": 124151.6644270838,
      "d": 444.2298437499994,
      "v": 91
    },
    {
      "midi": 57,
      "hit": false,
      "t": 124611.27885416713,
      "d": 907.6904166666791,
      "v": 79
    },
    {
      "midi": 54,
      "hit": false,
      "t": 124617.04807291714,
      "d": 901.9211979166721,
      "v": 79
    },
    {
      "midi": 59,
      "hit": false,
      "t": 124617.04807291714,
      "d": 901.9211979166721,
      "v": 79
    },
    {
      "midi": 62,
      "hit": false,
      "t": 124617.04807291714,
      "d": 901.9211979166721,
      "v": 103
    },
    {
      "midi": 66,
      "hit": false,
      "t": 125080.5086458338,
      "d": 438.460625000007,
      "v": 89
    },
    {
      "midi": 59,
      "hit": false,
      "t": 125534.35385416714,
      "d": 1830.7654166666762,
      "v": 103
    },
    {
      "midi": 62,
      "hit": false,
      "t": 125536.27692708382,
      "d": 1828.8423437500023,
      "v": 103
    },
    {
      "midi": 45,
      "hit": false,
      "t": 125538.20000000049,
      "d": 1826.9192708333285,
      "v": 103
    },
    {
      "midi": 55,
      "hit": false,
      "t": 125538.20000000049,
      "d": 1826.9192708333285,
      "v": 103
    },
    {
      "midi": 64,
      "hit": false,
      "t": 125538.20000000049,
      "d": 1826.9192708333285,
      "v": 103
    },
    {
      "midi": 47,
      "hit": false,
      "t": 127378.5807812505,
      "d": 909.6134895833384,
      "v": 100
    },
    {
      "midi": 62,
      "hit": false,
      "t": 127378.5807812505,
      "d": 909.6134895833384,
      "v": 100
    },
    {
      "midi": 54,
      "hit": false,
      "t": 127390.1192187505,
      "d": 898.075052083339,
      "v": 100
    },
    {
      "midi": 57,
      "hit": false,
      "t": 127390.1192187505,
      "d": 898.075052083339,
      "v": 100
    },
    {
      "midi": 57,
      "hit": false,
      "t": 128301.6557812505,
      "d": 909.6134895833384,
      "v": 98
    },
    {
      "midi": 49,
      "hit": false,
      "t": 128305.50192708384,
      "d": 905.7673437500052,
      "v": 98
    },
    {
      "midi": 61,
      "hit": false,
      "t": 128305.50192708384,
      "d": 905.7673437500052,
      "v": 98
    },
    {
      "midi": 64,
      "hit": false,
      "t": 128313.1942187505,
      "d": 898.075052083339,
      "v": 98
    },
    {
      "midi": 50,
      "hit": false,
      "t": 129228.57692708385,
      "d": 1828.8423437500169,
      "v": 103
    },
    {
      "midi": 61,
      "hit": false,
      "t": 129230.50000000052,
      "d": 1826.919270833343,
      "v": 103
    },
    {
      "midi": 57,
      "hit": false,
      "t": 129232.4230729172,
      "d": 1824.9961979166692,
      "v": 103
    },
    {
      "midi": 66,
      "hit": false,
      "t": 129234.34614583387,
      "d": 1823.0731249999953,
      "v": 103
    },
    {
      "midi": 81,
      "hit": false,
      "t": 130620.88171875053,
      "d": 436.53755208333314,
      "v": 92
    },
    {
      "midi": 62,
      "hit": false,
      "t": 131070.88078125054,
      "d": 909.6134895833675,
      "v": 74
    },
    {
      "midi": 67,
      "hit": false,
      "t": 131074.7269270839,
      "d": 905.7673437500198,
      "v": 74
    },
    {
      "midi": 59,
      "hit": false,
      "t": 131076.65000000055,
      "d": 903.8442708333605,
      "v": 74
    },
    {
      "midi": 79,
      "hit": false,
      "t": 131080.4961458339,
      "d": 899.9981250000128,
      "v": 98
    },
    {
      "midi": 64,
      "hit": false,
      "t": 131082.41921875055,
      "d": 898.0750520833535,
      "v": 74
    },
    {
      "midi": 78,
      "hit": false,
      "t": 131543.95671875056,
      "d": 436.5375520833477,
      "v": 91
    },
    {
      "midi": 62,
      "hit": false,
      "t": 131993.95578125058,
      "d": 909.6134895833675,
      "v": 79
    },
    {
      "midi": 74,
      "hit": false,
      "t": 131993.95578125058,
      "d": 909.6134895833675,
      "v": 103
    },
    {
      "midi": 57,
      "hit": false,
      "t": 131995.87885416724,
      "d": 907.6904166667082,
      "v": 79
    },
    {
      "midi": 66,
      "hit": false,
      "t": 131999.7250000006,
      "d": 903.8442708333605,
      "v": 79
    },
    {
      "midi": 69,
      "hit": false,
      "t": 132459.33942708393,
      "d": 444.22984375001397,
      "v": 89
    },
    {
      "midi": 62,
      "hit": false,
      "t": 132917.03078125062,
      "d": 1832.68848958335,
      "v": 79
    },
    {
      "midi": 71,
      "hit": false,
      "t": 132920.87692708397,
      "d": 1828.8423437500023,
      "v": 103
    },
    {
      "midi": 57,
      "hit": false,
      "t": 132928.56921875064,
      "d": 1821.150052083336,
      "v": 79
    },
    {
      "midi": 59,
      "hit": false,
      "t": 132928.56921875064,
      "d": 1821.150052083336,
      "v": 79
    },
    {
      "midi": 55,
      "hit": false,
      "t": 134772.79614583397,
      "d": 1823.0731249999953,
      "v": 76
    },
    {
      "midi": 59,
      "hit": false,
      "t": 134772.79614583397,
      "d": 1823.0731249999953,
      "v": 76
    },
    {
      "midi": 62,
      "hit": false,
      "t": 134772.79614583397,
      "d": 1823.0731249999953,
      "v": 76
    },
    {
      "midi": 64,
      "hit": false,
      "t": 134772.79614583397,
      "d": 1823.0731249999953,
      "v": 76
    },
    {
      "midi": 50,
      "hit": false,
      "t": 136609.33078125064,
      "d": 1832.688489583321,
      "v": 79
    },
    {
      "midi": 57,
      "hit": false,
      "t": 136617.0230729173,
      "d": 1824.9961979166546,
      "v": 79
    },
    {
      "midi": 61,
      "hit": false,
      "t": 136647.79223958397,
      "d": 1794.2270312499895,
      "v": 79
    },
    {
      "midi": 64,
      "hit": false,
      "t": 136692.0229166673,
      "d": 1749.9963541666511,
      "v": 79
    },
    {
      "midi": 66,
      "hit": false,
      "t": 136732.4074479173,
      "d": 1709.6118229166605,
      "v": 79
    },
    {
      "midi": 50,
      "hit": false,
      "t": 138455.48078125063,
      "d": 909.6134895833675,
      "v": 85
    },
    {
      "midi": 55,
      "hit": false,
      "t": 138459.32692708398,
      "d": 905.7673437500198,
      "v": 85
    },
    {
      "midi": 62,
      "hit": false,
      "t": 138459.32692708398,
      "d": 905.7673437500198,
      "v": 85
    },
    {
      "midi": 59,
      "hit": false,
      "t": 138465.096145834,
      "d": 899.9981250000128,
      "v": 85
    },
    {
      "midi": 52,
      "hit": false,
      "t": 139382.401927084,
      "d": 905.7673437499907,
      "v": 97
    },
    {
      "midi": 57,
      "hit": false,
      "t": 139384.32500000065,
      "d": 903.8442708333314,
      "v": 97
    },
    {
      "midi": 61,
      "hit": false,
      "t": 139390.09421875066,
      "d": 898.0750520833244,
      "v": 97
    },
    {
      "midi": 64,
      "hit": false,
      "t": 139390.09421875066,
      "d": 898.0750520833244,
      "v": 97
    },
    {
      "midi": 38,
      "hit": false,
      "t": 140313.16921875064,
      "d": 1821.1500520833652,
      "v": 91
    },
    {
      "midi": 66,
      "hit": false,
      "t": 140313.16921875064,
      "d": 1821.1500520833652,
      "v": 91
    },
    {
      "midi": 45,
      "hit": false,
      "t": 140768.93750000064,
      "d": 903.8442708333605,
      "v": 79
    },
    {
      "midi": 54,
      "hit": false,
      "t": 141236.24421875065,
      "d": 898.0750520833535,
      "v": 88
    },
    {
      "midi": 45,
      "hit": false,
      "t": 141693.93557291734,
      "d": 440.3836979166663,
      "v": 90
    },
    {
      "midi": 49,
      "hit": false,
      "t": 142151.626927084,
      "d": 1828.8423437500314,
      "v": 88
    },
    {
      "midi": 64,
      "hit": false,
      "t": 142159.31921875066,
      "d": 898.0750520833535,
      "v": 88
    },
    {
      "midi": 62,
      "hit": false,
      "t": 142613.164427084,
      "d": 1367.3048437500256,
      "v": 53
    },
    {
      "midi": 45,
      "hit": false,
      "t": 143078.54807291736,
      "d": 901.9211979166721,
      "v": 86
    },
    {
      "midi": 64,
      "hit": false,
      "t": 143082.3942187507,
      "d": 898.0750520833244,
      "v": 74
    },
    {
      "midi": 47,
      "hit": false,
      "t": 143995.85385416736,
      "d": 3676.915416666685,
      "v": 91
    },
    {
      "midi": 62,
      "hit": false,
      "t": 143999.7000000007,
      "d": 3673.069270833337,
      "v": 91
    },
    {
      "midi": 54,
      "hit": false,
      "t": 144465.08364583403,
      "d": 3207.685625000013,
      "v": 76
    },
    {
      "midi": 71,
      "hit": false,
      "t": 144917.00578125071,
      "d": 2755.7634895833326,
      "v": 88
    },
    {
      "midi": 59,
      "hit": false,
      "t": 144920.85192708406,
      "d": 2751.917343749985,
      "v": 88
    },
    {
      "midi": 73,
      "hit": false,
      "t": 145384.31250000073,
      "d": 2288.4567708333198,
      "v": 79
    },
    {
      "midi": 57,
      "hit": false,
      "t": 145842.0038541674,
      "d": 1830.7654166666616,
      "v": 86
    },
    {
      "midi": 74,
      "hit": false,
      "t": 146763.1557812507,
      "d": 909.6134895833384,
      "v": 91
    },
    {
      "midi": 43,
      "hit": false,
      "t": 147688.15385416738,
      "d": 1830.7654166667198,
      "v": 91
    },
    {
      "midi": 71,
      "hit": false,
      "t": 147692.00000000073,
      "d": 1519.227604166692,
      "v": 103
    },
    {
      "midi": 50,
      "hit": false,
      "t": 148151.61442708407,
      "d": 1367.3048437500256,
      "v": 79
    },
    {
      "midi": 59,
      "hit": false,
      "t": 148618.9211458341,
      "d": 899.9981250000128,
      "v": 88
    },
    {
      "midi": 71,
      "hit": false,
      "t": 149230.4583333341,
      "d": 288.4609375,
      "v": 97
    },
    {
      "midi": 42,
      "hit": false,
      "t": 149532.38078125077,
      "d": 1832.68848958335,
      "v": 88
    },
    {
      "midi": 62,
      "hit": false,
      "t": 149532.38078125077,
      "d": 1832.68848958335,
      "v": 88
    },
    {
      "midi": 69,
      "hit": false,
      "t": 149536.22692708412,
      "d": 1828.8423437500023,
      "v": 100
    },
    {
      "midi": 50,
      "hit": false,
      "t": 150459.30192708413,
      "d": 905.7673437499907,
      "v": 86
    },
    {
      "midi": 40,
      "hit": false,
      "t": 151378.5307812508,
      "d": 1832.688489583321,
      "v": 91
    },
    {
      "midi": 67,
      "hit": false,
      "t": 151384.3000000008,
      "d": 1826.919270833314,
      "v": 103
    },
    {
      "midi": 47,
      "hit": false,
      "t": 151849.68364583413,
      "d": 1361.5356249999895,
      "v": 76
    },
    {
      "midi": 52,
      "hit": false,
      "t": 152301.6057812508,
      "d": 909.6134895833093,
      "v": 88
    },
    {
      "midi": 62,
      "hit": false,
      "t": 152774.6817187508,
      "d": 436.5375520833186,
      "v": 92
    },
    {
      "midi": 64,
      "hit": false,
      "t": 153003.52739583413,
      "d": 207.69187499998952,
      "v": 97
    },
    {
      "midi": 59,
      "hit": false,
      "t": 153226.60385416745,
      "d": 907.69041666665,
      "v": 98
    },
    {
      "midi": 50,
      "hit": false,
      "t": 153228.5269270841,
      "d": 905.7673437499907,
      "v": 86
    },
    {
      "midi": 52,
      "hit": false,
      "t": 153230.45000000077,
      "d": 903.8442708333314,
      "v": 86
    },
    {
      "midi": 55,
      "hit": false,
      "t": 153234.29614583412,
      "d": 899.9981249999837,
      "v": 86
    },
    {
      "midi": 61,
      "hit": false,
      "t": 153697.75671875078,
      "d": 436.5375520833186,
      "v": 91
    },
    {
      "midi": 62,
      "hit": false,
      "t": 153928.52546875077,
      "d": 205.76880208333023,
      "v": 91
    },
    {
      "midi": 52,
      "hit": false,
      "t": 154149.67885416743,
      "d": 907.6904166666791,
      "v": 91
    },
    {
      "midi": 64,
      "hit": false,
      "t": 154153.52500000078,
      "d": 903.8442708333314,
      "v": 103
    },
    {
      "midi": 49,
      "hit": false,
      "t": 154155.44807291744,
      "d": 901.9211979166721,
      "v": 91
    },
    {
      "midi": 57,
      "hit": false,
      "t": 154616.98557291745,
      "d": 440.3836979166663,
      "v": 89
    },
    {
      "midi": 66,
      "hit": false,
      "t": 155078.52307291745,
      "d": 1824.9961979166837,
      "v": 91
    },
    {
      "midi": 38,
      "hit": false,
      "t": 155082.3692187508,
      "d": 1821.150052083336,
      "v": 91
    },
    {
      "midi": 45,
      "hit": false,
      "t": 155538.1375000008,
      "d": 903.8442708333314,
      "v": 79
    },
    {
      "midi": 54,
      "hit": false,
      "t": 155995.82885416746,
      "d": 907.6904166666791,
      "v": 88
    },
    {
      "midi": 74,
      "hit": false,
      "t": 156459.28942708412,
      "d": 444.22984375001397,
      "v": 90
    },
    {
      "midi": 50,
      "hit": false,
      "t": 156466.9817187508,
      "d": 436.5375520833477,
      "v": 90
    },
    {
      "midi": 49,
      "hit": false,
      "t": 156926.59614583413,
      "d": 1823.0731250000244,
      "v": 88
    },
    {
      "midi": 76,
      "hit": false,
      "t": 156926.59614583413,
      "d": 1823.0731250000244,
      "v": 100
    },
    {
      "midi": 52,
      "hit": false,
      "t": 157390.0567187508,
      "d": 1359.6125520833593,
      "v": 77
    },
    {
      "midi": 57,
      "hit": false,
      "t": 157849.67114583415,
      "d": 899.9981250000128,
      "v": 86
    },
    {
      "midi": 69,
      "hit": false,
      "t": 158301.59328125083,
      "d": 448.07598958333256,
      "v": 90
    },
    {
      "midi": 62,
      "hit": false,
      "t": 158763.13078125083,
      "d": 3678.838489583344,
      "v": 91
    },
    {
      "midi": 78,
      "hit": false,
      "t": 158763.13078125083,
      "d": 3678.838489583344,
      "v": 103
    },
    {
      "midi": 47,
      "hit": false,
      "t": 158774.66921875085,
      "d": 3667.3000520833302,
      "v": 91
    },
    {
      "midi": 54,
      "hit": false,
      "t": 159230.43750000084,
      "d": 3211.5317708333314,
      "v": 76
    },
    {
      "midi": 59,
      "hit": false,
      "t": 159688.1288541675,
      "d": 2753.8404166666733,
      "v": 88
    },
    {
      "midi": 74,
      "hit": false,
      "t": 159693.8980729175,
      "d": 901.9211979166721,
      "v": 100
    },
    {
      "midi": 74,
      "hit": false,
      "t": 160611.2038541675,
      "d": 1830.7654166666616,
      "v": 98
    },
    {
      "midi": 57,
      "hit": false,
      "t": 160613.12692708417,
      "d": 1828.8423437500023,
      "v": 86
    },
    {
      "midi": 69,
      "hit": false,
      "t": 162003.50864583417,
      "d": 438.460625000007,
      "v": 89
    },
    {
      "midi": 71,
      "hit": false,
      "t": 162463.12307291751,
      "d": 1824.9961979167128,
      "v": 103
    },
    {
      "midi": 43,
      "hit": false,
      "t": 162466.96921875086,
      "d": 1821.1500520833652,
      "v": 91
    },
    {
      "midi": 50,
      "hit": false,
      "t": 162918.89135416754,
      "d": 1369.227916666685,
      "v": 79
    },
    {
      "midi": 59,
      "hit": false,
      "t": 163386.19807291756,
      "d": 901.9211979166721,
      "v": 88
    },
    {
      "midi": 73,
      "hit": false,
      "t": 163688.12052083423,
      "d": 599.9987499999988,
      "v": 84
    },
    {
      "midi": 74,
      "hit": false,
      "t": 163997.73526041757,
      "d": 290.3840104166593,
      "v": 97
    },
    {
      "midi": 69,
      "hit": false,
      "t": 164301.5807812509,
      "d": 1832.6884895833791,
      "v": 100
    },
    {
      "midi": 62,
      "hit": false,
      "t": 164305.42692708425,
      "d": 1828.8423437500314,
      "v": 88
    },
    {
      "midi": 42,
      "hit": false,
      "t": 164311.19614583426,
      "d": 1823.0731250000244,
      "v": 88
    },
    {
      "midi": 52,
      "hit": false,
      "t": 164772.73364583426,
      "d": 438.460625000007,
      "v": 59
    },
    {
      "midi": 54,
      "hit": false,
      "t": 165232.3480729176,
      "d": 901.9211979166721,
      "v": 86
    },
    {
      "midi": 50,
      "hit": false,
      "t": 165234.27114583427,
      "d": 899.9981250000128,
      "v": 86
    },
    {
      "midi": 67,
      "hit": false,
      "t": 166151.57692708427,
      "d": 1828.8423437500314,
      "v": 103
    },
    {
      "midi": 40,
      "hit": false,
      "t": 166153.50000000093,
      "d": 1826.9192708333721,
      "v": 91
    },
    {
      "midi": 47,
      "hit": false,
      "t": 166616.9605729176,
      "d": 1363.458697916707,
      "v": 76
    },
    {
      "midi": 52,
      "hit": false,
      "t": 167070.80578125094,
      "d": 909.6134895833675,
      "v": 88
    },
    {
      "midi": 66,
      "hit": false,
      "t": 167380.42052083428,
      "d": 599.9987500000279,
      "v": 72
    },
    {
      "midi": 64,
      "hit": false,
      "t": 167688.11218750096,
      "d": 292.3070833333477,
      "v": 85
    },
    {
      "midi": 50,
      "hit": false,
      "t": 167993.88078125098,
      "d": 1832.688489583321,
      "v": 86
    },
    {
      "midi": 66,
      "hit": false,
      "t": 167995.80385416764,
      "d": 907.6904166666791,
      "v": 86
    },
    {
      "midi": 52,
      "hit": false,
      "t": 167997.7269270843,
      "d": 1828.8423437500023,
      "v": 86
    },
    {
      "midi": 59,
      "hit": false,
      "t": 168001.57307291764,
      "d": 1824.9961979166546,
      "v": 98
    },
    {
      "midi": 55,
      "hit": false,
      "t": 168005.419218751,
      "d": 1821.150052083307,
      "v": 86
    },
    {
      "midi": 64,
      "hit": false,
      "t": 168928.49421875097,
      "d": 898.0750520833244,
      "v": 103
    },
    {
      "midi": 57,
      "hit": false,
      "t": 169840.03078125097,
      "d": 3678.838489583344,
      "v": 91
    },
    {
      "midi": 66,
      "hit": false,
      "t": 169843.87692708432,
      "d": 3674.9923437499965,
      "v": 91
    },
    {
      "midi": 62,
      "hit": false,
      "t": 169845.80000000098,
      "d": 3211.5317708333314,
      "v": 91
    },
    {
      "midi": 50,
      "hit": false,
      "t": 169845.80000000098,
      "d": 3673.069270833337,
      "v": 91
    },
    {
      "midi": 78,
      "hit": false,
      "t": 171072.72052083432,
      "d": 292.3070833333477,
      "v": 99
    },
    {
      "midi": 79,
      "hit": false,
      "t": 171382.33526041766,
      "d": 290.3840104166593,
      "v": 112
    },
    {
      "midi": 81,
      "hit": false,
      "t": 171688.10385416765,
      "d": 1523.0737499999814,
      "v": 115
    },
    {
      "midi": 62,
      "hit": false,
      "t": 173074.6394270843,
      "d": 444.22984375001397,
      "v": 60
    },
    {
      "midi": 78,
      "hit": false,
      "t": 173226.56218750097,
      "d": 407.69145833334187,
      "v": 107
    },
    {
      "midi": 64,
      "hit": false,
      "t": 173532.330781251,
      "d": 1832.68848958335,
      "v": 91
    },
    {
      "midi": 67,
      "hit": false,
      "t": 173534.25385416765,
      "d": 1830.7654166666907,
      "v": 91
    },
    {
      "midi": 62,
      "hit": false,
      "t": 173540.02307291765,
      "d": 1824.9961979166837,
      "v": 91
    },
    {
      "midi": 59,
      "hit": false,
      "t": 173541.9461458343,
      "d": 1361.5356250000186,
      "v": 91
    },
    {
      "midi": 78,
      "hit": false,
      "t": 173651.5613020843,
      "d": 69.23062499999651,
      "v": 118
    },
    {
      "midi": 79,
      "hit": false,
      "t": 173732.3303645843,
      "d": 65.38447916667792,
      "v": 99
    },
    {
      "midi": 78,
      "hit": false,
      "t": 173813.09942708432,
      "d": 176.9227083333244,
      "v": 99
    },
    {
      "midi": 76,
      "hit": false,
      "t": 174003.48364583432,
      "d": 3207.685625000042,
      "v": 104
    },
    {
      "midi": 59,
      "hit": false,
      "t": 174916.943281251,
      "d": 1371.1509895833442,
      "v": 79
    },
    {
      "midi": 62,
      "hit": false,
      "t": 175386.17307291768,
      "d": 901.9211979166721,
      "v": 86
    },
    {
      "midi": 66,
      "hit": false,
      "t": 175388.09614583434,
      "d": 899.9981250000128,
      "v": 86
    },
    {
      "midi": 58,
      "hit": false,
      "t": 176301.55578125102,
      "d": 909.6134895833384,
      "v": 91
    },
    {
      "midi": 64,
      "hit": false,
      "t": 176301.55578125102,
      "d": 909.6134895833384,
      "v": 91
    },
    {
      "midi": 61,
      "hit": false,
      "t": 176307.32500000103,
      "d": 903.8442708333314,
      "v": 91
    },
    {
      "midi": 54,
      "hit": false,
      "t": 176309.2480729177,
      "d": 901.9211979166721,
      "v": 91
    },
    {
      "midi": 59,
      "hit": false,
      "t": 177224.63078125103,
      "d": 3678.838489583344,
      "v": 91
    },
    {
      "midi": 54,
      "hit": false,
      "t": 177230.40000000104,
      "d": 3673.069270833337,
      "v": 91
    },
    {
      "midi": 62,
      "hit": false,
      "t": 177232.3230729177,
      "d": 3671.146197916678,
      "v": 91
    },
    {
      "midi": 74,
      "hit": false,
      "t": 178466.9358854177,
      "d": 282.691718749993,
      "v": 99
    },
    {
      "midi": 76,
      "hit": false,
      "t": 178766.9352604177,
      "d": 290.3840104166593,
      "v": 112
    },
    {
      "midi": 76,
      "hit": false,
      "t": 179070.78078125103,
      "d": 73.0767708333442,
      "v": 115
    },
    {
      "midi": 78,
      "hit": false,
      "t": 179151.54984375104,
      "d": 521.1527604166768,
      "v": 115
    },
    {
      "midi": 76,
      "hit": false,
      "t": 179695.77947916772,
      "d": 592.3064583333326,
      "v": 106
    },
    {
      "midi": 74,
      "hit": false,
      "t": 180301.54744791772,
      "d": 294.230156250007,
      "v": 101
    },
    {
      "midi": 73,
      "hit": false,
      "t": 180620.7775520844,
      "d": 282.691718749993,
      "v": 107
    },
    {
      "midi": 71,
      "hit": false,
      "t": 180916.93078125105,
      "d": 601.9218229166581,
      "v": 118
    },
    {
      "midi": 62,
      "hit": false,
      "t": 180918.8538541677,
      "d": 2753.8404166667024,
      "v": 91
    },
    {
      "midi": 55,
      "hit": false,
      "t": 180924.62307291772,
      "d": 2748.0711979166954,
      "v": 91
    },
    {
      "midi": 59,
      "hit": false,
      "t": 180924.62307291772,
      "d": 2748.0711979166954,
      "v": 91
    },
    {
      "midi": 66,
      "hit": false,
      "t": 180924.62307291772,
      "d": 2748.0711979166954,
      "v": 91
    },
    {
      "midi": 83,
      "hit": false,
      "t": 181534.23718750104,
      "d": 2061.534166666679,
      "v": 103
    },
    {
      "midi": 71,
      "hit": false,
      "t": 183615.0020833344,
      "d": 67.30755208333721,
      "v": 118
    },
    {
      "midi": 66,
      "hit": false,
      "t": 183691.92500000107,
      "d": 903.8442708333314,
      "v": 91
    },
    {
      "midi": 81,
      "hit": false,
      "t": 183693.84807291772,
      "d": 671.1524479166546,
      "v": 118
    },
    {
      "midi": 55,
      "hit": false,
      "t": 183693.84807291772,
      "d": 901.9211979166721,
      "v": 91
    },
    {
      "midi": 59,
      "hit": false,
      "t": 183693.84807291772,
      "d": 901.9211979166721,
      "v": 91
    },
    {
      "midi": 62,
      "hit": false,
      "t": 183695.77114583438,
      "d": 899.9981250000128,
      "v": 91
    },
    {
      "midi": 79,
      "hit": false,
      "t": 184384.23125000106,
      "d": 211.5380208333372,
      "v": 103
    },
    {
      "midi": 64,
      "hit": false,
      "t": 184609.23078125107,
      "d": 1832.688489583321,
      "v": 91
    },
    {
      "midi": 78,
      "hit": false,
      "t": 184611.15385416773,
      "d": 1215.3820833333593,
      "v": 118
    },
    {
      "midi": 61,
      "hit": false,
      "t": 184613.0769270844,
      "d": 3674.9923437499965,
      "v": 91
    },
    {
      "midi": 66,
      "hit": false,
      "t": 184616.92307291774,
      "d": 3671.146197916649,
      "v": 91
    },
    {
      "midi": 57,
      "hit": false,
      "t": 184620.76921875108,
      "d": 3667.300052083301,
      "v": 91
    },
    {
      "midi": 78,
      "hit": false,
      "t": 185849.6128125011,
      "d": 284.6147916666523,
      "v": 99
    },
    {
      "midi": 79,
      "hit": false,
      "t": 186157.30447916774,
      "d": 284.6147916666523,
      "v": 112
    },
    {
      "midi": 64,
      "hit": false,
      "t": 186457.30385416772,
      "d": 1830.7654166666616,
      "v": 88
    },
    {
      "midi": 81,
      "hit": false,
      "t": 186466.91921875105,
      "d": 1513.4583854166558,
      "v": 115
    },
    {
      "midi": 86,
      "hit": false,
      "t": 187999.60833333438,
      "d": 288.4609375,
      "v": 107
    },
    {
      "midi": 62,
      "hit": false,
      "t": 188301.53078125106,
      "d": 2755.7634895833326,
      "v": 91
    },
    {
      "midi": 83,
      "hit": false,
      "t": 188307.30000000107,
      "d": 105.7690104166686,
      "v": 118
    },
    {
      "midi": 55,
      "hit": false,
      "t": 188307.30000000107,
      "d": 2749.9942708333256,
      "v": 91
    },
    {
      "midi": 59,
      "hit": false,
      "t": 188311.1461458344,
      "d": 2746.148124999978,
      "v": 91
    },
    {
      "midi": 66,
      "hit": false,
      "t": 188311.1461458344,
      "d": 2746.148124999978,
      "v": 91
    },
    {
      "midi": 85,
      "hit": false,
      "t": 188420.7613020844,
      "d": 328.8454687499907,
      "v": 118
    },
    {
      "midi": 81,
      "hit": false,
      "t": 188766.91442708438,
      "d": 905.7673437499907,
      "v": 104
    },
    {
      "midi": 76,
      "hit": false,
      "t": 189686.14328125105,
      "d": 755.7676562500128,
      "v": 76
    },
    {
      "midi": 88,
      "hit": false,
      "t": 189693.8355729177,
      "d": 748.0753645833465,
      "v": 76
    },
    {
      "midi": 74,
      "hit": false,
      "t": 190455.37244791773,
      "d": 294.230156250007,
      "v": 76
    },
    {
      "midi": 86,
      "hit": false,
      "t": 190466.91088541775,
      "d": 282.691718749993,
      "v": 76
    },
    {
      "midi": 85,
      "hit": false,
      "t": 190764.98718750107,
      "d": 292.3070833333186,
      "v": 82
    },
    {
      "midi": 73,
      "hit": false,
      "t": 190772.67947916774,
      "d": 284.6147916666523,
      "v": 82
    },
    {
      "midi": 64,
      "hit": false,
      "t": 191070.75578125106,
      "d": 909.6134895833093,
      "v": 91
    },
    {
      "midi": 71,
      "hit": false,
      "t": 191072.67885416772,
      "d": 292.3070833333186,
      "v": 98
    },
    {
      "midi": 61,
      "hit": false,
      "t": 191074.60192708438,
      "d": 905.7673437499907,
      "v": 91
    },
    {
      "midi": 58,
      "hit": false,
      "t": 191076.52500000104,
      "d": 903.8442708333314,
      "v": 91
    },
    {
      "midi": 83,
      "hit": false,
      "t": 191078.4480729177,
      "d": 286.5378645833407,
      "v": 98
    },
    {
      "midi": 66,
      "hit": false,
      "t": 191082.29421875105,
      "d": 898.0750520833244,
      "v": 91
    },
    {
      "midi": 73,
      "hit": false,
      "t": 191378.44744791772,
      "d": 294.2301562499779,
      "v": 82
    },
    {
      "midi": 85,
      "hit": false,
      "t": 191388.06281250104,
      "d": 284.6147916666523,
      "v": 82
    },
    {
      "midi": 74,
      "hit": false,
      "t": 191688.06218750103,
      "d": 292.3070833333477,
      "v": 88
    },
    {
      "midi": 86,
      "hit": false,
      "t": 191688.06218750103,
      "d": 292.3070833333477,
      "v": 88
    },
    {
      "midi": 62,
      "hit": false,
      "t": 191993.83078125105,
      "d": 1832.68848958335,
      "v": 91
    },
    {
      "midi": 66,
      "hit": false,
      "t": 191995.7538541677,
      "d": 1830.7654166666907,
      "v": 91
    },
    {
      "midi": 71,
      "hit": false,
      "t": 191997.67692708437,
      "d": 1367.3048437499965,
      "v": 103
    },
    {
      "midi": 83,
      "hit": false,
      "t": 191999.60000000102,
      "d": 1365.3817708333372,
      "v": 103
    },
    {
      "midi": 59,
      "hit": false,
      "t": 191999.60000000102,
      "d": 1826.9192708333721,
      "v": 91
    },
    {
      "midi": 85,
      "hit": false,
      "t": 193384.21250000104,
      "d": 442.3067708333547,
      "v": 90
    },
    {
      "midi": 73,
      "hit": false,
      "t": 193388.0586458344,
      "d": 438.460625000007,
      "v": 90
    },
    {
      "midi": 57,
      "hit": false,
      "t": 193839.98078125107,
      "d": 1832.68848958335,
      "v": 88
    },
    {
      "midi": 66,
      "hit": false,
      "t": 193841.90385416773,
      "d": 1830.7654166666907,
      "v": 88
    },
    {
      "midi": 74,
      "hit": false,
      "t": 193843.8269270844,
      "d": 1367.3048437500256,
      "v": 100
    },
    {
      "midi": 62,
      "hit": false,
      "t": 193843.8269270844,
      "d": 1828.8423437500314,
      "v": 88
    },
    {
      "midi": 86,
      "hit": false,
      "t": 193849.5961458344,
      "d": 1823.0731250000244,
      "v": 100
    },
    {
      "midi": 83,
      "hit": false,
      "t": 194305.3644270844,
      "d": 1367.3048437500256,
      "v": 87
    },
    {
      "midi": 78,
      "hit": false,
      "t": 194764.97885416774,
      "d": 907.6904166666791,
      "v": 92
    },
    {
      "midi": 74,
      "hit": false,
      "t": 195228.4394270844,
      "d": 444.22984375001397,
      "v": 81
    },
    {
      "midi": 59,
      "hit": false,
      "t": 195689.9769270844,
      "d": 3674.9923437500256,
      "v": 91
    },
    {
      "midi": 64,
      "hit": false,
      "t": 195689.9769270844,
      "d": 3674.9923437500256,
      "v": 91
    },
    {
      "midi": 76,
      "hit": false,
      "t": 195691.90000000107,
      "d": 1826.919270833343,
      "v": 91
    },
    {
      "midi": 56,
      "hit": false,
      "t": 195691.90000000107,
      "d": 3673.0692708333663,
      "v": 91
    },
    {
      "midi": 71,
      "hit": false,
      "t": 197078.43557291775,
      "d": 2286.5336979166896,
      "v": 70
    },
    {
      "midi": 76,
      "hit": false,
      "t": 197538.0500000011,
      "d": 1826.919270833343,
      "v": 74
    },
    {
      "midi": 57,
      "hit": false,
      "t": 199380.35385416777,
      "d": 1830.7654166666616,
      "v": 79
    },
    {
      "midi": 62,
      "hit": false,
      "t": 199380.35385416777,
      "d": 1830.7654166666616,
      "v": 79
    },
    {
      "midi": 55,
      "hit": false,
      "t": 199382.27692708443,
      "d": 1828.8423437500023,
      "v": 79
    },
    {
      "midi": 59,
      "hit": false,
      "t": 199389.9692187511,
      "d": 1821.150052083336,
      "v": 79
    },
    {
      "midi": 55,
      "hit": false,
      "t": 201226.50385416776,
      "d": 1830.7654166666616,
      "v": 76
    },
    {
      "midi": 57,
      "hit": false,
      "t": 201228.42692708442,
      "d": 1828.8423437500023,
      "v": 76
    },
    {
      "midi": 59,
      "hit": false,
      "t": 201230.35000000108,
      "d": 1826.919270833343,
      "v": 76
    },
    {
      "midi": 62,
      "hit": false,
      "t": 201234.19614583443,
      "d": 1361.5356249999895,
      "v": 76
    },
    {
      "midi": 62,
      "hit": false,
      "t": 202620.73171875108,
      "d": 436.5375520833477,
      "v": 90
    },
    {
      "midi": 38,
      "hit": false,
      "t": 203076.5000000011,
      "d": 3673.069270833279,
      "v": 79
    },
    {
      "midi": 69,
      "hit": false,
      "t": 203078.42307291777,
      "d": 3671.1461979166197,
      "v": 103
    },
    {
      "midi": 45,
      "hit": false,
      "t": 203539.96057291777,
      "d": 3209.608697916614,
      "v": 64
    },
    {
      "midi": 61,
      "hit": false,
      "t": 203995.72885416777,
      "d": 446.15291666664416,
      "v": 76
    },
    {
      "midi": 64,
      "hit": false,
      "t": 203997.65192708443,
      "d": 2751.9173437499558,
      "v": 76
    },
    {
      "midi": 57,
      "hit": false,
      "t": 203999.5750000011,
      "d": 1365.381770833308,
      "v": 76
    },
    {
      "midi": 54,
      "hit": false,
      "t": 203999.5750000011,
      "d": 2749.9942708332965,
      "v": 76
    },
    {
      "midi": 61,
      "hit": false,
      "t": 204459.1894270844,
      "d": 1598.0735937499849,
      "v": 67
    },
    {
      "midi": 57,
      "hit": false,
      "t": 205382.2644270844,
      "d": 1367.3048437499965,
      "v": 67
    },
    {
      "midi": 62,
      "hit": false,
      "t": 205839.95578125105,
      "d": 217.3072395833442,
      "v": 79
    },
    {
      "midi": 61,
      "hit": false,
      "t": 206076.49375000107,
      "d": 211.5380208333372,
      "v": 68
    },
    {
      "midi": 59,
      "hit": false,
      "t": 206305.3394270844,
      "d": 213.4610937499965,
      "v": 81
    },
    {
      "midi": 61,
      "hit": false,
      "t": 206536.1081770844,
      "d": 213.4610937499965,
      "v": 88
    },
    {
      "midi": 59,
      "hit": false,
      "t": 206763.03078125106,
      "d": 1832.6884895833791,
      "v": 79
    },
    {
      "midi": 43,
      "hit": false,
      "t": 206768.80000000107,
      "d": 1826.9192708333721,
      "v": 79
    },
    {
      "midi": 57,
      "hit": false,
      "t": 206772.6461458344,
      "d": 1823.0731250000244,
      "v": 79
    },
    {
      "midi": 62,
      "hit": false,
      "t": 206772.6461458344,
      "d": 1823.0731250000244,
      "v": 103
    },
    {
      "midi": 50,
      "hit": false,
      "t": 207232.26057291776,
      "d": 1363.458697916678,
      "v": 67
    },
    {
      "midi": 55,
      "hit": false,
      "t": 207691.8750000011,
      "d": 903.8442708333314,
      "v": 76
    },
    {
      "midi": 64,
      "hit": false,
      "t": 208155.33557291777,
      "d": 901.9211979167012,
      "v": 90
    },
    {
      "midi": 42,
      "hit": false,
      "t": 208614.95000000112,
      "d": 1826.9192708333721,
      "v": 76
    },
    {
      "midi": 62,
      "hit": false,
      "t": 208620.71921875112,
      "d": 1359.6125520833593,
      "v": 76
    },
    {
      "midi": 57,
      "hit": false,
      "t": 208620.71921875112,
      "d": 1821.1500520833652,
      "v": 76
    },
    {
      "midi": 66,
      "hit": false,
      "t": 209078.4105729178,
      "d": 1363.458697916678,
      "v": 90
    },
    {
      "midi": 62,
      "hit": false,
      "t": 210001.48557291782,
      "d": 440.3836979166663,
      "v": 90
    },
    {
      "midi": 55,
      "hit": false,
      "t": 210459.17692708448,
      "d": 1828.8423437500023,
      "v": 79
    },
    {
      "midi": 62,
      "hit": false,
      "t": 210461.10000000114,
      "d": 1826.919270833343,
      "v": 79
    },
    {
      "midi": 40,
      "hit": false,
      "t": 210464.9461458345,
      "d": 1823.0731249999953,
      "v": 79
    },
    {
      "midi": 59,
      "hit": false,
      "t": 210466.86921875115,
      "d": 1821.150052083336,
      "v": 79
    },
    {
      "midi": 62,
      "hit": false,
      "t": 212303.40385416782,
      "d": 907.6904166666791,
      "v": 74
    },
    {
      "midi": 66,
      "hit": false,
      "t": 212303.40385416782,
      "d": 907.6904166666791,
      "v": 98
    },
    {
      "midi": 50,
      "hit": false,
      "t": 212305.32692708448,
      "d": 905.7673437500198,
      "v": 74
    },
    {
      "midi": 57,
      "hit": false,
      "t": 212311.09614583448,
      "d": 899.9981250000128,
      "v": 74
    },
    {
      "midi": 47,
      "hit": false,
      "t": 213224.55578125117,
      "d": 909.6134895833384,
      "v": 79
    },
    {
      "midi": 54,
      "hit": false,
      "t": 213224.55578125117,
      "d": 909.6134895833384,
      "v": 79
    },
    {
      "midi": 59,
      "hit": false,
      "t": 213228.40192708452,
      "d": 905.7673437499907,
      "v": 79
    },
    {
      "midi": 61,
      "hit": false,
      "t": 213228.40192708452,
      "d": 905.7673437499907,
      "v": 79
    },
    {
      "midi": 62,
      "hit": false,
      "t": 213230.32500000118,
      "d": 903.8442708333314,
      "v": 103
    },
    {
      "midi": 55,
      "hit": false,
      "t": 214147.63078125118,
      "d": 1832.68848958335,
      "v": 79
    },
    {
      "midi": 62,
      "hit": false,
      "t": 214147.63078125118,
      "d": 1832.68848958335,
      "v": 79
    },
    {
      "midi": 45,
      "hit": false,
      "t": 214153.4000000012,
      "d": 3673.0692708333663,
      "v": 79
    },
    {
      "midi": 64,
      "hit": false,
      "t": 214153.4000000012,
      "d": 3673.0692708333663,
      "v": 79
    },
    {
      "midi": 59,
      "hit": false,
      "t": 214157.24614583454,
      "d": 1823.0731249999953,
      "v": 79
    },
    {
      "midi": 55,
      "hit": false,
      "t": 215997.62692708452,
      "d": 1828.8423437500314,
      "v": 76
    },
    {
      "midi": 59,
      "hit": false,
      "t": 216001.47307291787,
      "d": 1824.9961979166837,
      "v": 76
    },
    {
      "midi": 62,
      "hit": false,
      "t": 216003.39614583453,
      "d": 1823.0731250000244,
      "v": 76
    },
    {
      "midi": 74,
      "hit": false,
      "t": 216918.77885416787,
      "d": 907.6904166666791,
      "v": 74
    },
    {
      "midi": 76,
      "hit": false,
      "t": 217388.00864583455,
      "d": 438.460625000007,
      "v": 66
    },
    {
      "midi": 52,
      "hit": false,
      "t": 217839.93078125123,
      "d": 3678.838489583344,
      "v": 79
    },
    {
      "midi": 61,
      "hit": false,
      "t": 217839.93078125123,
      "d": 3678.838489583344,
      "v": 79
    },
    {
      "midi": 57,
      "hit": false,
      "t": 217843.77692708457,
      "d": 3674.9923437499965,
      "v": 79
    },
    {
      "midi": 81,
      "hit": false,
      "t": 217849.54614583458,
      "d": 3669.2231249999895,
      "v": 103
    },
    {
      "midi": 50,
      "hit": false,
      "t": 221534.1538541679,
      "d": 3676.915416666743,
      "v": 79
    },
    {
      "midi": 57,
      "hit": false,
      "t": 221538.00000000125,
      "d": 1826.9192708333721,
      "v": 79
    },
    {
      "midi": 61,
      "hit": false,
      "t": 221574.53838541792,
      "d": 1790.3808854167,
      "v": 79
    },
    {
      "midi": 64,
      "hit": false,
      "t": 221616.8459895846,
      "d": 1748.073281250021,
      "v": 79
    },
    {
      "midi": 66,
      "hit": false,
      "t": 221653.38437500127,
      "d": 3557.684895833372,
      "v": 79
    },
    {
      "midi": 45,
      "hit": false,
      "t": 222920.6894270846,
      "d": 2290.3798437500373,
      "v": 65
    },
    {
      "midi": 93,
      "hit": false,
      "t": 222928.38171875128,
      "d": 2282.687552083371,
      "v": 90
    },
    {
      "midi": 64,
      "hit": false,
      "t": 223380.30385416796,
      "d": 1830.7654166666907,
      "v": 76
    },
    {
      "midi": 54,
      "hit": false,
      "t": 223384.1500000013,
      "d": 1826.919270833343,
      "v": 76
    },
    {
      "midi": 57,
      "hit": false,
      "t": 223384.1500000013,
      "d": 1826.919270833343,
      "v": 76
    },
    {
      "midi": 61,
      "hit": false,
      "t": 223389.9192187513,
      "d": 1821.150052083336,
      "v": 76
    },
    {
      "midi": 91,
      "hit": false,
      "t": 223847.61057291797,
      "d": 1363.458697916678,
      "v": 90
    },
    {
      "midi": 90,
      "hit": false,
      "t": 224764.91635416797,
      "d": 446.15291666667326,
      "v": 90
    },
    {
      "midi": 66,
      "hit": false,
      "t": 225228.37692708464,
      "d": 1828.8423437499732,
      "v": 79
    },
    {
      "midi": 62,
      "hit": false,
      "t": 225230.3000000013,
      "d": 1826.919270833314,
      "v": 79
    },
    {
      "midi": 59,
      "hit": false,
      "t": 225232.22307291796,
      "d": 1824.9961979166546,
      "v": 79
    },
    {
      "midi": 86,
      "hit": false,
      "t": 225232.22307291796,
      "d": 1824.9961979166546,
      "v": 103
    },
    {
      "midi": 57,
      "hit": false,
      "t": 225234.14614583462,
      "d": 1823.0731249999953,
      "v": 79
    },
    {
      "midi": 55,
      "hit": false,
      "t": 226153.37500000128,
      "d": 903.8442708333314,
      "v": 76
    },
    {
      "midi": 61,
      "hit": false,
      "t": 227070.68078125129,
      "d": 1832.6884895833791,
      "v": 74
    },
    {
      "midi": 66,
      "hit": false,
      "t": 227070.68078125129,
      "d": 1832.6884895833791,
      "v": 74
    },
    {
      "midi": 57,
      "hit": false,
      "t": 227074.52692708463,
      "d": 1828.8423437500314,
      "v": 74
    },
    {
      "midi": 86,
      "hit": false,
      "t": 227078.37307291798,
      "d": 1824.9961979166837,
      "v": 98
    },
    {
      "midi": 64,
      "hit": false,
      "t": 227082.21921875133,
      "d": 1821.150052083336,
      "v": 74
    },
    {
      "midi": 83,
      "hit": false,
      "t": 228455.29328125133,
      "d": 448.07598958333256,
      "v": 89
    },
    {
      "midi": 61,
      "hit": false,
      "t": 228916.83078125134,
      "d": 3678.838489583344,
      "v": 79
    },
    {
      "midi": 64,
      "hit": false,
      "t": 228916.83078125134,
      "d": 3678.838489583344,
      "v": 79
    },
    {
      "midi": 66,
      "hit": false,
      "t": 228918.753854168,
      "d": 3676.915416666685,
      "v": 79
    },
    {
      "midi": 81,
      "hit": false,
      "t": 228920.67692708466,
      "d": 3674.9923437500256,
      "v": 103
    },
    {
      "midi": 57,
      "hit": false,
      "t": 228924.523072918,
      "d": 3671.146197916678,
      "v": 79
    },
    {
      "midi": 69,
      "hit": false,
      "t": 231236.05671875135,
      "d": 1359.6125520833302,
      "v": 90
    },
    {
      "midi": 76,
      "hit": false,
      "t": 232157.20864583467,
      "d": 438.460625000007,
      "v": 90
    },
    {
      "midi": 62,
      "hit": false,
      "t": 232612.97692708467,
      "d": 2751.917343750014,
      "v": 79
    },
    {
      "midi": 64,
      "hit": false,
      "t": 232614.90000000133,
      "d": 2749.9942708333547,
      "v": 79
    },
    {
      "midi": 67,
      "hit": false,
      "t": 232616.823072918,
      "d": 2748.0711979166954,
      "v": 79
    },
    {
      "midi": 59,
      "hit": false,
      "t": 232620.66921875134,
      "d": 2744.2250520833477,
      "v": 79
    },
    {
      "midi": 64,
      "hit": false,
      "t": 235380.27885416802,
      "d": 907.6904166666791,
      "v": 79
    },
    {
      "midi": 69,
      "hit": false,
      "t": 235380.27885416802,
      "d": 907.6904166666791,
      "v": 79
    },
    {
      "midi": 57,
      "hit": false,
      "t": 235382.20192708468,
      "d": 905.7673437500198,
      "v": 79
    },
    {
      "midi": 61,
      "hit": false,
      "t": 235387.9711458347,
      "d": 899.9981250000128,
      "v": 79
    },
    {
      "midi": 50,
      "hit": false,
      "t": 236305.2769270847,
      "d": 1828.8423437500023,
      "v": 79
    },
    {
      "midi": 62,
      "hit": false,
      "t": 236307.20000000135,
      "d": 903.8442708333314,
      "v": 79
    },
    {
      "midi": 66,
      "hit": false,
      "t": 236307.20000000135,
      "d": 1826.919270833343,
      "v": 79
    },
    {
      "midi": 57,
      "hit": false,
      "t": 236309.123072918,
      "d": 440.3836979166663,
      "v": 79
    },
    {
      "midi": 57,
      "hit": false,
      "t": 236772.58364583467,
      "d": 1361.5356250000186,
      "v": 67
    },
    {
      "midi": 62,
      "hit": false,
      "t": 237230.27500000136,
      "d": 903.8442708333314,
      "v": 76
    },
    {
      "midi": 64,
      "hit": false,
      "t": 238147.58078125137,
      "d": 1832.6884895833791,
      "v": 76
    },
    {
      "midi": 57,
      "hit": false,
      "t": 238153.35000000137,
      "d": 442.3067708333547,
      "v": 76
    },
    {
      "midi": 61,
      "hit": false,
      "t": 238159.11921875138,
      "d": 1359.6125520833593,
      "v": 100
    },
    {
      "midi": 57,
      "hit": false,
      "t": 238614.8875000014,
      "d": 1365.3817708333372,
      "v": 90
    },
    {
      "midi": 59,
      "hit": false,
      "t": 239078.34807291807,
      "d": 901.9211979166721,
      "v": 98
    },
    {
      "midi": 61,
      "hit": false,
      "t": 239534.11635416807,
      "d": 446.15291666667326,
      "v": 90
    },
    {
      "midi": 43,
      "hit": false,
      "t": 239995.65385416808,
      "d": 2753.8404166666733,
      "v": 79
    },
    {
      "midi": 54,
      "hit": false,
      "t": 240041.80760416808,
      "d": 2707.6866666666756,
      "v": 79
    },
    {
      "midi": 57,
      "hit": false,
      "t": 240082.19213541807,
      "d": 2667.302135416685,
      "v": 79
    },
    {
      "midi": 59,
      "hit": false,
      "t": 240112.96130208473,
      "d": 2636.53296875002,
      "v": 79
    },
    {
      "midi": 62,
      "hit": false,
      "t": 240149.4996875014,
      "d": 2599.9945833333477,
      "v": 60
    },
    {
      "midi": 45,
      "hit": false,
      "t": 242764.87885416808,
      "d": 6215.371666666673,
      "v": 79
    },
    {
      "midi": 55,
      "hit": false,
      "t": 242811.03260416808,
      "d": 6169.217916666676,
      "v": 79
    },
    {
      "midi": 59,
      "hit": false,
      "t": 242845.6479166681,
      "d": 6134.602604166663,
      "v": 79
    },
    {
      "midi": 62,
      "hit": false,
      "t": 242886.03244791809,
      "d": 6094.218072916672,
      "v": 60
    },
    {
      "midi": 64,
      "hit": false,
      "t": 242916.80161458475,
      "d": 6063.448906250007,
      "v": 60
    },
    {
      "midi": 57,
      "hit": false,
      "t": 249226.40385416808,
      "d": 3676.915416666656,
      "v": 74
    },
    {
      "midi": 64,
      "hit": false,
      "t": 249228.32692708474,
      "d": 3674.9923437499965,
      "v": 74
    },
    {
      "midi": 38,
      "hit": false,
      "t": 249230.2500000014,
      "d": 3673.069270833337,
      "v": 74
    },
    {
      "midi": 54,
      "hit": false,
      "t": 249236.0192187514,
      "d": 3667.3000520833302,
      "v": 74
    },
    {
      "midi": 61,
      "hit": false,
      "t": 249236.0192187514,
      "d": 3667.3000520833302,
      "v": 74
    },
    {
      "midi": 81,
      "hit": false,
      "t": 250609.0932812514,
      "d": 1678.8426562499953,
      "v": 77
    },
    {
      "midi": 93,
      "hit": false,
      "t": 250618.70864583473,
      "d": 2284.610625000001,
      "v": 77
    },
    {
      "midi": 91,
      "hit": false,
      "t": 251537.9375000014,
      "d": 1365.3817708333372,
      "v": 79
    },
    {
      "midi": 79,
      "hit": false,
      "t": 251543.7067187514,
      "d": 1359.6125520833302,
      "v": 79
    },
    {
      "midi": 69,
      "hit": false,
      "t": 252305.2435937514,
      "d": 290.3840104166884,
      "v": 72
    },
    {
      "midi": 81,
      "hit": false,
      "t": 252309.08973958474,
      "d": 594.2295312499919,
      "v": 72
    },
    {
      "midi": 78,
      "hit": false,
      "t": 252616.78140625142,
      "d": 748.0753645833465,
      "v": 85
    },
    {
      "midi": 90,
      "hit": false,
      "t": 252618.70447916808,
      "d": 746.1522916666872,
      "v": 85
    },
    {
      "midi": 62,
      "hit": false,
      "t": 252920.62692708473,
      "d": 905.7673437500489,
      "v": 76
    },
    {
      "midi": 66,
      "hit": false,
      "t": 252924.47307291807,
      "d": 901.9211979167012,
      "v": 76
    },
    {
      "midi": 55,
      "hit": false,
      "t": 252924.47307291807,
      "d": 3671.1461979167652,
      "v": 76
    },
    {
      "midi": 59,
      "hit": false,
      "t": 252928.31921875142,
      "d": 898.0750520833535,
      "v": 76
    },
    {
      "midi": 76,
      "hit": false,
      "t": 253384.08750000145,
      "d": 3211.5317708333896,
      "v": 77
    },
    {
      "midi": 88,
      "hit": false,
      "t": 253386.0105729181,
      "d": 3209.6086979167303,
      "v": 77
    },
    {
      "midi": 66,
      "hit": false,
      "t": 253839.85578125145,
      "d": 909.6134895833675,
      "v": 74
    },
    {
      "midi": 59,
      "hit": false,
      "t": 253845.62500000146,
      "d": 903.8442708333605,
      "v": 74
    },
    {
      "midi": 62,
      "hit": false,
      "t": 253851.39421875146,
      "d": 898.0750520833535,
      "v": 74
    },
    {
      "midi": 86,
      "hit": false,
      "t": 254303.31635416814,
      "d": 2292.3029166666965,
      "v": 78
    },
    {
      "midi": 74,
      "hit": false,
      "t": 254305.2394270848,
      "d": 2290.3798437500373,
      "v": 78
    },
    {
      "midi": 66,
      "hit": false,
      "t": 254766.7769270848,
      "d": 1213.4590104167,
      "v": 79
    },
    {
      "midi": 59,
      "hit": false,
      "t": 254770.62307291816,
      "d": 901.9211979166721,
      "v": 79
    },
    {
      "midi": 62,
      "hit": false,
      "t": 254774.4692187515,
      "d": 898.0750520833244,
      "v": 79
    },
    {
      "midi": 79,
      "hit": false,
      "t": 255230.2375000015,
      "d": 1365.3817708333372,
      "v": 76
    },
    {
      "midi": 67,
      "hit": false,
      "t": 255232.16057291816,
      "d": 1363.458697916678,
      "v": 76
    },
    {
      "midi": 59,
      "hit": false,
      "t": 255686.0057812515,
      "d": 909.6134895833384,
      "v": 76
    },
    {
      "midi": 62,
      "hit": false,
      "t": 255687.92885416816,
      "d": 907.6904166666791,
      "v": 76
    },
    {
      "midi": 78,
      "hit": false,
      "t": 255999.4666666682,
      "d": 596.1526041666511,
      "v": 72
    },
    {
      "midi": 66,
      "hit": false,
      "t": 256005.2358854182,
      "d": 590.3833854166442,
      "v": 72
    },
    {
      "midi": 73,
      "hit": false,
      "t": 256303.31218750152,
      "d": 292.3070833333186,
      "v": 85
    },
    {
      "midi": 85,
      "hit": false,
      "t": 256311.0044791682,
      "d": 284.6147916666523,
      "v": 85
    },
    {
      "midi": 54,
      "hit": false,
      "t": 256611.00385416817,
      "d": 907.6904166666791,
      "v": 79
    },
    {
      "midi": 57,
      "hit": false,
      "t": 256611.00385416817,
      "d": 907.6904166666791,
      "v": 79
    },
    {
      "midi": 61,
      "hit": false,
      "t": 256611.00385416817,
      "d": 907.6904166666791,
      "v": 79
    },
    {
      "midi": 81,
      "hit": false,
      "t": 256616.77307291818,
      "d": 1363.458697916707,
      "v": 79
    },
    {
      "midi": 69,
      "hit": false,
      "t": 256618.69614583484,
      "d": 1361.5356250000477,
      "v": 79
    },
    {
      "midi": 57,
      "hit": false,
      "t": 257537.92500000153,
      "d": 2749.994270833413,
      "v": 76
    },
    {
      "midi": 61,
      "hit": false,
      "t": 257541.77114583488,
      "d": 2746.148125000065,
      "v": 76
    },
    {
      "midi": 66,
      "hit": false,
      "t": 257541.77114583488,
      "d": 2746.148125000065,
      "v": 76
    },
    {
      "midi": 71,
      "hit": false,
      "t": 257993.69328125156,
      "d": 909.6134895833384,
      "v": 77
    },
    {
      "midi": 83,
      "hit": false,
      "t": 258003.30864583488,
      "d": 899.9981250000128,
      "v": 77
    },
    {
      "midi": 81,
      "hit": false,
      "t": 258916.76828125157,
      "d": 909.6134895833384,
      "v": 77
    },
    {
      "midi": 69,
      "hit": false,
      "t": 258928.30671875158,
      "d": 898.0750520833244,
      "v": 77
    },
    {
      "midi": 64,
      "hit": false,
      "t": 259839.84328125158,
      "d": 448.07598958336166,
      "v": 78
    },
    {
      "midi": 76,
      "hit": false,
      "t": 259851.3817187516,
      "d": 436.5375520833477,
      "v": 78
    },
    {
      "midi": 55,
      "hit": false,
      "t": 260309.07307291828,
      "d": 1824.9961979166546,
      "v": 79
    },
    {
      "midi": 59,
      "hit": false,
      "t": 260343.6883854183,
      "d": 1790.3808854166418,
      "v": 79
    },
    {
      "midi": 62,
      "hit": false,
      "t": 260382.14984375163,
      "d": 828.8444270833279,
      "v": 79
    },
    {
      "midi": 66,
      "hit": false,
      "t": 260416.76515625164,
      "d": 1717.3041145832976,
      "v": 79
    },
    {
      "midi": 78,
      "hit": false,
      "t": 260426.38052083497,
      "d": 1707.688749999972,
      "v": 91
    },
    {
      "midi": 62,
      "hit": false,
      "t": 261228.30192708495,
      "d": 905.7673437499907,
      "v": 88
    },
    {
      "midi": 74,
      "hit": false,
      "t": 261235.9942187516,
      "d": 898.0750520833244,
      "v": 88
    },
    {
      "midi": 45,
      "hit": false,
      "t": 262157.14614583494,
      "d": 1592.304375000007,
      "v": 80
    },
    {
      "midi": 59,
      "hit": false,
      "t": 262195.6076041683,
      "d": 1553.8429166666465,
      "v": 80
    },
    {
      "midi": 62,
      "hit": false,
      "t": 262234.06906250166,
      "d": 1515.381458333286,
      "v": 80
    },
    {
      "midi": 64,
      "hit": false,
      "t": 262264.8382291683,
      "d": 1484.6122916666209,
      "v": 80
    },
    {
      "midi": 69,
      "hit": false,
      "t": 262309.06890625163,
      "d": 1440.3816145833116,
      "v": 68
    },
    {
      "midi": 57,
      "hit": false,
      "t": 263080.22114583495,
      "d": 669.2293749999953,
      "v": 73
    },
    {
      "midi": 57,
      "hit": false,
      "t": 263885.98869791825,
      "d": 1478.843072916672,
      "v": 79
    },
    {
      "midi": 61,
      "hit": false,
      "t": 263916.7578645849,
      "d": 986.5364062499721,
      "v": 79
    },
    {
      "midi": 64,
      "hit": false,
      "t": 263941.7578125016,
      "d": 1423.0739583333489,
      "v": 79
    },
    {
      "midi": 66,
      "hit": false,
      "t": 263968.6808333349,
      "d": 13396.125937500154,
      "v": 79
    },
    {
      "midi": 38,
      "hit": false,
      "t": 263999.4500000016,
      "d": 13365.356770833489,
      "v": 79
    },
    {
      "midi": 69,
      "hit": false,
      "t": 264003.2961458349,
      "d": 13361.51062500017,
      "v": 79
    },
    {
      "midi": 61,
      "hit": false,
      "t": 264926.3711458349,
      "d": 438.460625000007,
      "v": 76
    },
    {
      "midi": 64,
      "hit": false,
      "t": 265382.13942708494,
      "d": 11982.66734375013,
      "v": 53
    },
    {
      "midi": 54,
      "hit": false,
      "t": 265384.06250000163,
      "d": 11980.744270833442,
      "v": 53
    },
    {
      "midi": 57,
      "hit": false,
      "t": 265385.9855729183,
      "d": 11978.821197916754,
      "v": 53
    },
    {
      "midi": 61,
      "hit": false,
      "t": 265389.83171875164,
      "d": 11974.975052083435,
      "v": 53
    },
    {
      "midi": 78,
      "hit": false,
      "t": 266541.75239583495,
      "d": 2515.379375000135,
      "v": 66
    },
    {
      "midi": 90,
      "hit": false,
      "t": 266543.67546875164,
      "d": 2513.4563020834466,
      "v": 66
    },
    {
      "midi": 91,
      "hit": false,
      "t": 266997.520677085,
      "d": 10367.286093750095,
      "v": 62
    },
    {
      "midi": 79,
      "hit": false,
      "t": 267005.2129687517,
      "d": 10359.5938020834,
      "v": 62
    },
    {
      "midi": 93,
      "hit": false,
      "t": 267460.9812500017,
      "d": 9903.825520833372,
      "v": 67
    },
    {
      "midi": 81,
      "hit": false,
      "t": 267462.9043229184,
      "d": 9901.902447916684,
      "v": 67
    },
    {
      "midi": 76,
      "hit": false,
      "t": 268157.13364583504,
      "d": 9207.67312500003,
      "v": 64
    },
    {
      "midi": 88,
      "hit": false,
      "t": 268159.05671875173,
      "d": 9205.750052083342,
      "v": 64
    },
    {
      "midi": 78,
      "hit": false,
      "t": 269076.36250000173,
      "d": 8288.444270833337,
      "v": 67
    },
    {
      "midi": 90,
      "hit": false,
      "t": 269076.36250000173,
      "d": 8288.444270833337,
      "v": 67
    }
  ]
}