{
  "jsonPath": "Classical/Classical/Franz Schubert/impromptu-in-ges-dur.json",
  "path": "Classical\\Classical\\Franz Schubert\\Impromptu in Ges-dur.mid",
  "name": "Impromptu in Ges-dur",
  "difficulty": "Advanced",
  "bpm": 60,
  "notes": [
    {
      "midi": 70,
      "hit": false,
      "t": 0,
      "d": 4000,
      "v": 127
    },
    {
      "midi": 42,
      "hit": false,
      "t": 0,
      "d": 4000,
      "v": 127
    },
    {
      "midi": 49,
      "hit": false,
      "t": 0,
      "d": 4000,
      "v": 127
    },
    {
      "midi": 70,
      "hit": false,
      "t": 4000,
      "d": 2000,
      "v": 127
    },
    {
      "midi": 42,
      "hit": false,
      "t": 4000,
      "d": 2000,
      "v": 127
    },
    {
      "midi": 49,
      "hit": false,
      "t": 4000,
      "d": 2000,
      "v": 127
    },
    {
      "midi": 70,
      "hit": false,
      "t": 6000,
      "d": 2000,
      "v": 127
    },
    {
      "midi": 42,
      "hit": false,
      "t": 6000,
      "d": 2000,
      "v": 127
    },
    {
      "midi": 49,
      "hit": false,
      "t": 6000,
      "d": 2000,
      "v": 127
    },
    {
      "midi": 70,
      "hit": false,
      "t": 8000,
      "d": 4000,
      "v": 127
    },
    {
      "midi": 39,
      "hit": false,
      "t": 8000,
      "d": 8000,
      "v": 127
    },
    {
      "midi": 51,
      "hit": false,
      "t": 8000,
      "d": 8000,
      "v": 127
    },
    {
      "midi": 66,
      "hit": false,
      "t": 12000,
      "d": 4000,
      "v": 127
    },
    {
      "midi": 68,
      "hit": false,
      "t": 16000,
      "d": 4000,
      "v": 127
    },
    {
      "midi": 35,
      "hit": false,
      "t": 16000,
      "d": 4000,
      "v": 127
    },
    {
      "midi": 47,
      "hit": false,
      "t": 16000,
      "d": 4000,
      "v": 127
    },
    {
      "midi": 66,
      "hit": false,
      "t": 20000,
      "d": 1000,
      "v": 127
    },
    {
      "midi": 37,
      "hit": false,
      "t": 20000,
      "d": 3000,
      "v": 127
    },
    {
      "midi": 49,
      "hit": false,
      "t": 20000,
      "d": 3000,
      "v": 127
    },
    {
      "midi": 65,
      "hit": false,
      "t": 21000,
      "d": 1000,
      "v": 127
    },
    {
      "midi": 63,
      "hit": false,
      "t": 22000,
      "d": 1000,
      "v": 127
    },
    {
      "midi": 61,
      "hit": false,
      "t": 23000,
      "d": 1000,
      "v": 127
    },
    {
      "midi": 47,
      "hit": false,
      "t": 23000,
      "d": 1000,
      "v": 127
    },
    {
      "midi": 49,
      "hit": false,
      "t": 23000,
      "d": 1000,
      "v": 127
    },
    {
      "midi": 66,
      "hit": false,
      "t": 24000,
      "d": 2000,
      "v": 127
    },
    {
      "midi": 46,
      "hit": false,
      "t": 24000,
      "d": 2000,
      "v": 127
    },
    {
      "midi": 49,
      "hit": false,
      "t": 24000,
      "d": 2000,
      "v": 127
    },
    {
      "midi": 70,
      "hit": false,
      "t": 26000,
      "d": 2000,
      "v": 127
    },
    {
      "midi": 42,
      "hit": false,
      "t": 26000,
      "d": 2000,
      "v": 127
    },
    {
      "midi": 51,
      "hit": false,
      "t": 26000,
      "d": 2000,
      "v": 127
    },
    {
      "midi": 68,
      "hit": false,
      "t": 28000,
      "d": 3000,
      "v": 127
    },
    {
      "midi": 37,
      "hit": false,
      "t": 28000,
      "d": 1000,
      "v": 127
    },
    {
      "midi": 53,
      "hit": false,
      "t": 29000,
      "d": 3000,
      "v": 127
    },
    {
      "midi": 69,
      "hit": false,
      "t": 31000,
      "d": 1000,
      "v": 127
    },
    {
      "midi": 70,
      "hit": false,
      "t": 32000,
      "d": 4000,
      "v": 127
    },
    {
      "midi": 42,
      "hit": false,
      "t": 32000,
      "d": 4000,
      "v": 127
    },
    {
      "midi": 49,
      "hit": false,
      "t": 32000,
      "d": 4000,
      "v": 127
    },
    {
      "midi": 70,
      "hit": false,
      "t": 36000,
      "d": 2000,
      "v": 127
    },
    {
      "midi": 42,
      "hit": false,
      "t": 36000,
      "d": 2000,
      "v": 127
    },
    {
      "midi": 49,
      "hit": false,
      "t": 36000,
      "d": 2000,
      "v": 127
    },
    {
      "midi": 70,
      "hit": false,
      "t": 38000,
      "d": 2000,
      "v": 127
    },
    {
      "midi": 42,
      "hit": false,
      "t": 38000,
      "d": 2000,
      "v": 127
    },
    {
      "midi": 49,
      "hit": false,
      "t": 38000,
      "d": 2000,
      "v": 127
    },
    {
      "midi": 70,
      "hit": false,
      "t": 40000,
      "d": 4000,
      "v": 127
    },
    {
      "midi": 39,
      "hit": false,
      "t": 40000,
      "d": 6000,
      "v": 127
    },
    {
      "midi": 51,
      "hit": false,
      "t": 40000,
      "d": 6000,
      "v": 127
    },
    {
      "midi": 66,
      "hit": false,
      "t": 44000,
      "d": 2000,
      "v": 127
    },
    {
      "midi": 65,
      "hit": false,
      "t": 46000,
      "d": 2000,
      "v": 127
    },
    {
      "midi": 34,
      "hit": false,
      "t": 46000,
      "d": 2000,
      "v": 127
    },
    {
      "midi": 46,
      "hit": false,
      "t": 46000,
      "d": 2000,
      "v": 127
    },
    {
      "midi": 63,
      "hit": false,
      "t": 48000,
      "d": 2000,
      "v": 127
    },
    {
      "midi": 35,
      "hit": false,
      "t": 48000,
      "d": 2000,
      "v": 127
    },
    {
      "midi": 47,
      "hit": false,
      "t": 48000,
      "d": 2000,
      "v": 127
    },
    {
      "midi": 68,
      "hit": false,
      "t": 50000,
      "d": 2000,
      "v": 127
    },
    {
      "midi": 32,
      "hit": false,
      "t": 50000,
      "d": 2000,
      "v": 127
    },
    {
      "midi": 44,
      "hit": false,
      "t": 50000,
      "d": 2000,
      "v": 127
    },
    {
      "midi": 66,
      "hit": false,
      "t": 52000,
      "d": 1000,
      "v": 127
    },
    {
      "midi": 37,
      "hit": false,
      "t": 52000,
      "d": 4000,
      "v": 127
    },
    {
      "midi": 49,
      "hit": false,
      "t": 52000,
      "d": 4000,
      "v": 127
    },
    {
      "midi": 65,
      "hit": false,
      "t": 53000,
      "d": 1000,
      "v": 127
    },
    {
      "midi": 63,
      "hit": false,
      "t": 54000,
      "d": 1000,
      "v": 127
    },
    {
      "midi": 65,
      "hit": false,
      "t": 55000,
      "d": 1000,
      "v": 127
    },
    {
      "midi": 68,
      "hit": false,
      "t": 56000,
      "d": 4000,
      "v": 127
    },
    {
      "midi": 42,
      "hit": false,
      "t": 56000,
      "d": 8000,
      "v": 127
    },
    {
      "midi": 49,
      "hit": false,
      "t": 56000,
      "d": 8000,
      "v": 127
    },
    {
      "midi": 66,
      "hit": false,
      "t": 60000,
      "d": 4000,
      "v": 127
    },
    {
      "midi": 68,
      "hit": false,
      "t": 64000,
      "d": 4000,
      "v": 127
    },
    {
      "midi": 49,
      "hit": false,
      "t": 64000,
      "d": 4000,
      "v": 127
    },
    {
      "midi": 53,
      "hit": false,
      "t": 64000,
      "d": 4000,
      "v": 127
    },
    {
      "midi": 70,
      "hit": false,
      "t": 68000,
      "d": 4000,
      "v": 127
    },
    {
      "midi": 46,
      "hit": false,
      "t": 68000,
      "d": 4000,
      "v": 127
    },
    {
      "midi": 51,
      "hit": false,
      "t": 68000,
      "d": 4000,
      "v": 127
    },
    {
      "midi": 55,
      "hit": false,
      "t": 68000,
      "d": 4000,
      "v": 127
    },
    {
      "midi": 73,
      "hit": false,
      "t": 72000,
      "d": 3000,
      "v": 127
    },
    {
      "midi": 44,
      "hit": false,
      "t": 72000,
      "d": 4000,
      "v": 127
    },
    {
      "midi": 51,
      "hit": false,
      "t": 72000,
      "d": 4000,
      "v": 127
    },
    {
      "midi": 56,
      "hit": false,
      "t": 72000,
      "d": 4000,
      "v": 127
    },
    {
      "midi": 71,
      "hit": false,
      "t": 75000,
      "d": 1000,
      "v": 127
    },
    {
      "midi": 71,
      "hit": false,
      "t": 76000,
      "d": 4000,
      "v": 127
    },
    {
      "midi": 44,
      "hit": false,
      "t": 76000,
      "d": 4000,
      "v": 127
    },
    {
      "midi": 51,
      "hit": false,
      "t": 76000,
      "d": 4000,
      "v": 127
    },
    {
      "midi": 56,
      "hit": false,
      "t": 76000,
      "d": 4000,
      "v": 127
    },
    {
      "midi": 71,
      "hit": false,
      "t": 80000,
      "d": 4000,
      "v": 127
    },
    {
      "midi": 52,
      "hit": false,
      "t": 80000,
      "d": 4000,
      "v": 127
    },
    {
      "midi": 56,
      "hit": false,
      "t": 80000,
      "d": 4000,
      "v": 127
    },
    {
      "midi": 71,
      "hit": false,
      "t": 84000,
      "d": 2000,
      "v": 127
    },
    {
      "midi": 51,
      "hit": false,
      "t": 84000,
      "d": 2000,
      "v": 127
    },
    {
      "midi": 54,
      "hit": false,
      "t": 84000,
      "d": 2000,
      "v": 127
    },
    {
      "midi": 73,
      "hit": false,
      "t": 86000,
      "d": 2000,
      "v": 127
    },
    {
      "midi": 49,
      "hit": false,
      "t": 86000,
      "d": 2000,
      "v": 127
    },
    {
      "midi": 54,
      "hit": false,
      "t": 86000,
      "d": 2000,
      "v": 127
    },
    {
      "midi": 58,
      "hit": false,
      "t": 86000,
      "d": 2000,
      "v": 127
    },
    {
      "midi": 76,
      "hit": false,
      "t": 88000,
      "d": 3000,
      "v": 127
    },
    {
      "midi": 47,
      "hit": false,
      "t": 88000,
      "d": 4000,
      "v": 127
    },
    {
      "midi": 54,
      "hit": false,
      "t": 88000,
      "d": 4000,
      "v": 127
    },
    {
      "midi": 59,
      "hit": false,
      "t": 88000,
      "d": 4000,
      "v": 127
    },
    {
      "midi": 75,
      "hit": false,
      "t": 91000,
      "d": 1000,
      "v": 127
    },
    {
      "midi": 75,
      "hit": false,
      "t": 92000,
      "d": 4000,
      "v": 127
    },
    {
      "midi": 47,
      "hit": false,
      "t": 92000,
      "d": 4000,
      "v": 127
    },
    {
      "midi": 54,
      "hit": false,
      "t": 92000,
      "d": 4000,
      "v": 127
    },
    {
      "midi": 59,
      "hit": false,
      "t": 92000,
      "d": 4000,
      "v": 127
    },
    {
      "midi": 75,
      "hit": false,
      "t": 96000,
      "d": 4000,
      "v": 127
    },
    {
      "midi": 47,
      "hit": false,
      "t": 96000,
      "d": 4000,
      "v": 127
    },
    {
      "midi": 54,
      "hit": false,
      "t": 96000,
      "d": 4000,
      "v": 127
    },
    {
      "midi": 75,
      "hit": false,
      "t": 100000,
      "d": 1000,
      "v": 127
    },
    {
      "midi": 56,
      "hit": false,
      "t": 100000,
      "d": 2000,
      "v": 127
    },
    {
      "midi": 71,
      "hit": false,
      "t": 101000,
      "d": 1000,
      "v": 127
    },
    {
      "midi": 70,
      "hit": false,
      "t": 102000,
      "d": 1000,
      "v": 127
    },
    {
      "midi": 53,
      "hit": false,
      "t": 102000,
      "d": 2000,
      "v": 127
    },
    {
      "midi": 68,
      "hit": false,
      "t": 103000,
      "d": 1000,
      "v": 127
    },
    {
      "midi": 73,
      "hit": false,
      "t": 104000,
      "d": 4000,
      "v": 127
    },
    {
      "midi": 46,
      "hit": false,
      "t": 104000,
      "d": 4000,
      "v": 127
    },
    {
      "midi": 54,
      "hit": false,
      "t": 104000,
      "d": 4000,
      "v": 127
    },
    {
      "midi": 73,
      "hit": false,
      "t": 108000,
      "d": 1000,
      "v": 127
    },
    {
      "midi": 54,
      "hit": false,
      "t": 108000,
      "d": 2000,
      "v": 127
    },
    {
      "midi": 71,
      "hit": false,
      "t": 109000,
      "d": 1000,
      "v": 127
    },
    {
      "midi": 68,
      "hit": false,
      "t": 110000,
      "d": 1000,
      "v": 127
    },
    {
      "midi": 56,
      "hit": false,
      "t": 110000,
      "d": 2000,
      "v": 127
    },
    {
      "midi": 63,
      "hit": false,
      "t": 111000,
      "d": 1000,
      "v": 127
    },
    {
      "midi": 66,
      "hit": false,
      "t": 112000,
      "d": 4000,
      "v": 127
    },
    {
      "midi": 49,
      "hit": false,
      "t": 112000,
      "d": 4000,
      "v": 127
    },
    {
      "midi": 66,
      "hit": false,
      "t": 116000,
      "d": 1000,
      "v": 127
    },
    {
      "midi": 37,
      "hit": false,
      "t": 116000,
      "d": 2000,
      "v": 127
    },
    {
      "midi": 49,
      "hit": false,
      "t": 116000,
      "d": 2000,
      "v": 127
    },
    {
      "midi": 65,
      "hit": false,
      "t": 117000,
      "d": 1000,
      "v": 127
    },
    {
      "midi": 70,
      "hit": false,
      "t": 118000,
      "d": 1000,
      "v": 127
    },
    {
      "midi": 54,
      "hit": false,
      "t": 118000,
      "d": 1000,
      "v": 127
    },
    {
      "midi": 68,
      "hit": false,
      "t": 119000,
      "d": 1000,
      "v": 127
    },
    {
      "midi": 53,
      "hit": false,
      "t": 119000,
      "d": 1000,
      "v": 127
    },
    {
      "midi": 66,
      "hit": false,
      "t": 120000,
      "d": 4000,
      "v": 127
    },
    {
      "midi": 42,
      "hit": false,
      "t": 120000,
      "d": 4000,
      "v": 127
    },
    {
      "midi": 49,
      "hit": false,
      "t": 120000,
      "d": 4000,
      "v": 127
    },
    {
      "midi": 66,
      "hit": false,
      "t": 124000,
      "d": 2000,
      "v": 127
    },
    {
      "midi": 46,
      "hit": false,
      "t": 124000,
      "d": 2000,
      "v": 127
    },
    {
      "midi": 49,
      "hit": false,
      "t": 124000,
      "d": 2000,
      "v": 127
    },
    {
      "midi": 67,
      "hit": false,
      "t": 126000,
      "d": 2000,
      "v": 127
    },
    {
      "midi": 46,
      "hit": false,
      "t": 126000,
      "d": 2000,
      "v": 127
    },
    {
      "midi": 49,
      "hit": false,
      "t": 126000,
      "d": 2000,
      "v": 127
    },
    {
      "midi": 68,
      "hit": false,
      "t": 128000,
      "d": 4000,
      "v": 127
    },
    {
      "midi": 49,
      "hit": false,
      "t": 128000,
      "d": 4000,
      "v": 127
    },
    {
      "midi": 53,
      "hit": false,
      "t": 128000,
      "d": 4000,
      "v": 127
    },
    {
      "midi": 70,
      "hit": false,
      "t": 132000,
      "d": 4000,
      "v": 127
    },
    {
      "midi": 52,
      "hit": false,
      "t": 132000,
      "d": 2000,
      "v": 127
    },
    {
      "midi": 51,
      "hit": false,
      "t": 134000,
      "d": 2000,
      "v": 127
    },
    {
      "midi": 73,
      "hit": false,
      "t": 136000,
      "d": 3000,
      "v": 127
    },
    {
      "midi": 55,
      "hit": false,
      "t": 136000,
      "d": 3000,
      "v": 127
    },
    {
      "midi": 71,
      "hit": false,
      "t": 139000,
      "d": 1000,
      "v": 127
    },
    {
      "midi": 56,
      "hit": false,
      "t": 139000,
      "d": 1000,
      "v": 127
    },
    {
      "midi": 71,
      "hit": false,
      "t": 140000,
      "d": 4000,
      "v": 127
    },
    {
      "midi": 51,
      "hit": false,
      "t": 140000,
      "d": 4000,
      "v": 127
    },
    {
      "midi": 56,
      "hit": false,
      "t": 140000,
      "d": 4000,
      "v": 127
    },
    {
      "midi": 71,
      "hit": false,
      "t": 144000,
      "d": 4000,
      "v": 127
    },
    {
      "midi": 52,
      "hit": false,
      "t": 144000,
      "d": 4000,
      "v": 127
    },
    {
      "midi": 71,
      "hit": false,
      "t": 148000,
      "d": 2000,
      "v": 127
    },
    {
      "midi": 51,
      "hit": false,
      "t": 148000,
      "d": 2000,
      "v": 127
    },
    {
      "midi": 73,
      "hit": false,
      "t": 150000,
      "d": 2000,
      "v": 127
    },
    {
      "midi": 49,
      "hit": false,
      "t": 150000,
      "d": 250,
      "v": 127
    },
    {
      "midi": 51,
      "hit": false,
      "t": 150250,
      "d": 250,
      "v": 127
    },
    {
      "midi": 49,
      "hit": false,
      "t": 150500,
      "d": 250,
      "v": 127
    },
    {
      "midi": 51,
      "hit": false,
      "t": 150750,
      "d": 250,
      "v": 127
    },
    {
      "midi": 49,
      "hit": false,
      "t": 151000,
      "d": 250,
      "v": 127
    },
    {
      "midi": 47,
      "hit": false,
      "t": 151250,
      "d": 250,
      "v": 127
    },
    {
      "midi": 49,
      "hit": false,
      "t": 151750,
      "d": 250,
      "v": 127
    },
    {
      "midi": 76,
      "hit": false,
      "t": 152000,
      "d": 3000,
      "v": 127
    },
    {
      "midi": 35,
      "hit": false,
      "t": 152000,
      "d": 8000,
      "v": 127
    },
    {
      "midi": 75,
      "hit": false,
      "t": 155000,
      "d": 1000,
      "v": 127
    },
    {
      "midi": 75,
      "hit": false,
      "t": 156000,
      "d": 4000,
      "v": 127
    },
    {
      "midi": 75,
      "hit": false,
      "t": 160000,
      "d": 4000,
      "v": 127
    },
    {
      "midi": 47,
      "hit": false,
      "t": 160000,
      "d": 4000,
      "v": 127
    },
    {
      "midi": 54,
      "hit": false,
      "t": 160000,
      "d": 4000,
      "v": 127
    },
    {
      "midi": 75,
      "hit": false,
      "t": 164000,
      "d": 1000,
      "v": 127
    },
    {
      "midi": 56,
      "hit": false,
      "t": 164000,
      "d": 2000,
      "v": 127
    },
    {
      "midi": 74,
      "hit": false,
      "t": 165000,
      "d": 1000,
      "v": 127
    },
    {
      "midi": 71,
      "hit": false,
      "t": 166000,
      "d": 1000,
      "v": 127
    },
    {
      "midi": 53,
      "hit": false,
      "t": 166000,
      "d": 2000,
      "v": 127
    },
    {
      "midi": 68,
      "hit": false,
      "t": 167000,
      "d": 1000,
      "v": 127
    },
    {
      "midi": 73,
      "hit": false,
      "t": 168000,
      "d": 4000,
      "v": 127
    },
    {
      "midi": 46,
      "hit": false,
      "t": 168000,
      "d": 4000,
      "v": 127
    },
    {
      "midi": 54,
      "hit": false,
      "t": 168000,
      "d": 4000,
      "v": 127
    },
    {
      "midi": 73,
      "hit": false,
      "t": 172000,
      "d": 1000,
      "v": 127
    },
    {
      "midi": 55,
      "hit": false,
      "t": 172000,
      "d": 1000,
      "v": 127
    },
    {
      "midi": 71,
      "hit": false,
      "t": 173000,
      "d": 1000,
      "v": 127
    },
    {
      "midi": 56,
      "hit": false,
      "t": 173000,
      "d": 1000,
      "v": 127
    },
    {
      "midi": 68,
      "hit": false,
      "t": 174000,
      "d": 1000,
      "v": 127
    },
    {
      "midi": 51,
      "hit": false,
      "t": 174000,
      "d": 2000,
      "v": 127
    },
    {
      "midi": 63,
      "hit": false,
      "t": 175000,
      "d": 1000,
      "v": 127
    },
    {
      "midi": 66,
      "hit": false,
      "t": 176000,
      "d": 4000,
      "v": 127
    },
    {
      "midi": 49,
      "hit": false,
      "t": 176000,
      "d": 4000,
      "v": 127
    },
    {
      "midi": 66,
      "hit": false,
      "t": 180000,
      "d": 1000,
      "v": 127
    },
    {
      "midi": 37,
      "hit": false,
      "t": 180000,
      "d": 2000,
      "v": 127
    },
    {
      "midi": 49,
      "hit": false,
      "t": 180000,
      "d": 2000,
      "v": 127
    },
    {
      "midi": 65,
      "hit": false,
      "t": 181000,
      "d": 1000,
      "v": 127
    },
    {
      "midi": 70,
      "hit": false,
      "t": 182000,
      "d": 1000,
      "v": 127
    },
    {
      "midi": 54,
      "hit": false,
      "t": 182000,
      "d": 1000,
      "v": 127
    },
    {
      "midi": 68,
      "hit": false,
      "t": 183000,
      "d": 1000,
      "v": 127
    },
    {
      "midi": 53,
      "hit": false,
      "t": 183000,
      "d": 1000,
      "v": 127
    },
    {
      "midi": 66,
      "hit": false,
      "t": 184000,
      "d": 8000,
      "v": 127
    },
    {
      "midi": 42,
      "hit": false,
      "t": 184000,
      "d": 6000,
      "v": 127
    },
    {
      "midi": 49,
      "hit": false,
      "t": 184000,
      "d": 6000,
      "v": 127
    },
    {
      "midi": 41,
      "hit": false,
      "t": 190000,
      "d": 2000,
      "v": 127
    },
    {
      "midi": 50,
      "hit": false,
      "t": 190000,
      "d": 2000,
      "v": 127
    },
    {
      "midi": 70,
      "hit": false,
      "t": 192000,
      "d": 4000,
      "v": 127
    },
    {
      "midi": 39,
      "hit": false,
      "t": 192000,
      "d": 3000,
      "v": 127
    },
    {
      "midi": 51,
      "hit": false,
      "t": 192000,
      "d": 3000,
      "v": 127
    },
    {
      "midi": 39,
      "hit": false,
      "t": 195000,
      "d": 250,
      "v": 127
    },
    {
      "midi": 41,
      "hit": false,
      "t": 195250,
      "d": 250,
      "v": 127
    },
    {
      "midi": 42,
      "hit": false,
      "t": 195750,
      "d": 250,
      "v": 127
    },
    {
      "midi": 70,
      "hit": false,
      "t": 196000,
      "d": 4000,
      "v": 127
    },
    {
      "midi": 42,
      "hit": false,
      "t": 196000,
      "d": 3000,
      "v": 127
    },
    {
      "midi": 42,
      "hit": false,
      "t": 199000,
      "d": 250,
      "v": 127
    },
    {
      "midi": 44,
      "hit": false,
      "t": 199250,
      "d": 250,
      "v": 127
    },
    {
      "midi": 46,
      "hit": false,
      "t": 199750,
      "d": 250,
      "v": 127
    },
    {
      "midi": 70,
      "hit": false,
      "t": 200000,
      "d": 1000,
      "v": 127
    },
    {
      "midi": 46,
      "hit": false,
      "t": 200000,
      "d": 1000,
      "v": 127
    },
    {
      "midi": 77,
      "hit": false,
      "t": 201000,
      "d": 1000,
      "v": 127
    },
    {
      "midi": 59,
      "hit": false,
      "t": 201000,
      "d": 1000,
      "v": 127
    },
    {
      "midi": 74,
      "hit": false,
      "t": 202000,
      "d": 1000,
      "v": 127
    },
    {
      "midi": 56,
      "hit": false,
      "t": 202000,
      "d": 1000,
      "v": 127
    },
    {
      "midi": 71,
      "hit": false,
      "t": 203000,
      "d": 1000,
      "v": 127
    },
    {
      "midi": 53,
      "hit": false,
      "t": 203000,
      "d": 1000,
      "v": 127
    },
    {
      "midi": 71,
      "hit": false,
      "t": 204000,
      "d": 1000,
      "v": 127
    },
    {
      "midi": 50,
      "hit": false,
      "t": 204000,
      "d": 2000,
      "v": 127
    },
    {
      "midi": 70,
      "hit": false,
      "t": 205000,
      "d": 1000,
      "v": 127
    },
    {
      "midi": 70,
      "hit": false,
      "t": 206000,
      "d": 1000,
      "v": 127
    },
    {
      "midi": 68,
      "hit": false,
      "t": 207000,
      "d": 1000,
      "v": 127
    },
    {
      "midi": 48,
      "hit": false,
      "t": 207500,
      "d": 250,
      "v": 127
    },
    {
      "midi": 50,
      "hit": false,
      "t": 207750,
      "d": 250,
      "v": 127
    },
    {
      "midi": 68,
      "hit": false,
      "t": 208000,
      "d": 1000,
      "v": 127
    },
    {
      "midi": 51,
      "hit": false,
      "t": 208000,
      "d": 2000,
      "v": 127
    },
    {
      "midi": 66,
      "hit": false,
      "t": 209000,
      "d": 1000,
      "v": 127
    },
    {
      "midi": 65,
      "hit": false,
      "t": 210000,
      "d": 1000,
      "v": 127
    },
    {
      "midi": 44,
      "hit": false,
      "t": 210000,
      "d": 2000,
      "v": 127
    },
    {
      "midi": 68,
      "hit": false,
      "t": 211000,
      "d": 1000,
      "v": 127
    },
    {
      "midi": 63,
      "hit": false,
      "t": 212000,
      "d": 2000,
      "v": 127
    },
    {
      "midi": 46,
      "hit": false,
      "t": 212000,
      "d": 3000,
      "v": 127
    },
    {
      "midi": 62,
      "hit": false,
      "t": 214000,
      "d": 1000,
      "v": 127
    },
    {
      "midi": 44,
      "hit": false,
      "t": 215000,
      "d": 250,
      "v": 127
    },
    {
      "midi": 42,
      "hit": false,
      "t": 215250,
      "d": 250,
      "v": 127
    },
    {
      "midi": 70,
      "hit": false,
      "t": 215750,
      "d": 250,
      "v": 127
    },
    {
      "midi": 41,
      "hit": false,
      "t": 215750,
      "d": 250,
      "v": 127
    },
    {
      "midi": 70,
      "hit": false,
      "t": 216000,
      "d": 4000,
      "v": 127
    },
    {
      "midi": 39,
      "hit": false,
      "t": 216000,
      "d": 3000,
      "v": 127
    },
    {
      "midi": 39,
      "hit": false,
      "t": 219000,
      "d": 250,
      "v": 127
    },
    {
      "midi": 41,
      "hit": false,
      "t": 219250,
      "d": 250,
      "v": 127
    },
    {
      "midi": 42,
      "hit": false,
      "t": 219750,
      "d": 250,
      "v": 127
    },
    {
      "midi": 70,
      "hit": false,
      "t": 220000,
      "d": 3000,
      "v": 127
    },
    {
      "midi": 42,
      "hit": false,
      "t": 220000,
      "d": 3000,
      "v": 127
    },
    {
      "midi": 71,
      "hit": false,
      "t": 223000,
      "d": 1000,
      "v": 127
    },
    {
      "midi": 42,
      "hit": false,
      "t": 223000,
      "d": 250,
      "v": 127
    },
    {
      "midi": 44,
      "hit": false,
      "t": 223250,
      "d": 250,
      "v": 127
    },
    {
      "midi": 46,
      "hit": false,
      "t": 223750,
      "d": 250,
      "v": 127
    },
    {
      "midi": 70,
      "hit": false,
      "t": 224000,
      "d": 1000,
      "v": 127
    },
    {
      "midi": 46,
      "hit": false,
      "t": 224000,
      "d": 1000,
      "v": 127
    },
    {
      "midi": 77,
      "hit": false,
      "t": 225000,
      "d": 1000,
      "v": 127
    },
    {
      "midi": 59,
      "hit": false,
      "t": 225000,
      "d": 1000,
      "v": 127
    },
    {
      "midi": 74,
      "hit": false,
      "t": 226000,
      "d": 1000,
      "v": 127
    },
    {
      "midi": 56,
      "hit": false,
      "t": 226000,
      "d": 1000,
      "v": 127
    },
    {
      "midi": 71,
      "hit": false,
      "t": 227000,
      "d": 1000,
      "v": 127
    },
    {
      "midi": 53,
      "hit": false,
      "t": 227000,
      "d": 1000,
      "v": 127
    },
    {
      "midi": 70,
      "hit": false,
      "t": 228000,
      "d": 1000,
      "v": 127
    },
    {
      "midi": 50,
      "hit": false,
      "t": 228000,
      "d": 2000,
      "v": 127
    },
    {
      "midi": 71,
      "hit": false,
      "t": 229000,
      "d": 1000,
      "v": 127
    },
    {
      "midi": 70,
      "hit": false,
      "t": 230000,
      "d": 1000,
      "v": 127
    },
    {
      "midi": 50,
      "hit": false,
      "t": 230000,
      "d": 250,
      "v": 127
    },
    {
      "midi": 51,
      "hit": false,
      "t": 230250,
      "d": 250,
      "v": 127
    },
    {
      "midi": 50,
      "hit": false,
      "t": 230500,
      "d": 250,
      "v": 127
    },
    {
      "midi": 51,
      "hit": false,
      "t": 230750,
      "d": 250,
      "v": 127
    },
    {
      "midi": 68,
      "hit": false,
      "t": 231000,
      "d": 1000,
      "v": 127
    },
    {
      "midi": 50,
      "hit": false,
      "t": 231000,
      "d": 250,
      "v": 127
    },
    {
      "midi": 47,
      "hit": false,
      "t": 231250,
      "d": 250,
      "v": 127
    },
    {
      "midi": 50,
      "hit": false,
      "t": 231750,
      "d": 250,
      "v": 127
    },
    {
      "midi": 68,
      "hit": false,
      "t": 232000,
      "d": 1000,
      "v": 127
    },
    {
      "midi": 51,
      "hit": false,
      "t": 232000,
      "d": 2000,
      "v": 127
    },
    {
      "midi": 66,
      "hit": false,
      "t": 233000,
      "d": 1000,
      "v": 127
    },
    {
      "midi": 65,
      "hit": false,
      "t": 234000,
      "d": 1000,
      "v": 127
    },
    {
      "midi": 44,
      "hit": false,
      "t": 234000,
      "d": 2000,
      "v": 127
    },
    {
      "midi": 71,
      "hit": false,
      "t": 235000,
      "d": 1000,
      "v": 127
    },
    {
      "midi": 63,
      "hit": false,
      "t": 236000,
      "d": 2000,
      "v": 127
    },
    {
      "midi": 46,
      "hit": false,
      "t": 236000,
      "d": 2000,
      "v": 127
    },
    {
      "midi": 62,
      "hit": false,
      "t": 238000,
      "d": 1000,
      "v": 127
    },
    {
      "midi": 70,
      "hit": false,
      "t": 239000,
      "d": 1000,
      "v": 127
    },
    {
      "midi": 35,
      "hit": false,
      "t": 239000,
      "d": 1000,
      "v": 127
    },
    {
      "midi": 50,
      "hit": false,
      "t": 239000,
      "d": 1000,
      "v": 127
    },
    {
      "midi": 68,
      "hit": false,
      "t": 240000,
      "d": 1000,
      "v": 127
    },
    {
      "midi": 39,
      "hit": false,
      "t": 240000,
      "d": 2000,
      "v": 127
    },
    {
      "midi": 51,
      "hit": false,
      "t": 240000,
      "d": 2000,
      "v": 127
    },
    {
      "midi": 66,
      "hit": false,
      "t": 241000,
      "d": 1000,
      "v": 127
    },
    {
      "midi": 64,
      "hit": false,
      "t": 242000,
      "d": 1000,
      "v": 127
    },
    {
      "midi": 32,
      "hit": false,
      "t": 242000,
      "d": 2000,
      "v": 127
    },
    {
      "midi": 44,
      "hit": false,
      "t": 242000,
      "d": 2000,
      "v": 127
    },
    {
      "midi": 71,
      "hit": false,
      "t": 243000,
      "d": 1000,
      "v": 127
    },
    {
      "midi": 63,
      "hit": false,
      "t": 244000,
      "d": 2000,
      "v": 127
    },
    {
      "midi": 30,
      "hit": false,
      "t": 244000,
      "d": 2000,
      "v": 127
    },
    {
      "midi": 42,
      "hit": false,
      "t": 244000,
      "d": 2000,
      "v": 127
    },
    {
      "midi": 61,
      "hit": false,
      "t": 246000,
      "d": 2000,
      "v": 127
    },
    {
      "midi": 40,
      "hit": false,
      "t": 246000,
      "d": 2000,
      "v": 127
    },
    {
      "midi": 66,
      "hit": false,
      "t": 248000,
      "d": 4000,
      "v": 127
    },
    {
      "midi": 39,
      "hit": false,
      "t": 248000,
      "d": 4000,
      "v": 127
    },
    {
      "midi": 66,
      "hit": false,
      "t": 252000,
      "d": 2000,
      "v": 127
    },
    {
      "midi": 37,
      "hit": false,
      "t": 252000,
      "d": 4000,
      "v": 127
    },
    {
      "midi": 68,
      "hit": false,
      "t": 254000,
      "d": 1000,
      "v": 127
    },
    {
      "midi": 66,
      "hit": false,
      "t": 255000,
      "d": 1000,
      "v": 127
    },
    {
      "midi": 75,
      "hit": false,
      "t": 256000,
      "d": 3000,
      "v": 127
    },
    {
      "midi": 35,
      "hit": false,
      "t": 256000,
      "d": 4000,
      "v": 127
    },
    {
      "midi": 73,
      "hit": false,
      "t": 259000,
      "d": 1000,
      "v": 127
    },
    {
      "midi": 73,
      "hit": false,
      "t": 260000,
      "d": 1000,
      "v": 127
    },
    {
      "midi": 40,
      "hit": false,
      "t": 260000,
      "d": 4000,
      "v": 127
    },
    {
      "midi": 71,
      "hit": false,
      "t": 261000,
      "d": 1000,
      "v": 127
    },
    {
      "midi": 68,
      "hit": false,
      "t": 262000,
      "d": 1000,
      "v": 127
    },
    {
      "midi": 64,
      "hit": false,
      "t": 263000,
      "d": 1000,
      "v": 127
    },
    {
      "midi": 63,
      "hit": false,
      "t": 264000,
      "d": 3000,
      "v": 127
    },
    {
      "midi": 42,
      "hit": false,
      "t": 264000,
      "d": 4000,
      "v": 127
    },
    {
      "midi": 63,
      "hit": false,
      "t": 267000,
      "d": 1000,
      "v": 127
    },
    {
      "midi": 68,
      "hit": false,
      "t": 268000,
      "d": 1000,
      "v": 127
    },
    {
      "midi": 49,
      "hit": false,
      "t": 268000,
      "d": 3000,
      "v": 127
    },
    {
      "midi": 66,
      "hit": false,
      "t": 269000,
      "d": 1000,
      "v": 127
    },
    {
      "midi": 64,
      "hit": false,
      "t": 270000,
      "d": 1000,
      "v": 127
    },
    {
      "midi": 61,
      "hit": false,
      "t": 271000,
      "d": 1000,
      "v": 127
    },
    {
      "midi": 52,
      "hit": false,
      "t": 271000,
      "d": 1000,
      "v": 127
    },
    {
      "midi": 59,
      "hit": false,
      "t": 272000,
      "d": 4000,
      "v": 127
    },
    {
      "midi": 35,
      "hit": false,
      "t": 272000,
      "d": 4000,
      "v": 127
    },
    {
      "midi": 59,
      "hit": false,
      "t": 276000,
      "d": 4000,
      "v": 127
    },
    {
      "midi": 31,
      "hit": false,
      "t": 276000,
      "d": 3000,
      "v": 127
    },
    {
      "midi": 31,
      "hit": false,
      "t": 279000,
      "d": 250,
      "v": 127
    },
    {
      "midi": 33,
      "hit": false,
      "t": 279250,
      "d": 250,
      "v": 127
    },
    {
      "midi": 35,
      "hit": false,
      "t": 279750,
      "d": 250,
      "v": 127
    },
    {
      "midi": 59,
      "hit": false,
      "t": 280000,
      "d": 4000,
      "v": 127
    },
    {
      "midi": 35,
      "hit": false,
      "t": 280000,
      "d": 3000,
      "v": 127
    },
    {
      "midi": 37,
      "hit": false,
      "t": 283000,
      "d": 250,
      "v": 127
    },
    {
      "midi": 39,
      "hit": false,
      "t": 283250,
      "d": 250,
      "v": 127
    },
    {
      "midi": 40,
      "hit": false,
      "t": 283500,
      "d": 250,
      "v": 127
    },
    {
      "midi": 42,
      "hit": false,
      "t": 283750,
      "d": 250,
      "v": 127
    },
    {
      "midi": 59,
      "hit": false,
      "t": 284000,
      "d": 2000,
      "v": 127
    },
    {
      "midi": 43,
      "hit": false,
      "t": 284000,
      "d": 2000,
      "v": 127
    },
    {
      "midi": 58,
      "hit": false,
      "t": 286000,
      "d": 2000,
      "v": 127
    },
    {
      "midi": 42,
      "hit": false,
      "t": 286000,
      "d": 2000,
      "v": 127
    },
    {
      "midi": 59,
      "hit": false,
      "t": 288000,
      "d": 4000,
      "v": 127
    },
    {
      "midi": 35,
      "hit": false,
      "t": 288000,
      "d": 4000,
      "v": 127
    },
    {
      "midi": 59,
      "hit": false,
      "t": 292000,
      "d": 4000,
      "v": 127
    },
    {
      "midi": 32,
      "hit": false,
      "t": 292000,
      "d": 3000,
      "v": 127
    },
    {
      "midi": 32,
      "hit": false,
      "t": 295000,
      "d": 250,
      "v": 127
    },
    {
      "midi": 34,
      "hit": false,
      "t": 295250,
      "d": 250,
      "v": 127
    },
    {
      "midi": 35,
      "hit": false,
      "t": 295750,
      "d": 250,
      "v": 127
    },
    {
      "midi": 59,
      "hit": false,
      "t": 296000,
      "d": 4000,
      "v": 127
    },
    {
      "midi": 35,
      "hit": false,
      "t": 296000,
      "d": 3000,
      "v": 127
    },
    {
      "midi": 37,
      "hit": false,
      "t": 299000,
      "d": 250,
      "v": 127
    },
    {
      "midi": 39,
      "hit": false,
      "t": 299250,
      "d": 250,
      "v": 127
    },
    {
      "midi": 40,
      "hit": false,
      "t": 299500,
      "d": 250,
      "v": 127
    },
    {
      "midi": 42,
      "hit": false,
      "t": 299750,
      "d": 250,
      "v": 127
    },
    {
      "midi": 59,
      "hit": false,
      "t": 300000,
      "d": 2000,
      "v": 127
    },
    {
      "midi": 44,
      "hit": false,
      "t": 300000,
      "d": 2000,
      "v": 127
    },
    {
      "midi": 58,
      "hit": false,
      "t": 302000,
      "d": 2000,
      "v": 127
    },
    {
      "midi": 42,
      "hit": false,
      "t": 302000,
      "d": 2000,
      "v": 127
    },
    {
      "midi": 59,
      "hit": false,
      "t": 304000,
      "d": 4000,
      "v": 127
    },
    {
      "midi": 35,
      "hit": false,
      "t": 304000,
      "d": 8000,
      "v": 127
    },
    {
      "midi": 59,
      "hit": false,
      "t": 308000,
      "d": 1000,
      "v": 127
    },
    {
      "midi": 63,
      "hit": false,
      "t": 309000,
      "d": 1000,
      "v": 127
    },
    {
      "midi": 66,
      "hit": false,
      "t": 310000,
      "d": 1000,
      "v": 127
    },
    {
      "midi": 71,
      "hit": false,
      "t": 311000,
      "d": 1000,
      "v": 127
    },
    {
      "midi": 71,
      "hit": false,
      "t": 312000,
      "d": 4000,
      "v": 127
    },
    {
      "midi": 44,
      "hit": false,
      "t": 312000,
      "d": 3000,
      "v": 127
    },
    {
      "midi": 44,
      "hit": false,
      "t": 315000,
      "d": 250,
      "v": 127
    },
    {
      "midi": 46,
      "hit": false,
      "t": 315250,
      "d": 250,
      "v": 127
    },
    {
      "midi": 47,
      "hit": false,
      "t": 315750,
      "d": 250,
      "v": 127
    },
    {
      "midi": 70,
      "hit": false,
      "t": 316000,
      "d": 1000,
      "v": 127
    },
    {
      "midi": 47,
      "hit": false,
      "t": 316000,
      "d": 3000,
      "v": 127
    },
    {
      "midi": 68,
      "hit": false,
      "t": 317000,
      "d": 3000,
      "v": 127
    },
    {
      "midi": 47,
      "hit": false,
      "t": 319000,
      "d": 250,
      "v": 127
    },
    {
      "midi": 49,
      "hit": false,
      "t": 319250,
      "d": 250,
      "v": 127
    },
    {
      "midi": 50,
      "hit": false,
      "t": 319750,
      "d": 250,
      "v": 127
    },
    {
      "midi": 66,
      "hit": false,
      "t": 320000,
      "d": 1000,
      "v": 127
    },
    {
      "midi": 50,
      "hit": false,
      "t": 320000,
      "d": 3000,
      "v": 127
    },
    {
      "midi": 65,
      "hit": false,
      "t": 321000,
      "d": 3000,
      "v": 127
    },
    {
      "midi": 50,
      "hit": false,
      "t": 323000,
      "d": 250,
      "v": 127
    },
    {
      "midi": 51,
      "hit": false,
      "t": 323250,
      "d": 250,
      "v": 127
    },
    {
      "midi": 53,
      "hit": false,
      "t": 323750,
      "d": 250,
      "v": 127
    },
    {
      "midi": 63,
      "hit": false,
      "t": 324000,
      "d": 1000,
      "v": 127
    },
    {
      "midi": 53,
      "hit": false,
      "t": 324000,
      "d": 3000,
      "v": 127
    },
    {
      "midi": 62,
      "hit": false,
      "t": 325000,
      "d": 3000,
      "v": 127
    },
    {
      "midi": 41,
      "hit": false,
      "t": 327000,
      "d": 1000,
      "v": 127
    },
    {
      "midi": 65,
      "hit": false,
      "t": 328000,
      "d": 1000,
      "v": 127
    },
    {
      "midi": 42,
      "hit": false,
      "t": 328000,
      "d": 2000,
      "v": 127
    },
    {
      "midi": 63,
      "hit": false,
      "t": 329000,
      "d": 1000,
      "v": 127
    },
    {
      "midi": 66,
      "hit": false,
      "t": 330000,
      "d": 1000,
      "v": 127
    },
    {
      "midi": 38,
      "hit": false,
      "t": 330000,
      "d": 2000,
      "v": 127
    },
    {
      "midi": 65,
      "hit": false,
      "t": 331000,
      "d": 1000,
      "v": 127
    },
    {
      "midi": 68,
      "hit": false,
      "t": 332000,
      "d": 1000,
      "v": 127
    },
    {
      "midi": 39,
      "hit": false,
      "t": 332000,
      "d": 2000,
      "v": 127
    },
    {
      "midi": 66,
      "hit": false,
      "t": 333000,
      "d": 1000,
      "v": 127
    },
    {
      "midi": 65,
      "hit": false,
      "t": 334000,
      "d": 1000,
      "v": 127
    },
    {
      "midi": 32,
      "hit": false,
      "t": 334000,
      "d": 2000,
      "v": 127
    },
    {
      "midi": 68,
      "hit": false,
      "t": 335000,
      "d": 1000,
      "v": 127
    },
    {
      "midi": 63,
      "hit": false,
      "t": 336000,
      "d": 4000,
      "v": 127
    },
    {
      "midi": 34,
      "hit": false,
      "t": 336000,
      "d": 2000,
      "v": 127
    },
    {
      "midi": 34,
      "hit": false,
      "t": 338000,
      "d": 250,
      "v": 127
    },
    {
      "midi": 33,
      "hit": false,
      "t": 338250,
      "d": 250,
      "v": 127
    },
    {
      "midi": 34,
      "hit": false,
      "t": 338750,
      "d": 250,
      "v": 127
    },
    {
      "midi": 35,
      "hit": false,
      "t": 339000,
      "d": 250,
      "v": 127
    },
    {
      "midi": 34,
      "hit": false,
      "t": 339250,
      "d": 250,
      "v": 127
    },
    {
      "midi": 33,
      "hit": false,
      "t": 339750,
      "d": 250,
      "v": 127
    },
    {
      "midi": 62,
      "hit": false,
      "t": 340000,
      "d": 2000,
      "v": 127
    },
    {
      "midi": 34,
      "hit": false,
      "t": 340000,
      "d": 3000,
      "v": 127
    },
    {
      "midi": 65,
      "hit": false,
      "t": 342000,
      "d": 1000,
      "v": 127
    },
    {
      "midi": 70,
      "hit": false,
      "t": 343000,
      "d": 1000,
      "v": 127
    },
    {
      "midi": 34,
      "hit": false,
      "t": 343000,
      "d": 1000,
      "v": 127
    },
    {
      "midi": 46,
      "hit": false,
      "t": 343000,
      "d": 1000,
      "v": 127
    },
    {
      "midi": 71,
      "hit": false,
      "t": 344000,
      "d": 4000,
      "v": 127
    },
    {
      "midi": 32,
      "hit": false,
      "t": 344000,
      "d": 3000,
      "v": 127
    },
    {
      "midi": 44,
      "hit": false,
      "t": 344000,
      "d": 3000,
      "v": 127
    },
    {
      "midi": 44,
      "hit": false,
      "t": 347000,
      "d": 250,
      "v": 127
    },
    {
      "midi": 46,
      "hit": false,
      "t": 347250,
      "d": 250,
      "v": 127
    },
    {
      "midi": 47,
      "hit": false,
      "t": 347750,
      "d": 250,
      "v": 127
    },
    {
      "midi": 70,
      "hit": false,
      "t": 348000,
      "d": 1000,
      "v": 127
    },
    {
      "midi": 35,
      "hit": false,
      "t": 348000,
      "d": 3000,
      "v": 127
    },
    {
      "midi": 47,
      "hit": false,
      "t": 348000,
      "d": 3000,
      "v": 127
    },
    {
      "midi": 68,
      "hit": false,
      "t": 349000,
      "d": 3000,
      "v": 127
    },
    {
      "midi": 47,
      "hit": false,
      "t": 351000,
      "d": 250,
      "v": 127
    },
    {
      "midi": 49,
      "hit": false,
      "t": 351250,
      "d": 250,
      "v": 127
    },
    {
      "midi": 50,
      "hit": false,
      "t": 351750,
      "d": 250,
      "v": 127
    },
    {
      "midi": 66,
      "hit": false,
      "t": 352000,
      "d": 1000,
      "v": 127
    },
    {
      "midi": 38,
      "hit": false,
      "t": 352000,
      "d": 3000,
      "v": 127
    },
    {
      "midi": 50,
      "hit": false,
      "t": 352000,
      "d": 3000,
      "v": 127
    },
    {
      "midi": 65,
      "hit": false,
      "t": 353000,
      "d": 3000,
      "v": 127
    },
    {
      "midi": 50,
      "hit": false,
      "t": 355000,
      "d": 250,
      "v": 127
    },
    {
      "midi": 51,
      "hit": false,
      "t": 355250,
      "d": 250,
      "v": 127
    },
    {
      "midi": 53,
      "hit": false,
      "t": 355750,
      "d": 250,
      "v": 127
    },
    {
      "midi": 63,
      "hit": false,
      "t": 356000,
      "d": 1000,
      "v": 127
    },
    {
      "midi": 41,
      "hit": false,
      "t": 356000,
      "d": 3000,
      "v": 127
    },
    {
      "midi": 53,
      "hit": false,
      "t": 356000,
      "d": 3000,
      "v": 127
    },
    {
      "midi": 62,
      "hit": false,
      "t": 357000,
      "d": 3000,
      "v": 127
    },
    {
      "midi": 41,
      "hit": false,
      "t": 359000,
      "d": 1000,
      "v": 127
    },
    {
      "midi": 65,
      "hit": false,
      "t": 360000,
      "d": 1000,
      "v": 127
    },
    {
      "midi": 42,
      "hit": false,
      "t": 360000,
      "d": 2000,
      "v": 127
    },
    {
      "midi": 63,
      "hit": false,
      "t": 361000,
      "d": 1000,
      "v": 127
    },
    {
      "midi": 66,
      "hit": false,
      "t": 362000,
      "d": 1000,
      "v": 127
    },
    {
      "midi": 38,
      "hit": false,
      "t": 362000,
      "d": 250,
      "v": 127
    },
    {
      "midi": 39,
      "hit": false,
      "t": 362250,
      "d": 250,
      "v": 127
    },
    {
      "midi": 38,
      "hit": false,
      "t": 362500,
      "d": 250,
      "v": 127
    },
    {
      "midi": 39,
      "hit": false,
      "t": 362750,
      "d": 250,
      "v": 127
    },
    {
      "midi": 65,
      "hit": false,
      "t": 363000,
      "d": 1000,
      "v": 127
    },
    {
      "midi": 38,
      "hit": false,
      "t": 363000,
      "d": 250,
      "v": 127
    },
    {
      "midi": 35,
      "hit": false,
      "t": 363250,
      "d": 250,
      "v": 127
    },
    {
      "midi": 38,
      "hit": false,
      "t": 363750,
      "d": 250,
      "v": 127
    },
    {
      "midi": 68,
      "hit": false,
      "t": 364000,
      "d": 1000,
      "v": 127
    },
    {
      "midi": 39,
      "hit": false,
      "t": 364000,
      "d": 2000,
      "v": 127
    },
    {
      "midi": 66,
      "hit": false,
      "t": 365000,
      "d": 1000,
      "v": 127
    },
    {
      "midi": 64,
      "hit": false,
      "t": 366000,
      "d": 1000,
      "v": 127
    },
    {
      "midi": 32,
      "hit": false,
      "t": 366000,
      "d": 2000,
      "v": 127
    },
    {
      "midi": 71,
      "hit": false,
      "t": 367000,
      "d": 1000,
      "v": 127
    },
    {
      "midi": 63,
      "hit": false,
      "t": 368000,
      "d": 4000,
      "v": 127
    },
    {
      "midi": 34,
      "hit": false,
      "t": 368000,
      "d": 2000,
      "v": 127
    },
    {
      "midi": 34,
      "hit": false,
      "t": 370000,
      "d": 250,
      "v": 127
    },
    {
      "midi": 33,
      "hit": false,
      "t": 370250,
      "d": 250,
      "v": 127
    },
    {
      "midi": 34,
      "hit": false,
      "t": 370750,
      "d": 250,
      "v": 127
    },
    {
      "midi": 35,
      "hit": false,
      "t": 371000,
      "d": 250,
      "v": 127
    },
    {
      "midi": 34,
      "hit": false,
      "t": 371250,
      "d": 250,
      "v": 127
    },
    {
      "midi": 33,
      "hit": false,
      "t": 371750,
      "d": 250,
      "v": 127
    },
    {
      "midi": 62,
      "hit": false,
      "t": 372000,
      "d": 4000,
      "v": 127
    },
    {
      "midi": 34,
      "hit": false,
      "t": 372000,
      "d": 2000,
      "v": 127
    },
    {
      "midi": 32,
      "hit": false,
      "t": 374000,
      "d": 2000,
      "v": 127
    },
    {
      "midi": 70,
      "hit": false,
      "t": 376000,
      "d": 4000,
      "v": 127
    },
    {
      "midi": 31,
      "hit": false,
      "t": 376000,
      "d": 4000,
      "v": 127
    },
    {
      "midi": 43,
      "hit": false,
      "t": 376000,
      "d": 4000,
      "v": 127
    },
    {
      "midi": 70,
      "hit": false,
      "t": 380000,
      "d": 2000,
      "v": 127
    },
    {
      "midi": 41,
      "hit": false,
      "t": 380000,
      "d": 4000,
      "v": 127
    },
    {
      "midi": 72,
      "hit": false,
      "t": 382000,
      "d": 1000,
      "v": 127
    },
    {
      "midi": 70,
      "hit": false,
      "t": 383000,
      "d": 1000,
      "v": 127
    },
    {
      "midi": 79,
      "hit": false,
      "t": 384000,
      "d": 3000,
      "v": 127
    },
    {
      "midi": 39,
      "hit": false,
      "t": 384000,
      "d": 4000,
      "v": 127
    },
    {
      "midi": 77,
      "hit": false,
      "t": 387000,
      "d": 1000,
      "v": 127
    },
    {
      "midi": 77,
      "hit": false,
      "t": 388000,
      "d": 1000,
      "v": 127
    },
    {
      "midi": 44,
      "hit": false,
      "t": 388000,
      "d": 4000,
      "v": 127
    },
    {
      "midi": 75,
      "hit": false,
      "t": 389000,
      "d": 1000,
      "v": 127
    },
    {
      "midi": 72,
      "hit": false,
      "t": 390000,
      "d": 1000,
      "v": 127
    },
    {
      "midi": 68,
      "hit": false,
      "t": 391000,
      "d": 1000,
      "v": 127
    },
    {
      "midi": 67,
      "hit": false,
      "t": 392000,
      "d": 3000,
      "v": 127
    },
    {
      "midi": 46,
      "hit": false,
      "t": 392000,
      "d": 4000,
      "v": 127
    },
    {
      "midi": 67,
      "hit": false,
      "t": 395000,
      "d": 1000,
      "v": 127
    },
    {
      "midi": 72,
      "hit": false,
      "t": 396000,
      "d": 1000,
      "v": 127
    },
    {
      "midi": 53,
      "hit": false,
      "t": 396000,
      "d": 3000,
      "v": 127
    },
    {
      "midi": 70,
      "hit": false,
      "t": 397000,
      "d": 1000,
      "v": 127
    },
    {
      "midi": 68,
      "hit": false,
      "t": 398000,
      "d": 1000,
      "v": 127
    },
    {
      "midi": 65,
      "hit": false,
      "t": 399000,
      "d": 1000,
      "v": 127
    },
    {
      "midi": 56,
      "hit": false,
      "t": 399000,
      "d": 1000,
      "v": 127
    },
    {
      "midi": 63,
      "hit": false,
      "t": 400000,
      "d": 4000,
      "v": 127
    },
    {
      "midi": 39,
      "hit": false,
      "t": 400000,
      "d": 4000,
      "v": 127
    },
    {
      "midi": 63,
      "hit": false,
      "t": 404000,
      "d": 4000,
      "v": 127
    },
    {
      "midi": 37,
      "hit": false,
      "t": 404000,
      "d": 3000,
      "v": 127
    },
    {
      "midi": 40,
      "hit": false,
      "t": 407000,
      "d": 250,
      "v": 127
    },
    {
      "midi": 39,
      "hit": false,
      "t": 407250,
      "d": 250,
      "v": 127
    },
    {
      "midi": 38,
      "hit": false,
      "t": 407750,
      "d": 250,
      "v": 127
    },
    {
      "midi": 63,
      "hit": false,
      "t": 408000,
      "d": 4000,
      "v": 127
    },
    {
      "midi": 35,
      "hit": false,
      "t": 408000,
      "d": 4000,
      "v": 127
    },
    {
      "midi": 63,
      "hit": false,
      "t": 412000,
      "d": 4000,
      "v": 127
    },
    {
      "midi": 34,
      "hit": false,
      "t": 412000,
      "d": 2000,
      "v": 127
    },
    {
      "midi": 34,
      "hit": false,
      "t": 414000,
      "d": 250,
      "v": 127
    },
    {
      "midi": 35,
      "hit": false,
      "t": 414250,
      "d": 250,
      "v": 127
    },
    {
      "midi": 34,
      "hit": false,
      "t": 414750,
      "d": 250,
      "v": 127
    },
    {
      "midi": 37,
      "hit": false,
      "t": 415000,
      "d": 250,
      "v": 127
    },
    {
      "midi": 35,
      "hit": false,
      "t": 415250,
      "d": 250,
      "v": 127
    },
    {
      "midi": 34,
      "hit": false,
      "t": 415750,
      "d": 250,
      "v": 127
    },
    {
      "midi": 63,
      "hit": false,
      "t": 416000,
      "d": 4000,
      "v": 127
    },
    {
      "midi": 32,
      "hit": false,
      "t": 416000,
      "d": 4000,
      "v": 127
    },
    {
      "midi": 68,
      "hit": false,
      "t": 420000,
      "d": 4000,
      "v": 127
    },
    {
      "midi": 30,
      "hit": false,
      "t": 420000,
      "d": 250,
      "v": 127
    },
    {
      "midi": 32,
      "hit": false,
      "t": 420250,
      "d": 250,
      "v": 127
    },
    {
      "midi": 30,
      "hit": false,
      "t": 420500,
      "d": 250,
      "v": 127
    },
    {
      "midi": 32,
      "hit": false,
      "t": 420750,
      "d": 250,
      "v": 127
    },
    {
      "midi": 30,
      "hit": false,
      "t": 421000,
      "d": 250,
      "v": 127
    },
    {
      "midi": 32,
      "hit": false,
      "t": 421250,
      "d": 250,
      "v": 127
    },
    {
      "midi": 30,
      "hit": false,
      "t": 421500,
      "d": 250,
      "v": 127
    },
    {
      "midi": 32,
      "hit": false,
      "t": 421750,
      "d": 250,
      "v": 127
    },
    {
      "midi": 30,
      "hit": false,
      "t": 422000,
      "d": 250,
      "v": 127
    },
    {
      "midi": 32,
      "hit": false,
      "t": 422250,
      "d": 250,
      "v": 127
    },
    {
      "midi": 30,
      "hit": false,
      "t": 422500,
      "d": 250,
      "v": 127
    },
    {
      "midi": 32,
      "hit": false,
      "t": 422750,
      "d": 250,
      "v": 127
    },
    {
      "midi": 30,
      "hit": false,
      "t": 423000,
      "d": 250,
      "v": 127
    },
    {
      "midi": 29,
      "hit": false,
      "t": 423250,
      "d": 250,
      "v": 127
    },
    {
      "midi": 30,
      "hit": false,
      "t": 423750,
      "d": 250,
      "v": 127
    },
    {
      "midi": 71,
      "hit": false,
      "t": 424000,
      "d": 8000,
      "v": 127
    },
    {
      "midi": 41,
      "hit": false,
      "t": 426000,
      "d": 500,
      "v": 127
    },
    {
      "midi": 44,
      "hit": false,
      "t": 426500,
      "d": 500,
      "v": 127
    },
    {
      "midi": 47,
      "hit": false,
      "t": 427000,
      "d": 500,
      "v": 127
    },
    {
      "midi": 49,
      "hit": false,
      "t": 427500,
      "d": 500,
      "v": 127
    },
    {
      "midi": 50,
      "hit": false,
      "t": 428000,
      "d": 2000,
      "v": 127
    },
    {
      "midi": 49,
      "hit": false,
      "t": 430000,
      "d": 2000,
      "v": 127
    },
    {
      "midi": 70,
      "hit": false,
      "t": 432000,
      "d": 4000,
      "v": 127
    },
    {
      "midi": 42,
      "hit": false,
      "t": 432000,
      "d": 4000,
      "v": 127
    },
    {
      "midi": 49,
      "hit": false,
      "t": 432000,
      "d": 4000,
      "v": 127
    },
    {
      "midi": 70,
      "hit": false,
      "t": 436000,
      "d": 2000,
      "v": 127
    },
    {
      "midi": 42,
      "hit": false,
      "t": 436000,
      "d": 2000,
      "v": 127
    },
    {
      "midi": 49,
      "hit": false,
      "t": 436000,
      "d": 2000,
      "v": 127
    },
    {
      "midi": 70,
      "hit": false,
      "t": 438000,
      "d": 2000,
      "v": 127
    },
    {
      "midi": 42,
      "hit": false,
      "t": 438000,
      "d": 2000,
      "v": 127
    },
    {
      "midi": 49,
      "hit": false,
      "t": 438000,
      "d": 2000,
      "v": 127
    },
    {
      "midi": 70,
      "hit": false,
      "t": 440000,
      "d": 4000,
      "v": 127
    },
    {
      "midi": 39,
      "hit": false,
      "t": 440000,
      "d": 8000,
      "v": 127
    },
    {
      "midi": 51,
      "hit": false,
      "t": 440000,
      "d": 8000,
      "v": 127
    },
    {
      "midi": 66,
      "hit": false,
      "t": 444000,
      "d": 4000,
      "v": 127
    },
    {
      "midi": 68,
      "hit": false,
      "t": 448000,
      "d": 4000,
      "v": 127
    },
    {
      "midi": 35,
      "hit": false,
      "t": 448000,
      "d": 4000,
      "v": 127
    },
    {
      "midi": 47,
      "hit": false,
      "t": 448000,
      "d": 4000,
      "v": 127
    },
    {
      "midi": 66,
      "hit": false,
      "t": 452000,
      "d": 1000,
      "v": 127
    },
    {
      "midi": 37,
      "hit": false,
      "t": 452000,
      "d": 3000,
      "v": 127
    },
    {
      "midi": 49,
      "hit": false,
      "t": 452000,
      "d": 3000,
      "v": 127
    },
    {
      "midi": 65,
      "hit": false,
      "t": 453000,
      "d": 1000,
      "v": 127
    },
    {
      "midi": 63,
      "hit": false,
      "t": 454000,
      "d": 1000,
      "v": 127
    },
    {
      "midi": 61,
      "hit": false,
      "t": 455000,
      "d": 1000,
      "v": 127
    },
    {
      "midi": 47,
      "hit": false,
      "t": 455000,
      "d": 1000,
      "v": 127
    },
    {
      "midi": 49,
      "hit": false,
      "t": 455000,
      "d": 1000,
      "v": 127
    },
    {
      "midi": 66,
      "hit": false,
      "t": 456000,
      "d": 2000,
      "v": 127
    },
    {
      "midi": 46,
      "hit": false,
      "t": 456000,
      "d": 2000,
      "v": 127
    },
    {
      "midi": 49,
      "hit": false,
      "t": 456000,
      "d": 2000,
      "v": 127
    },
    {
      "midi": 70,
      "hit": false,
      "t": 458000,
      "d": 2000,
      "v": 127
    },
    {
      "midi": 42,
      "hit": false,
      "t": 458000,
      "d": 2000,
      "v": 127
    },
    {
      "midi": 51,
      "hit": false,
      "t": 458000,
      "d": 2000,
      "v": 127
    },
    {
      "midi": 68,
      "hit": false,
      "t": 460000,
      "d": 3000,
      "v": 127
    },
    {
      "midi": 37,
      "hit": false,
      "t": 460000,
      "d": 1000,
      "v": 127
    },
    {
      "midi": 53,
      "hit": false,
      "t": 461000,
      "d": 3000,
      "v": 127
    },
    {
      "midi": 69,
      "hit": false,
      "t": 463000,
      "d": 1000,
      "v": 127
    },
    {
      "midi": 70,
      "hit": false,
      "t": 464000,
      "d": 4000,
      "v": 127
    },
    {
      "midi": 42,
      "hit": false,
      "t": 464000,
      "d": 4000,
      "v": 127
    },
    {
      "midi": 49,
      "hit": false,
      "t": 464000,
      "d": 4000,
      "v": 127
    },
    {
      "midi": 70,
      "hit": false,
      "t": 468000,
      "d": 2000,
      "v": 127
    },
    {
      "midi": 42,
      "hit": false,
      "t": 468000,
      "d": 2000,
      "v": 127
    },
    {
      "midi": 49,
      "hit": false,
      "t": 468000,
      "d": 2000,
      "v": 127
    },
    {
      "midi": 70,
      "hit": false,
      "t": 470000,
      "d": 2000,
      "v": 127
    },
    {
      "midi": 42,
      "hit": false,
      "t": 470000,
      "d": 2000,
      "v": 127
    },
    {
      "midi": 49,
      "hit": false,
      "t": 470000,
      "d": 2000,
      "v": 127
    },
    {
      "midi": 70,
      "hit": false,
      "t": 472000,
      "d": 4000,
      "v": 127
    },
    {
      "midi": 39,
      "hit": false,
      "t": 472000,
      "d": 6000,
      "v": 127
    },
    {
      "midi": 51,
      "hit": false,
      "t": 472000,
      "d": 6000,
      "v": 127
    },
    {
      "midi": 66,
      "hit": false,
      "t": 476000,
      "d": 2000,
      "v": 127
    },
    {
      "midi": 65,
      "hit": false,
      "t": 478000,
      "d": 2000,
      "v": 127
    },
    {
      "midi": 34,
      "hit": false,
      "t": 478000,
      "d": 2000,
      "v": 127
    },
    {
      "midi": 46,
      "hit": false,
      "t": 478000,
      "d": 2000,
      "v": 127
    },
    {
      "midi": 63,
      "hit": false,
      "t": 480000,
      "d": 2000,
      "v": 127
    },
    {
      "midi": 35,
      "hit": false,
      "t": 480000,
      "d": 2000,
      "v": 127
    },
    {
      "midi": 47,
      "hit": false,
      "t": 480000,
      "d": 2000,
      "v": 127
    },
    {
      "midi": 68,
      "hit": false,
      "t": 482000,
      "d": 2000,
      "v": 127
    },
    {
      "midi": 32,
      "hit": false,
      "t": 482000,
      "d": 2000,
      "v": 127
    },
    {
      "midi": 44,
      "hit": false,
      "t": 482000,
      "d": 2000,
      "v": 127
    },
    {
      "midi": 66,
      "hit": false,
      "t": 484000,
      "d": 1000,
      "v": 127
    },
    {
      "midi": 37,
      "hit": false,
      "t": 484000,
      "d": 4000,
      "v": 127
    },
    {
      "midi": 49,
      "hit": false,
      "t": 484000,
      "d": 4000,
      "v": 127
    },
    {
      "midi": 65,
      "hit": false,
      "t": 485000,
      "d": 1000,
      "v": 127
    },
    {
      "midi": 63,
      "hit": false,
      "t": 486000,
      "d": 1000,
      "v": 127
    },
    {
      "midi": 65,
      "hit": false,
      "t": 487000,
      "d": 1000,
      "v": 127
    },
    {
      "midi": 68,
      "hit": false,
      "t": 488000,
      "d": 4000,
      "v": 127
    },
    {
      "midi": 42,
      "hit": false,
      "t": 488000,
      "d": 8000,
      "v": 127
    },
    {
      "midi": 49,
      "hit": false,
      "t": 488000,
      "d": 8000,
      "v": 127
    },
    {
      "midi": 66,
      "hit": false,
      "t": 492000,
      "d": 4000,
      "v": 127
    },
    {
      "midi": 68,
      "hit": false,
      "t": 496000,
      "d": 4000,
      "v": 127
    },
    {
      "midi": 70,
      "hit": false,
      "t": 500000,
      "d": 4000,
      "v": 127
    },
    {
      "midi": 52,
      "hit": false,
      "t": 500000,
      "d": 2000,
      "v": 127
    },
    {
      "midi": 51,
      "hit": false,
      "t": 502000,
      "d": 2000,
      "v": 127
    },
    {
      "midi": 73,
      "hit": false,
      "t": 504000,
      "d": 3000,
      "v": 127
    },
    {
      "midi": 55,
      "hit": false,
      "t": 504000,
      "d": 3000,
      "v": 127
    },
    {
      "midi": 71,
      "hit": false,
      "t": 507000,
      "d": 1000,
      "v": 127
    },
    {
      "midi": 56,
      "hit": false,
      "t": 507000,
      "d": 1000,
      "v": 127
    },
    {
      "midi": 71,
      "hit": false,
      "t": 508000,
      "d": 4000,
      "v": 127
    },
    {
      "midi": 51,
      "hit": false,
      "t": 508000,
      "d": 4000,
      "v": 127
    },
    {
      "midi": 56,
      "hit": false,
      "t": 508000,
      "d": 4000,
      "v": 127
    },
    {
      "midi": 71,
      "hit": false,
      "t": 512000,
      "d": 4000,
      "v": 127
    },
    {
      "midi": 40,
      "hit": false,
      "t": 512000,
      "d": 4000,
      "v": 127
    },
    {
      "midi": 71,
      "hit": false,
      "t": 516000,
      "d": 2000,
      "v": 127
    },
    {
      "midi": 39,
      "hit": false,
      "t": 516000,
      "d": 2000,
      "v": 127
    },
    {
      "midi": 73,
      "hit": false,
      "t": 518000,
      "d": 2000,
      "v": 127
    },
    {
      "midi": 37,
      "hit": false,
      "t": 518000,
      "d": 250,
      "v": 127
    },
    {
      "midi": 39,
      "hit": false,
      "t": 518250,
      "d": 250,
      "v": 127
    },
    {
      "midi": 37,
      "hit": false,
      "t": 518500,
      "d": 250,
      "v": 127
    },
    {
      "midi": 39,
      "hit": false,
      "t": 518750,
      "d": 250,
      "v": 127
    },
    {
      "midi": 37,
      "hit": false,
      "t": 519000,
      "d": 250,
      "v": 127
    },
    {
      "midi": 35,
      "hit": false,
      "t": 519250,
      "d": 250,
      "v": 127
    },
    {
      "midi": 37,
      "hit": false,
      "t": 519750,
      "d": 250,
      "v": 127
    },
    {
      "midi": 76,
      "hit": false,
      "t": 520000,
      "d": 3000,
      "v": 127
    },
    {
      "midi": 35,
      "hit": false,
      "t": 520000,
      "d": 8000,
      "v": 127
    },
    {
      "midi": 75,
      "hit": false,
      "t": 523000,
      "d": 1000,
      "v": 127
    },
    {
      "midi": 75,
      "hit": false,
      "t": 524000,
      "d": 4000,
      "v": 127
    },
    {
      "midi": 75,
      "hit": false,
      "t": 528000,
      "d": 4000,
      "v": 127
    },
    {
      "midi": 47,
      "hit": false,
      "t": 528000,
      "d": 4000,
      "v": 127
    },
    {
      "midi": 54,
      "hit": false,
      "t": 528000,
      "d": 4000,
      "v": 127
    },
    {
      "midi": 75,
      "hit": false,
      "t": 532000,
      "d": 1000,
      "v": 127
    },
    {
      "midi": 56,
      "hit": false,
      "t": 532000,
      "d": 2000,
      "v": 127
    },
    {
      "midi": 71,
      "hit": false,
      "t": 533000,
      "d": 1000,
      "v": 127
    },
    {
      "midi": 70,
      "hit": false,
      "t": 534000,
      "d": 1000,
      "v": 127
    },
    {
      "midi": 53,
      "hit": false,
      "t": 534000,
      "d": 2000,
      "v": 127
    },
    {
      "midi": 68,
      "hit": false,
      "t": 535000,
      "d": 1000,
      "v": 127
    },
    {
      "midi": 73,
      "hit": false,
      "t": 536000,
      "d": 4000,
      "v": 127
    },
    {
      "midi": 46,
      "hit": false,
      "t": 536000,
      "d": 4000,
      "v": 127
    },
    {
      "midi": 54,
      "hit": false,
      "t": 536000,
      "d": 4000,
      "v": 127
    },
    {
      "midi": 73,
      "hit": false,
      "t": 540000,
      "d": 1000,
      "v": 127
    },
    {
      "midi": 54,
      "hit": false,
      "t": 540000,
      "d": 2000,
      "v": 127
    },
    {
      "midi": 71,
      "hit": false,
      "t": 541000,
      "d": 1000,
      "v": 127
    },
    {
      "midi": 68,
      "hit": false,
      "t": 542000,
      "d": 1000,
      "v": 127
    },
    {
      "midi": 56,
      "hit": false,
      "t": 542000,
      "d": 2000,
      "v": 127
    },
    {
      "midi": 63,
      "hit": false,
      "t": 543000,
      "d": 1000,
      "v": 127
    },
    {
      "midi": 66,
      "hit": false,
      "t": 544000,
      "d": 4000,
      "v": 127
    },
    {
      "midi": 49,
      "hit": false,
      "t": 544000,
      "d": 4000,
      "v": 127
    },
    {
      "midi": 66,
      "hit": false,
      "t": 548000,
      "d": 1000,
      "v": 127
    },
    {
      "midi": 37,
      "hit": false,
      "t": 548000,
      "d": 2000,
      "v": 127
    },
    {
      "midi": 49,
      "hit": false,
      "t": 548000,
      "d": 2000,
      "v": 127
    },
    {
      "midi": 65,
      "hit": false,
      "t": 549000,
      "d": 1000,
      "v": 127
    },
    {
      "midi": 70,
      "hit": false,
      "t": 550000,
      "d": 1000,
      "v": 127
    },
    {
      "midi": 54,
      "hit": false,
      "t": 550000,
      "d": 1000,
      "v": 127
    },
    {
      "midi": 68,
      "hit": false,
      "t": 551000,
      "d": 1000,
      "v": 127
    },
    {
      "midi": 53,
      "hit": false,
      "t": 551000,
      "d": 1000,
      "v": 127
    },
    {
      "midi": 71,
      "hit": false,
      "t": 552000,
      "d": 4000,
      "v": 127
    },
    {
      "midi": 51,
      "hit": false,
      "t": 552000,
      "d": 4000,
      "v": 127
    },
    {
      "midi": 54,
      "hit": false,
      "t": 552000,
      "d": 4000,
      "v": 127
    },
    {
      "midi": 73,
      "hit": false,
      "t": 556000,
      "d": 2000,
      "v": 127
    },
    {
      "midi": 54,
      "hit": false,
      "t": 556000,
      "d": 4000,
      "v": 127
    },
    {
      "midi": 58,
      "hit": false,
      "t": 556000,
      "d": 4000,
      "v": 127
    },
    {
      "midi": 74,
      "hit": false,
      "t": 558000,
      "d": 2000,
      "v": 127
    },
    {
      "midi": 75,
      "hit": false,
      "t": 560000,
      "d": 4000,
      "v": 127
    },
    {
      "midi": 47,
      "hit": false,
      "t": 560000,
      "d": 4000,
      "v": 127
    },
    {
      "midi": 54,
      "hit": false,
      "t": 560000,
      "d": 4000,
      "v": 127
    },
    {
      "midi": 59,
      "hit": false,
      "t": 560000,
      "d": 4000,
      "v": 127
    },
    {
      "midi": 75,
      "hit": false,
      "t": 564000,
      "d": 1000,
      "v": 127
    },
    {
      "midi": 56,
      "hit": false,
      "t": 564000,
      "d": 2000,
      "v": 127
    },
    {
      "midi": 74,
      "hit": false,
      "t": 565000,
      "d": 1000,
      "v": 127
    },
    {
      "midi": 71,
      "hit": false,
      "t": 566000,
      "d": 1000,
      "v": 127
    },
    {
      "midi": 53,
      "hit": false,
      "t": 566000,
      "d": 2000,
      "v": 127
    },
    {
      "midi": 68,
      "hit": false,
      "t": 567000,
      "d": 1000,
      "v": 127
    },
    {
      "midi": 73,
      "hit": false,
      "t": 568000,
      "d": 4000,
      "v": 127
    },
    {
      "midi": 46,
      "hit": false,
      "t": 568000,
      "d": 4000,
      "v": 127
    },
    {
      "midi": 54,
      "hit": false,
      "t": 568000,
      "d": 4000,
      "v": 127
    },
    {
      "midi": 73,
      "hit": false,
      "t": 572000,
      "d": 1000,
      "v": 127
    },
    {
      "midi": 55,
      "hit": false,
      "t": 572000,
      "d": 1000,
      "v": 127
    },
    {
      "midi": 71,
      "hit": false,
      "t": 573000,
      "d": 1000,
      "v": 127
    },
    {
      "midi": 56,
      "hit": false,
      "t": 573000,
      "d": 1000,
      "v": 127
    },
    {
      "midi": 68,
      "hit": false,
      "t": 574000,
      "d": 1000,
      "v": 127
    },
    {
      "midi": 51,
      "hit": false,
      "t": 574000,
      "d": 2000,
      "v": 127
    },
    {
      "midi": 63,
      "hit": false,
      "t": 575000,
      "d": 1000,
      "v": 127
    },
    {
      "midi": 66,
      "hit": false,
      "t": 576000,
      "d": 4000,
      "v": 127
    },
    {
      "midi": 49,
      "hit": false,
      "t": 576000,
      "d": 4000,
      "v": 127
    },
    {
      "midi": 66,
      "hit": false,
      "t": 580000,
      "d": 1000,
      "v": 127
    },
    {
      "midi": 37,
      "hit": false,
      "t": 580000,
      "d": 2000,
      "v": 127
    },
    {
      "midi": 49,
      "hit": false,
      "t": 580000,
      "d": 2000,
      "v": 127
    },
    {
      "midi": 65,
      "hit": false,
      "t": 581000,
      "d": 1000,
      "v": 127
    },
    {
      "midi": 70,
      "hit": false,
      "t": 582000,
      "d": 1000,
      "v": 127
    },
    {
      "midi": 54,
      "hit": false,
      "t": 582000,
      "d": 1000,
      "v": 127
    },
    {
      "midi": 68,
      "hit": false,
      "t": 583000,
      "d": 1000,
      "v": 127
    },
    {
      "midi": 53,
      "hit": false,
      "t": 583000,
      "d": 1000,
      "v": 127
    },
    {
      "midi": 66,
      "hit": false,
      "t": 584000,
      "d": 4000,
      "v": 127
    },
    {
      "midi": 42,
      "hit": false,
      "t": 584000,
      "d": 4000,
      "v": 127
    },
    {
      "midi": 66,
      "hit": false,
      "t": 588000,
      "d": 4000,
      "v": 127
    },
    {
      "midi": 40,
      "hit": false,
      "t": 588000,
      "d": 4000,
      "v": 127
    },
    {
      "midi": 66,
      "hit": false,
      "t": 592000,
      "d": 4000,
      "v": 127
    },
    {
      "midi": 38,
      "hit": false,
      "t": 592000,
      "d": 4000,
      "v": 127
    },
    {
      "midi": 66,
      "hit": false,
      "t": 596000,
      "d": 2000,
      "v": 127
    },
    {
      "midi": 38,
      "hit": false,
      "t": 596000,
      "d": 250,
      "v": 127
    },
    {
      "midi": 37,
      "hit": false,
      "t": 596250,
      "d": 250,
      "v": 127
    },
    {
      "midi": 38,
      "hit": false,
      "t": 596500,
      "d": 250,
      "v": 127
    },
    {
      "midi": 37,
      "hit": false,
      "t": 596750,
      "d": 250,
      "v": 127
    },
    {
      "midi": 38,
      "hit": false,
      "t": 597000,
      "d": 250,
      "v": 127
    },
    {
      "midi": 37,
      "hit": false,
      "t": 597250,
      "d": 250,
      "v": 127
    },
    {
      "midi": 38,
      "hit": false,
      "t": 597500,
      "d": 250,
      "v": 127
    },
    {
      "midi": 37,
      "hit": false,
      "t": 597750,
      "d": 250,
      "v": 127
    },
    {
      "midi": 67,
      "hit": false,
      "t": 598000,
      "d": 1000,
      "v": 127
    },
    {
      "midi": 38,
      "hit": false,
      "t": 598000,
      "d": 250,
      "v": 127
    },
    {
      "midi": 37,
      "hit": false,
      "t": 598250,
      "d": 250,
      "v": 127
    },
    {
      "midi": 38,
      "hit": false,
      "t": 598500,
      "d": 250,
      "v": 127
    },
    {
      "midi": 37,
      "hit": false,
      "t": 598750,
      "d": 250,
      "v": 127
    },
    {
      "midi": 66,
      "hit": false,
      "t": 599000,
      "d": 1000,
      "v": 127
    },
    {
      "midi": 38,
      "hit": false,
      "t": 599000,
      "d": 250,
      "v": 127
    },
    {
      "midi": 37,
      "hit": false,
      "t": 599250,
      "d": 250,
      "v": 127
    },
    {
      "midi": 35,
      "hit": false,
      "t": 599500,
      "d": 250,
      "v": 127
    },
    {
      "midi": 37,
      "hit": false,
      "t": 599750,
      "d": 250,
      "v": 127
    },
    {
      "midi": 66,
      "hit": false,
      "t": 600000,
      "d": 4000,
      "v": 127
    },
    {
      "midi": 35,
      "hit": false,
      "t": 600000,
      "d": 4000,
      "v": 127
    },
    {
      "midi": 60,
      "hit": false,
      "t": 604000,
      "d": 4000,
      "v": 127
    },
    {
      "midi": 38,
      "hit": false,
      "t": 604000,
      "d": 4000,
      "v": 127
    },
    {
      "midi": 61,
      "hit": false,
      "t": 608000,
      "d": 4000,
      "v": 127
    },
    {
      "midi": 37,
      "hit": false,
      "t": 608000,
      "d": 4000,
      "v": 127
    },
    {
      "midi": 61,
      "hit": false,
      "t": 612000,
      "d": 1000,
      "v": 127
    },
    {
      "midi": 37,
      "hit": false,
      "t": 612000,
      "d": 1000,
      "v": 127
    },
    {
      "midi": 71,
      "hit": false,
      "t": 613000,
      "d": 1000,
      "v": 127
    },
    {
      "midi": 49,
      "hit": false,
      "t": 613000,
      "d": 1000,
      "v": 127
    },
    {
      "midi": 68,
      "hit": false,
      "t": 614000,
      "d": 1000,
      "v": 127
    },
    {
      "midi": 53,
      "hit": false,
      "t": 614000,
      "d": 1000,
      "v": 127
    },
    {
      "midi": 65,
      "hit": false,
      "t": 615000,
      "d": 1000,
      "v": 127
    },
    {
      "midi": 56,
      "hit": false,
      "t": 615000,
      "d": 1000,
      "v": 127
    },
    {
      "midi": 66,
      "hit": false,
      "t": 616000,
      "d": 4000,
      "v": 127
    },
    {
      "midi": 42,
      "hit": false,
      "t": 616000,
      "d": 4000,
      "v": 127
    },
    {
      "midi": 66,
      "hit": false,
      "t": 620000,
      "d": 4000,
      "v": 127
    },
    {
      "midi": 40,
      "hit": false,
      "t": 620000,
      "d": 4000,
      "v": 127
    },
    {
      "midi": 66,
      "hit": false,
      "t": 624000,
      "d": 4000,
      "v": 127
    },
    {
      "midi": 38,
      "hit": false,
      "t": 624000,
      "d": 4000,
      "v": 127
    },
    {
      "midi": 66,
      "hit": false,
      "t": 628000,
      "d": 4000,
      "v": 127
    },
    {
      "midi": 36,
      "hit": false,
      "t": 628000,
      "d": 250,
      "v": 127
    },
    {
      "midi": 38,
      "hit": false,
      "t": 628250,
      "d": 250,
      "v": 127
    },
    {
      "midi": 36,
      "hit": false,
      "t": 628500,
      "d": 250,
      "v": 127
    },
    {
      "midi": 38,
      "hit": false,
      "t": 628750,
      "d": 250,
      "v": 127
    },
    {
      "midi": 36,
      "hit": false,
      "t": 629000,
      "d": 250,
      "v": 127
    },
    {
      "midi": 38,
      "hit": false,
      "t": 629250,
      "d": 250,
      "v": 127
    },
    {
      "midi": 36,
      "hit": false,
      "t": 629500,
      "d": 250,
      "v": 127
    },
    {
      "midi": 38,
      "hit": false,
      "t": 629750,
      "d": 250,
      "v": 127
    },
    {
      "midi": 36,
      "hit": false,
      "t": 630000,
      "d": 250,
      "v": 127
    },
    {
      "midi": 38,
      "hit": false,
      "t": 630250,
      "d": 250,
      "v": 127
    },
    {
      "midi": 36,
      "hit": false,
      "t": 630500,
      "d": 250,
      "v": 127
    },
    {
      "midi": 38,
      "hit": false,
      "t": 630750,
      "d": 250,
      "v": 127
    },
    {
      "midi": 36,
      "hit": false,
      "t": 631000,
      "d": 250,
      "v": 127
    },
    {
      "midi": 34,
      "hit": false,
      "t": 631250,
      "d": 250,
      "v": 127
    },
    {
      "midi": 36,
      "hit": false,
      "t": 631750,
      "d": 250,
      "v": 127
    },
    {
      "midi": 67,
      "hit": false,
      "t": 632000,
      "d": 4000,
      "v": 127
    },
    {
      "midi": 34,
      "hit": false,
      "t": 632000,
      "d": 4000,
      "v": 127
    },
    {
      "midi": 60,
      "hit": false,
      "t": 636000,
      "d": 4000,
      "v": 127
    },
    {
      "midi": 38,
      "hit": false,
      "t": 636000,
      "d": 4000,
      "v": 127
    },
    {
      "midi": 61,
      "hit": false,
      "t": 640000,
      "d": 4000,
      "v": 127
    },
    {
      "midi": 37,
      "hit": false,
      "t": 640000,
      "d": 4000,
      "v": 127
    },
    {
      "midi": 61,
      "hit": false,
      "t": 644000,
      "d": 1000,
      "v": 127
    },
    {
      "midi": 37,
      "hit": false,
      "t": 644000,
      "d": 1000,
      "v": 127
    },
    {
      "midi": 71,
      "hit": false,
      "t": 645000,
      "d": 1000,
      "v": 127
    },
    {
      "midi": 49,
      "hit": false,
      "t": 645000,
      "d": 1000,
      "v": 127
    },
    {
      "midi": 68,
      "hit": false,
      "t": 646000,
      "d": 1000,
      "v": 127
    },
    {
      "midi": 53,
      "hit": false,
      "t": 646000,
      "d": 1000,
      "v": 127
    },
    {
      "midi": 65,
      "hit": false,
      "t": 647000,
      "d": 1000,
      "v": 127
    },
    {
      "midi": 56,
      "hit": false,
      "t": 647000,
      "d": 1000,
      "v": 127
    },
    {
      "midi": 66,
      "hit": false,
      "t": 648000,
      "d": 4000,
      "v": 127
    },
    {
      "midi": 46,
      "hit": false,
      "t": 649000,
      "d": 1000,
      "v": 127
    },
    {
      "midi": 49,
      "hit": false,
      "t": 649000,
      "d": 1000,
      "v": 127
    },
    {
      "midi": 47,
      "hit": false,
      "t": 650000,
      "d": 1000,
      "v": 127
    },
    {
      "midi": 51,
      "hit": false,
      "t": 650000,
      "d": 1000,
      "v": 127
    },
    {
      "midi": 46,
      "hit": false,
      "t": 651000,
      "d": 1000,
      "v": 127
    },
    {
      "midi": 49,
      "hit": false,
      "t": 651000,
      "d": 1000,
      "v": 127
    },
    {
      "midi": 65,
      "hit": false,
      "t": 652000,
      "d": 1000,
      "v": 127
    },
    {
      "midi": 34,
      "hit": false,
      "t": 652000,
      "d": 1000,
      "v": 127
    },
    {
      "midi": 71,
      "hit": false,
      "t": 653000,
      "d": 1000,
      "v": 127
    },
    {
      "midi": 49,
      "hit": false,
      "t": 653000,
      "d": 1000,
      "v": 127
    },
    {
      "midi": 68,
      "hit": false,
      "t": 654000,
      "d": 1000,
      "v": 127
    },
    {
      "midi": 53,
      "hit": false,
      "t": 654000,
      "d": 1000,
      "v": 127
    },
    {
      "midi": 65,
      "hit": false,
      "t": 655000,
      "d": 1000,
      "v": 127
    },
    {
      "midi": 56,
      "hit": false,
      "t": 655000,
      "d": 1000,
      "v": 127
    },
    {
      "midi": 66,
      "hit": false,
      "t": 656000,
      "d": 4000,
      "v": 127
    },
    {
      "midi": 46,
      "hit": false,
      "t": 657000,
      "d": 1000,
      "v": 127
    },
    {
      "midi": 49,
      "hit": false,
      "t": 657000,
      "d": 1000,
      "v": 127
    },
    {
      "midi": 47,
      "hit": false,
      "t": 658000,
      "d": 1000,
      "v": 127
    },
    {
      "midi": 51,
      "hit": false,
      "t": 658000,
      "d": 1000,
      "v": 127
    },
    {
      "midi": 46,
      "hit": false,
      "t": 659000,
      "d": 1000,
      "v": 127
    },
    {
      "midi": 49,
      "hit": false,
      "t": 659000,
      "d": 1000,
      "v": 127
    },
    {
      "midi": 65,
      "hit": false,
      "t": 660000,
      "d": 1000,
      "v": 127
    },
    {
      "midi": 34,
      "hit": false,
      "t": 660000,
      "d": 1000,
      "v": 127
    },
    {
      "midi": 75,
      "hit": false,
      "t": 661000,
      "d": 1000,
      "v": 127
    },
    {
      "midi": 49,
      "hit": false,
      "t": 661000,
      "d": 1000,
      "v": 127
    },
    {
      "midi": 71,
      "hit": false,
      "t": 662000,
      "d": 1000,
      "v": 127
    },
    {
      "midi": 56,
      "hit": false,
      "t": 662000,
      "d": 1000,
      "v": 127
    },
    {
      "midi": 68,
      "hit": false,
      "t": 663000,
      "d": 1000,
      "v": 127
    },
    {
      "midi": 59,
      "hit": false,
      "t": 663000,
      "d": 1000,
      "v": 127
    },
    {
      "midi": 66,
      "hit": false,
      "t": 664000,
      "d": 4000,
      "v": 127
    },
    {
      "midi": 42,
      "hit": false,
      "t": 664000,
      "d": 4000,
      "v": 127
    },
    {
      "midi": 49,
      "hit": false,
      "t": 664000,
      "d": 4000,
      "v": 127
    },
    {
      "midi": 66,
      "hit": false,
      "t": 668000,
      "d": 2000,
      "v": 127
    },
    {
      "midi": 42,
      "hit": false,
      "t": 668000,
      "d": 2000,
      "v": 127
    },
    {
      "midi": 49,
      "hit": false,
      "t": 668000,
      "d": 2000,
      "v": 127
    },
    {
      "midi": 66,
      "hit": false,
      "t": 670000,
      "d": 2000,
      "v": 127
    },
    {
      "midi": 42,
      "hit": false,
      "t": 670000,
      "d": 2000,
      "v": 127
    },
    {
      "midi": 49,
      "hit": false,
      "t": 670000,
      "d": 2000,
      "v": 127
    },
    {
      "midi": 54,
      "hit": false,
      "t": 672000,
      "d": 4000,
      "v": 127
    },
    {
      "midi": 58,
      "hit": false,
      "t": 672000,
      "d": 4000,
      "v": 127
    },
    {
      "midi": 66,
      "hit": false,
      "t": 672000,
      "d": 4000,
      "v": 127
    },
    {
      "midi": 54,
      "hit": false,
      "t": 676000,
      "d": 2000,
      "v": 127
    },
    {
      "midi": 58,
      "hit": false,
      "t": 676000,
      "d": 2000,
      "v": 127
    },
    {
      "midi": 66,
      "hit": false,
      "t": 676000,
      "d": 2000,
      "v": 127
    },
    {
      "midi": 54,
      "hit": false,
      "t": 678000,
      "d": 2000,
      "v": 127
    },
    {
      "midi": 58,
      "hit": false,
      "t": 678000,
      "d": 2000,
      "v": 127
    },
    {
      "midi": 66,
      "hit": false,
      "t": 678000,
      "d": 2000,
      "v": 127
    },
    {
      "midi": 54,
      "hit": false,
      "t": 680000,
      "d": 8000,
      "v": 127
    },
    {
      "midi": 58,
      "hit": false,
      "t": 680000,
      "d": 8000,
      "v": 127
    },
    {
      "midi": 66,
      "hit": false,
      "t": 680000,
      "d": 8000,
      "v": 127
    },
    {
      "midi": 30,
      "hit": false,
      "t": 680000,
      "d": 8000,
      "v": 127
    },
    {
      "midi": 37,
      "hit": false,
      "t": 680000,
      "d": 8000,
      "v": 127
    },
    {
      "midi": 42,
      "hit": false,
      "t": 680000,
      "d": 8000,
      "v": 127
    }
  ]
}