{
  "jsonPath": "Classical/Classical/Franz Schubert/impromptu-in-b-dur.json",
  "path": "Classical\\Classical\\Franz Schubert\\Impromptu in B-dur.mid",
  "name": "Impromptu in B-dur",
  "difficulty": "Advanced",
  "bpm": 50,
  "notes": [
    {
      "midi": 74,
      "hit": false,
      "t": 0,
      "d": 1200,
      "v": 127
    },
    {
      "midi": 46,
      "hit": false,
      "t": 0,
      "d": 600,
      "v": 127
    },
    {
      "midi": 62,
      "hit": false,
      "t": 600,
      "d": 600,
      "v": 127
    },
    {
      "midi": 74,
      "hit": false,
      "t": 1200,
      "d": 600,
      "v": 127
    },
    {
      "midi": 53,
      "hit": false,
      "t": 1200,
      "d": 600,
      "v": 127
    },
    {
      "midi": 58,
      "hit": false,
      "t": 1200,
      "d": 600,
      "v": 127
    },
    {
      "midi": 74,
      "hit": false,
      "t": 1800,
      "d": 600,
      "v": 127
    },
    {
      "midi": 62,
      "hit": false,
      "t": 1800,
      "d": 600,
      "v": 127
    },
    {
      "midi": 70,
      "hit": false,
      "t": 2400,
      "d": 1200,
      "v": 127
    },
    {
      "midi": 50,
      "hit": false,
      "t": 2400,
      "d": 600,
      "v": 127
    },
    {
      "midi": 65,
      "hit": false,
      "t": 3000,
      "d": 600,
      "v": 127
    },
    {
      "midi": 70,
      "hit": false,
      "t": 3600,
      "d": 1200,
      "v": 127
    },
    {
      "midi": 53,
      "hit": false,
      "t": 3600,
      "d": 600,
      "v": 127
    },
    {
      "midi": 58,
      "hit": false,
      "t": 3600,
      "d": 600,
      "v": 127
    },
    {
      "midi": 65,
      "hit": false,
      "t": 4200,
      "d": 600,
      "v": 127
    },
    {
      "midi": 69,
      "hit": false,
      "t": 4800,
      "d": 1200,
      "v": 127
    },
    {
      "midi": 48,
      "hit": false,
      "t": 4800,
      "d": 600,
      "v": 127
    },
    {
      "midi": 63,
      "hit": false,
      "t": 5400,
      "d": 600,
      "v": 127
    },
    {
      "midi": 69,
      "hit": false,
      "t": 6000,
      "d": 600,
      "v": 127
    },
    {
      "midi": 53,
      "hit": false,
      "t": 6000,
      "d": 600,
      "v": 127
    },
    {
      "midi": 57,
      "hit": false,
      "t": 6000,
      "d": 600,
      "v": 127
    },
    {
      "midi": 69,
      "hit": false,
      "t": 6600,
      "d": 600,
      "v": 127
    },
    {
      "midi": 63,
      "hit": false,
      "t": 6600,
      "d": 600,
      "v": 127
    },
    {
      "midi": 69,
      "hit": false,
      "t": 7200,
      "d": 2400,
      "v": 127
    },
    {
      "midi": 75,
      "hit": false,
      "t": 7200,
      "d": 2400,
      "v": 127
    },
    {
      "midi": 41,
      "hit": false,
      "t": 7200,
      "d": 600,
      "v": 127
    },
    {
      "midi": 60,
      "hit": false,
      "t": 7800,
      "d": 600,
      "v": 127
    },
    {
      "midi": 53,
      "hit": false,
      "t": 8400,
      "d": 600,
      "v": 127
    },
    {
      "midi": 57,
      "hit": false,
      "t": 8400,
      "d": 600,
      "v": 127
    },
    {
      "midi": 60,
      "hit": false,
      "t": 9000,
      "d": 600,
      "v": 127
    },
    {
      "midi": 74,
      "hit": false,
      "t": 9600,
      "d": 1200,
      "v": 127
    },
    {
      "midi": 46,
      "hit": false,
      "t": 9600,
      "d": 600,
      "v": 127
    },
    {
      "midi": 62,
      "hit": false,
      "t": 10200,
      "d": 600,
      "v": 127
    },
    {
      "midi": 74,
      "hit": false,
      "t": 10800,
      "d": 600,
      "v": 127
    },
    {
      "midi": 53,
      "hit": false,
      "t": 10800,
      "d": 600,
      "v": 127
    },
    {
      "midi": 58,
      "hit": false,
      "t": 10800,
      "d": 600,
      "v": 127
    },
    {
      "midi": 74,
      "hit": false,
      "t": 11400,
      "d": 600,
      "v": 127
    },
    {
      "midi": 62,
      "hit": false,
      "t": 11400,
      "d": 600,
      "v": 127
    },
    {
      "midi": 74,
      "hit": false,
      "t": 12000,
      "d": 600,
      "v": 127
    },
    {
      "midi": 39,
      "hit": false,
      "t": 12000,
      "d": 600,
      "v": 127
    },
    {
      "midi": 67,
      "hit": false,
      "t": 12600,
      "d": 600,
      "v": 127
    },
    {
      "midi": 60,
      "hit": false,
      "t": 12600,
      "d": 600,
      "v": 127
    },
    {
      "midi": 67,
      "hit": false,
      "t": 13200,
      "d": 1200,
      "v": 127
    },
    {
      "midi": 51,
      "hit": false,
      "t": 13200,
      "d": 600,
      "v": 127
    },
    {
      "midi": 55,
      "hit": false,
      "t": 13200,
      "d": 600,
      "v": 127
    },
    {
      "midi": 58,
      "hit": false,
      "t": 13200,
      "d": 600,
      "v": 127
    },
    {
      "midi": 60,
      "hit": false,
      "t": 13800,
      "d": 600,
      "v": 127
    },
    {
      "midi": 72,
      "hit": false,
      "t": 14400,
      "d": 600,
      "v": 127
    },
    {
      "midi": 40,
      "hit": false,
      "t": 14400,
      "d": 600,
      "v": 127
    },
    {
      "midi": 71,
      "hit": false,
      "t": 15000,
      "d": 300,
      "v": 127
    },
    {
      "midi": 60,
      "hit": false,
      "t": 15000,
      "d": 600,
      "v": 127
    },
    {
      "midi": 72,
      "hit": false,
      "t": 15300,
      "d": 300,
      "v": 127
    },
    {
      "midi": 71,
      "hit": false,
      "t": 15600,
      "d": 300,
      "v": 127
    },
    {
      "midi": 52,
      "hit": false,
      "t": 15600,
      "d": 600,
      "v": 127
    },
    {
      "midi": 55,
      "hit": false,
      "t": 15600,
      "d": 600,
      "v": 127
    },
    {
      "midi": 58,
      "hit": false,
      "t": 15600,
      "d": 600,
      "v": 127
    },
    {
      "midi": 72,
      "hit": false,
      "t": 15900,
      "d": 300,
      "v": 127
    },
    {
      "midi": 74,
      "hit": false,
      "t": 16200,
      "d": 300,
      "v": 127
    },
    {
      "midi": 60,
      "hit": false,
      "t": 16200,
      "d": 600,
      "v": 127
    },
    {
      "midi": 72,
      "hit": false,
      "t": 16500,
      "d": 300,
      "v": 127
    },
    {
      "midi": 65,
      "hit": false,
      "t": 16800,
      "d": 600,
      "v": 127
    },
    {
      "midi": 41,
      "hit": false,
      "t": 16800,
      "d": 600,
      "v": 127
    },
    {
      "midi": 60,
      "hit": false,
      "t": 17400,
      "d": 600,
      "v": 127
    },
    {
      "midi": 57,
      "hit": false,
      "t": 17400,
      "d": 600,
      "v": 127
    },
    {
      "midi": 62,
      "hit": false,
      "t": 18000,
      "d": 600,
      "v": 127
    },
    {
      "midi": 58,
      "hit": false,
      "t": 18000,
      "d": 600,
      "v": 127
    },
    {
      "midi": 63,
      "hit": false,
      "t": 18600,
      "d": 600,
      "v": 127
    },
    {
      "midi": 60,
      "hit": false,
      "t": 18600,
      "d": 600,
      "v": 127
    },
    {
      "midi": 74,
      "hit": false,
      "t": 19200,
      "d": 1200,
      "v": 127
    },
    {
      "midi": 86,
      "hit": false,
      "t": 19200,
      "d": 1200,
      "v": 127
    },
    {
      "midi": 46,
      "hit": false,
      "t": 19200,
      "d": 600,
      "v": 127
    },
    {
      "midi": 62,
      "hit": false,
      "t": 19800,
      "d": 600,
      "v": 127
    },
    {
      "midi": 74,
      "hit": false,
      "t": 20400,
      "d": 600,
      "v": 127
    },
    {
      "midi": 86,
      "hit": false,
      "t": 20400,
      "d": 600,
      "v": 127
    },
    {
      "midi": 53,
      "hit": false,
      "t": 20400,
      "d": 600,
      "v": 127
    },
    {
      "midi": 58,
      "hit": false,
      "t": 20400,
      "d": 600,
      "v": 127
    },
    {
      "midi": 74,
      "hit": false,
      "t": 21000,
      "d": 600,
      "v": 127
    },
    {
      "midi": 86,
      "hit": false,
      "t": 21000,
      "d": 600,
      "v": 127
    },
    {
      "midi": 62,
      "hit": false,
      "t": 21000,
      "d": 600,
      "v": 127
    },
    {
      "midi": 70,
      "hit": false,
      "t": 21600,
      "d": 1200,
      "v": 127
    },
    {
      "midi": 82,
      "hit": false,
      "t": 21600,
      "d": 1200,
      "v": 127
    },
    {
      "midi": 50,
      "hit": false,
      "t": 21600,
      "d": 600,
      "v": 127
    },
    {
      "midi": 65,
      "hit": false,
      "t": 22200,
      "d": 600,
      "v": 127
    },
    {
      "midi": 70,
      "hit": false,
      "t": 22800,
      "d": 1200,
      "v": 127
    },
    {
      "midi": 82,
      "hit": false,
      "t": 22800,
      "d": 1200,
      "v": 127
    },
    {
      "midi": 53,
      "hit": false,
      "t": 22800,
      "d": 600,
      "v": 127
    },
    {
      "midi": 58,
      "hit": false,
      "t": 22800,
      "d": 600,
      "v": 127
    },
    {
      "midi": 65,
      "hit": false,
      "t": 23400,
      "d": 600,
      "v": 127
    },
    {
      "midi": 69,
      "hit": false,
      "t": 24000,
      "d": 1200,
      "v": 127
    },
    {
      "midi": 81,
      "hit": false,
      "t": 24000,
      "d": 1200,
      "v": 127
    },
    {
      "midi": 48,
      "hit": false,
      "t": 24000,
      "d": 600,
      "v": 127
    },
    {
      "midi": 63,
      "hit": false,
      "t": 24600,
      "d": 600,
      "v": 127
    },
    {
      "midi": 69,
      "hit": false,
      "t": 25200,
      "d": 600,
      "v": 127
    },
    {
      "midi": 81,
      "hit": false,
      "t": 25200,
      "d": 600,
      "v": 127
    },
    {
      "midi": 53,
      "hit": false,
      "t": 25200,
      "d": 600,
      "v": 127
    },
    {
      "midi": 57,
      "hit": false,
      "t": 25200,
      "d": 600,
      "v": 127
    },
    {
      "midi": 69,
      "hit": false,
      "t": 25800,
      "d": 600,
      "v": 127
    },
    {
      "midi": 81,
      "hit": false,
      "t": 25800,
      "d": 600,
      "v": 127
    },
    {
      "midi": 63,
      "hit": false,
      "t": 25800,
      "d": 600,
      "v": 127
    },
    {
      "midi": 75,
      "hit": false,
      "t": 26400,
      "d": 2400,
      "v": 127
    },
    {
      "midi": 81,
      "hit": false,
      "t": 26400,
      "d": 2400,
      "v": 127
    },
    {
      "midi": 87,
      "hit": false,
      "t": 26400,
      "d": 2400,
      "v": 127
    },
    {
      "midi": 41,
      "hit": false,
      "t": 26400,
      "d": 600,
      "v": 127
    },
    {
      "midi": 60,
      "hit": false,
      "t": 27000,
      "d": 600,
      "v": 127
    },
    {
      "midi": 53,
      "hit": false,
      "t": 27600,
      "d": 600,
      "v": 127
    },
    {
      "midi": 57,
      "hit": false,
      "t": 27600,
      "d": 600,
      "v": 127
    },
    {
      "midi": 60,
      "hit": false,
      "t": 28200,
      "d": 600,
      "v": 127
    },
    {
      "midi": 74,
      "hit": false,
      "t": 28800,
      "d": 1200,
      "v": 127
    },
    {
      "midi": 86,
      "hit": false,
      "t": 28800,
      "d": 1200,
      "v": 127
    },
    {
      "midi": 46,
      "hit": false,
      "t": 28800,
      "d": 600,
      "v": 127
    },
    {
      "midi": 62,
      "hit": false,
      "t": 29400,
      "d": 600,
      "v": 127
    },
    {
      "midi": 74,
      "hit": false,
      "t": 30000,
      "d": 600,
      "v": 127
    },
    {
      "midi": 86,
      "hit": false,
      "t": 30000,
      "d": 600,
      "v": 127
    },
    {
      "midi": 53,
      "hit": false,
      "t": 30000,
      "d": 600,
      "v": 127
    },
    {
      "midi": 58,
      "hit": false,
      "t": 30000,
      "d": 600,
      "v": 127
    },
    {
      "midi": 74,
      "hit": false,
      "t": 30600,
      "d": 600,
      "v": 127
    },
    {
      "midi": 86,
      "hit": false,
      "t": 30600,
      "d": 600,
      "v": 127
    },
    {
      "midi": 62,
      "hit": false,
      "t": 30600,
      "d": 600,
      "v": 127
    },
    {
      "midi": 79,
      "hit": false,
      "t": 31200,
      "d": 1200,
      "v": 127
    },
    {
      "midi": 91,
      "hit": false,
      "t": 31200,
      "d": 1200,
      "v": 127
    },
    {
      "midi": 40,
      "hit": false,
      "t": 31200,
      "d": 600,
      "v": 127
    },
    {
      "midi": 61,
      "hit": false,
      "t": 31800,
      "d": 600,
      "v": 127
    },
    {
      "midi": 91,
      "hit": false,
      "t": 32400,
      "d": 600,
      "v": 127
    },
    {
      "midi": 52,
      "hit": false,
      "t": 32400,
      "d": 600,
      "v": 127
    },
    {
      "midi": 55,
      "hit": false,
      "t": 32400,
      "d": 600,
      "v": 127
    },
    {
      "midi": 58,
      "hit": false,
      "t": 32400,
      "d": 600,
      "v": 127
    },
    {
      "midi": 82,
      "hit": false,
      "t": 33000,
      "d": 600,
      "v": 127
    },
    {
      "midi": 61,
      "hit": false,
      "t": 33000,
      "d": 600,
      "v": 127
    },
    {
      "midi": 84,
      "hit": false,
      "t": 33600,
      "d": 600,
      "v": 127
    },
    {
      "midi": 60,
      "hit": false,
      "t": 33600,
      "d": 600,
      "v": 127
    },
    {
      "midi": 81,
      "hit": false,
      "t": 34200,
      "d": 300,
      "v": 127
    },
    {
      "midi": 57,
      "hit": false,
      "t": 34200,
      "d": 300,
      "v": 127
    },
    {
      "midi": 79,
      "hit": false,
      "t": 34500,
      "d": 300,
      "v": 127
    },
    {
      "midi": 55,
      "hit": false,
      "t": 34500,
      "d": 300,
      "v": 127
    },
    {
      "midi": 81,
      "hit": false,
      "t": 34800,
      "d": 600,
      "v": 127
    },
    {
      "midi": 57,
      "hit": false,
      "t": 34800,
      "d": 600,
      "v": 127
    },
    {
      "midi": 75,
      "hit": false,
      "t": 35400,
      "d": 600,
      "v": 127
    },
    {
      "midi": 81,
      "hit": false,
      "t": 35400,
      "d": 600,
      "v": 127
    },
    {
      "midi": 89,
      "hit": false,
      "t": 35400,
      "d": 600,
      "v": 127
    },
    {
      "midi": 53,
      "hit": false,
      "t": 35400,
      "d": 600,
      "v": 127
    },
    {
      "midi": 60,
      "hit": false,
      "t": 35400,
      "d": 600,
      "v": 127
    },
    {
      "midi": 74,
      "hit": false,
      "t": 36000,
      "d": 2400,
      "v": 127
    },
    {
      "midi": 82,
      "hit": false,
      "t": 36000,
      "d": 2400,
      "v": 127
    },
    {
      "midi": 46,
      "hit": false,
      "t": 36000,
      "d": 600,
      "v": 127
    },
    {
      "midi": 58,
      "hit": false,
      "t": 36600,
      "d": 600,
      "v": 127
    },
    {
      "midi": 50,
      "hit": false,
      "t": 37200,
      "d": 600,
      "v": 127
    },
    {
      "midi": 53,
      "hit": false,
      "t": 37200,
      "d": 600,
      "v": 127
    },
    {
      "midi": 58,
      "hit": false,
      "t": 37800,
      "d": 600,
      "v": 127
    },
    {
      "midi": 74,
      "hit": false,
      "t": 38400,
      "d": 1200,
      "v": 127
    },
    {
      "midi": 46,
      "hit": false,
      "t": 38400,
      "d": 600,
      "v": 127
    },
    {
      "midi": 62,
      "hit": false,
      "t": 39000,
      "d": 600,
      "v": 127
    },
    {
      "midi": 74,
      "hit": false,
      "t": 39600,
      "d": 600,
      "v": 127
    },
    {
      "midi": 53,
      "hit": false,
      "t": 39600,
      "d": 600,
      "v": 127
    },
    {
      "midi": 58,
      "hit": false,
      "t": 39600,
      "d": 600,
      "v": 127
    },
    {
      "midi": 74,
      "hit": false,
      "t": 40200,
      "d": 600,
      "v": 127
    },
    {
      "midi": 62,
      "hit": false,
      "t": 40200,
      "d": 600,
      "v": 127
    },
    {
      "midi": 70,
      "hit": false,
      "t": 40800,
      "d": 1200,
      "v": 127
    },
    {
      "midi": 50,
      "hit": false,
      "t": 40800,
      "d": 600,
      "v": 127
    },
    {
      "midi": 65,
      "hit": false,
      "t": 41400,
      "d": 600,
      "v": 127
    },
    {
      "midi": 70,
      "hit": false,
      "t": 42000,
      "d": 1200,
      "v": 127
    },
    {
      "midi": 53,
      "hit": false,
      "t": 42000,
      "d": 600,
      "v": 127
    },
    {
      "midi": 58,
      "hit": false,
      "t": 42000,
      "d": 600,
      "v": 127
    },
    {
      "midi": 65,
      "hit": false,
      "t": 42600,
      "d": 600,
      "v": 127
    },
    {
      "midi": 69,
      "hit": false,
      "t": 43200,
      "d": 1200,
      "v": 127
    },
    {
      "midi": 48,
      "hit": false,
      "t": 43200,
      "d": 600,
      "v": 127
    },
    {
      "midi": 63,
      "hit": false,
      "t": 43800,
      "d": 600,
      "v": 127
    },
    {
      "midi": 69,
      "hit": false,
      "t": 44400,
      "d": 600,
      "v": 127
    },
    {
      "midi": 53,
      "hit": false,
      "t": 44400,
      "d": 600,
      "v": 127
    },
    {
      "midi": 57,
      "hit": false,
      "t": 44400,
      "d": 600,
      "v": 127
    },
    {
      "midi": 69,
      "hit": false,
      "t": 45000,
      "d": 600,
      "v": 127
    },
    {
      "midi": 63,
      "hit": false,
      "t": 45000,
      "d": 600,
      "v": 127
    },
    {
      "midi": 69,
      "hit": false,
      "t": 45600,
      "d": 2400,
      "v": 127
    },
    {
      "midi": 75,
      "hit": false,
      "t": 45600,
      "d": 2400,
      "v": 127
    },
    {
      "midi": 41,
      "hit": false,
      "t": 45600,
      "d": 600,
      "v": 127
    },
    {
      "midi": 60,
      "hit": false,
      "t": 46200,
      "d": 600,
      "v": 127
    },
    {
      "midi": 53,
      "hit": false,
      "t": 46800,
      "d": 600,
      "v": 127
    },
    {
      "midi": 57,
      "hit": false,
      "t": 46800,
      "d": 600,
      "v": 127
    },
    {
      "midi": 60,
      "hit": false,
      "t": 47400,
      "d": 600,
      "v": 127
    },
    {
      "midi": 74,
      "hit": false,
      "t": 48000,
      "d": 1200,
      "v": 127
    },
    {
      "midi": 46,
      "hit": false,
      "t": 48000,
      "d": 600,
      "v": 127
    },
    {
      "midi": 62,
      "hit": false,
      "t": 48600,
      "d": 600,
      "v": 127
    },
    {
      "midi": 74,
      "hit": false,
      "t": 49200,
      "d": 600,
      "v": 127
    },
    {
      "midi": 53,
      "hit": false,
      "t": 49200,
      "d": 600,
      "v": 127
    },
    {
      "midi": 58,
      "hit": false,
      "t": 49200,
      "d": 600,
      "v": 127
    },
    {
      "midi": 74,
      "hit": false,
      "t": 49800,
      "d": 600,
      "v": 127
    },
    {
      "midi": 62,
      "hit": false,
      "t": 49800,
      "d": 600,
      "v": 127
    },
    {
      "midi": 74,
      "hit": false,
      "t": 50400,
      "d": 600,
      "v": 127
    },
    {
      "midi": 39,
      "hit": false,
      "t": 50400,
      "d": 600,
      "v": 127
    },
    {
      "midi": 67,
      "hit": false,
      "t": 51000,
      "d": 600,
      "v": 127
    },
    {
      "midi": 60,
      "hit": false,
      "t": 51000,
      "d": 600,
      "v": 127
    },
    {
      "midi": 67,
      "hit": false,
      "t": 51600,
      "d": 1200,
      "v": 127
    },
    {
      "midi": 51,
      "hit": false,
      "t": 51600,
      "d": 600,
      "v": 127
    },
    {
      "midi": 55,
      "hit": false,
      "t": 51600,
      "d": 600,
      "v": 127
    },
    {
      "midi": 58,
      "hit": false,
      "t": 51600,
      "d": 600,
      "v": 127
    },
    {
      "midi": 60,
      "hit": false,
      "t": 52200,
      "d": 600,
      "v": 127
    },
    {
      "midi": 72,
      "hit": false,
      "t": 52800,
      "d": 600,
      "v": 127
    },
    {
      "midi": 40,
      "hit": false,
      "t": 52800,
      "d": 600,
      "v": 127
    },
    {
      "midi": 71,
      "hit": false,
      "t": 53400,
      "d": 300,
      "v": 127
    },
    {
      "midi": 60,
      "hit": false,
      "t": 53400,
      "d": 600,
      "v": 127
    },
    {
      "midi": 72,
      "hit": false,
      "t": 53700,
      "d": 300,
      "v": 127
    },
    {
      "midi": 71,
      "hit": false,
      "t": 54000,
      "d": 300,
      "v": 127
    },
    {
      "midi": 52,
      "hit": false,
      "t": 54000,
      "d": 600,
      "v": 127
    },
    {
      "midi": 55,
      "hit": false,
      "t": 54000,
      "d": 600,
      "v": 127
    },
    {
      "midi": 58,
      "hit": false,
      "t": 54000,
      "d": 600,
      "v": 127
    },
    {
      "midi": 72,
      "hit": false,
      "t": 54300,
      "d": 300,
      "v": 127
    },
    {
      "midi": 74,
      "hit": false,
      "t": 54600,
      "d": 300,
      "v": 127
    },
    {
      "midi": 60,
      "hit": false,
      "t": 54600,
      "d": 600,
      "v": 127
    },
    {
      "midi": 72,
      "hit": false,
      "t": 54900,
      "d": 300,
      "v": 127
    },
    {
      "midi": 65,
      "hit": false,
      "t": 55200,
      "d": 600,
      "v": 127
    },
    {
      "midi": 41,
      "hit": false,
      "t": 55200,
      "d": 600,
      "v": 127
    },
    {
      "midi": 60,
      "hit": false,
      "t": 55800,
      "d": 600,
      "v": 127
    },
    {
      "midi": 57,
      "hit": false,
      "t": 55800,
      "d": 600,
      "v": 127
    },
    {
      "midi": 62,
      "hit": false,
      "t": 56400,
      "d": 600,
      "v": 127
    },
    {
      "midi": 58,
      "hit": false,
      "t": 56400,
      "d": 600,
      "v": 127
    },
    {
      "midi": 63,
      "hit": false,
      "t": 57000,
      "d": 600,
      "v": 127
    },
    {
      "midi": 60,
      "hit": false,
      "t": 57000,
      "d": 600,
      "v": 127
    },
    {
      "midi": 74,
      "hit": false,
      "t": 57600,
      "d": 1200,
      "v": 127
    },
    {
      "midi": 86,
      "hit": false,
      "t": 57600,
      "d": 1200,
      "v": 127
    },
    {
      "midi": 46,
      "hit": false,
      "t": 57600,
      "d": 600,
      "v": 127
    },
    {
      "midi": 62,
      "hit": false,
      "t": 58200,
      "d": 600,
      "v": 127
    },
    {
      "midi": 74,
      "hit": false,
      "t": 58800,
      "d": 600,
      "v": 127
    },
    {
      "midi": 86,
      "hit": false,
      "t": 58800,
      "d": 600,
      "v": 127
    },
    {
      "midi": 53,
      "hit": false,
      "t": 58800,
      "d": 600,
      "v": 127
    },
    {
      "midi": 58,
      "hit": false,
      "t": 58800,
      "d": 600,
      "v": 127
    },
    {
      "midi": 74,
      "hit": false,
      "t": 59400,
      "d": 600,
      "v": 127
    },
    {
      "midi": 86,
      "hit": false,
      "t": 59400,
      "d": 600,
      "v": 127
    },
    {
      "midi": 62,
      "hit": false,
      "t": 59400,
      "d": 600,
      "v": 127
    },
    {
      "midi": 70,
      "hit": false,
      "t": 60000,
      "d": 1200,
      "v": 127
    },
    {
      "midi": 82,
      "hit": false,
      "t": 60000,
      "d": 1200,
      "v": 127
    },
    {
      "midi": 50,
      "hit": false,
      "t": 60000,
      "d": 600,
      "v": 127
    },
    {
      "midi": 65,
      "hit": false,
      "t": 60600,
      "d": 600,
      "v": 127
    },
    {
      "midi": 70,
      "hit": false,
      "t": 61200,
      "d": 1200,
      "v": 127
    },
    {
      "midi": 82,
      "hit": false,
      "t": 61200,
      "d": 1200,
      "v": 127
    },
    {
      "midi": 53,
      "hit": false,
      "t": 61200,
      "d": 600,
      "v": 127
    },
    {
      "midi": 58,
      "hit": false,
      "t": 61200,
      "d": 600,
      "v": 127
    },
    {
      "midi": 65,
      "hit": false,
      "t": 61800,
      "d": 600,
      "v": 127
    },
    {
      "midi": 69,
      "hit": false,
      "t": 62400,
      "d": 1200,
      "v": 127
    },
    {
      "midi": 81,
      "hit": false,
      "t": 62400,
      "d": 1200,
      "v": 127
    },
    {
      "midi": 48,
      "hit": false,
      "t": 62400,
      "d": 600,
      "v": 127
    },
    {
      "midi": 63,
      "hit": false,
      "t": 63000,
      "d": 600,
      "v": 127
    },
    {
      "midi": 69,
      "hit": false,
      "t": 63600,
      "d": 600,
      "v": 127
    },
    {
      "midi": 81,
      "hit": false,
      "t": 63600,
      "d": 600,
      "v": 127
    },
    {
      "midi": 53,
      "hit": false,
      "t": 63600,
      "d": 600,
      "v": 127
    },
    {
      "midi": 57,
      "hit": false,
      "t": 63600,
      "d": 600,
      "v": 127
    },
    {
      "midi": 69,
      "hit": false,
      "t": 64200,
      "d": 600,
      "v": 127
    },
    {
      "midi": 81,
      "hit": false,
      "t": 64200,
      "d": 600,
      "v": 127
    },
    {
      "midi": 63,
      "hit": false,
      "t": 64200,
      "d": 600,
      "v": 127
    },
    {
      "midi": 75,
      "hit": false,
      "t": 64800,
      "d": 2400,
      "v": 127
    },
    {
      "midi": 81,
      "hit": false,
      "t": 64800,
      "d": 2400,
      "v": 127
    },
    {
      "midi": 87,
      "hit": false,
      "t": 64800,
      "d": 2400,
      "v": 127
    },
    {
      "midi": 41,
      "hit": false,
      "t": 64800,
      "d": 600,
      "v": 127
    },
    {
      "midi": 60,
      "hit": false,
      "t": 65400,
      "d": 600,
      "v": 127
    },
    {
      "midi": 53,
      "hit": false,
      "t": 66000,
      "d": 600,
      "v": 127
    },
    {
      "midi": 57,
      "hit": false,
      "t": 66000,
      "d": 600,
      "v": 127
    },
    {
      "midi": 60,
      "hit": false,
      "t": 66600,
      "d": 600,
      "v": 127
    },
    {
      "midi": 74,
      "hit": false,
      "t": 67200,
      "d": 1200,
      "v": 127
    },
    {
      "midi": 86,
      "hit": false,
      "t": 67200,
      "d": 1200,
      "v": 127
    },
    {
      "midi": 46,
      "hit": false,
      "t": 67200,
      "d": 600,
      "v": 127
    },
    {
      "midi": 62,
      "hit": false,
      "t": 67800,
      "d": 600,
      "v": 127
    },
    {
      "midi": 74,
      "hit": false,
      "t": 68400,
      "d": 600,
      "v": 127
    },
    {
      "midi": 86,
      "hit": false,
      "t": 68400,
      "d": 600,
      "v": 127
    },
    {
      "midi": 53,
      "hit": false,
      "t": 68400,
      "d": 600,
      "v": 127
    },
    {
      "midi": 58,
      "hit": false,
      "t": 68400,
      "d": 600,
      "v": 127
    },
    {
      "midi": 74,
      "hit": false,
      "t": 69000,
      "d": 600,
      "v": 127
    },
    {
      "midi": 86,
      "hit": false,
      "t": 69000,
      "d": 600,
      "v": 127
    },
    {
      "midi": 62,
      "hit": false,
      "t": 69000,
      "d": 600,
      "v": 127
    },
    {
      "midi": 79,
      "hit": false,
      "t": 69600,
      "d": 1200,
      "v": 127
    },
    {
      "midi": 91,
      "hit": false,
      "t": 69600,
      "d": 1200,
      "v": 127
    },
    {
      "midi": 40,
      "hit": false,
      "t": 69600,
      "d": 600,
      "v": 127
    },
    {
      "midi": 61,
      "hit": false,
      "t": 70200,
      "d": 600,
      "v": 127
    },
    {
      "midi": 91,
      "hit": false,
      "t": 70800,
      "d": 600,
      "v": 127
    },
    {
      "midi": 52,
      "hit": false,
      "t": 70800,
      "d": 600,
      "v": 127
    },
    {
      "midi": 55,
      "hit": false,
      "t": 70800,
      "d": 600,
      "v": 127
    },
    {
      "midi": 58,
      "hit": false,
      "t": 70800,
      "d": 600,
      "v": 127
    },
    {
      "midi": 82,
      "hit": false,
      "t": 71400,
      "d": 600,
      "v": 127
    },
    {
      "midi": 61,
      "hit": false,
      "t": 71400,
      "d": 600,
      "v": 127
    },
    {
      "midi": 84,
      "hit": false,
      "t": 72000,
      "d": 600,
      "v": 127
    },
    {
      "midi": 60,
      "hit": false,
      "t": 72000,
      "d": 600,
      "v": 127
    },
    {
      "midi": 81,
      "hit": false,
      "t": 72600,
      "d": 300,
      "v": 127
    },
    {
      "midi": 57,
      "hit": false,
      "t": 72600,
      "d": 300,
      "v": 127
    },
    {
      "midi": 79,
      "hit": false,
      "t": 72900,
      "d": 300,
      "v": 127
    },
    {
      "midi": 55,
      "hit": false,
      "t": 72900,
      "d": 300,
      "v": 127
    },
    {
      "midi": 81,
      "hit": false,
      "t": 73200,
      "d": 600,
      "v": 127
    },
    {
      "midi": 57,
      "hit": false,
      "t": 73200,
      "d": 600,
      "v": 127
    },
    {
      "midi": 75,
      "hit": false,
      "t": 73800,
      "d": 600,
      "v": 127
    },
    {
      "midi": 81,
      "hit": false,
      "t": 73800,
      "d": 600,
      "v": 127
    },
    {
      "midi": 89,
      "hit": false,
      "t": 73800,
      "d": 600,
      "v": 127
    },
    {
      "midi": 53,
      "hit": false,
      "t": 73800,
      "d": 600,
      "v": 127
    },
    {
      "midi": 60,
      "hit": false,
      "t": 73800,
      "d": 600,
      "v": 127
    },
    {
      "midi": 74,
      "hit": false,
      "t": 74400,
      "d": 2400,
      "v": 127
    },
    {
      "midi": 82,
      "hit": false,
      "t": 74400,
      "d": 2400,
      "v": 127
    },
    {
      "midi": 46,
      "hit": false,
      "t": 74400,
      "d": 600,
      "v": 127
    },
    {
      "midi": 58,
      "hit": false,
      "t": 75000,
      "d": 600,
      "v": 127
    },
    {
      "midi": 50,
      "hit": false,
      "t": 75600,
      "d": 600,
      "v": 127
    },
    {
      "midi": 53,
      "hit": false,
      "t": 75600,
      "d": 600,
      "v": 127
    },
    {
      "midi": 58,
      "hit": false,
      "t": 76200,
      "d": 600,
      "v": 127
    },
    {
      "midi": 66,
      "hit": false,
      "t": 76800,
      "d": 1200,
      "v": 127
    },
    {
      "midi": 69,
      "hit": false,
      "t": 76800,
      "d": 1200,
      "v": 127
    },
    {
      "midi": 74,
      "hit": false,
      "t": 76800,
      "d": 1200,
      "v": 127
    },
    {
      "midi": 38,
      "hit": false,
      "t": 76800,
      "d": 600,
      "v": 127
    },
    {
      "midi": 50,
      "hit": false,
      "t": 76800,
      "d": 600,
      "v": 127
    },
    {
      "midi": 62,
      "hit": false,
      "t": 77400,
      "d": 600,
      "v": 127
    },
    {
      "midi": 66,
      "hit": false,
      "t": 78000,
      "d": 600,
      "v": 127
    },
    {
      "midi": 69,
      "hit": false,
      "t": 78000,
      "d": 600,
      "v": 127
    },
    {
      "midi": 74,
      "hit": false,
      "t": 78000,
      "d": 600,
      "v": 127
    },
    {
      "midi": 54,
      "hit": false,
      "t": 78000,
      "d": 600,
      "v": 127
    },
    {
      "midi": 57,
      "hit": false,
      "t": 78000,
      "d": 600,
      "v": 127
    },
    {
      "midi": 66,
      "hit": false,
      "t": 78600,
      "d": 600,
      "v": 127
    },
    {
      "midi": 69,
      "hit": false,
      "t": 78600,
      "d": 600,
      "v": 127
    },
    {
      "midi": 74,
      "hit": false,
      "t": 78600,
      "d": 600,
      "v": 127
    },
    {
      "midi": 62,
      "hit": false,
      "t": 78600,
      "d": 600,
      "v": 127
    },
    {
      "midi": 62,
      "hit": false,
      "t": 79200,
      "d": 1200,
      "v": 127
    },
    {
      "midi": 67,
      "hit": false,
      "t": 79200,
      "d": 1200,
      "v": 127
    },
    {
      "midi": 70,
      "hit": false,
      "t": 79200,
      "d": 1200,
      "v": 127
    },
    {
      "midi": 43,
      "hit": false,
      "t": 79200,
      "d": 600,
      "v": 127
    },
    {
      "midi": 58,
      "hit": false,
      "t": 79800,
      "d": 600,
      "v": 127
    },
    {
      "midi": 62,
      "hit": false,
      "t": 80400,
      "d": 1200,
      "v": 127
    },
    {
      "midi": 67,
      "hit": false,
      "t": 80400,
      "d": 1200,
      "v": 127
    },
    {
      "midi": 70,
      "hit": false,
      "t": 80400,
      "d": 1200,
      "v": 127
    },
    {
      "midi": 50,
      "hit": false,
      "t": 80400,
      "d": 600,
      "v": 127
    },
    {
      "midi": 55,
      "hit": false,
      "t": 80400,
      "d": 600,
      "v": 127
    },
    {
      "midi": 58,
      "hit": false,
      "t": 81000,
      "d": 600,
      "v": 127
    },
    {
      "midi": 62,
      "hit": false,
      "t": 81600,
      "d": 1200,
      "v": 127
    },
    {
      "midi": 67,
      "hit": false,
      "t": 81600,
      "d": 1200,
      "v": 127
    },
    {
      "midi": 70,
      "hit": false,
      "t": 81600,
      "d": 1200,
      "v": 127
    },
    {
      "midi": 43,
      "hit": false,
      "t": 81600,
      "d": 600,
      "v": 127
    },
    {
      "midi": 58,
      "hit": false,
      "t": 82200,
      "d": 600,
      "v": 127
    },
    {
      "midi": 62,
      "hit": false,
      "t": 82800,
      "d": 600,
      "v": 127
    },
    {
      "midi": 69,
      "hit": false,
      "t": 82800,
      "d": 600,
      "v": 127
    },
    {
      "midi": 70,
      "hit": false,
      "t": 82800,
      "d": 600,
      "v": 127
    },
    {
      "midi": 72,
      "hit": false,
      "t": 82800,
      "d": 600,
      "v": 127
    },
    {
      "midi": 50,
      "hit": false,
      "t": 82800,
      "d": 600,
      "v": 127
    },
    {
      "midi": 55,
      "hit": false,
      "t": 82800,
      "d": 600,
      "v": 127
    },
    {
      "midi": 62,
      "hit": false,
      "t": 83400,
      "d": 600,
      "v": 127
    },
    {
      "midi": 67,
      "hit": false,
      "t": 83400,
      "d": 600,
      "v": 127
    },
    {
      "midi": 58,
      "hit": false,
      "t": 83400,
      "d": 600,
      "v": 127
    },
    {
      "midi": 72,
      "hit": false,
      "t": 84000,
      "d": 1800,
      "v": 127
    },
    {
      "midi": 36,
      "hit": false,
      "t": 84000,
      "d": 600,
      "v": 127
    },
    {
      "midi": 55,
      "hit": false,
      "t": 84600,
      "d": 600,
      "v": 127
    },
    {
      "midi": 48,
      "hit": false,
      "t": 85200,
      "d": 600,
      "v": 127
    },
    {
      "midi": 52,
      "hit": false,
      "t": 85200,
      "d": 600,
      "v": 127
    },
    {
      "midi": 70,
      "hit": false,
      "t": 85800,
      "d": 600,
      "v": 127
    },
    {
      "midi": 55,
      "hit": false,
      "t": 85800,
      "d": 600,
      "v": 127
    },
    {
      "midi": 60,
      "hit": false,
      "t": 86400,
      "d": 1200,
      "v": 127
    },
    {
      "midi": 65,
      "hit": false,
      "t": 86400,
      "d": 1200,
      "v": 127
    },
    {
      "midi": 69,
      "hit": false,
      "t": 86400,
      "d": 1200,
      "v": 127
    },
    {
      "midi": 41,
      "hit": false,
      "t": 86400,
      "d": 600,
      "v": 127
    },
    {
      "midi": 57,
      "hit": false,
      "t": 87000,
      "d": 600,
      "v": 127
    },
    {
      "midi": 60,
      "hit": false,
      "t": 87600,
      "d": 600,
      "v": 127
    },
    {
      "midi": 65,
      "hit": false,
      "t": 87600,
      "d": 600,
      "v": 127
    },
    {
      "midi": 69,
      "hit": false,
      "t": 87600,
      "d": 600,
      "v": 127
    },
    {
      "midi": 48,
      "hit": false,
      "t": 87600,
      "d": 600,
      "v": 127
    },
    {
      "midi": 53,
      "hit": false,
      "t": 87600,
      "d": 600,
      "v": 127
    },
    {
      "midi": 60,
      "hit": false,
      "t": 88200,
      "d": 600,
      "v": 127
    },
    {
      "midi": 65,
      "hit": false,
      "t": 88200,
      "d": 600,
      "v": 127
    },
    {
      "midi": 69,
      "hit": false,
      "t": 88200,
      "d": 600,
      "v": 127
    },
    {
      "midi": 57,
      "hit": false,
      "t": 88200,
      "d": 600,
      "v": 127
    },
    {
      "midi": 62,
      "hit": false,
      "t": 88800,
      "d": 1200,
      "v": 127
    },
    {
      "midi": 65,
      "hit": false,
      "t": 88800,
      "d": 1200,
      "v": 127
    },
    {
      "midi": 67,
      "hit": false,
      "t": 88800,
      "d": 1200,
      "v": 127
    },
    {
      "midi": 34,
      "hit": false,
      "t": 88800,
      "d": 600,
      "v": 127
    },
    {
      "midi": 55,
      "hit": false,
      "t": 89400,
      "d": 600,
      "v": 127
    },
    {
      "midi": 62,
      "hit": false,
      "t": 90000,
      "d": 1200,
      "v": 127
    },
    {
      "midi": 65,
      "hit": false,
      "t": 90000,
      "d": 1200,
      "v": 127
    },
    {
      "midi": 67,
      "hit": false,
      "t": 90000,
      "d": 1200,
      "v": 127
    },
    {
      "midi": 50,
      "hit": false,
      "t": 90000,
      "d": 600,
      "v": 127
    },
    {
      "midi": 53,
      "hit": false,
      "t": 90000,
      "d": 600,
      "v": 127
    },
    {
      "midi": 55,
      "hit": false,
      "t": 90600,
      "d": 600,
      "v": 127
    },
    {
      "midi": 67,
      "hit": false,
      "t": 91200,
      "d": 600,
      "v": 127
    },
    {
      "midi": 36,
      "hit": false,
      "t": 91200,
      "d": 600,
      "v": 127
    },
    {
      "midi": 69,
      "hit": false,
      "t": 91800,
      "d": 300,
      "v": 127
    },
    {
      "midi": 55,
      "hit": false,
      "t": 91800,
      "d": 600,
      "v": 127
    },
    {
      "midi": 70,
      "hit": false,
      "t": 92100,
      "d": 300,
      "v": 127
    },
    {
      "midi": 65,
      "hit": false,
      "t": 92400,
      "d": 600,
      "v": 127
    },
    {
      "midi": 69,
      "hit": false,
      "t": 92400,
      "d": 600,
      "v": 127
    },
    {
      "midi": 57,
      "hit": false,
      "t": 92400,
      "d": 600,
      "v": 127
    },
    {
      "midi": 64,
      "hit": false,
      "t": 93000,
      "d": 600,
      "v": 127
    },
    {
      "midi": 67,
      "hit": false,
      "t": 93000,
      "d": 600,
      "v": 127
    },
    {
      "midi": 58,
      "hit": false,
      "t": 93000,
      "d": 600,
      "v": 127
    },
    {
      "midi": 65,
      "hit": false,
      "t": 93600,
      "d": 600,
      "v": 127
    },
    {
      "midi": 41,
      "hit": false,
      "t": 93600,
      "d": 600,
      "v": 127
    },
    {
      "midi": 60,
      "hit": false,
      "t": 94200,
      "d": 600,
      "v": 127
    },
    {
      "midi": 57,
      "hit": false,
      "t": 94200,
      "d": 600,
      "v": 127
    },
    {
      "midi": 62,
      "hit": false,
      "t": 94800,
      "d": 600,
      "v": 127
    },
    {
      "midi": 58,
      "hit": false,
      "t": 94800,
      "d": 600,
      "v": 127
    },
    {
      "midi": 63,
      "hit": false,
      "t": 95400,
      "d": 600,
      "v": 127
    },
    {
      "midi": 60,
      "hit": false,
      "t": 95400,
      "d": 600,
      "v": 127
    },
    {
      "midi": 74,
      "hit": false,
      "t": 96000,
      "d": 1200,
      "v": 127
    },
    {
      "midi": 86,
      "hit": false,
      "t": 96000,
      "d": 1200,
      "v": 127
    },
    {
      "midi": 46,
      "hit": false,
      "t": 96000,
      "d": 600,
      "v": 127
    },
    {
      "midi": 62,
      "hit": false,
      "t": 96600,
      "d": 600,
      "v": 127
    },
    {
      "midi": 74,
      "hit": false,
      "t": 97200,
      "d": 600,
      "v": 127
    },
    {
      "midi": 86,
      "hit": false,
      "t": 97200,
      "d": 600,
      "v": 127
    },
    {
      "midi": 53,
      "hit": false,
      "t": 97200,
      "d": 600,
      "v": 127
    },
    {
      "midi": 58,
      "hit": false,
      "t": 97200,
      "d": 600,
      "v": 127
    },
    {
      "midi": 74,
      "hit": false,
      "t": 97800,
      "d": 600,
      "v": 127
    },
    {
      "midi": 86,
      "hit": false,
      "t": 97800,
      "d": 600,
      "v": 127
    },
    {
      "midi": 62,
      "hit": false,
      "t": 97800,
      "d": 600,
      "v": 127
    },
    {
      "midi": 70,
      "hit": false,
      "t": 98400,
      "d": 1200,
      "v": 127
    },
    {
      "midi": 82,
      "hit": false,
      "t": 98400,
      "d": 1200,
      "v": 127
    },
    {
      "midi": 50,
      "hit": false,
      "t": 98400,
      "d": 600,
      "v": 127
    },
    {
      "midi": 65,
      "hit": false,
      "t": 99000,
      "d": 600,
      "v": 127
    },
    {
      "midi": 70,
      "hit": false,
      "t": 99600,
      "d": 1200,
      "v": 127
    },
    {
      "midi": 82,
      "hit": false,
      "t": 99600,
      "d": 1200,
      "v": 127
    },
    {
      "midi": 56,
      "hit": false,
      "t": 99600,
      "d": 600,
      "v": 127
    },
    {
      "midi": 58,
      "hit": false,
      "t": 99600,
      "d": 600,
      "v": 127
    },
    {
      "midi": 65,
      "hit": false,
      "t": 100200,
      "d": 600,
      "v": 127
    },
    {
      "midi": 82,
      "hit": false,
      "t": 100800,
      "d": 900,
      "v": 127
    },
    {
      "midi": 51,
      "hit": false,
      "t": 100800,
      "d": 600,
      "v": 127
    },
    {
      "midi": 63,
      "hit": false,
      "t": 101400,
      "d": 600,
      "v": 127
    },
    {
      "midi": 82,
      "hit": false,
      "t": 101700,
      "d": 300,
      "v": 127
    },
    {
      "midi": 84,
      "hit": false,
      "t": 101700,
      "d": 300,
      "v": 127
    },
    {
      "midi": 81,
      "hit": false,
      "t": 102000,
      "d": 300,
      "v": 127
    },
    {
      "midi": 55,
      "hit": false,
      "t": 102000,
      "d": 600,
      "v": 127
    },
    {
      "midi": 58,
      "hit": false,
      "t": 102000,
      "d": 600,
      "v": 127
    },
    {
      "midi": 82,
      "hit": false,
      "t": 102300,
      "d": 300,
      "v": 127
    },
    {
      "midi": 84,
      "hit": false,
      "t": 102600,
      "d": 300,
      "v": 127
    },
    {
      "midi": 86,
      "hit": false,
      "t": 102600,
      "d": 300,
      "v": 127
    },
    {
      "midi": 63,
      "hit": false,
      "t": 102600,
      "d": 600,
      "v": 127
    },
    {
      "midi": 82,
      "hit": false,
      "t": 102900,
      "d": 300,
      "v": 127
    },
    {
      "midi": 79,
      "hit": false,
      "t": 103200,
      "d": 2400,
      "v": 127
    },
    {
      "midi": 91,
      "hit": false,
      "t": 103200,
      "d": 2400,
      "v": 127
    },
    {
      "midi": 52,
      "hit": false,
      "t": 103200,
      "d": 600,
      "v": 127
    },
    {
      "midi": 67,
      "hit": false,
      "t": 103800,
      "d": 600,
      "v": 127
    },
    {
      "midi": 58,
      "hit": false,
      "t": 104400,
      "d": 600,
      "v": 127
    },
    {
      "midi": 61,
      "hit": false,
      "t": 104400,
      "d": 600,
      "v": 127
    },
    {
      "midi": 67,
      "hit": false,
      "t": 105000,
      "d": 600,
      "v": 127
    },
    {
      "midi": 64,
      "hit": false,
      "t": 105600,
      "d": 1200,
      "v": 127
    },
    {
      "midi": 70,
      "hit": false,
      "t": 105600,
      "d": 1200,
      "v": 127
    },
    {
      "midi": 72,
      "hit": false,
      "t": 105600,
      "d": 1200,
      "v": 127
    },
    {
      "midi": 43,
      "hit": false,
      "t": 105600,
      "d": 600,
      "v": 127
    },
    {
      "midi": 60,
      "hit": false,
      "t": 106200,
      "d": 600,
      "v": 127
    },
    {
      "midi": 64,
      "hit": false,
      "t": 106800,
      "d": 600,
      "v": 127
    },
    {
      "midi": 70,
      "hit": false,
      "t": 106800,
      "d": 600,
      "v": 127
    },
    {
      "midi": 72,
      "hit": false,
      "t": 106800,
      "d": 600,
      "v": 127
    },
    {
      "midi": 55,
      "hit": false,
      "t": 106800,
      "d": 600,
      "v": 127
    },
    {
      "midi": 58,
      "hit": false,
      "t": 106800,
      "d": 600,
      "v": 127
    },
    {
      "midi": 64,
      "hit": false,
      "t": 107400,
      "d": 600,
      "v": 127
    },
    {
      "midi": 70,
      "hit": false,
      "t": 107400,
      "d": 600,
      "v": 127
    },
    {
      "midi": 72,
      "hit": false,
      "t": 107400,
      "d": 600,
      "v": 127
    },
    {
      "midi": 60,
      "hit": false,
      "t": 107400,
      "d": 600,
      "v": 127
    },
    {
      "midi": 65,
      "hit": false,
      "t": 108000,
      "d": 1200,
      "v": 127
    },
    {
      "midi": 70,
      "hit": false,
      "t": 108000,
      "d": 1200,
      "v": 127
    },
    {
      "midi": 74,
      "hit": false,
      "t": 108000,
      "d": 1200,
      "v": 127
    },
    {
      "midi": 77,
      "hit": false,
      "t": 108000,
      "d": 1200,
      "v": 127
    },
    {
      "midi": 41,
      "hit": false,
      "t": 108000,
      "d": 600,
      "v": 127
    },
    {
      "midi": 62,
      "hit": false,
      "t": 108600,
      "d": 600,
      "v": 127
    },
    {
      "midi": 65,
      "hit": false,
      "t": 109200,
      "d": 1200,
      "v": 127
    },
    {
      "midi": 70,
      "hit": false,
      "t": 109200,
      "d": 1200,
      "v": 127
    },
    {
      "midi": 74,
      "hit": false,
      "t": 109200,
      "d": 1200,
      "v": 127
    },
    {
      "midi": 77,
      "hit": false,
      "t": 109200,
      "d": 1200,
      "v": 127
    },
    {
      "midi": 53,
      "hit": false,
      "t": 109200,
      "d": 600,
      "v": 127
    },
    {
      "midi": 58,
      "hit": false,
      "t": 109200,
      "d": 600,
      "v": 127
    },
    {
      "midi": 62,
      "hit": false,
      "t": 109800,
      "d": 600,
      "v": 127
    },
    {
      "midi": 72,
      "hit": false,
      "t": 110400,
      "d": 600,
      "v": 127
    },
    {
      "midi": 41,
      "hit": false,
      "t": 110400,
      "d": 600,
      "v": 127
    },
    {
      "midi": 69,
      "hit": false,
      "t": 111000,
      "d": 300,
      "v": 127
    },
    {
      "midi": 60,
      "hit": false,
      "t": 111000,
      "d": 600,
      "v": 127
    },
    {
      "midi": 67,
      "hit": false,
      "t": 111300,
      "d": 300,
      "v": 127
    },
    {
      "midi": 69,
      "hit": false,
      "t": 111600,
      "d": 600,
      "v": 127
    },
    {
      "midi": 53,
      "hit": false,
      "t": 111600,
      "d": 600,
      "v": 127
    },
    {
      "midi": 63,
      "hit": false,
      "t": 112200,
      "d": 600,
      "v": 127
    },
    {
      "midi": 69,
      "hit": false,
      "t": 112200,
      "d": 600,
      "v": 127
    },
    {
      "midi": 77,
      "hit": false,
      "t": 112200,
      "d": 600,
      "v": 127
    },
    {
      "midi": 60,
      "hit": false,
      "t": 112200,
      "d": 600,
      "v": 127
    },
    {
      "midi": 62,
      "hit": false,
      "t": 112800,
      "d": 2400,
      "v": 127
    },
    {
      "midi": 70,
      "hit": false,
      "t": 112800,
      "d": 2400,
      "v": 127
    },
    {
      "midi": 46,
      "hit": false,
      "t": 112800,
      "d": 600,
      "v": 127
    },
    {
      "midi": 58,
      "hit": false,
      "t": 113400,
      "d": 600,
      "v": 127
    },
    {
      "midi": 50,
      "hit": false,
      "t": 114000,
      "d": 600,
      "v": 127
    },
    {
      "midi": 53,
      "hit": false,
      "t": 114000,
      "d": 600,
      "v": 127
    },
    {
      "midi": 58,
      "hit": false,
      "t": 114600,
      "d": 600,
      "v": 127
    },
    {
      "midi": 66,
      "hit": false,
      "t": 115200,
      "d": 1200,
      "v": 127
    },
    {
      "midi": 69,
      "hit": false,
      "t": 115200,
      "d": 1200,
      "v": 127
    },
    {
      "midi": 74,
      "hit": false,
      "t": 115200,
      "d": 1200,
      "v": 127
    },
    {
      "midi": 38,
      "hit": false,
      "t": 115200,
      "d": 600,
      "v": 127
    },
    {
      "midi": 50,
      "hit": false,
      "t": 115200,
      "d": 600,
      "v": 127
    },
    {
      "midi": 62,
      "hit": false,
      "t": 115800,
      "d": 600,
      "v": 127
    },
    {
      "midi": 66,
      "hit": false,
      "t": 116400,
      "d": 600,
      "v": 127
    },
    {
      "midi": 69,
      "hit": false,
      "t": 116400,
      "d": 600,
      "v": 127
    },
    {
      "midi": 74,
      "hit": false,
      "t": 116400,
      "d": 600,
      "v": 127
    },
    {
      "midi": 54,
      "hit": false,
      "t": 116400,
      "d": 600,
      "v": 127
    },
    {
      "midi": 57,
      "hit": false,
      "t": 116400,
      "d": 600,
      "v": 127
    },
    {
      "midi": 66,
      "hit": false,
      "t": 117000,
      "d": 600,
      "v": 127
    },
    {
      "midi": 69,
      "hit": false,
      "t": 117000,
      "d": 600,
      "v": 127
    },
    {
      "midi": 74,
      "hit": false,
      "t": 117000,
      "d": 600,
      "v": 127
    },
    {
      "midi": 62,
      "hit": false,
      "t": 117000,
      "d": 600,
      "v": 127
    },
    {
      "midi": 62,
      "hit": false,
      "t": 117600,
      "d": 1200,
      "v": 127
    },
    {
      "midi": 67,
      "hit": false,
      "t": 117600,
      "d": 1200,
      "v": 127
    },
    {
      "midi": 70,
      "hit": false,
      "t": 117600,
      "d": 1200,
      "v": 127
    },
    {
      "midi": 43,
      "hit": false,
      "t": 117600,
      "d": 600,
      "v": 127
    },
    {
      "midi": 58,
      "hit": false,
      "t": 118200,
      "d": 600,
      "v": 127
    },
    {
      "midi": 62,
      "hit": false,
      "t": 118800,
      "d": 1200,
      "v": 127
    },
    {
      "midi": 67,
      "hit": false,
      "t": 118800,
      "d": 1200,
      "v": 127
    },
    {
      "midi": 70,
      "hit": false,
      "t": 118800,
      "d": 1200,
      "v": 127
    },
    {
      "midi": 50,
      "hit": false,
      "t": 118800,
      "d": 600,
      "v": 127
    },
    {
      "midi": 55,
      "hit": false,
      "t": 118800,
      "d": 600,
      "v": 127
    },
    {
      "midi": 58,
      "hit": false,
      "t": 119400,
      "d": 600,
      "v": 127
    },
    {
      "midi": 62,
      "hit": false,
      "t": 120000,
      "d": 1200,
      "v": 127
    },
    {
      "midi": 67,
      "hit": false,
      "t": 120000,
      "d": 1200,
      "v": 127
    },
    {
      "midi": 70,
      "hit": false,
      "t": 120000,
      "d": 1200,
      "v": 127
    },
    {
      "midi": 43,
      "hit": false,
      "t": 120000,
      "d": 600,
      "v": 127
    },
    {
      "midi": 58,
      "hit": false,
      "t": 120600,
      "d": 600,
      "v": 127
    },
    {
      "midi": 62,
      "hit": false,
      "t": 121200,
      "d": 600,
      "v": 127
    },
    {
      "midi": 69,
      "hit": false,
      "t": 121200,
      "d": 600,
      "v": 127
    },
    {
      "midi": 70,
      "hit": false,
      "t": 121200,
      "d": 600,
      "v": 127
    },
    {
      "midi": 72,
      "hit": false,
      "t": 121200,
      "d": 600,
      "v": 127
    },
    {
      "midi": 50,
      "hit": false,
      "t": 121200,
      "d": 600,
      "v": 127
    },
    {
      "midi": 55,
      "hit": false,
      "t": 121200,
      "d": 600,
      "v": 127
    },
    {
      "midi": 62,
      "hit": false,
      "t": 121800,
      "d": 600,
      "v": 127
    },
    {
      "midi": 67,
      "hit": false,
      "t": 121800,
      "d": 600,
      "v": 127
    },
    {
      "midi": 58,
      "hit": false,
      "t": 121800,
      "d": 600,
      "v": 127
    },
    {
      "midi": 72,
      "hit": false,
      "t": 122400,
      "d": 1800,
      "v": 127
    },
    {
      "midi": 36,
      "hit": false,
      "t": 122400,
      "d": 600,
      "v": 127
    },
    {
      "midi": 55,
      "hit": false,
      "t": 123000,
      "d": 600,
      "v": 127
    },
    {
      "midi": 48,
      "hit": false,
      "t": 123600,
      "d": 600,
      "v": 127
    },
    {
      "midi": 52,
      "hit": false,
      "t": 123600,
      "d": 600,
      "v": 127
    },
    {
      "midi": 70,
      "hit": false,
      "t": 124200,
      "d": 600,
      "v": 127
    },
    {
      "midi": 55,
      "hit": false,
      "t": 124200,
      "d": 600,
      "v": 127
    },
    {
      "midi": 60,
      "hit": false,
      "t": 124800,
      "d": 1200,
      "v": 127
    },
    {
      "midi": 65,
      "hit": false,
      "t": 124800,
      "d": 1200,
      "v": 127
    },
    {
      "midi": 69,
      "hit": false,
      "t": 124800,
      "d": 1200,
      "v": 127
    },
    {
      "midi": 41,
      "hit": false,
      "t": 124800,
      "d": 600,
      "v": 127
    },
    {
      "midi": 57,
      "hit": false,
      "t": 125400,
      "d": 600,
      "v": 127
    },
    {
      "midi": 60,
      "hit": false,
      "t": 126000,
      "d": 600,
      "v": 127
    },
    {
      "midi": 65,
      "hit": false,
      "t": 126000,
      "d": 600,
      "v": 127
    },
    {
      "midi": 69,
      "hit": false,
      "t": 126000,
      "d": 600,
      "v": 127
    },
    {
      "midi": 48,
      "hit": false,
      "t": 126000,
      "d": 600,
      "v": 127
    },
    {
      "midi": 53,
      "hit": false,
      "t": 126000,
      "d": 600,
      "v": 127
    },
    {
      "midi": 60,
      "hit": false,
      "t": 126600,
      "d": 600,
      "v": 127
    },
    {
      "midi": 65,
      "hit": false,
      "t": 126600,
      "d": 600,
      "v": 127
    },
    {
      "midi": 69,
      "hit": false,
      "t": 126600,
      "d": 600,
      "v": 127
    },
    {
      "midi": 57,
      "hit": false,
      "t": 126600,
      "d": 600,
      "v": 127
    },
    {
      "midi": 62,
      "hit": false,
      "t": 127200,
      "d": 1200,
      "v": 127
    },
    {
      "midi": 65,
      "hit": false,
      "t": 127200,
      "d": 1200,
      "v": 127
    },
    {
      "midi": 67,
      "hit": false,
      "t": 127200,
      "d": 1200,
      "v": 127
    },
    {
      "midi": 34,
      "hit": false,
      "t": 127200,
      "d": 600,
      "v": 127
    },
    {
      "midi": 55,
      "hit": false,
      "t": 127800,
      "d": 600,
      "v": 127
    },
    {
      "midi": 62,
      "hit": false,
      "t": 128400,
      "d": 1200,
      "v": 127
    },
    {
      "midi": 65,
      "hit": false,
      "t": 128400,
      "d": 1200,
      "v": 127
    },
    {
      "midi": 67,
      "hit": false,
      "t": 128400,
      "d": 1200,
      "v": 127
    },
    {
      "midi": 50,
      "hit": false,
      "t": 128400,
      "d": 600,
      "v": 127
    },
    {
      "midi": 53,
      "hit": false,
      "t": 128400,
      "d": 600,
      "v": 127
    },
    {
      "midi": 55,
      "hit": false,
      "t": 129000,
      "d": 600,
      "v": 127
    },
    {
      "midi": 67,
      "hit": false,
      "t": 129600,
      "d": 600,
      "v": 127
    },
    {
      "midi": 36,
      "hit": false,
      "t": 129600,
      "d": 600,
      "v": 127
    },
    {
      "midi": 69,
      "hit": false,
      "t": 130200,
      "d": 300,
      "v": 127
    },
    {
      "midi": 55,
      "hit": false,
      "t": 130200,
      "d": 600,
      "v": 127
    },
    {
      "midi": 70,
      "hit": false,
      "t": 130500,
      "d": 300,
      "v": 127
    },
    {
      "midi": 65,
      "hit": false,
      "t": 130800,
      "d": 600,
      "v": 127
    },
    {
      "midi": 69,
      "hit": false,
      "t": 130800,
      "d": 600,
      "v": 127
    },
    {
      "midi": 57,
      "hit": false,
      "t": 130800,
      "d": 600,
      "v": 127
    },
    {
      "midi": 64,
      "hit": false,
      "t": 131400,
      "d": 600,
      "v": 127
    },
    {
      "midi": 67,
      "hit": false,
      "t": 131400,
      "d": 600,
      "v": 127
    },
    {
      "midi": 58,
      "hit": false,
      "t": 131400,
      "d": 600,
      "v": 127
    },
    {
      "midi": 65,
      "hit": false,
      "t": 132000,
      "d": 600,
      "v": 127
    },
    {
      "midi": 41,
      "hit": false,
      "t": 132000,
      "d": 600,
      "v": 127
    },
    {
      "midi": 60,
      "hit": false,
      "t": 132600,
      "d": 600,
      "v": 127
    },
    {
      "midi": 57,
      "hit": false,
      "t": 132600,
      "d": 600,
      "v": 127
    },
    {
      "midi": 62,
      "hit": false,
      "t": 133200,
      "d": 600,
      "v": 127
    },
    {
      "midi": 58,
      "hit": false,
      "t": 133200,
      "d": 600,
      "v": 127
    },
    {
      "midi": 63,
      "hit": false,
      "t": 133800,
      "d": 600,
      "v": 127
    },
    {
      "midi": 60,
      "hit": false,
      "t": 133800,
      "d": 600,
      "v": 127
    },
    {
      "midi": 74,
      "hit": false,
      "t": 134400,
      "d": 1200,
      "v": 127
    },
    {
      "midi": 86,
      "hit": false,
      "t": 134400,
      "d": 1200,
      "v": 127
    },
    {
      "midi": 46,
      "hit": false,
      "t": 134400,
      "d": 600,
      "v": 127
    },
    {
      "midi": 62,
      "hit": false,
      "t": 135000,
      "d": 600,
      "v": 127
    },
    {
      "midi": 74,
      "hit": false,
      "t": 135600,
      "d": 600,
      "v": 127
    },
    {
      "midi": 86,
      "hit": false,
      "t": 135600,
      "d": 600,
      "v": 127
    },
    {
      "midi": 53,
      "hit": false,
      "t": 135600,
      "d": 600,
      "v": 127
    },
    {
      "midi": 58,
      "hit": false,
      "t": 135600,
      "d": 600,
      "v": 127
    },
    {
      "midi": 74,
      "hit": false,
      "t": 136200,
      "d": 600,
      "v": 127
    },
    {
      "midi": 86,
      "hit": false,
      "t": 136200,
      "d": 600,
      "v": 127
    },
    {
      "midi": 62,
      "hit": false,
      "t": 136200,
      "d": 600,
      "v": 127
    },
    {
      "midi": 70,
      "hit": false,
      "t": 136800,
      "d": 1200,
      "v": 127
    },
    {
      "midi": 82,
      "hit": false,
      "t": 136800,
      "d": 1200,
      "v": 127
    },
    {
      "midi": 50,
      "hit": false,
      "t": 136800,
      "d": 600,
      "v": 127
    },
    {
      "midi": 65,
      "hit": false,
      "t": 137400,
      "d": 600,
      "v": 127
    },
    {
      "midi": 70,
      "hit": false,
      "t": 138000,
      "d": 1200,
      "v": 127
    },
    {
      "midi": 82,
      "hit": false,
      "t": 138000,
      "d": 1200,
      "v": 127
    },
    {
      "midi": 56,
      "hit": false,
      "t": 138000,
      "d": 600,
      "v": 127
    },
    {
      "midi": 58,
      "hit": false,
      "t": 138000,
      "d": 600,
      "v": 127
    },
    {
      "midi": 65,
      "hit": false,
      "t": 138600,
      "d": 600,
      "v": 127
    },
    {
      "midi": 82,
      "hit": false,
      "t": 139200,
      "d": 900,
      "v": 127
    },
    {
      "midi": 51,
      "hit": false,
      "t": 139200,
      "d": 600,
      "v": 127
    },
    {
      "midi": 63,
      "hit": false,
      "t": 139800,
      "d": 600,
      "v": 127
    },
    {
      "midi": 82,
      "hit": false,
      "t": 140100,
      "d": 300,
      "v": 127
    },
    {
      "midi": 84,
      "hit": false,
      "t": 140100,
      "d": 300,
      "v": 127
    },
    {
      "midi": 81,
      "hit": false,
      "t": 140400,
      "d": 300,
      "v": 127
    },
    {
      "midi": 55,
      "hit": false,
      "t": 140400,
      "d": 600,
      "v": 127
    },
    {
      "midi": 58,
      "hit": false,
      "t": 140400,
      "d": 600,
      "v": 127
    },
    {
      "midi": 82,
      "hit": false,
      "t": 140700,
      "d": 300,
      "v": 127
    },
    {
      "midi": 84,
      "hit": false,
      "t": 141000,
      "d": 300,
      "v": 127
    },
    {
      "midi": 86,
      "hit": false,
      "t": 141000,
      "d": 300,
      "v": 127
    },
    {
      "midi": 63,
      "hit": false,
      "t": 141000,
      "d": 600,
      "v": 127
    },
    {
      "midi": 82,
      "hit": false,
      "t": 141300,
      "d": 300,
      "v": 127
    },
    {
      "midi": 79,
      "hit": false,
      "t": 141600,
      "d": 2400,
      "v": 127
    },
    {
      "midi": 91,
      "hit": false,
      "t": 141600,
      "d": 2400,
      "v": 127
    },
    {
      "midi": 52,
      "hit": false,
      "t": 141600,
      "d": 600,
      "v": 127
    },
    {
      "midi": 67,
      "hit": false,
      "t": 142200,
      "d": 600,
      "v": 127
    },
    {
      "midi": 58,
      "hit": false,
      "t": 142800,
      "d": 600,
      "v": 127
    },
    {
      "midi": 61,
      "hit": false,
      "t": 142800,
      "d": 600,
      "v": 127
    },
    {
      "midi": 67,
      "hit": false,
      "t": 143400,
      "d": 600,
      "v": 127
    },
    {
      "midi": 64,
      "hit": false,
      "t": 144000,
      "d": 1200,
      "v": 127
    },
    {
      "midi": 70,
      "hit": false,
      "t": 144000,
      "d": 1200,
      "v": 127
    },
    {
      "midi": 72,
      "hit": false,
      "t": 144000,
      "d": 1200,
      "v": 127
    },
    {
      "midi": 43,
      "hit": false,
      "t": 144000,
      "d": 600,
      "v": 127
    },
    {
      "midi": 60,
      "hit": false,
      "t": 144600,
      "d": 600,
      "v": 127
    },
    {
      "midi": 64,
      "hit": false,
      "t": 145200,
      "d": 600,
      "v": 127
    },
    {
      "midi": 70,
      "hit": false,
      "t": 145200,
      "d": 600,
      "v": 127
    },
    {
      "midi": 72,
      "hit": false,
      "t": 145200,
      "d": 600,
      "v": 127
    },
    {
      "midi": 55,
      "hit": false,
      "t": 145200,
      "d": 600,
      "v": 127
    },
    {
      "midi": 58,
      "hit": false,
      "t": 145200,
      "d": 600,
      "v": 127
    },
    {
      "midi": 64,
      "hit": false,
      "t": 145800,
      "d": 600,
      "v": 127
    },
    {
      "midi": 70,
      "hit": false,
      "t": 145800,
      "d": 600,
      "v": 127
    },
    {
      "midi": 72,
      "hit": false,
      "t": 145800,
      "d": 600,
      "v": 127
    },
    {
      "midi": 60,
      "hit": false,
      "t": 145800,
      "d": 600,
      "v": 127
    },
    {
      "midi": 65,
      "hit": false,
      "t": 146400,
      "d": 1200,
      "v": 127
    },
    {
      "midi": 70,
      "hit": false,
      "t": 146400,
      "d": 1200,
      "v": 127
    },
    {
      "midi": 74,
      "hit": false,
      "t": 146400,
      "d": 1200,
      "v": 127
    },
    {
      "midi": 77,
      "hit": false,
      "t": 146400,
      "d": 1200,
      "v": 127
    },
    {
      "midi": 41,
      "hit": false,
      "t": 146400,
      "d": 600,
      "v": 127
    },
    {
      "midi": 62,
      "hit": false,
      "t": 147000,
      "d": 600,
      "v": 127
    },
    {
      "midi": 65,
      "hit": false,
      "t": 147600,
      "d": 1200,
      "v": 127
    },
    {
      "midi": 70,
      "hit": false,
      "t": 147600,
      "d": 1200,
      "v": 127
    },
    {
      "midi": 74,
      "hit": false,
      "t": 147600,
      "d": 1200,
      "v": 127
    },
    {
      "midi": 77,
      "hit": false,
      "t": 147600,
      "d": 1200,
      "v": 127
    },
    {
      "midi": 53,
      "hit": false,
      "t": 147600,
      "d": 600,
      "v": 127
    },
    {
      "midi": 58,
      "hit": false,
      "t": 147600,
      "d": 600,
      "v": 127
    },
    {
      "midi": 62,
      "hit": false,
      "t": 148200,
      "d": 600,
      "v": 127
    },
    {
      "midi": 72,
      "hit": false,
      "t": 148800,
      "d": 600,
      "v": 127
    },
    {
      "midi": 41,
      "hit": false,
      "t": 148800,
      "d": 600,
      "v": 127
    },
    {
      "midi": 69,
      "hit": false,
      "t": 149400,
      "d": 300,
      "v": 127
    },
    {
      "midi": 60,
      "hit": false,
      "t": 149400,
      "d": 600,
      "v": 127
    },
    {
      "midi": 67,
      "hit": false,
      "t": 149700,
      "d": 300,
      "v": 127
    },
    {
      "midi": 69,
      "hit": false,
      "t": 150000,
      "d": 600,
      "v": 127
    },
    {
      "midi": 53,
      "hit": false,
      "t": 150000,
      "d": 600,
      "v": 127
    },
    {
      "midi": 63,
      "hit": false,
      "t": 150600,
      "d": 600,
      "v": 127
    },
    {
      "midi": 69,
      "hit": false,
      "t": 150600,
      "d": 600,
      "v": 127
    },
    {
      "midi": 77,
      "hit": false,
      "t": 150600,
      "d": 600,
      "v": 127
    },
    {
      "midi": 60,
      "hit": false,
      "t": 150600,
      "d": 600,
      "v": 127
    },
    {
      "midi": 62,
      "hit": false,
      "t": 151200,
      "d": 2400,
      "v": 127
    },
    {
      "midi": 70,
      "hit": false,
      "t": 151200,
      "d": 2400,
      "v": 127
    },
    {
      "midi": 46,
      "hit": false,
      "t": 151200,
      "d": 600,
      "v": 127
    },
    {
      "midi": 58,
      "hit": false,
      "t": 151800,
      "d": 600,
      "v": 127
    },
    {
      "midi": 50,
      "hit": false,
      "t": 152400,
      "d": 600,
      "v": 127
    },
    {
      "midi": 53,
      "hit": false,
      "t": 152400,
      "d": 600,
      "v": 127
    },
    {
      "midi": 58,
      "hit": false,
      "t": 153000,
      "d": 600,
      "v": 127
    },
    {
      "midi": 72,
      "hit": false,
      "t": 153600,
      "d": 600,
      "v": 127
    },
    {
      "midi": 41,
      "hit": false,
      "t": 153600,
      "d": 600,
      "v": 127
    },
    {
      "midi": 69,
      "hit": false,
      "t": 154200,
      "d": 300,
      "v": 127
    },
    {
      "midi": 60,
      "hit": false,
      "t": 154200,
      "d": 600,
      "v": 127
    },
    {
      "midi": 67,
      "hit": false,
      "t": 154500,
      "d": 300,
      "v": 127
    },
    {
      "midi": 69,
      "hit": false,
      "t": 154800,
      "d": 600,
      "v": 127
    },
    {
      "midi": 53,
      "hit": false,
      "t": 154800,
      "d": 600,
      "v": 127
    },
    {
      "midi": 63,
      "hit": false,
      "t": 155400,
      "d": 600,
      "v": 127
    },
    {
      "midi": 69,
      "hit": false,
      "t": 155400,
      "d": 600,
      "v": 127
    },
    {
      "midi": 77,
      "hit": false,
      "t": 155400,
      "d": 600,
      "v": 127
    },
    {
      "midi": 60,
      "hit": false,
      "t": 155400,
      "d": 600,
      "v": 127
    },
    {
      "midi": 62,
      "hit": false,
      "t": 156000,
      "d": 1800,
      "v": 127
    },
    {
      "midi": 70,
      "hit": false,
      "t": 156000,
      "d": 1800,
      "v": 127
    },
    {
      "midi": 46,
      "hit": false,
      "t": 156000,
      "d": 600,
      "v": 127
    },
    {
      "midi": 58,
      "hit": false,
      "t": 156600,
      "d": 600,
      "v": 127
    },
    {
      "midi": 53,
      "hit": false,
      "t": 157200,
      "d": 600,
      "v": 127
    },
    {
      "midi": 58,
      "hit": false,
      "t": 157800,
      "d": 600,
      "v": 127
    },
    {
      "midi": 50,
      "hit": false,
      "t": 157800,
      "d": 600,
      "v": 127
    },
    {
      "midi": 60,
      "hit": false,
      "t": 158400,
      "d": 600,
      "v": 127
    },
    {
      "midi": 29,
      "hit": false,
      "t": 158400,
      "d": 600,
      "v": 127
    },
    {
      "midi": 57,
      "hit": false,
      "t": 159000,
      "d": 300,
      "v": 127
    },
    {
      "midi": 48,
      "hit": false,
      "t": 159000,
      "d": 600,
      "v": 127
    },
    {
      "midi": 55,
      "hit": false,
      "t": 159300,
      "d": 300,
      "v": 127
    },
    {
      "midi": 57,
      "hit": false,
      "t": 159600,
      "d": 600,
      "v": 127
    },
    {
      "midi": 41,
      "hit": false,
      "t": 159600,
      "d": 600,
      "v": 127
    },
    {
      "midi": 65,
      "hit": false,
      "t": 160200,
      "d": 600,
      "v": 127
    },
    {
      "midi": 48,
      "hit": false,
      "t": 160200,
      "d": 600,
      "v": 127
    },
    {
      "midi": 51,
      "hit": false,
      "t": 160200,
      "d": 600,
      "v": 127
    },
    {
      "midi": 57,
      "hit": false,
      "t": 160200,
      "d": 600,
      "v": 127
    },
    {
      "midi": 34,
      "hit": false,
      "t": 160800,
      "d": 2400,
      "v": 127
    },
    {
      "midi": 41,
      "hit": false,
      "t": 160800,
      "d": 2400,
      "v": 127
    },
    {
      "midi": 46,
      "hit": false,
      "t": 160800,
      "d": 2400,
      "v": 127
    },
    {
      "midi": 50,
      "hit": false,
      "t": 160800,
      "d": 2400,
      "v": 127
    },
    {
      "midi": 58,
      "hit": false,
      "t": 160800,
      "d": 2400,
      "v": 127
    },
    {
      "midi": 74,
      "hit": false,
      "t": 163200,
      "d": 300,
      "v": 127
    },
    {
      "midi": 46,
      "hit": false,
      "t": 163200,
      "d": 600,
      "v": 127
    },
    {
      "midi": 62,
      "hit": false,
      "t": 163500,
      "d": 300,
      "v": 127
    },
    {
      "midi": 65,
      "hit": false,
      "t": 163800,
      "d": 300,
      "v": 127
    },
    {
      "midi": 53,
      "hit": false,
      "t": 163800,
      "d": 1200,
      "v": 127
    },
    {
      "midi": 74,
      "hit": false,
      "t": 164100,
      "d": 300,
      "v": 127
    },
    {
      "midi": 74,
      "hit": false,
      "t": 164400,
      "d": 300,
      "v": 127
    },
    {
      "midi": 62,
      "hit": false,
      "t": 164700,
      "d": 300,
      "v": 127
    },
    {
      "midi": 65,
      "hit": false,
      "t": 165000,
      "d": 300,
      "v": 127
    },
    {
      "midi": 53,
      "hit": false,
      "t": 165000,
      "d": 600,
      "v": 127
    },
    {
      "midi": 74,
      "hit": false,
      "t": 165300,
      "d": 300,
      "v": 127
    },
    {
      "midi": 72,
      "hit": false,
      "t": 165600,
      "d": 300,
      "v": 127
    },
    {
      "midi": 50,
      "hit": false,
      "t": 165600,
      "d": 600,
      "v": 127
    },
    {
      "midi": 62,
      "hit": false,
      "t": 165900,
      "d": 300,
      "v": 127
    },
    {
      "midi": 65,
      "hit": false,
      "t": 166200,
      "d": 300,
      "v": 127
    },
    {
      "midi": 53,
      "hit": false,
      "t": 166200,
      "d": 1200,
      "v": 127
    },
    {
      "midi": 70,
      "hit": false,
      "t": 166500,
      "d": 300,
      "v": 127
    },
    {
      "midi": 70,
      "hit": false,
      "t": 166800,
      "d": 300,
      "v": 127
    },
    {
      "midi": 62,
      "hit": false,
      "t": 167100,
      "d": 300,
      "v": 127
    },
    {
      "midi": 65,
      "hit": false,
      "t": 167400,
      "d": 300,
      "v": 127
    },
    {
      "midi": 53,
      "hit": false,
      "t": 167400,
      "d": 600,
      "v": 127
    },
    {
      "midi": 72,
      "hit": false,
      "t": 167700,
      "d": 300,
      "v": 127
    },
    {
      "midi": 70,
      "hit": false,
      "t": 168000,
      "d": 300,
      "v": 127
    },
    {
      "midi": 48,
      "hit": false,
      "t": 168000,
      "d": 600,
      "v": 127
    },
    {
      "midi": 63,
      "hit": false,
      "t": 168300,
      "d": 300,
      "v": 127
    },
    {
      "midi": 65,
      "hit": false,
      "t": 168600,
      "d": 300,
      "v": 127
    },
    {
      "midi": 53,
      "hit": false,
      "t": 168600,
      "d": 1200,
      "v": 127
    },
    {
      "midi": 69,
      "hit": false,
      "t": 168900,
      "d": 300,
      "v": 127
    },
    {
      "midi": 72,
      "hit": false,
      "t": 169200,
      "d": 300,
      "v": 127
    },
    {
      "midi": 65,
      "hit": false,
      "t": 169500,
      "d": 300,
      "v": 127
    },
    {
      "midi": 69,
      "hit": false,
      "t": 169800,
      "d": 300,
      "v": 127
    },
    {
      "midi": 53,
      "hit": false,
      "t": 169800,
      "d": 600,
      "v": 127
    },
    {
      "midi": 74,
      "hit": false,
      "t": 170100,
      "d": 300,
      "v": 127
    },
    {
      "midi": 75,
      "hit": false,
      "t": 170400,
      "d": 300,
      "v": 127
    },
    {
      "midi": 41,
      "hit": false,
      "t": 170400,
      "d": 600,
      "v": 127
    },
    {
      "midi": 69,
      "hit": false,
      "t": 170700,
      "d": 300,
      "v": 127
    },
    {
      "midi": 72,
      "hit": false,
      "t": 171000,
      "d": 300,
      "v": 127
    },
    {
      "midi": 53,
      "hit": false,
      "t": 171000,
      "d": 1200,
      "v": 127
    },
    {
      "midi": 78,
      "hit": false,
      "t": 171300,
      "d": 300,
      "v": 127
    },
    {
      "midi": 79,
      "hit": false,
      "t": 171600,
      "d": 300,
      "v": 127
    },
    {
      "midi": 69,
      "hit": false,
      "t": 171900,
      "d": 300,
      "v": 127
    },
    {
      "midi": 72,
      "hit": false,
      "t": 172200,
      "d": 300,
      "v": 127
    },
    {
      "midi": 53,
      "hit": false,
      "t": 172200,
      "d": 600,
      "v": 127
    },
    {
      "midi": 75,
      "hit": false,
      "t": 172500,
      "d": 300,
      "v": 127
    },
    {
      "midi": 74,
      "hit": false,
      "t": 172800,
      "d": 300,
      "v": 127
    },
    {
      "midi": 50,
      "hit": false,
      "t": 172800,
      "d": 600,
      "v": 127
    },
    {
      "midi": 66,
      "hit": false,
      "t": 173100,
      "d": 300,
      "v": 127
    },
    {
      "midi": 69,
      "hit": false,
      "t": 173400,
      "d": 300,
      "v": 127
    },
    {
      "midi": 57,
      "hit": false,
      "t": 173400,
      "d": 1200,
      "v": 127
    },
    {
      "midi": 75,
      "hit": false,
      "t": 173700,
      "d": 300,
      "v": 127
    },
    {
      "midi": 74,
      "hit": false,
      "t": 174000,
      "d": 300,
      "v": 127
    },
    {
      "midi": 66,
      "hit": false,
      "t": 174300,
      "d": 300,
      "v": 127
    },
    {
      "midi": 69,
      "hit": false,
      "t": 174600,
      "d": 300,
      "v": 127
    },
    {
      "midi": 57,
      "hit": false,
      "t": 174600,
      "d": 600,
      "v": 127
    },
    {
      "midi": 72,
      "hit": false,
      "t": 174900,
      "d": 300,
      "v": 127
    },
    {
      "midi": 72,
      "hit": false,
      "t": 175200,
      "d": 300,
      "v": 127
    },
    {
      "midi": 50,
      "hit": false,
      "t": 175200,
      "d": 600,
      "v": 127
    },
    {
      "midi": 65,
      "hit": false,
      "t": 175500,
      "d": 300,
      "v": 127
    },
    {
      "midi": 68,
      "hit": false,
      "t": 175800,
      "d": 300,
      "v": 127
    },
    {
      "midi": 56,
      "hit": false,
      "t": 175800,
      "d": 1200,
      "v": 127
    },
    {
      "midi": 72,
      "hit": false,
      "t": 176100,
      "d": 300,
      "v": 127
    },
    {
      "midi": 71,
      "hit": false,
      "t": 176400,
      "d": 300,
      "v": 127
    },
    {
      "midi": 65,
      "hit": false,
      "t": 176700,
      "d": 300,
      "v": 127
    },
    {
      "midi": 68,
      "hit": false,
      "t": 177000,
      "d": 300,
      "v": 127
    },
    {
      "midi": 56,
      "hit": false,
      "t": 177000,
      "d": 600,
      "v": 127
    },
    {
      "midi": 71,
      "hit": false,
      "t": 177300,
      "d": 300,
      "v": 127
    },
    {
      "midi": 71,
      "hit": false,
      "t": 177600,
      "d": 300,
      "v": 127
    },
    {
      "midi": 51,
      "hit": false,
      "t": 177600,
      "d": 600,
      "v": 127
    },
    {
      "midi": 63,
      "hit": false,
      "t": 177900,
      "d": 300,
      "v": 127
    },
    {
      "midi": 67,
      "hit": false,
      "t": 178200,
      "d": 300,
      "v": 127
    },
    {
      "midi": 55,
      "hit": false,
      "t": 178200,
      "d": 1200,
      "v": 127
    },
    {
      "midi": 72,
      "hit": false,
      "t": 178500,
      "d": 300,
      "v": 127
    },
    {
      "midi": 75,
      "hit": false,
      "t": 178800,
      "d": 300,
      "v": 127
    },
    {
      "midi": 63,
      "hit": false,
      "t": 179100,
      "d": 300,
      "v": 127
    },
    {
      "midi": 66,
      "hit": false,
      "t": 179400,
      "d": 300,
      "v": 127
    },
    {
      "midi": 54,
      "hit": false,
      "t": 179400,
      "d": 600,
      "v": 127
    },
    {
      "midi": 72,
      "hit": false,
      "t": 179700,
      "d": 300,
      "v": 127
    },
    {
      "midi": 71,
      "hit": false,
      "t": 180000,
      "d": 300,
      "v": 127
    },
    {
      "midi": 41,
      "hit": false,
      "t": 180000,
      "d": 600,
      "v": 127
    },
    {
      "midi": 60,
      "hit": false,
      "t": 180300,
      "d": 300,
      "v": 127
    },
    {
      "midi": 65,
      "hit": false,
      "t": 180600,
      "d": 300,
      "v": 127
    },
    {
      "midi": 53,
      "hit": false,
      "t": 180600,
      "d": 1200,
      "v": 127
    },
    {
      "midi": 71,
      "hit": false,
      "t": 180900,
      "d": 300,
      "v": 127
    },
    {
      "midi": 69,
      "hit": false,
      "t": 181200,
      "d": 300,
      "v": 127
    },
    {
      "midi": 60,
      "hit": false,
      "t": 181500,
      "d": 300,
      "v": 127
    },
    {
      "midi": 65,
      "hit": false,
      "t": 181800,
      "d": 300,
      "v": 127
    },
    {
      "midi": 53,
      "hit": false,
      "t": 181800,
      "d": 600,
      "v": 127
    },
    {
      "midi": 69,
      "hit": false,
      "t": 182100,
      "d": 300,
      "v": 127
    },
    {
      "midi": 74,
      "hit": false,
      "t": 182400,
      "d": 300,
      "v": 127
    },
    {
      "midi": 46,
      "hit": false,
      "t": 182400,
      "d": 600,
      "v": 127
    },
    {
      "midi": 62,
      "hit": false,
      "t": 182700,
      "d": 300,
      "v": 127
    },
    {
      "midi": 65,
      "hit": false,
      "t": 183000,
      "d": 300,
      "v": 127
    },
    {
      "midi": 53,
      "hit": false,
      "t": 183000,
      "d": 1200,
      "v": 127
    },
    {
      "midi": 74,
      "hit": false,
      "t": 183300,
      "d": 300,
      "v": 127
    },
    {
      "midi": 74,
      "hit": false,
      "t": 183600,
      "d": 300,
      "v": 127
    },
    {
      "midi": 62,
      "hit": false,
      "t": 183900,
      "d": 300,
      "v": 127
    },
    {
      "midi": 65,
      "hit": false,
      "t": 184200,
      "d": 300,
      "v": 127
    },
    {
      "midi": 53,
      "hit": false,
      "t": 184200,
      "d": 600,
      "v": 127
    },
    {
      "midi": 74,
      "hit": false,
      "t": 184500,
      "d": 300,
      "v": 127
    },
    {
      "midi": 72,
      "hit": false,
      "t": 184800,
      "d": 300,
      "v": 127
    },
    {
      "midi": 50,
      "hit": false,
      "t": 184800,
      "d": 600,
      "v": 127
    },
    {
      "midi": 62,
      "hit": false,
      "t": 185100,
      "d": 300,
      "v": 127
    },
    {
      "midi": 65,
      "hit": false,
      "t": 185400,
      "d": 300,
      "v": 127
    },
    {
      "midi": 53,
      "hit": false,
      "t": 185400,
      "d": 1200,
      "v": 127
    },
    {
      "midi": 70,
      "hit": false,
      "t": 185700,
      "d": 300,
      "v": 127
    },
    {
      "midi": 70,
      "hit": false,
      "t": 186000,
      "d": 300,
      "v": 127
    },
    {
      "midi": 62,
      "hit": false,
      "t": 186300,
      "d": 300,
      "v": 127
    },
    {
      "midi": 65,
      "hit": false,
      "t": 186600,
      "d": 300,
      "v": 127
    },
    {
      "midi": 53,
      "hit": false,
      "t": 186600,
      "d": 600,
      "v": 127
    },
    {
      "midi": 72,
      "hit": false,
      "t": 186900,
      "d": 300,
      "v": 127
    },
    {
      "midi": 70,
      "hit": false,
      "t": 187200,
      "d": 300,
      "v": 127
    },
    {
      "midi": 48,
      "hit": false,
      "t": 187200,
      "d": 600,
      "v": 127
    },
    {
      "midi": 63,
      "hit": false,
      "t": 187500,
      "d": 300,
      "v": 127
    },
    {
      "midi": 65,
      "hit": false,
      "t": 187800,
      "d": 300,
      "v": 127
    },
    {
      "midi": 53,
      "hit": false,
      "t": 187800,
      "d": 1200,
      "v": 127
    },
    {
      "midi": 69,
      "hit": false,
      "t": 188100,
      "d": 300,
      "v": 127
    },
    {
      "midi": 72,
      "hit": false,
      "t": 188400,
      "d": 300,
      "v": 127
    },
    {
      "midi": 65,
      "hit": false,
      "t": 188700,
      "d": 300,
      "v": 127
    },
    {
      "midi": 69,
      "hit": false,
      "t": 189000,
      "d": 300,
      "v": 127
    },
    {
      "midi": 53,
      "hit": false,
      "t": 189000,
      "d": 600,
      "v": 127
    },
    {
      "midi": 74,
      "hit": false,
      "t": 189300,
      "d": 300,
      "v": 127
    },
    {
      "midi": 75,
      "hit": false,
      "t": 189600,
      "d": 300,
      "v": 127
    },
    {
      "midi": 41,
      "hit": false,
      "t": 189600,
      "d": 600,
      "v": 127
    },
    {
      "midi": 69,
      "hit": false,
      "t": 189900,
      "d": 300,
      "v": 127
    },
    {
      "midi": 72,
      "hit": false,
      "t": 190200,
      "d": 300,
      "v": 127
    },
    {
      "midi": 53,
      "hit": false,
      "t": 190200,
      "d": 1200,
      "v": 127
    },
    {
      "midi": 78,
      "hit": false,
      "t": 190500,
      "d": 300,
      "v": 127
    },
    {
      "midi": 79,
      "hit": false,
      "t": 190800,
      "d": 300,
      "v": 127
    },
    {
      "midi": 69,
      "hit": false,
      "t": 191100,
      "d": 300,
      "v": 127
    },
    {
      "midi": 72,
      "hit": false,
      "t": 191400,
      "d": 300,
      "v": 127
    },
    {
      "midi": 53,
      "hit": false,
      "t": 191400,
      "d": 600,
      "v": 127
    },
    {
      "midi": 75,
      "hit": false,
      "t": 191700,
      "d": 300,
      "v": 127
    },
    {
      "midi": 74,
      "hit": false,
      "t": 192000,
      "d": 300,
      "v": 127
    },
    {
      "midi": 46,
      "hit": false,
      "t": 192000,
      "d": 600,
      "v": 127
    },
    {
      "midi": 62,
      "hit": false,
      "t": 192300,
      "d": 300,
      "v": 127
    },
    {
      "midi": 65,
      "hit": false,
      "t": 192600,
      "d": 300,
      "v": 127
    },
    {
      "midi": 53,
      "hit": false,
      "t": 192600,
      "d": 1200,
      "v": 127
    },
    {
      "midi": 69,
      "hit": false,
      "t": 192900,
      "d": 300,
      "v": 127
    },
    {
      "midi": 70,
      "hit": false,
      "t": 193200,
      "d": 300,
      "v": 127
    },
    {
      "midi": 62,
      "hit": false,
      "t": 193500,
      "d": 300,
      "v": 127
    },
    {
      "midi": 65,
      "hit": false,
      "t": 193800,
      "d": 300,
      "v": 127
    },
    {
      "midi": 58,
      "hit": false,
      "t": 193800,
      "d": 600,
      "v": 127
    },
    {
      "midi": 72,
      "hit": false,
      "t": 194100,
      "d": 300,
      "v": 127
    },
    {
      "midi": 73,
      "hit": false,
      "t": 194400,
      "d": 300,
      "v": 127
    },
    {
      "midi": 52,
      "hit": false,
      "t": 194400,
      "d": 600,
      "v": 127
    },
    {
      "midi": 67,
      "hit": false,
      "t": 194700,
      "d": 300,
      "v": 127
    },
    {
      "midi": 70,
      "hit": false,
      "t": 195000,
      "d": 300,
      "v": 127
    },
    {
      "midi": 58,
      "hit": false,
      "t": 195000,
      "d": 1200,
      "v": 127
    },
    {
      "midi": 61,
      "hit": false,
      "t": 195000,
      "d": 1200,
      "v": 127
    },
    {
      "midi": 79,
      "hit": false,
      "t": 195300,
      "d": 300,
      "v": 127
    },
    {
      "midi": 81,
      "hit": false,
      "t": 195600,
      "d": 300,
      "v": 127
    },
    {
      "midi": 70,
      "hit": false,
      "t": 195900,
      "d": 300,
      "v": 127
    },
    {
      "midi": 73,
      "hit": false,
      "t": 196200,
      "d": 300,
      "v": 127
    },
    {
      "midi": 58,
      "hit": false,
      "t": 196200,
      "d": 600,
      "v": 127
    },
    {
      "midi": 61,
      "hit": false,
      "t": 196200,
      "d": 600,
      "v": 127
    },
    {
      "midi": 82,
      "hit": false,
      "t": 196500,
      "d": 300,
      "v": 127
    },
    {
      "midi": 72,
      "hit": false,
      "t": 196800,
      "d": 300,
      "v": 127
    },
    {
      "midi": 53,
      "hit": false,
      "t": 196800,
      "d": 600,
      "v": 127
    },
    {
      "midi": 65,
      "hit": false,
      "t": 197100,
      "d": 300,
      "v": 127
    },
    {
      "midi": 70,
      "hit": false,
      "t": 197400,
      "d": 300,
      "v": 127
    },
    {
      "midi": 60,
      "hit": false,
      "t": 197400,
      "d": 1200,
      "v": 127
    },
    {
      "midi": 74,
      "hit": false,
      "t": 197700,
      "d": 300,
      "v": 127
    },
    {
      "midi": 75,
      "hit": false,
      "t": 198000,
      "d": 300,
      "v": 127
    },
    {
      "midi": 65,
      "hit": false,
      "t": 198300,
      "d": 300,
      "v": 127
    },
    {
      "midi": 69,
      "hit": false,
      "t": 198600,
      "d": 300,
      "v": 127
    },
    {
      "midi": 63,
      "hit": false,
      "t": 198600,
      "d": 600,
      "v": 127
    },
    {
      "midi": 77,
      "hit": false,
      "t": 198900,
      "d": 300,
      "v": 127
    },
    {
      "midi": 70,
      "hit": false,
      "t": 199200,
      "d": 300,
      "v": 127
    },
    {
      "midi": 58,
      "hit": false,
      "t": 199200,
      "d": 2400,
      "v": 127
    },
    {
      "midi": 62,
      "hit": false,
      "t": 199200,
      "d": 2400,
      "v": 127
    },
    {
      "midi": 62,
      "hit": false,
      "t": 199500,
      "d": 300,
      "v": 127
    },
    {
      "midi": 65,
      "hit": false,
      "t": 199800,
      "d": 300,
      "v": 127
    },
    {
      "midi": 69,
      "hit": false,
      "t": 200100,
      "d": 300,
      "v": 127
    },
    {
      "midi": 70,
      "hit": false,
      "t": 200400,
      "d": 300,
      "v": 127
    },
    {
      "midi": 62,
      "hit": false,
      "t": 200700,
      "d": 300,
      "v": 127
    },
    {
      "midi": 65,
      "hit": false,
      "t": 201000,
      "d": 300,
      "v": 127
    },
    {
      "midi": 72,
      "hit": false,
      "t": 201300,
      "d": 300,
      "v": 127
    },
    {
      "midi": 74,
      "hit": false,
      "t": 201600,
      "d": 300,
      "v": 127
    },
    {
      "midi": 46,
      "hit": false,
      "t": 201600,
      "d": 600,
      "v": 127
    },
    {
      "midi": 62,
      "hit": false,
      "t": 201900,
      "d": 300,
      "v": 127
    },
    {
      "midi": 65,
      "hit": false,
      "t": 202200,
      "d": 300,
      "v": 127
    },
    {
      "midi": 53,
      "hit": false,
      "t": 202200,
      "d": 1200,
      "v": 127
    },
    {
      "midi": 74,
      "hit": false,
      "t": 202500,
      "d": 300,
      "v": 127
    },
    {
      "midi": 74,
      "hit": false,
      "t": 202800,
      "d": 300,
      "v": 127
    },
    {
      "midi": 62,
      "hit": false,
      "t": 203100,
      "d": 300,
      "v": 127
    },
    {
      "midi": 65,
      "hit": false,
      "t": 203400,
      "d": 300,
      "v": 127
    },
    {
      "midi": 53,
      "hit": false,
      "t": 203400,
      "d": 600,
      "v": 127
    },
    {
      "midi": 74,
      "hit": false,
      "t": 203700,
      "d": 300,
      "v": 127
    },
    {
      "midi": 72,
      "hit": false,
      "t": 204000,
      "d": 300,
      "v": 127
    },
    {
      "midi": 50,
      "hit": false,
      "t": 204000,
      "d": 600,
      "v": 127
    },
    {
      "midi": 62,
      "hit": false,
      "t": 204300,
      "d": 300,
      "v": 127
    },
    {
      "midi": 65,
      "hit": false,
      "t": 204600,
      "d": 300,
      "v": 127
    },
    {
      "midi": 53,
      "hit": false,
      "t": 204600,
      "d": 1200,
      "v": 127
    },
    {
      "midi": 70,
      "hit": false,
      "t": 204900,
      "d": 300,
      "v": 127
    },
    {
      "midi": 70,
      "hit": false,
      "t": 205200,
      "d": 300,
      "v": 127
    },
    {
      "midi": 62,
      "hit": false,
      "t": 205500,
      "d": 300,
      "v": 127
    },
    {
      "midi": 65,
      "hit": false,
      "t": 205800,
      "d": 300,
      "v": 127
    },
    {
      "midi": 53,
      "hit": false,
      "t": 205800,
      "d": 600,
      "v": 127
    },
    {
      "midi": 72,
      "hit": false,
      "t": 206100,
      "d": 300,
      "v": 127
    },
    {
      "midi": 70,
      "hit": false,
      "t": 206400,
      "d": 300,
      "v": 127
    },
    {
      "midi": 48,
      "hit": false,
      "t": 206400,
      "d": 600,
      "v": 127
    },
    {
      "midi": 63,
      "hit": false,
      "t": 206700,
      "d": 300,
      "v": 127
    },
    {
      "midi": 65,
      "hit": false,
      "t": 207000,
      "d": 300,
      "v": 127
    },
    {
      "midi": 53,
      "hit": false,
      "t": 207000,
      "d": 1200,
      "v": 127
    },
    {
      "midi": 69,
      "hit": false,
      "t": 207300,
      "d": 300,
      "v": 127
    },
    {
      "midi": 72,
      "hit": false,
      "t": 207600,
      "d": 300,
      "v": 127
    },
    {
      "midi": 65,
      "hit": false,
      "t": 207900,
      "d": 300,
      "v": 127
    },
    {
      "midi": 69,
      "hit": false,
      "t": 208200,
      "d": 300,
      "v": 127
    },
    {
      "midi": 53,
      "hit": false,
      "t": 208200,
      "d": 600,
      "v": 127
    },
    {
      "midi": 74,
      "hit": false,
      "t": 208500,
      "d": 300,
      "v": 127
    },
    {
      "midi": 75,
      "hit": false,
      "t": 208800,
      "d": 300,
      "v": 127
    },
    {
      "midi": 41,
      "hit": false,
      "t": 208800,
      "d": 600,
      "v": 127
    },
    {
      "midi": 69,
      "hit": false,
      "t": 209100,
      "d": 300,
      "v": 127
    },
    {
      "midi": 72,
      "hit": false,
      "t": 209400,
      "d": 300,
      "v": 127
    },
    {
      "midi": 53,
      "hit": false,
      "t": 209400,
      "d": 1200,
      "v": 127
    },
    {
      "midi": 78,
      "hit": false,
      "t": 209700,
      "d": 300,
      "v": 127
    },
    {
      "midi": 79,
      "hit": false,
      "t": 210000,
      "d": 300,
      "v": 127
    },
    {
      "midi": 69,
      "hit": false,
      "t": 210300,
      "d": 300,
      "v": 127
    },
    {
      "midi": 72,
      "hit": false,
      "t": 210600,
      "d": 300,
      "v": 127
    },
    {
      "midi": 53,
      "hit": false,
      "t": 210600,
      "d": 600,
      "v": 127
    },
    {
      "midi": 75,
      "hit": false,
      "t": 210900,
      "d": 300,
      "v": 127
    },
    {
      "midi": 74,
      "hit": false,
      "t": 211200,
      "d": 300,
      "v": 127
    },
    {
      "midi": 50,
      "hit": false,
      "t": 211200,
      "d": 600,
      "v": 127
    },
    {
      "midi": 66,
      "hit": false,
      "t": 211500,
      "d": 300,
      "v": 127
    },
    {
      "midi": 69,
      "hit": false,
      "t": 211800,
      "d": 300,
      "v": 127
    },
    {
      "midi": 57,
      "hit": false,
      "t": 211800,
      "d": 1200,
      "v": 127
    },
    {
      "midi": 75,
      "hit": false,
      "t": 212100,
      "d": 300,
      "v": 127
    },
    {
      "midi": 74,
      "hit": false,
      "t": 212400,
      "d": 300,
      "v": 127
    },
    {
      "midi": 66,
      "hit": false,
      "t": 212700,
      "d": 300,
      "v": 127
    },
    {
      "midi": 69,
      "hit": false,
      "t": 213000,
      "d": 300,
      "v": 127
    },
    {
      "midi": 57,
      "hit": false,
      "t": 213000,
      "d": 600,
      "v": 127
    },
    {
      "midi": 72,
      "hit": false,
      "t": 213300,
      "d": 300,
      "v": 127
    },
    {
      "midi": 72,
      "hit": false,
      "t": 213600,
      "d": 300,
      "v": 127
    },
    {
      "midi": 50,
      "hit": false,
      "t": 213600,
      "d": 600,
      "v": 127
    },
    {
      "midi": 65,
      "hit": false,
      "t": 213900,
      "d": 300,
      "v": 127
    },
    {
      "midi": 68,
      "hit": false,
      "t": 214200,
      "d": 300,
      "v": 127
    },
    {
      "midi": 56,
      "hit": false,
      "t": 214200,
      "d": 1200,
      "v": 127
    },
    {
      "midi": 72,
      "hit": false,
      "t": 214500,
      "d": 300,
      "v": 127
    },
    {
      "midi": 71,
      "hit": false,
      "t": 214800,
      "d": 300,
      "v": 127
    },
    {
      "midi": 65,
      "hit": false,
      "t": 215100,
      "d": 300,
      "v": 127
    },
    {
      "midi": 68,
      "hit": false,
      "t": 215400,
      "d": 300,
      "v": 127
    },
    {
      "midi": 56,
      "hit": false,
      "t": 215400,
      "d": 600,
      "v": 127
    },
    {
      "midi": 71,
      "hit": false,
      "t": 215700,
      "d": 300,
      "v": 127
    },
    {
      "midi": 71,
      "hit": false,
      "t": 216000,
      "d": 300,
      "v": 127
    },
    {
      "midi": 51,
      "hit": false,
      "t": 216000,
      "d": 600,
      "v": 127
    },
    {
      "midi": 63,
      "hit": false,
      "t": 216300,
      "d": 300,
      "v": 127
    },
    {
      "midi": 67,
      "hit": false,
      "t": 216600,
      "d": 300,
      "v": 127
    },
    {
      "midi": 55,
      "hit": false,
      "t": 216600,
      "d": 1200,
      "v": 127
    },
    {
      "midi": 72,
      "hit": false,
      "t": 216900,
      "d": 300,
      "v": 127
    },
    {
      "midi": 75,
      "hit": false,
      "t": 217200,
      "d": 300,
      "v": 127
    },
    {
      "midi": 63,
      "hit": false,
      "t": 217500,
      "d": 300,
      "v": 127
    },
    {
      "midi": 66,
      "hit": false,
      "t": 217800,
      "d": 300,
      "v": 127
    },
    {
      "midi": 54,
      "hit": false,
      "t": 217800,
      "d": 600,
      "v": 127
    },
    {
      "midi": 72,
      "hit": false,
      "t": 218100,
      "d": 300,
      "v": 127
    },
    {
      "midi": 71,
      "hit": false,
      "t": 218400,
      "d": 300,
      "v": 127
    },
    {
      "midi": 41,
      "hit": false,
      "t": 218400,
      "d": 600,
      "v": 127
    },
    {
      "midi": 60,
      "hit": false,
      "t": 218700,
      "d": 300,
      "v": 127
    },
    {
      "midi": 65,
      "hit": false,
      "t": 219000,
      "d": 300,
      "v": 127
    },
    {
      "midi": 53,
      "hit": false,
      "t": 219000,
      "d": 1200,
      "v": 127
    },
    {
      "midi": 71,
      "hit": false,
      "t": 219300,
      "d": 300,
      "v": 127
    },
    {
      "midi": 69,
      "hit": false,
      "t": 219600,
      "d": 300,
      "v": 127
    },
    {
      "midi": 60,
      "hit": false,
      "t": 219900,
      "d": 300,
      "v": 127
    },
    {
      "midi": 65,
      "hit": false,
      "t": 220200,
      "d": 300,
      "v": 127
    },
    {
      "midi": 53,
      "hit": false,
      "t": 220200,
      "d": 600,
      "v": 127
    },
    {
      "midi": 69,
      "hit": false,
      "t": 220500,
      "d": 300,
      "v": 127
    },
    {
      "midi": 74,
      "hit": false,
      "t": 220800,
      "d": 300,
      "v": 127
    },
    {
      "midi": 46,
      "hit": false,
      "t": 220800,
      "d": 600,
      "v": 127
    },
    {
      "midi": 62,
      "hit": false,
      "t": 221100,
      "d": 300,
      "v": 127
    },
    {
      "midi": 65,
      "hit": false,
      "t": 221400,
      "d": 300,
      "v": 127
    },
    {
      "midi": 53,
      "hit": false,
      "t": 221400,
      "d": 1200,
      "v": 127
    },
    {
      "midi": 74,
      "hit": false,
      "t": 221700,
      "d": 300,
      "v": 127
    },
    {
      "midi": 74,
      "hit": false,
      "t": 222000,
      "d": 300,
      "v": 127
    },
    {
      "midi": 62,
      "hit": false,
      "t": 222300,
      "d": 300,
      "v": 127
    },
    {
      "midi": 65,
      "hit": false,
      "t": 222600,
      "d": 300,
      "v": 127
    },
    {
      "midi": 53,
      "hit": false,
      "t": 222600,
      "d": 600,
      "v": 127
    },
    {
      "midi": 74,
      "hit": false,
      "t": 222900,
      "d": 300,
      "v": 127
    },
    {
      "midi": 72,
      "hit": false,
      "t": 223200,
      "d": 300,
      "v": 127
    },
    {
      "midi": 50,
      "hit": false,
      "t": 223200,
      "d": 600,
      "v": 127
    },
    {
      "midi": 62,
      "hit": false,
      "t": 223500,
      "d": 300,
      "v": 127
    },
    {
      "midi": 65,
      "hit": false,
      "t": 223800,
      "d": 300,
      "v": 127
    },
    {
      "midi": 53,
      "hit": false,
      "t": 223800,
      "d": 1200,
      "v": 127
    },
    {
      "midi": 70,
      "hit": false,
      "t": 224100,
      "d": 300,
      "v": 127
    },
    {
      "midi": 70,
      "hit": false,
      "t": 224400,
      "d": 300,
      "v": 127
    },
    {
      "midi": 62,
      "hit": false,
      "t": 224700,
      "d": 300,
      "v": 127
    },
    {
      "midi": 65,
      "hit": false,
      "t": 225000,
      "d": 300,
      "v": 127
    },
    {
      "midi": 53,
      "hit": false,
      "t": 225000,
      "d": 600,
      "v": 127
    },
    {
      "midi": 72,
      "hit": false,
      "t": 225300,
      "d": 300,
      "v": 127
    },
    {
      "midi": 70,
      "hit": false,
      "t": 225600,
      "d": 300,
      "v": 127
    },
    {
      "midi": 48,
      "hit": false,
      "t": 225600,
      "d": 600,
      "v": 127
    },
    {
      "midi": 63,
      "hit": false,
      "t": 225900,
      "d": 300,
      "v": 127
    },
    {
      "midi": 65,
      "hit": false,
      "t": 226200,
      "d": 300,
      "v": 127
    },
    {
      "midi": 53,
      "hit": false,
      "t": 226200,
      "d": 1200,
      "v": 127
    },
    {
      "midi": 69,
      "hit": false,
      "t": 226500,
      "d": 300,
      "v": 127
    },
    {
      "midi": 72,
      "hit": false,
      "t": 226800,
      "d": 300,
      "v": 127
    },
    {
      "midi": 65,
      "hit": false,
      "t": 227100,
      "d": 300,
      "v": 127
    },
    {
      "midi": 69,
      "hit": false,
      "t": 227400,
      "d": 300,
      "v": 127
    },
    {
      "midi": 53,
      "hit": false,
      "t": 227400,
      "d": 600,
      "v": 127
    },
    {
      "midi": 74,
      "hit": false,
      "t": 227700,
      "d": 300,
      "v": 127
    },
    {
      "midi": 75,
      "hit": false,
      "t": 228000,
      "d": 300,
      "v": 127
    },
    {
      "midi": 41,
      "hit": false,
      "t": 228000,
      "d": 600,
      "v": 127
    },
    {
      "midi": 69,
      "hit": false,
      "t": 228300,
      "d": 300,
      "v": 127
    },
    {
      "midi": 72,
      "hit": false,
      "t": 228600,
      "d": 300,
      "v": 127
    },
    {
      "midi": 53,
      "hit": false,
      "t": 228600,
      "d": 1200,
      "v": 127
    },
    {
      "midi": 78,
      "hit": false,
      "t": 228900,
      "d": 300,
      "v": 127
    },
    {
      "midi": 79,
      "hit": false,
      "t": 229200,
      "d": 300,
      "v": 127
    },
    {
      "midi": 69,
      "hit": false,
      "t": 229500,
      "d": 300,
      "v": 127
    },
    {
      "midi": 72,
      "hit": false,
      "t": 229800,
      "d": 300,
      "v": 127
    },
    {
      "midi": 53,
      "hit": false,
      "t": 229800,
      "d": 600,
      "v": 127
    },
    {
      "midi": 75,
      "hit": false,
      "t": 230100,
      "d": 300,
      "v": 127
    },
    {
      "midi": 74,
      "hit": false,
      "t": 230400,
      "d": 300,
      "v": 127
    },
    {
      "midi": 46,
      "hit": false,
      "t": 230400,
      "d": 600,
      "v": 127
    },
    {
      "midi": 62,
      "hit": false,
      "t": 230700,
      "d": 300,
      "v": 127
    },
    {
      "midi": 65,
      "hit": false,
      "t": 231000,
      "d": 300,
      "v": 127
    },
    {
      "midi": 53,
      "hit": false,
      "t": 231000,
      "d": 1200,
      "v": 127
    },
    {
      "midi": 69,
      "hit": false,
      "t": 231300,
      "d": 300,
      "v": 127
    },
    {
      "midi": 70,
      "hit": false,
      "t": 231600,
      "d": 300,
      "v": 127
    },
    {
      "midi": 62,
      "hit": false,
      "t": 231900,
      "d": 300,
      "v": 127
    },
    {
      "midi": 65,
      "hit": false,
      "t": 232200,
      "d": 300,
      "v": 127
    },
    {
      "midi": 58,
      "hit": false,
      "t": 232200,
      "d": 600,
      "v": 127
    },
    {
      "midi": 72,
      "hit": false,
      "t": 232500,
      "d": 300,
      "v": 127
    },
    {
      "midi": 73,
      "hit": false,
      "t": 232800,
      "d": 300,
      "v": 127
    },
    {
      "midi": 52,
      "hit": false,
      "t": 232800,
      "d": 600,
      "v": 127
    },
    {
      "midi": 67,
      "hit": false,
      "t": 233100,
      "d": 300,
      "v": 127
    },
    {
      "midi": 70,
      "hit": false,
      "t": 233400,
      "d": 300,
      "v": 127
    },
    {
      "midi": 58,
      "hit": false,
      "t": 233400,
      "d": 1200,
      "v": 127
    },
    {
      "midi": 61,
      "hit": false,
      "t": 233400,
      "d": 1200,
      "v": 127
    },
    {
      "midi": 79,
      "hit": false,
      "t": 233700,
      "d": 300,
      "v": 127
    },
    {
      "midi": 81,
      "hit": false,
      "t": 234000,
      "d": 300,
      "v": 127
    },
    {
      "midi": 70,
      "hit": false,
      "t": 234300,
      "d": 300,
      "v": 127
    },
    {
      "midi": 73,
      "hit": false,
      "t": 234600,
      "d": 300,
      "v": 127
    },
    {
      "midi": 58,
      "hit": false,
      "t": 234600,
      "d": 600,
      "v": 127
    },
    {
      "midi": 61,
      "hit": false,
      "t": 234600,
      "d": 600,
      "v": 127
    },
    {
      "midi": 82,
      "hit": false,
      "t": 234900,
      "d": 300,
      "v": 127
    },
    {
      "midi": 72,
      "hit": false,
      "t": 235200,
      "d": 300,
      "v": 127
    },
    {
      "midi": 53,
      "hit": false,
      "t": 235200,
      "d": 600,
      "v": 127
    },
    {
      "midi": 65,
      "hit": false,
      "t": 235500,
      "d": 300,
      "v": 127
    },
    {
      "midi": 70,
      "hit": false,
      "t": 235800,
      "d": 300,
      "v": 127
    },
    {
      "midi": 60,
      "hit": false,
      "t": 235800,
      "d": 1200,
      "v": 127
    },
    {
      "midi": 74,
      "hit": false,
      "t": 236100,
      "d": 300,
      "v": 127
    },
    {
      "midi": 75,
      "hit": false,
      "t": 236400,
      "d": 300,
      "v": 127
    },
    {
      "midi": 65,
      "hit": false,
      "t": 236700,
      "d": 300,
      "v": 127
    },
    {
      "midi": 69,
      "hit": false,
      "t": 237000,
      "d": 300,
      "v": 127
    },
    {
      "midi": 63,
      "hit": false,
      "t": 237000,
      "d": 600,
      "v": 127
    },
    {
      "midi": 77,
      "hit": false,
      "t": 237300,
      "d": 300,
      "v": 127
    },
    {
      "midi": 70,
      "hit": false,
      "t": 237600,
      "d": 300,
      "v": 127
    },
    {
      "midi": 58,
      "hit": false,
      "t": 237600,
      "d": 2400,
      "v": 127
    },
    {
      "midi": 62,
      "hit": false,
      "t": 237600,
      "d": 2400,
      "v": 127
    },
    {
      "midi": 62,
      "hit": false,
      "t": 237900,
      "d": 300,
      "v": 127
    },
    {
      "midi": 65,
      "hit": false,
      "t": 238200,
      "d": 300,
      "v": 127
    },
    {
      "midi": 69,
      "hit": false,
      "t": 238500,
      "d": 300,
      "v": 127
    },
    {
      "midi": 70,
      "hit": false,
      "t": 238800,
      "d": 300,
      "v": 127
    },
    {
      "midi": 62,
      "hit": false,
      "t": 239100,
      "d": 300,
      "v": 127
    },
    {
      "midi": 65,
      "hit": false,
      "t": 239400,
      "d": 300,
      "v": 127
    },
    {
      "midi": 72,
      "hit": false,
      "t": 239700,
      "d": 300,
      "v": 127
    },
    {
      "midi": 74,
      "hit": false,
      "t": 240000,
      "d": 300,
      "v": 127
    },
    {
      "midi": 50,
      "hit": false,
      "t": 240000,
      "d": 600,
      "v": 127
    },
    {
      "midi": 66,
      "hit": false,
      "t": 240300,
      "d": 300,
      "v": 127
    },
    {
      "midi": 69,
      "hit": false,
      "t": 240600,
      "d": 300,
      "v": 127
    },
    {
      "midi": 60,
      "hit": false,
      "t": 240600,
      "d": 1200,
      "v": 127
    },
    {
      "midi": 75,
      "hit": false,
      "t": 240900,
      "d": 300,
      "v": 127
    },
    {
      "midi": 74,
      "hit": false,
      "t": 241200,
      "d": 300,
      "v": 127
    },
    {
      "midi": 66,
      "hit": false,
      "t": 241500,
      "d": 300,
      "v": 127
    },
    {
      "midi": 69,
      "hit": false,
      "t": 241800,
      "d": 300,
      "v": 127
    },
    {
      "midi": 57,
      "hit": false,
      "t": 241800,
      "d": 600,
      "v": 127
    },
    {
      "midi": 72,
      "hit": false,
      "t": 242100,
      "d": 300,
      "v": 127
    },
    {
      "midi": 72,
      "hit": false,
      "t": 242400,
      "d": 300,
      "v": 127
    },
    {
      "midi": 43,
      "hit": false,
      "t": 242400,
      "d": 600,
      "v": 127
    },
    {
      "midi": 65,
      "hit": false,
      "t": 242700,
      "d": 300,
      "v": 127
    },
    {
      "midi": 67,
      "hit": false,
      "t": 243000,
      "d": 300,
      "v": 127
    },
    {
      "midi": 55,
      "hit": false,
      "t": 243000,
      "d": 600,
      "v": 127
    },
    {
      "midi": 62,
      "hit": false,
      "t": 243000,
      "d": 600,
      "v": 127
    },
    {
      "midi": 71,
      "hit": false,
      "t": 243300,
      "d": 300,
      "v": 127
    },
    {
      "midi": 72,
      "hit": false,
      "t": 243600,
      "d": 300,
      "v": 127
    },
    {
      "midi": 56,
      "hit": false,
      "t": 243600,
      "d": 600,
      "v": 127
    },
    {
      "midi": 60,
      "hit": false,
      "t": 243600,
      "d": 600,
      "v": 127
    },
    {
      "midi": 65,
      "hit": false,
      "t": 243900,
      "d": 300,
      "v": 127
    },
    {
      "midi": 67,
      "hit": false,
      "t": 244200,
      "d": 300,
      "v": 127
    },
    {
      "midi": 55,
      "hit": false,
      "t": 244200,
      "d": 600,
      "v": 127
    },
    {
      "midi": 59,
      "hit": false,
      "t": 244200,
      "d": 600,
      "v": 127
    },
    {
      "midi": 74,
      "hit": false,
      "t": 244500,
      "d": 300,
      "v": 127
    },
    {
      "midi": 79,
      "hit": false,
      "t": 244800,
      "d": 300,
      "v": 127
    },
    {
      "midi": 43,
      "hit": false,
      "t": 244800,
      "d": 600,
      "v": 127
    },
    {
      "midi": 71,
      "hit": false,
      "t": 245100,
      "d": 300,
      "v": 127
    },
    {
      "midi": 74,
      "hit": false,
      "t": 245400,
      "d": 300,
      "v": 127
    },
    {
      "midi": 65,
      "hit": false,
      "t": 245400,
      "d": 1200,
      "v": 127
    },
    {
      "midi": 80,
      "hit": false,
      "t": 245700,
      "d": 300,
      "v": 127
    },
    {
      "midi": 79,
      "hit": false,
      "t": 246000,
      "d": 300,
      "v": 127
    },
    {
      "midi": 71,
      "hit": false,
      "t": 246300,
      "d": 300,
      "v": 127
    },
    {
      "midi": 74,
      "hit": false,
      "t": 246600,
      "d": 300,
      "v": 127
    },
    {
      "midi": 62,
      "hit": false,
      "t": 246600,
      "d": 600,
      "v": 127
    },
    {
      "midi": 77,
      "hit": false,
      "t": 246900,
      "d": 300,
      "v": 127
    },
    {
      "midi": 77,
      "hit": false,
      "t": 247200,
      "d": 300,
      "v": 127
    },
    {
      "midi": 48,
      "hit": false,
      "t": 247200,
      "d": 600,
      "v": 127
    },
    {
      "midi": 67,
      "hit": false,
      "t": 247500,
      "d": 300,
      "v": 127
    },
    {
      "midi": 70,
      "hit": false,
      "t": 247800,
      "d": 300,
      "v": 127
    },
    {
      "midi": 60,
      "hit": false,
      "t": 247800,
      "d": 1200,
      "v": 127
    },
    {
      "midi": 76,
      "hit": false,
      "t": 248100,
      "d": 300,
      "v": 127
    },
    {
      "midi": 74,
      "hit": false,
      "t": 248400,
      "d": 300,
      "v": 127
    },
    {
      "midi": 64,
      "hit": false,
      "t": 248700,
      "d": 300,
      "v": 127
    },
    {
      "midi": 70,
      "hit": false,
      "t": 249000,
      "d": 300,
      "v": 127
    },
    {
      "midi": 55,
      "hit": false,
      "t": 249000,
      "d": 600,
      "v": 127
    },
    {
      "midi": 72,
      "hit": false,
      "t": 249300,
      "d": 300,
      "v": 127
    },
    {
      "midi": 72,
      "hit": false,
      "t": 249600,
      "d": 300,
      "v": 127
    },
    {
      "midi": 57,
      "hit": false,
      "t": 249600,
      "d": 600,
      "v": 127
    },
    {
      "midi": 65,
      "hit": false,
      "t": 249900,
      "d": 300,
      "v": 127
    },
    {
      "midi": 69,
      "hit": false,
      "t": 250200,
      "d": 300,
      "v": 127
    },
    {
      "midi": 60,
      "hit": false,
      "t": 250200,
      "d": 600,
      "v": 127
    },
    {
      "midi": 74,
      "hit": false,
      "t": 250500,
      "d": 300,
      "v": 127
    },
    {
      "midi": 76,
      "hit": false,
      "t": 250800,
      "d": 300,
      "v": 127
    },
    {
      "midi": 53,
      "hit": false,
      "t": 250800,
      "d": 600,
      "v": 127
    },
    {
      "midi": 69,
      "hit": false,
      "t": 251100,
      "d": 300,
      "v": 127
    },
    {
      "midi": 72,
      "hit": false,
      "t": 251400,
      "d": 300,
      "v": 127
    },
    {
      "midi": 60,
      "hit": false,
      "t": 251400,
      "d": 600,
      "v": 127
    },
    {
      "midi": 77,
      "hit": false,
      "t": 251700,
      "d": 300,
      "v": 127
    },
    {
      "midi": 77,
      "hit": false,
      "t": 252000,
      "d": 300,
      "v": 127
    },
    {
      "midi": 46,
      "hit": false,
      "t": 252000,
      "d": 600,
      "v": 127
    },
    {
      "midi": 65,
      "hit": false,
      "t": 252300,
      "d": 300,
      "v": 127
    },
    {
      "midi": 70,
      "hit": false,
      "t": 252600,
      "d": 300,
      "v": 127
    },
    {
      "midi": 58,
      "hit": false,
      "t": 252600,
      "d": 600,
      "v": 127
    },
    {
      "midi": 62,
      "hit": false,
      "t": 252600,
      "d": 600,
      "v": 127
    },
    {
      "midi": 74,
      "hit": false,
      "t": 252900,
      "d": 300,
      "v": 127
    },
    {
      "midi": 72,
      "hit": false,
      "t": 253200,
      "d": 300,
      "v": 127
    },
    {
      "midi": 57,
      "hit": false,
      "t": 253200,
      "d": 600,
      "v": 127
    },
    {
      "midi": 60,
      "hit": false,
      "t": 253200,
      "d": 600,
      "v": 127
    },
    {
      "midi": 66,
      "hit": false,
      "t": 253500,
      "d": 300,
      "v": 127
    },
    {
      "midi": 67,
      "hit": false,
      "t": 253800,
      "d": 300,
      "v": 127
    },
    {
      "midi": 55,
      "hit": false,
      "t": 253800,
      "d": 600,
      "v": 127
    },
    {
      "midi": 58,
      "hit": false,
      "t": 253800,
      "d": 600,
      "v": 127
    },
    {
      "midi": 70,
      "hit": false,
      "t": 254100,
      "d": 300,
      "v": 127
    },
    {
      "midi": 69,
      "hit": false,
      "t": 254400,
      "d": 300,
      "v": 127
    },
    {
      "midi": 48,
      "hit": false,
      "t": 254400,
      "d": 600,
      "v": 127
    },
    {
      "midi": 60,
      "hit": false,
      "t": 254700,
      "d": 300,
      "v": 127
    },
    {
      "midi": 65,
      "hit": false,
      "t": 255000,
      "d": 300,
      "v": 127
    },
    {
      "midi": 57,
      "hit": false,
      "t": 255000,
      "d": 600,
      "v": 127
    },
    {
      "midi": 70,
      "hit": false,
      "t": 255300,
      "d": 300,
      "v": 127
    },
    {
      "midi": 67,
      "hit": false,
      "t": 255600,
      "d": 300,
      "v": 127
    },
    {
      "midi": 48,
      "hit": false,
      "t": 255600,
      "d": 600,
      "v": 127
    },
    {
      "midi": 60,
      "hit": false,
      "t": 255900,
      "d": 300,
      "v": 127
    },
    {
      "midi": 64,
      "hit": false,
      "t": 256200,
      "d": 300,
      "v": 127
    },
    {
      "midi": 58,
      "hit": false,
      "t": 256200,
      "d": 600,
      "v": 127
    },
    {
      "midi": 72,
      "hit": false,
      "t": 256500,
      "d": 300,
      "v": 127
    },
    {
      "midi": 65,
      "hit": false,
      "t": 256800,
      "d": 300,
      "v": 127
    },
    {
      "midi": 53,
      "hit": false,
      "t": 256800,
      "d": 2400,
      "v": 127
    },
    {
      "midi": 57,
      "hit": false,
      "t": 256800,
      "d": 2400,
      "v": 127
    },
    {
      "midi": 60,
      "hit": false,
      "t": 257100,
      "d": 300,
      "v": 127
    },
    {
      "midi": 69,
      "hit": false,
      "t": 257700,
      "d": 300,
      "v": 127
    },
    {
      "midi": 72,
      "hit": false,
      "t": 258000,
      "d": 300,
      "v": 127
    },
    {
      "midi": 65,
      "hit": false,
      "t": 258300,
      "d": 300,
      "v": 127
    },
    {
      "midi": 73,
      "hit": false,
      "t": 258600,
      "d": 300,
      "v": 127
    },
    {
      "midi": 65,
      "hit": false,
      "t": 258900,
      "d": 300,
      "v": 127
    },
    {
      "midi": 74,
      "hit": false,
      "t": 259200,
      "d": 300,
      "v": 127
    },
    {
      "midi": 46,
      "hit": false,
      "t": 259200,
      "d": 600,
      "v": 127
    },
    {
      "midi": 62,
      "hit": false,
      "t": 259500,
      "d": 300,
      "v": 127
    },
    {
      "midi": 65,
      "hit": false,
      "t": 259800,
      "d": 300,
      "v": 127
    },
    {
      "midi": 53,
      "hit": false,
      "t": 259800,
      "d": 1200,
      "v": 127
    },
    {
      "midi": 74,
      "hit": false,
      "t": 260100,
      "d": 300,
      "v": 127
    },
    {
      "midi": 74,
      "hit": false,
      "t": 260400,
      "d": 300,
      "v": 127
    },
    {
      "midi": 62,
      "hit": false,
      "t": 260700,
      "d": 300,
      "v": 127
    },
    {
      "midi": 65,
      "hit": false,
      "t": 261000,
      "d": 300,
      "v": 127
    },
    {
      "midi": 53,
      "hit": false,
      "t": 261000,
      "d": 600,
      "v": 127
    },
    {
      "midi": 74,
      "hit": false,
      "t": 261300,
      "d": 300,
      "v": 127
    },
    {
      "midi": 72,
      "hit": false,
      "t": 261600,
      "d": 300,
      "v": 127
    },
    {
      "midi": 50,
      "hit": false,
      "t": 261600,
      "d": 600,
      "v": 127
    },
    {
      "midi": 65,
      "hit": false,
      "t": 261900,
      "d": 300,
      "v": 127
    },
    {
      "midi": 68,
      "hit": false,
      "t": 262200,
      "d": 300,
      "v": 127
    },
    {
      "midi": 58,
      "hit": false,
      "t": 262200,
      "d": 1200,
      "v": 127
    },
    {
      "midi": 70,
      "hit": false,
      "t": 262500,
      "d": 300,
      "v": 127
    },
    {
      "midi": 70,
      "hit": false,
      "t": 262800,
      "d": 300,
      "v": 127
    },
    {
      "midi": 65,
      "hit": false,
      "t": 263100,
      "d": 300,
      "v": 127
    },
    {
      "midi": 68,
      "hit": false,
      "t": 263400,
      "d": 300,
      "v": 127
    },
    {
      "midi": 58,
      "hit": false,
      "t": 263400,
      "d": 600,
      "v": 127
    },
    {
      "midi": 72,
      "hit": false,
      "t": 263700,
      "d": 300,
      "v": 127
    },
    {
      "midi": 70,
      "hit": false,
      "t": 264000,
      "d": 300,
      "v": 127
    },
    {
      "midi": 51,
      "hit": false,
      "t": 264000,
      "d": 600,
      "v": 127
    },
    {
      "midi": 66,
      "hit": false,
      "t": 264300,
      "d": 300,
      "v": 127
    },
    {
      "midi": 67,
      "hit": false,
      "t": 264600,
      "d": 300,
      "v": 127
    },
    {
      "midi": 58,
      "hit": false,
      "t": 264600,
      "d": 1200,
      "v": 127
    },
    {
      "midi": 72,
      "hit": false,
      "t": 264900,
      "d": 300,
      "v": 127
    },
    {
      "midi": 74,
      "hit": false,
      "t": 265200,
      "d": 300,
      "v": 127
    },
    {
      "midi": 67,
      "hit": false,
      "t": 265500,
      "d": 300,
      "v": 127
    },
    {
      "midi": 70,
      "hit": false,
      "t": 265800,
      "d": 300,
      "v": 127
    },
    {
      "midi": 58,
      "hit": false,
      "t": 265800,
      "d": 600,
      "v": 127
    },
    {
      "midi": 75,
      "hit": false,
      "t": 266100,
      "d": 300,
      "v": 127
    },
    {
      "midi": 78,
      "hit": false,
      "t": 266400,
      "d": 300,
      "v": 127
    },
    {
      "midi": 52,
      "hit": false,
      "t": 266400,
      "d": 600,
      "v": 127
    },
    {
      "midi": 70,
      "hit": false,
      "t": 266700,
      "d": 300,
      "v": 127
    },
    {
      "midi": 73,
      "hit": false,
      "t": 267000,
      "d": 300,
      "v": 127
    },
    {
      "midi": 58,
      "hit": false,
      "t": 267000,
      "d": 1200,
      "v": 127
    },
    {
      "midi": 61,
      "hit": false,
      "t": 267000,
      "d": 1200,
      "v": 127
    },
    {
      "midi": 79,
      "hit": false,
      "t": 267300,
      "d": 300,
      "v": 127
    },
    {
      "midi": 81,
      "hit": false,
      "t": 267600,
      "d": 300,
      "v": 127
    },
    {
      "midi": 70,
      "hit": false,
      "t": 267900,
      "d": 300,
      "v": 127
    },
    {
      "midi": 73,
      "hit": false,
      "t": 268200,
      "d": 300,
      "v": 127
    },
    {
      "midi": 58,
      "hit": false,
      "t": 268200,
      "d": 600,
      "v": 127
    },
    {
      "midi": 61,
      "hit": false,
      "t": 268200,
      "d": 600,
      "v": 127
    },
    {
      "midi": 82,
      "hit": false,
      "t": 268500,
      "d": 300,
      "v": 127
    },
    {
      "midi": 72,
      "hit": false,
      "t": 268800,
      "d": 300,
      "v": 127
    },
    {
      "midi": 55,
      "hit": false,
      "t": 268800,
      "d": 600,
      "v": 127
    },
    {
      "midi": 64,
      "hit": false,
      "t": 269100,
      "d": 300,
      "v": 127
    },
    {
      "midi": 70,
      "hit": false,
      "t": 269400,
      "d": 300,
      "v": 127
    },
    {
      "midi": 58,
      "hit": false,
      "t": 269400,
      "d": 1200,
      "v": 127
    },
    {
      "midi": 60,
      "hit": false,
      "t": 269400,
      "d": 1200,
      "v": 127
    },
    {
      "midi": 74,
      "hit": false,
      "t": 269700,
      "d": 300,
      "v": 127
    },
    {
      "midi": 72,
      "hit": false,
      "t": 270000,
      "d": 300,
      "v": 127
    },
    {
      "midi": 64,
      "hit": false,
      "t": 270300,
      "d": 300,
      "v": 127
    },
    {
      "midi": 70,
      "hit": false,
      "t": 270600,
      "d": 300,
      "v": 127
    },
    {
      "midi": 58,
      "hit": false,
      "t": 270600,
      "d": 600,
      "v": 127
    },
    {
      "midi": 61,
      "hit": false,
      "t": 270600,
      "d": 600,
      "v": 127
    },
    {
      "midi": 73,
      "hit": false,
      "t": 270900,
      "d": 300,
      "v": 127
    },
    {
      "midi": 74,
      "hit": false,
      "t": 271200,
      "d": 300,
      "v": 127
    },
    {
      "midi": 53,
      "hit": false,
      "t": 271200,
      "d": 600,
      "v": 127
    },
    {
      "midi": 65,
      "hit": false,
      "t": 271500,
      "d": 300,
      "v": 127
    },
    {
      "midi": 70,
      "hit": false,
      "t": 271800,
      "d": 300,
      "v": 127
    },
    {
      "midi": 58,
      "hit": false,
      "t": 271800,
      "d": 600,
      "v": 127
    },
    {
      "midi": 62,
      "hit": false,
      "t": 271800,
      "d": 600,
      "v": 127
    },
    {
      "midi": 74,
      "hit": false,
      "t": 272100,
      "d": 300,
      "v": 127
    },
    {
      "midi": 75,
      "hit": false,
      "t": 272400,
      "d": 300,
      "v": 127
    },
    {
      "midi": 60,
      "hit": false,
      "t": 272400,
      "d": 600,
      "v": 127
    },
    {
      "midi": 63,
      "hit": false,
      "t": 272400,
      "d": 600,
      "v": 127
    },
    {
      "midi": 65,
      "hit": false,
      "t": 272700,
      "d": 300,
      "v": 127
    },
    {
      "midi": 74,
      "hit": false,
      "t": 273000,
      "d": 300,
      "v": 127
    },
    {
      "midi": 62,
      "hit": false,
      "t": 273000,
      "d": 600,
      "v": 127
    },
    {
      "midi": 65,
      "hit": false,
      "t": 273000,
      "d": 600,
      "v": 127
    },
    {
      "midi": 77,
      "hit": false,
      "t": 273300,
      "d": 300,
      "v": 127
    },
    {
      "midi": 77,
      "hit": false,
      "t": 273600,
      "d": 300,
      "v": 127
    },
    {
      "midi": 53,
      "hit": false,
      "t": 273600,
      "d": 600,
      "v": 127
    },
    {
      "midi": 65,
      "hit": false,
      "t": 273900,
      "d": 300,
      "v": 127
    },
    {
      "midi": 72,
      "hit": false,
      "t": 274200,
      "d": 300,
      "v": 127
    },
    {
      "midi": 60,
      "hit": false,
      "t": 274200,
      "d": 600,
      "v": 127
    },
    {
      "midi": 63,
      "hit": false,
      "t": 274200,
      "d": 600,
      "v": 127
    },
    {
      "midi": 75,
      "hit": false,
      "t": 274500,
      "d": 300,
      "v": 127
    },
    {
      "midi": 74,
      "hit": false,
      "t": 274800,
      "d": 300,
      "v": 127
    },
    {
      "midi": 58,
      "hit": false,
      "t": 274800,
      "d": 600,
      "v": 127
    },
    {
      "midi": 62,
      "hit": false,
      "t": 274800,
      "d": 600,
      "v": 127
    },
    {
      "midi": 65,
      "hit": false,
      "t": 275100,
      "d": 300,
      "v": 127
    },
    {
      "midi": 69,
      "hit": false,
      "t": 275400,
      "d": 300,
      "v": 127
    },
    {
      "midi": 60,
      "hit": false,
      "t": 275400,
      "d": 600,
      "v": 127
    },
    {
      "midi": 72,
      "hit": false,
      "t": 275700,
      "d": 300,
      "v": 127
    },
    {
      "midi": 70,
      "hit": false,
      "t": 276000,
      "d": 300,
      "v": 127
    },
    {
      "midi": 46,
      "hit": false,
      "t": 276000,
      "d": 1800,
      "v": 127
    },
    {
      "midi": 50,
      "hit": false,
      "t": 276000,
      "d": 1800,
      "v": 127
    },
    {
      "midi": 58,
      "hit": false,
      "t": 276000,
      "d": 1800,
      "v": 127
    },
    {
      "midi": 62,
      "hit": false,
      "t": 276300,
      "d": 300,
      "v": 127
    },
    {
      "midi": 65,
      "hit": false,
      "t": 276600,
      "d": 300,
      "v": 127
    },
    {
      "midi": 69,
      "hit": false,
      "t": 276900,
      "d": 300,
      "v": 127
    },
    {
      "midi": 70,
      "hit": false,
      "t": 277200,
      "d": 300,
      "v": 127
    },
    {
      "midi": 62,
      "hit": false,
      "t": 277500,
      "d": 300,
      "v": 127
    },
    {
      "midi": 65,
      "hit": false,
      "t": 277800,
      "d": 300,
      "v": 127
    },
    {
      "midi": 50,
      "hit": false,
      "t": 277800,
      "d": 600,
      "v": 127
    },
    {
      "midi": 72,
      "hit": false,
      "t": 278100,
      "d": 300,
      "v": 127
    },
    {
      "midi": 74,
      "hit": false,
      "t": 278400,
      "d": 300,
      "v": 127
    },
    {
      "midi": 50,
      "hit": false,
      "t": 278400,
      "d": 600,
      "v": 127
    },
    {
      "midi": 66,
      "hit": false,
      "t": 278700,
      "d": 300,
      "v": 127
    },
    {
      "midi": 69,
      "hit": false,
      "t": 279000,
      "d": 300,
      "v": 127
    },
    {
      "midi": 60,
      "hit": false,
      "t": 279000,
      "d": 1200,
      "v": 127
    },
    {
      "midi": 75,
      "hit": false,
      "t": 279300,
      "d": 300,
      "v": 127
    },
    {
      "midi": 74,
      "hit": false,
      "t": 279600,
      "d": 300,
      "v": 127
    },
    {
      "midi": 66,
      "hit": false,
      "t": 279900,
      "d": 300,
      "v": 127
    },
    {
      "midi": 69,
      "hit": false,
      "t": 280200,
      "d": 300,
      "v": 127
    },
    {
      "midi": 57,
      "hit": false,
      "t": 280200,
      "d": 600,
      "v": 127
    },
    {
      "midi": 72,
      "hit": false,
      "t": 280500,
      "d": 300,
      "v": 127
    },
    {
      "midi": 72,
      "hit": false,
      "t": 280800,
      "d": 300,
      "v": 127
    },
    {
      "midi": 43,
      "hit": false,
      "t": 280800,
      "d": 600,
      "v": 127
    },
    {
      "midi": 65,
      "hit": false,
      "t": 281100,
      "d": 300,
      "v": 127
    },
    {
      "midi": 67,
      "hit": false,
      "t": 281400,
      "d": 300,
      "v": 127
    },
    {
      "midi": 55,
      "hit": false,
      "t": 281400,
      "d": 600,
      "v": 127
    },
    {
      "midi": 62,
      "hit": false,
      "t": 281400,
      "d": 600,
      "v": 127
    },
    {
      "midi": 71,
      "hit": false,
      "t": 281700,
      "d": 300,
      "v": 127
    },
    {
      "midi": 72,
      "hit": false,
      "t": 282000,
      "d": 300,
      "v": 127
    },
    {
      "midi": 56,
      "hit": false,
      "t": 282000,
      "d": 600,
      "v": 127
    },
    {
      "midi": 60,
      "hit": false,
      "t": 282000,
      "d": 600,
      "v": 127
    },
    {
      "midi": 65,
      "hit": false,
      "t": 282300,
      "d": 300,
      "v": 127
    },
    {
      "midi": 67,
      "hit": false,
      "t": 282600,
      "d": 300,
      "v": 127
    },
    {
      "midi": 55,
      "hit": false,
      "t": 282600,
      "d": 600,
      "v": 127
    },
    {
      "midi": 59,
      "hit": false,
      "t": 282600,
      "d": 600,
      "v": 127
    },
    {
      "midi": 74,
      "hit": false,
      "t": 282900,
      "d": 300,
      "v": 127
    },
    {
      "midi": 79,
      "hit": false,
      "t": 283200,
      "d": 300,
      "v": 127
    },
    {
      "midi": 43,
      "hit": false,
      "t": 283200,
      "d": 600,
      "v": 127
    },
    {
      "midi": 71,
      "hit": false,
      "t": 283500,
      "d": 300,
      "v": 127
    },
    {
      "midi": 74,
      "hit": false,
      "t": 283800,
      "d": 300,
      "v": 127
    },
    {
      "midi": 65,
      "hit": false,
      "t": 283800,
      "d": 1200,
      "v": 127
    },
    {
      "midi": 80,
      "hit": false,
      "t": 284100,
      "d": 300,
      "v": 127
    },
    {
      "midi": 79,
      "hit": false,
      "t": 284400,
      "d": 300,
      "v": 127
    },
    {
      "midi": 71,
      "hit": false,
      "t": 284700,
      "d": 300,
      "v": 127
    },
    {
      "midi": 74,
      "hit": false,
      "t": 285000,
      "d": 300,
      "v": 127
    },
    {
      "midi": 62,
      "hit": false,
      "t": 285000,
      "d": 600,
      "v": 127
    },
    {
      "midi": 77,
      "hit": false,
      "t": 285300,
      "d": 300,
      "v": 127
    },
    {
      "midi": 77,
      "hit": false,
      "t": 285600,
      "d": 300,
      "v": 127
    },
    {
      "midi": 48,
      "hit": false,
      "t": 285600,
      "d": 600,
      "v": 127
    },
    {
      "midi": 67,
      "hit": false,
      "t": 285900,
      "d": 300,
      "v": 127
    },
    {
      "midi": 70,
      "hit": false,
      "t": 286200,
      "d": 300,
      "v": 127
    },
    {
      "midi": 60,
      "hit": false,
      "t": 286200,
      "d": 1200,
      "v": 127
    },
    {
      "midi": 76,
      "hit": false,
      "t": 286500,
      "d": 300,
      "v": 127
    },
    {
      "midi": 74,
      "hit": false,
      "t": 286800,
      "d": 300,
      "v": 127
    },
    {
      "midi": 64,
      "hit": false,
      "t": 287100,
      "d": 300,
      "v": 127
    },
    {
      "midi": 70,
      "hit": false,
      "t": 287400,
      "d": 300,
      "v": 127
    },
    {
      "midi": 55,
      "hit": false,
      "t": 287400,
      "d": 600,
      "v": 127
    },
    {
      "midi": 72,
      "hit": false,
      "t": 287700,
      "d": 300,
      "v": 127
    },
    {
      "midi": 72,
      "hit": false,
      "t": 288000,
      "d": 300,
      "v": 127
    },
    {
      "midi": 57,
      "hit": false,
      "t": 288000,
      "d": 600,
      "v": 127
    },
    {
      "midi": 65,
      "hit": false,
      "t": 288300,
      "d": 300,
      "v": 127
    },
    {
      "midi": 69,
      "hit": false,
      "t": 288600,
      "d": 300,
      "v": 127
    },
    {
      "midi": 60,
      "hit": false,
      "t": 288600,
      "d": 600,
      "v": 127
    },
    {
      "midi": 74,
      "hit": false,
      "t": 288900,
      "d": 300,
      "v": 127
    },
    {
      "midi": 76,
      "hit": false,
      "t": 289200,
      "d": 300,
      "v": 127
    },
    {
      "midi": 53,
      "hit": false,
      "t": 289200,
      "d": 600,
      "v": 127
    },
    {
      "midi": 69,
      "hit": false,
      "t": 289500,
      "d": 300,
      "v": 127
    },
    {
      "midi": 72,
      "hit": false,
      "t": 289800,
      "d": 300,
      "v": 127
    },
    {
      "midi": 60,
      "hit": false,
      "t": 289800,
      "d": 600,
      "v": 127
    },
    {
      "midi": 77,
      "hit": false,
      "t": 290100,
      "d": 300,
      "v": 127
    },
    {
      "midi": 77,
      "hit": false,
      "t": 290400,
      "d": 300,
      "v": 127
    },
    {
      "midi": 46,
      "hit": false,
      "t": 290400,
      "d": 600,
      "v": 127
    },
    {
      "midi": 65,
      "hit": false,
      "t": 290700,
      "d": 300,
      "v": 127
    },
    {
      "midi": 70,
      "hit": false,
      "t": 291000,
      "d": 300,
      "v": 127
    },
    {
      "midi": 58,
      "hit": false,
      "t": 291000,
      "d": 600,
      "v": 127
    },
    {
      "midi": 62,
      "hit": false,
      "t": 291000,
      "d": 600,
      "v": 127
    },
    {
      "midi": 74,
      "hit": false,
      "t": 291300,
      "d": 300,
      "v": 127
    },
    {
      "midi": 72,
      "hit": false,
      "t": 291600,
      "d": 300,
      "v": 127
    },
    {
      "midi": 57,
      "hit": false,
      "t": 291600,
      "d": 600,
      "v": 127
    },
    {
      "midi": 60,
      "hit": false,
      "t": 291600,
      "d": 600,
      "v": 127
    },
    {
      "midi": 66,
      "hit": false,
      "t": 291900,
      "d": 300,
      "v": 127
    },
    {
      "midi": 67,
      "hit": false,
      "t": 292200,
      "d": 300,
      "v": 127
    },
    {
      "midi": 55,
      "hit": false,
      "t": 292200,
      "d": 600,
      "v": 127
    },
    {
      "midi": 58,
      "hit": false,
      "t": 292200,
      "d": 600,
      "v": 127
    },
    {
      "midi": 70,
      "hit": false,
      "t": 292500,
      "d": 300,
      "v": 127
    },
    {
      "midi": 69,
      "hit": false,
      "t": 292800,
      "d": 300,
      "v": 127
    },
    {
      "midi": 48,
      "hit": false,
      "t": 292800,
      "d": 600,
      "v": 127
    },
    {
      "midi": 60,
      "hit": false,
      "t": 293100,
      "d": 300,
      "v": 127
    },
    {
      "midi": 65,
      "hit": false,
      "t": 293400,
      "d": 300,
      "v": 127
    },
    {
      "midi": 57,
      "hit": false,
      "t": 293400,
      "d": 600,
      "v": 127
    },
    {
      "midi": 70,
      "hit": false,
      "t": 293700,
      "d": 300,
      "v": 127
    },
    {
      "midi": 67,
      "hit": false,
      "t": 294000,
      "d": 300,
      "v": 127
    },
    {
      "midi": 48,
      "hit": false,
      "t": 294000,
      "d": 600,
      "v": 127
    },
    {
      "midi": 60,
      "hit": false,
      "t": 294300,
      "d": 300,
      "v": 127
    },
    {
      "midi": 64,
      "hit": false,
      "t": 294600,
      "d": 300,
      "v": 127
    },
    {
      "midi": 58,
      "hit": false,
      "t": 294600,
      "d": 600,
      "v": 127
    },
    {
      "midi": 72,
      "hit": false,
      "t": 294900,
      "d": 300,
      "v": 127
    },
    {
      "midi": 65,
      "hit": false,
      "t": 295200,
      "d": 300,
      "v": 127
    },
    {
      "midi": 53,
      "hit": false,
      "t": 295200,
      "d": 2400,
      "v": 127
    },
    {
      "midi": 57,
      "hit": false,
      "t": 295200,
      "d": 2400,
      "v": 127
    },
    {
      "midi": 60,
      "hit": false,
      "t": 295500,
      "d": 300,
      "v": 127
    },
    {
      "midi": 69,
      "hit": false,
      "t": 296100,
      "d": 300,
      "v": 127
    },
    {
      "midi": 72,
      "hit": false,
      "t": 296400,
      "d": 300,
      "v": 127
    },
    {
      "midi": 65,
      "hit": false,
      "t": 296700,
      "d": 300,
      "v": 127
    },
    {
      "midi": 73,
      "hit": false,
      "t": 297000,
      "d": 300,
      "v": 127
    },
    {
      "midi": 65,
      "hit": false,
      "t": 297300,
      "d": 300,
      "v": 127
    },
    {
      "midi": 74,
      "hit": false,
      "t": 297600,
      "d": 300,
      "v": 127
    },
    {
      "midi": 46,
      "hit": false,
      "t": 297600,
      "d": 600,
      "v": 127
    },
    {
      "midi": 62,
      "hit": false,
      "t": 297900,
      "d": 300,
      "v": 127
    },
    {
      "midi": 65,
      "hit": false,
      "t": 298200,
      "d": 300,
      "v": 127
    },
    {
      "midi": 53,
      "hit": false,
      "t": 298200,
      "d": 1200,
      "v": 127
    },
    {
      "midi": 74,
      "hit": false,
      "t": 298500,
      "d": 300,
      "v": 127
    },
    {
      "midi": 74,
      "hit": false,
      "t": 298800,
      "d": 300,
      "v": 127
    },
    {
      "midi": 62,
      "hit": false,
      "t": 299100,
      "d": 300,
      "v": 127
    },
    {
      "midi": 65,
      "hit": false,
      "t": 299400,
      "d": 300,
      "v": 127
    },
    {
      "midi": 53,
      "hit": false,
      "t": 299400,
      "d": 600,
      "v": 127
    },
    {
      "midi": 74,
      "hit": false,
      "t": 299700,
      "d": 300,
      "v": 127
    },
    {
      "midi": 72,
      "hit": false,
      "t": 300000,
      "d": 300,
      "v": 127
    },
    {
      "midi": 50,
      "hit": false,
      "t": 300000,
      "d": 600,
      "v": 127
    },
    {
      "midi": 65,
      "hit": false,
      "t": 300300,
      "d": 300,
      "v": 127
    },
    {
      "midi": 68,
      "hit": false,
      "t": 300600,
      "d": 300,
      "v": 127
    },
    {
      "midi": 58,
      "hit": false,
      "t": 300600,
      "d": 1200,
      "v": 127
    },
    {
      "midi": 70,
      "hit": false,
      "t": 300900,
      "d": 300,
      "v": 127
    },
    {
      "midi": 70,
      "hit": false,
      "t": 301200,
      "d": 300,
      "v": 127
    },
    {
      "midi": 65,
      "hit": false,
      "t": 301500,
      "d": 300,
      "v": 127
    },
    {
      "midi": 68,
      "hit": false,
      "t": 301800,
      "d": 300,
      "v": 127
    },
    {
      "midi": 58,
      "hit": false,
      "t": 301800,
      "d": 600,
      "v": 127
    },
    {
      "midi": 72,
      "hit": false,
      "t": 302100,
      "d": 300,
      "v": 127
    },
    {
      "midi": 70,
      "hit": false,
      "t": 302400,
      "d": 300,
      "v": 127
    },
    {
      "midi": 51,
      "hit": false,
      "t": 302400,
      "d": 600,
      "v": 127
    },
    {
      "midi": 66,
      "hit": false,
      "t": 302700,
      "d": 300,
      "v": 127
    },
    {
      "midi": 67,
      "hit": false,
      "t": 303000,
      "d": 300,
      "v": 127
    },
    {
      "midi": 58,
      "hit": false,
      "t": 303000,
      "d": 1200,
      "v": 127
    },
    {
      "midi": 72,
      "hit": false,
      "t": 303300,
      "d": 300,
      "v": 127
    },
    {
      "midi": 74,
      "hit": false,
      "t": 303600,
      "d": 300,
      "v": 127
    },
    {
      "midi": 67,
      "hit": false,
      "t": 303900,
      "d": 300,
      "v": 127
    },
    {
      "midi": 70,
      "hit": false,
      "t": 304200,
      "d": 300,
      "v": 127
    },
    {
      "midi": 58,
      "hit": false,
      "t": 304200,
      "d": 600,
      "v": 127
    },
    {
      "midi": 75,
      "hit": false,
      "t": 304500,
      "d": 300,
      "v": 127
    },
    {
      "midi": 78,
      "hit": false,
      "t": 304800,
      "d": 300,
      "v": 127
    },
    {
      "midi": 52,
      "hit": false,
      "t": 304800,
      "d": 600,
      "v": 127
    },
    {
      "midi": 70,
      "hit": false,
      "t": 305100,
      "d": 300,
      "v": 127
    },
    {
      "midi": 73,
      "hit": false,
      "t": 305400,
      "d": 300,
      "v": 127
    },
    {
      "midi": 58,
      "hit": false,
      "t": 305400,
      "d": 1200,
      "v": 127
    },
    {
      "midi": 61,
      "hit": false,
      "t": 305400,
      "d": 1200,
      "v": 127
    },
    {
      "midi": 79,
      "hit": false,
      "t": 305700,
      "d": 300,
      "v": 127
    },
    {
      "midi": 81,
      "hit": false,
      "t": 306000,
      "d": 300,
      "v": 127
    },
    {
      "midi": 70,
      "hit": false,
      "t": 306300,
      "d": 300,
      "v": 127
    },
    {
      "midi": 73,
      "hit": false,
      "t": 306600,
      "d": 300,
      "v": 127
    },
    {
      "midi": 58,
      "hit": false,
      "t": 306600,
      "d": 600,
      "v": 127
    },
    {
      "midi": 61,
      "hit": false,
      "t": 306600,
      "d": 600,
      "v": 127
    },
    {
      "midi": 82,
      "hit": false,
      "t": 306900,
      "d": 300,
      "v": 127
    },
    {
      "midi": 72,
      "hit": false,
      "t": 307200,
      "d": 300,
      "v": 127
    },
    {
      "midi": 55,
      "hit": false,
      "t": 307200,
      "d": 600,
      "v": 127
    },
    {
      "midi": 64,
      "hit": false,
      "t": 307500,
      "d": 300,
      "v": 127
    },
    {
      "midi": 70,
      "hit": false,
      "t": 307800,
      "d": 300,
      "v": 127
    },
    {
      "midi": 58,
      "hit": false,
      "t": 307800,
      "d": 1200,
      "v": 127
    },
    {
      "midi": 60,
      "hit": false,
      "t": 307800,
      "d": 1200,
      "v": 127
    },
    {
      "midi": 74,
      "hit": false,
      "t": 308100,
      "d": 300,
      "v": 127
    },
    {
      "midi": 72,
      "hit": false,
      "t": 308400,
      "d": 300,
      "v": 127
    },
    {
      "midi": 64,
      "hit": false,
      "t": 308700,
      "d": 300,
      "v": 127
    },
    {
      "midi": 70,
      "hit": false,
      "t": 309000,
      "d": 300,
      "v": 127
    },
    {
      "midi": 58,
      "hit": false,
      "t": 309000,
      "d": 600,
      "v": 127
    },
    {
      "midi": 61,
      "hit": false,
      "t": 309000,
      "d": 600,
      "v": 127
    },
    {
      "midi": 73,
      "hit": false,
      "t": 309300,
      "d": 300,
      "v": 127
    },
    {
      "midi": 74,
      "hit": false,
      "t": 309600,
      "d": 300,
      "v": 127
    },
    {
      "midi": 53,
      "hit": false,
      "t": 309600,
      "d": 600,
      "v": 127
    },
    {
      "midi": 65,
      "hit": false,
      "t": 309900,
      "d": 300,
      "v": 127
    },
    {
      "midi": 70,
      "hit": false,
      "t": 310200,
      "d": 300,
      "v": 127
    },
    {
      "midi": 58,
      "hit": false,
      "t": 310200,
      "d": 600,
      "v": 127
    },
    {
      "midi": 62,
      "hit": false,
      "t": 310200,
      "d": 600,
      "v": 127
    },
    {
      "midi": 74,
      "hit": false,
      "t": 310500,
      "d": 300,
      "v": 127
    },
    {
      "midi": 75,
      "hit": false,
      "t": 310800,
      "d": 300,
      "v": 127
    },
    {
      "midi": 60,
      "hit": false,
      "t": 310800,
      "d": 600,
      "v": 127
    },
    {
      "midi": 63,
      "hit": false,
      "t": 310800,
      "d": 600,
      "v": 127
    },
    {
      "midi": 65,
      "hit": false,
      "t": 311100,
      "d": 300,
      "v": 127
    },
    {
      "midi": 74,
      "hit": false,
      "t": 311400,
      "d": 300,
      "v": 127
    },
    {
      "midi": 62,
      "hit": false,
      "t": 311400,
      "d": 600,
      "v": 127
    },
    {
      "midi": 65,
      "hit": false,
      "t": 311400,
      "d": 600,
      "v": 127
    },
    {
      "midi": 77,
      "hit": false,
      "t": 311700,
      "d": 300,
      "v": 127
    },
    {
      "midi": 77,
      "hit": false,
      "t": 312000,
      "d": 300,
      "v": 127
    },
    {
      "midi": 53,
      "hit": false,
      "t": 312000,
      "d": 600,
      "v": 127
    },
    {
      "midi": 65,
      "hit": false,
      "t": 312300,
      "d": 300,
      "v": 127
    },
    {
      "midi": 72,
      "hit": false,
      "t": 312600,
      "d": 300,
      "v": 127
    },
    {
      "midi": 60,
      "hit": false,
      "t": 312600,
      "d": 600,
      "v": 127
    },
    {
      "midi": 63,
      "hit": false,
      "t": 312600,
      "d": 600,
      "v": 127
    },
    {
      "midi": 75,
      "hit": false,
      "t": 312900,
      "d": 300,
      "v": 127
    },
    {
      "midi": 74,
      "hit": false,
      "t": 313200,
      "d": 300,
      "v": 127
    },
    {
      "midi": 58,
      "hit": false,
      "t": 313200,
      "d": 600,
      "v": 127
    },
    {
      "midi": 62,
      "hit": false,
      "t": 313200,
      "d": 600,
      "v": 127
    },
    {
      "midi": 65,
      "hit": false,
      "t": 313500,
      "d": 300,
      "v": 127
    },
    {
      "midi": 69,
      "hit": false,
      "t": 313800,
      "d": 300,
      "v": 127
    },
    {
      "midi": 60,
      "hit": false,
      "t": 313800,
      "d": 600,
      "v": 127
    },
    {
      "midi": 72,
      "hit": false,
      "t": 314100,
      "d": 300,
      "v": 127
    },
    {
      "midi": 70,
      "hit": false,
      "t": 314400,
      "d": 300,
      "v": 127
    },
    {
      "midi": 46,
      "hit": false,
      "t": 314400,
      "d": 1800,
      "v": 127
    },
    {
      "midi": 50,
      "hit": false,
      "t": 314400,
      "d": 1800,
      "v": 127
    },
    {
      "midi": 58,
      "hit": false,
      "t": 314400,
      "d": 1800,
      "v": 127
    },
    {
      "midi": 62,
      "hit": false,
      "t": 314700,
      "d": 300,
      "v": 127
    },
    {
      "midi": 65,
      "hit": false,
      "t": 315000,
      "d": 300,
      "v": 127
    },
    {
      "midi": 72,
      "hit": false,
      "t": 315300,
      "d": 300,
      "v": 127
    },
    {
      "midi": 70,
      "hit": false,
      "t": 315600,
      "d": 300,
      "v": 127
    },
    {
      "midi": 60,
      "hit": false,
      "t": 315900,
      "d": 300,
      "v": 127
    },
    {
      "midi": 65,
      "hit": false,
      "t": 316200,
      "d": 300,
      "v": 127
    },
    {
      "midi": 58,
      "hit": false,
      "t": 316200,
      "d": 600,
      "v": 127
    },
    {
      "midi": 74,
      "hit": false,
      "t": 316500,
      "d": 300,
      "v": 127
    },
    {
      "midi": 77,
      "hit": false,
      "t": 316800,
      "d": 300,
      "v": 127
    },
    {
      "midi": 62,
      "hit": false,
      "t": 316800,
      "d": 600,
      "v": 127
    },
    {
      "midi": 65,
      "hit": false,
      "t": 317100,
      "d": 300,
      "v": 127
    },
    {
      "midi": 72,
      "hit": false,
      "t": 317400,
      "d": 300,
      "v": 127
    },
    {
      "midi": 60,
      "hit": false,
      "t": 317400,
      "d": 600,
      "v": 127
    },
    {
      "midi": 63,
      "hit": false,
      "t": 317400,
      "d": 600,
      "v": 127
    },
    {
      "midi": 75,
      "hit": false,
      "t": 317700,
      "d": 300,
      "v": 127
    },
    {
      "midi": 74,
      "hit": false,
      "t": 318000,
      "d": 300,
      "v": 127
    },
    {
      "midi": 58,
      "hit": false,
      "t": 318000,
      "d": 600,
      "v": 127
    },
    {
      "midi": 62,
      "hit": false,
      "t": 318000,
      "d": 600,
      "v": 127
    },
    {
      "midi": 65,
      "hit": false,
      "t": 318300,
      "d": 300,
      "v": 127
    },
    {
      "midi": 69,
      "hit": false,
      "t": 318600,
      "d": 300,
      "v": 127
    },
    {
      "midi": 60,
      "hit": false,
      "t": 318600,
      "d": 600,
      "v": 127
    },
    {
      "midi": 72,
      "hit": false,
      "t": 318900,
      "d": 300,
      "v": 127
    },
    {
      "midi": 70,
      "hit": false,
      "t": 319200,
      "d": 300,
      "v": 127
    },
    {
      "midi": 46,
      "hit": false,
      "t": 319200,
      "d": 1800,
      "v": 127
    },
    {
      "midi": 50,
      "hit": false,
      "t": 319200,
      "d": 1800,
      "v": 127
    },
    {
      "midi": 58,
      "hit": false,
      "t": 319200,
      "d": 1800,
      "v": 127
    },
    {
      "midi": 62,
      "hit": false,
      "t": 319500,
      "d": 300,
      "v": 127
    },
    {
      "midi": 65,
      "hit": false,
      "t": 319800,
      "d": 300,
      "v": 127
    },
    {
      "midi": 74,
      "hit": false,
      "t": 320100,
      "d": 300,
      "v": 127
    },
    {
      "midi": 70,
      "hit": false,
      "t": 320400,
      "d": 300,
      "v": 127
    },
    {
      "midi": 62,
      "hit": false,
      "t": 320700,
      "d": 300,
      "v": 127
    },
    {
      "midi": 65,
      "hit": false,
      "t": 321000,
      "d": 300,
      "v": 127
    },
    {
      "midi": 50,
      "hit": false,
      "t": 321000,
      "d": 600,
      "v": 127
    },
    {
      "midi": 53,
      "hit": false,
      "t": 321000,
      "d": 600,
      "v": 127
    },
    {
      "midi": 67,
      "hit": false,
      "t": 321300,
      "d": 300,
      "v": 127
    },
    {
      "midi": 65,
      "hit": false,
      "t": 321600,
      "d": 300,
      "v": 127
    },
    {
      "midi": 41,
      "hit": false,
      "t": 321600,
      "d": 600,
      "v": 127
    },
    {
      "midi": 53,
      "hit": false,
      "t": 321900,
      "d": 300,
      "v": 127
    },
    {
      "midi": 60,
      "hit": false,
      "t": 322200,
      "d": 300,
      "v": 127
    },
    {
      "midi": 48,
      "hit": false,
      "t": 322200,
      "d": 600,
      "v": 127
    },
    {
      "midi": 51,
      "hit": false,
      "t": 322200,
      "d": 600,
      "v": 127
    },
    {
      "midi": 63,
      "hit": false,
      "t": 322500,
      "d": 300,
      "v": 127
    },
    {
      "midi": 62,
      "hit": false,
      "t": 322800,
      "d": 300,
      "v": 127
    },
    {
      "midi": 46,
      "hit": false,
      "t": 322800,
      "d": 600,
      "v": 127
    },
    {
      "midi": 50,
      "hit": false,
      "t": 322800,
      "d": 600,
      "v": 127
    },
    {
      "midi": 53,
      "hit": false,
      "t": 323100,
      "d": 300,
      "v": 127
    },
    {
      "midi": 57,
      "hit": false,
      "t": 323400,
      "d": 300,
      "v": 127
    },
    {
      "midi": 48,
      "hit": false,
      "t": 323400,
      "d": 600,
      "v": 127
    },
    {
      "midi": 60,
      "hit": false,
      "t": 323700,
      "d": 300,
      "v": 127
    },
    {
      "midi": 58,
      "hit": false,
      "t": 324000,
      "d": 300,
      "v": 127
    },
    {
      "midi": 50,
      "hit": false,
      "t": 324300,
      "d": 300,
      "v": 127
    },
    {
      "midi": 53,
      "hit": false,
      "t": 324600,
      "d": 300,
      "v": 127
    },
    {
      "midi": 57,
      "hit": false,
      "t": 324900,
      "d": 300,
      "v": 127
    },
    {
      "midi": 58,
      "hit": false,
      "t": 325200,
      "d": 1200,
      "v": 127
    },
    {
      "midi": 74,
      "hit": false,
      "t": 326400,
      "d": 600,
      "v": 127
    },
    {
      "midi": 46,
      "hit": false,
      "t": 326400,
      "d": 600,
      "v": 127
    },
    {
      "midi": 73,
      "hit": false,
      "t": 327000,
      "d": 300,
      "v": 127
    },
    {
      "midi": 53,
      "hit": false,
      "t": 327000,
      "d": 1200,
      "v": 127
    },
    {
      "midi": 58,
      "hit": false,
      "t": 327000,
      "d": 1200,
      "v": 127
    },
    {
      "midi": 62,
      "hit": false,
      "t": 327000,
      "d": 1200,
      "v": 127
    },
    {
      "midi": 74,
      "hit": false,
      "t": 327300,
      "d": 300,
      "v": 127
    },
    {
      "midi": 73,
      "hit": false,
      "t": 327600,
      "d": 300,
      "v": 127
    },
    {
      "midi": 74,
      "hit": false,
      "t": 327900,
      "d": 300,
      "v": 127
    },
    {
      "midi": 70,
      "hit": false,
      "t": 328200,
      "d": 300,
      "v": 127
    },
    {
      "midi": 53,
      "hit": false,
      "t": 328200,
      "d": 600,
      "v": 127
    },
    {
      "midi": 58,
      "hit": false,
      "t": 328200,
      "d": 600,
      "v": 127
    },
    {
      "midi": 62,
      "hit": false,
      "t": 328200,
      "d": 600,
      "v": 127
    },
    {
      "midi": 67,
      "hit": false,
      "t": 328500,
      "d": 300,
      "v": 127
    },
    {
      "midi": 67,
      "hit": false,
      "t": 328800,
      "d": 1200,
      "v": 127
    },
    {
      "midi": 50,
      "hit": false,
      "t": 328800,
      "d": 600,
      "v": 127
    },
    {
      "midi": 53,
      "hit": false,
      "t": 329400,
      "d": 1200,
      "v": 127
    },
    {
      "midi": 58,
      "hit": false,
      "t": 329400,
      "d": 1200,
      "v": 127
    },
    {
      "midi": 62,
      "hit": false,
      "t": 329400,
      "d": 1200,
      "v": 127
    },
    {
      "midi": 65,
      "hit": false,
      "t": 330000,
      "d": 900,
      "v": 127
    },
    {
      "midi": 53,
      "hit": false,
      "t": 330600,
      "d": 600,
      "v": 127
    },
    {
      "midi": 58,
      "hit": false,
      "t": 330600,
      "d": 600,
      "v": 127
    },
    {
      "midi": 62,
      "hit": false,
      "t": 330600,
      "d": 600,
      "v": 127
    },
    {
      "midi": 70,
      "hit": false,
      "t": 330900,
      "d": 300,
      "v": 127
    },
    {
      "midi": 69,
      "hit": false,
      "t": 331200,
      "d": 900,
      "v": 127
    },
    {
      "midi": 48,
      "hit": false,
      "t": 331200,
      "d": 600,
      "v": 127
    },
    {
      "midi": 53,
      "hit": false,
      "t": 331800,
      "d": 1200,
      "v": 127
    },
    {
      "midi": 57,
      "hit": false,
      "t": 331800,
      "d": 1200,
      "v": 127
    },
    {
      "midi": 63,
      "hit": false,
      "t": 331800,
      "d": 1200,
      "v": 127
    },
    {
      "midi": 70,
      "hit": false,
      "t": 332100,
      "d": 300,
      "v": 127
    },
    {
      "midi": 71,
      "hit": false,
      "t": 332400,
      "d": 300,
      "v": 127
    },
    {
      "midi": 72,
      "hit": false,
      "t": 332700,
      "d": 300,
      "v": 127
    },
    {
      "midi": 73,
      "hit": false,
      "t": 333000,
      "d": 300,
      "v": 127
    },
    {
      "midi": 53,
      "hit": false,
      "t": 333000,
      "d": 600,
      "v": 127
    },
    {
      "midi": 57,
      "hit": false,
      "t": 333000,
      "d": 600,
      "v": 127
    },
    {
      "midi": 63,
      "hit": false,
      "t": 333000,
      "d": 600,
      "v": 127
    },
    {
      "midi": 74,
      "hit": false,
      "t": 333300,
      "d": 300,
      "v": 127
    },
    {
      "midi": 77,
      "hit": false,
      "t": 333600,
      "d": 1200,
      "v": 127
    },
    {
      "midi": 41,
      "hit": false,
      "t": 333600,
      "d": 600,
      "v": 127
    },
    {
      "midi": 53,
      "hit": false,
      "t": 334200,
      "d": 1200,
      "v": 127
    },
    {
      "midi": 57,
      "hit": false,
      "t": 334200,
      "d": 1200,
      "v": 127
    },
    {
      "midi": 60,
      "hit": false,
      "t": 334200,
      "d": 1200,
      "v": 127
    },
    {
      "midi": 75,
      "hit": false,
      "t": 334800,
      "d": 1200,
      "v": 127
    },
    {
      "midi": 53,
      "hit": false,
      "t": 335400,
      "d": 600,
      "v": 127
    },
    {
      "midi": 57,
      "hit": false,
      "t": 335400,
      "d": 600,
      "v": 127
    },
    {
      "midi": 60,
      "hit": false,
      "t": 335400,
      "d": 600,
      "v": 127
    },
    {
      "midi": 74,
      "hit": false,
      "t": 336000,
      "d": 600,
      "v": 127
    },
    {
      "midi": 46,
      "hit": false,
      "t": 336000,
      "d": 600,
      "v": 127
    },
    {
      "midi": 76,
      "hit": false,
      "t": 336600,
      "d": 300,
      "v": 127
    },
    {
      "midi": 53,
      "hit": false,
      "t": 336600,
      "d": 1200,
      "v": 127
    },
    {
      "midi": 58,
      "hit": false,
      "t": 336600,
      "d": 1200,
      "v": 127
    },
    {
      "midi": 62,
      "hit": false,
      "t": 336600,
      "d": 1200,
      "v": 127
    },
    {
      "midi": 77,
      "hit": false,
      "t": 336900,
      "d": 300,
      "v": 127
    },
    {
      "midi": 81,
      "hit": false,
      "t": 337200,
      "d": 300,
      "v": 127
    },
    {
      "midi": 82,
      "hit": false,
      "t": 337500,
      "d": 300,
      "v": 127
    },
    {
      "midi": 77,
      "hit": false,
      "t": 337800,
      "d": 300,
      "v": 127
    },
    {
      "midi": 53,
      "hit": false,
      "t": 337800,
      "d": 600,
      "v": 127
    },
    {
      "midi": 58,
      "hit": false,
      "t": 337800,
      "d": 600,
      "v": 127
    },
    {
      "midi": 62,
      "hit": false,
      "t": 337800,
      "d": 600,
      "v": 127
    },
    {
      "midi": 74,
      "hit": false,
      "t": 338100,
      "d": 300,
      "v": 127
    },
    {
      "midi": 72,
      "hit": false,
      "t": 338400,
      "d": 600,
      "v": 127
    },
    {
      "midi": 39,
      "hit": false,
      "t": 338400,
      "d": 600,
      "v": 127
    },
    {
      "midi": 78,
      "hit": false,
      "t": 339000,
      "d": 300,
      "v": 127
    },
    {
      "midi": 51,
      "hit": false,
      "t": 339000,
      "d": 1200,
      "v": 127
    },
    {
      "midi": 55,
      "hit": false,
      "t": 339000,
      "d": 1200,
      "v": 127
    },
    {
      "midi": 58,
      "hit": false,
      "t": 339000,
      "d": 1200,
      "v": 127
    },
    {
      "midi": 60,
      "hit": false,
      "t": 339000,
      "d": 1200,
      "v": 127
    },
    {
      "midi": 79,
      "hit": false,
      "t": 339300,
      "d": 300,
      "v": 127
    },
    {
      "midi": 81,
      "hit": false,
      "t": 339600,
      "d": 300,
      "v": 127
    },
    {
      "midi": 82,
      "hit": false,
      "t": 339900,
      "d": 300,
      "v": 127
    },
    {
      "midi": 79,
      "hit": false,
      "t": 340200,
      "d": 300,
      "v": 127
    },
    {
      "midi": 51,
      "hit": false,
      "t": 340200,
      "d": 600,
      "v": 127
    },
    {
      "midi": 55,
      "hit": false,
      "t": 340200,
      "d": 600,
      "v": 127
    },
    {
      "midi": 58,
      "hit": false,
      "t": 340200,
      "d": 600,
      "v": 127
    },
    {
      "midi": 60,
      "hit": false,
      "t": 340200,
      "d": 600,
      "v": 127
    },
    {
      "midi": 72,
      "hit": false,
      "t": 340500,
      "d": 300,
      "v": 127
    },
    {
      "midi": 72,
      "hit": false,
      "t": 340800,
      "d": 300,
      "v": 127
    },
    {
      "midi": 40,
      "hit": false,
      "t": 340800,
      "d": 600,
      "v": 127
    },
    {
      "midi": 84,
      "hit": false,
      "t": 341100,
      "d": 300,
      "v": 127
    },
    {
      "midi": 83,
      "hit": false,
      "t": 341400,
      "d": 300,
      "v": 127
    },
    {
      "midi": 60,
      "hit": false,
      "t": 341400,
      "d": 600,
      "v": 127
    },
    {
      "midi": 82,
      "hit": false,
      "t": 341700,
      "d": 300,
      "v": 127
    },
    {
      "midi": 81,
      "hit": false,
      "t": 342000,
      "d": 300,
      "v": 127
    },
    {
      "midi": 57,
      "hit": false,
      "t": 342000,
      "d": 600,
      "v": 127
    },
    {
      "midi": 72,
      "hit": false,
      "t": 342300,
      "d": 300,
      "v": 127
    },
    {
      "midi": 70,
      "hit": false,
      "t": 342600,
      "d": 300,
      "v": 127
    },
    {
      "midi": 52,
      "hit": false,
      "t": 342600,
      "d": 600,
      "v": 127
    },
    {
      "midi": 58,
      "hit": false,
      "t": 342600,
      "d": 600,
      "v": 127
    },
    {
      "midi": 60,
      "hit": false,
      "t": 342600,
      "d": 600,
      "v": 127
    },
    {
      "midi": 79,
      "hit": false,
      "t": 342900,
      "d": 300,
      "v": 127
    },
    {
      "midi": 69,
      "hit": false,
      "t": 343200,
      "d": 300,
      "v": 127
    },
    {
      "midi": 41,
      "hit": false,
      "t": 343200,
      "d": 600,
      "v": 127
    },
    {
      "midi": 77,
      "hit": false,
      "t": 343500,
      "d": 300,
      "v": 127
    },
    {
      "midi": 72,
      "hit": false,
      "t": 343800,
      "d": 300,
      "v": 127
    },
    {
      "midi": 60,
      "hit": false,
      "t": 343800,
      "d": 600,
      "v": 127
    },
    {
      "midi": 75,
      "hit": false,
      "t": 344100,
      "d": 300,
      "v": 127
    },
    {
      "midi": 70,
      "hit": false,
      "t": 344400,
      "d": 300,
      "v": 127
    },
    {
      "midi": 58,
      "hit": false,
      "t": 344400,
      "d": 600,
      "v": 127
    },
    {
      "midi": 62,
      "hit": false,
      "t": 344400,
      "d": 600,
      "v": 127
    },
    {
      "midi": 74,
      "hit": false,
      "t": 344700,
      "d": 300,
      "v": 127
    },
    {
      "midi": 69,
      "hit": false,
      "t": 345000,
      "d": 300,
      "v": 127
    },
    {
      "midi": 60,
      "hit": false,
      "t": 345000,
      "d": 600,
      "v": 127
    },
    {
      "midi": 63,
      "hit": false,
      "t": 345000,
      "d": 600,
      "v": 127
    },
    {
      "midi": 72,
      "hit": false,
      "t": 345300,
      "d": 300,
      "v": 127
    },
    {
      "midi": 70,
      "hit": false,
      "t": 345600,
      "d": 300,
      "v": 127
    },
    {
      "midi": 46,
      "hit": false,
      "t": 345600,
      "d": 600,
      "v": 127
    },
    {
      "midi": 86,
      "hit": false,
      "t": 345900,
      "d": 300,
      "v": 127
    },
    {
      "midi": 85,
      "hit": false,
      "t": 346200,
      "d": 300,
      "v": 127
    },
    {
      "midi": 53,
      "hit": false,
      "t": 346200,
      "d": 1200,
      "v": 127
    },
    {
      "midi": 58,
      "hit": false,
      "t": 346200,
      "d": 1200,
      "v": 127
    },
    {
      "midi": 62,
      "hit": false,
      "t": 346200,
      "d": 1200,
      "v": 127
    },
    {
      "midi": 86,
      "hit": false,
      "t": 346500,
      "d": 300,
      "v": 127
    },
    {
      "midi": 85,
      "hit": false,
      "t": 346800,
      "d": 300,
      "v": 127
    },
    {
      "midi": 86,
      "hit": false,
      "t": 347100,
      "d": 300,
      "v": 127
    },
    {
      "midi": 82,
      "hit": false,
      "t": 347400,
      "d": 300,
      "v": 127
    },
    {
      "midi": 53,
      "hit": false,
      "t": 347400,
      "d": 600,
      "v": 127
    },
    {
      "midi": 58,
      "hit": false,
      "t": 347400,
      "d": 600,
      "v": 127
    },
    {
      "midi": 62,
      "hit": false,
      "t": 347400,
      "d": 600,
      "v": 127
    },
    {
      "midi": 79,
      "hit": false,
      "t": 347700,
      "d": 300,
      "v": 127
    },
    {
      "midi": 79,
      "hit": false,
      "t": 348000,
      "d": 1200,
      "v": 127
    },
    {
      "midi": 50,
      "hit": false,
      "t": 348000,
      "d": 600,
      "v": 127
    },
    {
      "midi": 53,
      "hit": false,
      "t": 348600,
      "d": 1200,
      "v": 127
    },
    {
      "midi": 58,
      "hit": false,
      "t": 348600,
      "d": 1200,
      "v": 127
    },
    {
      "midi": 65,
      "hit": false,
      "t": 348600,
      "d": 1200,
      "v": 127
    },
    {
      "midi": 77,
      "hit": false,
      "t": 349200,
      "d": 900,
      "v": 127
    },
    {
      "midi": 53,
      "hit": false,
      "t": 349800,
      "d": 600,
      "v": 127
    },
    {
      "midi": 58,
      "hit": false,
      "t": 349800,
      "d": 600,
      "v": 127
    },
    {
      "midi": 65,
      "hit": false,
      "t": 349800,
      "d": 600,
      "v": 127
    },
    {
      "midi": 82,
      "hit": false,
      "t": 350100,
      "d": 300,
      "v": 127
    },
    {
      "midi": 84,
      "hit": false,
      "t": 350400,
      "d": 900,
      "v": 127
    },
    {
      "midi": 48,
      "hit": false,
      "t": 350400,
      "d": 600,
      "v": 127
    },
    {
      "midi": 53,
      "hit": false,
      "t": 351000,
      "d": 1200,
      "v": 127
    },
    {
      "midi": 57,
      "hit": false,
      "t": 351000,
      "d": 1200,
      "v": 127
    },
    {
      "midi": 63,
      "hit": false,
      "t": 351000,
      "d": 1200,
      "v": 127
    },
    {
      "midi": 82,
      "hit": false,
      "t": 351300,
      "d": 300,
      "v": 127
    },
    {
      "midi": 83,
      "hit": false,
      "t": 351600,
      "d": 300,
      "v": 127
    },
    {
      "midi": 84,
      "hit": false,
      "t": 351900,
      "d": 300,
      "v": 127
    },
    {
      "midi": 85,
      "hit": false,
      "t": 352200,
      "d": 300,
      "v": 127
    },
    {
      "midi": 53,
      "hit": false,
      "t": 352200,
      "d": 600,
      "v": 127
    },
    {
      "midi": 57,
      "hit": false,
      "t": 352200,
      "d": 600,
      "v": 127
    },
    {
      "midi": 63,
      "hit": false,
      "t": 352200,
      "d": 600,
      "v": 127
    },
    {
      "midi": 86,
      "hit": false,
      "t": 352500,
      "d": 300,
      "v": 127
    },
    {
      "midi": 89,
      "hit": false,
      "t": 352800,
      "d": 900,
      "v": 127
    },
    {
      "midi": 41,
      "hit": false,
      "t": 352800,
      "d": 600,
      "v": 127
    },
    {
      "midi": 53,
      "hit": false,
      "t": 353400,
      "d": 1200,
      "v": 127
    },
    {
      "midi": 57,
      "hit": false,
      "t": 353400,
      "d": 1200,
      "v": 127
    },
    {
      "midi": 60,
      "hit": false,
      "t": 353400,
      "d": 1200,
      "v": 127
    },
    {
      "midi": 88,
      "hit": false,
      "t": 353700,
      "d": 300,
      "v": 127
    },
    {
      "midi": 87,
      "hit": false,
      "t": 354000,
      "d": 1200,
      "v": 127
    },
    {
      "midi": 53,
      "hit": false,
      "t": 354600,
      "d": 600,
      "v": 127
    },
    {
      "midi": 57,
      "hit": false,
      "t": 354600,
      "d": 600,
      "v": 127
    },
    {
      "midi": 60,
      "hit": false,
      "t": 354600,
      "d": 600,
      "v": 127
    },
    {
      "midi": 86,
      "hit": false,
      "t": 355200,
      "d": 600,
      "v": 127
    },
    {
      "midi": 46,
      "hit": false,
      "t": 355200,
      "d": 600,
      "v": 127
    },
    {
      "midi": 88,
      "hit": false,
      "t": 355800,
      "d": 300,
      "v": 127
    },
    {
      "midi": 53,
      "hit": false,
      "t": 355800,
      "d": 1200,
      "v": 127
    },
    {
      "midi": 58,
      "hit": false,
      "t": 355800,
      "d": 1200,
      "v": 127
    },
    {
      "midi": 62,
      "hit": false,
      "t": 355800,
      "d": 1200,
      "v": 127
    },
    {
      "midi": 89,
      "hit": false,
      "t": 356100,
      "d": 300,
      "v": 127
    },
    {
      "midi": 93,
      "hit": false,
      "t": 356400,
      "d": 300,
      "v": 127
    },
    {
      "midi": 94,
      "hit": false,
      "t": 356700,
      "d": 300,
      "v": 127
    },
    {
      "midi": 89,
      "hit": false,
      "t": 357000,
      "d": 300,
      "v": 127
    },
    {
      "midi": 53,
      "hit": false,
      "t": 357000,
      "d": 600,
      "v": 127
    },
    {
      "midi": 58,
      "hit": false,
      "t": 357000,
      "d": 600,
      "v": 127
    },
    {
      "midi": 62,
      "hit": false,
      "t": 357000,
      "d": 600,
      "v": 127
    },
    {
      "midi": 86,
      "hit": false,
      "t": 357300,
      "d": 300,
      "v": 127
    },
    {
      "midi": 85,
      "hit": false,
      "t": 357600,
      "d": 600,
      "v": 127
    },
    {
      "midi": 40,
      "hit": false,
      "t": 357600,
      "d": 600,
      "v": 127
    },
    {
      "midi": 91,
      "hit": false,
      "t": 358200,
      "d": 300,
      "v": 127
    },
    {
      "midi": 52,
      "hit": false,
      "t": 358200,
      "d": 1200,
      "v": 127
    },
    {
      "midi": 55,
      "hit": false,
      "t": 358200,
      "d": 1200,
      "v": 127
    },
    {
      "midi": 58,
      "hit": false,
      "t": 358200,
      "d": 1200,
      "v": 127
    },
    {
      "midi": 61,
      "hit": false,
      "t": 358200,
      "d": 1200,
      "v": 127
    },
    {
      "midi": 94,
      "hit": false,
      "t": 358500,
      "d": 300,
      "v": 127
    },
    {
      "midi": 96,
      "hit": false,
      "t": 358800,
      "d": 300,
      "v": 127
    },
    {
      "midi": 97,
      "hit": false,
      "t": 359100,
      "d": 300,
      "v": 127
    },
    {
      "midi": 94,
      "hit": false,
      "t": 359400,
      "d": 300,
      "v": 127
    },
    {
      "midi": 52,
      "hit": false,
      "t": 359400,
      "d": 600,
      "v": 127
    },
    {
      "midi": 55,
      "hit": false,
      "t": 359400,
      "d": 600,
      "v": 127
    },
    {
      "midi": 58,
      "hit": false,
      "t": 359400,
      "d": 600,
      "v": 127
    },
    {
      "midi": 61,
      "hit": false,
      "t": 359400,
      "d": 600,
      "v": 127
    },
    {
      "midi": 85,
      "hit": false,
      "t": 359700,
      "d": 300,
      "v": 127
    },
    {
      "midi": 84,
      "hit": false,
      "t": 360000,
      "d": 300,
      "v": 127
    },
    {
      "midi": 60,
      "hit": false,
      "t": 360000,
      "d": 600,
      "v": 127
    },
    {
      "midi": 86,
      "hit": false,
      "t": 360300,
      "d": 300,
      "v": 127
    },
    {
      "midi": 87,
      "hit": false,
      "t": 360600,
      "d": 300,
      "v": 127
    },
    {
      "midi": 57,
      "hit": false,
      "t": 360600,
      "d": 300,
      "v": 127
    },
    {
      "midi": 88,
      "hit": false,
      "t": 360900,
      "d": 300,
      "v": 127
    },
    {
      "midi": 55,
      "hit": false,
      "t": 360900,
      "d": 300,
      "v": 127
    },
    {
      "midi": 89,
      "hit": false,
      "t": 361200,
      "d": 300,
      "v": 127
    },
    {
      "midi": 57,
      "hit": false,
      "t": 361200,
      "d": 600,
      "v": 127
    },
    {
      "midi": 91,
      "hit": false,
      "t": 361500,
      "d": 300,
      "v": 127
    },
    {
      "midi": 87,
      "hit": false,
      "t": 361800,
      "d": 300,
      "v": 127
    },
    {
      "midi": 60,
      "hit": false,
      "t": 361800,
      "d": 600,
      "v": 127
    },
    {
      "midi": 63,
      "hit": false,
      "t": 361800,
      "d": 600,
      "v": 127
    },
    {
      "midi": 84,
      "hit": false,
      "t": 362100,
      "d": 300,
      "v": 127
    },
    {
      "midi": 82,
      "hit": false,
      "t": 362400,
      "d": 300,
      "v": 127
    },
    {
      "midi": 58,
      "hit": false,
      "t": 362400,
      "d": 2400,
      "v": 127
    },
    {
      "midi": 62,
      "hit": false,
      "t": 362400,
      "d": 2400,
      "v": 127
    },
    {
      "midi": 77,
      "hit": false,
      "t": 362700,
      "d": 300,
      "v": 127
    },
    {
      "midi": 74,
      "hit": false,
      "t": 363000,
      "d": 300,
      "v": 127
    },
    {
      "midi": 70,
      "hit": false,
      "t": 363300,
      "d": 300,
      "v": 127
    },
    {
      "midi": 69,
      "hit": false,
      "t": 363600,
      "d": 300,
      "v": 127
    },
    {
      "midi": 70,
      "hit": false,
      "t": 363900,
      "d": 300,
      "v": 127
    },
    {
      "midi": 72,
      "hit": false,
      "t": 364200,
      "d": 300,
      "v": 127
    },
    {
      "midi": 73,
      "hit": false,
      "t": 364500,
      "d": 300,
      "v": 127
    },
    {
      "midi": 74,
      "hit": false,
      "t": 364800,
      "d": 600,
      "v": 127
    },
    {
      "midi": 46,
      "hit": false,
      "t": 364800,
      "d": 600,
      "v": 127
    },
    {
      "midi": 73,
      "hit": false,
      "t": 365400,
      "d": 300,
      "v": 127
    },
    {
      "midi": 53,
      "hit": false,
      "t": 365400,
      "d": 1200,
      "v": 127
    },
    {
      "midi": 58,
      "hit": false,
      "t": 365400,
      "d": 1200,
      "v": 127
    },
    {
      "midi": 62,
      "hit": false,
      "t": 365400,
      "d": 1200,
      "v": 127
    },
    {
      "midi": 74,
      "hit": false,
      "t": 365700,
      "d": 300,
      "v": 127
    },
    {
      "midi": 73,
      "hit": false,
      "t": 366000,
      "d": 300,
      "v": 127
    },
    {
      "midi": 74,
      "hit": false,
      "t": 366300,
      "d": 300,
      "v": 127
    },
    {
      "midi": 70,
      "hit": false,
      "t": 366600,
      "d": 300,
      "v": 127
    },
    {
      "midi": 53,
      "hit": false,
      "t": 366600,
      "d": 600,
      "v": 127
    },
    {
      "midi": 58,
      "hit": false,
      "t": 366600,
      "d": 600,
      "v": 127
    },
    {
      "midi": 62,
      "hit": false,
      "t": 366600,
      "d": 600,
      "v": 127
    },
    {
      "midi": 67,
      "hit": false,
      "t": 366900,
      "d": 300,
      "v": 127
    },
    {
      "midi": 67,
      "hit": false,
      "t": 367200,
      "d": 1200,
      "v": 127
    },
    {
      "midi": 50,
      "hit": false,
      "t": 367200,
      "d": 600,
      "v": 127
    },
    {
      "midi": 53,
      "hit": false,
      "t": 367800,
      "d": 1200,
      "v": 127
    },
    {
      "midi": 58,
      "hit": false,
      "t": 367800,
      "d": 1200,
      "v": 127
    },
    {
      "midi": 62,
      "hit": false,
      "t": 367800,
      "d": 1200,
      "v": 127
    },
    {
      "midi": 65,
      "hit": false,
      "t": 368400,
      "d": 900,
      "v": 127
    },
    {
      "midi": 53,
      "hit": false,
      "t": 369000,
      "d": 600,
      "v": 127
    },
    {
      "midi": 58,
      "hit": false,
      "t": 369000,
      "d": 600,
      "v": 127
    },
    {
      "midi": 62,
      "hit": false,
      "t": 369000,
      "d": 600,
      "v": 127
    },
    {
      "midi": 70,
      "hit": false,
      "t": 369300,
      "d": 300,
      "v": 127
    },
    {
      "midi": 69,
      "hit": false,
      "t": 369600,
      "d": 900,
      "v": 127
    },
    {
      "midi": 48,
      "hit": false,
      "t": 369600,
      "d": 600,
      "v": 127
    },
    {
      "midi": 53,
      "hit": false,
      "t": 370200,
      "d": 1200,
      "v": 127
    },
    {
      "midi": 57,
      "hit": false,
      "t": 370200,
      "d": 1200,
      "v": 127
    },
    {
      "midi": 63,
      "hit": false,
      "t": 370200,
      "d": 1200,
      "v": 127
    },
    {
      "midi": 70,
      "hit": false,
      "t": 370500,
      "d": 300,
      "v": 127
    },
    {
      "midi": 71,
      "hit": false,
      "t": 370800,
      "d": 300,
      "v": 127
    },
    {
      "midi": 72,
      "hit": false,
      "t": 371100,
      "d": 300,
      "v": 127
    },
    {
      "midi": 73,
      "hit": false,
      "t": 371400,
      "d": 300,
      "v": 127
    },
    {
      "midi": 53,
      "hit": false,
      "t": 371400,
      "d": 600,
      "v": 127
    },
    {
      "midi": 57,
      "hit": false,
      "t": 371400,
      "d": 600,
      "v": 127
    },
    {
      "midi": 63,
      "hit": false,
      "t": 371400,
      "d": 600,
      "v": 127
    },
    {
      "midi": 74,
      "hit": false,
      "t": 371700,
      "d": 300,
      "v": 127
    },
    {
      "midi": 77,
      "hit": false,
      "t": 372000,
      "d": 1200,
      "v": 127
    },
    {
      "midi": 41,
      "hit": false,
      "t": 372000,
      "d": 600,
      "v": 127
    },
    {
      "midi": 53,
      "hit": false,
      "t": 372600,
      "d": 1200,
      "v": 127
    },
    {
      "midi": 57,
      "hit": false,
      "t": 372600,
      "d": 1200,
      "v": 127
    },
    {
      "midi": 60,
      "hit": false,
      "t": 372600,
      "d": 1200,
      "v": 127
    },
    {
      "midi": 75,
      "hit": false,
      "t": 373200,
      "d": 1200,
      "v": 127
    },
    {
      "midi": 53,
      "hit": false,
      "t": 373800,
      "d": 600,
      "v": 127
    },
    {
      "midi": 57,
      "hit": false,
      "t": 373800,
      "d": 600,
      "v": 127
    },
    {
      "midi": 60,
      "hit": false,
      "t": 373800,
      "d": 600,
      "v": 127
    },
    {
      "midi": 74,
      "hit": false,
      "t": 374400,
      "d": 600,
      "v": 127
    },
    {
      "midi": 46,
      "hit": false,
      "t": 374400,
      "d": 600,
      "v": 127
    },
    {
      "midi": 76,
      "hit": false,
      "t": 375000,
      "d": 300,
      "v": 127
    },
    {
      "midi": 53,
      "hit": false,
      "t": 375000,
      "d": 1200,
      "v": 127
    },
    {
      "midi": 58,
      "hit": false,
      "t": 375000,
      "d": 1200,
      "v": 127
    },
    {
      "midi": 62,
      "hit": false,
      "t": 375000,
      "d": 1200,
      "v": 127
    },
    {
      "midi": 77,
      "hit": false,
      "t": 375300,
      "d": 300,
      "v": 127
    },
    {
      "midi": 81,
      "hit": false,
      "t": 375600,
      "d": 300,
      "v": 127
    },
    {
      "midi": 82,
      "hit": false,
      "t": 375900,
      "d": 300,
      "v": 127
    },
    {
      "midi": 77,
      "hit": false,
      "t": 376200,
      "d": 300,
      "v": 127
    },
    {
      "midi": 53,
      "hit": false,
      "t": 376200,
      "d": 600,
      "v": 127
    },
    {
      "midi": 58,
      "hit": false,
      "t": 376200,
      "d": 600,
      "v": 127
    },
    {
      "midi": 62,
      "hit": false,
      "t": 376200,
      "d": 600,
      "v": 127
    },
    {
      "midi": 74,
      "hit": false,
      "t": 376500,
      "d": 300,
      "v": 127
    },
    {
      "midi": 72,
      "hit": false,
      "t": 376800,
      "d": 600,
      "v": 127
    },
    {
      "midi": 39,
      "hit": false,
      "t": 376800,
      "d": 600,
      "v": 127
    },
    {
      "midi": 78,
      "hit": false,
      "t": 377400,
      "d": 300,
      "v": 127
    },
    {
      "midi": 51,
      "hit": false,
      "t": 377400,
      "d": 1200,
      "v": 127
    },
    {
      "midi": 55,
      "hit": false,
      "t": 377400,
      "d": 1200,
      "v": 127
    },
    {
      "midi": 58,
      "hit": false,
      "t": 377400,
      "d": 1200,
      "v": 127
    },
    {
      "midi": 60,
      "hit": false,
      "t": 377400,
      "d": 1200,
      "v": 127
    },
    {
      "midi": 79,
      "hit": false,
      "t": 377700,
      "d": 300,
      "v": 127
    },
    {
      "midi": 81,
      "hit": false,
      "t": 378000,
      "d": 300,
      "v": 127
    },
    {
      "midi": 82,
      "hit": false,
      "t": 378300,
      "d": 300,
      "v": 127
    },
    {
      "midi": 79,
      "hit": false,
      "t": 378600,
      "d": 300,
      "v": 127
    },
    {
      "midi": 51,
      "hit": false,
      "t": 378600,
      "d": 600,
      "v": 127
    },
    {
      "midi": 55,
      "hit": false,
      "t": 378600,
      "d": 600,
      "v": 127
    },
    {
      "midi": 58,
      "hit": false,
      "t": 378600,
      "d": 600,
      "v": 127
    },
    {
      "midi": 60,
      "hit": false,
      "t": 378600,
      "d": 600,
      "v": 127
    },
    {
      "midi": 72,
      "hit": false,
      "t": 378900,
      "d": 300,
      "v": 127
    },
    {
      "midi": 72,
      "hit": false,
      "t": 379200,
      "d": 300,
      "v": 127
    },
    {
      "midi": 40,
      "hit": false,
      "t": 379200,
      "d": 600,
      "v": 127
    },
    {
      "midi": 84,
      "hit": false,
      "t": 379500,
      "d": 300,
      "v": 127
    },
    {
      "midi": 83,
      "hit": false,
      "t": 379800,
      "d": 300,
      "v": 127
    },
    {
      "midi": 60,
      "hit": false,
      "t": 379800,
      "d": 600,
      "v": 127
    },
    {
      "midi": 82,
      "hit": false,
      "t": 380100,
      "d": 300,
      "v": 127
    },
    {
      "midi": 81,
      "hit": false,
      "t": 380400,
      "d": 300,
      "v": 127
    },
    {
      "midi": 57,
      "hit": false,
      "t": 380400,
      "d": 600,
      "v": 127
    },
    {
      "midi": 72,
      "hit": false,
      "t": 380700,
      "d": 300,
      "v": 127
    },
    {
      "midi": 70,
      "hit": false,
      "t": 381000,
      "d": 300,
      "v": 127
    },
    {
      "midi": 52,
      "hit": false,
      "t": 381000,
      "d": 600,
      "v": 127
    },
    {
      "midi": 58,
      "hit": false,
      "t": 381000,
      "d": 600,
      "v": 127
    },
    {
      "midi": 60,
      "hit": false,
      "t": 381000,
      "d": 600,
      "v": 127
    },
    {
      "midi": 79,
      "hit": false,
      "t": 381300,
      "d": 300,
      "v": 127
    },
    {
      "midi": 69,
      "hit": false,
      "t": 381600,
      "d": 300,
      "v": 127
    },
    {
      "midi": 41,
      "hit": false,
      "t": 381600,
      "d": 600,
      "v": 127
    },
    {
      "midi": 77,
      "hit": false,
      "t": 381900,
      "d": 300,
      "v": 127
    },
    {
      "midi": 72,
      "hit": false,
      "t": 382200,
      "d": 300,
      "v": 127
    },
    {
      "midi": 60,
      "hit": false,
      "t": 382200,
      "d": 600,
      "v": 127
    },
    {
      "midi": 75,
      "hit": false,
      "t": 382500,
      "d": 300,
      "v": 127
    },
    {
      "midi": 70,
      "hit": false,
      "t": 382800,
      "d": 300,
      "v": 127
    },
    {
      "midi": 58,
      "hit": false,
      "t": 382800,
      "d": 600,
      "v": 127
    },
    {
      "midi": 62,
      "hit": false,
      "t": 382800,
      "d": 600,
      "v": 127
    },
    {
      "midi": 74,
      "hit": false,
      "t": 383100,
      "d": 300,
      "v": 127
    },
    {
      "midi": 69,
      "hit": false,
      "t": 383400,
      "d": 300,
      "v": 127
    },
    {
      "midi": 60,
      "hit": false,
      "t": 383400,
      "d": 600,
      "v": 127
    },
    {
      "midi": 63,
      "hit": false,
      "t": 383400,
      "d": 600,
      "v": 127
    },
    {
      "midi": 72,
      "hit": false,
      "t": 383700,
      "d": 300,
      "v": 127
    },
    {
      "midi": 70,
      "hit": false,
      "t": 384000,
      "d": 300,
      "v": 127
    },
    {
      "midi": 46,
      "hit": false,
      "t": 384000,
      "d": 600,
      "v": 127
    },
    {
      "midi": 86,
      "hit": false,
      "t": 384300,
      "d": 300,
      "v": 127
    },
    {
      "midi": 85,
      "hit": false,
      "t": 384600,
      "d": 300,
      "v": 127
    },
    {
      "midi": 53,
      "hit": false,
      "t": 384600,
      "d": 1200,
      "v": 127
    },
    {
      "midi": 58,
      "hit": false,
      "t": 384600,
      "d": 1200,
      "v": 127
    },
    {
      "midi": 62,
      "hit": false,
      "t": 384600,
      "d": 1200,
      "v": 127
    },
    {
      "midi": 86,
      "hit": false,
      "t": 384900,
      "d": 300,
      "v": 127
    },
    {
      "midi": 85,
      "hit": false,
      "t": 385200,
      "d": 300,
      "v": 127
    },
    {
      "midi": 86,
      "hit": false,
      "t": 385500,
      "d": 300,
      "v": 127
    },
    {
      "midi": 82,
      "hit": false,
      "t": 385800,
      "d": 300,
      "v": 127
    },
    {
      "midi": 53,
      "hit": false,
      "t": 385800,
      "d": 600,
      "v": 127
    },
    {
      "midi": 58,
      "hit": false,
      "t": 385800,
      "d": 600,
      "v": 127
    },
    {
      "midi": 62,
      "hit": false,
      "t": 385800,
      "d": 600,
      "v": 127
    },
    {
      "midi": 79,
      "hit": false,
      "t": 386100,
      "d": 300,
      "v": 127
    },
    {
      "midi": 79,
      "hit": false,
      "t": 386400,
      "d": 1200,
      "v": 127
    },
    {
      "midi": 50,
      "hit": false,
      "t": 386400,
      "d": 600,
      "v": 127
    },
    {
      "midi": 53,
      "hit": false,
      "t": 387000,
      "d": 1200,
      "v": 127
    },
    {
      "midi": 58,
      "hit": false,
      "t": 387000,
      "d": 1200,
      "v": 127
    },
    {
      "midi": 65,
      "hit": false,
      "t": 387000,
      "d": 1200,
      "v": 127
    },
    {
      "midi": 77,
      "hit": false,
      "t": 387600,
      "d": 900,
      "v": 127
    },
    {
      "midi": 53,
      "hit": false,
      "t": 388200,
      "d": 600,
      "v": 127
    },
    {
      "midi": 58,
      "hit": false,
      "t": 388200,
      "d": 600,
      "v": 127
    },
    {
      "midi": 65,
      "hit": false,
      "t": 388200,
      "d": 600,
      "v": 127
    },
    {
      "midi": 82,
      "hit": false,
      "t": 388500,
      "d": 300,
      "v": 127
    },
    {
      "midi": 84,
      "hit": false,
      "t": 388800,
      "d": 900,
      "v": 127
    },
    {
      "midi": 48,
      "hit": false,
      "t": 388800,
      "d": 600,
      "v": 127
    },
    {
      "midi": 53,
      "hit": false,
      "t": 389400,
      "d": 1200,
      "v": 127
    },
    {
      "midi": 57,
      "hit": false,
      "t": 389400,
      "d": 1200,
      "v": 127
    },
    {
      "midi": 63,
      "hit": false,
      "t": 389400,
      "d": 1200,
      "v": 127
    },
    {
      "midi": 82,
      "hit": false,
      "t": 389700,
      "d": 300,
      "v": 127
    },
    {
      "midi": 83,
      "hit": false,
      "t": 390000,
      "d": 300,
      "v": 127
    },
    {
      "midi": 84,
      "hit": false,
      "t": 390300,
      "d": 300,
      "v": 127
    },
    {
      "midi": 85,
      "hit": false,
      "t": 390600,
      "d": 300,
      "v": 127
    },
    {
      "midi": 53,
      "hit": false,
      "t": 390600,
      "d": 600,
      "v": 127
    },
    {
      "midi": 57,
      "hit": false,
      "t": 390600,
      "d": 600,
      "v": 127
    },
    {
      "midi": 63,
      "hit": false,
      "t": 390600,
      "d": 600,
      "v": 127
    },
    {
      "midi": 86,
      "hit": false,
      "t": 390900,
      "d": 300,
      "v": 127
    },
    {
      "midi": 89,
      "hit": false,
      "t": 391200,
      "d": 900,
      "v": 127
    },
    {
      "midi": 41,
      "hit": false,
      "t": 391200,
      "d": 600,
      "v": 127
    },
    {
      "midi": 53,
      "hit": false,
      "t": 391800,
      "d": 1200,
      "v": 127
    },
    {
      "midi": 57,
      "hit": false,
      "t": 391800,
      "d": 1200,
      "v": 127
    },
    {
      "midi": 60,
      "hit": false,
      "t": 391800,
      "d": 1200,
      "v": 127
    },
    {
      "midi": 88,
      "hit": false,
      "t": 392100,
      "d": 300,
      "v": 127
    },
    {
      "midi": 87,
      "hit": false,
      "t": 392400,
      "d": 1200,
      "v": 127
    },
    {
      "midi": 53,
      "hit": false,
      "t": 393000,
      "d": 600,
      "v": 127
    },
    {
      "midi": 57,
      "hit": false,
      "t": 393000,
      "d": 600,
      "v": 127
    },
    {
      "midi": 60,
      "hit": false,
      "t": 393000,
      "d": 600,
      "v": 127
    },
    {
      "midi": 86,
      "hit": false,
      "t": 393600,
      "d": 600,
      "v": 127
    },
    {
      "midi": 46,
      "hit": false,
      "t": 393600,
      "d": 600,
      "v": 127
    },
    {
      "midi": 88,
      "hit": false,
      "t": 394200,
      "d": 300,
      "v": 127
    },
    {
      "midi": 53,
      "hit": false,
      "t": 394200,
      "d": 1200,
      "v": 127
    },
    {
      "midi": 58,
      "hit": false,
      "t": 394200,
      "d": 1200,
      "v": 127
    },
    {
      "midi": 62,
      "hit": false,
      "t": 394200,
      "d": 1200,
      "v": 127
    },
    {
      "midi": 89,
      "hit": false,
      "t": 394500,
      "d": 300,
      "v": 127
    },
    {
      "midi": 93,
      "hit": false,
      "t": 394800,
      "d": 300,
      "v": 127
    },
    {
      "midi": 94,
      "hit": false,
      "t": 395100,
      "d": 300,
      "v": 127
    },
    {
      "midi": 89,
      "hit": false,
      "t": 395400,
      "d": 300,
      "v": 127
    },
    {
      "midi": 53,
      "hit": false,
      "t": 395400,
      "d": 600,
      "v": 127
    },
    {
      "midi": 58,
      "hit": false,
      "t": 395400,
      "d": 600,
      "v": 127
    },
    {
      "midi": 62,
      "hit": false,
      "t": 395400,
      "d": 600,
      "v": 127
    },
    {
      "midi": 86,
      "hit": false,
      "t": 395700,
      "d": 300,
      "v": 127
    },
    {
      "midi": 85,
      "hit": false,
      "t": 396000,
      "d": 600,
      "v": 127
    },
    {
      "midi": 40,
      "hit": false,
      "t": 396000,
      "d": 600,
      "v": 127
    },
    {
      "midi": 91,
      "hit": false,
      "t": 396600,
      "d": 300,
      "v": 127
    },
    {
      "midi": 52,
      "hit": false,
      "t": 396600,
      "d": 1200,
      "v": 127
    },
    {
      "midi": 55,
      "hit": false,
      "t": 396600,
      "d": 1200,
      "v": 127
    },
    {
      "midi": 58,
      "hit": false,
      "t": 396600,
      "d": 1200,
      "v": 127
    },
    {
      "midi": 61,
      "hit": false,
      "t": 396600,
      "d": 1200,
      "v": 127
    },
    {
      "midi": 94,
      "hit": false,
      "t": 396900,
      "d": 300,
      "v": 127
    },
    {
      "midi": 96,
      "hit": false,
      "t": 397200,
      "d": 300,
      "v": 127
    },
    {
      "midi": 97,
      "hit": false,
      "t": 397500,
      "d": 300,
      "v": 127
    },
    {
      "midi": 94,
      "hit": false,
      "t": 397800,
      "d": 300,
      "v": 127
    },
    {
      "midi": 52,
      "hit": false,
      "t": 397800,
      "d": 600,
      "v": 127
    },
    {
      "midi": 55,
      "hit": false,
      "t": 397800,
      "d": 600,
      "v": 127
    },
    {
      "midi": 58,
      "hit": false,
      "t": 397800,
      "d": 600,
      "v": 127
    },
    {
      "midi": 61,
      "hit": false,
      "t": 397800,
      "d": 600,
      "v": 127
    },
    {
      "midi": 85,
      "hit": false,
      "t": 398100,
      "d": 300,
      "v": 127
    },
    {
      "midi": 84,
      "hit": false,
      "t": 398400,
      "d": 300,
      "v": 127
    },
    {
      "midi": 60,
      "hit": false,
      "t": 398400,
      "d": 600,
      "v": 127
    },
    {
      "midi": 86,
      "hit": false,
      "t": 398700,
      "d": 300,
      "v": 127
    },
    {
      "midi": 87,
      "hit": false,
      "t": 399000,
      "d": 300,
      "v": 127
    },
    {
      "midi": 57,
      "hit": false,
      "t": 399000,
      "d": 300,
      "v": 127
    },
    {
      "midi": 88,
      "hit": false,
      "t": 399300,
      "d": 300,
      "v": 127
    },
    {
      "midi": 55,
      "hit": false,
      "t": 399300,
      "d": 300,
      "v": 127
    },
    {
      "midi": 89,
      "hit": false,
      "t": 399600,
      "d": 300,
      "v": 127
    },
    {
      "midi": 57,
      "hit": false,
      "t": 399600,
      "d": 600,
      "v": 127
    },
    {
      "midi": 91,
      "hit": false,
      "t": 399900,
      "d": 300,
      "v": 127
    },
    {
      "midi": 87,
      "hit": false,
      "t": 400200,
      "d": 300,
      "v": 127
    },
    {
      "midi": 60,
      "hit": false,
      "t": 400200,
      "d": 600,
      "v": 127
    },
    {
      "midi": 63,
      "hit": false,
      "t": 400200,
      "d": 600,
      "v": 127
    },
    {
      "midi": 84,
      "hit": false,
      "t": 400500,
      "d": 300,
      "v": 127
    },
    {
      "midi": 82,
      "hit": false,
      "t": 400800,
      "d": 300,
      "v": 127
    },
    {
      "midi": 58,
      "hit": false,
      "t": 400800,
      "d": 2400,
      "v": 127
    },
    {
      "midi": 62,
      "hit": false,
      "t": 400800,
      "d": 2400,
      "v": 127
    },
    {
      "midi": 77,
      "hit": false,
      "t": 401100,
      "d": 300,
      "v": 127
    },
    {
      "midi": 74,
      "hit": false,
      "t": 401400,
      "d": 300,
      "v": 127
    },
    {
      "midi": 70,
      "hit": false,
      "t": 401700,
      "d": 300,
      "v": 127
    },
    {
      "midi": 69,
      "hit": false,
      "t": 402000,
      "d": 300,
      "v": 127
    },
    {
      "midi": 70,
      "hit": false,
      "t": 402300,
      "d": 300,
      "v": 127
    },
    {
      "midi": 72,
      "hit": false,
      "t": 402600,
      "d": 300,
      "v": 127
    },
    {
      "midi": 73,
      "hit": false,
      "t": 402900,
      "d": 300,
      "v": 127
    },
    {
      "midi": 74,
      "hit": false,
      "t": 403200,
      "d": 600,
      "v": 127
    },
    {
      "midi": 50,
      "hit": false,
      "t": 403200,
      "d": 600,
      "v": 127
    },
    {
      "midi": 66,
      "hit": false,
      "t": 403800,
      "d": 1200,
      "v": 127
    },
    {
      "midi": 69,
      "hit": false,
      "t": 403800,
      "d": 1200,
      "v": 127
    },
    {
      "midi": 72,
      "hit": false,
      "t": 403800,
      "d": 1200,
      "v": 127
    },
    {
      "midi": 74,
      "hit": false,
      "t": 403800,
      "d": 1200,
      "v": 127
    },
    {
      "midi": 54,
      "hit": false,
      "t": 403800,
      "d": 300,
      "v": 127
    },
    {
      "midi": 57,
      "hit": false,
      "t": 404100,
      "d": 300,
      "v": 127
    },
    {
      "midi": 61,
      "hit": false,
      "t": 404400,
      "d": 300,
      "v": 127
    },
    {
      "midi": 62,
      "hit": false,
      "t": 404700,
      "d": 300,
      "v": 127
    },
    {
      "midi": 66,
      "hit": false,
      "t": 405000,
      "d": 600,
      "v": 127
    },
    {
      "midi": 69,
      "hit": false,
      "t": 405000,
      "d": 600,
      "v": 127
    },
    {
      "midi": 72,
      "hit": false,
      "t": 405000,
      "d": 600,
      "v": 127
    },
    {
      "midi": 74,
      "hit": false,
      "t": 405000,
      "d": 600,
      "v": 127
    },
    {
      "midi": 50,
      "hit": false,
      "t": 405000,
      "d": 300,
      "v": 127
    },
    {
      "midi": 62,
      "hit": false,
      "t": 405300,
      "d": 300,
      "v": 127
    },
    {
      "midi": 46,
      "hit": false,
      "t": 405600,
      "d": 300,
      "v": 127
    },
    {
      "midi": 58,
      "hit": false,
      "t": 405900,
      "d": 300,
      "v": 127
    },
    {
      "midi": 67,
      "hit": false,
      "t": 406200,
      "d": 1200,
      "v": 127
    },
    {
      "midi": 70,
      "hit": false,
      "t": 406200,
      "d": 1200,
      "v": 127
    },
    {
      "midi": 74,
      "hit": false,
      "t": 406200,
      "d": 1200,
      "v": 127
    },
    {
      "midi": 79,
      "hit": false,
      "t": 406200,
      "d": 1200,
      "v": 127
    },
    {
      "midi": 45,
      "hit": false,
      "t": 406200,
      "d": 300,
      "v": 127
    },
    {
      "midi": 57,
      "hit": false,
      "t": 406500,
      "d": 300,
      "v": 127
    },
    {
      "midi": 43,
      "hit": false,
      "t": 406800,
      "d": 300,
      "v": 127
    },
    {
      "midi": 55,
      "hit": false,
      "t": 407100,
      "d": 300,
      "v": 127
    },
    {
      "midi": 67,
      "hit": false,
      "t": 407400,
      "d": 600,
      "v": 127
    },
    {
      "midi": 70,
      "hit": false,
      "t": 407400,
      "d": 600,
      "v": 127
    },
    {
      "midi": 74,
      "hit": false,
      "t": 407400,
      "d": 600,
      "v": 127
    },
    {
      "midi": 79,
      "hit": false,
      "t": 407400,
      "d": 600,
      "v": 127
    },
    {
      "midi": 42,
      "hit": false,
      "t": 407400,
      "d": 300,
      "v": 127
    },
    {
      "midi": 54,
      "hit": false,
      "t": 407700,
      "d": 300,
      "v": 127
    },
    {
      "midi": 43,
      "hit": false,
      "t": 408000,
      "d": 300,
      "v": 127
    },
    {
      "midi": 55,
      "hit": false,
      "t": 408300,
      "d": 300,
      "v": 127
    },
    {
      "midi": 74,
      "hit": false,
      "t": 408600,
      "d": 600,
      "v": 127
    },
    {
      "midi": 45,
      "hit": false,
      "t": 408600,
      "d": 300,
      "v": 127
    },
    {
      "midi": 57,
      "hit": false,
      "t": 408900,
      "d": 300,
      "v": 127
    },
    {
      "midi": 67,
      "hit": false,
      "t": 409200,
      "d": 600,
      "v": 127
    },
    {
      "midi": 46,
      "hit": false,
      "t": 409200,
      "d": 300,
      "v": 127
    },
    {
      "midi": 58,
      "hit": false,
      "t": 409500,
      "d": 300,
      "v": 127
    },
    {
      "midi": 65,
      "hit": false,
      "t": 409800,
      "d": 600,
      "v": 127
    },
    {
      "midi": 67,
      "hit": false,
      "t": 409800,
      "d": 600,
      "v": 127
    },
    {
      "midi": 74,
      "hit": false,
      "t": 409800,
      "d": 600,
      "v": 127
    },
    {
      "midi": 77,
      "hit": false,
      "t": 409800,
      "d": 600,
      "v": 127
    },
    {
      "midi": 47,
      "hit": false,
      "t": 409800,
      "d": 300,
      "v": 127
    },
    {
      "midi": 59,
      "hit": false,
      "t": 410100,
      "d": 300,
      "v": 127
    },
    {
      "midi": 76,
      "hit": false,
      "t": 410400,
      "d": 1800,
      "v": 127
    },
    {
      "midi": 48,
      "hit": false,
      "t": 410400,
      "d": 600,
      "v": 127
    },
    {
      "midi": 52,
      "hit": false,
      "t": 411000,
      "d": 300,
      "v": 127
    },
    {
      "midi": 55,
      "hit": false,
      "t": 411300,
      "d": 300,
      "v": 127
    },
    {
      "midi": 59,
      "hit": false,
      "t": 411600,
      "d": 300,
      "v": 127
    },
    {
      "midi": 60,
      "hit": false,
      "t": 411900,
      "d": 300,
      "v": 127
    },
    {
      "midi": 70,
      "hit": false,
      "t": 412200,
      "d": 600,
      "v": 127
    },
    {
      "midi": 48,
      "hit": false,
      "t": 412200,
      "d": 300,
      "v": 127
    },
    {
      "midi": 60,
      "hit": false,
      "t": 412500,
      "d": 300,
      "v": 127
    },
    {
      "midi": 41,
      "hit": false,
      "t": 412800,
      "d": 600,
      "v": 127
    },
    {
      "midi": 69,
      "hit": false,
      "t": 413400,
      "d": 1200,
      "v": 127
    },
    {
      "midi": 72,
      "hit": false,
      "t": 413400,
      "d": 1200,
      "v": 127
    },
    {
      "midi": 77,
      "hit": false,
      "t": 413400,
      "d": 1200,
      "v": 127
    },
    {
      "midi": 81,
      "hit": false,
      "t": 413400,
      "d": 1200,
      "v": 127
    },
    {
      "midi": 45,
      "hit": false,
      "t": 413400,
      "d": 300,
      "v": 127
    },
    {
      "midi": 48,
      "hit": false,
      "t": 413700,
      "d": 300,
      "v": 127
    },
    {
      "midi": 52,
      "hit": false,
      "t": 414000,
      "d": 300,
      "v": 127
    },
    {
      "midi": 53,
      "hit": false,
      "t": 414300,
      "d": 300,
      "v": 127
    },
    {
      "midi": 69,
      "hit": false,
      "t": 414600,
      "d": 600,
      "v": 127
    },
    {
      "midi": 72,
      "hit": false,
      "t": 414600,
      "d": 600,
      "v": 127
    },
    {
      "midi": 77,
      "hit": false,
      "t": 414600,
      "d": 600,
      "v": 127
    },
    {
      "midi": 81,
      "hit": false,
      "t": 414600,
      "d": 600,
      "v": 127
    },
    {
      "midi": 57,
      "hit": false,
      "t": 414600,
      "d": 300,
      "v": 127
    },
    {
      "midi": 60,
      "hit": false,
      "t": 414900,
      "d": 300,
      "v": 127
    },
    {
      "midi": 74,
      "hit": false,
      "t": 415200,
      "d": 600,
      "v": 127
    },
    {
      "midi": 46,
      "hit": false,
      "t": 415200,
      "d": 600,
      "v": 127
    },
    {
      "midi": 79,
      "hit": false,
      "t": 415800,
      "d": 300,
      "v": 127
    },
    {
      "midi": 53,
      "hit": false,
      "t": 415800,
      "d": 1200,
      "v": 127
    },
    {
      "midi": 62,
      "hit": false,
      "t": 415800,
      "d": 1200,
      "v": 127
    },
    {
      "midi": 65,
      "hit": false,
      "t": 415800,
      "d": 1200,
      "v": 127
    },
    {
      "midi": 82,
      "hit": false,
      "t": 416100,
      "d": 300,
      "v": 127
    },
    {
      "midi": 85,
      "hit": false,
      "t": 416400,
      "d": 300,
      "v": 127
    },
    {
      "midi": 86,
      "hit": false,
      "t": 416700,
      "d": 300,
      "v": 127
    },
    {
      "midi": 91,
      "hit": false,
      "t": 417000,
      "d": 300,
      "v": 127
    },
    {
      "midi": 53,
      "hit": false,
      "t": 417000,
      "d": 600,
      "v": 127
    },
    {
      "midi": 62,
      "hit": false,
      "t": 417000,
      "d": 600,
      "v": 127
    },
    {
      "midi": 65,
      "hit": false,
      "t": 417000,
      "d": 600,
      "v": 127
    },
    {
      "midi": 94,
      "hit": false,
      "t": 417300,
      "d": 300,
      "v": 127
    },
    {
      "midi": 88,
      "hit": false,
      "t": 417600,
      "d": 300,
      "v": 127
    },
    {
      "midi": 48,
      "hit": false,
      "t": 417600,
      "d": 600,
      "v": 127
    },
    {
      "midi": 96,
      "hit": false,
      "t": 417900,
      "d": 300,
      "v": 127
    },
    {
      "midi": 94,
      "hit": false,
      "t": 418200,
      "d": 300,
      "v": 127
    },
    {
      "midi": 53,
      "hit": false,
      "t": 418200,
      "d": 1200,
      "v": 127
    },
    {
      "midi": 58,
      "hit": false,
      "t": 418200,
      "d": 1200,
      "v": 127
    },
    {
      "midi": 60,
      "hit": false,
      "t": 418200,
      "d": 1200,
      "v": 127
    },
    {
      "midi": 64,
      "hit": false,
      "t": 418200,
      "d": 1200,
      "v": 127
    },
    {
      "midi": 91,
      "hit": false,
      "t": 418500,
      "d": 300,
      "v": 127
    },
    {
      "midi": 88,
      "hit": false,
      "t": 418800,
      "d": 300,
      "v": 127
    },
    {
      "midi": 84,
      "hit": false,
      "t": 419100,
      "d": 300,
      "v": 127
    },
    {
      "midi": 82,
      "hit": false,
      "t": 419400,
      "d": 300,
      "v": 127
    },
    {
      "midi": 60,
      "hit": false,
      "t": 419400,
      "d": 600,
      "v": 127
    },
    {
      "midi": 64,
      "hit": false,
      "t": 419400,
      "d": 600,
      "v": 127
    },
    {
      "midi": 79,
      "hit": false,
      "t": 419700,
      "d": 300,
      "v": 127
    },
    {
      "midi": 77,
      "hit": false,
      "t": 420000,
      "d": 600,
      "v": 127
    },
    {
      "midi": 53,
      "hit": false,
      "t": 420000,
      "d": 300,
      "v": 127
    },
    {
      "midi": 63,
      "hit": false,
      "t": 420300,
      "d": 300,
      "v": 127
    },
    {
      "midi": 69,
      "hit": false,
      "t": 420600,
      "d": 1800,
      "v": 127
    },
    {
      "midi": 72,
      "hit": false,
      "t": 420600,
      "d": 1800,
      "v": 127
    },
    {
      "midi": 75,
      "hit": false,
      "t": 420600,
      "d": 1800,
      "v": 127
    },
    {
      "midi": 77,
      "hit": false,
      "t": 420600,
      "d": 1800,
      "v": 127
    },
    {
      "midi": 60,
      "hit": false,
      "t": 420600,
      "d": 300,
      "v": 127
    },
    {
      "midi": 57,
      "hit": false,
      "t": 420900,
      "d": 300,
      "v": 127
    },
    {
      "midi": 53,
      "hit": false,
      "t": 421200,
      "d": 300,
      "v": 127
    },
    {
      "midi": 51,
      "hit": false,
      "t": 421500,
      "d": 300,
      "v": 127
    },
    {
      "midi": 48,
      "hit": false,
      "t": 421800,
      "d": 300,
      "v": 127
    },
    {
      "midi": 53,
      "hit": false,
      "t": 422100,
      "d": 300,
      "v": 127
    },
    {
      "midi": 82,
      "hit": false,
      "t": 422400,
      "d": 600,
      "v": 127
    },
    {
      "midi": 46,
      "hit": false,
      "t": 422400,
      "d": 600,
      "v": 127
    },
    {
      "midi": 85,
      "hit": false,
      "t": 423000,
      "d": 300,
      "v": 127
    },
    {
      "midi": 53,
      "hit": false,
      "t": 423000,
      "d": 1200,
      "v": 127
    },
    {
      "midi": 58,
      "hit": false,
      "t": 423000,
      "d": 1200,
      "v": 127
    },
    {
      "midi": 62,
      "hit": false,
      "t": 423000,
      "d": 1200,
      "v": 127
    },
    {
      "midi": 86,
      "hit": false,
      "t": 423300,
      "d": 300,
      "v": 127
    },
    {
      "midi": 85,
      "hit": false,
      "t": 423600,
      "d": 300,
      "v": 127
    },
    {
      "midi": 86,
      "hit": false,
      "t": 423900,
      "d": 300,
      "v": 127
    },
    {
      "midi": 89,
      "hit": false,
      "t": 424200,
      "d": 300,
      "v": 127
    },
    {
      "midi": 53,
      "hit": false,
      "t": 424200,
      "d": 600,
      "v": 127
    },
    {
      "midi": 58,
      "hit": false,
      "t": 424200,
      "d": 600,
      "v": 127
    },
    {
      "midi": 62,
      "hit": false,
      "t": 424200,
      "d": 600,
      "v": 127
    },
    {
      "midi": 86,
      "hit": false,
      "t": 424500,
      "d": 300,
      "v": 127
    },
    {
      "midi": 84,
      "hit": false,
      "t": 424800,
      "d": 1200,
      "v": 127
    },
    {
      "midi": 50,
      "hit": false,
      "t": 424800,
      "d": 600,
      "v": 127
    },
    {
      "midi": 56,
      "hit": false,
      "t": 425400,
      "d": 1200,
      "v": 127
    },
    {
      "midi": 58,
      "hit": false,
      "t": 425400,
      "d": 1200,
      "v": 127
    },
    {
      "midi": 65,
      "hit": false,
      "t": 425400,
      "d": 1200,
      "v": 127
    },
    {
      "midi": 82,
      "hit": false,
      "t": 426000,
      "d": 900,
      "v": 127
    },
    {
      "midi": 56,
      "hit": false,
      "t": 426600,
      "d": 600,
      "v": 127
    },
    {
      "midi": 58,
      "hit": false,
      "t": 426600,
      "d": 600,
      "v": 127
    },
    {
      "midi": 65,
      "hit": false,
      "t": 426600,
      "d": 600,
      "v": 127
    },
    {
      "midi": 82,
      "hit": false,
      "t": 426900,
      "d": 300,
      "v": 127
    },
    {
      "midi": 81,
      "hit": false,
      "t": 427200,
      "d": 300,
      "v": 127
    },
    {
      "midi": 51,
      "hit": false,
      "t": 427200,
      "d": 600,
      "v": 127
    },
    {
      "midi": 82,
      "hit": false,
      "t": 427500,
      "d": 300,
      "v": 127
    },
    {
      "midi": 84,
      "hit": false,
      "t": 427800,
      "d": 300,
      "v": 127
    },
    {
      "midi": 55,
      "hit": false,
      "t": 427800,
      "d": 1200,
      "v": 127
    },
    {
      "midi": 58,
      "hit": false,
      "t": 427800,
      "d": 1200,
      "v": 127
    },
    {
      "midi": 63,
      "hit": false,
      "t": 427800,
      "d": 1200,
      "v": 127
    },
    {
      "midi": 86,
      "hit": false,
      "t": 428100,
      "d": 300,
      "v": 127
    },
    {
      "midi": 87,
      "hit": false,
      "t": 428400,
      "d": 300,
      "v": 127
    },
    {
      "midi": 88,
      "hit": false,
      "t": 428700,
      "d": 300,
      "v": 127
    },
    {
      "midi": 89,
      "hit": false,
      "t": 429000,
      "d": 300,
      "v": 127
    },
    {
      "midi": 55,
      "hit": false,
      "t": 429000,
      "d": 600,
      "v": 127
    },
    {
      "midi": 58,
      "hit": false,
      "t": 429000,
      "d": 600,
      "v": 127
    },
    {
      "midi": 63,
      "hit": false,
      "t": 429000,
      "d": 600,
      "v": 127
    },
    {
      "midi": 90,
      "hit": false,
      "t": 429300,
      "d": 300,
      "v": 127
    },
    {
      "midi": 91,
      "hit": false,
      "t": 429600,
      "d": 900,
      "v": 127
    },
    {
      "midi": 52,
      "hit": false,
      "t": 429600,
      "d": 600,
      "v": 127
    },
    {
      "midi": 58,
      "hit": false,
      "t": 430200,
      "d": 1200,
      "v": 127
    },
    {
      "midi": 61,
      "hit": false,
      "t": 430200,
      "d": 1200,
      "v": 127
    },
    {
      "midi": 67,
      "hit": false,
      "t": 430200,
      "d": 1200,
      "v": 127
    },
    {
      "midi": 93,
      "hit": false,
      "t": 430500,
      "d": 300,
      "v": 127
    },
    {
      "midi": 94,
      "hit": false,
      "t": 430800,
      "d": 1200,
      "v": 127
    },
    {
      "midi": 58,
      "hit": false,
      "t": 431400,
      "d": 600,
      "v": 127
    },
    {
      "midi": 61,
      "hit": false,
      "t": 431400,
      "d": 600,
      "v": 127
    },
    {
      "midi": 67,
      "hit": false,
      "t": 431400,
      "d": 600,
      "v": 127
    },
    {
      "midi": 72,
      "hit": false,
      "t": 432000,
      "d": 600,
      "v": 127
    },
    {
      "midi": 74,
      "hit": false,
      "t": 432000,
      "d": 600,
      "v": 127
    },
    {
      "midi": 55,
      "hit": false,
      "t": 432000,
      "d": 600,
      "v": 127
    },
    {
      "midi": 71,
      "hit": false,
      "t": 432600,
      "d": 300,
      "v": 127
    },
    {
      "midi": 58,
      "hit": false,
      "t": 432600,
      "d": 1200,
      "v": 127
    },
    {
      "midi": 60,
      "hit": false,
      "t": 432600,
      "d": 1200,
      "v": 127
    },
    {
      "midi": 64,
      "hit": false,
      "t": 432600,
      "d": 1200,
      "v": 127
    },
    {
      "midi": 72,
      "hit": false,
      "t": 432900,
      "d": 300,
      "v": 127
    },
    {
      "midi": 76,
      "hit": false,
      "t": 433200,
      "d": 300,
      "v": 127
    },
    {
      "midi": 82,
      "hit": false,
      "t": 433500,
      "d": 300,
      "v": 127
    },
    {
      "midi": 79,
      "hit": false,
      "t": 433800,
      "d": 300,
      "v": 127
    },
    {
      "midi": 58,
      "hit": false,
      "t": 433800,
      "d": 600,
      "v": 127
    },
    {
      "midi": 60,
      "hit": false,
      "t": 433800,
      "d": 600,
      "v": 127
    },
    {
      "midi": 64,
      "hit": false,
      "t": 433800,
      "d": 600,
      "v": 127
    },
    {
      "midi": 76,
      "hit": false,
      "t": 434100,
      "d": 300,
      "v": 127
    },
    {
      "midi": 77,
      "hit": false,
      "t": 434400,
      "d": 600,
      "v": 127
    },
    {
      "midi": 79,
      "hit": false,
      "t": 434400,
      "d": 600,
      "v": 127
    },
    {
      "midi": 53,
      "hit": false,
      "t": 434400,
      "d": 600,
      "v": 127
    },
    {
      "midi": 76,
      "hit": false,
      "t": 435000,
      "d": 300,
      "v": 127
    },
    {
      "midi": 58,
      "hit": false,
      "t": 435000,
      "d": 1200,
      "v": 127
    },
    {
      "midi": 62,
      "hit": false,
      "t": 435000,
      "d": 1200,
      "v": 127
    },
    {
      "midi": 65,
      "hit": false,
      "t": 435000,
      "d": 1200,
      "v": 127
    },
    {
      "midi": 77,
      "hit": false,
      "t": 435300,
      "d": 300,
      "v": 127
    },
    {
      "midi": 82,
      "hit": false,
      "t": 435600,
      "d": 300,
      "v": 127
    },
    {
      "midi": 89,
      "hit": false,
      "t": 435900,
      "d": 300,
      "v": 127
    },
    {
      "midi": 86,
      "hit": false,
      "t": 436200,
      "d": 300,
      "v": 127
    },
    {
      "midi": 58,
      "hit": false,
      "t": 436200,
      "d": 600,
      "v": 127
    },
    {
      "midi": 62,
      "hit": false,
      "t": 436200,
      "d": 600,
      "v": 127
    },
    {
      "midi": 65,
      "hit": false,
      "t": 436200,
      "d": 600,
      "v": 127
    },
    {
      "midi": 82,
      "hit": false,
      "t": 436500,
      "d": 300,
      "v": 127
    },
    {
      "midi": 81,
      "hit": false,
      "t": 436800,
      "d": 300,
      "v": 127
    },
    {
      "midi": 53,
      "hit": false,
      "t": 436800,
      "d": 600,
      "v": 127
    },
    {
      "midi": 82,
      "hit": false,
      "t": 437100,
      "d": 300,
      "v": 127
    },
    {
      "midi": 84,
      "hit": false,
      "t": 437400,
      "d": 300,
      "v": 127
    },
    {
      "midi": 60,
      "hit": false,
      "t": 437400,
      "d": 1200,
      "v": 127
    },
    {
      "midi": 63,
      "hit": false,
      "t": 437400,
      "d": 1200,
      "v": 127
    },
    {
      "midi": 65,
      "hit": false,
      "t": 437400,
      "d": 1200,
      "v": 127
    },
    {
      "midi": 86,
      "hit": false,
      "t": 437700,
      "d": 300,
      "v": 127
    },
    {
      "midi": 87,
      "hit": false,
      "t": 438000,
      "d": 300,
      "v": 127
    },
    {
      "midi": 89,
      "hit": false,
      "t": 438300,
      "d": 300,
      "v": 127
    },
    {
      "midi": 91,
      "hit": false,
      "t": 438600,
      "d": 300,
      "v": 127
    },
    {
      "midi": 60,
      "hit": false,
      "t": 438600,
      "d": 600,
      "v": 127
    },
    {
      "midi": 63,
      "hit": false,
      "t": 438600,
      "d": 600,
      "v": 127
    },
    {
      "midi": 65,
      "hit": false,
      "t": 438600,
      "d": 600,
      "v": 127
    },
    {
      "midi": 93,
      "hit": false,
      "t": 438900,
      "d": 300,
      "v": 127
    },
    {
      "midi": 94,
      "hit": false,
      "t": 439200,
      "d": 300,
      "v": 127
    },
    {
      "midi": 96,
      "hit": false,
      "t": 439200,
      "d": 300,
      "v": 127
    },
    {
      "midi": 46,
      "hit": false,
      "t": 439200,
      "d": 600,
      "v": 127
    },
    {
      "midi": 89,
      "hit": false,
      "t": 439500,
      "d": 300,
      "v": 127
    },
    {
      "midi": 86,
      "hit": false,
      "t": 439800,
      "d": 300,
      "v": 127
    },
    {
      "midi": 58,
      "hit": false,
      "t": 439800,
      "d": 1800,
      "v": 127
    },
    {
      "midi": 62,
      "hit": false,
      "t": 439800,
      "d": 1800,
      "v": 127
    },
    {
      "midi": 65,
      "hit": false,
      "t": 439800,
      "d": 1800,
      "v": 127
    },
    {
      "midi": 82,
      "hit": false,
      "t": 440100,
      "d": 300,
      "v": 127
    },
    {
      "midi": 77,
      "hit": false,
      "t": 440400,
      "d": 300,
      "v": 127
    },
    {
      "midi": 74,
      "hit": false,
      "t": 440700,
      "d": 300,
      "v": 127
    },
    {
      "midi": 70,
      "hit": false,
      "t": 441000,
      "d": 300,
      "v": 127
    },
    {
      "midi": 72,
      "hit": false,
      "t": 441300,
      "d": 300,
      "v": 127
    },
    {
      "midi": 74,
      "hit": false,
      "t": 441600,
      "d": 600,
      "v": 127
    },
    {
      "midi": 50,
      "hit": false,
      "t": 441600,
      "d": 600,
      "v": 127
    },
    {
      "midi": 66,
      "hit": false,
      "t": 442200,
      "d": 1200,
      "v": 127
    },
    {
      "midi": 69,
      "hit": false,
      "t": 442200,
      "d": 1200,
      "v": 127
    },
    {
      "midi": 72,
      "hit": false,
      "t": 442200,
      "d": 1200,
      "v": 127
    },
    {
      "midi": 74,
      "hit": false,
      "t": 442200,
      "d": 1200,
      "v": 127
    },
    {
      "midi": 54,
      "hit": false,
      "t": 442200,
      "d": 300,
      "v": 127
    },
    {
      "midi": 57,
      "hit": false,
      "t": 442500,
      "d": 300,
      "v": 127
    },
    {
      "midi": 61,
      "hit": false,
      "t": 442800,
      "d": 300,
      "v": 127
    },
    {
      "midi": 62,
      "hit": false,
      "t": 443100,
      "d": 300,
      "v": 127
    },
    {
      "midi": 66,
      "hit": false,
      "t": 443400,
      "d": 600,
      "v": 127
    },
    {
      "midi": 69,
      "hit": false,
      "t": 443400,
      "d": 600,
      "v": 127
    },
    {
      "midi": 72,
      "hit": false,
      "t": 443400,
      "d": 600,
      "v": 127
    },
    {
      "midi": 74,
      "hit": false,
      "t": 443400,
      "d": 600,
      "v": 127
    },
    {
      "midi": 50,
      "hit": false,
      "t": 443400,
      "d": 300,
      "v": 127
    },
    {
      "midi": 62,
      "hit": false,
      "t": 443700,
      "d": 300,
      "v": 127
    },
    {
      "midi": 46,
      "hit": false,
      "t": 444000,
      "d": 300,
      "v": 127
    },
    {
      "midi": 58,
      "hit": false,
      "t": 444300,
      "d": 300,
      "v": 127
    },
    {
      "midi": 67,
      "hit": false,
      "t": 444600,
      "d": 1200,
      "v": 127
    },
    {
      "midi": 70,
      "hit": false,
      "t": 444600,
      "d": 1200,
      "v": 127
    },
    {
      "midi": 74,
      "hit": false,
      "t": 444600,
      "d": 1200,
      "v": 127
    },
    {
      "midi": 79,
      "hit": false,
      "t": 444600,
      "d": 1200,
      "v": 127
    },
    {
      "midi": 45,
      "hit": false,
      "t": 444600,
      "d": 300,
      "v": 127
    },
    {
      "midi": 57,
      "hit": false,
      "t": 444900,
      "d": 300,
      "v": 127
    },
    {
      "midi": 43,
      "hit": false,
      "t": 445200,
      "d": 300,
      "v": 127
    },
    {
      "midi": 55,
      "hit": false,
      "t": 445500,
      "d": 300,
      "v": 127
    },
    {
      "midi": 67,
      "hit": false,
      "t": 445800,
      "d": 600,
      "v": 127
    },
    {
      "midi": 70,
      "hit": false,
      "t": 445800,
      "d": 600,
      "v": 127
    },
    {
      "midi": 74,
      "hit": false,
      "t": 445800,
      "d": 600,
      "v": 127
    },
    {
      "midi": 79,
      "hit": false,
      "t": 445800,
      "d": 600,
      "v": 127
    },
    {
      "midi": 42,
      "hit": false,
      "t": 445800,
      "d": 300,
      "v": 127
    },
    {
      "midi": 54,
      "hit": false,
      "t": 446100,
      "d": 300,
      "v": 127
    },
    {
      "midi": 43,
      "hit": false,
      "t": 446400,
      "d": 300,
      "v": 127
    },
    {
      "midi": 55,
      "hit": false,
      "t": 446700,
      "d": 300,
      "v": 127
    },
    {
      "midi": 74,
      "hit": false,
      "t": 447000,
      "d": 600,
      "v": 127
    },
    {
      "midi": 45,
      "hit": false,
      "t": 447000,
      "d": 300,
      "v": 127
    },
    {
      "midi": 57,
      "hit": false,
      "t": 447300,
      "d": 300,
      "v": 127
    },
    {
      "midi": 67,
      "hit": false,
      "t": 447600,
      "d": 600,
      "v": 127
    },
    {
      "midi": 46,
      "hit": false,
      "t": 447600,
      "d": 300,
      "v": 127
    },
    {
      "midi": 58,
      "hit": false,
      "t": 447900,
      "d": 300,
      "v": 127
    },
    {
      "midi": 65,
      "hit": false,
      "t": 448200,
      "d": 600,
      "v": 127
    },
    {
      "midi": 67,
      "hit": false,
      "t": 448200,
      "d": 600,
      "v": 127
    },
    {
      "midi": 74,
      "hit": false,
      "t": 448200,
      "d": 600,
      "v": 127
    },
    {
      "midi": 77,
      "hit": false,
      "t": 448200,
      "d": 600,
      "v": 127
    },
    {
      "midi": 47,
      "hit": false,
      "t": 448200,
      "d": 300,
      "v": 127
    },
    {
      "midi": 59,
      "hit": false,
      "t": 448500,
      "d": 300,
      "v": 127
    },
    {
      "midi": 76,
      "hit": false,
      "t": 448800,
      "d": 1800,
      "v": 127
    },
    {
      "midi": 48,
      "hit": false,
      "t": 448800,
      "d": 600,
      "v": 127
    },
    {
      "midi": 52,
      "hit": false,
      "t": 449400,
      "d": 300,
      "v": 127
    },
    {
      "midi": 55,
      "hit": false,
      "t": 449700,
      "d": 300,
      "v": 127
    },
    {
      "midi": 59,
      "hit": false,
      "t": 450000,
      "d": 300,
      "v": 127
    },
    {
      "midi": 60,
      "hit": false,
      "t": 450300,
      "d": 300,
      "v": 127
    },
    {
      "midi": 70,
      "hit": false,
      "t": 450600,
      "d": 600,
      "v": 127
    },
    {
      "midi": 48,
      "hit": false,
      "t": 450600,
      "d": 300,
      "v": 127
    },
    {
      "midi": 60,
      "hit": false,
      "t": 450900,
      "d": 300,
      "v": 127
    },
    {
      "midi": 41,
      "hit": false,
      "t": 451200,
      "d": 600,
      "v": 127
    },
    {
      "midi": 69,
      "hit": false,
      "t": 451800,
      "d": 1200,
      "v": 127
    },
    {
      "midi": 72,
      "hit": false,
      "t": 451800,
      "d": 1200,
      "v": 127
    },
    {
      "midi": 77,
      "hit": false,
      "t": 451800,
      "d": 1200,
      "v": 127
    },
    {
      "midi": 81,
      "hit": false,
      "t": 451800,
      "d": 1200,
      "v": 127
    },
    {
      "midi": 45,
      "hit": false,
      "t": 451800,
      "d": 300,
      "v": 127
    },
    {
      "midi": 48,
      "hit": false,
      "t": 452100,
      "d": 300,
      "v": 127
    },
    {
      "midi": 52,
      "hit": false,
      "t": 452400,
      "d": 300,
      "v": 127
    },
    {
      "midi": 53,
      "hit": false,
      "t": 452700,
      "d": 300,
      "v": 127
    },
    {
      "midi": 69,
      "hit": false,
      "t": 453000,
      "d": 600,
      "v": 127
    },
    {
      "midi": 72,
      "hit": false,
      "t": 453000,
      "d": 600,
      "v": 127
    },
    {
      "midi": 77,
      "hit": false,
      "t": 453000,
      "d": 600,
      "v": 127
    },
    {
      "midi": 81,
      "hit": false,
      "t": 453000,
      "d": 600,
      "v": 127
    },
    {
      "midi": 57,
      "hit": false,
      "t": 453000,
      "d": 300,
      "v": 127
    },
    {
      "midi": 60,
      "hit": false,
      "t": 453300,
      "d": 300,
      "v": 127
    },
    {
      "midi": 74,
      "hit": false,
      "t": 453600,
      "d": 600,
      "v": 127
    },
    {
      "midi": 46,
      "hit": false,
      "t": 453600,
      "d": 600,
      "v": 127
    },
    {
      "midi": 79,
      "hit": false,
      "t": 454200,
      "d": 300,
      "v": 127
    },
    {
      "midi": 53,
      "hit": false,
      "t": 454200,
      "d": 1200,
      "v": 127
    },
    {
      "midi": 62,
      "hit": false,
      "t": 454200,
      "d": 1200,
      "v": 127
    },
    {
      "midi": 65,
      "hit": false,
      "t": 454200,
      "d": 1200,
      "v": 127
    },
    {
      "midi": 82,
      "hit": false,
      "t": 454500,
      "d": 300,
      "v": 127
    },
    {
      "midi": 85,
      "hit": false,
      "t": 454800,
      "d": 300,
      "v": 127
    },
    {
      "midi": 86,
      "hit": false,
      "t": 455100,
      "d": 300,
      "v": 127
    },
    {
      "midi": 91,
      "hit": false,
      "t": 455400,
      "d": 300,
      "v": 127
    },
    {
      "midi": 53,
      "hit": false,
      "t": 455400,
      "d": 600,
      "v": 127
    },
    {
      "midi": 62,
      "hit": false,
      "t": 455400,
      "d": 600,
      "v": 127
    },
    {
      "midi": 65,
      "hit": false,
      "t": 455400,
      "d": 600,
      "v": 127
    },
    {
      "midi": 94,
      "hit": false,
      "t": 455700,
      "d": 300,
      "v": 127
    },
    {
      "midi": 88,
      "hit": false,
      "t": 456000,
      "d": 300,
      "v": 127
    },
    {
      "midi": 48,
      "hit": false,
      "t": 456000,
      "d": 600,
      "v": 127
    },
    {
      "midi": 96,
      "hit": false,
      "t": 456300,
      "d": 300,
      "v": 127
    },
    {
      "midi": 94,
      "hit": false,
      "t": 456600,
      "d": 300,
      "v": 127
    },
    {
      "midi": 53,
      "hit": false,
      "t": 456600,
      "d": 1200,
      "v": 127
    },
    {
      "midi": 58,
      "hit": false,
      "t": 456600,
      "d": 1200,
      "v": 127
    },
    {
      "midi": 60,
      "hit": false,
      "t": 456600,
      "d": 1200,
      "v": 127
    },
    {
      "midi": 64,
      "hit": false,
      "t": 456600,
      "d": 1200,
      "v": 127
    },
    {
      "midi": 91,
      "hit": false,
      "t": 456900,
      "d": 300,
      "v": 127
    },
    {
      "midi": 88,
      "hit": false,
      "t": 457200,
      "d": 300,
      "v": 127
    },
    {
      "midi": 84,
      "hit": false,
      "t": 457500,
      "d": 300,
      "v": 127
    },
    {
      "midi": 82,
      "hit": false,
      "t": 457800,
      "d": 300,
      "v": 127
    },
    {
      "midi": 60,
      "hit": false,
      "t": 457800,
      "d": 600,
      "v": 127
    },
    {
      "midi": 64,
      "hit": false,
      "t": 457800,
      "d": 600,
      "v": 127
    },
    {
      "midi": 79,
      "hit": false,
      "t": 458100,
      "d": 300,
      "v": 127
    },
    {
      "midi": 77,
      "hit": false,
      "t": 458400,
      "d": 600,
      "v": 127
    },
    {
      "midi": 53,
      "hit": false,
      "t": 458400,
      "d": 300,
      "v": 127
    },
    {
      "midi": 63,
      "hit": false,
      "t": 458700,
      "d": 300,
      "v": 127
    },
    {
      "midi": 69,
      "hit": false,
      "t": 459000,
      "d": 1800,
      "v": 127
    },
    {
      "midi": 72,
      "hit": false,
      "t": 459000,
      "d": 1800,
      "v": 127
    },
    {
      "midi": 75,
      "hit": false,
      "t": 459000,
      "d": 1800,
      "v": 127
    },
    {
      "midi": 77,
      "hit": false,
      "t": 459000,
      "d": 1800,
      "v": 127
    },
    {
      "midi": 60,
      "hit": false,
      "t": 459000,
      "d": 300,
      "v": 127
    },
    {
      "midi": 57,
      "hit": false,
      "t": 459300,
      "d": 300,
      "v": 127
    },
    {
      "midi": 53,
      "hit": false,
      "t": 459600,
      "d": 300,
      "v": 127
    },
    {
      "midi": 51,
      "hit": false,
      "t": 459900,
      "d": 300,
      "v": 127
    },
    {
      "midi": 48,
      "hit": false,
      "t": 460200,
      "d": 300,
      "v": 127
    },
    {
      "midi": 53,
      "hit": false,
      "t": 460500,
      "d": 300,
      "v": 127
    },
    {
      "midi": 82,
      "hit": false,
      "t": 460800,
      "d": 600,
      "v": 127
    },
    {
      "midi": 46,
      "hit": false,
      "t": 460800,
      "d": 600,
      "v": 127
    },
    {
      "midi": 85,
      "hit": false,
      "t": 461400,
      "d": 300,
      "v": 127
    },
    {
      "midi": 53,
      "hit": false,
      "t": 461400,
      "d": 1200,
      "v": 127
    },
    {
      "midi": 58,
      "hit": false,
      "t": 461400,
      "d": 1200,
      "v": 127
    },
    {
      "midi": 62,
      "hit": false,
      "t": 461400,
      "d": 1200,
      "v": 127
    },
    {
      "midi": 86,
      "hit": false,
      "t": 461700,
      "d": 300,
      "v": 127
    },
    {
      "midi": 85,
      "hit": false,
      "t": 462000,
      "d": 300,
      "v": 127
    },
    {
      "midi": 86,
      "hit": false,
      "t": 462300,
      "d": 300,
      "v": 127
    },
    {
      "midi": 89,
      "hit": false,
      "t": 462600,
      "d": 300,
      "v": 127
    },
    {
      "midi": 53,
      "hit": false,
      "t": 462600,
      "d": 600,
      "v": 127
    },
    {
      "midi": 58,
      "hit": false,
      "t": 462600,
      "d": 600,
      "v": 127
    },
    {
      "midi": 62,
      "hit": false,
      "t": 462600,
      "d": 600,
      "v": 127
    },
    {
      "midi": 86,
      "hit": false,
      "t": 462900,
      "d": 300,
      "v": 127
    },
    {
      "midi": 84,
      "hit": false,
      "t": 463200,
      "d": 1200,
      "v": 127
    },
    {
      "midi": 50,
      "hit": false,
      "t": 463200,
      "d": 600,
      "v": 127
    },
    {
      "midi": 56,
      "hit": false,
      "t": 463800,
      "d": 1200,
      "v": 127
    },
    {
      "midi": 58,
      "hit": false,
      "t": 463800,
      "d": 1200,
      "v": 127
    },
    {
      "midi": 65,
      "hit": false,
      "t": 463800,
      "d": 1200,
      "v": 127
    },
    {
      "midi": 82,
      "hit": false,
      "t": 464400,
      "d": 900,
      "v": 127
    },
    {
      "midi": 56,
      "hit": false,
      "t": 465000,
      "d": 600,
      "v": 127
    },
    {
      "midi": 58,
      "hit": false,
      "t": 465000,
      "d": 600,
      "v": 127
    },
    {
      "midi": 65,
      "hit": false,
      "t": 465000,
      "d": 600,
      "v": 127
    },
    {
      "midi": 82,
      "hit": false,
      "t": 465300,
      "d": 300,
      "v": 127
    },
    {
      "midi": 81,
      "hit": false,
      "t": 465600,
      "d": 300,
      "v": 127
    },
    {
      "midi": 51,
      "hit": false,
      "t": 465600,
      "d": 600,
      "v": 127
    },
    {
      "midi": 82,
      "hit": false,
      "t": 465900,
      "d": 300,
      "v": 127
    },
    {
      "midi": 84,
      "hit": false,
      "t": 466200,
      "d": 300,
      "v": 127
    },
    {
      "midi": 55,
      "hit": false,
      "t": 466200,
      "d": 1200,
      "v": 127
    },
    {
      "midi": 58,
      "hit": false,
      "t": 466200,
      "d": 1200,
      "v": 127
    },
    {
      "midi": 63,
      "hit": false,
      "t": 466200,
      "d": 1200,
      "v": 127
    },
    {
      "midi": 86,
      "hit": false,
      "t": 466500,
      "d": 300,
      "v": 127
    },
    {
      "midi": 87,
      "hit": false,
      "t": 466800,
      "d": 300,
      "v": 127
    },
    {
      "midi": 88,
      "hit": false,
      "t": 467100,
      "d": 300,
      "v": 127
    },
    {
      "midi": 89,
      "hit": false,
      "t": 467400,
      "d": 300,
      "v": 127
    },
    {
      "midi": 55,
      "hit": false,
      "t": 467400,
      "d": 600,
      "v": 127
    },
    {
      "midi": 58,
      "hit": false,
      "t": 467400,
      "d": 600,
      "v": 127
    },
    {
      "midi": 63,
      "hit": false,
      "t": 467400,
      "d": 600,
      "v": 127
    },
    {
      "midi": 90,
      "hit": false,
      "t": 467700,
      "d": 300,
      "v": 127
    },
    {
      "midi": 91,
      "hit": false,
      "t": 468000,
      "d": 900,
      "v": 127
    },
    {
      "midi": 52,
      "hit": false,
      "t": 468000,
      "d": 600,
      "v": 127
    },
    {
      "midi": 58,
      "hit": false,
      "t": 468600,
      "d": 1200,
      "v": 127
    },
    {
      "midi": 61,
      "hit": false,
      "t": 468600,
      "d": 1200,
      "v": 127
    },
    {
      "midi": 67,
      "hit": false,
      "t": 468600,
      "d": 1200,
      "v": 127
    },
    {
      "midi": 93,
      "hit": false,
      "t": 468900,
      "d": 300,
      "v": 127
    },
    {
      "midi": 94,
      "hit": false,
      "t": 469200,
      "d": 1200,
      "v": 127
    },
    {
      "midi": 58,
      "hit": false,
      "t": 469800,
      "d": 600,
      "v": 127
    },
    {
      "midi": 61,
      "hit": false,
      "t": 469800,
      "d": 600,
      "v": 127
    },
    {
      "midi": 67,
      "hit": false,
      "t": 469800,
      "d": 600,
      "v": 127
    },
    {
      "midi": 72,
      "hit": false,
      "t": 470400,
      "d": 600,
      "v": 127
    },
    {
      "midi": 74,
      "hit": false,
      "t": 470400,
      "d": 600,
      "v": 127
    },
    {
      "midi": 55,
      "hit": false,
      "t": 470400,
      "d": 600,
      "v": 127
    },
    {
      "midi": 71,
      "hit": false,
      "t": 471000,
      "d": 300,
      "v": 127
    },
    {
      "midi": 58,
      "hit": false,
      "t": 471000,
      "d": 1200,
      "v": 127
    },
    {
      "midi": 60,
      "hit": false,
      "t": 471000,
      "d": 1200,
      "v": 127
    },
    {
      "midi": 64,
      "hit": false,
      "t": 471000,
      "d": 1200,
      "v": 127
    },
    {
      "midi": 72,
      "hit": false,
      "t": 471300,
      "d": 300,
      "v": 127
    },
    {
      "midi": 76,
      "hit": false,
      "t": 471600,
      "d": 300,
      "v": 127
    },
    {
      "midi": 82,
      "hit": false,
      "t": 471900,
      "d": 300,
      "v": 127
    },
    {
      "midi": 79,
      "hit": false,
      "t": 472200,
      "d": 300,
      "v": 127
    },
    {
      "midi": 58,
      "hit": false,
      "t": 472200,
      "d": 600,
      "v": 127
    },
    {
      "midi": 60,
      "hit": false,
      "t": 472200,
      "d": 600,
      "v": 127
    },
    {
      "midi": 64,
      "hit": false,
      "t": 472200,
      "d": 600,
      "v": 127
    },
    {
      "midi": 76,
      "hit": false,
      "t": 472500,
      "d": 300,
      "v": 127
    },
    {
      "midi": 77,
      "hit": false,
      "t": 472800,
      "d": 600,
      "v": 127
    },
    {
      "midi": 79,
      "hit": false,
      "t": 472800,
      "d": 600,
      "v": 127
    },
    {
      "midi": 53,
      "hit": false,
      "t": 472800,
      "d": 600,
      "v": 127
    },
    {
      "midi": 76,
      "hit": false,
      "t": 473400,
      "d": 300,
      "v": 127
    },
    {
      "midi": 58,
      "hit": false,
      "t": 473400,
      "d": 1200,
      "v": 127
    },
    {
      "midi": 62,
      "hit": false,
      "t": 473400,
      "d": 1200,
      "v": 127
    },
    {
      "midi": 65,
      "hit": false,
      "t": 473400,
      "d": 1200,
      "v": 127
    },
    {
      "midi": 77,
      "hit": false,
      "t": 473700,
      "d": 300,
      "v": 127
    },
    {
      "midi": 82,
      "hit": false,
      "t": 474000,
      "d": 300,
      "v": 127
    },
    {
      "midi": 89,
      "hit": false,
      "t": 474300,
      "d": 300,
      "v": 127
    },
    {
      "midi": 86,
      "hit": false,
      "t": 474600,
      "d": 300,
      "v": 127
    },
    {
      "midi": 58,
      "hit": false,
      "t": 474600,
      "d": 600,
      "v": 127
    },
    {
      "midi": 62,
      "hit": false,
      "t": 474600,
      "d": 600,
      "v": 127
    },
    {
      "midi": 65,
      "hit": false,
      "t": 474600,
      "d": 600,
      "v": 127
    },
    {
      "midi": 82,
      "hit": false,
      "t": 474900,
      "d": 300,
      "v": 127
    },
    {
      "midi": 81,
      "hit": false,
      "t": 475200,
      "d": 300,
      "v": 127
    },
    {
      "midi": 53,
      "hit": false,
      "t": 475200,
      "d": 600,
      "v": 127
    },
    {
      "midi": 82,
      "hit": false,
      "t": 475500,
      "d": 300,
      "v": 127
    },
    {
      "midi": 84,
      "hit": false,
      "t": 475800,
      "d": 300,
      "v": 127
    },
    {
      "midi": 60,
      "hit": false,
      "t": 475800,
      "d": 1200,
      "v": 127
    },
    {
      "midi": 63,
      "hit": false,
      "t": 475800,
      "d": 1200,
      "v": 127
    },
    {
      "midi": 65,
      "hit": false,
      "t": 475800,
      "d": 1200,
      "v": 127
    },
    {
      "midi": 86,
      "hit": false,
      "t": 476100,
      "d": 300,
      "v": 127
    },
    {
      "midi": 87,
      "hit": false,
      "t": 476400,
      "d": 300,
      "v": 127
    },
    {
      "midi": 89,
      "hit": false,
      "t": 476700,
      "d": 300,
      "v": 127
    },
    {
      "midi": 91,
      "hit": false,
      "t": 477000,
      "d": 300,
      "v": 127
    },
    {
      "midi": 60,
      "hit": false,
      "t": 477000,
      "d": 600,
      "v": 127
    },
    {
      "midi": 63,
      "hit": false,
      "t": 477000,
      "d": 600,
      "v": 127
    },
    {
      "midi": 65,
      "hit": false,
      "t": 477000,
      "d": 600,
      "v": 127
    },
    {
      "midi": 93,
      "hit": false,
      "t": 477300,
      "d": 300,
      "v": 127
    },
    {
      "midi": 94,
      "hit": false,
      "t": 477600,
      "d": 300,
      "v": 127
    },
    {
      "midi": 96,
      "hit": false,
      "t": 477600,
      "d": 300,
      "v": 127
    },
    {
      "midi": 53,
      "hit": false,
      "t": 477600,
      "d": 600,
      "v": 127
    },
    {
      "midi": 93,
      "hit": false,
      "t": 477900,
      "d": 300,
      "v": 127
    },
    {
      "midi": 91,
      "hit": false,
      "t": 478200,
      "d": 300,
      "v": 127
    },
    {
      "midi": 58,
      "hit": false,
      "t": 478200,
      "d": 1200,
      "v": 127
    },
    {
      "midi": 62,
      "hit": false,
      "t": 478200,
      "d": 1200,
      "v": 127
    },
    {
      "midi": 65,
      "hit": false,
      "t": 478200,
      "d": 1200,
      "v": 127
    },
    {
      "midi": 89,
      "hit": false,
      "t": 478500,
      "d": 300,
      "v": 127
    },
    {
      "midi": 87,
      "hit": false,
      "t": 478800,
      "d": 300,
      "v": 127
    },
    {
      "midi": 86,
      "hit": false,
      "t": 479100,
      "d": 300,
      "v": 127
    },
    {
      "midi": 84,
      "hit": false,
      "t": 479400,
      "d": 300,
      "v": 127
    },
    {
      "midi": 58,
      "hit": false,
      "t": 479400,
      "d": 600,
      "v": 127
    },
    {
      "midi": 62,
      "hit": false,
      "t": 479400,
      "d": 600,
      "v": 127
    },
    {
      "midi": 65,
      "hit": false,
      "t": 479400,
      "d": 600,
      "v": 127
    },
    {
      "midi": 83,
      "hit": false,
      "t": 479700,
      "d": 300,
      "v": 127
    },
    {
      "midi": 84,
      "hit": false,
      "t": 480000,
      "d": 300,
      "v": 127
    },
    {
      "midi": 86,
      "hit": false,
      "t": 480000,
      "d": 300,
      "v": 127
    },
    {
      "midi": 41,
      "hit": false,
      "t": 480000,
      "d": 600,
      "v": 127
    },
    {
      "midi": 82,
      "hit": false,
      "t": 480300,
      "d": 300,
      "v": 127
    },
    {
      "midi": 81,
      "hit": false,
      "t": 480600,
      "d": 300,
      "v": 127
    },
    {
      "midi": 53,
      "hit": false,
      "t": 480600,
      "d": 1200,
      "v": 127
    },
    {
      "midi": 60,
      "hit": false,
      "t": 480600,
      "d": 1200,
      "v": 127
    },
    {
      "midi": 63,
      "hit": false,
      "t": 480600,
      "d": 1200,
      "v": 127
    },
    {
      "midi": 79,
      "hit": false,
      "t": 480900,
      "d": 300,
      "v": 127
    },
    {
      "midi": 77,
      "hit": false,
      "t": 481200,
      "d": 300,
      "v": 127
    },
    {
      "midi": 75,
      "hit": false,
      "t": 481500,
      "d": 300,
      "v": 127
    },
    {
      "midi": 74,
      "hit": false,
      "t": 481800,
      "d": 300,
      "v": 127
    },
    {
      "midi": 53,
      "hit": false,
      "t": 481800,
      "d": 600,
      "v": 127
    },
    {
      "midi": 57,
      "hit": false,
      "t": 481800,
      "d": 600,
      "v": 127
    },
    {
      "midi": 63,
      "hit": false,
      "t": 481800,
      "d": 600,
      "v": 127
    },
    {
      "midi": 73,
      "hit": false,
      "t": 482100,
      "d": 300,
      "v": 127
    },
    {
      "midi": 74,
      "hit": false,
      "t": 482400,
      "d": 300,
      "v": 127
    },
    {
      "midi": 82,
      "hit": false,
      "t": 482400,
      "d": 300,
      "v": 127
    },
    {
      "midi": 84,
      "hit": false,
      "t": 482400,
      "d": 300,
      "v": 127
    },
    {
      "midi": 41,
      "hit": false,
      "t": 482400,
      "d": 600,
      "v": 127
    },
    {
      "midi": 81,
      "hit": false,
      "t": 482700,
      "d": 300,
      "v": 127
    },
    {
      "midi": 79,
      "hit": false,
      "t": 483000,
      "d": 300,
      "v": 127
    },
    {
      "midi": 53,
      "hit": false,
      "t": 483000,
      "d": 1200,
      "v": 127
    },
    {
      "midi": 58,
      "hit": false,
      "t": 483000,
      "d": 1200,
      "v": 127
    },
    {
      "midi": 62,
      "hit": false,
      "t": 483000,
      "d": 1200,
      "v": 127
    },
    {
      "midi": 77,
      "hit": false,
      "t": 483300,
      "d": 300,
      "v": 127
    },
    {
      "midi": 75,
      "hit": false,
      "t": 483600,
      "d": 300,
      "v": 127
    },
    {
      "midi": 74,
      "hit": false,
      "t": 483900,
      "d": 300,
      "v": 127
    },
    {
      "midi": 72,
      "hit": false,
      "t": 484200,
      "d": 300,
      "v": 127
    },
    {
      "midi": 53,
      "hit": false,
      "t": 484200,
      "d": 600,
      "v": 127
    },
    {
      "midi": 58,
      "hit": false,
      "t": 484200,
      "d": 600,
      "v": 127
    },
    {
      "midi": 62,
      "hit": false,
      "t": 484200,
      "d": 600,
      "v": 127
    },
    {
      "midi": 71,
      "hit": false,
      "t": 484500,
      "d": 300,
      "v": 127
    },
    {
      "midi": 72,
      "hit": false,
      "t": 484800,
      "d": 300,
      "v": 127
    },
    {
      "midi": 74,
      "hit": false,
      "t": 484800,
      "d": 300,
      "v": 127
    },
    {
      "midi": 41,
      "hit": false,
      "t": 484800,
      "d": 600,
      "v": 127
    },
    {
      "midi": 70,
      "hit": false,
      "t": 485100,
      "d": 300,
      "v": 127
    },
    {
      "midi": 69,
      "hit": false,
      "t": 485400,
      "d": 300,
      "v": 127
    },
    {
      "midi": 51,
      "hit": false,
      "t": 485400,
      "d": 1200,
      "v": 127
    },
    {
      "midi": 53,
      "hit": false,
      "t": 485400,
      "d": 1200,
      "v": 127
    },
    {
      "midi": 60,
      "hit": false,
      "t": 485400,
      "d": 1200,
      "v": 127
    },
    {
      "midi": 67,
      "hit": false,
      "t": 485700,
      "d": 300,
      "v": 127
    },
    {
      "midi": 65,
      "hit": false,
      "t": 486000,
      "d": 300,
      "v": 127
    },
    {
      "midi": 63,
      "hit": false,
      "t": 486300,
      "d": 300,
      "v": 127
    },
    {
      "midi": 62,
      "hit": false,
      "t": 486600,
      "d": 300,
      "v": 127
    },
    {
      "midi": 51,
      "hit": false,
      "t": 486600,
      "d": 600,
      "v": 127
    },
    {
      "midi": 53,
      "hit": false,
      "t": 486600,
      "d": 600,
      "v": 127
    },
    {
      "midi": 57,
      "hit": false,
      "t": 486600,
      "d": 600,
      "v": 127
    },
    {
      "midi": 60,
      "hit": false,
      "t": 486900,
      "d": 300,
      "v": 127
    },
    {
      "midi": 58,
      "hit": false,
      "t": 487200,
      "d": 300,
      "v": 127
    },
    {
      "midi": 53,
      "hit": false,
      "t": 487500,
      "d": 300,
      "v": 127
    },
    {
      "midi": 50,
      "hit": false,
      "t": 487800,
      "d": 300,
      "v": 127
    },
    {
      "midi": 46,
      "hit": false,
      "t": 488100,
      "d": 300,
      "v": 127
    },
    {
      "midi": 34,
      "hit": false,
      "t": 488400,
      "d": 1200,
      "v": 127
    },
    {
      "midi": 65,
      "hit": false,
      "t": 489000,
      "d": 600,
      "v": 127
    },
    {
      "midi": 61,
      "hit": false,
      "t": 489600,
      "d": 1800,
      "v": 127
    },
    {
      "midi": 65,
      "hit": false,
      "t": 489600,
      "d": 1800,
      "v": 127
    },
    {
      "midi": 73,
      "hit": false,
      "t": 489600,
      "d": 1800,
      "v": 127
    },
    {
      "midi": 34,
      "hit": false,
      "t": 489600,
      "d": 300,
      "v": 127
    },
    {
      "midi": 46,
      "hit": false,
      "t": 489600,
      "d": 300,
      "v": 127
    },
    {
      "midi": 46,
      "hit": false,
      "t": 489900,
      "d": 300,
      "v": 127
    },
    {
      "midi": 49,
      "hit": false,
      "t": 489900,
      "d": 300,
      "v": 127
    },
    {
      "midi": 53,
      "hit": false,
      "t": 489900,
      "d": 300,
      "v": 127
    },
    {
      "midi": 46,
      "hit": false,
      "t": 490500,
      "d": 300,
      "v": 127
    },
    {
      "midi": 49,
      "hit": false,
      "t": 490500,
      "d": 300,
      "v": 127
    },
    {
      "midi": 52,
      "hit": false,
      "t": 490500,
      "d": 300,
      "v": 127
    },
    {
      "midi": 46,
      "hit": false,
      "t": 490800,
      "d": 300,
      "v": 127
    },
    {
      "midi": 49,
      "hit": false,
      "t": 490800,
      "d": 300,
      "v": 127
    },
    {
      "midi": 53,
      "hit": false,
      "t": 490800,
      "d": 300,
      "v": 127
    },
    {
      "midi": 46,
      "hit": false,
      "t": 491100,
      "d": 300,
      "v": 127
    },
    {
      "midi": 49,
      "hit": false,
      "t": 491100,
      "d": 300,
      "v": 127
    },
    {
      "midi": 54,
      "hit": false,
      "t": 491100,
      "d": 300,
      "v": 127
    },
    {
      "midi": 61,
      "hit": false,
      "t": 491400,
      "d": 600,
      "v": 127
    },
    {
      "midi": 65,
      "hit": false,
      "t": 491400,
      "d": 600,
      "v": 127
    },
    {
      "midi": 73,
      "hit": false,
      "t": 491400,
      "d": 600,
      "v": 127
    },
    {
      "midi": 46,
      "hit": false,
      "t": 491700,
      "d": 300,
      "v": 127
    },
    {
      "midi": 49,
      "hit": false,
      "t": 491700,
      "d": 300,
      "v": 127
    },
    {
      "midi": 53,
      "hit": false,
      "t": 491700,
      "d": 300,
      "v": 127
    },
    {
      "midi": 60,
      "hit": false,
      "t": 492000,
      "d": 1200,
      "v": 127
    },
    {
      "midi": 65,
      "hit": false,
      "t": 492000,
      "d": 1200,
      "v": 127
    },
    {
      "midi": 72,
      "hit": false,
      "t": 492000,
      "d": 1200,
      "v": 127
    },
    {
      "midi": 37,
      "hit": false,
      "t": 492000,
      "d": 300,
      "v": 127
    },
    {
      "midi": 49,
      "hit": false,
      "t": 492000,
      "d": 300,
      "v": 127
    },
    {
      "midi": 49,
      "hit": false,
      "t": 492300,
      "d": 300,
      "v": 127
    },
    {
      "midi": 53,
      "hit": false,
      "t": 492300,
      "d": 300,
      "v": 127
    },
    {
      "midi": 49,
      "hit": false,
      "t": 492900,
      "d": 300,
      "v": 127
    },
    {
      "midi": 52,
      "hit": false,
      "t": 492900,
      "d": 300,
      "v": 127
    },
    {
      "midi": 58,
      "hit": false,
      "t": 493200,
      "d": 600,
      "v": 127
    },
    {
      "midi": 70,
      "hit": false,
      "t": 493200,
      "d": 600,
      "v": 127
    },
    {
      "midi": 49,
      "hit": false,
      "t": 493200,
      "d": 300,
      "v": 127
    },
    {
      "midi": 53,
      "hit": false,
      "t": 493200,
      "d": 300,
      "v": 127
    },
    {
      "midi": 49,
      "hit": false,
      "t": 493500,
      "d": 300,
      "v": 127
    },
    {
      "midi": 54,
      "hit": false,
      "t": 493500,
      "d": 300,
      "v": 127
    },
    {
      "midi": 58,
      "hit": false,
      "t": 493800,
      "d": 600,
      "v": 127
    },
    {
      "midi": 65,
      "hit": false,
      "t": 493800,
      "d": 600,
      "v": 127
    },
    {
      "midi": 70,
      "hit": false,
      "t": 493800,
      "d": 600,
      "v": 127
    },
    {
      "midi": 49,
      "hit": false,
      "t": 494100,
      "d": 300,
      "v": 127
    },
    {
      "midi": 53,
      "hit": false,
      "t": 494100,
      "d": 300,
      "v": 127
    },
    {
      "midi": 70,
      "hit": false,
      "t": 494400,
      "d": 900,
      "v": 127
    },
    {
      "midi": 36,
      "hit": false,
      "t": 494400,
      "d": 300,
      "v": 127
    },
    {
      "midi": 48,
      "hit": false,
      "t": 494700,
      "d": 300,
      "v": 127
    },
    {
      "midi": 51,
      "hit": false,
      "t": 494700,
      "d": 300,
      "v": 127
    },
    {
      "midi": 53,
      "hit": false,
      "t": 494700,
      "d": 300,
      "v": 127
    },
    {
      "midi": 52,
      "hit": false,
      "t": 495000,
      "d": 300,
      "v": 127
    },
    {
      "midi": 57,
      "hit": false,
      "t": 495300,
      "d": 300,
      "v": 127
    },
    {
      "midi": 69,
      "hit": false,
      "t": 495300,
      "d": 300,
      "v": 127
    },
    {
      "midi": 48,
      "hit": false,
      "t": 495300,
      "d": 300,
      "v": 127
    },
    {
      "midi": 51,
      "hit": false,
      "t": 495300,
      "d": 300,
      "v": 127
    },
    {
      "midi": 60,
      "hit": false,
      "t": 495600,
      "d": 300,
      "v": 127
    },
    {
      "midi": 72,
      "hit": false,
      "t": 495600,
      "d": 300,
      "v": 127
    },
    {
      "midi": 48,
      "hit": false,
      "t": 495600,
      "d": 300,
      "v": 127
    },
    {
      "midi": 51,
      "hit": false,
      "t": 495600,
      "d": 300,
      "v": 127
    },
    {
      "midi": 53,
      "hit": false,
      "t": 495600,
      "d": 300,
      "v": 127
    },
    {
      "midi": 63,
      "hit": false,
      "t": 495900,
      "d": 300,
      "v": 127
    },
    {
      "midi": 75,
      "hit": false,
      "t": 495900,
      "d": 300,
      "v": 127
    },
    {
      "midi": 48,
      "hit": false,
      "t": 495900,
      "d": 300,
      "v": 127
    },
    {
      "midi": 51,
      "hit": false,
      "t": 495900,
      "d": 300,
      "v": 127
    },
    {
      "midi": 66,
      "hit": false,
      "t": 496500,
      "d": 300,
      "v": 127
    },
    {
      "midi": 72,
      "hit": false,
      "t": 496500,
      "d": 300,
      "v": 127
    },
    {
      "midi": 75,
      "hit": false,
      "t": 496500,
      "d": 300,
      "v": 127
    },
    {
      "midi": 78,
      "hit": false,
      "t": 496500,
      "d": 300,
      "v": 127
    },
    {
      "midi": 48,
      "hit": false,
      "t": 496500,
      "d": 300,
      "v": 127
    },
    {
      "midi": 54,
      "hit": false,
      "t": 496500,
      "d": 300,
      "v": 127
    },
    {
      "midi": 65,
      "hit": false,
      "t": 496800,
      "d": 1800,
      "v": 127
    },
    {
      "midi": 72,
      "hit": false,
      "t": 496800,
      "d": 1800,
      "v": 127
    },
    {
      "midi": 75,
      "hit": false,
      "t": 496800,
      "d": 1800,
      "v": 127
    },
    {
      "midi": 77,
      "hit": false,
      "t": 496800,
      "d": 1800,
      "v": 127
    },
    {
      "midi": 33,
      "hit": false,
      "t": 496800,
      "d": 300,
      "v": 127
    },
    {
      "midi": 45,
      "hit": false,
      "t": 497100,
      "d": 300,
      "v": 127
    },
    {
      "midi": 48,
      "hit": false,
      "t": 497100,
      "d": 300,
      "v": 127
    },
    {
      "midi": 53,
      "hit": false,
      "t": 497100,
      "d": 300,
      "v": 127
    },
    {
      "midi": 45,
      "hit": false,
      "t": 497700,
      "d": 300,
      "v": 127
    },
    {
      "midi": 48,
      "hit": false,
      "t": 497700,
      "d": 300,
      "v": 127
    },
    {
      "midi": 52,
      "hit": false,
      "t": 497700,
      "d": 300,
      "v": 127
    },
    {
      "midi": 45,
      "hit": false,
      "t": 498000,
      "d": 300,
      "v": 127
    },
    {
      "midi": 48,
      "hit": false,
      "t": 498000,
      "d": 300,
      "v": 127
    },
    {
      "midi": 53,
      "hit": false,
      "t": 498000,
      "d": 300,
      "v": 127
    },
    {
      "midi": 45,
      "hit": false,
      "t": 498300,
      "d": 300,
      "v": 127
    },
    {
      "midi": 48,
      "hit": false,
      "t": 498300,
      "d": 300,
      "v": 127
    },
    {
      "midi": 54,
      "hit": false,
      "t": 498300,
      "d": 300,
      "v": 127
    },
    {
      "midi": 63,
      "hit": false,
      "t": 498600,
      "d": 600,
      "v": 127
    },
    {
      "midi": 75,
      "hit": false,
      "t": 498600,
      "d": 600,
      "v": 127
    },
    {
      "midi": 45,
      "hit": false,
      "t": 498900,
      "d": 300,
      "v": 127
    },
    {
      "midi": 48,
      "hit": false,
      "t": 498900,
      "d": 300,
      "v": 127
    },
    {
      "midi": 53,
      "hit": false,
      "t": 498900,
      "d": 300,
      "v": 127
    },
    {
      "midi": 63,
      "hit": false,
      "t": 499200,
      "d": 900,
      "v": 127
    },
    {
      "midi": 75,
      "hit": false,
      "t": 499200,
      "d": 900,
      "v": 127
    },
    {
      "midi": 34,
      "hit": false,
      "t": 499200,
      "d": 300,
      "v": 127
    },
    {
      "midi": 46,
      "hit": false,
      "t": 499500,
      "d": 300,
      "v": 127
    },
    {
      "midi": 49,
      "hit": false,
      "t": 499500,
      "d": 300,
      "v": 127
    },
    {
      "midi": 53,
      "hit": false,
      "t": 499500,
      "d": 300,
      "v": 127
    },
    {
      "midi": 61,
      "hit": false,
      "t": 500100,
      "d": 300,
      "v": 127
    },
    {
      "midi": 73,
      "hit": false,
      "t": 500100,
      "d": 300,
      "v": 127
    },
    {
      "midi": 46,
      "hit": false,
      "t": 500100,
      "d": 300,
      "v": 127
    },
    {
      "midi": 49,
      "hit": false,
      "t": 500100,
      "d": 300,
      "v": 127
    },
    {
      "midi": 52,
      "hit": false,
      "t": 500100,
      "d": 300,
      "v": 127
    },
    {
      "midi": 58,
      "hit": false,
      "t": 500400,
      "d": 300,
      "v": 127
    },
    {
      "midi": 70,
      "hit": false,
      "t": 500400,
      "d": 300,
      "v": 127
    },
    {
      "midi": 46,
      "hit": false,
      "t": 500400,
      "d": 300,
      "v": 127
    },
    {
      "midi": 49,
      "hit": false,
      "t": 500400,
      "d": 300,
      "v": 127
    },
    {
      "midi": 53,
      "hit": false,
      "t": 500400,
      "d": 300,
      "v": 127
    },
    {
      "midi": 60,
      "hit": false,
      "t": 500700,
      "d": 300,
      "v": 127
    },
    {
      "midi": 72,
      "hit": false,
      "t": 500700,
      "d": 300,
      "v": 127
    },
    {
      "midi": 46,
      "hit": false,
      "t": 500700,
      "d": 300,
      "v": 127
    },
    {
      "midi": 49,
      "hit": false,
      "t": 500700,
      "d": 300,
      "v": 127
    },
    {
      "midi": 54,
      "hit": false,
      "t": 500700,
      "d": 300,
      "v": 127
    },
    {
      "midi": 61,
      "hit": false,
      "t": 501300,
      "d": 300,
      "v": 127
    },
    {
      "midi": 73,
      "hit": false,
      "t": 501300,
      "d": 300,
      "v": 127
    },
    {
      "midi": 46,
      "hit": false,
      "t": 501300,
      "d": 300,
      "v": 127
    },
    {
      "midi": 49,
      "hit": false,
      "t": 501300,
      "d": 300,
      "v": 127
    },
    {
      "midi": 53,
      "hit": false,
      "t": 501300,
      "d": 300,
      "v": 127
    },
    {
      "midi": 65,
      "hit": false,
      "t": 501600,
      "d": 900,
      "v": 127
    },
    {
      "midi": 77,
      "hit": false,
      "t": 501600,
      "d": 900,
      "v": 127
    },
    {
      "midi": 30,
      "hit": false,
      "t": 501600,
      "d": 300,
      "v": 127
    },
    {
      "midi": 42,
      "hit": false,
      "t": 501900,
      "d": 300,
      "v": 127
    },
    {
      "midi": 46,
      "hit": false,
      "t": 501900,
      "d": 300,
      "v": 127
    },
    {
      "midi": 51,
      "hit": false,
      "t": 501900,
      "d": 300,
      "v": 127
    },
    {
      "midi": 63,
      "hit": false,
      "t": 502500,
      "d": 300,
      "v": 127
    },
    {
      "midi": 75,
      "hit": false,
      "t": 502500,
      "d": 300,
      "v": 127
    },
    {
      "midi": 42,
      "hit": false,
      "t": 502500,
      "d": 300,
      "v": 127
    },
    {
      "midi": 45,
      "hit": false,
      "t": 502500,
      "d": 300,
      "v": 127
    },
    {
      "midi": 51,
      "hit": false,
      "t": 502500,
      "d": 300,
      "v": 127
    },
    {
      "midi": 63,
      "hit": false,
      "t": 502800,
      "d": 300,
      "v": 127
    },
    {
      "midi": 75,
      "hit": false,
      "t": 502800,
      "d": 300,
      "v": 127
    },
    {
      "midi": 42,
      "hit": false,
      "t": 502800,
      "d": 300,
      "v": 127
    },
    {
      "midi": 46,
      "hit": false,
      "t": 502800,
      "d": 300,
      "v": 127
    },
    {
      "midi": 51,
      "hit": false,
      "t": 502800,
      "d": 300,
      "v": 127
    },
    {
      "midi": 61,
      "hit": false,
      "t": 503100,
      "d": 300,
      "v": 127
    },
    {
      "midi": 73,
      "hit": false,
      "t": 503100,
      "d": 300,
      "v": 127
    },
    {
      "midi": 42,
      "hit": false,
      "t": 503100,
      "d": 300,
      "v": 127
    },
    {
      "midi": 46,
      "hit": false,
      "t": 503100,
      "d": 300,
      "v": 127
    },
    {
      "midi": 53,
      "hit": false,
      "t": 503100,
      "d": 300,
      "v": 127
    },
    {
      "midi": 60,
      "hit": false,
      "t": 503700,
      "d": 300,
      "v": 127
    },
    {
      "midi": 72,
      "hit": false,
      "t": 503700,
      "d": 300,
      "v": 127
    },
    {
      "midi": 42,
      "hit": false,
      "t": 503700,
      "d": 300,
      "v": 127
    },
    {
      "midi": 46,
      "hit": false,
      "t": 503700,
      "d": 300,
      "v": 127
    },
    {
      "midi": 51,
      "hit": false,
      "t": 503700,
      "d": 300,
      "v": 127
    },
    {
      "midi": 58,
      "hit": false,
      "t": 504000,
      "d": 900,
      "v": 127
    },
    {
      "midi": 70,
      "hit": false,
      "t": 504000,
      "d": 900,
      "v": 127
    },
    {
      "midi": 29,
      "hit": false,
      "t": 504000,
      "d": 300,
      "v": 127
    },
    {
      "midi": 41,
      "hit": false,
      "t": 504000,
      "d": 300,
      "v": 127
    },
    {
      "midi": 41,
      "hit": false,
      "t": 504300,
      "d": 300,
      "v": 127
    },
    {
      "midi": 46,
      "hit": false,
      "t": 504300,
      "d": 300,
      "v": 127
    },
    {
      "midi": 49,
      "hit": false,
      "t": 504300,
      "d": 300,
      "v": 127
    },
    {
      "midi": 57,
      "hit": false,
      "t": 504900,
      "d": 300,
      "v": 127
    },
    {
      "midi": 69,
      "hit": false,
      "t": 504900,
      "d": 300,
      "v": 127
    },
    {
      "midi": 41,
      "hit": false,
      "t": 504900,
      "d": 300,
      "v": 127
    },
    {
      "midi": 46,
      "hit": false,
      "t": 504900,
      "d": 300,
      "v": 127
    },
    {
      "midi": 48,
      "hit": false,
      "t": 504900,
      "d": 300,
      "v": 127
    },
    {
      "midi": 58,
      "hit": false,
      "t": 505200,
      "d": 300,
      "v": 127
    },
    {
      "midi": 70,
      "hit": false,
      "t": 505200,
      "d": 300,
      "v": 127
    },
    {
      "midi": 41,
      "hit": false,
      "t": 505200,
      "d": 300,
      "v": 127
    },
    {
      "midi": 46,
      "hit": false,
      "t": 505200,
      "d": 300,
      "v": 127
    },
    {
      "midi": 49,
      "hit": false,
      "t": 505200,
      "d": 300,
      "v": 127
    },
    {
      "midi": 61,
      "hit": false,
      "t": 505500,
      "d": 300,
      "v": 127
    },
    {
      "midi": 73,
      "hit": false,
      "t": 505500,
      "d": 300,
      "v": 127
    },
    {
      "midi": 41,
      "hit": false,
      "t": 505500,
      "d": 300,
      "v": 127
    },
    {
      "midi": 46,
      "hit": false,
      "t": 505500,
      "d": 300,
      "v": 127
    },
    {
      "midi": 51,
      "hit": false,
      "t": 505500,
      "d": 300,
      "v": 127
    },
    {
      "midi": 60,
      "hit": false,
      "t": 506100,
      "d": 300,
      "v": 127
    },
    {
      "midi": 72,
      "hit": false,
      "t": 506100,
      "d": 300,
      "v": 127
    },
    {
      "midi": 41,
      "hit": false,
      "t": 506100,
      "d": 300,
      "v": 127
    },
    {
      "midi": 46,
      "hit": false,
      "t": 506100,
      "d": 300,
      "v": 127
    },
    {
      "midi": 52,
      "hit": false,
      "t": 506100,
      "d": 300,
      "v": 127
    },
    {
      "midi": 60,
      "hit": false,
      "t": 506400,
      "d": 1800,
      "v": 127
    },
    {
      "midi": 72,
      "hit": false,
      "t": 506400,
      "d": 1800,
      "v": 127
    },
    {
      "midi": 29,
      "hit": false,
      "t": 506400,
      "d": 300,
      "v": 127
    },
    {
      "midi": 41,
      "hit": false,
      "t": 506400,
      "d": 300,
      "v": 127
    },
    {
      "midi": 41,
      "hit": false,
      "t": 506700,
      "d": 300,
      "v": 127
    },
    {
      "midi": 45,
      "hit": false,
      "t": 506700,
      "d": 300,
      "v": 127
    },
    {
      "midi": 53,
      "hit": false,
      "t": 506700,
      "d": 300,
      "v": 127
    },
    {
      "midi": 41,
      "hit": false,
      "t": 507300,
      "d": 300,
      "v": 127
    },
    {
      "midi": 45,
      "hit": false,
      "t": 507300,
      "d": 300,
      "v": 127
    },
    {
      "midi": 52,
      "hit": false,
      "t": 507300,
      "d": 300,
      "v": 127
    },
    {
      "midi": 41,
      "hit": false,
      "t": 507600,
      "d": 300,
      "v": 127
    },
    {
      "midi": 45,
      "hit": false,
      "t": 507600,
      "d": 300,
      "v": 127
    },
    {
      "midi": 53,
      "hit": false,
      "t": 507600,
      "d": 300,
      "v": 127
    },
    {
      "midi": 41,
      "hit": false,
      "t": 507900,
      "d": 300,
      "v": 127
    },
    {
      "midi": 45,
      "hit": false,
      "t": 507900,
      "d": 300,
      "v": 127
    },
    {
      "midi": 54,
      "hit": false,
      "t": 507900,
      "d": 300,
      "v": 127
    },
    {
      "midi": 65,
      "hit": false,
      "t": 508200,
      "d": 600,
      "v": 127
    },
    {
      "midi": 41,
      "hit": false,
      "t": 508500,
      "d": 300,
      "v": 127
    },
    {
      "midi": 45,
      "hit": false,
      "t": 508500,
      "d": 300,
      "v": 127
    },
    {
      "midi": 53,
      "hit": false,
      "t": 508500,
      "d": 300,
      "v": 127
    },
    {
      "midi": 61,
      "hit": false,
      "t": 508800,
      "d": 1800,
      "v": 127
    },
    {
      "midi": 65,
      "hit": false,
      "t": 508800,
      "d": 1800,
      "v": 127
    },
    {
      "midi": 73,
      "hit": false,
      "t": 508800,
      "d": 1800,
      "v": 127
    },
    {
      "midi": 34,
      "hit": false,
      "t": 508800,
      "d": 300,
      "v": 127
    },
    {
      "midi": 46,
      "hit": false,
      "t": 508800,
      "d": 300,
      "v": 127
    },
    {
      "midi": 46,
      "hit": false,
      "t": 509100,
      "d": 300,
      "v": 127
    },
    {
      "midi": 49,
      "hit": false,
      "t": 509100,
      "d": 300,
      "v": 127
    },
    {
      "midi": 53,
      "hit": false,
      "t": 509100,
      "d": 300,
      "v": 127
    },
    {
      "midi": 46,
      "hit": false,
      "t": 509700,
      "d": 300,
      "v": 127
    },
    {
      "midi": 49,
      "hit": false,
      "t": 509700,
      "d": 300,
      "v": 127
    },
    {
      "midi": 52,
      "hit": false,
      "t": 509700,
      "d": 300,
      "v": 127
    },
    {
      "midi": 46,
      "hit": false,
      "t": 510000,
      "d": 300,
      "v": 127
    },
    {
      "midi": 49,
      "hit": false,
      "t": 510000,
      "d": 300,
      "v": 127
    },
    {
      "midi": 53,
      "hit": false,
      "t": 510000,
      "d": 300,
      "v": 127
    },
    {
      "midi": 46,
      "hit": false,
      "t": 510300,
      "d": 300,
      "v": 127
    },
    {
      "midi": 49,
      "hit": false,
      "t": 510300,
      "d": 300,
      "v": 127
    },
    {
      "midi": 54,
      "hit": false,
      "t": 510300,
      "d": 300,
      "v": 127
    },
    {
      "midi": 61,
      "hit": false,
      "t": 510600,
      "d": 600,
      "v": 127
    },
    {
      "midi": 65,
      "hit": false,
      "t": 510600,
      "d": 600,
      "v": 127
    },
    {
      "midi": 73,
      "hit": false,
      "t": 510600,
      "d": 600,
      "v": 127
    },
    {
      "midi": 46,
      "hit": false,
      "t": 510900,
      "d": 300,
      "v": 127
    },
    {
      "midi": 49,
      "hit": false,
      "t": 510900,
      "d": 300,
      "v": 127
    },
    {
      "midi": 53,
      "hit": false,
      "t": 510900,
      "d": 300,
      "v": 127
    },
    {
      "midi": 60,
      "hit": false,
      "t": 511200,
      "d": 1200,
      "v": 127
    },
    {
      "midi": 65,
      "hit": false,
      "t": 511200,
      "d": 1200,
      "v": 127
    },
    {
      "midi": 72,
      "hit": false,
      "t": 511200,
      "d": 1200,
      "v": 127
    },
    {
      "midi": 37,
      "hit": false,
      "t": 511200,
      "d": 300,
      "v": 127
    },
    {
      "midi": 49,
      "hit": false,
      "t": 511200,
      "d": 300,
      "v": 127
    },
    {
      "midi": 49,
      "hit": false,
      "t": 511500,
      "d": 300,
      "v": 127
    },
    {
      "midi": 53,
      "hit": false,
      "t": 511500,
      "d": 300,
      "v": 127
    },
    {
      "midi": 49,
      "hit": false,
      "t": 512100,
      "d": 300,
      "v": 127
    },
    {
      "midi": 52,
      "hit": false,
      "t": 512100,
      "d": 300,
      "v": 127
    },
    {
      "midi": 58,
      "hit": false,
      "t": 512400,
      "d": 600,
      "v": 127
    },
    {
      "midi": 70,
      "hit": false,
      "t": 512400,
      "d": 600,
      "v": 127
    },
    {
      "midi": 49,
      "hit": false,
      "t": 512400,
      "d": 300,
      "v": 127
    },
    {
      "midi": 53,
      "hit": false,
      "t": 512400,
      "d": 300,
      "v": 127
    },
    {
      "midi": 49,
      "hit": false,
      "t": 512700,
      "d": 300,
      "v": 127
    },
    {
      "midi": 54,
      "hit": false,
      "t": 512700,
      "d": 300,
      "v": 127
    },
    {
      "midi": 58,
      "hit": false,
      "t": 513000,
      "d": 600,
      "v": 127
    },
    {
      "midi": 65,
      "hit": false,
      "t": 513000,
      "d": 600,
      "v": 127
    },
    {
      "midi": 70,
      "hit": false,
      "t": 513000,
      "d": 600,
      "v": 127
    },
    {
      "midi": 49,
      "hit": false,
      "t": 513300,
      "d": 300,
      "v": 127
    },
    {
      "midi": 53,
      "hit": false,
      "t": 513300,
      "d": 300,
      "v": 127
    },
    {
      "midi": 70,
      "hit": false,
      "t": 513600,
      "d": 900,
      "v": 127
    },
    {
      "midi": 36,
      "hit": false,
      "t": 513600,
      "d": 300,
      "v": 127
    },
    {
      "midi": 48,
      "hit": false,
      "t": 513900,
      "d": 300,
      "v": 127
    },
    {
      "midi": 51,
      "hit": false,
      "t": 513900,
      "d": 300,
      "v": 127
    },
    {
      "midi": 53,
      "hit": false,
      "t": 513900,
      "d": 300,
      "v": 127
    },
    {
      "midi": 52,
      "hit": false,
      "t": 514200,
      "d": 300,
      "v": 127
    },
    {
      "midi": 57,
      "hit": false,
      "t": 514500,
      "d": 300,
      "v": 127
    },
    {
      "midi": 69,
      "hit": false,
      "t": 514500,
      "d": 300,
      "v": 127
    },
    {
      "midi": 48,
      "hit": false,
      "t": 514500,
      "d": 300,
      "v": 127
    },
    {
      "midi": 51,
      "hit": false,
      "t": 514500,
      "d": 300,
      "v": 127
    },
    {
      "midi": 60,
      "hit": false,
      "t": 514800,
      "d": 300,
      "v": 127
    },
    {
      "midi": 72,
      "hit": false,
      "t": 514800,
      "d": 300,
      "v": 127
    },
    {
      "midi": 48,
      "hit": false,
      "t": 514800,
      "d": 300,
      "v": 127
    },
    {
      "midi": 51,
      "hit": false,
      "t": 514800,
      "d": 300,
      "v": 127
    },
    {
      "midi": 53,
      "hit": false,
      "t": 514800,
      "d": 300,
      "v": 127
    },
    {
      "midi": 63,
      "hit": false,
      "t": 515100,
      "d": 300,
      "v": 127
    },
    {
      "midi": 75,
      "hit": false,
      "t": 515100,
      "d": 300,
      "v": 127
    },
    {
      "midi": 48,
      "hit": false,
      "t": 515100,
      "d": 300,
      "v": 127
    },
    {
      "midi": 51,
      "hit": false,
      "t": 515100,
      "d": 300,
      "v": 127
    },
    {
      "midi": 66,
      "hit": false,
      "t": 515700,
      "d": 300,
      "v": 127
    },
    {
      "midi": 72,
      "hit": false,
      "t": 515700,
      "d": 300,
      "v": 127
    },
    {
      "midi": 75,
      "hit": false,
      "t": 515700,
      "d": 300,
      "v": 127
    },
    {
      "midi": 78,
      "hit": false,
      "t": 515700,
      "d": 300,
      "v": 127
    },
    {
      "midi": 48,
      "hit": false,
      "t": 515700,
      "d": 300,
      "v": 127
    },
    {
      "midi": 51,
      "hit": false,
      "t": 515700,
      "d": 300,
      "v": 127
    },
    {
      "midi": 54,
      "hit": false,
      "t": 515700,
      "d": 300,
      "v": 127
    },
    {
      "midi": 65,
      "hit": false,
      "t": 516000,
      "d": 1800,
      "v": 127
    },
    {
      "midi": 72,
      "hit": false,
      "t": 516000,
      "d": 1800,
      "v": 127
    },
    {
      "midi": 75,
      "hit": false,
      "t": 516000,
      "d": 1800,
      "v": 127
    },
    {
      "midi": 77,
      "hit": false,
      "t": 516000,
      "d": 1800,
      "v": 127
    },
    {
      "midi": 33,
      "hit": false,
      "t": 516000,
      "d": 300,
      "v": 127
    },
    {
      "midi": 45,
      "hit": false,
      "t": 516300,
      "d": 300,
      "v": 127
    },
    {
      "midi": 48,
      "hit": false,
      "t": 516300,
      "d": 300,
      "v": 127
    },
    {
      "midi": 53,
      "hit": false,
      "t": 516300,
      "d": 300,
      "v": 127
    },
    {
      "midi": 45,
      "hit": false,
      "t": 516900,
      "d": 300,
      "v": 127
    },
    {
      "midi": 48,
      "hit": false,
      "t": 516900,
      "d": 300,
      "v": 127
    },
    {
      "midi": 52,
      "hit": false,
      "t": 516900,
      "d": 300,
      "v": 127
    },
    {
      "midi": 45,
      "hit": false,
      "t": 517200,
      "d": 300,
      "v": 127
    },
    {
      "midi": 48,
      "hit": false,
      "t": 517200,
      "d": 300,
      "v": 127
    },
    {
      "midi": 53,
      "hit": false,
      "t": 517200,
      "d": 300,
      "v": 127
    },
    {
      "midi": 45,
      "hit": false,
      "t": 517500,
      "d": 300,
      "v": 127
    },
    {
      "midi": 48,
      "hit": false,
      "t": 517500,
      "d": 300,
      "v": 127
    },
    {
      "midi": 54,
      "hit": false,
      "t": 517500,
      "d": 300,
      "v": 127
    },
    {
      "midi": 63,
      "hit": false,
      "t": 517800,
      "d": 600,
      "v": 127
    },
    {
      "midi": 75,
      "hit": false,
      "t": 517800,
      "d": 600,
      "v": 127
    },
    {
      "midi": 45,
      "hit": false,
      "t": 518100,
      "d": 300,
      "v": 127
    },
    {
      "midi": 48,
      "hit": false,
      "t": 518100,
      "d": 300,
      "v": 127
    },
    {
      "midi": 53,
      "hit": false,
      "t": 518100,
      "d": 300,
      "v": 127
    },
    {
      "midi": 63,
      "hit": false,
      "t": 518400,
      "d": 900,
      "v": 127
    },
    {
      "midi": 75,
      "hit": false,
      "t": 518400,
      "d": 900,
      "v": 127
    },
    {
      "midi": 34,
      "hit": false,
      "t": 518400,
      "d": 300,
      "v": 127
    },
    {
      "midi": 46,
      "hit": false,
      "t": 518700,
      "d": 300,
      "v": 127
    },
    {
      "midi": 49,
      "hit": false,
      "t": 518700,
      "d": 300,
      "v": 127
    },
    {
      "midi": 53,
      "hit": false,
      "t": 518700,
      "d": 300,
      "v": 127
    },
    {
      "midi": 61,
      "hit": false,
      "t": 519300,
      "d": 300,
      "v": 127
    },
    {
      "midi": 73,
      "hit": false,
      "t": 519300,
      "d": 300,
      "v": 127
    },
    {
      "midi": 46,
      "hit": false,
      "t": 519300,
      "d": 300,
      "v": 127
    },
    {
      "midi": 49,
      "hit": false,
      "t": 519300,
      "d": 300,
      "v": 127
    },
    {
      "midi": 52,
      "hit": false,
      "t": 519300,
      "d": 300,
      "v": 127
    },
    {
      "midi": 58,
      "hit": false,
      "t": 519600,
      "d": 300,
      "v": 127
    },
    {
      "midi": 70,
      "hit": false,
      "t": 519600,
      "d": 300,
      "v": 127
    },
    {
      "midi": 46,
      "hit": false,
      "t": 519600,
      "d": 300,
      "v": 127
    },
    {
      "midi": 49,
      "hit": false,
      "t": 519600,
      "d": 300,
      "v": 127
    },
    {
      "midi": 53,
      "hit": false,
      "t": 519600,
      "d": 300,
      "v": 127
    },
    {
      "midi": 60,
      "hit": false,
      "t": 519900,
      "d": 300,
      "v": 127
    },
    {
      "midi": 72,
      "hit": false,
      "t": 519900,
      "d": 300,
      "v": 127
    },
    {
      "midi": 46,
      "hit": false,
      "t": 519900,
      "d": 300,
      "v": 127
    },
    {
      "midi": 49,
      "hit": false,
      "t": 519900,
      "d": 300,
      "v": 127
    },
    {
      "midi": 54,
      "hit": false,
      "t": 519900,
      "d": 300,
      "v": 127
    },
    {
      "midi": 61,
      "hit": false,
      "t": 520500,
      "d": 300,
      "v": 127
    },
    {
      "midi": 73,
      "hit": false,
      "t": 520500,
      "d": 300,
      "v": 127
    },
    {
      "midi": 46,
      "hit": false,
      "t": 520500,
      "d": 300,
      "v": 127
    },
    {
      "midi": 49,
      "hit": false,
      "t": 520500,
      "d": 300,
      "v": 127
    },
    {
      "midi": 53,
      "hit": false,
      "t": 520500,
      "d": 300,
      "v": 127
    },
    {
      "midi": 60,
      "hit": false,
      "t": 520800,
      "d": 900,
      "v": 127
    },
    {
      "midi": 72,
      "hit": false,
      "t": 520800,
      "d": 900,
      "v": 127
    },
    {
      "midi": 40,
      "hit": false,
      "t": 520800,
      "d": 300,
      "v": 127
    },
    {
      "midi": 46,
      "hit": false,
      "t": 521100,
      "d": 300,
      "v": 127
    },
    {
      "midi": 48,
      "hit": false,
      "t": 521100,
      "d": 300,
      "v": 127
    },
    {
      "midi": 55,
      "hit": false,
      "t": 521100,
      "d": 300,
      "v": 127
    },
    {
      "midi": 58,
      "hit": false,
      "t": 521700,
      "d": 300,
      "v": 127
    },
    {
      "midi": 70,
      "hit": false,
      "t": 521700,
      "d": 300,
      "v": 127
    },
    {
      "midi": 46,
      "hit": false,
      "t": 521700,
      "d": 300,
      "v": 127
    },
    {
      "midi": 49,
      "hit": false,
      "t": 521700,
      "d": 300,
      "v": 127
    },
    {
      "midi": 55,
      "hit": false,
      "t": 521700,
      "d": 300,
      "v": 127
    },
    {
      "midi": 61,
      "hit": false,
      "t": 522000,
      "d": 300,
      "v": 127
    },
    {
      "midi": 73,
      "hit": false,
      "t": 522000,
      "d": 300,
      "v": 127
    },
    {
      "midi": 46,
      "hit": false,
      "t": 522000,
      "d": 300,
      "v": 127
    },
    {
      "midi": 55,
      "hit": false,
      "t": 522000,
      "d": 300,
      "v": 127
    },
    {
      "midi": 60,
      "hit": false,
      "t": 522300,
      "d": 300,
      "v": 127
    },
    {
      "midi": 72,
      "hit": false,
      "t": 522300,
      "d": 300,
      "v": 127
    },
    {
      "midi": 46,
      "hit": false,
      "t": 522300,
      "d": 300,
      "v": 127
    },
    {
      "midi": 48,
      "hit": false,
      "t": 522300,
      "d": 300,
      "v": 127
    },
    {
      "midi": 55,
      "hit": false,
      "t": 522300,
      "d": 300,
      "v": 127
    },
    {
      "midi": 58,
      "hit": false,
      "t": 522900,
      "d": 300,
      "v": 127
    },
    {
      "midi": 70,
      "hit": false,
      "t": 522900,
      "d": 300,
      "v": 127
    },
    {
      "midi": 46,
      "hit": false,
      "t": 522900,
      "d": 300,
      "v": 127
    },
    {
      "midi": 49,
      "hit": false,
      "t": 522900,
      "d": 300,
      "v": 127
    },
    {
      "midi": 55,
      "hit": false,
      "t": 522900,
      "d": 300,
      "v": 127
    },
    {
      "midi": 54,
      "hit": false,
      "t": 523200,
      "d": 900,
      "v": 127
    },
    {
      "midi": 66,
      "hit": false,
      "t": 523200,
      "d": 900,
      "v": 127
    },
    {
      "midi": 41,
      "hit": false,
      "t": 523200,
      "d": 300,
      "v": 127
    },
    {
      "midi": 46,
      "hit": false,
      "t": 523500,
      "d": 300,
      "v": 127
    },
    {
      "midi": 49,
      "hit": false,
      "t": 523500,
      "d": 300,
      "v": 127
    },
    {
      "midi": 53,
      "hit": false,
      "t": 524100,
      "d": 300,
      "v": 127
    },
    {
      "midi": 65,
      "hit": false,
      "t": 524100,
      "d": 300,
      "v": 127
    },
    {
      "midi": 46,
      "hit": false,
      "t": 524100,
      "d": 300,
      "v": 127
    },
    {
      "midi": 49,
      "hit": false,
      "t": 524100,
      "d": 300,
      "v": 127
    },
    {
      "midi": 53,
      "hit": false,
      "t": 524400,
      "d": 300,
      "v": 127
    },
    {
      "midi": 65,
      "hit": false,
      "t": 524400,
      "d": 300,
      "v": 127
    },
    {
      "midi": 41,
      "hit": false,
      "t": 524400,
      "d": 300,
      "v": 127
    },
    {
      "midi": 54,
      "hit": false,
      "t": 524700,
      "d": 300,
      "v": 127
    },
    {
      "midi": 66,
      "hit": false,
      "t": 524700,
      "d": 300,
      "v": 127
    },
    {
      "midi": 45,
      "hit": false,
      "t": 524700,
      "d": 300,
      "v": 127
    },
    {
      "midi": 48,
      "hit": false,
      "t": 524700,
      "d": 300,
      "v": 127
    },
    {
      "midi": 53,
      "hit": false,
      "t": 525300,
      "d": 300,
      "v": 127
    },
    {
      "midi": 65,
      "hit": false,
      "t": 525300,
      "d": 300,
      "v": 127
    },
    {
      "midi": 45,
      "hit": false,
      "t": 525300,
      "d": 300,
      "v": 127
    },
    {
      "midi": 48,
      "hit": false,
      "t": 525300,
      "d": 300,
      "v": 127
    },
    {
      "midi": 58,
      "hit": false,
      "t": 525600,
      "d": 1800,
      "v": 127
    },
    {
      "midi": 34,
      "hit": false,
      "t": 525600,
      "d": 300,
      "v": 127
    },
    {
      "midi": 46,
      "hit": false,
      "t": 525900,
      "d": 300,
      "v": 127
    },
    {
      "midi": 49,
      "hit": false,
      "t": 525900,
      "d": 300,
      "v": 127
    },
    {
      "midi": 53,
      "hit": false,
      "t": 525900,
      "d": 300,
      "v": 127
    },
    {
      "midi": 46,
      "hit": false,
      "t": 526500,
      "d": 300,
      "v": 127
    },
    {
      "midi": 48,
      "hit": false,
      "t": 526500,
      "d": 300,
      "v": 127
    },
    {
      "midi": 51,
      "hit": false,
      "t": 526500,
      "d": 300,
      "v": 127
    },
    {
      "midi": 46,
      "hit": false,
      "t": 526800,
      "d": 1200,
      "v": 127
    },
    {
      "midi": 49,
      "hit": false,
      "t": 526800,
      "d": 1200,
      "v": 127
    },
    {
      "midi": 77,
      "hit": false,
      "t": 527400,
      "d": 600,
      "v": 127
    },
    {
      "midi": 85,
      "hit": false,
      "t": 528000,
      "d": 300,
      "v": 127
    },
    {
      "midi": 46,
      "hit": false,
      "t": 528000,
      "d": 2400,
      "v": 127
    },
    {
      "midi": 58,
      "hit": false,
      "t": 528300,
      "d": 300,
      "v": 127
    },
    {
      "midi": 61,
      "hit": false,
      "t": 528300,
      "d": 300,
      "v": 127
    },
    {
      "midi": 65,
      "hit": false,
      "t": 528300,
      "d": 300,
      "v": 127
    },
    {
      "midi": 58,
      "hit": false,
      "t": 528900,
      "d": 300,
      "v": 127
    },
    {
      "midi": 61,
      "hit": false,
      "t": 528900,
      "d": 300,
      "v": 127
    },
    {
      "midi": 64,
      "hit": false,
      "t": 528900,
      "d": 300,
      "v": 127
    },
    {
      "midi": 58,
      "hit": false,
      "t": 529200,
      "d": 300,
      "v": 127
    },
    {
      "midi": 61,
      "hit": false,
      "t": 529200,
      "d": 300,
      "v": 127
    },
    {
      "midi": 65,
      "hit": false,
      "t": 529200,
      "d": 300,
      "v": 127
    },
    {
      "midi": 58,
      "hit": false,
      "t": 529500,
      "d": 300,
      "v": 127
    },
    {
      "midi": 61,
      "hit": false,
      "t": 529500,
      "d": 300,
      "v": 127
    },
    {
      "midi": 66,
      "hit": false,
      "t": 529500,
      "d": 300,
      "v": 127
    },
    {
      "midi": 85,
      "hit": false,
      "t": 529800,
      "d": 300,
      "v": 127
    },
    {
      "midi": 58,
      "hit": false,
      "t": 530100,
      "d": 300,
      "v": 127
    },
    {
      "midi": 61,
      "hit": false,
      "t": 530100,
      "d": 300,
      "v": 127
    },
    {
      "midi": 65,
      "hit": false,
      "t": 530100,
      "d": 300,
      "v": 127
    },
    {
      "midi": 84,
      "hit": false,
      "t": 530400,
      "d": 300,
      "v": 127
    },
    {
      "midi": 49,
      "hit": false,
      "t": 530400,
      "d": 2400,
      "v": 127
    },
    {
      "midi": 61,
      "hit": false,
      "t": 530700,
      "d": 300,
      "v": 127
    },
    {
      "midi": 65,
      "hit": false,
      "t": 530700,
      "d": 300,
      "v": 127
    },
    {
      "midi": 61,
      "hit": false,
      "t": 531300,
      "d": 300,
      "v": 127
    },
    {
      "midi": 64,
      "hit": false,
      "t": 531300,
      "d": 300,
      "v": 127
    },
    {
      "midi": 82,
      "hit": false,
      "t": 531600,
      "d": 300,
      "v": 127
    },
    {
      "midi": 61,
      "hit": false,
      "t": 531900,
      "d": 300,
      "v": 127
    },
    {
      "midi": 66,
      "hit": false,
      "t": 531900,
      "d": 300,
      "v": 127
    },
    {
      "midi": 82,
      "hit": false,
      "t": 532200,
      "d": 300,
      "v": 127
    },
    {
      "midi": 61,
      "hit": false,
      "t": 532500,
      "d": 300,
      "v": 127
    },
    {
      "midi": 65,
      "hit": false,
      "t": 532500,
      "d": 300,
      "v": 127
    },
    {
      "midi": 82,
      "hit": false,
      "t": 532800,
      "d": 300,
      "v": 127
    },
    {
      "midi": 48,
      "hit": false,
      "t": 532800,
      "d": 300,
      "v": 127
    },
    {
      "midi": 65,
      "hit": false,
      "t": 533100,
      "d": 300,
      "v": 127
    },
    {
      "midi": 60,
      "hit": false,
      "t": 533100,
      "d": 300,
      "v": 127
    },
    {
      "midi": 63,
      "hit": false,
      "t": 533100,
      "d": 300,
      "v": 127
    },
    {
      "midi": 64,
      "hit": false,
      "t": 533700,
      "d": 300,
      "v": 127
    },
    {
      "midi": 69,
      "hit": false,
      "t": 533700,
      "d": 300,
      "v": 127
    },
    {
      "midi": 81,
      "hit": false,
      "t": 533700,
      "d": 300,
      "v": 127
    },
    {
      "midi": 60,
      "hit": false,
      "t": 533700,
      "d": 300,
      "v": 127
    },
    {
      "midi": 63,
      "hit": false,
      "t": 533700,
      "d": 300,
      "v": 127
    },
    {
      "midi": 65,
      "hit": false,
      "t": 534000,
      "d": 300,
      "v": 127
    },
    {
      "midi": 72,
      "hit": false,
      "t": 534000,
      "d": 300,
      "v": 127
    },
    {
      "midi": 84,
      "hit": false,
      "t": 534000,
      "d": 300,
      "v": 127
    },
    {
      "midi": 60,
      "hit": false,
      "t": 534000,
      "d": 300,
      "v": 127
    },
    {
      "midi": 63,
      "hit": false,
      "t": 534000,
      "d": 300,
      "v": 127
    },
    {
      "midi": 63,
      "hit": false,
      "t": 534300,
      "d": 300,
      "v": 127
    },
    {
      "midi": 75,
      "hit": false,
      "t": 534300,
      "d": 300,
      "v": 127
    },
    {
      "midi": 87,
      "hit": false,
      "t": 534300,
      "d": 300,
      "v": 127
    },
    {
      "midi": 60,
      "hit": false,
      "t": 534300,
      "d": 300,
      "v": 127
    },
    {
      "midi": 63,
      "hit": false,
      "t": 534300,
      "d": 300,
      "v": 127
    },
    {
      "midi": 66,
      "hit": false,
      "t": 534900,
      "d": 300,
      "v": 127
    },
    {
      "midi": 78,
      "hit": false,
      "t": 534900,
      "d": 300,
      "v": 127
    },
    {
      "midi": 84,
      "hit": false,
      "t": 534900,
      "d": 300,
      "v": 127
    },
    {
      "midi": 87,
      "hit": false,
      "t": 534900,
      "d": 300,
      "v": 127
    },
    {
      "midi": 90,
      "hit": false,
      "t": 534900,
      "d": 300,
      "v": 127
    },
    {
      "midi": 60,
      "hit": false,
      "t": 534900,
      "d": 300,
      "v": 127
    },
    {
      "midi": 63,
      "hit": false,
      "t": 534900,
      "d": 300,
      "v": 127
    },
    {
      "midi": 89,
      "hit": false,
      "t": 535200,
      "d": 300,
      "v": 127
    },
    {
      "midi": 45,
      "hit": false,
      "t": 535200,
      "d": 300,
      "v": 127
    },
    {
      "midi": 65,
      "hit": false,
      "t": 535500,
      "d": 300,
      "v": 127
    },
    {
      "midi": 57,
      "hit": false,
      "t": 535500,
      "d": 300,
      "v": 127
    },
    {
      "midi": 60,
      "hit": false,
      "t": 535500,
      "d": 300,
      "v": 127
    },
    {
      "midi": 64,
      "hit": false,
      "t": 536100,
      "d": 300,
      "v": 127
    },
    {
      "midi": 57,
      "hit": false,
      "t": 536100,
      "d": 300,
      "v": 127
    },
    {
      "midi": 60,
      "hit": false,
      "t": 536100,
      "d": 300,
      "v": 127
    },
    {
      "midi": 65,
      "hit": false,
      "t": 536400,
      "d": 300,
      "v": 127
    },
    {
      "midi": 57,
      "hit": false,
      "t": 536400,
      "d": 300,
      "v": 127
    },
    {
      "midi": 60,
      "hit": false,
      "t": 536400,
      "d": 300,
      "v": 127
    },
    {
      "midi": 66,
      "hit": false,
      "t": 536700,
      "d": 300,
      "v": 127
    },
    {
      "midi": 57,
      "hit": false,
      "t": 536700,
      "d": 300,
      "v": 127
    },
    {
      "midi": 60,
      "hit": false,
      "t": 536700,
      "d": 300,
      "v": 127
    },
    {
      "midi": 87,
      "hit": false,
      "t": 537000,
      "d": 300,
      "v": 127
    },
    {
      "midi": 65,
      "hit": false,
      "t": 537300,
      "d": 300,
      "v": 127
    },
    {
      "midi": 57,
      "hit": false,
      "t": 537300,
      "d": 300,
      "v": 127
    },
    {
      "midi": 60,
      "hit": false,
      "t": 537300,
      "d": 300,
      "v": 127
    },
    {
      "midi": 75,
      "hit": false,
      "t": 537600,
      "d": 900,
      "v": 127
    },
    {
      "midi": 87,
      "hit": false,
      "t": 537600,
      "d": 900,
      "v": 127
    },
    {
      "midi": 46,
      "hit": false,
      "t": 537600,
      "d": 300,
      "v": 127
    },
    {
      "midi": 58,
      "hit": false,
      "t": 537900,
      "d": 300,
      "v": 127
    },
    {
      "midi": 61,
      "hit": false,
      "t": 537900,
      "d": 300,
      "v": 127
    },
    {
      "midi": 65,
      "hit": false,
      "t": 537900,
      "d": 300,
      "v": 127
    },
    {
      "midi": 73,
      "hit": false,
      "t": 538500,
      "d": 300,
      "v": 127
    },
    {
      "midi": 85,
      "hit": false,
      "t": 538500,
      "d": 300,
      "v": 127
    },
    {
      "midi": 58,
      "hit": false,
      "t": 538500,
      "d": 300,
      "v": 127
    },
    {
      "midi": 61,
      "hit": false,
      "t": 538500,
      "d": 300,
      "v": 127
    },
    {
      "midi": 64,
      "hit": false,
      "t": 538500,
      "d": 300,
      "v": 127
    },
    {
      "midi": 70,
      "hit": false,
      "t": 538800,
      "d": 300,
      "v": 127
    },
    {
      "midi": 82,
      "hit": false,
      "t": 538800,
      "d": 300,
      "v": 127
    },
    {
      "midi": 58,
      "hit": false,
      "t": 538800,
      "d": 300,
      "v": 127
    },
    {
      "midi": 61,
      "hit": false,
      "t": 538800,
      "d": 300,
      "v": 127
    },
    {
      "midi": 65,
      "hit": false,
      "t": 538800,
      "d": 300,
      "v": 127
    },
    {
      "midi": 72,
      "hit": false,
      "t": 539100,
      "d": 300,
      "v": 127
    },
    {
      "midi": 84,
      "hit": false,
      "t": 539100,
      "d": 300,
      "v": 127
    },
    {
      "midi": 58,
      "hit": false,
      "t": 539100,
      "d": 300,
      "v": 127
    },
    {
      "midi": 61,
      "hit": false,
      "t": 539100,
      "d": 300,
      "v": 127
    },
    {
      "midi": 66,
      "hit": false,
      "t": 539100,
      "d": 300,
      "v": 127
    },
    {
      "midi": 73,
      "hit": false,
      "t": 539700,
      "d": 300,
      "v": 127
    },
    {
      "midi": 85,
      "hit": false,
      "t": 539700,
      "d": 300,
      "v": 127
    },
    {
      "midi": 58,
      "hit": false,
      "t": 539700,
      "d": 300,
      "v": 127
    },
    {
      "midi": 61,
      "hit": false,
      "t": 539700,
      "d": 300,
      "v": 127
    },
    {
      "midi": 65,
      "hit": false,
      "t": 539700,
      "d": 300,
      "v": 127
    },
    {
      "midi": 77,
      "hit": false,
      "t": 540000,
      "d": 900,
      "v": 127
    },
    {
      "midi": 85,
      "hit": false,
      "t": 540000,
      "d": 900,
      "v": 127
    },
    {
      "midi": 89,
      "hit": false,
      "t": 540000,
      "d": 900,
      "v": 127
    },
    {
      "midi": 42,
      "hit": false,
      "t": 540000,
      "d": 300,
      "v": 127
    },
    {
      "midi": 54,
      "hit": false,
      "t": 540300,
      "d": 300,
      "v": 127
    },
    {
      "midi": 58,
      "hit": false,
      "t": 540300,
      "d": 300,
      "v": 127
    },
    {
      "midi": 63,
      "hit": false,
      "t": 540300,
      "d": 300,
      "v": 127
    },
    {
      "midi": 75,
      "hit": false,
      "t": 540900,
      "d": 300,
      "v": 127
    },
    {
      "midi": 87,
      "hit": false,
      "t": 540900,
      "d": 300,
      "v": 127
    },
    {
      "midi": 54,
      "hit": false,
      "t": 540900,
      "d": 300,
      "v": 127
    },
    {
      "midi": 57,
      "hit": false,
      "t": 540900,
      "d": 300,
      "v": 127
    },
    {
      "midi": 63,
      "hit": false,
      "t": 540900,
      "d": 300,
      "v": 127
    },
    {
      "midi": 75,
      "hit": false,
      "t": 541200,
      "d": 300,
      "v": 127
    },
    {
      "midi": 87,
      "hit": false,
      "t": 541200,
      "d": 300,
      "v": 127
    },
    {
      "midi": 54,
      "hit": false,
      "t": 541200,
      "d": 300,
      "v": 127
    },
    {
      "midi": 58,
      "hit": false,
      "t": 541200,
      "d": 300,
      "v": 127
    },
    {
      "midi": 63,
      "hit": false,
      "t": 541200,
      "d": 300,
      "v": 127
    },
    {
      "midi": 73,
      "hit": false,
      "t": 541500,
      "d": 300,
      "v": 127
    },
    {
      "midi": 85,
      "hit": false,
      "t": 541500,
      "d": 300,
      "v": 127
    },
    {
      "midi": 54,
      "hit": false,
      "t": 541500,
      "d": 300,
      "v": 127
    },
    {
      "midi": 58,
      "hit": false,
      "t": 541500,
      "d": 300,
      "v": 127
    },
    {
      "midi": 65,
      "hit": false,
      "t": 541500,
      "d": 300,
      "v": 127
    },
    {
      "midi": 72,
      "hit": false,
      "t": 542100,
      "d": 300,
      "v": 127
    },
    {
      "midi": 84,
      "hit": false,
      "t": 542100,
      "d": 300,
      "v": 127
    },
    {
      "midi": 54,
      "hit": false,
      "t": 542100,
      "d": 300,
      "v": 127
    },
    {
      "midi": 58,
      "hit": false,
      "t": 542100,
      "d": 300,
      "v": 127
    },
    {
      "midi": 63,
      "hit": false,
      "t": 542100,
      "d": 300,
      "v": 127
    },
    {
      "midi": 70,
      "hit": false,
      "t": 542400,
      "d": 900,
      "v": 127
    },
    {
      "midi": 82,
      "hit": false,
      "t": 542400,
      "d": 900,
      "v": 127
    },
    {
      "midi": 41,
      "hit": false,
      "t": 542400,
      "d": 300,
      "v": 127
    },
    {
      "midi": 53,
      "hit": false,
      "t": 542700,
      "d": 300,
      "v": 127
    },
    {
      "midi": 58,
      "hit": false,
      "t": 542700,
      "d": 300,
      "v": 127
    },
    {
      "midi": 61,
      "hit": false,
      "t": 542700,
      "d": 300,
      "v": 127
    },
    {
      "midi": 69,
      "hit": false,
      "t": 543300,
      "d": 300,
      "v": 127
    },
    {
      "midi": 81,
      "hit": false,
      "t": 543300,
      "d": 300,
      "v": 127
    },
    {
      "midi": 53,
      "hit": false,
      "t": 543300,
      "d": 300,
      "v": 127
    },
    {
      "midi": 58,
      "hit": false,
      "t": 543300,
      "d": 300,
      "v": 127
    },
    {
      "midi": 60,
      "hit": false,
      "t": 543300,
      "d": 300,
      "v": 127
    },
    {
      "midi": 70,
      "hit": false,
      "t": 543600,
      "d": 300,
      "v": 127
    },
    {
      "midi": 82,
      "hit": false,
      "t": 543600,
      "d": 300,
      "v": 127
    },
    {
      "midi": 53,
      "hit": false,
      "t": 543600,
      "d": 300,
      "v": 127
    },
    {
      "midi": 58,
      "hit": false,
      "t": 543600,
      "d": 300,
      "v": 127
    },
    {
      "midi": 61,
      "hit": false,
      "t": 543600,
      "d": 300,
      "v": 127
    },
    {
      "midi": 73,
      "hit": false,
      "t": 543900,
      "d": 300,
      "v": 127
    },
    {
      "midi": 85,
      "hit": false,
      "t": 543900,
      "d": 300,
      "v": 127
    },
    {
      "midi": 53,
      "hit": false,
      "t": 543900,
      "d": 300,
      "v": 127
    },
    {
      "midi": 58,
      "hit": false,
      "t": 543900,
      "d": 300,
      "v": 127
    },
    {
      "midi": 63,
      "hit": false,
      "t": 543900,
      "d": 300,
      "v": 127
    },
    {
      "midi": 72,
      "hit": false,
      "t": 544500,
      "d": 300,
      "v": 127
    },
    {
      "midi": 84,
      "hit": false,
      "t": 544500,
      "d": 300,
      "v": 127
    },
    {
      "midi": 53,
      "hit": false,
      "t": 544500,
      "d": 300,
      "v": 127
    },
    {
      "midi": 58,
      "hit": false,
      "t": 544500,
      "d": 300,
      "v": 127
    },
    {
      "midi": 64,
      "hit": false,
      "t": 544500,
      "d": 300,
      "v": 127
    },
    {
      "midi": 84,
      "hit": false,
      "t": 544800,
      "d": 300,
      "v": 127
    },
    {
      "midi": 41,
      "hit": false,
      "t": 544800,
      "d": 300,
      "v": 127
    },
    {
      "midi": 65,
      "hit": false,
      "t": 545100,
      "d": 300,
      "v": 127
    },
    {
      "midi": 53,
      "hit": false,
      "t": 545100,
      "d": 300,
      "v": 127
    },
    {
      "midi": 57,
      "hit": false,
      "t": 545100,
      "d": 300,
      "v": 127
    },
    {
      "midi": 64,
      "hit": false,
      "t": 545700,
      "d": 300,
      "v": 127
    },
    {
      "midi": 53,
      "hit": false,
      "t": 545700,
      "d": 300,
      "v": 127
    },
    {
      "midi": 57,
      "hit": false,
      "t": 545700,
      "d": 300,
      "v": 127
    },
    {
      "midi": 65,
      "hit": false,
      "t": 546000,
      "d": 300,
      "v": 127
    },
    {
      "midi": 53,
      "hit": false,
      "t": 546000,
      "d": 300,
      "v": 127
    },
    {
      "midi": 57,
      "hit": false,
      "t": 546000,
      "d": 300,
      "v": 127
    },
    {
      "midi": 66,
      "hit": false,
      "t": 546300,
      "d": 300,
      "v": 127
    },
    {
      "midi": 53,
      "hit": false,
      "t": 546300,
      "d": 300,
      "v": 127
    },
    {
      "midi": 57,
      "hit": false,
      "t": 546300,
      "d": 300,
      "v": 127
    },
    {
      "midi": 77,
      "hit": false,
      "t": 546600,
      "d": 300,
      "v": 127
    },
    {
      "midi": 65,
      "hit": false,
      "t": 546900,
      "d": 300,
      "v": 127
    },
    {
      "midi": 53,
      "hit": false,
      "t": 546900,
      "d": 300,
      "v": 127
    },
    {
      "midi": 57,
      "hit": false,
      "t": 546900,
      "d": 300,
      "v": 127
    },
    {
      "midi": 85,
      "hit": false,
      "t": 547200,
      "d": 300,
      "v": 127
    },
    {
      "midi": 46,
      "hit": false,
      "t": 547200,
      "d": 300,
      "v": 127
    },
    {
      "midi": 65,
      "hit": false,
      "t": 547500,
      "d": 300,
      "v": 127
    },
    {
      "midi": 58,
      "hit": false,
      "t": 547500,
      "d": 300,
      "v": 127
    },
    {
      "midi": 61,
      "hit": false,
      "t": 547500,
      "d": 300,
      "v": 127
    },
    {
      "midi": 64,
      "hit": false,
      "t": 548100,
      "d": 300,
      "v": 127
    },
    {
      "midi": 58,
      "hit": false,
      "t": 548100,
      "d": 300,
      "v": 127
    },
    {
      "midi": 61,
      "hit": false,
      "t": 548100,
      "d": 300,
      "v": 127
    },
    {
      "midi": 65,
      "hit": false,
      "t": 548400,
      "d": 300,
      "v": 127
    },
    {
      "midi": 58,
      "hit": false,
      "t": 548400,
      "d": 300,
      "v": 127
    },
    {
      "midi": 61,
      "hit": false,
      "t": 548400,
      "d": 300,
      "v": 127
    },
    {
      "midi": 66,
      "hit": false,
      "t": 548700,
      "d": 300,
      "v": 127
    },
    {
      "midi": 58,
      "hit": false,
      "t": 548700,
      "d": 300,
      "v": 127
    },
    {
      "midi": 61,
      "hit": false,
      "t": 548700,
      "d": 300,
      "v": 127
    },
    {
      "midi": 85,
      "hit": false,
      "t": 549000,
      "d": 300,
      "v": 127
    },
    {
      "midi": 65,
      "hit": false,
      "t": 549300,
      "d": 300,
      "v": 127
    },
    {
      "midi": 58,
      "hit": false,
      "t": 549300,
      "d": 300,
      "v": 127
    },
    {
      "midi": 61,
      "hit": false,
      "t": 549300,
      "d": 300,
      "v": 127
    },
    {
      "midi": 72,
      "hit": false,
      "t": 549600,
      "d": 1200,
      "v": 127
    },
    {
      "midi": 77,
      "hit": false,
      "t": 549600,
      "d": 1200,
      "v": 127
    },
    {
      "midi": 84,
      "hit": false,
      "t": 549600,
      "d": 1200,
      "v": 127
    },
    {
      "midi": 46,
      "hit": false,
      "t": 549600,
      "d": 300,
      "v": 127
    },
    {
      "midi": 61,
      "hit": false,
      "t": 549900,
      "d": 300,
      "v": 127
    },
    {
      "midi": 65,
      "hit": false,
      "t": 549900,
      "d": 300,
      "v": 127
    },
    {
      "midi": 61,
      "hit": false,
      "t": 550500,
      "d": 300,
      "v": 127
    },
    {
      "midi": 64,
      "hit": false,
      "t": 550500,
      "d": 300,
      "v": 127
    },
    {
      "midi": 70,
      "hit": false,
      "t": 550800,
      "d": 600,
      "v": 127
    },
    {
      "midi": 82,
      "hit": false,
      "t": 550800,
      "d": 600,
      "v": 127
    },
    {
      "midi": 61,
      "hit": false,
      "t": 550800,
      "d": 300,
      "v": 127
    },
    {
      "midi": 65,
      "hit": false,
      "t": 550800,
      "d": 300,
      "v": 127
    },
    {
      "midi": 61,
      "hit": false,
      "t": 551100,
      "d": 300,
      "v": 127
    },
    {
      "midi": 66,
      "hit": false,
      "t": 551100,
      "d": 300,
      "v": 127
    },
    {
      "midi": 70,
      "hit": false,
      "t": 551400,
      "d": 600,
      "v": 127
    },
    {
      "midi": 77,
      "hit": false,
      "t": 551400,
      "d": 600,
      "v": 127
    },
    {
      "midi": 82,
      "hit": false,
      "t": 551400,
      "d": 600,
      "v": 127
    },
    {
      "midi": 61,
      "hit": false,
      "t": 551700,
      "d": 300,
      "v": 127
    },
    {
      "midi": 65,
      "hit": false,
      "t": 551700,
      "d": 300,
      "v": 127
    },
    {
      "midi": 82,
      "hit": false,
      "t": 552000,
      "d": 300,
      "v": 127
    },
    {
      "midi": 48,
      "hit": false,
      "t": 552000,
      "d": 300,
      "v": 127
    },
    {
      "midi": 65,
      "hit": false,
      "t": 552300,
      "d": 300,
      "v": 127
    },
    {
      "midi": 60,
      "hit": false,
      "t": 552300,
      "d": 300,
      "v": 127
    },
    {
      "midi": 63,
      "hit": false,
      "t": 552300,
      "d": 300,
      "v": 127
    },
    {
      "midi": 64,
      "hit": false,
      "t": 552900,
      "d": 300,
      "v": 127
    },
    {
      "midi": 69,
      "hit": false,
      "t": 552900,
      "d": 300,
      "v": 127
    },
    {
      "midi": 81,
      "hit": false,
      "t": 552900,
      "d": 300,
      "v": 127
    },
    {
      "midi": 60,
      "hit": false,
      "t": 552900,
      "d": 300,
      "v": 127
    },
    {
      "midi": 63,
      "hit": false,
      "t": 552900,
      "d": 300,
      "v": 127
    },
    {
      "midi": 65,
      "hit": false,
      "t": 553200,
      "d": 300,
      "v": 127
    },
    {
      "midi": 72,
      "hit": false,
      "t": 553200,
      "d": 300,
      "v": 127
    },
    {
      "midi": 84,
      "hit": false,
      "t": 553200,
      "d": 300,
      "v": 127
    },
    {
      "midi": 60,
      "hit": false,
      "t": 553200,
      "d": 300,
      "v": 127
    },
    {
      "midi": 63,
      "hit": false,
      "t": 553200,
      "d": 300,
      "v": 127
    },
    {
      "midi": 63,
      "hit": false,
      "t": 553500,
      "d": 300,
      "v": 127
    },
    {
      "midi": 75,
      "hit": false,
      "t": 553500,
      "d": 300,
      "v": 127
    },
    {
      "midi": 87,
      "hit": false,
      "t": 553500,
      "d": 300,
      "v": 127
    },
    {
      "midi": 60,
      "hit": false,
      "t": 553500,
      "d": 300,
      "v": 127
    },
    {
      "midi": 63,
      "hit": false,
      "t": 553500,
      "d": 300,
      "v": 127
    },
    {
      "midi": 66,
      "hit": false,
      "t": 554100,
      "d": 300,
      "v": 127
    },
    {
      "midi": 78,
      "hit": false,
      "t": 554100,
      "d": 300,
      "v": 127
    },
    {
      "midi": 84,
      "hit": false,
      "t": 554100,
      "d": 300,
      "v": 127
    },
    {
      "midi": 87,
      "hit": false,
      "t": 554100,
      "d": 300,
      "v": 127
    },
    {
      "midi": 90,
      "hit": false,
      "t": 554100,
      "d": 300,
      "v": 127
    },
    {
      "midi": 60,
      "hit": false,
      "t": 554100,
      "d": 300,
      "v": 127
    },
    {
      "midi": 63,
      "hit": false,
      "t": 554100,
      "d": 300,
      "v": 127
    },
    {
      "midi": 89,
      "hit": false,
      "t": 554400,
      "d": 300,
      "v": 127
    },
    {
      "midi": 45,
      "hit": false,
      "t": 554400,
      "d": 300,
      "v": 127
    },
    {
      "midi": 65,
      "hit": false,
      "t": 554700,
      "d": 300,
      "v": 127
    },
    {
      "midi": 57,
      "hit": false,
      "t": 554700,
      "d": 300,
      "v": 127
    },
    {
      "midi": 60,
      "hit": false,
      "t": 554700,
      "d": 300,
      "v": 127
    },
    {
      "midi": 64,
      "hit": false,
      "t": 555300,
      "d": 300,
      "v": 127
    },
    {
      "midi": 57,
      "hit": false,
      "t": 555300,
      "d": 300,
      "v": 127
    },
    {
      "midi": 60,
      "hit": false,
      "t": 555300,
      "d": 300,
      "v": 127
    },
    {
      "midi": 65,
      "hit": false,
      "t": 555600,
      "d": 300,
      "v": 127
    },
    {
      "midi": 57,
      "hit": false,
      "t": 555600,
      "d": 300,
      "v": 127
    },
    {
      "midi": 60,
      "hit": false,
      "t": 555600,
      "d": 300,
      "v": 127
    },
    {
      "midi": 66,
      "hit": false,
      "t": 555900,
      "d": 300,
      "v": 127
    },
    {
      "midi": 57,
      "hit": false,
      "t": 555900,
      "d": 300,
      "v": 127
    },
    {
      "midi": 60,
      "hit": false,
      "t": 555900,
      "d": 300,
      "v": 127
    },
    {
      "midi": 87,
      "hit": false,
      "t": 556200,
      "d": 300,
      "v": 127
    },
    {
      "midi": 65,
      "hit": false,
      "t": 556500,
      "d": 300,
      "v": 127
    },
    {
      "midi": 57,
      "hit": false,
      "t": 556500,
      "d": 300,
      "v": 127
    },
    {
      "midi": 60,
      "hit": false,
      "t": 556500,
      "d": 300,
      "v": 127
    },
    {
      "midi": 87,
      "hit": false,
      "t": 556800,
      "d": 300,
      "v": 127
    },
    {
      "midi": 46,
      "hit": false,
      "t": 556800,
      "d": 300,
      "v": 127
    },
    {
      "midi": 65,
      "hit": false,
      "t": 557100,
      "d": 300,
      "v": 127
    },
    {
      "midi": 58,
      "hit": false,
      "t": 557100,
      "d": 300,
      "v": 127
    },
    {
      "midi": 61,
      "hit": false,
      "t": 557100,
      "d": 300,
      "v": 127
    },
    {
      "midi": 64,
      "hit": false,
      "t": 557700,
      "d": 300,
      "v": 127
    },
    {
      "midi": 73,
      "hit": false,
      "t": 557700,
      "d": 300,
      "v": 127
    },
    {
      "midi": 85,
      "hit": false,
      "t": 557700,
      "d": 300,
      "v": 127
    },
    {
      "midi": 58,
      "hit": false,
      "t": 557700,
      "d": 300,
      "v": 127
    },
    {
      "midi": 61,
      "hit": false,
      "t": 557700,
      "d": 300,
      "v": 127
    },
    {
      "midi": 65,
      "hit": false,
      "t": 558000,
      "d": 300,
      "v": 127
    },
    {
      "midi": 70,
      "hit": false,
      "t": 558000,
      "d": 300,
      "v": 127
    },
    {
      "midi": 82,
      "hit": false,
      "t": 558000,
      "d": 300,
      "v": 127
    },
    {
      "midi": 58,
      "hit": false,
      "t": 558000,
      "d": 300,
      "v": 127
    },
    {
      "midi": 61,
      "hit": false,
      "t": 558000,
      "d": 300,
      "v": 127
    },
    {
      "midi": 66,
      "hit": false,
      "t": 558300,
      "d": 300,
      "v": 127
    },
    {
      "midi": 72,
      "hit": false,
      "t": 558300,
      "d": 300,
      "v": 127
    },
    {
      "midi": 84,
      "hit": false,
      "t": 558300,
      "d": 300,
      "v": 127
    },
    {
      "midi": 58,
      "hit": false,
      "t": 558300,
      "d": 300,
      "v": 127
    },
    {
      "midi": 61,
      "hit": false,
      "t": 558300,
      "d": 300,
      "v": 127
    },
    {
      "midi": 65,
      "hit": false,
      "t": 558900,
      "d": 300,
      "v": 127
    },
    {
      "midi": 73,
      "hit": false,
      "t": 558900,
      "d": 300,
      "v": 127
    },
    {
      "midi": 85,
      "hit": false,
      "t": 558900,
      "d": 300,
      "v": 127
    },
    {
      "midi": 58,
      "hit": false,
      "t": 558900,
      "d": 300,
      "v": 127
    },
    {
      "midi": 61,
      "hit": false,
      "t": 558900,
      "d": 300,
      "v": 127
    },
    {
      "midi": 84,
      "hit": false,
      "t": 559200,
      "d": 300,
      "v": 127
    },
    {
      "midi": 52,
      "hit": false,
      "t": 559200,
      "d": 2400,
      "v": 127
    },
    {
      "midi": 58,
      "hit": false,
      "t": 559500,
      "d": 300,
      "v": 127
    },
    {
      "midi": 60,
      "hit": false,
      "t": 559500,
      "d": 300,
      "v": 127
    },
    {
      "midi": 67,
      "hit": false,
      "t": 559500,
      "d": 300,
      "v": 127
    },
    {
      "midi": 58,
      "hit": false,
      "t": 560100,
      "d": 300,
      "v": 127
    },
    {
      "midi": 61,
      "hit": false,
      "t": 560100,
      "d": 300,
      "v": 127
    },
    {
      "midi": 67,
      "hit": false,
      "t": 560100,
      "d": 300,
      "v": 127
    },
    {
      "midi": 70,
      "hit": false,
      "t": 560100,
      "d": 300,
      "v": 127
    },
    {
      "midi": 82,
      "hit": false,
      "t": 560100,
      "d": 300,
      "v": 127
    },
    {
      "midi": 58,
      "hit": false,
      "t": 560400,
      "d": 300,
      "v": 127
    },
    {
      "midi": 67,
      "hit": false,
      "t": 560400,
      "d": 300,
      "v": 127
    },
    {
      "midi": 73,
      "hit": false,
      "t": 560400,
      "d": 300,
      "v": 127
    },
    {
      "midi": 85,
      "hit": false,
      "t": 560400,
      "d": 300,
      "v": 127
    },
    {
      "midi": 58,
      "hit": false,
      "t": 560700,
      "d": 300,
      "v": 127
    },
    {
      "midi": 60,
      "hit": false,
      "t": 560700,
      "d": 300,
      "v": 127
    },
    {
      "midi": 67,
      "hit": false,
      "t": 560700,
      "d": 300,
      "v": 127
    },
    {
      "midi": 72,
      "hit": false,
      "t": 560700,
      "d": 300,
      "v": 127
    },
    {
      "midi": 84,
      "hit": false,
      "t": 560700,
      "d": 300,
      "v": 127
    },
    {
      "midi": 58,
      "hit": false,
      "t": 561300,
      "d": 300,
      "v": 127
    },
    {
      "midi": 61,
      "hit": false,
      "t": 561300,
      "d": 300,
      "v": 127
    },
    {
      "midi": 67,
      "hit": false,
      "t": 561300,
      "d": 300,
      "v": 127
    },
    {
      "midi": 70,
      "hit": false,
      "t": 561300,
      "d": 300,
      "v": 127
    },
    {
      "midi": 82,
      "hit": false,
      "t": 561300,
      "d": 300,
      "v": 127
    },
    {
      "midi": 66,
      "hit": false,
      "t": 561600,
      "d": 900,
      "v": 127
    },
    {
      "midi": 78,
      "hit": false,
      "t": 561600,
      "d": 900,
      "v": 127
    },
    {
      "midi": 53,
      "hit": false,
      "t": 561600,
      "d": 300,
      "v": 127
    },
    {
      "midi": 58,
      "hit": false,
      "t": 561900,
      "d": 300,
      "v": 127
    },
    {
      "midi": 61,
      "hit": false,
      "t": 561900,
      "d": 300,
      "v": 127
    },
    {
      "midi": 65,
      "hit": false,
      "t": 562500,
      "d": 300,
      "v": 127
    },
    {
      "midi": 77,
      "hit": false,
      "t": 562500,
      "d": 300,
      "v": 127
    },
    {
      "midi": 58,
      "hit": false,
      "t": 562500,
      "d": 300,
      "v": 127
    },
    {
      "midi": 61,
      "hit": false,
      "t": 562500,
      "d": 300,
      "v": 127
    },
    {
      "midi": 65,
      "hit": false,
      "t": 562800,
      "d": 300,
      "v": 127
    },
    {
      "midi": 77,
      "hit": false,
      "t": 562800,
      "d": 300,
      "v": 127
    },
    {
      "midi": 53,
      "hit": false,
      "t": 562800,
      "d": 300,
      "v": 127
    },
    {
      "midi": 66,
      "hit": false,
      "t": 563100,
      "d": 300,
      "v": 127
    },
    {
      "midi": 78,
      "hit": false,
      "t": 563100,
      "d": 300,
      "v": 127
    },
    {
      "midi": 57,
      "hit": false,
      "t": 563100,
      "d": 300,
      "v": 127
    },
    {
      "midi": 60,
      "hit": false,
      "t": 563100,
      "d": 300,
      "v": 127
    },
    {
      "midi": 65,
      "hit": false,
      "t": 563700,
      "d": 300,
      "v": 127
    },
    {
      "midi": 77,
      "hit": false,
      "t": 563700,
      "d": 300,
      "v": 127
    },
    {
      "midi": 57,
      "hit": false,
      "t": 563700,
      "d": 300,
      "v": 127
    },
    {
      "midi": 60,
      "hit": false,
      "t": 563700,
      "d": 300,
      "v": 127
    },
    {
      "midi": 58,
      "hit": false,
      "t": 564000,
      "d": 1800,
      "v": 127
    },
    {
      "midi": 70,
      "hit": false,
      "t": 564000,
      "d": 1800,
      "v": 127
    },
    {
      "midi": 46,
      "hit": false,
      "t": 564000,
      "d": 300,
      "v": 127
    },
    {
      "midi": 49,
      "hit": false,
      "t": 564300,
      "d": 300,
      "v": 127
    },
    {
      "midi": 53,
      "hit": false,
      "t": 564300,
      "d": 300,
      "v": 127
    },
    {
      "midi": 48,
      "hit": false,
      "t": 564900,
      "d": 300,
      "v": 127
    },
    {
      "midi": 51,
      "hit": false,
      "t": 564900,
      "d": 300,
      "v": 127
    },
    {
      "midi": 46,
      "hit": false,
      "t": 565200,
      "d": 1200,
      "v": 127
    },
    {
      "midi": 49,
      "hit": false,
      "t": 565200,
      "d": 1200,
      "v": 127
    },
    {
      "midi": 61,
      "hit": false,
      "t": 565800,
      "d": 600,
      "v": 127
    },
    {
      "midi": 73,
      "hit": false,
      "t": 565800,
      "d": 600,
      "v": 127
    },
    {
      "midi": 61,
      "hit": false,
      "t": 566400,
      "d": 1200,
      "v": 127
    },
    {
      "midi": 73,
      "hit": false,
      "t": 566400,
      "d": 1200,
      "v": 127
    },
    {
      "midi": 37,
      "hit": false,
      "t": 566400,
      "d": 300,
      "v": 127
    },
    {
      "midi": 49,
      "hit": false,
      "t": 566700,
      "d": 300,
      "v": 127
    },
    {
      "midi": 53,
      "hit": false,
      "t": 566700,
      "d": 300,
      "v": 127
    },
    {
      "midi": 56,
      "hit": false,
      "t": 566700,
      "d": 300,
      "v": 127
    },
    {
      "midi": 49,
      "hit": false,
      "t": 567300,
      "d": 300,
      "v": 127
    },
    {
      "midi": 53,
      "hit": false,
      "t": 567300,
      "d": 300,
      "v": 127
    },
    {
      "midi": 56,
      "hit": false,
      "t": 567300,
      "d": 300,
      "v": 127
    },
    {
      "midi": 61,
      "hit": false,
      "t": 567600,
      "d": 300,
      "v": 127
    },
    {
      "midi": 73,
      "hit": false,
      "t": 567600,
      "d": 300,
      "v": 127
    },
    {
      "midi": 49,
      "hit": false,
      "t": 567600,
      "d": 300,
      "v": 127
    },
    {
      "midi": 53,
      "hit": false,
      "t": 567600,
      "d": 300,
      "v": 127
    },
    {
      "midi": 57,
      "hit": false,
      "t": 567600,
      "d": 300,
      "v": 127
    },
    {
      "midi": 63,
      "hit": false,
      "t": 567900,
      "d": 300,
      "v": 127
    },
    {
      "midi": 75,
      "hit": false,
      "t": 567900,
      "d": 300,
      "v": 127
    },
    {
      "midi": 49,
      "hit": false,
      "t": 567900,
      "d": 300,
      "v": 127
    },
    {
      "midi": 53,
      "hit": false,
      "t": 567900,
      "d": 300,
      "v": 127
    },
    {
      "midi": 57,
      "hit": false,
      "t": 567900,
      "d": 300,
      "v": 127
    },
    {
      "midi": 61,
      "hit": false,
      "t": 568500,
      "d": 300,
      "v": 127
    },
    {
      "midi": 73,
      "hit": false,
      "t": 568500,
      "d": 300,
      "v": 127
    },
    {
      "midi": 49,
      "hit": false,
      "t": 568500,
      "d": 300,
      "v": 127
    },
    {
      "midi": 53,
      "hit": false,
      "t": 568500,
      "d": 300,
      "v": 127
    },
    {
      "midi": 57,
      "hit": false,
      "t": 568500,
      "d": 300,
      "v": 127
    },
    {
      "midi": 61,
      "hit": false,
      "t": 568800,
      "d": 1200,
      "v": 127
    },
    {
      "midi": 73,
      "hit": false,
      "t": 568800,
      "d": 1200,
      "v": 127
    },
    {
      "midi": 42,
      "hit": false,
      "t": 568800,
      "d": 300,
      "v": 127
    },
    {
      "midi": 49,
      "hit": false,
      "t": 569100,
      "d": 300,
      "v": 127
    },
    {
      "midi": 54,
      "hit": false,
      "t": 569100,
      "d": 300,
      "v": 127
    },
    {
      "midi": 58,
      "hit": false,
      "t": 569100,
      "d": 300,
      "v": 127
    },
    {
      "midi": 49,
      "hit": false,
      "t": 569700,
      "d": 300,
      "v": 127
    },
    {
      "midi": 54,
      "hit": false,
      "t": 569700,
      "d": 300,
      "v": 127
    },
    {
      "midi": 58,
      "hit": false,
      "t": 569700,
      "d": 300,
      "v": 127
    },
    {
      "midi": 58,
      "hit": false,
      "t": 570000,
      "d": 900,
      "v": 127
    },
    {
      "midi": 70,
      "hit": false,
      "t": 570000,
      "d": 900,
      "v": 127
    },
    {
      "midi": 38,
      "hit": false,
      "t": 570000,
      "d": 300,
      "v": 127
    },
    {
      "midi": 50,
      "hit": false,
      "t": 570300,
      "d": 300,
      "v": 127
    },
    {
      "midi": 53,
      "hit": false,
      "t": 570300,
      "d": 300,
      "v": 127
    },
    {
      "midi": 56,
      "hit": false,
      "t": 570300,
      "d": 300,
      "v": 127
    },
    {
      "midi": 58,
      "hit": false,
      "t": 570300,
      "d": 300,
      "v": 127
    },
    {
      "midi": 70,
      "hit": false,
      "t": 570900,
      "d": 300,
      "v": 127
    },
    {
      "midi": 82,
      "hit": false,
      "t": 570900,
      "d": 300,
      "v": 127
    },
    {
      "midi": 50,
      "hit": false,
      "t": 570900,
      "d": 300,
      "v": 127
    },
    {
      "midi": 53,
      "hit": false,
      "t": 570900,
      "d": 300,
      "v": 127
    },
    {
      "midi": 56,
      "hit": false,
      "t": 570900,
      "d": 300,
      "v": 127
    },
    {
      "midi": 58,
      "hit": false,
      "t": 570900,
      "d": 300,
      "v": 127
    },
    {
      "midi": 70,
      "hit": false,
      "t": 571200,
      "d": 900,
      "v": 127
    },
    {
      "midi": 82,
      "hit": false,
      "t": 571200,
      "d": 900,
      "v": 127
    },
    {
      "midi": 39,
      "hit": false,
      "t": 571200,
      "d": 300,
      "v": 127
    },
    {
      "midi": 51,
      "hit": false,
      "t": 571500,
      "d": 300,
      "v": 127
    },
    {
      "midi": 54,
      "hit": false,
      "t": 571500,
      "d": 300,
      "v": 127
    },
    {
      "midi": 58,
      "hit": false,
      "t": 571500,
      "d": 300,
      "v": 127
    },
    {
      "midi": 71,
      "hit": false,
      "t": 572100,
      "d": 600,
      "v": 127
    },
    {
      "midi": 83,
      "hit": false,
      "t": 572100,
      "d": 600,
      "v": 127
    },
    {
      "midi": 51,
      "hit": false,
      "t": 572100,
      "d": 300,
      "v": 127
    },
    {
      "midi": 54,
      "hit": false,
      "t": 572100,
      "d": 300,
      "v": 127
    },
    {
      "midi": 59,
      "hit": false,
      "t": 572100,
      "d": 300,
      "v": 127
    },
    {
      "midi": 40,
      "hit": false,
      "t": 572400,
      "d": 300,
      "v": 127
    },
    {
      "midi": 72,
      "hit": false,
      "t": 572700,
      "d": 300,
      "v": 127
    },
    {
      "midi": 84,
      "hit": false,
      "t": 572700,
      "d": 300,
      "v": 127
    },
    {
      "midi": 52,
      "hit": false,
      "t": 572700,
      "d": 300,
      "v": 127
    },
    {
      "midi": 55,
      "hit": false,
      "t": 572700,
      "d": 300,
      "v": 127
    },
    {
      "midi": 58,
      "hit": false,
      "t": 572700,
      "d": 300,
      "v": 127
    },
    {
      "midi": 60,
      "hit": false,
      "t": 572700,
      "d": 300,
      "v": 127
    },
    {
      "midi": 73,
      "hit": false,
      "t": 573300,
      "d": 300,
      "v": 127
    },
    {
      "midi": 85,
      "hit": false,
      "t": 573300,
      "d": 300,
      "v": 127
    },
    {
      "midi": 52,
      "hit": false,
      "t": 573300,
      "d": 300,
      "v": 127
    },
    {
      "midi": 55,
      "hit": false,
      "t": 573300,
      "d": 300,
      "v": 127
    },
    {
      "midi": 58,
      "hit": false,
      "t": 573300,
      "d": 300,
      "v": 127
    },
    {
      "midi": 61,
      "hit": false,
      "t": 573300,
      "d": 300,
      "v": 127
    },
    {
      "midi": 77,
      "hit": false,
      "t": 573600,
      "d": 900,
      "v": 127
    },
    {
      "midi": 85,
      "hit": false,
      "t": 573600,
      "d": 900,
      "v": 127
    },
    {
      "midi": 89,
      "hit": false,
      "t": 573600,
      "d": 900,
      "v": 127
    },
    {
      "midi": 41,
      "hit": false,
      "t": 573600,
      "d": 300,
      "v": 127
    },
    {
      "midi": 53,
      "hit": false,
      "t": 573900,
      "d": 300,
      "v": 127
    },
    {
      "midi": 58,
      "hit": false,
      "t": 573900,
      "d": 300,
      "v": 127
    },
    {
      "midi": 61,
      "hit": false,
      "t": 573900,
      "d": 300,
      "v": 127
    },
    {
      "midi": 73,
      "hit": false,
      "t": 574500,
      "d": 300,
      "v": 127
    },
    {
      "midi": 85,
      "hit": false,
      "t": 574500,
      "d": 300,
      "v": 127
    },
    {
      "midi": 53,
      "hit": false,
      "t": 574500,
      "d": 300,
      "v": 127
    },
    {
      "midi": 58,
      "hit": false,
      "t": 574500,
      "d": 300,
      "v": 127
    },
    {
      "midi": 61,
      "hit": false,
      "t": 574500,
      "d": 300,
      "v": 127
    },
    {
      "midi": 72,
      "hit": false,
      "t": 574800,
      "d": 1200,
      "v": 127
    },
    {
      "midi": 84,
      "hit": false,
      "t": 574800,
      "d": 1200,
      "v": 127
    },
    {
      "midi": 53,
      "hit": false,
      "t": 574800,
      "d": 300,
      "v": 127
    },
    {
      "midi": 57,
      "hit": false,
      "t": 574800,
      "d": 300,
      "v": 127
    },
    {
      "midi": 60,
      "hit": false,
      "t": 574800,
      "d": 300,
      "v": 127
    },
    {
      "midi": 53,
      "hit": false,
      "t": 575100,
      "d": 300,
      "v": 127
    },
    {
      "midi": 57,
      "hit": false,
      "t": 575100,
      "d": 300,
      "v": 127
    },
    {
      "midi": 60,
      "hit": false,
      "t": 575100,
      "d": 300,
      "v": 127
    },
    {
      "midi": 53,
      "hit": false,
      "t": 575700,
      "d": 300,
      "v": 127
    },
    {
      "midi": 57,
      "hit": false,
      "t": 575700,
      "d": 300,
      "v": 127
    },
    {
      "midi": 60,
      "hit": false,
      "t": 575700,
      "d": 300,
      "v": 127
    },
    {
      "midi": 60,
      "hit": false,
      "t": 576000,
      "d": 600,
      "v": 127
    },
    {
      "midi": 72,
      "hit": false,
      "t": 576000,
      "d": 600,
      "v": 127
    },
    {
      "midi": 45,
      "hit": false,
      "t": 576000,
      "d": 300,
      "v": 127
    },
    {
      "midi": 53,
      "hit": false,
      "t": 576300,
      "d": 300,
      "v": 127
    },
    {
      "midi": 57,
      "hit": false,
      "t": 576300,
      "d": 300,
      "v": 127
    },
    {
      "midi": 60,
      "hit": false,
      "t": 576300,
      "d": 300,
      "v": 127
    },
    {
      "midi": 65,
      "hit": false,
      "t": 576600,
      "d": 600,
      "v": 127
    },
    {
      "midi": 77,
      "hit": false,
      "t": 576600,
      "d": 600,
      "v": 127
    },
    {
      "midi": 52,
      "hit": false,
      "t": 576900,
      "d": 300,
      "v": 127
    },
    {
      "midi": 57,
      "hit": false,
      "t": 576900,
      "d": 300,
      "v": 127
    },
    {
      "midi": 60,
      "hit": false,
      "t": 576900,
      "d": 300,
      "v": 127
    },
    {
      "midi": 69,
      "hit": false,
      "t": 577200,
      "d": 600,
      "v": 127
    },
    {
      "midi": 81,
      "hit": false,
      "t": 577200,
      "d": 600,
      "v": 127
    },
    {
      "midi": 53,
      "hit": false,
      "t": 577200,
      "d": 300,
      "v": 127
    },
    {
      "midi": 57,
      "hit": false,
      "t": 577200,
      "d": 300,
      "v": 127
    },
    {
      "midi": 60,
      "hit": false,
      "t": 577200,
      "d": 300,
      "v": 127
    },
    {
      "midi": 53,
      "hit": false,
      "t": 577500,
      "d": 300,
      "v": 127
    },
    {
      "midi": 57,
      "hit": false,
      "t": 577500,
      "d": 300,
      "v": 127
    },
    {
      "midi": 62,
      "hit": false,
      "t": 577500,
      "d": 300,
      "v": 127
    },
    {
      "midi": 72,
      "hit": false,
      "t": 577800,
      "d": 600,
      "v": 127
    },
    {
      "midi": 84,
      "hit": false,
      "t": 577800,
      "d": 600,
      "v": 127
    },
    {
      "midi": 53,
      "hit": false,
      "t": 578100,
      "d": 300,
      "v": 127
    },
    {
      "midi": 57,
      "hit": false,
      "t": 578100,
      "d": 300,
      "v": 127
    },
    {
      "midi": 60,
      "hit": false,
      "t": 578100,
      "d": 300,
      "v": 127
    },
    {
      "midi": 72,
      "hit": false,
      "t": 578400,
      "d": 1200,
      "v": 127
    },
    {
      "midi": 84,
      "hit": false,
      "t": 578400,
      "d": 1200,
      "v": 127
    },
    {
      "midi": 46,
      "hit": false,
      "t": 578400,
      "d": 300,
      "v": 127
    },
    {
      "midi": 54,
      "hit": false,
      "t": 578700,
      "d": 300,
      "v": 127
    },
    {
      "midi": 57,
      "hit": false,
      "t": 578700,
      "d": 300,
      "v": 127
    },
    {
      "midi": 63,
      "hit": false,
      "t": 578700,
      "d": 300,
      "v": 127
    },
    {
      "midi": 54,
      "hit": false,
      "t": 579300,
      "d": 300,
      "v": 127
    },
    {
      "midi": 57,
      "hit": false,
      "t": 579300,
      "d": 300,
      "v": 127
    },
    {
      "midi": 62,
      "hit": false,
      "t": 579300,
      "d": 300,
      "v": 127
    },
    {
      "midi": 70,
      "hit": false,
      "t": 579600,
      "d": 300,
      "v": 127
    },
    {
      "midi": 82,
      "hit": false,
      "t": 579600,
      "d": 300,
      "v": 127
    },
    {
      "midi": 55,
      "hit": false,
      "t": 579600,
      "d": 300,
      "v": 127
    },
    {
      "midi": 58,
      "hit": false,
      "t": 579600,
      "d": 300,
      "v": 127
    },
    {
      "midi": 62,
      "hit": false,
      "t": 579600,
      "d": 300,
      "v": 127
    },
    {
      "midi": 69,
      "hit": false,
      "t": 579900,
      "d": 300,
      "v": 127
    },
    {
      "midi": 81,
      "hit": false,
      "t": 579900,
      "d": 300,
      "v": 127
    },
    {
      "midi": 57,
      "hit": false,
      "t": 579900,
      "d": 300,
      "v": 127
    },
    {
      "midi": 60,
      "hit": false,
      "t": 579900,
      "d": 300,
      "v": 127
    },
    {
      "midi": 62,
      "hit": false,
      "t": 579900,
      "d": 300,
      "v": 127
    },
    {
      "midi": 67,
      "hit": false,
      "t": 580500,
      "d": 300,
      "v": 127
    },
    {
      "midi": 79,
      "hit": false,
      "t": 580500,
      "d": 300,
      "v": 127
    },
    {
      "midi": 58,
      "hit": false,
      "t": 580500,
      "d": 300,
      "v": 127
    },
    {
      "midi": 62,
      "hit": false,
      "t": 580500,
      "d": 300,
      "v": 127
    },
    {
      "midi": 67,
      "hit": false,
      "t": 580800,
      "d": 300,
      "v": 127
    },
    {
      "midi": 79,
      "hit": false,
      "t": 580800,
      "d": 300,
      "v": 127
    },
    {
      "midi": 48,
      "hit": false,
      "t": 580800,
      "d": 300,
      "v": 127
    },
    {
      "midi": 69,
      "hit": false,
      "t": 581100,
      "d": 300,
      "v": 127
    },
    {
      "midi": 81,
      "hit": false,
      "t": 581100,
      "d": 300,
      "v": 127
    },
    {
      "midi": 57,
      "hit": false,
      "t": 581100,
      "d": 300,
      "v": 127
    },
    {
      "midi": 60,
      "hit": false,
      "t": 581100,
      "d": 300,
      "v": 127
    },
    {
      "midi": 65,
      "hit": false,
      "t": 581700,
      "d": 300,
      "v": 127
    },
    {
      "midi": 77,
      "hit": false,
      "t": 581700,
      "d": 300,
      "v": 127
    },
    {
      "midi": 57,
      "hit": false,
      "t": 581700,
      "d": 300,
      "v": 127
    },
    {
      "midi": 60,
      "hit": false,
      "t": 581700,
      "d": 300,
      "v": 127
    },
    {
      "midi": 65,
      "hit": false,
      "t": 582000,
      "d": 300,
      "v": 127
    },
    {
      "midi": 77,
      "hit": false,
      "t": 582000,
      "d": 300,
      "v": 127
    },
    {
      "midi": 48,
      "hit": false,
      "t": 582000,
      "d": 300,
      "v": 127
    },
    {
      "midi": 67,
      "hit": false,
      "t": 582300,
      "d": 300,
      "v": 127
    },
    {
      "midi": 79,
      "hit": false,
      "t": 582300,
      "d": 300,
      "v": 127
    },
    {
      "midi": 55,
      "hit": false,
      "t": 582300,
      "d": 300,
      "v": 127
    },
    {
      "midi": 58,
      "hit": false,
      "t": 582300,
      "d": 300,
      "v": 127
    },
    {
      "midi": 60,
      "hit": false,
      "t": 582300,
      "d": 300,
      "v": 127
    },
    {
      "midi": 64,
      "hit": false,
      "t": 582900,
      "d": 300,
      "v": 127
    },
    {
      "midi": 76,
      "hit": false,
      "t": 582900,
      "d": 300,
      "v": 127
    },
    {
      "midi": 55,
      "hit": false,
      "t": 582900,
      "d": 300,
      "v": 127
    },
    {
      "midi": 58,
      "hit": false,
      "t": 582900,
      "d": 300,
      "v": 127
    },
    {
      "midi": 60,
      "hit": false,
      "t": 582900,
      "d": 300,
      "v": 127
    },
    {
      "midi": 65,
      "hit": false,
      "t": 583200,
      "d": 1200,
      "v": 127
    },
    {
      "midi": 77,
      "hit": false,
      "t": 583200,
      "d": 1200,
      "v": 127
    },
    {
      "midi": 41,
      "hit": false,
      "t": 583200,
      "d": 300,
      "v": 127
    },
    {
      "midi": 53,
      "hit": false,
      "t": 583500,
      "d": 300,
      "v": 127
    },
    {
      "midi": 57,
      "hit": false,
      "t": 583500,
      "d": 300,
      "v": 127
    },
    {
      "midi": 60,
      "hit": false,
      "t": 583500,
      "d": 300,
      "v": 127
    },
    {
      "midi": 53,
      "hit": false,
      "t": 584100,
      "d": 300,
      "v": 127
    },
    {
      "midi": 63,
      "hit": false,
      "t": 584400,
      "d": 300,
      "v": 127
    },
    {
      "midi": 75,
      "hit": false,
      "t": 584400,
      "d": 300,
      "v": 127
    },
    {
      "midi": 51,
      "hit": false,
      "t": 584400,
      "d": 300,
      "v": 127
    },
    {
      "midi": 53,
      "hit": false,
      "t": 584400,
      "d": 300,
      "v": 127
    },
    {
      "midi": 61,
      "hit": false,
      "t": 584700,
      "d": 300,
      "v": 127
    },
    {
      "midi": 73,
      "hit": false,
      "t": 584700,
      "d": 300,
      "v": 127
    },
    {
      "midi": 49,
      "hit": false,
      "t": 584700,
      "d": 300,
      "v": 127
    },
    {
      "midi": 53,
      "hit": false,
      "t": 584700,
      "d": 300,
      "v": 127
    },
    {
      "midi": 60,
      "hit": false,
      "t": 585300,
      "d": 300,
      "v": 127
    },
    {
      "midi": 72,
      "hit": false,
      "t": 585300,
      "d": 300,
      "v": 127
    },
    {
      "midi": 48,
      "hit": false,
      "t": 585300,
      "d": 300,
      "v": 127
    },
    {
      "midi": 53,
      "hit": false,
      "t": 585300,
      "d": 300,
      "v": 127
    },
    {
      "midi": 60,
      "hit": false,
      "t": 585600,
      "d": 1200,
      "v": 127
    },
    {
      "midi": 72,
      "hit": false,
      "t": 585600,
      "d": 1200,
      "v": 127
    },
    {
      "midi": 30,
      "hit": false,
      "t": 585600,
      "d": 300,
      "v": 127
    },
    {
      "midi": 42,
      "hit": false,
      "t": 585600,
      "d": 300,
      "v": 127
    },
    {
      "midi": 42,
      "hit": false,
      "t": 585900,
      "d": 300,
      "v": 127
    },
    {
      "midi": 46,
      "hit": false,
      "t": 585900,
      "d": 300,
      "v": 127
    },
    {
      "midi": 49,
      "hit": false,
      "t": 585900,
      "d": 300,
      "v": 127
    },
    {
      "midi": 42,
      "hit": false,
      "t": 586500,
      "d": 300,
      "v": 127
    },
    {
      "midi": 46,
      "hit": false,
      "t": 586500,
      "d": 300,
      "v": 127
    },
    {
      "midi": 48,
      "hit": false,
      "t": 586500,
      "d": 300,
      "v": 127
    },
    {
      "midi": 58,
      "hit": false,
      "t": 586800,
      "d": 600,
      "v": 127
    },
    {
      "midi": 70,
      "hit": false,
      "t": 586800,
      "d": 600,
      "v": 127
    },
    {
      "midi": 42,
      "hit": false,
      "t": 586800,
      "d": 300,
      "v": 127
    },
    {
      "midi": 46,
      "hit": false,
      "t": 586800,
      "d": 300,
      "v": 127
    },
    {
      "midi": 49,
      "hit": false,
      "t": 586800,
      "d": 300,
      "v": 127
    },
    {
      "midi": 42,
      "hit": false,
      "t": 587100,
      "d": 300,
      "v": 127
    },
    {
      "midi": 46,
      "hit": false,
      "t": 587100,
      "d": 300,
      "v": 127
    },
    {
      "midi": 51,
      "hit": false,
      "t": 587100,
      "d": 300,
      "v": 127
    },
    {
      "midi": 58,
      "hit": false,
      "t": 587400,
      "d": 600,
      "v": 127
    },
    {
      "midi": 70,
      "hit": false,
      "t": 587400,
      "d": 600,
      "v": 127
    },
    {
      "midi": 42,
      "hit": false,
      "t": 587700,
      "d": 300,
      "v": 127
    },
    {
      "midi": 46,
      "hit": false,
      "t": 587700,
      "d": 300,
      "v": 127
    },
    {
      "midi": 49,
      "hit": false,
      "t": 587700,
      "d": 300,
      "v": 127
    },
    {
      "midi": 60,
      "hit": false,
      "t": 588000,
      "d": 1200,
      "v": 127
    },
    {
      "midi": 72,
      "hit": false,
      "t": 588000,
      "d": 1200,
      "v": 127
    },
    {
      "midi": 29,
      "hit": false,
      "t": 588000,
      "d": 300,
      "v": 127
    },
    {
      "midi": 41,
      "hit": false,
      "t": 588000,
      "d": 300,
      "v": 127
    },
    {
      "midi": 41,
      "hit": false,
      "t": 588300,
      "d": 300,
      "v": 127
    },
    {
      "midi": 46,
      "hit": false,
      "t": 588300,
      "d": 300,
      "v": 127
    },
    {
      "midi": 49,
      "hit": false,
      "t": 588300,
      "d": 300,
      "v": 127
    },
    {
      "midi": 41,
      "hit": false,
      "t": 588900,
      "d": 300,
      "v": 127
    },
    {
      "midi": 46,
      "hit": false,
      "t": 588900,
      "d": 300,
      "v": 127
    },
    {
      "midi": 48,
      "hit": false,
      "t": 588900,
      "d": 300,
      "v": 127
    },
    {
      "midi": 58,
      "hit": false,
      "t": 589200,
      "d": 600,
      "v": 127
    },
    {
      "midi": 70,
      "hit": false,
      "t": 589200,
      "d": 600,
      "v": 127
    },
    {
      "midi": 41,
      "hit": false,
      "t": 589200,
      "d": 300,
      "v": 127
    },
    {
      "midi": 46,
      "hit": false,
      "t": 589200,
      "d": 300,
      "v": 127
    },
    {
      "midi": 49,
      "hit": false,
      "t": 589200,
      "d": 300,
      "v": 127
    },
    {
      "midi": 41,
      "hit": false,
      "t": 589500,
      "d": 300,
      "v": 127
    },
    {
      "midi": 46,
      "hit": false,
      "t": 589500,
      "d": 300,
      "v": 127
    },
    {
      "midi": 51,
      "hit": false,
      "t": 589500,
      "d": 300,
      "v": 127
    },
    {
      "midi": 58,
      "hit": false,
      "t": 589800,
      "d": 600,
      "v": 127
    },
    {
      "midi": 70,
      "hit": false,
      "t": 589800,
      "d": 600,
      "v": 127
    },
    {
      "midi": 41,
      "hit": false,
      "t": 590100,
      "d": 300,
      "v": 127
    },
    {
      "midi": 46,
      "hit": false,
      "t": 590100,
      "d": 300,
      "v": 127
    },
    {
      "midi": 49,
      "hit": false,
      "t": 590100,
      "d": 300,
      "v": 127
    },
    {
      "midi": 59,
      "hit": false,
      "t": 590400,
      "d": 300,
      "v": 127
    },
    {
      "midi": 71,
      "hit": false,
      "t": 590400,
      "d": 300,
      "v": 127
    },
    {
      "midi": 38,
      "hit": false,
      "t": 590400,
      "d": 300,
      "v": 127
    },
    {
      "midi": 58,
      "hit": false,
      "t": 590700,
      "d": 300,
      "v": 127
    },
    {
      "midi": 70,
      "hit": false,
      "t": 590700,
      "d": 300,
      "v": 127
    },
    {
      "midi": 50,
      "hit": false,
      "t": 590700,
      "d": 300,
      "v": 127
    },
    {
      "midi": 53,
      "hit": false,
      "t": 590700,
      "d": 300,
      "v": 127
    },
    {
      "midi": 56,
      "hit": false,
      "t": 590700,
      "d": 300,
      "v": 127
    },
    {
      "midi": 62,
      "hit": false,
      "t": 591300,
      "d": 300,
      "v": 127
    },
    {
      "midi": 74,
      "hit": false,
      "t": 591300,
      "d": 300,
      "v": 127
    },
    {
      "midi": 50,
      "hit": false,
      "t": 591300,
      "d": 300,
      "v": 127
    },
    {
      "midi": 53,
      "hit": false,
      "t": 591300,
      "d": 300,
      "v": 127
    },
    {
      "midi": 57,
      "hit": false,
      "t": 591300,
      "d": 300,
      "v": 127
    },
    {
      "midi": 65,
      "hit": false,
      "t": 591600,
      "d": 300,
      "v": 127
    },
    {
      "midi": 77,
      "hit": false,
      "t": 591600,
      "d": 300,
      "v": 127
    },
    {
      "midi": 50,
      "hit": false,
      "t": 591600,
      "d": 300,
      "v": 127
    },
    {
      "midi": 53,
      "hit": false,
      "t": 591600,
      "d": 300,
      "v": 127
    },
    {
      "midi": 58,
      "hit": false,
      "t": 591600,
      "d": 300,
      "v": 127
    },
    {
      "midi": 68,
      "hit": false,
      "t": 591900,
      "d": 300,
      "v": 127
    },
    {
      "midi": 80,
      "hit": false,
      "t": 591900,
      "d": 300,
      "v": 127
    },
    {
      "midi": 50,
      "hit": false,
      "t": 591900,
      "d": 300,
      "v": 127
    },
    {
      "midi": 53,
      "hit": false,
      "t": 591900,
      "d": 300,
      "v": 127
    },
    {
      "midi": 56,
      "hit": false,
      "t": 591900,
      "d": 300,
      "v": 127
    },
    {
      "midi": 71,
      "hit": false,
      "t": 592500,
      "d": 300,
      "v": 127
    },
    {
      "midi": 77,
      "hit": false,
      "t": 592500,
      "d": 300,
      "v": 127
    },
    {
      "midi": 80,
      "hit": false,
      "t": 592500,
      "d": 300,
      "v": 127
    },
    {
      "midi": 83,
      "hit": false,
      "t": 592500,
      "d": 300,
      "v": 127
    },
    {
      "midi": 50,
      "hit": false,
      "t": 592500,
      "d": 300,
      "v": 127
    },
    {
      "midi": 53,
      "hit": false,
      "t": 592500,
      "d": 300,
      "v": 127
    },
    {
      "midi": 56,
      "hit": false,
      "t": 592500,
      "d": 300,
      "v": 127
    },
    {
      "midi": 59,
      "hit": false,
      "t": 592500,
      "d": 300,
      "v": 127
    },
    {
      "midi": 70,
      "hit": false,
      "t": 592800,
      "d": 1200,
      "v": 127
    },
    {
      "midi": 77,
      "hit": false,
      "t": 592800,
      "d": 1200,
      "v": 127
    },
    {
      "midi": 80,
      "hit": false,
      "t": 592800,
      "d": 1200,
      "v": 127
    },
    {
      "midi": 82,
      "hit": false,
      "t": 592800,
      "d": 1200,
      "v": 127
    },
    {
      "midi": 39,
      "hit": false,
      "t": 592800,
      "d": 300,
      "v": 127
    },
    {
      "midi": 51,
      "hit": false,
      "t": 593100,
      "d": 300,
      "v": 127
    },
    {
      "midi": 54,
      "hit": false,
      "t": 593100,
      "d": 300,
      "v": 127
    },
    {
      "midi": 58,
      "hit": false,
      "t": 593100,
      "d": 300,
      "v": 127
    },
    {
      "midi": 51,
      "hit": false,
      "t": 593700,
      "d": 300,
      "v": 127
    },
    {
      "midi": 54,
      "hit": false,
      "t": 593700,
      "d": 300,
      "v": 127
    },
    {
      "midi": 57,
      "hit": false,
      "t": 593700,
      "d": 300,
      "v": 127
    },
    {
      "midi": 70,
      "hit": false,
      "t": 594000,
      "d": 600,
      "v": 127
    },
    {
      "midi": 75,
      "hit": false,
      "t": 594000,
      "d": 600,
      "v": 127
    },
    {
      "midi": 78,
      "hit": false,
      "t": 594000,
      "d": 600,
      "v": 127
    },
    {
      "midi": 82,
      "hit": false,
      "t": 594000,
      "d": 600,
      "v": 127
    },
    {
      "midi": 51,
      "hit": false,
      "t": 594000,
      "d": 300,
      "v": 127
    },
    {
      "midi": 54,
      "hit": false,
      "t": 594000,
      "d": 300,
      "v": 127
    },
    {
      "midi": 58,
      "hit": false,
      "t": 594000,
      "d": 300,
      "v": 127
    },
    {
      "midi": 51,
      "hit": false,
      "t": 594300,
      "d": 300,
      "v": 127
    },
    {
      "midi": 54,
      "hit": false,
      "t": 594300,
      "d": 300,
      "v": 127
    },
    {
      "midi": 59,
      "hit": false,
      "t": 594300,
      "d": 300,
      "v": 127
    },
    {
      "midi": 63,
      "hit": false,
      "t": 594600,
      "d": 600,
      "v": 127
    },
    {
      "midi": 75,
      "hit": false,
      "t": 594600,
      "d": 600,
      "v": 127
    },
    {
      "midi": 51,
      "hit": false,
      "t": 594900,
      "d": 300,
      "v": 127
    },
    {
      "midi": 54,
      "hit": false,
      "t": 594900,
      "d": 300,
      "v": 127
    },
    {
      "midi": 58,
      "hit": false,
      "t": 594900,
      "d": 300,
      "v": 127
    },
    {
      "midi": 61,
      "hit": false,
      "t": 595200,
      "d": 900,
      "v": 127
    },
    {
      "midi": 73,
      "hit": false,
      "t": 595200,
      "d": 900,
      "v": 127
    },
    {
      "midi": 42,
      "hit": false,
      "t": 595200,
      "d": 300,
      "v": 127
    },
    {
      "midi": 54,
      "hit": false,
      "t": 595500,
      "d": 300,
      "v": 127
    },
    {
      "midi": 58,
      "hit": false,
      "t": 595500,
      "d": 300,
      "v": 127
    },
    {
      "midi": 60,
      "hit": false,
      "t": 596100,
      "d": 300,
      "v": 127
    },
    {
      "midi": 72,
      "hit": false,
      "t": 596100,
      "d": 300,
      "v": 127
    },
    {
      "midi": 54,
      "hit": false,
      "t": 596100,
      "d": 300,
      "v": 127
    },
    {
      "midi": 58,
      "hit": false,
      "t": 596100,
      "d": 300,
      "v": 127
    },
    {
      "midi": 60,
      "hit": false,
      "t": 596400,
      "d": 300,
      "v": 127
    },
    {
      "midi": 72,
      "hit": false,
      "t": 596400,
      "d": 300,
      "v": 127
    },
    {
      "midi": 54,
      "hit": false,
      "t": 596400,
      "d": 300,
      "v": 127
    },
    {
      "midi": 58,
      "hit": false,
      "t": 596400,
      "d": 300,
      "v": 127
    },
    {
      "midi": 61,
      "hit": false,
      "t": 596700,
      "d": 300,
      "v": 127
    },
    {
      "midi": 73,
      "hit": false,
      "t": 596700,
      "d": 300,
      "v": 127
    },
    {
      "midi": 54,
      "hit": false,
      "t": 596700,
      "d": 300,
      "v": 127
    },
    {
      "midi": 58,
      "hit": false,
      "t": 596700,
      "d": 300,
      "v": 127
    },
    {
      "midi": 63,
      "hit": false,
      "t": 597300,
      "d": 300,
      "v": 127
    },
    {
      "midi": 75,
      "hit": false,
      "t": 597300,
      "d": 300,
      "v": 127
    },
    {
      "midi": 54,
      "hit": false,
      "t": 597300,
      "d": 300,
      "v": 127
    },
    {
      "midi": 58,
      "hit": false,
      "t": 597300,
      "d": 300,
      "v": 127
    },
    {
      "midi": 60,
      "hit": false,
      "t": 597300,
      "d": 300,
      "v": 127
    },
    {
      "midi": 66,
      "hit": false,
      "t": 597600,
      "d": 900,
      "v": 127
    },
    {
      "midi": 75,
      "hit": false,
      "t": 597600,
      "d": 900,
      "v": 127
    },
    {
      "midi": 78,
      "hit": false,
      "t": 597600,
      "d": 900,
      "v": 127
    },
    {
      "midi": 41,
      "hit": false,
      "t": 597600,
      "d": 300,
      "v": 127
    },
    {
      "midi": 53,
      "hit": false,
      "t": 597900,
      "d": 300,
      "v": 127
    },
    {
      "midi": 58,
      "hit": false,
      "t": 597900,
      "d": 300,
      "v": 127
    },
    {
      "midi": 61,
      "hit": false,
      "t": 597900,
      "d": 300,
      "v": 127
    },
    {
      "midi": 65,
      "hit": false,
      "t": 598500,
      "d": 300,
      "v": 127
    },
    {
      "midi": 77,
      "hit": false,
      "t": 598500,
      "d": 300,
      "v": 127
    },
    {
      "midi": 53,
      "hit": false,
      "t": 598500,
      "d": 300,
      "v": 127
    },
    {
      "midi": 58,
      "hit": false,
      "t": 598500,
      "d": 300,
      "v": 127
    },
    {
      "midi": 61,
      "hit": false,
      "t": 598500,
      "d": 300,
      "v": 127
    },
    {
      "midi": 65,
      "hit": false,
      "t": 598800,
      "d": 300,
      "v": 127
    },
    {
      "midi": 77,
      "hit": false,
      "t": 598800,
      "d": 300,
      "v": 127
    },
    {
      "midi": 53,
      "hit": false,
      "t": 598800,
      "d": 300,
      "v": 127
    },
    {
      "midi": 58,
      "hit": false,
      "t": 598800,
      "d": 300,
      "v": 127
    },
    {
      "midi": 61,
      "hit": false,
      "t": 598800,
      "d": 300,
      "v": 127
    },
    {
      "midi": 70,
      "hit": false,
      "t": 599100,
      "d": 300,
      "v": 127
    },
    {
      "midi": 82,
      "hit": false,
      "t": 599100,
      "d": 300,
      "v": 127
    },
    {
      "midi": 52,
      "hit": false,
      "t": 599100,
      "d": 300,
      "v": 127
    },
    {
      "midi": 58,
      "hit": false,
      "t": 599100,
      "d": 300,
      "v": 127
    },
    {
      "midi": 61,
      "hit": false,
      "t": 599100,
      "d": 300,
      "v": 127
    },
    {
      "midi": 73,
      "hit": false,
      "t": 599700,
      "d": 300,
      "v": 127
    },
    {
      "midi": 85,
      "hit": false,
      "t": 599700,
      "d": 300,
      "v": 127
    },
    {
      "midi": 53,
      "hit": false,
      "t": 599700,
      "d": 300,
      "v": 127
    },
    {
      "midi": 58,
      "hit": false,
      "t": 599700,
      "d": 300,
      "v": 127
    },
    {
      "midi": 61,
      "hit": false,
      "t": 599700,
      "d": 300,
      "v": 127
    },
    {
      "midi": 73,
      "hit": false,
      "t": 600000,
      "d": 900,
      "v": 127
    },
    {
      "midi": 85,
      "hit": false,
      "t": 600000,
      "d": 900,
      "v": 127
    },
    {
      "midi": 40,
      "hit": false,
      "t": 600000,
      "d": 300,
      "v": 127
    },
    {
      "midi": 52,
      "hit": false,
      "t": 600300,
      "d": 300,
      "v": 127
    },
    {
      "midi": 55,
      "hit": false,
      "t": 600300,
      "d": 300,
      "v": 127
    },
    {
      "midi": 58,
      "hit": false,
      "t": 600300,
      "d": 300,
      "v": 127
    },
    {
      "midi": 61,
      "hit": false,
      "t": 600300,
      "d": 300,
      "v": 127
    },
    {
      "midi": 72,
      "hit": false,
      "t": 600900,
      "d": 300,
      "v": 127
    },
    {
      "midi": 84,
      "hit": false,
      "t": 600900,
      "d": 300,
      "v": 127
    },
    {
      "midi": 52,
      "hit": false,
      "t": 600900,
      "d": 300,
      "v": 127
    },
    {
      "midi": 55,
      "hit": false,
      "t": 600900,
      "d": 300,
      "v": 127
    },
    {
      "midi": 58,
      "hit": false,
      "t": 600900,
      "d": 300,
      "v": 127
    },
    {
      "midi": 60,
      "hit": false,
      "t": 600900,
      "d": 300,
      "v": 127
    },
    {
      "midi": 72,
      "hit": false,
      "t": 601200,
      "d": 300,
      "v": 127
    },
    {
      "midi": 84,
      "hit": false,
      "t": 601200,
      "d": 300,
      "v": 127
    },
    {
      "midi": 41,
      "hit": false,
      "t": 601200,
      "d": 300,
      "v": 127
    },
    {
      "midi": 75,
      "hit": false,
      "t": 601500,
      "d": 300,
      "v": 127
    },
    {
      "midi": 87,
      "hit": false,
      "t": 601500,
      "d": 300,
      "v": 127
    },
    {
      "midi": 53,
      "hit": false,
      "t": 601500,
      "d": 300,
      "v": 127
    },
    {
      "midi": 57,
      "hit": false,
      "t": 601500,
      "d": 300,
      "v": 127
    },
    {
      "midi": 60,
      "hit": false,
      "t": 601500,
      "d": 300,
      "v": 127
    },
    {
      "midi": 66,
      "hit": false,
      "t": 601500,
      "d": 300,
      "v": 127
    },
    {
      "midi": 69,
      "hit": false,
      "t": 602100,
      "d": 300,
      "v": 127
    },
    {
      "midi": 81,
      "hit": false,
      "t": 602100,
      "d": 300,
      "v": 127
    },
    {
      "midi": 53,
      "hit": false,
      "t": 602100,
      "d": 300,
      "v": 127
    },
    {
      "midi": 60,
      "hit": false,
      "t": 602100,
      "d": 300,
      "v": 127
    },
    {
      "midi": 63,
      "hit": false,
      "t": 602100,
      "d": 300,
      "v": 127
    },
    {
      "midi": 65,
      "hit": false,
      "t": 602100,
      "d": 300,
      "v": 127
    },
    {
      "midi": 70,
      "hit": false,
      "t": 602400,
      "d": 1800,
      "v": 127
    },
    {
      "midi": 82,
      "hit": false,
      "t": 602400,
      "d": 1800,
      "v": 127
    },
    {
      "midi": 46,
      "hit": false,
      "t": 602400,
      "d": 300,
      "v": 127
    },
    {
      "midi": 53,
      "hit": false,
      "t": 602700,
      "d": 300,
      "v": 127
    },
    {
      "midi": 61,
      "hit": false,
      "t": 602700,
      "d": 300,
      "v": 127
    },
    {
      "midi": 65,
      "hit": false,
      "t": 602700,
      "d": 300,
      "v": 127
    },
    {
      "midi": 53,
      "hit": false,
      "t": 603300,
      "d": 300,
      "v": 127
    },
    {
      "midi": 60,
      "hit": false,
      "t": 603300,
      "d": 300,
      "v": 127
    },
    {
      "midi": 63,
      "hit": false,
      "t": 603300,
      "d": 300,
      "v": 127
    },
    {
      "midi": 53,
      "hit": false,
      "t": 603600,
      "d": 1200,
      "v": 127
    },
    {
      "midi": 58,
      "hit": false,
      "t": 603600,
      "d": 1200,
      "v": 127
    },
    {
      "midi": 61,
      "hit": false,
      "t": 603600,
      "d": 1200,
      "v": 127
    },
    {
      "midi": 61,
      "hit": false,
      "t": 604200,
      "d": 600,
      "v": 127
    },
    {
      "midi": 73,
      "hit": false,
      "t": 604200,
      "d": 600,
      "v": 127
    },
    {
      "midi": 61,
      "hit": false,
      "t": 604800,
      "d": 1200,
      "v": 127
    },
    {
      "midi": 73,
      "hit": false,
      "t": 604800,
      "d": 1200,
      "v": 127
    },
    {
      "midi": 37,
      "hit": false,
      "t": 604800,
      "d": 300,
      "v": 127
    },
    {
      "midi": 49,
      "hit": false,
      "t": 605100,
      "d": 300,
      "v": 127
    },
    {
      "midi": 53,
      "hit": false,
      "t": 605100,
      "d": 300,
      "v": 127
    },
    {
      "midi": 56,
      "hit": false,
      "t": 605100,
      "d": 300,
      "v": 127
    },
    {
      "midi": 49,
      "hit": false,
      "t": 605700,
      "d": 300,
      "v": 127
    },
    {
      "midi": 53,
      "hit": false,
      "t": 605700,
      "d": 300,
      "v": 127
    },
    {
      "midi": 56,
      "hit": false,
      "t": 605700,
      "d": 300,
      "v": 127
    },
    {
      "midi": 61,
      "hit": false,
      "t": 606000,
      "d": 300,
      "v": 127
    },
    {
      "midi": 73,
      "hit": false,
      "t": 606000,
      "d": 300,
      "v": 127
    },
    {
      "midi": 49,
      "hit": false,
      "t": 606000,
      "d": 300,
      "v": 127
    },
    {
      "midi": 53,
      "hit": false,
      "t": 606000,
      "d": 300,
      "v": 127
    },
    {
      "midi": 57,
      "hit": false,
      "t": 606000,
      "d": 300,
      "v": 127
    },
    {
      "midi": 63,
      "hit": false,
      "t": 606300,
      "d": 300,
      "v": 127
    },
    {
      "midi": 75,
      "hit": false,
      "t": 606300,
      "d": 300,
      "v": 127
    },
    {
      "midi": 49,
      "hit": false,
      "t": 606300,
      "d": 300,
      "v": 127
    },
    {
      "midi": 53,
      "hit": false,
      "t": 606300,
      "d": 300,
      "v": 127
    },
    {
      "midi": 57,
      "hit": false,
      "t": 606300,
      "d": 300,
      "v": 127
    },
    {
      "midi": 61,
      "hit": false,
      "t": 606900,
      "d": 300,
      "v": 127
    },
    {
      "midi": 73,
      "hit": false,
      "t": 606900,
      "d": 300,
      "v": 127
    },
    {
      "midi": 49,
      "hit": false,
      "t": 606900,
      "d": 300,
      "v": 127
    },
    {
      "midi": 53,
      "hit": false,
      "t": 606900,
      "d": 300,
      "v": 127
    },
    {
      "midi": 57,
      "hit": false,
      "t": 606900,
      "d": 300,
      "v": 127
    },
    {
      "midi": 61,
      "hit": false,
      "t": 607200,
      "d": 1200,
      "v": 127
    },
    {
      "midi": 73,
      "hit": false,
      "t": 607200,
      "d": 1200,
      "v": 127
    },
    {
      "midi": 42,
      "hit": false,
      "t": 607200,
      "d": 300,
      "v": 127
    },
    {
      "midi": 49,
      "hit": false,
      "t": 607500,
      "d": 300,
      "v": 127
    },
    {
      "midi": 54,
      "hit": false,
      "t": 607500,
      "d": 300,
      "v": 127
    },
    {
      "midi": 58,
      "hit": false,
      "t": 607500,
      "d": 300,
      "v": 127
    },
    {
      "midi": 49,
      "hit": false,
      "t": 608100,
      "d": 300,
      "v": 127
    },
    {
      "midi": 54,
      "hit": false,
      "t": 608100,
      "d": 300,
      "v": 127
    },
    {
      "midi": 58,
      "hit": false,
      "t": 608100,
      "d": 300,
      "v": 127
    },
    {
      "midi": 58,
      "hit": false,
      "t": 608400,
      "d": 900,
      "v": 127
    },
    {
      "midi": 70,
      "hit": false,
      "t": 608400,
      "d": 900,
      "v": 127
    },
    {
      "midi": 38,
      "hit": false,
      "t": 608400,
      "d": 300,
      "v": 127
    },
    {
      "midi": 50,
      "hit": false,
      "t": 608700,
      "d": 300,
      "v": 127
    },
    {
      "midi": 53,
      "hit": false,
      "t": 608700,
      "d": 300,
      "v": 127
    },
    {
      "midi": 56,
      "hit": false,
      "t": 608700,
      "d": 300,
      "v": 127
    },
    {
      "midi": 58,
      "hit": false,
      "t": 608700,
      "d": 300,
      "v": 127
    },
    {
      "midi": 70,
      "hit": false,
      "t": 609300,
      "d": 300,
      "v": 127
    },
    {
      "midi": 82,
      "hit": false,
      "t": 609300,
      "d": 300,
      "v": 127
    },
    {
      "midi": 50,
      "hit": false,
      "t": 609300,
      "d": 300,
      "v": 127
    },
    {
      "midi": 53,
      "hit": false,
      "t": 609300,
      "d": 300,
      "v": 127
    },
    {
      "midi": 56,
      "hit": false,
      "t": 609300,
      "d": 300,
      "v": 127
    },
    {
      "midi": 58,
      "hit": false,
      "t": 609300,
      "d": 300,
      "v": 127
    },
    {
      "midi": 70,
      "hit": false,
      "t": 609600,
      "d": 900,
      "v": 127
    },
    {
      "midi": 82,
      "hit": false,
      "t": 609600,
      "d": 900,
      "v": 127
    },
    {
      "midi": 39,
      "hit": false,
      "t": 609600,
      "d": 300,
      "v": 127
    },
    {
      "midi": 51,
      "hit": false,
      "t": 609900,
      "d": 300,
      "v": 127
    },
    {
      "midi": 54,
      "hit": false,
      "t": 609900,
      "d": 300,
      "v": 127
    },
    {
      "midi": 58,
      "hit": false,
      "t": 609900,
      "d": 300,
      "v": 127
    },
    {
      "midi": 71,
      "hit": false,
      "t": 610500,
      "d": 600,
      "v": 127
    },
    {
      "midi": 83,
      "hit": false,
      "t": 610500,
      "d": 600,
      "v": 127
    },
    {
      "midi": 51,
      "hit": false,
      "t": 610500,
      "d": 300,
      "v": 127
    },
    {
      "midi": 54,
      "hit": false,
      "t": 610500,
      "d": 300,
      "v": 127
    },
    {
      "midi": 59,
      "hit": false,
      "t": 610500,
      "d": 300,
      "v": 127
    },
    {
      "midi": 40,
      "hit": false,
      "t": 610800,
      "d": 300,
      "v": 127
    },
    {
      "midi": 72,
      "hit": false,
      "t": 611100,
      "d": 300,
      "v": 127
    },
    {
      "midi": 84,
      "hit": false,
      "t": 611100,
      "d": 300,
      "v": 127
    },
    {
      "midi": 52,
      "hit": false,
      "t": 611100,
      "d": 300,
      "v": 127
    },
    {
      "midi": 55,
      "hit": false,
      "t": 611100,
      "d": 300,
      "v": 127
    },
    {
      "midi": 58,
      "hit": false,
      "t": 611100,
      "d": 300,
      "v": 127
    },
    {
      "midi": 60,
      "hit": false,
      "t": 611100,
      "d": 300,
      "v": 127
    },
    {
      "midi": 73,
      "hit": false,
      "t": 611700,
      "d": 300,
      "v": 127
    },
    {
      "midi": 85,
      "hit": false,
      "t": 611700,
      "d": 300,
      "v": 127
    },
    {
      "midi": 52,
      "hit": false,
      "t": 611700,
      "d": 300,
      "v": 127
    },
    {
      "midi": 55,
      "hit": false,
      "t": 611700,
      "d": 300,
      "v": 127
    },
    {
      "midi": 58,
      "hit": false,
      "t": 611700,
      "d": 300,
      "v": 127
    },
    {
      "midi": 61,
      "hit": false,
      "t": 611700,
      "d": 300,
      "v": 127
    },
    {
      "midi": 77,
      "hit": false,
      "t": 612000,
      "d": 900,
      "v": 127
    },
    {
      "midi": 85,
      "hit": false,
      "t": 612000,
      "d": 900,
      "v": 127
    },
    {
      "midi": 89,
      "hit": false,
      "t": 612000,
      "d": 900,
      "v": 127
    },
    {
      "midi": 41,
      "hit": false,
      "t": 612000,
      "d": 300,
      "v": 127
    },
    {
      "midi": 53,
      "hit": false,
      "t": 612300,
      "d": 300,
      "v": 127
    },
    {
      "midi": 58,
      "hit": false,
      "t": 612300,
      "d": 300,
      "v": 127
    },
    {
      "midi": 61,
      "hit": false,
      "t": 612300,
      "d": 300,
      "v": 127
    },
    {
      "midi": 73,
      "hit": false,
      "t": 612900,
      "d": 300,
      "v": 127
    },
    {
      "midi": 85,
      "hit": false,
      "t": 612900,
      "d": 300,
      "v": 127
    },
    {
      "midi": 53,
      "hit": false,
      "t": 612900,
      "d": 300,
      "v": 127
    },
    {
      "midi": 58,
      "hit": false,
      "t": 612900,
      "d": 300,
      "v": 127
    },
    {
      "midi": 61,
      "hit": false,
      "t": 612900,
      "d": 300,
      "v": 127
    },
    {
      "midi": 72,
      "hit": false,
      "t": 613200,
      "d": 1200,
      "v": 127
    },
    {
      "midi": 84,
      "hit": false,
      "t": 613200,
      "d": 1200,
      "v": 127
    },
    {
      "midi": 53,
      "hit": false,
      "t": 613200,
      "d": 300,
      "v": 127
    },
    {
      "midi": 57,
      "hit": false,
      "t": 613200,
      "d": 300,
      "v": 127
    },
    {
      "midi": 60,
      "hit": false,
      "t": 613200,
      "d": 300,
      "v": 127
    },
    {
      "midi": 53,
      "hit": false,
      "t": 613500,
      "d": 300,
      "v": 127
    },
    {
      "midi": 57,
      "hit": false,
      "t": 613500,
      "d": 300,
      "v": 127
    },
    {
      "midi": 60,
      "hit": false,
      "t": 613500,
      "d": 300,
      "v": 127
    },
    {
      "midi": 53,
      "hit": false,
      "t": 614100,
      "d": 300,
      "v": 127
    },
    {
      "midi": 57,
      "hit": false,
      "t": 614100,
      "d": 300,
      "v": 127
    },
    {
      "midi": 60,
      "hit": false,
      "t": 614100,
      "d": 300,
      "v": 127
    },
    {
      "midi": 60,
      "hit": false,
      "t": 614400,
      "d": 600,
      "v": 127
    },
    {
      "midi": 72,
      "hit": false,
      "t": 614400,
      "d": 600,
      "v": 127
    },
    {
      "midi": 45,
      "hit": false,
      "t": 614400,
      "d": 300,
      "v": 127
    },
    {
      "midi": 53,
      "hit": false,
      "t": 614700,
      "d": 300,
      "v": 127
    },
    {
      "midi": 57,
      "hit": false,
      "t": 614700,
      "d": 300,
      "v": 127
    },
    {
      "midi": 60,
      "hit": false,
      "t": 614700,
      "d": 300,
      "v": 127
    },
    {
      "midi": 65,
      "hit": false,
      "t": 615000,
      "d": 600,
      "v": 127
    },
    {
      "midi": 77,
      "hit": false,
      "t": 615000,
      "d": 600,
      "v": 127
    },
    {
      "midi": 52,
      "hit": false,
      "t": 615300,
      "d": 300,
      "v": 127
    },
    {
      "midi": 57,
      "hit": false,
      "t": 615300,
      "d": 300,
      "v": 127
    },
    {
      "midi": 60,
      "hit": false,
      "t": 615300,
      "d": 300,
      "v": 127
    },
    {
      "midi": 69,
      "hit": false,
      "t": 615600,
      "d": 600,
      "v": 127
    },
    {
      "midi": 81,
      "hit": false,
      "t": 615600,
      "d": 600,
      "v": 127
    },
    {
      "midi": 53,
      "hit": false,
      "t": 615600,
      "d": 300,
      "v": 127
    },
    {
      "midi": 57,
      "hit": false,
      "t": 615600,
      "d": 300,
      "v": 127
    },
    {
      "midi": 60,
      "hit": false,
      "t": 615600,
      "d": 300,
      "v": 127
    },
    {
      "midi": 53,
      "hit": false,
      "t": 615900,
      "d": 300,
      "v": 127
    },
    {
      "midi": 57,
      "hit": false,
      "t": 615900,
      "d": 300,
      "v": 127
    },
    {
      "midi": 62,
      "hit": false,
      "t": 615900,
      "d": 300,
      "v": 127
    },
    {
      "midi": 72,
      "hit": false,
      "t": 616200,
      "d": 600,
      "v": 127
    },
    {
      "midi": 84,
      "hit": false,
      "t": 616200,
      "d": 600,
      "v": 127
    },
    {
      "midi": 53,
      "hit": false,
      "t": 616500,
      "d": 300,
      "v": 127
    },
    {
      "midi": 57,
      "hit": false,
      "t": 616500,
      "d": 300,
      "v": 127
    },
    {
      "midi": 60,
      "hit": false,
      "t": 616500,
      "d": 300,
      "v": 127
    },
    {
      "midi": 72,
      "hit": false,
      "t": 616800,
      "d": 1200,
      "v": 127
    },
    {
      "midi": 84,
      "hit": false,
      "t": 616800,
      "d": 1200,
      "v": 127
    },
    {
      "midi": 46,
      "hit": false,
      "t": 616800,
      "d": 300,
      "v": 127
    },
    {
      "midi": 54,
      "hit": false,
      "t": 617100,
      "d": 300,
      "v": 127
    },
    {
      "midi": 57,
      "hit": false,
      "t": 617100,
      "d": 300,
      "v": 127
    },
    {
      "midi": 63,
      "hit": false,
      "t": 617100,
      "d": 300,
      "v": 127
    },
    {
      "midi": 54,
      "hit": false,
      "t": 617700,
      "d": 300,
      "v": 127
    },
    {
      "midi": 57,
      "hit": false,
      "t": 617700,
      "d": 300,
      "v": 127
    },
    {
      "midi": 62,
      "hit": false,
      "t": 617700,
      "d": 300,
      "v": 127
    },
    {
      "midi": 70,
      "hit": false,
      "t": 618000,
      "d": 300,
      "v": 127
    },
    {
      "midi": 82,
      "hit": false,
      "t": 618000,
      "d": 300,
      "v": 127
    },
    {
      "midi": 55,
      "hit": false,
      "t": 618000,
      "d": 300,
      "v": 127
    },
    {
      "midi": 58,
      "hit": false,
      "t": 618000,
      "d": 300,
      "v": 127
    },
    {
      "midi": 62,
      "hit": false,
      "t": 618000,
      "d": 300,
      "v": 127
    },
    {
      "midi": 69,
      "hit": false,
      "t": 618300,
      "d": 300,
      "v": 127
    },
    {
      "midi": 81,
      "hit": false,
      "t": 618300,
      "d": 300,
      "v": 127
    },
    {
      "midi": 57,
      "hit": false,
      "t": 618300,
      "d": 300,
      "v": 127
    },
    {
      "midi": 60,
      "hit": false,
      "t": 618300,
      "d": 300,
      "v": 127
    },
    {
      "midi": 62,
      "hit": false,
      "t": 618300,
      "d": 300,
      "v": 127
    },
    {
      "midi": 67,
      "hit": false,
      "t": 618900,
      "d": 300,
      "v": 127
    },
    {
      "midi": 79,
      "hit": false,
      "t": 618900,
      "d": 300,
      "v": 127
    },
    {
      "midi": 58,
      "hit": false,
      "t": 618900,
      "d": 300,
      "v": 127
    },
    {
      "midi": 62,
      "hit": false,
      "t": 618900,
      "d": 300,
      "v": 127
    },
    {
      "midi": 67,
      "hit": false,
      "t": 619200,
      "d": 300,
      "v": 127
    },
    {
      "midi": 79,
      "hit": false,
      "t": 619200,
      "d": 300,
      "v": 127
    },
    {
      "midi": 48,
      "hit": false,
      "t": 619200,
      "d": 300,
      "v": 127
    },
    {
      "midi": 69,
      "hit": false,
      "t": 619500,
      "d": 300,
      "v": 127
    },
    {
      "midi": 81,
      "hit": false,
      "t": 619500,
      "d": 300,
      "v": 127
    },
    {
      "midi": 57,
      "hit": false,
      "t": 619500,
      "d": 300,
      "v": 127
    },
    {
      "midi": 60,
      "hit": false,
      "t": 619500,
      "d": 300,
      "v": 127
    },
    {
      "midi": 65,
      "hit": false,
      "t": 620100,
      "d": 300,
      "v": 127
    },
    {
      "midi": 77,
      "hit": false,
      "t": 620100,
      "d": 300,
      "v": 127
    },
    {
      "midi": 57,
      "hit": false,
      "t": 620100,
      "d": 300,
      "v": 127
    },
    {
      "midi": 60,
      "hit": false,
      "t": 620100,
      "d": 300,
      "v": 127
    },
    {
      "midi": 65,
      "hit": false,
      "t": 620400,
      "d": 300,
      "v": 127
    },
    {
      "midi": 77,
      "hit": false,
      "t": 620400,
      "d": 300,
      "v": 127
    },
    {
      "midi": 48,
      "hit": false,
      "t": 620400,
      "d": 300,
      "v": 127
    },
    {
      "midi": 67,
      "hit": false,
      "t": 620700,
      "d": 300,
      "v": 127
    },
    {
      "midi": 79,
      "hit": false,
      "t": 620700,
      "d": 300,
      "v": 127
    },
    {
      "midi": 55,
      "hit": false,
      "t": 620700,
      "d": 300,
      "v": 127
    },
    {
      "midi": 58,
      "hit": false,
      "t": 620700,
      "d": 300,
      "v": 127
    },
    {
      "midi": 60,
      "hit": false,
      "t": 620700,
      "d": 300,
      "v": 127
    },
    {
      "midi": 64,
      "hit": false,
      "t": 621300,
      "d": 300,
      "v": 127
    },
    {
      "midi": 76,
      "hit": false,
      "t": 621300,
      "d": 300,
      "v": 127
    },
    {
      "midi": 55,
      "hit": false,
      "t": 621300,
      "d": 300,
      "v": 127
    },
    {
      "midi": 58,
      "hit": false,
      "t": 621300,
      "d": 300,
      "v": 127
    },
    {
      "midi": 60,
      "hit": false,
      "t": 621300,
      "d": 300,
      "v": 127
    },
    {
      "midi": 65,
      "hit": false,
      "t": 621600,
      "d": 1200,
      "v": 127
    },
    {
      "midi": 77,
      "hit": false,
      "t": 621600,
      "d": 1200,
      "v": 127
    },
    {
      "midi": 41,
      "hit": false,
      "t": 621600,
      "d": 300,
      "v": 127
    },
    {
      "midi": 53,
      "hit": false,
      "t": 621900,
      "d": 300,
      "v": 127
    },
    {
      "midi": 57,
      "hit": false,
      "t": 621900,
      "d": 300,
      "v": 127
    },
    {
      "midi": 60,
      "hit": false,
      "t": 621900,
      "d": 300,
      "v": 127
    },
    {
      "midi": 53,
      "hit": false,
      "t": 622500,
      "d": 300,
      "v": 127
    },
    {
      "midi": 63,
      "hit": false,
      "t": 622800,
      "d": 300,
      "v": 127
    },
    {
      "midi": 75,
      "hit": false,
      "t": 622800,
      "d": 300,
      "v": 127
    },
    {
      "midi": 51,
      "hit": false,
      "t": 622800,
      "d": 300,
      "v": 127
    },
    {
      "midi": 53,
      "hit": false,
      "t": 622800,
      "d": 300,
      "v": 127
    },
    {
      "midi": 61,
      "hit": false,
      "t": 623100,
      "d": 300,
      "v": 127
    },
    {
      "midi": 73,
      "hit": false,
      "t": 623100,
      "d": 300,
      "v": 127
    },
    {
      "midi": 49,
      "hit": false,
      "t": 623100,
      "d": 300,
      "v": 127
    },
    {
      "midi": 53,
      "hit": false,
      "t": 623100,
      "d": 300,
      "v": 127
    },
    {
      "midi": 60,
      "hit": false,
      "t": 623700,
      "d": 300,
      "v": 127
    },
    {
      "midi": 72,
      "hit": false,
      "t": 623700,
      "d": 300,
      "v": 127
    },
    {
      "midi": 48,
      "hit": false,
      "t": 623700,
      "d": 300,
      "v": 127
    },
    {
      "midi": 53,
      "hit": false,
      "t": 623700,
      "d": 300,
      "v": 127
    },
    {
      "midi": 60,
      "hit": false,
      "t": 624000,
      "d": 1200,
      "v": 127
    },
    {
      "midi": 72,
      "hit": false,
      "t": 624000,
      "d": 1200,
      "v": 127
    },
    {
      "midi": 30,
      "hit": false,
      "t": 624000,
      "d": 300,
      "v": 127
    },
    {
      "midi": 42,
      "hit": false,
      "t": 624000,
      "d": 300,
      "v": 127
    },
    {
      "midi": 42,
      "hit": false,
      "t": 624300,
      "d": 300,
      "v": 127
    },
    {
      "midi": 46,
      "hit": false,
      "t": 624300,
      "d": 300,
      "v": 127
    },
    {
      "midi": 49,
      "hit": false,
      "t": 624300,
      "d": 300,
      "v": 127
    },
    {
      "midi": 42,
      "hit": false,
      "t": 624900,
      "d": 300,
      "v": 127
    },
    {
      "midi": 46,
      "hit": false,
      "t": 624900,
      "d": 300,
      "v": 127
    },
    {
      "midi": 48,
      "hit": false,
      "t": 624900,
      "d": 300,
      "v": 127
    },
    {
      "midi": 58,
      "hit": false,
      "t": 625200,
      "d": 600,
      "v": 127
    },
    {
      "midi": 70,
      "hit": false,
      "t": 625200,
      "d": 600,
      "v": 127
    },
    {
      "midi": 42,
      "hit": false,
      "t": 625200,
      "d": 300,
      "v": 127
    },
    {
      "midi": 46,
      "hit": false,
      "t": 625200,
      "d": 300,
      "v": 127
    },
    {
      "midi": 49,
      "hit": false,
      "t": 625200,
      "d": 300,
      "v": 127
    },
    {
      "midi": 42,
      "hit": false,
      "t": 625500,
      "d": 300,
      "v": 127
    },
    {
      "midi": 46,
      "hit": false,
      "t": 625500,
      "d": 300,
      "v": 127
    },
    {
      "midi": 51,
      "hit": false,
      "t": 625500,
      "d": 300,
      "v": 127
    },
    {
      "midi": 58,
      "hit": false,
      "t": 625800,
      "d": 600,
      "v": 127
    },
    {
      "midi": 70,
      "hit": false,
      "t": 625800,
      "d": 600,
      "v": 127
    },
    {
      "midi": 42,
      "hit": false,
      "t": 626100,
      "d": 300,
      "v": 127
    },
    {
      "midi": 46,
      "hit": false,
      "t": 626100,
      "d": 300,
      "v": 127
    },
    {
      "midi": 49,
      "hit": false,
      "t": 626100,
      "d": 300,
      "v": 127
    },
    {
      "midi": 60,
      "hit": false,
      "t": 626400,
      "d": 1200,
      "v": 127
    },
    {
      "midi": 72,
      "hit": false,
      "t": 626400,
      "d": 1200,
      "v": 127
    },
    {
      "midi": 29,
      "hit": false,
      "t": 626400,
      "d": 300,
      "v": 127
    },
    {
      "midi": 41,
      "hit": false,
      "t": 626400,
      "d": 300,
      "v": 127
    },
    {
      "midi": 41,
      "hit": false,
      "t": 626700,
      "d": 300,
      "v": 127
    },
    {
      "midi": 46,
      "hit": false,
      "t": 626700,
      "d": 300,
      "v": 127
    },
    {
      "midi": 49,
      "hit": false,
      "t": 626700,
      "d": 300,
      "v": 127
    },
    {
      "midi": 41,
      "hit": false,
      "t": 627300,
      "d": 300,
      "v": 127
    },
    {
      "midi": 46,
      "hit": false,
      "t": 627300,
      "d": 300,
      "v": 127
    },
    {
      "midi": 48,
      "hit": false,
      "t": 627300,
      "d": 300,
      "v": 127
    },
    {
      "midi": 58,
      "hit": false,
      "t": 627600,
      "d": 600,
      "v": 127
    },
    {
      "midi": 70,
      "hit": false,
      "t": 627600,
      "d": 600,
      "v": 127
    },
    {
      "midi": 41,
      "hit": false,
      "t": 627600,
      "d": 300,
      "v": 127
    },
    {
      "midi": 46,
      "hit": false,
      "t": 627600,
      "d": 300,
      "v": 127
    },
    {
      "midi": 49,
      "hit": false,
      "t": 627600,
      "d": 300,
      "v": 127
    },
    {
      "midi": 41,
      "hit": false,
      "t": 627900,
      "d": 300,
      "v": 127
    },
    {
      "midi": 46,
      "hit": false,
      "t": 627900,
      "d": 300,
      "v": 127
    },
    {
      "midi": 51,
      "hit": false,
      "t": 627900,
      "d": 300,
      "v": 127
    },
    {
      "midi": 58,
      "hit": false,
      "t": 628200,
      "d": 600,
      "v": 127
    },
    {
      "midi": 70,
      "hit": false,
      "t": 628200,
      "d": 600,
      "v": 127
    },
    {
      "midi": 41,
      "hit": false,
      "t": 628500,
      "d": 300,
      "v": 127
    },
    {
      "midi": 46,
      "hit": false,
      "t": 628500,
      "d": 300,
      "v": 127
    },
    {
      "midi": 49,
      "hit": false,
      "t": 628500,
      "d": 300,
      "v": 127
    },
    {
      "midi": 59,
      "hit": false,
      "t": 628800,
      "d": 300,
      "v": 127
    },
    {
      "midi": 71,
      "hit": false,
      "t": 628800,
      "d": 300,
      "v": 127
    },
    {
      "midi": 38,
      "hit": false,
      "t": 628800,
      "d": 300,
      "v": 127
    },
    {
      "midi": 58,
      "hit": false,
      "t": 629100,
      "d": 300,
      "v": 127
    },
    {
      "midi": 70,
      "hit": false,
      "t": 629100,
      "d": 300,
      "v": 127
    },
    {
      "midi": 50,
      "hit": false,
      "t": 629100,
      "d": 300,
      "v": 127
    },
    {
      "midi": 53,
      "hit": false,
      "t": 629100,
      "d": 300,
      "v": 127
    },
    {
      "midi": 56,
      "hit": false,
      "t": 629100,
      "d": 300,
      "v": 127
    },
    {
      "midi": 62,
      "hit": false,
      "t": 629700,
      "d": 300,
      "v": 127
    },
    {
      "midi": 74,
      "hit": false,
      "t": 629700,
      "d": 300,
      "v": 127
    },
    {
      "midi": 50,
      "hit": false,
      "t": 629700,
      "d": 300,
      "v": 127
    },
    {
      "midi": 53,
      "hit": false,
      "t": 629700,
      "d": 300,
      "v": 127
    },
    {
      "midi": 57,
      "hit": false,
      "t": 629700,
      "d": 300,
      "v": 127
    },
    {
      "midi": 65,
      "hit": false,
      "t": 630000,
      "d": 300,
      "v": 127
    },
    {
      "midi": 77,
      "hit": false,
      "t": 630000,
      "d": 300,
      "v": 127
    },
    {
      "midi": 50,
      "hit": false,
      "t": 630000,
      "d": 300,
      "v": 127
    },
    {
      "midi": 53,
      "hit": false,
      "t": 630000,
      "d": 300,
      "v": 127
    },
    {
      "midi": 58,
      "hit": false,
      "t": 630000,
      "d": 300,
      "v": 127
    },
    {
      "midi": 68,
      "hit": false,
      "t": 630300,
      "d": 300,
      "v": 127
    },
    {
      "midi": 80,
      "hit": false,
      "t": 630300,
      "d": 300,
      "v": 127
    },
    {
      "midi": 50,
      "hit": false,
      "t": 630300,
      "d": 300,
      "v": 127
    },
    {
      "midi": 53,
      "hit": false,
      "t": 630300,
      "d": 300,
      "v": 127
    },
    {
      "midi": 56,
      "hit": false,
      "t": 630300,
      "d": 300,
      "v": 127
    },
    {
      "midi": 71,
      "hit": false,
      "t": 630900,
      "d": 300,
      "v": 127
    },
    {
      "midi": 77,
      "hit": false,
      "t": 630900,
      "d": 300,
      "v": 127
    },
    {
      "midi": 80,
      "hit": false,
      "t": 630900,
      "d": 300,
      "v": 127
    },
    {
      "midi": 83,
      "hit": false,
      "t": 630900,
      "d": 300,
      "v": 127
    },
    {
      "midi": 50,
      "hit": false,
      "t": 630900,
      "d": 300,
      "v": 127
    },
    {
      "midi": 53,
      "hit": false,
      "t": 630900,
      "d": 300,
      "v": 127
    },
    {
      "midi": 56,
      "hit": false,
      "t": 630900,
      "d": 300,
      "v": 127
    },
    {
      "midi": 59,
      "hit": false,
      "t": 630900,
      "d": 300,
      "v": 127
    },
    {
      "midi": 70,
      "hit": false,
      "t": 631200,
      "d": 1200,
      "v": 127
    },
    {
      "midi": 77,
      "hit": false,
      "t": 631200,
      "d": 1200,
      "v": 127
    },
    {
      "midi": 80,
      "hit": false,
      "t": 631200,
      "d": 1200,
      "v": 127
    },
    {
      "midi": 82,
      "hit": false,
      "t": 631200,
      "d": 1200,
      "v": 127
    },
    {
      "midi": 39,
      "hit": false,
      "t": 631200,
      "d": 300,
      "v": 127
    },
    {
      "midi": 51,
      "hit": false,
      "t": 631500,
      "d": 300,
      "v": 127
    },
    {
      "midi": 54,
      "hit": false,
      "t": 631500,
      "d": 300,
      "v": 127
    },
    {
      "midi": 58,
      "hit": false,
      "t": 631500,
      "d": 300,
      "v": 127
    },
    {
      "midi": 51,
      "hit": false,
      "t": 632100,
      "d": 300,
      "v": 127
    },
    {
      "midi": 54,
      "hit": false,
      "t": 632100,
      "d": 300,
      "v": 127
    },
    {
      "midi": 57,
      "hit": false,
      "t": 632100,
      "d": 300,
      "v": 127
    },
    {
      "midi": 70,
      "hit": false,
      "t": 632400,
      "d": 600,
      "v": 127
    },
    {
      "midi": 75,
      "hit": false,
      "t": 632400,
      "d": 600,
      "v": 127
    },
    {
      "midi": 78,
      "hit": false,
      "t": 632400,
      "d": 600,
      "v": 127
    },
    {
      "midi": 82,
      "hit": false,
      "t": 632400,
      "d": 600,
      "v": 127
    },
    {
      "midi": 51,
      "hit": false,
      "t": 632400,
      "d": 300,
      "v": 127
    },
    {
      "midi": 54,
      "hit": false,
      "t": 632400,
      "d": 300,
      "v": 127
    },
    {
      "midi": 58,
      "hit": false,
      "t": 632400,
      "d": 300,
      "v": 127
    },
    {
      "midi": 51,
      "hit": false,
      "t": 632700,
      "d": 300,
      "v": 127
    },
    {
      "midi": 54,
      "hit": false,
      "t": 632700,
      "d": 300,
      "v": 127
    },
    {
      "midi": 59,
      "hit": false,
      "t": 632700,
      "d": 300,
      "v": 127
    },
    {
      "midi": 63,
      "hit": false,
      "t": 633000,
      "d": 600,
      "v": 127
    },
    {
      "midi": 75,
      "hit": false,
      "t": 633000,
      "d": 600,
      "v": 127
    },
    {
      "midi": 51,
      "hit": false,
      "t": 633300,
      "d": 300,
      "v": 127
    },
    {
      "midi": 54,
      "hit": false,
      "t": 633300,
      "d": 300,
      "v": 127
    },
    {
      "midi": 58,
      "hit": false,
      "t": 633300,
      "d": 300,
      "v": 127
    },
    {
      "midi": 61,
      "hit": false,
      "t": 633600,
      "d": 900,
      "v": 127
    },
    {
      "midi": 73,
      "hit": false,
      "t": 633600,
      "d": 900,
      "v": 127
    },
    {
      "midi": 42,
      "hit": false,
      "t": 633600,
      "d": 300,
      "v": 127
    },
    {
      "midi": 54,
      "hit": false,
      "t": 633900,
      "d": 300,
      "v": 127
    },
    {
      "midi": 58,
      "hit": false,
      "t": 633900,
      "d": 300,
      "v": 127
    },
    {
      "midi": 60,
      "hit": false,
      "t": 634500,
      "d": 300,
      "v": 127
    },
    {
      "midi": 72,
      "hit": false,
      "t": 634500,
      "d": 300,
      "v": 127
    },
    {
      "midi": 54,
      "hit": false,
      "t": 634500,
      "d": 300,
      "v": 127
    },
    {
      "midi": 58,
      "hit": false,
      "t": 634500,
      "d": 300,
      "v": 127
    },
    {
      "midi": 60,
      "hit": false,
      "t": 634800,
      "d": 300,
      "v": 127
    },
    {
      "midi": 72,
      "hit": false,
      "t": 634800,
      "d": 300,
      "v": 127
    },
    {
      "midi": 54,
      "hit": false,
      "t": 634800,
      "d": 300,
      "v": 127
    },
    {
      "midi": 58,
      "hit": false,
      "t": 634800,
      "d": 300,
      "v": 127
    },
    {
      "midi": 61,
      "hit": false,
      "t": 635100,
      "d": 300,
      "v": 127
    },
    {
      "midi": 73,
      "hit": false,
      "t": 635100,
      "d": 300,
      "v": 127
    },
    {
      "midi": 54,
      "hit": false,
      "t": 635100,
      "d": 300,
      "v": 127
    },
    {
      "midi": 58,
      "hit": false,
      "t": 635100,
      "d": 300,
      "v": 127
    },
    {
      "midi": 63,
      "hit": false,
      "t": 635700,
      "d": 300,
      "v": 127
    },
    {
      "midi": 75,
      "hit": false,
      "t": 635700,
      "d": 300,
      "v": 127
    },
    {
      "midi": 54,
      "hit": false,
      "t": 635700,
      "d": 300,
      "v": 127
    },
    {
      "midi": 58,
      "hit": false,
      "t": 635700,
      "d": 300,
      "v": 127
    },
    {
      "midi": 60,
      "hit": false,
      "t": 635700,
      "d": 300,
      "v": 127
    },
    {
      "midi": 66,
      "hit": false,
      "t": 636000,
      "d": 900,
      "v": 127
    },
    {
      "midi": 75,
      "hit": false,
      "t": 636000,
      "d": 900,
      "v": 127
    },
    {
      "midi": 78,
      "hit": false,
      "t": 636000,
      "d": 900,
      "v": 127
    },
    {
      "midi": 41,
      "hit": false,
      "t": 636000,
      "d": 300,
      "v": 127
    },
    {
      "midi": 53,
      "hit": false,
      "t": 636300,
      "d": 300,
      "v": 127
    },
    {
      "midi": 58,
      "hit": false,
      "t": 636300,
      "d": 300,
      "v": 127
    },
    {
      "midi": 61,
      "hit": false,
      "t": 636300,
      "d": 300,
      "v": 127
    },
    {
      "midi": 65,
      "hit": false,
      "t": 636900,
      "d": 300,
      "v": 127
    },
    {
      "midi": 77,
      "hit": false,
      "t": 636900,
      "d": 300,
      "v": 127
    },
    {
      "midi": 53,
      "hit": false,
      "t": 636900,
      "d": 300,
      "v": 127
    },
    {
      "midi": 58,
      "hit": false,
      "t": 636900,
      "d": 300,
      "v": 127
    },
    {
      "midi": 61,
      "hit": false,
      "t": 636900,
      "d": 300,
      "v": 127
    },
    {
      "midi": 65,
      "hit": false,
      "t": 637200,
      "d": 300,
      "v": 127
    },
    {
      "midi": 77,
      "hit": false,
      "t": 637200,
      "d": 300,
      "v": 127
    },
    {
      "midi": 53,
      "hit": false,
      "t": 637200,
      "d": 300,
      "v": 127
    },
    {
      "midi": 58,
      "hit": false,
      "t": 637200,
      "d": 300,
      "v": 127
    },
    {
      "midi": 61,
      "hit": false,
      "t": 637200,
      "d": 300,
      "v": 127
    },
    {
      "midi": 70,
      "hit": false,
      "t": 637500,
      "d": 300,
      "v": 127
    },
    {
      "midi": 82,
      "hit": false,
      "t": 637500,
      "d": 300,
      "v": 127
    },
    {
      "midi": 52,
      "hit": false,
      "t": 637500,
      "d": 300,
      "v": 127
    },
    {
      "midi": 58,
      "hit": false,
      "t": 637500,
      "d": 300,
      "v": 127
    },
    {
      "midi": 61,
      "hit": false,
      "t": 637500,
      "d": 300,
      "v": 127
    },
    {
      "midi": 73,
      "hit": false,
      "t": 638100,
      "d": 300,
      "v": 127
    },
    {
      "midi": 85,
      "hit": false,
      "t": 638100,
      "d": 300,
      "v": 127
    },
    {
      "midi": 53,
      "hit": false,
      "t": 638100,
      "d": 300,
      "v": 127
    },
    {
      "midi": 58,
      "hit": false,
      "t": 638100,
      "d": 300,
      "v": 127
    },
    {
      "midi": 61,
      "hit": false,
      "t": 638100,
      "d": 300,
      "v": 127
    },
    {
      "midi": 73,
      "hit": false,
      "t": 638400,
      "d": 900,
      "v": 127
    },
    {
      "midi": 85,
      "hit": false,
      "t": 638400,
      "d": 900,
      "v": 127
    },
    {
      "midi": 40,
      "hit": false,
      "t": 638400,
      "d": 300,
      "v": 127
    },
    {
      "midi": 52,
      "hit": false,
      "t": 638700,
      "d": 300,
      "v": 127
    },
    {
      "midi": 55,
      "hit": false,
      "t": 638700,
      "d": 300,
      "v": 127
    },
    {
      "midi": 58,
      "hit": false,
      "t": 638700,
      "d": 300,
      "v": 127
    },
    {
      "midi": 61,
      "hit": false,
      "t": 638700,
      "d": 300,
      "v": 127
    },
    {
      "midi": 72,
      "hit": false,
      "t": 639300,
      "d": 300,
      "v": 127
    },
    {
      "midi": 84,
      "hit": false,
      "t": 639300,
      "d": 300,
      "v": 127
    },
    {
      "midi": 52,
      "hit": false,
      "t": 639300,
      "d": 300,
      "v": 127
    },
    {
      "midi": 55,
      "hit": false,
      "t": 639300,
      "d": 300,
      "v": 127
    },
    {
      "midi": 58,
      "hit": false,
      "t": 639300,
      "d": 300,
      "v": 127
    },
    {
      "midi": 60,
      "hit": false,
      "t": 639300,
      "d": 300,
      "v": 127
    },
    {
      "midi": 72,
      "hit": false,
      "t": 639600,
      "d": 300,
      "v": 127
    },
    {
      "midi": 84,
      "hit": false,
      "t": 639600,
      "d": 300,
      "v": 127
    },
    {
      "midi": 41,
      "hit": false,
      "t": 639600,
      "d": 300,
      "v": 127
    },
    {
      "midi": 75,
      "hit": false,
      "t": 639900,
      "d": 300,
      "v": 127
    },
    {
      "midi": 87,
      "hit": false,
      "t": 639900,
      "d": 300,
      "v": 127
    },
    {
      "midi": 53,
      "hit": false,
      "t": 639900,
      "d": 300,
      "v": 127
    },
    {
      "midi": 57,
      "hit": false,
      "t": 639900,
      "d": 300,
      "v": 127
    },
    {
      "midi": 60,
      "hit": false,
      "t": 639900,
      "d": 300,
      "v": 127
    },
    {
      "midi": 66,
      "hit": false,
      "t": 639900,
      "d": 300,
      "v": 127
    },
    {
      "midi": 69,
      "hit": false,
      "t": 640500,
      "d": 300,
      "v": 127
    },
    {
      "midi": 81,
      "hit": false,
      "t": 640500,
      "d": 300,
      "v": 127
    },
    {
      "midi": 53,
      "hit": false,
      "t": 640500,
      "d": 300,
      "v": 127
    },
    {
      "midi": 60,
      "hit": false,
      "t": 640500,
      "d": 300,
      "v": 127
    },
    {
      "midi": 63,
      "hit": false,
      "t": 640500,
      "d": 300,
      "v": 127
    },
    {
      "midi": 65,
      "hit": false,
      "t": 640500,
      "d": 300,
      "v": 127
    },
    {
      "midi": 70,
      "hit": false,
      "t": 640800,
      "d": 1800,
      "v": 127
    },
    {
      "midi": 82,
      "hit": false,
      "t": 640800,
      "d": 1800,
      "v": 127
    },
    {
      "midi": 46,
      "hit": false,
      "t": 640800,
      "d": 300,
      "v": 127
    },
    {
      "midi": 53,
      "hit": false,
      "t": 641100,
      "d": 300,
      "v": 127
    },
    {
      "midi": 58,
      "hit": false,
      "t": 641100,
      "d": 300,
      "v": 127
    },
    {
      "midi": 61,
      "hit": false,
      "t": 641100,
      "d": 300,
      "v": 127
    },
    {
      "midi": 53,
      "hit": false,
      "t": 641700,
      "d": 300,
      "v": 127
    },
    {
      "midi": 57,
      "hit": false,
      "t": 641700,
      "d": 300,
      "v": 127
    },
    {
      "midi": 60,
      "hit": false,
      "t": 641700,
      "d": 300,
      "v": 127
    },
    {
      "midi": 53,
      "hit": false,
      "t": 642000,
      "d": 300,
      "v": 127
    },
    {
      "midi": 58,
      "hit": false,
      "t": 642000,
      "d": 300,
      "v": 127
    },
    {
      "midi": 61,
      "hit": false,
      "t": 642000,
      "d": 300,
      "v": 127
    },
    {
      "midi": 53,
      "hit": false,
      "t": 642300,
      "d": 300,
      "v": 127
    },
    {
      "midi": 61,
      "hit": false,
      "t": 642300,
      "d": 300,
      "v": 127
    },
    {
      "midi": 65,
      "hit": false,
      "t": 642300,
      "d": 300,
      "v": 127
    },
    {
      "midi": 73,
      "hit": false,
      "t": 642600,
      "d": 600,
      "v": 127
    },
    {
      "midi": 53,
      "hit": false,
      "t": 642900,
      "d": 300,
      "v": 127
    },
    {
      "midi": 58,
      "hit": false,
      "t": 642900,
      "d": 300,
      "v": 127
    },
    {
      "midi": 61,
      "hit": false,
      "t": 642900,
      "d": 300,
      "v": 127
    },
    {
      "midi": 73,
      "hit": false,
      "t": 643200,
      "d": 900,
      "v": 127
    },
    {
      "midi": 40,
      "hit": false,
      "t": 643200,
      "d": 300,
      "v": 127
    },
    {
      "midi": 52,
      "hit": false,
      "t": 643500,
      "d": 300,
      "v": 127
    },
    {
      "midi": 55,
      "hit": false,
      "t": 643500,
      "d": 300,
      "v": 127
    },
    {
      "midi": 58,
      "hit": false,
      "t": 643500,
      "d": 300,
      "v": 127
    },
    {
      "midi": 61,
      "hit": false,
      "t": 643500,
      "d": 300,
      "v": 127
    },
    {
      "midi": 72,
      "hit": false,
      "t": 644100,
      "d": 300,
      "v": 127
    },
    {
      "midi": 52,
      "hit": false,
      "t": 644100,
      "d": 300,
      "v": 127
    },
    {
      "midi": 55,
      "hit": false,
      "t": 644100,
      "d": 300,
      "v": 127
    },
    {
      "midi": 58,
      "hit": false,
      "t": 644100,
      "d": 300,
      "v": 127
    },
    {
      "midi": 60,
      "hit": false,
      "t": 644100,
      "d": 300,
      "v": 127
    },
    {
      "midi": 72,
      "hit": false,
      "t": 644400,
      "d": 300,
      "v": 127
    },
    {
      "midi": 41,
      "hit": false,
      "t": 644400,
      "d": 300,
      "v": 127
    },
    {
      "midi": 75,
      "hit": false,
      "t": 644700,
      "d": 300,
      "v": 127
    },
    {
      "midi": 53,
      "hit": false,
      "t": 644700,
      "d": 300,
      "v": 127
    },
    {
      "midi": 57,
      "hit": false,
      "t": 644700,
      "d": 300,
      "v": 127
    },
    {
      "midi": 60,
      "hit": false,
      "t": 644700,
      "d": 300,
      "v": 127
    },
    {
      "midi": 65,
      "hit": false,
      "t": 645300,
      "d": 300,
      "v": 127
    },
    {
      "midi": 69,
      "hit": false,
      "t": 645300,
      "d": 300,
      "v": 127
    },
    {
      "midi": 53,
      "hit": false,
      "t": 645300,
      "d": 300,
      "v": 127
    },
    {
      "midi": 60,
      "hit": false,
      "t": 645300,
      "d": 300,
      "v": 127
    },
    {
      "midi": 63,
      "hit": false,
      "t": 645300,
      "d": 300,
      "v": 127
    },
    {
      "midi": 65,
      "hit": false,
      "t": 645600,
      "d": 1200,
      "v": 127
    },
    {
      "midi": 70,
      "hit": false,
      "t": 645600,
      "d": 1200,
      "v": 127
    },
    {
      "midi": 46,
      "hit": false,
      "t": 645600,
      "d": 300,
      "v": 127
    },
    {
      "midi": 53,
      "hit": false,
      "t": 645900,
      "d": 300,
      "v": 127
    },
    {
      "midi": 58,
      "hit": false,
      "t": 645900,
      "d": 300,
      "v": 127
    },
    {
      "midi": 61,
      "hit": false,
      "t": 645900,
      "d": 300,
      "v": 127
    },
    {
      "midi": 53,
      "hit": false,
      "t": 646500,
      "d": 300,
      "v": 127
    },
    {
      "midi": 57,
      "hit": false,
      "t": 646500,
      "d": 300,
      "v": 127
    },
    {
      "midi": 60,
      "hit": false,
      "t": 646500,
      "d": 300,
      "v": 127
    },
    {
      "midi": 53,
      "hit": false,
      "t": 646800,
      "d": 300,
      "v": 127
    },
    {
      "midi": 58,
      "hit": false,
      "t": 646800,
      "d": 300,
      "v": 127
    },
    {
      "midi": 61,
      "hit": false,
      "t": 646800,
      "d": 300,
      "v": 127
    },
    {
      "midi": 73,
      "hit": false,
      "t": 647100,
      "d": 300,
      "v": 127
    },
    {
      "midi": 53,
      "hit": false,
      "t": 647100,
      "d": 300,
      "v": 127
    },
    {
      "midi": 61,
      "hit": false,
      "t": 647100,
      "d": 300,
      "v": 127
    },
    {
      "midi": 65,
      "hit": false,
      "t": 647100,
      "d": 300,
      "v": 127
    },
    {
      "midi": 77,
      "hit": false,
      "t": 647700,
      "d": 300,
      "v": 127
    },
    {
      "midi": 53,
      "hit": false,
      "t": 647700,
      "d": 300,
      "v": 127
    },
    {
      "midi": 58,
      "hit": false,
      "t": 647700,
      "d": 300,
      "v": 127
    },
    {
      "midi": 61,
      "hit": false,
      "t": 647700,
      "d": 300,
      "v": 127
    },
    {
      "midi": 73,
      "hit": false,
      "t": 648000,
      "d": 900,
      "v": 127
    },
    {
      "midi": 77,
      "hit": false,
      "t": 648000,
      "d": 900,
      "v": 127
    },
    {
      "midi": 42,
      "hit": false,
      "t": 648000,
      "d": 300,
      "v": 127
    },
    {
      "midi": 54,
      "hit": false,
      "t": 648300,
      "d": 300,
      "v": 127
    },
    {
      "midi": 58,
      "hit": false,
      "t": 648300,
      "d": 300,
      "v": 127
    },
    {
      "midi": 72,
      "hit": false,
      "t": 648900,
      "d": 300,
      "v": 127
    },
    {
      "midi": 75,
      "hit": false,
      "t": 648900,
      "d": 300,
      "v": 127
    },
    {
      "midi": 54,
      "hit": false,
      "t": 648900,
      "d": 300,
      "v": 127
    },
    {
      "midi": 58,
      "hit": false,
      "t": 648900,
      "d": 300,
      "v": 127
    },
    {
      "midi": 60,
      "hit": false,
      "t": 648900,
      "d": 300,
      "v": 127
    },
    {
      "midi": 72,
      "hit": false,
      "t": 649200,
      "d": 300,
      "v": 127
    },
    {
      "midi": 75,
      "hit": false,
      "t": 649200,
      "d": 300,
      "v": 127
    },
    {
      "midi": 41,
      "hit": false,
      "t": 649200,
      "d": 300,
      "v": 127
    },
    {
      "midi": 75,
      "hit": false,
      "t": 649500,
      "d": 300,
      "v": 127
    },
    {
      "midi": 78,
      "hit": false,
      "t": 649500,
      "d": 300,
      "v": 127
    },
    {
      "midi": 53,
      "hit": false,
      "t": 649500,
      "d": 300,
      "v": 127
    },
    {
      "midi": 57,
      "hit": false,
      "t": 649500,
      "d": 300,
      "v": 127
    },
    {
      "midi": 60,
      "hit": false,
      "t": 649500,
      "d": 300,
      "v": 127
    },
    {
      "midi": 69,
      "hit": false,
      "t": 650100,
      "d": 300,
      "v": 127
    },
    {
      "midi": 72,
      "hit": false,
      "t": 650100,
      "d": 300,
      "v": 127
    },
    {
      "midi": 77,
      "hit": false,
      "t": 650100,
      "d": 300,
      "v": 127
    },
    {
      "midi": 81,
      "hit": false,
      "t": 650100,
      "d": 300,
      "v": 127
    },
    {
      "midi": 53,
      "hit": false,
      "t": 650100,
      "d": 300,
      "v": 127
    },
    {
      "midi": 60,
      "hit": false,
      "t": 650100,
      "d": 300,
      "v": 127
    },
    {
      "midi": 63,
      "hit": false,
      "t": 650100,
      "d": 300,
      "v": 127
    },
    {
      "midi": 70,
      "hit": false,
      "t": 650400,
      "d": 1800,
      "v": 127
    },
    {
      "midi": 73,
      "hit": false,
      "t": 650400,
      "d": 1800,
      "v": 127
    },
    {
      "midi": 77,
      "hit": false,
      "t": 650400,
      "d": 1800,
      "v": 127
    },
    {
      "midi": 82,
      "hit": false,
      "t": 650400,
      "d": 1800,
      "v": 127
    },
    {
      "midi": 34,
      "hit": false,
      "t": 650400,
      "d": 300,
      "v": 127
    },
    {
      "midi": 53,
      "hit": false,
      "t": 650700,
      "d": 300,
      "v": 127
    },
    {
      "midi": 58,
      "hit": false,
      "t": 650700,
      "d": 300,
      "v": 127
    },
    {
      "midi": 61,
      "hit": false,
      "t": 650700,
      "d": 300,
      "v": 127
    },
    {
      "midi": 53,
      "hit": false,
      "t": 651300,
      "d": 300,
      "v": 127
    },
    {
      "midi": 61,
      "hit": false,
      "t": 651300,
      "d": 300,
      "v": 127
    },
    {
      "midi": 65,
      "hit": false,
      "t": 651300,
      "d": 300,
      "v": 127
    },
    {
      "midi": 53,
      "hit": false,
      "t": 651600,
      "d": 1200,
      "v": 127
    },
    {
      "midi": 58,
      "hit": false,
      "t": 651600,
      "d": 1200,
      "v": 127
    },
    {
      "midi": 61,
      "hit": false,
      "t": 651600,
      "d": 1200,
      "v": 127
    },
    {
      "midi": 73,
      "hit": false,
      "t": 652200,
      "d": 600,
      "v": 127
    },
    {
      "midi": 61,
      "hit": false,
      "t": 652800,
      "d": 300,
      "v": 127
    },
    {
      "midi": 42,
      "hit": false,
      "t": 652800,
      "d": 300,
      "v": 127
    },
    {
      "midi": 73,
      "hit": false,
      "t": 653100,
      "d": 300,
      "v": 127
    },
    {
      "midi": 49,
      "hit": false,
      "t": 653100,
      "d": 300,
      "v": 127
    },
    {
      "midi": 66,
      "hit": false,
      "t": 653400,
      "d": 300,
      "v": 127
    },
    {
      "midi": 70,
      "hit": false,
      "t": 653400,
      "d": 300,
      "v": 127
    },
    {
      "midi": 58,
      "hit": false,
      "t": 653400,
      "d": 900,
      "v": 127
    },
    {
      "midi": 73,
      "hit": false,
      "t": 653700,
      "d": 300,
      "v": 127
    },
    {
      "midi": 61,
      "hit": false,
      "t": 654000,
      "d": 300,
      "v": 127
    },
    {
      "midi": 73,
      "hit": false,
      "t": 654300,
      "d": 300,
      "v": 127
    },
    {
      "midi": 54,
      "hit": false,
      "t": 654300,
      "d": 300,
      "v": 127
    },
    {
      "midi": 66,
      "hit": false,
      "t": 654600,
      "d": 300,
      "v": 127
    },
    {
      "midi": 70,
      "hit": false,
      "t": 654600,
      "d": 300,
      "v": 127
    },
    {
      "midi": 58,
      "hit": false,
      "t": 654600,
      "d": 1200,
      "v": 127
    },
    {
      "midi": 73,
      "hit": false,
      "t": 654900,
      "d": 300,
      "v": 127
    },
    {
      "midi": 61,
      "hit": false,
      "t": 655200,
      "d": 300,
      "v": 127
    },
    {
      "midi": 73,
      "hit": false,
      "t": 655500,
      "d": 300,
      "v": 127
    },
    {
      "midi": 66,
      "hit": false,
      "t": 655800,
      "d": 300,
      "v": 127
    },
    {
      "midi": 70,
      "hit": false,
      "t": 655800,
      "d": 300,
      "v": 127
    },
    {
      "midi": 54,
      "hit": false,
      "t": 655800,
      "d": 600,
      "v": 127
    },
    {
      "midi": 73,
      "hit": false,
      "t": 656100,
      "d": 300,
      "v": 127
    },
    {
      "midi": 61,
      "hit": false,
      "t": 656400,
      "d": 300,
      "v": 127
    },
    {
      "midi": 49,
      "hit": false,
      "t": 656400,
      "d": 600,
      "v": 127
    },
    {
      "midi": 73,
      "hit": false,
      "t": 656700,
      "d": 300,
      "v": 127
    },
    {
      "midi": 66,
      "hit": false,
      "t": 657000,
      "d": 300,
      "v": 127
    },
    {
      "midi": 70,
      "hit": false,
      "t": 657000,
      "d": 300,
      "v": 127
    },
    {
      "midi": 46,
      "hit": false,
      "t": 657000,
      "d": 600,
      "v": 127
    },
    {
      "midi": 73,
      "hit": false,
      "t": 657300,
      "d": 300,
      "v": 127
    },
    {
      "midi": 61,
      "hit": false,
      "t": 657600,
      "d": 300,
      "v": 127
    },
    {
      "midi": 41,
      "hit": false,
      "t": 657600,
      "d": 300,
      "v": 127
    },
    {
      "midi": 73,
      "hit": false,
      "t": 657900,
      "d": 300,
      "v": 127
    },
    {
      "midi": 49,
      "hit": false,
      "t": 657900,
      "d": 300,
      "v": 127
    },
    {
      "midi": 68,
      "hit": false,
      "t": 658200,
      "d": 300,
      "v": 127
    },
    {
      "midi": 71,
      "hit": false,
      "t": 658200,
      "d": 300,
      "v": 127
    },
    {
      "midi": 59,
      "hit": false,
      "t": 658200,
      "d": 900,
      "v": 127
    },
    {
      "midi": 73,
      "hit": false,
      "t": 658500,
      "d": 300,
      "v": 127
    },
    {
      "midi": 61,
      "hit": false,
      "t": 658800,
      "d": 300,
      "v": 127
    },
    {
      "midi": 73,
      "hit": false,
      "t": 659100,
      "d": 300,
      "v": 127
    },
    {
      "midi": 56,
      "hit": false,
      "t": 659100,
      "d": 300,
      "v": 127
    },
    {
      "midi": 68,
      "hit": false,
      "t": 659400,
      "d": 300,
      "v": 127
    },
    {
      "midi": 71,
      "hit": false,
      "t": 659400,
      "d": 300,
      "v": 127
    },
    {
      "midi": 59,
      "hit": false,
      "t": 659400,
      "d": 1200,
      "v": 127
    },
    {
      "midi": 73,
      "hit": false,
      "t": 659700,
      "d": 300,
      "v": 127
    },
    {
      "midi": 61,
      "hit": false,
      "t": 660000,
      "d": 300,
      "v": 127
    },
    {
      "midi": 73,
      "hit": false,
      "t": 660300,
      "d": 300,
      "v": 127
    },
    {
      "midi": 68,
      "hit": false,
      "t": 660600,
      "d": 300,
      "v": 127
    },
    {
      "midi": 71,
      "hit": false,
      "t": 660600,
      "d": 300,
      "v": 127
    },
    {
      "midi": 56,
      "hit": false,
      "t": 660600,
      "d": 600,
      "v": 127
    },
    {
      "midi": 73,
      "hit": false,
      "t": 660900,
      "d": 300,
      "v": 127
    },
    {
      "midi": 61,
      "hit": false,
      "t": 661200,
      "d": 300,
      "v": 127
    },
    {
      "midi": 53,
      "hit": false,
      "t": 661200,
      "d": 600,
      "v": 127
    },
    {
      "midi": 73,
      "hit": false,
      "t": 661500,
      "d": 300,
      "v": 127
    },
    {
      "midi": 68,
      "hit": false,
      "t": 661800,
      "d": 300,
      "v": 127
    },
    {
      "midi": 71,
      "hit": false,
      "t": 661800,
      "d": 300,
      "v": 127
    },
    {
      "midi": 49,
      "hit": false,
      "t": 661800,
      "d": 600,
      "v": 127
    },
    {
      "midi": 73,
      "hit": false,
      "t": 662100,
      "d": 300,
      "v": 127
    },
    {
      "midi": 61,
      "hit": false,
      "t": 662400,
      "d": 300,
      "v": 127
    },
    {
      "midi": 42,
      "hit": false,
      "t": 662400,
      "d": 300,
      "v": 127
    },
    {
      "midi": 73,
      "hit": false,
      "t": 662700,
      "d": 300,
      "v": 127
    },
    {
      "midi": 49,
      "hit": false,
      "t": 662700,
      "d": 300,
      "v": 127
    },
    {
      "midi": 66,
      "hit": false,
      "t": 663000,
      "d": 300,
      "v": 127
    },
    {
      "midi": 70,
      "hit": false,
      "t": 663000,
      "d": 300,
      "v": 127
    },
    {
      "midi": 58,
      "hit": false,
      "t": 663000,
      "d": 900,
      "v": 127
    },
    {
      "midi": 73,
      "hit": false,
      "t": 663300,
      "d": 300,
      "v": 127
    },
    {
      "midi": 61,
      "hit": false,
      "t": 663600,
      "d": 300,
      "v": 127
    },
    {
      "midi": 73,
      "hit": false,
      "t": 663900,
      "d": 300,
      "v": 127
    },
    {
      "midi": 54,
      "hit": false,
      "t": 663900,
      "d": 300,
      "v": 127
    },
    {
      "midi": 66,
      "hit": false,
      "t": 664200,
      "d": 300,
      "v": 127
    },
    {
      "midi": 70,
      "hit": false,
      "t": 664200,
      "d": 300,
      "v": 127
    },
    {
      "midi": 58,
      "hit": false,
      "t": 664200,
      "d": 600,
      "v": 127
    },
    {
      "midi": 73,
      "hit": false,
      "t": 664500,
      "d": 300,
      "v": 127
    },
    {
      "midi": 63,
      "hit": false,
      "t": 664800,
      "d": 300,
      "v": 127
    },
    {
      "midi": 47,
      "hit": false,
      "t": 664800,
      "d": 600,
      "v": 127
    },
    {
      "midi": 75,
      "hit": false,
      "t": 665100,
      "d": 300,
      "v": 127
    },
    {
      "midi": 68,
      "hit": false,
      "t": 665400,
      "d": 300,
      "v": 127
    },
    {
      "midi": 71,
      "hit": false,
      "t": 665400,
      "d": 300,
      "v": 127
    },
    {
      "midi": 56,
      "hit": false,
      "t": 665400,
      "d": 600,
      "v": 127
    },
    {
      "midi": 75,
      "hit": false,
      "t": 665700,
      "d": 300,
      "v": 127
    },
    {
      "midi": 63,
      "hit": false,
      "t": 666000,
      "d": 300,
      "v": 127
    },
    {
      "midi": 51,
      "hit": false,
      "t": 666000,
      "d": 600,
      "v": 127
    },
    {
      "midi": 75,
      "hit": false,
      "t": 666300,
      "d": 300,
      "v": 127
    },
    {
      "midi": 68,
      "hit": false,
      "t": 666600,
      "d": 300,
      "v": 127
    },
    {
      "midi": 71,
      "hit": false,
      "t": 666600,
      "d": 300,
      "v": 127
    },
    {
      "midi": 56,
      "hit": false,
      "t": 666600,
      "d": 600,
      "v": 127
    },
    {
      "midi": 75,
      "hit": false,
      "t": 666900,
      "d": 300,
      "v": 127
    },
    {
      "midi": 68,
      "hit": false,
      "t": 667200,
      "d": 300,
      "v": 127
    },
    {
      "midi": 48,
      "hit": false,
      "t": 667200,
      "d": 1200,
      "v": 127
    },
    {
      "midi": 56,
      "hit": false,
      "t": 667200,
      "d": 1200,
      "v": 127
    },
    {
      "midi": 80,
      "hit": false,
      "t": 667500,
      "d": 300,
      "v": 127
    },
    {
      "midi": 78,
      "hit": false,
      "t": 667800,
      "d": 300,
      "v": 127
    },
    {
      "midi": 80,
      "hit": false,
      "t": 668100,
      "d": 300,
      "v": 127
    },
    {
      "midi": 78,
      "hit": false,
      "t": 668400,
      "d": 300,
      "v": 127
    },
    {
      "midi": 56,
      "hit": false,
      "t": 668400,
      "d": 1200,
      "v": 127
    },
    {
      "midi": 80,
      "hit": false,
      "t": 668700,
      "d": 300,
      "v": 127
    },
    {
      "midi": 75,
      "hit": false,
      "t": 669000,
      "d": 300,
      "v": 127
    },
    {
      "midi": 80,
      "hit": false,
      "t": 669300,
      "d": 300,
      "v": 127
    },
    {
      "midi": 77,
      "hit": false,
      "t": 669600,
      "d": 300,
      "v": 127
    },
    {
      "midi": 61,
      "hit": false,
      "t": 669600,
      "d": 2400,
      "v": 127
    },
    {
      "midi": 80,
      "hit": false,
      "t": 669900,
      "d": 300,
      "v": 127
    },
    {
      "midi": 83,
      "hit": false,
      "t": 670200,
      "d": 300,
      "v": 127
    },
    {
      "midi": 85,
      "hit": false,
      "t": 670500,
      "d": 300,
      "v": 127
    },
    {
      "midi": 82,
      "hit": false,
      "t": 670800,
      "d": 300,
      "v": 127
    },
    {
      "midi": 85,
      "hit": false,
      "t": 671100,
      "d": 300,
      "v": 127
    },
    {
      "midi": 80,
      "hit": false,
      "t": 671400,
      "d": 300,
      "v": 127
    },
    {
      "midi": 85,
      "hit": false,
      "t": 671700,
      "d": 300,
      "v": 127
    },
    {
      "midi": 78,
      "hit": false,
      "t": 672000,
      "d": 300,
      "v": 127
    },
    {
      "midi": 42,
      "hit": false,
      "t": 672000,
      "d": 300,
      "v": 127
    },
    {
      "midi": 85,
      "hit": false,
      "t": 672300,
      "d": 300,
      "v": 127
    },
    {
      "midi": 58,
      "hit": false,
      "t": 672300,
      "d": 300,
      "v": 127
    },
    {
      "midi": 82,
      "hit": false,
      "t": 672600,
      "d": 900,
      "v": 127
    },
    {
      "midi": 94,
      "hit": false,
      "t": 672600,
      "d": 900,
      "v": 127
    },
    {
      "midi": 49,
      "hit": false,
      "t": 672600,
      "d": 300,
      "v": 127
    },
    {
      "midi": 58,
      "hit": false,
      "t": 672900,
      "d": 300,
      "v": 127
    },
    {
      "midi": 54,
      "hit": false,
      "t": 673200,
      "d": 300,
      "v": 127
    },
    {
      "midi": 90,
      "hit": false,
      "t": 673500,
      "d": 300,
      "v": 127
    },
    {
      "midi": 58,
      "hit": false,
      "t": 673500,
      "d": 300,
      "v": 127
    },
    {
      "midi": 82,
      "hit": false,
      "t": 673800,
      "d": 1200,
      "v": 127
    },
    {
      "midi": 94,
      "hit": false,
      "t": 673800,
      "d": 1200,
      "v": 127
    },
    {
      "midi": 49,
      "hit": false,
      "t": 673800,
      "d": 300,
      "v": 127
    },
    {
      "midi": 58,
      "hit": false,
      "t": 674100,
      "d": 300,
      "v": 127
    },
    {
      "midi": 42,
      "hit": false,
      "t": 674400,
      "d": 300,
      "v": 127
    },
    {
      "midi": 58,
      "hit": false,
      "t": 674700,
      "d": 300,
      "v": 127
    },
    {
      "midi": 78,
      "hit": false,
      "t": 675000,
      "d": 600,
      "v": 127
    },
    {
      "midi": 90,
      "hit": false,
      "t": 675000,
      "d": 600,
      "v": 127
    },
    {
      "midi": 49,
      "hit": false,
      "t": 675000,
      "d": 300,
      "v": 127
    },
    {
      "midi": 58,
      "hit": false,
      "t": 675300,
      "d": 300,
      "v": 127
    },
    {
      "midi": 73,
      "hit": false,
      "t": 675600,
      "d": 600,
      "v": 127
    },
    {
      "midi": 85,
      "hit": false,
      "t": 675600,
      "d": 600,
      "v": 127
    },
    {
      "midi": 54,
      "hit": false,
      "t": 675600,
      "d": 300,
      "v": 127
    },
    {
      "midi": 58,
      "hit": false,
      "t": 675900,
      "d": 300,
      "v": 127
    },
    {
      "midi": 70,
      "hit": false,
      "t": 676200,
      "d": 600,
      "v": 127
    },
    {
      "midi": 82,
      "hit": false,
      "t": 676200,
      "d": 600,
      "v": 127
    },
    {
      "midi": 49,
      "hit": false,
      "t": 676200,
      "d": 300,
      "v": 127
    },
    {
      "midi": 58,
      "hit": false,
      "t": 676500,
      "d": 300,
      "v": 127
    },
    {
      "midi": 41,
      "hit": false,
      "t": 676800,
      "d": 300,
      "v": 127
    },
    {
      "midi": 85,
      "hit": false,
      "t": 677100,
      "d": 300,
      "v": 127
    },
    {
      "midi": 59,
      "hit": false,
      "t": 677100,
      "d": 300,
      "v": 127
    },
    {
      "midi": 83,
      "hit": false,
      "t": 677400,
      "d": 900,
      "v": 127
    },
    {
      "midi": 95,
      "hit": false,
      "t": 677400,
      "d": 900,
      "v": 127
    },
    {
      "midi": 49,
      "hit": false,
      "t": 677400,
      "d": 300,
      "v": 127
    },
    {
      "midi": 59,
      "hit": false,
      "t": 677700,
      "d": 300,
      "v": 127
    },
    {
      "midi": 56,
      "hit": false,
      "t": 678000,
      "d": 300,
      "v": 127
    },
    {
      "midi": 92,
      "hit": false,
      "t": 678300,
      "d": 300,
      "v": 127
    },
    {
      "midi": 59,
      "hit": false,
      "t": 678300,
      "d": 300,
      "v": 127
    },
    {
      "midi": 83,
      "hit": false,
      "t": 678600,
      "d": 1200,
      "v": 127
    },
    {
      "midi": 95,
      "hit": false,
      "t": 678600,
      "d": 1200,
      "v": 127
    },
    {
      "midi": 49,
      "hit": false,
      "t": 678600,
      "d": 300,
      "v": 127
    },
    {
      "midi": 59,
      "hit": false,
      "t": 678900,
      "d": 300,
      "v": 127
    },
    {
      "midi": 41,
      "hit": false,
      "t": 679200,
      "d": 300,
      "v": 127
    },
    {
      "midi": 59,
      "hit": false,
      "t": 679500,
      "d": 300,
      "v": 127
    },
    {
      "midi": 80,
      "hit": false,
      "t": 679800,
      "d": 600,
      "v": 127
    },
    {
      "midi": 92,
      "hit": false,
      "t": 679800,
      "d": 600,
      "v": 127
    },
    {
      "midi": 49,
      "hit": false,
      "t": 679800,
      "d": 300,
      "v": 127
    },
    {
      "midi": 59,
      "hit": false,
      "t": 680100,
      "d": 300,
      "v": 127
    },
    {
      "midi": 77,
      "hit": false,
      "t": 680400,
      "d": 600,
      "v": 127
    },
    {
      "midi": 89,
      "hit": false,
      "t": 680400,
      "d": 600,
      "v": 127
    },
    {
      "midi": 56,
      "hit": false,
      "t": 680400,
      "d": 300,
      "v": 127
    },
    {
      "midi": 59,
      "hit": false,
      "t": 680700,
      "d": 300,
      "v": 127
    },
    {
      "midi": 71,
      "hit": false,
      "t": 681000,
      "d": 600,
      "v": 127
    },
    {
      "midi": 83,
      "hit": false,
      "t": 681000,
      "d": 600,
      "v": 127
    },
    {
      "midi": 49,
      "hit": false,
      "t": 681000,
      "d": 300,
      "v": 127
    },
    {
      "midi": 59,
      "hit": false,
      "t": 681300,
      "d": 300,
      "v": 127
    },
    {
      "midi": 42,
      "hit": false,
      "t": 681600,
      "d": 300,
      "v": 127
    },
    {
      "midi": 73,
      "hit": false,
      "t": 681900,
      "d": 300,
      "v": 127
    },
    {
      "midi": 58,
      "hit": false,
      "t": 681900,
      "d": 300,
      "v": 127
    },
    {
      "midi": 70,
      "hit": false,
      "t": 682200,
      "d": 900,
      "v": 127
    },
    {
      "midi": 82,
      "hit": false,
      "t": 682200,
      "d": 900,
      "v": 127
    },
    {
      "midi": 49,
      "hit": false,
      "t": 682200,
      "d": 300,
      "v": 127
    },
    {
      "midi": 58,
      "hit": false,
      "t": 682500,
      "d": 300,
      "v": 127
    },
    {
      "midi": 56,
      "hit": false,
      "t": 682800,
      "d": 300,
      "v": 127
    },
    {
      "midi": 78,
      "hit": false,
      "t": 683100,
      "d": 300,
      "v": 127
    },
    {
      "midi": 58,
      "hit": false,
      "t": 683100,
      "d": 300,
      "v": 127
    },
    {
      "midi": 70,
      "hit": false,
      "t": 683400,
      "d": 1200,
      "v": 127
    },
    {
      "midi": 82,
      "hit": false,
      "t": 683400,
      "d": 1200,
      "v": 127
    },
    {
      "midi": 49,
      "hit": false,
      "t": 683400,
      "d": 300,
      "v": 127
    },
    {
      "midi": 58,
      "hit": false,
      "t": 683700,
      "d": 300,
      "v": 127
    },
    {
      "midi": 36,
      "hit": false,
      "t": 684000,
      "d": 300,
      "v": 127
    },
    {
      "midi": 48,
      "hit": false,
      "t": 684300,
      "d": 300,
      "v": 127
    },
    {
      "midi": 69,
      "hit": false,
      "t": 684600,
      "d": 600,
      "v": 127
    },
    {
      "midi": 81,
      "hit": false,
      "t": 684600,
      "d": 600,
      "v": 127
    },
    {
      "midi": 51,
      "hit": false,
      "t": 684600,
      "d": 300,
      "v": 127
    },
    {
      "midi": 48,
      "hit": false,
      "t": 684900,
      "d": 300,
      "v": 127
    },
    {
      "midi": 68,
      "hit": false,
      "t": 685200,
      "d": 600,
      "v": 127
    },
    {
      "midi": 80,
      "hit": false,
      "t": 685200,
      "d": 600,
      "v": 127
    },
    {
      "midi": 56,
      "hit": false,
      "t": 685200,
      "d": 300,
      "v": 127
    },
    {
      "midi": 48,
      "hit": false,
      "t": 685500,
      "d": 300,
      "v": 127
    },
    {
      "midi": 66,
      "hit": false,
      "t": 685800,
      "d": 600,
      "v": 127
    },
    {
      "midi": 78,
      "hit": false,
      "t": 685800,
      "d": 600,
      "v": 127
    },
    {
      "midi": 57,
      "hit": false,
      "t": 685800,
      "d": 300,
      "v": 127
    },
    {
      "midi": 48,
      "hit": false,
      "t": 686100,
      "d": 300,
      "v": 127
    },
    {
      "midi": 65,
      "hit": false,
      "t": 686400,
      "d": 600,
      "v": 127
    },
    {
      "midi": 77,
      "hit": false,
      "t": 686400,
      "d": 600,
      "v": 127
    },
    {
      "midi": 37,
      "hit": false,
      "t": 686400,
      "d": 300,
      "v": 127
    },
    {
      "midi": 49,
      "hit": false,
      "t": 686700,
      "d": 300,
      "v": 127
    },
    {
      "midi": 73,
      "hit": false,
      "t": 687000,
      "d": 600,
      "v": 127
    },
    {
      "midi": 85,
      "hit": false,
      "t": 687000,
      "d": 600,
      "v": 127
    },
    {
      "midi": 53,
      "hit": false,
      "t": 687000,
      "d": 300,
      "v": 127
    },
    {
      "midi": 49,
      "hit": false,
      "t": 687300,
      "d": 300,
      "v": 127
    },
    {
      "midi": 71,
      "hit": false,
      "t": 687600,
      "d": 600,
      "v": 127
    },
    {
      "midi": 83,
      "hit": false,
      "t": 687600,
      "d": 600,
      "v": 127
    },
    {
      "midi": 56,
      "hit": false,
      "t": 687600,
      "d": 300,
      "v": 127
    },
    {
      "midi": 49,
      "hit": false,
      "t": 687900,
      "d": 300,
      "v": 127
    },
    {
      "midi": 68,
      "hit": false,
      "t": 688200,
      "d": 600,
      "v": 127
    },
    {
      "midi": 80,
      "hit": false,
      "t": 688200,
      "d": 600,
      "v": 127
    },
    {
      "midi": 59,
      "hit": false,
      "t": 688200,
      "d": 300,
      "v": 127
    },
    {
      "midi": 49,
      "hit": false,
      "t": 688500,
      "d": 300,
      "v": 127
    },
    {
      "midi": 66,
      "hit": false,
      "t": 688800,
      "d": 2400,
      "v": 127
    },
    {
      "midi": 78,
      "hit": false,
      "t": 688800,
      "d": 2400,
      "v": 127
    },
    {
      "midi": 42,
      "hit": false,
      "t": 688800,
      "d": 300,
      "v": 127
    },
    {
      "midi": 49,
      "hit": false,
      "t": 689100,
      "d": 300,
      "v": 127
    },
    {
      "midi": 58,
      "hit": false,
      "t": 689400,
      "d": 300,
      "v": 127
    },
    {
      "midi": 54,
      "hit": false,
      "t": 689700,
      "d": 300,
      "v": 127
    },
    {
      "midi": 49,
      "hit": false,
      "t": 690000,
      "d": 300,
      "v": 127
    },
    {
      "midi": 54,
      "hit": false,
      "t": 690300,
      "d": 300,
      "v": 127
    },
    {
      "midi": 49,
      "hit": false,
      "t": 690600,
      "d": 300,
      "v": 127
    },
    {
      "midi": 46,
      "hit": false,
      "t": 690900,
      "d": 300,
      "v": 127
    },
    {
      "midi": 61,
      "hit": false,
      "t": 691200,
      "d": 300,
      "v": 127
    },
    {
      "midi": 42,
      "hit": false,
      "t": 691200,
      "d": 300,
      "v": 127
    },
    {
      "midi": 73,
      "hit": false,
      "t": 691500,
      "d": 300,
      "v": 127
    },
    {
      "midi": 49,
      "hit": false,
      "t": 691500,
      "d": 300,
      "v": 127
    },
    {
      "midi": 66,
      "hit": false,
      "t": 691800,
      "d": 300,
      "v": 127
    },
    {
      "midi": 70,
      "hit": false,
      "t": 691800,
      "d": 300,
      "v": 127
    },
    {
      "midi": 58,
      "hit": false,
      "t": 691800,
      "d": 900,
      "v": 127
    },
    {
      "midi": 73,
      "hit": false,
      "t": 692100,
      "d": 300,
      "v": 127
    },
    {
      "midi": 61,
      "hit": false,
      "t": 692400,
      "d": 300,
      "v": 127
    },
    {
      "midi": 73,
      "hit": false,
      "t": 692700,
      "d": 300,
      "v": 127
    },
    {
      "midi": 54,
      "hit": false,
      "t": 692700,
      "d": 300,
      "v": 127
    },
    {
      "midi": 66,
      "hit": false,
      "t": 693000,
      "d": 300,
      "v": 127
    },
    {
      "midi": 70,
      "hit": false,
      "t": 693000,
      "d": 300,
      "v": 127
    },
    {
      "midi": 58,
      "hit": false,
      "t": 693000,
      "d": 1200,
      "v": 127
    },
    {
      "midi": 73,
      "hit": false,
      "t": 693300,
      "d": 300,
      "v": 127
    },
    {
      "midi": 61,
      "hit": false,
      "t": 693600,
      "d": 300,
      "v": 127
    },
    {
      "midi": 73,
      "hit": false,
      "t": 693900,
      "d": 300,
      "v": 127
    },
    {
      "midi": 66,
      "hit": false,
      "t": 694200,
      "d": 300,
      "v": 127
    },
    {
      "midi": 70,
      "hit": false,
      "t": 694200,
      "d": 300,
      "v": 127
    },
    {
      "midi": 54,
      "hit": false,
      "t": 694200,
      "d": 600,
      "v": 127
    },
    {
      "midi": 73,
      "hit": false,
      "t": 694500,
      "d": 300,
      "v": 127
    },
    {
      "midi": 61,
      "hit": false,
      "t": 694800,
      "d": 300,
      "v": 127
    },
    {
      "midi": 49,
      "hit": false,
      "t": 694800,
      "d": 600,
      "v": 127
    },
    {
      "midi": 73,
      "hit": false,
      "t": 695100,
      "d": 300,
      "v": 127
    },
    {
      "midi": 66,
      "hit": false,
      "t": 695400,
      "d": 300,
      "v": 127
    },
    {
      "midi": 70,
      "hit": false,
      "t": 695400,
      "d": 300,
      "v": 127
    },
    {
      "midi": 46,
      "hit": false,
      "t": 695400,
      "d": 600,
      "v": 127
    },
    {
      "midi": 73,
      "hit": false,
      "t": 695700,
      "d": 300,
      "v": 127
    },
    {
      "midi": 61,
      "hit": false,
      "t": 696000,
      "d": 300,
      "v": 127
    },
    {
      "midi": 41,
      "hit": false,
      "t": 696000,
      "d": 300,
      "v": 127
    },
    {
      "midi": 73,
      "hit": false,
      "t": 696300,
      "d": 300,
      "v": 127
    },
    {
      "midi": 49,
      "hit": false,
      "t": 696300,
      "d": 300,
      "v": 127
    },
    {
      "midi": 68,
      "hit": false,
      "t": 696600,
      "d": 300,
      "v": 127
    },
    {
      "midi": 71,
      "hit": false,
      "t": 696600,
      "d": 300,
      "v": 127
    },
    {
      "midi": 59,
      "hit": false,
      "t": 696600,
      "d": 900,
      "v": 127
    },
    {
      "midi": 73,
      "hit": false,
      "t": 696900,
      "d": 300,
      "v": 127
    },
    {
      "midi": 61,
      "hit": false,
      "t": 697200,
      "d": 300,
      "v": 127
    },
    {
      "midi": 73,
      "hit": false,
      "t": 697500,
      "d": 300,
      "v": 127
    },
    {
      "midi": 56,
      "hit": false,
      "t": 697500,
      "d": 300,
      "v": 127
    },
    {
      "midi": 68,
      "hit": false,
      "t": 697800,
      "d": 300,
      "v": 127
    },
    {
      "midi": 71,
      "hit": false,
      "t": 697800,
      "d": 300,
      "v": 127
    },
    {
      "midi": 59,
      "hit": false,
      "t": 697800,
      "d": 1200,
      "v": 127
    },
    {
      "midi": 73,
      "hit": false,
      "t": 698100,
      "d": 300,
      "v": 127
    },
    {
      "midi": 61,
      "hit": false,
      "t": 698400,
      "d": 300,
      "v": 127
    },
    {
      "midi": 73,
      "hit": false,
      "t": 698700,
      "d": 300,
      "v": 127
    },
    {
      "midi": 68,
      "hit": false,
      "t": 699000,
      "d": 300,
      "v": 127
    },
    {
      "midi": 71,
      "hit": false,
      "t": 699000,
      "d": 300,
      "v": 127
    },
    {
      "midi": 56,
      "hit": false,
      "t": 699000,
      "d": 600,
      "v": 127
    },
    {
      "midi": 73,
      "hit": false,
      "t": 699300,
      "d": 300,
      "v": 127
    },
    {
      "midi": 61,
      "hit": false,
      "t": 699600,
      "d": 300,
      "v": 127
    },
    {
      "midi": 53,
      "hit": false,
      "t": 699600,
      "d": 600,
      "v": 127
    },
    {
      "midi": 73,
      "hit": false,
      "t": 699900,
      "d": 300,
      "v": 127
    },
    {
      "midi": 68,
      "hit": false,
      "t": 700200,
      "d": 300,
      "v": 127
    },
    {
      "midi": 71,
      "hit": false,
      "t": 700200,
      "d": 300,
      "v": 127
    },
    {
      "midi": 49,
      "hit": false,
      "t": 700200,
      "d": 600,
      "v": 127
    },
    {
      "midi": 73,
      "hit": false,
      "t": 700500,
      "d": 300,
      "v": 127
    },
    {
      "midi": 61,
      "hit": false,
      "t": 700800,
      "d": 300,
      "v": 127
    },
    {
      "midi": 42,
      "hit": false,
      "t": 700800,
      "d": 300,
      "v": 127
    },
    {
      "midi": 73,
      "hit": false,
      "t": 701100,
      "d": 300,
      "v": 127
    },
    {
      "midi": 49,
      "hit": false,
      "t": 701100,
      "d": 300,
      "v": 127
    },
    {
      "midi": 66,
      "hit": false,
      "t": 701400,
      "d": 300,
      "v": 127
    },
    {
      "midi": 70,
      "hit": false,
      "t": 701400,
      "d": 300,
      "v": 127
    },
    {
      "midi": 58,
      "hit": false,
      "t": 701400,
      "d": 900,
      "v": 127
    },
    {
      "midi": 73,
      "hit": false,
      "t": 701700,
      "d": 300,
      "v": 127
    },
    {
      "midi": 61,
      "hit": false,
      "t": 702000,
      "d": 300,
      "v": 127
    },
    {
      "midi": 73,
      "hit": false,
      "t": 702300,
      "d": 300,
      "v": 127
    },
    {
      "midi": 54,
      "hit": false,
      "t": 702300,
      "d": 300,
      "v": 127
    },
    {
      "midi": 66,
      "hit": false,
      "t": 702600,
      "d": 300,
      "v": 127
    },
    {
      "midi": 70,
      "hit": false,
      "t": 702600,
      "d": 300,
      "v": 127
    },
    {
      "midi": 58,
      "hit": false,
      "t": 702600,
      "d": 600,
      "v": 127
    },
    {
      "midi": 73,
      "hit": false,
      "t": 702900,
      "d": 300,
      "v": 127
    },
    {
      "midi": 63,
      "hit": false,
      "t": 703200,
      "d": 300,
      "v": 127
    },
    {
      "midi": 47,
      "hit": false,
      "t": 703200,
      "d": 600,
      "v": 127
    },
    {
      "midi": 75,
      "hit": false,
      "t": 703500,
      "d": 300,
      "v": 127
    },
    {
      "midi": 68,
      "hit": false,
      "t": 703800,
      "d": 300,
      "v": 127
    },
    {
      "midi": 71,
      "hit": false,
      "t": 703800,
      "d": 300,
      "v": 127
    },
    {
      "midi": 56,
      "hit": false,
      "t": 703800,
      "d": 600,
      "v": 127
    },
    {
      "midi": 75,
      "hit": false,
      "t": 704100,
      "d": 300,
      "v": 127
    },
    {
      "midi": 63,
      "hit": false,
      "t": 704400,
      "d": 300,
      "v": 127
    },
    {
      "midi": 51,
      "hit": false,
      "t": 704400,
      "d": 600,
      "v": 127
    },
    {
      "midi": 75,
      "hit": false,
      "t": 704700,
      "d": 300,
      "v": 127
    },
    {
      "midi": 68,
      "hit": false,
      "t": 705000,
      "d": 300,
      "v": 127
    },
    {
      "midi": 71,
      "hit": false,
      "t": 705000,
      "d": 300,
      "v": 127
    },
    {
      "midi": 56,
      "hit": false,
      "t": 705000,
      "d": 600,
      "v": 127
    },
    {
      "midi": 75,
      "hit": false,
      "t": 705300,
      "d": 300,
      "v": 127
    },
    {
      "midi": 68,
      "hit": false,
      "t": 705600,
      "d": 300,
      "v": 127
    },
    {
      "midi": 48,
      "hit": false,
      "t": 705600,
      "d": 1200,
      "v": 127
    },
    {
      "midi": 56,
      "hit": false,
      "t": 705600,
      "d": 1200,
      "v": 127
    },
    {
      "midi": 80,
      "hit": false,
      "t": 705900,
      "d": 300,
      "v": 127
    },
    {
      "midi": 78,
      "hit": false,
      "t": 706200,
      "d": 300,
      "v": 127
    },
    {
      "midi": 80,
      "hit": false,
      "t": 706500,
      "d": 300,
      "v": 127
    },
    {
      "midi": 78,
      "hit": false,
      "t": 706800,
      "d": 300,
      "v": 127
    },
    {
      "midi": 56,
      "hit": false,
      "t": 706800,
      "d": 1200,
      "v": 127
    },
    {
      "midi": 80,
      "hit": false,
      "t": 707100,
      "d": 300,
      "v": 127
    },
    {
      "midi": 75,
      "hit": false,
      "t": 707400,
      "d": 300,
      "v": 127
    },
    {
      "midi": 80,
      "hit": false,
      "t": 707700,
      "d": 300,
      "v": 127
    },
    {
      "midi": 77,
      "hit": false,
      "t": 708000,
      "d": 300,
      "v": 127
    },
    {
      "midi": 61,
      "hit": false,
      "t": 708000,
      "d": 2400,
      "v": 127
    },
    {
      "midi": 80,
      "hit": false,
      "t": 708300,
      "d": 300,
      "v": 127
    },
    {
      "midi": 83,
      "hit": false,
      "t": 708600,
      "d": 300,
      "v": 127
    },
    {
      "midi": 85,
      "hit": false,
      "t": 708900,
      "d": 300,
      "v": 127
    },
    {
      "midi": 82,
      "hit": false,
      "t": 709200,
      "d": 300,
      "v": 127
    },
    {
      "midi": 85,
      "hit": false,
      "t": 709500,
      "d": 300,
      "v": 127
    },
    {
      "midi": 80,
      "hit": false,
      "t": 709800,
      "d": 300,
      "v": 127
    },
    {
      "midi": 85,
      "hit": false,
      "t": 710100,
      "d": 300,
      "v": 127
    },
    {
      "midi": 78,
      "hit": false,
      "t": 710400,
      "d": 300,
      "v": 127
    },
    {
      "midi": 42,
      "hit": false,
      "t": 710400,
      "d": 300,
      "v": 127
    },
    {
      "midi": 85,
      "hit": false,
      "t": 710700,
      "d": 300,
      "v": 127
    },
    {
      "midi": 58,
      "hit": false,
      "t": 710700,
      "d": 300,
      "v": 127
    },
    {
      "midi": 82,
      "hit": false,
      "t": 711000,
      "d": 900,
      "v": 127
    },
    {
      "midi": 94,
      "hit": false,
      "t": 711000,
      "d": 900,
      "v": 127
    },
    {
      "midi": 49,
      "hit": false,
      "t": 711000,
      "d": 300,
      "v": 127
    },
    {
      "midi": 58,
      "hit": false,
      "t": 711300,
      "d": 300,
      "v": 127
    },
    {
      "midi": 54,
      "hit": false,
      "t": 711600,
      "d": 300,
      "v": 127
    },
    {
      "midi": 90,
      "hit": false,
      "t": 711900,
      "d": 300,
      "v": 127
    },
    {
      "midi": 58,
      "hit": false,
      "t": 711900,
      "d": 300,
      "v": 127
    },
    {
      "midi": 82,
      "hit": false,
      "t": 712200,
      "d": 1200,
      "v": 127
    },
    {
      "midi": 94,
      "hit": false,
      "t": 712200,
      "d": 1200,
      "v": 127
    },
    {
      "midi": 49,
      "hit": false,
      "t": 712200,
      "d": 300,
      "v": 127
    },
    {
      "midi": 58,
      "hit": false,
      "t": 712500,
      "d": 300,
      "v": 127
    },
    {
      "midi": 42,
      "hit": false,
      "t": 712800,
      "d": 300,
      "v": 127
    },
    {
      "midi": 58,
      "hit": false,
      "t": 713100,
      "d": 300,
      "v": 127
    },
    {
      "midi": 78,
      "hit": false,
      "t": 713400,
      "d": 600,
      "v": 127
    },
    {
      "midi": 90,
      "hit": false,
      "t": 713400,
      "d": 600,
      "v": 127
    },
    {
      "midi": 49,
      "hit": false,
      "t": 713400,
      "d": 300,
      "v": 127
    },
    {
      "midi": 58,
      "hit": false,
      "t": 713700,
      "d": 300,
      "v": 127
    },
    {
      "midi": 73,
      "hit": false,
      "t": 714000,
      "d": 600,
      "v": 127
    },
    {
      "midi": 85,
      "hit": false,
      "t": 714000,
      "d": 600,
      "v": 127
    },
    {
      "midi": 54,
      "hit": false,
      "t": 714000,
      "d": 300,
      "v": 127
    },
    {
      "midi": 58,
      "hit": false,
      "t": 714300,
      "d": 300,
      "v": 127
    },
    {
      "midi": 70,
      "hit": false,
      "t": 714600,
      "d": 600,
      "v": 127
    },
    {
      "midi": 82,
      "hit": false,
      "t": 714600,
      "d": 600,
      "v": 127
    },
    {
      "midi": 49,
      "hit": false,
      "t": 714600,
      "d": 300,
      "v": 127
    },
    {
      "midi": 58,
      "hit": false,
      "t": 714900,
      "d": 300,
      "v": 127
    },
    {
      "midi": 41,
      "hit": false,
      "t": 715200,
      "d": 300,
      "v": 127
    },
    {
      "midi": 85,
      "hit": false,
      "t": 715500,
      "d": 300,
      "v": 127
    },
    {
      "midi": 59,
      "hit": false,
      "t": 715500,
      "d": 300,
      "v": 127
    },
    {
      "midi": 83,
      "hit": false,
      "t": 715800,
      "d": 900,
      "v": 127
    },
    {
      "midi": 95,
      "hit": false,
      "t": 715800,
      "d": 900,
      "v": 127
    },
    {
      "midi": 49,
      "hit": false,
      "t": 715800,
      "d": 300,
      "v": 127
    },
    {
      "midi": 59,
      "hit": false,
      "t": 716100,
      "d": 300,
      "v": 127
    },
    {
      "midi": 56,
      "hit": false,
      "t": 716400,
      "d": 300,
      "v": 127
    },
    {
      "midi": 92,
      "hit": false,
      "t": 716700,
      "d": 300,
      "v": 127
    },
    {
      "midi": 59,
      "hit": false,
      "t": 716700,
      "d": 300,
      "v": 127
    },
    {
      "midi": 83,
      "hit": false,
      "t": 717000,
      "d": 1200,
      "v": 127
    },
    {
      "midi": 95,
      "hit": false,
      "t": 717000,
      "d": 1200,
      "v": 127
    },
    {
      "midi": 49,
      "hit": false,
      "t": 717000,
      "d": 300,
      "v": 127
    },
    {
      "midi": 59,
      "hit": false,
      "t": 717300,
      "d": 300,
      "v": 127
    },
    {
      "midi": 41,
      "hit": false,
      "t": 717600,
      "d": 300,
      "v": 127
    },
    {
      "midi": 59,
      "hit": false,
      "t": 717900,
      "d": 300,
      "v": 127
    },
    {
      "midi": 80,
      "hit": false,
      "t": 718200,
      "d": 600,
      "v": 127
    },
    {
      "midi": 92,
      "hit": false,
      "t": 718200,
      "d": 600,
      "v": 127
    },
    {
      "midi": 49,
      "hit": false,
      "t": 718200,
      "d": 300,
      "v": 127
    },
    {
      "midi": 59,
      "hit": false,
      "t": 718500,
      "d": 300,
      "v": 127
    },
    {
      "midi": 77,
      "hit": false,
      "t": 718800,
      "d": 600,
      "v": 127
    },
    {
      "midi": 89,
      "hit": false,
      "t": 718800,
      "d": 600,
      "v": 127
    },
    {
      "midi": 56,
      "hit": false,
      "t": 718800,
      "d": 300,
      "v": 127
    },
    {
      "midi": 59,
      "hit": false,
      "t": 719100,
      "d": 300,
      "v": 127
    },
    {
      "midi": 71,
      "hit": false,
      "t": 719400,
      "d": 600,
      "v": 127
    },
    {
      "midi": 83,
      "hit": false,
      "t": 719400,
      "d": 600,
      "v": 127
    },
    {
      "midi": 49,
      "hit": false,
      "t": 719400,
      "d": 300,
      "v": 127
    },
    {
      "midi": 59,
      "hit": false,
      "t": 719700,
      "d": 300,
      "v": 127
    },
    {
      "midi": 42,
      "hit": false,
      "t": 720000,
      "d": 300,
      "v": 127
    },
    {
      "midi": 73,
      "hit": false,
      "t": 720300,
      "d": 300,
      "v": 127
    },
    {
      "midi": 58,
      "hit": false,
      "t": 720300,
      "d": 300,
      "v": 127
    },
    {
      "midi": 70,
      "hit": false,
      "t": 720600,
      "d": 900,
      "v": 127
    },
    {
      "midi": 82,
      "hit": false,
      "t": 720600,
      "d": 900,
      "v": 127
    },
    {
      "midi": 49,
      "hit": false,
      "t": 720600,
      "d": 300,
      "v": 127
    },
    {
      "midi": 58,
      "hit": false,
      "t": 720900,
      "d": 300,
      "v": 127
    },
    {
      "midi": 56,
      "hit": false,
      "t": 721200,
      "d": 300,
      "v": 127
    },
    {
      "midi": 78,
      "hit": false,
      "t": 721500,
      "d": 300,
      "v": 127
    },
    {
      "midi": 58,
      "hit": false,
      "t": 721500,
      "d": 300,
      "v": 127
    },
    {
      "midi": 70,
      "hit": false,
      "t": 721800,
      "d": 1200,
      "v": 127
    },
    {
      "midi": 82,
      "hit": false,
      "t": 721800,
      "d": 1200,
      "v": 127
    },
    {
      "midi": 49,
      "hit": false,
      "t": 721800,
      "d": 300,
      "v": 127
    },
    {
      "midi": 58,
      "hit": false,
      "t": 722100,
      "d": 300,
      "v": 127
    },
    {
      "midi": 36,
      "hit": false,
      "t": 722400,
      "d": 300,
      "v": 127
    },
    {
      "midi": 48,
      "hit": false,
      "t": 722700,
      "d": 300,
      "v": 127
    },
    {
      "midi": 69,
      "hit": false,
      "t": 723000,
      "d": 600,
      "v": 127
    },
    {
      "midi": 81,
      "hit": false,
      "t": 723000,
      "d": 600,
      "v": 127
    },
    {
      "midi": 51,
      "hit": false,
      "t": 723000,
      "d": 300,
      "v": 127
    },
    {
      "midi": 48,
      "hit": false,
      "t": 723300,
      "d": 300,
      "v": 127
    },
    {
      "midi": 68,
      "hit": false,
      "t": 723600,
      "d": 600,
      "v": 127
    },
    {
      "midi": 80,
      "hit": false,
      "t": 723600,
      "d": 600,
      "v": 127
    },
    {
      "midi": 56,
      "hit": false,
      "t": 723600,
      "d": 300,
      "v": 127
    },
    {
      "midi": 48,
      "hit": false,
      "t": 723900,
      "d": 300,
      "v": 127
    },
    {
      "midi": 66,
      "hit": false,
      "t": 724200,
      "d": 600,
      "v": 127
    },
    {
      "midi": 78,
      "hit": false,
      "t": 724200,
      "d": 600,
      "v": 127
    },
    {
      "midi": 57,
      "hit": false,
      "t": 724200,
      "d": 300,
      "v": 127
    },
    {
      "midi": 48,
      "hit": false,
      "t": 724500,
      "d": 300,
      "v": 127
    },
    {
      "midi": 65,
      "hit": false,
      "t": 724800,
      "d": 600,
      "v": 127
    },
    {
      "midi": 77,
      "hit": false,
      "t": 724800,
      "d": 600,
      "v": 127
    },
    {
      "midi": 37,
      "hit": false,
      "t": 724800,
      "d": 300,
      "v": 127
    },
    {
      "midi": 49,
      "hit": false,
      "t": 725100,
      "d": 300,
      "v": 127
    },
    {
      "midi": 73,
      "hit": false,
      "t": 725400,
      "d": 600,
      "v": 127
    },
    {
      "midi": 85,
      "hit": false,
      "t": 725400,
      "d": 600,
      "v": 127
    },
    {
      "midi": 53,
      "hit": false,
      "t": 725400,
      "d": 300,
      "v": 127
    },
    {
      "midi": 49,
      "hit": false,
      "t": 725700,
      "d": 300,
      "v": 127
    },
    {
      "midi": 71,
      "hit": false,
      "t": 726000,
      "d": 600,
      "v": 127
    },
    {
      "midi": 83,
      "hit": false,
      "t": 726000,
      "d": 600,
      "v": 127
    },
    {
      "midi": 56,
      "hit": false,
      "t": 726000,
      "d": 300,
      "v": 127
    },
    {
      "midi": 49,
      "hit": false,
      "t": 726300,
      "d": 300,
      "v": 127
    },
    {
      "midi": 68,
      "hit": false,
      "t": 726600,
      "d": 600,
      "v": 127
    },
    {
      "midi": 80,
      "hit": false,
      "t": 726600,
      "d": 600,
      "v": 127
    },
    {
      "midi": 59,
      "hit": false,
      "t": 726600,
      "d": 300,
      "v": 127
    },
    {
      "midi": 49,
      "hit": false,
      "t": 726900,
      "d": 300,
      "v": 127
    },
    {
      "midi": 66,
      "hit": false,
      "t": 727200,
      "d": 2400,
      "v": 127
    },
    {
      "midi": 78,
      "hit": false,
      "t": 727200,
      "d": 2400,
      "v": 127
    },
    {
      "midi": 42,
      "hit": false,
      "t": 727200,
      "d": 300,
      "v": 127
    },
    {
      "midi": 49,
      "hit": false,
      "t": 727500,
      "d": 300,
      "v": 127
    },
    {
      "midi": 58,
      "hit": false,
      "t": 727800,
      "d": 300,
      "v": 127
    },
    {
      "midi": 54,
      "hit": false,
      "t": 728100,
      "d": 300,
      "v": 127
    },
    {
      "midi": 49,
      "hit": false,
      "t": 728400,
      "d": 300,
      "v": 127
    },
    {
      "midi": 54,
      "hit": false,
      "t": 728700,
      "d": 300,
      "v": 127
    },
    {
      "midi": 49,
      "hit": false,
      "t": 729000,
      "d": 300,
      "v": 127
    },
    {
      "midi": 46,
      "hit": false,
      "t": 729300,
      "d": 300,
      "v": 127
    },
    {
      "midi": 62,
      "hit": false,
      "t": 729600,
      "d": 300,
      "v": 127
    },
    {
      "midi": 74,
      "hit": false,
      "t": 729900,
      "d": 300,
      "v": 127
    },
    {
      "midi": 46,
      "hit": false,
      "t": 729900,
      "d": 300,
      "v": 127
    },
    {
      "midi": 65,
      "hit": false,
      "t": 730200,
      "d": 300,
      "v": 127
    },
    {
      "midi": 70,
      "hit": false,
      "t": 730200,
      "d": 300,
      "v": 127
    },
    {
      "midi": 58,
      "hit": false,
      "t": 730200,
      "d": 900,
      "v": 127
    },
    {
      "midi": 74,
      "hit": false,
      "t": 730500,
      "d": 300,
      "v": 127
    },
    {
      "midi": 62,
      "hit": false,
      "t": 730800,
      "d": 300,
      "v": 127
    },
    {
      "midi": 74,
      "hit": false,
      "t": 731100,
      "d": 300,
      "v": 127
    },
    {
      "midi": 46,
      "hit": false,
      "t": 731100,
      "d": 300,
      "v": 127
    },
    {
      "midi": 65,
      "hit": false,
      "t": 731400,
      "d": 300,
      "v": 127
    },
    {
      "midi": 70,
      "hit": false,
      "t": 731400,
      "d": 300,
      "v": 127
    },
    {
      "midi": 58,
      "hit": false,
      "t": 731400,
      "d": 1200,
      "v": 127
    },
    {
      "midi": 74,
      "hit": false,
      "t": 731700,
      "d": 300,
      "v": 127
    },
    {
      "midi": 63,
      "hit": false,
      "t": 732000,
      "d": 300,
      "v": 127
    },
    {
      "midi": 75,
      "hit": false,
      "t": 732300,
      "d": 300,
      "v": 127
    },
    {
      "midi": 66,
      "hit": false,
      "t": 732600,
      "d": 300,
      "v": 127
    },
    {
      "midi": 70,
      "hit": false,
      "t": 732600,
      "d": 300,
      "v": 127
    },
    {
      "midi": 42,
      "hit": false,
      "t": 732600,
      "d": 600,
      "v": 127
    },
    {
      "midi": 54,
      "hit": false,
      "t": 732600,
      "d": 600,
      "v": 127
    },
    {
      "midi": 75,
      "hit": false,
      "t": 732900,
      "d": 300,
      "v": 127
    },
    {
      "midi": 70,
      "hit": false,
      "t": 733200,
      "d": 300,
      "v": 127
    },
    {
      "midi": 39,
      "hit": false,
      "t": 733200,
      "d": 600,
      "v": 127
    },
    {
      "midi": 51,
      "hit": false,
      "t": 733200,
      "d": 600,
      "v": 127
    },
    {
      "midi": 82,
      "hit": false,
      "t": 733500,
      "d": 300,
      "v": 127
    },
    {
      "midi": 75,
      "hit": false,
      "t": 733800,
      "d": 300,
      "v": 127
    },
    {
      "midi": 78,
      "hit": false,
      "t": 733800,
      "d": 300,
      "v": 127
    },
    {
      "midi": 34,
      "hit": false,
      "t": 733800,
      "d": 600,
      "v": 127
    },
    {
      "midi": 46,
      "hit": false,
      "t": 733800,
      "d": 600,
      "v": 127
    },
    {
      "midi": 82,
      "hit": false,
      "t": 734100,
      "d": 300,
      "v": 127
    },
    {
      "midi": 63,
      "hit": false,
      "t": 734400,
      "d": 300,
      "v": 127
    },
    {
      "midi": 75,
      "hit": false,
      "t": 734700,
      "d": 300,
      "v": 127
    },
    {
      "midi": 46,
      "hit": false,
      "t": 734700,
      "d": 300,
      "v": 127
    },
    {
      "midi": 66,
      "hit": false,
      "t": 735000,
      "d": 300,
      "v": 127
    },
    {
      "midi": 70,
      "hit": false,
      "t": 735000,
      "d": 300,
      "v": 127
    },
    {
      "midi": 58,
      "hit": false,
      "t": 735000,
      "d": 900,
      "v": 127
    },
    {
      "midi": 75,
      "hit": false,
      "t": 735300,
      "d": 300,
      "v": 127
    },
    {
      "midi": 63,
      "hit": false,
      "t": 735600,
      "d": 300,
      "v": 127
    },
    {
      "midi": 75,
      "hit": false,
      "t": 735900,
      "d": 300,
      "v": 127
    },
    {
      "midi": 45,
      "hit": false,
      "t": 735900,
      "d": 300,
      "v": 127
    },
    {
      "midi": 67,
      "hit": false,
      "t": 736200,
      "d": 300,
      "v": 127
    },
    {
      "midi": 73,
      "hit": false,
      "t": 736200,
      "d": 300,
      "v": 127
    },
    {
      "midi": 57,
      "hit": false,
      "t": 736200,
      "d": 600,
      "v": 127
    },
    {
      "midi": 75,
      "hit": false,
      "t": 736500,
      "d": 300,
      "v": 127
    },
    {
      "midi": 63,
      "hit": false,
      "t": 736800,
      "d": 300,
      "v": 127
    },
    {
      "midi": 44,
      "hit": false,
      "t": 736800,
      "d": 600,
      "v": 127
    },
    {
      "midi": 56,
      "hit": false,
      "t": 736800,
      "d": 600,
      "v": 127
    },
    {
      "midi": 75,
      "hit": false,
      "t": 737100,
      "d": 300,
      "v": 127
    },
    {
      "midi": 68,
      "hit": false,
      "t": 737400,
      "d": 300,
      "v": 127
    },
    {
      "midi": 72,
      "hit": false,
      "t": 737400,
      "d": 300,
      "v": 127
    },
    {
      "midi": 39,
      "hit": false,
      "t": 737400,
      "d": 600,
      "v": 127
    },
    {
      "midi": 51,
      "hit": false,
      "t": 737400,
      "d": 600,
      "v": 127
    },
    {
      "midi": 75,
      "hit": false,
      "t": 737700,
      "d": 300,
      "v": 127
    },
    {
      "midi": 72,
      "hit": false,
      "t": 738000,
      "d": 300,
      "v": 127
    },
    {
      "midi": 36,
      "hit": false,
      "t": 738000,
      "d": 600,
      "v": 127
    },
    {
      "midi": 48,
      "hit": false,
      "t": 738000,
      "d": 600,
      "v": 127
    },
    {
      "midi": 84,
      "hit": false,
      "t": 738300,
      "d": 300,
      "v": 127
    },
    {
      "midi": 75,
      "hit": false,
      "t": 738600,
      "d": 300,
      "v": 127
    },
    {
      "midi": 80,
      "hit": false,
      "t": 738600,
      "d": 300,
      "v": 127
    },
    {
      "midi": 30,
      "hit": false,
      "t": 738600,
      "d": 600,
      "v": 127
    },
    {
      "midi": 42,
      "hit": false,
      "t": 738600,
      "d": 600,
      "v": 127
    },
    {
      "midi": 84,
      "hit": false,
      "t": 738900,
      "d": 300,
      "v": 127
    },
    {
      "midi": 41,
      "hit": false,
      "t": 739200,
      "d": 300,
      "v": 127
    },
    {
      "midi": 73,
      "hit": false,
      "t": 739500,
      "d": 300,
      "v": 127
    },
    {
      "midi": 53,
      "hit": false,
      "t": 739500,
      "d": 300,
      "v": 127
    },
    {
      "midi": 85,
      "hit": false,
      "t": 739800,
      "d": 900,
      "v": 127
    },
    {
      "midi": 44,
      "hit": false,
      "t": 739800,
      "d": 300,
      "v": 127
    },
    {
      "midi": 49,
      "hit": false,
      "t": 739800,
      "d": 300,
      "v": 127
    },
    {
      "midi": 53,
      "hit": false,
      "t": 740100,
      "d": 300,
      "v": 127
    },
    {
      "midi": 43,
      "hit": false,
      "t": 740400,
      "d": 300,
      "v": 127
    },
    {
      "midi": 73,
      "hit": false,
      "t": 740700,
      "d": 300,
      "v": 127
    },
    {
      "midi": 53,
      "hit": false,
      "t": 740700,
      "d": 300,
      "v": 127
    },
    {
      "midi": 85,
      "hit": false,
      "t": 741000,
      "d": 1200,
      "v": 127
    },
    {
      "midi": 44,
      "hit": false,
      "t": 741000,
      "d": 300,
      "v": 127
    },
    {
      "midi": 49,
      "hit": false,
      "t": 741000,
      "d": 300,
      "v": 127
    },
    {
      "midi": 53,
      "hit": false,
      "t": 741300,
      "d": 300,
      "v": 127
    },
    {
      "midi": 42,
      "hit": false,
      "t": 741600,
      "d": 300,
      "v": 127
    },
    {
      "midi": 51,
      "hit": false,
      "t": 741900,
      "d": 300,
      "v": 127
    },
    {
      "midi": 70,
      "hit": false,
      "t": 742200,
      "d": 600,
      "v": 127
    },
    {
      "midi": 82,
      "hit": false,
      "t": 742200,
      "d": 600,
      "v": 127
    },
    {
      "midi": 46,
      "hit": false,
      "t": 742200,
      "d": 300,
      "v": 127
    },
    {
      "midi": 49,
      "hit": false,
      "t": 742200,
      "d": 300,
      "v": 127
    },
    {
      "midi": 51,
      "hit": false,
      "t": 742500,
      "d": 300,
      "v": 127
    },
    {
      "midi": 66,
      "hit": false,
      "t": 742800,
      "d": 600,
      "v": 127
    },
    {
      "midi": 78,
      "hit": false,
      "t": 742800,
      "d": 600,
      "v": 127
    },
    {
      "midi": 45,
      "hit": false,
      "t": 742800,
      "d": 300,
      "v": 127
    },
    {
      "midi": 54,
      "hit": false,
      "t": 743100,
      "d": 300,
      "v": 127
    },
    {
      "midi": 70,
      "hit": false,
      "t": 743400,
      "d": 600,
      "v": 127
    },
    {
      "midi": 82,
      "hit": false,
      "t": 743400,
      "d": 600,
      "v": 127
    },
    {
      "midi": 46,
      "hit": false,
      "t": 743400,
      "d": 300,
      "v": 127
    },
    {
      "midi": 49,
      "hit": false,
      "t": 743400,
      "d": 300,
      "v": 127
    },
    {
      "midi": 54,
      "hit": false,
      "t": 743700,
      "d": 300,
      "v": 127
    },
    {
      "midi": 61,
      "hit": false,
      "t": 744000,
      "d": 600,
      "v": 127
    },
    {
      "midi": 73,
      "hit": false,
      "t": 744000,
      "d": 600,
      "v": 127
    },
    {
      "midi": 44,
      "hit": false,
      "t": 744000,
      "d": 300,
      "v": 127
    },
    {
      "midi": 56,
      "hit": false,
      "t": 744300,
      "d": 300,
      "v": 127
    },
    {
      "midi": 68,
      "hit": false,
      "t": 744600,
      "d": 600,
      "v": 127
    },
    {
      "midi": 80,
      "hit": false,
      "t": 744600,
      "d": 600,
      "v": 127
    },
    {
      "midi": 49,
      "hit": false,
      "t": 744600,
      "d": 300,
      "v": 127
    },
    {
      "midi": 53,
      "hit": false,
      "t": 744600,
      "d": 300,
      "v": 127
    },
    {
      "midi": 56,
      "hit": false,
      "t": 744900,
      "d": 300,
      "v": 127
    },
    {
      "midi": 66,
      "hit": false,
      "t": 745200,
      "d": 600,
      "v": 127
    },
    {
      "midi": 78,
      "hit": false,
      "t": 745200,
      "d": 600,
      "v": 127
    },
    {
      "midi": 44,
      "hit": false,
      "t": 745200,
      "d": 300,
      "v": 127
    },
    {
      "midi": 56,
      "hit": false,
      "t": 745500,
      "d": 300,
      "v": 127
    },
    {
      "midi": 63,
      "hit": false,
      "t": 745800,
      "d": 600,
      "v": 127
    },
    {
      "midi": 75,
      "hit": false,
      "t": 745800,
      "d": 600,
      "v": 127
    },
    {
      "midi": 48,
      "hit": false,
      "t": 745800,
      "d": 300,
      "v": 127
    },
    {
      "midi": 54,
      "hit": false,
      "t": 745800,
      "d": 300,
      "v": 127
    },
    {
      "midi": 56,
      "hit": false,
      "t": 746100,
      "d": 300,
      "v": 127
    },
    {
      "midi": 73,
      "hit": false,
      "t": 746400,
      "d": 600,
      "v": 127
    },
    {
      "midi": 37,
      "hit": false,
      "t": 746400,
      "d": 300,
      "v": 127
    },
    {
      "midi": 49,
      "hit": false,
      "t": 746700,
      "d": 300,
      "v": 127
    },
    {
      "midi": 68,
      "hit": false,
      "t": 747000,
      "d": 600,
      "v": 127
    },
    {
      "midi": 71,
      "hit": false,
      "t": 747000,
      "d": 600,
      "v": 127
    },
    {
      "midi": 53,
      "hit": false,
      "t": 747000,
      "d": 300,
      "v": 127
    },
    {
      "midi": 56,
      "hit": false,
      "t": 747000,
      "d": 300,
      "v": 127
    },
    {
      "midi": 49,
      "hit": false,
      "t": 747300,
      "d": 300,
      "v": 127
    },
    {
      "midi": 66,
      "hit": false,
      "t": 747600,
      "d": 600,
      "v": 127
    },
    {
      "midi": 70,
      "hit": false,
      "t": 747600,
      "d": 600,
      "v": 127
    },
    {
      "midi": 54,
      "hit": false,
      "t": 747600,
      "d": 300,
      "v": 127
    },
    {
      "midi": 58,
      "hit": false,
      "t": 747600,
      "d": 300,
      "v": 127
    },
    {
      "midi": 49,
      "hit": false,
      "t": 747900,
      "d": 300,
      "v": 127
    },
    {
      "midi": 65,
      "hit": false,
      "t": 748200,
      "d": 600,
      "v": 127
    },
    {
      "midi": 68,
      "hit": false,
      "t": 748200,
      "d": 600,
      "v": 127
    },
    {
      "midi": 56,
      "hit": false,
      "t": 748200,
      "d": 300,
      "v": 127
    },
    {
      "midi": 59,
      "hit": false,
      "t": 748200,
      "d": 300,
      "v": 127
    },
    {
      "midi": 49,
      "hit": false,
      "t": 748500,
      "d": 300,
      "v": 127
    },
    {
      "midi": 61,
      "hit": false,
      "t": 748800,
      "d": 300,
      "v": 127
    },
    {
      "midi": 42,
      "hit": false,
      "t": 748800,
      "d": 300,
      "v": 127
    },
    {
      "midi": 73,
      "hit": false,
      "t": 749100,
      "d": 300,
      "v": 127
    },
    {
      "midi": 49,
      "hit": false,
      "t": 749100,
      "d": 300,
      "v": 127
    },
    {
      "midi": 66,
      "hit": false,
      "t": 749400,
      "d": 300,
      "v": 127
    },
    {
      "midi": 70,
      "hit": false,
      "t": 749400,
      "d": 300,
      "v": 127
    },
    {
      "midi": 58,
      "hit": false,
      "t": 749400,
      "d": 900,
      "v": 127
    },
    {
      "midi": 73,
      "hit": false,
      "t": 749700,
      "d": 300,
      "v": 127
    },
    {
      "midi": 61,
      "hit": false,
      "t": 750000,
      "d": 300,
      "v": 127
    },
    {
      "midi": 73,
      "hit": false,
      "t": 750300,
      "d": 300,
      "v": 127
    },
    {
      "midi": 54,
      "hit": false,
      "t": 750300,
      "d": 300,
      "v": 127
    },
    {
      "midi": 66,
      "hit": false,
      "t": 750600,
      "d": 300,
      "v": 127
    },
    {
      "midi": 70,
      "hit": false,
      "t": 750600,
      "d": 300,
      "v": 127
    },
    {
      "midi": 58,
      "hit": false,
      "t": 750600,
      "d": 1200,
      "v": 127
    },
    {
      "midi": 73,
      "hit": false,
      "t": 750900,
      "d": 300,
      "v": 127
    },
    {
      "midi": 64,
      "hit": false,
      "t": 751200,
      "d": 300,
      "v": 127
    },
    {
      "midi": 76,
      "hit": false,
      "t": 751500,
      "d": 300,
      "v": 127
    },
    {
      "midi": 66,
      "hit": false,
      "t": 751800,
      "d": 300,
      "v": 127
    },
    {
      "midi": 73,
      "hit": false,
      "t": 751800,
      "d": 300,
      "v": 127
    },
    {
      "midi": 54,
      "hit": false,
      "t": 751800,
      "d": 600,
      "v": 127
    },
    {
      "midi": 76,
      "hit": false,
      "t": 752100,
      "d": 300,
      "v": 127
    },
    {
      "midi": 64,
      "hit": false,
      "t": 752400,
      "d": 300,
      "v": 127
    },
    {
      "midi": 49,
      "hit": false,
      "t": 752400,
      "d": 600,
      "v": 127
    },
    {
      "midi": 76,
      "hit": false,
      "t": 752700,
      "d": 300,
      "v": 127
    },
    {
      "midi": 66,
      "hit": false,
      "t": 753000,
      "d": 300,
      "v": 127
    },
    {
      "midi": 73,
      "hit": false,
      "t": 753000,
      "d": 300,
      "v": 127
    },
    {
      "midi": 46,
      "hit": false,
      "t": 753000,
      "d": 600,
      "v": 127
    },
    {
      "midi": 76,
      "hit": false,
      "t": 753300,
      "d": 300,
      "v": 127
    },
    {
      "midi": 63,
      "hit": false,
      "t": 753600,
      "d": 300,
      "v": 127
    },
    {
      "midi": 35,
      "hit": false,
      "t": 753600,
      "d": 300,
      "v": 127
    },
    {
      "midi": 75,
      "hit": false,
      "t": 753900,
      "d": 300,
      "v": 127
    },
    {
      "midi": 47,
      "hit": false,
      "t": 753900,
      "d": 300,
      "v": 127
    },
    {
      "midi": 66,
      "hit": false,
      "t": 754200,
      "d": 300,
      "v": 127
    },
    {
      "midi": 71,
      "hit": false,
      "t": 754200,
      "d": 300,
      "v": 127
    },
    {
      "midi": 51,
      "hit": false,
      "t": 754200,
      "d": 900,
      "v": 127
    },
    {
      "midi": 75,
      "hit": false,
      "t": 754500,
      "d": 300,
      "v": 127
    },
    {
      "midi": 63,
      "hit": false,
      "t": 754800,
      "d": 300,
      "v": 127
    },
    {
      "midi": 75,
      "hit": false,
      "t": 755100,
      "d": 300,
      "v": 127
    },
    {
      "midi": 47,
      "hit": false,
      "t": 755100,
      "d": 300,
      "v": 127
    },
    {
      "midi": 66,
      "hit": false,
      "t": 755400,
      "d": 300,
      "v": 127
    },
    {
      "midi": 71,
      "hit": false,
      "t": 755400,
      "d": 300,
      "v": 127
    },
    {
      "midi": 51,
      "hit": false,
      "t": 755400,
      "d": 1200,
      "v": 127
    },
    {
      "midi": 75,
      "hit": false,
      "t": 755700,
      "d": 300,
      "v": 127
    },
    {
      "midi": 69,
      "hit": false,
      "t": 756000,
      "d": 300,
      "v": 127
    },
    {
      "midi": 81,
      "hit": false,
      "t": 756300,
      "d": 300,
      "v": 127
    },
    {
      "midi": 75,
      "hit": false,
      "t": 756600,
      "d": 300,
      "v": 127
    },
    {
      "midi": 78,
      "hit": false,
      "t": 756600,
      "d": 300,
      "v": 127
    },
    {
      "midi": 48,
      "hit": false,
      "t": 756600,
      "d": 600,
      "v": 127
    },
    {
      "midi": 81,
      "hit": false,
      "t": 756900,
      "d": 300,
      "v": 127
    },
    {
      "midi": 69,
      "hit": false,
      "t": 757200,
      "d": 300,
      "v": 127
    },
    {
      "midi": 45,
      "hit": false,
      "t": 757200,
      "d": 600,
      "v": 127
    },
    {
      "midi": 81,
      "hit": false,
      "t": 757500,
      "d": 300,
      "v": 127
    },
    {
      "midi": 75,
      "hit": false,
      "t": 757800,
      "d": 300,
      "v": 127
    },
    {
      "midi": 78,
      "hit": false,
      "t": 757800,
      "d": 300,
      "v": 127
    },
    {
      "midi": 36,
      "hit": false,
      "t": 757800,
      "d": 600,
      "v": 127
    },
    {
      "midi": 81,
      "hit": false,
      "t": 758100,
      "d": 300,
      "v": 127
    },
    {
      "midi": 51,
      "hit": false,
      "t": 758400,
      "d": 300,
      "v": 127
    },
    {
      "midi": 84,
      "hit": false,
      "t": 758700,
      "d": 300,
      "v": 127
    },
    {
      "midi": 60,
      "hit": false,
      "t": 758700,
      "d": 300,
      "v": 127
    },
    {
      "midi": 96,
      "hit": false,
      "t": 759000,
      "d": 900,
      "v": 127
    },
    {
      "midi": 54,
      "hit": false,
      "t": 759000,
      "d": 300,
      "v": 127
    },
    {
      "midi": 57,
      "hit": false,
      "t": 759000,
      "d": 300,
      "v": 127
    },
    {
      "midi": 60,
      "hit": false,
      "t": 759300,
      "d": 300,
      "v": 127
    },
    {
      "midi": 53,
      "hit": false,
      "t": 759600,
      "d": 300,
      "v": 127
    },
    {
      "midi": 84,
      "hit": false,
      "t": 759900,
      "d": 300,
      "v": 127
    },
    {
      "midi": 60,
      "hit": false,
      "t": 759900,
      "d": 300,
      "v": 127
    },
    {
      "midi": 96,
      "hit": false,
      "t": 760200,
      "d": 600,
      "v": 127
    },
    {
      "midi": 54,
      "hit": false,
      "t": 760200,
      "d": 300,
      "v": 127
    },
    {
      "midi": 57,
      "hit": false,
      "t": 760200,
      "d": 300,
      "v": 127
    },
    {
      "midi": 60,
      "hit": false,
      "t": 760500,
      "d": 300,
      "v": 127
    },
    {
      "midi": 87,
      "hit": false,
      "t": 760800,
      "d": 600,
      "v": 127
    },
    {
      "midi": 99,
      "hit": false,
      "t": 760800,
      "d": 600,
      "v": 127
    },
    {
      "midi": 49,
      "hit": false,
      "t": 760800,
      "d": 300,
      "v": 127
    },
    {
      "midi": 61,
      "hit": false,
      "t": 761100,
      "d": 300,
      "v": 127
    },
    {
      "midi": 85,
      "hit": false,
      "t": 761400,
      "d": 600,
      "v": 127
    },
    {
      "midi": 97,
      "hit": false,
      "t": 761400,
      "d": 600,
      "v": 127
    },
    {
      "midi": 54,
      "hit": false,
      "t": 761400,
      "d": 300,
      "v": 127
    },
    {
      "midi": 58,
      "hit": false,
      "t": 761400,
      "d": 300,
      "v": 127
    },
    {
      "midi": 61,
      "hit": false,
      "t": 761700,
      "d": 300,
      "v": 127
    },
    {
      "midi": 82,
      "hit": false,
      "t": 762000,
      "d": 600,
      "v": 127
    },
    {
      "midi": 94,
      "hit": false,
      "t": 762000,
      "d": 600,
      "v": 127
    },
    {
      "midi": 53,
      "hit": false,
      "t": 762000,
      "d": 300,
      "v": 127
    },
    {
      "midi": 61,
      "hit": false,
      "t": 762300,
      "d": 300,
      "v": 127
    },
    {
      "midi": 78,
      "hit": false,
      "t": 762600,
      "d": 600,
      "v": 127
    },
    {
      "midi": 90,
      "hit": false,
      "t": 762600,
      "d": 600,
      "v": 127
    },
    {
      "midi": 54,
      "hit": false,
      "t": 762600,
      "d": 300,
      "v": 127
    },
    {
      "midi": 58,
      "hit": false,
      "t": 762600,
      "d": 300,
      "v": 127
    },
    {
      "midi": 61,
      "hit": false,
      "t": 762900,
      "d": 300,
      "v": 127
    },
    {
      "midi": 77,
      "hit": false,
      "t": 763200,
      "d": 600,
      "v": 127
    },
    {
      "midi": 89,
      "hit": false,
      "t": 763200,
      "d": 600,
      "v": 127
    },
    {
      "midi": 37,
      "hit": false,
      "t": 763200,
      "d": 300,
      "v": 127
    },
    {
      "midi": 49,
      "hit": false,
      "t": 763500,
      "d": 300,
      "v": 127
    },
    {
      "midi": 85,
      "hit": false,
      "t": 763800,
      "d": 600,
      "v": 127
    },
    {
      "midi": 97,
      "hit": false,
      "t": 763800,
      "d": 600,
      "v": 127
    },
    {
      "midi": 53,
      "hit": false,
      "t": 763800,
      "d": 300,
      "v": 127
    },
    {
      "midi": 49,
      "hit": false,
      "t": 764100,
      "d": 300,
      "v": 127
    },
    {
      "midi": 83,
      "hit": false,
      "t": 764400,
      "d": 600,
      "v": 127
    },
    {
      "midi": 95,
      "hit": false,
      "t": 764400,
      "d": 600,
      "v": 127
    },
    {
      "midi": 56,
      "hit": false,
      "t": 764400,
      "d": 300,
      "v": 127
    },
    {
      "midi": 49,
      "hit": false,
      "t": 764700,
      "d": 300,
      "v": 127
    },
    {
      "midi": 80,
      "hit": false,
      "t": 765000,
      "d": 600,
      "v": 127
    },
    {
      "midi": 92,
      "hit": false,
      "t": 765000,
      "d": 600,
      "v": 127
    },
    {
      "midi": 59,
      "hit": false,
      "t": 765000,
      "d": 300,
      "v": 127
    },
    {
      "midi": 49,
      "hit": false,
      "t": 765300,
      "d": 300,
      "v": 127
    },
    {
      "midi": 78,
      "hit": false,
      "t": 765600,
      "d": 2400,
      "v": 127
    },
    {
      "midi": 90,
      "hit": false,
      "t": 765600,
      "d": 2400,
      "v": 127
    },
    {
      "midi": 42,
      "hit": false,
      "t": 765600,
      "d": 300,
      "v": 127
    },
    {
      "midi": 49,
      "hit": false,
      "t": 765900,
      "d": 300,
      "v": 127
    },
    {
      "midi": 58,
      "hit": false,
      "t": 766200,
      "d": 300,
      "v": 127
    },
    {
      "midi": 54,
      "hit": false,
      "t": 766500,
      "d": 300,
      "v": 127
    },
    {
      "midi": 49,
      "hit": false,
      "t": 766800,
      "d": 300,
      "v": 127
    },
    {
      "midi": 54,
      "hit": false,
      "t": 767100,
      "d": 300,
      "v": 127
    },
    {
      "midi": 49,
      "hit": false,
      "t": 767400,
      "d": 300,
      "v": 127
    },
    {
      "midi": 46,
      "hit": false,
      "t": 767700,
      "d": 300,
      "v": 127
    },
    {
      "midi": 62,
      "hit": false,
      "t": 768000,
      "d": 300,
      "v": 127
    },
    {
      "midi": 74,
      "hit": false,
      "t": 768300,
      "d": 300,
      "v": 127
    },
    {
      "midi": 46,
      "hit": false,
      "t": 768300,
      "d": 300,
      "v": 127
    },
    {
      "midi": 65,
      "hit": false,
      "t": 768600,
      "d": 300,
      "v": 127
    },
    {
      "midi": 70,
      "hit": false,
      "t": 768600,
      "d": 300,
      "v": 127
    },
    {
      "midi": 58,
      "hit": false,
      "t": 768600,
      "d": 900,
      "v": 127
    },
    {
      "midi": 74,
      "hit": false,
      "t": 768900,
      "d": 300,
      "v": 127
    },
    {
      "midi": 62,
      "hit": false,
      "t": 769200,
      "d": 300,
      "v": 127
    },
    {
      "midi": 74,
      "hit": false,
      "t": 769500,
      "d": 300,
      "v": 127
    },
    {
      "midi": 46,
      "hit": false,
      "t": 769500,
      "d": 300,
      "v": 127
    },
    {
      "midi": 65,
      "hit": false,
      "t": 769800,
      "d": 300,
      "v": 127
    },
    {
      "midi": 70,
      "hit": false,
      "t": 769800,
      "d": 300,
      "v": 127
    },
    {
      "midi": 58,
      "hit": false,
      "t": 769800,
      "d": 1200,
      "v": 127
    },
    {
      "midi": 74,
      "hit": false,
      "t": 770100,
      "d": 300,
      "v": 127
    },
    {
      "midi": 63,
      "hit": false,
      "t": 770400,
      "d": 300,
      "v": 127
    },
    {
      "midi": 75,
      "hit": false,
      "t": 770700,
      "d": 300,
      "v": 127
    },
    {
      "midi": 66,
      "hit": false,
      "t": 771000,
      "d": 300,
      "v": 127
    },
    {
      "midi": 70,
      "hit": false,
      "t": 771000,
      "d": 300,
      "v": 127
    },
    {
      "midi": 42,
      "hit": false,
      "t": 771000,
      "d": 600,
      "v": 127
    },
    {
      "midi": 54,
      "hit": false,
      "t": 771000,
      "d": 600,
      "v": 127
    },
    {
      "midi": 75,
      "hit": false,
      "t": 771300,
      "d": 300,
      "v": 127
    },
    {
      "midi": 70,
      "hit": false,
      "t": 771600,
      "d": 300,
      "v": 127
    },
    {
      "midi": 39,
      "hit": false,
      "t": 771600,
      "d": 600,
      "v": 127
    },
    {
      "midi": 51,
      "hit": false,
      "t": 771600,
      "d": 600,
      "v": 127
    },
    {
      "midi": 82,
      "hit": false,
      "t": 771900,
      "d": 300,
      "v": 127
    },
    {
      "midi": 75,
      "hit": false,
      "t": 772200,
      "d": 300,
      "v": 127
    },
    {
      "midi": 78,
      "hit": false,
      "t": 772200,
      "d": 300,
      "v": 127
    },
    {
      "midi": 34,
      "hit": false,
      "t": 772200,
      "d": 600,
      "v": 127
    },
    {
      "midi": 46,
      "hit": false,
      "t": 772200,
      "d": 600,
      "v": 127
    },
    {
      "midi": 82,
      "hit": false,
      "t": 772500,
      "d": 300,
      "v": 127
    },
    {
      "midi": 63,
      "hit": false,
      "t": 772800,
      "d": 300,
      "v": 127
    },
    {
      "midi": 75,
      "hit": false,
      "t": 773100,
      "d": 300,
      "v": 127
    },
    {
      "midi": 46,
      "hit": false,
      "t": 773100,
      "d": 300,
      "v": 127
    },
    {
      "midi": 66,
      "hit": false,
      "t": 773400,
      "d": 300,
      "v": 127
    },
    {
      "midi": 70,
      "hit": false,
      "t": 773400,
      "d": 300,
      "v": 127
    },
    {
      "midi": 58,
      "hit": false,
      "t": 773400,
      "d": 900,
      "v": 127
    },
    {
      "midi": 75,
      "hit": false,
      "t": 773700,
      "d": 300,
      "v": 127
    },
    {
      "midi": 63,
      "hit": false,
      "t": 774000,
      "d": 300,
      "v": 127
    },
    {
      "midi": 75,
      "hit": false,
      "t": 774300,
      "d": 300,
      "v": 127
    },
    {
      "midi": 45,
      "hit": false,
      "t": 774300,
      "d": 300,
      "v": 127
    },
    {
      "midi": 67,
      "hit": false,
      "t": 774600,
      "d": 300,
      "v": 127
    },
    {
      "midi": 73,
      "hit": false,
      "t": 774600,
      "d": 300,
      "v": 127
    },
    {
      "midi": 57,
      "hit": false,
      "t": 774600,
      "d": 600,
      "v": 127
    },
    {
      "midi": 75,
      "hit": false,
      "t": 774900,
      "d": 300,
      "v": 127
    },
    {
      "midi": 63,
      "hit": false,
      "t": 775200,
      "d": 300,
      "v": 127
    },
    {
      "midi": 44,
      "hit": false,
      "t": 775200,
      "d": 600,
      "v": 127
    },
    {
      "midi": 56,
      "hit": false,
      "t": 775200,
      "d": 600,
      "v": 127
    },
    {
      "midi": 75,
      "hit": false,
      "t": 775500,
      "d": 300,
      "v": 127
    },
    {
      "midi": 68,
      "hit": false,
      "t": 775800,
      "d": 300,
      "v": 127
    },
    {
      "midi": 72,
      "hit": false,
      "t": 775800,
      "d": 300,
      "v": 127
    },
    {
      "midi": 39,
      "hit": false,
      "t": 775800,
      "d": 600,
      "v": 127
    },
    {
      "midi": 51,
      "hit": false,
      "t": 775800,
      "d": 600,
      "v": 127
    },
    {
      "midi": 75,
      "hit": false,
      "t": 776100,
      "d": 300,
      "v": 127
    },
    {
      "midi": 72,
      "hit": false,
      "t": 776400,
      "d": 300,
      "v": 127
    },
    {
      "midi": 36,
      "hit": false,
      "t": 776400,
      "d": 600,
      "v": 127
    },
    {
      "midi": 48,
      "hit": false,
      "t": 776400,
      "d": 600,
      "v": 127
    },
    {
      "midi": 84,
      "hit": false,
      "t": 776700,
      "d": 300,
      "v": 127
    },
    {
      "midi": 75,
      "hit": false,
      "t": 777000,
      "d": 300,
      "v": 127
    },
    {
      "midi": 80,
      "hit": false,
      "t": 777000,
      "d": 300,
      "v": 127
    },
    {
      "midi": 30,
      "hit": false,
      "t": 777000,
      "d": 600,
      "v": 127
    },
    {
      "midi": 42,
      "hit": false,
      "t": 777000,
      "d": 600,
      "v": 127
    },
    {
      "midi": 84,
      "hit": false,
      "t": 777300,
      "d": 300,
      "v": 127
    },
    {
      "midi": 41,
      "hit": false,
      "t": 777600,
      "d": 300,
      "v": 127
    },
    {
      "midi": 73,
      "hit": false,
      "t": 777900,
      "d": 300,
      "v": 127
    },
    {
      "midi": 53,
      "hit": false,
      "t": 777900,
      "d": 300,
      "v": 127
    },
    {
      "midi": 85,
      "hit": false,
      "t": 778200,
      "d": 900,
      "v": 127
    },
    {
      "midi": 44,
      "hit": false,
      "t": 778200,
      "d": 300,
      "v": 127
    },
    {
      "midi": 49,
      "hit": false,
      "t": 778200,
      "d": 300,
      "v": 127
    },
    {
      "midi": 53,
      "hit": false,
      "t": 778500,
      "d": 300,
      "v": 127
    },
    {
      "midi": 43,
      "hit": false,
      "t": 778800,
      "d": 300,
      "v": 127
    },
    {
      "midi": 73,
      "hit": false,
      "t": 779100,
      "d": 300,
      "v": 127
    },
    {
      "midi": 53,
      "hit": false,
      "t": 779100,
      "d": 300,
      "v": 127
    },
    {
      "midi": 85,
      "hit": false,
      "t": 779400,
      "d": 1200,
      "v": 127
    },
    {
      "midi": 44,
      "hit": false,
      "t": 779400,
      "d": 300,
      "v": 127
    },
    {
      "midi": 49,
      "hit": false,
      "t": 779400,
      "d": 300,
      "v": 127
    },
    {
      "midi": 53,
      "hit": false,
      "t": 779700,
      "d": 300,
      "v": 127
    },
    {
      "midi": 42,
      "hit": false,
      "t": 780000,
      "d": 300,
      "v": 127
    },
    {
      "midi": 51,
      "hit": false,
      "t": 780300,
      "d": 300,
      "v": 127
    },
    {
      "midi": 70,
      "hit": false,
      "t": 780600,
      "d": 600,
      "v": 127
    },
    {
      "midi": 82,
      "hit": false,
      "t": 780600,
      "d": 600,
      "v": 127
    },
    {
      "midi": 46,
      "hit": false,
      "t": 780600,
      "d": 300,
      "v": 127
    },
    {
      "midi": 49,
      "hit": false,
      "t": 780600,
      "d": 300,
      "v": 127
    },
    {
      "midi": 51,
      "hit": false,
      "t": 780900,
      "d": 300,
      "v": 127
    },
    {
      "midi": 66,
      "hit": false,
      "t": 781200,
      "d": 600,
      "v": 127
    },
    {
      "midi": 78,
      "hit": false,
      "t": 781200,
      "d": 600,
      "v": 127
    },
    {
      "midi": 45,
      "hit": false,
      "t": 781200,
      "d": 300,
      "v": 127
    },
    {
      "midi": 54,
      "hit": false,
      "t": 781500,
      "d": 300,
      "v": 127
    },
    {
      "midi": 70,
      "hit": false,
      "t": 781800,
      "d": 600,
      "v": 127
    },
    {
      "midi": 82,
      "hit": false,
      "t": 781800,
      "d": 600,
      "v": 127
    },
    {
      "midi": 46,
      "hit": false,
      "t": 781800,
      "d": 300,
      "v": 127
    },
    {
      "midi": 49,
      "hit": false,
      "t": 781800,
      "d": 300,
      "v": 127
    },
    {
      "midi": 54,
      "hit": false,
      "t": 782100,
      "d": 300,
      "v": 127
    },
    {
      "midi": 61,
      "hit": false,
      "t": 782400,
      "d": 600,
      "v": 127
    },
    {
      "midi": 73,
      "hit": false,
      "t": 782400,
      "d": 600,
      "v": 127
    },
    {
      "midi": 44,
      "hit": false,
      "t": 782400,
      "d": 300,
      "v": 127
    },
    {
      "midi": 56,
      "hit": false,
      "t": 782700,
      "d": 300,
      "v": 127
    },
    {
      "midi": 68,
      "hit": false,
      "t": 783000,
      "d": 600,
      "v": 127
    },
    {
      "midi": 80,
      "hit": false,
      "t": 783000,
      "d": 600,
      "v": 127
    },
    {
      "midi": 49,
      "hit": false,
      "t": 783000,
      "d": 300,
      "v": 127
    },
    {
      "midi": 53,
      "hit": false,
      "t": 783000,
      "d": 300,
      "v": 127
    },
    {
      "midi": 56,
      "hit": false,
      "t": 783300,
      "d": 300,
      "v": 127
    },
    {
      "midi": 66,
      "hit": false,
      "t": 783600,
      "d": 600,
      "v": 127
    },
    {
      "midi": 78,
      "hit": false,
      "t": 783600,
      "d": 600,
      "v": 127
    },
    {
      "midi": 44,
      "hit": false,
      "t": 783600,
      "d": 300,
      "v": 127
    },
    {
      "midi": 56,
      "hit": false,
      "t": 783900,
      "d": 300,
      "v": 127
    },
    {
      "midi": 63,
      "hit": false,
      "t": 784200,
      "d": 600,
      "v": 127
    },
    {
      "midi": 75,
      "hit": false,
      "t": 784200,
      "d": 600,
      "v": 127
    },
    {
      "midi": 48,
      "hit": false,
      "t": 784200,
      "d": 300,
      "v": 127
    },
    {
      "midi": 54,
      "hit": false,
      "t": 784200,
      "d": 300,
      "v": 127
    },
    {
      "midi": 56,
      "hit": false,
      "t": 784500,
      "d": 300,
      "v": 127
    },
    {
      "midi": 73,
      "hit": false,
      "t": 784800,
      "d": 600,
      "v": 127
    },
    {
      "midi": 37,
      "hit": false,
      "t": 784800,
      "d": 300,
      "v": 127
    },
    {
      "midi": 49,
      "hit": false,
      "t": 785100,
      "d": 300,
      "v": 127
    },
    {
      "midi": 68,
      "hit": false,
      "t": 785400,
      "d": 600,
      "v": 127
    },
    {
      "midi": 71,
      "hit": false,
      "t": 785400,
      "d": 600,
      "v": 127
    },
    {
      "midi": 53,
      "hit": false,
      "t": 785400,
      "d": 300,
      "v": 127
    },
    {
      "midi": 56,
      "hit": false,
      "t": 785400,
      "d": 300,
      "v": 127
    },
    {
      "midi": 49,
      "hit": false,
      "t": 785700,
      "d": 300,
      "v": 127
    },
    {
      "midi": 66,
      "hit": false,
      "t": 786000,
      "d": 600,
      "v": 127
    },
    {
      "midi": 70,
      "hit": false,
      "t": 786000,
      "d": 600,
      "v": 127
    },
    {
      "midi": 54,
      "hit": false,
      "t": 786000,
      "d": 300,
      "v": 127
    },
    {
      "midi": 58,
      "hit": false,
      "t": 786000,
      "d": 300,
      "v": 127
    },
    {
      "midi": 49,
      "hit": false,
      "t": 786300,
      "d": 300,
      "v": 127
    },
    {
      "midi": 65,
      "hit": false,
      "t": 786600,
      "d": 600,
      "v": 127
    },
    {
      "midi": 68,
      "hit": false,
      "t": 786600,
      "d": 600,
      "v": 127
    },
    {
      "midi": 56,
      "hit": false,
      "t": 786600,
      "d": 300,
      "v": 127
    },
    {
      "midi": 59,
      "hit": false,
      "t": 786600,
      "d": 300,
      "v": 127
    },
    {
      "midi": 49,
      "hit": false,
      "t": 786900,
      "d": 300,
      "v": 127
    },
    {
      "midi": 61,
      "hit": false,
      "t": 787200,
      "d": 300,
      "v": 127
    },
    {
      "midi": 42,
      "hit": false,
      "t": 787200,
      "d": 300,
      "v": 127
    },
    {
      "midi": 73,
      "hit": false,
      "t": 787500,
      "d": 300,
      "v": 127
    },
    {
      "midi": 49,
      "hit": false,
      "t": 787500,
      "d": 300,
      "v": 127
    },
    {
      "midi": 66,
      "hit": false,
      "t": 787800,
      "d": 300,
      "v": 127
    },
    {
      "midi": 70,
      "hit": false,
      "t": 787800,
      "d": 300,
      "v": 127
    },
    {
      "midi": 58,
      "hit": false,
      "t": 787800,
      "d": 900,
      "v": 127
    },
    {
      "midi": 73,
      "hit": false,
      "t": 788100,
      "d": 300,
      "v": 127
    },
    {
      "midi": 61,
      "hit": false,
      "t": 788400,
      "d": 300,
      "v": 127
    },
    {
      "midi": 73,
      "hit": false,
      "t": 788700,
      "d": 300,
      "v": 127
    },
    {
      "midi": 54,
      "hit": false,
      "t": 788700,
      "d": 300,
      "v": 127
    },
    {
      "midi": 66,
      "hit": false,
      "t": 789000,
      "d": 300,
      "v": 127
    },
    {
      "midi": 70,
      "hit": false,
      "t": 789000,
      "d": 300,
      "v": 127
    },
    {
      "midi": 58,
      "hit": false,
      "t": 789000,
      "d": 1200,
      "v": 127
    },
    {
      "midi": 73,
      "hit": false,
      "t": 789300,
      "d": 300,
      "v": 127
    },
    {
      "midi": 64,
      "hit": false,
      "t": 789600,
      "d": 300,
      "v": 127
    },
    {
      "midi": 76,
      "hit": false,
      "t": 789900,
      "d": 300,
      "v": 127
    },
    {
      "midi": 66,
      "hit": false,
      "t": 790200,
      "d": 300,
      "v": 127
    },
    {
      "midi": 73,
      "hit": false,
      "t": 790200,
      "d": 300,
      "v": 127
    },
    {
      "midi": 54,
      "hit": false,
      "t": 790200,
      "d": 600,
      "v": 127
    },
    {
      "midi": 76,
      "hit": false,
      "t": 790500,
      "d": 300,
      "v": 127
    },
    {
      "midi": 64,
      "hit": false,
      "t": 790800,
      "d": 300,
      "v": 127
    },
    {
      "midi": 49,
      "hit": false,
      "t": 790800,
      "d": 600,
      "v": 127
    },
    {
      "midi": 76,
      "hit": false,
      "t": 791100,
      "d": 300,
      "v": 127
    },
    {
      "midi": 66,
      "hit": false,
      "t": 791400,
      "d": 300,
      "v": 127
    },
    {
      "midi": 73,
      "hit": false,
      "t": 791400,
      "d": 300,
      "v": 127
    },
    {
      "midi": 46,
      "hit": false,
      "t": 791400,
      "d": 600,
      "v": 127
    },
    {
      "midi": 76,
      "hit": false,
      "t": 791700,
      "d": 300,
      "v": 127
    },
    {
      "midi": 63,
      "hit": false,
      "t": 792000,
      "d": 300,
      "v": 127
    },
    {
      "midi": 35,
      "hit": false,
      "t": 792000,
      "d": 300,
      "v": 127
    },
    {
      "midi": 75,
      "hit": false,
      "t": 792300,
      "d": 300,
      "v": 127
    },
    {
      "midi": 47,
      "hit": false,
      "t": 792300,
      "d": 300,
      "v": 127
    },
    {
      "midi": 66,
      "hit": false,
      "t": 792600,
      "d": 300,
      "v": 127
    },
    {
      "midi": 71,
      "hit": false,
      "t": 792600,
      "d": 300,
      "v": 127
    },
    {
      "midi": 51,
      "hit": false,
      "t": 792600,
      "d": 900,
      "v": 127
    },
    {
      "midi": 75,
      "hit": false,
      "t": 792900,
      "d": 300,
      "v": 127
    },
    {
      "midi": 63,
      "hit": false,
      "t": 793200,
      "d": 300,
      "v": 127
    },
    {
      "midi": 75,
      "hit": false,
      "t": 793500,
      "d": 300,
      "v": 127
    },
    {
      "midi": 47,
      "hit": false,
      "t": 793500,
      "d": 300,
      "v": 127
    },
    {
      "midi": 66,
      "hit": false,
      "t": 793800,
      "d": 300,
      "v": 127
    },
    {
      "midi": 71,
      "hit": false,
      "t": 793800,
      "d": 300,
      "v": 127
    },
    {
      "midi": 51,
      "hit": false,
      "t": 793800,
      "d": 1200,
      "v": 127
    },
    {
      "midi": 75,
      "hit": false,
      "t": 794100,
      "d": 300,
      "v": 127
    },
    {
      "midi": 69,
      "hit": false,
      "t": 794400,
      "d": 300,
      "v": 127
    },
    {
      "midi": 81,
      "hit": false,
      "t": 794700,
      "d": 300,
      "v": 127
    },
    {
      "midi": 75,
      "hit": false,
      "t": 795000,
      "d": 300,
      "v": 127
    },
    {
      "midi": 78,
      "hit": false,
      "t": 795000,
      "d": 300,
      "v": 127
    },
    {
      "midi": 48,
      "hit": false,
      "t": 795000,
      "d": 600,
      "v": 127
    },
    {
      "midi": 81,
      "hit": false,
      "t": 795300,
      "d": 300,
      "v": 127
    },
    {
      "midi": 69,
      "hit": false,
      "t": 795600,
      "d": 300,
      "v": 127
    },
    {
      "midi": 45,
      "hit": false,
      "t": 795600,
      "d": 600,
      "v": 127
    },
    {
      "midi": 81,
      "hit": false,
      "t": 795900,
      "d": 300,
      "v": 127
    },
    {
      "midi": 75,
      "hit": false,
      "t": 796200,
      "d": 300,
      "v": 127
    },
    {
      "midi": 78,
      "hit": false,
      "t": 796200,
      "d": 300,
      "v": 127
    },
    {
      "midi": 36,
      "hit": false,
      "t": 796200,
      "d": 600,
      "v": 127
    },
    {
      "midi": 81,
      "hit": false,
      "t": 796500,
      "d": 300,
      "v": 127
    },
    {
      "midi": 51,
      "hit": false,
      "t": 796800,
      "d": 300,
      "v": 127
    },
    {
      "midi": 84,
      "hit": false,
      "t": 797100,
      "d": 300,
      "v": 127
    },
    {
      "midi": 60,
      "hit": false,
      "t": 797100,
      "d": 300,
      "v": 127
    },
    {
      "midi": 96,
      "hit": false,
      "t": 797400,
      "d": 900,
      "v": 127
    },
    {
      "midi": 54,
      "hit": false,
      "t": 797400,
      "d": 300,
      "v": 127
    },
    {
      "midi": 57,
      "hit": false,
      "t": 797400,
      "d": 300,
      "v": 127
    },
    {
      "midi": 60,
      "hit": false,
      "t": 797700,
      "d": 300,
      "v": 127
    },
    {
      "midi": 53,
      "hit": false,
      "t": 798000,
      "d": 300,
      "v": 127
    },
    {
      "midi": 84,
      "hit": false,
      "t": 798300,
      "d": 300,
      "v": 127
    },
    {
      "midi": 60,
      "hit": false,
      "t": 798300,
      "d": 300,
      "v": 127
    },
    {
      "midi": 96,
      "hit": false,
      "t": 798600,
      "d": 600,
      "v": 127
    },
    {
      "midi": 54,
      "hit": false,
      "t": 798600,
      "d": 300,
      "v": 127
    },
    {
      "midi": 57,
      "hit": false,
      "t": 798600,
      "d": 300,
      "v": 127
    },
    {
      "midi": 60,
      "hit": false,
      "t": 798900,
      "d": 300,
      "v": 127
    },
    {
      "midi": 87,
      "hit": false,
      "t": 799200,
      "d": 600,
      "v": 127
    },
    {
      "midi": 99,
      "hit": false,
      "t": 799200,
      "d": 600,
      "v": 127
    },
    {
      "midi": 49,
      "hit": false,
      "t": 799200,
      "d": 300,
      "v": 127
    },
    {
      "midi": 61,
      "hit": false,
      "t": 799500,
      "d": 300,
      "v": 127
    },
    {
      "midi": 85,
      "hit": false,
      "t": 799800,
      "d": 600,
      "v": 127
    },
    {
      "midi": 97,
      "hit": false,
      "t": 799800,
      "d": 600,
      "v": 127
    },
    {
      "midi": 54,
      "hit": false,
      "t": 799800,
      "d": 300,
      "v": 127
    },
    {
      "midi": 58,
      "hit": false,
      "t": 799800,
      "d": 300,
      "v": 127
    },
    {
      "midi": 61,
      "hit": false,
      "t": 800100,
      "d": 300,
      "v": 127
    },
    {
      "midi": 82,
      "hit": false,
      "t": 800400,
      "d": 600,
      "v": 127
    },
    {
      "midi": 94,
      "hit": false,
      "t": 800400,
      "d": 600,
      "v": 127
    },
    {
      "midi": 53,
      "hit": false,
      "t": 800400,
      "d": 300,
      "v": 127
    },
    {
      "midi": 61,
      "hit": false,
      "t": 800700,
      "d": 300,
      "v": 127
    },
    {
      "midi": 78,
      "hit": false,
      "t": 801000,
      "d": 600,
      "v": 127
    },
    {
      "midi": 90,
      "hit": false,
      "t": 801000,
      "d": 600,
      "v": 127
    },
    {
      "midi": 54,
      "hit": false,
      "t": 801000,
      "d": 300,
      "v": 127
    },
    {
      "midi": 58,
      "hit": false,
      "t": 801000,
      "d": 300,
      "v": 127
    },
    {
      "midi": 61,
      "hit": false,
      "t": 801300,
      "d": 300,
      "v": 127
    },
    {
      "midi": 77,
      "hit": false,
      "t": 801600,
      "d": 600,
      "v": 127
    },
    {
      "midi": 89,
      "hit": false,
      "t": 801600,
      "d": 600,
      "v": 127
    },
    {
      "midi": 37,
      "hit": false,
      "t": 801600,
      "d": 300,
      "v": 127
    },
    {
      "midi": 49,
      "hit": false,
      "t": 801900,
      "d": 300,
      "v": 127
    },
    {
      "midi": 85,
      "hit": false,
      "t": 802200,
      "d": 600,
      "v": 127
    },
    {
      "midi": 97,
      "hit": false,
      "t": 802200,
      "d": 600,
      "v": 127
    },
    {
      "midi": 53,
      "hit": false,
      "t": 802200,
      "d": 300,
      "v": 127
    },
    {
      "midi": 49,
      "hit": false,
      "t": 802500,
      "d": 300,
      "v": 127
    },
    {
      "midi": 83,
      "hit": false,
      "t": 802800,
      "d": 600,
      "v": 127
    },
    {
      "midi": 95,
      "hit": false,
      "t": 802800,
      "d": 600,
      "v": 127
    },
    {
      "midi": 56,
      "hit": false,
      "t": 802800,
      "d": 300,
      "v": 127
    },
    {
      "midi": 49,
      "hit": false,
      "t": 803100,
      "d": 300,
      "v": 127
    },
    {
      "midi": 80,
      "hit": false,
      "t": 803400,
      "d": 600,
      "v": 127
    },
    {
      "midi": 92,
      "hit": false,
      "t": 803400,
      "d": 600,
      "v": 127
    },
    {
      "midi": 59,
      "hit": false,
      "t": 803400,
      "d": 300,
      "v": 127
    },
    {
      "midi": 49,
      "hit": false,
      "t": 803700,
      "d": 300,
      "v": 127
    },
    {
      "midi": 78,
      "hit": false,
      "t": 804000,
      "d": 1800,
      "v": 127
    },
    {
      "midi": 90,
      "hit": false,
      "t": 804000,
      "d": 1800,
      "v": 127
    },
    {
      "midi": 42,
      "hit": false,
      "t": 804000,
      "d": 300,
      "v": 127
    },
    {
      "midi": 58,
      "hit": false,
      "t": 804300,
      "d": 300,
      "v": 127
    },
    {
      "midi": 49,
      "hit": false,
      "t": 804600,
      "d": 300,
      "v": 127
    },
    {
      "midi": 58,
      "hit": false,
      "t": 804900,
      "d": 300,
      "v": 127
    },
    {
      "midi": 54,
      "hit": false,
      "t": 805200,
      "d": 300,
      "v": 127
    },
    {
      "midi": 58,
      "hit": false,
      "t": 805500,
      "d": 300,
      "v": 127
    },
    {
      "midi": 66,
      "hit": false,
      "t": 805800,
      "d": 600,
      "v": 127
    },
    {
      "midi": 78,
      "hit": false,
      "t": 805800,
      "d": 600,
      "v": 127
    },
    {
      "midi": 49,
      "hit": false,
      "t": 805800,
      "d": 300,
      "v": 127
    },
    {
      "midi": 58,
      "hit": false,
      "t": 806100,
      "d": 300,
      "v": 127
    },
    {
      "midi": 65,
      "hit": false,
      "t": 806400,
      "d": 600,
      "v": 127
    },
    {
      "midi": 77,
      "hit": false,
      "t": 806400,
      "d": 600,
      "v": 127
    },
    {
      "midi": 37,
      "hit": false,
      "t": 806400,
      "d": 300,
      "v": 127
    },
    {
      "midi": 59,
      "hit": false,
      "t": 806700,
      "d": 300,
      "v": 127
    },
    {
      "midi": 73,
      "hit": false,
      "t": 807000,
      "d": 600,
      "v": 127
    },
    {
      "midi": 85,
      "hit": false,
      "t": 807000,
      "d": 600,
      "v": 127
    },
    {
      "midi": 49,
      "hit": false,
      "t": 807000,
      "d": 300,
      "v": 127
    },
    {
      "midi": 53,
      "hit": false,
      "t": 807000,
      "d": 300,
      "v": 127
    },
    {
      "midi": 59,
      "hit": false,
      "t": 807300,
      "d": 300,
      "v": 127
    },
    {
      "midi": 71,
      "hit": false,
      "t": 807600,
      "d": 600,
      "v": 127
    },
    {
      "midi": 83,
      "hit": false,
      "t": 807600,
      "d": 600,
      "v": 127
    },
    {
      "midi": 50,
      "hit": false,
      "t": 807600,
      "d": 300,
      "v": 127
    },
    {
      "midi": 53,
      "hit": false,
      "t": 807600,
      "d": 300,
      "v": 127
    },
    {
      "midi": 59,
      "hit": false,
      "t": 807900,
      "d": 300,
      "v": 127
    },
    {
      "midi": 68,
      "hit": false,
      "t": 808200,
      "d": 600,
      "v": 127
    },
    {
      "midi": 80,
      "hit": false,
      "t": 808200,
      "d": 600,
      "v": 127
    },
    {
      "midi": 49,
      "hit": false,
      "t": 808200,
      "d": 300,
      "v": 127
    },
    {
      "midi": 53,
      "hit": false,
      "t": 808200,
      "d": 300,
      "v": 127
    },
    {
      "midi": 59,
      "hit": false,
      "t": 808500,
      "d": 300,
      "v": 127
    },
    {
      "midi": 66,
      "hit": false,
      "t": 808800,
      "d": 1800,
      "v": 127
    },
    {
      "midi": 78,
      "hit": false,
      "t": 808800,
      "d": 1800,
      "v": 127
    },
    {
      "midi": 30,
      "hit": false,
      "t": 808800,
      "d": 300,
      "v": 127
    },
    {
      "midi": 46,
      "hit": false,
      "t": 809100,
      "d": 300,
      "v": 127
    },
    {
      "midi": 37,
      "hit": false,
      "t": 809400,
      "d": 300,
      "v": 127
    },
    {
      "midi": 46,
      "hit": false,
      "t": 809700,
      "d": 300,
      "v": 127
    },
    {
      "midi": 42,
      "hit": false,
      "t": 810000,
      "d": 300,
      "v": 127
    },
    {
      "midi": 46,
      "hit": false,
      "t": 810300,
      "d": 300,
      "v": 127
    },
    {
      "midi": 66,
      "hit": false,
      "t": 810600,
      "d": 600,
      "v": 127
    },
    {
      "midi": 37,
      "hit": false,
      "t": 810600,
      "d": 300,
      "v": 127
    },
    {
      "midi": 46,
      "hit": false,
      "t": 810900,
      "d": 300,
      "v": 127
    },
    {
      "midi": 65,
      "hit": false,
      "t": 811200,
      "d": 600,
      "v": 127
    },
    {
      "midi": 34,
      "hit": false,
      "t": 811200,
      "d": 300,
      "v": 127
    },
    {
      "midi": 59,
      "hit": false,
      "t": 811500,
      "d": 300,
      "v": 127
    },
    {
      "midi": 73,
      "hit": false,
      "t": 811800,
      "d": 600,
      "v": 127
    },
    {
      "midi": 49,
      "hit": false,
      "t": 811800,
      "d": 300,
      "v": 127
    },
    {
      "midi": 53,
      "hit": false,
      "t": 811800,
      "d": 300,
      "v": 127
    },
    {
      "midi": 59,
      "hit": false,
      "t": 812100,
      "d": 300,
      "v": 127
    },
    {
      "midi": 71,
      "hit": false,
      "t": 812400,
      "d": 600,
      "v": 127
    },
    {
      "midi": 50,
      "hit": false,
      "t": 812400,
      "d": 300,
      "v": 127
    },
    {
      "midi": 53,
      "hit": false,
      "t": 812400,
      "d": 300,
      "v": 127
    },
    {
      "midi": 59,
      "hit": false,
      "t": 812700,
      "d": 300,
      "v": 127
    },
    {
      "midi": 68,
      "hit": false,
      "t": 813000,
      "d": 600,
      "v": 127
    },
    {
      "midi": 49,
      "hit": false,
      "t": 813000,
      "d": 300,
      "v": 127
    },
    {
      "midi": 53,
      "hit": false,
      "t": 813000,
      "d": 300,
      "v": 127
    },
    {
      "midi": 59,
      "hit": false,
      "t": 813300,
      "d": 300,
      "v": 127
    },
    {
      "midi": 66,
      "hit": false,
      "t": 813600,
      "d": 2400,
      "v": 127
    },
    {
      "midi": 42,
      "hit": false,
      "t": 813600,
      "d": 300,
      "v": 127
    },
    {
      "midi": 58,
      "hit": false,
      "t": 813900,
      "d": 300,
      "v": 127
    },
    {
      "midi": 49,
      "hit": false,
      "t": 814200,
      "d": 300,
      "v": 127
    },
    {
      "midi": 58,
      "hit": false,
      "t": 814500,
      "d": 300,
      "v": 127
    },
    {
      "midi": 54,
      "hit": false,
      "t": 814800,
      "d": 300,
      "v": 127
    },
    {
      "midi": 58,
      "hit": false,
      "t": 815100,
      "d": 300,
      "v": 127
    },
    {
      "midi": 49,
      "hit": false,
      "t": 815400,
      "d": 300,
      "v": 127
    },
    {
      "midi": 58,
      "hit": false,
      "t": 815700,
      "d": 300,
      "v": 127
    },
    {
      "midi": 66,
      "hit": false,
      "t": 816000,
      "d": 1200,
      "v": 127
    },
    {
      "midi": 42,
      "hit": false,
      "t": 816000,
      "d": 300,
      "v": 127
    },
    {
      "midi": 58,
      "hit": false,
      "t": 816300,
      "d": 300,
      "v": 127
    },
    {
      "midi": 49,
      "hit": false,
      "t": 816600,
      "d": 300,
      "v": 127
    },
    {
      "midi": 58,
      "hit": false,
      "t": 816900,
      "d": 300,
      "v": 127
    },
    {
      "midi": 66,
      "hit": false,
      "t": 817200,
      "d": 1800,
      "v": 127
    },
    {
      "midi": 54,
      "hit": false,
      "t": 817200,
      "d": 300,
      "v": 127
    },
    {
      "midi": 58,
      "hit": false,
      "t": 817500,
      "d": 300,
      "v": 127
    },
    {
      "midi": 49,
      "hit": false,
      "t": 817800,
      "d": 300,
      "v": 127
    },
    {
      "midi": 58,
      "hit": false,
      "t": 818100,
      "d": 300,
      "v": 127
    },
    {
      "midi": 42,
      "hit": false,
      "t": 818400,
      "d": 300,
      "v": 127
    },
    {
      "midi": 58,
      "hit": false,
      "t": 818700,
      "d": 300,
      "v": 127
    },
    {
      "midi": 66,
      "hit": false,
      "t": 819000,
      "d": 600,
      "v": 127
    },
    {
      "midi": 49,
      "hit": false,
      "t": 819000,
      "d": 300,
      "v": 127
    },
    {
      "midi": 58,
      "hit": false,
      "t": 819300,
      "d": 300,
      "v": 127
    },
    {
      "midi": 65,
      "hit": false,
      "t": 819600,
      "d": 600,
      "v": 127
    },
    {
      "midi": 54,
      "hit": false,
      "t": 819600,
      "d": 300,
      "v": 127
    },
    {
      "midi": 58,
      "hit": false,
      "t": 819900,
      "d": 300,
      "v": 127
    },
    {
      "midi": 64,
      "hit": false,
      "t": 820200,
      "d": 600,
      "v": 127
    },
    {
      "midi": 49,
      "hit": false,
      "t": 820200,
      "d": 300,
      "v": 127
    },
    {
      "midi": 58,
      "hit": false,
      "t": 820500,
      "d": 300,
      "v": 127
    },
    {
      "midi": 65,
      "hit": false,
      "t": 820800,
      "d": 3600,
      "v": 127
    },
    {
      "midi": 41,
      "hit": false,
      "t": 820800,
      "d": 300,
      "v": 127
    },
    {
      "midi": 58,
      "hit": false,
      "t": 821100,
      "d": 300,
      "v": 127
    },
    {
      "midi": 50,
      "hit": false,
      "t": 821400,
      "d": 300,
      "v": 127
    },
    {
      "midi": 58,
      "hit": false,
      "t": 821700,
      "d": 300,
      "v": 127
    },
    {
      "midi": 53,
      "hit": false,
      "t": 822000,
      "d": 300,
      "v": 127
    },
    {
      "midi": 58,
      "hit": false,
      "t": 822300,
      "d": 300,
      "v": 127
    },
    {
      "midi": 50,
      "hit": false,
      "t": 822600,
      "d": 300,
      "v": 127
    },
    {
      "midi": 58,
      "hit": false,
      "t": 822900,
      "d": 300,
      "v": 127
    },
    {
      "midi": 41,
      "hit": false,
      "t": 823200,
      "d": 300,
      "v": 127
    },
    {
      "midi": 58,
      "hit": false,
      "t": 823500,
      "d": 300,
      "v": 127
    },
    {
      "midi": 50,
      "hit": false,
      "t": 823800,
      "d": 300,
      "v": 127
    },
    {
      "midi": 58,
      "hit": false,
      "t": 824100,
      "d": 300,
      "v": 127
    },
    {
      "midi": 70,
      "hit": false,
      "t": 824400,
      "d": 1200,
      "v": 127
    },
    {
      "midi": 53,
      "hit": false,
      "t": 824400,
      "d": 300,
      "v": 127
    },
    {
      "midi": 58,
      "hit": false,
      "t": 824700,
      "d": 300,
      "v": 127
    },
    {
      "midi": 50,
      "hit": false,
      "t": 825000,
      "d": 300,
      "v": 127
    },
    {
      "midi": 58,
      "hit": false,
      "t": 825300,
      "d": 300,
      "v": 127
    },
    {
      "midi": 69,
      "hit": false,
      "t": 825600,
      "d": 1200,
      "v": 127
    },
    {
      "midi": 41,
      "hit": false,
      "t": 825600,
      "d": 300,
      "v": 127
    },
    {
      "midi": 57,
      "hit": false,
      "t": 825900,
      "d": 300,
      "v": 127
    },
    {
      "midi": 51,
      "hit": false,
      "t": 826200,
      "d": 300,
      "v": 127
    },
    {
      "midi": 57,
      "hit": false,
      "t": 826500,
      "d": 300,
      "v": 127
    },
    {
      "midi": 77,
      "hit": false,
      "t": 826800,
      "d": 1200,
      "v": 127
    },
    {
      "midi": 53,
      "hit": false,
      "t": 826800,
      "d": 300,
      "v": 127
    },
    {
      "midi": 57,
      "hit": false,
      "t": 827100,
      "d": 300,
      "v": 127
    },
    {
      "midi": 50,
      "hit": false,
      "t": 827400,
      "d": 300,
      "v": 127
    },
    {
      "midi": 57,
      "hit": false,
      "t": 827700,
      "d": 300,
      "v": 127
    },
    {
      "midi": 75,
      "hit": false,
      "t": 828000,
      "d": 1200,
      "v": 127
    },
    {
      "midi": 41,
      "hit": false,
      "t": 828000,
      "d": 300,
      "v": 127
    },
    {
      "midi": 57,
      "hit": false,
      "t": 828300,
      "d": 300,
      "v": 127
    },
    {
      "midi": 51,
      "hit": false,
      "t": 828600,
      "d": 300,
      "v": 127
    },
    {
      "midi": 57,
      "hit": false,
      "t": 828900,
      "d": 300,
      "v": 127
    },
    {
      "midi": 72,
      "hit": false,
      "t": 829200,
      "d": 900,
      "v": 127
    },
    {
      "midi": 53,
      "hit": false,
      "t": 829200,
      "d": 300,
      "v": 127
    },
    {
      "midi": 57,
      "hit": false,
      "t": 829500,
      "d": 300,
      "v": 127
    },
    {
      "midi": 51,
      "hit": false,
      "t": 829800,
      "d": 600,
      "v": 127
    },
    {
      "midi": 53,
      "hit": false,
      "t": 829800,
      "d": 600,
      "v": 127
    },
    {
      "midi": 89,
      "hit": false,
      "t": 830100,
      "d": 300,
      "v": 127
    },
    {
      "midi": 88,
      "hit": false,
      "t": 830400,
      "d": 300,
      "v": 127
    },
    {
      "midi": 46,
      "hit": false,
      "t": 830400,
      "d": 600,
      "v": 127
    },
    {
      "midi": 89,
      "hit": false,
      "t": 830700,
      "d": 300,
      "v": 127
    },
    {
      "midi": 91,
      "hit": false,
      "t": 830700,
      "d": 300,
      "v": 127
    },
    {
      "midi": 87,
      "hit": false,
      "t": 831000,
      "d": 300,
      "v": 127
    },
    {
      "midi": 53,
      "hit": false,
      "t": 831000,
      "d": 1200,
      "v": 127
    },
    {
      "midi": 58,
      "hit": false,
      "t": 831000,
      "d": 1200,
      "v": 127
    },
    {
      "midi": 62,
      "hit": false,
      "t": 831000,
      "d": 1200,
      "v": 127
    },
    {
      "midi": 84,
      "hit": false,
      "t": 831300,
      "d": 300,
      "v": 127
    },
    {
      "midi": 86,
      "hit": false,
      "t": 831300,
      "d": 300,
      "v": 127
    },
    {
      "midi": 82,
      "hit": false,
      "t": 831600,
      "d": 300,
      "v": 127
    },
    {
      "midi": 79,
      "hit": false,
      "t": 831900,
      "d": 300,
      "v": 127
    },
    {
      "midi": 81,
      "hit": false,
      "t": 831900,
      "d": 300,
      "v": 127
    },
    {
      "midi": 77,
      "hit": false,
      "t": 832200,
      "d": 300,
      "v": 127
    },
    {
      "midi": 53,
      "hit": false,
      "t": 832200,
      "d": 600,
      "v": 127
    },
    {
      "midi": 58,
      "hit": false,
      "t": 832200,
      "d": 600,
      "v": 127
    },
    {
      "midi": 62,
      "hit": false,
      "t": 832200,
      "d": 600,
      "v": 127
    },
    {
      "midi": 74,
      "hit": false,
      "t": 832500,
      "d": 300,
      "v": 127
    },
    {
      "midi": 75,
      "hit": false,
      "t": 832500,
      "d": 300,
      "v": 127
    },
    {
      "midi": 72,
      "hit": false,
      "t": 832800,
      "d": 1200,
      "v": 127
    },
    {
      "midi": 50,
      "hit": false,
      "t": 832800,
      "d": 600,
      "v": 127
    },
    {
      "midi": 53,
      "hit": false,
      "t": 833400,
      "d": 1200,
      "v": 127
    },
    {
      "midi": 58,
      "hit": false,
      "t": 833400,
      "d": 1200,
      "v": 127
    },
    {
      "midi": 65,
      "hit": false,
      "t": 833400,
      "d": 1200,
      "v": 127
    },
    {
      "midi": 70,
      "hit": false,
      "t": 834000,
      "d": 900,
      "v": 127
    },
    {
      "midi": 53,
      "hit": false,
      "t": 834600,
      "d": 600,
      "v": 127
    },
    {
      "midi": 58,
      "hit": false,
      "t": 834600,
      "d": 600,
      "v": 127
    },
    {
      "midi": 65,
      "hit": false,
      "t": 834600,
      "d": 600,
      "v": 127
    },
    {
      "midi": 70,
      "hit": false,
      "t": 834900,
      "d": 300,
      "v": 127
    },
    {
      "midi": 69,
      "hit": false,
      "t": 835200,
      "d": 300,
      "v": 127
    },
    {
      "midi": 48,
      "hit": false,
      "t": 835200,
      "d": 600,
      "v": 127
    },
    {
      "midi": 70,
      "hit": false,
      "t": 835500,
      "d": 300,
      "v": 127
    },
    {
      "midi": 72,
      "hit": false,
      "t": 835500,
      "d": 300,
      "v": 127
    },
    {
      "midi": 74,
      "hit": false,
      "t": 835800,
      "d": 300,
      "v": 127
    },
    {
      "midi": 53,
      "hit": false,
      "t": 835800,
      "d": 1200,
      "v": 127
    },
    {
      "midi": 57,
      "hit": false,
      "t": 835800,
      "d": 1200,
      "v": 127
    },
    {
      "midi": 63,
      "hit": false,
      "t": 835800,
      "d": 1200,
      "v": 127
    },
    {
      "midi": 75,
      "hit": false,
      "t": 836100,
      "d": 300,
      "v": 127
    },
    {
      "midi": 77,
      "hit": false,
      "t": 836100,
      "d": 300,
      "v": 127
    },
    {
      "midi": 79,
      "hit": false,
      "t": 836400,
      "d": 300,
      "v": 127
    },
    {
      "midi": 81,
      "hit": false,
      "t": 836700,
      "d": 300,
      "v": 127
    },
    {
      "midi": 82,
      "hit": false,
      "t": 836700,
      "d": 300,
      "v": 127
    },
    {
      "midi": 83,
      "hit": false,
      "t": 837000,
      "d": 300,
      "v": 127
    },
    {
      "midi": 53,
      "hit": false,
      "t": 837000,
      "d": 600,
      "v": 127
    },
    {
      "midi": 57,
      "hit": false,
      "t": 837000,
      "d": 600,
      "v": 127
    },
    {
      "midi": 63,
      "hit": false,
      "t": 837000,
      "d": 600,
      "v": 127
    },
    {
      "midi": 84,
      "hit": false,
      "t": 837300,
      "d": 300,
      "v": 127
    },
    {
      "midi": 86,
      "hit": false,
      "t": 837300,
      "d": 300,
      "v": 127
    },
    {
      "midi": 89,
      "hit": false,
      "t": 837600,
      "d": 1200,
      "v": 127
    },
    {
      "midi": 41,
      "hit": false,
      "t": 837600,
      "d": 600,
      "v": 127
    },
    {
      "midi": 53,
      "hit": false,
      "t": 838200,
      "d": 1200,
      "v": 127
    },
    {
      "midi": 57,
      "hit": false,
      "t": 838200,
      "d": 1200,
      "v": 127
    },
    {
      "midi": 60,
      "hit": false,
      "t": 838200,
      "d": 1200,
      "v": 127
    },
    {
      "midi": 87,
      "hit": false,
      "t": 838800,
      "d": 900,
      "v": 127
    },
    {
      "midi": 53,
      "hit": false,
      "t": 839400,
      "d": 600,
      "v": 127
    },
    {
      "midi": 57,
      "hit": false,
      "t": 839400,
      "d": 600,
      "v": 127
    },
    {
      "midi": 60,
      "hit": false,
      "t": 839400,
      "d": 600,
      "v": 127
    },
    {
      "midi": 87,
      "hit": false,
      "t": 839700,
      "d": 300,
      "v": 127
    },
    {
      "midi": 86,
      "hit": false,
      "t": 840000,
      "d": 300,
      "v": 127
    },
    {
      "midi": 46,
      "hit": false,
      "t": 840000,
      "d": 600,
      "v": 127
    },
    {
      "midi": 96,
      "hit": false,
      "t": 840300,
      "d": 300,
      "v": 127
    },
    {
      "midi": 98,
      "hit": false,
      "t": 840300,
      "d": 300,
      "v": 127
    },
    {
      "midi": 94,
      "hit": false,
      "t": 840600,
      "d": 300,
      "v": 127
    },
    {
      "midi": 53,
      "hit": false,
      "t": 840600,
      "d": 1200,
      "v": 127
    },
    {
      "midi": 58,
      "hit": false,
      "t": 840600,
      "d": 1200,
      "v": 127
    },
    {
      "midi": 62,
      "hit": false,
      "t": 840600,
      "d": 1200,
      "v": 127
    },
    {
      "midi": 91,
      "hit": false,
      "t": 840900,
      "d": 300,
      "v": 127
    },
    {
      "midi": 93,
      "hit": false,
      "t": 840900,
      "d": 300,
      "v": 127
    },
    {
      "midi": 89,
      "hit": false,
      "t": 841200,
      "d": 300,
      "v": 127
    },
    {
      "midi": 86,
      "hit": false,
      "t": 841500,
      "d": 300,
      "v": 127
    },
    {
      "midi": 87,
      "hit": false,
      "t": 841500,
      "d": 300,
      "v": 127
    },
    {
      "midi": 84,
      "hit": false,
      "t": 841800,
      "d": 300,
      "v": 127
    },
    {
      "midi": 53,
      "hit": false,
      "t": 841800,
      "d": 600,
      "v": 127
    },
    {
      "midi": 58,
      "hit": false,
      "t": 841800,
      "d": 600,
      "v": 127
    },
    {
      "midi": 62,
      "hit": false,
      "t": 841800,
      "d": 600,
      "v": 127
    },
    {
      "midi": 81,
      "hit": false,
      "t": 842100,
      "d": 300,
      "v": 127
    },
    {
      "midi": 82,
      "hit": false,
      "t": 842100,
      "d": 300,
      "v": 127
    },
    {
      "midi": 79,
      "hit": false,
      "t": 842400,
      "d": 300,
      "v": 127
    },
    {
      "midi": 39,
      "hit": false,
      "t": 842400,
      "d": 600,
      "v": 127
    },
    {
      "midi": 89,
      "hit": false,
      "t": 842700,
      "d": 300,
      "v": 127
    },
    {
      "midi": 91,
      "hit": false,
      "t": 842700,
      "d": 300,
      "v": 127
    },
    {
      "midi": 87,
      "hit": false,
      "t": 843000,
      "d": 300,
      "v": 127
    },
    {
      "midi": 51,
      "hit": false,
      "t": 843000,
      "d": 1200,
      "v": 127
    },
    {
      "midi": 55,
      "hit": false,
      "t": 843000,
      "d": 1200,
      "v": 127
    },
    {
      "midi": 58,
      "hit": false,
      "t": 843000,
      "d": 1200,
      "v": 127
    },
    {
      "midi": 60,
      "hit": false,
      "t": 843000,
      "d": 1200,
      "v": 127
    },
    {
      "midi": 84,
      "hit": false,
      "t": 843300,
      "d": 300,
      "v": 127
    },
    {
      "midi": 86,
      "hit": false,
      "t": 843300,
      "d": 300,
      "v": 127
    },
    {
      "midi": 82,
      "hit": false,
      "t": 843600,
      "d": 300,
      "v": 127
    },
    {
      "midi": 79,
      "hit": false,
      "t": 843900,
      "d": 300,
      "v": 127
    },
    {
      "midi": 81,
      "hit": false,
      "t": 843900,
      "d": 300,
      "v": 127
    },
    {
      "midi": 77,
      "hit": false,
      "t": 844200,
      "d": 300,
      "v": 127
    },
    {
      "midi": 51,
      "hit": false,
      "t": 844200,
      "d": 600,
      "v": 127
    },
    {
      "midi": 55,
      "hit": false,
      "t": 844200,
      "d": 600,
      "v": 127
    },
    {
      "midi": 58,
      "hit": false,
      "t": 844200,
      "d": 600,
      "v": 127
    },
    {
      "midi": 60,
      "hit": false,
      "t": 844200,
      "d": 600,
      "v": 127
    },
    {
      "midi": 74,
      "hit": false,
      "t": 844500,
      "d": 300,
      "v": 127
    },
    {
      "midi": 75,
      "hit": false,
      "t": 844500,
      "d": 300,
      "v": 127
    },
    {
      "midi": 72,
      "hit": false,
      "t": 844800,
      "d": 300,
      "v": 127
    },
    {
      "midi": 40,
      "hit": false,
      "t": 844800,
      "d": 600,
      "v": 127
    },
    {
      "midi": 76,
      "hit": false,
      "t": 845100,
      "d": 300,
      "v": 127
    },
    {
      "midi": 79,
      "hit": false,
      "t": 845100,
      "d": 300,
      "v": 127
    },
    {
      "midi": 82,
      "hit": false,
      "t": 845400,
      "d": 300,
      "v": 127
    },
    {
      "midi": 52,
      "hit": false,
      "t": 845400,
      "d": 1200,
      "v": 127
    },
    {
      "midi": 55,
      "hit": false,
      "t": 845400,
      "d": 1200,
      "v": 127
    },
    {
      "midi": 58,
      "hit": false,
      "t": 845400,
      "d": 1200,
      "v": 127
    },
    {
      "midi": 60,
      "hit": false,
      "t": 845400,
      "d": 1200,
      "v": 127
    },
    {
      "midi": 79,
      "hit": false,
      "t": 845700,
      "d": 300,
      "v": 127
    },
    {
      "midi": 82,
      "hit": false,
      "t": 845700,
      "d": 300,
      "v": 127
    },
    {
      "midi": 84,
      "hit": false,
      "t": 846000,
      "d": 300,
      "v": 127
    },
    {
      "midi": 88,
      "hit": false,
      "t": 846300,
      "d": 300,
      "v": 127
    },
    {
      "midi": 91,
      "hit": false,
      "t": 846300,
      "d": 300,
      "v": 127
    },
    {
      "midi": 94,
      "hit": false,
      "t": 846600,
      "d": 300,
      "v": 127
    },
    {
      "midi": 48,
      "hit": false,
      "t": 846600,
      "d": 600,
      "v": 127
    },
    {
      "midi": 88,
      "hit": false,
      "t": 846900,
      "d": 300,
      "v": 127
    },
    {
      "midi": 91,
      "hit": false,
      "t": 846900,
      "d": 300,
      "v": 127
    },
    {
      "midi": 89,
      "hit": false,
      "t": 847200,
      "d": 600,
      "v": 127
    },
    {
      "midi": 41,
      "hit": false,
      "t": 847200,
      "d": 600,
      "v": 127
    },
    {
      "midi": 89,
      "hit": false,
      "t": 847800,
      "d": 300,
      "v": 127
    },
    {
      "midi": 60,
      "hit": false,
      "t": 847800,
      "d": 600,
      "v": 127
    },
    {
      "midi": 89,
      "hit": false,
      "t": 848100,
      "d": 300,
      "v": 127
    },
    {
      "midi": 91,
      "hit": false,
      "t": 848100,
      "d": 300,
      "v": 127
    },
    {
      "midi": 88,
      "hit": false,
      "t": 848400,
      "d": 300,
      "v": 127
    },
    {
      "midi": 58,
      "hit": false,
      "t": 848400,
      "d": 600,
      "v": 127
    },
    {
      "midi": 62,
      "hit": false,
      "t": 848400,
      "d": 600,
      "v": 127
    },
    {
      "midi": 89,
      "hit": false,
      "t": 848700,
      "d": 300,
      "v": 127
    },
    {
      "midi": 91,
      "hit": false,
      "t": 848700,
      "d": 300,
      "v": 127
    },
    {
      "midi": 88,
      "hit": false,
      "t": 849000,
      "d": 300,
      "v": 127
    },
    {
      "midi": 57,
      "hit": false,
      "t": 849000,
      "d": 600,
      "v": 127
    },
    {
      "midi": 63,
      "hit": false,
      "t": 849000,
      "d": 600,
      "v": 127
    },
    {
      "midi": 89,
      "hit": false,
      "t": 849300,
      "d": 300,
      "v": 127
    },
    {
      "midi": 91,
      "hit": false,
      "t": 849300,
      "d": 300,
      "v": 127
    },
    {
      "midi": 88,
      "hit": false,
      "t": 849600,
      "d": 300,
      "v": 127
    },
    {
      "midi": 46,
      "hit": false,
      "t": 849600,
      "d": 600,
      "v": 127
    },
    {
      "midi": 89,
      "hit": false,
      "t": 849900,
      "d": 300,
      "v": 127
    },
    {
      "midi": 91,
      "hit": false,
      "t": 849900,
      "d": 300,
      "v": 127
    },
    {
      "midi": 87,
      "hit": false,
      "t": 850200,
      "d": 300,
      "v": 127
    },
    {
      "midi": 53,
      "hit": false,
      "t": 850200,
      "d": 1200,
      "v": 127
    },
    {
      "midi": 58,
      "hit": false,
      "t": 850200,
      "d": 1200,
      "v": 127
    },
    {
      "midi": 62,
      "hit": false,
      "t": 850200,
      "d": 1200,
      "v": 127
    },
    {
      "midi": 84,
      "hit": false,
      "t": 850500,
      "d": 300,
      "v": 127
    },
    {
      "midi": 86,
      "hit": false,
      "t": 850500,
      "d": 300,
      "v": 127
    },
    {
      "midi": 82,
      "hit": false,
      "t": 850800,
      "d": 300,
      "v": 127
    },
    {
      "midi": 79,
      "hit": false,
      "t": 851100,
      "d": 300,
      "v": 127
    },
    {
      "midi": 81,
      "hit": false,
      "t": 851100,
      "d": 300,
      "v": 127
    },
    {
      "midi": 77,
      "hit": false,
      "t": 851400,
      "d": 300,
      "v": 127
    },
    {
      "midi": 53,
      "hit": false,
      "t": 851400,
      "d": 600,
      "v": 127
    },
    {
      "midi": 58,
      "hit": false,
      "t": 851400,
      "d": 600,
      "v": 127
    },
    {
      "midi": 62,
      "hit": false,
      "t": 851400,
      "d": 600,
      "v": 127
    },
    {
      "midi": 74,
      "hit": false,
      "t": 851700,
      "d": 300,
      "v": 127
    },
    {
      "midi": 75,
      "hit": false,
      "t": 851700,
      "d": 300,
      "v": 127
    },
    {
      "midi": 72,
      "hit": false,
      "t": 852000,
      "d": 1200,
      "v": 127
    },
    {
      "midi": 50,
      "hit": false,
      "t": 852000,
      "d": 600,
      "v": 127
    },
    {
      "midi": 53,
      "hit": false,
      "t": 852600,
      "d": 1200,
      "v": 127
    },
    {
      "midi": 58,
      "hit": false,
      "t": 852600,
      "d": 1200,
      "v": 127
    },
    {
      "midi": 65,
      "hit": false,
      "t": 852600,
      "d": 1200,
      "v": 127
    },
    {
      "midi": 70,
      "hit": false,
      "t": 853200,
      "d": 900,
      "v": 127
    },
    {
      "midi": 53,
      "hit": false,
      "t": 853800,
      "d": 600,
      "v": 127
    },
    {
      "midi": 58,
      "hit": false,
      "t": 853800,
      "d": 600,
      "v": 127
    },
    {
      "midi": 65,
      "hit": false,
      "t": 853800,
      "d": 600,
      "v": 127
    },
    {
      "midi": 70,
      "hit": false,
      "t": 854100,
      "d": 300,
      "v": 127
    },
    {
      "midi": 69,
      "hit": false,
      "t": 854400,
      "d": 300,
      "v": 127
    },
    {
      "midi": 48,
      "hit": false,
      "t": 854400,
      "d": 600,
      "v": 127
    },
    {
      "midi": 70,
      "hit": false,
      "t": 854700,
      "d": 300,
      "v": 127
    },
    {
      "midi": 72,
      "hit": false,
      "t": 854700,
      "d": 300,
      "v": 127
    },
    {
      "midi": 74,
      "hit": false,
      "t": 855000,
      "d": 300,
      "v": 127
    },
    {
      "midi": 53,
      "hit": false,
      "t": 855000,
      "d": 1200,
      "v": 127
    },
    {
      "midi": 57,
      "hit": false,
      "t": 855000,
      "d": 1200,
      "v": 127
    },
    {
      "midi": 63,
      "hit": false,
      "t": 855000,
      "d": 1200,
      "v": 127
    },
    {
      "midi": 75,
      "hit": false,
      "t": 855300,
      "d": 300,
      "v": 127
    },
    {
      "midi": 77,
      "hit": false,
      "t": 855300,
      "d": 300,
      "v": 127
    },
    {
      "midi": 79,
      "hit": false,
      "t": 855600,
      "d": 300,
      "v": 127
    },
    {
      "midi": 81,
      "hit": false,
      "t": 855900,
      "d": 300,
      "v": 127
    },
    {
      "midi": 82,
      "hit": false,
      "t": 855900,
      "d": 300,
      "v": 127
    },
    {
      "midi": 83,
      "hit": false,
      "t": 856200,
      "d": 300,
      "v": 127
    },
    {
      "midi": 53,
      "hit": false,
      "t": 856200,
      "d": 600,
      "v": 127
    },
    {
      "midi": 57,
      "hit": false,
      "t": 856200,
      "d": 600,
      "v": 127
    },
    {
      "midi": 63,
      "hit": false,
      "t": 856200,
      "d": 600,
      "v": 127
    },
    {
      "midi": 84,
      "hit": false,
      "t": 856500,
      "d": 300,
      "v": 127
    },
    {
      "midi": 86,
      "hit": false,
      "t": 856500,
      "d": 300,
      "v": 127
    },
    {
      "midi": 89,
      "hit": false,
      "t": 856800,
      "d": 900,
      "v": 127
    },
    {
      "midi": 41,
      "hit": false,
      "t": 856800,
      "d": 600,
      "v": 127
    },
    {
      "midi": 53,
      "hit": false,
      "t": 857400,
      "d": 1200,
      "v": 127
    },
    {
      "midi": 57,
      "hit": false,
      "t": 857400,
      "d": 1200,
      "v": 127
    },
    {
      "midi": 60,
      "hit": false,
      "t": 857400,
      "d": 1200,
      "v": 127
    },
    {
      "midi": 88,
      "hit": false,
      "t": 857700,
      "d": 300,
      "v": 127
    },
    {
      "midi": 87,
      "hit": false,
      "t": 858000,
      "d": 900,
      "v": 127
    },
    {
      "midi": 53,
      "hit": false,
      "t": 858600,
      "d": 600,
      "v": 127
    },
    {
      "midi": 57,
      "hit": false,
      "t": 858600,
      "d": 600,
      "v": 127
    },
    {
      "midi": 60,
      "hit": false,
      "t": 858600,
      "d": 600,
      "v": 127
    },
    {
      "midi": 87,
      "hit": false,
      "t": 858900,
      "d": 300,
      "v": 127
    },
    {
      "midi": 86,
      "hit": false,
      "t": 859200,
      "d": 300,
      "v": 127
    },
    {
      "midi": 46,
      "hit": false,
      "t": 859200,
      "d": 600,
      "v": 127
    },
    {
      "midi": 96,
      "hit": false,
      "t": 859500,
      "d": 300,
      "v": 127
    },
    {
      "midi": 98,
      "hit": false,
      "t": 859500,
      "d": 300,
      "v": 127
    },
    {
      "midi": 94,
      "hit": false,
      "t": 859800,
      "d": 300,
      "v": 127
    },
    {
      "midi": 53,
      "hit": false,
      "t": 859800,
      "d": 1200,
      "v": 127
    },
    {
      "midi": 58,
      "hit": false,
      "t": 859800,
      "d": 1200,
      "v": 127
    },
    {
      "midi": 62,
      "hit": false,
      "t": 859800,
      "d": 1200,
      "v": 127
    },
    {
      "midi": 91,
      "hit": false,
      "t": 860100,
      "d": 300,
      "v": 127
    },
    {
      "midi": 93,
      "hit": false,
      "t": 860100,
      "d": 300,
      "v": 127
    },
    {
      "midi": 89,
      "hit": false,
      "t": 860400,
      "d": 300,
      "v": 127
    },
    {
      "midi": 86,
      "hit": false,
      "t": 860700,
      "d": 300,
      "v": 127
    },
    {
      "midi": 87,
      "hit": false,
      "t": 860700,
      "d": 300,
      "v": 127
    },
    {
      "midi": 84,
      "hit": false,
      "t": 861000,
      "d": 300,
      "v": 127
    },
    {
      "midi": 53,
      "hit": false,
      "t": 861000,
      "d": 600,
      "v": 127
    },
    {
      "midi": 58,
      "hit": false,
      "t": 861000,
      "d": 600,
      "v": 127
    },
    {
      "midi": 62,
      "hit": false,
      "t": 861000,
      "d": 600,
      "v": 127
    },
    {
      "midi": 81,
      "hit": false,
      "t": 861300,
      "d": 300,
      "v": 127
    },
    {
      "midi": 82,
      "hit": false,
      "t": 861300,
      "d": 300,
      "v": 127
    },
    {
      "midi": 79,
      "hit": false,
      "t": 861600,
      "d": 300,
      "v": 127
    },
    {
      "midi": 52,
      "hit": false,
      "t": 861600,
      "d": 600,
      "v": 127
    },
    {
      "midi": 91,
      "hit": false,
      "t": 861900,
      "d": 300,
      "v": 127
    },
    {
      "midi": 94,
      "hit": false,
      "t": 861900,
      "d": 300,
      "v": 127
    },
    {
      "midi": 88,
      "hit": false,
      "t": 862200,
      "d": 300,
      "v": 127
    },
    {
      "midi": 58,
      "hit": false,
      "t": 862200,
      "d": 1200,
      "v": 127
    },
    {
      "midi": 61,
      "hit": false,
      "t": 862200,
      "d": 1200,
      "v": 127
    },
    {
      "midi": 67,
      "hit": false,
      "t": 862200,
      "d": 1200,
      "v": 127
    },
    {
      "midi": 82,
      "hit": false,
      "t": 862500,
      "d": 300,
      "v": 127
    },
    {
      "midi": 85,
      "hit": false,
      "t": 862500,
      "d": 300,
      "v": 127
    },
    {
      "midi": 79,
      "hit": false,
      "t": 862800,
      "d": 300,
      "v": 127
    },
    {
      "midi": 73,
      "hit": false,
      "t": 863100,
      "d": 300,
      "v": 127
    },
    {
      "midi": 76,
      "hit": false,
      "t": 863100,
      "d": 300,
      "v": 127
    },
    {
      "midi": 70,
      "hit": false,
      "t": 863400,
      "d": 300,
      "v": 127
    },
    {
      "midi": 55,
      "hit": false,
      "t": 863400,
      "d": 600,
      "v": 127
    },
    {
      "midi": 58,
      "hit": false,
      "t": 863400,
      "d": 600,
      "v": 127
    },
    {
      "midi": 61,
      "hit": false,
      "t": 863400,
      "d": 600,
      "v": 127
    },
    {
      "midi": 64,
      "hit": false,
      "t": 863700,
      "d": 300,
      "v": 127
    },
    {
      "midi": 67,
      "hit": false,
      "t": 863700,
      "d": 300,
      "v": 127
    },
    {
      "midi": 65,
      "hit": false,
      "t": 864000,
      "d": 300,
      "v": 127
    },
    {
      "midi": 41,
      "hit": false,
      "t": 864000,
      "d": 600,
      "v": 127
    },
    {
      "midi": 64,
      "hit": false,
      "t": 864300,
      "d": 300,
      "v": 127
    },
    {
      "midi": 65,
      "hit": false,
      "t": 864300,
      "d": 300,
      "v": 127
    },
    {
      "midi": 67,
      "hit": false,
      "t": 864600,
      "d": 300,
      "v": 127
    },
    {
      "midi": 60,
      "hit": false,
      "t": 864600,
      "d": 600,
      "v": 127
    },
    {
      "midi": 69,
      "hit": false,
      "t": 864900,
      "d": 300,
      "v": 127
    },
    {
      "midi": 70,
      "hit": false,
      "t": 864900,
      "d": 300,
      "v": 127
    },
    {
      "midi": 72,
      "hit": false,
      "t": 865200,
      "d": 300,
      "v": 127
    },
    {
      "midi": 57,
      "hit": false,
      "t": 865200,
      "d": 600,
      "v": 127
    },
    {
      "midi": 74,
      "hit": false,
      "t": 865500,
      "d": 300,
      "v": 127
    },
    {
      "midi": 75,
      "hit": false,
      "t": 865500,
      "d": 300,
      "v": 127
    },
    {
      "midi": 77,
      "hit": false,
      "t": 865800,
      "d": 300,
      "v": 127
    },
    {
      "midi": 60,
      "hit": false,
      "t": 865800,
      "d": 600,
      "v": 127
    },
    {
      "midi": 63,
      "hit": false,
      "t": 865800,
      "d": 600,
      "v": 127
    },
    {
      "midi": 79,
      "hit": false,
      "t": 866100,
      "d": 300,
      "v": 127
    },
    {
      "midi": 81,
      "hit": false,
      "t": 866100,
      "d": 300,
      "v": 127
    },
    {
      "midi": 82,
      "hit": false,
      "t": 866400,
      "d": 300,
      "v": 127
    },
    {
      "midi": 46,
      "hit": false,
      "t": 866400,
      "d": 600,
      "v": 127
    },
    {
      "midi": 86,
      "hit": false,
      "t": 866700,
      "d": 300,
      "v": 127
    },
    {
      "midi": 89,
      "hit": false,
      "t": 866700,
      "d": 300,
      "v": 127
    },
    {
      "midi": 94,
      "hit": false,
      "t": 867000,
      "d": 300,
      "v": 127
    },
    {
      "midi": 58,
      "hit": false,
      "t": 867000,
      "d": 1800,
      "v": 127
    },
    {
      "midi": 62,
      "hit": false,
      "t": 867000,
      "d": 1800,
      "v": 127
    },
    {
      "midi": 96,
      "hit": false,
      "t": 867300,
      "d": 300,
      "v": 127
    },
    {
      "midi": 98,
      "hit": false,
      "t": 867300,
      "d": 300,
      "v": 127
    },
    {
      "midi": 94,
      "hit": false,
      "t": 867600,
      "d": 300,
      "v": 127
    },
    {
      "midi": 86,
      "hit": false,
      "t": 867900,
      "d": 300,
      "v": 127
    },
    {
      "midi": 89,
      "hit": false,
      "t": 867900,
      "d": 300,
      "v": 127
    },
    {
      "midi": 82,
      "hit": false,
      "t": 868200,
      "d": 300,
      "v": 127
    },
    {
      "midi": 86,
      "hit": false,
      "t": 868500,
      "d": 300,
      "v": 127
    },
    {
      "midi": 89,
      "hit": false,
      "t": 868500,
      "d": 300,
      "v": 127
    },
    {
      "midi": 88,
      "hit": false,
      "t": 868800,
      "d": 300,
      "v": 127
    },
    {
      "midi": 46,
      "hit": false,
      "t": 868800,
      "d": 600,
      "v": 127
    },
    {
      "midi": 89,
      "hit": false,
      "t": 869100,
      "d": 300,
      "v": 127
    },
    {
      "midi": 91,
      "hit": false,
      "t": 869100,
      "d": 300,
      "v": 127
    },
    {
      "midi": 87,
      "hit": false,
      "t": 869400,
      "d": 300,
      "v": 127
    },
    {
      "midi": 53,
      "hit": false,
      "t": 869400,
      "d": 1200,
      "v": 127
    },
    {
      "midi": 58,
      "hit": false,
      "t": 869400,
      "d": 1200,
      "v": 127
    },
    {
      "midi": 62,
      "hit": false,
      "t": 869400,
      "d": 1200,
      "v": 127
    },
    {
      "midi": 84,
      "hit": false,
      "t": 869700,
      "d": 300,
      "v": 127
    },
    {
      "midi": 86,
      "hit": false,
      "t": 869700,
      "d": 300,
      "v": 127
    },
    {
      "midi": 82,
      "hit": false,
      "t": 870000,
      "d": 300,
      "v": 127
    },
    {
      "midi": 79,
      "hit": false,
      "t": 870300,
      "d": 300,
      "v": 127
    },
    {
      "midi": 81,
      "hit": false,
      "t": 870300,
      "d": 300,
      "v": 127
    },
    {
      "midi": 77,
      "hit": false,
      "t": 870600,
      "d": 300,
      "v": 127
    },
    {
      "midi": 53,
      "hit": false,
      "t": 870600,
      "d": 600,
      "v": 127
    },
    {
      "midi": 58,
      "hit": false,
      "t": 870600,
      "d": 600,
      "v": 127
    },
    {
      "midi": 62,
      "hit": false,
      "t": 870600,
      "d": 600,
      "v": 127
    },
    {
      "midi": 74,
      "hit": false,
      "t": 870900,
      "d": 300,
      "v": 127
    },
    {
      "midi": 75,
      "hit": false,
      "t": 870900,
      "d": 300,
      "v": 127
    },
    {
      "midi": 72,
      "hit": false,
      "t": 871200,
      "d": 1200,
      "v": 127
    },
    {
      "midi": 50,
      "hit": false,
      "t": 871200,
      "d": 600,
      "v": 127
    },
    {
      "midi": 53,
      "hit": false,
      "t": 871800,
      "d": 1200,
      "v": 127
    },
    {
      "midi": 58,
      "hit": false,
      "t": 871800,
      "d": 1200,
      "v": 127
    },
    {
      "midi": 65,
      "hit": false,
      "t": 871800,
      "d": 1200,
      "v": 127
    },
    {
      "midi": 70,
      "hit": false,
      "t": 872400,
      "d": 900,
      "v": 127
    },
    {
      "midi": 53,
      "hit": false,
      "t": 873000,
      "d": 600,
      "v": 127
    },
    {
      "midi": 58,
      "hit": false,
      "t": 873000,
      "d": 600,
      "v": 127
    },
    {
      "midi": 65,
      "hit": false,
      "t": 873000,
      "d": 600,
      "v": 127
    },
    {
      "midi": 70,
      "hit": false,
      "t": 873300,
      "d": 300,
      "v": 127
    },
    {
      "midi": 69,
      "hit": false,
      "t": 873600,
      "d": 300,
      "v": 127
    },
    {
      "midi": 48,
      "hit": false,
      "t": 873600,
      "d": 600,
      "v": 127
    },
    {
      "midi": 70,
      "hit": false,
      "t": 873900,
      "d": 300,
      "v": 127
    },
    {
      "midi": 72,
      "hit": false,
      "t": 873900,
      "d": 300,
      "v": 127
    },
    {
      "midi": 74,
      "hit": false,
      "t": 874200,
      "d": 300,
      "v": 127
    },
    {
      "midi": 53,
      "hit": false,
      "t": 874200,
      "d": 1200,
      "v": 127
    },
    {
      "midi": 57,
      "hit": false,
      "t": 874200,
      "d": 1200,
      "v": 127
    },
    {
      "midi": 63,
      "hit": false,
      "t": 874200,
      "d": 1200,
      "v": 127
    },
    {
      "midi": 75,
      "hit": false,
      "t": 874500,
      "d": 300,
      "v": 127
    },
    {
      "midi": 77,
      "hit": false,
      "t": 874500,
      "d": 300,
      "v": 127
    },
    {
      "midi": 79,
      "hit": false,
      "t": 874800,
      "d": 300,
      "v": 127
    },
    {
      "midi": 81,
      "hit": false,
      "t": 875100,
      "d": 300,
      "v": 127
    },
    {
      "midi": 82,
      "hit": false,
      "t": 875100,
      "d": 300,
      "v": 127
    },
    {
      "midi": 83,
      "hit": false,
      "t": 875400,
      "d": 300,
      "v": 127
    },
    {
      "midi": 53,
      "hit": false,
      "t": 875400,
      "d": 600,
      "v": 127
    },
    {
      "midi": 57,
      "hit": false,
      "t": 875400,
      "d": 600,
      "v": 127
    },
    {
      "midi": 63,
      "hit": false,
      "t": 875400,
      "d": 600,
      "v": 127
    },
    {
      "midi": 84,
      "hit": false,
      "t": 875700,
      "d": 300,
      "v": 127
    },
    {
      "midi": 86,
      "hit": false,
      "t": 875700,
      "d": 300,
      "v": 127
    },
    {
      "midi": 89,
      "hit": false,
      "t": 876000,
      "d": 1200,
      "v": 127
    },
    {
      "midi": 41,
      "hit": false,
      "t": 876000,
      "d": 600,
      "v": 127
    },
    {
      "midi": 53,
      "hit": false,
      "t": 876600,
      "d": 1200,
      "v": 127
    },
    {
      "midi": 57,
      "hit": false,
      "t": 876600,
      "d": 1200,
      "v": 127
    },
    {
      "midi": 60,
      "hit": false,
      "t": 876600,
      "d": 1200,
      "v": 127
    },
    {
      "midi": 87,
      "hit": false,
      "t": 877200,
      "d": 900,
      "v": 127
    },
    {
      "midi": 53,
      "hit": false,
      "t": 877800,
      "d": 600,
      "v": 127
    },
    {
      "midi": 57,
      "hit": false,
      "t": 877800,
      "d": 600,
      "v": 127
    },
    {
      "midi": 60,
      "hit": false,
      "t": 877800,
      "d": 600,
      "v": 127
    },
    {
      "midi": 87,
      "hit": false,
      "t": 878100,
      "d": 300,
      "v": 127
    },
    {
      "midi": 86,
      "hit": false,
      "t": 878400,
      "d": 300,
      "v": 127
    },
    {
      "midi": 46,
      "hit": false,
      "t": 878400,
      "d": 600,
      "v": 127
    },
    {
      "midi": 96,
      "hit": false,
      "t": 878700,
      "d": 300,
      "v": 127
    },
    {
      "midi": 98,
      "hit": false,
      "t": 878700,
      "d": 300,
      "v": 127
    },
    {
      "midi": 94,
      "hit": false,
      "t": 879000,
      "d": 300,
      "v": 127
    },
    {
      "midi": 53,
      "hit": false,
      "t": 879000,
      "d": 1200,
      "v": 127
    },
    {
      "midi": 58,
      "hit": false,
      "t": 879000,
      "d": 1200,
      "v": 127
    },
    {
      "midi": 62,
      "hit": false,
      "t": 879000,
      "d": 1200,
      "v": 127
    },
    {
      "midi": 91,
      "hit": false,
      "t": 879300,
      "d": 300,
      "v": 127
    },
    {
      "midi": 93,
      "hit": false,
      "t": 879300,
      "d": 300,
      "v": 127
    },
    {
      "midi": 89,
      "hit": false,
      "t": 879600,
      "d": 300,
      "v": 127
    },
    {
      "midi": 86,
      "hit": false,
      "t": 879900,
      "d": 300,
      "v": 127
    },
    {
      "midi": 87,
      "hit": false,
      "t": 879900,
      "d": 300,
      "v": 127
    },
    {
      "midi": 84,
      "hit": false,
      "t": 880200,
      "d": 300,
      "v": 127
    },
    {
      "midi": 53,
      "hit": false,
      "t": 880200,
      "d": 600,
      "v": 127
    },
    {
      "midi": 58,
      "hit": false,
      "t": 880200,
      "d": 600,
      "v": 127
    },
    {
      "midi": 62,
      "hit": false,
      "t": 880200,
      "d": 600,
      "v": 127
    },
    {
      "midi": 81,
      "hit": false,
      "t": 880500,
      "d": 300,
      "v": 127
    },
    {
      "midi": 82,
      "hit": false,
      "t": 880500,
      "d": 300,
      "v": 127
    },
    {
      "midi": 79,
      "hit": false,
      "t": 880800,
      "d": 300,
      "v": 127
    },
    {
      "midi": 39,
      "hit": false,
      "t": 880800,
      "d": 600,
      "v": 127
    },
    {
      "midi": 89,
      "hit": false,
      "t": 881100,
      "d": 300,
      "v": 127
    },
    {
      "midi": 91,
      "hit": false,
      "t": 881100,
      "d": 300,
      "v": 127
    },
    {
      "midi": 87,
      "hit": false,
      "t": 881400,
      "d": 300,
      "v": 127
    },
    {
      "midi": 51,
      "hit": false,
      "t": 881400,
      "d": 1200,
      "v": 127
    },
    {
      "midi": 55,
      "hit": false,
      "t": 881400,
      "d": 1200,
      "v": 127
    },
    {
      "midi": 58,
      "hit": false,
      "t": 881400,
      "d": 1200,
      "v": 127
    },
    {
      "midi": 60,
      "hit": false,
      "t": 881400,
      "d": 1200,
      "v": 127
    },
    {
      "midi": 84,
      "hit": false,
      "t": 881700,
      "d": 300,
      "v": 127
    },
    {
      "midi": 86,
      "hit": false,
      "t": 881700,
      "d": 300,
      "v": 127
    },
    {
      "midi": 82,
      "hit": false,
      "t": 882000,
      "d": 300,
      "v": 127
    },
    {
      "midi": 79,
      "hit": false,
      "t": 882300,
      "d": 300,
      "v": 127
    },
    {
      "midi": 81,
      "hit": false,
      "t": 882300,
      "d": 300,
      "v": 127
    },
    {
      "midi": 77,
      "hit": false,
      "t": 882600,
      "d": 300,
      "v": 127
    },
    {
      "midi": 51,
      "hit": false,
      "t": 882600,
      "d": 600,
      "v": 127
    },
    {
      "midi": 55,
      "hit": false,
      "t": 882600,
      "d": 600,
      "v": 127
    },
    {
      "midi": 58,
      "hit": false,
      "t": 882600,
      "d": 600,
      "v": 127
    },
    {
      "midi": 60,
      "hit": false,
      "t": 882600,
      "d": 600,
      "v": 127
    },
    {
      "midi": 74,
      "hit": false,
      "t": 882900,
      "d": 300,
      "v": 127
    },
    {
      "midi": 75,
      "hit": false,
      "t": 882900,
      "d": 300,
      "v": 127
    },
    {
      "midi": 72,
      "hit": false,
      "t": 883200,
      "d": 300,
      "v": 127
    },
    {
      "midi": 40,
      "hit": false,
      "t": 883200,
      "d": 600,
      "v": 127
    },
    {
      "midi": 76,
      "hit": false,
      "t": 883500,
      "d": 300,
      "v": 127
    },
    {
      "midi": 79,
      "hit": false,
      "t": 883500,
      "d": 300,
      "v": 127
    },
    {
      "midi": 82,
      "hit": false,
      "t": 883800,
      "d": 300,
      "v": 127
    },
    {
      "midi": 52,
      "hit": false,
      "t": 883800,
      "d": 1200,
      "v": 127
    },
    {
      "midi": 55,
      "hit": false,
      "t": 883800,
      "d": 1200,
      "v": 127
    },
    {
      "midi": 58,
      "hit": false,
      "t": 883800,
      "d": 1200,
      "v": 127
    },
    {
      "midi": 60,
      "hit": false,
      "t": 883800,
      "d": 1200,
      "v": 127
    },
    {
      "midi": 79,
      "hit": false,
      "t": 884100,
      "d": 300,
      "v": 127
    },
    {
      "midi": 82,
      "hit": false,
      "t": 884100,
      "d": 300,
      "v": 127
    },
    {
      "midi": 84,
      "hit": false,
      "t": 884400,
      "d": 300,
      "v": 127
    },
    {
      "midi": 88,
      "hit": false,
      "t": 884700,
      "d": 300,
      "v": 127
    },
    {
      "midi": 91,
      "hit": false,
      "t": 884700,
      "d": 300,
      "v": 127
    },
    {
      "midi": 94,
      "hit": false,
      "t": 885000,
      "d": 300,
      "v": 127
    },
    {
      "midi": 48,
      "hit": false,
      "t": 885000,
      "d": 600,
      "v": 127
    },
    {
      "midi": 88,
      "hit": false,
      "t": 885300,
      "d": 300,
      "v": 127
    },
    {
      "midi": 91,
      "hit": false,
      "t": 885300,
      "d": 300,
      "v": 127
    },
    {
      "midi": 89,
      "hit": false,
      "t": 885600,
      "d": 600,
      "v": 127
    },
    {
      "midi": 41,
      "hit": false,
      "t": 885600,
      "d": 600,
      "v": 127
    },
    {
      "midi": 89,
      "hit": false,
      "t": 886200,
      "d": 300,
      "v": 127
    },
    {
      "midi": 60,
      "hit": false,
      "t": 886200,
      "d": 600,
      "v": 127
    },
    {
      "midi": 89,
      "hit": false,
      "t": 886500,
      "d": 300,
      "v": 127
    },
    {
      "midi": 91,
      "hit": false,
      "t": 886500,
      "d": 300,
      "v": 127
    },
    {
      "midi": 88,
      "hit": false,
      "t": 886800,
      "d": 300,
      "v": 127
    },
    {
      "midi": 58,
      "hit": false,
      "t": 886800,
      "d": 600,
      "v": 127
    },
    {
      "midi": 62,
      "hit": false,
      "t": 886800,
      "d": 600,
      "v": 127
    },
    {
      "midi": 89,
      "hit": false,
      "t": 887100,
      "d": 300,
      "v": 127
    },
    {
      "midi": 91,
      "hit": false,
      "t": 887100,
      "d": 300,
      "v": 127
    },
    {
      "midi": 88,
      "hit": false,
      "t": 887400,
      "d": 300,
      "v": 127
    },
    {
      "midi": 57,
      "hit": false,
      "t": 887400,
      "d": 600,
      "v": 127
    },
    {
      "midi": 63,
      "hit": false,
      "t": 887400,
      "d": 600,
      "v": 127
    },
    {
      "midi": 89,
      "hit": false,
      "t": 887700,
      "d": 300,
      "v": 127
    },
    {
      "midi": 91,
      "hit": false,
      "t": 887700,
      "d": 300,
      "v": 127
    },
    {
      "midi": 88,
      "hit": false,
      "t": 888000,
      "d": 300,
      "v": 127
    },
    {
      "midi": 46,
      "hit": false,
      "t": 888000,
      "d": 600,
      "v": 127
    },
    {
      "midi": 89,
      "hit": false,
      "t": 888300,
      "d": 300,
      "v": 127
    },
    {
      "midi": 91,
      "hit": false,
      "t": 888300,
      "d": 300,
      "v": 127
    },
    {
      "midi": 87,
      "hit": false,
      "t": 888600,
      "d": 300,
      "v": 127
    },
    {
      "midi": 53,
      "hit": false,
      "t": 888600,
      "d": 1200,
      "v": 127
    },
    {
      "midi": 58,
      "hit": false,
      "t": 888600,
      "d": 1200,
      "v": 127
    },
    {
      "midi": 62,
      "hit": false,
      "t": 888600,
      "d": 1200,
      "v": 127
    },
    {
      "midi": 84,
      "hit": false,
      "t": 888900,
      "d": 300,
      "v": 127
    },
    {
      "midi": 86,
      "hit": false,
      "t": 888900,
      "d": 300,
      "v": 127
    },
    {
      "midi": 82,
      "hit": false,
      "t": 889200,
      "d": 300,
      "v": 127
    },
    {
      "midi": 79,
      "hit": false,
      "t": 889500,
      "d": 300,
      "v": 127
    },
    {
      "midi": 81,
      "hit": false,
      "t": 889500,
      "d": 300,
      "v": 127
    },
    {
      "midi": 77,
      "hit": false,
      "t": 889800,
      "d": 300,
      "v": 127
    },
    {
      "midi": 53,
      "hit": false,
      "t": 889800,
      "d": 600,
      "v": 127
    },
    {
      "midi": 58,
      "hit": false,
      "t": 889800,
      "d": 600,
      "v": 127
    },
    {
      "midi": 62,
      "hit": false,
      "t": 889800,
      "d": 600,
      "v": 127
    },
    {
      "midi": 74,
      "hit": false,
      "t": 890100,
      "d": 300,
      "v": 127
    },
    {
      "midi": 75,
      "hit": false,
      "t": 890100,
      "d": 300,
      "v": 127
    },
    {
      "midi": 72,
      "hit": false,
      "t": 890400,
      "d": 1200,
      "v": 127
    },
    {
      "midi": 50,
      "hit": false,
      "t": 890400,
      "d": 600,
      "v": 127
    },
    {
      "midi": 53,
      "hit": false,
      "t": 891000,
      "d": 1200,
      "v": 127
    },
    {
      "midi": 58,
      "hit": false,
      "t": 891000,
      "d": 1200,
      "v": 127
    },
    {
      "midi": 65,
      "hit": false,
      "t": 891000,
      "d": 1200,
      "v": 127
    },
    {
      "midi": 70,
      "hit": false,
      "t": 891600,
      "d": 900,
      "v": 127
    },
    {
      "midi": 53,
      "hit": false,
      "t": 892200,
      "d": 600,
      "v": 127
    },
    {
      "midi": 58,
      "hit": false,
      "t": 892200,
      "d": 600,
      "v": 127
    },
    {
      "midi": 65,
      "hit": false,
      "t": 892200,
      "d": 600,
      "v": 127
    },
    {
      "midi": 70,
      "hit": false,
      "t": 892500,
      "d": 300,
      "v": 127
    },
    {
      "midi": 69,
      "hit": false,
      "t": 892800,
      "d": 300,
      "v": 127
    },
    {
      "midi": 48,
      "hit": false,
      "t": 892800,
      "d": 600,
      "v": 127
    },
    {
      "midi": 70,
      "hit": false,
      "t": 893100,
      "d": 300,
      "v": 127
    },
    {
      "midi": 72,
      "hit": false,
      "t": 893100,
      "d": 300,
      "v": 127
    },
    {
      "midi": 74,
      "hit": false,
      "t": 893400,
      "d": 300,
      "v": 127
    },
    {
      "midi": 53,
      "hit": false,
      "t": 893400,
      "d": 1200,
      "v": 127
    },
    {
      "midi": 57,
      "hit": false,
      "t": 893400,
      "d": 1200,
      "v": 127
    },
    {
      "midi": 63,
      "hit": false,
      "t": 893400,
      "d": 1200,
      "v": 127
    },
    {
      "midi": 75,
      "hit": false,
      "t": 893700,
      "d": 300,
      "v": 127
    },
    {
      "midi": 77,
      "hit": false,
      "t": 893700,
      "d": 300,
      "v": 127
    },
    {
      "midi": 79,
      "hit": false,
      "t": 894000,
      "d": 300,
      "v": 127
    },
    {
      "midi": 81,
      "hit": false,
      "t": 894300,
      "d": 300,
      "v": 127
    },
    {
      "midi": 82,
      "hit": false,
      "t": 894300,
      "d": 300,
      "v": 127
    },
    {
      "midi": 83,
      "hit": false,
      "t": 894600,
      "d": 300,
      "v": 127
    },
    {
      "midi": 53,
      "hit": false,
      "t": 894600,
      "d": 600,
      "v": 127
    },
    {
      "midi": 57,
      "hit": false,
      "t": 894600,
      "d": 600,
      "v": 127
    },
    {
      "midi": 63,
      "hit": false,
      "t": 894600,
      "d": 600,
      "v": 127
    },
    {
      "midi": 84,
      "hit": false,
      "t": 894900,
      "d": 300,
      "v": 127
    },
    {
      "midi": 86,
      "hit": false,
      "t": 894900,
      "d": 300,
      "v": 127
    },
    {
      "midi": 89,
      "hit": false,
      "t": 895200,
      "d": 900,
      "v": 127
    },
    {
      "midi": 41,
      "hit": false,
      "t": 895200,
      "d": 600,
      "v": 127
    },
    {
      "midi": 53,
      "hit": false,
      "t": 895800,
      "d": 1200,
      "v": 127
    },
    {
      "midi": 57,
      "hit": false,
      "t": 895800,
      "d": 1200,
      "v": 127
    },
    {
      "midi": 60,
      "hit": false,
      "t": 895800,
      "d": 1200,
      "v": 127
    },
    {
      "midi": 88,
      "hit": false,
      "t": 896100,
      "d": 300,
      "v": 127
    },
    {
      "midi": 87,
      "hit": false,
      "t": 896400,
      "d": 900,
      "v": 127
    },
    {
      "midi": 53,
      "hit": false,
      "t": 897000,
      "d": 600,
      "v": 127
    },
    {
      "midi": 57,
      "hit": false,
      "t": 897000,
      "d": 600,
      "v": 127
    },
    {
      "midi": 60,
      "hit": false,
      "t": 897000,
      "d": 600,
      "v": 127
    },
    {
      "midi": 87,
      "hit": false,
      "t": 897300,
      "d": 300,
      "v": 127
    },
    {
      "midi": 86,
      "hit": false,
      "t": 897600,
      "d": 300,
      "v": 127
    },
    {
      "midi": 46,
      "hit": false,
      "t": 897600,
      "d": 600,
      "v": 127
    },
    {
      "midi": 96,
      "hit": false,
      "t": 897900,
      "d": 300,
      "v": 127
    },
    {
      "midi": 98,
      "hit": false,
      "t": 897900,
      "d": 300,
      "v": 127
    },
    {
      "midi": 94,
      "hit": false,
      "t": 898200,
      "d": 300,
      "v": 127
    },
    {
      "midi": 53,
      "hit": false,
      "t": 898200,
      "d": 1200,
      "v": 127
    },
    {
      "midi": 58,
      "hit": false,
      "t": 898200,
      "d": 1200,
      "v": 127
    },
    {
      "midi": 62,
      "hit": false,
      "t": 898200,
      "d": 1200,
      "v": 127
    },
    {
      "midi": 91,
      "hit": false,
      "t": 898500,
      "d": 300,
      "v": 127
    },
    {
      "midi": 93,
      "hit": false,
      "t": 898500,
      "d": 300,
      "v": 127
    },
    {
      "midi": 89,
      "hit": false,
      "t": 898800,
      "d": 300,
      "v": 127
    },
    {
      "midi": 86,
      "hit": false,
      "t": 899100,
      "d": 300,
      "v": 127
    },
    {
      "midi": 87,
      "hit": false,
      "t": 899100,
      "d": 300,
      "v": 127
    },
    {
      "midi": 84,
      "hit": false,
      "t": 899400,
      "d": 300,
      "v": 127
    },
    {
      "midi": 53,
      "hit": false,
      "t": 899400,
      "d": 600,
      "v": 127
    },
    {
      "midi": 58,
      "hit": false,
      "t": 899400,
      "d": 600,
      "v": 127
    },
    {
      "midi": 62,
      "hit": false,
      "t": 899400,
      "d": 600,
      "v": 127
    },
    {
      "midi": 81,
      "hit": false,
      "t": 899700,
      "d": 300,
      "v": 127
    },
    {
      "midi": 82,
      "hit": false,
      "t": 899700,
      "d": 300,
      "v": 127
    },
    {
      "midi": 79,
      "hit": false,
      "t": 900000,
      "d": 300,
      "v": 127
    },
    {
      "midi": 52,
      "hit": false,
      "t": 900000,
      "d": 600,
      "v": 127
    },
    {
      "midi": 91,
      "hit": false,
      "t": 900300,
      "d": 300,
      "v": 127
    },
    {
      "midi": 94,
      "hit": false,
      "t": 900300,
      "d": 300,
      "v": 127
    },
    {
      "midi": 88,
      "hit": false,
      "t": 900600,
      "d": 300,
      "v": 127
    },
    {
      "midi": 58,
      "hit": false,
      "t": 900600,
      "d": 1200,
      "v": 127
    },
    {
      "midi": 61,
      "hit": false,
      "t": 900600,
      "d": 1200,
      "v": 127
    },
    {
      "midi": 67,
      "hit": false,
      "t": 900600,
      "d": 1200,
      "v": 127
    },
    {
      "midi": 82,
      "hit": false,
      "t": 900900,
      "d": 300,
      "v": 127
    },
    {
      "midi": 85,
      "hit": false,
      "t": 900900,
      "d": 300,
      "v": 127
    },
    {
      "midi": 79,
      "hit": false,
      "t": 901200,
      "d": 300,
      "v": 127
    },
    {
      "midi": 73,
      "hit": false,
      "t": 901500,
      "d": 300,
      "v": 127
    },
    {
      "midi": 76,
      "hit": false,
      "t": 901500,
      "d": 300,
      "v": 127
    },
    {
      "midi": 70,
      "hit": false,
      "t": 901800,
      "d": 300,
      "v": 127
    },
    {
      "midi": 55,
      "hit": false,
      "t": 901800,
      "d": 600,
      "v": 127
    },
    {
      "midi": 58,
      "hit": false,
      "t": 901800,
      "d": 600,
      "v": 127
    },
    {
      "midi": 61,
      "hit": false,
      "t": 901800,
      "d": 600,
      "v": 127
    },
    {
      "midi": 64,
      "hit": false,
      "t": 902100,
      "d": 300,
      "v": 127
    },
    {
      "midi": 67,
      "hit": false,
      "t": 902100,
      "d": 300,
      "v": 127
    },
    {
      "midi": 65,
      "hit": false,
      "t": 902400,
      "d": 300,
      "v": 127
    },
    {
      "midi": 41,
      "hit": false,
      "t": 902400,
      "d": 600,
      "v": 127
    },
    {
      "midi": 64,
      "hit": false,
      "t": 902700,
      "d": 300,
      "v": 127
    },
    {
      "midi": 65,
      "hit": false,
      "t": 902700,
      "d": 300,
      "v": 127
    },
    {
      "midi": 67,
      "hit": false,
      "t": 903000,
      "d": 300,
      "v": 127
    },
    {
      "midi": 60,
      "hit": false,
      "t": 903000,
      "d": 600,
      "v": 127
    },
    {
      "midi": 69,
      "hit": false,
      "t": 903300,
      "d": 300,
      "v": 127
    },
    {
      "midi": 70,
      "hit": false,
      "t": 903300,
      "d": 300,
      "v": 127
    },
    {
      "midi": 72,
      "hit": false,
      "t": 903600,
      "d": 300,
      "v": 127
    },
    {
      "midi": 57,
      "hit": false,
      "t": 903600,
      "d": 600,
      "v": 127
    },
    {
      "midi": 74,
      "hit": false,
      "t": 903900,
      "d": 300,
      "v": 127
    },
    {
      "midi": 75,
      "hit": false,
      "t": 903900,
      "d": 300,
      "v": 127
    },
    {
      "midi": 77,
      "hit": false,
      "t": 904200,
      "d": 300,
      "v": 127
    },
    {
      "midi": 60,
      "hit": false,
      "t": 904200,
      "d": 600,
      "v": 127
    },
    {
      "midi": 63,
      "hit": false,
      "t": 904200,
      "d": 600,
      "v": 127
    },
    {
      "midi": 79,
      "hit": false,
      "t": 904500,
      "d": 300,
      "v": 127
    },
    {
      "midi": 81,
      "hit": false,
      "t": 904500,
      "d": 300,
      "v": 127
    },
    {
      "midi": 82,
      "hit": false,
      "t": 904800,
      "d": 300,
      "v": 127
    },
    {
      "midi": 46,
      "hit": false,
      "t": 904800,
      "d": 600,
      "v": 127
    },
    {
      "midi": 86,
      "hit": false,
      "t": 905100,
      "d": 300,
      "v": 127
    },
    {
      "midi": 89,
      "hit": false,
      "t": 905100,
      "d": 300,
      "v": 127
    },
    {
      "midi": 94,
      "hit": false,
      "t": 905400,
      "d": 300,
      "v": 127
    },
    {
      "midi": 58,
      "hit": false,
      "t": 905400,
      "d": 1800,
      "v": 127
    },
    {
      "midi": 62,
      "hit": false,
      "t": 905400,
      "d": 1800,
      "v": 127
    },
    {
      "midi": 96,
      "hit": false,
      "t": 905700,
      "d": 300,
      "v": 127
    },
    {
      "midi": 98,
      "hit": false,
      "t": 905700,
      "d": 300,
      "v": 127
    },
    {
      "midi": 94,
      "hit": false,
      "t": 906000,
      "d": 300,
      "v": 127
    },
    {
      "midi": 86,
      "hit": false,
      "t": 906300,
      "d": 300,
      "v": 127
    },
    {
      "midi": 89,
      "hit": false,
      "t": 906300,
      "d": 300,
      "v": 127
    },
    {
      "midi": 82,
      "hit": false,
      "t": 906600,
      "d": 300,
      "v": 127
    },
    {
      "midi": 84,
      "hit": false,
      "t": 906900,
      "d": 300,
      "v": 127
    },
    {
      "midi": 85,
      "hit": false,
      "t": 906900,
      "d": 300,
      "v": 127
    },
    {
      "midi": 82,
      "hit": false,
      "t": 907200,
      "d": 600,
      "v": 127
    },
    {
      "midi": 38,
      "hit": false,
      "t": 907200,
      "d": 300,
      "v": 127
    },
    {
      "midi": 40,
      "hit": false,
      "t": 907500,
      "d": 300,
      "v": 127
    },
    {
      "midi": 42,
      "hit": false,
      "t": 907500,
      "d": 300,
      "v": 127
    },
    {
      "midi": 74,
      "hit": false,
      "t": 907800,
      "d": 1200,
      "v": 127
    },
    {
      "midi": 78,
      "hit": false,
      "t": 907800,
      "d": 1200,
      "v": 127
    },
    {
      "midi": 84,
      "hit": false,
      "t": 907800,
      "d": 1200,
      "v": 127
    },
    {
      "midi": 86,
      "hit": false,
      "t": 907800,
      "d": 1200,
      "v": 127
    },
    {
      "midi": 43,
      "hit": false,
      "t": 907800,
      "d": 300,
      "v": 127
    },
    {
      "midi": 45,
      "hit": false,
      "t": 908100,
      "d": 300,
      "v": 127
    },
    {
      "midi": 46,
      "hit": false,
      "t": 908100,
      "d": 300,
      "v": 127
    },
    {
      "midi": 48,
      "hit": false,
      "t": 908400,
      "d": 300,
      "v": 127
    },
    {
      "midi": 50,
      "hit": false,
      "t": 908700,
      "d": 300,
      "v": 127
    },
    {
      "midi": 52,
      "hit": false,
      "t": 908700,
      "d": 300,
      "v": 127
    },
    {
      "midi": 74,
      "hit": false,
      "t": 909000,
      "d": 600,
      "v": 127
    },
    {
      "midi": 78,
      "hit": false,
      "t": 909000,
      "d": 600,
      "v": 127
    },
    {
      "midi": 84,
      "hit": false,
      "t": 909000,
      "d": 600,
      "v": 127
    },
    {
      "midi": 86,
      "hit": false,
      "t": 909000,
      "d": 600,
      "v": 127
    },
    {
      "midi": 54,
      "hit": false,
      "t": 909000,
      "d": 300,
      "v": 127
    },
    {
      "midi": 55,
      "hit": false,
      "t": 909300,
      "d": 300,
      "v": 127
    },
    {
      "midi": 57,
      "hit": false,
      "t": 909300,
      "d": 300,
      "v": 127
    },
    {
      "midi": 58,
      "hit": false,
      "t": 909600,
      "d": 300,
      "v": 127
    },
    {
      "midi": 58,
      "hit": false,
      "t": 909900,
      "d": 300,
      "v": 127
    },
    {
      "midi": 62,
      "hit": false,
      "t": 909900,
      "d": 300,
      "v": 127
    },
    {
      "midi": 74,
      "hit": false,
      "t": 910200,
      "d": 1200,
      "v": 127
    },
    {
      "midi": 79,
      "hit": false,
      "t": 910200,
      "d": 1200,
      "v": 127
    },
    {
      "midi": 82,
      "hit": false,
      "t": 910200,
      "d": 1200,
      "v": 127
    },
    {
      "midi": 86,
      "hit": false,
      "t": 910200,
      "d": 1200,
      "v": 127
    },
    {
      "midi": 55,
      "hit": false,
      "t": 910200,
      "d": 300,
      "v": 127
    },
    {
      "midi": 55,
      "hit": false,
      "t": 910500,
      "d": 300,
      "v": 127
    },
    {
      "midi": 58,
      "hit": false,
      "t": 910500,
      "d": 300,
      "v": 127
    },
    {
      "midi": 50,
      "hit": false,
      "t": 910800,
      "d": 300,
      "v": 127
    },
    {
      "midi": 50,
      "hit": false,
      "t": 911100,
      "d": 300,
      "v": 127
    },
    {
      "midi": 55,
      "hit": false,
      "t": 911100,
      "d": 300,
      "v": 127
    },
    {
      "midi": 79,
      "hit": false,
      "t": 911400,
      "d": 600,
      "v": 127
    },
    {
      "midi": 82,
      "hit": false,
      "t": 911400,
      "d": 600,
      "v": 127
    },
    {
      "midi": 86,
      "hit": false,
      "t": 911400,
      "d": 600,
      "v": 127
    },
    {
      "midi": 91,
      "hit": false,
      "t": 911400,
      "d": 600,
      "v": 127
    },
    {
      "midi": 46,
      "hit": false,
      "t": 911400,
      "d": 300,
      "v": 127
    },
    {
      "midi": 46,
      "hit": false,
      "t": 911700,
      "d": 300,
      "v": 127
    },
    {
      "midi": 50,
      "hit": false,
      "t": 911700,
      "d": 300,
      "v": 127
    },
    {
      "midi": 43,
      "hit": false,
      "t": 912000,
      "d": 300,
      "v": 127
    },
    {
      "midi": 45,
      "hit": false,
      "t": 912300,
      "d": 300,
      "v": 127
    },
    {
      "midi": 46,
      "hit": false,
      "t": 912300,
      "d": 300,
      "v": 127
    },
    {
      "midi": 82,
      "hit": false,
      "t": 912600,
      "d": 1200,
      "v": 127
    },
    {
      "midi": 86,
      "hit": false,
      "t": 912600,
      "d": 1200,
      "v": 127
    },
    {
      "midi": 94,
      "hit": false,
      "t": 912600,
      "d": 1200,
      "v": 127
    },
    {
      "midi": 48,
      "hit": false,
      "t": 912600,
      "d": 300,
      "v": 127
    },
    {
      "midi": 50,
      "hit": false,
      "t": 912900,
      "d": 300,
      "v": 127
    },
    {
      "midi": 52,
      "hit": false,
      "t": 912900,
      "d": 300,
      "v": 127
    },
    {
      "midi": 54,
      "hit": false,
      "t": 913200,
      "d": 300,
      "v": 127
    },
    {
      "midi": 55,
      "hit": false,
      "t": 913500,
      "d": 300,
      "v": 127
    },
    {
      "midi": 56,
      "hit": false,
      "t": 913500,
      "d": 300,
      "v": 127
    },
    {
      "midi": 79,
      "hit": false,
      "t": 913800,
      "d": 600,
      "v": 127
    },
    {
      "midi": 86,
      "hit": false,
      "t": 913800,
      "d": 600,
      "v": 127
    },
    {
      "midi": 91,
      "hit": false,
      "t": 913800,
      "d": 600,
      "v": 127
    },
    {
      "midi": 57,
      "hit": false,
      "t": 913800,
      "d": 300,
      "v": 127
    },
    {
      "midi": 58,
      "hit": false,
      "t": 914100,
      "d": 300,
      "v": 127
    },
    {
      "midi": 59,
      "hit": false,
      "t": 914100,
      "d": 300,
      "v": 127
    },
    {
      "midi": 76,
      "hit": false,
      "t": 914400,
      "d": 2400,
      "v": 127
    },
    {
      "midi": 79,
      "hit": false,
      "t": 914400,
      "d": 2400,
      "v": 127
    },
    {
      "midi": 84,
      "hit": false,
      "t": 914400,
      "d": 2400,
      "v": 127
    },
    {
      "midi": 88,
      "hit": false,
      "t": 914400,
      "d": 2400,
      "v": 127
    },
    {
      "midi": 60,
      "hit": false,
      "t": 914400,
      "d": 300,
      "v": 127
    },
    {
      "midi": 60,
      "hit": false,
      "t": 914700,
      "d": 300,
      "v": 127
    },
    {
      "midi": 64,
      "hit": false,
      "t": 914700,
      "d": 300,
      "v": 127
    },
    {
      "midi": 55,
      "hit": false,
      "t": 915000,
      "d": 300,
      "v": 127
    },
    {
      "midi": 55,
      "hit": false,
      "t": 915300,
      "d": 300,
      "v": 127
    },
    {
      "midi": 60,
      "hit": false,
      "t": 915300,
      "d": 300,
      "v": 127
    },
    {
      "midi": 52,
      "hit": false,
      "t": 915600,
      "d": 300,
      "v": 127
    },
    {
      "midi": 52,
      "hit": false,
      "t": 915900,
      "d": 300,
      "v": 127
    },
    {
      "midi": 55,
      "hit": false,
      "t": 915900,
      "d": 300,
      "v": 127
    },
    {
      "midi": 48,
      "hit": false,
      "t": 916200,
      "d": 600,
      "v": 127
    },
    {
      "midi": 45,
      "hit": false,
      "t": 916800,
      "d": 300,
      "v": 127
    },
    {
      "midi": 48,
      "hit": false,
      "t": 917100,
      "d": 300,
      "v": 127
    },
    {
      "midi": 53,
      "hit": false,
      "t": 917100,
      "d": 300,
      "v": 127
    },
    {
      "midi": 89,
      "hit": false,
      "t": 917400,
      "d": 300,
      "v": 127
    },
    {
      "midi": 57,
      "hit": false,
      "t": 917400,
      "d": 300,
      "v": 127
    },
    {
      "midi": 65,
      "hit": false,
      "t": 917700,
      "d": 300,
      "v": 127
    },
    {
      "midi": 60,
      "hit": false,
      "t": 917700,
      "d": 300,
      "v": 127
    },
    {
      "midi": 89,
      "hit": false,
      "t": 918000,
      "d": 300,
      "v": 127
    },
    {
      "midi": 81,
      "hit": false,
      "t": 918300,
      "d": 300,
      "v": 127
    },
    {
      "midi": 84,
      "hit": false,
      "t": 918300,
      "d": 300,
      "v": 127
    },
    {
      "midi": 77,
      "hit": false,
      "t": 918600,
      "d": 300,
      "v": 127
    },
    {
      "midi": 69,
      "hit": false,
      "t": 918900,
      "d": 300,
      "v": 127
    },
    {
      "midi": 72,
      "hit": false,
      "t": 918900,
      "d": 300,
      "v": 127
    },
    {
      "midi": 67,
      "hit": false,
      "t": 919200,
      "d": 600,
      "v": 127
    },
    {
      "midi": 46,
      "hit": false,
      "t": 919200,
      "d": 300,
      "v": 127
    },
    {
      "midi": 50,
      "hit": false,
      "t": 919500,
      "d": 300,
      "v": 127
    },
    {
      "midi": 55,
      "hit": false,
      "t": 919500,
      "d": 300,
      "v": 127
    },
    {
      "midi": 89,
      "hit": false,
      "t": 919800,
      "d": 300,
      "v": 127
    },
    {
      "midi": 58,
      "hit": false,
      "t": 919800,
      "d": 600,
      "v": 127
    },
    {
      "midi": 62,
      "hit": false,
      "t": 920100,
      "d": 300,
      "v": 127
    },
    {
      "midi": 67,
      "hit": false,
      "t": 920100,
      "d": 300,
      "v": 127
    },
    {
      "midi": 89,
      "hit": false,
      "t": 920400,
      "d": 300,
      "v": 127
    },
    {
      "midi": 82,
      "hit": false,
      "t": 920700,
      "d": 300,
      "v": 127
    },
    {
      "midi": 86,
      "hit": false,
      "t": 920700,
      "d": 300,
      "v": 127
    },
    {
      "midi": 77,
      "hit": false,
      "t": 921000,
      "d": 300,
      "v": 127
    },
    {
      "midi": 70,
      "hit": false,
      "t": 921300,
      "d": 300,
      "v": 127
    },
    {
      "midi": 74,
      "hit": false,
      "t": 921300,
      "d": 300,
      "v": 127
    },
    {
      "midi": 69,
      "hit": false,
      "t": 921600,
      "d": 300,
      "v": 127
    },
    {
      "midi": 48,
      "hit": false,
      "t": 921600,
      "d": 600,
      "v": 127
    },
    {
      "midi": 82,
      "hit": false,
      "t": 921900,
      "d": 300,
      "v": 127
    },
    {
      "midi": 84,
      "hit": false,
      "t": 921900,
      "d": 300,
      "v": 127
    },
    {
      "midi": 81,
      "hit": false,
      "t": 922200,
      "d": 300,
      "v": 127
    },
    {
      "midi": 57,
      "hit": false,
      "t": 922200,
      "d": 600,
      "v": 127
    },
    {
      "midi": 60,
      "hit": false,
      "t": 922200,
      "d": 600,
      "v": 127
    },
    {
      "midi": 65,
      "hit": false,
      "t": 922200,
      "d": 600,
      "v": 127
    },
    {
      "midi": 77,
      "hit": false,
      "t": 922500,
      "d": 300,
      "v": 127
    },
    {
      "midi": 79,
      "hit": false,
      "t": 922500,
      "d": 300,
      "v": 127
    },
    {
      "midi": 76,
      "hit": false,
      "t": 922800,
      "d": 300,
      "v": 127
    },
    {
      "midi": 48,
      "hit": false,
      "t": 922800,
      "d": 600,
      "v": 127
    },
    {
      "midi": 72,
      "hit": false,
      "t": 923100,
      "d": 300,
      "v": 127
    },
    {
      "midi": 74,
      "hit": false,
      "t": 923100,
      "d": 300,
      "v": 127
    },
    {
      "midi": 70,
      "hit": false,
      "t": 923400,
      "d": 300,
      "v": 127
    },
    {
      "midi": 58,
      "hit": false,
      "t": 923400,
      "d": 600,
      "v": 127
    },
    {
      "midi": 60,
      "hit": false,
      "t": 923400,
      "d": 600,
      "v": 127
    },
    {
      "midi": 64,
      "hit": false,
      "t": 923400,
      "d": 600,
      "v": 127
    },
    {
      "midi": 67,
      "hit": false,
      "t": 923700,
      "d": 300,
      "v": 127
    },
    {
      "midi": 69,
      "hit": false,
      "t": 923700,
      "d": 300,
      "v": 127
    },
    {
      "midi": 65,
      "hit": false,
      "t": 924000,
      "d": 600,
      "v": 127
    },
    {
      "midi": 41,
      "hit": false,
      "t": 924000,
      "d": 600,
      "v": 127
    },
    {
      "midi": 77,
      "hit": false,
      "t": 924600,
      "d": 300,
      "v": 127
    },
    {
      "midi": 60,
      "hit": false,
      "t": 924600,
      "d": 600,
      "v": 127
    },
    {
      "midi": 77,
      "hit": false,
      "t": 924900,
      "d": 300,
      "v": 127
    },
    {
      "midi": 79,
      "hit": false,
      "t": 924900,
      "d": 300,
      "v": 127
    },
    {
      "midi": 76,
      "hit": false,
      "t": 925200,
      "d": 300,
      "v": 127
    },
    {
      "midi": 58,
      "hit": false,
      "t": 925200,
      "d": 600,
      "v": 127
    },
    {
      "midi": 62,
      "hit": false,
      "t": 925200,
      "d": 600,
      "v": 127
    },
    {
      "midi": 77,
      "hit": false,
      "t": 925500,
      "d": 300,
      "v": 127
    },
    {
      "midi": 79,
      "hit": false,
      "t": 925500,
      "d": 300,
      "v": 127
    },
    {
      "midi": 76,
      "hit": false,
      "t": 925800,
      "d": 300,
      "v": 127
    },
    {
      "midi": 57,
      "hit": false,
      "t": 925800,
      "d": 600,
      "v": 127
    },
    {
      "midi": 63,
      "hit": false,
      "t": 925800,
      "d": 600,
      "v": 127
    },
    {
      "midi": 89,
      "hit": false,
      "t": 926100,
      "d": 300,
      "v": 127
    },
    {
      "midi": 91,
      "hit": false,
      "t": 926100,
      "d": 300,
      "v": 127
    },
    {
      "midi": 88,
      "hit": false,
      "t": 926400,
      "d": 300,
      "v": 127
    },
    {
      "midi": 46,
      "hit": false,
      "t": 926400,
      "d": 600,
      "v": 127
    },
    {
      "midi": 89,
      "hit": false,
      "t": 926700,
      "d": 300,
      "v": 127
    },
    {
      "midi": 91,
      "hit": false,
      "t": 926700,
      "d": 300,
      "v": 127
    },
    {
      "midi": 87,
      "hit": false,
      "t": 927000,
      "d": 300,
      "v": 127
    },
    {
      "midi": 53,
      "hit": false,
      "t": 927000,
      "d": 1200,
      "v": 127
    },
    {
      "midi": 58,
      "hit": false,
      "t": 927000,
      "d": 1200,
      "v": 127
    },
    {
      "midi": 62,
      "hit": false,
      "t": 927000,
      "d": 1200,
      "v": 127
    },
    {
      "midi": 84,
      "hit": false,
      "t": 927300,
      "d": 300,
      "v": 127
    },
    {
      "midi": 86,
      "hit": false,
      "t": 927300,
      "d": 300,
      "v": 127
    },
    {
      "midi": 82,
      "hit": false,
      "t": 927600,
      "d": 300,
      "v": 127
    },
    {
      "midi": 79,
      "hit": false,
      "t": 927900,
      "d": 300,
      "v": 127
    },
    {
      "midi": 81,
      "hit": false,
      "t": 927900,
      "d": 300,
      "v": 127
    },
    {
      "midi": 77,
      "hit": false,
      "t": 928200,
      "d": 300,
      "v": 127
    },
    {
      "midi": 53,
      "hit": false,
      "t": 928200,
      "d": 600,
      "v": 127
    },
    {
      "midi": 58,
      "hit": false,
      "t": 928200,
      "d": 600,
      "v": 127
    },
    {
      "midi": 62,
      "hit": false,
      "t": 928200,
      "d": 600,
      "v": 127
    },
    {
      "midi": 74,
      "hit": false,
      "t": 928500,
      "d": 300,
      "v": 127
    },
    {
      "midi": 75,
      "hit": false,
      "t": 928500,
      "d": 300,
      "v": 127
    },
    {
      "midi": 72,
      "hit": false,
      "t": 928800,
      "d": 1200,
      "v": 127
    },
    {
      "midi": 50,
      "hit": false,
      "t": 928800,
      "d": 600,
      "v": 127
    },
    {
      "midi": 56,
      "hit": false,
      "t": 929400,
      "d": 1200,
      "v": 127
    },
    {
      "midi": 58,
      "hit": false,
      "t": 929400,
      "d": 1200,
      "v": 127
    },
    {
      "midi": 65,
      "hit": false,
      "t": 929400,
      "d": 1200,
      "v": 127
    },
    {
      "midi": 70,
      "hit": false,
      "t": 930000,
      "d": 900,
      "v": 127
    },
    {
      "midi": 56,
      "hit": false,
      "t": 930600,
      "d": 600,
      "v": 127
    },
    {
      "midi": 58,
      "hit": false,
      "t": 930600,
      "d": 600,
      "v": 127
    },
    {
      "midi": 65,
      "hit": false,
      "t": 930600,
      "d": 600,
      "v": 127
    },
    {
      "midi": 69,
      "hit": false,
      "t": 930900,
      "d": 300,
      "v": 127
    },
    {
      "midi": 70,
      "hit": false,
      "t": 931200,
      "d": 300,
      "v": 127
    },
    {
      "midi": 51,
      "hit": false,
      "t": 931200,
      "d": 600,
      "v": 127
    },
    {
      "midi": 72,
      "hit": false,
      "t": 931500,
      "d": 300,
      "v": 127
    },
    {
      "midi": 74,
      "hit": false,
      "t": 931500,
      "d": 300,
      "v": 127
    },
    {
      "midi": 75,
      "hit": false,
      "t": 931800,
      "d": 300,
      "v": 127
    },
    {
      "midi": 55,
      "hit": false,
      "t": 931800,
      "d": 1200,
      "v": 127
    },
    {
      "midi": 58,
      "hit": false,
      "t": 931800,
      "d": 1200,
      "v": 127
    },
    {
      "midi": 63,
      "hit": false,
      "t": 931800,
      "d": 1200,
      "v": 127
    },
    {
      "midi": 77,
      "hit": false,
      "t": 932100,
      "d": 300,
      "v": 127
    },
    {
      "midi": 79,
      "hit": false,
      "t": 932100,
      "d": 300,
      "v": 127
    },
    {
      "midi": 81,
      "hit": false,
      "t": 932400,
      "d": 300,
      "v": 127
    },
    {
      "midi": 82,
      "hit": false,
      "t": 932700,
      "d": 300,
      "v": 127
    },
    {
      "midi": 84,
      "hit": false,
      "t": 932700,
      "d": 300,
      "v": 127
    },
    {
      "midi": 86,
      "hit": false,
      "t": 933000,
      "d": 300,
      "v": 127
    },
    {
      "midi": 55,
      "hit": false,
      "t": 933000,
      "d": 600,
      "v": 127
    },
    {
      "midi": 58,
      "hit": false,
      "t": 933000,
      "d": 600,
      "v": 127
    },
    {
      "midi": 63,
      "hit": false,
      "t": 933000,
      "d": 600,
      "v": 127
    },
    {
      "midi": 87,
      "hit": false,
      "t": 933300,
      "d": 300,
      "v": 127
    },
    {
      "midi": 89,
      "hit": false,
      "t": 933300,
      "d": 300,
      "v": 127
    },
    {
      "midi": 91,
      "hit": false,
      "t": 933600,
      "d": 900,
      "v": 127
    },
    {
      "midi": 52,
      "hit": false,
      "t": 933600,
      "d": 600,
      "v": 127
    },
    {
      "midi": 58,
      "hit": false,
      "t": 934200,
      "d": 1200,
      "v": 127
    },
    {
      "midi": 61,
      "hit": false,
      "t": 934200,
      "d": 1200,
      "v": 127
    },
    {
      "midi": 67,
      "hit": false,
      "t": 934200,
      "d": 1200,
      "v": 127
    },
    {
      "midi": 94,
      "hit": false,
      "t": 934500,
      "d": 300,
      "v": 127
    },
    {
      "midi": 97,
      "hit": false,
      "t": 934800,
      "d": 900,
      "v": 127
    },
    {
      "midi": 58,
      "hit": false,
      "t": 935400,
      "d": 600,
      "v": 127
    },
    {
      "midi": 61,
      "hit": false,
      "t": 935400,
      "d": 600,
      "v": 127
    },
    {
      "midi": 67,
      "hit": false,
      "t": 935400,
      "d": 600,
      "v": 127
    },
    {
      "midi": 72,
      "hit": false,
      "t": 935700,
      "d": 300,
      "v": 127
    },
    {
      "midi": 71,
      "hit": false,
      "t": 936000,
      "d": 300,
      "v": 127
    },
    {
      "midi": 55,
      "hit": false,
      "t": 936000,
      "d": 600,
      "v": 127
    },
    {
      "midi": 72,
      "hit": false,
      "t": 936300,
      "d": 300,
      "v": 127
    },
    {
      "midi": 74,
      "hit": false,
      "t": 936300,
      "d": 300,
      "v": 127
    },
    {
      "midi": 76,
      "hit": false,
      "t": 936600,
      "d": 300,
      "v": 127
    },
    {
      "midi": 58,
      "hit": false,
      "t": 936600,
      "d": 1200,
      "v": 127
    },
    {
      "midi": 60,
      "hit": false,
      "t": 936600,
      "d": 1200,
      "v": 127
    },
    {
      "midi": 64,
      "hit": false,
      "t": 936600,
      "d": 1200,
      "v": 127
    },
    {
      "midi": 77,
      "hit": false,
      "t": 936900,
      "d": 300,
      "v": 127
    },
    {
      "midi": 79,
      "hit": false,
      "t": 936900,
      "d": 300,
      "v": 127
    },
    {
      "midi": 81,
      "hit": false,
      "t": 937200,
      "d": 300,
      "v": 127
    },
    {
      "midi": 82,
      "hit": false,
      "t": 937500,
      "d": 300,
      "v": 127
    },
    {
      "midi": 84,
      "hit": false,
      "t": 937500,
      "d": 300,
      "v": 127
    },
    {
      "midi": 86,
      "hit": false,
      "t": 937800,
      "d": 300,
      "v": 127
    },
    {
      "midi": 58,
      "hit": false,
      "t": 937800,
      "d": 600,
      "v": 127
    },
    {
      "midi": 60,
      "hit": false,
      "t": 937800,
      "d": 600,
      "v": 127
    },
    {
      "midi": 64,
      "hit": false,
      "t": 937800,
      "d": 600,
      "v": 127
    },
    {
      "midi": 87,
      "hit": false,
      "t": 938100,
      "d": 300,
      "v": 127
    },
    {
      "midi": 88,
      "hit": false,
      "t": 938100,
      "d": 300,
      "v": 127
    },
    {
      "midi": 89,
      "hit": false,
      "t": 938400,
      "d": 300,
      "v": 127
    },
    {
      "midi": 53,
      "hit": false,
      "t": 938400,
      "d": 600,
      "v": 127
    },
    {
      "midi": 100,
      "hit": false,
      "t": 938700,
      "d": 300,
      "v": 127
    },
    {
      "midi": 101,
      "hit": false,
      "t": 938700,
      "d": 300,
      "v": 127
    },
    {
      "midi": 99,
      "hit": false,
      "t": 939000,
      "d": 300,
      "v": 127
    },
    {
      "midi": 58,
      "hit": false,
      "t": 939000,
      "d": 1200,
      "v": 127
    },
    {
      "midi": 62,
      "hit": false,
      "t": 939000,
      "d": 1200,
      "v": 127
    },
    {
      "midi": 65,
      "hit": false,
      "t": 939000,
      "d": 1200,
      "v": 127
    },
    {
      "midi": 96,
      "hit": false,
      "t": 939300,
      "d": 300,
      "v": 127
    },
    {
      "midi": 98,
      "hit": false,
      "t": 939300,
      "d": 300,
      "v": 127
    },
    {
      "midi": 94,
      "hit": false,
      "t": 939600,
      "d": 300,
      "v": 127
    },
    {
      "midi": 91,
      "hit": false,
      "t": 939900,
      "d": 300,
      "v": 127
    },
    {
      "midi": 93,
      "hit": false,
      "t": 939900,
      "d": 300,
      "v": 127
    },
    {
      "midi": 89,
      "hit": false,
      "t": 940200,
      "d": 300,
      "v": 127
    },
    {
      "midi": 58,
      "hit": false,
      "t": 940200,
      "d": 600,
      "v": 127
    },
    {
      "midi": 62,
      "hit": false,
      "t": 940200,
      "d": 600,
      "v": 127
    },
    {
      "midi": 65,
      "hit": false,
      "t": 940200,
      "d": 600,
      "v": 127
    },
    {
      "midi": 86,
      "hit": false,
      "t": 940500,
      "d": 300,
      "v": 127
    },
    {
      "midi": 87,
      "hit": false,
      "t": 940500,
      "d": 300,
      "v": 127
    },
    {
      "midi": 84,
      "hit": false,
      "t": 940800,
      "d": 300,
      "v": 127
    },
    {
      "midi": 41,
      "hit": false,
      "t": 940800,
      "d": 600,
      "v": 127
    },
    {
      "midi": 91,
      "hit": false,
      "t": 941100,
      "d": 300,
      "v": 127
    },
    {
      "midi": 93,
      "hit": false,
      "t": 941100,
      "d": 300,
      "v": 127
    },
    {
      "midi": 87,
      "hit": false,
      "t": 941400,
      "d": 300,
      "v": 127
    },
    {
      "midi": 53,
      "hit": false,
      "t": 941400,
      "d": 1200,
      "v": 127
    },
    {
      "midi": 57,
      "hit": false,
      "t": 941400,
      "d": 1200,
      "v": 127
    },
    {
      "midi": 63,
      "hit": false,
      "t": 941400,
      "d": 1200,
      "v": 127
    },
    {
      "midi": 82,
      "hit": false,
      "t": 941700,
      "d": 300,
      "v": 127
    },
    {
      "midi": 84,
      "hit": false,
      "t": 941700,
      "d": 300,
      "v": 127
    },
    {
      "midi": 81,
      "hit": false,
      "t": 942000,
      "d": 300,
      "v": 127
    },
    {
      "midi": 77,
      "hit": false,
      "t": 942300,
      "d": 300,
      "v": 127
    },
    {
      "midi": 79,
      "hit": false,
      "t": 942300,
      "d": 300,
      "v": 127
    },
    {
      "midi": 75,
      "hit": false,
      "t": 942600,
      "d": 300,
      "v": 127
    },
    {
      "midi": 53,
      "hit": false,
      "t": 942600,
      "d": 600,
      "v": 127
    },
    {
      "midi": 57,
      "hit": false,
      "t": 942600,
      "d": 600,
      "v": 127
    },
    {
      "midi": 63,
      "hit": false,
      "t": 942600,
      "d": 600,
      "v": 127
    },
    {
      "midi": 72,
      "hit": false,
      "t": 942900,
      "d": 300,
      "v": 127
    },
    {
      "midi": 74,
      "hit": false,
      "t": 942900,
      "d": 300,
      "v": 127
    },
    {
      "midi": 70,
      "hit": false,
      "t": 943200,
      "d": 300,
      "v": 127
    },
    {
      "midi": 46,
      "hit": false,
      "t": 943200,
      "d": 600,
      "v": 127
    },
    {
      "midi": 74,
      "hit": false,
      "t": 943500,
      "d": 300,
      "v": 127
    },
    {
      "midi": 77,
      "hit": false,
      "t": 943500,
      "d": 300,
      "v": 127
    },
    {
      "midi": 82,
      "hit": false,
      "t": 943800,
      "d": 300,
      "v": 127
    },
    {
      "midi": 58,
      "hit": false,
      "t": 943800,
      "d": 1800,
      "v": 127
    },
    {
      "midi": 62,
      "hit": false,
      "t": 943800,
      "d": 1800,
      "v": 127
    },
    {
      "midi": 84,
      "hit": false,
      "t": 944100,
      "d": 300,
      "v": 127
    },
    {
      "midi": 86,
      "hit": false,
      "t": 944100,
      "d": 300,
      "v": 127
    },
    {
      "midi": 82,
      "hit": false,
      "t": 944400,
      "d": 300,
      "v": 127
    },
    {
      "midi": 81,
      "hit": false,
      "t": 944700,
      "d": 300,
      "v": 127
    },
    {
      "midi": 82,
      "hit": false,
      "t": 944700,
      "d": 300,
      "v": 127
    },
    {
      "midi": 83,
      "hit": false,
      "t": 945000,
      "d": 300,
      "v": 127
    },
    {
      "midi": 84,
      "hit": false,
      "t": 945300,
      "d": 300,
      "v": 127
    },
    {
      "midi": 85,
      "hit": false,
      "t": 945300,
      "d": 300,
      "v": 127
    },
    {
      "midi": 82,
      "hit": false,
      "t": 945600,
      "d": 600,
      "v": 127
    },
    {
      "midi": 38,
      "hit": false,
      "t": 945600,
      "d": 300,
      "v": 127
    },
    {
      "midi": 40,
      "hit": false,
      "t": 945900,
      "d": 300,
      "v": 127
    },
    {
      "midi": 42,
      "hit": false,
      "t": 945900,
      "d": 300,
      "v": 127
    },
    {
      "midi": 74,
      "hit": false,
      "t": 946200,
      "d": 1200,
      "v": 127
    },
    {
      "midi": 78,
      "hit": false,
      "t": 946200,
      "d": 1200,
      "v": 127
    },
    {
      "midi": 84,
      "hit": false,
      "t": 946200,
      "d": 1200,
      "v": 127
    },
    {
      "midi": 86,
      "hit": false,
      "t": 946200,
      "d": 1200,
      "v": 127
    },
    {
      "midi": 43,
      "hit": false,
      "t": 946200,
      "d": 300,
      "v": 127
    },
    {
      "midi": 45,
      "hit": false,
      "t": 946500,
      "d": 300,
      "v": 127
    },
    {
      "midi": 46,
      "hit": false,
      "t": 946500,
      "d": 300,
      "v": 127
    },
    {
      "midi": 48,
      "hit": false,
      "t": 946800,
      "d": 300,
      "v": 127
    },
    {
      "midi": 50,
      "hit": false,
      "t": 947100,
      "d": 300,
      "v": 127
    },
    {
      "midi": 52,
      "hit": false,
      "t": 947100,
      "d": 300,
      "v": 127
    },
    {
      "midi": 74,
      "hit": false,
      "t": 947400,
      "d": 600,
      "v": 127
    },
    {
      "midi": 78,
      "hit": false,
      "t": 947400,
      "d": 600,
      "v": 127
    },
    {
      "midi": 84,
      "hit": false,
      "t": 947400,
      "d": 600,
      "v": 127
    },
    {
      "midi": 86,
      "hit": false,
      "t": 947400,
      "d": 600,
      "v": 127
    },
    {
      "midi": 54,
      "hit": false,
      "t": 947400,
      "d": 300,
      "v": 127
    },
    {
      "midi": 55,
      "hit": false,
      "t": 947700,
      "d": 300,
      "v": 127
    },
    {
      "midi": 57,
      "hit": false,
      "t": 947700,
      "d": 300,
      "v": 127
    },
    {
      "midi": 58,
      "hit": false,
      "t": 948000,
      "d": 300,
      "v": 127
    },
    {
      "midi": 58,
      "hit": false,
      "t": 948300,
      "d": 300,
      "v": 127
    },
    {
      "midi": 62,
      "hit": false,
      "t": 948300,
      "d": 300,
      "v": 127
    },
    {
      "midi": 74,
      "hit": false,
      "t": 948600,
      "d": 1200,
      "v": 127
    },
    {
      "midi": 79,
      "hit": false,
      "t": 948600,
      "d": 1200,
      "v": 127
    },
    {
      "midi": 82,
      "hit": false,
      "t": 948600,
      "d": 1200,
      "v": 127
    },
    {
      "midi": 86,
      "hit": false,
      "t": 948600,
      "d": 1200,
      "v": 127
    },
    {
      "midi": 55,
      "hit": false,
      "t": 948600,
      "d": 300,
      "v": 127
    },
    {
      "midi": 55,
      "hit": false,
      "t": 948900,
      "d": 300,
      "v": 127
    },
    {
      "midi": 58,
      "hit": false,
      "t": 948900,
      "d": 300,
      "v": 127
    },
    {
      "midi": 50,
      "hit": false,
      "t": 949200,
      "d": 300,
      "v": 127
    },
    {
      "midi": 50,
      "hit": false,
      "t": 949500,
      "d": 300,
      "v": 127
    },
    {
      "midi": 55,
      "hit": false,
      "t": 949500,
      "d": 300,
      "v": 127
    },
    {
      "midi": 79,
      "hit": false,
      "t": 949800,
      "d": 600,
      "v": 127
    },
    {
      "midi": 82,
      "hit": false,
      "t": 949800,
      "d": 600,
      "v": 127
    },
    {
      "midi": 86,
      "hit": false,
      "t": 949800,
      "d": 600,
      "v": 127
    },
    {
      "midi": 91,
      "hit": false,
      "t": 949800,
      "d": 600,
      "v": 127
    },
    {
      "midi": 46,
      "hit": false,
      "t": 949800,
      "d": 300,
      "v": 127
    },
    {
      "midi": 46,
      "hit": false,
      "t": 950100,
      "d": 300,
      "v": 127
    },
    {
      "midi": 50,
      "hit": false,
      "t": 950100,
      "d": 300,
      "v": 127
    },
    {
      "midi": 43,
      "hit": false,
      "t": 950400,
      "d": 300,
      "v": 127
    },
    {
      "midi": 45,
      "hit": false,
      "t": 950700,
      "d": 300,
      "v": 127
    },
    {
      "midi": 46,
      "hit": false,
      "t": 950700,
      "d": 300,
      "v": 127
    },
    {
      "midi": 82,
      "hit": false,
      "t": 951000,
      "d": 1200,
      "v": 127
    },
    {
      "midi": 86,
      "hit": false,
      "t": 951000,
      "d": 1200,
      "v": 127
    },
    {
      "midi": 94,
      "hit": false,
      "t": 951000,
      "d": 1200,
      "v": 127
    },
    {
      "midi": 48,
      "hit": false,
      "t": 951000,
      "d": 300,
      "v": 127
    },
    {
      "midi": 50,
      "hit": false,
      "t": 951300,
      "d": 300,
      "v": 127
    },
    {
      "midi": 52,
      "hit": false,
      "t": 951300,
      "d": 300,
      "v": 127
    },
    {
      "midi": 54,
      "hit": false,
      "t": 951600,
      "d": 300,
      "v": 127
    },
    {
      "midi": 55,
      "hit": false,
      "t": 951900,
      "d": 300,
      "v": 127
    },
    {
      "midi": 56,
      "hit": false,
      "t": 951900,
      "d": 300,
      "v": 127
    },
    {
      "midi": 79,
      "hit": false,
      "t": 952200,
      "d": 600,
      "v": 127
    },
    {
      "midi": 86,
      "hit": false,
      "t": 952200,
      "d": 600,
      "v": 127
    },
    {
      "midi": 91,
      "hit": false,
      "t": 952200,
      "d": 600,
      "v": 127
    },
    {
      "midi": 57,
      "hit": false,
      "t": 952200,
      "d": 300,
      "v": 127
    },
    {
      "midi": 58,
      "hit": false,
      "t": 952500,
      "d": 300,
      "v": 127
    },
    {
      "midi": 59,
      "hit": false,
      "t": 952500,
      "d": 300,
      "v": 127
    },
    {
      "midi": 76,
      "hit": false,
      "t": 952800,
      "d": 2400,
      "v": 127
    },
    {
      "midi": 79,
      "hit": false,
      "t": 952800,
      "d": 2400,
      "v": 127
    },
    {
      "midi": 84,
      "hit": false,
      "t": 952800,
      "d": 2400,
      "v": 127
    },
    {
      "midi": 88,
      "hit": false,
      "t": 952800,
      "d": 2400,
      "v": 127
    },
    {
      "midi": 60,
      "hit": false,
      "t": 952800,
      "d": 300,
      "v": 127
    },
    {
      "midi": 60,
      "hit": false,
      "t": 953100,
      "d": 300,
      "v": 127
    },
    {
      "midi": 64,
      "hit": false,
      "t": 953100,
      "d": 300,
      "v": 127
    },
    {
      "midi": 55,
      "hit": false,
      "t": 953400,
      "d": 300,
      "v": 127
    },
    {
      "midi": 55,
      "hit": false,
      "t": 953700,
      "d": 300,
      "v": 127
    },
    {
      "midi": 60,
      "hit": false,
      "t": 953700,
      "d": 300,
      "v": 127
    },
    {
      "midi": 52,
      "hit": false,
      "t": 954000,
      "d": 300,
      "v": 127
    },
    {
      "midi": 52,
      "hit": false,
      "t": 954300,
      "d": 300,
      "v": 127
    },
    {
      "midi": 55,
      "hit": false,
      "t": 954300,
      "d": 300,
      "v": 127
    },
    {
      "midi": 48,
      "hit": false,
      "t": 954600,
      "d": 600,
      "v": 127
    },
    {
      "midi": 45,
      "hit": false,
      "t": 955200,
      "d": 300,
      "v": 127
    },
    {
      "midi": 48,
      "hit": false,
      "t": 955500,
      "d": 300,
      "v": 127
    },
    {
      "midi": 53,
      "hit": false,
      "t": 955500,
      "d": 300,
      "v": 127
    },
    {
      "midi": 89,
      "hit": false,
      "t": 955800,
      "d": 300,
      "v": 127
    },
    {
      "midi": 57,
      "hit": false,
      "t": 955800,
      "d": 300,
      "v": 127
    },
    {
      "midi": 65,
      "hit": false,
      "t": 956100,
      "d": 300,
      "v": 127
    },
    {
      "midi": 60,
      "hit": false,
      "t": 956100,
      "d": 300,
      "v": 127
    },
    {
      "midi": 89,
      "hit": false,
      "t": 956400,
      "d": 300,
      "v": 127
    },
    {
      "midi": 81,
      "hit": false,
      "t": 956700,
      "d": 300,
      "v": 127
    },
    {
      "midi": 84,
      "hit": false,
      "t": 956700,
      "d": 300,
      "v": 127
    },
    {
      "midi": 77,
      "hit": false,
      "t": 957000,
      "d": 300,
      "v": 127
    },
    {
      "midi": 69,
      "hit": false,
      "t": 957300,
      "d": 300,
      "v": 127
    },
    {
      "midi": 72,
      "hit": false,
      "t": 957300,
      "d": 300,
      "v": 127
    },
    {
      "midi": 67,
      "hit": false,
      "t": 957600,
      "d": 600,
      "v": 127
    },
    {
      "midi": 46,
      "hit": false,
      "t": 957600,
      "d": 300,
      "v": 127
    },
    {
      "midi": 50,
      "hit": false,
      "t": 957900,
      "d": 300,
      "v": 127
    },
    {
      "midi": 55,
      "hit": false,
      "t": 957900,
      "d": 300,
      "v": 127
    },
    {
      "midi": 89,
      "hit": false,
      "t": 958200,
      "d": 300,
      "v": 127
    },
    {
      "midi": 58,
      "hit": false,
      "t": 958200,
      "d": 600,
      "v": 127
    },
    {
      "midi": 62,
      "hit": false,
      "t": 958500,
      "d": 300,
      "v": 127
    },
    {
      "midi": 67,
      "hit": false,
      "t": 958500,
      "d": 300,
      "v": 127
    },
    {
      "midi": 89,
      "hit": false,
      "t": 958800,
      "d": 300,
      "v": 127
    },
    {
      "midi": 82,
      "hit": false,
      "t": 959100,
      "d": 300,
      "v": 127
    },
    {
      "midi": 86,
      "hit": false,
      "t": 959100,
      "d": 300,
      "v": 127
    },
    {
      "midi": 77,
      "hit": false,
      "t": 959400,
      "d": 300,
      "v": 127
    },
    {
      "midi": 70,
      "hit": false,
      "t": 959700,
      "d": 300,
      "v": 127
    },
    {
      "midi": 74,
      "hit": false,
      "t": 959700,
      "d": 300,
      "v": 127
    },
    {
      "midi": 69,
      "hit": false,
      "t": 960000,
      "d": 300,
      "v": 127
    },
    {
      "midi": 48,
      "hit": false,
      "t": 960000,
      "d": 600,
      "v": 127
    },
    {
      "midi": 82,
      "hit": false,
      "t": 960300,
      "d": 300,
      "v": 127
    },
    {
      "midi": 84,
      "hit": false,
      "t": 960300,
      "d": 300,
      "v": 127
    },
    {
      "midi": 81,
      "hit": false,
      "t": 960600,
      "d": 300,
      "v": 127
    },
    {
      "midi": 57,
      "hit": false,
      "t": 960600,
      "d": 600,
      "v": 127
    },
    {
      "midi": 60,
      "hit": false,
      "t": 960600,
      "d": 600,
      "v": 127
    },
    {
      "midi": 65,
      "hit": false,
      "t": 960600,
      "d": 600,
      "v": 127
    },
    {
      "midi": 77,
      "hit": false,
      "t": 960900,
      "d": 300,
      "v": 127
    },
    {
      "midi": 79,
      "hit": false,
      "t": 960900,
      "d": 300,
      "v": 127
    },
    {
      "midi": 76,
      "hit": false,
      "t": 961200,
      "d": 300,
      "v": 127
    },
    {
      "midi": 48,
      "hit": false,
      "t": 961200,
      "d": 600,
      "v": 127
    },
    {
      "midi": 72,
      "hit": false,
      "t": 961500,
      "d": 300,
      "v": 127
    },
    {
      "midi": 74,
      "hit": false,
      "t": 961500,
      "d": 300,
      "v": 127
    },
    {
      "midi": 70,
      "hit": false,
      "t": 961800,
      "d": 300,
      "v": 127
    },
    {
      "midi": 58,
      "hit": false,
      "t": 961800,
      "d": 600,
      "v": 127
    },
    {
      "midi": 60,
      "hit": false,
      "t": 961800,
      "d": 600,
      "v": 127
    },
    {
      "midi": 64,
      "hit": false,
      "t": 961800,
      "d": 600,
      "v": 127
    },
    {
      "midi": 67,
      "hit": false,
      "t": 962100,
      "d": 300,
      "v": 127
    },
    {
      "midi": 69,
      "hit": false,
      "t": 962100,
      "d": 300,
      "v": 127
    },
    {
      "midi": 65,
      "hit": false,
      "t": 962400,
      "d": 600,
      "v": 127
    },
    {
      "midi": 41,
      "hit": false,
      "t": 962400,
      "d": 600,
      "v": 127
    },
    {
      "midi": 77,
      "hit": false,
      "t": 963000,
      "d": 300,
      "v": 127
    },
    {
      "midi": 60,
      "hit": false,
      "t": 963000,
      "d": 600,
      "v": 127
    },
    {
      "midi": 77,
      "hit": false,
      "t": 963300,
      "d": 300,
      "v": 127
    },
    {
      "midi": 79,
      "hit": false,
      "t": 963300,
      "d": 300,
      "v": 127
    },
    {
      "midi": 76,
      "hit": false,
      "t": 963600,
      "d": 300,
      "v": 127
    },
    {
      "midi": 58,
      "hit": false,
      "t": 963600,
      "d": 600,
      "v": 127
    },
    {
      "midi": 62,
      "hit": false,
      "t": 963600,
      "d": 600,
      "v": 127
    },
    {
      "midi": 77,
      "hit": false,
      "t": 963900,
      "d": 300,
      "v": 127
    },
    {
      "midi": 79,
      "hit": false,
      "t": 963900,
      "d": 300,
      "v": 127
    },
    {
      "midi": 76,
      "hit": false,
      "t": 964200,
      "d": 300,
      "v": 127
    },
    {
      "midi": 57,
      "hit": false,
      "t": 964200,
      "d": 600,
      "v": 127
    },
    {
      "midi": 63,
      "hit": false,
      "t": 964200,
      "d": 600,
      "v": 127
    },
    {
      "midi": 89,
      "hit": false,
      "t": 964500,
      "d": 300,
      "v": 127
    },
    {
      "midi": 91,
      "hit": false,
      "t": 964500,
      "d": 300,
      "v": 127
    },
    {
      "midi": 88,
      "hit": false,
      "t": 964800,
      "d": 300,
      "v": 127
    },
    {
      "midi": 46,
      "hit": false,
      "t": 964800,
      "d": 600,
      "v": 127
    },
    {
      "midi": 89,
      "hit": false,
      "t": 965100,
      "d": 300,
      "v": 127
    },
    {
      "midi": 91,
      "hit": false,
      "t": 965100,
      "d": 300,
      "v": 127
    },
    {
      "midi": 87,
      "hit": false,
      "t": 965400,
      "d": 300,
      "v": 127
    },
    {
      "midi": 53,
      "hit": false,
      "t": 965400,
      "d": 1200,
      "v": 127
    },
    {
      "midi": 58,
      "hit": false,
      "t": 965400,
      "d": 1200,
      "v": 127
    },
    {
      "midi": 62,
      "hit": false,
      "t": 965400,
      "d": 1200,
      "v": 127
    },
    {
      "midi": 84,
      "hit": false,
      "t": 965700,
      "d": 300,
      "v": 127
    },
    {
      "midi": 86,
      "hit": false,
      "t": 965700,
      "d": 300,
      "v": 127
    },
    {
      "midi": 82,
      "hit": false,
      "t": 966000,
      "d": 300,
      "v": 127
    },
    {
      "midi": 79,
      "hit": false,
      "t": 966300,
      "d": 300,
      "v": 127
    },
    {
      "midi": 81,
      "hit": false,
      "t": 966300,
      "d": 300,
      "v": 127
    },
    {
      "midi": 77,
      "hit": false,
      "t": 966600,
      "d": 300,
      "v": 127
    },
    {
      "midi": 53,
      "hit": false,
      "t": 966600,
      "d": 600,
      "v": 127
    },
    {
      "midi": 58,
      "hit": false,
      "t": 966600,
      "d": 600,
      "v": 127
    },
    {
      "midi": 62,
      "hit": false,
      "t": 966600,
      "d": 600,
      "v": 127
    },
    {
      "midi": 74,
      "hit": false,
      "t": 966900,
      "d": 300,
      "v": 127
    },
    {
      "midi": 75,
      "hit": false,
      "t": 966900,
      "d": 300,
      "v": 127
    },
    {
      "midi": 72,
      "hit": false,
      "t": 967200,
      "d": 1200,
      "v": 127
    },
    {
      "midi": 50,
      "hit": false,
      "t": 967200,
      "d": 600,
      "v": 127
    },
    {
      "midi": 56,
      "hit": false,
      "t": 967800,
      "d": 1200,
      "v": 127
    },
    {
      "midi": 58,
      "hit": false,
      "t": 967800,
      "d": 1200,
      "v": 127
    },
    {
      "midi": 65,
      "hit": false,
      "t": 967800,
      "d": 1200,
      "v": 127
    },
    {
      "midi": 70,
      "hit": false,
      "t": 968400,
      "d": 900,
      "v": 127
    },
    {
      "midi": 56,
      "hit": false,
      "t": 969000,
      "d": 600,
      "v": 127
    },
    {
      "midi": 58,
      "hit": false,
      "t": 969000,
      "d": 600,
      "v": 127
    },
    {
      "midi": 65,
      "hit": false,
      "t": 969000,
      "d": 600,
      "v": 127
    },
    {
      "midi": 69,
      "hit": false,
      "t": 969300,
      "d": 300,
      "v": 127
    },
    {
      "midi": 70,
      "hit": false,
      "t": 969600,
      "d": 300,
      "v": 127
    },
    {
      "midi": 51,
      "hit": false,
      "t": 969600,
      "d": 600,
      "v": 127
    },
    {
      "midi": 72,
      "hit": false,
      "t": 969900,
      "d": 300,
      "v": 127
    },
    {
      "midi": 74,
      "hit": false,
      "t": 969900,
      "d": 300,
      "v": 127
    },
    {
      "midi": 75,
      "hit": false,
      "t": 970200,
      "d": 300,
      "v": 127
    },
    {
      "midi": 55,
      "hit": false,
      "t": 970200,
      "d": 1200,
      "v": 127
    },
    {
      "midi": 58,
      "hit": false,
      "t": 970200,
      "d": 1200,
      "v": 127
    },
    {
      "midi": 63,
      "hit": false,
      "t": 970200,
      "d": 1200,
      "v": 127
    },
    {
      "midi": 77,
      "hit": false,
      "t": 970500,
      "d": 300,
      "v": 127
    },
    {
      "midi": 79,
      "hit": false,
      "t": 970500,
      "d": 300,
      "v": 127
    },
    {
      "midi": 81,
      "hit": false,
      "t": 970800,
      "d": 300,
      "v": 127
    },
    {
      "midi": 82,
      "hit": false,
      "t": 971100,
      "d": 300,
      "v": 127
    },
    {
      "midi": 84,
      "hit": false,
      "t": 971100,
      "d": 300,
      "v": 127
    },
    {
      "midi": 86,
      "hit": false,
      "t": 971400,
      "d": 300,
      "v": 127
    },
    {
      "midi": 55,
      "hit": false,
      "t": 971400,
      "d": 600,
      "v": 127
    },
    {
      "midi": 58,
      "hit": false,
      "t": 971400,
      "d": 600,
      "v": 127
    },
    {
      "midi": 63,
      "hit": false,
      "t": 971400,
      "d": 600,
      "v": 127
    },
    {
      "midi": 87,
      "hit": false,
      "t": 971700,
      "d": 300,
      "v": 127
    },
    {
      "midi": 89,
      "hit": false,
      "t": 971700,
      "d": 300,
      "v": 127
    },
    {
      "midi": 91,
      "hit": false,
      "t": 972000,
      "d": 900,
      "v": 127
    },
    {
      "midi": 52,
      "hit": false,
      "t": 972000,
      "d": 600,
      "v": 127
    },
    {
      "midi": 58,
      "hit": false,
      "t": 972600,
      "d": 1200,
      "v": 127
    },
    {
      "midi": 61,
      "hit": false,
      "t": 972600,
      "d": 1200,
      "v": 127
    },
    {
      "midi": 67,
      "hit": false,
      "t": 972600,
      "d": 1200,
      "v": 127
    },
    {
      "midi": 94,
      "hit": false,
      "t": 972900,
      "d": 300,
      "v": 127
    },
    {
      "midi": 97,
      "hit": false,
      "t": 973200,
      "d": 900,
      "v": 127
    },
    {
      "midi": 58,
      "hit": false,
      "t": 973800,
      "d": 600,
      "v": 127
    },
    {
      "midi": 61,
      "hit": false,
      "t": 973800,
      "d": 600,
      "v": 127
    },
    {
      "midi": 67,
      "hit": false,
      "t": 973800,
      "d": 600,
      "v": 127
    },
    {
      "midi": 72,
      "hit": false,
      "t": 974100,
      "d": 300,
      "v": 127
    },
    {
      "midi": 71,
      "hit": false,
      "t": 974400,
      "d": 300,
      "v": 127
    },
    {
      "midi": 55,
      "hit": false,
      "t": 974400,
      "d": 600,
      "v": 127
    },
    {
      "midi": 72,
      "hit": false,
      "t": 974700,
      "d": 300,
      "v": 127
    },
    {
      "midi": 74,
      "hit": false,
      "t": 974700,
      "d": 300,
      "v": 127
    },
    {
      "midi": 76,
      "hit": false,
      "t": 975000,
      "d": 300,
      "v": 127
    },
    {
      "midi": 58,
      "hit": false,
      "t": 975000,
      "d": 1200,
      "v": 127
    },
    {
      "midi": 60,
      "hit": false,
      "t": 975000,
      "d": 1200,
      "v": 127
    },
    {
      "midi": 64,
      "hit": false,
      "t": 975000,
      "d": 1200,
      "v": 127
    },
    {
      "midi": 77,
      "hit": false,
      "t": 975300,
      "d": 300,
      "v": 127
    },
    {
      "midi": 79,
      "hit": false,
      "t": 975300,
      "d": 300,
      "v": 127
    },
    {
      "midi": 81,
      "hit": false,
      "t": 975600,
      "d": 300,
      "v": 127
    },
    {
      "midi": 82,
      "hit": false,
      "t": 975900,
      "d": 300,
      "v": 127
    },
    {
      "midi": 84,
      "hit": false,
      "t": 975900,
      "d": 300,
      "v": 127
    },
    {
      "midi": 86,
      "hit": false,
      "t": 976200,
      "d": 300,
      "v": 127
    },
    {
      "midi": 58,
      "hit": false,
      "t": 976200,
      "d": 600,
      "v": 127
    },
    {
      "midi": 60,
      "hit": false,
      "t": 976200,
      "d": 600,
      "v": 127
    },
    {
      "midi": 64,
      "hit": false,
      "t": 976200,
      "d": 600,
      "v": 127
    },
    {
      "midi": 87,
      "hit": false,
      "t": 976500,
      "d": 300,
      "v": 127
    },
    {
      "midi": 88,
      "hit": false,
      "t": 976500,
      "d": 300,
      "v": 127
    },
    {
      "midi": 89,
      "hit": false,
      "t": 976800,
      "d": 300,
      "v": 127
    },
    {
      "midi": 53,
      "hit": false,
      "t": 976800,
      "d": 600,
      "v": 127
    },
    {
      "midi": 100,
      "hit": false,
      "t": 977100,
      "d": 300,
      "v": 127
    },
    {
      "midi": 101,
      "hit": false,
      "t": 977100,
      "d": 300,
      "v": 127
    },
    {
      "midi": 99,
      "hit": false,
      "t": 977400,
      "d": 300,
      "v": 127
    },
    {
      "midi": 58,
      "hit": false,
      "t": 977400,
      "d": 1200,
      "v": 127
    },
    {
      "midi": 62,
      "hit": false,
      "t": 977400,
      "d": 1200,
      "v": 127
    },
    {
      "midi": 65,
      "hit": false,
      "t": 977400,
      "d": 1200,
      "v": 127
    },
    {
      "midi": 96,
      "hit": false,
      "t": 977700,
      "d": 300,
      "v": 127
    },
    {
      "midi": 98,
      "hit": false,
      "t": 977700,
      "d": 300,
      "v": 127
    },
    {
      "midi": 94,
      "hit": false,
      "t": 978000,
      "d": 300,
      "v": 127
    },
    {
      "midi": 91,
      "hit": false,
      "t": 978300,
      "d": 300,
      "v": 127
    },
    {
      "midi": 93,
      "hit": false,
      "t": 978300,
      "d": 300,
      "v": 127
    },
    {
      "midi": 89,
      "hit": false,
      "t": 978600,
      "d": 300,
      "v": 127
    },
    {
      "midi": 58,
      "hit": false,
      "t": 978600,
      "d": 600,
      "v": 127
    },
    {
      "midi": 62,
      "hit": false,
      "t": 978600,
      "d": 600,
      "v": 127
    },
    {
      "midi": 65,
      "hit": false,
      "t": 978600,
      "d": 600,
      "v": 127
    },
    {
      "midi": 86,
      "hit": false,
      "t": 978900,
      "d": 300,
      "v": 127
    },
    {
      "midi": 87,
      "hit": false,
      "t": 978900,
      "d": 300,
      "v": 127
    },
    {
      "midi": 84,
      "hit": false,
      "t": 979200,
      "d": 300,
      "v": 127
    },
    {
      "midi": 41,
      "hit": false,
      "t": 979200,
      "d": 600,
      "v": 127
    },
    {
      "midi": 91,
      "hit": false,
      "t": 979500,
      "d": 300,
      "v": 127
    },
    {
      "midi": 93,
      "hit": false,
      "t": 979500,
      "d": 300,
      "v": 127
    },
    {
      "midi": 87,
      "hit": false,
      "t": 979800,
      "d": 300,
      "v": 127
    },
    {
      "midi": 53,
      "hit": false,
      "t": 979800,
      "d": 1200,
      "v": 127
    },
    {
      "midi": 57,
      "hit": false,
      "t": 979800,
      "d": 1200,
      "v": 127
    },
    {
      "midi": 63,
      "hit": false,
      "t": 979800,
      "d": 1200,
      "v": 127
    },
    {
      "midi": 82,
      "hit": false,
      "t": 980100,
      "d": 300,
      "v": 127
    },
    {
      "midi": 84,
      "hit": false,
      "t": 980100,
      "d": 300,
      "v": 127
    },
    {
      "midi": 81,
      "hit": false,
      "t": 980400,
      "d": 300,
      "v": 127
    },
    {
      "midi": 77,
      "hit": false,
      "t": 980700,
      "d": 300,
      "v": 127
    },
    {
      "midi": 79,
      "hit": false,
      "t": 980700,
      "d": 300,
      "v": 127
    },
    {
      "midi": 75,
      "hit": false,
      "t": 981000,
      "d": 300,
      "v": 127
    },
    {
      "midi": 53,
      "hit": false,
      "t": 981000,
      "d": 600,
      "v": 127
    },
    {
      "midi": 57,
      "hit": false,
      "t": 981000,
      "d": 600,
      "v": 127
    },
    {
      "midi": 63,
      "hit": false,
      "t": 981000,
      "d": 600,
      "v": 127
    },
    {
      "midi": 72,
      "hit": false,
      "t": 981300,
      "d": 300,
      "v": 127
    },
    {
      "midi": 74,
      "hit": false,
      "t": 981300,
      "d": 300,
      "v": 127
    },
    {
      "midi": 70,
      "hit": false,
      "t": 981600,
      "d": 300,
      "v": 127
    },
    {
      "midi": 41,
      "hit": false,
      "t": 981600,
      "d": 600,
      "v": 127
    },
    {
      "midi": 74,
      "hit": false,
      "t": 981900,
      "d": 300,
      "v": 127
    },
    {
      "midi": 77,
      "hit": false,
      "t": 981900,
      "d": 300,
      "v": 127
    },
    {
      "midi": 82,
      "hit": false,
      "t": 982200,
      "d": 300,
      "v": 127
    },
    {
      "midi": 53,
      "hit": false,
      "t": 982200,
      "d": 1200,
      "v": 127
    },
    {
      "midi": 58,
      "hit": false,
      "t": 982200,
      "d": 1200,
      "v": 127
    },
    {
      "midi": 62,
      "hit": false,
      "t": 982200,
      "d": 1200,
      "v": 127
    },
    {
      "midi": 84,
      "hit": false,
      "t": 982500,
      "d": 300,
      "v": 127
    },
    {
      "midi": 86,
      "hit": false,
      "t": 982500,
      "d": 300,
      "v": 127
    },
    {
      "midi": 82,
      "hit": false,
      "t": 982800,
      "d": 300,
      "v": 127
    },
    {
      "midi": 79,
      "hit": false,
      "t": 983100,
      "d": 300,
      "v": 127
    },
    {
      "midi": 81,
      "hit": false,
      "t": 983100,
      "d": 300,
      "v": 127
    },
    {
      "midi": 77,
      "hit": false,
      "t": 983400,
      "d": 300,
      "v": 127
    },
    {
      "midi": 53,
      "hit": false,
      "t": 983400,
      "d": 600,
      "v": 127
    },
    {
      "midi": 58,
      "hit": false,
      "t": 983400,
      "d": 600,
      "v": 127
    },
    {
      "midi": 62,
      "hit": false,
      "t": 983400,
      "d": 600,
      "v": 127
    },
    {
      "midi": 74,
      "hit": false,
      "t": 983700,
      "d": 300,
      "v": 127
    },
    {
      "midi": 75,
      "hit": false,
      "t": 983700,
      "d": 300,
      "v": 127
    },
    {
      "midi": 72,
      "hit": false,
      "t": 984000,
      "d": 300,
      "v": 127
    },
    {
      "midi": 41,
      "hit": false,
      "t": 984000,
      "d": 600,
      "v": 127
    },
    {
      "midi": 79,
      "hit": false,
      "t": 984300,
      "d": 300,
      "v": 127
    },
    {
      "midi": 81,
      "hit": false,
      "t": 984300,
      "d": 300,
      "v": 127
    },
    {
      "midi": 75,
      "hit": false,
      "t": 984600,
      "d": 300,
      "v": 127
    },
    {
      "midi": 51,
      "hit": false,
      "t": 984600,
      "d": 1200,
      "v": 127
    },
    {
      "midi": 53,
      "hit": false,
      "t": 984600,
      "d": 1200,
      "v": 127
    },
    {
      "midi": 57,
      "hit": false,
      "t": 984600,
      "d": 1200,
      "v": 127
    },
    {
      "midi": 70,
      "hit": false,
      "t": 984900,
      "d": 300,
      "v": 127
    },
    {
      "midi": 72,
      "hit": false,
      "t": 984900,
      "d": 300,
      "v": 127
    },
    {
      "midi": 69,
      "hit": false,
      "t": 985200,
      "d": 300,
      "v": 127
    },
    {
      "midi": 65,
      "hit": false,
      "t": 985500,
      "d": 300,
      "v": 127
    },
    {
      "midi": 67,
      "hit": false,
      "t": 985500,
      "d": 300,
      "v": 127
    },
    {
      "midi": 63,
      "hit": false,
      "t": 985800,
      "d": 300,
      "v": 127
    },
    {
      "midi": 51,
      "hit": false,
      "t": 985800,
      "d": 600,
      "v": 127
    },
    {
      "midi": 53,
      "hit": false,
      "t": 985800,
      "d": 600,
      "v": 127
    },
    {
      "midi": 57,
      "hit": false,
      "t": 985800,
      "d": 600,
      "v": 127
    },
    {
      "midi": 60,
      "hit": false,
      "t": 986100,
      "d": 300,
      "v": 127
    },
    {
      "midi": 62,
      "hit": false,
      "t": 986100,
      "d": 300,
      "v": 127
    },
    {
      "midi": 58,
      "hit": false,
      "t": 986400,
      "d": 300,
      "v": 127
    },
    {
      "midi": 41,
      "hit": false,
      "t": 986400,
      "d": 600,
      "v": 127
    },
    {
      "midi": 62,
      "hit": false,
      "t": 986700,
      "d": 300,
      "v": 127
    },
    {
      "midi": 65,
      "hit": false,
      "t": 986700,
      "d": 300,
      "v": 127
    },
    {
      "midi": 70,
      "hit": false,
      "t": 987000,
      "d": 300,
      "v": 127
    },
    {
      "midi": 50,
      "hit": false,
      "t": 987000,
      "d": 1200,
      "v": 127
    },
    {
      "midi": 53,
      "hit": false,
      "t": 987000,
      "d": 1200,
      "v": 127
    },
    {
      "midi": 58,
      "hit": false,
      "t": 987000,
      "d": 1200,
      "v": 127
    },
    {
      "midi": 72,
      "hit": false,
      "t": 987300,
      "d": 300,
      "v": 127
    },
    {
      "midi": 74,
      "hit": false,
      "t": 987300,
      "d": 300,
      "v": 127
    },
    {
      "midi": 70,
      "hit": false,
      "t": 987600,
      "d": 300,
      "v": 127
    },
    {
      "midi": 67,
      "hit": false,
      "t": 987900,
      "d": 300,
      "v": 127
    },
    {
      "midi": 69,
      "hit": false,
      "t": 987900,
      "d": 300,
      "v": 127
    },
    {
      "midi": 65,
      "hit": false,
      "t": 988200,
      "d": 300,
      "v": 127
    },
    {
      "midi": 50,
      "hit": false,
      "t": 988200,
      "d": 600,
      "v": 127
    },
    {
      "midi": 53,
      "hit": false,
      "t": 988200,
      "d": 600,
      "v": 127
    },
    {
      "midi": 58,
      "hit": false,
      "t": 988200,
      "d": 600,
      "v": 127
    },
    {
      "midi": 62,
      "hit": false,
      "t": 988500,
      "d": 300,
      "v": 127
    },
    {
      "midi": 63,
      "hit": false,
      "t": 988500,
      "d": 300,
      "v": 127
    },
    {
      "midi": 60,
      "hit": false,
      "t": 988800,
      "d": 300,
      "v": 127
    },
    {
      "midi": 29,
      "hit": false,
      "t": 988800,
      "d": 600,
      "v": 127
    },
    {
      "midi": 67,
      "hit": false,
      "t": 989100,
      "d": 300,
      "v": 127
    },
    {
      "midi": 69,
      "hit": false,
      "t": 989100,
      "d": 300,
      "v": 127
    },
    {
      "midi": 63,
      "hit": false,
      "t": 989400,
      "d": 300,
      "v": 127
    },
    {
      "midi": 51,
      "hit": false,
      "t": 989400,
      "d": 600,
      "v": 127
    },
    {
      "midi": 58,
      "hit": false,
      "t": 989700,
      "d": 300,
      "v": 127
    },
    {
      "midi": 60,
      "hit": false,
      "t": 989700,
      "d": 300,
      "v": 127
    },
    {
      "midi": 57,
      "hit": false,
      "t": 990000,
      "d": 300,
      "v": 127
    },
    {
      "midi": 53,
      "hit": false,
      "t": 990300,
      "d": 300,
      "v": 127
    },
    {
      "midi": 55,
      "hit": false,
      "t": 990300,
      "d": 300,
      "v": 127
    },
    {
      "midi": 51,
      "hit": false,
      "t": 990600,
      "d": 300,
      "v": 127
    },
    {
      "midi": 48,
      "hit": false,
      "t": 990900,
      "d": 300,
      "v": 127
    },
    {
      "midi": 50,
      "hit": false,
      "t": 990900,
      "d": 300,
      "v": 127
    },
    {
      "midi": 41,
      "hit": false,
      "t": 993000,
      "d": 600,
      "v": 127
    },
    {
      "midi": 53,
      "hit": false,
      "t": 993000,
      "d": 600,
      "v": 127
    },
    {
      "midi": 34,
      "hit": false,
      "t": 993600,
      "d": 1200,
      "v": 127
    },
    {
      "midi": 41,
      "hit": false,
      "t": 993600,
      "d": 1200,
      "v": 127
    },
    {
      "midi": 46,
      "hit": false,
      "t": 993600,
      "d": 1200,
      "v": 127
    },
    {
      "midi": 50,
      "hit": false,
      "t": 993600,
      "d": 1200,
      "v": 127
    },
    {
      "midi": 53,
      "hit": false,
      "t": 993600,
      "d": 1200,
      "v": 127
    },
    {
      "midi": 62,
      "hit": false,
      "t": 993600,
      "d": 1200,
      "v": 127
    },
    {
      "midi": 34,
      "hit": false,
      "t": 994800,
      "d": 600,
      "v": 127
    },
    {
      "midi": 41,
      "hit": false,
      "t": 994800,
      "d": 600,
      "v": 127
    },
    {
      "midi": 46,
      "hit": false,
      "t": 994800,
      "d": 600,
      "v": 127
    },
    {
      "midi": 50,
      "hit": false,
      "t": 994800,
      "d": 600,
      "v": 127
    },
    {
      "midi": 53,
      "hit": false,
      "t": 994800,
      "d": 600,
      "v": 127
    },
    {
      "midi": 62,
      "hit": false,
      "t": 994800,
      "d": 600,
      "v": 127
    },
    {
      "midi": 34,
      "hit": false,
      "t": 995400,
      "d": 600,
      "v": 127
    },
    {
      "midi": 41,
      "hit": false,
      "t": 995400,
      "d": 600,
      "v": 127
    },
    {
      "midi": 46,
      "hit": false,
      "t": 995400,
      "d": 600,
      "v": 127
    },
    {
      "midi": 50,
      "hit": false,
      "t": 995400,
      "d": 600,
      "v": 127
    },
    {
      "midi": 53,
      "hit": false,
      "t": 995400,
      "d": 600,
      "v": 127
    },
    {
      "midi": 62,
      "hit": false,
      "t": 995400,
      "d": 600,
      "v": 127
    },
    {
      "midi": 34,
      "hit": false,
      "t": 996000,
      "d": 1200,
      "v": 127
    },
    {
      "midi": 38,
      "hit": false,
      "t": 996000,
      "d": 1200,
      "v": 127
    },
    {
      "midi": 50,
      "hit": false,
      "t": 996000,
      "d": 1200,
      "v": 127
    },
    {
      "midi": 53,
      "hit": false,
      "t": 996000,
      "d": 1200,
      "v": 127
    },
    {
      "midi": 58,
      "hit": false,
      "t": 996000,
      "d": 1200,
      "v": 127
    },
    {
      "midi": 34,
      "hit": false,
      "t": 997200,
      "d": 1200,
      "v": 127
    },
    {
      "midi": 38,
      "hit": false,
      "t": 997200,
      "d": 1200,
      "v": 127
    },
    {
      "midi": 50,
      "hit": false,
      "t": 997200,
      "d": 1200,
      "v": 127
    },
    {
      "midi": 53,
      "hit": false,
      "t": 997200,
      "d": 1200,
      "v": 127
    },
    {
      "midi": 58,
      "hit": false,
      "t": 997200,
      "d": 1200,
      "v": 127
    },
    {
      "midi": 36,
      "hit": false,
      "t": 998400,
      "d": 1200,
      "v": 127
    },
    {
      "midi": 41,
      "hit": false,
      "t": 998400,
      "d": 1200,
      "v": 127
    },
    {
      "midi": 48,
      "hit": false,
      "t": 998400,
      "d": 1200,
      "v": 127
    },
    {
      "midi": 51,
      "hit": false,
      "t": 998400,
      "d": 1200,
      "v": 127
    },
    {
      "midi": 53,
      "hit": false,
      "t": 998400,
      "d": 1200,
      "v": 127
    },
    {
      "midi": 57,
      "hit": false,
      "t": 998400,
      "d": 1200,
      "v": 127
    },
    {
      "midi": 36,
      "hit": false,
      "t": 999600,
      "d": 600,
      "v": 127
    },
    {
      "midi": 41,
      "hit": false,
      "t": 999600,
      "d": 600,
      "v": 127
    },
    {
      "midi": 48,
      "hit": false,
      "t": 999600,
      "d": 600,
      "v": 127
    },
    {
      "midi": 51,
      "hit": false,
      "t": 999600,
      "d": 600,
      "v": 127
    },
    {
      "midi": 53,
      "hit": false,
      "t": 999600,
      "d": 600,
      "v": 127
    },
    {
      "midi": 57,
      "hit": false,
      "t": 999600,
      "d": 600,
      "v": 127
    },
    {
      "midi": 36,
      "hit": false,
      "t": 1000200,
      "d": 600,
      "v": 127
    },
    {
      "midi": 41,
      "hit": false,
      "t": 1000200,
      "d": 600,
      "v": 127
    },
    {
      "midi": 48,
      "hit": false,
      "t": 1000200,
      "d": 600,
      "v": 127
    },
    {
      "midi": 51,
      "hit": false,
      "t": 1000200,
      "d": 600,
      "v": 127
    },
    {
      "midi": 53,
      "hit": false,
      "t": 1000200,
      "d": 600,
      "v": 127
    },
    {
      "midi": 57,
      "hit": false,
      "t": 1000200,
      "d": 600,
      "v": 127
    },
    {
      "midi": 60,
      "hit": false,
      "t": 1000800,
      "d": 2400,
      "v": 127
    },
    {
      "midi": 63,
      "hit": false,
      "t": 1000800,
      "d": 2400,
      "v": 127
    },
    {
      "midi": 54,
      "hit": false,
      "t": 1000800,
      "d": 1200,
      "v": 127
    },
    {
      "midi": 41,
      "hit": false,
      "t": 1002000,
      "d": 1200,
      "v": 127
    },
    {
      "midi": 53,
      "hit": false,
      "t": 1002000,
      "d": 1200,
      "v": 127
    },
    {
      "midi": 62,
      "hit": false,
      "t": 1003200,
      "d": 1200,
      "v": 127
    },
    {
      "midi": 34,
      "hit": false,
      "t": 1003200,
      "d": 1200,
      "v": 127
    },
    {
      "midi": 41,
      "hit": false,
      "t": 1003200,
      "d": 1200,
      "v": 127
    },
    {
      "midi": 46,
      "hit": false,
      "t": 1003200,
      "d": 1200,
      "v": 127
    },
    {
      "midi": 50,
      "hit": false,
      "t": 1003200,
      "d": 1200,
      "v": 127
    },
    {
      "midi": 53,
      "hit": false,
      "t": 1003200,
      "d": 1200,
      "v": 127
    },
    {
      "midi": 58,
      "hit": false,
      "t": 1003200,
      "d": 1200,
      "v": 127
    },
    {
      "midi": 62,
      "hit": false,
      "t": 1004400,
      "d": 600,
      "v": 127
    },
    {
      "midi": 31,
      "hit": false,
      "t": 1004400,
      "d": 600,
      "v": 127
    },
    {
      "midi": 43,
      "hit": false,
      "t": 1004400,
      "d": 600,
      "v": 127
    },
    {
      "midi": 53,
      "hit": false,
      "t": 1004400,
      "d": 600,
      "v": 127
    },
    {
      "midi": 55,
      "hit": false,
      "t": 1004400,
      "d": 600,
      "v": 127
    },
    {
      "midi": 59,
      "hit": false,
      "t": 1004400,
      "d": 600,
      "v": 127
    },
    {
      "midi": 62,
      "hit": false,
      "t": 1005000,
      "d": 600,
      "v": 127
    },
    {
      "midi": 31,
      "hit": false,
      "t": 1005000,
      "d": 600,
      "v": 127
    },
    {
      "midi": 43,
      "hit": false,
      "t": 1005000,
      "d": 600,
      "v": 127
    },
    {
      "midi": 53,
      "hit": false,
      "t": 1005000,
      "d": 600,
      "v": 127
    },
    {
      "midi": 55,
      "hit": false,
      "t": 1005000,
      "d": 600,
      "v": 127
    },
    {
      "midi": 59,
      "hit": false,
      "t": 1005000,
      "d": 600,
      "v": 127
    },
    {
      "midi": 62,
      "hit": false,
      "t": 1005600,
      "d": 2400,
      "v": 127
    },
    {
      "midi": 36,
      "hit": false,
      "t": 1005600,
      "d": 2400,
      "v": 127
    },
    {
      "midi": 43,
      "hit": false,
      "t": 1005600,
      "d": 2400,
      "v": 127
    },
    {
      "midi": 48,
      "hit": false,
      "t": 1005600,
      "d": 2400,
      "v": 127
    },
    {
      "midi": 51,
      "hit": false,
      "t": 1005600,
      "d": 2400,
      "v": 127
    },
    {
      "midi": 55,
      "hit": false,
      "t": 1005600,
      "d": 2400,
      "v": 127
    },
    {
      "midi": 60,
      "hit": false,
      "t": 1008000,
      "d": 600,
      "v": 127
    },
    {
      "midi": 29,
      "hit": false,
      "t": 1008000,
      "d": 2400,
      "v": 127
    },
    {
      "midi": 41,
      "hit": false,
      "t": 1008000,
      "d": 2400,
      "v": 127
    },
    {
      "midi": 51,
      "hit": false,
      "t": 1008000,
      "d": 2400,
      "v": 127
    },
    {
      "midi": 57,
      "hit": false,
      "t": 1008000,
      "d": 2400,
      "v": 127
    },
    {
      "midi": 59,
      "hit": false,
      "t": 1008600,
      "d": 300,
      "v": 127
    },
    {
      "midi": 60,
      "hit": false,
      "t": 1008900,
      "d": 300,
      "v": 127
    },
    {
      "midi": 59,
      "hit": false,
      "t": 1009200,
      "d": 300,
      "v": 127
    },
    {
      "midi": 60,
      "hit": false,
      "t": 1009500,
      "d": 300,
      "v": 127
    },
    {
      "midi": 62,
      "hit": false,
      "t": 1009800,
      "d": 300,
      "v": 127
    },
    {
      "midi": 60,
      "hit": false,
      "t": 1010100,
      "d": 300,
      "v": 127
    },
    {
      "midi": 58,
      "hit": false,
      "t": 1010400,
      "d": 2400,
      "v": 127
    },
    {
      "midi": 34,
      "hit": false,
      "t": 1010400,
      "d": 2400,
      "v": 127
    },
    {
      "midi": 41,
      "hit": false,
      "t": 1010400,
      "d": 2400,
      "v": 127
    },
    {
      "midi": 46,
      "hit": false,
      "t": 1010400,
      "d": 2400,
      "v": 127
    },
    {
      "midi": 50,
      "hit": false,
      "t": 1010400,
      "d": 2400,
      "v": 127
    },
    {
      "midi": 62,
      "hit": false,
      "t": 1012800,
      "d": 1200,
      "v": 127
    },
    {
      "midi": 65,
      "hit": false,
      "t": 1012800,
      "d": 1200,
      "v": 127
    },
    {
      "midi": 70,
      "hit": false,
      "t": 1012800,
      "d": 1200,
      "v": 127
    },
    {
      "midi": 74,
      "hit": false,
      "t": 1012800,
      "d": 1200,
      "v": 127
    },
    {
      "midi": 46,
      "hit": false,
      "t": 1012800,
      "d": 1200,
      "v": 127
    },
    {
      "midi": 53,
      "hit": false,
      "t": 1012800,
      "d": 1200,
      "v": 127
    },
    {
      "midi": 58,
      "hit": false,
      "t": 1012800,
      "d": 1200,
      "v": 127
    },
    {
      "midi": 65,
      "hit": false,
      "t": 1014000,
      "d": 600,
      "v": 127
    },
    {
      "midi": 67,
      "hit": false,
      "t": 1014000,
      "d": 600,
      "v": 127
    },
    {
      "midi": 71,
      "hit": false,
      "t": 1014000,
      "d": 600,
      "v": 127
    },
    {
      "midi": 74,
      "hit": false,
      "t": 1014000,
      "d": 600,
      "v": 127
    },
    {
      "midi": 43,
      "hit": false,
      "t": 1014000,
      "d": 600,
      "v": 127
    },
    {
      "midi": 55,
      "hit": false,
      "t": 1014000,
      "d": 600,
      "v": 127
    },
    {
      "midi": 65,
      "hit": false,
      "t": 1014600,
      "d": 600,
      "v": 127
    },
    {
      "midi": 67,
      "hit": false,
      "t": 1014600,
      "d": 600,
      "v": 127
    },
    {
      "midi": 71,
      "hit": false,
      "t": 1014600,
      "d": 600,
      "v": 127
    },
    {
      "midi": 74,
      "hit": false,
      "t": 1014600,
      "d": 600,
      "v": 127
    },
    {
      "midi": 43,
      "hit": false,
      "t": 1014600,
      "d": 600,
      "v": 127
    },
    {
      "midi": 55,
      "hit": false,
      "t": 1014600,
      "d": 600,
      "v": 127
    },
    {
      "midi": 63,
      "hit": false,
      "t": 1015200,
      "d": 2400,
      "v": 127
    },
    {
      "midi": 67,
      "hit": false,
      "t": 1015200,
      "d": 2400,
      "v": 127
    },
    {
      "midi": 74,
      "hit": false,
      "t": 1015200,
      "d": 2400,
      "v": 127
    },
    {
      "midi": 48,
      "hit": false,
      "t": 1015200,
      "d": 2400,
      "v": 127
    },
    {
      "midi": 55,
      "hit": false,
      "t": 1015200,
      "d": 2400,
      "v": 127
    },
    {
      "midi": 60,
      "hit": false,
      "t": 1015200,
      "d": 2400,
      "v": 127
    },
    {
      "midi": 72,
      "hit": false,
      "t": 1017600,
      "d": 600,
      "v": 127
    },
    {
      "midi": 41,
      "hit": false,
      "t": 1017600,
      "d": 2400,
      "v": 127
    },
    {
      "midi": 53,
      "hit": false,
      "t": 1017600,
      "d": 2400,
      "v": 127
    },
    {
      "midi": 71,
      "hit": false,
      "t": 1018200,
      "d": 300,
      "v": 127
    },
    {
      "midi": 72,
      "hit": false,
      "t": 1018500,
      "d": 300,
      "v": 127
    },
    {
      "midi": 71,
      "hit": false,
      "t": 1018800,
      "d": 300,
      "v": 127
    },
    {
      "midi": 72,
      "hit": false,
      "t": 1019100,
      "d": 300,
      "v": 127
    },
    {
      "midi": 74,
      "hit": false,
      "t": 1019400,
      "d": 300,
      "v": 127
    },
    {
      "midi": 72,
      "hit": false,
      "t": 1019700,
      "d": 300,
      "v": 127
    },
    {
      "midi": 62,
      "hit": false,
      "t": 1020000,
      "d": 2400,
      "v": 127
    },
    {
      "midi": 70,
      "hit": false,
      "t": 1020000,
      "d": 2400,
      "v": 127
    },
    {
      "midi": 46,
      "hit": false,
      "t": 1020000,
      "d": 2400,
      "v": 127
    },
    {
      "midi": 53,
      "hit": false,
      "t": 1020000,
      "d": 2400,
      "v": 127
    },
    {
      "midi": 58,
      "hit": false,
      "t": 1020000,
      "d": 2400,
      "v": 127
    },
    {
      "midi": 75,
      "hit": false,
      "t": 1022400,
      "d": 2400,
      "v": 127
    },
    {
      "midi": 81,
      "hit": false,
      "t": 1022400,
      "d": 2400,
      "v": 127
    },
    {
      "midi": 84,
      "hit": false,
      "t": 1022400,
      "d": 2400,
      "v": 127
    },
    {
      "midi": 53,
      "hit": false,
      "t": 1022400,
      "d": 4800,
      "v": 127
    },
    {
      "midi": 60,
      "hit": false,
      "t": 1022400,
      "d": 4800,
      "v": 127
    },
    {
      "midi": 63,
      "hit": false,
      "t": 1022400,
      "d": 4800,
      "v": 127
    },
    {
      "midi": 65,
      "hit": false,
      "t": 1022400,
      "d": 4800,
      "v": 127
    },
    {
      "midi": 83,
      "hit": false,
      "t": 1025400,
      "d": 300,
      "v": 127
    },
    {
      "midi": 84,
      "hit": false,
      "t": 1025700,
      "d": 300,
      "v": 127
    },
    {
      "midi": 83,
      "hit": false,
      "t": 1026000,
      "d": 300,
      "v": 127
    },
    {
      "midi": 84,
      "hit": false,
      "t": 1026300,
      "d": 300,
      "v": 127
    },
    {
      "midi": 87,
      "hit": false,
      "t": 1026600,
      "d": 300,
      "v": 127
    },
    {
      "midi": 81,
      "hit": false,
      "t": 1026900,
      "d": 300,
      "v": 127
    },
    {
      "midi": 74,
      "hit": false,
      "t": 1027200,
      "d": 2400,
      "v": 127
    },
    {
      "midi": 82,
      "hit": false,
      "t": 1027200,
      "d": 2400,
      "v": 127
    },
    {
      "midi": 58,
      "hit": false,
      "t": 1027200,
      "d": 2400,
      "v": 127
    },
    {
      "midi": 62,
      "hit": false,
      "t": 1027200,
      "d": 2400,
      "v": 127
    },
    {
      "midi": 65,
      "hit": false,
      "t": 1027200,
      "d": 2400,
      "v": 127
    },
    {
      "midi": 62,
      "hit": false,
      "t": 1029600,
      "d": 2400,
      "v": 127
    },
    {
      "midi": 65,
      "hit": false,
      "t": 1029600,
      "d": 2400,
      "v": 127
    },
    {
      "midi": 70,
      "hit": false,
      "t": 1029600,
      "d": 2400,
      "v": 127
    },
    {
      "midi": 74,
      "hit": false,
      "t": 1029600,
      "d": 2400,
      "v": 127
    },
    {
      "midi": 46,
      "hit": false,
      "t": 1029600,
      "d": 2400,
      "v": 127
    },
    {
      "midi": 53,
      "hit": false,
      "t": 1029600,
      "d": 2400,
      "v": 127
    },
    {
      "midi": 58,
      "hit": false,
      "t": 1029600,
      "d": 2400,
      "v": 127
    },
    {
      "midi": 62,
      "hit": false,
      "t": 1032000,
      "d": 4800,
      "v": 127
    },
    {
      "midi": 65,
      "hit": false,
      "t": 1032000,
      "d": 4800,
      "v": 127
    },
    {
      "midi": 70,
      "hit": false,
      "t": 1032000,
      "d": 4800,
      "v": 127
    },
    {
      "midi": 46,
      "hit": false,
      "t": 1032000,
      "d": 4800,
      "v": 127
    },
    {
      "midi": 53,
      "hit": false,
      "t": 1032000,
      "d": 4800,
      "v": 127
    },
    {
      "midi": 58,
      "hit": false,
      "t": 1032000,
      "d": 4800,
      "v": 127
    }
  ]
}