{
  "jsonPath": "Classical/Classical/Franz Schubert/impromptu-in-es-dur.json",
  "path": "Classical\\Classical\\Franz Schubert\\Impromptu in Es-dur.mid",
  "name": "Impromptu in Es-dur",
  "difficulty": "Advanced",
  "bpm": 130.00013000013,
  "notes": [
    {
      "midi": 82,
      "hit": false,
      "t": 0,
      "d": 461.53799999999995,
      "v": 127
    },
    {
      "midi": 79,
      "hit": false,
      "t": 461.53799999999995,
      "d": 115.38449999999995,
      "v": 127
    },
    {
      "midi": 51,
      "hit": false,
      "t": 461.53799999999995,
      "d": 461.53799999999995,
      "v": 127
    },
    {
      "midi": 82,
      "hit": false,
      "t": 576.9224999999999,
      "d": 115.3845,
      "v": 127
    },
    {
      "midi": 80,
      "hit": false,
      "t": 807.6914999999999,
      "d": 115.3845,
      "v": 127
    },
    {
      "midi": 79,
      "hit": false,
      "t": 923.0759999999999,
      "d": 115.3845,
      "v": 127
    },
    {
      "midi": 58,
      "hit": false,
      "t": 923.0759999999999,
      "d": 461.5379999999999,
      "v": 127
    },
    {
      "midi": 77,
      "hit": false,
      "t": 1038.4605,
      "d": 115.38449999999989,
      "v": 127
    },
    {
      "midi": 75,
      "hit": false,
      "t": 1269.2294999999997,
      "d": 115.38449999999989,
      "v": 127
    },
    {
      "midi": 74,
      "hit": false,
      "t": 1384.6139999999996,
      "d": 115.38449999999989,
      "v": 127
    },
    {
      "midi": 72,
      "hit": false,
      "t": 1499.9984999999995,
      "d": 115.38449999999989,
      "v": 127
    },
    {
      "midi": 70,
      "hit": false,
      "t": 1730.7674999999992,
      "d": 115.38449999999989,
      "v": 127
    },
    {
      "midi": 68,
      "hit": false,
      "t": 1846.1519999999991,
      "d": 115.38449999999989,
      "v": 127
    },
    {
      "midi": 53,
      "hit": false,
      "t": 1846.1519999999998,
      "d": 461.5379999999998,
      "v": 127
    },
    {
      "midi": 67,
      "hit": false,
      "t": 1961.536499999999,
      "d": 115.38449999999989,
      "v": 127
    },
    {
      "midi": 65,
      "hit": false,
      "t": 2192.305499999999,
      "d": 115.38450000000012,
      "v": 127
    },
    {
      "midi": 63,
      "hit": false,
      "t": 2307.689999999999,
      "d": 115.38450000000012,
      "v": 127
    },
    {
      "midi": 58,
      "hit": false,
      "t": 2307.6899999999996,
      "d": 461.538,
      "v": 127
    },
    {
      "midi": 62,
      "hit": false,
      "t": 2423.0744999999993,
      "d": 115.38450000000012,
      "v": 127
    },
    {
      "midi": 60,
      "hit": false,
      "t": 2653.8434999999995,
      "d": 115.38450000000012,
      "v": 127
    },
    {
      "midi": 58,
      "hit": false,
      "t": 2769.2279999999996,
      "d": 115.38450000000012,
      "v": 127
    },
    {
      "midi": 60,
      "hit": false,
      "t": 2884.6124999999997,
      "d": 115.38450000000012,
      "v": 127
    },
    {
      "midi": 62,
      "hit": false,
      "t": 3115.3815,
      "d": 115.38450000000012,
      "v": 127
    },
    {
      "midi": 55,
      "hit": false,
      "t": 3230.7659999999996,
      "d": 461.538,
      "v": 127
    },
    {
      "midi": 63,
      "hit": false,
      "t": 3230.766,
      "d": 115.38450000000012,
      "v": 127
    },
    {
      "midi": 62,
      "hit": false,
      "t": 3346.1505,
      "d": 115.38450000000012,
      "v": 127
    },
    {
      "midi": 63,
      "hit": false,
      "t": 3576.9195000000004,
      "d": 115.38450000000012,
      "v": 127
    },
    {
      "midi": 58,
      "hit": false,
      "t": 3692.3039999999996,
      "d": 461.538,
      "v": 127
    },
    {
      "midi": 64,
      "hit": false,
      "t": 3692.3040000000005,
      "d": 115.38450000000012,
      "v": 127
    },
    {
      "midi": 63,
      "hit": false,
      "t": 3807.6885000000007,
      "d": 115.38450000000012,
      "v": 127
    },
    {
      "midi": 64,
      "hit": false,
      "t": 4038.457500000001,
      "d": 115.38449999999966,
      "v": 127
    },
    {
      "midi": 65,
      "hit": false,
      "t": 4153.842000000001,
      "d": 115.38450000000012,
      "v": 127
    },
    {
      "midi": 64,
      "hit": false,
      "t": 4269.226500000001,
      "d": 115.38450000000012,
      "v": 127
    },
    {
      "midi": 65,
      "hit": false,
      "t": 4499.995500000001,
      "d": 115.38450000000012,
      "v": 127
    },
    {
      "midi": 50,
      "hit": false,
      "t": 4615.379999999999,
      "d": 461.53799999999956,
      "v": 127
    },
    {
      "midi": 66,
      "hit": false,
      "t": 4615.380000000001,
      "d": 115.38450000000012,
      "v": 127
    },
    {
      "midi": 65,
      "hit": false,
      "t": 4730.764500000001,
      "d": 115.38450000000012,
      "v": 127
    },
    {
      "midi": 66,
      "hit": false,
      "t": 4961.533500000001,
      "d": 115.38450000000012,
      "v": 127
    },
    {
      "midi": 58,
      "hit": false,
      "t": 5076.917999999999,
      "d": 461.53799999999956,
      "v": 127
    },
    {
      "midi": 67,
      "hit": false,
      "t": 5076.9180000000015,
      "d": 115.38450000000012,
      "v": 127
    },
    {
      "midi": 66,
      "hit": false,
      "t": 5192.302500000002,
      "d": 115.38450000000012,
      "v": 127
    },
    {
      "midi": 67,
      "hit": false,
      "t": 5423.071500000002,
      "d": 115.38450000000012,
      "v": 127
    },
    {
      "midi": 68,
      "hit": false,
      "t": 5538.456000000002,
      "d": 115.38450000000012,
      "v": 127
    },
    {
      "midi": 67,
      "hit": false,
      "t": 5653.840500000002,
      "d": 115.38450000000012,
      "v": 127
    },
    {
      "midi": 68,
      "hit": false,
      "t": 5884.609500000002,
      "d": 115.38450000000012,
      "v": 127
    },
    {
      "midi": 51,
      "hit": false,
      "t": 5999.993999999998,
      "d": 461.53799999999956,
      "v": 127
    },
    {
      "midi": 67,
      "hit": false,
      "t": 5999.994000000002,
      "d": 115.38450000000012,
      "v": 127
    },
    {
      "midi": 70,
      "hit": false,
      "t": 6115.3785000000025,
      "d": 115.38450000000012,
      "v": 127
    },
    {
      "midi": 68,
      "hit": false,
      "t": 6346.147500000003,
      "d": 115.38450000000012,
      "v": 127
    },
    {
      "midi": 58,
      "hit": false,
      "t": 6461.531999999997,
      "d": 461.53799999999956,
      "v": 127
    },
    {
      "midi": 67,
      "hit": false,
      "t": 6461.532000000003,
      "d": 115.38450000000012,
      "v": 127
    },
    {
      "midi": 68,
      "hit": false,
      "t": 6576.916500000003,
      "d": 115.38450000000012,
      "v": 127
    },
    {
      "midi": 70,
      "hit": false,
      "t": 6807.685500000003,
      "d": 115.38450000000012,
      "v": 127
    },
    {
      "midi": 72,
      "hit": false,
      "t": 6923.070000000003,
      "d": 115.38450000000012,
      "v": 127
    },
    {
      "midi": 74,
      "hit": false,
      "t": 7038.4545000000035,
      "d": 115.38450000000012,
      "v": 127
    },
    {
      "midi": 75,
      "hit": false,
      "t": 7269.223500000004,
      "d": 115.38450000000012,
      "v": 127
    },
    {
      "midi": 44,
      "hit": false,
      "t": 7384.6079999999965,
      "d": 461.53799999999956,
      "v": 127
    },
    {
      "midi": 77,
      "hit": false,
      "t": 7384.608000000004,
      "d": 115.38450000000012,
      "v": 127
    },
    {
      "midi": 84,
      "hit": false,
      "t": 7499.992500000004,
      "d": 115.38450000000012,
      "v": 127
    },
    {
      "midi": 82,
      "hit": false,
      "t": 7730.761500000004,
      "d": 115.38450000000012,
      "v": 127
    },
    {
      "midi": 56,
      "hit": false,
      "t": 7846.145999999996,
      "d": 461.53799999999956,
      "v": 127
    },
    {
      "midi": 60,
      "hit": false,
      "t": 7846.145999999996,
      "d": 461.53799999999956,
      "v": 127
    },
    {
      "midi": 80,
      "hit": false,
      "t": 7846.146000000004,
      "d": 115.38450000000012,
      "v": 127
    },
    {
      "midi": 79,
      "hit": false,
      "t": 7961.530500000004,
      "d": 115.38450000000012,
      "v": 127
    },
    {
      "midi": 77,
      "hit": false,
      "t": 8192.299500000005,
      "d": 115.38450000000012,
      "v": 127
    },
    {
      "midi": 75,
      "hit": false,
      "t": 8307.684000000005,
      "d": 115.38450000000012,
      "v": 127
    },
    {
      "midi": 74,
      "hit": false,
      "t": 8423.068500000005,
      "d": 115.38450000000012,
      "v": 127
    },
    {
      "midi": 72,
      "hit": false,
      "t": 8653.837500000005,
      "d": 115.38450000000012,
      "v": 127
    },
    {
      "midi": 46,
      "hit": false,
      "t": 8769.221999999996,
      "d": 461.53800000000047,
      "v": 127
    },
    {
      "midi": 70,
      "hit": false,
      "t": 8769.222000000005,
      "d": 115.38450000000012,
      "v": 127
    },
    {
      "midi": 77,
      "hit": false,
      "t": 8884.606500000005,
      "d": 115.38450000000012,
      "v": 127
    },
    {
      "midi": 75,
      "hit": false,
      "t": 9115.375500000006,
      "d": 115.38450000000012,
      "v": 127
    },
    {
      "midi": 56,
      "hit": false,
      "t": 9230.759999999997,
      "d": 461.53800000000047,
      "v": 127
    },
    {
      "midi": 58,
      "hit": false,
      "t": 9230.759999999997,
      "d": 461.53800000000047,
      "v": 127
    },
    {
      "midi": 62,
      "hit": false,
      "t": 9230.759999999997,
      "d": 461.53800000000047,
      "v": 127
    },
    {
      "midi": 74,
      "hit": false,
      "t": 9230.760000000006,
      "d": 115.38450000000012,
      "v": 127
    },
    {
      "midi": 72,
      "hit": false,
      "t": 9346.144500000006,
      "d": 115.38450000000012,
      "v": 127
    },
    {
      "midi": 70,
      "hit": false,
      "t": 9576.913500000006,
      "d": 115.38450000000012,
      "v": 127
    },
    {
      "midi": 68,
      "hit": false,
      "t": 9692.298000000006,
      "d": 115.38450000000012,
      "v": 127
    },
    {
      "midi": 67,
      "hit": false,
      "t": 9807.682500000006,
      "d": 115.38450000000012,
      "v": 127
    },
    {
      "midi": 65,
      "hit": false,
      "t": 10038.451500000006,
      "d": 115.38450000000012,
      "v": 127
    },
    {
      "midi": 51,
      "hit": false,
      "t": 10153.835999999998,
      "d": 461.53800000000047,
      "v": 127
    },
    {
      "midi": 63,
      "hit": false,
      "t": 10153.836000000007,
      "d": 115.38450000000012,
      "v": 127
    },
    {
      "midi": 65,
      "hit": false,
      "t": 10269.220500000007,
      "d": 115.38450000000012,
      "v": 127
    },
    {
      "midi": 67,
      "hit": false,
      "t": 10499.989500000007,
      "d": 115.38450000000012,
      "v": 127
    },
    {
      "midi": 55,
      "hit": false,
      "t": 10615.373999999998,
      "d": 461.53800000000047,
      "v": 127
    },
    {
      "midi": 58,
      "hit": false,
      "t": 10615.373999999998,
      "d": 461.53800000000047,
      "v": 127
    },
    {
      "midi": 63,
      "hit": false,
      "t": 10615.373999999998,
      "d": 461.53800000000047,
      "v": 127
    },
    {
      "midi": 68,
      "hit": false,
      "t": 10615.374000000007,
      "d": 115.38450000000012,
      "v": 127
    },
    {
      "midi": 70,
      "hit": false,
      "t": 10730.758500000007,
      "d": 115.38450000000012,
      "v": 127
    },
    {
      "midi": 72,
      "hit": false,
      "t": 10961.527500000007,
      "d": 115.38450000000012,
      "v": 127
    },
    {
      "midi": 74,
      "hit": false,
      "t": 11076.912000000008,
      "d": 115.38450000000012,
      "v": 127
    },
    {
      "midi": 75,
      "hit": false,
      "t": 11192.296500000008,
      "d": 115.38450000000012,
      "v": 127
    },
    {
      "midi": 77,
      "hit": false,
      "t": 11423.065500000008,
      "d": 115.38450000000012,
      "v": 127
    },
    {
      "midi": 51,
      "hit": false,
      "t": 11538.449999999999,
      "d": 461.53800000000047,
      "v": 127
    },
    {
      "midi": 79,
      "hit": false,
      "t": 11538.450000000008,
      "d": 115.38450000000012,
      "v": 127
    },
    {
      "midi": 82,
      "hit": false,
      "t": 11653.834500000008,
      "d": 115.38450000000012,
      "v": 127
    },
    {
      "midi": 80,
      "hit": false,
      "t": 11884.603500000008,
      "d": 115.38450000000012,
      "v": 127
    },
    {
      "midi": 58,
      "hit": false,
      "t": 11999.988,
      "d": 461.53800000000047,
      "v": 127
    },
    {
      "midi": 79,
      "hit": false,
      "t": 11999.988000000008,
      "d": 115.38450000000012,
      "v": 127
    },
    {
      "midi": 77,
      "hit": false,
      "t": 12115.372500000009,
      "d": 115.38450000000012,
      "v": 127
    },
    {
      "midi": 75,
      "hit": false,
      "t": 12346.141500000009,
      "d": 115.38450000000012,
      "v": 127
    },
    {
      "midi": 74,
      "hit": false,
      "t": 12461.526000000009,
      "d": 115.38450000000012,
      "v": 127
    },
    {
      "midi": 72,
      "hit": false,
      "t": 12576.910500000009,
      "d": 115.38450000000012,
      "v": 127
    },
    {
      "midi": 70,
      "hit": false,
      "t": 12807.67950000001,
      "d": 115.38450000000012,
      "v": 127
    },
    {
      "midi": 53,
      "hit": false,
      "t": 12923.064,
      "d": 461.53800000000047,
      "v": 127
    },
    {
      "midi": 68,
      "hit": false,
      "t": 12923.06400000001,
      "d": 115.38450000000012,
      "v": 127
    },
    {
      "midi": 67,
      "hit": false,
      "t": 13038.44850000001,
      "d": 115.38450000000012,
      "v": 127
    },
    {
      "midi": 65,
      "hit": false,
      "t": 13269.21750000001,
      "d": 115.38450000000012,
      "v": 127
    },
    {
      "midi": 58,
      "hit": false,
      "t": 13384.602,
      "d": 461.53800000000047,
      "v": 127
    },
    {
      "midi": 63,
      "hit": false,
      "t": 13384.60200000001,
      "d": 115.38450000000012,
      "v": 127
    },
    {
      "midi": 62,
      "hit": false,
      "t": 13499.98650000001,
      "d": 115.38450000000012,
      "v": 127
    },
    {
      "midi": 60,
      "hit": false,
      "t": 13730.75550000001,
      "d": 115.38450000000012,
      "v": 127
    },
    {
      "midi": 58,
      "hit": false,
      "t": 13846.14000000001,
      "d": 115.38450000000012,
      "v": 127
    },
    {
      "midi": 60,
      "hit": false,
      "t": 13961.52450000001,
      "d": 115.38450000000012,
      "v": 127
    },
    {
      "midi": 62,
      "hit": false,
      "t": 14192.29350000001,
      "d": 115.38450000000012,
      "v": 127
    },
    {
      "midi": 55,
      "hit": false,
      "t": 14307.678000000002,
      "d": 461.53800000000047,
      "v": 127
    },
    {
      "midi": 63,
      "hit": false,
      "t": 14307.67800000001,
      "d": 115.38450000000012,
      "v": 127
    },
    {
      "midi": 62,
      "hit": false,
      "t": 14423.062500000011,
      "d": 115.38450000000012,
      "v": 127
    },
    {
      "midi": 63,
      "hit": false,
      "t": 14653.831500000011,
      "d": 115.38450000000012,
      "v": 127
    },
    {
      "midi": 58,
      "hit": false,
      "t": 14769.216000000002,
      "d": 461.53800000000047,
      "v": 127
    },
    {
      "midi": 64,
      "hit": false,
      "t": 14769.216000000011,
      "d": 115.38450000000012,
      "v": 127
    },
    {
      "midi": 63,
      "hit": false,
      "t": 14884.600500000011,
      "d": 115.38450000000012,
      "v": 127
    },
    {
      "midi": 64,
      "hit": false,
      "t": 15115.369500000012,
      "d": 115.38450000000012,
      "v": 127
    },
    {
      "midi": 65,
      "hit": false,
      "t": 15230.754000000012,
      "d": 115.38450000000012,
      "v": 127
    },
    {
      "midi": 64,
      "hit": false,
      "t": 15346.138500000012,
      "d": 115.38450000000012,
      "v": 127
    },
    {
      "midi": 65,
      "hit": false,
      "t": 15576.907500000012,
      "d": 115.38450000000012,
      "v": 127
    },
    {
      "midi": 50,
      "hit": false,
      "t": 15692.292000000003,
      "d": 461.53800000000047,
      "v": 127
    },
    {
      "midi": 66,
      "hit": false,
      "t": 15692.292000000012,
      "d": 115.38450000000012,
      "v": 127
    },
    {
      "midi": 65,
      "hit": false,
      "t": 15807.676500000012,
      "d": 115.38450000000012,
      "v": 127
    },
    {
      "midi": 66,
      "hit": false,
      "t": 16038.445500000013,
      "d": 115.38450000000012,
      "v": 127
    },
    {
      "midi": 58,
      "hit": false,
      "t": 16153.830000000004,
      "d": 461.53799999999865,
      "v": 127
    },
    {
      "midi": 67,
      "hit": false,
      "t": 16153.830000000013,
      "d": 115.38450000000012,
      "v": 127
    },
    {
      "midi": 66,
      "hit": false,
      "t": 16269.214500000013,
      "d": 115.38450000000012,
      "v": 127
    },
    {
      "midi": 67,
      "hit": false,
      "t": 16499.983500000013,
      "d": 115.38450000000012,
      "v": 127
    },
    {
      "midi": 68,
      "hit": false,
      "t": 16615.368000000013,
      "d": 115.38450000000012,
      "v": 127
    },
    {
      "midi": 67,
      "hit": false,
      "t": 16730.752500000013,
      "d": 115.38450000000012,
      "v": 127
    },
    {
      "midi": 68,
      "hit": false,
      "t": 16961.521500000013,
      "d": 115.38450000000012,
      "v": 127
    },
    {
      "midi": 51,
      "hit": false,
      "t": 17076.906000000003,
      "d": 461.53800000000047,
      "v": 127
    },
    {
      "midi": 67,
      "hit": false,
      "t": 17076.906000000014,
      "d": 115.38450000000012,
      "v": 127
    },
    {
      "midi": 70,
      "hit": false,
      "t": 17192.290500000014,
      "d": 115.38450000000012,
      "v": 127
    },
    {
      "midi": 68,
      "hit": false,
      "t": 17423.059500000014,
      "d": 115.38450000000012,
      "v": 127
    },
    {
      "midi": 58,
      "hit": false,
      "t": 17538.444000000003,
      "d": 461.53800000000047,
      "v": 127
    },
    {
      "midi": 67,
      "hit": false,
      "t": 17538.444000000014,
      "d": 115.38450000000012,
      "v": 127
    },
    {
      "midi": 68,
      "hit": false,
      "t": 17653.828500000014,
      "d": 115.38450000000012,
      "v": 127
    },
    {
      "midi": 70,
      "hit": false,
      "t": 17884.597500000014,
      "d": 115.38450000000012,
      "v": 127
    },
    {
      "midi": 72,
      "hit": false,
      "t": 17999.982000000015,
      "d": 115.38450000000012,
      "v": 127
    },
    {
      "midi": 74,
      "hit": false,
      "t": 18115.366500000015,
      "d": 115.38450000000012,
      "v": 127
    },
    {
      "midi": 75,
      "hit": false,
      "t": 18346.135500000015,
      "d": 115.38450000000012,
      "v": 127
    },
    {
      "midi": 44,
      "hit": false,
      "t": 18461.520000000004,
      "d": 461.53800000000047,
      "v": 127
    },
    {
      "midi": 77,
      "hit": false,
      "t": 18461.520000000015,
      "d": 115.38450000000012,
      "v": 127
    },
    {
      "midi": 84,
      "hit": false,
      "t": 18576.904500000015,
      "d": 115.38450000000012,
      "v": 127
    },
    {
      "midi": 82,
      "hit": false,
      "t": 18807.673500000015,
      "d": 115.38450000000012,
      "v": 127
    },
    {
      "midi": 56,
      "hit": false,
      "t": 18923.058000000005,
      "d": 461.53800000000047,
      "v": 127
    },
    {
      "midi": 60,
      "hit": false,
      "t": 18923.058000000005,
      "d": 461.53800000000047,
      "v": 127
    },
    {
      "midi": 80,
      "hit": false,
      "t": 18923.058000000015,
      "d": 115.38450000000012,
      "v": 127
    },
    {
      "midi": 79,
      "hit": false,
      "t": 19038.442500000016,
      "d": 115.38450000000012,
      "v": 127
    },
    {
      "midi": 77,
      "hit": false,
      "t": 19269.211500000016,
      "d": 115.38450000000012,
      "v": 127
    },
    {
      "midi": 75,
      "hit": false,
      "t": 19384.596000000016,
      "d": 115.38450000000012,
      "v": 127
    },
    {
      "midi": 74,
      "hit": false,
      "t": 19499.980500000016,
      "d": 115.38450000000012,
      "v": 127
    },
    {
      "midi": 72,
      "hit": false,
      "t": 19730.749500000016,
      "d": 115.38450000000012,
      "v": 127
    },
    {
      "midi": 46,
      "hit": false,
      "t": 19846.134000000005,
      "d": 461.53800000000047,
      "v": 127
    },
    {
      "midi": 74,
      "hit": false,
      "t": 19846.134000000016,
      "d": 115.38450000000012,
      "v": 127
    },
    {
      "midi": 77,
      "hit": false,
      "t": 19961.518500000017,
      "d": 115.38450000000012,
      "v": 127
    },
    {
      "midi": 75,
      "hit": false,
      "t": 20192.287500000017,
      "d": 115.38450000000012,
      "v": 127
    },
    {
      "midi": 56,
      "hit": false,
      "t": 20307.672000000006,
      "d": 461.53800000000047,
      "v": 127
    },
    {
      "midi": 58,
      "hit": false,
      "t": 20307.672000000006,
      "d": 461.53800000000047,
      "v": 127
    },
    {
      "midi": 62,
      "hit": false,
      "t": 20307.672000000006,
      "d": 461.53800000000047,
      "v": 127
    },
    {
      "midi": 74,
      "hit": false,
      "t": 20307.672000000017,
      "d": 115.38450000000012,
      "v": 127
    },
    {
      "midi": 75,
      "hit": false,
      "t": 20423.056500000017,
      "d": 115.38450000000012,
      "v": 127
    },
    {
      "midi": 77,
      "hit": false,
      "t": 20653.825500000017,
      "d": 115.38450000000012,
      "v": 127
    },
    {
      "midi": 79,
      "hit": false,
      "t": 20769.210000000017,
      "d": 115.38450000000012,
      "v": 127
    },
    {
      "midi": 80,
      "hit": false,
      "t": 20884.594500000017,
      "d": 115.38450000000012,
      "v": 127
    },
    {
      "midi": 82,
      "hit": false,
      "t": 21115.363500000018,
      "d": 115.38450000000012,
      "v": 127
    },
    {
      "midi": 51,
      "hit": false,
      "t": 21230.748000000007,
      "d": 461.53800000000047,
      "v": 127
    },
    {
      "midi": 75,
      "hit": false,
      "t": 21230.748000000018,
      "d": 115.38450000000012,
      "v": 127
    },
    {
      "midi": 77,
      "hit": false,
      "t": 21346.132500000018,
      "d": 115.38450000000012,
      "v": 127
    },
    {
      "midi": 79,
      "hit": false,
      "t": 21576.901500000018,
      "d": 115.38450000000012,
      "v": 127
    },
    {
      "midi": 55,
      "hit": false,
      "t": 21692.286000000007,
      "d": 461.53800000000047,
      "v": 127
    },
    {
      "midi": 58,
      "hit": false,
      "t": 21692.286000000007,
      "d": 461.53800000000047,
      "v": 127
    },
    {
      "midi": 63,
      "hit": false,
      "t": 21692.286000000007,
      "d": 461.53800000000047,
      "v": 127
    },
    {
      "midi": 80,
      "hit": false,
      "t": 21692.28600000002,
      "d": 115.38450000000012,
      "v": 127
    },
    {
      "midi": 82,
      "hit": false,
      "t": 21807.67050000002,
      "d": 115.38450000000012,
      "v": 127
    },
    {
      "midi": 84,
      "hit": false,
      "t": 22038.43950000002,
      "d": 115.38450000000012,
      "v": 127
    },
    {
      "midi": 86,
      "hit": false,
      "t": 22153.82400000002,
      "d": 115.38450000000012,
      "v": 127
    },
    {
      "midi": 87,
      "hit": false,
      "t": 22269.20850000002,
      "d": 115.38450000000012,
      "v": 127
    },
    {
      "midi": 89,
      "hit": false,
      "t": 22499.97750000002,
      "d": 115.38450000000012,
      "v": 127
    },
    {
      "midi": 51,
      "hit": false,
      "t": 22615.36200000001,
      "d": 461.53800000000047,
      "v": 127
    },
    {
      "midi": 91,
      "hit": false,
      "t": 22615.36200000002,
      "d": 115.38450000000012,
      "v": 127
    },
    {
      "midi": 94,
      "hit": false,
      "t": 22730.74650000002,
      "d": 115.38450000000012,
      "v": 127
    },
    {
      "midi": 92,
      "hit": false,
      "t": 22961.51550000002,
      "d": 115.38450000000012,
      "v": 127
    },
    {
      "midi": 58,
      "hit": false,
      "t": 23076.90000000001,
      "d": 461.53800000000047,
      "v": 127
    },
    {
      "midi": 91,
      "hit": false,
      "t": 23076.90000000002,
      "d": 115.38450000000012,
      "v": 127
    },
    {
      "midi": 89,
      "hit": false,
      "t": 23192.28450000002,
      "d": 115.38450000000012,
      "v": 127
    },
    {
      "midi": 87,
      "hit": false,
      "t": 23423.05350000002,
      "d": 115.38450000000012,
      "v": 127
    },
    {
      "midi": 86,
      "hit": false,
      "t": 23538.43800000002,
      "d": 115.38450000000012,
      "v": 127
    },
    {
      "midi": 84,
      "hit": false,
      "t": 23653.82250000002,
      "d": 115.38450000000012,
      "v": 127
    },
    {
      "midi": 82,
      "hit": false,
      "t": 23884.59150000002,
      "d": 115.38450000000012,
      "v": 127
    },
    {
      "midi": 53,
      "hit": false,
      "t": 23999.97600000001,
      "d": 461.53800000000047,
      "v": 127
    },
    {
      "midi": 80,
      "hit": false,
      "t": 23999.97600000002,
      "d": 115.38450000000012,
      "v": 127
    },
    {
      "midi": 79,
      "hit": false,
      "t": 24115.36050000002,
      "d": 115.38450000000012,
      "v": 127
    },
    {
      "midi": 77,
      "hit": false,
      "t": 24346.12950000002,
      "d": 115.38450000000012,
      "v": 127
    },
    {
      "midi": 58,
      "hit": false,
      "t": 24461.51400000001,
      "d": 461.53800000000047,
      "v": 127
    },
    {
      "midi": 75,
      "hit": false,
      "t": 24461.51400000002,
      "d": 115.38450000000012,
      "v": 127
    },
    {
      "midi": 74,
      "hit": false,
      "t": 24576.89850000002,
      "d": 115.38450000000012,
      "v": 127
    },
    {
      "midi": 72,
      "hit": false,
      "t": 24807.66750000002,
      "d": 115.38450000000012,
      "v": 127
    },
    {
      "midi": 70,
      "hit": false,
      "t": 24923.05200000002,
      "d": 115.38450000000012,
      "v": 127
    },
    {
      "midi": 72,
      "hit": false,
      "t": 25038.43650000002,
      "d": 115.38450000000012,
      "v": 127
    },
    {
      "midi": 74,
      "hit": false,
      "t": 25269.205500000022,
      "d": 115.38450000000012,
      "v": 127
    },
    {
      "midi": 55,
      "hit": false,
      "t": 25384.59000000001,
      "d": 461.53800000000047,
      "v": 127
    },
    {
      "midi": 75,
      "hit": false,
      "t": 25384.590000000022,
      "d": 115.38450000000012,
      "v": 127
    },
    {
      "midi": 74,
      "hit": false,
      "t": 25499.974500000022,
      "d": 115.38450000000012,
      "v": 127
    },
    {
      "midi": 75,
      "hit": false,
      "t": 25730.743500000022,
      "d": 115.38450000000012,
      "v": 127
    },
    {
      "midi": 58,
      "hit": false,
      "t": 25846.12800000001,
      "d": 461.53800000000047,
      "v": 127
    },
    {
      "midi": 76,
      "hit": false,
      "t": 25846.128000000022,
      "d": 115.38450000000012,
      "v": 127
    },
    {
      "midi": 75,
      "hit": false,
      "t": 25961.512500000023,
      "d": 115.38450000000012,
      "v": 127
    },
    {
      "midi": 76,
      "hit": false,
      "t": 26192.281500000023,
      "d": 115.38450000000012,
      "v": 127
    },
    {
      "midi": 77,
      "hit": false,
      "t": 26307.666000000023,
      "d": 115.38450000000012,
      "v": 127
    },
    {
      "midi": 76,
      "hit": false,
      "t": 26423.050500000023,
      "d": 115.38450000000012,
      "v": 127
    },
    {
      "midi": 77,
      "hit": false,
      "t": 26653.819500000023,
      "d": 115.38450000000012,
      "v": 127
    },
    {
      "midi": 50,
      "hit": false,
      "t": 26769.204000000012,
      "d": 461.53800000000047,
      "v": 127
    },
    {
      "midi": 78,
      "hit": false,
      "t": 26769.204000000023,
      "d": 115.38450000000012,
      "v": 127
    },
    {
      "midi": 77,
      "hit": false,
      "t": 26884.588500000023,
      "d": 115.38450000000012,
      "v": 127
    },
    {
      "midi": 78,
      "hit": false,
      "t": 27115.357500000024,
      "d": 115.38450000000012,
      "v": 127
    },
    {
      "midi": 58,
      "hit": false,
      "t": 27230.742000000013,
      "d": 461.53800000000047,
      "v": 127
    },
    {
      "midi": 79,
      "hit": false,
      "t": 27230.742000000024,
      "d": 115.38450000000012,
      "v": 127
    },
    {
      "midi": 78,
      "hit": false,
      "t": 27346.126500000024,
      "d": 115.38450000000012,
      "v": 127
    },
    {
      "midi": 79,
      "hit": false,
      "t": 27576.895500000024,
      "d": 115.38450000000012,
      "v": 127
    },
    {
      "midi": 80,
      "hit": false,
      "t": 27692.280000000024,
      "d": 115.38450000000012,
      "v": 127
    },
    {
      "midi": 79,
      "hit": false,
      "t": 27807.664500000024,
      "d": 115.38450000000012,
      "v": 127
    },
    {
      "midi": 80,
      "hit": false,
      "t": 28038.433500000025,
      "d": 115.38450000000012,
      "v": 127
    },
    {
      "midi": 51,
      "hit": false,
      "t": 28153.818000000014,
      "d": 461.53800000000047,
      "v": 127
    },
    {
      "midi": 79,
      "hit": false,
      "t": 28153.818000000025,
      "d": 115.38450000000012,
      "v": 127
    },
    {
      "midi": 82,
      "hit": false,
      "t": 28269.202500000025,
      "d": 115.38450000000012,
      "v": 127
    },
    {
      "midi": 80,
      "hit": false,
      "t": 28499.971500000025,
      "d": 115.38450000000012,
      "v": 127
    },
    {
      "midi": 58,
      "hit": false,
      "t": 28615.356000000014,
      "d": 461.53800000000047,
      "v": 127
    },
    {
      "midi": 79,
      "hit": false,
      "t": 28615.356000000025,
      "d": 115.38450000000012,
      "v": 127
    },
    {
      "midi": 80,
      "hit": false,
      "t": 28730.740500000025,
      "d": 115.38450000000012,
      "v": 127
    },
    {
      "midi": 82,
      "hit": false,
      "t": 28961.509500000026,
      "d": 115.38450000000012,
      "v": 127
    },
    {
      "midi": 84,
      "hit": false,
      "t": 29076.894000000026,
      "d": 115.38450000000012,
      "v": 127
    },
    {
      "midi": 86,
      "hit": false,
      "t": 29192.278500000026,
      "d": 115.38450000000012,
      "v": 127
    },
    {
      "midi": 87,
      "hit": false,
      "t": 29423.047500000026,
      "d": 115.38450000000012,
      "v": 127
    },
    {
      "midi": 44,
      "hit": false,
      "t": 29538.432000000015,
      "d": 461.53800000000047,
      "v": 127
    },
    {
      "midi": 89,
      "hit": false,
      "t": 29538.432000000026,
      "d": 115.38450000000012,
      "v": 127
    },
    {
      "midi": 96,
      "hit": false,
      "t": 29653.816500000026,
      "d": 115.38450000000012,
      "v": 127
    },
    {
      "midi": 94,
      "hit": false,
      "t": 29884.585500000027,
      "d": 115.38450000000012,
      "v": 127
    },
    {
      "midi": 56,
      "hit": false,
      "t": 29999.970000000016,
      "d": 461.53800000000047,
      "v": 127
    },
    {
      "midi": 60,
      "hit": false,
      "t": 29999.970000000016,
      "d": 461.53800000000047,
      "v": 127
    },
    {
      "midi": 92,
      "hit": false,
      "t": 29999.970000000027,
      "d": 115.38450000000012,
      "v": 127
    },
    {
      "midi": 91,
      "hit": false,
      "t": 30115.354500000027,
      "d": 115.38450000000012,
      "v": 127
    },
    {
      "midi": 89,
      "hit": false,
      "t": 30346.123500000027,
      "d": 115.38450000000012,
      "v": 127
    },
    {
      "midi": 87,
      "hit": false,
      "t": 30461.508000000027,
      "d": 115.38450000000012,
      "v": 127
    },
    {
      "midi": 86,
      "hit": false,
      "t": 30576.892500000027,
      "d": 115.38450000000012,
      "v": 127
    },
    {
      "midi": 84,
      "hit": false,
      "t": 30807.661500000027,
      "d": 115.38450000000012,
      "v": 127
    },
    {
      "midi": 46,
      "hit": false,
      "t": 30923.046000000017,
      "d": 461.53800000000047,
      "v": 127
    },
    {
      "midi": 82,
      "hit": false,
      "t": 30923.046000000028,
      "d": 115.38450000000012,
      "v": 127
    },
    {
      "midi": 89,
      "hit": false,
      "t": 31038.430500000028,
      "d": 115.38450000000012,
      "v": 127
    },
    {
      "midi": 87,
      "hit": false,
      "t": 31269.199500000028,
      "d": 115.38450000000012,
      "v": 127
    },
    {
      "midi": 56,
      "hit": false,
      "t": 31384.584000000017,
      "d": 461.53800000000047,
      "v": 127
    },
    {
      "midi": 58,
      "hit": false,
      "t": 31384.584000000017,
      "d": 461.53800000000047,
      "v": 127
    },
    {
      "midi": 62,
      "hit": false,
      "t": 31384.584000000017,
      "d": 461.53800000000047,
      "v": 127
    },
    {
      "midi": 86,
      "hit": false,
      "t": 31384.584000000028,
      "d": 115.38450000000012,
      "v": 127
    },
    {
      "midi": 84,
      "hit": false,
      "t": 31499.968500000028,
      "d": 115.38450000000012,
      "v": 127
    },
    {
      "midi": 82,
      "hit": false,
      "t": 31730.73750000003,
      "d": 115.38450000000012,
      "v": 127
    },
    {
      "midi": 80,
      "hit": false,
      "t": 31846.12200000003,
      "d": 115.38450000000012,
      "v": 127
    },
    {
      "midi": 79,
      "hit": false,
      "t": 31961.50650000003,
      "d": 115.38450000000012,
      "v": 127
    },
    {
      "midi": 77,
      "hit": false,
      "t": 32192.27550000003,
      "d": 115.38450000000012,
      "v": 127
    },
    {
      "midi": 51,
      "hit": false,
      "t": 32307.660000000018,
      "d": 461.53800000000047,
      "v": 127
    },
    {
      "midi": 75,
      "hit": false,
      "t": 32307.66000000003,
      "d": 115.38450000000012,
      "v": 127
    },
    {
      "midi": 79,
      "hit": false,
      "t": 32423.04450000003,
      "d": 115.38450000000012,
      "v": 127
    },
    {
      "midi": 77,
      "hit": false,
      "t": 32653.81350000003,
      "d": 115.38449999999648,
      "v": 127
    },
    {
      "midi": 55,
      "hit": false,
      "t": 32769.19800000002,
      "d": 461.53800000000047,
      "v": 127
    },
    {
      "midi": 58,
      "hit": false,
      "t": 32769.19800000002,
      "d": 461.53800000000047,
      "v": 127
    },
    {
      "midi": 63,
      "hit": false,
      "t": 32769.19800000002,
      "d": 461.53800000000047,
      "v": 127
    },
    {
      "midi": 75,
      "hit": false,
      "t": 32769.198000000026,
      "d": 115.38450000000012,
      "v": 127
    },
    {
      "midi": 74,
      "hit": false,
      "t": 32884.582500000026,
      "d": 115.38450000000012,
      "v": 127
    },
    {
      "midi": 72,
      "hit": false,
      "t": 33115.351500000026,
      "d": 115.38450000000012,
      "v": 127
    },
    {
      "midi": 70,
      "hit": false,
      "t": 33230.736000000026,
      "d": 115.38450000000012,
      "v": 127
    },
    {
      "midi": 68,
      "hit": false,
      "t": 33346.12050000003,
      "d": 115.38450000000012,
      "v": 127
    },
    {
      "midi": 65,
      "hit": false,
      "t": 33576.88950000003,
      "d": 115.38450000000012,
      "v": 127
    },
    {
      "midi": 39,
      "hit": false,
      "t": 33692.27400000002,
      "d": 461.53800000000047,
      "v": 127
    },
    {
      "midi": 66,
      "hit": false,
      "t": 33692.27400000003,
      "d": 115.38450000000012,
      "v": 127
    },
    {
      "midi": 70,
      "hit": false,
      "t": 33807.65850000003,
      "d": 115.38450000000012,
      "v": 127
    },
    {
      "midi": 68,
      "hit": false,
      "t": 34038.42750000003,
      "d": 115.38450000000012,
      "v": 127
    },
    {
      "midi": 51,
      "hit": false,
      "t": 34153.81200000002,
      "d": 461.53800000000047,
      "v": 127
    },
    {
      "midi": 66,
      "hit": false,
      "t": 34153.81200000003,
      "d": 115.38450000000012,
      "v": 127
    },
    {
      "midi": 65,
      "hit": false,
      "t": 34269.19650000003,
      "d": 115.38450000000012,
      "v": 127
    },
    {
      "midi": 63,
      "hit": false,
      "t": 34499.96550000003,
      "d": 115.38450000000012,
      "v": 127
    },
    {
      "midi": 61,
      "hit": false,
      "t": 34615.35000000003,
      "d": 115.38450000000012,
      "v": 127
    },
    {
      "midi": 59,
      "hit": false,
      "t": 34730.73450000003,
      "d": 115.38450000000012,
      "v": 127
    },
    {
      "midi": 58,
      "hit": false,
      "t": 34961.50350000003,
      "d": 115.38450000000012,
      "v": 127
    },
    {
      "midi": 44,
      "hit": false,
      "t": 35076.88800000002,
      "d": 461.53800000000047,
      "v": 127
    },
    {
      "midi": 59,
      "hit": false,
      "t": 35076.88800000003,
      "d": 115.38450000000012,
      "v": 127
    },
    {
      "midi": 63,
      "hit": false,
      "t": 35192.27250000003,
      "d": 115.38450000000012,
      "v": 127
    },
    {
      "midi": 68,
      "hit": false,
      "t": 35423.04150000003,
      "d": 115.38450000000012,
      "v": 127
    },
    {
      "midi": 56,
      "hit": false,
      "t": 35538.42600000002,
      "d": 461.53800000000047,
      "v": 127
    },
    {
      "midi": 71,
      "hit": false,
      "t": 35538.42600000003,
      "d": 115.38450000000012,
      "v": 127
    },
    {
      "midi": 63,
      "hit": false,
      "t": 35653.81050000003,
      "d": 115.38450000000012,
      "v": 127
    },
    {
      "midi": 68,
      "hit": false,
      "t": 35884.57950000003,
      "d": 115.38450000000012,
      "v": 127
    },
    {
      "midi": 66,
      "hit": false,
      "t": 35999.96400000003,
      "d": 115.38450000000012,
      "v": 127
    },
    {
      "midi": 63,
      "hit": false,
      "t": 36115.34850000003,
      "d": 115.38450000000012,
      "v": 127
    },
    {
      "midi": 66,
      "hit": false,
      "t": 36346.11750000003,
      "d": 115.38450000000012,
      "v": 127
    },
    {
      "midi": 37,
      "hit": false,
      "t": 36461.50200000002,
      "d": 461.53800000000047,
      "v": 127
    },
    {
      "midi": 65,
      "hit": false,
      "t": 36461.50200000003,
      "d": 115.38450000000012,
      "v": 127
    },
    {
      "midi": 71,
      "hit": false,
      "t": 36576.88650000003,
      "d": 115.38450000000012,
      "v": 127
    },
    {
      "midi": 70,
      "hit": false,
      "t": 36807.65550000003,
      "d": 115.38450000000012,
      "v": 127
    },
    {
      "midi": 49,
      "hit": false,
      "t": 36923.04000000002,
      "d": 461.53800000000047,
      "v": 127
    },
    {
      "midi": 68,
      "hit": false,
      "t": 36923.04000000003,
      "d": 115.38450000000012,
      "v": 127
    },
    {
      "midi": 66,
      "hit": false,
      "t": 37038.42450000003,
      "d": 115.38450000000012,
      "v": 127
    },
    {
      "midi": 65,
      "hit": false,
      "t": 37269.19350000003,
      "d": 115.38450000000012,
      "v": 127
    },
    {
      "midi": 63,
      "hit": false,
      "t": 37384.57800000003,
      "d": 115.38450000000012,
      "v": 127
    },
    {
      "midi": 61,
      "hit": false,
      "t": 37499.96250000003,
      "d": 115.38450000000012,
      "v": 127
    },
    {
      "midi": 59,
      "hit": false,
      "t": 37730.73150000003,
      "d": 115.38450000000012,
      "v": 127
    },
    {
      "midi": 42,
      "hit": false,
      "t": 37846.11600000002,
      "d": 461.53800000000047,
      "v": 127
    },
    {
      "midi": 58,
      "hit": false,
      "t": 37846.11600000003,
      "d": 115.38450000000012,
      "v": 127
    },
    {
      "midi": 61,
      "hit": false,
      "t": 37961.50050000003,
      "d": 115.38450000000012,
      "v": 127
    },
    {
      "midi": 66,
      "hit": false,
      "t": 38192.26950000003,
      "d": 115.38450000000012,
      "v": 127
    },
    {
      "midi": 54,
      "hit": false,
      "t": 38307.654000000024,
      "d": 461.53800000000047,
      "v": 127
    },
    {
      "midi": 70,
      "hit": false,
      "t": 38307.65400000003,
      "d": 115.38450000000012,
      "v": 127
    },
    {
      "midi": 61,
      "hit": false,
      "t": 38423.03850000003,
      "d": 115.38450000000012,
      "v": 127
    },
    {
      "midi": 66,
      "hit": false,
      "t": 38653.80750000003,
      "d": 115.38450000000012,
      "v": 127
    },
    {
      "midi": 65,
      "hit": false,
      "t": 38769.19200000003,
      "d": 115.38450000000012,
      "v": 127
    },
    {
      "midi": 61,
      "hit": false,
      "t": 38884.57650000003,
      "d": 115.38450000000012,
      "v": 127
    },
    {
      "midi": 65,
      "hit": false,
      "t": 39115.34550000003,
      "d": 115.38450000000012,
      "v": 127
    },
    {
      "midi": 35,
      "hit": false,
      "t": 39230.730000000025,
      "d": 461.53800000000047,
      "v": 127
    },
    {
      "midi": 63,
      "hit": false,
      "t": 39230.73000000003,
      "d": 115.38450000000012,
      "v": 127
    },
    {
      "midi": 70,
      "hit": false,
      "t": 39346.11450000003,
      "d": 115.38450000000012,
      "v": 127
    },
    {
      "midi": 68,
      "hit": false,
      "t": 39576.88350000003,
      "d": 115.38450000000012,
      "v": 127
    },
    {
      "midi": 47,
      "hit": false,
      "t": 39692.268000000025,
      "d": 461.53800000000047,
      "v": 127
    },
    {
      "midi": 66,
      "hit": false,
      "t": 39692.26800000003,
      "d": 115.38450000000012,
      "v": 127
    },
    {
      "midi": 65,
      "hit": false,
      "t": 39807.65250000003,
      "d": 115.38450000000012,
      "v": 127
    },
    {
      "midi": 63,
      "hit": false,
      "t": 40038.42150000003,
      "d": 115.38450000000012,
      "v": 127
    },
    {
      "midi": 61,
      "hit": false,
      "t": 40153.80600000003,
      "d": 115.38450000000012,
      "v": 127
    },
    {
      "midi": 59,
      "hit": false,
      "t": 40269.19050000003,
      "d": 115.38450000000012,
      "v": 127
    },
    {
      "midi": 58,
      "hit": false,
      "t": 40499.95950000003,
      "d": 115.38450000000012,
      "v": 127
    },
    {
      "midi": 41,
      "hit": false,
      "t": 40615.34400000003,
      "d": 461.53800000000047,
      "v": 127
    },
    {
      "midi": 56,
      "hit": false,
      "t": 40615.344000000034,
      "d": 115.38450000000012,
      "v": 127
    },
    {
      "midi": 59,
      "hit": false,
      "t": 40730.728500000034,
      "d": 115.38450000000012,
      "v": 127
    },
    {
      "midi": 65,
      "hit": false,
      "t": 40961.497500000034,
      "d": 115.38450000000012,
      "v": 127
    },
    {
      "midi": 53,
      "hit": false,
      "t": 41076.88200000003,
      "d": 461.53800000000047,
      "v": 127
    },
    {
      "midi": 68,
      "hit": false,
      "t": 41076.882000000034,
      "d": 115.38450000000012,
      "v": 127
    },
    {
      "midi": 59,
      "hit": false,
      "t": 41192.266500000034,
      "d": 115.38450000000012,
      "v": 127
    },
    {
      "midi": 65,
      "hit": false,
      "t": 41423.035500000035,
      "d": 115.38450000000012,
      "v": 127
    },
    {
      "midi": 63,
      "hit": false,
      "t": 41538.420000000035,
      "d": 115.38450000000012,
      "v": 127
    },
    {
      "midi": 59,
      "hit": false,
      "t": 41653.804500000035,
      "d": 115.38450000000012,
      "v": 127
    },
    {
      "midi": 63,
      "hit": false,
      "t": 41884.573500000035,
      "d": 115.38450000000012,
      "v": 127
    },
    {
      "midi": 34,
      "hit": false,
      "t": 41999.95800000003,
      "d": 461.53800000000047,
      "v": 127
    },
    {
      "midi": 62,
      "hit": false,
      "t": 41999.958000000035,
      "d": 115.38450000000012,
      "v": 127
    },
    {
      "midi": 68,
      "hit": false,
      "t": 42115.342500000035,
      "d": 115.38450000000012,
      "v": 127
    },
    {
      "midi": 66,
      "hit": false,
      "t": 42346.111500000035,
      "d": 115.38450000000012,
      "v": 127
    },
    {
      "midi": 46,
      "hit": false,
      "t": 42461.49600000003,
      "d": 461.53800000000047,
      "v": 127
    },
    {
      "midi": 65,
      "hit": false,
      "t": 42461.496000000036,
      "d": 115.38450000000012,
      "v": 127
    },
    {
      "midi": 63,
      "hit": false,
      "t": 42576.880500000036,
      "d": 115.38450000000012,
      "v": 127
    },
    {
      "midi": 62,
      "hit": false,
      "t": 42807.649500000036,
      "d": 115.38450000000012,
      "v": 127
    },
    {
      "midi": 59,
      "hit": false,
      "t": 42923.034000000036,
      "d": 115.38450000000012,
      "v": 127
    },
    {
      "midi": 58,
      "hit": false,
      "t": 43038.418500000036,
      "d": 115.38450000000012,
      "v": 127
    },
    {
      "midi": 56,
      "hit": false,
      "t": 43269.18750000004,
      "d": 115.38450000000012,
      "v": 127
    },
    {
      "midi": 39,
      "hit": false,
      "t": 43384.57200000003,
      "d": 461.53800000000047,
      "v": 127
    },
    {
      "midi": 54,
      "hit": false,
      "t": 43384.57200000004,
      "d": 115.38450000000012,
      "v": 127
    },
    {
      "midi": 58,
      "hit": false,
      "t": 43499.95650000004,
      "d": 115.38450000000012,
      "v": 127
    },
    {
      "midi": 63,
      "hit": false,
      "t": 43730.72550000004,
      "d": 115.38450000000012,
      "v": 127
    },
    {
      "midi": 51,
      "hit": false,
      "t": 43846.11000000003,
      "d": 461.53800000000047,
      "v": 127
    },
    {
      "midi": 66,
      "hit": false,
      "t": 43846.11000000004,
      "d": 115.38450000000012,
      "v": 127
    },
    {
      "midi": 58,
      "hit": false,
      "t": 43961.49450000004,
      "d": 115.38450000000012,
      "v": 127
    },
    {
      "midi": 63,
      "hit": false,
      "t": 44192.26350000004,
      "d": 115.38450000000012,
      "v": 127
    },
    {
      "midi": 61,
      "hit": false,
      "t": 44307.64800000004,
      "d": 115.38450000000012,
      "v": 127
    },
    {
      "midi": 58,
      "hit": false,
      "t": 44423.03250000004,
      "d": 115.38450000000012,
      "v": 127
    },
    {
      "midi": 61,
      "hit": false,
      "t": 44653.80150000004,
      "d": 115.38450000000012,
      "v": 127
    },
    {
      "midi": 44,
      "hit": false,
      "t": 44769.18600000003,
      "d": 461.53800000000047,
      "v": 127
    },
    {
      "midi": 59,
      "hit": false,
      "t": 44769.18600000004,
      "d": 115.38450000000012,
      "v": 127
    },
    {
      "midi": 63,
      "hit": false,
      "t": 44884.57050000004,
      "d": 115.38450000000012,
      "v": 127
    },
    {
      "midi": 68,
      "hit": false,
      "t": 45115.33950000004,
      "d": 115.38450000000012,
      "v": 127
    },
    {
      "midi": 56,
      "hit": false,
      "t": 45230.72400000003,
      "d": 461.53800000000047,
      "v": 127
    },
    {
      "midi": 71,
      "hit": false,
      "t": 45230.72400000004,
      "d": 115.38450000000012,
      "v": 127
    },
    {
      "midi": 63,
      "hit": false,
      "t": 45346.10850000004,
      "d": 115.38450000000012,
      "v": 127
    },
    {
      "midi": 68,
      "hit": false,
      "t": 45576.87750000004,
      "d": 115.38450000000012,
      "v": 127
    },
    {
      "midi": 66,
      "hit": false,
      "t": 45692.26200000004,
      "d": 115.38450000000012,
      "v": 127
    },
    {
      "midi": 63,
      "hit": false,
      "t": 45807.64650000004,
      "d": 115.38450000000012,
      "v": 127
    },
    {
      "midi": 66,
      "hit": false,
      "t": 46038.41550000004,
      "d": 115.38450000000012,
      "v": 127
    },
    {
      "midi": 46,
      "hit": false,
      "t": 46153.80000000003,
      "d": 461.53800000000047,
      "v": 127
    },
    {
      "midi": 71,
      "hit": false,
      "t": 46153.80000000004,
      "d": 115.38450000000012,
      "v": 127
    },
    {
      "midi": 65,
      "hit": false,
      "t": 46269.18450000004,
      "d": 115.38450000000012,
      "v": 127
    },
    {
      "midi": 62,
      "hit": false,
      "t": 46499.95350000004,
      "d": 115.38450000000012,
      "v": 127
    },
    {
      "midi": 58,
      "hit": false,
      "t": 46615.33800000003,
      "d": 461.53800000000047,
      "v": 127
    },
    {
      "midi": 70,
      "hit": false,
      "t": 46615.33800000004,
      "d": 115.38450000000012,
      "v": 127
    },
    {
      "midi": 65,
      "hit": false,
      "t": 46730.72250000004,
      "d": 115.38450000000012,
      "v": 127
    },
    {
      "midi": 62,
      "hit": false,
      "t": 46961.49150000004,
      "d": 115.38450000000012,
      "v": 127
    },
    {
      "midi": 74,
      "hit": false,
      "t": 47076.87600000004,
      "d": 115.38450000000012,
      "v": 127
    },
    {
      "midi": 68,
      "hit": false,
      "t": 47192.26050000004,
      "d": 115.38450000000012,
      "v": 127
    },
    {
      "midi": 65,
      "hit": false,
      "t": 47423.02950000004,
      "d": 115.38450000000012,
      "v": 127
    },
    {
      "midi": 51,
      "hit": false,
      "t": 47538.41400000003,
      "d": 923.0760000000009,
      "v": 127
    },
    {
      "midi": 75,
      "hit": false,
      "t": 47538.41400000004,
      "d": 115.38450000000012,
      "v": 127
    },
    {
      "midi": 78,
      "hit": false,
      "t": 47653.79850000004,
      "d": 115.38450000000012,
      "v": 127
    },
    {
      "midi": 77,
      "hit": false,
      "t": 47884.56750000004,
      "d": 115.38450000000012,
      "v": 127
    },
    {
      "midi": 75,
      "hit": false,
      "t": 47999.95200000004,
      "d": 115.38450000000012,
      "v": 127
    },
    {
      "midi": 73,
      "hit": false,
      "t": 48115.33650000004,
      "d": 115.38450000000012,
      "v": 127
    },
    {
      "midi": 71,
      "hit": false,
      "t": 48346.10550000004,
      "d": 115.38450000000012,
      "v": 127
    },
    {
      "midi": 70,
      "hit": false,
      "t": 48461.49000000004,
      "d": 115.38450000000012,
      "v": 127
    },
    {
      "midi": 68,
      "hit": false,
      "t": 48576.87450000004,
      "d": 115.38450000000012,
      "v": 127
    },
    {
      "midi": 65,
      "hit": false,
      "t": 48807.64350000004,
      "d": 115.38450000000012,
      "v": 127
    },
    {
      "midi": 42,
      "hit": false,
      "t": 48923.028000000035,
      "d": 461.53800000000047,
      "v": 127
    },
    {
      "midi": 66,
      "hit": false,
      "t": 48923.02800000004,
      "d": 115.38450000000012,
      "v": 127
    },
    {
      "midi": 70,
      "hit": false,
      "t": 49038.41250000004,
      "d": 115.38450000000012,
      "v": 127
    },
    {
      "midi": 68,
      "hit": false,
      "t": 49269.18150000004,
      "d": 115.38450000000012,
      "v": 127
    },
    {
      "midi": 49,
      "hit": false,
      "t": 49384.566000000035,
      "d": 461.53800000000047,
      "v": 127
    },
    {
      "midi": 66,
      "hit": false,
      "t": 49384.56600000004,
      "d": 115.38450000000012,
      "v": 127
    },
    {
      "midi": 65,
      "hit": false,
      "t": 49499.95050000004,
      "d": 115.38450000000012,
      "v": 127
    },
    {
      "midi": 63,
      "hit": false,
      "t": 49730.71950000004,
      "d": 115.38450000000012,
      "v": 127
    },
    {
      "midi": 61,
      "hit": false,
      "t": 49846.10400000004,
      "d": 115.38450000000012,
      "v": 127
    },
    {
      "midi": 59,
      "hit": false,
      "t": 49961.48850000004,
      "d": 115.38450000000012,
      "v": 127
    },
    {
      "midi": 58,
      "hit": false,
      "t": 50192.25750000004,
      "d": 115.38450000000012,
      "v": 127
    },
    {
      "midi": 44,
      "hit": false,
      "t": 50307.642000000036,
      "d": 461.53800000000047,
      "v": 127
    },
    {
      "midi": 59,
      "hit": false,
      "t": 50307.64200000004,
      "d": 115.38450000000012,
      "v": 127
    },
    {
      "midi": 62,
      "hit": false,
      "t": 50423.02650000004,
      "d": 115.38450000000012,
      "v": 127
    },
    {
      "midi": 65,
      "hit": false,
      "t": 50653.795500000044,
      "d": 115.38450000000012,
      "v": 127
    },
    {
      "midi": 50,
      "hit": false,
      "t": 50769.18000000004,
      "d": 461.53800000000047,
      "v": 127
    },
    {
      "midi": 71,
      "hit": false,
      "t": 50769.180000000044,
      "d": 115.38450000000012,
      "v": 127
    },
    {
      "midi": 65,
      "hit": false,
      "t": 50884.564500000044,
      "d": 115.38450000000012,
      "v": 127
    },
    {
      "midi": 62,
      "hit": false,
      "t": 51115.333500000044,
      "d": 115.38450000000012,
      "v": 127
    },
    {
      "midi": 49,
      "hit": false,
      "t": 51230.71800000004,
      "d": 461.53800000000047,
      "v": 127
    },
    {
      "midi": 65,
      "hit": false,
      "t": 51230.718000000044,
      "d": 115.38450000000012,
      "v": 127
    },
    {
      "midi": 61,
      "hit": false,
      "t": 51346.102500000045,
      "d": 115.38450000000012,
      "v": 127
    },
    {
      "midi": 59,
      "hit": false,
      "t": 51576.871500000045,
      "d": 115.38450000000012,
      "v": 127
    },
    {
      "midi": 42,
      "hit": false,
      "t": 51692.25600000004,
      "d": 461.53800000000047,
      "v": 127
    },
    {
      "midi": 58,
      "hit": false,
      "t": 51692.256000000045,
      "d": 115.38450000000012,
      "v": 127
    },
    {
      "midi": 70,
      "hit": false,
      "t": 51807.640500000045,
      "d": 115.38450000000012,
      "v": 127
    },
    {
      "midi": 68,
      "hit": false,
      "t": 52038.409500000045,
      "d": 115.38450000000012,
      "v": 127
    },
    {
      "midi": 49,
      "hit": false,
      "t": 52153.79400000004,
      "d": 461.53800000000047,
      "v": 127
    },
    {
      "midi": 66,
      "hit": false,
      "t": 52153.794000000045,
      "d": 115.38450000000012,
      "v": 127
    },
    {
      "midi": 65,
      "hit": false,
      "t": 52269.178500000045,
      "d": 115.38450000000012,
      "v": 127
    },
    {
      "midi": 63,
      "hit": false,
      "t": 52499.947500000046,
      "d": 115.38450000000012,
      "v": 127
    },
    {
      "midi": 61,
      "hit": false,
      "t": 52615.332000000046,
      "d": 115.38450000000012,
      "v": 127
    },
    {
      "midi": 59,
      "hit": false,
      "t": 52730.716500000046,
      "d": 115.38450000000012,
      "v": 127
    },
    {
      "midi": 58,
      "hit": false,
      "t": 52961.485500000046,
      "d": 115.38450000000012,
      "v": 127
    },
    {
      "midi": 44,
      "hit": false,
      "t": 53076.87000000004,
      "d": 461.53800000000047,
      "v": 127
    },
    {
      "midi": 59,
      "hit": false,
      "t": 53076.870000000046,
      "d": 115.38450000000012,
      "v": 127
    },
    {
      "midi": 62,
      "hit": false,
      "t": 53192.25450000005,
      "d": 115.38450000000012,
      "v": 127
    },
    {
      "midi": 65,
      "hit": false,
      "t": 53423.02350000005,
      "d": 115.38450000000012,
      "v": 127
    },
    {
      "midi": 50,
      "hit": false,
      "t": 53538.40800000004,
      "d": 461.53800000000047,
      "v": 127
    },
    {
      "midi": 71,
      "hit": false,
      "t": 53538.40800000005,
      "d": 115.38450000000012,
      "v": 127
    },
    {
      "midi": 65,
      "hit": false,
      "t": 53653.79250000005,
      "d": 115.38450000000012,
      "v": 127
    },
    {
      "midi": 62,
      "hit": false,
      "t": 53884.56150000005,
      "d": 115.38450000000012,
      "v": 127
    },
    {
      "midi": 49,
      "hit": false,
      "t": 53999.94600000004,
      "d": 461.53800000000047,
      "v": 127
    },
    {
      "midi": 65,
      "hit": false,
      "t": 53999.94600000005,
      "d": 115.38450000000012,
      "v": 127
    },
    {
      "midi": 61,
      "hit": false,
      "t": 54115.33050000005,
      "d": 115.38450000000012,
      "v": 127
    },
    {
      "midi": 59,
      "hit": false,
      "t": 54346.09950000005,
      "d": 115.38450000000012,
      "v": 127
    },
    {
      "midi": 46,
      "hit": false,
      "t": 54461.48400000004,
      "d": 461.53800000000047,
      "v": 127
    },
    {
      "midi": 61,
      "hit": false,
      "t": 54461.48400000005,
      "d": 115.38450000000012,
      "v": 127
    },
    {
      "midi": 66,
      "hit": false,
      "t": 54576.86850000005,
      "d": 115.38450000000012,
      "v": 127
    },
    {
      "midi": 70,
      "hit": false,
      "t": 54807.63750000005,
      "d": 115.38450000000012,
      "v": 127
    },
    {
      "midi": 54,
      "hit": false,
      "t": 54923.02200000004,
      "d": 461.53800000000047,
      "v": 127
    },
    {
      "midi": 73,
      "hit": false,
      "t": 54923.02200000005,
      "d": 115.38450000000012,
      "v": 127
    },
    {
      "midi": 70,
      "hit": false,
      "t": 55038.40650000005,
      "d": 115.38450000000012,
      "v": 127
    },
    {
      "midi": 66,
      "hit": false,
      "t": 55269.17550000005,
      "d": 115.38450000000012,
      "v": 127
    },
    {
      "midi": 65,
      "hit": false,
      "t": 55384.56000000005,
      "d": 115.38450000000012,
      "v": 127
    },
    {
      "midi": 66,
      "hit": false,
      "t": 55499.94450000005,
      "d": 115.38450000000012,
      "v": 127
    },
    {
      "midi": 64,
      "hit": false,
      "t": 55730.71350000005,
      "d": 115.38450000000012,
      "v": 127
    },
    {
      "midi": 47,
      "hit": false,
      "t": 55846.09800000004,
      "d": 461.53800000000047,
      "v": 127
    },
    {
      "midi": 63,
      "hit": false,
      "t": 55846.09800000005,
      "d": 115.38450000000012,
      "v": 127
    },
    {
      "midi": 68,
      "hit": false,
      "t": 55961.48250000005,
      "d": 115.38450000000012,
      "v": 127
    },
    {
      "midi": 71,
      "hit": false,
      "t": 56192.25150000005,
      "d": 115.38450000000012,
      "v": 127
    },
    {
      "midi": 56,
      "hit": false,
      "t": 56307.63600000004,
      "d": 461.53800000000047,
      "v": 127
    },
    {
      "midi": 75,
      "hit": false,
      "t": 56307.63600000005,
      "d": 115.38450000000012,
      "v": 127
    },
    {
      "midi": 71,
      "hit": false,
      "t": 56423.02050000005,
      "d": 115.38450000000012,
      "v": 127
    },
    {
      "midi": 68,
      "hit": false,
      "t": 56653.78950000005,
      "d": 115.38450000000012,
      "v": 127
    },
    {
      "midi": 67,
      "hit": false,
      "t": 56769.17400000005,
      "d": 115.38450000000012,
      "v": 127
    },
    {
      "midi": 68,
      "hit": false,
      "t": 56884.55850000005,
      "d": 115.38450000000012,
      "v": 127
    },
    {
      "midi": 66,
      "hit": false,
      "t": 57115.32750000005,
      "d": 115.38450000000012,
      "v": 127
    },
    {
      "midi": 49,
      "hit": false,
      "t": 57230.71200000004,
      "d": 461.53800000000047,
      "v": 127
    },
    {
      "midi": 65,
      "hit": false,
      "t": 57230.71200000005,
      "d": 115.38450000000012,
      "v": 127
    },
    {
      "midi": 66,
      "hit": false,
      "t": 57346.09650000005,
      "d": 115.38450000000012,
      "v": 127
    },
    {
      "midi": 67,
      "hit": false,
      "t": 57576.86550000005,
      "d": 115.38450000000012,
      "v": 127
    },
    {
      "midi": 59,
      "hit": false,
      "t": 57692.250000000044,
      "d": 461.53800000000047,
      "v": 127
    },
    {
      "midi": 68,
      "hit": false,
      "t": 57692.25000000005,
      "d": 115.38450000000012,
      "v": 127
    },
    {
      "midi": 70,
      "hit": false,
      "t": 57807.63450000005,
      "d": 115.38450000000012,
      "v": 127
    },
    {
      "midi": 71,
      "hit": false,
      "t": 58038.40350000005,
      "d": 115.38450000000012,
      "v": 127
    },
    {
      "midi": 73,
      "hit": false,
      "t": 58153.78800000005,
      "d": 115.38450000000012,
      "v": 127
    },
    {
      "midi": 75,
      "hit": false,
      "t": 58269.17250000005,
      "d": 115.38450000000012,
      "v": 127
    },
    {
      "midi": 77,
      "hit": false,
      "t": 58499.94150000005,
      "d": 115.38450000000012,
      "v": 127
    },
    {
      "midi": 54,
      "hit": false,
      "t": 58615.326000000045,
      "d": 923.0760000000009,
      "v": 127
    },
    {
      "midi": 58,
      "hit": false,
      "t": 58615.326000000045,
      "d": 923.0760000000009,
      "v": 127
    },
    {
      "midi": 78,
      "hit": false,
      "t": 58615.32600000005,
      "d": 115.38450000000012,
      "v": 127
    },
    {
      "midi": 82,
      "hit": false,
      "t": 58730.71050000005,
      "d": 115.38450000000012,
      "v": 127
    },
    {
      "midi": 80,
      "hit": false,
      "t": 58961.47950000005,
      "d": 115.38450000000012,
      "v": 127
    },
    {
      "midi": 78,
      "hit": false,
      "t": 59076.86400000005,
      "d": 115.38450000000012,
      "v": 127
    },
    {
      "midi": 77,
      "hit": false,
      "t": 59192.24850000005,
      "d": 115.38450000000012,
      "v": 127
    },
    {
      "midi": 75,
      "hit": false,
      "t": 59423.01750000005,
      "d": 115.38450000000012,
      "v": 127
    },
    {
      "midi": 73,
      "hit": false,
      "t": 59538.40200000005,
      "d": 115.38450000000012,
      "v": 127
    },
    {
      "midi": 71,
      "hit": false,
      "t": 59653.78650000005,
      "d": 115.38450000000012,
      "v": 127
    },
    {
      "midi": 70,
      "hit": false,
      "t": 59884.55550000005,
      "d": 115.38450000000012,
      "v": 127
    },
    {
      "midi": 46,
      "hit": false,
      "t": 59999.940000000046,
      "d": 461.53800000000047,
      "v": 127
    },
    {
      "midi": 68,
      "hit": false,
      "t": 59999.94000000005,
      "d": 115.38450000000012,
      "v": 127
    },
    {
      "midi": 71,
      "hit": false,
      "t": 60115.32450000005,
      "d": 115.38450000000012,
      "v": 127
    },
    {
      "midi": 70,
      "hit": false,
      "t": 60346.09350000005,
      "d": 115.38450000000012,
      "v": 127
    },
    {
      "midi": 53,
      "hit": false,
      "t": 60461.47800000005,
      "d": 461.53800000000047,
      "v": 127
    },
    {
      "midi": 56,
      "hit": false,
      "t": 60461.47800000005,
      "d": 461.53800000000047,
      "v": 127
    },
    {
      "midi": 59,
      "hit": false,
      "t": 60461.47800000005,
      "d": 461.53800000000047,
      "v": 127
    },
    {
      "midi": 68,
      "hit": false,
      "t": 60461.478000000054,
      "d": 115.38450000000012,
      "v": 127
    },
    {
      "midi": 66,
      "hit": false,
      "t": 60576.862500000054,
      "d": 115.38450000000012,
      "v": 127
    },
    {
      "midi": 65,
      "hit": false,
      "t": 60807.631500000054,
      "d": 115.38450000000012,
      "v": 127
    },
    {
      "midi": 63,
      "hit": false,
      "t": 60923.016000000054,
      "d": 115.38450000000012,
      "v": 127
    },
    {
      "midi": 62,
      "hit": false,
      "t": 61038.400500000054,
      "d": 115.38450000000012,
      "v": 127
    },
    {
      "midi": 65,
      "hit": false,
      "t": 61269.169500000055,
      "d": 115.38450000000012,
      "v": 127
    },
    {
      "midi": 46,
      "hit": false,
      "t": 61384.55400000005,
      "d": 461.53800000000047,
      "v": 127
    },
    {
      "midi": 68,
      "hit": false,
      "t": 61384.554000000055,
      "d": 115.38450000000012,
      "v": 127
    },
    {
      "midi": 71,
      "hit": false,
      "t": 61499.938500000055,
      "d": 115.38450000000012,
      "v": 127
    },
    {
      "midi": 70,
      "hit": false,
      "t": 61730.707500000055,
      "d": 115.38450000000012,
      "v": 127
    },
    {
      "midi": 53,
      "hit": false,
      "t": 61846.09200000005,
      "d": 461.53800000000047,
      "v": 127
    },
    {
      "midi": 56,
      "hit": false,
      "t": 61846.09200000005,
      "d": 461.53800000000047,
      "v": 127
    },
    {
      "midi": 59,
      "hit": false,
      "t": 61846.09200000005,
      "d": 461.53800000000047,
      "v": 127
    },
    {
      "midi": 68,
      "hit": false,
      "t": 61846.092000000055,
      "d": 115.38450000000012,
      "v": 127
    },
    {
      "midi": 66,
      "hit": false,
      "t": 61961.476500000055,
      "d": 115.38450000000012,
      "v": 127
    },
    {
      "midi": 65,
      "hit": false,
      "t": 62192.245500000055,
      "d": 115.38450000000012,
      "v": 127
    },
    {
      "midi": 63,
      "hit": false,
      "t": 62307.630000000056,
      "d": 115.38450000000012,
      "v": 127
    },
    {
      "midi": 62,
      "hit": false,
      "t": 62423.014500000056,
      "d": 115.38450000000012,
      "v": 127
    },
    {
      "midi": 65,
      "hit": false,
      "t": 62653.783500000056,
      "d": 115.38450000000012,
      "v": 127
    },
    {
      "midi": 46,
      "hit": false,
      "t": 62769.16800000005,
      "d": 461.53800000000047,
      "v": 127
    },
    {
      "midi": 68,
      "hit": false,
      "t": 62769.168000000056,
      "d": 115.38450000000012,
      "v": 127
    },
    {
      "midi": 71,
      "hit": false,
      "t": 62884.552500000056,
      "d": 115.38450000000012,
      "v": 127
    },
    {
      "midi": 70,
      "hit": false,
      "t": 63115.32150000006,
      "d": 115.38450000000012,
      "v": 127
    },
    {
      "midi": 53,
      "hit": false,
      "t": 63230.70600000005,
      "d": 461.53800000000047,
      "v": 127
    },
    {
      "midi": 56,
      "hit": false,
      "t": 63230.70600000005,
      "d": 461.53800000000047,
      "v": 127
    },
    {
      "midi": 59,
      "hit": false,
      "t": 63230.70600000005,
      "d": 461.53800000000047,
      "v": 127
    },
    {
      "midi": 68,
      "hit": false,
      "t": 63230.70600000006,
      "d": 115.38450000000012,
      "v": 127
    },
    {
      "midi": 66,
      "hit": false,
      "t": 63346.09050000006,
      "d": 115.38450000000012,
      "v": 127
    },
    {
      "midi": 65,
      "hit": false,
      "t": 63576.85950000006,
      "d": 115.38450000000012,
      "v": 127
    },
    {
      "midi": 63,
      "hit": false,
      "t": 63692.24400000006,
      "d": 115.38450000000012,
      "v": 127
    },
    {
      "midi": 62,
      "hit": false,
      "t": 63807.62850000006,
      "d": 115.38450000000012,
      "v": 127
    },
    {
      "midi": 65,
      "hit": false,
      "t": 64038.39750000006,
      "d": 115.38450000000012,
      "v": 127
    },
    {
      "midi": 68,
      "hit": false,
      "t": 64153.78200000006,
      "d": 115.38450000000012,
      "v": 127
    },
    {
      "midi": 71,
      "hit": false,
      "t": 64269.16650000006,
      "d": 115.38450000000012,
      "v": 127
    },
    {
      "midi": 74,
      "hit": false,
      "t": 64499.93550000006,
      "d": 115.38450000000012,
      "v": 127
    },
    {
      "midi": 71,
      "hit": false,
      "t": 64615.32000000006,
      "d": 115.38450000000012,
      "v": 127
    },
    {
      "midi": 74,
      "hit": false,
      "t": 64730.70450000006,
      "d": 115.38450000000012,
      "v": 127
    },
    {
      "midi": 77,
      "hit": false,
      "t": 64961.47350000006,
      "d": 115.38450000000012,
      "v": 127
    },
    {
      "midi": 74,
      "hit": false,
      "t": 65076.85800000006,
      "d": 115.38450000000012,
      "v": 127
    },
    {
      "midi": 77,
      "hit": false,
      "t": 65192.24250000006,
      "d": 115.38450000000012,
      "v": 127
    },
    {
      "midi": 78,
      "hit": false,
      "t": 65423.01150000006,
      "d": 115.38449999999284,
      "v": 127
    },
    {
      "midi": 80,
      "hit": false,
      "t": 65538.39600000005,
      "d": 115.38450000000012,
      "v": 127
    },
    {
      "midi": 58,
      "hit": false,
      "t": 65538.39600000005,
      "d": 461.53800000000047,
      "v": 127
    },
    {
      "midi": 83,
      "hit": false,
      "t": 65653.78050000005,
      "d": 115.38450000000012,
      "v": 127
    },
    {
      "midi": 82,
      "hit": false,
      "t": 65884.54950000005,
      "d": 115.38450000000012,
      "v": 127
    },
    {
      "midi": 80,
      "hit": false,
      "t": 65999.93400000005,
      "d": 115.38450000000012,
      "v": 127
    },
    {
      "midi": 65,
      "hit": false,
      "t": 65999.93400000005,
      "d": 461.53800000000047,
      "v": 127
    },
    {
      "midi": 68,
      "hit": false,
      "t": 65999.93400000005,
      "d": 461.53800000000047,
      "v": 127
    },
    {
      "midi": 71,
      "hit": false,
      "t": 65999.93400000005,
      "d": 461.53800000000047,
      "v": 127
    },
    {
      "midi": 78,
      "hit": false,
      "t": 66115.31850000005,
      "d": 115.38450000000012,
      "v": 127
    },
    {
      "midi": 77,
      "hit": false,
      "t": 66346.08750000005,
      "d": 115.38450000000012,
      "v": 127
    },
    {
      "midi": 75,
      "hit": false,
      "t": 66461.47200000005,
      "d": 115.38450000000012,
      "v": 127
    },
    {
      "midi": 74,
      "hit": false,
      "t": 66576.85650000005,
      "d": 115.38450000000012,
      "v": 127
    },
    {
      "midi": 77,
      "hit": false,
      "t": 66807.62550000005,
      "d": 115.38450000000012,
      "v": 127
    },
    {
      "midi": 80,
      "hit": false,
      "t": 66923.01000000005,
      "d": 115.38450000000012,
      "v": 127
    },
    {
      "midi": 58,
      "hit": false,
      "t": 66923.01000000005,
      "d": 461.53800000000047,
      "v": 127
    },
    {
      "midi": 83,
      "hit": false,
      "t": 67038.39450000005,
      "d": 115.38450000000012,
      "v": 127
    },
    {
      "midi": 82,
      "hit": false,
      "t": 67269.16350000005,
      "d": 115.38450000000012,
      "v": 127
    },
    {
      "midi": 80,
      "hit": false,
      "t": 67384.54800000005,
      "d": 115.38450000000012,
      "v": 127
    },
    {
      "midi": 71,
      "hit": false,
      "t": 67384.54800000005,
      "d": 461.53800000000047,
      "v": 127
    },
    {
      "midi": 78,
      "hit": false,
      "t": 67499.93250000005,
      "d": 115.38450000000012,
      "v": 127
    },
    {
      "midi": 77,
      "hit": false,
      "t": 67730.70150000005,
      "d": 115.38450000000012,
      "v": 127
    },
    {
      "midi": 75,
      "hit": false,
      "t": 67846.08600000005,
      "d": 115.38450000000012,
      "v": 127
    },
    {
      "midi": 74,
      "hit": false,
      "t": 67961.47050000005,
      "d": 115.38450000000012,
      "v": 127
    },
    {
      "midi": 77,
      "hit": false,
      "t": 68192.23950000005,
      "d": 115.38450000000012,
      "v": 127
    },
    {
      "midi": 80,
      "hit": false,
      "t": 68307.62400000005,
      "d": 115.38450000000012,
      "v": 127
    },
    {
      "midi": 83,
      "hit": false,
      "t": 68423.00850000005,
      "d": 115.38450000000012,
      "v": 127
    },
    {
      "midi": 80,
      "hit": false,
      "t": 68653.77750000005,
      "d": 115.38450000000012,
      "v": 127
    },
    {
      "midi": 83,
      "hit": false,
      "t": 68769.16200000005,
      "d": 115.38450000000012,
      "v": 127
    },
    {
      "midi": 80,
      "hit": false,
      "t": 68884.54650000005,
      "d": 115.38450000000012,
      "v": 127
    },
    {
      "midi": 83,
      "hit": false,
      "t": 69115.31550000006,
      "d": 115.38450000000012,
      "v": 127
    },
    {
      "midi": 80,
      "hit": false,
      "t": 69230.70000000006,
      "d": 115.38450000000012,
      "v": 127
    },
    {
      "midi": 83,
      "hit": false,
      "t": 69346.08450000006,
      "d": 115.38450000000012,
      "v": 127
    },
    {
      "midi": 80,
      "hit": false,
      "t": 69576.85350000006,
      "d": 115.38450000000012,
      "v": 127
    },
    {
      "midi": 82,
      "hit": false,
      "t": 69692.23800000006,
      "d": 115.38450000000012,
      "v": 127
    },
    {
      "midi": 70,
      "hit": false,
      "t": 69692.23800000006,
      "d": 923.0760000000009,
      "v": 127
    },
    {
      "midi": 80,
      "hit": false,
      "t": 69807.62250000006,
      "d": 115.38450000000012,
      "v": 127
    },
    {
      "midi": 82,
      "hit": false,
      "t": 70038.39150000006,
      "d": 115.38450000000012,
      "v": 127
    },
    {
      "midi": 80,
      "hit": false,
      "t": 70153.77600000006,
      "d": 115.38450000000012,
      "v": 127
    },
    {
      "midi": 82,
      "hit": false,
      "t": 70269.16050000006,
      "d": 115.38450000000012,
      "v": 127
    },
    {
      "midi": 80,
      "hit": false,
      "t": 70499.92950000006,
      "d": 115.38450000000012,
      "v": 127
    },
    {
      "midi": 82,
      "hit": false,
      "t": 70615.31400000006,
      "d": 115.38450000000012,
      "v": 127
    },
    {
      "midi": 80,
      "hit": false,
      "t": 70730.69850000006,
      "d": 115.38450000000012,
      "v": 127
    },
    {
      "midi": 82,
      "hit": false,
      "t": 70961.46750000006,
      "d": 115.38450000000012,
      "v": 127
    },
    {
      "midi": 79,
      "hit": false,
      "t": 71076.85200000006,
      "d": 115.38450000000012,
      "v": 127
    },
    {
      "midi": 51,
      "hit": false,
      "t": 71076.85200000006,
      "d": 461.53800000000047,
      "v": 127
    },
    {
      "midi": 82,
      "hit": false,
      "t": 71192.23650000006,
      "d": 115.38450000000012,
      "v": 127
    },
    {
      "midi": 80,
      "hit": false,
      "t": 71423.00550000006,
      "d": 115.38450000000012,
      "v": 127
    },
    {
      "midi": 79,
      "hit": false,
      "t": 71538.39000000006,
      "d": 115.38450000000012,
      "v": 127
    },
    {
      "midi": 58,
      "hit": false,
      "t": 71538.39000000006,
      "d": 461.53800000000047,
      "v": 127
    },
    {
      "midi": 77,
      "hit": false,
      "t": 71653.77450000006,
      "d": 115.38450000000012,
      "v": 127
    },
    {
      "midi": 75,
      "hit": false,
      "t": 71884.54350000006,
      "d": 115.38450000000012,
      "v": 127
    },
    {
      "midi": 74,
      "hit": false,
      "t": 71999.92800000006,
      "d": 115.38450000000012,
      "v": 127
    },
    {
      "midi": 72,
      "hit": false,
      "t": 72115.31250000006,
      "d": 115.38450000000012,
      "v": 127
    },
    {
      "midi": 70,
      "hit": false,
      "t": 72346.08150000006,
      "d": 115.38450000000012,
      "v": 127
    },
    {
      "midi": 68,
      "hit": false,
      "t": 72461.46600000006,
      "d": 115.38450000000012,
      "v": 127
    },
    {
      "midi": 53,
      "hit": false,
      "t": 72461.46600000006,
      "d": 461.53800000000047,
      "v": 127
    },
    {
      "midi": 67,
      "hit": false,
      "t": 72576.85050000006,
      "d": 115.38450000000012,
      "v": 127
    },
    {
      "midi": 65,
      "hit": false,
      "t": 72807.61950000006,
      "d": 115.38450000000012,
      "v": 127
    },
    {
      "midi": 63,
      "hit": false,
      "t": 72923.00400000006,
      "d": 115.38450000000012,
      "v": 127
    },
    {
      "midi": 58,
      "hit": false,
      "t": 72923.00400000006,
      "d": 461.53800000000047,
      "v": 127
    },
    {
      "midi": 62,
      "hit": false,
      "t": 73038.38850000006,
      "d": 115.38450000000012,
      "v": 127
    },
    {
      "midi": 60,
      "hit": false,
      "t": 73269.15750000006,
      "d": 115.38450000000012,
      "v": 127
    },
    {
      "midi": 58,
      "hit": false,
      "t": 73384.54200000006,
      "d": 115.38450000000012,
      "v": 127
    },
    {
      "midi": 60,
      "hit": false,
      "t": 73499.92650000006,
      "d": 115.38450000000012,
      "v": 127
    },
    {
      "midi": 62,
      "hit": false,
      "t": 73730.69550000006,
      "d": 115.38450000000012,
      "v": 127
    },
    {
      "midi": 63,
      "hit": false,
      "t": 73846.08000000006,
      "d": 115.38450000000012,
      "v": 127
    },
    {
      "midi": 55,
      "hit": false,
      "t": 73846.08000000006,
      "d": 461.53800000000047,
      "v": 127
    },
    {
      "midi": 62,
      "hit": false,
      "t": 73961.46450000006,
      "d": 115.38450000000012,
      "v": 127
    },
    {
      "midi": 63,
      "hit": false,
      "t": 74192.23350000006,
      "d": 115.38450000000012,
      "v": 127
    },
    {
      "midi": 64,
      "hit": false,
      "t": 74307.61800000006,
      "d": 115.38450000000012,
      "v": 127
    },
    {
      "midi": 58,
      "hit": false,
      "t": 74307.61800000006,
      "d": 461.53800000000047,
      "v": 127
    },
    {
      "midi": 63,
      "hit": false,
      "t": 74423.00250000006,
      "d": 115.38450000000012,
      "v": 127
    },
    {
      "midi": 64,
      "hit": false,
      "t": 74653.77150000006,
      "d": 115.38450000000012,
      "v": 127
    },
    {
      "midi": 65,
      "hit": false,
      "t": 74769.15600000006,
      "d": 115.38450000000012,
      "v": 127
    },
    {
      "midi": 64,
      "hit": false,
      "t": 74884.54050000006,
      "d": 115.38450000000012,
      "v": 127
    },
    {
      "midi": 65,
      "hit": false,
      "t": 75115.30950000006,
      "d": 115.38450000000012,
      "v": 127
    },
    {
      "midi": 66,
      "hit": false,
      "t": 75230.69400000006,
      "d": 115.38450000000012,
      "v": 127
    },
    {
      "midi": 50,
      "hit": false,
      "t": 75230.69400000006,
      "d": 461.53800000000047,
      "v": 127
    },
    {
      "midi": 65,
      "hit": false,
      "t": 75346.07850000006,
      "d": 115.38450000000012,
      "v": 127
    },
    {
      "midi": 66,
      "hit": false,
      "t": 75576.84750000006,
      "d": 115.38450000000012,
      "v": 127
    },
    {
      "midi": 67,
      "hit": false,
      "t": 75692.23200000006,
      "d": 115.38450000000012,
      "v": 127
    },
    {
      "midi": 58,
      "hit": false,
      "t": 75692.23200000006,
      "d": 461.53800000000047,
      "v": 127
    },
    {
      "midi": 66,
      "hit": false,
      "t": 75807.61650000006,
      "d": 115.38450000000012,
      "v": 127
    },
    {
      "midi": 67,
      "hit": false,
      "t": 76038.38550000006,
      "d": 115.38450000000012,
      "v": 127
    },
    {
      "midi": 68,
      "hit": false,
      "t": 76153.77000000006,
      "d": 115.38450000000012,
      "v": 127
    },
    {
      "midi": 67,
      "hit": false,
      "t": 76269.15450000006,
      "d": 115.38450000000012,
      "v": 127
    },
    {
      "midi": 68,
      "hit": false,
      "t": 76499.92350000006,
      "d": 115.38450000000012,
      "v": 127
    },
    {
      "midi": 67,
      "hit": false,
      "t": 76615.30800000006,
      "d": 115.38450000000012,
      "v": 127
    },
    {
      "midi": 51,
      "hit": false,
      "t": 76615.30800000006,
      "d": 461.53800000000047,
      "v": 127
    },
    {
      "midi": 70,
      "hit": false,
      "t": 76730.69250000006,
      "d": 115.38450000000012,
      "v": 127
    },
    {
      "midi": 68,
      "hit": false,
      "t": 76961.46150000006,
      "d": 115.38450000000012,
      "v": 127
    },
    {
      "midi": 67,
      "hit": false,
      "t": 77076.84600000006,
      "d": 115.38450000000012,
      "v": 127
    },
    {
      "midi": 58,
      "hit": false,
      "t": 77076.84600000006,
      "d": 461.53800000000047,
      "v": 127
    },
    {
      "midi": 68,
      "hit": false,
      "t": 77192.23050000006,
      "d": 115.38450000000012,
      "v": 127
    },
    {
      "midi": 70,
      "hit": false,
      "t": 77422.99950000006,
      "d": 115.38450000000012,
      "v": 127
    },
    {
      "midi": 72,
      "hit": false,
      "t": 77538.38400000006,
      "d": 115.38450000000012,
      "v": 127
    },
    {
      "midi": 74,
      "hit": false,
      "t": 77653.76850000006,
      "d": 115.38450000000012,
      "v": 127
    },
    {
      "midi": 75,
      "hit": false,
      "t": 77884.53750000006,
      "d": 115.38450000000012,
      "v": 127
    },
    {
      "midi": 77,
      "hit": false,
      "t": 77999.92200000006,
      "d": 115.38450000000012,
      "v": 127
    },
    {
      "midi": 44,
      "hit": false,
      "t": 77999.92200000006,
      "d": 461.53800000000047,
      "v": 127
    },
    {
      "midi": 84,
      "hit": false,
      "t": 78115.30650000006,
      "d": 115.38450000000012,
      "v": 127
    },
    {
      "midi": 82,
      "hit": false,
      "t": 78346.07550000006,
      "d": 115.38450000000012,
      "v": 127
    },
    {
      "midi": 80,
      "hit": false,
      "t": 78461.46000000006,
      "d": 115.38450000000012,
      "v": 127
    },
    {
      "midi": 56,
      "hit": false,
      "t": 78461.46000000006,
      "d": 461.53800000000047,
      "v": 127
    },
    {
      "midi": 60,
      "hit": false,
      "t": 78461.46000000006,
      "d": 461.53800000000047,
      "v": 127
    },
    {
      "midi": 79,
      "hit": false,
      "t": 78576.84450000006,
      "d": 115.38450000000012,
      "v": 127
    },
    {
      "midi": 77,
      "hit": false,
      "t": 78807.61350000006,
      "d": 115.38450000000012,
      "v": 127
    },
    {
      "midi": 75,
      "hit": false,
      "t": 78922.99800000007,
      "d": 115.38450000000012,
      "v": 127
    },
    {
      "midi": 74,
      "hit": false,
      "t": 79038.38250000007,
      "d": 115.38450000000012,
      "v": 127
    },
    {
      "midi": 72,
      "hit": false,
      "t": 79269.15150000007,
      "d": 115.38450000000012,
      "v": 127
    },
    {
      "midi": 74,
      "hit": false,
      "t": 79384.53600000007,
      "d": 115.38450000000012,
      "v": 127
    },
    {
      "midi": 46,
      "hit": false,
      "t": 79384.53600000007,
      "d": 461.53800000000047,
      "v": 127
    },
    {
      "midi": 77,
      "hit": false,
      "t": 79499.92050000007,
      "d": 115.38450000000012,
      "v": 127
    },
    {
      "midi": 75,
      "hit": false,
      "t": 79730.68950000007,
      "d": 115.38450000000012,
      "v": 127
    },
    {
      "midi": 74,
      "hit": false,
      "t": 79846.07400000007,
      "d": 115.38450000000012,
      "v": 127
    },
    {
      "midi": 56,
      "hit": false,
      "t": 79846.07400000007,
      "d": 461.53800000000047,
      "v": 127
    },
    {
      "midi": 58,
      "hit": false,
      "t": 79846.07400000007,
      "d": 461.53800000000047,
      "v": 127
    },
    {
      "midi": 65,
      "hit": false,
      "t": 79846.07400000007,
      "d": 461.53800000000047,
      "v": 127
    },
    {
      "midi": 75,
      "hit": false,
      "t": 79961.45850000007,
      "d": 115.38450000000012,
      "v": 127
    },
    {
      "midi": 77,
      "hit": false,
      "t": 80192.22750000007,
      "d": 115.38450000000012,
      "v": 127
    },
    {
      "midi": 79,
      "hit": false,
      "t": 80307.61200000007,
      "d": 115.38450000000012,
      "v": 127
    },
    {
      "midi": 80,
      "hit": false,
      "t": 80422.99650000007,
      "d": 115.38450000000012,
      "v": 127
    },
    {
      "midi": 82,
      "hit": false,
      "t": 80653.76550000007,
      "d": 115.38450000000012,
      "v": 127
    },
    {
      "midi": 75,
      "hit": false,
      "t": 80769.15000000007,
      "d": 115.38450000000012,
      "v": 127
    },
    {
      "midi": 51,
      "hit": false,
      "t": 80769.15000000007,
      "d": 461.53800000000047,
      "v": 127
    },
    {
      "midi": 77,
      "hit": false,
      "t": 80884.53450000007,
      "d": 115.38450000000012,
      "v": 127
    },
    {
      "midi": 79,
      "hit": false,
      "t": 81115.30350000007,
      "d": 115.38450000000012,
      "v": 127
    },
    {
      "midi": 80,
      "hit": false,
      "t": 81230.68800000007,
      "d": 115.38450000000012,
      "v": 127
    },
    {
      "midi": 55,
      "hit": false,
      "t": 81230.68800000007,
      "d": 461.53800000000047,
      "v": 127
    },
    {
      "midi": 58,
      "hit": false,
      "t": 81230.68800000007,
      "d": 461.53800000000047,
      "v": 127
    },
    {
      "midi": 63,
      "hit": false,
      "t": 81230.68800000007,
      "d": 461.53800000000047,
      "v": 127
    },
    {
      "midi": 82,
      "hit": false,
      "t": 81346.07250000007,
      "d": 115.38450000000012,
      "v": 127
    },
    {
      "midi": 84,
      "hit": false,
      "t": 81576.84150000007,
      "d": 115.38450000000012,
      "v": 127
    },
    {
      "midi": 86,
      "hit": false,
      "t": 81692.22600000007,
      "d": 115.38450000000012,
      "v": 127
    },
    {
      "midi": 87,
      "hit": false,
      "t": 81807.61050000007,
      "d": 115.38450000000012,
      "v": 127
    },
    {
      "midi": 89,
      "hit": false,
      "t": 82038.37950000007,
      "d": 115.38450000000012,
      "v": 127
    },
    {
      "midi": 91,
      "hit": false,
      "t": 82153.76400000007,
      "d": 115.38450000000012,
      "v": 127
    },
    {
      "midi": 51,
      "hit": false,
      "t": 82153.76400000007,
      "d": 461.53800000000047,
      "v": 127
    },
    {
      "midi": 94,
      "hit": false,
      "t": 82269.14850000007,
      "d": 115.38450000000012,
      "v": 127
    },
    {
      "midi": 92,
      "hit": false,
      "t": 82499.91750000007,
      "d": 115.38450000000012,
      "v": 127
    },
    {
      "midi": 91,
      "hit": false,
      "t": 82615.30200000007,
      "d": 115.38450000000012,
      "v": 127
    },
    {
      "midi": 58,
      "hit": false,
      "t": 82615.30200000007,
      "d": 461.53800000000047,
      "v": 127
    },
    {
      "midi": 89,
      "hit": false,
      "t": 82730.68650000007,
      "d": 115.38450000000012,
      "v": 127
    },
    {
      "midi": 87,
      "hit": false,
      "t": 82961.45550000007,
      "d": 115.38450000000012,
      "v": 127
    },
    {
      "midi": 86,
      "hit": false,
      "t": 83076.84000000007,
      "d": 115.38450000000012,
      "v": 127
    },
    {
      "midi": 84,
      "hit": false,
      "t": 83192.22450000007,
      "d": 115.38450000000012,
      "v": 127
    },
    {
      "midi": 82,
      "hit": false,
      "t": 83422.99350000007,
      "d": 115.38450000000012,
      "v": 127
    },
    {
      "midi": 80,
      "hit": false,
      "t": 83538.37800000007,
      "d": 115.38450000000012,
      "v": 127
    },
    {
      "midi": 53,
      "hit": false,
      "t": 83538.37800000007,
      "d": 461.53800000000047,
      "v": 127
    },
    {
      "midi": 79,
      "hit": false,
      "t": 83653.76250000007,
      "d": 115.38450000000012,
      "v": 127
    },
    {
      "midi": 77,
      "hit": false,
      "t": 83884.53150000007,
      "d": 115.38450000000012,
      "v": 127
    },
    {
      "midi": 75,
      "hit": false,
      "t": 83999.91600000007,
      "d": 115.38450000000012,
      "v": 127
    },
    {
      "midi": 58,
      "hit": false,
      "t": 83999.91600000007,
      "d": 461.53800000000047,
      "v": 127
    },
    {
      "midi": 74,
      "hit": false,
      "t": 84115.30050000007,
      "d": 115.38450000000012,
      "v": 127
    },
    {
      "midi": 72,
      "hit": false,
      "t": 84346.06950000007,
      "d": 115.38450000000012,
      "v": 127
    },
    {
      "midi": 70,
      "hit": false,
      "t": 84461.45400000007,
      "d": 115.38450000000012,
      "v": 127
    },
    {
      "midi": 72,
      "hit": false,
      "t": 84576.83850000007,
      "d": 115.38450000000012,
      "v": 127
    },
    {
      "midi": 74,
      "hit": false,
      "t": 84807.60750000007,
      "d": 115.38450000000012,
      "v": 127
    },
    {
      "midi": 75,
      "hit": false,
      "t": 84922.99200000007,
      "d": 115.38450000000012,
      "v": 127
    },
    {
      "midi": 55,
      "hit": false,
      "t": 84922.99200000007,
      "d": 461.53800000000047,
      "v": 127
    },
    {
      "midi": 74,
      "hit": false,
      "t": 85038.37650000007,
      "d": 115.38450000000012,
      "v": 127
    },
    {
      "midi": 75,
      "hit": false,
      "t": 85269.14550000007,
      "d": 115.38450000000012,
      "v": 127
    },
    {
      "midi": 76,
      "hit": false,
      "t": 85384.53000000007,
      "d": 115.38450000000012,
      "v": 127
    },
    {
      "midi": 58,
      "hit": false,
      "t": 85384.53000000007,
      "d": 461.53800000000047,
      "v": 127
    },
    {
      "midi": 75,
      "hit": false,
      "t": 85499.91450000007,
      "d": 115.38450000000012,
      "v": 127
    },
    {
      "midi": 76,
      "hit": false,
      "t": 85730.68350000007,
      "d": 115.38450000000012,
      "v": 127
    },
    {
      "midi": 77,
      "hit": false,
      "t": 85846.06800000007,
      "d": 115.38450000000012,
      "v": 127
    },
    {
      "midi": 76,
      "hit": false,
      "t": 85961.45250000007,
      "d": 115.38450000000012,
      "v": 127
    },
    {
      "midi": 77,
      "hit": false,
      "t": 86192.22150000007,
      "d": 115.38450000000012,
      "v": 127
    },
    {
      "midi": 78,
      "hit": false,
      "t": 86307.60600000007,
      "d": 115.38450000000012,
      "v": 127
    },
    {
      "midi": 50,
      "hit": false,
      "t": 86307.60600000007,
      "d": 461.53800000000047,
      "v": 127
    },
    {
      "midi": 77,
      "hit": false,
      "t": 86422.99050000007,
      "d": 115.38450000000012,
      "v": 127
    },
    {
      "midi": 78,
      "hit": false,
      "t": 86653.75950000007,
      "d": 115.38450000000012,
      "v": 127
    },
    {
      "midi": 79,
      "hit": false,
      "t": 86769.14400000007,
      "d": 115.38450000000012,
      "v": 127
    },
    {
      "midi": 58,
      "hit": false,
      "t": 86769.14400000007,
      "d": 461.53800000000047,
      "v": 127
    },
    {
      "midi": 78,
      "hit": false,
      "t": 86884.52850000007,
      "d": 115.38450000000012,
      "v": 127
    },
    {
      "midi": 79,
      "hit": false,
      "t": 87115.29750000007,
      "d": 115.38450000000012,
      "v": 127
    },
    {
      "midi": 80,
      "hit": false,
      "t": 87230.68200000007,
      "d": 115.38450000000012,
      "v": 127
    },
    {
      "midi": 79,
      "hit": false,
      "t": 87346.06650000007,
      "d": 115.38450000000012,
      "v": 127
    },
    {
      "midi": 80,
      "hit": false,
      "t": 87576.83550000007,
      "d": 115.38450000000012,
      "v": 127
    },
    {
      "midi": 79,
      "hit": false,
      "t": 87692.22000000007,
      "d": 115.38450000000012,
      "v": 127
    },
    {
      "midi": 49,
      "hit": false,
      "t": 87692.22000000007,
      "d": 461.53800000000047,
      "v": 127
    },
    {
      "midi": 78,
      "hit": false,
      "t": 87807.60450000007,
      "d": 115.38450000000012,
      "v": 127
    },
    {
      "midi": 79,
      "hit": false,
      "t": 88038.37350000007,
      "d": 115.38450000000012,
      "v": 127
    },
    {
      "midi": 80,
      "hit": false,
      "t": 88153.75800000007,
      "d": 115.38450000000012,
      "v": 127
    },
    {
      "midi": 51,
      "hit": false,
      "t": 88153.75800000007,
      "d": 461.53800000000047,
      "v": 127
    },
    {
      "midi": 58,
      "hit": false,
      "t": 88153.75800000007,
      "d": 461.53800000000047,
      "v": 127
    },
    {
      "midi": 79,
      "hit": false,
      "t": 88269.14250000007,
      "d": 115.38450000000012,
      "v": 127
    },
    {
      "midi": 80,
      "hit": false,
      "t": 88499.91150000007,
      "d": 115.38450000000012,
      "v": 127
    },
    {
      "midi": 82,
      "hit": false,
      "t": 88615.29600000007,
      "d": 115.38450000000012,
      "v": 127
    },
    {
      "midi": 80,
      "hit": false,
      "t": 88730.68050000007,
      "d": 115.38450000000012,
      "v": 127
    },
    {
      "midi": 82,
      "hit": false,
      "t": 88961.44950000008,
      "d": 115.38450000000012,
      "v": 127
    },
    {
      "midi": 80,
      "hit": false,
      "t": 89076.83400000008,
      "d": 115.38450000000012,
      "v": 127
    },
    {
      "midi": 48,
      "hit": false,
      "t": 89076.83400000008,
      "d": 461.53800000000047,
      "v": 127
    },
    {
      "midi": 79,
      "hit": false,
      "t": 89192.21850000008,
      "d": 115.38450000000012,
      "v": 127
    },
    {
      "midi": 80,
      "hit": false,
      "t": 89422.98750000008,
      "d": 115.38450000000012,
      "v": 127
    },
    {
      "midi": 82,
      "hit": false,
      "t": 89538.37200000008,
      "d": 115.38450000000012,
      "v": 127
    },
    {
      "midi": 51,
      "hit": false,
      "t": 89538.37200000008,
      "d": 461.53800000000047,
      "v": 127
    },
    {
      "midi": 56,
      "hit": false,
      "t": 89538.37200000008,
      "d": 461.53800000000047,
      "v": 127
    },
    {
      "midi": 80,
      "hit": false,
      "t": 89653.75650000008,
      "d": 115.38450000000012,
      "v": 127
    },
    {
      "midi": 82,
      "hit": false,
      "t": 89884.52550000008,
      "d": 115.38450000000012,
      "v": 127
    },
    {
      "midi": 84,
      "hit": false,
      "t": 89999.91000000008,
      "d": 115.38450000000012,
      "v": 127
    },
    {
      "midi": 83,
      "hit": false,
      "t": 90115.29450000008,
      "d": 115.38450000000012,
      "v": 127
    },
    {
      "midi": 84,
      "hit": false,
      "t": 90346.06350000008,
      "d": 115.38450000000012,
      "v": 127
    },
    {
      "midi": 86,
      "hit": false,
      "t": 90461.44800000008,
      "d": 115.38450000000012,
      "v": 127
    },
    {
      "midi": 48,
      "hit": false,
      "t": 90461.44800000008,
      "d": 461.53800000000047,
      "v": 127
    },
    {
      "midi": 85,
      "hit": false,
      "t": 90576.83250000008,
      "d": 115.38450000000012,
      "v": 127
    },
    {
      "midi": 86,
      "hit": false,
      "t": 90807.60150000008,
      "d": 115.38450000000012,
      "v": 127
    },
    {
      "midi": 88,
      "hit": false,
      "t": 90922.98600000008,
      "d": 115.38450000000012,
      "v": 127
    },
    {
      "midi": 50,
      "hit": false,
      "t": 90922.98600000008,
      "d": 461.53800000000047,
      "v": 127
    },
    {
      "midi": 57,
      "hit": false,
      "t": 90922.98600000008,
      "d": 461.53800000000047,
      "v": 127
    },
    {
      "midi": 86,
      "hit": false,
      "t": 91038.37050000008,
      "d": 115.38450000000012,
      "v": 127
    },
    {
      "midi": 88,
      "hit": false,
      "t": 91269.13950000008,
      "d": 115.38450000000012,
      "v": 127
    },
    {
      "midi": 90,
      "hit": false,
      "t": 91384.52400000008,
      "d": 115.38450000000012,
      "v": 127
    },
    {
      "midi": 88,
      "hit": false,
      "t": 91499.90850000008,
      "d": 115.38450000000012,
      "v": 127
    },
    {
      "midi": 90,
      "hit": false,
      "t": 91730.67750000008,
      "d": 115.38450000000012,
      "v": 127
    },
    {
      "midi": 91,
      "hit": false,
      "t": 91846.06200000008,
      "d": 115.38450000000012,
      "v": 127
    },
    {
      "midi": 47,
      "hit": false,
      "t": 91846.06200000008,
      "d": 461.53800000000047,
      "v": 127
    },
    {
      "midi": 90,
      "hit": false,
      "t": 91961.44650000008,
      "d": 115.38450000000012,
      "v": 127
    },
    {
      "midi": 91,
      "hit": false,
      "t": 92192.21550000008,
      "d": 115.38450000000012,
      "v": 127
    },
    {
      "midi": 93,
      "hit": false,
      "t": 92307.60000000008,
      "d": 115.38450000000012,
      "v": 127
    },
    {
      "midi": 50,
      "hit": false,
      "t": 92307.60000000008,
      "d": 461.53800000000047,
      "v": 127
    },
    {
      "midi": 55,
      "hit": false,
      "t": 92307.60000000008,
      "d": 461.53800000000047,
      "v": 127
    },
    {
      "midi": 91,
      "hit": false,
      "t": 92422.98450000008,
      "d": 115.38450000000012,
      "v": 127
    },
    {
      "midi": 93,
      "hit": false,
      "t": 92653.75350000008,
      "d": 115.38450000000012,
      "v": 127
    },
    {
      "midi": 95,
      "hit": false,
      "t": 92769.13800000008,
      "d": 115.38450000000012,
      "v": 127
    },
    {
      "midi": 93,
      "hit": false,
      "t": 92884.52250000008,
      "d": 115.38450000000012,
      "v": 127
    },
    {
      "midi": 95,
      "hit": false,
      "t": 93115.29150000008,
      "d": 115.38450000000012,
      "v": 127
    },
    {
      "midi": 96,
      "hit": false,
      "t": 93230.67600000008,
      "d": 115.38450000000012,
      "v": 127
    },
    {
      "midi": 46,
      "hit": false,
      "t": 93230.67600000008,
      "d": 461.53800000000047,
      "v": 127
    },
    {
      "midi": 95,
      "hit": false,
      "t": 93346.06050000008,
      "d": 115.38450000000012,
      "v": 127
    },
    {
      "midi": 96,
      "hit": false,
      "t": 93576.82950000008,
      "d": 115.38450000000012,
      "v": 127
    },
    {
      "midi": 98,
      "hit": false,
      "t": 93692.21400000008,
      "d": 115.38450000000012,
      "v": 127
    },
    {
      "midi": 48,
      "hit": false,
      "t": 93692.21400000008,
      "d": 461.53800000000047,
      "v": 127
    },
    {
      "midi": 55,
      "hit": false,
      "t": 93692.21400000008,
      "d": 461.53800000000047,
      "v": 127
    },
    {
      "midi": 96,
      "hit": false,
      "t": 93807.59850000008,
      "d": 115.38450000000012,
      "v": 127
    },
    {
      "midi": 98,
      "hit": false,
      "t": 94038.36750000008,
      "d": 115.38450000000012,
      "v": 127
    },
    {
      "midi": 100,
      "hit": false,
      "t": 94153.75200000008,
      "d": 115.38450000000012,
      "v": 127
    },
    {
      "midi": 98,
      "hit": false,
      "t": 94269.13650000008,
      "d": 115.38450000000012,
      "v": 127
    },
    {
      "midi": 100,
      "hit": false,
      "t": 94499.90550000008,
      "d": 115.38450000000012,
      "v": 127
    },
    {
      "midi": 101,
      "hit": false,
      "t": 94615.29000000008,
      "d": 115.38450000000012,
      "v": 127
    },
    {
      "midi": 44,
      "hit": false,
      "t": 94615.29000000008,
      "d": 461.53800000000047,
      "v": 127
    },
    {
      "midi": 99,
      "hit": false,
      "t": 94730.67450000008,
      "d": 115.38450000000012,
      "v": 127
    },
    {
      "midi": 97,
      "hit": false,
      "t": 94961.44350000008,
      "d": 115.38450000000012,
      "v": 127
    },
    {
      "midi": 96,
      "hit": false,
      "t": 95076.82800000008,
      "d": 115.38450000000012,
      "v": 127
    },
    {
      "midi": 48,
      "hit": false,
      "t": 95076.82800000008,
      "d": 461.53800000000047,
      "v": 127
    },
    {
      "midi": 53,
      "hit": false,
      "t": 95076.82800000008,
      "d": 461.53800000000047,
      "v": 127
    },
    {
      "midi": 94,
      "hit": false,
      "t": 95192.21250000008,
      "d": 115.38450000000012,
      "v": 127
    },
    {
      "midi": 92,
      "hit": false,
      "t": 95422.98150000008,
      "d": 115.38450000000012,
      "v": 127
    },
    {
      "midi": 91,
      "hit": false,
      "t": 95538.36600000008,
      "d": 115.38450000000012,
      "v": 127
    },
    {
      "midi": 89,
      "hit": false,
      "t": 95653.75050000008,
      "d": 115.38450000000012,
      "v": 127
    },
    {
      "midi": 87,
      "hit": false,
      "t": 95884.51950000008,
      "d": 115.38450000000012,
      "v": 127
    },
    {
      "midi": 86,
      "hit": false,
      "t": 95999.90400000008,
      "d": 115.38450000000012,
      "v": 127
    },
    {
      "midi": 46,
      "hit": false,
      "t": 95999.90400000008,
      "d": 461.53800000000047,
      "v": 127
    },
    {
      "midi": 84,
      "hit": false,
      "t": 96115.28850000008,
      "d": 115.38450000000012,
      "v": 127
    },
    {
      "midi": 82,
      "hit": false,
      "t": 96346.05750000008,
      "d": 115.38450000000012,
      "v": 127
    },
    {
      "midi": 81,
      "hit": false,
      "t": 96461.44200000008,
      "d": 115.38450000000012,
      "v": 127
    },
    {
      "midi": 53,
      "hit": false,
      "t": 96461.44200000008,
      "d": 461.53800000000047,
      "v": 127
    },
    {
      "midi": 56,
      "hit": false,
      "t": 96461.44200000008,
      "d": 461.53800000000047,
      "v": 127
    },
    {
      "midi": 82,
      "hit": false,
      "t": 96576.82650000008,
      "d": 115.38450000000012,
      "v": 127
    },
    {
      "midi": 84,
      "hit": false,
      "t": 96807.59550000008,
      "d": 115.38450000000012,
      "v": 127
    },
    {
      "midi": 86,
      "hit": false,
      "t": 96922.98000000008,
      "d": 115.38450000000012,
      "v": 127
    },
    {
      "midi": 87,
      "hit": false,
      "t": 97038.36450000008,
      "d": 115.38450000000012,
      "v": 127
    },
    {
      "midi": 89,
      "hit": false,
      "t": 97269.13350000008,
      "d": 115.38450000000012,
      "v": 127
    },
    {
      "midi": 90,
      "hit": false,
      "t": 97384.51800000008,
      "d": 115.38450000000012,
      "v": 127
    },
    {
      "midi": 51,
      "hit": false,
      "t": 97384.51800000008,
      "d": 461.53800000000047,
      "v": 127
    },
    {
      "midi": 94,
      "hit": false,
      "t": 97499.90250000008,
      "d": 115.38450000000012,
      "v": 127
    },
    {
      "midi": 92,
      "hit": false,
      "t": 97730.67150000008,
      "d": 115.38450000000012,
      "v": 127
    },
    {
      "midi": 90,
      "hit": false,
      "t": 97846.05600000008,
      "d": 115.38450000000012,
      "v": 127
    },
    {
      "midi": 63,
      "hit": false,
      "t": 97846.05600000008,
      "d": 461.53800000000047,
      "v": 127
    },
    {
      "midi": 89,
      "hit": false,
      "t": 97961.44050000008,
      "d": 115.38450000000012,
      "v": 127
    },
    {
      "midi": 87,
      "hit": false,
      "t": 98192.20950000008,
      "d": 115.38450000000012,
      "v": 127
    },
    {
      "midi": 85,
      "hit": false,
      "t": 98307.59400000008,
      "d": 115.38450000000012,
      "v": 127
    },
    {
      "midi": 83,
      "hit": false,
      "t": 98422.97850000008,
      "d": 115.38450000000012,
      "v": 127
    },
    {
      "midi": 82,
      "hit": false,
      "t": 98653.74750000008,
      "d": 115.38450000000012,
      "v": 127
    },
    {
      "midi": 83,
      "hit": false,
      "t": 98769.13200000009,
      "d": 115.38450000000012,
      "v": 127
    },
    {
      "midi": 44,
      "hit": false,
      "t": 98769.13200000009,
      "d": 461.53800000000047,
      "v": 127
    },
    {
      "midi": 87,
      "hit": false,
      "t": 98884.51650000009,
      "d": 115.38450000000012,
      "v": 127
    },
    {
      "midi": 85,
      "hit": false,
      "t": 99115.28550000009,
      "d": 115.38450000000012,
      "v": 127
    },
    {
      "midi": 83,
      "hit": false,
      "t": 99230.67000000009,
      "d": 115.38450000000012,
      "v": 127
    },
    {
      "midi": 56,
      "hit": false,
      "t": 99230.67000000009,
      "d": 461.53800000000047,
      "v": 127
    },
    {
      "midi": 82,
      "hit": false,
      "t": 99346.05450000009,
      "d": 115.38450000000012,
      "v": 127
    },
    {
      "midi": 80,
      "hit": false,
      "t": 99576.82350000009,
      "d": 115.38450000000012,
      "v": 127
    },
    {
      "midi": 78,
      "hit": false,
      "t": 99692.20800000009,
      "d": 115.38450000000012,
      "v": 127
    },
    {
      "midi": 77,
      "hit": false,
      "t": 99807.59250000009,
      "d": 115.38450000000012,
      "v": 127
    },
    {
      "midi": 75,
      "hit": false,
      "t": 100038.36150000009,
      "d": 115.38450000000012,
      "v": 127
    },
    {
      "midi": 74,
      "hit": false,
      "t": 100153.74600000009,
      "d": 115.38450000000012,
      "v": 127
    },
    {
      "midi": 46,
      "hit": false,
      "t": 100153.74600000009,
      "d": 461.53800000000047,
      "v": 127
    },
    {
      "midi": 77,
      "hit": false,
      "t": 100269.13050000009,
      "d": 115.38450000000012,
      "v": 127
    },
    {
      "midi": 75,
      "hit": false,
      "t": 100499.89950000009,
      "d": 115.38450000000012,
      "v": 127
    },
    {
      "midi": 74,
      "hit": false,
      "t": 100615.28400000009,
      "d": 115.38450000000012,
      "v": 127
    },
    {
      "midi": 58,
      "hit": false,
      "t": 100615.28400000009,
      "d": 461.53800000000047,
      "v": 127
    },
    {
      "midi": 71,
      "hit": false,
      "t": 100730.66850000009,
      "d": 115.38450000000012,
      "v": 127
    },
    {
      "midi": 70,
      "hit": false,
      "t": 100961.43750000009,
      "d": 115.38450000000012,
      "v": 127
    },
    {
      "midi": 68,
      "hit": false,
      "t": 101076.82200000009,
      "d": 115.38450000000012,
      "v": 127
    },
    {
      "midi": 66,
      "hit": false,
      "t": 101192.20650000009,
      "d": 115.38450000000012,
      "v": 127
    },
    {
      "midi": 65,
      "hit": false,
      "t": 101422.97550000009,
      "d": 115.38450000000012,
      "v": 127
    },
    {
      "midi": 78,
      "hit": false,
      "t": 101538.36000000009,
      "d": 115.38450000000012,
      "v": 127
    },
    {
      "midi": 39,
      "hit": false,
      "t": 101538.36000000009,
      "d": 461.53800000000047,
      "v": 127
    },
    {
      "midi": 82,
      "hit": false,
      "t": 101653.74450000009,
      "d": 115.38450000000012,
      "v": 127
    },
    {
      "midi": 80,
      "hit": false,
      "t": 101884.51350000009,
      "d": 115.38450000000012,
      "v": 127
    },
    {
      "midi": 78,
      "hit": false,
      "t": 101999.89800000009,
      "d": 115.38450000000012,
      "v": 127
    },
    {
      "midi": 51,
      "hit": false,
      "t": 101999.89800000009,
      "d": 461.53800000000047,
      "v": 127
    },
    {
      "midi": 77,
      "hit": false,
      "t": 102115.28250000009,
      "d": 115.38450000000012,
      "v": 127
    },
    {
      "midi": 75,
      "hit": false,
      "t": 102346.05150000009,
      "d": 115.38450000000012,
      "v": 127
    },
    {
      "midi": 73,
      "hit": false,
      "t": 102461.43600000009,
      "d": 115.38450000000012,
      "v": 127
    },
    {
      "midi": 71,
      "hit": false,
      "t": 102576.82050000009,
      "d": 115.38450000000012,
      "v": 127
    },
    {
      "midi": 70,
      "hit": false,
      "t": 102807.58950000009,
      "d": 115.38450000000012,
      "v": 127
    },
    {
      "midi": 71,
      "hit": false,
      "t": 102922.97400000009,
      "d": 115.38450000000012,
      "v": 127
    },
    {
      "midi": 32,
      "hit": false,
      "t": 102922.97400000009,
      "d": 461.53800000000047,
      "v": 127
    },
    {
      "midi": 75,
      "hit": false,
      "t": 103038.35850000009,
      "d": 115.38450000000012,
      "v": 127
    },
    {
      "midi": 73,
      "hit": false,
      "t": 103269.12750000009,
      "d": 115.38450000000012,
      "v": 127
    },
    {
      "midi": 71,
      "hit": false,
      "t": 103384.51200000009,
      "d": 115.38450000000012,
      "v": 127
    },
    {
      "midi": 44,
      "hit": false,
      "t": 103384.51200000009,
      "d": 461.53800000000047,
      "v": 127
    },
    {
      "midi": 70,
      "hit": false,
      "t": 103499.89650000009,
      "d": 115.38450000000012,
      "v": 127
    },
    {
      "midi": 68,
      "hit": false,
      "t": 103730.66550000009,
      "d": 115.38450000000012,
      "v": 127
    },
    {
      "midi": 66,
      "hit": false,
      "t": 103846.05000000009,
      "d": 115.38450000000012,
      "v": 127
    },
    {
      "midi": 65,
      "hit": false,
      "t": 103961.43450000009,
      "d": 115.38450000000012,
      "v": 127
    },
    {
      "midi": 63,
      "hit": false,
      "t": 104192.20350000009,
      "d": 115.38450000000012,
      "v": 127
    },
    {
      "midi": 62,
      "hit": false,
      "t": 104307.58800000009,
      "d": 115.38450000000012,
      "v": 127
    },
    {
      "midi": 34,
      "hit": false,
      "t": 104307.58800000009,
      "d": 461.53800000000047,
      "v": 127
    },
    {
      "midi": 65,
      "hit": false,
      "t": 104422.97250000009,
      "d": 115.38450000000012,
      "v": 127
    },
    {
      "midi": 63,
      "hit": false,
      "t": 104653.74150000009,
      "d": 115.38450000000012,
      "v": 127
    },
    {
      "midi": 62,
      "hit": false,
      "t": 104769.12600000009,
      "d": 461.53800000000047,
      "v": 127
    },
    {
      "midi": 46,
      "hit": false,
      "t": 104769.12600000009,
      "d": 115.38450000000012,
      "v": 127
    },
    {
      "midi": 59,
      "hit": false,
      "t": 104884.51050000009,
      "d": 115.38450000000012,
      "v": 127
    },
    {
      "midi": 58,
      "hit": false,
      "t": 105115.27950000009,
      "d": 115.38450000000012,
      "v": 127
    },
    {
      "midi": 56,
      "hit": false,
      "t": 105230.66400000009,
      "d": 115.38450000000012,
      "v": 127
    },
    {
      "midi": 54,
      "hit": false,
      "t": 105346.04850000009,
      "d": 115.38450000000012,
      "v": 127
    },
    {
      "midi": 53,
      "hit": false,
      "t": 105576.81750000009,
      "d": 115.38450000000012,
      "v": 127
    },
    {
      "midi": 51,
      "hit": false,
      "t": 105692.20200000009,
      "d": 115.38450000000012,
      "v": 127
    },
    {
      "midi": 53,
      "hit": false,
      "t": 105807.58650000009,
      "d": 115.38450000000012,
      "v": 127
    },
    {
      "midi": 54,
      "hit": false,
      "t": 106038.35550000009,
      "d": 115.38450000000012,
      "v": 127
    },
    {
      "midi": 56,
      "hit": false,
      "t": 106153.74000000009,
      "d": 115.38450000000012,
      "v": 127
    },
    {
      "midi": 59,
      "hit": false,
      "t": 106269.12450000009,
      "d": 115.38450000000012,
      "v": 127
    },
    {
      "midi": 58,
      "hit": false,
      "t": 106499.8935000001,
      "d": 115.38450000000012,
      "v": 127
    },
    {
      "midi": 56,
      "hit": false,
      "t": 106615.2780000001,
      "d": 115.38450000000012,
      "v": 127
    },
    {
      "midi": 54,
      "hit": false,
      "t": 106730.6625000001,
      "d": 115.38450000000012,
      "v": 127
    },
    {
      "midi": 53,
      "hit": false,
      "t": 106961.4315000001,
      "d": 115.38450000000012,
      "v": 127
    },
    {
      "midi": 51,
      "hit": false,
      "t": 107076.8160000001,
      "d": 115.38450000000012,
      "v": 127
    },
    {
      "midi": 53,
      "hit": false,
      "t": 107192.2005000001,
      "d": 115.38450000000012,
      "v": 127
    },
    {
      "midi": 54,
      "hit": false,
      "t": 107422.9695000001,
      "d": 115.38450000000012,
      "v": 127
    },
    {
      "midi": 56,
      "hit": false,
      "t": 107538.3540000001,
      "d": 115.38450000000012,
      "v": 127
    },
    {
      "midi": 59,
      "hit": false,
      "t": 107653.7385000001,
      "d": 115.38450000000012,
      "v": 127
    },
    {
      "midi": 58,
      "hit": false,
      "t": 107884.5075000001,
      "d": 115.38450000000012,
      "v": 127
    },
    {
      "midi": 56,
      "hit": false,
      "t": 107999.8920000001,
      "d": 115.38450000000012,
      "v": 127
    },
    {
      "midi": 54,
      "hit": false,
      "t": 108115.2765000001,
      "d": 115.38450000000012,
      "v": 127
    },
    {
      "midi": 53,
      "hit": false,
      "t": 108346.0455000001,
      "d": 115.38450000000012,
      "v": 127
    },
    {
      "midi": 51,
      "hit": false,
      "t": 108461.4300000001,
      "d": 115.38450000000012,
      "v": 127
    },
    {
      "midi": 53,
      "hit": false,
      "t": 108576.8145000001,
      "d": 115.38450000000012,
      "v": 127
    },
    {
      "midi": 54,
      "hit": false,
      "t": 108807.5835000001,
      "d": 115.38450000000012,
      "v": 127
    },
    {
      "midi": 56,
      "hit": false,
      "t": 108922.9680000001,
      "d": 115.38450000000012,
      "v": 127
    },
    {
      "midi": 59,
      "hit": false,
      "t": 109038.3525000001,
      "d": 115.38450000000012,
      "v": 127
    },
    {
      "midi": 58,
      "hit": false,
      "t": 109269.1215000001,
      "d": 115.38450000000012,
      "v": 127
    },
    {
      "midi": 56,
      "hit": false,
      "t": 109384.5060000001,
      "d": 115.38450000000012,
      "v": 127
    },
    {
      "midi": 54,
      "hit": false,
      "t": 109499.8905000001,
      "d": 115.38450000000012,
      "v": 127
    },
    {
      "midi": 53,
      "hit": false,
      "t": 109730.6595000001,
      "d": 115.38450000000012,
      "v": 127
    },
    {
      "midi": 39,
      "hit": false,
      "t": 109846.0440000001,
      "d": 115.38450000000012,
      "v": 127
    },
    {
      "midi": 51,
      "hit": false,
      "t": 109846.0440000001,
      "d": 115.38450000000012,
      "v": 127
    },
    {
      "midi": 41,
      "hit": false,
      "t": 109961.4285000001,
      "d": 115.38450000000012,
      "v": 127
    },
    {
      "midi": 53,
      "hit": false,
      "t": 109961.4285000001,
      "d": 115.38450000000012,
      "v": 127
    },
    {
      "midi": 42,
      "hit": false,
      "t": 110192.1975000001,
      "d": 115.38450000000012,
      "v": 127
    },
    {
      "midi": 54,
      "hit": false,
      "t": 110192.1975000001,
      "d": 115.38450000000012,
      "v": 127
    },
    {
      "midi": 44,
      "hit": false,
      "t": 110307.5820000001,
      "d": 115.38450000000012,
      "v": 127
    },
    {
      "midi": 56,
      "hit": false,
      "t": 110307.5820000001,
      "d": 115.38450000000012,
      "v": 127
    },
    {
      "midi": 46,
      "hit": false,
      "t": 110422.9665000001,
      "d": 115.38450000000012,
      "v": 127
    },
    {
      "midi": 58,
      "hit": false,
      "t": 110422.9665000001,
      "d": 115.38450000000012,
      "v": 127
    },
    {
      "midi": 48,
      "hit": false,
      "t": 110653.7355000001,
      "d": 115.38450000000012,
      "v": 127
    },
    {
      "midi": 60,
      "hit": false,
      "t": 110653.7355000001,
      "d": 115.38450000000012,
      "v": 127
    },
    {
      "midi": 62,
      "hit": false,
      "t": 110769.1200000001,
      "d": 115.38450000000012,
      "v": 127
    },
    {
      "midi": 50,
      "hit": false,
      "t": 110769.1200000001,
      "d": 115.38450000000012,
      "v": 127
    },
    {
      "midi": 63,
      "hit": false,
      "t": 110884.5045000001,
      "d": 115.38450000000012,
      "v": 127
    },
    {
      "midi": 51,
      "hit": false,
      "t": 110884.5045000001,
      "d": 115.38450000000012,
      "v": 127
    },
    {
      "midi": 65,
      "hit": false,
      "t": 111115.2735000001,
      "d": 115.38450000000012,
      "v": 127
    },
    {
      "midi": 53,
      "hit": false,
      "t": 111115.2735000001,
      "d": 115.38450000000012,
      "v": 127
    },
    {
      "midi": 66,
      "hit": false,
      "t": 111230.6580000001,
      "d": 923.0760000000009,
      "v": 127
    },
    {
      "midi": 54,
      "hit": false,
      "t": 111230.6580000001,
      "d": 923.0760000000009,
      "v": 127
    },
    {
      "midi": 58,
      "hit": false,
      "t": 112615.2720000001,
      "d": 923.0760000000009,
      "v": 127
    },
    {
      "midi": 61,
      "hit": false,
      "t": 112615.2720000001,
      "d": 923.0760000000009,
      "v": 127
    },
    {
      "midi": 66,
      "hit": false,
      "t": 112615.2720000001,
      "d": 923.0760000000009,
      "v": 127
    },
    {
      "midi": 70,
      "hit": false,
      "t": 112615.2720000001,
      "d": 923.0760000000009,
      "v": 127
    },
    {
      "midi": 42,
      "hit": false,
      "t": 112615.2720000001,
      "d": 923.0760000000009,
      "v": 127
    },
    {
      "midi": 54,
      "hit": false,
      "t": 112615.2720000001,
      "d": 923.0760000000009,
      "v": 127
    },
    {
      "midi": 71,
      "hit": false,
      "t": 113999.8860000001,
      "d": 461.53800000000047,
      "v": 127
    },
    {
      "midi": 35,
      "hit": false,
      "t": 113999.8860000001,
      "d": 461.53800000000047,
      "v": 127
    },
    {
      "midi": 59,
      "hit": false,
      "t": 114461.4240000001,
      "d": 115.38450000000012,
      "v": 127
    },
    {
      "midi": 47,
      "hit": false,
      "t": 114461.4240000001,
      "d": 461.53800000000047,
      "v": 127
    },
    {
      "midi": 50,
      "hit": false,
      "t": 114461.4240000001,
      "d": 461.53800000000047,
      "v": 127
    },
    {
      "midi": 54,
      "hit": false,
      "t": 114461.4240000001,
      "d": 461.53800000000047,
      "v": 127
    },
    {
      "midi": 62,
      "hit": false,
      "t": 114576.8085000001,
      "d": 115.38450000000012,
      "v": 127
    },
    {
      "midi": 66,
      "hit": false,
      "t": 114807.5775000001,
      "d": 115.38450000000012,
      "v": 127
    },
    {
      "midi": 59,
      "hit": false,
      "t": 114922.9620000001,
      "d": 461.53800000000047,
      "v": 127
    },
    {
      "midi": 71,
      "hit": false,
      "t": 115384.5000000001,
      "d": 461.53800000000047,
      "v": 127
    },
    {
      "midi": 35,
      "hit": false,
      "t": 115384.5000000001,
      "d": 461.53800000000047,
      "v": 127
    },
    {
      "midi": 59,
      "hit": false,
      "t": 115846.0380000001,
      "d": 115.38450000000012,
      "v": 127
    },
    {
      "midi": 47,
      "hit": false,
      "t": 115846.0380000001,
      "d": 461.53800000000047,
      "v": 127
    },
    {
      "midi": 49,
      "hit": false,
      "t": 115846.0380000001,
      "d": 461.53800000000047,
      "v": 127
    },
    {
      "midi": 52,
      "hit": false,
      "t": 115846.0380000001,
      "d": 461.53800000000047,
      "v": 127
    },
    {
      "midi": 55,
      "hit": false,
      "t": 115846.0380000001,
      "d": 461.53800000000047,
      "v": 127
    },
    {
      "midi": 61,
      "hit": false,
      "t": 115961.4225000001,
      "d": 115.38450000000012,
      "v": 127
    },
    {
      "midi": 67,
      "hit": false,
      "t": 116192.1915000001,
      "d": 115.38450000000012,
      "v": 127
    },
    {
      "midi": 59,
      "hit": false,
      "t": 116307.5760000001,
      "d": 461.53800000000047,
      "v": 127
    },
    {
      "midi": 71,
      "hit": false,
      "t": 116769.1140000001,
      "d": 230.76900000000023,
      "v": 127
    },
    {
      "midi": 50,
      "hit": false,
      "t": 116769.1140000001,
      "d": 230.76900000000023,
      "v": 127
    },
    {
      "midi": 62,
      "hit": false,
      "t": 116999.8830000001,
      "d": 230.76900000000023,
      "v": 127
    },
    {
      "midi": 66,
      "hit": false,
      "t": 116999.8830000001,
      "d": 230.76900000000023,
      "v": 127
    },
    {
      "midi": 54,
      "hit": false,
      "t": 116999.8830000001,
      "d": 230.76900000000023,
      "v": 127
    },
    {
      "midi": 59,
      "hit": false,
      "t": 116999.8830000001,
      "d": 230.76900000000023,
      "v": 127
    },
    {
      "midi": 73,
      "hit": false,
      "t": 117230.6520000001,
      "d": 230.76900000000023,
      "v": 127
    },
    {
      "midi": 49,
      "hit": false,
      "t": 117230.6520000001,
      "d": 230.76900000000023,
      "v": 127
    },
    {
      "midi": 64,
      "hit": false,
      "t": 117461.4210000001,
      "d": 230.76900000000023,
      "v": 127
    },
    {
      "midi": 66,
      "hit": false,
      "t": 117461.4210000001,
      "d": 230.76900000000023,
      "v": 127
    },
    {
      "midi": 54,
      "hit": false,
      "t": 117461.4210000001,
      "d": 230.76900000000023,
      "v": 127
    },
    {
      "midi": 58,
      "hit": false,
      "t": 117461.4210000001,
      "d": 230.76900000000023,
      "v": 127
    },
    {
      "midi": 74,
      "hit": false,
      "t": 117692.1900000001,
      "d": 230.76900000000023,
      "v": 127
    },
    {
      "midi": 47,
      "hit": false,
      "t": 117692.1900000001,
      "d": 230.76900000000023,
      "v": 127
    },
    {
      "midi": 62,
      "hit": false,
      "t": 117922.9590000001,
      "d": 230.76900000000023,
      "v": 127
    },
    {
      "midi": 66,
      "hit": false,
      "t": 117922.9590000001,
      "d": 230.76900000000023,
      "v": 127
    },
    {
      "midi": 54,
      "hit": false,
      "t": 117922.9590000001,
      "d": 230.76900000000023,
      "v": 127
    },
    {
      "midi": 59,
      "hit": false,
      "t": 117922.9590000001,
      "d": 230.76900000000023,
      "v": 127
    },
    {
      "midi": 73,
      "hit": false,
      "t": 118153.7280000001,
      "d": 461.53800000000047,
      "v": 127
    },
    {
      "midi": 42,
      "hit": false,
      "t": 118153.7280000001,
      "d": 461.53800000000047,
      "v": 127
    },
    {
      "midi": 61,
      "hit": false,
      "t": 118615.2660000001,
      "d": 115.38450000000012,
      "v": 127
    },
    {
      "midi": 54,
      "hit": false,
      "t": 118615.2660000001,
      "d": 461.53800000000047,
      "v": 127
    },
    {
      "midi": 58,
      "hit": false,
      "t": 118615.2660000001,
      "d": 461.53800000000047,
      "v": 127
    },
    {
      "midi": 66,
      "hit": false,
      "t": 118730.6505000001,
      "d": 115.38450000000012,
      "v": 127
    },
    {
      "midi": 70,
      "hit": false,
      "t": 118961.4195000001,
      "d": 115.38450000000012,
      "v": 127
    },
    {
      "midi": 61,
      "hit": false,
      "t": 119076.8040000001,
      "d": 461.53800000000047,
      "v": 127
    },
    {
      "midi": 78,
      "hit": false,
      "t": 119538.3420000001,
      "d": 461.53800000000047,
      "v": 127
    },
    {
      "midi": 42,
      "hit": false,
      "t": 119538.3420000001,
      "d": 461.53800000000047,
      "v": 127
    },
    {
      "midi": 66,
      "hit": false,
      "t": 119999.8800000001,
      "d": 115.38450000000012,
      "v": 127
    },
    {
      "midi": 54,
      "hit": false,
      "t": 119999.8800000001,
      "d": 461.53800000000047,
      "v": 127
    },
    {
      "midi": 58,
      "hit": false,
      "t": 119999.8800000001,
      "d": 461.53800000000047,
      "v": 127
    },
    {
      "midi": 61,
      "hit": false,
      "t": 119999.8800000001,
      "d": 461.53800000000047,
      "v": 127
    },
    {
      "midi": 70,
      "hit": false,
      "t": 120115.2645000001,
      "d": 115.38450000000012,
      "v": 127
    },
    {
      "midi": 73,
      "hit": false,
      "t": 120346.0335000001,
      "d": 115.38450000000012,
      "v": 127
    },
    {
      "midi": 66,
      "hit": false,
      "t": 120461.4180000001,
      "d": 461.53800000000047,
      "v": 127
    },
    {
      "midi": 74,
      "hit": false,
      "t": 120922.95600000011,
      "d": 461.53800000000047,
      "v": 127
    },
    {
      "midi": 47,
      "hit": false,
      "t": 120922.95600000011,
      "d": 461.53800000000047,
      "v": 127
    },
    {
      "midi": 62,
      "hit": false,
      "t": 121384.49400000011,
      "d": 115.38450000000012,
      "v": 127
    },
    {
      "midi": 54,
      "hit": false,
      "t": 121384.49400000011,
      "d": 461.53800000000047,
      "v": 127
    },
    {
      "midi": 59,
      "hit": false,
      "t": 121384.49400000011,
      "d": 461.53800000000047,
      "v": 127
    },
    {
      "midi": 66,
      "hit": false,
      "t": 121499.87850000011,
      "d": 115.38450000000012,
      "v": 127
    },
    {
      "midi": 71,
      "hit": false,
      "t": 121730.64750000011,
      "d": 115.38450000000012,
      "v": 127
    },
    {
      "midi": 62,
      "hit": false,
      "t": 121846.03200000011,
      "d": 461.53800000000047,
      "v": 127
    },
    {
      "midi": 73,
      "hit": false,
      "t": 122307.57000000011,
      "d": 230.76900000000023,
      "v": 127
    },
    {
      "midi": 43,
      "hit": false,
      "t": 122307.57000000011,
      "d": 230.76900000000023,
      "v": 127
    },
    {
      "midi": 64,
      "hit": false,
      "t": 122538.33900000011,
      "d": 230.76900000000023,
      "v": 127
    },
    {
      "midi": 55,
      "hit": false,
      "t": 122538.33900000011,
      "d": 230.76900000000023,
      "v": 127
    },
    {
      "midi": 76,
      "hit": false,
      "t": 122769.10800000011,
      "d": 230.76900000000023,
      "v": 127
    },
    {
      "midi": 40,
      "hit": false,
      "t": 122769.10800000011,
      "d": 230.76900000000023,
      "v": 127
    },
    {
      "midi": 64,
      "hit": false,
      "t": 122999.87700000011,
      "d": 230.76900000000023,
      "v": 127
    },
    {
      "midi": 52,
      "hit": false,
      "t": 122999.87700000011,
      "d": 230.76900000000023,
      "v": 127
    },
    {
      "midi": 73,
      "hit": false,
      "t": 123230.64600000011,
      "d": 230.76900000000023,
      "v": 127
    },
    {
      "midi": 43,
      "hit": false,
      "t": 123230.64600000011,
      "d": 230.76900000000023,
      "v": 127
    },
    {
      "midi": 64,
      "hit": false,
      "t": 123461.41500000011,
      "d": 230.76900000000023,
      "v": 127
    },
    {
      "midi": 55,
      "hit": false,
      "t": 123461.41500000011,
      "d": 230.76900000000023,
      "v": 127
    },
    {
      "midi": 74,
      "hit": false,
      "t": 123692.18400000011,
      "d": 461.53800000000047,
      "v": 127
    },
    {
      "midi": 47,
      "hit": false,
      "t": 123692.18400000011,
      "d": 461.53800000000047,
      "v": 127
    },
    {
      "midi": 62,
      "hit": false,
      "t": 124153.72200000011,
      "d": 115.38450000000012,
      "v": 127
    },
    {
      "midi": 54,
      "hit": false,
      "t": 124153.72200000011,
      "d": 461.53800000000047,
      "v": 127
    },
    {
      "midi": 59,
      "hit": false,
      "t": 124153.72200000011,
      "d": 461.53800000000047,
      "v": 127
    },
    {
      "midi": 66,
      "hit": false,
      "t": 124269.10650000011,
      "d": 115.38450000000012,
      "v": 127
    },
    {
      "midi": 71,
      "hit": false,
      "t": 124499.87550000011,
      "d": 115.38450000000012,
      "v": 127
    },
    {
      "midi": 62,
      "hit": false,
      "t": 124615.26000000011,
      "d": 461.53800000000047,
      "v": 127
    },
    {
      "midi": 71,
      "hit": false,
      "t": 125076.79800000011,
      "d": 461.53800000000047,
      "v": 127
    },
    {
      "midi": 35,
      "hit": false,
      "t": 125076.79800000011,
      "d": 461.53800000000047,
      "v": 127
    },
    {
      "midi": 59,
      "hit": false,
      "t": 125538.33600000011,
      "d": 115.38450000000012,
      "v": 127
    },
    {
      "midi": 47,
      "hit": false,
      "t": 125538.33600000011,
      "d": 461.53800000000047,
      "v": 127
    },
    {
      "midi": 50,
      "hit": false,
      "t": 125538.33600000011,
      "d": 461.53800000000047,
      "v": 127
    },
    {
      "midi": 54,
      "hit": false,
      "t": 125538.33600000011,
      "d": 461.53800000000047,
      "v": 127
    },
    {
      "midi": 62,
      "hit": false,
      "t": 125653.72050000011,
      "d": 115.38450000000012,
      "v": 127
    },
    {
      "midi": 66,
      "hit": false,
      "t": 125884.48950000011,
      "d": 115.38450000000012,
      "v": 127
    },
    {
      "midi": 59,
      "hit": false,
      "t": 125999.87400000011,
      "d": 461.53800000000047,
      "v": 127
    },
    {
      "midi": 71,
      "hit": false,
      "t": 126461.41200000011,
      "d": 461.53800000000047,
      "v": 127
    },
    {
      "midi": 35,
      "hit": false,
      "t": 126461.41200000011,
      "d": 461.53800000000047,
      "v": 127
    },
    {
      "midi": 59,
      "hit": false,
      "t": 126922.95000000011,
      "d": 115.38450000000012,
      "v": 127
    },
    {
      "midi": 47,
      "hit": false,
      "t": 126922.95000000011,
      "d": 461.53800000000047,
      "v": 127
    },
    {
      "midi": 49,
      "hit": false,
      "t": 126922.95000000011,
      "d": 461.53800000000047,
      "v": 127
    },
    {
      "midi": 52,
      "hit": false,
      "t": 126922.95000000011,
      "d": 461.53800000000047,
      "v": 127
    },
    {
      "midi": 55,
      "hit": false,
      "t": 126922.95000000011,
      "d": 461.53800000000047,
      "v": 127
    },
    {
      "midi": 61,
      "hit": false,
      "t": 127038.33450000011,
      "d": 115.38450000000012,
      "v": 127
    },
    {
      "midi": 67,
      "hit": false,
      "t": 127269.10350000011,
      "d": 115.38450000000012,
      "v": 127
    },
    {
      "midi": 59,
      "hit": false,
      "t": 127384.48800000011,
      "d": 461.53800000000047,
      "v": 127
    },
    {
      "midi": 71,
      "hit": false,
      "t": 127846.02600000011,
      "d": 230.76900000000023,
      "v": 127
    },
    {
      "midi": 50,
      "hit": false,
      "t": 127846.02600000011,
      "d": 230.76900000000023,
      "v": 127
    },
    {
      "midi": 62,
      "hit": false,
      "t": 128076.79500000011,
      "d": 230.76900000000023,
      "v": 127
    },
    {
      "midi": 66,
      "hit": false,
      "t": 128076.79500000011,
      "d": 230.76900000000023,
      "v": 127
    },
    {
      "midi": 54,
      "hit": false,
      "t": 128076.79500000011,
      "d": 230.76900000000023,
      "v": 127
    },
    {
      "midi": 59,
      "hit": false,
      "t": 128076.79500000011,
      "d": 230.76900000000023,
      "v": 127
    },
    {
      "midi": 73,
      "hit": false,
      "t": 128307.56400000011,
      "d": 230.76900000000023,
      "v": 127
    },
    {
      "midi": 49,
      "hit": false,
      "t": 128307.56400000011,
      "d": 230.76900000000023,
      "v": 127
    },
    {
      "midi": 64,
      "hit": false,
      "t": 128538.33300000012,
      "d": 230.76900000000023,
      "v": 127
    },
    {
      "midi": 66,
      "hit": false,
      "t": 128538.33300000012,
      "d": 230.76900000000023,
      "v": 127
    },
    {
      "midi": 54,
      "hit": false,
      "t": 128538.33300000012,
      "d": 230.76900000000023,
      "v": 127
    },
    {
      "midi": 58,
      "hit": false,
      "t": 128538.33300000012,
      "d": 230.76900000000023,
      "v": 127
    },
    {
      "midi": 74,
      "hit": false,
      "t": 128769.10200000012,
      "d": 230.76900000000023,
      "v": 127
    },
    {
      "midi": 47,
      "hit": false,
      "t": 128769.10200000012,
      "d": 230.76900000000023,
      "v": 127
    },
    {
      "midi": 62,
      "hit": false,
      "t": 128999.87100000012,
      "d": 230.76900000000023,
      "v": 127
    },
    {
      "midi": 66,
      "hit": false,
      "t": 128999.87100000012,
      "d": 230.76900000000023,
      "v": 127
    },
    {
      "midi": 54,
      "hit": false,
      "t": 128999.87100000012,
      "d": 230.76900000000023,
      "v": 127
    },
    {
      "midi": 59,
      "hit": false,
      "t": 128999.87100000012,
      "d": 230.76900000000023,
      "v": 127
    },
    {
      "midi": 73,
      "hit": false,
      "t": 129230.64000000012,
      "d": 461.53800000000047,
      "v": 127
    },
    {
      "midi": 42,
      "hit": false,
      "t": 129230.64000000012,
      "d": 461.53800000000047,
      "v": 127
    },
    {
      "midi": 61,
      "hit": false,
      "t": 129692.17800000012,
      "d": 115.38450000000012,
      "v": 127
    },
    {
      "midi": 54,
      "hit": false,
      "t": 129692.17800000012,
      "d": 461.53800000000047,
      "v": 127
    },
    {
      "midi": 58,
      "hit": false,
      "t": 129692.17800000012,
      "d": 461.53800000000047,
      "v": 127
    },
    {
      "midi": 66,
      "hit": false,
      "t": 129807.56250000012,
      "d": 115.38450000000012,
      "v": 127
    },
    {
      "midi": 70,
      "hit": false,
      "t": 130038.33150000012,
      "d": 115.38450000000012,
      "v": 127
    },
    {
      "midi": 61,
      "hit": false,
      "t": 130153.71600000012,
      "d": 461.53800000000047,
      "v": 127
    },
    {
      "midi": 78,
      "hit": false,
      "t": 130615.25400000012,
      "d": 461.5379999999859,
      "v": 127
    },
    {
      "midi": 42,
      "hit": false,
      "t": 130615.25400000012,
      "d": 461.5379999999859,
      "v": 127
    },
    {
      "midi": 66,
      "hit": false,
      "t": 131076.7920000001,
      "d": 115.38449999998556,
      "v": 127
    },
    {
      "midi": 54,
      "hit": false,
      "t": 131076.7920000001,
      "d": 461.53800000000047,
      "v": 127
    },
    {
      "midi": 58,
      "hit": false,
      "t": 131076.7920000001,
      "d": 461.53800000000047,
      "v": 127
    },
    {
      "midi": 61,
      "hit": false,
      "t": 131076.7920000001,
      "d": 461.53800000000047,
      "v": 127
    },
    {
      "midi": 70,
      "hit": false,
      "t": 131192.1765000001,
      "d": 115.38449999998556,
      "v": 127
    },
    {
      "midi": 73,
      "hit": false,
      "t": 131422.94550000006,
      "d": 115.38449999998556,
      "v": 127
    },
    {
      "midi": 66,
      "hit": false,
      "t": 131538.33000000005,
      "d": 461.53800000000047,
      "v": 127
    },
    {
      "midi": 74,
      "hit": false,
      "t": 131999.86800000005,
      "d": 461.53800000000047,
      "v": 127
    },
    {
      "midi": 47,
      "hit": false,
      "t": 131999.8680000001,
      "d": 461.53800000000047,
      "v": 127
    },
    {
      "midi": 62,
      "hit": false,
      "t": 132461.40600000005,
      "d": 115.38449999998556,
      "v": 127
    },
    {
      "midi": 54,
      "hit": false,
      "t": 132461.4060000001,
      "d": 461.53800000000047,
      "v": 127
    },
    {
      "midi": 59,
      "hit": false,
      "t": 132461.4060000001,
      "d": 461.53800000000047,
      "v": 127
    },
    {
      "midi": 66,
      "hit": false,
      "t": 132576.79050000003,
      "d": 115.38449999998556,
      "v": 127
    },
    {
      "midi": 71,
      "hit": false,
      "t": 132807.5595,
      "d": 115.38449999998556,
      "v": 127
    },
    {
      "midi": 62,
      "hit": false,
      "t": 132922.944,
      "d": 461.53800000000047,
      "v": 127
    },
    {
      "midi": 71,
      "hit": false,
      "t": 133384.482,
      "d": 230.76900000000023,
      "v": 127
    },
    {
      "midi": 38,
      "hit": false,
      "t": 133384.4820000001,
      "d": 230.76900000000023,
      "v": 127
    },
    {
      "midi": 66,
      "hit": false,
      "t": 133615.251,
      "d": 230.76900000000023,
      "v": 127
    },
    {
      "midi": 68,
      "hit": false,
      "t": 133615.251,
      "d": 230.76900000000023,
      "v": 127
    },
    {
      "midi": 50,
      "hit": false,
      "t": 133615.2510000001,
      "d": 230.76900000000023,
      "v": 127
    },
    {
      "midi": 74,
      "hit": false,
      "t": 133846.02,
      "d": 230.76900000000023,
      "v": 127
    },
    {
      "midi": 35,
      "hit": false,
      "t": 133846.0200000001,
      "d": 230.76900000000023,
      "v": 127
    },
    {
      "midi": 66,
      "hit": false,
      "t": 134076.789,
      "d": 230.76900000000023,
      "v": 127
    },
    {
      "midi": 68,
      "hit": false,
      "t": 134076.789,
      "d": 230.76900000000023,
      "v": 127
    },
    {
      "midi": 47,
      "hit": false,
      "t": 134076.7890000001,
      "d": 230.76900000000023,
      "v": 127
    },
    {
      "midi": 71,
      "hit": false,
      "t": 134307.558,
      "d": 230.76900000000023,
      "v": 127
    },
    {
      "midi": 38,
      "hit": false,
      "t": 134307.5580000001,
      "d": 230.76900000000023,
      "v": 127
    },
    {
      "midi": 66,
      "hit": false,
      "t": 134538.327,
      "d": 230.76900000000023,
      "v": 127
    },
    {
      "midi": 68,
      "hit": false,
      "t": 134538.327,
      "d": 230.76900000000023,
      "v": 127
    },
    {
      "midi": 50,
      "hit": false,
      "t": 134538.3270000001,
      "d": 230.76900000000023,
      "v": 127
    },
    {
      "midi": 73,
      "hit": false,
      "t": 134769.096,
      "d": 461.53800000000047,
      "v": 127
    },
    {
      "midi": 37,
      "hit": false,
      "t": 134769.0960000001,
      "d": 461.53800000000047,
      "v": 127
    },
    {
      "midi": 61,
      "hit": false,
      "t": 135230.634,
      "d": 115.38449999998556,
      "v": 127
    },
    {
      "midi": 49,
      "hit": false,
      "t": 135230.6340000001,
      "d": 461.53800000000047,
      "v": 127
    },
    {
      "midi": 53,
      "hit": false,
      "t": 135230.6340000001,
      "d": 461.53800000000047,
      "v": 127
    },
    {
      "midi": 56,
      "hit": false,
      "t": 135230.6340000001,
      "d": 461.53800000000047,
      "v": 127
    },
    {
      "midi": 65,
      "hit": false,
      "t": 135346.01849999998,
      "d": 115.38449999998556,
      "v": 127
    },
    {
      "midi": 68,
      "hit": false,
      "t": 135576.78749999995,
      "d": 115.38449999998556,
      "v": 127
    },
    {
      "midi": 61,
      "hit": false,
      "t": 135692.17199999993,
      "d": 461.53800000000047,
      "v": 127
    },
    {
      "midi": 69,
      "hit": false,
      "t": 136153.70999999993,
      "d": 461.53800000000047,
      "v": 127
    },
    {
      "midi": 42,
      "hit": false,
      "t": 136153.7100000001,
      "d": 461.53800000000047,
      "v": 127
    },
    {
      "midi": 57,
      "hit": false,
      "t": 136615.24799999993,
      "d": 115.38449999998556,
      "v": 127
    },
    {
      "midi": 54,
      "hit": false,
      "t": 136615.2480000001,
      "d": 461.53800000000047,
      "v": 127
    },
    {
      "midi": 61,
      "hit": false,
      "t": 136730.63249999992,
      "d": 115.38449999998556,
      "v": 127
    },
    {
      "midi": 66,
      "hit": false,
      "t": 136961.4014999999,
      "d": 115.38449999998556,
      "v": 127
    },
    {
      "midi": 57,
      "hit": false,
      "t": 137076.78599999988,
      "d": 461.53800000000047,
      "v": 127
    },
    {
      "midi": 67,
      "hit": false,
      "t": 137538.32399999988,
      "d": 461.53800000000047,
      "v": 127
    },
    {
      "midi": 35,
      "hit": false,
      "t": 137538.3240000001,
      "d": 461.53800000000047,
      "v": 127
    },
    {
      "midi": 55,
      "hit": false,
      "t": 137999.86199999988,
      "d": 115.38449999998556,
      "v": 127
    },
    {
      "midi": 47,
      "hit": false,
      "t": 137999.8620000001,
      "d": 461.53800000000047,
      "v": 127
    },
    {
      "midi": 50,
      "hit": false,
      "t": 137999.8620000001,
      "d": 461.53800000000047,
      "v": 127
    },
    {
      "midi": 59,
      "hit": false,
      "t": 138115.24649999986,
      "d": 115.38449999998556,
      "v": 127
    },
    {
      "midi": 62,
      "hit": false,
      "t": 138346.01549999983,
      "d": 115.38449999998556,
      "v": 127
    },
    {
      "midi": 55,
      "hit": false,
      "t": 138461.39999999982,
      "d": 461.53800000000047,
      "v": 127
    },
    {
      "midi": 65,
      "hit": false,
      "t": 138922.93799999982,
      "d": 230.76900000000023,
      "v": 127
    },
    {
      "midi": 37,
      "hit": false,
      "t": 138922.9380000001,
      "d": 461.53800000000047,
      "v": 127
    },
    {
      "midi": 56,
      "hit": false,
      "t": 139153.70699999982,
      "d": 230.76900000000023,
      "v": 127
    },
    {
      "midi": 68,
      "hit": false,
      "t": 139384.47599999982,
      "d": 230.76900000000023,
      "v": 127
    },
    {
      "midi": 49,
      "hit": false,
      "t": 139384.4760000001,
      "d": 461.53800000000047,
      "v": 127
    },
    {
      "midi": 53,
      "hit": false,
      "t": 139384.4760000001,
      "d": 461.53800000000047,
      "v": 127
    },
    {
      "midi": 56,
      "hit": false,
      "t": 139615.24499999982,
      "d": 230.76900000000023,
      "v": 127
    },
    {
      "midi": 65,
      "hit": false,
      "t": 139846.01399999982,
      "d": 230.76900000000023,
      "v": 127
    },
    {
      "midi": 37,
      "hit": false,
      "t": 139846.0140000001,
      "d": 461.53800000000047,
      "v": 127
    },
    {
      "midi": 56,
      "hit": false,
      "t": 140076.78299999982,
      "d": 230.76900000000023,
      "v": 127
    },
    {
      "midi": 66,
      "hit": false,
      "t": 140307.55199999982,
      "d": 923.0760000000009,
      "v": 127
    },
    {
      "midi": 42,
      "hit": false,
      "t": 140307.5520000001,
      "d": 461.53800000000047,
      "v": 127
    },
    {
      "midi": 54,
      "hit": false,
      "t": 140769.0900000001,
      "d": 115.38449999998556,
      "v": 127
    },
    {
      "midi": 57,
      "hit": false,
      "t": 140884.4745000001,
      "d": 115.38449999998556,
      "v": 127
    },
    {
      "midi": 61,
      "hit": false,
      "t": 141115.24350000007,
      "d": 115.38449999998556,
      "v": 127
    },
    {
      "midi": 54,
      "hit": false,
      "t": 141230.62800000006,
      "d": 461.53800000000047,
      "v": 127
    },
    {
      "midi": 66,
      "hit": false,
      "t": 141692.16599999982,
      "d": 923.0760000000009,
      "v": 127
    },
    {
      "midi": 35,
      "hit": false,
      "t": 141692.16600000006,
      "d": 461.53800000000047,
      "v": 127
    },
    {
      "midi": 54,
      "hit": false,
      "t": 142153.70400000006,
      "d": 115.38449999998556,
      "v": 127
    },
    {
      "midi": 59,
      "hit": false,
      "t": 142269.08850000004,
      "d": 115.38449999998556,
      "v": 127
    },
    {
      "midi": 62,
      "hit": false,
      "t": 142499.8575,
      "d": 115.38449999998556,
      "v": 127
    },
    {
      "midi": 54,
      "hit": false,
      "t": 142615.242,
      "d": 461.53800000000047,
      "v": 127
    },
    {
      "midi": 66,
      "hit": false,
      "t": 143076.77999999982,
      "d": 923.0760000000009,
      "v": 127
    },
    {
      "midi": 30,
      "hit": false,
      "t": 143076.78,
      "d": 461.53800000000047,
      "v": 127
    },
    {
      "midi": 54,
      "hit": false,
      "t": 143538.318,
      "d": 115.38449999998556,
      "v": 127
    },
    {
      "midi": 57,
      "hit": false,
      "t": 143653.70249999998,
      "d": 115.38449999998556,
      "v": 127
    },
    {
      "midi": 61,
      "hit": false,
      "t": 143884.47149999996,
      "d": 115.38449999998556,
      "v": 127
    },
    {
      "midi": 54,
      "hit": false,
      "t": 143999.85599999994,
      "d": 461.53800000000047,
      "v": 127
    },
    {
      "midi": 65,
      "hit": false,
      "t": 144461.39399999983,
      "d": 923.0760000000009,
      "v": 127
    },
    {
      "midi": 56,
      "hit": false,
      "t": 144461.39399999994,
      "d": 115.38449999998556,
      "v": 127
    },
    {
      "midi": 57,
      "hit": false,
      "t": 144576.77849999993,
      "d": 115.38449999998556,
      "v": 127
    },
    {
      "midi": 59,
      "hit": false,
      "t": 144807.5474999999,
      "d": 115.38449999998556,
      "v": 127
    },
    {
      "midi": 61,
      "hit": false,
      "t": 144922.93199999988,
      "d": 115.38449999998556,
      "v": 127
    },
    {
      "midi": 62,
      "hit": false,
      "t": 145038.31649999987,
      "d": 115.38449999998556,
      "v": 127
    },
    {
      "midi": 61,
      "hit": false,
      "t": 145269.08549999984,
      "d": 115.38449999998556,
      "v": 127
    },
    {
      "midi": 59,
      "hit": false,
      "t": 145384.46999999983,
      "d": 115.38449999998556,
      "v": 127
    },
    {
      "midi": 57,
      "hit": false,
      "t": 145499.8544999998,
      "d": 115.38449999998556,
      "v": 127
    },
    {
      "midi": 56,
      "hit": false,
      "t": 145730.62349999978,
      "d": 115.38449999998556,
      "v": 127
    },
    {
      "midi": 30,
      "hit": false,
      "t": 145846.00799999977,
      "d": 461.53800000000047,
      "v": 127
    },
    {
      "midi": 66,
      "hit": false,
      "t": 145846.00799999983,
      "d": 923.0760000000009,
      "v": 127
    },
    {
      "midi": 54,
      "hit": false,
      "t": 146307.54599999977,
      "d": 115.38449999998556,
      "v": 127
    },
    {
      "midi": 57,
      "hit": false,
      "t": 146422.93049999975,
      "d": 115.38449999998556,
      "v": 127
    },
    {
      "midi": 61,
      "hit": false,
      "t": 146653.69949999973,
      "d": 115.38449999998556,
      "v": 127
    },
    {
      "midi": 54,
      "hit": false,
      "t": 146769.0839999997,
      "d": 461.53800000000047,
      "v": 127
    },
    {
      "midi": 35,
      "hit": false,
      "t": 147230.6219999997,
      "d": 461.53800000000047,
      "v": 127
    },
    {
      "midi": 66,
      "hit": false,
      "t": 147230.62199999983,
      "d": 923.0760000000009,
      "v": 127
    },
    {
      "midi": 54,
      "hit": false,
      "t": 147692.1599999997,
      "d": 115.38449999998556,
      "v": 127
    },
    {
      "midi": 59,
      "hit": false,
      "t": 147807.5444999997,
      "d": 115.38449999998556,
      "v": 127
    },
    {
      "midi": 62,
      "hit": false,
      "t": 148038.31349999967,
      "d": 115.38449999998556,
      "v": 127
    },
    {
      "midi": 54,
      "hit": false,
      "t": 148153.69799999965,
      "d": 461.53800000000047,
      "v": 127
    },
    {
      "midi": 30,
      "hit": false,
      "t": 148615.23599999966,
      "d": 461.53800000000047,
      "v": 127
    },
    {
      "midi": 66,
      "hit": false,
      "t": 148615.23599999983,
      "d": 923.0760000000009,
      "v": 127
    },
    {
      "midi": 54,
      "hit": false,
      "t": 149076.77399999966,
      "d": 115.38449999998556,
      "v": 127
    },
    {
      "midi": 57,
      "hit": false,
      "t": 149192.15849999964,
      "d": 115.38449999998556,
      "v": 127
    },
    {
      "midi": 61,
      "hit": false,
      "t": 149422.9274999996,
      "d": 115.38449999998556,
      "v": 127
    },
    {
      "midi": 54,
      "hit": false,
      "t": 149538.3119999996,
      "d": 461.53800000000047,
      "v": 127
    },
    {
      "midi": 56,
      "hit": false,
      "t": 149999.8499999996,
      "d": 115.38449999998556,
      "v": 127
    },
    {
      "midi": 65,
      "hit": false,
      "t": 149999.84999999983,
      "d": 923.0760000000009,
      "v": 127
    },
    {
      "midi": 57,
      "hit": false,
      "t": 150115.23449999958,
      "d": 115.38449999998556,
      "v": 127
    },
    {
      "midi": 59,
      "hit": false,
      "t": 150346.00349999956,
      "d": 115.38449999998556,
      "v": 127
    },
    {
      "midi": 61,
      "hit": false,
      "t": 150461.38799999954,
      "d": 115.38449999998556,
      "v": 127
    },
    {
      "midi": 62,
      "hit": false,
      "t": 150576.77249999953,
      "d": 115.38449999998556,
      "v": 127
    },
    {
      "midi": 61,
      "hit": false,
      "t": 150807.5414999995,
      "d": 115.38449999998556,
      "v": 127
    },
    {
      "midi": 59,
      "hit": false,
      "t": 150922.92599999948,
      "d": 115.38449999998556,
      "v": 127
    },
    {
      "midi": 57,
      "hit": false,
      "t": 151038.31049999947,
      "d": 115.38449999998556,
      "v": 127
    },
    {
      "midi": 56,
      "hit": false,
      "t": 151269.07949999944,
      "d": 115.38449999998556,
      "v": 127
    },
    {
      "midi": 30,
      "hit": false,
      "t": 151384.46399999943,
      "d": 461.53800000000047,
      "v": 127
    },
    {
      "midi": 66,
      "hit": false,
      "t": 151384.46399999983,
      "d": 923.0760000000009,
      "v": 127
    },
    {
      "midi": 54,
      "hit": false,
      "t": 151846.00199999943,
      "d": 115.38449999998556,
      "v": 127
    },
    {
      "midi": 57,
      "hit": false,
      "t": 151961.3864999994,
      "d": 115.38449999998556,
      "v": 127
    },
    {
      "midi": 61,
      "hit": false,
      "t": 152192.15549999938,
      "d": 115.38449999998556,
      "v": 127
    },
    {
      "midi": 54,
      "hit": false,
      "t": 152307.53999999937,
      "d": 461.53800000000047,
      "v": 127
    },
    {
      "midi": 41,
      "hit": false,
      "t": 152769.07799999937,
      "d": 461.53800000000047,
      "v": 127
    },
    {
      "midi": 73,
      "hit": false,
      "t": 152769.07799999983,
      "d": 461.53800000000047,
      "v": 127
    },
    {
      "midi": 53,
      "hit": false,
      "t": 153230.61599999937,
      "d": 461.53800000000047,
      "v": 127
    },
    {
      "midi": 56,
      "hit": false,
      "t": 153230.61599999937,
      "d": 461.53800000000047,
      "v": 127
    },
    {
      "midi": 61,
      "hit": false,
      "t": 153230.61599999983,
      "d": 115.38449999998556,
      "v": 127
    },
    {
      "midi": 65,
      "hit": false,
      "t": 153346.00049999982,
      "d": 115.38449999998556,
      "v": 127
    },
    {
      "midi": 68,
      "hit": false,
      "t": 153576.7694999998,
      "d": 115.38449999998556,
      "v": 127
    },
    {
      "midi": 61,
      "hit": false,
      "t": 153692.15399999978,
      "d": 461.53800000000047,
      "v": 127
    },
    {
      "midi": 40,
      "hit": false,
      "t": 154153.69199999937,
      "d": 461.53800000000047,
      "v": 127
    },
    {
      "midi": 70,
      "hit": false,
      "t": 154153.69199999978,
      "d": 461.53800000000047,
      "v": 127
    },
    {
      "midi": 52,
      "hit": false,
      "t": 154615.22999999937,
      "d": 461.53800000000047,
      "v": 127
    },
    {
      "midi": 55,
      "hit": false,
      "t": 154615.22999999937,
      "d": 461.53800000000047,
      "v": 127
    },
    {
      "midi": 58,
      "hit": false,
      "t": 154615.22999999978,
      "d": 115.38449999998556,
      "v": 127
    },
    {
      "midi": 61,
      "hit": false,
      "t": 154730.61449999976,
      "d": 115.38449999998556,
      "v": 127
    },
    {
      "midi": 67,
      "hit": false,
      "t": 154961.38349999973,
      "d": 115.38449999998556,
      "v": 127
    },
    {
      "midi": 58,
      "hit": false,
      "t": 155076.76799999972,
      "d": 461.53800000000047,
      "v": 127
    },
    {
      "midi": 50,
      "hit": false,
      "t": 155538.30599999937,
      "d": 230.76900000000023,
      "v": 127
    },
    {
      "midi": 71,
      "hit": false,
      "t": 155538.30599999972,
      "d": 230.76900000000023,
      "v": 127
    },
    {
      "midi": 54,
      "hit": false,
      "t": 155769.07499999937,
      "d": 230.76900000000023,
      "v": 127
    },
    {
      "midi": 59,
      "hit": false,
      "t": 155769.07499999937,
      "d": 230.76900000000023,
      "v": 127
    },
    {
      "midi": 62,
      "hit": false,
      "t": 155769.07499999972,
      "d": 230.76900000000023,
      "v": 127
    },
    {
      "midi": 66,
      "hit": false,
      "t": 155769.07499999972,
      "d": 230.76900000000023,
      "v": 127
    },
    {
      "midi": 49,
      "hit": false,
      "t": 155999.84399999937,
      "d": 230.76900000000023,
      "v": 127
    },
    {
      "midi": 73,
      "hit": false,
      "t": 155999.84399999972,
      "d": 230.76900000000023,
      "v": 127
    },
    {
      "midi": 54,
      "hit": false,
      "t": 156230.61299999937,
      "d": 230.76900000000023,
      "v": 127
    },
    {
      "midi": 58,
      "hit": false,
      "t": 156230.61299999937,
      "d": 230.76900000000023,
      "v": 127
    },
    {
      "midi": 64,
      "hit": false,
      "t": 156230.61299999972,
      "d": 230.76900000000023,
      "v": 127
    },
    {
      "midi": 66,
      "hit": false,
      "t": 156230.61299999972,
      "d": 230.76900000000023,
      "v": 127
    },
    {
      "midi": 47,
      "hit": false,
      "t": 156461.38199999937,
      "d": 230.76900000000023,
      "v": 127
    },
    {
      "midi": 74,
      "hit": false,
      "t": 156461.38199999972,
      "d": 230.76900000000023,
      "v": 127
    },
    {
      "midi": 54,
      "hit": false,
      "t": 156692.15099999937,
      "d": 230.76900000000023,
      "v": 127
    },
    {
      "midi": 59,
      "hit": false,
      "t": 156692.15099999937,
      "d": 230.76900000000023,
      "v": 127
    },
    {
      "midi": 62,
      "hit": false,
      "t": 156692.15099999972,
      "d": 230.76900000000023,
      "v": 127
    },
    {
      "midi": 66,
      "hit": false,
      "t": 156692.15099999972,
      "d": 230.76900000000023,
      "v": 127
    },
    {
      "midi": 42,
      "hit": false,
      "t": 156922.91999999937,
      "d": 461.53800000000047,
      "v": 127
    },
    {
      "midi": 73,
      "hit": false,
      "t": 156922.91999999972,
      "d": 461.53800000000047,
      "v": 127
    },
    {
      "midi": 54,
      "hit": false,
      "t": 157384.45799999937,
      "d": 461.53800000000047,
      "v": 127
    },
    {
      "midi": 58,
      "hit": false,
      "t": 157384.45799999937,
      "d": 461.53800000000047,
      "v": 127
    },
    {
      "midi": 61,
      "hit": false,
      "t": 157384.45799999972,
      "d": 115.38449999998556,
      "v": 127
    },
    {
      "midi": 66,
      "hit": false,
      "t": 157499.8424999997,
      "d": 115.38449999998556,
      "v": 127
    },
    {
      "midi": 70,
      "hit": false,
      "t": 157730.61149999968,
      "d": 115.38449999998556,
      "v": 127
    },
    {
      "midi": 61,
      "hit": false,
      "t": 157845.99599999966,
      "d": 461.53800000000047,
      "v": 127
    },
    {
      "midi": 46,
      "hit": false,
      "t": 158307.53399999937,
      "d": 461.53800000000047,
      "v": 127
    },
    {
      "midi": 78,
      "hit": false,
      "t": 158307.53399999966,
      "d": 461.53800000000047,
      "v": 127
    },
    {
      "midi": 58,
      "hit": false,
      "t": 158769.07199999937,
      "d": 461.53800000000047,
      "v": 127
    },
    {
      "midi": 61,
      "hit": false,
      "t": 158769.07199999937,
      "d": 461.53800000000047,
      "v": 127
    },
    {
      "midi": 66,
      "hit": false,
      "t": 158769.07199999967,
      "d": 115.38449999998556,
      "v": 127
    },
    {
      "midi": 70,
      "hit": false,
      "t": 158884.45649999965,
      "d": 115.38449999998556,
      "v": 127
    },
    {
      "midi": 73,
      "hit": false,
      "t": 159115.22549999962,
      "d": 115.38449999998556,
      "v": 127
    },
    {
      "midi": 66,
      "hit": false,
      "t": 159230.6099999996,
      "d": 461.53800000000047,
      "v": 127
    },
    {
      "midi": 45,
      "hit": false,
      "t": 159692.14799999938,
      "d": 461.53800000000047,
      "v": 127
    },
    {
      "midi": 75,
      "hit": false,
      "t": 159692.1479999996,
      "d": 461.53800000000047,
      "v": 127
    },
    {
      "midi": 57,
      "hit": false,
      "t": 160153.68599999938,
      "d": 461.53800000000047,
      "v": 127
    },
    {
      "midi": 60,
      "hit": false,
      "t": 160153.68599999938,
      "d": 461.53800000000047,
      "v": 127
    },
    {
      "midi": 63,
      "hit": false,
      "t": 160153.6859999996,
      "d": 115.38449999998556,
      "v": 127
    },
    {
      "midi": 66,
      "hit": false,
      "t": 160269.0704999996,
      "d": 115.38449999998556,
      "v": 127
    },
    {
      "midi": 72,
      "hit": false,
      "t": 160499.83949999957,
      "d": 115.38449999998556,
      "v": 127
    },
    {
      "midi": 63,
      "hit": false,
      "t": 160615.22399999955,
      "d": 461.53800000000047,
      "v": 127
    },
    {
      "midi": 55,
      "hit": false,
      "t": 161076.76199999938,
      "d": 230.76900000000023,
      "v": 127
    },
    {
      "midi": 76,
      "hit": false,
      "t": 161076.76199999955,
      "d": 230.76900000000023,
      "v": 127
    },
    {
      "midi": 59,
      "hit": false,
      "t": 161307.53099999938,
      "d": 230.76900000000023,
      "v": 127
    },
    {
      "midi": 64,
      "hit": false,
      "t": 161307.53099999938,
      "d": 230.76900000000023,
      "v": 127
    },
    {
      "midi": 67,
      "hit": false,
      "t": 161307.53099999955,
      "d": 230.76900000000023,
      "v": 127
    },
    {
      "midi": 71,
      "hit": false,
      "t": 161307.53099999955,
      "d": 230.76900000000023,
      "v": 127
    },
    {
      "midi": 54,
      "hit": false,
      "t": 161538.29999999938,
      "d": 230.76900000000023,
      "v": 127
    },
    {
      "midi": 78,
      "hit": false,
      "t": 161538.29999999955,
      "d": 230.76900000000023,
      "v": 127
    },
    {
      "midi": 59,
      "hit": false,
      "t": 161769.06899999938,
      "d": 230.76900000000023,
      "v": 127
    },
    {
      "midi": 63,
      "hit": false,
      "t": 161769.06899999938,
      "d": 230.76900000000023,
      "v": 127
    },
    {
      "midi": 69,
      "hit": false,
      "t": 161769.06899999955,
      "d": 230.76900000000023,
      "v": 127
    },
    {
      "midi": 71,
      "hit": false,
      "t": 161769.06899999955,
      "d": 230.76900000000023,
      "v": 127
    },
    {
      "midi": 52,
      "hit": false,
      "t": 161999.83799999938,
      "d": 230.76900000000023,
      "v": 127
    },
    {
      "midi": 79,
      "hit": false,
      "t": 161999.83799999955,
      "d": 230.76900000000023,
      "v": 127
    },
    {
      "midi": 59,
      "hit": false,
      "t": 162230.60699999938,
      "d": 230.76900000000023,
      "v": 127
    },
    {
      "midi": 64,
      "hit": false,
      "t": 162230.60699999938,
      "d": 230.76900000000023,
      "v": 127
    },
    {
      "midi": 67,
      "hit": false,
      "t": 162230.60699999955,
      "d": 230.76900000000023,
      "v": 127
    },
    {
      "midi": 71,
      "hit": false,
      "t": 162230.60699999955,
      "d": 230.76900000000023,
      "v": 127
    },
    {
      "midi": 47,
      "hit": false,
      "t": 162461.37599999938,
      "d": 461.53800000000047,
      "v": 127
    },
    {
      "midi": 78,
      "hit": false,
      "t": 162461.37599999955,
      "d": 461.53800000000047,
      "v": 127
    },
    {
      "midi": 59,
      "hit": false,
      "t": 162922.91399999938,
      "d": 461.53800000000047,
      "v": 127
    },
    {
      "midi": 62,
      "hit": false,
      "t": 162922.91399999938,
      "d": 461.53800000000047,
      "v": 127
    },
    {
      "midi": 66,
      "hit": false,
      "t": 162922.91399999955,
      "d": 115.38449999998556,
      "v": 127
    },
    {
      "midi": 71,
      "hit": false,
      "t": 163038.29849999954,
      "d": 115.38449999998556,
      "v": 127
    },
    {
      "midi": 74,
      "hit": false,
      "t": 163269.0674999995,
      "d": 115.38449999998556,
      "v": 127
    },
    {
      "midi": 66,
      "hit": false,
      "t": 163384.4519999995,
      "d": 461.53800000000047,
      "v": 127
    },
    {
      "midi": 35,
      "hit": false,
      "t": 163845.98999999938,
      "d": 230.76900000000023,
      "v": 127
    },
    {
      "midi": 74,
      "hit": false,
      "t": 163845.9899999995,
      "d": 230.76900000000023,
      "v": 127
    },
    {
      "midi": 47,
      "hit": false,
      "t": 164076.75899999938,
      "d": 230.76900000000023,
      "v": 127
    },
    {
      "midi": 66,
      "hit": false,
      "t": 164076.7589999995,
      "d": 230.76900000000023,
      "v": 127
    },
    {
      "midi": 68,
      "hit": false,
      "t": 164076.7589999995,
      "d": 230.76900000000023,
      "v": 127
    },
    {
      "midi": 37,
      "hit": false,
      "t": 164307.52799999938,
      "d": 230.76900000000023,
      "v": 127
    },
    {
      "midi": 73,
      "hit": false,
      "t": 164307.5279999995,
      "d": 230.76900000000023,
      "v": 127
    },
    {
      "midi": 49,
      "hit": false,
      "t": 164538.29699999938,
      "d": 230.76900000000023,
      "v": 127
    },
    {
      "midi": 66,
      "hit": false,
      "t": 164538.2969999995,
      "d": 230.76900000000023,
      "v": 127
    },
    {
      "midi": 68,
      "hit": false,
      "t": 164538.2969999995,
      "d": 230.76900000000023,
      "v": 127
    },
    {
      "midi": 38,
      "hit": false,
      "t": 164769.06599999938,
      "d": 230.76900000000023,
      "v": 127
    },
    {
      "midi": 71,
      "hit": false,
      "t": 164769.0659999995,
      "d": 230.76900000000023,
      "v": 127
    },
    {
      "midi": 50,
      "hit": false,
      "t": 164999.83499999938,
      "d": 230.76900000000023,
      "v": 127
    },
    {
      "midi": 66,
      "hit": false,
      "t": 164999.8349999995,
      "d": 230.76900000000023,
      "v": 127
    },
    {
      "midi": 68,
      "hit": false,
      "t": 164999.8349999995,
      "d": 230.76900000000023,
      "v": 127
    },
    {
      "midi": 37,
      "hit": false,
      "t": 165230.60399999938,
      "d": 461.53800000000047,
      "v": 127
    },
    {
      "midi": 73,
      "hit": false,
      "t": 165230.6039999995,
      "d": 461.53800000000047,
      "v": 127
    },
    {
      "midi": 49,
      "hit": false,
      "t": 165692.14199999938,
      "d": 461.53800000000047,
      "v": 127
    },
    {
      "midi": 53,
      "hit": false,
      "t": 165692.14199999938,
      "d": 461.53800000000047,
      "v": 127
    },
    {
      "midi": 56,
      "hit": false,
      "t": 165692.14199999938,
      "d": 461.53800000000047,
      "v": 127
    },
    {
      "midi": 61,
      "hit": false,
      "t": 165692.1419999995,
      "d": 115.38449999998556,
      "v": 127
    },
    {
      "midi": 65,
      "hit": false,
      "t": 165807.52649999948,
      "d": 115.38449999998556,
      "v": 127
    },
    {
      "midi": 68,
      "hit": false,
      "t": 166038.29549999945,
      "d": 115.38449999998556,
      "v": 127
    },
    {
      "midi": 61,
      "hit": false,
      "t": 166153.67999999944,
      "d": 461.53800000000047,
      "v": 127
    },
    {
      "midi": 30,
      "hit": false,
      "t": 166615.21799999938,
      "d": 230.76900000000023,
      "v": 127
    },
    {
      "midi": 69,
      "hit": false,
      "t": 166615.21799999944,
      "d": 230.76900000000023,
      "v": 127
    },
    {
      "midi": 42,
      "hit": false,
      "t": 166845.98699999938,
      "d": 230.76900000000023,
      "v": 127
    },
    {
      "midi": 61,
      "hit": false,
      "t": 166845.98699999944,
      "d": 230.76900000000023,
      "v": 127
    },
    {
      "midi": 63,
      "hit": false,
      "t": 166845.98699999944,
      "d": 230.76900000000023,
      "v": 127
    },
    {
      "midi": 32,
      "hit": false,
      "t": 167076.75599999938,
      "d": 230.76900000000023,
      "v": 127
    },
    {
      "midi": 68,
      "hit": false,
      "t": 167076.75599999944,
      "d": 230.76900000000023,
      "v": 127
    },
    {
      "midi": 44,
      "hit": false,
      "t": 167307.52499999938,
      "d": 230.76900000000023,
      "v": 127
    },
    {
      "midi": 61,
      "hit": false,
      "t": 167307.52499999944,
      "d": 230.76900000000023,
      "v": 127
    },
    {
      "midi": 63,
      "hit": false,
      "t": 167307.52499999944,
      "d": 230.76900000000023,
      "v": 127
    },
    {
      "midi": 33,
      "hit": false,
      "t": 167538.29399999938,
      "d": 230.76900000000023,
      "v": 127
    },
    {
      "midi": 66,
      "hit": false,
      "t": 167538.29399999944,
      "d": 230.76900000000023,
      "v": 127
    },
    {
      "midi": 45,
      "hit": false,
      "t": 167769.06299999938,
      "d": 230.76900000000023,
      "v": 127
    },
    {
      "midi": 61,
      "hit": false,
      "t": 167769.06299999944,
      "d": 230.76900000000023,
      "v": 127
    },
    {
      "midi": 63,
      "hit": false,
      "t": 167769.06299999944,
      "d": 230.76900000000023,
      "v": 127
    },
    {
      "midi": 32,
      "hit": false,
      "t": 167999.83199999938,
      "d": 461.53800000000047,
      "v": 127
    },
    {
      "midi": 68,
      "hit": false,
      "t": 167999.83199999944,
      "d": 461.53800000000047,
      "v": 127
    },
    {
      "midi": 44,
      "hit": false,
      "t": 168461.36999999938,
      "d": 461.53800000000047,
      "v": 127
    },
    {
      "midi": 48,
      "hit": false,
      "t": 168461.36999999938,
      "d": 461.53800000000047,
      "v": 127
    },
    {
      "midi": 51,
      "hit": false,
      "t": 168461.36999999938,
      "d": 461.53800000000047,
      "v": 127
    },
    {
      "midi": 56,
      "hit": false,
      "t": 168461.36999999944,
      "d": 115.38449999998556,
      "v": 127
    },
    {
      "midi": 60,
      "hit": false,
      "t": 168576.75449999943,
      "d": 115.38449999998556,
      "v": 127
    },
    {
      "midi": 63,
      "hit": false,
      "t": 168807.5234999994,
      "d": 115.38449999998556,
      "v": 127
    },
    {
      "midi": 56,
      "hit": false,
      "t": 168922.90799999938,
      "d": 461.53800000000047,
      "v": 127
    },
    {
      "midi": 65,
      "hit": false,
      "t": 169384.44599999939,
      "d": 923.0760000000009,
      "v": 127
    },
    {
      "midi": 37,
      "hit": false,
      "t": 169384.44599999939,
      "d": 461.53800000000047,
      "v": 127
    },
    {
      "midi": 53,
      "hit": false,
      "t": 169845.9839999994,
      "d": 115.38449999998556,
      "v": 127
    },
    {
      "midi": 56,
      "hit": false,
      "t": 169961.36849999937,
      "d": 115.38449999998556,
      "v": 127
    },
    {
      "midi": 61,
      "hit": false,
      "t": 170192.13749999934,
      "d": 115.38449999998556,
      "v": 127
    },
    {
      "midi": 53,
      "hit": false,
      "t": 170307.52199999933,
      "d": 461.53800000000047,
      "v": 127
    },
    {
      "midi": 33,
      "hit": false,
      "t": 170769.05999999933,
      "d": 461.53800000000047,
      "v": 127
    },
    {
      "midi": 66,
      "hit": false,
      "t": 170769.0599999994,
      "d": 923.0760000000009,
      "v": 127
    },
    {
      "midi": 54,
      "hit": false,
      "t": 171230.59799999933,
      "d": 115.38449999998556,
      "v": 127
    },
    {
      "midi": 57,
      "hit": false,
      "t": 171345.9824999993,
      "d": 115.38449999998556,
      "v": 127
    },
    {
      "midi": 61,
      "hit": false,
      "t": 171576.75149999929,
      "d": 115.38449999998556,
      "v": 127
    },
    {
      "midi": 54,
      "hit": false,
      "t": 171692.13599999927,
      "d": 461.53800000000047,
      "v": 127
    },
    {
      "midi": 35,
      "hit": false,
      "t": 172153.67399999927,
      "d": 230.76900000000023,
      "v": 127
    },
    {
      "midi": 55,
      "hit": false,
      "t": 172153.67399999927,
      "d": 230.76900000000023,
      "v": 127
    },
    {
      "midi": 59,
      "hit": false,
      "t": 172153.67399999927,
      "d": 230.76900000000023,
      "v": 127
    },
    {
      "midi": 47,
      "hit": false,
      "t": 172384.44299999927,
      "d": 230.76900000000023,
      "v": 127
    },
    {
      "midi": 62,
      "hit": false,
      "t": 172384.44299999927,
      "d": 230.76900000000023,
      "v": 127
    },
    {
      "midi": 37,
      "hit": false,
      "t": 172615.21199999927,
      "d": 230.76900000000023,
      "v": 127
    },
    {
      "midi": 54,
      "hit": false,
      "t": 172615.21199999927,
      "d": 230.76900000000023,
      "v": 127
    },
    {
      "midi": 57,
      "hit": false,
      "t": 172615.21199999927,
      "d": 230.76900000000023,
      "v": 127
    },
    {
      "midi": 49,
      "hit": false,
      "t": 172845.98099999927,
      "d": 230.76900000000023,
      "v": 127
    },
    {
      "midi": 61,
      "hit": false,
      "t": 172845.98099999927,
      "d": 230.76900000000023,
      "v": 127
    },
    {
      "midi": 37,
      "hit": false,
      "t": 173076.74999999927,
      "d": 230.76900000000023,
      "v": 127
    },
    {
      "midi": 53,
      "hit": false,
      "t": 173076.74999999927,
      "d": 230.76900000000023,
      "v": 127
    },
    {
      "midi": 56,
      "hit": false,
      "t": 173076.74999999927,
      "d": 230.76900000000023,
      "v": 127
    },
    {
      "midi": 49,
      "hit": false,
      "t": 173307.51899999927,
      "d": 230.76900000000023,
      "v": 127
    },
    {
      "midi": 61,
      "hit": false,
      "t": 173307.51899999927,
      "d": 230.76900000000023,
      "v": 127
    },
    {
      "midi": 54,
      "hit": false,
      "t": 173538.28799999927,
      "d": 115.38449999998556,
      "v": 127
    },
    {
      "midi": 50,
      "hit": false,
      "t": 173653.67249999926,
      "d": 115.38449999998556,
      "v": 127
    },
    {
      "midi": 49,
      "hit": false,
      "t": 173884.44149999923,
      "d": 115.38449999998556,
      "v": 127
    },
    {
      "midi": 47,
      "hit": false,
      "t": 173999.82599999922,
      "d": 115.38449999998556,
      "v": 127
    },
    {
      "midi": 45,
      "hit": false,
      "t": 174115.2104999992,
      "d": 115.38449999998556,
      "v": 127
    },
    {
      "midi": 44,
      "hit": false,
      "t": 174345.97949999917,
      "d": 115.38449999998556,
      "v": 127
    },
    {
      "midi": 42,
      "hit": false,
      "t": 174461.36399999916,
      "d": 461.53800000000047,
      "v": 127
    },
    {
      "midi": 35,
      "hit": false,
      "t": 174922.90199999916,
      "d": 461.53800000000047,
      "v": 127
    },
    {
      "midi": 71,
      "hit": false,
      "t": 174922.9019999994,
      "d": 461.53800000000047,
      "v": 127
    },
    {
      "midi": 47,
      "hit": false,
      "t": 175384.43999999916,
      "d": 461.53800000000047,
      "v": 127
    },
    {
      "midi": 50,
      "hit": false,
      "t": 175384.43999999916,
      "d": 461.53800000000047,
      "v": 127
    },
    {
      "midi": 54,
      "hit": false,
      "t": 175384.43999999916,
      "d": 461.53800000000047,
      "v": 127
    },
    {
      "midi": 59,
      "hit": false,
      "t": 175384.4399999994,
      "d": 115.38449999998556,
      "v": 127
    },
    {
      "midi": 62,
      "hit": false,
      "t": 175499.82449999938,
      "d": 115.38449999998556,
      "v": 127
    },
    {
      "midi": 66,
      "hit": false,
      "t": 175730.59349999935,
      "d": 115.38449999998556,
      "v": 127
    },
    {
      "midi": 59,
      "hit": false,
      "t": 175845.97799999933,
      "d": 461.53800000000047,
      "v": 127
    },
    {
      "midi": 35,
      "hit": false,
      "t": 176307.51599999916,
      "d": 461.53800000000047,
      "v": 127
    },
    {
      "midi": 71,
      "hit": false,
      "t": 176307.51599999933,
      "d": 461.53800000000047,
      "v": 127
    },
    {
      "midi": 47,
      "hit": false,
      "t": 176769.05399999916,
      "d": 461.53800000000047,
      "v": 127
    },
    {
      "midi": 49,
      "hit": false,
      "t": 176769.05399999916,
      "d": 461.53800000000047,
      "v": 127
    },
    {
      "midi": 52,
      "hit": false,
      "t": 176769.05399999916,
      "d": 461.53800000000047,
      "v": 127
    },
    {
      "midi": 55,
      "hit": false,
      "t": 176769.05399999916,
      "d": 461.53800000000047,
      "v": 127
    },
    {
      "midi": 59,
      "hit": false,
      "t": 176769.05399999933,
      "d": 115.38449999998556,
      "v": 127
    },
    {
      "midi": 61,
      "hit": false,
      "t": 176884.43849999932,
      "d": 115.38449999998556,
      "v": 127
    },
    {
      "midi": 67,
      "hit": false,
      "t": 177115.2074999993,
      "d": 115.38449999998556,
      "v": 127
    },
    {
      "midi": 59,
      "hit": false,
      "t": 177230.59199999928,
      "d": 461.53800000000047,
      "v": 127
    },
    {
      "midi": 50,
      "hit": false,
      "t": 177692.12999999916,
      "d": 230.76900000000023,
      "v": 127
    },
    {
      "midi": 71,
      "hit": false,
      "t": 177692.12999999928,
      "d": 230.76900000000023,
      "v": 127
    },
    {
      "midi": 54,
      "hit": false,
      "t": 177922.89899999916,
      "d": 230.76900000000023,
      "v": 127
    },
    {
      "midi": 59,
      "hit": false,
      "t": 177922.89899999916,
      "d": 230.76900000000023,
      "v": 127
    },
    {
      "midi": 62,
      "hit": false,
      "t": 177922.89899999928,
      "d": 230.76900000000023,
      "v": 127
    },
    {
      "midi": 66,
      "hit": false,
      "t": 177922.89899999928,
      "d": 230.76900000000023,
      "v": 127
    },
    {
      "midi": 49,
      "hit": false,
      "t": 178153.66799999916,
      "d": 230.76900000000023,
      "v": 127
    },
    {
      "midi": 73,
      "hit": false,
      "t": 178153.66799999928,
      "d": 230.76900000000023,
      "v": 127
    },
    {
      "midi": 54,
      "hit": false,
      "t": 178384.43699999916,
      "d": 230.76900000000023,
      "v": 127
    },
    {
      "midi": 58,
      "hit": false,
      "t": 178384.43699999916,
      "d": 230.76900000000023,
      "v": 127
    },
    {
      "midi": 64,
      "hit": false,
      "t": 178384.43699999928,
      "d": 230.76900000000023,
      "v": 127
    },
    {
      "midi": 66,
      "hit": false,
      "t": 178384.43699999928,
      "d": 230.76900000000023,
      "v": 127
    },
    {
      "midi": 47,
      "hit": false,
      "t": 178615.20599999916,
      "d": 230.76900000000023,
      "v": 127
    },
    {
      "midi": 74,
      "hit": false,
      "t": 178615.20599999928,
      "d": 230.76900000000023,
      "v": 127
    },
    {
      "midi": 54,
      "hit": false,
      "t": 178845.97499999916,
      "d": 230.76900000000023,
      "v": 127
    },
    {
      "midi": 59,
      "hit": false,
      "t": 178845.97499999916,
      "d": 230.76900000000023,
      "v": 127
    },
    {
      "midi": 62,
      "hit": false,
      "t": 178845.97499999928,
      "d": 230.76900000000023,
      "v": 127
    },
    {
      "midi": 66,
      "hit": false,
      "t": 178845.97499999928,
      "d": 230.76900000000023,
      "v": 127
    },
    {
      "midi": 42,
      "hit": false,
      "t": 179076.74399999916,
      "d": 461.53800000000047,
      "v": 127
    },
    {
      "midi": 73,
      "hit": false,
      "t": 179076.74399999928,
      "d": 461.53800000000047,
      "v": 127
    },
    {
      "midi": 54,
      "hit": false,
      "t": 179538.28199999916,
      "d": 461.53800000000047,
      "v": 127
    },
    {
      "midi": 58,
      "hit": false,
      "t": 179538.28199999916,
      "d": 461.53800000000047,
      "v": 127
    },
    {
      "midi": 61,
      "hit": false,
      "t": 179538.28199999928,
      "d": 115.38449999998556,
      "v": 127
    },
    {
      "midi": 66,
      "hit": false,
      "t": 179653.66649999926,
      "d": 115.38449999998556,
      "v": 127
    },
    {
      "midi": 70,
      "hit": false,
      "t": 179884.43549999924,
      "d": 115.38449999998556,
      "v": 127
    },
    {
      "midi": 61,
      "hit": false,
      "t": 179999.81999999922,
      "d": 461.53800000000047,
      "v": 127
    },
    {
      "midi": 42,
      "hit": false,
      "t": 180461.35799999916,
      "d": 461.53800000000047,
      "v": 127
    },
    {
      "midi": 78,
      "hit": false,
      "t": 180461.35799999922,
      "d": 461.53800000000047,
      "v": 127
    },
    {
      "midi": 54,
      "hit": false,
      "t": 180922.89599999916,
      "d": 461.53800000000047,
      "v": 127
    },
    {
      "midi": 58,
      "hit": false,
      "t": 180922.89599999916,
      "d": 461.53800000000047,
      "v": 127
    },
    {
      "midi": 61,
      "hit": false,
      "t": 180922.89599999916,
      "d": 461.53800000000047,
      "v": 127
    },
    {
      "midi": 66,
      "hit": false,
      "t": 180922.89599999922,
      "d": 115.38449999998556,
      "v": 127
    },
    {
      "midi": 70,
      "hit": false,
      "t": 181038.2804999992,
      "d": 115.38449999998556,
      "v": 127
    },
    {
      "midi": 73,
      "hit": false,
      "t": 181269.04949999918,
      "d": 115.38449999998556,
      "v": 127
    },
    {
      "midi": 66,
      "hit": false,
      "t": 181384.43399999916,
      "d": 461.53800000000047,
      "v": 127
    },
    {
      "midi": 74,
      "hit": false,
      "t": 181845.97199999916,
      "d": 461.53800000000047,
      "v": 127
    },
    {
      "midi": 47,
      "hit": false,
      "t": 181845.97199999916,
      "d": 461.53800000000047,
      "v": 127
    },
    {
      "midi": 62,
      "hit": false,
      "t": 182307.50999999917,
      "d": 115.38449999998556,
      "v": 127
    },
    {
      "midi": 54,
      "hit": false,
      "t": 182307.50999999917,
      "d": 461.53800000000047,
      "v": 127
    },
    {
      "midi": 59,
      "hit": false,
      "t": 182307.50999999917,
      "d": 461.53800000000047,
      "v": 127
    },
    {
      "midi": 66,
      "hit": false,
      "t": 182422.89449999915,
      "d": 115.38449999998556,
      "v": 127
    },
    {
      "midi": 71,
      "hit": false,
      "t": 182653.66349999912,
      "d": 115.38449999998556,
      "v": 127
    },
    {
      "midi": 62,
      "hit": false,
      "t": 182769.0479999991,
      "d": 461.53800000000047,
      "v": 127
    },
    {
      "midi": 73,
      "hit": false,
      "t": 183230.5859999991,
      "d": 230.76900000000023,
      "v": 127
    },
    {
      "midi": 43,
      "hit": false,
      "t": 183230.58599999917,
      "d": 230.76900000000023,
      "v": 127
    },
    {
      "midi": 64,
      "hit": false,
      "t": 183461.3549999991,
      "d": 230.76900000000023,
      "v": 127
    },
    {
      "midi": 55,
      "hit": false,
      "t": 183461.35499999917,
      "d": 230.76900000000023,
      "v": 127
    },
    {
      "midi": 76,
      "hit": false,
      "t": 183692.1239999991,
      "d": 230.76900000000023,
      "v": 127
    },
    {
      "midi": 40,
      "hit": false,
      "t": 183692.12399999917,
      "d": 230.76900000000023,
      "v": 127
    },
    {
      "midi": 64,
      "hit": false,
      "t": 183922.8929999991,
      "d": 230.76900000000023,
      "v": 127
    },
    {
      "midi": 52,
      "hit": false,
      "t": 183922.89299999917,
      "d": 230.76900000000023,
      "v": 127
    },
    {
      "midi": 73,
      "hit": false,
      "t": 184153.6619999991,
      "d": 230.76900000000023,
      "v": 127
    },
    {
      "midi": 43,
      "hit": false,
      "t": 184153.66199999917,
      "d": 230.76900000000023,
      "v": 127
    },
    {
      "midi": 64,
      "hit": false,
      "t": 184384.4309999991,
      "d": 230.76900000000023,
      "v": 127
    },
    {
      "midi": 55,
      "hit": false,
      "t": 184384.43099999917,
      "d": 230.76900000000023,
      "v": 127
    },
    {
      "midi": 74,
      "hit": false,
      "t": 184615.1999999991,
      "d": 461.53800000000047,
      "v": 127
    },
    {
      "midi": 47,
      "hit": false,
      "t": 184615.19999999917,
      "d": 461.53800000000047,
      "v": 127
    },
    {
      "midi": 62,
      "hit": false,
      "t": 185076.7379999991,
      "d": 115.38449999998556,
      "v": 127
    },
    {
      "midi": 54,
      "hit": false,
      "t": 185076.73799999917,
      "d": 461.53800000000047,
      "v": 127
    },
    {
      "midi": 59,
      "hit": false,
      "t": 185076.73799999917,
      "d": 461.53800000000047,
      "v": 127
    },
    {
      "midi": 66,
      "hit": false,
      "t": 185192.1224999991,
      "d": 115.38449999998556,
      "v": 127
    },
    {
      "midi": 71,
      "hit": false,
      "t": 185422.89149999907,
      "d": 115.38449999998556,
      "v": 127
    },
    {
      "midi": 62,
      "hit": false,
      "t": 185538.27599999905,
      "d": 461.53800000000047,
      "v": 127
    },
    {
      "midi": 76,
      "hit": false,
      "t": 185999.81399999905,
      "d": 461.53800000000047,
      "v": 127
    },
    {
      "midi": 40,
      "hit": false,
      "t": 185999.81399999917,
      "d": 461.53800000000047,
      "v": 127
    },
    {
      "midi": 64,
      "hit": false,
      "t": 186461.35199999905,
      "d": 115.38449999998556,
      "v": 127
    },
    {
      "midi": 52,
      "hit": false,
      "t": 186461.35199999917,
      "d": 461.53800000000047,
      "v": 127
    },
    {
      "midi": 55,
      "hit": false,
      "t": 186461.35199999917,
      "d": 461.53800000000047,
      "v": 127
    },
    {
      "midi": 59,
      "hit": false,
      "t": 186461.35199999917,
      "d": 461.53800000000047,
      "v": 127
    },
    {
      "midi": 67,
      "hit": false,
      "t": 186576.73649999904,
      "d": 115.38449999998556,
      "v": 127
    },
    {
      "midi": 71,
      "hit": false,
      "t": 186807.505499999,
      "d": 115.38449999998556,
      "v": 127
    },
    {
      "midi": 64,
      "hit": false,
      "t": 186922.889999999,
      "d": 461.53800000000047,
      "v": 127
    },
    {
      "midi": 76,
      "hit": false,
      "t": 187384.427999999,
      "d": 461.53800000000047,
      "v": 127
    },
    {
      "midi": 40,
      "hit": false,
      "t": 187384.42799999917,
      "d": 461.53800000000047,
      "v": 127
    },
    {
      "midi": 64,
      "hit": false,
      "t": 187845.965999999,
      "d": 115.38449999998556,
      "v": 127
    },
    {
      "midi": 52,
      "hit": false,
      "t": 187845.96599999917,
      "d": 461.53800000000047,
      "v": 127
    },
    {
      "midi": 54,
      "hit": false,
      "t": 187845.96599999917,
      "d": 461.53800000000047,
      "v": 127
    },
    {
      "midi": 57,
      "hit": false,
      "t": 187845.96599999917,
      "d": 461.53800000000047,
      "v": 127
    },
    {
      "midi": 60,
      "hit": false,
      "t": 187845.96599999917,
      "d": 461.53800000000047,
      "v": 127
    },
    {
      "midi": 66,
      "hit": false,
      "t": 187961.35049999898,
      "d": 115.38449999998556,
      "v": 127
    },
    {
      "midi": 72,
      "hit": false,
      "t": 188192.11949999895,
      "d": 115.38449999998556,
      "v": 127
    },
    {
      "midi": 64,
      "hit": false,
      "t": 188307.50399999894,
      "d": 461.53800000000047,
      "v": 127
    },
    {
      "midi": 76,
      "hit": false,
      "t": 188769.04199999894,
      "d": 230.76900000000023,
      "v": 127
    },
    {
      "midi": 55,
      "hit": false,
      "t": 188769.04199999917,
      "d": 230.76900000000023,
      "v": 127
    },
    {
      "midi": 67,
      "hit": false,
      "t": 188999.81099999894,
      "d": 230.76900000000023,
      "v": 127
    },
    {
      "midi": 71,
      "hit": false,
      "t": 188999.81099999894,
      "d": 230.76900000000023,
      "v": 127
    },
    {
      "midi": 59,
      "hit": false,
      "t": 188999.81099999917,
      "d": 230.76900000000023,
      "v": 127
    },
    {
      "midi": 64,
      "hit": false,
      "t": 188999.81099999917,
      "d": 230.76900000000023,
      "v": 127
    },
    {
      "midi": 78,
      "hit": false,
      "t": 189230.57999999894,
      "d": 230.76900000000023,
      "v": 127
    },
    {
      "midi": 54,
      "hit": false,
      "t": 189230.57999999917,
      "d": 230.76900000000023,
      "v": 127
    },
    {
      "midi": 69,
      "hit": false,
      "t": 189461.34899999894,
      "d": 230.76900000000023,
      "v": 127
    },
    {
      "midi": 71,
      "hit": false,
      "t": 189461.34899999894,
      "d": 230.76900000000023,
      "v": 127
    },
    {
      "midi": 59,
      "hit": false,
      "t": 189461.34899999917,
      "d": 230.76900000000023,
      "v": 127
    },
    {
      "midi": 63,
      "hit": false,
      "t": 189461.34899999917,
      "d": 230.76900000000023,
      "v": 127
    },
    {
      "midi": 79,
      "hit": false,
      "t": 189692.11799999894,
      "d": 230.76900000000023,
      "v": 127
    },
    {
      "midi": 52,
      "hit": false,
      "t": 189692.11799999917,
      "d": 230.76900000000023,
      "v": 127
    },
    {
      "midi": 67,
      "hit": false,
      "t": 189922.88699999894,
      "d": 230.76900000000023,
      "v": 127
    },
    {
      "midi": 71,
      "hit": false,
      "t": 189922.88699999894,
      "d": 230.76900000000023,
      "v": 127
    },
    {
      "midi": 59,
      "hit": false,
      "t": 189922.88699999917,
      "d": 230.76900000000023,
      "v": 127
    },
    {
      "midi": 64,
      "hit": false,
      "t": 189922.88699999917,
      "d": 230.76900000000023,
      "v": 127
    },
    {
      "midi": 78,
      "hit": false,
      "t": 190153.65599999894,
      "d": 461.53800000000047,
      "v": 127
    },
    {
      "midi": 47,
      "hit": false,
      "t": 190153.65599999917,
      "d": 461.53800000000047,
      "v": 127
    },
    {
      "midi": 66,
      "hit": false,
      "t": 190615.19399999894,
      "d": 115.38449999998556,
      "v": 127
    },
    {
      "midi": 59,
      "hit": false,
      "t": 190615.19399999917,
      "d": 461.53800000000047,
      "v": 127
    },
    {
      "midi": 63,
      "hit": false,
      "t": 190615.19399999917,
      "d": 461.53800000000047,
      "v": 127
    },
    {
      "midi": 71,
      "hit": false,
      "t": 190730.57849999893,
      "d": 115.38449999998556,
      "v": 127
    },
    {
      "midi": 75,
      "hit": false,
      "t": 190961.3474999989,
      "d": 115.38449999998556,
      "v": 127
    },
    {
      "midi": 66,
      "hit": false,
      "t": 191076.73199999888,
      "d": 461.53800000000047,
      "v": 127
    },
    {
      "midi": 83,
      "hit": false,
      "t": 191538.26999999888,
      "d": 461.53800000000047,
      "v": 127
    },
    {
      "midi": 47,
      "hit": false,
      "t": 191538.26999999917,
      "d": 461.53800000000047,
      "v": 127
    },
    {
      "midi": 71,
      "hit": false,
      "t": 191999.80799999888,
      "d": 115.38449999998556,
      "v": 127
    },
    {
      "midi": 59,
      "hit": false,
      "t": 191999.80799999918,
      "d": 461.53800000000047,
      "v": 127
    },
    {
      "midi": 63,
      "hit": false,
      "t": 191999.80799999918,
      "d": 461.53800000000047,
      "v": 127
    },
    {
      "midi": 66,
      "hit": false,
      "t": 191999.80799999918,
      "d": 461.53800000000047,
      "v": 127
    },
    {
      "midi": 75,
      "hit": false,
      "t": 192115.19249999887,
      "d": 115.38449999998556,
      "v": 127
    },
    {
      "midi": 78,
      "hit": false,
      "t": 192345.96149999884,
      "d": 115.38449999998556,
      "v": 127
    },
    {
      "midi": 71,
      "hit": false,
      "t": 192461.34599999883,
      "d": 461.53800000000047,
      "v": 127
    },
    {
      "midi": 79,
      "hit": false,
      "t": 192922.88399999883,
      "d": 461.53800000000047,
      "v": 127
    },
    {
      "midi": 52,
      "hit": false,
      "t": 192922.88399999918,
      "d": 461.53800000000047,
      "v": 127
    },
    {
      "midi": 67,
      "hit": false,
      "t": 193384.42199999883,
      "d": 115.38449999998556,
      "v": 127
    },
    {
      "midi": 59,
      "hit": false,
      "t": 193384.42199999918,
      "d": 461.53800000000047,
      "v": 127
    },
    {
      "midi": 64,
      "hit": false,
      "t": 193384.42199999918,
      "d": 461.53800000000047,
      "v": 127
    },
    {
      "midi": 71,
      "hit": false,
      "t": 193499.8064999988,
      "d": 115.38449999998556,
      "v": 127
    },
    {
      "midi": 76,
      "hit": false,
      "t": 193730.57549999878,
      "d": 115.38449999998556,
      "v": 127
    },
    {
      "midi": 67,
      "hit": false,
      "t": 193845.95999999877,
      "d": 461.53800000000047,
      "v": 127
    },
    {
      "midi": 76,
      "hit": false,
      "t": 194307.49799999877,
      "d": 230.76900000000023,
      "v": 127
    },
    {
      "midi": 43,
      "hit": false,
      "t": 194307.49799999918,
      "d": 230.76900000000023,
      "v": 127
    },
    {
      "midi": 71,
      "hit": false,
      "t": 194538.26699999877,
      "d": 230.76900000000023,
      "v": 127
    },
    {
      "midi": 73,
      "hit": false,
      "t": 194538.26699999877,
      "d": 230.76900000000023,
      "v": 127
    },
    {
      "midi": 55,
      "hit": false,
      "t": 194538.26699999918,
      "d": 230.76900000000023,
      "v": 127
    },
    {
      "midi": 79,
      "hit": false,
      "t": 194769.03599999877,
      "d": 230.76900000000023,
      "v": 127
    },
    {
      "midi": 40,
      "hit": false,
      "t": 194769.03599999918,
      "d": 230.76900000000023,
      "v": 127
    },
    {
      "midi": 71,
      "hit": false,
      "t": 194999.80499999877,
      "d": 230.76900000000023,
      "v": 127
    },
    {
      "midi": 73,
      "hit": false,
      "t": 194999.80499999877,
      "d": 230.76900000000023,
      "v": 127
    },
    {
      "midi": 52,
      "hit": false,
      "t": 194999.80499999918,
      "d": 230.76900000000023,
      "v": 127
    },
    {
      "midi": 76,
      "hit": false,
      "t": 195230.57399999877,
      "d": 230.76900000000023,
      "v": 127
    },
    {
      "midi": 43,
      "hit": false,
      "t": 195230.57399999918,
      "d": 230.76900000000023,
      "v": 127
    },
    {
      "midi": 71,
      "hit": false,
      "t": 195461.34299999877,
      "d": 230.76900000000023,
      "v": 127
    },
    {
      "midi": 73,
      "hit": false,
      "t": 195461.34299999877,
      "d": 230.76900000000023,
      "v": 127
    },
    {
      "midi": 55,
      "hit": false,
      "t": 195461.34299999918,
      "d": 230.76900000000023,
      "v": 127
    },
    {
      "midi": 78,
      "hit": false,
      "t": 195692.11199999877,
      "d": 461.53800000000047,
      "v": 127
    },
    {
      "midi": 42,
      "hit": false,
      "t": 195692.11199999918,
      "d": 461.53800000000047,
      "v": 127
    },
    {
      "midi": 66,
      "hit": false,
      "t": 196153.64999999877,
      "d": 115.38449999998556,
      "v": 127
    },
    {
      "midi": 54,
      "hit": false,
      "t": 196153.64999999918,
      "d": 461.53800000000047,
      "v": 127
    },
    {
      "midi": 58,
      "hit": false,
      "t": 196153.64999999918,
      "d": 461.53800000000047,
      "v": 127
    },
    {
      "midi": 61,
      "hit": false,
      "t": 196153.64999999918,
      "d": 461.53800000000047,
      "v": 127
    },
    {
      "midi": 70,
      "hit": false,
      "t": 196269.03449999876,
      "d": 115.38449999998556,
      "v": 127
    },
    {
      "midi": 73,
      "hit": false,
      "t": 196499.80349999873,
      "d": 115.38449999998556,
      "v": 127
    },
    {
      "midi": 66,
      "hit": false,
      "t": 196615.1879999987,
      "d": 461.53800000000047,
      "v": 127
    },
    {
      "midi": 74,
      "hit": false,
      "t": 197076.7259999987,
      "d": 461.53800000000047,
      "v": 127
    },
    {
      "midi": 47,
      "hit": false,
      "t": 197076.72599999918,
      "d": 461.53800000000047,
      "v": 127
    },
    {
      "midi": 62,
      "hit": false,
      "t": 197538.26399999872,
      "d": 115.38449999998556,
      "v": 127
    },
    {
      "midi": 54,
      "hit": false,
      "t": 197538.26399999918,
      "d": 461.53800000000047,
      "v": 127
    },
    {
      "midi": 59,
      "hit": false,
      "t": 197538.26399999918,
      "d": 461.53800000000047,
      "v": 127
    },
    {
      "midi": 66,
      "hit": false,
      "t": 197653.6484999987,
      "d": 115.38449999998556,
      "v": 127
    },
    {
      "midi": 71,
      "hit": false,
      "t": 197884.41749999867,
      "d": 115.38449999998556,
      "v": 127
    },
    {
      "midi": 62,
      "hit": false,
      "t": 197999.80199999866,
      "d": 461.53800000000047,
      "v": 127
    },
    {
      "midi": 72,
      "hit": false,
      "t": 198461.33999999866,
      "d": 461.53800000000047,
      "v": 127
    },
    {
      "midi": 40,
      "hit": false,
      "t": 198461.33999999918,
      "d": 461.53800000000047,
      "v": 127
    },
    {
      "midi": 60,
      "hit": false,
      "t": 198922.87799999866,
      "d": 115.38449999998556,
      "v": 127
    },
    {
      "midi": 52,
      "hit": false,
      "t": 198922.87799999918,
      "d": 461.53800000000047,
      "v": 127
    },
    {
      "midi": 55,
      "hit": false,
      "t": 198922.87799999918,
      "d": 461.53800000000047,
      "v": 127
    },
    {
      "midi": 64,
      "hit": false,
      "t": 199038.26249999864,
      "d": 115.38449999998556,
      "v": 127
    },
    {
      "midi": 67,
      "hit": false,
      "t": 199269.03149999861,
      "d": 115.38449999998556,
      "v": 127
    },
    {
      "midi": 60,
      "hit": false,
      "t": 199384.4159999986,
      "d": 461.53800000000047,
      "v": 127
    },
    {
      "midi": 70,
      "hit": false,
      "t": 199845.9539999986,
      "d": 230.76900000000023,
      "v": 127
    },
    {
      "midi": 42,
      "hit": false,
      "t": 199845.95399999918,
      "d": 461.53800000000047,
      "v": 127
    },
    {
      "midi": 61,
      "hit": false,
      "t": 200076.7229999986,
      "d": 230.76900000000023,
      "v": 127
    },
    {
      "midi": 73,
      "hit": false,
      "t": 200307.4919999986,
      "d": 230.76900000000023,
      "v": 127
    },
    {
      "midi": 54,
      "hit": false,
      "t": 200307.49199999918,
      "d": 461.53800000000047,
      "v": 127
    },
    {
      "midi": 58,
      "hit": false,
      "t": 200307.49199999918,
      "d": 461.53800000000047,
      "v": 127
    },
    {
      "midi": 61,
      "hit": false,
      "t": 200538.2609999986,
      "d": 230.76900000000023,
      "v": 127
    },
    {
      "midi": 70,
      "hit": false,
      "t": 200769.0299999986,
      "d": 230.76900000000023,
      "v": 127
    },
    {
      "midi": 42,
      "hit": false,
      "t": 200769.02999999918,
      "d": 461.53800000000047,
      "v": 127
    },
    {
      "midi": 61,
      "hit": false,
      "t": 200999.7989999986,
      "d": 230.76900000000023,
      "v": 127
    },
    {
      "midi": 71,
      "hit": false,
      "t": 201230.5679999986,
      "d": 461.53800000000047,
      "v": 127
    },
    {
      "midi": 35,
      "hit": false,
      "t": 201230.56799999918,
      "d": 461.53800000000047,
      "v": 127
    },
    {
      "midi": 59,
      "hit": false,
      "t": 201692.1059999986,
      "d": 115.38449999998556,
      "v": 127
    },
    {
      "midi": 47,
      "hit": false,
      "t": 201692.10599999918,
      "d": 461.53800000000047,
      "v": 127
    },
    {
      "midi": 50,
      "hit": false,
      "t": 201692.10599999918,
      "d": 461.53800000000047,
      "v": 127
    },
    {
      "midi": 54,
      "hit": false,
      "t": 201692.10599999918,
      "d": 461.53800000000047,
      "v": 127
    },
    {
      "midi": 62,
      "hit": false,
      "t": 201807.4904999986,
      "d": 115.38449999998556,
      "v": 127
    },
    {
      "midi": 66,
      "hit": false,
      "t": 202038.25949999856,
      "d": 115.38449999998556,
      "v": 127
    },
    {
      "midi": 59,
      "hit": false,
      "t": 202153.64399999855,
      "d": 461.53800000000047,
      "v": 127
    },
    {
      "midi": 71,
      "hit": false,
      "t": 202615.18199999855,
      "d": 461.53800000000047,
      "v": 127
    },
    {
      "midi": 40,
      "hit": false,
      "t": 202615.1819999992,
      "d": 461.53800000000047,
      "v": 127
    },
    {
      "midi": 59,
      "hit": false,
      "t": 203076.71999999855,
      "d": 115.38449999998556,
      "v": 127
    },
    {
      "midi": 52,
      "hit": false,
      "t": 203076.7199999992,
      "d": 461.53800000000047,
      "v": 127
    },
    {
      "midi": 55,
      "hit": false,
      "t": 203076.7199999992,
      "d": 461.53800000000047,
      "v": 127
    },
    {
      "midi": 58,
      "hit": false,
      "t": 203076.7199999992,
      "d": 461.53800000000047,
      "v": 127
    },
    {
      "midi": 64,
      "hit": false,
      "t": 203192.10449999853,
      "d": 115.38449999998556,
      "v": 127
    },
    {
      "midi": 67,
      "hit": false,
      "t": 203422.8734999985,
      "d": 115.38449999998556,
      "v": 127
    },
    {
      "midi": 59,
      "hit": false,
      "t": 203538.2579999985,
      "d": 461.53800000000047,
      "v": 127
    },
    {
      "midi": 71,
      "hit": false,
      "t": 203999.7959999985,
      "d": 461.53800000000047,
      "v": 127
    },
    {
      "midi": 35,
      "hit": false,
      "t": 203999.7959999992,
      "d": 461.53800000000047,
      "v": 127
    },
    {
      "midi": 59,
      "hit": false,
      "t": 204461.3339999985,
      "d": 115.38449999998556,
      "v": 127
    },
    {
      "midi": 50,
      "hit": false,
      "t": 204461.3339999992,
      "d": 461.53800000000047,
      "v": 127
    },
    {
      "midi": 54,
      "hit": false,
      "t": 204461.3339999992,
      "d": 461.53800000000047,
      "v": 127
    },
    {
      "midi": 62,
      "hit": false,
      "t": 204576.71849999847,
      "d": 115.38449999998556,
      "v": 127
    },
    {
      "midi": 66,
      "hit": false,
      "t": 204807.48749999845,
      "d": 115.38449999998556,
      "v": 127
    },
    {
      "midi": 59,
      "hit": false,
      "t": 204922.87199999843,
      "d": 461.53800000000047,
      "v": 127
    },
    {
      "midi": 70,
      "hit": false,
      "t": 205384.40999999843,
      "d": 115.38449999998556,
      "v": 127
    },
    {
      "midi": 42,
      "hit": false,
      "t": 205384.4099999992,
      "d": 461.53800000000047,
      "v": 127
    },
    {
      "midi": 62,
      "hit": false,
      "t": 205499.79449999842,
      "d": 115.38449999998556,
      "v": 127
    },
    {
      "midi": 64,
      "hit": false,
      "t": 205730.5634999984,
      "d": 115.38449999998556,
      "v": 127
    },
    {
      "midi": 66,
      "hit": false,
      "t": 205845.94799999837,
      "d": 115.38449999998556,
      "v": 127
    },
    {
      "midi": 54,
      "hit": false,
      "t": 205845.9479999992,
      "d": 461.53800000000047,
      "v": 127
    },
    {
      "midi": 67,
      "hit": false,
      "t": 205961.33249999836,
      "d": 115.38449999998556,
      "v": 127
    },
    {
      "midi": 66,
      "hit": false,
      "t": 206192.10149999833,
      "d": 115.38449999998556,
      "v": 127
    },
    {
      "midi": 64,
      "hit": false,
      "t": 206307.48599999832,
      "d": 115.38449999998556,
      "v": 127
    },
    {
      "midi": 62,
      "hit": false,
      "t": 206422.8704999983,
      "d": 115.38449999998556,
      "v": 127
    },
    {
      "midi": 61,
      "hit": false,
      "t": 206653.63949999827,
      "d": 115.38449999998556,
      "v": 127
    },
    {
      "midi": 71,
      "hit": false,
      "t": 206769.02399999826,
      "d": 461.53800000000047,
      "v": 127
    },
    {
      "midi": 35,
      "hit": false,
      "t": 206769.0239999992,
      "d": 461.53800000000047,
      "v": 127
    },
    {
      "midi": 59,
      "hit": false,
      "t": 207230.56199999826,
      "d": 115.38449999998556,
      "v": 127
    },
    {
      "midi": 47,
      "hit": false,
      "t": 207230.5619999992,
      "d": 461.53800000000047,
      "v": 127
    },
    {
      "midi": 50,
      "hit": false,
      "t": 207230.5619999992,
      "d": 461.53800000000047,
      "v": 127
    },
    {
      "midi": 54,
      "hit": false,
      "t": 207230.5619999992,
      "d": 461.53800000000047,
      "v": 127
    },
    {
      "midi": 62,
      "hit": false,
      "t": 207345.94649999824,
      "d": 115.38449999998556,
      "v": 127
    },
    {
      "midi": 66,
      "hit": false,
      "t": 207576.71549999822,
      "d": 115.38449999998556,
      "v": 127
    },
    {
      "midi": 59,
      "hit": false,
      "t": 207692.0999999982,
      "d": 461.53800000000047,
      "v": 127
    },
    {
      "midi": 71,
      "hit": false,
      "t": 208153.6379999982,
      "d": 461.53800000000047,
      "v": 127
    },
    {
      "midi": 40,
      "hit": false,
      "t": 208153.6379999992,
      "d": 461.53800000000047,
      "v": 127
    },
    {
      "midi": 59,
      "hit": false,
      "t": 208615.1759999982,
      "d": 115.38449999998556,
      "v": 127
    },
    {
      "midi": 52,
      "hit": false,
      "t": 208615.1759999992,
      "d": 461.53800000000047,
      "v": 127
    },
    {
      "midi": 55,
      "hit": false,
      "t": 208615.1759999992,
      "d": 461.53800000000047,
      "v": 127
    },
    {
      "midi": 58,
      "hit": false,
      "t": 208615.1759999992,
      "d": 461.53800000000047,
      "v": 127
    },
    {
      "midi": 64,
      "hit": false,
      "t": 208730.5604999982,
      "d": 115.38449999998556,
      "v": 127
    },
    {
      "midi": 67,
      "hit": false,
      "t": 208961.32949999816,
      "d": 115.38449999998556,
      "v": 127
    },
    {
      "midi": 59,
      "hit": false,
      "t": 209076.71399999814,
      "d": 461.53800000000047,
      "v": 127
    },
    {
      "midi": 71,
      "hit": false,
      "t": 209538.25199999815,
      "d": 461.53800000000047,
      "v": 127
    },
    {
      "midi": 35,
      "hit": false,
      "t": 209538.2519999992,
      "d": 461.53800000000047,
      "v": 127
    },
    {
      "midi": 59,
      "hit": false,
      "t": 209999.78999999815,
      "d": 115.38449999998556,
      "v": 127
    },
    {
      "midi": 50,
      "hit": false,
      "t": 209999.7899999992,
      "d": 461.53800000000047,
      "v": 127
    },
    {
      "midi": 54,
      "hit": false,
      "t": 209999.7899999992,
      "d": 461.53800000000047,
      "v": 127
    },
    {
      "midi": 62,
      "hit": false,
      "t": 210115.17449999813,
      "d": 115.38449999998556,
      "v": 127
    },
    {
      "midi": 66,
      "hit": false,
      "t": 210345.9434999981,
      "d": 115.38449999998556,
      "v": 127
    },
    {
      "midi": 59,
      "hit": false,
      "t": 210461.3279999981,
      "d": 461.53800000000047,
      "v": 127
    },
    {
      "midi": 70,
      "hit": false,
      "t": 210922.8659999981,
      "d": 115.38449999998556,
      "v": 127
    },
    {
      "midi": 42,
      "hit": false,
      "t": 210922.8659999992,
      "d": 461.53800000000047,
      "v": 127
    },
    {
      "midi": 62,
      "hit": false,
      "t": 211038.25049999807,
      "d": 115.38449999998556,
      "v": 127
    },
    {
      "midi": 64,
      "hit": false,
      "t": 211269.01949999804,
      "d": 115.38449999998556,
      "v": 127
    },
    {
      "midi": 66,
      "hit": false,
      "t": 211384.40399999803,
      "d": 115.38449999998556,
      "v": 127
    },
    {
      "midi": 54,
      "hit": false,
      "t": 211384.4039999992,
      "d": 461.53800000000047,
      "v": 127
    },
    {
      "midi": 67,
      "hit": false,
      "t": 211499.78849999802,
      "d": 115.38449999998556,
      "v": 127
    },
    {
      "midi": 66,
      "hit": false,
      "t": 211730.557499998,
      "d": 115.38449999998556,
      "v": 127
    },
    {
      "midi": 64,
      "hit": false,
      "t": 211845.94199999797,
      "d": 115.38449999998556,
      "v": 127
    },
    {
      "midi": 62,
      "hit": false,
      "t": 211961.32649999796,
      "d": 115.38449999998556,
      "v": 127
    },
    {
      "midi": 61,
      "hit": false,
      "t": 212192.09549999793,
      "d": 115.38449999998556,
      "v": 127
    },
    {
      "midi": 71,
      "hit": false,
      "t": 212307.47999999792,
      "d": 461.53800000000047,
      "v": 127
    },
    {
      "midi": 35,
      "hit": false,
      "t": 212307.4799999992,
      "d": 461.53800000000047,
      "v": 127
    },
    {
      "midi": 59,
      "hit": false,
      "t": 212769.01799999792,
      "d": 115.38449999998556,
      "v": 127
    },
    {
      "midi": 47,
      "hit": false,
      "t": 212769.0179999992,
      "d": 461.53800000000047,
      "v": 127
    },
    {
      "midi": 50,
      "hit": false,
      "t": 212769.0179999992,
      "d": 461.53800000000047,
      "v": 127
    },
    {
      "midi": 54,
      "hit": false,
      "t": 212769.0179999992,
      "d": 461.53800000000047,
      "v": 127
    },
    {
      "midi": 62,
      "hit": false,
      "t": 212884.4024999979,
      "d": 115.38449999998556,
      "v": 127
    },
    {
      "midi": 66,
      "hit": false,
      "t": 213115.17149999787,
      "d": 115.38449999998556,
      "v": 127
    },
    {
      "midi": 59,
      "hit": false,
      "t": 213230.55599999786,
      "d": 461.53800000000047,
      "v": 127
    },
    {
      "midi": 71,
      "hit": false,
      "t": 213692.09399999786,
      "d": 461.53800000000047,
      "v": 127
    },
    {
      "midi": 35,
      "hit": false,
      "t": 213692.0939999992,
      "d": 461.53800000000047,
      "v": 127
    },
    {
      "midi": 59,
      "hit": false,
      "t": 214153.63199999786,
      "d": 115.38449999998556,
      "v": 127
    },
    {
      "midi": 47,
      "hit": false,
      "t": 214153.6319999992,
      "d": 461.53800000000047,
      "v": 127
    },
    {
      "midi": 50,
      "hit": false,
      "t": 214153.6319999992,
      "d": 461.53800000000047,
      "v": 127
    },
    {
      "midi": 54,
      "hit": false,
      "t": 214153.6319999992,
      "d": 461.53800000000047,
      "v": 127
    },
    {
      "midi": 62,
      "hit": false,
      "t": 214269.01649999784,
      "d": 115.38449999998556,
      "v": 127
    },
    {
      "midi": 66,
      "hit": false,
      "t": 214499.78549999782,
      "d": 115.38449999998556,
      "v": 127
    },
    {
      "midi": 59,
      "hit": false,
      "t": 214615.1699999978,
      "d": 461.53800000000047,
      "v": 127
    },
    {
      "midi": 71,
      "hit": false,
      "t": 215076.7079999978,
      "d": 461.53800000000047,
      "v": 127
    },
    {
      "midi": 35,
      "hit": false,
      "t": 215076.7079999992,
      "d": 461.53800000000047,
      "v": 127
    },
    {
      "midi": 59,
      "hit": false,
      "t": 215538.2459999978,
      "d": 115.38449999998556,
      "v": 127
    },
    {
      "midi": 47,
      "hit": false,
      "t": 215538.2459999992,
      "d": 461.53800000000047,
      "v": 127
    },
    {
      "midi": 50,
      "hit": false,
      "t": 215538.2459999992,
      "d": 461.53800000000047,
      "v": 127
    },
    {
      "midi": 54,
      "hit": false,
      "t": 215538.2459999992,
      "d": 461.53800000000047,
      "v": 127
    },
    {
      "midi": 62,
      "hit": false,
      "t": 215653.6304999978,
      "d": 115.38449999998556,
      "v": 127
    },
    {
      "midi": 66,
      "hit": false,
      "t": 215884.39949999776,
      "d": 115.38449999998556,
      "v": 127
    },
    {
      "midi": 59,
      "hit": false,
      "t": 215999.78399999774,
      "d": 461.53800000000047,
      "v": 127
    },
    {
      "midi": 62,
      "hit": false,
      "t": 216461.32199999774,
      "d": 115.38449999998556,
      "v": 127
    },
    {
      "midi": 35,
      "hit": false,
      "t": 216461.3219999992,
      "d": 461.53800000000047,
      "v": 127
    },
    {
      "midi": 66,
      "hit": false,
      "t": 216576.70649999773,
      "d": 115.38449999998556,
      "v": 127
    },
    {
      "midi": 71,
      "hit": false,
      "t": 216807.4754999977,
      "d": 115.38449999998556,
      "v": 127
    },
    {
      "midi": 59,
      "hit": false,
      "t": 216922.8599999977,
      "d": 461.53800000000047,
      "v": 127
    },
    {
      "midi": 47,
      "hit": false,
      "t": 216922.8599999992,
      "d": 461.53800000000047,
      "v": 127
    },
    {
      "midi": 50,
      "hit": false,
      "t": 216922.8599999992,
      "d": 461.53800000000047,
      "v": 127
    },
    {
      "midi": 54,
      "hit": false,
      "t": 216922.8599999992,
      "d": 461.53800000000047,
      "v": 127
    },
    {
      "midi": 62,
      "hit": false,
      "t": 217384.3979999977,
      "d": 115.38449999998556,
      "v": 127
    },
    {
      "midi": 35,
      "hit": false,
      "t": 217384.3979999992,
      "d": 461.53800000000047,
      "v": 127
    },
    {
      "midi": 66,
      "hit": false,
      "t": 217499.78249999767,
      "d": 115.38449999998556,
      "v": 127
    },
    {
      "midi": 71,
      "hit": false,
      "t": 217730.55149999764,
      "d": 115.38449999998556,
      "v": 127
    },
    {
      "midi": 59,
      "hit": false,
      "t": 217845.93599999763,
      "d": 461.53800000000047,
      "v": 127
    },
    {
      "midi": 47,
      "hit": false,
      "t": 217845.9359999992,
      "d": 461.53800000000047,
      "v": 127
    },
    {
      "midi": 50,
      "hit": false,
      "t": 217845.9359999992,
      "d": 461.53800000000047,
      "v": 127
    },
    {
      "midi": 54,
      "hit": false,
      "t": 217845.9359999992,
      "d": 461.53800000000047,
      "v": 127
    },
    {
      "midi": 62,
      "hit": false,
      "t": 218307.47399999763,
      "d": 115.38449999998556,
      "v": 127
    },
    {
      "midi": 35,
      "hit": false,
      "t": 218307.4739999992,
      "d": 461.53800000000047,
      "v": 127
    },
    {
      "midi": 66,
      "hit": false,
      "t": 218422.85849999762,
      "d": 115.38449999998556,
      "v": 127
    },
    {
      "midi": 71,
      "hit": false,
      "t": 218653.6274999976,
      "d": 115.38449999998556,
      "v": 127
    },
    {
      "midi": 59,
      "hit": false,
      "t": 218769.01199999757,
      "d": 461.53800000000047,
      "v": 127
    },
    {
      "midi": 47,
      "hit": false,
      "t": 218769.0119999992,
      "d": 461.53800000000047,
      "v": 127
    },
    {
      "midi": 50,
      "hit": false,
      "t": 218769.0119999992,
      "d": 461.53800000000047,
      "v": 127
    },
    {
      "midi": 54,
      "hit": false,
      "t": 218769.0119999992,
      "d": 461.53800000000047,
      "v": 127
    },
    {
      "midi": 70,
      "hit": false,
      "t": 219230.54999999757,
      "d": 461.53800000000047,
      "v": 127
    },
    {
      "midi": 34,
      "hit": false,
      "t": 219230.5499999992,
      "d": 461.53800000000047,
      "v": 127
    },
    {
      "midi": 58,
      "hit": false,
      "t": 219692.08799999757,
      "d": 115.38449999998556,
      "v": 127
    },
    {
      "midi": 46,
      "hit": false,
      "t": 219692.0879999992,
      "d": 461.53800000000047,
      "v": 127
    },
    {
      "midi": 51,
      "hit": false,
      "t": 219692.0879999992,
      "d": 461.53800000000047,
      "v": 127
    },
    {
      "midi": 54,
      "hit": false,
      "t": 219692.0879999992,
      "d": 461.53800000000047,
      "v": 127
    },
    {
      "midi": 63,
      "hit": false,
      "t": 219807.47249999756,
      "d": 115.38449999998556,
      "v": 127
    },
    {
      "midi": 66,
      "hit": false,
      "t": 220038.24149999753,
      "d": 115.38449999998556,
      "v": 127
    },
    {
      "midi": 58,
      "hit": false,
      "t": 220153.62599999752,
      "d": 461.53800000000047,
      "v": 127
    },
    {
      "midi": 70,
      "hit": false,
      "t": 220615.16399999752,
      "d": 461.53800000000047,
      "v": 127
    },
    {
      "midi": 34,
      "hit": false,
      "t": 220615.1639999992,
      "d": 461.53800000000047,
      "v": 127
    },
    {
      "midi": 58,
      "hit": false,
      "t": 221076.70199999752,
      "d": 115.38449999998556,
      "v": 127
    },
    {
      "midi": 46,
      "hit": false,
      "t": 221076.7019999992,
      "d": 461.53800000000047,
      "v": 127
    },
    {
      "midi": 51,
      "hit": false,
      "t": 221076.7019999992,
      "d": 461.53800000000047,
      "v": 127
    },
    {
      "midi": 54,
      "hit": false,
      "t": 221076.7019999992,
      "d": 461.53800000000047,
      "v": 127
    },
    {
      "midi": 63,
      "hit": false,
      "t": 221192.0864999975,
      "d": 115.38449999998556,
      "v": 127
    },
    {
      "midi": 66,
      "hit": false,
      "t": 221422.85549999747,
      "d": 115.38449999998556,
      "v": 127
    },
    {
      "midi": 58,
      "hit": false,
      "t": 221538.23999999746,
      "d": 461.53800000000047,
      "v": 127
    },
    {
      "midi": 63,
      "hit": false,
      "t": 221999.77799999746,
      "d": 115.38449999998556,
      "v": 127
    },
    {
      "midi": 34,
      "hit": false,
      "t": 221999.7779999992,
      "d": 461.53800000000047,
      "v": 127
    },
    {
      "midi": 66,
      "hit": false,
      "t": 222115.16249999744,
      "d": 115.38449999998556,
      "v": 127
    },
    {
      "midi": 70,
      "hit": false,
      "t": 222345.93149999742,
      "d": 115.38449999998556,
      "v": 127
    },
    {
      "midi": 58,
      "hit": false,
      "t": 222461.3159999974,
      "d": 461.53800000000047,
      "v": 127
    },
    {
      "midi": 46,
      "hit": false,
      "t": 222461.3159999992,
      "d": 461.53800000000047,
      "v": 127
    },
    {
      "midi": 51,
      "hit": false,
      "t": 222461.3159999992,
      "d": 461.53800000000047,
      "v": 127
    },
    {
      "midi": 54,
      "hit": false,
      "t": 222461.3159999992,
      "d": 461.53800000000047,
      "v": 127
    },
    {
      "midi": 63,
      "hit": false,
      "t": 222922.8539999974,
      "d": 115.38449999998556,
      "v": 127
    },
    {
      "midi": 34,
      "hit": false,
      "t": 222922.8539999992,
      "d": 461.53800000000047,
      "v": 127
    },
    {
      "midi": 66,
      "hit": false,
      "t": 223038.2384999974,
      "d": 115.38449999998556,
      "v": 127
    },
    {
      "midi": 70,
      "hit": false,
      "t": 223269.00749999736,
      "d": 115.38449999998556,
      "v": 127
    },
    {
      "midi": 58,
      "hit": false,
      "t": 223384.39199999734,
      "d": 461.53800000000047,
      "v": 127
    },
    {
      "midi": 46,
      "hit": false,
      "t": 223384.3919999992,
      "d": 461.53800000000047,
      "v": 127
    },
    {
      "midi": 51,
      "hit": false,
      "t": 223384.3919999992,
      "d": 461.53800000000047,
      "v": 127
    },
    {
      "midi": 54,
      "hit": false,
      "t": 223384.3919999992,
      "d": 461.53800000000047,
      "v": 127
    },
    {
      "midi": 63,
      "hit": false,
      "t": 223845.92999999734,
      "d": 115.38449999998556,
      "v": 127
    },
    {
      "midi": 34,
      "hit": false,
      "t": 223845.9299999992,
      "d": 461.53800000000047,
      "v": 127
    },
    {
      "midi": 66,
      "hit": false,
      "t": 223961.31449999733,
      "d": 115.38449999998556,
      "v": 127
    },
    {
      "midi": 70,
      "hit": false,
      "t": 224192.0834999973,
      "d": 115.38449999998556,
      "v": 127
    },
    {
      "midi": 58,
      "hit": false,
      "t": 224307.4679999973,
      "d": 461.53800000000047,
      "v": 127
    },
    {
      "midi": 46,
      "hit": false,
      "t": 224307.4679999992,
      "d": 461.53800000000047,
      "v": 127
    },
    {
      "midi": 51,
      "hit": false,
      "t": 224307.4679999992,
      "d": 461.53800000000047,
      "v": 127
    },
    {
      "midi": 54,
      "hit": false,
      "t": 224307.4679999992,
      "d": 461.53800000000047,
      "v": 127
    },
    {
      "midi": 63,
      "hit": false,
      "t": 224769.0059999973,
      "d": 923.0760000000009,
      "v": 127
    },
    {
      "midi": 75,
      "hit": false,
      "t": 224769.0059999973,
      "d": 923.0760000000009,
      "v": 127
    },
    {
      "midi": 32,
      "hit": false,
      "t": 224769.0059999992,
      "d": 461.53800000000047,
      "v": 127
    },
    {
      "midi": 44,
      "hit": false,
      "t": 224769.0059999992,
      "d": 461.53800000000047,
      "v": 127
    },
    {
      "midi": 44,
      "hit": false,
      "t": 225230.5439999992,
      "d": 461.53800000000047,
      "v": 127
    },
    {
      "midi": 47,
      "hit": false,
      "t": 225230.5439999992,
      "d": 461.53800000000047,
      "v": 127
    },
    {
      "midi": 51,
      "hit": false,
      "t": 225230.5439999992,
      "d": 461.53800000000047,
      "v": 127
    },
    {
      "midi": 53,
      "hit": false,
      "t": 225230.5439999992,
      "d": 461.53800000000047,
      "v": 127
    },
    {
      "midi": 75,
      "hit": false,
      "t": 225692.0819999973,
      "d": 923.0760000000009,
      "v": 127
    },
    {
      "midi": 87,
      "hit": false,
      "t": 225692.0819999973,
      "d": 923.0760000000009,
      "v": 127
    },
    {
      "midi": 44,
      "hit": false,
      "t": 226153.6199999992,
      "d": 923.0760000000009,
      "v": 127
    },
    {
      "midi": 47,
      "hit": false,
      "t": 226153.6199999992,
      "d": 923.0760000000009,
      "v": 127
    },
    {
      "midi": 51,
      "hit": false,
      "t": 226153.6199999992,
      "d": 923.0760000000009,
      "v": 127
    },
    {
      "midi": 53,
      "hit": false,
      "t": 226153.6199999992,
      "d": 923.0760000000009,
      "v": 127
    },
    {
      "midi": 71,
      "hit": false,
      "t": 226615.1579999973,
      "d": 461.53800000000047,
      "v": 127
    },
    {
      "midi": 83,
      "hit": false,
      "t": 226615.1579999973,
      "d": 461.53800000000047,
      "v": 127
    },
    {
      "midi": 44,
      "hit": false,
      "t": 227076.6959999992,
      "d": 461.53800000000047,
      "v": 127
    },
    {
      "midi": 47,
      "hit": false,
      "t": 227076.6959999992,
      "d": 461.53800000000047,
      "v": 127
    },
    {
      "midi": 51,
      "hit": false,
      "t": 227076.6959999992,
      "d": 461.53800000000047,
      "v": 127
    },
    {
      "midi": 53,
      "hit": false,
      "t": 227076.6959999992,
      "d": 461.53800000000047,
      "v": 127
    },
    {
      "midi": 80,
      "hit": false,
      "t": 227538.2339999973,
      "d": 115.38449999998556,
      "v": 127
    },
    {
      "midi": 46,
      "hit": false,
      "t": 227538.2339999992,
      "d": 923.0760000000009,
      "v": 127
    },
    {
      "midi": 53,
      "hit": false,
      "t": 227538.2339999992,
      "d": 923.0760000000009,
      "v": 127
    },
    {
      "midi": 56,
      "hit": false,
      "t": 227538.2339999992,
      "d": 923.0760000000009,
      "v": 127
    },
    {
      "midi": 59,
      "hit": false,
      "t": 227538.2339999992,
      "d": 923.0760000000009,
      "v": 127
    },
    {
      "midi": 83,
      "hit": false,
      "t": 227653.61849999728,
      "d": 115.38449999998556,
      "v": 127
    },
    {
      "midi": 80,
      "hit": false,
      "t": 227884.38749999725,
      "d": 115.38449999998556,
      "v": 127
    },
    {
      "midi": 83,
      "hit": false,
      "t": 227999.77199999723,
      "d": 115.38449999998556,
      "v": 127
    },
    {
      "midi": 80,
      "hit": false,
      "t": 228115.15649999722,
      "d": 115.38449999998556,
      "v": 127
    },
    {
      "midi": 83,
      "hit": false,
      "t": 228345.9254999972,
      "d": 115.38449999998556,
      "v": 127
    },
    {
      "midi": 80,
      "hit": false,
      "t": 228461.30999999717,
      "d": 115.38449999998556,
      "v": 127
    },
    {
      "midi": 83,
      "hit": false,
      "t": 228576.69449999716,
      "d": 115.38449999998556,
      "v": 127
    },
    {
      "midi": 80,
      "hit": false,
      "t": 228807.46349999713,
      "d": 115.38449999998556,
      "v": 127
    },
    {
      "midi": 83,
      "hit": false,
      "t": 228922.84799999712,
      "d": 115.38449999998556,
      "v": 127
    },
    {
      "midi": 80,
      "hit": false,
      "t": 229038.2324999971,
      "d": 115.38449999998556,
      "v": 127
    },
    {
      "midi": 83,
      "hit": false,
      "t": 229269.00149999707,
      "d": 115.38449999998556,
      "v": 127
    },
    {
      "midi": 80,
      "hit": false,
      "t": 229384.38599999706,
      "d": 115.38449999998556,
      "v": 127
    },
    {
      "midi": 83,
      "hit": false,
      "t": 229499.77049999704,
      "d": 115.38449999998556,
      "v": 127
    },
    {
      "midi": 80,
      "hit": false,
      "t": 229730.53949999702,
      "d": 115.38449999998556,
      "v": 127
    },
    {
      "midi": 83,
      "hit": false,
      "t": 229845.923999997,
      "d": 115.38449999998556,
      "v": 127
    },
    {
      "midi": 80,
      "hit": false,
      "t": 229961.308499997,
      "d": 115.38449999998556,
      "v": 127
    },
    {
      "midi": 83,
      "hit": false,
      "t": 230192.07749999696,
      "d": 115.38449999998556,
      "v": 127
    },
    {
      "midi": 80,
      "hit": false,
      "t": 230307.46199999694,
      "d": 115.38449999998556,
      "v": 127
    },
    {
      "midi": 46,
      "hit": false,
      "t": 230307.4619999992,
      "d": 923.0760000000009,
      "v": 127
    },
    {
      "midi": 53,
      "hit": false,
      "t": 230307.4619999992,
      "d": 923.0760000000009,
      "v": 127
    },
    {
      "midi": 56,
      "hit": false,
      "t": 230307.4619999992,
      "d": 923.0760000000009,
      "v": 127
    },
    {
      "midi": 58,
      "hit": false,
      "t": 230307.4619999992,
      "d": 923.0760000000009,
      "v": 127
    },
    {
      "midi": 82,
      "hit": false,
      "t": 230422.84649999693,
      "d": 115.38449999998556,
      "v": 127
    },
    {
      "midi": 80,
      "hit": false,
      "t": 230653.6154999969,
      "d": 115.38449999998556,
      "v": 127
    },
    {
      "midi": 82,
      "hit": false,
      "t": 230768.9999999969,
      "d": 115.38449999998556,
      "v": 127
    },
    {
      "midi": 80,
      "hit": false,
      "t": 230884.38449999687,
      "d": 115.38449999998556,
      "v": 127
    },
    {
      "midi": 82,
      "hit": false,
      "t": 231115.15349999684,
      "d": 115.38449999998556,
      "v": 127
    },
    {
      "midi": 80,
      "hit": false,
      "t": 231230.53799999683,
      "d": 115.38449999998556,
      "v": 127
    },
    {
      "midi": 82,
      "hit": false,
      "t": 231345.9224999968,
      "d": 115.38449999998556,
      "v": 127
    },
    {
      "midi": 80,
      "hit": false,
      "t": 231576.69149999678,
      "d": 115.38449999998556,
      "v": 127
    },
    {
      "midi": 82,
      "hit": false,
      "t": 231692.07599999677,
      "d": 115.38449999998556,
      "v": 127
    },
    {
      "midi": 80,
      "hit": false,
      "t": 231807.46049999676,
      "d": 115.38449999998556,
      "v": 127
    },
    {
      "midi": 82,
      "hit": false,
      "t": 232038.22949999673,
      "d": 115.38449999998556,
      "v": 127
    },
    {
      "midi": 80,
      "hit": false,
      "t": 232153.6139999967,
      "d": 115.38449999998556,
      "v": 127
    },
    {
      "midi": 82,
      "hit": false,
      "t": 232268.9984999967,
      "d": 115.38449999998556,
      "v": 127
    },
    {
      "midi": 80,
      "hit": false,
      "t": 232499.76749999667,
      "d": 115.38449999998556,
      "v": 127
    },
    {
      "midi": 82,
      "hit": false,
      "t": 232615.15199999665,
      "d": 115.38449999998556,
      "v": 127
    },
    {
      "midi": 80,
      "hit": false,
      "t": 232730.53649999664,
      "d": 115.38449999998556,
      "v": 127
    },
    {
      "midi": 82,
      "hit": false,
      "t": 232961.3054999966,
      "d": 115.38449999998556,
      "v": 127
    },
    {
      "midi": 79,
      "hit": false,
      "t": 233076.6899999966,
      "d": 115.38449999998556,
      "v": 127
    },
    {
      "midi": 51,
      "hit": false,
      "t": 233076.68999999922,
      "d": 461.53800000000047,
      "v": 127
    },
    {
      "midi": 82,
      "hit": false,
      "t": 233192.07449999658,
      "d": 115.38449999998556,
      "v": 127
    },
    {
      "midi": 80,
      "hit": false,
      "t": 233422.84349999655,
      "d": 115.38449999998556,
      "v": 127
    },
    {
      "midi": 79,
      "hit": false,
      "t": 233538.22799999654,
      "d": 115.38449999998556,
      "v": 127
    },
    {
      "midi": 58,
      "hit": false,
      "t": 233538.22799999922,
      "d": 461.53800000000047,
      "v": 127
    },
    {
      "midi": 77,
      "hit": false,
      "t": 233653.61249999653,
      "d": 115.38449999998556,
      "v": 127
    },
    {
      "midi": 75,
      "hit": false,
      "t": 233884.3814999965,
      "d": 115.38449999998556,
      "v": 127
    },
    {
      "midi": 74,
      "hit": false,
      "t": 233999.76599999648,
      "d": 115.38449999998556,
      "v": 127
    },
    {
      "midi": 72,
      "hit": false,
      "t": 234115.15049999647,
      "d": 115.38449999998556,
      "v": 127
    },
    {
      "midi": 70,
      "hit": false,
      "t": 234345.91949999644,
      "d": 115.38449999998556,
      "v": 127
    },
    {
      "midi": 68,
      "hit": false,
      "t": 234461.30399999642,
      "d": 115.38449999998556,
      "v": 127
    },
    {
      "midi": 53,
      "hit": false,
      "t": 234461.30399999922,
      "d": 461.53800000000047,
      "v": 127
    },
    {
      "midi": 67,
      "hit": false,
      "t": 234576.6884999964,
      "d": 115.38449999998556,
      "v": 127
    },
    {
      "midi": 65,
      "hit": false,
      "t": 234807.45749999638,
      "d": 115.38449999998556,
      "v": 127
    },
    {
      "midi": 63,
      "hit": false,
      "t": 234922.84199999637,
      "d": 115.38449999998556,
      "v": 127
    },
    {
      "midi": 58,
      "hit": false,
      "t": 234922.84199999922,
      "d": 461.53800000000047,
      "v": 127
    },
    {
      "midi": 62,
      "hit": false,
      "t": 235038.22649999635,
      "d": 115.38449999998556,
      "v": 127
    },
    {
      "midi": 60,
      "hit": false,
      "t": 235268.99549999632,
      "d": 115.38449999998556,
      "v": 127
    },
    {
      "midi": 58,
      "hit": false,
      "t": 235384.3799999963,
      "d": 115.38449999998556,
      "v": 127
    },
    {
      "midi": 60,
      "hit": false,
      "t": 235499.7644999963,
      "d": 115.38449999998556,
      "v": 127
    },
    {
      "midi": 62,
      "hit": false,
      "t": 235730.53349999627,
      "d": 115.38449999998556,
      "v": 127
    },
    {
      "midi": 63,
      "hit": false,
      "t": 235845.91799999625,
      "d": 115.38449999998556,
      "v": 127
    },
    {
      "midi": 55,
      "hit": false,
      "t": 235845.91799999922,
      "d": 461.53800000000047,
      "v": 127
    },
    {
      "midi": 62,
      "hit": false,
      "t": 235961.30249999624,
      "d": 115.38449999998556,
      "v": 127
    },
    {
      "midi": 63,
      "hit": false,
      "t": 236192.0714999962,
      "d": 115.38449999998556,
      "v": 127
    },
    {
      "midi": 64,
      "hit": false,
      "t": 236307.4559999962,
      "d": 115.38449999998556,
      "v": 127
    },
    {
      "midi": 58,
      "hit": false,
      "t": 236307.45599999922,
      "d": 461.53800000000047,
      "v": 127
    },
    {
      "midi": 63,
      "hit": false,
      "t": 236422.84049999618,
      "d": 115.38449999998556,
      "v": 127
    },
    {
      "midi": 64,
      "hit": false,
      "t": 236653.60949999615,
      "d": 115.38449999998556,
      "v": 127
    },
    {
      "midi": 65,
      "hit": false,
      "t": 236768.99399999614,
      "d": 115.38449999998556,
      "v": 127
    },
    {
      "midi": 64,
      "hit": false,
      "t": 236884.37849999612,
      "d": 115.38449999998556,
      "v": 127
    },
    {
      "midi": 65,
      "hit": false,
      "t": 237115.1474999961,
      "d": 115.38449999998556,
      "v": 127
    },
    {
      "midi": 66,
      "hit": false,
      "t": 237230.53199999608,
      "d": 115.38449999998556,
      "v": 127
    },
    {
      "midi": 50,
      "hit": false,
      "t": 237230.53199999922,
      "d": 461.53800000000047,
      "v": 127
    },
    {
      "midi": 65,
      "hit": false,
      "t": 237345.91649999606,
      "d": 115.38449999998556,
      "v": 127
    },
    {
      "midi": 66,
      "hit": false,
      "t": 237576.68549999603,
      "d": 115.38449999998556,
      "v": 127
    },
    {
      "midi": 67,
      "hit": false,
      "t": 237692.06999999602,
      "d": 115.38449999998556,
      "v": 127
    },
    {
      "midi": 58,
      "hit": false,
      "t": 237692.06999999922,
      "d": 461.53800000000047,
      "v": 127
    },
    {
      "midi": 66,
      "hit": false,
      "t": 237807.454499996,
      "d": 115.38449999998556,
      "v": 127
    },
    {
      "midi": 67,
      "hit": false,
      "t": 238038.22349999598,
      "d": 115.38449999998556,
      "v": 127
    },
    {
      "midi": 68,
      "hit": false,
      "t": 238153.60799999596,
      "d": 115.38449999998556,
      "v": 127
    },
    {
      "midi": 67,
      "hit": false,
      "t": 238268.99249999595,
      "d": 115.38449999998556,
      "v": 127
    },
    {
      "midi": 68,
      "hit": false,
      "t": 238499.76149999592,
      "d": 115.38449999998556,
      "v": 127
    },
    {
      "midi": 67,
      "hit": false,
      "t": 238615.1459999959,
      "d": 115.38449999998556,
      "v": 127
    },
    {
      "midi": 51,
      "hit": false,
      "t": 238615.14599999922,
      "d": 461.53800000000047,
      "v": 127
    },
    {
      "midi": 70,
      "hit": false,
      "t": 238730.5304999959,
      "d": 115.38449999998556,
      "v": 127
    },
    {
      "midi": 68,
      "hit": false,
      "t": 238961.29949999586,
      "d": 115.38449999998556,
      "v": 127
    },
    {
      "midi": 67,
      "hit": false,
      "t": 239076.68399999585,
      "d": 115.38449999998556,
      "v": 127
    },
    {
      "midi": 58,
      "hit": false,
      "t": 239076.68399999922,
      "d": 461.53800000000047,
      "v": 127
    },
    {
      "midi": 68,
      "hit": false,
      "t": 239192.06849999583,
      "d": 115.38449999998556,
      "v": 127
    },
    {
      "midi": 70,
      "hit": false,
      "t": 239422.8374999958,
      "d": 115.38449999998556,
      "v": 127
    },
    {
      "midi": 72,
      "hit": false,
      "t": 239538.2219999958,
      "d": 115.38449999998556,
      "v": 127
    },
    {
      "midi": 74,
      "hit": false,
      "t": 239653.60649999577,
      "d": 115.38449999998556,
      "v": 127
    },
    {
      "midi": 75,
      "hit": false,
      "t": 239884.37549999575,
      "d": 115.38449999998556,
      "v": 127
    },
    {
      "midi": 77,
      "hit": false,
      "t": 239999.75999999573,
      "d": 115.38449999998556,
      "v": 127
    },
    {
      "midi": 44,
      "hit": false,
      "t": 239999.75999999922,
      "d": 461.53800000000047,
      "v": 127
    },
    {
      "midi": 84,
      "hit": false,
      "t": 240115.14449999572,
      "d": 115.38449999998556,
      "v": 127
    },
    {
      "midi": 82,
      "hit": false,
      "t": 240345.9134999957,
      "d": 115.38449999998556,
      "v": 127
    },
    {
      "midi": 80,
      "hit": false,
      "t": 240461.29799999567,
      "d": 115.38449999998556,
      "v": 127
    },
    {
      "midi": 56,
      "hit": false,
      "t": 240461.29799999922,
      "d": 461.53800000000047,
      "v": 127
    },
    {
      "midi": 60,
      "hit": false,
      "t": 240461.29799999922,
      "d": 461.53800000000047,
      "v": 127
    },
    {
      "midi": 79,
      "hit": false,
      "t": 240576.68249999566,
      "d": 115.38449999998556,
      "v": 127
    },
    {
      "midi": 77,
      "hit": false,
      "t": 240807.45149999563,
      "d": 115.38449999998556,
      "v": 127
    },
    {
      "midi": 75,
      "hit": false,
      "t": 240922.83599999562,
      "d": 115.38449999998556,
      "v": 127
    },
    {
      "midi": 74,
      "hit": false,
      "t": 241038.2204999956,
      "d": 115.38449999998556,
      "v": 127
    },
    {
      "midi": 72,
      "hit": false,
      "t": 241268.98949999557,
      "d": 115.38449999998556,
      "v": 127
    },
    {
      "midi": 70,
      "hit": false,
      "t": 241384.37399999556,
      "d": 115.38449999998556,
      "v": 127
    },
    {
      "midi": 46,
      "hit": false,
      "t": 241384.37399999922,
      "d": 461.53800000000047,
      "v": 127
    },
    {
      "midi": 77,
      "hit": false,
      "t": 241499.75849999554,
      "d": 115.38449999998556,
      "v": 127
    },
    {
      "midi": 75,
      "hit": false,
      "t": 241730.5274999955,
      "d": 115.38449999998556,
      "v": 127
    },
    {
      "midi": 74,
      "hit": false,
      "t": 241845.9119999955,
      "d": 115.38449999998556,
      "v": 127
    },
    {
      "midi": 56,
      "hit": false,
      "t": 241845.91199999923,
      "d": 461.53800000000047,
      "v": 127
    },
    {
      "midi": 58,
      "hit": false,
      "t": 241845.91199999923,
      "d": 461.53800000000047,
      "v": 127
    },
    {
      "midi": 62,
      "hit": false,
      "t": 241845.91199999923,
      "d": 461.53800000000047,
      "v": 127
    },
    {
      "midi": 72,
      "hit": false,
      "t": 241961.2964999955,
      "d": 115.38449999998556,
      "v": 127
    },
    {
      "midi": 70,
      "hit": false,
      "t": 242192.06549999546,
      "d": 115.38449999998556,
      "v": 127
    },
    {
      "midi": 68,
      "hit": false,
      "t": 242307.44999999544,
      "d": 115.38449999998556,
      "v": 127
    },
    {
      "midi": 67,
      "hit": false,
      "t": 242422.83449999543,
      "d": 115.38449999998556,
      "v": 127
    },
    {
      "midi": 65,
      "hit": false,
      "t": 242653.6034999954,
      "d": 115.38449999998556,
      "v": 127
    },
    {
      "midi": 63,
      "hit": false,
      "t": 242768.98799999538,
      "d": 115.38449999998556,
      "v": 127
    },
    {
      "midi": 51,
      "hit": false,
      "t": 242768.98799999923,
      "d": 461.53800000000047,
      "v": 127
    },
    {
      "midi": 65,
      "hit": false,
      "t": 242884.37249999537,
      "d": 115.38449999998556,
      "v": 127
    },
    {
      "midi": 67,
      "hit": false,
      "t": 243115.14149999534,
      "d": 115.38449999998556,
      "v": 127
    },
    {
      "midi": 68,
      "hit": false,
      "t": 243230.52599999533,
      "d": 115.38449999998556,
      "v": 127
    },
    {
      "midi": 55,
      "hit": false,
      "t": 243230.52599999923,
      "d": 461.53800000000047,
      "v": 127
    },
    {
      "midi": 58,
      "hit": false,
      "t": 243230.52599999923,
      "d": 461.53800000000047,
      "v": 127
    },
    {
      "midi": 63,
      "hit": false,
      "t": 243230.52599999923,
      "d": 461.53800000000047,
      "v": 127
    },
    {
      "midi": 70,
      "hit": false,
      "t": 243345.9104999953,
      "d": 115.38449999998556,
      "v": 127
    },
    {
      "midi": 72,
      "hit": false,
      "t": 243576.67949999528,
      "d": 115.38449999998556,
      "v": 127
    },
    {
      "midi": 74,
      "hit": false,
      "t": 243692.06399999527,
      "d": 115.38449999998556,
      "v": 127
    },
    {
      "midi": 75,
      "hit": false,
      "t": 243807.44849999525,
      "d": 115.38449999998556,
      "v": 127
    },
    {
      "midi": 77,
      "hit": false,
      "t": 244038.21749999523,
      "d": 115.38449999998556,
      "v": 127
    },
    {
      "midi": 79,
      "hit": false,
      "t": 244153.6019999952,
      "d": 115.38449999998556,
      "v": 127
    },
    {
      "midi": 51,
      "hit": false,
      "t": 244153.60199999923,
      "d": 461.53800000000047,
      "v": 127
    },
    {
      "midi": 82,
      "hit": false,
      "t": 244268.9864999952,
      "d": 115.38449999998556,
      "v": 127
    },
    {
      "midi": 80,
      "hit": false,
      "t": 244499.75549999517,
      "d": 115.38449999998556,
      "v": 127
    },
    {
      "midi": 79,
      "hit": false,
      "t": 244615.13999999515,
      "d": 115.38449999998556,
      "v": 127
    },
    {
      "midi": 58,
      "hit": false,
      "t": 244615.13999999923,
      "d": 461.53800000000047,
      "v": 127
    },
    {
      "midi": 77,
      "hit": false,
      "t": 244730.52449999514,
      "d": 115.38449999998556,
      "v": 127
    },
    {
      "midi": 75,
      "hit": false,
      "t": 244961.2934999951,
      "d": 115.38449999998556,
      "v": 127
    },
    {
      "midi": 74,
      "hit": false,
      "t": 245076.6779999951,
      "d": 115.38449999998556,
      "v": 127
    },
    {
      "midi": 72,
      "hit": false,
      "t": 245192.06249999508,
      "d": 115.38449999998556,
      "v": 127
    },
    {
      "midi": 70,
      "hit": false,
      "t": 245422.83149999505,
      "d": 115.38449999998556,
      "v": 127
    },
    {
      "midi": 68,
      "hit": false,
      "t": 245538.21599999504,
      "d": 115.38449999998556,
      "v": 127
    },
    {
      "midi": 53,
      "hit": false,
      "t": 245538.21599999923,
      "d": 461.53800000000047,
      "v": 127
    },
    {
      "midi": 67,
      "hit": false,
      "t": 245653.60049999502,
      "d": 115.38449999998556,
      "v": 127
    },
    {
      "midi": 65,
      "hit": false,
      "t": 245884.369499995,
      "d": 115.38449999998556,
      "v": 127
    },
    {
      "midi": 63,
      "hit": false,
      "t": 245999.75399999498,
      "d": 115.38449999998556,
      "v": 127
    },
    {
      "midi": 58,
      "hit": false,
      "t": 245999.75399999923,
      "d": 461.53800000000047,
      "v": 127
    },
    {
      "midi": 62,
      "hit": false,
      "t": 246115.13849999497,
      "d": 115.38449999998556,
      "v": 127
    },
    {
      "midi": 60,
      "hit": false,
      "t": 246345.90749999494,
      "d": 115.38449999998556,
      "v": 127
    },
    {
      "midi": 58,
      "hit": false,
      "t": 246461.29199999492,
      "d": 115.38449999998556,
      "v": 127
    },
    {
      "midi": 60,
      "hit": false,
      "t": 246576.6764999949,
      "d": 115.38449999998556,
      "v": 127
    },
    {
      "midi": 62,
      "hit": false,
      "t": 246807.44549999488,
      "d": 115.38449999998556,
      "v": 127
    },
    {
      "midi": 63,
      "hit": false,
      "t": 246922.82999999486,
      "d": 115.38449999998556,
      "v": 127
    },
    {
      "midi": 55,
      "hit": false,
      "t": 246922.82999999923,
      "d": 461.53800000000047,
      "v": 127
    },
    {
      "midi": 62,
      "hit": false,
      "t": 247038.21449999485,
      "d": 115.38449999998556,
      "v": 127
    },
    {
      "midi": 63,
      "hit": false,
      "t": 247268.98349999482,
      "d": 115.38449999998556,
      "v": 127
    },
    {
      "midi": 64,
      "hit": false,
      "t": 247384.3679999948,
      "d": 115.38449999998556,
      "v": 127
    },
    {
      "midi": 58,
      "hit": false,
      "t": 247384.36799999923,
      "d": 461.53800000000047,
      "v": 127
    },
    {
      "midi": 63,
      "hit": false,
      "t": 247499.7524999948,
      "d": 115.38449999998556,
      "v": 127
    },
    {
      "midi": 64,
      "hit": false,
      "t": 247730.52149999476,
      "d": 115.38449999998556,
      "v": 127
    },
    {
      "midi": 65,
      "hit": false,
      "t": 247845.90599999475,
      "d": 115.38449999998556,
      "v": 127
    },
    {
      "midi": 64,
      "hit": false,
      "t": 247961.29049999474,
      "d": 115.38449999998556,
      "v": 127
    },
    {
      "midi": 65,
      "hit": false,
      "t": 248192.0594999947,
      "d": 115.38449999998556,
      "v": 127
    },
    {
      "midi": 66,
      "hit": false,
      "t": 248307.4439999947,
      "d": 115.38449999998556,
      "v": 127
    },
    {
      "midi": 50,
      "hit": false,
      "t": 248307.44399999923,
      "d": 461.53800000000047,
      "v": 127
    },
    {
      "midi": 65,
      "hit": false,
      "t": 248422.82849999468,
      "d": 115.38449999998556,
      "v": 127
    },
    {
      "midi": 66,
      "hit": false,
      "t": 248653.59749999465,
      "d": 115.38449999998556,
      "v": 127
    },
    {
      "midi": 67,
      "hit": false,
      "t": 248768.98199999463,
      "d": 115.38449999998556,
      "v": 127
    },
    {
      "midi": 58,
      "hit": false,
      "t": 248768.98199999923,
      "d": 461.53800000000047,
      "v": 127
    },
    {
      "midi": 66,
      "hit": false,
      "t": 248884.36649999462,
      "d": 115.38449999998556,
      "v": 127
    },
    {
      "midi": 67,
      "hit": false,
      "t": 249115.1354999946,
      "d": 115.38449999998556,
      "v": 127
    },
    {
      "midi": 68,
      "hit": false,
      "t": 249230.51999999458,
      "d": 115.38449999998556,
      "v": 127
    },
    {
      "midi": 67,
      "hit": false,
      "t": 249345.90449999456,
      "d": 115.38449999998556,
      "v": 127
    },
    {
      "midi": 68,
      "hit": false,
      "t": 249576.67349999453,
      "d": 115.38449999998556,
      "v": 127
    },
    {
      "midi": 67,
      "hit": false,
      "t": 249692.05799999452,
      "d": 115.38449999998556,
      "v": 127
    },
    {
      "midi": 51,
      "hit": false,
      "t": 249692.05799999923,
      "d": 461.53800000000047,
      "v": 127
    },
    {
      "midi": 70,
      "hit": false,
      "t": 249807.4424999945,
      "d": 115.38449999998556,
      "v": 127
    },
    {
      "midi": 68,
      "hit": false,
      "t": 250038.21149999448,
      "d": 115.38449999998556,
      "v": 127
    },
    {
      "midi": 67,
      "hit": false,
      "t": 250153.59599999446,
      "d": 115.38449999998556,
      "v": 127
    },
    {
      "midi": 58,
      "hit": false,
      "t": 250153.59599999923,
      "d": 461.53800000000047,
      "v": 127
    },
    {
      "midi": 68,
      "hit": false,
      "t": 250268.98049999445,
      "d": 115.38449999998556,
      "v": 127
    },
    {
      "midi": 70,
      "hit": false,
      "t": 250499.74949999442,
      "d": 115.38449999998556,
      "v": 127
    },
    {
      "midi": 72,
      "hit": false,
      "t": 250615.1339999944,
      "d": 115.38449999998556,
      "v": 127
    },
    {
      "midi": 74,
      "hit": false,
      "t": 250730.5184999944,
      "d": 115.38449999998556,
      "v": 127
    },
    {
      "midi": 75,
      "hit": false,
      "t": 250961.28749999436,
      "d": 115.38449999998556,
      "v": 127
    },
    {
      "midi": 77,
      "hit": false,
      "t": 251076.67199999435,
      "d": 115.38449999998556,
      "v": 127
    },
    {
      "midi": 44,
      "hit": false,
      "t": 251076.67199999923,
      "d": 461.53800000000047,
      "v": 127
    },
    {
      "midi": 84,
      "hit": false,
      "t": 251192.05649999433,
      "d": 115.38449999998556,
      "v": 127
    },
    {
      "midi": 82,
      "hit": false,
      "t": 251422.8254999943,
      "d": 115.38449999998556,
      "v": 127
    },
    {
      "midi": 80,
      "hit": false,
      "t": 251538.2099999943,
      "d": 115.38449999998556,
      "v": 127
    },
    {
      "midi": 56,
      "hit": false,
      "t": 251538.20999999924,
      "d": 461.53800000000047,
      "v": 127
    },
    {
      "midi": 60,
      "hit": false,
      "t": 251538.20999999924,
      "d": 461.53800000000047,
      "v": 127
    },
    {
      "midi": 79,
      "hit": false,
      "t": 251653.59449999427,
      "d": 115.38449999998556,
      "v": 127
    },
    {
      "midi": 77,
      "hit": false,
      "t": 251884.36349999424,
      "d": 115.38449999998556,
      "v": 127
    },
    {
      "midi": 75,
      "hit": false,
      "t": 251999.74799999423,
      "d": 115.38449999998556,
      "v": 127
    },
    {
      "midi": 74,
      "hit": false,
      "t": 252115.13249999422,
      "d": 115.38449999998556,
      "v": 127
    },
    {
      "midi": 72,
      "hit": false,
      "t": 252345.9014999942,
      "d": 115.38449999998556,
      "v": 127
    },
    {
      "midi": 74,
      "hit": false,
      "t": 252461.28599999417,
      "d": 115.38449999998556,
      "v": 127
    },
    {
      "midi": 46,
      "hit": false,
      "t": 252461.28599999924,
      "d": 461.53800000000047,
      "v": 127
    },
    {
      "midi": 77,
      "hit": false,
      "t": 252576.67049999416,
      "d": 115.38449999998556,
      "v": 127
    },
    {
      "midi": 75,
      "hit": false,
      "t": 252807.43949999413,
      "d": 115.38449999998556,
      "v": 127
    },
    {
      "midi": 74,
      "hit": false,
      "t": 252922.8239999941,
      "d": 115.38449999998556,
      "v": 127
    },
    {
      "midi": 56,
      "hit": false,
      "t": 252922.82399999924,
      "d": 461.53800000000047,
      "v": 127
    },
    {
      "midi": 58,
      "hit": false,
      "t": 252922.82399999924,
      "d": 461.53800000000047,
      "v": 127
    },
    {
      "midi": 62,
      "hit": false,
      "t": 252922.82399999924,
      "d": 461.53800000000047,
      "v": 127
    },
    {
      "midi": 75,
      "hit": false,
      "t": 253038.2084999941,
      "d": 115.38449999998556,
      "v": 127
    },
    {
      "midi": 77,
      "hit": false,
      "t": 253268.97749999407,
      "d": 115.38449999998556,
      "v": 127
    },
    {
      "midi": 79,
      "hit": false,
      "t": 253384.36199999406,
      "d": 115.38449999998556,
      "v": 127
    },
    {
      "midi": 80,
      "hit": false,
      "t": 253499.74649999404,
      "d": 115.38449999998556,
      "v": 127
    },
    {
      "midi": 82,
      "hit": false,
      "t": 253730.515499994,
      "d": 115.38449999998556,
      "v": 127
    },
    {
      "midi": 75,
      "hit": false,
      "t": 253845.899999994,
      "d": 115.38449999998556,
      "v": 127
    },
    {
      "midi": 51,
      "hit": false,
      "t": 253845.89999999924,
      "d": 461.53800000000047,
      "v": 127
    },
    {
      "midi": 77,
      "hit": false,
      "t": 253961.28449999398,
      "d": 115.38449999998556,
      "v": 127
    },
    {
      "midi": 79,
      "hit": false,
      "t": 254192.05349999396,
      "d": 115.38449999998556,
      "v": 127
    },
    {
      "midi": 80,
      "hit": false,
      "t": 254307.43799999394,
      "d": 115.38449999998556,
      "v": 127
    },
    {
      "midi": 55,
      "hit": false,
      "t": 254307.43799999924,
      "d": 461.53800000000047,
      "v": 127
    },
    {
      "midi": 58,
      "hit": false,
      "t": 254307.43799999924,
      "d": 461.53800000000047,
      "v": 127
    },
    {
      "midi": 63,
      "hit": false,
      "t": 254307.43799999924,
      "d": 461.53800000000047,
      "v": 127
    },
    {
      "midi": 82,
      "hit": false,
      "t": 254422.82249999393,
      "d": 115.38449999998556,
      "v": 127
    },
    {
      "midi": 84,
      "hit": false,
      "t": 254653.5914999939,
      "d": 115.38449999998556,
      "v": 127
    },
    {
      "midi": 86,
      "hit": false,
      "t": 254768.97599999388,
      "d": 115.38449999998556,
      "v": 127
    },
    {
      "midi": 87,
      "hit": false,
      "t": 254884.36049999387,
      "d": 115.38449999998556,
      "v": 127
    },
    {
      "midi": 89,
      "hit": false,
      "t": 255115.12949999384,
      "d": 115.38449999998556,
      "v": 127
    },
    {
      "midi": 91,
      "hit": false,
      "t": 255230.51399999383,
      "d": 115.38449999998556,
      "v": 127
    },
    {
      "midi": 51,
      "hit": false,
      "t": 255230.51399999924,
      "d": 461.53800000000047,
      "v": 127
    },
    {
      "midi": 94,
      "hit": false,
      "t": 255345.8984999938,
      "d": 115.38449999998556,
      "v": 127
    },
    {
      "midi": 92,
      "hit": false,
      "t": 255576.66749999378,
      "d": 115.38449999998556,
      "v": 127
    },
    {
      "midi": 91,
      "hit": false,
      "t": 255692.05199999377,
      "d": 115.38449999998556,
      "v": 127
    },
    {
      "midi": 58,
      "hit": false,
      "t": 255692.05199999924,
      "d": 461.53800000000047,
      "v": 127
    },
    {
      "midi": 89,
      "hit": false,
      "t": 255807.43649999375,
      "d": 115.38449999998556,
      "v": 127
    },
    {
      "midi": 87,
      "hit": false,
      "t": 256038.20549999372,
      "d": 115.38449999998556,
      "v": 127
    },
    {
      "midi": 86,
      "hit": false,
      "t": 256153.5899999937,
      "d": 115.38449999998556,
      "v": 127
    },
    {
      "midi": 84,
      "hit": false,
      "t": 256268.9744999937,
      "d": 115.38449999998556,
      "v": 127
    },
    {
      "midi": 82,
      "hit": false,
      "t": 256499.74349999367,
      "d": 115.38449999998556,
      "v": 127
    },
    {
      "midi": 80,
      "hit": false,
      "t": 256615.12799999365,
      "d": 115.38449999998556,
      "v": 127
    },
    {
      "midi": 53,
      "hit": false,
      "t": 256615.12799999924,
      "d": 461.53800000000047,
      "v": 127
    },
    {
      "midi": 79,
      "hit": false,
      "t": 256730.51249999364,
      "d": 115.38449999998556,
      "v": 127
    },
    {
      "midi": 77,
      "hit": false,
      "t": 256961.2814999936,
      "d": 115.38449999998556,
      "v": 127
    },
    {
      "midi": 75,
      "hit": false,
      "t": 257076.6659999936,
      "d": 115.38449999998556,
      "v": 127
    },
    {
      "midi": 58,
      "hit": false,
      "t": 257076.66599999924,
      "d": 461.53800000000047,
      "v": 127
    },
    {
      "midi": 74,
      "hit": false,
      "t": 257192.05049999358,
      "d": 115.38449999998556,
      "v": 127
    },
    {
      "midi": 72,
      "hit": false,
      "t": 257422.81949999355,
      "d": 115.38449999998556,
      "v": 127
    },
    {
      "midi": 70,
      "hit": false,
      "t": 257538.20399999354,
      "d": 115.38449999998556,
      "v": 127
    },
    {
      "midi": 72,
      "hit": false,
      "t": 257653.58849999352,
      "d": 115.38449999998556,
      "v": 127
    },
    {
      "midi": 74,
      "hit": false,
      "t": 257884.3574999935,
      "d": 115.38449999998556,
      "v": 127
    },
    {
      "midi": 75,
      "hit": false,
      "t": 257999.74199999348,
      "d": 115.38449999998556,
      "v": 127
    },
    {
      "midi": 55,
      "hit": false,
      "t": 257999.74199999924,
      "d": 461.53800000000047,
      "v": 127
    },
    {
      "midi": 74,
      "hit": false,
      "t": 258115.12649999346,
      "d": 115.38449999998556,
      "v": 127
    },
    {
      "midi": 75,
      "hit": false,
      "t": 258345.89549999344,
      "d": 115.38449999998556,
      "v": 127
    },
    {
      "midi": 76,
      "hit": false,
      "t": 258461.27999999342,
      "d": 115.38449999998556,
      "v": 127
    },
    {
      "midi": 58,
      "hit": false,
      "t": 258461.27999999924,
      "d": 461.53800000000047,
      "v": 127
    },
    {
      "midi": 75,
      "hit": false,
      "t": 258576.6644999934,
      "d": 115.38449999998556,
      "v": 127
    },
    {
      "midi": 76,
      "hit": false,
      "t": 258807.43349999338,
      "d": 115.38449999998556,
      "v": 127
    },
    {
      "midi": 77,
      "hit": false,
      "t": 258922.81799999336,
      "d": 115.38449999998556,
      "v": 127
    },
    {
      "midi": 76,
      "hit": false,
      "t": 259038.20249999335,
      "d": 115.38449999998556,
      "v": 127
    },
    {
      "midi": 77,
      "hit": false,
      "t": 259268.97149999332,
      "d": 115.38449999998556,
      "v": 127
    },
    {
      "midi": 78,
      "hit": false,
      "t": 259384.3559999933,
      "d": 115.38449999998556,
      "v": 127
    },
    {
      "midi": 50,
      "hit": false,
      "t": 259384.35599999924,
      "d": 461.53800000000047,
      "v": 127
    },
    {
      "midi": 77,
      "hit": false,
      "t": 259499.7404999933,
      "d": 115.38449999998556,
      "v": 127
    },
    {
      "midi": 78,
      "hit": false,
      "t": 259730.50949999326,
      "d": 115.38449999998556,
      "v": 127
    },
    {
      "midi": 79,
      "hit": false,
      "t": 259845.89399999325,
      "d": 115.38449999998556,
      "v": 127
    },
    {
      "midi": 58,
      "hit": false,
      "t": 259845.89399999924,
      "d": 461.53800000000047,
      "v": 127
    },
    {
      "midi": 78,
      "hit": false,
      "t": 259961.27849999323,
      "d": 115.38449999998556,
      "v": 127
    },
    {
      "midi": 79,
      "hit": false,
      "t": 260192.0474999932,
      "d": 115.38449999998556,
      "v": 127
    },
    {
      "midi": 80,
      "hit": false,
      "t": 260307.4319999932,
      "d": 115.38449999998556,
      "v": 127
    },
    {
      "midi": 79,
      "hit": false,
      "t": 260422.81649999318,
      "d": 115.38449999998556,
      "v": 127
    },
    {
      "midi": 80,
      "hit": false,
      "t": 260653.58549999315,
      "d": 115.38449999998556,
      "v": 127
    },
    {
      "midi": 79,
      "hit": false,
      "t": 260768.96999999313,
      "d": 115.38449999998556,
      "v": 127
    },
    {
      "midi": 51,
      "hit": false,
      "t": 260768.96999999924,
      "d": 461.53800000000047,
      "v": 127
    },
    {
      "midi": 82,
      "hit": false,
      "t": 260884.35449999312,
      "d": 115.38449999998556,
      "v": 127
    },
    {
      "midi": 80,
      "hit": false,
      "t": 261115.1234999931,
      "d": 115.38449999998556,
      "v": 127
    },
    {
      "midi": 79,
      "hit": false,
      "t": 261230.50799999307,
      "d": 115.38449999998556,
      "v": 127
    },
    {
      "midi": 58,
      "hit": false,
      "t": 261230.50799999924,
      "d": 461.53800000000047,
      "v": 127
    },
    {
      "midi": 80,
      "hit": false,
      "t": 261345.89249999306,
      "d": 115.38449999998556,
      "v": 127
    },
    {
      "midi": 82,
      "hit": false,
      "t": 261576.66149999303,
      "d": 115.38449999998556,
      "v": 127
    },
    {
      "midi": 84,
      "hit": false,
      "t": 261692.04599999302,
      "d": 115.38449999998556,
      "v": 127
    },
    {
      "midi": 86,
      "hit": false,
      "t": 261807.430499993,
      "d": 115.38449999998556,
      "v": 127
    },
    {
      "midi": 87,
      "hit": false,
      "t": 262038.19949999297,
      "d": 115.38450000001467,
      "v": 127
    },
    {
      "midi": 89,
      "hit": false,
      "t": 262153.583999993,
      "d": 115.38449999998556,
      "v": 127
    },
    {
      "midi": 44,
      "hit": false,
      "t": 262153.5839999992,
      "d": 461.53800000000047,
      "v": 127
    },
    {
      "midi": 96,
      "hit": false,
      "t": 262268.968499993,
      "d": 115.38449999998556,
      "v": 127
    },
    {
      "midi": 94,
      "hit": false,
      "t": 262499.73749999295,
      "d": 115.38449999998556,
      "v": 127
    },
    {
      "midi": 92,
      "hit": false,
      "t": 262615.12199999293,
      "d": 115.38449999998556,
      "v": 127
    },
    {
      "midi": 56,
      "hit": false,
      "t": 262615.1219999992,
      "d": 461.53800000000047,
      "v": 127
    },
    {
      "midi": 60,
      "hit": false,
      "t": 262615.1219999992,
      "d": 461.53800000000047,
      "v": 127
    },
    {
      "midi": 91,
      "hit": false,
      "t": 262730.5064999929,
      "d": 115.38449999998556,
      "v": 127
    },
    {
      "midi": 89,
      "hit": false,
      "t": 262961.2754999929,
      "d": 115.38449999998556,
      "v": 127
    },
    {
      "midi": 87,
      "hit": false,
      "t": 263076.6599999929,
      "d": 115.38449999998556,
      "v": 127
    },
    {
      "midi": 86,
      "hit": false,
      "t": 263192.04449999286,
      "d": 115.38449999998556,
      "v": 127
    },
    {
      "midi": 84,
      "hit": false,
      "t": 263422.81349999283,
      "d": 115.38449999998556,
      "v": 127
    },
    {
      "midi": 82,
      "hit": false,
      "t": 263538.1979999928,
      "d": 115.38449999998556,
      "v": 127
    },
    {
      "midi": 46,
      "hit": false,
      "t": 263538.1979999992,
      "d": 461.53800000000047,
      "v": 127
    },
    {
      "midi": 89,
      "hit": false,
      "t": 263653.5824999928,
      "d": 115.38449999998556,
      "v": 127
    },
    {
      "midi": 87,
      "hit": false,
      "t": 263884.3514999928,
      "d": 115.38449999998556,
      "v": 127
    },
    {
      "midi": 86,
      "hit": false,
      "t": 263999.73599999276,
      "d": 115.38449999998556,
      "v": 127
    },
    {
      "midi": 56,
      "hit": false,
      "t": 263999.7359999992,
      "d": 461.53800000000047,
      "v": 127
    },
    {
      "midi": 58,
      "hit": false,
      "t": 263999.7359999992,
      "d": 461.53800000000047,
      "v": 127
    },
    {
      "midi": 62,
      "hit": false,
      "t": 263999.7359999992,
      "d": 461.53800000000047,
      "v": 127
    },
    {
      "midi": 84,
      "hit": false,
      "t": 264115.12049999274,
      "d": 115.38449999998556,
      "v": 127
    },
    {
      "midi": 82,
      "hit": false,
      "t": 264345.8894999927,
      "d": 115.38449999998556,
      "v": 127
    },
    {
      "midi": 80,
      "hit": false,
      "t": 264461.2739999927,
      "d": 115.38449999998556,
      "v": 127
    },
    {
      "midi": 79,
      "hit": false,
      "t": 264576.6584999927,
      "d": 115.38449999998556,
      "v": 127
    },
    {
      "midi": 77,
      "hit": false,
      "t": 264807.42749999266,
      "d": 115.38449999998556,
      "v": 127
    },
    {
      "midi": 75,
      "hit": false,
      "t": 264922.81199999264,
      "d": 115.38449999998556,
      "v": 127
    },
    {
      "midi": 51,
      "hit": false,
      "t": 264922.8119999992,
      "d": 461.53800000000047,
      "v": 127
    },
    {
      "midi": 79,
      "hit": false,
      "t": 265038.1964999926,
      "d": 115.38449999998556,
      "v": 127
    },
    {
      "midi": 77,
      "hit": false,
      "t": 265268.9654999926,
      "d": 115.38449999998556,
      "v": 127
    },
    {
      "midi": 75,
      "hit": false,
      "t": 265384.3499999926,
      "d": 115.38449999998556,
      "v": 127
    },
    {
      "midi": 55,
      "hit": false,
      "t": 265384.3499999992,
      "d": 461.53800000000047,
      "v": 127
    },
    {
      "midi": 58,
      "hit": false,
      "t": 265384.3499999992,
      "d": 461.53800000000047,
      "v": 127
    },
    {
      "midi": 63,
      "hit": false,
      "t": 265384.3499999992,
      "d": 461.53800000000047,
      "v": 127
    },
    {
      "midi": 74,
      "hit": false,
      "t": 265499.73449999257,
      "d": 115.38449999998556,
      "v": 127
    },
    {
      "midi": 72,
      "hit": false,
      "t": 265730.50349999254,
      "d": 115.38449999998556,
      "v": 127
    },
    {
      "midi": 70,
      "hit": false,
      "t": 265845.8879999925,
      "d": 115.38449999998556,
      "v": 127
    },
    {
      "midi": 68,
      "hit": false,
      "t": 265961.2724999925,
      "d": 115.38449999998556,
      "v": 127
    },
    {
      "midi": 65,
      "hit": false,
      "t": 266192.0414999925,
      "d": 115.38449999998556,
      "v": 127
    },
    {
      "midi": 66,
      "hit": false,
      "t": 266307.42599999247,
      "d": 115.38449999998556,
      "v": 127
    },
    {
      "midi": 39,
      "hit": false,
      "t": 266307.4259999992,
      "d": 461.53800000000047,
      "v": 127
    },
    {
      "midi": 70,
      "hit": false,
      "t": 266422.81049999245,
      "d": 115.38449999998556,
      "v": 127
    },
    {
      "midi": 68,
      "hit": false,
      "t": 266653.5794999924,
      "d": 115.38449999998556,
      "v": 127
    },
    {
      "midi": 66,
      "hit": false,
      "t": 266768.9639999924,
      "d": 115.38449999998556,
      "v": 127
    },
    {
      "midi": 51,
      "hit": false,
      "t": 266768.9639999992,
      "d": 461.53800000000047,
      "v": 127
    },
    {
      "midi": 65,
      "hit": false,
      "t": 266884.3484999924,
      "d": 115.38449999998556,
      "v": 127
    },
    {
      "midi": 63,
      "hit": false,
      "t": 267115.11749999237,
      "d": 115.38449999998556,
      "v": 127
    },
    {
      "midi": 61,
      "hit": false,
      "t": 267230.50199999235,
      "d": 115.38449999998556,
      "v": 127
    },
    {
      "midi": 59,
      "hit": false,
      "t": 267345.88649999234,
      "d": 115.38449999998556,
      "v": 127
    },
    {
      "midi": 58,
      "hit": false,
      "t": 267576.6554999923,
      "d": 115.38449999998556,
      "v": 127
    },
    {
      "midi": 59,
      "hit": false,
      "t": 267692.0399999923,
      "d": 115.38449999998556,
      "v": 127
    },
    {
      "midi": 44,
      "hit": false,
      "t": 267692.0399999992,
      "d": 461.53800000000047,
      "v": 127
    },
    {
      "midi": 63,
      "hit": false,
      "t": 267807.4244999923,
      "d": 115.38449999998556,
      "v": 127
    },
    {
      "midi": 68,
      "hit": false,
      "t": 268038.19349999225,
      "d": 115.38449999998556,
      "v": 127
    },
    {
      "midi": 71,
      "hit": false,
      "t": 268153.57799999224,
      "d": 115.38449999998556,
      "v": 127
    },
    {
      "midi": 56,
      "hit": false,
      "t": 268153.5779999992,
      "d": 461.53800000000047,
      "v": 127
    },
    {
      "midi": 63,
      "hit": false,
      "t": 268268.9624999922,
      "d": 115.38449999998556,
      "v": 127
    },
    {
      "midi": 68,
      "hit": false,
      "t": 268499.7314999922,
      "d": 115.38449999998556,
      "v": 127
    },
    {
      "midi": 66,
      "hit": false,
      "t": 268615.1159999922,
      "d": 115.38449999998556,
      "v": 127
    },
    {
      "midi": 63,
      "hit": false,
      "t": 268730.50049999217,
      "d": 115.38449999998556,
      "v": 127
    },
    {
      "midi": 66,
      "hit": false,
      "t": 268961.26949999214,
      "d": 115.38449999998556,
      "v": 127
    },
    {
      "midi": 65,
      "hit": false,
      "t": 269076.6539999921,
      "d": 115.38449999998556,
      "v": 127
    },
    {
      "midi": 37,
      "hit": false,
      "t": 269076.6539999992,
      "d": 461.53800000000047,
      "v": 127
    },
    {
      "midi": 71,
      "hit": false,
      "t": 269192.0384999921,
      "d": 115.38449999998556,
      "v": 127
    },
    {
      "midi": 70,
      "hit": false,
      "t": 269422.8074999921,
      "d": 115.38449999998556,
      "v": 127
    },
    {
      "midi": 68,
      "hit": false,
      "t": 269538.19199999206,
      "d": 115.38449999998556,
      "v": 127
    },
    {
      "midi": 49,
      "hit": false,
      "t": 269538.1919999992,
      "d": 461.53800000000047,
      "v": 127
    },
    {
      "midi": 66,
      "hit": false,
      "t": 269653.57649999205,
      "d": 115.38449999998556,
      "v": 127
    },
    {
      "midi": 65,
      "hit": false,
      "t": 269884.345499992,
      "d": 115.38449999998556,
      "v": 127
    },
    {
      "midi": 63,
      "hit": false,
      "t": 269999.729999992,
      "d": 115.38449999998556,
      "v": 127
    },
    {
      "midi": 61,
      "hit": false,
      "t": 270115.114499992,
      "d": 115.38449999998556,
      "v": 127
    },
    {
      "midi": 59,
      "hit": false,
      "t": 270345.88349999196,
      "d": 115.38449999998556,
      "v": 127
    },
    {
      "midi": 58,
      "hit": false,
      "t": 270461.26799999195,
      "d": 115.38449999998556,
      "v": 127
    },
    {
      "midi": 42,
      "hit": false,
      "t": 270461.2679999992,
      "d": 461.53800000000047,
      "v": 127
    },
    {
      "midi": 61,
      "hit": false,
      "t": 270576.65249999193,
      "d": 115.38449999998556,
      "v": 127
    },
    {
      "midi": 66,
      "hit": false,
      "t": 270807.4214999919,
      "d": 115.38449999998556,
      "v": 127
    },
    {
      "midi": 70,
      "hit": false,
      "t": 270922.8059999919,
      "d": 115.38449999998556,
      "v": 127
    },
    {
      "midi": 54,
      "hit": false,
      "t": 270922.8059999992,
      "d": 461.53800000000047,
      "v": 127
    },
    {
      "midi": 61,
      "hit": false,
      "t": 271038.1904999919,
      "d": 115.38449999998556,
      "v": 127
    },
    {
      "midi": 66,
      "hit": false,
      "t": 271268.95949999185,
      "d": 115.38449999998556,
      "v": 127
    },
    {
      "midi": 65,
      "hit": false,
      "t": 271384.34399999183,
      "d": 115.38449999998556,
      "v": 127
    },
    {
      "midi": 61,
      "hit": false,
      "t": 271499.7284999918,
      "d": 115.38449999998556,
      "v": 127
    },
    {
      "midi": 65,
      "hit": false,
      "t": 271730.4974999918,
      "d": 115.38449999998556,
      "v": 127
    },
    {
      "midi": 63,
      "hit": false,
      "t": 271845.8819999918,
      "d": 115.38449999998556,
      "v": 127
    },
    {
      "midi": 35,
      "hit": false,
      "t": 271845.8819999992,
      "d": 461.53800000000047,
      "v": 127
    },
    {
      "midi": 70,
      "hit": false,
      "t": 271961.26649999176,
      "d": 115.38449999998556,
      "v": 127
    },
    {
      "midi": 68,
      "hit": false,
      "t": 272192.03549999173,
      "d": 115.38449999998556,
      "v": 127
    },
    {
      "midi": 66,
      "hit": false,
      "t": 272307.4199999917,
      "d": 115.38449999998556,
      "v": 127
    },
    {
      "midi": 47,
      "hit": false,
      "t": 272307.4199999992,
      "d": 461.53800000000047,
      "v": 127
    },
    {
      "midi": 65,
      "hit": false,
      "t": 272422.8044999917,
      "d": 115.38449999998556,
      "v": 127
    },
    {
      "midi": 63,
      "hit": false,
      "t": 272653.5734999917,
      "d": 115.38449999998556,
      "v": 127
    },
    {
      "midi": 61,
      "hit": false,
      "t": 272768.95799999166,
      "d": 115.38449999998556,
      "v": 127
    },
    {
      "midi": 59,
      "hit": false,
      "t": 272884.34249999165,
      "d": 115.38449999998556,
      "v": 127
    },
    {
      "midi": 58,
      "hit": false,
      "t": 273115.1114999916,
      "d": 115.38449999998556,
      "v": 127
    },
    {
      "midi": 56,
      "hit": false,
      "t": 273230.4959999916,
      "d": 115.38449999998556,
      "v": 127
    },
    {
      "midi": 41,
      "hit": false,
      "t": 273230.4959999992,
      "d": 461.53800000000047,
      "v": 127
    },
    {
      "midi": 59,
      "hit": false,
      "t": 273345.8804999916,
      "d": 115.38449999998556,
      "v": 127
    },
    {
      "midi": 65,
      "hit": false,
      "t": 273576.64949999156,
      "d": 115.38449999998556,
      "v": 127
    },
    {
      "midi": 68,
      "hit": false,
      "t": 273692.03399999154,
      "d": 115.38449999998556,
      "v": 127
    },
    {
      "midi": 53,
      "hit": false,
      "t": 273692.0339999992,
      "d": 461.53800000000047,
      "v": 127
    },
    {
      "midi": 59,
      "hit": false,
      "t": 273807.41849999153,
      "d": 115.38449999998556,
      "v": 127
    },
    {
      "midi": 65,
      "hit": false,
      "t": 274038.1874999915,
      "d": 115.38449999998556,
      "v": 127
    },
    {
      "midi": 63,
      "hit": false,
      "t": 274153.5719999915,
      "d": 115.38449999998556,
      "v": 127
    },
    {
      "midi": 59,
      "hit": false,
      "t": 274268.9564999915,
      "d": 115.38449999998556,
      "v": 127
    },
    {
      "midi": 63,
      "hit": false,
      "t": 274499.72549999144,
      "d": 115.38449999998556,
      "v": 127
    },
    {
      "midi": 62,
      "hit": false,
      "t": 274615.10999999143,
      "d": 115.38449999998556,
      "v": 127
    },
    {
      "midi": 34,
      "hit": false,
      "t": 274615.10999999923,
      "d": 461.53800000000047,
      "v": 127
    },
    {
      "midi": 68,
      "hit": false,
      "t": 274730.4944999914,
      "d": 115.38449999998556,
      "v": 127
    },
    {
      "midi": 66,
      "hit": false,
      "t": 274961.2634999914,
      "d": 115.38449999998556,
      "v": 127
    },
    {
      "midi": 65,
      "hit": false,
      "t": 275076.6479999914,
      "d": 115.38449999998556,
      "v": 127
    },
    {
      "midi": 46,
      "hit": false,
      "t": 275076.64799999923,
      "d": 461.53800000000047,
      "v": 127
    },
    {
      "midi": 63,
      "hit": false,
      "t": 275192.03249999136,
      "d": 115.38449999998556,
      "v": 127
    },
    {
      "midi": 62,
      "hit": false,
      "t": 275422.8014999913,
      "d": 115.38449999998556,
      "v": 127
    },
    {
      "midi": 59,
      "hit": false,
      "t": 275538.1859999913,
      "d": 115.38449999998556,
      "v": 127
    },
    {
      "midi": 58,
      "hit": false,
      "t": 275653.5704999913,
      "d": 115.38449999998556,
      "v": 127
    },
    {
      "midi": 56,
      "hit": false,
      "t": 275884.33949999127,
      "d": 115.38449999998556,
      "v": 127
    },
    {
      "midi": 54,
      "hit": false,
      "t": 275999.72399999126,
      "d": 115.38449999998556,
      "v": 127
    },
    {
      "midi": 39,
      "hit": false,
      "t": 275999.72399999923,
      "d": 461.53800000000047,
      "v": 127
    },
    {
      "midi": 58,
      "hit": false,
      "t": 276115.10849999124,
      "d": 115.38449999998556,
      "v": 127
    },
    {
      "midi": 63,
      "hit": false,
      "t": 276345.8774999912,
      "d": 115.38449999998556,
      "v": 127
    },
    {
      "midi": 66,
      "hit": false,
      "t": 276461.2619999912,
      "d": 115.38449999998556,
      "v": 127
    },
    {
      "midi": 51,
      "hit": false,
      "t": 276461.26199999923,
      "d": 461.53800000000047,
      "v": 127
    },
    {
      "midi": 58,
      "hit": false,
      "t": 276576.6464999912,
      "d": 115.38449999998556,
      "v": 127
    },
    {
      "midi": 63,
      "hit": false,
      "t": 276807.41549999116,
      "d": 115.38449999998556,
      "v": 127
    },
    {
      "midi": 61,
      "hit": false,
      "t": 276922.79999999114,
      "d": 115.38449999998556,
      "v": 127
    },
    {
      "midi": 58,
      "hit": false,
      "t": 277038.1844999911,
      "d": 115.38449999998556,
      "v": 127
    },
    {
      "midi": 61,
      "hit": false,
      "t": 277268.9534999911,
      "d": 115.38449999998556,
      "v": 127
    },
    {
      "midi": 59,
      "hit": false,
      "t": 277384.3379999911,
      "d": 115.38449999998556,
      "v": 127
    },
    {
      "midi": 44,
      "hit": false,
      "t": 277384.33799999923,
      "d": 461.53800000000047,
      "v": 127
    },
    {
      "midi": 63,
      "hit": false,
      "t": 277499.72249999107,
      "d": 115.38449999998556,
      "v": 127
    },
    {
      "midi": 68,
      "hit": false,
      "t": 277730.49149999104,
      "d": 115.38449999998556,
      "v": 127
    },
    {
      "midi": 71,
      "hit": false,
      "t": 277845.875999991,
      "d": 115.38449999998556,
      "v": 127
    },
    {
      "midi": 56,
      "hit": false,
      "t": 277845.87599999923,
      "d": 461.53800000000047,
      "v": 127
    },
    {
      "midi": 63,
      "hit": false,
      "t": 277961.260499991,
      "d": 115.38449999998556,
      "v": 127
    },
    {
      "midi": 68,
      "hit": false,
      "t": 278192.029499991,
      "d": 115.38449999998556,
      "v": 127
    },
    {
      "midi": 66,
      "hit": false,
      "t": 278307.41399999097,
      "d": 115.38449999998556,
      "v": 127
    },
    {
      "midi": 63,
      "hit": false,
      "t": 278422.79849999095,
      "d": 115.38449999998556,
      "v": 127
    },
    {
      "midi": 66,
      "hit": false,
      "t": 278653.5674999909,
      "d": 115.38449999998556,
      "v": 127
    },
    {
      "midi": 71,
      "hit": false,
      "t": 278768.9519999909,
      "d": 115.38449999998556,
      "v": 127
    },
    {
      "midi": 46,
      "hit": false,
      "t": 278768.95199999923,
      "d": 461.53800000000047,
      "v": 127
    },
    {
      "midi": 65,
      "hit": false,
      "t": 278884.3364999909,
      "d": 115.38449999998556,
      "v": 127
    },
    {
      "midi": 62,
      "hit": false,
      "t": 279115.10549999087,
      "d": 115.38449999998556,
      "v": 127
    },
    {
      "midi": 70,
      "hit": false,
      "t": 279230.48999999085,
      "d": 115.38449999998556,
      "v": 127
    },
    {
      "midi": 58,
      "hit": false,
      "t": 279230.48999999923,
      "d": 461.53800000000047,
      "v": 127
    },
    {
      "midi": 65,
      "hit": false,
      "t": 279345.87449999084,
      "d": 115.38449999998556,
      "v": 127
    },
    {
      "midi": 62,
      "hit": false,
      "t": 279576.6434999908,
      "d": 115.38449999998556,
      "v": 127
    },
    {
      "midi": 74,
      "hit": false,
      "t": 279692.0279999908,
      "d": 115.38449999998556,
      "v": 127
    },
    {
      "midi": 68,
      "hit": false,
      "t": 279807.4124999908,
      "d": 115.38449999998556,
      "v": 127
    },
    {
      "midi": 65,
      "hit": false,
      "t": 280038.18149999075,
      "d": 115.38449999998556,
      "v": 127
    },
    {
      "midi": 75,
      "hit": false,
      "t": 280153.56599999074,
      "d": 115.38449999998556,
      "v": 127
    },
    {
      "midi": 51,
      "hit": false,
      "t": 280153.56599999923,
      "d": 923.0760000000009,
      "v": 127
    },
    {
      "midi": 78,
      "hit": false,
      "t": 280268.9504999907,
      "d": 115.38449999998556,
      "v": 127
    },
    {
      "midi": 77,
      "hit": false,
      "t": 280499.7194999907,
      "d": 115.38449999998556,
      "v": 127
    },
    {
      "midi": 75,
      "hit": false,
      "t": 280615.1039999907,
      "d": 115.38449999998556,
      "v": 127
    },
    {
      "midi": 73,
      "hit": false,
      "t": 280730.48849999066,
      "d": 115.38449999998556,
      "v": 127
    },
    {
      "midi": 71,
      "hit": false,
      "t": 280961.25749999064,
      "d": 115.38449999998556,
      "v": 127
    },
    {
      "midi": 70,
      "hit": false,
      "t": 281076.6419999906,
      "d": 115.38449999998556,
      "v": 127
    },
    {
      "midi": 68,
      "hit": false,
      "t": 281192.0264999906,
      "d": 115.38449999998556,
      "v": 127
    },
    {
      "midi": 65,
      "hit": false,
      "t": 281422.7954999906,
      "d": 115.38449999998556,
      "v": 127
    },
    {
      "midi": 66,
      "hit": false,
      "t": 281538.17999999056,
      "d": 115.38449999998556,
      "v": 127
    },
    {
      "midi": 42,
      "hit": false,
      "t": 281538.17999999924,
      "d": 461.53800000000047,
      "v": 127
    },
    {
      "midi": 70,
      "hit": false,
      "t": 281653.56449999055,
      "d": 115.38449999998556,
      "v": 127
    },
    {
      "midi": 68,
      "hit": false,
      "t": 281884.3334999905,
      "d": 115.38449999998556,
      "v": 127
    },
    {
      "midi": 66,
      "hit": false,
      "t": 281999.7179999905,
      "d": 115.38449999998556,
      "v": 127
    },
    {
      "midi": 49,
      "hit": false,
      "t": 281999.71799999924,
      "d": 461.53800000000047,
      "v": 127
    },
    {
      "midi": 65,
      "hit": false,
      "t": 282115.1024999905,
      "d": 115.38449999998556,
      "v": 127
    },
    {
      "midi": 63,
      "hit": false,
      "t": 282345.87149999046,
      "d": 115.38449999998556,
      "v": 127
    },
    {
      "midi": 61,
      "hit": false,
      "t": 282461.25599999045,
      "d": 115.38449999998556,
      "v": 127
    },
    {
      "midi": 59,
      "hit": false,
      "t": 282576.64049999043,
      "d": 115.38449999998556,
      "v": 127
    },
    {
      "midi": 58,
      "hit": false,
      "t": 282807.4094999904,
      "d": 115.38449999998556,
      "v": 127
    },
    {
      "midi": 59,
      "hit": false,
      "t": 282922.7939999904,
      "d": 115.38449999998556,
      "v": 127
    },
    {
      "midi": 44,
      "hit": false,
      "t": 282922.79399999924,
      "d": 461.53800000000047,
      "v": 127
    },
    {
      "midi": 62,
      "hit": false,
      "t": 283038.1784999904,
      "d": 115.38449999998556,
      "v": 127
    },
    {
      "midi": 65,
      "hit": false,
      "t": 283268.94749999035,
      "d": 115.38449999998556,
      "v": 127
    },
    {
      "midi": 71,
      "hit": false,
      "t": 283384.33199999033,
      "d": 115.38449999998556,
      "v": 127
    },
    {
      "midi": 50,
      "hit": false,
      "t": 283384.33199999924,
      "d": 461.53800000000047,
      "v": 127
    },
    {
      "midi": 65,
      "hit": false,
      "t": 283499.7164999903,
      "d": 115.38449999998556,
      "v": 127
    },
    {
      "midi": 62,
      "hit": false,
      "t": 283730.4854999903,
      "d": 115.38449999998556,
      "v": 127
    },
    {
      "midi": 65,
      "hit": false,
      "t": 283845.8699999903,
      "d": 115.38449999998556,
      "v": 127
    },
    {
      "midi": 49,
      "hit": false,
      "t": 283845.86999999924,
      "d": 461.53800000000047,
      "v": 127
    },
    {
      "midi": 61,
      "hit": false,
      "t": 283961.25449999026,
      "d": 115.38449999998556,
      "v": 127
    },
    {
      "midi": 59,
      "hit": false,
      "t": 284192.02349999023,
      "d": 115.38449999998556,
      "v": 127
    },
    {
      "midi": 58,
      "hit": false,
      "t": 284307.4079999902,
      "d": 115.38449999998556,
      "v": 127
    },
    {
      "midi": 42,
      "hit": false,
      "t": 284307.40799999924,
      "d": 461.53800000000047,
      "v": 127
    },
    {
      "midi": 70,
      "hit": false,
      "t": 284422.7924999902,
      "d": 115.38449999998556,
      "v": 127
    },
    {
      "midi": 68,
      "hit": false,
      "t": 284653.5614999902,
      "d": 115.38449999998556,
      "v": 127
    },
    {
      "midi": 66,
      "hit": false,
      "t": 284768.94599999016,
      "d": 115.38449999998556,
      "v": 127
    },
    {
      "midi": 49,
      "hit": false,
      "t": 284768.94599999924,
      "d": 461.53800000000047,
      "v": 127
    },
    {
      "midi": 65,
      "hit": false,
      "t": 284884.33049999014,
      "d": 115.38449999998556,
      "v": 127
    },
    {
      "midi": 63,
      "hit": false,
      "t": 285115.0994999901,
      "d": 115.38449999998556,
      "v": 127
    },
    {
      "midi": 61,
      "hit": false,
      "t": 285230.4839999901,
      "d": 115.38449999998556,
      "v": 127
    },
    {
      "midi": 59,
      "hit": false,
      "t": 285345.8684999901,
      "d": 115.38449999998556,
      "v": 127
    },
    {
      "midi": 58,
      "hit": false,
      "t": 285576.63749999006,
      "d": 115.38449999998556,
      "v": 127
    },
    {
      "midi": 59,
      "hit": false,
      "t": 285692.02199999004,
      "d": 115.38449999998556,
      "v": 127
    },
    {
      "midi": 44,
      "hit": false,
      "t": 285692.02199999924,
      "d": 461.53800000000047,
      "v": 127
    },
    {
      "midi": 62,
      "hit": false,
      "t": 285807.40649999003,
      "d": 115.38449999998556,
      "v": 127
    },
    {
      "midi": 65,
      "hit": false,
      "t": 286038.17549999,
      "d": 115.38449999998556,
      "v": 127
    },
    {
      "midi": 71,
      "hit": false,
      "t": 286153.55999999,
      "d": 115.38449999998556,
      "v": 127
    },
    {
      "midi": 50,
      "hit": false,
      "t": 286153.55999999924,
      "d": 461.53800000000047,
      "v": 127
    },
    {
      "midi": 65,
      "hit": false,
      "t": 286268.94449999,
      "d": 115.38449999998556,
      "v": 127
    },
    {
      "midi": 62,
      "hit": false,
      "t": 286499.71349998994,
      "d": 115.38449999998556,
      "v": 127
    },
    {
      "midi": 65,
      "hit": false,
      "t": 286615.0979999899,
      "d": 115.38449999998556,
      "v": 127
    },
    {
      "midi": 49,
      "hit": false,
      "t": 286615.09799999924,
      "d": 461.53800000000047,
      "v": 127
    },
    {
      "midi": 61,
      "hit": false,
      "t": 286730.4824999899,
      "d": 115.38449999998556,
      "v": 127
    },
    {
      "midi": 59,
      "hit": false,
      "t": 286961.2514999899,
      "d": 115.38449999998556,
      "v": 127
    },
    {
      "midi": 61,
      "hit": false,
      "t": 287076.63599998987,
      "d": 115.38449999998556,
      "v": 127
    },
    {
      "midi": 46,
      "hit": false,
      "t": 287076.63599999924,
      "d": 461.53800000000047,
      "v": 127
    },
    {
      "midi": 66,
      "hit": false,
      "t": 287192.02049998986,
      "d": 115.38449999998556,
      "v": 127
    },
    {
      "midi": 70,
      "hit": false,
      "t": 287422.7894999898,
      "d": 115.38449999998556,
      "v": 127
    },
    {
      "midi": 73,
      "hit": false,
      "t": 287538.1739999898,
      "d": 115.38449999998556,
      "v": 127
    },
    {
      "midi": 54,
      "hit": false,
      "t": 287538.17399999924,
      "d": 461.53800000000047,
      "v": 127
    },
    {
      "midi": 70,
      "hit": false,
      "t": 287653.5584999898,
      "d": 115.38449999998556,
      "v": 127
    },
    {
      "midi": 66,
      "hit": false,
      "t": 287884.32749998977,
      "d": 115.38449999998556,
      "v": 127
    },
    {
      "midi": 65,
      "hit": false,
      "t": 287999.71199998975,
      "d": 115.38449999998556,
      "v": 127
    },
    {
      "midi": 66,
      "hit": false,
      "t": 288115.09649998974,
      "d": 115.38449999998556,
      "v": 127
    },
    {
      "midi": 64,
      "hit": false,
      "t": 288345.8654999897,
      "d": 115.38449999998556,
      "v": 127
    },
    {
      "midi": 63,
      "hit": false,
      "t": 288461.2499999897,
      "d": 115.38449999998556,
      "v": 127
    },
    {
      "midi": 47,
      "hit": false,
      "t": 288461.24999999924,
      "d": 461.53800000000047,
      "v": 127
    },
    {
      "midi": 68,
      "hit": false,
      "t": 288576.6344999897,
      "d": 115.38449999998556,
      "v": 127
    },
    {
      "midi": 71,
      "hit": false,
      "t": 288807.40349998965,
      "d": 115.38449999998556,
      "v": 127
    },
    {
      "midi": 75,
      "hit": false,
      "t": 288922.78799998964,
      "d": 115.38449999998556,
      "v": 127
    },
    {
      "midi": 56,
      "hit": false,
      "t": 288922.78799999924,
      "d": 461.53800000000047,
      "v": 127
    },
    {
      "midi": 71,
      "hit": false,
      "t": 289038.1724999896,
      "d": 115.38449999998556,
      "v": 127
    },
    {
      "midi": 68,
      "hit": false,
      "t": 289268.9414999896,
      "d": 115.38449999998556,
      "v": 127
    },
    {
      "midi": 67,
      "hit": false,
      "t": 289384.3259999896,
      "d": 115.38449999998556,
      "v": 127
    },
    {
      "midi": 68,
      "hit": false,
      "t": 289499.71049998957,
      "d": 115.38449999998556,
      "v": 127
    },
    {
      "midi": 66,
      "hit": false,
      "t": 289730.47949998954,
      "d": 115.38449999998556,
      "v": 127
    },
    {
      "midi": 65,
      "hit": false,
      "t": 289845.8639999895,
      "d": 115.38449999998556,
      "v": 127
    },
    {
      "midi": 49,
      "hit": false,
      "t": 289845.86399999924,
      "d": 461.53800000000047,
      "v": 127
    },
    {
      "midi": 66,
      "hit": false,
      "t": 289961.2484999895,
      "d": 115.38449999998556,
      "v": 127
    },
    {
      "midi": 67,
      "hit": false,
      "t": 290192.0174999895,
      "d": 115.38449999998556,
      "v": 127
    },
    {
      "midi": 68,
      "hit": false,
      "t": 290307.40199998947,
      "d": 115.38449999998556,
      "v": 127
    },
    {
      "midi": 59,
      "hit": false,
      "t": 290307.40199999925,
      "d": 461.53800000000047,
      "v": 127
    },
    {
      "midi": 70,
      "hit": false,
      "t": 290422.78649998945,
      "d": 115.38449999998556,
      "v": 127
    },
    {
      "midi": 71,
      "hit": false,
      "t": 290653.5554999894,
      "d": 115.38449999998556,
      "v": 127
    },
    {
      "midi": 73,
      "hit": false,
      "t": 290768.9399999894,
      "d": 115.38449999998556,
      "v": 127
    },
    {
      "midi": 75,
      "hit": false,
      "t": 290884.3244999894,
      "d": 115.38449999998556,
      "v": 127
    },
    {
      "midi": 77,
      "hit": false,
      "t": 291115.09349998937,
      "d": 115.38449999998556,
      "v": 127
    },
    {
      "midi": 78,
      "hit": false,
      "t": 291230.47799998935,
      "d": 115.38449999998556,
      "v": 127
    },
    {
      "midi": 54,
      "hit": false,
      "t": 291230.47799999925,
      "d": 923.0760000000009,
      "v": 127
    },
    {
      "midi": 58,
      "hit": false,
      "t": 291230.47799999925,
      "d": 923.0760000000009,
      "v": 127
    },
    {
      "midi": 82,
      "hit": false,
      "t": 291345.86249998934,
      "d": 115.38449999998556,
      "v": 127
    },
    {
      "midi": 80,
      "hit": false,
      "t": 291576.6314999893,
      "d": 115.38449999998556,
      "v": 127
    },
    {
      "midi": 78,
      "hit": false,
      "t": 291692.0159999893,
      "d": 115.38449999998556,
      "v": 127
    },
    {
      "midi": 77,
      "hit": false,
      "t": 291807.4004999893,
      "d": 115.38449999998556,
      "v": 127
    },
    {
      "midi": 75,
      "hit": false,
      "t": 292038.16949998925,
      "d": 115.38449999998556,
      "v": 127
    },
    {
      "midi": 73,
      "hit": false,
      "t": 292153.55399998924,
      "d": 115.38449999998556,
      "v": 127
    },
    {
      "midi": 71,
      "hit": false,
      "t": 292268.9384999892,
      "d": 115.38449999998556,
      "v": 127
    },
    {
      "midi": 70,
      "hit": false,
      "t": 292499.7074999892,
      "d": 115.38449999998556,
      "v": 127
    },
    {
      "midi": 68,
      "hit": false,
      "t": 292615.0919999892,
      "d": 115.38449999998556,
      "v": 127
    },
    {
      "midi": 46,
      "hit": false,
      "t": 292615.09199999925,
      "d": 461.53800000000047,
      "v": 127
    },
    {
      "midi": 71,
      "hit": false,
      "t": 292730.47649998916,
      "d": 115.38449999998556,
      "v": 127
    },
    {
      "midi": 70,
      "hit": false,
      "t": 292961.24549998913,
      "d": 115.38449999998556,
      "v": 127
    },
    {
      "midi": 68,
      "hit": false,
      "t": 293076.6299999891,
      "d": 115.38449999998556,
      "v": 127
    },
    {
      "midi": 53,
      "hit": false,
      "t": 293076.62999999925,
      "d": 461.53800000000047,
      "v": 127
    },
    {
      "midi": 56,
      "hit": false,
      "t": 293076.62999999925,
      "d": 461.53800000000047,
      "v": 127
    },
    {
      "midi": 59,
      "hit": false,
      "t": 293076.62999999925,
      "d": 461.53800000000047,
      "v": 127
    },
    {
      "midi": 66,
      "hit": false,
      "t": 293192.0144999891,
      "d": 115.38449999998556,
      "v": 127
    },
    {
      "midi": 65,
      "hit": false,
      "t": 293422.7834999891,
      "d": 115.38449999998556,
      "v": 127
    },
    {
      "midi": 63,
      "hit": false,
      "t": 293538.16799998906,
      "d": 115.38449999998556,
      "v": 127
    },
    {
      "midi": 62,
      "hit": false,
      "t": 293653.55249998905,
      "d": 115.38449999998556,
      "v": 127
    },
    {
      "midi": 65,
      "hit": false,
      "t": 293884.321499989,
      "d": 115.38449999998556,
      "v": 127
    },
    {
      "midi": 68,
      "hit": false,
      "t": 293999.705999989,
      "d": 115.38449999998556,
      "v": 127
    },
    {
      "midi": 46,
      "hit": false,
      "t": 293999.70599999925,
      "d": 461.53800000000047,
      "v": 127
    },
    {
      "midi": 71,
      "hit": false,
      "t": 294115.090499989,
      "d": 115.38449999998556,
      "v": 127
    },
    {
      "midi": 70,
      "hit": false,
      "t": 294345.85949998896,
      "d": 115.38449999998556,
      "v": 127
    },
    {
      "midi": 68,
      "hit": false,
      "t": 294461.24399998895,
      "d": 115.38449999998556,
      "v": 127
    },
    {
      "midi": 53,
      "hit": false,
      "t": 294461.24399999925,
      "d": 461.53800000000047,
      "v": 127
    },
    {
      "midi": 56,
      "hit": false,
      "t": 294461.24399999925,
      "d": 461.53800000000047,
      "v": 127
    },
    {
      "midi": 59,
      "hit": false,
      "t": 294461.24399999925,
      "d": 461.53800000000047,
      "v": 127
    },
    {
      "midi": 66,
      "hit": false,
      "t": 294576.62849998893,
      "d": 115.38449999998556,
      "v": 127
    },
    {
      "midi": 65,
      "hit": false,
      "t": 294807.3974999889,
      "d": 115.38449999998556,
      "v": 127
    },
    {
      "midi": 63,
      "hit": false,
      "t": 294922.7819999889,
      "d": 115.38449999998556,
      "v": 127
    },
    {
      "midi": 62,
      "hit": false,
      "t": 295038.1664999889,
      "d": 115.38449999998556,
      "v": 127
    },
    {
      "midi": 65,
      "hit": false,
      "t": 295268.93549998885,
      "d": 115.38449999998556,
      "v": 127
    },
    {
      "midi": 68,
      "hit": false,
      "t": 295384.31999998883,
      "d": 115.38449999998556,
      "v": 127
    },
    {
      "midi": 46,
      "hit": false,
      "t": 295384.31999999925,
      "d": 461.53800000000047,
      "v": 127
    },
    {
      "midi": 71,
      "hit": false,
      "t": 295499.7044999888,
      "d": 115.38449999998556,
      "v": 127
    },
    {
      "midi": 70,
      "hit": false,
      "t": 295730.4734999888,
      "d": 115.38449999998556,
      "v": 127
    },
    {
      "midi": 68,
      "hit": false,
      "t": 295845.8579999888,
      "d": 115.38449999998556,
      "v": 127
    },
    {
      "midi": 53,
      "hit": false,
      "t": 295845.85799999925,
      "d": 461.53800000000047,
      "v": 127
    },
    {
      "midi": 56,
      "hit": false,
      "t": 295845.85799999925,
      "d": 461.53800000000047,
      "v": 127
    },
    {
      "midi": 59,
      "hit": false,
      "t": 295845.85799999925,
      "d": 461.53800000000047,
      "v": 127
    },
    {
      "midi": 66,
      "hit": false,
      "t": 295961.24249998876,
      "d": 115.38449999998556,
      "v": 127
    },
    {
      "midi": 65,
      "hit": false,
      "t": 296192.01149998873,
      "d": 115.38449999998556,
      "v": 127
    },
    {
      "midi": 63,
      "hit": false,
      "t": 296307.3959999887,
      "d": 115.38449999998556,
      "v": 127
    },
    {
      "midi": 62,
      "hit": false,
      "t": 296422.7804999887,
      "d": 115.38449999998556,
      "v": 127
    },
    {
      "midi": 65,
      "hit": false,
      "t": 296653.5494999887,
      "d": 115.38449999998556,
      "v": 127
    },
    {
      "midi": 68,
      "hit": false,
      "t": 296768.93399998866,
      "d": 115.38449999998556,
      "v": 127
    },
    {
      "midi": 71,
      "hit": false,
      "t": 296884.31849998864,
      "d": 115.38449999998556,
      "v": 127
    },
    {
      "midi": 74,
      "hit": false,
      "t": 297115.0874999886,
      "d": 115.38449999998556,
      "v": 127
    },
    {
      "midi": 71,
      "hit": false,
      "t": 297230.4719999886,
      "d": 115.38449999998556,
      "v": 127
    },
    {
      "midi": 74,
      "hit": false,
      "t": 297345.8564999886,
      "d": 115.38449999998556,
      "v": 127
    },
    {
      "midi": 77,
      "hit": false,
      "t": 297576.62549998856,
      "d": 115.38449999998556,
      "v": 127
    },
    {
      "midi": 74,
      "hit": false,
      "t": 297692.00999998854,
      "d": 115.38449999998556,
      "v": 127
    },
    {
      "midi": 77,
      "hit": false,
      "t": 297807.3944999885,
      "d": 115.38449999998556,
      "v": 127
    },
    {
      "midi": 78,
      "hit": false,
      "t": 298038.1634999885,
      "d": 115.38449999998556,
      "v": 127
    },
    {
      "midi": 80,
      "hit": false,
      "t": 298153.5479999885,
      "d": 115.38449999998556,
      "v": 127
    },
    {
      "midi": 58,
      "hit": false,
      "t": 298153.54799999925,
      "d": 461.53800000000047,
      "v": 127
    },
    {
      "midi": 83,
      "hit": false,
      "t": 298268.93249998847,
      "d": 115.38449999998556,
      "v": 127
    },
    {
      "midi": 82,
      "hit": false,
      "t": 298499.70149998844,
      "d": 115.38449999998556,
      "v": 127
    },
    {
      "midi": 80,
      "hit": false,
      "t": 298615.0859999884,
      "d": 115.38449999998556,
      "v": 127
    },
    {
      "midi": 65,
      "hit": false,
      "t": 298615.08599999925,
      "d": 461.53800000000047,
      "v": 127
    },
    {
      "midi": 68,
      "hit": false,
      "t": 298615.08599999925,
      "d": 461.53800000000047,
      "v": 127
    },
    {
      "midi": 71,
      "hit": false,
      "t": 298615.08599999925,
      "d": 461.53800000000047,
      "v": 127
    },
    {
      "midi": 78,
      "hit": false,
      "t": 298730.4704999884,
      "d": 115.38449999998556,
      "v": 127
    },
    {
      "midi": 77,
      "hit": false,
      "t": 298961.2394999884,
      "d": 115.38449999998556,
      "v": 127
    },
    {
      "midi": 75,
      "hit": false,
      "t": 299076.62399998837,
      "d": 115.38449999998556,
      "v": 127
    },
    {
      "midi": 74,
      "hit": false,
      "t": 299192.00849998835,
      "d": 115.38449999998556,
      "v": 127
    },
    {
      "midi": 77,
      "hit": false,
      "t": 299422.7774999883,
      "d": 115.38449999998556,
      "v": 127
    },
    {
      "midi": 80,
      "hit": false,
      "t": 299538.1619999883,
      "d": 115.38449999998556,
      "v": 127
    },
    {
      "midi": 58,
      "hit": false,
      "t": 299538.16199999925,
      "d": 461.53800000000047,
      "v": 127
    },
    {
      "midi": 83,
      "hit": false,
      "t": 299653.5464999883,
      "d": 115.38449999998556,
      "v": 127
    },
    {
      "midi": 82,
      "hit": false,
      "t": 299884.31549998827,
      "d": 115.38449999998556,
      "v": 127
    },
    {
      "midi": 80,
      "hit": false,
      "t": 299999.69999998825,
      "d": 115.38449999998556,
      "v": 127
    },
    {
      "midi": 71,
      "hit": false,
      "t": 299999.69999999925,
      "d": 461.53800000000047,
      "v": 127
    },
    {
      "midi": 78,
      "hit": false,
      "t": 300115.08449998824,
      "d": 115.38449999998556,
      "v": 127
    },
    {
      "midi": 77,
      "hit": false,
      "t": 300345.8534999882,
      "d": 115.38449999998556,
      "v": 127
    },
    {
      "midi": 75,
      "hit": false,
      "t": 300461.2379999882,
      "d": 115.38449999998556,
      "v": 127
    },
    {
      "midi": 74,
      "hit": false,
      "t": 300576.6224999882,
      "d": 115.38449999998556,
      "v": 127
    },
    {
      "midi": 77,
      "hit": false,
      "t": 300807.39149998815,
      "d": 115.38449999998556,
      "v": 127
    },
    {
      "midi": 80,
      "hit": false,
      "t": 300922.77599998814,
      "d": 115.38449999998556,
      "v": 127
    },
    {
      "midi": 83,
      "hit": false,
      "t": 301038.1604999881,
      "d": 115.38449999998556,
      "v": 127
    },
    {
      "midi": 80,
      "hit": false,
      "t": 301268.9294999881,
      "d": 115.38449999998556,
      "v": 127
    },
    {
      "midi": 83,
      "hit": false,
      "t": 301384.3139999881,
      "d": 115.38449999998556,
      "v": 127
    },
    {
      "midi": 80,
      "hit": false,
      "t": 301499.69849998807,
      "d": 115.38449999998556,
      "v": 127
    },
    {
      "midi": 83,
      "hit": false,
      "t": 301730.46749998804,
      "d": 115.38449999998556,
      "v": 127
    },
    {
      "midi": 80,
      "hit": false,
      "t": 301845.851999988,
      "d": 115.38449999998556,
      "v": 127
    },
    {
      "midi": 83,
      "hit": false,
      "t": 301961.236499988,
      "d": 115.38449999998556,
      "v": 127
    },
    {
      "midi": 80,
      "hit": false,
      "t": 302192.005499988,
      "d": 115.38449999998556,
      "v": 127
    },
    {
      "midi": 82,
      "hit": false,
      "t": 302307.38999998796,
      "d": 115.38449999998556,
      "v": 127
    },
    {
      "midi": 70,
      "hit": false,
      "t": 302307.38999999926,
      "d": 923.0760000000009,
      "v": 127
    },
    {
      "midi": 80,
      "hit": false,
      "t": 302422.77449998795,
      "d": 115.38449999998556,
      "v": 127
    },
    {
      "midi": 82,
      "hit": false,
      "t": 302653.5434999879,
      "d": 115.38449999998556,
      "v": 127
    },
    {
      "midi": 80,
      "hit": false,
      "t": 302768.9279999879,
      "d": 115.38449999998556,
      "v": 127
    },
    {
      "midi": 82,
      "hit": false,
      "t": 302884.3124999879,
      "d": 115.38449999998556,
      "v": 127
    },
    {
      "midi": 80,
      "hit": false,
      "t": 303115.08149998786,
      "d": 115.38449999998556,
      "v": 127
    },
    {
      "midi": 82,
      "hit": false,
      "t": 303230.46599998785,
      "d": 115.38449999998556,
      "v": 127
    },
    {
      "midi": 80,
      "hit": false,
      "t": 303345.85049998784,
      "d": 115.38449999998556,
      "v": 127
    },
    {
      "midi": 82,
      "hit": false,
      "t": 303576.6194999878,
      "d": 115.38449999998556,
      "v": 127
    },
    {
      "midi": 79,
      "hit": false,
      "t": 303692.0039999878,
      "d": 115.38449999998556,
      "v": 127
    },
    {
      "midi": 51,
      "hit": false,
      "t": 303692.00399999926,
      "d": 461.53800000000047,
      "v": 127
    },
    {
      "midi": 82,
      "hit": false,
      "t": 303807.3884999878,
      "d": 115.38449999998556,
      "v": 127
    },
    {
      "midi": 80,
      "hit": false,
      "t": 304038.15749998775,
      "d": 115.38449999998556,
      "v": 127
    },
    {
      "midi": 79,
      "hit": false,
      "t": 304153.54199998773,
      "d": 115.38449999998556,
      "v": 127
    },
    {
      "midi": 58,
      "hit": false,
      "t": 304153.54199999926,
      "d": 461.53800000000047,
      "v": 127
    },
    {
      "midi": 77,
      "hit": false,
      "t": 304268.9264999877,
      "d": 115.38449999998556,
      "v": 127
    },
    {
      "midi": 75,
      "hit": false,
      "t": 304499.6954999877,
      "d": 115.38449999998556,
      "v": 127
    },
    {
      "midi": 74,
      "hit": false,
      "t": 304615.0799999877,
      "d": 115.38449999998556,
      "v": 127
    },
    {
      "midi": 72,
      "hit": false,
      "t": 304730.46449998766,
      "d": 115.38449999998556,
      "v": 127
    },
    {
      "midi": 70,
      "hit": false,
      "t": 304961.23349998763,
      "d": 115.38449999998556,
      "v": 127
    },
    {
      "midi": 68,
      "hit": false,
      "t": 305076.6179999876,
      "d": 115.38449999998556,
      "v": 127
    },
    {
      "midi": 53,
      "hit": false,
      "t": 305076.61799999926,
      "d": 461.53800000000047,
      "v": 127
    },
    {
      "midi": 67,
      "hit": false,
      "t": 305192.0024999876,
      "d": 115.38449999998556,
      "v": 127
    },
    {
      "midi": 65,
      "hit": false,
      "t": 305422.7714999876,
      "d": 115.38449999998556,
      "v": 127
    },
    {
      "midi": 63,
      "hit": false,
      "t": 305538.15599998756,
      "d": 115.38449999998556,
      "v": 127
    },
    {
      "midi": 58,
      "hit": false,
      "t": 305538.15599999926,
      "d": 461.53800000000047,
      "v": 127
    },
    {
      "midi": 62,
      "hit": false,
      "t": 305653.54049998755,
      "d": 115.38449999998556,
      "v": 127
    },
    {
      "midi": 60,
      "hit": false,
      "t": 305884.3094999875,
      "d": 115.38449999998556,
      "v": 127
    },
    {
      "midi": 58,
      "hit": false,
      "t": 305999.6939999875,
      "d": 115.38449999998556,
      "v": 127
    },
    {
      "midi": 60,
      "hit": false,
      "t": 306115.0784999875,
      "d": 115.38449999998556,
      "v": 127
    },
    {
      "midi": 62,
      "hit": false,
      "t": 306345.84749998746,
      "d": 115.38449999998556,
      "v": 127
    },
    {
      "midi": 63,
      "hit": false,
      "t": 306461.23199998745,
      "d": 115.38449999998556,
      "v": 127
    },
    {
      "midi": 55,
      "hit": false,
      "t": 306461.23199999926,
      "d": 461.53800000000047,
      "v": 127
    },
    {
      "midi": 62,
      "hit": false,
      "t": 306576.61649998743,
      "d": 115.38449999998556,
      "v": 127
    },
    {
      "midi": 63,
      "hit": false,
      "t": 306807.3854999874,
      "d": 115.38449999998556,
      "v": 127
    },
    {
      "midi": 64,
      "hit": false,
      "t": 306922.7699999874,
      "d": 115.38449999998556,
      "v": 127
    },
    {
      "midi": 58,
      "hit": false,
      "t": 306922.76999999926,
      "d": 461.53800000000047,
      "v": 127
    },
    {
      "midi": 63,
      "hit": false,
      "t": 307038.1544999874,
      "d": 115.38449999998556,
      "v": 127
    },
    {
      "midi": 64,
      "hit": false,
      "t": 307268.92349998734,
      "d": 115.38449999998556,
      "v": 127
    },
    {
      "midi": 65,
      "hit": false,
      "t": 307384.30799998733,
      "d": 115.38449999998556,
      "v": 127
    },
    {
      "midi": 64,
      "hit": false,
      "t": 307499.6924999873,
      "d": 115.38449999998556,
      "v": 127
    },
    {
      "midi": 65,
      "hit": false,
      "t": 307730.4614999873,
      "d": 115.38449999998556,
      "v": 127
    },
    {
      "midi": 66,
      "hit": false,
      "t": 307845.8459999873,
      "d": 115.38449999998556,
      "v": 127
    },
    {
      "midi": 50,
      "hit": false,
      "t": 307845.84599999926,
      "d": 461.53800000000047,
      "v": 127
    },
    {
      "midi": 65,
      "hit": false,
      "t": 307961.23049998726,
      "d": 115.38449999998556,
      "v": 127
    },
    {
      "midi": 66,
      "hit": false,
      "t": 308191.9994999872,
      "d": 115.38449999998556,
      "v": 127
    },
    {
      "midi": 67,
      "hit": false,
      "t": 308307.3839999872,
      "d": 115.38449999998556,
      "v": 127
    },
    {
      "midi": 58,
      "hit": false,
      "t": 308307.38399999926,
      "d": 461.53800000000047,
      "v": 127
    },
    {
      "midi": 66,
      "hit": false,
      "t": 308422.7684999872,
      "d": 115.38449999998556,
      "v": 127
    },
    {
      "midi": 67,
      "hit": false,
      "t": 308653.5374999872,
      "d": 115.38449999998556,
      "v": 127
    },
    {
      "midi": 68,
      "hit": false,
      "t": 308768.92199998716,
      "d": 115.38449999998556,
      "v": 127
    },
    {
      "midi": 67,
      "hit": false,
      "t": 308884.30649998714,
      "d": 115.38449999998556,
      "v": 127
    },
    {
      "midi": 68,
      "hit": false,
      "t": 309115.0754999871,
      "d": 115.38449999998556,
      "v": 127
    },
    {
      "midi": 67,
      "hit": false,
      "t": 309230.4599999871,
      "d": 115.38449999998556,
      "v": 127
    },
    {
      "midi": 51,
      "hit": false,
      "t": 309230.45999999926,
      "d": 461.53800000000047,
      "v": 127
    },
    {
      "midi": 70,
      "hit": false,
      "t": 309345.8444999871,
      "d": 115.38449999998556,
      "v": 127
    },
    {
      "midi": 68,
      "hit": false,
      "t": 309576.61349998706,
      "d": 115.38449999998556,
      "v": 127
    },
    {
      "midi": 67,
      "hit": false,
      "t": 309691.99799998704,
      "d": 115.38449999998556,
      "v": 127
    },
    {
      "midi": 58,
      "hit": false,
      "t": 309691.99799999926,
      "d": 461.53800000000047,
      "v": 127
    },
    {
      "midi": 68,
      "hit": false,
      "t": 309807.382499987,
      "d": 115.38449999998556,
      "v": 127
    },
    {
      "midi": 70,
      "hit": false,
      "t": 310038.151499987,
      "d": 115.38449999998556,
      "v": 127
    },
    {
      "midi": 72,
      "hit": false,
      "t": 310153.535999987,
      "d": 115.38449999998556,
      "v": 127
    },
    {
      "midi": 74,
      "hit": false,
      "t": 310268.92049998697,
      "d": 115.38449999998556,
      "v": 127
    },
    {
      "midi": 75,
      "hit": false,
      "t": 310499.68949998694,
      "d": 115.38449999998556,
      "v": 127
    },
    {
      "midi": 77,
      "hit": false,
      "t": 310615.0739999869,
      "d": 115.38449999998556,
      "v": 127
    },
    {
      "midi": 44,
      "hit": false,
      "t": 310615.07399999927,
      "d": 461.53800000000047,
      "v": 127
    },
    {
      "midi": 84,
      "hit": false,
      "t": 310730.4584999869,
      "d": 115.38449999998556,
      "v": 127
    },
    {
      "midi": 82,
      "hit": false,
      "t": 310961.2274999869,
      "d": 115.38449999998556,
      "v": 127
    },
    {
      "midi": 80,
      "hit": false,
      "t": 311076.61199998687,
      "d": 115.38449999998556,
      "v": 127
    },
    {
      "midi": 56,
      "hit": false,
      "t": 311076.61199999927,
      "d": 461.53800000000047,
      "v": 127
    },
    {
      "midi": 60,
      "hit": false,
      "t": 311076.61199999927,
      "d": 461.53800000000047,
      "v": 127
    },
    {
      "midi": 79,
      "hit": false,
      "t": 311191.99649998685,
      "d": 115.38449999998556,
      "v": 127
    },
    {
      "midi": 77,
      "hit": false,
      "t": 311422.7654999868,
      "d": 115.38449999998556,
      "v": 127
    },
    {
      "midi": 75,
      "hit": false,
      "t": 311538.1499999868,
      "d": 115.38449999998556,
      "v": 127
    },
    {
      "midi": 74,
      "hit": false,
      "t": 311653.5344999868,
      "d": 115.38449999998556,
      "v": 127
    },
    {
      "midi": 72,
      "hit": false,
      "t": 311884.30349998677,
      "d": 115.38449999998556,
      "v": 127
    },
    {
      "midi": 74,
      "hit": false,
      "t": 311999.68799998675,
      "d": 115.38449999998556,
      "v": 127
    },
    {
      "midi": 46,
      "hit": false,
      "t": 311999.68799999927,
      "d": 461.53800000000047,
      "v": 127
    },
    {
      "midi": 77,
      "hit": false,
      "t": 312115.07249998674,
      "d": 115.38449999998556,
      "v": 127
    },
    {
      "midi": 75,
      "hit": false,
      "t": 312345.8414999867,
      "d": 115.38449999998556,
      "v": 127
    },
    {
      "midi": 74,
      "hit": false,
      "t": 312461.2259999867,
      "d": 115.38449999998556,
      "v": 127
    },
    {
      "midi": 56,
      "hit": false,
      "t": 312461.22599999927,
      "d": 461.53800000000047,
      "v": 127
    },
    {
      "midi": 58,
      "hit": false,
      "t": 312461.22599999927,
      "d": 461.53800000000047,
      "v": 127
    },
    {
      "midi": 65,
      "hit": false,
      "t": 312461.22599999927,
      "d": 461.53800000000047,
      "v": 127
    },
    {
      "midi": 75,
      "hit": false,
      "t": 312576.6104999867,
      "d": 115.38449999998556,
      "v": 127
    },
    {
      "midi": 77,
      "hit": false,
      "t": 312807.37949998665,
      "d": 115.38449999998556,
      "v": 127
    },
    {
      "midi": 79,
      "hit": false,
      "t": 312922.76399998664,
      "d": 115.38449999998556,
      "v": 127
    },
    {
      "midi": 80,
      "hit": false,
      "t": 313038.1484999866,
      "d": 115.38449999998556,
      "v": 127
    },
    {
      "midi": 82,
      "hit": false,
      "t": 313268.9174999866,
      "d": 115.38449999998556,
      "v": 127
    },
    {
      "midi": 75,
      "hit": false,
      "t": 313384.3019999866,
      "d": 115.38449999998556,
      "v": 127
    },
    {
      "midi": 51,
      "hit": false,
      "t": 313384.30199999927,
      "d": 461.53800000000047,
      "v": 127
    },
    {
      "midi": 77,
      "hit": false,
      "t": 313499.68649998656,
      "d": 115.38449999998556,
      "v": 127
    },
    {
      "midi": 79,
      "hit": false,
      "t": 313730.45549998654,
      "d": 115.38449999998556,
      "v": 127
    },
    {
      "midi": 80,
      "hit": false,
      "t": 313845.8399999865,
      "d": 115.38449999998556,
      "v": 127
    },
    {
      "midi": 55,
      "hit": false,
      "t": 313845.83999999927,
      "d": 461.53800000000047,
      "v": 127
    },
    {
      "midi": 58,
      "hit": false,
      "t": 313845.83999999927,
      "d": 461.53800000000047,
      "v": 127
    },
    {
      "midi": 63,
      "hit": false,
      "t": 313845.83999999927,
      "d": 461.53800000000047,
      "v": 127
    },
    {
      "midi": 82,
      "hit": false,
      "t": 313961.2244999865,
      "d": 115.38449999998556,
      "v": 127
    },
    {
      "midi": 84,
      "hit": false,
      "t": 314191.9934999865,
      "d": 115.38449999998556,
      "v": 127
    },
    {
      "midi": 86,
      "hit": false,
      "t": 314307.37799998646,
      "d": 115.38449999998556,
      "v": 127
    },
    {
      "midi": 87,
      "hit": false,
      "t": 314422.76249998645,
      "d": 115.38449999998556,
      "v": 127
    },
    {
      "midi": 89,
      "hit": false,
      "t": 314653.5314999864,
      "d": 115.38449999998556,
      "v": 127
    },
    {
      "midi": 91,
      "hit": false,
      "t": 314768.9159999864,
      "d": 115.38449999998556,
      "v": 127
    },
    {
      "midi": 51,
      "hit": false,
      "t": 314768.91599999927,
      "d": 461.53800000000047,
      "v": 127
    },
    {
      "midi": 94,
      "hit": false,
      "t": 314884.3004999864,
      "d": 115.38449999998556,
      "v": 127
    },
    {
      "midi": 92,
      "hit": false,
      "t": 315115.06949998636,
      "d": 115.38449999998556,
      "v": 127
    },
    {
      "midi": 91,
      "hit": false,
      "t": 315230.45399998635,
      "d": 115.38449999998556,
      "v": 127
    },
    {
      "midi": 58,
      "hit": false,
      "t": 315230.45399999927,
      "d": 461.53800000000047,
      "v": 127
    },
    {
      "midi": 89,
      "hit": false,
      "t": 315345.83849998633,
      "d": 115.38449999998556,
      "v": 127
    },
    {
      "midi": 87,
      "hit": false,
      "t": 315576.6074999863,
      "d": 115.38449999998556,
      "v": 127
    },
    {
      "midi": 86,
      "hit": false,
      "t": 315691.9919999863,
      "d": 115.38449999998556,
      "v": 127
    },
    {
      "midi": 84,
      "hit": false,
      "t": 315807.3764999863,
      "d": 115.38449999998556,
      "v": 127
    },
    {
      "midi": 82,
      "hit": false,
      "t": 316038.14549998625,
      "d": 115.38449999998556,
      "v": 127
    },
    {
      "midi": 80,
      "hit": false,
      "t": 316153.52999998623,
      "d": 115.38449999998556,
      "v": 127
    },
    {
      "midi": 53,
      "hit": false,
      "t": 316153.5299999993,
      "d": 461.53800000000047,
      "v": 127
    },
    {
      "midi": 79,
      "hit": false,
      "t": 316268.9144999862,
      "d": 115.38449999998556,
      "v": 127
    },
    {
      "midi": 77,
      "hit": false,
      "t": 316499.6834999862,
      "d": 115.38449999998556,
      "v": 127
    },
    {
      "midi": 75,
      "hit": false,
      "t": 316615.0679999862,
      "d": 115.38449999998556,
      "v": 127
    },
    {
      "midi": 58,
      "hit": false,
      "t": 316615.0679999993,
      "d": 461.53800000000047,
      "v": 127
    },
    {
      "midi": 74,
      "hit": false,
      "t": 316730.45249998616,
      "d": 115.38449999998556,
      "v": 127
    },
    {
      "midi": 72,
      "hit": false,
      "t": 316961.22149998613,
      "d": 115.38449999998556,
      "v": 127
    },
    {
      "midi": 70,
      "hit": false,
      "t": 317076.6059999861,
      "d": 115.38449999998556,
      "v": 127
    },
    {
      "midi": 72,
      "hit": false,
      "t": 317191.9904999861,
      "d": 115.38449999998556,
      "v": 127
    },
    {
      "midi": 74,
      "hit": false,
      "t": 317422.7594999861,
      "d": 115.38449999998556,
      "v": 127
    },
    {
      "midi": 75,
      "hit": false,
      "t": 317538.14399998606,
      "d": 115.38449999998556,
      "v": 127
    },
    {
      "midi": 55,
      "hit": false,
      "t": 317538.1439999993,
      "d": 461.53800000000047,
      "v": 127
    },
    {
      "midi": 74,
      "hit": false,
      "t": 317653.52849998605,
      "d": 115.38449999998556,
      "v": 127
    },
    {
      "midi": 75,
      "hit": false,
      "t": 317884.297499986,
      "d": 115.38449999998556,
      "v": 127
    },
    {
      "midi": 76,
      "hit": false,
      "t": 317999.681999986,
      "d": 115.38449999998556,
      "v": 127
    },
    {
      "midi": 58,
      "hit": false,
      "t": 317999.6819999993,
      "d": 461.53800000000047,
      "v": 127
    },
    {
      "midi": 75,
      "hit": false,
      "t": 318115.066499986,
      "d": 115.38449999998556,
      "v": 127
    },
    {
      "midi": 76,
      "hit": false,
      "t": 318345.83549998596,
      "d": 115.38449999998556,
      "v": 127
    },
    {
      "midi": 77,
      "hit": false,
      "t": 318461.21999998594,
      "d": 115.38449999998556,
      "v": 127
    },
    {
      "midi": 76,
      "hit": false,
      "t": 318576.60449998593,
      "d": 115.38449999998556,
      "v": 127
    },
    {
      "midi": 77,
      "hit": false,
      "t": 318807.3734999859,
      "d": 115.38449999998556,
      "v": 127
    },
    {
      "midi": 78,
      "hit": false,
      "t": 318922.7579999859,
      "d": 115.38449999998556,
      "v": 127
    },
    {
      "midi": 50,
      "hit": false,
      "t": 318922.7579999993,
      "d": 461.53800000000047,
      "v": 127
    },
    {
      "midi": 77,
      "hit": false,
      "t": 319038.1424999859,
      "d": 115.38449999998556,
      "v": 127
    },
    {
      "midi": 78,
      "hit": false,
      "t": 319268.91149998584,
      "d": 115.38449999998556,
      "v": 127
    },
    {
      "midi": 79,
      "hit": false,
      "t": 319384.2959999858,
      "d": 115.38449999998556,
      "v": 127
    },
    {
      "midi": 58,
      "hit": false,
      "t": 319384.2959999993,
      "d": 461.53800000000047,
      "v": 127
    },
    {
      "midi": 78,
      "hit": false,
      "t": 319499.6804999858,
      "d": 115.38449999998556,
      "v": 127
    },
    {
      "midi": 79,
      "hit": false,
      "t": 319730.4494999858,
      "d": 115.38449999998556,
      "v": 127
    },
    {
      "midi": 80,
      "hit": false,
      "t": 319845.83399998577,
      "d": 115.38449999998556,
      "v": 127
    },
    {
      "midi": 79,
      "hit": false,
      "t": 319961.21849998576,
      "d": 115.38449999998556,
      "v": 127
    },
    {
      "midi": 80,
      "hit": false,
      "t": 320191.9874999857,
      "d": 115.38449999998556,
      "v": 127
    },
    {
      "midi": 79,
      "hit": false,
      "t": 320307.3719999857,
      "d": 115.38449999998556,
      "v": 127
    },
    {
      "midi": 49,
      "hit": false,
      "t": 320307.3719999993,
      "d": 461.53800000000047,
      "v": 127
    },
    {
      "midi": 78,
      "hit": false,
      "t": 320422.7564999857,
      "d": 115.38449999998556,
      "v": 127
    },
    {
      "midi": 79,
      "hit": false,
      "t": 320653.52549998567,
      "d": 115.38449999998556,
      "v": 127
    },
    {
      "midi": 80,
      "hit": false,
      "t": 320768.90999998566,
      "d": 115.38449999998556,
      "v": 127
    },
    {
      "midi": 51,
      "hit": false,
      "t": 320768.9099999993,
      "d": 461.53800000000047,
      "v": 127
    },
    {
      "midi": 58,
      "hit": false,
      "t": 320768.9099999993,
      "d": 461.53800000000047,
      "v": 127
    },
    {
      "midi": 79,
      "hit": false,
      "t": 320884.29449998564,
      "d": 115.38449999998556,
      "v": 127
    },
    {
      "midi": 80,
      "hit": false,
      "t": 321115.0634999856,
      "d": 115.38449999998556,
      "v": 127
    },
    {
      "midi": 82,
      "hit": false,
      "t": 321230.4479999856,
      "d": 115.38449999998556,
      "v": 127
    },
    {
      "midi": 80,
      "hit": false,
      "t": 321345.8324999856,
      "d": 115.38449999998556,
      "v": 127
    },
    {
      "midi": 82,
      "hit": false,
      "t": 321576.60149998555,
      "d": 115.38449999998556,
      "v": 127
    },
    {
      "midi": 80,
      "hit": false,
      "t": 321691.98599998554,
      "d": 115.38449999998556,
      "v": 127
    },
    {
      "midi": 48,
      "hit": false,
      "t": 321691.9859999993,
      "d": 461.53800000000047,
      "v": 127
    },
    {
      "midi": 79,
      "hit": false,
      "t": 321807.3704999855,
      "d": 115.38449999998556,
      "v": 127
    },
    {
      "midi": 80,
      "hit": false,
      "t": 322038.1394999855,
      "d": 115.38449999998556,
      "v": 127
    },
    {
      "midi": 82,
      "hit": false,
      "t": 322153.5239999855,
      "d": 115.38449999998556,
      "v": 127
    },
    {
      "midi": 51,
      "hit": false,
      "t": 322153.5239999993,
      "d": 461.53800000000047,
      "v": 127
    },
    {
      "midi": 56,
      "hit": false,
      "t": 322153.5239999993,
      "d": 461.53800000000047,
      "v": 127
    },
    {
      "midi": 80,
      "hit": false,
      "t": 322268.90849998547,
      "d": 115.38449999998556,
      "v": 127
    },
    {
      "midi": 82,
      "hit": false,
      "t": 322499.67749998544,
      "d": 115.38449999998556,
      "v": 127
    },
    {
      "midi": 84,
      "hit": false,
      "t": 322615.0619999854,
      "d": 115.38449999998556,
      "v": 127
    },
    {
      "midi": 83,
      "hit": false,
      "t": 322730.4464999854,
      "d": 115.38449999998556,
      "v": 127
    },
    {
      "midi": 84,
      "hit": false,
      "t": 322961.2154999854,
      "d": 115.38449999998556,
      "v": 127
    },
    {
      "midi": 86,
      "hit": false,
      "t": 323076.59999998537,
      "d": 115.38449999998556,
      "v": 127
    },
    {
      "midi": 48,
      "hit": false,
      "t": 323076.5999999993,
      "d": 461.53800000000047,
      "v": 127
    },
    {
      "midi": 85,
      "hit": false,
      "t": 323191.98449998535,
      "d": 115.38449999998556,
      "v": 127
    },
    {
      "midi": 86,
      "hit": false,
      "t": 323422.7534999853,
      "d": 115.38449999998556,
      "v": 127
    },
    {
      "midi": 88,
      "hit": false,
      "t": 323538.1379999853,
      "d": 115.38449999998556,
      "v": 127
    },
    {
      "midi": 50,
      "hit": false,
      "t": 323538.1379999993,
      "d": 461.53800000000047,
      "v": 127
    },
    {
      "midi": 57,
      "hit": false,
      "t": 323538.1379999993,
      "d": 461.53800000000047,
      "v": 127
    },
    {
      "midi": 86,
      "hit": false,
      "t": 323653.5224999853,
      "d": 115.38449999998556,
      "v": 127
    },
    {
      "midi": 88,
      "hit": false,
      "t": 323884.29149998527,
      "d": 115.38449999998556,
      "v": 127
    },
    {
      "midi": 90,
      "hit": false,
      "t": 323999.67599998525,
      "d": 115.38449999998556,
      "v": 127
    },
    {
      "midi": 88,
      "hit": false,
      "t": 324115.06049998524,
      "d": 115.38449999998556,
      "v": 127
    },
    {
      "midi": 90,
      "hit": false,
      "t": 324345.8294999852,
      "d": 115.38449999998556,
      "v": 127
    },
    {
      "midi": 91,
      "hit": false,
      "t": 324461.2139999852,
      "d": 115.38449999998556,
      "v": 127
    },
    {
      "midi": 47,
      "hit": false,
      "t": 324461.2139999993,
      "d": 461.53800000000047,
      "v": 127
    },
    {
      "midi": 90,
      "hit": false,
      "t": 324576.5984999852,
      "d": 115.38449999998556,
      "v": 127
    },
    {
      "midi": 91,
      "hit": false,
      "t": 324807.36749998515,
      "d": 115.38449999998556,
      "v": 127
    },
    {
      "midi": 93,
      "hit": false,
      "t": 324922.75199998514,
      "d": 115.38449999998556,
      "v": 127
    },
    {
      "midi": 50,
      "hit": false,
      "t": 324922.7519999993,
      "d": 461.53800000000047,
      "v": 127
    },
    {
      "midi": 55,
      "hit": false,
      "t": 324922.7519999993,
      "d": 461.53800000000047,
      "v": 127
    },
    {
      "midi": 91,
      "hit": false,
      "t": 325038.1364999851,
      "d": 115.38449999998556,
      "v": 127
    },
    {
      "midi": 93,
      "hit": false,
      "t": 325268.9054999851,
      "d": 115.38449999998556,
      "v": 127
    },
    {
      "midi": 95,
      "hit": false,
      "t": 325384.2899999851,
      "d": 115.38449999998556,
      "v": 127
    },
    {
      "midi": 93,
      "hit": false,
      "t": 325499.67449998506,
      "d": 115.38449999998556,
      "v": 127
    },
    {
      "midi": 95,
      "hit": false,
      "t": 325730.44349998503,
      "d": 115.38449999998556,
      "v": 127
    },
    {
      "midi": 96,
      "hit": false,
      "t": 325845.827999985,
      "d": 115.38449999998556,
      "v": 127
    },
    {
      "midi": 46,
      "hit": false,
      "t": 325845.8279999993,
      "d": 461.53800000000047,
      "v": 127
    },
    {
      "midi": 95,
      "hit": false,
      "t": 325961.212499985,
      "d": 115.38449999998556,
      "v": 127
    },
    {
      "midi": 96,
      "hit": false,
      "t": 326191.981499985,
      "d": 115.38449999998556,
      "v": 127
    },
    {
      "midi": 98,
      "hit": false,
      "t": 326307.36599998496,
      "d": 115.38449999998556,
      "v": 127
    },
    {
      "midi": 48,
      "hit": false,
      "t": 326307.3659999993,
      "d": 461.53800000000047,
      "v": 127
    },
    {
      "midi": 55,
      "hit": false,
      "t": 326307.3659999993,
      "d": 461.53800000000047,
      "v": 127
    },
    {
      "midi": 96,
      "hit": false,
      "t": 326422.75049998495,
      "d": 115.38449999998556,
      "v": 127
    },
    {
      "midi": 98,
      "hit": false,
      "t": 326653.5194999849,
      "d": 115.38449999998556,
      "v": 127
    },
    {
      "midi": 100,
      "hit": false,
      "t": 326768.9039999849,
      "d": 115.38449999998556,
      "v": 127
    },
    {
      "midi": 98,
      "hit": false,
      "t": 326884.2884999849,
      "d": 115.38449999998556,
      "v": 127
    },
    {
      "midi": 100,
      "hit": false,
      "t": 327115.05749998486,
      "d": 115.38449999998556,
      "v": 127
    },
    {
      "midi": 101,
      "hit": false,
      "t": 327230.44199998485,
      "d": 115.38449999998556,
      "v": 127
    },
    {
      "midi": 44,
      "hit": false,
      "t": 327230.4419999993,
      "d": 461.53800000000047,
      "v": 127
    },
    {
      "midi": 99,
      "hit": false,
      "t": 327345.82649998483,
      "d": 115.38449999998556,
      "v": 127
    },
    {
      "midi": 97,
      "hit": false,
      "t": 327576.5954999848,
      "d": 115.38449999998556,
      "v": 127
    },
    {
      "midi": 96,
      "hit": false,
      "t": 327691.9799999848,
      "d": 115.38449999998556,
      "v": 127
    },
    {
      "midi": 48,
      "hit": false,
      "t": 327691.9799999993,
      "d": 461.53800000000047,
      "v": 127
    },
    {
      "midi": 53,
      "hit": false,
      "t": 327691.9799999993,
      "d": 461.53800000000047,
      "v": 127
    },
    {
      "midi": 94,
      "hit": false,
      "t": 327807.3644999848,
      "d": 115.38449999998556,
      "v": 127
    },
    {
      "midi": 92,
      "hit": false,
      "t": 328038.13349998475,
      "d": 115.38449999998556,
      "v": 127
    },
    {
      "midi": 91,
      "hit": false,
      "t": 328153.51799998473,
      "d": 115.38449999998556,
      "v": 127
    },
    {
      "midi": 89,
      "hit": false,
      "t": 328268.9024999847,
      "d": 115.38449999998556,
      "v": 127
    },
    {
      "midi": 87,
      "hit": false,
      "t": 328499.6714999847,
      "d": 115.38449999998556,
      "v": 127
    },
    {
      "midi": 86,
      "hit": false,
      "t": 328615.0559999847,
      "d": 115.38449999998556,
      "v": 127
    },
    {
      "midi": 46,
      "hit": false,
      "t": 328615.0559999993,
      "d": 461.53800000000047,
      "v": 127
    },
    {
      "midi": 84,
      "hit": false,
      "t": 328730.44049998466,
      "d": 115.38449999998556,
      "v": 127
    },
    {
      "midi": 82,
      "hit": false,
      "t": 328961.20949998463,
      "d": 115.38449999998556,
      "v": 127
    },
    {
      "midi": 81,
      "hit": false,
      "t": 329076.5939999846,
      "d": 115.38449999998556,
      "v": 127
    },
    {
      "midi": 53,
      "hit": false,
      "t": 329076.5939999993,
      "d": 461.53800000000047,
      "v": 127
    },
    {
      "midi": 56,
      "hit": false,
      "t": 329076.5939999993,
      "d": 461.53800000000047,
      "v": 127
    },
    {
      "midi": 82,
      "hit": false,
      "t": 329191.9784999846,
      "d": 115.38449999998556,
      "v": 127
    },
    {
      "midi": 84,
      "hit": false,
      "t": 329422.7474999846,
      "d": 115.38449999998556,
      "v": 127
    },
    {
      "midi": 86,
      "hit": false,
      "t": 329538.13199998456,
      "d": 115.38449999998556,
      "v": 127
    },
    {
      "midi": 87,
      "hit": false,
      "t": 329653.51649998454,
      "d": 115.38449999998556,
      "v": 127
    },
    {
      "midi": 89,
      "hit": false,
      "t": 329884.2854999845,
      "d": 115.38449999998556,
      "v": 127
    },
    {
      "midi": 90,
      "hit": false,
      "t": 329999.6699999845,
      "d": 115.38449999998556,
      "v": 127
    },
    {
      "midi": 51,
      "hit": false,
      "t": 329999.6699999993,
      "d": 461.53800000000047,
      "v": 127
    },
    {
      "midi": 94,
      "hit": false,
      "t": 330115.0544999845,
      "d": 115.38449999998556,
      "v": 127
    },
    {
      "midi": 92,
      "hit": false,
      "t": 330345.82349998446,
      "d": 115.38449999998556,
      "v": 127
    },
    {
      "midi": 90,
      "hit": false,
      "t": 330461.20799998444,
      "d": 115.38449999998556,
      "v": 127
    },
    {
      "midi": 63,
      "hit": false,
      "t": 330461.2079999993,
      "d": 461.53800000000047,
      "v": 127
    },
    {
      "midi": 89,
      "hit": false,
      "t": 330576.5924999844,
      "d": 115.38449999998556,
      "v": 127
    },
    {
      "midi": 87,
      "hit": false,
      "t": 330807.3614999844,
      "d": 115.38449999998556,
      "v": 127
    },
    {
      "midi": 85,
      "hit": false,
      "t": 330922.7459999844,
      "d": 115.38449999998556,
      "v": 127
    },
    {
      "midi": 83,
      "hit": false,
      "t": 331038.13049998437,
      "d": 115.38449999998556,
      "v": 127
    },
    {
      "midi": 82,
      "hit": false,
      "t": 331268.89949998434,
      "d": 115.38449999998556,
      "v": 127
    },
    {
      "midi": 83,
      "hit": false,
      "t": 331384.2839999843,
      "d": 115.38449999998556,
      "v": 127
    },
    {
      "midi": 44,
      "hit": false,
      "t": 331384.2839999993,
      "d": 461.53800000000047,
      "v": 127
    },
    {
      "midi": 87,
      "hit": false,
      "t": 331499.6684999843,
      "d": 115.38449999998556,
      "v": 127
    },
    {
      "midi": 85,
      "hit": false,
      "t": 331730.4374999843,
      "d": 115.38449999998556,
      "v": 127
    },
    {
      "midi": 83,
      "hit": false,
      "t": 331845.82199998427,
      "d": 115.38449999998556,
      "v": 127
    },
    {
      "midi": 56,
      "hit": false,
      "t": 331845.8219999993,
      "d": 461.53800000000047,
      "v": 127
    },
    {
      "midi": 82,
      "hit": false,
      "t": 331961.20649998426,
      "d": 115.38449999998556,
      "v": 127
    },
    {
      "midi": 80,
      "hit": false,
      "t": 332191.9754999842,
      "d": 115.38449999998556,
      "v": 127
    },
    {
      "midi": 78,
      "hit": false,
      "t": 332307.3599999842,
      "d": 115.38449999998556,
      "v": 127
    },
    {
      "midi": 77,
      "hit": false,
      "t": 332422.7444999842,
      "d": 115.38449999998556,
      "v": 127
    },
    {
      "midi": 75,
      "hit": false,
      "t": 332653.51349998417,
      "d": 115.38449999998556,
      "v": 127
    },
    {
      "midi": 74,
      "hit": false,
      "t": 332768.89799998415,
      "d": 115.38449999998556,
      "v": 127
    },
    {
      "midi": 46,
      "hit": false,
      "t": 332768.8979999993,
      "d": 461.53800000000047,
      "v": 127
    },
    {
      "midi": 77,
      "hit": false,
      "t": 332884.28249998414,
      "d": 115.38449999998556,
      "v": 127
    },
    {
      "midi": 75,
      "hit": false,
      "t": 333115.0514999841,
      "d": 115.38449999998556,
      "v": 127
    },
    {
      "midi": 74,
      "hit": false,
      "t": 333230.4359999841,
      "d": 115.38449999998556,
      "v": 127
    },
    {
      "midi": 58,
      "hit": false,
      "t": 333230.4359999993,
      "d": 461.53800000000047,
      "v": 127
    },
    {
      "midi": 71,
      "hit": false,
      "t": 333345.8204999841,
      "d": 115.38449999998556,
      "v": 127
    },
    {
      "midi": 70,
      "hit": false,
      "t": 333576.58949998405,
      "d": 115.38449999998556,
      "v": 127
    },
    {
      "midi": 68,
      "hit": false,
      "t": 333691.97399998404,
      "d": 115.38449999998556,
      "v": 127
    },
    {
      "midi": 66,
      "hit": false,
      "t": 333807.358499984,
      "d": 115.38449999998556,
      "v": 127
    },
    {
      "midi": 65,
      "hit": false,
      "t": 334038.127499984,
      "d": 115.38449999998556,
      "v": 127
    },
    {
      "midi": 78,
      "hit": false,
      "t": 334153.511999984,
      "d": 115.38449999998556,
      "v": 127
    },
    {
      "midi": 39,
      "hit": false,
      "t": 334153.5119999993,
      "d": 461.53800000000047,
      "v": 127
    },
    {
      "midi": 82,
      "hit": false,
      "t": 334268.89649998397,
      "d": 115.38449999998556,
      "v": 127
    },
    {
      "midi": 80,
      "hit": false,
      "t": 334499.66549998394,
      "d": 115.38449999998556,
      "v": 127
    },
    {
      "midi": 78,
      "hit": false,
      "t": 334615.0499999839,
      "d": 115.38449999998556,
      "v": 127
    },
    {
      "midi": 51,
      "hit": false,
      "t": 334615.0499999993,
      "d": 461.53800000000047,
      "v": 127
    },
    {
      "midi": 77,
      "hit": false,
      "t": 334730.4344999839,
      "d": 115.38449999998556,
      "v": 127
    },
    {
      "midi": 75,
      "hit": false,
      "t": 334961.2034999839,
      "d": 115.38449999998556,
      "v": 127
    },
    {
      "midi": 73,
      "hit": false,
      "t": 335076.58799998387,
      "d": 115.38449999998556,
      "v": 127
    },
    {
      "midi": 71,
      "hit": false,
      "t": 335191.97249998385,
      "d": 115.38449999998556,
      "v": 127
    },
    {
      "midi": 70,
      "hit": false,
      "t": 335422.7414999838,
      "d": 115.38449999998556,
      "v": 127
    },
    {
      "midi": 71,
      "hit": false,
      "t": 335538.1259999838,
      "d": 115.38449999998556,
      "v": 127
    },
    {
      "midi": 32,
      "hit": false,
      "t": 335538.1259999993,
      "d": 461.53800000000047,
      "v": 127
    },
    {
      "midi": 75,
      "hit": false,
      "t": 335653.5104999838,
      "d": 115.38449999998556,
      "v": 127
    },
    {
      "midi": 73,
      "hit": false,
      "t": 335884.27949998376,
      "d": 115.38449999998556,
      "v": 127
    },
    {
      "midi": 71,
      "hit": false,
      "t": 335999.66399998375,
      "d": 115.38449999998556,
      "v": 127
    },
    {
      "midi": 44,
      "hit": false,
      "t": 335999.6639999993,
      "d": 461.53800000000047,
      "v": 127
    },
    {
      "midi": 70,
      "hit": false,
      "t": 336115.04849998374,
      "d": 115.38449999998556,
      "v": 127
    },
    {
      "midi": 68,
      "hit": false,
      "t": 336345.8174999837,
      "d": 115.38449999998556,
      "v": 127
    },
    {
      "midi": 66,
      "hit": false,
      "t": 336461.2019999837,
      "d": 115.38449999998556,
      "v": 127
    },
    {
      "midi": 65,
      "hit": false,
      "t": 336576.5864999837,
      "d": 115.38449999998556,
      "v": 127
    },
    {
      "midi": 63,
      "hit": false,
      "t": 336807.35549998365,
      "d": 115.38449999998556,
      "v": 127
    },
    {
      "midi": 62,
      "hit": false,
      "t": 336922.73999998363,
      "d": 115.38449999998556,
      "v": 127
    },
    {
      "midi": 34,
      "hit": false,
      "t": 336922.7399999993,
      "d": 461.53800000000047,
      "v": 127
    },
    {
      "midi": 65,
      "hit": false,
      "t": 337038.1244999836,
      "d": 115.38449999998556,
      "v": 127
    },
    {
      "midi": 63,
      "hit": false,
      "t": 337268.8934999836,
      "d": 115.38449999998556,
      "v": 127
    },
    {
      "midi": 62,
      "hit": false,
      "t": 337384.2779999836,
      "d": 461.53800000000047,
      "v": 127
    },
    {
      "midi": 46,
      "hit": false,
      "t": 337384.2779999993,
      "d": 115.38449999998556,
      "v": 127
    },
    {
      "midi": 59,
      "hit": false,
      "t": 337499.6624999993,
      "d": 115.38449999998556,
      "v": 127
    },
    {
      "midi": 58,
      "hit": false,
      "t": 337730.43149999925,
      "d": 115.38449999998556,
      "v": 127
    },
    {
      "midi": 56,
      "hit": false,
      "t": 337845.81599999923,
      "d": 115.38449999998556,
      "v": 127
    },
    {
      "midi": 54,
      "hit": false,
      "t": 337961.2004999992,
      "d": 115.38449999998556,
      "v": 127
    },
    {
      "midi": 53,
      "hit": false,
      "t": 338191.9694999992,
      "d": 115.38449999998556,
      "v": 127
    },
    {
      "midi": 51,
      "hit": false,
      "t": 338307.3539999992,
      "d": 115.38449999998556,
      "v": 127
    },
    {
      "midi": 53,
      "hit": false,
      "t": 338422.73849999916,
      "d": 115.38449999998556,
      "v": 127
    },
    {
      "midi": 54,
      "hit": false,
      "t": 338653.50749999913,
      "d": 115.38449999998556,
      "v": 127
    },
    {
      "midi": 56,
      "hit": false,
      "t": 338768.8919999991,
      "d": 115.38449999998556,
      "v": 127
    },
    {
      "midi": 59,
      "hit": false,
      "t": 338884.2764999991,
      "d": 115.38449999998556,
      "v": 127
    },
    {
      "midi": 58,
      "hit": false,
      "t": 339115.0454999991,
      "d": 115.38449999998556,
      "v": 127
    },
    {
      "midi": 56,
      "hit": false,
      "t": 339230.42999999906,
      "d": 115.38449999998556,
      "v": 127
    },
    {
      "midi": 54,
      "hit": false,
      "t": 339345.81449999905,
      "d": 115.38449999998556,
      "v": 127
    },
    {
      "midi": 53,
      "hit": false,
      "t": 339576.583499999,
      "d": 115.38449999998556,
      "v": 127
    },
    {
      "midi": 51,
      "hit": false,
      "t": 339691.967999999,
      "d": 115.38449999998556,
      "v": 127
    },
    {
      "midi": 53,
      "hit": false,
      "t": 339807.352499999,
      "d": 115.38449999998556,
      "v": 127
    },
    {
      "midi": 54,
      "hit": false,
      "t": 340038.12149999896,
      "d": 115.38449999998556,
      "v": 127
    },
    {
      "midi": 56,
      "hit": false,
      "t": 340153.50599999895,
      "d": 115.38449999998556,
      "v": 127
    },
    {
      "midi": 59,
      "hit": false,
      "t": 340268.89049999893,
      "d": 115.38449999998556,
      "v": 127
    },
    {
      "midi": 58,
      "hit": false,
      "t": 340499.6594999989,
      "d": 115.38449999998556,
      "v": 127
    },
    {
      "midi": 56,
      "hit": false,
      "t": 340615.0439999989,
      "d": 115.38449999998556,
      "v": 127
    },
    {
      "midi": 54,
      "hit": false,
      "t": 340730.4284999989,
      "d": 115.38449999998556,
      "v": 127
    },
    {
      "midi": 53,
      "hit": false,
      "t": 340961.19749999885,
      "d": 115.38449999998556,
      "v": 127
    },
    {
      "midi": 51,
      "hit": false,
      "t": 341076.58199999883,
      "d": 115.38449999998556,
      "v": 127
    },
    {
      "midi": 53,
      "hit": false,
      "t": 341191.9664999988,
      "d": 115.38449999998556,
      "v": 127
    },
    {
      "midi": 54,
      "hit": false,
      "t": 341422.7354999988,
      "d": 115.38449999998556,
      "v": 127
    },
    {
      "midi": 56,
      "hit": false,
      "t": 341538.1199999988,
      "d": 115.38449999998556,
      "v": 127
    },
    {
      "midi": 59,
      "hit": false,
      "t": 341653.50449999876,
      "d": 115.38449999998556,
      "v": 127
    },
    {
      "midi": 58,
      "hit": false,
      "t": 341884.27349999873,
      "d": 115.38449999998556,
      "v": 127
    },
    {
      "midi": 56,
      "hit": false,
      "t": 341999.6579999987,
      "d": 115.38449999998556,
      "v": 127
    },
    {
      "midi": 54,
      "hit": false,
      "t": 342115.0424999987,
      "d": 115.38449999998556,
      "v": 127
    },
    {
      "midi": 53,
      "hit": false,
      "t": 342345.8114999987,
      "d": 115.38449999998556,
      "v": 127
    },
    {
      "midi": 39,
      "hit": false,
      "t": 342461.19599999866,
      "d": 115.38449999998556,
      "v": 127
    },
    {
      "midi": 51,
      "hit": false,
      "t": 342461.19599999866,
      "d": 115.38449999998556,
      "v": 127
    },
    {
      "midi": 41,
      "hit": false,
      "t": 342576.58049999864,
      "d": 115.38449999998556,
      "v": 127
    },
    {
      "midi": 53,
      "hit": false,
      "t": 342576.58049999864,
      "d": 115.38449999998556,
      "v": 127
    },
    {
      "midi": 42,
      "hit": false,
      "t": 342807.3494999986,
      "d": 115.38449999998556,
      "v": 127
    },
    {
      "midi": 54,
      "hit": false,
      "t": 342807.3494999986,
      "d": 115.38449999998556,
      "v": 127
    },
    {
      "midi": 44,
      "hit": false,
      "t": 342922.7339999986,
      "d": 115.38449999998556,
      "v": 127
    },
    {
      "midi": 56,
      "hit": false,
      "t": 342922.7339999986,
      "d": 115.38449999998556,
      "v": 127
    },
    {
      "midi": 46,
      "hit": false,
      "t": 343038.1184999986,
      "d": 115.38449999998556,
      "v": 127
    },
    {
      "midi": 58,
      "hit": false,
      "t": 343038.1184999986,
      "d": 115.38449999998556,
      "v": 127
    },
    {
      "midi": 48,
      "hit": false,
      "t": 343268.88749999856,
      "d": 115.38449999998556,
      "v": 127
    },
    {
      "midi": 60,
      "hit": false,
      "t": 343268.88749999856,
      "d": 115.38449999998556,
      "v": 127
    },
    {
      "midi": 62,
      "hit": false,
      "t": 343384.2719999836,
      "d": 115.38449999998556,
      "v": 127
    },
    {
      "midi": 50,
      "hit": false,
      "t": 343384.27199999854,
      "d": 115.38449999998556,
      "v": 127
    },
    {
      "midi": 63,
      "hit": false,
      "t": 343499.65649998357,
      "d": 115.38449999998556,
      "v": 127
    },
    {
      "midi": 51,
      "hit": false,
      "t": 343499.6564999985,
      "d": 115.38449999998556,
      "v": 127
    },
    {
      "midi": 65,
      "hit": false,
      "t": 343730.42549998354,
      "d": 115.38449999998556,
      "v": 127
    },
    {
      "midi": 53,
      "hit": false,
      "t": 343730.4254999985,
      "d": 115.38449999998556,
      "v": 127
    },
    {
      "midi": 66,
      "hit": false,
      "t": 343845.8099999835,
      "d": 923.0760000000009,
      "v": 127
    },
    {
      "midi": 54,
      "hit": false,
      "t": 343845.8099999985,
      "d": 923.0760000000009,
      "v": 127
    },
    {
      "midi": 58,
      "hit": false,
      "t": 345230.4239999835,
      "d": 923.0760000000009,
      "v": 127
    },
    {
      "midi": 61,
      "hit": false,
      "t": 345230.4239999835,
      "d": 923.0760000000009,
      "v": 127
    },
    {
      "midi": 66,
      "hit": false,
      "t": 345230.4239999835,
      "d": 923.0760000000009,
      "v": 127
    },
    {
      "midi": 70,
      "hit": false,
      "t": 345230.4239999835,
      "d": 923.0760000000009,
      "v": 127
    },
    {
      "midi": 42,
      "hit": false,
      "t": 345230.4239999985,
      "d": 923.0760000000009,
      "v": 127
    },
    {
      "midi": 54,
      "hit": false,
      "t": 345230.4239999985,
      "d": 923.0760000000009,
      "v": 127
    },
    {
      "midi": 71,
      "hit": false,
      "t": 346615.0379999835,
      "d": 461.53800000000047,
      "v": 127
    },
    {
      "midi": 35,
      "hit": false,
      "t": 346615.0379999985,
      "d": 461.53800000000047,
      "v": 127
    },
    {
      "midi": 59,
      "hit": false,
      "t": 347076.5759999835,
      "d": 115.38449999998556,
      "v": 127
    },
    {
      "midi": 47,
      "hit": false,
      "t": 347076.5759999985,
      "d": 461.53800000000047,
      "v": 127
    },
    {
      "midi": 50,
      "hit": false,
      "t": 347076.5759999985,
      "d": 461.53800000000047,
      "v": 127
    },
    {
      "midi": 54,
      "hit": false,
      "t": 347076.5759999985,
      "d": 461.53800000000047,
      "v": 127
    },
    {
      "midi": 62,
      "hit": false,
      "t": 347191.9604999835,
      "d": 115.38449999998556,
      "v": 127
    },
    {
      "midi": 66,
      "hit": false,
      "t": 347422.7294999835,
      "d": 115.38449999998556,
      "v": 127
    },
    {
      "midi": 59,
      "hit": false,
      "t": 347538.11399998347,
      "d": 461.53800000000047,
      "v": 127
    },
    {
      "midi": 71,
      "hit": false,
      "t": 347999.65199998347,
      "d": 461.53800000000047,
      "v": 127
    },
    {
      "midi": 35,
      "hit": false,
      "t": 347999.6519999985,
      "d": 461.53800000000047,
      "v": 127
    },
    {
      "midi": 59,
      "hit": false,
      "t": 348461.1899999835,
      "d": 115.38449999998556,
      "v": 127
    },
    {
      "midi": 47,
      "hit": false,
      "t": 348461.1899999985,
      "d": 461.53800000000047,
      "v": 127
    },
    {
      "midi": 49,
      "hit": false,
      "t": 348461.1899999985,
      "d": 461.53800000000047,
      "v": 127
    },
    {
      "midi": 52,
      "hit": false,
      "t": 348461.1899999985,
      "d": 461.53800000000047,
      "v": 127
    },
    {
      "midi": 55,
      "hit": false,
      "t": 348461.1899999985,
      "d": 461.53800000000047,
      "v": 127
    },
    {
      "midi": 61,
      "hit": false,
      "t": 348576.57449998346,
      "d": 115.38449999998556,
      "v": 127
    },
    {
      "midi": 67,
      "hit": false,
      "t": 348807.3434999834,
      "d": 115.38449999998556,
      "v": 127
    },
    {
      "midi": 59,
      "hit": false,
      "t": 348922.7279999834,
      "d": 461.53800000000047,
      "v": 127
    },
    {
      "midi": 71,
      "hit": false,
      "t": 349384.2659999834,
      "d": 230.76899999997113,
      "v": 127
    },
    {
      "midi": 50,
      "hit": false,
      "t": 349384.2659999985,
      "d": 230.76899999997113,
      "v": 127
    },
    {
      "midi": 62,
      "hit": false,
      "t": 349615.0349999834,
      "d": 230.76899999997113,
      "v": 127
    },
    {
      "midi": 66,
      "hit": false,
      "t": 349615.0349999834,
      "d": 230.76899999997113,
      "v": 127
    },
    {
      "midi": 54,
      "hit": false,
      "t": 349615.03499999846,
      "d": 230.76899999997113,
      "v": 127
    },
    {
      "midi": 59,
      "hit": false,
      "t": 349615.03499999846,
      "d": 230.76899999997113,
      "v": 127
    },
    {
      "midi": 73,
      "hit": false,
      "t": 349845.80399998336,
      "d": 230.76899999997113,
      "v": 127
    },
    {
      "midi": 49,
      "hit": false,
      "t": 349845.80399999843,
      "d": 230.76899999997113,
      "v": 127
    },
    {
      "midi": 64,
      "hit": false,
      "t": 350076.5729999833,
      "d": 230.76899999997113,
      "v": 127
    },
    {
      "midi": 66,
      "hit": false,
      "t": 350076.5729999833,
      "d": 230.76899999997113,
      "v": 127
    },
    {
      "midi": 54,
      "hit": false,
      "t": 350076.5729999984,
      "d": 230.76899999997113,
      "v": 127
    },
    {
      "midi": 58,
      "hit": false,
      "t": 350076.5729999984,
      "d": 230.76899999997113,
      "v": 127
    },
    {
      "midi": 74,
      "hit": false,
      "t": 350307.3419999833,
      "d": 230.76899999997113,
      "v": 127
    },
    {
      "midi": 47,
      "hit": false,
      "t": 350307.3419999984,
      "d": 230.76899999997113,
      "v": 127
    },
    {
      "midi": 62,
      "hit": false,
      "t": 350538.11099998327,
      "d": 230.76899999997113,
      "v": 127
    },
    {
      "midi": 66,
      "hit": false,
      "t": 350538.11099998327,
      "d": 230.76899999997113,
      "v": 127
    },
    {
      "midi": 54,
      "hit": false,
      "t": 350538.11099999835,
      "d": 230.76899999997113,
      "v": 127
    },
    {
      "midi": 59,
      "hit": false,
      "t": 350538.11099999835,
      "d": 230.76899999997113,
      "v": 127
    },
    {
      "midi": 73,
      "hit": false,
      "t": 350768.87999998324,
      "d": 461.53800000000047,
      "v": 127
    },
    {
      "midi": 42,
      "hit": false,
      "t": 350768.8799999983,
      "d": 461.53800000000047,
      "v": 127
    },
    {
      "midi": 61,
      "hit": false,
      "t": 351230.41799998324,
      "d": 115.38449999998556,
      "v": 127
    },
    {
      "midi": 54,
      "hit": false,
      "t": 351230.4179999983,
      "d": 461.53800000000047,
      "v": 127
    },
    {
      "midi": 58,
      "hit": false,
      "t": 351230.4179999983,
      "d": 461.53800000000047,
      "v": 127
    },
    {
      "midi": 66,
      "hit": false,
      "t": 351345.8024999832,
      "d": 115.38449999998556,
      "v": 127
    },
    {
      "midi": 70,
      "hit": false,
      "t": 351576.5714999832,
      "d": 115.38449999998556,
      "v": 127
    },
    {
      "midi": 61,
      "hit": false,
      "t": 351691.9559999832,
      "d": 461.53800000000047,
      "v": 127
    },
    {
      "midi": 74,
      "hit": false,
      "t": 352153.4939999832,
      "d": 461.53800000000047,
      "v": 127
    },
    {
      "midi": 46,
      "hit": false,
      "t": 352153.4939999983,
      "d": 461.53800000000047,
      "v": 127
    },
    {
      "midi": 62,
      "hit": false,
      "t": 352615.0319999832,
      "d": 115.38449999998556,
      "v": 127
    },
    {
      "midi": 53,
      "hit": false,
      "t": 352615.0319999983,
      "d": 461.53800000000047,
      "v": 127
    },
    {
      "midi": 56,
      "hit": false,
      "t": 352615.0319999983,
      "d": 461.53800000000047,
      "v": 127
    },
    {
      "midi": 58,
      "hit": false,
      "t": 352615.0319999983,
      "d": 461.53800000000047,
      "v": 127
    },
    {
      "midi": 65,
      "hit": false,
      "t": 352730.41649998317,
      "d": 115.38449999998556,
      "v": 127
    },
    {
      "midi": 70,
      "hit": false,
      "t": 352961.18549998314,
      "d": 115.38449999998556,
      "v": 127
    },
    {
      "midi": 62,
      "hit": false,
      "t": 353076.5699999831,
      "d": 461.53800000000047,
      "v": 127
    },
    {
      "midi": 75,
      "hit": false,
      "t": 353538.1079999831,
      "d": 461.53800000000047,
      "v": 127
    },
    {
      "midi": 39,
      "hit": false,
      "t": 353538.1079999983,
      "d": 461.53800000000047,
      "v": 127
    },
    {
      "midi": 63,
      "hit": false,
      "t": 353999.6459999831,
      "d": 115.38449999998556,
      "v": 127
    },
    {
      "midi": 51,
      "hit": false,
      "t": 353999.6459999983,
      "d": 461.53800000000047,
      "v": 127
    },
    {
      "midi": 54,
      "hit": false,
      "t": 353999.6459999983,
      "d": 461.53800000000047,
      "v": 127
    },
    {
      "midi": 58,
      "hit": false,
      "t": 353999.6459999983,
      "d": 461.53800000000047,
      "v": 127
    },
    {
      "midi": 66,
      "hit": false,
      "t": 354115.0304999831,
      "d": 115.38449999998556,
      "v": 127
    },
    {
      "midi": 70,
      "hit": false,
      "t": 354345.7994999831,
      "d": 115.38449999998556,
      "v": 127
    },
    {
      "midi": 63,
      "hit": false,
      "t": 354461.18399998307,
      "d": 461.53800000000047,
      "v": 127
    },
    {
      "midi": 65,
      "hit": false,
      "t": 354922.72199998307,
      "d": 230.76899999997113,
      "v": 127
    },
    {
      "midi": 46,
      "hit": false,
      "t": 354922.7219999983,
      "d": 461.53800000000047,
      "v": 127
    },
    {
      "midi": 77,
      "hit": false,
      "t": 355153.49099998304,
      "d": 230.76899999997113,
      "v": 127
    },
    {
      "midi": 66,
      "hit": false,
      "t": 355384.259999983,
      "d": 230.76899999997113,
      "v": 127
    },
    {
      "midi": 56,
      "hit": false,
      "t": 355384.2599999983,
      "d": 461.53800000000047,
      "v": 127
    },
    {
      "midi": 58,
      "hit": false,
      "t": 355384.2599999983,
      "d": 461.53800000000047,
      "v": 127
    },
    {
      "midi": 62,
      "hit": false,
      "t": 355384.2599999983,
      "d": 461.53800000000047,
      "v": 127
    },
    {
      "midi": 78,
      "hit": false,
      "t": 355615.028999983,
      "d": 230.76899999997113,
      "v": 127
    },
    {
      "midi": 65,
      "hit": false,
      "t": 355845.79799998295,
      "d": 230.76899999997113,
      "v": 127
    },
    {
      "midi": 46,
      "hit": false,
      "t": 355845.7979999983,
      "d": 461.53800000000047,
      "v": 127
    },
    {
      "midi": 77,
      "hit": false,
      "t": 356076.5669999829,
      "d": 230.76899999997113,
      "v": 127
    },
    {
      "midi": 75,
      "hit": false,
      "t": 356307.3359999829,
      "d": 461.53800000000047,
      "v": 127
    },
    {
      "midi": 51,
      "hit": false,
      "t": 356307.3359999983,
      "d": 461.53800000000047,
      "v": 127
    },
    {
      "midi": 63,
      "hit": false,
      "t": 356768.8739999829,
      "d": 115.38449999998556,
      "v": 127
    },
    {
      "midi": 54,
      "hit": false,
      "t": 356768.8739999983,
      "d": 461.53800000000047,
      "v": 127
    },
    {
      "midi": 58,
      "hit": false,
      "t": 356768.8739999983,
      "d": 461.53800000000047,
      "v": 127
    },
    {
      "midi": 66,
      "hit": false,
      "t": 356884.2584999829,
      "d": 115.38449999998556,
      "v": 127
    },
    {
      "midi": 70,
      "hit": false,
      "t": 357115.02749998285,
      "d": 115.38449999998556,
      "v": 127
    },
    {
      "midi": 63,
      "hit": false,
      "t": 357230.41199998284,
      "d": 461.53800000000047,
      "v": 127
    },
    {
      "midi": 83,
      "hit": false,
      "t": 357691.94999998284,
      "d": 461.53800000000047,
      "v": 127
    },
    {
      "midi": 35,
      "hit": false,
      "t": 357691.9499999983,
      "d": 461.53800000000047,
      "v": 127
    },
    {
      "midi": 71,
      "hit": false,
      "t": 358153.48799998284,
      "d": 115.38449999998556,
      "v": 127
    },
    {
      "midi": 47,
      "hit": false,
      "t": 358153.4879999983,
      "d": 461.53800000000047,
      "v": 127
    },
    {
      "midi": 50,
      "hit": false,
      "t": 358153.4879999983,
      "d": 461.53800000000047,
      "v": 127
    },
    {
      "midi": 54,
      "hit": false,
      "t": 358153.4879999983,
      "d": 461.53800000000047,
      "v": 127
    },
    {
      "midi": 74,
      "hit": false,
      "t": 358268.8724999828,
      "d": 115.38449999998556,
      "v": 127
    },
    {
      "midi": 78,
      "hit": false,
      "t": 358499.6414999828,
      "d": 115.38449999998556,
      "v": 127
    },
    {
      "midi": 71,
      "hit": false,
      "t": 358615.0259999828,
      "d": 461.53800000000047,
      "v": 127
    },
    {
      "midi": 83,
      "hit": false,
      "t": 359076.5639999828,
      "d": 461.53800000000047,
      "v": 127
    },
    {
      "midi": 35,
      "hit": false,
      "t": 359076.5639999983,
      "d": 461.53800000000047,
      "v": 127
    },
    {
      "midi": 71,
      "hit": false,
      "t": 359538.1019999828,
      "d": 115.38449999998556,
      "v": 127
    },
    {
      "midi": 47,
      "hit": false,
      "t": 359538.1019999983,
      "d": 461.53800000000047,
      "v": 127
    },
    {
      "midi": 49,
      "hit": false,
      "t": 359538.1019999983,
      "d": 461.53800000000047,
      "v": 127
    },
    {
      "midi": 52,
      "hit": false,
      "t": 359538.1019999983,
      "d": 461.53800000000047,
      "v": 127
    },
    {
      "midi": 55,
      "hit": false,
      "t": 359538.1019999983,
      "d": 461.53800000000047,
      "v": 127
    },
    {
      "midi": 73,
      "hit": false,
      "t": 359653.48649998277,
      "d": 115.38449999998556,
      "v": 127
    },
    {
      "midi": 79,
      "hit": false,
      "t": 359884.25549998274,
      "d": 115.38449999998556,
      "v": 127
    },
    {
      "midi": 71,
      "hit": false,
      "t": 359999.6399999827,
      "d": 461.53800000000047,
      "v": 127
    },
    {
      "midi": 83,
      "hit": false,
      "t": 360461.1779999827,
      "d": 230.76899999997113,
      "v": 127
    },
    {
      "midi": 50,
      "hit": false,
      "t": 360461.1779999983,
      "d": 230.76899999997113,
      "v": 127
    },
    {
      "midi": 74,
      "hit": false,
      "t": 360691.9469999827,
      "d": 230.76899999997113,
      "v": 127
    },
    {
      "midi": 78,
      "hit": false,
      "t": 360691.9469999827,
      "d": 230.76899999997113,
      "v": 127
    },
    {
      "midi": 54,
      "hit": false,
      "t": 360691.9469999983,
      "d": 230.76899999997113,
      "v": 127
    },
    {
      "midi": 59,
      "hit": false,
      "t": 360691.9469999983,
      "d": 230.76899999997113,
      "v": 127
    },
    {
      "midi": 85,
      "hit": false,
      "t": 360922.71599998267,
      "d": 230.76899999997113,
      "v": 127
    },
    {
      "midi": 49,
      "hit": false,
      "t": 360922.71599999827,
      "d": 230.76899999997113,
      "v": 127
    },
    {
      "midi": 76,
      "hit": false,
      "t": 361153.48499998264,
      "d": 230.76899999997113,
      "v": 127
    },
    {
      "midi": 78,
      "hit": false,
      "t": 361153.48499998264,
      "d": 230.76899999997113,
      "v": 127
    },
    {
      "midi": 54,
      "hit": false,
      "t": 361153.48499999824,
      "d": 230.76899999997113,
      "v": 127
    },
    {
      "midi": 58,
      "hit": false,
      "t": 361153.48499999824,
      "d": 230.76899999997113,
      "v": 127
    },
    {
      "midi": 86,
      "hit": false,
      "t": 361384.2539999826,
      "d": 230.76899999997113,
      "v": 127
    },
    {
      "midi": 47,
      "hit": false,
      "t": 361384.2539999982,
      "d": 230.76899999997113,
      "v": 127
    },
    {
      "midi": 74,
      "hit": false,
      "t": 361615.0229999826,
      "d": 230.76899999997113,
      "v": 127
    },
    {
      "midi": 78,
      "hit": false,
      "t": 361615.0229999826,
      "d": 230.76899999997113,
      "v": 127
    },
    {
      "midi": 54,
      "hit": false,
      "t": 361615.0229999982,
      "d": 230.76899999997113,
      "v": 127
    },
    {
      "midi": 59,
      "hit": false,
      "t": 361615.0229999982,
      "d": 230.76899999997113,
      "v": 127
    },
    {
      "midi": 85,
      "hit": false,
      "t": 361845.79199998255,
      "d": 461.53800000000047,
      "v": 127
    },
    {
      "midi": 42,
      "hit": false,
      "t": 361845.79199999815,
      "d": 461.53800000000047,
      "v": 127
    },
    {
      "midi": 73,
      "hit": false,
      "t": 362307.32999998255,
      "d": 115.38449999998556,
      "v": 127
    },
    {
      "midi": 54,
      "hit": false,
      "t": 362307.32999999815,
      "d": 461.53800000000047,
      "v": 127
    },
    {
      "midi": 58,
      "hit": false,
      "t": 362307.32999999815,
      "d": 461.53800000000047,
      "v": 127
    },
    {
      "midi": 78,
      "hit": false,
      "t": 362422.71449998254,
      "d": 115.38449999998556,
      "v": 127
    },
    {
      "midi": 82,
      "hit": false,
      "t": 362653.4834999825,
      "d": 115.38449999998556,
      "v": 127
    },
    {
      "midi": 73,
      "hit": false,
      "t": 362768.8679999825,
      "d": 461.53800000000047,
      "v": 127
    },
    {
      "midi": 86,
      "hit": false,
      "t": 363230.4059999825,
      "d": 461.53800000000047,
      "v": 127
    },
    {
      "midi": 46,
      "hit": false,
      "t": 363230.40599999815,
      "d": 461.53800000000047,
      "v": 127
    },
    {
      "midi": 74,
      "hit": false,
      "t": 363691.9439999825,
      "d": 115.38449999998556,
      "v": 127
    },
    {
      "midi": 53,
      "hit": false,
      "t": 363691.94399999816,
      "d": 461.53800000000047,
      "v": 127
    },
    {
      "midi": 56,
      "hit": false,
      "t": 363691.94399999816,
      "d": 461.53800000000047,
      "v": 127
    },
    {
      "midi": 58,
      "hit": false,
      "t": 363691.94399999816,
      "d": 461.53800000000047,
      "v": 127
    },
    {
      "midi": 77,
      "hit": false,
      "t": 363807.3284999825,
      "d": 115.38449999998556,
      "v": 127
    },
    {
      "midi": 82,
      "hit": false,
      "t": 364038.09749998245,
      "d": 115.38449999998556,
      "v": 127
    },
    {
      "midi": 74,
      "hit": false,
      "t": 364153.48199998244,
      "d": 461.53800000000047,
      "v": 127
    },
    {
      "midi": 87,
      "hit": false,
      "t": 364615.01999998244,
      "d": 461.53800000000047,
      "v": 127
    },
    {
      "midi": 39,
      "hit": false,
      "t": 364615.01999999816,
      "d": 461.53800000000047,
      "v": 127
    },
    {
      "midi": 75,
      "hit": false,
      "t": 365076.55799998244,
      "d": 115.38449999998556,
      "v": 127
    },
    {
      "midi": 51,
      "hit": false,
      "t": 365076.55799999816,
      "d": 461.53800000000047,
      "v": 127
    },
    {
      "midi": 54,
      "hit": false,
      "t": 365076.55799999816,
      "d": 461.53800000000047,
      "v": 127
    },
    {
      "midi": 58,
      "hit": false,
      "t": 365076.55799999816,
      "d": 461.53800000000047,
      "v": 127
    },
    {
      "midi": 78,
      "hit": false,
      "t": 365191.9424999824,
      "d": 115.38449999998556,
      "v": 127
    },
    {
      "midi": 82,
      "hit": false,
      "t": 365422.7114999824,
      "d": 115.38449999998556,
      "v": 127
    },
    {
      "midi": 75,
      "hit": false,
      "t": 365538.0959999824,
      "d": 461.53800000000047,
      "v": 127
    },
    {
      "midi": 77,
      "hit": false,
      "t": 365999.6339999824,
      "d": 230.76899999997113,
      "v": 127
    },
    {
      "midi": 82,
      "hit": false,
      "t": 365999.6339999824,
      "d": 230.76899999997113,
      "v": 127
    },
    {
      "midi": 86,
      "hit": false,
      "t": 365999.6339999824,
      "d": 230.76899999997113,
      "v": 127
    },
    {
      "midi": 46,
      "hit": false,
      "t": 365999.63399999816,
      "d": 461.53800000000047,
      "v": 127
    },
    {
      "midi": 89,
      "hit": false,
      "t": 366230.40299998235,
      "d": 230.76899999997113,
      "v": 127
    },
    {
      "midi": 78,
      "hit": false,
      "t": 366461.1719999823,
      "d": 230.76899999997113,
      "v": 127
    },
    {
      "midi": 82,
      "hit": false,
      "t": 366461.1719999823,
      "d": 230.76899999997113,
      "v": 127
    },
    {
      "midi": 86,
      "hit": false,
      "t": 366461.1719999823,
      "d": 230.76899999997113,
      "v": 127
    },
    {
      "midi": 56,
      "hit": false,
      "t": 366461.17199999816,
      "d": 461.53800000000047,
      "v": 127
    },
    {
      "midi": 58,
      "hit": false,
      "t": 366461.17199999816,
      "d": 461.53800000000047,
      "v": 127
    },
    {
      "midi": 62,
      "hit": false,
      "t": 366461.17199999816,
      "d": 461.53800000000047,
      "v": 127
    },
    {
      "midi": 90,
      "hit": false,
      "t": 366691.9409999823,
      "d": 230.76899999997113,
      "v": 127
    },
    {
      "midi": 77,
      "hit": false,
      "t": 366922.70999998227,
      "d": 230.76899999997113,
      "v": 127
    },
    {
      "midi": 82,
      "hit": false,
      "t": 366922.70999998227,
      "d": 230.76899999997113,
      "v": 127
    },
    {
      "midi": 86,
      "hit": false,
      "t": 366922.70999998227,
      "d": 230.76899999997113,
      "v": 127
    },
    {
      "midi": 46,
      "hit": false,
      "t": 366922.70999999816,
      "d": 461.53800000000047,
      "v": 127
    },
    {
      "midi": 89,
      "hit": false,
      "t": 367153.47899998224,
      "d": 230.76899999997113,
      "v": 127
    },
    {
      "midi": 87,
      "hit": false,
      "t": 367384.2479999822,
      "d": 461.53800000000047,
      "v": 127
    },
    {
      "midi": 51,
      "hit": false,
      "t": 367384.24799999816,
      "d": 461.53800000000047,
      "v": 127
    },
    {
      "midi": 75,
      "hit": false,
      "t": 367845.7859999822,
      "d": 115.38449999998556,
      "v": 127
    },
    {
      "midi": 54,
      "hit": false,
      "t": 367845.78599999816,
      "d": 461.53800000000047,
      "v": 127
    },
    {
      "midi": 58,
      "hit": false,
      "t": 367845.78599999816,
      "d": 461.53800000000047,
      "v": 127
    },
    {
      "midi": 63,
      "hit": false,
      "t": 367845.78599999816,
      "d": 461.53800000000047,
      "v": 127
    },
    {
      "midi": 78,
      "hit": false,
      "t": 367961.1704999822,
      "d": 115.38449999998556,
      "v": 127
    },
    {
      "midi": 82,
      "hit": false,
      "t": 368191.93949998217,
      "d": 115.38449999998556,
      "v": 127
    },
    {
      "midi": 75,
      "hit": false,
      "t": 368307.32399998215,
      "d": 461.53800000000047,
      "v": 127
    },
    {
      "midi": 94,
      "hit": false,
      "t": 368768.86199998215,
      "d": 461.53800000000047,
      "v": 127
    },
    {
      "midi": 46,
      "hit": false,
      "t": 368768.86199999816,
      "d": 461.53800000000047,
      "v": 127
    },
    {
      "midi": 82,
      "hit": false,
      "t": 369230.39999998215,
      "d": 115.38449999998556,
      "v": 127
    },
    {
      "midi": 58,
      "hit": false,
      "t": 369230.39999999816,
      "d": 461.53800000000047,
      "v": 127
    },
    {
      "midi": 62,
      "hit": false,
      "t": 369230.39999999816,
      "d": 461.53800000000047,
      "v": 127
    },
    {
      "midi": 65,
      "hit": false,
      "t": 369230.39999999816,
      "d": 461.53800000000047,
      "v": 127
    },
    {
      "midi": 68,
      "hit": false,
      "t": 369230.39999999816,
      "d": 461.53800000000047,
      "v": 127
    },
    {
      "midi": 89,
      "hit": false,
      "t": 369345.78449998214,
      "d": 115.38449999998556,
      "v": 127
    },
    {
      "midi": 92,
      "hit": false,
      "t": 369576.5534999821,
      "d": 115.38449999998556,
      "v": 127
    },
    {
      "midi": 82,
      "hit": false,
      "t": 369691.9379999821,
      "d": 461.53800000000047,
      "v": 127
    },
    {
      "midi": 94,
      "hit": false,
      "t": 370153.4759999821,
      "d": 461.53800000000047,
      "v": 127
    },
    {
      "midi": 51,
      "hit": false,
      "t": 370153.47599999816,
      "d": 461.53800000000047,
      "v": 127
    },
    {
      "midi": 82,
      "hit": false,
      "t": 370615.0139999821,
      "d": 115.38449999998556,
      "v": 127
    },
    {
      "midi": 58,
      "hit": false,
      "t": 370615.01399999816,
      "d": 461.53800000000047,
      "v": 127
    },
    {
      "midi": 63,
      "hit": false,
      "t": 370615.01399999816,
      "d": 461.53800000000047,
      "v": 127
    },
    {
      "midi": 66,
      "hit": false,
      "t": 370615.01399999816,
      "d": 461.53800000000047,
      "v": 127
    },
    {
      "midi": 87,
      "hit": false,
      "t": 370730.3984999821,
      "d": 115.38449999998556,
      "v": 127
    },
    {
      "midi": 90,
      "hit": false,
      "t": 370961.16749998205,
      "d": 115.38449999998556,
      "v": 127
    },
    {
      "midi": 82,
      "hit": false,
      "t": 371076.55199998204,
      "d": 461.53800000000047,
      "v": 127
    },
    {
      "midi": 80,
      "hit": false,
      "t": 371538.08999998204,
      "d": 230.76899999997113,
      "v": 127
    },
    {
      "midi": 89,
      "hit": false,
      "t": 371538.08999998204,
      "d": 230.76899999997113,
      "v": 127
    },
    {
      "midi": 56,
      "hit": false,
      "t": 371538.08999999816,
      "d": 461.53800000000047,
      "v": 127
    },
    {
      "midi": 59,
      "hit": false,
      "t": 371538.08999999816,
      "d": 461.53800000000047,
      "v": 127
    },
    {
      "midi": 65,
      "hit": false,
      "t": 371538.08999999816,
      "d": 461.53800000000047,
      "v": 127
    },
    {
      "midi": 92,
      "hit": false,
      "t": 371768.858999982,
      "d": 230.76899999997113,
      "v": 127
    },
    {
      "midi": 78,
      "hit": false,
      "t": 371999.627999982,
      "d": 230.76899999997113,
      "v": 127
    },
    {
      "midi": 87,
      "hit": false,
      "t": 371999.627999982,
      "d": 230.76899999997113,
      "v": 127
    },
    {
      "midi": 58,
      "hit": false,
      "t": 371999.62799999816,
      "d": 461.53800000000047,
      "v": 127
    },
    {
      "midi": 63,
      "hit": false,
      "t": 371999.62799999816,
      "d": 461.53800000000047,
      "v": 127
    },
    {
      "midi": 66,
      "hit": false,
      "t": 371999.62799999816,
      "d": 461.53800000000047,
      "v": 127
    },
    {
      "midi": 90,
      "hit": false,
      "t": 372230.39699998195,
      "d": 230.76899999997113,
      "v": 127
    },
    {
      "midi": 77,
      "hit": false,
      "t": 372461.1659999819,
      "d": 230.76899999997113,
      "v": 127
    },
    {
      "midi": 86,
      "hit": false,
      "t": 372461.1659999819,
      "d": 230.76899999997113,
      "v": 127
    },
    {
      "midi": 58,
      "hit": false,
      "t": 372461.16599999816,
      "d": 461.53800000000047,
      "v": 127
    },
    {
      "midi": 65,
      "hit": false,
      "t": 372461.16599999816,
      "d": 461.53800000000047,
      "v": 127
    },
    {
      "midi": 68,
      "hit": false,
      "t": 372461.16599999816,
      "d": 461.53800000000047,
      "v": 127
    },
    {
      "midi": 89,
      "hit": false,
      "t": 372691.9349999819,
      "d": 230.76899999997113,
      "v": 127
    },
    {
      "midi": 87,
      "hit": false,
      "t": 372922.70399998187,
      "d": 461.53800000000047,
      "v": 127
    },
    {
      "midi": 51,
      "hit": false,
      "t": 372922.70399999816,
      "d": 461.53800000000047,
      "v": 127
    },
    {
      "midi": 75,
      "hit": false,
      "t": 373384.24199998187,
      "d": 115.38449999998556,
      "v": 127
    },
    {
      "midi": 58,
      "hit": false,
      "t": 373384.24199999816,
      "d": 461.53800000000047,
      "v": 127
    },
    {
      "midi": 63,
      "hit": false,
      "t": 373384.24199999816,
      "d": 461.53800000000047,
      "v": 127
    },
    {
      "midi": 66,
      "hit": false,
      "t": 373384.24199999816,
      "d": 461.53800000000047,
      "v": 127
    },
    {
      "midi": 78,
      "hit": false,
      "t": 373499.62649998185,
      "d": 115.38449999998556,
      "v": 127
    },
    {
      "midi": 82,
      "hit": false,
      "t": 373730.3954999818,
      "d": 115.38449999998556,
      "v": 127
    },
    {
      "midi": 75,
      "hit": false,
      "t": 373845.7799999818,
      "d": 461.53800000000047,
      "v": 127
    },
    {
      "midi": 94,
      "hit": false,
      "t": 374307.3179999818,
      "d": 461.53800000000047,
      "v": 127
    },
    {
      "midi": 46,
      "hit": false,
      "t": 374307.31799999817,
      "d": 461.53800000000047,
      "v": 127
    },
    {
      "midi": 82,
      "hit": false,
      "t": 374768.8559999818,
      "d": 115.38449999998556,
      "v": 127
    },
    {
      "midi": 58,
      "hit": false,
      "t": 374768.85599999817,
      "d": 461.53800000000047,
      "v": 127
    },
    {
      "midi": 62,
      "hit": false,
      "t": 374768.85599999817,
      "d": 461.53800000000047,
      "v": 127
    },
    {
      "midi": 65,
      "hit": false,
      "t": 374768.85599999817,
      "d": 461.53800000000047,
      "v": 127
    },
    {
      "midi": 68,
      "hit": false,
      "t": 374768.85599999817,
      "d": 461.53800000000047,
      "v": 127
    },
    {
      "midi": 89,
      "hit": false,
      "t": 374884.2404999818,
      "d": 115.38449999998556,
      "v": 127
    },
    {
      "midi": 92,
      "hit": false,
      "t": 375115.00949998177,
      "d": 115.38449999998556,
      "v": 127
    },
    {
      "midi": 82,
      "hit": false,
      "t": 375230.39399998175,
      "d": 461.53800000000047,
      "v": 127
    },
    {
      "midi": 94,
      "hit": false,
      "t": 375691.93199998175,
      "d": 461.53800000000047,
      "v": 127
    },
    {
      "midi": 51,
      "hit": false,
      "t": 375691.93199999817,
      "d": 461.53800000000047,
      "v": 127
    },
    {
      "midi": 82,
      "hit": false,
      "t": 376153.46999998175,
      "d": 115.38449999998556,
      "v": 127
    },
    {
      "midi": 58,
      "hit": false,
      "t": 376153.46999999817,
      "d": 461.53800000000047,
      "v": 127
    },
    {
      "midi": 63,
      "hit": false,
      "t": 376153.46999999817,
      "d": 461.53800000000047,
      "v": 127
    },
    {
      "midi": 66,
      "hit": false,
      "t": 376153.46999999817,
      "d": 461.53800000000047,
      "v": 127
    },
    {
      "midi": 87,
      "hit": false,
      "t": 376268.85449998174,
      "d": 115.38449999998556,
      "v": 127
    },
    {
      "midi": 90,
      "hit": false,
      "t": 376499.6234999817,
      "d": 115.38449999998556,
      "v": 127
    },
    {
      "midi": 82,
      "hit": false,
      "t": 376615.0079999817,
      "d": 461.53800000000047,
      "v": 127
    },
    {
      "midi": 80,
      "hit": false,
      "t": 377076.5459999817,
      "d": 230.76899999997113,
      "v": 127
    },
    {
      "midi": 89,
      "hit": false,
      "t": 377076.5459999817,
      "d": 230.76899999997113,
      "v": 127
    },
    {
      "midi": 56,
      "hit": false,
      "t": 377076.54599999817,
      "d": 461.53800000000047,
      "v": 127
    },
    {
      "midi": 59,
      "hit": false,
      "t": 377076.54599999817,
      "d": 461.53800000000047,
      "v": 127
    },
    {
      "midi": 65,
      "hit": false,
      "t": 377076.54599999817,
      "d": 461.53800000000047,
      "v": 127
    },
    {
      "midi": 92,
      "hit": false,
      "t": 377307.31499998167,
      "d": 230.76899999997113,
      "v": 127
    },
    {
      "midi": 78,
      "hit": false,
      "t": 377538.08399998164,
      "d": 230.76899999997113,
      "v": 127
    },
    {
      "midi": 87,
      "hit": false,
      "t": 377538.08399998164,
      "d": 230.76899999997113,
      "v": 127
    },
    {
      "midi": 58,
      "hit": false,
      "t": 377538.08399999817,
      "d": 461.53800000000047,
      "v": 127
    },
    {
      "midi": 63,
      "hit": false,
      "t": 377538.08399999817,
      "d": 461.53800000000047,
      "v": 127
    },
    {
      "midi": 66,
      "hit": false,
      "t": 377538.08399999817,
      "d": 461.53800000000047,
      "v": 127
    },
    {
      "midi": 90,
      "hit": false,
      "t": 377768.8529999816,
      "d": 230.76899999997113,
      "v": 127
    },
    {
      "midi": 77,
      "hit": false,
      "t": 377999.6219999816,
      "d": 230.76899999997113,
      "v": 127
    },
    {
      "midi": 86,
      "hit": false,
      "t": 377999.6219999816,
      "d": 230.76899999997113,
      "v": 127
    },
    {
      "midi": 58,
      "hit": false,
      "t": 377999.62199999817,
      "d": 461.53800000000047,
      "v": 127
    },
    {
      "midi": 65,
      "hit": false,
      "t": 377999.62199999817,
      "d": 461.53800000000047,
      "v": 127
    },
    {
      "midi": 68,
      "hit": false,
      "t": 377999.62199999817,
      "d": 461.53800000000047,
      "v": 127
    },
    {
      "midi": 89,
      "hit": false,
      "t": 378230.39099998155,
      "d": 230.76899999997113,
      "v": 127
    },
    {
      "midi": 87,
      "hit": false,
      "t": 378461.1599999815,
      "d": 461.53800000000047,
      "v": 127
    },
    {
      "midi": 51,
      "hit": false,
      "t": 378461.15999999817,
      "d": 461.53800000000047,
      "v": 127
    },
    {
      "midi": 75,
      "hit": false,
      "t": 378922.6979999815,
      "d": 115.38449999998556,
      "v": 127
    },
    {
      "midi": 58,
      "hit": false,
      "t": 378922.69799999817,
      "d": 461.53800000000047,
      "v": 127
    },
    {
      "midi": 63,
      "hit": false,
      "t": 378922.69799999817,
      "d": 461.53800000000047,
      "v": 127
    },
    {
      "midi": 66,
      "hit": false,
      "t": 378922.69799999817,
      "d": 461.53800000000047,
      "v": 127
    },
    {
      "midi": 78,
      "hit": false,
      "t": 379038.0824999815,
      "d": 115.38449999998556,
      "v": 127
    },
    {
      "midi": 82,
      "hit": false,
      "t": 379268.8514999815,
      "d": 115.38449999998556,
      "v": 127
    },
    {
      "midi": 75,
      "hit": false,
      "t": 379384.23599998147,
      "d": 461.53800000000047,
      "v": 127
    },
    {
      "midi": 83,
      "hit": false,
      "t": 379845.77399998147,
      "d": 230.76899999997113,
      "v": 127
    },
    {
      "midi": 92,
      "hit": false,
      "t": 379845.77399998147,
      "d": 230.76899999997113,
      "v": 127
    },
    {
      "midi": 56,
      "hit": false,
      "t": 379845.7739999982,
      "d": 461.53800000000047,
      "v": 127
    },
    {
      "midi": 59,
      "hit": false,
      "t": 379845.7739999982,
      "d": 461.53800000000047,
      "v": 127
    },
    {
      "midi": 65,
      "hit": false,
      "t": 379845.7739999982,
      "d": 461.53800000000047,
      "v": 127
    },
    {
      "midi": 95,
      "hit": false,
      "t": 380076.54299998144,
      "d": 230.76899999997113,
      "v": 127
    },
    {
      "midi": 82,
      "hit": false,
      "t": 380307.3119999814,
      "d": 230.76899999997113,
      "v": 127
    },
    {
      "midi": 90,
      "hit": false,
      "t": 380307.3119999814,
      "d": 230.76899999997113,
      "v": 127
    },
    {
      "midi": 58,
      "hit": false,
      "t": 380307.3119999982,
      "d": 461.53800000000047,
      "v": 127
    },
    {
      "midi": 63,
      "hit": false,
      "t": 380307.3119999982,
      "d": 461.53800000000047,
      "v": 127
    },
    {
      "midi": 66,
      "hit": false,
      "t": 380307.3119999982,
      "d": 461.53800000000047,
      "v": 127
    },
    {
      "midi": 94,
      "hit": false,
      "t": 380538.0809999814,
      "d": 230.76899999997113,
      "v": 127
    },
    {
      "midi": 86,
      "hit": false,
      "t": 380768.84999998135,
      "d": 230.76899999997113,
      "v": 127
    },
    {
      "midi": 89,
      "hit": false,
      "t": 380768.84999998135,
      "d": 230.76899999997113,
      "v": 127
    },
    {
      "midi": 58,
      "hit": false,
      "t": 380768.8499999982,
      "d": 461.53800000000047,
      "v": 127
    },
    {
      "midi": 65,
      "hit": false,
      "t": 380768.8499999982,
      "d": 461.53800000000047,
      "v": 127
    },
    {
      "midi": 68,
      "hit": false,
      "t": 380768.8499999982,
      "d": 461.53800000000047,
      "v": 127
    },
    {
      "midi": 98,
      "hit": false,
      "t": 380999.6189999813,
      "d": 230.76899999997113,
      "v": 127
    },
    {
      "midi": 99,
      "hit": false,
      "t": 381230.3879999813,
      "d": 115.38449999998556,
      "v": 127
    },
    {
      "midi": 51,
      "hit": false,
      "t": 381230.3879999982,
      "d": 923.0760000000009,
      "v": 127
    },
    {
      "midi": 54,
      "hit": false,
      "t": 381230.3879999982,
      "d": 923.0760000000009,
      "v": 127
    },
    {
      "midi": 58,
      "hit": false,
      "t": 381230.3879999982,
      "d": 923.0760000000009,
      "v": 127
    },
    {
      "midi": 63,
      "hit": false,
      "t": 381230.3879999982,
      "d": 923.0760000000009,
      "v": 127
    },
    {
      "midi": 95,
      "hit": false,
      "t": 381345.7724999813,
      "d": 115.38449999998556,
      "v": 127
    },
    {
      "midi": 94,
      "hit": false,
      "t": 381576.54149998125,
      "d": 115.38449999998556,
      "v": 127
    },
    {
      "midi": 92,
      "hit": false,
      "t": 381691.92599998123,
      "d": 115.38449999998556,
      "v": 127
    },
    {
      "midi": 90,
      "hit": false,
      "t": 381807.3104999812,
      "d": 115.38449999998556,
      "v": 127
    },
    {
      "midi": 89,
      "hit": false,
      "t": 382038.0794999812,
      "d": 115.38449999998556,
      "v": 127
    },
    {
      "midi": 87,
      "hit": false,
      "t": 382153.4639999812,
      "d": 461.53800000000047,
      "v": 127
    },
    {
      "midi": 51,
      "hit": false,
      "t": 382153.4639999982,
      "d": 461.53800000000047,
      "v": 127
    },
    {
      "midi": 56,
      "hit": false,
      "t": 382153.4639999982,
      "d": 461.53800000000047,
      "v": 127
    },
    {
      "midi": 59,
      "hit": false,
      "t": 382153.4639999982,
      "d": 461.53800000000047,
      "v": 127
    },
    {
      "midi": 63,
      "hit": false,
      "t": 382153.4639999982,
      "d": 461.53800000000047,
      "v": 127
    },
    {
      "midi": 87,
      "hit": false,
      "t": 382615.0019999812,
      "d": 115.38449999998556,
      "v": 127
    },
    {
      "midi": 51,
      "hit": false,
      "t": 382615.0019999982,
      "d": 923.0760000000009,
      "v": 127
    },
    {
      "midi": 54,
      "hit": false,
      "t": 382615.0019999982,
      "d": 923.0760000000009,
      "v": 127
    },
    {
      "midi": 58,
      "hit": false,
      "t": 382615.0019999982,
      "d": 923.0760000000009,
      "v": 127
    },
    {
      "midi": 63,
      "hit": false,
      "t": 382615.0019999982,
      "d": 923.0760000000009,
      "v": 127
    },
    {
      "midi": 83,
      "hit": false,
      "t": 382730.38649998116,
      "d": 115.38449999998556,
      "v": 127
    },
    {
      "midi": 82,
      "hit": false,
      "t": 382961.15549998113,
      "d": 115.38449999998556,
      "v": 127
    },
    {
      "midi": 80,
      "hit": false,
      "t": 383076.5399999811,
      "d": 115.38449999998556,
      "v": 127
    },
    {
      "midi": 78,
      "hit": false,
      "t": 383191.9244999811,
      "d": 115.38449999998556,
      "v": 127
    },
    {
      "midi": 77,
      "hit": false,
      "t": 383422.6934999811,
      "d": 115.38449999998556,
      "v": 127
    },
    {
      "midi": 75,
      "hit": false,
      "t": 383538.07799998106,
      "d": 461.53800000000047,
      "v": 127
    },
    {
      "midi": 51,
      "hit": false,
      "t": 383538.0779999982,
      "d": 461.53800000000047,
      "v": 127
    },
    {
      "midi": 56,
      "hit": false,
      "t": 383538.0779999982,
      "d": 461.53800000000047,
      "v": 127
    },
    {
      "midi": 59,
      "hit": false,
      "t": 383538.0779999982,
      "d": 461.53800000000047,
      "v": 127
    },
    {
      "midi": 63,
      "hit": false,
      "t": 383538.0779999982,
      "d": 461.53800000000047,
      "v": 127
    },
    {
      "midi": 75,
      "hit": false,
      "t": 383999.61599998106,
      "d": 115.38449999998556,
      "v": 127
    },
    {
      "midi": 39,
      "hit": false,
      "t": 383999.6159999982,
      "d": 923.0760000000009,
      "v": 127
    },
    {
      "midi": 42,
      "hit": false,
      "t": 383999.6159999982,
      "d": 923.0760000000009,
      "v": 127
    },
    {
      "midi": 46,
      "hit": false,
      "t": 383999.6159999982,
      "d": 923.0760000000009,
      "v": 127
    },
    {
      "midi": 51,
      "hit": false,
      "t": 383999.6159999982,
      "d": 923.0760000000009,
      "v": 127
    },
    {
      "midi": 71,
      "hit": false,
      "t": 384115.00049998105,
      "d": 115.38449999998556,
      "v": 127
    },
    {
      "midi": 70,
      "hit": false,
      "t": 384345.769499981,
      "d": 115.38449999998556,
      "v": 127
    },
    {
      "midi": 68,
      "hit": false,
      "t": 384461.153999981,
      "d": 115.38449999998556,
      "v": 127
    },
    {
      "midi": 66,
      "hit": false,
      "t": 384576.538499981,
      "d": 115.38449999998556,
      "v": 127
    },
    {
      "midi": 65,
      "hit": false,
      "t": 384807.30749998096,
      "d": 115.38449999998556,
      "v": 127
    },
    {
      "midi": 63,
      "hit": false,
      "t": 384922.69199998095,
      "d": 461.53800000000047,
      "v": 127
    },
    {
      "midi": 39,
      "hit": false,
      "t": 384922.6919999982,
      "d": 461.53800000000047,
      "v": 127
    },
    {
      "midi": 44,
      "hit": false,
      "t": 384922.6919999982,
      "d": 461.53800000000047,
      "v": 127
    },
    {
      "midi": 47,
      "hit": false,
      "t": 384922.6919999982,
      "d": 461.53800000000047,
      "v": 127
    },
    {
      "midi": 51,
      "hit": false,
      "t": 384922.6919999982,
      "d": 461.53800000000047,
      "v": 127
    },
    {
      "midi": 63,
      "hit": false,
      "t": 385384.22999998095,
      "d": 461.53800000000047,
      "v": 127
    },
    {
      "midi": 51,
      "hit": false,
      "t": 385384.2299999982,
      "d": 115.38449999998556,
      "v": 127
    },
    {
      "midi": 59,
      "hit": false,
      "t": 385499.61449999816,
      "d": 115.38449999998556,
      "v": 127
    },
    {
      "midi": 58,
      "hit": false,
      "t": 385730.38349999813,
      "d": 115.38449999998556,
      "v": 127
    },
    {
      "midi": 56,
      "hit": false,
      "t": 385845.7679999981,
      "d": 115.38449999998556,
      "v": 127
    },
    {
      "midi": 54,
      "hit": false,
      "t": 385961.1524999981,
      "d": 115.38449999998556,
      "v": 127
    },
    {
      "midi": 53,
      "hit": false,
      "t": 386191.9214999981,
      "d": 115.38449999998556,
      "v": 127
    },
    {
      "midi": 39,
      "hit": false,
      "t": 386307.30599999806,
      "d": 461.53800000000047,
      "v": 127
    },
    {
      "midi": 44,
      "hit": false,
      "t": 386307.30599999806,
      "d": 461.53800000000047,
      "v": 127
    },
    {
      "midi": 47,
      "hit": false,
      "t": 386307.30599999806,
      "d": 461.53800000000047,
      "v": 127
    },
    {
      "midi": 51,
      "hit": false,
      "t": 386307.30599999806,
      "d": 461.53800000000047,
      "v": 127
    },
    {
      "midi": 63,
      "hit": false,
      "t": 386768.84399998095,
      "d": 461.53800000000047,
      "v": 127
    },
    {
      "midi": 39,
      "hit": false,
      "t": 386768.84399999806,
      "d": 461.53800000000047,
      "v": 127
    },
    {
      "midi": 42,
      "hit": false,
      "t": 386768.84399999806,
      "d": 461.53800000000047,
      "v": 127
    },
    {
      "midi": 46,
      "hit": false,
      "t": 386768.84399999806,
      "d": 461.53800000000047,
      "v": 127
    },
    {
      "midi": 51,
      "hit": false,
      "t": 386768.84399999806,
      "d": 461.53800000000047,
      "v": 127
    },
    {
      "midi": 54,
      "hit": false,
      "t": 386768.84399999806,
      "d": 461.53800000000047,
      "v": 127
    },
    {
      "midi": 58,
      "hit": false,
      "t": 386768.84399999806,
      "d": 461.53800000000047,
      "v": 127
    },
    {
      "midi": 63,
      "hit": false,
      "t": 387230.38199998095,
      "d": 461.53800000000047,
      "v": 127
    },
    {
      "midi": 39,
      "hit": false,
      "t": 387230.38199999806,
      "d": 461.53800000000047,
      "v": 127
    },
    {
      "midi": 44,
      "hit": false,
      "t": 387230.38199999806,
      "d": 461.53800000000047,
      "v": 127
    },
    {
      "midi": 47,
      "hit": false,
      "t": 387230.38199999806,
      "d": 461.53800000000047,
      "v": 127
    },
    {
      "midi": 51,
      "hit": false,
      "t": 387230.38199999806,
      "d": 461.53800000000047,
      "v": 127
    },
    {
      "midi": 56,
      "hit": false,
      "t": 387230.38199999806,
      "d": 461.53800000000047,
      "v": 127
    },
    {
      "midi": 59,
      "hit": false,
      "t": 387230.38199999806,
      "d": 461.53800000000047,
      "v": 127
    },
    {
      "midi": 63,
      "hit": false,
      "t": 387691.91999998095,
      "d": 461.53800000000047,
      "v": 127
    },
    {
      "midi": 39,
      "hit": false,
      "t": 387691.91999999806,
      "d": 461.53800000000047,
      "v": 127
    },
    {
      "midi": 42,
      "hit": false,
      "t": 387691.91999999806,
      "d": 461.53800000000047,
      "v": 127
    },
    {
      "midi": 46,
      "hit": false,
      "t": 387691.91999999806,
      "d": 461.53800000000047,
      "v": 127
    },
    {
      "midi": 51,
      "hit": false,
      "t": 387691.91999999806,
      "d": 461.53800000000047,
      "v": 127
    },
    {
      "midi": 54,
      "hit": false,
      "t": 387691.91999999806,
      "d": 461.53800000000047,
      "v": 127
    },
    {
      "midi": 58,
      "hit": false,
      "t": 387691.91999999806,
      "d": 461.53800000000047,
      "v": 127
    },
    {
      "midi": 63,
      "hit": false,
      "t": 388153.45799998095,
      "d": 461.53800000000047,
      "v": 127
    },
    {
      "midi": 39,
      "hit": false,
      "t": 388153.45799999806,
      "d": 461.53800000000047,
      "v": 127
    },
    {
      "midi": 44,
      "hit": false,
      "t": 388153.45799999806,
      "d": 461.53800000000047,
      "v": 127
    },
    {
      "midi": 47,
      "hit": false,
      "t": 388153.45799999806,
      "d": 461.53800000000047,
      "v": 127
    },
    {
      "midi": 51,
      "hit": false,
      "t": 388153.45799999806,
      "d": 461.53800000000047,
      "v": 127
    },
    {
      "midi": 56,
      "hit": false,
      "t": 388153.45799999806,
      "d": 461.53800000000047,
      "v": 127
    },
    {
      "midi": 59,
      "hit": false,
      "t": 388153.45799999806,
      "d": 461.53800000000047,
      "v": 127
    },
    {
      "midi": 63,
      "hit": false,
      "t": 388614.99599998095,
      "d": 461.53800000000047,
      "v": 127
    },
    {
      "midi": 39,
      "hit": false,
      "t": 388614.99599999806,
      "d": 461.53800000000047,
      "v": 127
    },
    {
      "midi": 42,
      "hit": false,
      "t": 388614.99599999806,
      "d": 461.53800000000047,
      "v": 127
    },
    {
      "midi": 46,
      "hit": false,
      "t": 388614.99599999806,
      "d": 461.53800000000047,
      "v": 127
    },
    {
      "midi": 51,
      "hit": false,
      "t": 388614.99599999806,
      "d": 461.53800000000047,
      "v": 127
    },
    {
      "midi": 54,
      "hit": false,
      "t": 388614.99599999806,
      "d": 461.53800000000047,
      "v": 127
    },
    {
      "midi": 58,
      "hit": false,
      "t": 388614.99599999806,
      "d": 461.53800000000047,
      "v": 127
    },
    {
      "midi": 63,
      "hit": false,
      "t": 389076.53399998095,
      "d": 461.53800000000047,
      "v": 127
    },
    {
      "midi": 39,
      "hit": false,
      "t": 389076.53399999806,
      "d": 461.53800000000047,
      "v": 127
    },
    {
      "midi": 44,
      "hit": false,
      "t": 389076.53399999806,
      "d": 461.53800000000047,
      "v": 127
    },
    {
      "midi": 47,
      "hit": false,
      "t": 389076.53399999806,
      "d": 461.53800000000047,
      "v": 127
    },
    {
      "midi": 51,
      "hit": false,
      "t": 389076.53399999806,
      "d": 461.53800000000047,
      "v": 127
    },
    {
      "midi": 56,
      "hit": false,
      "t": 389076.53399999806,
      "d": 461.53800000000047,
      "v": 127
    },
    {
      "midi": 59,
      "hit": false,
      "t": 389076.53399999806,
      "d": 461.53800000000047,
      "v": 127
    },
    {
      "midi": 62,
      "hit": false,
      "t": 389538.07199998095,
      "d": 461.53800000000047,
      "v": 127
    },
    {
      "midi": 65,
      "hit": false,
      "t": 389538.07199998095,
      "d": 461.53800000000047,
      "v": 127
    },
    {
      "midi": 70,
      "hit": false,
      "t": 389538.07199998095,
      "d": 461.53800000000047,
      "v": 127
    },
    {
      "midi": 74,
      "hit": false,
      "t": 389538.07199998095,
      "d": 461.53800000000047,
      "v": 127
    },
    {
      "midi": 34,
      "hit": false,
      "t": 389538.07199999806,
      "d": 461.53800000000047,
      "v": 127
    },
    {
      "midi": 46,
      "hit": false,
      "t": 389538.07199999806,
      "d": 461.53800000000047,
      "v": 127
    },
    {
      "midi": 63,
      "hit": false,
      "t": 390922.68599998095,
      "d": 461.53800000000047,
      "v": 127
    },
    {
      "midi": 66,
      "hit": false,
      "t": 390922.68599998095,
      "d": 461.53800000000047,
      "v": 127
    },
    {
      "midi": 70,
      "hit": false,
      "t": 390922.68599998095,
      "d": 461.53800000000047,
      "v": 127
    },
    {
      "midi": 75,
      "hit": false,
      "t": 390922.68599998095,
      "d": 461.53800000000047,
      "v": 127
    },
    {
      "midi": 39,
      "hit": false,
      "t": 390922.68599999807,
      "d": 461.53800000000047,
      "v": 127
    },
    {
      "midi": 46,
      "hit": false,
      "t": 390922.68599999807,
      "d": 461.53800000000047,
      "v": 127
    },
    {
      "midi": 51,
      "hit": false,
      "t": 390922.68599999807,
      "d": 461.53800000000047,
      "v": 127
    },
    {
      "midi": 51,
      "hit": false,
      "t": 393230.37599998096,
      "d": 461.53800000000047,
      "v": 127
    },
    {
      "midi": 51,
      "hit": false,
      "t": 393230.37599999807,
      "d": 461.53800000000047,
      "v": 127
    }
  ]
}