{
  "jsonPath": "Classical/Classical/Franz Schubert/trio.json",
  "path": "Classical\\Classical\\Franz Schubert\\Trio.mid",
  "name": "Trio",
  "difficulty": "Advanced",
  "bpm": 75,
  "notes": [
    {
      "midi": 48,
      "hit": false,
      "t": 0,
      "d": 800,
      "v": 48
    },
    {
      "midi": 51,
      "hit": false,
      "t": 0,
      "d": 800,
      "v": 48
    },
    {
      "midi": 55,
      "hit": false,
      "t": 0,
      "d": 800,
      "v": 48
    },
    {
      "midi": 48,
      "hit": false,
      "t": 800,
      "d": 800,
      "v": 48
    },
    {
      "midi": 51,
      "hit": false,
      "t": 800,
      "d": 800,
      "v": 48
    },
    {
      "midi": 55,
      "hit": false,
      "t": 800,
      "d": 800,
      "v": 48
    },
    {
      "midi": 48,
      "hit": false,
      "t": 1600,
      "d": 800,
      "v": 48
    },
    {
      "midi": 51,
      "hit": false,
      "t": 1600,
      "d": 800,
      "v": 48
    },
    {
      "midi": 55,
      "hit": false,
      "t": 1600,
      "d": 800,
      "v": 48
    },
    {
      "midi": 48,
      "hit": false,
      "t": 2400,
      "d": 600,
      "v": 48
    },
    {
      "midi": 51,
      "hit": false,
      "t": 2400,
      "d": 600,
      "v": 48
    },
    {
      "midi": 55,
      "hit": false,
      "t": 2400,
      "d": 600,
      "v": 48
    },
    {
      "midi": 53,
      "hit": false,
      "t": 3000,
      "d": 200,
      "v": 48
    },
    {
      "midi": 56,
      "hit": false,
      "t": 3000,
      "d": 200,
      "v": 48
    },
    {
      "midi": 48,
      "hit": false,
      "t": 3200,
      "d": 800,
      "v": 48
    },
    {
      "midi": 51,
      "hit": false,
      "t": 3200,
      "d": 800,
      "v": 48
    },
    {
      "midi": 55,
      "hit": false,
      "t": 3200,
      "d": 800,
      "v": 48
    },
    {
      "midi": 48,
      "hit": false,
      "t": 4000,
      "d": 800,
      "v": 48
    },
    {
      "midi": 51,
      "hit": false,
      "t": 4000,
      "d": 800,
      "v": 48
    },
    {
      "midi": 55,
      "hit": false,
      "t": 4000,
      "d": 800,
      "v": 48
    },
    {
      "midi": 48,
      "hit": false,
      "t": 4800,
      "d": 800,
      "v": 48
    },
    {
      "midi": 51,
      "hit": false,
      "t": 4800,
      "d": 800,
      "v": 48
    },
    {
      "midi": 55,
      "hit": false,
      "t": 4800,
      "d": 800,
      "v": 48
    },
    {
      "midi": 48,
      "hit": false,
      "t": 5600,
      "d": 600,
      "v": 48
    },
    {
      "midi": 51,
      "hit": false,
      "t": 5600,
      "d": 600,
      "v": 48
    },
    {
      "midi": 55,
      "hit": false,
      "t": 5600,
      "d": 600,
      "v": 48
    },
    {
      "midi": 53,
      "hit": false,
      "t": 6200,
      "d": 200,
      "v": 48
    },
    {
      "midi": 56,
      "hit": false,
      "t": 6200,
      "d": 200,
      "v": 48
    },
    {
      "midi": 67,
      "hit": false,
      "t": 6400,
      "d": 1600,
      "v": 64
    },
    {
      "midi": 48,
      "hit": false,
      "t": 6400,
      "d": 800,
      "v": 48
    },
    {
      "midi": 51,
      "hit": false,
      "t": 6400,
      "d": 800,
      "v": 48
    },
    {
      "midi": 55,
      "hit": false,
      "t": 6400,
      "d": 800,
      "v": 48
    },
    {
      "midi": 48,
      "hit": false,
      "t": 7200,
      "d": 800,
      "v": 48
    },
    {
      "midi": 51,
      "hit": false,
      "t": 7200,
      "d": 800,
      "v": 48
    },
    {
      "midi": 55,
      "hit": false,
      "t": 7200,
      "d": 800,
      "v": 48
    },
    {
      "midi": 67,
      "hit": false,
      "t": 8000,
      "d": 1600,
      "v": 64
    },
    {
      "midi": 48,
      "hit": false,
      "t": 8000,
      "d": 800,
      "v": 48
    },
    {
      "midi": 51,
      "hit": false,
      "t": 8000,
      "d": 800,
      "v": 48
    },
    {
      "midi": 55,
      "hit": false,
      "t": 8000,
      "d": 800,
      "v": 48
    },
    {
      "midi": 48,
      "hit": false,
      "t": 8800,
      "d": 800,
      "v": 48
    },
    {
      "midi": 51,
      "hit": false,
      "t": 8800,
      "d": 800,
      "v": 48
    },
    {
      "midi": 55,
      "hit": false,
      "t": 8800,
      "d": 800,
      "v": 48
    },
    {
      "midi": 68,
      "hit": false,
      "t": 9600,
      "d": 200,
      "v": 64
    },
    {
      "midi": 48,
      "hit": false,
      "t": 9600,
      "d": 800,
      "v": 48
    },
    {
      "midi": 53,
      "hit": false,
      "t": 9600,
      "d": 800,
      "v": 48
    },
    {
      "midi": 56,
      "hit": false,
      "t": 9600,
      "d": 800,
      "v": 48
    },
    {
      "midi": 70,
      "hit": false,
      "t": 9800,
      "d": 200,
      "v": 64
    },
    {
      "midi": 72,
      "hit": false,
      "t": 10000,
      "d": 1600,
      "v": 64
    },
    {
      "midi": 48,
      "hit": false,
      "t": 10400,
      "d": 800,
      "v": 48
    },
    {
      "midi": 53,
      "hit": false,
      "t": 10400,
      "d": 800,
      "v": 48
    },
    {
      "midi": 56,
      "hit": false,
      "t": 10400,
      "d": 800,
      "v": 48
    },
    {
      "midi": 48,
      "hit": false,
      "t": 11200,
      "d": 800,
      "v": 48
    },
    {
      "midi": 53,
      "hit": false,
      "t": 11200,
      "d": 800,
      "v": 48
    },
    {
      "midi": 56,
      "hit": false,
      "t": 11200,
      "d": 800,
      "v": 48
    },
    {
      "midi": 70,
      "hit": false,
      "t": 12000,
      "d": 400,
      "v": 64
    },
    {
      "midi": 48,
      "hit": false,
      "t": 12000,
      "d": 800,
      "v": 48
    },
    {
      "midi": 53,
      "hit": false,
      "t": 12000,
      "d": 800,
      "v": 48
    },
    {
      "midi": 56,
      "hit": false,
      "t": 12000,
      "d": 800,
      "v": 48
    },
    {
      "midi": 68,
      "hit": false,
      "t": 12400,
      "d": 400,
      "v": 64
    },
    {
      "midi": 67,
      "hit": false,
      "t": 12800,
      "d": 800,
      "v": 64
    },
    {
      "midi": 48,
      "hit": false,
      "t": 12800,
      "d": 800,
      "v": 48
    },
    {
      "midi": 51,
      "hit": false,
      "t": 12800,
      "d": 800,
      "v": 48
    },
    {
      "midi": 55,
      "hit": false,
      "t": 12800,
      "d": 800,
      "v": 48
    },
    {
      "midi": 75,
      "hit": false,
      "t": 13600,
      "d": 800,
      "v": 64
    },
    {
      "midi": 48,
      "hit": false,
      "t": 13600,
      "d": 800,
      "v": 48
    },
    {
      "midi": 51,
      "hit": false,
      "t": 13600,
      "d": 800,
      "v": 48
    },
    {
      "midi": 55,
      "hit": false,
      "t": 13600,
      "d": 800,
      "v": 48
    },
    {
      "midi": 71,
      "hit": false,
      "t": 14400,
      "d": 200,
      "v": 64
    },
    {
      "midi": 43,
      "hit": false,
      "t": 14400,
      "d": 800,
      "v": 48
    },
    {
      "midi": 50,
      "hit": false,
      "t": 14400,
      "d": 800,
      "v": 48
    },
    {
      "midi": 53,
      "hit": false,
      "t": 14400,
      "d": 800,
      "v": 48
    },
    {
      "midi": 55,
      "hit": false,
      "t": 14400,
      "d": 800,
      "v": 48
    },
    {
      "midi": 72,
      "hit": false,
      "t": 14600,
      "d": 200,
      "v": 64
    },
    {
      "midi": 71,
      "hit": false,
      "t": 14800,
      "d": 200,
      "v": 64
    },
    {
      "midi": 72,
      "hit": false,
      "t": 15000,
      "d": 200,
      "v": 64
    },
    {
      "midi": 71,
      "hit": false,
      "t": 15200,
      "d": 200,
      "v": 64
    },
    {
      "midi": 43,
      "hit": false,
      "t": 15200,
      "d": 800,
      "v": 48
    },
    {
      "midi": 50,
      "hit": false,
      "t": 15200,
      "d": 800,
      "v": 48
    },
    {
      "midi": 53,
      "hit": false,
      "t": 15200,
      "d": 800,
      "v": 48
    },
    {
      "midi": 55,
      "hit": false,
      "t": 15200,
      "d": 800,
      "v": 48
    },
    {
      "midi": 72,
      "hit": false,
      "t": 15400,
      "d": 200,
      "v": 64
    },
    {
      "midi": 69,
      "hit": false,
      "t": 15600,
      "d": 200,
      "v": 64
    },
    {
      "midi": 71,
      "hit": false,
      "t": 15800,
      "d": 200,
      "v": 64
    },
    {
      "midi": 72,
      "hit": false,
      "t": 16000,
      "d": 3200,
      "v": 64
    },
    {
      "midi": 48,
      "hit": false,
      "t": 16000,
      "d": 800,
      "v": 48
    },
    {
      "midi": 51,
      "hit": false,
      "t": 16000,
      "d": 800,
      "v": 48
    },
    {
      "midi": 55,
      "hit": false,
      "t": 16000,
      "d": 800,
      "v": 48
    },
    {
      "midi": 48,
      "hit": false,
      "t": 16800,
      "d": 800,
      "v": 48
    },
    {
      "midi": 51,
      "hit": false,
      "t": 16800,
      "d": 800,
      "v": 48
    },
    {
      "midi": 55,
      "hit": false,
      "t": 16800,
      "d": 800,
      "v": 48
    },
    {
      "midi": 48,
      "hit": false,
      "t": 17600,
      "d": 800,
      "v": 48
    },
    {
      "midi": 51,
      "hit": false,
      "t": 17600,
      "d": 800,
      "v": 48
    },
    {
      "midi": 55,
      "hit": false,
      "t": 17600,
      "d": 800,
      "v": 48
    },
    {
      "midi": 48,
      "hit": false,
      "t": 18400,
      "d": 600,
      "v": 48
    },
    {
      "midi": 51,
      "hit": false,
      "t": 18400,
      "d": 600,
      "v": 48
    },
    {
      "midi": 55,
      "hit": false,
      "t": 18400,
      "d": 600,
      "v": 48
    },
    {
      "midi": 53,
      "hit": false,
      "t": 19000,
      "d": 200,
      "v": 48
    },
    {
      "midi": 56,
      "hit": false,
      "t": 19000,
      "d": 200,
      "v": 48
    },
    {
      "midi": 72,
      "hit": false,
      "t": 19200,
      "d": 2400,
      "v": 64
    },
    {
      "midi": 48,
      "hit": false,
      "t": 19200,
      "d": 800,
      "v": 48
    },
    {
      "midi": 51,
      "hit": false,
      "t": 19200,
      "d": 800,
      "v": 48
    },
    {
      "midi": 55,
      "hit": false,
      "t": 19200,
      "d": 800,
      "v": 48
    },
    {
      "midi": 48,
      "hit": false,
      "t": 20000,
      "d": 800,
      "v": 48
    },
    {
      "midi": 51,
      "hit": false,
      "t": 20000,
      "d": 800,
      "v": 48
    },
    {
      "midi": 55,
      "hit": false,
      "t": 20000,
      "d": 800,
      "v": 48
    },
    {
      "midi": 48,
      "hit": false,
      "t": 20800,
      "d": 800,
      "v": 48
    },
    {
      "midi": 51,
      "hit": false,
      "t": 20800,
      "d": 800,
      "v": 48
    },
    {
      "midi": 55,
      "hit": false,
      "t": 20800,
      "d": 800,
      "v": 48
    },
    {
      "midi": 72,
      "hit": false,
      "t": 21600,
      "d": 800,
      "v": 64
    },
    {
      "midi": 48,
      "hit": false,
      "t": 21600,
      "d": 800,
      "v": 48
    },
    {
      "midi": 51,
      "hit": false,
      "t": 21600,
      "d": 800,
      "v": 48
    },
    {
      "midi": 55,
      "hit": false,
      "t": 21600,
      "d": 800,
      "v": 48
    },
    {
      "midi": 72,
      "hit": false,
      "t": 22400,
      "d": 400,
      "v": 64
    },
    {
      "midi": 51,
      "hit": false,
      "t": 22400,
      "d": 800,
      "v": 48
    },
    {
      "midi": 55,
      "hit": false,
      "t": 22400,
      "d": 800,
      "v": 48
    },
    {
      "midi": 58,
      "hit": false,
      "t": 22400,
      "d": 800,
      "v": 48
    },
    {
      "midi": 70,
      "hit": false,
      "t": 22800,
      "d": 1200,
      "v": 64
    },
    {
      "midi": 51,
      "hit": false,
      "t": 23200,
      "d": 800,
      "v": 48
    },
    {
      "midi": 55,
      "hit": false,
      "t": 23200,
      "d": 800,
      "v": 48
    },
    {
      "midi": 58,
      "hit": false,
      "t": 23200,
      "d": 800,
      "v": 48
    },
    {
      "midi": 67,
      "hit": false,
      "t": 24000,
      "d": 1600,
      "v": 64
    },
    {
      "midi": 51,
      "hit": false,
      "t": 24000,
      "d": 800,
      "v": 48
    },
    {
      "midi": 55,
      "hit": false,
      "t": 24000,
      "d": 800,
      "v": 48
    },
    {
      "midi": 58,
      "hit": false,
      "t": 24000,
      "d": 800,
      "v": 48
    },
    {
      "midi": 51,
      "hit": false,
      "t": 24800,
      "d": 800,
      "v": 48
    },
    {
      "midi": 55,
      "hit": false,
      "t": 24800,
      "d": 800,
      "v": 48
    },
    {
      "midi": 58,
      "hit": false,
      "t": 24800,
      "d": 800,
      "v": 48
    },
    {
      "midi": 67,
      "hit": false,
      "t": 25600,
      "d": 800,
      "v": 64
    },
    {
      "midi": 48,
      "hit": false,
      "t": 25600,
      "d": 800,
      "v": 48
    },
    {
      "midi": 51,
      "hit": false,
      "t": 25600,
      "d": 800,
      "v": 48
    },
    {
      "midi": 55,
      "hit": false,
      "t": 25600,
      "d": 800,
      "v": 48
    },
    {
      "midi": 75,
      "hit": false,
      "t": 26400,
      "d": 800,
      "v": 64
    },
    {
      "midi": 48,
      "hit": false,
      "t": 26400,
      "d": 800,
      "v": 48
    },
    {
      "midi": 51,
      "hit": false,
      "t": 26400,
      "d": 800,
      "v": 48
    },
    {
      "midi": 55,
      "hit": false,
      "t": 26400,
      "d": 800,
      "v": 48
    },
    {
      "midi": 71,
      "hit": false,
      "t": 27200,
      "d": 200,
      "v": 64
    },
    {
      "midi": 43,
      "hit": false,
      "t": 27200,
      "d": 800,
      "v": 48
    },
    {
      "midi": 50,
      "hit": false,
      "t": 27200,
      "d": 800,
      "v": 48
    },
    {
      "midi": 53,
      "hit": false,
      "t": 27200,
      "d": 800,
      "v": 48
    },
    {
      "midi": 55,
      "hit": false,
      "t": 27200,
      "d": 800,
      "v": 48
    },
    {
      "midi": 72,
      "hit": false,
      "t": 27400,
      "d": 200,
      "v": 64
    },
    {
      "midi": 71,
      "hit": false,
      "t": 27600,
      "d": 200,
      "v": 64
    },
    {
      "midi": 72,
      "hit": false,
      "t": 27800,
      "d": 200,
      "v": 64
    },
    {
      "midi": 71,
      "hit": false,
      "t": 28000,
      "d": 200,
      "v": 64
    },
    {
      "midi": 43,
      "hit": false,
      "t": 28000,
      "d": 800,
      "v": 48
    },
    {
      "midi": 50,
      "hit": false,
      "t": 28000,
      "d": 800,
      "v": 48
    },
    {
      "midi": 53,
      "hit": false,
      "t": 28000,
      "d": 800,
      "v": 48
    },
    {
      "midi": 55,
      "hit": false,
      "t": 28000,
      "d": 800,
      "v": 48
    },
    {
      "midi": 72,
      "hit": false,
      "t": 28200,
      "d": 200,
      "v": 64
    },
    {
      "midi": 69,
      "hit": false,
      "t": 28400,
      "d": 200,
      "v": 64
    },
    {
      "midi": 71,
      "hit": false,
      "t": 28600,
      "d": 200,
      "v": 64
    },
    {
      "midi": 72,
      "hit": false,
      "t": 28800,
      "d": 3200,
      "v": 64
    },
    {
      "midi": 48,
      "hit": false,
      "t": 28800,
      "d": 800,
      "v": 48
    },
    {
      "midi": 51,
      "hit": false,
      "t": 28800,
      "d": 800,
      "v": 48
    },
    {
      "midi": 55,
      "hit": false,
      "t": 28800,
      "d": 800,
      "v": 48
    },
    {
      "midi": 48,
      "hit": false,
      "t": 29600,
      "d": 800,
      "v": 48
    },
    {
      "midi": 51,
      "hit": false,
      "t": 29600,
      "d": 800,
      "v": 48
    },
    {
      "midi": 55,
      "hit": false,
      "t": 29600,
      "d": 800,
      "v": 48
    },
    {
      "midi": 48,
      "hit": false,
      "t": 30400,
      "d": 800,
      "v": 48
    },
    {
      "midi": 51,
      "hit": false,
      "t": 30400,
      "d": 800,
      "v": 48
    },
    {
      "midi": 55,
      "hit": false,
      "t": 30400,
      "d": 800,
      "v": 48
    },
    {
      "midi": 48,
      "hit": false,
      "t": 31200,
      "d": 600,
      "v": 48
    },
    {
      "midi": 51,
      "hit": false,
      "t": 31200,
      "d": 600,
      "v": 48
    },
    {
      "midi": 55,
      "hit": false,
      "t": 31200,
      "d": 600,
      "v": 48
    },
    {
      "midi": 53,
      "hit": false,
      "t": 31800,
      "d": 200,
      "v": 48
    },
    {
      "midi": 56,
      "hit": false,
      "t": 31800,
      "d": 200,
      "v": 48
    },
    {
      "midi": 75,
      "hit": false,
      "t": 32000,
      "d": 1600,
      "v": 64
    },
    {
      "midi": 48,
      "hit": false,
      "t": 32000,
      "d": 800,
      "v": 48
    },
    {
      "midi": 51,
      "hit": false,
      "t": 32000,
      "d": 800,
      "v": 48
    },
    {
      "midi": 55,
      "hit": false,
      "t": 32000,
      "d": 800,
      "v": 48
    },
    {
      "midi": 48,
      "hit": false,
      "t": 32800,
      "d": 800,
      "v": 48
    },
    {
      "midi": 51,
      "hit": false,
      "t": 32800,
      "d": 800,
      "v": 48
    },
    {
      "midi": 55,
      "hit": false,
      "t": 32800,
      "d": 800,
      "v": 48
    },
    {
      "midi": 74,
      "hit": false,
      "t": 33600,
      "d": 1600,
      "v": 64
    },
    {
      "midi": 46,
      "hit": false,
      "t": 33600,
      "d": 800,
      "v": 48
    },
    {
      "midi": 50,
      "hit": false,
      "t": 33600,
      "d": 800,
      "v": 48
    },
    {
      "midi": 55,
      "hit": false,
      "t": 33600,
      "d": 800,
      "v": 48
    },
    {
      "midi": 46,
      "hit": false,
      "t": 34400,
      "d": 800,
      "v": 48
    },
    {
      "midi": 50,
      "hit": false,
      "t": 34400,
      "d": 800,
      "v": 48
    },
    {
      "midi": 55,
      "hit": false,
      "t": 34400,
      "d": 800,
      "v": 48
    },
    {
      "midi": 74,
      "hit": false,
      "t": 35200,
      "d": 400,
      "v": 64
    },
    {
      "midi": 51,
      "hit": false,
      "t": 35200,
      "d": 800,
      "v": 48
    },
    {
      "midi": 55,
      "hit": false,
      "t": 35200,
      "d": 800,
      "v": 48
    },
    {
      "midi": 58,
      "hit": false,
      "t": 35200,
      "d": 800,
      "v": 48
    },
    {
      "midi": 67,
      "hit": false,
      "t": 35600,
      "d": 1600,
      "v": 64
    },
    {
      "midi": 51,
      "hit": false,
      "t": 36000,
      "d": 800,
      "v": 48
    },
    {
      "midi": 55,
      "hit": false,
      "t": 36000,
      "d": 800,
      "v": 48
    },
    {
      "midi": 58,
      "hit": false,
      "t": 36000,
      "d": 800,
      "v": 48
    },
    {
      "midi": 51,
      "hit": false,
      "t": 36800,
      "d": 800,
      "v": 48
    },
    {
      "midi": 55,
      "hit": false,
      "t": 36800,
      "d": 800,
      "v": 48
    },
    {
      "midi": 58,
      "hit": false,
      "t": 36800,
      "d": 800,
      "v": 48
    },
    {
      "midi": 67,
      "hit": false,
      "t": 37600,
      "d": 800,
      "v": 64
    },
    {
      "midi": 51,
      "hit": false,
      "t": 37600,
      "d": 800,
      "v": 48
    },
    {
      "midi": 55,
      "hit": false,
      "t": 37600,
      "d": 800,
      "v": 48
    },
    {
      "midi": 58,
      "hit": false,
      "t": 37600,
      "d": 800,
      "v": 48
    },
    {
      "midi": 67,
      "hit": false,
      "t": 38400,
      "d": 1600,
      "v": 64
    },
    {
      "midi": 48,
      "hit": false,
      "t": 38400,
      "d": 800,
      "v": 48
    },
    {
      "midi": 51,
      "hit": false,
      "t": 38400,
      "d": 800,
      "v": 48
    },
    {
      "midi": 55,
      "hit": false,
      "t": 38400,
      "d": 800,
      "v": 48
    },
    {
      "midi": 48,
      "hit": false,
      "t": 39200,
      "d": 800,
      "v": 48
    },
    {
      "midi": 51,
      "hit": false,
      "t": 39200,
      "d": 800,
      "v": 48
    },
    {
      "midi": 55,
      "hit": false,
      "t": 39200,
      "d": 800,
      "v": 48
    },
    {
      "midi": 69,
      "hit": false,
      "t": 40000,
      "d": 1200,
      "v": 64
    },
    {
      "midi": 48,
      "hit": false,
      "t": 40000,
      "d": 800,
      "v": 48
    },
    {
      "midi": 55,
      "hit": false,
      "t": 40000,
      "d": 800,
      "v": 48
    },
    {
      "midi": 48,
      "hit": false,
      "t": 40800,
      "d": 800,
      "v": 48
    },
    {
      "midi": 54,
      "hit": false,
      "t": 40800,
      "d": 800,
      "v": 48
    },
    {
      "midi": 67,
      "hit": false,
      "t": 41200,
      "d": 400,
      "v": 64
    },
    {
      "midi": 67,
      "hit": false,
      "t": 41600,
      "d": 2400,
      "v": 64
    },
    {
      "midi": 50,
      "hit": false,
      "t": 41600,
      "d": 800,
      "v": 48
    },
    {
      "midi": 55,
      "hit": false,
      "t": 41600,
      "d": 800,
      "v": 48
    },
    {
      "midi": 59,
      "hit": false,
      "t": 41600,
      "d": 800,
      "v": 48
    },
    {
      "midi": 50,
      "hit": false,
      "t": 42400,
      "d": 800,
      "v": 48
    },
    {
      "midi": 55,
      "hit": false,
      "t": 42400,
      "d": 800,
      "v": 48
    },
    {
      "midi": 59,
      "hit": false,
      "t": 42400,
      "d": 800,
      "v": 48
    },
    {
      "midi": 50,
      "hit": false,
      "t": 43200,
      "d": 800,
      "v": 48
    },
    {
      "midi": 55,
      "hit": false,
      "t": 43200,
      "d": 800,
      "v": 48
    },
    {
      "midi": 59,
      "hit": false,
      "t": 43200,
      "d": 800,
      "v": 48
    },
    {
      "midi": 67,
      "hit": false,
      "t": 44000,
      "d": 800,
      "v": 64
    },
    {
      "midi": 55,
      "hit": false,
      "t": 44800,
      "d": 800,
      "v": 64
    },
    {
      "midi": 55,
      "hit": false,
      "t": 45600,
      "d": 800,
      "v": 48
    },
    {
      "midi": 43,
      "hit": false,
      "t": 46400,
      "d": 1600,
      "v": 48
    },
    {
      "midi": 67,
      "hit": false,
      "t": 47200,
      "d": 800,
      "v": 64
    },
    {
      "midi": 55,
      "hit": false,
      "t": 48000,
      "d": 1600,
      "v": 64
    },
    {
      "midi": 55,
      "hit": false,
      "t": 48800,
      "d": 800,
      "v": 48
    },
    {
      "midi": 43,
      "hit": false,
      "t": 49600,
      "d": 800,
      "v": 48
    },
    {
      "midi": 55,
      "hit": false,
      "t": 50000,
      "d": 400,
      "v": 64
    },
    {
      "midi": 57,
      "hit": false,
      "t": 50400,
      "d": 400,
      "v": 64
    },
    {
      "midi": 41,
      "hit": false,
      "t": 50400,
      "d": 800,
      "v": 48
    },
    {
      "midi": 59,
      "hit": false,
      "t": 50800,
      "d": 400,
      "v": 64
    },
    {
      "midi": 60,
      "hit": false,
      "t": 51200,
      "d": 800,
      "v": 64
    },
    {
      "midi": 39,
      "hit": false,
      "t": 51200,
      "d": 800,
      "v": 48
    },
    {
      "midi": 75,
      "hit": false,
      "t": 52000,
      "d": 800,
      "v": 64
    },
    {
      "midi": 51,
      "hit": false,
      "t": 52000,
      "d": 800,
      "v": 48
    },
    {
      "midi": 55,
      "hit": false,
      "t": 52000,
      "d": 800,
      "v": 48
    },
    {
      "midi": 60,
      "hit": false,
      "t": 52000,
      "d": 800,
      "v": 48
    },
    {
      "midi": 72,
      "hit": false,
      "t": 52800,
      "d": 1200,
      "v": 64
    },
    {
      "midi": 51,
      "hit": false,
      "t": 52800,
      "d": 800,
      "v": 48
    },
    {
      "midi": 55,
      "hit": false,
      "t": 52800,
      "d": 800,
      "v": 48
    },
    {
      "midi": 60,
      "hit": false,
      "t": 52800,
      "d": 800,
      "v": 48
    },
    {
      "midi": 51,
      "hit": false,
      "t": 53600,
      "d": 800,
      "v": 48
    },
    {
      "midi": 55,
      "hit": false,
      "t": 53600,
      "d": 800,
      "v": 48
    },
    {
      "midi": 60,
      "hit": false,
      "t": 53600,
      "d": 800,
      "v": 48
    },
    {
      "midi": 63,
      "hit": false,
      "t": 54000,
      "d": 400,
      "v": 64
    },
    {
      "midi": 62,
      "hit": false,
      "t": 54400,
      "d": 800,
      "v": 64
    },
    {
      "midi": 53,
      "hit": false,
      "t": 54400,
      "d": 800,
      "v": 48
    },
    {
      "midi": 60,
      "hit": false,
      "t": 54400,
      "d": 800,
      "v": 48
    },
    {
      "midi": 62,
      "hit": false,
      "t": 55200,
      "d": 1200,
      "v": 64
    },
    {
      "midi": 53,
      "hit": false,
      "t": 55200,
      "d": 800,
      "v": 48
    },
    {
      "midi": 60,
      "hit": false,
      "t": 55200,
      "d": 800,
      "v": 48
    },
    {
      "midi": 55,
      "hit": false,
      "t": 56000,
      "d": 800,
      "v": 48
    },
    {
      "midi": 59,
      "hit": false,
      "t": 56000,
      "d": 800,
      "v": 48
    },
    {
      "midi": 63,
      "hit": false,
      "t": 56400,
      "d": 200,
      "v": 64
    },
    {
      "midi": 65,
      "hit": false,
      "t": 56600,
      "d": 200,
      "v": 64
    },
    {
      "midi": 67,
      "hit": false,
      "t": 56800,
      "d": 200,
      "v": 64
    },
    {
      "midi": 55,
      "hit": false,
      "t": 56800,
      "d": 800,
      "v": 48
    },
    {
      "midi": 59,
      "hit": false,
      "t": 56800,
      "d": 800,
      "v": 48
    },
    {
      "midi": 65,
      "hit": false,
      "t": 57000,
      "d": 200,
      "v": 64
    },
    {
      "midi": 63,
      "hit": false,
      "t": 57200,
      "d": 200,
      "v": 64
    },
    {
      "midi": 62,
      "hit": false,
      "t": 57400,
      "d": 200,
      "v": 64
    },
    {
      "midi": 60,
      "hit": false,
      "t": 57600,
      "d": 800,
      "v": 64
    },
    {
      "midi": 51,
      "hit": false,
      "t": 57600,
      "d": 800,
      "v": 48
    },
    {
      "midi": 55,
      "hit": false,
      "t": 57600,
      "d": 800,
      "v": 48
    },
    {
      "midi": 75,
      "hit": false,
      "t": 58400,
      "d": 800,
      "v": 64
    },
    {
      "midi": 51,
      "hit": false,
      "t": 58400,
      "d": 800,
      "v": 48
    },
    {
      "midi": 55,
      "hit": false,
      "t": 58400,
      "d": 800,
      "v": 48
    },
    {
      "midi": 60,
      "hit": false,
      "t": 58400,
      "d": 800,
      "v": 48
    },
    {
      "midi": 72,
      "hit": false,
      "t": 59200,
      "d": 1200,
      "v": 64
    },
    {
      "midi": 51,
      "hit": false,
      "t": 59200,
      "d": 800,
      "v": 48
    },
    {
      "midi": 55,
      "hit": false,
      "t": 59200,
      "d": 800,
      "v": 48
    },
    {
      "midi": 60,
      "hit": false,
      "t": 59200,
      "d": 800,
      "v": 48
    },
    {
      "midi": 51,
      "hit": false,
      "t": 60000,
      "d": 800,
      "v": 48
    },
    {
      "midi": 55,
      "hit": false,
      "t": 60000,
      "d": 800,
      "v": 48
    },
    {
      "midi": 60,
      "hit": false,
      "t": 60000,
      "d": 800,
      "v": 48
    },
    {
      "midi": 63,
      "hit": false,
      "t": 60400,
      "d": 400,
      "v": 64
    },
    {
      "midi": 62,
      "hit": false,
      "t": 60800,
      "d": 800,
      "v": 64
    },
    {
      "midi": 53,
      "hit": false,
      "t": 60800,
      "d": 800,
      "v": 48
    },
    {
      "midi": 60,
      "hit": false,
      "t": 60800,
      "d": 800,
      "v": 48
    },
    {
      "midi": 62,
      "hit": false,
      "t": 61600,
      "d": 1200,
      "v": 64
    },
    {
      "midi": 53,
      "hit": false,
      "t": 61600,
      "d": 800,
      "v": 48
    },
    {
      "midi": 60,
      "hit": false,
      "t": 61600,
      "d": 800,
      "v": 48
    },
    {
      "midi": 55,
      "hit": false,
      "t": 62400,
      "d": 800,
      "v": 48
    },
    {
      "midi": 59,
      "hit": false,
      "t": 62400,
      "d": 800,
      "v": 48
    },
    {
      "midi": 63,
      "hit": false,
      "t": 62800,
      "d": 200,
      "v": 64
    },
    {
      "midi": 65,
      "hit": false,
      "t": 63000,
      "d": 200,
      "v": 64
    },
    {
      "midi": 67,
      "hit": false,
      "t": 63200,
      "d": 200,
      "v": 64
    },
    {
      "midi": 55,
      "hit": false,
      "t": 63200,
      "d": 800,
      "v": 48
    },
    {
      "midi": 59,
      "hit": false,
      "t": 63200,
      "d": 800,
      "v": 48
    },
    {
      "midi": 65,
      "hit": false,
      "t": 63400,
      "d": 200,
      "v": 64
    },
    {
      "midi": 63,
      "hit": false,
      "t": 63600,
      "d": 200,
      "v": 64
    },
    {
      "midi": 62,
      "hit": false,
      "t": 63800,
      "d": 200,
      "v": 64
    },
    {
      "midi": 60,
      "hit": false,
      "t": 64000,
      "d": 1600,
      "v": 64
    },
    {
      "midi": 48,
      "hit": false,
      "t": 64000,
      "d": 800,
      "v": 48
    },
    {
      "midi": 51,
      "hit": false,
      "t": 64000,
      "d": 800,
      "v": 48
    },
    {
      "midi": 55,
      "hit": false,
      "t": 64000,
      "d": 800,
      "v": 48
    },
    {
      "midi": 48,
      "hit": false,
      "t": 64800,
      "d": 800,
      "v": 48
    },
    {
      "midi": 51,
      "hit": false,
      "t": 64800,
      "d": 800,
      "v": 48
    },
    {
      "midi": 55,
      "hit": false,
      "t": 64800,
      "d": 800,
      "v": 48
    },
    {
      "midi": 48,
      "hit": false,
      "t": 65600,
      "d": 800,
      "v": 48
    },
    {
      "midi": 51,
      "hit": false,
      "t": 65600,
      "d": 800,
      "v": 48
    },
    {
      "midi": 55,
      "hit": false,
      "t": 65600,
      "d": 800,
      "v": 48
    },
    {
      "midi": 48,
      "hit": false,
      "t": 66400,
      "d": 600,
      "v": 48
    },
    {
      "midi": 51,
      "hit": false,
      "t": 66400,
      "d": 600,
      "v": 48
    },
    {
      "midi": 55,
      "hit": false,
      "t": 66400,
      "d": 600,
      "v": 48
    },
    {
      "midi": 53,
      "hit": false,
      "t": 67000,
      "d": 200,
      "v": 48
    },
    {
      "midi": 56,
      "hit": false,
      "t": 67000,
      "d": 200,
      "v": 48
    },
    {
      "midi": 48,
      "hit": false,
      "t": 67200,
      "d": 800,
      "v": 48
    },
    {
      "midi": 51,
      "hit": false,
      "t": 67200,
      "d": 800,
      "v": 48
    },
    {
      "midi": 55,
      "hit": false,
      "t": 67200,
      "d": 800,
      "v": 48
    },
    {
      "midi": 48,
      "hit": false,
      "t": 68000,
      "d": 800,
      "v": 48
    },
    {
      "midi": 51,
      "hit": false,
      "t": 68000,
      "d": 800,
      "v": 48
    },
    {
      "midi": 55,
      "hit": false,
      "t": 68000,
      "d": 800,
      "v": 48
    },
    {
      "midi": 48,
      "hit": false,
      "t": 68800,
      "d": 800,
      "v": 48
    },
    {
      "midi": 51,
      "hit": false,
      "t": 68800,
      "d": 800,
      "v": 48
    },
    {
      "midi": 55,
      "hit": false,
      "t": 68800,
      "d": 800,
      "v": 48
    },
    {
      "midi": 48,
      "hit": false,
      "t": 69600,
      "d": 600,
      "v": 48
    },
    {
      "midi": 51,
      "hit": false,
      "t": 69600,
      "d": 600,
      "v": 48
    },
    {
      "midi": 55,
      "hit": false,
      "t": 69600,
      "d": 600,
      "v": 48
    },
    {
      "midi": 53,
      "hit": false,
      "t": 70200,
      "d": 200,
      "v": 48
    },
    {
      "midi": 56,
      "hit": false,
      "t": 70200,
      "d": 200,
      "v": 48
    },
    {
      "midi": 67,
      "hit": false,
      "t": 70400,
      "d": 1600,
      "v": 64
    },
    {
      "midi": 48,
      "hit": false,
      "t": 70400,
      "d": 800,
      "v": 48
    },
    {
      "midi": 55,
      "hit": false,
      "t": 70400,
      "d": 800,
      "v": 48
    },
    {
      "midi": 48,
      "hit": false,
      "t": 71200,
      "d": 800,
      "v": 48
    },
    {
      "midi": 55,
      "hit": false,
      "t": 71200,
      "d": 800,
      "v": 48
    },
    {
      "midi": 67,
      "hit": false,
      "t": 72000,
      "d": 1600,
      "v": 64
    },
    {
      "midi": 48,
      "hit": false,
      "t": 72000,
      "d": 800,
      "v": 48
    },
    {
      "midi": 55,
      "hit": false,
      "t": 72000,
      "d": 800,
      "v": 48
    },
    {
      "midi": 48,
      "hit": false,
      "t": 72800,
      "d": 800,
      "v": 48
    },
    {
      "midi": 55,
      "hit": false,
      "t": 72800,
      "d": 800,
      "v": 48
    },
    {
      "midi": 69,
      "hit": false,
      "t": 73600,
      "d": 200,
      "v": 64
    },
    {
      "midi": 48,
      "hit": false,
      "t": 73600,
      "d": 800,
      "v": 48
    },
    {
      "midi": 53,
      "hit": false,
      "t": 73600,
      "d": 800,
      "v": 48
    },
    {
      "midi": 70,
      "hit": false,
      "t": 73800,
      "d": 200,
      "v": 64
    },
    {
      "midi": 72,
      "hit": false,
      "t": 74000,
      "d": 1600,
      "v": 64
    },
    {
      "midi": 48,
      "hit": false,
      "t": 74400,
      "d": 800,
      "v": 48
    },
    {
      "midi": 53,
      "hit": false,
      "t": 74400,
      "d": 800,
      "v": 48
    },
    {
      "midi": 48,
      "hit": false,
      "t": 75200,
      "d": 800,
      "v": 48
    },
    {
      "midi": 53,
      "hit": false,
      "t": 75200,
      "d": 800,
      "v": 48
    },
    {
      "midi": 70,
      "hit": false,
      "t": 76000,
      "d": 400,
      "v": 64
    },
    {
      "midi": 48,
      "hit": false,
      "t": 76000,
      "d": 800,
      "v": 48
    },
    {
      "midi": 53,
      "hit": false,
      "t": 76000,
      "d": 800,
      "v": 48
    },
    {
      "midi": 68,
      "hit": false,
      "t": 76400,
      "d": 400,
      "v": 64
    },
    {
      "midi": 67,
      "hit": false,
      "t": 76800,
      "d": 800,
      "v": 64
    },
    {
      "midi": 48,
      "hit": false,
      "t": 76800,
      "d": 800,
      "v": 48
    },
    {
      "midi": 51,
      "hit": false,
      "t": 76800,
      "d": 800,
      "v": 48
    },
    {
      "midi": 55,
      "hit": false,
      "t": 76800,
      "d": 800,
      "v": 48
    },
    {
      "midi": 75,
      "hit": false,
      "t": 77600,
      "d": 800,
      "v": 64
    },
    {
      "midi": 48,
      "hit": false,
      "t": 77600,
      "d": 800,
      "v": 48
    },
    {
      "midi": 51,
      "hit": false,
      "t": 77600,
      "d": 800,
      "v": 48
    },
    {
      "midi": 55,
      "hit": false,
      "t": 77600,
      "d": 800,
      "v": 48
    },
    {
      "midi": 71,
      "hit": false,
      "t": 78400,
      "d": 200,
      "v": 64
    },
    {
      "midi": 43,
      "hit": false,
      "t": 78400,
      "d": 800,
      "v": 48
    },
    {
      "midi": 50,
      "hit": false,
      "t": 78400,
      "d": 800,
      "v": 48
    },
    {
      "midi": 53,
      "hit": false,
      "t": 78400,
      "d": 800,
      "v": 48
    },
    {
      "midi": 55,
      "hit": false,
      "t": 78400,
      "d": 800,
      "v": 48
    },
    {
      "midi": 72,
      "hit": false,
      "t": 78600,
      "d": 200,
      "v": 64
    },
    {
      "midi": 71,
      "hit": false,
      "t": 78800,
      "d": 200,
      "v": 64
    },
    {
      "midi": 72,
      "hit": false,
      "t": 79000,
      "d": 200,
      "v": 64
    },
    {
      "midi": 71,
      "hit": false,
      "t": 79200,
      "d": 200,
      "v": 64
    },
    {
      "midi": 43,
      "hit": false,
      "t": 79200,
      "d": 800,
      "v": 48
    },
    {
      "midi": 50,
      "hit": false,
      "t": 79200,
      "d": 800,
      "v": 48
    },
    {
      "midi": 53,
      "hit": false,
      "t": 79200,
      "d": 800,
      "v": 48
    },
    {
      "midi": 55,
      "hit": false,
      "t": 79200,
      "d": 800,
      "v": 48
    },
    {
      "midi": 72,
      "hit": false,
      "t": 79400,
      "d": 200,
      "v": 64
    },
    {
      "midi": 69,
      "hit": false,
      "t": 79600,
      "d": 200,
      "v": 64
    },
    {
      "midi": 71,
      "hit": false,
      "t": 79800,
      "d": 200,
      "v": 64
    },
    {
      "midi": 72,
      "hit": false,
      "t": 80000,
      "d": 2400,
      "v": 64
    },
    {
      "midi": 48,
      "hit": false,
      "t": 80000,
      "d": 800,
      "v": 48
    },
    {
      "midi": 51,
      "hit": false,
      "t": 80000,
      "d": 800,
      "v": 48
    },
    {
      "midi": 55,
      "hit": false,
      "t": 80000,
      "d": 800,
      "v": 48
    },
    {
      "midi": 48,
      "hit": false,
      "t": 80800,
      "d": 800,
      "v": 48
    },
    {
      "midi": 51,
      "hit": false,
      "t": 80800,
      "d": 800,
      "v": 48
    },
    {
      "midi": 55,
      "hit": false,
      "t": 80800,
      "d": 800,
      "v": 48
    },
    {
      "midi": 48,
      "hit": false,
      "t": 81600,
      "d": 800,
      "v": 48
    },
    {
      "midi": 51,
      "hit": false,
      "t": 81600,
      "d": 800,
      "v": 48
    },
    {
      "midi": 55,
      "hit": false,
      "t": 81600,
      "d": 800,
      "v": 48
    },
    {
      "midi": 72,
      "hit": false,
      "t": 82400,
      "d": 800,
      "v": 64
    },
    {
      "midi": 60,
      "hit": false,
      "t": 83200,
      "d": 2400,
      "v": 64
    },
    {
      "midi": 48,
      "hit": false,
      "t": 83200,
      "d": 2400,
      "v": 48
    },
    {
      "midi": 51,
      "hit": false,
      "t": 83200,
      "d": 2400,
      "v": 48
    },
    {
      "midi": 55,
      "hit": false,
      "t": 83200,
      "d": 2400,
      "v": 48
    },
    {
      "midi": 60,
      "hit": false,
      "t": 85600,
      "d": 800,
      "v": 64
    },
    {
      "midi": 36,
      "hit": false,
      "t": 86400,
      "d": 3200,
      "v": 48
    },
    {
      "midi": 39,
      "hit": false,
      "t": 86400,
      "d": 3200,
      "v": 48
    },
    {
      "midi": 43,
      "hit": false,
      "t": 86400,
      "d": 3200,
      "v": 48
    },
    {
      "midi": 48,
      "hit": false,
      "t": 86400,
      "d": 3200,
      "v": 48
    }
  ]
}