{
  "jsonPath": "Classical/Classical/Franz Schubert/ungarische-melodie.json",
  "path": "Classical\\Classical\\Franz Schubert\\Ungarische Melodie.mid",
  "name": "Ungarische Melodie",
  "difficulty": "Advanced",
  "bpm": 76.00006586672374,
  "notes": [
    {
      "midi": 47,
      "hit": false,
      "t": 0,
      "d": 394.73650000000004,
      "v": 127
    },
    {
      "midi": 66,
      "hit": false,
      "t": 197.36825000000002,
      "d": 197.36825000000002,
      "v": 127
    },
    {
      "midi": 54,
      "hit": false,
      "t": 394.73650000000004,
      "d": 394.73650000000004,
      "v": 127
    },
    {
      "midi": 59,
      "hit": false,
      "t": 394.73650000000004,
      "d": 394.73650000000004,
      "v": 127
    },
    {
      "midi": 62,
      "hit": false,
      "t": 394.73650000000004,
      "d": 394.73650000000004,
      "v": 127
    },
    {
      "midi": 71,
      "hit": false,
      "t": 394.73650000000004,
      "d": 592.10475,
      "v": 127
    },
    {
      "midi": 47,
      "hit": false,
      "t": 789.4730000000001,
      "d": 394.7365000000001,
      "v": 127
    },
    {
      "midi": 66,
      "hit": false,
      "t": 986.84125,
      "d": 197.36825,
      "v": 127
    },
    {
      "midi": 71,
      "hit": false,
      "t": 1184.2095,
      "d": 394.7365,
      "v": 127
    },
    {
      "midi": 54,
      "hit": false,
      "t": 1184.2095000000002,
      "d": 394.7365,
      "v": 127
    },
    {
      "midi": 59,
      "hit": false,
      "t": 1184.2095000000002,
      "d": 394.7365,
      "v": 127
    },
    {
      "midi": 62,
      "hit": false,
      "t": 1184.2095000000002,
      "d": 394.7365,
      "v": 127
    },
    {
      "midi": 47,
      "hit": false,
      "t": 1578.9460000000001,
      "d": 394.7365,
      "v": 127
    },
    {
      "midi": 66,
      "hit": false,
      "t": 1776.31425,
      "d": 197.36825,
      "v": 127
    },
    {
      "midi": 71,
      "hit": false,
      "t": 1973.6825,
      "d": 592.10475,
      "v": 127
    },
    {
      "midi": 54,
      "hit": false,
      "t": 1973.6825000000001,
      "d": 394.7365000000002,
      "v": 127
    },
    {
      "midi": 59,
      "hit": false,
      "t": 1973.6825000000001,
      "d": 394.7365000000002,
      "v": 127
    },
    {
      "midi": 62,
      "hit": false,
      "t": 1973.6825000000001,
      "d": 394.7365000000002,
      "v": 127
    },
    {
      "midi": 47,
      "hit": false,
      "t": 2368.4190000000003,
      "d": 394.7365,
      "v": 127
    },
    {
      "midi": 66,
      "hit": false,
      "t": 2565.78725,
      "d": 197.36825,
      "v": 127
    },
    {
      "midi": 71,
      "hit": false,
      "t": 2763.1555,
      "d": 197.36825,
      "v": 127
    },
    {
      "midi": 54,
      "hit": false,
      "t": 2763.1555000000003,
      "d": 394.7365,
      "v": 127
    },
    {
      "midi": 59,
      "hit": false,
      "t": 2763.1555000000003,
      "d": 394.7365,
      "v": 127
    },
    {
      "midi": 62,
      "hit": false,
      "t": 2763.1555000000003,
      "d": 394.7365,
      "v": 127
    },
    {
      "midi": 73,
      "hit": false,
      "t": 2960.52375,
      "d": 197.36825,
      "v": 127
    },
    {
      "midi": 74,
      "hit": false,
      "t": 3157.892,
      "d": 197.36825,
      "v": 127
    },
    {
      "midi": 47,
      "hit": false,
      "t": 3157.8920000000003,
      "d": 394.7365,
      "v": 127
    },
    {
      "midi": 66,
      "hit": false,
      "t": 3355.26025,
      "d": 197.36825,
      "v": 127
    },
    {
      "midi": 71,
      "hit": false,
      "t": 3552.6285,
      "d": 592.1047499999995,
      "v": 127
    },
    {
      "midi": 74,
      "hit": false,
      "t": 3552.6285,
      "d": 592.1047499999995,
      "v": 127
    },
    {
      "midi": 54,
      "hit": false,
      "t": 3552.6285000000003,
      "d": 394.7365,
      "v": 127
    },
    {
      "midi": 59,
      "hit": false,
      "t": 3552.6285000000003,
      "d": 394.7365,
      "v": 127
    },
    {
      "midi": 62,
      "hit": false,
      "t": 3552.6285000000003,
      "d": 394.7365,
      "v": 127
    },
    {
      "midi": 47,
      "hit": false,
      "t": 3947.3650000000002,
      "d": 394.73650000000043,
      "v": 127
    },
    {
      "midi": 66,
      "hit": false,
      "t": 4144.733249999999,
      "d": 197.36825000000044,
      "v": 127
    },
    {
      "midi": 71,
      "hit": false,
      "t": 4342.1015,
      "d": 394.7365,
      "v": 127
    },
    {
      "midi": 74,
      "hit": false,
      "t": 4342.1015,
      "d": 394.7365,
      "v": 127
    },
    {
      "midi": 54,
      "hit": false,
      "t": 4342.101500000001,
      "d": 394.7365,
      "v": 127
    },
    {
      "midi": 59,
      "hit": false,
      "t": 4342.101500000001,
      "d": 394.7365,
      "v": 127
    },
    {
      "midi": 62,
      "hit": false,
      "t": 4342.101500000001,
      "d": 394.7365,
      "v": 127
    },
    {
      "midi": 47,
      "hit": false,
      "t": 4736.838000000001,
      "d": 394.7365,
      "v": 127
    },
    {
      "midi": 66,
      "hit": false,
      "t": 4934.20625,
      "d": 197.36825000000044,
      "v": 127
    },
    {
      "midi": 54,
      "hit": false,
      "t": 5131.574500000001,
      "d": 394.7365,
      "v": 127
    },
    {
      "midi": 59,
      "hit": false,
      "t": 5131.574500000001,
      "d": 394.7365,
      "v": 127
    },
    {
      "midi": 62,
      "hit": false,
      "t": 5131.574500000001,
      "d": 394.7365,
      "v": 127
    },
    {
      "midi": 71,
      "hit": false,
      "t": 5131.574500000001,
      "d": 592.1047500000004,
      "v": 127
    },
    {
      "midi": 74,
      "hit": false,
      "t": 5131.574500000001,
      "d": 592.1047500000004,
      "v": 127
    },
    {
      "midi": 47,
      "hit": false,
      "t": 5526.311000000001,
      "d": 394.7365,
      "v": 127
    },
    {
      "midi": 71,
      "hit": false,
      "t": 5723.679250000001,
      "d": 197.36825000000044,
      "v": 127
    },
    {
      "midi": 54,
      "hit": false,
      "t": 5921.047500000001,
      "d": 394.7365,
      "v": 127
    },
    {
      "midi": 59,
      "hit": false,
      "t": 5921.047500000001,
      "d": 394.7365,
      "v": 127
    },
    {
      "midi": 62,
      "hit": false,
      "t": 5921.047500000001,
      "d": 394.7365,
      "v": 127
    },
    {
      "midi": 74,
      "hit": false,
      "t": 5921.0475000000015,
      "d": 197.36825000000044,
      "v": 127
    },
    {
      "midi": 76,
      "hit": false,
      "t": 6118.415750000002,
      "d": 197.36825000000044,
      "v": 127
    },
    {
      "midi": 47,
      "hit": false,
      "t": 6315.784000000001,
      "d": 394.7365,
      "v": 127
    },
    {
      "midi": 78,
      "hit": false,
      "t": 6315.784000000002,
      "d": 197.36825000000044,
      "v": 127
    },
    {
      "midi": 71,
      "hit": false,
      "t": 6513.152250000003,
      "d": 197.36825000000044,
      "v": 127
    },
    {
      "midi": 54,
      "hit": false,
      "t": 6710.5205000000005,
      "d": 394.7365,
      "v": 127
    },
    {
      "midi": 59,
      "hit": false,
      "t": 6710.5205000000005,
      "d": 394.7365,
      "v": 127
    },
    {
      "midi": 62,
      "hit": false,
      "t": 6710.5205000000005,
      "d": 394.7365,
      "v": 127
    },
    {
      "midi": 74,
      "hit": false,
      "t": 6710.520500000003,
      "d": 592.1047499999995,
      "v": 127
    },
    {
      "midi": 78,
      "hit": false,
      "t": 6710.520500000003,
      "d": 592.1047499999995,
      "v": 127
    },
    {
      "midi": 47,
      "hit": false,
      "t": 7105.2570000000005,
      "d": 394.7365,
      "v": 127
    },
    {
      "midi": 71,
      "hit": false,
      "t": 7302.625250000003,
      "d": 197.36825000000044,
      "v": 127
    },
    {
      "midi": 54,
      "hit": false,
      "t": 7499.9935000000005,
      "d": 394.7365,
      "v": 127
    },
    {
      "midi": 59,
      "hit": false,
      "t": 7499.9935000000005,
      "d": 394.7365,
      "v": 127
    },
    {
      "midi": 62,
      "hit": false,
      "t": 7499.9935000000005,
      "d": 394.7365,
      "v": 127
    },
    {
      "midi": 78,
      "hit": false,
      "t": 7499.993500000003,
      "d": 394.7365,
      "v": 127
    },
    {
      "midi": 47,
      "hit": false,
      "t": 7894.7300000000005,
      "d": 394.7365,
      "v": 127
    },
    {
      "midi": 71,
      "hit": false,
      "t": 8092.098250000004,
      "d": 197.36825000000044,
      "v": 127
    },
    {
      "midi": 54,
      "hit": false,
      "t": 8289.4665,
      "d": 394.7365000000009,
      "v": 127
    },
    {
      "midi": 59,
      "hit": false,
      "t": 8289.4665,
      "d": 394.7365000000009,
      "v": 127
    },
    {
      "midi": 62,
      "hit": false,
      "t": 8289.4665,
      "d": 394.7365000000009,
      "v": 127
    },
    {
      "midi": 47,
      "hit": false,
      "t": 8684.203000000001,
      "d": 394.7365000000009,
      "v": 127
    },
    {
      "midi": 76,
      "hit": false,
      "t": 8684.203000000005,
      "d": 197.36824999999953,
      "v": 127
    },
    {
      "midi": 79,
      "hit": false,
      "t": 8684.203000000005,
      "d": 197.36824999999953,
      "v": 127
    },
    {
      "midi": 74,
      "hit": false,
      "t": 8881.571250000005,
      "d": 197.36824999999953,
      "v": 127
    },
    {
      "midi": 78,
      "hit": false,
      "t": 8881.571250000005,
      "d": 197.36824999999953,
      "v": 127
    },
    {
      "midi": 54,
      "hit": false,
      "t": 9078.939500000002,
      "d": 394.7365000000009,
      "v": 127
    },
    {
      "midi": 59,
      "hit": false,
      "t": 9078.939500000002,
      "d": 394.7365000000009,
      "v": 127
    },
    {
      "midi": 62,
      "hit": false,
      "t": 9078.939500000002,
      "d": 394.7365000000009,
      "v": 127
    },
    {
      "midi": 73,
      "hit": false,
      "t": 9078.939500000004,
      "d": 197.36824999999953,
      "v": 127
    },
    {
      "midi": 76,
      "hit": false,
      "t": 9078.939500000004,
      "d": 197.36824999999953,
      "v": 127
    },
    {
      "midi": 71,
      "hit": false,
      "t": 9276.307750000004,
      "d": 197.36824999999953,
      "v": 127
    },
    {
      "midi": 74,
      "hit": false,
      "t": 9276.307750000004,
      "d": 197.36824999999953,
      "v": 127
    },
    {
      "midi": 42,
      "hit": false,
      "t": 9473.676000000003,
      "d": 394.7365000000009,
      "v": 127
    },
    {
      "midi": 78,
      "hit": false,
      "t": 9473.676000000003,
      "d": 197.36824999999953,
      "v": 127
    },
    {
      "midi": 70,
      "hit": false,
      "t": 9671.044250000003,
      "d": 197.36824999999953,
      "v": 127
    },
    {
      "midi": 73,
      "hit": false,
      "t": 9868.412500000002,
      "d": 592.1047500000004,
      "v": 127
    },
    {
      "midi": 78,
      "hit": false,
      "t": 9868.412500000002,
      "d": 592.1047500000004,
      "v": 127
    },
    {
      "midi": 54,
      "hit": false,
      "t": 9868.412500000004,
      "d": 394.7365000000009,
      "v": 127
    },
    {
      "midi": 58,
      "hit": false,
      "t": 9868.412500000004,
      "d": 394.7365000000009,
      "v": 127
    },
    {
      "midi": 64,
      "hit": false,
      "t": 9868.412500000004,
      "d": 394.7365000000009,
      "v": 127
    },
    {
      "midi": 42,
      "hit": false,
      "t": 10263.149000000005,
      "d": 394.7365000000009,
      "v": 127
    },
    {
      "midi": 70,
      "hit": false,
      "t": 10460.517250000003,
      "d": 197.36824999999953,
      "v": 127
    },
    {
      "midi": 73,
      "hit": false,
      "t": 10657.885500000002,
      "d": 394.7365000000009,
      "v": 127
    },
    {
      "midi": 78,
      "hit": false,
      "t": 10657.885500000002,
      "d": 394.7365000000009,
      "v": 127
    },
    {
      "midi": 54,
      "hit": false,
      "t": 10657.885500000006,
      "d": 394.7365000000009,
      "v": 127
    },
    {
      "midi": 58,
      "hit": false,
      "t": 10657.885500000006,
      "d": 394.7365000000009,
      "v": 127
    },
    {
      "midi": 64,
      "hit": false,
      "t": 10657.885500000006,
      "d": 394.7365000000009,
      "v": 127
    },
    {
      "midi": 42,
      "hit": false,
      "t": 11052.622000000007,
      "d": 394.7365000000009,
      "v": 127
    },
    {
      "midi": 70,
      "hit": false,
      "t": 11249.990250000003,
      "d": 197.36824999999953,
      "v": 127
    },
    {
      "midi": 73,
      "hit": false,
      "t": 11447.358500000002,
      "d": 394.7365000000009,
      "v": 127
    },
    {
      "midi": 78,
      "hit": false,
      "t": 11447.358500000002,
      "d": 394.7365000000009,
      "v": 127
    },
    {
      "midi": 54,
      "hit": false,
      "t": 11447.358500000008,
      "d": 394.7365000000009,
      "v": 127
    },
    {
      "midi": 58,
      "hit": false,
      "t": 11447.358500000008,
      "d": 394.7365000000009,
      "v": 127
    },
    {
      "midi": 64,
      "hit": false,
      "t": 11447.358500000008,
      "d": 394.7365000000009,
      "v": 127
    },
    {
      "midi": 82,
      "hit": false,
      "t": 11842.095000000003,
      "d": 197.36824999999953,
      "v": 127
    },
    {
      "midi": 42,
      "hit": false,
      "t": 11842.095000000008,
      "d": 394.7365000000009,
      "v": 127
    },
    {
      "midi": 79,
      "hit": false,
      "t": 12039.463250000003,
      "d": 197.36824999999953,
      "v": 127
    },
    {
      "midi": 78,
      "hit": false,
      "t": 12236.831500000002,
      "d": 197.36824999999953,
      "v": 127
    },
    {
      "midi": 54,
      "hit": false,
      "t": 12236.83150000001,
      "d": 394.7365000000009,
      "v": 127
    },
    {
      "midi": 58,
      "hit": false,
      "t": 12236.83150000001,
      "d": 394.7365000000009,
      "v": 127
    },
    {
      "midi": 64,
      "hit": false,
      "t": 12236.83150000001,
      "d": 394.7365000000009,
      "v": 127
    },
    {
      "midi": 76,
      "hit": false,
      "t": 12434.199750000002,
      "d": 197.36824999999953,
      "v": 127
    },
    {
      "midi": 74,
      "hit": false,
      "t": 12631.568000000001,
      "d": 197.36824999999953,
      "v": 127
    },
    {
      "midi": 47,
      "hit": false,
      "t": 12631.56800000001,
      "d": 394.7365000000009,
      "v": 127
    },
    {
      "midi": 71,
      "hit": false,
      "t": 12828.93625,
      "d": 197.36824999999953,
      "v": 127
    },
    {
      "midi": 74,
      "hit": false,
      "t": 13026.3045,
      "d": 592.1047500000004,
      "v": 127
    },
    {
      "midi": 78,
      "hit": false,
      "t": 13026.3045,
      "d": 592.1047500000004,
      "v": 127
    },
    {
      "midi": 54,
      "hit": false,
      "t": 13026.304500000011,
      "d": 394.7365000000009,
      "v": 127
    },
    {
      "midi": 59,
      "hit": false,
      "t": 13026.304500000011,
      "d": 394.7365000000009,
      "v": 127
    },
    {
      "midi": 62,
      "hit": false,
      "t": 13026.304500000011,
      "d": 394.7365000000009,
      "v": 127
    },
    {
      "midi": 47,
      "hit": false,
      "t": 13421.041000000012,
      "d": 394.7365000000009,
      "v": 127
    },
    {
      "midi": 71,
      "hit": false,
      "t": 13618.40925,
      "d": 197.36824999999953,
      "v": 127
    },
    {
      "midi": 74,
      "hit": false,
      "t": 13815.7775,
      "d": 394.7365000000009,
      "v": 127
    },
    {
      "midi": 78,
      "hit": false,
      "t": 13815.7775,
      "d": 394.7365000000009,
      "v": 127
    },
    {
      "midi": 54,
      "hit": false,
      "t": 13815.777500000013,
      "d": 394.7365000000009,
      "v": 127
    },
    {
      "midi": 59,
      "hit": false,
      "t": 13815.777500000013,
      "d": 394.7365000000009,
      "v": 127
    },
    {
      "midi": 62,
      "hit": false,
      "t": 13815.777500000013,
      "d": 394.7365000000009,
      "v": 127
    },
    {
      "midi": 47,
      "hit": false,
      "t": 14210.514000000014,
      "d": 394.7365000000009,
      "v": 127
    },
    {
      "midi": 71,
      "hit": false,
      "t": 14407.88225,
      "d": 197.36824999999953,
      "v": 127
    },
    {
      "midi": 74,
      "hit": false,
      "t": 14605.2505,
      "d": 394.7365000000009,
      "v": 127
    },
    {
      "midi": 78,
      "hit": false,
      "t": 14605.2505,
      "d": 394.7365000000009,
      "v": 127
    },
    {
      "midi": 54,
      "hit": false,
      "t": 14605.250500000015,
      "d": 394.7365000000009,
      "v": 127
    },
    {
      "midi": 59,
      "hit": false,
      "t": 14605.250500000015,
      "d": 394.7365000000009,
      "v": 127
    },
    {
      "midi": 62,
      "hit": false,
      "t": 14605.250500000015,
      "d": 394.7365000000009,
      "v": 127
    },
    {
      "midi": 73,
      "hit": false,
      "t": 14999.987000000001,
      "d": 197.36824999999953,
      "v": 127
    },
    {
      "midi": 76,
      "hit": false,
      "t": 14999.987000000001,
      "d": 197.36824999999953,
      "v": 127
    },
    {
      "midi": 43,
      "hit": false,
      "t": 14999.987000000016,
      "d": 394.7365000000009,
      "v": 127
    },
    {
      "midi": 71,
      "hit": false,
      "t": 15197.35525,
      "d": 197.36824999999953,
      "v": 127
    },
    {
      "midi": 74,
      "hit": false,
      "t": 15197.35525,
      "d": 197.36824999999953,
      "v": 127
    },
    {
      "midi": 69,
      "hit": false,
      "t": 15394.7235,
      "d": 197.36824999999953,
      "v": 127
    },
    {
      "midi": 73,
      "hit": false,
      "t": 15394.7235,
      "d": 197.36824999999953,
      "v": 127
    },
    {
      "midi": 55,
      "hit": false,
      "t": 15394.723500000016,
      "d": 394.7365000000009,
      "v": 127
    },
    {
      "midi": 59,
      "hit": false,
      "t": 15394.723500000016,
      "d": 394.7365000000009,
      "v": 127
    },
    {
      "midi": 62,
      "hit": false,
      "t": 15394.723500000016,
      "d": 394.7365000000009,
      "v": 127
    },
    {
      "midi": 67,
      "hit": false,
      "t": 15592.09175,
      "d": 197.36824999999953,
      "v": 127
    },
    {
      "midi": 71,
      "hit": false,
      "t": 15592.09175,
      "d": 197.36824999999953,
      "v": 127
    },
    {
      "midi": 69,
      "hit": false,
      "t": 15789.46,
      "d": 197.36824999999953,
      "v": 127
    },
    {
      "midi": 50,
      "hit": false,
      "t": 15789.460000000017,
      "d": 394.7365000000009,
      "v": 127
    },
    {
      "midi": 62,
      "hit": false,
      "t": 15986.828249999999,
      "d": 197.36824999999953,
      "v": 127
    },
    {
      "midi": 66,
      "hit": false,
      "t": 16184.196499999998,
      "d": 592.1047499999986,
      "v": 127
    },
    {
      "midi": 69,
      "hit": false,
      "t": 16184.196499999998,
      "d": 592.1047499999986,
      "v": 127
    },
    {
      "midi": 54,
      "hit": false,
      "t": 16184.196500000018,
      "d": 394.7365000000009,
      "v": 127
    },
    {
      "midi": 57,
      "hit": false,
      "t": 16184.196500000018,
      "d": 394.7365000000009,
      "v": 127
    },
    {
      "midi": 50,
      "hit": false,
      "t": 16578.93300000002,
      "d": 394.73649999999907,
      "v": 127
    },
    {
      "midi": 62,
      "hit": false,
      "t": 16776.301249999997,
      "d": 197.36824999999953,
      "v": 127
    },
    {
      "midi": 66,
      "hit": false,
      "t": 16973.669499999996,
      "d": 394.73649999999907,
      "v": 127
    },
    {
      "midi": 69,
      "hit": false,
      "t": 16973.669499999996,
      "d": 394.73649999999907,
      "v": 127
    },
    {
      "midi": 54,
      "hit": false,
      "t": 16973.669500000018,
      "d": 394.73649999999907,
      "v": 127
    },
    {
      "midi": 57,
      "hit": false,
      "t": 16973.669500000018,
      "d": 394.73649999999907,
      "v": 127
    },
    {
      "midi": 50,
      "hit": false,
      "t": 17368.406000000017,
      "d": 394.73649999999907,
      "v": 127
    },
    {
      "midi": 62,
      "hit": false,
      "t": 17565.774249999995,
      "d": 197.36824999999953,
      "v": 127
    },
    {
      "midi": 66,
      "hit": false,
      "t": 17763.142499999994,
      "d": 592.1047499999986,
      "v": 127
    },
    {
      "midi": 69,
      "hit": false,
      "t": 17763.142499999994,
      "d": 592.1047499999986,
      "v": 127
    },
    {
      "midi": 54,
      "hit": false,
      "t": 17763.142500000016,
      "d": 394.73649999999907,
      "v": 127
    },
    {
      "midi": 57,
      "hit": false,
      "t": 17763.142500000016,
      "d": 394.73649999999907,
      "v": 127
    },
    {
      "midi": 50,
      "hit": false,
      "t": 18157.879000000015,
      "d": 394.73649999999907,
      "v": 127
    },
    {
      "midi": 62,
      "hit": false,
      "t": 18355.247249999993,
      "d": 197.36824999999953,
      "v": 127
    },
    {
      "midi": 69,
      "hit": false,
      "t": 18552.615499999993,
      "d": 394.73649999999907,
      "v": 127
    },
    {
      "midi": 54,
      "hit": false,
      "t": 18552.615500000014,
      "d": 394.73649999999907,
      "v": 127
    },
    {
      "midi": 57,
      "hit": false,
      "t": 18552.615500000014,
      "d": 394.73649999999907,
      "v": 127
    },
    {
      "midi": 69,
      "hit": false,
      "t": 18947.35199999999,
      "d": 394.73649999999907,
      "v": 127
    },
    {
      "midi": 71,
      "hit": false,
      "t": 18947.35199999999,
      "d": 394.73649999999907,
      "v": 127
    },
    {
      "midi": 49,
      "hit": false,
      "t": 18947.352000000014,
      "d": 394.73649999999907,
      "v": 127
    },
    {
      "midi": 69,
      "hit": false,
      "t": 19342.08849999999,
      "d": 394.73649999999907,
      "v": 127
    },
    {
      "midi": 54,
      "hit": false,
      "t": 19342.088500000013,
      "d": 394.73649999999907,
      "v": 127
    },
    {
      "midi": 57,
      "hit": false,
      "t": 19342.088500000013,
      "d": 394.73649999999907,
      "v": 127
    },
    {
      "midi": 69,
      "hit": false,
      "t": 19736.82499999999,
      "d": 394.73649999999907,
      "v": 127
    },
    {
      "midi": 71,
      "hit": false,
      "t": 19736.82499999999,
      "d": 394.73649999999907,
      "v": 127
    },
    {
      "midi": 47,
      "hit": false,
      "t": 19736.82500000001,
      "d": 394.73649999999907,
      "v": 127
    },
    {
      "midi": 69,
      "hit": false,
      "t": 20131.56149999999,
      "d": 394.73649999999907,
      "v": 127
    },
    {
      "midi": 54,
      "hit": false,
      "t": 20131.56150000001,
      "d": 394.73649999999907,
      "v": 127
    },
    {
      "midi": 57,
      "hit": false,
      "t": 20131.56150000001,
      "d": 394.73649999999907,
      "v": 127
    },
    {
      "midi": 69,
      "hit": false,
      "t": 20526.297999999988,
      "d": 394.73649999999907,
      "v": 127
    },
    {
      "midi": 71,
      "hit": false,
      "t": 20526.297999999988,
      "d": 394.73649999999907,
      "v": 127
    },
    {
      "midi": 49,
      "hit": false,
      "t": 20526.29800000001,
      "d": 394.73649999999907,
      "v": 127
    },
    {
      "midi": 66,
      "hit": false,
      "t": 20921.034499999987,
      "d": 394.73649999999907,
      "v": 127
    },
    {
      "midi": 69,
      "hit": false,
      "t": 20921.034499999987,
      "d": 394.73649999999907,
      "v": 127
    },
    {
      "midi": 54,
      "hit": false,
      "t": 20921.03450000001,
      "d": 394.73649999999907,
      "v": 127
    },
    {
      "midi": 57,
      "hit": false,
      "t": 20921.03450000001,
      "d": 394.73649999999907,
      "v": 127
    },
    {
      "midi": 68,
      "hit": false,
      "t": 21315.770999999986,
      "d": 197.36824999999953,
      "v": 127
    },
    {
      "midi": 49,
      "hit": false,
      "t": 21315.771000000008,
      "d": 394.73649999999907,
      "v": 127
    },
    {
      "midi": 69,
      "hit": false,
      "t": 21513.139249999986,
      "d": 197.36824999999953,
      "v": 127
    },
    {
      "midi": 68,
      "hit": false,
      "t": 21710.507499999985,
      "d": 197.36824999999953,
      "v": 127
    },
    {
      "midi": 56,
      "hit": false,
      "t": 21710.507500000007,
      "d": 394.73649999999907,
      "v": 127
    },
    {
      "midi": 59,
      "hit": false,
      "t": 21710.507500000007,
      "d": 394.73649999999907,
      "v": 127
    },
    {
      "midi": 73,
      "hit": false,
      "t": 21907.875749999985,
      "d": 197.36824999999953,
      "v": 127
    },
    {
      "midi": 66,
      "hit": false,
      "t": 22105.243999999984,
      "d": 197.36824999999953,
      "v": 127
    },
    {
      "midi": 42,
      "hit": false,
      "t": 22105.244000000006,
      "d": 394.73649999999907,
      "v": 127
    },
    {
      "midi": 66,
      "hit": false,
      "t": 22302.612249999984,
      "d": 197.36824999999953,
      "v": 127
    },
    {
      "midi": 78,
      "hit": false,
      "t": 22499.980499999983,
      "d": 592.1047499999986,
      "v": 127
    },
    {
      "midi": 49,
      "hit": false,
      "t": 22499.980500000005,
      "d": 394.73649999999907,
      "v": 127
    },
    {
      "midi": 54,
      "hit": false,
      "t": 22499.980500000005,
      "d": 394.73649999999907,
      "v": 127
    },
    {
      "midi": 57,
      "hit": false,
      "t": 22499.980500000005,
      "d": 394.73649999999907,
      "v": 127
    },
    {
      "midi": 42,
      "hit": false,
      "t": 22894.717000000004,
      "d": 394.73649999999907,
      "v": 127
    },
    {
      "midi": 66,
      "hit": false,
      "t": 23092.085249999982,
      "d": 197.36824999999953,
      "v": 127
    },
    {
      "midi": 78,
      "hit": false,
      "t": 23289.45349999998,
      "d": 394.73649999999907,
      "v": 127
    },
    {
      "midi": 49,
      "hit": false,
      "t": 23289.453500000003,
      "d": 394.73649999999907,
      "v": 127
    },
    {
      "midi": 54,
      "hit": false,
      "t": 23289.453500000003,
      "d": 394.73649999999907,
      "v": 127
    },
    {
      "midi": 57,
      "hit": false,
      "t": 23289.453500000003,
      "d": 394.73649999999907,
      "v": 127
    },
    {
      "midi": 42,
      "hit": false,
      "t": 23684.190000000002,
      "d": 394.73649999999907,
      "v": 127
    },
    {
      "midi": 66,
      "hit": false,
      "t": 23881.55824999998,
      "d": 197.36824999999953,
      "v": 127
    },
    {
      "midi": 78,
      "hit": false,
      "t": 24078.92649999998,
      "d": 394.73649999999907,
      "v": 127
    },
    {
      "midi": 49,
      "hit": false,
      "t": 24078.9265,
      "d": 394.73649999999907,
      "v": 127
    },
    {
      "midi": 54,
      "hit": false,
      "t": 24078.9265,
      "d": 394.73649999999907,
      "v": 127
    },
    {
      "midi": 57,
      "hit": false,
      "t": 24078.9265,
      "d": 394.73649999999907,
      "v": 127
    },
    {
      "midi": 80,
      "hit": false,
      "t": 24473.66299999998,
      "d": 197.36824999999953,
      "v": 127
    },
    {
      "midi": 42,
      "hit": false,
      "t": 24473.663,
      "d": 394.73649999999907,
      "v": 127
    },
    {
      "midi": 74,
      "hit": false,
      "t": 24671.031249999978,
      "d": 197.36824999999953,
      "v": 127
    },
    {
      "midi": 73,
      "hit": false,
      "t": 24868.399499999978,
      "d": 197.36824999999953,
      "v": 127
    },
    {
      "midi": 50,
      "hit": false,
      "t": 24868.3995,
      "d": 394.73649999999907,
      "v": 127
    },
    {
      "midi": 56,
      "hit": false,
      "t": 24868.3995,
      "d": 394.73649999999907,
      "v": 127
    },
    {
      "midi": 59,
      "hit": false,
      "t": 24868.3995,
      "d": 394.73649999999907,
      "v": 127
    },
    {
      "midi": 71,
      "hit": false,
      "t": 25065.767749999977,
      "d": 197.36824999999953,
      "v": 127
    },
    {
      "midi": 73,
      "hit": false,
      "t": 25263.135999999977,
      "d": 197.36824999999953,
      "v": 127
    },
    {
      "midi": 42,
      "hit": false,
      "t": 25263.136,
      "d": 394.73649999999907,
      "v": 127
    },
    {
      "midi": 66,
      "hit": false,
      "t": 25460.504249999976,
      "d": 197.36824999999953,
      "v": 127
    },
    {
      "midi": 78,
      "hit": false,
      "t": 25657.872499999976,
      "d": 592.1047499999986,
      "v": 127
    },
    {
      "midi": 49,
      "hit": false,
      "t": 25657.872499999998,
      "d": 394.73649999999907,
      "v": 127
    },
    {
      "midi": 54,
      "hit": false,
      "t": 25657.872499999998,
      "d": 394.73649999999907,
      "v": 127
    },
    {
      "midi": 57,
      "hit": false,
      "t": 25657.872499999998,
      "d": 394.73649999999907,
      "v": 127
    },
    {
      "midi": 42,
      "hit": false,
      "t": 26052.608999999997,
      "d": 394.73649999999907,
      "v": 127
    },
    {
      "midi": 66,
      "hit": false,
      "t": 26249.977249999974,
      "d": 197.36824999999953,
      "v": 127
    },
    {
      "midi": 78,
      "hit": false,
      "t": 26447.345499999974,
      "d": 394.73649999999907,
      "v": 127
    },
    {
      "midi": 49,
      "hit": false,
      "t": 26447.345499999996,
      "d": 394.73649999999907,
      "v": 127
    },
    {
      "midi": 54,
      "hit": false,
      "t": 26447.345499999996,
      "d": 394.73649999999907,
      "v": 127
    },
    {
      "midi": 57,
      "hit": false,
      "t": 26447.345499999996,
      "d": 394.73649999999907,
      "v": 127
    },
    {
      "midi": 42,
      "hit": false,
      "t": 26842.081999999995,
      "d": 394.73649999999907,
      "v": 127
    },
    {
      "midi": 66,
      "hit": false,
      "t": 27039.450249999973,
      "d": 197.36824999999953,
      "v": 127
    },
    {
      "midi": 78,
      "hit": false,
      "t": 27236.818499999972,
      "d": 394.73649999999907,
      "v": 127
    },
    {
      "midi": 49,
      "hit": false,
      "t": 27236.818499999994,
      "d": 394.73649999999907,
      "v": 127
    },
    {
      "midi": 54,
      "hit": false,
      "t": 27236.818499999994,
      "d": 394.73649999999907,
      "v": 127
    },
    {
      "midi": 57,
      "hit": false,
      "t": 27236.818499999994,
      "d": 394.73649999999907,
      "v": 127
    },
    {
      "midi": 80,
      "hit": false,
      "t": 27631.55499999997,
      "d": 197.36824999999953,
      "v": 127
    },
    {
      "midi": 42,
      "hit": false,
      "t": 27631.554999999993,
      "d": 394.73649999999907,
      "v": 127
    },
    {
      "midi": 74,
      "hit": false,
      "t": 27828.92324999997,
      "d": 197.36824999999953,
      "v": 127
    },
    {
      "midi": 73,
      "hit": false,
      "t": 28026.29149999997,
      "d": 197.36824999999953,
      "v": 127
    },
    {
      "midi": 50,
      "hit": false,
      "t": 28026.291499999992,
      "d": 394.73649999999907,
      "v": 127
    },
    {
      "midi": 56,
      "hit": false,
      "t": 28026.291499999992,
      "d": 394.73649999999907,
      "v": 127
    },
    {
      "midi": 59,
      "hit": false,
      "t": 28026.291499999992,
      "d": 394.73649999999907,
      "v": 127
    },
    {
      "midi": 71,
      "hit": false,
      "t": 28223.65974999997,
      "d": 197.36824999999953,
      "v": 127
    },
    {
      "midi": 73,
      "hit": false,
      "t": 28421.02799999997,
      "d": 197.36824999999953,
      "v": 127
    },
    {
      "midi": 42,
      "hit": false,
      "t": 28421.02799999999,
      "d": 394.73649999999907,
      "v": 127
    },
    {
      "midi": 61,
      "hit": false,
      "t": 28618.39624999997,
      "d": 197.36824999999953,
      "v": 127
    },
    {
      "midi": 73,
      "hit": false,
      "t": 28815.76449999997,
      "d": 592.1047499999986,
      "v": 127
    },
    {
      "midi": 49,
      "hit": false,
      "t": 28815.76449999999,
      "d": 394.73649999999907,
      "v": 127
    },
    {
      "midi": 54,
      "hit": false,
      "t": 28815.76449999999,
      "d": 394.73649999999907,
      "v": 127
    },
    {
      "midi": 58,
      "hit": false,
      "t": 28815.76449999999,
      "d": 394.73649999999907,
      "v": 127
    },
    {
      "midi": 42,
      "hit": false,
      "t": 29210.50099999999,
      "d": 394.73649999999907,
      "v": 127
    },
    {
      "midi": 61,
      "hit": false,
      "t": 29407.869249999967,
      "d": 197.36824999999953,
      "v": 127
    },
    {
      "midi": 73,
      "hit": false,
      "t": 29605.237499999967,
      "d": 394.73649999999907,
      "v": 127
    },
    {
      "midi": 49,
      "hit": false,
      "t": 29605.23749999999,
      "d": 394.73649999999907,
      "v": 127
    },
    {
      "midi": 54,
      "hit": false,
      "t": 29605.23749999999,
      "d": 394.73649999999907,
      "v": 127
    },
    {
      "midi": 58,
      "hit": false,
      "t": 29605.23749999999,
      "d": 394.73649999999907,
      "v": 127
    },
    {
      "midi": 42,
      "hit": false,
      "t": 29999.973999999987,
      "d": 394.73649999999907,
      "v": 127
    },
    {
      "midi": 61,
      "hit": false,
      "t": 30197.342249999965,
      "d": 197.36824999999953,
      "v": 127
    },
    {
      "midi": 73,
      "hit": false,
      "t": 30394.710499999965,
      "d": 394.73649999999907,
      "v": 127
    },
    {
      "midi": 49,
      "hit": false,
      "t": 30394.710499999986,
      "d": 394.73649999999907,
      "v": 127
    },
    {
      "midi": 54,
      "hit": false,
      "t": 30394.710499999986,
      "d": 394.73649999999907,
      "v": 127
    },
    {
      "midi": 58,
      "hit": false,
      "t": 30394.710499999986,
      "d": 394.73649999999907,
      "v": 127
    },
    {
      "midi": 65,
      "hit": false,
      "t": 30789.446999999964,
      "d": 197.36824999999953,
      "v": 127
    },
    {
      "midi": 68,
      "hit": false,
      "t": 30789.446999999964,
      "d": 197.36824999999953,
      "v": 127
    },
    {
      "midi": 37,
      "hit": false,
      "t": 30789.446999999986,
      "d": 394.73649999999907,
      "v": 127
    },
    {
      "midi": 68,
      "hit": false,
      "t": 30986.815249999963,
      "d": 197.36824999999953,
      "v": 127
    },
    {
      "midi": 71,
      "hit": false,
      "t": 30986.815249999963,
      "d": 197.36824999999953,
      "v": 127
    },
    {
      "midi": 66,
      "hit": false,
      "t": 31184.183499999963,
      "d": 197.36824999999953,
      "v": 127
    },
    {
      "midi": 70,
      "hit": false,
      "t": 31184.183499999963,
      "d": 197.36824999999953,
      "v": 127
    },
    {
      "midi": 49,
      "hit": false,
      "t": 31184.183499999985,
      "d": 394.73649999999907,
      "v": 127
    },
    {
      "midi": 56,
      "hit": false,
      "t": 31184.183499999985,
      "d": 394.73649999999907,
      "v": 127
    },
    {
      "midi": 59,
      "hit": false,
      "t": 31184.183499999985,
      "d": 394.73649999999907,
      "v": 127
    },
    {
      "midi": 65,
      "hit": false,
      "t": 31381.551749999962,
      "d": 197.36824999999953,
      "v": 127
    },
    {
      "midi": 68,
      "hit": false,
      "t": 31381.551749999962,
      "d": 197.36824999999953,
      "v": 127
    },
    {
      "midi": 70,
      "hit": false,
      "t": 31578.919999999962,
      "d": 197.36824999999953,
      "v": 127
    },
    {
      "midi": 42,
      "hit": false,
      "t": 31578.919999999984,
      "d": 394.73649999999907,
      "v": 127
    },
    {
      "midi": 61,
      "hit": false,
      "t": 31776.28824999996,
      "d": 197.36824999999953,
      "v": 127
    },
    {
      "midi": 73,
      "hit": false,
      "t": 31973.65649999996,
      "d": 592.1047499999986,
      "v": 127
    },
    {
      "midi": 49,
      "hit": false,
      "t": 31973.656499999983,
      "d": 394.73649999999907,
      "v": 127
    },
    {
      "midi": 54,
      "hit": false,
      "t": 31973.656499999983,
      "d": 394.73649999999907,
      "v": 127
    },
    {
      "midi": 58,
      "hit": false,
      "t": 31973.656499999983,
      "d": 394.73649999999907,
      "v": 127
    },
    {
      "midi": 42,
      "hit": false,
      "t": 32368.392999999982,
      "d": 394.73649999999907,
      "v": 127
    },
    {
      "midi": 61,
      "hit": false,
      "t": 32565.76124999996,
      "d": 197.36824999999953,
      "v": 127
    },
    {
      "midi": 73,
      "hit": false,
      "t": 32763.12949999996,
      "d": 394.73649999999907,
      "v": 127
    },
    {
      "midi": 49,
      "hit": false,
      "t": 32763.12949999998,
      "d": 394.73649999999907,
      "v": 127
    },
    {
      "midi": 54,
      "hit": false,
      "t": 32763.12949999998,
      "d": 394.73649999999907,
      "v": 127
    },
    {
      "midi": 58,
      "hit": false,
      "t": 32763.12949999998,
      "d": 394.73649999999907,
      "v": 127
    },
    {
      "midi": 42,
      "hit": false,
      "t": 33157.86599999998,
      "d": 394.73649999999907,
      "v": 127
    },
    {
      "midi": 61,
      "hit": false,
      "t": 33355.23424999996,
      "d": 197.36824999999953,
      "v": 127
    },
    {
      "midi": 73,
      "hit": false,
      "t": 33552.60249999996,
      "d": 394.73649999999907,
      "v": 127
    },
    {
      "midi": 49,
      "hit": false,
      "t": 33552.60249999998,
      "d": 394.73649999999907,
      "v": 127
    },
    {
      "midi": 54,
      "hit": false,
      "t": 33552.60249999998,
      "d": 394.73649999999907,
      "v": 127
    },
    {
      "midi": 58,
      "hit": false,
      "t": 33552.60249999998,
      "d": 394.73649999999907,
      "v": 127
    },
    {
      "midi": 65,
      "hit": false,
      "t": 33947.338999999956,
      "d": 197.36824999999953,
      "v": 127
    },
    {
      "midi": 68,
      "hit": false,
      "t": 33947.338999999956,
      "d": 197.36824999999953,
      "v": 127
    },
    {
      "midi": 37,
      "hit": false,
      "t": 33947.33899999998,
      "d": 394.73649999999907,
      "v": 127
    },
    {
      "midi": 68,
      "hit": false,
      "t": 34144.707249999956,
      "d": 197.36824999999953,
      "v": 127
    },
    {
      "midi": 71,
      "hit": false,
      "t": 34144.707249999956,
      "d": 197.36824999999953,
      "v": 127
    },
    {
      "midi": 66,
      "hit": false,
      "t": 34342.075499999955,
      "d": 197.36824999999953,
      "v": 127
    },
    {
      "midi": 70,
      "hit": false,
      "t": 34342.075499999955,
      "d": 197.36824999999953,
      "v": 127
    },
    {
      "midi": 49,
      "hit": false,
      "t": 34342.07549999998,
      "d": 394.73649999999907,
      "v": 127
    },
    {
      "midi": 56,
      "hit": false,
      "t": 34342.07549999998,
      "d": 394.73649999999907,
      "v": 127
    },
    {
      "midi": 59,
      "hit": false,
      "t": 34342.07549999998,
      "d": 394.73649999999907,
      "v": 127
    },
    {
      "midi": 65,
      "hit": false,
      "t": 34539.443749999955,
      "d": 197.36824999999953,
      "v": 127
    },
    {
      "midi": 68,
      "hit": false,
      "t": 34539.443749999955,
      "d": 197.36824999999953,
      "v": 127
    },
    {
      "midi": 66,
      "hit": false,
      "t": 34736.811999999954,
      "d": 197.36824999999953,
      "v": 127
    },
    {
      "midi": 42,
      "hit": false,
      "t": 34736.811999999976,
      "d": 394.73649999999907,
      "v": 127
    },
    {
      "midi": 61,
      "hit": false,
      "t": 34934.180249999954,
      "d": 197.36824999999953,
      "v": 127
    },
    {
      "midi": 66,
      "hit": false,
      "t": 35131.54849999995,
      "d": 592.1047499999986,
      "v": 127
    },
    {
      "midi": 49,
      "hit": false,
      "t": 35131.548499999975,
      "d": 394.73649999999907,
      "v": 127
    },
    {
      "midi": 54,
      "hit": false,
      "t": 35131.548499999975,
      "d": 394.73649999999907,
      "v": 127
    },
    {
      "midi": 58,
      "hit": false,
      "t": 35131.548499999975,
      "d": 394.73649999999907,
      "v": 127
    },
    {
      "midi": 42,
      "hit": false,
      "t": 35526.284999999974,
      "d": 394.73649999999907,
      "v": 127
    },
    {
      "midi": 61,
      "hit": false,
      "t": 35723.65324999995,
      "d": 197.36824999999953,
      "v": 127
    },
    {
      "midi": 66,
      "hit": false,
      "t": 35921.02149999995,
      "d": 394.73649999999907,
      "v": 127
    },
    {
      "midi": 49,
      "hit": false,
      "t": 35921.02149999997,
      "d": 394.73649999999907,
      "v": 127
    },
    {
      "midi": 54,
      "hit": false,
      "t": 35921.02149999997,
      "d": 394.73649999999907,
      "v": 127
    },
    {
      "midi": 58,
      "hit": false,
      "t": 35921.02149999997,
      "d": 394.73649999999907,
      "v": 127
    },
    {
      "midi": 42,
      "hit": false,
      "t": 36315.75799999997,
      "d": 394.73649999999907,
      "v": 127
    },
    {
      "midi": 61,
      "hit": false,
      "t": 36513.12624999995,
      "d": 197.36824999999953,
      "v": 127
    },
    {
      "midi": 66,
      "hit": false,
      "t": 36710.49449999995,
      "d": 592.1047499999986,
      "v": 127
    },
    {
      "midi": 49,
      "hit": false,
      "t": 36710.49449999997,
      "d": 394.73649999999907,
      "v": 127
    },
    {
      "midi": 54,
      "hit": false,
      "t": 36710.49449999997,
      "d": 394.73649999999907,
      "v": 127
    },
    {
      "midi": 58,
      "hit": false,
      "t": 36710.49449999997,
      "d": 394.73649999999907,
      "v": 127
    },
    {
      "midi": 42,
      "hit": false,
      "t": 37105.23099999997,
      "d": 394.73649999999907,
      "v": 127
    },
    {
      "midi": 61,
      "hit": false,
      "t": 37302.59924999995,
      "d": 197.36824999999953,
      "v": 127
    },
    {
      "midi": 66,
      "hit": false,
      "t": 37499.96749999995,
      "d": 394.73649999999907,
      "v": 127
    },
    {
      "midi": 49,
      "hit": false,
      "t": 37499.96749999997,
      "d": 394.73649999999907,
      "v": 127
    },
    {
      "midi": 54,
      "hit": false,
      "t": 37499.96749999997,
      "d": 394.73649999999907,
      "v": 127
    },
    {
      "midi": 58,
      "hit": false,
      "t": 37499.96749999997,
      "d": 394.73649999999907,
      "v": 127
    },
    {
      "midi": 64,
      "hit": false,
      "t": 37894.70399999995,
      "d": 394.73649999999907,
      "v": 127
    },
    {
      "midi": 67,
      "hit": false,
      "t": 37894.70399999995,
      "d": 394.73649999999907,
      "v": 127
    },
    {
      "midi": 69,
      "hit": false,
      "t": 37894.70399999995,
      "d": 394.73649999999907,
      "v": 127
    },
    {
      "midi": 45,
      "hit": false,
      "t": 37894.70399999997,
      "d": 394.73649999999907,
      "v": 127
    },
    {
      "midi": 64,
      "hit": false,
      "t": 38289.440499999946,
      "d": 789.4729999999981,
      "v": 127
    },
    {
      "midi": 67,
      "hit": false,
      "t": 38289.440499999946,
      "d": 789.4729999999981,
      "v": 127
    },
    {
      "midi": 49,
      "hit": false,
      "t": 38289.44049999997,
      "d": 394.73649999999907,
      "v": 127
    },
    {
      "midi": 52,
      "hit": false,
      "t": 38289.44049999997,
      "d": 394.73649999999907,
      "v": 127
    },
    {
      "midi": 57,
      "hit": false,
      "t": 38289.44049999997,
      "d": 394.73649999999907,
      "v": 127
    },
    {
      "midi": 45,
      "hit": false,
      "t": 38684.17699999997,
      "d": 394.73649999999907,
      "v": 127
    },
    {
      "midi": 64,
      "hit": false,
      "t": 39078.913499999944,
      "d": 394.73649999999907,
      "v": 127
    },
    {
      "midi": 67,
      "hit": false,
      "t": 39078.913499999944,
      "d": 394.73649999999907,
      "v": 127
    },
    {
      "midi": 49,
      "hit": false,
      "t": 39078.913499999966,
      "d": 394.73649999999907,
      "v": 127
    },
    {
      "midi": 52,
      "hit": false,
      "t": 39078.913499999966,
      "d": 394.73649999999907,
      "v": 127
    },
    {
      "midi": 57,
      "hit": false,
      "t": 39078.913499999966,
      "d": 394.73649999999907,
      "v": 127
    },
    {
      "midi": 45,
      "hit": false,
      "t": 39473.649999999965,
      "d": 394.73649999999907,
      "v": 127
    },
    {
      "midi": 66,
      "hit": false,
      "t": 39671.01824999994,
      "d": 197.36824999999953,
      "v": 127
    },
    {
      "midi": 69,
      "hit": false,
      "t": 39671.01824999994,
      "d": 197.36824999999953,
      "v": 127
    },
    {
      "midi": 64,
      "hit": false,
      "t": 39868.38649999994,
      "d": 197.36824999999953,
      "v": 127
    },
    {
      "midi": 67,
      "hit": false,
      "t": 39868.38649999994,
      "d": 197.36824999999953,
      "v": 127
    },
    {
      "midi": 49,
      "hit": false,
      "t": 39868.386499999964,
      "d": 394.73649999999907,
      "v": 127
    },
    {
      "midi": 52,
      "hit": false,
      "t": 39868.386499999964,
      "d": 394.73649999999907,
      "v": 127
    },
    {
      "midi": 57,
      "hit": false,
      "t": 39868.386499999964,
      "d": 394.73649999999907,
      "v": 127
    },
    {
      "midi": 66,
      "hit": false,
      "t": 40065.75474999994,
      "d": 197.36824999999953,
      "v": 127
    },
    {
      "midi": 69,
      "hit": false,
      "t": 40065.75474999994,
      "d": 197.36824999999953,
      "v": 127
    },
    {
      "midi": 67,
      "hit": false,
      "t": 40263.12299999994,
      "d": 197.36824999999953,
      "v": 127
    },
    {
      "midi": 71,
      "hit": false,
      "t": 40263.12299999994,
      "d": 197.36824999999953,
      "v": 127
    },
    {
      "midi": 45,
      "hit": false,
      "t": 40263.12299999996,
      "d": 394.73649999999907,
      "v": 127
    },
    {
      "midi": 66,
      "hit": false,
      "t": 40460.49124999994,
      "d": 197.36824999999953,
      "v": 127
    },
    {
      "midi": 69,
      "hit": false,
      "t": 40460.49124999994,
      "d": 197.36824999999953,
      "v": 127
    },
    {
      "midi": 64,
      "hit": false,
      "t": 40657.85949999994,
      "d": 394.73649999999907,
      "v": 127
    },
    {
      "midi": 67,
      "hit": false,
      "t": 40657.85949999994,
      "d": 394.73649999999907,
      "v": 127
    },
    {
      "midi": 49,
      "hit": false,
      "t": 40657.85949999996,
      "d": 394.73649999999907,
      "v": 127
    },
    {
      "midi": 52,
      "hit": false,
      "t": 40657.85949999996,
      "d": 394.73649999999907,
      "v": 127
    },
    {
      "midi": 57,
      "hit": false,
      "t": 40657.85949999996,
      "d": 394.73649999999907,
      "v": 127
    },
    {
      "midi": 64,
      "hit": false,
      "t": 41052.59599999994,
      "d": 394.73649999999907,
      "v": 127
    },
    {
      "midi": 67,
      "hit": false,
      "t": 41052.59599999994,
      "d": 394.73649999999907,
      "v": 127
    },
    {
      "midi": 76,
      "hit": false,
      "t": 41052.59599999994,
      "d": 394.73649999999907,
      "v": 127
    },
    {
      "midi": 45,
      "hit": false,
      "t": 41052.59599999996,
      "d": 394.73649999999907,
      "v": 127
    },
    {
      "midi": 64,
      "hit": false,
      "t": 41447.33249999994,
      "d": 789.4729999999981,
      "v": 127
    },
    {
      "midi": 67,
      "hit": false,
      "t": 41447.33249999994,
      "d": 789.4729999999981,
      "v": 127
    },
    {
      "midi": 49,
      "hit": false,
      "t": 41447.33249999996,
      "d": 394.73649999999907,
      "v": 127
    },
    {
      "midi": 52,
      "hit": false,
      "t": 41447.33249999996,
      "d": 394.73649999999907,
      "v": 127
    },
    {
      "midi": 57,
      "hit": false,
      "t": 41447.33249999996,
      "d": 394.73649999999907,
      "v": 127
    },
    {
      "midi": 45,
      "hit": false,
      "t": 41842.06899999996,
      "d": 394.73649999999907,
      "v": 127
    },
    {
      "midi": 64,
      "hit": false,
      "t": 42236.80549999994,
      "d": 394.73649999999907,
      "v": 127
    },
    {
      "midi": 67,
      "hit": false,
      "t": 42236.80549999994,
      "d": 394.73649999999907,
      "v": 127
    },
    {
      "midi": 49,
      "hit": false,
      "t": 42236.80549999996,
      "d": 394.73649999999907,
      "v": 127
    },
    {
      "midi": 52,
      "hit": false,
      "t": 42236.80549999996,
      "d": 394.73649999999907,
      "v": 127
    },
    {
      "midi": 57,
      "hit": false,
      "t": 42236.80549999996,
      "d": 394.73649999999907,
      "v": 127
    },
    {
      "midi": 45,
      "hit": false,
      "t": 42631.54199999996,
      "d": 394.73649999999907,
      "v": 127
    },
    {
      "midi": 69,
      "hit": false,
      "t": 43026.278499999935,
      "d": 197.36824999999953,
      "v": 127
    },
    {
      "midi": 49,
      "hit": false,
      "t": 43026.27849999996,
      "d": 394.73649999999907,
      "v": 127
    },
    {
      "midi": 52,
      "hit": false,
      "t": 43026.27849999996,
      "d": 394.73649999999907,
      "v": 127
    },
    {
      "midi": 57,
      "hit": false,
      "t": 43026.27849999996,
      "d": 394.73649999999907,
      "v": 127
    },
    {
      "midi": 67,
      "hit": false,
      "t": 43223.646749999934,
      "d": 197.36824999999953,
      "v": 127
    },
    {
      "midi": 76,
      "hit": false,
      "t": 43421.014999999934,
      "d": 394.73649999999907,
      "v": 127
    },
    {
      "midi": 45,
      "hit": false,
      "t": 43421.014999999956,
      "d": 394.73649999999907,
      "v": 127
    },
    {
      "midi": 64,
      "hit": false,
      "t": 43815.75149999993,
      "d": 394.73649999999907,
      "v": 127
    },
    {
      "midi": 67,
      "hit": false,
      "t": 43815.75149999993,
      "d": 394.73649999999907,
      "v": 127
    },
    {
      "midi": 49,
      "hit": false,
      "t": 43815.751499999955,
      "d": 394.73649999999907,
      "v": 127
    },
    {
      "midi": 52,
      "hit": false,
      "t": 43815.751499999955,
      "d": 394.73649999999907,
      "v": 127
    },
    {
      "midi": 57,
      "hit": false,
      "t": 43815.751499999955,
      "d": 394.73649999999907,
      "v": 127
    },
    {
      "midi": 62,
      "hit": false,
      "t": 44210.48799999993,
      "d": 394.73649999999907,
      "v": 127
    },
    {
      "midi": 66,
      "hit": false,
      "t": 44210.48799999993,
      "d": 394.73649999999907,
      "v": 127
    },
    {
      "midi": 47,
      "hit": false,
      "t": 44210.487999999954,
      "d": 394.73649999999907,
      "v": 127
    },
    {
      "midi": 62,
      "hit": false,
      "t": 44605.22449999993,
      "d": 789.4729999999981,
      "v": 127
    },
    {
      "midi": 66,
      "hit": false,
      "t": 44605.22449999993,
      "d": 789.4729999999981,
      "v": 127
    },
    {
      "midi": 50,
      "hit": false,
      "t": 44605.22449999995,
      "d": 394.73649999999907,
      "v": 127
    },
    {
      "midi": 54,
      "hit": false,
      "t": 44605.22449999995,
      "d": 394.73649999999907,
      "v": 127
    },
    {
      "midi": 59,
      "hit": false,
      "t": 44605.22449999995,
      "d": 394.73649999999907,
      "v": 127
    },
    {
      "midi": 47,
      "hit": false,
      "t": 44999.96099999995,
      "d": 394.73649999999907,
      "v": 127
    },
    {
      "midi": 62,
      "hit": false,
      "t": 45394.69749999993,
      "d": 394.73649999999907,
      "v": 127
    },
    {
      "midi": 66,
      "hit": false,
      "t": 45394.69749999993,
      "d": 394.73649999999907,
      "v": 127
    },
    {
      "midi": 50,
      "hit": false,
      "t": 45394.69749999995,
      "d": 394.73649999999907,
      "v": 127
    },
    {
      "midi": 54,
      "hit": false,
      "t": 45394.69749999995,
      "d": 394.73649999999907,
      "v": 127
    },
    {
      "midi": 59,
      "hit": false,
      "t": 45394.69749999995,
      "d": 394.73649999999907,
      "v": 127
    },
    {
      "midi": 47,
      "hit": false,
      "t": 45789.43399999995,
      "d": 394.73649999999907,
      "v": 127
    },
    {
      "midi": 64,
      "hit": false,
      "t": 45986.80224999993,
      "d": 197.36824999999953,
      "v": 127
    },
    {
      "midi": 67,
      "hit": false,
      "t": 45986.80224999993,
      "d": 197.36824999999953,
      "v": 127
    },
    {
      "midi": 62,
      "hit": false,
      "t": 46184.17049999993,
      "d": 197.36824999999953,
      "v": 127
    },
    {
      "midi": 66,
      "hit": false,
      "t": 46184.17049999993,
      "d": 197.36824999999953,
      "v": 127
    },
    {
      "midi": 50,
      "hit": false,
      "t": 46184.17049999995,
      "d": 394.73649999999907,
      "v": 127
    },
    {
      "midi": 54,
      "hit": false,
      "t": 46184.17049999995,
      "d": 394.73649999999907,
      "v": 127
    },
    {
      "midi": 59,
      "hit": false,
      "t": 46184.17049999995,
      "d": 394.73649999999907,
      "v": 127
    },
    {
      "midi": 64,
      "hit": false,
      "t": 46381.53874999993,
      "d": 197.36824999999953,
      "v": 127
    },
    {
      "midi": 67,
      "hit": false,
      "t": 46381.53874999993,
      "d": 197.36824999999953,
      "v": 127
    },
    {
      "midi": 66,
      "hit": false,
      "t": 46578.90699999993,
      "d": 197.36824999999953,
      "v": 127
    },
    {
      "midi": 69,
      "hit": false,
      "t": 46578.90699999993,
      "d": 197.36824999999953,
      "v": 127
    },
    {
      "midi": 47,
      "hit": false,
      "t": 46578.90699999995,
      "d": 394.73649999999907,
      "v": 127
    },
    {
      "midi": 64,
      "hit": false,
      "t": 46776.275249999926,
      "d": 197.36824999999953,
      "v": 127
    },
    {
      "midi": 67,
      "hit": false,
      "t": 46776.275249999926,
      "d": 197.36824999999953,
      "v": 127
    },
    {
      "midi": 62,
      "hit": false,
      "t": 46973.643499999926,
      "d": 394.73649999999907,
      "v": 127
    },
    {
      "midi": 66,
      "hit": false,
      "t": 46973.643499999926,
      "d": 394.73649999999907,
      "v": 127
    },
    {
      "midi": 50,
      "hit": false,
      "t": 46973.64349999995,
      "d": 394.73649999999907,
      "v": 127
    },
    {
      "midi": 54,
      "hit": false,
      "t": 46973.64349999995,
      "d": 394.73649999999907,
      "v": 127
    },
    {
      "midi": 59,
      "hit": false,
      "t": 46973.64349999995,
      "d": 394.73649999999907,
      "v": 127
    },
    {
      "midi": 62,
      "hit": false,
      "t": 47368.379999999925,
      "d": 394.73649999999907,
      "v": 127
    },
    {
      "midi": 66,
      "hit": false,
      "t": 47368.379999999925,
      "d": 394.73649999999907,
      "v": 127
    },
    {
      "midi": 74,
      "hit": false,
      "t": 47368.379999999925,
      "d": 394.73649999999907,
      "v": 127
    },
    {
      "midi": 47,
      "hit": false,
      "t": 47368.37999999995,
      "d": 394.73649999999907,
      "v": 127
    },
    {
      "midi": 62,
      "hit": false,
      "t": 47763.116499999924,
      "d": 789.4729999999981,
      "v": 127
    },
    {
      "midi": 66,
      "hit": false,
      "t": 47763.116499999924,
      "d": 789.4729999999981,
      "v": 127
    },
    {
      "midi": 50,
      "hit": false,
      "t": 47763.116499999946,
      "d": 394.73649999999907,
      "v": 127
    },
    {
      "midi": 54,
      "hit": false,
      "t": 47763.116499999946,
      "d": 394.73649999999907,
      "v": 127
    },
    {
      "midi": 59,
      "hit": false,
      "t": 47763.116499999946,
      "d": 394.73649999999907,
      "v": 127
    },
    {
      "midi": 47,
      "hit": false,
      "t": 48157.852999999945,
      "d": 394.73649999999907,
      "v": 127
    },
    {
      "midi": 66,
      "hit": false,
      "t": 48552.58949999992,
      "d": 394.73649999999907,
      "v": 127
    },
    {
      "midi": 50,
      "hit": false,
      "t": 48552.589499999944,
      "d": 394.73649999999907,
      "v": 127
    },
    {
      "midi": 54,
      "hit": false,
      "t": 48552.589499999944,
      "d": 394.73649999999907,
      "v": 127
    },
    {
      "midi": 59,
      "hit": false,
      "t": 48552.589499999944,
      "d": 394.73649999999907,
      "v": 127
    },
    {
      "midi": 47,
      "hit": false,
      "t": 48947.32599999994,
      "d": 394.73649999999907,
      "v": 127
    },
    {
      "midi": 67,
      "hit": false,
      "t": 49342.06249999992,
      "d": 197.36824999999953,
      "v": 127
    },
    {
      "midi": 50,
      "hit": false,
      "t": 49342.06249999994,
      "d": 394.73649999999907,
      "v": 127
    },
    {
      "midi": 54,
      "hit": false,
      "t": 49342.06249999994,
      "d": 394.73649999999907,
      "v": 127
    },
    {
      "midi": 59,
      "hit": false,
      "t": 49342.06249999994,
      "d": 394.73649999999907,
      "v": 127
    },
    {
      "midi": 66,
      "hit": false,
      "t": 49539.43074999992,
      "d": 197.36824999999953,
      "v": 127
    },
    {
      "midi": 74,
      "hit": false,
      "t": 49736.79899999992,
      "d": 394.73649999999907,
      "v": 127
    },
    {
      "midi": 47,
      "hit": false,
      "t": 49736.79899999994,
      "d": 394.73649999999907,
      "v": 127
    },
    {
      "midi": 62,
      "hit": false,
      "t": 50131.53549999992,
      "d": 394.73649999999907,
      "v": 127
    },
    {
      "midi": 66,
      "hit": false,
      "t": 50131.53549999992,
      "d": 394.73649999999907,
      "v": 127
    },
    {
      "midi": 50,
      "hit": false,
      "t": 50131.53549999994,
      "d": 394.73649999999907,
      "v": 127
    },
    {
      "midi": 54,
      "hit": false,
      "t": 50131.53549999994,
      "d": 394.73649999999907,
      "v": 127
    },
    {
      "midi": 59,
      "hit": false,
      "t": 50131.53549999994,
      "d": 394.73649999999907,
      "v": 127
    },
    {
      "midi": 60,
      "hit": false,
      "t": 50526.27199999992,
      "d": 394.73649999999907,
      "v": 127
    },
    {
      "midi": 64,
      "hit": false,
      "t": 50526.27199999992,
      "d": 394.73649999999907,
      "v": 127
    },
    {
      "midi": 36,
      "hit": false,
      "t": 50526.27199999994,
      "d": 394.73649999999907,
      "v": 127
    },
    {
      "midi": 60,
      "hit": false,
      "t": 50921.008499999916,
      "d": 789.4729999999981,
      "v": 127
    },
    {
      "midi": 64,
      "hit": false,
      "t": 50921.008499999916,
      "d": 789.4729999999981,
      "v": 127
    },
    {
      "midi": 48,
      "hit": false,
      "t": 50921.00849999994,
      "d": 394.73649999999907,
      "v": 127
    },
    {
      "midi": 52,
      "hit": false,
      "t": 50921.00849999994,
      "d": 394.73649999999907,
      "v": 127
    },
    {
      "midi": 57,
      "hit": false,
      "t": 50921.00849999994,
      "d": 394.73649999999907,
      "v": 127
    },
    {
      "midi": 36,
      "hit": false,
      "t": 51315.74499999994,
      "d": 394.73649999999907,
      "v": 127
    },
    {
      "midi": 60,
      "hit": false,
      "t": 51710.481499999914,
      "d": 394.73649999999907,
      "v": 127
    },
    {
      "midi": 64,
      "hit": false,
      "t": 51710.481499999914,
      "d": 394.73649999999907,
      "v": 127
    },
    {
      "midi": 48,
      "hit": false,
      "t": 51710.481499999936,
      "d": 394.73649999999907,
      "v": 127
    },
    {
      "midi": 52,
      "hit": false,
      "t": 51710.481499999936,
      "d": 394.73649999999907,
      "v": 127
    },
    {
      "midi": 57,
      "hit": false,
      "t": 51710.481499999936,
      "d": 394.73649999999907,
      "v": 127
    },
    {
      "midi": 36,
      "hit": false,
      "t": 52105.217999999935,
      "d": 394.73649999999907,
      "v": 127
    },
    {
      "midi": 66,
      "hit": false,
      "t": 52302.58624999991,
      "d": 197.36824999999953,
      "v": 127
    },
    {
      "midi": 64,
      "hit": false,
      "t": 52499.95449999991,
      "d": 197.36824999999953,
      "v": 127
    },
    {
      "midi": 48,
      "hit": false,
      "t": 52499.954499999934,
      "d": 394.73649999999907,
      "v": 127
    },
    {
      "midi": 52,
      "hit": false,
      "t": 52499.954499999934,
      "d": 394.73649999999907,
      "v": 127
    },
    {
      "midi": 57,
      "hit": false,
      "t": 52499.954499999934,
      "d": 394.73649999999907,
      "v": 127
    },
    {
      "midi": 69,
      "hit": false,
      "t": 52697.32274999991,
      "d": 197.36824999999953,
      "v": 127
    },
    {
      "midi": 72,
      "hit": false,
      "t": 52894.69099999991,
      "d": 197.36824999999953,
      "v": 127
    },
    {
      "midi": 36,
      "hit": false,
      "t": 52894.69099999993,
      "d": 394.73649999999907,
      "v": 127
    },
    {
      "midi": 71,
      "hit": false,
      "t": 53092.05924999991,
      "d": 197.36824999999953,
      "v": 127
    },
    {
      "midi": 69,
      "hit": false,
      "t": 53289.42749999991,
      "d": 394.73649999999907,
      "v": 127
    },
    {
      "midi": 48,
      "hit": false,
      "t": 53289.42749999993,
      "d": 394.73649999999907,
      "v": 127
    },
    {
      "midi": 52,
      "hit": false,
      "t": 53289.42749999993,
      "d": 394.73649999999907,
      "v": 127
    },
    {
      "midi": 57,
      "hit": false,
      "t": 53289.42749999993,
      "d": 394.73649999999907,
      "v": 127
    },
    {
      "midi": 60,
      "hit": false,
      "t": 53684.16399999991,
      "d": 394.73649999999907,
      "v": 127
    },
    {
      "midi": 62,
      "hit": false,
      "t": 53684.16399999991,
      "d": 394.73649999999907,
      "v": 127
    },
    {
      "midi": 64,
      "hit": false,
      "t": 53684.16399999991,
      "d": 394.73649999999907,
      "v": 127
    },
    {
      "midi": 66,
      "hit": false,
      "t": 53684.16399999991,
      "d": 394.73649999999907,
      "v": 127
    },
    {
      "midi": 36,
      "hit": false,
      "t": 53684.16399999993,
      "d": 394.73649999999907,
      "v": 127
    },
    {
      "midi": 60,
      "hit": false,
      "t": 54078.90049999991,
      "d": 789.4729999999981,
      "v": 127
    },
    {
      "midi": 64,
      "hit": false,
      "t": 54078.90049999991,
      "d": 789.4729999999981,
      "v": 127
    },
    {
      "midi": 48,
      "hit": false,
      "t": 54078.90049999993,
      "d": 394.73649999999907,
      "v": 127
    },
    {
      "midi": 52,
      "hit": false,
      "t": 54078.90049999993,
      "d": 394.73649999999907,
      "v": 127
    },
    {
      "midi": 57,
      "hit": false,
      "t": 54078.90049999993,
      "d": 394.73649999999907,
      "v": 127
    },
    {
      "midi": 36,
      "hit": false,
      "t": 54473.63699999993,
      "d": 394.73649999999907,
      "v": 127
    },
    {
      "midi": 64,
      "hit": false,
      "t": 54868.37349999991,
      "d": 394.73649999999907,
      "v": 127
    },
    {
      "midi": 48,
      "hit": false,
      "t": 54868.37349999993,
      "d": 394.73649999999907,
      "v": 127
    },
    {
      "midi": 52,
      "hit": false,
      "t": 54868.37349999993,
      "d": 394.73649999999907,
      "v": 127
    },
    {
      "midi": 57,
      "hit": false,
      "t": 54868.37349999993,
      "d": 394.73649999999907,
      "v": 127
    },
    {
      "midi": 36,
      "hit": false,
      "t": 55263.10999999993,
      "d": 394.73649999999907,
      "v": 127
    },
    {
      "midi": 66,
      "hit": false,
      "t": 55657.846499999905,
      "d": 197.36824999999953,
      "v": 127
    },
    {
      "midi": 48,
      "hit": false,
      "t": 55657.84649999993,
      "d": 394.73649999999907,
      "v": 127
    },
    {
      "midi": 52,
      "hit": false,
      "t": 55657.84649999993,
      "d": 394.73649999999907,
      "v": 127
    },
    {
      "midi": 57,
      "hit": false,
      "t": 55657.84649999993,
      "d": 394.73649999999907,
      "v": 127
    },
    {
      "midi": 64,
      "hit": false,
      "t": 55855.214749999905,
      "d": 197.36824999999953,
      "v": 127
    },
    {
      "midi": 69,
      "hit": false,
      "t": 56052.582999999904,
      "d": 197.36824999999953,
      "v": 127
    },
    {
      "midi": 38,
      "hit": false,
      "t": 56052.582999999926,
      "d": 394.73649999999907,
      "v": 127
    },
    {
      "midi": 67,
      "hit": false,
      "t": 56249.951249999904,
      "d": 197.36824999999953,
      "v": 127
    },
    {
      "midi": 67,
      "hit": false,
      "t": 56447.3194999999,
      "d": 197.36824999999953,
      "v": 127
    },
    {
      "midi": 50,
      "hit": false,
      "t": 56447.319499999925,
      "d": 394.73649999999907,
      "v": 127
    },
    {
      "midi": 57,
      "hit": false,
      "t": 56447.319499999925,
      "d": 394.73649999999907,
      "v": 127
    },
    {
      "midi": 66,
      "hit": false,
      "t": 56644.6877499999,
      "d": 197.36824999999953,
      "v": 127
    },
    {
      "midi": 59,
      "hit": false,
      "t": 56842.0559999999,
      "d": 394.73649999999907,
      "v": 127
    },
    {
      "midi": 62,
      "hit": false,
      "t": 56842.0559999999,
      "d": 394.73649999999907,
      "v": 127
    },
    {
      "midi": 67,
      "hit": false,
      "t": 56842.0559999999,
      "d": 394.73649999999907,
      "v": 127
    },
    {
      "midi": 43,
      "hit": false,
      "t": 56842.055999999924,
      "d": 394.73649999999907,
      "v": 127
    },
    {
      "midi": 71,
      "hit": false,
      "t": 57236.7924999999,
      "d": 789.4729999999981,
      "v": 127
    },
    {
      "midi": 74,
      "hit": false,
      "t": 57236.7924999999,
      "d": 789.4729999999981,
      "v": 127
    },
    {
      "midi": 59,
      "hit": false,
      "t": 57236.79249999992,
      "d": 394.73649999999907,
      "v": 127
    },
    {
      "midi": 62,
      "hit": false,
      "t": 57236.79249999992,
      "d": 394.73649999999907,
      "v": 127
    },
    {
      "midi": 67,
      "hit": false,
      "t": 57236.79249999992,
      "d": 394.73649999999907,
      "v": 127
    },
    {
      "midi": 55,
      "hit": false,
      "t": 57631.52899999992,
      "d": 394.73649999999907,
      "v": 127
    },
    {
      "midi": 71,
      "hit": false,
      "t": 58026.2654999999,
      "d": 394.73649999999907,
      "v": 127
    },
    {
      "midi": 74,
      "hit": false,
      "t": 58026.2654999999,
      "d": 394.73649999999907,
      "v": 127
    },
    {
      "midi": 59,
      "hit": false,
      "t": 58026.26549999992,
      "d": 394.73649999999907,
      "v": 127
    },
    {
      "midi": 62,
      "hit": false,
      "t": 58026.26549999992,
      "d": 394.73649999999907,
      "v": 127
    },
    {
      "midi": 67,
      "hit": false,
      "t": 58026.26549999992,
      "d": 394.73649999999907,
      "v": 127
    },
    {
      "midi": 55,
      "hit": false,
      "t": 58421.00199999992,
      "d": 394.73649999999907,
      "v": 127
    },
    {
      "midi": 71,
      "hit": false,
      "t": 58815.7384999999,
      "d": 394.73649999999907,
      "v": 127
    },
    {
      "midi": 74,
      "hit": false,
      "t": 58815.7384999999,
      "d": 394.73649999999907,
      "v": 127
    },
    {
      "midi": 59,
      "hit": false,
      "t": 58815.73849999992,
      "d": 394.73649999999907,
      "v": 127
    },
    {
      "midi": 62,
      "hit": false,
      "t": 58815.73849999992,
      "d": 394.73649999999907,
      "v": 127
    },
    {
      "midi": 67,
      "hit": false,
      "t": 58815.73849999992,
      "d": 394.73649999999907,
      "v": 127
    },
    {
      "midi": 71,
      "hit": false,
      "t": 59210.4749999999,
      "d": 197.36824999999953,
      "v": 127
    },
    {
      "midi": 74,
      "hit": false,
      "t": 59210.4749999999,
      "d": 197.36824999999953,
      "v": 127
    },
    {
      "midi": 55,
      "hit": false,
      "t": 59210.47499999992,
      "d": 394.73649999999907,
      "v": 127
    },
    {
      "midi": 72,
      "hit": false,
      "t": 59407.843249999896,
      "d": 197.36824999999953,
      "v": 127
    },
    {
      "midi": 76,
      "hit": false,
      "t": 59407.843249999896,
      "d": 197.36824999999953,
      "v": 127
    },
    {
      "midi": 74,
      "hit": false,
      "t": 59605.211499999896,
      "d": 197.36824999999953,
      "v": 127
    },
    {
      "midi": 78,
      "hit": false,
      "t": 59605.211499999896,
      "d": 197.36824999999953,
      "v": 127
    },
    {
      "midi": 60,
      "hit": false,
      "t": 59605.21149999992,
      "d": 394.73649999999907,
      "v": 127
    },
    {
      "midi": 64,
      "hit": false,
      "t": 59605.21149999992,
      "d": 394.73649999999907,
      "v": 127
    },
    {
      "midi": 67,
      "hit": false,
      "t": 59605.21149999992,
      "d": 394.73649999999907,
      "v": 127
    },
    {
      "midi": 72,
      "hit": false,
      "t": 59802.579749999895,
      "d": 197.36824999999953,
      "v": 127
    },
    {
      "midi": 76,
      "hit": false,
      "t": 59802.579749999895,
      "d": 197.36824999999953,
      "v": 127
    },
    {
      "midi": 71,
      "hit": false,
      "t": 59999.947999999895,
      "d": 394.73649999999907,
      "v": 127
    },
    {
      "midi": 74,
      "hit": false,
      "t": 59999.947999999895,
      "d": 394.73649999999907,
      "v": 127
    },
    {
      "midi": 55,
      "hit": false,
      "t": 59999.94799999992,
      "d": 394.73649999999907,
      "v": 127
    },
    {
      "midi": 71,
      "hit": false,
      "t": 60394.684499999894,
      "d": 789.4729999999981,
      "v": 127
    },
    {
      "midi": 74,
      "hit": false,
      "t": 60394.684499999894,
      "d": 789.4729999999981,
      "v": 127
    },
    {
      "midi": 83,
      "hit": false,
      "t": 60394.684499999894,
      "d": 789.4729999999981,
      "v": 127
    },
    {
      "midi": 59,
      "hit": false,
      "t": 60394.684499999916,
      "d": 394.73649999999907,
      "v": 127
    },
    {
      "midi": 62,
      "hit": false,
      "t": 60394.684499999916,
      "d": 394.73649999999907,
      "v": 127
    },
    {
      "midi": 67,
      "hit": false,
      "t": 60394.684499999916,
      "d": 394.73649999999907,
      "v": 127
    },
    {
      "midi": 55,
      "hit": false,
      "t": 60789.420999999915,
      "d": 394.73649999999907,
      "v": 127
    },
    {
      "midi": 71,
      "hit": false,
      "t": 61184.15749999989,
      "d": 394.73649999999907,
      "v": 127
    },
    {
      "midi": 74,
      "hit": false,
      "t": 61184.15749999989,
      "d": 394.73649999999907,
      "v": 127
    },
    {
      "midi": 59,
      "hit": false,
      "t": 61184.157499999914,
      "d": 394.73649999999907,
      "v": 127
    },
    {
      "midi": 62,
      "hit": false,
      "t": 61184.157499999914,
      "d": 394.73649999999907,
      "v": 127
    },
    {
      "midi": 67,
      "hit": false,
      "t": 61184.157499999914,
      "d": 394.73649999999907,
      "v": 127
    },
    {
      "midi": 55,
      "hit": false,
      "t": 61578.89399999991,
      "d": 394.73649999999907,
      "v": 127
    },
    {
      "midi": 71,
      "hit": false,
      "t": 61973.63049999989,
      "d": 394.73649999999907,
      "v": 127
    },
    {
      "midi": 74,
      "hit": false,
      "t": 61973.63049999989,
      "d": 394.73649999999907,
      "v": 127
    },
    {
      "midi": 59,
      "hit": false,
      "t": 61973.63049999991,
      "d": 394.73649999999907,
      "v": 127
    },
    {
      "midi": 62,
      "hit": false,
      "t": 61973.63049999991,
      "d": 394.73649999999907,
      "v": 127
    },
    {
      "midi": 67,
      "hit": false,
      "t": 61973.63049999991,
      "d": 394.73649999999907,
      "v": 127
    },
    {
      "midi": 76,
      "hit": false,
      "t": 62368.36699999989,
      "d": 197.36824999999953,
      "v": 127
    },
    {
      "midi": 79,
      "hit": false,
      "t": 62368.36699999989,
      "d": 197.36824999999953,
      "v": 127
    },
    {
      "midi": 55,
      "hit": false,
      "t": 62368.36699999991,
      "d": 394.73649999999907,
      "v": 127
    },
    {
      "midi": 75,
      "hit": false,
      "t": 62565.73524999989,
      "d": 197.36824999999953,
      "v": 127
    },
    {
      "midi": 78,
      "hit": false,
      "t": 62565.73524999989,
      "d": 197.36824999999953,
      "v": 127
    },
    {
      "midi": 76,
      "hit": false,
      "t": 62763.10349999989,
      "d": 197.36824999999953,
      "v": 127
    },
    {
      "midi": 79,
      "hit": false,
      "t": 62763.10349999989,
      "d": 197.36824999999953,
      "v": 127
    },
    {
      "midi": 60,
      "hit": false,
      "t": 62763.10349999991,
      "d": 394.73649999999907,
      "v": 127
    },
    {
      "midi": 64,
      "hit": false,
      "t": 62763.10349999991,
      "d": 394.73649999999907,
      "v": 127
    },
    {
      "midi": 67,
      "hit": false,
      "t": 62763.10349999991,
      "d": 394.73649999999907,
      "v": 127
    },
    {
      "midi": 72,
      "hit": false,
      "t": 62960.47174999989,
      "d": 197.36824999999953,
      "v": 127
    },
    {
      "midi": 76,
      "hit": false,
      "t": 62960.47174999989,
      "d": 197.36824999999953,
      "v": 127
    },
    {
      "midi": 71,
      "hit": false,
      "t": 63157.83999999989,
      "d": 394.73649999999907,
      "v": 127
    },
    {
      "midi": 74,
      "hit": false,
      "t": 63157.83999999989,
      "d": 394.73649999999907,
      "v": 127
    },
    {
      "midi": 55,
      "hit": false,
      "t": 63157.83999999991,
      "d": 394.73649999999907,
      "v": 127
    },
    {
      "midi": 74,
      "hit": false,
      "t": 63552.57649999989,
      "d": 394.73649999999907,
      "v": 127
    },
    {
      "midi": 79,
      "hit": false,
      "t": 63552.57649999989,
      "d": 394.73649999999907,
      "v": 127
    },
    {
      "midi": 59,
      "hit": false,
      "t": 63552.57649999991,
      "d": 394.73649999999907,
      "v": 127
    },
    {
      "midi": 62,
      "hit": false,
      "t": 63552.57649999991,
      "d": 394.73649999999907,
      "v": 127
    },
    {
      "midi": 67,
      "hit": false,
      "t": 63552.57649999991,
      "d": 394.73649999999907,
      "v": 127
    },
    {
      "midi": 79,
      "hit": false,
      "t": 63947.312999999886,
      "d": 394.73649999999907,
      "v": 127
    },
    {
      "midi": 83,
      "hit": false,
      "t": 63947.312999999886,
      "d": 394.73649999999907,
      "v": 127
    },
    {
      "midi": 55,
      "hit": false,
      "t": 63947.31299999991,
      "d": 394.73649999999907,
      "v": 127
    },
    {
      "midi": 83,
      "hit": false,
      "t": 64342.049499999885,
      "d": 394.73649999999907,
      "v": 127
    },
    {
      "midi": 86,
      "hit": false,
      "t": 64342.049499999885,
      "d": 394.73649999999907,
      "v": 127
    },
    {
      "midi": 59,
      "hit": false,
      "t": 64342.04949999991,
      "d": 394.73649999999907,
      "v": 127
    },
    {
      "midi": 62,
      "hit": false,
      "t": 64342.04949999991,
      "d": 394.73649999999907,
      "v": 127
    },
    {
      "midi": 67,
      "hit": false,
      "t": 64342.04949999991,
      "d": 394.73649999999907,
      "v": 127
    },
    {
      "midi": 88,
      "hit": false,
      "t": 64736.785999999884,
      "d": 197.36824999999953,
      "v": 127
    },
    {
      "midi": 57,
      "hit": false,
      "t": 64736.785999999905,
      "d": 394.73649999999907,
      "v": 127
    },
    {
      "midi": 84,
      "hit": false,
      "t": 64934.15424999988,
      "d": 197.36824999999953,
      "v": 127
    },
    {
      "midi": 86,
      "hit": false,
      "t": 65131.52249999988,
      "d": 197.36824999999953,
      "v": 127
    },
    {
      "midi": 60,
      "hit": false,
      "t": 65131.522499999905,
      "d": 394.73649999999907,
      "v": 127
    },
    {
      "midi": 64,
      "hit": false,
      "t": 65131.522499999905,
      "d": 394.73649999999907,
      "v": 127
    },
    {
      "midi": 67,
      "hit": false,
      "t": 65131.522499999905,
      "d": 394.73649999999907,
      "v": 127
    },
    {
      "midi": 83,
      "hit": false,
      "t": 65328.89074999988,
      "d": 197.36824999999953,
      "v": 127
    },
    {
      "midi": 84,
      "hit": false,
      "t": 65526.25899999988,
      "d": 197.3682500000068,
      "v": 127
    },
    {
      "midi": 57,
      "hit": false,
      "t": 65526.2589999999,
      "d": 394.73649999999907,
      "v": 127
    },
    {
      "midi": 81,
      "hit": false,
      "t": 65723.62724999989,
      "d": 197.36824999999953,
      "v": 127
    },
    {
      "midi": 83,
      "hit": false,
      "t": 65920.99549999989,
      "d": 197.36824999999953,
      "v": 127
    },
    {
      "midi": 60,
      "hit": false,
      "t": 65920.9954999999,
      "d": 394.73649999999907,
      "v": 127
    },
    {
      "midi": 64,
      "hit": false,
      "t": 65920.9954999999,
      "d": 394.73649999999907,
      "v": 127
    },
    {
      "midi": 67,
      "hit": false,
      "t": 65920.9954999999,
      "d": 394.73649999999907,
      "v": 127
    },
    {
      "midi": 79,
      "hit": false,
      "t": 66118.36374999989,
      "d": 197.36824999999953,
      "v": 127
    },
    {
      "midi": 79,
      "hit": false,
      "t": 66315.73199999989,
      "d": 394.73649999999907,
      "v": 127
    },
    {
      "midi": 59,
      "hit": false,
      "t": 66315.7319999999,
      "d": 394.73649999999907,
      "v": 127
    },
    {
      "midi": 76,
      "hit": false,
      "t": 66710.46849999989,
      "d": 789.4729999999981,
      "v": 127
    },
    {
      "midi": 79,
      "hit": false,
      "t": 66710.46849999989,
      "d": 789.4729999999981,
      "v": 127
    },
    {
      "midi": 64,
      "hit": false,
      "t": 66710.4684999999,
      "d": 394.73649999999907,
      "v": 127
    },
    {
      "midi": 67,
      "hit": false,
      "t": 66710.4684999999,
      "d": 394.73649999999907,
      "v": 127
    },
    {
      "midi": 59,
      "hit": false,
      "t": 67105.2049999999,
      "d": 394.73649999999907,
      "v": 127
    },
    {
      "midi": 76,
      "hit": false,
      "t": 67499.94149999988,
      "d": 394.73649999999907,
      "v": 127
    },
    {
      "midi": 79,
      "hit": false,
      "t": 67499.94149999988,
      "d": 394.73649999999907,
      "v": 127
    },
    {
      "midi": 64,
      "hit": false,
      "t": 67499.9414999999,
      "d": 394.73649999999907,
      "v": 127
    },
    {
      "midi": 67,
      "hit": false,
      "t": 67499.9414999999,
      "d": 394.73649999999907,
      "v": 127
    },
    {
      "midi": 78,
      "hit": false,
      "t": 67894.67799999988,
      "d": 197.36824999999953,
      "v": 127
    },
    {
      "midi": 59,
      "hit": false,
      "t": 67894.6779999999,
      "d": 394.73649999999907,
      "v": 127
    },
    {
      "midi": 75,
      "hit": false,
      "t": 68092.04624999988,
      "d": 197.36824999999953,
      "v": 127
    },
    {
      "midi": 78,
      "hit": false,
      "t": 68289.41449999988,
      "d": 197.36824999999953,
      "v": 127
    },
    {
      "midi": 66,
      "hit": false,
      "t": 68289.4144999999,
      "d": 394.73649999999907,
      "v": 127
    },
    {
      "midi": 69,
      "hit": false,
      "t": 68289.4144999999,
      "d": 394.73649999999907,
      "v": 127
    },
    {
      "midi": 72,
      "hit": false,
      "t": 68486.78274999988,
      "d": 197.36824999999953,
      "v": 127
    },
    {
      "midi": 75,
      "hit": false,
      "t": 68684.15099999988,
      "d": 394.73649999999907,
      "v": 127
    },
    {
      "midi": 59,
      "hit": false,
      "t": 68684.1509999999,
      "d": 394.73649999999907,
      "v": 127
    },
    {
      "midi": 75,
      "hit": false,
      "t": 69078.88749999988,
      "d": 394.73649999999907,
      "v": 127
    },
    {
      "midi": 78,
      "hit": false,
      "t": 69078.88749999988,
      "d": 394.73649999999907,
      "v": 127
    },
    {
      "midi": 66,
      "hit": false,
      "t": 69078.8874999999,
      "d": 394.73649999999907,
      "v": 127
    },
    {
      "midi": 69,
      "hit": false,
      "t": 69078.8874999999,
      "d": 394.73649999999907,
      "v": 127
    },
    {
      "midi": 76,
      "hit": false,
      "t": 69473.62399999988,
      "d": 394.73649999999907,
      "v": 127
    },
    {
      "midi": 43,
      "hit": false,
      "t": 69473.6239999999,
      "d": 394.73649999999907,
      "v": 127
    },
    {
      "midi": 64,
      "hit": false,
      "t": 69868.36049999988,
      "d": 394.73649999999907,
      "v": 127
    },
    {
      "midi": 67,
      "hit": false,
      "t": 69868.36049999988,
      "d": 394.73649999999907,
      "v": 127
    },
    {
      "midi": 47,
      "hit": false,
      "t": 69868.3604999999,
      "d": 394.73649999999907,
      "v": 127
    },
    {
      "midi": 52,
      "hit": false,
      "t": 69868.3604999999,
      "d": 394.73649999999907,
      "v": 127
    },
    {
      "midi": 55,
      "hit": false,
      "t": 69868.3604999999,
      "d": 394.73649999999907,
      "v": 127
    },
    {
      "midi": 67,
      "hit": false,
      "t": 70263.09699999988,
      "d": 394.73649999999907,
      "v": 127
    },
    {
      "midi": 71,
      "hit": false,
      "t": 70263.09699999988,
      "d": 394.73649999999907,
      "v": 127
    },
    {
      "midi": 43,
      "hit": false,
      "t": 70263.09699999989,
      "d": 394.73649999999907,
      "v": 127
    },
    {
      "midi": 71,
      "hit": false,
      "t": 70657.83349999988,
      "d": 394.73649999999907,
      "v": 127
    },
    {
      "midi": 76,
      "hit": false,
      "t": 70657.83349999988,
      "d": 394.73649999999907,
      "v": 127
    },
    {
      "midi": 47,
      "hit": false,
      "t": 70657.83349999989,
      "d": 394.73649999999907,
      "v": 127
    },
    {
      "midi": 52,
      "hit": false,
      "t": 70657.83349999989,
      "d": 394.73649999999907,
      "v": 127
    },
    {
      "midi": 55,
      "hit": false,
      "t": 70657.83349999989,
      "d": 394.73649999999907,
      "v": 127
    },
    {
      "midi": 74,
      "hit": false,
      "t": 71052.56999999988,
      "d": 197.36824999999953,
      "v": 127
    },
    {
      "midi": 45,
      "hit": false,
      "t": 71052.56999999989,
      "d": 394.73649999999907,
      "v": 127
    },
    {
      "midi": 72,
      "hit": false,
      "t": 71249.93824999988,
      "d": 197.36824999999953,
      "v": 127
    },
    {
      "midi": 74,
      "hit": false,
      "t": 71447.30649999988,
      "d": 197.36824999999953,
      "v": 127
    },
    {
      "midi": 48,
      "hit": false,
      "t": 71447.30649999989,
      "d": 394.73649999999907,
      "v": 127
    },
    {
      "midi": 52,
      "hit": false,
      "t": 71447.30649999989,
      "d": 394.73649999999907,
      "v": 127
    },
    {
      "midi": 55,
      "hit": false,
      "t": 71447.30649999989,
      "d": 394.73649999999907,
      "v": 127
    },
    {
      "midi": 71,
      "hit": false,
      "t": 71644.67474999987,
      "d": 197.36824999999953,
      "v": 127
    },
    {
      "midi": 72,
      "hit": false,
      "t": 71842.04299999987,
      "d": 197.36824999999953,
      "v": 127
    },
    {
      "midi": 45,
      "hit": false,
      "t": 71842.04299999989,
      "d": 394.73649999999907,
      "v": 127
    },
    {
      "midi": 69,
      "hit": false,
      "t": 72039.41124999987,
      "d": 197.36824999999953,
      "v": 127
    },
    {
      "midi": 71,
      "hit": false,
      "t": 72236.77949999987,
      "d": 197.36824999999953,
      "v": 127
    },
    {
      "midi": 48,
      "hit": false,
      "t": 72236.77949999989,
      "d": 394.73649999999907,
      "v": 127
    },
    {
      "midi": 52,
      "hit": false,
      "t": 72236.77949999989,
      "d": 394.73649999999907,
      "v": 127
    },
    {
      "midi": 55,
      "hit": false,
      "t": 72236.77949999989,
      "d": 394.73649999999907,
      "v": 127
    },
    {
      "midi": 67,
      "hit": false,
      "t": 72434.14774999987,
      "d": 197.36824999999953,
      "v": 127
    },
    {
      "midi": 67,
      "hit": false,
      "t": 72631.51599999987,
      "d": 394.73649999999907,
      "v": 127
    },
    {
      "midi": 47,
      "hit": false,
      "t": 72631.51599999989,
      "d": 394.73649999999907,
      "v": 127
    },
    {
      "midi": 64,
      "hit": false,
      "t": 73026.25249999987,
      "d": 789.4729999999981,
      "v": 127
    },
    {
      "midi": 67,
      "hit": false,
      "t": 73026.25249999987,
      "d": 789.4729999999981,
      "v": 127
    },
    {
      "midi": 52,
      "hit": false,
      "t": 73026.25249999989,
      "d": 394.73649999999907,
      "v": 127
    },
    {
      "midi": 55,
      "hit": false,
      "t": 73026.25249999989,
      "d": 394.73649999999907,
      "v": 127
    },
    {
      "midi": 47,
      "hit": false,
      "t": 73420.98899999988,
      "d": 394.73649999999907,
      "v": 127
    },
    {
      "midi": 64,
      "hit": false,
      "t": 73815.72549999987,
      "d": 394.73649999999907,
      "v": 127
    },
    {
      "midi": 67,
      "hit": false,
      "t": 73815.72549999987,
      "d": 394.73649999999907,
      "v": 127
    },
    {
      "midi": 52,
      "hit": false,
      "t": 73815.72549999988,
      "d": 394.73649999999907,
      "v": 127
    },
    {
      "midi": 55,
      "hit": false,
      "t": 73815.72549999988,
      "d": 394.73649999999907,
      "v": 127
    },
    {
      "midi": 66,
      "hit": false,
      "t": 74210.46199999987,
      "d": 197.36824999999953,
      "v": 127
    },
    {
      "midi": 47,
      "hit": false,
      "t": 74210.46199999988,
      "d": 394.73649999999907,
      "v": 127
    },
    {
      "midi": 63,
      "hit": false,
      "t": 74407.83024999987,
      "d": 197.36824999999953,
      "v": 127
    },
    {
      "midi": 66,
      "hit": false,
      "t": 74605.19849999987,
      "d": 197.36824999999953,
      "v": 127
    },
    {
      "midi": 54,
      "hit": false,
      "t": 74605.19849999988,
      "d": 394.73649999999907,
      "v": 127
    },
    {
      "midi": 57,
      "hit": false,
      "t": 74605.19849999988,
      "d": 394.73649999999907,
      "v": 127
    },
    {
      "midi": 60,
      "hit": false,
      "t": 74802.56674999987,
      "d": 197.36824999999953,
      "v": 127
    },
    {
      "midi": 63,
      "hit": false,
      "t": 74999.93499999987,
      "d": 394.73649999999907,
      "v": 127
    },
    {
      "midi": 47,
      "hit": false,
      "t": 74999.93499999988,
      "d": 394.73649999999907,
      "v": 127
    },
    {
      "midi": 63,
      "hit": false,
      "t": 75394.67149999987,
      "d": 394.73649999999907,
      "v": 127
    },
    {
      "midi": 66,
      "hit": false,
      "t": 75394.67149999987,
      "d": 394.73649999999907,
      "v": 127
    },
    {
      "midi": 54,
      "hit": false,
      "t": 75394.67149999988,
      "d": 394.73649999999907,
      "v": 127
    },
    {
      "midi": 57,
      "hit": false,
      "t": 75394.67149999988,
      "d": 394.73649999999907,
      "v": 127
    },
    {
      "midi": 64,
      "hit": false,
      "t": 75789.40799999986,
      "d": 197.36824999999953,
      "v": 127
    },
    {
      "midi": 52,
      "hit": false,
      "t": 75789.40799999988,
      "d": 394.73649999999907,
      "v": 127
    },
    {
      "midi": 59,
      "hit": false,
      "t": 75986.77624999986,
      "d": 197.36824999999953,
      "v": 127
    },
    {
      "midi": 64,
      "hit": false,
      "t": 76184.14449999986,
      "d": 592.1047499999986,
      "v": 127
    },
    {
      "midi": 55,
      "hit": false,
      "t": 76184.14449999988,
      "d": 394.73649999999907,
      "v": 127
    },
    {
      "midi": 59,
      "hit": false,
      "t": 76184.14449999988,
      "d": 394.73649999999907,
      "v": 127
    },
    {
      "midi": 52,
      "hit": false,
      "t": 76578.88099999988,
      "d": 394.73649999999907,
      "v": 127
    },
    {
      "midi": 59,
      "hit": false,
      "t": 76776.24924999986,
      "d": 197.36824999999953,
      "v": 127
    },
    {
      "midi": 64,
      "hit": false,
      "t": 76973.61749999986,
      "d": 394.73649999999907,
      "v": 127
    },
    {
      "midi": 55,
      "hit": false,
      "t": 76973.61749999988,
      "d": 394.73649999999907,
      "v": 127
    },
    {
      "midi": 59,
      "hit": false,
      "t": 76973.61749999988,
      "d": 394.73649999999907,
      "v": 127
    },
    {
      "midi": 52,
      "hit": false,
      "t": 77368.35399999988,
      "d": 394.73649999999907,
      "v": 127
    },
    {
      "midi": 59,
      "hit": false,
      "t": 77565.72224999986,
      "d": 197.36824999999953,
      "v": 127
    },
    {
      "midi": 64,
      "hit": false,
      "t": 77763.09049999986,
      "d": 592.1047499999986,
      "v": 127
    },
    {
      "midi": 55,
      "hit": false,
      "t": 77763.09049999987,
      "d": 394.73649999999907,
      "v": 127
    },
    {
      "midi": 59,
      "hit": false,
      "t": 77763.09049999987,
      "d": 394.73649999999907,
      "v": 127
    },
    {
      "midi": 52,
      "hit": false,
      "t": 78157.82699999987,
      "d": 394.73649999999907,
      "v": 127
    },
    {
      "midi": 59,
      "hit": false,
      "t": 78355.19524999986,
      "d": 197.36824999999953,
      "v": 127
    },
    {
      "midi": 64,
      "hit": false,
      "t": 78552.56349999986,
      "d": 197.36824999999953,
      "v": 127
    },
    {
      "midi": 55,
      "hit": false,
      "t": 78552.56349999987,
      "d": 394.73649999999907,
      "v": 127
    },
    {
      "midi": 59,
      "hit": false,
      "t": 78552.56349999987,
      "d": 394.73649999999907,
      "v": 127
    },
    {
      "midi": 66,
      "hit": false,
      "t": 78749.93174999986,
      "d": 197.36824999999953,
      "v": 127
    },
    {
      "midi": 67,
      "hit": false,
      "t": 78947.29999999986,
      "d": 197.36824999999953,
      "v": 127
    },
    {
      "midi": 52,
      "hit": false,
      "t": 78947.29999999987,
      "d": 394.73649999999907,
      "v": 127
    },
    {
      "midi": 59,
      "hit": false,
      "t": 79144.66824999986,
      "d": 197.36824999999953,
      "v": 127
    },
    {
      "midi": 64,
      "hit": false,
      "t": 79342.03649999986,
      "d": 592.1047499999986,
      "v": 127
    },
    {
      "midi": 67,
      "hit": false,
      "t": 79342.03649999986,
      "d": 592.1047499999986,
      "v": 127
    },
    {
      "midi": 55,
      "hit": false,
      "t": 79342.03649999987,
      "d": 394.73649999999907,
      "v": 127
    },
    {
      "midi": 59,
      "hit": false,
      "t": 79342.03649999987,
      "d": 394.73649999999907,
      "v": 127
    },
    {
      "midi": 52,
      "hit": false,
      "t": 79736.77299999987,
      "d": 394.73649999999907,
      "v": 127
    },
    {
      "midi": 59,
      "hit": false,
      "t": 79934.14124999986,
      "d": 197.36824999999953,
      "v": 127
    },
    {
      "midi": 64,
      "hit": false,
      "t": 80131.50949999985,
      "d": 394.73649999999907,
      "v": 127
    },
    {
      "midi": 67,
      "hit": false,
      "t": 80131.50949999985,
      "d": 394.73649999999907,
      "v": 127
    },
    {
      "midi": 55,
      "hit": false,
      "t": 80131.50949999987,
      "d": 394.73649999999907,
      "v": 127
    },
    {
      "midi": 59,
      "hit": false,
      "t": 80131.50949999987,
      "d": 394.73649999999907,
      "v": 127
    },
    {
      "midi": 52,
      "hit": false,
      "t": 80526.24599999987,
      "d": 394.73649999999907,
      "v": 127
    },
    {
      "midi": 59,
      "hit": false,
      "t": 80723.61424999985,
      "d": 197.36824999999953,
      "v": 127
    },
    {
      "midi": 64,
      "hit": false,
      "t": 80920.98249999985,
      "d": 592.1047499999986,
      "v": 127
    },
    {
      "midi": 67,
      "hit": false,
      "t": 80920.98249999985,
      "d": 592.1047499999986,
      "v": 127
    },
    {
      "midi": 55,
      "hit": false,
      "t": 80920.98249999987,
      "d": 394.73649999999907,
      "v": 127
    },
    {
      "midi": 59,
      "hit": false,
      "t": 80920.98249999987,
      "d": 394.73649999999907,
      "v": 127
    },
    {
      "midi": 52,
      "hit": false,
      "t": 81315.71899999987,
      "d": 394.73649999999907,
      "v": 127
    },
    {
      "midi": 64,
      "hit": false,
      "t": 81513.08724999985,
      "d": 197.36824999999953,
      "v": 127
    },
    {
      "midi": 67,
      "hit": false,
      "t": 81710.45549999985,
      "d": 197.36824999999953,
      "v": 127
    },
    {
      "midi": 55,
      "hit": false,
      "t": 81710.45549999987,
      "d": 394.73649999999907,
      "v": 127
    },
    {
      "midi": 59,
      "hit": false,
      "t": 81710.45549999987,
      "d": 394.73649999999907,
      "v": 127
    },
    {
      "midi": 69,
      "hit": false,
      "t": 81907.82374999985,
      "d": 197.36824999999953,
      "v": 127
    },
    {
      "midi": 71,
      "hit": false,
      "t": 82105.19199999985,
      "d": 197.36824999999953,
      "v": 127
    },
    {
      "midi": 52,
      "hit": false,
      "t": 82105.19199999986,
      "d": 394.73649999999907,
      "v": 127
    },
    {
      "midi": 64,
      "hit": false,
      "t": 82302.56024999985,
      "d": 197.36824999999953,
      "v": 127
    },
    {
      "midi": 67,
      "hit": false,
      "t": 82499.92849999985,
      "d": 592.1047499999986,
      "v": 127
    },
    {
      "midi": 71,
      "hit": false,
      "t": 82499.92849999985,
      "d": 592.1047499999986,
      "v": 127
    },
    {
      "midi": 55,
      "hit": false,
      "t": 82499.92849999986,
      "d": 394.73649999999907,
      "v": 127
    },
    {
      "midi": 59,
      "hit": false,
      "t": 82499.92849999986,
      "d": 394.73649999999907,
      "v": 127
    },
    {
      "midi": 52,
      "hit": false,
      "t": 82894.66499999986,
      "d": 394.73649999999907,
      "v": 127
    },
    {
      "midi": 64,
      "hit": false,
      "t": 83092.03324999985,
      "d": 197.36824999999953,
      "v": 127
    },
    {
      "midi": 67,
      "hit": false,
      "t": 83289.40149999985,
      "d": 394.73649999999907,
      "v": 127
    },
    {
      "midi": 71,
      "hit": false,
      "t": 83289.40149999985,
      "d": 394.73649999999907,
      "v": 127
    },
    {
      "midi": 55,
      "hit": false,
      "t": 83289.40149999986,
      "d": 394.73649999999907,
      "v": 127
    },
    {
      "midi": 59,
      "hit": false,
      "t": 83289.40149999986,
      "d": 394.73649999999907,
      "v": 127
    },
    {
      "midi": 52,
      "hit": false,
      "t": 83684.13799999986,
      "d": 394.73649999999907,
      "v": 127
    },
    {
      "midi": 64,
      "hit": false,
      "t": 83881.50624999985,
      "d": 197.36824999999953,
      "v": 127
    },
    {
      "midi": 67,
      "hit": false,
      "t": 84078.87449999985,
      "d": 394.73649999999907,
      "v": 127
    },
    {
      "midi": 71,
      "hit": false,
      "t": 84078.87449999985,
      "d": 394.73649999999907,
      "v": 127
    },
    {
      "midi": 55,
      "hit": false,
      "t": 84078.87449999986,
      "d": 394.73649999999907,
      "v": 127
    },
    {
      "midi": 59,
      "hit": false,
      "t": 84078.87449999986,
      "d": 394.73649999999907,
      "v": 127
    },
    {
      "midi": 69,
      "hit": false,
      "t": 84473.61099999984,
      "d": 197.36824999999953,
      "v": 127
    },
    {
      "midi": 72,
      "hit": false,
      "t": 84473.61099999984,
      "d": 197.36824999999953,
      "v": 127
    },
    {
      "midi": 52,
      "hit": false,
      "t": 84473.61099999986,
      "d": 394.73649999999907,
      "v": 127
    },
    {
      "midi": 67,
      "hit": false,
      "t": 84670.97924999984,
      "d": 197.36824999999953,
      "v": 127
    },
    {
      "midi": 71,
      "hit": false,
      "t": 84670.97924999984,
      "d": 197.36824999999953,
      "v": 127
    },
    {
      "midi": 66,
      "hit": false,
      "t": 84868.34749999984,
      "d": 197.36824999999953,
      "v": 127
    },
    {
      "midi": 69,
      "hit": false,
      "t": 84868.34749999984,
      "d": 197.36824999999953,
      "v": 127
    },
    {
      "midi": 55,
      "hit": false,
      "t": 84868.34749999986,
      "d": 394.73649999999907,
      "v": 127
    },
    {
      "midi": 59,
      "hit": false,
      "t": 84868.34749999986,
      "d": 394.73649999999907,
      "v": 127
    },
    {
      "midi": 64,
      "hit": false,
      "t": 85065.71574999984,
      "d": 197.36824999999953,
      "v": 127
    },
    {
      "midi": 67,
      "hit": false,
      "t": 85065.71574999984,
      "d": 197.36824999999953,
      "v": 127
    },
    {
      "midi": 71,
      "hit": false,
      "t": 85263.08399999984,
      "d": 197.36824999999953,
      "v": 127
    },
    {
      "midi": 47,
      "hit": false,
      "t": 85263.08399999986,
      "d": 394.73649999999907,
      "v": 127
    },
    {
      "midi": 63,
      "hit": false,
      "t": 85460.45224999984,
      "d": 197.36824999999953,
      "v": 127
    },
    {
      "midi": 66,
      "hit": false,
      "t": 85657.82049999984,
      "d": 592.1047499999986,
      "v": 127
    },
    {
      "midi": 71,
      "hit": false,
      "t": 85657.82049999984,
      "d": 592.1047499999986,
      "v": 127
    },
    {
      "midi": 54,
      "hit": false,
      "t": 85657.82049999986,
      "d": 394.73649999999907,
      "v": 127
    },
    {
      "midi": 59,
      "hit": false,
      "t": 85657.82049999986,
      "d": 394.73649999999907,
      "v": 127
    },
    {
      "midi": 47,
      "hit": false,
      "t": 86052.55699999986,
      "d": 394.73649999999907,
      "v": 127
    },
    {
      "midi": 63,
      "hit": false,
      "t": 86249.92524999984,
      "d": 197.36824999999953,
      "v": 127
    },
    {
      "midi": 66,
      "hit": false,
      "t": 86447.29349999984,
      "d": 394.73649999999907,
      "v": 127
    },
    {
      "midi": 71,
      "hit": false,
      "t": 86447.29349999984,
      "d": 394.73649999999907,
      "v": 127
    },
    {
      "midi": 54,
      "hit": false,
      "t": 86447.29349999985,
      "d": 394.73649999999907,
      "v": 127
    },
    {
      "midi": 59,
      "hit": false,
      "t": 86447.29349999985,
      "d": 394.73649999999907,
      "v": 127
    },
    {
      "midi": 47,
      "hit": false,
      "t": 86842.02999999985,
      "d": 394.73649999999907,
      "v": 127
    },
    {
      "midi": 63,
      "hit": false,
      "t": 87039.39824999984,
      "d": 197.36824999999953,
      "v": 127
    },
    {
      "midi": 66,
      "hit": false,
      "t": 87236.76649999984,
      "d": 394.73649999999907,
      "v": 127
    },
    {
      "midi": 71,
      "hit": false,
      "t": 87236.76649999984,
      "d": 394.73649999999907,
      "v": 127
    },
    {
      "midi": 54,
      "hit": false,
      "t": 87236.76649999985,
      "d": 394.73649999999907,
      "v": 127
    },
    {
      "midi": 59,
      "hit": false,
      "t": 87236.76649999985,
      "d": 394.73649999999907,
      "v": 127
    },
    {
      "midi": 75,
      "hit": false,
      "t": 87631.50299999984,
      "d": 197.36824999999953,
      "v": 127
    },
    {
      "midi": 47,
      "hit": false,
      "t": 87631.50299999985,
      "d": 394.73649999999907,
      "v": 127
    },
    {
      "midi": 72,
      "hit": false,
      "t": 87828.87124999984,
      "d": 197.36824999999953,
      "v": 127
    },
    {
      "midi": 71,
      "hit": false,
      "t": 88026.23949999984,
      "d": 197.36824999999953,
      "v": 127
    },
    {
      "midi": 54,
      "hit": false,
      "t": 88026.23949999985,
      "d": 394.73649999999907,
      "v": 127
    },
    {
      "midi": 59,
      "hit": false,
      "t": 88026.23949999985,
      "d": 394.73649999999907,
      "v": 127
    },
    {
      "midi": 69,
      "hit": false,
      "t": 88223.60774999984,
      "d": 197.36824999999953,
      "v": 127
    },
    {
      "midi": 67,
      "hit": false,
      "t": 88420.97599999984,
      "d": 197.36824999999953,
      "v": 127
    },
    {
      "midi": 52,
      "hit": false,
      "t": 88420.97599999985,
      "d": 394.73649999999907,
      "v": 127
    },
    {
      "midi": 76,
      "hit": false,
      "t": 88618.34424999983,
      "d": 197.36824999999953,
      "v": 127
    },
    {
      "midi": 79,
      "hit": false,
      "t": 88815.71249999983,
      "d": 592.1047499999986,
      "v": 127
    },
    {
      "midi": 83,
      "hit": false,
      "t": 88815.71249999983,
      "d": 592.1047499999986,
      "v": 127
    },
    {
      "midi": 55,
      "hit": false,
      "t": 88815.71249999985,
      "d": 394.73649999999907,
      "v": 127
    },
    {
      "midi": 59,
      "hit": false,
      "t": 88815.71249999985,
      "d": 394.73649999999907,
      "v": 127
    },
    {
      "midi": 64,
      "hit": false,
      "t": 88815.71249999985,
      "d": 394.73649999999907,
      "v": 127
    },
    {
      "midi": 52,
      "hit": false,
      "t": 89210.44899999985,
      "d": 394.73649999999907,
      "v": 127
    },
    {
      "midi": 76,
      "hit": false,
      "t": 89407.81724999983,
      "d": 197.36824999999953,
      "v": 127
    },
    {
      "midi": 79,
      "hit": false,
      "t": 89605.18549999983,
      "d": 394.73649999999907,
      "v": 127
    },
    {
      "midi": 83,
      "hit": false,
      "t": 89605.18549999983,
      "d": 394.73649999999907,
      "v": 127
    },
    {
      "midi": 55,
      "hit": false,
      "t": 89605.18549999985,
      "d": 394.73649999999907,
      "v": 127
    },
    {
      "midi": 59,
      "hit": false,
      "t": 89605.18549999985,
      "d": 394.73649999999907,
      "v": 127
    },
    {
      "midi": 64,
      "hit": false,
      "t": 89605.18549999985,
      "d": 394.73649999999907,
      "v": 127
    },
    {
      "midi": 52,
      "hit": false,
      "t": 89999.92199999985,
      "d": 394.73649999999907,
      "v": 127
    },
    {
      "midi": 76,
      "hit": false,
      "t": 90197.29024999983,
      "d": 197.36824999999953,
      "v": 127
    },
    {
      "midi": 79,
      "hit": false,
      "t": 90394.65849999983,
      "d": 394.73649999999907,
      "v": 127
    },
    {
      "midi": 83,
      "hit": false,
      "t": 90394.65849999983,
      "d": 394.73649999999907,
      "v": 127
    },
    {
      "midi": 55,
      "hit": false,
      "t": 90394.65849999984,
      "d": 394.73649999999907,
      "v": 127
    },
    {
      "midi": 59,
      "hit": false,
      "t": 90394.65849999984,
      "d": 394.73649999999907,
      "v": 127
    },
    {
      "midi": 64,
      "hit": false,
      "t": 90394.65849999984,
      "d": 394.73649999999907,
      "v": 127
    },
    {
      "midi": 78,
      "hit": false,
      "t": 90789.39499999983,
      "d": 197.36824999999953,
      "v": 127
    },
    {
      "midi": 81,
      "hit": false,
      "t": 90789.39499999983,
      "d": 197.36824999999953,
      "v": 127
    },
    {
      "midi": 48,
      "hit": false,
      "t": 90789.39499999984,
      "d": 394.73649999999907,
      "v": 127
    },
    {
      "midi": 76,
      "hit": false,
      "t": 90986.76324999983,
      "d": 197.36824999999953,
      "v": 127
    },
    {
      "midi": 79,
      "hit": false,
      "t": 90986.76324999983,
      "d": 197.36824999999953,
      "v": 127
    },
    {
      "midi": 74,
      "hit": false,
      "t": 91184.13149999983,
      "d": 197.36824999999953,
      "v": 127
    },
    {
      "midi": 78,
      "hit": false,
      "t": 91184.13149999983,
      "d": 197.36824999999953,
      "v": 127
    },
    {
      "midi": 55,
      "hit": false,
      "t": 91184.13149999984,
      "d": 394.73649999999907,
      "v": 127
    },
    {
      "midi": 60,
      "hit": false,
      "t": 91184.13149999984,
      "d": 394.73649999999907,
      "v": 127
    },
    {
      "midi": 64,
      "hit": false,
      "t": 91184.13149999984,
      "d": 394.73649999999907,
      "v": 127
    },
    {
      "midi": 72,
      "hit": false,
      "t": 91381.49974999983,
      "d": 197.36824999999953,
      "v": 127
    },
    {
      "midi": 76,
      "hit": false,
      "t": 91381.49974999983,
      "d": 197.36824999999953,
      "v": 127
    },
    {
      "midi": 74,
      "hit": false,
      "t": 91578.86799999983,
      "d": 197.36824999999953,
      "v": 127
    },
    {
      "midi": 43,
      "hit": false,
      "t": 91578.86799999984,
      "d": 394.73649999999907,
      "v": 127
    },
    {
      "midi": 67,
      "hit": false,
      "t": 91776.23624999983,
      "d": 197.36824999999953,
      "v": 127
    },
    {
      "midi": 71,
      "hit": false,
      "t": 91973.60449999983,
      "d": 592.1047499999986,
      "v": 127
    },
    {
      "midi": 74,
      "hit": false,
      "t": 91973.60449999983,
      "d": 592.1047499999986,
      "v": 127
    },
    {
      "midi": 55,
      "hit": false,
      "t": 91973.60449999984,
      "d": 394.73649999999907,
      "v": 127
    },
    {
      "midi": 59,
      "hit": false,
      "t": 91973.60449999984,
      "d": 394.73649999999907,
      "v": 127
    },
    {
      "midi": 62,
      "hit": false,
      "t": 91973.60449999984,
      "d": 394.73649999999907,
      "v": 127
    },
    {
      "midi": 43,
      "hit": false,
      "t": 92368.34099999984,
      "d": 394.73649999999907,
      "v": 127
    },
    {
      "midi": 67,
      "hit": false,
      "t": 92565.70924999983,
      "d": 197.36824999999953,
      "v": 127
    },
    {
      "midi": 71,
      "hit": false,
      "t": 92763.07749999982,
      "d": 394.73649999999907,
      "v": 127
    },
    {
      "midi": 74,
      "hit": false,
      "t": 92763.07749999982,
      "d": 394.73649999999907,
      "v": 127
    },
    {
      "midi": 55,
      "hit": false,
      "t": 92763.07749999984,
      "d": 394.73649999999907,
      "v": 127
    },
    {
      "midi": 59,
      "hit": false,
      "t": 92763.07749999984,
      "d": 394.73649999999907,
      "v": 127
    },
    {
      "midi": 62,
      "hit": false,
      "t": 92763.07749999984,
      "d": 394.73649999999907,
      "v": 127
    },
    {
      "midi": 43,
      "hit": false,
      "t": 93157.81399999984,
      "d": 394.73649999999907,
      "v": 127
    },
    {
      "midi": 67,
      "hit": false,
      "t": 93355.18224999982,
      "d": 197.36824999999953,
      "v": 127
    },
    {
      "midi": 71,
      "hit": false,
      "t": 93552.55049999982,
      "d": 592.1047499999986,
      "v": 127
    },
    {
      "midi": 74,
      "hit": false,
      "t": 93552.55049999982,
      "d": 592.1047499999986,
      "v": 127
    },
    {
      "midi": 55,
      "hit": false,
      "t": 93552.55049999984,
      "d": 394.73649999999907,
      "v": 127
    },
    {
      "midi": 59,
      "hit": false,
      "t": 93552.55049999984,
      "d": 394.73649999999907,
      "v": 127
    },
    {
      "midi": 62,
      "hit": false,
      "t": 93552.55049999984,
      "d": 394.73649999999907,
      "v": 127
    },
    {
      "midi": 43,
      "hit": false,
      "t": 93947.28699999984,
      "d": 394.73649999999907,
      "v": 127
    },
    {
      "midi": 67,
      "hit": false,
      "t": 94144.65524999982,
      "d": 197.36824999999953,
      "v": 127
    },
    {
      "midi": 74,
      "hit": false,
      "t": 94342.02349999982,
      "d": 394.73649999999907,
      "v": 127
    },
    {
      "midi": 55,
      "hit": false,
      "t": 94342.02349999984,
      "d": 394.73649999999907,
      "v": 127
    },
    {
      "midi": 59,
      "hit": false,
      "t": 94342.02349999984,
      "d": 394.73649999999907,
      "v": 127
    },
    {
      "midi": 62,
      "hit": false,
      "t": 94342.02349999984,
      "d": 394.73649999999907,
      "v": 127
    },
    {
      "midi": 74,
      "hit": false,
      "t": 94736.75999999982,
      "d": 394.73649999999907,
      "v": 127
    },
    {
      "midi": 76,
      "hit": false,
      "t": 94736.75999999982,
      "d": 394.73649999999907,
      "v": 127
    },
    {
      "midi": 54,
      "hit": false,
      "t": 94736.75999999983,
      "d": 394.73649999999907,
      "v": 127
    },
    {
      "midi": 74,
      "hit": false,
      "t": 95131.49649999982,
      "d": 394.73649999999907,
      "v": 127
    },
    {
      "midi": 59,
      "hit": false,
      "t": 95131.49649999983,
      "d": 394.73649999999907,
      "v": 127
    },
    {
      "midi": 62,
      "hit": false,
      "t": 95131.49649999983,
      "d": 394.73649999999907,
      "v": 127
    },
    {
      "midi": 74,
      "hit": false,
      "t": 95526.23299999982,
      "d": 394.73649999999907,
      "v": 127
    },
    {
      "midi": 76,
      "hit": false,
      "t": 95526.23299999982,
      "d": 394.73649999999907,
      "v": 127
    },
    {
      "midi": 54,
      "hit": false,
      "t": 95526.23299999983,
      "d": 394.73649999999907,
      "v": 127
    },
    {
      "midi": 74,
      "hit": false,
      "t": 95920.96949999982,
      "d": 394.73649999999907,
      "v": 127
    },
    {
      "midi": 59,
      "hit": false,
      "t": 95920.96949999983,
      "d": 394.73649999999907,
      "v": 127
    },
    {
      "midi": 62,
      "hit": false,
      "t": 95920.96949999983,
      "d": 394.73649999999907,
      "v": 127
    },
    {
      "midi": 74,
      "hit": false,
      "t": 96315.70599999982,
      "d": 394.73649999999907,
      "v": 127
    },
    {
      "midi": 76,
      "hit": false,
      "t": 96315.70599999982,
      "d": 394.73649999999907,
      "v": 127
    },
    {
      "midi": 54,
      "hit": false,
      "t": 96315.70599999983,
      "d": 394.73649999999907,
      "v": 127
    },
    {
      "midi": 71,
      "hit": false,
      "t": 96710.44249999982,
      "d": 394.73649999999907,
      "v": 127
    },
    {
      "midi": 74,
      "hit": false,
      "t": 96710.44249999982,
      "d": 394.73649999999907,
      "v": 127
    },
    {
      "midi": 59,
      "hit": false,
      "t": 96710.44249999983,
      "d": 394.73649999999907,
      "v": 127
    },
    {
      "midi": 62,
      "hit": false,
      "t": 96710.44249999983,
      "d": 394.73649999999907,
      "v": 127
    },
    {
      "midi": 73,
      "hit": false,
      "t": 97105.17899999981,
      "d": 197.36824999999953,
      "v": 127
    },
    {
      "midi": 54,
      "hit": false,
      "t": 97105.17899999983,
      "d": 394.73649999999907,
      "v": 127
    },
    {
      "midi": 74,
      "hit": false,
      "t": 97302.54724999981,
      "d": 197.36824999999953,
      "v": 127
    },
    {
      "midi": 73,
      "hit": false,
      "t": 97499.91549999981,
      "d": 197.36824999999953,
      "v": 127
    },
    {
      "midi": 61,
      "hit": false,
      "t": 97499.91549999983,
      "d": 394.73649999999907,
      "v": 127
    },
    {
      "midi": 64,
      "hit": false,
      "t": 97499.91549999983,
      "d": 394.73649999999907,
      "v": 127
    },
    {
      "midi": 78,
      "hit": false,
      "t": 97697.28374999981,
      "d": 197.36824999999953,
      "v": 127
    },
    {
      "midi": 71,
      "hit": false,
      "t": 97894.65199999981,
      "d": 197.36824999999953,
      "v": 127
    },
    {
      "midi": 47,
      "hit": false,
      "t": 97894.65199999983,
      "d": 394.73649999999907,
      "v": 127
    },
    {
      "midi": 71,
      "hit": false,
      "t": 98092.02024999981,
      "d": 197.36824999999953,
      "v": 127
    },
    {
      "midi": 83,
      "hit": false,
      "t": 98289.38849999981,
      "d": 592.1047499999986,
      "v": 127
    },
    {
      "midi": 54,
      "hit": false,
      "t": 98289.38849999983,
      "d": 394.73649999999907,
      "v": 127
    },
    {
      "midi": 59,
      "hit": false,
      "t": 98289.38849999983,
      "d": 394.73649999999907,
      "v": 127
    },
    {
      "midi": 62,
      "hit": false,
      "t": 98289.38849999983,
      "d": 394.73649999999907,
      "v": 127
    },
    {
      "midi": 47,
      "hit": false,
      "t": 98684.12499999983,
      "d": 394.73649999999907,
      "v": 127
    },
    {
      "midi": 71,
      "hit": false,
      "t": 98881.49324999981,
      "d": 197.36824999999953,
      "v": 127
    },
    {
      "midi": 83,
      "hit": false,
      "t": 99078.86149999981,
      "d": 394.73649999999907,
      "v": 127
    },
    {
      "midi": 54,
      "hit": false,
      "t": 99078.86149999982,
      "d": 394.73649999999907,
      "v": 127
    },
    {
      "midi": 59,
      "hit": false,
      "t": 99078.86149999982,
      "d": 394.73649999999907,
      "v": 127
    },
    {
      "midi": 62,
      "hit": false,
      "t": 99078.86149999982,
      "d": 394.73649999999907,
      "v": 127
    },
    {
      "midi": 47,
      "hit": false,
      "t": 99473.59799999982,
      "d": 394.73649999999907,
      "v": 127
    },
    {
      "midi": 71,
      "hit": false,
      "t": 99670.96624999981,
      "d": 197.36824999999953,
      "v": 127
    },
    {
      "midi": 83,
      "hit": false,
      "t": 99868.33449999981,
      "d": 394.73649999999907,
      "v": 127
    },
    {
      "midi": 54,
      "hit": false,
      "t": 99868.33449999982,
      "d": 394.73649999999907,
      "v": 127
    },
    {
      "midi": 59,
      "hit": false,
      "t": 99868.33449999982,
      "d": 394.73649999999907,
      "v": 127
    },
    {
      "midi": 62,
      "hit": false,
      "t": 99868.33449999982,
      "d": 394.73649999999907,
      "v": 127
    },
    {
      "midi": 85,
      "hit": false,
      "t": 100263.0709999998,
      "d": 197.36824999999953,
      "v": 127
    },
    {
      "midi": 47,
      "hit": false,
      "t": 100263.07099999982,
      "d": 394.73649999999907,
      "v": 127
    },
    {
      "midi": 79,
      "hit": false,
      "t": 100460.4392499998,
      "d": 197.36824999999953,
      "v": 127
    },
    {
      "midi": 78,
      "hit": false,
      "t": 100657.8074999998,
      "d": 197.36824999999953,
      "v": 127
    },
    {
      "midi": 55,
      "hit": false,
      "t": 100657.80749999982,
      "d": 394.73649999999907,
      "v": 127
    },
    {
      "midi": 61,
      "hit": false,
      "t": 100657.80749999982,
      "d": 394.73649999999907,
      "v": 127
    },
    {
      "midi": 64,
      "hit": false,
      "t": 100657.80749999982,
      "d": 394.73649999999907,
      "v": 127
    },
    {
      "midi": 76,
      "hit": false,
      "t": 100855.1757499998,
      "d": 197.36824999999953,
      "v": 127
    },
    {
      "midi": 78,
      "hit": false,
      "t": 101052.5439999998,
      "d": 197.36824999999953,
      "v": 127
    },
    {
      "midi": 47,
      "hit": false,
      "t": 101052.54399999982,
      "d": 394.73649999999907,
      "v": 127
    },
    {
      "midi": 71,
      "hit": false,
      "t": 101249.9122499998,
      "d": 197.36824999999953,
      "v": 127
    },
    {
      "midi": 83,
      "hit": false,
      "t": 101447.2804999998,
      "d": 592.1047499999986,
      "v": 127
    },
    {
      "midi": 54,
      "hit": false,
      "t": 101447.28049999982,
      "d": 394.73649999999907,
      "v": 127
    },
    {
      "midi": 59,
      "hit": false,
      "t": 101447.28049999982,
      "d": 394.73649999999907,
      "v": 127
    },
    {
      "midi": 62,
      "hit": false,
      "t": 101447.28049999982,
      "d": 394.73649999999907,
      "v": 127
    },
    {
      "midi": 47,
      "hit": false,
      "t": 101842.01699999982,
      "d": 394.73649999999907,
      "v": 127
    },
    {
      "midi": 71,
      "hit": false,
      "t": 102039.3852499998,
      "d": 197.36824999999953,
      "v": 127
    },
    {
      "midi": 83,
      "hit": false,
      "t": 102236.7534999998,
      "d": 394.73649999999907,
      "v": 127
    },
    {
      "midi": 54,
      "hit": false,
      "t": 102236.75349999982,
      "d": 394.73649999999907,
      "v": 127
    },
    {
      "midi": 59,
      "hit": false,
      "t": 102236.75349999982,
      "d": 394.73649999999907,
      "v": 127
    },
    {
      "midi": 62,
      "hit": false,
      "t": 102236.75349999982,
      "d": 394.73649999999907,
      "v": 127
    },
    {
      "midi": 47,
      "hit": false,
      "t": 102631.48999999982,
      "d": 394.73649999999907,
      "v": 127
    },
    {
      "midi": 71,
      "hit": false,
      "t": 102828.8582499998,
      "d": 197.36824999999953,
      "v": 127
    },
    {
      "midi": 83,
      "hit": false,
      "t": 103026.2264999998,
      "d": 394.73649999999907,
      "v": 127
    },
    {
      "midi": 54,
      "hit": false,
      "t": 103026.22649999982,
      "d": 394.73649999999907,
      "v": 127
    },
    {
      "midi": 59,
      "hit": false,
      "t": 103026.22649999982,
      "d": 394.73649999999907,
      "v": 127
    },
    {
      "midi": 62,
      "hit": false,
      "t": 103026.22649999982,
      "d": 394.73649999999907,
      "v": 127
    },
    {
      "midi": 85,
      "hit": false,
      "t": 103420.9629999998,
      "d": 197.36824999999953,
      "v": 127
    },
    {
      "midi": 47,
      "hit": false,
      "t": 103420.96299999981,
      "d": 394.73649999999907,
      "v": 127
    },
    {
      "midi": 79,
      "hit": false,
      "t": 103618.3312499998,
      "d": 197.36824999999953,
      "v": 127
    },
    {
      "midi": 78,
      "hit": false,
      "t": 103815.6994999998,
      "d": 197.36824999999953,
      "v": 127
    },
    {
      "midi": 55,
      "hit": false,
      "t": 103815.69949999981,
      "d": 394.73649999999907,
      "v": 127
    },
    {
      "midi": 61,
      "hit": false,
      "t": 103815.69949999981,
      "d": 394.73649999999907,
      "v": 127
    },
    {
      "midi": 64,
      "hit": false,
      "t": 103815.69949999981,
      "d": 394.73649999999907,
      "v": 127
    },
    {
      "midi": 76,
      "hit": false,
      "t": 104013.0677499998,
      "d": 197.36824999999953,
      "v": 127
    },
    {
      "midi": 78,
      "hit": false,
      "t": 104210.4359999998,
      "d": 197.36824999999953,
      "v": 127
    },
    {
      "midi": 47,
      "hit": false,
      "t": 104210.43599999981,
      "d": 394.73649999999907,
      "v": 127
    },
    {
      "midi": 66,
      "hit": false,
      "t": 104407.8042499998,
      "d": 197.36824999999953,
      "v": 127
    },
    {
      "midi": 78,
      "hit": false,
      "t": 104605.1724999998,
      "d": 592.1047499999986,
      "v": 127
    },
    {
      "midi": 54,
      "hit": false,
      "t": 104605.17249999981,
      "d": 394.73649999999907,
      "v": 127
    },
    {
      "midi": 59,
      "hit": false,
      "t": 104605.17249999981,
      "d": 394.73649999999907,
      "v": 127
    },
    {
      "midi": 63,
      "hit": false,
      "t": 104605.17249999981,
      "d": 394.73649999999907,
      "v": 127
    },
    {
      "midi": 47,
      "hit": false,
      "t": 104999.90899999981,
      "d": 394.73649999999907,
      "v": 127
    },
    {
      "midi": 66,
      "hit": false,
      "t": 105197.2772499998,
      "d": 197.36824999999953,
      "v": 127
    },
    {
      "midi": 78,
      "hit": false,
      "t": 105394.6454999998,
      "d": 394.73649999999907,
      "v": 127
    },
    {
      "midi": 54,
      "hit": false,
      "t": 105394.64549999981,
      "d": 394.73649999999907,
      "v": 127
    },
    {
      "midi": 59,
      "hit": false,
      "t": 105394.64549999981,
      "d": 394.73649999999907,
      "v": 127
    },
    {
      "midi": 63,
      "hit": false,
      "t": 105394.64549999981,
      "d": 394.73649999999907,
      "v": 127
    },
    {
      "midi": 47,
      "hit": false,
      "t": 105789.38199999981,
      "d": 394.73649999999907,
      "v": 127
    },
    {
      "midi": 66,
      "hit": false,
      "t": 105986.7502499998,
      "d": 197.36824999999953,
      "v": 127
    },
    {
      "midi": 78,
      "hit": false,
      "t": 106184.1184999998,
      "d": 394.73649999999907,
      "v": 127
    },
    {
      "midi": 54,
      "hit": false,
      "t": 106184.11849999981,
      "d": 394.73649999999907,
      "v": 127
    },
    {
      "midi": 59,
      "hit": false,
      "t": 106184.11849999981,
      "d": 394.73649999999907,
      "v": 127
    },
    {
      "midi": 63,
      "hit": false,
      "t": 106184.11849999981,
      "d": 394.73649999999907,
      "v": 127
    },
    {
      "midi": 70,
      "hit": false,
      "t": 106578.85499999979,
      "d": 197.36824999999953,
      "v": 127
    },
    {
      "midi": 73,
      "hit": false,
      "t": 106578.85499999979,
      "d": 197.36824999999953,
      "v": 127
    },
    {
      "midi": 42,
      "hit": false,
      "t": 106578.8549999998,
      "d": 394.73649999999907,
      "v": 127
    },
    {
      "midi": 73,
      "hit": false,
      "t": 106776.22324999979,
      "d": 197.36824999999953,
      "v": 127
    },
    {
      "midi": 76,
      "hit": false,
      "t": 106776.22324999979,
      "d": 197.36824999999953,
      "v": 127
    },
    {
      "midi": 71,
      "hit": false,
      "t": 106973.59149999979,
      "d": 197.36824999999953,
      "v": 127
    },
    {
      "midi": 75,
      "hit": false,
      "t": 106973.59149999979,
      "d": 197.36824999999953,
      "v": 127
    },
    {
      "midi": 54,
      "hit": false,
      "t": 106973.5914999998,
      "d": 394.73649999999907,
      "v": 127
    },
    {
      "midi": 61,
      "hit": false,
      "t": 106973.5914999998,
      "d": 394.73649999999907,
      "v": 127
    },
    {
      "midi": 64,
      "hit": false,
      "t": 106973.5914999998,
      "d": 394.73649999999907,
      "v": 127
    },
    {
      "midi": 70,
      "hit": false,
      "t": 107170.95974999979,
      "d": 197.36824999999953,
      "v": 127
    },
    {
      "midi": 73,
      "hit": false,
      "t": 107170.95974999979,
      "d": 197.36824999999953,
      "v": 127
    },
    {
      "midi": 75,
      "hit": false,
      "t": 107368.32799999979,
      "d": 197.36824999999953,
      "v": 127
    },
    {
      "midi": 47,
      "hit": false,
      "t": 107368.3279999998,
      "d": 394.73649999999907,
      "v": 127
    },
    {
      "midi": 66,
      "hit": false,
      "t": 107565.69624999979,
      "d": 197.36824999999953,
      "v": 127
    },
    {
      "midi": 78,
      "hit": false,
      "t": 107763.06449999979,
      "d": 592.1047499999986,
      "v": 127
    },
    {
      "midi": 54,
      "hit": false,
      "t": 107763.0644999998,
      "d": 394.73649999999907,
      "v": 127
    },
    {
      "midi": 59,
      "hit": false,
      "t": 107763.0644999998,
      "d": 394.73649999999907,
      "v": 127
    },
    {
      "midi": 63,
      "hit": false,
      "t": 107763.0644999998,
      "d": 394.73649999999907,
      "v": 127
    },
    {
      "midi": 47,
      "hit": false,
      "t": 108157.8009999998,
      "d": 394.73649999999907,
      "v": 127
    },
    {
      "midi": 66,
      "hit": false,
      "t": 108355.16924999979,
      "d": 197.36824999999953,
      "v": 127
    },
    {
      "midi": 78,
      "hit": false,
      "t": 108552.53749999979,
      "d": 394.73649999999907,
      "v": 127
    },
    {
      "midi": 54,
      "hit": false,
      "t": 108552.5374999998,
      "d": 394.73649999999907,
      "v": 127
    },
    {
      "midi": 59,
      "hit": false,
      "t": 108552.5374999998,
      "d": 394.73649999999907,
      "v": 127
    },
    {
      "midi": 63,
      "hit": false,
      "t": 108552.5374999998,
      "d": 394.73649999999907,
      "v": 127
    },
    {
      "midi": 47,
      "hit": false,
      "t": 108947.2739999998,
      "d": 394.73649999999907,
      "v": 127
    },
    {
      "midi": 66,
      "hit": false,
      "t": 109144.64224999979,
      "d": 197.36824999999953,
      "v": 127
    },
    {
      "midi": 78,
      "hit": false,
      "t": 109342.01049999979,
      "d": 394.73649999999907,
      "v": 127
    },
    {
      "midi": 54,
      "hit": false,
      "t": 109342.0104999998,
      "d": 394.73649999999907,
      "v": 127
    },
    {
      "midi": 59,
      "hit": false,
      "t": 109342.0104999998,
      "d": 394.73649999999907,
      "v": 127
    },
    {
      "midi": 63,
      "hit": false,
      "t": 109342.0104999998,
      "d": 394.73649999999907,
      "v": 127
    },
    {
      "midi": 70,
      "hit": false,
      "t": 109736.74699999978,
      "d": 197.36824999999953,
      "v": 127
    },
    {
      "midi": 73,
      "hit": false,
      "t": 109736.74699999978,
      "d": 197.36824999999953,
      "v": 127
    },
    {
      "midi": 42,
      "hit": false,
      "t": 109736.7469999998,
      "d": 394.73649999999907,
      "v": 127
    },
    {
      "midi": 73,
      "hit": false,
      "t": 109934.11524999978,
      "d": 197.36824999999953,
      "v": 127
    },
    {
      "midi": 76,
      "hit": false,
      "t": 109934.11524999978,
      "d": 197.36824999999953,
      "v": 127
    },
    {
      "midi": 71,
      "hit": false,
      "t": 110131.48349999978,
      "d": 197.36824999999953,
      "v": 127
    },
    {
      "midi": 75,
      "hit": false,
      "t": 110131.48349999978,
      "d": 197.36824999999953,
      "v": 127
    },
    {
      "midi": 54,
      "hit": false,
      "t": 110131.4834999998,
      "d": 394.73649999999907,
      "v": 127
    },
    {
      "midi": 61,
      "hit": false,
      "t": 110131.4834999998,
      "d": 394.73649999999907,
      "v": 127
    },
    {
      "midi": 64,
      "hit": false,
      "t": 110131.4834999998,
      "d": 394.73649999999907,
      "v": 127
    },
    {
      "midi": 70,
      "hit": false,
      "t": 110328.85174999978,
      "d": 197.36824999999953,
      "v": 127
    },
    {
      "midi": 73,
      "hit": false,
      "t": 110328.85174999978,
      "d": 197.36824999999953,
      "v": 127
    },
    {
      "midi": 71,
      "hit": false,
      "t": 110526.21999999978,
      "d": 197.36824999999953,
      "v": 127
    },
    {
      "midi": 47,
      "hit": false,
      "t": 110526.2199999998,
      "d": 394.73649999999907,
      "v": 127
    },
    {
      "midi": 66,
      "hit": false,
      "t": 110723.58824999978,
      "d": 197.36824999999953,
      "v": 127
    },
    {
      "midi": 71,
      "hit": false,
      "t": 110920.95649999978,
      "d": 592.1047499999986,
      "v": 127
    },
    {
      "midi": 54,
      "hit": false,
      "t": 110920.9564999998,
      "d": 394.73649999999907,
      "v": 127
    },
    {
      "midi": 59,
      "hit": false,
      "t": 110920.9564999998,
      "d": 394.73649999999907,
      "v": 127
    },
    {
      "midi": 63,
      "hit": false,
      "t": 110920.9564999998,
      "d": 394.73649999999907,
      "v": 127
    },
    {
      "midi": 47,
      "hit": false,
      "t": 111315.6929999998,
      "d": 394.73649999999907,
      "v": 127
    },
    {
      "midi": 66,
      "hit": false,
      "t": 111513.06124999978,
      "d": 197.36824999999953,
      "v": 127
    },
    {
      "midi": 71,
      "hit": false,
      "t": 111710.42949999978,
      "d": 394.73649999999907,
      "v": 127
    },
    {
      "midi": 54,
      "hit": false,
      "t": 111710.4294999998,
      "d": 394.73649999999907,
      "v": 127
    },
    {
      "midi": 59,
      "hit": false,
      "t": 111710.4294999998,
      "d": 394.73649999999907,
      "v": 127
    },
    {
      "midi": 63,
      "hit": false,
      "t": 111710.4294999998,
      "d": 394.73649999999907,
      "v": 127
    },
    {
      "midi": 47,
      "hit": false,
      "t": 112105.1659999998,
      "d": 394.73649999999907,
      "v": 127
    },
    {
      "midi": 66,
      "hit": false,
      "t": 112302.53424999978,
      "d": 197.36824999999953,
      "v": 127
    },
    {
      "midi": 71,
      "hit": false,
      "t": 112499.90249999978,
      "d": 592.1047499999986,
      "v": 127
    },
    {
      "midi": 54,
      "hit": false,
      "t": 112499.9024999998,
      "d": 394.73649999999907,
      "v": 127
    },
    {
      "midi": 59,
      "hit": false,
      "t": 112499.9024999998,
      "d": 394.73649999999907,
      "v": 127
    },
    {
      "midi": 63,
      "hit": false,
      "t": 112499.9024999998,
      "d": 394.73649999999907,
      "v": 127
    },
    {
      "midi": 47,
      "hit": false,
      "t": 112894.63899999979,
      "d": 394.73649999999907,
      "v": 127
    },
    {
      "midi": 66,
      "hit": false,
      "t": 113092.00724999978,
      "d": 197.36824999999953,
      "v": 127
    },
    {
      "midi": 71,
      "hit": false,
      "t": 113289.37549999978,
      "d": 394.73649999999907,
      "v": 127
    },
    {
      "midi": 54,
      "hit": false,
      "t": 113289.37549999979,
      "d": 394.73649999999907,
      "v": 127
    },
    {
      "midi": 59,
      "hit": false,
      "t": 113289.37549999979,
      "d": 394.73649999999907,
      "v": 127
    },
    {
      "midi": 63,
      "hit": false,
      "t": 113289.37549999979,
      "d": 394.73649999999907,
      "v": 127
    },
    {
      "midi": 72,
      "hit": false,
      "t": 113684.11199999978,
      "d": 394.73649999999907,
      "v": 127
    },
    {
      "midi": 74,
      "hit": false,
      "t": 113684.11199999978,
      "d": 394.73649999999907,
      "v": 127
    },
    {
      "midi": 47,
      "hit": false,
      "t": 113684.11199999979,
      "d": 394.73649999999907,
      "v": 127
    },
    {
      "midi": 72,
      "hit": false,
      "t": 114078.84849999977,
      "d": 789.4729999999981,
      "v": 127
    },
    {
      "midi": 54,
      "hit": false,
      "t": 114078.84849999979,
      "d": 394.73649999999907,
      "v": 127
    },
    {
      "midi": 63,
      "hit": false,
      "t": 114078.84849999979,
      "d": 394.73649999999907,
      "v": 127
    },
    {
      "midi": 47,
      "hit": false,
      "t": 114473.58499999979,
      "d": 394.73649999999907,
      "v": 127
    },
    {
      "midi": 72,
      "hit": false,
      "t": 114868.32149999977,
      "d": 394.73649999999907,
      "v": 127
    },
    {
      "midi": 54,
      "hit": false,
      "t": 114868.32149999979,
      "d": 394.73649999999907,
      "v": 127
    },
    {
      "midi": 63,
      "hit": false,
      "t": 114868.32149999979,
      "d": 394.73649999999907,
      "v": 127
    },
    {
      "midi": 74,
      "hit": false,
      "t": 115263.05799999977,
      "d": 197.36824999999953,
      "v": 127
    },
    {
      "midi": 47,
      "hit": false,
      "t": 115263.05799999979,
      "d": 394.73649999999907,
      "v": 127
    },
    {
      "midi": 71,
      "hit": false,
      "t": 115460.42624999977,
      "d": 197.36824999999953,
      "v": 127
    },
    {
      "midi": 72,
      "hit": false,
      "t": 115657.79449999977,
      "d": 197.36824999999953,
      "v": 127
    },
    {
      "midi": 54,
      "hit": false,
      "t": 115657.79449999979,
      "d": 394.73649999999907,
      "v": 127
    },
    {
      "midi": 63,
      "hit": false,
      "t": 115657.79449999979,
      "d": 394.73649999999907,
      "v": 127
    },
    {
      "midi": 69,
      "hit": false,
      "t": 115855.16274999977,
      "d": 197.36824999999953,
      "v": 127
    },
    {
      "midi": 71,
      "hit": false,
      "t": 116052.53099999977,
      "d": 197.36824999999953,
      "v": 127
    },
    {
      "midi": 47,
      "hit": false,
      "t": 116052.53099999978,
      "d": 394.73649999999907,
      "v": 127
    },
    {
      "midi": 67,
      "hit": false,
      "t": 116249.89924999977,
      "d": 197.36824999999953,
      "v": 127
    },
    {
      "midi": 69,
      "hit": false,
      "t": 116447.26749999977,
      "d": 197.36824999999953,
      "v": 127
    },
    {
      "midi": 54,
      "hit": false,
      "t": 116447.26749999978,
      "d": 394.73649999999907,
      "v": 127
    },
    {
      "midi": 59,
      "hit": false,
      "t": 116447.26749999978,
      "d": 394.73649999999907,
      "v": 127
    },
    {
      "midi": 63,
      "hit": false,
      "t": 116447.26749999978,
      "d": 394.73649999999907,
      "v": 127
    },
    {
      "midi": 66,
      "hit": false,
      "t": 116644.63574999977,
      "d": 197.36824999999953,
      "v": 127
    },
    {
      "midi": 67,
      "hit": false,
      "t": 116842.00399999977,
      "d": 394.73649999999907,
      "v": 127
    },
    {
      "midi": 47,
      "hit": false,
      "t": 116842.00399999978,
      "d": 394.73649999999907,
      "v": 127
    },
    {
      "midi": 67,
      "hit": false,
      "t": 117236.74049999977,
      "d": 789.4729999999981,
      "v": 127
    },
    {
      "midi": 55,
      "hit": false,
      "t": 117236.74049999978,
      "d": 394.73649999999907,
      "v": 127
    },
    {
      "midi": 59,
      "hit": false,
      "t": 117236.74049999978,
      "d": 394.73649999999907,
      "v": 127
    },
    {
      "midi": 64,
      "hit": false,
      "t": 117236.74049999978,
      "d": 394.73649999999907,
      "v": 127
    },
    {
      "midi": 47,
      "hit": false,
      "t": 117631.47699999978,
      "d": 394.73649999999907,
      "v": 127
    },
    {
      "midi": 67,
      "hit": false,
      "t": 118026.21349999977,
      "d": 394.73649999999907,
      "v": 127
    },
    {
      "midi": 55,
      "hit": false,
      "t": 118026.21349999978,
      "d": 394.73649999999907,
      "v": 127
    },
    {
      "midi": 59,
      "hit": false,
      "t": 118026.21349999978,
      "d": 394.73649999999907,
      "v": 127
    },
    {
      "midi": 64,
      "hit": false,
      "t": 118026.21349999978,
      "d": 394.73649999999907,
      "v": 127
    },
    {
      "midi": 69,
      "hit": false,
      "t": 118420.94999999976,
      "d": 197.36824999999953,
      "v": 127
    },
    {
      "midi": 47,
      "hit": false,
      "t": 118420.94999999978,
      "d": 394.73649999999907,
      "v": 127
    },
    {
      "midi": 66,
      "hit": false,
      "t": 118618.31824999976,
      "d": 197.36824999999953,
      "v": 127
    },
    {
      "midi": 67,
      "hit": false,
      "t": 118815.68649999976,
      "d": 197.36824999999953,
      "v": 127
    },
    {
      "midi": 55,
      "hit": false,
      "t": 118815.68649999978,
      "d": 394.73649999999907,
      "v": 127
    },
    {
      "midi": 59,
      "hit": false,
      "t": 118815.68649999978,
      "d": 394.73649999999907,
      "v": 127
    },
    {
      "midi": 64,
      "hit": false,
      "t": 118815.68649999978,
      "d": 394.73649999999907,
      "v": 127
    },
    {
      "midi": 64,
      "hit": false,
      "t": 119013.05474999976,
      "d": 197.36824999999953,
      "v": 127
    },
    {
      "midi": 66,
      "hit": false,
      "t": 119210.42299999976,
      "d": 197.36824999999953,
      "v": 127
    },
    {
      "midi": 47,
      "hit": false,
      "t": 119210.42299999978,
      "d": 394.73649999999907,
      "v": 127
    },
    {
      "midi": 62,
      "hit": false,
      "t": 119407.79124999976,
      "d": 197.36824999999953,
      "v": 127
    },
    {
      "midi": 64,
      "hit": false,
      "t": 119605.15949999976,
      "d": 197.36824999999953,
      "v": 127
    },
    {
      "midi": 55,
      "hit": false,
      "t": 119605.15949999978,
      "d": 394.73649999999907,
      "v": 127
    },
    {
      "midi": 59,
      "hit": false,
      "t": 119605.15949999978,
      "d": 394.73649999999907,
      "v": 127
    },
    {
      "midi": 61,
      "hit": false,
      "t": 119802.52774999976,
      "d": 197.36824999999953,
      "v": 127
    },
    {
      "midi": 61,
      "hit": false,
      "t": 119999.89599999976,
      "d": 394.73649999999907,
      "v": 127
    },
    {
      "midi": 47,
      "hit": false,
      "t": 119999.89599999978,
      "d": 394.73649999999907,
      "v": 127
    },
    {
      "midi": 61,
      "hit": false,
      "t": 120394.63249999976,
      "d": 789.4729999999981,
      "v": 127
    },
    {
      "midi": 54,
      "hit": false,
      "t": 120394.63249999977,
      "d": 394.73649999999907,
      "v": 127
    },
    {
      "midi": 58,
      "hit": false,
      "t": 120394.63249999977,
      "d": 394.73649999999907,
      "v": 127
    },
    {
      "midi": 47,
      "hit": false,
      "t": 120789.36899999977,
      "d": 394.73649999999907,
      "v": 127
    },
    {
      "midi": 61,
      "hit": false,
      "t": 121184.10549999976,
      "d": 394.73649999999907,
      "v": 127
    },
    {
      "midi": 54,
      "hit": false,
      "t": 121184.10549999977,
      "d": 394.73649999999907,
      "v": 127
    },
    {
      "midi": 58,
      "hit": false,
      "t": 121184.10549999977,
      "d": 394.73649999999907,
      "v": 127
    },
    {
      "midi": 47,
      "hit": false,
      "t": 121578.84199999977,
      "d": 394.73649999999907,
      "v": 127
    },
    {
      "midi": 61,
      "hit": false,
      "t": 121973.57849999976,
      "d": 197.36824999999953,
      "v": 127
    },
    {
      "midi": 54,
      "hit": false,
      "t": 121973.57849999977,
      "d": 394.73649999999907,
      "v": 127
    },
    {
      "midi": 58,
      "hit": false,
      "t": 121973.57849999977,
      "d": 394.73649999999907,
      "v": 127
    },
    {
      "midi": 61,
      "hit": false,
      "t": 122170.94674999976,
      "d": 197.36824999999953,
      "v": 127
    },
    {
      "midi": 63,
      "hit": false,
      "t": 122170.94674999976,
      "d": 197.36824999999953,
      "v": 127
    },
    {
      "midi": 63,
      "hit": false,
      "t": 122368.31499999975,
      "d": 197.36824999999953,
      "v": 127
    },
    {
      "midi": 64,
      "hit": false,
      "t": 122368.31499999975,
      "d": 197.36824999999953,
      "v": 127
    },
    {
      "midi": 47,
      "hit": false,
      "t": 122368.31499999977,
      "d": 394.73649999999907,
      "v": 127
    },
    {
      "midi": 59,
      "hit": false,
      "t": 122565.68324999975,
      "d": 197.36824999999953,
      "v": 127
    },
    {
      "midi": 61,
      "hit": false,
      "t": 122565.68324999975,
      "d": 197.36824999999953,
      "v": 127
    },
    {
      "midi": 61,
      "hit": false,
      "t": 122763.05149999975,
      "d": 197.36824999999953,
      "v": 127
    },
    {
      "midi": 63,
      "hit": false,
      "t": 122763.05149999975,
      "d": 197.36824999999953,
      "v": 127
    },
    {
      "midi": 54,
      "hit": false,
      "t": 122763.05149999977,
      "d": 394.73649999999907,
      "v": 127
    },
    {
      "midi": 58,
      "hit": false,
      "t": 122763.05149999977,
      "d": 394.73649999999907,
      "v": 127
    },
    {
      "midi": 59,
      "hit": false,
      "t": 122960.41974999975,
      "d": 197.36824999999953,
      "v": 127
    },
    {
      "midi": 59,
      "hit": false,
      "t": 123157.78799999975,
      "d": 394.73649999999907,
      "v": 127
    },
    {
      "midi": 47,
      "hit": false,
      "t": 123157.78799999977,
      "d": 394.73649999999907,
      "v": 127
    },
    {
      "midi": 59,
      "hit": false,
      "t": 123552.52449999975,
      "d": 789.4729999999981,
      "v": 127
    },
    {
      "midi": 51,
      "hit": false,
      "t": 123552.52449999977,
      "d": 394.73649999999907,
      "v": 127
    },
    {
      "midi": 54,
      "hit": false,
      "t": 123552.52449999977,
      "d": 394.73649999999907,
      "v": 127
    },
    {
      "midi": 47,
      "hit": false,
      "t": 123947.26099999977,
      "d": 394.73649999999907,
      "v": 127
    },
    {
      "midi": 59,
      "hit": false,
      "t": 124341.99749999975,
      "d": 394.73649999999907,
      "v": 127
    },
    {
      "midi": 51,
      "hit": false,
      "t": 124341.99749999976,
      "d": 394.73649999999907,
      "v": 127
    },
    {
      "midi": 54,
      "hit": false,
      "t": 124341.99749999976,
      "d": 394.73649999999907,
      "v": 127
    },
    {
      "midi": 47,
      "hit": false,
      "t": 124736.73399999976,
      "d": 394.73649999999907,
      "v": 127
    },
    {
      "midi": 71,
      "hit": false,
      "t": 125131.47049999975,
      "d": 789.4729999999981,
      "v": 127
    },
    {
      "midi": 51,
      "hit": false,
      "t": 125131.47049999976,
      "d": 394.73649999999907,
      "v": 127
    },
    {
      "midi": 54,
      "hit": false,
      "t": 125131.47049999976,
      "d": 394.73649999999907,
      "v": 127
    },
    {
      "midi": 47,
      "hit": false,
      "t": 125526.20699999976,
      "d": 394.73649999999907,
      "v": 127
    },
    {
      "midi": 71,
      "hit": false,
      "t": 125920.94349999975,
      "d": 197.36824999999953,
      "v": 127
    },
    {
      "midi": 51,
      "hit": false,
      "t": 125920.94349999976,
      "d": 394.73649999999907,
      "v": 127
    },
    {
      "midi": 54,
      "hit": false,
      "t": 125920.94349999976,
      "d": 394.73649999999907,
      "v": 127
    },
    {
      "midi": 74,
      "hit": false,
      "t": 126118.31174999975,
      "d": 197.36824999999953,
      "v": 127
    },
    {
      "midi": 72,
      "hit": false,
      "t": 126315.67999999975,
      "d": 394.73649999999907,
      "v": 127
    },
    {
      "midi": 47,
      "hit": false,
      "t": 126315.67999999976,
      "d": 394.73649999999907,
      "v": 127
    },
    {
      "midi": 72,
      "hit": false,
      "t": 126710.41649999974,
      "d": 789.4729999999981,
      "v": 127
    },
    {
      "midi": 54,
      "hit": false,
      "t": 126710.41649999976,
      "d": 394.73649999999907,
      "v": 127
    },
    {
      "midi": 63,
      "hit": false,
      "t": 126710.41649999976,
      "d": 394.73649999999907,
      "v": 127
    },
    {
      "midi": 47,
      "hit": false,
      "t": 127105.15299999976,
      "d": 394.73649999999907,
      "v": 127
    },
    {
      "midi": 72,
      "hit": false,
      "t": 127499.88949999974,
      "d": 197.36824999999953,
      "v": 127
    },
    {
      "midi": 54,
      "hit": false,
      "t": 127499.88949999976,
      "d": 394.73649999999907,
      "v": 127
    },
    {
      "midi": 63,
      "hit": false,
      "t": 127499.88949999976,
      "d": 394.73649999999907,
      "v": 127
    },
    {
      "midi": 74,
      "hit": false,
      "t": 127697.25774999974,
      "d": 197.36824999999953,
      "v": 127
    },
    {
      "midi": 72,
      "hit": false,
      "t": 127894.62599999974,
      "d": 197.36824999999953,
      "v": 127
    },
    {
      "midi": 47,
      "hit": false,
      "t": 127894.62599999976,
      "d": 394.73649999999907,
      "v": 127
    },
    {
      "midi": 71,
      "hit": false,
      "t": 128091.99424999974,
      "d": 197.36824999999953,
      "v": 127
    },
    {
      "midi": 72,
      "hit": false,
      "t": 128091.99424999974,
      "d": 197.36824999999953,
      "v": 127
    },
    {
      "midi": 71,
      "hit": false,
      "t": 128289.36249999974,
      "d": 197.36824999999953,
      "v": 127
    },
    {
      "midi": 54,
      "hit": false,
      "t": 128289.36249999976,
      "d": 394.73649999999907,
      "v": 127
    },
    {
      "midi": 63,
      "hit": false,
      "t": 128289.36249999976,
      "d": 394.73649999999907,
      "v": 127
    },
    {
      "midi": 69,
      "hit": false,
      "t": 128486.73074999974,
      "d": 197.36824999999953,
      "v": 127
    },
    {
      "midi": 71,
      "hit": false,
      "t": 128486.73074999974,
      "d": 197.36824999999953,
      "v": 127
    },
    {
      "midi": 69,
      "hit": false,
      "t": 128684.09899999974,
      "d": 197.36824999999953,
      "v": 127
    },
    {
      "midi": 47,
      "hit": false,
      "t": 128684.09899999975,
      "d": 394.73649999999907,
      "v": 127
    },
    {
      "midi": 67,
      "hit": false,
      "t": 128881.46724999974,
      "d": 197.36824999999953,
      "v": 127
    },
    {
      "midi": 69,
      "hit": false,
      "t": 128881.46724999974,
      "d": 197.36824999999953,
      "v": 127
    },
    {
      "midi": 67,
      "hit": false,
      "t": 129078.83549999974,
      "d": 197.36824999999953,
      "v": 127
    },
    {
      "midi": 54,
      "hit": false,
      "t": 129078.83549999975,
      "d": 394.73649999999907,
      "v": 127
    },
    {
      "midi": 59,
      "hit": false,
      "t": 129078.83549999975,
      "d": 394.73649999999907,
      "v": 127
    },
    {
      "midi": 63,
      "hit": false,
      "t": 129078.83549999975,
      "d": 394.73649999999907,
      "v": 127
    },
    {
      "midi": 66,
      "hit": false,
      "t": 129276.20374999974,
      "d": 197.36824999999953,
      "v": 127
    },
    {
      "midi": 67,
      "hit": false,
      "t": 129473.57199999974,
      "d": 394.73649999999907,
      "v": 127
    },
    {
      "midi": 47,
      "hit": false,
      "t": 129473.57199999975,
      "d": 394.73649999999907,
      "v": 127
    },
    {
      "midi": 67,
      "hit": false,
      "t": 129868.30849999974,
      "d": 789.4729999999981,
      "v": 127
    },
    {
      "midi": 55,
      "hit": false,
      "t": 129868.30849999975,
      "d": 394.73649999999907,
      "v": 127
    },
    {
      "midi": 59,
      "hit": false,
      "t": 129868.30849999975,
      "d": 394.73649999999907,
      "v": 127
    },
    {
      "midi": 64,
      "hit": false,
      "t": 129868.30849999975,
      "d": 394.73649999999907,
      "v": 127
    },
    {
      "midi": 47,
      "hit": false,
      "t": 130263.04499999975,
      "d": 394.73649999999907,
      "v": 127
    },
    {
      "midi": 67,
      "hit": false,
      "t": 130657.78149999974,
      "d": 197.36824999999953,
      "v": 127
    },
    {
      "midi": 55,
      "hit": false,
      "t": 130657.78149999975,
      "d": 394.73649999999907,
      "v": 127
    },
    {
      "midi": 59,
      "hit": false,
      "t": 130657.78149999975,
      "d": 394.73649999999907,
      "v": 127
    },
    {
      "midi": 64,
      "hit": false,
      "t": 130657.78149999975,
      "d": 394.73649999999907,
      "v": 127
    },
    {
      "midi": 69,
      "hit": false,
      "t": 130855.14974999973,
      "d": 197.36824999999953,
      "v": 127
    },
    {
      "midi": 67,
      "hit": false,
      "t": 131052.51799999973,
      "d": 197.3682500000141,
      "v": 127
    },
    {
      "midi": 47,
      "hit": false,
      "t": 131052.51799999975,
      "d": 394.73649999999907,
      "v": 127
    },
    {
      "midi": 66,
      "hit": false,
      "t": 131249.88624999975,
      "d": 197.36824999999953,
      "v": 127
    },
    {
      "midi": 67,
      "hit": false,
      "t": 131249.88624999975,
      "d": 197.36824999999953,
      "v": 127
    },
    {
      "midi": 55,
      "hit": false,
      "t": 131447.25449999975,
      "d": 394.73649999999907,
      "v": 127
    },
    {
      "midi": 59,
      "hit": false,
      "t": 131447.25449999975,
      "d": 394.73649999999907,
      "v": 127
    },
    {
      "midi": 64,
      "hit": false,
      "t": 131447.25449999975,
      "d": 394.73649999999907,
      "v": 127
    },
    {
      "midi": 64,
      "hit": false,
      "t": 131644.62274999975,
      "d": 197.36824999999953,
      "v": 127
    },
    {
      "midi": 66,
      "hit": false,
      "t": 131644.62274999975,
      "d": 197.36824999999953,
      "v": 127
    },
    {
      "midi": 47,
      "hit": false,
      "t": 131841.99099999975,
      "d": 394.73649999999907,
      "v": 127
    },
    {
      "midi": 62,
      "hit": false,
      "t": 132039.35924999975,
      "d": 197.36824999999953,
      "v": 127
    },
    {
      "midi": 64,
      "hit": false,
      "t": 132039.35924999975,
      "d": 197.36824999999953,
      "v": 127
    },
    {
      "midi": 55,
      "hit": false,
      "t": 132236.72749999975,
      "d": 394.73649999999907,
      "v": 127
    },
    {
      "midi": 59,
      "hit": false,
      "t": 132236.72749999975,
      "d": 394.73649999999907,
      "v": 127
    },
    {
      "midi": 61,
      "hit": false,
      "t": 132434.09574999975,
      "d": 197.36824999999953,
      "v": 127
    },
    {
      "midi": 47,
      "hit": false,
      "t": 132631.46399999975,
      "d": 394.73649999999907,
      "v": 127
    },
    {
      "midi": 61,
      "hit": false,
      "t": 132828.83224999974,
      "d": 789.4729999999981,
      "v": 127
    },
    {
      "midi": 54,
      "hit": false,
      "t": 133026.20049999974,
      "d": 394.73649999999907,
      "v": 127
    },
    {
      "midi": 58,
      "hit": false,
      "t": 133026.20049999974,
      "d": 394.73649999999907,
      "v": 127
    },
    {
      "midi": 47,
      "hit": false,
      "t": 133420.93699999974,
      "d": 394.73649999999907,
      "v": 127
    },
    {
      "midi": 61,
      "hit": false,
      "t": 133618.30524999974,
      "d": 592.1047499999986,
      "v": 127
    },
    {
      "midi": 54,
      "hit": false,
      "t": 133815.67349999974,
      "d": 394.73649999999907,
      "v": 127
    },
    {
      "midi": 58,
      "hit": false,
      "t": 133815.67349999974,
      "d": 394.73649999999907,
      "v": 127
    },
    {
      "midi": 47,
      "hit": false,
      "t": 134210.40999999974,
      "d": 394.73649999999907,
      "v": 127
    },
    {
      "midi": 61,
      "hit": false,
      "t": 134407.77824999974,
      "d": 197.36824999999953,
      "v": 127
    },
    {
      "midi": 54,
      "hit": false,
      "t": 134605.14649999974,
      "d": 394.73649999999907,
      "v": 127
    },
    {
      "midi": 58,
      "hit": false,
      "t": 134605.14649999974,
      "d": 394.73649999999907,
      "v": 127
    },
    {
      "midi": 63,
      "hit": false,
      "t": 134605.14649999974,
      "d": 197.36824999999953,
      "v": 127
    },
    {
      "midi": 61,
      "hit": false,
      "t": 134802.51474999974,
      "d": 197.36824999999953,
      "v": 127
    },
    {
      "midi": 64,
      "hit": false,
      "t": 134802.51474999974,
      "d": 197.36824999999953,
      "v": 127
    },
    {
      "midi": 47,
      "hit": false,
      "t": 134999.88299999974,
      "d": 394.73649999999907,
      "v": 127
    },
    {
      "midi": 63,
      "hit": false,
      "t": 134999.88299999974,
      "d": 197.36824999999953,
      "v": 127
    },
    {
      "midi": 59,
      "hit": false,
      "t": 135197.25124999974,
      "d": 197.36824999999953,
      "v": 127
    },
    {
      "midi": 61,
      "hit": false,
      "t": 135197.25124999974,
      "d": 197.36824999999953,
      "v": 127
    },
    {
      "midi": 54,
      "hit": false,
      "t": 135394.61949999974,
      "d": 394.73649999999907,
      "v": 127
    },
    {
      "midi": 58,
      "hit": false,
      "t": 135394.61949999974,
      "d": 394.73649999999907,
      "v": 127
    },
    {
      "midi": 61,
      "hit": false,
      "t": 135394.61949999974,
      "d": 197.36824999999953,
      "v": 127
    },
    {
      "midi": 63,
      "hit": false,
      "t": 135394.61949999974,
      "d": 197.36824999999953,
      "v": 127
    },
    {
      "midi": 59,
      "hit": false,
      "t": 135591.98774999974,
      "d": 197.36824999999953,
      "v": 127
    },
    {
      "midi": 47,
      "hit": false,
      "t": 135789.35599999974,
      "d": 394.73649999999907,
      "v": 127
    },
    {
      "midi": 59,
      "hit": false,
      "t": 135986.72424999974,
      "d": 789.4729999999981,
      "v": 127
    },
    {
      "midi": 51,
      "hit": false,
      "t": 136184.09249999974,
      "d": 394.73649999999907,
      "v": 127
    },
    {
      "midi": 54,
      "hit": false,
      "t": 136184.09249999974,
      "d": 394.73649999999907,
      "v": 127
    },
    {
      "midi": 47,
      "hit": false,
      "t": 136578.82899999974,
      "d": 394.73649999999907,
      "v": 127
    },
    {
      "midi": 59,
      "hit": false,
      "t": 136776.19724999974,
      "d": 592.1047499999986,
      "v": 127
    },
    {
      "midi": 51,
      "hit": false,
      "t": 136973.56549999974,
      "d": 394.73649999999907,
      "v": 127
    },
    {
      "midi": 54,
      "hit": false,
      "t": 136973.56549999974,
      "d": 394.73649999999907,
      "v": 127
    },
    {
      "midi": 47,
      "hit": false,
      "t": 137368.30199999973,
      "d": 394.73649999999907,
      "v": 127
    },
    {
      "midi": 59,
      "hit": false,
      "t": 137565.67024999973,
      "d": 789.4729999999981,
      "v": 127
    },
    {
      "midi": 51,
      "hit": false,
      "t": 137763.03849999973,
      "d": 394.73649999999907,
      "v": 127
    },
    {
      "midi": 54,
      "hit": false,
      "t": 137763.03849999973,
      "d": 394.73649999999907,
      "v": 127
    },
    {
      "midi": 47,
      "hit": false,
      "t": 138157.77499999973,
      "d": 394.73649999999907,
      "v": 127
    },
    {
      "midi": 59,
      "hit": false,
      "t": 138420.9326666664,
      "d": 131.57883333333302,
      "v": 127
    },
    {
      "midi": 63,
      "hit": false,
      "t": 138420.9326666664,
      "d": 131.57883333333302,
      "v": 127
    },
    {
      "midi": 66,
      "hit": false,
      "t": 138420.9326666664,
      "d": 131.57883333333302,
      "v": 127
    },
    {
      "midi": 51,
      "hit": false,
      "t": 138552.51149999973,
      "d": 394.73649999999907,
      "v": 127
    },
    {
      "midi": 54,
      "hit": false,
      "t": 138552.51149999973,
      "d": 394.73649999999907,
      "v": 127
    },
    {
      "midi": 59,
      "hit": false,
      "t": 138815.6691666664,
      "d": 131.57883333333302,
      "v": 127
    },
    {
      "midi": 61,
      "hit": false,
      "t": 138815.6691666664,
      "d": 131.57883333333302,
      "v": 127
    },
    {
      "midi": 68,
      "hit": false,
      "t": 138815.6691666664,
      "d": 131.57883333333302,
      "v": 127
    },
    {
      "midi": 40,
      "hit": false,
      "t": 138947.24799999973,
      "d": 394.73649999999907,
      "v": 127
    },
    {
      "midi": 59,
      "hit": false,
      "t": 139210.4056666664,
      "d": 526.3153333333321,
      "v": 127
    },
    {
      "midi": 61,
      "hit": false,
      "t": 139210.4056666664,
      "d": 526.3153333333321,
      "v": 127
    },
    {
      "midi": 68,
      "hit": false,
      "t": 139210.4056666664,
      "d": 526.3153333333321,
      "v": 127
    },
    {
      "midi": 52,
      "hit": false,
      "t": 139341.98449999973,
      "d": 394.73649999999907,
      "v": 127
    },
    {
      "midi": 40,
      "hit": false,
      "t": 139736.72099999973,
      "d": 394.73649999999907,
      "v": 127
    },
    {
      "midi": 59,
      "hit": false,
      "t": 139999.8786666664,
      "d": 526.3153333333321,
      "v": 127
    },
    {
      "midi": 61,
      "hit": false,
      "t": 139999.8786666664,
      "d": 526.3153333333321,
      "v": 127
    },
    {
      "midi": 68,
      "hit": false,
      "t": 139999.8786666664,
      "d": 526.3153333333321,
      "v": 127
    },
    {
      "midi": 52,
      "hit": false,
      "t": 140131.45749999973,
      "d": 394.73649999999907,
      "v": 127
    },
    {
      "midi": 40,
      "hit": false,
      "t": 140526.19399999973,
      "d": 394.73649999999907,
      "v": 127
    },
    {
      "midi": 59,
      "hit": false,
      "t": 140789.3516666664,
      "d": 131.57883333333302,
      "v": 127
    },
    {
      "midi": 61,
      "hit": false,
      "t": 140789.3516666664,
      "d": 131.57883333333302,
      "v": 127
    },
    {
      "midi": 68,
      "hit": false,
      "t": 140789.3516666664,
      "d": 131.57883333333302,
      "v": 127
    },
    {
      "midi": 52,
      "hit": false,
      "t": 140920.93049999973,
      "d": 394.73649999999907,
      "v": 127
    },
    {
      "midi": 58,
      "hit": false,
      "t": 141184.0881666664,
      "d": 131.57883333333302,
      "v": 127
    },
    {
      "midi": 61,
      "hit": false,
      "t": 141184.0881666664,
      "d": 131.57883333333302,
      "v": 127
    },
    {
      "midi": 68,
      "hit": false,
      "t": 141184.0881666664,
      "d": 131.57883333333302,
      "v": 127
    },
    {
      "midi": 42,
      "hit": false,
      "t": 141315.66699999972,
      "d": 394.73649999999907,
      "v": 127
    },
    {
      "midi": 66,
      "hit": false,
      "t": 141315.66699999972,
      "d": 197.36824999999953,
      "v": 127
    },
    {
      "midi": 66,
      "hit": false,
      "t": 141513.03524999972,
      "d": 197.36824999999953,
      "v": 127
    },
    {
      "midi": 54,
      "hit": false,
      "t": 141710.40349999972,
      "d": 394.73649999999907,
      "v": 127
    },
    {
      "midi": 64,
      "hit": false,
      "t": 141710.40349999972,
      "d": 197.36824999999953,
      "v": 127
    },
    {
      "midi": 59,
      "hit": false,
      "t": 141907.77174999972,
      "d": 197.36824999999953,
      "v": 127
    },
    {
      "midi": 63,
      "hit": false,
      "t": 141907.77174999972,
      "d": 197.36824999999953,
      "v": 127
    },
    {
      "midi": 47,
      "hit": false,
      "t": 142105.13999999972,
      "d": 394.73649999999907,
      "v": 127
    },
    {
      "midi": 59,
      "hit": false,
      "t": 142368.2976666664,
      "d": 526.3153333333321,
      "v": 127
    },
    {
      "midi": 63,
      "hit": false,
      "t": 142368.2976666664,
      "d": 526.3153333333321,
      "v": 127
    },
    {
      "midi": 54,
      "hit": false,
      "t": 142499.87649999972,
      "d": 394.73649999999907,
      "v": 127
    },
    {
      "midi": 47,
      "hit": false,
      "t": 142894.61299999972,
      "d": 394.73649999999907,
      "v": 127
    },
    {
      "midi": 59,
      "hit": false,
      "t": 143157.7706666664,
      "d": 526.3153333333321,
      "v": 127
    },
    {
      "midi": 63,
      "hit": false,
      "t": 143157.7706666664,
      "d": 526.3153333333321,
      "v": 127
    },
    {
      "midi": 54,
      "hit": false,
      "t": 143289.34949999972,
      "d": 394.73649999999907,
      "v": 127
    },
    {
      "midi": 47,
      "hit": false,
      "t": 143684.08599999972,
      "d": 394.73649999999907,
      "v": 127
    },
    {
      "midi": 59,
      "hit": false,
      "t": 143947.24366666639,
      "d": 131.57883333333302,
      "v": 127
    },
    {
      "midi": 63,
      "hit": false,
      "t": 143947.24366666639,
      "d": 131.57883333333302,
      "v": 127
    },
    {
      "midi": 66,
      "hit": false,
      "t": 143947.24366666639,
      "d": 131.57883333333302,
      "v": 127
    },
    {
      "midi": 54,
      "hit": false,
      "t": 144078.82249999972,
      "d": 394.73649999999907,
      "v": 127
    },
    {
      "midi": 59,
      "hit": false,
      "t": 144341.98016666638,
      "d": 131.57883333333302,
      "v": 127
    },
    {
      "midi": 63,
      "hit": false,
      "t": 144341.98016666638,
      "d": 131.57883333333302,
      "v": 127
    },
    {
      "midi": 71,
      "hit": false,
      "t": 144341.98016666638,
      "d": 131.57883333333302,
      "v": 127
    },
    {
      "midi": 47,
      "hit": false,
      "t": 144473.55899999972,
      "d": 394.73649999999907,
      "v": 127
    },
    {
      "midi": 59,
      "hit": false,
      "t": 144736.71666666638,
      "d": 131.57883333333302,
      "v": 127
    },
    {
      "midi": 63,
      "hit": false,
      "t": 144736.71666666638,
      "d": 131.57883333333302,
      "v": 127
    },
    {
      "midi": 66,
      "hit": false,
      "t": 144736.71666666638,
      "d": 131.57883333333302,
      "v": 127
    },
    {
      "midi": 54,
      "hit": false,
      "t": 144868.29549999972,
      "d": 394.73649999999907,
      "v": 127
    },
    {
      "midi": 59,
      "hit": false,
      "t": 145131.45316666638,
      "d": 131.57883333333302,
      "v": 127
    },
    {
      "midi": 61,
      "hit": false,
      "t": 145131.45316666638,
      "d": 131.57883333333302,
      "v": 127
    },
    {
      "midi": 68,
      "hit": false,
      "t": 145131.45316666638,
      "d": 131.57883333333302,
      "v": 127
    },
    {
      "midi": 40,
      "hit": false,
      "t": 145263.03199999972,
      "d": 394.73649999999907,
      "v": 127
    },
    {
      "midi": 59,
      "hit": false,
      "t": 145526.18966666638,
      "d": 526.3153333333321,
      "v": 127
    },
    {
      "midi": 61,
      "hit": false,
      "t": 145526.18966666638,
      "d": 526.3153333333321,
      "v": 127
    },
    {
      "midi": 68,
      "hit": false,
      "t": 145526.18966666638,
      "d": 526.3153333333321,
      "v": 127
    },
    {
      "midi": 52,
      "hit": false,
      "t": 145657.7684999997,
      "d": 394.73649999999907,
      "v": 127
    },
    {
      "midi": 40,
      "hit": false,
      "t": 146052.5049999997,
      "d": 394.73649999999907,
      "v": 127
    },
    {
      "midi": 59,
      "hit": false,
      "t": 146315.66266666638,
      "d": 526.3153333333321,
      "v": 127
    },
    {
      "midi": 61,
      "hit": false,
      "t": 146315.66266666638,
      "d": 526.3153333333321,
      "v": 127
    },
    {
      "midi": 68,
      "hit": false,
      "t": 146315.66266666638,
      "d": 526.3153333333321,
      "v": 127
    },
    {
      "midi": 52,
      "hit": false,
      "t": 146447.2414999997,
      "d": 394.73649999999907,
      "v": 127
    },
    {
      "midi": 40,
      "hit": false,
      "t": 146841.9779999997,
      "d": 394.73649999999907,
      "v": 127
    },
    {
      "midi": 61,
      "hit": false,
      "t": 147105.13566666638,
      "d": 131.57883333333302,
      "v": 127
    },
    {
      "midi": 68,
      "hit": false,
      "t": 147105.13566666638,
      "d": 131.57883333333302,
      "v": 127
    },
    {
      "midi": 71,
      "hit": false,
      "t": 147105.13566666638,
      "d": 131.57883333333302,
      "v": 127
    },
    {
      "midi": 52,
      "hit": false,
      "t": 147236.7144999997,
      "d": 394.73649999999907,
      "v": 127
    },
    {
      "midi": 61,
      "hit": false,
      "t": 147499.87216666638,
      "d": 131.57883333333302,
      "v": 127
    },
    {
      "midi": 68,
      "hit": false,
      "t": 147499.87216666638,
      "d": 131.57883333333302,
      "v": 127
    },
    {
      "midi": 71,
      "hit": false,
      "t": 147499.87216666638,
      "d": 131.57883333333302,
      "v": 127
    },
    {
      "midi": 42,
      "hit": false,
      "t": 147631.4509999997,
      "d": 394.73649999999907,
      "v": 127
    },
    {
      "midi": 66,
      "hit": false,
      "t": 147631.4509999997,
      "d": 197.36824999999953,
      "v": 127
    },
    {
      "midi": 70,
      "hit": false,
      "t": 147631.4509999997,
      "d": 197.36824999999953,
      "v": 127
    },
    {
      "midi": 70,
      "hit": false,
      "t": 147828.8192499997,
      "d": 197.36824999999953,
      "v": 127
    },
    {
      "midi": 54,
      "hit": false,
      "t": 148026.1874999997,
      "d": 394.73649999999907,
      "v": 127
    },
    {
      "midi": 73,
      "hit": false,
      "t": 148026.1874999997,
      "d": 197.36824999999953,
      "v": 127
    },
    {
      "midi": 63,
      "hit": false,
      "t": 148223.5557499997,
      "d": 197.36824999999953,
      "v": 127
    },
    {
      "midi": 66,
      "hit": false,
      "t": 148223.5557499997,
      "d": 197.36824999999953,
      "v": 127
    },
    {
      "midi": 71,
      "hit": false,
      "t": 148223.5557499997,
      "d": 197.36824999999953,
      "v": 127
    },
    {
      "midi": 35,
      "hit": false,
      "t": 148420.9239999997,
      "d": 394.73649999999907,
      "v": 127
    },
    {
      "midi": 63,
      "hit": false,
      "t": 148684.08166666637,
      "d": 526.3153333333321,
      "v": 127
    },
    {
      "midi": 66,
      "hit": false,
      "t": 148684.08166666637,
      "d": 526.3153333333321,
      "v": 127
    },
    {
      "midi": 71,
      "hit": false,
      "t": 148684.08166666637,
      "d": 526.3153333333321,
      "v": 127
    },
    {
      "midi": 47,
      "hit": false,
      "t": 148815.6604999997,
      "d": 394.73649999999907,
      "v": 127
    },
    {
      "midi": 35,
      "hit": false,
      "t": 149210.3969999997,
      "d": 394.73649999999907,
      "v": 127
    },
    {
      "midi": 63,
      "hit": false,
      "t": 149473.55466666637,
      "d": 526.3153333333321,
      "v": 127
    },
    {
      "midi": 66,
      "hit": false,
      "t": 149473.55466666637,
      "d": 526.3153333333321,
      "v": 127
    },
    {
      "midi": 71,
      "hit": false,
      "t": 149473.55466666637,
      "d": 526.3153333333321,
      "v": 127
    },
    {
      "midi": 47,
      "hit": false,
      "t": 149605.1334999997,
      "d": 394.73649999999907,
      "v": 127
    },
    {
      "midi": 35,
      "hit": false,
      "t": 149999.8699999997,
      "d": 394.73649999999907,
      "v": 127
    },
    {
      "midi": 63,
      "hit": false,
      "t": 150263.02766666637,
      "d": 131.57883333333302,
      "v": 127
    },
    {
      "midi": 66,
      "hit": false,
      "t": 150263.02766666637,
      "d": 131.57883333333302,
      "v": 127
    },
    {
      "midi": 71,
      "hit": false,
      "t": 150263.02766666637,
      "d": 131.57883333333302,
      "v": 127
    },
    {
      "midi": 47,
      "hit": false,
      "t": 150394.6064999997,
      "d": 394.73649999999907,
      "v": 127
    },
    {
      "midi": 61,
      "hit": false,
      "t": 150657.76416666637,
      "d": 131.57883333333302,
      "v": 127
    },
    {
      "midi": 64,
      "hit": false,
      "t": 150657.76416666637,
      "d": 131.57883333333302,
      "v": 127
    },
    {
      "midi": 71,
      "hit": false,
      "t": 150657.76416666637,
      "d": 131.57883333333302,
      "v": 127
    },
    {
      "midi": 35,
      "hit": false,
      "t": 150789.3429999997,
      "d": 394.73649999999907,
      "v": 127
    },
    {
      "midi": 61,
      "hit": false,
      "t": 151052.50066666637,
      "d": 131.57883333333302,
      "v": 127
    },
    {
      "midi": 64,
      "hit": false,
      "t": 151052.50066666637,
      "d": 131.57883333333302,
      "v": 127
    },
    {
      "midi": 71,
      "hit": false,
      "t": 151052.50066666637,
      "d": 131.57883333333302,
      "v": 127
    },
    {
      "midi": 47,
      "hit": false,
      "t": 151184.0794999997,
      "d": 394.73649999999907,
      "v": 127
    },
    {
      "midi": 59,
      "hit": false,
      "t": 151447.23716666637,
      "d": 131.57883333333302,
      "v": 127
    },
    {
      "midi": 63,
      "hit": false,
      "t": 151447.23716666637,
      "d": 131.57883333333302,
      "v": 127
    },
    {
      "midi": 66,
      "hit": false,
      "t": 151447.23716666637,
      "d": 131.57883333333302,
      "v": 127
    },
    {
      "midi": 35,
      "hit": false,
      "t": 151578.8159999997,
      "d": 394.73649999999907,
      "v": 127
    },
    {
      "midi": 59,
      "hit": false,
      "t": 151841.97366666637,
      "d": 526.3153333333321,
      "v": 127
    },
    {
      "midi": 63,
      "hit": false,
      "t": 151841.97366666637,
      "d": 526.3153333333321,
      "v": 127
    },
    {
      "midi": 66,
      "hit": false,
      "t": 151841.97366666637,
      "d": 526.3153333333321,
      "v": 127
    },
    {
      "midi": 47,
      "hit": false,
      "t": 151973.5524999997,
      "d": 394.73649999999907,
      "v": 127
    },
    {
      "midi": 35,
      "hit": false,
      "t": 152368.2889999997,
      "d": 394.73649999999907,
      "v": 127
    },
    {
      "midi": 59,
      "hit": false,
      "t": 152631.44666666636,
      "d": 526.3153333333321,
      "v": 127
    },
    {
      "midi": 63,
      "hit": false,
      "t": 152631.44666666636,
      "d": 526.3153333333321,
      "v": 127
    },
    {
      "midi": 66,
      "hit": false,
      "t": 152631.44666666636,
      "d": 526.3153333333321,
      "v": 127
    },
    {
      "midi": 47,
      "hit": false,
      "t": 152763.0254999997,
      "d": 394.73649999999907,
      "v": 127
    },
    {
      "midi": 35,
      "hit": false,
      "t": 153157.7619999997,
      "d": 394.73649999999907,
      "v": 127
    },
    {
      "midi": 59,
      "hit": false,
      "t": 153420.91966666636,
      "d": 131.57883333333302,
      "v": 127
    },
    {
      "midi": 63,
      "hit": false,
      "t": 153420.91966666636,
      "d": 131.57883333333302,
      "v": 127
    },
    {
      "midi": 66,
      "hit": false,
      "t": 153420.91966666636,
      "d": 131.57883333333302,
      "v": 127
    },
    {
      "midi": 47,
      "hit": false,
      "t": 153552.4984999997,
      "d": 394.73649999999907,
      "v": 127
    },
    {
      "midi": 58,
      "hit": false,
      "t": 153815.65616666636,
      "d": 131.57883333333302,
      "v": 127
    },
    {
      "midi": 61,
      "hit": false,
      "t": 153815.65616666636,
      "d": 131.57883333333302,
      "v": 127
    },
    {
      "midi": 66,
      "hit": false,
      "t": 153815.65616666636,
      "d": 131.57883333333302,
      "v": 127
    },
    {
      "midi": 35,
      "hit": false,
      "t": 153947.2349999997,
      "d": 394.73649999999907,
      "v": 127
    },
    {
      "midi": 58,
      "hit": false,
      "t": 154210.39266666636,
      "d": 131.57883333333302,
      "v": 127
    },
    {
      "midi": 61,
      "hit": false,
      "t": 154210.39266666636,
      "d": 131.57883333333302,
      "v": 127
    },
    {
      "midi": 66,
      "hit": false,
      "t": 154210.39266666636,
      "d": 131.57883333333302,
      "v": 127
    },
    {
      "midi": 47,
      "hit": false,
      "t": 154341.9714999997,
      "d": 394.73649999999907,
      "v": 127
    },
    {
      "midi": 54,
      "hit": false,
      "t": 154605.12916666636,
      "d": 131.57883333333302,
      "v": 127
    },
    {
      "midi": 59,
      "hit": false,
      "t": 154605.12916666636,
      "d": 131.57883333333302,
      "v": 127
    },
    {
      "midi": 63,
      "hit": false,
      "t": 154605.12916666636,
      "d": 131.57883333333302,
      "v": 127
    },
    {
      "midi": 35,
      "hit": false,
      "t": 154736.7079999997,
      "d": 394.73649999999907,
      "v": 127
    },
    {
      "midi": 54,
      "hit": false,
      "t": 154999.86566666636,
      "d": 526.3153333333321,
      "v": 127
    },
    {
      "midi": 59,
      "hit": false,
      "t": 154999.86566666636,
      "d": 526.3153333333321,
      "v": 127
    },
    {
      "midi": 63,
      "hit": false,
      "t": 154999.86566666636,
      "d": 526.3153333333321,
      "v": 127
    },
    {
      "midi": 47,
      "hit": false,
      "t": 155131.4444999997,
      "d": 394.73649999999907,
      "v": 127
    },
    {
      "midi": 35,
      "hit": false,
      "t": 155526.1809999997,
      "d": 394.73649999999907,
      "v": 127
    },
    {
      "midi": 54,
      "hit": false,
      "t": 155789.33866666636,
      "d": 526.3153333333321,
      "v": 127
    },
    {
      "midi": 59,
      "hit": false,
      "t": 155789.33866666636,
      "d": 526.3153333333321,
      "v": 127
    },
    {
      "midi": 63,
      "hit": false,
      "t": 155789.33866666636,
      "d": 526.3153333333321,
      "v": 127
    },
    {
      "midi": 47,
      "hit": false,
      "t": 155920.9174999997,
      "d": 394.73649999999907,
      "v": 127
    },
    {
      "midi": 35,
      "hit": false,
      "t": 156315.6539999997,
      "d": 394.73649999999907,
      "v": 127
    },
    {
      "midi": 54,
      "hit": false,
      "t": 156578.81166666636,
      "d": 131.57883333333302,
      "v": 127
    },
    {
      "midi": 59,
      "hit": false,
      "t": 156578.81166666636,
      "d": 131.57883333333302,
      "v": 127
    },
    {
      "midi": 63,
      "hit": false,
      "t": 156578.81166666636,
      "d": 131.57883333333302,
      "v": 127
    },
    {
      "midi": 47,
      "hit": false,
      "t": 156710.3904999997,
      "d": 394.73649999999907,
      "v": 127
    },
    {
      "midi": 54,
      "hit": false,
      "t": 156973.54816666635,
      "d": 131.57883333333302,
      "v": 127
    },
    {
      "midi": 58,
      "hit": false,
      "t": 156973.54816666635,
      "d": 131.57883333333302,
      "v": 127
    },
    {
      "midi": 61,
      "hit": false,
      "t": 156973.54816666635,
      "d": 131.57883333333302,
      "v": 127
    },
    {
      "midi": 35,
      "hit": false,
      "t": 157105.1269999997,
      "d": 394.73649999999907,
      "v": 127
    },
    {
      "midi": 54,
      "hit": false,
      "t": 157368.28466666635,
      "d": 131.57883333333302,
      "v": 127
    },
    {
      "midi": 58,
      "hit": false,
      "t": 157368.28466666635,
      "d": 131.57883333333302,
      "v": 127
    },
    {
      "midi": 61,
      "hit": false,
      "t": 157368.28466666635,
      "d": 131.57883333333302,
      "v": 127
    },
    {
      "midi": 47,
      "hit": false,
      "t": 157499.8634999997,
      "d": 394.73649999999907,
      "v": 127
    },
    {
      "midi": 51,
      "hit": false,
      "t": 157763.02116666635,
      "d": 131.57883333333302,
      "v": 127
    },
    {
      "midi": 54,
      "hit": false,
      "t": 157763.02116666635,
      "d": 131.57883333333302,
      "v": 127
    },
    {
      "midi": 59,
      "hit": false,
      "t": 157763.02116666635,
      "d": 131.57883333333302,
      "v": 127
    },
    {
      "midi": 35,
      "hit": false,
      "t": 157894.5999999997,
      "d": 394.73649999999907,
      "v": 127
    },
    {
      "midi": 51,
      "hit": false,
      "t": 158157.75766666635,
      "d": 526.3153333333321,
      "v": 127
    },
    {
      "midi": 54,
      "hit": false,
      "t": 158157.75766666635,
      "d": 526.3153333333321,
      "v": 127
    },
    {
      "midi": 59,
      "hit": false,
      "t": 158157.75766666635,
      "d": 526.3153333333321,
      "v": 127
    },
    {
      "midi": 47,
      "hit": false,
      "t": 158289.33649999968,
      "d": 394.73649999999907,
      "v": 127
    },
    {
      "midi": 35,
      "hit": false,
      "t": 158684.07299999968,
      "d": 394.73649999999907,
      "v": 127
    },
    {
      "midi": 51,
      "hit": false,
      "t": 158947.23066666635,
      "d": 526.3153333333321,
      "v": 127
    },
    {
      "midi": 54,
      "hit": false,
      "t": 158947.23066666635,
      "d": 526.3153333333321,
      "v": 127
    },
    {
      "midi": 59,
      "hit": false,
      "t": 158947.23066666635,
      "d": 526.3153333333321,
      "v": 127
    },
    {
      "midi": 47,
      "hit": false,
      "t": 159078.80949999968,
      "d": 394.73649999999907,
      "v": 127
    },
    {
      "midi": 35,
      "hit": false,
      "t": 159473.54599999968,
      "d": 394.73649999999907,
      "v": 127
    },
    {
      "midi": 51,
      "hit": false,
      "t": 159736.70366666635,
      "d": 526.3153333333321,
      "v": 127
    },
    {
      "midi": 54,
      "hit": false,
      "t": 159736.70366666635,
      "d": 526.3153333333321,
      "v": 127
    },
    {
      "midi": 59,
      "hit": false,
      "t": 159736.70366666635,
      "d": 526.3153333333321,
      "v": 127
    },
    {
      "midi": 47,
      "hit": false,
      "t": 159868.28249999968,
      "d": 394.73649999999907,
      "v": 127
    },
    {
      "midi": 35,
      "hit": false,
      "t": 160263.01899999968,
      "d": 394.73649999999907,
      "v": 127
    },
    {
      "midi": 51,
      "hit": false,
      "t": 160526.17666666635,
      "d": 131.57883333333302,
      "v": 127
    },
    {
      "midi": 54,
      "hit": false,
      "t": 160526.17666666635,
      "d": 131.57883333333302,
      "v": 127
    },
    {
      "midi": 59,
      "hit": false,
      "t": 160526.17666666635,
      "d": 131.57883333333302,
      "v": 127
    },
    {
      "midi": 47,
      "hit": false,
      "t": 160657.75549999968,
      "d": 394.73649999999907,
      "v": 127
    },
    {
      "midi": 51,
      "hit": false,
      "t": 160920.91316666635,
      "d": 131.57883333333302,
      "v": 127
    },
    {
      "midi": 54,
      "hit": false,
      "t": 160920.91316666635,
      "d": 131.57883333333302,
      "v": 127
    },
    {
      "midi": 59,
      "hit": false,
      "t": 160920.91316666635,
      "d": 131.57883333333302,
      "v": 127
    },
    {
      "midi": 35,
      "hit": false,
      "t": 161052.49199999968,
      "d": 1578.9459999999963,
      "v": 127
    },
    {
      "midi": 42,
      "hit": false,
      "t": 161052.49199999968,
      "d": 1578.9459999999963,
      "v": 127
    },
    {
      "midi": 47,
      "hit": false,
      "t": 161052.49199999968,
      "d": 1578.9459999999963,
      "v": 127
    }
  ]
}