{
  "jsonPath": "Classical/Classical/Franz Schubert/wiegenlied-d498-op-98-no-2.json",
  "path": "Classical\\Classical\\Franz Schubert\\Wiegenlied D498 (Op 98, No 2).mid",
  "name": "Wiegenlied D498 (Op 98, No 2)",
  "difficulty": "Advanced",
  "bpm": 60,
  "notes": [
    {
      "midi": 68,
      "hit": false,
      "t": 0,
      "d": 500,
      "v": 127
    },
    {
      "midi": 72,
      "hit": false,
      "t": 0,
      "d": 500,
      "v": 127
    },
    {
      "midi": 44,
      "hit": false,
      "t": 0,
      "d": 2000,
      "v": 127
    },
    {
      "midi": 56,
      "hit": false,
      "t": 0,
      "d": 2000,
      "v": 127
    },
    {
      "midi": 63,
      "hit": false,
      "t": 500,
      "d": 500,
      "v": 127
    },
    {
      "midi": 68,
      "hit": false,
      "t": 1000,
      "d": 500,
      "v": 127
    },
    {
      "midi": 72,
      "hit": false,
      "t": 1000,
      "d": 500,
      "v": 127
    },
    {
      "midi": 63,
      "hit": false,
      "t": 1500,
      "d": 500,
      "v": 127
    },
    {
      "midi": 67,
      "hit": false,
      "t": 2000,
      "d": 500,
      "v": 127
    },
    {
      "midi": 73,
      "hit": false,
      "t": 2000,
      "d": 500,
      "v": 127
    },
    {
      "midi": 39,
      "hit": false,
      "t": 2000,
      "d": 2000,
      "v": 127
    },
    {
      "midi": 51,
      "hit": false,
      "t": 2000,
      "d": 2000,
      "v": 127
    },
    {
      "midi": 63,
      "hit": false,
      "t": 2500,
      "d": 500,
      "v": 127
    },
    {
      "midi": 67,
      "hit": false,
      "t": 3000,
      "d": 500,
      "v": 127
    },
    {
      "midi": 70,
      "hit": false,
      "t": 3000,
      "d": 500,
      "v": 127
    },
    {
      "midi": 63,
      "hit": false,
      "t": 3500,
      "d": 500,
      "v": 127
    },
    {
      "midi": 68,
      "hit": false,
      "t": 4000,
      "d": 500,
      "v": 127
    },
    {
      "midi": 72,
      "hit": false,
      "t": 4000,
      "d": 500,
      "v": 127
    },
    {
      "midi": 44,
      "hit": false,
      "t": 4000,
      "d": 2000,
      "v": 127
    },
    {
      "midi": 56,
      "hit": false,
      "t": 4000,
      "d": 2000,
      "v": 127
    },
    {
      "midi": 63,
      "hit": false,
      "t": 4500,
      "d": 500,
      "v": 127
    },
    {
      "midi": 68,
      "hit": false,
      "t": 5000,
      "d": 500,
      "v": 127
    },
    {
      "midi": 72,
      "hit": false,
      "t": 5000,
      "d": 500,
      "v": 127
    },
    {
      "midi": 63,
      "hit": false,
      "t": 5500,
      "d": 500,
      "v": 127
    },
    {
      "midi": 67,
      "hit": false,
      "t": 6000,
      "d": 500,
      "v": 127
    },
    {
      "midi": 73,
      "hit": false,
      "t": 6000,
      "d": 500,
      "v": 127
    },
    {
      "midi": 39,
      "hit": false,
      "t": 6000,
      "d": 2000,
      "v": 127
    },
    {
      "midi": 51,
      "hit": false,
      "t": 6000,
      "d": 2000,
      "v": 127
    },
    {
      "midi": 63,
      "hit": false,
      "t": 6500,
      "d": 500,
      "v": 127
    },
    {
      "midi": 67,
      "hit": false,
      "t": 7000,
      "d": 500,
      "v": 127
    },
    {
      "midi": 73,
      "hit": false,
      "t": 7000,
      "d": 500,
      "v": 127
    },
    {
      "midi": 63,
      "hit": false,
      "t": 7500,
      "d": 500,
      "v": 127
    },
    {
      "midi": 68,
      "hit": false,
      "t": 8000,
      "d": 500,
      "v": 127
    },
    {
      "midi": 72,
      "hit": false,
      "t": 8000,
      "d": 500,
      "v": 127
    },
    {
      "midi": 44,
      "hit": false,
      "t": 8000,
      "d": 2000,
      "v": 127
    },
    {
      "midi": 56,
      "hit": false,
      "t": 8000,
      "d": 2000,
      "v": 127
    },
    {
      "midi": 63,
      "hit": false,
      "t": 8500,
      "d": 500,
      "v": 127
    },
    {
      "midi": 68,
      "hit": false,
      "t": 9000,
      "d": 500,
      "v": 127
    },
    {
      "midi": 72,
      "hit": false,
      "t": 9000,
      "d": 500,
      "v": 127
    },
    {
      "midi": 63,
      "hit": false,
      "t": 9500,
      "d": 500,
      "v": 127
    },
    {
      "midi": 67,
      "hit": false,
      "t": 10000,
      "d": 500,
      "v": 127
    },
    {
      "midi": 73,
      "hit": false,
      "t": 10000,
      "d": 500,
      "v": 127
    },
    {
      "midi": 39,
      "hit": false,
      "t": 10000,
      "d": 2000,
      "v": 127
    },
    {
      "midi": 51,
      "hit": false,
      "t": 10000,
      "d": 2000,
      "v": 127
    },
    {
      "midi": 63,
      "hit": false,
      "t": 10500,
      "d": 500,
      "v": 127
    },
    {
      "midi": 67,
      "hit": false,
      "t": 11000,
      "d": 500,
      "v": 127
    },
    {
      "midi": 70,
      "hit": false,
      "t": 11000,
      "d": 500,
      "v": 127
    },
    {
      "midi": 63,
      "hit": false,
      "t": 11500,
      "d": 500,
      "v": 127
    },
    {
      "midi": 68,
      "hit": false,
      "t": 12000,
      "d": 500,
      "v": 127
    },
    {
      "midi": 72,
      "hit": false,
      "t": 12000,
      "d": 500,
      "v": 127
    },
    {
      "midi": 44,
      "hit": false,
      "t": 12000,
      "d": 1000,
      "v": 127
    },
    {
      "midi": 56,
      "hit": false,
      "t": 12000,
      "d": 1000,
      "v": 127
    },
    {
      "midi": 63,
      "hit": false,
      "t": 12500,
      "d": 500,
      "v": 127
    },
    {
      "midi": 70,
      "hit": false,
      "t": 13000,
      "d": 500,
      "v": 127
    },
    {
      "midi": 51,
      "hit": false,
      "t": 13000,
      "d": 1000,
      "v": 127
    },
    {
      "midi": 63,
      "hit": false,
      "t": 13500,
      "d": 500,
      "v": 127
    },
    {
      "midi": 60,
      "hit": false,
      "t": 14000,
      "d": 500,
      "v": 127
    },
    {
      "midi": 68,
      "hit": false,
      "t": 14000,
      "d": 500,
      "v": 127
    },
    {
      "midi": 44,
      "hit": false,
      "t": 14000,
      "d": 2000,
      "v": 127
    },
    {
      "midi": 63,
      "hit": false,
      "t": 14500,
      "d": 500,
      "v": 127
    },
    {
      "midi": 60,
      "hit": false,
      "t": 15000,
      "d": 1000,
      "v": 127
    },
    {
      "midi": 68,
      "hit": false,
      "t": 15000,
      "d": 1000,
      "v": 127
    },
    {
      "midi": 63,
      "hit": false,
      "t": 16000,
      "d": 1000,
      "v": 127
    },
    {
      "midi": 67,
      "hit": false,
      "t": 16000,
      "d": 1000,
      "v": 127
    },
    {
      "midi": 70,
      "hit": false,
      "t": 16000,
      "d": 1000,
      "v": 127
    },
    {
      "midi": 51,
      "hit": false,
      "t": 16000,
      "d": 1000,
      "v": 127
    },
    {
      "midi": 63,
      "hit": false,
      "t": 17000,
      "d": 500,
      "v": 127
    },
    {
      "midi": 67,
      "hit": false,
      "t": 17000,
      "d": 500,
      "v": 127
    },
    {
      "midi": 70,
      "hit": false,
      "t": 17000,
      "d": 500,
      "v": 127
    },
    {
      "midi": 51,
      "hit": false,
      "t": 17000,
      "d": 500,
      "v": 127
    },
    {
      "midi": 63,
      "hit": false,
      "t": 17500,
      "d": 500,
      "v": 127
    },
    {
      "midi": 67,
      "hit": false,
      "t": 17500,
      "d": 500,
      "v": 127
    },
    {
      "midi": 70,
      "hit": false,
      "t": 17500,
      "d": 500,
      "v": 127
    },
    {
      "midi": 51,
      "hit": false,
      "t": 17500,
      "d": 500,
      "v": 127
    },
    {
      "midi": 72,
      "hit": false,
      "t": 18000,
      "d": 750,
      "v": 127
    },
    {
      "midi": 56,
      "hit": false,
      "t": 18000,
      "d": 750,
      "v": 127
    },
    {
      "midi": 67,
      "hit": false,
      "t": 18750,
      "d": 250,
      "v": 127
    },
    {
      "midi": 70,
      "hit": false,
      "t": 18750,
      "d": 250,
      "v": 127
    },
    {
      "midi": 51,
      "hit": false,
      "t": 18750,
      "d": 250,
      "v": 127
    },
    {
      "midi": 68,
      "hit": false,
      "t": 19000,
      "d": 1000,
      "v": 127
    },
    {
      "midi": 48,
      "hit": false,
      "t": 19000,
      "d": 1000,
      "v": 127
    },
    {
      "midi": 75,
      "hit": false,
      "t": 20000,
      "d": 1000,
      "v": 127
    },
    {
      "midi": 60,
      "hit": false,
      "t": 20000,
      "d": 1000,
      "v": 127
    },
    {
      "midi": 67,
      "hit": false,
      "t": 21000,
      "d": 500,
      "v": 127
    },
    {
      "midi": 73,
      "hit": false,
      "t": 21000,
      "d": 500,
      "v": 127
    },
    {
      "midi": 58,
      "hit": false,
      "t": 21000,
      "d": 500,
      "v": 127
    },
    {
      "midi": 68,
      "hit": false,
      "t": 21500,
      "d": 500,
      "v": 127
    },
    {
      "midi": 72,
      "hit": false,
      "t": 21500,
      "d": 500,
      "v": 127
    },
    {
      "midi": 56,
      "hit": false,
      "t": 21500,
      "d": 500,
      "v": 127
    },
    {
      "midi": 70,
      "hit": false,
      "t": 22000,
      "d": 1500,
      "v": 127
    },
    {
      "midi": 51,
      "hit": false,
      "t": 22000,
      "d": 2000,
      "v": 127
    },
    {
      "midi": 71,
      "hit": false,
      "t": 23500,
      "d": 500,
      "v": 127
    },
    {
      "midi": 68,
      "hit": false,
      "t": 24000,
      "d": 500,
      "v": 127
    },
    {
      "midi": 72,
      "hit": false,
      "t": 24000,
      "d": 500,
      "v": 127
    },
    {
      "midi": 44,
      "hit": false,
      "t": 24000,
      "d": 2000,
      "v": 127
    },
    {
      "midi": 56,
      "hit": false,
      "t": 24000,
      "d": 2000,
      "v": 127
    },
    {
      "midi": 63,
      "hit": false,
      "t": 24500,
      "d": 500,
      "v": 127
    },
    {
      "midi": 68,
      "hit": false,
      "t": 25000,
      "d": 500,
      "v": 127
    },
    {
      "midi": 72,
      "hit": false,
      "t": 25000,
      "d": 500,
      "v": 127
    },
    {
      "midi": 63,
      "hit": false,
      "t": 25500,
      "d": 500,
      "v": 127
    },
    {
      "midi": 67,
      "hit": false,
      "t": 26000,
      "d": 500,
      "v": 127
    },
    {
      "midi": 73,
      "hit": false,
      "t": 26000,
      "d": 500,
      "v": 127
    },
    {
      "midi": 39,
      "hit": false,
      "t": 26000,
      "d": 2000,
      "v": 127
    },
    {
      "midi": 51,
      "hit": false,
      "t": 26000,
      "d": 2000,
      "v": 127
    },
    {
      "midi": 63,
      "hit": false,
      "t": 26500,
      "d": 500,
      "v": 127
    },
    {
      "midi": 67,
      "hit": false,
      "t": 27000,
      "d": 500,
      "v": 127
    },
    {
      "midi": 70,
      "hit": false,
      "t": 27000,
      "d": 500,
      "v": 127
    },
    {
      "midi": 63,
      "hit": false,
      "t": 27500,
      "d": 500,
      "v": 127
    },
    {
      "midi": 68,
      "hit": false,
      "t": 28000,
      "d": 500,
      "v": 127
    },
    {
      "midi": 72,
      "hit": false,
      "t": 28000,
      "d": 500,
      "v": 127
    },
    {
      "midi": 44,
      "hit": false,
      "t": 28000,
      "d": 1000,
      "v": 127
    },
    {
      "midi": 56,
      "hit": false,
      "t": 28000,
      "d": 1000,
      "v": 127
    },
    {
      "midi": 63,
      "hit": false,
      "t": 28500,
      "d": 500,
      "v": 127
    },
    {
      "midi": 70,
      "hit": false,
      "t": 29000,
      "d": 500,
      "v": 127
    },
    {
      "midi": 51,
      "hit": false,
      "t": 29000,
      "d": 1000,
      "v": 127
    },
    {
      "midi": 63,
      "hit": false,
      "t": 29500,
      "d": 500,
      "v": 127
    },
    {
      "midi": 60,
      "hit": false,
      "t": 30000,
      "d": 500,
      "v": 127
    },
    {
      "midi": 68,
      "hit": false,
      "t": 30000,
      "d": 500,
      "v": 127
    },
    {
      "midi": 44,
      "hit": false,
      "t": 30000,
      "d": 2000,
      "v": 127
    },
    {
      "midi": 63,
      "hit": false,
      "t": 30500,
      "d": 500,
      "v": 127
    },
    {
      "midi": 60,
      "hit": false,
      "t": 31000,
      "d": 500,
      "v": 127
    },
    {
      "midi": 68,
      "hit": false,
      "t": 31000,
      "d": 500,
      "v": 127
    },
    {
      "midi": 75,
      "hit": false,
      "t": 31500,
      "d": 500,
      "v": 127
    },
    {
      "midi": 75,
      "hit": false,
      "t": 32000,
      "d": 1000,
      "v": 127
    },
    {
      "midi": 61,
      "hit": false,
      "t": 32000,
      "d": 500,
      "v": 127
    },
    {
      "midi": 63,
      "hit": false,
      "t": 32500,
      "d": 500,
      "v": 127
    },
    {
      "midi": 73,
      "hit": false,
      "t": 33000,
      "d": 250,
      "v": 127
    },
    {
      "midi": 58,
      "hit": false,
      "t": 33000,
      "d": 500,
      "v": 127
    },
    {
      "midi": 72,
      "hit": false,
      "t": 33250,
      "d": 250,
      "v": 127
    },
    {
      "midi": 73,
      "hit": false,
      "t": 33500,
      "d": 250,
      "v": 127
    },
    {
      "midi": 63,
      "hit": false,
      "t": 33500,
      "d": 500,
      "v": 127
    },
    {
      "midi": 70,
      "hit": false,
      "t": 33750,
      "d": 250,
      "v": 127
    },
    {
      "midi": 75,
      "hit": false,
      "t": 34000,
      "d": 500,
      "v": 127
    },
    {
      "midi": 60,
      "hit": false,
      "t": 34000,
      "d": 500,
      "v": 127
    },
    {
      "midi": 72,
      "hit": false,
      "t": 34500,
      "d": 500,
      "v": 127
    },
    {
      "midi": 63,
      "hit": false,
      "t": 34500,
      "d": 500,
      "v": 127
    },
    {
      "midi": 60,
      "hit": false,
      "t": 35000,
      "d": 500,
      "v": 127
    },
    {
      "midi": 63,
      "hit": false,
      "t": 35500,
      "d": 500,
      "v": 127
    },
    {
      "midi": 75,
      "hit": false,
      "t": 36000,
      "d": 1000,
      "v": 127
    },
    {
      "midi": 61,
      "hit": false,
      "t": 36000,
      "d": 500,
      "v": 127
    },
    {
      "midi": 63,
      "hit": false,
      "t": 36500,
      "d": 500,
      "v": 127
    },
    {
      "midi": 73,
      "hit": false,
      "t": 37000,
      "d": 250,
      "v": 127
    },
    {
      "midi": 58,
      "hit": false,
      "t": 37000,
      "d": 500,
      "v": 127
    },
    {
      "midi": 72,
      "hit": false,
      "t": 37250,
      "d": 250,
      "v": 127
    },
    {
      "midi": 73,
      "hit": false,
      "t": 37500,
      "d": 250,
      "v": 127
    },
    {
      "midi": 63,
      "hit": false,
      "t": 37500,
      "d": 500,
      "v": 127
    },
    {
      "midi": 70,
      "hit": false,
      "t": 37750,
      "d": 250,
      "v": 127
    },
    {
      "midi": 75,
      "hit": false,
      "t": 38000,
      "d": 500,
      "v": 127
    },
    {
      "midi": 60,
      "hit": false,
      "t": 38000,
      "d": 500,
      "v": 127
    },
    {
      "midi": 72,
      "hit": false,
      "t": 38500,
      "d": 500,
      "v": 127
    },
    {
      "midi": 63,
      "hit": false,
      "t": 38500,
      "d": 500,
      "v": 127
    },
    {
      "midi": 68,
      "hit": false,
      "t": 39000,
      "d": 1000,
      "v": 127
    },
    {
      "midi": 60,
      "hit": false,
      "t": 39000,
      "d": 1000,
      "v": 127
    }
  ]
}