{
  "jsonPath": "Rock/Alternative Rock/Velvet Revolver/loving-the-alien.json",
  "path": "Rock\\Alternative Rock\\Velvet Revolver\\Loving The Alien.mid",
  "name": "Loving The Alien",
  "difficulty": "Advanced",
  "bpm": 123.03023468017265,
  "notes": [
    {
      "midi": 43,
      "hit": false,
      "t": 2356.9529479166667,
      "d": 4363.801479166667,
      "v": 82
    },
    {
      "midi": 48,
      "hit": false,
      "t": 2369.4566770833335,
      "d": 4295.03096875,
      "v": 82
    },
    {
      "midi": 55,
      "hit": false,
      "t": 2381.9604062500002,
      "d": 800.2386666666666,
      "v": 119
    },
    {
      "midi": 64,
      "hit": false,
      "t": 2394.464135416667,
      "d": 925.2759583333332,
      "v": 122
    },
    {
      "midi": 65,
      "hit": false,
      "t": 3338.4956875000003,
      "d": 900.2685000000006,
      "v": 95
    },
    {
      "midi": 57,
      "hit": false,
      "t": 3344.7475520833336,
      "d": 725.2162916666666,
      "v": 119
    },
    {
      "midi": 55,
      "hit": false,
      "t": 4213.756729166667,
      "d": 543.9122187499997,
      "v": 97
    },
    {
      "midi": 64,
      "hit": false,
      "t": 4232.5123229166675,
      "d": 531.408489583333,
      "v": 122
    },
    {
      "midi": 53,
      "hit": false,
      "t": 4851.446916666667,
      "d": 706.4606979166665,
      "v": 97
    },
    {
      "midi": 62,
      "hit": false,
      "t": 4851.446916666667,
      "d": 881.51290625,
      "v": 108
    },
    {
      "midi": 55,
      "hit": false,
      "t": 4857.69878125,
      "d": 12.503729166666744,
      "v": 82
    },
    {
      "midi": 55,
      "hit": false,
      "t": 5745.4635520833335,
      "d": 1275.3803749999997,
      "v": 102
    },
    {
      "midi": 64,
      "hit": false,
      "t": 5757.96728125,
      "d": 1187.8542708333334,
      "v": 117
    },
    {
      "midi": 52,
      "hit": false,
      "t": 5795.4784687500005,
      "d": 912.7722291666669,
      "v": 46
    },
    {
      "midi": 41,
      "hit": false,
      "t": 7202.148,
      "d": 4245.016052083333,
      "v": 82
    },
    {
      "midi": 53,
      "hit": false,
      "t": 7220.90359375,
      "d": 919.0240937499993,
      "v": 115
    },
    {
      "midi": 57,
      "hit": false,
      "t": 7227.155458333334,
      "d": 687.7051041666664,
      "v": 123
    },
    {
      "midi": 48,
      "hit": false,
      "t": 7808.578864583334,
      "d": 4276.275375,
      "v": 67
    },
    {
      "midi": 58,
      "hit": false,
      "t": 8158.68328125,
      "d": 818.9942604166663,
      "v": 115
    },
    {
      "midi": 55,
      "hit": false,
      "t": 8164.935145833333,
      "d": 818.9942604166663,
      "v": 127
    },
    {
      "midi": 57,
      "hit": false,
      "t": 9027.692458333333,
      "d": 612.6827291666668,
      "v": 86
    },
    {
      "midi": 53,
      "hit": false,
      "t": 9040.1961875,
      "d": 550.1640833333331,
      "v": 119
    },
    {
      "midi": 52,
      "hit": false,
      "t": 9609.115864583333,
      "d": 894.0166354166668,
      "v": 122
    },
    {
      "midi": 55,
      "hit": false,
      "t": 9615.367729166666,
      "d": 981.542739583334,
      "v": 115
    },
    {
      "midi": 57,
      "hit": false,
      "t": 10546.895552083333,
      "d": 969.0390104166672,
      "v": 93
    },
    {
      "midi": 53,
      "hit": false,
      "t": 10571.903010416667,
      "d": 1212.861729166667,
      "v": 97
    },
    {
      "midi": 43,
      "hit": false,
      "t": 12003.58,
      "d": 4182.497406250002,
      "v": 60
    },
    {
      "midi": 59,
      "hit": false,
      "t": 12016.083729166667,
      "d": 750.223750000001,
      "v": 122
    },
    {
      "midi": 67,
      "hit": false,
      "t": 12034.839322916667,
      "d": 818.9942604166681,
      "v": 108
    },
    {
      "midi": 60,
      "hit": false,
      "t": 12935.107822916669,
      "d": 825.2461249999997,
      "v": 108
    },
    {
      "midi": 69,
      "hit": false,
      "t": 12947.611552083335,
      "d": 625.1864583333336,
      "v": 104
    },
    {
      "midi": 67,
      "hit": false,
      "t": 13785.361406250002,
      "d": 725.2162916666675,
      "v": 95
    },
    {
      "midi": 59,
      "hit": false,
      "t": 13797.865135416669,
      "d": 525.1566249999996,
      "v": 117
    },
    {
      "midi": 65,
      "hit": false,
      "t": 14423.051593750002,
      "d": 2425.723458333334,
      "v": 102
    },
    {
      "midi": 50,
      "hit": false,
      "t": 14429.303458333336,
      "d": 2431.975322916667,
      "v": 78
    },
    {
      "midi": 57,
      "hit": false,
      "t": 14435.555322916669,
      "d": 2369.4566770833335,
      "v": 111
    },
    {
      "midi": 62,
      "hit": false,
      "t": 15373.33501041667,
      "d": 1231.6173229166652,
      "v": 27
    },
    {
      "midi": 43,
      "hit": false,
      "t": 16780.00454166667,
      "d": 1688.0034374999996,
      "v": 71
    },
    {
      "midi": 48,
      "hit": false,
      "t": 16792.508270833336,
      "d": 1681.7515729166662,
      "v": 84
    },
    {
      "midi": 60,
      "hit": false,
      "t": 16798.76013541667,
      "d": 2456.9827812500007,
      "v": 84
    },
    {
      "midi": 64,
      "hit": false,
      "t": 16798.76013541667,
      "d": 2469.4865104166674,
      "v": 100
    },
    {
      "midi": 67,
      "hit": false,
      "t": 17755.295416666668,
      "d": 3901.1635000000024,
      "v": 69
    },
    {
      "midi": 50,
      "hit": false,
      "t": 19211.979864583336,
      "d": 1944.3298854166678,
      "v": 78
    },
    {
      "midi": 43,
      "hit": false,
      "t": 19224.483593750003,
      "d": 1975.5892083333347,
      "v": 93
    },
    {
      "midi": 47,
      "hit": false,
      "t": 20112.248364583338,
      "d": 1062.816979166666,
      "v": 81
    },
    {
      "midi": 55,
      "hit": false,
      "t": 20743.686687500005,
      "d": 2844.598385416666,
      "v": 115
    },
    {
      "midi": 62,
      "hit": false,
      "t": 21043.776187500003,
      "d": 618.9345937500002,
      "v": 115
    },
    {
      "midi": 59,
      "hit": false,
      "t": 21137.554156250004,
      "d": 137.5410208333342,
      "v": 33
    },
    {
      "midi": 43,
      "hit": false,
      "t": 21668.962645833337,
      "d": 1537.9586875000023,
      "v": 95
    },
    {
      "midi": 48,
      "hit": false,
      "t": 21681.466375000004,
      "d": 1519.2030937500022,
      "v": 93
    },
    {
      "midi": 60,
      "hit": false,
      "t": 21693.97010416667,
      "d": 2444.479052083334,
      "v": 106
    },
    {
      "midi": 64,
      "hit": false,
      "t": 21700.221968750004,
      "d": 2475.738375000001,
      "v": 98
    },
    {
      "midi": 67,
      "hit": false,
      "t": 22550.47555208334,
      "d": 1750.5220833333333,
      "v": 91
    },
    {
      "midi": 48,
      "hit": false,
      "t": 24063.426781250004,
      "d": 1906.8186979166712,
      "v": 104
    },
    {
      "midi": 55,
      "hit": false,
      "t": 24313.50136458334,
      "d": 618.9345937500002,
      "v": 102
    },
    {
      "midi": 52,
      "hit": false,
      "t": 24638.59832291667,
      "d": 1306.6396979166711,
      "v": 112
    },
    {
      "midi": 60,
      "hit": false,
      "t": 24926.184093750006,
      "d": 643.9420520833337,
      "v": 119
    },
    {
      "midi": 67,
      "hit": false,
      "t": 25213.76986458334,
      "d": 3032.154322916671,
      "v": 102
    },
    {
      "midi": 64,
      "hit": false,
      "t": 25545.118687500006,
      "d": 668.9495104166708,
      "v": 103
    },
    {
      "midi": 55,
      "hit": false,
      "t": 25845.208187500008,
      "d": 718.9644270833378,
      "v": 100
    },
    {
      "midi": 62,
      "hit": false,
      "t": 26139.045822916676,
      "d": 1994.3448020833348,
      "v": 104
    },
    {
      "midi": 50,
      "hit": false,
      "t": 26414.127864583344,
      "d": 4307.534697916675,
      "v": 78
    },
    {
      "midi": 71,
      "hit": false,
      "t": 26432.883458333345,
      "d": 1856.8037812500006,
      "v": 79
    },
    {
      "midi": 43,
      "hit": false,
      "t": 26445.38718750001,
      "d": 4263.771645833342,
      "v": 82
    },
    {
      "midi": 79,
      "hit": false,
      "t": 29127.437093750013,
      "d": 1512.9512291666724,
      "v": 86
    },
    {
      "midi": 55,
      "hit": false,
      "t": 29471.289645833345,
      "d": 606.4308645833371,
      "v": 73
    },
    {
      "midi": 74,
      "hit": false,
      "t": 29752.623552083347,
      "d": 925.2759583333391,
      "v": 102
    },
    {
      "midi": 47,
      "hit": false,
      "t": 30021.453729166682,
      "d": 725.2162916666712,
      "v": 68
    },
    {
      "midi": 71,
      "hit": false,
      "t": 30334.04695833335,
      "d": 318.845093750002,
      "v": 103
    },
    {
      "midi": 55,
      "hit": false,
      "t": 30621.632729166686,
      "d": 618.9345937500038,
      "v": 86
    },
    {
      "midi": 67,
      "hit": false,
      "t": 30634.136458333352,
      "d": 418.87492708333593,
      "v": 111
    },
    {
      "midi": 68,
      "hit": false,
      "t": 30934.225958333354,
      "d": 287.5857708333351,
      "v": 81
    },
    {
      "midi": 69,
      "hit": false,
      "t": 31146.78935416669,
      "d": 3219.7102604166757,
      "v": 97
    },
    {
      "midi": 48,
      "hit": false,
      "t": 31184.30054166669,
      "d": 2019.3522604166683,
      "v": 57
    },
    {
      "midi": 53,
      "hit": false,
      "t": 31190.552406250023,
      "d": 2006.8485312500015,
      "v": 84
    },
    {
      "midi": 65,
      "hit": false,
      "t": 32153.339552083355,
      "d": 2006.8485312500088,
      "v": 82
    },
    {
      "midi": 48,
      "hit": false,
      "t": 33616.27586458336,
      "d": 1844.3000520833448,
      "v": 41
    },
    {
      "midi": 68,
      "hit": false,
      "t": 33953.87655208336,
      "d": 287.5857708333351,
      "v": 86
    },
    {
      "midi": 60,
      "hit": false,
      "t": 33953.87655208336,
      "d": 800.2386666666716,
      "v": 69
    },
    {
      "midi": 69,
      "hit": false,
      "t": 34391.5070729167,
      "d": 337.6006875000021,
      "v": 66
    },
    {
      "midi": 68,
      "hit": false,
      "t": 34410.2626666667,
      "d": 87.52610416666721,
      "v": 70
    },
    {
      "midi": 60,
      "hit": false,
      "t": 34779.12267708337,
      "d": 869.0091770833387,
      "v": 76
    },
    {
      "midi": 68,
      "hit": false,
      "t": 34785.3745416667,
      "d": 168.80034375000105,
      "v": 107
    },
    {
      "midi": 69,
      "hit": false,
      "t": 34791.626406250034,
      "d": 825.2461250000051,
      "v": 89
    },
    {
      "midi": 57,
      "hit": false,
      "t": 34791.626406250034,
      "d": 1219.1135937500076,
      "v": 74
    },
    {
      "midi": 67,
      "hit": false,
      "t": 35210.50133333337,
      "d": 2238.16752083334,
      "v": 93
    },
    {
      "midi": 65,
      "hit": false,
      "t": 35666.887447916706,
      "d": 418.87492708333593,
      "v": 89
    },
    {
      "midi": 43,
      "hit": false,
      "t": 35966.97694791671,
      "d": 1913.0705625000046,
      "v": 74
    },
    {
      "midi": 50,
      "hit": false,
      "t": 35991.98440625004,
      "d": 4432.571989583346,
      "v": 78
    },
    {
      "midi": 62,
      "hit": false,
      "t": 35998.236270833375,
      "d": 1462.9363125000018,
      "v": 115
    },
    {
      "midi": 55,
      "hit": false,
      "t": 36929.76409375004,
      "d": 5845.493385416681,
      "v": 73
    },
    {
      "midi": 43,
      "hit": false,
      "t": 38398.95227083338,
      "d": 2013.1003958333386,
      "v": 82
    },
    {
      "midi": 79,
      "hit": false,
      "t": 38405.204135416716,
      "d": 1062.816979166666,
      "v": 119
    },
    {
      "midi": 77,
      "hit": false,
      "t": 39367.99128125005,
      "d": 568.9196770833369,
      "v": 115
    },
    {
      "midi": 74,
      "hit": false,
      "t": 39918.155364583385,
      "d": 362.6081458333356,
      "v": 108
    },
    {
      "midi": 71,
      "hit": false,
      "t": 40243.25232291672,
      "d": 712.7125625000044,
      "v": 117
    },
    {
      "midi": 48,
      "hit": false,
      "t": 40830.92759375006,
      "d": 1819.2925937499967,
      "v": 91
    },
    {
      "midi": 72,
      "hit": false,
      "t": 40830.92759375006,
      "d": 3107.1766979166714,
      "v": 93
    },
    {
      "midi": 67,
      "hit": false,
      "t": 41781.21101041672,
      "d": 5770.471010416681,
      "v": 69
    },
    {
      "midi": 43,
      "hit": false,
      "t": 43219.13986458339,
      "d": 1212.8617291666742,
      "v": 86
    },
    {
      "midi": 48,
      "hit": false,
      "t": 43544.236822916726,
      "d": 1669.2478437500104,
      "v": 97
    },
    {
      "midi": 55,
      "hit": false,
      "t": 43863.08191666673,
      "d": 712.7125625000044,
      "v": 82
    },
    {
      "midi": 60,
      "hit": false,
      "t": 44144.41582291673,
      "d": 381.3637395833357,
      "v": 123
    },
    {
      "midi": 52,
      "hit": false,
      "t": 44457.0090520834,
      "d": 681.4532395833376,
      "v": 88
    },
    {
      "midi": 64,
      "hit": false,
      "t": 44500.77210416673,
      "d": 300.08950000000186,
      "v": 117
    },
    {
      "midi": 62,
      "hit": false,
      "t": 44769.60228125007,
      "d": 2782.079739583336,
      "v": 115
    },
    {
      "midi": 64,
      "hit": false,
      "t": 45050.93618750007,
      "d": 381.3637395833357,
      "v": 107
    },
    {
      "midi": 55,
      "hit": false,
      "t": 45057.1880520834,
      "d": 681.4532395833376,
      "v": 93
    },
    {
      "midi": 74,
      "hit": false,
      "t": 45344.77382291674,
      "d": 43.763052083333605,
      "v": 74
    },
    {
      "midi": 72,
      "hit": false,
      "t": 45351.02568750007,
      "d": 218.81526041666802,
      "v": 80
    },
    {
      "midi": 43,
      "hit": false,
      "t": 45644.86332291674,
      "d": 1963.0854791666643,
      "v": 76
    },
    {
      "midi": 50,
      "hit": false,
      "t": 45644.86332291674,
      "d": 4482.586906250006,
      "v": 80
    },
    {
      "midi": 71,
      "hit": false,
      "t": 45669.87078125007,
      "d": 1894.3149687499972,
      "v": 77
    },
    {
      "midi": 55,
      "hit": false,
      "t": 46501.368770833404,
      "d": 3944.9265520833433,
      "v": 69
    },
    {
      "midi": 71,
      "hit": false,
      "t": 48345.668822916734,
      "d": 1137.8393541666737,
      "v": 88
    },
    {
      "midi": 79,
      "hit": false,
      "t": 48358.1725520834,
      "d": 1381.6620729166752,
      "v": 104
    },
    {
      "midi": 67,
      "hit": false,
      "t": 48383.180010416734,
      "d": 62.51864583333372,
      "v": 47
    },
    {
      "midi": 74,
      "hit": false,
      "t": 48808.3068020834,
      "d": 1250.3729166666744,
      "v": 95
    },
    {
      "midi": 43,
      "hit": false,
      "t": 49270.94478125007,
      "d": 887.7647708333388,
      "v": 91
    },
    {
      "midi": 71,
      "hit": false,
      "t": 49652.30852083341,
      "d": 425.1267916666693,
      "v": 122
    },
    {
      "midi": 67,
      "hit": false,
      "t": 50052.427854166745,
      "d": 350.10441666666884,
      "v": 115
    },
    {
      "midi": 68,
      "hit": false,
      "t": 50340.01362500008,
      "d": 156.2966145833343,
      "v": 98
    },
    {
      "midi": 69,
      "hit": false,
      "t": 50415.03600000008,
      "d": 1600.4773333333287,
      "v": 74
    },
    {
      "midi": 48,
      "hit": false,
      "t": 50415.03600000008,
      "d": 4295.03096874999,
      "v": 80
    },
    {
      "midi": 53,
      "hit": false,
      "t": 50421.28786458341,
      "d": 4238.76418749999,
      "v": 86
    },
    {
      "midi": 65,
      "hit": false,
      "t": 51309.052635416745,
      "d": 625.1864583333299,
      "v": 82
    },
    {
      "midi": 60,
      "hit": false,
      "t": 51909.23163541674,
      "d": 956.5352812499987,
      "v": 86
    },
    {
      "midi": 57,
      "hit": false,
      "t": 52778.24081250007,
      "d": 2263.174979166666,
      "v": 78
    },
    {
      "midi": 65,
      "hit": false,
      "t": 53703.516770833405,
      "d": 1362.9064791666679,
      "v": 86
    },
    {
      "midi": 55,
      "hit": false,
      "t": 54985.14901041674,
      "d": 1500.447500000002,
      "v": 59
    },
    {
      "midi": 57,
      "hit": false,
      "t": 55078.92697916674,
      "d": 237.57085416666814,
      "v": 33
    },
    {
      "midi": 59,
      "hit": false,
      "t": 55178.95681250007,
      "d": 1481.691906250002,
      "v": 98
    },
    {
      "midi": 50,
      "hit": false,
      "t": 55191.46054166674,
      "d": 2532.005156250001,
      "v": 80
    },
    {
      "midi": 43,
      "hit": false,
      "t": 55197.71240625007,
      "d": 4332.542156250005,
      "v": 89
    },
    {
      "midi": 47,
      "hit": false,
      "t": 56110.48463541674,
      "d": 3494.7923020833405,
      "v": 68
    },
    {
      "midi": 62,
      "hit": false,
      "t": 56135.49209375007,
      "d": 800.2386666666716,
      "v": 93
    },
    {
      "midi": 55,
      "hit": false,
      "t": 57623.43586458341,
      "d": 987.7946041666655,
      "v": 80
    },
    {
      "midi": 67,
      "hit": false,
      "t": 57629.68772916674,
      "d": 1550.462416666669,
      "v": 84
    },
    {
      "midi": 74,
      "hit": false,
      "t": 57635.939593750074,
      "d": 1800.537000000004,
      "v": 91
    },
    {
      "midi": 79,
      "hit": false,
      "t": 58523.704364583406,
      "d": 687.7051041666709,
      "v": 95
    },
    {
      "midi": 50,
      "hit": false,
      "t": 58529.95622916674,
      "d": 981.5427395833394,
      "v": 64
    },
    {
      "midi": 71,
      "hit": false,
      "t": 59111.37963541674,
      "d": 318.845093750002,
      "v": 95
    },
    {
      "midi": 67,
      "hit": false,
      "t": 59448.980322916745,
      "d": 306.34136458333523,
      "v": 106
    },
    {
      "midi": 55,
      "hit": false,
      "t": 59448.980322916745,
      "d": 631.4383229166706,
      "v": 74
    },
    {
      "midi": 62,
      "hit": false,
      "t": 59717.81050000008,
      "d": 331.3488229166687,
      "v": 89
    },
    {
      "midi": 64,
      "hit": false,
      "t": 60055.41118750008,
      "d": 4188.74927083333,
      "v": 122
    },
    {
      "midi": 48,
      "hit": false,
      "t": 60074.16678125008,
      "d": 4307.534697916664,
      "v": 106
    },
    {
      "midi": 55,
      "hit": false,
      "t": 60974.43528125008,
      "d": 1450.432583333335,
      "v": 97
    },
    {
      "midi": 60,
      "hit": false,
      "t": 60974.43528125008,
      "d": 3013.3987291666635,
      "v": 93
    },
    {
      "midi": 52,
      "hit": false,
      "t": 62399.86040625008,
      "d": 1919.3224270833307,
      "v": 72
    },
    {
      "midi": 55,
      "hit": false,
      "t": 63300.12890625008,
      "d": 1575.4698750000025,
      "v": 74
    },
    {
      "midi": 67,
      "hit": false,
      "t": 63925.31536458341,
      "d": 668.9495104166708,
      "v": 74
    },
    {
      "midi": 60,
      "hit": false,
      "t": 64262.91605208341,
      "d": 531.4084895833366,
      "v": 119
    },
    {
      "midi": 61,
      "hit": false,
      "t": 64563.005552083414,
      "d": 256.32644791666826,
      "v": 112
    },
    {
      "midi": 62,
      "hit": false,
      "t": 64738.05776041675,
      "d": 2550.760750000016,
      "v": 84
    },
    {
      "midi": 50,
      "hit": false,
      "t": 64844.339458333416,
      "d": 4282.52723958336,
      "v": 74
    },
    {
      "midi": 43,
      "hit": false,
      "t": 64850.59132291675,
      "d": 4363.801479166694,
      "v": 86
    },
    {
      "midi": 74,
      "hit": false,
      "t": 65713.34863541675,
      "d": 1669.2478437500104,
      "v": 97
    },
    {
      "midi": 67,
      "hit": false,
      "t": 65719.60050000009,
      "d": 1587.9736041666765,
      "v": 97
    },
    {
      "midi": 71,
      "hit": false,
      "t": 66301.02390625009,
      "d": 1025.305791666673,
      "v": 64
    },
    {
      "midi": 55,
      "hit": false,
      "t": 67201.2924062501,
      "d": 2431.9753229166818,
      "v": 57
    },
    {
      "midi": 79,
      "hit": false,
      "t": 68120.3165000001,
      "d": 618.9345937500038,
      "v": 106
    },
    {
      "midi": 74,
      "hit": false,
      "t": 68439.1615937501,
      "d": 343.85255208333547,
      "v": 100
    },
    {
      "midi": 67,
      "hit": false,
      "t": 68720.4955000001,
      "d": 712.7125625000044,
      "v": 108
    },
    {
      "midi": 68,
      "hit": false,
      "t": 69351.93382291678,
      "d": 218.81526041666802,
      "v": 88
    },
    {
      "midi": 69,
      "hit": false,
      "t": 69508.23043750011,
      "d": 2356.9529479166813,
      "v": 84
    },
    {
      "midi": 48,
      "hit": false,
      "t": 69620.76400000011,
      "d": 1369.1583437500085,
      "v": 76
    },
    {
      "midi": 53,
      "hit": false,
      "t": 69627.01586458345,
      "d": 1319.1434270833415,
      "v": 86
    },
    {
      "midi": 65,
      "hit": false,
      "t": 70539.78809375012,
      "d": 1444.180718750009,
      "v": 84
    },
    {
      "midi": 62,
      "hit": false,
      "t": 72058.99118750013,
      "d": 1587.9736041666765,
      "v": 78
    },
    {
      "midi": 67,
      "hit": false,
      "t": 72371.5844166668,
      "d": 1569.2180104166764,
      "v": 80
    },
    {
      "midi": 74,
      "hit": false,
      "t": 72959.25968750013,
      "d": 894.0166354166722,
      "v": 97
    },
    {
      "midi": 71,
      "hit": false,
      "t": 73565.69055208347,
      "d": 387.6156041666691,
      "v": 67
    },
    {
      "midi": 62,
      "hit": false,
      "t": 73903.29123958347,
      "d": 393.86746875000244,
      "v": 49
    },
    {
      "midi": 48,
      "hit": false,
      "t": 74384.68481250014,
      "d": 1919.3224270833452,
      "v": 93
    },
    {
      "midi": 67,
      "hit": false,
      "t": 74397.18854166681,
      "d": 956.5352812500059,
      "v": 84
    },
    {
      "midi": 60,
      "hit": false,
      "t": 74409.69227083348,
      "d": 1556.7142812500097,
      "v": 106
    },
    {
      "midi": 64,
      "hit": false,
      "t": 74409.69227083348,
      "d": 1575.4698750000098,
      "v": 103
    },
    {
      "midi": 72,
      "hit": false,
      "t": 75291.20517708348,
      "d": 750.2237500000047,
      "v": 89
    },
    {
      "midi": 55,
      "hit": false,
      "t": 75297.45704166681,
      "d": 1606.7291979166766,
      "v": 80
    },
    {
      "midi": 43,
      "hit": false,
      "t": 76822.91200000016,
      "d": 2119.382093750013,
      "v": 78
    },
    {
      "midi": 50,
      "hit": false,
      "t": 76835.41572916682,
      "d": 2144.3895520833466,
      "v": 73
    },
    {
      "midi": 71,
      "hit": false,
      "t": 76860.42318750016,
      "d": 781.4830729166715,
      "v": 122
    },
    {
      "midi": 79,
      "hit": false,
      "t": 76860.42318750016,
      "d": 887.7647708333388,
      "v": 102
    },
    {
      "midi": 55,
      "hit": false,
      "t": 77416.83913541683,
      "d": 1950.581750000012,
      "v": 78
    },
    {
      "midi": 77,
      "hit": false,
      "t": 77735.68422916683,
      "d": 625.1864583333372,
      "v": 95
    },
    {
      "midi": 69,
      "hit": false,
      "t": 77754.43982291683,
      "d": 487.645437500003,
      "v": 119
    },
    {
      "midi": 76,
      "hit": false,
      "t": 78323.35950000017,
      "d": 931.5278229166724,
      "v": 103
    },
    {
      "midi": 67,
      "hit": false,
      "t": 78329.6113645835,
      "d": 475.1417083333363,
      "v": 89
    },
    {
      "midi": 72,
      "hit": false,
      "t": 79248.6354583335,
      "d": 2463.2346458333486,
      "v": 67
    },
    {
      "midi": 48,
      "hit": false,
      "t": 79261.13918750017,
      "d": 4263.77164583336,
      "v": 86
    },
    {
      "midi": 64,
      "hit": false,
      "t": 79273.64291666684,
      "d": 1412.921395833342,
      "v": 107
    },
    {
      "midi": 55,
      "hit": false,
      "t": 80167.65955208351,
      "d": 2469.486510416682,
      "v": 78
    },
    {
      "midi": 60,
      "hit": false,
      "t": 80730.32736458351,
      "d": 1956.8336145833455,
      "v": 93
    },
    {
      "midi": 65,
      "hit": false,
      "t": 81061.67618750018,
      "d": 393.86746875000244,
      "v": 111
    },
    {
      "midi": 67,
      "hit": false,
      "t": 81343.01009375018,
      "d": 1788.0332708333444,
      "v": 84
    },
    {
      "midi": 64,
      "hit": false,
      "t": 81643.09959375019,
      "d": 1469.1881770833425,
      "v": 112
    },
    {
      "midi": 52,
      "hit": false,
      "t": 82549.61995833353,
      "d": 950.2834166666726,
      "v": 72
    },
    {
      "midi": 60,
      "hit": false,
      "t": 83106.0359062502,
      "d": 387.6156041666691,
      "v": 111
    },
    {
      "midi": 55,
      "hit": false,
      "t": 83424.8810000002,
      "d": 687.7051041666709,
      "v": 80
    },
    {
      "midi": 61,
      "hit": false,
      "t": 83431.13286458353,
      "d": 662.6976458333374,
      "v": 122
    },
    {
      "midi": 62,
      "hit": false,
      "t": 84056.31932291687,
      "d": 894.0166354166722,
      "v": 91
    },
    {
      "midi": 50,
      "hit": false,
      "t": 84056.31932291687,
      "d": 1863.055645833345,
      "v": 71
    },
    {
      "midi": 43,
      "hit": false,
      "t": 84093.83051041687,
      "d": 1769.2776770833443,
      "v": 36
    },
    {
      "midi": 47,
      "hit": false,
      "t": 84906.5729062502,
      "d": 1050.3132500000065,
      "v": 71
    },
    {
      "midi": 74,
      "hit": false,
      "t": 84931.58036458354,
      "d": 1069.0688437500066,
      "v": 82
    },
    {
      "midi": 71,
      "hit": false,
      "t": 85525.50750000021,
      "d": 512.6528958333365,
      "v": 107
    },
    {
      "midi": 55,
      "hit": false,
      "t": 85838.10072916688,
      "d": 600.1790000000037,
      "v": 74
    },
    {
      "midi": 69,
      "hit": false,
      "t": 85888.11564583355,
      "d": 193.80780208333454,
      "v": 56
    },
    {
      "midi": 67,
      "hit": false,
      "t": 86131.93836458355,
      "d": 1269.1285104166745,
      "v": 50
    },
    {
      "midi": 71,
      "hit": false,
      "t": 86281.98311458355,
      "d": 1594.22546875001,
      "v": 100
    },
    {
      "midi": 74,
      "hit": false,
      "t": 86375.76108333355,
      "d": 156.2966145833343,
      "v": 78
    },
    {
      "midi": 50,
      "hit": false,
      "t": 86413.27227083355,
      "d": 1881.811239583345,
      "v": 80
    },
    {
      "midi": 43,
      "hit": false,
      "t": 86425.77600000022,
      "d": 1875.5593750000116,
      "v": 89
    },
    {
      "midi": 79,
      "hit": false,
      "t": 86457.03532291688,
      "d": 1431.6769895833422,
      "v": 73
    },
    {
      "midi": 74,
      "hit": false,
      "t": 87313.54077083356,
      "d": 581.4234062500036,
      "v": 80
    },
    {
      "midi": 67,
      "hit": false,
      "t": 87869.95671875023,
      "d": 856.505447916672,
      "v": 84
    },
    {
      "midi": 55,
      "hit": false,
      "t": 88213.80927083356,
      "d": 581.4234062500036,
      "v": 71
    },
    {
      "midi": 68,
      "hit": false,
      "t": 88607.67673958356,
      "d": 231.31898958333477,
      "v": 38
    },
    {
      "midi": 69,
      "hit": false,
      "t": 88782.7289479169,
      "d": 1619.2329270833434,
      "v": 70
    },
    {
      "midi": 48,
      "hit": false,
      "t": 88826.49200000023,
      "d": 1888.0631041666784,
      "v": 80
    },
    {
      "midi": 53,
      "hit": false,
      "t": 88845.24759375023,
      "d": 681.4532395833376,
      "v": 69
    },
    {
      "midi": 57,
      "hit": false,
      "t": 89470.43405208357,
      "d": 1756.7739479166776,
      "v": 76
    },
    {
      "midi": 65,
      "hit": false,
      "t": 89751.76795833357,
      "d": 625.1864583333372,
      "v": 80
    },
    {
      "midi": 60,
      "hit": false,
      "t": 90376.95441666691,
      "d": 662.6976458333374,
      "v": 97
    },
    {
      "midi": 62,
      "hit": false,
      "t": 90989.63714583358,
      "d": 531.4084895833366,
      "v": 45
    },
    {
      "midi": 50,
      "hit": false,
      "t": 91252.21545833358,
      "d": 212.56339583333465,
      "v": 76
    },
    {
      "midi": 43,
      "hit": false,
      "t": 91252.21545833358,
      "d": 287.5857708333351,
      "v": 91
    },
    {
      "midi": 67,
      "hit": false,
      "t": 91264.71918750025,
      "d": 256.32644791666826,
      "v": 86
    },
    {
      "midi": 59,
      "hit": false,
      "t": 91270.97105208358,
      "d": 256.32644791666826,
      "v": 103
    },
    {
      "midi": 67,
      "hit": false,
      "t": 93646.67959375025,
      "d": 969.0390104166727,
      "v": 74
    },
    {
      "midi": 64,
      "hit": false,
      "t": 93646.67959375025,
      "d": 1856.8037812500115,
      "v": 103
    },
    {
      "midi": 60,
      "hit": false,
      "t": 93652.93145833358,
      "d": 1556.7142812500097,
      "v": 100
    },
    {
      "midi": 48,
      "hit": false,
      "t": 93652.93145833358,
      "d": 1806.7888645833445,
      "v": 97
    },
    {
      "midi": 55,
      "hit": false,
      "t": 94534.44436458359,
      "d": 1519.2030937500094,
      "v": 71
    },
    {
      "midi": 72,
      "hit": false,
      "t": 94546.94809375025,
      "d": 844.0017187500052,
      "v": 86
    },
    {
      "midi": 67,
      "hit": false,
      "t": 95122.11963541692,
      "d": 387.6156041666691,
      "v": 70
    },
    {
      "midi": 60,
      "hit": false,
      "t": 95465.97218750026,
      "d": 606.4308645833371,
      "v": 91
    },
    {
      "midi": 62,
      "hit": false,
      "t": 96028.64000000026,
      "d": 2000.596666666679,
      "v": 84
    },
    {
      "midi": 50,
      "hit": false,
      "t": 96034.8918645836,
      "d": 1731.766489583344,
      "v": 62
    },
    {
      "midi": 59,
      "hit": false,
      "t": 96041.14372916693,
      "d": 1988.0929375000123,
      "v": 70
    },
    {
      "midi": 43,
      "hit": false,
      "t": 96047.39559375026,
      "d": 1756.7739479166776,
      "v": 82
    },
    {
      "midi": 67,
      "hit": false,
      "t": 96928.90850000027,
      "d": 1375.4102083333419,
      "v": 76
    },
    {
      "midi": 43,
      "hit": false,
      "t": 98404.34854166694,
      "d": 4232.512322916693,
      "v": 66
    },
    {
      "midi": 48,
      "hit": false,
      "t": 98416.85227083361,
      "d": 4163.741812500026,
      "v": 80
    },
    {
      "midi": 55,
      "hit": false,
      "t": 98423.10413541694,
      "d": 756.475614583338,
      "v": 111
    },
    {
      "midi": 64,
      "hit": false,
      "t": 98429.35600000028,
      "d": 881.5129062500055,
      "v": 117
    },
    {
      "midi": 65,
      "hit": false,
      "t": 99329.62450000028,
      "d": 900.2685000000056,
      "v": 82
    },
    {
      "midi": 57,
      "hit": false,
      "t": 99354.63195833362,
      "d": 781.4830729166715,
      "v": 115
    },
    {
      "midi": 55,
      "hit": false,
      "t": 100217.38927083362,
      "d": 512.6528958333365,
      "v": 104
    },
    {
      "midi": 64,
      "hit": false,
      "t": 100217.38927083362,
      "d": 568.9196770833369,
      "v": 103
    },
    {
      "midi": 62,
      "hit": false,
      "t": 100830.07200000029,
      "d": 900.2685000000056,
      "v": 89
    },
    {
      "midi": 53,
      "hit": false,
      "t": 100842.57572916696,
      "d": 725.2162916666712,
      "v": 100
    },
    {
      "midi": 55,
      "hit": false,
      "t": 100848.82759375029,
      "d": 18.755593750000116,
      "v": 102
    },
    {
      "midi": 55,
      "hit": false,
      "t": 101736.59236458363,
      "d": 1325.395291666675,
      "v": 111
    },
    {
      "midi": 64,
      "hit": false,
      "t": 101742.84422916696,
      "d": 881.5129062500055,
      "v": 112
    },
    {
      "midi": 41,
      "hit": false,
      "t": 103218.28427083364,
      "d": 4288.779104166693,
      "v": 76
    },
    {
      "midi": 57,
      "hit": false,
      "t": 103237.03986458364,
      "d": 668.9495104166708,
      "v": 115
    },
    {
      "midi": 53,
      "hit": false,
      "t": 103243.29172916697,
      "d": 850.2535833333386,
      "v": 115
    },
    {
      "midi": 55,
      "hit": false,
      "t": 104131.05650000031,
      "d": 862.7573125000054,
      "v": 119
    },
    {
      "midi": 58,
      "hit": false,
      "t": 104137.30836458365,
      "d": 837.7498541666719,
      "v": 115
    },
    {
      "midi": 57,
      "hit": false,
      "t": 105031.32500000032,
      "d": 650.1939166666707,
      "v": 84
    },
    {
      "midi": 53,
      "hit": false,
      "t": 105043.82872916698,
      "d": 537.66035416667,
      "v": 115
    },
    {
      "midi": 52,
      "hit": false,
      "t": 105631.50400000032,
      "d": 875.2610416666721,
      "v": 122
    },
    {
      "midi": 55,
      "hit": false,
      "t": 105631.50400000032,
      "d": 981.5427395833394,
      "v": 119
    },
    {
      "midi": 57,
      "hit": false,
      "t": 106569.28368750033,
      "d": 1069.0688437500066,
      "v": 97
    },
    {
      "midi": 53,
      "hit": false,
      "t": 106581.787416667,
      "d": 1350.4027500000084,
      "v": 104
    },
    {
      "midi": 43,
      "hit": false,
      "t": 108032.22000000034,
      "d": 4195.001135416693,
      "v": 73
    },
    {
      "midi": 67,
      "hit": false,
      "t": 108038.47186458367,
      "d": 793.9868020833383,
      "v": 95
    },
    {
      "midi": 59,
      "hit": false,
      "t": 108044.723729167,
      "d": 800.2386666666716,
      "v": 122
    },
    {
      "midi": 65,
      "hit": false,
      "t": 108050.97559375034,
      "d": 12.503729166666744,
      "v": 97
    },
    {
      "midi": 60,
      "hit": false,
      "t": 108913.73290625034,
      "d": 912.7722291666723,
      "v": 100
    },
    {
      "midi": 69,
      "hit": false,
      "t": 108938.74036458367,
      "d": 756.475614583338,
      "v": 102
    },
    {
      "midi": 67,
      "hit": false,
      "t": 109839.00886458368,
      "d": 675.2013750000042,
      "v": 97
    },
    {
      "midi": 59,
      "hit": false,
      "t": 109851.51259375035,
      "d": 531.4084895833366,
      "v": 117
    },
    {
      "midi": 57,
      "hit": false,
      "t": 110432.93600000035,
      "d": 887.7647708333388,
      "v": 106
    },
    {
      "midi": 65,
      "hit": false,
      "t": 110439.18786458368,
      "d": 1019.0539270833397,
      "v": 97
    },
    {
      "midi": 50,
      "hit": false,
      "t": 111370.71568750036,
      "d": 931.5278229166724,
      "v": 52
    },
    {
      "midi": 59,
      "hit": false,
      "t": 111370.71568750036,
      "d": 1125.335625000007,
      "v": 49
    },
    {
      "midi": 62,
      "hit": false,
      "t": 111383.21941666702,
      "d": 1050.3132500000065,
      "v": 76
    },
    {
      "midi": 55,
      "hit": false,
      "t": 111408.22687500036,
      "d": 1137.8393541666737,
      "v": 64
    },
    {
      "midi": 47,
      "hit": false,
      "t": 111420.73060416702,
      "d": 775.2312083333381,
      "v": 55
    },
    {
      "midi": 43,
      "hit": false,
      "t": 112789.88894791703,
      "d": 1794.2851354166633,
      "v": 73
    },
    {
      "midi": 48,
      "hit": false,
      "t": 112802.3926770837,
      "d": 1813.0407291666634,
      "v": 86
    },
    {
      "midi": 55,
      "hit": false,
      "t": 112802.3926770837,
      "d": 3907.4153645833285,
      "v": 95
    },
    {
      "midi": 60,
      "hit": false,
      "t": 112808.64454166703,
      "d": 2244.419385416666,
      "v": 106
    },
    {
      "midi": 64,
      "hit": false,
      "t": 112808.64454166703,
      "d": 2319.4417604166665,
      "v": 107
    },
    {
      "midi": 50,
      "hit": false,
      "t": 115246.87172916703,
      "d": 1869.3075104166637,
      "v": 70
    },
    {
      "midi": 62,
      "hit": false,
      "t": 115259.3754583337,
      "d": 2169.3970104166656,
      "v": 80
    },
    {
      "midi": 43,
      "hit": false,
      "t": 115265.62732291703,
      "d": 1938.0780208333308,
      "v": 74
    },
    {
      "midi": 59,
      "hit": false,
      "t": 115271.87918750037,
      "d": 2138.1376874999987,
      "v": 98
    },
    {
      "midi": 65,
      "hit": false,
      "t": 116728.56363541703,
      "d": 725.2162916666712,
      "v": 84
    },
    {
      "midi": 55,
      "hit": false,
      "t": 116734.81550000036,
      "d": 512.6528958333365,
      "v": 51
    },
    {
      "midi": 47,
      "hit": false,
      "t": 117028.65313541703,
      "d": 343.85255208333547,
      "v": 74
    },
    {
      "midi": 55,
      "hit": false,
      "t": 117316.23890625036,
      "d": 1956.8336145833455,
      "v": 56
    },
    {
      "midi": 60,
      "hit": false,
      "t": 117610.07654166703,
      "d": 2463.2346458333486,
      "v": 119
    },
    {
      "midi": 64,
      "hit": false,
      "t": 117616.32840625037,
      "d": 2525.7532916666823,
      "v": 117
    },
    {
      "midi": 48,
      "hit": false,
      "t": 117641.3358645837,
      "d": 1656.7441145833436,
      "v": 31
    },
    {
      "midi": 67,
      "hit": false,
      "t": 118579.1155520837,
      "d": 1625.4847916666768,
      "v": 93
    },
    {
      "midi": 48,
      "hit": false,
      "t": 120035.80000000038,
      "d": 1894.3149687500118,
      "v": 82
    },
    {
      "midi": 55,
      "hit": false,
      "t": 120342.14136458372,
      "d": 412.62306250000256,
      "v": 100
    },
    {
      "midi": 52,
      "hit": false,
      "t": 120623.47527083372,
      "d": 756.475614583338,
      "v": 98
    },
    {
      "midi": 67,
      "hit": false,
      "t": 120954.82409375039,
      "d": 381.3637395833357,
      "v": 104
    },
    {
      "midi": 65,
      "hit": false,
      "t": 120961.07595833372,
      "d": 387.6156041666691,
      "v": 106
    },
    {
      "midi": 55,
      "hit": false,
      "t": 121267.41732291706,
      "d": 1269.1285104166745,
      "v": 95
    },
    {
      "midi": 64,
      "hit": false,
      "t": 121586.26241666706,
      "d": 318.845093750002,
      "v": 107
    },
    {
      "midi": 52,
      "hit": false,
      "t": 121867.59632291706,
      "d": 318.845093750002,
      "v": 93
    },
    {
      "midi": 60,
      "hit": false,
      "t": 121898.85564583373,
      "d": 343.85255208333547,
      "v": 115
    },
    {
      "midi": 61,
      "hit": false,
      "t": 122161.43395833373,
      "d": 337.6006875000021,
      "v": 107
    },
    {
      "midi": 50,
      "hit": false,
      "t": 122442.76786458373,
      "d": 4313.786562500012,
      "v": 74
    },
    {
      "midi": 43,
      "hit": false,
      "t": 122449.01972916706,
      "d": 4257.519781250012,
      "v": 80
    },
    {
      "midi": 62,
      "hit": false,
      "t": 122467.77532291706,
      "d": 2263.174979166666,
      "v": 97
    },
    {
      "midi": 71,
      "hit": false,
      "t": 123374.2956875004,
      "d": 1500.4474999999948,
      "v": 77
    },
    {
      "midi": 55,
      "hit": false,
      "t": 124899.75064583373,
      "d": 1225.365458333341,
      "v": 97
    },
    {
      "midi": 79,
      "hit": false,
      "t": 125181.08455208373,
      "d": 1262.8766458333412,
      "v": 104
    },
    {
      "midi": 74,
      "hit": false,
      "t": 125756.2560937504,
      "d": 1244.121052083341,
      "v": 80
    },
    {
      "midi": 47,
      "hit": false,
      "t": 126025.08627083374,
      "d": 750.2237500000047,
      "v": 65
    },
    {
      "midi": 71,
      "hit": false,
      "t": 126350.18322916707,
      "d": 656.4457812500041,
      "v": 103
    },
    {
      "midi": 55,
      "hit": false,
      "t": 126637.76900000041,
      "d": 693.9569687500043,
      "v": 89
    },
    {
      "midi": 67,
      "hit": false,
      "t": 126975.36968750041,
      "d": 393.86746875000244,
      "v": 93
    },
    {
      "midi": 68,
      "hit": false,
      "t": 127237.94800000041,
      "d": 300.08950000000186,
      "v": 112
    },
    {
      "midi": 48,
      "hit": false,
      "t": 127269.20732291708,
      "d": 4420.068260416636,
      "v": 84
    },
    {
      "midi": 53,
      "hit": false,
      "t": 127275.45918750041,
      "d": 4338.794020833302,
      "v": 80
    },
    {
      "midi": 69,
      "hit": false,
      "t": 127306.71851041708,
      "d": 3919.919093749966,
      "v": 73
    },
    {
      "midi": 65,
      "hit": false,
      "t": 128188.23141666708,
      "d": 2063.1153124999983,
      "v": 93
    },
    {
      "midi": 60,
      "hit": false,
      "t": 128775.90668750042,
      "d": 1819.2925937499967,
      "v": 46
    },
    {
      "midi": 72,
      "hit": false,
      "t": 129970.01282291708,
      "d": 1219.113593749993,
      "v": 57
    },
    {
      "midi": 65,
      "hit": false,
      "t": 130532.68063541708,
      "d": 662.6976458333083,
      "v": 91
    },
    {
      "midi": 57,
      "hit": false,
      "t": 130907.79251041709,
      "d": 1169.0986770832387,
      "v": 93
    },
    {
      "midi": 60,
      "hit": false,
      "t": 131207.88201041706,
      "d": 631.4383229166269,
      "v": 123
    },
    {
      "midi": 61,
      "hit": false,
      "t": 131708.0311770837,
      "d": 368.8600104166253,
      "v": 75
    },
    {
      "midi": 62,
      "hit": false,
      "t": 132058.13559375034,
      "d": 1825.5444583332865,
      "v": 95
    },
    {
      "midi": 50,
      "hit": false,
      "t": 132058.13559375034,
      "d": 1913.0705624999537,
      "v": 69
    },
    {
      "midi": 43,
      "hit": false,
      "t": 132076.89118750033,
      "d": 1894.314968749968,
      "v": 55
    },
    {
      "midi": 67,
      "hit": false,
      "t": 132945.90036458365,
      "d": 931.5278229166579,
      "v": 66
    },
    {
      "midi": 65,
      "hit": false,
      "t": 133514.82004166697,
      "d": 350.10441666666884,
      "v": 76
    },
    {
      "midi": 55,
      "hit": false,
      "t": 133852.42072916697,
      "d": 712.7125624999753,
      "v": 74
    },
    {
      "midi": 50,
      "hit": false,
      "t": 134483.85905208363,
      "d": 2000.5966666665918,
      "v": 67
    },
    {
      "midi": 43,
      "hit": false,
      "t": 134496.3627812503,
      "d": 1944.329885416606,
      "v": 73
    },
    {
      "midi": 79,
      "hit": false,
      "t": 134502.61464583362,
      "d": 962.7871458333102,
      "v": 127
    },
    {
      "midi": 77,
      "hit": false,
      "t": 135371.62382291694,
      "d": 625.1864583333081,
      "v": 111
    },
    {
      "midi": 74,
      "hit": false,
      "t": 135984.30655208358,
      "d": 312.5932291666686,
      "v": 108
    },
    {
      "midi": 71,
      "hit": false,
      "t": 136271.89232291692,
      "d": 675.2013749999169,
      "v": 117
    },
    {
      "midi": 48,
      "hit": false,
      "t": 136865.81945833354,
      "d": 1894.314968749939,
      "v": 89
    },
    {
      "midi": 55,
      "hit": false,
      "t": 136884.57505208353,
      "d": 2406.9678645832755,
      "v": 93
    },
    {
      "midi": 72,
      "hit": false,
      "t": 136890.82691666685,
      "d": 2738.316687499959,
      "v": 100
    },
    {
      "midi": 67,
      "hit": false,
      "t": 137778.59168750016,
      "d": 2963.3838124999893,
      "v": 89
    },
    {
      "midi": 64,
      "hit": false,
      "t": 138422.53373958348,
      "d": 2306.9380312499998,
      "v": 43
    },
    {
      "midi": 48,
      "hit": false,
      "t": 139404.0764791668,
      "d": 1813.0407291666488,
      "v": 104
    },
    {
      "midi": 55,
      "hit": false,
      "t": 140541.91583333348,
      "d": 1275.3803749999206,
      "v": 108
    },
    {
      "midi": 60,
      "hit": false,
      "t": 140791.9904166668,
      "d": 350.10441666663974,
      "v": 127
    },
    {
      "midi": 61,
      "hit": false,
      "t": 141110.8355104168,
      "d": 606.4308645832643,
      "v": 127
    },
    {
      "midi": 62,
      "hit": false,
      "t": 141673.50332291677,
      "d": 1819.2925937499094,
      "v": 97
    },
    {
      "midi": 50,
      "hit": false,
      "t": 141679.7551875001,
      "d": 1931.8261562499101,
      "v": 76
    },
    {
      "midi": 43,
      "hit": false,
      "t": 141686.0070520834,
      "d": 1888.063104166591,
      "v": 84
    },
    {
      "midi": 67,
      "hit": false,
      "t": 142561.26809375006,
      "d": 950.2834166666144,
      "v": 76
    },
    {
      "midi": 65,
      "hit": false,
      "t": 143148.9433645834,
      "d": 337.600687499973,
      "v": 73
    },
    {
      "midi": 55,
      "hit": false,
      "t": 143480.29218750005,
      "d": 587.6752708332206,
      "v": 73
    },
    {
      "midi": 62,
      "hit": false,
      "t": 143761.62609375,
      "d": 4401.312666666345,
      "v": 66
    },
    {
      "midi": 67,
      "hit": false,
      "t": 143880.41152083332,
      "d": 1375.4102083332546,
      "v": 84
    },
    {
      "midi": 71,
      "hit": false,
      "t": 143905.41897916666,
      "d": 231.318989583262,
      "v": 88
    },
    {
      "midi": 50,
      "hit": false,
      "t": 144036.70813541664,
      "d": 2025.6041249998962,
      "v": 74
    },
    {
      "midi": 74,
      "hit": false,
      "t": 144055.46372916663,
      "d": 1988.092937499925,
      "v": 102
    },
    {
      "midi": 43,
      "hit": false,
      "t": 144061.71559374995,
      "d": 1950.581749999954,
      "v": 91
    },
    {
      "midi": 71,
      "hit": false,
      "t": 144974.4878229166,
      "d": 994.0464687499916,
      "v": 75
    },
    {
      "midi": 68,
      "hit": false,
      "t": 146431.1722708332,
      "d": 156.29661458326154,
      "v": 107
    },
    {
      "midi": 65,
      "hit": false,
      "t": 146443.67599999986,
      "d": 62.518645833275514,
      "v": 78
    },
    {
      "midi": 69,
      "hit": false,
      "t": 146443.67599999986,
      "d": 381.36373958326294,
      "v": 108
    },
    {
      "midi": 67,
      "hit": false,
      "t": 146449.92786458318,
      "d": 56.26678124995669,
      "v": 78
    },
    {
      "midi": 48,
      "hit": false,
      "t": 146456.1797291665,
      "d": 4376.305208333099,
      "v": 86
    },
    {
      "midi": 53,
      "hit": false,
      "t": 146462.43159374982,
      "d": 1287.8841041665582,
      "v": 80
    },
    {
      "midi": 68,
      "hit": false,
      "t": 146875.0546562498,
      "d": 81.27423958331929,
      "v": 107
    },
    {
      "midi": 69,
      "hit": false,
      "t": 146875.0546562498,
      "d": 362.6081458333065,
      "v": 97
    },
    {
      "midi": 69,
      "hit": false,
      "t": 147312.6851770831,
      "d": 306.3413645833207,
      "v": 95
    },
    {
      "midi": 68,
      "hit": false,
      "t": 147318.93704166642,
      "d": 100.02983333333395,
      "v": 107
    },
    {
      "midi": 69,
      "hit": false,
      "t": 147681.54518749975,
      "d": 969.0390104165999,
      "v": 91
    },
    {
      "midi": 68,
      "hit": false,
      "t": 147687.79705208307,
      "d": 87.5261041666381,
      "v": 103
    },
    {
      "midi": 57,
      "hit": false,
      "t": 147694.0489166664,
      "d": 1194.1061354166013,
      "v": 91
    },
    {
      "midi": 67,
      "hit": false,
      "t": 148094.1682499997,
      "d": 543.9122187499888,
      "v": 111
    },
    {
      "midi": 65,
      "hit": false,
      "t": 148463.02826041635,
      "d": 2194.404468749941,
      "v": 78
    },
    {
      "midi": 60,
      "hit": false,
      "t": 148806.88081249967,
      "d": 1300.3878333333123,
      "v": 111
    },
    {
      "midi": 69,
      "hit": false,
      "t": 148806.88081249967,
      "d": 1844.3000520833011,
      "v": 89
    },
    {
      "midi": 53,
      "hit": false,
      "t": 148831.888270833,
      "d": 1944.329885416606,
      "v": 74
    },
    {
      "midi": 57,
      "hit": false,
      "t": 149719.65304166632,
      "d": 1531.7068229166034,
      "v": 86
    },
    {
      "midi": 60,
      "hit": false,
      "t": 150657.4327291663,
      "d": 400.1193333333067,
      "v": 108
    },
    {
      "midi": 61,
      "hit": false,
      "t": 151007.53714583293,
      "d": 312.5932291666104,
      "v": 107
    },
    {
      "midi": 50,
      "hit": false,
      "t": 151282.61918749957,
      "d": 875.261041666643,
      "v": 71
    },
    {
      "midi": 43,
      "hit": false,
      "t": 151282.61918749957,
      "d": 881.5129062499618,
      "v": 80
    },
    {
      "midi": 62,
      "hit": false,
      "t": 151288.8710520829,
      "d": 4788.9282708332175,
      "v": 108
    },
    {
      "midi": 71,
      "hit": false,
      "t": 152164.13209374953,
      "d": 3863.652312499966,
      "v": 86
    },
    {
      "midi": 59,
      "hit": false,
      "t": 152176.6358229162,
      "d": 3082.169239583338,
      "v": 95
    },
    {
      "midi": 67,
      "hit": false,
      "t": 153645.82399999953,
      "d": 2375.7085416666523,
      "v": 67
    },
    {
      "midi": 65,
      "hit": false,
      "t": 154571.09995833287,
      "d": 1381.6620729166607,
      "v": 76
    },
    {
      "midi": 59,
      "hit": false,
      "t": 155452.61286458286,
      "d": 581.42340624996,
      "v": 79
    },
    {
      "midi": 60,
      "hit": false,
      "t": 156040.28813541614,
      "d": 1681.7515729166334,
      "v": 95
    },
    {
      "midi": 55,
      "hit": false,
      "t": 156040.28813541614,
      "d": 2600.7756666665664,
      "v": 73
    },
    {
      "midi": 48,
      "hit": false,
      "t": 156046.53999999946,
      "d": 2169.3970104166074,
      "v": 86
    },
    {
      "midi": 72,
      "hit": false,
      "t": 156940.5566354161,
      "d": 856.5054479166574,
      "v": 95
    },
    {
      "midi": 67,
      "hit": false,
      "t": 157534.48377083277,
      "d": 2582.02007291661,
      "v": 59
    },
    {
      "midi": 60,
      "hit": false,
      "t": 157840.8251354161,
      "d": 1713.0108958332858,
      "v": 78
    },
    {
      "midi": 65,
      "hit": false,
      "t": 157859.58072916607,
      "d": 550.1640833333076,
      "v": 108
    },
    {
      "midi": 48,
      "hit": false,
      "t": 158478.51532291604,
      "d": 1869.3075104166637,
      "v": 74
    },
    {
      "midi": 64,
      "hit": false,
      "t": 158503.52278124937,
      "d": 1537.9586875000095,
      "v": 84
    },
    {
      "midi": 55,
      "hit": false,
      "t": 159366.28009374937,
      "d": 1494.1956354166032,
      "v": 86
    },
    {
      "midi": 67,
      "hit": false,
      "t": 160772.94962499937,
      "d": 1012.802062499919,
      "v": 63
    },
    {
      "midi": 71,
      "hit": false,
      "t": 160816.7126770827,
      "d": 1012.802062499919,
      "v": 103
    },
    {
      "midi": 50,
      "hit": false,
      "t": 160847.97199999934,
      "d": 1913.0705624998664,
      "v": 70
    },
    {
      "midi": 43,
      "hit": false,
      "t": 160854.22386458266,
      "d": 2088.122770833201,
      "v": 80
    },
    {
      "midi": 79,
      "hit": false,
      "t": 160935.49810416598,
      "d": 1756.7739479166048,
      "v": 106
    },
    {
      "midi": 74,
      "hit": false,
      "t": 161754.49236458263,
      "d": 987.7946041665855,
      "v": 78
    },
    {
      "midi": 47,
      "hit": false,
      "t": 161760.74422916595,
      "d": 1125.3356249999197,
      "v": 56
    },
    {
      "midi": 71,
      "hit": false,
      "t": 162404.68628124928,
      "d": 343.8525520832627,
      "v": 103
    },
    {
      "midi": 55,
      "hit": false,
      "t": 162686.02018749926,
      "d": 612.682729166525,
      "v": 82
    },
    {
      "midi": 69,
      "hit": false,
      "t": 162723.53137499923,
      "d": 318.8450937499292,
      "v": 104
    },
    {
      "midi": 71,
      "hit": false,
      "t": 162986.10968749918,
      "d": 1256.624781249935,
      "v": 107
    },
    {
      "midi": 50,
      "hit": false,
      "t": 163273.69545833248,
      "d": 1863.0556458332576,
      "v": 71
    },
    {
      "midi": 43,
      "hit": false,
      "t": 163273.69545833248,
      "d": 1888.063104166591,
      "v": 76
    },
    {
      "midi": 67,
      "hit": false,
      "t": 163279.9473229158,
      "d": 1350.4027499999793,
      "v": 97
    },
    {
      "midi": 62,
      "hit": false,
      "t": 163292.45105208247,
      "d": 1456.684447916632,
      "v": 108
    },
    {
      "midi": 74,
      "hit": false,
      "t": 164148.95649999913,
      "d": 662.6976458333083,
      "v": 89
    },
    {
      "midi": 71,
      "hit": false,
      "t": 164542.82396874912,
      "d": 568.9196770832932,
      "v": 72
    },
    {
      "midi": 67,
      "hit": false,
      "t": 164761.63922916577,
      "d": 343.8525520833209,
      "v": 73
    },
    {
      "midi": 55,
      "hit": false,
      "t": 165067.9805937491,
      "d": 637.6901874999458,
      "v": 93
    },
    {
      "midi": 62,
      "hit": false,
      "t": 165080.48432291576,
      "d": 362.6081458333065,
      "v": 102
    },
    {
      "midi": 64,
      "hit": false,
      "t": 165343.06263541573,
      "d": 387.61560416663997,
      "v": 95
    },
    {
      "midi": 60,
      "hit": false,
      "t": 165655.6558645824,
      "d": 2031.8559895833023,
      "v": 104
    },
    {
      "midi": 53,
      "hit": false,
      "t": 165661.90772916572,
      "d": 1087.8244374999776,
      "v": 78
    },
    {
      "midi": 65,
      "hit": false,
      "t": 165668.15959374903,
      "d": 1794.2851354166633,
      "v": 86
    },
    {
      "midi": 48,
      "hit": false,
      "t": 165668.15959374903,
      "d": 1894.3149687499972,
      "v": 86
    },
    {
      "midi": 57,
      "hit": false,
      "t": 166599.6874166657,
      "d": 1437.9288541666465,
      "v": 70
    },
    {
      "midi": 43,
      "hit": false,
      "t": 168012.60881249903,
      "d": 1963.0854791665915,
      "v": 49
    },
    {
      "midi": 50,
      "hit": false,
      "t": 168018.86067708235,
      "d": 1956.8336145832727,
      "v": 67
    },
    {
      "midi": 62,
      "hit": false,
      "t": 168337.70577083234,
      "d": 1337.8990208333125,
      "v": 66
    },
    {
      "midi": 55,
      "hit": false,
      "t": 168656.55086458233,
      "d": 1800.5369999999239,
      "v": 60
    },
    {
      "midi": 74,
      "hit": false,
      "t": 168944.13663541566,
      "d": 1025.305791666644,
      "v": 93
    },
    {
      "midi": 67,
      "hit": false,
      "t": 168950.38849999898,
      "d": 981.5427395833249,
      "v": 80
    },
    {
      "midi": 71,
      "hit": false,
      "t": 169563.07122916565,
      "d": 418.8749270832923,
      "v": 72
    },
    {
      "midi": 62,
      "hit": false,
      "t": 169875.66445833232,
      "d": 468.88984374993015,
      "v": 74
    },
    {
      "midi": 64,
      "hit": false,
      "t": 170188.25768749893,
      "d": 2113.1302291665925,
      "v": 79
    },
    {
      "midi": 67,
      "hit": false,
      "t": 170482.0953229156,
      "d": 881.5129062499618,
      "v": 76
    },
    {
      "midi": 48,
      "hit": false,
      "t": 170482.0953229156,
      "d": 1894.31496874991,
      "v": 102
    },
    {
      "midi": 60,
      "hit": false,
      "t": 170488.3471874989,
      "d": 1569.2180104166328,
      "v": 102
    },
    {
      "midi": 55,
      "hit": false,
      "t": 171332.3489062489,
      "d": 1125.3356249999197,
      "v": 73
    },
    {
      "midi": 72,
      "hit": false,
      "t": 171363.60822916555,
      "d": 1412.9213958332548,
      "v": 84
    },
    {
      "midi": 67,
      "hit": false,
      "t": 171957.5353645822,
      "d": 412.62306249997346,
      "v": 73
    },
    {
      "midi": 43,
      "hit": false,
      "t": 172795.2852187488,
      "d": 2000.5966666665336,
      "v": 89
    },
    {
      "midi": 62,
      "hit": false,
      "t": 172807.78894791545,
      "d": 237.57085416663904,
      "v": 104
    },
    {
      "midi": 67,
      "hit": false,
      "t": 172814.04081249877,
      "d": 881.5129062499618,
      "v": 106
    },
    {
      "midi": 50,
      "hit": false,
      "t": 172814.04081249877,
      "d": 1994.3448020832147,
      "v": 82
    },
    {
      "midi": 71,
      "hit": false,
      "t": 172820.2926770821,
      "d": 568.9196770833223,
      "v": 112
    },
    {
      "midi": 55,
      "hit": false,
      "t": 173420.47167708207,
      "d": 431.3786562499881,
      "v": 73
    },
    {
      "midi": 47,
      "hit": false,
      "t": 173770.57609374874,
      "d": 1037.8095208332525,
      "v": 68
    },
    {
      "midi": 76,
      "hit": false,
      "t": 174420.77001041538,
      "d": 300.08949999994365,
      "v": 112
    },
    {
      "midi": 67,
      "hit": false,
      "t": 174433.27373958204,
      "d": 218.81526041665347,
      "v": 86
    },
    {
      "midi": 65,
      "hit": false,
      "t": 174433.27373958204,
      "d": 231.31898958332022,
      "v": 86
    },
    {
      "midi": 55,
      "hit": false,
      "t": 174708.35578124868,
      "d": 643.9420520832646,
      "v": 73
    },
    {
      "midi": 74,
      "hit": false,
      "t": 174714.607645832,
      "d": 600.1789999999455,
      "v": 76
    },
    {
      "midi": 65,
      "hit": false,
      "t": 174733.363239582,
      "d": 462.63797916666954,
      "v": 95
    },
    {
      "midi": 72,
      "hit": false,
      "t": 175264.7717291653,
      "d": 2256.9231145832746,
      "v": 70
    },
    {
      "midi": 64,
      "hit": false,
      "t": 175296.03105208196,
      "d": 4157.489947916591,
      "v": 100
    },
    {
      "midi": 48,
      "hit": false,
      "t": 175314.78664583195,
      "d": 1938.0780208333163,
      "v": 104
    },
    {
      "midi": 55,
      "hit": false,
      "t": 176190.04768749862,
      "d": 2356.9529479166085,
      "v": 78
    },
    {
      "midi": 67,
      "hit": false,
      "t": 176733.9599062486,
      "d": 2725.812958333263,
      "v": 82
    },
    {
      "midi": 60,
      "hit": false,
      "t": 177615.47281249857,
      "d": 1181.6024062499928,
      "v": 95
    },
    {
      "midi": 52,
      "hit": false,
      "t": 178484.4819895819,
      "d": 1569.2180104166328,
      "v": 77
    },
    {
      "midi": 72,
      "hit": false,
      "t": 179153.43149999855,
      "d": 300.08950000000186,
      "v": 78
    },
    {
      "midi": 60,
      "hit": false,
      "t": 179453.52099999855,
      "d": 362.6081458333065,
      "v": 119
    },
    {
      "midi": 61,
      "hit": false,
      "t": 179734.85490624854,
      "d": 356.35628124995856,
      "v": 112
    },
    {
      "midi": 43,
      "hit": false,
      "t": 180059.95186458185,
      "d": 1906.8186979166057,
      "v": 78
    },
    {
      "midi": 55,
      "hit": false,
      "t": 180072.4555937485,
      "d": 1006.5501979166293,
      "v": 54
    },
    {
      "midi": 62,
      "hit": false,
      "t": 180078.70745833183,
      "d": 2294.434302083275,
      "v": 106
    },
    {
      "midi": 67,
      "hit": false,
      "t": 180985.22782291516,
      "d": 1537.9586874998931,
      "v": 89
    },
    {
      "midi": 50,
      "hit": false,
      "t": 180991.47968749847,
      "d": 1019.053927083296,
      "v": 82
    },
    {
      "midi": 65,
      "hit": false,
      "t": 181585.40682291513,
      "d": 956.5352812499041,
      "v": 82
    },
    {
      "midi": 55,
      "hit": false,
      "t": 181885.49632291513,
      "d": 625.1864583332499,
      "v": 73
    },
    {
      "midi": 62,
      "hit": false,
      "t": 182454.41599999843,
      "d": 1825.5444583331991,
      "v": 73
    },
    {
      "midi": 59,
      "hit": false,
      "t": 182460.66786458174,
      "d": 1775.5295416665613,
      "v": 72
    },
    {
      "midi": 50,
      "hit": false,
      "t": 182466.91972916506,
      "d": 1831.796322916547,
      "v": 67
    },
    {
      "midi": 71,
      "hit": false,
      "t": 182491.9271874984,
      "d": 1412.921395833284,
      "v": 91
    },
    {
      "midi": 43,
      "hit": false,
      "t": 182498.17905208172,
      "d": 1819.2925937498803,
      "v": 76
    },
    {
      "midi": 67,
      "hit": false,
      "t": 183310.92144791503,
      "d": 919.024093749962,
      "v": 52
    },
    {
      "midi": 47,
      "hit": false,
      "t": 183342.18077083168,
      "d": 1006.550197916571,
      "v": 64
    },
    {
      "midi": 65,
      "hit": false,
      "t": 183923.60417708167,
      "d": 325.09695833330625,
      "v": 74
    },
    {
      "midi": 55,
      "hit": false,
      "t": 184217.44181249832,
      "d": 668.9495104165399,
      "v": 80
    },
    {
      "midi": 60,
      "hit": false,
      "t": 184842.62827083157,
      "d": 1575.4698749998643,
      "v": 74
    },
    {
      "midi": 69,
      "hit": false,
      "t": 184855.13199999824,
      "d": 950.2834166665561,
      "v": 71
    },
    {
      "midi": 65,
      "hit": false,
      "t": 184855.13199999824,
      "d": 1875.559374999808,
      "v": 67
    },
    {
      "midi": 70,
      "hit": false,
      "t": 184861.38386458156,
      "d": 131.28915624995716,
      "v": 76
    },
    {
      "midi": 67,
      "hit": false,
      "t": 184867.63572916487,
      "d": 112.5335624999716,
      "v": 73
    },
    {
      "midi": 53,
      "hit": false,
      "t": 184873.8875937482,
      "d": 912.7722291666141,
      "v": 70
    },
    {
      "midi": 48,
      "hit": false,
      "t": 184873.8875937482,
      "d": 1881.811239583185,
      "v": 64
    },
    {
      "midi": 57,
      "hit": false,
      "t": 185724.1411770815,
      "d": 1531.706822916516,
      "v": 73
    },
    {
      "midi": 72,
      "hit": false,
      "t": 185730.39304166482,
      "d": 831.4979895832657,
      "v": 89
    },
    {
      "midi": 69,
      "hit": false,
      "t": 186361.83136458145,
      "d": 362.6081458332774,
      "v": 73
    },
    {
      "midi": 60,
      "hit": false,
      "t": 186680.6764583314,
      "d": 406.37119791662553,
      "v": 80
    },
    {
      "midi": 62,
      "hit": false,
      "t": 187255.84799999802,
      "d": 231.318989583262,
      "v": 93
    },
    {
      "midi": 43,
      "hit": false,
      "t": 187262.09986458134,
      "d": 212.56339583327645,
      "v": 86
    },
    {
      "midi": 50,
      "hit": false,
      "t": 187268.35172916466,
      "d": 181.30407291662414,
      "v": 76
    },
    {
      "midi": 67,
      "hit": false,
      "t": 187274.60359374798,
      "d": 225.0671249999723,
      "v": 89
    },
    {
      "midi": 59,
      "hit": false,
      "t": 187274.60359374798,
      "d": 237.57085416663904,
      "v": 103
    },
    {
      "midi": 65,
      "hit": false,
      "t": 187293.35918749796,
      "d": 56.2667812499858,
      "v": 73
    },
    {
      "midi": 64,
      "hit": false,
      "t": 189669.0677291646,
      "d": 1763.0258124999236,
      "v": 100
    },
    {
      "midi": 67,
      "hit": false,
      "t": 189675.31959374793,
      "d": 956.5352812499623,
      "v": 76
    },
    {
      "midi": 60,
      "hit": false,
      "t": 189675.31959374793,
      "d": 1688.0034374999523,
      "v": 93
    },
    {
      "midi": 48,
      "hit": false,
      "t": 189681.57145833125,
      "d": 1869.3075104166055,
      "v": 97
    },
    {
      "midi": 55,
      "hit": false,
      "t": 190538.0769062479,
      "d": 1569.2180104165454,
      "v": 78
    },
    {
      "midi": 72,
      "hit": false,
      "t": 190588.09182291458,
      "d": 662.6976458333083,
      "v": 86
    },
    {
      "midi": 67,
      "hit": false,
      "t": 191169.51522916456,
      "d": 425.1267916666111,
      "v": 73
    },
    {
      "midi": 69,
      "hit": false,
      "t": 191494.61218749787,
      "d": 343.8525520832918,
      "v": 80
    },
    {
      "midi": 62,
      "hit": false,
      "t": 191782.19795833118,
      "d": 300.08949999994365,
      "v": 62
    },
    {
      "midi": 50,
      "hit": false,
      "t": 192063.53186458116,
      "d": 1850.5519166665326,
      "v": 69
    },
    {
      "midi": 43,
      "hit": false,
      "t": 192069.78372916448,
      "d": 1869.3075104165473,
      "v": 84
    },
    {
      "midi": 67,
      "hit": false,
      "t": 192076.0355937478,
      "d": 894.0166354166286,
      "v": 95
    },
    {
      "midi": 71,
      "hit": false,
      "t": 192082.28745833112,
      "d": 318.8450937499874,
      "v": 107
    },
    {
      "midi": 55,
      "hit": false,
      "t": 192701.2220520811,
      "d": 656.4457812499604,
      "v": 95
    },
    {
      "midi": 71,
      "hit": false,
      "t": 192976.30409374775,
      "d": 1206.609864583268,
      "v": 79
    },
    {
      "midi": 79,
      "hit": false,
      "t": 192995.05968749773,
      "d": 1231.6173229166016,
      "v": 100
    },
    {
      "midi": 77,
      "hit": false,
      "t": 193570.2312291644,
      "d": 675.2013749999169,
      "v": 76
    },
    {
      "midi": 74,
      "hit": false,
      "t": 193864.06886458106,
      "d": 387.61560416658176,
      "v": 91
    },
    {
      "midi": 55,
      "hit": false,
      "t": 193870.32072916438,
      "d": 643.9420520832355,
      "v": 91
    },
    {
      "midi": 67,
      "hit": false,
      "t": 194176.6620937477,
      "d": 1631.7366562499083,
      "v": 67
    },
    {
      "midi": 48,
      "hit": false,
      "t": 194476.75159374764,
      "d": 1894.314968749939,
      "v": 95
    },
    {
      "midi": 72,
      "hit": false,
      "t": 194483.00345833096,
      "d": 1175.3505416666449,
      "v": 95
    },
    {
      "midi": 76,
      "hit": false,
      "t": 194489.25532291428,
      "d": 1156.5949479166593,
      "v": 107
    },
    {
      "midi": 55,
      "hit": false,
      "t": 195408.27941666427,
      "d": 1512.9512291665887,
      "v": 80
    },
    {
      "midi": 66,
      "hit": false,
      "t": 195970.94722916427,
      "d": 93.77796874998603,
      "v": 100
    },
    {
      "midi": 67,
      "hit": false,
      "t": 195977.1990937476,
      "d": 806.4905312499614,
      "v": 106
    },
    {
      "midi": 52,
      "hit": false,
      "t": 196283.5404583309,
      "d": 443.88238541665487,
      "v": 84
    },
    {
      "midi": 64,
      "hit": false,
      "t": 196527.3631770809,
      "d": 112.5335625000007,
      "v": 112
    },
    {
      "midi": 65,
      "hit": false,
      "t": 196539.86690624757,
      "d": 268.83017708332045,
      "v": 100
    },
    {
      "midi": 64,
      "hit": false,
      "t": 196796.19335416422,
      "d": 1637.9885208332853,
      "v": 122
    },
    {
      "midi": 48,
      "hit": false,
      "t": 196839.95640624754,
      "d": 2031.8559895833023,
      "v": 100
    },
    {
      "midi": 67,
      "hit": false,
      "t": 197771.4842291642,
      "d": 1575.4698749999516,
      "v": 78
    },
    {
      "midi": 55,
      "hit": false,
      "t": 197796.49168749753,
      "d": 1519.2030937499658,
      "v": 100
    },
    {
      "midi": 60,
      "hit": false,
      "t": 198415.42628124752,
      "d": 650.1939166666416,
      "v": 111
    },
    {
      "midi": 61,
      "hit": false,
      "t": 198984.34595833084,
      "d": 343.8525520833209,
      "v": 79
    },
    {
      "midi": 43,
      "hit": false,
      "t": 199290.68732291416,
      "d": 1794.285135416605,
      "v": 74
    },
    {
      "midi": 50,
      "hit": false,
      "t": 199303.19105208083,
      "d": 1806.7888645832718,
      "v": 71
    },
    {
      "midi": 62,
      "hit": false,
      "t": 199303.19105208083,
      "d": 2294.434302083275,
      "v": 97
    },
    {
      "midi": 71,
      "hit": false,
      "t": 200153.44463541414,
      "d": 662.6976458333083,
      "v": 88
    },
    {
      "midi": 47,
      "hit": false,
      "t": 200172.20022916413,
      "d": 987.7946041666437,
      "v": 70
    },
    {
      "midi": 67,
      "hit": false,
      "t": 200728.61617708078,
      "d": 568.9196770833223,
      "v": 47
    },
    {
      "midi": 65,
      "hit": false,
      "t": 200791.13482291411,
      "d": 818.9942604166572,
      "v": 67
    },
    {
      "midi": 55,
      "hit": false,
      "t": 201066.21686458078,
      "d": 693.9569687499315,
      "v": 86
    },
    {
      "midi": 62,
      "hit": false,
      "t": 201660.14399999744,
      "d": 1888.063104166591,
      "v": 86
    },
    {
      "midi": 59,
      "hit": false,
      "t": 201666.39586458076,
      "d": 693.9569687499607,
      "v": 72
    },
    {
      "midi": 65,
      "hit": false,
      "t": 201672.64772916408,
      "d": 900.2684999999765,
      "v": 76
    },
    {
      "midi": 50,
      "hit": false,
      "t": 201678.8995937474,
      "d": 1906.8186979166057,
      "v": 62
    },
    {
      "midi": 43,
      "hit": false,
      "t": 201697.65518749738,
      "d": 1944.329885416606,
      "v": 55
    },
    {
      "midi": 55,
      "hit": false,
      "t": 202247.81927083072,
      "d": 756.4756145833235,
      "v": 66
    },
    {
      "midi": 59,
      "hit": false,
      "t": 202535.40504166405,
      "d": 1037.8095208333107,
      "v": 88
    },
    {
      "midi": 71,
      "hit": false,
      "t": 202535.40504166405,
      "d": 1044.0613854166295,
      "v": 86
    },
    {
      "midi": 47,
      "hit": false,
      "t": 202991.79115624737,
      "d": 625.186458333279,
      "v": 37
    },
    {
      "midi": 67,
      "hit": false,
      "t": 203154.33963541404,
      "d": 368.8600104166544,
      "v": 66
    },
    {
      "midi": 65,
      "hit": false,
      "t": 203254.36946874738,
      "d": 218.81526041665347,
      "v": 19
    },
    {
      "midi": 55,
      "hit": false,
      "t": 203485.6884583307,
      "d": 575.171541666612,
      "v": 93
    },
    {
      "midi": 55,
      "hit": false,
      "t": 204060.8599999973,
      "d": 1700.5071666666481,
      "v": 115
    },
    {
      "midi": 72,
      "hit": false,
      "t": 204060.8599999973,
      "d": 1719.2627604166337,
      "v": 115
    },
    {
      "midi": 69,
      "hit": false,
      "t": 204060.8599999973,
      "d": 1725.5146249999525,
      "v": 111
    },
    {
      "midi": 77,
      "hit": false,
      "t": 204060.8599999973,
      "d": 1731.7664895832713,
      "v": 102
    },
    {
      "midi": 57,
      "hit": false,
      "t": 204067.11186458063,
      "d": 1744.270218749938,
      "v": 104
    },
    {
      "midi": 43,
      "hit": false,
      "t": 206461.57599999724,
      "d": 856.5054479166283,
      "v": 91
    },
    {
      "midi": 50,
      "hit": false,
      "t": 206467.82786458055,
      "d": 862.7573124999763,
      "v": 67
    },
    {
      "midi": 67,
      "hit": false,
      "t": 206474.07972916387,
      "d": 1519.2030937499658,
      "v": 123
    },
    {
      "midi": 62,
      "hit": false,
      "t": 206480.3315937472,
      "d": 1494.1956354166614,
      "v": 123
    },
    {
      "midi": 60,
      "hit": false,
      "t": 208862.29199999716,
      "d": 1869.3075104166055,
      "v": 64
    },
    {
      "midi": 57,
      "hit": false,
      "t": 208862.29199999716,
      "d": 1875.5593749999243,
      "v": 63
    },
    {
      "midi": 53,
      "hit": false,
      "t": 208868.54386458048,
      "d": 1881.8112395832723,
      "v": 69
    },
    {
      "midi": 81,
      "hit": false,
      "t": 208899.80318749713,
      "d": 881.5129062499909,
      "v": 115
    },
    {
      "midi": 83,
      "hit": false,
      "t": 209762.56049999714,
      "d": 962.7871458333102,
      "v": 122
    },
    {
      "midi": 84,
      "hit": false,
      "t": 210669.08086458046,
      "d": 618.9345937499602,
      "v": 102
    },
    {
      "midi": 52,
      "hit": false,
      "t": 211275.51172916376,
      "d": 1969.3373437499104,
      "v": 75
    },
    {
      "midi": 59,
      "hit": false,
      "t": 211288.01545833042,
      "d": 1944.3298854165769,
      "v": 60
    },
    {
      "midi": 79,
      "hit": false,
      "t": 211294.26732291374,
      "d": 962.7871458332811,
      "v": 111
    },
    {
      "midi": 55,
      "hit": false,
      "t": 211300.51918749706,
      "d": 518.9047604166553,
      "v": 86
    },
    {
      "midi": 55,
      "hit": false,
      "t": 212188.28395833037,
      "d": 1031.5576562499627,
      "v": 80
    },
    {
      "midi": 76,
      "hit": false,
      "t": 212219.54328124702,
      "d": 919.0240937499912,
      "v": 75
    },
    {
      "midi": 77,
      "hit": false,
      "t": 213076.04872916368,
      "d": 650.1939166666416,
      "v": 76
    },
    {
      "midi": 48,
      "hit": false,
      "t": 213669.97586458034,
      "d": 2094.3746354165487,
      "v": 80
    },
    {
      "midi": 76,
      "hit": false,
      "t": 213676.22772916366,
      "d": 418.8749270833214,
      "v": 77
    },
    {
      "midi": 55,
      "hit": false,
      "t": 213982.56909374698,
      "d": 4482.5869062498095,
      "v": 91
    },
    {
      "midi": 60,
      "hit": false,
      "t": 214301.41418749696,
      "d": 306.3413645833207,
      "v": 111
    },
    {
      "midi": 64,
      "hit": false,
      "t": 214601.50368749697,
      "d": 350.10441666663974,
      "v": 107
    },
    {
      "midi": 67,
      "hit": false,
      "t": 214907.8450520803,
      "d": 281.3339062499581,
      "v": 91
    },
    {
      "midi": 72,
      "hit": false,
      "t": 215170.42336458026,
      "d": 262.5783124999725,
      "v": 95
    },
    {
      "midi": 76,
      "hit": false,
      "t": 215483.0165937469,
      "d": 412.62306249994435,
      "v": 122
    },
    {
      "midi": 79,
      "hit": false,
      "t": 215783.10609374687,
      "d": 375.111874999915,
      "v": 86
    },
    {
      "midi": 78,
      "hit": false,
      "t": 215789.3579583302,
      "d": 25.00745833333349,
      "v": 75
    },
    {
      "midi": 48,
      "hit": false,
      "t": 216051.93627083016,
      "d": 2413.2197291666234,
      "v": 93
    },
    {
      "midi": 76,
      "hit": false,
      "t": 216064.43999999683,
      "d": 2400.7159999999567,
      "v": 112
    },
    {
      "midi": 72,
      "hit": false,
      "t": 216070.69186458015,
      "d": 2394.464135416638,
      "v": 106
    },
    {
      "midi": 84,
      "hit": false,
      "t": 216076.94372916347,
      "d": 2388.212270833319,
      "v": 106
    }
  ]
}