{
  "jsonPath": "Pop/Afropop/Soweto String Quartet/bossa-baroque.json",
  "path": "Pop\\Afropop\\Soweto String Quartet\\Bossa Baroque.mid",
  "name": "Bossa Baroque",
  "difficulty": "Intermediate",
  "bpm": 83.0000650167176,
  "notes": [
    {
      "midi": 86,
      "hit": false,
      "t": 2168.673,
      "d": 1076.8063854166667,
      "v": 113
    },
    {
      "midi": 62,
      "hit": false,
      "t": 2891.564,
      "d": 722.8910000000001,
      "v": 95
    },
    {
      "midi": 70,
      "hit": false,
      "t": 2891.564,
      "d": 722.8910000000001,
      "v": 95
    },
    {
      "midi": 79,
      "hit": false,
      "t": 2891.564,
      "d": 722.8910000000001,
      "v": 95
    },
    {
      "midi": 85,
      "hit": false,
      "t": 3200.2986979166662,
      "d": 399.09607291666725,
      "v": 104
    },
    {
      "midi": 86,
      "hit": false,
      "t": 3584.3345416666666,
      "d": 323.79492708333373,
      "v": 109
    },
    {
      "midi": 89,
      "hit": false,
      "t": 3930.7198125000004,
      "d": 399.09607291666634,
      "v": 92
    },
    {
      "midi": 88,
      "hit": false,
      "t": 4314.75565625,
      "d": 1121.9870729166669,
      "v": 117
    },
    {
      "midi": 64,
      "hit": false,
      "t": 5060.237,
      "d": 1445.7820000000002,
      "v": 95
    },
    {
      "midi": 67,
      "hit": false,
      "t": 5060.237,
      "d": 1445.7820000000002,
      "v": 95
    },
    {
      "midi": 72,
      "hit": false,
      "t": 5060.237,
      "d": 1445.7820000000002,
      "v": 95
    },
    {
      "midi": 86,
      "hit": false,
      "t": 5391.562041666667,
      "d": 338.8551562500006,
      "v": 111
    },
    {
      "midi": 88,
      "hit": false,
      "t": 5753.007541666668,
      "d": 90.36137500000041,
      "v": 88
    },
    {
      "midi": 86,
      "hit": false,
      "t": 5888.549604166668,
      "d": 30.120458333333772,
      "v": 76
    },
    {
      "midi": 88,
      "hit": false,
      "t": 5956.320635416669,
      "d": 75.30114583333307,
      "v": 88
    },
    {
      "midi": 86,
      "hit": false,
      "t": 6054.212125000002,
      "d": 60.240916666666635,
      "v": 84
    },
    {
      "midi": 88,
      "hit": false,
      "t": 6137.043385416669,
      "d": 240.96366666666654,
      "v": 88
    },
    {
      "midi": 86,
      "hit": false,
      "t": 6355.416708333335,
      "d": 331.32504166666695,
      "v": 94
    },
    {
      "midi": 84,
      "hit": false,
      "t": 6679.211635416668,
      "d": 888.553520833334,
      "v": 106
    },
    {
      "midi": 69,
      "hit": false,
      "t": 7228.91,
      "d": 1445.7819999999992,
      "v": 95
    },
    {
      "midi": 72,
      "hit": false,
      "t": 7228.91,
      "d": 1445.7819999999992,
      "v": 95
    },
    {
      "midi": 77,
      "hit": false,
      "t": 7228.91,
      "d": 1445.7819999999992,
      "v": 95
    },
    {
      "midi": 83,
      "hit": false,
      "t": 7545.174812500002,
      "d": 414.1563020833337,
      "v": 117
    },
    {
      "midi": 84,
      "hit": false,
      "t": 7929.210656250002,
      "d": 301.2045833333332,
      "v": 113
    },
    {
      "midi": 88,
      "hit": false,
      "t": 8260.535697916668,
      "d": 376.50572916666533,
      "v": 106
    },
    {
      "midi": 86,
      "hit": false,
      "t": 8674.692000000001,
      "d": 1114.4569583333341,
      "v": 106
    },
    {
      "midi": 62,
      "hit": false,
      "t": 9397.582999999999,
      "d": 1445.7819999999992,
      "v": 95
    },
    {
      "midi": 65,
      "hit": false,
      "t": 9397.582999999999,
      "d": 1445.7819999999992,
      "v": 95
    },
    {
      "midi": 82,
      "hit": false,
      "t": 9397.582999999999,
      "d": 1445.7819999999992,
      "v": 95
    },
    {
      "midi": 85,
      "hit": false,
      "t": 9728.908041666667,
      "d": 323.7949270833342,
      "v": 92
    },
    {
      "midi": 86,
      "hit": false,
      "t": 10075.293312500002,
      "d": 120.48183333333327,
      "v": 98
    },
    {
      "midi": 84,
      "hit": false,
      "t": 10218.365489583335,
      "d": 90.36137500000041,
      "v": 98
    },
    {
      "midi": 86,
      "hit": false,
      "t": 10331.317208333336,
      "d": 82.83126041666583,
      "v": 92
    },
    {
      "midi": 84,
      "hit": false,
      "t": 10421.678583333334,
      "d": 384.0358437499999,
      "v": 109
    },
    {
      "midi": 82,
      "hit": false,
      "t": 10911.13603125,
      "d": 941.2643229166661,
      "v": 113
    },
    {
      "midi": 62,
      "hit": false,
      "t": 11566.255999999998,
      "d": 1445.7819999999992,
      "v": 95
    },
    {
      "midi": 70,
      "hit": false,
      "t": 11566.255999999998,
      "d": 1445.7819999999992,
      "v": 95
    },
    {
      "midi": 79,
      "hit": false,
      "t": 11566.255999999998,
      "d": 1445.7819999999992,
      "v": 95
    },
    {
      "midi": 81,
      "hit": false,
      "t": 11859.930468749999,
      "d": 384.0358437499999,
      "v": 98
    },
    {
      "midi": 82,
      "hit": false,
      "t": 12191.255510416666,
      "d": 323.79492708333237,
      "v": 104
    },
    {
      "midi": 86,
      "hit": false,
      "t": 12522.580552083331,
      "d": 451.8068750000002,
      "v": 109
    },
    {
      "midi": 85,
      "hit": false,
      "t": 12959.327197916664,
      "d": 1152.1075312500016,
      "v": 109
    },
    {
      "midi": 61,
      "hit": false,
      "t": 13734.928999999996,
      "d": 1445.7819999999992,
      "v": 95
    },
    {
      "midi": 64,
      "hit": false,
      "t": 13734.928999999996,
      "d": 1445.7819999999992,
      "v": 95
    },
    {
      "midi": 81,
      "hit": false,
      "t": 13734.928999999996,
      "d": 1445.7819999999992,
      "v": 95
    },
    {
      "midi": 82,
      "hit": false,
      "t": 14088.844385416665,
      "d": 361.4454999999998,
      "v": 88
    },
    {
      "midi": 85,
      "hit": false,
      "t": 14442.759770833332,
      "d": 195.78297916666634,
      "v": 94
    },
    {
      "midi": 82,
      "hit": false,
      "t": 14631.012635416666,
      "d": 542.1682499999988,
      "v": 96
    },
    {
      "midi": 81,
      "hit": false,
      "t": 15128.000197916665,
      "d": 881.0234062500003,
      "v": 96
    },
    {
      "midi": 65,
      "hit": false,
      "t": 15903.601999999995,
      "d": 1445.7819999999992,
      "v": 95
    },
    {
      "midi": 69,
      "hit": false,
      "t": 15903.601999999995,
      "d": 1445.7819999999992,
      "v": 95
    },
    {
      "midi": 74,
      "hit": false,
      "t": 15903.601999999995,
      "d": 1445.7819999999992,
      "v": 95
    },
    {
      "midi": 81,
      "hit": false,
      "t": 16257.517385416664,
      "d": 308.734697916665,
      "v": 113
    },
    {
      "midi": 82,
      "hit": false,
      "t": 16596.372541666664,
      "d": 97.89148958333317,
      "v": 88
    },
    {
      "midi": 81,
      "hit": false,
      "t": 16716.854374999995,
      "d": 82.83126041666765,
      "v": 84
    },
    {
      "midi": 82,
      "hit": false,
      "t": 16822.27597916666,
      "d": 112.95171874999869,
      "v": 88
    },
    {
      "midi": 81,
      "hit": false,
      "t": 16942.757812499993,
      "d": 331.32504166666695,
      "v": 83
    },
    {
      "midi": 81,
      "hit": false,
      "t": 17341.853885416658,
      "d": 1144.577416666667,
      "v": 113
    },
    {
      "midi": 61,
      "hit": false,
      "t": 18072.274999999994,
      "d": 1445.7819999999992,
      "v": 95
    },
    {
      "midi": 64,
      "hit": false,
      "t": 18072.274999999994,
      "d": 1445.7819999999992,
      "v": 95
    },
    {
      "midi": 81,
      "hit": false,
      "t": 18072.274999999994,
      "d": 1445.7819999999992,
      "v": 95
    },
    {
      "midi": 62,
      "hit": false,
      "t": 20240.947999999993,
      "d": 1445.7819999999992,
      "v": 95
    },
    {
      "midi": 70,
      "hit": false,
      "t": 20240.947999999993,
      "d": 1445.7819999999992,
      "v": 95
    },
    {
      "midi": 79,
      "hit": false,
      "t": 20240.947999999993,
      "d": 1445.7819999999992,
      "v": 95
    },
    {
      "midi": 64,
      "hit": false,
      "t": 22409.620999999992,
      "d": 1445.7819999999992,
      "v": 95
    },
    {
      "midi": 67,
      "hit": false,
      "t": 22409.620999999992,
      "d": 1445.7819999999992,
      "v": 95
    },
    {
      "midi": 72,
      "hit": false,
      "t": 22409.620999999992,
      "d": 1445.7819999999992,
      "v": 95
    },
    {
      "midi": 69,
      "hit": false,
      "t": 24578.29399999999,
      "d": 1445.7819999999992,
      "v": 95
    },
    {
      "midi": 72,
      "hit": false,
      "t": 24578.29399999999,
      "d": 1445.7819999999992,
      "v": 95
    },
    {
      "midi": 77,
      "hit": false,
      "t": 24578.29399999999,
      "d": 1445.7819999999992,
      "v": 95
    },
    {
      "midi": 62,
      "hit": false,
      "t": 26746.96699999999,
      "d": 1445.7819999999992,
      "v": 95
    },
    {
      "midi": 65,
      "hit": false,
      "t": 26746.96699999999,
      "d": 1445.7819999999992,
      "v": 95
    },
    {
      "midi": 82,
      "hit": false,
      "t": 26746.96699999999,
      "d": 1445.7819999999992,
      "v": 95
    },
    {
      "midi": 62,
      "hit": false,
      "t": 28915.63999999999,
      "d": 1445.7819999999992,
      "v": 95
    },
    {
      "midi": 70,
      "hit": false,
      "t": 28915.63999999999,
      "d": 1445.7819999999992,
      "v": 95
    },
    {
      "midi": 79,
      "hit": false,
      "t": 28915.63999999999,
      "d": 1445.7819999999992,
      "v": 95
    },
    {
      "midi": 61,
      "hit": false,
      "t": 31084.312999999987,
      "d": 1445.7819999999992,
      "v": 95
    },
    {
      "midi": 64,
      "hit": false,
      "t": 31084.312999999987,
      "d": 1445.7819999999992,
      "v": 95
    },
    {
      "midi": 81,
      "hit": false,
      "t": 31084.312999999987,
      "d": 1445.7819999999992,
      "v": 95
    },
    {
      "midi": 65,
      "hit": false,
      "t": 33252.98599999999,
      "d": 1445.7819999999992,
      "v": 95
    },
    {
      "midi": 69,
      "hit": false,
      "t": 33252.98599999999,
      "d": 1445.7819999999992,
      "v": 95
    },
    {
      "midi": 74,
      "hit": false,
      "t": 33252.98599999999,
      "d": 1445.7819999999992,
      "v": 95
    },
    {
      "midi": 65,
      "hit": false,
      "t": 35421.65899999999,
      "d": 1445.7819999999992,
      "v": 95
    },
    {
      "midi": 69,
      "hit": false,
      "t": 35421.65899999999,
      "d": 1445.7819999999992,
      "v": 95
    },
    {
      "midi": 74,
      "hit": false,
      "t": 35421.65899999999,
      "d": 1445.7819999999992,
      "v": 95
    },
    {
      "midi": 62,
      "hit": false,
      "t": 37590.331999999995,
      "d": 1445.7819999999992,
      "v": 95
    },
    {
      "midi": 70,
      "hit": false,
      "t": 37590.331999999995,
      "d": 1445.7819999999992,
      "v": 95
    },
    {
      "midi": 79,
      "hit": false,
      "t": 37590.331999999995,
      "d": 1445.7819999999992,
      "v": 95
    },
    {
      "midi": 64,
      "hit": false,
      "t": 39759.005,
      "d": 1445.7819999999992,
      "v": 95
    },
    {
      "midi": 67,
      "hit": false,
      "t": 39759.005,
      "d": 1445.7819999999992,
      "v": 95
    },
    {
      "midi": 72,
      "hit": false,
      "t": 39759.005,
      "d": 1445.7819999999992,
      "v": 95
    },
    {
      "midi": 69,
      "hit": false,
      "t": 41927.678,
      "d": 1445.7819999999992,
      "v": 95
    },
    {
      "midi": 72,
      "hit": false,
      "t": 41927.678,
      "d": 1445.7819999999992,
      "v": 95
    },
    {
      "midi": 77,
      "hit": false,
      "t": 41927.678,
      "d": 1445.7819999999992,
      "v": 95
    },
    {
      "midi": 62,
      "hit": false,
      "t": 44096.351,
      "d": 1445.7819999999992,
      "v": 95
    },
    {
      "midi": 65,
      "hit": false,
      "t": 44096.351,
      "d": 1445.7819999999992,
      "v": 95
    },
    {
      "midi": 82,
      "hit": false,
      "t": 44096.351,
      "d": 1445.7819999999992,
      "v": 95
    },
    {
      "midi": 62,
      "hit": false,
      "t": 46265.024000000005,
      "d": 1445.7819999999992,
      "v": 95
    },
    {
      "midi": 70,
      "hit": false,
      "t": 46265.024000000005,
      "d": 1445.7819999999992,
      "v": 95
    },
    {
      "midi": 79,
      "hit": false,
      "t": 46265.024000000005,
      "d": 1445.7819999999992,
      "v": 95
    },
    {
      "midi": 61,
      "hit": false,
      "t": 48433.69700000001,
      "d": 1445.7819999999992,
      "v": 95
    },
    {
      "midi": 64,
      "hit": false,
      "t": 48433.69700000001,
      "d": 1445.7819999999992,
      "v": 95
    },
    {
      "midi": 81,
      "hit": false,
      "t": 48433.69700000001,
      "d": 1445.7819999999992,
      "v": 95
    },
    {
      "midi": 65,
      "hit": false,
      "t": 50602.37000000001,
      "d": 1445.7819999999992,
      "v": 95
    },
    {
      "midi": 69,
      "hit": false,
      "t": 50602.37000000001,
      "d": 1445.7819999999992,
      "v": 95
    },
    {
      "midi": 74,
      "hit": false,
      "t": 50602.37000000001,
      "d": 1445.7819999999992,
      "v": 95
    },
    {
      "midi": 65,
      "hit": false,
      "t": 52771.04300000001,
      "d": 1445.7819999999992,
      "v": 95
    },
    {
      "midi": 69,
      "hit": false,
      "t": 52771.04300000001,
      "d": 1445.7819999999992,
      "v": 95
    },
    {
      "midi": 74,
      "hit": false,
      "t": 52771.04300000001,
      "d": 1445.7819999999992,
      "v": 95
    },
    {
      "midi": 62,
      "hit": false,
      "t": 54939.716000000015,
      "d": 1445.7819999999992,
      "v": 95
    },
    {
      "midi": 70,
      "hit": false,
      "t": 54939.716000000015,
      "d": 1445.7819999999992,
      "v": 95
    },
    {
      "midi": 79,
      "hit": false,
      "t": 54939.716000000015,
      "d": 1445.7819999999992,
      "v": 95
    },
    {
      "midi": 64,
      "hit": false,
      "t": 57108.38900000002,
      "d": 1445.7819999999992,
      "v": 95
    },
    {
      "midi": 67,
      "hit": false,
      "t": 57108.38900000002,
      "d": 1445.7819999999992,
      "v": 95
    },
    {
      "midi": 72,
      "hit": false,
      "t": 57108.38900000002,
      "d": 1445.7819999999992,
      "v": 95
    },
    {
      "midi": 69,
      "hit": false,
      "t": 59277.06200000002,
      "d": 1445.7819999999992,
      "v": 95
    },
    {
      "midi": 72,
      "hit": false,
      "t": 59277.06200000002,
      "d": 1445.7819999999992,
      "v": 95
    },
    {
      "midi": 77,
      "hit": false,
      "t": 59277.06200000002,
      "d": 1445.7819999999992,
      "v": 95
    },
    {
      "midi": 62,
      "hit": false,
      "t": 61445.73500000002,
      "d": 1445.7819999999992,
      "v": 95
    },
    {
      "midi": 65,
      "hit": false,
      "t": 61445.73500000002,
      "d": 1445.7819999999992,
      "v": 95
    },
    {
      "midi": 82,
      "hit": false,
      "t": 61445.73500000002,
      "d": 1445.7819999999992,
      "v": 95
    },
    {
      "midi": 62,
      "hit": false,
      "t": 63614.408000000025,
      "d": 1445.7819999999992,
      "v": 95
    },
    {
      "midi": 70,
      "hit": false,
      "t": 63614.408000000025,
      "d": 1445.7819999999992,
      "v": 95
    },
    {
      "midi": 79,
      "hit": false,
      "t": 63614.408000000025,
      "d": 1445.7819999999992,
      "v": 95
    },
    {
      "midi": 61,
      "hit": false,
      "t": 65783.08100000002,
      "d": 1445.7820000000065,
      "v": 95
    },
    {
      "midi": 64,
      "hit": false,
      "t": 65783.08100000002,
      "d": 1445.7820000000065,
      "v": 95
    },
    {
      "midi": 81,
      "hit": false,
      "t": 65783.08100000002,
      "d": 1445.7820000000065,
      "v": 95
    },
    {
      "midi": 65,
      "hit": false,
      "t": 67951.75400000003,
      "d": 1445.7820000000065,
      "v": 95
    },
    {
      "midi": 69,
      "hit": false,
      "t": 67951.75400000003,
      "d": 1445.7820000000065,
      "v": 95
    },
    {
      "midi": 74,
      "hit": false,
      "t": 67951.75400000003,
      "d": 1445.7820000000065,
      "v": 95
    },
    {
      "midi": 65,
      "hit": false,
      "t": 70120.42700000004,
      "d": 1445.7820000000065,
      "v": 95
    },
    {
      "midi": 69,
      "hit": false,
      "t": 70120.42700000004,
      "d": 1445.7820000000065,
      "v": 95
    },
    {
      "midi": 74,
      "hit": false,
      "t": 70120.42700000004,
      "d": 1445.7820000000065,
      "v": 95
    },
    {
      "midi": 62,
      "hit": false,
      "t": 72289.10000000005,
      "d": 1445.7820000000065,
      "v": 95
    },
    {
      "midi": 70,
      "hit": false,
      "t": 72289.10000000005,
      "d": 1445.7820000000065,
      "v": 95
    },
    {
      "midi": 79,
      "hit": false,
      "t": 72289.10000000005,
      "d": 1445.7820000000065,
      "v": 95
    },
    {
      "midi": 64,
      "hit": false,
      "t": 74457.77300000006,
      "d": 1445.7820000000065,
      "v": 95
    },
    {
      "midi": 67,
      "hit": false,
      "t": 74457.77300000006,
      "d": 1445.7820000000065,
      "v": 95
    },
    {
      "midi": 72,
      "hit": false,
      "t": 74457.77300000006,
      "d": 1445.7820000000065,
      "v": 95
    },
    {
      "midi": 69,
      "hit": false,
      "t": 76626.44600000007,
      "d": 1445.7820000000065,
      "v": 95
    },
    {
      "midi": 72,
      "hit": false,
      "t": 76626.44600000007,
      "d": 1445.7820000000065,
      "v": 95
    },
    {
      "midi": 77,
      "hit": false,
      "t": 76626.44600000007,
      "d": 1445.7820000000065,
      "v": 95
    },
    {
      "midi": 62,
      "hit": false,
      "t": 78795.11900000008,
      "d": 1445.7820000000065,
      "v": 95
    },
    {
      "midi": 65,
      "hit": false,
      "t": 78795.11900000008,
      "d": 1445.7820000000065,
      "v": 95
    },
    {
      "midi": 82,
      "hit": false,
      "t": 78795.11900000008,
      "d": 1445.7820000000065,
      "v": 95
    },
    {
      "midi": 62,
      "hit": false,
      "t": 80963.79200000009,
      "d": 1445.7820000000065,
      "v": 95
    },
    {
      "midi": 70,
      "hit": false,
      "t": 80963.79200000009,
      "d": 1445.7820000000065,
      "v": 95
    },
    {
      "midi": 79,
      "hit": false,
      "t": 80963.79200000009,
      "d": 1445.7820000000065,
      "v": 95
    },
    {
      "midi": 61,
      "hit": false,
      "t": 83132.4650000001,
      "d": 1445.7820000000065,
      "v": 95
    },
    {
      "midi": 64,
      "hit": false,
      "t": 83132.4650000001,
      "d": 1445.7820000000065,
      "v": 95
    },
    {
      "midi": 81,
      "hit": false,
      "t": 83132.4650000001,
      "d": 1445.7820000000065,
      "v": 95
    },
    {
      "midi": 65,
      "hit": false,
      "t": 85301.13800000011,
      "d": 1445.7820000000065,
      "v": 95
    },
    {
      "midi": 69,
      "hit": false,
      "t": 85301.13800000011,
      "d": 1445.7820000000065,
      "v": 95
    },
    {
      "midi": 74,
      "hit": false,
      "t": 85301.13800000011,
      "d": 1445.7820000000065,
      "v": 95
    },
    {
      "midi": 65,
      "hit": false,
      "t": 87469.81100000012,
      "d": 1445.7820000000065,
      "v": 95
    },
    {
      "midi": 69,
      "hit": false,
      "t": 87469.81100000012,
      "d": 1445.7820000000065,
      "v": 95
    },
    {
      "midi": 74,
      "hit": false,
      "t": 87469.81100000012,
      "d": 1445.7820000000065,
      "v": 95
    },
    {
      "midi": 62,
      "hit": false,
      "t": 89638.48400000013,
      "d": 1445.7820000000065,
      "v": 95
    },
    {
      "midi": 70,
      "hit": false,
      "t": 89638.48400000013,
      "d": 1445.7820000000065,
      "v": 95
    },
    {
      "midi": 79,
      "hit": false,
      "t": 89638.48400000013,
      "d": 1445.7820000000065,
      "v": 95
    },
    {
      "midi": 64,
      "hit": false,
      "t": 91807.15700000014,
      "d": 1445.7820000000065,
      "v": 95
    },
    {
      "midi": 67,
      "hit": false,
      "t": 91807.15700000014,
      "d": 1445.7820000000065,
      "v": 95
    },
    {
      "midi": 72,
      "hit": false,
      "t": 91807.15700000014,
      "d": 1445.7820000000065,
      "v": 95
    },
    {
      "midi": 69,
      "hit": false,
      "t": 93975.83000000015,
      "d": 1445.7820000000065,
      "v": 95
    },
    {
      "midi": 72,
      "hit": false,
      "t": 93975.83000000015,
      "d": 1445.7820000000065,
      "v": 95
    },
    {
      "midi": 77,
      "hit": false,
      "t": 93975.83000000015,
      "d": 1445.7820000000065,
      "v": 95
    },
    {
      "midi": 62,
      "hit": false,
      "t": 96144.50300000016,
      "d": 1445.7820000000065,
      "v": 95
    },
    {
      "midi": 65,
      "hit": false,
      "t": 96144.50300000016,
      "d": 1445.7820000000065,
      "v": 95
    },
    {
      "midi": 82,
      "hit": false,
      "t": 96144.50300000016,
      "d": 1445.7820000000065,
      "v": 95
    },
    {
      "midi": 62,
      "hit": false,
      "t": 98313.17600000017,
      "d": 1445.7820000000065,
      "v": 95
    },
    {
      "midi": 70,
      "hit": false,
      "t": 98313.17600000017,
      "d": 1445.7820000000065,
      "v": 95
    },
    {
      "midi": 79,
      "hit": false,
      "t": 98313.17600000017,
      "d": 1445.7820000000065,
      "v": 95
    },
    {
      "midi": 61,
      "hit": false,
      "t": 100481.84900000018,
      "d": 1445.7820000000065,
      "v": 95
    },
    {
      "midi": 64,
      "hit": false,
      "t": 100481.84900000018,
      "d": 1445.7820000000065,
      "v": 95
    },
    {
      "midi": 81,
      "hit": false,
      "t": 100481.84900000018,
      "d": 1445.7820000000065,
      "v": 95
    },
    {
      "midi": 65,
      "hit": false,
      "t": 102650.52200000019,
      "d": 1445.7820000000065,
      "v": 95
    },
    {
      "midi": 69,
      "hit": false,
      "t": 102650.52200000019,
      "d": 1445.7820000000065,
      "v": 95
    },
    {
      "midi": 74,
      "hit": false,
      "t": 102650.52200000019,
      "d": 1445.7820000000065,
      "v": 95
    },
    {
      "midi": 65,
      "hit": false,
      "t": 104819.1950000002,
      "d": 1445.7820000000065,
      "v": 95
    },
    {
      "midi": 69,
      "hit": false,
      "t": 104819.1950000002,
      "d": 1445.7820000000065,
      "v": 95
    },
    {
      "midi": 74,
      "hit": false,
      "t": 104819.1950000002,
      "d": 1445.7820000000065,
      "v": 95
    },
    {
      "midi": 62,
      "hit": false,
      "t": 106987.8680000002,
      "d": 1445.7820000000065,
      "v": 95
    },
    {
      "midi": 70,
      "hit": false,
      "t": 106987.8680000002,
      "d": 1445.7820000000065,
      "v": 95
    },
    {
      "midi": 79,
      "hit": false,
      "t": 106987.8680000002,
      "d": 1445.7820000000065,
      "v": 95
    },
    {
      "midi": 64,
      "hit": false,
      "t": 109156.54100000022,
      "d": 1445.7820000000065,
      "v": 95
    },
    {
      "midi": 67,
      "hit": false,
      "t": 109156.54100000022,
      "d": 1445.7820000000065,
      "v": 95
    },
    {
      "midi": 72,
      "hit": false,
      "t": 109156.54100000022,
      "d": 1445.7820000000065,
      "v": 95
    },
    {
      "midi": 69,
      "hit": false,
      "t": 111325.21400000023,
      "d": 1445.7820000000065,
      "v": 95
    },
    {
      "midi": 72,
      "hit": false,
      "t": 111325.21400000023,
      "d": 1445.7820000000065,
      "v": 95
    },
    {
      "midi": 77,
      "hit": false,
      "t": 111325.21400000023,
      "d": 1445.7820000000065,
      "v": 95
    },
    {
      "midi": 62,
      "hit": false,
      "t": 113493.88700000024,
      "d": 1445.7820000000065,
      "v": 95
    },
    {
      "midi": 65,
      "hit": false,
      "t": 113493.88700000024,
      "d": 1445.7820000000065,
      "v": 95
    },
    {
      "midi": 82,
      "hit": false,
      "t": 113493.88700000024,
      "d": 1445.7820000000065,
      "v": 95
    },
    {
      "midi": 62,
      "hit": false,
      "t": 115662.56000000025,
      "d": 1445.7820000000065,
      "v": 95
    },
    {
      "midi": 70,
      "hit": false,
      "t": 115662.56000000025,
      "d": 1445.7820000000065,
      "v": 95
    },
    {
      "midi": 79,
      "hit": false,
      "t": 115662.56000000025,
      "d": 1445.7820000000065,
      "v": 95
    },
    {
      "midi": 61,
      "hit": false,
      "t": 117831.23300000025,
      "d": 1445.7820000000065,
      "v": 95
    },
    {
      "midi": 64,
      "hit": false,
      "t": 117831.23300000025,
      "d": 1445.7820000000065,
      "v": 95
    },
    {
      "midi": 81,
      "hit": false,
      "t": 117831.23300000025,
      "d": 1445.7820000000065,
      "v": 95
    },
    {
      "midi": 65,
      "hit": false,
      "t": 119999.90600000026,
      "d": 1445.7820000000065,
      "v": 95
    },
    {
      "midi": 69,
      "hit": false,
      "t": 119999.90600000026,
      "d": 1445.7820000000065,
      "v": 95
    },
    {
      "midi": 74,
      "hit": false,
      "t": 119999.90600000026,
      "d": 1445.7820000000065,
      "v": 95
    },
    {
      "midi": 65,
      "hit": false,
      "t": 122168.57900000027,
      "d": 1445.7820000000065,
      "v": 95
    },
    {
      "midi": 69,
      "hit": false,
      "t": 122168.57900000027,
      "d": 1445.7820000000065,
      "v": 95
    },
    {
      "midi": 74,
      "hit": false,
      "t": 122168.57900000027,
      "d": 1445.7820000000065,
      "v": 95
    },
    {
      "midi": 62,
      "hit": false,
      "t": 124337.25200000028,
      "d": 1445.7820000000065,
      "v": 95
    },
    {
      "midi": 70,
      "hit": false,
      "t": 124337.25200000028,
      "d": 1445.7820000000065,
      "v": 95
    },
    {
      "midi": 79,
      "hit": false,
      "t": 124337.25200000028,
      "d": 1445.7820000000065,
      "v": 95
    },
    {
      "midi": 61,
      "hit": false,
      "t": 126505.9250000003,
      "d": 1445.7820000000065,
      "v": 95
    },
    {
      "midi": 64,
      "hit": false,
      "t": 126505.9250000003,
      "d": 1445.7820000000065,
      "v": 95
    },
    {
      "midi": 81,
      "hit": false,
      "t": 126505.9250000003,
      "d": 1445.7820000000065,
      "v": 95
    },
    {
      "midi": 65,
      "hit": false,
      "t": 128674.5980000003,
      "d": 1445.7820000000065,
      "v": 95
    },
    {
      "midi": 69,
      "hit": false,
      "t": 128674.5980000003,
      "d": 1445.7820000000065,
      "v": 95
    },
    {
      "midi": 74,
      "hit": false,
      "t": 128674.5980000003,
      "d": 1445.7820000000065,
      "v": 95
    },
    {
      "midi": 62,
      "hit": false,
      "t": 130843.27100000031,
      "d": 1445.781999999992,
      "v": 95
    },
    {
      "midi": 71,
      "hit": false,
      "t": 130843.27100000031,
      "d": 1445.781999999992,
      "v": 95
    },
    {
      "midi": 79,
      "hit": false,
      "t": 130843.27100000031,
      "d": 1445.781999999992,
      "v": 95
    },
    {
      "midi": 62,
      "hit": false,
      "t": 133011.9440000003,
      "d": 1445.7820000000065,
      "v": 95
    },
    {
      "midi": 70,
      "hit": false,
      "t": 133011.9440000003,
      "d": 1445.7820000000065,
      "v": 95
    },
    {
      "midi": 79,
      "hit": false,
      "t": 133011.9440000003,
      "d": 1445.7820000000065,
      "v": 95
    },
    {
      "midi": 65,
      "hit": false,
      "t": 135180.61700000032,
      "d": 1445.7820000000065,
      "v": 95
    },
    {
      "midi": 69,
      "hit": false,
      "t": 135180.61700000032,
      "d": 1445.7820000000065,
      "v": 95
    },
    {
      "midi": 74,
      "hit": false,
      "t": 135180.61700000032,
      "d": 1445.7820000000065,
      "v": 95
    },
    {
      "midi": 61,
      "hit": false,
      "t": 137349.29000000033,
      "d": 1445.7820000000065,
      "v": 95
    },
    {
      "midi": 64,
      "hit": false,
      "t": 137349.29000000033,
      "d": 1445.7820000000065,
      "v": 95
    },
    {
      "midi": 81,
      "hit": false,
      "t": 137349.29000000033,
      "d": 1445.7820000000065,
      "v": 95
    },
    {
      "midi": 65,
      "hit": false,
      "t": 139517.96300000034,
      "d": 1445.7820000000065,
      "v": 95
    },
    {
      "midi": 69,
      "hit": false,
      "t": 139517.96300000034,
      "d": 1445.7820000000065,
      "v": 95
    },
    {
      "midi": 74,
      "hit": false,
      "t": 139517.96300000034,
      "d": 1445.7820000000065,
      "v": 95
    },
    {
      "midi": 62,
      "hit": false,
      "t": 141686.63600000035,
      "d": 1445.7820000000065,
      "v": 95
    },
    {
      "midi": 70,
      "hit": false,
      "t": 141686.63600000035,
      "d": 1445.7820000000065,
      "v": 95
    },
    {
      "midi": 79,
      "hit": false,
      "t": 141686.63600000035,
      "d": 1445.7820000000065,
      "v": 95
    },
    {
      "midi": 65,
      "hit": false,
      "t": 143855.30900000036,
      "d": 1445.7820000000065,
      "v": 95
    },
    {
      "midi": 69,
      "hit": false,
      "t": 143855.30900000036,
      "d": 1445.7820000000065,
      "v": 95
    },
    {
      "midi": 74,
      "hit": false,
      "t": 143855.30900000036,
      "d": 1445.7820000000065,
      "v": 95
    },
    {
      "midi": 62,
      "hit": false,
      "t": 146023.98200000037,
      "d": 1445.7820000000065,
      "v": 95
    },
    {
      "midi": 70,
      "hit": false,
      "t": 146023.98200000037,
      "d": 1445.7820000000065,
      "v": 95
    },
    {
      "midi": 79,
      "hit": false,
      "t": 146023.98200000037,
      "d": 1445.7820000000065,
      "v": 95
    },
    {
      "midi": 65,
      "hit": false,
      "t": 148192.65500000038,
      "d": 1445.7820000000065,
      "v": 95
    },
    {
      "midi": 69,
      "hit": false,
      "t": 148192.65500000038,
      "d": 1445.7820000000065,
      "v": 95
    },
    {
      "midi": 74,
      "hit": false,
      "t": 148192.65500000038,
      "d": 1445.7820000000065,
      "v": 95
    },
    {
      "midi": 65,
      "hit": false,
      "t": 149638.43700000038,
      "d": 722.8910000000033,
      "v": 105
    },
    {
      "midi": 69,
      "hit": false,
      "t": 149638.43700000038,
      "d": 722.8910000000033,
      "v": 105
    },
    {
      "midi": 74,
      "hit": false,
      "t": 149638.43700000038,
      "d": 722.8910000000033,
      "v": 105
    }
  ]
}