{
  "jsonPath": "Pop/Afropop/Soweto String Quartet/nkosi-sikelel-iafrica-god-bless-africa.json",
  "path": "Pop\\Afropop\\Soweto String Quartet\\Nkosi Sikelel iAfrica (God Bless Africa).mid",
  "name": "Nkosi Sikelel iAfrica (God Bless Africa)",
  "difficulty": "Advanced",
  "bpm": 90.00009000009,
  "notes": [
    {
      "midi": 55,
      "hit": false,
      "t": 0,
      "d": 228.5712,
      "v": 61
    },
    {
      "midi": 59,
      "hit": false,
      "t": 0,
      "d": 242.8569,
      "v": 59
    },
    {
      "midi": 62,
      "hit": false,
      "t": 0,
      "d": 314.2854,
      "v": 86
    },
    {
      "midi": 67,
      "hit": false,
      "t": 0,
      "d": 328.5711,
      "v": 80
    },
    {
      "midi": 59,
      "hit": false,
      "t": 421.42814999999996,
      "d": 164.28555000000006,
      "v": 63
    },
    {
      "midi": 55,
      "hit": false,
      "t": 421.42814999999996,
      "d": 185.71410000000003,
      "v": 64
    },
    {
      "midi": 62,
      "hit": false,
      "t": 421.42814999999996,
      "d": 257.1426,
      "v": 76
    },
    {
      "midi": 67,
      "hit": false,
      "t": 421.42814999999996,
      "d": 285.71400000000006,
      "v": 79
    },
    {
      "midi": 62,
      "hit": false,
      "t": 849.9991500000001,
      "d": 235.71405000000004,
      "v": 77
    },
    {
      "midi": 55,
      "hit": false,
      "t": 849.9991500000001,
      "d": 249.99974999999995,
      "v": 71
    },
    {
      "midi": 59,
      "hit": false,
      "t": 849.9991500000001,
      "d": 257.1425999999999,
      "v": 66
    },
    {
      "midi": 67,
      "hit": false,
      "t": 849.9991500000001,
      "d": 307.1425499999998,
      "v": 71
    },
    {
      "midi": 62,
      "hit": false,
      "t": 1278.57015,
      "d": 149.99984999999992,
      "v": 84
    },
    {
      "midi": 60,
      "hit": false,
      "t": 1278.57015,
      "d": 207.14264999999978,
      "v": 63
    },
    {
      "midi": 69,
      "hit": false,
      "t": 1278.57015,
      "d": 264.28544999999986,
      "v": 94
    },
    {
      "midi": 55,
      "hit": false,
      "t": 1285.713,
      "d": 149.99984999999992,
      "v": 70
    },
    {
      "midi": 71,
      "hit": false,
      "t": 1714.2839999999999,
      "d": 649.9993500000003,
      "v": 82
    },
    {
      "midi": 55,
      "hit": false,
      "t": 1721.4268499999998,
      "d": 564.2851500000002,
      "v": 64
    },
    {
      "midi": 62,
      "hit": false,
      "t": 1721.4268499999998,
      "d": 599.9994000000002,
      "v": 69
    },
    {
      "midi": 67,
      "hit": false,
      "t": 1721.4268499999998,
      "d": 635.7136500000001,
      "v": 74
    },
    {
      "midi": 62,
      "hit": false,
      "t": 2578.56885,
      "d": 307.14255,
      "v": 55
    },
    {
      "midi": 55,
      "hit": false,
      "t": 2578.56885,
      "d": 321.42824999999993,
      "v": 76
    },
    {
      "midi": 71,
      "hit": false,
      "t": 2578.56885,
      "d": 378.57105,
      "v": 87
    },
    {
      "midi": 67,
      "hit": false,
      "t": 2578.56885,
      "d": 392.8567499999999,
      "v": 91
    },
    {
      "midi": 50,
      "hit": false,
      "t": 3435.71085,
      "d": 442.8566999999998,
      "v": 66
    },
    {
      "midi": 60,
      "hit": false,
      "t": 3435.71085,
      "d": 471.42809999999963,
      "v": 62
    },
    {
      "midi": 69,
      "hit": false,
      "t": 3435.71085,
      "d": 542.8565999999996,
      "v": 96
    },
    {
      "midi": 66,
      "hit": false,
      "t": 3435.71085,
      "d": 549.9994499999998,
      "v": 70
    },
    {
      "midi": 50,
      "hit": false,
      "t": 4292.85285,
      "d": 278.57114999999976,
      "v": 81
    },
    {
      "midi": 60,
      "hit": false,
      "t": 4292.85285,
      "d": 335.7139499999994,
      "v": 74
    },
    {
      "midi": 69,
      "hit": false,
      "t": 4292.85285,
      "d": 364.2853499999992,
      "v": 90
    },
    {
      "midi": 66,
      "hit": false,
      "t": 4292.85285,
      "d": 392.856749999999,
      "v": 78
    },
    {
      "midi": 62,
      "hit": false,
      "t": 5149.994849999999,
      "d": 1057.1417999999994,
      "v": 66
    },
    {
      "midi": 55,
      "hit": false,
      "t": 5149.994849999999,
      "d": 1085.7131999999992,
      "v": 70
    },
    {
      "midi": 59,
      "hit": false,
      "t": 5149.994849999999,
      "d": 1092.8560499999994,
      "v": 60
    },
    {
      "midi": 67,
      "hit": false,
      "t": 5149.994849999999,
      "d": 1092.8560499999994,
      "v": 80
    },
    {
      "midi": 55,
      "hit": false,
      "t": 6864.278849999999,
      "d": 221.42835000000014,
      "v": 75
    },
    {
      "midi": 62,
      "hit": false,
      "t": 6864.278849999999,
      "d": 242.85689999999977,
      "v": 77
    },
    {
      "midi": 67,
      "hit": false,
      "t": 6864.278849999999,
      "d": 249.99974999999995,
      "v": 91
    },
    {
      "midi": 71,
      "hit": false,
      "t": 6864.278849999999,
      "d": 292.8568500000001,
      "v": 89
    },
    {
      "midi": 62,
      "hit": false,
      "t": 7292.849849999999,
      "d": 64.2856499999998,
      "v": 70
    },
    {
      "midi": 67,
      "hit": false,
      "t": 7292.849849999999,
      "d": 64.2856499999998,
      "v": 94
    },
    {
      "midi": 55,
      "hit": false,
      "t": 7292.849849999999,
      "d": 78.57135000000017,
      "v": 65
    },
    {
      "midi": 71,
      "hit": false,
      "t": 7292.849849999999,
      "d": 92.85705000000053,
      "v": 76
    },
    {
      "midi": 50,
      "hit": false,
      "t": 7721.420849999999,
      "d": 149.99984999999924,
      "v": 77
    },
    {
      "midi": 62,
      "hit": false,
      "t": 7721.420849999999,
      "d": 214.28549999999905,
      "v": 70
    },
    {
      "midi": 66,
      "hit": false,
      "t": 7721.420849999999,
      "d": 228.5711999999994,
      "v": 85
    },
    {
      "midi": 69,
      "hit": false,
      "t": 7721.420849999999,
      "d": 314.28539999999975,
      "v": 98
    },
    {
      "midi": 67,
      "hit": false,
      "t": 8135.706149999998,
      "d": 207.14264999999978,
      "v": 101
    },
    {
      "midi": 71,
      "hit": false,
      "t": 8135.706149999998,
      "d": 321.42825000000084,
      "v": 92
    },
    {
      "midi": 55,
      "hit": false,
      "t": 8149.9918499999985,
      "d": 185.71409999999923,
      "v": 67
    },
    {
      "midi": 62,
      "hit": false,
      "t": 8149.9918499999985,
      "d": 228.57120000000032,
      "v": 76
    },
    {
      "midi": 57,
      "hit": false,
      "t": 8578.562849999998,
      "d": 542.856600000001,
      "v": 61
    },
    {
      "midi": 62,
      "hit": false,
      "t": 8578.562849999998,
      "d": 549.9994500000012,
      "v": 64
    },
    {
      "midi": 72,
      "hit": false,
      "t": 8578.562849999998,
      "d": 557.1423000000013,
      "v": 81
    },
    {
      "midi": 69,
      "hit": false,
      "t": 8578.562849999998,
      "d": 571.4280000000017,
      "v": 101
    },
    {
      "midi": 57,
      "hit": false,
      "t": 9435.70485,
      "d": 421.42815000000155,
      "v": 75
    },
    {
      "midi": 62,
      "hit": false,
      "t": 9435.70485,
      "d": 449.9995500000023,
      "v": 82
    },
    {
      "midi": 72,
      "hit": false,
      "t": 9435.70485,
      "d": 457.14240000000245,
      "v": 88
    },
    {
      "midi": 69,
      "hit": false,
      "t": 9435.70485,
      "d": 542.8566000000028,
      "v": 101
    },
    {
      "midi": 55,
      "hit": false,
      "t": 10278.561150000003,
      "d": 285.71399999999994,
      "v": 71
    },
    {
      "midi": 62,
      "hit": false,
      "t": 10278.561150000003,
      "d": 299.9997000000003,
      "v": 74
    },
    {
      "midi": 67,
      "hit": false,
      "t": 10278.561150000003,
      "d": 299.9997000000003,
      "v": 88
    },
    {
      "midi": 71,
      "hit": false,
      "t": 10278.561150000003,
      "d": 335.7139500000012,
      "v": 87
    },
    {
      "midi": 55,
      "hit": false,
      "t": 10721.417850000005,
      "d": 128.5712999999996,
      "v": 71
    },
    {
      "midi": 62,
      "hit": false,
      "t": 10721.417850000005,
      "d": 149.99985000000015,
      "v": 87
    },
    {
      "midi": 67,
      "hit": false,
      "t": 10721.417850000005,
      "d": 178.57125000000087,
      "v": 91
    },
    {
      "midi": 71,
      "hit": false,
      "t": 10721.417850000005,
      "d": 228.57120000000032,
      "v": 70
    },
    {
      "midi": 55,
      "hit": false,
      "t": 11149.988850000005,
      "d": 292.8568500000001,
      "v": 75
    },
    {
      "midi": 62,
      "hit": false,
      "t": 11149.988850000005,
      "d": 321.42825000000084,
      "v": 80
    },
    {
      "midi": 67,
      "hit": false,
      "t": 11149.988850000005,
      "d": 349.99965000000157,
      "v": 90
    },
    {
      "midi": 71,
      "hit": false,
      "t": 11149.988850000005,
      "d": 349.99965000000157,
      "v": 100
    },
    {
      "midi": 62,
      "hit": false,
      "t": 12007.130850000007,
      "d": 428.5709999999999,
      "v": 58
    },
    {
      "midi": 50,
      "hit": false,
      "t": 12007.130850000007,
      "d": 1049.998950000001,
      "v": 59
    },
    {
      "midi": 69,
      "hit": false,
      "t": 12007.130850000007,
      "d": 1071.4275000000016,
      "v": 81
    },
    {
      "midi": 66,
      "hit": false,
      "t": 12007.130850000007,
      "d": 1128.5703000000012,
      "v": 66
    },
    {
      "midi": 60,
      "hit": false,
      "t": 12864.272850000007,
      "d": 342.8568000000014,
      "v": 66
    },
    {
      "midi": 55,
      "hit": false,
      "t": 13721.414850000008,
      "d": 264.2854499999994,
      "v": 66
    },
    {
      "midi": 59,
      "hit": false,
      "t": 13721.414850000008,
      "d": 271.4282999999996,
      "v": 61
    },
    {
      "midi": 64,
      "hit": false,
      "t": 13721.414850000008,
      "d": 292.8568500000001,
      "v": 87
    },
    {
      "midi": 67,
      "hit": false,
      "t": 13721.414850000008,
      "d": 314.28540000000066,
      "v": 86
    },
    {
      "midi": 55,
      "hit": false,
      "t": 14149.98585000001,
      "d": 235.7140500000005,
      "v": 78
    },
    {
      "midi": 59,
      "hit": false,
      "t": 14149.98585000001,
      "d": 264.2854500000012,
      "v": 71
    },
    {
      "midi": 64,
      "hit": false,
      "t": 14149.98585000001,
      "d": 314.28540000000066,
      "v": 77
    },
    {
      "midi": 67,
      "hit": false,
      "t": 14149.98585000001,
      "d": 328.571100000001,
      "v": 74
    },
    {
      "midi": 55,
      "hit": false,
      "t": 14578.55685000001,
      "d": 264.2854500000012,
      "v": 68
    },
    {
      "midi": 64,
      "hit": false,
      "t": 14578.55685000001,
      "d": 278.5711500000016,
      "v": 80
    },
    {
      "midi": 59,
      "hit": false,
      "t": 14578.55685000001,
      "d": 285.71400000000176,
      "v": 76
    },
    {
      "midi": 67,
      "hit": false,
      "t": 14578.55685000001,
      "d": 357.14250000000175,
      "v": 77
    },
    {
      "midi": 66,
      "hit": false,
      "t": 14992.842150000011,
      "d": 192.85695000000123,
      "v": 86
    },
    {
      "midi": 69,
      "hit": false,
      "t": 14992.842150000011,
      "d": 199.99980000000141,
      "v": 97
    },
    {
      "midi": 55,
      "hit": false,
      "t": 14999.985000000011,
      "d": 171.4284000000007,
      "v": 65
    },
    {
      "midi": 62,
      "hit": false,
      "t": 15007.127850000012,
      "d": 199.99980000000141,
      "v": 87
    },
    {
      "midi": 55,
      "hit": false,
      "t": 15435.698850000013,
      "d": 549.9994500000012,
      "v": 69
    },
    {
      "midi": 71,
      "hit": false,
      "t": 15435.698850000013,
      "d": 585.7137000000021,
      "v": 82
    },
    {
      "midi": 62,
      "hit": false,
      "t": 15435.698850000013,
      "d": 592.8565500000022,
      "v": 73
    },
    {
      "midi": 67,
      "hit": false,
      "t": 15435.698850000013,
      "d": 614.2851000000028,
      "v": 90
    },
    {
      "midi": 71,
      "hit": false,
      "t": 16285.698000000017,
      "d": 414.28530000000137,
      "v": 92
    },
    {
      "midi": 67,
      "hit": false,
      "t": 16285.698000000017,
      "d": 421.42815000000155,
      "v": 98
    },
    {
      "midi": 55,
      "hit": false,
      "t": 16292.840850000017,
      "d": 349.99964999999975,
      "v": 78
    },
    {
      "midi": 62,
      "hit": false,
      "t": 16292.840850000017,
      "d": 392.85675000000083,
      "v": 87
    },
    {
      "midi": 69,
      "hit": false,
      "t": 17149.98285000002,
      "d": 342.85679999999775,
      "v": 98
    },
    {
      "midi": 50,
      "hit": false,
      "t": 17149.98285000002,
      "d": 364.2853499999983,
      "v": 70
    },
    {
      "midi": 62,
      "hit": false,
      "t": 17149.98285000002,
      "d": 378.57104999999865,
      "v": 70
    },
    {
      "midi": 66,
      "hit": false,
      "t": 17149.98285000002,
      "d": 399.9995999999992,
      "v": 87
    },
    {
      "midi": 50,
      "hit": false,
      "t": 18007.12485000002,
      "d": 271.4282999999996,
      "v": 77
    },
    {
      "midi": 62,
      "hit": false,
      "t": 18007.12485000002,
      "d": 342.8568000000014,
      "v": 73
    },
    {
      "midi": 72,
      "hit": false,
      "t": 18007.12485000002,
      "d": 371.4282000000021,
      "v": 89
    },
    {
      "midi": 69,
      "hit": false,
      "t": 18007.12485000002,
      "d": 392.85675000000265,
      "v": 106
    },
    {
      "midi": 62,
      "hit": false,
      "t": 18864.26685000002,
      "d": 1099.9988999999987,
      "v": 69
    },
    {
      "midi": 55,
      "hit": false,
      "t": 18864.26685000002,
      "d": 1114.284599999999,
      "v": 68
    },
    {
      "midi": 67,
      "hit": false,
      "t": 18864.26685000002,
      "d": 1114.284599999999,
      "v": 81
    },
    {
      "midi": 71,
      "hit": false,
      "t": 18864.26685000002,
      "d": 1135.7131499999996,
      "v": 78
    },
    {
      "midi": 69,
      "hit": false,
      "t": 20571.40800000002,
      "d": 949.9990500000022,
      "v": 86
    },
    {
      "midi": 48,
      "hit": false,
      "t": 20578.55085000002,
      "d": 928.5705000000016,
      "v": 56
    },
    {
      "midi": 60,
      "hit": false,
      "t": 20578.55085000002,
      "d": 971.4276000000027,
      "v": 44
    },
    {
      "midi": 64,
      "hit": false,
      "t": 20578.55085000002,
      "d": 1014.2847000000038,
      "v": 78
    },
    {
      "midi": 50,
      "hit": false,
      "t": 22278.549150000028,
      "d": 964.2847499999989,
      "v": 56
    },
    {
      "midi": 67,
      "hit": false,
      "t": 22278.549150000028,
      "d": 978.5704499999993,
      "v": 74
    },
    {
      "midi": 59,
      "hit": false,
      "t": 22278.549150000028,
      "d": 1007.14185,
      "v": 47
    },
    {
      "midi": 62,
      "hit": false,
      "t": 22278.549150000028,
      "d": 1049.998950000001,
      "v": 78
    },
    {
      "midi": 50,
      "hit": false,
      "t": 23992.833150000028,
      "d": 278.57114999999976,
      "v": 53
    },
    {
      "midi": 62,
      "hit": false,
      "t": 23992.833150000028,
      "d": 285.71399999999994,
      "v": 81
    },
    {
      "midi": 57,
      "hit": false,
      "t": 23992.833150000028,
      "d": 321.42825000000084,
      "v": 67
    },
    {
      "midi": 66,
      "hit": false,
      "t": 23992.833150000028,
      "d": 407.14244999999937,
      "v": 78
    },
    {
      "midi": 62,
      "hit": false,
      "t": 24421.404150000028,
      "d": 92.85704999999871,
      "v": 92
    },
    {
      "midi": 50,
      "hit": false,
      "t": 24421.404150000028,
      "d": 107.14274999999907,
      "v": 59
    },
    {
      "midi": 59,
      "hit": false,
      "t": 24421.404150000028,
      "d": 128.5712999999996,
      "v": 74
    },
    {
      "midi": 67,
      "hit": false,
      "t": 24421.404150000028,
      "d": 142.85699999999997,
      "v": 87
    },
    {
      "midi": 50,
      "hit": false,
      "t": 24864.260850000028,
      "d": 414.28529999999955,
      "v": 71
    },
    {
      "midi": 60,
      "hit": false,
      "t": 24864.260850000028,
      "d": 442.8567000000003,
      "v": 59
    },
    {
      "midi": 69,
      "hit": false,
      "t": 24864.260850000028,
      "d": 492.85665000000154,
      "v": 98
    },
    {
      "midi": 62,
      "hit": false,
      "t": 24864.260850000028,
      "d": 499.9995000000017,
      "v": 96
    },
    {
      "midi": 62,
      "hit": false,
      "t": 25721.40285000003,
      "d": 678.570749999999,
      "v": 78
    },
    {
      "midi": 55,
      "hit": false,
      "t": 25721.40285000003,
      "d": 949.9990499999985,
      "v": 57
    },
    {
      "midi": 59,
      "hit": false,
      "t": 25721.40285000003,
      "d": 949.9990499999985,
      "v": 58
    },
    {
      "midi": 67,
      "hit": false,
      "t": 25721.40285000003,
      "d": 985.7132999999994,
      "v": 83
    },
    {
      "midi": 62,
      "hit": false,
      "t": 26578.54485000003,
      "d": 128.5712999999996,
      "v": 88
    },
    {
      "midi": 48,
      "hit": false,
      "t": 27435.68685000003,
      "d": 899.9991000000009,
      "v": 40
    },
    {
      "midi": 60,
      "hit": false,
      "t": 27435.68685000003,
      "d": 942.856200000002,
      "v": 44
    },
    {
      "midi": 69,
      "hit": false,
      "t": 27435.68685000003,
      "d": 957.1419000000024,
      "v": 76
    },
    {
      "midi": 64,
      "hit": false,
      "t": 27435.68685000003,
      "d": 978.5704500000029,
      "v": 64
    },
    {
      "midi": 59,
      "hit": false,
      "t": 29135.685150000034,
      "d": 985.7132999999994,
      "v": 34
    },
    {
      "midi": 67,
      "hit": false,
      "t": 29135.685150000034,
      "d": 1021.4275500000003,
      "v": 58
    },
    {
      "midi": 62,
      "hit": false,
      "t": 29135.685150000034,
      "d": 1049.998950000001,
      "v": 61
    },
    {
      "midi": 50,
      "hit": false,
      "t": 29142.828000000034,
      "d": 1007.14185,
      "v": 46
    },
    {
      "midi": 50,
      "hit": false,
      "t": 30849.969150000034,
      "d": 299.9997000000003,
      "v": 54
    },
    {
      "midi": 62,
      "hit": false,
      "t": 30849.969150000034,
      "d": 314.28540000000066,
      "v": 68
    },
    {
      "midi": 57,
      "hit": false,
      "t": 30849.969150000034,
      "d": 428.5709999999999,
      "v": 53
    },
    {
      "midi": 66,
      "hit": false,
      "t": 30849.969150000034,
      "d": 442.8567000000003,
      "v": 70
    },
    {
      "midi": 50,
      "hit": false,
      "t": 31278.540150000033,
      "d": 207.1426500000016,
      "v": 49
    },
    {
      "midi": 59,
      "hit": false,
      "t": 31278.540150000033,
      "d": 207.1426500000016,
      "v": 60
    },
    {
      "midi": 62,
      "hit": false,
      "t": 31278.540150000033,
      "d": 264.28545000000304,
      "v": 74
    },
    {
      "midi": 67,
      "hit": false,
      "t": 31278.540150000033,
      "d": 314.2854000000043,
      "v": 78
    },
    {
      "midi": 60,
      "hit": false,
      "t": 31714.254000000037,
      "d": 392.856749999999,
      "v": 51
    },
    {
      "midi": 69,
      "hit": false,
      "t": 31714.254000000037,
      "d": 442.8567000000003,
      "v": 87
    },
    {
      "midi": 50,
      "hit": false,
      "t": 31721.396850000037,
      "d": 435.7138500000001,
      "v": 60
    },
    {
      "midi": 62,
      "hit": false,
      "t": 31721.396850000037,
      "d": 442.8567000000003,
      "v": 80
    },
    {
      "midi": 55,
      "hit": false,
      "t": 32578.538850000037,
      "d": 1164.2845500000003,
      "v": 37
    },
    {
      "midi": 62,
      "hit": false,
      "t": 32578.538850000037,
      "d": 1185.7130999999972,
      "v": 51
    },
    {
      "midi": 67,
      "hit": false,
      "t": 32578.538850000037,
      "d": 1214.284499999998,
      "v": 58
    },
    {
      "midi": 59,
      "hit": false,
      "t": 32578.538850000037,
      "d": 1249.9987499999952,
      "v": 36
    },
    {
      "midi": 59,
      "hit": false,
      "t": 34292.82285000003,
      "d": 228.5711999999985,
      "v": 63
    },
    {
      "midi": 55,
      "hit": false,
      "t": 34292.82285000003,
      "d": 235.71404999999504,
      "v": 59
    },
    {
      "midi": 62,
      "hit": false,
      "t": 34292.82285000003,
      "d": 264.28544999999576,
      "v": 87
    },
    {
      "midi": 67,
      "hit": false,
      "t": 34292.82285000003,
      "d": 292.8568499999965,
      "v": 83
    },
    {
      "midi": 55,
      "hit": false,
      "t": 34721.39385000003,
      "d": 271.4282999999996,
      "v": 69
    },
    {
      "midi": 59,
      "hit": false,
      "t": 34721.39385000003,
      "d": 285.71399999999994,
      "v": 76
    },
    {
      "midi": 62,
      "hit": false,
      "t": 34721.39385000003,
      "d": 299.9997000000003,
      "v": 95
    },
    {
      "midi": 67,
      "hit": false,
      "t": 34721.39385000003,
      "d": 335.71394999999757,
      "v": 78
    },
    {
      "midi": 55,
      "hit": false,
      "t": 35149.964850000026,
      "d": 249.9997499999954,
      "v": 80
    },
    {
      "midi": 62,
      "hit": false,
      "t": 35149.964850000026,
      "d": 271.4282999999923,
      "v": 91
    },
    {
      "midi": 59,
      "hit": false,
      "t": 35149.964850000026,
      "d": 278.57114999998885,
      "v": 68
    },
    {
      "midi": 67,
      "hit": false,
      "t": 35149.964850000026,
      "d": 364.285349999991,
      "v": 80
    },
    {
      "midi": 55,
      "hit": false,
      "t": 35578.535850000015,
      "d": 92.85704999999871,
      "v": 72
    },
    {
      "midi": 62,
      "hit": false,
      "t": 35578.535850000015,
      "d": 92.85704999999871,
      "v": 87
    },
    {
      "midi": 60,
      "hit": false,
      "t": 35578.535850000015,
      "d": 135.7141499999998,
      "v": 78
    },
    {
      "midi": 69,
      "hit": false,
      "t": 35578.535850000015,
      "d": 149.99985000000015,
      "v": 102
    },
    {
      "midi": 55,
      "hit": false,
      "t": 36007.10685000002,
      "d": 528.5708999999988,
      "v": 80
    },
    {
      "midi": 62,
      "hit": false,
      "t": 36007.10685000002,
      "d": 578.5708499999964,
      "v": 80
    },
    {
      "midi": 67,
      "hit": false,
      "t": 36007.10685000002,
      "d": 578.5708499999964,
      "v": 92
    },
    {
      "midi": 71,
      "hit": false,
      "t": 36007.10685000002,
      "d": 592.8565499999968,
      "v": 89
    },
    {
      "midi": 71,
      "hit": false,
      "t": 36857.106000000014,
      "d": 342.8567999999941,
      "v": 101
    },
    {
      "midi": 67,
      "hit": false,
      "t": 36857.106000000014,
      "d": 357.14249999999447,
      "v": 106
    },
    {
      "midi": 62,
      "hit": false,
      "t": 36864.24885000001,
      "d": 278.5711500000034,
      "v": 82
    },
    {
      "midi": 55,
      "hit": false,
      "t": 36864.24885000001,
      "d": 299.9997000000003,
      "v": 75
    },
    {
      "midi": 69,
      "hit": false,
      "t": 37714.24800000001,
      "d": 564.2851499999961,
      "v": 101
    },
    {
      "midi": 66,
      "hit": false,
      "t": 37714.24800000001,
      "d": 607.1422499999971,
      "v": 88
    },
    {
      "midi": 50,
      "hit": false,
      "t": 37721.39085,
      "d": 492.85665000000154,
      "v": 80
    },
    {
      "midi": 60,
      "hit": false,
      "t": 37721.39085,
      "d": 499.9994999999981,
      "v": 76
    },
    {
      "midi": 50,
      "hit": false,
      "t": 38578.53285,
      "d": 328.571100000001,
      "v": 80
    },
    {
      "midi": 60,
      "hit": false,
      "t": 38578.53285,
      "d": 449.99955000000045,
      "v": 82
    },
    {
      "midi": 69,
      "hit": false,
      "t": 38578.53285,
      "d": 492.85665000000154,
      "v": 101
    },
    {
      "midi": 66,
      "hit": false,
      "t": 38578.53285,
      "d": 528.5708999999988,
      "v": 91
    },
    {
      "midi": 62,
      "hit": false,
      "t": 39435.67485,
      "d": 1092.8560500000021,
      "v": 84
    },
    {
      "midi": 59,
      "hit": false,
      "t": 39435.67485,
      "d": 1107.1417500000025,
      "v": 71
    },
    {
      "midi": 67,
      "hit": false,
      "t": 39435.67485,
      "d": 1107.1417500000025,
      "v": 84
    },
    {
      "midi": 55,
      "hit": false,
      "t": 39435.67485,
      "d": 1114.284599999999,
      "v": 68
    },
    {
      "midi": 55,
      "hit": false,
      "t": 41135.67315,
      "d": 242.85689999999886,
      "v": 78
    },
    {
      "midi": 62,
      "hit": false,
      "t": 41135.67315,
      "d": 271.4282999999996,
      "v": 76
    },
    {
      "midi": 67,
      "hit": false,
      "t": 41135.67315,
      "d": 285.71399999999994,
      "v": 93
    },
    {
      "midi": 71,
      "hit": false,
      "t": 41135.67315,
      "d": 335.71394999999757,
      "v": 95
    },
    {
      "midi": 71,
      "hit": false,
      "t": 41564.24415,
      "d": 257.14259999999194,
      "v": 74
    },
    {
      "midi": 55,
      "hit": false,
      "t": 41571.386999999995,
      "d": 171.42839999999705,
      "v": 77
    },
    {
      "midi": 62,
      "hit": false,
      "t": 41578.52984999999,
      "d": 207.1426500000016,
      "v": 87
    },
    {
      "midi": 67,
      "hit": false,
      "t": 41578.52984999999,
      "d": 207.1426500000016,
      "v": 102
    },
    {
      "midi": 66,
      "hit": false,
      "t": 41992.815149999995,
      "d": 257.14259999999194,
      "v": 87
    },
    {
      "midi": 69,
      "hit": false,
      "t": 41992.815149999995,
      "d": 378.5710499999914,
      "v": 99
    },
    {
      "midi": 50,
      "hit": false,
      "t": 41999.95799999999,
      "d": 157.1426999999967,
      "v": 80
    },
    {
      "midi": 62,
      "hit": false,
      "t": 41999.95799999999,
      "d": 235.71404999999504,
      "v": 77
    },
    {
      "midi": 55,
      "hit": false,
      "t": 42421.386149999984,
      "d": 214.28549999999814,
      "v": 78
    },
    {
      "midi": 62,
      "hit": false,
      "t": 42421.386149999984,
      "d": 228.5711999999985,
      "v": 76
    },
    {
      "midi": 67,
      "hit": false,
      "t": 42421.386149999984,
      "d": 257.1425999999992,
      "v": 101
    },
    {
      "midi": 71,
      "hit": false,
      "t": 42421.386149999984,
      "d": 385.71390000000247,
      "v": 92
    },
    {
      "midi": 57,
      "hit": false,
      "t": 42864.24284999999,
      "d": 557.1422999999995,
      "v": 60
    },
    {
      "midi": 62,
      "hit": false,
      "t": 42864.24284999999,
      "d": 592.8565499999968,
      "v": 74
    },
    {
      "midi": 69,
      "hit": false,
      "t": 42864.24284999999,
      "d": 592.8565499999968,
      "v": 109
    },
    {
      "midi": 72,
      "hit": false,
      "t": 42864.24284999999,
      "d": 599.9993999999933,
      "v": 90
    },
    {
      "midi": 72,
      "hit": false,
      "t": 43707.09914999998,
      "d": 457.142399999997,
      "v": 91
    },
    {
      "midi": 69,
      "hit": false,
      "t": 43707.09914999998,
      "d": 528.5708999999988,
      "v": 107
    },
    {
      "midi": 62,
      "hit": false,
      "t": 43714.24199999998,
      "d": 435.7138500000001,
      "v": 72
    },
    {
      "midi": 57,
      "hit": false,
      "t": 43721.38484999997,
      "d": 428.57100000000355,
      "v": 74
    },
    {
      "midi": 55,
      "hit": false,
      "t": 44564.24114999998,
      "d": 264.28545000000304,
      "v": 66
    },
    {
      "midi": 62,
      "hit": false,
      "t": 44564.24114999998,
      "d": 292.85685000000376,
      "v": 74
    },
    {
      "midi": 67,
      "hit": false,
      "t": 44564.24114999998,
      "d": 307.1425500000041,
      "v": 89
    },
    {
      "midi": 71,
      "hit": false,
      "t": 44564.24114999998,
      "d": 335.71395000000484,
      "v": 89
    },
    {
      "midi": 62,
      "hit": false,
      "t": 44992.81214999998,
      "d": 142.8570000000036,
      "v": 87
    },
    {
      "midi": 55,
      "hit": false,
      "t": 44992.81214999998,
      "d": 149.99985000000015,
      "v": 70
    },
    {
      "midi": 67,
      "hit": false,
      "t": 44992.81214999998,
      "d": 199.99979999999778,
      "v": 92
    },
    {
      "midi": 71,
      "hit": false,
      "t": 44992.81214999998,
      "d": 249.9997499999954,
      "v": 76
    },
    {
      "midi": 71,
      "hit": false,
      "t": 45421.38314999998,
      "d": 364.285349999991,
      "v": 87
    },
    {
      "midi": 55,
      "hit": false,
      "t": 45428.525999999976,
      "d": 271.4282999999996,
      "v": 77
    },
    {
      "midi": 62,
      "hit": false,
      "t": 45428.525999999976,
      "d": 299.9997000000003,
      "v": 86
    },
    {
      "midi": 67,
      "hit": false,
      "t": 45428.525999999976,
      "d": 321.4282499999972,
      "v": 95
    },
    {
      "midi": 62,
      "hit": false,
      "t": 46278.52514999997,
      "d": 471.42810000000463,
      "v": 68
    },
    {
      "midi": 50,
      "hit": false,
      "t": 46278.52514999997,
      "d": 1135.7131500000032,
      "v": 66
    },
    {
      "midi": 69,
      "hit": false,
      "t": 46278.52514999997,
      "d": 1178.5702500000043,
      "v": 89
    },
    {
      "midi": 66,
      "hit": false,
      "t": 46278.52514999997,
      "d": 1228.570200000002,
      "v": 74
    },
    {
      "midi": 60,
      "hit": false,
      "t": 47149.95284999997,
      "d": 357.14250000000175,
      "v": 61
    },
    {
      "midi": 55,
      "hit": false,
      "t": 47992.80914999997,
      "d": 307.14254999999685,
      "v": 49
    },
    {
      "midi": 67,
      "hit": false,
      "t": 47999.95199999997,
      "d": 335.71394999999757,
      "v": 65
    },
    {
      "midi": 59,
      "hit": false,
      "t": 48007.094849999965,
      "d": 292.85685000000376,
      "v": 48
    },
    {
      "midi": 64,
      "hit": false,
      "t": 48007.094849999965,
      "d": 299.9997000000003,
      "v": 64
    },
    {
      "midi": 67,
      "hit": false,
      "t": 48428.522999999965,
      "d": 221.42834999999468,
      "v": 67
    },
    {
      "midi": 55,
      "hit": false,
      "t": 48435.66584999996,
      "d": 142.8570000000036,
      "v": 62
    },
    {
      "midi": 59,
      "hit": false,
      "t": 48435.66584999996,
      "d": 149.99985000000015,
      "v": 55
    },
    {
      "midi": 64,
      "hit": false,
      "t": 48435.66584999996,
      "d": 185.71409999999742,
      "v": 69
    },
    {
      "midi": 67,
      "hit": false,
      "t": 48849.95114999996,
      "d": 364.285349999991,
      "v": 93
    },
    {
      "midi": 64,
      "hit": false,
      "t": 48857.093999999954,
      "d": 257.14259999999194,
      "v": 87
    },
    {
      "midi": 55,
      "hit": false,
      "t": 48864.23684999995,
      "d": 242.85689999999886,
      "v": 70
    },
    {
      "midi": 59,
      "hit": false,
      "t": 48864.23684999995,
      "d": 278.5711499999961,
      "v": 65
    },
    {
      "midi": 66,
      "hit": false,
      "t": 49278.522149999946,
      "d": 121.42844999999215,
      "v": 87
    },
    {
      "midi": 69,
      "hit": false,
      "t": 49278.522149999946,
      "d": 142.85699999998906,
      "v": 101
    },
    {
      "midi": 62,
      "hit": false,
      "t": 49285.66499999994,
      "d": 99.99989999999525,
      "v": 95
    },
    {
      "midi": 55,
      "hit": false,
      "t": 49292.80784999994,
      "d": 121.42844999999943,
      "v": 82
    },
    {
      "midi": 62,
      "hit": false,
      "t": 49707.093149999935,
      "d": 599.9994000000006,
      "v": 80
    },
    {
      "midi": 71,
      "hit": false,
      "t": 49707.093149999935,
      "d": 599.9994000000006,
      "v": 91
    },
    {
      "midi": 67,
      "hit": false,
      "t": 49707.093149999935,
      "d": 635.7136499999979,
      "v": 93
    },
    {
      "midi": 55,
      "hit": false,
      "t": 49721.378849999935,
      "d": 521.4280500000023,
      "v": 73
    },
    {
      "midi": 55,
      "hit": false,
      "t": 50564.23514999993,
      "d": 292.85685000000376,
      "v": 74
    },
    {
      "midi": 62,
      "hit": false,
      "t": 50564.23514999993,
      "d": 328.571100000001,
      "v": 80
    },
    {
      "midi": 71,
      "hit": false,
      "t": 50564.23514999993,
      "d": 378.57104999999865,
      "v": 94
    },
    {
      "midi": 67,
      "hit": false,
      "t": 50564.23514999993,
      "d": 428.5709999999963,
      "v": 99
    },
    {
      "midi": 69,
      "hit": false,
      "t": 51421.37714999992,
      "d": 314.2853999999934,
      "v": 100
    },
    {
      "midi": 62,
      "hit": false,
      "t": 51421.37714999992,
      "d": 335.7139499999903,
      "v": 77
    },
    {
      "midi": 66,
      "hit": false,
      "t": 51421.37714999992,
      "d": 342.85679999998683,
      "v": 87
    },
    {
      "midi": 50,
      "hit": false,
      "t": 51428.51999999992,
      "d": 321.4282499999972,
      "v": 75
    },
    {
      "midi": 62,
      "hit": false,
      "t": 52278.519149999905,
      "d": 428.5709999999963,
      "v": 88
    },
    {
      "midi": 72,
      "hit": false,
      "t": 52278.519149999905,
      "d": 449.9995499999932,
      "v": 93
    },
    {
      "midi": 69,
      "hit": false,
      "t": 52278.519149999905,
      "d": 499.9994999999908,
      "v": 109
    },
    {
      "midi": 50,
      "hit": false,
      "t": 52285.6619999999,
      "d": 349.9996499999979,
      "v": 78
    },
    {
      "midi": 62,
      "hit": false,
      "t": 53149.94684999989,
      "d": 1114.284599999999,
      "v": 73
    },
    {
      "midi": 55,
      "hit": false,
      "t": 53149.94684999989,
      "d": 1128.5702999999994,
      "v": 68
    },
    {
      "midi": 71,
      "hit": false,
      "t": 53149.94684999989,
      "d": 1164.2845499999967,
      "v": 90
    },
    {
      "midi": 67,
      "hit": false,
      "t": 53149.94684999989,
      "d": 1171.4273999999932,
      "v": 96
    },
    {
      "midi": 48,
      "hit": false,
      "t": 54864.23084999988,
      "d": 892.8562500000044,
      "v": 49
    },
    {
      "midi": 60,
      "hit": false,
      "t": 54864.23084999988,
      "d": 921.4276500000051,
      "v": 44
    },
    {
      "midi": 69,
      "hit": false,
      "t": 54864.23084999988,
      "d": 928.5705000000016,
      "v": 76
    },
    {
      "midi": 64,
      "hit": false,
      "t": 54864.23084999988,
      "d": 992.8561499999996,
      "v": 66
    },
    {
      "midi": 67,
      "hit": false,
      "t": 56564.22914999988,
      "d": 999.9989999999962,
      "v": 60
    },
    {
      "midi": 50,
      "hit": false,
      "t": 56564.22914999988,
      "d": 1014.2846999999965,
      "v": 52
    },
    {
      "midi": 59,
      "hit": false,
      "t": 56564.22914999988,
      "d": 1078.5703499999945,
      "v": 40
    },
    {
      "midi": 62,
      "hit": false,
      "t": 56564.22914999988,
      "d": 1078.5703499999945,
      "v": 61
    },
    {
      "midi": 50,
      "hit": false,
      "t": 58278.51314999988,
      "d": 278.5711500000034,
      "v": 57
    },
    {
      "midi": 57,
      "hit": false,
      "t": 58278.51314999988,
      "d": 349.9996499999979,
      "v": 59
    },
    {
      "midi": 62,
      "hit": false,
      "t": 58278.51314999988,
      "d": 349.9996499999979,
      "v": 83
    },
    {
      "midi": 66,
      "hit": false,
      "t": 58278.51314999988,
      "d": 435.7138500000001,
      "v": 72
    },
    {
      "midi": 59,
      "hit": false,
      "t": 58714.22699999988,
      "d": 257.1425999999992,
      "v": 84
    },
    {
      "midi": 62,
      "hit": false,
      "t": 58714.22699999988,
      "d": 314.28540000000066,
      "v": 84
    },
    {
      "midi": 67,
      "hit": false,
      "t": 58714.22699999988,
      "d": 357.14250000000175,
      "v": 87
    },
    {
      "midi": 50,
      "hit": false,
      "t": 58721.36984999988,
      "d": 264.28545000000304,
      "v": 78
    },
    {
      "midi": 50,
      "hit": false,
      "t": 59149.94084999988,
      "d": 385.71390000000247,
      "v": 78
    },
    {
      "midi": 60,
      "hit": false,
      "t": 59149.94084999988,
      "d": 442.8567000000039,
      "v": 68
    },
    {
      "midi": 62,
      "hit": false,
      "t": 59149.94084999988,
      "d": 514.2852000000057,
      "v": 103
    },
    {
      "midi": 69,
      "hit": false,
      "t": 59149.94084999988,
      "d": 514.2852000000057,
      "v": 101
    },
    {
      "midi": 62,
      "hit": false,
      "t": 60007.08284999989,
      "d": 557.1422999999922,
      "v": 88
    },
    {
      "midi": 55,
      "hit": false,
      "t": 60007.08284999989,
      "d": 878.5705499999895,
      "v": 60
    },
    {
      "midi": 59,
      "hit": false,
      "t": 60007.08284999989,
      "d": 964.2847499999916,
      "v": 69
    },
    {
      "midi": 67,
      "hit": false,
      "t": 60007.08284999989,
      "d": 978.5704499999847,
      "v": 88
    },
    {
      "midi": 62,
      "hit": false,
      "t": 60864.22484999988,
      "d": 114.28559999999561,
      "v": 96
    },
    {
      "midi": 48,
      "hit": false,
      "t": 61721.36684999987,
      "d": 907.1419500000047,
      "v": 40
    },
    {
      "midi": 69,
      "hit": false,
      "t": 61721.36684999987,
      "d": 921.4276500000051,
      "v": 74
    },
    {
      "midi": 60,
      "hit": false,
      "t": 61721.36684999987,
      "d": 935.7133500000054,
      "v": 32
    },
    {
      "midi": 64,
      "hit": false,
      "t": 61721.36684999987,
      "d": 999.9990000000034,
      "v": 63
    },
    {
      "midi": 50,
      "hit": false,
      "t": 63435.650849999874,
      "d": 957.1419000000024,
      "v": 42
    },
    {
      "midi": 67,
      "hit": false,
      "t": 63435.650849999874,
      "d": 978.5704499999993,
      "v": 51
    },
    {
      "midi": 59,
      "hit": false,
      "t": 63435.650849999874,
      "d": 992.8561499999996,
      "v": 29
    },
    {
      "midi": 62,
      "hit": false,
      "t": 63435.650849999874,
      "d": 999.9989999999962,
      "v": 50
    },
    {
      "midi": 66,
      "hit": false,
      "t": 65135.64914999987,
      "d": 428.5709999999963,
      "v": 77
    },
    {
      "midi": 62,
      "hit": false,
      "t": 65142.79199999986,
      "d": 292.8568499999965,
      "v": 84
    },
    {
      "midi": 50,
      "hit": false,
      "t": 65149.93484999986,
      "d": 242.85689999999886,
      "v": 66
    },
    {
      "midi": 57,
      "hit": false,
      "t": 65149.93484999986,
      "d": 299.9997000000003,
      "v": 64
    },
    {
      "midi": 59,
      "hit": false,
      "t": 65564.22014999986,
      "d": 249.99975000000268,
      "v": 66
    },
    {
      "midi": 62,
      "hit": false,
      "t": 65564.22014999986,
      "d": 299.9997000000003,
      "v": 79
    },
    {
      "midi": 67,
      "hit": false,
      "t": 65564.22014999986,
      "d": 357.14250000000175,
      "v": 85
    },
    {
      "midi": 50,
      "hit": false,
      "t": 65578.50584999986,
      "d": 228.57120000000577,
      "v": 63
    },
    {
      "midi": 60,
      "hit": false,
      "t": 66007.07684999987,
      "d": 392.85674999999173,
      "v": 54
    },
    {
      "midi": 50,
      "hit": false,
      "t": 66007.07684999987,
      "d": 435.71384999998554,
      "v": 52
    },
    {
      "midi": 66,
      "hit": false,
      "t": 66007.07684999987,
      "d": 464.28524999998626,
      "v": 74
    },
    {
      "midi": 69,
      "hit": false,
      "t": 66007.07684999987,
      "d": 464.28524999998626,
      "v": 90
    },
    {
      "midi": 67,
      "hit": false,
      "t": 66864.21884999986,
      "d": 1057.1417999999976,
      "v": 54
    },
    {
      "midi": 62,
      "hit": false,
      "t": 66864.21884999986,
      "d": 1135.713149999996,
      "v": 50
    },
    {
      "midi": 59,
      "hit": false,
      "t": 66864.21884999986,
      "d": 1199.9988000000012,
      "v": 28
    },
    {
      "midi": 55,
      "hit": false,
      "t": 66864.21884999986,
      "d": 1207.141650000005,
      "v": 40
    },
    {
      "midi": 67,
      "hit": false,
      "t": 68585.64569999986,
      "d": 778.5706499999942,
      "v": 66
    },
    {
      "midi": 66,
      "hit": false,
      "t": 69414.21629999985,
      "d": 471.4280999999901,
      "v": 69
    },
    {
      "midi": 64,
      "hit": false,
      "t": 69842.78729999985,
      "d": 464.2852500000008,
      "v": 81
    },
    {
      "midi": 59,
      "hit": false,
      "t": 70278.50114999985,
      "d": 414.2853000000032,
      "v": 42
    },
    {
      "midi": 55,
      "hit": false,
      "t": 70278.50114999985,
      "d": 449.99955000000773,
      "v": 57
    },
    {
      "midi": 62,
      "hit": false,
      "t": 70278.50114999985,
      "d": 3928.5675000000047,
      "v": 87
    },
    {
      "midi": 55,
      "hit": false,
      "t": 71128.50029999987,
      "d": 478.5709499999939,
      "v": 61
    },
    {
      "midi": 50,
      "hit": false,
      "t": 71135.64314999987,
      "d": 421.42814999999246,
      "v": 59
    },
    {
      "midi": 59,
      "hit": false,
      "t": 71992.78514999987,
      "d": 335.71395000000484,
      "v": 51
    },
    {
      "midi": 55,
      "hit": false,
      "t": 71992.78514999987,
      "d": 357.14250000000175,
      "v": 62
    },
    {
      "midi": 55,
      "hit": false,
      "t": 72849.92714999987,
      "d": 421.42814999999246,
      "v": 54
    },
    {
      "midi": 50,
      "hit": false,
      "t": 72857.06999999988,
      "d": 371.42819999999483,
      "v": 52
    },
    {
      "midi": 59,
      "hit": false,
      "t": 73699.92629999986,
      "d": 235.71404999999504,
      "v": 40
    },
    {
      "midi": 55,
      "hit": false,
      "t": 73699.92629999986,
      "d": 257.14259999999194,
      "v": 52
    },
    {
      "midi": 59,
      "hit": false,
      "t": 74128.49729999986,
      "d": 92.85704999999143,
      "v": 46
    },
    {
      "midi": 55,
      "hit": false,
      "t": 74135.64014999986,
      "d": 71.42849999999453,
      "v": 57
    },
    {
      "midi": 59,
      "hit": false,
      "t": 74557.06829999985,
      "d": 92.85705000000598,
      "v": 51
    },
    {
      "midi": 55,
      "hit": false,
      "t": 74557.06829999985,
      "d": 114.28560000000289,
      "v": 57
    },
    {
      "midi": 55,
      "hit": false,
      "t": 74992.78214999985,
      "d": 49.999949999997625,
      "v": 68
    },
    {
      "midi": 59,
      "hit": false,
      "t": 74992.78214999985,
      "d": 57.14280000000144,
      "v": 69
    },
    {
      "midi": 67,
      "hit": false,
      "t": 75435.63884999986,
      "d": 871.4277000000002,
      "v": 76
    },
    {
      "midi": 66,
      "hit": false,
      "t": 76278.49514999986,
      "d": 492.85665000000154,
      "v": 80
    },
    {
      "midi": 64,
      "hit": false,
      "t": 76707.06614999985,
      "d": 449.99955000000773,
      "v": 81
    },
    {
      "midi": 62,
      "hit": false,
      "t": 77135.63714999986,
      "d": 4099.9959000000235,
      "v": 90
    },
    {
      "midi": 59,
      "hit": false,
      "t": 77142.77999999987,
      "d": 421.42814999999246,
      "v": 47
    },
    {
      "midi": 55,
      "hit": false,
      "t": 77142.77999999987,
      "d": 428.5709999999963,
      "v": 54
    },
    {
      "midi": 50,
      "hit": false,
      "t": 78007.06484999986,
      "d": 399.9996000000101,
      "v": 60
    },
    {
      "midi": 55,
      "hit": false,
      "t": 78007.06484999986,
      "d": 414.2853000000032,
      "v": 59
    },
    {
      "midi": 59,
      "hit": false,
      "t": 78857.06399999987,
      "d": 407.14244999999937,
      "v": 42
    },
    {
      "midi": 55,
      "hit": false,
      "t": 78857.06399999987,
      "d": 421.42814999999246,
      "v": 53
    },
    {
      "midi": 55,
      "hit": false,
      "t": 79714.20599999986,
      "d": 464.28525000001537,
      "v": 51
    },
    {
      "midi": 50,
      "hit": false,
      "t": 79721.34884999986,
      "d": 421.428150000007,
      "v": 52
    },
    {
      "midi": 59,
      "hit": false,
      "t": 80578.49084999989,
      "d": 221.42835000000196,
      "v": 44
    },
    {
      "midi": 55,
      "hit": false,
      "t": 80578.49084999989,
      "d": 242.85689999999886,
      "v": 52
    },
    {
      "midi": 59,
      "hit": false,
      "t": 80999.91899999988,
      "d": 92.85705000000598,
      "v": 42
    },
    {
      "midi": 55,
      "hit": false,
      "t": 80999.91899999988,
      "d": 157.14270000001125,
      "v": 28
    },
    {
      "midi": 59,
      "hit": false,
      "t": 81435.63284999989,
      "d": 49.999949999997625,
      "v": 64
    },
    {
      "midi": 55,
      "hit": false,
      "t": 81435.63284999989,
      "d": 64.28564999999071,
      "v": 66
    },
    {
      "midi": 62,
      "hit": false,
      "t": 81871.34669999988,
      "d": 92.85705000000598,
      "v": 35
    },
    {
      "midi": 67,
      "hit": false,
      "t": 82292.77484999989,
      "d": 785.713499999998,
      "v": 83
    },
    {
      "midi": 43,
      "hit": false,
      "t": 82299.91769999989,
      "d": 435.71384999998554,
      "v": 58
    },
    {
      "midi": 55,
      "hit": false,
      "t": 82299.91769999989,
      "d": 485.71379999998317,
      "v": 67
    },
    {
      "midi": 62,
      "hit": false,
      "t": 82299.91769999989,
      "d": 549.9994499999884,
      "v": 85
    },
    {
      "midi": 69,
      "hit": false,
      "t": 83142.77399999989,
      "d": 357.14250000000175,
      "v": 100
    },
    {
      "midi": 45,
      "hit": false,
      "t": 83149.91684999989,
      "d": 171.42840000000433,
      "v": 76
    },
    {
      "midi": 57,
      "hit": false,
      "t": 83149.91684999989,
      "d": 185.71409999999742,
      "v": 62
    },
    {
      "midi": 62,
      "hit": false,
      "t": 83149.91684999989,
      "d": 264.28544999999576,
      "v": 93
    },
    {
      "midi": 71,
      "hit": false,
      "t": 83564.2021499999,
      "d": 99.99989999999525,
      "v": 87
    },
    {
      "midi": 47,
      "hit": false,
      "t": 83564.2021499999,
      "d": 107.14274999999907,
      "v": 71
    },
    {
      "midi": 59,
      "hit": false,
      "t": 83564.2021499999,
      "d": 128.57129999999597,
      "v": 67
    },
    {
      "midi": 64,
      "hit": false,
      "t": 83999.9159999999,
      "d": 1078.57034999998,
      "v": 103
    },
    {
      "midi": 48,
      "hit": false,
      "t": 84014.20169999989,
      "d": 885.7133999999933,
      "v": 61
    },
    {
      "midi": 45,
      "hit": false,
      "t": 85699.91429999987,
      "d": 392.8567500000063,
      "v": 91
    },
    {
      "midi": 57,
      "hit": false,
      "t": 85699.91429999987,
      "d": 435.7138500000001,
      "v": 86
    },
    {
      "midi": 72,
      "hit": false,
      "t": 85699.91429999987,
      "d": 721.4278500000073,
      "v": 91
    },
    {
      "midi": 69,
      "hit": false,
      "t": 85699.91429999987,
      "d": 799.9992000000057,
      "v": 105
    },
    {
      "midi": 47,
      "hit": false,
      "t": 86549.91344999988,
      "d": 171.42839999998978,
      "v": 66
    },
    {
      "midi": 59,
      "hit": false,
      "t": 86549.91344999988,
      "d": 171.42839999998978,
      "v": 73
    },
    {
      "midi": 67,
      "hit": false,
      "t": 86549.91344999988,
      "d": 421.42814999999246,
      "v": 94
    },
    {
      "midi": 71,
      "hit": false,
      "t": 86549.91344999988,
      "d": 507.1423499999946,
      "v": 88
    },
    {
      "midi": 64,
      "hit": false,
      "t": 86978.48444999987,
      "d": 78.57134999999835,
      "v": 93
    },
    {
      "midi": 48,
      "hit": false,
      "t": 86978.48444999987,
      "d": 121.42844999999215,
      "v": 76
    },
    {
      "midi": 60,
      "hit": false,
      "t": 86978.48444999987,
      "d": 121.42844999999215,
      "v": 73
    },
    {
      "midi": 69,
      "hit": false,
      "t": 86978.48444999987,
      "d": 149.99984999999288,
      "v": 101
    },
    {
      "midi": 67,
      "hit": false,
      "t": 87414.19829999986,
      "d": 1149.9988500000036,
      "v": 95
    },
    {
      "midi": 50,
      "hit": false,
      "t": 87414.19829999986,
      "d": 1157.1417000000074,
      "v": 53
    },
    {
      "midi": 62,
      "hit": false,
      "t": 87414.19829999986,
      "d": 1199.9988000000012,
      "v": 99
    },
    {
      "midi": 59,
      "hit": false,
      "t": 87421.34114999986,
      "d": 1199.9988000000012,
      "v": 43
    },
    {
      "midi": 50,
      "hit": false,
      "t": 89157.05369999987,
      "d": 292.85685000001104,
      "v": 73
    },
    {
      "midi": 57,
      "hit": false,
      "t": 89157.05369999987,
      "d": 335.71395000000484,
      "v": 80
    },
    {
      "midi": 66,
      "hit": false,
      "t": 89157.05369999987,
      "d": 371.4282000000094,
      "v": 84
    },
    {
      "midi": 62,
      "hit": false,
      "t": 89164.19654999988,
      "d": 328.571100000001,
      "v": 92
    },
    {
      "midi": 62,
      "hit": false,
      "t": 89585.62469999988,
      "d": 121.4284500000067,
      "v": 89
    },
    {
      "midi": 50,
      "hit": false,
      "t": 89585.62469999988,
      "d": 128.57130000001052,
      "v": 63
    },
    {
      "midi": 59,
      "hit": false,
      "t": 89585.62469999988,
      "d": 128.57130000001052,
      "v": 78
    },
    {
      "midi": 67,
      "hit": false,
      "t": 89585.62469999988,
      "d": 199.99980000000505,
      "v": 89
    },
    {
      "midi": 60,
      "hit": false,
      "t": 90014.1956999999,
      "d": 421.428150000007,
      "v": 67
    },
    {
      "midi": 62,
      "hit": false,
      "t": 90014.1956999999,
      "d": 542.8566000000137,
      "v": 101
    },
    {
      "midi": 50,
      "hit": false,
      "t": 90014.1956999999,
      "d": 592.8565500000113,
      "v": 70
    },
    {
      "midi": 69,
      "hit": false,
      "t": 90014.1956999999,
      "d": 607.1422500000044,
      "v": 100
    },
    {
      "midi": 62,
      "hit": false,
      "t": 90871.3376999999,
      "d": 892.8562500000116,
      "v": 87
    },
    {
      "midi": 67,
      "hit": false,
      "t": 90871.3376999999,
      "d": 921.4276500000124,
      "v": 87
    },
    {
      "midi": 59,
      "hit": false,
      "t": 90871.3376999999,
      "d": 949.9990500000131,
      "v": 80
    },
    {
      "midi": 55,
      "hit": false,
      "t": 90871.3376999999,
      "d": 971.42760000001,
      "v": 84
    },
    {
      "midi": 65,
      "hit": false,
      "t": 91721.3368499999,
      "d": 178.57125000000815,
      "v": 101
    },
    {
      "midi": 69,
      "hit": false,
      "t": 92564.19314999992,
      "d": 1078.570350000009,
      "v": 101
    },
    {
      "midi": 64,
      "hit": false,
      "t": 92564.19314999992,
      "d": 1092.8560500000021,
      "v": 105
    },
    {
      "midi": 60,
      "hit": false,
      "t": 92571.33599999992,
      "d": 1049.9989500000083,
      "v": 76
    },
    {
      "midi": 48,
      "hit": false,
      "t": 92578.47884999993,
      "d": 1085.7131999999983,
      "v": 74
    },
    {
      "midi": 67,
      "hit": false,
      "t": 94278.47714999992,
      "d": 1071.4275000000052,
      "v": 95
    },
    {
      "midi": 62,
      "hit": false,
      "t": 94285.61999999992,
      "d": 1107.1417499999952,
      "v": 95
    },
    {
      "midi": 50,
      "hit": false,
      "t": 94292.76284999993,
      "d": 1021.4275500000076,
      "v": 69
    },
    {
      "midi": 59,
      "hit": false,
      "t": 94292.76284999993,
      "d": 1042.8561000000045,
      "v": 61
    },
    {
      "midi": 66,
      "hit": false,
      "t": 95999.90399999992,
      "d": 392.85674999999173,
      "v": 81
    },
    {
      "midi": 50,
      "hit": false,
      "t": 96007.04684999993,
      "d": 292.8568499999965,
      "v": 60
    },
    {
      "midi": 62,
      "hit": false,
      "t": 96007.04684999993,
      "d": 307.14254999998957,
      "v": 86
    },
    {
      "midi": 57,
      "hit": false,
      "t": 96007.04684999993,
      "d": 357.1424999999872,
      "v": 84
    },
    {
      "midi": 62,
      "hit": false,
      "t": 96421.33214999991,
      "d": 107.14274999999907,
      "v": 82
    },
    {
      "midi": 50,
      "hit": false,
      "t": 96421.33214999991,
      "d": 128.57129999999597,
      "v": 66
    },
    {
      "midi": 59,
      "hit": false,
      "t": 96421.33214999991,
      "d": 135.7141499999998,
      "v": 77
    },
    {
      "midi": 67,
      "hit": false,
      "t": 96421.33214999991,
      "d": 157.1426999999967,
      "v": 90
    },
    {
      "midi": 60,
      "hit": false,
      "t": 96864.1888499999,
      "d": 349.9996499999979,
      "v": 70
    },
    {
      "midi": 62,
      "hit": false,
      "t": 96864.1888499999,
      "d": 421.42814999999246,
      "v": 103
    },
    {
      "midi": 50,
      "hit": false,
      "t": 96864.1888499999,
      "d": 435.71384999998554,
      "v": 77
    },
    {
      "midi": 69,
      "hit": false,
      "t": 96864.1888499999,
      "d": 542.8565999999846,
      "v": 100
    },
    {
      "midi": 59,
      "hit": false,
      "t": 97721.33084999988,
      "d": 885.7133999999787,
      "v": 84
    },
    {
      "midi": 67,
      "hit": false,
      "t": 97721.33084999988,
      "d": 899.9990999999718,
      "v": 82
    },
    {
      "midi": 60,
      "hit": false,
      "t": 97728.47369999989,
      "d": 71.42849999999453,
      "v": 45
    },
    {
      "midi": 62,
      "hit": false,
      "t": 97728.47369999989,
      "d": 849.9991499999742,
      "v": 63
    },
    {
      "midi": 55,
      "hit": false,
      "t": 97728.47369999989,
      "d": 907.1419499999611,
      "v": 79
    },
    {
      "midi": 65,
      "hit": false,
      "t": 98564.18714999987,
      "d": 128.57129999998142,
      "v": 97
    },
    {
      "midi": 48,
      "hit": false,
      "t": 99421.32914999984,
      "d": 978.5704499999993,
      "v": 67
    },
    {
      "midi": 69,
      "hit": false,
      "t": 99421.32914999984,
      "d": 1014.2847000000038,
      "v": 93
    },
    {
      "midi": 60,
      "hit": false,
      "t": 99421.32914999984,
      "d": 1021.4275500000076,
      "v": 71
    },
    {
      "midi": 64,
      "hit": false,
      "t": 99421.32914999984,
      "d": 1028.5704000000114,
      "v": 96
    },
    {
      "midi": 50,
      "hit": false,
      "t": 101135.61314999986,
      "d": 999.9989999999962,
      "v": 65
    },
    {
      "midi": 67,
      "hit": false,
      "t": 101135.61314999986,
      "d": 1057.1417999999976,
      "v": 84
    },
    {
      "midi": 62,
      "hit": false,
      "t": 101135.61314999986,
      "d": 1071.4274999999907,
      "v": 82
    },
    {
      "midi": 59,
      "hit": false,
      "t": 101135.61314999986,
      "d": 1085.7131999999838,
      "v": 50
    },
    {
      "midi": 50,
      "hit": false,
      "t": 102842.75429999984,
      "d": 257.1426000000065,
      "v": 50
    },
    {
      "midi": 62,
      "hit": false,
      "t": 102842.75429999984,
      "d": 292.85685000001104,
      "v": 70
    },
    {
      "midi": 66,
      "hit": false,
      "t": 102842.75429999984,
      "d": 399.9996000000101,
      "v": 62
    },
    {
      "midi": 57,
      "hit": false,
      "t": 102849.89714999984,
      "d": 307.1425500000041,
      "v": 53
    },
    {
      "midi": 62,
      "hit": false,
      "t": 103278.46814999986,
      "d": 64.28564999999071,
      "v": 60
    },
    {
      "midi": 59,
      "hit": false,
      "t": 103278.46814999986,
      "d": 78.57134999999835,
      "v": 57
    },
    {
      "midi": 67,
      "hit": false,
      "t": 103278.46814999986,
      "d": 142.8570000000036,
      "v": 62
    },
    {
      "midi": 50,
      "hit": false,
      "t": 103292.75384999985,
      "d": 57.14280000000144,
      "v": 47
    },
    {
      "midi": 60,
      "hit": false,
      "t": 103707.03914999985,
      "d": 414.2853000000032,
      "v": 35
    },
    {
      "midi": 62,
      "hit": false,
      "t": 103714.18199999986,
      "d": 471.42810000000463,
      "v": 59
    },
    {
      "midi": 50,
      "hit": false,
      "t": 103721.32484999986,
      "d": 435.7138500000001,
      "v": 52
    },
    {
      "midi": 69,
      "hit": false,
      "t": 103721.32484999986,
      "d": 442.8567000000039,
      "v": 65
    },
    {
      "midi": 59,
      "hit": false,
      "t": 104578.46684999987,
      "d": 1271.4273000000103,
      "v": 25
    },
    {
      "midi": 67,
      "hit": false,
      "t": 104578.46684999987,
      "d": 1278.570150000014,
      "v": 47
    },
    {
      "midi": 62,
      "hit": false,
      "t": 104578.46684999987,
      "d": 1292.8558500000072,
      "v": 42
    },
    {
      "midi": 55,
      "hit": false,
      "t": 104585.60969999987,
      "d": 1299.9986999999965,
      "v": 29
    },
    {
      "midi": 67,
      "hit": false,
      "t": 106292.75084999987,
      "d": 999.9989999999962,
      "v": 75
    },
    {
      "midi": 66,
      "hit": false,
      "t": 107157.03569999986,
      "d": 435.7138500000001,
      "v": 79
    },
    {
      "midi": 64,
      "hit": false,
      "t": 107578.46384999987,
      "d": 428.5709999999963,
      "v": 87
    },
    {
      "midi": 62,
      "hit": false,
      "t": 107999.89199999986,
      "d": 5007.137849999999,
      "v": 100
    },
    {
      "midi": 59,
      "hit": false,
      "t": 108007.03484999987,
      "d": 471.42810000000463,
      "v": 57
    },
    {
      "midi": 55,
      "hit": false,
      "t": 108014.17769999987,
      "d": 471.42810000000463,
      "v": 53
    },
    {
      "midi": 55,
      "hit": false,
      "t": 108864.17684999987,
      "d": 449.99955000000773,
      "v": 61
    },
    {
      "midi": 50,
      "hit": false,
      "t": 108871.31969999988,
      "d": 392.8567500000063,
      "v": 57
    },
    {
      "midi": 55,
      "hit": false,
      "t": 109707.03314999987,
      "d": 357.1424999999872,
      "v": 71
    },
    {
      "midi": 59,
      "hit": false,
      "t": 109714.17599999988,
      "d": 335.7139499999903,
      "v": 61
    },
    {
      "midi": 50,
      "hit": false,
      "t": 110564.17514999986,
      "d": 564.2851499999961,
      "v": 51
    },
    {
      "midi": 55,
      "hit": false,
      "t": 110564.17514999986,
      "d": 635.7136499999906,
      "v": 53
    },
    {
      "midi": 55,
      "hit": false,
      "t": 111435.60284999985,
      "d": 278.5711500000034,
      "v": 44
    },
    {
      "midi": 59,
      "hit": false,
      "t": 111435.60284999985,
      "d": 285.7140000000072,
      "v": 37
    },
    {
      "midi": 59,
      "hit": false,
      "t": 111849.88814999985,
      "d": 164.2855500000005,
      "v": 31
    },
    {
      "midi": 55,
      "hit": false,
      "t": 111849.88814999985,
      "d": 171.42840000000433,
      "v": 44
    },
    {
      "midi": 59,
      "hit": false,
      "t": 112278.45914999986,
      "d": 92.85705000000598,
      "v": 63
    },
    {
      "midi": 55,
      "hit": false,
      "t": 112285.60199999987,
      "d": 99.99989999999525,
      "v": 60
    },
    {
      "midi": 55,
      "hit": false,
      "t": 112707.03014999986,
      "d": 64.28565000000526,
      "v": 75
    },
    {
      "midi": 59,
      "hit": false,
      "t": 112707.03014999986,
      "d": 92.85705000000598,
      "v": 73
    },
    {
      "midi": 67,
      "hit": false,
      "t": 113157.02969999985,
      "d": 814.2848999999987,
      "v": 83
    },
    {
      "midi": 66,
      "hit": false,
      "t": 113992.74314999985,
      "d": 464.2852500000008,
      "v": 79
    },
    {
      "midi": 64,
      "hit": false,
      "t": 114421.31414999985,
      "d": 464.28525000001537,
      "v": 88
    },
    {
      "midi": 59,
      "hit": false,
      "t": 114849.88514999986,
      "d": 521.4280500000023,
      "v": 54
    },
    {
      "midi": 55,
      "hit": false,
      "t": 114849.88514999986,
      "d": 542.8565999999992,
      "v": 68
    },
    {
      "midi": 62,
      "hit": false,
      "t": 114849.88514999986,
      "d": 4685.709600000002,
      "v": 95
    },
    {
      "midi": 50,
      "hit": false,
      "t": 115721.31284999986,
      "d": 407.14244999999937,
      "v": 53
    },
    {
      "midi": 55,
      "hit": false,
      "t": 115721.31284999986,
      "d": 428.5709999999963,
      "v": 66
    },
    {
      "midi": 55,
      "hit": false,
      "t": 116578.45484999986,
      "d": 392.85674999999173,
      "v": 50
    },
    {
      "midi": 59,
      "hit": false,
      "t": 116578.45484999986,
      "d": 399.99959999999555,
      "v": 41
    },
    {
      "midi": 50,
      "hit": false,
      "t": 117421.31114999986,
      "d": 435.7138500000001,
      "v": 50
    },
    {
      "midi": 55,
      "hit": false,
      "t": 117421.31114999986,
      "d": 507.1423499999946,
      "v": 52
    },
    {
      "midi": 59,
      "hit": false,
      "t": 118292.73884999986,
      "d": 221.42835000000196,
      "v": 50
    },
    {
      "midi": 55,
      "hit": false,
      "t": 118292.73884999986,
      "d": 235.71404999999504,
      "v": 58
    },
    {
      "midi": 59,
      "hit": false,
      "t": 118721.30984999986,
      "d": 78.57134999999835,
      "v": 59
    },
    {
      "midi": 55,
      "hit": false,
      "t": 118721.30984999986,
      "d": 128.57129999999597,
      "v": 58
    },
    {
      "midi": 59,
      "hit": false,
      "t": 119149.88084999986,
      "d": 85.71420000000217,
      "v": 66
    },
    {
      "midi": 55,
      "hit": false,
      "t": 119149.88084999986,
      "d": 135.7141499999998,
      "v": 65
    },
    {
      "midi": 59,
      "hit": false,
      "t": 119564.16614999986,
      "d": 49.999949999997625,
      "v": 60
    },
    {
      "midi": 55,
      "hit": false,
      "t": 119564.16614999986,
      "d": 71.42849999999453,
      "v": 51
    },
    {
      "midi": 67,
      "hit": false,
      "t": 120007.02284999985,
      "d": 299.99970000001485,
      "v": 87
    },
    {
      "midi": 55,
      "hit": false,
      "t": 120007.02284999985,
      "d": 314.28540000000794,
      "v": 58
    },
    {
      "midi": 59,
      "hit": false,
      "t": 120007.02284999985,
      "d": 321.42825000001176,
      "v": 87
    },
    {
      "midi": 62,
      "hit": false,
      "t": 120007.02284999985,
      "d": 342.85680000000866,
      "v": 87
    },
    {
      "midi": 43,
      "hit": false,
      "t": 120014.16569999985,
      "d": 264.2854500000103,
      "v": 58
    },
    {
      "midi": 45,
      "hit": false,
      "t": 120849.87914999985,
      "d": 107.14274999999907,
      "v": 80
    },
    {
      "midi": 62,
      "hit": false,
      "t": 120849.87914999985,
      "d": 107.14274999999907,
      "v": 101
    },
    {
      "midi": 57,
      "hit": false,
      "t": 120849.87914999985,
      "d": 114.28560000000289,
      "v": 74
    },
    {
      "midi": 69,
      "hit": false,
      "t": 120849.87914999985,
      "d": 135.7141499999998,
      "v": 93
    },
    {
      "midi": 71,
      "hit": false,
      "t": 121271.30729999985,
      "d": 92.85705000000598,
      "v": 88
    },
    {
      "midi": 62,
      "hit": false,
      "t": 121278.45014999986,
      "d": 64.28565000000526,
      "v": 89
    },
    {
      "midi": 59,
      "hit": false,
      "t": 121278.45014999986,
      "d": 99.99989999999525,
      "v": 77
    },
    {
      "midi": 47,
      "hit": false,
      "t": 121278.45014999986,
      "d": 121.42844999999215,
      "v": 76
    },
    {
      "midi": 64,
      "hit": false,
      "t": 121707.02114999985,
      "d": 949.9990499999985,
      "v": 107
    },
    {
      "midi": 60,
      "hit": false,
      "t": 121714.16399999986,
      "d": 928.5705000000016,
      "v": 73
    },
    {
      "midi": 48,
      "hit": false,
      "t": 121714.16399999986,
      "d": 1014.2846999999892,
      "v": 69
    },
    {
      "midi": 55,
      "hit": false,
      "t": 121721.30684999986,
      "d": 935.7133499999909,
      "v": 74
    },
    {
      "midi": 57,
      "hit": false,
      "t": 123421.30514999985,
      "d": 449.99955000000773,
      "v": 91
    },
    {
      "midi": 64,
      "hit": false,
      "t": 123421.30514999985,
      "d": 507.1423500000092,
      "v": 101
    },
    {
      "midi": 69,
      "hit": false,
      "t": 123421.30514999985,
      "d": 642.856500000009,
      "v": 109
    },
    {
      "midi": 72,
      "hit": false,
      "t": 123421.30514999985,
      "d": 749.999250000008,
      "v": 97
    },
    {
      "midi": 45,
      "hit": false,
      "t": 123428.44799999986,
      "d": 407.14244999999937,
      "v": 91
    },
    {
      "midi": 47,
      "hit": false,
      "t": 124278.44714999986,
      "d": 178.57125000000815,
      "v": 73
    },
    {
      "midi": 59,
      "hit": false,
      "t": 124278.44714999986,
      "d": 185.71410000001197,
      "v": 84
    },
    {
      "midi": 67,
      "hit": false,
      "t": 124278.44714999986,
      "d": 357.1425000000163,
      "v": 96
    },
    {
      "midi": 71,
      "hit": false,
      "t": 124278.44714999986,
      "d": 392.85675000002084,
      "v": 89
    },
    {
      "midi": 69,
      "hit": false,
      "t": 124699.87529999988,
      "d": 85.71420000000217,
      "v": 104
    },
    {
      "midi": 64,
      "hit": false,
      "t": 124707.01814999989,
      "d": 71.42849999999453,
      "v": 98
    },
    {
      "midi": 60,
      "hit": false,
      "t": 124707.01814999989,
      "d": 114.28560000000289,
      "v": 78
    },
    {
      "midi": 48,
      "hit": false,
      "t": 124707.01814999989,
      "d": 121.4284500000067,
      "v": 80
    },
    {
      "midi": 67,
      "hit": false,
      "t": 125142.73199999989,
      "d": 1149.9988500000036,
      "v": 96
    },
    {
      "midi": 50,
      "hit": false,
      "t": 125149.87484999989,
      "d": 1107.1417499999952,
      "v": 74
    },
    {
      "midi": 59,
      "hit": false,
      "t": 125149.87484999989,
      "d": 1149.9988500000036,
      "v": 54
    },
    {
      "midi": 62,
      "hit": false,
      "t": 125149.87484999989,
      "d": 1149.9988500000036,
      "v": 100
    },
    {
      "midi": 62,
      "hit": false,
      "t": 126864.15884999989,
      "d": 307.1425500000041,
      "v": 95
    },
    {
      "midi": 66,
      "hit": false,
      "t": 126864.15884999989,
      "d": 407.14244999999937,
      "v": 87
    },
    {
      "midi": 50,
      "hit": false,
      "t": 126871.3016999999,
      "d": 271.4282999999996,
      "v": 75
    },
    {
      "midi": 57,
      "hit": false,
      "t": 126871.3016999999,
      "d": 299.9997000000003,
      "v": 79
    },
    {
      "midi": 50,
      "hit": false,
      "t": 127292.72984999989,
      "d": 85.71420000000217,
      "v": 65
    },
    {
      "midi": 62,
      "hit": false,
      "t": 127292.72984999989,
      "d": 92.85705000000598,
      "v": 87
    },
    {
      "midi": 67,
      "hit": false,
      "t": 127292.72984999989,
      "d": 107.14274999999907,
      "v": 93
    },
    {
      "midi": 59,
      "hit": false,
      "t": 127292.72984999989,
      "d": 121.42844999999215,
      "v": 78
    },
    {
      "midi": 60,
      "hit": false,
      "t": 127728.44369999987,
      "d": 364.28535000000556,
      "v": 70
    },
    {
      "midi": 50,
      "hit": false,
      "t": 127728.44369999987,
      "d": 442.8567000000039,
      "v": 74
    },
    {
      "midi": 62,
      "hit": false,
      "t": 127728.44369999987,
      "d": 471.42810000000463,
      "v": 101
    },
    {
      "midi": 69,
      "hit": false,
      "t": 127728.44369999987,
      "d": 478.57095000000845,
      "v": 99
    },
    {
      "midi": 62,
      "hit": false,
      "t": 128578.44284999988,
      "d": 957.1419000000024,
      "v": 82
    },
    {
      "midi": 67,
      "hit": false,
      "t": 128578.44284999988,
      "d": 992.8561500000069,
      "v": 79
    },
    {
      "midi": 59,
      "hit": false,
      "t": 128578.44284999988,
      "d": 1007.14185,
      "v": 73
    },
    {
      "midi": 55,
      "hit": false,
      "t": 128578.44284999988,
      "d": 1014.2847000000038,
      "v": 70
    },
    {
      "midi": 65,
      "hit": false,
      "t": 129435.58484999988,
      "d": 185.71409999999742,
      "v": 83
    },
    {
      "midi": 69,
      "hit": false,
      "t": 130292.72684999989,
      "d": 1164.2845500000112,
      "v": 78
    },
    {
      "midi": 48,
      "hit": false,
      "t": 130299.8696999999,
      "d": 1135.713149999996,
      "v": 47
    },
    {
      "midi": 60,
      "hit": false,
      "t": 130299.8696999999,
      "d": 1157.1417000000074,
      "v": 39
    },
    {
      "midi": 64,
      "hit": false,
      "t": 130299.8696999999,
      "d": 1221.4273500000127,
      "v": 71
    },
    {
      "midi": 50,
      "hit": false,
      "t": 131992.7251499999,
      "d": 1021.4275499999931,
      "v": 66
    },
    {
      "midi": 62,
      "hit": false,
      "t": 131992.7251499999,
      "d": 1049.9989499999792,
      "v": 80
    },
    {
      "midi": 67,
      "hit": false,
      "t": 131992.7251499999,
      "d": 1057.141799999983,
      "v": 82
    },
    {
      "midi": 59,
      "hit": false,
      "t": 131992.7251499999,
      "d": 1071.4274999999907,
      "v": 53
    },
    {
      "midi": 50,
      "hit": false,
      "t": 133699.86629999988,
      "d": 214.28549999999814,
      "v": 69
    },
    {
      "midi": 57,
      "hit": false,
      "t": 133699.86629999988,
      "d": 264.28544999999576,
      "v": 73
    },
    {
      "midi": 62,
      "hit": false,
      "t": 133699.86629999988,
      "d": 285.7140000000072,
      "v": 94
    },
    {
      "midi": 66,
      "hit": false,
      "t": 133699.86629999988,
      "d": 399.9996000000101,
      "v": 82
    },
    {
      "midi": 62,
      "hit": false,
      "t": 134128.43729999987,
      "d": 78.5713500000129,
      "v": 96
    },
    {
      "midi": 50,
      "hit": false,
      "t": 134128.43729999987,
      "d": 99.99990000002435,
      "v": 76
    },
    {
      "midi": 67,
      "hit": false,
      "t": 134128.43729999987,
      "d": 107.14275000002817,
      "v": 88
    },
    {
      "midi": 59,
      "hit": false,
      "t": 134128.43729999987,
      "d": 135.71415000001434,
      "v": 82
    },
    {
      "midi": 60,
      "hit": false,
      "t": 134557.0082999999,
      "d": 364.285349999991,
      "v": 76
    },
    {
      "midi": 50,
      "hit": false,
      "t": 134564.1511499999,
      "d": 442.8566999999748,
      "v": 84
    },
    {
      "midi": 62,
      "hit": false,
      "t": 134564.1511499999,
      "d": 442.8566999999748,
      "v": 98
    },
    {
      "midi": 69,
      "hit": false,
      "t": 134564.1511499999,
      "d": 635.7136499999615,
      "v": 100
    },
    {
      "midi": 62,
      "hit": false,
      "t": 135421.29314999987,
      "d": 985.713299999974,
      "v": 87
    },
    {
      "midi": 67,
      "hit": false,
      "t": 135421.29314999987,
      "d": 1007.1418499999854,
      "v": 88
    },
    {
      "midi": 59,
      "hit": false,
      "t": 135421.29314999987,
      "d": 1014.2846999999892,
      "v": 71
    },
    {
      "midi": 55,
      "hit": false,
      "t": 135421.29314999987,
      "d": 1057.141799999983,
      "v": 73
    },
    {
      "midi": 65,
      "hit": false,
      "t": 136292.72084999987,
      "d": 178.57124999997905,
      "v": 85
    },
    {
      "midi": 69,
      "hit": false,
      "t": 137149.86284999986,
      "d": 1071.4275000000198,
      "v": 62
    },
    {
      "midi": 60,
      "hit": false,
      "t": 137149.86284999986,
      "d": 1107.1417500000098,
      "v": 29
    },
    {
      "midi": 48,
      "hit": false,
      "t": 137157.00569999986,
      "d": 1057.1418000000122,
      "v": 42
    },
    {
      "midi": 64,
      "hit": false,
      "t": 137157.00569999986,
      "d": 1114.2846000000136,
      "v": 57
    },
    {
      "midi": 50,
      "hit": false,
      "t": 138849.86114999987,
      "d": 992.8561500000069,
      "v": 50
    },
    {
      "midi": 67,
      "hit": false,
      "t": 138849.86114999987,
      "d": 999.9990000000107,
      "v": 45
    },
    {
      "midi": 62,
      "hit": false,
      "t": 138849.86114999987,
      "d": 1021.4275500000222,
      "v": 49
    },
    {
      "midi": 59,
      "hit": false,
      "t": 138849.86114999987,
      "d": 1028.570400000026,
      "v": 29
    },
    {
      "midi": 50,
      "hit": false,
      "t": 140564.14514999988,
      "d": 249.99975000001723,
      "v": 52
    },
    {
      "midi": 57,
      "hit": false,
      "t": 140564.14514999988,
      "d": 271.4283000000287,
      "v": 52
    },
    {
      "midi": 62,
      "hit": false,
      "t": 140564.14514999988,
      "d": 292.85685000004014,
      "v": 73
    },
    {
      "midi": 66,
      "hit": false,
      "t": 140564.14514999988,
      "d": 392.8567500000354,
      "v": 64
    },
    {
      "midi": 59,
      "hit": false,
      "t": 140999.8589999999,
      "d": 99.99990000002435,
      "v": 62
    },
    {
      "midi": 67,
      "hit": false,
      "t": 140999.8589999999,
      "d": 114.28560000003199,
      "v": 77
    },
    {
      "midi": 62,
      "hit": false,
      "t": 141007.0018499999,
      "d": 64.28565000000526,
      "v": 77
    },
    {
      "midi": 50,
      "hit": false,
      "t": 141007.0018499999,
      "d": 78.5713500000129,
      "v": 60
    },
    {
      "midi": 60,
      "hit": false,
      "t": 141442.71569999994,
      "d": 364.285349999991,
      "v": 49
    },
    {
      "midi": 50,
      "hit": false,
      "t": 141442.71569999994,
      "d": 428.5709999999963,
      "v": 61
    },
    {
      "midi": 62,
      "hit": false,
      "t": 141442.71569999994,
      "d": 428.5709999999963,
      "v": 82
    },
    {
      "midi": 69,
      "hit": false,
      "t": 141442.71569999994,
      "d": 428.5709999999963,
      "v": 79
    },
    {
      "midi": 67,
      "hit": false,
      "t": 142292.71484999993,
      "d": 2435.7118500000215,
      "v": 57
    },
    {
      "midi": 59,
      "hit": false,
      "t": 142299.85769999993,
      "d": 2407.1404500000062,
      "v": 33
    },
    {
      "midi": 55,
      "hit": false,
      "t": 142299.85769999993,
      "d": 2414.28330000001,
      "v": 46
    },
    {
      "midi": 62,
      "hit": false,
      "t": 142299.85769999993,
      "d": 2414.28330000001,
      "v": 55
    }
  ]
}