{
  "jsonPath": "Soundtracks/Video Game Music/Last Battle/last-battle-end-of-level-boss-by-shazomei.json",
  "path": "Soundtracks\\Video Game Music\\Last Battle\\Last_Battle_-_End_of_Level_Boss_by_Shazomei.mid",
  "name": "Last_Battle_-_End_of_Level_Boss_by_Shazomei",
  "difficulty": "Advanced",
  "bpm": 100,
  "notes": [
    {
      "midi": 77,
      "hit": false,
      "t": 0,
      "d": 300,
      "v": 91
    },
    {
      "midi": 41,
      "hit": false,
      "t": 0,
      "d": 297.65625,
      "v": 68
    },
    {
      "midi": 29,
      "hit": false,
      "t": 0,
      "d": 297.65625,
      "v": 68
    },
    {
      "midi": 65,
      "hit": false,
      "t": 0,
      "d": 300,
      "v": 71
    },
    {
      "midi": 72,
      "hit": false,
      "t": 300,
      "d": 1200,
      "v": 94
    },
    {
      "midi": 68,
      "hit": false,
      "t": 300,
      "d": 300,
      "v": 83
    },
    {
      "midi": 41,
      "hit": false,
      "t": 600,
      "d": 297.65625,
      "v": 78
    },
    {
      "midi": 29,
      "hit": false,
      "t": 600,
      "d": 297.65625,
      "v": 78
    },
    {
      "midi": 72,
      "hit": false,
      "t": 600,
      "d": 300,
      "v": 89
    },
    {
      "midi": 68,
      "hit": false,
      "t": 900,
      "d": 300,
      "v": 69
    },
    {
      "midi": 41,
      "hit": false,
      "t": 1200,
      "d": 297.65625,
      "v": 76
    },
    {
      "midi": 29,
      "hit": false,
      "t": 1200,
      "d": 297.65625,
      "v": 76
    },
    {
      "midi": 65,
      "hit": false,
      "t": 1200,
      "d": 300,
      "v": 70
    },
    {
      "midi": 64,
      "hit": false,
      "t": 1500,
      "d": 300,
      "v": 79
    },
    {
      "midi": 68,
      "hit": false,
      "t": 1500,
      "d": 300,
      "v": 81
    },
    {
      "midi": 65,
      "hit": false,
      "t": 1800,
      "d": 300,
      "v": 99
    },
    {
      "midi": 41,
      "hit": false,
      "t": 1800,
      "d": 297.65625,
      "v": 76
    },
    {
      "midi": 29,
      "hit": false,
      "t": 1800,
      "d": 297.65625,
      "v": 76
    },
    {
      "midi": 72,
      "hit": false,
      "t": 1800,
      "d": 300,
      "v": 84
    },
    {
      "midi": 68,
      "hit": false,
      "t": 2100,
      "d": 1800,
      "v": 109
    },
    {
      "midi": 68,
      "hit": false,
      "t": 2100,
      "d": 300,
      "v": 68
    },
    {
      "midi": 41,
      "hit": false,
      "t": 2400,
      "d": 297.65625,
      "v": 75
    },
    {
      "midi": 29,
      "hit": false,
      "t": 2400,
      "d": 297.65625,
      "v": 75
    },
    {
      "midi": 65,
      "hit": false,
      "t": 2400,
      "d": 300,
      "v": 67
    },
    {
      "midi": 68,
      "hit": false,
      "t": 2700,
      "d": 300,
      "v": 82
    },
    {
      "midi": 41,
      "hit": false,
      "t": 3000,
      "d": 297.65625,
      "v": 78
    },
    {
      "midi": 29,
      "hit": false,
      "t": 3000,
      "d": 297.65625,
      "v": 78
    },
    {
      "midi": 72,
      "hit": false,
      "t": 3000,
      "d": 300,
      "v": 87
    },
    {
      "midi": 68,
      "hit": false,
      "t": 3300,
      "d": 300,
      "v": 65
    },
    {
      "midi": 41,
      "hit": false,
      "t": 3600,
      "d": 297.65625,
      "v": 75
    },
    {
      "midi": 29,
      "hit": false,
      "t": 3600,
      "d": 297.65625,
      "v": 75
    },
    {
      "midi": 65,
      "hit": false,
      "t": 3600,
      "d": 300,
      "v": 68
    },
    {
      "midi": 67,
      "hit": false,
      "t": 3900,
      "d": 300,
      "v": 96
    },
    {
      "midi": 68,
      "hit": false,
      "t": 3900,
      "d": 300,
      "v": 81
    },
    {
      "midi": 65,
      "hit": false,
      "t": 4200,
      "d": 300,
      "v": 92
    },
    {
      "midi": 41,
      "hit": false,
      "t": 4200,
      "d": 297.65625,
      "v": 78
    },
    {
      "midi": 29,
      "hit": false,
      "t": 4200,
      "d": 297.65625,
      "v": 78
    },
    {
      "midi": 72,
      "hit": false,
      "t": 4200,
      "d": 300,
      "v": 89
    },
    {
      "midi": 64,
      "hit": false,
      "t": 4500,
      "d": 300,
      "v": 97
    },
    {
      "midi": 68,
      "hit": false,
      "t": 4500,
      "d": 300,
      "v": 69
    },
    {
      "midi": 67,
      "hit": false,
      "t": 4800,
      "d": 4800,
      "v": 105
    },
    {
      "midi": 43,
      "hit": false,
      "t": 4800,
      "d": 297.65625,
      "v": 76
    },
    {
      "midi": 31,
      "hit": false,
      "t": 4800,
      "d": 297.65625,
      "v": 76
    },
    {
      "midi": 67,
      "hit": false,
      "t": 4800,
      "d": 300,
      "v": 69
    },
    {
      "midi": 71,
      "hit": false,
      "t": 5100,
      "d": 300,
      "v": 78
    },
    {
      "midi": 43,
      "hit": false,
      "t": 5400,
      "d": 297.65625,
      "v": 74
    },
    {
      "midi": 31,
      "hit": false,
      "t": 5400,
      "d": 297.65625,
      "v": 74
    },
    {
      "midi": 74,
      "hit": false,
      "t": 5400,
      "d": 300,
      "v": 85
    },
    {
      "midi": 71,
      "hit": false,
      "t": 5700,
      "d": 300,
      "v": 68
    },
    {
      "midi": 43,
      "hit": false,
      "t": 6000,
      "d": 297.65625,
      "v": 69
    },
    {
      "midi": 31,
      "hit": false,
      "t": 6000,
      "d": 297.65625,
      "v": 69
    },
    {
      "midi": 67,
      "hit": false,
      "t": 6000,
      "d": 300,
      "v": 67
    },
    {
      "midi": 71,
      "hit": false,
      "t": 6300,
      "d": 300,
      "v": 85
    },
    {
      "midi": 43,
      "hit": false,
      "t": 6600,
      "d": 297.65625,
      "v": 74
    },
    {
      "midi": 31,
      "hit": false,
      "t": 6600,
      "d": 297.65625,
      "v": 74
    },
    {
      "midi": 74,
      "hit": false,
      "t": 6600,
      "d": 300,
      "v": 86
    },
    {
      "midi": 71,
      "hit": false,
      "t": 6900,
      "d": 300,
      "v": 70
    },
    {
      "midi": 43,
      "hit": false,
      "t": 7200,
      "d": 297.65625,
      "v": 68
    },
    {
      "midi": 31,
      "hit": false,
      "t": 7200,
      "d": 297.65625,
      "v": 68
    },
    {
      "midi": 67,
      "hit": false,
      "t": 7200,
      "d": 300,
      "v": 67
    },
    {
      "midi": 71,
      "hit": false,
      "t": 7500,
      "d": 300,
      "v": 88
    },
    {
      "midi": 43,
      "hit": false,
      "t": 7800,
      "d": 297.65625,
      "v": 76
    },
    {
      "midi": 31,
      "hit": false,
      "t": 7800,
      "d": 297.65625,
      "v": 76
    },
    {
      "midi": 74,
      "hit": false,
      "t": 7800,
      "d": 300,
      "v": 80
    },
    {
      "midi": 71,
      "hit": false,
      "t": 8100,
      "d": 300,
      "v": 72
    },
    {
      "midi": 64,
      "hit": false,
      "t": 8400,
      "d": 150,
      "v": 64
    },
    {
      "midi": 43,
      "hit": false,
      "t": 8400,
      "d": 297.65625,
      "v": 79
    },
    {
      "midi": 31,
      "hit": false,
      "t": 8400,
      "d": 297.65625,
      "v": 79
    },
    {
      "midi": 65,
      "hit": false,
      "t": 8550,
      "d": 300,
      "v": 79
    },
    {
      "midi": 67,
      "hit": false,
      "t": 8850,
      "d": 150,
      "v": 78
    },
    {
      "midi": 65,
      "hit": false,
      "t": 9000,
      "d": 150,
      "v": 74
    },
    {
      "midi": 43,
      "hit": false,
      "t": 9000,
      "d": 297.65625,
      "v": 72
    },
    {
      "midi": 31,
      "hit": false,
      "t": 9000,
      "d": 297.65625,
      "v": 72
    },
    {
      "midi": 67,
      "hit": false,
      "t": 9150,
      "d": 300,
      "v": 81
    },
    {
      "midi": 68,
      "hit": false,
      "t": 9450,
      "d": 150,
      "v": 80
    },
    {
      "midi": 77,
      "hit": false,
      "t": 9600,
      "d": 300,
      "v": 118
    },
    {
      "midi": 41,
      "hit": false,
      "t": 9600,
      "d": 297.65625,
      "v": 75
    },
    {
      "midi": 29,
      "hit": false,
      "t": 9600,
      "d": 297.65625,
      "v": 75
    },
    {
      "midi": 65,
      "hit": false,
      "t": 9600,
      "d": 300,
      "v": 70
    },
    {
      "midi": 72,
      "hit": false,
      "t": 9900,
      "d": 1200,
      "v": 89
    },
    {
      "midi": 68,
      "hit": false,
      "t": 9900,
      "d": 300,
      "v": 84
    },
    {
      "midi": 41,
      "hit": false,
      "t": 10200,
      "d": 297.65625,
      "v": 75
    },
    {
      "midi": 29,
      "hit": false,
      "t": 10200,
      "d": 297.65625,
      "v": 75
    },
    {
      "midi": 72,
      "hit": false,
      "t": 10200,
      "d": 300,
      "v": 85
    },
    {
      "midi": 68,
      "hit": false,
      "t": 10500,
      "d": 300,
      "v": 71
    },
    {
      "midi": 41,
      "hit": false,
      "t": 10800,
      "d": 297.65625,
      "v": 74
    },
    {
      "midi": 29,
      "hit": false,
      "t": 10800,
      "d": 297.65625,
      "v": 74
    },
    {
      "midi": 65,
      "hit": false,
      "t": 10800,
      "d": 300,
      "v": 68
    },
    {
      "midi": 64,
      "hit": false,
      "t": 11100,
      "d": 300,
      "v": 83
    },
    {
      "midi": 68,
      "hit": false,
      "t": 11100,
      "d": 300,
      "v": 81
    },
    {
      "midi": 65,
      "hit": false,
      "t": 11400,
      "d": 300,
      "v": 102
    },
    {
      "midi": 41,
      "hit": false,
      "t": 11400,
      "d": 297.65625,
      "v": 77
    },
    {
      "midi": 29,
      "hit": false,
      "t": 11400,
      "d": 297.65625,
      "v": 77
    },
    {
      "midi": 72,
      "hit": false,
      "t": 11400,
      "d": 300,
      "v": 88
    },
    {
      "midi": 68,
      "hit": false,
      "t": 11700,
      "d": 1800,
      "v": 108
    },
    {
      "midi": 68,
      "hit": false,
      "t": 11700,
      "d": 300,
      "v": 69
    },
    {
      "midi": 41,
      "hit": false,
      "t": 12000,
      "d": 297.65625,
      "v": 75
    },
    {
      "midi": 29,
      "hit": false,
      "t": 12000,
      "d": 297.65625,
      "v": 75
    },
    {
      "midi": 65,
      "hit": false,
      "t": 12000,
      "d": 300,
      "v": 68
    },
    {
      "midi": 68,
      "hit": false,
      "t": 12300,
      "d": 300,
      "v": 82
    },
    {
      "midi": 41,
      "hit": false,
      "t": 12600,
      "d": 297.65625,
      "v": 80
    },
    {
      "midi": 29,
      "hit": false,
      "t": 12600,
      "d": 297.65625,
      "v": 80
    },
    {
      "midi": 72,
      "hit": false,
      "t": 12600,
      "d": 300,
      "v": 85
    },
    {
      "midi": 68,
      "hit": false,
      "t": 12900,
      "d": 300,
      "v": 68
    },
    {
      "midi": 41,
      "hit": false,
      "t": 13200,
      "d": 297.65625,
      "v": 77
    },
    {
      "midi": 29,
      "hit": false,
      "t": 13200,
      "d": 297.65625,
      "v": 77
    },
    {
      "midi": 65,
      "hit": false,
      "t": 13200,
      "d": 300,
      "v": 66
    },
    {
      "midi": 67,
      "hit": false,
      "t": 13500,
      "d": 300,
      "v": 98
    },
    {
      "midi": 68,
      "hit": false,
      "t": 13500,
      "d": 300,
      "v": 79
    },
    {
      "midi": 65,
      "hit": false,
      "t": 13800,
      "d": 300,
      "v": 99
    },
    {
      "midi": 41,
      "hit": false,
      "t": 13800,
      "d": 297.65625,
      "v": 75
    },
    {
      "midi": 29,
      "hit": false,
      "t": 13800,
      "d": 297.65625,
      "v": 75
    },
    {
      "midi": 72,
      "hit": false,
      "t": 13800,
      "d": 300,
      "v": 88
    },
    {
      "midi": 64,
      "hit": false,
      "t": 14100,
      "d": 300,
      "v": 97
    },
    {
      "midi": 68,
      "hit": false,
      "t": 14100,
      "d": 300,
      "v": 68
    },
    {
      "midi": 67,
      "hit": false,
      "t": 14400,
      "d": 4800,
      "v": 109
    },
    {
      "midi": 43,
      "hit": false,
      "t": 14400,
      "d": 297.65625,
      "v": 78
    },
    {
      "midi": 31,
      "hit": false,
      "t": 14400,
      "d": 297.65625,
      "v": 78
    },
    {
      "midi": 67,
      "hit": false,
      "t": 14400,
      "d": 300,
      "v": 68
    },
    {
      "midi": 71,
      "hit": false,
      "t": 14700,
      "d": 300,
      "v": 84
    },
    {
      "midi": 43,
      "hit": false,
      "t": 15000,
      "d": 297.65625,
      "v": 76
    },
    {
      "midi": 31,
      "hit": false,
      "t": 15000,
      "d": 297.65625,
      "v": 76
    },
    {
      "midi": 74,
      "hit": false,
      "t": 15000,
      "d": 300,
      "v": 86
    },
    {
      "midi": 71,
      "hit": false,
      "t": 15300,
      "d": 300,
      "v": 74
    },
    {
      "midi": 43,
      "hit": false,
      "t": 15600,
      "d": 297.65625,
      "v": 77
    },
    {
      "midi": 31,
      "hit": false,
      "t": 15600,
      "d": 297.65625,
      "v": 77
    },
    {
      "midi": 67,
      "hit": false,
      "t": 15600,
      "d": 300,
      "v": 67
    },
    {
      "midi": 71,
      "hit": false,
      "t": 15900,
      "d": 300,
      "v": 83
    },
    {
      "midi": 43,
      "hit": false,
      "t": 16200,
      "d": 297.65625,
      "v": 75
    },
    {
      "midi": 31,
      "hit": false,
      "t": 16200,
      "d": 297.65625,
      "v": 75
    },
    {
      "midi": 74,
      "hit": false,
      "t": 16200,
      "d": 300,
      "v": 87
    },
    {
      "midi": 71,
      "hit": false,
      "t": 16500,
      "d": 300,
      "v": 67
    },
    {
      "midi": 43,
      "hit": false,
      "t": 16800,
      "d": 297.65625,
      "v": 77
    },
    {
      "midi": 31,
      "hit": false,
      "t": 16800,
      "d": 297.65625,
      "v": 77
    },
    {
      "midi": 67,
      "hit": false,
      "t": 16800,
      "d": 300,
      "v": 66
    },
    {
      "midi": 71,
      "hit": false,
      "t": 17100,
      "d": 300,
      "v": 81
    },
    {
      "midi": 43,
      "hit": false,
      "t": 17400,
      "d": 297.65625,
      "v": 75
    },
    {
      "midi": 31,
      "hit": false,
      "t": 17400,
      "d": 297.65625,
      "v": 75
    },
    {
      "midi": 74,
      "hit": false,
      "t": 17400,
      "d": 300,
      "v": 85
    },
    {
      "midi": 71,
      "hit": false,
      "t": 17700,
      "d": 300,
      "v": 69
    },
    {
      "midi": 64,
      "hit": false,
      "t": 18000,
      "d": 150,
      "v": 61
    },
    {
      "midi": 43,
      "hit": false,
      "t": 18000,
      "d": 297.65625,
      "v": 75
    },
    {
      "midi": 31,
      "hit": false,
      "t": 18000,
      "d": 297.65625,
      "v": 75
    },
    {
      "midi": 65,
      "hit": false,
      "t": 18150,
      "d": 300,
      "v": 77
    },
    {
      "midi": 67,
      "hit": false,
      "t": 18450,
      "d": 150,
      "v": 79
    },
    {
      "midi": 65,
      "hit": false,
      "t": 18600,
      "d": 150,
      "v": 75
    },
    {
      "midi": 43,
      "hit": false,
      "t": 18600,
      "d": 297.65625,
      "v": 75
    },
    {
      "midi": 31,
      "hit": false,
      "t": 18600,
      "d": 297.65625,
      "v": 75
    },
    {
      "midi": 67,
      "hit": false,
      "t": 18750,
      "d": 300,
      "v": 82
    },
    {
      "midi": 68,
      "hit": false,
      "t": 19050,
      "d": 150,
      "v": 75
    },
    {
      "midi": 65,
      "hit": false,
      "t": 19200,
      "d": 300,
      "v": 69
    },
    {
      "midi": 48,
      "hit": false,
      "t": 19200,
      "d": 297.65625,
      "v": 79
    },
    {
      "midi": 36,
      "hit": false,
      "t": 19200,
      "d": 297.65625,
      "v": 79
    },
    {
      "midi": 65,
      "hit": false,
      "t": 19200,
      "d": 300,
      "v": 70
    },
    {
      "midi": 68,
      "hit": false,
      "t": 19500,
      "d": 150,
      "v": 86
    },
    {
      "midi": 68,
      "hit": false,
      "t": 19500,
      "d": 300,
      "v": 87
    },
    {
      "midi": 48,
      "hit": false,
      "t": 19800,
      "d": 297.65625,
      "v": 75
    },
    {
      "midi": 36,
      "hit": false,
      "t": 19800,
      "d": 297.65625,
      "v": 75
    },
    {
      "midi": 72,
      "hit": false,
      "t": 19800,
      "d": 300,
      "v": 85
    },
    {
      "midi": 68,
      "hit": false,
      "t": 20100,
      "d": 300,
      "v": 69
    },
    {
      "midi": 65,
      "hit": false,
      "t": 20400,
      "d": 150,
      "v": 64
    },
    {
      "midi": 48,
      "hit": false,
      "t": 20400,
      "d": 297.65625,
      "v": 76
    },
    {
      "midi": 36,
      "hit": false,
      "t": 20400,
      "d": 297.65625,
      "v": 76
    },
    {
      "midi": 65,
      "hit": false,
      "t": 20400,
      "d": 300,
      "v": 64
    },
    {
      "midi": 68,
      "hit": false,
      "t": 20550,
      "d": 150,
      "v": 78
    },
    {
      "midi": 65,
      "hit": false,
      "t": 20700,
      "d": 150,
      "v": 67
    },
    {
      "midi": 68,
      "hit": false,
      "t": 20700,
      "d": 300,
      "v": 83
    },
    {
      "midi": 72,
      "hit": false,
      "t": 20850,
      "d": 300,
      "v": 89
    },
    {
      "midi": 48,
      "hit": false,
      "t": 21000,
      "d": 297.65625,
      "v": 76
    },
    {
      "midi": 36,
      "hit": false,
      "t": 21000,
      "d": 297.65625,
      "v": 76
    },
    {
      "midi": 72,
      "hit": false,
      "t": 21000,
      "d": 300,
      "v": 87
    },
    {
      "midi": 68,
      "hit": false,
      "t": 21150,
      "d": 150,
      "v": 67
    },
    {
      "midi": 72,
      "hit": false,
      "t": 21300,
      "d": 300,
      "v": 85
    },
    {
      "midi": 68,
      "hit": false,
      "t": 21300,
      "d": 300,
      "v": 69
    },
    {
      "midi": 67,
      "hit": false,
      "t": 21600,
      "d": 300,
      "v": 64
    },
    {
      "midi": 43,
      "hit": false,
      "t": 21600,
      "d": 297.65625,
      "v": 71
    },
    {
      "midi": 31,
      "hit": false,
      "t": 21600,
      "d": 297.65625,
      "v": 71
    },
    {
      "midi": 67,
      "hit": false,
      "t": 21600,
      "d": 300,
      "v": 72
    },
    {
      "midi": 70,
      "hit": false,
      "t": 21900,
      "d": 150,
      "v": 78
    },
    {
      "midi": 70,
      "hit": false,
      "t": 21900,
      "d": 300,
      "v": 83
    },
    {
      "midi": 43,
      "hit": false,
      "t": 22200,
      "d": 297.65625,
      "v": 72
    },
    {
      "midi": 31,
      "hit": false,
      "t": 22200,
      "d": 297.65625,
      "v": 72
    },
    {
      "midi": 73,
      "hit": false,
      "t": 22200,
      "d": 300,
      "v": 84
    },
    {
      "midi": 70,
      "hit": false,
      "t": 22500,
      "d": 300,
      "v": 69
    },
    {
      "midi": 67,
      "hit": false,
      "t": 22800,
      "d": 150,
      "v": 66
    },
    {
      "midi": 43,
      "hit": false,
      "t": 22800,
      "d": 297.65625,
      "v": 77
    },
    {
      "midi": 31,
      "hit": false,
      "t": 22800,
      "d": 297.65625,
      "v": 77
    },
    {
      "midi": 67,
      "hit": false,
      "t": 22800,
      "d": 300,
      "v": 73
    },
    {
      "midi": 70,
      "hit": false,
      "t": 22950,
      "d": 150,
      "v": 80
    },
    {
      "midi": 67,
      "hit": false,
      "t": 23100,
      "d": 150,
      "v": 70
    },
    {
      "midi": 70,
      "hit": false,
      "t": 23100,
      "d": 300,
      "v": 78
    },
    {
      "midi": 73,
      "hit": false,
      "t": 23250,
      "d": 300,
      "v": 82
    },
    {
      "midi": 43,
      "hit": false,
      "t": 23400,
      "d": 297.65625,
      "v": 73
    },
    {
      "midi": 31,
      "hit": false,
      "t": 23400,
      "d": 297.65625,
      "v": 73
    },
    {
      "midi": 73,
      "hit": false,
      "t": 23400,
      "d": 300,
      "v": 79
    },
    {
      "midi": 70,
      "hit": false,
      "t": 23550,
      "d": 150,
      "v": 68
    },
    {
      "midi": 73,
      "hit": false,
      "t": 23700,
      "d": 300,
      "v": 84
    },
    {
      "midi": 70,
      "hit": false,
      "t": 23700,
      "d": 300,
      "v": 72
    },
    {
      "midi": 66,
      "hit": false,
      "t": 24000,
      "d": 300,
      "v": 58
    },
    {
      "midi": 51,
      "hit": false,
      "t": 24000,
      "d": 297.65625,
      "v": 83
    },
    {
      "midi": 39,
      "hit": false,
      "t": 24000,
      "d": 297.65625,
      "v": 83
    },
    {
      "midi": 69,
      "hit": false,
      "t": 24000,
      "d": 300,
      "v": 70
    },
    {
      "midi": 69,
      "hit": false,
      "t": 24300,
      "d": 150,
      "v": 84
    },
    {
      "midi": 72,
      "hit": false,
      "t": 24300,
      "d": 300,
      "v": 83
    },
    {
      "midi": 51,
      "hit": false,
      "t": 24600,
      "d": 297.65625,
      "v": 83
    },
    {
      "midi": 39,
      "hit": false,
      "t": 24600,
      "d": 297.65625,
      "v": 83
    },
    {
      "midi": 75,
      "hit": false,
      "t": 24600,
      "d": 300,
      "v": 81
    },
    {
      "midi": 72,
      "hit": false,
      "t": 24900,
      "d": 300,
      "v": 72
    },
    {
      "midi": 66,
      "hit": false,
      "t": 25200,
      "d": 150,
      "v": 63
    },
    {
      "midi": 51,
      "hit": false,
      "t": 25200,
      "d": 297.65625,
      "v": 74
    },
    {
      "midi": 39,
      "hit": false,
      "t": 25200,
      "d": 297.65625,
      "v": 74
    },
    {
      "midi": 69,
      "hit": false,
      "t": 25200,
      "d": 300,
      "v": 68
    },
    {
      "midi": 69,
      "hit": false,
      "t": 25350,
      "d": 150,
      "v": 79
    },
    {
      "midi": 66,
      "hit": false,
      "t": 25500,
      "d": 150,
      "v": 71
    },
    {
      "midi": 72,
      "hit": false,
      "t": 25500,
      "d": 300,
      "v": 81
    },
    {
      "midi": 75,
      "hit": false,
      "t": 25650,
      "d": 300,
      "v": 94
    },
    {
      "midi": 51,
      "hit": false,
      "t": 25800,
      "d": 297.65625,
      "v": 76
    },
    {
      "midi": 39,
      "hit": false,
      "t": 25800,
      "d": 297.65625,
      "v": 76
    },
    {
      "midi": 75,
      "hit": false,
      "t": 25800,
      "d": 300,
      "v": 79
    },
    {
      "midi": 69,
      "hit": false,
      "t": 25950,
      "d": 150,
      "v": 65
    },
    {
      "midi": 75,
      "hit": false,
      "t": 26100,
      "d": 300,
      "v": 83
    },
    {
      "midi": 72,
      "hit": false,
      "t": 26100,
      "d": 300,
      "v": 75
    },
    {
      "midi": 62,
      "hit": false,
      "t": 26400,
      "d": 2400,
      "v": 75
    },
    {
      "midi": 50,
      "hit": false,
      "t": 26400,
      "d": 297.65625,
      "v": 72
    },
    {
      "midi": 38,
      "hit": false,
      "t": 26400,
      "d": 297.65625,
      "v": 72
    },
    {
      "midi": 66,
      "hit": false,
      "t": 26400,
      "d": 300,
      "v": 63
    },
    {
      "midi": 69,
      "hit": false,
      "t": 26700,
      "d": 300,
      "v": 78
    },
    {
      "midi": 50,
      "hit": false,
      "t": 27000,
      "d": 297.65625,
      "v": 73
    },
    {
      "midi": 38,
      "hit": false,
      "t": 27000,
      "d": 297.65625,
      "v": 73
    },
    {
      "midi": 74,
      "hit": false,
      "t": 27000,
      "d": 300,
      "v": 89
    },
    {
      "midi": 77,
      "hit": false,
      "t": 27300,
      "d": 300,
      "v": 65
    },
    {
      "midi": 69,
      "hit": false,
      "t": 27300,
      "d": 300,
      "v": 69
    },
    {
      "midi": 75,
      "hit": false,
      "t": 27600,
      "d": 300,
      "v": 72
    },
    {
      "midi": 50,
      "hit": false,
      "t": 27600,
      "d": 297.65625,
      "v": 77
    },
    {
      "midi": 38,
      "hit": false,
      "t": 27600,
      "d": 297.65625,
      "v": 77
    },
    {
      "midi": 66,
      "hit": false,
      "t": 27600,
      "d": 300,
      "v": 71
    },
    {
      "midi": 74,
      "hit": false,
      "t": 27900,
      "d": 900,
      "v": 72
    },
    {
      "midi": 69,
      "hit": false,
      "t": 27900,
      "d": 300,
      "v": 85
    },
    {
      "midi": 50,
      "hit": false,
      "t": 28200,
      "d": 297.65625,
      "v": 74
    },
    {
      "midi": 38,
      "hit": false,
      "t": 28200,
      "d": 297.65625,
      "v": 74
    },
    {
      "midi": 74,
      "hit": false,
      "t": 28200,
      "d": 300,
      "v": 81
    },
    {
      "midi": 69,
      "hit": false,
      "t": 28500,
      "d": 300,
      "v": 69
    },
    {
      "midi": 65,
      "hit": false,
      "t": 28800,
      "d": 300,
      "v": 60
    },
    {
      "midi": 48,
      "hit": false,
      "t": 28800,
      "d": 297.65625,
      "v": 76
    },
    {
      "midi": 36,
      "hit": false,
      "t": 28800,
      "d": 297.65625,
      "v": 76
    },
    {
      "midi": 65,
      "hit": false,
      "t": 28800,
      "d": 300,
      "v": 66
    },
    {
      "midi": 68,
      "hit": false,
      "t": 29100,
      "d": 150,
      "v": 75
    },
    {
      "midi": 68,
      "hit": false,
      "t": 29100,
      "d": 300,
      "v": 77
    },
    {
      "midi": 48,
      "hit": false,
      "t": 29400,
      "d": 297.65625,
      "v": 73
    },
    {
      "midi": 36,
      "hit": false,
      "t": 29400,
      "d": 297.65625,
      "v": 73
    },
    {
      "midi": 72,
      "hit": false,
      "t": 29400,
      "d": 300,
      "v": 89
    },
    {
      "midi": 68,
      "hit": false,
      "t": 29700,
      "d": 300,
      "v": 73
    },
    {
      "midi": 65,
      "hit": false,
      "t": 30000,
      "d": 150,
      "v": 70
    },
    {
      "midi": 48,
      "hit": false,
      "t": 30000,
      "d": 297.65625,
      "v": 75
    },
    {
      "midi": 36,
      "hit": false,
      "t": 30000,
      "d": 297.65625,
      "v": 75
    },
    {
      "midi": 65,
      "hit": false,
      "t": 30000,
      "d": 300,
      "v": 71
    },
    {
      "midi": 68,
      "hit": false,
      "t": 30150,
      "d": 150,
      "v": 85
    },
    {
      "midi": 65,
      "hit": false,
      "t": 30300,
      "d": 150,
      "v": 68
    },
    {
      "midi": 68,
      "hit": false,
      "t": 30300,
      "d": 300,
      "v": 80
    },
    {
      "midi": 72,
      "hit": false,
      "t": 30450,
      "d": 300,
      "v": 89
    },
    {
      "midi": 48,
      "hit": false,
      "t": 30600,
      "d": 297.65625,
      "v": 78
    },
    {
      "midi": 36,
      "hit": false,
      "t": 30600,
      "d": 297.65625,
      "v": 78
    },
    {
      "midi": 72,
      "hit": false,
      "t": 30600,
      "d": 300,
      "v": 83
    },
    {
      "midi": 68,
      "hit": false,
      "t": 30750,
      "d": 150,
      "v": 70
    },
    {
      "midi": 72,
      "hit": false,
      "t": 30900,
      "d": 300,
      "v": 81
    },
    {
      "midi": 68,
      "hit": false,
      "t": 30900,
      "d": 300,
      "v": 69
    },
    {
      "midi": 67,
      "hit": false,
      "t": 31200,
      "d": 300,
      "v": 66
    },
    {
      "midi": 43,
      "hit": false,
      "t": 31200,
      "d": 297.65625,
      "v": 71
    },
    {
      "midi": 31,
      "hit": false,
      "t": 31200,
      "d": 297.65625,
      "v": 71
    },
    {
      "midi": 67,
      "hit": false,
      "t": 31200,
      "d": 300,
      "v": 71
    },
    {
      "midi": 70,
      "hit": false,
      "t": 31500,
      "d": 150,
      "v": 81
    },
    {
      "midi": 70,
      "hit": false,
      "t": 31500,
      "d": 300,
      "v": 82
    },
    {
      "midi": 43,
      "hit": false,
      "t": 31800,
      "d": 297.65625,
      "v": 74
    },
    {
      "midi": 31,
      "hit": false,
      "t": 31800,
      "d": 297.65625,
      "v": 74
    },
    {
      "midi": 73,
      "hit": false,
      "t": 31800,
      "d": 300,
      "v": 83
    },
    {
      "midi": 70,
      "hit": false,
      "t": 32100,
      "d": 300,
      "v": 69
    },
    {
      "midi": 67,
      "hit": false,
      "t": 32400,
      "d": 150,
      "v": 69
    },
    {
      "midi": 43,
      "hit": false,
      "t": 32400,
      "d": 297.65625,
      "v": 77
    },
    {
      "midi": 31,
      "hit": false,
      "t": 32400,
      "d": 297.65625,
      "v": 77
    },
    {
      "midi": 67,
      "hit": false,
      "t": 32400,
      "d": 300,
      "v": 68
    },
    {
      "midi": 70,
      "hit": false,
      "t": 32550,
      "d": 150,
      "v": 79
    },
    {
      "midi": 67,
      "hit": false,
      "t": 32700,
      "d": 150,
      "v": 69
    },
    {
      "midi": 70,
      "hit": false,
      "t": 32700,
      "d": 300,
      "v": 81
    },
    {
      "midi": 73,
      "hit": false,
      "t": 32850,
      "d": 300,
      "v": 88
    },
    {
      "midi": 43,
      "hit": false,
      "t": 33000,
      "d": 297.65625,
      "v": 75
    },
    {
      "midi": 31,
      "hit": false,
      "t": 33000,
      "d": 297.65625,
      "v": 75
    },
    {
      "midi": 73,
      "hit": false,
      "t": 33000,
      "d": 300,
      "v": 85
    },
    {
      "midi": 70,
      "hit": false,
      "t": 33150,
      "d": 150,
      "v": 68
    },
    {
      "midi": 73,
      "hit": false,
      "t": 33300,
      "d": 300,
      "v": 82
    },
    {
      "midi": 70,
      "hit": false,
      "t": 33300,
      "d": 300,
      "v": 68
    },
    {
      "midi": 66,
      "hit": false,
      "t": 33600,
      "d": 300,
      "v": 58
    },
    {
      "midi": 51,
      "hit": false,
      "t": 33600,
      "d": 297.65625,
      "v": 82
    },
    {
      "midi": 39,
      "hit": false,
      "t": 33600,
      "d": 297.65625,
      "v": 82
    },
    {
      "midi": 69,
      "hit": false,
      "t": 33600,
      "d": 300,
      "v": 69
    },
    {
      "midi": 69,
      "hit": false,
      "t": 33900,
      "d": 150,
      "v": 81
    },
    {
      "midi": 72,
      "hit": false,
      "t": 33900,
      "d": 300,
      "v": 82
    },
    {
      "midi": 51,
      "hit": false,
      "t": 34200,
      "d": 297.65625,
      "v": 78
    },
    {
      "midi": 39,
      "hit": false,
      "t": 34200,
      "d": 297.65625,
      "v": 78
    },
    {
      "midi": 75,
      "hit": false,
      "t": 34200,
      "d": 300,
      "v": 90
    },
    {
      "midi": 72,
      "hit": false,
      "t": 34500,
      "d": 300,
      "v": 71
    },
    {
      "midi": 66,
      "hit": false,
      "t": 34800,
      "d": 150,
      "v": 61
    },
    {
      "midi": 51,
      "hit": false,
      "t": 34800,
      "d": 297.65625,
      "v": 74
    },
    {
      "midi": 39,
      "hit": false,
      "t": 34800,
      "d": 297.65625,
      "v": 74
    },
    {
      "midi": 69,
      "hit": false,
      "t": 34800,
      "d": 300,
      "v": 70
    },
    {
      "midi": 69,
      "hit": false,
      "t": 34950,
      "d": 150,
      "v": 76
    },
    {
      "midi": 66,
      "hit": false,
      "t": 35100,
      "d": 150,
      "v": 71
    },
    {
      "midi": 72,
      "hit": false,
      "t": 35100,
      "d": 300,
      "v": 84
    },
    {
      "midi": 75,
      "hit": false,
      "t": 35250,
      "d": 300,
      "v": 100
    },
    {
      "midi": 51,
      "hit": false,
      "t": 35400,
      "d": 297.65625,
      "v": 80
    },
    {
      "midi": 39,
      "hit": false,
      "t": 35400,
      "d": 297.65625,
      "v": 80
    },
    {
      "midi": 75,
      "hit": false,
      "t": 35400,
      "d": 300,
      "v": 80
    },
    {
      "midi": 69,
      "hit": false,
      "t": 35550,
      "d": 150,
      "v": 61
    },
    {
      "midi": 75,
      "hit": false,
      "t": 35700,
      "d": 300,
      "v": 86
    },
    {
      "midi": 72,
      "hit": false,
      "t": 35700,
      "d": 300,
      "v": 71
    },
    {
      "midi": 62,
      "hit": false,
      "t": 36000,
      "d": 2400,
      "v": 74
    },
    {
      "midi": 50,
      "hit": false,
      "t": 36000,
      "d": 297.65625,
      "v": 75
    },
    {
      "midi": 38,
      "hit": false,
      "t": 36000,
      "d": 297.65625,
      "v": 75
    },
    {
      "midi": 66,
      "hit": false,
      "t": 36000,
      "d": 300,
      "v": 70
    },
    {
      "midi": 69,
      "hit": false,
      "t": 36300,
      "d": 300,
      "v": 76
    },
    {
      "midi": 50,
      "hit": false,
      "t": 36600,
      "d": 297.65625,
      "v": 76
    },
    {
      "midi": 38,
      "hit": false,
      "t": 36600,
      "d": 297.65625,
      "v": 76
    },
    {
      "midi": 74,
      "hit": false,
      "t": 36600,
      "d": 300,
      "v": 86
    },
    {
      "midi": 77,
      "hit": false,
      "t": 36900,
      "d": 300,
      "v": 68
    },
    {
      "midi": 69,
      "hit": false,
      "t": 36900,
      "d": 300,
      "v": 71
    },
    {
      "midi": 75,
      "hit": false,
      "t": 37200,
      "d": 300,
      "v": 66
    },
    {
      "midi": 50,
      "hit": false,
      "t": 37200,
      "d": 297.65625,
      "v": 79
    },
    {
      "midi": 38,
      "hit": false,
      "t": 37200,
      "d": 297.65625,
      "v": 79
    },
    {
      "midi": 66,
      "hit": false,
      "t": 37200,
      "d": 300,
      "v": 72
    },
    {
      "midi": 74,
      "hit": false,
      "t": 37500,
      "d": 900,
      "v": 75
    },
    {
      "midi": 69,
      "hit": false,
      "t": 37500,
      "d": 300,
      "v": 80
    },
    {
      "midi": 50,
      "hit": false,
      "t": 37800,
      "d": 297.65625,
      "v": 75
    },
    {
      "midi": 38,
      "hit": false,
      "t": 37800,
      "d": 297.65625,
      "v": 75
    },
    {
      "midi": 74,
      "hit": false,
      "t": 37800,
      "d": 300,
      "v": 85
    },
    {
      "midi": 69,
      "hit": false,
      "t": 38100,
      "d": 300,
      "v": 73
    },
    {
      "midi": 77,
      "hit": false,
      "t": 38400,
      "d": 300,
      "v": 108
    },
    {
      "midi": 41,
      "hit": false,
      "t": 38400,
      "d": 297.65625,
      "v": 62
    },
    {
      "midi": 29,
      "hit": false,
      "t": 38400,
      "d": 297.65625,
      "v": 62
    },
    {
      "midi": 65,
      "hit": false,
      "t": 38400,
      "d": 300,
      "v": 62
    },
    {
      "midi": 72,
      "hit": false,
      "t": 38700,
      "d": 1200,
      "v": 90
    },
    {
      "midi": 68,
      "hit": false,
      "t": 38700,
      "d": 300,
      "v": 77
    },
    {
      "midi": 41,
      "hit": false,
      "t": 39000,
      "d": 297.65625,
      "v": 74
    },
    {
      "midi": 29,
      "hit": false,
      "t": 39000,
      "d": 297.65625,
      "v": 74
    },
    {
      "midi": 72,
      "hit": false,
      "t": 39000,
      "d": 300,
      "v": 85
    },
    {
      "midi": 68,
      "hit": false,
      "t": 39300,
      "d": 300,
      "v": 68
    },
    {
      "midi": 41,
      "hit": false,
      "t": 39600,
      "d": 297.65625,
      "v": 80
    },
    {
      "midi": 29,
      "hit": false,
      "t": 39600,
      "d": 297.65625,
      "v": 80
    },
    {
      "midi": 65,
      "hit": false,
      "t": 39600,
      "d": 300,
      "v": 72
    },
    {
      "midi": 64,
      "hit": false,
      "t": 39900,
      "d": 300,
      "v": 86
    },
    {
      "midi": 68,
      "hit": false,
      "t": 39900,
      "d": 300,
      "v": 84
    },
    {
      "midi": 65,
      "hit": false,
      "t": 40200,
      "d": 300,
      "v": 104
    },
    {
      "midi": 41,
      "hit": false,
      "t": 40200,
      "d": 297.65625,
      "v": 77
    },
    {
      "midi": 29,
      "hit": false,
      "t": 40200,
      "d": 297.65625,
      "v": 77
    },
    {
      "midi": 72,
      "hit": false,
      "t": 40200,
      "d": 300,
      "v": 88
    },
    {
      "midi": 68,
      "hit": false,
      "t": 40500,
      "d": 300,
      "v": 67
    },
    {
      "midi": 41,
      "hit": false,
      "t": 40800,
      "d": 297.65625,
      "v": 75
    },
    {
      "midi": 29,
      "hit": false,
      "t": 40800,
      "d": 297.65625,
      "v": 75
    },
    {
      "midi": 65,
      "hit": false,
      "t": 40800,
      "d": 300,
      "v": 71
    },
    {
      "midi": 68,
      "hit": false,
      "t": 41100,
      "d": 300,
      "v": 76
    },
    {
      "midi": 41,
      "hit": false,
      "t": 41400,
      "d": 297.65625,
      "v": 76
    },
    {
      "midi": 29,
      "hit": false,
      "t": 41400,
      "d": 297.65625,
      "v": 76
    },
    {
      "midi": 72,
      "hit": false,
      "t": 41400,
      "d": 300,
      "v": 83
    },
    {
      "midi": 68,
      "hit": false,
      "t": 41700,
      "d": 300,
      "v": 68
    },
    {
      "midi": 41,
      "hit": false,
      "t": 42000,
      "d": 297.65625,
      "v": 77
    },
    {
      "midi": 29,
      "hit": false,
      "t": 42000,
      "d": 297.65625,
      "v": 77
    },
    {
      "midi": 65,
      "hit": false,
      "t": 42000,
      "d": 300,
      "v": 65
    },
    {
      "midi": 68,
      "hit": false,
      "t": 42300,
      "d": 300,
      "v": 80
    },
    {
      "midi": 41,
      "hit": false,
      "t": 42600,
      "d": 297.65625,
      "v": 77
    },
    {
      "midi": 29,
      "hit": false,
      "t": 42600,
      "d": 297.65625,
      "v": 77
    },
    {
      "midi": 72,
      "hit": false,
      "t": 42600,
      "d": 300,
      "v": 85
    },
    {
      "midi": 68,
      "hit": false,
      "t": 42900,
      "d": 300,
      "v": 67
    }
  ]
}