{
  "jsonPath": "Rock/Irish Rock/The Cranberries/zombie.json",
  "path": "Rock\\Irish Rock\\The Cranberries\\Zombie.mid",
  "name": "Zombie",
  "difficulty": "Advanced",
  "bpm": 76.00006586672374,
  "notes": [
    {
      "midi": 52,
      "hit": false,
      "t": 2790.692,
      "d": 334.30164583333317,
      "v": 85
    },
    {
      "midi": 59,
      "hit": false,
      "t": 2790.692,
      "d": 334.30164583333317,
      "v": 87
    },
    {
      "midi": 47,
      "hit": false,
      "t": 2790.692,
      "d": 683.1381458333326,
      "v": 96
    },
    {
      "midi": 55,
      "hit": false,
      "t": 2790.692,
      "d": 683.1381458333326,
      "v": 88
    },
    {
      "midi": 40,
      "hit": false,
      "t": 2790.692,
      "d": 1220.9277499999976,
      "v": 93
    },
    {
      "midi": 64,
      "hit": false,
      "t": 2797.959427083333,
      "d": 341.5690729166663,
      "v": 87
    },
    {
      "midi": 52,
      "hit": false,
      "t": 3132.2610729166663,
      "d": 341.5690729166663,
      "v": 81
    },
    {
      "midi": 59,
      "hit": false,
      "t": 3132.2610729166663,
      "d": 341.5690729166663,
      "v": 85
    },
    {
      "midi": 64,
      "hit": false,
      "t": 3146.7959270833326,
      "d": 334.30164583333317,
      "v": 86
    },
    {
      "midi": 47,
      "hit": false,
      "t": 3481.0975729166657,
      "d": 341.5690729166663,
      "v": 88
    },
    {
      "midi": 52,
      "hit": false,
      "t": 3481.0975729166657,
      "d": 341.5690729166663,
      "v": 85
    },
    {
      "midi": 55,
      "hit": false,
      "t": 3481.0975729166657,
      "d": 348.83649999999943,
      "v": 87
    },
    {
      "midi": 59,
      "hit": false,
      "t": 3481.0975729166657,
      "d": 356.10392708333256,
      "v": 86
    },
    {
      "midi": 64,
      "hit": false,
      "t": 3488.364999999999,
      "d": 348.83649999999943,
      "v": 85
    },
    {
      "midi": 47,
      "hit": false,
      "t": 3829.934072916665,
      "d": 181.6856770833324,
      "v": 87
    },
    {
      "midi": 52,
      "hit": false,
      "t": 3829.934072916665,
      "d": 523.2547499999991,
      "v": 85
    },
    {
      "midi": 55,
      "hit": false,
      "t": 3837.2014999999983,
      "d": 508.7198958333329,
      "v": 88
    },
    {
      "midi": 59,
      "hit": false,
      "t": 3844.4689270833314,
      "d": 152.61596874999987,
      "v": 87
    },
    {
      "midi": 64,
      "hit": false,
      "t": 3844.4689270833314,
      "d": 152.61596874999987,
      "v": 85
    },
    {
      "midi": 59,
      "hit": false,
      "t": 4004.3523229166644,
      "d": 341.56907291666676,
      "v": 87
    },
    {
      "midi": 64,
      "hit": false,
      "t": 4004.3523229166644,
      "d": 341.56907291666676,
      "v": 87
    },
    {
      "midi": 47,
      "hit": false,
      "t": 4018.8871770833307,
      "d": 1039.2420729166656,
      "v": 94
    },
    {
      "midi": 40,
      "hit": false,
      "t": 4018.8871770833307,
      "d": 1533.4271145833322,
      "v": 84
    },
    {
      "midi": 55,
      "hit": false,
      "t": 4353.188822916664,
      "d": 167.15082291666658,
      "v": 85
    },
    {
      "midi": 59,
      "hit": false,
      "t": 4353.188822916664,
      "d": 167.15082291666658,
      "v": 86
    },
    {
      "midi": 64,
      "hit": false,
      "t": 4353.188822916664,
      "d": 167.15082291666658,
      "v": 86
    },
    {
      "midi": 52,
      "hit": false,
      "t": 4360.456249999997,
      "d": 683.1381458333326,
      "v": 84
    },
    {
      "midi": 59,
      "hit": false,
      "t": 4527.607072916664,
      "d": 341.5690729166663,
      "v": 87
    },
    {
      "midi": 64,
      "hit": false,
      "t": 4527.607072916664,
      "d": 341.5690729166663,
      "v": 86
    },
    {
      "midi": 55,
      "hit": false,
      "t": 4527.607072916664,
      "d": 515.987322916666,
      "v": 87
    },
    {
      "midi": 64,
      "hit": false,
      "t": 4876.4435729166635,
      "d": 159.88339583333345,
      "v": 85
    },
    {
      "midi": 59,
      "hit": false,
      "t": 4876.4435729166635,
      "d": 167.15082291666658,
      "v": 85
    },
    {
      "midi": 52,
      "hit": false,
      "t": 5050.861822916663,
      "d": 145.34854166666628,
      "v": 85
    },
    {
      "midi": 55,
      "hit": false,
      "t": 5050.861822916663,
      "d": 152.6159687499994,
      "v": 86
    },
    {
      "midi": 59,
      "hit": false,
      "t": 5050.861822916663,
      "d": 167.15082291666567,
      "v": 87
    },
    {
      "midi": 64,
      "hit": false,
      "t": 5050.861822916663,
      "d": 167.15082291666567,
      "v": 86
    },
    {
      "midi": 47,
      "hit": false,
      "t": 5065.396677083329,
      "d": 130.81368750000001,
      "v": 88
    },
    {
      "midi": 47,
      "hit": false,
      "t": 5225.280072916662,
      "d": 247.09252083333377,
      "v": 92
    },
    {
      "midi": 50,
      "hit": false,
      "t": 5225.280072916662,
      "d": 305.23193750000064,
      "v": 94
    },
    {
      "midi": 55,
      "hit": false,
      "t": 5225.280072916662,
      "d": 341.5690729166672,
      "v": 88
    },
    {
      "midi": 64,
      "hit": false,
      "t": 5225.280072916662,
      "d": 348.83650000000034,
      "v": 86
    },
    {
      "midi": 59,
      "hit": false,
      "t": 5225.280072916662,
      "d": 690.4055729166666,
      "v": 87
    },
    {
      "midi": 48,
      "hit": false,
      "t": 5559.581718749996,
      "d": 356.10392708333256,
      "v": 93
    },
    {
      "midi": 52,
      "hit": false,
      "t": 5566.849145833329,
      "d": 348.83649999999943,
      "v": 87
    },
    {
      "midi": 55,
      "hit": false,
      "t": 5574.116572916662,
      "d": 341.5690729166663,
      "v": 86
    },
    {
      "midi": 64,
      "hit": false,
      "t": 5588.651427083329,
      "d": 327.03421875000004,
      "v": 84
    },
    {
      "midi": 48,
      "hit": false,
      "t": 5922.953072916662,
      "d": 341.5690729166663,
      "v": 91
    },
    {
      "midi": 52,
      "hit": false,
      "t": 5922.953072916662,
      "d": 341.5690729166663,
      "v": 86
    },
    {
      "midi": 55,
      "hit": false,
      "t": 5922.953072916662,
      "d": 341.5690729166663,
      "v": 87
    },
    {
      "midi": 59,
      "hit": false,
      "t": 5922.953072916662,
      "d": 341.5690729166663,
      "v": 87
    },
    {
      "midi": 64,
      "hit": false,
      "t": 5922.953072916662,
      "d": 341.5690729166663,
      "v": 86
    },
    {
      "midi": 52,
      "hit": false,
      "t": 6271.789572916661,
      "d": 341.5690729166663,
      "v": 86
    },
    {
      "midi": 55,
      "hit": false,
      "t": 6271.789572916661,
      "d": 341.5690729166663,
      "v": 88
    },
    {
      "midi": 59,
      "hit": false,
      "t": 6271.789572916661,
      "d": 341.5690729166663,
      "v": 87
    },
    {
      "midi": 64,
      "hit": false,
      "t": 6271.789572916661,
      "d": 341.5690729166663,
      "v": 85
    },
    {
      "midi": 48,
      "hit": false,
      "t": 6271.789572916661,
      "d": 530.5221770833314,
      "v": 90
    },
    {
      "midi": 64,
      "hit": false,
      "t": 6620.626072916661,
      "d": 145.34854166666628,
      "v": 86
    },
    {
      "midi": 59,
      "hit": false,
      "t": 6620.626072916661,
      "d": 159.88339583333254,
      "v": 86
    },
    {
      "midi": 52,
      "hit": false,
      "t": 6620.626072916661,
      "d": 167.15082291666567,
      "v": 82
    },
    {
      "midi": 55,
      "hit": false,
      "t": 6620.626072916661,
      "d": 167.15082291666567,
      "v": 87
    },
    {
      "midi": 59,
      "hit": false,
      "t": 6795.044322916659,
      "d": 327.03421875000004,
      "v": 87
    },
    {
      "midi": 52,
      "hit": false,
      "t": 6795.044322916659,
      "d": 341.5690729166663,
      "v": 84
    },
    {
      "midi": 55,
      "hit": false,
      "t": 6795.044322916659,
      "d": 341.5690729166663,
      "v": 86
    },
    {
      "midi": 64,
      "hit": false,
      "t": 6795.044322916659,
      "d": 341.5690729166663,
      "v": 86
    },
    {
      "midi": 48,
      "hit": false,
      "t": 6809.579177083326,
      "d": 443.3130520833329,
      "v": 89
    },
    {
      "midi": 55,
      "hit": false,
      "t": 7143.880822916659,
      "d": 167.15082291666658,
      "v": 85
    },
    {
      "midi": 59,
      "hit": false,
      "t": 7143.880822916659,
      "d": 167.15082291666658,
      "v": 86
    },
    {
      "midi": 64,
      "hit": false,
      "t": 7143.880822916659,
      "d": 167.15082291666658,
      "v": 86
    },
    {
      "midi": 52,
      "hit": false,
      "t": 7151.148249999992,
      "d": 159.88339583333345,
      "v": 84
    },
    {
      "midi": 48,
      "hit": false,
      "t": 7318.299072916659,
      "d": 312.4993645833338,
      "v": 95
    },
    {
      "midi": 59,
      "hit": false,
      "t": 7318.299072916659,
      "d": 341.5690729166672,
      "v": 87
    },
    {
      "midi": 64,
      "hit": false,
      "t": 7318.299072916659,
      "d": 341.5690729166672,
      "v": 86
    },
    {
      "midi": 52,
      "hit": false,
      "t": 7318.299072916659,
      "d": 515.9873229166669,
      "v": 86
    },
    {
      "midi": 55,
      "hit": false,
      "t": 7318.299072916659,
      "d": 515.9873229166669,
      "v": 87
    },
    {
      "midi": 48,
      "hit": false,
      "t": 7659.868145833326,
      "d": 232.5576666666666,
      "v": 90
    },
    {
      "midi": 64,
      "hit": false,
      "t": 7667.135572916659,
      "d": 159.88339583333345,
      "v": 85
    },
    {
      "midi": 59,
      "hit": false,
      "t": 7667.135572916659,
      "d": 167.15082291666658,
      "v": 85
    },
    {
      "midi": 52,
      "hit": false,
      "t": 7841.553822916659,
      "d": 167.1508229166675,
      "v": 86
    },
    {
      "midi": 55,
      "hit": false,
      "t": 7841.553822916659,
      "d": 167.1508229166675,
      "v": 87
    },
    {
      "midi": 59,
      "hit": false,
      "t": 7841.553822916659,
      "d": 167.1508229166675,
      "v": 87
    },
    {
      "midi": 64,
      "hit": false,
      "t": 7841.553822916659,
      "d": 167.1508229166675,
      "v": 87
    },
    {
      "midi": 50,
      "hit": false,
      "t": 8015.972072916659,
      "d": 305.23193749999973,
      "v": 92
    },
    {
      "midi": 55,
      "hit": false,
      "t": 8015.972072916659,
      "d": 341.5690729166663,
      "v": 88
    },
    {
      "midi": 59,
      "hit": false,
      "t": 8015.972072916659,
      "d": 356.1039270833344,
      "v": 87
    },
    {
      "midi": 64,
      "hit": false,
      "t": 8015.972072916659,
      "d": 356.1039270833344,
      "v": 87
    },
    {
      "midi": 43,
      "hit": false,
      "t": 8357.541145833326,
      "d": 348.83650000000125,
      "v": 93
    },
    {
      "midi": 47,
      "hit": false,
      "t": 8357.541145833326,
      "d": 1584.2991041666737,
      "v": 88
    },
    {
      "midi": 50,
      "hit": false,
      "t": 8364.80857291666,
      "d": 356.1039270833353,
      "v": 87
    },
    {
      "midi": 55,
      "hit": false,
      "t": 8364.80857291666,
      "d": 356.1039270833353,
      "v": 87
    },
    {
      "midi": 59,
      "hit": false,
      "t": 8379.343427083328,
      "d": 341.5690729166672,
      "v": 86
    },
    {
      "midi": 64,
      "hit": false,
      "t": 8379.343427083328,
      "d": 341.5690729166672,
      "v": 85
    },
    {
      "midi": 43,
      "hit": false,
      "t": 8713.64507291666,
      "d": 341.5690729166672,
      "v": 84
    },
    {
      "midi": 50,
      "hit": false,
      "t": 8728.179927083329,
      "d": 341.5690729166672,
      "v": 88
    },
    {
      "midi": 55,
      "hit": false,
      "t": 8728.179927083329,
      "d": 341.5690729166672,
      "v": 87
    },
    {
      "midi": 59,
      "hit": false,
      "t": 8728.179927083329,
      "d": 341.5690729166672,
      "v": 86
    },
    {
      "midi": 64,
      "hit": false,
      "t": 8728.179927083329,
      "d": 341.5690729166672,
      "v": 83
    },
    {
      "midi": 43,
      "hit": false,
      "t": 9062.481572916662,
      "d": 1744.182500000008,
      "v": 89
    },
    {
      "midi": 59,
      "hit": false,
      "t": 9077.01642708333,
      "d": 341.5690729166672,
      "v": 87
    },
    {
      "midi": 64,
      "hit": false,
      "t": 9077.01642708333,
      "d": 341.5690729166672,
      "v": 85
    },
    {
      "midi": 55,
      "hit": false,
      "t": 9077.01642708333,
      "d": 828.4866875000025,
      "v": 87
    },
    {
      "midi": 50,
      "hit": false,
      "t": 9077.01642708333,
      "d": 864.8238229166691,
      "v": 89
    },
    {
      "midi": 64,
      "hit": false,
      "t": 9425.852927083331,
      "d": 159.88339583333254,
      "v": 83
    },
    {
      "midi": 59,
      "hit": false,
      "t": 9425.852927083331,
      "d": 167.15082291666658,
      "v": 86
    },
    {
      "midi": 64,
      "hit": false,
      "t": 9593.003749999998,
      "d": 341.5690729166672,
      "v": 90
    },
    {
      "midi": 59,
      "hit": false,
      "t": 9600.271177083332,
      "d": 341.5690729166672,
      "v": 90
    },
    {
      "midi": 55,
      "hit": false,
      "t": 9934.572822916665,
      "d": 683.1381458333381,
      "v": 85
    },
    {
      "midi": 64,
      "hit": false,
      "t": 9941.84025,
      "d": 690.4055729166703,
      "v": 87
    },
    {
      "midi": 47,
      "hit": false,
      "t": 9949.107677083333,
      "d": 130.81368750000001,
      "v": 86
    },
    {
      "midi": 50,
      "hit": false,
      "t": 9949.107677083333,
      "d": 152.61596875000032,
      "v": 81
    },
    {
      "midi": 59,
      "hit": false,
      "t": 9949.107677083333,
      "d": 167.1508229166684,
      "v": 87
    },
    {
      "midi": 47,
      "hit": false,
      "t": 10108.991072916668,
      "d": 704.9404270833365,
      "v": 92
    },
    {
      "midi": 50,
      "hit": false,
      "t": 10116.258500000002,
      "d": 348.83650000000125,
      "v": 90
    },
    {
      "midi": 59,
      "hit": false,
      "t": 10123.525927083336,
      "d": 515.9873229166678,
      "v": 86
    },
    {
      "midi": 50,
      "hit": false,
      "t": 10472.362427083337,
      "d": 167.15082291666658,
      "v": 85
    },
    {
      "midi": 64,
      "hit": false,
      "t": 10639.513250000004,
      "d": 523.2547500000019,
      "v": 87
    },
    {
      "midi": 55,
      "hit": false,
      "t": 10646.780677083338,
      "d": 167.15082291666658,
      "v": 87
    },
    {
      "midi": 59,
      "hit": false,
      "t": 10646.780677083338,
      "d": 508.7198958333338,
      "v": 87
    },
    {
      "midi": 50,
      "hit": false,
      "t": 10646.780677083338,
      "d": 515.9873229166678,
      "v": 88
    },
    {
      "midi": 43,
      "hit": false,
      "t": 10813.931500000004,
      "d": 174.41825000000063,
      "v": 87
    },
    {
      "midi": 47,
      "hit": false,
      "t": 10821.198927083338,
      "d": 145.34854166666628,
      "v": 86
    },
    {
      "midi": 55,
      "hit": false,
      "t": 10821.198927083338,
      "d": 341.5690729166672,
      "v": 87
    },
    {
      "midi": 42,
      "hit": false,
      "t": 11155.500572916671,
      "d": 690.4055729166703,
      "v": 93
    },
    {
      "midi": 59,
      "hit": false,
      "t": 11162.768000000005,
      "d": 341.56907291666903,
      "v": 87
    },
    {
      "midi": 50,
      "hit": false,
      "t": 11170.03542708334,
      "d": 327.03421875000095,
      "v": 84
    },
    {
      "midi": 55,
      "hit": false,
      "t": 11170.03542708334,
      "d": 327.03421875000095,
      "v": 87
    },
    {
      "midi": 64,
      "hit": false,
      "t": 11170.03542708334,
      "d": 341.56907291666903,
      "v": 87
    },
    {
      "midi": 45,
      "hit": false,
      "t": 11177.302854166674,
      "d": 319.7667916666669,
      "v": 85
    },
    {
      "midi": 45,
      "hit": false,
      "t": 11504.337072916675,
      "d": 341.5690729166672,
      "v": 81
    },
    {
      "midi": 50,
      "hit": false,
      "t": 11504.337072916675,
      "d": 341.5690729166672,
      "v": 88
    },
    {
      "midi": 55,
      "hit": false,
      "t": 11504.337072916675,
      "d": 341.5690729166672,
      "v": 87
    },
    {
      "midi": 59,
      "hit": false,
      "t": 11511.604500000009,
      "d": 341.5690729166672,
      "v": 87
    },
    {
      "midi": 64,
      "hit": false,
      "t": 11518.871927083343,
      "d": 327.0342187499991,
      "v": 85
    },
    {
      "midi": 55,
      "hit": false,
      "t": 11853.173572916676,
      "d": 341.5690729166672,
      "v": 87
    },
    {
      "midi": 64,
      "hit": false,
      "t": 11853.173572916676,
      "d": 341.5690729166672,
      "v": 87
    },
    {
      "midi": 50,
      "hit": false,
      "t": 11853.173572916676,
      "d": 523.2547500000019,
      "v": 90
    },
    {
      "midi": 42,
      "hit": false,
      "t": 11853.173572916676,
      "d": 1039.2420729166715,
      "v": 88
    },
    {
      "midi": 45,
      "hit": false,
      "t": 11853.173572916676,
      "d": 1039.2420729166715,
      "v": 91
    },
    {
      "midi": 59,
      "hit": false,
      "t": 11860.44100000001,
      "d": 334.30164583333317,
      "v": 87
    },
    {
      "midi": 55,
      "hit": false,
      "t": 12202.010072916677,
      "d": 167.15082291666658,
      "v": 87
    },
    {
      "midi": 59,
      "hit": false,
      "t": 12202.010072916677,
      "d": 167.15082291666658,
      "v": 87
    },
    {
      "midi": 64,
      "hit": false,
      "t": 12202.010072916677,
      "d": 167.15082291666658,
      "v": 86
    },
    {
      "midi": 55,
      "hit": false,
      "t": 12376.428322916678,
      "d": 341.5690729166672,
      "v": 88
    },
    {
      "midi": 59,
      "hit": false,
      "t": 12376.428322916678,
      "d": 341.5690729166672,
      "v": 87
    },
    {
      "midi": 64,
      "hit": false,
      "t": 12376.428322916678,
      "d": 341.5690729166672,
      "v": 87
    },
    {
      "midi": 50,
      "hit": false,
      "t": 12383.695750000012,
      "d": 508.7198958333356,
      "v": 89
    },
    {
      "midi": 55,
      "hit": false,
      "t": 12725.264822916679,
      "d": 152.61596875000032,
      "v": 86
    },
    {
      "midi": 59,
      "hit": false,
      "t": 12725.264822916679,
      "d": 159.88339583333436,
      "v": 86
    },
    {
      "midi": 64,
      "hit": false,
      "t": 12725.264822916679,
      "d": 167.1508229166684,
      "v": 86
    },
    {
      "midi": 64,
      "hit": false,
      "t": 12899.683072916681,
      "d": 515.987322916666,
      "v": 87
    },
    {
      "midi": 59,
      "hit": false,
      "t": 12899.683072916681,
      "d": 523.2547500000001,
      "v": 88
    },
    {
      "midi": 45,
      "hit": false,
      "t": 12899.683072916681,
      "d": 530.5221770833341,
      "v": 87
    },
    {
      "midi": 50,
      "hit": false,
      "t": 12899.683072916681,
      "d": 530.5221770833341,
      "v": 90
    },
    {
      "midi": 55,
      "hit": false,
      "t": 12899.683072916681,
      "d": 530.5221770833341,
      "v": 87
    },
    {
      "midi": 42,
      "hit": false,
      "t": 12899.683072916681,
      "d": 537.7896041666681,
      "v": 81
    },
    {
      "midi": 64,
      "hit": false,
      "t": 13422.937822916681,
      "d": 523.2547500000055,
      "v": 86
    },
    {
      "midi": 59,
      "hit": false,
      "t": 13430.205250000015,
      "d": 479.6501875000031,
      "v": 87
    },
    {
      "midi": 45,
      "hit": false,
      "t": 13437.47267708335,
      "d": 138.08111458333406,
      "v": 88
    },
    {
      "midi": 55,
      "hit": false,
      "t": 13437.47267708335,
      "d": 152.61596875000032,
      "v": 85
    },
    {
      "midi": 50,
      "hit": false,
      "t": 13437.47267708335,
      "d": 363.37135416666933,
      "v": 87
    },
    {
      "midi": 42,
      "hit": false,
      "t": 13444.740104166684,
      "d": 116.27883333333375,
      "v": 82
    },
    {
      "midi": 42,
      "hit": false,
      "t": 13597.356072916684,
      "d": 109.01140625000153,
      "v": 92
    },
    {
      "midi": 45,
      "hit": false,
      "t": 13597.356072916684,
      "d": 196.22053125000093,
      "v": 94
    },
    {
      "midi": 55,
      "hit": false,
      "t": 13604.623500000018,
      "d": 276.1622291666681,
      "v": 87
    },
    {
      "midi": 47,
      "hit": false,
      "t": 13800.844031250019,
      "d": 770.3472708333356,
      "v": 85
    },
    {
      "midi": 40,
      "hit": false,
      "t": 13822.64631250002,
      "d": 2209.2978333333376,
      "v": 91
    },
    {
      "midi": 52,
      "hit": false,
      "t": 13917.122864583353,
      "d": 370.63878125000156,
      "v": 87
    },
    {
      "midi": 55,
      "hit": false,
      "t": 13931.657718750019,
      "d": 356.1039270833353,
      "v": 88
    },
    {
      "midi": 59,
      "hit": false,
      "t": 13938.925145833353,
      "d": 348.83650000000125,
      "v": 88
    },
    {
      "midi": 64,
      "hit": false,
      "t": 13953.460000000021,
      "d": 334.30164583333317,
      "v": 88
    },
    {
      "midi": 55,
      "hit": false,
      "t": 14295.029072916688,
      "d": 341.5690729166672,
      "v": 87
    },
    {
      "midi": 59,
      "hit": false,
      "t": 14295.029072916688,
      "d": 348.83650000000125,
      "v": 86
    },
    {
      "midi": 64,
      "hit": false,
      "t": 14295.029072916688,
      "d": 348.83650000000125,
      "v": 84
    },
    {
      "midi": 52,
      "hit": false,
      "t": 14295.029072916688,
      "d": 356.1039270833353,
      "v": 85
    },
    {
      "midi": 47,
      "hit": false,
      "t": 36126.380031250024,
      "d": 770.3472708333284,
      "v": 85
    },
    {
      "midi": 52,
      "hit": false,
      "t": 36242.658864583354,
      "d": 370.6387812500034,
      "v": 87
    },
    {
      "midi": 55,
      "hit": false,
      "t": 36257.19371875002,
      "d": 356.1039270833353,
      "v": 88
    },
    {
      "midi": 59,
      "hit": false,
      "t": 36264.46114583335,
      "d": 348.8365000000049,
      "v": 88
    },
    {
      "midi": 64,
      "hit": false,
      "t": 36278.99600000002,
      "d": 334.3016458333368,
      "v": 88
    },
    {
      "midi": 52,
      "hit": false,
      "t": 36620.56507291669,
      "d": 268.89480208333407,
      "v": 85
    },
    {
      "midi": 55,
      "hit": false,
      "t": 36620.56507291669,
      "d": 341.5690729166672,
      "v": 87
    },
    {
      "midi": 59,
      "hit": false,
      "t": 36620.56507291669,
      "d": 348.8364999999976,
      "v": 86
    },
    {
      "midi": 64,
      "hit": false,
      "t": 36620.56507291669,
      "d": 348.8364999999976,
      "v": 84
    },
    {
      "midi": 55,
      "hit": false,
      "t": 36969.401572916686,
      "d": 341.56907291665993,
      "v": 87
    },
    {
      "midi": 59,
      "hit": false,
      "t": 36976.669000000016,
      "d": 341.56907291665993,
      "v": 87
    },
    {
      "midi": 64,
      "hit": false,
      "t": 36976.669000000016,
      "d": 348.83649999999034,
      "v": 87
    },
    {
      "midi": 52,
      "hit": false,
      "t": 36983.93642708335,
      "d": 327.0342187499991,
      "v": 85
    },
    {
      "midi": 55,
      "hit": false,
      "t": 37318.238072916676,
      "d": 523.2547499999855,
      "v": 87
    },
    {
      "midi": 52,
      "hit": false,
      "t": 37318.238072916676,
      "d": 1220.9277499999662,
      "v": 86
    },
    {
      "midi": 59,
      "hit": false,
      "t": 37325.50550000001,
      "d": 159.88339583332709,
      "v": 87
    },
    {
      "midi": 64,
      "hit": false,
      "t": 37332.77292708334,
      "d": 152.61596874999668,
      "v": 87
    },
    {
      "midi": 59,
      "hit": false,
      "t": 37492.656322916664,
      "d": 341.5690729166672,
      "v": 87
    },
    {
      "midi": 64,
      "hit": false,
      "t": 37492.656322916664,
      "d": 341.5690729166672,
      "v": 87
    },
    {
      "midi": 64,
      "hit": false,
      "t": 37841.49282291666,
      "d": 167.1508229166575,
      "v": 87
    },
    {
      "midi": 59,
      "hit": false,
      "t": 37841.49282291666,
      "d": 690.4055729166503,
      "v": 86
    },
    {
      "midi": 55,
      "hit": false,
      "t": 37848.76024999999,
      "d": 152.61596874999668,
      "v": 86
    },
    {
      "midi": 55,
      "hit": false,
      "t": 38015.91107291665,
      "d": 341.5690729166672,
      "v": 87
    },
    {
      "midi": 64,
      "hit": false,
      "t": 38015.91107291665,
      "d": 515.9873229166624,
      "v": 84
    },
    {
      "midi": 55,
      "hit": false,
      "t": 38364.74757291665,
      "d": 167.15082291666477,
      "v": 84
    },
    {
      "midi": 55,
      "hit": false,
      "t": 38539.16582291664,
      "d": 167.1508229166575,
      "v": 87
    },
    {
      "midi": 64,
      "hit": false,
      "t": 38539.16582291664,
      "d": 167.1508229166575,
      "v": 87
    },
    {
      "midi": 59,
      "hit": false,
      "t": 38539.16582291664,
      "d": 508.7198958333174,
      "v": 88
    },
    {
      "midi": 52,
      "hit": false,
      "t": 38546.43324999997,
      "d": 152.61596874999668,
      "v": 86
    },
    {
      "midi": 47,
      "hit": false,
      "t": 38713.58407291663,
      "d": 174.41825000000244,
      "v": 98
    },
    {
      "midi": 50,
      "hit": false,
      "t": 38713.58407291663,
      "d": 327.0342187499991,
      "v": 90
    },
    {
      "midi": 55,
      "hit": false,
      "t": 38713.58407291663,
      "d": 334.30164583332953,
      "v": 88
    },
    {
      "midi": 64,
      "hit": false,
      "t": 38713.58407291663,
      "d": 341.56907291665993,
      "v": 87
    },
    {
      "midi": 52,
      "hit": false,
      "t": 39033.3508645833,
      "d": 370.6387812499888,
      "v": 80
    },
    {
      "midi": 55,
      "hit": false,
      "t": 39055.15314583329,
      "d": 348.8364999999976,
      "v": 87
    },
    {
      "midi": 59,
      "hit": false,
      "t": 39055.15314583329,
      "d": 348.8364999999976,
      "v": 87
    },
    {
      "midi": 48,
      "hit": false,
      "t": 39055.15314583329,
      "d": 1744.1824999999735,
      "v": 89
    },
    {
      "midi": 64,
      "hit": false,
      "t": 39062.42057291662,
      "d": 341.5690729166672,
      "v": 87
    },
    {
      "midi": 52,
      "hit": false,
      "t": 39411.25707291662,
      "d": 341.5690729166672,
      "v": 86
    },
    {
      "midi": 55,
      "hit": false,
      "t": 39411.25707291662,
      "d": 341.5690729166672,
      "v": 87
    },
    {
      "midi": 59,
      "hit": false,
      "t": 39411.25707291662,
      "d": 341.5690729166672,
      "v": 88
    },
    {
      "midi": 64,
      "hit": false,
      "t": 39411.25707291662,
      "d": 341.5690729166672,
      "v": 87
    },
    {
      "midi": 52,
      "hit": false,
      "t": 39760.093572916616,
      "d": 341.5690729166672,
      "v": 87
    },
    {
      "midi": 55,
      "hit": false,
      "t": 39760.093572916616,
      "d": 341.5690729166672,
      "v": 88
    },
    {
      "midi": 59,
      "hit": false,
      "t": 39760.093572916616,
      "d": 341.5690729166672,
      "v": 88
    },
    {
      "midi": 64,
      "hit": false,
      "t": 39760.093572916616,
      "d": 341.5690729166672,
      "v": 87
    },
    {
      "midi": 64,
      "hit": false,
      "t": 40108.93007291661,
      "d": 145.34854166666628,
      "v": 86
    },
    {
      "midi": 55,
      "hit": false,
      "t": 40108.93007291661,
      "d": 167.15082291666477,
      "v": 87
    },
    {
      "midi": 59,
      "hit": false,
      "t": 40108.93007291661,
      "d": 167.15082291666477,
      "v": 87
    },
    {
      "midi": 52,
      "hit": false,
      "t": 40108.93007291661,
      "d": 690.4055729166503,
      "v": 85
    },
    {
      "midi": 59,
      "hit": false,
      "t": 40283.34832291661,
      "d": 341.5690729166672,
      "v": 87
    },
    {
      "midi": 64,
      "hit": false,
      "t": 40283.34832291661,
      "d": 341.5690729166672,
      "v": 87
    },
    {
      "midi": 55,
      "hit": false,
      "t": 40283.34832291661,
      "d": 356.103927083328,
      "v": 87
    },
    {
      "midi": 59,
      "hit": false,
      "t": 40632.184822916606,
      "d": 167.1508229166575,
      "v": 87
    },
    {
      "midi": 64,
      "hit": false,
      "t": 40632.184822916606,
      "d": 174.4182499999879,
      "v": 87
    },
    {
      "midi": 55,
      "hit": false,
      "t": 40646.71967708327,
      "d": 864.8238229166454,
      "v": 87
    },
    {
      "midi": 59,
      "hit": false,
      "t": 40806.603072916594,
      "d": 341.5690729166672,
      "v": 87
    },
    {
      "midi": 48,
      "hit": false,
      "t": 40806.603072916594,
      "d": 712.2078541666488,
      "v": 94
    },
    {
      "midi": 52,
      "hit": false,
      "t": 40806.603072916594,
      "d": 726.7427083333168,
      "v": 87
    },
    {
      "midi": 64,
      "hit": false,
      "t": 40813.870499999925,
      "d": 341.5690729166672,
      "v": 87
    },
    {
      "midi": 59,
      "hit": false,
      "t": 41155.43957291659,
      "d": 181.68567708332557,
      "v": 87
    },
    {
      "midi": 64,
      "hit": false,
      "t": 41162.70699999992,
      "d": 159.88339583333436,
      "v": 87
    },
    {
      "midi": 64,
      "hit": false,
      "t": 41329.85782291659,
      "d": 181.68567708332557,
      "v": 85
    },
    {
      "midi": 59,
      "hit": false,
      "t": 41344.39267708325,
      "d": 167.15082291666477,
      "v": 86
    },
    {
      "midi": 50,
      "hit": false,
      "t": 41518.81092708324,
      "d": 312.4993645833383,
      "v": 89
    },
    {
      "midi": 55,
      "hit": false,
      "t": 41518.81092708324,
      "d": 334.3016458333368,
      "v": 88
    },
    {
      "midi": 64,
      "hit": false,
      "t": 41518.81092708324,
      "d": 334.3016458333368,
      "v": 86
    },
    {
      "midi": 59,
      "hit": false,
      "t": 41518.81092708324,
      "d": 341.5690729166672,
      "v": 88
    },
    {
      "midi": 47,
      "hit": false,
      "t": 41853.11257291658,
      "d": 348.8364999999976,
      "v": 94
    },
    {
      "midi": 50,
      "hit": false,
      "t": 41853.11257291658,
      "d": 348.8364999999976,
      "v": 94
    },
    {
      "midi": 43,
      "hit": false,
      "t": 41853.11257291658,
      "d": 690.4055729166575,
      "v": 90
    },
    {
      "midi": 55,
      "hit": false,
      "t": 41860.37999999991,
      "d": 348.8364999999976,
      "v": 87
    },
    {
      "midi": 64,
      "hit": false,
      "t": 41860.37999999991,
      "d": 356.103927083328,
      "v": 84
    },
    {
      "midi": 59,
      "hit": false,
      "t": 41867.64742708324,
      "d": 348.8364999999976,
      "v": 88
    },
    {
      "midi": 47,
      "hit": false,
      "t": 42209.21649999991,
      "d": 334.30164583332953,
      "v": 84
    },
    {
      "midi": 50,
      "hit": false,
      "t": 42209.21649999991,
      "d": 683.1381458333271,
      "v": 88
    },
    {
      "midi": 55,
      "hit": false,
      "t": 42216.48392708324,
      "d": 334.30164583332953,
      "v": 87
    },
    {
      "midi": 59,
      "hit": false,
      "t": 42223.75135416657,
      "d": 319.7667916666687,
      "v": 87
    },
    {
      "midi": 64,
      "hit": false,
      "t": 42223.75135416657,
      "d": 327.0342187499991,
      "v": 85
    },
    {
      "midi": 59,
      "hit": false,
      "t": 42550.78557291657,
      "d": 348.8364999999976,
      "v": 87
    },
    {
      "midi": 47,
      "hit": false,
      "t": 42550.78557291657,
      "d": 530.5221770833159,
      "v": 88
    },
    {
      "midi": 43,
      "hit": false,
      "t": 42550.78557291657,
      "d": 537.7896041666463,
      "v": 80
    },
    {
      "midi": 55,
      "hit": false,
      "t": 42558.0529999999,
      "d": 341.5690729166672,
      "v": 87
    },
    {
      "midi": 64,
      "hit": false,
      "t": 42558.0529999999,
      "d": 341.5690729166672,
      "v": 84
    },
    {
      "midi": 50,
      "hit": false,
      "t": 42899.622072916565,
      "d": 690.4055729166284,
      "v": 81
    },
    {
      "midi": 64,
      "hit": false,
      "t": 42906.889499999896,
      "d": 152.61596874999668,
      "v": 84
    },
    {
      "midi": 59,
      "hit": false,
      "t": 42906.889499999896,
      "d": 159.88339583332709,
      "v": 85
    },
    {
      "midi": 55,
      "hit": false,
      "t": 42906.889499999896,
      "d": 167.1508229166575,
      "v": 85
    },
    {
      "midi": 64,
      "hit": false,
      "t": 43066.77289583322,
      "d": 341.56907291665266,
      "v": 87
    },
    {
      "midi": 59,
      "hit": false,
      "t": 43074.04032291655,
      "d": 341.56907291665266,
      "v": 87
    },
    {
      "midi": 55,
      "hit": false,
      "t": 43081.30774999988,
      "d": 348.83649999998306,
      "v": 87
    },
    {
      "midi": 47,
      "hit": false,
      "t": 43088.575177083214,
      "d": 843.0215416666397,
      "v": 87
    },
    {
      "midi": 43,
      "hit": false,
      "t": 43095.842604166544,
      "d": 835.7541145833093,
      "v": 86
    },
    {
      "midi": 64,
      "hit": false,
      "t": 43415.609395833206,
      "d": 188.9531041666487,
      "v": 86
    },
    {
      "midi": 59,
      "hit": false,
      "t": 43422.876822916536,
      "d": 174.4182499999879,
      "v": 86
    },
    {
      "midi": 55,
      "hit": false,
      "t": 43437.4116770832,
      "d": 152.61596874999668,
      "v": 85
    },
    {
      "midi": 55,
      "hit": false,
      "t": 43597.295072916524,
      "d": 341.56907291665993,
      "v": 87
    },
    {
      "midi": 50,
      "hit": false,
      "t": 43597.295072916524,
      "d": 690.4055729166503,
      "v": 89
    },
    {
      "midi": 59,
      "hit": false,
      "t": 43604.562499999854,
      "d": 508.7198958333247,
      "v": 87
    },
    {
      "midi": 64,
      "hit": false,
      "t": 43611.829927083185,
      "d": 494.1850416666639,
      "v": 87
    },
    {
      "midi": 47,
      "hit": false,
      "t": 43938.864145833184,
      "d": 348.83649999999034,
      "v": 86
    },
    {
      "midi": 43,
      "hit": false,
      "t": 43938.864145833184,
      "d": 624.9987291666475,
      "v": 87
    },
    {
      "midi": 55,
      "hit": false,
      "t": 43946.131572916514,
      "d": 341.56907291665993,
      "v": 85
    },
    {
      "midi": 64,
      "hit": false,
      "t": 44113.28239583318,
      "d": 181.68567708332557,
      "v": 86
    },
    {
      "midi": 59,
      "hit": false,
      "t": 44120.54982291651,
      "d": 515.9873229166406,
      "v": 86
    },
    {
      "midi": 47,
      "hit": false,
      "t": 44294.968072916505,
      "d": 152.61596874999668,
      "v": 90
    },
    {
      "midi": 50,
      "hit": false,
      "t": 44294.968072916505,
      "d": 312.49936458332377,
      "v": 87
    },
    {
      "midi": 55,
      "hit": false,
      "t": 44294.968072916505,
      "d": 334.301645833315,
      "v": 88
    },
    {
      "midi": 64,
      "hit": false,
      "t": 44302.235499999835,
      "d": 341.5690729166454,
      "v": 86
    },
    {
      "midi": 42,
      "hit": false,
      "t": 44607.46743749983,
      "d": 377.90620833331195,
      "v": 91
    },
    {
      "midi": 45,
      "hit": false,
      "t": 44614.73486458316,
      "d": 363.37135416665114,
      "v": 87
    },
    {
      "midi": 50,
      "hit": false,
      "t": 44622.00229166649,
      "d": 363.37135416665114,
      "v": 90
    },
    {
      "midi": 55,
      "hit": false,
      "t": 44636.53714583315,
      "d": 697.672999999988,
      "v": 88
    },
    {
      "midi": 59,
      "hit": false,
      "t": 44643.80457291648,
      "d": 334.30164583332953,
      "v": 87
    },
    {
      "midi": 64,
      "hit": false,
      "t": 44651.07199999981,
      "d": 334.30164583332953,
      "v": 87
    },
    {
      "midi": 45,
      "hit": false,
      "t": 44985.37364583314,
      "d": 348.8364999999976,
      "v": 86
    },
    {
      "midi": 59,
      "hit": false,
      "t": 44985.37364583314,
      "d": 348.8364999999976,
      "v": 86
    },
    {
      "midi": 50,
      "hit": false,
      "t": 44992.64107291647,
      "d": 341.5690729166672,
      "v": 88
    },
    {
      "midi": 64,
      "hit": false,
      "t": 44992.64107291647,
      "d": 341.5690729166672,
      "v": 87
    },
    {
      "midi": 42,
      "hit": false,
      "t": 44992.64107291647,
      "d": 2100.2864270832797,
      "v": 83
    },
    {
      "midi": 55,
      "hit": false,
      "t": 45341.47757291647,
      "d": 341.5690729166672,
      "v": 87
    },
    {
      "midi": 64,
      "hit": false,
      "t": 45341.47757291647,
      "d": 341.5690729166672,
      "v": 85
    },
    {
      "midi": 59,
      "hit": false,
      "t": 45341.47757291647,
      "d": 348.8364999999976,
      "v": 87
    },
    {
      "midi": 45,
      "hit": false,
      "t": 45341.47757291647,
      "d": 530.5221770833232,
      "v": 87
    },
    {
      "midi": 50,
      "hit": false,
      "t": 45341.47757291647,
      "d": 1039.2420729166479,
      "v": 86
    },
    {
      "midi": 64,
      "hit": false,
      "t": 45690.314072916466,
      "d": 167.15082291666477,
      "v": 84
    },
    {
      "midi": 55,
      "hit": false,
      "t": 45690.314072916466,
      "d": 1039.2420729166406,
      "v": 87
    },
    {
      "midi": 59,
      "hit": false,
      "t": 45697.5814999998,
      "d": 167.15082291666477,
      "v": 86
    },
    {
      "midi": 64,
      "hit": false,
      "t": 45864.73232291646,
      "d": 341.56907291665993,
      "v": 86
    },
    {
      "midi": 59,
      "hit": false,
      "t": 45871.99974999979,
      "d": 334.30164583332953,
      "v": 87
    },
    {
      "midi": 45,
      "hit": false,
      "t": 45879.26717708312,
      "d": 508.7198958333247,
      "v": 80
    },
    {
      "midi": 64,
      "hit": false,
      "t": 46213.56882291645,
      "d": 181.68567708332557,
      "v": 87
    },
    {
      "midi": 59,
      "hit": false,
      "t": 46213.56882291645,
      "d": 697.6729999999734,
      "v": 87
    },
    {
      "midi": 50,
      "hit": false,
      "t": 46387.98707291645,
      "d": 530.5221770833086,
      "v": 88
    },
    {
      "midi": 45,
      "hit": false,
      "t": 46402.52192708311,
      "d": 327.0342187499991,
      "v": 84
    },
    {
      "midi": 64,
      "hit": false,
      "t": 46402.52192708311,
      "d": 341.56907291665993,
      "v": 87
    },
    {
      "midi": 45,
      "hit": false,
      "t": 46736.82357291644,
      "d": 356.10392708331347,
      "v": 87
    },
    {
      "midi": 55,
      "hit": false,
      "t": 46736.82357291644,
      "d": 356.10392708331347,
      "v": 87
    },
    {
      "midi": 64,
      "hit": false,
      "t": 46751.3584270831,
      "d": 152.61596874999668,
      "v": 86
    },
    {
      "midi": 64,
      "hit": false,
      "t": 46911.241822916425,
      "d": 181.68567708332557,
      "v": 85
    },
    {
      "midi": 59,
      "hit": false,
      "t": 46918.509249999755,
      "d": 174.41824999999517,
      "v": 86
    },
    {
      "midi": 50,
      "hit": false,
      "t": 46925.776677083086,
      "d": 130.8136874999982,
      "v": 81
    },
    {
      "midi": 45,
      "hit": false,
      "t": 47100.19492708308,
      "d": 254.359947916666,
      "v": 86
    },
    {
      "midi": 50,
      "hit": false,
      "t": 47100.19492708308,
      "d": 297.96451041666296,
      "v": 84
    },
    {
      "midi": 55,
      "hit": false,
      "t": 47100.19492708308,
      "d": 312.49936458333104,
      "v": 84
    },
    {
      "midi": 59,
      "hit": false,
      "t": 47100.19492708308,
      "d": 312.49936458333104,
      "v": 83
    },
    {
      "midi": 64,
      "hit": false,
      "t": 47100.19492708308,
      "d": 312.49936458333104,
      "v": 86
    },
    {
      "midi": 42,
      "hit": false,
      "t": 47100.19492708308,
      "d": 377.9062083333338,
      "v": 83
    },
    {
      "midi": 55,
      "hit": false,
      "t": 69745.49771874974,
      "d": 356.103927083328,
      "v": 88
    },
    {
      "midi": 59,
      "hit": false,
      "t": 69752.76514583308,
      "d": 348.83649999999034,
      "v": 88
    },
    {
      "midi": 64,
      "hit": false,
      "t": 69767.29999999974,
      "d": 334.30164583332953,
      "v": 88
    },
    {
      "midi": 55,
      "hit": false,
      "t": 70108.86907291641,
      "d": 341.5690729166672,
      "v": 87
    },
    {
      "midi": 59,
      "hit": false,
      "t": 70108.86907291641,
      "d": 348.8365000000049,
      "v": 86
    },
    {
      "midi": 64,
      "hit": false,
      "t": 70108.86907291641,
      "d": 348.8365000000049,
      "v": 84
    },
    {
      "midi": 55,
      "hit": false,
      "t": 70457.70557291641,
      "d": 341.5690729166672,
      "v": 87
    },
    {
      "midi": 59,
      "hit": false,
      "t": 70464.97299999975,
      "d": 341.5690729166672,
      "v": 87
    },
    {
      "midi": 64,
      "hit": false,
      "t": 70464.97299999975,
      "d": 348.8365000000049,
      "v": 87
    },
    {
      "midi": 55,
      "hit": false,
      "t": 70806.54207291642,
      "d": 523.2547500000219,
      "v": 87
    },
    {
      "midi": 59,
      "hit": false,
      "t": 70813.80949999976,
      "d": 159.88339583334164,
      "v": 87
    },
    {
      "midi": 64,
      "hit": false,
      "t": 70821.0769270831,
      "d": 152.61596875000396,
      "v": 87
    },
    {
      "midi": 59,
      "hit": false,
      "t": 70980.96032291643,
      "d": 341.5690729166672,
      "v": 87
    },
    {
      "midi": 64,
      "hit": false,
      "t": 70980.96032291643,
      "d": 341.5690729166672,
      "v": 87
    },
    {
      "midi": 64,
      "hit": false,
      "t": 71329.79682291644,
      "d": 167.15082291667932,
      "v": 87
    },
    {
      "midi": 59,
      "hit": false,
      "t": 71329.79682291644,
      "d": 690.4055729166867,
      "v": 86
    },
    {
      "midi": 55,
      "hit": false,
      "t": 71337.06424999978,
      "d": 152.61596875000396,
      "v": 86
    },
    {
      "midi": 55,
      "hit": false,
      "t": 71504.21507291646,
      "d": 341.5690729166672,
      "v": 87
    },
    {
      "midi": 64,
      "hit": false,
      "t": 71504.21507291646,
      "d": 515.9873229166697,
      "v": 84
    },
    {
      "midi": 55,
      "hit": false,
      "t": 71853.05157291646,
      "d": 167.15082291666477,
      "v": 84
    },
    {
      "midi": 55,
      "hit": false,
      "t": 72027.46982291646,
      "d": 167.15082291666477,
      "v": 87
    },
    {
      "midi": 64,
      "hit": false,
      "t": 72027.46982291646,
      "d": 167.15082291666477,
      "v": 87
    },
    {
      "midi": 59,
      "hit": false,
      "t": 72027.46982291646,
      "d": 508.719895833332,
      "v": 88
    },
    {
      "midi": 55,
      "hit": false,
      "t": 72201.88807291647,
      "d": 334.30164583332953,
      "v": 88
    },
    {
      "midi": 64,
      "hit": false,
      "t": 72201.88807291647,
      "d": 341.5690729166672,
      "v": 87
    },
    {
      "midi": 55,
      "hit": false,
      "t": 72543.45714583313,
      "d": 348.8365000000049,
      "v": 87
    },
    {
      "midi": 59,
      "hit": false,
      "t": 72543.45714583313,
      "d": 348.8365000000049,
      "v": 87
    },
    {
      "midi": 64,
      "hit": false,
      "t": 72550.72457291647,
      "d": 341.5690729166672,
      "v": 87
    },
    {
      "midi": 55,
      "hit": false,
      "t": 72899.56107291648,
      "d": 341.5690729166672,
      "v": 87
    },
    {
      "midi": 59,
      "hit": false,
      "t": 72899.56107291648,
      "d": 341.5690729166672,
      "v": 88
    },
    {
      "midi": 64,
      "hit": false,
      "t": 72899.56107291648,
      "d": 341.5690729166672,
      "v": 87
    },
    {
      "midi": 55,
      "hit": false,
      "t": 73248.39757291648,
      "d": 341.5690729166672,
      "v": 88
    },
    {
      "midi": 59,
      "hit": false,
      "t": 73248.39757291648,
      "d": 341.5690729166672,
      "v": 88
    },
    {
      "midi": 64,
      "hit": false,
      "t": 73248.39757291648,
      "d": 341.5690729166672,
      "v": 87
    },
    {
      "midi": 64,
      "hit": false,
      "t": 73597.23407291649,
      "d": 145.34854166666628,
      "v": 86
    },
    {
      "midi": 55,
      "hit": false,
      "t": 73597.23407291649,
      "d": 167.15082291666477,
      "v": 87
    },
    {
      "midi": 59,
      "hit": false,
      "t": 73597.23407291649,
      "d": 167.15082291666477,
      "v": 87
    },
    {
      "midi": 59,
      "hit": false,
      "t": 73771.65232291649,
      "d": 341.5690729166672,
      "v": 87
    },
    {
      "midi": 64,
      "hit": false,
      "t": 73771.65232291649,
      "d": 341.5690729166672,
      "v": 87
    },
    {
      "midi": 55,
      "hit": false,
      "t": 73771.65232291649,
      "d": 356.10392708334257,
      "v": 87
    },
    {
      "midi": 59,
      "hit": false,
      "t": 74120.4888229165,
      "d": 167.15082291667932,
      "v": 87
    },
    {
      "midi": 64,
      "hit": false,
      "t": 74120.4888229165,
      "d": 174.418250000017,
      "v": 87
    },
    {
      "midi": 55,
      "hit": false,
      "t": 74135.02367708317,
      "d": 864.8238229166891,
      "v": 87
    },
    {
      "midi": 59,
      "hit": false,
      "t": 74294.90707291651,
      "d": 341.5690729166672,
      "v": 87
    },
    {
      "midi": 64,
      "hit": false,
      "t": 74302.17449999985,
      "d": 341.5690729166672,
      "v": 87
    },
    {
      "midi": 59,
      "hit": false,
      "t": 74643.74357291652,
      "d": 181.68567708334012,
      "v": 87
    },
    {
      "midi": 64,
      "hit": false,
      "t": 74651.01099999985,
      "d": 159.88339583332709,
      "v": 87
    },
    {
      "midi": 64,
      "hit": false,
      "t": 74818.16182291652,
      "d": 181.68567708334012,
      "v": 85
    },
    {
      "midi": 59,
      "hit": false,
      "t": 74832.6966770832,
      "d": 167.15082291666477,
      "v": 86
    },
    {
      "midi": 55,
      "hit": false,
      "t": 75007.1149270832,
      "d": 334.30164583332953,
      "v": 88
    },
    {
      "midi": 64,
      "hit": false,
      "t": 75007.1149270832,
      "d": 334.30164583332953,
      "v": 86
    },
    {
      "midi": 59,
      "hit": false,
      "t": 75007.1149270832,
      "d": 341.5690729166672,
      "v": 88
    },
    {
      "midi": 55,
      "hit": false,
      "t": 75348.68399999986,
      "d": 348.8365000000049,
      "v": 87
    },
    {
      "midi": 64,
      "hit": false,
      "t": 75348.68399999986,
      "d": 356.10392708334257,
      "v": 84
    },
    {
      "midi": 59,
      "hit": false,
      "t": 75355.9514270832,
      "d": 348.8365000000049,
      "v": 88
    },
    {
      "midi": 55,
      "hit": false,
      "t": 75704.7879270832,
      "d": 334.3016458333441,
      "v": 87
    },
    {
      "midi": 59,
      "hit": false,
      "t": 75712.05535416654,
      "d": 319.7667916666687,
      "v": 87
    },
    {
      "midi": 64,
      "hit": false,
      "t": 75712.05535416654,
      "d": 327.0342187500064,
      "v": 85
    },
    {
      "midi": 59,
      "hit": false,
      "t": 76039.08957291655,
      "d": 348.8365000000049,
      "v": 87
    },
    {
      "midi": 55,
      "hit": false,
      "t": 76046.35699999989,
      "d": 341.5690729166672,
      "v": 87
    },
    {
      "midi": 64,
      "hit": false,
      "t": 76046.35699999989,
      "d": 341.5690729166672,
      "v": 84
    },
    {
      "midi": 64,
      "hit": false,
      "t": 76395.19349999989,
      "d": 152.61596875000396,
      "v": 84
    },
    {
      "midi": 59,
      "hit": false,
      "t": 76395.19349999989,
      "d": 159.88339583334164,
      "v": 85
    },
    {
      "midi": 55,
      "hit": false,
      "t": 76395.19349999989,
      "d": 167.15082291667932,
      "v": 85
    },
    {
      "midi": 64,
      "hit": false,
      "t": 76555.07689583323,
      "d": 341.56907291668176,
      "v": 87
    },
    {
      "midi": 59,
      "hit": false,
      "t": 76562.34432291657,
      "d": 341.56907291668176,
      "v": 87
    },
    {
      "midi": 55,
      "hit": false,
      "t": 76569.61174999991,
      "d": 348.83650000001944,
      "v": 87
    },
    {
      "midi": 64,
      "hit": false,
      "t": 76903.91339583325,
      "d": 188.95310416669236,
      "v": 86
    },
    {
      "midi": 59,
      "hit": false,
      "t": 76911.18082291659,
      "d": 174.418250000017,
      "v": 86
    },
    {
      "midi": 55,
      "hit": false,
      "t": 76925.71567708327,
      "d": 152.61596875000396,
      "v": 85
    },
    {
      "midi": 55,
      "hit": false,
      "t": 77085.59907291661,
      "d": 341.56907291668176,
      "v": 87
    },
    {
      "midi": 59,
      "hit": false,
      "t": 77092.86649999995,
      "d": 508.7198958333465,
      "v": 87
    },
    {
      "midi": 64,
      "hit": false,
      "t": 77100.13392708328,
      "d": 494.18504166667117,
      "v": 87
    },
    {
      "midi": 55,
      "hit": false,
      "t": 77434.43557291663,
      "d": 341.5690729166672,
      "v": 85
    },
    {
      "midi": 64,
      "hit": false,
      "t": 77601.58639583329,
      "d": 181.68567708334012,
      "v": 86
    },
    {
      "midi": 59,
      "hit": false,
      "t": 77608.85382291663,
      "d": 515.9873229166842,
      "v": 86
    },
    {
      "midi": 55,
      "hit": false,
      "t": 77783.27207291663,
      "d": 334.3016458333441,
      "v": 88
    },
    {
      "midi": 64,
      "hit": false,
      "t": 77790.53949999997,
      "d": 341.56907291668176,
      "v": 86
    },
    {
      "midi": 55,
      "hit": false,
      "t": 78124.84114583331,
      "d": 697.6730000000243,
      "v": 88
    },
    {
      "midi": 59,
      "hit": false,
      "t": 78132.10857291665,
      "d": 334.3016458333441,
      "v": 87
    },
    {
      "midi": 64,
      "hit": false,
      "t": 78139.37599999999,
      "d": 334.3016458333441,
      "v": 87
    },
    {
      "midi": 59,
      "hit": false,
      "t": 78473.67764583333,
      "d": 348.8365000000049,
      "v": 86
    },
    {
      "midi": 64,
      "hit": false,
      "t": 78480.94507291667,
      "d": 341.5690729166672,
      "v": 87
    },
    {
      "midi": 55,
      "hit": false,
      "t": 78829.78157291668,
      "d": 341.5690729166672,
      "v": 87
    },
    {
      "midi": 64,
      "hit": false,
      "t": 78829.78157291668,
      "d": 341.5690729166672,
      "v": 85
    },
    {
      "midi": 59,
      "hit": false,
      "t": 78829.78157291668,
      "d": 348.8365000000049,
      "v": 87
    },
    {
      "midi": 64,
      "hit": false,
      "t": 79178.61807291668,
      "d": 167.15082291666477,
      "v": 84
    },
    {
      "midi": 55,
      "hit": false,
      "t": 79178.61807291668,
      "d": 1039.2420729166915,
      "v": 87
    },
    {
      "midi": 59,
      "hit": false,
      "t": 79185.88550000002,
      "d": 167.15082291666477,
      "v": 86
    },
    {
      "midi": 64,
      "hit": false,
      "t": 79353.03632291668,
      "d": 341.5690729166672,
      "v": 86
    },
    {
      "midi": 59,
      "hit": false,
      "t": 79360.30375000002,
      "d": 334.30164583332953,
      "v": 87
    },
    {
      "midi": 64,
      "hit": false,
      "t": 79701.87282291669,
      "d": 181.68567708334012,
      "v": 87
    },
    {
      "midi": 59,
      "hit": false,
      "t": 79701.87282291669,
      "d": 697.6730000000389,
      "v": 87
    },
    {
      "midi": 64,
      "hit": false,
      "t": 79890.82592708337,
      "d": 341.56907291668176,
      "v": 87
    },
    {
      "midi": 55,
      "hit": false,
      "t": 80225.12757291671,
      "d": 356.1039270833571,
      "v": 87
    },
    {
      "midi": 64,
      "hit": false,
      "t": 80239.66242708339,
      "d": 152.61596875000396,
      "v": 86
    },
    {
      "midi": 64,
      "hit": false,
      "t": 80399.54582291673,
      "d": 181.68567708334012,
      "v": 85
    },
    {
      "midi": 59,
      "hit": false,
      "t": 80406.81325000006,
      "d": 174.41825000000244,
      "v": 86
    },
    {
      "midi": 55,
      "hit": false,
      "t": 80588.4989270834,
      "d": 312.49936458333104,
      "v": 84
    },
    {
      "midi": 59,
      "hit": false,
      "t": 80588.4989270834,
      "d": 312.49936458333104,
      "v": 83
    },
    {
      "midi": 64,
      "hit": false,
      "t": 80588.4989270834,
      "d": 312.49936458333104,
      "v": 86
    },
    {
      "midi": 55,
      "hit": false,
      "t": 80908.26571875007,
      "d": 356.103927083328,
      "v": 88
    },
    {
      "midi": 59,
      "hit": false,
      "t": 80915.53314583341,
      "d": 348.83649999999034,
      "v": 88
    },
    {
      "midi": 64,
      "hit": false,
      "t": 80930.06800000007,
      "d": 334.30164583332953,
      "v": 88
    },
    {
      "midi": 55,
      "hit": false,
      "t": 81271.63707291674,
      "d": 341.5690729166672,
      "v": 87
    },
    {
      "midi": 59,
      "hit": false,
      "t": 81271.63707291674,
      "d": 348.8365000000049,
      "v": 86
    },
    {
      "midi": 64,
      "hit": false,
      "t": 81271.63707291674,
      "d": 348.8365000000049,
      "v": 84
    },
    {
      "midi": 55,
      "hit": false,
      "t": 81620.47357291674,
      "d": 341.5690729166672,
      "v": 87
    },
    {
      "midi": 59,
      "hit": false,
      "t": 81627.74100000008,
      "d": 341.5690729166672,
      "v": 87
    },
    {
      "midi": 64,
      "hit": false,
      "t": 81627.74100000008,
      "d": 348.8365000000049,
      "v": 87
    },
    {
      "midi": 55,
      "hit": false,
      "t": 81969.31007291675,
      "d": 523.2547500000219,
      "v": 87
    },
    {
      "midi": 59,
      "hit": false,
      "t": 81976.57750000009,
      "d": 159.88339583334164,
      "v": 87
    },
    {
      "midi": 64,
      "hit": false,
      "t": 81983.84492708342,
      "d": 152.61596875000396,
      "v": 87
    },
    {
      "midi": 59,
      "hit": false,
      "t": 82143.72832291677,
      "d": 341.5690729166672,
      "v": 87
    },
    {
      "midi": 64,
      "hit": false,
      "t": 82143.72832291677,
      "d": 341.5690729166672,
      "v": 87
    },
    {
      "midi": 64,
      "hit": false,
      "t": 82492.56482291677,
      "d": 167.15082291667932,
      "v": 87
    },
    {
      "midi": 59,
      "hit": false,
      "t": 82492.56482291677,
      "d": 690.4055729166867,
      "v": 86
    },
    {
      "midi": 55,
      "hit": false,
      "t": 82499.83225000011,
      "d": 152.61596875000396,
      "v": 86
    },
    {
      "midi": 55,
      "hit": false,
      "t": 82666.98307291679,
      "d": 341.5690729166672,
      "v": 87
    },
    {
      "midi": 64,
      "hit": false,
      "t": 82666.98307291679,
      "d": 515.9873229166697,
      "v": 84
    },
    {
      "midi": 55,
      "hit": false,
      "t": 83015.8195729168,
      "d": 167.15082291666477,
      "v": 84
    },
    {
      "midi": 55,
      "hit": false,
      "t": 83190.2378229168,
      "d": 167.15082291666477,
      "v": 87
    },
    {
      "midi": 64,
      "hit": false,
      "t": 83190.2378229168,
      "d": 167.15082291666477,
      "v": 87
    },
    {
      "midi": 59,
      "hit": false,
      "t": 83190.2378229168,
      "d": 508.719895833332,
      "v": 88
    },
    {
      "midi": 55,
      "hit": false,
      "t": 83364.6560729168,
      "d": 334.30164583332953,
      "v": 88
    },
    {
      "midi": 64,
      "hit": false,
      "t": 83364.6560729168,
      "d": 341.5690729166672,
      "v": 87
    },
    {
      "midi": 55,
      "hit": false,
      "t": 83706.22514583346,
      "d": 348.8365000000049,
      "v": 87
    },
    {
      "midi": 59,
      "hit": false,
      "t": 83706.22514583346,
      "d": 348.8365000000049,
      "v": 87
    },
    {
      "midi": 64,
      "hit": false,
      "t": 83713.4925729168,
      "d": 341.5690729166672,
      "v": 87
    },
    {
      "midi": 55,
      "hit": false,
      "t": 84062.32907291681,
      "d": 341.5690729166672,
      "v": 87
    },
    {
      "midi": 59,
      "hit": false,
      "t": 84062.32907291681,
      "d": 341.5690729166672,
      "v": 88
    },
    {
      "midi": 64,
      "hit": false,
      "t": 84062.32907291681,
      "d": 341.5690729166672,
      "v": 87
    },
    {
      "midi": 55,
      "hit": false,
      "t": 84411.16557291681,
      "d": 341.5690729166672,
      "v": 88
    },
    {
      "midi": 59,
      "hit": false,
      "t": 84411.16557291681,
      "d": 341.5690729166672,
      "v": 88
    },
    {
      "midi": 64,
      "hit": false,
      "t": 84411.16557291681,
      "d": 341.5690729166672,
      "v": 87
    },
    {
      "midi": 64,
      "hit": false,
      "t": 84760.00207291682,
      "d": 145.34854166666628,
      "v": 86
    },
    {
      "midi": 55,
      "hit": false,
      "t": 84760.00207291682,
      "d": 167.15082291666477,
      "v": 87
    },
    {
      "midi": 59,
      "hit": false,
      "t": 84760.00207291682,
      "d": 167.15082291666477,
      "v": 87
    },
    {
      "midi": 59,
      "hit": false,
      "t": 84934.42032291682,
      "d": 341.5690729166672,
      "v": 87
    },
    {
      "midi": 64,
      "hit": false,
      "t": 84934.42032291682,
      "d": 341.5690729166672,
      "v": 87
    },
    {
      "midi": 55,
      "hit": false,
      "t": 84934.42032291682,
      "d": 356.10392708334257,
      "v": 87
    },
    {
      "midi": 59,
      "hit": false,
      "t": 85283.25682291682,
      "d": 167.15082291667932,
      "v": 87
    },
    {
      "midi": 64,
      "hit": false,
      "t": 85283.25682291682,
      "d": 174.418250000017,
      "v": 87
    },
    {
      "midi": 55,
      "hit": false,
      "t": 85297.7916770835,
      "d": 864.8238229166891,
      "v": 87
    },
    {
      "midi": 59,
      "hit": false,
      "t": 85457.67507291684,
      "d": 341.5690729166672,
      "v": 87
    },
    {
      "midi": 64,
      "hit": false,
      "t": 85464.94250000018,
      "d": 341.5690729166672,
      "v": 87
    },
    {
      "midi": 59,
      "hit": false,
      "t": 85806.51157291685,
      "d": 181.68567708334012,
      "v": 87
    },
    {
      "midi": 64,
      "hit": false,
      "t": 85813.77900000018,
      "d": 159.88339583332709,
      "v": 87
    },
    {
      "midi": 64,
      "hit": false,
      "t": 85980.92982291685,
      "d": 181.68567708334012,
      "v": 85
    },
    {
      "midi": 59,
      "hit": false,
      "t": 85995.46467708352,
      "d": 167.15082291666477,
      "v": 86
    },
    {
      "midi": 55,
      "hit": false,
      "t": 86169.88292708353,
      "d": 334.30164583332953,
      "v": 88
    },
    {
      "midi": 64,
      "hit": false,
      "t": 86169.88292708353,
      "d": 334.30164583332953,
      "v": 86
    },
    {
      "midi": 59,
      "hit": false,
      "t": 86169.88292708353,
      "d": 341.5690729166672,
      "v": 88
    },
    {
      "midi": 55,
      "hit": false,
      "t": 86511.4520000002,
      "d": 348.8365000000049,
      "v": 87
    },
    {
      "midi": 64,
      "hit": false,
      "t": 86511.4520000002,
      "d": 356.10392708334257,
      "v": 84
    },
    {
      "midi": 59,
      "hit": false,
      "t": 86518.71942708353,
      "d": 348.8365000000049,
      "v": 88
    },
    {
      "midi": 55,
      "hit": false,
      "t": 86867.55592708354,
      "d": 334.3016458333441,
      "v": 87
    },
    {
      "midi": 59,
      "hit": false,
      "t": 86874.82335416687,
      "d": 319.7667916666687,
      "v": 87
    },
    {
      "midi": 64,
      "hit": false,
      "t": 86874.82335416687,
      "d": 327.0342187500064,
      "v": 85
    },
    {
      "midi": 59,
      "hit": false,
      "t": 87201.85757291688,
      "d": 348.8365000000049,
      "v": 87
    },
    {
      "midi": 55,
      "hit": false,
      "t": 87209.12500000022,
      "d": 341.5690729166672,
      "v": 87
    },
    {
      "midi": 64,
      "hit": false,
      "t": 87209.12500000022,
      "d": 341.5690729166672,
      "v": 84
    },
    {
      "midi": 64,
      "hit": false,
      "t": 87557.96150000022,
      "d": 152.61596875000396,
      "v": 84
    },
    {
      "midi": 59,
      "hit": false,
      "t": 87557.96150000022,
      "d": 159.88339583334164,
      "v": 85
    },
    {
      "midi": 55,
      "hit": false,
      "t": 87557.96150000022,
      "d": 167.15082291667932,
      "v": 85
    },
    {
      "midi": 64,
      "hit": false,
      "t": 87717.84489583356,
      "d": 341.56907291668176,
      "v": 87
    },
    {
      "midi": 59,
      "hit": false,
      "t": 87725.1123229169,
      "d": 341.56907291668176,
      "v": 87
    },
    {
      "midi": 55,
      "hit": false,
      "t": 87732.37975000024,
      "d": 348.83650000001944,
      "v": 87
    },
    {
      "midi": 64,
      "hit": false,
      "t": 88066.68139583358,
      "d": 188.95310416669236,
      "v": 86
    },
    {
      "midi": 59,
      "hit": false,
      "t": 88073.94882291692,
      "d": 174.418250000017,
      "v": 86
    },
    {
      "midi": 55,
      "hit": false,
      "t": 88088.4836770836,
      "d": 152.61596875000396,
      "v": 85
    },
    {
      "midi": 55,
      "hit": false,
      "t": 88248.36707291694,
      "d": 341.56907291668176,
      "v": 87
    },
    {
      "midi": 59,
      "hit": false,
      "t": 88255.63450000028,
      "d": 508.7198958333465,
      "v": 87
    },
    {
      "midi": 64,
      "hit": false,
      "t": 88262.90192708361,
      "d": 494.18504166667117,
      "v": 87
    },
    {
      "midi": 55,
      "hit": false,
      "t": 88597.20357291696,
      "d": 341.5690729166672,
      "v": 85
    },
    {
      "midi": 64,
      "hit": false,
      "t": 88764.35439583362,
      "d": 181.68567708334012,
      "v": 86
    },
    {
      "midi": 59,
      "hit": false,
      "t": 88771.62182291696,
      "d": 515.9873229166842,
      "v": 86
    },
    {
      "midi": 55,
      "hit": false,
      "t": 88946.04007291696,
      "d": 334.3016458333441,
      "v": 88
    },
    {
      "midi": 64,
      "hit": false,
      "t": 88953.3075000003,
      "d": 341.56907291668176,
      "v": 86
    },
    {
      "midi": 55,
      "hit": false,
      "t": 89287.60914583365,
      "d": 697.6730000000243,
      "v": 88
    },
    {
      "midi": 59,
      "hit": false,
      "t": 89294.87657291698,
      "d": 334.3016458333441,
      "v": 87
    },
    {
      "midi": 64,
      "hit": false,
      "t": 89302.14400000032,
      "d": 334.3016458333441,
      "v": 87
    },
    {
      "midi": 59,
      "hit": false,
      "t": 89636.44564583366,
      "d": 348.8365000000049,
      "v": 86
    },
    {
      "midi": 64,
      "hit": false,
      "t": 89643.713072917,
      "d": 341.5690729166672,
      "v": 87
    },
    {
      "midi": 55,
      "hit": false,
      "t": 89992.549572917,
      "d": 341.5690729166672,
      "v": 87
    },
    {
      "midi": 64,
      "hit": false,
      "t": 89992.549572917,
      "d": 341.5690729166672,
      "v": 85
    },
    {
      "midi": 59,
      "hit": false,
      "t": 89992.549572917,
      "d": 348.8365000000049,
      "v": 87
    },
    {
      "midi": 64,
      "hit": false,
      "t": 90341.38607291701,
      "d": 167.15082291666477,
      "v": 84
    },
    {
      "midi": 55,
      "hit": false,
      "t": 90341.38607291701,
      "d": 1039.2420729166915,
      "v": 87
    },
    {
      "midi": 59,
      "hit": false,
      "t": 90348.65350000035,
      "d": 167.15082291666477,
      "v": 86
    },
    {
      "midi": 64,
      "hit": false,
      "t": 90515.80432291701,
      "d": 341.5690729166672,
      "v": 86
    },
    {
      "midi": 59,
      "hit": false,
      "t": 90523.07175000035,
      "d": 334.30164583332953,
      "v": 87
    },
    {
      "midi": 64,
      "hit": false,
      "t": 90864.64082291702,
      "d": 181.68567708334012,
      "v": 87
    },
    {
      "midi": 59,
      "hit": false,
      "t": 90864.64082291702,
      "d": 697.6730000000389,
      "v": 87
    },
    {
      "midi": 64,
      "hit": false,
      "t": 91053.5939270837,
      "d": 341.56907291668176,
      "v": 87
    },
    {
      "midi": 55,
      "hit": false,
      "t": 91387.89557291704,
      "d": 356.1039270833571,
      "v": 87
    },
    {
      "midi": 64,
      "hit": false,
      "t": 91402.43042708372,
      "d": 152.61596875000396,
      "v": 86
    },
    {
      "midi": 64,
      "hit": false,
      "t": 91562.31382291706,
      "d": 181.68567708334012,
      "v": 85
    },
    {
      "midi": 59,
      "hit": false,
      "t": 91569.5812500004,
      "d": 174.41825000000244,
      "v": 86
    },
    {
      "midi": 55,
      "hit": false,
      "t": 91751.26692708374,
      "d": 312.49936458333104,
      "v": 84
    },
    {
      "midi": 59,
      "hit": false,
      "t": 91751.26692708374,
      "d": 312.49936458333104,
      "v": 83
    },
    {
      "midi": 64,
      "hit": false,
      "t": 91751.26692708374,
      "d": 312.49936458333104,
      "v": 86
    },
    {
      "midi": 55,
      "hit": false,
      "t": 125559.33771875041,
      "d": 356.103927083328,
      "v": 88
    },
    {
      "midi": 59,
      "hit": false,
      "t": 125566.60514583375,
      "d": 348.83649999999034,
      "v": 88
    },
    {
      "midi": 64,
      "hit": false,
      "t": 125581.1400000004,
      "d": 334.30164583332953,
      "v": 88
    },
    {
      "midi": 55,
      "hit": false,
      "t": 125922.70907291707,
      "d": 341.5690729166672,
      "v": 87
    },
    {
      "midi": 59,
      "hit": false,
      "t": 125922.70907291707,
      "d": 348.8365000000049,
      "v": 86
    },
    {
      "midi": 64,
      "hit": false,
      "t": 125922.70907291707,
      "d": 348.8365000000049,
      "v": 84
    },
    {
      "midi": 55,
      "hit": false,
      "t": 126271.54557291708,
      "d": 341.5690729166672,
      "v": 87
    },
    {
      "midi": 59,
      "hit": false,
      "t": 126278.81300000042,
      "d": 341.5690729166672,
      "v": 87
    },
    {
      "midi": 64,
      "hit": false,
      "t": 126278.81300000042,
      "d": 348.8365000000049,
      "v": 87
    },
    {
      "midi": 55,
      "hit": false,
      "t": 126620.38207291708,
      "d": 523.2547500000219,
      "v": 87
    },
    {
      "midi": 59,
      "hit": false,
      "t": 126627.64950000042,
      "d": 159.88339583334164,
      "v": 87
    },
    {
      "midi": 64,
      "hit": false,
      "t": 126634.91692708376,
      "d": 152.61596875000396,
      "v": 87
    },
    {
      "midi": 59,
      "hit": false,
      "t": 126794.8003229171,
      "d": 341.5690729166672,
      "v": 87
    },
    {
      "midi": 64,
      "hit": false,
      "t": 126794.8003229171,
      "d": 341.5690729166672,
      "v": 87
    },
    {
      "midi": 64,
      "hit": false,
      "t": 127143.6368229171,
      "d": 167.15082291667932,
      "v": 87
    },
    {
      "midi": 59,
      "hit": false,
      "t": 127143.6368229171,
      "d": 690.4055729166867,
      "v": 86
    },
    {
      "midi": 55,
      "hit": false,
      "t": 127150.90425000044,
      "d": 152.61596875000396,
      "v": 86
    },
    {
      "midi": 55,
      "hit": false,
      "t": 127318.05507291712,
      "d": 341.5690729166672,
      "v": 87
    },
    {
      "midi": 64,
      "hit": false,
      "t": 127318.05507291712,
      "d": 515.9873229166697,
      "v": 84
    },
    {
      "midi": 55,
      "hit": false,
      "t": 127666.89157291713,
      "d": 167.15082291666477,
      "v": 84
    },
    {
      "midi": 55,
      "hit": false,
      "t": 127841.30982291713,
      "d": 167.15082291666477,
      "v": 87
    },
    {
      "midi": 64,
      "hit": false,
      "t": 127841.30982291713,
      "d": 167.15082291666477,
      "v": 87
    },
    {
      "midi": 59,
      "hit": false,
      "t": 127841.30982291713,
      "d": 508.719895833332,
      "v": 88
    },
    {
      "midi": 55,
      "hit": false,
      "t": 128015.72807291713,
      "d": 334.30164583332953,
      "v": 88
    },
    {
      "midi": 64,
      "hit": false,
      "t": 128015.72807291713,
      "d": 341.5690729166672,
      "v": 87
    },
    {
      "midi": 55,
      "hit": false,
      "t": 128357.2971458338,
      "d": 348.8365000000049,
      "v": 87
    },
    {
      "midi": 59,
      "hit": false,
      "t": 128357.2971458338,
      "d": 348.8365000000049,
      "v": 87
    },
    {
      "midi": 64,
      "hit": false,
      "t": 128364.56457291714,
      "d": 341.5690729166672,
      "v": 87
    },
    {
      "midi": 55,
      "hit": false,
      "t": 128713.40107291714,
      "d": 341.5690729166672,
      "v": 87
    },
    {
      "midi": 59,
      "hit": false,
      "t": 128713.40107291714,
      "d": 341.5690729166672,
      "v": 88
    },
    {
      "midi": 64,
      "hit": false,
      "t": 128713.40107291714,
      "d": 341.5690729166672,
      "v": 87
    },
    {
      "midi": 55,
      "hit": false,
      "t": 129062.23757291715,
      "d": 341.5690729166672,
      "v": 88
    },
    {
      "midi": 59,
      "hit": false,
      "t": 129062.23757291715,
      "d": 341.5690729166672,
      "v": 88
    },
    {
      "midi": 64,
      "hit": false,
      "t": 129062.23757291715,
      "d": 341.5690729166672,
      "v": 87
    },
    {
      "midi": 64,
      "hit": false,
      "t": 129411.07407291715,
      "d": 145.34854166666628,
      "v": 86
    },
    {
      "midi": 55,
      "hit": false,
      "t": 129411.07407291715,
      "d": 167.15082291666477,
      "v": 87
    },
    {
      "midi": 59,
      "hit": false,
      "t": 129411.07407291715,
      "d": 167.15082291666477,
      "v": 87
    },
    {
      "midi": 59,
      "hit": false,
      "t": 129585.49232291715,
      "d": 341.5690729166672,
      "v": 87
    },
    {
      "midi": 64,
      "hit": false,
      "t": 129585.49232291715,
      "d": 341.5690729166672,
      "v": 87
    },
    {
      "midi": 55,
      "hit": false,
      "t": 129585.49232291715,
      "d": 356.10392708334257,
      "v": 87
    },
    {
      "midi": 59,
      "hit": false,
      "t": 129934.32882291716,
      "d": 167.15082291667932,
      "v": 87
    },
    {
      "midi": 64,
      "hit": false,
      "t": 129934.32882291716,
      "d": 174.418250000017,
      "v": 87
    },
    {
      "midi": 55,
      "hit": false,
      "t": 129948.86367708383,
      "d": 864.8238229166891,
      "v": 87
    },
    {
      "midi": 59,
      "hit": false,
      "t": 130108.74707291718,
      "d": 341.5690729166672,
      "v": 87
    },
    {
      "midi": 64,
      "hit": false,
      "t": 130116.01450000051,
      "d": 341.5690729166672,
      "v": 87
    },
    {
      "midi": 59,
      "hit": false,
      "t": 130457.58357291718,
      "d": 181.68567708334012,
      "v": 87
    },
    {
      "midi": 64,
      "hit": false,
      "t": 130464.85100000052,
      "d": 159.88339583332709,
      "v": 87
    },
    {
      "midi": 64,
      "hit": false,
      "t": 130632.00182291718,
      "d": 181.68567708334012,
      "v": 85
    },
    {
      "midi": 59,
      "hit": false,
      "t": 130646.53667708386,
      "d": 167.15082291666477,
      "v": 86
    },
    {
      "midi": 55,
      "hit": false,
      "t": 130820.95492708386,
      "d": 334.30164583332953,
      "v": 88
    },
    {
      "midi": 64,
      "hit": false,
      "t": 130820.95492708386,
      "d": 334.30164583332953,
      "v": 86
    },
    {
      "midi": 59,
      "hit": false,
      "t": 130820.95492708386,
      "d": 341.5690729166672,
      "v": 88
    },
    {
      "midi": 55,
      "hit": false,
      "t": 131162.52400000053,
      "d": 348.8365000000049,
      "v": 87
    },
    {
      "midi": 64,
      "hit": false,
      "t": 131162.52400000053,
      "d": 356.10392708334257,
      "v": 84
    },
    {
      "midi": 59,
      "hit": false,
      "t": 131169.79142708387,
      "d": 348.8365000000049,
      "v": 88
    },
    {
      "midi": 55,
      "hit": false,
      "t": 131518.62792708387,
      "d": 334.30164583332953,
      "v": 87
    },
    {
      "midi": 59,
      "hit": false,
      "t": 131525.8953541672,
      "d": 319.76679166665417,
      "v": 87
    },
    {
      "midi": 64,
      "hit": false,
      "t": 131525.8953541672,
      "d": 327.03421874999185,
      "v": 85
    },
    {
      "midi": 59,
      "hit": false,
      "t": 131852.9295729172,
      "d": 348.8365000000049,
      "v": 87
    },
    {
      "midi": 55,
      "hit": false,
      "t": 131860.19700000054,
      "d": 341.5690729166672,
      "v": 87
    },
    {
      "midi": 64,
      "hit": false,
      "t": 131860.19700000054,
      "d": 341.5690729166672,
      "v": 84
    },
    {
      "midi": 64,
      "hit": false,
      "t": 132209.03350000054,
      "d": 152.61596875000396,
      "v": 84
    },
    {
      "midi": 59,
      "hit": false,
      "t": 132209.03350000054,
      "d": 159.88339583334164,
      "v": 85
    },
    {
      "midi": 55,
      "hit": false,
      "t": 132209.03350000054,
      "d": 167.15082291667932,
      "v": 85
    },
    {
      "midi": 64,
      "hit": false,
      "t": 132368.91689583389,
      "d": 341.5690729166672,
      "v": 87
    },
    {
      "midi": 59,
      "hit": false,
      "t": 132376.18432291722,
      "d": 341.5690729166672,
      "v": 87
    },
    {
      "midi": 55,
      "hit": false,
      "t": 132383.45175000056,
      "d": 348.8365000000049,
      "v": 87
    },
    {
      "midi": 64,
      "hit": false,
      "t": 132717.7533958339,
      "d": 188.95310416669236,
      "v": 86
    },
    {
      "midi": 59,
      "hit": false,
      "t": 132725.02082291723,
      "d": 174.418250000017,
      "v": 86
    },
    {
      "midi": 55,
      "hit": false,
      "t": 132739.5556770839,
      "d": 152.61596875000396,
      "v": 85
    },
    {
      "midi": 55,
      "hit": false,
      "t": 132899.43907291724,
      "d": 341.5690729166672,
      "v": 87
    },
    {
      "midi": 59,
      "hit": false,
      "t": 132906.70650000058,
      "d": 508.7198958333465,
      "v": 87
    },
    {
      "midi": 64,
      "hit": false,
      "t": 132913.97392708392,
      "d": 494.18504166667117,
      "v": 87
    },
    {
      "midi": 55,
      "hit": false,
      "t": 133248.27557291725,
      "d": 341.5690729166963,
      "v": 85
    },
    {
      "midi": 64,
      "hit": false,
      "t": 133415.42639583393,
      "d": 181.68567708335468,
      "v": 86
    },
    {
      "midi": 59,
      "hit": false,
      "t": 133422.69382291727,
      "d": 515.9873229166842,
      "v": 86
    },
    {
      "midi": 55,
      "hit": false,
      "t": 133597.11207291728,
      "d": 334.30164583332953,
      "v": 88
    },
    {
      "midi": 64,
      "hit": false,
      "t": 133604.37950000062,
      "d": 341.5690729166672,
      "v": 86
    },
    {
      "midi": 55,
      "hit": false,
      "t": 133938.68114583395,
      "d": 697.6730000000098,
      "v": 88
    },
    {
      "midi": 59,
      "hit": false,
      "t": 133945.9485729173,
      "d": 334.30164583332953,
      "v": 87
    },
    {
      "midi": 64,
      "hit": false,
      "t": 133953.21600000063,
      "d": 334.30164583332953,
      "v": 87
    },
    {
      "midi": 59,
      "hit": false,
      "t": 134287.51764583396,
      "d": 348.8365000000049,
      "v": 86
    },
    {
      "midi": 64,
      "hit": false,
      "t": 134294.7850729173,
      "d": 341.5690729166672,
      "v": 87
    },
    {
      "midi": 55,
      "hit": false,
      "t": 134643.6215729173,
      "d": 341.5690729166672,
      "v": 87
    },
    {
      "midi": 64,
      "hit": false,
      "t": 134643.6215729173,
      "d": 341.5690729166672,
      "v": 85
    },
    {
      "midi": 59,
      "hit": false,
      "t": 134643.6215729173,
      "d": 348.8365000000049,
      "v": 87
    },
    {
      "midi": 64,
      "hit": false,
      "t": 134992.4580729173,
      "d": 167.15082291667932,
      "v": 84
    },
    {
      "midi": 55,
      "hit": false,
      "t": 134992.4580729173,
      "d": 1039.242072916677,
      "v": 87
    },
    {
      "midi": 59,
      "hit": false,
      "t": 134999.72550000064,
      "d": 167.15082291667932,
      "v": 86
    },
    {
      "midi": 64,
      "hit": false,
      "t": 135166.87632291732,
      "d": 341.5690729166672,
      "v": 86
    },
    {
      "midi": 59,
      "hit": false,
      "t": 135174.14375000066,
      "d": 334.30164583332953,
      "v": 87
    },
    {
      "midi": 64,
      "hit": false,
      "t": 135515.71282291732,
      "d": 181.68567708332557,
      "v": 87
    },
    {
      "midi": 59,
      "hit": false,
      "t": 135515.71282291732,
      "d": 697.6730000000098,
      "v": 87
    },
    {
      "midi": 64,
      "hit": false,
      "t": 135704.665927084,
      "d": 341.5690729166672,
      "v": 87
    },
    {
      "midi": 55,
      "hit": false,
      "t": 136038.96757291732,
      "d": 356.10392708334257,
      "v": 87
    },
    {
      "midi": 64,
      "hit": false,
      "t": 136053.502427084,
      "d": 152.61596875000396,
      "v": 86
    },
    {
      "midi": 64,
      "hit": false,
      "t": 136213.38582291733,
      "d": 181.68567708332557,
      "v": 85
    },
    {
      "midi": 59,
      "hit": false,
      "t": 136220.65325000067,
      "d": 174.4182499999879,
      "v": 86
    },
    {
      "midi": 55,
      "hit": false,
      "t": 136402.338927084,
      "d": 312.4993645833456,
      "v": 84
    },
    {
      "midi": 59,
      "hit": false,
      "t": 136402.338927084,
      "d": 312.4993645833456,
      "v": 83
    },
    {
      "midi": 64,
      "hit": false,
      "t": 136402.338927084,
      "d": 312.4993645833456,
      "v": 86
    },
    {
      "midi": 52,
      "hit": false,
      "t": 136707.570864584,
      "d": 370.6387812500179,
      "v": 87
    },
    {
      "midi": 55,
      "hit": false,
      "t": 136722.10571875068,
      "d": 356.10392708334257,
      "v": 88
    },
    {
      "midi": 59,
      "hit": false,
      "t": 136729.37314583402,
      "d": 348.8365000000049,
      "v": 88
    },
    {
      "midi": 64,
      "hit": false,
      "t": 136743.9080000007,
      "d": 334.30164583332953,
      "v": 88
    },
    {
      "midi": 52,
      "hit": false,
      "t": 137085.47707291736,
      "d": 268.8948020833195,
      "v": 85
    },
    {
      "midi": 55,
      "hit": false,
      "t": 137085.47707291736,
      "d": 341.5690729166672,
      "v": 87
    },
    {
      "midi": 59,
      "hit": false,
      "t": 137085.47707291736,
      "d": 348.8365000000049,
      "v": 86
    },
    {
      "midi": 64,
      "hit": false,
      "t": 137085.47707291736,
      "d": 348.8365000000049,
      "v": 84
    },
    {
      "midi": 55,
      "hit": false,
      "t": 137434.31357291737,
      "d": 341.5690729166672,
      "v": 87
    },
    {
      "midi": 59,
      "hit": false,
      "t": 137441.5810000007,
      "d": 341.5690729166672,
      "v": 87
    },
    {
      "midi": 64,
      "hit": false,
      "t": 137441.5810000007,
      "d": 348.8365000000049,
      "v": 87
    },
    {
      "midi": 52,
      "hit": false,
      "t": 137448.84842708404,
      "d": 327.03421874999185,
      "v": 85
    },
    {
      "midi": 55,
      "hit": false,
      "t": 137783.15007291737,
      "d": 523.2547500000219,
      "v": 87
    },
    {
      "midi": 52,
      "hit": false,
      "t": 137783.15007291737,
      "d": 1220.9277500000608,
      "v": 86
    },
    {
      "midi": 59,
      "hit": false,
      "t": 137790.4175000007,
      "d": 159.88339583334164,
      "v": 87
    },
    {
      "midi": 64,
      "hit": false,
      "t": 137797.68492708405,
      "d": 152.61596875000396,
      "v": 87
    },
    {
      "midi": 59,
      "hit": false,
      "t": 137957.5683229174,
      "d": 341.5690729166672,
      "v": 87
    },
    {
      "midi": 64,
      "hit": false,
      "t": 137957.5683229174,
      "d": 341.5690729166672,
      "v": 87
    },
    {
      "midi": 64,
      "hit": false,
      "t": 138306.4048229174,
      "d": 167.15082291667932,
      "v": 87
    },
    {
      "midi": 59,
      "hit": false,
      "t": 138306.4048229174,
      "d": 690.4055729167012,
      "v": 86
    },
    {
      "midi": 55,
      "hit": false,
      "t": 138313.67225000073,
      "d": 152.61596875000396,
      "v": 86
    },
    {
      "midi": 55,
      "hit": false,
      "t": 138480.8230729174,
      "d": 341.5690729166672,
      "v": 87
    },
    {
      "midi": 64,
      "hit": false,
      "t": 138480.8230729174,
      "d": 515.9873229166842,
      "v": 84
    },
    {
      "midi": 55,
      "hit": false,
      "t": 138829.65957291742,
      "d": 167.15082291667932,
      "v": 84
    },
    {
      "midi": 55,
      "hit": false,
      "t": 139004.07782291743,
      "d": 167.15082291667932,
      "v": 87
    },
    {
      "midi": 64,
      "hit": false,
      "t": 139004.07782291743,
      "d": 167.15082291667932,
      "v": 87
    },
    {
      "midi": 59,
      "hit": false,
      "t": 139004.07782291743,
      "d": 508.7198958333465,
      "v": 88
    },
    {
      "midi": 52,
      "hit": false,
      "t": 139011.34525000077,
      "d": 152.61596875000396,
      "v": 86
    },
    {
      "midi": 55,
      "hit": false,
      "t": 139178.49607291745,
      "d": 334.30164583332953,
      "v": 88
    },
    {
      "midi": 64,
      "hit": false,
      "t": 139178.49607291745,
      "d": 341.5690729166672,
      "v": 87
    },
    {
      "midi": 55,
      "hit": false,
      "t": 139520.06514583412,
      "d": 348.8365000000049,
      "v": 87
    },
    {
      "midi": 59,
      "hit": false,
      "t": 139520.06514583412,
      "d": 348.8365000000049,
      "v": 87
    },
    {
      "midi": 64,
      "hit": false,
      "t": 139527.33257291745,
      "d": 341.5690729166672,
      "v": 87
    },
    {
      "midi": 55,
      "hit": false,
      "t": 139876.16907291746,
      "d": 341.5690729166672,
      "v": 87
    },
    {
      "midi": 59,
      "hit": false,
      "t": 139876.16907291746,
      "d": 341.5690729166672,
      "v": 88
    },
    {
      "midi": 64,
      "hit": false,
      "t": 139876.16907291746,
      "d": 341.5690729166672,
      "v": 87
    },
    {
      "midi": 55,
      "hit": false,
      "t": 140225.00557291746,
      "d": 341.5690729166672,
      "v": 88
    },
    {
      "midi": 59,
      "hit": false,
      "t": 140225.00557291746,
      "d": 341.5690729166672,
      "v": 88
    },
    {
      "midi": 64,
      "hit": false,
      "t": 140225.00557291746,
      "d": 341.5690729166672,
      "v": 87
    },
    {
      "midi": 64,
      "hit": false,
      "t": 140573.84207291747,
      "d": 145.34854166666628,
      "v": 86
    },
    {
      "midi": 55,
      "hit": false,
      "t": 140573.84207291747,
      "d": 167.15082291667932,
      "v": 87
    },
    {
      "midi": 59,
      "hit": false,
      "t": 140573.84207291747,
      "d": 167.15082291667932,
      "v": 87
    },
    {
      "midi": 59,
      "hit": false,
      "t": 140748.2603229175,
      "d": 341.5690729166672,
      "v": 87
    },
    {
      "midi": 64,
      "hit": false,
      "t": 140748.2603229175,
      "d": 341.5690729166672,
      "v": 87
    },
    {
      "midi": 55,
      "hit": false,
      "t": 140748.2603229175,
      "d": 356.10392708334257,
      "v": 87
    },
    {
      "midi": 59,
      "hit": false,
      "t": 141097.0968229175,
      "d": 167.15082291667932,
      "v": 87
    },
    {
      "midi": 64,
      "hit": false,
      "t": 141097.0968229175,
      "d": 174.418250000017,
      "v": 87
    },
    {
      "midi": 55,
      "hit": false,
      "t": 141111.63167708417,
      "d": 864.8238229167182,
      "v": 87
    },
    {
      "midi": 59,
      "hit": false,
      "t": 141271.5150729175,
      "d": 341.5690729166672,
      "v": 87
    },
    {
      "midi": 64,
      "hit": false,
      "t": 141278.78250000085,
      "d": 341.5690729166672,
      "v": 87
    },
    {
      "midi": 59,
      "hit": false,
      "t": 141620.3515729175,
      "d": 181.68567708335468,
      "v": 87
    },
    {
      "midi": 64,
      "hit": false,
      "t": 141627.61900000085,
      "d": 159.88339583334164,
      "v": 87
    },
    {
      "midi": 64,
      "hit": false,
      "t": 141794.76982291753,
      "d": 181.68567708335468,
      "v": 85
    },
    {
      "midi": 59,
      "hit": false,
      "t": 141809.3046770842,
      "d": 167.15082291667932,
      "v": 86
    },
    {
      "midi": 55,
      "hit": false,
      "t": 141983.72292708422,
      "d": 334.30164583332953,
      "v": 88
    },
    {
      "midi": 64,
      "hit": false,
      "t": 141983.72292708422,
      "d": 334.30164583332953,
      "v": 86
    },
    {
      "midi": 59,
      "hit": false,
      "t": 141983.72292708422,
      "d": 341.5690729166672,
      "v": 88
    },
    {
      "midi": 55,
      "hit": false,
      "t": 142325.2920000009,
      "d": 348.8365000000049,
      "v": 87
    },
    {
      "midi": 64,
      "hit": false,
      "t": 142325.2920000009,
      "d": 356.10392708334257,
      "v": 84
    },
    {
      "midi": 59,
      "hit": false,
      "t": 142332.55942708423,
      "d": 348.8365000000049,
      "v": 88
    },
    {
      "midi": 55,
      "hit": false,
      "t": 142681.39592708423,
      "d": 334.30164583332953,
      "v": 87
    },
    {
      "midi": 59,
      "hit": false,
      "t": 142688.66335416757,
      "d": 319.76679166665417,
      "v": 87
    },
    {
      "midi": 64,
      "hit": false,
      "t": 142688.66335416757,
      "d": 327.03421874999185,
      "v": 85
    },
    {
      "midi": 59,
      "hit": false,
      "t": 143015.69757291756,
      "d": 348.8365000000049,
      "v": 87
    },
    {
      "midi": 55,
      "hit": false,
      "t": 143022.9650000009,
      "d": 341.5690729166672,
      "v": 87
    },
    {
      "midi": 64,
      "hit": false,
      "t": 143022.9650000009,
      "d": 341.5690729166672,
      "v": 84
    },
    {
      "midi": 64,
      "hit": false,
      "t": 143371.8015000009,
      "d": 152.61596875000396,
      "v": 84
    },
    {
      "midi": 59,
      "hit": false,
      "t": 143371.8015000009,
      "d": 159.88339583334164,
      "v": 85
    },
    {
      "midi": 55,
      "hit": false,
      "t": 143371.8015000009,
      "d": 167.15082291667932,
      "v": 85
    },
    {
      "midi": 64,
      "hit": false,
      "t": 143531.68489583425,
      "d": 341.5690729166672,
      "v": 87
    },
    {
      "midi": 59,
      "hit": false,
      "t": 143538.95232291758,
      "d": 341.5690729166672,
      "v": 87
    },
    {
      "midi": 55,
      "hit": false,
      "t": 143546.21975000092,
      "d": 348.8365000000049,
      "v": 87
    },
    {
      "midi": 64,
      "hit": false,
      "t": 143880.52139583425,
      "d": 188.95310416669236,
      "v": 86
    },
    {
      "midi": 59,
      "hit": false,
      "t": 143887.7888229176,
      "d": 174.418250000017,
      "v": 86
    },
    {
      "midi": 55,
      "hit": false,
      "t": 143902.32367708426,
      "d": 152.61596875000396,
      "v": 85
    },
    {
      "midi": 55,
      "hit": false,
      "t": 144062.2070729176,
      "d": 341.5690729166672,
      "v": 87
    },
    {
      "midi": 59,
      "hit": false,
      "t": 144069.47450000094,
      "d": 508.7198958333465,
      "v": 87
    },
    {
      "midi": 64,
      "hit": false,
      "t": 144076.74192708428,
      "d": 494.18504166667117,
      "v": 87
    },
    {
      "midi": 55,
      "hit": false,
      "t": 144411.0435729176,
      "d": 341.5690729166963,
      "v": 85
    },
    {
      "midi": 64,
      "hit": false,
      "t": 144578.1943958343,
      "d": 181.68567708335468,
      "v": 86
    },
    {
      "midi": 59,
      "hit": false,
      "t": 144585.46182291763,
      "d": 515.9873229166842,
      "v": 86
    },
    {
      "midi": 55,
      "hit": false,
      "t": 144759.88007291764,
      "d": 334.30164583332953,
      "v": 88
    },
    {
      "midi": 64,
      "hit": false,
      "t": 144767.14750000098,
      "d": 341.5690729166672,
      "v": 86
    },
    {
      "midi": 55,
      "hit": false,
      "t": 145101.4491458343,
      "d": 697.6730000000098,
      "v": 88
    },
    {
      "midi": 59,
      "hit": false,
      "t": 145108.71657291765,
      "d": 334.30164583332953,
      "v": 87
    },
    {
      "midi": 64,
      "hit": false,
      "t": 145115.984000001,
      "d": 334.30164583332953,
      "v": 87
    },
    {
      "midi": 59,
      "hit": false,
      "t": 145450.28564583432,
      "d": 348.8365000000049,
      "v": 86
    },
    {
      "midi": 64,
      "hit": false,
      "t": 145457.55307291765,
      "d": 341.5690729166672,
      "v": 87
    },
    {
      "midi": 55,
      "hit": false,
      "t": 145806.38957291766,
      "d": 341.5690729166672,
      "v": 87
    },
    {
      "midi": 64,
      "hit": false,
      "t": 145806.38957291766,
      "d": 341.5690729166672,
      "v": 85
    },
    {
      "midi": 59,
      "hit": false,
      "t": 145806.38957291766,
      "d": 348.8365000000049,
      "v": 87
    },
    {
      "midi": 64,
      "hit": false,
      "t": 146155.22607291766,
      "d": 167.15082291667932,
      "v": 84
    },
    {
      "midi": 55,
      "hit": false,
      "t": 146155.22607291766,
      "d": 1039.242072916677,
      "v": 87
    },
    {
      "midi": 59,
      "hit": false,
      "t": 146162.493500001,
      "d": 167.15082291667932,
      "v": 86
    },
    {
      "midi": 64,
      "hit": false,
      "t": 146329.64432291768,
      "d": 341.5690729166672,
      "v": 86
    },
    {
      "midi": 59,
      "hit": false,
      "t": 146336.91175000102,
      "d": 334.30164583332953,
      "v": 87
    },
    {
      "midi": 64,
      "hit": false,
      "t": 146678.48082291769,
      "d": 181.68567708332557,
      "v": 87
    },
    {
      "midi": 59,
      "hit": false,
      "t": 146678.48082291769,
      "d": 697.6730000000098,
      "v": 87
    },
    {
      "midi": 64,
      "hit": false,
      "t": 146867.43392708435,
      "d": 341.5690729166672,
      "v": 87
    },
    {
      "midi": 55,
      "hit": false,
      "t": 147201.73557291768,
      "d": 356.10392708334257,
      "v": 87
    },
    {
      "midi": 64,
      "hit": false,
      "t": 147216.27042708435,
      "d": 152.61596875000396,
      "v": 86
    },
    {
      "midi": 64,
      "hit": false,
      "t": 147376.1538229177,
      "d": 181.68567708332557,
      "v": 85
    },
    {
      "midi": 59,
      "hit": false,
      "t": 147383.42125000103,
      "d": 174.4182499999879,
      "v": 86
    },
    {
      "midi": 55,
      "hit": false,
      "t": 147565.10692708436,
      "d": 312.4993645833456,
      "v": 84
    },
    {
      "midi": 59,
      "hit": false,
      "t": 147565.10692708436,
      "d": 312.4993645833456,
      "v": 83
    },
    {
      "midi": 64,
      "hit": false,
      "t": 147565.10692708436,
      "d": 312.4993645833456,
      "v": 86
    },
    {
      "midi": 55,
      "hit": false,
      "t": 147884.87371875104,
      "d": 356.10392708334257,
      "v": 88
    },
    {
      "midi": 59,
      "hit": false,
      "t": 147892.14114583438,
      "d": 348.8365000000049,
      "v": 88
    },
    {
      "midi": 64,
      "hit": false,
      "t": 147906.67600000105,
      "d": 334.30164583332953,
      "v": 88
    },
    {
      "midi": 55,
      "hit": false,
      "t": 148248.24507291772,
      "d": 341.5690729166672,
      "v": 87
    },
    {
      "midi": 59,
      "hit": false,
      "t": 148248.24507291772,
      "d": 348.8365000000049,
      "v": 86
    },
    {
      "midi": 64,
      "hit": false,
      "t": 148248.24507291772,
      "d": 348.8365000000049,
      "v": 84
    },
    {
      "midi": 55,
      "hit": false,
      "t": 148597.08157291773,
      "d": 341.5690729166672,
      "v": 87
    },
    {
      "midi": 59,
      "hit": false,
      "t": 148604.34900000106,
      "d": 341.5690729166672,
      "v": 87
    },
    {
      "midi": 64,
      "hit": false,
      "t": 148604.34900000106,
      "d": 348.8365000000049,
      "v": 87
    },
    {
      "midi": 55,
      "hit": false,
      "t": 148945.91807291773,
      "d": 523.2547500000219,
      "v": 87
    },
    {
      "midi": 59,
      "hit": false,
      "t": 148953.18550000107,
      "d": 159.88339583334164,
      "v": 87
    },
    {
      "midi": 64,
      "hit": false,
      "t": 148960.4529270844,
      "d": 152.61596875000396,
      "v": 87
    },
    {
      "midi": 59,
      "hit": false,
      "t": 149120.33632291775,
      "d": 341.5690729166672,
      "v": 87
    },
    {
      "midi": 64,
      "hit": false,
      "t": 149120.33632291775,
      "d": 341.5690729166672,
      "v": 87
    },
    {
      "midi": 64,
      "hit": false,
      "t": 149469.17282291775,
      "d": 167.15082291667932,
      "v": 87
    },
    {
      "midi": 59,
      "hit": false,
      "t": 149469.17282291775,
      "d": 690.4055729167012,
      "v": 86
    },
    {
      "midi": 55,
      "hit": false,
      "t": 149476.4402500011,
      "d": 152.61596875000396,
      "v": 86
    },
    {
      "midi": 55,
      "hit": false,
      "t": 149643.59107291777,
      "d": 341.5690729166672,
      "v": 87
    },
    {
      "midi": 64,
      "hit": false,
      "t": 149643.59107291777,
      "d": 515.9873229166842,
      "v": 84
    },
    {
      "midi": 55,
      "hit": false,
      "t": 149992.42757291778,
      "d": 167.15082291667932,
      "v": 84
    },
    {
      "midi": 55,
      "hit": false,
      "t": 150166.8458229178,
      "d": 167.15082291667932,
      "v": 87
    },
    {
      "midi": 64,
      "hit": false,
      "t": 150166.8458229178,
      "d": 167.15082291667932,
      "v": 87
    },
    {
      "midi": 59,
      "hit": false,
      "t": 150166.8458229178,
      "d": 508.7198958333465,
      "v": 88
    },
    {
      "midi": 55,
      "hit": false,
      "t": 150341.2640729178,
      "d": 334.30164583332953,
      "v": 88
    },
    {
      "midi": 64,
      "hit": false,
      "t": 150341.2640729178,
      "d": 341.5690729166672,
      "v": 87
    },
    {
      "midi": 55,
      "hit": false,
      "t": 150682.83314583448,
      "d": 348.8365000000049,
      "v": 87
    },
    {
      "midi": 59,
      "hit": false,
      "t": 150682.83314583448,
      "d": 348.8365000000049,
      "v": 87
    },
    {
      "midi": 64,
      "hit": false,
      "t": 150690.1005729178,
      "d": 341.5690729166672,
      "v": 87
    },
    {
      "midi": 55,
      "hit": false,
      "t": 151038.93707291782,
      "d": 341.5690729166672,
      "v": 87
    },
    {
      "midi": 59,
      "hit": false,
      "t": 151038.93707291782,
      "d": 341.5690729166672,
      "v": 88
    },
    {
      "midi": 64,
      "hit": false,
      "t": 151038.93707291782,
      "d": 341.5690729166672,
      "v": 87
    },
    {
      "midi": 55,
      "hit": false,
      "t": 151387.77357291782,
      "d": 341.5690729166672,
      "v": 88
    },
    {
      "midi": 59,
      "hit": false,
      "t": 151387.77357291782,
      "d": 341.5690729166672,
      "v": 88
    },
    {
      "midi": 64,
      "hit": false,
      "t": 151387.77357291782,
      "d": 341.5690729166672,
      "v": 87
    },
    {
      "midi": 64,
      "hit": false,
      "t": 151736.61007291783,
      "d": 145.34854166666628,
      "v": 86
    },
    {
      "midi": 55,
      "hit": false,
      "t": 151736.61007291783,
      "d": 167.15082291667932,
      "v": 87
    },
    {
      "midi": 59,
      "hit": false,
      "t": 151736.61007291783,
      "d": 167.15082291667932,
      "v": 87
    },
    {
      "midi": 59,
      "hit": false,
      "t": 151911.02832291785,
      "d": 341.5690729166672,
      "v": 87
    },
    {
      "midi": 64,
      "hit": false,
      "t": 151911.02832291785,
      "d": 341.5690729166672,
      "v": 87
    },
    {
      "midi": 55,
      "hit": false,
      "t": 151911.02832291785,
      "d": 356.10392708334257,
      "v": 87
    },
    {
      "midi": 59,
      "hit": false,
      "t": 152259.86482291785,
      "d": 167.15082291667932,
      "v": 87
    },
    {
      "midi": 64,
      "hit": false,
      "t": 152259.86482291785,
      "d": 174.418250000017,
      "v": 87
    },
    {
      "midi": 55,
      "hit": false,
      "t": 152274.39967708453,
      "d": 864.8238229167182,
      "v": 87
    },
    {
      "midi": 59,
      "hit": false,
      "t": 152434.28307291787,
      "d": 341.5690729166672,
      "v": 87
    },
    {
      "midi": 64,
      "hit": false,
      "t": 152441.5505000012,
      "d": 341.5690729166672,
      "v": 87
    },
    {
      "midi": 59,
      "hit": false,
      "t": 152783.11957291787,
      "d": 181.68567708335468,
      "v": 87
    },
    {
      "midi": 64,
      "hit": false,
      "t": 152790.3870000012,
      "d": 159.88339583334164,
      "v": 87
    },
    {
      "midi": 64,
      "hit": false,
      "t": 152957.5378229179,
      "d": 181.68567708335468,
      "v": 85
    },
    {
      "midi": 59,
      "hit": false,
      "t": 152972.07267708456,
      "d": 167.15082291667932,
      "v": 86
    },
    {
      "midi": 55,
      "hit": false,
      "t": 153146.49092708458,
      "d": 334.30164583332953,
      "v": 88
    },
    {
      "midi": 64,
      "hit": false,
      "t": 153146.49092708458,
      "d": 334.30164583332953,
      "v": 86
    },
    {
      "midi": 59,
      "hit": false,
      "t": 153146.49092708458,
      "d": 341.5690729166672,
      "v": 88
    },
    {
      "midi": 55,
      "hit": false,
      "t": 153488.06000000125,
      "d": 348.8365000000049,
      "v": 87
    },
    {
      "midi": 64,
      "hit": false,
      "t": 153488.06000000125,
      "d": 356.10392708334257,
      "v": 84
    },
    {
      "midi": 59,
      "hit": false,
      "t": 153495.3274270846,
      "d": 348.8365000000049,
      "v": 88
    },
    {
      "midi": 55,
      "hit": false,
      "t": 153844.1639270846,
      "d": 334.30164583332953,
      "v": 87
    },
    {
      "midi": 59,
      "hit": false,
      "t": 153851.43135416793,
      "d": 319.76679166665417,
      "v": 87
    },
    {
      "midi": 64,
      "hit": false,
      "t": 153851.43135416793,
      "d": 327.03421874999185,
      "v": 85
    },
    {
      "midi": 59,
      "hit": false,
      "t": 154178.46557291792,
      "d": 348.8365000000049,
      "v": 87
    },
    {
      "midi": 55,
      "hit": false,
      "t": 154185.73300000126,
      "d": 341.5690729166672,
      "v": 87
    },
    {
      "midi": 64,
      "hit": false,
      "t": 154185.73300000126,
      "d": 341.5690729166672,
      "v": 84
    },
    {
      "midi": 64,
      "hit": false,
      "t": 154534.56950000126,
      "d": 152.61596875000396,
      "v": 84
    },
    {
      "midi": 59,
      "hit": false,
      "t": 154534.56950000126,
      "d": 159.88339583334164,
      "v": 85
    },
    {
      "midi": 55,
      "hit": false,
      "t": 154534.56950000126,
      "d": 167.15082291667932,
      "v": 85
    },
    {
      "midi": 64,
      "hit": false,
      "t": 154694.4528958346,
      "d": 341.5690729166672,
      "v": 87
    },
    {
      "midi": 59,
      "hit": false,
      "t": 154701.72032291794,
      "d": 341.5690729166672,
      "v": 87
    },
    {
      "midi": 55,
      "hit": false,
      "t": 154708.98775000128,
      "d": 348.8365000000049,
      "v": 87
    },
    {
      "midi": 64,
      "hit": false,
      "t": 155043.2893958346,
      "d": 188.95310416669236,
      "v": 86
    },
    {
      "midi": 59,
      "hit": false,
      "t": 155050.55682291795,
      "d": 174.418250000017,
      "v": 86
    },
    {
      "midi": 55,
      "hit": false,
      "t": 155065.09167708462,
      "d": 152.61596875000396,
      "v": 85
    },
    {
      "midi": 55,
      "hit": false,
      "t": 155224.97507291797,
      "d": 341.5690729166672,
      "v": 87
    },
    {
      "midi": 59,
      "hit": false,
      "t": 155232.2425000013,
      "d": 508.7198958333465,
      "v": 87
    },
    {
      "midi": 64,
      "hit": false,
      "t": 155239.50992708464,
      "d": 494.18504166667117,
      "v": 87
    },
    {
      "midi": 55,
      "hit": false,
      "t": 155573.81157291797,
      "d": 341.5690729166963,
      "v": 85
    },
    {
      "midi": 64,
      "hit": false,
      "t": 155740.96239583465,
      "d": 181.68567708335468,
      "v": 86
    },
    {
      "midi": 59,
      "hit": false,
      "t": 155748.229822918,
      "d": 515.9873229166842,
      "v": 86
    },
    {
      "midi": 55,
      "hit": false,
      "t": 155922.648072918,
      "d": 334.30164583332953,
      "v": 88
    },
    {
      "midi": 64,
      "hit": false,
      "t": 155929.91550000134,
      "d": 341.5690729166672,
      "v": 86
    },
    {
      "midi": 55,
      "hit": false,
      "t": 156264.21714583467,
      "d": 697.6730000000098,
      "v": 88
    },
    {
      "midi": 59,
      "hit": false,
      "t": 156271.484572918,
      "d": 334.30164583332953,
      "v": 87
    },
    {
      "midi": 64,
      "hit": false,
      "t": 156278.75200000135,
      "d": 334.30164583332953,
      "v": 87
    },
    {
      "midi": 59,
      "hit": false,
      "t": 156613.05364583468,
      "d": 348.8365000000049,
      "v": 86
    },
    {
      "midi": 64,
      "hit": false,
      "t": 156620.321072918,
      "d": 341.5690729166672,
      "v": 87
    },
    {
      "midi": 55,
      "hit": false,
      "t": 156969.15757291802,
      "d": 341.5690729166672,
      "v": 87
    },
    {
      "midi": 64,
      "hit": false,
      "t": 156969.15757291802,
      "d": 341.5690729166672,
      "v": 85
    },
    {
      "midi": 59,
      "hit": false,
      "t": 156969.15757291802,
      "d": 348.8365000000049,
      "v": 87
    },
    {
      "midi": 64,
      "hit": false,
      "t": 157317.99407291802,
      "d": 167.15082291667932,
      "v": 84
    },
    {
      "midi": 55,
      "hit": false,
      "t": 157317.99407291802,
      "d": 1039.242072916677,
      "v": 87
    },
    {
      "midi": 59,
      "hit": false,
      "t": 157325.26150000136,
      "d": 167.15082291667932,
      "v": 86
    },
    {
      "midi": 64,
      "hit": false,
      "t": 157492.41232291804,
      "d": 341.5690729166672,
      "v": 86
    },
    {
      "midi": 59,
      "hit": false,
      "t": 157499.67975000138,
      "d": 334.30164583332953,
      "v": 87
    },
    {
      "midi": 64,
      "hit": false,
      "t": 157841.24882291805,
      "d": 181.68567708332557,
      "v": 87
    },
    {
      "midi": 59,
      "hit": false,
      "t": 157841.24882291805,
      "d": 697.6730000000098,
      "v": 87
    },
    {
      "midi": 64,
      "hit": false,
      "t": 158030.2019270847,
      "d": 341.5690729166672,
      "v": 87
    },
    {
      "midi": 55,
      "hit": false,
      "t": 158364.50357291804,
      "d": 356.10392708334257,
      "v": 87
    },
    {
      "midi": 64,
      "hit": false,
      "t": 158379.0384270847,
      "d": 152.61596875000396,
      "v": 86
    },
    {
      "midi": 64,
      "hit": false,
      "t": 158538.92182291806,
      "d": 181.68567708332557,
      "v": 85
    },
    {
      "midi": 59,
      "hit": false,
      "t": 158546.1892500014,
      "d": 174.4182499999879,
      "v": 86
    },
    {
      "midi": 55,
      "hit": false,
      "t": 158727.87492708472,
      "d": 312.4993645833456,
      "v": 84
    },
    {
      "midi": 59,
      "hit": false,
      "t": 158727.87492708472,
      "d": 312.4993645833456,
      "v": 83
    },
    {
      "midi": 64,
      "hit": false,
      "t": 158727.87492708472,
      "d": 312.4993645833456,
      "v": 86
    },
    {
      "midi": 55,
      "hit": false,
      "t": 159047.6417187514,
      "d": 356.10392708334257,
      "v": 88
    },
    {
      "midi": 59,
      "hit": false,
      "t": 159054.90914583474,
      "d": 348.8365000000049,
      "v": 88
    },
    {
      "midi": 64,
      "hit": false,
      "t": 159069.44400000141,
      "d": 334.30164583332953,
      "v": 88
    },
    {
      "midi": 55,
      "hit": false,
      "t": 159411.01307291808,
      "d": 341.5690729166672,
      "v": 87
    },
    {
      "midi": 59,
      "hit": false,
      "t": 159411.01307291808,
      "d": 348.8365000000049,
      "v": 86
    },
    {
      "midi": 64,
      "hit": false,
      "t": 159411.01307291808,
      "d": 348.8365000000049,
      "v": 84
    },
    {
      "midi": 55,
      "hit": false,
      "t": 159759.8495729181,
      "d": 341.5690729166672,
      "v": 87
    },
    {
      "midi": 59,
      "hit": false,
      "t": 159767.11700000142,
      "d": 341.5690729166672,
      "v": 87
    },
    {
      "midi": 64,
      "hit": false,
      "t": 159767.11700000142,
      "d": 348.8365000000049,
      "v": 87
    },
    {
      "midi": 55,
      "hit": false,
      "t": 160108.6860729181,
      "d": 523.2547500000219,
      "v": 87
    },
    {
      "midi": 59,
      "hit": false,
      "t": 160115.95350000143,
      "d": 159.88339583334164,
      "v": 87
    },
    {
      "midi": 64,
      "hit": false,
      "t": 160123.22092708477,
      "d": 152.61596875000396,
      "v": 87
    },
    {
      "midi": 59,
      "hit": false,
      "t": 160283.1043229181,
      "d": 341.5690729166672,
      "v": 87
    },
    {
      "midi": 64,
      "hit": false,
      "t": 160283.1043229181,
      "d": 341.5690729166672,
      "v": 87
    },
    {
      "midi": 64,
      "hit": false,
      "t": 160631.9408229181,
      "d": 167.15082291667932,
      "v": 87
    },
    {
      "midi": 59,
      "hit": false,
      "t": 160631.9408229181,
      "d": 690.4055729167012,
      "v": 86
    },
    {
      "midi": 55,
      "hit": false,
      "t": 160639.20825000145,
      "d": 152.61596875000396,
      "v": 86
    },
    {
      "midi": 55,
      "hit": false,
      "t": 160806.35907291813,
      "d": 341.5690729166672,
      "v": 87
    },
    {
      "midi": 64,
      "hit": false,
      "t": 160806.35907291813,
      "d": 515.9873229166842,
      "v": 84
    },
    {
      "midi": 55,
      "hit": false,
      "t": 161155.19557291814,
      "d": 167.15082291667932,
      "v": 84
    },
    {
      "midi": 55,
      "hit": false,
      "t": 161329.61382291815,
      "d": 167.15082291667932,
      "v": 87
    },
    {
      "midi": 64,
      "hit": false,
      "t": 161329.61382291815,
      "d": 167.15082291667932,
      "v": 87
    },
    {
      "midi": 59,
      "hit": false,
      "t": 161329.61382291815,
      "d": 508.7198958333465,
      "v": 88
    },
    {
      "midi": 55,
      "hit": false,
      "t": 161504.03207291817,
      "d": 334.30164583332953,
      "v": 88
    },
    {
      "midi": 64,
      "hit": false,
      "t": 161504.03207291817,
      "d": 341.5690729166672,
      "v": 87
    },
    {
      "midi": 55,
      "hit": false,
      "t": 161845.60114583484,
      "d": 348.8365000000049,
      "v": 87
    },
    {
      "midi": 59,
      "hit": false,
      "t": 161845.60114583484,
      "d": 348.8365000000049,
      "v": 87
    },
    {
      "midi": 64,
      "hit": false,
      "t": 161852.86857291817,
      "d": 341.5690729166672,
      "v": 87
    },
    {
      "midi": 55,
      "hit": false,
      "t": 162201.70507291818,
      "d": 341.5690729166672,
      "v": 87
    },
    {
      "midi": 59,
      "hit": false,
      "t": 162201.70507291818,
      "d": 341.5690729166672,
      "v": 88
    },
    {
      "midi": 64,
      "hit": false,
      "t": 162201.70507291818,
      "d": 341.5690729166672,
      "v": 87
    },
    {
      "midi": 55,
      "hit": false,
      "t": 162550.54157291818,
      "d": 341.5690729166672,
      "v": 88
    },
    {
      "midi": 59,
      "hit": false,
      "t": 162550.54157291818,
      "d": 341.5690729166672,
      "v": 88
    },
    {
      "midi": 64,
      "hit": false,
      "t": 162550.54157291818,
      "d": 341.5690729166672,
      "v": 87
    },
    {
      "midi": 64,
      "hit": false,
      "t": 162899.3780729182,
      "d": 145.34854166666628,
      "v": 86
    },
    {
      "midi": 55,
      "hit": false,
      "t": 162899.3780729182,
      "d": 167.15082291667932,
      "v": 87
    },
    {
      "midi": 59,
      "hit": false,
      "t": 162899.3780729182,
      "d": 167.15082291667932,
      "v": 87
    },
    {
      "midi": 59,
      "hit": false,
      "t": 163073.7963229182,
      "d": 341.5690729166672,
      "v": 87
    },
    {
      "midi": 64,
      "hit": false,
      "t": 163073.7963229182,
      "d": 341.5690729166672,
      "v": 87
    },
    {
      "midi": 55,
      "hit": false,
      "t": 163073.7963229182,
      "d": 356.10392708334257,
      "v": 87
    },
    {
      "midi": 59,
      "hit": false,
      "t": 163422.6328229182,
      "d": 167.15082291667932,
      "v": 87
    },
    {
      "midi": 64,
      "hit": false,
      "t": 163422.6328229182,
      "d": 174.418250000017,
      "v": 87
    },
    {
      "midi": 55,
      "hit": false,
      "t": 163437.1676770849,
      "d": 864.8238229167182,
      "v": 87
    },
    {
      "midi": 59,
      "hit": false,
      "t": 163597.05107291823,
      "d": 341.5690729166672,
      "v": 87
    },
    {
      "midi": 64,
      "hit": false,
      "t": 163604.31850000157,
      "d": 341.5690729166672,
      "v": 87
    },
    {
      "midi": 59,
      "hit": false,
      "t": 163945.88757291823,
      "d": 181.68567708335468,
      "v": 87
    },
    {
      "midi": 64,
      "hit": false,
      "t": 163953.15500000157,
      "d": 159.88339583334164,
      "v": 87
    },
    {
      "midi": 64,
      "hit": false,
      "t": 164120.30582291825,
      "d": 181.68567708335468,
      "v": 85
    },
    {
      "midi": 59,
      "hit": false,
      "t": 164134.84067708493,
      "d": 167.15082291667932,
      "v": 86
    },
    {
      "midi": 55,
      "hit": false,
      "t": 164309.25892708494,
      "d": 334.30164583332953,
      "v": 88
    },
    {
      "midi": 64,
      "hit": false,
      "t": 164309.25892708494,
      "d": 334.30164583332953,
      "v": 86
    },
    {
      "midi": 59,
      "hit": false,
      "t": 164309.25892708494,
      "d": 341.5690729166672,
      "v": 88
    },
    {
      "midi": 55,
      "hit": false,
      "t": 164650.8280000016,
      "d": 348.8365000000049,
      "v": 87
    },
    {
      "midi": 64,
      "hit": false,
      "t": 164650.8280000016,
      "d": 356.10392708334257,
      "v": 84
    },
    {
      "midi": 59,
      "hit": false,
      "t": 164658.09542708495,
      "d": 348.8365000000049,
      "v": 88
    },
    {
      "midi": 55,
      "hit": false,
      "t": 165006.93192708495,
      "d": 334.30164583332953,
      "v": 87
    },
    {
      "midi": 59,
      "hit": false,
      "t": 165014.1993541683,
      "d": 319.76679166665417,
      "v": 87
    },
    {
      "midi": 64,
      "hit": false,
      "t": 165014.1993541683,
      "d": 327.03421874999185,
      "v": 85
    },
    {
      "midi": 59,
      "hit": false,
      "t": 165341.23357291828,
      "d": 348.8365000000049,
      "v": 87
    },
    {
      "midi": 55,
      "hit": false,
      "t": 165348.50100000162,
      "d": 341.5690729166672,
      "v": 87
    },
    {
      "midi": 64,
      "hit": false,
      "t": 165348.50100000162,
      "d": 341.5690729166672,
      "v": 84
    },
    {
      "midi": 64,
      "hit": false,
      "t": 165697.33750000162,
      "d": 152.61596875000396,
      "v": 84
    },
    {
      "midi": 59,
      "hit": false,
      "t": 165697.33750000162,
      "d": 159.88339583334164,
      "v": 85
    },
    {
      "midi": 55,
      "hit": false,
      "t": 165697.33750000162,
      "d": 167.15082291667932,
      "v": 85
    },
    {
      "midi": 64,
      "hit": false,
      "t": 165857.22089583497,
      "d": 341.5690729166672,
      "v": 87
    },
    {
      "midi": 59,
      "hit": false,
      "t": 165864.4883229183,
      "d": 341.5690729166672,
      "v": 87
    },
    {
      "midi": 55,
      "hit": false,
      "t": 165871.75575000164,
      "d": 348.8365000000049,
      "v": 87
    },
    {
      "midi": 64,
      "hit": false,
      "t": 166206.05739583497,
      "d": 188.95310416669236,
      "v": 86
    },
    {
      "midi": 59,
      "hit": false,
      "t": 166213.3248229183,
      "d": 174.418250000017,
      "v": 86
    },
    {
      "midi": 55,
      "hit": false,
      "t": 166227.85967708498,
      "d": 152.61596875000396,
      "v": 85
    },
    {
      "midi": 55,
      "hit": false,
      "t": 166387.74307291833,
      "d": 341.5690729166672,
      "v": 87
    },
    {
      "midi": 59,
      "hit": false,
      "t": 166395.01050000166,
      "d": 508.7198958333465,
      "v": 87
    },
    {
      "midi": 64,
      "hit": false,
      "t": 166402.277927085,
      "d": 494.18504166667117,
      "v": 87
    },
    {
      "midi": 55,
      "hit": false,
      "t": 166736.57957291833,
      "d": 341.5690729166963,
      "v": 85
    },
    {
      "midi": 64,
      "hit": false,
      "t": 166903.730395835,
      "d": 181.68567708335468,
      "v": 86
    },
    {
      "midi": 59,
      "hit": false,
      "t": 166910.99782291835,
      "d": 515.9873229166842,
      "v": 86
    },
    {
      "midi": 55,
      "hit": false,
      "t": 167085.41607291836,
      "d": 334.30164583332953,
      "v": 88
    },
    {
      "midi": 64,
      "hit": false,
      "t": 167092.6835000017,
      "d": 341.5690729166672,
      "v": 86
    },
    {
      "midi": 55,
      "hit": false,
      "t": 167426.98514583503,
      "d": 697.6730000000098,
      "v": 88
    },
    {
      "midi": 59,
      "hit": false,
      "t": 167434.25257291837,
      "d": 334.30164583332953,
      "v": 87
    },
    {
      "midi": 64,
      "hit": false,
      "t": 167441.5200000017,
      "d": 334.30164583332953,
      "v": 87
    },
    {
      "midi": 59,
      "hit": false,
      "t": 167775.82164583504,
      "d": 348.8365000000049,
      "v": 86
    },
    {
      "midi": 64,
      "hit": false,
      "t": 167783.08907291837,
      "d": 341.5690729166672,
      "v": 87
    },
    {
      "midi": 55,
      "hit": false,
      "t": 168131.92557291838,
      "d": 341.5690729166672,
      "v": 87
    },
    {
      "midi": 64,
      "hit": false,
      "t": 168131.92557291838,
      "d": 341.5690729166672,
      "v": 85
    },
    {
      "midi": 59,
      "hit": false,
      "t": 168131.92557291838,
      "d": 348.8365000000049,
      "v": 87
    },
    {
      "midi": 64,
      "hit": false,
      "t": 168480.76207291838,
      "d": 167.15082291667932,
      "v": 84
    },
    {
      "midi": 55,
      "hit": false,
      "t": 168480.76207291838,
      "d": 1039.242072916677,
      "v": 87
    },
    {
      "midi": 59,
      "hit": false,
      "t": 168488.02950000172,
      "d": 167.15082291667932,
      "v": 86
    },
    {
      "midi": 64,
      "hit": false,
      "t": 168655.1803229184,
      "d": 341.5690729166672,
      "v": 86
    },
    {
      "midi": 59,
      "hit": false,
      "t": 168662.44775000174,
      "d": 334.30164583332953,
      "v": 87
    },
    {
      "midi": 64,
      "hit": false,
      "t": 169004.0168229184,
      "d": 181.68567708332557,
      "v": 87
    },
    {
      "midi": 59,
      "hit": false,
      "t": 169004.0168229184,
      "d": 697.6730000000098,
      "v": 87
    },
    {
      "midi": 64,
      "hit": false,
      "t": 169192.96992708507,
      "d": 341.5690729166672,
      "v": 87
    },
    {
      "midi": 55,
      "hit": false,
      "t": 169527.2715729184,
      "d": 356.10392708334257,
      "v": 87
    },
    {
      "midi": 64,
      "hit": false,
      "t": 169541.80642708507,
      "d": 152.61596875000396,
      "v": 86
    },
    {
      "midi": 64,
      "hit": false,
      "t": 169701.68982291842,
      "d": 181.68567708332557,
      "v": 85
    },
    {
      "midi": 59,
      "hit": false,
      "t": 169708.95725000175,
      "d": 174.4182499999879,
      "v": 86
    },
    {
      "midi": 55,
      "hit": false,
      "t": 169890.64292708508,
      "d": 312.4993645833456,
      "v": 84
    },
    {
      "midi": 59,
      "hit": false,
      "t": 169890.64292708508,
      "d": 312.4993645833456,
      "v": 83
    },
    {
      "midi": 64,
      "hit": false,
      "t": 169890.64292708508,
      "d": 312.4993645833456,
      "v": 86
    },
    {
      "midi": 55,
      "hit": false,
      "t": 170210.40971875176,
      "d": 356.10392708334257,
      "v": 88
    },
    {
      "midi": 59,
      "hit": false,
      "t": 170217.6771458351,
      "d": 348.8365000000049,
      "v": 88
    },
    {
      "midi": 64,
      "hit": false,
      "t": 170232.21200000177,
      "d": 334.30164583332953,
      "v": 88
    },
    {
      "midi": 55,
      "hit": false,
      "t": 170573.78107291844,
      "d": 341.5690729166672,
      "v": 87
    },
    {
      "midi": 59,
      "hit": false,
      "t": 170573.78107291844,
      "d": 348.8365000000049,
      "v": 86
    },
    {
      "midi": 64,
      "hit": false,
      "t": 170573.78107291844,
      "d": 348.8365000000049,
      "v": 84
    },
    {
      "midi": 55,
      "hit": false,
      "t": 170922.61757291845,
      "d": 341.5690729166672,
      "v": 87
    },
    {
      "midi": 59,
      "hit": false,
      "t": 170929.88500000178,
      "d": 341.5690729166672,
      "v": 87
    },
    {
      "midi": 64,
      "hit": false,
      "t": 170929.88500000178,
      "d": 348.8365000000049,
      "v": 87
    },
    {
      "midi": 55,
      "hit": false,
      "t": 171271.45407291845,
      "d": 523.2547500000219,
      "v": 87
    },
    {
      "midi": 59,
      "hit": false,
      "t": 171278.7215000018,
      "d": 159.88339583334164,
      "v": 87
    },
    {
      "midi": 64,
      "hit": false,
      "t": 171285.98892708513,
      "d": 152.61596875000396,
      "v": 87
    },
    {
      "midi": 59,
      "hit": false,
      "t": 171445.87232291847,
      "d": 341.5690729166672,
      "v": 87
    },
    {
      "midi": 64,
      "hit": false,
      "t": 171445.87232291847,
      "d": 341.5690729166672,
      "v": 87
    },
    {
      "midi": 64,
      "hit": false,
      "t": 171794.70882291847,
      "d": 167.15082291667932,
      "v": 87
    },
    {
      "midi": 59,
      "hit": false,
      "t": 171794.70882291847,
      "d": 690.4055729167012,
      "v": 86
    },
    {
      "midi": 55,
      "hit": false,
      "t": 171801.9762500018,
      "d": 152.61596875000396,
      "v": 86
    },
    {
      "midi": 55,
      "hit": false,
      "t": 171969.1270729185,
      "d": 341.5690729166672,
      "v": 87
    },
    {
      "midi": 64,
      "hit": false,
      "t": 171969.1270729185,
      "d": 515.9873229166842,
      "v": 84
    },
    {
      "midi": 55,
      "hit": false,
      "t": 172317.9635729185,
      "d": 167.15082291667932,
      "v": 84
    },
    {
      "midi": 55,
      "hit": false,
      "t": 172492.3818229185,
      "d": 167.15082291667932,
      "v": 87
    },
    {
      "midi": 64,
      "hit": false,
      "t": 172492.3818229185,
      "d": 167.15082291667932,
      "v": 87
    },
    {
      "midi": 59,
      "hit": false,
      "t": 172492.3818229185,
      "d": 508.7198958333465,
      "v": 88
    },
    {
      "midi": 55,
      "hit": false,
      "t": 172666.80007291853,
      "d": 334.30164583332953,
      "v": 88
    },
    {
      "midi": 64,
      "hit": false,
      "t": 172666.80007291853,
      "d": 341.5690729166672,
      "v": 87
    },
    {
      "midi": 55,
      "hit": false,
      "t": 173008.3691458352,
      "d": 348.8365000000049,
      "v": 87
    },
    {
      "midi": 59,
      "hit": false,
      "t": 173008.3691458352,
      "d": 348.8365000000049,
      "v": 87
    },
    {
      "midi": 64,
      "hit": false,
      "t": 173015.63657291853,
      "d": 341.5690729166672,
      "v": 87
    },
    {
      "midi": 55,
      "hit": false,
      "t": 173364.47307291854,
      "d": 341.5690729166672,
      "v": 87
    },
    {
      "midi": 59,
      "hit": false,
      "t": 173364.47307291854,
      "d": 341.5690729166672,
      "v": 88
    },
    {
      "midi": 64,
      "hit": false,
      "t": 173364.47307291854,
      "d": 341.5690729166672,
      "v": 87
    },
    {
      "midi": 55,
      "hit": false,
      "t": 173713.30957291854,
      "d": 341.5690729166672,
      "v": 88
    },
    {
      "midi": 59,
      "hit": false,
      "t": 173713.30957291854,
      "d": 341.5690729166672,
      "v": 88
    },
    {
      "midi": 64,
      "hit": false,
      "t": 173713.30957291854,
      "d": 341.5690729166672,
      "v": 87
    },
    {
      "midi": 64,
      "hit": false,
      "t": 174062.14607291855,
      "d": 145.34854166666628,
      "v": 86
    },
    {
      "midi": 55,
      "hit": false,
      "t": 174062.14607291855,
      "d": 167.15082291667932,
      "v": 87
    },
    {
      "midi": 59,
      "hit": false,
      "t": 174062.14607291855,
      "d": 167.15082291667932,
      "v": 87
    },
    {
      "midi": 59,
      "hit": false,
      "t": 174236.56432291857,
      "d": 341.5690729166672,
      "v": 87
    },
    {
      "midi": 64,
      "hit": false,
      "t": 174236.56432291857,
      "d": 341.5690729166672,
      "v": 87
    },
    {
      "midi": 55,
      "hit": false,
      "t": 174236.56432291857,
      "d": 356.10392708334257,
      "v": 87
    },
    {
      "midi": 59,
      "hit": false,
      "t": 174585.40082291857,
      "d": 167.15082291667932,
      "v": 87
    },
    {
      "midi": 64,
      "hit": false,
      "t": 174585.40082291857,
      "d": 174.418250000017,
      "v": 87
    },
    {
      "midi": 55,
      "hit": false,
      "t": 174599.93567708525,
      "d": 864.8238229167182,
      "v": 87
    },
    {
      "midi": 59,
      "hit": false,
      "t": 174759.8190729186,
      "d": 341.5690729166672,
      "v": 87
    },
    {
      "midi": 64,
      "hit": false,
      "t": 174767.08650000193,
      "d": 341.5690729166672,
      "v": 87
    },
    {
      "midi": 59,
      "hit": false,
      "t": 175108.6555729186,
      "d": 181.68567708335468,
      "v": 87
    },
    {
      "midi": 64,
      "hit": false,
      "t": 175115.92300000193,
      "d": 159.88339583334164,
      "v": 87
    },
    {
      "midi": 64,
      "hit": false,
      "t": 175283.0738229186,
      "d": 181.68567708335468,
      "v": 85
    },
    {
      "midi": 59,
      "hit": false,
      "t": 175297.60867708529,
      "d": 167.15082291667932,
      "v": 86
    },
    {
      "midi": 55,
      "hit": false,
      "t": 175472.0269270853,
      "d": 334.30164583332953,
      "v": 88
    },
    {
      "midi": 64,
      "hit": false,
      "t": 175472.0269270853,
      "d": 334.30164583332953,
      "v": 86
    },
    {
      "midi": 59,
      "hit": false,
      "t": 175472.0269270853,
      "d": 341.5690729166672,
      "v": 88
    },
    {
      "midi": 55,
      "hit": false,
      "t": 175813.59600000197,
      "d": 348.8365000000049,
      "v": 87
    },
    {
      "midi": 64,
      "hit": false,
      "t": 175813.59600000197,
      "d": 356.10392708334257,
      "v": 84
    },
    {
      "midi": 59,
      "hit": false,
      "t": 175820.8634270853,
      "d": 348.8365000000049,
      "v": 88
    },
    {
      "midi": 55,
      "hit": false,
      "t": 176169.6999270853,
      "d": 334.30164583332953,
      "v": 87
    },
    {
      "midi": 59,
      "hit": false,
      "t": 176176.96735416865,
      "d": 319.76679166665417,
      "v": 87
    },
    {
      "midi": 64,
      "hit": false,
      "t": 176176.96735416865,
      "d": 327.03421874999185,
      "v": 85
    },
    {
      "midi": 59,
      "hit": false,
      "t": 176504.00157291864,
      "d": 348.8365000000049,
      "v": 87
    },
    {
      "midi": 55,
      "hit": false,
      "t": 176511.26900000198,
      "d": 341.5690729166672,
      "v": 87
    },
    {
      "midi": 64,
      "hit": false,
      "t": 176511.26900000198,
      "d": 341.5690729166672,
      "v": 84
    },
    {
      "midi": 64,
      "hit": false,
      "t": 176860.10550000198,
      "d": 152.61596875000396,
      "v": 84
    },
    {
      "midi": 59,
      "hit": false,
      "t": 176860.10550000198,
      "d": 159.88339583334164,
      "v": 85
    },
    {
      "midi": 55,
      "hit": false,
      "t": 176860.10550000198,
      "d": 167.15082291667932,
      "v": 85
    },
    {
      "midi": 64,
      "hit": false,
      "t": 177019.98889583533,
      "d": 341.5690729166672,
      "v": 87
    },
    {
      "midi": 59,
      "hit": false,
      "t": 177027.25632291866,
      "d": 341.5690729166672,
      "v": 87
    },
    {
      "midi": 55,
      "hit": false,
      "t": 177034.523750002,
      "d": 348.8365000000049,
      "v": 87
    },
    {
      "midi": 64,
      "hit": false,
      "t": 177368.82539583533,
      "d": 188.95310416669236,
      "v": 86
    },
    {
      "midi": 59,
      "hit": false,
      "t": 177376.09282291867,
      "d": 174.418250000017,
      "v": 86
    },
    {
      "midi": 55,
      "hit": false,
      "t": 177390.62767708534,
      "d": 152.61596875000396,
      "v": 85
    },
    {
      "midi": 55,
      "hit": false,
      "t": 177550.51107291869,
      "d": 341.5690729166672,
      "v": 87
    },
    {
      "midi": 59,
      "hit": false,
      "t": 177557.77850000202,
      "d": 508.7198958333465,
      "v": 87
    },
    {
      "midi": 64,
      "hit": false,
      "t": 177565.04592708536,
      "d": 494.18504166667117,
      "v": 87
    },
    {
      "midi": 55,
      "hit": false,
      "t": 177899.3475729187,
      "d": 341.5690729166963,
      "v": 85
    },
    {
      "midi": 64,
      "hit": false,
      "t": 178066.49839583537,
      "d": 181.68567708335468,
      "v": 86
    },
    {
      "midi": 59,
      "hit": false,
      "t": 178073.7658229187,
      "d": 515.9873229166842,
      "v": 86
    },
    {
      "midi": 55,
      "hit": false,
      "t": 178248.18407291872,
      "d": 334.30164583332953,
      "v": 88
    },
    {
      "midi": 64,
      "hit": false,
      "t": 178255.45150000206,
      "d": 341.5690729166672,
      "v": 86
    },
    {
      "midi": 55,
      "hit": false,
      "t": 178589.7531458354,
      "d": 697.6730000000098,
      "v": 88
    },
    {
      "midi": 59,
      "hit": false,
      "t": 178597.02057291873,
      "d": 334.30164583332953,
      "v": 87
    },
    {
      "midi": 64,
      "hit": false,
      "t": 178604.28800000207,
      "d": 334.30164583332953,
      "v": 87
    },
    {
      "midi": 59,
      "hit": false,
      "t": 178938.5896458354,
      "d": 348.8365000000049,
      "v": 86
    },
    {
      "midi": 64,
      "hit": false,
      "t": 178945.85707291873,
      "d": 341.5690729166672,
      "v": 87
    },
    {
      "midi": 55,
      "hit": false,
      "t": 179294.69357291874,
      "d": 341.5690729166672,
      "v": 87
    },
    {
      "midi": 64,
      "hit": false,
      "t": 179294.69357291874,
      "d": 341.5690729166672,
      "v": 85
    },
    {
      "midi": 59,
      "hit": false,
      "t": 179294.69357291874,
      "d": 348.8365000000049,
      "v": 87
    },
    {
      "midi": 64,
      "hit": false,
      "t": 179643.53007291874,
      "d": 167.15082291667932,
      "v": 84
    },
    {
      "midi": 55,
      "hit": false,
      "t": 179643.53007291874,
      "d": 1039.242072916677,
      "v": 87
    },
    {
      "midi": 59,
      "hit": false,
      "t": 179650.79750000208,
      "d": 167.15082291667932,
      "v": 86
    },
    {
      "midi": 64,
      "hit": false,
      "t": 179817.94832291876,
      "d": 341.5690729166672,
      "v": 86
    },
    {
      "midi": 59,
      "hit": false,
      "t": 179825.2157500021,
      "d": 334.30164583332953,
      "v": 87
    },
    {
      "midi": 64,
      "hit": false,
      "t": 180166.78482291877,
      "d": 181.68567708332557,
      "v": 87
    },
    {
      "midi": 59,
      "hit": false,
      "t": 180166.78482291877,
      "d": 697.6730000000098,
      "v": 87
    },
    {
      "midi": 64,
      "hit": false,
      "t": 180355.73792708543,
      "d": 341.5690729166672,
      "v": 87
    },
    {
      "midi": 55,
      "hit": false,
      "t": 180690.03957291876,
      "d": 356.10392708334257,
      "v": 87
    },
    {
      "midi": 64,
      "hit": false,
      "t": 180704.57442708543,
      "d": 152.61596875000396,
      "v": 86
    },
    {
      "midi": 64,
      "hit": false,
      "t": 180864.45782291878,
      "d": 181.68567708332557,
      "v": 85
    },
    {
      "midi": 59,
      "hit": false,
      "t": 180871.7252500021,
      "d": 174.4182499999879,
      "v": 86
    },
    {
      "midi": 55,
      "hit": false,
      "t": 181053.41092708544,
      "d": 312.4993645833456,
      "v": 84
    },
    {
      "midi": 59,
      "hit": false,
      "t": 181053.41092708544,
      "d": 312.4993645833456,
      "v": 83
    },
    {
      "midi": 64,
      "hit": false,
      "t": 181053.41092708544,
      "d": 312.4993645833456,
      "v": 86
    },
    {
      "midi": 55,
      "hit": false,
      "t": 214861.48171875213,
      "d": 356.10392708334257,
      "v": 88
    },
    {
      "midi": 59,
      "hit": false,
      "t": 214868.74914583546,
      "d": 348.8365000000049,
      "v": 88
    },
    {
      "midi": 64,
      "hit": false,
      "t": 214883.28400000214,
      "d": 334.30164583332953,
      "v": 88
    },
    {
      "midi": 55,
      "hit": false,
      "t": 215224.8530729188,
      "d": 341.5690729166672,
      "v": 87
    },
    {
      "midi": 59,
      "hit": false,
      "t": 215224.8530729188,
      "d": 348.8365000000049,
      "v": 86
    },
    {
      "midi": 64,
      "hit": false,
      "t": 215224.8530729188,
      "d": 348.8365000000049,
      "v": 84
    },
    {
      "midi": 55,
      "hit": false,
      "t": 215573.6895729188,
      "d": 341.5690729166672,
      "v": 87
    },
    {
      "midi": 59,
      "hit": false,
      "t": 215580.95700000215,
      "d": 341.5690729166672,
      "v": 87
    },
    {
      "midi": 64,
      "hit": false,
      "t": 215580.95700000215,
      "d": 348.8365000000049,
      "v": 87
    },
    {
      "midi": 55,
      "hit": false,
      "t": 215922.52607291882,
      "d": 523.2547500000219,
      "v": 87
    },
    {
      "midi": 59,
      "hit": false,
      "t": 215929.79350000215,
      "d": 159.88339583334164,
      "v": 87
    },
    {
      "midi": 64,
      "hit": false,
      "t": 215937.0609270855,
      "d": 152.61596875000396,
      "v": 87
    },
    {
      "midi": 59,
      "hit": false,
      "t": 216096.94432291883,
      "d": 341.5690729166672,
      "v": 87
    },
    {
      "midi": 64,
      "hit": false,
      "t": 216096.94432291883,
      "d": 341.5690729166672,
      "v": 87
    },
    {
      "midi": 64,
      "hit": false,
      "t": 216445.78082291884,
      "d": 167.15082291667932,
      "v": 87
    },
    {
      "midi": 59,
      "hit": false,
      "t": 216445.78082291884,
      "d": 690.4055729167012,
      "v": 86
    },
    {
      "midi": 55,
      "hit": false,
      "t": 216453.04825000218,
      "d": 152.61596875000396,
      "v": 86
    },
    {
      "midi": 55,
      "hit": false,
      "t": 216620.19907291885,
      "d": 341.5690729166672,
      "v": 87
    },
    {
      "midi": 64,
      "hit": false,
      "t": 216620.19907291885,
      "d": 515.9873229166842,
      "v": 84
    },
    {
      "midi": 55,
      "hit": false,
      "t": 216969.03557291886,
      "d": 167.15082291667932,
      "v": 84
    },
    {
      "midi": 55,
      "hit": false,
      "t": 217143.45382291888,
      "d": 167.15082291667932,
      "v": 87
    },
    {
      "midi": 64,
      "hit": false,
      "t": 217143.45382291888,
      "d": 167.15082291667932,
      "v": 87
    },
    {
      "midi": 59,
      "hit": false,
      "t": 217143.45382291888,
      "d": 508.7198958333465,
      "v": 88
    },
    {
      "midi": 55,
      "hit": false,
      "t": 217317.8720729189,
      "d": 334.30164583332953,
      "v": 88
    },
    {
      "midi": 64,
      "hit": false,
      "t": 217317.8720729189,
      "d": 341.5690729166672,
      "v": 87
    },
    {
      "midi": 55,
      "hit": false,
      "t": 217659.44114583556,
      "d": 348.8365000000049,
      "v": 87
    },
    {
      "midi": 59,
      "hit": false,
      "t": 217659.44114583556,
      "d": 348.8365000000049,
      "v": 87
    },
    {
      "midi": 64,
      "hit": false,
      "t": 217666.7085729189,
      "d": 341.5690729166672,
      "v": 87
    },
    {
      "midi": 55,
      "hit": false,
      "t": 218015.5450729189,
      "d": 341.5690729166672,
      "v": 87
    },
    {
      "midi": 59,
      "hit": false,
      "t": 218015.5450729189,
      "d": 341.5690729166672,
      "v": 88
    },
    {
      "midi": 64,
      "hit": false,
      "t": 218015.5450729189,
      "d": 341.5690729166672,
      "v": 87
    },
    {
      "midi": 55,
      "hit": false,
      "t": 218364.3815729189,
      "d": 341.5690729166672,
      "v": 88
    },
    {
      "midi": 59,
      "hit": false,
      "t": 218364.3815729189,
      "d": 341.5690729166672,
      "v": 88
    },
    {
      "midi": 64,
      "hit": false,
      "t": 218364.3815729189,
      "d": 341.5690729166672,
      "v": 87
    },
    {
      "midi": 64,
      "hit": false,
      "t": 218713.2180729189,
      "d": 145.34854166666628,
      "v": 86
    },
    {
      "midi": 55,
      "hit": false,
      "t": 218713.2180729189,
      "d": 167.15082291667932,
      "v": 87
    },
    {
      "midi": 59,
      "hit": false,
      "t": 218713.2180729189,
      "d": 167.15082291667932,
      "v": 87
    },
    {
      "midi": 59,
      "hit": false,
      "t": 218887.63632291893,
      "d": 341.5690729166672,
      "v": 87
    },
    {
      "midi": 64,
      "hit": false,
      "t": 218887.63632291893,
      "d": 341.5690729166672,
      "v": 87
    },
    {
      "midi": 55,
      "hit": false,
      "t": 218887.63632291893,
      "d": 356.10392708334257,
      "v": 87
    },
    {
      "midi": 59,
      "hit": false,
      "t": 219236.47282291893,
      "d": 167.15082291667932,
      "v": 87
    },
    {
      "midi": 64,
      "hit": false,
      "t": 219236.47282291893,
      "d": 174.418250000017,
      "v": 87
    },
    {
      "midi": 55,
      "hit": false,
      "t": 219251.0076770856,
      "d": 864.8238229167182,
      "v": 87
    },
    {
      "midi": 59,
      "hit": false,
      "t": 219410.89107291895,
      "d": 341.5690729166672,
      "v": 87
    },
    {
      "midi": 64,
      "hit": false,
      "t": 219418.1585000023,
      "d": 341.5690729166672,
      "v": 87
    },
    {
      "midi": 59,
      "hit": false,
      "t": 219759.72757291896,
      "d": 181.68567708335468,
      "v": 87
    },
    {
      "midi": 64,
      "hit": false,
      "t": 219766.9950000023,
      "d": 159.88339583334164,
      "v": 87
    },
    {
      "midi": 64,
      "hit": false,
      "t": 219934.14582291897,
      "d": 181.68567708335468,
      "v": 85
    },
    {
      "midi": 59,
      "hit": false,
      "t": 219948.68067708565,
      "d": 167.15082291667932,
      "v": 86
    },
    {
      "midi": 55,
      "hit": false,
      "t": 220123.09892708567,
      "d": 334.30164583332953,
      "v": 88
    },
    {
      "midi": 64,
      "hit": false,
      "t": 220123.09892708567,
      "d": 334.30164583332953,
      "v": 86
    },
    {
      "midi": 59,
      "hit": false,
      "t": 220123.09892708567,
      "d": 341.5690729166672,
      "v": 88
    },
    {
      "midi": 55,
      "hit": false,
      "t": 220464.66800000233,
      "d": 348.8365000000049,
      "v": 87
    },
    {
      "midi": 64,
      "hit": false,
      "t": 220464.66800000233,
      "d": 356.10392708334257,
      "v": 84
    },
    {
      "midi": 59,
      "hit": false,
      "t": 220471.93542708567,
      "d": 348.8365000000049,
      "v": 88
    },
    {
      "midi": 55,
      "hit": false,
      "t": 220820.77192708568,
      "d": 334.30164583332953,
      "v": 87
    },
    {
      "midi": 59,
      "hit": false,
      "t": 220828.039354169,
      "d": 319.76679166665417,
      "v": 87
    },
    {
      "midi": 64,
      "hit": false,
      "t": 220828.039354169,
      "d": 327.03421874999185,
      "v": 85
    },
    {
      "midi": 59,
      "hit": false,
      "t": 221155.073572919,
      "d": 348.8365000000049,
      "v": 87
    },
    {
      "midi": 55,
      "hit": false,
      "t": 221162.34100000234,
      "d": 341.5690729166672,
      "v": 87
    },
    {
      "midi": 64,
      "hit": false,
      "t": 221162.34100000234,
      "d": 341.5690729166672,
      "v": 84
    },
    {
      "midi": 64,
      "hit": false,
      "t": 221511.17750000235,
      "d": 152.61596875000396,
      "v": 84
    },
    {
      "midi": 59,
      "hit": false,
      "t": 221511.17750000235,
      "d": 159.88339583334164,
      "v": 85
    },
    {
      "midi": 55,
      "hit": false,
      "t": 221511.17750000235,
      "d": 167.15082291667932,
      "v": 85
    },
    {
      "midi": 64,
      "hit": false,
      "t": 221671.0608958357,
      "d": 341.5690729166672,
      "v": 87
    },
    {
      "midi": 59,
      "hit": false,
      "t": 221678.32832291903,
      "d": 341.5690729166672,
      "v": 87
    },
    {
      "midi": 55,
      "hit": false,
      "t": 221685.59575000237,
      "d": 348.8365000000049,
      "v": 87
    },
    {
      "midi": 64,
      "hit": false,
      "t": 222019.8973958357,
      "d": 188.95310416669236,
      "v": 86
    },
    {
      "midi": 59,
      "hit": false,
      "t": 222027.16482291903,
      "d": 174.418250000017,
      "v": 86
    },
    {
      "midi": 55,
      "hit": false,
      "t": 222041.6996770857,
      "d": 152.61596875000396,
      "v": 85
    },
    {
      "midi": 55,
      "hit": false,
      "t": 222201.58307291905,
      "d": 341.5690729166672,
      "v": 87
    },
    {
      "midi": 59,
      "hit": false,
      "t": 222208.8505000024,
      "d": 508.7198958333465,
      "v": 87
    },
    {
      "midi": 64,
      "hit": false,
      "t": 222216.11792708572,
      "d": 494.18504166667117,
      "v": 87
    },
    {
      "midi": 55,
      "hit": false,
      "t": 222550.41957291905,
      "d": 341.5690729166963,
      "v": 85
    },
    {
      "midi": 64,
      "hit": false,
      "t": 222717.57039583573,
      "d": 181.68567708335468,
      "v": 86
    },
    {
      "midi": 59,
      "hit": false,
      "t": 222724.83782291907,
      "d": 515.9873229166842,
      "v": 86
    },
    {
      "midi": 55,
      "hit": false,
      "t": 222899.2560729191,
      "d": 334.30164583332953,
      "v": 88
    },
    {
      "midi": 64,
      "hit": false,
      "t": 222906.52350000243,
      "d": 341.5690729166672,
      "v": 86
    },
    {
      "midi": 55,
      "hit": false,
      "t": 223240.82514583576,
      "d": 697.6730000000098,
      "v": 88
    },
    {
      "midi": 59,
      "hit": false,
      "t": 223248.0925729191,
      "d": 334.30164583332953,
      "v": 87
    },
    {
      "midi": 64,
      "hit": false,
      "t": 223255.36000000243,
      "d": 334.30164583332953,
      "v": 87
    },
    {
      "midi": 59,
      "hit": false,
      "t": 223589.66164583576,
      "d": 348.8365000000049,
      "v": 86
    },
    {
      "midi": 64,
      "hit": false,
      "t": 223596.9290729191,
      "d": 341.5690729166672,
      "v": 87
    },
    {
      "midi": 55,
      "hit": false,
      "t": 223945.7655729191,
      "d": 341.5690729166672,
      "v": 87
    },
    {
      "midi": 64,
      "hit": false,
      "t": 223945.7655729191,
      "d": 341.5690729166672,
      "v": 85
    },
    {
      "midi": 59,
      "hit": false,
      "t": 223945.7655729191,
      "d": 348.8365000000049,
      "v": 87
    },
    {
      "midi": 64,
      "hit": false,
      "t": 224294.6020729191,
      "d": 167.15082291667932,
      "v": 84
    },
    {
      "midi": 55,
      "hit": false,
      "t": 224294.6020729191,
      "d": 1039.242072916677,
      "v": 87
    },
    {
      "midi": 59,
      "hit": false,
      "t": 224301.86950000245,
      "d": 167.15082291667932,
      "v": 86
    },
    {
      "midi": 64,
      "hit": false,
      "t": 224469.02032291912,
      "d": 341.5690729166672,
      "v": 86
    },
    {
      "midi": 59,
      "hit": false,
      "t": 224476.28775000246,
      "d": 334.30164583332953,
      "v": 87
    },
    {
      "midi": 64,
      "hit": false,
      "t": 224817.85682291913,
      "d": 181.68567708332557,
      "v": 87
    },
    {
      "midi": 59,
      "hit": false,
      "t": 224817.85682291913,
      "d": 697.6730000000098,
      "v": 87
    },
    {
      "midi": 64,
      "hit": false,
      "t": 225006.8099270858,
      "d": 341.5690729166672,
      "v": 87
    },
    {
      "midi": 55,
      "hit": false,
      "t": 225341.11157291912,
      "d": 356.10392708334257,
      "v": 87
    },
    {
      "midi": 64,
      "hit": false,
      "t": 225355.6464270858,
      "d": 152.61596875000396,
      "v": 86
    },
    {
      "midi": 64,
      "hit": false,
      "t": 225515.52982291914,
      "d": 181.68567708332557,
      "v": 85
    },
    {
      "midi": 59,
      "hit": false,
      "t": 225522.79725000248,
      "d": 174.4182499999879,
      "v": 86
    },
    {
      "midi": 59,
      "hit": false,
      "t": 225704.4829270858,
      "d": 312.4993645833456,
      "v": 83
    },
    {
      "midi": 64,
      "hit": false,
      "t": 225704.4829270858,
      "d": 312.4993645833456,
      "v": 86
    },
    {
      "midi": 55,
      "hit": false,
      "t": 225704.4829270858,
      "d": 319.7667916666833,
      "v": 84
    },
    {
      "midi": 55,
      "hit": false,
      "t": 236147.77564583582,
      "d": 319.7667916666833,
      "v": 96
    },
    {
      "midi": 59,
      "hit": false,
      "t": 236162.3105000025,
      "d": 312.4993645833456,
      "v": 62
    },
    {
      "midi": 55,
      "hit": false,
      "t": 236482.07729166918,
      "d": 312.4993645833456,
      "v": 113
    },
    {
      "midi": 59,
      "hit": false,
      "t": 236489.34471875252,
      "d": 319.7667916666833,
      "v": 108
    },
    {
      "midi": 64,
      "hit": false,
      "t": 236496.61214583585,
      "d": 712.2078541666851,
      "v": 97
    },
    {
      "midi": 55,
      "hit": false,
      "t": 237194.28514583586,
      "d": 1744.1825000000244,
      "v": 100
    },
    {
      "midi": 59,
      "hit": false,
      "t": 237208.82000000254,
      "d": 1744.1825000000244,
      "v": 103
    },
    {
      "midi": 64,
      "hit": false,
      "t": 237216.08742708588,
      "d": 2797.959427083377,
      "v": 100
    },
    {
      "midi": 55,
      "hit": false,
      "t": 238945.73507291923,
      "d": 341.5690729166672,
      "v": 96
    },
    {
      "midi": 59,
      "hit": false,
      "t": 238960.2699270859,
      "d": 334.30164583332953,
      "v": 89
    },
    {
      "midi": 55,
      "hit": false,
      "t": 239294.57157291923,
      "d": 712.2078541666851,
      "v": 109
    },
    {
      "midi": 59,
      "hit": false,
      "t": 239301.83900000257,
      "d": 704.9404270833475,
      "v": 93
    },
    {
      "midi": 55,
      "hit": false,
      "t": 240014.04685416925,
      "d": 1729.647645833349,
      "v": 113
    },
    {
      "midi": 59,
      "hit": false,
      "t": 240014.04685416925,
      "d": 2071.2167187500163,
      "v": 105
    },
    {
      "midi": 64,
      "hit": false,
      "t": 240021.3142812526,
      "d": 2361.913802083349,
      "v": 96
    },
    {
      "midi": 55,
      "hit": false,
      "t": 241750.96192708594,
      "d": 327.03421874999185,
      "v": 91
    },
    {
      "midi": 55,
      "hit": false,
      "t": 242085.26357291927,
      "d": 319.7667916666833,
      "v": 103
    },
    {
      "midi": 59,
      "hit": false,
      "t": 242099.79842708595,
      "d": 319.7667916666833,
      "v": 91
    },
    {
      "midi": 59,
      "hit": false,
      "t": 242448.63492708595,
      "d": 2412.7857916666835,
      "v": 102
    },
    {
      "midi": 64,
      "hit": false,
      "t": 242455.9023541693,
      "d": 348.8365000000049,
      "v": 67
    },
    {
      "midi": 55,
      "hit": false,
      "t": 242804.7388541693,
      "d": 1678.7756562500144,
      "v": 113
    },
    {
      "midi": 64,
      "hit": false,
      "t": 242812.00628125263,
      "d": 2754.3548645833216,
      "v": 91
    },
    {
      "midi": 55,
      "hit": false,
      "t": 244512.58421875263,
      "d": 348.8365000000049,
      "v": 98
    },
    {
      "midi": 55,
      "hit": false,
      "t": 244868.68814583597,
      "d": 290.69708333333256,
      "v": 110
    },
    {
      "midi": 59,
      "hit": false,
      "t": 244875.9555729193,
      "d": 312.4993645833165,
      "v": 94
    },
    {
      "midi": 59,
      "hit": false,
      "t": 245224.79207291928,
      "d": 341.5690729166672,
      "v": 95
    },
    {
      "midi": 55,
      "hit": false,
      "t": 245573.6285729193,
      "d": 1010.1723645833263,
      "v": 113
    },
    {
      "midi": 59,
      "hit": false,
      "t": 245573.6285729193,
      "d": 1388.0785729166528,
      "v": 110
    },
    {
      "midi": 64,
      "hit": false,
      "t": 245580.89600000263,
      "d": 2078.484145833325,
      "v": 90
    },
    {
      "midi": 55,
      "hit": false,
      "t": 246620.13807291928,
      "d": 327.03421874999185,
      "v": 81
    },
    {
      "midi": 55,
      "hit": false,
      "t": 246961.70714583594,
      "d": 327.03421874999185,
      "v": 100
    },
    {
      "midi": 59,
      "hit": false,
      "t": 246968.97457291928,
      "d": 319.76679166665417,
      "v": 80
    },
    {
      "midi": 55,
      "hit": false,
      "t": 247303.2762187526,
      "d": 348.8365000000049,
      "v": 112
    },
    {
      "midi": 59,
      "hit": false,
      "t": 247310.54364583595,
      "d": 341.5690729166672,
      "v": 99
    },
    {
      "midi": 55,
      "hit": false,
      "t": 247659.38014583595,
      "d": 334.30164583332953,
      "v": 113
    },
    {
      "midi": 59,
      "hit": false,
      "t": 247659.38014583595,
      "d": 341.5690729166672,
      "v": 111
    },
    {
      "midi": 64,
      "hit": false,
      "t": 247666.6475729193,
      "d": 341.5690729166672,
      "v": 91
    },
    {
      "midi": 55,
      "hit": false,
      "t": 248000.94921875262,
      "d": 341.5690729166672,
      "v": 113
    },
    {
      "midi": 59,
      "hit": false,
      "t": 248008.21664583596,
      "d": 341.5690729166672,
      "v": 112
    },
    {
      "midi": 64,
      "hit": false,
      "t": 248015.4840729193,
      "d": 348.8365000000049,
      "v": 98
    }
  ]
}