{
  "jsonPath": "Rock/Danspunk/Lasse Stefanz/innan-livet-forsvinner-shotgun-rider.json",
  "path": "Rock\\Danspunk\\Lasse Stefanz\\Innan livet försvinner (Shotgun Rider).mid",
  "name": "Innan livet försvinner (Shotgun Rider)",
  "difficulty": "Advanced",
  "bpm": 160,
  "notes": [
    {
      "midi": 57,
      "hit": false,
      "t": 2250,
      "d": 2179.6875,
      "v": 70
    },
    {
      "midi": 62,
      "hit": false,
      "t": 2250,
      "d": 2179.6875,
      "v": 70
    },
    {
      "midi": 66,
      "hit": false,
      "t": 2250,
      "d": 2179.6875,
      "v": 70
    },
    {
      "midi": 57,
      "hit": false,
      "t": 4500,
      "d": 2179.6875,
      "v": 70
    },
    {
      "midi": 62,
      "hit": false,
      "t": 4500,
      "d": 2179.6875,
      "v": 70
    },
    {
      "midi": 66,
      "hit": false,
      "t": 4500,
      "d": 2179.6875,
      "v": 70
    },
    {
      "midi": 57,
      "hit": false,
      "t": 6750,
      "d": 2250,
      "v": 85
    },
    {
      "midi": 62,
      "hit": false,
      "t": 6750,
      "d": 2250,
      "v": 85
    },
    {
      "midi": 66,
      "hit": false,
      "t": 6750,
      "d": 2250,
      "v": 85
    },
    {
      "midi": 69,
      "hit": false,
      "t": 7878.90625,
      "d": 191.40625,
      "v": 89
    },
    {
      "midi": 74,
      "hit": false,
      "t": 7878.90625,
      "d": 1121.09375,
      "v": 87
    },
    {
      "midi": 71,
      "hit": false,
      "t": 8046.875,
      "d": 281.25,
      "v": 66
    },
    {
      "midi": 69,
      "hit": false,
      "t": 8304.6875,
      "d": 695.3125,
      "v": 64
    },
    {
      "midi": 57,
      "hit": false,
      "t": 9000,
      "d": 2179.6875,
      "v": 70
    },
    {
      "midi": 62,
      "hit": false,
      "t": 9000,
      "d": 2179.6875,
      "v": 70
    },
    {
      "midi": 66,
      "hit": false,
      "t": 9000,
      "d": 2179.6875,
      "v": 70
    },
    {
      "midi": 57,
      "hit": false,
      "t": 11250,
      "d": 2250,
      "v": 85
    },
    {
      "midi": 62,
      "hit": false,
      "t": 11250,
      "d": 2250,
      "v": 85
    },
    {
      "midi": 66,
      "hit": false,
      "t": 11250,
      "d": 2250,
      "v": 85
    },
    {
      "midi": 69,
      "hit": false,
      "t": 12378.90625,
      "d": 191.40625,
      "v": 89
    },
    {
      "midi": 74,
      "hit": false,
      "t": 12378.90625,
      "d": 1121.09375,
      "v": 87
    },
    {
      "midi": 71,
      "hit": false,
      "t": 12546.875,
      "d": 281.25,
      "v": 66
    },
    {
      "midi": 69,
      "hit": false,
      "t": 12804.6875,
      "d": 695.3125,
      "v": 64
    },
    {
      "midi": 60,
      "hit": false,
      "t": 13500,
      "d": 2250,
      "v": 85
    },
    {
      "midi": 62,
      "hit": false,
      "t": 13500,
      "d": 2250,
      "v": 85
    },
    {
      "midi": 66,
      "hit": false,
      "t": 13500,
      "d": 2250,
      "v": 85
    },
    {
      "midi": 69,
      "hit": false,
      "t": 14628.90625,
      "d": 191.40625,
      "v": 89
    },
    {
      "midi": 74,
      "hit": false,
      "t": 14628.90625,
      "d": 1121.09375,
      "v": 87
    },
    {
      "midi": 71,
      "hit": false,
      "t": 14796.875,
      "d": 281.25,
      "v": 66
    },
    {
      "midi": 69,
      "hit": false,
      "t": 15054.6875,
      "d": 695.3125,
      "v": 64
    },
    {
      "midi": 55,
      "hit": false,
      "t": 15750,
      "d": 2250,
      "v": 85
    },
    {
      "midi": 59,
      "hit": false,
      "t": 15750,
      "d": 2250,
      "v": 85
    },
    {
      "midi": 62,
      "hit": false,
      "t": 16878.90625,
      "d": 191.40625,
      "v": 89
    },
    {
      "midi": 67,
      "hit": false,
      "t": 16878.90625,
      "d": 1121.09375,
      "v": 87
    },
    {
      "midi": 64,
      "hit": false,
      "t": 17046.875,
      "d": 281.25,
      "v": 66
    },
    {
      "midi": 62,
      "hit": false,
      "t": 17304.6875,
      "d": 695.3125,
      "v": 64
    },
    {
      "midi": 55,
      "hit": false,
      "t": 18000,
      "d": 2179.6875,
      "v": 70
    },
    {
      "midi": 59,
      "hit": false,
      "t": 18000,
      "d": 2179.6875,
      "v": 70
    },
    {
      "midi": 62,
      "hit": false,
      "t": 18000,
      "d": 2179.6875,
      "v": 70
    },
    {
      "midi": 61,
      "hit": false,
      "t": 20250,
      "d": 2250,
      "v": 85
    },
    {
      "midi": 67,
      "hit": false,
      "t": 20250,
      "d": 2250,
      "v": 85
    },
    {
      "midi": 64,
      "hit": false,
      "t": 21378.90625,
      "d": 191.40625,
      "v": 89
    },
    {
      "midi": 69,
      "hit": false,
      "t": 21378.90625,
      "d": 1121.09375,
      "v": 87
    },
    {
      "midi": 66,
      "hit": false,
      "t": 21546.875,
      "d": 281.25,
      "v": 66
    },
    {
      "midi": 64,
      "hit": false,
      "t": 21804.6875,
      "d": 695.3125,
      "v": 64
    },
    {
      "midi": 61,
      "hit": false,
      "t": 22500,
      "d": 2250,
      "v": 85
    },
    {
      "midi": 67,
      "hit": false,
      "t": 22500,
      "d": 2250,
      "v": 85
    },
    {
      "midi": 64,
      "hit": false,
      "t": 23628.90625,
      "d": 191.40625,
      "v": 89
    },
    {
      "midi": 69,
      "hit": false,
      "t": 23628.90625,
      "d": 1121.09375,
      "v": 87
    },
    {
      "midi": 66,
      "hit": false,
      "t": 23796.875,
      "d": 281.25,
      "v": 66
    },
    {
      "midi": 64,
      "hit": false,
      "t": 24054.6875,
      "d": 695.3125,
      "v": 64
    },
    {
      "midi": 57,
      "hit": false,
      "t": 24750,
      "d": 2179.6875,
      "v": 70
    },
    {
      "midi": 62,
      "hit": false,
      "t": 24750,
      "d": 2179.6875,
      "v": 70
    },
    {
      "midi": 66,
      "hit": false,
      "t": 24750,
      "d": 2179.6875,
      "v": 70
    },
    {
      "midi": 57,
      "hit": false,
      "t": 27000,
      "d": 2179.6875,
      "v": 70
    },
    {
      "midi": 62,
      "hit": false,
      "t": 27000,
      "d": 2179.6875,
      "v": 70
    },
    {
      "midi": 66,
      "hit": false,
      "t": 27000,
      "d": 2179.6875,
      "v": 70
    },
    {
      "midi": 57,
      "hit": false,
      "t": 29250,
      "d": 2179.6875,
      "v": 70
    },
    {
      "midi": 62,
      "hit": false,
      "t": 29250,
      "d": 2179.6875,
      "v": 70
    },
    {
      "midi": 66,
      "hit": false,
      "t": 29250,
      "d": 2179.6875,
      "v": 70
    },
    {
      "midi": 60,
      "hit": false,
      "t": 31500,
      "d": 2179.6875,
      "v": 70
    },
    {
      "midi": 62,
      "hit": false,
      "t": 31500,
      "d": 2179.6875,
      "v": 70
    },
    {
      "midi": 66,
      "hit": false,
      "t": 31500,
      "d": 2179.6875,
      "v": 70
    },
    {
      "midi": 69,
      "hit": false,
      "t": 31500,
      "d": 2179.6875,
      "v": 70
    },
    {
      "midi": 55,
      "hit": false,
      "t": 33750,
      "d": 2179.6875,
      "v": 70
    },
    {
      "midi": 59,
      "hit": false,
      "t": 33750,
      "d": 2179.6875,
      "v": 70
    },
    {
      "midi": 62,
      "hit": false,
      "t": 33750,
      "d": 2179.6875,
      "v": 70
    },
    {
      "midi": 55,
      "hit": false,
      "t": 36000,
      "d": 2250,
      "v": 85
    },
    {
      "midi": 59,
      "hit": false,
      "t": 36000,
      "d": 2250,
      "v": 85
    },
    {
      "midi": 62,
      "hit": false,
      "t": 37128.90625,
      "d": 191.40625,
      "v": 89
    },
    {
      "midi": 67,
      "hit": false,
      "t": 37128.90625,
      "d": 1121.09375,
      "v": 87
    },
    {
      "midi": 64,
      "hit": false,
      "t": 37296.875,
      "d": 281.25,
      "v": 66
    },
    {
      "midi": 62,
      "hit": false,
      "t": 37554.6875,
      "d": 695.3125,
      "v": 64
    },
    {
      "midi": 61,
      "hit": false,
      "t": 38250,
      "d": 2179.6875,
      "v": 70
    },
    {
      "midi": 64,
      "hit": false,
      "t": 38250,
      "d": 2179.6875,
      "v": 70
    },
    {
      "midi": 67,
      "hit": false,
      "t": 38250,
      "d": 2179.6875,
      "v": 70
    },
    {
      "midi": 69,
      "hit": false,
      "t": 38250,
      "d": 2179.6875,
      "v": 70
    },
    {
      "midi": 61,
      "hit": false,
      "t": 40500,
      "d": 2250,
      "v": 85
    },
    {
      "midi": 67,
      "hit": false,
      "t": 40500,
      "d": 2250,
      "v": 85
    },
    {
      "midi": 64,
      "hit": false,
      "t": 41628.90625,
      "d": 191.40625,
      "v": 89
    },
    {
      "midi": 69,
      "hit": false,
      "t": 41628.90625,
      "d": 1121.09375,
      "v": 87
    },
    {
      "midi": 66,
      "hit": false,
      "t": 41796.875,
      "d": 281.25,
      "v": 66
    },
    {
      "midi": 64,
      "hit": false,
      "t": 42054.6875,
      "d": 695.3125,
      "v": 64
    },
    {
      "midi": 61,
      "hit": false,
      "t": 42750,
      "d": 2179.6875,
      "v": 70
    },
    {
      "midi": 64,
      "hit": false,
      "t": 42750,
      "d": 2179.6875,
      "v": 70
    },
    {
      "midi": 67,
      "hit": false,
      "t": 42750,
      "d": 2179.6875,
      "v": 70
    },
    {
      "midi": 69,
      "hit": false,
      "t": 42750,
      "d": 2179.6875,
      "v": 70
    },
    {
      "midi": 54,
      "hit": false,
      "t": 45000,
      "d": 2179.6875,
      "v": 70
    },
    {
      "midi": 57,
      "hit": false,
      "t": 45000,
      "d": 2179.6875,
      "v": 70
    },
    {
      "midi": 62,
      "hit": false,
      "t": 45000,
      "d": 2179.6875,
      "v": 70
    },
    {
      "midi": 57,
      "hit": false,
      "t": 47250,
      "d": 2250,
      "v": 85
    },
    {
      "midi": 62,
      "hit": false,
      "t": 47250,
      "d": 2250,
      "v": 85
    },
    {
      "midi": 66,
      "hit": false,
      "t": 47250,
      "d": 2250,
      "v": 85
    },
    {
      "midi": 69,
      "hit": false,
      "t": 48378.90625,
      "d": 191.40625,
      "v": 89
    },
    {
      "midi": 74,
      "hit": false,
      "t": 48378.90625,
      "d": 1121.09375,
      "v": 87
    },
    {
      "midi": 71,
      "hit": false,
      "t": 48546.875,
      "d": 281.25,
      "v": 66
    },
    {
      "midi": 69,
      "hit": false,
      "t": 48804.6875,
      "d": 695.3125,
      "v": 64
    },
    {
      "midi": 57,
      "hit": false,
      "t": 49500,
      "d": 2179.6875,
      "v": 70
    },
    {
      "midi": 62,
      "hit": false,
      "t": 49500,
      "d": 2179.6875,
      "v": 70
    },
    {
      "midi": 66,
      "hit": false,
      "t": 49500,
      "d": 2179.6875,
      "v": 70
    },
    {
      "midi": 60,
      "hit": false,
      "t": 51750,
      "d": 2179.6875,
      "v": 70
    },
    {
      "midi": 62,
      "hit": false,
      "t": 51750,
      "d": 2179.6875,
      "v": 70
    },
    {
      "midi": 66,
      "hit": false,
      "t": 51750,
      "d": 2179.6875,
      "v": 70
    },
    {
      "midi": 69,
      "hit": false,
      "t": 51750,
      "d": 2179.6875,
      "v": 70
    },
    {
      "midi": 55,
      "hit": false,
      "t": 54000,
      "d": 2179.6875,
      "v": 70
    },
    {
      "midi": 59,
      "hit": false,
      "t": 54000,
      "d": 2179.6875,
      "v": 70
    },
    {
      "midi": 62,
      "hit": false,
      "t": 54000,
      "d": 2179.6875,
      "v": 70
    },
    {
      "midi": 55,
      "hit": false,
      "t": 56250,
      "d": 2179.6875,
      "v": 70
    },
    {
      "midi": 59,
      "hit": false,
      "t": 56250,
      "d": 2179.6875,
      "v": 70
    },
    {
      "midi": 62,
      "hit": false,
      "t": 56250,
      "d": 2179.6875,
      "v": 70
    },
    {
      "midi": 61,
      "hit": false,
      "t": 58500,
      "d": 2250,
      "v": 85
    },
    {
      "midi": 67,
      "hit": false,
      "t": 58500,
      "d": 2250,
      "v": 85
    },
    {
      "midi": 64,
      "hit": false,
      "t": 59628.90625,
      "d": 191.40625,
      "v": 89
    },
    {
      "midi": 69,
      "hit": false,
      "t": 59628.90625,
      "d": 1121.09375,
      "v": 87
    },
    {
      "midi": 66,
      "hit": false,
      "t": 59796.875,
      "d": 281.25,
      "v": 66
    },
    {
      "midi": 64,
      "hit": false,
      "t": 60054.6875,
      "d": 695.3125,
      "v": 64
    },
    {
      "midi": 61,
      "hit": false,
      "t": 60750,
      "d": 2179.6875,
      "v": 70
    },
    {
      "midi": 64,
      "hit": false,
      "t": 60750,
      "d": 2179.6875,
      "v": 70
    },
    {
      "midi": 67,
      "hit": false,
      "t": 60750,
      "d": 2179.6875,
      "v": 70
    },
    {
      "midi": 69,
      "hit": false,
      "t": 60750,
      "d": 2179.6875,
      "v": 70
    },
    {
      "midi": 61,
      "hit": false,
      "t": 63000,
      "d": 2250,
      "v": 85
    },
    {
      "midi": 67,
      "hit": false,
      "t": 63000,
      "d": 2250,
      "v": 85
    },
    {
      "midi": 64,
      "hit": false,
      "t": 64128.90625,
      "d": 191.40625,
      "v": 89
    },
    {
      "midi": 69,
      "hit": false,
      "t": 64128.90625,
      "d": 1121.09375,
      "v": 87
    },
    {
      "midi": 66,
      "hit": false,
      "t": 64296.875,
      "d": 281.25,
      "v": 66
    },
    {
      "midi": 64,
      "hit": false,
      "t": 64554.6875,
      "d": 695.3125,
      "v": 64
    },
    {
      "midi": 61,
      "hit": false,
      "t": 65625,
      "d": 292.96875,
      "v": 73
    },
    {
      "midi": 64,
      "hit": false,
      "t": 65625,
      "d": 292.96875,
      "v": 73
    },
    {
      "midi": 67,
      "hit": false,
      "t": 65625,
      "d": 292.96875,
      "v": 73
    },
    {
      "midi": 69,
      "hit": false,
      "t": 65625,
      "d": 292.96875,
      "v": 73
    },
    {
      "midi": 61,
      "hit": false,
      "t": 66000,
      "d": 375,
      "v": 68
    },
    {
      "midi": 64,
      "hit": false,
      "t": 66000,
      "d": 375,
      "v": 68
    },
    {
      "midi": 67,
      "hit": false,
      "t": 66000,
      "d": 375,
      "v": 68
    },
    {
      "midi": 69,
      "hit": false,
      "t": 66000,
      "d": 375,
      "v": 68
    },
    {
      "midi": 57,
      "hit": false,
      "t": 66750,
      "d": 292.96875,
      "v": 73
    },
    {
      "midi": 62,
      "hit": false,
      "t": 66750,
      "d": 292.96875,
      "v": 73
    },
    {
      "midi": 66,
      "hit": false,
      "t": 66750,
      "d": 292.96875,
      "v": 73
    },
    {
      "midi": 57,
      "hit": false,
      "t": 67125,
      "d": 375,
      "v": 68
    },
    {
      "midi": 62,
      "hit": false,
      "t": 67125,
      "d": 375,
      "v": 68
    },
    {
      "midi": 66,
      "hit": false,
      "t": 67125,
      "d": 375,
      "v": 68
    },
    {
      "midi": 57,
      "hit": false,
      "t": 67500,
      "d": 1125,
      "v": 70
    },
    {
      "midi": 62,
      "hit": false,
      "t": 67500,
      "d": 1125,
      "v": 70
    },
    {
      "midi": 66,
      "hit": false,
      "t": 67500,
      "d": 1125,
      "v": 70
    },
    {
      "midi": 57,
      "hit": false,
      "t": 68625,
      "d": 2250,
      "v": 85
    },
    {
      "midi": 62,
      "hit": false,
      "t": 68625,
      "d": 2250,
      "v": 85
    },
    {
      "midi": 66,
      "hit": false,
      "t": 68625,
      "d": 2250,
      "v": 85
    },
    {
      "midi": 69,
      "hit": false,
      "t": 69753.90625,
      "d": 191.40625,
      "v": 89
    },
    {
      "midi": 74,
      "hit": false,
      "t": 69753.90625,
      "d": 1121.09375,
      "v": 87
    },
    {
      "midi": 71,
      "hit": false,
      "t": 69921.875,
      "d": 281.25,
      "v": 66
    },
    {
      "midi": 69,
      "hit": false,
      "t": 70179.6875,
      "d": 695.3125,
      "v": 64
    },
    {
      "midi": 60,
      "hit": false,
      "t": 70875,
      "d": 2179.6875,
      "v": 70
    },
    {
      "midi": 62,
      "hit": false,
      "t": 70875,
      "d": 2179.6875,
      "v": 70
    },
    {
      "midi": 66,
      "hit": false,
      "t": 70875,
      "d": 2179.6875,
      "v": 70
    },
    {
      "midi": 69,
      "hit": false,
      "t": 70875,
      "d": 2179.6875,
      "v": 70
    },
    {
      "midi": 55,
      "hit": false,
      "t": 73125,
      "d": 2179.6875,
      "v": 70
    },
    {
      "midi": 59,
      "hit": false,
      "t": 73125,
      "d": 2179.6875,
      "v": 70
    },
    {
      "midi": 62,
      "hit": false,
      "t": 73125,
      "d": 2179.6875,
      "v": 70
    },
    {
      "midi": 55,
      "hit": false,
      "t": 75375,
      "d": 2250,
      "v": 85
    },
    {
      "midi": 59,
      "hit": false,
      "t": 75375,
      "d": 2250,
      "v": 85
    },
    {
      "midi": 62,
      "hit": false,
      "t": 76503.90625,
      "d": 191.40625,
      "v": 89
    },
    {
      "midi": 67,
      "hit": false,
      "t": 76503.90625,
      "d": 1121.09375,
      "v": 87
    },
    {
      "midi": 64,
      "hit": false,
      "t": 76671.875,
      "d": 281.25,
      "v": 66
    },
    {
      "midi": 62,
      "hit": false,
      "t": 76929.6875,
      "d": 695.3125,
      "v": 64
    },
    {
      "midi": 61,
      "hit": false,
      "t": 77625,
      "d": 2179.6875,
      "v": 70
    },
    {
      "midi": 64,
      "hit": false,
      "t": 77625,
      "d": 2179.6875,
      "v": 70
    },
    {
      "midi": 67,
      "hit": false,
      "t": 77625,
      "d": 2179.6875,
      "v": 70
    },
    {
      "midi": 69,
      "hit": false,
      "t": 77625,
      "d": 2179.6875,
      "v": 70
    },
    {
      "midi": 61,
      "hit": false,
      "t": 79875,
      "d": 2250,
      "v": 85
    },
    {
      "midi": 67,
      "hit": false,
      "t": 79875,
      "d": 2250,
      "v": 85
    },
    {
      "midi": 64,
      "hit": false,
      "t": 81003.90625,
      "d": 191.40625,
      "v": 89
    },
    {
      "midi": 69,
      "hit": false,
      "t": 81003.90625,
      "d": 1121.09375,
      "v": 87
    },
    {
      "midi": 66,
      "hit": false,
      "t": 81171.875,
      "d": 281.25,
      "v": 66
    },
    {
      "midi": 64,
      "hit": false,
      "t": 81429.6875,
      "d": 695.3125,
      "v": 64
    },
    {
      "midi": 61,
      "hit": false,
      "t": 82125,
      "d": 2179.6875,
      "v": 70
    },
    {
      "midi": 64,
      "hit": false,
      "t": 82125,
      "d": 2179.6875,
      "v": 70
    },
    {
      "midi": 67,
      "hit": false,
      "t": 82125,
      "d": 2179.6875,
      "v": 70
    },
    {
      "midi": 69,
      "hit": false,
      "t": 82125,
      "d": 2179.6875,
      "v": 70
    },
    {
      "midi": 57,
      "hit": false,
      "t": 84375,
      "d": 2179.6875,
      "v": 70
    },
    {
      "midi": 62,
      "hit": false,
      "t": 84375,
      "d": 2179.6875,
      "v": 70
    },
    {
      "midi": 66,
      "hit": false,
      "t": 84375,
      "d": 2179.6875,
      "v": 70
    },
    {
      "midi": 57,
      "hit": false,
      "t": 86625,
      "d": 2179.6875,
      "v": 70
    },
    {
      "midi": 62,
      "hit": false,
      "t": 86625,
      "d": 2179.6875,
      "v": 70
    },
    {
      "midi": 66,
      "hit": false,
      "t": 86625,
      "d": 2179.6875,
      "v": 70
    },
    {
      "midi": 56,
      "hit": false,
      "t": 88875,
      "d": 2250,
      "v": 85
    },
    {
      "midi": 59,
      "hit": false,
      "t": 88875,
      "d": 2250,
      "v": 85
    },
    {
      "midi": 64,
      "hit": false,
      "t": 88875,
      "d": 2250,
      "v": 85
    },
    {
      "midi": 71,
      "hit": false,
      "t": 90003.90625,
      "d": 191.40625,
      "v": 89
    },
    {
      "midi": 76,
      "hit": false,
      "t": 90003.90625,
      "d": 1121.09375,
      "v": 87
    },
    {
      "midi": 73,
      "hit": false,
      "t": 90171.875,
      "d": 281.25,
      "v": 66
    },
    {
      "midi": 71,
      "hit": false,
      "t": 90429.6875,
      "d": 695.3125,
      "v": 64
    },
    {
      "midi": 59,
      "hit": false,
      "t": 91125,
      "d": 2250,
      "v": 85
    },
    {
      "midi": 62,
      "hit": false,
      "t": 91125,
      "d": 2250,
      "v": 85
    },
    {
      "midi": 64,
      "hit": false,
      "t": 91125,
      "d": 2250,
      "v": 85
    },
    {
      "midi": 68,
      "hit": false,
      "t": 91125,
      "d": 2250,
      "v": 85
    },
    {
      "midi": 71,
      "hit": false,
      "t": 92253.90625,
      "d": 191.40625,
      "v": 89
    },
    {
      "midi": 76,
      "hit": false,
      "t": 92253.90625,
      "d": 1121.09375,
      "v": 87
    },
    {
      "midi": 73,
      "hit": false,
      "t": 92421.875,
      "d": 281.25,
      "v": 66
    },
    {
      "midi": 71,
      "hit": false,
      "t": 92679.6875,
      "d": 695.3125,
      "v": 64
    },
    {
      "midi": 57,
      "hit": false,
      "t": 93375,
      "d": 2250,
      "v": 85
    },
    {
      "midi": 61,
      "hit": false,
      "t": 93375,
      "d": 2250,
      "v": 85
    },
    {
      "midi": 64,
      "hit": false,
      "t": 94503.90625,
      "d": 191.40625,
      "v": 89
    },
    {
      "midi": 69,
      "hit": false,
      "t": 94503.90625,
      "d": 1121.09375,
      "v": 87
    },
    {
      "midi": 66,
      "hit": false,
      "t": 94671.875,
      "d": 281.25,
      "v": 66
    },
    {
      "midi": 64,
      "hit": false,
      "t": 94929.6875,
      "d": 695.3125,
      "v": 64
    },
    {
      "midi": 57,
      "hit": false,
      "t": 95625,
      "d": 2250,
      "v": 85
    },
    {
      "midi": 61,
      "hit": false,
      "t": 95625,
      "d": 2250,
      "v": 85
    },
    {
      "midi": 64,
      "hit": false,
      "t": 96753.90625,
      "d": 191.40625,
      "v": 89
    },
    {
      "midi": 69,
      "hit": false,
      "t": 96753.90625,
      "d": 1121.09375,
      "v": 87
    },
    {
      "midi": 66,
      "hit": false,
      "t": 96921.875,
      "d": 281.25,
      "v": 66
    },
    {
      "midi": 64,
      "hit": false,
      "t": 97179.6875,
      "d": 695.3125,
      "v": 64
    },
    {
      "midi": 57,
      "hit": false,
      "t": 97875,
      "d": 2250,
      "v": 85
    },
    {
      "midi": 59,
      "hit": false,
      "t": 97875,
      "d": 2250,
      "v": 85
    },
    {
      "midi": 63,
      "hit": false,
      "t": 97875,
      "d": 2250,
      "v": 85
    },
    {
      "midi": 66,
      "hit": false,
      "t": 99003.90625,
      "d": 191.40625,
      "v": 89
    },
    {
      "midi": 71,
      "hit": false,
      "t": 99003.90625,
      "d": 1121.09375,
      "v": 87
    },
    {
      "midi": 68,
      "hit": false,
      "t": 99125,
      "d": 277.34375,
      "v": 66
    },
    {
      "midi": 66,
      "hit": false,
      "t": 99429.6875,
      "d": 695.3125,
      "v": 64
    },
    {
      "midi": 63,
      "hit": false,
      "t": 100125,
      "d": 2250,
      "v": 85
    },
    {
      "midi": 69,
      "hit": false,
      "t": 100125,
      "d": 2250,
      "v": 85
    },
    {
      "midi": 66,
      "hit": false,
      "t": 101253.90625,
      "d": 191.40625,
      "v": 89
    },
    {
      "midi": 71,
      "hit": false,
      "t": 101253.90625,
      "d": 1121.09375,
      "v": 87
    },
    {
      "midi": 68,
      "hit": false,
      "t": 101421.875,
      "d": 281.25,
      "v": 66
    },
    {
      "midi": 66,
      "hit": false,
      "t": 101679.6875,
      "d": 695.3125,
      "v": 64
    },
    {
      "midi": 56,
      "hit": false,
      "t": 102375,
      "d": 2250,
      "v": 85
    },
    {
      "midi": 59,
      "hit": false,
      "t": 102375,
      "d": 2250,
      "v": 85
    },
    {
      "midi": 64,
      "hit": false,
      "t": 102375,
      "d": 2250,
      "v": 85
    },
    {
      "midi": 71,
      "hit": false,
      "t": 103503.90625,
      "d": 191.40625,
      "v": 89
    },
    {
      "midi": 76,
      "hit": false,
      "t": 103503.90625,
      "d": 1121.09375,
      "v": 87
    },
    {
      "midi": 73,
      "hit": false,
      "t": 103671.875,
      "d": 281.25,
      "v": 66
    },
    {
      "midi": 71,
      "hit": false,
      "t": 103929.6875,
      "d": 695.3125,
      "v": 64
    },
    {
      "midi": 56,
      "hit": false,
      "t": 104625,
      "d": 2250,
      "v": 85
    },
    {
      "midi": 59,
      "hit": false,
      "t": 104625,
      "d": 2250,
      "v": 85
    },
    {
      "midi": 64,
      "hit": false,
      "t": 104625,
      "d": 2250,
      "v": 85
    },
    {
      "midi": 71,
      "hit": false,
      "t": 105753.90625,
      "d": 191.40625,
      "v": 89
    },
    {
      "midi": 76,
      "hit": false,
      "t": 105753.90625,
      "d": 1121.09375,
      "v": 87
    },
    {
      "midi": 73,
      "hit": false,
      "t": 105921.875,
      "d": 281.25,
      "v": 66
    },
    {
      "midi": 71,
      "hit": false,
      "t": 106179.6875,
      "d": 695.3125,
      "v": 64
    },
    {
      "midi": 56,
      "hit": false,
      "t": 106875,
      "d": 2179.6875,
      "v": 70
    },
    {
      "midi": 59,
      "hit": false,
      "t": 106875,
      "d": 2179.6875,
      "v": 70
    },
    {
      "midi": 64,
      "hit": false,
      "t": 106875,
      "d": 2179.6875,
      "v": 70
    },
    {
      "midi": 59,
      "hit": false,
      "t": 109125,
      "d": 2179.6875,
      "v": 70
    },
    {
      "midi": 62,
      "hit": false,
      "t": 109125,
      "d": 2179.6875,
      "v": 70
    },
    {
      "midi": 64,
      "hit": false,
      "t": 109125,
      "d": 2179.6875,
      "v": 70
    },
    {
      "midi": 68,
      "hit": false,
      "t": 109125,
      "d": 2179.6875,
      "v": 70
    },
    {
      "midi": 57,
      "hit": false,
      "t": 111375,
      "d": 2250,
      "v": 85
    },
    {
      "midi": 61,
      "hit": false,
      "t": 111375,
      "d": 2250,
      "v": 85
    },
    {
      "midi": 64,
      "hit": false,
      "t": 112503.90625,
      "d": 191.40625,
      "v": 89
    },
    {
      "midi": 69,
      "hit": false,
      "t": 112503.90625,
      "d": 1121.09375,
      "v": 87
    },
    {
      "midi": 66,
      "hit": false,
      "t": 112671.875,
      "d": 281.25,
      "v": 66
    },
    {
      "midi": 64,
      "hit": false,
      "t": 112929.6875,
      "d": 695.3125,
      "v": 64
    },
    {
      "midi": 57,
      "hit": false,
      "t": 113625,
      "d": 2179.6875,
      "v": 70
    },
    {
      "midi": 61,
      "hit": false,
      "t": 113625,
      "d": 2179.6875,
      "v": 70
    },
    {
      "midi": 64,
      "hit": false,
      "t": 113625,
      "d": 2179.6875,
      "v": 70
    },
    {
      "midi": 57,
      "hit": false,
      "t": 115875,
      "d": 2179.6875,
      "v": 70
    },
    {
      "midi": 59,
      "hit": false,
      "t": 115875,
      "d": 2179.6875,
      "v": 70
    },
    {
      "midi": 63,
      "hit": false,
      "t": 115875,
      "d": 2179.6875,
      "v": 70
    },
    {
      "midi": 66,
      "hit": false,
      "t": 115875,
      "d": 2179.6875,
      "v": 70
    },
    {
      "midi": 57,
      "hit": false,
      "t": 118125,
      "d": 2179.6875,
      "v": 70
    },
    {
      "midi": 59,
      "hit": false,
      "t": 118125,
      "d": 2179.6875,
      "v": 70
    },
    {
      "midi": 63,
      "hit": false,
      "t": 118125,
      "d": 2179.6875,
      "v": 70
    },
    {
      "midi": 66,
      "hit": false,
      "t": 118125,
      "d": 2179.6875,
      "v": 70
    },
    {
      "midi": 57,
      "hit": false,
      "t": 120375,
      "d": 2179.6875,
      "v": 70
    },
    {
      "midi": 59,
      "hit": false,
      "t": 120375,
      "d": 2179.6875,
      "v": 70
    },
    {
      "midi": 63,
      "hit": false,
      "t": 120375,
      "d": 2179.6875,
      "v": 70
    },
    {
      "midi": 66,
      "hit": false,
      "t": 120375,
      "d": 2179.6875,
      "v": 70
    },
    {
      "midi": 56,
      "hit": false,
      "t": 122625,
      "d": 2250,
      "v": 85
    },
    {
      "midi": 59,
      "hit": false,
      "t": 122625,
      "d": 2250,
      "v": 85
    },
    {
      "midi": 64,
      "hit": false,
      "t": 122625,
      "d": 2250,
      "v": 85
    },
    {
      "midi": 71,
      "hit": false,
      "t": 123753.90625,
      "d": 191.40625,
      "v": 89
    },
    {
      "midi": 76,
      "hit": false,
      "t": 123753.90625,
      "d": 1121.09375,
      "v": 87
    },
    {
      "midi": 73,
      "hit": false,
      "t": 123921.875,
      "d": 281.25,
      "v": 66
    },
    {
      "midi": 71,
      "hit": false,
      "t": 124179.6875,
      "d": 695.3125,
      "v": 64
    },
    {
      "midi": 56,
      "hit": false,
      "t": 124875,
      "d": 2179.6875,
      "v": 70
    },
    {
      "midi": 59,
      "hit": false,
      "t": 124875,
      "d": 2179.6875,
      "v": 70
    },
    {
      "midi": 64,
      "hit": false,
      "t": 124875,
      "d": 2179.6875,
      "v": 70
    },
    {
      "midi": 56,
      "hit": false,
      "t": 127125,
      "d": 2250,
      "v": 85
    },
    {
      "midi": 59,
      "hit": false,
      "t": 127125,
      "d": 2250,
      "v": 85
    },
    {
      "midi": 64,
      "hit": false,
      "t": 127125,
      "d": 2250,
      "v": 85
    },
    {
      "midi": 71,
      "hit": false,
      "t": 128253.90625,
      "d": 191.40625,
      "v": 89
    },
    {
      "midi": 76,
      "hit": false,
      "t": 128253.90625,
      "d": 1121.09375,
      "v": 87
    },
    {
      "midi": 73,
      "hit": false,
      "t": 128421.875,
      "d": 281.25,
      "v": 66
    },
    {
      "midi": 71,
      "hit": false,
      "t": 128679.6875,
      "d": 695.3125,
      "v": 64
    },
    {
      "midi": 59,
      "hit": false,
      "t": 129375,
      "d": 2250,
      "v": 85
    },
    {
      "midi": 62,
      "hit": false,
      "t": 129375,
      "d": 2250,
      "v": 85
    },
    {
      "midi": 64,
      "hit": false,
      "t": 129375,
      "d": 2250,
      "v": 85
    },
    {
      "midi": 68,
      "hit": false,
      "t": 129375,
      "d": 2250,
      "v": 85
    },
    {
      "midi": 71,
      "hit": false,
      "t": 130503.90625,
      "d": 191.40625,
      "v": 89
    },
    {
      "midi": 76,
      "hit": false,
      "t": 130503.90625,
      "d": 1121.09375,
      "v": 87
    },
    {
      "midi": 73,
      "hit": false,
      "t": 130671.875,
      "d": 281.25,
      "v": 66
    },
    {
      "midi": 71,
      "hit": false,
      "t": 130929.6875,
      "d": 695.3125,
      "v": 64
    },
    {
      "midi": 57,
      "hit": false,
      "t": 131625,
      "d": 2250,
      "v": 85
    },
    {
      "midi": 61,
      "hit": false,
      "t": 131625,
      "d": 2250,
      "v": 85
    },
    {
      "midi": 64,
      "hit": false,
      "t": 132753.90625,
      "d": 191.40625,
      "v": 89
    },
    {
      "midi": 69,
      "hit": false,
      "t": 132753.90625,
      "d": 1121.09375,
      "v": 87
    },
    {
      "midi": 66,
      "hit": false,
      "t": 132921.875,
      "d": 281.25,
      "v": 66
    },
    {
      "midi": 64,
      "hit": false,
      "t": 133179.6875,
      "d": 695.3125,
      "v": 64
    },
    {
      "midi": 57,
      "hit": false,
      "t": 133875,
      "d": 2179.6875,
      "v": 70
    },
    {
      "midi": 61,
      "hit": false,
      "t": 133875,
      "d": 2179.6875,
      "v": 70
    },
    {
      "midi": 64,
      "hit": false,
      "t": 133875,
      "d": 2179.6875,
      "v": 70
    },
    {
      "midi": 57,
      "hit": false,
      "t": 136125,
      "d": 2179.6875,
      "v": 70
    },
    {
      "midi": 59,
      "hit": false,
      "t": 136125,
      "d": 2179.6875,
      "v": 70
    },
    {
      "midi": 63,
      "hit": false,
      "t": 136125,
      "d": 2179.6875,
      "v": 70
    },
    {
      "midi": 66,
      "hit": false,
      "t": 136125,
      "d": 2179.6875,
      "v": 70
    },
    {
      "midi": 57,
      "hit": false,
      "t": 138375,
      "d": 2250,
      "v": 85
    },
    {
      "midi": 59,
      "hit": false,
      "t": 138375,
      "d": 2250,
      "v": 85
    },
    {
      "midi": 63,
      "hit": false,
      "t": 138375,
      "d": 2250,
      "v": 85
    },
    {
      "midi": 66,
      "hit": false,
      "t": 139503.90625,
      "d": 191.40625,
      "v": 89
    },
    {
      "midi": 71,
      "hit": false,
      "t": 139503.90625,
      "d": 1121.09375,
      "v": 87
    },
    {
      "midi": 68,
      "hit": false,
      "t": 139671.875,
      "d": 281.25,
      "v": 66
    },
    {
      "midi": 66,
      "hit": false,
      "t": 139929.6875,
      "d": 695.3125,
      "v": 64
    },
    {
      "midi": 57,
      "hit": false,
      "t": 140625,
      "d": 2250,
      "v": 85
    },
    {
      "midi": 59,
      "hit": false,
      "t": 140625,
      "d": 2250,
      "v": 85
    },
    {
      "midi": 63,
      "hit": false,
      "t": 140625,
      "d": 2250,
      "v": 85
    },
    {
      "midi": 66,
      "hit": false,
      "t": 141753.90625,
      "d": 191.40625,
      "v": 89
    },
    {
      "midi": 71,
      "hit": false,
      "t": 141753.90625,
      "d": 1121.09375,
      "v": 87
    },
    {
      "midi": 68,
      "hit": false,
      "t": 141921.875,
      "d": 281.25,
      "v": 66
    },
    {
      "midi": 66,
      "hit": false,
      "t": 142179.6875,
      "d": 695.3125,
      "v": 64
    },
    {
      "midi": 47,
      "hit": false,
      "t": 142875,
      "d": 132.8125,
      "v": 79
    },
    {
      "midi": 73,
      "hit": false,
      "t": 142875,
      "d": 335.9375,
      "v": 80
    },
    {
      "midi": 69,
      "hit": false,
      "t": 142875,
      "d": 343.75,
      "v": 80
    },
    {
      "midi": 63,
      "hit": false,
      "t": 143250,
      "d": 93.75,
      "v": 59
    },
    {
      "midi": 57,
      "hit": false,
      "t": 143250,
      "d": 125,
      "v": 82
    },
    {
      "midi": 54,
      "hit": false,
      "t": 143250,
      "d": 152.34375,
      "v": 41
    },
    {
      "midi": 71,
      "hit": false,
      "t": 143250,
      "d": 234.375,
      "v": 73
    },
    {
      "midi": 68,
      "hit": false,
      "t": 143250,
      "d": 242.1875,
      "v": 66
    },
    {
      "midi": 57,
      "hit": false,
      "t": 143625,
      "d": 277.34375,
      "v": 74
    },
    {
      "midi": 54,
      "hit": false,
      "t": 143625,
      "d": 312.5,
      "v": 48
    },
    {
      "midi": 63,
      "hit": false,
      "t": 143625,
      "d": 312.5,
      "v": 55
    },
    {
      "midi": 69,
      "hit": false,
      "t": 143625,
      "d": 312.5,
      "v": 79
    },
    {
      "midi": 66,
      "hit": false,
      "t": 143625,
      "d": 335.9375,
      "v": 76
    },
    {
      "midi": 56,
      "hit": false,
      "t": 144000,
      "d": 1125,
      "v": 70
    },
    {
      "midi": 59,
      "hit": false,
      "t": 144000,
      "d": 1125,
      "v": 70
    },
    {
      "midi": 64,
      "hit": false,
      "t": 144000,
      "d": 1125,
      "v": 70
    },
    {
      "midi": 56,
      "hit": false,
      "t": 145125,
      "d": 625,
      "v": 66
    },
    {
      "midi": 59,
      "hit": false,
      "t": 145125,
      "d": 625,
      "v": 66
    },
    {
      "midi": 64,
      "hit": false,
      "t": 145125,
      "d": 625,
      "v": 66
    },
    {
      "midi": 56,
      "hit": false,
      "t": 145875,
      "d": 234.375,
      "v": 75
    },
    {
      "midi": 59,
      "hit": false,
      "t": 145875,
      "d": 234.375,
      "v": 75
    },
    {
      "midi": 64,
      "hit": false,
      "t": 145875,
      "d": 234.375,
      "v": 75
    },
    {
      "midi": 56,
      "hit": false,
      "t": 146250,
      "d": 2179.6875,
      "v": 70
    },
    {
      "midi": 59,
      "hit": false,
      "t": 146250,
      "d": 2179.6875,
      "v": 70
    },
    {
      "midi": 64,
      "hit": false,
      "t": 146250,
      "d": 2179.6875,
      "v": 70
    },
    {
      "midi": 59,
      "hit": false,
      "t": 148500,
      "d": 2250,
      "v": 85
    },
    {
      "midi": 62,
      "hit": false,
      "t": 148500,
      "d": 2250,
      "v": 85
    },
    {
      "midi": 64,
      "hit": false,
      "t": 148500,
      "d": 2250,
      "v": 85
    },
    {
      "midi": 68,
      "hit": false,
      "t": 148500,
      "d": 2250,
      "v": 85
    },
    {
      "midi": 71,
      "hit": false,
      "t": 149628.90625,
      "d": 191.40625,
      "v": 89
    },
    {
      "midi": 76,
      "hit": false,
      "t": 149628.90625,
      "d": 1121.09375,
      "v": 87
    },
    {
      "midi": 73,
      "hit": false,
      "t": 149796.875,
      "d": 281.25,
      "v": 66
    },
    {
      "midi": 71,
      "hit": false,
      "t": 150054.6875,
      "d": 695.3125,
      "v": 64
    },
    {
      "midi": 57,
      "hit": false,
      "t": 150750,
      "d": 2179.6875,
      "v": 70
    },
    {
      "midi": 61,
      "hit": false,
      "t": 150750,
      "d": 2179.6875,
      "v": 70
    },
    {
      "midi": 64,
      "hit": false,
      "t": 150750,
      "d": 2179.6875,
      "v": 70
    },
    {
      "midi": 57,
      "hit": false,
      "t": 153000,
      "d": 2250,
      "v": 85
    },
    {
      "midi": 61,
      "hit": false,
      "t": 153000,
      "d": 2250,
      "v": 85
    },
    {
      "midi": 64,
      "hit": false,
      "t": 154128.90625,
      "d": 191.40625,
      "v": 89
    },
    {
      "midi": 69,
      "hit": false,
      "t": 154128.90625,
      "d": 1121.09375,
      "v": 87
    },
    {
      "midi": 66,
      "hit": false,
      "t": 154296.875,
      "d": 281.25,
      "v": 66
    },
    {
      "midi": 64,
      "hit": false,
      "t": 154554.6875,
      "d": 695.3125,
      "v": 64
    },
    {
      "midi": 57,
      "hit": false,
      "t": 155250,
      "d": 2179.6875,
      "v": 70
    },
    {
      "midi": 59,
      "hit": false,
      "t": 155250,
      "d": 2179.6875,
      "v": 70
    },
    {
      "midi": 63,
      "hit": false,
      "t": 155250,
      "d": 2179.6875,
      "v": 70
    },
    {
      "midi": 66,
      "hit": false,
      "t": 155250,
      "d": 2179.6875,
      "v": 70
    },
    {
      "midi": 57,
      "hit": false,
      "t": 157500,
      "d": 2250,
      "v": 85
    },
    {
      "midi": 59,
      "hit": false,
      "t": 157500,
      "d": 2250,
      "v": 85
    },
    {
      "midi": 63,
      "hit": false,
      "t": 157500,
      "d": 2250,
      "v": 85
    },
    {
      "midi": 66,
      "hit": false,
      "t": 158628.90625,
      "d": 191.40625,
      "v": 89
    },
    {
      "midi": 71,
      "hit": false,
      "t": 158628.90625,
      "d": 1121.09375,
      "v": 87
    },
    {
      "midi": 68,
      "hit": false,
      "t": 158796.875,
      "d": 281.25,
      "v": 66
    },
    {
      "midi": 66,
      "hit": false,
      "t": 159054.6875,
      "d": 695.3125,
      "v": 64
    },
    {
      "midi": 57,
      "hit": false,
      "t": 159750,
      "d": 2250,
      "v": 85
    },
    {
      "midi": 59,
      "hit": false,
      "t": 159750,
      "d": 2250,
      "v": 85
    },
    {
      "midi": 63,
      "hit": false,
      "t": 159750,
      "d": 2250,
      "v": 85
    },
    {
      "midi": 66,
      "hit": false,
      "t": 160878.90625,
      "d": 191.40625,
      "v": 89
    },
    {
      "midi": 71,
      "hit": false,
      "t": 160878.90625,
      "d": 1121.09375,
      "v": 87
    },
    {
      "midi": 68,
      "hit": false,
      "t": 161046.875,
      "d": 281.25,
      "v": 66
    },
    {
      "midi": 66,
      "hit": false,
      "t": 161304.6875,
      "d": 695.3125,
      "v": 64
    },
    {
      "midi": 56,
      "hit": false,
      "t": 162000,
      "d": 2250,
      "v": 85
    },
    {
      "midi": 59,
      "hit": false,
      "t": 162000,
      "d": 2250,
      "v": 85
    },
    {
      "midi": 64,
      "hit": false,
      "t": 162000,
      "d": 2250,
      "v": 85
    },
    {
      "midi": 71,
      "hit": false,
      "t": 163128.90625,
      "d": 191.40625,
      "v": 89
    },
    {
      "midi": 76,
      "hit": false,
      "t": 163128.90625,
      "d": 1121.09375,
      "v": 87
    },
    {
      "midi": 73,
      "hit": false,
      "t": 163296.875,
      "d": 281.25,
      "v": 66
    },
    {
      "midi": 71,
      "hit": false,
      "t": 163554.6875,
      "d": 695.3125,
      "v": 64
    },
    {
      "midi": 56,
      "hit": false,
      "t": 164250,
      "d": 2250,
      "v": 85
    },
    {
      "midi": 59,
      "hit": false,
      "t": 164250,
      "d": 2250,
      "v": 85
    },
    {
      "midi": 64,
      "hit": false,
      "t": 164250,
      "d": 2250,
      "v": 85
    },
    {
      "midi": 71,
      "hit": false,
      "t": 165378.90625,
      "d": 191.40625,
      "v": 89
    },
    {
      "midi": 76,
      "hit": false,
      "t": 165378.90625,
      "d": 1121.09375,
      "v": 87
    },
    {
      "midi": 73,
      "hit": false,
      "t": 165546.875,
      "d": 281.25,
      "v": 66
    },
    {
      "midi": 71,
      "hit": false,
      "t": 165804.6875,
      "d": 695.3125,
      "v": 64
    },
    {
      "midi": 57,
      "hit": false,
      "t": 166500,
      "d": 2179.6875,
      "v": 70
    },
    {
      "midi": 59,
      "hit": false,
      "t": 166500,
      "d": 2179.6875,
      "v": 70
    },
    {
      "midi": 63,
      "hit": false,
      "t": 166500,
      "d": 2179.6875,
      "v": 70
    },
    {
      "midi": 66,
      "hit": false,
      "t": 166500,
      "d": 2179.6875,
      "v": 70
    },
    {
      "midi": 57,
      "hit": false,
      "t": 168750,
      "d": 2250,
      "v": 85
    },
    {
      "midi": 59,
      "hit": false,
      "t": 168750,
      "d": 2250,
      "v": 85
    },
    {
      "midi": 63,
      "hit": false,
      "t": 168750,
      "d": 2250,
      "v": 85
    },
    {
      "midi": 66,
      "hit": false,
      "t": 169878.90625,
      "d": 191.40625,
      "v": 89
    },
    {
      "midi": 71,
      "hit": false,
      "t": 169878.90625,
      "d": 1121.09375,
      "v": 87
    },
    {
      "midi": 68,
      "hit": false,
      "t": 170046.875,
      "d": 281.25,
      "v": 66
    },
    {
      "midi": 66,
      "hit": false,
      "t": 170304.6875,
      "d": 695.3125,
      "v": 64
    },
    {
      "midi": 57,
      "hit": false,
      "t": 171000,
      "d": 2179.6875,
      "v": 70
    },
    {
      "midi": 59,
      "hit": false,
      "t": 171000,
      "d": 2179.6875,
      "v": 70
    },
    {
      "midi": 63,
      "hit": false,
      "t": 171000,
      "d": 2179.6875,
      "v": 70
    },
    {
      "midi": 66,
      "hit": false,
      "t": 171000,
      "d": 2179.6875,
      "v": 70
    },
    {
      "midi": 56,
      "hit": false,
      "t": 173250,
      "d": 1125,
      "v": 70
    },
    {
      "midi": 59,
      "hit": false,
      "t": 173250,
      "d": 1125,
      "v": 70
    },
    {
      "midi": 64,
      "hit": false,
      "t": 173250,
      "d": 1125,
      "v": 70
    },
    {
      "midi": 56,
      "hit": false,
      "t": 174750,
      "d": 292.96875,
      "v": 73
    },
    {
      "midi": 59,
      "hit": false,
      "t": 174750,
      "d": 292.96875,
      "v": 73
    },
    {
      "midi": 64,
      "hit": false,
      "t": 174750,
      "d": 292.96875,
      "v": 73
    },
    {
      "midi": 56,
      "hit": false,
      "t": 175125,
      "d": 375,
      "v": 68
    },
    {
      "midi": 59,
      "hit": false,
      "t": 175125,
      "d": 375,
      "v": 68
    },
    {
      "midi": 64,
      "hit": false,
      "t": 175125,
      "d": 375,
      "v": 68
    },
    {
      "midi": 56,
      "hit": false,
      "t": 175500,
      "d": 1687.5,
      "v": 89
    },
    {
      "midi": 59,
      "hit": false,
      "t": 175500,
      "d": 1687.5,
      "v": 89
    },
    {
      "midi": 64,
      "hit": false,
      "t": 175500,
      "d": 1687.5,
      "v": 89
    }
  ]
}