{
  "jsonPath": "Animes/Slayers MIDI Collection/alone.json",
  "path": "Animes\\Slayers MIDI Collection\\Alone.mid",
  "name": "Alone",
  "difficulty": "Advanced",
  "bpm": 500,
  "notes": [
    {
      "midi": 82,
      "hit": false,
      "t": 480,
      "d": 900,
      "v": 74
    },
    {
      "midi": 59,
      "hit": false,
      "t": 480,
      "d": 2400,
      "v": 107
    },
    {
      "midi": 75,
      "hit": false,
      "t": 480,
      "d": 2400,
      "v": 74
    },
    {
      "midi": 78,
      "hit": false,
      "t": 480,
      "d": 2400,
      "v": 74
    },
    {
      "midi": 87,
      "hit": false,
      "t": 1380,
      "d": 900,
      "v": 107
    },
    {
      "midi": 82,
      "hit": false,
      "t": 2280,
      "d": 600,
      "v": 107
    },
    {
      "midi": 61,
      "hit": false,
      "t": 2880,
      "d": 2400,
      "v": 107
    },
    {
      "midi": 80,
      "hit": false,
      "t": 2880,
      "d": 2400,
      "v": 74
    },
    {
      "midi": 75,
      "hit": false,
      "t": 2880,
      "d": 2400,
      "v": 74
    },
    {
      "midi": 77,
      "hit": false,
      "t": 2880,
      "d": 2400,
      "v": 74
    },
    {
      "midi": 78,
      "hit": false,
      "t": 5280,
      "d": 900,
      "v": 74
    },
    {
      "midi": 56,
      "hit": false,
      "t": 5280,
      "d": 2400,
      "v": 107
    },
    {
      "midi": 73,
      "hit": false,
      "t": 5280,
      "d": 2400,
      "v": 74
    },
    {
      "midi": 71,
      "hit": false,
      "t": 5280,
      "d": 2400,
      "v": 74
    },
    {
      "midi": 83,
      "hit": false,
      "t": 6180,
      "d": 900,
      "v": 107
    },
    {
      "midi": 78,
      "hit": false,
      "t": 7080,
      "d": 600,
      "v": 107
    },
    {
      "midi": 58,
      "hit": false,
      "t": 7680,
      "d": 2400,
      "v": 107
    },
    {
      "midi": 80,
      "hit": false,
      "t": 7680,
      "d": 2400,
      "v": 74
    },
    {
      "midi": 75,
      "hit": false,
      "t": 7680,
      "d": 2400,
      "v": 74
    },
    {
      "midi": 73,
      "hit": false,
      "t": 7680,
      "d": 2400,
      "v": 74
    },
    {
      "midi": 63,
      "hit": false,
      "t": 10080,
      "d": 600,
      "v": 96
    },
    {
      "midi": 82,
      "hit": false,
      "t": 10080,
      "d": 900,
      "v": 74
    },
    {
      "midi": 59,
      "hit": false,
      "t": 10080,
      "d": 2400,
      "v": 107
    },
    {
      "midi": 78,
      "hit": false,
      "t": 10080,
      "d": 2400,
      "v": 74
    },
    {
      "midi": 66,
      "hit": false,
      "t": 10380,
      "d": 600,
      "v": 96
    },
    {
      "midi": 70,
      "hit": false,
      "t": 10680,
      "d": 600,
      "v": 96
    },
    {
      "midi": 75,
      "hit": false,
      "t": 10980,
      "d": 600,
      "v": 96
    },
    {
      "midi": 87,
      "hit": false,
      "t": 10980,
      "d": 900,
      "v": 107
    },
    {
      "midi": 66,
      "hit": false,
      "t": 11580,
      "d": 600,
      "v": 96
    },
    {
      "midi": 82,
      "hit": false,
      "t": 11880,
      "d": 600,
      "v": 107
    },
    {
      "midi": 70,
      "hit": false,
      "t": 11880,
      "d": 600,
      "v": 96
    },
    {
      "midi": 75,
      "hit": false,
      "t": 12180,
      "d": 300,
      "v": 96
    },
    {
      "midi": 61,
      "hit": false,
      "t": 12480,
      "d": 600,
      "v": 96
    },
    {
      "midi": 80,
      "hit": false,
      "t": 12480,
      "d": 2400,
      "v": 74
    },
    {
      "midi": 77,
      "hit": false,
      "t": 12480,
      "d": 2400,
      "v": 74
    },
    {
      "midi": 65,
      "hit": false,
      "t": 12780,
      "d": 600,
      "v": 96
    },
    {
      "midi": 68,
      "hit": false,
      "t": 13080,
      "d": 600,
      "v": 96
    },
    {
      "midi": 73,
      "hit": false,
      "t": 13380,
      "d": 300,
      "v": 96
    },
    {
      "midi": 73,
      "hit": false,
      "t": 13680,
      "d": 600,
      "v": 96
    },
    {
      "midi": 65,
      "hit": false,
      "t": 13980,
      "d": 600,
      "v": 96
    },
    {
      "midi": 68,
      "hit": false,
      "t": 14280,
      "d": 600,
      "v": 96
    },
    {
      "midi": 73,
      "hit": false,
      "t": 14580,
      "d": 300,
      "v": 96
    },
    {
      "midi": 63,
      "hit": false,
      "t": 14880,
      "d": 600,
      "v": 96
    },
    {
      "midi": 78,
      "hit": false,
      "t": 14880,
      "d": 1200,
      "v": 74
    },
    {
      "midi": 66,
      "hit": false,
      "t": 15180,
      "d": 600,
      "v": 96
    },
    {
      "midi": 70,
      "hit": false,
      "t": 15480,
      "d": 600,
      "v": 96
    },
    {
      "midi": 75,
      "hit": false,
      "t": 15780,
      "d": 600,
      "v": 96
    },
    {
      "midi": 77,
      "hit": false,
      "t": 16080,
      "d": 600,
      "v": 74
    },
    {
      "midi": 70,
      "hit": false,
      "t": 16380,
      "d": 600,
      "v": 96
    },
    {
      "midi": 75,
      "hit": false,
      "t": 16680,
      "d": 600,
      "v": 96
    },
    {
      "midi": 77,
      "hit": false,
      "t": 16980,
      "d": 300,
      "v": 96
    },
    {
      "midi": 75,
      "hit": false,
      "t": 17280,
      "d": 1200,
      "v": 74
    },
    {
      "midi": 78,
      "hit": false,
      "t": 17280,
      "d": 2400,
      "v": 96
    },
    {
      "midi": 73,
      "hit": false,
      "t": 18480,
      "d": 3300,
      "v": 74
    },
    {
      "midi": 78,
      "hit": false,
      "t": 22080,
      "d": 600,
      "v": 86
    },
    {
      "midi": 77,
      "hit": false,
      "t": 22080,
      "d": 900,
      "v": 107
    },
    {
      "midi": 51,
      "hit": false,
      "t": 22080,
      "d": 1500,
      "v": 87
    },
    {
      "midi": 63,
      "hit": false,
      "t": 22080,
      "d": 2400,
      "v": 87
    },
    {
      "midi": 66,
      "hit": false,
      "t": 22080,
      "d": 2400,
      "v": 87
    },
    {
      "midi": 70,
      "hit": false,
      "t": 22380,
      "d": 600,
      "v": 86
    },
    {
      "midi": 75,
      "hit": false,
      "t": 22980,
      "d": 300,
      "v": 107
    },
    {
      "midi": 77,
      "hit": false,
      "t": 22980,
      "d": 600,
      "v": 86
    },
    {
      "midi": 78,
      "hit": false,
      "t": 23280,
      "d": 600,
      "v": 86
    },
    {
      "midi": 51,
      "hit": false,
      "t": 23580,
      "d": 300,
      "v": 87
    },
    {
      "midi": 70,
      "hit": false,
      "t": 23580,
      "d": 600,
      "v": 86
    },
    {
      "midi": 54,
      "hit": false,
      "t": 23880,
      "d": 300,
      "v": 87
    },
    {
      "midi": 75,
      "hit": false,
      "t": 23880,
      "d": 600,
      "v": 86
    },
    {
      "midi": 58,
      "hit": false,
      "t": 24180,
      "d": 300,
      "v": 87
    },
    {
      "midi": 77,
      "hit": false,
      "t": 24180,
      "d": 600,
      "v": 86
    },
    {
      "midi": 78,
      "hit": false,
      "t": 24480,
      "d": 600,
      "v": 86
    },
    {
      "midi": 58,
      "hit": false,
      "t": 24480,
      "d": 2400,
      "v": 87
    },
    {
      "midi": 61,
      "hit": false,
      "t": 24480,
      "d": 2400,
      "v": 87
    },
    {
      "midi": 65,
      "hit": false,
      "t": 24480,
      "d": 2400,
      "v": 87
    },
    {
      "midi": 70,
      "hit": false,
      "t": 24780,
      "d": 600,
      "v": 86
    },
    {
      "midi": 73,
      "hit": false,
      "t": 25080,
      "d": 600,
      "v": 86
    },
    {
      "midi": 77,
      "hit": false,
      "t": 25380,
      "d": 600,
      "v": 86
    },
    {
      "midi": 78,
      "hit": false,
      "t": 25680,
      "d": 600,
      "v": 86
    },
    {
      "midi": 70,
      "hit": false,
      "t": 25980,
      "d": 150,
      "v": 86
    },
    {
      "midi": 71,
      "hit": false,
      "t": 26130,
      "d": 450,
      "v": 107
    },
    {
      "midi": 73,
      "hit": false,
      "t": 26580,
      "d": 300,
      "v": 107
    },
    {
      "midi": 77,
      "hit": false,
      "t": 26580,
      "d": 600,
      "v": 86
    },
    {
      "midi": 78,
      "hit": false,
      "t": 26880,
      "d": 600,
      "v": 86
    },
    {
      "midi": 75,
      "hit": false,
      "t": 26880,
      "d": 600,
      "v": 107
    },
    {
      "midi": 54,
      "hit": false,
      "t": 26880,
      "d": 1200,
      "v": 87
    },
    {
      "midi": 51,
      "hit": false,
      "t": 26880,
      "d": 1200,
      "v": 87
    },
    {
      "midi": 59,
      "hit": false,
      "t": 26880,
      "d": 1200,
      "v": 87
    },
    {
      "midi": 63,
      "hit": false,
      "t": 26880,
      "d": 1200,
      "v": 87
    },
    {
      "midi": 66,
      "hit": false,
      "t": 27180,
      "d": 600,
      "v": 86
    },
    {
      "midi": 73,
      "hit": false,
      "t": 27480,
      "d": 300,
      "v": 107
    },
    {
      "midi": 70,
      "hit": false,
      "t": 27480,
      "d": 600,
      "v": 86
    },
    {
      "midi": 75,
      "hit": false,
      "t": 27780,
      "d": 600,
      "v": 86
    },
    {
      "midi": 66,
      "hit": false,
      "t": 27780,
      "d": 600,
      "v": 107
    },
    {
      "midi": 77,
      "hit": false,
      "t": 28080,
      "d": 600,
      "v": 86
    },
    {
      "midi": 53,
      "hit": false,
      "t": 28080,
      "d": 1200,
      "v": 87
    },
    {
      "midi": 63,
      "hit": false,
      "t": 28080,
      "d": 1200,
      "v": 87
    },
    {
      "midi": 61,
      "hit": false,
      "t": 28080,
      "d": 1200,
      "v": 87
    },
    {
      "midi": 59,
      "hit": false,
      "t": 28080,
      "d": 1200,
      "v": 87
    },
    {
      "midi": 66,
      "hit": false,
      "t": 28380,
      "d": 300,
      "v": 107
    },
    {
      "midi": 68,
      "hit": false,
      "t": 28680,
      "d": 300,
      "v": 107
    },
    {
      "midi": 73,
      "hit": false,
      "t": 28680,
      "d": 600,
      "v": 86
    },
    {
      "midi": 77,
      "hit": false,
      "t": 28980,
      "d": 600,
      "v": 86
    },
    {
      "midi": 78,
      "hit": false,
      "t": 29280,
      "d": 600,
      "v": 86
    },
    {
      "midi": 54,
      "hit": false,
      "t": 29280,
      "d": 2400,
      "v": 87
    },
    {
      "midi": 61,
      "hit": false,
      "t": 29280,
      "d": 2400,
      "v": 87
    },
    {
      "midi": 66,
      "hit": false,
      "t": 29280,
      "d": 2400,
      "v": 87
    },
    {
      "midi": 70,
      "hit": false,
      "t": 29580,
      "d": 600,
      "v": 86
    },
    {
      "midi": 73,
      "hit": false,
      "t": 29880,
      "d": 600,
      "v": 86
    },
    {
      "midi": 77,
      "hit": false,
      "t": 30180,
      "d": 600,
      "v": 86
    },
    {
      "midi": 58,
      "hit": false,
      "t": 30180,
      "d": 1500,
      "v": 87
    },
    {
      "midi": 78,
      "hit": false,
      "t": 30480,
      "d": 600,
      "v": 86
    },
    {
      "midi": 70,
      "hit": false,
      "t": 30780,
      "d": 600,
      "v": 86
    },
    {
      "midi": 73,
      "hit": false,
      "t": 31080,
      "d": 600,
      "v": 86
    },
    {
      "midi": 70,
      "hit": false,
      "t": 31380,
      "d": 300,
      "v": 107
    },
    {
      "midi": 77,
      "hit": false,
      "t": 31380,
      "d": 600,
      "v": 86
    },
    {
      "midi": 71,
      "hit": false,
      "t": 31680,
      "d": 300,
      "v": 107
    },
    {
      "midi": 78,
      "hit": false,
      "t": 31680,
      "d": 600,
      "v": 86
    },
    {
      "midi": 63,
      "hit": false,
      "t": 31680,
      "d": 1200,
      "v": 87
    },
    {
      "midi": 47,
      "hit": false,
      "t": 31680,
      "d": 1200,
      "v": 87
    },
    {
      "midi": 56,
      "hit": false,
      "t": 31680,
      "d": 1200,
      "v": 87
    },
    {
      "midi": 82,
      "hit": false,
      "t": 31980,
      "d": 300,
      "v": 107
    },
    {
      "midi": 70,
      "hit": false,
      "t": 31980,
      "d": 600,
      "v": 86
    },
    {
      "midi": 75,
      "hit": false,
      "t": 32280,
      "d": 600,
      "v": 86
    },
    {
      "midi": 82,
      "hit": false,
      "t": 32280,
      "d": 900,
      "v": 107
    },
    {
      "midi": 78,
      "hit": false,
      "t": 32580,
      "d": 600,
      "v": 86
    },
    {
      "midi": 65,
      "hit": false,
      "t": 32880,
      "d": 1200,
      "v": 87
    },
    {
      "midi": 49,
      "hit": false,
      "t": 32880,
      "d": 1200,
      "v": 87
    },
    {
      "midi": 61,
      "hit": false,
      "t": 32880,
      "d": 1200,
      "v": 87
    },
    {
      "midi": 80,
      "hit": false,
      "t": 33180,
      "d": 300,
      "v": 107
    },
    {
      "midi": 73,
      "hit": false,
      "t": 33180,
      "d": 600,
      "v": 86
    },
    {
      "midi": 77,
      "hit": false,
      "t": 33480,
      "d": 300,
      "v": 107
    },
    {
      "midi": 77,
      "hit": false,
      "t": 33780,
      "d": 300,
      "v": 107
    },
    {
      "midi": 80,
      "hit": false,
      "t": 34080,
      "d": 300,
      "v": 107
    },
    {
      "midi": 51,
      "hit": false,
      "t": 34080,
      "d": 1200,
      "v": 87
    },
    {
      "midi": 58,
      "hit": false,
      "t": 34080,
      "d": 1200,
      "v": 87
    },
    {
      "midi": 66,
      "hit": false,
      "t": 34080,
      "d": 1200,
      "v": 87
    },
    {
      "midi": 70,
      "hit": false,
      "t": 34380,
      "d": 600,
      "v": 86
    },
    {
      "midi": 78,
      "hit": false,
      "t": 34455,
      "d": 225,
      "v": 107
    },
    {
      "midi": 75,
      "hit": false,
      "t": 34680,
      "d": 600,
      "v": 86
    },
    {
      "midi": 77,
      "hit": false,
      "t": 34980,
      "d": 600,
      "v": 86
    },
    {
      "midi": 78,
      "hit": false,
      "t": 35280,
      "d": 600,
      "v": 86
    },
    {
      "midi": 58,
      "hit": false,
      "t": 35280,
      "d": 1200,
      "v": 87
    },
    {
      "midi": 49,
      "hit": false,
      "t": 35280,
      "d": 1200,
      "v": 87
    },
    {
      "midi": 65,
      "hit": false,
      "t": 35280,
      "d": 1200,
      "v": 87
    },
    {
      "midi": 70,
      "hit": false,
      "t": 35580,
      "d": 600,
      "v": 86
    },
    {
      "midi": 75,
      "hit": false,
      "t": 36180,
      "d": 150,
      "v": 107
    },
    {
      "midi": 77,
      "hit": false,
      "t": 36330,
      "d": 150,
      "v": 107
    },
    {
      "midi": 78,
      "hit": false,
      "t": 36480,
      "d": 300,
      "v": 107
    },
    {
      "midi": 63,
      "hit": false,
      "t": 36480,
      "d": 2400,
      "v": 87
    },
    {
      "midi": 66,
      "hit": false,
      "t": 36480,
      "d": 2400,
      "v": 87
    },
    {
      "midi": 47,
      "hit": false,
      "t": 36480,
      "d": 2400,
      "v": 87
    },
    {
      "midi": 59,
      "hit": false,
      "t": 36480,
      "d": 2400,
      "v": 87
    },
    {
      "midi": 77,
      "hit": false,
      "t": 36780,
      "d": 300,
      "v": 107
    },
    {
      "midi": 71,
      "hit": false,
      "t": 36780,
      "d": 600,
      "v": 86
    },
    {
      "midi": 78,
      "hit": false,
      "t": 37080,
      "d": 300,
      "v": 107
    },
    {
      "midi": 75,
      "hit": false,
      "t": 37080,
      "d": 600,
      "v": 86
    },
    {
      "midi": 77,
      "hit": false,
      "t": 37380,
      "d": 300,
      "v": 107
    },
    {
      "midi": 78,
      "hit": false,
      "t": 37680,
      "d": 300,
      "v": 107
    },
    {
      "midi": 78,
      "hit": false,
      "t": 37980,
      "d": 300,
      "v": 107
    },
    {
      "midi": 71,
      "hit": false,
      "t": 37980,
      "d": 600,
      "v": 86
    },
    {
      "midi": 75,
      "hit": false,
      "t": 38280,
      "d": 600,
      "v": 86
    },
    {
      "midi": 80,
      "hit": false,
      "t": 38580,
      "d": 300,
      "v": 107
    },
    {
      "midi": 77,
      "hit": false,
      "t": 38580,
      "d": 600,
      "v": 86
    },
    {
      "midi": 78,
      "hit": false,
      "t": 38880,
      "d": 600,
      "v": 107
    },
    {
      "midi": 63,
      "hit": false,
      "t": 38880,
      "d": 1200,
      "v": 87
    },
    {
      "midi": 66,
      "hit": false,
      "t": 38880,
      "d": 1200,
      "v": 87
    },
    {
      "midi": 58,
      "hit": false,
      "t": 38880,
      "d": 2400,
      "v": 87
    },
    {
      "midi": 46,
      "hit": false,
      "t": 38880,
      "d": 2400,
      "v": 87
    },
    {
      "midi": 70,
      "hit": false,
      "t": 39180,
      "d": 600,
      "v": 86
    },
    {
      "midi": 75,
      "hit": false,
      "t": 39480,
      "d": 600,
      "v": 86
    },
    {
      "midi": 78,
      "hit": false,
      "t": 39780,
      "d": 300,
      "v": 86
    },
    {
      "midi": 80,
      "hit": false,
      "t": 40080,
      "d": 600,
      "v": 86
    },
    {
      "midi": 61,
      "hit": false,
      "t": 40080,
      "d": 1200,
      "v": 87
    },
    {
      "midi": 65,
      "hit": false,
      "t": 40080,
      "d": 1200,
      "v": 87
    },
    {
      "midi": 73,
      "hit": false,
      "t": 40380,
      "d": 600,
      "v": 86
    },
    {
      "midi": 77,
      "hit": false,
      "t": 40680,
      "d": 450,
      "v": 86
    },
    {
      "midi": 34,
      "hit": false,
      "t": 40980,
      "d": 300,
      "v": 127
    },
    {
      "midi": 80,
      "hit": false,
      "t": 40980,
      "d": 600,
      "v": 86
    },
    {
      "midi": 39,
      "hit": false,
      "t": 41280,
      "d": 300,
      "v": 107
    },
    {
      "midi": 78,
      "hit": false,
      "t": 41280,
      "d": 600,
      "v": 86
    },
    {
      "midi": 77,
      "hit": false,
      "t": 41280,
      "d": 900,
      "v": 96
    },
    {
      "midi": 51,
      "hit": false,
      "t": 41280,
      "d": 2400,
      "v": 87
    },
    {
      "midi": 58,
      "hit": false,
      "t": 41280,
      "d": 2400,
      "v": 87
    },
    {
      "midi": 63,
      "hit": false,
      "t": 41280,
      "d": 2400,
      "v": 87
    },
    {
      "midi": 66,
      "hit": false,
      "t": 41280,
      "d": 2400,
      "v": 87
    },
    {
      "midi": 70,
      "hit": false,
      "t": 41580,
      "d": 600,
      "v": 86
    },
    {
      "midi": 75,
      "hit": false,
      "t": 42180,
      "d": 300,
      "v": 96
    },
    {
      "midi": 77,
      "hit": false,
      "t": 42180,
      "d": 600,
      "v": 86
    },
    {
      "midi": 78,
      "hit": false,
      "t": 42480,
      "d": 600,
      "v": 86
    },
    {
      "midi": 70,
      "hit": false,
      "t": 42780,
      "d": 600,
      "v": 86
    },
    {
      "midi": 75,
      "hit": false,
      "t": 43080,
      "d": 600,
      "v": 86
    },
    {
      "midi": 39,
      "hit": false,
      "t": 43380,
      "d": 300,
      "v": 127
    },
    {
      "midi": 77,
      "hit": false,
      "t": 43380,
      "d": 600,
      "v": 86
    },
    {
      "midi": 37,
      "hit": false,
      "t": 43680,
      "d": 300,
      "v": 107
    },
    {
      "midi": 78,
      "hit": false,
      "t": 43680,
      "d": 600,
      "v": 86
    },
    {
      "midi": 49,
      "hit": false,
      "t": 43680,
      "d": 2400,
      "v": 87
    },
    {
      "midi": 58,
      "hit": false,
      "t": 43680,
      "d": 2400,
      "v": 87
    },
    {
      "midi": 61,
      "hit": false,
      "t": 43680,
      "d": 2400,
      "v": 87
    },
    {
      "midi": 65,
      "hit": false,
      "t": 43680,
      "d": 2400,
      "v": 87
    },
    {
      "midi": 70,
      "hit": false,
      "t": 43980,
      "d": 600,
      "v": 86
    },
    {
      "midi": 73,
      "hit": false,
      "t": 44280,
      "d": 600,
      "v": 86
    },
    {
      "midi": 77,
      "hit": false,
      "t": 44580,
      "d": 600,
      "v": 86
    },
    {
      "midi": 78,
      "hit": false,
      "t": 44880,
      "d": 600,
      "v": 86
    },
    {
      "midi": 70,
      "hit": false,
      "t": 45180,
      "d": 150,
      "v": 86
    },
    {
      "midi": 71,
      "hit": false,
      "t": 45330,
      "d": 450,
      "v": 96
    },
    {
      "midi": 37,
      "hit": false,
      "t": 45780,
      "d": 300,
      "v": 127
    },
    {
      "midi": 73,
      "hit": false,
      "t": 45780,
      "d": 300,
      "v": 96
    },
    {
      "midi": 77,
      "hit": false,
      "t": 45780,
      "d": 600,
      "v": 86
    },
    {
      "midi": 35,
      "hit": false,
      "t": 46080,
      "d": 300,
      "v": 107
    },
    {
      "midi": 75,
      "hit": false,
      "t": 46080,
      "d": 600,
      "v": 96
    },
    {
      "midi": 78,
      "hit": false,
      "t": 46080,
      "d": 600,
      "v": 86
    },
    {
      "midi": 47,
      "hit": false,
      "t": 46080,
      "d": 1200,
      "v": 87
    },
    {
      "midi": 54,
      "hit": false,
      "t": 46080,
      "d": 1200,
      "v": 87
    },
    {
      "midi": 51,
      "hit": false,
      "t": 46080,
      "d": 1200,
      "v": 87
    },
    {
      "midi": 59,
      "hit": false,
      "t": 46080,
      "d": 1200,
      "v": 87
    },
    {
      "midi": 63,
      "hit": false,
      "t": 46080,
      "d": 1200,
      "v": 87
    },
    {
      "midi": 66,
      "hit": false,
      "t": 46380,
      "d": 600,
      "v": 86
    },
    {
      "midi": 73,
      "hit": false,
      "t": 46680,
      "d": 300,
      "v": 96
    },
    {
      "midi": 70,
      "hit": false,
      "t": 46680,
      "d": 600,
      "v": 86
    },
    {
      "midi": 75,
      "hit": false,
      "t": 46980,
      "d": 600,
      "v": 86
    },
    {
      "midi": 66,
      "hit": false,
      "t": 46980,
      "d": 750,
      "v": 96
    },
    {
      "midi": 37,
      "hit": false,
      "t": 47280,
      "d": 300,
      "v": 107
    },
    {
      "midi": 77,
      "hit": false,
      "t": 47280,
      "d": 600,
      "v": 86
    },
    {
      "midi": 49,
      "hit": false,
      "t": 47280,
      "d": 1200,
      "v": 87
    },
    {
      "midi": 53,
      "hit": false,
      "t": 47280,
      "d": 1200,
      "v": 87
    },
    {
      "midi": 63,
      "hit": false,
      "t": 47280,
      "d": 1200,
      "v": 87
    },
    {
      "midi": 61,
      "hit": false,
      "t": 47280,
      "d": 1200,
      "v": 87
    },
    {
      "midi": 59,
      "hit": false,
      "t": 47280,
      "d": 1200,
      "v": 87
    },
    {
      "midi": 68,
      "hit": false,
      "t": 47580,
      "d": 600,
      "v": 86
    },
    {
      "midi": 73,
      "hit": false,
      "t": 47880,
      "d": 300,
      "v": 96
    },
    {
      "midi": 37,
      "hit": false,
      "t": 48180,
      "d": 300,
      "v": 127
    },
    {
      "midi": 77,
      "hit": false,
      "t": 48180,
      "d": 600,
      "v": 86
    },
    {
      "midi": 42,
      "hit": false,
      "t": 48480,
      "d": 300,
      "v": 107
    },
    {
      "midi": 78,
      "hit": false,
      "t": 48480,
      "d": 600,
      "v": 86
    },
    {
      "midi": 54,
      "hit": false,
      "t": 48480,
      "d": 2400,
      "v": 87
    },
    {
      "midi": 61,
      "hit": false,
      "t": 48480,
      "d": 2400,
      "v": 87
    },
    {
      "midi": 66,
      "hit": false,
      "t": 48480,
      "d": 2400,
      "v": 87
    },
    {
      "midi": 70,
      "hit": false,
      "t": 48780,
      "d": 600,
      "v": 86
    },
    {
      "midi": 73,
      "hit": false,
      "t": 49080,
      "d": 600,
      "v": 86
    },
    {
      "midi": 77,
      "hit": false,
      "t": 49380,
      "d": 600,
      "v": 86
    },
    {
      "midi": 58,
      "hit": false,
      "t": 49380,
      "d": 1500,
      "v": 87
    },
    {
      "midi": 78,
      "hit": false,
      "t": 49680,
      "d": 600,
      "v": 86
    },
    {
      "midi": 70,
      "hit": false,
      "t": 49980,
      "d": 300,
      "v": 86
    },
    {
      "midi": 73,
      "hit": false,
      "t": 50280,
      "d": 600,
      "v": 86
    },
    {
      "midi": 42,
      "hit": false,
      "t": 50580,
      "d": 300,
      "v": 127
    },
    {
      "midi": 70,
      "hit": false,
      "t": 50580,
      "d": 300,
      "v": 96
    },
    {
      "midi": 77,
      "hit": false,
      "t": 50580,
      "d": 600,
      "v": 86
    },
    {
      "midi": 71,
      "hit": false,
      "t": 50880,
      "d": 300,
      "v": 96
    },
    {
      "midi": 35,
      "hit": false,
      "t": 50880,
      "d": 300,
      "v": 107
    },
    {
      "midi": 78,
      "hit": false,
      "t": 50880,
      "d": 600,
      "v": 86
    },
    {
      "midi": 63,
      "hit": false,
      "t": 50880,
      "d": 1200,
      "v": 87
    },
    {
      "midi": 47,
      "hit": false,
      "t": 50880,
      "d": 1200,
      "v": 87
    },
    {
      "midi": 56,
      "hit": false,
      "t": 50880,
      "d": 1200,
      "v": 87
    },
    {
      "midi": 82,
      "hit": false,
      "t": 51180,
      "d": 300,
      "v": 96
    },
    {
      "midi": 70,
      "hit": false,
      "t": 51180,
      "d": 600,
      "v": 86
    },
    {
      "midi": 75,
      "hit": false,
      "t": 51480,
      "d": 600,
      "v": 86
    },
    {
      "midi": 82,
      "hit": false,
      "t": 51480,
      "d": 900,
      "v": 96
    },
    {
      "midi": 78,
      "hit": false,
      "t": 51780,
      "d": 600,
      "v": 86
    },
    {
      "midi": 37,
      "hit": false,
      "t": 52080,
      "d": 300,
      "v": 107
    },
    {
      "midi": 65,
      "hit": false,
      "t": 52080,
      "d": 1200,
      "v": 87
    },
    {
      "midi": 49,
      "hit": false,
      "t": 52080,
      "d": 1200,
      "v": 87
    },
    {
      "midi": 61,
      "hit": false,
      "t": 52080,
      "d": 1200,
      "v": 87
    },
    {
      "midi": 80,
      "hit": false,
      "t": 52380,
      "d": 300,
      "v": 96
    },
    {
      "midi": 73,
      "hit": false,
      "t": 52380,
      "d": 600,
      "v": 86
    },
    {
      "midi": 77,
      "hit": false,
      "t": 52680,
      "d": 300,
      "v": 96
    },
    {
      "midi": 37,
      "hit": false,
      "t": 52980,
      "d": 300,
      "v": 127
    },
    {
      "midi": 77,
      "hit": false,
      "t": 52980,
      "d": 300,
      "v": 96
    },
    {
      "midi": 80,
      "hit": false,
      "t": 53280,
      "d": 300,
      "v": 96
    },
    {
      "midi": 39,
      "hit": false,
      "t": 53280,
      "d": 300,
      "v": 107
    },
    {
      "midi": 51,
      "hit": false,
      "t": 53280,
      "d": 1200,
      "v": 87
    },
    {
      "midi": 58,
      "hit": false,
      "t": 53280,
      "d": 1200,
      "v": 87
    },
    {
      "midi": 66,
      "hit": false,
      "t": 53280,
      "d": 1200,
      "v": 87
    },
    {
      "midi": 70,
      "hit": false,
      "t": 53580,
      "d": 600,
      "v": 86
    },
    {
      "midi": 78,
      "hit": false,
      "t": 53655,
      "d": 225,
      "v": 96
    },
    {
      "midi": 75,
      "hit": false,
      "t": 53880,
      "d": 600,
      "v": 86
    },
    {
      "midi": 77,
      "hit": false,
      "t": 54180,
      "d": 600,
      "v": 86
    },
    {
      "midi": 37,
      "hit": false,
      "t": 54480,
      "d": 300,
      "v": 107
    },
    {
      "midi": 78,
      "hit": false,
      "t": 54480,
      "d": 600,
      "v": 86
    },
    {
      "midi": 58,
      "hit": false,
      "t": 54480,
      "d": 1200,
      "v": 87
    },
    {
      "midi": 49,
      "hit": false,
      "t": 54480,
      "d": 1200,
      "v": 87
    },
    {
      "midi": 65,
      "hit": false,
      "t": 54480,
      "d": 1200,
      "v": 87
    },
    {
      "midi": 70,
      "hit": false,
      "t": 54780,
      "d": 600,
      "v": 86
    },
    {
      "midi": 75,
      "hit": false,
      "t": 55080,
      "d": 600,
      "v": 86
    },
    {
      "midi": 78,
      "hit": false,
      "t": 55380,
      "d": 150,
      "v": 96
    },
    {
      "midi": 77,
      "hit": false,
      "t": 55380,
      "d": 600,
      "v": 86
    },
    {
      "midi": 80,
      "hit": false,
      "t": 55530,
      "d": 150,
      "v": 96
    },
    {
      "midi": 82,
      "hit": false,
      "t": 55680,
      "d": 300,
      "v": 96
    },
    {
      "midi": 35,
      "hit": false,
      "t": 55680,
      "d": 300,
      "v": 107
    },
    {
      "midi": 54,
      "hit": false,
      "t": 55680,
      "d": 1200,
      "v": 87
    },
    {
      "midi": 47,
      "hit": false,
      "t": 55680,
      "d": 1200,
      "v": 87
    },
    {
      "midi": 63,
      "hit": false,
      "t": 55680,
      "d": 1200,
      "v": 87
    },
    {
      "midi": 66,
      "hit": false,
      "t": 55680,
      "d": 1200,
      "v": 87
    },
    {
      "midi": 78,
      "hit": false,
      "t": 55980,
      "d": 300,
      "v": 96
    },
    {
      "midi": 70,
      "hit": false,
      "t": 55980,
      "d": 600,
      "v": 86
    },
    {
      "midi": 80,
      "hit": false,
      "t": 56280,
      "d": 300,
      "v": 96
    },
    {
      "midi": 75,
      "hit": false,
      "t": 56280,
      "d": 600,
      "v": 86
    },
    {
      "midi": 82,
      "hit": false,
      "t": 56580,
      "d": 300,
      "v": 96
    },
    {
      "midi": 78,
      "hit": false,
      "t": 56580,
      "d": 600,
      "v": 86
    },
    {
      "midi": 37,
      "hit": false,
      "t": 56880,
      "d": 300,
      "v": 107
    },
    {
      "midi": 80,
      "hit": false,
      "t": 56880,
      "d": 600,
      "v": 96
    },
    {
      "midi": 61,
      "hit": false,
      "t": 56880,
      "d": 1200,
      "v": 87
    },
    {
      "midi": 65,
      "hit": false,
      "t": 56880,
      "d": 1200,
      "v": 87
    },
    {
      "midi": 49,
      "hit": false,
      "t": 56880,
      "d": 1200,
      "v": 87
    },
    {
      "midi": 68,
      "hit": false,
      "t": 56880,
      "d": 1200,
      "v": 87
    },
    {
      "midi": 73,
      "hit": false,
      "t": 57180,
      "d": 600,
      "v": 86
    },
    {
      "midi": 77,
      "hit": false,
      "t": 57480,
      "d": 300,
      "v": 96
    },
    {
      "midi": 80,
      "hit": false,
      "t": 57780,
      "d": 600,
      "v": 86
    },
    {
      "midi": 39,
      "hit": false,
      "t": 58080,
      "d": 300,
      "v": 107
    },
    {
      "midi": 78,
      "hit": false,
      "t": 58080,
      "d": 600,
      "v": 86
    },
    {
      "midi": 68,
      "hit": false,
      "t": 58080,
      "d": 1200,
      "v": 87
    },
    {
      "midi": 51,
      "hit": false,
      "t": 58080,
      "d": 2400,
      "v": 87
    },
    {
      "midi": 63,
      "hit": false,
      "t": 58080,
      "d": 2400,
      "v": 87
    },
    {
      "midi": 70,
      "hit": false,
      "t": 58380,
      "d": 600,
      "v": 86
    },
    {
      "midi": 75,
      "hit": false,
      "t": 58680,
      "d": 600,
      "v": 86
    },
    {
      "midi": 77,
      "hit": false,
      "t": 58980,
      "d": 600,
      "v": 86
    },
    {
      "midi": 78,
      "hit": false,
      "t": 59280,
      "d": 600,
      "v": 86
    },
    {
      "midi": 70,
      "hit": false,
      "t": 59580,
      "d": 600,
      "v": 86
    },
    {
      "midi": 66,
      "hit": false,
      "t": 59880,
      "d": 300,
      "v": 107
    },
    {
      "midi": 37,
      "hit": false,
      "t": 59880,
      "d": 300,
      "v": 107
    },
    {
      "midi": 78,
      "hit": false,
      "t": 59880,
      "d": 525,
      "v": 107
    },
    {
      "midi": 75,
      "hit": false,
      "t": 59880,
      "d": 600,
      "v": 86
    },
    {
      "midi": 70,
      "hit": false,
      "t": 60180,
      "d": 300,
      "v": 86
    },
    {
      "midi": 47,
      "hit": false,
      "t": 60480,
      "d": 300,
      "v": 127
    },
    {
      "midi": 75,
      "hit": false,
      "t": 60480,
      "d": 300,
      "v": 78
    },
    {
      "midi": 71,
      "hit": false,
      "t": 60480,
      "d": 300,
      "v": 78
    },
    {
      "midi": 63,
      "hit": false,
      "t": 60480,
      "d": 600,
      "v": 100
    },
    {
      "midi": 35,
      "hit": false,
      "t": 60480,
      "d": 2400,
      "v": 107
    },
    {
      "midi": 59,
      "hit": false,
      "t": 60780,
      "d": 300,
      "v": 96
    },
    {
      "midi": 71,
      "hit": false,
      "t": 60780,
      "d": 300,
      "v": 69
    },
    {
      "midi": 75,
      "hit": false,
      "t": 60780,
      "d": 300,
      "v": 69
    },
    {
      "midi": 71,
      "hit": false,
      "t": 61080,
      "d": 300,
      "v": 69
    },
    {
      "midi": 75,
      "hit": false,
      "t": 61080,
      "d": 300,
      "v": 69
    },
    {
      "midi": 63,
      "hit": false,
      "t": 61380,
      "d": 300,
      "v": 100
    },
    {
      "midi": 47,
      "hit": false,
      "t": 61380,
      "d": 300,
      "v": 127
    },
    {
      "midi": 75,
      "hit": false,
      "t": 61380,
      "d": 300,
      "v": 78
    },
    {
      "midi": 71,
      "hit": false,
      "t": 61380,
      "d": 300,
      "v": 78
    },
    {
      "midi": 59,
      "hit": false,
      "t": 61380,
      "d": 600,
      "v": 100
    },
    {
      "midi": 71,
      "hit": false,
      "t": 61680,
      "d": 300,
      "v": 69
    },
    {
      "midi": 47,
      "hit": false,
      "t": 61680,
      "d": 300,
      "v": 127
    },
    {
      "midi": 75,
      "hit": false,
      "t": 61680,
      "d": 300,
      "v": 69
    },
    {
      "midi": 63,
      "hit": false,
      "t": 61980,
      "d": 300,
      "v": 107
    },
    {
      "midi": 75,
      "hit": false,
      "t": 61980,
      "d": 300,
      "v": 69
    },
    {
      "midi": 71,
      "hit": false,
      "t": 61980,
      "d": 300,
      "v": 69
    },
    {
      "midi": 59,
      "hit": false,
      "t": 61980,
      "d": 600,
      "v": 96
    },
    {
      "midi": 63,
      "hit": false,
      "t": 62280,
      "d": 300,
      "v": 96
    },
    {
      "midi": 65,
      "hit": false,
      "t": 62280,
      "d": 300,
      "v": 107
    },
    {
      "midi": 77,
      "hit": false,
      "t": 62280,
      "d": 300,
      "v": 107
    },
    {
      "midi": 75,
      "hit": false,
      "t": 62280,
      "d": 300,
      "v": 78
    },
    {
      "midi": 71,
      "hit": false,
      "t": 62280,
      "d": 300,
      "v": 78
    },
    {
      "midi": 54,
      "hit": false,
      "t": 62280,
      "d": 600,
      "v": 100
    },
    {
      "midi": 66,
      "hit": false,
      "t": 62580,
      "d": 300,
      "v": 107
    },
    {
      "midi": 78,
      "hit": false,
      "t": 62580,
      "d": 300,
      "v": 107
    },
    {
      "midi": 71,
      "hit": false,
      "t": 62580,
      "d": 300,
      "v": 69
    },
    {
      "midi": 75,
      "hit": false,
      "t": 62580,
      "d": 300,
      "v": 69
    },
    {
      "midi": 71,
      "hit": false,
      "t": 62880,
      "d": 300,
      "v": 78
    },
    {
      "midi": 35,
      "hit": false,
      "t": 62880,
      "d": 300,
      "v": 107
    },
    {
      "midi": 75,
      "hit": false,
      "t": 62880,
      "d": 300,
      "v": 78
    },
    {
      "midi": 70,
      "hit": false,
      "t": 62880,
      "d": 600,
      "v": 107
    },
    {
      "midi": 47,
      "hit": false,
      "t": 62880,
      "d": 600,
      "v": 100
    },
    {
      "midi": 51,
      "hit": false,
      "t": 62880,
      "d": 600,
      "v": 100
    },
    {
      "midi": 82,
      "hit": false,
      "t": 62880,
      "d": 600,
      "v": 107
    },
    {
      "midi": 59,
      "hit": false,
      "t": 63180,
      "d": 300,
      "v": 96
    },
    {
      "midi": 71,
      "hit": false,
      "t": 63180,
      "d": 300,
      "v": 69
    },
    {
      "midi": 75,
      "hit": false,
      "t": 63180,
      "d": 300,
      "v": 69
    },
    {
      "midi": 68,
      "hit": false,
      "t": 63480,
      "d": 300,
      "v": 107
    },
    {
      "midi": 80,
      "hit": false,
      "t": 63480,
      "d": 300,
      "v": 107
    },
    {
      "midi": 71,
      "hit": false,
      "t": 63480,
      "d": 300,
      "v": 69
    },
    {
      "midi": 75,
      "hit": false,
      "t": 63480,
      "d": 300,
      "v": 69
    },
    {
      "midi": 61,
      "hit": false,
      "t": 63480,
      "d": 600,
      "v": 96
    },
    {
      "midi": 54,
      "hit": false,
      "t": 63480,
      "d": 600,
      "v": 100
    },
    {
      "midi": 35,
      "hit": false,
      "t": 63780,
      "d": 300,
      "v": 127
    },
    {
      "midi": 71,
      "hit": false,
      "t": 63780,
      "d": 300,
      "v": 78
    },
    {
      "midi": 75,
      "hit": false,
      "t": 63780,
      "d": 300,
      "v": 78
    },
    {
      "midi": 65,
      "hit": false,
      "t": 63780,
      "d": 600,
      "v": 107
    },
    {
      "midi": 77,
      "hit": false,
      "t": 63780,
      "d": 600,
      "v": 107
    },
    {
      "midi": 47,
      "hit": false,
      "t": 63780,
      "d": 1200,
      "v": 100
    },
    {
      "midi": 51,
      "hit": false,
      "t": 63780,
      "d": 1200,
      "v": 100
    },
    {
      "midi": 71,
      "hit": false,
      "t": 64080,
      "d": 300,
      "v": 69
    },
    {
      "midi": 35,
      "hit": false,
      "t": 64080,
      "d": 300,
      "v": 127
    },
    {
      "midi": 75,
      "hit": false,
      "t": 64080,
      "d": 300,
      "v": 69
    },
    {
      "midi": 71,
      "hit": false,
      "t": 64380,
      "d": 300,
      "v": 69
    },
    {
      "midi": 75,
      "hit": false,
      "t": 64380,
      "d": 300,
      "v": 69
    },
    {
      "midi": 59,
      "hit": false,
      "t": 64380,
      "d": 600,
      "v": 96
    },
    {
      "midi": 68,
      "hit": false,
      "t": 64380,
      "d": 600,
      "v": 107
    },
    {
      "midi": 80,
      "hit": false,
      "t": 64380,
      "d": 600,
      "v": 107
    },
    {
      "midi": 54,
      "hit": false,
      "t": 64380,
      "d": 600,
      "v": 100
    },
    {
      "midi": 71,
      "hit": false,
      "t": 64680,
      "d": 300,
      "v": 78
    },
    {
      "midi": 75,
      "hit": false,
      "t": 64680,
      "d": 300,
      "v": 78
    },
    {
      "midi": 61,
      "hit": false,
      "t": 64680,
      "d": 600,
      "v": 96
    },
    {
      "midi": 65,
      "hit": false,
      "t": 64980,
      "d": 150,
      "v": 107
    },
    {
      "midi": 77,
      "hit": false,
      "t": 64980,
      "d": 150,
      "v": 107
    },
    {
      "midi": 71,
      "hit": false,
      "t": 64980,
      "d": 300,
      "v": 69
    },
    {
      "midi": 75,
      "hit": false,
      "t": 65130,
      "d": 150,
      "v": 107
    },
    {
      "midi": 63,
      "hit": false,
      "t": 65130,
      "d": 150,
      "v": 107
    },
    {
      "midi": 46,
      "hit": false,
      "t": 65280,
      "d": 300,
      "v": 127
    },
    {
      "midi": 73,
      "hit": false,
      "t": 65280,
      "d": 300,
      "v": 78
    },
    {
      "midi": 70,
      "hit": false,
      "t": 65280,
      "d": 300,
      "v": 78
    },
    {
      "midi": 53,
      "hit": false,
      "t": 65280,
      "d": 600,
      "v": 100
    },
    {
      "midi": 34,
      "hit": false,
      "t": 65280,
      "d": 2400,
      "v": 107
    },
    {
      "midi": 58,
      "hit": false,
      "t": 65580,
      "d": 300,
      "v": 96
    },
    {
      "midi": 70,
      "hit": false,
      "t": 65580,
      "d": 300,
      "v": 69
    },
    {
      "midi": 73,
      "hit": false,
      "t": 65580,
      "d": 300,
      "v": 69
    },
    {
      "midi": 61,
      "hit": false,
      "t": 65880,
      "d": 300,
      "v": 96
    },
    {
      "midi": 73,
      "hit": false,
      "t": 65880,
      "d": 300,
      "v": 69
    },
    {
      "midi": 70,
      "hit": false,
      "t": 65880,
      "d": 300,
      "v": 69
    },
    {
      "midi": 61,
      "hit": false,
      "t": 66180,
      "d": 300,
      "v": 107
    },
    {
      "midi": 73,
      "hit": false,
      "t": 66180,
      "d": 300,
      "v": 78
    },
    {
      "midi": 46,
      "hit": false,
      "t": 66180,
      "d": 300,
      "v": 127
    },
    {
      "midi": 70,
      "hit": false,
      "t": 66180,
      "d": 300,
      "v": 78
    },
    {
      "midi": 68,
      "hit": false,
      "t": 66180,
      "d": 600,
      "v": 96
    },
    {
      "midi": 53,
      "hit": false,
      "t": 66180,
      "d": 1200,
      "v": 100
    },
    {
      "midi": 61,
      "hit": false,
      "t": 66480,
      "d": 300,
      "v": 107
    },
    {
      "midi": 73,
      "hit": false,
      "t": 66480,
      "d": 300,
      "v": 69
    },
    {
      "midi": 46,
      "hit": false,
      "t": 66480,
      "d": 300,
      "v": 127
    },
    {
      "midi": 70,
      "hit": false,
      "t": 66480,
      "d": 300,
      "v": 69
    },
    {
      "midi": 70,
      "hit": false,
      "t": 66780,
      "d": 300,
      "v": 69
    },
    {
      "midi": 73,
      "hit": false,
      "t": 66780,
      "d": 300,
      "v": 69
    },
    {
      "midi": 58,
      "hit": false,
      "t": 66780,
      "d": 600,
      "v": 96
    },
    {
      "midi": 68,
      "hit": false,
      "t": 66780,
      "d": 600,
      "v": 107
    },
    {
      "midi": 80,
      "hit": false,
      "t": 66780,
      "d": 600,
      "v": 107
    },
    {
      "midi": 70,
      "hit": false,
      "t": 67080,
      "d": 300,
      "v": 78
    },
    {
      "midi": 73,
      "hit": false,
      "t": 67080,
      "d": 300,
      "v": 78
    },
    {
      "midi": 61,
      "hit": false,
      "t": 67080,
      "d": 600,
      "v": 96
    },
    {
      "midi": 54,
      "hit": false,
      "t": 67080,
      "d": 600,
      "v": 100
    },
    {
      "midi": 70,
      "hit": false,
      "t": 67380,
      "d": 300,
      "v": 69
    },
    {
      "midi": 73,
      "hit": false,
      "t": 67380,
      "d": 300,
      "v": 69
    },
    {
      "midi": 68,
      "hit": false,
      "t": 67380,
      "d": 600,
      "v": 96
    },
    {
      "midi": 78,
      "hit": false,
      "t": 67380,
      "d": 1725,
      "v": 107
    },
    {
      "midi": 39,
      "hit": false,
      "t": 67680,
      "d": 300,
      "v": 107
    },
    {
      "midi": 70,
      "hit": false,
      "t": 67680,
      "d": 300,
      "v": 78
    },
    {
      "midi": 75,
      "hit": false,
      "t": 67680,
      "d": 300,
      "v": 78
    },
    {
      "midi": 51,
      "hit": false,
      "t": 67680,
      "d": 600,
      "v": 100
    },
    {
      "midi": 58,
      "hit": false,
      "t": 67980,
      "d": 300,
      "v": 96
    },
    {
      "midi": 70,
      "hit": false,
      "t": 67980,
      "d": 300,
      "v": 69
    },
    {
      "midi": 75,
      "hit": false,
      "t": 67980,
      "d": 300,
      "v": 69
    },
    {
      "midi": 70,
      "hit": false,
      "t": 68280,
      "d": 300,
      "v": 69
    },
    {
      "midi": 75,
      "hit": false,
      "t": 68280,
      "d": 300,
      "v": 69
    },
    {
      "midi": 63,
      "hit": false,
      "t": 68280,
      "d": 600,
      "v": 96
    },
    {
      "midi": 39,
      "hit": false,
      "t": 68580,
      "d": 300,
      "v": 127
    },
    {
      "midi": 58,
      "hit": false,
      "t": 68580,
      "d": 300,
      "v": 100
    },
    {
      "midi": 51,
      "hit": false,
      "t": 68580,
      "d": 300,
      "v": 100
    },
    {
      "midi": 75,
      "hit": false,
      "t": 68580,
      "d": 300,
      "v": 78
    },
    {
      "midi": 68,
      "hit": false,
      "t": 68580,
      "d": 300,
      "v": 78
    },
    {
      "midi": 66,
      "hit": false,
      "t": 68580,
      "d": 600,
      "v": 96
    },
    {
      "midi": 54,
      "hit": false,
      "t": 68580,
      "d": 600,
      "v": 100
    },
    {
      "midi": 37,
      "hit": false,
      "t": 68880,
      "d": 300,
      "v": 107
    },
    {
      "midi": 68,
      "hit": false,
      "t": 68880,
      "d": 300,
      "v": 78
    },
    {
      "midi": 73,
      "hit": false,
      "t": 68880,
      "d": 300,
      "v": 78
    },
    {
      "midi": 51,
      "hit": false,
      "t": 68880,
      "d": 900,
      "v": 100
    },
    {
      "midi": 56,
      "hit": false,
      "t": 68880,
      "d": 900,
      "v": 100
    },
    {
      "midi": 63,
      "hit": false,
      "t": 69180,
      "d": 300,
      "v": 107
    },
    {
      "midi": 75,
      "hit": false,
      "t": 69180,
      "d": 300,
      "v": 107
    },
    {
      "midi": 68,
      "hit": false,
      "t": 69180,
      "d": 300,
      "v": 69
    },
    {
      "midi": 73,
      "hit": false,
      "t": 69180,
      "d": 300,
      "v": 69
    },
    {
      "midi": 58,
      "hit": false,
      "t": 69180,
      "d": 600,
      "v": 96
    },
    {
      "midi": 54,
      "hit": false,
      "t": 69180,
      "d": 600,
      "v": 100
    },
    {
      "midi": 65,
      "hit": false,
      "t": 69480,
      "d": 300,
      "v": 107
    },
    {
      "midi": 77,
      "hit": false,
      "t": 69480,
      "d": 300,
      "v": 107
    },
    {
      "midi": 68,
      "hit": false,
      "t": 69480,
      "d": 300,
      "v": 69
    },
    {
      "midi": 73,
      "hit": false,
      "t": 69480,
      "d": 300,
      "v": 69
    },
    {
      "midi": 63,
      "hit": false,
      "t": 69480,
      "d": 600,
      "v": 96
    },
    {
      "midi": 66,
      "hit": false,
      "t": 69780,
      "d": 300,
      "v": 96
    },
    {
      "midi": 78,
      "hit": false,
      "t": 69780,
      "d": 300,
      "v": 107
    },
    {
      "midi": 68,
      "hit": false,
      "t": 69780,
      "d": 300,
      "v": 78
    },
    {
      "midi": 73,
      "hit": false,
      "t": 69780,
      "d": 300,
      "v": 78
    },
    {
      "midi": 35,
      "hit": false,
      "t": 70080,
      "d": 300,
      "v": 107
    },
    {
      "midi": 75,
      "hit": false,
      "t": 70080,
      "d": 300,
      "v": 78
    },
    {
      "midi": 71,
      "hit": false,
      "t": 70080,
      "d": 300,
      "v": 78
    },
    {
      "midi": 51,
      "hit": false,
      "t": 70080,
      "d": 600,
      "v": 100
    },
    {
      "midi": 54,
      "hit": false,
      "t": 70080,
      "d": 600,
      "v": 100
    },
    {
      "midi": 71,
      "hit": false,
      "t": 70380,
      "d": 300,
      "v": 69
    },
    {
      "midi": 75,
      "hit": false,
      "t": 70380,
      "d": 300,
      "v": 69
    },
    {
      "midi": 59,
      "hit": false,
      "t": 70380,
      "d": 600,
      "v": 96
    },
    {
      "midi": 71,
      "hit": false,
      "t": 70680,
      "d": 300,
      "v": 69
    },
    {
      "midi": 75,
      "hit": false,
      "t": 70680,
      "d": 300,
      "v": 69
    },
    {
      "midi": 63,
      "hit": false,
      "t": 70680,
      "d": 600,
      "v": 96
    },
    {
      "midi": 35,
      "hit": false,
      "t": 70980,
      "d": 300,
      "v": 127
    },
    {
      "midi": 75,
      "hit": false,
      "t": 70980,
      "d": 300,
      "v": 78
    },
    {
      "midi": 71,
      "hit": false,
      "t": 70980,
      "d": 300,
      "v": 78
    },
    {
      "midi": 51,
      "hit": false,
      "t": 70980,
      "d": 1200,
      "v": 100
    },
    {
      "midi": 71,
      "hit": false,
      "t": 71280,
      "d": 300,
      "v": 69
    },
    {
      "midi": 35,
      "hit": false,
      "t": 71280,
      "d": 300,
      "v": 127
    },
    {
      "midi": 75,
      "hit": false,
      "t": 71280,
      "d": 300,
      "v": 69
    },
    {
      "midi": 63,
      "hit": false,
      "t": 71580,
      "d": 300,
      "v": 107
    },
    {
      "midi": 75,
      "hit": false,
      "t": 71580,
      "d": 300,
      "v": 69
    },
    {
      "midi": 71,
      "hit": false,
      "t": 71580,
      "d": 300,
      "v": 69
    },
    {
      "midi": 59,
      "hit": false,
      "t": 71580,
      "d": 600,
      "v": 96
    },
    {
      "midi": 54,
      "hit": false,
      "t": 71880,
      "d": 300,
      "v": 100
    },
    {
      "midi": 65,
      "hit": false,
      "t": 71880,
      "d": 300,
      "v": 107
    },
    {
      "midi": 77,
      "hit": false,
      "t": 71880,
      "d": 300,
      "v": 107
    },
    {
      "midi": 71,
      "hit": false,
      "t": 71880,
      "d": 300,
      "v": 69
    },
    {
      "midi": 75,
      "hit": false,
      "t": 71880,
      "d": 300,
      "v": 69
    },
    {
      "midi": 63,
      "hit": false,
      "t": 71880,
      "d": 600,
      "v": 96
    },
    {
      "midi": 66,
      "hit": false,
      "t": 72180,
      "d": 300,
      "v": 107
    },
    {
      "midi": 78,
      "hit": false,
      "t": 72180,
      "d": 300,
      "v": 107
    },
    {
      "midi": 71,
      "hit": false,
      "t": 72180,
      "d": 300,
      "v": 69
    },
    {
      "midi": 75,
      "hit": false,
      "t": 72180,
      "d": 300,
      "v": 69
    },
    {
      "midi": 36,
      "hit": false,
      "t": 72480,
      "d": 300,
      "v": 107
    },
    {
      "midi": 72,
      "hit": false,
      "t": 72480,
      "d": 300,
      "v": 78
    },
    {
      "midi": 75,
      "hit": false,
      "t": 72480,
      "d": 300,
      "v": 78
    },
    {
      "midi": 66,
      "hit": false,
      "t": 72480,
      "d": 600,
      "v": 107
    },
    {
      "midi": 56,
      "hit": false,
      "t": 72480,
      "d": 600,
      "v": 100
    },
    {
      "midi": 48,
      "hit": false,
      "t": 72480,
      "d": 600,
      "v": 100
    },
    {
      "midi": 51,
      "hit": false,
      "t": 72480,
      "d": 600,
      "v": 100
    },
    {
      "midi": 78,
      "hit": false,
      "t": 72480,
      "d": 600,
      "v": 107
    },
    {
      "midi": 72,
      "hit": false,
      "t": 72780,
      "d": 300,
      "v": 69
    },
    {
      "midi": 75,
      "hit": false,
      "t": 72780,
      "d": 300,
      "v": 69
    },
    {
      "midi": 60,
      "hit": false,
      "t": 72780,
      "d": 600,
      "v": 96
    },
    {
      "midi": 65,
      "hit": false,
      "t": 73080,
      "d": 300,
      "v": 107
    },
    {
      "midi": 77,
      "hit": false,
      "t": 73080,
      "d": 300,
      "v": 107
    },
    {
      "midi": 72,
      "hit": false,
      "t": 73080,
      "d": 300,
      "v": 69
    },
    {
      "midi": 75,
      "hit": false,
      "t": 73080,
      "d": 300,
      "v": 69
    },
    {
      "midi": 63,
      "hit": false,
      "t": 73080,
      "d": 600,
      "v": 96
    },
    {
      "midi": 54,
      "hit": false,
      "t": 73080,
      "d": 600,
      "v": 100
    },
    {
      "midi": 36,
      "hit": false,
      "t": 73380,
      "d": 300,
      "v": 127
    },
    {
      "midi": 72,
      "hit": false,
      "t": 73380,
      "d": 300,
      "v": 78
    },
    {
      "midi": 75,
      "hit": false,
      "t": 73380,
      "d": 300,
      "v": 78
    },
    {
      "midi": 68,
      "hit": false,
      "t": 73380,
      "d": 600,
      "v": 96
    },
    {
      "midi": 80,
      "hit": false,
      "t": 73380,
      "d": 600,
      "v": 107
    },
    {
      "midi": 56,
      "hit": false,
      "t": 73380,
      "d": 1200,
      "v": 100
    },
    {
      "midi": 48,
      "hit": false,
      "t": 73380,
      "d": 1200,
      "v": 100
    },
    {
      "midi": 51,
      "hit": false,
      "t": 73380,
      "d": 1200,
      "v": 100
    },
    {
      "midi": 36,
      "hit": false,
      "t": 73680,
      "d": 300,
      "v": 127
    },
    {
      "midi": 72,
      "hit": false,
      "t": 73680,
      "d": 300,
      "v": 69
    },
    {
      "midi": 75,
      "hit": false,
      "t": 73680,
      "d": 300,
      "v": 69
    },
    {
      "midi": 66,
      "hit": false,
      "t": 73980,
      "d": 300,
      "v": 107
    },
    {
      "midi": 78,
      "hit": false,
      "t": 73980,
      "d": 300,
      "v": 107
    },
    {
      "midi": 72,
      "hit": false,
      "t": 73980,
      "d": 300,
      "v": 69
    },
    {
      "midi": 75,
      "hit": false,
      "t": 73980,
      "d": 300,
      "v": 69
    },
    {
      "midi": 60,
      "hit": false,
      "t": 73980,
      "d": 600,
      "v": 96
    },
    {
      "midi": 54,
      "hit": false,
      "t": 73980,
      "d": 600,
      "v": 100
    },
    {
      "midi": 68,
      "hit": false,
      "t": 74280,
      "d": 300,
      "v": 107
    },
    {
      "midi": 80,
      "hit": false,
      "t": 74280,
      "d": 300,
      "v": 107
    },
    {
      "midi": 72,
      "hit": false,
      "t": 74280,
      "d": 300,
      "v": 78
    },
    {
      "midi": 75,
      "hit": false,
      "t": 74280,
      "d": 300,
      "v": 78
    },
    {
      "midi": 63,
      "hit": false,
      "t": 74280,
      "d": 600,
      "v": 96
    },
    {
      "midi": 72,
      "hit": false,
      "t": 74580,
      "d": 300,
      "v": 69
    },
    {
      "midi": 75,
      "hit": false,
      "t": 74580,
      "d": 300,
      "v": 69
    },
    {
      "midi": 70,
      "hit": false,
      "t": 74580,
      "d": 600,
      "v": 96
    },
    {
      "midi": 82,
      "hit": false,
      "t": 74580,
      "d": 3300,
      "v": 107
    },
    {
      "midi": 34,
      "hit": false,
      "t": 74880,
      "d": 300,
      "v": 107
    },
    {
      "midi": 77,
      "hit": false,
      "t": 74880,
      "d": 300,
      "v": 78
    },
    {
      "midi": 74,
      "hit": false,
      "t": 74880,
      "d": 300,
      "v": 78
    },
    {
      "midi": 53,
      "hit": false,
      "t": 74880,
      "d": 600,
      "v": 100
    },
    {
      "midi": 58,
      "hit": false,
      "t": 75180,
      "d": 300,
      "v": 96
    },
    {
      "midi": 74,
      "hit": false,
      "t": 75180,
      "d": 300,
      "v": 69
    },
    {
      "midi": 77,
      "hit": false,
      "t": 75180,
      "d": 300,
      "v": 69
    },
    {
      "midi": 74,
      "hit": false,
      "t": 75480,
      "d": 300,
      "v": 69
    },
    {
      "midi": 77,
      "hit": false,
      "t": 75480,
      "d": 300,
      "v": 69
    },
    {
      "midi": 65,
      "hit": false,
      "t": 75480,
      "d": 600,
      "v": 96
    },
    {
      "midi": 54,
      "hit": false,
      "t": 75480,
      "d": 600,
      "v": 100
    },
    {
      "midi": 53,
      "hit": false,
      "t": 75780,
      "d": 300,
      "v": 100
    },
    {
      "midi": 58,
      "hit": false,
      "t": 75780,
      "d": 300,
      "v": 100
    },
    {
      "midi": 34,
      "hit": false,
      "t": 75780,
      "d": 300,
      "v": 127
    },
    {
      "midi": 77,
      "hit": false,
      "t": 75780,
      "d": 300,
      "v": 78
    },
    {
      "midi": 74,
      "hit": false,
      "t": 75780,
      "d": 300,
      "v": 78
    },
    {
      "midi": 68,
      "hit": false,
      "t": 75780,
      "d": 600,
      "v": 96
    },
    {
      "midi": 34,
      "hit": false,
      "t": 76080,
      "d": 300,
      "v": 127
    },
    {
      "midi": 78,
      "hit": false,
      "t": 76080,
      "d": 300,
      "v": 78
    },
    {
      "midi": 75,
      "hit": false,
      "t": 76080,
      "d": 300,
      "v": 78
    },
    {
      "midi": 70,
      "hit": false,
      "t": 76080,
      "d": 600,
      "v": 96
    },
    {
      "midi": 59,
      "hit": false,
      "t": 76080,
      "d": 600,
      "v": 100
    },
    {
      "midi": 54,
      "hit": false,
      "t": 76380,
      "d": 300,
      "v": 100
    },
    {
      "midi": 75,
      "hit": false,
      "t": 76380,
      "d": 300,
      "v": 69
    },
    {
      "midi": 78,
      "hit": false,
      "t": 76380,
      "d": 300,
      "v": 69
    },
    {
      "midi": 58,
      "hit": false,
      "t": 76380,
      "d": 600,
      "v": 96
    },
    {
      "midi": 75,
      "hit": false,
      "t": 76680,
      "d": 300,
      "v": 69
    },
    {
      "midi": 78,
      "hit": false,
      "t": 76680,
      "d": 300,
      "v": 69
    },
    {
      "midi": 62,
      "hit": false,
      "t": 76680,
      "d": 600,
      "v": 96
    },
    {
      "midi": 59,
      "hit": false,
      "t": 76980,
      "d": 300,
      "v": 100
    },
    {
      "midi": 54,
      "hit": false,
      "t": 76980,
      "d": 300,
      "v": 100
    },
    {
      "midi": 41,
      "hit": false,
      "t": 76980,
      "d": 300,
      "v": 127
    },
    {
      "midi": 75,
      "hit": false,
      "t": 76980,
      "d": 300,
      "v": 78
    },
    {
      "midi": 78,
      "hit": false,
      "t": 76980,
      "d": 300,
      "v": 78
    },
    {
      "midi": 68,
      "hit": false,
      "t": 76980,
      "d": 600,
      "v": 96
    },
    {
      "midi": 53,
      "hit": false,
      "t": 77280,
      "d": 300,
      "v": 100
    },
    {
      "midi": 58,
      "hit": false,
      "t": 77280,
      "d": 300,
      "v": 100
    },
    {
      "midi": 46,
      "hit": false,
      "t": 77280,
      "d": 300,
      "v": 127
    },
    {
      "midi": 34,
      "hit": false,
      "t": 77280,
      "d": 300,
      "v": 107
    },
    {
      "midi": 75,
      "hit": false,
      "t": 77280,
      "d": 300,
      "v": 69
    },
    {
      "midi": 70,
      "hit": false,
      "t": 77280,
      "d": 300,
      "v": 69
    },
    {
      "midi": 80,
      "hit": false,
      "t": 77280,
      "d": 300,
      "v": 78
    },
    {
      "midi": 77,
      "hit": false,
      "t": 77280,
      "d": 300,
      "v": 78
    },
    {
      "midi": 54,
      "hit": false,
      "t": 77280,
      "d": 600,
      "v": 100
    },
    {
      "midi": 70,
      "hit": false,
      "t": 78180,
      "d": 300,
      "v": 107
    },
    {
      "midi": 78,
      "hit": false,
      "t": 78180,
      "d": 300,
      "v": 100
    },
    {
      "midi": 82,
      "hit": false,
      "t": 78180,
      "d": 300,
      "v": 112
    },
    {
      "midi": 70,
      "hit": false,
      "t": 78480,
      "d": 300,
      "v": 107
    },
    {
      "midi": 78,
      "hit": false,
      "t": 78480,
      "d": 300,
      "v": 100
    },
    {
      "midi": 82,
      "hit": false,
      "t": 78480,
      "d": 300,
      "v": 112
    },
    {
      "midi": 68,
      "hit": false,
      "t": 78780,
      "d": 300,
      "v": 107
    },
    {
      "midi": 77,
      "hit": false,
      "t": 78780,
      "d": 300,
      "v": 100
    },
    {
      "midi": 80,
      "hit": false,
      "t": 78780,
      "d": 300,
      "v": 112
    },
    {
      "midi": 58,
      "hit": false,
      "t": 79080,
      "d": 150,
      "v": 107
    },
    {
      "midi": 66,
      "hit": false,
      "t": 79080,
      "d": 300,
      "v": 107
    },
    {
      "midi": 75,
      "hit": false,
      "t": 79080,
      "d": 300,
      "v": 100
    },
    {
      "midi": 78,
      "hit": false,
      "t": 79080,
      "d": 300,
      "v": 112
    },
    {
      "midi": 59,
      "hit": false,
      "t": 79155,
      "d": 150,
      "v": 107
    },
    {
      "midi": 61,
      "hit": false,
      "t": 79230,
      "d": 150,
      "v": 107
    },
    {
      "midi": 62,
      "hit": false,
      "t": 79305,
      "d": 150,
      "v": 107
    },
    {
      "midi": 63,
      "hit": false,
      "t": 79380,
      "d": 150,
      "v": 107
    },
    {
      "midi": 78,
      "hit": false,
      "t": 79380,
      "d": 300,
      "v": 100
    },
    {
      "midi": 82,
      "hit": false,
      "t": 79380,
      "d": 1500,
      "v": 112
    },
    {
      "midi": 65,
      "hit": false,
      "t": 79455,
      "d": 150,
      "v": 107
    },
    {
      "midi": 66,
      "hit": false,
      "t": 79530,
      "d": 150,
      "v": 107
    },
    {
      "midi": 68,
      "hit": false,
      "t": 79605,
      "d": 150,
      "v": 107
    },
    {
      "midi": 44,
      "hit": false,
      "t": 79680,
      "d": 300,
      "v": 80
    },
    {
      "midi": 39,
      "hit": false,
      "t": 79680,
      "d": 750,
      "v": 127
    },
    {
      "midi": 54,
      "hit": false,
      "t": 79680,
      "d": 900,
      "v": 100
    },
    {
      "midi": 58,
      "hit": false,
      "t": 79680,
      "d": 900,
      "v": 100
    },
    {
      "midi": 63,
      "hit": false,
      "t": 79680,
      "d": 900,
      "v": 100
    },
    {
      "midi": 78,
      "hit": false,
      "t": 79680,
      "d": 1500,
      "v": 100
    },
    {
      "midi": 44,
      "hit": false,
      "t": 79980,
      "d": 300,
      "v": 80
    },
    {
      "midi": 46,
      "hit": false,
      "t": 80280,
      "d": 300,
      "v": 90
    },
    {
      "midi": 70,
      "hit": false,
      "t": 80580,
      "d": 150,
      "v": 95
    },
    {
      "midi": 44,
      "hit": false,
      "t": 80580,
      "d": 300,
      "v": 80
    },
    {
      "midi": 39,
      "hit": false,
      "t": 80580,
      "d": 1200,
      "v": 127
    },
    {
      "midi": 66,
      "hit": false,
      "t": 80580,
      "d": 1200,
      "v": 95
    },
    {
      "midi": 58,
      "hit": false,
      "t": 80580,
      "d": 1500,
      "v": 100
    },
    {
      "midi": 63,
      "hit": false,
      "t": 80580,
      "d": 1500,
      "v": 100
    },
    {
      "midi": 44,
      "hit": false,
      "t": 80880,
      "d": 300,
      "v": 80
    },
    {
      "midi": 70,
      "hit": false,
      "t": 81180,
      "d": 300,
      "v": 107
    },
    {
      "midi": 78,
      "hit": false,
      "t": 81180,
      "d": 300,
      "v": 100
    },
    {
      "midi": 82,
      "hit": false,
      "t": 81180,
      "d": 300,
      "v": 112
    },
    {
      "midi": 44,
      "hit": false,
      "t": 81180,
      "d": 300,
      "v": 80
    },
    {
      "midi": 70,
      "hit": false,
      "t": 81480,
      "d": 300,
      "v": 107
    },
    {
      "midi": 78,
      "hit": false,
      "t": 81480,
      "d": 300,
      "v": 100
    },
    {
      "midi": 82,
      "hit": false,
      "t": 81480,
      "d": 300,
      "v": 112
    },
    {
      "midi": 54,
      "hit": false,
      "t": 81480,
      "d": 600,
      "v": 100
    },
    {
      "midi": 70,
      "hit": false,
      "t": 81780,
      "d": 300,
      "v": 107
    },
    {
      "midi": 78,
      "hit": false,
      "t": 81780,
      "d": 300,
      "v": 100
    },
    {
      "midi": 82,
      "hit": false,
      "t": 81780,
      "d": 300,
      "v": 112
    },
    {
      "midi": 44,
      "hit": false,
      "t": 81780,
      "d": 300,
      "v": 80
    },
    {
      "midi": 39,
      "hit": false,
      "t": 81780,
      "d": 300,
      "v": 127
    },
    {
      "midi": 44,
      "hit": false,
      "t": 82080,
      "d": 300,
      "v": 127
    },
    {
      "midi": 70,
      "hit": false,
      "t": 82080,
      "d": 600,
      "v": 107
    },
    {
      "midi": 78,
      "hit": false,
      "t": 82080,
      "d": 600,
      "v": 100
    },
    {
      "midi": 82,
      "hit": false,
      "t": 82080,
      "d": 600,
      "v": 112
    },
    {
      "midi": 63,
      "hit": false,
      "t": 82080,
      "d": 900,
      "v": 100
    },
    {
      "midi": 59,
      "hit": false,
      "t": 82080,
      "d": 900,
      "v": 100
    },
    {
      "midi": 66,
      "hit": false,
      "t": 82080,
      "d": 900,
      "v": 100
    },
    {
      "midi": 44,
      "hit": false,
      "t": 82380,
      "d": 300,
      "v": 80
    },
    {
      "midi": 71,
      "hit": false,
      "t": 82680,
      "d": 300,
      "v": 107
    },
    {
      "midi": 80,
      "hit": false,
      "t": 82680,
      "d": 300,
      "v": 100
    },
    {
      "midi": 83,
      "hit": false,
      "t": 82680,
      "d": 300,
      "v": 112
    },
    {
      "midi": 46,
      "hit": false,
      "t": 82680,
      "d": 300,
      "v": 90
    },
    {
      "midi": 44,
      "hit": false,
      "t": 82980,
      "d": 300,
      "v": 127
    },
    {
      "midi": 71,
      "hit": false,
      "t": 82980,
      "d": 600,
      "v": 95
    },
    {
      "midi": 80,
      "hit": false,
      "t": 82980,
      "d": 600,
      "v": 100
    },
    {
      "midi": 83,
      "hit": false,
      "t": 82980,
      "d": 600,
      "v": 112
    },
    {
      "midi": 59,
      "hit": false,
      "t": 82980,
      "d": 900,
      "v": 100
    },
    {
      "midi": 66,
      "hit": false,
      "t": 82980,
      "d": 900,
      "v": 100
    },
    {
      "midi": 68,
      "hit": false,
      "t": 82980,
      "d": 900,
      "v": 95
    },
    {
      "midi": 44,
      "hit": false,
      "t": 83280,
      "d": 300,
      "v": 80
    },
    {
      "midi": 44,
      "hit": false,
      "t": 83580,
      "d": 300,
      "v": 80
    },
    {
      "midi": 39,
      "hit": false,
      "t": 83580,
      "d": 300,
      "v": 127
    },
    {
      "midi": 70,
      "hit": false,
      "t": 83580,
      "d": 600,
      "v": 107
    },
    {
      "midi": 78,
      "hit": false,
      "t": 83580,
      "d": 600,
      "v": 100
    },
    {
      "midi": 82,
      "hit": false,
      "t": 83580,
      "d": 600,
      "v": 112
    },
    {
      "midi": 44,
      "hit": false,
      "t": 83880,
      "d": 300,
      "v": 127
    },
    {
      "midi": 59,
      "hit": false,
      "t": 83880,
      "d": 600,
      "v": 100
    },
    {
      "midi": 63,
      "hit": false,
      "t": 83880,
      "d": 600,
      "v": 100
    },
    {
      "midi": 66,
      "hit": false,
      "t": 83880,
      "d": 600,
      "v": 100
    },
    {
      "midi": 54,
      "hit": false,
      "t": 83880,
      "d": 600,
      "v": 100
    },
    {
      "midi": 44,
      "hit": false,
      "t": 84180,
      "d": 300,
      "v": 80
    },
    {
      "midi": 39,
      "hit": false,
      "t": 84180,
      "d": 300,
      "v": 127
    },
    {
      "midi": 80,
      "hit": false,
      "t": 84180,
      "d": 1050,
      "v": 112
    },
    {
      "midi": 68,
      "hit": false,
      "t": 84180,
      "d": 1200,
      "v": 107
    },
    {
      "midi": 77,
      "hit": false,
      "t": 84180,
      "d": 1200,
      "v": 100
    },
    {
      "midi": 44,
      "hit": false,
      "t": 84480,
      "d": 300,
      "v": 80
    },
    {
      "midi": 37,
      "hit": false,
      "t": 84480,
      "d": 750,
      "v": 127
    },
    {
      "midi": 59,
      "hit": false,
      "t": 84480,
      "d": 900,
      "v": 100
    },
    {
      "midi": 61,
      "hit": false,
      "t": 84480,
      "d": 900,
      "v": 100
    },
    {
      "midi": 65,
      "hit": false,
      "t": 84480,
      "d": 900,
      "v": 100
    },
    {
      "midi": 44,
      "hit": false,
      "t": 84780,
      "d": 300,
      "v": 80
    },
    {
      "midi": 46,
      "hit": false,
      "t": 85080,
      "d": 300,
      "v": 90
    },
    {
      "midi": 61,
      "hit": false,
      "t": 85380,
      "d": 300,
      "v": 100
    },
    {
      "midi": 73,
      "hit": false,
      "t": 85380,
      "d": 300,
      "v": 112
    },
    {
      "midi": 44,
      "hit": false,
      "t": 85380,
      "d": 300,
      "v": 80
    },
    {
      "midi": 37,
      "hit": false,
      "t": 85380,
      "d": 1200,
      "v": 127
    },
    {
      "midi": 65,
      "hit": false,
      "t": 85380,
      "d": 1200,
      "v": 95
    },
    {
      "midi": 59,
      "hit": false,
      "t": 85380,
      "d": 1500,
      "v": 100
    },
    {
      "midi": 44,
      "hit": false,
      "t": 85680,
      "d": 300,
      "v": 80
    },
    {
      "midi": 71,
      "hit": false,
      "t": 85680,
      "d": 450,
      "v": 107
    },
    {
      "midi": 77,
      "hit": false,
      "t": 85680,
      "d": 450,
      "v": 100
    },
    {
      "midi": 83,
      "hit": false,
      "t": 85680,
      "d": 450,
      "v": 112
    },
    {
      "midi": 44,
      "hit": false,
      "t": 85980,
      "d": 300,
      "v": 80
    },
    {
      "midi": 71,
      "hit": false,
      "t": 86130,
      "d": 450,
      "v": 107
    },
    {
      "midi": 77,
      "hit": false,
      "t": 86130,
      "d": 450,
      "v": 100
    },
    {
      "midi": 83,
      "hit": false,
      "t": 86130,
      "d": 450,
      "v": 112
    },
    {
      "midi": 54,
      "hit": false,
      "t": 86280,
      "d": 600,
      "v": 100
    },
    {
      "midi": 44,
      "hit": false,
      "t": 86580,
      "d": 300,
      "v": 80
    },
    {
      "midi": 32,
      "hit": false,
      "t": 86580,
      "d": 300,
      "v": 127
    },
    {
      "midi": 73,
      "hit": false,
      "t": 86580,
      "d": 2700,
      "v": 100
    },
    {
      "midi": 82,
      "hit": false,
      "t": 86580,
      "d": 2700,
      "v": 112
    },
    {
      "midi": 44,
      "hit": false,
      "t": 86880,
      "d": 300,
      "v": 80
    },
    {
      "midi": 30,
      "hit": false,
      "t": 86880,
      "d": 750,
      "v": 127
    },
    {
      "midi": 56,
      "hit": false,
      "t": 86880,
      "d": 900,
      "v": 100
    },
    {
      "midi": 58,
      "hit": false,
      "t": 86880,
      "d": 900,
      "v": 100
    },
    {
      "midi": 61,
      "hit": false,
      "t": 86880,
      "d": 900,
      "v": 100
    },
    {
      "midi": 65,
      "hit": false,
      "t": 86880,
      "d": 900,
      "v": 105
    },
    {
      "midi": 68,
      "hit": false,
      "t": 86880,
      "d": 900,
      "v": 105
    },
    {
      "midi": 44,
      "hit": false,
      "t": 87180,
      "d": 300,
      "v": 80
    },
    {
      "midi": 46,
      "hit": false,
      "t": 87480,
      "d": 300,
      "v": 90
    },
    {
      "midi": 44,
      "hit": false,
      "t": 87780,
      "d": 300,
      "v": 80
    },
    {
      "midi": 30,
      "hit": false,
      "t": 87780,
      "d": 600,
      "v": 127
    },
    {
      "midi": 61,
      "hit": false,
      "t": 87780,
      "d": 900,
      "v": 100
    },
    {
      "midi": 66,
      "hit": false,
      "t": 87780,
      "d": 900,
      "v": 105
    },
    {
      "midi": 58,
      "hit": false,
      "t": 87780,
      "d": 900,
      "v": 100
    },
    {
      "midi": 70,
      "hit": false,
      "t": 87780,
      "d": 900,
      "v": 105
    },
    {
      "midi": 44,
      "hit": false,
      "t": 88080,
      "d": 300,
      "v": 80
    },
    {
      "midi": 46,
      "hit": false,
      "t": 88380,
      "d": 300,
      "v": 80
    },
    {
      "midi": 44,
      "hit": false,
      "t": 88380,
      "d": 300,
      "v": 80
    },
    {
      "midi": 37,
      "hit": false,
      "t": 88380,
      "d": 300,
      "v": 127
    },
    {
      "midi": 46,
      "hit": false,
      "t": 88680,
      "d": 300,
      "v": 90
    },
    {
      "midi": 42,
      "hit": false,
      "t": 88680,
      "d": 300,
      "v": 127
    },
    {
      "midi": 66,
      "hit": false,
      "t": 88680,
      "d": 600,
      "v": 100
    },
    {
      "midi": 61,
      "hit": false,
      "t": 88680,
      "d": 600,
      "v": 100
    },
    {
      "midi": 68,
      "hit": false,
      "t": 88680,
      "d": 600,
      "v": 105
    },
    {
      "midi": 54,
      "hit": false,
      "t": 88680,
      "d": 600,
      "v": 100
    },
    {
      "midi": 65,
      "hit": false,
      "t": 88680,
      "d": 600,
      "v": 105
    },
    {
      "midi": 44,
      "hit": false,
      "t": 88980,
      "d": 300,
      "v": 80
    },
    {
      "midi": 37,
      "hit": false,
      "t": 88980,
      "d": 300,
      "v": 127
    },
    {
      "midi": 44,
      "hit": false,
      "t": 89280,
      "d": 300,
      "v": 80
    },
    {
      "midi": 35,
      "hit": false,
      "t": 89280,
      "d": 750,
      "v": 127
    },
    {
      "midi": 59,
      "hit": false,
      "t": 89280,
      "d": 900,
      "v": 100
    },
    {
      "midi": 63,
      "hit": false,
      "t": 89280,
      "d": 900,
      "v": 105
    },
    {
      "midi": 44,
      "hit": false,
      "t": 89580,
      "d": 300,
      "v": 80
    },
    {
      "midi": 66,
      "hit": false,
      "t": 89880,
      "d": 300,
      "v": 107
    },
    {
      "midi": 78,
      "hit": false,
      "t": 89880,
      "d": 300,
      "v": 112
    },
    {
      "midi": 46,
      "hit": false,
      "t": 89880,
      "d": 300,
      "v": 90
    },
    {
      "midi": 65,
      "hit": false,
      "t": 90180,
      "d": 300,
      "v": 107
    },
    {
      "midi": 77,
      "hit": false,
      "t": 90180,
      "d": 300,
      "v": 112
    },
    {
      "midi": 44,
      "hit": false,
      "t": 90180,
      "d": 300,
      "v": 80
    },
    {
      "midi": 35,
      "hit": false,
      "t": 90180,
      "d": 900,
      "v": 127
    },
    {
      "midi": 63,
      "hit": false,
      "t": 90180,
      "d": 1500,
      "v": 100
    },
    {
      "midi": 59,
      "hit": false,
      "t": 90180,
      "d": 1500,
      "v": 100
    },
    {
      "midi": 44,
      "hit": false,
      "t": 90480,
      "d": 300,
      "v": 80
    },
    {
      "midi": 66,
      "hit": false,
      "t": 90480,
      "d": 900,
      "v": 107
    },
    {
      "midi": 78,
      "hit": false,
      "t": 90480,
      "d": 900,
      "v": 112
    },
    {
      "midi": 44,
      "hit": false,
      "t": 90780,
      "d": 300,
      "v": 80
    },
    {
      "midi": 54,
      "hit": false,
      "t": 91080,
      "d": 600,
      "v": 100
    },
    {
      "midi": 35,
      "hit": false,
      "t": 91080,
      "d": 600,
      "v": 127
    },
    {
      "midi": 44,
      "hit": false,
      "t": 91380,
      "d": 300,
      "v": 80
    },
    {
      "midi": 70,
      "hit": false,
      "t": 91380,
      "d": 600,
      "v": 107
    },
    {
      "midi": 82,
      "hit": false,
      "t": 91380,
      "d": 600,
      "v": 112
    },
    {
      "midi": 44,
      "hit": false,
      "t": 91680,
      "d": 300,
      "v": 80
    },
    {
      "midi": 37,
      "hit": false,
      "t": 91680,
      "d": 750,
      "v": 127
    },
    {
      "midi": 56,
      "hit": false,
      "t": 91680,
      "d": 900,
      "v": 100
    },
    {
      "midi": 61,
      "hit": false,
      "t": 91680,
      "d": 900,
      "v": 95
    },
    {
      "midi": 65,
      "hit": false,
      "t": 91680,
      "d": 900,
      "v": 100
    },
    {
      "midi": 44,
      "hit": false,
      "t": 91980,
      "d": 300,
      "v": 80
    },
    {
      "midi": 68,
      "hit": false,
      "t": 91980,
      "d": 600,
      "v": 107
    },
    {
      "midi": 80,
      "hit": false,
      "t": 91980,
      "d": 600,
      "v": 112
    },
    {
      "midi": 46,
      "hit": false,
      "t": 92280,
      "d": 300,
      "v": 90
    },
    {
      "midi": 44,
      "hit": false,
      "t": 92580,
      "d": 300,
      "v": 80
    },
    {
      "midi": 65,
      "hit": false,
      "t": 92580,
      "d": 600,
      "v": 100
    },
    {
      "midi": 77,
      "hit": false,
      "t": 92580,
      "d": 600,
      "v": 112
    },
    {
      "midi": 68,
      "hit": false,
      "t": 92580,
      "d": 900,
      "v": 100
    },
    {
      "midi": 61,
      "hit": false,
      "t": 92580,
      "d": 900,
      "v": 100
    },
    {
      "midi": 37,
      "hit": false,
      "t": 92580,
      "d": 1500,
      "v": 127
    },
    {
      "midi": 44,
      "hit": false,
      "t": 92880,
      "d": 300,
      "v": 80
    },
    {
      "midi": 44,
      "hit": false,
      "t": 93180,
      "d": 300,
      "v": 80
    },
    {
      "midi": 63,
      "hit": false,
      "t": 93180,
      "d": 600,
      "v": 107
    },
    {
      "midi": 75,
      "hit": false,
      "t": 93180,
      "d": 600,
      "v": 112
    },
    {
      "midi": 56,
      "hit": false,
      "t": 93480,
      "d": 600,
      "v": 100
    },
    {
      "midi": 65,
      "hit": false,
      "t": 93480,
      "d": 600,
      "v": 100
    },
    {
      "midi": 54,
      "hit": false,
      "t": 93480,
      "d": 600,
      "v": 100
    },
    {
      "midi": 61,
      "hit": false,
      "t": 93780,
      "d": 300,
      "v": 107
    },
    {
      "midi": 44,
      "hit": false,
      "t": 93780,
      "d": 300,
      "v": 80
    },
    {
      "midi": 73,
      "hit": false,
      "t": 93780,
      "d": 2700,
      "v": 112
    },
    {
      "midi": 44,
      "hit": false,
      "t": 94080,
      "d": 300,
      "v": 80
    },
    {
      "midi": 30,
      "hit": false,
      "t": 94080,
      "d": 600,
      "v": 127
    },
    {
      "midi": 54,
      "hit": false,
      "t": 94080,
      "d": 900,
      "v": 100
    },
    {
      "midi": 58,
      "hit": false,
      "t": 94080,
      "d": 900,
      "v": 100
    },
    {
      "midi": 61,
      "hit": false,
      "t": 94080,
      "d": 900,
      "v": 95
    },
    {
      "midi": 44,
      "hit": false,
      "t": 94380,
      "d": 300,
      "v": 80
    },
    {
      "midi": 46,
      "hit": false,
      "t": 94680,
      "d": 300,
      "v": 90
    },
    {
      "midi": 44,
      "hit": false,
      "t": 94980,
      "d": 300,
      "v": 80
    },
    {
      "midi": 54,
      "hit": false,
      "t": 94980,
      "d": 900,
      "v": 100
    },
    {
      "midi": 58,
      "hit": false,
      "t": 94980,
      "d": 900,
      "v": 100
    },
    {
      "midi": 61,
      "hit": false,
      "t": 94980,
      "d": 900,
      "v": 107
    },
    {
      "midi": 66,
      "hit": false,
      "t": 94980,
      "d": 900,
      "v": 107
    },
    {
      "midi": 30,
      "hit": false,
      "t": 94980,
      "d": 900,
      "v": 127
    },
    {
      "midi": 44,
      "hit": false,
      "t": 95280,
      "d": 300,
      "v": 80
    },
    {
      "midi": 44,
      "hit": false,
      "t": 95580,
      "d": 300,
      "v": 80
    },
    {
      "midi": 61,
      "hit": false,
      "t": 95880,
      "d": 600,
      "v": 107
    },
    {
      "midi": 54,
      "hit": false,
      "t": 95880,
      "d": 600,
      "v": 100
    },
    {
      "midi": 58,
      "hit": false,
      "t": 95880,
      "d": 600,
      "v": 100
    },
    {
      "midi": 63,
      "hit": false,
      "t": 95880,
      "d": 600,
      "v": 107
    },
    {
      "midi": 68,
      "hit": false,
      "t": 95880,
      "d": 600,
      "v": 107
    },
    {
      "midi": 37,
      "hit": false,
      "t": 95880,
      "d": 600,
      "v": 127
    },
    {
      "midi": 44,
      "hit": false,
      "t": 96180,
      "d": 300,
      "v": 80
    },
    {
      "midi": 46,
      "hit": false,
      "t": 96480,
      "d": 300,
      "v": 80
    },
    {
      "midi": 34,
      "hit": false,
      "t": 96480,
      "d": 300,
      "v": 127
    },
    {
      "midi": 58,
      "hit": false,
      "t": 96480,
      "d": 600,
      "v": 100
    },
    {
      "midi": 70,
      "hit": false,
      "t": 96480,
      "d": 750,
      "v": 107
    },
    {
      "midi": 63,
      "hit": false,
      "t": 96480,
      "d": 750,
      "v": 95
    },
    {
      "midi": 65,
      "hit": false,
      "t": 96480,
      "d": 750,
      "v": 95
    },
    {
      "midi": 53,
      "hit": false,
      "t": 96480,
      "d": 900,
      "v": 100
    },
    {
      "midi": 44,
      "hit": false,
      "t": 96780,
      "d": 150,
      "v": 80
    },
    {
      "midi": 38,
      "hit": false,
      "t": 96780,
      "d": 300,
      "v": 127
    },
    {
      "midi": 44,
      "hit": false,
      "t": 96930,
      "d": 150,
      "v": 80
    },
    {
      "midi": 44,
      "hit": false,
      "t": 97080,
      "d": 150,
      "v": 80
    },
    {
      "midi": 41,
      "hit": false,
      "t": 97080,
      "d": 300,
      "v": 127
    },
    {
      "midi": 70,
      "hit": false,
      "t": 97380,
      "d": 300,
      "v": 95
    },
    {
      "midi": 78,
      "hit": false,
      "t": 97380,
      "d": 300,
      "v": 100
    },
    {
      "midi": 82,
      "hit": false,
      "t": 97380,
      "d": 300,
      "v": 112
    },
    {
      "midi": 46,
      "hit": false,
      "t": 97380,
      "d": 300,
      "v": 127
    },
    {
      "midi": 49,
      "hit": false,
      "t": 97380,
      "d": 600,
      "v": 80
    },
    {
      "midi": 53,
      "hit": false,
      "t": 97380,
      "d": 1350,
      "v": 100
    },
    {
      "midi": 58,
      "hit": false,
      "t": 97380,
      "d": 1350,
      "v": 100
    },
    {
      "midi": 65,
      "hit": false,
      "t": 97380,
      "d": 1500,
      "v": 107
    },
    {
      "midi": 62,
      "hit": false,
      "t": 97380,
      "d": 1500,
      "v": 95
    },
    {
      "midi": 70,
      "hit": false,
      "t": 97680,
      "d": 300,
      "v": 107
    },
    {
      "midi": 78,
      "hit": false,
      "t": 97680,
      "d": 300,
      "v": 100
    },
    {
      "midi": 82,
      "hit": false,
      "t": 97680,
      "d": 300,
      "v": 112
    },
    {
      "midi": 44,
      "hit": false,
      "t": 97980,
      "d": 150,
      "v": 80
    },
    {
      "midi": 68,
      "hit": false,
      "t": 97980,
      "d": 300,
      "v": 107
    },
    {
      "midi": 77,
      "hit": false,
      "t": 97980,
      "d": 300,
      "v": 100
    },
    {
      "midi": 80,
      "hit": false,
      "t": 97980,
      "d": 300,
      "v": 112
    },
    {
      "midi": 44,
      "hit": false,
      "t": 98130,
      "d": 150,
      "v": 80
    },
    {
      "midi": 70,
      "hit": false,
      "t": 98280,
      "d": 150,
      "v": 107
    },
    {
      "midi": 46,
      "hit": false,
      "t": 98280,
      "d": 300,
      "v": 80
    },
    {
      "midi": 66,
      "hit": false,
      "t": 98280,
      "d": 300,
      "v": 107
    },
    {
      "midi": 78,
      "hit": false,
      "t": 98280,
      "d": 300,
      "v": 112
    },
    {
      "midi": 54,
      "hit": false,
      "t": 98280,
      "d": 600,
      "v": 100
    },
    {
      "midi": 71,
      "hit": false,
      "t": 98355,
      "d": 150,
      "v": 107
    },
    {
      "midi": 73,
      "hit": false,
      "t": 98430,
      "d": 150,
      "v": 107
    },
    {
      "midi": 75,
      "hit": false,
      "t": 98505,
      "d": 75,
      "v": 107
    },
    {
      "midi": 76,
      "hit": false,
      "t": 98580,
      "d": 150,
      "v": 107
    },
    {
      "midi": 70,
      "hit": false,
      "t": 98580,
      "d": 300,
      "v": 107
    },
    {
      "midi": 77,
      "hit": false,
      "t": 98655,
      "d": 150,
      "v": 107
    },
    {
      "midi": 78,
      "hit": false,
      "t": 98730,
      "d": 150,
      "v": 107
    },
    {
      "midi": 80,
      "hit": false,
      "t": 98805,
      "d": 150,
      "v": 107
    },
    {
      "midi": 44,
      "hit": false,
      "t": 98880,
      "d": 300,
      "v": 80
    },
    {
      "midi": 39,
      "hit": false,
      "t": 98880,
      "d": 750,
      "v": 127
    },
    {
      "midi": 54,
      "hit": false,
      "t": 98880,
      "d": 900,
      "v": 100
    },
    {
      "midi": 58,
      "hit": false,
      "t": 98880,
      "d": 900,
      "v": 100
    },
    {
      "midi": 63,
      "hit": false,
      "t": 98880,
      "d": 900,
      "v": 100
    },
    {
      "midi": 82,
      "hit": false,
      "t": 98880,
      "d": 900,
      "v": 80
    },
    {
      "midi": 78,
      "hit": false,
      "t": 98880,
      "d": 1500,
      "v": 100
    },
    {
      "midi": 44,
      "hit": false,
      "t": 99180,
      "d": 300,
      "v": 80
    },
    {
      "midi": 46,
      "hit": false,
      "t": 99480,
      "d": 300,
      "v": 90
    },
    {
      "midi": 70,
      "hit": false,
      "t": 99780,
      "d": 150,
      "v": 95
    },
    {
      "midi": 44,
      "hit": false,
      "t": 99780,
      "d": 300,
      "v": 80
    },
    {
      "midi": 87,
      "hit": false,
      "t": 99780,
      "d": 900,
      "v": 107
    },
    {
      "midi": 39,
      "hit": false,
      "t": 99780,
      "d": 1200,
      "v": 127
    },
    {
      "midi": 66,
      "hit": false,
      "t": 99780,
      "d": 1200,
      "v": 95
    },
    {
      "midi": 58,
      "hit": false,
      "t": 99780,
      "d": 1500,
      "v": 100
    },
    {
      "midi": 63,
      "hit": false,
      "t": 99780,
      "d": 1500,
      "v": 100
    },
    {
      "midi": 44,
      "hit": false,
      "t": 100080,
      "d": 300,
      "v": 80
    },
    {
      "midi": 70,
      "hit": false,
      "t": 100380,
      "d": 300,
      "v": 107
    },
    {
      "midi": 78,
      "hit": false,
      "t": 100380,
      "d": 300,
      "v": 100
    },
    {
      "midi": 82,
      "hit": false,
      "t": 100380,
      "d": 300,
      "v": 112
    },
    {
      "midi": 44,
      "hit": false,
      "t": 100380,
      "d": 300,
      "v": 80
    },
    {
      "midi": 70,
      "hit": false,
      "t": 100680,
      "d": 300,
      "v": 107
    },
    {
      "midi": 78,
      "hit": false,
      "t": 100680,
      "d": 300,
      "v": 100
    },
    {
      "midi": 82,
      "hit": false,
      "t": 100680,
      "d": 300,
      "v": 112
    },
    {
      "midi": 54,
      "hit": false,
      "t": 100680,
      "d": 600,
      "v": 100
    },
    {
      "midi": 82,
      "hit": false,
      "t": 100980,
      "d": 300,
      "v": 112
    },
    {
      "midi": 70,
      "hit": false,
      "t": 100980,
      "d": 300,
      "v": 107
    },
    {
      "midi": 78,
      "hit": false,
      "t": 100980,
      "d": 300,
      "v": 100
    },
    {
      "midi": 44,
      "hit": false,
      "t": 100980,
      "d": 300,
      "v": 80
    },
    {
      "midi": 39,
      "hit": false,
      "t": 100980,
      "d": 300,
      "v": 127
    },
    {
      "midi": 44,
      "hit": false,
      "t": 101280,
      "d": 300,
      "v": 127
    },
    {
      "midi": 70,
      "hit": false,
      "t": 101280,
      "d": 600,
      "v": 107
    },
    {
      "midi": 78,
      "hit": false,
      "t": 101280,
      "d": 600,
      "v": 100
    },
    {
      "midi": 82,
      "hit": false,
      "t": 101280,
      "d": 600,
      "v": 112
    },
    {
      "midi": 63,
      "hit": false,
      "t": 101280,
      "d": 900,
      "v": 100
    },
    {
      "midi": 59,
      "hit": false,
      "t": 101280,
      "d": 900,
      "v": 100
    },
    {
      "midi": 66,
      "hit": false,
      "t": 101280,
      "d": 900,
      "v": 100
    },
    {
      "midi": 44,
      "hit": false,
      "t": 101580,
      "d": 300,
      "v": 80
    },
    {
      "midi": 71,
      "hit": false,
      "t": 101880,
      "d": 300,
      "v": 107
    },
    {
      "midi": 80,
      "hit": false,
      "t": 101880,
      "d": 300,
      "v": 100
    },
    {
      "midi": 83,
      "hit": false,
      "t": 101880,
      "d": 300,
      "v": 112
    },
    {
      "midi": 46,
      "hit": false,
      "t": 101880,
      "d": 300,
      "v": 90
    },
    {
      "midi": 44,
      "hit": false,
      "t": 102180,
      "d": 300,
      "v": 127
    },
    {
      "midi": 71,
      "hit": false,
      "t": 102180,
      "d": 600,
      "v": 95
    },
    {
      "midi": 80,
      "hit": false,
      "t": 102180,
      "d": 600,
      "v": 107
    },
    {
      "midi": 83,
      "hit": false,
      "t": 102180,
      "d": 600,
      "v": 112
    },
    {
      "midi": 59,
      "hit": false,
      "t": 102180,
      "d": 900,
      "v": 100
    },
    {
      "midi": 66,
      "hit": false,
      "t": 102180,
      "d": 900,
      "v": 100
    },
    {
      "midi": 68,
      "hit": false,
      "t": 102180,
      "d": 900,
      "v": 95
    },
    {
      "midi": 44,
      "hit": false,
      "t": 102480,
      "d": 300,
      "v": 80
    },
    {
      "midi": 44,
      "hit": false,
      "t": 102780,
      "d": 300,
      "v": 80
    },
    {
      "midi": 39,
      "hit": false,
      "t": 102780,
      "d": 300,
      "v": 127
    },
    {
      "midi": 70,
      "hit": false,
      "t": 102780,
      "d": 600,
      "v": 107
    },
    {
      "midi": 78,
      "hit": false,
      "t": 102780,
      "d": 600,
      "v": 100
    },
    {
      "midi": 82,
      "hit": false,
      "t": 102780,
      "d": 600,
      "v": 112
    },
    {
      "midi": 44,
      "hit": false,
      "t": 103080,
      "d": 300,
      "v": 127
    },
    {
      "midi": 59,
      "hit": false,
      "t": 103080,
      "d": 600,
      "v": 100
    },
    {
      "midi": 63,
      "hit": false,
      "t": 103080,
      "d": 600,
      "v": 100
    },
    {
      "midi": 66,
      "hit": false,
      "t": 103080,
      "d": 600,
      "v": 100
    },
    {
      "midi": 54,
      "hit": false,
      "t": 103080,
      "d": 600,
      "v": 100
    },
    {
      "midi": 44,
      "hit": false,
      "t": 103380,
      "d": 300,
      "v": 80
    },
    {
      "midi": 39,
      "hit": false,
      "t": 103380,
      "d": 300,
      "v": 127
    },
    {
      "midi": 68,
      "hit": false,
      "t": 103380,
      "d": 1050,
      "v": 107
    },
    {
      "midi": 80,
      "hit": false,
      "t": 103380,
      "d": 1050,
      "v": 112
    },
    {
      "midi": 77,
      "hit": false,
      "t": 103380,
      "d": 1200,
      "v": 100
    },
    {
      "midi": 44,
      "hit": false,
      "t": 103680,
      "d": 300,
      "v": 80
    },
    {
      "midi": 37,
      "hit": false,
      "t": 103680,
      "d": 750,
      "v": 127
    },
    {
      "midi": 59,
      "hit": false,
      "t": 103680,
      "d": 900,
      "v": 100
    },
    {
      "midi": 61,
      "hit": false,
      "t": 103680,
      "d": 900,
      "v": 100
    },
    {
      "midi": 65,
      "hit": false,
      "t": 103680,
      "d": 900,
      "v": 100
    },
    {
      "midi": 44,
      "hit": false,
      "t": 103980,
      "d": 300,
      "v": 80
    },
    {
      "midi": 46,
      "hit": false,
      "t": 104280,
      "d": 300,
      "v": 90
    },
    {
      "midi": 61,
      "hit": false,
      "t": 104580,
      "d": 300,
      "v": 100
    },
    {
      "midi": 73,
      "hit": false,
      "t": 104580,
      "d": 300,
      "v": 112
    },
    {
      "midi": 44,
      "hit": false,
      "t": 104580,
      "d": 300,
      "v": 80
    },
    {
      "midi": 85,
      "hit": false,
      "t": 104580,
      "d": 900,
      "v": 107
    },
    {
      "midi": 37,
      "hit": false,
      "t": 104580,
      "d": 1200,
      "v": 127
    },
    {
      "midi": 65,
      "hit": false,
      "t": 104580,
      "d": 1200,
      "v": 95
    },
    {
      "midi": 59,
      "hit": false,
      "t": 104580,
      "d": 1500,
      "v": 100
    },
    {
      "midi": 44,
      "hit": false,
      "t": 104880,
      "d": 300,
      "v": 80
    },
    {
      "midi": 71,
      "hit": false,
      "t": 104880,
      "d": 450,
      "v": 107
    },
    {
      "midi": 77,
      "hit": false,
      "t": 104880,
      "d": 450,
      "v": 100
    },
    {
      "midi": 83,
      "hit": false,
      "t": 104880,
      "d": 450,
      "v": 112
    },
    {
      "midi": 44,
      "hit": false,
      "t": 105180,
      "d": 300,
      "v": 80
    },
    {
      "midi": 71,
      "hit": false,
      "t": 105330,
      "d": 450,
      "v": 107
    },
    {
      "midi": 77,
      "hit": false,
      "t": 105330,
      "d": 450,
      "v": 100
    },
    {
      "midi": 83,
      "hit": false,
      "t": 105330,
      "d": 450,
      "v": 112
    },
    {
      "midi": 80,
      "hit": false,
      "t": 105480,
      "d": 600,
      "v": 107
    },
    {
      "midi": 54,
      "hit": false,
      "t": 105480,
      "d": 600,
      "v": 100
    },
    {
      "midi": 44,
      "hit": false,
      "t": 105780,
      "d": 300,
      "v": 80
    },
    {
      "midi": 32,
      "hit": false,
      "t": 105780,
      "d": 300,
      "v": 127
    },
    {
      "midi": 70,
      "hit": false,
      "t": 105780,
      "d": 2700,
      "v": 107
    },
    {
      "midi": 73,
      "hit": false,
      "t": 105780,
      "d": 2700,
      "v": 100
    },
    {
      "midi": 44,
      "hit": false,
      "t": 106080,
      "d": 300,
      "v": 80
    },
    {
      "midi": 30,
      "hit": false,
      "t": 106080,
      "d": 750,
      "v": 127
    },
    {
      "midi": 56,
      "hit": false,
      "t": 106080,
      "d": 900,
      "v": 100
    },
    {
      "midi": 58,
      "hit": false,
      "t": 106080,
      "d": 900,
      "v": 100
    },
    {
      "midi": 61,
      "hit": false,
      "t": 106080,
      "d": 900,
      "v": 100
    },
    {
      "midi": 82,
      "hit": false,
      "t": 106080,
      "d": 900,
      "v": 107
    },
    {
      "midi": 65,
      "hit": false,
      "t": 106080,
      "d": 900,
      "v": 105
    },
    {
      "midi": 68,
      "hit": false,
      "t": 106080,
      "d": 900,
      "v": 105
    },
    {
      "midi": 44,
      "hit": false,
      "t": 106380,
      "d": 300,
      "v": 80
    },
    {
      "midi": 46,
      "hit": false,
      "t": 106680,
      "d": 300,
      "v": 90
    },
    {
      "midi": 44,
      "hit": false,
      "t": 106980,
      "d": 300,
      "v": 80
    },
    {
      "midi": 89,
      "hit": false,
      "t": 106980,
      "d": 600,
      "v": 107
    },
    {
      "midi": 30,
      "hit": false,
      "t": 106980,
      "d": 600,
      "v": 127
    },
    {
      "midi": 61,
      "hit": false,
      "t": 106980,
      "d": 900,
      "v": 100
    },
    {
      "midi": 66,
      "hit": false,
      "t": 106980,
      "d": 900,
      "v": 105
    },
    {
      "midi": 58,
      "hit": false,
      "t": 106980,
      "d": 900,
      "v": 100
    },
    {
      "midi": 63,
      "hit": false,
      "t": 106980,
      "d": 900,
      "v": 105
    },
    {
      "midi": 44,
      "hit": false,
      "t": 107280,
      "d": 300,
      "v": 80
    },
    {
      "midi": 44,
      "hit": false,
      "t": 107580,
      "d": 300,
      "v": 80
    },
    {
      "midi": 37,
      "hit": false,
      "t": 107580,
      "d": 300,
      "v": 127
    },
    {
      "midi": 85,
      "hit": false,
      "t": 107580,
      "d": 600,
      "v": 107
    },
    {
      "midi": 42,
      "hit": false,
      "t": 107880,
      "d": 300,
      "v": 127
    },
    {
      "midi": 66,
      "hit": false,
      "t": 107880,
      "d": 600,
      "v": 100
    },
    {
      "midi": 61,
      "hit": false,
      "t": 107880,
      "d": 600,
      "v": 100
    },
    {
      "midi": 68,
      "hit": false,
      "t": 107880,
      "d": 600,
      "v": 105
    },
    {
      "midi": 54,
      "hit": false,
      "t": 107880,
      "d": 600,
      "v": 100
    },
    {
      "midi": 65,
      "hit": false,
      "t": 107880,
      "d": 600,
      "v": 105
    },
    {
      "midi": 80,
      "hit": false,
      "t": 108180,
      "d": 300,
      "v": 107
    },
    {
      "midi": 44,
      "hit": false,
      "t": 108180,
      "d": 300,
      "v": 80
    },
    {
      "midi": 37,
      "hit": false,
      "t": 108180,
      "d": 300,
      "v": 127
    },
    {
      "midi": 44,
      "hit": false,
      "t": 108480,
      "d": 300,
      "v": 80
    },
    {
      "midi": 35,
      "hit": false,
      "t": 108480,
      "d": 750,
      "v": 127
    },
    {
      "midi": 59,
      "hit": false,
      "t": 108480,
      "d": 900,
      "v": 105
    },
    {
      "midi": 63,
      "hit": false,
      "t": 108480,
      "d": 900,
      "v": 100
    },
    {
      "midi": 66,
      "hit": false,
      "t": 108480,
      "d": 900,
      "v": 105
    },
    {
      "midi": 44,
      "hit": false,
      "t": 108780,
      "d": 300,
      "v": 80
    },
    {
      "midi": 78,
      "hit": false,
      "t": 109080,
      "d": 300,
      "v": 112
    },
    {
      "midi": 46,
      "hit": false,
      "t": 109080,
      "d": 300,
      "v": 90
    },
    {
      "midi": 77,
      "hit": false,
      "t": 109380,
      "d": 300,
      "v": 112
    },
    {
      "midi": 44,
      "hit": false,
      "t": 109380,
      "d": 300,
      "v": 80
    },
    {
      "midi": 35,
      "hit": false,
      "t": 109380,
      "d": 900,
      "v": 127
    },
    {
      "midi": 59,
      "hit": false,
      "t": 109380,
      "d": 1500,
      "v": 100
    },
    {
      "midi": 66,
      "hit": false,
      "t": 109380,
      "d": 1500,
      "v": 100
    },
    {
      "midi": 63,
      "hit": false,
      "t": 109380,
      "d": 1500,
      "v": 100
    },
    {
      "midi": 44,
      "hit": false,
      "t": 109680,
      "d": 300,
      "v": 80
    },
    {
      "midi": 78,
      "hit": false,
      "t": 109680,
      "d": 600,
      "v": 112
    },
    {
      "midi": 44,
      "hit": false,
      "t": 109980,
      "d": 300,
      "v": 80
    },
    {
      "midi": 54,
      "hit": false,
      "t": 110280,
      "d": 600,
      "v": 100
    },
    {
      "midi": 35,
      "hit": false,
      "t": 110280,
      "d": 600,
      "v": 127
    },
    {
      "midi": 44,
      "hit": false,
      "t": 110580,
      "d": 300,
      "v": 80
    },
    {
      "midi": 82,
      "hit": false,
      "t": 110580,
      "d": 600,
      "v": 112
    },
    {
      "midi": 44,
      "hit": false,
      "t": 110880,
      "d": 300,
      "v": 80
    },
    {
      "midi": 37,
      "hit": false,
      "t": 110880,
      "d": 750,
      "v": 127
    },
    {
      "midi": 61,
      "hit": false,
      "t": 110880,
      "d": 2400,
      "v": 95
    },
    {
      "midi": 53,
      "hit": false,
      "t": 110880,
      "d": 2400,
      "v": 100
    },
    {
      "midi": 56,
      "hit": false,
      "t": 110880,
      "d": 2400,
      "v": 100
    },
    {
      "midi": 68,
      "hit": false,
      "t": 110880,
      "d": 2400,
      "v": 95
    },
    {
      "midi": 80,
      "hit": false,
      "t": 111180,
      "d": 300,
      "v": 112
    },
    {
      "midi": 44,
      "hit": false,
      "t": 111180,
      "d": 300,
      "v": 80
    },
    {
      "midi": 46,
      "hit": false,
      "t": 111480,
      "d": 300,
      "v": 90
    },
    {
      "midi": 80,
      "hit": false,
      "t": 111480,
      "d": 900,
      "v": 112
    },
    {
      "midi": 44,
      "hit": false,
      "t": 111780,
      "d": 300,
      "v": 80
    },
    {
      "midi": 37,
      "hit": false,
      "t": 111780,
      "d": 1500,
      "v": 127
    },
    {
      "midi": 54,
      "hit": false,
      "t": 112080,
      "d": 1200,
      "v": 80
    },
    {
      "midi": 46,
      "hit": false,
      "t": 112080,
      "d": 1200,
      "v": 100
    },
    {
      "midi": 77,
      "hit": false,
      "t": 112380,
      "d": 300,
      "v": 112
    },
    {
      "midi": 78,
      "hit": false,
      "t": 112680,
      "d": 300,
      "v": 112
    },
    {
      "midi": 77,
      "hit": false,
      "t": 112980,
      "d": 1200,
      "v": 112
    },
    {
      "midi": 54,
      "hit": false,
      "t": 113280,
      "d": 750,
      "v": 100
    },
    {
      "midi": 58,
      "hit": false,
      "t": 113280,
      "d": 750,
      "v": 100
    },
    {
      "midi": 63,
      "hit": false,
      "t": 113280,
      "d": 750,
      "v": 95
    },
    {
      "midi": 39,
      "hit": false,
      "t": 113280,
      "d": 750,
      "v": 127
    },
    {
      "midi": 46,
      "hit": false,
      "t": 113280,
      "d": 900,
      "v": 90
    },
    {
      "midi": 82,
      "hit": false,
      "t": 113280,
      "d": 4200,
      "v": 107
    },
    {
      "midi": 70,
      "hit": false,
      "t": 113280,
      "d": 4200,
      "v": 95
    },
    {
      "midi": 54,
      "hit": false,
      "t": 114180,
      "d": 600,
      "v": 100
    },
    {
      "midi": 39,
      "hit": false,
      "t": 114180,
      "d": 900,
      "v": 127
    },
    {
      "midi": 63,
      "hit": false,
      "t": 114180,
      "d": 3300,
      "v": 100
    },
    {
      "midi": 58,
      "hit": false,
      "t": 114180,
      "d": 3300,
      "v": 100
    },
    {
      "midi": 75,
      "hit": false,
      "t": 114180,
      "d": 3300,
      "v": 112
    },
    {
      "midi": 54,
      "hit": false,
      "t": 114780,
      "d": 900,
      "v": 100
    },
    {
      "midi": 46,
      "hit": false,
      "t": 115080,
      "d": 600,
      "v": 127
    },
    {
      "midi": 46,
      "hit": false,
      "t": 115680,
      "d": 600,
      "v": 90
    },
    {
      "midi": 51,
      "hit": false,
      "t": 115680,
      "d": 1800,
      "v": 127
    }
  ]
}