{
  "jsonPath": "Animes/Slayers MIDI Collection/between-a-and-b.json",
  "path": "Animes\\Slayers MIDI Collection\\Between A and B.mid",
  "name": "Between A and B",
  "difficulty": "Advanced",
  "bpm": 222.000222000222,
  "notes": [
    {
      "midi": 85,
      "hit": false,
      "t": 270.27,
      "d": 270.27,
      "v": 96
    },
    {
      "midi": 82,
      "hit": false,
      "t": 540.54,
      "d": 270.27,
      "v": 96
    },
    {
      "midi": 84,
      "hit": false,
      "t": 810.81,
      "d": 270.27,
      "v": 96
    },
    {
      "midi": 41,
      "hit": false,
      "t": 1081.08,
      "d": 67.56750000000011,
      "v": 78
    },
    {
      "midi": 53,
      "hit": false,
      "t": 1081.08,
      "d": 135.13500000000022,
      "v": 78
    },
    {
      "midi": 57,
      "hit": false,
      "t": 1081.08,
      "d": 135.13500000000022,
      "v": 78
    },
    {
      "midi": 36,
      "hit": false,
      "t": 1081.08,
      "d": 268.0177500000002,
      "v": 98
    },
    {
      "midi": 80,
      "hit": false,
      "t": 1081.08,
      "d": 270.2700000000002,
      "v": 96
    },
    {
      "midi": 45,
      "hit": false,
      "t": 1216.2150000000001,
      "d": 135.135,
      "v": 78
    },
    {
      "midi": 65,
      "hit": false,
      "t": 1216.2150000000001,
      "d": 405.405,
      "v": 90
    },
    {
      "midi": 69,
      "hit": false,
      "t": 1216.2150000000001,
      "d": 405.405,
      "v": 90
    },
    {
      "midi": 62,
      "hit": false,
      "t": 1216.2150000000001,
      "d": 405.405,
      "v": 106
    },
    {
      "midi": 74,
      "hit": false,
      "t": 1216.2150000000001,
      "d": 405.405,
      "v": 106
    },
    {
      "midi": 53,
      "hit": false,
      "t": 1351.3500000000001,
      "d": 135.135,
      "v": 78
    },
    {
      "midi": 36,
      "hit": false,
      "t": 1351.3500000000001,
      "d": 268.01775,
      "v": 98
    },
    {
      "midi": 64,
      "hit": false,
      "t": 1621.6200000000001,
      "d": 135.135,
      "v": 90
    },
    {
      "midi": 67,
      "hit": false,
      "t": 1621.6200000000001,
      "d": 135.135,
      "v": 90
    },
    {
      "midi": 60,
      "hit": false,
      "t": 1621.6200000000001,
      "d": 135.135,
      "v": 106
    },
    {
      "midi": 72,
      "hit": false,
      "t": 1621.6200000000001,
      "d": 135.135,
      "v": 106
    },
    {
      "midi": 50,
      "hit": false,
      "t": 1621.6200000000001,
      "d": 135.135,
      "v": 78
    },
    {
      "midi": 52,
      "hit": false,
      "t": 1621.6200000000001,
      "d": 135.135,
      "v": 78
    },
    {
      "midi": 53,
      "hit": false,
      "t": 1621.6200000000001,
      "d": 135.135,
      "v": 78
    },
    {
      "midi": 36,
      "hit": false,
      "t": 1621.6200000000001,
      "d": 200.4502500000001,
      "v": 98
    },
    {
      "midi": 64,
      "hit": false,
      "t": 1891.8900000000003,
      "d": 135.135,
      "v": 90
    },
    {
      "midi": 67,
      "hit": false,
      "t": 1891.8900000000003,
      "d": 135.135,
      "v": 90
    },
    {
      "midi": 60,
      "hit": false,
      "t": 1891.8900000000003,
      "d": 135.135,
      "v": 106
    },
    {
      "midi": 72,
      "hit": false,
      "t": 1891.8900000000003,
      "d": 135.135,
      "v": 106
    },
    {
      "midi": 53,
      "hit": false,
      "t": 1891.8900000000003,
      "d": 135.135,
      "v": 78
    },
    {
      "midi": 36,
      "hit": false,
      "t": 1891.8900000000003,
      "d": 200.45024999999987,
      "v": 98
    },
    {
      "midi": 65,
      "hit": false,
      "t": 2162.1600000000003,
      "d": 135.13499999999976,
      "v": 90
    },
    {
      "midi": 62,
      "hit": false,
      "t": 2162.1600000000003,
      "d": 135.13499999999976,
      "v": 90
    },
    {
      "midi": 59,
      "hit": false,
      "t": 2162.1600000000003,
      "d": 135.13499999999976,
      "v": 106
    },
    {
      "midi": 71,
      "hit": false,
      "t": 2162.1600000000003,
      "d": 135.13499999999976,
      "v": 106
    },
    {
      "midi": 53,
      "hit": false,
      "t": 2162.1600000000003,
      "d": 135.13499999999976,
      "v": 78
    },
    {
      "midi": 54,
      "hit": false,
      "t": 2162.1600000000003,
      "d": 135.13499999999976,
      "v": 78
    },
    {
      "midi": 36,
      "hit": false,
      "t": 2162.1600000000003,
      "d": 200.45024999999987,
      "v": 98
    },
    {
      "midi": 41,
      "hit": false,
      "t": 2162.1600000000003,
      "d": 540.5400000000004,
      "v": 78
    },
    {
      "midi": 65,
      "hit": false,
      "t": 2432.4300000000003,
      "d": 135.13500000000022,
      "v": 90
    },
    {
      "midi": 62,
      "hit": false,
      "t": 2432.4300000000003,
      "d": 135.13500000000022,
      "v": 90
    },
    {
      "midi": 59,
      "hit": false,
      "t": 2432.4300000000003,
      "d": 135.13500000000022,
      "v": 106
    },
    {
      "midi": 71,
      "hit": false,
      "t": 2432.4300000000003,
      "d": 135.13500000000022,
      "v": 106
    },
    {
      "midi": 53,
      "hit": false,
      "t": 2432.4300000000003,
      "d": 135.13500000000022,
      "v": 78
    },
    {
      "midi": 54,
      "hit": false,
      "t": 2432.4300000000003,
      "d": 135.13500000000022,
      "v": 78
    },
    {
      "midi": 36,
      "hit": false,
      "t": 2432.4300000000003,
      "d": 200.45025000000032,
      "v": 98
    },
    {
      "midi": 76,
      "hit": false,
      "t": 2432.4300000000003,
      "d": 270.27000000000044,
      "v": 80
    },
    {
      "midi": 77,
      "hit": false,
      "t": 2702.7000000000007,
      "d": 135.13500000000022,
      "v": 80
    },
    {
      "midi": 54,
      "hit": false,
      "t": 2702.7000000000007,
      "d": 135.13500000000022,
      "v": 78
    },
    {
      "midi": 64,
      "hit": false,
      "t": 2702.7000000000007,
      "d": 166.66650000000027,
      "v": 90
    },
    {
      "midi": 67,
      "hit": false,
      "t": 2702.7000000000007,
      "d": 168.91875000000027,
      "v": 90
    },
    {
      "midi": 60,
      "hit": false,
      "t": 2702.7000000000007,
      "d": 168.91875000000027,
      "v": 106
    },
    {
      "midi": 72,
      "hit": false,
      "t": 2702.7000000000007,
      "d": 168.91875000000027,
      "v": 106
    },
    {
      "midi": 36,
      "hit": false,
      "t": 2702.7000000000007,
      "d": 268.01775000000043,
      "v": 98
    },
    {
      "midi": 50,
      "hit": false,
      "t": 2702.7000000000007,
      "d": 270.27000000000044,
      "v": 78
    },
    {
      "midi": 52,
      "hit": false,
      "t": 2702.7000000000007,
      "d": 270.27000000000044,
      "v": 78
    },
    {
      "midi": 53,
      "hit": false,
      "t": 2702.7000000000007,
      "d": 270.27000000000044,
      "v": 78
    },
    {
      "midi": 81,
      "hit": false,
      "t": 2837.835000000001,
      "d": 270.27000000000044,
      "v": 80
    },
    {
      "midi": 64,
      "hit": false,
      "t": 2871.618750000001,
      "d": 101.35125000000016,
      "v": 90
    },
    {
      "midi": 67,
      "hit": false,
      "t": 2871.618750000001,
      "d": 101.35125000000016,
      "v": 90
    },
    {
      "midi": 60,
      "hit": false,
      "t": 2871.618750000001,
      "d": 101.35125000000016,
      "v": 106
    },
    {
      "midi": 72,
      "hit": false,
      "t": 2871.618750000001,
      "d": 101.35125000000016,
      "v": 106
    },
    {
      "midi": 52,
      "hit": false,
      "t": 2972.970000000001,
      "d": 135.13500000000022,
      "v": 78
    },
    {
      "midi": 53,
      "hit": false,
      "t": 2972.970000000001,
      "d": 135.13500000000022,
      "v": 78
    },
    {
      "midi": 54,
      "hit": false,
      "t": 2972.970000000001,
      "d": 135.13500000000022,
      "v": 78
    },
    {
      "midi": 36,
      "hit": false,
      "t": 2972.970000000001,
      "d": 135.13500000000022,
      "v": 98
    },
    {
      "midi": 45,
      "hit": false,
      "t": 2972.970000000001,
      "d": 168.91875000000027,
      "v": 78
    },
    {
      "midi": 79,
      "hit": false,
      "t": 3108.1050000000014,
      "d": 135.13500000000022,
      "v": 80
    },
    {
      "midi": 65,
      "hit": false,
      "t": 3141.8887500000014,
      "d": 101.35125000000016,
      "v": 90
    },
    {
      "midi": 69,
      "hit": false,
      "t": 3141.8887500000014,
      "d": 101.35125000000016,
      "v": 90
    },
    {
      "midi": 62,
      "hit": false,
      "t": 3141.8887500000014,
      "d": 101.35125000000016,
      "v": 106
    },
    {
      "midi": 74,
      "hit": false,
      "t": 3141.8887500000014,
      "d": 101.35125000000016,
      "v": 106
    },
    {
      "midi": 41,
      "hit": false,
      "t": 3141.8887500000014,
      "d": 101.35125000000016,
      "v": 78
    },
    {
      "midi": 71,
      "hit": false,
      "t": 3243.2400000000016,
      "d": 94.59450000000015,
      "v": 96
    },
    {
      "midi": 74,
      "hit": false,
      "t": 3243.2400000000016,
      "d": 94.59450000000015,
      "v": 96
    },
    {
      "midi": 54,
      "hit": false,
      "t": 3243.2400000000016,
      "d": 135.13500000000022,
      "v": 78
    },
    {
      "midi": 72,
      "hit": false,
      "t": 3333.3300000000017,
      "d": 94.59450000000015,
      "v": 96
    },
    {
      "midi": 76,
      "hit": false,
      "t": 3333.3300000000017,
      "d": 94.59450000000015,
      "v": 96
    },
    {
      "midi": 74,
      "hit": false,
      "t": 3423.420000000002,
      "d": 94.59450000000015,
      "v": 96
    },
    {
      "midi": 77,
      "hit": false,
      "t": 3423.420000000002,
      "d": 94.59450000000015,
      "v": 96
    },
    {
      "midi": 72,
      "hit": false,
      "t": 3513.510000000002,
      "d": 94.59450000000015,
      "v": 96
    },
    {
      "midi": 76,
      "hit": false,
      "t": 3513.510000000002,
      "d": 94.59450000000015,
      "v": 96
    },
    {
      "midi": 54,
      "hit": false,
      "t": 3513.510000000002,
      "d": 135.13500000000022,
      "v": 78
    },
    {
      "midi": 74,
      "hit": false,
      "t": 3603.600000000002,
      "d": 94.59450000000015,
      "v": 96
    },
    {
      "midi": 77,
      "hit": false,
      "t": 3603.600000000002,
      "d": 94.59450000000015,
      "v": 96
    },
    {
      "midi": 76,
      "hit": false,
      "t": 3693.6900000000023,
      "d": 94.59450000000015,
      "v": 96
    },
    {
      "midi": 79,
      "hit": false,
      "t": 3693.6900000000023,
      "d": 94.59450000000015,
      "v": 96
    },
    {
      "midi": 74,
      "hit": false,
      "t": 3783.7800000000025,
      "d": 94.59450000000015,
      "v": 96
    },
    {
      "midi": 77,
      "hit": false,
      "t": 3783.7800000000025,
      "d": 94.59450000000015,
      "v": 96
    },
    {
      "midi": 50,
      "hit": false,
      "t": 3783.7800000000025,
      "d": 135.13500000000022,
      "v": 78
    },
    {
      "midi": 52,
      "hit": false,
      "t": 3783.7800000000025,
      "d": 135.13500000000022,
      "v": 78
    },
    {
      "midi": 54,
      "hit": false,
      "t": 3783.7800000000025,
      "d": 135.13500000000022,
      "v": 78
    },
    {
      "midi": 76,
      "hit": false,
      "t": 3873.8700000000026,
      "d": 94.59450000000015,
      "v": 96
    },
    {
      "midi": 79,
      "hit": false,
      "t": 3873.8700000000026,
      "d": 94.59450000000015,
      "v": 96
    },
    {
      "midi": 77,
      "hit": false,
      "t": 3963.9600000000028,
      "d": 94.59450000000015,
      "v": 96
    },
    {
      "midi": 81,
      "hit": false,
      "t": 3963.9600000000028,
      "d": 94.59450000000015,
      "v": 96
    },
    {
      "midi": 76,
      "hit": false,
      "t": 4054.050000000003,
      "d": 94.59450000000015,
      "v": 96
    },
    {
      "midi": 79,
      "hit": false,
      "t": 4054.050000000003,
      "d": 94.59450000000015,
      "v": 96
    },
    {
      "midi": 54,
      "hit": false,
      "t": 4054.050000000003,
      "d": 135.13500000000022,
      "v": 78
    },
    {
      "midi": 77,
      "hit": false,
      "t": 4144.140000000003,
      "d": 94.59450000000015,
      "v": 96
    },
    {
      "midi": 81,
      "hit": false,
      "t": 4144.140000000003,
      "d": 94.59450000000015,
      "v": 96
    },
    {
      "midi": 79,
      "hit": false,
      "t": 4234.230000000003,
      "d": 94.59450000000015,
      "v": 96
    },
    {
      "midi": 83,
      "hit": false,
      "t": 4234.230000000003,
      "d": 94.59450000000015,
      "v": 96
    },
    {
      "midi": 53,
      "hit": false,
      "t": 4324.320000000003,
      "d": 135.13500000000022,
      "v": 78
    },
    {
      "midi": 54,
      "hit": false,
      "t": 4324.320000000003,
      "d": 135.13500000000022,
      "v": 78
    },
    {
      "midi": 55,
      "hit": false,
      "t": 4324.320000000003,
      "d": 168.91874999999982,
      "v": 117
    },
    {
      "midi": 67,
      "hit": false,
      "t": 4324.320000000003,
      "d": 168.91874999999982,
      "v": 117
    },
    {
      "midi": 43,
      "hit": false,
      "t": 4324.320000000003,
      "d": 171.17099999999937,
      "v": 98
    },
    {
      "midi": 45,
      "hit": false,
      "t": 4324.320000000003,
      "d": 270.2699999999995,
      "v": 78
    },
    {
      "midi": 53,
      "hit": false,
      "t": 4493.238750000003,
      "d": 101.35124999999971,
      "v": 117
    },
    {
      "midi": 65,
      "hit": false,
      "t": 4493.238750000003,
      "d": 101.35124999999971,
      "v": 117
    },
    {
      "midi": 41,
      "hit": false,
      "t": 4493.238750000003,
      "d": 101.35124999999971,
      "v": 98
    },
    {
      "midi": 54,
      "hit": false,
      "t": 4594.590000000003,
      "d": 135.13500000000022,
      "v": 78
    },
    {
      "midi": 64,
      "hit": false,
      "t": 4594.590000000003,
      "d": 168.91874999999982,
      "v": 117
    },
    {
      "midi": 40,
      "hit": false,
      "t": 4594.590000000003,
      "d": 171.17099999999937,
      "v": 98
    },
    {
      "midi": 52,
      "hit": false,
      "t": 4729.725000000003,
      "d": 33.7837499999996,
      "v": 78
    },
    {
      "midi": 53,
      "hit": false,
      "t": 4729.725000000003,
      "d": 135.1349999999993,
      "v": 78
    },
    {
      "midi": 54,
      "hit": false,
      "t": 4729.725000000003,
      "d": 135.1349999999993,
      "v": 78
    },
    {
      "midi": 41,
      "hit": false,
      "t": 4729.725000000003,
      "d": 135.1349999999993,
      "v": 78
    },
    {
      "midi": 48,
      "hit": false,
      "t": 4763.508750000003,
      "d": 101.35124999999971,
      "v": 117
    },
    {
      "midi": 60,
      "hit": false,
      "t": 4763.508750000003,
      "d": 101.35124999999971,
      "v": 117
    },
    {
      "midi": 36,
      "hit": false,
      "t": 4763.508750000003,
      "d": 101.35124999999971,
      "v": 98
    }
  ]
}