{
  "jsonPath": "Animes/Slayers MIDI Collection/breeze-tv.json",
  "path": "Animes\\Slayers MIDI Collection\\Breeze TV.mid",
  "name": "Breeze TV",
  "difficulty": "Advanced",
  "bpm": 143.99988480009216,
  "notes": [
    {
      "midi": 60,
      "hit": false,
      "t": 0,
      "d": 1614.5846250000002,
      "v": 100
    },
    {
      "midi": 53,
      "hit": false,
      "t": 0,
      "d": 1614.5846250000002,
      "v": 100
    },
    {
      "midi": 69,
      "hit": false,
      "t": 0,
      "d": 1614.5846250000002,
      "v": 100
    },
    {
      "midi": 36,
      "hit": false,
      "t": 0,
      "d": 104.16675000000001,
      "v": 100
    },
    {
      "midi": 42,
      "hit": false,
      "t": 0,
      "d": 208.33350000000002,
      "v": 100
    },
    {
      "midi": 35,
      "hit": false,
      "t": 0,
      "d": 416.66700000000003,
      "v": 100
    },
    {
      "midi": 36,
      "hit": false,
      "t": 0,
      "d": 104.16675000000001,
      "v": 100
    },
    {
      "midi": 38,
      "hit": false,
      "t": 104.16675000000001,
      "d": 208.33350000000004,
      "v": 100
    },
    {
      "midi": 38,
      "hit": false,
      "t": 104.16675000000001,
      "d": 208.33350000000004,
      "v": 100
    },
    {
      "midi": 82,
      "hit": false,
      "t": 208.33350000000002,
      "d": 104.16675000000004,
      "v": 100
    },
    {
      "midi": 44,
      "hit": false,
      "t": 208.33350000000002,
      "d": 208.33350000000002,
      "v": 100
    },
    {
      "midi": 36,
      "hit": false,
      "t": 312.50025000000005,
      "d": 104.16674999999998,
      "v": 100
    },
    {
      "midi": 82,
      "hit": false,
      "t": 312.50025000000005,
      "d": 104.16674999999998,
      "v": 100
    },
    {
      "midi": 36,
      "hit": false,
      "t": 312.50025000000005,
      "d": 104.16674999999998,
      "v": 100
    },
    {
      "midi": 38,
      "hit": false,
      "t": 416.66700000000003,
      "d": 208.33350000000007,
      "v": 100
    },
    {
      "midi": 42,
      "hit": false,
      "t": 416.66700000000003,
      "d": 208.33350000000007,
      "v": 100
    },
    {
      "midi": 35,
      "hit": false,
      "t": 416.66700000000003,
      "d": 416.66700000000003,
      "v": 100
    },
    {
      "midi": 38,
      "hit": false,
      "t": 416.66700000000003,
      "d": 208.33350000000007,
      "v": 100
    },
    {
      "midi": 36,
      "hit": false,
      "t": 625.0005000000001,
      "d": 104.16674999999998,
      "v": 100
    },
    {
      "midi": 82,
      "hit": false,
      "t": 625.0005000000001,
      "d": 104.16674999999998,
      "v": 100
    },
    {
      "midi": 44,
      "hit": false,
      "t": 625.0005000000001,
      "d": 208.33349999999996,
      "v": 100
    },
    {
      "midi": 36,
      "hit": false,
      "t": 625.0005000000001,
      "d": 104.16674999999998,
      "v": 100
    },
    {
      "midi": 38,
      "hit": false,
      "t": 729.1672500000001,
      "d": 208.33350000000007,
      "v": 100
    },
    {
      "midi": 82,
      "hit": false,
      "t": 729.1672500000001,
      "d": 104.16674999999998,
      "v": 100
    },
    {
      "midi": 38,
      "hit": false,
      "t": 729.1672500000001,
      "d": 208.33350000000007,
      "v": 100
    },
    {
      "midi": 42,
      "hit": false,
      "t": 833.3340000000001,
      "d": 208.33349999999996,
      "v": 100
    },
    {
      "midi": 35,
      "hit": false,
      "t": 833.3340000000001,
      "d": 416.66700000000014,
      "v": 100
    },
    {
      "midi": 36,
      "hit": false,
      "t": 937.5007500000002,
      "d": 104.16675000000009,
      "v": 100
    },
    {
      "midi": 36,
      "hit": false,
      "t": 937.5007500000002,
      "d": 104.16675000000009,
      "v": 100
    },
    {
      "midi": 82,
      "hit": false,
      "t": 1041.6675,
      "d": 104.16675000000009,
      "v": 100
    },
    {
      "midi": 44,
      "hit": false,
      "t": 1041.6675,
      "d": 208.33350000000019,
      "v": 100
    },
    {
      "midi": 38,
      "hit": false,
      "t": 1041.6675000000002,
      "d": 208.33349999999996,
      "v": 100
    },
    {
      "midi": 38,
      "hit": false,
      "t": 1041.6675000000002,
      "d": 208.33349999999996,
      "v": 100
    },
    {
      "midi": 82,
      "hit": false,
      "t": 1145.83425,
      "d": 104.16675000000009,
      "v": 100
    },
    {
      "midi": 33,
      "hit": false,
      "t": 1250.0010000000002,
      "d": 208.33349999999996,
      "v": 100
    },
    {
      "midi": 42,
      "hit": false,
      "t": 1250.0010000000002,
      "d": 208.33349999999996,
      "v": 100
    },
    {
      "midi": 35,
      "hit": false,
      "t": 1250.0010000000002,
      "d": 416.66700000000014,
      "v": 100
    },
    {
      "midi": 33,
      "hit": false,
      "t": 1250.0010000000002,
      "d": 208.33349999999996,
      "v": 100
    },
    {
      "midi": 36,
      "hit": false,
      "t": 1458.3345000000002,
      "d": 156.25012500000003,
      "v": 100
    },
    {
      "midi": 82,
      "hit": false,
      "t": 1458.3345000000002,
      "d": 104.16675000000009,
      "v": 100
    },
    {
      "midi": 44,
      "hit": false,
      "t": 1458.3345000000002,
      "d": 208.33350000000019,
      "v": 100
    },
    {
      "midi": 36,
      "hit": false,
      "t": 1458.3345000000002,
      "d": 156.25012500000003,
      "v": 100
    },
    {
      "midi": 82,
      "hit": false,
      "t": 1562.5012500000003,
      "d": 104.16675000000009,
      "v": 100
    },
    {
      "midi": 42,
      "hit": false,
      "t": 1666.6680000000003,
      "d": 208.33349999999996,
      "v": 100
    },
    {
      "midi": 35,
      "hit": false,
      "t": 1666.6680000000003,
      "d": 416.66700000000014,
      "v": 100
    },
    {
      "midi": 44,
      "hit": false,
      "t": 1875.0015000000003,
      "d": 208.33350000000019,
      "v": 100
    },
    {
      "midi": 42,
      "hit": false,
      "t": 2083.3350000000005,
      "d": 208.33350000000019,
      "v": 100
    },
    {
      "midi": 35,
      "hit": false,
      "t": 2083.3350000000005,
      "d": 416.66700000000037,
      "v": 100
    },
    {
      "midi": 60,
      "hit": false,
      "t": 2291.6685,
      "d": 156.25012500000003,
      "v": 100
    },
    {
      "midi": 72,
      "hit": false,
      "t": 2291.6685,
      "d": 156.25012500000003,
      "v": 100
    },
    {
      "midi": 72,
      "hit": false,
      "t": 2291.6685,
      "d": 208.33350000000019,
      "v": 100
    },
    {
      "midi": 60,
      "hit": false,
      "t": 2291.6685,
      "d": 208.33350000000019,
      "v": 100
    },
    {
      "midi": 44,
      "hit": false,
      "t": 2291.6685000000007,
      "d": 208.33350000000019,
      "v": 100
    },
    {
      "midi": 62,
      "hit": false,
      "t": 2500.0020000000004,
      "d": 156.25012500000003,
      "v": 100
    },
    {
      "midi": 74,
      "hit": false,
      "t": 2500.0020000000004,
      "d": 156.25012500000003,
      "v": 100
    },
    {
      "midi": 74,
      "hit": false,
      "t": 2500.0020000000004,
      "d": 208.33350000000019,
      "v": 100
    },
    {
      "midi": 62,
      "hit": false,
      "t": 2500.0020000000004,
      "d": 208.33350000000019,
      "v": 100
    },
    {
      "midi": 42,
      "hit": false,
      "t": 2500.002000000001,
      "d": 208.33350000000019,
      "v": 100
    },
    {
      "midi": 35,
      "hit": false,
      "t": 2500.002000000001,
      "d": 416.66700000000037,
      "v": 100
    },
    {
      "midi": 44,
      "hit": false,
      "t": 2708.335500000001,
      "d": 208.33350000000019,
      "v": 100
    },
    {
      "midi": 57,
      "hit": false,
      "t": 2812.5022500000005,
      "d": 156.25012500000003,
      "v": 100
    },
    {
      "midi": 69,
      "hit": false,
      "t": 2812.5022500000005,
      "d": 156.25012500000003,
      "v": 100
    },
    {
      "midi": 69,
      "hit": false,
      "t": 2812.5022500000005,
      "d": 208.33350000000019,
      "v": 100
    },
    {
      "midi": 57,
      "hit": false,
      "t": 2812.5022500000005,
      "d": 208.33350000000019,
      "v": 100
    },
    {
      "midi": 42,
      "hit": false,
      "t": 2916.6690000000012,
      "d": 208.33350000000019,
      "v": 100
    },
    {
      "midi": 35,
      "hit": false,
      "t": 2916.6690000000012,
      "d": 416.66700000000037,
      "v": 100
    },
    {
      "midi": 55,
      "hit": false,
      "t": 3125.0025000000005,
      "d": 156.25012500000003,
      "v": 100
    },
    {
      "midi": 67,
      "hit": false,
      "t": 3125.0025000000005,
      "d": 156.25012500000003,
      "v": 100
    },
    {
      "midi": 67,
      "hit": false,
      "t": 3125.0025000000005,
      "d": 208.33350000000019,
      "v": 100
    },
    {
      "midi": 55,
      "hit": false,
      "t": 3125.0025000000005,
      "d": 208.33350000000019,
      "v": 100
    },
    {
      "midi": 44,
      "hit": false,
      "t": 3125.0025000000014,
      "d": 208.33350000000019,
      "v": 100
    },
    {
      "midi": 60,
      "hit": false,
      "t": 3333.3360000000002,
      "d": 1614.5846250000004,
      "v": 100
    },
    {
      "midi": 53,
      "hit": false,
      "t": 3333.3360000000002,
      "d": 1614.5846250000004,
      "v": 100
    },
    {
      "midi": 69,
      "hit": false,
      "t": 3333.3360000000002,
      "d": 1614.5846250000004,
      "v": 100
    },
    {
      "midi": 36,
      "hit": false,
      "t": 3333.3360000000002,
      "d": 104.16674999999987,
      "v": 100
    },
    {
      "midi": 36,
      "hit": false,
      "t": 3333.3360000000002,
      "d": 104.16674999999987,
      "v": 100
    },
    {
      "midi": 42,
      "hit": false,
      "t": 3333.3360000000016,
      "d": 208.33350000000019,
      "v": 100
    },
    {
      "midi": 35,
      "hit": false,
      "t": 3333.3360000000016,
      "d": 416.6669999999999,
      "v": 100
    },
    {
      "midi": 38,
      "hit": false,
      "t": 3437.50275,
      "d": 208.33350000000019,
      "v": 100
    },
    {
      "midi": 38,
      "hit": false,
      "t": 3437.50275,
      "d": 208.33350000000019,
      "v": 100
    },
    {
      "midi": 82,
      "hit": false,
      "t": 3541.669500000002,
      "d": 104.16674999999987,
      "v": 100
    },
    {
      "midi": 44,
      "hit": false,
      "t": 3541.669500000002,
      "d": 208.33349999999973,
      "v": 100
    },
    {
      "midi": 36,
      "hit": false,
      "t": 3645.8362500000003,
      "d": 104.16674999999987,
      "v": 100
    },
    {
      "midi": 36,
      "hit": false,
      "t": 3645.8362500000003,
      "d": 104.16674999999987,
      "v": 100
    },
    {
      "midi": 82,
      "hit": false,
      "t": 3645.8362500000017,
      "d": 104.16674999999987,
      "v": 100
    },
    {
      "midi": 38,
      "hit": false,
      "t": 3750.003,
      "d": 208.33350000000019,
      "v": 100
    },
    {
      "midi": 38,
      "hit": false,
      "t": 3750.003,
      "d": 208.33350000000019,
      "v": 100
    },
    {
      "midi": 42,
      "hit": false,
      "t": 3750.0030000000015,
      "d": 208.33350000000019,
      "v": 100
    },
    {
      "midi": 35,
      "hit": false,
      "t": 3750.0030000000015,
      "d": 416.66700000000037,
      "v": 100
    },
    {
      "midi": 36,
      "hit": false,
      "t": 3958.3365000000003,
      "d": 104.16674999999987,
      "v": 100
    },
    {
      "midi": 36,
      "hit": false,
      "t": 3958.3365000000003,
      "d": 104.16674999999987,
      "v": 100
    },
    {
      "midi": 82,
      "hit": false,
      "t": 3958.3365000000017,
      "d": 104.16674999999987,
      "v": 100
    },
    {
      "midi": 44,
      "hit": false,
      "t": 3958.3365000000017,
      "d": 208.33350000000019,
      "v": 100
    },
    {
      "midi": 38,
      "hit": false,
      "t": 4062.50325,
      "d": 208.33350000000019,
      "v": 100
    },
    {
      "midi": 38,
      "hit": false,
      "t": 4062.50325,
      "d": 208.33350000000019,
      "v": 100
    },
    {
      "midi": 82,
      "hit": false,
      "t": 4062.5032500000016,
      "d": 104.16675000000032,
      "v": 100
    },
    {
      "midi": 42,
      "hit": false,
      "t": 4166.670000000002,
      "d": 208.33349999999973,
      "v": 100
    },
    {
      "midi": 35,
      "hit": false,
      "t": 4166.670000000002,
      "d": 416.66700000000037,
      "v": 100
    },
    {
      "midi": 36,
      "hit": false,
      "t": 4270.83675,
      "d": 104.16675000000032,
      "v": 100
    },
    {
      "midi": 36,
      "hit": false,
      "t": 4270.83675,
      "d": 104.16675000000032,
      "v": 100
    },
    {
      "midi": 38,
      "hit": false,
      "t": 4375.003500000001,
      "d": 208.33349999999973,
      "v": 100
    },
    {
      "midi": 38,
      "hit": false,
      "t": 4375.003500000001,
      "d": 208.33349999999973,
      "v": 100
    },
    {
      "midi": 82,
      "hit": false,
      "t": 4375.003500000002,
      "d": 104.16675000000032,
      "v": 100
    },
    {
      "midi": 44,
      "hit": false,
      "t": 4375.003500000002,
      "d": 208.33350000000064,
      "v": 100
    },
    {
      "midi": 82,
      "hit": false,
      "t": 4479.170250000002,
      "d": 104.16675000000032,
      "v": 100
    },
    {
      "midi": 33,
      "hit": false,
      "t": 4583.337,
      "d": 208.33349999999973,
      "v": 100
    },
    {
      "midi": 33,
      "hit": false,
      "t": 4583.337,
      "d": 208.33349999999973,
      "v": 100
    },
    {
      "midi": 42,
      "hit": false,
      "t": 4583.337000000002,
      "d": 208.33349999999973,
      "v": 100
    },
    {
      "midi": 35,
      "hit": false,
      "t": 4583.337000000002,
      "d": 416.66700000000037,
      "v": 100
    },
    {
      "midi": 36,
      "hit": false,
      "t": 4791.6705,
      "d": 156.25012499999957,
      "v": 100
    },
    {
      "midi": 36,
      "hit": false,
      "t": 4791.6705,
      "d": 156.25012499999957,
      "v": 100
    },
    {
      "midi": 82,
      "hit": false,
      "t": 4791.670500000002,
      "d": 104.16675000000032,
      "v": 100
    },
    {
      "midi": 44,
      "hit": false,
      "t": 4791.670500000002,
      "d": 208.33350000000064,
      "v": 100
    },
    {
      "midi": 82,
      "hit": false,
      "t": 4895.837250000002,
      "d": 104.16675000000032,
      "v": 100
    },
    {
      "midi": 35,
      "hit": false,
      "t": 5000.004000000003,
      "d": 416.66699999999946,
      "v": 100
    },
    {
      "midi": 38,
      "hit": false,
      "t": 5208.337500000002,
      "d": 208.33349999999973,
      "v": 100
    },
    {
      "midi": 50,
      "hit": false,
      "t": 5208.337500000002,
      "d": 208.33349999999973,
      "v": 100
    },
    {
      "midi": 47,
      "hit": false,
      "t": 5208.337500000002,
      "d": 208.33349999999973,
      "v": 100
    },
    {
      "midi": 35,
      "hit": false,
      "t": 5416.671000000002,
      "d": 416.66700000000037,
      "v": 100
    },
    {
      "midi": 43,
      "hit": false,
      "t": 5520.837750000002,
      "d": 208.33349999999973,
      "v": 100
    },
    {
      "midi": 48,
      "hit": false,
      "t": 5520.837750000002,
      "d": 208.33349999999973,
      "v": 100
    },
    {
      "midi": 41,
      "hit": false,
      "t": 5833.3380000000025,
      "d": 208.33349999999973,
      "v": 100
    },
    {
      "midi": 47,
      "hit": false,
      "t": 5833.3380000000025,
      "d": 208.33349999999973,
      "v": 100
    },
    {
      "midi": 35,
      "hit": false,
      "t": 5833.3380000000025,
      "d": 416.66699999999946,
      "v": 100
    },
    {
      "midi": 50,
      "hit": false,
      "t": 6458.338500000001,
      "d": 625.000500000001,
      "v": 100
    },
    {
      "midi": 50,
      "hit": false,
      "t": 6458.338500000001,
      "d": 625.000500000001,
      "v": 100
    },
    {
      "midi": 57,
      "hit": false,
      "t": 6510.421875000001,
      "d": 572.9171250000009,
      "v": 100
    },
    {
      "midi": 57,
      "hit": false,
      "t": 6510.421875000001,
      "d": 572.9171250000009,
      "v": 100
    },
    {
      "midi": 65,
      "hit": false,
      "t": 6562.505250000001,
      "d": 520.8337500000007,
      "v": 100
    },
    {
      "midi": 65,
      "hit": false,
      "t": 6562.505250000001,
      "d": 520.8337500000007,
      "v": 100
    },
    {
      "midi": 69,
      "hit": false,
      "t": 6614.588625000001,
      "d": 468.75037500000053,
      "v": 100
    },
    {
      "midi": 69,
      "hit": false,
      "t": 6614.588625000001,
      "d": 468.75037500000053,
      "v": 100
    },
    {
      "midi": 50,
      "hit": false,
      "t": 6666.6720000000005,
      "d": 1666.6679999999997,
      "v": 100
    },
    {
      "midi": 53,
      "hit": false,
      "t": 6666.6720000000005,
      "d": 1666.6679999999997,
      "v": 100
    },
    {
      "midi": 38,
      "hit": false,
      "t": 6666.6720000000005,
      "d": 1666.6679999999997,
      "v": 100
    },
    {
      "midi": 62,
      "hit": false,
      "t": 6666.6720000000005,
      "d": 1666.6679999999997,
      "v": 100
    },
    {
      "midi": 57,
      "hit": false,
      "t": 6666.6720000000005,
      "d": 1666.6679999999997,
      "v": 100
    },
    {
      "midi": 74,
      "hit": false,
      "t": 6666.672000000001,
      "d": 729.1672500000004,
      "v": 100
    },
    {
      "midi": 74,
      "hit": false,
      "t": 6666.672000000001,
      "d": 729.1672500000004,
      "v": 100
    },
    {
      "midi": 42,
      "hit": false,
      "t": 6875.005500000002,
      "d": 208.33349999999973,
      "v": 100
    },
    {
      "midi": 42,
      "hit": false,
      "t": 7291.6725000000015,
      "d": 208.33349999999973,
      "v": 100
    },
    {
      "midi": 69,
      "hit": false,
      "t": 7395.839250000002,
      "d": 520.8337500000007,
      "v": 100
    },
    {
      "midi": 69,
      "hit": false,
      "t": 7395.839250000002,
      "d": 520.8337500000007,
      "v": 100
    },
    {
      "midi": 72,
      "hit": false,
      "t": 7447.922625000002,
      "d": 52.08337500000016,
      "v": 100
    },
    {
      "midi": 72,
      "hit": false,
      "t": 7447.922625000002,
      "d": 52.08337500000016,
      "v": 100
    },
    {
      "midi": 74,
      "hit": false,
      "t": 7500.006000000002,
      "d": 277.77800000000025,
      "v": 100
    },
    {
      "midi": 74,
      "hit": false,
      "t": 7500.006000000002,
      "d": 277.77800000000025,
      "v": 100
    },
    {
      "midi": 42,
      "hit": false,
      "t": 7708.339500000001,
      "d": 208.33349999999973,
      "v": 100
    },
    {
      "midi": 76,
      "hit": false,
      "t": 7777.784000000002,
      "d": 277.77800000000025,
      "v": 100
    },
    {
      "midi": 76,
      "hit": false,
      "t": 7777.784000000002,
      "d": 277.77800000000025,
      "v": 100
    },
    {
      "midi": 77,
      "hit": false,
      "t": 8055.562000000003,
      "d": 277.77800000000116,
      "v": 100
    },
    {
      "midi": 77,
      "hit": false,
      "t": 8055.562000000003,
      "d": 277.77800000000116,
      "v": 100
    },
    {
      "midi": 42,
      "hit": false,
      "t": 8125.0065,
      "d": 208.33349999999973,
      "v": 100
    },
    {
      "midi": 69,
      "hit": false,
      "t": 8229.173250000003,
      "d": 520.8337499999998,
      "v": 100
    },
    {
      "midi": 69,
      "hit": false,
      "t": 8229.173250000003,
      "d": 520.8337499999998,
      "v": 100
    },
    {
      "midi": 72,
      "hit": false,
      "t": 8281.256625000004,
      "d": 52.08337500000016,
      "v": 100
    },
    {
      "midi": 72,
      "hit": false,
      "t": 8281.256625000004,
      "d": 52.08337500000016,
      "v": 100
    },
    {
      "midi": 53,
      "hit": false,
      "t": 8333.34,
      "d": 1666.6679999999997,
      "v": 100
    },
    {
      "midi": 50,
      "hit": false,
      "t": 8333.34,
      "d": 1666.6679999999997,
      "v": 100
    },
    {
      "midi": 38,
      "hit": false,
      "t": 8333.34,
      "d": 1666.6679999999997,
      "v": 100
    },
    {
      "midi": 62,
      "hit": false,
      "t": 8333.34,
      "d": 833.3340000000007,
      "v": 100
    },
    {
      "midi": 57,
      "hit": false,
      "t": 8333.34,
      "d": 833.3340000000007,
      "v": 100
    },
    {
      "midi": 74,
      "hit": false,
      "t": 8333.340000000004,
      "d": 729.1672499999986,
      "v": 100
    },
    {
      "midi": 74,
      "hit": false,
      "t": 8333.340000000004,
      "d": 729.1672499999986,
      "v": 100
    },
    {
      "midi": 42,
      "hit": false,
      "t": 8541.6735,
      "d": 208.33350000000064,
      "v": 100
    },
    {
      "midi": 42,
      "hit": false,
      "t": 8958.340500000002,
      "d": 208.33350000000064,
      "v": 100
    },
    {
      "midi": 69,
      "hit": false,
      "t": 9062.507250000002,
      "d": 520.8337499999998,
      "v": 100
    },
    {
      "midi": 69,
      "hit": false,
      "t": 9062.507250000002,
      "d": 520.8337499999998,
      "v": 100
    },
    {
      "midi": 72,
      "hit": false,
      "t": 9114.590625000003,
      "d": 52.08337500000016,
      "v": 100
    },
    {
      "midi": 72,
      "hit": false,
      "t": 9114.590625000003,
      "d": 52.08337500000016,
      "v": 100
    },
    {
      "midi": 62,
      "hit": false,
      "t": 9166.674,
      "d": 277.77800000000025,
      "v": 100
    },
    {
      "midi": 57,
      "hit": false,
      "t": 9166.674,
      "d": 277.77800000000025,
      "v": 100
    },
    {
      "midi": 74,
      "hit": false,
      "t": 9166.674000000003,
      "d": 277.77800000000025,
      "v": 100
    },
    {
      "midi": 74,
      "hit": false,
      "t": 9166.674000000003,
      "d": 277.77800000000025,
      "v": 100
    },
    {
      "midi": 42,
      "hit": false,
      "t": 9375.007500000003,
      "d": 208.33350000000064,
      "v": 100
    },
    {
      "midi": 64,
      "hit": false,
      "t": 9444.452000000001,
      "d": 277.77800000000025,
      "v": 100
    },
    {
      "midi": 57,
      "hit": false,
      "t": 9444.452000000001,
      "d": 277.77800000000025,
      "v": 100
    },
    {
      "midi": 76,
      "hit": false,
      "t": 9444.452000000003,
      "d": 277.7779999999984,
      "v": 100
    },
    {
      "midi": 76,
      "hit": false,
      "t": 9444.452000000003,
      "d": 277.7779999999984,
      "v": 100
    },
    {
      "midi": 65,
      "hit": false,
      "t": 9722.230000000001,
      "d": 277.77800000000025,
      "v": 100
    },
    {
      "midi": 57,
      "hit": false,
      "t": 9722.230000000001,
      "d": 277.77800000000025,
      "v": 100
    },
    {
      "midi": 77,
      "hit": false,
      "t": 9722.230000000001,
      "d": 277.77800000000025,
      "v": 100
    },
    {
      "midi": 77,
      "hit": false,
      "t": 9722.230000000001,
      "d": 277.77800000000025,
      "v": 100
    },
    {
      "midi": 42,
      "hit": false,
      "t": 9791.674500000005,
      "d": 208.33350000000064,
      "v": 100
    },
    {
      "midi": 41,
      "hit": false,
      "t": 10000.008,
      "d": 1666.6679999999997,
      "v": 100
    },
    {
      "midi": 48,
      "hit": false,
      "t": 10000.008,
      "d": 1666.6679999999997,
      "v": 100
    },
    {
      "midi": 57,
      "hit": false,
      "t": 10000.008,
      "d": 1666.6679999999997,
      "v": 100
    },
    {
      "midi": 60,
      "hit": false,
      "t": 10000.008000000002,
      "d": 3333.3359999999993,
      "v": 100
    },
    {
      "midi": 57,
      "hit": false,
      "t": 10000.008000000002,
      "d": 3333.3359999999993,
      "v": 100
    },
    {
      "midi": 72,
      "hit": false,
      "t": 10000.008000000002,
      "d": 2291.6684999999998,
      "v": 100
    },
    {
      "midi": 72,
      "hit": false,
      "t": 10000.008000000002,
      "d": 2291.6684999999998,
      "v": 100
    },
    {
      "midi": 42,
      "hit": false,
      "t": 10208.341500000006,
      "d": 208.33350000000064,
      "v": 100
    },
    {
      "midi": 42,
      "hit": false,
      "t": 10625.008500000007,
      "d": 208.33350000000064,
      "v": 100
    },
    {
      "midi": 42,
      "hit": false,
      "t": 11041.675500000008,
      "d": 208.33350000000064,
      "v": 100
    },
    {
      "midi": 42,
      "hit": false,
      "t": 11458.34250000001,
      "d": 208.33350000000064,
      "v": 100
    },
    {
      "midi": 45,
      "hit": false,
      "t": 11666.676,
      "d": 1666.6679999999997,
      "v": 100
    },
    {
      "midi": 52,
      "hit": false,
      "t": 11666.676,
      "d": 1666.6679999999997,
      "v": 100
    },
    {
      "midi": 60,
      "hit": false,
      "t": 11666.676,
      "d": 1666.6679999999997,
      "v": 100
    },
    {
      "midi": 42,
      "hit": false,
      "t": 11875.009500000011,
      "d": 208.33350000000064,
      "v": 100
    },
    {
      "midi": 69,
      "hit": false,
      "t": 12291.676500000001,
      "d": 104.16675000000032,
      "v": 100
    },
    {
      "midi": 69,
      "hit": false,
      "t": 12291.676500000001,
      "d": 104.16675000000032,
      "v": 100
    },
    {
      "midi": 42,
      "hit": false,
      "t": 12291.676500000012,
      "d": 208.33350000000064,
      "v": 100
    },
    {
      "midi": 69,
      "hit": false,
      "t": 12395.843250000002,
      "d": 104.16675000000032,
      "v": 100
    },
    {
      "midi": 69,
      "hit": false,
      "t": 12395.843250000002,
      "d": 104.16675000000032,
      "v": 100
    },
    {
      "midi": 69,
      "hit": false,
      "t": 12500.010000000002,
      "d": 277.77800000000025,
      "v": 100
    },
    {
      "midi": 69,
      "hit": false,
      "t": 12500.010000000002,
      "d": 277.77800000000025,
      "v": 100
    },
    {
      "midi": 42,
      "hit": false,
      "t": 12708.343500000014,
      "d": 208.33350000000064,
      "v": 100
    },
    {
      "midi": 70,
      "hit": false,
      "t": 12777.788000000002,
      "d": 277.77800000000025,
      "v": 100
    },
    {
      "midi": 70,
      "hit": false,
      "t": 12777.788000000002,
      "d": 277.77800000000025,
      "v": 100
    },
    {
      "midi": 72,
      "hit": false,
      "t": 13055.566000000003,
      "d": 277.77800000000025,
      "v": 100
    },
    {
      "midi": 72,
      "hit": false,
      "t": 13055.566000000003,
      "d": 277.77800000000025,
      "v": 100
    },
    {
      "midi": 42,
      "hit": false,
      "t": 13125.010500000015,
      "d": 208.33350000000064,
      "v": 100
    },
    {
      "midi": 53,
      "hit": false,
      "t": 13333.344,
      "d": 1666.6679999999997,
      "v": 100
    },
    {
      "midi": 45,
      "hit": false,
      "t": 13333.344,
      "d": 1666.6679999999997,
      "v": 100
    },
    {
      "midi": 38,
      "hit": false,
      "t": 13333.344,
      "d": 1666.6679999999997,
      "v": 100
    },
    {
      "midi": 62,
      "hit": false,
      "t": 13333.344000000001,
      "d": 833.3340000000007,
      "v": 100
    },
    {
      "midi": 57,
      "hit": false,
      "t": 13333.344000000001,
      "d": 833.3340000000007,
      "v": 100
    },
    {
      "midi": 69,
      "hit": false,
      "t": 13333.344000000003,
      "d": 104.16675000000032,
      "v": 100
    },
    {
      "midi": 69,
      "hit": false,
      "t": 13333.344000000003,
      "d": 104.16675000000032,
      "v": 100
    },
    {
      "midi": 35,
      "hit": false,
      "t": 13333.344000000016,
      "d": 416.6670000000013,
      "v": 100
    },
    {
      "midi": 67,
      "hit": false,
      "t": 13437.510750000003,
      "d": 104.16675000000032,
      "v": 100
    },
    {
      "midi": 67,
      "hit": false,
      "t": 13437.510750000003,
      "d": 104.16675000000032,
      "v": 100
    },
    {
      "midi": 69,
      "hit": false,
      "t": 13541.677500000003,
      "d": 416.66699999999946,
      "v": 100
    },
    {
      "midi": 69,
      "hit": false,
      "t": 13541.677500000003,
      "d": 416.66699999999946,
      "v": 100
    },
    {
      "midi": 54,
      "hit": false,
      "t": 13541.677500000016,
      "d": 208.33350000000064,
      "v": 100
    },
    {
      "midi": 44,
      "hit": false,
      "t": 13541.677500000016,
      "d": 208.33350000000064,
      "v": 100
    },
    {
      "midi": 44,
      "hit": false,
      "t": 13750.011000000017,
      "d": 208.33350000000064,
      "v": 100
    },
    {
      "midi": 35,
      "hit": false,
      "t": 13750.011000000017,
      "d": 416.6670000000013,
      "v": 100
    },
    {
      "midi": 65,
      "hit": false,
      "t": 13958.344500000003,
      "d": 104.16675000000032,
      "v": 100
    },
    {
      "midi": 65,
      "hit": false,
      "t": 13958.344500000003,
      "d": 104.16675000000032,
      "v": 100
    },
    {
      "midi": 54,
      "hit": false,
      "t": 13958.344500000017,
      "d": 208.33350000000064,
      "v": 100
    },
    {
      "midi": 64,
      "hit": false,
      "t": 14062.511250000003,
      "d": 104.16675000000032,
      "v": 100
    },
    {
      "midi": 64,
      "hit": false,
      "t": 14062.511250000003,
      "d": 104.16675000000032,
      "v": 100
    },
    {
      "midi": 62,
      "hit": false,
      "t": 14166.678000000002,
      "d": 833.3340000000007,
      "v": 100
    },
    {
      "midi": 57,
      "hit": false,
      "t": 14166.678000000002,
      "d": 833.3340000000007,
      "v": 100
    },
    {
      "midi": 65,
      "hit": false,
      "t": 14166.678000000004,
      "d": 1458.3345000000008,
      "v": 100
    },
    {
      "midi": 65,
      "hit": false,
      "t": 14166.678000000004,
      "d": 1458.3345000000008,
      "v": 100
    },
    {
      "midi": 44,
      "hit": false,
      "t": 14166.678000000018,
      "d": 104.16675000000032,
      "v": 100
    },
    {
      "midi": 35,
      "hit": false,
      "t": 14166.678000000018,
      "d": 416.6670000000013,
      "v": 100
    },
    {
      "midi": 44,
      "hit": false,
      "t": 14270.844750000018,
      "d": 104.16675000000032,
      "v": 100
    },
    {
      "midi": 54,
      "hit": false,
      "t": 14375.011500000019,
      "d": 208.33350000000064,
      "v": 100
    },
    {
      "midi": 44,
      "hit": false,
      "t": 14583.34500000002,
      "d": 208.33350000000064,
      "v": 100
    },
    {
      "midi": 35,
      "hit": false,
      "t": 14583.34500000002,
      "d": 416.6670000000013,
      "v": 100
    },
    {
      "midi": 54,
      "hit": false,
      "t": 14791.67850000002,
      "d": 208.33350000000064,
      "v": 100
    },
    {
      "midi": 38,
      "hit": false,
      "t": 15000.011999999999,
      "d": 1666.6680000000015,
      "v": 100
    },
    {
      "midi": 45,
      "hit": false,
      "t": 15000.011999999999,
      "d": 1666.6680000000015,
      "v": 100
    },
    {
      "midi": 53,
      "hit": false,
      "t": 15000.011999999999,
      "d": 1666.6680000000015,
      "v": 100
    },
    {
      "midi": 38,
      "hit": false,
      "t": 15000.011999999999,
      "d": 1666.6680000000015,
      "v": 100
    },
    {
      "midi": 65,
      "hit": false,
      "t": 15000.012000000002,
      "d": 833.3340000000007,
      "v": 100
    },
    {
      "midi": 57,
      "hit": false,
      "t": 15000.012000000002,
      "d": 833.3340000000007,
      "v": 100
    },
    {
      "midi": 35,
      "hit": false,
      "t": 15000.01200000002,
      "d": 416.6670000000013,
      "v": 100
    },
    {
      "midi": 54,
      "hit": false,
      "t": 15208.345500000021,
      "d": 208.33350000000064,
      "v": 100
    },
    {
      "midi": 44,
      "hit": false,
      "t": 15208.345500000021,
      "d": 208.33350000000064,
      "v": 100
    },
    {
      "midi": 44,
      "hit": false,
      "t": 15416.679000000022,
      "d": 208.33350000000064,
      "v": 100
    },
    {
      "midi": 35,
      "hit": false,
      "t": 15416.679000000022,
      "d": 416.6670000000013,
      "v": 100
    },
    {
      "midi": 69,
      "hit": false,
      "t": 15625.012500000004,
      "d": 104.16675000000032,
      "v": 100
    },
    {
      "midi": 69,
      "hit": false,
      "t": 15625.012500000004,
      "d": 104.16675000000032,
      "v": 100
    },
    {
      "midi": 54,
      "hit": false,
      "t": 15625.012500000023,
      "d": 208.33350000000064,
      "v": 100
    },
    {
      "midi": 69,
      "hit": false,
      "t": 15729.179250000005,
      "d": 104.16675000000032,
      "v": 100
    },
    {
      "midi": 69,
      "hit": false,
      "t": 15729.179250000005,
      "d": 104.16675000000032,
      "v": 100
    },
    {
      "midi": 69,
      "hit": false,
      "t": 15833.346000000003,
      "d": 416.66699999999946,
      "v": 100
    },
    {
      "midi": 65,
      "hit": false,
      "t": 15833.346000000003,
      "d": 416.66699999999946,
      "v": 100
    },
    {
      "midi": 69,
      "hit": false,
      "t": 15833.346000000005,
      "d": 277.77800000000025,
      "v": 100
    },
    {
      "midi": 69,
      "hit": false,
      "t": 15833.346000000005,
      "d": 277.77800000000025,
      "v": 100
    },
    {
      "midi": 44,
      "hit": false,
      "t": 15833.346000000023,
      "d": 104.16675000000032,
      "v": 100
    },
    {
      "midi": 35,
      "hit": false,
      "t": 15833.346000000023,
      "d": 416.6670000000013,
      "v": 100
    },
    {
      "midi": 44,
      "hit": false,
      "t": 15937.512750000024,
      "d": 104.16675000000032,
      "v": 100
    },
    {
      "midi": 54,
      "hit": false,
      "t": 16041.679500000024,
      "d": 208.33350000000064,
      "v": 100
    },
    {
      "midi": 74,
      "hit": false,
      "t": 16111.124000000005,
      "d": 277.77800000000025,
      "v": 100
    },
    {
      "midi": 74,
      "hit": false,
      "t": 16111.124000000005,
      "d": 277.77800000000025,
      "v": 100
    },
    {
      "midi": 74,
      "hit": false,
      "t": 16250.013000000003,
      "d": 416.6670000000013,
      "v": 100
    },
    {
      "midi": 69,
      "hit": false,
      "t": 16250.013000000003,
      "d": 416.6670000000013,
      "v": 100
    },
    {
      "midi": 44,
      "hit": false,
      "t": 16250.013000000024,
      "d": 208.33350000000064,
      "v": 100
    },
    {
      "midi": 35,
      "hit": false,
      "t": 16250.013000000024,
      "d": 416.6670000000013,
      "v": 100
    },
    {
      "midi": 76,
      "hit": false,
      "t": 16388.902000000006,
      "d": 277.7779999999984,
      "v": 100
    },
    {
      "midi": 76,
      "hit": false,
      "t": 16388.902000000006,
      "d": 277.7779999999984,
      "v": 100
    },
    {
      "midi": 54,
      "hit": false,
      "t": 16458.346500000025,
      "d": 208.33350000000064,
      "v": 100
    },
    {
      "midi": 40,
      "hit": false,
      "t": 16666.68,
      "d": 1666.6680000000015,
      "v": 100
    },
    {
      "midi": 55,
      "hit": false,
      "t": 16666.68,
      "d": 1666.6680000000015,
      "v": 100
    },
    {
      "midi": 47,
      "hit": false,
      "t": 16666.68,
      "d": 1666.6680000000015,
      "v": 100
    },
    {
      "midi": 40,
      "hit": false,
      "t": 16666.68,
      "d": 1666.6680000000015,
      "v": 100
    },
    {
      "midi": 35,
      "hit": false,
      "t": 16666.680000000026,
      "d": 416.6670000000013,
      "v": 100
    },
    {
      "midi": 64,
      "hit": false,
      "t": 16770.846750000004,
      "d": 520.833749999998,
      "v": 100
    },
    {
      "midi": 64,
      "hit": false,
      "t": 16770.846750000004,
      "d": 520.833749999998,
      "v": 100
    },
    {
      "midi": 67,
      "hit": false,
      "t": 16822.930125000003,
      "d": 52.08337499999834,
      "v": 100
    },
    {
      "midi": 67,
      "hit": false,
      "t": 16822.930125000003,
      "d": 52.08337499999834,
      "v": 100
    },
    {
      "midi": 69,
      "hit": false,
      "t": 16875.0135,
      "d": 416.6670000000013,
      "v": 100
    },
    {
      "midi": 69,
      "hit": false,
      "t": 16875.0135,
      "d": 416.6670000000013,
      "v": 100
    },
    {
      "midi": 54,
      "hit": false,
      "t": 16875.013500000026,
      "d": 208.33350000000064,
      "v": 100
    },
    {
      "midi": 44,
      "hit": false,
      "t": 16875.013500000026,
      "d": 208.33350000000064,
      "v": 100
    },
    {
      "midi": 71,
      "hit": false,
      "t": 17083.347000000005,
      "d": 1250.0010000000002,
      "v": 100
    },
    {
      "midi": 64,
      "hit": false,
      "t": 17083.347000000005,
      "d": 1250.0010000000002,
      "v": 100
    },
    {
      "midi": 55,
      "hit": false,
      "t": 17083.347000000005,
      "d": 1250.0010000000002,
      "v": 100
    },
    {
      "midi": 38,
      "hit": false,
      "t": 17083.347000000027,
      "d": 208.33350000000064,
      "v": 100
    },
    {
      "midi": 44,
      "hit": false,
      "t": 17083.347000000027,
      "d": 208.33350000000064,
      "v": 100
    },
    {
      "midi": 35,
      "hit": false,
      "t": 17083.347000000027,
      "d": 416.6670000000013,
      "v": 100
    },
    {
      "midi": 74,
      "hit": false,
      "t": 17291.680500000002,
      "d": 208.33350000000064,
      "v": 100
    },
    {
      "midi": 74,
      "hit": false,
      "t": 17291.680500000002,
      "d": 208.33350000000064,
      "v": 100
    },
    {
      "midi": 54,
      "hit": false,
      "t": 17291.680500000028,
      "d": 208.33350000000064,
      "v": 100
    },
    {
      "midi": 76,
      "hit": false,
      "t": 17500.014000000003,
      "d": 277.7779999999984,
      "v": 100
    },
    {
      "midi": 76,
      "hit": false,
      "t": 17500.014000000003,
      "d": 277.7779999999984,
      "v": 100
    },
    {
      "midi": 44,
      "hit": false,
      "t": 17500.01400000003,
      "d": 104.16675000000032,
      "v": 100
    },
    {
      "midi": 35,
      "hit": false,
      "t": 17500.01400000003,
      "d": 416.6670000000013,
      "v": 100
    },
    {
      "midi": 44,
      "hit": false,
      "t": 17604.18075000003,
      "d": 104.16675000000032,
      "v": 100
    },
    {
      "midi": 54,
      "hit": false,
      "t": 17708.34750000003,
      "d": 208.33350000000064,
      "v": 100
    },
    {
      "midi": 77,
      "hit": false,
      "t": 17777.792,
      "d": 277.7779999999984,
      "v": 100
    },
    {
      "midi": 77,
      "hit": false,
      "t": 17777.792,
      "d": 277.7779999999984,
      "v": 100
    },
    {
      "midi": 38,
      "hit": false,
      "t": 17916.68100000003,
      "d": 208.33350000000064,
      "v": 100
    },
    {
      "midi": 44,
      "hit": false,
      "t": 17916.68100000003,
      "d": 208.33350000000064,
      "v": 100
    },
    {
      "midi": 35,
      "hit": false,
      "t": 17916.68100000003,
      "d": 416.6670000000013,
      "v": 100
    },
    {
      "midi": 79,
      "hit": false,
      "t": 18055.57,
      "d": 173.61125000000175,
      "v": 100
    },
    {
      "midi": 79,
      "hit": false,
      "t": 18055.57,
      "d": 173.61125000000175,
      "v": 100
    },
    {
      "midi": 54,
      "hit": false,
      "t": 18125.01450000003,
      "d": 208.33350000000064,
      "v": 100
    },
    {
      "midi": 76,
      "hit": false,
      "t": 18229.18125,
      "d": 52.08337499999834,
      "v": 100
    },
    {
      "midi": 76,
      "hit": false,
      "t": 18229.18125,
      "d": 52.08337499999834,
      "v": 100
    },
    {
      "midi": 79,
      "hit": false,
      "t": 18281.264625,
      "d": 52.08337499999834,
      "v": 100
    },
    {
      "midi": 79,
      "hit": false,
      "t": 18281.264625,
      "d": 52.08337499999834,
      "v": 100
    },
    {
      "midi": 81,
      "hit": false,
      "t": 18333.347999999998,
      "d": 208.33350000000064,
      "v": 100
    },
    {
      "midi": 81,
      "hit": false,
      "t": 18333.347999999998,
      "d": 208.33350000000064,
      "v": 100
    },
    {
      "midi": 45,
      "hit": false,
      "t": 18333.348,
      "d": 1666.6680000000015,
      "v": 100
    },
    {
      "midi": 52,
      "hit": false,
      "t": 18333.348,
      "d": 1666.6680000000015,
      "v": 100
    },
    {
      "midi": 61,
      "hit": false,
      "t": 18333.348,
      "d": 1666.6680000000015,
      "v": 100
    },
    {
      "midi": 33,
      "hit": false,
      "t": 18333.348,
      "d": 1666.6680000000015,
      "v": 100
    },
    {
      "midi": 73,
      "hit": false,
      "t": 18333.348000000005,
      "d": 1666.6680000000015,
      "v": 100
    },
    {
      "midi": 64,
      "hit": false,
      "t": 18333.348000000005,
      "d": 1666.6680000000015,
      "v": 100
    },
    {
      "midi": 57,
      "hit": false,
      "t": 18333.348000000005,
      "d": 1666.6680000000015,
      "v": 100
    },
    {
      "midi": 35,
      "hit": false,
      "t": 18333.34800000003,
      "d": 416.6670000000013,
      "v": 100
    },
    {
      "midi": 79,
      "hit": false,
      "t": 18541.6815,
      "d": 416.6670000000013,
      "v": 100
    },
    {
      "midi": 79,
      "hit": false,
      "t": 18541.6815,
      "d": 416.6670000000013,
      "v": 100
    },
    {
      "midi": 54,
      "hit": false,
      "t": 18541.68150000003,
      "d": 208.33350000000064,
      "v": 100
    },
    {
      "midi": 38,
      "hit": false,
      "t": 18750.015000000032,
      "d": 208.33350000000064,
      "v": 100
    },
    {
      "midi": 44,
      "hit": false,
      "t": 18750.015000000032,
      "d": 208.33350000000064,
      "v": 100
    },
    {
      "midi": 35,
      "hit": false,
      "t": 18750.015000000032,
      "d": 416.6670000000013,
      "v": 100
    },
    {
      "midi": 81,
      "hit": false,
      "t": 18958.3485,
      "d": 104.16675000000032,
      "v": 100
    },
    {
      "midi": 79,
      "hit": false,
      "t": 18958.3485,
      "d": 104.16675000000032,
      "v": 100
    },
    {
      "midi": 38,
      "hit": false,
      "t": 18958.348500000033,
      "d": 104.16675000000032,
      "v": 100
    },
    {
      "midi": 44,
      "hit": false,
      "t": 18958.348500000033,
      "d": 104.16675000000032,
      "v": 100
    },
    {
      "midi": 54,
      "hit": false,
      "t": 18958.348500000033,
      "d": 208.33350000000064,
      "v": 100
    },
    {
      "midi": 82,
      "hit": false,
      "t": 19062.51525,
      "d": 104.16675000000032,
      "v": 100
    },
    {
      "midi": 82,
      "hit": false,
      "t": 19062.51525,
      "d": 104.16675000000032,
      "v": 100
    },
    {
      "midi": 38,
      "hit": false,
      "t": 19062.515250000033,
      "d": 104.16675000000032,
      "v": 100
    },
    {
      "midi": 44,
      "hit": false,
      "t": 19062.515250000033,
      "d": 104.16675000000032,
      "v": 100
    },
    {
      "midi": 81,
      "hit": false,
      "t": 19166.682,
      "d": 833.3339999999989,
      "v": 100
    },
    {
      "midi": 73,
      "hit": false,
      "t": 19166.682,
      "d": 833.3339999999989,
      "v": 100
    },
    {
      "midi": 81,
      "hit": false,
      "t": 19166.682,
      "d": 833.3339999999989,
      "v": 100
    },
    {
      "midi": 73,
      "hit": false,
      "t": 19166.682,
      "d": 833.3339999999989,
      "v": 100
    },
    {
      "midi": 38,
      "hit": false,
      "t": 19166.682000000033,
      "d": 104.16675000000032,
      "v": 100
    },
    {
      "midi": 35,
      "hit": false,
      "t": 19166.682000000033,
      "d": 416.6670000000013,
      "v": 100
    },
    {
      "midi": 38,
      "hit": false,
      "t": 19270.848750000034,
      "d": 104.16675000000032,
      "v": 100
    },
    {
      "midi": 38,
      "hit": false,
      "t": 19375.015500000034,
      "d": 104.16675000000032,
      "v": 100
    },
    {
      "midi": 54,
      "hit": false,
      "t": 19375.015500000034,
      "d": 208.33350000000064,
      "v": 100
    },
    {
      "midi": 38,
      "hit": false,
      "t": 19479.182250000034,
      "d": 104.16675000000032,
      "v": 100
    },
    {
      "midi": 38,
      "hit": false,
      "t": 19583.349000000035,
      "d": 104.16675000000032,
      "v": 100
    },
    {
      "midi": 35,
      "hit": false,
      "t": 19583.349000000035,
      "d": 416.6670000000013,
      "v": 100
    },
    {
      "midi": 38,
      "hit": false,
      "t": 19687.515750000035,
      "d": 104.16675000000032,
      "v": 100
    },
    {
      "midi": 38,
      "hit": false,
      "t": 19791.682500000035,
      "d": 104.16675000000032,
      "v": 100
    },
    {
      "midi": 54,
      "hit": false,
      "t": 19791.682500000035,
      "d": 208.33350000000064,
      "v": 100
    },
    {
      "midi": 38,
      "hit": false,
      "t": 19895.849250000036,
      "d": 104.16675000000032,
      "v": 100
    },
    {
      "midi": 38,
      "hit": false,
      "t": 20000.016,
      "d": 104.16675000000032,
      "v": 100
    },
    {
      "midi": 65,
      "hit": false,
      "t": 20000.016000000003,
      "d": 1666.6680000000015,
      "v": 100
    },
    {
      "midi": 50,
      "hit": false,
      "t": 20000.016000000003,
      "d": 1666.6680000000015,
      "v": 100
    },
    {
      "midi": 57,
      "hit": false,
      "t": 20000.016000000003,
      "d": 1666.6680000000015,
      "v": 100
    },
    {
      "midi": 38,
      "hit": false,
      "t": 20000.016000000003,
      "d": 208.33350000000064,
      "v": 100
    },
    {
      "midi": 35,
      "hit": false,
      "t": 20000.016000000036,
      "d": 416.6670000000013,
      "v": 100
    },
    {
      "midi": 49,
      "hit": false,
      "t": 20000.016000000036,
      "d": 416.6670000000013,
      "v": 100
    },
    {
      "midi": 38,
      "hit": false,
      "t": 20104.18275,
      "d": 104.16675000000032,
      "v": 100
    },
    {
      "midi": 50,
      "hit": false,
      "t": 20208.3495,
      "d": 104.16675000000032,
      "v": 100
    },
    {
      "midi": 44,
      "hit": false,
      "t": 20208.349500000037,
      "d": 208.33350000000064,
      "v": 100
    },
    {
      "midi": 50,
      "hit": false,
      "t": 20312.51625,
      "d": 104.16675000000032,
      "v": 100
    },
    {
      "midi": 74,
      "hit": false,
      "t": 20416.683,
      "d": 416.6670000000013,
      "v": 100
    },
    {
      "midi": 38,
      "hit": false,
      "t": 20416.683,
      "d": 104.16675000000032,
      "v": 100
    },
    {
      "midi": 86,
      "hit": false,
      "t": 20416.683,
      "d": 416.6670000000013,
      "v": 100
    },
    {
      "midi": 38,
      "hit": false,
      "t": 20416.683000000005,
      "d": 208.33350000000064,
      "v": 100
    },
    {
      "midi": 38,
      "hit": false,
      "t": 20416.683000000037,
      "d": 208.33350000000064,
      "v": 100
    },
    {
      "midi": 35,
      "hit": false,
      "t": 20416.683000000037,
      "d": 416.6670000000013,
      "v": 100
    },
    {
      "midi": 38,
      "hit": false,
      "t": 20520.84975,
      "d": 104.16675000000032,
      "v": 100
    },
    {
      "midi": 50,
      "hit": false,
      "t": 20625.0165,
      "d": 104.16675000000032,
      "v": 100
    },
    {
      "midi": 44,
      "hit": false,
      "t": 20625.016500000038,
      "d": 208.33350000000064,
      "v": 100
    },
    {
      "midi": 50,
      "hit": false,
      "t": 20729.183250000002,
      "d": 104.16675000000032,
      "v": 100
    },
    {
      "midi": 69,
      "hit": false,
      "t": 20833.350000000002,
      "d": 416.6670000000013,
      "v": 100
    },
    {
      "midi": 38,
      "hit": false,
      "t": 20833.350000000002,
      "d": 104.16675000000032,
      "v": 100
    },
    {
      "midi": 81,
      "hit": false,
      "t": 20833.350000000002,
      "d": 416.6670000000013,
      "v": 100
    },
    {
      "midi": 38,
      "hit": false,
      "t": 20833.350000000006,
      "d": 208.33350000000064,
      "v": 100
    },
    {
      "midi": 35,
      "hit": false,
      "t": 20833.35000000004,
      "d": 416.6670000000013,
      "v": 100
    },
    {
      "midi": 38,
      "hit": false,
      "t": 20937.516750000003,
      "d": 104.16675000000032,
      "v": 100
    },
    {
      "midi": 50,
      "hit": false,
      "t": 21041.683500000003,
      "d": 104.16675000000032,
      "v": 100
    },
    {
      "midi": 44,
      "hit": false,
      "t": 21041.68350000004,
      "d": 208.33350000000064,
      "v": 100
    },
    {
      "midi": 50,
      "hit": false,
      "t": 21145.850250000003,
      "d": 104.16675000000032,
      "v": 100
    },
    {
      "midi": 74,
      "hit": false,
      "t": 21250.017000000003,
      "d": 416.6670000000013,
      "v": 100
    },
    {
      "midi": 38,
      "hit": false,
      "t": 21250.017000000003,
      "d": 104.16675000000032,
      "v": 100
    },
    {
      "midi": 86,
      "hit": false,
      "t": 21250.017000000003,
      "d": 416.6670000000013,
      "v": 100
    },
    {
      "midi": 38,
      "hit": false,
      "t": 21250.017000000007,
      "d": 208.33350000000064,
      "v": 100
    },
    {
      "midi": 38,
      "hit": false,
      "t": 21250.01700000004,
      "d": 208.33350000000064,
      "v": 100
    },
    {
      "midi": 35,
      "hit": false,
      "t": 21250.01700000004,
      "d": 416.6670000000013,
      "v": 100
    },
    {
      "midi": 38,
      "hit": false,
      "t": 21354.183750000004,
      "d": 104.16675000000032,
      "v": 100
    },
    {
      "midi": 50,
      "hit": false,
      "t": 21458.350500000004,
      "d": 104.16675000000032,
      "v": 100
    },
    {
      "midi": 44,
      "hit": false,
      "t": 21458.35050000004,
      "d": 208.33350000000064,
      "v": 100
    },
    {
      "midi": 50,
      "hit": false,
      "t": 21562.517250000004,
      "d": 104.16675000000032,
      "v": 100
    },
    {
      "midi": 74,
      "hit": false,
      "t": 21666.684000000005,
      "d": 625.0004999999983,
      "v": 100
    },
    {
      "midi": 64,
      "hit": false,
      "t": 21666.684000000005,
      "d": 1666.6680000000015,
      "v": 100
    },
    {
      "midi": 48,
      "hit": false,
      "t": 21666.684000000005,
      "d": 1666.6680000000015,
      "v": 100
    },
    {
      "midi": 55,
      "hit": false,
      "t": 21666.684000000005,
      "d": 1666.6680000000015,
      "v": 100
    },
    {
      "midi": 36,
      "hit": false,
      "t": 21666.684000000005,
      "d": 104.16675000000032,
      "v": 100
    },
    {
      "midi": 86,
      "hit": false,
      "t": 21666.684000000005,
      "d": 625.0004999999983,
      "v": 100
    },
    {
      "midi": 36,
      "hit": false,
      "t": 21666.68400000001,
      "d": 208.33350000000064,
      "v": 100
    },
    {
      "midi": 35,
      "hit": false,
      "t": 21666.68400000004,
      "d": 416.6670000000013,
      "v": 100
    },
    {
      "midi": 36,
      "hit": false,
      "t": 21770.850750000005,
      "d": 104.16675000000032,
      "v": 100
    },
    {
      "midi": 48,
      "hit": false,
      "t": 21875.017500000005,
      "d": 104.16675000000032,
      "v": 100
    },
    {
      "midi": 44,
      "hit": false,
      "t": 21875.01750000004,
      "d": 208.33350000000064,
      "v": 100
    },
    {
      "midi": 48,
      "hit": false,
      "t": 21979.184250000006,
      "d": 104.16675000000032,
      "v": 100
    },
    {
      "midi": 36,
      "hit": false,
      "t": 22083.351000000006,
      "d": 104.16675000000032,
      "v": 100
    },
    {
      "midi": 36,
      "hit": false,
      "t": 22083.35100000001,
      "d": 208.33350000000064,
      "v": 100
    },
    {
      "midi": 38,
      "hit": false,
      "t": 22083.351000000042,
      "d": 208.33350000000064,
      "v": 100
    },
    {
      "midi": 35,
      "hit": false,
      "t": 22083.351000000042,
      "d": 416.6670000000013,
      "v": 100
    },
    {
      "midi": 36,
      "hit": false,
      "t": 22187.517750000006,
      "d": 104.16675000000032,
      "v": 100
    },
    {
      "midi": 72,
      "hit": false,
      "t": 22291.684500000003,
      "d": 208.33350000000064,
      "v": 100
    },
    {
      "midi": 84,
      "hit": false,
      "t": 22291.684500000003,
      "d": 208.33350000000064,
      "v": 100
    },
    {
      "midi": 48,
      "hit": false,
      "t": 22291.684500000007,
      "d": 104.16675000000032,
      "v": 100
    },
    {
      "midi": 44,
      "hit": false,
      "t": 22291.684500000043,
      "d": 208.33350000000064,
      "v": 100
    },
    {
      "midi": 48,
      "hit": false,
      "t": 22395.851250000007,
      "d": 104.16675000000032,
      "v": 100
    },
    {
      "midi": 72,
      "hit": false,
      "t": 22500.018000000004,
      "d": 416.6670000000013,
      "v": 100
    },
    {
      "midi": 84,
      "hit": false,
      "t": 22500.018000000004,
      "d": 416.6670000000013,
      "v": 100
    },
    {
      "midi": 36,
      "hit": false,
      "t": 22500.018000000007,
      "d": 104.16675000000032,
      "v": 100
    },
    {
      "midi": 36,
      "hit": false,
      "t": 22500.01800000001,
      "d": 208.33350000000064,
      "v": 100
    },
    {
      "midi": 35,
      "hit": false,
      "t": 22500.018000000044,
      "d": 416.6670000000013,
      "v": 100
    },
    {
      "midi": 36,
      "hit": false,
      "t": 22604.184750000008,
      "d": 104.16675000000032,
      "v": 100
    },
    {
      "midi": 48,
      "hit": false,
      "t": 22708.351500000008,
      "d": 104.16675000000032,
      "v": 100
    },
    {
      "midi": 44,
      "hit": false,
      "t": 22708.351500000044,
      "d": 208.33350000000064,
      "v": 100
    },
    {
      "midi": 48,
      "hit": false,
      "t": 22812.51825000001,
      "d": 104.16675000000032,
      "v": 100
    },
    {
      "midi": 36,
      "hit": false,
      "t": 22916.68500000001,
      "d": 104.16675000000032,
      "v": 100
    },
    {
      "midi": 36,
      "hit": false,
      "t": 22916.685000000012,
      "d": 208.33350000000064,
      "v": 100
    },
    {
      "midi": 38,
      "hit": false,
      "t": 22916.685000000045,
      "d": 208.33350000000064,
      "v": 100
    },
    {
      "midi": 35,
      "hit": false,
      "t": 22916.685000000045,
      "d": 416.6670000000013,
      "v": 100
    },
    {
      "midi": 36,
      "hit": false,
      "t": 23020.85175000001,
      "d": 104.16675000000032,
      "v": 100
    },
    {
      "midi": 69,
      "hit": false,
      "t": 23125.018500000006,
      "d": 104.16675000000032,
      "v": 100
    },
    {
      "midi": 81,
      "hit": false,
      "t": 23125.018500000006,
      "d": 104.16675000000032,
      "v": 100
    },
    {
      "midi": 48,
      "hit": false,
      "t": 23125.01850000001,
      "d": 104.16675000000032,
      "v": 100
    },
    {
      "midi": 44,
      "hit": false,
      "t": 23125.018500000046,
      "d": 208.33350000000064,
      "v": 100
    },
    {
      "midi": 67,
      "hit": false,
      "t": 23229.185250000006,
      "d": 104.16675000000032,
      "v": 100
    },
    {
      "midi": 79,
      "hit": false,
      "t": 23229.185250000006,
      "d": 104.16675000000032,
      "v": 100
    },
    {
      "midi": 48,
      "hit": false,
      "t": 23229.18525000001,
      "d": 104.16675000000032,
      "v": 100
    },
    {
      "midi": 65,
      "hit": false,
      "t": 23333.352000000006,
      "d": 625.0004999999983,
      "v": 100
    },
    {
      "midi": 60,
      "hit": false,
      "t": 23333.352000000006,
      "d": 1666.6680000000015,
      "v": 100
    },
    {
      "midi": 53,
      "hit": false,
      "t": 23333.352000000006,
      "d": 1666.6680000000015,
      "v": 100
    },
    {
      "midi": 69,
      "hit": false,
      "t": 23333.352000000006,
      "d": 1666.6680000000015,
      "v": 100
    },
    {
      "midi": 77,
      "hit": false,
      "t": 23333.352000000006,
      "d": 625.0004999999983,
      "v": 100
    },
    {
      "midi": 29,
      "hit": false,
      "t": 23333.35200000001,
      "d": 104.16675000000032,
      "v": 100
    },
    {
      "midi": 29,
      "hit": false,
      "t": 23333.352000000014,
      "d": 208.33350000000064,
      "v": 100
    },
    {
      "midi": 35,
      "hit": false,
      "t": 23333.352000000046,
      "d": 416.6670000000013,
      "v": 100
    },
    {
      "midi": 29,
      "hit": false,
      "t": 23437.51875000001,
      "d": 104.16675000000032,
      "v": 100
    },
    {
      "midi": 41,
      "hit": false,
      "t": 23541.68550000001,
      "d": 104.16675000000032,
      "v": 100
    },
    {
      "midi": 44,
      "hit": false,
      "t": 23541.685500000047,
      "d": 208.33350000000064,
      "v": 100
    },
    {
      "midi": 41,
      "hit": false,
      "t": 23645.85225000001,
      "d": 104.16675000000032,
      "v": 100
    },
    {
      "midi": 29,
      "hit": false,
      "t": 23750.01900000001,
      "d": 104.16675000000032,
      "v": 100
    },
    {
      "midi": 29,
      "hit": false,
      "t": 23750.019000000015,
      "d": 208.33350000000064,
      "v": 100
    },
    {
      "midi": 38,
      "hit": false,
      "t": 23750.019000000048,
      "d": 208.33350000000064,
      "v": 100
    },
    {
      "midi": 35,
      "hit": false,
      "t": 23750.019000000048,
      "d": 416.6670000000013,
      "v": 100
    },
    {
      "midi": 29,
      "hit": false,
      "t": 23854.18575000001,
      "d": 104.16675000000032,
      "v": 100
    },
    {
      "midi": 65,
      "hit": false,
      "t": 23958.352500000005,
      "d": 208.33350000000064,
      "v": 100
    },
    {
      "midi": 77,
      "hit": false,
      "t": 23958.352500000005,
      "d": 208.33350000000064,
      "v": 100
    },
    {
      "midi": 41,
      "hit": false,
      "t": 23958.35250000001,
      "d": 104.16675000000032,
      "v": 100
    },
    {
      "midi": 44,
      "hit": false,
      "t": 23958.352500000048,
      "d": 208.33350000000064,
      "v": 100
    },
    {
      "midi": 41,
      "hit": false,
      "t": 24062.519250000012,
      "d": 104.16675000000032,
      "v": 100
    },
    {
      "midi": 65,
      "hit": false,
      "t": 24166.686000000005,
      "d": 277.7779999999984,
      "v": 100
    },
    {
      "midi": 77,
      "hit": false,
      "t": 24166.686000000005,
      "d": 277.7779999999984,
      "v": 100
    },
    {
      "midi": 29,
      "hit": false,
      "t": 24166.686000000012,
      "d": 104.16675000000032,
      "v": 100
    },
    {
      "midi": 29,
      "hit": false,
      "t": 24166.686000000016,
      "d": 208.33350000000064,
      "v": 100
    },
    {
      "midi": 35,
      "hit": false,
      "t": 24166.68600000005,
      "d": 416.6670000000013,
      "v": 100
    },
    {
      "midi": 29,
      "hit": false,
      "t": 24270.852750000013,
      "d": 104.16675000000032,
      "v": 100
    },
    {
      "midi": 41,
      "hit": false,
      "t": 24375.019500000013,
      "d": 104.16675000000032,
      "v": 100
    },
    {
      "midi": 44,
      "hit": false,
      "t": 24375.01950000005,
      "d": 208.33350000000064,
      "v": 100
    },
    {
      "midi": 67,
      "hit": false,
      "t": 24444.464000000004,
      "d": 277.7779999999984,
      "v": 100
    },
    {
      "midi": 79,
      "hit": false,
      "t": 24444.464000000004,
      "d": 277.7779999999984,
      "v": 100
    },
    {
      "midi": 41,
      "hit": false,
      "t": 24479.186250000013,
      "d": 104.16675000000032,
      "v": 100
    },
    {
      "midi": 29,
      "hit": false,
      "t": 24583.353000000014,
      "d": 104.16675000000032,
      "v": 100
    },
    {
      "midi": 29,
      "hit": false,
      "t": 24583.353000000017,
      "d": 208.33350000000064,
      "v": 100
    },
    {
      "midi": 38,
      "hit": false,
      "t": 24583.35300000005,
      "d": 208.33350000000064,
      "v": 100
    },
    {
      "midi": 35,
      "hit": false,
      "t": 24583.35300000005,
      "d": 416.6670000000013,
      "v": 100
    },
    {
      "midi": 29,
      "hit": false,
      "t": 24687.519750000014,
      "d": 104.16675000000032,
      "v": 100
    },
    {
      "midi": 69,
      "hit": false,
      "t": 24722.242000000002,
      "d": 277.7779999999984,
      "v": 100
    },
    {
      "midi": 81,
      "hit": false,
      "t": 24722.242000000002,
      "d": 277.7779999999984,
      "v": 100
    },
    {
      "midi": 41,
      "hit": false,
      "t": 24791.686500000014,
      "d": 104.16675000000032,
      "v": 100
    },
    {
      "midi": 44,
      "hit": false,
      "t": 24791.68650000005,
      "d": 208.33350000000064,
      "v": 100
    },
    {
      "midi": 41,
      "hit": false,
      "t": 24895.853250000015,
      "d": 104.16675000000032,
      "v": 100
    },
    {
      "midi": 69,
      "hit": false,
      "t": 25000.02,
      "d": 625.0004999999983,
      "v": 100
    },
    {
      "midi": 81,
      "hit": false,
      "t": 25000.02,
      "d": 625.0004999999983,
      "v": 100
    },
    {
      "midi": 67,
      "hit": false,
      "t": 25000.020000000008,
      "d": 1666.6680000000015,
      "v": 100
    },
    {
      "midi": 62,
      "hit": false,
      "t": 25000.020000000008,
      "d": 1666.6680000000015,
      "v": 100
    },
    {
      "midi": 59,
      "hit": false,
      "t": 25000.020000000008,
      "d": 1666.6680000000015,
      "v": 100
    },
    {
      "midi": 31,
      "hit": false,
      "t": 25000.020000000015,
      "d": 104.16675000000032,
      "v": 100
    },
    {
      "midi": 31,
      "hit": false,
      "t": 25000.02000000002,
      "d": 208.33350000000064,
      "v": 100
    },
    {
      "midi": 35,
      "hit": false,
      "t": 25000.02000000005,
      "d": 416.6670000000013,
      "v": 100
    },
    {
      "midi": 31,
      "hit": false,
      "t": 25104.186750000015,
      "d": 104.16675000000032,
      "v": 100
    },
    {
      "midi": 43,
      "hit": false,
      "t": 25208.353500000016,
      "d": 104.16675000000032,
      "v": 100
    },
    {
      "midi": 44,
      "hit": false,
      "t": 25208.353500000052,
      "d": 208.33350000000064,
      "v": 100
    },
    {
      "midi": 43,
      "hit": false,
      "t": 25312.520250000016,
      "d": 104.16675000000032,
      "v": 100
    },
    {
      "midi": 31,
      "hit": false,
      "t": 25416.687000000016,
      "d": 104.16675000000032,
      "v": 100
    },
    {
      "midi": 31,
      "hit": false,
      "t": 25416.68700000002,
      "d": 208.33350000000064,
      "v": 100
    },
    {
      "midi": 38,
      "hit": false,
      "t": 25416.687000000053,
      "d": 208.33350000000064,
      "v": 100
    },
    {
      "midi": 35,
      "hit": false,
      "t": 25416.687000000053,
      "d": 416.6670000000013,
      "v": 100
    },
    {
      "midi": 31,
      "hit": false,
      "t": 25520.853750000017,
      "d": 104.16675000000032,
      "v": 100
    },
    {
      "midi": 67,
      "hit": false,
      "t": 25625.0205,
      "d": 208.33350000000064,
      "v": 100
    },
    {
      "midi": 79,
      "hit": false,
      "t": 25625.0205,
      "d": 208.33350000000064,
      "v": 100
    },
    {
      "midi": 43,
      "hit": false,
      "t": 25625.020500000017,
      "d": 104.16675000000032,
      "v": 100
    },
    {
      "midi": 44,
      "hit": false,
      "t": 25625.020500000053,
      "d": 208.33350000000064,
      "v": 100
    },
    {
      "midi": 43,
      "hit": false,
      "t": 25729.187250000017,
      "d": 104.16675000000032,
      "v": 100
    },
    {
      "midi": 67,
      "hit": false,
      "t": 25833.354,
      "d": 416.6670000000013,
      "v": 100
    },
    {
      "midi": 79,
      "hit": false,
      "t": 25833.354,
      "d": 416.6670000000013,
      "v": 100
    },
    {
      "midi": 31,
      "hit": false,
      "t": 25833.354000000018,
      "d": 104.16675000000032,
      "v": 100
    },
    {
      "midi": 31,
      "hit": false,
      "t": 25833.35400000002,
      "d": 208.33350000000064,
      "v": 100
    },
    {
      "midi": 35,
      "hit": false,
      "t": 25833.354000000054,
      "d": 416.6670000000013,
      "v": 100
    },
    {
      "midi": 31,
      "hit": false,
      "t": 25937.520750000018,
      "d": 104.16675000000032,
      "v": 100
    },
    {
      "midi": 43,
      "hit": false,
      "t": 26041.68750000002,
      "d": 104.16675000000032,
      "v": 100
    },
    {
      "midi": 44,
      "hit": false,
      "t": 26041.687500000055,
      "d": 208.33350000000064,
      "v": 100
    },
    {
      "midi": 43,
      "hit": false,
      "t": 26145.85425000002,
      "d": 104.16675000000032,
      "v": 100
    },
    {
      "midi": 31,
      "hit": false,
      "t": 26250.02100000002,
      "d": 104.16675000000032,
      "v": 100
    },
    {
      "midi": 31,
      "hit": false,
      "t": 26250.021000000022,
      "d": 208.33350000000064,
      "v": 100
    },
    {
      "midi": 38,
      "hit": false,
      "t": 26250.021000000055,
      "d": 208.33350000000064,
      "v": 100
    },
    {
      "midi": 35,
      "hit": false,
      "t": 26250.021000000055,
      "d": 416.6670000000013,
      "v": 100
    },
    {
      "midi": 31,
      "hit": false,
      "t": 26354.18775000002,
      "d": 104.16675000000032,
      "v": 100
    },
    {
      "midi": 43,
      "hit": false,
      "t": 26458.35450000002,
      "d": 104.16675000000032,
      "v": 100
    },
    {
      "midi": 44,
      "hit": false,
      "t": 26458.354500000056,
      "d": 208.33350000000064,
      "v": 100
    },
    {
      "midi": 43,
      "hit": false,
      "t": 26562.52125000002,
      "d": 104.16675000000032,
      "v": 100
    },
    {
      "midi": 58,
      "hit": false,
      "t": 26666.68800000001,
      "d": 1666.6680000000015,
      "v": 100
    },
    {
      "midi": 62,
      "hit": false,
      "t": 26666.68800000001,
      "d": 1666.6680000000015,
      "v": 100
    },
    {
      "midi": 65,
      "hit": false,
      "t": 26666.68800000001,
      "d": 1666.6680000000015,
      "v": 100
    },
    {
      "midi": 34,
      "hit": false,
      "t": 26666.68800000002,
      "d": 104.16675000000032,
      "v": 100
    },
    {
      "midi": 34,
      "hit": false,
      "t": 26666.688000000024,
      "d": 208.33350000000064,
      "v": 100
    },
    {
      "midi": 35,
      "hit": false,
      "t": 26666.688000000056,
      "d": 416.6670000000013,
      "v": 100
    },
    {
      "midi": 34,
      "hit": false,
      "t": 26770.85475000002,
      "d": 104.16675000000032,
      "v": 100
    },
    {
      "midi": 46,
      "hit": false,
      "t": 26875.02150000002,
      "d": 104.16675000000032,
      "v": 100
    },
    {
      "midi": 44,
      "hit": false,
      "t": 26875.021500000057,
      "d": 208.33350000000064,
      "v": 100
    },
    {
      "midi": 46,
      "hit": false,
      "t": 26979.18825000002,
      "d": 104.16675000000032,
      "v": 100
    },
    {
      "midi": 70,
      "hit": false,
      "t": 27083.355,
      "d": 416.6670000000013,
      "v": 100
    },
    {
      "midi": 82,
      "hit": false,
      "t": 27083.355,
      "d": 416.6670000000013,
      "v": 100
    },
    {
      "midi": 34,
      "hit": false,
      "t": 27083.35500000002,
      "d": 104.16675000000032,
      "v": 100
    },
    {
      "midi": 34,
      "hit": false,
      "t": 27083.355000000025,
      "d": 208.33350000000064,
      "v": 100
    },
    {
      "midi": 38,
      "hit": false,
      "t": 27083.355000000058,
      "d": 208.33350000000064,
      "v": 100
    },
    {
      "midi": 35,
      "hit": false,
      "t": 27083.355000000058,
      "d": 416.6670000000013,
      "v": 100
    },
    {
      "midi": 34,
      "hit": false,
      "t": 27187.52175000002,
      "d": 104.16675000000032,
      "v": 100
    },
    {
      "midi": 46,
      "hit": false,
      "t": 27291.688500000022,
      "d": 104.16675000000032,
      "v": 100
    },
    {
      "midi": 44,
      "hit": false,
      "t": 27291.68850000006,
      "d": 208.33350000000064,
      "v": 100
    },
    {
      "midi": 46,
      "hit": false,
      "t": 27395.855250000022,
      "d": 104.16675000000032,
      "v": 100
    },
    {
      "midi": 74,
      "hit": false,
      "t": 27500.022,
      "d": 416.6670000000013,
      "v": 100
    },
    {
      "midi": 86,
      "hit": false,
      "t": 27500.022,
      "d": 416.6670000000013,
      "v": 100
    },
    {
      "midi": 34,
      "hit": false,
      "t": 27500.022000000023,
      "d": 104.16675000000032,
      "v": 100
    },
    {
      "midi": 34,
      "hit": false,
      "t": 27500.022000000026,
      "d": 208.33350000000064,
      "v": 100
    },
    {
      "midi": 35,
      "hit": false,
      "t": 27500.02200000006,
      "d": 416.6670000000013,
      "v": 100
    },
    {
      "midi": 34,
      "hit": false,
      "t": 27604.188750000023,
      "d": 104.16675000000032,
      "v": 100
    },
    {
      "midi": 46,
      "hit": false,
      "t": 27708.355500000023,
      "d": 104.16675000000032,
      "v": 100
    },
    {
      "midi": 44,
      "hit": false,
      "t": 27708.35550000006,
      "d": 208.33350000000064,
      "v": 100
    },
    {
      "midi": 46,
      "hit": false,
      "t": 27812.522250000024,
      "d": 104.16675000000032,
      "v": 100
    },
    {
      "midi": 76,
      "hit": false,
      "t": 27916.689000000002,
      "d": 416.6670000000013,
      "v": 100
    },
    {
      "midi": 88,
      "hit": false,
      "t": 27916.689000000002,
      "d": 416.6670000000013,
      "v": 100
    },
    {
      "midi": 34,
      "hit": false,
      "t": 27916.689000000024,
      "d": 104.16675000000032,
      "v": 100
    },
    {
      "midi": 34,
      "hit": false,
      "t": 27916.689000000028,
      "d": 208.33350000000064,
      "v": 100
    },
    {
      "midi": 38,
      "hit": false,
      "t": 27916.68900000006,
      "d": 208.33350000000064,
      "v": 100
    },
    {
      "midi": 35,
      "hit": false,
      "t": 27916.68900000006,
      "d": 416.6670000000013,
      "v": 100
    },
    {
      "midi": 34,
      "hit": false,
      "t": 28020.855750000024,
      "d": 104.16675000000032,
      "v": 100
    },
    {
      "midi": 46,
      "hit": false,
      "t": 28125.022500000025,
      "d": 104.16675000000032,
      "v": 100
    },
    {
      "midi": 44,
      "hit": false,
      "t": 28125.02250000006,
      "d": 208.33350000000064,
      "v": 100
    },
    {
      "midi": 46,
      "hit": false,
      "t": 28229.189250000025,
      "d": 104.16675000000032,
      "v": 100
    },
    {
      "midi": 77,
      "hit": false,
      "t": 28333.356000000003,
      "d": 416.6670000000013,
      "v": 100
    },
    {
      "midi": 89,
      "hit": false,
      "t": 28333.356000000003,
      "d": 416.6670000000013,
      "v": 100
    },
    {
      "midi": 69,
      "hit": false,
      "t": 28333.35600000001,
      "d": 1666.6680000000015,
      "v": 100
    },
    {
      "midi": 60,
      "hit": false,
      "t": 28333.35600000001,
      "d": 1666.6680000000015,
      "v": 100
    },
    {
      "midi": 53,
      "hit": false,
      "t": 28333.35600000001,
      "d": 1666.6680000000015,
      "v": 100
    },
    {
      "midi": 29,
      "hit": false,
      "t": 28333.356000000025,
      "d": 104.16675000000032,
      "v": 100
    },
    {
      "midi": 29,
      "hit": false,
      "t": 28333.35600000003,
      "d": 208.33350000000064,
      "v": 100
    },
    {
      "midi": 35,
      "hit": false,
      "t": 28333.35600000006,
      "d": 416.6670000000013,
      "v": 100
    },
    {
      "midi": 29,
      "hit": false,
      "t": 28437.522750000026,
      "d": 104.16675000000032,
      "v": 100
    },
    {
      "midi": 41,
      "hit": false,
      "t": 28541.689500000026,
      "d": 104.16675000000032,
      "v": 100
    },
    {
      "midi": 44,
      "hit": false,
      "t": 28541.689500000062,
      "d": 208.33350000000064,
      "v": 100
    },
    {
      "midi": 41,
      "hit": false,
      "t": 28645.856250000026,
      "d": 104.16675000000032,
      "v": 100
    },
    {
      "midi": 72,
      "hit": false,
      "t": 28750.023000000005,
      "d": 208.33350000000064,
      "v": 100
    },
    {
      "midi": 84,
      "hit": false,
      "t": 28750.023000000005,
      "d": 208.33350000000064,
      "v": 100
    },
    {
      "midi": 29,
      "hit": false,
      "t": 28750.023000000027,
      "d": 104.16675000000032,
      "v": 100
    },
    {
      "midi": 29,
      "hit": false,
      "t": 28750.02300000003,
      "d": 208.33350000000064,
      "v": 100
    },
    {
      "midi": 38,
      "hit": false,
      "t": 28750.023000000063,
      "d": 208.33350000000064,
      "v": 100
    },
    {
      "midi": 35,
      "hit": false,
      "t": 28750.023000000063,
      "d": 416.6670000000013,
      "v": 100
    },
    {
      "midi": 29,
      "hit": false,
      "t": 28854.189750000027,
      "d": 104.16675000000032,
      "v": 100
    },
    {
      "midi": 72,
      "hit": false,
      "t": 28958.356500000005,
      "d": 416.6670000000013,
      "v": 100
    },
    {
      "midi": 84,
      "hit": false,
      "t": 28958.356500000005,
      "d": 416.6670000000013,
      "v": 100
    },
    {
      "midi": 41,
      "hit": false,
      "t": 28958.356500000027,
      "d": 104.16675000000032,
      "v": 100
    },
    {
      "midi": 44,
      "hit": false,
      "t": 28958.356500000064,
      "d": 208.33350000000064,
      "v": 100
    },
    {
      "midi": 41,
      "hit": false,
      "t": 29062.523250000027,
      "d": 104.16675000000032,
      "v": 100
    },
    {
      "midi": 29,
      "hit": false,
      "t": 29166.690000000028,
      "d": 104.16675000000032,
      "v": 100
    },
    {
      "midi": 29,
      "hit": false,
      "t": 29166.69000000003,
      "d": 208.33350000000064,
      "v": 100
    },
    {
      "midi": 35,
      "hit": false,
      "t": 29166.690000000064,
      "d": 416.6670000000013,
      "v": 100
    },
    {
      "midi": 29,
      "hit": false,
      "t": 29270.856750000028,
      "d": 104.16675000000032,
      "v": 100
    },
    {
      "midi": 41,
      "hit": false,
      "t": 29375.02350000003,
      "d": 104.16675000000032,
      "v": 100
    },
    {
      "midi": 44,
      "hit": false,
      "t": 29375.023500000065,
      "d": 208.33350000000064,
      "v": 100
    },
    {
      "midi": 41,
      "hit": false,
      "t": 29479.19025000003,
      "d": 104.16675000000032,
      "v": 100
    },
    {
      "midi": 29,
      "hit": false,
      "t": 29583.35700000003,
      "d": 104.16675000000032,
      "v": 100
    },
    {
      "midi": 29,
      "hit": false,
      "t": 29583.357000000033,
      "d": 208.33350000000064,
      "v": 100
    },
    {
      "midi": 38,
      "hit": false,
      "t": 29583.357000000065,
      "d": 208.33350000000064,
      "v": 100
    },
    {
      "midi": 35,
      "hit": false,
      "t": 29583.357000000065,
      "d": 416.6670000000013,
      "v": 100
    },
    {
      "midi": 29,
      "hit": false,
      "t": 29687.52375000003,
      "d": 104.16675000000032,
      "v": 100
    },
    {
      "midi": 72,
      "hit": false,
      "t": 29791.690500000008,
      "d": 208.33350000000064,
      "v": 100
    },
    {
      "midi": 84,
      "hit": false,
      "t": 29791.690500000008,
      "d": 208.33350000000064,
      "v": 100
    },
    {
      "midi": 41,
      "hit": false,
      "t": 29791.69050000003,
      "d": 104.16675000000032,
      "v": 100
    },
    {
      "midi": 44,
      "hit": false,
      "t": 29791.690500000066,
      "d": 208.33350000000064,
      "v": 100
    },
    {
      "midi": 41,
      "hit": false,
      "t": 29895.85725000003,
      "d": 104.16675000000032,
      "v": 100
    },
    {
      "midi": 74,
      "hit": false,
      "t": 30000.02400000001,
      "d": 416.6670000000013,
      "v": 100
    },
    {
      "midi": 86,
      "hit": false,
      "t": 30000.02400000001,
      "d": 416.6670000000013,
      "v": 100
    },
    {
      "midi": 70,
      "hit": false,
      "t": 30000.024000000012,
      "d": 1666.6680000000015,
      "v": 100
    },
    {
      "midi": 62,
      "hit": false,
      "t": 30000.024000000012,
      "d": 1666.6680000000015,
      "v": 100
    },
    {
      "midi": 55,
      "hit": false,
      "t": 30000.024000000012,
      "d": 1666.6680000000015,
      "v": 100
    },
    {
      "midi": 31,
      "hit": false,
      "t": 30000.02400000003,
      "d": 104.16675000000032,
      "v": 100
    },
    {
      "midi": 31,
      "hit": false,
      "t": 30000.024000000034,
      "d": 208.33350000000064,
      "v": 100
    },
    {
      "midi": 35,
      "hit": false,
      "t": 30000.024000000067,
      "d": 416.6670000000013,
      "v": 100
    },
    {
      "midi": 31,
      "hit": false,
      "t": 30104.19075000003,
      "d": 104.16675000000032,
      "v": 100
    },
    {
      "midi": 43,
      "hit": false,
      "t": 30208.35750000003,
      "d": 104.16675000000032,
      "v": 100
    },
    {
      "midi": 44,
      "hit": false,
      "t": 30208.357500000067,
      "d": 208.33350000000064,
      "v": 100
    },
    {
      "midi": 43,
      "hit": false,
      "t": 30312.52425000003,
      "d": 104.16675000000032,
      "v": 100
    },
    {
      "midi": 70,
      "hit": false,
      "t": 30416.69100000001,
      "d": 416.6670000000013,
      "v": 100
    },
    {
      "midi": 82,
      "hit": false,
      "t": 30416.69100000001,
      "d": 416.6670000000013,
      "v": 100
    },
    {
      "midi": 31,
      "hit": false,
      "t": 30416.69100000003,
      "d": 104.16675000000032,
      "v": 100
    },
    {
      "midi": 31,
      "hit": false,
      "t": 30416.691000000035,
      "d": 208.33350000000064,
      "v": 100
    },
    {
      "midi": 38,
      "hit": false,
      "t": 30416.691000000068,
      "d": 208.33350000000064,
      "v": 100
    },
    {
      "midi": 35,
      "hit": false,
      "t": 30416.691000000068,
      "d": 416.6670000000013,
      "v": 100
    },
    {
      "midi": 31,
      "hit": false,
      "t": 30520.857750000032,
      "d": 104.16675000000032,
      "v": 100
    },
    {
      "midi": 43,
      "hit": false,
      "t": 30625.024500000032,
      "d": 104.16675000000032,
      "v": 100
    },
    {
      "midi": 44,
      "hit": false,
      "t": 30625.02450000007,
      "d": 208.33350000000064,
      "v": 100
    },
    {
      "midi": 43,
      "hit": false,
      "t": 30729.191250000033,
      "d": 104.16675000000032,
      "v": 100
    },
    {
      "midi": 79,
      "hit": false,
      "t": 30833.35800000001,
      "d": 416.6670000000013,
      "v": 100
    },
    {
      "midi": 91,
      "hit": false,
      "t": 30833.35800000001,
      "d": 416.6670000000013,
      "v": 100
    },
    {
      "midi": 31,
      "hit": false,
      "t": 30833.358000000033,
      "d": 104.16675000000032,
      "v": 100
    },
    {
      "midi": 31,
      "hit": false,
      "t": 30833.358000000037,
      "d": 208.33350000000064,
      "v": 100
    },
    {
      "midi": 35,
      "hit": false,
      "t": 30833.35800000007,
      "d": 416.6670000000013,
      "v": 100
    },
    {
      "midi": 31,
      "hit": false,
      "t": 30937.524750000033,
      "d": 104.16675000000032,
      "v": 100
    },
    {
      "midi": 43,
      "hit": false,
      "t": 31041.691500000034,
      "d": 104.16675000000032,
      "v": 100
    },
    {
      "midi": 44,
      "hit": false,
      "t": 31041.69150000007,
      "d": 208.33350000000064,
      "v": 100
    },
    {
      "midi": 43,
      "hit": false,
      "t": 31145.858250000034,
      "d": 104.16675000000032,
      "v": 100
    },
    {
      "midi": 77,
      "hit": false,
      "t": 31250.025000000012,
      "d": 416.6670000000013,
      "v": 100
    },
    {
      "midi": 89,
      "hit": false,
      "t": 31250.025000000012,
      "d": 416.6670000000013,
      "v": 100
    },
    {
      "midi": 31,
      "hit": false,
      "t": 31250.025000000034,
      "d": 104.16675000000032,
      "v": 100
    },
    {
      "midi": 31,
      "hit": false,
      "t": 31250.025000000038,
      "d": 208.33350000000064,
      "v": 100
    },
    {
      "midi": 38,
      "hit": false,
      "t": 31250.02500000007,
      "d": 208.33350000000064,
      "v": 100
    },
    {
      "midi": 35,
      "hit": false,
      "t": 31250.02500000007,
      "d": 416.6670000000013,
      "v": 100
    },
    {
      "midi": 31,
      "hit": false,
      "t": 31354.191750000035,
      "d": 104.16675000000032,
      "v": 100
    },
    {
      "midi": 43,
      "hit": false,
      "t": 31458.358500000035,
      "d": 104.16675000000032,
      "v": 100
    },
    {
      "midi": 44,
      "hit": false,
      "t": 31458.35850000007,
      "d": 208.33350000000064,
      "v": 100
    },
    {
      "midi": 43,
      "hit": false,
      "t": 31562.525250000035,
      "d": 104.16675000000032,
      "v": 100
    },
    {
      "midi": 76,
      "hit": false,
      "t": 31666.692000000014,
      "d": 416.6670000000013,
      "v": 100
    },
    {
      "midi": 57,
      "hit": false,
      "t": 31666.692000000014,
      "d": 1666.6680000000015,
      "v": 100
    },
    {
      "midi": 69,
      "hit": false,
      "t": 31666.692000000014,
      "d": 1666.6680000000015,
      "v": 100
    },
    {
      "midi": 61,
      "hit": false,
      "t": 31666.692000000014,
      "d": 1666.6680000000015,
      "v": 100
    },
    {
      "midi": 88,
      "hit": false,
      "t": 31666.692000000014,
      "d": 416.6670000000013,
      "v": 100
    },
    {
      "midi": 33,
      "hit": false,
      "t": 31666.692000000035,
      "d": 104.16675000000032,
      "v": 100
    },
    {
      "midi": 33,
      "hit": false,
      "t": 31666.69200000004,
      "d": 208.33350000000064,
      "v": 100
    },
    {
      "midi": 35,
      "hit": false,
      "t": 31666.692000000072,
      "d": 416.6670000000013,
      "v": 100
    },
    {
      "midi": 33,
      "hit": false,
      "t": 31770.858750000036,
      "d": 104.16675000000032,
      "v": 100
    },
    {
      "midi": 45,
      "hit": false,
      "t": 31875.025500000036,
      "d": 104.16675000000032,
      "v": 100
    },
    {
      "midi": 44,
      "hit": false,
      "t": 31875.025500000072,
      "d": 208.33350000000064,
      "v": 100
    },
    {
      "midi": 45,
      "hit": false,
      "t": 31979.192250000036,
      "d": 104.16675000000032,
      "v": 100
    },
    {
      "midi": 77,
      "hit": false,
      "t": 32083.359000000015,
      "d": 208.33350000000064,
      "v": 100
    },
    {
      "midi": 89,
      "hit": false,
      "t": 32083.359000000015,
      "d": 208.33350000000064,
      "v": 100
    },
    {
      "midi": 33,
      "hit": false,
      "t": 32083.359000000037,
      "d": 104.16675000000032,
      "v": 100
    },
    {
      "midi": 33,
      "hit": false,
      "t": 32083.35900000004,
      "d": 208.33350000000064,
      "v": 100
    },
    {
      "midi": 38,
      "hit": false,
      "t": 32083.359000000073,
      "d": 208.33350000000064,
      "v": 100
    },
    {
      "midi": 35,
      "hit": false,
      "t": 32083.359000000073,
      "d": 416.6670000000013,
      "v": 100
    },
    {
      "midi": 33,
      "hit": false,
      "t": 32187.525750000037,
      "d": 104.16675000000032,
      "v": 100
    },
    {
      "midi": 79,
      "hit": false,
      "t": 32291.692500000016,
      "d": 625.0004999999983,
      "v": 100
    },
    {
      "midi": 91,
      "hit": false,
      "t": 32291.692500000016,
      "d": 625.0004999999983,
      "v": 100
    },
    {
      "midi": 45,
      "hit": false,
      "t": 32291.692500000037,
      "d": 104.16675000000032,
      "v": 100
    },
    {
      "midi": 44,
      "hit": false,
      "t": 32291.692500000074,
      "d": 208.33350000000064,
      "v": 100
    },
    {
      "midi": 45,
      "hit": false,
      "t": 32395.859250000038,
      "d": 104.16675000000032,
      "v": 100
    },
    {
      "midi": 33,
      "hit": false,
      "t": 32500.026000000038,
      "d": 104.16675000000032,
      "v": 100
    },
    {
      "midi": 33,
      "hit": false,
      "t": 32500.02600000004,
      "d": 208.33350000000064,
      "v": 100
    },
    {
      "midi": 38,
      "hit": false,
      "t": 32500.026000000074,
      "d": 104.16675000000032,
      "v": 100
    },
    {
      "midi": 35,
      "hit": false,
      "t": 32500.026000000074,
      "d": 416.66699999999764,
      "v": 100
    },
    {
      "midi": 33,
      "hit": false,
      "t": 32604.19275000004,
      "d": 104.16675000000032,
      "v": 100
    },
    {
      "midi": 38,
      "hit": false,
      "t": 32604.192750000075,
      "d": 104.16675000000032,
      "v": 100
    },
    {
      "midi": 45,
      "hit": false,
      "t": 32708.35950000004,
      "d": 104.16675000000032,
      "v": 100
    },
    {
      "midi": 38,
      "hit": false,
      "t": 32708.359500000075,
      "d": 104.16675000000032,
      "v": 100
    },
    {
      "midi": 44,
      "hit": false,
      "t": 32708.359500000075,
      "d": 208.333499999997,
      "v": 100
    },
    {
      "midi": 45,
      "hit": false,
      "t": 32812.52625000004,
      "d": 104.16674999999668,
      "v": 100
    },
    {
      "midi": 38,
      "hit": false,
      "t": 32812.526250000075,
      "d": 104.16674999999668,
      "v": 100
    },
    {
      "midi": 33,
      "hit": false,
      "t": 32916.693000000036,
      "d": 104.16674999999668,
      "v": 100
    },
    {
      "midi": 33,
      "hit": false,
      "t": 32916.69300000004,
      "d": 208.33350000000064,
      "v": 100
    },
    {
      "midi": 38,
      "hit": false,
      "t": 32916.69300000007,
      "d": 104.16674999999668,
      "v": 100
    },
    {
      "midi": 35,
      "hit": false,
      "t": 32916.69300000007,
      "d": 416.66699999998673,
      "v": 100
    },
    {
      "midi": 33,
      "hit": false,
      "t": 33020.85975000003,
      "d": 104.16674999999668,
      "v": 100
    },
    {
      "midi": 38,
      "hit": false,
      "t": 33020.85975000007,
      "d": 104.16674999999668,
      "v": 100
    },
    {
      "midi": 77,
      "hit": false,
      "t": 33125.026500000014,
      "d": 104.16674999999668,
      "v": 100
    },
    {
      "midi": 89,
      "hit": false,
      "t": 33125.026500000014,
      "d": 104.16674999999668,
      "v": 100
    },
    {
      "midi": 45,
      "hit": false,
      "t": 33125.02650000003,
      "d": 104.16674999999668,
      "v": 100
    },
    {
      "midi": 38,
      "hit": false,
      "t": 33125.026500000065,
      "d": 104.16674999999668,
      "v": 100
    },
    {
      "midi": 44,
      "hit": false,
      "t": 33125.026500000065,
      "d": 208.33349999999336,
      "v": 100
    },
    {
      "midi": 79,
      "hit": false,
      "t": 33229.19325000001,
      "d": 104.16674999999668,
      "v": 100
    },
    {
      "midi": 91,
      "hit": false,
      "t": 33229.19325000001,
      "d": 104.16674999999668,
      "v": 100
    },
    {
      "midi": 45,
      "hit": false,
      "t": 33229.193250000026,
      "d": 104.16674999999668,
      "v": 100
    },
    {
      "midi": 38,
      "hit": false,
      "t": 33229.19325000006,
      "d": 104.16674999999668,
      "v": 100
    },
    {
      "midi": 81,
      "hit": false,
      "t": 33333.36000000001,
      "d": 416.6670000000013,
      "v": 100
    },
    {
      "midi": 62,
      "hit": false,
      "t": 33333.36000000001,
      "d": 1666.6679999999978,
      "v": 100
    },
    {
      "midi": 93,
      "hit": false,
      "t": 33333.36000000001,
      "d": 416.6670000000013,
      "v": 100
    },
    {
      "midi": 65,
      "hit": false,
      "t": 33333.360000000015,
      "d": 1666.6679999999978,
      "v": 100
    },
    {
      "midi": 58,
      "hit": false,
      "t": 33333.360000000015,
      "d": 1666.6679999999978,
      "v": 100
    },
    {
      "midi": 74,
      "hit": false,
      "t": 33333.360000000015,
      "d": 1666.6679999999978,
      "v": 100
    },
    {
      "midi": 34,
      "hit": false,
      "t": 33333.36000000002,
      "d": 104.16674999999668,
      "v": 100
    },
    {
      "midi": 34,
      "hit": false,
      "t": 33333.360000000044,
      "d": 208.33350000000064,
      "v": 100
    },
    {
      "midi": 35,
      "hit": false,
      "t": 33333.36000000006,
      "d": 416.6670000000013,
      "v": 100
    },
    {
      "midi": 49,
      "hit": false,
      "t": 33333.36000000006,
      "d": 416.6670000000013,
      "v": 100
    },
    {
      "midi": 34,
      "hit": false,
      "t": 33437.52675000002,
      "d": 104.16674999999668,
      "v": 100
    },
    {
      "midi": 46,
      "hit": false,
      "t": 33541.693500000016,
      "d": 104.16674999999668,
      "v": 100
    },
    {
      "midi": 44,
      "hit": false,
      "t": 33541.69350000006,
      "d": 208.33350000000064,
      "v": 100
    },
    {
      "midi": 46,
      "hit": false,
      "t": 33645.86025000001,
      "d": 104.16674999999668,
      "v": 100
    },
    {
      "midi": 79,
      "hit": false,
      "t": 33750.02700000001,
      "d": 416.6670000000013,
      "v": 100
    },
    {
      "midi": 34,
      "hit": false,
      "t": 33750.02700000001,
      "d": 104.16674999999668,
      "v": 100
    },
    {
      "midi": 91,
      "hit": false,
      "t": 33750.02700000001,
      "d": 416.6670000000013,
      "v": 100
    },
    {
      "midi": 34,
      "hit": false,
      "t": 33750.027000000046,
      "d": 208.33350000000064,
      "v": 100
    },
    {
      "midi": 38,
      "hit": false,
      "t": 33750.02700000006,
      "d": 208.33350000000064,
      "v": 100
    },
    {
      "midi": 35,
      "hit": false,
      "t": 33750.02700000006,
      "d": 416.6670000000013,
      "v": 100
    },
    {
      "midi": 34,
      "hit": false,
      "t": 33854.193750000006,
      "d": 104.16674999999668,
      "v": 100
    },
    {
      "midi": 46,
      "hit": false,
      "t": 33958.3605,
      "d": 104.16674999999668,
      "v": 100
    },
    {
      "midi": 44,
      "hit": false,
      "t": 33958.36050000006,
      "d": 208.33350000000064,
      "v": 100
    },
    {
      "midi": 46,
      "hit": false,
      "t": 34062.52725,
      "d": 104.16674999999668,
      "v": 100
    },
    {
      "midi": 34,
      "hit": false,
      "t": 34166.693999999996,
      "d": 104.16674999999668,
      "v": 100
    },
    {
      "midi": 74,
      "hit": false,
      "t": 34166.69400000001,
      "d": 416.6670000000013,
      "v": 100
    },
    {
      "midi": 86,
      "hit": false,
      "t": 34166.69400000001,
      "d": 416.6670000000013,
      "v": 100
    },
    {
      "midi": 34,
      "hit": false,
      "t": 34166.69400000005,
      "d": 208.33350000000064,
      "v": 100
    },
    {
      "midi": 35,
      "hit": false,
      "t": 34166.69400000006,
      "d": 416.6670000000013,
      "v": 100
    },
    {
      "midi": 34,
      "hit": false,
      "t": 34270.86074999999,
      "d": 104.16674999999668,
      "v": 100
    },
    {
      "midi": 46,
      "hit": false,
      "t": 34375.02749999999,
      "d": 104.16674999999668,
      "v": 100
    },
    {
      "midi": 44,
      "hit": false,
      "t": 34375.02750000006,
      "d": 208.33350000000064,
      "v": 100
    },
    {
      "midi": 46,
      "hit": false,
      "t": 34479.194249999986,
      "d": 104.16674999999668,
      "v": 100
    },
    {
      "midi": 34,
      "hit": false,
      "t": 34583.36099999998,
      "d": 104.16674999999668,
      "v": 100
    },
    {
      "midi": 79,
      "hit": false,
      "t": 34583.36100000001,
      "d": 416.6670000000013,
      "v": 100
    },
    {
      "midi": 91,
      "hit": false,
      "t": 34583.36100000001,
      "d": 416.6670000000013,
      "v": 100
    },
    {
      "midi": 34,
      "hit": false,
      "t": 34583.36100000005,
      "d": 208.33350000000064,
      "v": 100
    },
    {
      "midi": 38,
      "hit": false,
      "t": 34583.36100000006,
      "d": 208.33350000000064,
      "v": 100
    },
    {
      "midi": 35,
      "hit": false,
      "t": 34583.36100000006,
      "d": 416.6670000000013,
      "v": 100
    },
    {
      "midi": 34,
      "hit": false,
      "t": 34687.52774999998,
      "d": 104.16674999999668,
      "v": 100
    },
    {
      "midi": 46,
      "hit": false,
      "t": 34791.694499999976,
      "d": 104.16674999999668,
      "v": 100
    },
    {
      "midi": 44,
      "hit": false,
      "t": 34791.69450000006,
      "d": 208.33350000000064,
      "v": 100
    },
    {
      "midi": 46,
      "hit": false,
      "t": 34895.86124999997,
      "d": 104.16674999999668,
      "v": 100
    },
    {
      "midi": 36,
      "hit": false,
      "t": 35000.02799999997,
      "d": 104.16674999999668,
      "v": 100
    },
    {
      "midi": 64,
      "hit": false,
      "t": 35000.028000000006,
      "d": 1666.6679999999978,
      "v": 100
    },
    {
      "midi": 81,
      "hit": false,
      "t": 35000.02800000001,
      "d": 208.33350000000064,
      "v": 100
    },
    {
      "midi": 76,
      "hit": false,
      "t": 35000.02800000001,
      "d": 1666.6679999999978,
      "v": 100
    },
    {
      "midi": 67,
      "hit": false,
      "t": 35000.02800000001,
      "d": 1666.6679999999978,
      "v": 100
    },
    {
      "midi": 60,
      "hit": false,
      "t": 35000.02800000001,
      "d": 1666.6679999999978,
      "v": 100
    },
    {
      "midi": 93,
      "hit": false,
      "t": 35000.02800000001,
      "d": 208.33350000000064,
      "v": 100
    },
    {
      "midi": 36,
      "hit": false,
      "t": 35000.02800000005,
      "d": 208.33350000000064,
      "v": 100
    },
    {
      "midi": 35,
      "hit": false,
      "t": 35000.028000000064,
      "d": 416.6670000000013,
      "v": 100
    },
    {
      "midi": 36,
      "hit": false,
      "t": 35104.194749999966,
      "d": 104.16674999999668,
      "v": 100
    },
    {
      "midi": 48,
      "hit": false,
      "t": 35208.36149999996,
      "d": 104.16674999999668,
      "v": 100
    },
    {
      "midi": 79,
      "hit": false,
      "t": 35208.36150000001,
      "d": 416.6670000000013,
      "v": 100
    },
    {
      "midi": 91,
      "hit": false,
      "t": 35208.36150000001,
      "d": 416.6670000000013,
      "v": 100
    },
    {
      "midi": 44,
      "hit": false,
      "t": 35208.361500000065,
      "d": 208.33350000000064,
      "v": 100
    },
    {
      "midi": 48,
      "hit": false,
      "t": 35312.52824999996,
      "d": 104.16674999999668,
      "v": 100
    },
    {
      "midi": 36,
      "hit": false,
      "t": 35416.694999999956,
      "d": 104.16674999999668,
      "v": 100
    },
    {
      "midi": 36,
      "hit": false,
      "t": 35416.69500000005,
      "d": 208.33350000000064,
      "v": 100
    },
    {
      "midi": 38,
      "hit": false,
      "t": 35416.695000000065,
      "d": 208.33350000000064,
      "v": 100
    },
    {
      "midi": 35,
      "hit": false,
      "t": 35416.695000000065,
      "d": 416.6670000000013,
      "v": 100
    },
    {
      "midi": 36,
      "hit": false,
      "t": 35520.86174999995,
      "d": 104.16674999999668,
      "v": 100
    },
    {
      "midi": 48,
      "hit": false,
      "t": 35625.02849999995,
      "d": 104.16674999999668,
      "v": 100
    },
    {
      "midi": 74,
      "hit": false,
      "t": 35625.028500000015,
      "d": 416.6670000000013,
      "v": 100
    },
    {
      "midi": 86,
      "hit": false,
      "t": 35625.028500000015,
      "d": 416.6670000000013,
      "v": 100
    },
    {
      "midi": 44,
      "hit": false,
      "t": 35625.028500000066,
      "d": 208.33350000000064,
      "v": 100
    },
    {
      "midi": 48,
      "hit": false,
      "t": 35729.195249999946,
      "d": 104.16674999999668,
      "v": 100
    },
    {
      "midi": 36,
      "hit": false,
      "t": 35833.36199999994,
      "d": 104.16674999999668,
      "v": 100
    },
    {
      "midi": 36,
      "hit": false,
      "t": 35833.36200000005,
      "d": 208.33350000000064,
      "v": 100
    },
    {
      "midi": 35,
      "hit": false,
      "t": 35833.36200000007,
      "d": 416.6670000000013,
      "v": 100
    },
    {
      "midi": 36,
      "hit": false,
      "t": 35937.52874999994,
      "d": 104.16674999999668,
      "v": 100
    },
    {
      "midi": 48,
      "hit": false,
      "t": 36041.695499999936,
      "d": 104.16674999999668,
      "v": 100
    },
    {
      "midi": 74,
      "hit": false,
      "t": 36041.695500000016,
      "d": 208.33350000000064,
      "v": 100
    },
    {
      "midi": 86,
      "hit": false,
      "t": 36041.695500000016,
      "d": 208.33350000000064,
      "v": 100
    },
    {
      "midi": 44,
      "hit": false,
      "t": 36041.69550000007,
      "d": 208.33350000000064,
      "v": 100
    },
    {
      "midi": 48,
      "hit": false,
      "t": 36145.86224999993,
      "d": 104.16674999999668,
      "v": 100
    },
    {
      "midi": 36,
      "hit": false,
      "t": 36250.02899999993,
      "d": 104.16674999999668,
      "v": 100
    },
    {
      "midi": 76,
      "hit": false,
      "t": 36250.02900000002,
      "d": 208.33350000000064,
      "v": 100
    },
    {
      "midi": 88,
      "hit": false,
      "t": 36250.02900000002,
      "d": 208.33350000000064,
      "v": 100
    },
    {
      "midi": 36,
      "hit": false,
      "t": 36250.02900000005,
      "d": 208.33350000000064,
      "v": 100
    },
    {
      "midi": 38,
      "hit": false,
      "t": 36250.02900000007,
      "d": 208.33350000000064,
      "v": 100
    },
    {
      "midi": 35,
      "hit": false,
      "t": 36250.02900000007,
      "d": 416.6670000000013,
      "v": 100
    },
    {
      "midi": 36,
      "hit": false,
      "t": 36354.195749999926,
      "d": 104.16674999999668,
      "v": 100
    },
    {
      "midi": 48,
      "hit": false,
      "t": 36458.36249999992,
      "d": 104.16674999999668,
      "v": 100
    },
    {
      "midi": 77,
      "hit": false,
      "t": 36458.36250000002,
      "d": 208.33350000000064,
      "v": 100
    },
    {
      "midi": 89,
      "hit": false,
      "t": 36458.36250000002,
      "d": 208.33350000000064,
      "v": 100
    },
    {
      "midi": 44,
      "hit": false,
      "t": 36458.36250000007,
      "d": 208.33350000000064,
      "v": 100
    },
    {
      "midi": 48,
      "hit": false,
      "t": 36562.52924999992,
      "d": 104.16674999999668,
      "v": 100
    },
    {
      "midi": 33,
      "hit": false,
      "t": 36666.695999999916,
      "d": 104.16674999999668,
      "v": 100
    },
    {
      "midi": 60,
      "hit": false,
      "t": 36666.696,
      "d": 1666.6679999999978,
      "v": 100
    },
    {
      "midi": 57,
      "hit": false,
      "t": 36666.69600000001,
      "d": 1666.6679999999978,
      "v": 100
    },
    {
      "midi": 64,
      "hit": false,
      "t": 36666.69600000001,
      "d": 1666.6679999999978,
      "v": 100
    },
    {
      "midi": 72,
      "hit": false,
      "t": 36666.69600000001,
      "d": 1666.6679999999978,
      "v": 100
    },
    {
      "midi": 79,
      "hit": false,
      "t": 36666.69600000002,
      "d": 416.6670000000013,
      "v": 100
    },
    {
      "midi": 91,
      "hit": false,
      "t": 36666.69600000002,
      "d": 416.6670000000013,
      "v": 100
    },
    {
      "midi": 33,
      "hit": false,
      "t": 36666.696000000054,
      "d": 208.33350000000064,
      "v": 100
    },
    {
      "midi": 35,
      "hit": false,
      "t": 36666.69600000007,
      "d": 416.6670000000013,
      "v": 100
    },
    {
      "midi": 33,
      "hit": false,
      "t": 36770.86274999991,
      "d": 104.16674999999668,
      "v": 100
    },
    {
      "midi": 45,
      "hit": false,
      "t": 36875.02949999991,
      "d": 104.16674999999668,
      "v": 100
    },
    {
      "midi": 44,
      "hit": false,
      "t": 36875.02950000007,
      "d": 208.33350000000064,
      "v": 100
    },
    {
      "midi": 45,
      "hit": false,
      "t": 36979.196249999906,
      "d": 104.16674999999668,
      "v": 100
    },
    {
      "midi": 33,
      "hit": false,
      "t": 37083.3629999999,
      "d": 104.16674999999668,
      "v": 100
    },
    {
      "midi": 77,
      "hit": false,
      "t": 37083.36300000002,
      "d": 416.6670000000013,
      "v": 100
    },
    {
      "midi": 89,
      "hit": false,
      "t": 37083.36300000002,
      "d": 416.6670000000013,
      "v": 100
    },
    {
      "midi": 33,
      "hit": false,
      "t": 37083.363000000056,
      "d": 208.33350000000064,
      "v": 100
    },
    {
      "midi": 38,
      "hit": false,
      "t": 37083.36300000007,
      "d": 208.33350000000064,
      "v": 100
    },
    {
      "midi": 35,
      "hit": false,
      "t": 37083.36300000007,
      "d": 416.6670000000013,
      "v": 100
    },
    {
      "midi": 33,
      "hit": false,
      "t": 37187.5297499999,
      "d": 104.16674999999668,
      "v": 100
    },
    {
      "midi": 45,
      "hit": false,
      "t": 37291.696499999896,
      "d": 104.16674999999668,
      "v": 100
    },
    {
      "midi": 44,
      "hit": false,
      "t": 37291.69650000007,
      "d": 208.33350000000064,
      "v": 100
    },
    {
      "midi": 45,
      "hit": false,
      "t": 37395.86324999989,
      "d": 104.16674999999668,
      "v": 100
    },
    {
      "midi": 33,
      "hit": false,
      "t": 37500.02999999989,
      "d": 104.16674999999668,
      "v": 100
    },
    {
      "midi": 79,
      "hit": false,
      "t": 37500.03000000002,
      "d": 416.6670000000013,
      "v": 100
    },
    {
      "midi": 91,
      "hit": false,
      "t": 37500.03000000002,
      "d": 416.6670000000013,
      "v": 100
    },
    {
      "midi": 33,
      "hit": false,
      "t": 37500.03000000006,
      "d": 208.33350000000064,
      "v": 100
    },
    {
      "midi": 35,
      "hit": false,
      "t": 37500.03000000007,
      "d": 416.6670000000013,
      "v": 100
    },
    {
      "midi": 33,
      "hit": false,
      "t": 37604.19674999989,
      "d": 104.16674999999668,
      "v": 100
    },
    {
      "midi": 45,
      "hit": false,
      "t": 37708.36349999988,
      "d": 104.16674999999668,
      "v": 100
    },
    {
      "midi": 44,
      "hit": false,
      "t": 37708.36350000007,
      "d": 208.33350000000064,
      "v": 100
    },
    {
      "midi": 45,
      "hit": false,
      "t": 37812.53024999988,
      "d": 104.16674999999668,
      "v": 100
    },
    {
      "midi": 33,
      "hit": false,
      "t": 37916.69699999988,
      "d": 104.16674999999668,
      "v": 100
    },
    {
      "midi": 82,
      "hit": false,
      "t": 37916.69700000002,
      "d": 416.6670000000013,
      "v": 100
    },
    {
      "midi": 94,
      "hit": false,
      "t": 37916.69700000002,
      "d": 416.6670000000013,
      "v": 100
    },
    {
      "midi": 33,
      "hit": false,
      "t": 37916.69700000006,
      "d": 208.33350000000064,
      "v": 100
    },
    {
      "midi": 38,
      "hit": false,
      "t": 37916.69700000007,
      "d": 208.33350000000064,
      "v": 100
    },
    {
      "midi": 35,
      "hit": false,
      "t": 37916.69700000007,
      "d": 416.6670000000013,
      "v": 100
    },
    {
      "midi": 33,
      "hit": false,
      "t": 38020.86374999987,
      "d": 104.16674999999668,
      "v": 100
    },
    {
      "midi": 45,
      "hit": false,
      "t": 38125.03049999987,
      "d": 104.16674999999668,
      "v": 100
    },
    {
      "midi": 44,
      "hit": false,
      "t": 38125.03050000007,
      "d": 208.33350000000064,
      "v": 100
    },
    {
      "midi": 45,
      "hit": false,
      "t": 38229.19724999987,
      "d": 104.16674999999668,
      "v": 100
    },
    {
      "midi": 38,
      "hit": false,
      "t": 38333.36399999986,
      "d": 104.16674999999668,
      "v": 100
    },
    {
      "midi": 62,
      "hit": false,
      "t": 38333.364,
      "d": 1666.6679999999978,
      "v": 100
    },
    {
      "midi": 69,
      "hit": false,
      "t": 38333.36400000001,
      "d": 1666.6679999999978,
      "v": 100
    },
    {
      "midi": 62,
      "hit": false,
      "t": 38333.36400000001,
      "d": 1666.6679999999978,
      "v": 100
    },
    {
      "midi": 77,
      "hit": false,
      "t": 38333.36400000001,
      "d": 1666.6679999999978,
      "v": 100
    },
    {
      "midi": 79,
      "hit": false,
      "t": 38333.36400000002,
      "d": 208.33350000000064,
      "v": 100
    },
    {
      "midi": 91,
      "hit": false,
      "t": 38333.36400000002,
      "d": 208.33350000000064,
      "v": 100
    },
    {
      "midi": 38,
      "hit": false,
      "t": 38333.36400000006,
      "d": 208.33350000000064,
      "v": 100
    },
    {
      "midi": 35,
      "hit": false,
      "t": 38333.364000000074,
      "d": 416.6670000000013,
      "v": 100
    },
    {
      "midi": 38,
      "hit": false,
      "t": 38437.53074999986,
      "d": 104.16674999999668,
      "v": 100
    },
    {
      "midi": 50,
      "hit": false,
      "t": 38541.69749999986,
      "d": 104.16674999999668,
      "v": 100
    },
    {
      "midi": 77,
      "hit": false,
      "t": 38541.697500000024,
      "d": 208.33350000000064,
      "v": 100
    },
    {
      "midi": 89,
      "hit": false,
      "t": 38541.697500000024,
      "d": 208.33350000000064,
      "v": 100
    },
    {
      "midi": 44,
      "hit": false,
      "t": 38541.697500000075,
      "d": 208.33350000000064,
      "v": 100
    },
    {
      "midi": 50,
      "hit": false,
      "t": 38645.86424999985,
      "d": 104.16674999999668,
      "v": 100
    },
    {
      "midi": 38,
      "hit": false,
      "t": 38750.03099999985,
      "d": 104.16674999999668,
      "v": 100
    },
    {
      "midi": 76,
      "hit": false,
      "t": 38750.031000000025,
      "d": 208.33350000000064,
      "v": 100
    },
    {
      "midi": 88,
      "hit": false,
      "t": 38750.031000000025,
      "d": 208.33350000000064,
      "v": 100
    },
    {
      "midi": 38,
      "hit": false,
      "t": 38750.03100000006,
      "d": 208.33350000000064,
      "v": 100
    },
    {
      "midi": 38,
      "hit": false,
      "t": 38750.031000000075,
      "d": 208.33350000000064,
      "v": 100
    },
    {
      "midi": 35,
      "hit": false,
      "t": 38750.031000000075,
      "d": 416.6670000000013,
      "v": 100
    },
    {
      "midi": 38,
      "hit": false,
      "t": 38854.19774999985,
      "d": 104.16674999999668,
      "v": 100
    },
    {
      "midi": 50,
      "hit": false,
      "t": 38958.36449999984,
      "d": 104.16674999999668,
      "v": 100
    },
    {
      "midi": 77,
      "hit": false,
      "t": 38958.364500000025,
      "d": 416.6670000000013,
      "v": 100
    },
    {
      "midi": 89,
      "hit": false,
      "t": 38958.364500000025,
      "d": 416.6670000000013,
      "v": 100
    },
    {
      "midi": 44,
      "hit": false,
      "t": 38958.364500000076,
      "d": 208.33350000000064,
      "v": 100
    },
    {
      "midi": 50,
      "hit": false,
      "t": 39062.53124999984,
      "d": 104.16674999999668,
      "v": 100
    },
    {
      "midi": 38,
      "hit": false,
      "t": 39166.69799999984,
      "d": 104.16674999999668,
      "v": 100
    },
    {
      "midi": 38,
      "hit": false,
      "t": 39166.69800000006,
      "d": 208.33350000000064,
      "v": 100
    },
    {
      "midi": 35,
      "hit": false,
      "t": 39166.69800000008,
      "d": 416.6670000000013,
      "v": 100
    },
    {
      "midi": 38,
      "hit": false,
      "t": 39270.86474999983,
      "d": 104.16674999999668,
      "v": 100
    },
    {
      "midi": 50,
      "hit": false,
      "t": 39375.03149999983,
      "d": 104.16674999999668,
      "v": 100
    },
    {
      "midi": 74,
      "hit": false,
      "t": 39375.03150000003,
      "d": 208.33350000000064,
      "v": 100
    },
    {
      "midi": 86,
      "hit": false,
      "t": 39375.03150000003,
      "d": 208.33350000000064,
      "v": 100
    },
    {
      "midi": 44,
      "hit": false,
      "t": 39375.03150000008,
      "d": 208.33350000000064,
      "v": 100
    },
    {
      "midi": 50,
      "hit": false,
      "t": 39479.19824999983,
      "d": 104.16674999999668,
      "v": 100
    },
    {
      "midi": 38,
      "hit": false,
      "t": 39583.36499999982,
      "d": 104.16674999999668,
      "v": 100
    },
    {
      "midi": 74,
      "hit": false,
      "t": 39583.36500000003,
      "d": 208.33350000000064,
      "v": 100
    },
    {
      "midi": 86,
      "hit": false,
      "t": 39583.36500000003,
      "d": 208.33350000000064,
      "v": 100
    },
    {
      "midi": 38,
      "hit": false,
      "t": 39583.36500000006,
      "d": 208.33350000000064,
      "v": 100
    },
    {
      "midi": 38,
      "hit": false,
      "t": 39583.36500000008,
      "d": 208.33350000000064,
      "v": 100
    },
    {
      "midi": 35,
      "hit": false,
      "t": 39583.36500000008,
      "d": 416.6670000000013,
      "v": 100
    },
    {
      "midi": 38,
      "hit": false,
      "t": 39687.53174999982,
      "d": 104.16674999999668,
      "v": 100
    },
    {
      "midi": 50,
      "hit": false,
      "t": 39791.69849999982,
      "d": 104.16674999999668,
      "v": 100
    },
    {
      "midi": 76,
      "hit": false,
      "t": 39791.69850000003,
      "d": 208.33350000000064,
      "v": 100
    },
    {
      "midi": 88,
      "hit": false,
      "t": 39791.69850000003,
      "d": 208.33350000000064,
      "v": 100
    },
    {
      "midi": 44,
      "hit": false,
      "t": 39791.69850000008,
      "d": 208.33350000000064,
      "v": 100
    },
    {
      "midi": 50,
      "hit": false,
      "t": 39895.86524999981,
      "d": 104.16674999999668,
      "v": 100
    },
    {
      "midi": 31,
      "hit": false,
      "t": 40000.03199999981,
      "d": 104.16674999999668,
      "v": 100
    },
    {
      "midi": 62,
      "hit": false,
      "t": 40000.032,
      "d": 1666.6679999999978,
      "v": 100
    },
    {
      "midi": 55,
      "hit": false,
      "t": 40000.03200000001,
      "d": 1666.6679999999978,
      "v": 100
    },
    {
      "midi": 62,
      "hit": false,
      "t": 40000.03200000001,
      "d": 1666.6679999999978,
      "v": 100
    },
    {
      "midi": 70,
      "hit": false,
      "t": 40000.03200000001,
      "d": 1666.6679999999978,
      "v": 100
    },
    {
      "midi": 77,
      "hit": false,
      "t": 40000.03200000003,
      "d": 416.6670000000013,
      "v": 100
    },
    {
      "midi": 89,
      "hit": false,
      "t": 40000.03200000003,
      "d": 416.6670000000013,
      "v": 100
    },
    {
      "midi": 31,
      "hit": false,
      "t": 40000.032000000065,
      "d": 208.33350000000064,
      "v": 100
    },
    {
      "midi": 35,
      "hit": false,
      "t": 40000.03200000008,
      "d": 416.6670000000013,
      "v": 100
    },
    {
      "midi": 31,
      "hit": false,
      "t": 40104.19874999981,
      "d": 104.16674999999668,
      "v": 100
    },
    {
      "midi": 43,
      "hit": false,
      "t": 40208.3654999998,
      "d": 104.16674999999668,
      "v": 100
    },
    {
      "midi": 44,
      "hit": false,
      "t": 40208.36550000008,
      "d": 208.33350000000064,
      "v": 100
    },
    {
      "midi": 43,
      "hit": false,
      "t": 40312.5322499998,
      "d": 104.16674999999668,
      "v": 100
    },
    {
      "midi": 31,
      "hit": false,
      "t": 40416.6989999998,
      "d": 104.16674999999668,
      "v": 100
    },
    {
      "midi": 31,
      "hit": false,
      "t": 40416.699000000066,
      "d": 208.33350000000064,
      "v": 100
    },
    {
      "midi": 38,
      "hit": false,
      "t": 40416.69900000008,
      "d": 208.33350000000064,
      "v": 100
    },
    {
      "midi": 35,
      "hit": false,
      "t": 40416.69900000008,
      "d": 416.6670000000013,
      "v": 100
    },
    {
      "midi": 31,
      "hit": false,
      "t": 40520.86574999979,
      "d": 104.16674999999668,
      "v": 100
    },
    {
      "midi": 43,
      "hit": false,
      "t": 40625.03249999979,
      "d": 104.16674999999668,
      "v": 100
    },
    {
      "midi": 44,
      "hit": false,
      "t": 40625.03250000008,
      "d": 208.33350000000064,
      "v": 100
    },
    {
      "midi": 43,
      "hit": false,
      "t": 40729.19924999979,
      "d": 104.16674999999668,
      "v": 100
    },
    {
      "midi": 31,
      "hit": false,
      "t": 40833.36599999978,
      "d": 104.16674999999668,
      "v": 100
    },
    {
      "midi": 74,
      "hit": false,
      "t": 40833.36600000003,
      "d": 416.6670000000013,
      "v": 100
    },
    {
      "midi": 86,
      "hit": false,
      "t": 40833.36600000003,
      "d": 416.6670000000013,
      "v": 100
    },
    {
      "midi": 31,
      "hit": false,
      "t": 40833.36600000007,
      "d": 208.33350000000064,
      "v": 100
    },
    {
      "midi": 35,
      "hit": false,
      "t": 40833.36600000008,
      "d": 416.6670000000013,
      "v": 100
    },
    {
      "midi": 31,
      "hit": false,
      "t": 40937.53274999978,
      "d": 104.16674999999668,
      "v": 100
    },
    {
      "midi": 43,
      "hit": false,
      "t": 41041.69949999978,
      "d": 104.16674999999668,
      "v": 100
    },
    {
      "midi": 44,
      "hit": false,
      "t": 41041.69950000008,
      "d": 208.33350000000064,
      "v": 100
    },
    {
      "midi": 43,
      "hit": false,
      "t": 41145.86624999977,
      "d": 104.16674999999668,
      "v": 100
    },
    {
      "midi": 31,
      "hit": false,
      "t": 41250.03299999977,
      "d": 104.16674999999668,
      "v": 100
    },
    {
      "midi": 77,
      "hit": false,
      "t": 41250.03300000003,
      "d": 416.6670000000013,
      "v": 100
    },
    {
      "midi": 89,
      "hit": false,
      "t": 41250.03300000003,
      "d": 416.6670000000013,
      "v": 100
    },
    {
      "midi": 31,
      "hit": false,
      "t": 41250.03300000007,
      "d": 208.33350000000064,
      "v": 100
    },
    {
      "midi": 38,
      "hit": false,
      "t": 41250.03300000008,
      "d": 208.33350000000064,
      "v": 100
    },
    {
      "midi": 35,
      "hit": false,
      "t": 41250.03300000008,
      "d": 416.6670000000013,
      "v": 100
    },
    {
      "midi": 31,
      "hit": false,
      "t": 41354.19974999977,
      "d": 104.16674999999668,
      "v": 100
    },
    {
      "midi": 43,
      "hit": false,
      "t": 41458.36649999976,
      "d": 104.16674999999668,
      "v": 100
    },
    {
      "midi": 44,
      "hit": false,
      "t": 41458.366500000084,
      "d": 208.33350000000064,
      "v": 100
    },
    {
      "midi": 43,
      "hit": false,
      "t": 41562.53324999976,
      "d": 104.16674999999668,
      "v": 100
    },
    {
      "midi": 33,
      "hit": false,
      "t": 41666.69999999976,
      "d": 104.16674999999668,
      "v": 100
    },
    {
      "midi": 64,
      "hit": false,
      "t": 41666.7,
      "d": 1666.6679999999978,
      "v": 100
    },
    {
      "midi": 72,
      "hit": false,
      "t": 41666.700000000004,
      "d": 1666.6680000000051,
      "v": 100
    },
    {
      "midi": 64,
      "hit": false,
      "t": 41666.700000000004,
      "d": 1666.6680000000051,
      "v": 100
    },
    {
      "midi": 57,
      "hit": false,
      "t": 41666.700000000004,
      "d": 1666.6680000000051,
      "v": 100
    },
    {
      "midi": 79,
      "hit": false,
      "t": 41666.70000000003,
      "d": 416.6670000000013,
      "v": 100
    },
    {
      "midi": 91,
      "hit": false,
      "t": 41666.70000000003,
      "d": 416.6670000000013,
      "v": 100
    },
    {
      "midi": 33,
      "hit": false,
      "t": 41666.70000000007,
      "d": 208.33350000000064,
      "v": 100
    },
    {
      "midi": 35,
      "hit": false,
      "t": 41666.700000000084,
      "d": 416.6670000000013,
      "v": 100
    },
    {
      "midi": 33,
      "hit": false,
      "t": 41770.866749999754,
      "d": 104.16674999999668,
      "v": 100
    },
    {
      "midi": 45,
      "hit": false,
      "t": 41875.03349999975,
      "d": 104.16674999999668,
      "v": 100
    },
    {
      "midi": 44,
      "hit": false,
      "t": 41875.033500000085,
      "d": 208.33350000000064,
      "v": 100
    },
    {
      "midi": 45,
      "hit": false,
      "t": 41979.20024999975,
      "d": 104.16674999999668,
      "v": 100
    },
    {
      "midi": 33,
      "hit": false,
      "t": 42083.366999999744,
      "d": 104.16674999999668,
      "v": 100
    },
    {
      "midi": 77,
      "hit": false,
      "t": 42083.367000000035,
      "d": 208.33350000000064,
      "v": 100
    },
    {
      "midi": 89,
      "hit": false,
      "t": 42083.367000000035,
      "d": 208.33350000000064,
      "v": 100
    },
    {
      "midi": 33,
      "hit": false,
      "t": 42083.36700000007,
      "d": 208.33350000000064,
      "v": 100
    },
    {
      "midi": 38,
      "hit": false,
      "t": 42083.367000000086,
      "d": 208.33350000000064,
      "v": 100
    },
    {
      "midi": 35,
      "hit": false,
      "t": 42083.367000000086,
      "d": 416.6670000000013,
      "v": 100
    },
    {
      "midi": 33,
      "hit": false,
      "t": 42187.53374999974,
      "d": 104.16674999999668,
      "v": 100
    },
    {
      "midi": 45,
      "hit": false,
      "t": 42291.70049999974,
      "d": 104.16674999999668,
      "v": 100
    },
    {
      "midi": 76,
      "hit": false,
      "t": 42291.700500000035,
      "d": 416.6670000000013,
      "v": 100
    },
    {
      "midi": 88,
      "hit": false,
      "t": 42291.700500000035,
      "d": 416.6670000000013,
      "v": 100
    },
    {
      "midi": 44,
      "hit": false,
      "t": 42291.700500000086,
      "d": 208.33350000000064,
      "v": 100
    },
    {
      "midi": 45,
      "hit": false,
      "t": 42395.867249999734,
      "d": 104.16674999999668,
      "v": 100
    },
    {
      "midi": 33,
      "hit": false,
      "t": 42500.03399999973,
      "d": 104.16674999999668,
      "v": 100
    },
    {
      "midi": 33,
      "hit": false,
      "t": 42500.03400000007,
      "d": 208.33350000000064,
      "v": 100
    },
    {
      "midi": 35,
      "hit": false,
      "t": 42500.03400000009,
      "d": 416.6670000000013,
      "v": 100
    },
    {
      "midi": 33,
      "hit": false,
      "t": 42604.20074999973,
      "d": 104.16674999999668,
      "v": 100
    },
    {
      "midi": 45,
      "hit": false,
      "t": 42708.367499999724,
      "d": 104.16674999999668,
      "v": 100
    },
    {
      "midi": 76,
      "hit": false,
      "t": 42708.36750000001,
      "d": 208.33350000000064,
      "v": 100
    },
    {
      "midi": 76,
      "hit": false,
      "t": 42708.36750000004,
      "d": 208.33350000000064,
      "v": 100
    },
    {
      "midi": 88,
      "hit": false,
      "t": 42708.36750000004,
      "d": 208.33350000000064,
      "v": 100
    },
    {
      "midi": 44,
      "hit": false,
      "t": 42708.36750000009,
      "d": 208.33350000000064,
      "v": 100
    },
    {
      "midi": 45,
      "hit": false,
      "t": 42812.53424999972,
      "d": 104.16674999999668,
      "v": 100
    },
    {
      "midi": 33,
      "hit": false,
      "t": 42916.70099999972,
      "d": 104.16674999999668,
      "v": 100
    },
    {
      "midi": 77,
      "hit": false,
      "t": 42916.70100000001,
      "d": 208.33350000000064,
      "v": 100
    },
    {
      "midi": 77,
      "hit": false,
      "t": 42916.70100000004,
      "d": 208.33350000000064,
      "v": 100
    },
    {
      "midi": 89,
      "hit": false,
      "t": 42916.70100000004,
      "d": 208.33350000000064,
      "v": 100
    },
    {
      "midi": 33,
      "hit": false,
      "t": 42916.701000000074,
      "d": 208.33350000000064,
      "v": 100
    },
    {
      "midi": 38,
      "hit": false,
      "t": 42916.70100000009,
      "d": 208.33350000000064,
      "v": 100
    },
    {
      "midi": 35,
      "hit": false,
      "t": 42916.70100000009,
      "d": 416.6670000000013,
      "v": 100
    },
    {
      "midi": 33,
      "hit": false,
      "t": 43020.867749999714,
      "d": 104.16674999999668,
      "v": 100
    },
    {
      "midi": 45,
      "hit": false,
      "t": 43125.03449999971,
      "d": 104.16674999999668,
      "v": 100
    },
    {
      "midi": 79,
      "hit": false,
      "t": 43125.03450000001,
      "d": 208.33350000000064,
      "v": 100
    },
    {
      "midi": 79,
      "hit": false,
      "t": 43125.03450000004,
      "d": 208.33350000000064,
      "v": 100
    },
    {
      "midi": 91,
      "hit": false,
      "t": 43125.03450000004,
      "d": 208.33350000000064,
      "v": 100
    },
    {
      "midi": 44,
      "hit": false,
      "t": 43125.03450000009,
      "d": 208.33350000000064,
      "v": 100
    },
    {
      "midi": 45,
      "hit": false,
      "t": 43229.20124999971,
      "d": 104.16674999999668,
      "v": 100
    },
    {
      "midi": 34,
      "hit": false,
      "t": 43333.367999999704,
      "d": 104.16674999999668,
      "v": 100
    },
    {
      "midi": 65,
      "hit": false,
      "t": 43333.367999999995,
      "d": 1666.6679999999978,
      "v": 100
    },
    {
      "midi": 80,
      "hit": false,
      "t": 43333.36800000001,
      "d": 416.6670000000013,
      "v": 100
    },
    {
      "midi": 58,
      "hit": false,
      "t": 43333.36800000001,
      "d": 1666.6680000000051,
      "v": 100
    },
    {
      "midi": 65,
      "hit": false,
      "t": 43333.36800000001,
      "d": 1666.6680000000051,
      "v": 100
    },
    {
      "midi": 73,
      "hit": false,
      "t": 43333.36800000001,
      "d": 1666.6680000000051,
      "v": 100
    },
    {
      "midi": 80,
      "hit": false,
      "t": 43333.36800000004,
      "d": 416.6670000000013,
      "v": 100
    },
    {
      "midi": 92,
      "hit": false,
      "t": 43333.36800000004,
      "d": 416.6670000000013,
      "v": 100
    },
    {
      "midi": 34,
      "hit": false,
      "t": 43333.368000000075,
      "d": 208.33350000000064,
      "v": 100
    },
    {
      "midi": 35,
      "hit": false,
      "t": 43333.36800000009,
      "d": 416.6670000000013,
      "v": 100
    },
    {
      "midi": 34,
      "hit": false,
      "t": 43437.5347499997,
      "d": 104.16674999999668,
      "v": 100
    },
    {
      "midi": 46,
      "hit": false,
      "t": 43541.7014999997,
      "d": 104.16674999999668,
      "v": 100
    },
    {
      "midi": 44,
      "hit": false,
      "t": 43541.70150000009,
      "d": 208.33350000000064,
      "v": 100
    },
    {
      "midi": 46,
      "hit": false,
      "t": 43645.868249999694,
      "d": 104.16674999999668,
      "v": 100
    },
    {
      "midi": 34,
      "hit": false,
      "t": 43750.03499999969,
      "d": 104.16674999999668,
      "v": 100
    },
    {
      "midi": 77,
      "hit": false,
      "t": 43750.03500000001,
      "d": 416.6670000000013,
      "v": 100
    },
    {
      "midi": 77,
      "hit": false,
      "t": 43750.03500000004,
      "d": 416.6670000000013,
      "v": 100
    },
    {
      "midi": 89,
      "hit": false,
      "t": 43750.03500000004,
      "d": 416.6670000000013,
      "v": 100
    },
    {
      "midi": 34,
      "hit": false,
      "t": 43750.035000000076,
      "d": 208.33350000000064,
      "v": 100
    },
    {
      "midi": 38,
      "hit": false,
      "t": 43750.03500000009,
      "d": 208.33350000000064,
      "v": 100
    },
    {
      "midi": 35,
      "hit": false,
      "t": 43750.03500000009,
      "d": 416.6670000000013,
      "v": 100
    },
    {
      "midi": 34,
      "hit": false,
      "t": 43854.20174999969,
      "d": 104.16674999999668,
      "v": 100
    },
    {
      "midi": 46,
      "hit": false,
      "t": 43958.368499999684,
      "d": 104.16674999999668,
      "v": 100
    },
    {
      "midi": 44,
      "hit": false,
      "t": 43958.36850000009,
      "d": 208.33350000000064,
      "v": 100
    },
    {
      "midi": 46,
      "hit": false,
      "t": 44062.53524999968,
      "d": 104.16674999999668,
      "v": 100
    },
    {
      "midi": 34,
      "hit": false,
      "t": 44166.70199999968,
      "d": 104.16674999999668,
      "v": 100
    },
    {
      "midi": 79,
      "hit": false,
      "t": 44166.70200000001,
      "d": 416.6670000000013,
      "v": 100
    },
    {
      "midi": 79,
      "hit": false,
      "t": 44166.70200000004,
      "d": 416.6670000000013,
      "v": 100
    },
    {
      "midi": 91,
      "hit": false,
      "t": 44166.70200000004,
      "d": 416.6670000000013,
      "v": 100
    },
    {
      "midi": 34,
      "hit": false,
      "t": 44166.70200000008,
      "d": 208.33350000000064,
      "v": 100
    },
    {
      "midi": 35,
      "hit": false,
      "t": 44166.70200000009,
      "d": 416.6670000000013,
      "v": 100
    },
    {
      "midi": 34,
      "hit": false,
      "t": 44270.868749999674,
      "d": 104.16674999999668,
      "v": 100
    },
    {
      "midi": 46,
      "hit": false,
      "t": 44375.03549999967,
      "d": 104.16674999999668,
      "v": 100
    },
    {
      "midi": 44,
      "hit": false,
      "t": 44375.03550000009,
      "d": 208.33350000000064,
      "v": 100
    },
    {
      "midi": 46,
      "hit": false,
      "t": 44479.20224999967,
      "d": 104.16674999999668,
      "v": 100
    },
    {
      "midi": 34,
      "hit": false,
      "t": 44583.368999999664,
      "d": 104.16674999999668,
      "v": 100
    },
    {
      "midi": 80,
      "hit": false,
      "t": 44583.36900000001,
      "d": 416.6670000000013,
      "v": 100
    },
    {
      "midi": 80,
      "hit": false,
      "t": 44583.36900000004,
      "d": 416.6670000000013,
      "v": 100
    },
    {
      "midi": 92,
      "hit": false,
      "t": 44583.36900000004,
      "d": 416.6670000000013,
      "v": 100
    },
    {
      "midi": 34,
      "hit": false,
      "t": 44583.36900000008,
      "d": 208.33350000000064,
      "v": 100
    },
    {
      "midi": 38,
      "hit": false,
      "t": 44583.36900000009,
      "d": 208.33350000000064,
      "v": 100
    },
    {
      "midi": 35,
      "hit": false,
      "t": 44583.36900000009,
      "d": 416.6670000000013,
      "v": 100
    },
    {
      "midi": 34,
      "hit": false,
      "t": 44687.53574999966,
      "d": 104.16674999999668,
      "v": 100
    },
    {
      "midi": 46,
      "hit": false,
      "t": 44791.70249999966,
      "d": 104.16674999999668,
      "v": 100
    },
    {
      "midi": 44,
      "hit": false,
      "t": 44791.702500000094,
      "d": 208.33350000000064,
      "v": 100
    },
    {
      "midi": 46,
      "hit": false,
      "t": 44895.869249999654,
      "d": 104.16674999999668,
      "v": 100
    },
    {
      "midi": 36,
      "hit": false,
      "t": 45000.03599999965,
      "d": 104.16674999999668,
      "v": 100
    },
    {
      "midi": 67,
      "hit": false,
      "t": 45000.03599999999,
      "d": 1666.6679999999978,
      "v": 100
    },
    {
      "midi": 60,
      "hit": false,
      "t": 45000.036000000015,
      "d": 1666.6679999999978,
      "v": 100
    },
    {
      "midi": 79,
      "hit": false,
      "t": 45000.036000000015,
      "d": 1666.6679999999978,
      "v": 100
    },
    {
      "midi": 67,
      "hit": false,
      "t": 45000.036000000015,
      "d": 1666.6679999999978,
      "v": 100
    },
    {
      "midi": 76,
      "hit": false,
      "t": 45000.036000000015,
      "d": 1666.6679999999978,
      "v": 100
    },
    {
      "midi": 79,
      "hit": false,
      "t": 45000.036000000044,
      "d": 1666.6679999999978,
      "v": 100
    },
    {
      "midi": 91,
      "hit": false,
      "t": 45000.036000000044,
      "d": 1666.6679999999978,
      "v": 100
    },
    {
      "midi": 36,
      "hit": false,
      "t": 45000.03600000008,
      "d": 208.33350000000064,
      "v": 100
    },
    {
      "midi": 35,
      "hit": false,
      "t": 45000.036000000095,
      "d": 416.6670000000013,
      "v": 100
    },
    {
      "midi": 36,
      "hit": false,
      "t": 45104.20274999965,
      "d": 104.16674999999668,
      "v": 100
    },
    {
      "midi": 48,
      "hit": false,
      "t": 45208.369499999644,
      "d": 104.16674999999668,
      "v": 100
    },
    {
      "midi": 44,
      "hit": false,
      "t": 45208.369500000095,
      "d": 208.33350000000064,
      "v": 100
    },
    {
      "midi": 48,
      "hit": false,
      "t": 45312.53624999964,
      "d": 104.16674999999668,
      "v": 100
    },
    {
      "midi": 36,
      "hit": false,
      "t": 45416.70299999964,
      "d": 104.16674999999668,
      "v": 100
    },
    {
      "midi": 36,
      "hit": false,
      "t": 45416.70300000008,
      "d": 208.33350000000064,
      "v": 100
    },
    {
      "midi": 38,
      "hit": false,
      "t": 45416.703000000096,
      "d": 208.33350000000064,
      "v": 100
    },
    {
      "midi": 35,
      "hit": false,
      "t": 45416.703000000096,
      "d": 416.6670000000013,
      "v": 100
    },
    {
      "midi": 36,
      "hit": false,
      "t": 45520.869749999634,
      "d": 104.16674999999668,
      "v": 100
    },
    {
      "midi": 48,
      "hit": false,
      "t": 45625.03649999963,
      "d": 104.16674999999668,
      "v": 100
    },
    {
      "midi": 44,
      "hit": false,
      "t": 45625.0365000001,
      "d": 208.33350000000064,
      "v": 100
    },
    {
      "midi": 48,
      "hit": false,
      "t": 45729.20324999963,
      "d": 104.16674999999668,
      "v": 100
    },
    {
      "midi": 36,
      "hit": false,
      "t": 45833.369999999624,
      "d": 104.16674999999668,
      "v": 100
    },
    {
      "midi": 36,
      "hit": false,
      "t": 45833.37000000008,
      "d": 208.33350000000064,
      "v": 100
    },
    {
      "midi": 35,
      "hit": false,
      "t": 45833.3700000001,
      "d": 416.6670000000013,
      "v": 100
    },
    {
      "midi": 36,
      "hit": false,
      "t": 45937.53674999962,
      "d": 104.16674999999668,
      "v": 100
    },
    {
      "midi": 48,
      "hit": false,
      "t": 46041.70349999962,
      "d": 104.16674999999668,
      "v": 100
    },
    {
      "midi": 44,
      "hit": false,
      "t": 46041.7035000001,
      "d": 208.33350000000064,
      "v": 100
    },
    {
      "midi": 48,
      "hit": false,
      "t": 46145.870249999614,
      "d": 104.16674999999668,
      "v": 100
    },
    {
      "midi": 36,
      "hit": false,
      "t": 46250.03699999961,
      "d": 104.16674999999668,
      "v": 100
    },
    {
      "midi": 36,
      "hit": false,
      "t": 46250.037000000084,
      "d": 208.33350000000064,
      "v": 100
    },
    {
      "midi": 38,
      "hit": false,
      "t": 46250.0370000001,
      "d": 208.33350000000064,
      "v": 100
    },
    {
      "midi": 35,
      "hit": false,
      "t": 46250.0370000001,
      "d": 416.6670000000013,
      "v": 100
    },
    {
      "midi": 36,
      "hit": false,
      "t": 46354.20374999961,
      "d": 104.16674999999668,
      "v": 100
    },
    {
      "midi": 48,
      "hit": false,
      "t": 46458.370499999604,
      "d": 104.16674999999668,
      "v": 100
    },
    {
      "midi": 44,
      "hit": false,
      "t": 46458.3705000001,
      "d": 208.33350000000064,
      "v": 100
    },
    {
      "midi": 48,
      "hit": false,
      "t": 46562.5372499996,
      "d": 104.16674999999668,
      "v": 100
    },
    {
      "midi": 55,
      "hit": false,
      "t": 46666.704000000005,
      "d": 208.33350000000064,
      "v": 100
    },
    {
      "midi": 48,
      "hit": false,
      "t": 46666.704000000005,
      "d": 208.33350000000064,
      "v": 100
    },
    {
      "midi": 64,
      "hit": false,
      "t": 46666.704000000005,
      "d": 208.33350000000064,
      "v": 100
    },
    {
      "midi": 72,
      "hit": false,
      "t": 46666.704000000005,
      "d": 104.16674999999668,
      "v": 100
    },
    {
      "midi": 60,
      "hit": false,
      "t": 46666.704000000005,
      "d": 104.16674999999668,
      "v": 100
    },
    {
      "midi": 79,
      "hit": false,
      "t": 46666.70400000001,
      "d": 208.33350000000064,
      "v": 100
    },
    {
      "midi": 60,
      "hit": false,
      "t": 46666.70400000001,
      "d": 208.33350000000064,
      "v": 100
    },
    {
      "midi": 67,
      "hit": false,
      "t": 46666.70400000001,
      "d": 208.33350000000064,
      "v": 100
    },
    {
      "midi": 76,
      "hit": false,
      "t": 46666.70400000001,
      "d": 208.33350000000064,
      "v": 100
    },
    {
      "midi": 36,
      "hit": false,
      "t": 46666.704000000085,
      "d": 208.33350000000064,
      "v": 100
    },
    {
      "midi": 38,
      "hit": false,
      "t": 46666.7040000001,
      "d": 208.33350000000064,
      "v": 100
    },
    {
      "midi": 46,
      "hit": false,
      "t": 46666.7040000001,
      "d": 208.33350000000064,
      "v": 100
    },
    {
      "midi": 35,
      "hit": false,
      "t": 46666.7040000001,
      "d": 416.6670000000013,
      "v": 100
    },
    {
      "midi": 44,
      "hit": false,
      "t": 46875.0375000001,
      "d": 208.33350000000064,
      "v": 100
    },
    {
      "midi": 72,
      "hit": false,
      "t": 47083.371,
      "d": 104.16674999999668,
      "v": 100
    },
    {
      "midi": 60,
      "hit": false,
      "t": 47083.371,
      "d": 104.16674999999668,
      "v": 100
    },
    {
      "midi": 64,
      "hit": false,
      "t": 47083.37100000001,
      "d": 208.33350000000064,
      "v": 100
    },
    {
      "midi": 55,
      "hit": false,
      "t": 47083.37100000001,
      "d": 208.33350000000064,
      "v": 100
    },
    {
      "midi": 48,
      "hit": false,
      "t": 47083.37100000001,
      "d": 208.33350000000064,
      "v": 100
    },
    {
      "midi": 60,
      "hit": false,
      "t": 47083.371000000014,
      "d": 208.33350000000064,
      "v": 100
    },
    {
      "midi": 79,
      "hit": false,
      "t": 47083.371000000014,
      "d": 208.33350000000064,
      "v": 100
    },
    {
      "midi": 76,
      "hit": false,
      "t": 47083.371000000014,
      "d": 208.33350000000064,
      "v": 100
    },
    {
      "midi": 67,
      "hit": false,
      "t": 47083.371000000014,
      "d": 208.33350000000064,
      "v": 100
    },
    {
      "midi": 36,
      "hit": false,
      "t": 47083.37100000009,
      "d": 208.33350000000064,
      "v": 100
    },
    {
      "midi": 38,
      "hit": false,
      "t": 47083.3710000001,
      "d": 208.33350000000064,
      "v": 100
    },
    {
      "midi": 35,
      "hit": false,
      "t": 47083.3710000001,
      "d": 416.6670000000013,
      "v": 100
    },
    {
      "midi": 49,
      "hit": false,
      "t": 47083.3710000001,
      "d": 416.6670000000013,
      "v": 100
    },
    {
      "midi": 76,
      "hit": false,
      "t": 47291.70450000004,
      "d": 208.33350000000064,
      "v": 100
    },
    {
      "midi": 86,
      "hit": false,
      "t": 47291.70450000004,
      "d": 208.33350000000064,
      "v": 100
    },
    {
      "midi": 77,
      "hit": false,
      "t": 47500.038000000044,
      "d": 208.33350000000064,
      "v": 100
    },
    {
      "midi": 89,
      "hit": false,
      "t": 47500.038000000044,
      "d": 208.33350000000064,
      "v": 100
    },
    {
      "midi": 35,
      "hit": false,
      "t": 47500.0380000001,
      "d": 416.6670000000013,
      "v": 100
    },
    {
      "midi": 76,
      "hit": false,
      "t": 47708.371500000045,
      "d": 208.33350000000064,
      "v": 100
    },
    {
      "midi": 88,
      "hit": false,
      "t": 47708.371500000045,
      "d": 208.33350000000064,
      "v": 100
    },
    {
      "midi": 36,
      "hit": false,
      "t": 47916.704999999594,
      "d": 104.16674999999668,
      "v": 100
    },
    {
      "midi": 77,
      "hit": false,
      "t": 47916.705000000045,
      "d": 208.33350000000064,
      "v": 100
    },
    {
      "midi": 89,
      "hit": false,
      "t": 47916.705000000045,
      "d": 208.33350000000064,
      "v": 100
    },
    {
      "midi": 36,
      "hit": false,
      "t": 47916.70500000009,
      "d": 416.6670000000013,
      "v": 100
    },
    {
      "midi": 38,
      "hit": false,
      "t": 47916.7050000001,
      "d": 104.16674999999668,
      "v": 100
    },
    {
      "midi": 35,
      "hit": false,
      "t": 47916.7050000001,
      "d": 416.66699999998673,
      "v": 100
    },
    {
      "midi": 36,
      "hit": false,
      "t": 48020.87174999959,
      "d": 104.16674999999668,
      "v": 100
    },
    {
      "midi": 38,
      "hit": false,
      "t": 48020.8717500001,
      "d": 104.16674999999668,
      "v": 100
    },
    {
      "midi": 48,
      "hit": false,
      "t": 48125.03849999959,
      "d": 104.16674999999668,
      "v": 100
    },
    {
      "midi": 79,
      "hit": false,
      "t": 48125.038500000046,
      "d": 208.33350000000064,
      "v": 100
    },
    {
      "midi": 91,
      "hit": false,
      "t": 48125.038500000046,
      "d": 208.33350000000064,
      "v": 100
    },
    {
      "midi": 38,
      "hit": false,
      "t": 48125.0385000001,
      "d": 104.16674999999668,
      "v": 100
    },
    {
      "midi": 48,
      "hit": false,
      "t": 48229.205249999584,
      "d": 104.16674999999668,
      "v": 100
    },
    {
      "midi": 38,
      "hit": false,
      "t": 48229.205250000094,
      "d": 104.16674999999668,
      "v": 100
    },
    {
      "midi": 38,
      "hit": false,
      "t": 48333.37199999958,
      "d": 104.16674999999668,
      "v": 100
    },
    {
      "midi": 62,
      "hit": false,
      "t": 48333.37199999999,
      "d": 1666.6679999999978,
      "v": 100
    },
    {
      "midi": 69,
      "hit": false,
      "t": 48333.37199999999,
      "d": 1666.6679999999978,
      "v": 100
    },
    {
      "midi": 62,
      "hit": false,
      "t": 48333.37200000002,
      "d": 1666.6679999999978,
      "v": 100
    },
    {
      "midi": 69,
      "hit": false,
      "t": 48333.37200000002,
      "d": 1666.6679999999978,
      "v": 100
    },
    {
      "midi": 77,
      "hit": false,
      "t": 48333.37200000002,
      "d": 1666.6679999999978,
      "v": 100
    },
    {
      "midi": 81,
      "hit": false,
      "t": 48333.37200000005,
      "d": 416.6670000000013,
      "v": 100
    },
    {
      "midi": 93,
      "hit": false,
      "t": 48333.37200000005,
      "d": 416.6670000000013,
      "v": 100
    },
    {
      "midi": 35,
      "hit": false,
      "t": 48333.37200000009,
      "d": 416.6670000000013,
      "v": 100
    },
    {
      "midi": 49,
      "hit": false,
      "t": 48333.37200000009,
      "d": 416.6670000000013,
      "v": 100
    },
    {
      "midi": 38,
      "hit": false,
      "t": 48333.37200000009,
      "d": 208.33350000000064,
      "v": 100
    },
    {
      "midi": 38,
      "hit": false,
      "t": 48437.53874999958,
      "d": 104.16674999999668,
      "v": 100
    },
    {
      "midi": 50,
      "hit": false,
      "t": 48541.705499999574,
      "d": 104.16674999999668,
      "v": 100
    },
    {
      "midi": 44,
      "hit": false,
      "t": 48541.70550000009,
      "d": 208.33350000000064,
      "v": 100
    },
    {
      "midi": 62,
      "hit": false,
      "t": 48645.87224999957,
      "d": 104.16674999999668,
      "v": 100
    },
    {
      "midi": 38,
      "hit": false,
      "t": 48750.03899999957,
      "d": 104.16674999999668,
      "v": 100
    },
    {
      "midi": 38,
      "hit": false,
      "t": 48750.03900000009,
      "d": 208.33350000000064,
      "v": 100
    },
    {
      "midi": 35,
      "hit": false,
      "t": 48750.03900000009,
      "d": 416.6670000000013,
      "v": 100
    },
    {
      "midi": 38,
      "hit": false,
      "t": 48750.03900000009,
      "d": 208.33350000000064,
      "v": 100
    },
    {
      "midi": 38,
      "hit": false,
      "t": 48854.205749999564,
      "d": 104.16674999999668,
      "v": 100
    },
    {
      "midi": 50,
      "hit": false,
      "t": 48958.37249999956,
      "d": 104.16674999999668,
      "v": 100
    },
    {
      "midi": 44,
      "hit": false,
      "t": 48958.37250000009,
      "d": 208.33350000000064,
      "v": 100
    },
    {
      "midi": 50,
      "hit": false,
      "t": 49062.53924999956,
      "d": 104.16674999999668,
      "v": 100
    },
    {
      "midi": 38,
      "hit": false,
      "t": 49166.705999999554,
      "d": 104.16674999999668,
      "v": 100
    },
    {
      "midi": 77,
      "hit": false,
      "t": 49166.70600000005,
      "d": 416.6670000000013,
      "v": 100
    },
    {
      "midi": 89,
      "hit": false,
      "t": 49166.70600000005,
      "d": 416.6670000000013,
      "v": 100
    },
    {
      "midi": 35,
      "hit": false,
      "t": 49166.70600000009,
      "d": 416.6670000000013,
      "v": 100
    },
    {
      "midi": 38,
      "hit": false,
      "t": 49166.70600000009,
      "d": 208.33350000000064,
      "v": 100
    },
    {
      "midi": 41,
      "hit": false,
      "t": 49270.87274999955,
      "d": 104.16674999999668,
      "v": 100
    },
    {
      "midi": 45,
      "hit": false,
      "t": 49375.03949999955,
      "d": 104.16674999999668,
      "v": 100
    },
    {
      "midi": 44,
      "hit": false,
      "t": 49375.03950000009,
      "d": 208.33350000000064,
      "v": 100
    },
    {
      "midi": 50,
      "hit": false,
      "t": 49479.206249999545,
      "d": 104.16674999999668,
      "v": 100
    },
    {
      "midi": 38,
      "hit": false,
      "t": 49583.37299999954,
      "d": 104.16674999999668,
      "v": 100
    },
    {
      "midi": 81,
      "hit": false,
      "t": 49583.37300000005,
      "d": 416.6670000000013,
      "v": 100
    },
    {
      "midi": 93,
      "hit": false,
      "t": 49583.37300000005,
      "d": 416.6670000000013,
      "v": 100
    },
    {
      "midi": 38,
      "hit": false,
      "t": 49583.373000000094,
      "d": 208.33350000000064,
      "v": 100
    },
    {
      "midi": 35,
      "hit": false,
      "t": 49583.373000000094,
      "d": 416.6670000000013,
      "v": 100
    },
    {
      "midi": 38,
      "hit": false,
      "t": 49583.373000000094,
      "d": 208.33350000000064,
      "v": 100
    },
    {
      "midi": 38,
      "hit": false,
      "t": 49687.53974999954,
      "d": 104.16674999999668,
      "v": 100
    },
    {
      "midi": 50,
      "hit": false,
      "t": 49791.706499999535,
      "d": 104.16674999999668,
      "v": 100
    },
    {
      "midi": 44,
      "hit": false,
      "t": 49791.706500000095,
      "d": 208.33350000000064,
      "v": 100
    },
    {
      "midi": 50,
      "hit": false,
      "t": 49895.87324999953,
      "d": 104.16674999999668,
      "v": 100
    },
    {
      "midi": 34,
      "hit": false,
      "t": 50000.03999999953,
      "d": 104.16674999999668,
      "v": 100
    },
    {
      "midi": 62,
      "hit": false,
      "t": 50000.039999999986,
      "d": 1666.6679999999978,
      "v": 100
    },
    {
      "midi": 70,
      "hit": false,
      "t": 50000.039999999986,
      "d": 1666.6679999999978,
      "v": 100
    },
    {
      "midi": 58,
      "hit": false,
      "t": 50000.040000000015,
      "d": 1666.6679999999978,
      "v": 100
    },
    {
      "midi": 65,
      "hit": false,
      "t": 50000.040000000015,
      "d": 1666.6679999999978,
      "v": 100
    },
    {
      "midi": 74,
      "hit": false,
      "t": 50000.040000000015,
      "d": 1666.6679999999978,
      "v": 100
    },
    {
      "midi": 82,
      "hit": false,
      "t": 50000.04000000005,
      "d": 416.6670000000013,
      "v": 100
    },
    {
      "midi": 94,
      "hit": false,
      "t": 50000.04000000005,
      "d": 416.6670000000013,
      "v": 100
    },
    {
      "midi": 35,
      "hit": false,
      "t": 50000.040000000095,
      "d": 416.6670000000013,
      "v": 100
    },
    {
      "midi": 34,
      "hit": false,
      "t": 50000.040000000095,
      "d": 208.33350000000064,
      "v": 100
    },
    {
      "midi": 34,
      "hit": false,
      "t": 50104.206749999525,
      "d": 104.16674999999668,
      "v": 100
    },
    {
      "midi": 46,
      "hit": false,
      "t": 50208.37349999952,
      "d": 104.16674999999668,
      "v": 100
    },
    {
      "midi": 44,
      "hit": false,
      "t": 50208.373500000096,
      "d": 208.33350000000064,
      "v": 100
    },
    {
      "midi": 46,
      "hit": false,
      "t": 50312.54024999952,
      "d": 104.16674999999668,
      "v": 100
    },
    {
      "midi": 34,
      "hit": false,
      "t": 50416.706999999515,
      "d": 104.16674999999668,
      "v": 100
    },
    {
      "midi": 84,
      "hit": false,
      "t": 50416.70700000005,
      "d": 416.6670000000013,
      "v": 100
    },
    {
      "midi": 96,
      "hit": false,
      "t": 50416.70700000005,
      "d": 416.6670000000013,
      "v": 100
    },
    {
      "midi": 38,
      "hit": false,
      "t": 50416.7070000001,
      "d": 208.33350000000064,
      "v": 100
    },
    {
      "midi": 35,
      "hit": false,
      "t": 50416.7070000001,
      "d": 416.6670000000013,
      "v": 100
    },
    {
      "midi": 34,
      "hit": false,
      "t": 50416.7070000001,
      "d": 208.33350000000064,
      "v": 100
    },
    {
      "midi": 46,
      "hit": false,
      "t": 50520.87374999951,
      "d": 104.16674999999668,
      "v": 100
    },
    {
      "midi": 58,
      "hit": false,
      "t": 50625.04049999951,
      "d": 104.16674999999668,
      "v": 100
    },
    {
      "midi": 44,
      "hit": false,
      "t": 50625.0405000001,
      "d": 208.33350000000064,
      "v": 100
    },
    {
      "midi": 34,
      "hit": false,
      "t": 50729.207249999505,
      "d": 104.16674999999668,
      "v": 100
    },
    {
      "midi": 34,
      "hit": false,
      "t": 50833.3739999995,
      "d": 104.16674999999668,
      "v": 100
    },
    {
      "midi": 82,
      "hit": false,
      "t": 50833.374000000054,
      "d": 208.33350000000064,
      "v": 100
    },
    {
      "midi": 94,
      "hit": false,
      "t": 50833.374000000054,
      "d": 208.33350000000064,
      "v": 100
    },
    {
      "midi": 35,
      "hit": false,
      "t": 50833.3740000001,
      "d": 416.6670000000013,
      "v": 100
    },
    {
      "midi": 34,
      "hit": false,
      "t": 50833.3740000001,
      "d": 208.33350000000064,
      "v": 100
    },
    {
      "midi": 34,
      "hit": false,
      "t": 50937.5407499995,
      "d": 104.16674999999668,
      "v": 100
    },
    {
      "midi": 46,
      "hit": false,
      "t": 51041.707499999495,
      "d": 104.16674999999668,
      "v": 100
    },
    {
      "midi": 81,
      "hit": false,
      "t": 51041.707500000055,
      "d": 416.6670000000013,
      "v": 100
    },
    {
      "midi": 93,
      "hit": false,
      "t": 51041.707500000055,
      "d": 416.6670000000013,
      "v": 100
    },
    {
      "midi": 44,
      "hit": false,
      "t": 51041.7075000001,
      "d": 208.33350000000064,
      "v": 100
    },
    {
      "midi": 46,
      "hit": false,
      "t": 51145.87424999949,
      "d": 104.16674999999668,
      "v": 100
    },
    {
      "midi": 34,
      "hit": false,
      "t": 51250.04099999949,
      "d": 104.16674999999668,
      "v": 100
    },
    {
      "midi": 38,
      "hit": false,
      "t": 51250.0410000001,
      "d": 208.33350000000064,
      "v": 100
    },
    {
      "midi": 35,
      "hit": false,
      "t": 51250.0410000001,
      "d": 416.6670000000013,
      "v": 100
    },
    {
      "midi": 34,
      "hit": false,
      "t": 51250.0410000001,
      "d": 208.33350000000064,
      "v": 100
    },
    {
      "midi": 46,
      "hit": false,
      "t": 51354.207749999485,
      "d": 104.16674999999668,
      "v": 100
    },
    {
      "midi": 46,
      "hit": false,
      "t": 51458.37449999948,
      "d": 104.16674999999668,
      "v": 100
    },
    {
      "midi": 79,
      "hit": false,
      "t": 51458.374500000056,
      "d": 625.0005000000019,
      "v": 100
    },
    {
      "midi": 91,
      "hit": false,
      "t": 51458.374500000056,
      "d": 625.0005000000019,
      "v": 100
    },
    {
      "midi": 44,
      "hit": false,
      "t": 51458.3745000001,
      "d": 208.33350000000064,
      "v": 100
    },
    {
      "midi": 34,
      "hit": false,
      "t": 51562.54124999948,
      "d": 104.16674999999668,
      "v": 100
    },
    {
      "midi": 36,
      "hit": false,
      "t": 51666.707999999475,
      "d": 104.16674999999668,
      "v": 100
    },
    {
      "midi": 60,
      "hit": false,
      "t": 51666.707999999984,
      "d": 1666.6679999999978,
      "v": 100
    },
    {
      "midi": 67,
      "hit": false,
      "t": 51666.707999999984,
      "d": 1666.6679999999978,
      "v": 100
    },
    {
      "midi": 60,
      "hit": false,
      "t": 51666.70800000001,
      "d": 1666.6679999999978,
      "v": 100
    },
    {
      "midi": 67,
      "hit": false,
      "t": 51666.70800000001,
      "d": 1666.6679999999978,
      "v": 100
    },
    {
      "midi": 76,
      "hit": false,
      "t": 51666.70800000001,
      "d": 1666.6679999999978,
      "v": 100
    },
    {
      "midi": 35,
      "hit": false,
      "t": 51666.7080000001,
      "d": 416.6670000000013,
      "v": 100
    },
    {
      "midi": 36,
      "hit": false,
      "t": 51666.7080000001,
      "d": 208.33350000000064,
      "v": 100
    },
    {
      "midi": 36,
      "hit": false,
      "t": 51770.87474999947,
      "d": 104.16674999999668,
      "v": 100
    },
    {
      "midi": 48,
      "hit": false,
      "t": 51875.04149999947,
      "d": 104.16674999999668,
      "v": 100
    },
    {
      "midi": 44,
      "hit": false,
      "t": 51875.0415000001,
      "d": 208.33350000000064,
      "v": 100
    },
    {
      "midi": 48,
      "hit": false,
      "t": 51979.208249999465,
      "d": 104.16674999999668,
      "v": 100
    },
    {
      "midi": 36,
      "hit": false,
      "t": 52083.37499999946,
      "d": 104.16674999999668,
      "v": 100
    },
    {
      "midi": 38,
      "hit": false,
      "t": 52083.3750000001,
      "d": 208.33350000000064,
      "v": 100
    },
    {
      "midi": 35,
      "hit": false,
      "t": 52083.3750000001,
      "d": 416.6670000000013,
      "v": 100
    },
    {
      "midi": 36,
      "hit": false,
      "t": 52083.3750000001,
      "d": 208.33350000000064,
      "v": 100
    },
    {
      "midi": 48,
      "hit": false,
      "t": 52187.54174999946,
      "d": 104.16674999999668,
      "v": 100
    },
    {
      "midi": 60,
      "hit": false,
      "t": 52291.708499999455,
      "d": 104.16674999999668,
      "v": 100
    },
    {
      "midi": 44,
      "hit": false,
      "t": 52291.7085000001,
      "d": 208.33350000000064,
      "v": 100
    },
    {
      "midi": 60,
      "hit": false,
      "t": 52395.87524999945,
      "d": 104.16674999999668,
      "v": 100
    },
    {
      "midi": 36,
      "hit": false,
      "t": 52500.04199999945,
      "d": 104.16674999999668,
      "v": 100
    },
    {
      "midi": 76,
      "hit": false,
      "t": 52500.04200000006,
      "d": 416.6670000000013,
      "v": 100
    },
    {
      "midi": 88,
      "hit": false,
      "t": 52500.04200000006,
      "d": 416.6670000000013,
      "v": 100
    },
    {
      "midi": 35,
      "hit": false,
      "t": 52500.0420000001,
      "d": 416.6670000000013,
      "v": 100
    },
    {
      "midi": 36,
      "hit": false,
      "t": 52500.0420000001,
      "d": 208.33350000000064,
      "v": 100
    },
    {
      "midi": 36,
      "hit": false,
      "t": 52604.208749999445,
      "d": 104.16674999999668,
      "v": 100
    },
    {
      "midi": 48,
      "hit": false,
      "t": 52708.37549999944,
      "d": 104.16674999999668,
      "v": 100
    },
    {
      "midi": 44,
      "hit": false,
      "t": 52708.375500000104,
      "d": 208.33350000000064,
      "v": 100
    },
    {
      "midi": 48,
      "hit": false,
      "t": 52812.54224999944,
      "d": 104.16674999999668,
      "v": 100
    },
    {
      "midi": 36,
      "hit": false,
      "t": 52916.708999999435,
      "d": 104.16674999999668,
      "v": 100
    },
    {
      "midi": 79,
      "hit": false,
      "t": 52916.70900000006,
      "d": 416.6670000000013,
      "v": 100
    },
    {
      "midi": 91,
      "hit": false,
      "t": 52916.70900000006,
      "d": 416.6670000000013,
      "v": 100
    },
    {
      "midi": 38,
      "hit": false,
      "t": 52916.709000000104,
      "d": 208.33350000000064,
      "v": 100
    },
    {
      "midi": 35,
      "hit": false,
      "t": 52916.709000000104,
      "d": 416.6670000000013,
      "v": 100
    },
    {
      "midi": 36,
      "hit": false,
      "t": 52916.709000000104,
      "d": 208.33350000000064,
      "v": 100
    },
    {
      "midi": 48,
      "hit": false,
      "t": 53020.87574999943,
      "d": 104.16674999999668,
      "v": 100
    },
    {
      "midi": 43,
      "hit": false,
      "t": 53125.04249999943,
      "d": 104.16674999999668,
      "v": 100
    },
    {
      "midi": 44,
      "hit": false,
      "t": 53125.042500000105,
      "d": 208.33350000000064,
      "v": 100
    },
    {
      "midi": 40,
      "hit": false,
      "t": 53229.209249999425,
      "d": 104.16674999999668,
      "v": 100
    },
    {
      "midi": 33,
      "hit": false,
      "t": 53333.37599999942,
      "d": 104.16674999999668,
      "v": 100
    },
    {
      "midi": 61,
      "hit": false,
      "t": 53333.37599999998,
      "d": 833.3340000000026,
      "v": 100
    },
    {
      "midi": 69,
      "hit": false,
      "t": 53333.37599999998,
      "d": 833.3340000000026,
      "v": 100
    },
    {
      "midi": 64,
      "hit": false,
      "t": 53333.37600000001,
      "d": 833.3340000000026,
      "v": 100
    },
    {
      "midi": 57,
      "hit": false,
      "t": 53333.37600000001,
      "d": 833.3340000000026,
      "v": 100
    },
    {
      "midi": 73,
      "hit": false,
      "t": 53333.37600000001,
      "d": 833.3340000000026,
      "v": 100
    },
    {
      "midi": 81,
      "hit": false,
      "t": 53333.37600000006,
      "d": 416.6670000000013,
      "v": 100
    },
    {
      "midi": 93,
      "hit": false,
      "t": 53333.37600000006,
      "d": 416.6670000000013,
      "v": 100
    },
    {
      "midi": 35,
      "hit": false,
      "t": 53333.376000000106,
      "d": 416.6670000000013,
      "v": 100
    },
    {
      "midi": 33,
      "hit": false,
      "t": 53333.376000000106,
      "d": 208.33350000000064,
      "v": 100
    },
    {
      "midi": 33,
      "hit": false,
      "t": 53437.54274999942,
      "d": 104.16674999999668,
      "v": 100
    },
    {
      "midi": 45,
      "hit": false,
      "t": 53541.709499999415,
      "d": 104.16674999999668,
      "v": 100
    },
    {
      "midi": 44,
      "hit": false,
      "t": 53541.709500000106,
      "d": 208.33350000000064,
      "v": 100
    },
    {
      "midi": 45,
      "hit": false,
      "t": 53645.87624999941,
      "d": 104.16674999999668,
      "v": 100
    },
    {
      "midi": 33,
      "hit": false,
      "t": 53750.04299999941,
      "d": 104.16674999999668,
      "v": 100
    },
    {
      "midi": 82,
      "hit": false,
      "t": 53750.04300000006,
      "d": 416.6670000000013,
      "v": 100
    },
    {
      "midi": 94,
      "hit": false,
      "t": 53750.04300000006,
      "d": 416.6670000000013,
      "v": 100
    },
    {
      "midi": 38,
      "hit": false,
      "t": 53750.04300000011,
      "d": 208.33350000000064,
      "v": 100
    },
    {
      "midi": 35,
      "hit": false,
      "t": 53750.04300000011,
      "d": 416.6670000000013,
      "v": 100
    },
    {
      "midi": 33,
      "hit": false,
      "t": 53750.04300000011,
      "d": 208.33350000000064,
      "v": 100
    },
    {
      "midi": 33,
      "hit": false,
      "t": 53854.209749999405,
      "d": 104.16674999999668,
      "v": 100
    },
    {
      "midi": 45,
      "hit": false,
      "t": 53958.3764999994,
      "d": 104.16674999999668,
      "v": 100
    },
    {
      "midi": 44,
      "hit": false,
      "t": 53958.37650000011,
      "d": 208.33350000000064,
      "v": 100
    },
    {
      "midi": 45,
      "hit": false,
      "t": 54062.5432499994,
      "d": 104.16674999999668,
      "v": 100
    },
    {
      "midi": 31,
      "hit": false,
      "t": 54166.709999999395,
      "d": 104.16674999999668,
      "v": 100
    },
    {
      "midi": 61,
      "hit": false,
      "t": 54166.709999999985,
      "d": 833.3340000000026,
      "v": 100
    },
    {
      "midi": 67,
      "hit": false,
      "t": 54166.709999999985,
      "d": 833.3340000000026,
      "v": 100
    },
    {
      "midi": 73,
      "hit": false,
      "t": 54166.710000000014,
      "d": 833.3340000000026,
      "v": 100
    },
    {
      "midi": 67,
      "hit": false,
      "t": 54166.710000000014,
      "d": 833.3340000000026,
      "v": 100
    },
    {
      "midi": 64,
      "hit": false,
      "t": 54166.710000000014,
      "d": 833.3340000000026,
      "v": 100
    },
    {
      "midi": 55,
      "hit": false,
      "t": 54166.710000000014,
      "d": 833.3340000000026,
      "v": 100
    },
    {
      "midi": 81,
      "hit": false,
      "t": 54166.710000000065,
      "d": 208.33350000000064,
      "v": 100
    },
    {
      "midi": 93,
      "hit": false,
      "t": 54166.710000000065,
      "d": 208.33350000000064,
      "v": 100
    },
    {
      "midi": 35,
      "hit": false,
      "t": 54166.71000000011,
      "d": 416.6670000000013,
      "v": 100
    },
    {
      "midi": 33,
      "hit": false,
      "t": 54166.71000000011,
      "d": 208.33350000000064,
      "v": 100
    },
    {
      "midi": 45,
      "hit": false,
      "t": 54270.87674999939,
      "d": 104.16674999999668,
      "v": 100
    },
    {
      "midi": 31,
      "hit": false,
      "t": 54375.04349999939,
      "d": 104.16674999999668,
      "v": 100
    },
    {
      "midi": 79,
      "hit": false,
      "t": 54375.043500000065,
      "d": 416.6670000000013,
      "v": 100
    },
    {
      "midi": 91,
      "hit": false,
      "t": 54375.043500000065,
      "d": 416.6670000000013,
      "v": 100
    },
    {
      "midi": 44,
      "hit": false,
      "t": 54375.04350000011,
      "d": 208.33350000000064,
      "v": 100
    },
    {
      "midi": 45,
      "hit": false,
      "t": 54479.210249999385,
      "d": 104.16674999999668,
      "v": 100
    },
    {
      "midi": 31,
      "hit": false,
      "t": 54583.37699999938,
      "d": 104.16674999999668,
      "v": 100
    },
    {
      "midi": 38,
      "hit": false,
      "t": 54583.37700000011,
      "d": 208.33350000000064,
      "v": 100
    },
    {
      "midi": 35,
      "hit": false,
      "t": 54583.37700000011,
      "d": 416.6670000000013,
      "v": 100
    },
    {
      "midi": 33,
      "hit": false,
      "t": 54583.37700000011,
      "d": 208.33350000000064,
      "v": 100
    },
    {
      "midi": 45,
      "hit": false,
      "t": 54687.54374999938,
      "d": 104.16674999999668,
      "v": 100
    },
    {
      "midi": 31,
      "hit": false,
      "t": 54791.710499999375,
      "d": 104.16674999999668,
      "v": 100
    },
    {
      "midi": 77,
      "hit": false,
      "t": 54791.71050000007,
      "d": 625.0005000000019,
      "v": 100
    },
    {
      "midi": 89,
      "hit": false,
      "t": 54791.71050000007,
      "d": 625.0005000000019,
      "v": 100
    },
    {
      "midi": 44,
      "hit": false,
      "t": 54791.71050000011,
      "d": 208.33350000000064,
      "v": 100
    },
    {
      "midi": 45,
      "hit": false,
      "t": 54895.87724999937,
      "d": 104.16674999999668,
      "v": 100
    },
    {
      "midi": 38,
      "hit": false,
      "t": 55000.04399999937,
      "d": 104.16674999999668,
      "v": 100
    },
    {
      "midi": 69,
      "hit": false,
      "t": 55000.04399999999,
      "d": 1666.6679999999978,
      "v": 100
    },
    {
      "midi": 62,
      "hit": false,
      "t": 55000.04399999999,
      "d": 1666.6679999999978,
      "v": 100
    },
    {
      "midi": 62,
      "hit": false,
      "t": 55000.044000000016,
      "d": 1666.6679999999978,
      "v": 100
    },
    {
      "midi": 69,
      "hit": false,
      "t": 55000.044000000016,
      "d": 1666.6679999999978,
      "v": 100
    },
    {
      "midi": 77,
      "hit": false,
      "t": 55000.044000000016,
      "d": 1666.6679999999978,
      "v": 100
    },
    {
      "midi": 35,
      "hit": false,
      "t": 55000.04400000011,
      "d": 416.6670000000013,
      "v": 100
    },
    {
      "midi": 38,
      "hit": false,
      "t": 55000.04400000011,
      "d": 208.33350000000064,
      "v": 100
    },
    {
      "midi": 38,
      "hit": false,
      "t": 55104.210749999365,
      "d": 104.16674999999668,
      "v": 100
    },
    {
      "midi": 50,
      "hit": false,
      "t": 55208.37749999936,
      "d": 104.16674999999668,
      "v": 100
    },
    {
      "midi": 44,
      "hit": false,
      "t": 55208.37750000011,
      "d": 208.33350000000064,
      "v": 100
    },
    {
      "midi": 62,
      "hit": false,
      "t": 55312.54424999936,
      "d": 104.16674999999668,
      "v": 100
    },
    {
      "midi": 38,
      "hit": false,
      "t": 55416.710999999355,
      "d": 104.16674999999668,
      "v": 100
    },
    {
      "midi": 38,
      "hit": false,
      "t": 55416.71100000011,
      "d": 208.33350000000064,
      "v": 100
    },
    {
      "midi": 35,
      "hit": false,
      "t": 55416.71100000011,
      "d": 416.6670000000013,
      "v": 100
    },
    {
      "midi": 38,
      "hit": false,
      "t": 55416.71100000011,
      "d": 208.33350000000064,
      "v": 100
    },
    {
      "midi": 38,
      "hit": false,
      "t": 55520.87774999935,
      "d": 104.16674999999668,
      "v": 100
    },
    {
      "midi": 50,
      "hit": false,
      "t": 55625.04449999935,
      "d": 104.16674999999668,
      "v": 100
    },
    {
      "midi": 44,
      "hit": false,
      "t": 55625.04450000011,
      "d": 208.33350000000064,
      "v": 100
    },
    {
      "midi": 50,
      "hit": false,
      "t": 55729.211249999345,
      "d": 104.16674999999668,
      "v": 100
    },
    {
      "midi": 38,
      "hit": false,
      "t": 55833.37799999934,
      "d": 104.16674999999668,
      "v": 100
    },
    {
      "midi": 74,
      "hit": false,
      "t": 55833.37800000007,
      "d": 416.6670000000013,
      "v": 100
    },
    {
      "midi": 86,
      "hit": false,
      "t": 55833.37800000007,
      "d": 416.6670000000013,
      "v": 100
    },
    {
      "midi": 35,
      "hit": false,
      "t": 55833.37800000011,
      "d": 416.6670000000013,
      "v": 100
    },
    {
      "midi": 38,
      "hit": false,
      "t": 55833.37800000011,
      "d": 208.33350000000064,
      "v": 100
    },
    {
      "midi": 50,
      "hit": false,
      "t": 55937.54474999934,
      "d": 104.16674999999668,
      "v": 100
    },
    {
      "midi": 45,
      "hit": false,
      "t": 56041.711499999336,
      "d": 104.16674999999668,
      "v": 100
    },
    {
      "midi": 44,
      "hit": false,
      "t": 56041.711500000114,
      "d": 208.33350000000064,
      "v": 100
    },
    {
      "midi": 41,
      "hit": false,
      "t": 56145.87824999933,
      "d": 104.16674999999668,
      "v": 100
    },
    {
      "midi": 38,
      "hit": false,
      "t": 56250.04499999933,
      "d": 104.16674999999668,
      "v": 100
    },
    {
      "midi": 81,
      "hit": false,
      "t": 56250.04500000007,
      "d": 416.6670000000013,
      "v": 100
    },
    {
      "midi": 93,
      "hit": false,
      "t": 56250.04500000007,
      "d": 416.6670000000013,
      "v": 100
    },
    {
      "midi": 38,
      "hit": false,
      "t": 56250.045000000115,
      "d": 208.33350000000064,
      "v": 100
    },
    {
      "midi": 35,
      "hit": false,
      "t": 56250.045000000115,
      "d": 416.6670000000013,
      "v": 100
    },
    {
      "midi": 38,
      "hit": false,
      "t": 56250.045000000115,
      "d": 208.33350000000064,
      "v": 100
    },
    {
      "midi": 38,
      "hit": false,
      "t": 56354.211749999326,
      "d": 104.16674999999668,
      "v": 100
    },
    {
      "midi": 50,
      "hit": false,
      "t": 56458.37849999932,
      "d": 104.16674999999668,
      "v": 100
    },
    {
      "midi": 44,
      "hit": false,
      "t": 56458.378500000115,
      "d": 208.33350000000064,
      "v": 100
    },
    {
      "midi": 50,
      "hit": false,
      "t": 56562.54524999932,
      "d": 104.16674999999668,
      "v": 100
    },
    {
      "midi": 31,
      "hit": false,
      "t": 56666.711999999316,
      "d": 104.16674999999668,
      "v": 100
    },
    {
      "midi": 70,
      "hit": false,
      "t": 56666.711999999985,
      "d": 1666.6679999999978,
      "v": 100
    },
    {
      "midi": 62,
      "hit": false,
      "t": 56666.711999999985,
      "d": 1666.6679999999978,
      "v": 100
    },
    {
      "midi": 58,
      "hit": false,
      "t": 56666.712000000014,
      "d": 1666.6679999999978,
      "v": 100
    },
    {
      "midi": 74,
      "hit": false,
      "t": 56666.712000000014,
      "d": 1666.6679999999978,
      "v": 100
    },
    {
      "midi": 67,
      "hit": false,
      "t": 56666.712000000014,
      "d": 1666.6679999999978,
      "v": 100
    },
    {
      "midi": 81,
      "hit": false,
      "t": 56666.71200000007,
      "d": 416.6670000000013,
      "v": 100
    },
    {
      "midi": 93,
      "hit": false,
      "t": 56666.71200000007,
      "d": 416.6670000000013,
      "v": 100
    },
    {
      "midi": 35,
      "hit": false,
      "t": 56666.712000000116,
      "d": 416.6670000000013,
      "v": 100
    },
    {
      "midi": 31,
      "hit": false,
      "t": 56666.712000000116,
      "d": 208.33350000000064,
      "v": 100
    },
    {
      "midi": 31,
      "hit": false,
      "t": 56770.87874999931,
      "d": 104.16674999999668,
      "v": 100
    },
    {
      "midi": 43,
      "hit": false,
      "t": 56875.04549999931,
      "d": 104.16674999999668,
      "v": 100
    },
    {
      "midi": 44,
      "hit": false,
      "t": 56875.04550000012,
      "d": 208.33350000000064,
      "v": 100
    },
    {
      "midi": 43,
      "hit": false,
      "t": 56979.212249999306,
      "d": 104.16674999999668,
      "v": 100
    },
    {
      "midi": 31,
      "hit": false,
      "t": 57083.3789999993,
      "d": 104.16674999999668,
      "v": 100
    },
    {
      "midi": 82,
      "hit": false,
      "t": 57083.37900000007,
      "d": 208.33350000000064,
      "v": 100
    },
    {
      "midi": 94,
      "hit": false,
      "t": 57083.37900000007,
      "d": 208.33350000000064,
      "v": 100
    },
    {
      "midi": 38,
      "hit": false,
      "t": 57083.37900000012,
      "d": 208.33350000000064,
      "v": 100
    },
    {
      "midi": 35,
      "hit": false,
      "t": 57083.37900000012,
      "d": 416.6670000000013,
      "v": 100
    },
    {
      "midi": 31,
      "hit": false,
      "t": 57083.37900000012,
      "d": 208.33350000000064,
      "v": 100
    },
    {
      "midi": 43,
      "hit": false,
      "t": 57187.5457499993,
      "d": 104.16674999999668,
      "v": 100
    },
    {
      "midi": 55,
      "hit": false,
      "t": 57291.712499999296,
      "d": 104.16674999999668,
      "v": 100
    },
    {
      "midi": 79,
      "hit": false,
      "t": 57291.712500000074,
      "d": 416.6670000000013,
      "v": 100
    },
    {
      "midi": 91,
      "hit": false,
      "t": 57291.712500000074,
      "d": 416.6670000000013,
      "v": 100
    },
    {
      "midi": 44,
      "hit": false,
      "t": 57291.71250000012,
      "d": 208.33350000000064,
      "v": 100
    },
    {
      "midi": 31,
      "hit": false,
      "t": 57395.87924999929,
      "d": 104.16674999999668,
      "v": 100
    },
    {
      "midi": 31,
      "hit": false,
      "t": 57500.04599999929,
      "d": 104.16674999999668,
      "v": 100
    },
    {
      "midi": 35,
      "hit": false,
      "t": 57500.04600000012,
      "d": 416.6670000000013,
      "v": 100
    },
    {
      "midi": 31,
      "hit": false,
      "t": 57500.04600000012,
      "d": 208.33350000000064,
      "v": 100
    },
    {
      "midi": 31,
      "hit": false,
      "t": 57604.212749999286,
      "d": 104.16674999999668,
      "v": 100
    },
    {
      "midi": 43,
      "hit": false,
      "t": 57708.37949999928,
      "d": 104.16674999999668,
      "v": 100
    },
    {
      "midi": 79,
      "hit": false,
      "t": 57708.379500000075,
      "d": 208.33350000000064,
      "v": 100
    },
    {
      "midi": 91,
      "hit": false,
      "t": 57708.379500000075,
      "d": 208.33350000000064,
      "v": 100
    },
    {
      "midi": 44,
      "hit": false,
      "t": 57708.37950000012,
      "d": 208.33350000000064,
      "v": 100
    },
    {
      "midi": 43,
      "hit": false,
      "t": 57812.54624999928,
      "d": 104.16674999999668,
      "v": 100
    },
    {
      "midi": 31,
      "hit": false,
      "t": 57916.712999999276,
      "d": 104.16674999999668,
      "v": 100
    },
    {
      "midi": 86,
      "hit": false,
      "t": 57916.713000000076,
      "d": 208.33350000000064,
      "v": 100
    },
    {
      "midi": 98,
      "hit": false,
      "t": 57916.713000000076,
      "d": 208.33350000000064,
      "v": 100
    },
    {
      "midi": 38,
      "hit": false,
      "t": 57916.71300000012,
      "d": 208.33350000000064,
      "v": 100
    },
    {
      "midi": 35,
      "hit": false,
      "t": 57916.71300000012,
      "d": 416.6670000000013,
      "v": 100
    },
    {
      "midi": 31,
      "hit": false,
      "t": 57916.71300000012,
      "d": 208.33350000000064,
      "v": 100
    },
    {
      "midi": 43,
      "hit": false,
      "t": 58020.87974999927,
      "d": 104.16674999999668,
      "v": 100
    },
    {
      "midi": 43,
      "hit": false,
      "t": 58125.04649999927,
      "d": 104.16674999999668,
      "v": 100
    },
    {
      "midi": 84,
      "hit": false,
      "t": 58125.04650000008,
      "d": 625.0005000000019,
      "v": 100
    },
    {
      "midi": 96,
      "hit": false,
      "t": 58125.04650000008,
      "d": 625.0005000000019,
      "v": 100
    },
    {
      "midi": 44,
      "hit": false,
      "t": 58125.04650000012,
      "d": 208.33350000000064,
      "v": 100
    },
    {
      "midi": 31,
      "hit": false,
      "t": 58229.213249999266,
      "d": 104.16674999999668,
      "v": 100
    },
    {
      "midi": 36,
      "hit": false,
      "t": 58333.37999999926,
      "d": 104.16674999999668,
      "v": 100
    },
    {
      "midi": 60,
      "hit": false,
      "t": 58333.37999999998,
      "d": 1666.6679999999978,
      "v": 100
    },
    {
      "midi": 67,
      "hit": false,
      "t": 58333.37999999998,
      "d": 1666.6679999999978,
      "v": 100
    },
    {
      "midi": 60,
      "hit": false,
      "t": 58333.38000000001,
      "d": 1666.6679999999978,
      "v": 100
    },
    {
      "midi": 67,
      "hit": false,
      "t": 58333.38000000001,
      "d": 1666.6679999999978,
      "v": 100
    },
    {
      "midi": 76,
      "hit": false,
      "t": 58333.38000000001,
      "d": 1666.6679999999978,
      "v": 100
    },
    {
      "midi": 35,
      "hit": false,
      "t": 58333.38000000012,
      "d": 416.6670000000013,
      "v": 100
    },
    {
      "midi": 36,
      "hit": false,
      "t": 58333.38000000012,
      "d": 208.33350000000064,
      "v": 100
    },
    {
      "midi": 36,
      "hit": false,
      "t": 58437.54674999926,
      "d": 104.16674999999668,
      "v": 100
    },
    {
      "midi": 48,
      "hit": false,
      "t": 58541.713499999256,
      "d": 104.16674999999668,
      "v": 100
    },
    {
      "midi": 44,
      "hit": false,
      "t": 58541.71350000012,
      "d": 208.33350000000064,
      "v": 100
    },
    {
      "midi": 48,
      "hit": false,
      "t": 58645.88024999925,
      "d": 104.16674999999668,
      "v": 100
    },
    {
      "midi": 36,
      "hit": false,
      "t": 58750.04699999925,
      "d": 104.16674999999668,
      "v": 100
    },
    {
      "midi": 79,
      "hit": false,
      "t": 58750.04700000008,
      "d": 416.6670000000013,
      "v": 100
    },
    {
      "midi": 91,
      "hit": false,
      "t": 58750.04700000008,
      "d": 416.6670000000013,
      "v": 100
    },
    {
      "midi": 38,
      "hit": false,
      "t": 58750.04700000012,
      "d": 208.33350000000064,
      "v": 100
    },
    {
      "midi": 35,
      "hit": false,
      "t": 58750.04700000012,
      "d": 416.6670000000013,
      "v": 100
    },
    {
      "midi": 36,
      "hit": false,
      "t": 58750.04700000012,
      "d": 208.33350000000064,
      "v": 100
    },
    {
      "midi": 48,
      "hit": false,
      "t": 58854.213749999246,
      "d": 104.16674999999668,
      "v": 100
    },
    {
      "midi": 60,
      "hit": false,
      "t": 58958.38049999924,
      "d": 104.16674999999668,
      "v": 100
    },
    {
      "midi": 44,
      "hit": false,
      "t": 58958.38050000012,
      "d": 208.33350000000064,
      "v": 100
    },
    {
      "midi": 60,
      "hit": false,
      "t": 59062.54724999924,
      "d": 104.16674999999668,
      "v": 100
    },
    {
      "midi": 36,
      "hit": false,
      "t": 59166.713999999236,
      "d": 104.16674999999668,
      "v": 100
    },
    {
      "midi": 84,
      "hit": false,
      "t": 59166.71400000008,
      "d": 208.33350000000064,
      "v": 100
    },
    {
      "midi": 96,
      "hit": false,
      "t": 59166.71400000008,
      "d": 208.33350000000064,
      "v": 100
    },
    {
      "midi": 35,
      "hit": false,
      "t": 59166.71400000012,
      "d": 416.6670000000013,
      "v": 100
    },
    {
      "midi": 36,
      "hit": false,
      "t": 59166.71400000012,
      "d": 208.33350000000064,
      "v": 100
    },
    {
      "midi": 36,
      "hit": false,
      "t": 59270.88074999923,
      "d": 104.16674999999668,
      "v": 100
    },
    {
      "midi": 48,
      "hit": false,
      "t": 59375.04749999923,
      "d": 104.16674999999668,
      "v": 100
    },
    {
      "midi": 82,
      "hit": false,
      "t": 59375.04750000008,
      "d": 416.6670000000013,
      "v": 100
    },
    {
      "midi": 94,
      "hit": false,
      "t": 59375.04750000008,
      "d": 416.6670000000013,
      "v": 100
    },
    {
      "midi": 44,
      "hit": false,
      "t": 59375.047500000124,
      "d": 208.33350000000064,
      "v": 100
    },
    {
      "midi": 48,
      "hit": false,
      "t": 59479.214249999226,
      "d": 104.16674999999668,
      "v": 100
    },
    {
      "midi": 36,
      "hit": false,
      "t": 59583.38099999922,
      "d": 104.16674999999668,
      "v": 100
    },
    {
      "midi": 38,
      "hit": false,
      "t": 59583.381000000125,
      "d": 208.33350000000064,
      "v": 100
    },
    {
      "midi": 35,
      "hit": false,
      "t": 59583.381000000125,
      "d": 416.6670000000013,
      "v": 100
    },
    {
      "midi": 36,
      "hit": false,
      "t": 59583.381000000125,
      "d": 208.33350000000064,
      "v": 100
    },
    {
      "midi": 48,
      "hit": false,
      "t": 59687.54774999922,
      "d": 104.16674999999668,
      "v": 100
    },
    {
      "midi": 43,
      "hit": false,
      "t": 59791.714499999216,
      "d": 104.16674999999668,
      "v": 100
    },
    {
      "midi": 81,
      "hit": false,
      "t": 59791.71450000008,
      "d": 625.0005000000019,
      "v": 100
    },
    {
      "midi": 93,
      "hit": false,
      "t": 59791.71450000008,
      "d": 625.0005000000019,
      "v": 100
    },
    {
      "midi": 44,
      "hit": false,
      "t": 59791.714500000126,
      "d": 208.33350000000064,
      "v": 100
    },
    {
      "midi": 40,
      "hit": false,
      "t": 59895.88124999921,
      "d": 104.16674999999668,
      "v": 100
    },
    {
      "midi": 33,
      "hit": false,
      "t": 60000.04799999921,
      "d": 104.16674999999668,
      "v": 100
    },
    {
      "midi": 61,
      "hit": false,
      "t": 60000.04799999998,
      "d": 833.3340000000026,
      "v": 100
    },
    {
      "midi": 69,
      "hit": false,
      "t": 60000.04799999998,
      "d": 833.3340000000026,
      "v": 100
    },
    {
      "midi": 64,
      "hit": false,
      "t": 60000.04800000001,
      "d": 833.3340000000026,
      "v": 100
    },
    {
      "midi": 57,
      "hit": false,
      "t": 60000.04800000001,
      "d": 833.3340000000026,
      "v": 100
    },
    {
      "midi": 73,
      "hit": false,
      "t": 60000.04800000001,
      "d": 833.3340000000026,
      "v": 100
    },
    {
      "midi": 35,
      "hit": false,
      "t": 60000.048000000126,
      "d": 416.6670000000013,
      "v": 100
    },
    {
      "midi": 33,
      "hit": false,
      "t": 60000.048000000126,
      "d": 208.33350000000064,
      "v": 100
    },
    {
      "midi": 33,
      "hit": false,
      "t": 60104.214749999206,
      "d": 104.16674999999668,
      "v": 100
    },
    {
      "midi": 45,
      "hit": false,
      "t": 60208.3814999992,
      "d": 104.16674999999668,
      "v": 100
    },
    {
      "midi": 44,
      "hit": false,
      "t": 60208.38150000013,
      "d": 208.33350000000064,
      "v": 100
    },
    {
      "midi": 45,
      "hit": false,
      "t": 60312.5482499992,
      "d": 104.16674999999668,
      "v": 100
    },
    {
      "midi": 33,
      "hit": false,
      "t": 60416.714999999196,
      "d": 104.16674999999668,
      "v": 100
    },
    {
      "midi": 38,
      "hit": false,
      "t": 60416.71500000013,
      "d": 208.33350000000064,
      "v": 100
    },
    {
      "midi": 35,
      "hit": false,
      "t": 60416.71500000013,
      "d": 416.6670000000013,
      "v": 100
    },
    {
      "midi": 33,
      "hit": false,
      "t": 60416.71500000013,
      "d": 208.33350000000064,
      "v": 100
    },
    {
      "midi": 33,
      "hit": false,
      "t": 60520.88174999919,
      "d": 104.16674999999668,
      "v": 100
    },
    {
      "midi": 45,
      "hit": false,
      "t": 60625.04849999919,
      "d": 104.16674999999668,
      "v": 100
    },
    {
      "midi": 76,
      "hit": false,
      "t": 60625.048500000084,
      "d": 208.33350000000064,
      "v": 100
    },
    {
      "midi": 88,
      "hit": false,
      "t": 60625.048500000084,
      "d": 208.33350000000064,
      "v": 100
    },
    {
      "midi": 44,
      "hit": false,
      "t": 60625.04850000013,
      "d": 208.33350000000064,
      "v": 100
    },
    {
      "midi": 45,
      "hit": false,
      "t": 60729.215249999186,
      "d": 104.16674999999668,
      "v": 100
    },
    {
      "midi": 31,
      "hit": false,
      "t": 60833.38199999918,
      "d": 104.16674999999668,
      "v": 100
    },
    {
      "midi": 61,
      "hit": false,
      "t": 60833.38199999998,
      "d": 833.3340000000026,
      "v": 100
    },
    {
      "midi": 69,
      "hit": false,
      "t": 60833.38199999998,
      "d": 833.3340000000026,
      "v": 100
    },
    {
      "midi": 73,
      "hit": false,
      "t": 60833.38200000001,
      "d": 833.3340000000026,
      "v": 100
    },
    {
      "midi": 67,
      "hit": false,
      "t": 60833.38200000001,
      "d": 833.3340000000026,
      "v": 100
    },
    {
      "midi": 57,
      "hit": false,
      "t": 60833.38200000001,
      "d": 833.3340000000026,
      "v": 100
    },
    {
      "midi": 64,
      "hit": false,
      "t": 60833.38200000001,
      "d": 833.3340000000026,
      "v": 100
    },
    {
      "midi": 77,
      "hit": false,
      "t": 60833.382000000085,
      "d": 208.33350000000064,
      "v": 100
    },
    {
      "midi": 89,
      "hit": false,
      "t": 60833.382000000085,
      "d": 208.33350000000064,
      "v": 100
    },
    {
      "midi": 35,
      "hit": false,
      "t": 60833.38200000013,
      "d": 416.6670000000013,
      "v": 100
    },
    {
      "midi": 33,
      "hit": false,
      "t": 60833.38200000013,
      "d": 208.33350000000064,
      "v": 100
    },
    {
      "midi": 45,
      "hit": false,
      "t": 60937.54874999918,
      "d": 104.16674999999668,
      "v": 100
    },
    {
      "midi": 31,
      "hit": false,
      "t": 61041.715499999176,
      "d": 104.16674999999668,
      "v": 100
    },
    {
      "midi": 76,
      "hit": false,
      "t": 61041.715500000086,
      "d": 208.33350000000064,
      "v": 100
    },
    {
      "midi": 88,
      "hit": false,
      "t": 61041.715500000086,
      "d": 208.33350000000064,
      "v": 100
    },
    {
      "midi": 44,
      "hit": false,
      "t": 61041.71550000013,
      "d": 208.33350000000064,
      "v": 100
    },
    {
      "midi": 45,
      "hit": false,
      "t": 61145.88224999917,
      "d": 104.16674999999668,
      "v": 100
    },
    {
      "midi": 31,
      "hit": false,
      "t": 61250.04899999917,
      "d": 104.16674999999668,
      "v": 100
    },
    {
      "midi": 77,
      "hit": false,
      "t": 61250.04900000009,
      "d": 208.33350000000064,
      "v": 100
    },
    {
      "midi": 89,
      "hit": false,
      "t": 61250.04900000009,
      "d": 208.33350000000064,
      "v": 100
    },
    {
      "midi": 38,
      "hit": false,
      "t": 61250.04900000013,
      "d": 208.33350000000064,
      "v": 100
    },
    {
      "midi": 35,
      "hit": false,
      "t": 61250.04900000013,
      "d": 416.6670000000013,
      "v": 100
    },
    {
      "midi": 33,
      "hit": false,
      "t": 61250.04900000013,
      "d": 208.33350000000064,
      "v": 100
    },
    {
      "midi": 45,
      "hit": false,
      "t": 61354.215749999166,
      "d": 104.16674999999668,
      "v": 100
    },
    {
      "midi": 31,
      "hit": false,
      "t": 61458.38249999916,
      "d": 104.16674999999668,
      "v": 100
    },
    {
      "midi": 79,
      "hit": false,
      "t": 61458.38250000009,
      "d": 208.33350000000064,
      "v": 100
    },
    {
      "midi": 91,
      "hit": false,
      "t": 61458.38250000009,
      "d": 208.33350000000064,
      "v": 100
    },
    {
      "midi": 44,
      "hit": false,
      "t": 61458.38250000013,
      "d": 208.33350000000064,
      "v": 100
    },
    {
      "midi": 45,
      "hit": false,
      "t": 61562.54924999916,
      "d": 104.16674999999668,
      "v": 100
    },
    {
      "midi": 38,
      "hit": false,
      "t": 61666.715999999156,
      "d": 104.16674999999668,
      "v": 100
    },
    {
      "midi": 62,
      "hit": false,
      "t": 61666.715999999986,
      "d": 1666.6679999999978,
      "v": 100
    },
    {
      "midi": 69,
      "hit": false,
      "t": 61666.715999999986,
      "d": 1666.6679999999978,
      "v": 100
    },
    {
      "midi": 62,
      "hit": false,
      "t": 61666.716000000015,
      "d": 1666.6679999999978,
      "v": 100
    },
    {
      "midi": 69,
      "hit": false,
      "t": 61666.716000000015,
      "d": 1666.6679999999978,
      "v": 100
    },
    {
      "midi": 77,
      "hit": false,
      "t": 61666.716000000015,
      "d": 1666.6679999999978,
      "v": 100
    },
    {
      "midi": 81,
      "hit": false,
      "t": 61666.71600000009,
      "d": 416.6670000000013,
      "v": 100
    },
    {
      "midi": 93,
      "hit": false,
      "t": 61666.71600000009,
      "d": 416.6670000000013,
      "v": 100
    },
    {
      "midi": 35,
      "hit": false,
      "t": 61666.71600000013,
      "d": 416.6670000000013,
      "v": 100
    },
    {
      "midi": 49,
      "hit": false,
      "t": 61666.71600000013,
      "d": 416.6670000000013,
      "v": 100
    },
    {
      "midi": 38,
      "hit": false,
      "t": 61666.71600000013,
      "d": 208.33350000000064,
      "v": 100
    },
    {
      "midi": 38,
      "hit": false,
      "t": 61770.88274999915,
      "d": 104.16674999999668,
      "v": 100
    },
    {
      "midi": 50,
      "hit": false,
      "t": 61875.04949999915,
      "d": 104.16674999999668,
      "v": 100
    },
    {
      "midi": 44,
      "hit": false,
      "t": 61875.04950000013,
      "d": 208.33350000000064,
      "v": 100
    },
    {
      "midi": 62,
      "hit": false,
      "t": 61979.21624999915,
      "d": 104.16674999999668,
      "v": 100
    },
    {
      "midi": 38,
      "hit": false,
      "t": 62083.38299999914,
      "d": 104.16674999999668,
      "v": 100
    },
    {
      "midi": 38,
      "hit": false,
      "t": 62083.38300000013,
      "d": 208.33350000000064,
      "v": 100
    },
    {
      "midi": 35,
      "hit": false,
      "t": 62083.38300000013,
      "d": 416.6670000000013,
      "v": 100
    },
    {
      "midi": 38,
      "hit": false,
      "t": 62083.38300000013,
      "d": 208.33350000000064,
      "v": 100
    },
    {
      "midi": 38,
      "hit": false,
      "t": 62187.54974999914,
      "d": 104.16674999999668,
      "v": 100
    },
    {
      "midi": 50,
      "hit": false,
      "t": 62291.71649999914,
      "d": 104.16674999999668,
      "v": 100
    },
    {
      "midi": 44,
      "hit": false,
      "t": 62291.71650000013,
      "d": 208.33350000000064,
      "v": 100
    },
    {
      "midi": 50,
      "hit": false,
      "t": 62395.88324999913,
      "d": 104.16674999999668,
      "v": 100
    },
    {
      "midi": 38,
      "hit": false,
      "t": 62500.04999999913,
      "d": 104.16674999999668,
      "v": 100
    },
    {
      "midi": 77,
      "hit": false,
      "t": 62500.05000000009,
      "d": 416.6670000000013,
      "v": 100
    },
    {
      "midi": 89,
      "hit": false,
      "t": 62500.05000000009,
      "d": 416.6670000000013,
      "v": 100
    },
    {
      "midi": 35,
      "hit": false,
      "t": 62500.050000000134,
      "d": 416.6670000000013,
      "v": 100
    },
    {
      "midi": 38,
      "hit": false,
      "t": 62500.050000000134,
      "d": 208.33350000000064,
      "v": 100
    },
    {
      "midi": 38,
      "hit": false,
      "t": 62604.21674999913,
      "d": 104.16674999999668,
      "v": 100
    },
    {
      "midi": 62,
      "hit": false,
      "t": 62708.38349999912,
      "d": 104.16674999999668,
      "v": 100
    },
    {
      "midi": 44,
      "hit": false,
      "t": 62708.383500000135,
      "d": 208.33350000000064,
      "v": 100
    },
    {
      "midi": 50,
      "hit": false,
      "t": 62812.55024999912,
      "d": 104.16674999999668,
      "v": 100
    },
    {
      "midi": 38,
      "hit": false,
      "t": 62916.71699999912,
      "d": 104.16674999999668,
      "v": 100
    },
    {
      "midi": 81,
      "hit": false,
      "t": 62916.71700000009,
      "d": 416.6670000000013,
      "v": 100
    },
    {
      "midi": 93,
      "hit": false,
      "t": 62916.71700000009,
      "d": 416.6670000000013,
      "v": 100
    },
    {
      "midi": 38,
      "hit": false,
      "t": 62916.717000000135,
      "d": 208.33350000000064,
      "v": 100
    },
    {
      "midi": 35,
      "hit": false,
      "t": 62916.717000000135,
      "d": 416.6670000000013,
      "v": 100
    },
    {
      "midi": 38,
      "hit": false,
      "t": 62916.717000000135,
      "d": 208.33350000000064,
      "v": 100
    },
    {
      "midi": 50,
      "hit": false,
      "t": 63020.88374999911,
      "d": 104.16674999999668,
      "v": 100
    },
    {
      "midi": 45,
      "hit": false,
      "t": 63125.05049999911,
      "d": 104.16674999999668,
      "v": 100
    },
    {
      "midi": 44,
      "hit": false,
      "t": 63125.050500000136,
      "d": 208.33350000000064,
      "v": 100
    },
    {
      "midi": 41,
      "hit": false,
      "t": 63229.21724999911,
      "d": 104.16674999999668,
      "v": 100
    },
    {
      "midi": 34,
      "hit": false,
      "t": 63333.3839999991,
      "d": 104.16674999999668,
      "v": 100
    },
    {
      "midi": 62,
      "hit": false,
      "t": 63333.383999999984,
      "d": 1666.6679999999978,
      "v": 100
    },
    {
      "midi": 70,
      "hit": false,
      "t": 63333.383999999984,
      "d": 1666.6679999999978,
      "v": 100
    },
    {
      "midi": 58,
      "hit": false,
      "t": 63333.38400000001,
      "d": 1666.6679999999978,
      "v": 100
    },
    {
      "midi": 65,
      "hit": false,
      "t": 63333.38400000001,
      "d": 1666.6679999999978,
      "v": 100
    },
    {
      "midi": 74,
      "hit": false,
      "t": 63333.38400000001,
      "d": 1666.6679999999978,
      "v": 100
    },
    {
      "midi": 82,
      "hit": false,
      "t": 63333.38400000009,
      "d": 416.6670000000013,
      "v": 100
    },
    {
      "midi": 94,
      "hit": false,
      "t": 63333.38400000009,
      "d": 416.6670000000013,
      "v": 100
    },
    {
      "midi": 35,
      "hit": false,
      "t": 63333.38400000014,
      "d": 416.6670000000013,
      "v": 100
    },
    {
      "midi": 34,
      "hit": false,
      "t": 63333.38400000014,
      "d": 208.33350000000064,
      "v": 100
    },
    {
      "midi": 34,
      "hit": false,
      "t": 63437.5507499991,
      "d": 104.16674999999668,
      "v": 100
    },
    {
      "midi": 46,
      "hit": false,
      "t": 63541.7174999991,
      "d": 104.16674999999668,
      "v": 100
    },
    {
      "midi": 44,
      "hit": false,
      "t": 63541.71750000014,
      "d": 208.33350000000064,
      "v": 100
    },
    {
      "midi": 46,
      "hit": false,
      "t": 63645.88424999909,
      "d": 104.16674999999668,
      "v": 100
    },
    {
      "midi": 34,
      "hit": false,
      "t": 63750.05099999909,
      "d": 104.16674999999668,
      "v": 100
    },
    {
      "midi": 84,
      "hit": false,
      "t": 63750.051000000094,
      "d": 416.6670000000013,
      "v": 100
    },
    {
      "midi": 96,
      "hit": false,
      "t": 63750.051000000094,
      "d": 416.6670000000013,
      "v": 100
    },
    {
      "midi": 38,
      "hit": false,
      "t": 63750.05100000014,
      "d": 208.33350000000064,
      "v": 100
    },
    {
      "midi": 35,
      "hit": false,
      "t": 63750.05100000014,
      "d": 416.6670000000013,
      "v": 100
    },
    {
      "midi": 34,
      "hit": false,
      "t": 63750.05100000014,
      "d": 208.33350000000064,
      "v": 100
    },
    {
      "midi": 46,
      "hit": false,
      "t": 63854.21774999909,
      "d": 104.16674999999668,
      "v": 100
    },
    {
      "midi": 58,
      "hit": false,
      "t": 63958.38449999908,
      "d": 104.16674999999668,
      "v": 100
    },
    {
      "midi": 44,
      "hit": false,
      "t": 63958.38450000014,
      "d": 208.33350000000064,
      "v": 100
    },
    {
      "midi": 34,
      "hit": false,
      "t": 64062.55124999908,
      "d": 104.16674999999668,
      "v": 100
    },
    {
      "midi": 34,
      "hit": false,
      "t": 64166.71799999908,
      "d": 104.16674999999668,
      "v": 100
    },
    {
      "midi": 82,
      "hit": false,
      "t": 64166.718000000095,
      "d": 208.33350000000064,
      "v": 100
    },
    {
      "midi": 94,
      "hit": false,
      "t": 64166.718000000095,
      "d": 208.33350000000064,
      "v": 100
    },
    {
      "midi": 35,
      "hit": false,
      "t": 64166.71800000014,
      "d": 416.6670000000013,
      "v": 100
    },
    {
      "midi": 34,
      "hit": false,
      "t": 64166.71800000014,
      "d": 208.33350000000064,
      "v": 100
    },
    {
      "midi": 34,
      "hit": false,
      "t": 64270.88474999907,
      "d": 104.16674999999668,
      "v": 100
    },
    {
      "midi": 46,
      "hit": false,
      "t": 64375.05149999907,
      "d": 104.16674999999668,
      "v": 100
    },
    {
      "midi": 81,
      "hit": false,
      "t": 64375.051500000096,
      "d": 416.6670000000013,
      "v": 100
    },
    {
      "midi": 93,
      "hit": false,
      "t": 64375.051500000096,
      "d": 416.6670000000013,
      "v": 100
    },
    {
      "midi": 44,
      "hit": false,
      "t": 64375.05150000014,
      "d": 208.33350000000064,
      "v": 100
    },
    {
      "midi": 46,
      "hit": false,
      "t": 64479.21824999907,
      "d": 104.16674999999668,
      "v": 100
    },
    {
      "midi": 34,
      "hit": false,
      "t": 64583.38499999906,
      "d": 104.16674999999668,
      "v": 100
    },
    {
      "midi": 38,
      "hit": false,
      "t": 64583.38500000014,
      "d": 208.33350000000064,
      "v": 100
    },
    {
      "midi": 35,
      "hit": false,
      "t": 64583.38500000014,
      "d": 416.6670000000013,
      "v": 100
    },
    {
      "midi": 34,
      "hit": false,
      "t": 64583.38500000014,
      "d": 208.33350000000064,
      "v": 100
    },
    {
      "midi": 46,
      "hit": false,
      "t": 64687.55174999906,
      "d": 104.16674999999668,
      "v": 100
    },
    {
      "midi": 46,
      "hit": false,
      "t": 64791.71849999906,
      "d": 104.16674999999668,
      "v": 100
    },
    {
      "midi": 79,
      "hit": false,
      "t": 64791.7185000001,
      "d": 625.0005000000019,
      "v": 100
    },
    {
      "midi": 91,
      "hit": false,
      "t": 64791.7185000001,
      "d": 625.0005000000019,
      "v": 100
    },
    {
      "midi": 44,
      "hit": false,
      "t": 64791.71850000014,
      "d": 208.33350000000064,
      "v": 100
    },
    {
      "midi": 34,
      "hit": false,
      "t": 64895.88524999905,
      "d": 104.16674999999668,
      "v": 100
    },
    {
      "midi": 36,
      "hit": false,
      "t": 65000.05199999905,
      "d": 104.16674999999668,
      "v": 100
    },
    {
      "midi": 60,
      "hit": false,
      "t": 65000.05199999998,
      "d": 1666.6680000000051,
      "v": 100
    },
    {
      "midi": 67,
      "hit": false,
      "t": 65000.05199999998,
      "d": 1666.6680000000051,
      "v": 100
    },
    {
      "midi": 60,
      "hit": false,
      "t": 65000.05200000001,
      "d": 1666.6680000000051,
      "v": 100
    },
    {
      "midi": 67,
      "hit": false,
      "t": 65000.05200000001,
      "d": 1666.6680000000051,
      "v": 100
    },
    {
      "midi": 76,
      "hit": false,
      "t": 65000.05200000001,
      "d": 1666.6680000000051,
      "v": 100
    },
    {
      "midi": 35,
      "hit": false,
      "t": 65000.05200000014,
      "d": 416.6670000000013,
      "v": 100
    },
    {
      "midi": 36,
      "hit": false,
      "t": 65000.05200000014,
      "d": 208.33350000000064,
      "v": 100
    },
    {
      "midi": 36,
      "hit": false,
      "t": 65104.21874999905,
      "d": 104.16674999999668,
      "v": 100
    },
    {
      "midi": 48,
      "hit": false,
      "t": 65208.38549999904,
      "d": 104.16674999999668,
      "v": 100
    },
    {
      "midi": 44,
      "hit": false,
      "t": 65208.38550000014,
      "d": 208.33350000000064,
      "v": 100
    },
    {
      "midi": 48,
      "hit": false,
      "t": 65312.55224999904,
      "d": 104.16674999999668,
      "v": 100
    },
    {
      "midi": 36,
      "hit": false,
      "t": 65416.71899999904,
      "d": 104.16674999999668,
      "v": 100
    },
    {
      "midi": 38,
      "hit": false,
      "t": 65416.71900000014,
      "d": 208.33349999999336,
      "v": 100
    },
    {
      "midi": 35,
      "hit": false,
      "t": 65416.71900000014,
      "d": 416.66699999998673,
      "v": 100
    },
    {
      "midi": 36,
      "hit": false,
      "t": 65416.71900000014,
      "d": 208.33349999999336,
      "v": 100
    },
    {
      "midi": 48,
      "hit": false,
      "t": 65520.88574999903,
      "d": 104.16674999999668,
      "v": 100
    },
    {
      "midi": 60,
      "hit": false,
      "t": 65625.05249999903,
      "d": 104.16675000000396,
      "v": 100
    },
    {
      "midi": 44,
      "hit": false,
      "t": 65625.05250000014,
      "d": 208.33349999999336,
      "v": 100
    },
    {
      "midi": 60,
      "hit": false,
      "t": 65729.21924999903,
      "d": 104.16675000000396,
      "v": 100
    },
    {
      "midi": 36,
      "hit": false,
      "t": 65833.38599999904,
      "d": 104.16675000000396,
      "v": 100
    },
    {
      "midi": 76,
      "hit": false,
      "t": 65833.3860000001,
      "d": 416.6670000000013,
      "v": 100
    },
    {
      "midi": 88,
      "hit": false,
      "t": 65833.3860000001,
      "d": 416.6670000000013,
      "v": 100
    },
    {
      "midi": 35,
      "hit": false,
      "t": 65833.38600000013,
      "d": 416.66699999998673,
      "v": 100
    },
    {
      "midi": 36,
      "hit": false,
      "t": 65833.38600000013,
      "d": 208.33349999999336,
      "v": 100
    },
    {
      "midi": 36,
      "hit": false,
      "t": 65937.55274999904,
      "d": 104.16675000000396,
      "v": 100
    },
    {
      "midi": 48,
      "hit": false,
      "t": 66041.71949999905,
      "d": 104.16675000000396,
      "v": 100
    },
    {
      "midi": 44,
      "hit": false,
      "t": 66041.71950000012,
      "d": 208.33349999999336,
      "v": 100
    },
    {
      "midi": 48,
      "hit": false,
      "t": 66145.88624999905,
      "d": 104.16675000000396,
      "v": 100
    },
    {
      "midi": 36,
      "hit": false,
      "t": 66250.05299999905,
      "d": 104.16675000000396,
      "v": 100
    },
    {
      "midi": 79,
      "hit": false,
      "t": 66250.0530000001,
      "d": 416.6670000000013,
      "v": 100
    },
    {
      "midi": 91,
      "hit": false,
      "t": 66250.0530000001,
      "d": 416.6670000000013,
      "v": 100
    },
    {
      "midi": 38,
      "hit": false,
      "t": 66250.05300000012,
      "d": 208.33349999999336,
      "v": 100
    },
    {
      "midi": 35,
      "hit": false,
      "t": 66250.05300000012,
      "d": 416.66699999998673,
      "v": 100
    },
    {
      "midi": 36,
      "hit": false,
      "t": 66250.05300000012,
      "d": 208.33349999999336,
      "v": 100
    },
    {
      "midi": 48,
      "hit": false,
      "t": 66354.21974999906,
      "d": 104.16675000000396,
      "v": 100
    },
    {
      "midi": 43,
      "hit": false,
      "t": 66458.38649999906,
      "d": 104.16675000000396,
      "v": 100
    },
    {
      "midi": 72,
      "hit": false,
      "t": 66458.38650000001,
      "d": 104.16675000000396,
      "v": 100
    },
    {
      "midi": 44,
      "hit": false,
      "t": 66458.38650000011,
      "d": 208.33349999999336,
      "v": 100
    },
    {
      "midi": 40,
      "hit": false,
      "t": 66562.55324999907,
      "d": 104.16675000000396,
      "v": 100
    },
    {
      "midi": 70,
      "hit": false,
      "t": 66562.55325000001,
      "d": 104.16675000000396,
      "v": 100
    },
    {
      "midi": 33,
      "hit": false,
      "t": 66666.71999999907,
      "d": 104.16675000000396,
      "v": 100
    },
    {
      "midi": 61,
      "hit": false,
      "t": 66666.71999999999,
      "d": 833.3340000000026,
      "v": 100
    },
    {
      "midi": 69,
      "hit": false,
      "t": 66666.71999999999,
      "d": 833.3340000000026,
      "v": 100
    },
    {
      "midi": 64,
      "hit": false,
      "t": 66666.72000000002,
      "d": 833.3340000000026,
      "v": 100
    },
    {
      "midi": 57,
      "hit": false,
      "t": 66666.72000000002,
      "d": 833.3340000000026,
      "v": 100
    },
    {
      "midi": 73,
      "hit": false,
      "t": 66666.72000000002,
      "d": 833.3340000000026,
      "v": 100
    },
    {
      "midi": 69,
      "hit": false,
      "t": 66666.72000000002,
      "d": 833.3340000000026,
      "v": 100
    },
    {
      "midi": 81,
      "hit": false,
      "t": 66666.7200000001,
      "d": 416.6670000000013,
      "v": 100
    },
    {
      "midi": 35,
      "hit": false,
      "t": 66666.7200000001,
      "d": 416.66699999998673,
      "v": 100
    },
    {
      "midi": 33,
      "hit": false,
      "t": 66666.7200000001,
      "d": 208.33349999999336,
      "v": 100
    },
    {
      "midi": 93,
      "hit": false,
      "t": 66666.7200000001,
      "d": 416.6670000000013,
      "v": 100
    },
    {
      "midi": 33,
      "hit": false,
      "t": 66770.88674999907,
      "d": 104.16675000000396,
      "v": 100
    },
    {
      "midi": 45,
      "hit": false,
      "t": 66875.05349999908,
      "d": 104.16675000000396,
      "v": 100
    },
    {
      "midi": 44,
      "hit": false,
      "t": 66875.0535000001,
      "d": 208.33349999999336,
      "v": 100
    },
    {
      "midi": 45,
      "hit": false,
      "t": 66979.22024999908,
      "d": 104.16675000000396,
      "v": 100
    },
    {
      "midi": 33,
      "hit": false,
      "t": 67083.38699999909,
      "d": 104.16675000000396,
      "v": 100
    },
    {
      "midi": 38,
      "hit": false,
      "t": 67083.38700000009,
      "d": 208.33349999999336,
      "v": 100
    },
    {
      "midi": 35,
      "hit": false,
      "t": 67083.38700000009,
      "d": 416.66699999998673,
      "v": 100
    },
    {
      "midi": 33,
      "hit": false,
      "t": 67083.38700000009,
      "d": 208.33349999999336,
      "v": 100
    },
    {
      "midi": 82,
      "hit": false,
      "t": 67083.3870000001,
      "d": 416.6670000000013,
      "v": 100
    },
    {
      "midi": 94,
      "hit": false,
      "t": 67083.3870000001,
      "d": 416.6670000000013,
      "v": 100
    },
    {
      "midi": 33,
      "hit": false,
      "t": 67187.55374999909,
      "d": 104.16675000000396,
      "v": 100
    },
    {
      "midi": 45,
      "hit": false,
      "t": 67291.7204999991,
      "d": 104.16675000000396,
      "v": 100
    },
    {
      "midi": 44,
      "hit": false,
      "t": 67291.72050000008,
      "d": 208.33349999999336,
      "v": 100
    },
    {
      "midi": 45,
      "hit": false,
      "t": 67395.8872499991,
      "d": 104.16675000000396,
      "v": 100
    },
    {
      "midi": 31,
      "hit": false,
      "t": 67500.0539999991,
      "d": 104.16675000000396,
      "v": 100
    },
    {
      "midi": 61,
      "hit": false,
      "t": 67500.05399999999,
      "d": 833.3340000000026,
      "v": 100
    },
    {
      "midi": 67,
      "hit": false,
      "t": 67500.05399999999,
      "d": 833.3340000000026,
      "v": 100
    },
    {
      "midi": 73,
      "hit": false,
      "t": 67500.05400000002,
      "d": 833.3340000000026,
      "v": 100
    },
    {
      "midi": 67,
      "hit": false,
      "t": 67500.05400000002,
      "d": 833.3340000000026,
      "v": 100
    },
    {
      "midi": 55,
      "hit": false,
      "t": 67500.05400000002,
      "d": 833.3340000000026,
      "v": 100
    },
    {
      "midi": 64,
      "hit": false,
      "t": 67500.05400000002,
      "d": 833.3340000000026,
      "v": 100
    },
    {
      "midi": 67,
      "hit": false,
      "t": 67500.05400000002,
      "d": 833.3340000000026,
      "v": 100
    },
    {
      "midi": 35,
      "hit": false,
      "t": 67500.05400000008,
      "d": 416.66699999998673,
      "v": 100
    },
    {
      "midi": 31,
      "hit": false,
      "t": 67500.05400000008,
      "d": 208.33349999999336,
      "v": 100
    },
    {
      "midi": 81,
      "hit": false,
      "t": 67500.0540000001,
      "d": 208.33349999999336,
      "v": 100
    },
    {
      "midi": 93,
      "hit": false,
      "t": 67500.0540000001,
      "d": 208.33349999999336,
      "v": 100
    },
    {
      "midi": 45,
      "hit": false,
      "t": 67604.2207499991,
      "d": 104.16675000000396,
      "v": 100
    },
    {
      "midi": 31,
      "hit": false,
      "t": 67708.38749999911,
      "d": 104.16675000000396,
      "v": 100
    },
    {
      "midi": 44,
      "hit": false,
      "t": 67708.38750000007,
      "d": 208.33349999999336,
      "v": 100
    },
    {
      "midi": 79,
      "hit": false,
      "t": 67708.3875000001,
      "d": 416.6670000000013,
      "v": 100
    },
    {
      "midi": 91,
      "hit": false,
      "t": 67708.3875000001,
      "d": 416.6670000000013,
      "v": 100
    },
    {
      "midi": 45,
      "hit": false,
      "t": 67812.55424999911,
      "d": 104.16675000000396,
      "v": 100
    },
    {
      "midi": 31,
      "hit": false,
      "t": 67916.72099999912,
      "d": 104.16675000000396,
      "v": 100
    },
    {
      "midi": 38,
      "hit": false,
      "t": 67916.72100000006,
      "d": 208.33349999999336,
      "v": 100
    },
    {
      "midi": 35,
      "hit": false,
      "t": 67916.72100000006,
      "d": 416.66699999998673,
      "v": 100
    },
    {
      "midi": 31,
      "hit": false,
      "t": 67916.72100000006,
      "d": 208.33349999999336,
      "v": 100
    },
    {
      "midi": 45,
      "hit": false,
      "t": 68020.88774999912,
      "d": 104.16675000000396,
      "v": 100
    },
    {
      "midi": 31,
      "hit": false,
      "t": 68125.05449999913,
      "d": 104.16675000000396,
      "v": 100
    },
    {
      "midi": 44,
      "hit": false,
      "t": 68125.05450000006,
      "d": 208.33349999999336,
      "v": 100
    },
    {
      "midi": 77,
      "hit": false,
      "t": 68125.0545000001,
      "d": 625.0004999999946,
      "v": 100
    },
    {
      "midi": 89,
      "hit": false,
      "t": 68125.0545000001,
      "d": 625.0004999999946,
      "v": 100
    },
    {
      "midi": 45,
      "hit": false,
      "t": 68229.22124999913,
      "d": 104.16675000000396,
      "v": 100
    },
    {
      "midi": 38,
      "hit": false,
      "t": 68333.38799999913,
      "d": 104.16675000000396,
      "v": 100
    },
    {
      "midi": 69,
      "hit": false,
      "t": 68333.38799999999,
      "d": 1666.6680000000051,
      "v": 100
    },
    {
      "midi": 62,
      "hit": false,
      "t": 68333.38799999999,
      "d": 1666.6680000000051,
      "v": 100
    },
    {
      "midi": 62,
      "hit": false,
      "t": 68333.38800000002,
      "d": 1666.6680000000051,
      "v": 100
    },
    {
      "midi": 69,
      "hit": false,
      "t": 68333.38800000002,
      "d": 1666.6680000000051,
      "v": 100
    },
    {
      "midi": 77,
      "hit": false,
      "t": 68333.38800000002,
      "d": 1666.6680000000051,
      "v": 100
    },
    {
      "midi": 35,
      "hit": false,
      "t": 68333.38800000005,
      "d": 416.66699999998673,
      "v": 100
    },
    {
      "midi": 38,
      "hit": false,
      "t": 68333.38800000005,
      "d": 208.33349999999336,
      "v": 100
    },
    {
      "midi": 38,
      "hit": false,
      "t": 68437.55474999914,
      "d": 104.16675000000396,
      "v": 100
    },
    {
      "midi": 50,
      "hit": false,
      "t": 68541.72149999914,
      "d": 104.16675000000396,
      "v": 100
    },
    {
      "midi": 77,
      "hit": false,
      "t": 68541.72150000001,
      "d": 104.16675000000396,
      "v": 100
    },
    {
      "midi": 74,
      "hit": false,
      "t": 68541.72150000001,
      "d": 104.16675000000396,
      "v": 100
    },
    {
      "midi": 44,
      "hit": false,
      "t": 68541.72150000004,
      "d": 208.33349999999336,
      "v": 100
    },
    {
      "midi": 62,
      "hit": false,
      "t": 68645.88824999915,
      "d": 104.16675000000396,
      "v": 100
    },
    {
      "midi": 36,
      "hit": false,
      "t": 68750.05499999915,
      "d": 104.16675000000396,
      "v": 100
    },
    {
      "midi": 76,
      "hit": false,
      "t": 68750.05500000002,
      "d": 208.33349999999336,
      "v": 100
    },
    {
      "midi": 72,
      "hit": false,
      "t": 68750.05500000002,
      "d": 208.33349999999336,
      "v": 100
    },
    {
      "midi": 38,
      "hit": false,
      "t": 68750.05500000004,
      "d": 208.33349999999336,
      "v": 100
    },
    {
      "midi": 35,
      "hit": false,
      "t": 68750.05500000004,
      "d": 416.66699999998673,
      "v": 100
    },
    {
      "midi": 38,
      "hit": false,
      "t": 68750.05500000004,
      "d": 208.33349999999336,
      "v": 100
    },
    {
      "midi": 38,
      "hit": false,
      "t": 68854.22174999915,
      "d": 104.16675000000396,
      "v": 100
    },
    {
      "midi": 50,
      "hit": false,
      "t": 68958.38849999916,
      "d": 104.16675000000396,
      "v": 100
    },
    {
      "midi": 77,
      "hit": false,
      "t": 68958.38850000002,
      "d": 104.16675000000396,
      "v": 100
    },
    {
      "midi": 74,
      "hit": false,
      "t": 68958.38850000002,
      "d": 104.16675000000396,
      "v": 100
    },
    {
      "midi": 44,
      "hit": false,
      "t": 68958.38850000003,
      "d": 208.33349999999336,
      "v": 100
    },
    {
      "midi": 50,
      "hit": false,
      "t": 69062.55524999916,
      "d": 104.16675000000396,
      "v": 100
    },
    {
      "midi": 38,
      "hit": false,
      "t": 69166.72199999916,
      "d": 104.16675000000396,
      "v": 100
    },
    {
      "midi": 35,
      "hit": false,
      "t": 69166.72200000002,
      "d": 416.66699999998673,
      "v": 100
    },
    {
      "midi": 38,
      "hit": false,
      "t": 69166.72200000002,
      "d": 208.33349999999336,
      "v": 100
    },
    {
      "midi": 74,
      "hit": false,
      "t": 69166.7220000001,
      "d": 416.6670000000013,
      "v": 100
    },
    {
      "midi": 86,
      "hit": false,
      "t": 69166.7220000001,
      "d": 416.6670000000013,
      "v": 100
    },
    {
      "midi": 33,
      "hit": false,
      "t": 69270.88874999917,
      "d": 104.16675000000396,
      "v": 100
    },
    {
      "midi": 38,
      "hit": false,
      "t": 69375.05549999917,
      "d": 104.16675000000396,
      "v": 100
    },
    {
      "midi": 44,
      "hit": false,
      "t": 69375.05550000002,
      "d": 208.33349999999336,
      "v": 100
    },
    {
      "midi": 50,
      "hit": false,
      "t": 69479.22224999918,
      "d": 104.16675000000396,
      "v": 100
    },
    {
      "midi": 38,
      "hit": false,
      "t": 69583.38899999918,
      "d": 104.16675000000396,
      "v": 100
    },
    {
      "midi": 38,
      "hit": false,
      "t": 69583.38900000001,
      "d": 208.33349999999336,
      "v": 100
    },
    {
      "midi": 35,
      "hit": false,
      "t": 69583.38900000001,
      "d": 416.66699999998673,
      "v": 100
    },
    {
      "midi": 38,
      "hit": false,
      "t": 69583.38900000001,
      "d": 208.33349999999336,
      "v": 100
    },
    {
      "midi": 81,
      "hit": false,
      "t": 69583.3890000001,
      "d": 416.6670000000013,
      "v": 100
    },
    {
      "midi": 93,
      "hit": false,
      "t": 69583.3890000001,
      "d": 416.6670000000013,
      "v": 100
    },
    {
      "midi": 38,
      "hit": false,
      "t": 69687.55574999918,
      "d": 104.16675000000396,
      "v": 100
    },
    {
      "midi": 50,
      "hit": false,
      "t": 69791.72249999919,
      "d": 104.16675000000396,
      "v": 100
    },
    {
      "midi": 44,
      "hit": false,
      "t": 69791.7225,
      "d": 208.33349999999336,
      "v": 100
    },
    {
      "midi": 50,
      "hit": false,
      "t": 69895.88924999919,
      "d": 104.16675000000396,
      "v": 100
    },
    {
      "midi": 31,
      "hit": false,
      "t": 70000.0559999992,
      "d": 104.16675000000396,
      "v": 100
    },
    {
      "midi": 70,
      "hit": false,
      "t": 70000.056,
      "d": 1666.6680000000051,
      "v": 100
    },
    {
      "midi": 62,
      "hit": false,
      "t": 70000.056,
      "d": 1666.6680000000051,
      "v": 100
    },
    {
      "midi": 35,
      "hit": false,
      "t": 70000.056,
      "d": 416.66699999998673,
      "v": 100
    },
    {
      "midi": 31,
      "hit": false,
      "t": 70000.056,
      "d": 208.33349999999336,
      "v": 100
    },
    {
      "midi": 58,
      "hit": false,
      "t": 70000.05600000003,
      "d": 1666.6680000000051,
      "v": 100
    },
    {
      "midi": 74,
      "hit": false,
      "t": 70000.05600000003,
      "d": 1666.6680000000051,
      "v": 100
    },
    {
      "midi": 67,
      "hit": false,
      "t": 70000.05600000003,
      "d": 1666.6680000000051,
      "v": 100
    },
    {
      "midi": 81,
      "hit": false,
      "t": 70000.0560000001,
      "d": 416.6670000000013,
      "v": 100
    },
    {
      "midi": 93,
      "hit": false,
      "t": 70000.0560000001,
      "d": 416.6670000000013,
      "v": 100
    },
    {
      "midi": 31,
      "hit": false,
      "t": 70104.2227499992,
      "d": 104.16675000000396,
      "v": 100
    },
    {
      "midi": 43,
      "hit": false,
      "t": 70208.3894999992,
      "d": 104.16675000000396,
      "v": 100
    },
    {
      "midi": 44,
      "hit": false,
      "t": 70208.38949999999,
      "d": 208.33349999999336,
      "v": 100
    },
    {
      "midi": 77,
      "hit": false,
      "t": 70208.38950000002,
      "d": 104.16675000000396,
      "v": 100
    },
    {
      "midi": 74,
      "hit": false,
      "t": 70208.38950000002,
      "d": 104.16675000000396,
      "v": 100
    },
    {
      "midi": 43,
      "hit": false,
      "t": 70312.55624999921,
      "d": 104.16675000000396,
      "v": 100
    },
    {
      "midi": 31,
      "hit": false,
      "t": 70416.72299999921,
      "d": 104.16675000000396,
      "v": 100
    },
    {
      "midi": 38,
      "hit": false,
      "t": 70416.72299999998,
      "d": 208.33349999999336,
      "v": 100
    },
    {
      "midi": 35,
      "hit": false,
      "t": 70416.72299999998,
      "d": 416.66699999998673,
      "v": 100
    },
    {
      "midi": 31,
      "hit": false,
      "t": 70416.72299999998,
      "d": 208.33349999999336,
      "v": 100
    },
    {
      "midi": 76,
      "hit": false,
      "t": 70416.72300000003,
      "d": 208.33349999999336,
      "v": 100
    },
    {
      "midi": 72,
      "hit": false,
      "t": 70416.72300000003,
      "d": 208.33349999999336,
      "v": 100
    },
    {
      "midi": 82,
      "hit": false,
      "t": 70416.7230000001,
      "d": 208.33349999999336,
      "v": 100
    },
    {
      "midi": 94,
      "hit": false,
      "t": 70416.7230000001,
      "d": 208.33349999999336,
      "v": 100
    },
    {
      "midi": 43,
      "hit": false,
      "t": 70520.88974999922,
      "d": 104.16675000000396,
      "v": 100
    },
    {
      "midi": 55,
      "hit": false,
      "t": 70625.05649999922,
      "d": 104.16675000000396,
      "v": 100
    },
    {
      "midi": 44,
      "hit": false,
      "t": 70625.05649999998,
      "d": 208.33349999999336,
      "v": 100
    },
    {
      "midi": 77,
      "hit": false,
      "t": 70625.05650000002,
      "d": 104.16675000000396,
      "v": 100
    },
    {
      "midi": 74,
      "hit": false,
      "t": 70625.05650000002,
      "d": 104.16675000000396,
      "v": 100
    },
    {
      "midi": 74,
      "hit": false,
      "t": 70625.0565000001,
      "d": 416.6670000000013,
      "v": 100
    },
    {
      "midi": 86,
      "hit": false,
      "t": 70625.0565000001,
      "d": 416.6670000000013,
      "v": 100
    },
    {
      "midi": 31,
      "hit": false,
      "t": 70729.22324999922,
      "d": 104.16675000000396,
      "v": 100
    },
    {
      "midi": 31,
      "hit": false,
      "t": 70833.38999999923,
      "d": 104.16675000000396,
      "v": 100
    },
    {
      "midi": 35,
      "hit": false,
      "t": 70833.38999999997,
      "d": 416.66699999998673,
      "v": 100
    },
    {
      "midi": 31,
      "hit": false,
      "t": 70833.38999999997,
      "d": 208.33349999999336,
      "v": 100
    },
    {
      "midi": 31,
      "hit": false,
      "t": 70937.55674999923,
      "d": 104.16675000000396,
      "v": 100
    },
    {
      "midi": 43,
      "hit": false,
      "t": 71041.72349999924,
      "d": 104.16675000000396,
      "v": 100
    },
    {
      "midi": 44,
      "hit": false,
      "t": 71041.72349999996,
      "d": 208.33349999999336,
      "v": 100
    },
    {
      "midi": 77,
      "hit": false,
      "t": 71041.72350000002,
      "d": 104.16675000000396,
      "v": 100
    },
    {
      "midi": 74,
      "hit": false,
      "t": 71041.72350000002,
      "d": 104.16675000000396,
      "v": 100
    },
    {
      "midi": 76,
      "hit": false,
      "t": 71041.7235000001,
      "d": 208.33349999999336,
      "v": 100
    },
    {
      "midi": 88,
      "hit": false,
      "t": 71041.7235000001,
      "d": 208.33349999999336,
      "v": 100
    },
    {
      "midi": 43,
      "hit": false,
      "t": 71145.89024999924,
      "d": 104.16675000000396,
      "v": 100
    },
    {
      "midi": 31,
      "hit": false,
      "t": 71250.05699999924,
      "d": 104.16675000000396,
      "v": 100
    },
    {
      "midi": 38,
      "hit": false,
      "t": 71250.05699999996,
      "d": 208.33349999999336,
      "v": 100
    },
    {
      "midi": 35,
      "hit": false,
      "t": 71250.05699999996,
      "d": 416.66699999998673,
      "v": 100
    },
    {
      "midi": 31,
      "hit": false,
      "t": 71250.05699999996,
      "d": 208.33349999999336,
      "v": 100
    },
    {
      "midi": 77,
      "hit": false,
      "t": 71250.05700000009,
      "d": 416.6670000000013,
      "v": 100
    },
    {
      "midi": 89,
      "hit": false,
      "t": 71250.05700000009,
      "d": 416.6670000000013,
      "v": 100
    },
    {
      "midi": 43,
      "hit": false,
      "t": 71354.22374999925,
      "d": 104.16675000000396,
      "v": 100
    },
    {
      "midi": 43,
      "hit": false,
      "t": 71458.39049999925,
      "d": 104.16675000000396,
      "v": 100
    },
    {
      "midi": 44,
      "hit": false,
      "t": 71458.39049999995,
      "d": 208.33349999999336,
      "v": 100
    },
    {
      "midi": 31,
      "hit": false,
      "t": 71562.55724999926,
      "d": 104.16675000000396,
      "v": 100
    },
    {
      "midi": 36,
      "hit": false,
      "t": 71666.72399999926,
      "d": 104.16675000000396,
      "v": 100
    },
    {
      "midi": 35,
      "hit": false,
      "t": 71666.72399999994,
      "d": 416.66699999998673,
      "v": 100
    },
    {
      "midi": 36,
      "hit": false,
      "t": 71666.72399999994,
      "d": 208.33349999999336,
      "v": 100
    },
    {
      "midi": 60,
      "hit": false,
      "t": 71666.724,
      "d": 833.3340000000026,
      "v": 100
    },
    {
      "midi": 67,
      "hit": false,
      "t": 71666.724,
      "d": 833.3340000000026,
      "v": 100
    },
    {
      "midi": 60,
      "hit": false,
      "t": 71666.72400000003,
      "d": 833.3340000000026,
      "v": 100
    },
    {
      "midi": 67,
      "hit": false,
      "t": 71666.72400000003,
      "d": 833.3340000000026,
      "v": 100
    },
    {
      "midi": 76,
      "hit": false,
      "t": 71666.72400000003,
      "d": 833.3340000000026,
      "v": 100
    },
    {
      "midi": 79,
      "hit": false,
      "t": 71666.72400000009,
      "d": 416.6670000000013,
      "v": 100
    },
    {
      "midi": 91,
      "hit": false,
      "t": 71666.72400000009,
      "d": 416.6670000000013,
      "v": 100
    },
    {
      "midi": 36,
      "hit": false,
      "t": 71770.89074999926,
      "d": 104.16675000000396,
      "v": 100
    },
    {
      "midi": 48,
      "hit": false,
      "t": 71875.05749999927,
      "d": 104.16675000000396,
      "v": 100
    },
    {
      "midi": 44,
      "hit": false,
      "t": 71875.05749999994,
      "d": 208.33349999999336,
      "v": 100
    },
    {
      "midi": 76,
      "hit": false,
      "t": 71875.05750000002,
      "d": 104.16675000000396,
      "v": 100
    },
    {
      "midi": 72,
      "hit": false,
      "t": 71875.05750000002,
      "d": 104.16675000000396,
      "v": 100
    },
    {
      "midi": 48,
      "hit": false,
      "t": 71979.22424999927,
      "d": 104.16675000000396,
      "v": 100
    },
    {
      "midi": 36,
      "hit": false,
      "t": 72083.39099999928,
      "d": 104.16675000000396,
      "v": 100
    },
    {
      "midi": 38,
      "hit": false,
      "t": 72083.39099999993,
      "d": 208.33349999999336,
      "v": 100
    },
    {
      "midi": 35,
      "hit": false,
      "t": 72083.39099999993,
      "d": 416.66699999998673,
      "v": 100
    },
    {
      "midi": 36,
      "hit": false,
      "t": 72083.39099999993,
      "d": 208.33349999999336,
      "v": 100
    },
    {
      "midi": 77,
      "hit": false,
      "t": 72083.39100000009,
      "d": 416.6670000000013,
      "v": 100
    },
    {
      "midi": 89,
      "hit": false,
      "t": 72083.39100000009,
      "d": 416.6670000000013,
      "v": 100
    },
    {
      "midi": 48,
      "hit": false,
      "t": 72187.55774999928,
      "d": 104.16675000000396,
      "v": 100
    },
    {
      "midi": 43,
      "hit": false,
      "t": 72291.72449999928,
      "d": 104.16675000000396,
      "v": 100
    },
    {
      "midi": 44,
      "hit": false,
      "t": 72291.72449999992,
      "d": 208.33349999999336,
      "v": 100
    },
    {
      "midi": 76,
      "hit": false,
      "t": 72291.72450000003,
      "d": 104.16675000000396,
      "v": 100
    },
    {
      "midi": 72,
      "hit": false,
      "t": 72291.72450000003,
      "d": 104.16675000000396,
      "v": 100
    },
    {
      "midi": 40,
      "hit": false,
      "t": 72395.89124999929,
      "d": 104.16675000000396,
      "v": 100
    },
    {
      "midi": 33,
      "hit": false,
      "t": 72500.05799999929,
      "d": 104.16675000000396,
      "v": 100
    },
    {
      "midi": 35,
      "hit": false,
      "t": 72500.05799999992,
      "d": 416.66699999998673,
      "v": 100
    },
    {
      "midi": 33,
      "hit": false,
      "t": 72500.05799999992,
      "d": 208.33349999999336,
      "v": 100
    },
    {
      "midi": 69,
      "hit": false,
      "t": 72500.058,
      "d": 833.3340000000026,
      "v": 100
    },
    {
      "midi": 60,
      "hit": false,
      "t": 72500.058,
      "d": 833.3340000000026,
      "v": 100
    },
    {
      "midi": 76,
      "hit": false,
      "t": 72500.05800000003,
      "d": 833.3340000000026,
      "v": 100
    },
    {
      "midi": 69,
      "hit": false,
      "t": 72500.05800000003,
      "d": 833.3340000000026,
      "v": 100
    },
    {
      "midi": 60,
      "hit": false,
      "t": 72500.05800000003,
      "d": 833.3340000000026,
      "v": 100
    },
    {
      "midi": 76,
      "hit": false,
      "t": 72500.05800000009,
      "d": 208.33349999999336,
      "v": 100
    },
    {
      "midi": 88,
      "hit": false,
      "t": 72500.05800000009,
      "d": 208.33349999999336,
      "v": 100
    },
    {
      "midi": 45,
      "hit": false,
      "t": 72604.2247499993,
      "d": 104.16675000000396,
      "v": 100
    },
    {
      "midi": 45,
      "hit": false,
      "t": 72708.3914999993,
      "d": 104.16675000000396,
      "v": 100
    },
    {
      "midi": 44,
      "hit": false,
      "t": 72708.39149999991,
      "d": 208.33349999999336,
      "v": 100
    },
    {
      "midi": 74,
      "hit": false,
      "t": 72708.39150000009,
      "d": 208.33349999999336,
      "v": 100
    },
    {
      "midi": 86,
      "hit": false,
      "t": 72708.39150000009,
      "d": 208.33349999999336,
      "v": 100
    },
    {
      "midi": 33,
      "hit": false,
      "t": 72812.5582499993,
      "d": 104.16675000000396,
      "v": 100
    },
    {
      "midi": 33,
      "hit": false,
      "t": 72916.72499999931,
      "d": 104.16675000000396,
      "v": 100
    },
    {
      "midi": 38,
      "hit": false,
      "t": 72916.7249999999,
      "d": 208.33349999999336,
      "v": 100
    },
    {
      "midi": 35,
      "hit": false,
      "t": 72916.7249999999,
      "d": 416.66699999998673,
      "v": 100
    },
    {
      "midi": 33,
      "hit": false,
      "t": 72916.7249999999,
      "d": 208.33349999999336,
      "v": 100
    },
    {
      "midi": 72,
      "hit": false,
      "t": 72916.72500000008,
      "d": 208.33349999999336,
      "v": 100
    },
    {
      "midi": 84,
      "hit": false,
      "t": 72916.72500000008,
      "d": 208.33349999999336,
      "v": 100
    },
    {
      "midi": 43,
      "hit": false,
      "t": 73020.89174999931,
      "d": 104.16675000000396,
      "v": 100
    },
    {
      "midi": 40,
      "hit": false,
      "t": 73125.05849999932,
      "d": 104.16675000000396,
      "v": 100
    },
    {
      "midi": 44,
      "hit": false,
      "t": 73125.0584999999,
      "d": 208.33349999999336,
      "v": 100
    },
    {
      "midi": 74,
      "hit": false,
      "t": 73125.05850000007,
      "d": 1875.0014999999985,
      "v": 100
    },
    {
      "midi": 86,
      "hit": false,
      "t": 73125.05850000007,
      "d": 1875.0014999999985,
      "v": 100
    },
    {
      "midi": 36,
      "hit": false,
      "t": 73229.22524999932,
      "d": 104.16675000000396,
      "v": 100
    },
    {
      "midi": 38,
      "hit": false,
      "t": 73333.39199999932,
      "d": 104.16675000000396,
      "v": 100
    },
    {
      "midi": 35,
      "hit": false,
      "t": 73333.39199999989,
      "d": 416.66699999998673,
      "v": 100
    },
    {
      "midi": 38,
      "hit": false,
      "t": 73333.39199999989,
      "d": 208.33349999999336,
      "v": 100
    },
    {
      "midi": 62,
      "hit": false,
      "t": 73333.392,
      "d": 3333.3359999999957,
      "v": 100
    },
    {
      "midi": 69,
      "hit": false,
      "t": 73333.392,
      "d": 3333.3359999999957,
      "v": 100
    },
    {
      "midi": 69,
      "hit": false,
      "t": 73333.39200000004,
      "d": 3333.336000000025,
      "v": 100
    },
    {
      "midi": 77,
      "hit": false,
      "t": 73333.39200000004,
      "d": 3333.336000000025,
      "v": 100
    },
    {
      "midi": 62,
      "hit": false,
      "t": 73333.39200000004,
      "d": 3333.336000000025,
      "v": 100
    },
    {
      "midi": 44,
      "hit": false,
      "t": 73541.72549999988,
      "d": 208.33349999999336,
      "v": 100
    },
    {
      "midi": 38,
      "hit": false,
      "t": 73750.05899999988,
      "d": 208.33349999999336,
      "v": 100
    },
    {
      "midi": 35,
      "hit": false,
      "t": 73750.05899999988,
      "d": 416.66699999998673,
      "v": 100
    },
    {
      "midi": 38,
      "hit": false,
      "t": 73750.05899999988,
      "d": 208.33349999999336,
      "v": 100
    },
    {
      "midi": 44,
      "hit": false,
      "t": 73958.39249999987,
      "d": 208.33349999999336,
      "v": 100
    },
    {
      "midi": 35,
      "hit": false,
      "t": 74166.72599999986,
      "d": 416.66699999998673,
      "v": 100
    },
    {
      "midi": 38,
      "hit": false,
      "t": 74166.72599999986,
      "d": 208.33349999999336,
      "v": 100
    },
    {
      "midi": 44,
      "hit": false,
      "t": 74375.05949999986,
      "d": 208.33349999999336,
      "v": 100
    },
    {
      "midi": 38,
      "hit": false,
      "t": 74583.39299999985,
      "d": 208.33349999999336,
      "v": 100
    },
    {
      "midi": 35,
      "hit": false,
      "t": 74583.39299999985,
      "d": 416.66699999998673,
      "v": 100
    },
    {
      "midi": 38,
      "hit": false,
      "t": 74583.39299999985,
      "d": 208.33349999999336,
      "v": 100
    },
    {
      "midi": 44,
      "hit": false,
      "t": 74791.72649999984,
      "d": 208.33349999999336,
      "v": 100
    },
    {
      "midi": 35,
      "hit": false,
      "t": 75000.05999999984,
      "d": 416.6670000000013,
      "v": 100
    },
    {
      "midi": 38,
      "hit": false,
      "t": 75000.05999999984,
      "d": 208.33349999999336,
      "v": 100
    },
    {
      "midi": 38,
      "hit": false,
      "t": 75208.39349999983,
      "d": 104.16675000000396,
      "v": 100
    },
    {
      "midi": 38,
      "hit": false,
      "t": 75312.56024999983,
      "d": 104.16675000000396,
      "v": 100
    },
    {
      "midi": 38,
      "hit": false,
      "t": 75416.72699999982,
      "d": 208.33349999999336,
      "v": 100
    },
    {
      "midi": 38,
      "hit": false,
      "t": 75416.72699999984,
      "d": 104.16675000000396,
      "v": 100
    },
    {
      "midi": 35,
      "hit": false,
      "t": 75416.72699999984,
      "d": 416.66700000001583,
      "v": 100
    },
    {
      "midi": 38,
      "hit": false,
      "t": 75520.89374999984,
      "d": 104.16675000000396,
      "v": 100
    },
    {
      "midi": 38,
      "hit": false,
      "t": 75625.06049999985,
      "d": 104.16675000000396,
      "v": 100
    },
    {
      "midi": 38,
      "hit": false,
      "t": 75729.22724999985,
      "d": 104.16675000000396,
      "v": 100
    },
    {
      "midi": 38,
      "hit": false,
      "t": 75833.39399999933,
      "d": 104.16675000000396,
      "v": 100
    },
    {
      "midi": 38,
      "hit": false,
      "t": 75833.39399999981,
      "d": 208.33349999999336,
      "v": 100
    },
    {
      "midi": 38,
      "hit": false,
      "t": 75833.39399999985,
      "d": 104.16675000000396,
      "v": 100
    },
    {
      "midi": 35,
      "hit": false,
      "t": 75833.39399999985,
      "d": 416.66700000001583,
      "v": 100
    },
    {
      "midi": 74,
      "hit": false,
      "t": 75833.39400000003,
      "d": 104.16675000000396,
      "v": 100
    },
    {
      "midi": 38,
      "hit": false,
      "t": 75833.39400000003,
      "d": 104.16675000000396,
      "v": 100
    },
    {
      "midi": 38,
      "hit": false,
      "t": 75937.56074999933,
      "d": 104.16675000000396,
      "v": 100
    },
    {
      "midi": 38,
      "hit": false,
      "t": 75937.56074999986,
      "d": 104.16675000000396,
      "v": 100
    },
    {
      "midi": 74,
      "hit": false,
      "t": 75937.56075000003,
      "d": 104.16675000000396,
      "v": 100
    },
    {
      "midi": 38,
      "hit": false,
      "t": 75937.56075000003,
      "d": 104.16675000000396,
      "v": 100
    },
    {
      "midi": 57,
      "hit": false,
      "t": 76041.72749999934,
      "d": 104.16675000000396,
      "v": 100
    },
    {
      "midi": 38,
      "hit": false,
      "t": 76041.72749999986,
      "d": 104.16675000000396,
      "v": 100
    },
    {
      "midi": 93,
      "hit": false,
      "t": 76041.72750000004,
      "d": 104.16675000000396,
      "v": 100
    },
    {
      "midi": 57,
      "hit": false,
      "t": 76041.72750000004,
      "d": 104.16675000000396,
      "v": 100
    },
    {
      "midi": 62,
      "hit": false,
      "t": 76145.89424999934,
      "d": 104.16675000000396,
      "v": 100
    },
    {
      "midi": 38,
      "hit": false,
      "t": 76145.89424999987,
      "d": 104.16675000000396,
      "v": 100
    },
    {
      "midi": 98,
      "hit": false,
      "t": 76145.89425000004,
      "d": 104.16675000000396,
      "v": 100
    },
    {
      "midi": 62,
      "hit": false,
      "t": 76145.89425000004,
      "d": 104.16675000000396,
      "v": 100
    },
    {
      "midi": 65,
      "hit": false,
      "t": 76250.06099999935,
      "d": 104.16675000000396,
      "v": 100
    },
    {
      "midi": 38,
      "hit": false,
      "t": 76250.0609999998,
      "d": 208.33349999999336,
      "v": 100
    },
    {
      "midi": 38,
      "hit": false,
      "t": 76250.06099999987,
      "d": 104.16675000000396,
      "v": 100
    },
    {
      "midi": 35,
      "hit": false,
      "t": 76250.06099999987,
      "d": 416.66700000001583,
      "v": 100
    },
    {
      "midi": 101,
      "hit": false,
      "t": 76250.06100000005,
      "d": 104.16675000000396,
      "v": 100
    },
    {
      "midi": 65,
      "hit": false,
      "t": 76250.06100000005,
      "d": 104.16675000000396,
      "v": 100
    },
    {
      "midi": 57,
      "hit": false,
      "t": 76354.22774999935,
      "d": 104.16675000000396,
      "v": 100
    },
    {
      "midi": 38,
      "hit": false,
      "t": 76354.22774999987,
      "d": 104.16675000000396,
      "v": 100
    },
    {
      "midi": 93,
      "hit": false,
      "t": 76354.22775000005,
      "d": 104.16675000000396,
      "v": 100
    },
    {
      "midi": 57,
      "hit": false,
      "t": 76354.22775000005,
      "d": 104.16675000000396,
      "v": 100
    },
    {
      "midi": 53,
      "hit": false,
      "t": 76458.39449999935,
      "d": 104.16675000000396,
      "v": 100
    },
    {
      "midi": 38,
      "hit": false,
      "t": 76458.39449999988,
      "d": 104.16675000000396,
      "v": 100
    },
    {
      "midi": 89,
      "hit": false,
      "t": 76458.39450000005,
      "d": 104.16675000000396,
      "v": 100
    },
    {
      "midi": 53,
      "hit": false,
      "t": 76458.39450000005,
      "d": 104.16675000000396,
      "v": 100
    },
    {
      "midi": 50,
      "hit": false,
      "t": 76562.56124999936,
      "d": 104.16675000000396,
      "v": 100
    },
    {
      "midi": 38,
      "hit": false,
      "t": 76562.56124999988,
      "d": 104.16675000000396,
      "v": 100
    },
    {
      "midi": 86,
      "hit": false,
      "t": 76562.56125000006,
      "d": 104.16675000000396,
      "v": 100
    },
    {
      "midi": 50,
      "hit": false,
      "t": 76562.56125000006,
      "d": 104.16675000000396,
      "v": 100
    },
    {
      "midi": 74,
      "hit": false,
      "t": 76666.72799999936,
      "d": 729.1672499999986,
      "v": 100
    },
    {
      "midi": 38,
      "hit": false,
      "t": 76666.72799999978,
      "d": 1666.6680000000051,
      "v": 100
    },
    {
      "midi": 35,
      "hit": false,
      "t": 76666.72799999989,
      "d": 416.66699999998673,
      "v": 100
    },
    {
      "midi": 62,
      "hit": false,
      "t": 76666.728,
      "d": 1666.6680000000051,
      "v": 100
    },
    {
      "midi": 57,
      "hit": false,
      "t": 76666.728,
      "d": 1666.6680000000051,
      "v": 100
    },
    {
      "midi": 74,
      "hit": false,
      "t": 76666.728,
      "d": 729.1672499999986,
      "v": 100
    },
    {
      "midi": 50,
      "hit": false,
      "t": 76666.72800000006,
      "d": 1666.6680000000051,
      "v": 100
    },
    {
      "midi": 53,
      "hit": false,
      "t": 76666.72800000006,
      "d": 1666.6680000000051,
      "v": 100
    },
    {
      "midi": 38,
      "hit": false,
      "t": 76666.72800000006,
      "d": 1666.6680000000051,
      "v": 100
    },
    {
      "midi": 54,
      "hit": false,
      "t": 76875.06149999988,
      "d": 208.33349999999336,
      "v": 100
    },
    {
      "midi": 44,
      "hit": false,
      "t": 76875.06149999988,
      "d": 208.33349999999336,
      "v": 100
    },
    {
      "midi": 44,
      "hit": false,
      "t": 77083.39499999987,
      "d": 208.33349999999336,
      "v": 100
    },
    {
      "midi": 35,
      "hit": false,
      "t": 77083.39499999987,
      "d": 416.66699999998673,
      "v": 100
    },
    {
      "midi": 54,
      "hit": false,
      "t": 77291.72849999987,
      "d": 208.33349999999336,
      "v": 100
    },
    {
      "midi": 69,
      "hit": false,
      "t": 77395.89524999936,
      "d": 520.8337500000052,
      "v": 100
    },
    {
      "midi": 69,
      "hit": false,
      "t": 77395.89525,
      "d": 520.8337500000052,
      "v": 100
    },
    {
      "midi": 72,
      "hit": false,
      "t": 77447.97862499936,
      "d": 52.08337500000198,
      "v": 100
    },
    {
      "midi": 72,
      "hit": false,
      "t": 77447.978625,
      "d": 52.08337500000198,
      "v": 100
    },
    {
      "midi": 74,
      "hit": false,
      "t": 77500.06199999937,
      "d": 277.7780000000057,
      "v": 100
    },
    {
      "midi": 44,
      "hit": false,
      "t": 77500.06199999986,
      "d": 104.16675000000396,
      "v": 100
    },
    {
      "midi": 35,
      "hit": false,
      "t": 77500.06199999986,
      "d": 416.6670000000013,
      "v": 100
    },
    {
      "midi": 74,
      "hit": false,
      "t": 77500.062,
      "d": 277.7780000000057,
      "v": 100
    },
    {
      "midi": 44,
      "hit": false,
      "t": 77604.22874999986,
      "d": 104.16675000000396,
      "v": 100
    },
    {
      "midi": 54,
      "hit": false,
      "t": 77708.39549999987,
      "d": 208.33349999999336,
      "v": 100
    },
    {
      "midi": 76,
      "hit": false,
      "t": 77777.83999999937,
      "d": 277.77799999999115,
      "v": 100
    },
    {
      "midi": 76,
      "hit": false,
      "t": 77777.84000000001,
      "d": 277.77799999999115,
      "v": 100
    },
    {
      "midi": 44,
      "hit": false,
      "t": 77916.72899999986,
      "d": 208.33349999999336,
      "v": 100
    },
    {
      "midi": 35,
      "hit": false,
      "t": 77916.72899999986,
      "d": 416.66699999998673,
      "v": 100
    },
    {
      "midi": 77,
      "hit": false,
      "t": 78055.61799999936,
      "d": 277.7780000000057,
      "v": 100
    },
    {
      "midi": 77,
      "hit": false,
      "t": 78055.618,
      "d": 277.7780000000057,
      "v": 100
    },
    {
      "midi": 54,
      "hit": false,
      "t": 78125.06249999985,
      "d": 208.33349999999336,
      "v": 100
    },
    {
      "midi": 69,
      "hit": false,
      "t": 78229.22924999936,
      "d": 520.8337500000052,
      "v": 100
    },
    {
      "midi": 69,
      "hit": false,
      "t": 78229.22925,
      "d": 520.8337500000052,
      "v": 100
    },
    {
      "midi": 72,
      "hit": false,
      "t": 78281.31262499937,
      "d": 52.08337500000198,
      "v": 100
    },
    {
      "midi": 72,
      "hit": false,
      "t": 78281.312625,
      "d": 52.08337500000198,
      "v": 100
    },
    {
      "midi": 74,
      "hit": false,
      "t": 78333.39599999937,
      "d": 729.1672499999986,
      "v": 100
    },
    {
      "midi": 38,
      "hit": false,
      "t": 78333.39599999979,
      "d": 1666.6680000000051,
      "v": 100
    },
    {
      "midi": 35,
      "hit": false,
      "t": 78333.39599999985,
      "d": 416.66699999998673,
      "v": 100
    },
    {
      "midi": 62,
      "hit": false,
      "t": 78333.39600000001,
      "d": 833.3340000000026,
      "v": 100
    },
    {
      "midi": 57,
      "hit": false,
      "t": 78333.39600000001,
      "d": 833.3340000000026,
      "v": 100
    },
    {
      "midi": 74,
      "hit": false,
      "t": 78333.39600000001,
      "d": 729.1672499999986,
      "v": 100
    },
    {
      "midi": 53,
      "hit": false,
      "t": 78333.39600000007,
      "d": 1666.6680000000051,
      "v": 100
    },
    {
      "midi": 50,
      "hit": false,
      "t": 78333.39600000007,
      "d": 1666.6680000000051,
      "v": 100
    },
    {
      "midi": 38,
      "hit": false,
      "t": 78333.39600000007,
      "d": 1666.6680000000051,
      "v": 100
    },
    {
      "midi": 54,
      "hit": false,
      "t": 78541.72949999984,
      "d": 208.33349999999336,
      "v": 100
    },
    {
      "midi": 44,
      "hit": false,
      "t": 78541.72949999984,
      "d": 208.33349999999336,
      "v": 100
    },
    {
      "midi": 44,
      "hit": false,
      "t": 78750.06299999983,
      "d": 208.33349999999336,
      "v": 100
    },
    {
      "midi": 35,
      "hit": false,
      "t": 78750.06299999983,
      "d": 416.66699999998673,
      "v": 100
    },
    {
      "midi": 54,
      "hit": false,
      "t": 78958.39649999983,
      "d": 208.33349999999336,
      "v": 100
    },
    {
      "midi": 69,
      "hit": false,
      "t": 79062.56324999937,
      "d": 520.8337500000052,
      "v": 100
    },
    {
      "midi": 69,
      "hit": false,
      "t": 79062.56325,
      "d": 520.8337500000052,
      "v": 100
    },
    {
      "midi": 72,
      "hit": false,
      "t": 79114.64662499937,
      "d": 52.08337500000198,
      "v": 100
    },
    {
      "midi": 72,
      "hit": false,
      "t": 79114.64662500001,
      "d": 52.08337500000198,
      "v": 100
    },
    {
      "midi": 74,
      "hit": false,
      "t": 79166.72999999937,
      "d": 277.7780000000057,
      "v": 100
    },
    {
      "midi": 44,
      "hit": false,
      "t": 79166.72999999982,
      "d": 104.16675000000396,
      "v": 100
    },
    {
      "midi": 35,
      "hit": false,
      "t": 79166.72999999982,
      "d": 416.6670000000013,
      "v": 100
    },
    {
      "midi": 62,
      "hit": false,
      "t": 79166.73000000001,
      "d": 277.7780000000057,
      "v": 100
    },
    {
      "midi": 57,
      "hit": false,
      "t": 79166.73000000001,
      "d": 277.7780000000057,
      "v": 100
    },
    {
      "midi": 74,
      "hit": false,
      "t": 79166.73000000001,
      "d": 277.7780000000057,
      "v": 100
    },
    {
      "midi": 44,
      "hit": false,
      "t": 79270.89674999983,
      "d": 104.16675000000396,
      "v": 100
    },
    {
      "midi": 54,
      "hit": false,
      "t": 79375.06349999983,
      "d": 208.33349999999336,
      "v": 100
    },
    {
      "midi": 76,
      "hit": false,
      "t": 79444.50799999938,
      "d": 277.77799999999115,
      "v": 100
    },
    {
      "midi": 64,
      "hit": false,
      "t": 79444.50800000002,
      "d": 277.7780000000057,
      "v": 100
    },
    {
      "midi": 57,
      "hit": false,
      "t": 79444.50800000002,
      "d": 277.7780000000057,
      "v": 100
    },
    {
      "midi": 76,
      "hit": false,
      "t": 79444.50800000002,
      "d": 277.77799999999115,
      "v": 100
    },
    {
      "midi": 35,
      "hit": false,
      "t": 79583.39699999982,
      "d": 416.66699999998673,
      "v": 100
    },
    {
      "midi": 77,
      "hit": false,
      "t": 79722.28599999937,
      "d": 277.7780000000057,
      "v": 100
    },
    {
      "midi": 77,
      "hit": false,
      "t": 79722.28600000001,
      "d": 277.7780000000057,
      "v": 100
    },
    {
      "midi": 65,
      "hit": false,
      "t": 79722.28600000002,
      "d": 277.7780000000057,
      "v": 100
    },
    {
      "midi": 57,
      "hit": false,
      "t": 79722.28600000002,
      "d": 277.7780000000057,
      "v": 100
    },
    {
      "midi": 54,
      "hit": false,
      "t": 79791.73049999982,
      "d": 208.33349999999336,
      "v": 100
    },
    {
      "midi": 44,
      "hit": false,
      "t": 79791.73049999982,
      "d": 208.33349999999336,
      "v": 100
    },
    {
      "midi": 72,
      "hit": false,
      "t": 80000.06399999937,
      "d": 2291.6684999999998,
      "v": 100
    },
    {
      "midi": 41,
      "hit": false,
      "t": 80000.0639999998,
      "d": 1666.6680000000051,
      "v": 100
    },
    {
      "midi": 35,
      "hit": false,
      "t": 80000.06399999981,
      "d": 416.66699999998673,
      "v": 100
    },
    {
      "midi": 72,
      "hit": false,
      "t": 80000.06400000001,
      "d": 2291.6684999999998,
      "v": 100
    },
    {
      "midi": 60,
      "hit": false,
      "t": 80000.06400000003,
      "d": 3333.3359999999957,
      "v": 100
    },
    {
      "midi": 57,
      "hit": false,
      "t": 80000.06400000003,
      "d": 3333.3359999999957,
      "v": 100
    },
    {
      "midi": 41,
      "hit": false,
      "t": 80000.06400000007,
      "d": 1666.6680000000051,
      "v": 100
    },
    {
      "midi": 48,
      "hit": false,
      "t": 80000.06400000007,
      "d": 1666.6680000000051,
      "v": 100
    },
    {
      "midi": 57,
      "hit": false,
      "t": 80000.06400000007,
      "d": 1666.6680000000051,
      "v": 100
    },
    {
      "midi": 54,
      "hit": false,
      "t": 80208.3974999998,
      "d": 208.33349999999336,
      "v": 100
    },
    {
      "midi": 44,
      "hit": false,
      "t": 80208.3974999998,
      "d": 208.33349999999336,
      "v": 100
    },
    {
      "midi": 44,
      "hit": false,
      "t": 80416.7309999998,
      "d": 208.33349999999336,
      "v": 100
    },
    {
      "midi": 35,
      "hit": false,
      "t": 80416.7309999998,
      "d": 416.66699999998673,
      "v": 100
    },
    {
      "midi": 54,
      "hit": false,
      "t": 80625.06449999979,
      "d": 208.33349999999336,
      "v": 100
    },
    {
      "midi": 44,
      "hit": false,
      "t": 80833.39799999978,
      "d": 104.16675000000396,
      "v": 100
    },
    {
      "midi": 35,
      "hit": false,
      "t": 80833.39799999978,
      "d": 416.6670000000013,
      "v": 100
    },
    {
      "midi": 44,
      "hit": false,
      "t": 80937.56474999979,
      "d": 104.16675000000396,
      "v": 100
    },
    {
      "midi": 54,
      "hit": false,
      "t": 81041.73149999979,
      "d": 208.33349999999336,
      "v": 100
    },
    {
      "midi": 44,
      "hit": false,
      "t": 81250.06499999978,
      "d": 208.33349999999336,
      "v": 100
    },
    {
      "midi": 35,
      "hit": false,
      "t": 81250.06499999978,
      "d": 416.66699999998673,
      "v": 100
    },
    {
      "midi": 54,
      "hit": false,
      "t": 81458.39849999978,
      "d": 208.33349999999336,
      "v": 100
    },
    {
      "midi": 35,
      "hit": false,
      "t": 81666.73199999977,
      "d": 416.66699999998673,
      "v": 100
    },
    {
      "midi": 33,
      "hit": false,
      "t": 81666.7319999998,
      "d": 1666.6680000000051,
      "v": 100
    },
    {
      "midi": 45,
      "hit": false,
      "t": 81666.73200000008,
      "d": 1666.6680000000051,
      "v": 100
    },
    {
      "midi": 52,
      "hit": false,
      "t": 81666.73200000008,
      "d": 1666.6680000000051,
      "v": 100
    },
    {
      "midi": 60,
      "hit": false,
      "t": 81666.73200000008,
      "d": 1666.6680000000051,
      "v": 100
    },
    {
      "midi": 54,
      "hit": false,
      "t": 81875.06549999976,
      "d": 208.33349999999336,
      "v": 100
    },
    {
      "midi": 44,
      "hit": false,
      "t": 81875.06549999976,
      "d": 208.33349999999336,
      "v": 100
    },
    {
      "midi": 44,
      "hit": false,
      "t": 82083.39899999976,
      "d": 208.33349999999336,
      "v": 100
    },
    {
      "midi": 35,
      "hit": false,
      "t": 82083.39899999976,
      "d": 416.66699999998673,
      "v": 100
    },
    {
      "midi": 69,
      "hit": false,
      "t": 82291.73249999937,
      "d": 104.16675000000396,
      "v": 100
    },
    {
      "midi": 54,
      "hit": false,
      "t": 82291.73249999975,
      "d": 208.33349999999336,
      "v": 100
    },
    {
      "midi": 69,
      "hit": false,
      "t": 82291.73250000001,
      "d": 104.16675000000396,
      "v": 100
    },
    {
      "midi": 69,
      "hit": false,
      "t": 82395.89924999938,
      "d": 104.16675000000396,
      "v": 100
    },
    {
      "midi": 69,
      "hit": false,
      "t": 82395.89925000002,
      "d": 104.16675000000396,
      "v": 100
    },
    {
      "midi": 69,
      "hit": false,
      "t": 82500.06599999938,
      "d": 277.7780000000057,
      "v": 100
    },
    {
      "midi": 44,
      "hit": false,
      "t": 82500.06599999974,
      "d": 104.16675000000396,
      "v": 100
    },
    {
      "midi": 35,
      "hit": false,
      "t": 82500.06599999974,
      "d": 416.6670000000013,
      "v": 100
    },
    {
      "midi": 69,
      "hit": false,
      "t": 82500.06600000002,
      "d": 277.7780000000057,
      "v": 100
    },
    {
      "midi": 44,
      "hit": false,
      "t": 82604.23274999975,
      "d": 104.16675000000396,
      "v": 100
    },
    {
      "midi": 54,
      "hit": false,
      "t": 82708.39949999975,
      "d": 208.33349999999336,
      "v": 100
    },
    {
      "midi": 70,
      "hit": false,
      "t": 82777.84399999939,
      "d": 277.7780000000057,
      "v": 100
    },
    {
      "midi": 70,
      "hit": false,
      "t": 82777.84400000003,
      "d": 277.7780000000057,
      "v": 100
    },
    {
      "midi": 44,
      "hit": false,
      "t": 82916.73299999975,
      "d": 208.33349999999336,
      "v": 100
    },
    {
      "midi": 35,
      "hit": false,
      "t": 82916.73299999975,
      "d": 416.66699999998673,
      "v": 100
    },
    {
      "midi": 72,
      "hit": false,
      "t": 83055.62199999939,
      "d": 277.7780000000057,
      "v": 100
    },
    {
      "midi": 72,
      "hit": false,
      "t": 83055.62200000003,
      "d": 277.7780000000057,
      "v": 100
    },
    {
      "midi": 54,
      "hit": false,
      "t": 83125.06649999974,
      "d": 208.33349999999336,
      "v": 100
    },
    {
      "midi": 69,
      "hit": false,
      "t": 83333.3999999994,
      "d": 104.16675000000396,
      "v": 100
    },
    {
      "midi": 35,
      "hit": false,
      "t": 83333.39999999973,
      "d": 416.66699999998673,
      "v": 100
    },
    {
      "midi": 38,
      "hit": false,
      "t": 83333.3999999998,
      "d": 1666.6680000000051,
      "v": 100
    },
    {
      "midi": 62,
      "hit": false,
      "t": 83333.40000000002,
      "d": 833.3340000000026,
      "v": 100
    },
    {
      "midi": 57,
      "hit": false,
      "t": 83333.40000000002,
      "d": 833.3340000000026,
      "v": 100
    },
    {
      "midi": 69,
      "hit": false,
      "t": 83333.40000000004,
      "d": 104.16675000000396,
      "v": 100
    },
    {
      "midi": 53,
      "hit": false,
      "t": 83333.40000000008,
      "d": 1666.6680000000051,
      "v": 100
    },
    {
      "midi": 45,
      "hit": false,
      "t": 83333.40000000008,
      "d": 1666.6680000000051,
      "v": 100
    },
    {
      "midi": 38,
      "hit": false,
      "t": 83333.40000000008,
      "d": 1666.6680000000051,
      "v": 100
    },
    {
      "midi": 67,
      "hit": false,
      "t": 83437.5667499994,
      "d": 104.16675000000396,
      "v": 100
    },
    {
      "midi": 67,
      "hit": false,
      "t": 83437.56675000004,
      "d": 104.16675000000396,
      "v": 100
    },
    {
      "midi": 69,
      "hit": false,
      "t": 83541.7334999994,
      "d": 416.6670000000013,
      "v": 100
    },
    {
      "midi": 54,
      "hit": false,
      "t": 83541.73349999973,
      "d": 208.33349999999336,
      "v": 100
    },
    {
      "midi": 44,
      "hit": false,
      "t": 83541.73349999973,
      "d": 208.33349999999336,
      "v": 100
    },
    {
      "midi": 69,
      "hit": false,
      "t": 83541.73350000005,
      "d": 416.6670000000013,
      "v": 100
    },
    {
      "midi": 44,
      "hit": false,
      "t": 83750.06699999972,
      "d": 208.33349999999336,
      "v": 100
    },
    {
      "midi": 35,
      "hit": false,
      "t": 83750.06699999972,
      "d": 416.66699999998673,
      "v": 100
    },
    {
      "midi": 65,
      "hit": false,
      "t": 83958.4004999994,
      "d": 104.16675000000396,
      "v": 100
    },
    {
      "midi": 54,
      "hit": false,
      "t": 83958.40049999971,
      "d": 208.33349999999336,
      "v": 100
    },
    {
      "midi": 65,
      "hit": false,
      "t": 83958.40050000005,
      "d": 104.16675000000396,
      "v": 100
    },
    {
      "midi": 64,
      "hit": false,
      "t": 84062.56724999941,
      "d": 104.16675000000396,
      "v": 100
    },
    {
      "midi": 64,
      "hit": false,
      "t": 84062.56725000005,
      "d": 104.16675000000396,
      "v": 100
    },
    {
      "midi": 65,
      "hit": false,
      "t": 84166.73399999941,
      "d": 1458.3344999999972,
      "v": 100
    },
    {
      "midi": 44,
      "hit": false,
      "t": 84166.7339999997,
      "d": 104.16675000000396,
      "v": 100
    },
    {
      "midi": 35,
      "hit": false,
      "t": 84166.7339999997,
      "d": 416.6670000000013,
      "v": 100
    },
    {
      "midi": 62,
      "hit": false,
      "t": 84166.73400000003,
      "d": 833.3340000000026,
      "v": 100
    },
    {
      "midi": 57,
      "hit": false,
      "t": 84166.73400000003,
      "d": 833.3340000000026,
      "v": 100
    },
    {
      "midi": 65,
      "hit": false,
      "t": 84166.73400000005,
      "d": 1458.3344999999972,
      "v": 100
    },
    {
      "midi": 44,
      "hit": false,
      "t": 84270.90074999971,
      "d": 104.16675000000396,
      "v": 100
    },
    {
      "midi": 54,
      "hit": false,
      "t": 84375.06749999971,
      "d": 208.33349999999336,
      "v": 100
    },
    {
      "midi": 44,
      "hit": false,
      "t": 84583.4009999997,
      "d": 208.33349999999336,
      "v": 100
    },
    {
      "midi": 35,
      "hit": false,
      "t": 84583.4009999997,
      "d": 416.66699999998673,
      "v": 100
    },
    {
      "midi": 54,
      "hit": false,
      "t": 84791.7344999997,
      "d": 208.33349999999336,
      "v": 100
    },
    {
      "midi": 35,
      "hit": false,
      "t": 85000.0679999997,
      "d": 416.66699999998673,
      "v": 100
    },
    {
      "midi": 38,
      "hit": false,
      "t": 85000.06799999981,
      "d": 1666.6680000000051,
      "v": 100
    },
    {
      "midi": 65,
      "hit": false,
      "t": 85000.06800000003,
      "d": 833.3340000000026,
      "v": 100
    },
    {
      "midi": 57,
      "hit": false,
      "t": 85000.06800000003,
      "d": 833.3340000000026,
      "v": 100
    },
    {
      "midi": 38,
      "hit": false,
      "t": 85000.06800000009,
      "d": 1666.6680000000051,
      "v": 100
    },
    {
      "midi": 45,
      "hit": false,
      "t": 85000.06800000009,
      "d": 1666.6680000000051,
      "v": 100
    },
    {
      "midi": 53,
      "hit": false,
      "t": 85000.06800000009,
      "d": 1666.6680000000051,
      "v": 100
    },
    {
      "midi": 54,
      "hit": false,
      "t": 85208.40149999969,
      "d": 208.33349999999336,
      "v": 100
    },
    {
      "midi": 44,
      "hit": false,
      "t": 85208.40149999969,
      "d": 208.33349999999336,
      "v": 100
    },
    {
      "midi": 44,
      "hit": false,
      "t": 85416.73499999968,
      "d": 208.33349999999336,
      "v": 100
    },
    {
      "midi": 35,
      "hit": false,
      "t": 85416.73499999968,
      "d": 416.66699999998673,
      "v": 100
    },
    {
      "midi": 69,
      "hit": false,
      "t": 85625.06849999941,
      "d": 104.16675000000396,
      "v": 100
    },
    {
      "midi": 54,
      "hit": false,
      "t": 85625.06849999967,
      "d": 208.33349999999336,
      "v": 100
    },
    {
      "midi": 69,
      "hit": false,
      "t": 85625.06850000005,
      "d": 104.16675000000396,
      "v": 100
    },
    {
      "midi": 69,
      "hit": false,
      "t": 85729.23524999942,
      "d": 104.16675000000396,
      "v": 100
    },
    {
      "midi": 69,
      "hit": false,
      "t": 85729.23525000006,
      "d": 104.16675000000396,
      "v": 100
    },
    {
      "midi": 69,
      "hit": false,
      "t": 85833.40199999942,
      "d": 277.7780000000057,
      "v": 100
    },
    {
      "midi": 44,
      "hit": false,
      "t": 85833.40199999967,
      "d": 104.16675000000396,
      "v": 100
    },
    {
      "midi": 35,
      "hit": false,
      "t": 85833.40199999967,
      "d": 416.6670000000013,
      "v": 100
    },
    {
      "midi": 69,
      "hit": false,
      "t": 85833.40200000003,
      "d": 416.6670000000013,
      "v": 100
    },
    {
      "midi": 65,
      "hit": false,
      "t": 85833.40200000003,
      "d": 416.6670000000013,
      "v": 100
    },
    {
      "midi": 69,
      "hit": false,
      "t": 85833.40200000006,
      "d": 277.7780000000057,
      "v": 100
    },
    {
      "midi": 44,
      "hit": false,
      "t": 85937.56874999967,
      "d": 104.16675000000396,
      "v": 100
    },
    {
      "midi": 54,
      "hit": false,
      "t": 86041.73549999968,
      "d": 208.33349999999336,
      "v": 100
    },
    {
      "midi": 74,
      "hit": false,
      "t": 86111.17999999943,
      "d": 277.7780000000057,
      "v": 100
    },
    {
      "midi": 74,
      "hit": false,
      "t": 86111.18000000007,
      "d": 277.7780000000057,
      "v": 100
    },
    {
      "midi": 44,
      "hit": false,
      "t": 86250.06899999967,
      "d": 208.33349999999336,
      "v": 100
    },
    {
      "midi": 35,
      "hit": false,
      "t": 86250.06899999967,
      "d": 416.66699999998673,
      "v": 100
    },
    {
      "midi": 74,
      "hit": false,
      "t": 86250.06900000003,
      "d": 416.6670000000013,
      "v": 100
    },
    {
      "midi": 69,
      "hit": false,
      "t": 86250.06900000003,
      "d": 416.6670000000013,
      "v": 100
    },
    {
      "midi": 76,
      "hit": false,
      "t": 86388.95799999943,
      "d": 277.7780000000057,
      "v": 100
    },
    {
      "midi": 76,
      "hit": false,
      "t": 86388.95800000007,
      "d": 277.7780000000057,
      "v": 100
    },
    {
      "midi": 54,
      "hit": false,
      "t": 86458.40249999966,
      "d": 208.33349999999336,
      "v": 100
    },
    {
      "midi": 35,
      "hit": false,
      "t": 86666.73599999966,
      "d": 416.66699999998673,
      "v": 100
    },
    {
      "midi": 40,
      "hit": false,
      "t": 86666.73599999982,
      "d": 1666.6680000000051,
      "v": 100
    },
    {
      "midi": 40,
      "hit": false,
      "t": 86666.73600000009,
      "d": 1666.6680000000051,
      "v": 100
    },
    {
      "midi": 55,
      "hit": false,
      "t": 86666.73600000009,
      "d": 1666.6680000000051,
      "v": 100
    },
    {
      "midi": 47,
      "hit": false,
      "t": 86666.73600000009,
      "d": 1666.6680000000051,
      "v": 100
    },
    {
      "midi": 64,
      "hit": false,
      "t": 86770.90274999944,
      "d": 520.8337500000052,
      "v": 100
    },
    {
      "midi": 64,
      "hit": false,
      "t": 86770.90275000008,
      "d": 520.8337500000052,
      "v": 100
    },
    {
      "midi": 67,
      "hit": false,
      "t": 86822.98612499944,
      "d": 52.08337500000198,
      "v": 100
    },
    {
      "midi": 67,
      "hit": false,
      "t": 86822.98612500008,
      "d": 52.08337500000198,
      "v": 100
    },
    {
      "midi": 69,
      "hit": false,
      "t": 86875.06949999944,
      "d": 416.6670000000013,
      "v": 100
    },
    {
      "midi": 54,
      "hit": false,
      "t": 86875.06949999965,
      "d": 208.33349999999336,
      "v": 100
    },
    {
      "midi": 44,
      "hit": false,
      "t": 86875.06949999965,
      "d": 208.33349999999336,
      "v": 100
    },
    {
      "midi": 69,
      "hit": false,
      "t": 86875.06950000009,
      "d": 416.6670000000013,
      "v": 100
    },
    {
      "midi": 44,
      "hit": false,
      "t": 87083.40299999964,
      "d": 208.33349999999336,
      "v": 100
    },
    {
      "midi": 35,
      "hit": false,
      "t": 87083.40299999964,
      "d": 416.66699999998673,
      "v": 100
    },
    {
      "midi": 71,
      "hit": false,
      "t": 87083.40300000003,
      "d": 1250.0010000000038,
      "v": 100
    },
    {
      "midi": 64,
      "hit": false,
      "t": 87083.40300000003,
      "d": 1250.0010000000038,
      "v": 100
    },
    {
      "midi": 55,
      "hit": false,
      "t": 87083.40300000003,
      "d": 1250.0010000000038,
      "v": 100
    },
    {
      "midi": 74,
      "hit": false,
      "t": 87291.73649999945,
      "d": 208.33349999999336,
      "v": 100
    },
    {
      "midi": 54,
      "hit": false,
      "t": 87291.73649999964,
      "d": 208.33349999999336,
      "v": 100
    },
    {
      "midi": 74,
      "hit": false,
      "t": 87291.73650000009,
      "d": 208.33349999999336,
      "v": 100
    },
    {
      "midi": 76,
      "hit": false,
      "t": 87500.06999999944,
      "d": 277.7780000000057,
      "v": 100
    },
    {
      "midi": 44,
      "hit": false,
      "t": 87500.06999999963,
      "d": 104.16675000000396,
      "v": 100
    },
    {
      "midi": 35,
      "hit": false,
      "t": 87500.06999999963,
      "d": 416.6670000000013,
      "v": 100
    },
    {
      "midi": 76,
      "hit": false,
      "t": 87500.07000000008,
      "d": 277.7780000000057,
      "v": 100
    },
    {
      "midi": 44,
      "hit": false,
      "t": 87604.23674999963,
      "d": 104.16675000000396,
      "v": 100
    },
    {
      "midi": 54,
      "hit": false,
      "t": 87708.40349999964,
      "d": 208.33349999999336,
      "v": 100
    },
    {
      "midi": 77,
      "hit": false,
      "t": 87777.84799999945,
      "d": 277.7780000000057,
      "v": 100
    },
    {
      "midi": 77,
      "hit": false,
      "t": 87777.84800000009,
      "d": 277.7780000000057,
      "v": 100
    },
    {
      "midi": 44,
      "hit": false,
      "t": 87916.73699999963,
      "d": 208.33349999999336,
      "v": 100
    },
    {
      "midi": 35,
      "hit": false,
      "t": 87916.73699999963,
      "d": 416.66699999998673,
      "v": 100
    },
    {
      "midi": 79,
      "hit": false,
      "t": 88055.62599999945,
      "d": 173.61125000000175,
      "v": 100
    },
    {
      "midi": 79,
      "hit": false,
      "t": 88055.62600000009,
      "d": 173.61125000000175,
      "v": 100
    },
    {
      "midi": 54,
      "hit": false,
      "t": 88125.07049999962,
      "d": 208.33349999999336,
      "v": 100
    },
    {
      "midi": 76,
      "hit": false,
      "t": 88229.23724999945,
      "d": 52.08337500000198,
      "v": 100
    },
    {
      "midi": 76,
      "hit": false,
      "t": 88229.2372500001,
      "d": 52.08337500000198,
      "v": 100
    },
    {
      "midi": 79,
      "hit": false,
      "t": 88281.32062499945,
      "d": 52.08337500000198,
      "v": 100
    },
    {
      "midi": 79,
      "hit": false,
      "t": 88281.3206250001,
      "d": 52.08337500000198,
      "v": 100
    },
    {
      "midi": 81,
      "hit": false,
      "t": 88333.40399999946,
      "d": 208.33349999999336,
      "v": 100
    },
    {
      "midi": 38,
      "hit": false,
      "t": 88333.40399999962,
      "d": 104.16675000000396,
      "v": 100
    },
    {
      "midi": 35,
      "hit": false,
      "t": 88333.40399999962,
      "d": 416.66700000001583,
      "v": 100
    },
    {
      "midi": 33,
      "hit": false,
      "t": 88333.40399999982,
      "d": 1666.6680000000051,
      "v": 100
    },
    {
      "midi": 73,
      "hit": false,
      "t": 88333.40400000004,
      "d": 1666.6680000000051,
      "v": 100
    },
    {
      "midi": 64,
      "hit": false,
      "t": 88333.40400000004,
      "d": 1666.6680000000051,
      "v": 100
    },
    {
      "midi": 57,
      "hit": false,
      "t": 88333.40400000004,
      "d": 1666.6680000000051,
      "v": 100
    },
    {
      "midi": 45,
      "hit": false,
      "t": 88333.4040000001,
      "d": 1666.6680000000051,
      "v": 100
    },
    {
      "midi": 52,
      "hit": false,
      "t": 88333.4040000001,
      "d": 1666.6680000000051,
      "v": 100
    },
    {
      "midi": 61,
      "hit": false,
      "t": 88333.4040000001,
      "d": 1666.6680000000051,
      "v": 100
    },
    {
      "midi": 81,
      "hit": false,
      "t": 88333.4040000001,
      "d": 208.33349999999336,
      "v": 100
    },
    {
      "midi": 38,
      "hit": false,
      "t": 88437.57074999962,
      "d": 104.16675000000396,
      "v": 100
    },
    {
      "midi": 79,
      "hit": false,
      "t": 88541.73749999945,
      "d": 416.6670000000013,
      "v": 100
    },
    {
      "midi": 38,
      "hit": false,
      "t": 88541.73749999962,
      "d": 104.16675000000396,
      "v": 100
    },
    {
      "midi": 54,
      "hit": false,
      "t": 88541.73749999962,
      "d": 208.33350000000792,
      "v": 100
    },
    {
      "midi": 79,
      "hit": false,
      "t": 88541.73750000009,
      "d": 416.6670000000013,
      "v": 100
    },
    {
      "midi": 38,
      "hit": false,
      "t": 88645.90424999963,
      "d": 104.16675000000396,
      "v": 100
    },
    {
      "midi": 38,
      "hit": false,
      "t": 88750.07099999963,
      "d": 104.16675000000396,
      "v": 100
    },
    {
      "midi": 44,
      "hit": false,
      "t": 88750.07099999963,
      "d": 208.33350000000792,
      "v": 100
    },
    {
      "midi": 35,
      "hit": false,
      "t": 88750.07099999963,
      "d": 416.66700000001583,
      "v": 100
    },
    {
      "midi": 38,
      "hit": false,
      "t": 88854.23774999964,
      "d": 104.16675000000396,
      "v": 100
    },
    {
      "midi": 81,
      "hit": false,
      "t": 88958.40449999945,
      "d": 104.16675000000396,
      "v": 100
    },
    {
      "midi": 38,
      "hit": false,
      "t": 88958.40449999964,
      "d": 104.16675000000396,
      "v": 100
    },
    {
      "midi": 44,
      "hit": false,
      "t": 88958.40449999964,
      "d": 104.16675000000396,
      "v": 100
    },
    {
      "midi": 54,
      "hit": false,
      "t": 88958.40449999964,
      "d": 208.33350000000792,
      "v": 100
    },
    {
      "midi": 81,
      "hit": false,
      "t": 88958.40450000009,
      "d": 104.16675000000396,
      "v": 100
    },
    {
      "midi": 82,
      "hit": false,
      "t": 89062.57124999946,
      "d": 104.16675000000396,
      "v": 100
    },
    {
      "midi": 38,
      "hit": false,
      "t": 89062.57124999964,
      "d": 104.16675000000396,
      "v": 100
    },
    {
      "midi": 44,
      "hit": false,
      "t": 89062.57124999964,
      "d": 104.16675000000396,
      "v": 100
    },
    {
      "midi": 82,
      "hit": false,
      "t": 89062.5712500001,
      "d": 104.16675000000396,
      "v": 100
    },
    {
      "midi": 73,
      "hit": false,
      "t": 89166.73799999946,
      "d": 833.3340000000026,
      "v": 100
    },
    {
      "midi": 81,
      "hit": false,
      "t": 89166.73799999946,
      "d": 833.3340000000026,
      "v": 100
    },
    {
      "midi": 38,
      "hit": false,
      "t": 89166.73799999965,
      "d": 104.16675000000396,
      "v": 100
    },
    {
      "midi": 35,
      "hit": false,
      "t": 89166.73799999965,
      "d": 416.66700000001583,
      "v": 100
    },
    {
      "midi": 81,
      "hit": false,
      "t": 89166.7380000001,
      "d": 833.3340000000026,
      "v": 100
    },
    {
      "midi": 73,
      "hit": false,
      "t": 89166.7380000001,
      "d": 833.3340000000026,
      "v": 100
    },
    {
      "midi": 38,
      "hit": false,
      "t": 89270.90474999965,
      "d": 104.16675000000396,
      "v": 100
    },
    {
      "midi": 38,
      "hit": false,
      "t": 89375.07149999966,
      "d": 104.16675000000396,
      "v": 100
    },
    {
      "midi": 54,
      "hit": false,
      "t": 89375.07149999966,
      "d": 208.33350000000792,
      "v": 100
    },
    {
      "midi": 38,
      "hit": false,
      "t": 89479.23824999966,
      "d": 104.16675000000396,
      "v": 100
    },
    {
      "midi": 38,
      "hit": false,
      "t": 89583.40499999966,
      "d": 104.16675000000396,
      "v": 100
    },
    {
      "midi": 35,
      "hit": false,
      "t": 89583.40499999966,
      "d": 416.66700000001583,
      "v": 100
    },
    {
      "midi": 38,
      "hit": false,
      "t": 89687.57174999967,
      "d": 104.16675000000396,
      "v": 100
    },
    {
      "midi": 77,
      "hit": false,
      "t": 89791.73849999945,
      "d": 104.16675000000396,
      "v": 100
    },
    {
      "midi": 53,
      "hit": false,
      "t": 89791.73849999945,
      "d": 104.16675000000396,
      "v": 100
    },
    {
      "midi": 38,
      "hit": false,
      "t": 89791.73849999967,
      "d": 104.16675000000396,
      "v": 100
    },
    {
      "midi": 54,
      "hit": false,
      "t": 89791.73849999967,
      "d": 208.33350000000792,
      "v": 100
    },
    {
      "midi": 41,
      "hit": false,
      "t": 89791.7385,
      "d": 104.16675000000396,
      "v": 100
    },
    {
      "midi": 77,
      "hit": false,
      "t": 89791.7385000001,
      "d": 104.16675000000396,
      "v": 100
    },
    {
      "midi": 79,
      "hit": false,
      "t": 89895.90524999946,
      "d": 104.16675000000396,
      "v": 100
    },
    {
      "midi": 55,
      "hit": false,
      "t": 89895.90524999946,
      "d": 104.16675000000396,
      "v": 100
    },
    {
      "midi": 38,
      "hit": false,
      "t": 89895.90524999968,
      "d": 104.16675000000396,
      "v": 100
    },
    {
      "midi": 43,
      "hit": false,
      "t": 89895.90525000001,
      "d": 104.16675000000396,
      "v": 100
    },
    {
      "midi": 79,
      "hit": false,
      "t": 89895.9052500001,
      "d": 104.16675000000396,
      "v": 100
    },
    {
      "midi": 69,
      "hit": false,
      "t": 90000.07199999946,
      "d": 104.16675000000396,
      "v": 100
    },
    {
      "midi": 45,
      "hit": false,
      "t": 90000.07199999946,
      "d": 104.16675000000396,
      "v": 100
    },
    {
      "midi": 35,
      "hit": false,
      "t": 90000.07199999968,
      "d": 208.33349999999336,
      "v": 100
    },
    {
      "midi": 45,
      "hit": false,
      "t": 90000.07199999983,
      "d": 104.16675000000396,
      "v": 100
    },
    {
      "midi": 45,
      "hit": false,
      "t": 90000.07200000001,
      "d": 104.16675000000396,
      "v": 100
    },
    {
      "midi": 69,
      "hit": false,
      "t": 90000.07200000006,
      "d": 104.16675000000396,
      "v": 100
    },
    {
      "midi": 69,
      "hit": false,
      "t": 90000.0720000001,
      "d": 104.16675000000396,
      "v": 100
    },
    {
      "midi": 57,
      "hit": false,
      "t": 90000.0720000001,
      "d": 104.16675000000396,
      "v": 100
    },
    {
      "midi": 81,
      "hit": false,
      "t": 90000.0720000001,
      "d": 104.16675000000396,
      "v": 100
    },
    {
      "midi": 67,
      "hit": false,
      "t": 90104.23874999947,
      "d": 104.16675000000396,
      "v": 100
    },
    {
      "midi": 43,
      "hit": false,
      "t": 90104.23874999947,
      "d": 104.16675000000396,
      "v": 100
    },
    {
      "midi": 43,
      "hit": false,
      "t": 90104.23874999983,
      "d": 104.16675000000396,
      "v": 100
    },
    {
      "midi": 43,
      "hit": false,
      "t": 90104.23875000002,
      "d": 104.16675000000396,
      "v": 100
    },
    {
      "midi": 67,
      "hit": false,
      "t": 90104.23875000006,
      "d": 104.16675000000396,
      "v": 100
    },
    {
      "midi": 67,
      "hit": false,
      "t": 90104.2387500001,
      "d": 104.16675000000396,
      "v": 100
    },
    {
      "midi": 55,
      "hit": false,
      "t": 90104.2387500001,
      "d": 104.16675000000396,
      "v": 100
    },
    {
      "midi": 79,
      "hit": false,
      "t": 90104.2387500001,
      "d": 104.16675000000396,
      "v": 100
    },
    {
      "midi": 65,
      "hit": false,
      "t": 90208.40549999947,
      "d": 104.16675000000396,
      "v": 100
    },
    {
      "midi": 41,
      "hit": false,
      "t": 90208.40549999947,
      "d": 104.16675000000396,
      "v": 100
    },
    {
      "midi": 41,
      "hit": false,
      "t": 90208.40549999983,
      "d": 104.16675000000396,
      "v": 100
    },
    {
      "midi": 41,
      "hit": false,
      "t": 90208.40550000002,
      "d": 104.16675000000396,
      "v": 100
    },
    {
      "midi": 65,
      "hit": false,
      "t": 90208.40550000007,
      "d": 104.16675000000396,
      "v": 100
    },
    {
      "midi": 65,
      "hit": false,
      "t": 90208.40550000011,
      "d": 104.16675000000396,
      "v": 100
    },
    {
      "midi": 53,
      "hit": false,
      "t": 90208.40550000011,
      "d": 104.16675000000396,
      "v": 100
    },
    {
      "midi": 77,
      "hit": false,
      "t": 90208.40550000011,
      "d": 104.16675000000396,
      "v": 100
    },
    {
      "midi": 64,
      "hit": false,
      "t": 90312.57224999947,
      "d": 312.5002499999973,
      "v": 100
    },
    {
      "midi": 40,
      "hit": false,
      "t": 90312.57224999947,
      "d": 312.5002499999973,
      "v": 100
    },
    {
      "midi": 35,
      "hit": false,
      "t": 90312.57224999968,
      "d": 104.16675000000396,
      "v": 100
    },
    {
      "midi": 40,
      "hit": false,
      "t": 90312.57224999984,
      "d": 312.5002499999973,
      "v": 100
    },
    {
      "midi": 40,
      "hit": false,
      "t": 90312.57225000003,
      "d": 312.5002499999973,
      "v": 100
    },
    {
      "midi": 64,
      "hit": false,
      "t": 90312.57225000007,
      "d": 312.5002499999973,
      "v": 100
    },
    {
      "midi": 64,
      "hit": false,
      "t": 90312.57225000011,
      "d": 312.5002499999973,
      "v": 100
    },
    {
      "midi": 52,
      "hit": false,
      "t": 90312.57225000011,
      "d": 312.5002499999973,
      "v": 100
    },
    {
      "midi": 76,
      "hit": false,
      "t": 90312.57225000011,
      "d": 312.5002499999973,
      "v": 100
    },
    {
      "midi": 67,
      "hit": false,
      "t": 90625.07249999947,
      "d": 104.16675000000396,
      "v": 100
    },
    {
      "midi": 43,
      "hit": false,
      "t": 90625.07249999947,
      "d": 104.16675000000396,
      "v": 100
    },
    {
      "midi": 38,
      "hit": false,
      "t": 90625.07249999967,
      "d": 208.33349999999336,
      "v": 100
    },
    {
      "midi": 43,
      "hit": false,
      "t": 90625.07249999983,
      "d": 104.16675000000396,
      "v": 100
    },
    {
      "midi": 43,
      "hit": false,
      "t": 90625.07250000002,
      "d": 104.16675000000396,
      "v": 100
    },
    {
      "midi": 67,
      "hit": false,
      "t": 90625.07250000007,
      "d": 104.16675000000396,
      "v": 100
    },
    {
      "midi": 67,
      "hit": false,
      "t": 90625.07250000011,
      "d": 104.16675000000396,
      "v": 100
    },
    {
      "midi": 55,
      "hit": false,
      "t": 90625.07250000011,
      "d": 104.16675000000396,
      "v": 100
    },
    {
      "midi": 79,
      "hit": false,
      "t": 90625.07250000011,
      "d": 104.16675000000396,
      "v": 100
    },
    {
      "midi": 65,
      "hit": false,
      "t": 90729.23924999947,
      "d": 104.16675000000396,
      "v": 100
    },
    {
      "midi": 41,
      "hit": false,
      "t": 90729.23924999947,
      "d": 104.16675000000396,
      "v": 100
    },
    {
      "midi": 41,
      "hit": false,
      "t": 90729.23924999984,
      "d": 104.16675000000396,
      "v": 100
    },
    {
      "midi": 41,
      "hit": false,
      "t": 90729.23925000003,
      "d": 104.16675000000396,
      "v": 100
    },
    {
      "midi": 65,
      "hit": false,
      "t": 90729.23925000007,
      "d": 104.16675000000396,
      "v": 100
    },
    {
      "midi": 65,
      "hit": false,
      "t": 90729.23925000012,
      "d": 104.16675000000396,
      "v": 100
    },
    {
      "midi": 53,
      "hit": false,
      "t": 90729.23925000012,
      "d": 104.16675000000396,
      "v": 100
    },
    {
      "midi": 77,
      "hit": false,
      "t": 90729.23925000012,
      "d": 104.16675000000396,
      "v": 100
    },
    {
      "midi": 64,
      "hit": false,
      "t": 90833.40599999948,
      "d": 104.16675000000396,
      "v": 100
    },
    {
      "midi": 40,
      "hit": false,
      "t": 90833.40599999948,
      "d": 104.16675000000396,
      "v": 100
    },
    {
      "midi": 35,
      "hit": false,
      "t": 90833.40599999967,
      "d": 104.16675000000396,
      "v": 100
    },
    {
      "midi": 40,
      "hit": false,
      "t": 90833.40599999984,
      "d": 104.16675000000396,
      "v": 100
    },
    {
      "midi": 40,
      "hit": false,
      "t": 90833.40600000003,
      "d": 104.16675000000396,
      "v": 100
    },
    {
      "midi": 64,
      "hit": false,
      "t": 90833.40600000008,
      "d": 104.16675000000396,
      "v": 100
    },
    {
      "midi": 64,
      "hit": false,
      "t": 90833.40600000012,
      "d": 104.16675000000396,
      "v": 100
    },
    {
      "midi": 52,
      "hit": false,
      "t": 90833.40600000012,
      "d": 104.16675000000396,
      "v": 100
    },
    {
      "midi": 76,
      "hit": false,
      "t": 90833.40600000012,
      "d": 104.16675000000396,
      "v": 100
    },
    {
      "midi": 62,
      "hit": false,
      "t": 90937.57274999948,
      "d": 208.33349999999336,
      "v": 100
    },
    {
      "midi": 38,
      "hit": false,
      "t": 90937.57274999948,
      "d": 208.33349999999336,
      "v": 100
    },
    {
      "midi": 35,
      "hit": false,
      "t": 90937.57274999967,
      "d": 104.16675000000396,
      "v": 100
    },
    {
      "midi": 38,
      "hit": false,
      "t": 90937.57274999985,
      "d": 208.33349999999336,
      "v": 100
    },
    {
      "midi": 38,
      "hit": false,
      "t": 90937.57275000004,
      "d": 208.33349999999336,
      "v": 100
    },
    {
      "midi": 62,
      "hit": false,
      "t": 90937.57275000008,
      "d": 208.33349999999336,
      "v": 100
    },
    {
      "midi": 62,
      "hit": false,
      "t": 90937.57275000012,
      "d": 208.33349999999336,
      "v": 100
    },
    {
      "midi": 50,
      "hit": false,
      "t": 90937.57275000012,
      "d": 208.33349999999336,
      "v": 100
    },
    {
      "midi": 74,
      "hit": false,
      "t": 90937.57275000012,
      "d": 208.33349999999336,
      "v": 100
    },
    {
      "midi": 65,
      "hit": false,
      "t": 91145.90624999948,
      "d": 104.16675000000396,
      "v": 100
    },
    {
      "midi": 41,
      "hit": false,
      "t": 91145.90624999948,
      "d": 104.16675000000396,
      "v": 100
    },
    {
      "midi": 38,
      "hit": false,
      "t": 91145.90624999968,
      "d": 104.16675000000396,
      "v": 100
    },
    {
      "midi": 41,
      "hit": false,
      "t": 91145.90624999984,
      "d": 104.16675000000396,
      "v": 100
    },
    {
      "midi": 41,
      "hit": false,
      "t": 91145.90625000003,
      "d": 104.16675000000396,
      "v": 100
    },
    {
      "midi": 65,
      "hit": false,
      "t": 91145.90625000007,
      "d": 104.16675000000396,
      "v": 100
    },
    {
      "midi": 65,
      "hit": false,
      "t": 91145.90625000012,
      "d": 104.16675000000396,
      "v": 100
    },
    {
      "midi": 53,
      "hit": false,
      "t": 91145.90625000012,
      "d": 104.16675000000396,
      "v": 100
    },
    {
      "midi": 77,
      "hit": false,
      "t": 91145.90625000012,
      "d": 104.16675000000396,
      "v": 100
    },
    {
      "midi": 64,
      "hit": false,
      "t": 91250.07299999948,
      "d": 104.16675000000396,
      "v": 100
    },
    {
      "midi": 40,
      "hit": false,
      "t": 91250.07299999948,
      "d": 104.16675000000396,
      "v": 100
    },
    {
      "midi": 35,
      "hit": false,
      "t": 91250.07299999968,
      "d": 104.16675000000396,
      "v": 100
    },
    {
      "midi": 40,
      "hit": false,
      "t": 91250.07299999984,
      "d": 104.16675000000396,
      "v": 100
    },
    {
      "midi": 40,
      "hit": false,
      "t": 91250.07300000003,
      "d": 104.16675000000396,
      "v": 100
    },
    {
      "midi": 64,
      "hit": false,
      "t": 91250.07300000008,
      "d": 104.16675000000396,
      "v": 100
    },
    {
      "midi": 64,
      "hit": false,
      "t": 91250.07300000012,
      "d": 104.16675000000396,
      "v": 100
    },
    {
      "midi": 52,
      "hit": false,
      "t": 91250.07300000012,
      "d": 104.16675000000396,
      "v": 100
    },
    {
      "midi": 76,
      "hit": false,
      "t": 91250.07300000012,
      "d": 104.16675000000396,
      "v": 100
    },
    {
      "midi": 62,
      "hit": false,
      "t": 91354.23974999948,
      "d": 104.16675000000396,
      "v": 100
    },
    {
      "midi": 38,
      "hit": false,
      "t": 91354.23974999948,
      "d": 104.16675000000396,
      "v": 100
    },
    {
      "midi": 38,
      "hit": false,
      "t": 91354.23974999985,
      "d": 104.16675000000396,
      "v": 100
    },
    {
      "midi": 38,
      "hit": false,
      "t": 91354.23975000004,
      "d": 104.16675000000396,
      "v": 100
    },
    {
      "midi": 62,
      "hit": false,
      "t": 91354.23975000008,
      "d": 104.16675000000396,
      "v": 100
    },
    {
      "midi": 62,
      "hit": false,
      "t": 91354.23975000012,
      "d": 104.16675000000396,
      "v": 100
    },
    {
      "midi": 50,
      "hit": false,
      "t": 91354.23975000012,
      "d": 104.16675000000396,
      "v": 100
    },
    {
      "midi": 74,
      "hit": false,
      "t": 91354.23975000012,
      "d": 104.16675000000396,
      "v": 100
    },
    {
      "midi": 60,
      "hit": false,
      "t": 91458.40649999949,
      "d": 104.16675000000396,
      "v": 100
    },
    {
      "midi": 36,
      "hit": false,
      "t": 91458.40649999949,
      "d": 104.16675000000396,
      "v": 100
    },
    {
      "midi": 36,
      "hit": false,
      "t": 91458.40649999985,
      "d": 104.16675000000396,
      "v": 100
    },
    {
      "midi": 36,
      "hit": false,
      "t": 91458.40650000004,
      "d": 104.16675000000396,
      "v": 100
    },
    {
      "midi": 60,
      "hit": false,
      "t": 91458.40650000008,
      "d": 104.16675000000396,
      "v": 100
    },
    {
      "midi": 60,
      "hit": false,
      "t": 91458.40650000013,
      "d": 104.16675000000396,
      "v": 100
    },
    {
      "midi": 48,
      "hit": false,
      "t": 91458.40650000013,
      "d": 104.16675000000396,
      "v": 100
    },
    {
      "midi": 72,
      "hit": false,
      "t": 91458.40650000013,
      "d": 104.16675000000396,
      "v": 100
    },
    {
      "midi": 62,
      "hit": false,
      "t": 91562.57324999949,
      "d": 208.33349999999336,
      "v": 100
    },
    {
      "midi": 38,
      "hit": false,
      "t": 91562.57324999949,
      "d": 208.33349999999336,
      "v": 100
    },
    {
      "midi": 35,
      "hit": false,
      "t": 91562.57324999968,
      "d": 104.16675000000396,
      "v": 100
    },
    {
      "midi": 38,
      "hit": false,
      "t": 91562.57324999986,
      "d": 208.33349999999336,
      "v": 100
    },
    {
      "midi": 38,
      "hit": false,
      "t": 91562.57325000004,
      "d": 208.33349999999336,
      "v": 100
    },
    {
      "midi": 62,
      "hit": false,
      "t": 91562.57325000009,
      "d": 208.33349999999336,
      "v": 100
    },
    {
      "midi": 62,
      "hit": false,
      "t": 91562.57325000013,
      "d": 208.33349999999336,
      "v": 100
    },
    {
      "midi": 50,
      "hit": false,
      "t": 91562.57325000013,
      "d": 208.33349999999336,
      "v": 100
    },
    {
      "midi": 74,
      "hit": false,
      "t": 91562.57325000013,
      "d": 208.33349999999336,
      "v": 100
    },
    {
      "midi": 69,
      "hit": false,
      "t": 91770.90674999949,
      "d": 104.16675000000396,
      "v": 100
    },
    {
      "midi": 57,
      "hit": false,
      "t": 91770.90674999949,
      "d": 104.16675000000396,
      "v": 100
    },
    {
      "midi": 33,
      "hit": false,
      "t": 91770.90674999949,
      "d": 104.16675000000396,
      "v": 100
    },
    {
      "midi": 35,
      "hit": false,
      "t": 91770.90674999969,
      "d": 104.16675000000396,
      "v": 100
    },
    {
      "midi": 33,
      "hit": false,
      "t": 91770.90674999985,
      "d": 104.16675000000396,
      "v": 100
    },
    {
      "midi": 33,
      "hit": false,
      "t": 91770.90675000004,
      "d": 104.16675000000396,
      "v": 100
    },
    {
      "midi": 57,
      "hit": false,
      "t": 91770.90675000008,
      "d": 104.16675000000396,
      "v": 100
    },
    {
      "midi": 45,
      "hit": false,
      "t": 91770.90675000008,
      "d": 104.16675000000396,
      "v": 100
    },
    {
      "midi": 57,
      "hit": false,
      "t": 91770.90675000013,
      "d": 104.16675000000396,
      "v": 100
    },
    {
      "midi": 45,
      "hit": false,
      "t": 91770.90675000013,
      "d": 104.16675000000396,
      "v": 100
    },
    {
      "midi": 57,
      "hit": false,
      "t": 91770.90675000013,
      "d": 104.16675000000396,
      "v": 100
    },
    {
      "midi": 69,
      "hit": false,
      "t": 91770.90675000013,
      "d": 104.16675000000396,
      "v": 100
    },
    {
      "midi": 74,
      "hit": false,
      "t": 91875.07349999949,
      "d": 104.16675000000396,
      "v": 100
    },
    {
      "midi": 62,
      "hit": false,
      "t": 91875.07349999949,
      "d": 104.16675000000396,
      "v": 100
    },
    {
      "midi": 38,
      "hit": false,
      "t": 91875.07349999949,
      "d": 104.16675000000396,
      "v": 100
    },
    {
      "midi": 38,
      "hit": false,
      "t": 91875.0734999997,
      "d": 104.16675000000396,
      "v": 100
    },
    {
      "midi": 38,
      "hit": false,
      "t": 91875.07349999985,
      "d": 104.16675000000396,
      "v": 100
    },
    {
      "midi": 38,
      "hit": false,
      "t": 91875.07350000004,
      "d": 104.16675000000396,
      "v": 100
    },
    {
      "midi": 62,
      "hit": false,
      "t": 91875.07350000009,
      "d": 104.16675000000396,
      "v": 100
    },
    {
      "midi": 50,
      "hit": false,
      "t": 91875.07350000009,
      "d": 104.16675000000396,
      "v": 100
    },
    {
      "midi": 62,
      "hit": false,
      "t": 91875.07350000013,
      "d": 104.16675000000396,
      "v": 100
    },
    {
      "midi": 50,
      "hit": false,
      "t": 91875.07350000013,
      "d": 104.16675000000396,
      "v": 100
    },
    {
      "midi": 62,
      "hit": false,
      "t": 91875.07350000013,
      "d": 104.16675000000396,
      "v": 100
    },
    {
      "midi": 74,
      "hit": false,
      "t": 91875.07350000013,
      "d": 104.16675000000396,
      "v": 100
    },
    {
      "midi": 69,
      "hit": false,
      "t": 91979.2402499995,
      "d": 104.16675000000396,
      "v": 100
    },
    {
      "midi": 57,
      "hit": false,
      "t": 91979.2402499995,
      "d": 104.16675000000396,
      "v": 100
    },
    {
      "midi": 33,
      "hit": false,
      "t": 91979.2402499995,
      "d": 104.16675000000396,
      "v": 100
    },
    {
      "midi": 35,
      "hit": false,
      "t": 91979.2402499997,
      "d": 104.16675000000396,
      "v": 100
    },
    {
      "midi": 33,
      "hit": false,
      "t": 91979.24024999986,
      "d": 104.16675000000396,
      "v": 100
    },
    {
      "midi": 33,
      "hit": false,
      "t": 91979.24025000005,
      "d": 104.16675000000396,
      "v": 100
    },
    {
      "midi": 57,
      "hit": false,
      "t": 91979.24025000009,
      "d": 104.16675000000396,
      "v": 100
    },
    {
      "midi": 45,
      "hit": false,
      "t": 91979.24025000009,
      "d": 104.16675000000396,
      "v": 100
    },
    {
      "midi": 57,
      "hit": false,
      "t": 91979.24025000013,
      "d": 104.16675000000396,
      "v": 100
    },
    {
      "midi": 45,
      "hit": false,
      "t": 91979.24025000013,
      "d": 104.16675000000396,
      "v": 100
    },
    {
      "midi": 57,
      "hit": false,
      "t": 91979.24025000013,
      "d": 104.16675000000396,
      "v": 100
    },
    {
      "midi": 69,
      "hit": false,
      "t": 91979.24025000013,
      "d": 104.16675000000396,
      "v": 100
    },
    {
      "midi": 64,
      "hit": false,
      "t": 92083.4069999995,
      "d": 312.5002499999973,
      "v": 100
    },
    {
      "midi": 76,
      "hit": false,
      "t": 92083.4069999995,
      "d": 312.5002499999973,
      "v": 100
    },
    {
      "midi": 40,
      "hit": false,
      "t": 92083.4069999995,
      "d": 312.5002499999973,
      "v": 100
    },
    {
      "midi": 38,
      "hit": false,
      "t": 92083.4069999997,
      "d": 104.16675000000396,
      "v": 100
    },
    {
      "midi": 35,
      "hit": false,
      "t": 92083.4069999997,
      "d": 104.16675000000396,
      "v": 100
    },
    {
      "midi": 40,
      "hit": false,
      "t": 92083.40699999986,
      "d": 312.5002499999973,
      "v": 100
    },
    {
      "midi": 40,
      "hit": false,
      "t": 92083.40700000005,
      "d": 312.5002499999973,
      "v": 100
    },
    {
      "midi": 64,
      "hit": false,
      "t": 92083.4070000001,
      "d": 312.5002499999973,
      "v": 100
    },
    {
      "midi": 52,
      "hit": false,
      "t": 92083.4070000001,
      "d": 312.5002499999973,
      "v": 100
    },
    {
      "midi": 58,
      "hit": false,
      "t": 92083.4070000001,
      "d": 312.5002499999973,
      "v": 100
    },
    {
      "midi": 64,
      "hit": false,
      "t": 92083.40700000014,
      "d": 312.5002499999973,
      "v": 100
    },
    {
      "midi": 52,
      "hit": false,
      "t": 92083.40700000014,
      "d": 312.5002499999973,
      "v": 100
    },
    {
      "midi": 64,
      "hit": false,
      "t": 92083.40700000014,
      "d": 312.5002499999973,
      "v": 100
    },
    {
      "midi": 76,
      "hit": false,
      "t": 92083.40700000014,
      "d": 312.5002499999973,
      "v": 100
    },
    {
      "midi": 70,
      "hit": false,
      "t": 92083.40700000014,
      "d": 312.5002499999973,
      "v": 100
    },
    {
      "midi": 77,
      "hit": false,
      "t": 92395.9072499995,
      "d": 312.5002499999973,
      "v": 100
    },
    {
      "midi": 65,
      "hit": false,
      "t": 92395.9072499995,
      "d": 312.5002499999973,
      "v": 100
    },
    {
      "midi": 41,
      "hit": false,
      "t": 92395.9072499995,
      "d": 312.5002499999973,
      "v": 100
    },
    {
      "midi": 38,
      "hit": false,
      "t": 92395.9072499997,
      "d": 104.16675000000396,
      "v": 100
    },
    {
      "midi": 35,
      "hit": false,
      "t": 92395.9072499997,
      "d": 104.16675000000396,
      "v": 100
    },
    {
      "midi": 41,
      "hit": false,
      "t": 92395.90724999986,
      "d": 312.5002499999973,
      "v": 100
    },
    {
      "midi": 41,
      "hit": false,
      "t": 92395.90725000005,
      "d": 312.5002499999973,
      "v": 100
    },
    {
      "midi": 65,
      "hit": false,
      "t": 92395.90725000009,
      "d": 312.5002499999973,
      "v": 100
    },
    {
      "midi": 53,
      "hit": false,
      "t": 92395.90725000009,
      "d": 312.5002499999973,
      "v": 100
    },
    {
      "midi": 60,
      "hit": false,
      "t": 92395.90725000009,
      "d": 312.5002499999973,
      "v": 100
    },
    {
      "midi": 65,
      "hit": false,
      "t": 92395.90725000013,
      "d": 312.5002499999973,
      "v": 100
    },
    {
      "midi": 53,
      "hit": false,
      "t": 92395.90725000013,
      "d": 312.5002499999973,
      "v": 100
    },
    {
      "midi": 65,
      "hit": false,
      "t": 92395.90725000013,
      "d": 312.5002499999973,
      "v": 100
    },
    {
      "midi": 77,
      "hit": false,
      "t": 92395.90725000013,
      "d": 312.5002499999973,
      "v": 100
    },
    {
      "midi": 72,
      "hit": false,
      "t": 92395.90725000013,
      "d": 312.5002499999973,
      "v": 100
    },
    {
      "midi": 79,
      "hit": false,
      "t": 92708.40749999949,
      "d": 312.5002499999973,
      "v": 100
    },
    {
      "midi": 67,
      "hit": false,
      "t": 92708.40749999949,
      "d": 312.5002499999973,
      "v": 100
    },
    {
      "midi": 43,
      "hit": false,
      "t": 92708.40749999949,
      "d": 312.5002499999973,
      "v": 100
    },
    {
      "midi": 38,
      "hit": false,
      "t": 92708.4074999997,
      "d": 104.16675000000396,
      "v": 100
    },
    {
      "midi": 35,
      "hit": false,
      "t": 92708.4074999997,
      "d": 104.16675000000396,
      "v": 100
    },
    {
      "midi": 43,
      "hit": false,
      "t": 92708.40749999986,
      "d": 312.5002499999973,
      "v": 100
    },
    {
      "midi": 43,
      "hit": false,
      "t": 92708.40750000004,
      "d": 312.5002499999973,
      "v": 100
    },
    {
      "midi": 67,
      "hit": false,
      "t": 92708.40750000009,
      "d": 312.5002499999973,
      "v": 100
    },
    {
      "midi": 55,
      "hit": false,
      "t": 92708.40750000009,
      "d": 312.5002499999973,
      "v": 100
    },
    {
      "midi": 62,
      "hit": false,
      "t": 92708.40750000009,
      "d": 312.5002499999973,
      "v": 100
    },
    {
      "midi": 67,
      "hit": false,
      "t": 92708.40750000013,
      "d": 312.5002499999973,
      "v": 100
    },
    {
      "midi": 55,
      "hit": false,
      "t": 92708.40750000013,
      "d": 312.5002499999973,
      "v": 100
    },
    {
      "midi": 67,
      "hit": false,
      "t": 92708.40750000013,
      "d": 312.5002499999973,
      "v": 100
    },
    {
      "midi": 79,
      "hit": false,
      "t": 92708.40750000013,
      "d": 312.5002499999973,
      "v": 100
    },
    {
      "midi": 74,
      "hit": false,
      "t": 92708.40750000013,
      "d": 312.5002499999973,
      "v": 100
    },
    {
      "midi": 81,
      "hit": false,
      "t": 93020.90774999949,
      "d": 312.5002499999973,
      "v": 100
    },
    {
      "midi": 69,
      "hit": false,
      "t": 93020.90774999949,
      "d": 312.5002499999973,
      "v": 100
    },
    {
      "midi": 45,
      "hit": false,
      "t": 93020.90774999949,
      "d": 312.5002499999973,
      "v": 100
    },
    {
      "midi": 38,
      "hit": false,
      "t": 93020.9077499997,
      "d": 104.16675000000396,
      "v": 100
    },
    {
      "midi": 35,
      "hit": false,
      "t": 93020.9077499997,
      "d": 104.16675000000396,
      "v": 100
    },
    {
      "midi": 45,
      "hit": false,
      "t": 93020.90774999985,
      "d": 312.5002499999973,
      "v": 100
    },
    {
      "midi": 45,
      "hit": false,
      "t": 93020.90775000004,
      "d": 312.5002499999973,
      "v": 100
    },
    {
      "midi": 69,
      "hit": false,
      "t": 93020.90775000009,
      "d": 312.5002499999973,
      "v": 100
    },
    {
      "midi": 57,
      "hit": false,
      "t": 93020.90775000009,
      "d": 312.5002499999973,
      "v": 100
    },
    {
      "midi": 64,
      "hit": false,
      "t": 93020.90775000009,
      "d": 312.5002499999973,
      "v": 100
    },
    {
      "midi": 69,
      "hit": false,
      "t": 93020.90775000013,
      "d": 312.5002499999973,
      "v": 100
    },
    {
      "midi": 57,
      "hit": false,
      "t": 93020.90775000013,
      "d": 312.5002499999973,
      "v": 100
    },
    {
      "midi": 69,
      "hit": false,
      "t": 93020.90775000013,
      "d": 312.5002499999973,
      "v": 100
    },
    {
      "midi": 81,
      "hit": false,
      "t": 93020.90775000013,
      "d": 312.5002499999973,
      "v": 100
    },
    {
      "midi": 76,
      "hit": false,
      "t": 93020.90775000013,
      "d": 312.5002499999973,
      "v": 100
    },
    {
      "midi": 38,
      "hit": false,
      "t": 93229.2412499997,
      "d": 104.16675000000396,
      "v": 100
    },
    {
      "midi": 84,
      "hit": false,
      "t": 93333.40799999949,
      "d": 312.5002499999973,
      "v": 100
    },
    {
      "midi": 72,
      "hit": false,
      "t": 93333.40799999949,
      "d": 312.5002499999973,
      "v": 100
    },
    {
      "midi": 48,
      "hit": false,
      "t": 93333.40799999949,
      "d": 312.5002499999973,
      "v": 100
    },
    {
      "midi": 38,
      "hit": false,
      "t": 93333.4079999997,
      "d": 104.16675000000396,
      "v": 100
    },
    {
      "midi": 35,
      "hit": false,
      "t": 93333.4079999997,
      "d": 104.16675000000396,
      "v": 100
    },
    {
      "midi": 48,
      "hit": false,
      "t": 93333.40799999985,
      "d": 312.5002499999973,
      "v": 100
    },
    {
      "midi": 48,
      "hit": false,
      "t": 93333.40800000004,
      "d": 312.5002499999973,
      "v": 100
    },
    {
      "midi": 72,
      "hit": false,
      "t": 93333.40800000008,
      "d": 312.5002499999973,
      "v": 100
    },
    {
      "midi": 60,
      "hit": false,
      "t": 93333.40800000008,
      "d": 312.5002499999973,
      "v": 100
    },
    {
      "midi": 67,
      "hit": false,
      "t": 93333.40800000008,
      "d": 312.5002499999973,
      "v": 100
    },
    {
      "midi": 72,
      "hit": false,
      "t": 93333.40800000013,
      "d": 312.5002499999973,
      "v": 100
    },
    {
      "midi": 60,
      "hit": false,
      "t": 93333.40800000013,
      "d": 312.5002499999973,
      "v": 100
    },
    {
      "midi": 72,
      "hit": false,
      "t": 93333.40800000013,
      "d": 312.5002499999973,
      "v": 100
    },
    {
      "midi": 84,
      "hit": false,
      "t": 93333.40800000013,
      "d": 312.5002499999973,
      "v": 100
    },
    {
      "midi": 79,
      "hit": false,
      "t": 93333.40800000013,
      "d": 312.5002499999973,
      "v": 100
    },
    {
      "midi": 38,
      "hit": false,
      "t": 93437.57474999971,
      "d": 104.16675000000396,
      "v": 100
    },
    {
      "midi": 38,
      "hit": false,
      "t": 93541.74149999971,
      "d": 104.16675000000396,
      "v": 100
    },
    {
      "midi": 82,
      "hit": false,
      "t": 93645.90824999948,
      "d": 2187.501749999996,
      "v": 100
    },
    {
      "midi": 70,
      "hit": false,
      "t": 93645.90824999948,
      "d": 2187.501749999996,
      "v": 100
    },
    {
      "midi": 46,
      "hit": false,
      "t": 93645.90824999948,
      "d": 2187.501749999996,
      "v": 100
    },
    {
      "midi": 35,
      "hit": false,
      "t": 93645.90824999972,
      "d": 104.16675000000396,
      "v": 100
    },
    {
      "midi": 38,
      "hit": false,
      "t": 93645.90824999972,
      "d": 104.16675000000396,
      "v": 100
    },
    {
      "midi": 49,
      "hit": false,
      "t": 93645.90824999972,
      "d": 104.16675000000396,
      "v": 100
    },
    {
      "midi": 46,
      "hit": false,
      "t": 93645.90824999985,
      "d": 2187.501749999996,
      "v": 100
    },
    {
      "midi": 46,
      "hit": false,
      "t": 93645.90825000004,
      "d": 2187.501749999996,
      "v": 100
    },
    {
      "midi": 70,
      "hit": false,
      "t": 93645.90825000008,
      "d": 2187.501749999996,
      "v": 100
    },
    {
      "midi": 58,
      "hit": false,
      "t": 93645.90825000008,
      "d": 2187.501749999996,
      "v": 100
    },
    {
      "midi": 65,
      "hit": false,
      "t": 93645.90825000008,
      "d": 2187.501749999996,
      "v": 100
    },
    {
      "midi": 70,
      "hit": false,
      "t": 93645.90825000012,
      "d": 2187.501749999996,
      "v": 100
    },
    {
      "midi": 58,
      "hit": false,
      "t": 93645.90825000012,
      "d": 2187.501749999996,
      "v": 100
    },
    {
      "midi": 70,
      "hit": false,
      "t": 93645.90825000012,
      "d": 2187.501749999996,
      "v": 100
    },
    {
      "midi": 82,
      "hit": false,
      "t": 93645.90825000012,
      "d": 2187.501749999996,
      "v": 100
    },
    {
      "midi": 77,
      "hit": false,
      "t": 93645.90825000012,
      "d": 2187.501749999996,
      "v": 100
    }
  ]
}