{
  "jsonPath": "Animes/Slayers MIDI Collection/somewhere-in-the-world.json",
  "path": "Animes\\Slayers MIDI Collection\\Somewhere In The World.mid",
  "name": "Somewhere In The World",
  "difficulty": "Advanced",
  "bpm": 200,
  "notes": [
    {
      "midi": 59,
      "hit": false,
      "t": 1457.1420000000003,
      "d": 428.57100000000014,
      "v": 120
    },
    {
      "midi": 64,
      "hit": false,
      "t": 1885.7130000000004,
      "d": 428.57100000000014,
      "v": 120
    },
    {
      "midi": 66,
      "hit": false,
      "t": 2314.2840000000006,
      "d": 428.5709999999999,
      "v": 110
    },
    {
      "midi": 59,
      "hit": false,
      "t": 2314.2840000000006,
      "d": 849.9991500000006,
      "v": 110
    },
    {
      "midi": 56,
      "hit": false,
      "t": 2314.2840000000006,
      "d": 857.1420000000007,
      "v": 110
    },
    {
      "midi": 40,
      "hit": false,
      "t": 2314.2840000000006,
      "d": 3428.5679999999957,
      "v": 127
    },
    {
      "midi": 68,
      "hit": false,
      "t": 2742.8550000000005,
      "d": 207.14265000000023,
      "v": 120
    },
    {
      "midi": 56,
      "hit": false,
      "t": 3171.4260000000013,
      "d": 849.9991499999946,
      "v": 110
    },
    {
      "midi": 59,
      "hit": false,
      "t": 3171.4260000000013,
      "d": 857.1419999999948,
      "v": 110
    },
    {
      "midi": 68,
      "hit": false,
      "t": 3171.4260000000013,
      "d": 857.1419999999948,
      "v": 110
    },
    {
      "midi": 52,
      "hit": false,
      "t": 3599.9969999999985,
      "d": 849.9991499999978,
      "v": 115
    },
    {
      "midi": 59,
      "hit": false,
      "t": 4028.567999999996,
      "d": 849.9991500000001,
      "v": 110
    },
    {
      "midi": 56,
      "hit": false,
      "t": 4028.567999999996,
      "d": 857.1420000000003,
      "v": 110
    },
    {
      "midi": 66,
      "hit": false,
      "t": 4028.567999999996,
      "d": 857.1420000000003,
      "v": 110
    },
    {
      "midi": 52,
      "hit": false,
      "t": 4457.1389999999965,
      "d": 849.9991499999996,
      "v": 115
    },
    {
      "midi": 66,
      "hit": false,
      "t": 4885.709999999996,
      "d": 428.5709999999999,
      "v": 120
    },
    {
      "midi": 59,
      "hit": false,
      "t": 4885.709999999996,
      "d": 849.9991499999996,
      "v": 110
    },
    {
      "midi": 56,
      "hit": false,
      "t": 4885.709999999996,
      "d": 857.1419999999998,
      "v": 110
    },
    {
      "midi": 68,
      "hit": false,
      "t": 4885.709999999996,
      "d": 857.1419999999998,
      "v": 110
    },
    {
      "midi": 64,
      "hit": false,
      "t": 5314.280999999996,
      "d": 428.5709999999999,
      "v": 120
    },
    {
      "midi": 52,
      "hit": false,
      "t": 5314.280999999996,
      "d": 428.5709999999999,
      "v": 115
    },
    {
      "midi": 66,
      "hit": false,
      "t": 5742.851999999996,
      "d": 428.5709999999999,
      "v": 110
    },
    {
      "midi": 59,
      "hit": false,
      "t": 5742.851999999996,
      "d": 849.9991499999996,
      "v": 110
    },
    {
      "midi": 63,
      "hit": false,
      "t": 5742.851999999996,
      "d": 857.1419999999998,
      "v": 110
    },
    {
      "midi": 44,
      "hit": false,
      "t": 5742.851999999996,
      "d": 3428.568000000002,
      "v": 127
    },
    {
      "midi": 68,
      "hit": false,
      "t": 6171.422999999996,
      "d": 207.14264999999978,
      "v": 120
    },
    {
      "midi": 59,
      "hit": false,
      "t": 6599.993999999996,
      "d": 849.9991499999996,
      "v": 110
    },
    {
      "midi": 63,
      "hit": false,
      "t": 6599.993999999996,
      "d": 857.1419999999998,
      "v": 110
    },
    {
      "midi": 68,
      "hit": false,
      "t": 6599.993999999996,
      "d": 857.1419999999998,
      "v": 110
    },
    {
      "midi": 56,
      "hit": false,
      "t": 7028.564999999996,
      "d": 849.9991499999996,
      "v": 115
    },
    {
      "midi": 59,
      "hit": false,
      "t": 7457.135999999996,
      "d": 849.9991500000006,
      "v": 110
    },
    {
      "midi": 63,
      "hit": false,
      "t": 7457.135999999996,
      "d": 857.1420000000007,
      "v": 110
    },
    {
      "midi": 66,
      "hit": false,
      "t": 7457.135999999996,
      "d": 857.1420000000007,
      "v": 110
    },
    {
      "midi": 56,
      "hit": false,
      "t": 7885.706999999996,
      "d": 849.9991500000006,
      "v": 115
    },
    {
      "midi": 68,
      "hit": false,
      "t": 8314.277999999997,
      "d": 535.7137500000008,
      "v": 110
    },
    {
      "midi": 59,
      "hit": false,
      "t": 8314.277999999997,
      "d": 857.1420000000016,
      "v": 110
    },
    {
      "midi": 63,
      "hit": false,
      "t": 8314.277999999997,
      "d": 857.1420000000016,
      "v": 110
    },
    {
      "midi": 56,
      "hit": false,
      "t": 8742.848999999997,
      "d": 428.57100000000173,
      "v": 115
    },
    {
      "midi": 66,
      "hit": false,
      "t": 9171.419999999998,
      "d": 214.28549999999996,
      "v": 110
    },
    {
      "midi": 57,
      "hit": false,
      "t": 9171.419999999998,
      "d": 421.42814999999973,
      "v": 100
    },
    {
      "midi": 47,
      "hit": false,
      "t": 9171.419999999998,
      "d": 428.5709999999999,
      "v": 100
    },
    {
      "midi": 62,
      "hit": false,
      "t": 9171.419999999998,
      "d": 849.9991499999996,
      "v": 110
    },
    {
      "midi": 59,
      "hit": false,
      "t": 9171.419999999998,
      "d": 857.1419999999998,
      "v": 110
    },
    {
      "midi": 64,
      "hit": false,
      "t": 9385.705499999998,
      "d": 428.5709999999999,
      "v": 120
    },
    {
      "midi": 57,
      "hit": false,
      "t": 9599.990999999998,
      "d": 421.42814999999973,
      "v": 80
    },
    {
      "midi": 47,
      "hit": false,
      "t": 9599.990999999998,
      "d": 428.5709999999999,
      "v": 85
    },
    {
      "midi": 66,
      "hit": false,
      "t": 9814.276499999998,
      "d": 214.28549999999996,
      "v": 120
    },
    {
      "midi": 57,
      "hit": false,
      "t": 10028.561999999998,
      "d": 421.42814999999973,
      "v": 100
    },
    {
      "midi": 66,
      "hit": false,
      "t": 10028.561999999998,
      "d": 428.5709999999999,
      "v": 110
    },
    {
      "midi": 47,
      "hit": false,
      "t": 10028.561999999998,
      "d": 428.5709999999999,
      "v": 100
    },
    {
      "midi": 59,
      "hit": false,
      "t": 10028.561999999998,
      "d": 849.9991499999996,
      "v": 110
    },
    {
      "midi": 62,
      "hit": false,
      "t": 10028.561999999998,
      "d": 857.1419999999998,
      "v": 110
    },
    {
      "midi": 69,
      "hit": false,
      "t": 10457.132999999998,
      "d": 428.5709999999999,
      "v": 120
    },
    {
      "midi": 57,
      "hit": false,
      "t": 10457.132999999998,
      "d": 428.5709999999999,
      "v": 80
    },
    {
      "midi": 47,
      "hit": false,
      "t": 10457.132999999998,
      "d": 428.5709999999999,
      "v": 85
    },
    {
      "midi": 59,
      "hit": false,
      "t": 10885.703999999998,
      "d": 421.42814999999973,
      "v": 110
    },
    {
      "midi": 68,
      "hit": false,
      "t": 10885.703999999998,
      "d": 857.1419999999998,
      "v": 120
    },
    {
      "midi": 56,
      "hit": false,
      "t": 10885.703999999998,
      "d": 857.1419999999998,
      "v": 110
    },
    {
      "midi": 64,
      "hit": false,
      "t": 10885.703999999998,
      "d": 857.1419999999998,
      "v": 110
    },
    {
      "midi": 52,
      "hit": false,
      "t": 10885.703999999998,
      "d": 857.1419999999998,
      "v": 120
    },
    {
      "midi": 59,
      "hit": false,
      "t": 11314.274999999998,
      "d": 421.42814999999973,
      "v": 80
    },
    {
      "midi": 59,
      "hit": false,
      "t": 11742.845999999998,
      "d": 421.42814999999973,
      "v": 110
    },
    {
      "midi": 62,
      "hit": false,
      "t": 11742.845999999998,
      "d": 428.5709999999999,
      "v": 110
    },
    {
      "midi": 64,
      "hit": false,
      "t": 11742.845999999998,
      "d": 849.9991499999996,
      "v": 110
    },
    {
      "midi": 66,
      "hit": false,
      "t": 11742.845999999998,
      "d": 857.1419999999998,
      "v": 120
    },
    {
      "midi": 40,
      "hit": false,
      "t": 11742.845999999998,
      "d": 857.1419999999998,
      "v": 127
    },
    {
      "midi": 59,
      "hit": false,
      "t": 12171.416999999998,
      "d": 428.5709999999999,
      "v": 80
    },
    {
      "midi": 68,
      "hit": false,
      "t": 12599.987999999998,
      "d": 428.5709999999999,
      "v": 120
    },
    {
      "midi": 57,
      "hit": false,
      "t": 12599.987999999998,
      "d": 849.9991499999996,
      "v": 110
    },
    {
      "midi": 45,
      "hit": false,
      "t": 12599.987999999998,
      "d": 2999.997000000021,
      "v": 127
    },
    {
      "midi": 61,
      "hit": false,
      "t": 13028.558999999997,
      "d": 214.28549999999996,
      "v": 120
    },
    {
      "midi": 52,
      "hit": false,
      "t": 13028.558999999997,
      "d": 1707.1411500000158,
      "v": 120
    },
    {
      "midi": 64,
      "hit": false,
      "t": 13242.844499999997,
      "d": 1064.284650000005,
      "v": 120
    },
    {
      "midi": 57,
      "hit": false,
      "t": 13457.129999999997,
      "d": 1707.1411500000213,
      "v": 110
    },
    {
      "midi": 59,
      "hit": false,
      "t": 13671.415499999997,
      "d": 1499.9985000000215,
      "v": 110
    },
    {
      "midi": 61,
      "hit": false,
      "t": 13885.700999999997,
      "d": 1278.5701500000214,
      "v": 110
    },
    {
      "midi": 68,
      "hit": false,
      "t": 14099.986499999997,
      "d": 1071.4275000000216,
      "v": 110
    },
    {
      "midi": 64,
      "hit": false,
      "t": 14314.272000000003,
      "d": 1642.855500000016,
      "v": 110
    },
    {
      "midi": 52,
      "hit": false,
      "t": 14742.843000000013,
      "d": 857.1420000000053,
      "v": 115
    },
    {
      "midi": 57,
      "hit": false,
      "t": 15171.414000000019,
      "d": 857.1419999999998,
      "v": 110
    },
    {
      "midi": 59,
      "hit": false,
      "t": 15171.414000000019,
      "d": 857.1419999999998,
      "v": 110
    },
    {
      "midi": 61,
      "hit": false,
      "t": 15171.414000000019,
      "d": 857.1419999999998,
      "v": 110
    },
    {
      "midi": 44,
      "hit": false,
      "t": 15599.985000000019,
      "d": 428.5709999999999,
      "v": 127
    },
    {
      "midi": 57,
      "hit": false,
      "t": 16028.556000000019,
      "d": 849.9991499999996,
      "v": 110
    },
    {
      "midi": 61,
      "hit": false,
      "t": 16028.556000000019,
      "d": 857.1419999999998,
      "v": 110
    },
    {
      "midi": 42,
      "hit": false,
      "t": 16028.556000000019,
      "d": 1714.2839999999997,
      "v": 127
    },
    {
      "midi": 64,
      "hit": false,
      "t": 16457.12700000002,
      "d": 421.42814999999973,
      "v": 120
    },
    {
      "midi": 64,
      "hit": false,
      "t": 16885.69800000002,
      "d": 421.42814999999973,
      "v": 120
    },
    {
      "midi": 57,
      "hit": false,
      "t": 16885.69800000002,
      "d": 849.9991499999996,
      "v": 110
    },
    {
      "midi": 61,
      "hit": false,
      "t": 16885.69800000002,
      "d": 857.1419999999998,
      "v": 110
    },
    {
      "midi": 64,
      "hit": false,
      "t": 17314.26900000002,
      "d": 421.42814999999973,
      "v": 120
    },
    {
      "midi": 54,
      "hit": false,
      "t": 17314.26900000002,
      "d": 428.5709999999999,
      "v": 115
    },
    {
      "midi": 47,
      "hit": false,
      "t": 17742.84000000002,
      "d": 421.42814999999973,
      "v": 120
    },
    {
      "midi": 64,
      "hit": false,
      "t": 17742.84000000002,
      "d": 642.8565000000017,
      "v": 120
    },
    {
      "midi": 57,
      "hit": false,
      "t": 17742.84000000002,
      "d": 857.1420000000035,
      "v": 110
    },
    {
      "midi": 61,
      "hit": false,
      "t": 17742.84000000002,
      "d": 857.1420000000035,
      "v": 110
    },
    {
      "midi": 47,
      "hit": false,
      "t": 18171.41100000002,
      "d": 849.9991500000033,
      "v": 100
    },
    {
      "midi": 66,
      "hit": false,
      "t": 18385.69650000002,
      "d": 207.1426500000016,
      "v": 120
    },
    {
      "midi": 66,
      "hit": false,
      "t": 18599.98200000002,
      "d": 857.1419999999998,
      "v": 110
    },
    {
      "midi": 63,
      "hit": false,
      "t": 18599.98200000002,
      "d": 857.1419999999998,
      "v": 110
    },
    {
      "midi": 57,
      "hit": false,
      "t": 18599.98200000002,
      "d": 857.1419999999998,
      "v": 110
    },
    {
      "midi": 47,
      "hit": false,
      "t": 19028.55300000002,
      "d": 428.5709999999999,
      "v": 120
    },
    {
      "midi": 59,
      "hit": false,
      "t": 19457.12400000002,
      "d": 857.1419999999998,
      "v": 110
    },
    {
      "midi": 66,
      "hit": false,
      "t": 19457.12400000002,
      "d": 857.1419999999998,
      "v": 110
    },
    {
      "midi": 44,
      "hit": false,
      "t": 19457.12400000002,
      "d": 1714.2839999999997,
      "v": 127
    },
    {
      "midi": 63,
      "hit": false,
      "t": 19885.69500000002,
      "d": 421.42814999999973,
      "v": 120
    },
    {
      "midi": 63,
      "hit": false,
      "t": 20314.26600000002,
      "d": 428.5709999999999,
      "v": 110
    },
    {
      "midi": 66,
      "hit": false,
      "t": 20314.26600000002,
      "d": 857.1419999999998,
      "v": 110
    },
    {
      "midi": 71,
      "hit": false,
      "t": 20742.83700000002,
      "d": 428.5709999999999,
      "v": 120
    },
    {
      "midi": 56,
      "hit": false,
      "t": 20742.83700000002,
      "d": 428.5709999999999,
      "v": 115
    },
    {
      "midi": 56,
      "hit": false,
      "t": 21171.40800000002,
      "d": 421.42815000001065,
      "v": 110
    },
    {
      "midi": 69,
      "hit": false,
      "t": 21171.40800000002,
      "d": 857.1420000000107,
      "v": 120
    },
    {
      "midi": 59,
      "hit": false,
      "t": 21171.40800000002,
      "d": 857.1420000000107,
      "v": 110
    },
    {
      "midi": 64,
      "hit": false,
      "t": 21171.40800000002,
      "d": 857.1420000000107,
      "v": 110
    },
    {
      "midi": 37,
      "hit": false,
      "t": 21171.40800000002,
      "d": 1714.2840000000106,
      "v": 127
    },
    {
      "midi": 56,
      "hit": false,
      "t": 21599.979000000032,
      "d": 428.5709999999999,
      "v": 75
    },
    {
      "midi": 68,
      "hit": false,
      "t": 22028.550000000032,
      "d": 428.5709999999999,
      "v": 110
    },
    {
      "midi": 59,
      "hit": false,
      "t": 22028.550000000032,
      "d": 857.1419999999998,
      "v": 110
    },
    {
      "midi": 64,
      "hit": false,
      "t": 22028.550000000032,
      "d": 857.1419999999998,
      "v": 110
    },
    {
      "midi": 69,
      "hit": false,
      "t": 22457.121000000032,
      "d": 428.5709999999999,
      "v": 120
    },
    {
      "midi": 49,
      "hit": false,
      "t": 22457.121000000032,
      "d": 428.5709999999999,
      "v": 120
    },
    {
      "midi": 68,
      "hit": false,
      "t": 22885.692000000032,
      "d": 428.5709999999999,
      "v": 120
    },
    {
      "midi": 57,
      "hit": false,
      "t": 22885.692000000032,
      "d": 857.1420000000035,
      "v": 110
    },
    {
      "midi": 42,
      "hit": false,
      "t": 22885.692000000032,
      "d": 1278.5701500000032,
      "v": 127
    },
    {
      "midi": 61,
      "hit": false,
      "t": 23314.26300000003,
      "d": 214.28550000000178,
      "v": 120
    },
    {
      "midi": 61,
      "hit": false,
      "t": 23742.834000000035,
      "d": 849.9991500000069,
      "v": 110
    },
    {
      "midi": 57,
      "hit": false,
      "t": 23742.834000000035,
      "d": 857.1420000000071,
      "v": 110
    },
    {
      "midi": 64,
      "hit": false,
      "t": 23742.834000000035,
      "d": 857.1420000000071,
      "v": 110
    },
    {
      "midi": 42,
      "hit": false,
      "t": 24171.405000000035,
      "d": 428.5710000000072,
      "v": 105
    },
    {
      "midi": 57,
      "hit": false,
      "t": 24599.976000000042,
      "d": 421.428150000007,
      "v": 110
    },
    {
      "midi": 64,
      "hit": false,
      "t": 24599.976000000042,
      "d": 535.7137500000063,
      "v": 110
    },
    {
      "midi": 61,
      "hit": false,
      "t": 24599.976000000042,
      "d": 849.9991500000069,
      "v": 110
    },
    {
      "midi": 40,
      "hit": false,
      "t": 24599.976000000042,
      "d": 1714.284000000007,
      "v": 127
    },
    {
      "midi": 57,
      "hit": false,
      "t": 25028.54700000005,
      "d": 428.5709999999999,
      "v": 90
    },
    {
      "midi": 61,
      "hit": false,
      "t": 25457.11800000005,
      "d": 428.5709999999999,
      "v": 110
    },
    {
      "midi": 57,
      "hit": false,
      "t": 25457.11800000005,
      "d": 857.1419999999998,
      "v": 110
    },
    {
      "midi": 64,
      "hit": false,
      "t": 25885.68900000005,
      "d": 428.5709999999999,
      "v": 120
    },
    {
      "midi": 52,
      "hit": false,
      "t": 25885.68900000005,
      "d": 428.5709999999999,
      "v": 110
    },
    {
      "midi": 57,
      "hit": false,
      "t": 26314.26000000005,
      "d": 421.42814999999973,
      "v": 110
    },
    {
      "midi": 63,
      "hit": false,
      "t": 26314.26000000005,
      "d": 1278.5701499999996,
      "v": 110
    },
    {
      "midi": 68,
      "hit": false,
      "t": 26314.26000000005,
      "d": 1285.7129999999997,
      "v": 120
    },
    {
      "midi": 47,
      "hit": false,
      "t": 26314.26000000005,
      "d": 1707.1411499999995,
      "v": 123
    },
    {
      "midi": 59,
      "hit": false,
      "t": 26314.26000000005,
      "d": 2135.7121499999994,
      "v": 110
    },
    {
      "midi": 57,
      "hit": false,
      "t": 26742.83100000005,
      "d": 1285.7129999999997,
      "v": 110
    },
    {
      "midi": 61,
      "hit": false,
      "t": 27171.40200000005,
      "d": 2628.9959999999955,
      "v": 110
    },
    {
      "midi": 66,
      "hit": false,
      "t": 27599.97300000005,
      "d": 421.42814999999973,
      "v": 120
    },
    {
      "midi": 63,
      "hit": false,
      "t": 27599.97300000005,
      "d": 421.42814999999973,
      "v": 110
    },
    {
      "midi": 66,
      "hit": false,
      "t": 28028.54400000005,
      "d": 801.7051666666666,
      "v": 110
    },
    {
      "midi": 63,
      "hit": false,
      "t": 28028.54400000005,
      "d": 1771.8539999999957,
      "v": 110
    },
    {
      "midi": 57,
      "hit": false,
      "t": 28028.54400000005,
      "d": 1771.8539999999957,
      "v": 110
    },
    {
      "midi": 47,
      "hit": false,
      "t": 28028.54400000005,
      "d": 1771.8539999999957,
      "v": 123
    },
    {
      "midi": 59,
      "hit": false,
      "t": 28904.876000000047,
      "d": 447.7609999999986,
      "v": 120
    },
    {
      "midi": 71,
      "hit": false,
      "t": 28904.876000000047,
      "d": 895.5219999999972,
      "v": 115
    },
    {
      "midi": 64,
      "hit": false,
      "t": 29352.637000000046,
      "d": 447.7609999999986,
      "v": 120
    },
    {
      "midi": 66,
      "hit": false,
      "t": 29800.398000000045,
      "d": 428.5709999999999,
      "v": 110
    },
    {
      "midi": 59,
      "hit": false,
      "t": 29800.398000000045,
      "d": 849.9991500000033,
      "v": 110
    },
    {
      "midi": 56,
      "hit": false,
      "t": 29800.398000000045,
      "d": 857.1420000000035,
      "v": 110
    },
    {
      "midi": 40,
      "hit": false,
      "t": 29800.398000000045,
      "d": 3428.5680000000066,
      "v": 127
    },
    {
      "midi": 68,
      "hit": false,
      "t": 30228.969000000045,
      "d": 207.1426500000016,
      "v": 120
    },
    {
      "midi": 56,
      "hit": false,
      "t": 30657.540000000048,
      "d": 849.9991500000106,
      "v": 110
    },
    {
      "midi": 59,
      "hit": false,
      "t": 30657.540000000048,
      "d": 857.1420000000107,
      "v": 110
    },
    {
      "midi": 68,
      "hit": false,
      "t": 30657.540000000048,
      "d": 857.1420000000107,
      "v": 110
    },
    {
      "midi": 52,
      "hit": false,
      "t": 31086.111000000048,
      "d": 849.9991500000106,
      "v": 115
    },
    {
      "midi": 59,
      "hit": false,
      "t": 31514.68200000006,
      "d": 849.9991499999996,
      "v": 110
    },
    {
      "midi": 56,
      "hit": false,
      "t": 31514.68200000006,
      "d": 857.1419999999998,
      "v": 110
    },
    {
      "midi": 66,
      "hit": false,
      "t": 31514.68200000006,
      "d": 857.1419999999998,
      "v": 110
    },
    {
      "midi": 52,
      "hit": false,
      "t": 31943.25300000006,
      "d": 849.9991499999996,
      "v": 115
    },
    {
      "midi": 66,
      "hit": false,
      "t": 32371.82400000006,
      "d": 428.5709999999963,
      "v": 120
    },
    {
      "midi": 59,
      "hit": false,
      "t": 32371.82400000006,
      "d": 849.999149999996,
      "v": 110
    },
    {
      "midi": 56,
      "hit": false,
      "t": 32371.82400000006,
      "d": 857.1419999999925,
      "v": 110
    },
    {
      "midi": 68,
      "hit": false,
      "t": 32371.82400000006,
      "d": 857.1419999999925,
      "v": 110
    },
    {
      "midi": 64,
      "hit": false,
      "t": 32800.395000000055,
      "d": 428.5709999999963,
      "v": 120
    },
    {
      "midi": 52,
      "hit": false,
      "t": 32800.395000000055,
      "d": 428.5709999999963,
      "v": 115
    },
    {
      "midi": 66,
      "hit": false,
      "t": 33228.96600000005,
      "d": 428.57100000000355,
      "v": 110
    },
    {
      "midi": 59,
      "hit": false,
      "t": 33228.96600000005,
      "d": 849.9991500000033,
      "v": 110
    },
    {
      "midi": 63,
      "hit": false,
      "t": 33228.96600000005,
      "d": 857.1419999999998,
      "v": 110
    },
    {
      "midi": 44,
      "hit": false,
      "t": 33228.96600000005,
      "d": 3428.5679999999484,
      "v": 127
    },
    {
      "midi": 68,
      "hit": false,
      "t": 33657.537000000055,
      "d": 207.1426500000016,
      "v": 120
    },
    {
      "midi": 59,
      "hit": false,
      "t": 34086.10800000005,
      "d": 849.9991499999742,
      "v": 110
    },
    {
      "midi": 63,
      "hit": false,
      "t": 34086.10800000005,
      "d": 857.1419999999707,
      "v": 110
    },
    {
      "midi": 68,
      "hit": false,
      "t": 34086.10800000005,
      "d": 857.1419999999707,
      "v": 110
    },
    {
      "midi": 56,
      "hit": false,
      "t": 34514.67900000004,
      "d": 849.9991499999742,
      "v": 115
    },
    {
      "midi": 59,
      "hit": false,
      "t": 34943.25000000002,
      "d": 849.9991499999887,
      "v": 110
    },
    {
      "midi": 63,
      "hit": false,
      "t": 34943.25000000002,
      "d": 857.1419999999853,
      "v": 110
    },
    {
      "midi": 66,
      "hit": false,
      "t": 34943.25000000002,
      "d": 857.1419999999853,
      "v": 110
    },
    {
      "midi": 56,
      "hit": false,
      "t": 35371.82100000001,
      "d": 849.999149999996,
      "v": 115
    },
    {
      "midi": 68,
      "hit": false,
      "t": 35800.39200000001,
      "d": 535.7137499999953,
      "v": 110
    },
    {
      "midi": 59,
      "hit": false,
      "t": 35800.39200000001,
      "d": 857.1419999999925,
      "v": 110
    },
    {
      "midi": 63,
      "hit": false,
      "t": 35800.39200000001,
      "d": 857.1419999999925,
      "v": 110
    },
    {
      "midi": 56,
      "hit": false,
      "t": 36228.963,
      "d": 428.5709999999963,
      "v": 115
    },
    {
      "midi": 66,
      "hit": false,
      "t": 36657.534,
      "d": 214.28549999999814,
      "v": 110
    },
    {
      "midi": 57,
      "hit": false,
      "t": 36657.534,
      "d": 421.42814999999973,
      "v": 100
    },
    {
      "midi": 47,
      "hit": false,
      "t": 36657.534,
      "d": 428.5709999999963,
      "v": 100
    },
    {
      "midi": 62,
      "hit": false,
      "t": 36657.534,
      "d": 849.999149999996,
      "v": 110
    },
    {
      "midi": 59,
      "hit": false,
      "t": 36657.534,
      "d": 857.1419999999925,
      "v": 110
    },
    {
      "midi": 64,
      "hit": false,
      "t": 36871.8195,
      "d": 428.5709999999963,
      "v": 120
    },
    {
      "midi": 57,
      "hit": false,
      "t": 37086.104999999996,
      "d": 421.42814999999973,
      "v": 80
    },
    {
      "midi": 47,
      "hit": false,
      "t": 37086.104999999996,
      "d": 428.5709999999963,
      "v": 85
    },
    {
      "midi": 66,
      "hit": false,
      "t": 37300.390499999994,
      "d": 214.28549999999814,
      "v": 120
    },
    {
      "midi": 57,
      "hit": false,
      "t": 37514.67599999999,
      "d": 421.42814999999973,
      "v": 100
    },
    {
      "midi": 66,
      "hit": false,
      "t": 37514.67599999999,
      "d": 428.5709999999963,
      "v": 110
    },
    {
      "midi": 47,
      "hit": false,
      "t": 37514.67599999999,
      "d": 428.5709999999963,
      "v": 100
    },
    {
      "midi": 59,
      "hit": false,
      "t": 37514.67599999999,
      "d": 849.999149999996,
      "v": 110
    },
    {
      "midi": 62,
      "hit": false,
      "t": 37514.67599999999,
      "d": 857.1419999999925,
      "v": 110
    },
    {
      "midi": 69,
      "hit": false,
      "t": 37943.24699999999,
      "d": 428.5709999999963,
      "v": 120
    },
    {
      "midi": 57,
      "hit": false,
      "t": 37943.24699999999,
      "d": 428.5709999999963,
      "v": 80
    },
    {
      "midi": 47,
      "hit": false,
      "t": 37943.24699999999,
      "d": 428.5709999999963,
      "v": 85
    },
    {
      "midi": 59,
      "hit": false,
      "t": 38371.817999999985,
      "d": 421.42814999999973,
      "v": 110
    },
    {
      "midi": 68,
      "hit": false,
      "t": 38371.817999999985,
      "d": 821.4277499999953,
      "v": 120
    },
    {
      "midi": 56,
      "hit": false,
      "t": 38371.817999999985,
      "d": 857.1419999999925,
      "v": 110
    },
    {
      "midi": 64,
      "hit": false,
      "t": 38371.817999999985,
      "d": 857.1419999999925,
      "v": 110
    },
    {
      "midi": 52,
      "hit": false,
      "t": 38371.817999999985,
      "d": 857.1419999999925,
      "v": 120
    },
    {
      "midi": 59,
      "hit": false,
      "t": 38800.38899999998,
      "d": 421.42814999999973,
      "v": 80
    },
    {
      "midi": 59,
      "hit": false,
      "t": 39228.95999999998,
      "d": 421.42814999999973,
      "v": 110
    },
    {
      "midi": 62,
      "hit": false,
      "t": 39228.95999999998,
      "d": 428.5709999999963,
      "v": 110
    },
    {
      "midi": 66,
      "hit": false,
      "t": 39228.95999999998,
      "d": 849.999149999996,
      "v": 120
    },
    {
      "midi": 64,
      "hit": false,
      "t": 39228.95999999998,
      "d": 849.999149999996,
      "v": 110
    },
    {
      "midi": 40,
      "hit": false,
      "t": 39228.95999999998,
      "d": 857.1419999999925,
      "v": 127
    },
    {
      "midi": 59,
      "hit": false,
      "t": 39657.53099999997,
      "d": 428.5709999999963,
      "v": 80
    },
    {
      "midi": 68,
      "hit": false,
      "t": 40086.10199999997,
      "d": 428.57100000000355,
      "v": 120
    },
    {
      "midi": 57,
      "hit": false,
      "t": 40086.10199999997,
      "d": 849.9991500000033,
      "v": 110
    },
    {
      "midi": 45,
      "hit": false,
      "t": 40086.10199999997,
      "d": 2999.9969999999157,
      "v": 127
    },
    {
      "midi": 61,
      "hit": false,
      "t": 40514.67299999997,
      "d": 214.28549999999814,
      "v": 120
    },
    {
      "midi": 52,
      "hit": false,
      "t": 40514.67299999997,
      "d": 1707.1411499999158,
      "v": 120
    },
    {
      "midi": 64,
      "hit": false,
      "t": 40728.95849999997,
      "d": 1064.2846499999505,
      "v": 120
    },
    {
      "midi": 57,
      "hit": false,
      "t": 40943.24399999997,
      "d": 1707.1411499999158,
      "v": 110
    },
    {
      "midi": 59,
      "hit": false,
      "t": 41157.52949999997,
      "d": 1499.9984999999142,
      "v": 110
    },
    {
      "midi": 61,
      "hit": false,
      "t": 41371.81499999995,
      "d": 1278.570149999934,
      "v": 110
    },
    {
      "midi": 68,
      "hit": false,
      "t": 41586.100499999935,
      "d": 1071.427499999947,
      "v": 110
    },
    {
      "midi": 64,
      "hit": false,
      "t": 41800.38599999992,
      "d": 1499.9984999999651,
      "v": 110
    },
    {
      "midi": 52,
      "hit": false,
      "t": 42228.956999999886,
      "d": 857.1419999999998,
      "v": 115
    },
    {
      "midi": 57,
      "hit": false,
      "t": 42657.52799999988,
      "d": 857.1419999999998,
      "v": 110
    },
    {
      "midi": 59,
      "hit": false,
      "t": 42657.52799999988,
      "d": 857.1419999999998,
      "v": 110
    },
    {
      "midi": 61,
      "hit": false,
      "t": 42657.52799999988,
      "d": 857.1419999999998,
      "v": 110
    },
    {
      "midi": 44,
      "hit": false,
      "t": 43086.098999999886,
      "d": 428.5709999999963,
      "v": 127
    },
    {
      "midi": 57,
      "hit": false,
      "t": 43514.66999999988,
      "d": 849.9991500000033,
      "v": 110
    },
    {
      "midi": 61,
      "hit": false,
      "t": 43514.66999999988,
      "d": 857.1419999999998,
      "v": 110
    },
    {
      "midi": 42,
      "hit": false,
      "t": 43514.66999999988,
      "d": 1714.2839999999924,
      "v": 127
    },
    {
      "midi": 64,
      "hit": false,
      "t": 43943.240999999885,
      "d": 421.42814999999973,
      "v": 120
    },
    {
      "midi": 64,
      "hit": false,
      "t": 44371.81199999988,
      "d": 407.14244999999937,
      "v": 120
    },
    {
      "midi": 57,
      "hit": false,
      "t": 44371.81199999988,
      "d": 849.999149999996,
      "v": 110
    },
    {
      "midi": 61,
      "hit": false,
      "t": 44371.81199999988,
      "d": 857.1419999999925,
      "v": 110
    },
    {
      "midi": 64,
      "hit": false,
      "t": 44800.38299999988,
      "d": 421.42814999999973,
      "v": 120
    },
    {
      "midi": 54,
      "hit": false,
      "t": 44800.38299999988,
      "d": 428.5709999999963,
      "v": 115
    },
    {
      "midi": 47,
      "hit": false,
      "t": 45228.953999999874,
      "d": 421.42814999999973,
      "v": 120
    },
    {
      "midi": 64,
      "hit": false,
      "t": 45228.953999999874,
      "d": 428.5709999999963,
      "v": 120
    },
    {
      "midi": 57,
      "hit": false,
      "t": 45228.953999999874,
      "d": 849.999149999996,
      "v": 110
    },
    {
      "midi": 61,
      "hit": false,
      "t": 45228.953999999874,
      "d": 857.1419999999925,
      "v": 110
    },
    {
      "midi": 66,
      "hit": false,
      "t": 45657.52499999987,
      "d": 207.1426500000016,
      "v": 120
    },
    {
      "midi": 47,
      "hit": false,
      "t": 45657.52499999987,
      "d": 849.999149999996,
      "v": 100
    },
    {
      "midi": 66,
      "hit": false,
      "t": 46086.09599999987,
      "d": 857.1419999999998,
      "v": 110
    },
    {
      "midi": 57,
      "hit": false,
      "t": 46086.09599999987,
      "d": 857.1419999999998,
      "v": 110
    },
    {
      "midi": 63,
      "hit": false,
      "t": 46086.09599999987,
      "d": 857.1419999999998,
      "v": 110
    },
    {
      "midi": 47,
      "hit": false,
      "t": 46514.66699999986,
      "d": 428.57100000000355,
      "v": 120
    },
    {
      "midi": 59,
      "hit": false,
      "t": 46943.23799999987,
      "d": 857.1419999999998,
      "v": 110
    },
    {
      "midi": 66,
      "hit": false,
      "t": 46943.23799999987,
      "d": 857.1419999999998,
      "v": 110
    },
    {
      "midi": 44,
      "hit": false,
      "t": 46943.23799999987,
      "d": 1714.284000000007,
      "v": 127
    },
    {
      "midi": 63,
      "hit": false,
      "t": 47371.80899999987,
      "d": 421.42814999999973,
      "v": 120
    },
    {
      "midi": 63,
      "hit": false,
      "t": 47800.37999999987,
      "d": 428.57100000000355,
      "v": 110
    },
    {
      "midi": 66,
      "hit": false,
      "t": 47800.37999999987,
      "d": 857.1420000000071,
      "v": 110
    },
    {
      "midi": 71,
      "hit": false,
      "t": 48228.95099999987,
      "d": 428.57100000000355,
      "v": 120
    },
    {
      "midi": 56,
      "hit": false,
      "t": 48228.95099999987,
      "d": 428.57100000000355,
      "v": 115
    },
    {
      "midi": 68,
      "hit": false,
      "t": 48657.52199999987,
      "d": 107.14274999999907,
      "v": 120
    },
    {
      "midi": 56,
      "hit": false,
      "t": 48657.52199999987,
      "d": 421.42814999999973,
      "v": 110
    },
    {
      "midi": 59,
      "hit": false,
      "t": 48657.52199999987,
      "d": 857.1419999999925,
      "v": 110
    },
    {
      "midi": 64,
      "hit": false,
      "t": 48657.52199999987,
      "d": 857.1419999999925,
      "v": 110
    },
    {
      "midi": 37,
      "hit": false,
      "t": 48657.52199999987,
      "d": 1714.2839999999997,
      "v": 127
    },
    {
      "midi": 69,
      "hit": false,
      "t": 48728.950499999875,
      "d": 785.7134999999907,
      "v": 120
    },
    {
      "midi": 56,
      "hit": false,
      "t": 49086.09299999987,
      "d": 421.42814999999973,
      "v": 75
    },
    {
      "midi": 68,
      "hit": false,
      "t": 49514.663999999866,
      "d": 399.99960000000283,
      "v": 120
    },
    {
      "midi": 56,
      "hit": false,
      "t": 49514.663999999866,
      "d": 857.1420000000071,
      "v": 110
    },
    {
      "midi": 59,
      "hit": false,
      "t": 49514.663999999866,
      "d": 857.1420000000071,
      "v": 110
    },
    {
      "midi": 64,
      "hit": false,
      "t": 49514.663999999866,
      "d": 857.1420000000071,
      "v": 110
    },
    {
      "midi": 69,
      "hit": false,
      "t": 49943.23499999987,
      "d": 428.57100000000355,
      "v": 120
    },
    {
      "midi": 49,
      "hit": false,
      "t": 49943.23499999987,
      "d": 428.57100000000355,
      "v": 120
    },
    {
      "midi": 68,
      "hit": false,
      "t": 50371.80599999987,
      "d": 442.85669999999664,
      "v": 120
    },
    {
      "midi": 57,
      "hit": false,
      "t": 50371.80599999987,
      "d": 857.1419999999925,
      "v": 110
    },
    {
      "midi": 42,
      "hit": false,
      "t": 50371.80599999987,
      "d": 1285.712999999996,
      "v": 127
    },
    {
      "midi": 61,
      "hit": false,
      "t": 50814.66269999987,
      "d": 214.28549999999814,
      "v": 120
    },
    {
      "midi": 64,
      "hit": false,
      "t": 51028.94819999987,
      "d": 749.9992500000008,
      "v": 120
    },
    {
      "midi": 57,
      "hit": false,
      "t": 51228.947999999866,
      "d": 849.9991500000033,
      "v": 110
    },
    {
      "midi": 61,
      "hit": false,
      "t": 51228.947999999866,
      "d": 857.1419999999998,
      "v": 110
    },
    {
      "midi": 54,
      "hit": false,
      "t": 51657.51899999987,
      "d": 428.5709999999963,
      "v": 105
    },
    {
      "midi": 57,
      "hit": false,
      "t": 52086.089999999866,
      "d": 421.42814999999973,
      "v": 110
    },
    {
      "midi": 47,
      "hit": false,
      "t": 52086.089999999866,
      "d": 421.42814999999973,
      "v": 120
    },
    {
      "midi": 68,
      "hit": false,
      "t": 52086.089999999866,
      "d": 428.5709999999963,
      "v": 120
    },
    {
      "midi": 64,
      "hit": false,
      "t": 52086.089999999866,
      "d": 857.1419999999925,
      "v": 110
    },
    {
      "midi": 61,
      "hit": false,
      "t": 52086.089999999866,
      "d": 857.1419999999925,
      "v": 110
    },
    {
      "midi": 57,
      "hit": false,
      "t": 52514.66099999986,
      "d": 421.42814999999973,
      "v": 90
    },
    {
      "midi": 47,
      "hit": false,
      "t": 52514.66099999986,
      "d": 421.42814999999973,
      "v": 100
    },
    {
      "midi": 66,
      "hit": false,
      "t": 52514.66099999986,
      "d": 428.5709999999963,
      "v": 120
    },
    {
      "midi": 47,
      "hit": false,
      "t": 52943.23199999986,
      "d": 421.42814999999973,
      "v": 110
    },
    {
      "midi": 64,
      "hit": false,
      "t": 52943.23199999986,
      "d": 442.85669999999664,
      "v": 120
    },
    {
      "midi": 57,
      "hit": false,
      "t": 52943.23199999986,
      "d": 857.1419999999925,
      "v": 110
    },
    {
      "midi": 66,
      "hit": false,
      "t": 52943.23199999986,
      "d": 857.1419999999925,
      "v": 127
    },
    {
      "midi": 61,
      "hit": false,
      "t": 52943.23199999986,
      "d": 857.1419999999925,
      "v": 120
    },
    {
      "midi": 47,
      "hit": false,
      "t": 53371.802999999854,
      "d": 428.5709999999963,
      "v": 100
    },
    {
      "midi": 63,
      "hit": false,
      "t": 53386.088699999855,
      "d": 214.28549999999814,
      "v": 120
    },
    {
      "midi": 59,
      "hit": false,
      "t": 53800.37399999985,
      "d": 849.9991500000106,
      "v": 110
    },
    {
      "midi": 56,
      "hit": false,
      "t": 53800.37399999985,
      "d": 857.1420000000071,
      "v": 110
    },
    {
      "midi": 64,
      "hit": false,
      "t": 53800.37399999985,
      "d": 1714.2840000000142,
      "v": 110
    },
    {
      "midi": 40,
      "hit": false,
      "t": 53800.37399999985,
      "d": 2142.8550000000105,
      "v": 127
    },
    {
      "midi": 52,
      "hit": false,
      "t": 54228.944999999854,
      "d": 849.9991500000106,
      "v": 120
    },
    {
      "midi": 56,
      "hit": false,
      "t": 54657.51599999986,
      "d": 849.9991500000106,
      "v": 85
    },
    {
      "midi": 59,
      "hit": false,
      "t": 54657.51599999986,
      "d": 857.1420000000071,
      "v": 85
    },
    {
      "midi": 52,
      "hit": false,
      "t": 55086.08699999986,
      "d": 849.9991500000033,
      "v": 115
    },
    {
      "midi": 56,
      "hit": false,
      "t": 55514.657999999865,
      "d": 849.999149999996,
      "v": 115
    },
    {
      "midi": 59,
      "hit": false,
      "t": 55514.657999999865,
      "d": 857.1419999999925,
      "v": 115
    },
    {
      "midi": 64,
      "hit": false,
      "t": 55514.657999999865,
      "d": 857.1419999999925,
      "v": 115
    },
    {
      "midi": 52,
      "hit": false,
      "t": 55943.22899999986,
      "d": 857.1419999999998,
      "v": 100
    },
    {
      "midi": 40,
      "hit": false,
      "t": 55943.22899999986,
      "d": 857.1419999999998,
      "v": 127
    },
    {
      "midi": 64,
      "hit": false,
      "t": 56371.79999999986,
      "d": 478.5709500000012,
      "v": 120
    },
    {
      "midi": 56,
      "hit": false,
      "t": 56371.79999999986,
      "d": 857.1419999999998,
      "v": 120
    },
    {
      "midi": 59,
      "hit": false,
      "t": 56371.79999999986,
      "d": 857.1419999999998,
      "v": 120
    },
    {
      "midi": 50,
      "hit": false,
      "t": 56800.37099999986,
      "d": 428.5709999999963,
      "v": 100
    },
    {
      "midi": 38,
      "hit": false,
      "t": 56800.37099999986,
      "d": 428.5709999999963,
      "v": 127
    },
    {
      "midi": 55,
      "hit": false,
      "t": 57228.94199999986,
      "d": 849.9991500000033,
      "v": 110
    },
    {
      "midi": 60,
      "hit": false,
      "t": 57228.94199999986,
      "d": 857.1419999999998,
      "v": 110
    },
    {
      "midi": 64,
      "hit": false,
      "t": 57228.94199999986,
      "d": 857.1419999999998,
      "v": 110
    },
    {
      "midi": 71,
      "hit": false,
      "t": 57228.94199999986,
      "d": 1714.284000000007,
      "v": 120
    },
    {
      "midi": 36,
      "hit": false,
      "t": 57228.94199999986,
      "d": 1714.284000000007,
      "v": 127
    },
    {
      "midi": 48,
      "hit": false,
      "t": 57657.51299999986,
      "d": 849.9991500000033,
      "v": 115
    },
    {
      "midi": 55,
      "hit": false,
      "t": 58086.08399999986,
      "d": 857.1420000000071,
      "v": 110
    },
    {
      "midi": 60,
      "hit": false,
      "t": 58086.08399999986,
      "d": 857.1420000000071,
      "v": 110
    },
    {
      "midi": 64,
      "hit": false,
      "t": 58086.08399999986,
      "d": 857.1420000000071,
      "v": 110
    },
    {
      "midi": 48,
      "hit": false,
      "t": 58514.65499999986,
      "d": 428.57100000000355,
      "v": 115
    },
    {
      "midi": 62,
      "hit": false,
      "t": 58943.225999999864,
      "d": 849.9991499999742,
      "v": 110
    },
    {
      "midi": 57,
      "hit": false,
      "t": 58943.225999999864,
      "d": 857.1419999999707,
      "v": 110
    },
    {
      "midi": 66,
      "hit": false,
      "t": 58943.225999999864,
      "d": 857.1419999999707,
      "v": 110
    },
    {
      "midi": 69,
      "hit": false,
      "t": 58943.225999999864,
      "d": 1499.9984999999651,
      "v": 120
    },
    {
      "midi": 38,
      "hit": false,
      "t": 58943.225999999864,
      "d": 1714.2839999999633,
      "v": 127
    },
    {
      "midi": 50,
      "hit": false,
      "t": 59371.79699999987,
      "d": 849.9991499999669,
      "v": 115
    },
    {
      "midi": 62,
      "hit": false,
      "t": 59800.367999999835,
      "d": 857.1419999999925,
      "v": 110
    },
    {
      "midi": 57,
      "hit": false,
      "t": 59800.367999999835,
      "d": 857.1419999999925,
      "v": 110
    },
    {
      "midi": 66,
      "hit": false,
      "t": 59800.367999999835,
      "d": 857.1419999999925,
      "v": 110
    },
    {
      "midi": 50,
      "hit": false,
      "t": 60228.93899999983,
      "d": 428.5709999999963,
      "v": 115
    },
    {
      "midi": 69,
      "hit": false,
      "t": 60657.50999999983,
      "d": 214.28549999999814,
      "v": 120
    },
    {
      "midi": 47,
      "hit": false,
      "t": 60657.50999999983,
      "d": 421.42814999999973,
      "v": 115
    },
    {
      "midi": 59,
      "hit": false,
      "t": 60657.50999999983,
      "d": 849.999149999996,
      "v": 110
    },
    {
      "midi": 62,
      "hit": false,
      "t": 60657.50999999983,
      "d": 857.1419999999925,
      "v": 110
    },
    {
      "midi": 66,
      "hit": false,
      "t": 60657.50999999983,
      "d": 857.1419999999925,
      "v": 110
    },
    {
      "midi": 67,
      "hit": false,
      "t": 60871.795499999826,
      "d": 214.28549999999814,
      "v": 120
    },
    {
      "midi": 69,
      "hit": false,
      "t": 61086.080999999824,
      "d": 199.99979999999778,
      "v": 120
    },
    {
      "midi": 47,
      "hit": false,
      "t": 61086.080999999824,
      "d": 849.999149999996,
      "v": 115
    },
    {
      "midi": 67,
      "hit": false,
      "t": 61300.36649999982,
      "d": 214.28549999999814,
      "v": 120
    },
    {
      "midi": 69,
      "hit": false,
      "t": 61514.65199999982,
      "d": 214.28549999999814,
      "v": 120
    },
    {
      "midi": 59,
      "hit": false,
      "t": 61514.65199999982,
      "d": 857.1419999999925,
      "v": 110
    },
    {
      "midi": 62,
      "hit": false,
      "t": 61514.65199999982,
      "d": 857.1419999999925,
      "v": 110
    },
    {
      "midi": 66,
      "hit": false,
      "t": 61514.65199999982,
      "d": 857.1419999999925,
      "v": 110
    },
    {
      "midi": 67,
      "hit": false,
      "t": 61728.93749999982,
      "d": 214.28549999999814,
      "v": 120
    },
    {
      "midi": 69,
      "hit": false,
      "t": 61943.222999999816,
      "d": 214.28549999999814,
      "v": 120
    },
    {
      "midi": 47,
      "hit": false,
      "t": 61943.222999999816,
      "d": 428.5709999999963,
      "v": 115
    },
    {
      "midi": 67,
      "hit": false,
      "t": 62157.508499999814,
      "d": 214.28549999999814,
      "v": 120
    },
    {
      "midi": 69,
      "hit": false,
      "t": 62371.79399999981,
      "d": 428.57100000000355,
      "v": 120
    },
    {
      "midi": 59,
      "hit": false,
      "t": 62371.79399999981,
      "d": 849.9991500000033,
      "v": 110
    },
    {
      "midi": 64,
      "hit": false,
      "t": 62371.79399999981,
      "d": 857.1419999999998,
      "v": 110
    },
    {
      "midi": 66,
      "hit": false,
      "t": 62371.79399999981,
      "d": 857.1419999999998,
      "v": 110
    },
    {
      "midi": 40,
      "hit": false,
      "t": 62371.79399999981,
      "d": 1714.283999999985,
      "v": 120
    },
    {
      "midi": 67,
      "hit": false,
      "t": 62800.364999999816,
      "d": 214.28549999999814,
      "v": 120
    },
    {
      "midi": 71,
      "hit": false,
      "t": 63014.650499999814,
      "d": 749.9992499999862,
      "v": 120
    },
    {
      "midi": 59,
      "hit": false,
      "t": 63228.93599999981,
      "d": 857.1419999999853,
      "v": 110
    },
    {
      "midi": 64,
      "hit": false,
      "t": 63228.93599999981,
      "d": 857.1419999999853,
      "v": 110
    },
    {
      "midi": 67,
      "hit": false,
      "t": 63228.93599999981,
      "d": 857.1419999999853,
      "v": 110
    },
    {
      "midi": 52,
      "hit": false,
      "t": 63657.5069999998,
      "d": 428.5709999999963,
      "v": 110
    },
    {
      "midi": 60,
      "hit": false,
      "t": 64086.0779999998,
      "d": 421.42814999999973,
      "v": 110
    },
    {
      "midi": 64,
      "hit": false,
      "t": 64086.0779999998,
      "d": 849.999149999996,
      "v": 110
    },
    {
      "midi": 67,
      "hit": false,
      "t": 64086.0779999998,
      "d": 1271.4272999999957,
      "v": 110
    },
    {
      "midi": 45,
      "hit": false,
      "t": 64086.0779999998,
      "d": 1278.5701499999923,
      "v": 127
    },
    {
      "midi": 60,
      "hit": false,
      "t": 64514.648999999794,
      "d": 849.999149999996,
      "v": 115
    },
    {
      "midi": 64,
      "hit": false,
      "t": 64943.21999999979,
      "d": 857.1419999999998,
      "v": 120
    },
    {
      "midi": 67,
      "hit": false,
      "t": 65371.79099999979,
      "d": 428.57100000000355,
      "v": 120
    },
    {
      "midi": 60,
      "hit": false,
      "t": 65371.79099999979,
      "d": 428.57100000000355,
      "v": 115
    },
    {
      "midi": 45,
      "hit": false,
      "t": 65371.79099999979,
      "d": 428.57100000000355,
      "v": 120
    },
    {
      "midi": 57,
      "hit": false,
      "t": 65800.36199999979,
      "d": 421.428150000007,
      "v": 110
    },
    {
      "midi": 66,
      "hit": false,
      "t": 65800.36199999979,
      "d": 642.856500000009,
      "v": 110
    },
    {
      "midi": 62,
      "hit": false,
      "t": 65800.36199999979,
      "d": 857.1420000000071,
      "v": 110
    },
    {
      "midi": 50,
      "hit": false,
      "t": 65800.36199999979,
      "d": 857.1420000000071,
      "v": 120
    },
    {
      "midi": 57,
      "hit": false,
      "t": 66228.9329999998,
      "d": 849.9991500000033,
      "v": 110
    },
    {
      "midi": 67,
      "hit": false,
      "t": 66657.5039999998,
      "d": 428.5710000000108,
      "v": 120
    },
    {
      "midi": 60,
      "hit": false,
      "t": 66657.5039999998,
      "d": 857.1420000000071,
      "v": 110
    },
    {
      "midi": 62,
      "hit": false,
      "t": 66657.5039999998,
      "d": 857.1420000000071,
      "v": 110
    },
    {
      "midi": 66,
      "hit": false,
      "t": 66657.5039999998,
      "d": 857.1420000000071,
      "v": 110
    },
    {
      "midi": 38,
      "hit": false,
      "t": 66657.5039999998,
      "d": 857.1420000000071,
      "v": 125
    },
    {
      "midi": 69,
      "hit": false,
      "t": 67086.07499999981,
      "d": 428.5709999999963,
      "v": 120
    },
    {
      "midi": 57,
      "hit": false,
      "t": 67086.07499999981,
      "d": 428.5709999999963,
      "v": 110
    },
    {
      "midi": 62,
      "hit": false,
      "t": 67514.6459999998,
      "d": 392.8567500000063,
      "v": 100
    },
    {
      "midi": 59,
      "hit": false,
      "t": 67514.6459999998,
      "d": 421.428150000007,
      "v": 100
    },
    {
      "midi": 55,
      "hit": false,
      "t": 67514.6459999998,
      "d": 857.1420000000071,
      "v": 80
    },
    {
      "midi": 43,
      "hit": false,
      "t": 67514.6459999998,
      "d": 1278.5701499999996,
      "v": 125
    },
    {
      "midi": 62,
      "hit": false,
      "t": 67943.21699999982,
      "d": 207.14264999999432,
      "v": 120
    },
    {
      "midi": 62,
      "hit": false,
      "t": 68157.50249999981,
      "d": 207.14264999999432,
      "v": 120
    },
    {
      "midi": 62,
      "hit": false,
      "t": 68371.78799999981,
      "d": 214.28549999999814,
      "v": 110
    },
    {
      "midi": 59,
      "hit": false,
      "t": 68586.07349999981,
      "d": 207.14264999999432,
      "v": 120
    },
    {
      "midi": 62,
      "hit": false,
      "t": 68800.35899999981,
      "d": 421.428150000007,
      "v": 120
    },
    {
      "midi": 59,
      "hit": false,
      "t": 68800.35899999981,
      "d": 428.5710000000108,
      "v": 110
    },
    {
      "midi": 43,
      "hit": false,
      "t": 68800.35899999981,
      "d": 428.5710000000108,
      "v": 115
    },
    {
      "midi": 57,
      "hit": false,
      "t": 69228.92999999982,
      "d": 421.42814999993425,
      "v": 123
    },
    {
      "midi": 40,
      "hit": false,
      "t": 69228.92999999982,
      "d": 842.8562999999122,
      "v": 120
    },
    {
      "midi": 62,
      "hit": false,
      "t": 69228.92999999982,
      "d": 849.999149999916,
      "v": 123
    },
    {
      "midi": 66,
      "hit": false,
      "t": 69228.92999999982,
      "d": 857.1419999999198,
      "v": 127
    },
    {
      "midi": 57,
      "hit": false,
      "t": 69657.50099999976,
      "d": 428.5709999999817,
      "v": 110
    },
    {
      "midi": 62,
      "hit": false,
      "t": 70086.07199999974,
      "d": 107.14274999999907,
      "v": 115
    },
    {
      "midi": 59,
      "hit": false,
      "t": 70086.07199999974,
      "d": 857.1419999999925,
      "v": 115
    },
    {
      "midi": 67,
      "hit": false,
      "t": 70086.07199999974,
      "d": 857.1419999999925,
      "v": 115
    },
    {
      "midi": 40,
      "hit": false,
      "t": 70086.07199999974,
      "d": 857.1419999999925,
      "v": 127
    },
    {
      "midi": 62,
      "hit": false,
      "t": 70514.64299999973,
      "d": 428.5709999999963,
      "v": 110
    },
    {
      "midi": 64,
      "hit": false,
      "t": 70943.21399999973,
      "d": 428.5709999999963,
      "v": 120
    },
    {
      "midi": 67,
      "hit": false,
      "t": 70943.21399999973,
      "d": 857.1419999999925,
      "v": 120
    },
    {
      "midi": 48,
      "hit": false,
      "t": 70943.21399999973,
      "d": 1278.5701499999996,
      "v": 110
    },
    {
      "midi": 36,
      "hit": false,
      "t": 70943.21399999973,
      "d": 1714.2839999999997,
      "v": 127
    },
    {
      "midi": 71,
      "hit": false,
      "t": 71371.78499999973,
      "d": 199.99980000000505,
      "v": 120
    },
    {
      "midi": 60,
      "hit": false,
      "t": 71371.78499999973,
      "d": 849.9991500000033,
      "v": 110
    },
    {
      "midi": 71,
      "hit": false,
      "t": 71586.07049999973,
      "d": 207.14264999999432,
      "v": 120
    },
    {
      "midi": 71,
      "hit": false,
      "t": 71800.35599999972,
      "d": 857.1420000000071,
      "v": 110
    },
    {
      "midi": 64,
      "hit": false,
      "t": 71800.35599999972,
      "d": 857.1420000000071,
      "v": 110
    },
    {
      "midi": 67,
      "hit": false,
      "t": 71800.35599999972,
      "d": 857.1420000000071,
      "v": 110
    },
    {
      "midi": 60,
      "hit": false,
      "t": 72228.92699999973,
      "d": 428.5709999999963,
      "v": 110
    },
    {
      "midi": 48,
      "hit": false,
      "t": 72228.92699999973,
      "d": 428.5709999999963,
      "v": 110
    },
    {
      "midi": 57,
      "hit": false,
      "t": 72657.49799999973,
      "d": 857.1419999999925,
      "v": 110
    },
    {
      "midi": 62,
      "hit": false,
      "t": 72657.49799999973,
      "d": 857.1419999999925,
      "v": 110
    },
    {
      "midi": 66,
      "hit": false,
      "t": 72657.49799999973,
      "d": 857.1419999999925,
      "v": 110
    },
    {
      "midi": 38,
      "hit": false,
      "t": 72657.49799999973,
      "d": 1278.570149999985,
      "v": 127
    },
    {
      "midi": 50,
      "hit": false,
      "t": 73086.06899999973,
      "d": 1285.7130000000034,
      "v": 120
    },
    {
      "midi": 67,
      "hit": false,
      "t": 73514.63999999972,
      "d": 107.14274999999907,
      "v": 120
    },
    {
      "midi": 66,
      "hit": false,
      "t": 73514.63999999972,
      "d": 849.9991500000033,
      "v": 110
    },
    {
      "midi": 74,
      "hit": false,
      "t": 73514.63999999972,
      "d": 857.1420000000071,
      "v": 110
    },
    {
      "midi": 69,
      "hit": false,
      "t": 73586.06849999972,
      "d": 357.14250000000175,
      "v": 120
    },
    {
      "midi": 67,
      "hit": false,
      "t": 73943.21099999972,
      "d": 428.5710000000108,
      "v": 120
    },
    {
      "midi": 38,
      "hit": false,
      "t": 73943.21099999972,
      "d": 428.5710000000108,
      "v": 120
    },
    {
      "midi": 66,
      "hit": false,
      "t": 74371.78199999973,
      "d": 849.9991500000033,
      "v": 110
    },
    {
      "midi": 62,
      "hit": false,
      "t": 74371.78199999973,
      "d": 857.1420000000071,
      "v": 120
    },
    {
      "midi": 71,
      "hit": false,
      "t": 74371.78199999973,
      "d": 857.1420000000071,
      "v": 110
    },
    {
      "midi": 74,
      "hit": false,
      "t": 74371.78199999973,
      "d": 857.1420000000071,
      "v": 110
    },
    {
      "midi": 35,
      "hit": false,
      "t": 74371.78199999973,
      "d": 1714.2839999999997,
      "v": 127
    },
    {
      "midi": 47,
      "hit": false,
      "t": 74800.35299999973,
      "d": 849.9991500000033,
      "v": 115
    },
    {
      "midi": 69,
      "hit": false,
      "t": 75228.92399999974,
      "d": 857.1419999999925,
      "v": 120
    },
    {
      "midi": 66,
      "hit": false,
      "t": 75228.92399999974,
      "d": 857.1419999999925,
      "v": 110
    },
    {
      "midi": 71,
      "hit": false,
      "t": 75228.92399999974,
      "d": 857.1419999999925,
      "v": 110
    },
    {
      "midi": 74,
      "hit": false,
      "t": 75228.92399999974,
      "d": 857.1419999999925,
      "v": 110
    },
    {
      "midi": 47,
      "hit": false,
      "t": 75657.49499999973,
      "d": 428.5709999999963,
      "v": 115
    },
    {
      "midi": 59,
      "hit": false,
      "t": 76086.06599999973,
      "d": 849.9991500000033,
      "v": 110
    },
    {
      "midi": 64,
      "hit": false,
      "t": 76086.06599999973,
      "d": 857.1420000000071,
      "v": 110
    },
    {
      "midi": 67,
      "hit": false,
      "t": 76086.06599999973,
      "d": 857.1420000000071,
      "v": 110
    },
    {
      "midi": 40,
      "hit": false,
      "t": 76086.06599999973,
      "d": 1714.2840000000142,
      "v": 127
    },
    {
      "midi": 52,
      "hit": false,
      "t": 76514.63699999973,
      "d": 849.9991500000033,
      "v": 115
    },
    {
      "midi": 64,
      "hit": false,
      "t": 76943.20799999974,
      "d": 571.4279999999999,
      "v": 127
    },
    {
      "midi": 59,
      "hit": false,
      "t": 76943.20799999974,
      "d": 857.1420000000071,
      "v": 115
    },
    {
      "midi": 66,
      "hit": false,
      "t": 77371.77899999973,
      "d": 428.5710000000108,
      "v": 125
    },
    {
      "midi": 52,
      "hit": false,
      "t": 77371.77899999973,
      "d": 428.5710000000108,
      "v": 115
    },
    {
      "midi": 67,
      "hit": false,
      "t": 77800.34999999974,
      "d": 214.28549999999814,
      "v": 110
    },
    {
      "midi": 60,
      "hit": false,
      "t": 77800.34999999974,
      "d": 857.1419999999925,
      "v": 110
    },
    {
      "midi": 64,
      "hit": false,
      "t": 77800.34999999974,
      "d": 857.1419999999925,
      "v": 110
    },
    {
      "midi": 45,
      "hit": false,
      "t": 77800.34999999974,
      "d": 1278.5701499999996,
      "v": 120
    },
    {
      "midi": 66,
      "hit": false,
      "t": 78014.63549999974,
      "d": 214.28549999999814,
      "v": 120
    },
    {
      "midi": 67,
      "hit": false,
      "t": 78228.92099999974,
      "d": 214.28549999999814,
      "v": 120
    },
    {
      "midi": 57,
      "hit": false,
      "t": 78228.92099999974,
      "d": 1285.713000000018,
      "v": 110
    },
    {
      "midi": 66,
      "hit": false,
      "t": 78443.20649999974,
      "d": 214.28549999999814,
      "v": 120
    },
    {
      "midi": 67,
      "hit": false,
      "t": 78657.49199999974,
      "d": 571.4280000000144,
      "v": 110
    },
    {
      "midi": 60,
      "hit": false,
      "t": 78657.49199999974,
      "d": 849.9991500000178,
      "v": 110
    },
    {
      "midi": 64,
      "hit": false,
      "t": 78657.49199999974,
      "d": 857.1420000000217,
      "v": 110
    },
    {
      "midi": 45,
      "hit": false,
      "t": 79086.06299999975,
      "d": 428.5710000000108,
      "v": 115
    },
    {
      "midi": 60,
      "hit": false,
      "t": 79514.63399999976,
      "d": 421.428150000007,
      "v": 110
    },
    {
      "midi": 67,
      "hit": false,
      "t": 79514.63399999976,
      "d": 428.5710000000108,
      "v": 110
    },
    {
      "midi": 43,
      "hit": false,
      "t": 79514.63399999976,
      "d": 1714.2840000000288,
      "v": 120
    },
    {
      "midi": 60,
      "hit": false,
      "t": 79943.20499999977,
      "d": 421.428150000007,
      "v": 110
    },
    {
      "midi": 64,
      "hit": false,
      "t": 79943.20499999977,
      "d": 428.5710000000108,
      "v": 120
    },
    {
      "midi": 67,
      "hit": false,
      "t": 80371.77599999978,
      "d": 428.5709999999963,
      "v": 110
    },
    {
      "midi": 60,
      "hit": false,
      "t": 80371.77599999978,
      "d": 857.1420000000071,
      "v": 110
    },
    {
      "midi": 64,
      "hit": false,
      "t": 80371.77599999978,
      "d": 857.1420000000071,
      "v": 110
    },
    {
      "midi": 69,
      "hit": false,
      "t": 80800.34699999978,
      "d": 421.428150000007,
      "v": 120
    },
    {
      "midi": 55,
      "hit": false,
      "t": 80800.34699999978,
      "d": 428.5710000000108,
      "v": 110
    },
    {
      "midi": 61,
      "hit": false,
      "t": 81228.91799999979,
      "d": 1278.5701500000723,
      "v": 110
    },
    {
      "midi": 63,
      "hit": false,
      "t": 81228.91799999979,
      "d": 1285.7130000000761,
      "v": 110
    },
    {
      "midi": 66,
      "hit": false,
      "t": 81228.91799999979,
      "d": 1707.1411500001268,
      "v": 110
    },
    {
      "midi": 47,
      "hit": false,
      "t": 81228.91799999979,
      "d": 2135.7121500001376,
      "v": 127
    },
    {
      "midi": 71,
      "hit": false,
      "t": 81228.91799999979,
      "d": 2699.9973000001482,
      "v": 120
    },
    {
      "midi": 57,
      "hit": false,
      "t": 81657.48899999978,
      "d": 2999.9970000001485,
      "v": 110
    },
    {
      "midi": 59,
      "hit": false,
      "t": 82086.05999999981,
      "d": 1707.1411500001268,
      "v": 110
    },
    {
      "midi": 61,
      "hit": false,
      "t": 82514.63099999986,
      "d": 1285.7130000000761,
      "v": 110
    },
    {
      "midi": 64,
      "hit": false,
      "t": 82514.63099999986,
      "d": 1285.7130000000761,
      "v": 110
    },
    {
      "midi": 66,
      "hit": false,
      "t": 82943.20199999992,
      "d": 857.1420000000217,
      "v": 110
    },
    {
      "midi": 47,
      "hit": false,
      "t": 83371.77299999993,
      "d": 849.9991500000033,
      "v": 120
    },
    {
      "midi": 63,
      "hit": false,
      "t": 83800.34399999994,
      "d": 849.9991499999887,
      "v": 110
    },
    {
      "midi": 59,
      "hit": false,
      "t": 83800.34399999994,
      "d": 857.1419999999925,
      "v": 110
    },
    {
      "midi": 66,
      "hit": false,
      "t": 83800.34399999994,
      "d": 857.1419999999925,
      "v": 110
    },
    {
      "midi": 68,
      "hit": false,
      "t": 84014.62949999994,
      "d": 214.28549999999814,
      "v": 120
    },
    {
      "midi": 47,
      "hit": false,
      "t": 84228.91499999994,
      "d": 421.42814999999246,
      "v": 100
    },
    {
      "midi": 69,
      "hit": false,
      "t": 84228.91499999994,
      "d": 428.5709999999963,
      "v": 120
    },
    {
      "midi": 54,
      "hit": false,
      "t": 84228.91499999994,
      "d": 428.5709999999963,
      "v": 80
    },
    {
      "midi": 71,
      "hit": false,
      "t": 84657.48599999993,
      "d": 1064.2846499999723,
      "v": 110
    },
    {
      "midi": 66,
      "hit": false,
      "t": 84657.48599999993,
      "d": 1928.5694999999396,
      "v": 110
    },
    {
      "midi": 63,
      "hit": false,
      "t": 84657.48599999993,
      "d": 2999.9969999999303,
      "v": 110
    },
    {
      "midi": 47,
      "hit": false,
      "t": 84657.48599999993,
      "d": 3428.5679999999265,
      "v": 127
    },
    {
      "midi": 54,
      "hit": false,
      "t": 85086.05699999993,
      "d": 2785.711499999932,
      "v": 110
    },
    {
      "midi": 71,
      "hit": false,
      "t": 85728.91349999991,
      "d": 2142.8549999999523,
      "v": 110
    },
    {
      "midi": 75,
      "hit": false,
      "t": 85943.19899999989,
      "d": 1928.5694999999687,
      "v": 110
    },
    {
      "midi": 78,
      "hit": false,
      "t": 86157.48449999987,
      "d": 1714.283999999985,
      "v": 110
    },
    {
      "midi": 83,
      "hit": false,
      "t": 86371.76999999987,
      "d": 1499.998499999987,
      "v": 110
    },
    {
      "midi": 59,
      "hit": false,
      "t": 87228.91199999987,
      "d": 428.5709999999963,
      "v": 120
    },
    {
      "midi": 64,
      "hit": false,
      "t": 87657.48299999986,
      "d": 428.5709999999963,
      "v": 120
    },
    {
      "midi": 66,
      "hit": false,
      "t": 88086.05399999986,
      "d": 428.5709999999963,
      "v": 110
    },
    {
      "midi": 59,
      "hit": false,
      "t": 88086.05399999986,
      "d": 849.9991499999887,
      "v": 110
    },
    {
      "midi": 56,
      "hit": false,
      "t": 88086.05399999986,
      "d": 857.1419999999925,
      "v": 110
    },
    {
      "midi": 40,
      "hit": false,
      "t": 88086.05399999986,
      "d": 3428.568000000101,
      "v": 127
    },
    {
      "midi": 68,
      "hit": false,
      "t": 88514.62499999985,
      "d": 207.14264999999432,
      "v": 120
    },
    {
      "midi": 56,
      "hit": false,
      "t": 88943.19599999985,
      "d": 849.999150000076,
      "v": 110
    },
    {
      "midi": 59,
      "hit": false,
      "t": 88943.19599999985,
      "d": 857.1420000000799,
      "v": 110
    },
    {
      "midi": 68,
      "hit": false,
      "t": 88943.19599999985,
      "d": 857.1420000000799,
      "v": 110
    },
    {
      "midi": 52,
      "hit": false,
      "t": 89371.76699999989,
      "d": 849.9991500000469,
      "v": 115
    },
    {
      "midi": 59,
      "hit": false,
      "t": 89800.33799999993,
      "d": 849.9991500000033,
      "v": 110
    },
    {
      "midi": 56,
      "hit": false,
      "t": 89800.33799999993,
      "d": 857.1420000000071,
      "v": 110
    },
    {
      "midi": 66,
      "hit": false,
      "t": 89800.33799999993,
      "d": 857.1420000000071,
      "v": 110
    },
    {
      "midi": 52,
      "hit": false,
      "t": 90228.90899999994,
      "d": 849.9991500000033,
      "v": 115
    },
    {
      "midi": 66,
      "hit": false,
      "t": 90657.47999999994,
      "d": 428.5710000000108,
      "v": 120
    },
    {
      "midi": 59,
      "hit": false,
      "t": 90657.47999999994,
      "d": 849.9991500000178,
      "v": 110
    },
    {
      "midi": 56,
      "hit": false,
      "t": 90657.47999999994,
      "d": 857.1420000000217,
      "v": 110
    },
    {
      "midi": 68,
      "hit": false,
      "t": 90657.47999999994,
      "d": 857.1420000000217,
      "v": 110
    },
    {
      "midi": 64,
      "hit": false,
      "t": 91086.05099999995,
      "d": 428.5710000000108,
      "v": 120
    },
    {
      "midi": 52,
      "hit": false,
      "t": 91086.05099999995,
      "d": 428.5710000000108,
      "v": 115
    },
    {
      "midi": 66,
      "hit": false,
      "t": 91514.62199999996,
      "d": 428.5709999999963,
      "v": 110
    },
    {
      "midi": 59,
      "hit": false,
      "t": 91514.62199999996,
      "d": 849.9991499999887,
      "v": 110
    },
    {
      "midi": 63,
      "hit": false,
      "t": 91514.62199999996,
      "d": 857.1419999999925,
      "v": 110
    },
    {
      "midi": 44,
      "hit": false,
      "t": 91514.62199999996,
      "d": 3428.568000000072,
      "v": 127
    },
    {
      "midi": 68,
      "hit": false,
      "t": 91943.19299999996,
      "d": 207.14264999999432,
      "v": 120
    },
    {
      "midi": 59,
      "hit": false,
      "t": 92371.76399999995,
      "d": 849.9991500000324,
      "v": 110
    },
    {
      "midi": 63,
      "hit": false,
      "t": 92371.76399999995,
      "d": 857.1420000000362,
      "v": 110
    },
    {
      "midi": 68,
      "hit": false,
      "t": 92371.76399999995,
      "d": 857.1420000000362,
      "v": 110
    },
    {
      "midi": 56,
      "hit": false,
      "t": 92800.33499999996,
      "d": 849.9991500000469,
      "v": 115
    },
    {
      "midi": 59,
      "hit": false,
      "t": 93228.90599999999,
      "d": 849.9991500000324,
      "v": 110
    },
    {
      "midi": 63,
      "hit": false,
      "t": 93228.90599999999,
      "d": 857.1420000000362,
      "v": 110
    },
    {
      "midi": 66,
      "hit": false,
      "t": 93228.90599999999,
      "d": 857.1420000000362,
      "v": 110
    },
    {
      "midi": 56,
      "hit": false,
      "t": 93657.47700000001,
      "d": 849.9991500000178,
      "v": 115
    },
    {
      "midi": 68,
      "hit": false,
      "t": 94086.04800000002,
      "d": 535.7137500000099,
      "v": 110
    },
    {
      "midi": 59,
      "hit": false,
      "t": 94086.04800000002,
      "d": 857.1420000000071,
      "v": 110
    },
    {
      "midi": 63,
      "hit": false,
      "t": 94086.04800000002,
      "d": 857.1420000000071,
      "v": 110
    },
    {
      "midi": 56,
      "hit": false,
      "t": 94514.61900000004,
      "d": 428.5709999999963,
      "v": 115
    },
    {
      "midi": 66,
      "hit": false,
      "t": 94943.19000000003,
      "d": 214.28549999999814,
      "v": 110
    },
    {
      "midi": 57,
      "hit": false,
      "t": 94943.19000000003,
      "d": 421.42814999999246,
      "v": 100
    },
    {
      "midi": 47,
      "hit": false,
      "t": 94943.19000000003,
      "d": 428.5709999999963,
      "v": 100
    },
    {
      "midi": 62,
      "hit": false,
      "t": 94943.19000000003,
      "d": 849.9991499999887,
      "v": 110
    },
    {
      "midi": 59,
      "hit": false,
      "t": 94943.19000000003,
      "d": 857.1419999999925,
      "v": 110
    },
    {
      "midi": 64,
      "hit": false,
      "t": 95157.47550000003,
      "d": 428.5709999999963,
      "v": 120
    },
    {
      "midi": 57,
      "hit": false,
      "t": 95371.76100000003,
      "d": 421.42814999999246,
      "v": 80
    },
    {
      "midi": 47,
      "hit": false,
      "t": 95371.76100000003,
      "d": 428.5709999999963,
      "v": 85
    },
    {
      "midi": 66,
      "hit": false,
      "t": 95586.04650000003,
      "d": 214.28549999999814,
      "v": 120
    },
    {
      "midi": 57,
      "hit": false,
      "t": 95800.33200000002,
      "d": 421.428150000007,
      "v": 100
    },
    {
      "midi": 66,
      "hit": false,
      "t": 95800.33200000002,
      "d": 428.5710000000108,
      "v": 110
    },
    {
      "midi": 47,
      "hit": false,
      "t": 95800.33200000002,
      "d": 428.5710000000108,
      "v": 100
    },
    {
      "midi": 59,
      "hit": false,
      "t": 95800.33200000002,
      "d": 849.9991500000178,
      "v": 110
    },
    {
      "midi": 62,
      "hit": false,
      "t": 95800.33200000002,
      "d": 857.1420000000217,
      "v": 110
    },
    {
      "midi": 69,
      "hit": false,
      "t": 96228.90300000003,
      "d": 428.5710000000108,
      "v": 120
    },
    {
      "midi": 57,
      "hit": false,
      "t": 96228.90300000003,
      "d": 428.5710000000108,
      "v": 80
    },
    {
      "midi": 47,
      "hit": false,
      "t": 96228.90300000003,
      "d": 428.5710000000108,
      "v": 85
    },
    {
      "midi": 59,
      "hit": false,
      "t": 96657.47400000005,
      "d": 421.428150000007,
      "v": 110
    },
    {
      "midi": 68,
      "hit": false,
      "t": 96657.47400000005,
      "d": 857.1420000000217,
      "v": 120
    },
    {
      "midi": 56,
      "hit": false,
      "t": 96657.47400000005,
      "d": 857.1420000000217,
      "v": 110
    },
    {
      "midi": 64,
      "hit": false,
      "t": 96657.47400000005,
      "d": 857.1420000000217,
      "v": 110
    },
    {
      "midi": 52,
      "hit": false,
      "t": 96657.47400000005,
      "d": 857.1420000000217,
      "v": 120
    },
    {
      "midi": 59,
      "hit": false,
      "t": 97086.04500000006,
      "d": 421.428150000007,
      "v": 80
    },
    {
      "midi": 59,
      "hit": false,
      "t": 97514.61600000007,
      "d": 421.428150000007,
      "v": 110
    },
    {
      "midi": 62,
      "hit": false,
      "t": 97514.61600000007,
      "d": 428.5710000000108,
      "v": 110
    },
    {
      "midi": 66,
      "hit": false,
      "t": 97514.61600000007,
      "d": 821.4277500000171,
      "v": 120
    },
    {
      "midi": 64,
      "hit": false,
      "t": 97514.61600000007,
      "d": 849.9991500000178,
      "v": 110
    },
    {
      "midi": 40,
      "hit": false,
      "t": 97514.61600000007,
      "d": 857.1420000000217,
      "v": 127
    },
    {
      "midi": 59,
      "hit": false,
      "t": 97943.18700000008,
      "d": 428.5710000000108,
      "v": 80
    },
    {
      "midi": 68,
      "hit": false,
      "t": 98371.75800000009,
      "d": 428.5709999999963,
      "v": 120
    },
    {
      "midi": 57,
      "hit": false,
      "t": 98371.75800000009,
      "d": 849.9991499999887,
      "v": 110
    },
    {
      "midi": 45,
      "hit": false,
      "t": 98371.75800000009,
      "d": 2564.283150000003,
      "v": 127
    },
    {
      "midi": 61,
      "hit": false,
      "t": 98800.32900000009,
      "d": 214.28549999999814,
      "v": 120
    },
    {
      "midi": 52,
      "hit": false,
      "t": 98800.32900000009,
      "d": 1707.1411499999958,
      "v": 120
    },
    {
      "midi": 64,
      "hit": false,
      "t": 99014.61450000008,
      "d": 1064.2846499999869,
      "v": 120
    },
    {
      "midi": 57,
      "hit": false,
      "t": 99228.90000000008,
      "d": 1707.1411500000104,
      "v": 110
    },
    {
      "midi": 59,
      "hit": false,
      "t": 99443.18550000008,
      "d": 1499.998500000016,
      "v": 110
    },
    {
      "midi": 61,
      "hit": false,
      "t": 99657.47100000008,
      "d": 1278.570150000014,
      "v": 110
    },
    {
      "midi": 68,
      "hit": false,
      "t": 99871.75650000008,
      "d": 1071.4275000000198,
      "v": 110
    },
    {
      "midi": 64,
      "hit": false,
      "t": 100086.04200000007,
      "d": 1499.998500000016,
      "v": 110
    },
    {
      "midi": 52,
      "hit": false,
      "t": 100514.61300000008,
      "d": 428.5710000000108,
      "v": 115
    },
    {
      "midi": 57,
      "hit": false,
      "t": 100943.1840000001,
      "d": 428.5709999999963,
      "v": 110
    },
    {
      "midi": 45,
      "hit": false,
      "t": 100943.1840000001,
      "d": 428.5709999999963,
      "v": 110
    },
    {
      "midi": 59,
      "hit": false,
      "t": 100943.1840000001,
      "d": 857.1419999999925,
      "v": 110
    },
    {
      "midi": 61,
      "hit": false,
      "t": 100943.1840000001,
      "d": 857.1419999999925,
      "v": 110
    },
    {
      "midi": 56,
      "hit": false,
      "t": 101371.75500000009,
      "d": 428.5709999999963,
      "v": 110
    },
    {
      "midi": 44,
      "hit": false,
      "t": 101371.75500000009,
      "d": 428.5709999999963,
      "v": 127
    },
    {
      "midi": 57,
      "hit": false,
      "t": 101800.32600000009,
      "d": 849.9991499999887,
      "v": 110
    },
    {
      "midi": 61,
      "hit": false,
      "t": 101800.32600000009,
      "d": 857.1419999999925,
      "v": 110
    },
    {
      "midi": 54,
      "hit": false,
      "t": 101800.32600000009,
      "d": 1278.5701499999996,
      "v": 110
    },
    {
      "midi": 42,
      "hit": false,
      "t": 101800.32600000009,
      "d": 1714.2840000000142,
      "v": 127
    },
    {
      "midi": 63,
      "hit": false,
      "t": 102228.89700000008,
      "d": 107.14274999999907,
      "v": 120
    },
    {
      "midi": 64,
      "hit": false,
      "t": 102300.32550000008,
      "d": 349.9996499999979,
      "v": 120
    },
    {
      "midi": 64,
      "hit": false,
      "t": 102657.46800000008,
      "d": 421.428150000007,
      "v": 120
    },
    {
      "midi": 57,
      "hit": false,
      "t": 102657.46800000008,
      "d": 857.1420000000217,
      "v": 110
    },
    {
      "midi": 61,
      "hit": false,
      "t": 102657.46800000008,
      "d": 857.1420000000217,
      "v": 110
    },
    {
      "midi": 64,
      "hit": false,
      "t": 103086.03900000009,
      "d": 421.428150000007,
      "v": 120
    },
    {
      "midi": 54,
      "hit": false,
      "t": 103086.03900000009,
      "d": 428.5710000000108,
      "v": 115
    },
    {
      "midi": 47,
      "hit": false,
      "t": 103514.6100000001,
      "d": 421.428150000007,
      "v": 120
    },
    {
      "midi": 64,
      "hit": false,
      "t": 103514.6100000001,
      "d": 428.5710000000108,
      "v": 110
    },
    {
      "midi": 57,
      "hit": false,
      "t": 103514.6100000001,
      "d": 849.9991500000033,
      "v": 110
    },
    {
      "midi": 61,
      "hit": false,
      "t": 103514.6100000001,
      "d": 857.1420000000071,
      "v": 110
    },
    {
      "midi": 66,
      "hit": false,
      "t": 103943.18100000011,
      "d": 214.28549999999814,
      "v": 120
    },
    {
      "midi": 47,
      "hit": false,
      "t": 103943.18100000011,
      "d": 849.9991500000033,
      "v": 100
    },
    {
      "midi": 66,
      "hit": false,
      "t": 104371.75200000011,
      "d": 857.1420000000071,
      "v": 110
    },
    {
      "midi": 57,
      "hit": false,
      "t": 104371.75200000011,
      "d": 857.1420000000071,
      "v": 110
    },
    {
      "midi": 63,
      "hit": false,
      "t": 104371.75200000011,
      "d": 857.1420000000071,
      "v": 110
    },
    {
      "midi": 47,
      "hit": false,
      "t": 104800.32300000012,
      "d": 428.5709999999963,
      "v": 120
    },
    {
      "midi": 59,
      "hit": false,
      "t": 105228.89400000012,
      "d": 421.428150000007,
      "v": 110
    },
    {
      "midi": 66,
      "hit": false,
      "t": 105228.89400000012,
      "d": 857.1420000000217,
      "v": 110
    },
    {
      "midi": 44,
      "hit": false,
      "t": 105228.89400000012,
      "d": 1714.2840000000142,
      "v": 127
    },
    {
      "midi": 63,
      "hit": false,
      "t": 105657.46500000013,
      "d": 421.428150000007,
      "v": 120
    },
    {
      "midi": 59,
      "hit": false,
      "t": 105657.46500000013,
      "d": 428.5710000000108,
      "v": 110
    },
    {
      "midi": 63,
      "hit": false,
      "t": 106086.03600000014,
      "d": 428.5709999999963,
      "v": 110
    },
    {
      "midi": 66,
      "hit": false,
      "t": 106086.03600000014,
      "d": 857.1419999999925,
      "v": 110
    },
    {
      "midi": 71,
      "hit": false,
      "t": 106514.60700000013,
      "d": 428.5709999999963,
      "v": 120
    },
    {
      "midi": 56,
      "hit": false,
      "t": 106514.60700000013,
      "d": 428.5709999999963,
      "v": 115
    },
    {
      "midi": 68,
      "hit": false,
      "t": 106943.17800000013,
      "d": 142.8570000000036,
      "v": 120
    },
    {
      "midi": 56,
      "hit": false,
      "t": 106943.17800000013,
      "d": 421.428150000007,
      "v": 110
    },
    {
      "midi": 59,
      "hit": false,
      "t": 106943.17800000013,
      "d": 857.1420000000217,
      "v": 110
    },
    {
      "midi": 64,
      "hit": false,
      "t": 106943.17800000013,
      "d": 857.1420000000217,
      "v": 110
    },
    {
      "midi": 37,
      "hit": false,
      "t": 106943.17800000013,
      "d": 1714.2840000000288,
      "v": 127
    },
    {
      "midi": 69,
      "hit": false,
      "t": 107050.32075000013,
      "d": 749.9992500000226,
      "v": 120
    },
    {
      "midi": 56,
      "hit": false,
      "t": 107371.74900000014,
      "d": 421.428150000007,
      "v": 100
    },
    {
      "midi": 68,
      "hit": false,
      "t": 107800.32000000015,
      "d": 392.8567500000063,
      "v": 120
    },
    {
      "midi": 56,
      "hit": false,
      "t": 107800.32000000015,
      "d": 421.428150000007,
      "v": 110
    },
    {
      "midi": 59,
      "hit": false,
      "t": 107800.32000000015,
      "d": 857.1420000000071,
      "v": 110
    },
    {
      "midi": 64,
      "hit": false,
      "t": 107800.32000000015,
      "d": 857.1420000000071,
      "v": 110
    },
    {
      "midi": 69,
      "hit": false,
      "t": 108228.89100000016,
      "d": 428.5709999999963,
      "v": 120
    },
    {
      "midi": 56,
      "hit": false,
      "t": 108228.89100000016,
      "d": 428.5709999999963,
      "v": 75
    },
    {
      "midi": 49,
      "hit": false,
      "t": 108228.89100000016,
      "d": 428.5709999999963,
      "v": 120
    },
    {
      "midi": 57,
      "hit": false,
      "t": 108657.46200000016,
      "d": 421.428150000007,
      "v": 110
    },
    {
      "midi": 68,
      "hit": false,
      "t": 108657.46200000016,
      "d": 428.5710000000108,
      "v": 120
    },
    {
      "midi": 42,
      "hit": false,
      "t": 108657.46200000016,
      "d": 1285.7130000000616,
      "v": 127
    },
    {
      "midi": 61,
      "hit": false,
      "t": 109086.03300000017,
      "d": 214.28549999999814,
      "v": 120
    },
    {
      "midi": 57,
      "hit": false,
      "t": 109086.03300000017,
      "d": 428.5709999999963,
      "v": 90
    },
    {
      "midi": 64,
      "hit": false,
      "t": 109300.31850000017,
      "d": 642.8565000000526,
      "v": 120
    },
    {
      "midi": 57,
      "hit": false,
      "t": 109514.60400000017,
      "d": 849.9991500000615,
      "v": 110
    },
    {
      "midi": 61,
      "hit": false,
      "t": 109514.60400000017,
      "d": 857.1420000000653,
      "v": 110
    },
    {
      "midi": 54,
      "hit": false,
      "t": 109943.17500000022,
      "d": 428.5710000000108,
      "v": 105
    },
    {
      "midi": 57,
      "hit": false,
      "t": 110371.74600000023,
      "d": 421.428150000007,
      "v": 110
    },
    {
      "midi": 47,
      "hit": false,
      "t": 110371.74600000023,
      "d": 421.428150000007,
      "v": 120
    },
    {
      "midi": 68,
      "hit": false,
      "t": 110371.74600000023,
      "d": 428.5710000000108,
      "v": 120
    },
    {
      "midi": 64,
      "hit": false,
      "t": 110371.74600000023,
      "d": 857.1420000000217,
      "v": 110
    },
    {
      "midi": 61,
      "hit": false,
      "t": 110371.74600000023,
      "d": 857.1420000000217,
      "v": 110
    },
    {
      "midi": 57,
      "hit": false,
      "t": 110800.31700000024,
      "d": 421.428150000007,
      "v": 90
    },
    {
      "midi": 47,
      "hit": false,
      "t": 110800.31700000024,
      "d": 421.428150000007,
      "v": 100
    },
    {
      "midi": 66,
      "hit": false,
      "t": 110800.31700000024,
      "d": 428.5710000000108,
      "v": 120
    },
    {
      "midi": 47,
      "hit": false,
      "t": 111228.88800000025,
      "d": 421.428150000007,
      "v": 110
    },
    {
      "midi": 64,
      "hit": false,
      "t": 111228.88800000025,
      "d": 428.5710000000108,
      "v": 120
    },
    {
      "midi": 66,
      "hit": false,
      "t": 111228.88800000025,
      "d": 849.9991500000033,
      "v": 127
    },
    {
      "midi": 57,
      "hit": false,
      "t": 111228.88800000025,
      "d": 857.1420000000071,
      "v": 110
    },
    {
      "midi": 61,
      "hit": false,
      "t": 111228.88800000025,
      "d": 857.1420000000071,
      "v": 120
    },
    {
      "midi": 63,
      "hit": false,
      "t": 111657.45900000026,
      "d": 214.28549999999814,
      "v": 120
    },
    {
      "midi": 59,
      "hit": false,
      "t": 111657.45900000026,
      "d": 428.5709999999963,
      "v": 127
    },
    {
      "midi": 71,
      "hit": false,
      "t": 111657.45900000026,
      "d": 428.5709999999963,
      "v": 127
    },
    {
      "midi": 47,
      "hit": false,
      "t": 111657.45900000026,
      "d": 428.5709999999963,
      "v": 100
    },
    {
      "midi": 40,
      "hit": false,
      "t": 112086.03000000026,
      "d": 2135.712149999992,
      "v": 120
    },
    {
      "midi": 66,
      "hit": false,
      "t": 112086.03000000026,
      "d": 3421.425149999981,
      "v": 127
    },
    {
      "midi": 78,
      "hit": false,
      "t": 112107.45855000026,
      "d": 3407.139449999988,
      "v": 125
    },
    {
      "midi": 52,
      "hit": false,
      "t": 112514.60100000026,
      "d": 2142.854999999996,
      "v": 115
    },
    {
      "midi": 59,
      "hit": false,
      "t": 112728.88650000026,
      "d": 421.42814999999246,
      "v": 95
    },
    {
      "midi": 64,
      "hit": false,
      "t": 112728.88650000026,
      "d": 642.8564999999944,
      "v": 95
    },
    {
      "midi": 68,
      "hit": false,
      "t": 112728.88650000026,
      "d": 1064.2846499999869,
      "v": 127
    },
    {
      "midi": 80,
      "hit": false,
      "t": 112736.02935000026,
      "d": 1064.2846499999869,
      "v": 123
    },
    {
      "midi": 59,
      "hit": false,
      "t": 113157.45750000025,
      "d": 207.14264999999432,
      "v": 100
    },
    {
      "midi": 56,
      "hit": false,
      "t": 113371.74300000025,
      "d": 421.42814999999246,
      "v": 100
    },
    {
      "midi": 59,
      "hit": false,
      "t": 113371.74300000025,
      "d": 428.5709999999963,
      "v": 100
    },
    {
      "midi": 64,
      "hit": false,
      "t": 113371.74300000025,
      "d": 428.5709999999963,
      "v": 100
    },
    {
      "midi": 69,
      "hit": false,
      "t": 113371.74300000025,
      "d": 2142.854999999996,
      "v": 127
    },
    {
      "midi": 81,
      "hit": false,
      "t": 113386.02870000024,
      "d": 2142.8550000000105,
      "v": 120
    },
    {
      "midi": 56,
      "hit": false,
      "t": 113800.31400000025,
      "d": 849.9991500000033,
      "v": 105
    },
    {
      "midi": 59,
      "hit": false,
      "t": 113800.31400000025,
      "d": 857.1420000000071,
      "v": 105
    },
    {
      "midi": 64,
      "hit": false,
      "t": 113800.31400000025,
      "d": 857.1420000000071,
      "v": 105
    },
    {
      "midi": 68,
      "hit": false,
      "t": 113800.31400000025,
      "d": 1714.2839999999997,
      "v": 127
    },
    {
      "midi": 80,
      "hit": false,
      "t": 113807.45685000025,
      "d": 1714.2839999999997,
      "v": 120
    },
    {
      "midi": 40,
      "hit": false,
      "t": 114228.88500000026,
      "d": 849.9991499999596,
      "v": 127
    },
    {
      "midi": 56,
      "hit": false,
      "t": 114657.45600000025,
      "d": 857.1419999999925,
      "v": 110
    },
    {
      "midi": 59,
      "hit": false,
      "t": 114657.45600000025,
      "d": 857.1419999999925,
      "v": 110
    },
    {
      "midi": 64,
      "hit": false,
      "t": 114657.45600000025,
      "d": 857.1419999999925,
      "v": 110
    },
    {
      "midi": 52,
      "hit": false,
      "t": 114657.45600000025,
      "d": 857.1419999999925,
      "v": 120
    },
    {
      "midi": 40,
      "hit": false,
      "t": 115086.02700000022,
      "d": 428.5710000000254,
      "v": 125
    },
    {
      "midi": 44,
      "hit": false,
      "t": 115514.59800000025,
      "d": 2135.712150000094,
      "v": 127
    },
    {
      "midi": 66,
      "hit": false,
      "t": 115514.59800000025,
      "d": 3421.4251500001265,
      "v": 125
    },
    {
      "midi": 78,
      "hit": false,
      "t": 115521.74085000025,
      "d": 3414.2823000001226,
      "v": 120
    },
    {
      "midi": 56,
      "hit": false,
      "t": 115943.16900000027,
      "d": 635.7136500000342,
      "v": 120
    },
    {
      "midi": 59,
      "hit": false,
      "t": 116157.45450000028,
      "d": 642.8565000000235,
      "v": 113
    },
    {
      "midi": 63,
      "hit": false,
      "t": 116157.45450000028,
      "d": 642.8565000000235,
      "v": 113
    },
    {
      "midi": 68,
      "hit": false,
      "t": 116157.45450000028,
      "d": 1064.284650000045,
      "v": 125
    },
    {
      "midi": 80,
      "hit": false,
      "t": 116164.59735000029,
      "d": 1064.284650000045,
      "v": 120
    },
    {
      "midi": 56,
      "hit": false,
      "t": 116586.02550000031,
      "d": 207.14264999999432,
      "v": 110
    },
    {
      "midi": 56,
      "hit": false,
      "t": 116800.3110000003,
      "d": 421.42815000002156,
      "v": 115
    },
    {
      "midi": 59,
      "hit": false,
      "t": 116800.3110000003,
      "d": 428.5710000000254,
      "v": 115
    },
    {
      "midi": 63,
      "hit": false,
      "t": 116800.3110000003,
      "d": 428.5710000000254,
      "v": 115
    },
    {
      "midi": 69,
      "hit": false,
      "t": 116800.3110000003,
      "d": 2142.8550000000687,
      "v": 125
    },
    {
      "midi": 81,
      "hit": false,
      "t": 116807.45385000031,
      "d": 2135.712150000065,
      "v": 120
    },
    {
      "midi": 59,
      "hit": false,
      "t": 117228.88200000033,
      "d": 849.9991500000178,
      "v": 115
    },
    {
      "midi": 56,
      "hit": false,
      "t": 117228.88200000033,
      "d": 857.1420000000217,
      "v": 115
    },
    {
      "midi": 63,
      "hit": false,
      "t": 117228.88200000033,
      "d": 857.1420000000217,
      "v": 115
    },
    {
      "midi": 68,
      "hit": false,
      "t": 117228.88200000033,
      "d": 1714.2840000000433,
      "v": 125
    },
    {
      "midi": 80,
      "hit": false,
      "t": 117236.02485000034,
      "d": 1714.2840000000433,
      "v": 120
    },
    {
      "midi": 44,
      "hit": false,
      "t": 117657.45300000034,
      "d": 1285.7130000000325,
      "v": 120
    },
    {
      "midi": 56,
      "hit": false,
      "t": 118086.02400000035,
      "d": 421.428150000007,
      "v": 115
    },
    {
      "midi": 59,
      "hit": false,
      "t": 118086.02400000035,
      "d": 849.9991500000178,
      "v": 110
    },
    {
      "midi": 63,
      "hit": false,
      "t": 118086.02400000035,
      "d": 857.1420000000217,
      "v": 110
    },
    {
      "midi": 56,
      "hit": false,
      "t": 118514.59500000036,
      "d": 428.5710000000108,
      "v": 110
    },
    {
      "midi": 57,
      "hit": false,
      "t": 118943.16600000038,
      "d": 849.9991500000033,
      "v": 110
    },
    {
      "midi": 59,
      "hit": false,
      "t": 118943.16600000038,
      "d": 1064.2846500000014,
      "v": 110
    },
    {
      "midi": 62,
      "hit": false,
      "t": 118943.16600000038,
      "d": 1278.5701499999996,
      "v": 110
    },
    {
      "midi": 66,
      "hit": false,
      "t": 118943.16600000038,
      "d": 2571.4260000000213,
      "v": 123
    },
    {
      "midi": 78,
      "hit": false,
      "t": 118950.30885000038,
      "d": 2557.1403000000137,
      "v": 120
    },
    {
      "midi": 54,
      "hit": false,
      "t": 119371.73700000039,
      "d": 1285.7129999999888,
      "v": 100
    },
    {
      "midi": 68,
      "hit": false,
      "t": 119586.02250000038,
      "d": 1064.2846499999869,
      "v": 124
    },
    {
      "midi": 80,
      "hit": false,
      "t": 119586.02250000038,
      "d": 1071.4274999999907,
      "v": 120
    },
    {
      "midi": 57,
      "hit": false,
      "t": 119800.30800000038,
      "d": 428.5709999999963,
      "v": 120
    },
    {
      "midi": 59,
      "hit": false,
      "t": 120014.59350000038,
      "d": 428.5709999999963,
      "v": 120
    },
    {
      "midi": 62,
      "hit": false,
      "t": 120228.87900000038,
      "d": 428.5709999999963,
      "v": 120
    },
    {
      "midi": 69,
      "hit": false,
      "t": 120228.87900000038,
      "d": 2142.855000000025,
      "v": 125
    },
    {
      "midi": 81,
      "hit": false,
      "t": 120236.02185000038,
      "d": 2135.712150000021,
      "v": 120
    },
    {
      "midi": 59,
      "hit": false,
      "t": 120657.45000000038,
      "d": 421.428150000007,
      "v": 100
    },
    {
      "midi": 56,
      "hit": false,
      "t": 120657.45000000038,
      "d": 857.1420000000217,
      "v": 100
    },
    {
      "midi": 64,
      "hit": false,
      "t": 120657.45000000038,
      "d": 857.1420000000217,
      "v": 100
    },
    {
      "midi": 68,
      "hit": false,
      "t": 120657.45000000038,
      "d": 1707.141150000025,
      "v": 124
    },
    {
      "midi": 52,
      "hit": false,
      "t": 120657.45000000038,
      "d": 1714.2840000000288,
      "v": 120
    },
    {
      "midi": 80,
      "hit": false,
      "t": 120664.59285000038,
      "d": 1707.141150000025,
      "v": 120
    },
    {
      "midi": 59,
      "hit": false,
      "t": 121086.02100000039,
      "d": 421.428150000007,
      "v": 100
    },
    {
      "midi": 59,
      "hit": false,
      "t": 121514.5920000004,
      "d": 428.5709999999963,
      "v": 100
    },
    {
      "midi": 78,
      "hit": false,
      "t": 121514.5920000004,
      "d": 857.1420000000071,
      "v": 120
    },
    {
      "midi": 66,
      "hit": false,
      "t": 121514.5920000004,
      "d": 857.1420000000071,
      "v": 123
    },
    {
      "midi": 56,
      "hit": false,
      "t": 121514.5920000004,
      "d": 857.1420000000071,
      "v": 100
    },
    {
      "midi": 64,
      "hit": false,
      "t": 121514.5920000004,
      "d": 857.1420000000071,
      "v": 100
    },
    {
      "midi": 40,
      "hit": false,
      "t": 121514.5920000004,
      "d": 857.1420000000071,
      "v": 120
    },
    {
      "midi": 47,
      "hit": false,
      "t": 121943.1630000004,
      "d": 428.5710000000108,
      "v": 105
    },
    {
      "midi": 59,
      "hit": false,
      "t": 121943.1630000004,
      "d": 428.5710000000108,
      "v": 100
    },
    {
      "midi": 57,
      "hit": false,
      "t": 122371.7340000004,
      "d": 849.9991500000033,
      "v": 105
    },
    {
      "midi": 76,
      "hit": false,
      "t": 122371.7340000004,
      "d": 1278.5701499999996,
      "v": 125
    },
    {
      "midi": 61,
      "hit": false,
      "t": 122371.7340000004,
      "d": 1707.1411499999958,
      "v": 105
    },
    {
      "midi": 68,
      "hit": false,
      "t": 122371.7340000004,
      "d": 1714.2839999999997,
      "v": 105
    },
    {
      "midi": 45,
      "hit": false,
      "t": 122371.7340000004,
      "d": 2571.425999999992,
      "v": 123
    },
    {
      "midi": 52,
      "hit": false,
      "t": 122800.3050000004,
      "d": 1707.1411499999958,
      "v": 115
    },
    {
      "midi": 57,
      "hit": false,
      "t": 123228.87600000041,
      "d": 1714.283999999985,
      "v": 127
    },
    {
      "midi": 71,
      "hit": false,
      "t": 123443.16150000041,
      "d": 849.9991499999887,
      "v": 100
    },
    {
      "midi": 76,
      "hit": false,
      "t": 123657.44700000041,
      "d": 421.42814999999246,
      "v": 100
    },
    {
      "midi": 59,
      "hit": false,
      "t": 123657.44700000041,
      "d": 1285.7129999999888,
      "v": 127
    },
    {
      "midi": 83,
      "hit": false,
      "t": 123871.7325000004,
      "d": 849.9991499999887,
      "v": 100
    },
    {
      "midi": 76,
      "hit": false,
      "t": 124086.0180000004,
      "d": 421.42814999999246,
      "v": 100
    },
    {
      "midi": 61,
      "hit": false,
      "t": 124086.0180000004,
      "d": 849.9991499999887,
      "v": 127
    },
    {
      "midi": 71,
      "hit": false,
      "t": 124300.3035000004,
      "d": 1071.4274999999907,
      "v": 100
    },
    {
      "midi": 76,
      "hit": false,
      "t": 124514.5890000004,
      "d": 421.42814999999246,
      "v": 100
    },
    {
      "midi": 52,
      "hit": false,
      "t": 124514.5890000004,
      "d": 428.5709999999963,
      "v": 100
    },
    {
      "midi": 83,
      "hit": false,
      "t": 124728.8745000004,
      "d": 857.1419999999925,
      "v": 100
    },
    {
      "midi": 64,
      "hit": false,
      "t": 124943.1600000004,
      "d": 428.5709999999963,
      "v": 110
    },
    {
      "midi": 76,
      "hit": false,
      "t": 124943.1600000004,
      "d": 428.5709999999963,
      "v": 100
    },
    {
      "midi": 57,
      "hit": false,
      "t": 124943.1600000004,
      "d": 428.5709999999963,
      "v": 120
    },
    {
      "midi": 45,
      "hit": false,
      "t": 124943.1600000004,
      "d": 428.5709999999963,
      "v": 127
    },
    {
      "midi": 61,
      "hit": false,
      "t": 124943.1600000004,
      "d": 857.1419999999925,
      "v": 110
    },
    {
      "midi": 56,
      "hit": false,
      "t": 125371.73100000039,
      "d": 428.5709999999963,
      "v": 120
    },
    {
      "midi": 44,
      "hit": false,
      "t": 125371.73100000039,
      "d": 428.5709999999963,
      "v": 127
    },
    {
      "midi": 54,
      "hit": false,
      "t": 125800.30200000039,
      "d": 421.428150000007,
      "v": 120
    },
    {
      "midi": 61,
      "hit": false,
      "t": 125800.30200000039,
      "d": 849.9991500000178,
      "v": 110
    },
    {
      "midi": 57,
      "hit": false,
      "t": 125800.30200000039,
      "d": 857.1420000000217,
      "v": 110
    },
    {
      "midi": 64,
      "hit": false,
      "t": 125800.30200000039,
      "d": 857.1420000000217,
      "v": 110
    },
    {
      "midi": 42,
      "hit": false,
      "t": 125800.30200000039,
      "d": 1714.2840000000433,
      "v": 127
    },
    {
      "midi": 81,
      "hit": false,
      "t": 126228.8730000004,
      "d": 421.428150000007,
      "v": 100
    },
    {
      "midi": 73,
      "hit": false,
      "t": 126228.8730000004,
      "d": 428.5710000000108,
      "v": 100
    },
    {
      "midi": 85,
      "hit": false,
      "t": 126228.8730000004,
      "d": 428.5710000000108,
      "v": 100
    },
    {
      "midi": 54,
      "hit": false,
      "t": 126228.8730000004,
      "d": 849.9991500000178,
      "v": 110
    },
    {
      "midi": 81,
      "hit": false,
      "t": 126657.44400000041,
      "d": 421.428150000007,
      "v": 105
    },
    {
      "midi": 73,
      "hit": false,
      "t": 126657.44400000041,
      "d": 428.5710000000108,
      "v": 105
    },
    {
      "midi": 85,
      "hit": false,
      "t": 126657.44400000041,
      "d": 428.5710000000108,
      "v": 105
    },
    {
      "midi": 61,
      "hit": false,
      "t": 126657.44400000041,
      "d": 428.5710000000108,
      "v": 110
    },
    {
      "midi": 57,
      "hit": false,
      "t": 126657.44400000041,
      "d": 428.5710000000108,
      "v": 110
    },
    {
      "midi": 64,
      "hit": false,
      "t": 126657.44400000041,
      "d": 428.5710000000108,
      "v": 110
    },
    {
      "midi": 81,
      "hit": false,
      "t": 127086.01500000042,
      "d": 421.428150000007,
      "v": 110
    },
    {
      "midi": 73,
      "hit": false,
      "t": 127086.01500000042,
      "d": 428.5710000000108,
      "v": 110
    },
    {
      "midi": 85,
      "hit": false,
      "t": 127086.01500000042,
      "d": 428.5710000000108,
      "v": 110
    },
    {
      "midi": 54,
      "hit": false,
      "t": 127086.01500000042,
      "d": 428.5710000000108,
      "v": 110
    },
    {
      "midi": 47,
      "hit": false,
      "t": 127514.58600000043,
      "d": 421.428150000007,
      "v": 115
    },
    {
      "midi": 81,
      "hit": false,
      "t": 127514.58600000043,
      "d": 428.5710000000108,
      "v": 110
    },
    {
      "midi": 73,
      "hit": false,
      "t": 127514.58600000043,
      "d": 428.5710000000108,
      "v": 110
    },
    {
      "midi": 85,
      "hit": false,
      "t": 127514.58600000043,
      "d": 428.5710000000108,
      "v": 110
    },
    {
      "midi": 59,
      "hit": false,
      "t": 127514.58600000043,
      "d": 849.9991500000033,
      "v": 114
    },
    {
      "midi": 63,
      "hit": false,
      "t": 127514.58600000043,
      "d": 857.1420000000071,
      "v": 113
    },
    {
      "midi": 66,
      "hit": false,
      "t": 127514.58600000043,
      "d": 857.1420000000071,
      "v": 113
    },
    {
      "midi": 83,
      "hit": false,
      "t": 127943.15700000044,
      "d": 207.14264999999432,
      "v": 110
    },
    {
      "midi": 75,
      "hit": false,
      "t": 127943.15700000044,
      "d": 214.28549999999814,
      "v": 110
    },
    {
      "midi": 87,
      "hit": false,
      "t": 127943.15700000044,
      "d": 214.28549999999814,
      "v": 110
    },
    {
      "midi": 47,
      "hit": false,
      "t": 127943.15700000044,
      "d": 849.9991500000033,
      "v": 114
    },
    {
      "midi": 83,
      "hit": false,
      "t": 128157.44250000044,
      "d": 635.7136500000051,
      "v": 110
    },
    {
      "midi": 75,
      "hit": false,
      "t": 128157.44250000044,
      "d": 642.856500000009,
      "v": 110
    },
    {
      "midi": 87,
      "hit": false,
      "t": 128157.44250000044,
      "d": 642.856500000009,
      "v": 110
    },
    {
      "midi": 59,
      "hit": false,
      "t": 128371.72800000044,
      "d": 849.9991500000178,
      "v": 113
    },
    {
      "midi": 63,
      "hit": false,
      "t": 128371.72800000044,
      "d": 857.1420000000217,
      "v": 113
    },
    {
      "midi": 66,
      "hit": false,
      "t": 128371.72800000044,
      "d": 857.1420000000217,
      "v": 113
    },
    {
      "midi": 83,
      "hit": false,
      "t": 128800.29900000045,
      "d": 421.428150000007,
      "v": 110
    },
    {
      "midi": 75,
      "hit": false,
      "t": 128800.29900000045,
      "d": 428.5710000000108,
      "v": 110
    },
    {
      "midi": 87,
      "hit": false,
      "t": 128800.29900000045,
      "d": 428.5710000000108,
      "v": 110
    },
    {
      "midi": 47,
      "hit": false,
      "t": 128800.29900000045,
      "d": 428.5710000000108,
      "v": 115
    },
    {
      "midi": 59,
      "hit": false,
      "t": 129228.87000000046,
      "d": 421.428150000007,
      "v": 112
    },
    {
      "midi": 83,
      "hit": false,
      "t": 129228.87000000046,
      "d": 642.856500000009,
      "v": 110
    },
    {
      "midi": 75,
      "hit": false,
      "t": 129228.87000000046,
      "d": 642.856500000009,
      "v": 110
    },
    {
      "midi": 87,
      "hit": false,
      "t": 129228.87000000046,
      "d": 642.856500000009,
      "v": 110
    },
    {
      "midi": 63,
      "hit": false,
      "t": 129228.87000000046,
      "d": 857.1420000000071,
      "v": 112
    },
    {
      "midi": 66,
      "hit": false,
      "t": 129228.87000000046,
      "d": 857.1420000000071,
      "v": 112
    },
    {
      "midi": 44,
      "hit": false,
      "t": 129228.87000000046,
      "d": 1714.2840000000142,
      "v": 127
    },
    {
      "midi": 59,
      "hit": false,
      "t": 129657.44100000047,
      "d": 428.5709999999963,
      "v": 110
    },
    {
      "midi": 85,
      "hit": false,
      "t": 129871.72650000047,
      "d": 642.8564999999944,
      "v": 110
    },
    {
      "midi": 76,
      "hit": false,
      "t": 129871.72650000047,
      "d": 642.8564999999944,
      "v": 110
    },
    {
      "midi": 88,
      "hit": false,
      "t": 129871.72650000047,
      "d": 642.8564999999944,
      "v": 110
    },
    {
      "midi": 59,
      "hit": false,
      "t": 130086.01200000047,
      "d": 428.5709999999963,
      "v": 112
    },
    {
      "midi": 71,
      "hit": false,
      "t": 130086.01200000047,
      "d": 857.1420000000071,
      "v": 110
    },
    {
      "midi": 63,
      "hit": false,
      "t": 130086.01200000047,
      "d": 857.1420000000071,
      "v": 112
    },
    {
      "midi": 66,
      "hit": false,
      "t": 130086.01200000047,
      "d": 857.1420000000071,
      "v": 112
    },
    {
      "midi": 56,
      "hit": false,
      "t": 130514.58300000046,
      "d": 421.428150000007,
      "v": 113
    },
    {
      "midi": 87,
      "hit": false,
      "t": 130514.58300000046,
      "d": 428.5710000000108,
      "v": 110
    },
    {
      "midi": 78,
      "hit": false,
      "t": 130514.58300000046,
      "d": 428.5710000000108,
      "v": 110
    },
    {
      "midi": 90,
      "hit": false,
      "t": 130514.58300000046,
      "d": 428.5710000000108,
      "v": 110
    },
    {
      "midi": 56,
      "hit": false,
      "t": 130943.15400000048,
      "d": 421.42814999999246,
      "v": 110
    },
    {
      "midi": 85,
      "hit": false,
      "t": 130943.15400000048,
      "d": 857.1419999999925,
      "v": 110
    },
    {
      "midi": 76,
      "hit": false,
      "t": 130943.15400000048,
      "d": 857.1419999999925,
      "v": 110
    },
    {
      "midi": 88,
      "hit": false,
      "t": 130943.15400000048,
      "d": 857.1419999999925,
      "v": 110
    },
    {
      "midi": 61,
      "hit": false,
      "t": 130943.15400000048,
      "d": 857.1419999999925,
      "v": 110
    },
    {
      "midi": 64,
      "hit": false,
      "t": 130943.15400000048,
      "d": 857.1419999999925,
      "v": 110
    },
    {
      "midi": 49,
      "hit": false,
      "t": 130943.15400000048,
      "d": 1278.570149999985,
      "v": 125
    },
    {
      "midi": 56,
      "hit": false,
      "t": 131371.72500000047,
      "d": 428.5709999999963,
      "v": 110
    },
    {
      "midi": 75,
      "hit": false,
      "t": 131800.29600000047,
      "d": 428.5709999999963,
      "v": 115
    },
    {
      "midi": 87,
      "hit": false,
      "t": 131800.29600000047,
      "d": 428.5709999999963,
      "v": 115
    },
    {
      "midi": 64,
      "hit": false,
      "t": 131800.29600000047,
      "d": 849.9991499999887,
      "v": 110
    },
    {
      "midi": 68,
      "hit": false,
      "t": 131800.29600000047,
      "d": 857.1419999999925,
      "v": 110
    },
    {
      "midi": 56,
      "hit": false,
      "t": 131800.29600000047,
      "d": 857.1419999999925,
      "v": 110
    },
    {
      "midi": 61,
      "hit": false,
      "t": 131800.29600000047,
      "d": 857.1419999999925,
      "v": 110
    },
    {
      "midi": 76,
      "hit": false,
      "t": 132228.86700000046,
      "d": 428.5709999999963,
      "v": 115
    },
    {
      "midi": 88,
      "hit": false,
      "t": 132228.86700000046,
      "d": 428.5709999999963,
      "v": 115
    },
    {
      "midi": 49,
      "hit": false,
      "t": 132228.86700000046,
      "d": 428.5709999999963,
      "v": 115
    },
    {
      "midi": 57,
      "hit": false,
      "t": 132657.43800000046,
      "d": 421.42814999999246,
      "v": 110
    },
    {
      "midi": 61,
      "hit": false,
      "t": 132657.43800000046,
      "d": 857.1419999999925,
      "v": 110
    },
    {
      "midi": 64,
      "hit": false,
      "t": 132657.43800000046,
      "d": 1285.7129999999888,
      "v": 110
    },
    {
      "midi": 73,
      "hit": false,
      "t": 132657.43800000046,
      "d": 1707.1411499999813,
      "v": 113
    },
    {
      "midi": 85,
      "hit": false,
      "t": 132657.43800000046,
      "d": 1714.283999999985,
      "v": 113
    },
    {
      "midi": 42,
      "hit": false,
      "t": 132657.43800000046,
      "d": 1714.283999999985,
      "v": 123
    },
    {
      "midi": 57,
      "hit": false,
      "t": 133086.00900000046,
      "d": 421.42814999999246,
      "v": 115
    },
    {
      "midi": 61,
      "hit": false,
      "t": 133514.58000000045,
      "d": 421.42814999999246,
      "v": 115
    },
    {
      "midi": 57,
      "hit": false,
      "t": 133514.58000000045,
      "d": 428.5709999999963,
      "v": 110
    },
    {
      "midi": 69,
      "hit": false,
      "t": 133943.15100000045,
      "d": 428.5709999999963,
      "v": 110
    },
    {
      "midi": 81,
      "hit": false,
      "t": 133943.15100000045,
      "d": 428.5709999999963,
      "v": 110
    },
    {
      "midi": 61,
      "hit": false,
      "t": 133943.15100000045,
      "d": 428.5709999999963,
      "v": 110
    },
    {
      "midi": 64,
      "hit": false,
      "t": 133943.15100000045,
      "d": 428.5709999999963,
      "v": 115
    },
    {
      "midi": 54,
      "hit": false,
      "t": 133943.15100000045,
      "d": 428.5709999999963,
      "v": 110
    },
    {
      "midi": 71,
      "hit": false,
      "t": 134157.43650000045,
      "d": 214.28549999999814,
      "v": 110
    },
    {
      "midi": 83,
      "hit": false,
      "t": 134157.43650000045,
      "d": 214.28549999999814,
      "v": 110
    },
    {
      "midi": 47,
      "hit": false,
      "t": 134371.72200000045,
      "d": 421.42814999999246,
      "v": 118
    },
    {
      "midi": 63,
      "hit": false,
      "t": 134371.72200000045,
      "d": 849.9991499999887,
      "v": 112
    },
    {
      "midi": 57,
      "hit": false,
      "t": 134371.72200000045,
      "d": 857.1419999999925,
      "v": 112
    },
    {
      "midi": 59,
      "hit": false,
      "t": 134371.72200000045,
      "d": 857.1419999999925,
      "v": 112
    },
    {
      "midi": 73,
      "hit": false,
      "t": 134371.72200000045,
      "d": 1714.2840000000142,
      "v": 110
    },
    {
      "midi": 85,
      "hit": false,
      "t": 134371.72200000045,
      "d": 1714.2840000000142,
      "v": 110
    },
    {
      "midi": 47,
      "hit": false,
      "t": 134800.29300000044,
      "d": 849.9991499999887,
      "v": 114
    },
    {
      "midi": 71,
      "hit": false,
      "t": 134800.29300000044,
      "d": 1071.4274999999907,
      "v": 110
    },
    {
      "midi": 83,
      "hit": false,
      "t": 134800.29300000044,
      "d": 1071.4274999999907,
      "v": 110
    },
    {
      "midi": 69,
      "hit": false,
      "t": 135014.57850000044,
      "d": 1071.4275000000198,
      "v": 110
    },
    {
      "midi": 81,
      "hit": false,
      "t": 135014.57850000044,
      "d": 1071.4275000000198,
      "v": 110
    },
    {
      "midi": 66,
      "hit": false,
      "t": 135228.86400000044,
      "d": 428.5709999999963,
      "v": 113
    },
    {
      "midi": 63,
      "hit": false,
      "t": 135228.86400000044,
      "d": 857.1420000000217,
      "v": 113
    },
    {
      "midi": 59,
      "hit": false,
      "t": 135228.86400000044,
      "d": 857.1420000000217,
      "v": 113
    },
    {
      "midi": 78,
      "hit": false,
      "t": 135657.43500000043,
      "d": 342.85680000000866,
      "v": 110
    },
    {
      "midi": 66,
      "hit": false,
      "t": 135657.43500000043,
      "d": 428.5710000000254,
      "v": 110
    },
    {
      "midi": 47,
      "hit": false,
      "t": 135657.43500000043,
      "d": 428.5710000000254,
      "v": 120
    },
    {
      "midi": 78,
      "hit": false,
      "t": 136014.57750000045,
      "d": 357.1425000000163,
      "v": 100
    },
    {
      "midi": 68,
      "hit": false,
      "t": 136086.00600000046,
      "d": 849.9991499999887,
      "v": 110
    },
    {
      "midi": 59,
      "hit": false,
      "t": 136086.00600000046,
      "d": 857.1419999999925,
      "v": 110
    },
    {
      "midi": 52,
      "hit": false,
      "t": 136086.00600000046,
      "d": 857.1419999999925,
      "v": 110
    },
    {
      "midi": 40,
      "hit": false,
      "t": 136086.00600000046,
      "d": 1278.570149999985,
      "v": 127
    },
    {
      "midi": 79,
      "hit": false,
      "t": 136100.29170000047,
      "d": 428.5709999999963,
      "v": 100
    },
    {
      "midi": 80,
      "hit": false,
      "t": 136193.14875000046,
      "d": 1607.141249999986,
      "v": 90
    },
    {
      "midi": 66,
      "hit": false,
      "t": 136514.57700000046,
      "d": 1071.4274999999907,
      "v": 105
    },
    {
      "midi": 78,
      "hit": false,
      "t": 136514.57700000046,
      "d": 1071.4274999999907,
      "v": 105
    },
    {
      "midi": 64,
      "hit": false,
      "t": 136728.86250000045,
      "d": 214.28549999999814,
      "v": 105
    },
    {
      "midi": 76,
      "hit": false,
      "t": 136728.86250000045,
      "d": 1064.2846499999869,
      "v": 105
    },
    {
      "midi": 68,
      "hit": false,
      "t": 136943.14800000045,
      "d": 857.1419999999925,
      "v": 110
    },
    {
      "midi": 59,
      "hit": false,
      "t": 136943.14800000045,
      "d": 857.1419999999925,
      "v": 110
    },
    {
      "midi": 64,
      "hit": false,
      "t": 136943.14800000045,
      "d": 857.1419999999925,
      "v": 110
    },
    {
      "midi": 40,
      "hit": false,
      "t": 137371.71900000045,
      "d": 428.5709999999963,
      "v": 125
    },
    {
      "midi": 76,
      "hit": false,
      "t": 137800.29000000044,
      "d": 421.42814999999246,
      "v": 110
    },
    {
      "midi": 56,
      "hit": false,
      "t": 137800.29000000044,
      "d": 849.9991499999887,
      "v": 110
    },
    {
      "midi": 59,
      "hit": false,
      "t": 137800.29000000044,
      "d": 857.1419999999925,
      "v": 110
    },
    {
      "midi": 64,
      "hit": false,
      "t": 137800.29000000044,
      "d": 857.1419999999925,
      "v": 110
    },
    {
      "midi": 38,
      "hit": false,
      "t": 137800.29000000044,
      "d": 1285.7129999999888,
      "v": 127
    },
    {
      "midi": 71,
      "hit": false,
      "t": 138014.57550000044,
      "d": 849.9991499999887,
      "v": 110
    },
    {
      "midi": 76,
      "hit": false,
      "t": 138228.86100000044,
      "d": 421.42814999999246,
      "v": 110
    },
    {
      "midi": 83,
      "hit": false,
      "t": 138443.14650000044,
      "d": 849.9991499999887,
      "v": 110
    },
    {
      "midi": 76,
      "hit": false,
      "t": 138657.43200000044,
      "d": 421.42814999999246,
      "v": 110
    },
    {
      "midi": 56,
      "hit": false,
      "t": 138657.43200000044,
      "d": 857.1419999999925,
      "v": 110
    },
    {
      "midi": 59,
      "hit": false,
      "t": 138657.43200000044,
      "d": 857.1419999999925,
      "v": 110
    },
    {
      "midi": 64,
      "hit": false,
      "t": 138657.43200000044,
      "d": 857.1419999999925,
      "v": 110
    },
    {
      "midi": 71,
      "hit": false,
      "t": 138871.71750000044,
      "d": 428.5709999999963,
      "v": 110
    },
    {
      "midi": 76,
      "hit": false,
      "t": 139086.00300000043,
      "d": 428.5709999999963,
      "v": 110
    },
    {
      "midi": 50,
      "hit": false,
      "t": 139086.00300000043,
      "d": 428.5709999999963,
      "v": 115
    },
    {
      "midi": 83,
      "hit": false,
      "t": 139300.28850000043,
      "d": 214.28549999999814,
      "v": 110
    },
    {
      "midi": 55,
      "hit": false,
      "t": 139514.57400000043,
      "d": 849.9991499999887,
      "v": 110
    },
    {
      "midi": 60,
      "hit": false,
      "t": 139514.57400000043,
      "d": 857.1419999999925,
      "v": 110
    },
    {
      "midi": 64,
      "hit": false,
      "t": 139514.57400000043,
      "d": 857.1419999999925,
      "v": 110
    },
    {
      "midi": 71,
      "hit": false,
      "t": 139514.57400000043,
      "d": 1714.2839999997523,
      "v": 120
    },
    {
      "midi": 36,
      "hit": false,
      "t": 139514.57400000043,
      "d": 1714.2839999997523,
      "v": 127
    },
    {
      "midi": 48,
      "hit": false,
      "t": 139943.14500000043,
      "d": 849.9991499998141,
      "v": 115
    },
    {
      "midi": 55,
      "hit": false,
      "t": 140371.71600000042,
      "d": 857.1419999997597,
      "v": 110
    },
    {
      "midi": 60,
      "hit": false,
      "t": 140371.71600000042,
      "d": 857.1419999997597,
      "v": 110
    },
    {
      "midi": 64,
      "hit": false,
      "t": 140371.71600000042,
      "d": 857.1419999997597,
      "v": 110
    },
    {
      "midi": 48,
      "hit": false,
      "t": 140800.28700000024,
      "d": 428.57099999993807,
      "v": 115
    },
    {
      "midi": 62,
      "hit": false,
      "t": 141228.85800000018,
      "d": 849.9991500002216,
      "v": 110
    },
    {
      "midi": 57,
      "hit": false,
      "t": 141228.85800000018,
      "d": 857.1420000002254,
      "v": 110
    },
    {
      "midi": 66,
      "hit": false,
      "t": 141228.85800000018,
      "d": 857.1420000002254,
      "v": 110
    },
    {
      "midi": 38,
      "hit": false,
      "t": 141228.85800000018,
      "d": 1278.5701500002178,
      "v": 127
    },
    {
      "midi": 69,
      "hit": false,
      "t": 141228.85800000018,
      "d": 1499.9985000002198,
      "v": 120
    },
    {
      "midi": 50,
      "hit": false,
      "t": 141657.42900000018,
      "d": 1285.7130000002217,
      "v": 115
    },
    {
      "midi": 62,
      "hit": false,
      "t": 142086.0000000004,
      "d": 857.1419999999925,
      "v": 110
    },
    {
      "midi": 57,
      "hit": false,
      "t": 142086.0000000004,
      "d": 857.1419999999925,
      "v": 110
    },
    {
      "midi": 66,
      "hit": false,
      "t": 142086.0000000004,
      "d": 857.1419999999925,
      "v": 110
    },
    {
      "midi": 38,
      "hit": false,
      "t": 142514.5710000004,
      "d": 428.5709999999963,
      "v": 115
    },
    {
      "midi": 69,
      "hit": false,
      "t": 142943.1420000004,
      "d": 214.28550000002724,
      "v": 120
    },
    {
      "midi": 59,
      "hit": false,
      "t": 142943.1420000004,
      "d": 849.9991500000178,
      "v": 110
    },
    {
      "midi": 62,
      "hit": false,
      "t": 142943.1420000004,
      "d": 857.1420000000217,
      "v": 110
    },
    {
      "midi": 66,
      "hit": false,
      "t": 142943.1420000004,
      "d": 857.1420000000217,
      "v": 110
    },
    {
      "midi": 35,
      "hit": false,
      "t": 142943.1420000004,
      "d": 1714.2840000000142,
      "v": 115
    },
    {
      "midi": 67,
      "hit": false,
      "t": 143157.42750000043,
      "d": 214.28549999999814,
      "v": 120
    },
    {
      "midi": 69,
      "hit": false,
      "t": 143371.71300000043,
      "d": 199.9997999999905,
      "v": 120
    },
    {
      "midi": 47,
      "hit": false,
      "t": 143371.71300000043,
      "d": 849.9991499999887,
      "v": 115
    },
    {
      "midi": 67,
      "hit": false,
      "t": 143585.99850000042,
      "d": 214.28549999999814,
      "v": 120
    },
    {
      "midi": 69,
      "hit": false,
      "t": 143800.28400000042,
      "d": 214.28549999999814,
      "v": 120
    },
    {
      "midi": 59,
      "hit": false,
      "t": 143800.28400000042,
      "d": 857.1419999999925,
      "v": 110
    },
    {
      "midi": 62,
      "hit": false,
      "t": 143800.28400000042,
      "d": 857.1419999999925,
      "v": 110
    },
    {
      "midi": 66,
      "hit": false,
      "t": 143800.28400000042,
      "d": 857.1419999999925,
      "v": 110
    },
    {
      "midi": 67,
      "hit": false,
      "t": 144014.56950000042,
      "d": 214.28549999999814,
      "v": 120
    },
    {
      "midi": 69,
      "hit": false,
      "t": 144228.85500000042,
      "d": 214.28549999999814,
      "v": 120
    },
    {
      "midi": 47,
      "hit": false,
      "t": 144228.85500000042,
      "d": 428.5709999999963,
      "v": 115
    },
    {
      "midi": 67,
      "hit": false,
      "t": 144443.14050000042,
      "d": 214.28549999999814,
      "v": 120
    },
    {
      "midi": 69,
      "hit": false,
      "t": 144657.4260000004,
      "d": 428.5709999999963,
      "v": 120
    },
    {
      "midi": 59,
      "hit": false,
      "t": 144657.4260000004,
      "d": 849.9991499999887,
      "v": 110
    },
    {
      "midi": 64,
      "hit": false,
      "t": 144657.4260000004,
      "d": 857.1419999999925,
      "v": 110
    },
    {
      "midi": 66,
      "hit": false,
      "t": 144657.4260000004,
      "d": 857.1419999999925,
      "v": 110
    },
    {
      "midi": 40,
      "hit": false,
      "t": 144657.4260000004,
      "d": 1714.2840000001597,
      "v": 120
    },
    {
      "midi": 67,
      "hit": false,
      "t": 145085.9970000004,
      "d": 214.28549999999814,
      "v": 120
    },
    {
      "midi": 71,
      "hit": false,
      "t": 145300.2825000004,
      "d": 749.9992500001681,
      "v": 120
    },
    {
      "midi": 59,
      "hit": false,
      "t": 145514.5680000004,
      "d": 857.1420000001672,
      "v": 110
    },
    {
      "midi": 64,
      "hit": false,
      "t": 145514.5680000004,
      "d": 857.1420000001672,
      "v": 110
    },
    {
      "midi": 67,
      "hit": false,
      "t": 145514.5680000004,
      "d": 857.1420000001672,
      "v": 110
    },
    {
      "midi": 52,
      "hit": false,
      "t": 145943.13900000058,
      "d": 428.5709999999963,
      "v": 110
    },
    {
      "midi": 60,
      "hit": false,
      "t": 146371.71000000057,
      "d": 421.42814999999246,
      "v": 110
    },
    {
      "midi": 64,
      "hit": false,
      "t": 146371.71000000057,
      "d": 849.9991499999887,
      "v": 110
    },
    {
      "midi": 67,
      "hit": false,
      "t": 146371.71000000057,
      "d": 1271.4272999999812,
      "v": 110
    },
    {
      "midi": 45,
      "hit": false,
      "t": 146371.71000000057,
      "d": 1278.570149999985,
      "v": 127
    },
    {
      "midi": 60,
      "hit": false,
      "t": 146800.28100000057,
      "d": 849.9991499999887,
      "v": 115
    },
    {
      "midi": 64,
      "hit": false,
      "t": 147228.85200000057,
      "d": 857.1419999999925,
      "v": 120
    },
    {
      "midi": 67,
      "hit": false,
      "t": 147657.42300000056,
      "d": 428.5709999999963,
      "v": 120
    },
    {
      "midi": 60,
      "hit": false,
      "t": 147657.42300000056,
      "d": 428.5709999999963,
      "v": 115
    },
    {
      "midi": 45,
      "hit": false,
      "t": 147657.42300000056,
      "d": 428.5709999999963,
      "v": 120
    },
    {
      "midi": 57,
      "hit": false,
      "t": 148085.99400000056,
      "d": 421.42814999999246,
      "v": 110
    },
    {
      "midi": 66,
      "hit": false,
      "t": 148085.99400000056,
      "d": 642.8564999999944,
      "v": 110
    },
    {
      "midi": 62,
      "hit": false,
      "t": 148085.99400000056,
      "d": 857.1419999999925,
      "v": 110
    },
    {
      "midi": 38,
      "hit": false,
      "t": 148085.99400000056,
      "d": 1714.283999999985,
      "v": 120
    },
    {
      "midi": 57,
      "hit": false,
      "t": 148514.56500000056,
      "d": 849.9991499999887,
      "v": 110
    },
    {
      "midi": 67,
      "hit": false,
      "t": 148943.13600000055,
      "d": 428.5709999999963,
      "v": 120
    },
    {
      "midi": 60,
      "hit": false,
      "t": 148943.13600000055,
      "d": 857.1419999999925,
      "v": 110
    },
    {
      "midi": 62,
      "hit": false,
      "t": 148943.13600000055,
      "d": 857.1419999999925,
      "v": 110
    },
    {
      "midi": 66,
      "hit": false,
      "t": 148943.13600000055,
      "d": 857.1419999999925,
      "v": 110
    },
    {
      "midi": 69,
      "hit": false,
      "t": 149371.70700000055,
      "d": 428.5709999999963,
      "v": 120
    },
    {
      "midi": 57,
      "hit": false,
      "t": 149371.70700000055,
      "d": 428.5709999999963,
      "v": 110
    },
    {
      "midi": 50,
      "hit": false,
      "t": 149371.70700000055,
      "d": 428.5709999999963,
      "v": 115
    },
    {
      "midi": 62,
      "hit": false,
      "t": 149800.27800000054,
      "d": 392.8567500000063,
      "v": 100
    },
    {
      "midi": 59,
      "hit": false,
      "t": 149800.27800000054,
      "d": 421.42814999999246,
      "v": 100
    },
    {
      "midi": 55,
      "hit": false,
      "t": 149800.27800000054,
      "d": 857.1419999999925,
      "v": 80
    },
    {
      "midi": 43,
      "hit": false,
      "t": 149800.27800000054,
      "d": 1278.570149999985,
      "v": 125
    },
    {
      "midi": 62,
      "hit": false,
      "t": 150228.84900000054,
      "d": 207.14264999999432,
      "v": 120
    },
    {
      "midi": 62,
      "hit": false,
      "t": 150443.13450000054,
      "d": 207.14264999999432,
      "v": 120
    },
    {
      "midi": 62,
      "hit": false,
      "t": 150657.42000000054,
      "d": 214.28549999999814,
      "v": 110
    },
    {
      "midi": 59,
      "hit": false,
      "t": 150871.70550000053,
      "d": 207.14264999999432,
      "v": 120
    },
    {
      "midi": 62,
      "hit": false,
      "t": 151085.99100000053,
      "d": 421.42814999999246,
      "v": 120
    },
    {
      "midi": 59,
      "hit": false,
      "t": 151085.99100000053,
      "d": 428.5709999999963,
      "v": 110
    },
    {
      "midi": 43,
      "hit": false,
      "t": 151085.99100000053,
      "d": 428.5709999999963,
      "v": 115
    },
    {
      "midi": 57,
      "hit": false,
      "t": 151514.56200000053,
      "d": 421.4281500002253,
      "v": 123
    },
    {
      "midi": 62,
      "hit": false,
      "t": 151514.56200000053,
      "d": 849.999150000338,
      "v": 123
    },
    {
      "midi": 66,
      "hit": false,
      "t": 151514.56200000053,
      "d": 857.1420000003418,
      "v": 127
    },
    {
      "midi": 40,
      "hit": false,
      "t": 151514.56200000053,
      "d": 1278.5701500003343,
      "v": 120
    },
    {
      "midi": 57,
      "hit": false,
      "t": 151943.13300000076,
      "d": 428.5710000001127,
      "v": 110
    },
    {
      "midi": 62,
      "hit": false,
      "t": 152371.70400000087,
      "d": 107.14274999999907,
      "v": 115
    },
    {
      "midi": 59,
      "hit": false,
      "t": 152371.70400000087,
      "d": 857.1419999999925,
      "v": 115
    },
    {
      "midi": 67,
      "hit": false,
      "t": 152371.70400000087,
      "d": 857.1419999999925,
      "v": 115
    },
    {
      "midi": 52,
      "hit": false,
      "t": 152371.70400000087,
      "d": 857.1419999999925,
      "v": 115
    },
    {
      "midi": 62,
      "hit": false,
      "t": 152800.27500000087,
      "d": 428.5709999999963,
      "v": 110
    },
    {
      "midi": 40,
      "hit": false,
      "t": 152800.27500000087,
      "d": 428.5709999999963,
      "v": 120
    },
    {
      "midi": 36,
      "hit": false,
      "t": 153228.84600000086,
      "d": 421.42814999999246,
      "v": 127
    },
    {
      "midi": 64,
      "hit": false,
      "t": 153228.84600000086,
      "d": 428.5709999999963,
      "v": 120
    },
    {
      "midi": 67,
      "hit": false,
      "t": 153228.84600000086,
      "d": 857.1419999999925,
      "v": 120
    },
    {
      "midi": 71,
      "hit": false,
      "t": 153657.41700000086,
      "d": 199.9997999999905,
      "v": 120
    },
    {
      "midi": 60,
      "hit": false,
      "t": 153657.41700000086,
      "d": 849.9991499999014,
      "v": 110
    },
    {
      "midi": 36,
      "hit": false,
      "t": 153657.41700000086,
      "d": 1285.712999999727,
      "v": 115
    },
    {
      "midi": 71,
      "hit": false,
      "t": 153871.70250000086,
      "d": 207.14264999999432,
      "v": 120
    },
    {
      "midi": 71,
      "hit": false,
      "t": 154085.98800000086,
      "d": 857.1419999997306,
      "v": 110
    },
    {
      "midi": 64,
      "hit": false,
      "t": 154085.98800000086,
      "d": 857.1419999997306,
      "v": 110
    },
    {
      "midi": 67,
      "hit": false,
      "t": 154085.98800000086,
      "d": 857.1419999997306,
      "v": 110
    },
    {
      "midi": 60,
      "hit": false,
      "t": 154514.55900000077,
      "d": 428.57099999982165,
      "v": 110
    },
    {
      "midi": 48,
      "hit": false,
      "t": 154514.55900000077,
      "d": 428.57099999982165,
      "v": 110
    },
    {
      "midi": 38,
      "hit": false,
      "t": 154943.1300000006,
      "d": 421.42814999990514,
      "v": 127
    },
    {
      "midi": 57,
      "hit": false,
      "t": 154943.1300000006,
      "d": 857.1419999999052,
      "v": 110
    },
    {
      "midi": 62,
      "hit": false,
      "t": 154943.1300000006,
      "d": 857.1419999999052,
      "v": 110
    },
    {
      "midi": 66,
      "hit": false,
      "t": 154943.1300000006,
      "d": 857.1419999999052,
      "v": 110
    },
    {
      "midi": 38,
      "hit": false,
      "t": 155371.7010000005,
      "d": 849.9991499999887,
      "v": 120
    },
    {
      "midi": 67,
      "hit": false,
      "t": 155800.2720000005,
      "d": 107.14274999999907,
      "v": 120
    },
    {
      "midi": 66,
      "hit": false,
      "t": 155800.2720000005,
      "d": 849.9991499999887,
      "v": 110
    },
    {
      "midi": 74,
      "hit": false,
      "t": 155800.2720000005,
      "d": 857.1419999999925,
      "v": 110
    },
    {
      "midi": 69,
      "hit": false,
      "t": 155871.7005000005,
      "d": 357.1424999999872,
      "v": 120
    },
    {
      "midi": 67,
      "hit": false,
      "t": 156228.8430000005,
      "d": 428.5709999999963,
      "v": 120
    },
    {
      "midi": 38,
      "hit": false,
      "t": 156228.8430000005,
      "d": 428.5709999999963,
      "v": 120
    },
    {
      "midi": 66,
      "hit": false,
      "t": 156657.41400000048,
      "d": 849.9991499999887,
      "v": 110
    },
    {
      "midi": 62,
      "hit": false,
      "t": 156657.41400000048,
      "d": 857.1419999999925,
      "v": 120
    },
    {
      "midi": 71,
      "hit": false,
      "t": 156657.41400000048,
      "d": 857.1419999999925,
      "v": 110
    },
    {
      "midi": 74,
      "hit": false,
      "t": 156657.41400000048,
      "d": 857.1419999999925,
      "v": 110
    },
    {
      "midi": 35,
      "hit": false,
      "t": 156657.41400000048,
      "d": 1714.283999999985,
      "v": 127
    },
    {
      "midi": 47,
      "hit": false,
      "t": 157085.98500000048,
      "d": 849.9991499999887,
      "v": 115
    },
    {
      "midi": 69,
      "hit": false,
      "t": 157514.55600000048,
      "d": 857.1419999999925,
      "v": 120
    },
    {
      "midi": 66,
      "hit": false,
      "t": 157514.55600000048,
      "d": 857.1419999999925,
      "v": 110
    },
    {
      "midi": 71,
      "hit": false,
      "t": 157514.55600000048,
      "d": 857.1419999999925,
      "v": 110
    },
    {
      "midi": 74,
      "hit": false,
      "t": 157514.55600000048,
      "d": 857.1419999999925,
      "v": 110
    },
    {
      "midi": 47,
      "hit": false,
      "t": 157943.12700000047,
      "d": 428.5709999999963,
      "v": 115
    },
    {
      "midi": 59,
      "hit": false,
      "t": 158371.69800000047,
      "d": 849.9991499997268,
      "v": 110
    },
    {
      "midi": 64,
      "hit": false,
      "t": 158371.69800000047,
      "d": 857.1419999997306,
      "v": 110
    },
    {
      "midi": 67,
      "hit": false,
      "t": 158371.69800000047,
      "d": 857.1419999997306,
      "v": 110
    },
    {
      "midi": 40,
      "hit": false,
      "t": 158371.69800000047,
      "d": 1714.2839999996359,
      "v": 127
    },
    {
      "midi": 52,
      "hit": false,
      "t": 158800.26900000038,
      "d": 849.9991499997268,
      "v": 115
    },
    {
      "midi": 64,
      "hit": false,
      "t": 159228.8400000002,
      "d": 571.427999999898,
      "v": 127
    },
    {
      "midi": 59,
      "hit": false,
      "t": 159228.8400000002,
      "d": 857.1419999999052,
      "v": 115
    },
    {
      "midi": 66,
      "hit": false,
      "t": 159657.4110000001,
      "d": 428.5709999999963,
      "v": 125
    },
    {
      "midi": 52,
      "hit": false,
      "t": 159657.4110000001,
      "d": 428.5709999999963,
      "v": 115
    },
    {
      "midi": 67,
      "hit": false,
      "t": 160085.9820000001,
      "d": 214.28549999999814,
      "v": 110
    },
    {
      "midi": 60,
      "hit": false,
      "t": 160085.9820000001,
      "d": 857.1419999999925,
      "v": 110
    },
    {
      "midi": 64,
      "hit": false,
      "t": 160085.9820000001,
      "d": 857.1419999999925,
      "v": 110
    },
    {
      "midi": 45,
      "hit": false,
      "t": 160085.9820000001,
      "d": 1278.570149999985,
      "v": 120
    },
    {
      "midi": 66,
      "hit": false,
      "t": 160300.2675000001,
      "d": 214.28549999999814,
      "v": 120
    },
    {
      "midi": 67,
      "hit": false,
      "t": 160514.5530000001,
      "d": 214.28549999999814,
      "v": 120
    },
    {
      "midi": 57,
      "hit": false,
      "t": 160514.5530000001,
      "d": 1285.7129999999888,
      "v": 110
    },
    {
      "midi": 66,
      "hit": false,
      "t": 160728.8385000001,
      "d": 214.28549999999814,
      "v": 120
    },
    {
      "midi": 67,
      "hit": false,
      "t": 160943.1240000001,
      "d": 571.4279999999853,
      "v": 110
    },
    {
      "midi": 60,
      "hit": false,
      "t": 160943.1240000001,
      "d": 849.9991499999887,
      "v": 110
    },
    {
      "midi": 64,
      "hit": false,
      "t": 160943.1240000001,
      "d": 857.1419999999925,
      "v": 110
    },
    {
      "midi": 45,
      "hit": false,
      "t": 161371.6950000001,
      "d": 428.5709999999963,
      "v": 115
    },
    {
      "midi": 60,
      "hit": false,
      "t": 161800.2660000001,
      "d": 421.42814999999246,
      "v": 110
    },
    {
      "midi": 67,
      "hit": false,
      "t": 161800.2660000001,
      "d": 428.5709999999963,
      "v": 110
    },
    {
      "midi": 43,
      "hit": false,
      "t": 161800.2660000001,
      "d": 1714.283999999985,
      "v": 120
    },
    {
      "midi": 60,
      "hit": false,
      "t": 162228.8370000001,
      "d": 421.42814999999246,
      "v": 110
    },
    {
      "midi": 64,
      "hit": false,
      "t": 162228.8370000001,
      "d": 428.5709999999963,
      "v": 120
    },
    {
      "midi": 67,
      "hit": false,
      "t": 162657.40800000008,
      "d": 428.5709999999963,
      "v": 110
    },
    {
      "midi": 60,
      "hit": false,
      "t": 162657.40800000008,
      "d": 857.1419999999925,
      "v": 110
    },
    {
      "midi": 64,
      "hit": false,
      "t": 162657.40800000008,
      "d": 857.1419999999925,
      "v": 110
    },
    {
      "midi": 69,
      "hit": false,
      "t": 163085.97900000008,
      "d": 421.42814999999246,
      "v": 120
    },
    {
      "midi": 55,
      "hit": false,
      "t": 163085.97900000008,
      "d": 428.5709999999963,
      "v": 110
    },
    {
      "midi": 61,
      "hit": false,
      "t": 163514.55000000008,
      "d": 1278.5701499998104,
      "v": 110
    },
    {
      "midi": 63,
      "hit": false,
      "t": 163514.55000000008,
      "d": 1285.7129999998142,
      "v": 110
    },
    {
      "midi": 66,
      "hit": false,
      "t": 163514.55000000008,
      "d": 1707.1411499996902,
      "v": 110
    },
    {
      "midi": 47,
      "hit": false,
      "t": 163514.55000000008,
      "d": 2135.7121499996865,
      "v": 127
    },
    {
      "midi": 71,
      "hit": false,
      "t": 163514.55000000008,
      "d": 2699.997299999697,
      "v": 120
    },
    {
      "midi": 57,
      "hit": false,
      "t": 163943.12100000007,
      "d": 2999.996999999683,
      "v": 110
    },
    {
      "midi": 59,
      "hit": false,
      "t": 164371.692,
      "d": 1707.1411499997484,
      "v": 110
    },
    {
      "midi": 61,
      "hit": false,
      "t": 164800.2629999999,
      "d": 1285.7129999998724,
      "v": 110
    },
    {
      "midi": 64,
      "hit": false,
      "t": 164800.2629999999,
      "d": 1285.7129999998724,
      "v": 110
    },
    {
      "midi": 66,
      "hit": false,
      "t": 165228.83399999977,
      "d": 857.1419999999925,
      "v": 110
    },
    {
      "midi": 47,
      "hit": false,
      "t": 165657.40499999977,
      "d": 849.9991499999887,
      "v": 120
    },
    {
      "midi": 63,
      "hit": false,
      "t": 166085.97599999976,
      "d": 849.9991499999887,
      "v": 110
    },
    {
      "midi": 59,
      "hit": false,
      "t": 166085.97599999976,
      "d": 857.1419999999925,
      "v": 110
    },
    {
      "midi": 66,
      "hit": false,
      "t": 166085.97599999976,
      "d": 857.1419999999925,
      "v": 110
    },
    {
      "midi": 68,
      "hit": false,
      "t": 166300.26149999976,
      "d": 214.28549999999814,
      "v": 120
    },
    {
      "midi": 47,
      "hit": false,
      "t": 166514.54699999976,
      "d": 421.42814999999246,
      "v": 100
    },
    {
      "midi": 69,
      "hit": false,
      "t": 166514.54699999976,
      "d": 428.5709999999963,
      "v": 120
    },
    {
      "midi": 54,
      "hit": false,
      "t": 166514.54699999976,
      "d": 428.5709999999963,
      "v": 80
    },
    {
      "midi": 71,
      "hit": false,
      "t": 166943.11799999975,
      "d": 1064.284650000045,
      "v": 110
    },
    {
      "midi": 66,
      "hit": false,
      "t": 166943.11799999975,
      "d": 1928.5695000000997,
      "v": 110
    },
    {
      "midi": 63,
      "hit": false,
      "t": 166943.11799999975,
      "d": 3094.704250000097,
      "v": 110
    },
    {
      "midi": 47,
      "hit": false,
      "t": 166943.11799999975,
      "d": 3549.249250000081,
      "v": 127
    },
    {
      "midi": 54,
      "hit": false,
      "t": 167371.68899999975,
      "d": 2893.4057500000927,
      "v": 110
    },
    {
      "midi": 71,
      "hit": false,
      "t": 168014.5454999998,
      "d": 2250.54925000004,
      "v": 110
    },
    {
      "midi": 75,
      "hit": false,
      "t": 168228.83099999983,
      "d": 2036.2637500000128,
      "v": 110
    },
    {
      "midi": 78,
      "hit": false,
      "t": 168443.11649999986,
      "d": 1821.9782499999856,
      "v": 110
    },
    {
      "midi": 83,
      "hit": false,
      "t": 168657.40199999986,
      "d": 1607.6927499999874,
      "v": 110
    },
    {
      "midi": 59,
      "hit": false,
      "t": 169583.27724999984,
      "d": 454.5450000000128,
      "v": 120
    },
    {
      "midi": 64,
      "hit": false,
      "t": 170037.82224999985,
      "d": 475.97354999999516,
      "v": 120
    },
    {
      "midi": 59,
      "hit": false,
      "t": 170492.36724999984,
      "d": 849.9991500000178,
      "v": 110
    },
    {
      "midi": 56,
      "hit": false,
      "t": 170492.36724999984,
      "d": 857.1420000000217,
      "v": 110
    },
    {
      "midi": 40,
      "hit": false,
      "t": 170492.36724999984,
      "d": 3428.5679999997665,
      "v": 127
    },
    {
      "midi": 66,
      "hit": false,
      "t": 170513.79579999985,
      "d": 407.1424500000139,
      "v": 120
    },
    {
      "midi": 68,
      "hit": false,
      "t": 170920.93824999986,
      "d": 207.14264999999432,
      "v": 120
    },
    {
      "midi": 56,
      "hit": false,
      "t": 171349.50924999986,
      "d": 849.9991499997559,
      "v": 110
    },
    {
      "midi": 59,
      "hit": false,
      "t": 171349.50924999986,
      "d": 857.1419999997597,
      "v": 110
    },
    {
      "midi": 68,
      "hit": false,
      "t": 171349.50924999986,
      "d": 857.1419999997597,
      "v": 110
    },
    {
      "midi": 52,
      "hit": false,
      "t": 171778.08024999974,
      "d": 849.9991499998723,
      "v": 115
    },
    {
      "midi": 59,
      "hit": false,
      "t": 172206.65124999962,
      "d": 849.9991499999887,
      "v": 110
    },
    {
      "midi": 56,
      "hit": false,
      "t": 172206.65124999962,
      "d": 857.1419999999925,
      "v": 110
    },
    {
      "midi": 66,
      "hit": false,
      "t": 172206.65124999962,
      "d": 857.1419999999925,
      "v": 110
    },
    {
      "midi": 52,
      "hit": false,
      "t": 172635.2222499996,
      "d": 849.9991499999887,
      "v": 115
    },
    {
      "midi": 66,
      "hit": false,
      "t": 173063.7932499996,
      "d": 428.5709999999963,
      "v": 120
    },
    {
      "midi": 59,
      "hit": false,
      "t": 173063.7932499996,
      "d": 849.9991499999887,
      "v": 110
    },
    {
      "midi": 56,
      "hit": false,
      "t": 173063.7932499996,
      "d": 857.1419999999925,
      "v": 110
    },
    {
      "midi": 68,
      "hit": false,
      "t": 173063.7932499996,
      "d": 857.1419999999925,
      "v": 110
    },
    {
      "midi": 64,
      "hit": false,
      "t": 173492.3642499996,
      "d": 428.5709999999963,
      "v": 120
    },
    {
      "midi": 52,
      "hit": false,
      "t": 173492.3642499996,
      "d": 428.5709999999963,
      "v": 115
    },
    {
      "midi": 66,
      "hit": false,
      "t": 173920.9352499996,
      "d": 428.5709999999963,
      "v": 110
    },
    {
      "midi": 59,
      "hit": false,
      "t": 173920.9352499996,
      "d": 849.9991499999887,
      "v": 110
    },
    {
      "midi": 63,
      "hit": false,
      "t": 173920.9352499996,
      "d": 857.1419999999925,
      "v": 110
    },
    {
      "midi": 44,
      "hit": false,
      "t": 173920.9352499996,
      "d": 3428.567999999679,
      "v": 127
    },
    {
      "midi": 68,
      "hit": false,
      "t": 174349.5062499996,
      "d": 207.14264999999432,
      "v": 120
    },
    {
      "midi": 59,
      "hit": false,
      "t": 174778.0772499996,
      "d": 849.9991499998141,
      "v": 110
    },
    {
      "midi": 63,
      "hit": false,
      "t": 174778.0772499996,
      "d": 857.1419999998179,
      "v": 110
    },
    {
      "midi": 68,
      "hit": false,
      "t": 174778.0772499996,
      "d": 857.1419999998179,
      "v": 110
    },
    {
      "midi": 56,
      "hit": false,
      "t": 175206.64824999953,
      "d": 849.9991499997559,
      "v": 115
    },
    {
      "midi": 59,
      "hit": false,
      "t": 175635.2192499994,
      "d": 849.9991499998723,
      "v": 110
    },
    {
      "midi": 63,
      "hit": false,
      "t": 175635.2192499994,
      "d": 857.1419999998761,
      "v": 110
    },
    {
      "midi": 66,
      "hit": false,
      "t": 175635.2192499994,
      "d": 857.1419999998761,
      "v": 110
    },
    {
      "midi": 56,
      "hit": false,
      "t": 176063.7902499993,
      "d": 849.9991499999887,
      "v": 115
    },
    {
      "midi": 68,
      "hit": false,
      "t": 176492.3612499993,
      "d": 535.7137499999953,
      "v": 110
    },
    {
      "midi": 59,
      "hit": false,
      "t": 176492.3612499993,
      "d": 857.1419999999925,
      "v": 110
    },
    {
      "midi": 63,
      "hit": false,
      "t": 176492.3612499993,
      "d": 857.1419999999925,
      "v": 110
    },
    {
      "midi": 56,
      "hit": false,
      "t": 176920.93224999928,
      "d": 428.5709999999963,
      "v": 115
    },
    {
      "midi": 66,
      "hit": false,
      "t": 177349.50324999928,
      "d": 214.28549999999814,
      "v": 110
    },
    {
      "midi": 57,
      "hit": false,
      "t": 177349.50324999928,
      "d": 421.42814999999246,
      "v": 100
    },
    {
      "midi": 47,
      "hit": false,
      "t": 177349.50324999928,
      "d": 428.5709999999963,
      "v": 100
    },
    {
      "midi": 62,
      "hit": false,
      "t": 177349.50324999928,
      "d": 849.9991499999887,
      "v": 110
    },
    {
      "midi": 59,
      "hit": false,
      "t": 177349.50324999928,
      "d": 857.1419999999925,
      "v": 110
    },
    {
      "midi": 64,
      "hit": false,
      "t": 177563.78874999928,
      "d": 428.5709999999963,
      "v": 120
    },
    {
      "midi": 57,
      "hit": false,
      "t": 177778.07424999928,
      "d": 421.42814999999246,
      "v": 80
    },
    {
      "midi": 47,
      "hit": false,
      "t": 177778.07424999928,
      "d": 428.5709999999963,
      "v": 85
    },
    {
      "midi": 66,
      "hit": false,
      "t": 177992.35974999928,
      "d": 214.28549999999814,
      "v": 120
    },
    {
      "midi": 57,
      "hit": false,
      "t": 178206.64524999927,
      "d": 421.42814999999246,
      "v": 100
    },
    {
      "midi": 66,
      "hit": false,
      "t": 178206.64524999927,
      "d": 428.5709999999963,
      "v": 110
    },
    {
      "midi": 47,
      "hit": false,
      "t": 178206.64524999927,
      "d": 428.5709999999963,
      "v": 100
    },
    {
      "midi": 59,
      "hit": false,
      "t": 178206.64524999927,
      "d": 849.9991499999887,
      "v": 110
    },
    {
      "midi": 62,
      "hit": false,
      "t": 178206.64524999927,
      "d": 857.1419999999925,
      "v": 110
    },
    {
      "midi": 69,
      "hit": false,
      "t": 178635.21624999927,
      "d": 428.5709999999963,
      "v": 120
    },
    {
      "midi": 57,
      "hit": false,
      "t": 178635.21624999927,
      "d": 428.5709999999963,
      "v": 80
    },
    {
      "midi": 47,
      "hit": false,
      "t": 178635.21624999927,
      "d": 428.5709999999963,
      "v": 85
    },
    {
      "midi": 59,
      "hit": false,
      "t": 179063.78724999927,
      "d": 421.42814999999246,
      "v": 110
    },
    {
      "midi": 68,
      "hit": false,
      "t": 179063.78724999927,
      "d": 857.1419999999925,
      "v": 120
    },
    {
      "midi": 56,
      "hit": false,
      "t": 179063.78724999927,
      "d": 857.1419999999925,
      "v": 110
    },
    {
      "midi": 64,
      "hit": false,
      "t": 179063.78724999927,
      "d": 857.1419999999925,
      "v": 110
    },
    {
      "midi": 52,
      "hit": false,
      "t": 179063.78724999927,
      "d": 857.1419999999925,
      "v": 120
    },
    {
      "midi": 59,
      "hit": false,
      "t": 179492.35824999926,
      "d": 421.42814999999246,
      "v": 80
    },
    {
      "midi": 59,
      "hit": false,
      "t": 179920.92924999926,
      "d": 421.42814999999246,
      "v": 110
    },
    {
      "midi": 62,
      "hit": false,
      "t": 179920.92924999926,
      "d": 428.5709999999963,
      "v": 110
    },
    {
      "midi": 66,
      "hit": false,
      "t": 179920.92924999926,
      "d": 821.4277500000026,
      "v": 120
    },
    {
      "midi": 64,
      "hit": false,
      "t": 179920.92924999926,
      "d": 849.9991499999887,
      "v": 110
    },
    {
      "midi": 40,
      "hit": false,
      "t": 179920.92924999926,
      "d": 857.1419999999925,
      "v": 127
    },
    {
      "midi": 59,
      "hit": false,
      "t": 180349.50024999926,
      "d": 428.5709999999963,
      "v": 80
    },
    {
      "midi": 68,
      "hit": false,
      "t": 180778.07124999925,
      "d": 428.5709999999963,
      "v": 120
    },
    {
      "midi": 57,
      "hit": false,
      "t": 180778.07124999925,
      "d": 849.9991499999887,
      "v": 110
    },
    {
      "midi": 45,
      "hit": false,
      "t": 180778.07124999925,
      "d": 2564.283149999974,
      "v": 127
    },
    {
      "midi": 61,
      "hit": false,
      "t": 181206.64224999925,
      "d": 214.28549999999814,
      "v": 120
    },
    {
      "midi": 52,
      "hit": false,
      "t": 181206.64224999925,
      "d": 1707.1411499999813,
      "v": 120
    },
    {
      "midi": 64,
      "hit": false,
      "t": 181420.92774999925,
      "d": 1064.2846499999869,
      "v": 120
    },
    {
      "midi": 57,
      "hit": false,
      "t": 181635.21324999924,
      "d": 1707.1411499999813,
      "v": 110
    },
    {
      "midi": 59,
      "hit": false,
      "t": 181849.49874999924,
      "d": 1499.998499999987,
      "v": 110
    },
    {
      "midi": 61,
      "hit": false,
      "t": 182063.78424999924,
      "d": 1278.570149999985,
      "v": 110
    },
    {
      "midi": 68,
      "hit": false,
      "t": 182278.06974999924,
      "d": 1071.4274999999907,
      "v": 110
    },
    {
      "midi": 64,
      "hit": false,
      "t": 182492.35524999924,
      "d": 1499.998499999987,
      "v": 110
    },
    {
      "midi": 52,
      "hit": false,
      "t": 182920.92624999923,
      "d": 428.5709999999963,
      "v": 115
    },
    {
      "midi": 57,
      "hit": false,
      "t": 183349.49724999923,
      "d": 428.5709999999963,
      "v": 110
    },
    {
      "midi": 45,
      "hit": false,
      "t": 183349.49724999923,
      "d": 428.5709999999963,
      "v": 110
    },
    {
      "midi": 59,
      "hit": false,
      "t": 183349.49724999923,
      "d": 857.1419999999925,
      "v": 110
    },
    {
      "midi": 61,
      "hit": false,
      "t": 183349.49724999923,
      "d": 857.1419999999925,
      "v": 110
    },
    {
      "midi": 56,
      "hit": false,
      "t": 183778.06824999923,
      "d": 428.5709999999963,
      "v": 110
    },
    {
      "midi": 44,
      "hit": false,
      "t": 183778.06824999923,
      "d": 428.5709999999963,
      "v": 127
    },
    {
      "midi": 57,
      "hit": false,
      "t": 184206.63924999922,
      "d": 849.9991499999887,
      "v": 110
    },
    {
      "midi": 61,
      "hit": false,
      "t": 184206.63924999922,
      "d": 857.1419999999925,
      "v": 110
    },
    {
      "midi": 54,
      "hit": false,
      "t": 184206.63924999922,
      "d": 1278.570149999985,
      "v": 110
    },
    {
      "midi": 42,
      "hit": false,
      "t": 184206.63924999922,
      "d": 1714.283999999985,
      "v": 127
    },
    {
      "midi": 63,
      "hit": false,
      "t": 184635.21024999922,
      "d": 107.14274999999907,
      "v": 120
    },
    {
      "midi": 64,
      "hit": false,
      "t": 184706.63874999923,
      "d": 349.9996499999834,
      "v": 120
    },
    {
      "midi": 64,
      "hit": false,
      "t": 185063.7812499992,
      "d": 421.42814999999246,
      "v": 120
    },
    {
      "midi": 57,
      "hit": false,
      "t": 185063.7812499992,
      "d": 857.1419999999925,
      "v": 110
    },
    {
      "midi": 61,
      "hit": false,
      "t": 185063.7812499992,
      "d": 857.1419999999925,
      "v": 110
    },
    {
      "midi": 64,
      "hit": false,
      "t": 185492.3522499992,
      "d": 421.42814999999246,
      "v": 120
    },
    {
      "midi": 54,
      "hit": false,
      "t": 185492.3522499992,
      "d": 428.5709999999963,
      "v": 115
    },
    {
      "midi": 47,
      "hit": false,
      "t": 185920.9232499992,
      "d": 421.42814999999246,
      "v": 120
    },
    {
      "midi": 64,
      "hit": false,
      "t": 185920.9232499992,
      "d": 428.5709999999963,
      "v": 110
    },
    {
      "midi": 57,
      "hit": false,
      "t": 185920.9232499992,
      "d": 849.9991499999887,
      "v": 110
    },
    {
      "midi": 61,
      "hit": false,
      "t": 185920.9232499992,
      "d": 857.1419999999925,
      "v": 110
    },
    {
      "midi": 66,
      "hit": false,
      "t": 186349.4942499992,
      "d": 214.28549999999814,
      "v": 120
    },
    {
      "midi": 47,
      "hit": false,
      "t": 186349.4942499992,
      "d": 849.9991499999887,
      "v": 100
    },
    {
      "midi": 66,
      "hit": false,
      "t": 186778.0652499992,
      "d": 857.1419999999925,
      "v": 110
    },
    {
      "midi": 57,
      "hit": false,
      "t": 186778.0652499992,
      "d": 857.1419999999925,
      "v": 110
    },
    {
      "midi": 63,
      "hit": false,
      "t": 186778.0652499992,
      "d": 857.1419999999925,
      "v": 110
    },
    {
      "midi": 47,
      "hit": false,
      "t": 187206.6362499992,
      "d": 428.5709999999963,
      "v": 120
    },
    {
      "midi": 59,
      "hit": false,
      "t": 187635.2072499992,
      "d": 421.42814999999246,
      "v": 110
    },
    {
      "midi": 66,
      "hit": false,
      "t": 187635.2072499992,
      "d": 857.1419999999925,
      "v": 110
    },
    {
      "midi": 44,
      "hit": false,
      "t": 187635.2072499992,
      "d": 1714.283999999985,
      "v": 127
    },
    {
      "midi": 63,
      "hit": false,
      "t": 188063.7782499992,
      "d": 421.42814999999246,
      "v": 120
    },
    {
      "midi": 59,
      "hit": false,
      "t": 188063.7782499992,
      "d": 428.5709999999963,
      "v": 110
    },
    {
      "midi": 63,
      "hit": false,
      "t": 188492.34924999918,
      "d": 428.5709999999963,
      "v": 110
    },
    {
      "midi": 66,
      "hit": false,
      "t": 188492.34924999918,
      "d": 857.1419999999925,
      "v": 110
    },
    {
      "midi": 71,
      "hit": false,
      "t": 188920.92024999918,
      "d": 428.5709999999963,
      "v": 120
    },
    {
      "midi": 56,
      "hit": false,
      "t": 188920.92024999918,
      "d": 428.5709999999963,
      "v": 115
    },
    {
      "midi": 68,
      "hit": false,
      "t": 189349.49124999918,
      "d": 142.85699999998906,
      "v": 120
    },
    {
      "midi": 56,
      "hit": false,
      "t": 189349.49124999918,
      "d": 421.42814999999246,
      "v": 110
    },
    {
      "midi": 59,
      "hit": false,
      "t": 189349.49124999918,
      "d": 857.1419999999925,
      "v": 110
    },
    {
      "midi": 64,
      "hit": false,
      "t": 189349.49124999918,
      "d": 857.1419999999925,
      "v": 110
    },
    {
      "midi": 37,
      "hit": false,
      "t": 189349.49124999918,
      "d": 1714.283999999985,
      "v": 127
    },
    {
      "midi": 69,
      "hit": false,
      "t": 189456.63399999918,
      "d": 749.9992499999935,
      "v": 120
    },
    {
      "midi": 56,
      "hit": false,
      "t": 189778.06224999917,
      "d": 421.42814999999246,
      "v": 100
    },
    {
      "midi": 68,
      "hit": false,
      "t": 190206.63324999917,
      "d": 392.8567500000063,
      "v": 120
    },
    {
      "midi": 56,
      "hit": false,
      "t": 190206.63324999917,
      "d": 421.42814999999246,
      "v": 110
    },
    {
      "midi": 59,
      "hit": false,
      "t": 190206.63324999917,
      "d": 857.1419999999925,
      "v": 110
    },
    {
      "midi": 64,
      "hit": false,
      "t": 190206.63324999917,
      "d": 857.1419999999925,
      "v": 110
    },
    {
      "midi": 69,
      "hit": false,
      "t": 190635.20424999917,
      "d": 428.5709999999963,
      "v": 120
    },
    {
      "midi": 56,
      "hit": false,
      "t": 190635.20424999917,
      "d": 428.5709999999963,
      "v": 75
    },
    {
      "midi": 49,
      "hit": false,
      "t": 190635.20424999917,
      "d": 428.5709999999963,
      "v": 120
    },
    {
      "midi": 57,
      "hit": false,
      "t": 191063.77524999916,
      "d": 421.42814999999246,
      "v": 110
    },
    {
      "midi": 68,
      "hit": false,
      "t": 191063.77524999916,
      "d": 428.5709999999963,
      "v": 120
    },
    {
      "midi": 42,
      "hit": false,
      "t": 191063.77524999916,
      "d": 1285.7130000001343,
      "v": 127
    },
    {
      "midi": 61,
      "hit": false,
      "t": 191492.34624999916,
      "d": 214.28549999999814,
      "v": 120
    },
    {
      "midi": 57,
      "hit": false,
      "t": 191492.34624999916,
      "d": 428.5709999999963,
      "v": 90
    },
    {
      "midi": 64,
      "hit": false,
      "t": 191706.63174999916,
      "d": 642.8565000001399,
      "v": 120
    },
    {
      "midi": 57,
      "hit": false,
      "t": 191920.91724999915,
      "d": 849.9991500001343,
      "v": 110
    },
    {
      "midi": 61,
      "hit": false,
      "t": 191920.91724999915,
      "d": 857.1420000001381,
      "v": 110
    },
    {
      "midi": 54,
      "hit": false,
      "t": 192349.4882499993,
      "d": 428.5709999999963,
      "v": 105
    },
    {
      "midi": 57,
      "hit": false,
      "t": 192778.0592499993,
      "d": 421.42814999999246,
      "v": 110
    },
    {
      "midi": 47,
      "hit": false,
      "t": 192778.0592499993,
      "d": 421.42814999999246,
      "v": 120
    },
    {
      "midi": 68,
      "hit": false,
      "t": 192778.0592499993,
      "d": 428.5709999999963,
      "v": 120
    },
    {
      "midi": 64,
      "hit": false,
      "t": 192778.0592499993,
      "d": 857.1419999999925,
      "v": 110
    },
    {
      "midi": 61,
      "hit": false,
      "t": 192778.0592499993,
      "d": 857.1419999999925,
      "v": 110
    },
    {
      "midi": 47,
      "hit": false,
      "t": 193206.6302499993,
      "d": 421.42814999999246,
      "v": 100
    },
    {
      "midi": 66,
      "hit": false,
      "t": 193206.6302499993,
      "d": 428.5709999999963,
      "v": 120
    },
    {
      "midi": 57,
      "hit": false,
      "t": 193206.6302499993,
      "d": 428.5709999999963,
      "v": 90
    },
    {
      "midi": 47,
      "hit": false,
      "t": 193635.20124999929,
      "d": 421.42814999999246,
      "v": 110
    },
    {
      "midi": 64,
      "hit": false,
      "t": 193635.20124999929,
      "d": 428.5709999999963,
      "v": 120
    },
    {
      "midi": 66,
      "hit": false,
      "t": 193635.20124999929,
      "d": 857.1419999999925,
      "v": 110
    },
    {
      "midi": 57,
      "hit": false,
      "t": 193635.20124999929,
      "d": 857.1419999999925,
      "v": 110
    },
    {
      "midi": 61,
      "hit": false,
      "t": 193635.20124999929,
      "d": 857.1419999999925,
      "v": 110
    },
    {
      "midi": 63,
      "hit": false,
      "t": 194063.77224999928,
      "d": 214.28549999999814,
      "v": 120
    },
    {
      "midi": 47,
      "hit": false,
      "t": 194063.77224999928,
      "d": 428.5709999999963,
      "v": 100
    },
    {
      "midi": 59,
      "hit": false,
      "t": 194492.34324999928,
      "d": 862.3186250000144,
      "v": 110
    },
    {
      "midi": 64,
      "hit": false,
      "t": 194492.34324999928,
      "d": 869.5650000000023,
      "v": 110
    },
    {
      "midi": 68,
      "hit": false,
      "t": 194492.34324999928,
      "d": 869.5650000000023,
      "v": 110
    },
    {
      "midi": 40,
      "hit": false,
      "t": 194492.34324999928,
      "d": 1297.10112499987,
      "v": 127
    },
    {
      "midi": 52,
      "hit": false,
      "t": 194927.12574999928,
      "d": 869.5649999998568,
      "v": 110
    },
    {
      "midi": 59,
      "hit": false,
      "t": 195361.90824999928,
      "d": 869.5649999997113,
      "v": 110
    },
    {
      "midi": 64,
      "hit": false,
      "t": 195361.90824999928,
      "d": 869.5649999997113,
      "v": 110
    },
    {
      "midi": 40,
      "hit": false,
      "t": 195796.69074999914,
      "d": 434.78249999985565,
      "v": 120
    },
    {
      "midi": 61,
      "hit": false,
      "t": 196231.473249999,
      "d": 874.9990666666417,
      "v": 111
    },
    {
      "midi": 56,
      "hit": false,
      "t": 196231.473249999,
      "d": 882.3519999999844,
      "v": 111
    },
    {
      "midi": 65,
      "hit": false,
      "t": 196231.473249999,
      "d": 882.3519999999844,
      "v": 115
    },
    {
      "midi": 37,
      "hit": false,
      "t": 196231.473249999,
      "d": 1819.8519999999844,
      "v": 127
    },
    {
      "midi": 49,
      "hit": false,
      "t": 196672.64924999897,
      "d": 902.1135000000068,
      "v": 110
    },
    {
      "midi": 61,
      "hit": false,
      "t": 197113.82524999898,
      "d": 937.5,
      "v": 110
    },
    {
      "midi": 56,
      "hit": false,
      "t": 197113.82524999898,
      "d": 937.5,
      "v": 110
    },
    {
      "midi": 49,
      "hit": false,
      "t": 197582.57524999898,
      "d": 468.75,
      "v": 110
    },
    {
      "midi": 57,
      "hit": false,
      "t": 198051.32524999898,
      "d": 1824.4737000000023,
      "v": 100
    },
    {
      "midi": 61,
      "hit": false,
      "t": 198051.32524999898,
      "d": 1832.1659999999974,
      "v": 100
    },
    {
      "midi": 42,
      "hit": false,
      "t": 198051.32524999898,
      "d": 1832.1659999999974,
      "v": 108
    },
    {
      "midi": 64,
      "hit": false,
      "t": 198505.870249999,
      "d": 446.96925000002375,
      "v": 120
    },
    {
      "midi": 64,
      "hit": false,
      "t": 198960.415249999,
      "d": 438.4610999999859,
      "v": 120
    },
    {
      "midi": 64,
      "hit": false,
      "t": 199421.95324999897,
      "d": 453.8457000000053,
      "v": 120
    },
    {
      "midi": 64,
      "hit": false,
      "t": 199883.49124999897,
      "d": 461.53800000000047,
      "v": 120
    },
    {
      "midi": 59,
      "hit": false,
      "t": 199883.49124999897,
      "d": 1838.4597000000067,
      "v": 95
    },
    {
      "midi": 57,
      "hit": false,
      "t": 199883.49124999897,
      "d": 1846.5242083333433,
      "v": 95
    },
    {
      "midi": 63,
      "hit": false,
      "t": 199883.49124999897,
      "d": 1846.5242083333433,
      "v": 95
    },
    {
      "midi": 47,
      "hit": false,
      "t": 199883.49124999897,
      "d": 1846.5242083333433,
      "v": 104
    },
    {
      "midi": 66,
      "hit": false,
      "t": 200345.02924999897,
      "d": 223.07670000000508,
      "v": 120
    },
    {
      "midi": 66,
      "hit": false,
      "t": 200575.79824999897,
      "d": 1154.2172083333426,
      "v": 120
    },
    {
      "midi": 59,
      "hit": false,
      "t": 201730.01545833232,
      "d": 1847.5054999999993,
      "v": 100
    },
    {
      "midi": 66,
      "hit": false,
      "t": 201730.01545833232,
      "d": 1847.5054999999993,
      "v": 100
    },
    {
      "midi": 44,
      "hit": false,
      "t": 201730.01545833232,
      "d": 1847.5054999999993,
      "v": 104
    },
    {
      "midi": 63,
      "hit": false,
      "t": 202213.8859583323,
      "d": 446.96924999999464,
      "v": 120
    },
    {
      "midi": 63,
      "hit": false,
      "t": 202668.4309583323,
      "d": 454.5450000000128,
      "v": 120
    },
    {
      "midi": 71,
      "hit": false,
      "t": 203122.9759583323,
      "d": 454.5450000000128,
      "v": 120
    },
    {
      "midi": 68,
      "hit": false,
      "t": 203577.52095833232,
      "d": 113.63625000001048,
      "v": 120
    },
    {
      "midi": 56,
      "hit": false,
      "t": 203577.52095833232,
      "d": 1849.110083333333,
      "v": 100
    },
    {
      "midi": 61,
      "hit": false,
      "t": 203577.52095833232,
      "d": 1849.110083333333,
      "v": 100
    },
    {
      "midi": 64,
      "hit": false,
      "t": 203577.52095833232,
      "d": 1849.110083333333,
      "v": 100
    },
    {
      "midi": 37,
      "hit": false,
      "t": 203577.52095833232,
      "d": 1849.110083333333,
      "v": 108
    },
    {
      "midi": 69,
      "hit": false,
      "t": 203668.42995833233,
      "d": 896.3059999999823,
      "v": 120
    },
    {
      "midi": 68,
      "hit": false,
      "t": 204525.6734583323,
      "d": 390.625,
      "v": 120
    },
    {
      "midi": 69,
      "hit": false,
      "t": 205010.0484583323,
      "d": 473.03414166666334,
      "v": 120
    },
    {
      "midi": 57,
      "hit": false,
      "t": 205426.63104166565,
      "d": 1959.4076666667825,
      "v": 100
    },
    {
      "midi": 42,
      "hit": false,
      "t": 205426.63104166565,
      "d": 1967.7410000001255,
      "v": 108
    },
    {
      "midi": 68,
      "hit": false,
      "t": 205483.08259999898,
      "d": 443.5479583333363,
      "v": 120
    },
    {
      "midi": 61,
      "hit": false,
      "t": 205926.6305583323,
      "d": 241.93525000000955,
      "v": 120
    },
    {
      "midi": 64,
      "hit": false,
      "t": 206168.56580833232,
      "d": 867.4729000001098,
      "v": 120
    },
    {
      "midi": 57,
      "hit": false,
      "t": 207394.37204166577,
      "d": 2527.7774999999674,
      "v": 100
    },
    {
      "midi": 61,
      "hit": false,
      "t": 207394.37204166577,
      "d": 2527.7774999999674,
      "v": 100
    },
    {
      "midi": 47,
      "hit": false,
      "t": 207394.37204166577,
      "d": 2527.7774999999674,
      "v": 104
    },
    {
      "midi": 68,
      "hit": false,
      "t": 207448.91749166575,
      "d": 545.4544999999925,
      "v": 100
    },
    {
      "midi": 66,
      "hit": false,
      "t": 207939.82654166574,
      "d": 598.9898249999969,
      "v": 120
    },
    {
      "midi": 64,
      "hit": false,
      "t": 208538.81636666573,
      "d": 633.333175000007,
      "v": 120
    },
    {
      "midi": 71,
      "hit": false,
      "t": 208616.59412499907,
      "d": 1378.0191666666651,
      "v": 95
    },
    {
      "midi": 83,
      "hit": false,
      "t": 208672.14966666573,
      "d": 1322.463625000004,
      "v": 95
    },
    {
      "midi": 63,
      "hit": false,
      "t": 209172.14954166574,
      "d": 750,
      "v": 120
    },
    {
      "midi": 59,
      "hit": false,
      "t": 209922.14954166574,
      "d": 1297.1011249999865,
      "v": 105
    },
    {
      "midi": 68,
      "hit": false,
      "t": 209922.14954166574,
      "d": 3478.259999999893,
      "v": 105
    },
    {
      "midi": 40,
      "hit": false,
      "t": 209922.14954166574,
      "d": 3478.259999999893,
      "v": 119
    },
    {
      "midi": 64,
      "hit": false,
      "t": 209994.61329166574,
      "d": 2311.5936249999504,
      "v": 120
    },
    {
      "midi": 47,
      "hit": false,
      "t": 210356.93204166574,
      "d": 1731.8836249999586,
      "v": 105
    },
    {
      "midi": 52,
      "hit": false,
      "t": 210791.71454166574,
      "d": 1731.8836249999295,
      "v": 105
    },
    {
      "midi": 59,
      "hit": false,
      "t": 211226.49704166572,
      "d": 2166.6661249999306,
      "v": 117
    },
    {
      "midi": 63,
      "hit": false,
      "t": 211661.27954166572,
      "d": 1739.1299999999173,
      "v": 121
    },
    {
      "midi": 47,
      "hit": false,
      "t": 212096.0620416657,
      "d": 862.3186249999562,
      "v": 105
    },
    {
      "midi": 64,
      "hit": false,
      "t": 212313.45329166568,
      "d": 1086.9562499999593,
      "v": 118
    },
    {
      "midi": 52,
      "hit": false,
      "t": 212530.84454166566,
      "d": 434.78249999997206,
      "v": 105
    },
    {
      "midi": 66,
      "hit": false,
      "t": 212965.62704166563,
      "d": 434.78250000000116,
      "v": 121
    },
    {
      "midi": 47,
      "hit": false,
      "t": 212965.62704166563,
      "d": 434.78250000000116,
      "v": 105
    },
    {
      "midi": 64,
      "hit": false,
      "t": 213400.40954166563,
      "d": 970.1488333334564,
      "v": 113
    },
    {
      "midi": 59,
      "hit": false,
      "t": 213400.40954166563,
      "d": 1335.8203166667954,
      "v": 113
    },
    {
      "midi": 68,
      "hit": false,
      "t": 213400.40954166563,
      "d": 1791.04400000014,
      "v": 113
    },
    {
      "midi": 45,
      "hit": false,
      "t": 213400.40954166563,
      "d": 1791.04400000014,
      "v": 114
    },
    {
      "midi": 52,
      "hit": false,
      "t": 213848.17054166566,
      "d": 888.0593166667677,
      "v": 105
    },
    {
      "midi": 56,
      "hit": false,
      "t": 214295.93154166575,
      "d": 895.5220000000263,
      "v": 105
    },
    {
      "midi": 59,
      "hit": false,
      "t": 214743.69254166578,
      "d": 447.7609999999986,
      "v": 95
    },
    {
      "midi": 52,
      "hit": false,
      "t": 214743.69254166578,
      "d": 447.7609999999986,
      "v": 105
    },
    {
      "midi": 47,
      "hit": false,
      "t": 215191.45354166577,
      "d": 468.2534999999916,
      "v": 114
    },
    {
      "midi": 63,
      "hit": false,
      "t": 215191.45354166577,
      "d": 993.7335749999911,
      "v": 112
    },
    {
      "midi": 59,
      "hit": false,
      "t": 215191.45354166577,
      "d": 1002.5054999999993,
      "v": 112
    },
    {
      "midi": 68,
      "hit": false,
      "t": 215191.45354166577,
      "d": 1002.5054999999993,
      "v": 112
    },
    {
      "midi": 47,
      "hit": false,
      "t": 215667.64354166578,
      "d": 517.5435749999888,
      "v": 95
    },
    {
      "midi": 47,
      "hit": false,
      "t": 216193.95904166577,
      "d": 578.4310833333293,
      "v": 114
    },
    {
      "midi": 63,
      "hit": false,
      "t": 216193.95904166577,
      "d": 1338.234999999986,
      "v": 110
    },
    {
      "midi": 59,
      "hit": false,
      "t": 216193.95904166577,
      "d": 1338.234999999986,
      "v": 110
    },
    {
      "midi": 66,
      "hit": false,
      "t": 216193.95904166577,
      "d": 1338.234999999986,
      "v": 110
    },
    {
      "midi": 47,
      "hit": false,
      "t": 216782.19404166576,
      "d": 750,
      "v": 95
    },
    {
      "midi": 40,
      "hit": false,
      "t": 217532.19404166576,
      "d": 3857.1420000000217,
      "v": 109
    },
    {
      "midi": 52,
      "hit": false,
      "t": 217582.19399166576,
      "d": 3807.142050000024,
      "v": 109
    },
    {
      "midi": 59,
      "hit": false,
      "t": 217632.19394166576,
      "d": 3757.1421000000264,
      "v": 109
    },
    {
      "midi": 63,
      "hit": false,
      "t": 217703.62244166576,
      "d": 3685.7136000000173,
      "v": 100
    },
    {
      "midi": 64,
      "hit": false,
      "t": 217760.76524166577,
      "d": 3628.570800000016,
      "v": 100
    },
    {
      "midi": 68,
      "hit": false,
      "t": 217817.90804166577,
      "d": 3571.4280000000144,
      "v": 100
    },
    {
      "midi": 71,
      "hit": false,
      "t": 219389.33604166578,
      "d": 2000,
      "v": 82
    },
    {
      "midi": 76,
      "hit": false,
      "t": 219414.33604166578,
      "d": 1933.333333333343,
      "v": 82
    },
    {
      "midi": 80,
      "hit": false,
      "t": 219489.33604166578,
      "d": 1858.333333333343,
      "v": 82
    }
  ]
}