{
  "jsonPath": "Rock/Indie Pop/Sasha/im-still-waitin-unreleased-version.json",
  "path": "Rock\\Indie Pop\\Sasha\\Im Still Waitin (Unreleased Version).mid",
  "name": "Im Still Waitin (Unreleased Version)",
  "difficulty": "Advanced",
  "bpm": 82.00238900293296,
  "notes": [
    {
      "midi": 60,
      "hit": false,
      "t": 2926.7439999999997,
      "d": 57.925141666666605,
      "v": 104
    },
    {
      "midi": 56,
      "hit": false,
      "t": 2926.7439999999997,
      "d": 65.54687083333329,
      "v": 86
    },
    {
      "midi": 63,
      "hit": false,
      "t": 2926.7439999999997,
      "d": 73.16859999999997,
      "v": 96
    },
    {
      "midi": 44,
      "hit": false,
      "t": 2926.7439999999997,
      "d": 111.27724583333338,
      "v": 90
    },
    {
      "midi": 60,
      "hit": false,
      "t": 3292.5869999999995,
      "d": 54.876450000000204,
      "v": 79
    },
    {
      "midi": 56,
      "hit": false,
      "t": 3292.5869999999995,
      "d": 62.49817916666689,
      "v": 58
    },
    {
      "midi": 63,
      "hit": false,
      "t": 3292.5869999999995,
      "d": 62.49817916666689,
      "v": 58
    },
    {
      "midi": 44,
      "hit": false,
      "t": 3292.5869999999995,
      "d": 329.2587000000003,
      "v": 83
    },
    {
      "midi": 60,
      "hit": false,
      "t": 3658.43,
      "d": 47.25472083333352,
      "v": 104
    },
    {
      "midi": 56,
      "hit": false,
      "t": 3658.43,
      "d": 62.49817916666689,
      "v": 81
    },
    {
      "midi": 63,
      "hit": false,
      "t": 3658.43,
      "d": 62.49817916666689,
      "v": 84
    },
    {
      "midi": 32,
      "hit": false,
      "t": 3658.43,
      "d": 248.46837083333367,
      "v": 83
    },
    {
      "midi": 60,
      "hit": false,
      "t": 4024.273,
      "d": 42.68168333333324,
      "v": 79
    },
    {
      "midi": 56,
      "hit": false,
      "t": 4024.273,
      "d": 54.87644999999975,
      "v": 56
    },
    {
      "midi": 63,
      "hit": false,
      "t": 4024.273,
      "d": 57.925141666666605,
      "v": 58
    },
    {
      "midi": 60,
      "hit": false,
      "t": 4390.116,
      "d": 54.87644999999975,
      "v": 81
    },
    {
      "midi": 56,
      "hit": false,
      "t": 4390.116,
      "d": 62.49817916666598,
      "v": 61
    },
    {
      "midi": 63,
      "hit": false,
      "t": 4390.116,
      "d": 73.16859999999906,
      "v": 64
    },
    {
      "midi": 60,
      "hit": false,
      "t": 4755.958999999999,
      "d": 62.49817916666689,
      "v": 97
    },
    {
      "midi": 63,
      "hit": false,
      "t": 4755.958999999999,
      "d": 77.74163750000025,
      "v": 76
    },
    {
      "midi": 56,
      "hit": false,
      "t": 4755.958999999999,
      "d": 80.7903291666671,
      "v": 74
    },
    {
      "midi": 60,
      "hit": false,
      "t": 5121.802,
      "d": 85.36336666666648,
      "v": 110
    },
    {
      "midi": 56,
      "hit": false,
      "t": 5121.802,
      "d": 96.03378749999956,
      "v": 94
    },
    {
      "midi": 63,
      "hit": false,
      "t": 5121.802,
      "d": 96.03378749999956,
      "v": 88
    },
    {
      "midi": 60,
      "hit": false,
      "t": 5487.6449999999995,
      "d": 70.11990833333311,
      "v": 89
    },
    {
      "midi": 56,
      "hit": false,
      "t": 5487.6449999999995,
      "d": 77.74163749999934,
      "v": 66
    },
    {
      "midi": 63,
      "hit": false,
      "t": 5487.6449999999995,
      "d": 92.98509583333271,
      "v": 66
    },
    {
      "midi": 44,
      "hit": false,
      "t": 5711.723837499999,
      "d": 73.16859999999997,
      "v": 79
    },
    {
      "midi": 63,
      "hit": false,
      "t": 5711.723837499999,
      "d": 92.98509583333362,
      "v": 59
    },
    {
      "midi": 58,
      "hit": false,
      "t": 5853.487999999999,
      "d": 73.16859999999997,
      "v": 86
    },
    {
      "midi": 61,
      "hit": false,
      "t": 5853.487999999999,
      "d": 80.7903291666662,
      "v": 96
    },
    {
      "midi": 65,
      "hit": false,
      "t": 5853.487999999999,
      "d": 92.98509583333271,
      "v": 107
    },
    {
      "midi": 46,
      "hit": false,
      "t": 5853.487999999999,
      "d": 115.8502833333323,
      "v": 79
    },
    {
      "midi": 58,
      "hit": false,
      "t": 6219.330999999998,
      "d": 54.87644999999975,
      "v": 66
    },
    {
      "midi": 65,
      "hit": false,
      "t": 6219.330999999998,
      "d": 57.925141666666605,
      "v": 84
    },
    {
      "midi": 61,
      "hit": false,
      "t": 6219.330999999998,
      "d": 73.16859999999997,
      "v": 79
    },
    {
      "midi": 46,
      "hit": false,
      "t": 6219.330999999998,
      "d": 321.6369708333332,
      "v": 83
    },
    {
      "midi": 58,
      "hit": false,
      "t": 6585.173999999998,
      "d": 50.30341250000038,
      "v": 64
    },
    {
      "midi": 65,
      "hit": false,
      "t": 6585.173999999998,
      "d": 62.49817916666689,
      "v": 82
    },
    {
      "midi": 61,
      "hit": false,
      "t": 6585.173999999998,
      "d": 73.16859999999997,
      "v": 79
    },
    {
      "midi": 34,
      "hit": false,
      "t": 6585.173999999998,
      "d": 210.35972500000025,
      "v": 103
    },
    {
      "midi": 58,
      "hit": false,
      "t": 6951.016999999998,
      "d": 47.25472083333352,
      "v": 81
    },
    {
      "midi": 65,
      "hit": false,
      "t": 6951.016999999998,
      "d": 50.30341250000038,
      "v": 101
    },
    {
      "midi": 61,
      "hit": false,
      "t": 6951.016999999998,
      "d": 57.925141666666605,
      "v": 93
    },
    {
      "midi": 58,
      "hit": false,
      "t": 7316.859999999998,
      "d": 57.925141666666605,
      "v": 91
    },
    {
      "midi": 65,
      "hit": false,
      "t": 7316.859999999998,
      "d": 65.54687083333283,
      "v": 109
    },
    {
      "midi": 61,
      "hit": false,
      "t": 7316.859999999998,
      "d": 73.16859999999906,
      "v": 103
    },
    {
      "midi": 58,
      "hit": false,
      "t": 7682.702999999997,
      "d": 65.54687083333374,
      "v": 62
    },
    {
      "midi": 65,
      "hit": false,
      "t": 7682.702999999997,
      "d": 77.74163750000025,
      "v": 86
    },
    {
      "midi": 61,
      "hit": false,
      "t": 7682.702999999997,
      "d": 85.36336666666648,
      "v": 74
    },
    {
      "midi": 58,
      "hit": false,
      "t": 8048.545999999997,
      "d": 54.87644999999975,
      "v": 91
    },
    {
      "midi": 65,
      "hit": false,
      "t": 8048.545999999997,
      "d": 57.925141666666605,
      "v": 109
    },
    {
      "midi": 61,
      "hit": false,
      "t": 8048.545999999997,
      "d": 62.49817916666689,
      "v": 99
    },
    {
      "midi": 65,
      "hit": false,
      "t": 8272.624837499996,
      "d": 57.925141666666605,
      "v": 63
    },
    {
      "midi": 58,
      "hit": false,
      "t": 8414.388999999996,
      "d": 50.30341249999947,
      "v": 64
    },
    {
      "midi": 65,
      "hit": false,
      "t": 8414.388999999996,
      "d": 57.925141666666605,
      "v": 84
    },
    {
      "midi": 61,
      "hit": false,
      "t": 8414.388999999996,
      "d": 62.49817916666689,
      "v": 74
    },
    {
      "midi": 65,
      "hit": false,
      "t": 8638.467837499997,
      "d": 57.925141666666605,
      "v": 63
    },
    {
      "midi": 46,
      "hit": false,
      "t": 8638.467837499997,
      "d": 80.7903291666662,
      "v": 86
    },
    {
      "midi": 60,
      "hit": false,
      "t": 8780.231999999996,
      "d": 57.925141666666605,
      "v": 104
    },
    {
      "midi": 56,
      "hit": false,
      "t": 8780.231999999996,
      "d": 65.54687083333374,
      "v": 86
    },
    {
      "midi": 63,
      "hit": false,
      "t": 8780.231999999996,
      "d": 73.16860000000088,
      "v": 96
    },
    {
      "midi": 44,
      "hit": false,
      "t": 8780.231999999996,
      "d": 179.87280833333352,
      "v": 83
    },
    {
      "midi": 60,
      "hit": false,
      "t": 9146.074999999997,
      "d": 54.87644999999975,
      "v": 79
    },
    {
      "midi": 56,
      "hit": false,
      "t": 9146.074999999997,
      "d": 62.49817916666689,
      "v": 58
    },
    {
      "midi": 63,
      "hit": false,
      "t": 9146.074999999997,
      "d": 62.49817916666689,
      "v": 58
    },
    {
      "midi": 44,
      "hit": false,
      "t": 9146.074999999997,
      "d": 301.82047500000044,
      "v": 94
    },
    {
      "midi": 60,
      "hit": false,
      "t": 9511.917999999998,
      "d": 47.25472083333261,
      "v": 104
    },
    {
      "midi": 56,
      "hit": false,
      "t": 9511.917999999998,
      "d": 62.49817916666507,
      "v": 81
    },
    {
      "midi": 63,
      "hit": false,
      "t": 9511.917999999998,
      "d": 62.49817916666507,
      "v": 84
    },
    {
      "midi": 32,
      "hit": false,
      "t": 9511.917999999998,
      "d": 256.0900999999976,
      "v": 83
    },
    {
      "midi": 60,
      "hit": false,
      "t": 9877.760999999995,
      "d": 42.68168333333415,
      "v": 79
    },
    {
      "midi": 56,
      "hit": false,
      "t": 9877.760999999995,
      "d": 54.87645000000157,
      "v": 56
    },
    {
      "midi": 63,
      "hit": false,
      "t": 9877.760999999995,
      "d": 57.925141666668424,
      "v": 58
    },
    {
      "midi": 60,
      "hit": false,
      "t": 10243.603999999998,
      "d": 54.87644999999975,
      "v": 81
    },
    {
      "midi": 56,
      "hit": false,
      "t": 10243.603999999998,
      "d": 62.49817916666689,
      "v": 61
    },
    {
      "midi": 63,
      "hit": false,
      "t": 10243.603999999998,
      "d": 73.16860000000088,
      "v": 64
    },
    {
      "midi": 60,
      "hit": false,
      "t": 10609.446999999998,
      "d": 62.49817916666689,
      "v": 97
    },
    {
      "midi": 63,
      "hit": false,
      "t": 10609.446999999998,
      "d": 77.74163749999934,
      "v": 76
    },
    {
      "midi": 56,
      "hit": false,
      "t": 10609.446999999998,
      "d": 80.7903291666662,
      "v": 74
    },
    {
      "midi": 60,
      "hit": false,
      "t": 10975.289999999997,
      "d": 85.36336666666648,
      "v": 110
    },
    {
      "midi": 56,
      "hit": false,
      "t": 10975.289999999997,
      "d": 96.03378750000047,
      "v": 94
    },
    {
      "midi": 63,
      "hit": false,
      "t": 10975.289999999997,
      "d": 96.03378750000047,
      "v": 88
    },
    {
      "midi": 63,
      "hit": false,
      "t": 11199.368837499998,
      "d": 96.03378750000047,
      "v": 63
    },
    {
      "midi": 60,
      "hit": false,
      "t": 11341.132999999998,
      "d": 70.11990833333402,
      "v": 89
    },
    {
      "midi": 56,
      "hit": false,
      "t": 11341.132999999998,
      "d": 77.74163750000116,
      "v": 66
    },
    {
      "midi": 63,
      "hit": false,
      "t": 11341.132999999998,
      "d": 92.98509583333362,
      "v": 66
    },
    {
      "midi": 44,
      "hit": false,
      "t": 11565.2118375,
      "d": 50.30341249999947,
      "v": 66
    },
    {
      "midi": 63,
      "hit": false,
      "t": 11565.2118375,
      "d": 96.03378749999865,
      "v": 63
    },
    {
      "midi": 58,
      "hit": false,
      "t": 11706.975999999997,
      "d": 70.11990833333402,
      "v": 71
    },
    {
      "midi": 61,
      "hit": false,
      "t": 11706.975999999997,
      "d": 92.98509583333362,
      "v": 86
    },
    {
      "midi": 65,
      "hit": false,
      "t": 11706.975999999997,
      "d": 100.60682500000075,
      "v": 94
    },
    {
      "midi": 46,
      "hit": false,
      "t": 11706.975999999997,
      "d": 138.71547083333462,
      "v": 83
    },
    {
      "midi": 58,
      "hit": false,
      "t": 12072.818999999998,
      "d": 62.49817916666689,
      "v": 71
    },
    {
      "midi": 65,
      "hit": false,
      "t": 12072.818999999998,
      "d": 77.74163749999934,
      "v": 86
    },
    {
      "midi": 61,
      "hit": false,
      "t": 12072.818999999998,
      "d": 85.36336666666648,
      "v": 83
    },
    {
      "midi": 46,
      "hit": false,
      "t": 12072.818999999998,
      "d": 314.01524166666604,
      "v": 86
    },
    {
      "midi": 58,
      "hit": false,
      "t": 12438.661999999997,
      "d": 47.25472083333261,
      "v": 66
    },
    {
      "midi": 65,
      "hit": false,
      "t": 12438.661999999997,
      "d": 62.49817916666507,
      "v": 84
    },
    {
      "midi": 61,
      "hit": false,
      "t": 12438.661999999997,
      "d": 65.54687083333192,
      "v": 79
    },
    {
      "midi": 34,
      "hit": false,
      "t": 12438.661999999997,
      "d": 176.82411666666485,
      "v": 98
    },
    {
      "midi": 58,
      "hit": false,
      "t": 12804.504999999996,
      "d": 39.632991666667294,
      "v": 71
    },
    {
      "midi": 61,
      "hit": false,
      "t": 12804.504999999996,
      "d": 54.87644999999975,
      "v": 86
    },
    {
      "midi": 65,
      "hit": false,
      "t": 12804.504999999996,
      "d": 54.87644999999975,
      "v": 91
    },
    {
      "midi": 58,
      "hit": false,
      "t": 13170.347999999994,
      "d": 54.87644999999975,
      "v": 86
    },
    {
      "midi": 65,
      "hit": false,
      "t": 13170.347999999994,
      "d": 54.87644999999975,
      "v": 97
    },
    {
      "midi": 61,
      "hit": false,
      "t": 13170.347999999994,
      "d": 57.925141666666605,
      "v": 94
    },
    {
      "midi": 60,
      "hit": false,
      "t": 14633.719999999994,
      "d": 57.925141666666605,
      "v": 104
    },
    {
      "midi": 56,
      "hit": false,
      "t": 14633.719999999994,
      "d": 65.54687083333374,
      "v": 86
    },
    {
      "midi": 63,
      "hit": false,
      "t": 14633.719999999994,
      "d": 73.16860000000088,
      "v": 96
    },
    {
      "midi": 44,
      "hit": false,
      "t": 14633.719999999994,
      "d": 111.27724583333475,
      "v": 90
    },
    {
      "midi": 56,
      "hit": false,
      "t": 14633.719999999998,
      "d": 1823.1176166666664,
      "v": 1
    },
    {
      "midi": 63,
      "hit": false,
      "t": 14633.719999999998,
      "d": 1823.1176166666664,
      "v": 1
    },
    {
      "midi": 72,
      "hit": false,
      "t": 14633.719999999998,
      "d": 1823.1176166666664,
      "v": 1
    },
    {
      "midi": 60,
      "hit": false,
      "t": 14999.562999999995,
      "d": 54.87644999999975,
      "v": 79
    },
    {
      "midi": 56,
      "hit": false,
      "t": 14999.562999999995,
      "d": 62.49817916666689,
      "v": 58
    },
    {
      "midi": 63,
      "hit": false,
      "t": 14999.562999999995,
      "d": 62.49817916666689,
      "v": 58
    },
    {
      "midi": 44,
      "hit": false,
      "t": 14999.562999999995,
      "d": 329.2587000000003,
      "v": 83
    },
    {
      "midi": 60,
      "hit": false,
      "t": 15365.405999999995,
      "d": 47.25472083333261,
      "v": 104
    },
    {
      "midi": 56,
      "hit": false,
      "t": 15365.405999999995,
      "d": 62.49817916666507,
      "v": 81
    },
    {
      "midi": 63,
      "hit": false,
      "t": 15365.405999999995,
      "d": 62.49817916666507,
      "v": 84
    },
    {
      "midi": 32,
      "hit": false,
      "t": 15365.405999999995,
      "d": 248.4683708333323,
      "v": 83
    },
    {
      "midi": 60,
      "hit": false,
      "t": 15731.248999999994,
      "d": 42.68168333333415,
      "v": 79
    },
    {
      "midi": 56,
      "hit": false,
      "t": 15731.248999999994,
      "d": 54.87645000000157,
      "v": 56
    },
    {
      "midi": 63,
      "hit": false,
      "t": 15731.248999999994,
      "d": 57.925141666668424,
      "v": 58
    },
    {
      "midi": 60,
      "hit": false,
      "t": 16097.091999999997,
      "d": 54.87644999999975,
      "v": 81
    },
    {
      "midi": 56,
      "hit": false,
      "t": 16097.091999999997,
      "d": 62.49817916666689,
      "v": 61
    },
    {
      "midi": 63,
      "hit": false,
      "t": 16097.091999999997,
      "d": 73.16860000000088,
      "v": 64
    },
    {
      "midi": 60,
      "hit": false,
      "t": 16462.934999999998,
      "d": 62.49817916666507,
      "v": 97
    },
    {
      "midi": 63,
      "hit": false,
      "t": 16462.934999999998,
      "d": 77.74163749999934,
      "v": 76
    },
    {
      "midi": 56,
      "hit": false,
      "t": 16462.934999999998,
      "d": 80.7903291666662,
      "v": 74
    },
    {
      "midi": 53,
      "hit": false,
      "t": 16462.934999999998,
      "d": 359.74561666666705,
      "v": 1
    },
    {
      "midi": 63,
      "hit": false,
      "t": 16462.934999999998,
      "d": 359.74561666666705,
      "v": 1
    },
    {
      "midi": 70,
      "hit": false,
      "t": 16462.934999999998,
      "d": 359.74561666666705,
      "v": 1
    },
    {
      "midi": 60,
      "hit": false,
      "t": 16828.778,
      "d": 85.3633666666683,
      "v": 110
    },
    {
      "midi": 56,
      "hit": false,
      "t": 16828.778,
      "d": 96.03378750000047,
      "v": 94
    },
    {
      "midi": 63,
      "hit": false,
      "t": 16828.778,
      "d": 96.03378750000047,
      "v": 88
    },
    {
      "midi": 56,
      "hit": false,
      "t": 16828.778,
      "d": 1091.431616666665,
      "v": 1
    },
    {
      "midi": 63,
      "hit": false,
      "t": 16828.778,
      "d": 1091.431616666665,
      "v": 1
    },
    {
      "midi": 68,
      "hit": false,
      "t": 16828.778,
      "d": 1091.431616666665,
      "v": 1
    },
    {
      "midi": 60,
      "hit": false,
      "t": 17194.621,
      "d": 70.11990833333402,
      "v": 89
    },
    {
      "midi": 56,
      "hit": false,
      "t": 17194.621,
      "d": 77.74163749999934,
      "v": 66
    },
    {
      "midi": 63,
      "hit": false,
      "t": 17194.621,
      "d": 92.98509583333362,
      "v": 66
    },
    {
      "midi": 44,
      "hit": false,
      "t": 17418.6998375,
      "d": 73.16860000000088,
      "v": 79
    },
    {
      "midi": 63,
      "hit": false,
      "t": 17418.6998375,
      "d": 92.98509583333362,
      "v": 59
    },
    {
      "midi": 58,
      "hit": false,
      "t": 17560.464,
      "d": 73.16860000000088,
      "v": 86
    },
    {
      "midi": 61,
      "hit": false,
      "t": 17560.464,
      "d": 80.7903291666662,
      "v": 96
    },
    {
      "midi": 65,
      "hit": false,
      "t": 17560.464,
      "d": 92.98509583333362,
      "v": 107
    },
    {
      "midi": 46,
      "hit": false,
      "t": 17560.464,
      "d": 115.85028333333321,
      "v": 79
    },
    {
      "midi": 56,
      "hit": false,
      "t": 17926.306999999997,
      "d": 176.82411666666667,
      "v": 1
    },
    {
      "midi": 61,
      "hit": false,
      "t": 17926.306999999997,
      "d": 176.82411666666667,
      "v": 1
    },
    {
      "midi": 70,
      "hit": false,
      "t": 17926.306999999997,
      "d": 176.82411666666667,
      "v": 1
    },
    {
      "midi": 58,
      "hit": false,
      "t": 17926.307,
      "d": 54.87644999999975,
      "v": 66
    },
    {
      "midi": 65,
      "hit": false,
      "t": 17926.307,
      "d": 57.925141666666605,
      "v": 84
    },
    {
      "midi": 61,
      "hit": false,
      "t": 17926.307,
      "d": 73.16860000000088,
      "v": 79
    },
    {
      "midi": 46,
      "hit": false,
      "t": 17926.307,
      "d": 321.6369708333332,
      "v": 83
    },
    {
      "midi": 53,
      "hit": false,
      "t": 18109.228499999997,
      "d": 542.6671166666674,
      "v": 1
    },
    {
      "midi": 61,
      "hit": false,
      "t": 18109.228499999997,
      "d": 542.6671166666674,
      "v": 1
    },
    {
      "midi": 70,
      "hit": false,
      "t": 18109.228499999997,
      "d": 542.6671166666674,
      "v": 1
    },
    {
      "midi": 58,
      "hit": false,
      "t": 18292.15,
      "d": 50.303412500001286,
      "v": 64
    },
    {
      "midi": 65,
      "hit": false,
      "t": 18292.15,
      "d": 62.498179166668706,
      "v": 82
    },
    {
      "midi": 61,
      "hit": false,
      "t": 18292.15,
      "d": 73.16860000000088,
      "v": 79
    },
    {
      "midi": 34,
      "hit": false,
      "t": 18292.15,
      "d": 210.35972500000207,
      "v": 103
    },
    {
      "midi": 51,
      "hit": false,
      "t": 18657.993,
      "d": 359.74561666666705,
      "v": 1
    },
    {
      "midi": 61,
      "hit": false,
      "t": 18657.993,
      "d": 359.74561666666705,
      "v": 1
    },
    {
      "midi": 68,
      "hit": false,
      "t": 18657.993,
      "d": 359.74561666666705,
      "v": 1
    },
    {
      "midi": 58,
      "hit": false,
      "t": 18657.993000000002,
      "d": 47.25472083333443,
      "v": 81
    },
    {
      "midi": 65,
      "hit": false,
      "t": 18657.993000000002,
      "d": 50.303412500001286,
      "v": 101
    },
    {
      "midi": 61,
      "hit": false,
      "t": 18657.993000000002,
      "d": 57.925141666666605,
      "v": 93
    },
    {
      "midi": 56,
      "hit": false,
      "t": 19023.836,
      "d": 359.74561666666705,
      "v": 1
    },
    {
      "midi": 61,
      "hit": false,
      "t": 19023.836,
      "d": 359.74561666666705,
      "v": 1
    },
    {
      "midi": 72,
      "hit": false,
      "t": 19023.836,
      "d": 359.74561666666705,
      "v": 1
    },
    {
      "midi": 58,
      "hit": false,
      "t": 19023.836000000003,
      "d": 57.925141666666605,
      "v": 91
    },
    {
      "midi": 65,
      "hit": false,
      "t": 19023.836000000003,
      "d": 65.54687083333192,
      "v": 109
    },
    {
      "midi": 61,
      "hit": false,
      "t": 19023.836000000003,
      "d": 73.16859999999724,
      "v": 103
    },
    {
      "midi": 58,
      "hit": false,
      "t": 19389.679,
      "d": 65.54687083333192,
      "v": 62
    },
    {
      "midi": 65,
      "hit": false,
      "t": 19389.679,
      "d": 77.74163749999934,
      "v": 86
    },
    {
      "midi": 61,
      "hit": false,
      "t": 19389.679,
      "d": 85.36336666666466,
      "v": 74
    },
    {
      "midi": 53,
      "hit": false,
      "t": 19389.679,
      "d": 359.74561666666705,
      "v": 1
    },
    {
      "midi": 61,
      "hit": false,
      "t": 19389.679,
      "d": 359.74561666666705,
      "v": 1
    },
    {
      "midi": 70,
      "hit": false,
      "t": 19389.679,
      "d": 359.74561666666705,
      "v": 1
    },
    {
      "midi": 58,
      "hit": false,
      "t": 19755.521999999997,
      "d": 54.87644999999975,
      "v": 91
    },
    {
      "midi": 65,
      "hit": false,
      "t": 19755.521999999997,
      "d": 57.925141666666605,
      "v": 109
    },
    {
      "midi": 61,
      "hit": false,
      "t": 19755.521999999997,
      "d": 62.49817916666507,
      "v": 99
    },
    {
      "midi": 56,
      "hit": false,
      "t": 19755.522,
      "d": 359.74561666666705,
      "v": 1
    },
    {
      "midi": 61,
      "hit": false,
      "t": 19755.522,
      "d": 359.74561666666705,
      "v": 1
    },
    {
      "midi": 68,
      "hit": false,
      "t": 19755.522,
      "d": 359.74561666666705,
      "v": 1
    },
    {
      "midi": 65,
      "hit": false,
      "t": 19979.600837499995,
      "d": 57.925141666666605,
      "v": 63
    },
    {
      "midi": 58,
      "hit": false,
      "t": 20121.364999999994,
      "d": 50.303412500001286,
      "v": 64
    },
    {
      "midi": 65,
      "hit": false,
      "t": 20121.364999999994,
      "d": 57.925141666666605,
      "v": 84
    },
    {
      "midi": 61,
      "hit": false,
      "t": 20121.364999999994,
      "d": 62.49817916666507,
      "v": 74
    },
    {
      "midi": 53,
      "hit": false,
      "t": 20121.365,
      "d": 359.74561666666705,
      "v": 1
    },
    {
      "midi": 61,
      "hit": false,
      "t": 20121.365,
      "d": 359.74561666666705,
      "v": 1
    },
    {
      "midi": 65,
      "hit": false,
      "t": 20121.365,
      "d": 359.74561666666705,
      "v": 1
    },
    {
      "midi": 65,
      "hit": false,
      "t": 20345.44383749999,
      "d": 57.925141666666605,
      "v": 63
    },
    {
      "midi": 46,
      "hit": false,
      "t": 20345.44383749999,
      "d": 80.7903291666662,
      "v": 86
    },
    {
      "midi": 60,
      "hit": false,
      "t": 20487.20799999999,
      "d": 57.925141666666605,
      "v": 104
    },
    {
      "midi": 56,
      "hit": false,
      "t": 20487.20799999999,
      "d": 65.54687083333192,
      "v": 86
    },
    {
      "midi": 63,
      "hit": false,
      "t": 20487.20799999999,
      "d": 73.16859999999724,
      "v": 96
    },
    {
      "midi": 44,
      "hit": false,
      "t": 20487.20799999999,
      "d": 179.87280833332989,
      "v": 83
    },
    {
      "midi": 56,
      "hit": false,
      "t": 20487.208000000002,
      "d": 1823.1176166666664,
      "v": 1
    },
    {
      "midi": 63,
      "hit": false,
      "t": 20487.208000000002,
      "d": 1823.1176166666664,
      "v": 1
    },
    {
      "midi": 72,
      "hit": false,
      "t": 20487.208000000002,
      "d": 1823.1176166666664,
      "v": 1
    },
    {
      "midi": 60,
      "hit": false,
      "t": 20853.05099999999,
      "d": 54.87644999999975,
      "v": 79
    },
    {
      "midi": 56,
      "hit": false,
      "t": 20853.05099999999,
      "d": 62.49817916666507,
      "v": 58
    },
    {
      "midi": 63,
      "hit": false,
      "t": 20853.05099999999,
      "d": 62.49817916666507,
      "v": 58
    },
    {
      "midi": 44,
      "hit": false,
      "t": 20853.05099999999,
      "d": 301.8204749999968,
      "v": 94
    },
    {
      "midi": 60,
      "hit": false,
      "t": 21218.893999999986,
      "d": 47.25472083333443,
      "v": 104
    },
    {
      "midi": 56,
      "hit": false,
      "t": 21218.893999999986,
      "d": 62.498179166668706,
      "v": 81
    },
    {
      "midi": 63,
      "hit": false,
      "t": 21218.893999999986,
      "d": 62.498179166668706,
      "v": 84
    },
    {
      "midi": 32,
      "hit": false,
      "t": 21218.893999999986,
      "d": 256.09010000000126,
      "v": 83
    },
    {
      "midi": 60,
      "hit": false,
      "t": 21584.736999999986,
      "d": 42.68168333333233,
      "v": 79
    },
    {
      "midi": 56,
      "hit": false,
      "t": 21584.736999999986,
      "d": 54.87644999999975,
      "v": 56
    },
    {
      "midi": 63,
      "hit": false,
      "t": 21584.736999999986,
      "d": 57.925141666666605,
      "v": 58
    },
    {
      "midi": 60,
      "hit": false,
      "t": 21950.579999999987,
      "d": 54.87644999999975,
      "v": 81
    },
    {
      "midi": 56,
      "hit": false,
      "t": 21950.579999999987,
      "d": 62.49817916666507,
      "v": 61
    },
    {
      "midi": 63,
      "hit": false,
      "t": 21950.579999999987,
      "d": 73.16859999999724,
      "v": 64
    },
    {
      "midi": 60,
      "hit": false,
      "t": 22316.422999999984,
      "d": 62.49817916666507,
      "v": 97
    },
    {
      "midi": 63,
      "hit": false,
      "t": 22316.422999999984,
      "d": 77.74163749999934,
      "v": 76
    },
    {
      "midi": 56,
      "hit": false,
      "t": 22316.422999999984,
      "d": 80.7903291666662,
      "v": 74
    },
    {
      "midi": 53,
      "hit": false,
      "t": 22316.423000000003,
      "d": 359.74561666666705,
      "v": 1
    },
    {
      "midi": 63,
      "hit": false,
      "t": 22316.423000000003,
      "d": 359.74561666666705,
      "v": 1
    },
    {
      "midi": 70,
      "hit": false,
      "t": 22316.423000000003,
      "d": 359.74561666666705,
      "v": 1
    },
    {
      "midi": 60,
      "hit": false,
      "t": 22682.265999999985,
      "d": 85.3633666666683,
      "v": 110
    },
    {
      "midi": 56,
      "hit": false,
      "t": 22682.265999999985,
      "d": 96.03378750000047,
      "v": 94
    },
    {
      "midi": 63,
      "hit": false,
      "t": 22682.265999999985,
      "d": 96.03378750000047,
      "v": 88
    },
    {
      "midi": 56,
      "hit": false,
      "t": 22682.266000000003,
      "d": 359.74561666666705,
      "v": 1
    },
    {
      "midi": 63,
      "hit": false,
      "t": 22682.266000000003,
      "d": 359.74561666666705,
      "v": 1
    },
    {
      "midi": 68,
      "hit": false,
      "t": 22682.266000000003,
      "d": 359.74561666666705,
      "v": 1
    },
    {
      "midi": 63,
      "hit": false,
      "t": 22906.344837499986,
      "d": 96.03378750000047,
      "v": 63
    },
    {
      "midi": 60,
      "hit": false,
      "t": 23048.108999999986,
      "d": 70.11990833333402,
      "v": 89
    },
    {
      "midi": 56,
      "hit": false,
      "t": 23048.108999999986,
      "d": 77.74163749999934,
      "v": 66
    },
    {
      "midi": 63,
      "hit": false,
      "t": 23048.108999999986,
      "d": 92.98509583333362,
      "v": 66
    },
    {
      "midi": 53,
      "hit": false,
      "t": 23048.109000000004,
      "d": 237.79795000000013,
      "v": 1
    },
    {
      "midi": 63,
      "hit": false,
      "t": 23048.109000000004,
      "d": 237.79795000000013,
      "v": 1
    },
    {
      "midi": 65,
      "hit": false,
      "t": 23048.109000000004,
      "d": 237.79795000000013,
      "v": 1
    },
    {
      "midi": 44,
      "hit": false,
      "t": 23272.187837499987,
      "d": 50.303412500001286,
      "v": 66
    },
    {
      "midi": 63,
      "hit": false,
      "t": 23272.187837499987,
      "d": 96.03378750000047,
      "v": 63
    },
    {
      "midi": 72,
      "hit": false,
      "t": 23292.004333333338,
      "d": 207.31103333333158,
      "v": 1
    },
    {
      "midi": 56,
      "hit": false,
      "t": 23292.004333333338,
      "d": 271.3335583333319,
      "v": 1
    },
    {
      "midi": 63,
      "hit": false,
      "t": 23292.004333333338,
      "d": 294.1987458333315,
      "v": 1
    },
    {
      "midi": 58,
      "hit": false,
      "t": 23413.951999999987,
      "d": 70.11990833333402,
      "v": 71
    },
    {
      "midi": 61,
      "hit": false,
      "t": 23413.951999999987,
      "d": 92.98509583333362,
      "v": 86
    },
    {
      "midi": 65,
      "hit": false,
      "t": 23413.951999999987,
      "d": 100.60682499999893,
      "v": 94
    },
    {
      "midi": 46,
      "hit": false,
      "t": 23413.951999999987,
      "d": 138.7154708333328,
      "v": 83
    },
    {
      "midi": 53,
      "hit": false,
      "t": 23535.899666666668,
      "d": 786.5624500000013,
      "v": 1
    },
    {
      "midi": 61,
      "hit": false,
      "t": 23535.899666666668,
      "d": 786.5624500000013,
      "v": 1
    },
    {
      "midi": 70,
      "hit": false,
      "t": 23535.899666666668,
      "d": 786.5624500000013,
      "v": 1
    },
    {
      "midi": 58,
      "hit": false,
      "t": 23779.794999999987,
      "d": 62.49817916666507,
      "v": 71
    },
    {
      "midi": 65,
      "hit": false,
      "t": 23779.794999999987,
      "d": 77.74163749999934,
      "v": 86
    },
    {
      "midi": 61,
      "hit": false,
      "t": 23779.794999999987,
      "d": 85.36336666666466,
      "v": 83
    },
    {
      "midi": 46,
      "hit": false,
      "t": 23779.794999999987,
      "d": 314.0152416666642,
      "v": 86
    },
    {
      "midi": 58,
      "hit": false,
      "t": 24145.637999999984,
      "d": 47.25472083333443,
      "v": 66
    },
    {
      "midi": 65,
      "hit": false,
      "t": 24145.637999999984,
      "d": 62.498179166668706,
      "v": 84
    },
    {
      "midi": 61,
      "hit": false,
      "t": 24145.637999999984,
      "d": 65.54687083333556,
      "v": 79
    },
    {
      "midi": 34,
      "hit": false,
      "t": 24145.637999999984,
      "d": 176.8241166666703,
      "v": 98
    },
    {
      "midi": 58,
      "hit": false,
      "t": 24511.48099999999,
      "d": 39.632991666665475,
      "v": 71
    },
    {
      "midi": 61,
      "hit": false,
      "t": 24511.48099999999,
      "d": 54.87644999999975,
      "v": 86
    },
    {
      "midi": 65,
      "hit": false,
      "t": 24511.48099999999,
      "d": 54.87644999999975,
      "v": 91
    },
    {
      "midi": 58,
      "hit": false,
      "t": 24877.32399999999,
      "d": 54.87644999999975,
      "v": 86
    },
    {
      "midi": 65,
      "hit": false,
      "t": 24877.32399999999,
      "d": 54.87644999999975,
      "v": 97
    },
    {
      "midi": 61,
      "hit": false,
      "t": 24877.32399999999,
      "d": 57.925141666666605,
      "v": 94
    },
    {
      "midi": 60,
      "hit": false,
      "t": 26340.69599999999,
      "d": 57.925141666666605,
      "v": 104
    },
    {
      "midi": 56,
      "hit": false,
      "t": 26340.69599999999,
      "d": 65.54687083333192,
      "v": 86
    },
    {
      "midi": 63,
      "hit": false,
      "t": 26340.69599999999,
      "d": 73.16859999999724,
      "v": 96
    },
    {
      "midi": 44,
      "hit": false,
      "t": 26340.69599999999,
      "d": 111.27724583333111,
      "v": 90
    },
    {
      "midi": 56,
      "hit": false,
      "t": 26340.696000000004,
      "d": 1823.1176166666664,
      "v": 1
    },
    {
      "midi": 63,
      "hit": false,
      "t": 26340.696000000004,
      "d": 1823.1176166666664,
      "v": 1
    },
    {
      "midi": 72,
      "hit": false,
      "t": 26340.696000000004,
      "d": 1823.1176166666664,
      "v": 1
    },
    {
      "midi": 60,
      "hit": false,
      "t": 26706.538999999986,
      "d": 54.87644999999975,
      "v": 79
    },
    {
      "midi": 56,
      "hit": false,
      "t": 26706.538999999986,
      "d": 62.49817916666507,
      "v": 58
    },
    {
      "midi": 63,
      "hit": false,
      "t": 26706.538999999986,
      "d": 62.49817916666507,
      "v": 58
    },
    {
      "midi": 44,
      "hit": false,
      "t": 26706.538999999986,
      "d": 329.2586999999985,
      "v": 83
    },
    {
      "midi": 60,
      "hit": false,
      "t": 27072.381999999983,
      "d": 47.25472083333443,
      "v": 104
    },
    {
      "midi": 56,
      "hit": false,
      "t": 27072.381999999983,
      "d": 62.498179166668706,
      "v": 81
    },
    {
      "midi": 63,
      "hit": false,
      "t": 27072.381999999983,
      "d": 62.498179166668706,
      "v": 84
    },
    {
      "midi": 32,
      "hit": false,
      "t": 27072.381999999983,
      "d": 248.46837083333594,
      "v": 83
    },
    {
      "midi": 60,
      "hit": false,
      "t": 27438.224999999988,
      "d": 42.68168333333233,
      "v": 79
    },
    {
      "midi": 56,
      "hit": false,
      "t": 27438.224999999988,
      "d": 54.87644999999975,
      "v": 56
    },
    {
      "midi": 63,
      "hit": false,
      "t": 27438.224999999988,
      "d": 57.925141666666605,
      "v": 58
    },
    {
      "midi": 60,
      "hit": false,
      "t": 27804.06799999999,
      "d": 54.87644999999975,
      "v": 81
    },
    {
      "midi": 56,
      "hit": false,
      "t": 27804.06799999999,
      "d": 62.49817916666507,
      "v": 61
    },
    {
      "midi": 63,
      "hit": false,
      "t": 27804.06799999999,
      "d": 73.16859999999724,
      "v": 64
    },
    {
      "midi": 60,
      "hit": false,
      "t": 28169.910999999986,
      "d": 62.49817916666507,
      "v": 97
    },
    {
      "midi": 63,
      "hit": false,
      "t": 28169.910999999986,
      "d": 77.74163749999934,
      "v": 76
    },
    {
      "midi": 56,
      "hit": false,
      "t": 28169.910999999986,
      "d": 80.7903291666662,
      "v": 74
    },
    {
      "midi": 53,
      "hit": false,
      "t": 28169.911000000004,
      "d": 359.74561666666705,
      "v": 1
    },
    {
      "midi": 63,
      "hit": false,
      "t": 28169.911000000004,
      "d": 359.74561666666705,
      "v": 1
    },
    {
      "midi": 70,
      "hit": false,
      "t": 28169.911000000004,
      "d": 359.74561666666705,
      "v": 1
    },
    {
      "midi": 60,
      "hit": false,
      "t": 28535.753999999986,
      "d": 85.3633666666683,
      "v": 110
    },
    {
      "midi": 56,
      "hit": false,
      "t": 28535.753999999986,
      "d": 96.03378750000047,
      "v": 94
    },
    {
      "midi": 63,
      "hit": false,
      "t": 28535.753999999986,
      "d": 96.03378750000047,
      "v": 88
    },
    {
      "midi": 56,
      "hit": false,
      "t": 28535.754000000004,
      "d": 1091.431616666665,
      "v": 1
    },
    {
      "midi": 63,
      "hit": false,
      "t": 28535.754000000004,
      "d": 1091.431616666665,
      "v": 1
    },
    {
      "midi": 68,
      "hit": false,
      "t": 28535.754000000004,
      "d": 1091.431616666665,
      "v": 1
    },
    {
      "midi": 60,
      "hit": false,
      "t": 28901.596999999987,
      "d": 70.11990833333402,
      "v": 89
    },
    {
      "midi": 56,
      "hit": false,
      "t": 28901.596999999987,
      "d": 77.74163749999934,
      "v": 66
    },
    {
      "midi": 63,
      "hit": false,
      "t": 28901.596999999987,
      "d": 92.98509583333362,
      "v": 66
    },
    {
      "midi": 44,
      "hit": false,
      "t": 29125.675837499988,
      "d": 73.16860000000088,
      "v": 79
    },
    {
      "midi": 63,
      "hit": false,
      "t": 29125.675837499988,
      "d": 92.98509583333362,
      "v": 59
    },
    {
      "midi": 58,
      "hit": false,
      "t": 29267.439999999988,
      "d": 73.16860000000088,
      "v": 86
    },
    {
      "midi": 61,
      "hit": false,
      "t": 29267.439999999988,
      "d": 80.7903291666662,
      "v": 96
    },
    {
      "midi": 65,
      "hit": false,
      "t": 29267.439999999988,
      "d": 92.98509583333362,
      "v": 107
    },
    {
      "midi": 46,
      "hit": false,
      "t": 29267.439999999988,
      "d": 115.85028333333321,
      "v": 79
    },
    {
      "midi": 58,
      "hit": false,
      "t": 29633.28299999999,
      "d": 54.87644999999975,
      "v": 66
    },
    {
      "midi": 65,
      "hit": false,
      "t": 29633.28299999999,
      "d": 57.925141666666605,
      "v": 84
    },
    {
      "midi": 61,
      "hit": false,
      "t": 29633.28299999999,
      "d": 73.16860000000088,
      "v": 79
    },
    {
      "midi": 46,
      "hit": false,
      "t": 29633.28299999999,
      "d": 321.6369708333332,
      "v": 83
    },
    {
      "midi": 56,
      "hit": false,
      "t": 29633.283000000003,
      "d": 176.82411666666667,
      "v": 1
    },
    {
      "midi": 61,
      "hit": false,
      "t": 29633.283000000003,
      "d": 176.82411666666667,
      "v": 1
    },
    {
      "midi": 70,
      "hit": false,
      "t": 29633.283000000003,
      "d": 176.82411666666667,
      "v": 1
    },
    {
      "midi": 53,
      "hit": false,
      "t": 29816.204500000003,
      "d": 542.6671166666674,
      "v": 1
    },
    {
      "midi": 61,
      "hit": false,
      "t": 29816.204500000003,
      "d": 542.6671166666674,
      "v": 1
    },
    {
      "midi": 70,
      "hit": false,
      "t": 29816.204500000003,
      "d": 542.6671166666674,
      "v": 1
    },
    {
      "midi": 58,
      "hit": false,
      "t": 29999.12599999999,
      "d": 50.303412500001286,
      "v": 64
    },
    {
      "midi": 65,
      "hit": false,
      "t": 29999.12599999999,
      "d": 62.498179166668706,
      "v": 82
    },
    {
      "midi": 61,
      "hit": false,
      "t": 29999.12599999999,
      "d": 73.16860000000088,
      "v": 79
    },
    {
      "midi": 34,
      "hit": false,
      "t": 29999.12599999999,
      "d": 210.35972500000207,
      "v": 103
    },
    {
      "midi": 58,
      "hit": false,
      "t": 30364.96899999999,
      "d": 47.25472083333443,
      "v": 81
    },
    {
      "midi": 65,
      "hit": false,
      "t": 30364.96899999999,
      "d": 50.303412500001286,
      "v": 101
    },
    {
      "midi": 61,
      "hit": false,
      "t": 30364.96899999999,
      "d": 57.925141666666605,
      "v": 93
    },
    {
      "midi": 51,
      "hit": false,
      "t": 30364.969000000005,
      "d": 359.74561666666705,
      "v": 1
    },
    {
      "midi": 61,
      "hit": false,
      "t": 30364.969000000005,
      "d": 359.74561666666705,
      "v": 1
    },
    {
      "midi": 68,
      "hit": false,
      "t": 30364.969000000005,
      "d": 359.74561666666705,
      "v": 1
    },
    {
      "midi": 58,
      "hit": false,
      "t": 30730.81199999999,
      "d": 57.925141666666605,
      "v": 91
    },
    {
      "midi": 65,
      "hit": false,
      "t": 30730.81199999999,
      "d": 65.54687083333192,
      "v": 109
    },
    {
      "midi": 61,
      "hit": false,
      "t": 30730.81199999999,
      "d": 73.16859999999724,
      "v": 103
    },
    {
      "midi": 56,
      "hit": false,
      "t": 30730.812000000005,
      "d": 359.74561666666705,
      "v": 1
    },
    {
      "midi": 61,
      "hit": false,
      "t": 30730.812000000005,
      "d": 359.74561666666705,
      "v": 1
    },
    {
      "midi": 72,
      "hit": false,
      "t": 30730.812000000005,
      "d": 359.74561666666705,
      "v": 1
    },
    {
      "midi": 58,
      "hit": false,
      "t": 31096.654999999988,
      "d": 65.54687083333192,
      "v": 62
    },
    {
      "midi": 65,
      "hit": false,
      "t": 31096.654999999988,
      "d": 77.74163749999934,
      "v": 86
    },
    {
      "midi": 61,
      "hit": false,
      "t": 31096.654999999988,
      "d": 85.36336666666466,
      "v": 74
    },
    {
      "midi": 53,
      "hit": false,
      "t": 31096.655000000006,
      "d": 359.74561666666705,
      "v": 1
    },
    {
      "midi": 61,
      "hit": false,
      "t": 31096.655000000006,
      "d": 359.74561666666705,
      "v": 1
    },
    {
      "midi": 70,
      "hit": false,
      "t": 31096.655000000006,
      "d": 359.74561666666705,
      "v": 1
    },
    {
      "midi": 58,
      "hit": false,
      "t": 31462.497999999985,
      "d": 54.87644999999975,
      "v": 91
    },
    {
      "midi": 65,
      "hit": false,
      "t": 31462.497999999985,
      "d": 57.925141666666605,
      "v": 109
    },
    {
      "midi": 61,
      "hit": false,
      "t": 31462.497999999985,
      "d": 62.49817916666507,
      "v": 99
    },
    {
      "midi": 56,
      "hit": false,
      "t": 31462.498000000007,
      "d": 359.74561666666705,
      "v": 1
    },
    {
      "midi": 61,
      "hit": false,
      "t": 31462.498000000007,
      "d": 359.74561666666705,
      "v": 1
    },
    {
      "midi": 68,
      "hit": false,
      "t": 31462.498000000007,
      "d": 359.74561666666705,
      "v": 1
    },
    {
      "midi": 65,
      "hit": false,
      "t": 31686.576837499983,
      "d": 57.925141666666605,
      "v": 63
    },
    {
      "midi": 58,
      "hit": false,
      "t": 31828.340999999982,
      "d": 50.303412500001286,
      "v": 64
    },
    {
      "midi": 65,
      "hit": false,
      "t": 31828.340999999982,
      "d": 57.925141666666605,
      "v": 84
    },
    {
      "midi": 61,
      "hit": false,
      "t": 31828.340999999982,
      "d": 62.49817916666507,
      "v": 74
    },
    {
      "midi": 53,
      "hit": false,
      "t": 31828.341000000008,
      "d": 359.74561666666705,
      "v": 1
    },
    {
      "midi": 61,
      "hit": false,
      "t": 31828.341000000008,
      "d": 359.74561666666705,
      "v": 1
    },
    {
      "midi": 65,
      "hit": false,
      "t": 31828.341000000008,
      "d": 359.74561666666705,
      "v": 1
    },
    {
      "midi": 65,
      "hit": false,
      "t": 32052.41983749998,
      "d": 57.925141666666605,
      "v": 63
    },
    {
      "midi": 46,
      "hit": false,
      "t": 32052.41983749998,
      "d": 80.7903291666662,
      "v": 86
    },
    {
      "midi": 60,
      "hit": false,
      "t": 32194.18399999998,
      "d": 57.925141666666605,
      "v": 104
    },
    {
      "midi": 56,
      "hit": false,
      "t": 32194.18399999998,
      "d": 65.54687083333192,
      "v": 86
    },
    {
      "midi": 63,
      "hit": false,
      "t": 32194.18399999998,
      "d": 73.16859999999724,
      "v": 96
    },
    {
      "midi": 44,
      "hit": false,
      "t": 32194.18399999998,
      "d": 179.87280833332989,
      "v": 83
    },
    {
      "midi": 56,
      "hit": false,
      "t": 32194.18400000001,
      "d": 1823.11761666667,
      "v": 1
    },
    {
      "midi": 63,
      "hit": false,
      "t": 32194.18400000001,
      "d": 1823.11761666667,
      "v": 1
    },
    {
      "midi": 72,
      "hit": false,
      "t": 32194.18400000001,
      "d": 1823.11761666667,
      "v": 1
    },
    {
      "midi": 60,
      "hit": false,
      "t": 32560.026999999976,
      "d": 54.87644999999975,
      "v": 79
    },
    {
      "midi": 56,
      "hit": false,
      "t": 32560.026999999976,
      "d": 62.49817916666507,
      "v": 58
    },
    {
      "midi": 63,
      "hit": false,
      "t": 32560.026999999976,
      "d": 62.49817916666507,
      "v": 58
    },
    {
      "midi": 44,
      "hit": false,
      "t": 32560.026999999976,
      "d": 301.8204749999968,
      "v": 94
    },
    {
      "midi": 60,
      "hit": false,
      "t": 32925.86999999997,
      "d": 47.25472083333443,
      "v": 104
    },
    {
      "midi": 56,
      "hit": false,
      "t": 32925.86999999997,
      "d": 62.49817916666507,
      "v": 81
    },
    {
      "midi": 63,
      "hit": false,
      "t": 32925.86999999997,
      "d": 62.49817916666507,
      "v": 84
    },
    {
      "midi": 32,
      "hit": false,
      "t": 32925.86999999997,
      "d": 256.09010000000126,
      "v": 83
    },
    {
      "midi": 60,
      "hit": false,
      "t": 33291.712999999974,
      "d": 42.68168333333597,
      "v": 79
    },
    {
      "midi": 56,
      "hit": false,
      "t": 33291.712999999974,
      "d": 54.87645000000339,
      "v": 56
    },
    {
      "midi": 63,
      "hit": false,
      "t": 33291.712999999974,
      "d": 57.925141666666605,
      "v": 58
    },
    {
      "midi": 60,
      "hit": false,
      "t": 33657.555999999975,
      "d": 54.87645000000339,
      "v": 81
    },
    {
      "midi": 56,
      "hit": false,
      "t": 33657.555999999975,
      "d": 62.498179166672344,
      "v": 61
    },
    {
      "midi": 63,
      "hit": false,
      "t": 33657.555999999975,
      "d": 73.16860000000452,
      "v": 64
    },
    {
      "midi": 60,
      "hit": false,
      "t": 34023.39899999998,
      "d": 62.49817916666507,
      "v": 97
    },
    {
      "midi": 63,
      "hit": false,
      "t": 34023.39899999998,
      "d": 77.7416374999957,
      "v": 76
    },
    {
      "midi": 56,
      "hit": false,
      "t": 34023.39899999998,
      "d": 80.79032916665892,
      "v": 74
    },
    {
      "midi": 53,
      "hit": false,
      "t": 34023.39900000001,
      "d": 359.74561666666705,
      "v": 1
    },
    {
      "midi": 63,
      "hit": false,
      "t": 34023.39900000001,
      "d": 359.74561666666705,
      "v": 1
    },
    {
      "midi": 70,
      "hit": false,
      "t": 34023.39900000001,
      "d": 359.74561666666705,
      "v": 1
    },
    {
      "midi": 60,
      "hit": false,
      "t": 34389.24199999998,
      "d": 85.36336666666466,
      "v": 110
    },
    {
      "midi": 56,
      "hit": false,
      "t": 34389.24199999998,
      "d": 96.03378749999683,
      "v": 94
    },
    {
      "midi": 63,
      "hit": false,
      "t": 34389.24199999998,
      "d": 96.03378749999683,
      "v": 88
    },
    {
      "midi": 56,
      "hit": false,
      "t": 34389.24200000001,
      "d": 359.74561666666705,
      "v": 1
    },
    {
      "midi": 63,
      "hit": false,
      "t": 34389.24200000001,
      "d": 359.74561666666705,
      "v": 1
    },
    {
      "midi": 68,
      "hit": false,
      "t": 34389.24200000001,
      "d": 359.74561666666705,
      "v": 1
    },
    {
      "midi": 63,
      "hit": false,
      "t": 34613.320837499974,
      "d": 96.03378749999683,
      "v": 63
    },
    {
      "midi": 60,
      "hit": false,
      "t": 34755.08499999997,
      "d": 70.11990833333402,
      "v": 89
    },
    {
      "midi": 56,
      "hit": false,
      "t": 34755.08499999997,
      "d": 77.74163750000298,
      "v": 66
    },
    {
      "midi": 63,
      "hit": false,
      "t": 34755.08499999997,
      "d": 92.98509583333362,
      "v": 66
    },
    {
      "midi": 53,
      "hit": false,
      "t": 34755.085000000014,
      "d": 237.79795000000013,
      "v": 1
    },
    {
      "midi": 63,
      "hit": false,
      "t": 34755.085000000014,
      "d": 237.79795000000013,
      "v": 1
    },
    {
      "midi": 65,
      "hit": false,
      "t": 34755.085000000014,
      "d": 237.79795000000013,
      "v": 1
    },
    {
      "midi": 44,
      "hit": false,
      "t": 34979.16383749997,
      "d": 50.30341249999765,
      "v": 66
    },
    {
      "midi": 63,
      "hit": false,
      "t": 34979.16383749997,
      "d": 96.03378749999683,
      "v": 63
    },
    {
      "midi": 72,
      "hit": false,
      "t": 34998.98033333335,
      "d": 207.31103333333158,
      "v": 1
    },
    {
      "midi": 56,
      "hit": false,
      "t": 34998.98033333335,
      "d": 271.3335583333319,
      "v": 1
    },
    {
      "midi": 63,
      "hit": false,
      "t": 34998.98033333335,
      "d": 294.1987458333315,
      "v": 1
    },
    {
      "midi": 58,
      "hit": false,
      "t": 35120.92799999996,
      "d": 70.11990833333402,
      "v": 71
    },
    {
      "midi": 61,
      "hit": false,
      "t": 35120.92799999996,
      "d": 92.98509583333362,
      "v": 86
    },
    {
      "midi": 65,
      "hit": false,
      "t": 35120.92799999996,
      "d": 100.60682500000257,
      "v": 94
    },
    {
      "midi": 46,
      "hit": false,
      "t": 35120.92799999996,
      "d": 138.7154708333328,
      "v": 83
    },
    {
      "midi": 53,
      "hit": false,
      "t": 35242.87566666668,
      "d": 786.5624499999976,
      "v": 1
    },
    {
      "midi": 61,
      "hit": false,
      "t": 35242.87566666668,
      "d": 786.5624499999976,
      "v": 1
    },
    {
      "midi": 70,
      "hit": false,
      "t": 35242.87566666668,
      "d": 786.5624499999976,
      "v": 1
    },
    {
      "midi": 58,
      "hit": false,
      "t": 35486.770999999964,
      "d": 62.49817916666507,
      "v": 71
    },
    {
      "midi": 65,
      "hit": false,
      "t": 35486.770999999964,
      "d": 77.7416374999957,
      "v": 86
    },
    {
      "midi": 61,
      "hit": false,
      "t": 35486.770999999964,
      "d": 85.36336666666466,
      "v": 83
    },
    {
      "midi": 46,
      "hit": false,
      "t": 35486.770999999964,
      "d": 314.01524166666786,
      "v": 86
    },
    {
      "midi": 58,
      "hit": false,
      "t": 35852.613999999965,
      "d": 47.25472083333443,
      "v": 66
    },
    {
      "midi": 65,
      "hit": false,
      "t": 35852.613999999965,
      "d": 62.49817916666507,
      "v": 84
    },
    {
      "midi": 61,
      "hit": false,
      "t": 35852.613999999965,
      "d": 65.54687083332828,
      "v": 79
    },
    {
      "midi": 34,
      "hit": false,
      "t": 35852.613999999965,
      "d": 176.82411666666303,
      "v": 98
    },
    {
      "midi": 58,
      "hit": false,
      "t": 36218.45699999996,
      "d": 39.632991666665475,
      "v": 71
    },
    {
      "midi": 61,
      "hit": false,
      "t": 36218.45699999996,
      "d": 54.87644999999611,
      "v": 86
    },
    {
      "midi": 65,
      "hit": false,
      "t": 36218.45699999996,
      "d": 54.87644999999611,
      "v": 91
    },
    {
      "midi": 58,
      "hit": false,
      "t": 36584.29999999995,
      "d": 54.87645000000339,
      "v": 86
    },
    {
      "midi": 65,
      "hit": false,
      "t": 36584.29999999995,
      "d": 54.87645000000339,
      "v": 97
    },
    {
      "midi": 61,
      "hit": false,
      "t": 36584.29999999995,
      "d": 57.925141666666605,
      "v": 94
    },
    {
      "midi": 60,
      "hit": false,
      "t": 49754.64799999995,
      "d": 57.925141666666605,
      "v": 104
    },
    {
      "midi": 56,
      "hit": false,
      "t": 49754.64799999995,
      "d": 65.54687083333556,
      "v": 86
    },
    {
      "midi": 63,
      "hit": false,
      "t": 49754.64799999995,
      "d": 73.16860000000452,
      "v": 96
    },
    {
      "midi": 44,
      "hit": false,
      "t": 49754.64799999995,
      "d": 111.27724583333475,
      "v": 90
    },
    {
      "midi": 60,
      "hit": false,
      "t": 50120.49099999995,
      "d": 54.87645000000339,
      "v": 79
    },
    {
      "midi": 56,
      "hit": false,
      "t": 50120.49099999995,
      "d": 62.498179166672344,
      "v": 58
    },
    {
      "midi": 63,
      "hit": false,
      "t": 50120.49099999995,
      "d": 62.498179166672344,
      "v": 58
    },
    {
      "midi": 44,
      "hit": false,
      "t": 50120.49099999995,
      "d": 329.2587000000058,
      "v": 83
    },
    {
      "midi": 60,
      "hit": false,
      "t": 50486.33399999996,
      "d": 47.25472083333443,
      "v": 104
    },
    {
      "midi": 56,
      "hit": false,
      "t": 50486.33399999996,
      "d": 62.49817916666507,
      "v": 81
    },
    {
      "midi": 63,
      "hit": false,
      "t": 50486.33399999996,
      "d": 62.49817916666507,
      "v": 84
    },
    {
      "midi": 32,
      "hit": false,
      "t": 50486.33399999996,
      "d": 248.4683708333323,
      "v": 83
    },
    {
      "midi": 60,
      "hit": false,
      "t": 50852.17699999996,
      "d": 42.68168333333597,
      "v": 79
    },
    {
      "midi": 56,
      "hit": false,
      "t": 50852.17699999996,
      "d": 54.87645000000339,
      "v": 56
    },
    {
      "midi": 63,
      "hit": false,
      "t": 50852.17699999996,
      "d": 57.925141666666605,
      "v": 58
    },
    {
      "midi": 60,
      "hit": false,
      "t": 51218.01999999996,
      "d": 54.87645000000339,
      "v": 81
    },
    {
      "midi": 56,
      "hit": false,
      "t": 51218.01999999996,
      "d": 62.498179166672344,
      "v": 61
    },
    {
      "midi": 63,
      "hit": false,
      "t": 51218.01999999996,
      "d": 73.16860000000452,
      "v": 64
    },
    {
      "midi": 60,
      "hit": false,
      "t": 51583.86299999997,
      "d": 62.49817916666507,
      "v": 97
    },
    {
      "midi": 63,
      "hit": false,
      "t": 51583.86299999997,
      "d": 77.7416374999957,
      "v": 76
    },
    {
      "midi": 56,
      "hit": false,
      "t": 51583.86299999997,
      "d": 80.79032916665892,
      "v": 74
    },
    {
      "midi": 60,
      "hit": false,
      "t": 51949.70599999996,
      "d": 85.36336666666466,
      "v": 110
    },
    {
      "midi": 56,
      "hit": false,
      "t": 51949.70599999996,
      "d": 96.03378749999683,
      "v": 94
    },
    {
      "midi": 63,
      "hit": false,
      "t": 51949.70599999996,
      "d": 96.03378749999683,
      "v": 88
    },
    {
      "midi": 60,
      "hit": false,
      "t": 52315.548999999955,
      "d": 70.11990833333402,
      "v": 89
    },
    {
      "midi": 56,
      "hit": false,
      "t": 52315.548999999955,
      "d": 77.74163750000298,
      "v": 66
    },
    {
      "midi": 63,
      "hit": false,
      "t": 52315.548999999955,
      "d": 92.98509583333362,
      "v": 66
    },
    {
      "midi": 44,
      "hit": false,
      "t": 52539.62783749995,
      "d": 73.16859999999724,
      "v": 79
    },
    {
      "midi": 63,
      "hit": false,
      "t": 52539.62783749995,
      "d": 92.98509583333362,
      "v": 59
    },
    {
      "midi": 58,
      "hit": false,
      "t": 52681.391999999956,
      "d": 73.16859999999724,
      "v": 86
    },
    {
      "midi": 61,
      "hit": false,
      "t": 52681.391999999956,
      "d": 80.7903291666662,
      "v": 96
    },
    {
      "midi": 65,
      "hit": false,
      "t": 52681.391999999956,
      "d": 92.98509583333362,
      "v": 107
    },
    {
      "midi": 46,
      "hit": false,
      "t": 52681.391999999956,
      "d": 115.85028333333321,
      "v": 79
    },
    {
      "midi": 58,
      "hit": false,
      "t": 53047.23499999996,
      "d": 54.87645000000339,
      "v": 66
    },
    {
      "midi": 65,
      "hit": false,
      "t": 53047.23499999996,
      "d": 57.925141666666605,
      "v": 84
    },
    {
      "midi": 61,
      "hit": false,
      "t": 53047.23499999996,
      "d": 73.16859999999724,
      "v": 79
    },
    {
      "midi": 46,
      "hit": false,
      "t": 53047.23499999996,
      "d": 321.63697083332954,
      "v": 83
    },
    {
      "midi": 58,
      "hit": false,
      "t": 53413.07799999995,
      "d": 50.30341249999765,
      "v": 64
    },
    {
      "midi": 65,
      "hit": false,
      "t": 53413.07799999995,
      "d": 62.49817916666507,
      "v": 82
    },
    {
      "midi": 61,
      "hit": false,
      "t": 53413.07799999995,
      "d": 73.16859999999724,
      "v": 79
    },
    {
      "midi": 34,
      "hit": false,
      "t": 53413.07799999995,
      "d": 210.3597249999948,
      "v": 103
    },
    {
      "midi": 58,
      "hit": false,
      "t": 53778.920999999944,
      "d": 47.25472083333443,
      "v": 81
    },
    {
      "midi": 65,
      "hit": false,
      "t": 53778.920999999944,
      "d": 50.30341249999765,
      "v": 101
    },
    {
      "midi": 61,
      "hit": false,
      "t": 53778.920999999944,
      "d": 57.925141666666605,
      "v": 93
    },
    {
      "midi": 58,
      "hit": false,
      "t": 54144.763999999945,
      "d": 57.925141666666605,
      "v": 91
    },
    {
      "midi": 65,
      "hit": false,
      "t": 54144.763999999945,
      "d": 65.54687083333556,
      "v": 109
    },
    {
      "midi": 61,
      "hit": false,
      "t": 54144.763999999945,
      "d": 73.16860000000452,
      "v": 103
    },
    {
      "midi": 58,
      "hit": false,
      "t": 54510.60699999995,
      "d": 65.54687083333556,
      "v": 62
    },
    {
      "midi": 65,
      "hit": false,
      "t": 54510.60699999995,
      "d": 77.74163750000298,
      "v": 86
    },
    {
      "midi": 61,
      "hit": false,
      "t": 54510.60699999995,
      "d": 85.36336666667194,
      "v": 74
    },
    {
      "midi": 58,
      "hit": false,
      "t": 54876.44999999996,
      "d": 54.87645000000339,
      "v": 91
    },
    {
      "midi": 65,
      "hit": false,
      "t": 54876.44999999996,
      "d": 57.925141666666605,
      "v": 109
    },
    {
      "midi": 61,
      "hit": false,
      "t": 54876.44999999996,
      "d": 62.49817916666507,
      "v": 99
    },
    {
      "midi": 65,
      "hit": false,
      "t": 55100.52883749996,
      "d": 57.925141666666605,
      "v": 63
    },
    {
      "midi": 58,
      "hit": false,
      "t": 55242.29299999996,
      "d": 50.30341249999765,
      "v": 64
    },
    {
      "midi": 65,
      "hit": false,
      "t": 55242.29299999996,
      "d": 57.925141666666605,
      "v": 84
    },
    {
      "midi": 61,
      "hit": false,
      "t": 55242.29299999996,
      "d": 62.49817916666507,
      "v": 74
    },
    {
      "midi": 65,
      "hit": false,
      "t": 55466.37183749996,
      "d": 57.925141666666605,
      "v": 63
    },
    {
      "midi": 46,
      "hit": false,
      "t": 55466.37183749996,
      "d": 80.7903291666662,
      "v": 86
    },
    {
      "midi": 60,
      "hit": false,
      "t": 55608.135999999955,
      "d": 57.925141666666605,
      "v": 104
    },
    {
      "midi": 56,
      "hit": false,
      "t": 55608.135999999955,
      "d": 65.54687083333556,
      "v": 86
    },
    {
      "midi": 63,
      "hit": false,
      "t": 55608.135999999955,
      "d": 73.16860000000452,
      "v": 96
    },
    {
      "midi": 44,
      "hit": false,
      "t": 55608.135999999955,
      "d": 179.8728083333408,
      "v": 83
    },
    {
      "midi": 60,
      "hit": false,
      "t": 55973.97899999996,
      "d": 54.87645000000339,
      "v": 79
    },
    {
      "midi": 56,
      "hit": false,
      "t": 55973.97899999996,
      "d": 62.498179166672344,
      "v": 58
    },
    {
      "midi": 63,
      "hit": false,
      "t": 55973.97899999996,
      "d": 62.498179166672344,
      "v": 58
    },
    {
      "midi": 44,
      "hit": false,
      "t": 55973.97899999996,
      "d": 301.8204750000077,
      "v": 94
    },
    {
      "midi": 60,
      "hit": false,
      "t": 56339.82199999997,
      "d": 47.25472083333443,
      "v": 104
    },
    {
      "midi": 56,
      "hit": false,
      "t": 56339.82199999997,
      "d": 62.49817916666507,
      "v": 81
    },
    {
      "midi": 63,
      "hit": false,
      "t": 56339.82199999997,
      "d": 62.49817916666507,
      "v": 84
    },
    {
      "midi": 32,
      "hit": false,
      "t": 56339.82199999997,
      "d": 256.09010000000126,
      "v": 83
    },
    {
      "midi": 60,
      "hit": false,
      "t": 56705.66499999997,
      "d": 42.68168333333597,
      "v": 79
    },
    {
      "midi": 56,
      "hit": false,
      "t": 56705.66499999997,
      "d": 54.87645000000339,
      "v": 56
    },
    {
      "midi": 63,
      "hit": false,
      "t": 56705.66499999997,
      "d": 57.925141666666605,
      "v": 58
    },
    {
      "midi": 60,
      "hit": false,
      "t": 57071.50799999997,
      "d": 54.87645000000339,
      "v": 81
    },
    {
      "midi": 56,
      "hit": false,
      "t": 57071.50799999997,
      "d": 62.498179166672344,
      "v": 61
    },
    {
      "midi": 63,
      "hit": false,
      "t": 57071.50799999997,
      "d": 73.16860000000452,
      "v": 64
    },
    {
      "midi": 60,
      "hit": false,
      "t": 57437.35099999998,
      "d": 62.49817916666507,
      "v": 97
    },
    {
      "midi": 63,
      "hit": false,
      "t": 57437.35099999998,
      "d": 77.7416374999957,
      "v": 76
    },
    {
      "midi": 56,
      "hit": false,
      "t": 57437.35099999998,
      "d": 80.79032916665892,
      "v": 74
    },
    {
      "midi": 60,
      "hit": false,
      "t": 57803.193999999974,
      "d": 85.36336666666466,
      "v": 110
    },
    {
      "midi": 56,
      "hit": false,
      "t": 57803.193999999974,
      "d": 96.03378749999683,
      "v": 94
    },
    {
      "midi": 63,
      "hit": false,
      "t": 57803.193999999974,
      "d": 96.03378749999683,
      "v": 88
    },
    {
      "midi": 63,
      "hit": false,
      "t": 58027.27283749997,
      "d": 96.03378749999683,
      "v": 63
    },
    {
      "midi": 60,
      "hit": false,
      "t": 58169.03699999997,
      "d": 70.11990833333402,
      "v": 89
    },
    {
      "midi": 56,
      "hit": false,
      "t": 58169.03699999997,
      "d": 77.74163750000298,
      "v": 66
    },
    {
      "midi": 63,
      "hit": false,
      "t": 58169.03699999997,
      "d": 92.98509583333362,
      "v": 66
    },
    {
      "midi": 44,
      "hit": false,
      "t": 58393.115837499965,
      "d": 50.30341249999765,
      "v": 66
    },
    {
      "midi": 63,
      "hit": false,
      "t": 58393.115837499965,
      "d": 96.03378749999683,
      "v": 63
    },
    {
      "midi": 58,
      "hit": false,
      "t": 58534.87999999996,
      "d": 70.11990833333402,
      "v": 71
    },
    {
      "midi": 61,
      "hit": false,
      "t": 58534.87999999996,
      "d": 92.98509583333362,
      "v": 86
    },
    {
      "midi": 65,
      "hit": false,
      "t": 58534.87999999996,
      "d": 100.60682500000257,
      "v": 94
    },
    {
      "midi": 46,
      "hit": false,
      "t": 58534.87999999996,
      "d": 138.7154708333328,
      "v": 83
    },
    {
      "midi": 58,
      "hit": false,
      "t": 58900.72299999996,
      "d": 62.49817916666507,
      "v": 71
    },
    {
      "midi": 65,
      "hit": false,
      "t": 58900.72299999996,
      "d": 77.7416374999957,
      "v": 86
    },
    {
      "midi": 61,
      "hit": false,
      "t": 58900.72299999996,
      "d": 85.36336666666466,
      "v": 83
    },
    {
      "midi": 46,
      "hit": false,
      "t": 58900.72299999996,
      "d": 314.01524166666786,
      "v": 86
    },
    {
      "midi": 58,
      "hit": false,
      "t": 59266.56599999996,
      "d": 47.25472083333443,
      "v": 66
    },
    {
      "midi": 65,
      "hit": false,
      "t": 59266.56599999996,
      "d": 62.49817916666507,
      "v": 84
    },
    {
      "midi": 61,
      "hit": false,
      "t": 59266.56599999996,
      "d": 65.54687083332828,
      "v": 79
    },
    {
      "midi": 34,
      "hit": false,
      "t": 59266.56599999996,
      "d": 176.82411666666303,
      "v": 98
    },
    {
      "midi": 58,
      "hit": false,
      "t": 59632.408999999956,
      "d": 39.632991666665475,
      "v": 71
    },
    {
      "midi": 61,
      "hit": false,
      "t": 59632.408999999956,
      "d": 54.87644999999611,
      "v": 86
    },
    {
      "midi": 65,
      "hit": false,
      "t": 59632.408999999956,
      "d": 54.87644999999611,
      "v": 91
    },
    {
      "midi": 58,
      "hit": false,
      "t": 59998.25199999995,
      "d": 54.87645000000339,
      "v": 86
    },
    {
      "midi": 65,
      "hit": false,
      "t": 59998.25199999995,
      "d": 54.87645000000339,
      "v": 97
    },
    {
      "midi": 61,
      "hit": false,
      "t": 59998.25199999995,
      "d": 57.925141666666605,
      "v": 94
    },
    {
      "midi": 63,
      "hit": false,
      "t": 61461.62399999995,
      "d": 73.16859999999724,
      "v": 90
    },
    {
      "midi": 60,
      "hit": false,
      "t": 61461.62399999995,
      "d": 85.36336666666466,
      "v": 86
    },
    {
      "midi": 58,
      "hit": false,
      "t": 61461.62399999995,
      "d": 88.41205833332788,
      "v": 78
    },
    {
      "midi": 67,
      "hit": false,
      "t": 61461.62399999995,
      "d": 88.41205833332788,
      "v": 78
    },
    {
      "midi": 63,
      "hit": false,
      "t": 61464.672691666674,
      "d": 2885.5866625000053,
      "v": 1
    },
    {
      "midi": 60,
      "hit": false,
      "t": 61469.24572916667,
      "d": 2928.2683458333413,
      "v": 1
    },
    {
      "midi": 67,
      "hit": false,
      "t": 61469.24572916667,
      "d": 2928.2683458333413,
      "v": 1
    },
    {
      "midi": 70,
      "hit": false,
      "t": 61469.24572916667,
      "d": 2928.2683458333413,
      "v": 1
    },
    {
      "midi": 63,
      "hit": false,
      "t": 61827.466999999946,
      "d": 85.36336666666466,
      "v": 76
    },
    {
      "midi": 60,
      "hit": false,
      "t": 61827.466999999946,
      "d": 96.03378749999683,
      "v": 80
    },
    {
      "midi": 58,
      "hit": false,
      "t": 61827.466999999946,
      "d": 100.6068249999953,
      "v": 80
    },
    {
      "midi": 67,
      "hit": false,
      "t": 61827.466999999946,
      "d": 100.6068249999953,
      "v": 91
    },
    {
      "midi": 58,
      "hit": false,
      "t": 62193.30999999994,
      "d": 70.11990833333402,
      "v": 89
    },
    {
      "midi": 67,
      "hit": false,
      "t": 62193.30999999994,
      "d": 70.11990833333402,
      "v": 89
    },
    {
      "midi": 60,
      "hit": false,
      "t": 62193.30999999994,
      "d": 80.7903291666662,
      "v": 89
    },
    {
      "midi": 63,
      "hit": false,
      "t": 62193.30999999994,
      "d": 80.7903291666662,
      "v": 86
    },
    {
      "midi": 58,
      "hit": false,
      "t": 62559.15299999994,
      "d": 70.11990833333402,
      "v": 89
    },
    {
      "midi": 67,
      "hit": false,
      "t": 62559.15299999994,
      "d": 70.11990833333402,
      "v": 89
    },
    {
      "midi": 63,
      "hit": false,
      "t": 62559.15299999994,
      "d": 80.7903291666662,
      "v": 83
    },
    {
      "midi": 60,
      "hit": false,
      "t": 62559.15299999994,
      "d": 88.41205833333515,
      "v": 91
    },
    {
      "midi": 58,
      "hit": false,
      "t": 62924.99599999994,
      "d": 80.7903291666662,
      "v": 89
    },
    {
      "midi": 67,
      "hit": false,
      "t": 62924.99599999994,
      "d": 80.7903291666662,
      "v": 89
    },
    {
      "midi": 63,
      "hit": false,
      "t": 62924.99599999994,
      "d": 85.36336666666466,
      "v": 83
    },
    {
      "midi": 60,
      "hit": false,
      "t": 62924.99599999994,
      "d": 100.6068249999953,
      "v": 89
    },
    {
      "midi": 58,
      "hit": false,
      "t": 63290.838999999934,
      "d": 88.41205833333515,
      "v": 84
    },
    {
      "midi": 63,
      "hit": false,
      "t": 63290.838999999934,
      "d": 88.41205833333515,
      "v": 76
    },
    {
      "midi": 67,
      "hit": false,
      "t": 63290.838999999934,
      "d": 88.41205833333515,
      "v": 84
    },
    {
      "midi": 60,
      "hit": false,
      "t": 63290.838999999934,
      "d": 100.60682500000257,
      "v": 84
    },
    {
      "midi": 63,
      "hit": false,
      "t": 63656.681999999935,
      "d": 92.98509583333362,
      "v": 79
    },
    {
      "midi": 60,
      "hit": false,
      "t": 63656.681999999935,
      "d": 111.27724583333475,
      "v": 82
    },
    {
      "midi": 58,
      "hit": false,
      "t": 63656.681999999935,
      "d": 115.85028333333321,
      "v": 80
    },
    {
      "midi": 67,
      "hit": false,
      "t": 63656.681999999935,
      "d": 115.85028333333321,
      "v": 80
    },
    {
      "midi": 58,
      "hit": false,
      "t": 64022.524999999936,
      "d": 103.65551666666579,
      "v": 86
    },
    {
      "midi": 60,
      "hit": false,
      "t": 64022.524999999936,
      "d": 123.47201250000217,
      "v": 91
    },
    {
      "midi": 63,
      "hit": false,
      "t": 64022.524999999936,
      "d": 123.47201250000217,
      "v": 90
    },
    {
      "midi": 67,
      "hit": false,
      "t": 64022.524999999936,
      "d": 126.52070416666538,
      "v": 86
    },
    {
      "midi": 63,
      "hit": false,
      "t": 64246.60383749993,
      "d": 80.7903291666662,
      "v": 69
    },
    {
      "midi": 67,
      "hit": false,
      "t": 64246.60383749993,
      "d": 92.98509583333362,
      "v": 73
    },
    {
      "midi": 61,
      "hit": false,
      "t": 64388.36799999994,
      "d": 103.65551666666579,
      "v": 90
    },
    {
      "midi": 65,
      "hit": false,
      "t": 64388.36799999994,
      "d": 108.22855416666425,
      "v": 80
    },
    {
      "midi": 58,
      "hit": false,
      "t": 64388.36799999994,
      "d": 118.89897499999643,
      "v": 94
    },
    {
      "midi": 61,
      "hit": false,
      "t": 64403.61145833335,
      "d": 2905.40315833332,
      "v": 1
    },
    {
      "midi": 65,
      "hit": false,
      "t": 64403.61145833335,
      "d": 2905.40315833332,
      "v": 1
    },
    {
      "midi": 70,
      "hit": false,
      "t": 64403.61145833335,
      "d": 2905.40315833332,
      "v": 1
    },
    {
      "midi": 61,
      "hit": false,
      "t": 64754.21099999993,
      "d": 100.60682500000257,
      "v": 86
    },
    {
      "midi": 65,
      "hit": false,
      "t": 64754.21099999993,
      "d": 131.09374166667112,
      "v": 86
    },
    {
      "midi": 58,
      "hit": false,
      "t": 64754.21099999993,
      "d": 138.71547083334008,
      "v": 90
    },
    {
      "midi": 65,
      "hit": false,
      "t": 65120.05399999994,
      "d": 92.98509583333362,
      "v": 80
    },
    {
      "midi": 61,
      "hit": false,
      "t": 65120.05399999994,
      "d": 111.27724583333475,
      "v": 86
    },
    {
      "midi": 58,
      "hit": false,
      "t": 65120.05399999994,
      "d": 115.85028333333321,
      "v": 86
    },
    {
      "midi": 65,
      "hit": false,
      "t": 65485.89699999994,
      "d": 88.41205833332788,
      "v": 91
    },
    {
      "midi": 61,
      "hit": false,
      "t": 65485.89699999994,
      "d": 103.65551666666579,
      "v": 90
    },
    {
      "midi": 58,
      "hit": false,
      "t": 65485.89699999994,
      "d": 111.27724583333475,
      "v": 94
    },
    {
      "midi": 65,
      "hit": false,
      "t": 65851.73999999995,
      "d": 100.6068249999953,
      "v": 89
    },
    {
      "midi": 61,
      "hit": false,
      "t": 65851.73999999995,
      "d": 123.47201250000217,
      "v": 86
    },
    {
      "midi": 58,
      "hit": false,
      "t": 65851.73999999995,
      "d": 126.52070416667266,
      "v": 86
    },
    {
      "midi": 65,
      "hit": false,
      "t": 66217.58299999996,
      "d": 108.22855416666425,
      "v": 82
    },
    {
      "midi": 61,
      "hit": false,
      "t": 66217.58299999996,
      "d": 126.5207041666581,
      "v": 79
    },
    {
      "midi": 58,
      "hit": false,
      "t": 66217.58299999996,
      "d": 131.09374166665657,
      "v": 83
    },
    {
      "midi": 65,
      "hit": false,
      "t": 66583.42599999995,
      "d": 88.41205833332788,
      "v": 91
    },
    {
      "midi": 58,
      "hit": false,
      "t": 66583.42599999995,
      "d": 115.85028333333321,
      "v": 90
    },
    {
      "midi": 61,
      "hit": false,
      "t": 66583.42599999995,
      "d": 115.85028333333321,
      "v": 90
    },
    {
      "midi": 65,
      "hit": false,
      "t": 66949.26899999994,
      "d": 85.36336666667194,
      "v": 86
    },
    {
      "midi": 58,
      "hit": false,
      "t": 66949.26899999994,
      "d": 118.8989750000037,
      "v": 90
    },
    {
      "midi": 61,
      "hit": false,
      "t": 66949.26899999994,
      "d": 138.71547083334008,
      "v": 86
    },
    {
      "midi": 58,
      "hit": false,
      "t": 67173.34783749995,
      "d": 85.36336666667194,
      "v": 86
    },
    {
      "midi": 61,
      "hit": false,
      "t": 67173.34783749995,
      "d": 138.71547083334008,
      "v": 86
    },
    {
      "midi": 58,
      "hit": false,
      "t": 67315.11199999996,
      "d": 88.41205833332788,
      "v": 78
    },
    {
      "midi": 63,
      "hit": false,
      "t": 67315.11199999996,
      "d": 88.41205833332788,
      "v": 94
    },
    {
      "midi": 67,
      "hit": false,
      "t": 67315.11199999996,
      "d": 103.65551666666579,
      "v": 94
    },
    {
      "midi": 60,
      "hit": false,
      "t": 67315.11199999996,
      "d": 108.22855416666425,
      "v": 93
    },
    {
      "midi": 60,
      "hit": false,
      "t": 67315.112,
      "d": 2920.6466166666505,
      "v": 1
    },
    {
      "midi": 63,
      "hit": false,
      "t": 67315.112,
      "d": 2920.6466166666505,
      "v": 1
    },
    {
      "midi": 67,
      "hit": false,
      "t": 67315.112,
      "d": 2920.6466166666505,
      "v": 1
    },
    {
      "midi": 70,
      "hit": false,
      "t": 67315.112,
      "d": 2920.6466166666505,
      "v": 1
    },
    {
      "midi": 67,
      "hit": false,
      "t": 67680.95499999996,
      "d": 153.95892916666344,
      "v": 89
    },
    {
      "midi": 63,
      "hit": false,
      "t": 67680.95499999996,
      "d": 157.00762083333393,
      "v": 94
    },
    {
      "midi": 60,
      "hit": false,
      "t": 67680.95499999996,
      "d": 161.5806583333324,
      "v": 94
    },
    {
      "midi": 58,
      "hit": false,
      "t": 67680.95499999996,
      "d": 176.8241166666703,
      "v": 80
    },
    {
      "midi": 58,
      "hit": false,
      "t": 68046.79799999997,
      "d": 70.11990833333402,
      "v": 89
    },
    {
      "midi": 63,
      "hit": false,
      "t": 68046.79799999997,
      "d": 108.22855416666425,
      "v": 86
    },
    {
      "midi": 60,
      "hit": false,
      "t": 68046.79799999997,
      "d": 115.85028333333321,
      "v": 82
    },
    {
      "midi": 67,
      "hit": false,
      "t": 68046.79799999997,
      "d": 118.8989750000037,
      "v": 76
    },
    {
      "midi": 58,
      "hit": false,
      "t": 68412.64099999997,
      "d": 70.11990833333402,
      "v": 89
    },
    {
      "midi": 63,
      "hit": false,
      "t": 68412.64099999997,
      "d": 96.03378749999683,
      "v": 86
    },
    {
      "midi": 60,
      "hit": false,
      "t": 68412.64099999997,
      "d": 103.65551666666579,
      "v": 89
    },
    {
      "midi": 67,
      "hit": false,
      "t": 68412.64099999997,
      "d": 118.8989750000037,
      "v": 74
    },
    {
      "midi": 58,
      "hit": false,
      "t": 68778.48399999998,
      "d": 80.79032916667347,
      "v": 89
    },
    {
      "midi": 63,
      "hit": false,
      "t": 68778.48399999998,
      "d": 115.85028333333321,
      "v": 90
    },
    {
      "midi": 67,
      "hit": false,
      "t": 68778.48399999998,
      "d": 115.85028333333321,
      "v": 86
    },
    {
      "midi": 60,
      "hit": false,
      "t": 68778.48399999998,
      "d": 123.47201250000217,
      "v": 89
    },
    {
      "midi": 58,
      "hit": false,
      "t": 69144.32699999999,
      "d": 88.41205833332788,
      "v": 84
    },
    {
      "midi": 67,
      "hit": false,
      "t": 69144.32699999999,
      "d": 111.27724583333475,
      "v": 78
    },
    {
      "midi": 60,
      "hit": false,
      "t": 69144.32699999999,
      "d": 131.09374166667112,
      "v": 82
    },
    {
      "midi": 63,
      "hit": false,
      "t": 69144.32699999999,
      "d": 131.09374166667112,
      "v": 83
    },
    {
      "midi": 67,
      "hit": false,
      "t": 69510.17,
      "d": 111.27724583333475,
      "v": 86
    },
    {
      "midi": 58,
      "hit": false,
      "t": 69510.17,
      "d": 115.85028333333321,
      "v": 80
    },
    {
      "midi": 63,
      "hit": false,
      "t": 69510.17,
      "d": 123.47201250000217,
      "v": 90
    },
    {
      "midi": 60,
      "hit": false,
      "t": 69510.17,
      "d": 126.52070416667266,
      "v": 91
    },
    {
      "midi": 58,
      "hit": false,
      "t": 69876.013,
      "d": 103.65551666666579,
      "v": 86
    },
    {
      "midi": 63,
      "hit": false,
      "t": 69876.013,
      "d": 126.52070416667266,
      "v": 86
    },
    {
      "midi": 60,
      "hit": false,
      "t": 69876.013,
      "d": 131.09374166667112,
      "v": 89
    },
    {
      "midi": 67,
      "hit": false,
      "t": 69876.013,
      "d": 134.14243333334161,
      "v": 86
    },
    {
      "midi": 68,
      "hit": false,
      "t": 70241.85599999997,
      "d": 748.4538041666674,
      "v": 1
    },
    {
      "midi": 65,
      "hit": false,
      "t": 70241.85600000001,
      "d": 111.27724583333475,
      "v": 91
    },
    {
      "midi": 61,
      "hit": false,
      "t": 70241.85600000001,
      "d": 118.8989750000037,
      "v": 98
    },
    {
      "midi": 58,
      "hit": false,
      "t": 70241.85600000001,
      "d": 126.52070416667266,
      "v": 92
    },
    {
      "midi": 65,
      "hit": false,
      "t": 70607.69900000002,
      "d": 141.76416249999602,
      "v": 82
    },
    {
      "midi": 61,
      "hit": false,
      "t": 70607.69900000002,
      "d": 149.38589166666497,
      "v": 90
    },
    {
      "midi": 58,
      "hit": false,
      "t": 70607.69900000002,
      "d": 153.95892916666344,
      "v": 90
    },
    {
      "midi": 67,
      "hit": false,
      "t": 70996.40718749996,
      "d": 733.2103458333295,
      "v": 1
    },
    {
      "midi": 65,
      "hit": false,
      "t": 71735.71491666662,
      "d": 751.5024958333379,
      "v": 1
    },
    {
      "midi": 63,
      "hit": false,
      "t": 72493.31479583328,
      "d": 667.6634749999939,
      "v": 1
    },
    {
      "midi": 56,
      "hit": false,
      "t": 73168.59999999995,
      "d": 1823.11761666667,
      "v": 1
    },
    {
      "midi": 63,
      "hit": false,
      "t": 73168.59999999995,
      "d": 1823.11761666667,
      "v": 1
    },
    {
      "midi": 72,
      "hit": false,
      "t": 73168.59999999995,
      "d": 1823.11761666667,
      "v": 1
    },
    {
      "midi": 60,
      "hit": false,
      "t": 73168.60000000002,
      "d": 57.925141666666605,
      "v": 104
    },
    {
      "midi": 56,
      "hit": false,
      "t": 73168.60000000002,
      "d": 65.54687083333556,
      "v": 86
    },
    {
      "midi": 63,
      "hit": false,
      "t": 73168.60000000002,
      "d": 73.16860000000452,
      "v": 96
    },
    {
      "midi": 44,
      "hit": false,
      "t": 73168.60000000002,
      "d": 111.27724583333475,
      "v": 90
    },
    {
      "midi": 60,
      "hit": false,
      "t": 73534.44300000003,
      "d": 54.87644999999611,
      "v": 79
    },
    {
      "midi": 56,
      "hit": false,
      "t": 73534.44300000003,
      "d": 62.49817916666507,
      "v": 58
    },
    {
      "midi": 63,
      "hit": false,
      "t": 73534.44300000003,
      "d": 62.49817916666507,
      "v": 58
    },
    {
      "midi": 44,
      "hit": false,
      "t": 73534.44300000003,
      "d": 329.2586999999912,
      "v": 83
    },
    {
      "midi": 60,
      "hit": false,
      "t": 73900.28600000002,
      "d": 47.254720833327156,
      "v": 104
    },
    {
      "midi": 56,
      "hit": false,
      "t": 73900.28600000002,
      "d": 62.49817916666507,
      "v": 81
    },
    {
      "midi": 63,
      "hit": false,
      "t": 73900.28600000002,
      "d": 62.49817916666507,
      "v": 84
    },
    {
      "midi": 32,
      "hit": false,
      "t": 73900.28600000002,
      "d": 248.4683708333323,
      "v": 83
    },
    {
      "midi": 60,
      "hit": false,
      "t": 74266.12900000002,
      "d": 42.68168333332869,
      "v": 79
    },
    {
      "midi": 56,
      "hit": false,
      "t": 74266.12900000002,
      "d": 54.87644999999611,
      "v": 56
    },
    {
      "midi": 63,
      "hit": false,
      "t": 74266.12900000002,
      "d": 57.925141666666605,
      "v": 58
    },
    {
      "midi": 60,
      "hit": false,
      "t": 74631.97200000001,
      "d": 54.87644999999611,
      "v": 81
    },
    {
      "midi": 56,
      "hit": false,
      "t": 74631.97200000001,
      "d": 62.49817916666507,
      "v": 61
    },
    {
      "midi": 63,
      "hit": false,
      "t": 74631.97200000001,
      "d": 73.16860000000452,
      "v": 64
    },
    {
      "midi": 53,
      "hit": false,
      "t": 74997.81499999994,
      "d": 359.74561666666705,
      "v": 1
    },
    {
      "midi": 63,
      "hit": false,
      "t": 74997.81499999994,
      "d": 359.74561666666705,
      "v": 1
    },
    {
      "midi": 70,
      "hit": false,
      "t": 74997.81499999994,
      "d": 359.74561666666705,
      "v": 1
    },
    {
      "midi": 60,
      "hit": false,
      "t": 74997.81500000002,
      "d": 62.49817916666507,
      "v": 97
    },
    {
      "midi": 63,
      "hit": false,
      "t": 74997.81500000002,
      "d": 77.74163750000298,
      "v": 76
    },
    {
      "midi": 56,
      "hit": false,
      "t": 74997.81500000002,
      "d": 80.79032916667347,
      "v": 74
    },
    {
      "midi": 56,
      "hit": false,
      "t": 75363.65799999994,
      "d": 1091.4316166666686,
      "v": 1
    },
    {
      "midi": 63,
      "hit": false,
      "t": 75363.65799999994,
      "d": 1091.4316166666686,
      "v": 1
    },
    {
      "midi": 68,
      "hit": false,
      "t": 75363.65799999994,
      "d": 1091.4316166666686,
      "v": 1
    },
    {
      "midi": 60,
      "hit": false,
      "t": 75363.65800000002,
      "d": 85.36336666667194,
      "v": 110
    },
    {
      "midi": 56,
      "hit": false,
      "t": 75363.65800000002,
      "d": 96.03378750001139,
      "v": 94
    },
    {
      "midi": 63,
      "hit": false,
      "t": 75363.65800000002,
      "d": 96.03378750001139,
      "v": 88
    },
    {
      "midi": 60,
      "hit": false,
      "t": 75729.50100000003,
      "d": 70.11990833333402,
      "v": 89
    },
    {
      "midi": 56,
      "hit": false,
      "t": 75729.50100000003,
      "d": 77.74163750000298,
      "v": 66
    },
    {
      "midi": 63,
      "hit": false,
      "t": 75729.50100000003,
      "d": 92.98509583334089,
      "v": 66
    },
    {
      "midi": 44,
      "hit": false,
      "t": 75953.57983750004,
      "d": 73.16860000000452,
      "v": 79
    },
    {
      "midi": 63,
      "hit": false,
      "t": 75953.57983750004,
      "d": 92.98509583334089,
      "v": 59
    },
    {
      "midi": 58,
      "hit": false,
      "t": 76095.34400000006,
      "d": 73.16860000000452,
      "v": 86
    },
    {
      "midi": 61,
      "hit": false,
      "t": 76095.34400000006,
      "d": 80.79032916667347,
      "v": 96
    },
    {
      "midi": 65,
      "hit": false,
      "t": 76095.34400000006,
      "d": 92.98509583334089,
      "v": 107
    },
    {
      "midi": 46,
      "hit": false,
      "t": 76095.34400000006,
      "d": 115.85028333334776,
      "v": 79
    },
    {
      "midi": 56,
      "hit": false,
      "t": 76461.18699999993,
      "d": 176.8241166666703,
      "v": 1
    },
    {
      "midi": 61,
      "hit": false,
      "t": 76461.18699999993,
      "d": 176.8241166666703,
      "v": 1
    },
    {
      "midi": 70,
      "hit": false,
      "t": 76461.18699999993,
      "d": 176.8241166666703,
      "v": 1
    },
    {
      "midi": 58,
      "hit": false,
      "t": 76461.18700000006,
      "d": 54.87644999999611,
      "v": 66
    },
    {
      "midi": 65,
      "hit": false,
      "t": 76461.18700000006,
      "d": 57.925141666666605,
      "v": 84
    },
    {
      "midi": 61,
      "hit": false,
      "t": 76461.18700000006,
      "d": 73.16860000000452,
      "v": 79
    },
    {
      "midi": 46,
      "hit": false,
      "t": 76461.18700000006,
      "d": 321.6369708333368,
      "v": 83
    },
    {
      "midi": 53,
      "hit": false,
      "t": 76644.10849999993,
      "d": 542.6671166666638,
      "v": 1
    },
    {
      "midi": 61,
      "hit": false,
      "t": 76644.10849999993,
      "d": 542.6671166666638,
      "v": 1
    },
    {
      "midi": 70,
      "hit": false,
      "t": 76644.10849999993,
      "d": 542.6671166666638,
      "v": 1
    },
    {
      "midi": 58,
      "hit": false,
      "t": 76827.03000000007,
      "d": 50.30341249999765,
      "v": 64
    },
    {
      "midi": 65,
      "hit": false,
      "t": 76827.03000000007,
      "d": 62.49817916666507,
      "v": 82
    },
    {
      "midi": 61,
      "hit": false,
      "t": 76827.03000000007,
      "d": 73.16860000000452,
      "v": 79
    },
    {
      "midi": 34,
      "hit": false,
      "t": 76827.03000000007,
      "d": 210.35972500000207,
      "v": 103
    },
    {
      "midi": 51,
      "hit": false,
      "t": 77192.87299999992,
      "d": 359.74561666666705,
      "v": 1
    },
    {
      "midi": 61,
      "hit": false,
      "t": 77192.87299999992,
      "d": 359.74561666666705,
      "v": 1
    },
    {
      "midi": 68,
      "hit": false,
      "t": 77192.87299999992,
      "d": 359.74561666666705,
      "v": 1
    },
    {
      "midi": 58,
      "hit": false,
      "t": 77192.87300000008,
      "d": 47.254720833327156,
      "v": 81
    },
    {
      "midi": 65,
      "hit": false,
      "t": 77192.87300000008,
      "d": 50.30341249999765,
      "v": 101
    },
    {
      "midi": 61,
      "hit": false,
      "t": 77192.87300000008,
      "d": 57.925141666666605,
      "v": 93
    },
    {
      "midi": 56,
      "hit": false,
      "t": 77558.71599999991,
      "d": 359.74561666666705,
      "v": 1
    },
    {
      "midi": 61,
      "hit": false,
      "t": 77558.71599999991,
      "d": 359.74561666666705,
      "v": 1
    },
    {
      "midi": 72,
      "hit": false,
      "t": 77558.71599999991,
      "d": 359.74561666666705,
      "v": 1
    },
    {
      "midi": 58,
      "hit": false,
      "t": 77558.71600000007,
      "d": 57.925141666666605,
      "v": 91
    },
    {
      "midi": 65,
      "hit": false,
      "t": 77558.71600000007,
      "d": 65.54687083333556,
      "v": 109
    },
    {
      "midi": 61,
      "hit": false,
      "t": 77558.71600000007,
      "d": 73.16860000000452,
      "v": 103
    },
    {
      "midi": 53,
      "hit": false,
      "t": 77924.5589999999,
      "d": 359.74561666666705,
      "v": 1
    },
    {
      "midi": 61,
      "hit": false,
      "t": 77924.5589999999,
      "d": 359.74561666666705,
      "v": 1
    },
    {
      "midi": 70,
      "hit": false,
      "t": 77924.5589999999,
      "d": 359.74561666666705,
      "v": 1
    },
    {
      "midi": 58,
      "hit": false,
      "t": 77924.55900000008,
      "d": 65.54687083333556,
      "v": 62
    },
    {
      "midi": 65,
      "hit": false,
      "t": 77924.55900000008,
      "d": 77.74163750000298,
      "v": 86
    },
    {
      "midi": 61,
      "hit": false,
      "t": 77924.55900000008,
      "d": 85.36336666667194,
      "v": 74
    },
    {
      "midi": 56,
      "hit": false,
      "t": 78290.4019999999,
      "d": 359.74561666666705,
      "v": 1
    },
    {
      "midi": 61,
      "hit": false,
      "t": 78290.4019999999,
      "d": 359.74561666666705,
      "v": 1
    },
    {
      "midi": 68,
      "hit": false,
      "t": 78290.4019999999,
      "d": 359.74561666666705,
      "v": 1
    },
    {
      "midi": 58,
      "hit": false,
      "t": 78290.40200000009,
      "d": 54.87644999999611,
      "v": 91
    },
    {
      "midi": 65,
      "hit": false,
      "t": 78290.40200000009,
      "d": 57.925141666666605,
      "v": 109
    },
    {
      "midi": 61,
      "hit": false,
      "t": 78290.40200000009,
      "d": 62.49817916666507,
      "v": 99
    },
    {
      "midi": 65,
      "hit": false,
      "t": 78514.48083750009,
      "d": 57.925141666666605,
      "v": 63
    },
    {
      "midi": 53,
      "hit": false,
      "t": 78656.2449999999,
      "d": 359.74561666666705,
      "v": 1
    },
    {
      "midi": 61,
      "hit": false,
      "t": 78656.2449999999,
      "d": 359.74561666666705,
      "v": 1
    },
    {
      "midi": 65,
      "hit": false,
      "t": 78656.2449999999,
      "d": 359.74561666666705,
      "v": 1
    },
    {
      "midi": 58,
      "hit": false,
      "t": 78656.24500000008,
      "d": 50.30341249999765,
      "v": 64
    },
    {
      "midi": 65,
      "hit": false,
      "t": 78656.24500000008,
      "d": 57.925141666666605,
      "v": 84
    },
    {
      "midi": 61,
      "hit": false,
      "t": 78656.24500000008,
      "d": 62.49817916666507,
      "v": 74
    },
    {
      "midi": 65,
      "hit": false,
      "t": 78880.32383750008,
      "d": 57.925141666666605,
      "v": 63
    },
    {
      "midi": 46,
      "hit": false,
      "t": 78880.32383750008,
      "d": 80.79032916667347,
      "v": 86
    },
    {
      "midi": 56,
      "hit": false,
      "t": 79022.08799999989,
      "d": 1823.11761666667,
      "v": 1
    },
    {
      "midi": 63,
      "hit": false,
      "t": 79022.08799999989,
      "d": 1823.11761666667,
      "v": 1
    },
    {
      "midi": 72,
      "hit": false,
      "t": 79022.08799999989,
      "d": 1823.11761666667,
      "v": 1
    },
    {
      "midi": 60,
      "hit": false,
      "t": 79022.08800000009,
      "d": 57.925141666666605,
      "v": 104
    },
    {
      "midi": 56,
      "hit": false,
      "t": 79022.08800000009,
      "d": 65.54687083333556,
      "v": 86
    },
    {
      "midi": 63,
      "hit": false,
      "t": 79022.08800000009,
      "d": 73.16860000000452,
      "v": 96
    },
    {
      "midi": 44,
      "hit": false,
      "t": 79022.08800000009,
      "d": 179.8728083333408,
      "v": 83
    },
    {
      "midi": 60,
      "hit": false,
      "t": 79387.9310000001,
      "d": 54.87644999999611,
      "v": 79
    },
    {
      "midi": 56,
      "hit": false,
      "t": 79387.9310000001,
      "d": 62.49817916666507,
      "v": 58
    },
    {
      "midi": 63,
      "hit": false,
      "t": 79387.9310000001,
      "d": 62.49817916666507,
      "v": 58
    },
    {
      "midi": 44,
      "hit": false,
      "t": 79387.9310000001,
      "d": 301.82047500000044,
      "v": 94
    },
    {
      "midi": 60,
      "hit": false,
      "t": 79753.77400000009,
      "d": 47.254720833327156,
      "v": 104
    },
    {
      "midi": 56,
      "hit": false,
      "t": 79753.77400000009,
      "d": 62.49817916666507,
      "v": 81
    },
    {
      "midi": 63,
      "hit": false,
      "t": 79753.77400000009,
      "d": 62.49817916666507,
      "v": 84
    },
    {
      "midi": 32,
      "hit": false,
      "t": 79753.77400000009,
      "d": 256.09010000000126,
      "v": 83
    },
    {
      "midi": 60,
      "hit": false,
      "t": 80119.6170000001,
      "d": 42.68168333332869,
      "v": 79
    },
    {
      "midi": 56,
      "hit": false,
      "t": 80119.6170000001,
      "d": 54.87644999999611,
      "v": 56
    },
    {
      "midi": 63,
      "hit": false,
      "t": 80119.6170000001,
      "d": 57.925141666666605,
      "v": 58
    },
    {
      "midi": 60,
      "hit": false,
      "t": 80485.4600000001,
      "d": 54.87644999999611,
      "v": 81
    },
    {
      "midi": 56,
      "hit": false,
      "t": 80485.4600000001,
      "d": 62.49817916666507,
      "v": 61
    },
    {
      "midi": 63,
      "hit": false,
      "t": 80485.4600000001,
      "d": 73.16860000000452,
      "v": 64
    },
    {
      "midi": 53,
      "hit": false,
      "t": 80851.30299999988,
      "d": 359.74561666666705,
      "v": 1
    },
    {
      "midi": 63,
      "hit": false,
      "t": 80851.30299999988,
      "d": 359.74561666666705,
      "v": 1
    },
    {
      "midi": 70,
      "hit": false,
      "t": 80851.30299999988,
      "d": 359.74561666666705,
      "v": 1
    },
    {
      "midi": 60,
      "hit": false,
      "t": 80851.3030000001,
      "d": 62.49817916666507,
      "v": 97
    },
    {
      "midi": 63,
      "hit": false,
      "t": 80851.3030000001,
      "d": 77.74163750000298,
      "v": 76
    },
    {
      "midi": 56,
      "hit": false,
      "t": 80851.3030000001,
      "d": 80.79032916667347,
      "v": 74
    },
    {
      "midi": 56,
      "hit": false,
      "t": 81217.14599999988,
      "d": 359.74561666666705,
      "v": 1
    },
    {
      "midi": 63,
      "hit": false,
      "t": 81217.14599999988,
      "d": 359.74561666666705,
      "v": 1
    },
    {
      "midi": 68,
      "hit": false,
      "t": 81217.14599999988,
      "d": 359.74561666666705,
      "v": 1
    },
    {
      "midi": 60,
      "hit": false,
      "t": 81217.14600000011,
      "d": 85.36336666667194,
      "v": 110
    },
    {
      "midi": 56,
      "hit": false,
      "t": 81217.14600000011,
      "d": 96.03378750001139,
      "v": 94
    },
    {
      "midi": 63,
      "hit": false,
      "t": 81217.14600000011,
      "d": 96.03378750001139,
      "v": 88
    },
    {
      "midi": 63,
      "hit": false,
      "t": 81441.22483750012,
      "d": 96.03378749999683,
      "v": 63
    },
    {
      "midi": 53,
      "hit": false,
      "t": 81582.98899999987,
      "d": 237.79794999999285,
      "v": 1
    },
    {
      "midi": 63,
      "hit": false,
      "t": 81582.98899999987,
      "d": 237.79794999999285,
      "v": 1
    },
    {
      "midi": 65,
      "hit": false,
      "t": 81582.98899999987,
      "d": 237.79794999999285,
      "v": 1
    },
    {
      "midi": 60,
      "hit": false,
      "t": 81582.98900000012,
      "d": 70.11990833333402,
      "v": 89
    },
    {
      "midi": 56,
      "hit": false,
      "t": 81582.98900000012,
      "d": 77.74163750000298,
      "v": 66
    },
    {
      "midi": 63,
      "hit": false,
      "t": 81582.98900000012,
      "d": 92.98509583334089,
      "v": 66
    },
    {
      "midi": 44,
      "hit": false,
      "t": 81807.06783750013,
      "d": 50.30341249999765,
      "v": 66
    },
    {
      "midi": 63,
      "hit": false,
      "t": 81807.06783750013,
      "d": 96.03378749999683,
      "v": 63
    },
    {
      "midi": 72,
      "hit": false,
      "t": 81826.88433333319,
      "d": 207.31103333333158,
      "v": 1
    },
    {
      "midi": 56,
      "hit": false,
      "t": 81826.88433333319,
      "d": 271.33355833333917,
      "v": 1
    },
    {
      "midi": 63,
      "hit": false,
      "t": 81826.88433333319,
      "d": 294.19874583334604,
      "v": 1
    },
    {
      "midi": 58,
      "hit": false,
      "t": 81948.83200000013,
      "d": 70.11990833333402,
      "v": 71
    },
    {
      "midi": 61,
      "hit": false,
      "t": 81948.83200000013,
      "d": 92.98509583334089,
      "v": 86
    },
    {
      "midi": 65,
      "hit": false,
      "t": 81948.83200000013,
      "d": 100.60682500000985,
      "v": 94
    },
    {
      "midi": 46,
      "hit": false,
      "t": 81948.83200000013,
      "d": 138.71547083334008,
      "v": 83
    },
    {
      "midi": 53,
      "hit": false,
      "t": 82070.77966666652,
      "d": 786.5624500000122,
      "v": 1
    },
    {
      "midi": 61,
      "hit": false,
      "t": 82070.77966666652,
      "d": 786.5624500000122,
      "v": 1
    },
    {
      "midi": 70,
      "hit": false,
      "t": 82070.77966666652,
      "d": 786.5624500000122,
      "v": 1
    },
    {
      "midi": 58,
      "hit": false,
      "t": 82314.67500000013,
      "d": 62.49817916666507,
      "v": 71
    },
    {
      "midi": 65,
      "hit": false,
      "t": 82314.67500000013,
      "d": 77.74163750000298,
      "v": 86
    },
    {
      "midi": 61,
      "hit": false,
      "t": 82314.67500000013,
      "d": 85.36336666667194,
      "v": 83
    },
    {
      "midi": 46,
      "hit": false,
      "t": 82314.67500000013,
      "d": 314.01524166666786,
      "v": 86
    },
    {
      "midi": 58,
      "hit": false,
      "t": 82680.51800000014,
      "d": 47.254720833327156,
      "v": 66
    },
    {
      "midi": 65,
      "hit": false,
      "t": 82680.51800000014,
      "d": 62.49817916666507,
      "v": 84
    },
    {
      "midi": 61,
      "hit": false,
      "t": 82680.51800000014,
      "d": 65.54687083333556,
      "v": 79
    },
    {
      "midi": 34,
      "hit": false,
      "t": 82680.51800000014,
      "d": 176.8241166666703,
      "v": 98
    },
    {
      "midi": 58,
      "hit": false,
      "t": 83046.36100000015,
      "d": 39.63299166667275,
      "v": 71
    },
    {
      "midi": 61,
      "hit": false,
      "t": 83046.36100000015,
      "d": 54.876450000010664,
      "v": 86
    },
    {
      "midi": 65,
      "hit": false,
      "t": 83046.36100000015,
      "d": 54.876450000010664,
      "v": 91
    },
    {
      "midi": 58,
      "hit": false,
      "t": 83412.20400000016,
      "d": 54.87644999999611,
      "v": 86
    },
    {
      "midi": 65,
      "hit": false,
      "t": 83412.20400000016,
      "d": 54.87644999999611,
      "v": 97
    },
    {
      "midi": 61,
      "hit": false,
      "t": 83412.20400000016,
      "d": 57.925141666666605,
      "v": 94
    },
    {
      "midi": 56,
      "hit": false,
      "t": 84875.57599999987,
      "d": 1823.11761666667,
      "v": 1
    },
    {
      "midi": 63,
      "hit": false,
      "t": 84875.57599999987,
      "d": 1823.11761666667,
      "v": 1
    },
    {
      "midi": 72,
      "hit": false,
      "t": 84875.57599999987,
      "d": 1823.11761666667,
      "v": 1
    },
    {
      "midi": 60,
      "hit": false,
      "t": 84875.57600000016,
      "d": 57.925141666666605,
      "v": 104
    },
    {
      "midi": 56,
      "hit": false,
      "t": 84875.57600000016,
      "d": 65.54687083333556,
      "v": 86
    },
    {
      "midi": 63,
      "hit": false,
      "t": 84875.57600000016,
      "d": 73.16860000000452,
      "v": 96
    },
    {
      "midi": 44,
      "hit": false,
      "t": 84875.57600000016,
      "d": 111.27724583333475,
      "v": 90
    },
    {
      "midi": 60,
      "hit": false,
      "t": 85241.41900000017,
      "d": 54.87644999999611,
      "v": 79
    },
    {
      "midi": 56,
      "hit": false,
      "t": 85241.41900000017,
      "d": 62.49817916666507,
      "v": 58
    },
    {
      "midi": 63,
      "hit": false,
      "t": 85241.41900000017,
      "d": 62.49817916666507,
      "v": 58
    },
    {
      "midi": 44,
      "hit": false,
      "t": 85241.41900000017,
      "d": 329.2586999999912,
      "v": 83
    },
    {
      "midi": 60,
      "hit": false,
      "t": 85607.26200000016,
      "d": 47.254720833327156,
      "v": 104
    },
    {
      "midi": 56,
      "hit": false,
      "t": 85607.26200000016,
      "d": 62.49817916666507,
      "v": 81
    },
    {
      "midi": 63,
      "hit": false,
      "t": 85607.26200000016,
      "d": 62.49817916666507,
      "v": 84
    },
    {
      "midi": 32,
      "hit": false,
      "t": 85607.26200000016,
      "d": 248.4683708333323,
      "v": 83
    },
    {
      "midi": 60,
      "hit": false,
      "t": 85973.10500000016,
      "d": 42.68168333332869,
      "v": 79
    },
    {
      "midi": 56,
      "hit": false,
      "t": 85973.10500000016,
      "d": 54.87644999999611,
      "v": 56
    },
    {
      "midi": 63,
      "hit": false,
      "t": 85973.10500000016,
      "d": 57.925141666666605,
      "v": 58
    },
    {
      "midi": 60,
      "hit": false,
      "t": 86338.94800000015,
      "d": 54.87644999999611,
      "v": 81
    },
    {
      "midi": 56,
      "hit": false,
      "t": 86338.94800000015,
      "d": 62.49817916666507,
      "v": 61
    },
    {
      "midi": 63,
      "hit": false,
      "t": 86338.94800000015,
      "d": 73.16860000000452,
      "v": 64
    },
    {
      "midi": 53,
      "hit": false,
      "t": 86704.79099999987,
      "d": 359.74561666666705,
      "v": 1
    },
    {
      "midi": 63,
      "hit": false,
      "t": 86704.79099999987,
      "d": 359.74561666666705,
      "v": 1
    },
    {
      "midi": 70,
      "hit": false,
      "t": 86704.79099999987,
      "d": 359.74561666666705,
      "v": 1
    },
    {
      "midi": 60,
      "hit": false,
      "t": 86704.79100000016,
      "d": 62.49817916666507,
      "v": 97
    },
    {
      "midi": 63,
      "hit": false,
      "t": 86704.79100000016,
      "d": 77.74163750000298,
      "v": 76
    },
    {
      "midi": 56,
      "hit": false,
      "t": 86704.79100000016,
      "d": 80.79032916667347,
      "v": 74
    },
    {
      "midi": 56,
      "hit": false,
      "t": 87070.63399999986,
      "d": 1091.4316166666686,
      "v": 1
    },
    {
      "midi": 63,
      "hit": false,
      "t": 87070.63399999986,
      "d": 1091.4316166666686,
      "v": 1
    },
    {
      "midi": 68,
      "hit": false,
      "t": 87070.63399999986,
      "d": 1091.4316166666686,
      "v": 1
    },
    {
      "midi": 60,
      "hit": false,
      "t": 87070.63400000017,
      "d": 85.36336666667194,
      "v": 110
    },
    {
      "midi": 56,
      "hit": false,
      "t": 87070.63400000017,
      "d": 96.03378750001139,
      "v": 94
    },
    {
      "midi": 63,
      "hit": false,
      "t": 87070.63400000017,
      "d": 96.03378750001139,
      "v": 88
    },
    {
      "midi": 60,
      "hit": false,
      "t": 87436.47700000017,
      "d": 70.11990833333402,
      "v": 89
    },
    {
      "midi": 56,
      "hit": false,
      "t": 87436.47700000017,
      "d": 77.74163750000298,
      "v": 66
    },
    {
      "midi": 63,
      "hit": false,
      "t": 87436.47700000017,
      "d": 92.98509583334089,
      "v": 66
    },
    {
      "midi": 44,
      "hit": false,
      "t": 87660.55583750019,
      "d": 73.16860000000452,
      "v": 79
    },
    {
      "midi": 63,
      "hit": false,
      "t": 87660.55583750019,
      "d": 92.98509583334089,
      "v": 59
    },
    {
      "midi": 58,
      "hit": false,
      "t": 87802.3200000002,
      "d": 73.16860000000452,
      "v": 86
    },
    {
      "midi": 61,
      "hit": false,
      "t": 87802.3200000002,
      "d": 80.79032916667347,
      "v": 96
    },
    {
      "midi": 65,
      "hit": false,
      "t": 87802.3200000002,
      "d": 92.98509583334089,
      "v": 107
    },
    {
      "midi": 46,
      "hit": false,
      "t": 87802.3200000002,
      "d": 115.85028333334776,
      "v": 79
    },
    {
      "midi": 56,
      "hit": false,
      "t": 88168.16299999985,
      "d": 176.8241166666703,
      "v": 1
    },
    {
      "midi": 61,
      "hit": false,
      "t": 88168.16299999985,
      "d": 176.8241166666703,
      "v": 1
    },
    {
      "midi": 70,
      "hit": false,
      "t": 88168.16299999985,
      "d": 176.8241166666703,
      "v": 1
    },
    {
      "midi": 58,
      "hit": false,
      "t": 88168.1630000002,
      "d": 54.87644999999611,
      "v": 66
    },
    {
      "midi": 65,
      "hit": false,
      "t": 88168.1630000002,
      "d": 57.925141666666605,
      "v": 84
    },
    {
      "midi": 61,
      "hit": false,
      "t": 88168.1630000002,
      "d": 73.16860000000452,
      "v": 79
    },
    {
      "midi": 46,
      "hit": false,
      "t": 88168.1630000002,
      "d": 321.6369708333368,
      "v": 83
    },
    {
      "midi": 53,
      "hit": false,
      "t": 88351.08449999985,
      "d": 542.6671166666638,
      "v": 1
    },
    {
      "midi": 61,
      "hit": false,
      "t": 88351.08449999985,
      "d": 542.6671166666638,
      "v": 1
    },
    {
      "midi": 70,
      "hit": false,
      "t": 88351.08449999985,
      "d": 542.6671166666638,
      "v": 1
    },
    {
      "midi": 58,
      "hit": false,
      "t": 88534.00600000021,
      "d": 50.30341249999765,
      "v": 64
    },
    {
      "midi": 65,
      "hit": false,
      "t": 88534.00600000021,
      "d": 62.49817916666507,
      "v": 82
    },
    {
      "midi": 61,
      "hit": false,
      "t": 88534.00600000021,
      "d": 73.16860000000452,
      "v": 79
    },
    {
      "midi": 34,
      "hit": false,
      "t": 88534.00600000021,
      "d": 210.35972500000207,
      "v": 103
    },
    {
      "midi": 51,
      "hit": false,
      "t": 88899.84899999984,
      "d": 359.74561666666705,
      "v": 1
    },
    {
      "midi": 61,
      "hit": false,
      "t": 88899.84899999984,
      "d": 359.74561666666705,
      "v": 1
    },
    {
      "midi": 68,
      "hit": false,
      "t": 88899.84899999984,
      "d": 359.74561666666705,
      "v": 1
    },
    {
      "midi": 58,
      "hit": false,
      "t": 88899.84900000022,
      "d": 47.254720833327156,
      "v": 81
    },
    {
      "midi": 65,
      "hit": false,
      "t": 88899.84900000022,
      "d": 50.30341249999765,
      "v": 101
    },
    {
      "midi": 61,
      "hit": false,
      "t": 88899.84900000022,
      "d": 57.925141666666605,
      "v": 93
    },
    {
      "midi": 56,
      "hit": false,
      "t": 89265.69199999984,
      "d": 359.74561666666705,
      "v": 1
    },
    {
      "midi": 61,
      "hit": false,
      "t": 89265.69199999984,
      "d": 359.74561666666705,
      "v": 1
    },
    {
      "midi": 72,
      "hit": false,
      "t": 89265.69199999984,
      "d": 359.74561666666705,
      "v": 1
    },
    {
      "midi": 58,
      "hit": false,
      "t": 89265.69200000021,
      "d": 57.925141666666605,
      "v": 91
    },
    {
      "midi": 65,
      "hit": false,
      "t": 89265.69200000021,
      "d": 65.54687083333556,
      "v": 109
    },
    {
      "midi": 61,
      "hit": false,
      "t": 89265.69200000021,
      "d": 73.16860000000452,
      "v": 103
    },
    {
      "midi": 53,
      "hit": false,
      "t": 89631.53499999983,
      "d": 359.74561666666705,
      "v": 1
    },
    {
      "midi": 61,
      "hit": false,
      "t": 89631.53499999983,
      "d": 359.74561666666705,
      "v": 1
    },
    {
      "midi": 70,
      "hit": false,
      "t": 89631.53499999983,
      "d": 359.74561666666705,
      "v": 1
    },
    {
      "midi": 58,
      "hit": false,
      "t": 89631.53500000022,
      "d": 65.54687083333556,
      "v": 62
    },
    {
      "midi": 65,
      "hit": false,
      "t": 89631.53500000022,
      "d": 77.74163750000298,
      "v": 86
    },
    {
      "midi": 61,
      "hit": false,
      "t": 89631.53500000022,
      "d": 85.36336666667194,
      "v": 74
    },
    {
      "midi": 56,
      "hit": false,
      "t": 89997.37799999982,
      "d": 359.74561666666705,
      "v": 1
    },
    {
      "midi": 61,
      "hit": false,
      "t": 89997.37799999982,
      "d": 359.74561666666705,
      "v": 1
    },
    {
      "midi": 68,
      "hit": false,
      "t": 89997.37799999982,
      "d": 359.74561666666705,
      "v": 1
    },
    {
      "midi": 58,
      "hit": false,
      "t": 89997.37800000023,
      "d": 54.87644999999611,
      "v": 91
    },
    {
      "midi": 65,
      "hit": false,
      "t": 89997.37800000023,
      "d": 57.925141666666605,
      "v": 109
    },
    {
      "midi": 61,
      "hit": false,
      "t": 89997.37800000023,
      "d": 62.49817916666507,
      "v": 99
    },
    {
      "midi": 65,
      "hit": false,
      "t": 90221.45683750023,
      "d": 57.925141666666605,
      "v": 63
    },
    {
      "midi": 53,
      "hit": false,
      "t": 90363.22099999982,
      "d": 359.74561666666705,
      "v": 1
    },
    {
      "midi": 61,
      "hit": false,
      "t": 90363.22099999982,
      "d": 359.74561666666705,
      "v": 1
    },
    {
      "midi": 65,
      "hit": false,
      "t": 90363.22099999982,
      "d": 359.74561666666705,
      "v": 1
    },
    {
      "midi": 58,
      "hit": false,
      "t": 90363.22100000022,
      "d": 50.30341249999765,
      "v": 64
    },
    {
      "midi": 65,
      "hit": false,
      "t": 90363.22100000022,
      "d": 57.925141666666605,
      "v": 84
    },
    {
      "midi": 61,
      "hit": false,
      "t": 90363.22100000022,
      "d": 62.49817916666507,
      "v": 74
    },
    {
      "midi": 65,
      "hit": false,
      "t": 90587.29983750022,
      "d": 57.925141666666605,
      "v": 63
    },
    {
      "midi": 46,
      "hit": false,
      "t": 90587.29983750022,
      "d": 80.79032916667347,
      "v": 86
    },
    {
      "midi": 56,
      "hit": false,
      "t": 90729.06399999981,
      "d": 1823.11761666667,
      "v": 1
    },
    {
      "midi": 63,
      "hit": false,
      "t": 90729.06399999981,
      "d": 1823.11761666667,
      "v": 1
    },
    {
      "midi": 72,
      "hit": false,
      "t": 90729.06399999981,
      "d": 1823.11761666667,
      "v": 1
    },
    {
      "midi": 60,
      "hit": false,
      "t": 90729.06400000023,
      "d": 57.925141666666605,
      "v": 104
    },
    {
      "midi": 56,
      "hit": false,
      "t": 90729.06400000023,
      "d": 65.54687083333556,
      "v": 86
    },
    {
      "midi": 63,
      "hit": false,
      "t": 90729.06400000023,
      "d": 73.16860000000452,
      "v": 96
    },
    {
      "midi": 44,
      "hit": false,
      "t": 90729.06400000023,
      "d": 179.8728083333408,
      "v": 83
    },
    {
      "midi": 60,
      "hit": false,
      "t": 91094.90700000024,
      "d": 54.87644999999611,
      "v": 79
    },
    {
      "midi": 56,
      "hit": false,
      "t": 91094.90700000024,
      "d": 62.49817916666507,
      "v": 58
    },
    {
      "midi": 63,
      "hit": false,
      "t": 91094.90700000024,
      "d": 62.49817916666507,
      "v": 58
    },
    {
      "midi": 44,
      "hit": false,
      "t": 91094.90700000024,
      "d": 301.82047500000044,
      "v": 94
    },
    {
      "midi": 60,
      "hit": false,
      "t": 91460.75000000023,
      "d": 47.254720833327156,
      "v": 104
    },
    {
      "midi": 56,
      "hit": false,
      "t": 91460.75000000023,
      "d": 62.49817916666507,
      "v": 81
    },
    {
      "midi": 63,
      "hit": false,
      "t": 91460.75000000023,
      "d": 62.49817916666507,
      "v": 84
    },
    {
      "midi": 32,
      "hit": false,
      "t": 91460.75000000023,
      "d": 256.09010000000126,
      "v": 83
    },
    {
      "midi": 60,
      "hit": false,
      "t": 91826.59300000024,
      "d": 42.68168333332869,
      "v": 79
    },
    {
      "midi": 56,
      "hit": false,
      "t": 91826.59300000024,
      "d": 54.87644999999611,
      "v": 56
    },
    {
      "midi": 63,
      "hit": false,
      "t": 91826.59300000024,
      "d": 57.925141666666605,
      "v": 58
    },
    {
      "midi": 60,
      "hit": false,
      "t": 92192.43600000023,
      "d": 54.87644999999611,
      "v": 81
    },
    {
      "midi": 56,
      "hit": false,
      "t": 92192.43600000023,
      "d": 62.49817916666507,
      "v": 61
    },
    {
      "midi": 63,
      "hit": false,
      "t": 92192.43600000023,
      "d": 73.16860000000452,
      "v": 64
    },
    {
      "midi": 53,
      "hit": false,
      "t": 92558.2789999998,
      "d": 359.74561666666705,
      "v": 1
    },
    {
      "midi": 63,
      "hit": false,
      "t": 92558.2789999998,
      "d": 359.74561666666705,
      "v": 1
    },
    {
      "midi": 70,
      "hit": false,
      "t": 92558.2789999998,
      "d": 359.74561666666705,
      "v": 1
    },
    {
      "midi": 60,
      "hit": false,
      "t": 92558.27900000024,
      "d": 62.49817916666507,
      "v": 97
    },
    {
      "midi": 63,
      "hit": false,
      "t": 92558.27900000024,
      "d": 77.74163750000298,
      "v": 76
    },
    {
      "midi": 56,
      "hit": false,
      "t": 92558.27900000024,
      "d": 80.79032916667347,
      "v": 74
    },
    {
      "midi": 56,
      "hit": false,
      "t": 92924.1219999998,
      "d": 359.74561666666705,
      "v": 1
    },
    {
      "midi": 63,
      "hit": false,
      "t": 92924.1219999998,
      "d": 359.74561666666705,
      "v": 1
    },
    {
      "midi": 68,
      "hit": false,
      "t": 92924.1219999998,
      "d": 359.74561666666705,
      "v": 1
    },
    {
      "midi": 60,
      "hit": false,
      "t": 92924.12200000025,
      "d": 85.36336666667194,
      "v": 110
    },
    {
      "midi": 56,
      "hit": false,
      "t": 92924.12200000025,
      "d": 96.03378750001139,
      "v": 94
    },
    {
      "midi": 63,
      "hit": false,
      "t": 92924.12200000025,
      "d": 96.03378750001139,
      "v": 88
    },
    {
      "midi": 63,
      "hit": false,
      "t": 93148.20083750026,
      "d": 96.03378749999683,
      "v": 63
    },
    {
      "midi": 53,
      "hit": false,
      "t": 93289.9649999998,
      "d": 237.79794999999285,
      "v": 1
    },
    {
      "midi": 63,
      "hit": false,
      "t": 93289.9649999998,
      "d": 237.79794999999285,
      "v": 1
    },
    {
      "midi": 65,
      "hit": false,
      "t": 93289.9649999998,
      "d": 237.79794999999285,
      "v": 1
    },
    {
      "midi": 60,
      "hit": false,
      "t": 93289.96500000026,
      "d": 70.11990833333402,
      "v": 89
    },
    {
      "midi": 56,
      "hit": false,
      "t": 93289.96500000026,
      "d": 77.74163750000298,
      "v": 66
    },
    {
      "midi": 63,
      "hit": false,
      "t": 93289.96500000026,
      "d": 92.98509583334089,
      "v": 66
    },
    {
      "midi": 44,
      "hit": false,
      "t": 93514.04383750027,
      "d": 50.30341249999765,
      "v": 66
    },
    {
      "midi": 63,
      "hit": false,
      "t": 93514.04383750027,
      "d": 96.03378749999683,
      "v": 63
    },
    {
      "midi": 72,
      "hit": false,
      "t": 93533.86033333311,
      "d": 207.31103333333158,
      "v": 1
    },
    {
      "midi": 56,
      "hit": false,
      "t": 93533.86033333311,
      "d": 271.33355833333917,
      "v": 1
    },
    {
      "midi": 63,
      "hit": false,
      "t": 93533.86033333311,
      "d": 294.19874583334604,
      "v": 1
    },
    {
      "midi": 58,
      "hit": false,
      "t": 93655.80800000027,
      "d": 70.11990833333402,
      "v": 71
    },
    {
      "midi": 61,
      "hit": false,
      "t": 93655.80800000027,
      "d": 92.98509583334089,
      "v": 86
    },
    {
      "midi": 65,
      "hit": false,
      "t": 93655.80800000027,
      "d": 100.60682500000985,
      "v": 94
    },
    {
      "midi": 46,
      "hit": false,
      "t": 93655.80800000027,
      "d": 138.71547083334008,
      "v": 83
    },
    {
      "midi": 53,
      "hit": false,
      "t": 93777.75566666645,
      "d": 786.5624500000122,
      "v": 1
    },
    {
      "midi": 61,
      "hit": false,
      "t": 93777.75566666645,
      "d": 786.5624500000122,
      "v": 1
    },
    {
      "midi": 70,
      "hit": false,
      "t": 93777.75566666645,
      "d": 786.5624500000122,
      "v": 1
    },
    {
      "midi": 58,
      "hit": false,
      "t": 94021.65100000027,
      "d": 62.49817916666507,
      "v": 71
    },
    {
      "midi": 65,
      "hit": false,
      "t": 94021.65100000027,
      "d": 77.74163750000298,
      "v": 86
    },
    {
      "midi": 61,
      "hit": false,
      "t": 94021.65100000027,
      "d": 85.36336666667194,
      "v": 83
    },
    {
      "midi": 46,
      "hit": false,
      "t": 94021.65100000027,
      "d": 314.01524166666786,
      "v": 86
    },
    {
      "midi": 58,
      "hit": false,
      "t": 94387.49400000028,
      "d": 47.254720833327156,
      "v": 66
    },
    {
      "midi": 65,
      "hit": false,
      "t": 94387.49400000028,
      "d": 62.49817916666507,
      "v": 84
    },
    {
      "midi": 61,
      "hit": false,
      "t": 94387.49400000028,
      "d": 65.54687083333556,
      "v": 79
    },
    {
      "midi": 34,
      "hit": false,
      "t": 94387.49400000028,
      "d": 176.8241166666703,
      "v": 98
    },
    {
      "midi": 58,
      "hit": false,
      "t": 94753.33700000029,
      "d": 39.63299166667275,
      "v": 71
    },
    {
      "midi": 61,
      "hit": false,
      "t": 94753.33700000029,
      "d": 54.876450000010664,
      "v": 86
    },
    {
      "midi": 65,
      "hit": false,
      "t": 94753.33700000029,
      "d": 54.876450000010664,
      "v": 91
    },
    {
      "midi": 58,
      "hit": false,
      "t": 95119.1800000003,
      "d": 54.87644999999611,
      "v": 86
    },
    {
      "midi": 65,
      "hit": false,
      "t": 95119.1800000003,
      "d": 54.87644999999611,
      "v": 97
    },
    {
      "midi": 61,
      "hit": false,
      "t": 95119.1800000003,
      "d": 57.925141666666605,
      "v": 94
    },
    {
      "midi": 60,
      "hit": false,
      "t": 108289.5280000003,
      "d": 57.925141666666605,
      "v": 104
    },
    {
      "midi": 56,
      "hit": false,
      "t": 108289.5280000003,
      "d": 65.54687083333556,
      "v": 86
    },
    {
      "midi": 63,
      "hit": false,
      "t": 108289.5280000003,
      "d": 73.16860000000452,
      "v": 96
    },
    {
      "midi": 44,
      "hit": false,
      "t": 108289.5280000003,
      "d": 111.27724583333475,
      "v": 90
    },
    {
      "midi": 60,
      "hit": false,
      "t": 108655.3710000003,
      "d": 54.87644999999611,
      "v": 79
    },
    {
      "midi": 56,
      "hit": false,
      "t": 108655.3710000003,
      "d": 62.49817916666507,
      "v": 58
    },
    {
      "midi": 63,
      "hit": false,
      "t": 108655.3710000003,
      "d": 62.49817916666507,
      "v": 58
    },
    {
      "midi": 44,
      "hit": false,
      "t": 108655.3710000003,
      "d": 329.2586999999912,
      "v": 83
    },
    {
      "midi": 60,
      "hit": false,
      "t": 109021.2140000003,
      "d": 47.254720833327156,
      "v": 104
    },
    {
      "midi": 56,
      "hit": false,
      "t": 109021.2140000003,
      "d": 62.49817916666507,
      "v": 81
    },
    {
      "midi": 63,
      "hit": false,
      "t": 109021.2140000003,
      "d": 62.49817916666507,
      "v": 84
    },
    {
      "midi": 32,
      "hit": false,
      "t": 109021.2140000003,
      "d": 248.4683708333323,
      "v": 83
    },
    {
      "midi": 60,
      "hit": false,
      "t": 109387.05700000029,
      "d": 42.68168333332869,
      "v": 79
    },
    {
      "midi": 56,
      "hit": false,
      "t": 109387.05700000029,
      "d": 54.87644999999611,
      "v": 56
    },
    {
      "midi": 63,
      "hit": false,
      "t": 109387.05700000029,
      "d": 57.925141666666605,
      "v": 58
    },
    {
      "midi": 60,
      "hit": false,
      "t": 109752.90000000029,
      "d": 54.87644999999611,
      "v": 81
    },
    {
      "midi": 56,
      "hit": false,
      "t": 109752.90000000029,
      "d": 62.49817916666507,
      "v": 61
    },
    {
      "midi": 63,
      "hit": false,
      "t": 109752.90000000029,
      "d": 73.16860000000452,
      "v": 64
    },
    {
      "midi": 60,
      "hit": false,
      "t": 110118.7430000003,
      "d": 62.49817916666507,
      "v": 97
    },
    {
      "midi": 63,
      "hit": false,
      "t": 110118.7430000003,
      "d": 77.74163750000298,
      "v": 76
    },
    {
      "midi": 56,
      "hit": false,
      "t": 110118.7430000003,
      "d": 80.79032916667347,
      "v": 74
    },
    {
      "midi": 60,
      "hit": false,
      "t": 110484.5860000003,
      "d": 85.36336666667194,
      "v": 110
    },
    {
      "midi": 56,
      "hit": false,
      "t": 110484.5860000003,
      "d": 96.03378750001139,
      "v": 94
    },
    {
      "midi": 63,
      "hit": false,
      "t": 110484.5860000003,
      "d": 96.03378750001139,
      "v": 88
    },
    {
      "midi": 60,
      "hit": false,
      "t": 110850.42900000031,
      "d": 70.11990833333402,
      "v": 89
    },
    {
      "midi": 56,
      "hit": false,
      "t": 110850.42900000031,
      "d": 77.74163750000298,
      "v": 66
    },
    {
      "midi": 63,
      "hit": false,
      "t": 110850.42900000031,
      "d": 92.98509583334089,
      "v": 66
    },
    {
      "midi": 44,
      "hit": false,
      "t": 111074.50783750032,
      "d": 73.16860000000452,
      "v": 79
    },
    {
      "midi": 63,
      "hit": false,
      "t": 111074.50783750032,
      "d": 92.98509583334089,
      "v": 59
    },
    {
      "midi": 58,
      "hit": false,
      "t": 111216.27200000033,
      "d": 73.16860000000452,
      "v": 86
    },
    {
      "midi": 61,
      "hit": false,
      "t": 111216.27200000033,
      "d": 80.79032916667347,
      "v": 96
    },
    {
      "midi": 65,
      "hit": false,
      "t": 111216.27200000033,
      "d": 92.98509583334089,
      "v": 107
    },
    {
      "midi": 46,
      "hit": false,
      "t": 111216.27200000033,
      "d": 115.85028333334776,
      "v": 79
    },
    {
      "midi": 58,
      "hit": false,
      "t": 111582.11500000034,
      "d": 54.87644999999611,
      "v": 66
    },
    {
      "midi": 65,
      "hit": false,
      "t": 111582.11500000034,
      "d": 57.925141666666605,
      "v": 84
    },
    {
      "midi": 61,
      "hit": false,
      "t": 111582.11500000034,
      "d": 73.16860000000452,
      "v": 79
    },
    {
      "midi": 46,
      "hit": false,
      "t": 111582.11500000034,
      "d": 321.6369708333368,
      "v": 83
    },
    {
      "midi": 58,
      "hit": false,
      "t": 111947.95800000035,
      "d": 50.30341249999765,
      "v": 64
    },
    {
      "midi": 65,
      "hit": false,
      "t": 111947.95800000035,
      "d": 62.49817916666507,
      "v": 82
    },
    {
      "midi": 61,
      "hit": false,
      "t": 111947.95800000035,
      "d": 73.16860000000452,
      "v": 79
    },
    {
      "midi": 34,
      "hit": false,
      "t": 111947.95800000035,
      "d": 210.35972500000207,
      "v": 103
    },
    {
      "midi": 58,
      "hit": false,
      "t": 112313.80100000036,
      "d": 47.254720833327156,
      "v": 81
    },
    {
      "midi": 65,
      "hit": false,
      "t": 112313.80100000036,
      "d": 50.30341249999765,
      "v": 101
    },
    {
      "midi": 61,
      "hit": false,
      "t": 112313.80100000036,
      "d": 57.925141666666605,
      "v": 93
    },
    {
      "midi": 58,
      "hit": false,
      "t": 112679.64400000035,
      "d": 57.925141666666605,
      "v": 91
    },
    {
      "midi": 65,
      "hit": false,
      "t": 112679.64400000035,
      "d": 65.54687083333556,
      "v": 109
    },
    {
      "midi": 61,
      "hit": false,
      "t": 112679.64400000035,
      "d": 73.16860000000452,
      "v": 103
    },
    {
      "midi": 58,
      "hit": false,
      "t": 113045.48700000036,
      "d": 65.54687083333556,
      "v": 62
    },
    {
      "midi": 65,
      "hit": false,
      "t": 113045.48700000036,
      "d": 77.74163750000298,
      "v": 86
    },
    {
      "midi": 61,
      "hit": false,
      "t": 113045.48700000036,
      "d": 85.36336666667194,
      "v": 74
    },
    {
      "midi": 58,
      "hit": false,
      "t": 113411.33000000037,
      "d": 54.87644999999611,
      "v": 91
    },
    {
      "midi": 65,
      "hit": false,
      "t": 113411.33000000037,
      "d": 57.925141666666605,
      "v": 109
    },
    {
      "midi": 61,
      "hit": false,
      "t": 113411.33000000037,
      "d": 62.49817916666507,
      "v": 99
    },
    {
      "midi": 65,
      "hit": false,
      "t": 113635.40883750036,
      "d": 57.925141666666605,
      "v": 63
    },
    {
      "midi": 58,
      "hit": false,
      "t": 113777.17300000036,
      "d": 50.30341249999765,
      "v": 64
    },
    {
      "midi": 65,
      "hit": false,
      "t": 113777.17300000036,
      "d": 57.925141666666605,
      "v": 84
    },
    {
      "midi": 61,
      "hit": false,
      "t": 113777.17300000036,
      "d": 62.49817916666507,
      "v": 74
    },
    {
      "midi": 65,
      "hit": false,
      "t": 114001.25183750036,
      "d": 57.925141666666605,
      "v": 63
    },
    {
      "midi": 46,
      "hit": false,
      "t": 114001.25183750036,
      "d": 80.79032916667347,
      "v": 86
    },
    {
      "midi": 60,
      "hit": false,
      "t": 114143.01600000037,
      "d": 57.925141666666605,
      "v": 104
    },
    {
      "midi": 56,
      "hit": false,
      "t": 114143.01600000037,
      "d": 65.54687083333556,
      "v": 86
    },
    {
      "midi": 63,
      "hit": false,
      "t": 114143.01600000037,
      "d": 73.16860000000452,
      "v": 96
    },
    {
      "midi": 44,
      "hit": false,
      "t": 114143.01600000037,
      "d": 179.8728083333408,
      "v": 83
    },
    {
      "midi": 60,
      "hit": false,
      "t": 114508.85900000038,
      "d": 54.87644999999611,
      "v": 79
    },
    {
      "midi": 56,
      "hit": false,
      "t": 114508.85900000038,
      "d": 62.49817916666507,
      "v": 58
    },
    {
      "midi": 63,
      "hit": false,
      "t": 114508.85900000038,
      "d": 62.49817916666507,
      "v": 58
    },
    {
      "midi": 44,
      "hit": false,
      "t": 114508.85900000038,
      "d": 301.82047500000044,
      "v": 94
    },
    {
      "midi": 60,
      "hit": false,
      "t": 114874.70200000037,
      "d": 47.254720833327156,
      "v": 104
    },
    {
      "midi": 56,
      "hit": false,
      "t": 114874.70200000037,
      "d": 62.49817916666507,
      "v": 81
    },
    {
      "midi": 63,
      "hit": false,
      "t": 114874.70200000037,
      "d": 62.49817916666507,
      "v": 84
    },
    {
      "midi": 32,
      "hit": false,
      "t": 114874.70200000037,
      "d": 256.09010000000126,
      "v": 83
    },
    {
      "midi": 60,
      "hit": false,
      "t": 115240.54500000038,
      "d": 42.68168333332869,
      "v": 79
    },
    {
      "midi": 56,
      "hit": false,
      "t": 115240.54500000038,
      "d": 54.87644999999611,
      "v": 56
    },
    {
      "midi": 63,
      "hit": false,
      "t": 115240.54500000038,
      "d": 57.925141666666605,
      "v": 58
    },
    {
      "midi": 60,
      "hit": false,
      "t": 115606.38800000037,
      "d": 54.87644999999611,
      "v": 81
    },
    {
      "midi": 56,
      "hit": false,
      "t": 115606.38800000037,
      "d": 62.49817916666507,
      "v": 61
    },
    {
      "midi": 63,
      "hit": false,
      "t": 115606.38800000037,
      "d": 73.16860000000452,
      "v": 64
    },
    {
      "midi": 60,
      "hit": false,
      "t": 115972.23100000038,
      "d": 62.49817916666507,
      "v": 97
    },
    {
      "midi": 63,
      "hit": false,
      "t": 115972.23100000038,
      "d": 77.74163750000298,
      "v": 76
    },
    {
      "midi": 56,
      "hit": false,
      "t": 115972.23100000038,
      "d": 80.79032916667347,
      "v": 74
    },
    {
      "midi": 60,
      "hit": false,
      "t": 116338.07400000039,
      "d": 85.36336666667194,
      "v": 110
    },
    {
      "midi": 56,
      "hit": false,
      "t": 116338.07400000039,
      "d": 96.03378750001139,
      "v": 94
    },
    {
      "midi": 63,
      "hit": false,
      "t": 116338.07400000039,
      "d": 96.03378750001139,
      "v": 88
    },
    {
      "midi": 63,
      "hit": false,
      "t": 116562.1528375004,
      "d": 96.03378749999683,
      "v": 63
    },
    {
      "midi": 60,
      "hit": false,
      "t": 116703.9170000004,
      "d": 70.11990833333402,
      "v": 89
    },
    {
      "midi": 56,
      "hit": false,
      "t": 116703.9170000004,
      "d": 77.74163750000298,
      "v": 66
    },
    {
      "midi": 63,
      "hit": false,
      "t": 116703.9170000004,
      "d": 92.98509583334089,
      "v": 66
    },
    {
      "midi": 44,
      "hit": false,
      "t": 116927.9958375004,
      "d": 50.30341249999765,
      "v": 66
    },
    {
      "midi": 63,
      "hit": false,
      "t": 116927.9958375004,
      "d": 96.03378749999683,
      "v": 63
    },
    {
      "midi": 58,
      "hit": false,
      "t": 117069.7600000004,
      "d": 70.11990833333402,
      "v": 71
    },
    {
      "midi": 61,
      "hit": false,
      "t": 117069.7600000004,
      "d": 92.98509583334089,
      "v": 86
    },
    {
      "midi": 65,
      "hit": false,
      "t": 117069.7600000004,
      "d": 100.60682500000985,
      "v": 94
    },
    {
      "midi": 46,
      "hit": false,
      "t": 117069.7600000004,
      "d": 138.71547083334008,
      "v": 83
    },
    {
      "midi": 58,
      "hit": false,
      "t": 117435.60300000041,
      "d": 62.49817916666507,
      "v": 71
    },
    {
      "midi": 65,
      "hit": false,
      "t": 117435.60300000041,
      "d": 77.74163750000298,
      "v": 86
    },
    {
      "midi": 61,
      "hit": false,
      "t": 117435.60300000041,
      "d": 85.36336666667194,
      "v": 83
    },
    {
      "midi": 46,
      "hit": false,
      "t": 117435.60300000041,
      "d": 314.01524166666786,
      "v": 86
    },
    {
      "midi": 58,
      "hit": false,
      "t": 117801.44600000042,
      "d": 47.254720833327156,
      "v": 66
    },
    {
      "midi": 65,
      "hit": false,
      "t": 117801.44600000042,
      "d": 62.49817916666507,
      "v": 84
    },
    {
      "midi": 61,
      "hit": false,
      "t": 117801.44600000042,
      "d": 65.54687083333556,
      "v": 79
    },
    {
      "midi": 34,
      "hit": false,
      "t": 117801.44600000042,
      "d": 176.8241166666703,
      "v": 98
    },
    {
      "midi": 58,
      "hit": false,
      "t": 118167.28900000043,
      "d": 39.63299166667275,
      "v": 71
    },
    {
      "midi": 61,
      "hit": false,
      "t": 118167.28900000043,
      "d": 54.876450000010664,
      "v": 86
    },
    {
      "midi": 65,
      "hit": false,
      "t": 118167.28900000043,
      "d": 54.876450000010664,
      "v": 91
    },
    {
      "midi": 58,
      "hit": false,
      "t": 118533.13200000043,
      "d": 54.87644999999611,
      "v": 86
    },
    {
      "midi": 65,
      "hit": false,
      "t": 118533.13200000043,
      "d": 54.87644999999611,
      "v": 97
    },
    {
      "midi": 61,
      "hit": false,
      "t": 118533.13200000043,
      "d": 57.925141666666605,
      "v": 94
    },
    {
      "midi": 63,
      "hit": false,
      "t": 119996.50400000044,
      "d": 73.16860000000452,
      "v": 90
    },
    {
      "midi": 60,
      "hit": false,
      "t": 119996.50400000044,
      "d": 85.36336666667194,
      "v": 86
    },
    {
      "midi": 58,
      "hit": false,
      "t": 119996.50400000044,
      "d": 88.41205833334243,
      "v": 78
    },
    {
      "midi": 67,
      "hit": false,
      "t": 119996.50400000044,
      "d": 88.41205833334243,
      "v": 78
    },
    {
      "midi": 63,
      "hit": false,
      "t": 119999.55269166645,
      "d": 2885.5866624999762,
      "v": 1
    },
    {
      "midi": 60,
      "hit": false,
      "t": 120004.12572916645,
      "d": 2928.268345833305,
      "v": 1
    },
    {
      "midi": 67,
      "hit": false,
      "t": 120004.12572916645,
      "d": 2928.268345833305,
      "v": 1
    },
    {
      "midi": 70,
      "hit": false,
      "t": 120004.12572916645,
      "d": 2928.268345833305,
      "v": 1
    },
    {
      "midi": 63,
      "hit": false,
      "t": 120362.34700000045,
      "d": 85.36336666667194,
      "v": 76
    },
    {
      "midi": 60,
      "hit": false,
      "t": 120362.34700000045,
      "d": 96.03378750001139,
      "v": 80
    },
    {
      "midi": 58,
      "hit": false,
      "t": 120362.34700000045,
      "d": 100.60682500000985,
      "v": 80
    },
    {
      "midi": 67,
      "hit": false,
      "t": 120362.34700000045,
      "d": 100.60682500000985,
      "v": 91
    },
    {
      "midi": 58,
      "hit": false,
      "t": 120728.19000000045,
      "d": 70.11990833333402,
      "v": 89
    },
    {
      "midi": 67,
      "hit": false,
      "t": 120728.19000000045,
      "d": 70.11990833333402,
      "v": 89
    },
    {
      "midi": 60,
      "hit": false,
      "t": 120728.19000000045,
      "d": 80.79032916667347,
      "v": 89
    },
    {
      "midi": 63,
      "hit": false,
      "t": 120728.19000000045,
      "d": 80.79032916667347,
      "v": 86
    },
    {
      "midi": 58,
      "hit": false,
      "t": 121094.03300000046,
      "d": 70.11990833333402,
      "v": 89
    },
    {
      "midi": 67,
      "hit": false,
      "t": 121094.03300000046,
      "d": 70.11990833333402,
      "v": 89
    },
    {
      "midi": 63,
      "hit": false,
      "t": 121094.03300000046,
      "d": 80.79032916667347,
      "v": 83
    },
    {
      "midi": 60,
      "hit": false,
      "t": 121094.03300000046,
      "d": 88.41205833334243,
      "v": 91
    },
    {
      "midi": 58,
      "hit": false,
      "t": 121459.87600000047,
      "d": 80.79032916667347,
      "v": 89
    },
    {
      "midi": 67,
      "hit": false,
      "t": 121459.87600000047,
      "d": 80.79032916667347,
      "v": 89
    },
    {
      "midi": 63,
      "hit": false,
      "t": 121459.87600000047,
      "d": 85.36336666667194,
      "v": 83
    },
    {
      "midi": 60,
      "hit": false,
      "t": 121459.87600000047,
      "d": 100.60682500000985,
      "v": 89
    },
    {
      "midi": 58,
      "hit": false,
      "t": 121825.71900000048,
      "d": 88.41205833332788,
      "v": 84
    },
    {
      "midi": 63,
      "hit": false,
      "t": 121825.71900000048,
      "d": 88.41205833332788,
      "v": 76
    },
    {
      "midi": 67,
      "hit": false,
      "t": 121825.71900000048,
      "d": 88.41205833332788,
      "v": 84
    },
    {
      "midi": 60,
      "hit": false,
      "t": 121825.71900000048,
      "d": 100.6068249999953,
      "v": 84
    },
    {
      "midi": 63,
      "hit": false,
      "t": 122191.56200000047,
      "d": 92.98509583332634,
      "v": 79
    },
    {
      "midi": 60,
      "hit": false,
      "t": 122191.56200000047,
      "d": 111.2772458333202,
      "v": 82
    },
    {
      "midi": 58,
      "hit": false,
      "t": 122191.56200000047,
      "d": 115.85028333331866,
      "v": 80
    },
    {
      "midi": 67,
      "hit": false,
      "t": 122191.56200000047,
      "d": 115.85028333331866,
      "v": 80
    },
    {
      "midi": 58,
      "hit": false,
      "t": 122557.40500000045,
      "d": 103.65551666666579,
      "v": 86
    },
    {
      "midi": 60,
      "hit": false,
      "t": 122557.40500000045,
      "d": 123.47201250000217,
      "v": 91
    },
    {
      "midi": 63,
      "hit": false,
      "t": 122557.40500000045,
      "d": 123.47201250000217,
      "v": 90
    },
    {
      "midi": 67,
      "hit": false,
      "t": 122557.40500000045,
      "d": 126.52070416667266,
      "v": 86
    },
    {
      "midi": 63,
      "hit": false,
      "t": 122781.48383750046,
      "d": 80.79032916667347,
      "v": 69
    },
    {
      "midi": 67,
      "hit": false,
      "t": 122781.48383750046,
      "d": 92.98509583334089,
      "v": 73
    },
    {
      "midi": 61,
      "hit": false,
      "t": 122923.24800000047,
      "d": 103.65551666666579,
      "v": 90
    },
    {
      "midi": 65,
      "hit": false,
      "t": 122923.24800000047,
      "d": 108.22855416666425,
      "v": 80
    },
    {
      "midi": 58,
      "hit": false,
      "t": 122923.24800000047,
      "d": 118.8989750000037,
      "v": 94
    },
    {
      "midi": 61,
      "hit": false,
      "t": 122938.49145833308,
      "d": 2905.403158333327,
      "v": 1
    },
    {
      "midi": 65,
      "hit": false,
      "t": 122938.49145833308,
      "d": 2905.403158333327,
      "v": 1
    },
    {
      "midi": 70,
      "hit": false,
      "t": 122938.49145833308,
      "d": 2905.403158333327,
      "v": 1
    },
    {
      "midi": 61,
      "hit": false,
      "t": 123289.09100000048,
      "d": 100.6068249999953,
      "v": 86
    },
    {
      "midi": 65,
      "hit": false,
      "t": 123289.09100000048,
      "d": 131.09374166665657,
      "v": 86
    },
    {
      "midi": 58,
      "hit": false,
      "t": 123289.09100000048,
      "d": 138.71547083332553,
      "v": 90
    },
    {
      "midi": 65,
      "hit": false,
      "t": 123654.93400000047,
      "d": 92.98509583332634,
      "v": 80
    },
    {
      "midi": 61,
      "hit": false,
      "t": 123654.93400000047,
      "d": 111.2772458333202,
      "v": 86
    },
    {
      "midi": 58,
      "hit": false,
      "t": 123654.93400000047,
      "d": 115.85028333331866,
      "v": 86
    },
    {
      "midi": 65,
      "hit": false,
      "t": 124020.77700000045,
      "d": 88.41205833332788,
      "v": 91
    },
    {
      "midi": 61,
      "hit": false,
      "t": 124020.77700000045,
      "d": 103.65551666666579,
      "v": 90
    },
    {
      "midi": 58,
      "hit": false,
      "t": 124020.77700000045,
      "d": 111.27724583333475,
      "v": 94
    },
    {
      "midi": 65,
      "hit": false,
      "t": 124386.62000000046,
      "d": 100.6068249999953,
      "v": 89
    },
    {
      "midi": 61,
      "hit": false,
      "t": 124386.62000000046,
      "d": 123.47201250000217,
      "v": 86
    },
    {
      "midi": 58,
      "hit": false,
      "t": 124386.62000000046,
      "d": 126.52070416667266,
      "v": 86
    },
    {
      "midi": 65,
      "hit": false,
      "t": 124752.46300000047,
      "d": 108.22855416666425,
      "v": 82
    },
    {
      "midi": 61,
      "hit": false,
      "t": 124752.46300000047,
      "d": 126.5207041666581,
      "v": 79
    },
    {
      "midi": 58,
      "hit": false,
      "t": 124752.46300000047,
      "d": 131.09374166665657,
      "v": 83
    },
    {
      "midi": 65,
      "hit": false,
      "t": 125118.30600000046,
      "d": 88.41205833332788,
      "v": 91
    },
    {
      "midi": 58,
      "hit": false,
      "t": 125118.30600000046,
      "d": 115.85028333333321,
      "v": 90
    },
    {
      "midi": 61,
      "hit": false,
      "t": 125118.30600000046,
      "d": 115.85028333333321,
      "v": 90
    },
    {
      "midi": 65,
      "hit": false,
      "t": 125484.14900000046,
      "d": 85.36336666667194,
      "v": 86
    },
    {
      "midi": 58,
      "hit": false,
      "t": 125484.14900000046,
      "d": 118.8989750000037,
      "v": 90
    },
    {
      "midi": 61,
      "hit": false,
      "t": 125484.14900000046,
      "d": 138.71547083334008,
      "v": 86
    },
    {
      "midi": 58,
      "hit": false,
      "t": 125708.22783750047,
      "d": 85.36336666667194,
      "v": 86
    },
    {
      "midi": 61,
      "hit": false,
      "t": 125708.22783750047,
      "d": 138.71547083334008,
      "v": 86
    },
    {
      "midi": 60,
      "hit": false,
      "t": 125849.99199999974,
      "d": 2920.6466166666505,
      "v": 1
    },
    {
      "midi": 63,
      "hit": false,
      "t": 125849.99199999974,
      "d": 2920.6466166666505,
      "v": 1
    },
    {
      "midi": 67,
      "hit": false,
      "t": 125849.99199999974,
      "d": 2920.6466166666505,
      "v": 1
    },
    {
      "midi": 70,
      "hit": false,
      "t": 125849.99199999974,
      "d": 2920.6466166666505,
      "v": 1
    },
    {
      "midi": 58,
      "hit": false,
      "t": 125849.99200000048,
      "d": 88.41205833332788,
      "v": 78
    },
    {
      "midi": 63,
      "hit": false,
      "t": 125849.99200000048,
      "d": 88.41205833332788,
      "v": 94
    },
    {
      "midi": 67,
      "hit": false,
      "t": 125849.99200000048,
      "d": 103.65551666666579,
      "v": 94
    },
    {
      "midi": 60,
      "hit": false,
      "t": 125849.99200000048,
      "d": 108.22855416666425,
      "v": 93
    },
    {
      "midi": 67,
      "hit": false,
      "t": 126215.83500000047,
      "d": 153.95892916666344,
      "v": 89
    },
    {
      "midi": 63,
      "hit": false,
      "t": 126215.83500000047,
      "d": 157.00762083333393,
      "v": 94
    },
    {
      "midi": 60,
      "hit": false,
      "t": 126215.83500000047,
      "d": 161.5806583333324,
      "v": 94
    },
    {
      "midi": 58,
      "hit": false,
      "t": 126215.83500000047,
      "d": 176.8241166666703,
      "v": 80
    },
    {
      "midi": 58,
      "hit": false,
      "t": 126581.67800000048,
      "d": 70.11990833333402,
      "v": 89
    },
    {
      "midi": 63,
      "hit": false,
      "t": 126581.67800000048,
      "d": 108.22855416666425,
      "v": 86
    },
    {
      "midi": 60,
      "hit": false,
      "t": 126581.67800000048,
      "d": 115.85028333333321,
      "v": 82
    },
    {
      "midi": 67,
      "hit": false,
      "t": 126581.67800000048,
      "d": 118.8989750000037,
      "v": 76
    },
    {
      "midi": 58,
      "hit": false,
      "t": 126947.52100000049,
      "d": 70.11990833333402,
      "v": 89
    },
    {
      "midi": 63,
      "hit": false,
      "t": 126947.52100000049,
      "d": 96.03378749999683,
      "v": 86
    },
    {
      "midi": 60,
      "hit": false,
      "t": 126947.52100000049,
      "d": 103.65551666666579,
      "v": 89
    },
    {
      "midi": 67,
      "hit": false,
      "t": 126947.52100000049,
      "d": 118.8989750000037,
      "v": 74
    },
    {
      "midi": 58,
      "hit": false,
      "t": 127313.3640000005,
      "d": 80.79032916667347,
      "v": 89
    },
    {
      "midi": 63,
      "hit": false,
      "t": 127313.3640000005,
      "d": 115.85028333333321,
      "v": 90
    },
    {
      "midi": 67,
      "hit": false,
      "t": 127313.3640000005,
      "d": 115.85028333333321,
      "v": 86
    },
    {
      "midi": 60,
      "hit": false,
      "t": 127313.3640000005,
      "d": 123.47201250000217,
      "v": 89
    },
    {
      "midi": 58,
      "hit": false,
      "t": 127679.2070000005,
      "d": 88.41205833332788,
      "v": 84
    },
    {
      "midi": 67,
      "hit": false,
      "t": 127679.2070000005,
      "d": 111.27724583333475,
      "v": 78
    },
    {
      "midi": 60,
      "hit": false,
      "t": 127679.2070000005,
      "d": 131.09374166667112,
      "v": 82
    },
    {
      "midi": 63,
      "hit": false,
      "t": 127679.2070000005,
      "d": 131.09374166667112,
      "v": 83
    },
    {
      "midi": 67,
      "hit": false,
      "t": 128045.05000000051,
      "d": 111.27724583333475,
      "v": 86
    },
    {
      "midi": 58,
      "hit": false,
      "t": 128045.05000000051,
      "d": 115.85028333333321,
      "v": 80
    },
    {
      "midi": 63,
      "hit": false,
      "t": 128045.05000000051,
      "d": 123.47201250000217,
      "v": 90
    },
    {
      "midi": 60,
      "hit": false,
      "t": 128045.05000000051,
      "d": 126.52070416667266,
      "v": 91
    },
    {
      "midi": 58,
      "hit": false,
      "t": 128410.89300000052,
      "d": 103.65551666666579,
      "v": 86
    },
    {
      "midi": 63,
      "hit": false,
      "t": 128410.89300000052,
      "d": 126.52070416667266,
      "v": 86
    },
    {
      "midi": 60,
      "hit": false,
      "t": 128410.89300000052,
      "d": 131.09374166667112,
      "v": 89
    },
    {
      "midi": 67,
      "hit": false,
      "t": 128410.89300000052,
      "d": 134.14243333334161,
      "v": 86
    },
    {
      "midi": 68,
      "hit": false,
      "t": 128776.73599999971,
      "d": 748.4538041666674,
      "v": 1
    },
    {
      "midi": 65,
      "hit": false,
      "t": 128776.73600000053,
      "d": 111.27724583333475,
      "v": 91
    },
    {
      "midi": 61,
      "hit": false,
      "t": 128776.73600000053,
      "d": 118.8989750000037,
      "v": 98
    },
    {
      "midi": 58,
      "hit": false,
      "t": 128776.73600000053,
      "d": 126.52070416667266,
      "v": 92
    },
    {
      "midi": 65,
      "hit": false,
      "t": 129142.57900000054,
      "d": 141.76416249999602,
      "v": 82
    },
    {
      "midi": 61,
      "hit": false,
      "t": 129142.57900000054,
      "d": 149.38589166666497,
      "v": 90
    },
    {
      "midi": 58,
      "hit": false,
      "t": 129142.57900000054,
      "d": 153.95892916666344,
      "v": 90
    },
    {
      "midi": 67,
      "hit": false,
      "t": 129531.2871874997,
      "d": 733.2103458333295,
      "v": 1
    },
    {
      "midi": 65,
      "hit": false,
      "t": 130270.59491666636,
      "d": 751.5024958333379,
      "v": 1
    },
    {
      "midi": 63,
      "hit": false,
      "t": 131028.19479583303,
      "d": 667.6634750000085,
      "v": 1
    },
    {
      "midi": 56,
      "hit": false,
      "t": 133166.8519999997,
      "d": 1823.1176166666555,
      "v": 1
    },
    {
      "midi": 63,
      "hit": false,
      "t": 133166.8519999997,
      "d": 1823.1176166666555,
      "v": 1
    },
    {
      "midi": 72,
      "hit": false,
      "t": 133166.8519999997,
      "d": 1823.1176166666555,
      "v": 1
    },
    {
      "midi": 60,
      "hit": false,
      "t": 133166.85200000054,
      "d": 57.925141666666605,
      "v": 104
    },
    {
      "midi": 56,
      "hit": false,
      "t": 133166.85200000054,
      "d": 65.54687083332101,
      "v": 86
    },
    {
      "midi": 63,
      "hit": false,
      "t": 133166.85200000054,
      "d": 73.16859999997541,
      "v": 96
    },
    {
      "midi": 44,
      "hit": false,
      "t": 133166.85200000054,
      "d": 111.27724583330564,
      "v": 90
    },
    {
      "midi": 60,
      "hit": false,
      "t": 133532.6950000005,
      "d": 54.876450000010664,
      "v": 79
    },
    {
      "midi": 56,
      "hit": false,
      "t": 133532.6950000005,
      "d": 62.49817916666507,
      "v": 58
    },
    {
      "midi": 63,
      "hit": false,
      "t": 133532.6950000005,
      "d": 62.49817916666507,
      "v": 58
    },
    {
      "midi": 44,
      "hit": false,
      "t": 133532.6950000005,
      "d": 329.2587000000058,
      "v": 83
    },
    {
      "midi": 60,
      "hit": false,
      "t": 133898.5380000005,
      "d": 47.254720833327156,
      "v": 104
    },
    {
      "midi": 56,
      "hit": false,
      "t": 133898.5380000005,
      "d": 62.49817916666507,
      "v": 81
    },
    {
      "midi": 63,
      "hit": false,
      "t": 133898.5380000005,
      "d": 62.49817916666507,
      "v": 84
    },
    {
      "midi": 32,
      "hit": false,
      "t": 133898.5380000005,
      "d": 248.46837083331775,
      "v": 83
    },
    {
      "midi": 60,
      "hit": false,
      "t": 134264.3810000005,
      "d": 42.68168333332869,
      "v": 79
    },
    {
      "midi": 56,
      "hit": false,
      "t": 134264.3810000005,
      "d": 54.87644999998156,
      "v": 56
    },
    {
      "midi": 63,
      "hit": false,
      "t": 134264.3810000005,
      "d": 57.9251416666375,
      "v": 58
    },
    {
      "midi": 60,
      "hit": false,
      "t": 134630.22400000045,
      "d": 54.876450000010664,
      "v": 81
    },
    {
      "midi": 56,
      "hit": false,
      "t": 134630.22400000045,
      "d": 62.49817916666507,
      "v": 61
    },
    {
      "midi": 63,
      "hit": false,
      "t": 134630.22400000045,
      "d": 73.16860000000452,
      "v": 64
    },
    {
      "midi": 53,
      "hit": false,
      "t": 134996.0669999997,
      "d": 359.7456166666525,
      "v": 1
    },
    {
      "midi": 63,
      "hit": false,
      "t": 134996.0669999997,
      "d": 359.7456166666525,
      "v": 1
    },
    {
      "midi": 70,
      "hit": false,
      "t": 134996.0669999997,
      "d": 359.7456166666525,
      "v": 1
    },
    {
      "midi": 60,
      "hit": false,
      "t": 134996.06700000045,
      "d": 62.49817916666507,
      "v": 97
    },
    {
      "midi": 63,
      "hit": false,
      "t": 134996.06700000045,
      "d": 77.74163750000298,
      "v": 76
    },
    {
      "midi": 56,
      "hit": false,
      "t": 134996.06700000045,
      "d": 80.79032916665892,
      "v": 74
    },
    {
      "midi": 56,
      "hit": false,
      "t": 135361.90999999968,
      "d": 1091.4316166666686,
      "v": 1
    },
    {
      "midi": 63,
      "hit": false,
      "t": 135361.90999999968,
      "d": 1091.4316166666686,
      "v": 1
    },
    {
      "midi": 68,
      "hit": false,
      "t": 135361.90999999968,
      "d": 1091.4316166666686,
      "v": 1
    },
    {
      "midi": 60,
      "hit": false,
      "t": 135361.91000000044,
      "d": 85.36336666665738,
      "v": 110
    },
    {
      "midi": 56,
      "hit": false,
      "t": 135361.91000000044,
      "d": 96.03378749999683,
      "v": 94
    },
    {
      "midi": 63,
      "hit": false,
      "t": 135361.91000000044,
      "d": 96.03378749999683,
      "v": 88
    },
    {
      "midi": 60,
      "hit": false,
      "t": 135727.75300000043,
      "d": 70.11990833331947,
      "v": 89
    },
    {
      "midi": 56,
      "hit": false,
      "t": 135727.75300000043,
      "d": 77.74163749997388,
      "v": 66
    },
    {
      "midi": 63,
      "hit": false,
      "t": 135727.75300000043,
      "d": 92.98509583331179,
      "v": 66
    },
    {
      "midi": 44,
      "hit": false,
      "t": 135951.83183750042,
      "d": 73.16860000000452,
      "v": 79
    },
    {
      "midi": 63,
      "hit": false,
      "t": 135951.83183750042,
      "d": 92.98509583334089,
      "v": 59
    },
    {
      "midi": 58,
      "hit": false,
      "t": 136093.59600000043,
      "d": 73.16860000000452,
      "v": 86
    },
    {
      "midi": 61,
      "hit": false,
      "t": 136093.59600000043,
      "d": 80.79032916665892,
      "v": 96
    },
    {
      "midi": 65,
      "hit": false,
      "t": 136093.59600000043,
      "d": 92.98509583331179,
      "v": 107
    },
    {
      "midi": 46,
      "hit": false,
      "t": 136093.59600000043,
      "d": 115.8502833333041,
      "v": 79
    },
    {
      "midi": 56,
      "hit": false,
      "t": 136459.4389999997,
      "d": 176.82411666665575,
      "v": 1
    },
    {
      "midi": 61,
      "hit": false,
      "t": 136459.4389999997,
      "d": 176.82411666665575,
      "v": 1
    },
    {
      "midi": 70,
      "hit": false,
      "t": 136459.4389999997,
      "d": 176.82411666665575,
      "v": 1
    },
    {
      "midi": 58,
      "hit": false,
      "t": 136459.4390000004,
      "d": 54.876450000010664,
      "v": 66
    },
    {
      "midi": 65,
      "hit": false,
      "t": 136459.4390000004,
      "d": 57.925141666666605,
      "v": 84
    },
    {
      "midi": 61,
      "hit": false,
      "t": 136459.4390000004,
      "d": 73.16860000000452,
      "v": 79
    },
    {
      "midi": 46,
      "hit": false,
      "t": 136459.4390000004,
      "d": 321.63697083335137,
      "v": 83
    },
    {
      "midi": 53,
      "hit": false,
      "t": 136642.3604999997,
      "d": 542.6671166666783,
      "v": 1
    },
    {
      "midi": 61,
      "hit": false,
      "t": 136642.3604999997,
      "d": 542.6671166666783,
      "v": 1
    },
    {
      "midi": 70,
      "hit": false,
      "t": 136642.3604999997,
      "d": 542.6671166666783,
      "v": 1
    },
    {
      "midi": 58,
      "hit": false,
      "t": 136825.2820000004,
      "d": 50.3034125000122,
      "v": 64
    },
    {
      "midi": 65,
      "hit": false,
      "t": 136825.2820000004,
      "d": 62.49817916666507,
      "v": 82
    },
    {
      "midi": 61,
      "hit": false,
      "t": 136825.2820000004,
      "d": 73.16860000000452,
      "v": 79
    },
    {
      "midi": 34,
      "hit": false,
      "t": 136825.2820000004,
      "d": 210.35972500001662,
      "v": 103
    },
    {
      "midi": 51,
      "hit": false,
      "t": 137191.1249999997,
      "d": 359.7456166666525,
      "v": 1
    },
    {
      "midi": 61,
      "hit": false,
      "t": 137191.1249999997,
      "d": 359.7456166666525,
      "v": 1
    },
    {
      "midi": 68,
      "hit": false,
      "t": 137191.1249999997,
      "d": 359.7456166666525,
      "v": 1
    },
    {
      "midi": 58,
      "hit": false,
      "t": 137191.12500000044,
      "d": 47.254720833327156,
      "v": 81
    },
    {
      "midi": 65,
      "hit": false,
      "t": 137191.12500000044,
      "d": 50.3034124999831,
      "v": 101
    },
    {
      "midi": 61,
      "hit": false,
      "t": 137191.12500000044,
      "d": 57.9251416666375,
      "v": 93
    },
    {
      "midi": 56,
      "hit": false,
      "t": 137556.9679999997,
      "d": 359.7456166666525,
      "v": 1
    },
    {
      "midi": 61,
      "hit": false,
      "t": 137556.9679999997,
      "d": 359.7456166666525,
      "v": 1
    },
    {
      "midi": 72,
      "hit": false,
      "t": 137556.9679999997,
      "d": 359.7456166666525,
      "v": 1
    },
    {
      "midi": 58,
      "hit": false,
      "t": 137556.9680000004,
      "d": 57.925141666666605,
      "v": 91
    },
    {
      "midi": 65,
      "hit": false,
      "t": 137556.9680000004,
      "d": 65.54687083332101,
      "v": 109
    },
    {
      "midi": 61,
      "hit": false,
      "t": 137556.9680000004,
      "d": 73.16859999997541,
      "v": 103
    },
    {
      "midi": 53,
      "hit": false,
      "t": 137922.8109999997,
      "d": 359.7456166666525,
      "v": 1
    },
    {
      "midi": 61,
      "hit": false,
      "t": 137922.8109999997,
      "d": 359.7456166666525,
      "v": 1
    },
    {
      "midi": 70,
      "hit": false,
      "t": 137922.8109999997,
      "d": 359.7456166666525,
      "v": 1
    },
    {
      "midi": 58,
      "hit": false,
      "t": 137922.81100000037,
      "d": 65.54687083332101,
      "v": 62
    },
    {
      "midi": 65,
      "hit": false,
      "t": 137922.81100000037,
      "d": 77.74163749997388,
      "v": 86
    },
    {
      "midi": 61,
      "hit": false,
      "t": 137922.81100000037,
      "d": 85.36336666662828,
      "v": 74
    },
    {
      "midi": 56,
      "hit": false,
      "t": 138288.6539999997,
      "d": 359.7456166666525,
      "v": 1
    },
    {
      "midi": 61,
      "hit": false,
      "t": 138288.6539999997,
      "d": 359.7456166666525,
      "v": 1
    },
    {
      "midi": 68,
      "hit": false,
      "t": 138288.6539999997,
      "d": 359.7456166666525,
      "v": 1
    },
    {
      "midi": 58,
      "hit": false,
      "t": 138288.65400000033,
      "d": 54.876450000010664,
      "v": 91
    },
    {
      "midi": 65,
      "hit": false,
      "t": 138288.65400000033,
      "d": 57.925141666666605,
      "v": 109
    },
    {
      "midi": 61,
      "hit": false,
      "t": 138288.65400000033,
      "d": 62.49817916666507,
      "v": 99
    },
    {
      "midi": 65,
      "hit": false,
      "t": 138512.73283750034,
      "d": 57.925141666666605,
      "v": 63
    },
    {
      "midi": 53,
      "hit": false,
      "t": 138654.49699999968,
      "d": 359.7456166666525,
      "v": 1
    },
    {
      "midi": 61,
      "hit": false,
      "t": 138654.49699999968,
      "d": 359.7456166666525,
      "v": 1
    },
    {
      "midi": 65,
      "hit": false,
      "t": 138654.49699999968,
      "d": 359.7456166666525,
      "v": 1
    },
    {
      "midi": 58,
      "hit": false,
      "t": 138654.49700000035,
      "d": 50.3034125000122,
      "v": 64
    },
    {
      "midi": 65,
      "hit": false,
      "t": 138654.49700000035,
      "d": 57.925141666666605,
      "v": 84
    },
    {
      "midi": 61,
      "hit": false,
      "t": 138654.49700000035,
      "d": 62.49817916666507,
      "v": 74
    },
    {
      "midi": 65,
      "hit": false,
      "t": 138878.57583750036,
      "d": 57.925141666666605,
      "v": 63
    },
    {
      "midi": 46,
      "hit": false,
      "t": 138878.57583750036,
      "d": 80.79032916665892,
      "v": 86
    },
    {
      "midi": 56,
      "hit": false,
      "t": 139020.33999999968,
      "d": 1823.1176166666555,
      "v": 1
    },
    {
      "midi": 63,
      "hit": false,
      "t": 139020.33999999968,
      "d": 1823.1176166666555,
      "v": 1
    },
    {
      "midi": 72,
      "hit": false,
      "t": 139020.33999999968,
      "d": 1823.1176166666555,
      "v": 1
    },
    {
      "midi": 60,
      "hit": false,
      "t": 139020.34000000035,
      "d": 57.925141666666605,
      "v": 104
    },
    {
      "midi": 56,
      "hit": false,
      "t": 139020.34000000035,
      "d": 65.54687083332101,
      "v": 86
    },
    {
      "midi": 63,
      "hit": false,
      "t": 139020.34000000035,
      "d": 73.16859999997541,
      "v": 96
    },
    {
      "midi": 44,
      "hit": false,
      "t": 139020.34000000035,
      "d": 179.8728083333117,
      "v": 83
    },
    {
      "midi": 60,
      "hit": false,
      "t": 139386.1830000003,
      "d": 54.876450000010664,
      "v": 79
    },
    {
      "midi": 56,
      "hit": false,
      "t": 139386.1830000003,
      "d": 62.49817916666507,
      "v": 58
    },
    {
      "midi": 63,
      "hit": false,
      "t": 139386.1830000003,
      "d": 62.49817916666507,
      "v": 58
    },
    {
      "midi": 44,
      "hit": false,
      "t": 139386.1830000003,
      "d": 301.8204749999859,
      "v": 94
    },
    {
      "midi": 60,
      "hit": false,
      "t": 139752.0260000003,
      "d": 47.254720833327156,
      "v": 104
    },
    {
      "midi": 56,
      "hit": false,
      "t": 139752.0260000003,
      "d": 62.49817916666507,
      "v": 81
    },
    {
      "midi": 63,
      "hit": false,
      "t": 139752.0260000003,
      "d": 62.49817916666507,
      "v": 84
    },
    {
      "midi": 32,
      "hit": false,
      "t": 139752.0260000003,
      "d": 256.09010000000126,
      "v": 83
    },
    {
      "midi": 60,
      "hit": false,
      "t": 140117.8690000003,
      "d": 42.68168333332869,
      "v": 79
    },
    {
      "midi": 56,
      "hit": false,
      "t": 140117.8690000003,
      "d": 54.87644999998156,
      "v": 56
    },
    {
      "midi": 63,
      "hit": false,
      "t": 140117.8690000003,
      "d": 57.9251416666375,
      "v": 58
    },
    {
      "midi": 60,
      "hit": false,
      "t": 140483.71200000026,
      "d": 54.876450000010664,
      "v": 81
    },
    {
      "midi": 56,
      "hit": false,
      "t": 140483.71200000026,
      "d": 62.49817916666507,
      "v": 61
    },
    {
      "midi": 63,
      "hit": false,
      "t": 140483.71200000026,
      "d": 73.16860000000452,
      "v": 64
    },
    {
      "midi": 53,
      "hit": false,
      "t": 140849.55499999967,
      "d": 359.7456166666525,
      "v": 1
    },
    {
      "midi": 63,
      "hit": false,
      "t": 140849.55499999967,
      "d": 359.7456166666525,
      "v": 1
    },
    {
      "midi": 70,
      "hit": false,
      "t": 140849.55499999967,
      "d": 359.7456166666525,
      "v": 1
    },
    {
      "midi": 60,
      "hit": false,
      "t": 140849.55500000025,
      "d": 62.49817916666507,
      "v": 97
    },
    {
      "midi": 63,
      "hit": false,
      "t": 140849.55500000025,
      "d": 77.74163750000298,
      "v": 76
    },
    {
      "midi": 56,
      "hit": false,
      "t": 140849.55500000025,
      "d": 80.79032916665892,
      "v": 74
    },
    {
      "midi": 56,
      "hit": false,
      "t": 141215.39799999967,
      "d": 359.7456166666525,
      "v": 1
    },
    {
      "midi": 63,
      "hit": false,
      "t": 141215.39799999967,
      "d": 359.7456166666525,
      "v": 1
    },
    {
      "midi": 68,
      "hit": false,
      "t": 141215.39799999967,
      "d": 359.7456166666525,
      "v": 1
    },
    {
      "midi": 60,
      "hit": false,
      "t": 141215.39800000025,
      "d": 85.36336666665738,
      "v": 110
    },
    {
      "midi": 56,
      "hit": false,
      "t": 141215.39800000025,
      "d": 96.03378749999683,
      "v": 94
    },
    {
      "midi": 63,
      "hit": false,
      "t": 141215.39800000025,
      "d": 96.03378749999683,
      "v": 88
    },
    {
      "midi": 63,
      "hit": false,
      "t": 141439.47683750023,
      "d": 96.03378749999683,
      "v": 63
    },
    {
      "midi": 53,
      "hit": false,
      "t": 141581.24099999966,
      "d": 237.7979500000074,
      "v": 1
    },
    {
      "midi": 63,
      "hit": false,
      "t": 141581.24099999966,
      "d": 237.7979500000074,
      "v": 1
    },
    {
      "midi": 65,
      "hit": false,
      "t": 141581.24099999966,
      "d": 237.7979500000074,
      "v": 1
    },
    {
      "midi": 60,
      "hit": false,
      "t": 141581.24100000024,
      "d": 70.11990833331947,
      "v": 89
    },
    {
      "midi": 56,
      "hit": false,
      "t": 141581.24100000024,
      "d": 77.74163749997388,
      "v": 66
    },
    {
      "midi": 63,
      "hit": false,
      "t": 141581.24100000024,
      "d": 92.98509583331179,
      "v": 66
    },
    {
      "midi": 44,
      "hit": false,
      "t": 141805.31983750022,
      "d": 50.3034125000122,
      "v": 66
    },
    {
      "midi": 63,
      "hit": false,
      "t": 141805.31983750022,
      "d": 96.03378750002594,
      "v": 63
    },
    {
      "midi": 72,
      "hit": false,
      "t": 141825.136333333,
      "d": 207.31103333333158,
      "v": 1
    },
    {
      "midi": 56,
      "hit": false,
      "t": 141825.136333333,
      "d": 271.33355833331007,
      "v": 1
    },
    {
      "midi": 63,
      "hit": false,
      "t": 141825.136333333,
      "d": 294.1987458333024,
      "v": 1
    },
    {
      "midi": 58,
      "hit": false,
      "t": 141947.08400000026,
      "d": 70.11990833331947,
      "v": 71
    },
    {
      "midi": 61,
      "hit": false,
      "t": 141947.08400000026,
      "d": 92.98509583331179,
      "v": 86
    },
    {
      "midi": 65,
      "hit": false,
      "t": 141947.08400000026,
      "d": 100.6068249999662,
      "v": 94
    },
    {
      "midi": 46,
      "hit": false,
      "t": 141947.08400000026,
      "d": 138.71547083329642,
      "v": 83
    },
    {
      "midi": 53,
      "hit": false,
      "t": 142069.03166666633,
      "d": 786.5624499999685,
      "v": 1
    },
    {
      "midi": 61,
      "hit": false,
      "t": 142069.03166666633,
      "d": 786.5624499999685,
      "v": 1
    },
    {
      "midi": 70,
      "hit": false,
      "t": 142069.03166666633,
      "d": 786.5624499999685,
      "v": 1
    },
    {
      "midi": 58,
      "hit": false,
      "t": 142312.92700000023,
      "d": 62.49817916666507,
      "v": 71
    },
    {
      "midi": 65,
      "hit": false,
      "t": 142312.92700000023,
      "d": 77.74163750000298,
      "v": 86
    },
    {
      "midi": 61,
      "hit": false,
      "t": 142312.92700000023,
      "d": 85.36336666665738,
      "v": 83
    },
    {
      "midi": 46,
      "hit": false,
      "t": 142312.92700000023,
      "d": 314.01524166666786,
      "v": 86
    },
    {
      "midi": 58,
      "hit": false,
      "t": 142678.77000000022,
      "d": 47.254720833327156,
      "v": 66
    },
    {
      "midi": 65,
      "hit": false,
      "t": 142678.77000000022,
      "d": 62.49817916666507,
      "v": 84
    },
    {
      "midi": 61,
      "hit": false,
      "t": 142678.77000000022,
      "d": 65.54687083332101,
      "v": 79
    },
    {
      "midi": 34,
      "hit": false,
      "t": 142678.77000000022,
      "d": 176.82411666665575,
      "v": 98
    },
    {
      "midi": 58,
      "hit": false,
      "t": 143044.61300000022,
      "d": 39.63299166667275,
      "v": 71
    },
    {
      "midi": 61,
      "hit": false,
      "t": 143044.61300000022,
      "d": 54.876450000010664,
      "v": 86
    },
    {
      "midi": 65,
      "hit": false,
      "t": 143044.61300000022,
      "d": 54.876450000010664,
      "v": 91
    },
    {
      "midi": 58,
      "hit": false,
      "t": 143410.45600000024,
      "d": 54.876450000010664,
      "v": 86
    },
    {
      "midi": 65,
      "hit": false,
      "t": 143410.45600000024,
      "d": 54.876450000010664,
      "v": 97
    },
    {
      "midi": 61,
      "hit": false,
      "t": 143410.45600000024,
      "d": 57.925141666666605,
      "v": 94
    },
    {
      "midi": 56,
      "hit": false,
      "t": 144873.82799999963,
      "d": 1823.1176166666555,
      "v": 1
    },
    {
      "midi": 63,
      "hit": false,
      "t": 144873.82799999963,
      "d": 1823.1176166666555,
      "v": 1
    },
    {
      "midi": 72,
      "hit": false,
      "t": 144873.82799999963,
      "d": 1823.1176166666555,
      "v": 1
    },
    {
      "midi": 60,
      "hit": false,
      "t": 144873.82800000024,
      "d": 57.925141666666605,
      "v": 104
    },
    {
      "midi": 56,
      "hit": false,
      "t": 144873.82800000024,
      "d": 65.54687083332101,
      "v": 86
    },
    {
      "midi": 63,
      "hit": false,
      "t": 144873.82800000024,
      "d": 73.16859999997541,
      "v": 96
    },
    {
      "midi": 44,
      "hit": false,
      "t": 144873.82800000024,
      "d": 111.27724583330564,
      "v": 90
    },
    {
      "midi": 60,
      "hit": false,
      "t": 145239.6710000002,
      "d": 54.876450000010664,
      "v": 79
    },
    {
      "midi": 56,
      "hit": false,
      "t": 145239.6710000002,
      "d": 62.49817916666507,
      "v": 58
    },
    {
      "midi": 63,
      "hit": false,
      "t": 145239.6710000002,
      "d": 62.49817916666507,
      "v": 58
    },
    {
      "midi": 44,
      "hit": false,
      "t": 145239.6710000002,
      "d": 329.2587000000058,
      "v": 83
    },
    {
      "midi": 60,
      "hit": false,
      "t": 145605.5140000002,
      "d": 47.254720833327156,
      "v": 104
    },
    {
      "midi": 56,
      "hit": false,
      "t": 145605.5140000002,
      "d": 62.49817916666507,
      "v": 81
    },
    {
      "midi": 63,
      "hit": false,
      "t": 145605.5140000002,
      "d": 62.49817916666507,
      "v": 84
    },
    {
      "midi": 32,
      "hit": false,
      "t": 145605.5140000002,
      "d": 248.46837083331775,
      "v": 83
    },
    {
      "midi": 60,
      "hit": false,
      "t": 145971.3570000002,
      "d": 42.68168333332869,
      "v": 79
    },
    {
      "midi": 56,
      "hit": false,
      "t": 145971.3570000002,
      "d": 54.87644999998156,
      "v": 56
    },
    {
      "midi": 63,
      "hit": false,
      "t": 145971.3570000002,
      "d": 57.9251416666375,
      "v": 58
    },
    {
      "midi": 60,
      "hit": false,
      "t": 146337.20000000016,
      "d": 54.876450000010664,
      "v": 81
    },
    {
      "midi": 56,
      "hit": false,
      "t": 146337.20000000016,
      "d": 62.49817916666507,
      "v": 61
    },
    {
      "midi": 63,
      "hit": false,
      "t": 146337.20000000016,
      "d": 73.16860000000452,
      "v": 64
    },
    {
      "midi": 53,
      "hit": false,
      "t": 146703.04299999963,
      "d": 359.7456166666525,
      "v": 1
    },
    {
      "midi": 63,
      "hit": false,
      "t": 146703.04299999963,
      "d": 359.7456166666525,
      "v": 1
    },
    {
      "midi": 70,
      "hit": false,
      "t": 146703.04299999963,
      "d": 359.7456166666525,
      "v": 1
    },
    {
      "midi": 60,
      "hit": false,
      "t": 146703.04300000015,
      "d": 62.49817916666507,
      "v": 97
    },
    {
      "midi": 63,
      "hit": false,
      "t": 146703.04300000015,
      "d": 77.74163750000298,
      "v": 76
    },
    {
      "midi": 56,
      "hit": false,
      "t": 146703.04300000015,
      "d": 80.79032916665892,
      "v": 74
    },
    {
      "midi": 56,
      "hit": false,
      "t": 147068.88599999962,
      "d": 1091.4316166666686,
      "v": 1
    },
    {
      "midi": 63,
      "hit": false,
      "t": 147068.88599999962,
      "d": 1091.4316166666686,
      "v": 1
    },
    {
      "midi": 68,
      "hit": false,
      "t": 147068.88599999962,
      "d": 1091.4316166666686,
      "v": 1
    },
    {
      "midi": 60,
      "hit": false,
      "t": 147068.88600000014,
      "d": 85.36336666665738,
      "v": 110
    },
    {
      "midi": 56,
      "hit": false,
      "t": 147068.88600000014,
      "d": 96.03378749999683,
      "v": 94
    },
    {
      "midi": 63,
      "hit": false,
      "t": 147068.88600000014,
      "d": 96.03378749999683,
      "v": 88
    },
    {
      "midi": 60,
      "hit": false,
      "t": 147434.72900000014,
      "d": 70.11990833331947,
      "v": 89
    },
    {
      "midi": 56,
      "hit": false,
      "t": 147434.72900000014,
      "d": 77.74163749997388,
      "v": 66
    },
    {
      "midi": 63,
      "hit": false,
      "t": 147434.72900000014,
      "d": 92.98509583331179,
      "v": 66
    },
    {
      "midi": 44,
      "hit": false,
      "t": 147658.80783750012,
      "d": 73.16860000000452,
      "v": 79
    },
    {
      "midi": 63,
      "hit": false,
      "t": 147658.80783750012,
      "d": 92.98509583334089,
      "v": 59
    },
    {
      "midi": 58,
      "hit": false,
      "t": 147800.57200000013,
      "d": 73.16860000000452,
      "v": 86
    },
    {
      "midi": 61,
      "hit": false,
      "t": 147800.57200000013,
      "d": 80.79032916665892,
      "v": 96
    },
    {
      "midi": 65,
      "hit": false,
      "t": 147800.57200000013,
      "d": 92.98509583331179,
      "v": 107
    },
    {
      "midi": 46,
      "hit": false,
      "t": 147800.57200000013,
      "d": 115.8502833333041,
      "v": 79
    },
    {
      "midi": 56,
      "hit": false,
      "t": 148166.41499999963,
      "d": 176.82411666665575,
      "v": 1
    },
    {
      "midi": 61,
      "hit": false,
      "t": 148166.41499999963,
      "d": 176.82411666665575,
      "v": 1
    },
    {
      "midi": 70,
      "hit": false,
      "t": 148166.41499999963,
      "d": 176.82411666665575,
      "v": 1
    },
    {
      "midi": 58,
      "hit": false,
      "t": 148166.4150000001,
      "d": 54.876450000010664,
      "v": 66
    },
    {
      "midi": 65,
      "hit": false,
      "t": 148166.4150000001,
      "d": 57.925141666666605,
      "v": 84
    },
    {
      "midi": 61,
      "hit": false,
      "t": 148166.4150000001,
      "d": 73.16860000000452,
      "v": 79
    },
    {
      "midi": 46,
      "hit": false,
      "t": 148166.4150000001,
      "d": 321.63697083335137,
      "v": 83
    },
    {
      "midi": 53,
      "hit": false,
      "t": 148349.33649999963,
      "d": 542.6671166666783,
      "v": 1
    },
    {
      "midi": 61,
      "hit": false,
      "t": 148349.33649999963,
      "d": 542.6671166666783,
      "v": 1
    },
    {
      "midi": 70,
      "hit": false,
      "t": 148349.33649999963,
      "d": 542.6671166666783,
      "v": 1
    },
    {
      "midi": 58,
      "hit": false,
      "t": 148532.25800000012,
      "d": 50.3034125000122,
      "v": 64
    },
    {
      "midi": 65,
      "hit": false,
      "t": 148532.25800000012,
      "d": 62.49817916666507,
      "v": 82
    },
    {
      "midi": 61,
      "hit": false,
      "t": 148532.25800000012,
      "d": 73.16860000000452,
      "v": 79
    },
    {
      "midi": 34,
      "hit": false,
      "t": 148532.25800000012,
      "d": 210.35972500001662,
      "v": 103
    },
    {
      "midi": 51,
      "hit": false,
      "t": 148898.10099999965,
      "d": 359.7456166666525,
      "v": 1
    },
    {
      "midi": 61,
      "hit": false,
      "t": 148898.10099999965,
      "d": 359.7456166666525,
      "v": 1
    },
    {
      "midi": 68,
      "hit": false,
      "t": 148898.10099999965,
      "d": 359.7456166666525,
      "v": 1
    },
    {
      "midi": 58,
      "hit": false,
      "t": 148898.10100000014,
      "d": 47.254720833327156,
      "v": 81
    },
    {
      "midi": 65,
      "hit": false,
      "t": 148898.10100000014,
      "d": 50.3034124999831,
      "v": 101
    },
    {
      "midi": 61,
      "hit": false,
      "t": 148898.10100000014,
      "d": 57.9251416666375,
      "v": 93
    },
    {
      "midi": 56,
      "hit": false,
      "t": 149263.94399999964,
      "d": 359.7456166666525,
      "v": 1
    },
    {
      "midi": 61,
      "hit": false,
      "t": 149263.94399999964,
      "d": 359.7456166666525,
      "v": 1
    },
    {
      "midi": 72,
      "hit": false,
      "t": 149263.94399999964,
      "d": 359.7456166666525,
      "v": 1
    },
    {
      "midi": 58,
      "hit": false,
      "t": 149263.9440000001,
      "d": 57.925141666666605,
      "v": 91
    },
    {
      "midi": 65,
      "hit": false,
      "t": 149263.9440000001,
      "d": 65.54687083332101,
      "v": 109
    },
    {
      "midi": 61,
      "hit": false,
      "t": 149263.9440000001,
      "d": 73.16859999997541,
      "v": 103
    },
    {
      "midi": 53,
      "hit": false,
      "t": 149629.78699999963,
      "d": 359.7456166666525,
      "v": 1
    },
    {
      "midi": 61,
      "hit": false,
      "t": 149629.78699999963,
      "d": 359.7456166666525,
      "v": 1
    },
    {
      "midi": 70,
      "hit": false,
      "t": 149629.78699999963,
      "d": 359.7456166666525,
      "v": 1
    },
    {
      "midi": 58,
      "hit": false,
      "t": 149629.78700000007,
      "d": 65.54687083332101,
      "v": 62
    },
    {
      "midi": 65,
      "hit": false,
      "t": 149629.78700000007,
      "d": 77.74163749997388,
      "v": 86
    },
    {
      "midi": 61,
      "hit": false,
      "t": 149629.78700000007,
      "d": 85.36336666662828,
      "v": 74
    },
    {
      "midi": 56,
      "hit": false,
      "t": 149995.62999999963,
      "d": 359.7456166666525,
      "v": 1
    },
    {
      "midi": 61,
      "hit": false,
      "t": 149995.62999999963,
      "d": 359.7456166666525,
      "v": 1
    },
    {
      "midi": 68,
      "hit": false,
      "t": 149995.62999999963,
      "d": 359.7456166666525,
      "v": 1
    },
    {
      "midi": 58,
      "hit": false,
      "t": 149995.63000000003,
      "d": 54.876450000010664,
      "v": 91
    },
    {
      "midi": 65,
      "hit": false,
      "t": 149995.63000000003,
      "d": 57.925141666666605,
      "v": 109
    },
    {
      "midi": 61,
      "hit": false,
      "t": 149995.63000000003,
      "d": 62.49817916666507,
      "v": 99
    },
    {
      "midi": 65,
      "hit": false,
      "t": 150219.70883750005,
      "d": 57.925141666666605,
      "v": 63
    },
    {
      "midi": 53,
      "hit": false,
      "t": 150361.47299999962,
      "d": 359.7456166666525,
      "v": 1
    },
    {
      "midi": 61,
      "hit": false,
      "t": 150361.47299999962,
      "d": 359.7456166666525,
      "v": 1
    },
    {
      "midi": 65,
      "hit": false,
      "t": 150361.47299999962,
      "d": 359.7456166666525,
      "v": 1
    },
    {
      "midi": 58,
      "hit": false,
      "t": 150361.47300000006,
      "d": 50.3034125000122,
      "v": 64
    },
    {
      "midi": 65,
      "hit": false,
      "t": 150361.47300000006,
      "d": 57.925141666666605,
      "v": 84
    },
    {
      "midi": 61,
      "hit": false,
      "t": 150361.47300000006,
      "d": 62.49817916666507,
      "v": 74
    },
    {
      "midi": 65,
      "hit": false,
      "t": 150585.55183750007,
      "d": 57.925141666666605,
      "v": 63
    },
    {
      "midi": 46,
      "hit": false,
      "t": 150585.55183750007,
      "d": 80.79032916665892,
      "v": 86
    },
    {
      "midi": 56,
      "hit": false,
      "t": 150727.3159999996,
      "d": 1823.1176166666555,
      "v": 1
    },
    {
      "midi": 63,
      "hit": false,
      "t": 150727.3159999996,
      "d": 1823.1176166666555,
      "v": 1
    },
    {
      "midi": 72,
      "hit": false,
      "t": 150727.3159999996,
      "d": 1823.1176166666555,
      "v": 1
    },
    {
      "midi": 60,
      "hit": false,
      "t": 150727.31600000005,
      "d": 57.925141666666605,
      "v": 104
    },
    {
      "midi": 56,
      "hit": false,
      "t": 150727.31600000005,
      "d": 65.54687083332101,
      "v": 86
    },
    {
      "midi": 63,
      "hit": false,
      "t": 150727.31600000005,
      "d": 73.16859999997541,
      "v": 96
    },
    {
      "midi": 44,
      "hit": false,
      "t": 150727.31600000005,
      "d": 179.8728083333117,
      "v": 83
    },
    {
      "midi": 60,
      "hit": false,
      "t": 151093.159,
      "d": 54.876450000010664,
      "v": 79
    },
    {
      "midi": 56,
      "hit": false,
      "t": 151093.159,
      "d": 62.49817916666507,
      "v": 58
    },
    {
      "midi": 63,
      "hit": false,
      "t": 151093.159,
      "d": 62.49817916666507,
      "v": 58
    },
    {
      "midi": 44,
      "hit": false,
      "t": 151093.159,
      "d": 301.8204749999859,
      "v": 94
    },
    {
      "midi": 60,
      "hit": false,
      "t": 151459.002,
      "d": 47.254720833327156,
      "v": 104
    },
    {
      "midi": 56,
      "hit": false,
      "t": 151459.002,
      "d": 62.49817916666507,
      "v": 81
    },
    {
      "midi": 63,
      "hit": false,
      "t": 151459.002,
      "d": 62.49817916666507,
      "v": 84
    },
    {
      "midi": 32,
      "hit": false,
      "t": 151459.002,
      "d": 256.09010000000126,
      "v": 83
    },
    {
      "midi": 60,
      "hit": false,
      "t": 151824.845,
      "d": 42.68168333332869,
      "v": 79
    },
    {
      "midi": 56,
      "hit": false,
      "t": 151824.845,
      "d": 54.87644999998156,
      "v": 56
    },
    {
      "midi": 63,
      "hit": false,
      "t": 151824.845,
      "d": 57.9251416666375,
      "v": 58
    },
    {
      "midi": 60,
      "hit": false,
      "t": 152190.68799999997,
      "d": 54.876450000010664,
      "v": 81
    },
    {
      "midi": 56,
      "hit": false,
      "t": 152190.68799999997,
      "d": 62.49817916666507,
      "v": 61
    },
    {
      "midi": 63,
      "hit": false,
      "t": 152190.68799999997,
      "d": 73.16860000000452,
      "v": 64
    },
    {
      "midi": 53,
      "hit": false,
      "t": 152556.5309999996,
      "d": 359.7456166666525,
      "v": 1
    },
    {
      "midi": 63,
      "hit": false,
      "t": 152556.5309999996,
      "d": 359.7456166666525,
      "v": 1
    },
    {
      "midi": 70,
      "hit": false,
      "t": 152556.5309999996,
      "d": 359.7456166666525,
      "v": 1
    },
    {
      "midi": 60,
      "hit": false,
      "t": 152556.53099999996,
      "d": 62.49817916666507,
      "v": 97
    },
    {
      "midi": 63,
      "hit": false,
      "t": 152556.53099999996,
      "d": 77.74163750000298,
      "v": 76
    },
    {
      "midi": 56,
      "hit": false,
      "t": 152556.53099999996,
      "d": 80.79032916665892,
      "v": 74
    },
    {
      "midi": 56,
      "hit": false,
      "t": 152922.3739999996,
      "d": 359.7456166666525,
      "v": 1
    },
    {
      "midi": 63,
      "hit": false,
      "t": 152922.3739999996,
      "d": 359.7456166666525,
      "v": 1
    },
    {
      "midi": 68,
      "hit": false,
      "t": 152922.3739999996,
      "d": 359.7456166666525,
      "v": 1
    },
    {
      "midi": 60,
      "hit": false,
      "t": 152922.37399999995,
      "d": 85.36336666665738,
      "v": 110
    },
    {
      "midi": 56,
      "hit": false,
      "t": 152922.37399999995,
      "d": 96.03378749999683,
      "v": 94
    },
    {
      "midi": 63,
      "hit": false,
      "t": 152922.37399999995,
      "d": 96.03378749999683,
      "v": 88
    },
    {
      "midi": 63,
      "hit": false,
      "t": 153146.45283749994,
      "d": 96.03378749999683,
      "v": 63
    },
    {
      "midi": 53,
      "hit": false,
      "t": 153288.2169999996,
      "d": 237.7979500000074,
      "v": 1
    },
    {
      "midi": 63,
      "hit": false,
      "t": 153288.2169999996,
      "d": 237.7979500000074,
      "v": 1
    },
    {
      "midi": 65,
      "hit": false,
      "t": 153288.2169999996,
      "d": 237.7979500000074,
      "v": 1
    },
    {
      "midi": 60,
      "hit": false,
      "t": 153288.21699999995,
      "d": 70.11990833331947,
      "v": 89
    },
    {
      "midi": 56,
      "hit": false,
      "t": 153288.21699999995,
      "d": 77.74163749997388,
      "v": 66
    },
    {
      "midi": 63,
      "hit": false,
      "t": 153288.21699999995,
      "d": 92.98509583331179,
      "v": 66
    },
    {
      "midi": 44,
      "hit": false,
      "t": 153512.29583749993,
      "d": 50.3034125000122,
      "v": 66
    },
    {
      "midi": 63,
      "hit": false,
      "t": 153512.29583749993,
      "d": 96.03378750002594,
      "v": 63
    },
    {
      "midi": 72,
      "hit": false,
      "t": 153532.11233333295,
      "d": 207.31103333333158,
      "v": 1
    },
    {
      "midi": 56,
      "hit": false,
      "t": 153532.11233333295,
      "d": 271.33355833331007,
      "v": 1
    },
    {
      "midi": 63,
      "hit": false,
      "t": 153532.11233333295,
      "d": 294.1987458333024,
      "v": 1
    },
    {
      "midi": 58,
      "hit": false,
      "t": 153654.05999999997,
      "d": 70.11990833331947,
      "v": 71
    },
    {
      "midi": 61,
      "hit": false,
      "t": 153654.05999999997,
      "d": 92.98509583331179,
      "v": 86
    },
    {
      "midi": 65,
      "hit": false,
      "t": 153654.05999999997,
      "d": 100.6068249999662,
      "v": 94
    },
    {
      "midi": 46,
      "hit": false,
      "t": 153654.05999999997,
      "d": 138.71547083329642,
      "v": 83
    },
    {
      "midi": 53,
      "hit": false,
      "t": 153776.00766666626,
      "d": 786.5624499999685,
      "v": 1
    },
    {
      "midi": 61,
      "hit": false,
      "t": 153776.00766666626,
      "d": 786.5624499999685,
      "v": 1
    },
    {
      "midi": 70,
      "hit": false,
      "t": 153776.00766666626,
      "d": 786.5624499999685,
      "v": 1
    },
    {
      "midi": 58,
      "hit": false,
      "t": 154019.90299999993,
      "d": 62.49817916666507,
      "v": 71
    },
    {
      "midi": 65,
      "hit": false,
      "t": 154019.90299999993,
      "d": 77.74163750000298,
      "v": 86
    },
    {
      "midi": 61,
      "hit": false,
      "t": 154019.90299999993,
      "d": 85.36336666665738,
      "v": 83
    },
    {
      "midi": 46,
      "hit": false,
      "t": 154019.90299999993,
      "d": 314.01524166666786,
      "v": 86
    },
    {
      "midi": 58,
      "hit": false,
      "t": 154385.74599999993,
      "d": 47.254720833327156,
      "v": 66
    },
    {
      "midi": 65,
      "hit": false,
      "t": 154385.74599999993,
      "d": 62.49817916666507,
      "v": 84
    },
    {
      "midi": 61,
      "hit": false,
      "t": 154385.74599999993,
      "d": 65.54687083332101,
      "v": 79
    },
    {
      "midi": 34,
      "hit": false,
      "t": 154385.74599999993,
      "d": 176.82411666665575,
      "v": 98
    },
    {
      "midi": 58,
      "hit": false,
      "t": 154751.58899999992,
      "d": 39.63299166667275,
      "v": 71
    },
    {
      "midi": 61,
      "hit": false,
      "t": 154751.58899999992,
      "d": 54.876450000010664,
      "v": 86
    },
    {
      "midi": 65,
      "hit": false,
      "t": 154751.58899999992,
      "d": 54.876450000010664,
      "v": 91
    },
    {
      "midi": 58,
      "hit": false,
      "t": 155117.43199999994,
      "d": 54.876450000010664,
      "v": 86
    },
    {
      "midi": 65,
      "hit": false,
      "t": 155117.43199999994,
      "d": 54.876450000010664,
      "v": 97
    },
    {
      "midi": 61,
      "hit": false,
      "t": 155117.43199999994,
      "d": 57.925141666666605,
      "v": 94
    },
    {
      "midi": 56,
      "hit": false,
      "t": 168287.77999999956,
      "d": 1823.1176166666555,
      "v": 1
    },
    {
      "midi": 63,
      "hit": false,
      "t": 168287.77999999956,
      "d": 1823.1176166666555,
      "v": 1
    },
    {
      "midi": 72,
      "hit": false,
      "t": 168287.77999999956,
      "d": 1823.1176166666555,
      "v": 1
    },
    {
      "midi": 60,
      "hit": false,
      "t": 168287.77999999994,
      "d": 62.49817916666507,
      "v": 104
    },
    {
      "midi": 56,
      "hit": false,
      "t": 168287.77999999994,
      "d": 70.11990833331947,
      "v": 86
    },
    {
      "midi": 63,
      "hit": false,
      "t": 168287.77999999994,
      "d": 80.79032916665892,
      "v": 96
    },
    {
      "midi": 60,
      "hit": false,
      "t": 168653.62299999993,
      "d": 57.925141666666605,
      "v": 79
    },
    {
      "midi": 56,
      "hit": false,
      "t": 168653.62299999993,
      "d": 65.54687083332101,
      "v": 58
    },
    {
      "midi": 63,
      "hit": false,
      "t": 168653.62299999993,
      "d": 65.54687083332101,
      "v": 58
    },
    {
      "midi": 60,
      "hit": false,
      "t": 169019.46599999993,
      "d": 54.876450000010664,
      "v": 104
    },
    {
      "midi": 56,
      "hit": false,
      "t": 169019.46599999993,
      "d": 65.54687083335011,
      "v": 81
    },
    {
      "midi": 63,
      "hit": false,
      "t": 169019.46599999993,
      "d": 70.11990833334858,
      "v": 84
    },
    {
      "midi": 60,
      "hit": false,
      "t": 169385.30899999995,
      "d": 50.3034125000122,
      "v": 79
    },
    {
      "midi": 56,
      "hit": false,
      "t": 169385.30899999995,
      "d": 62.49817916666507,
      "v": 56
    },
    {
      "midi": 63,
      "hit": false,
      "t": 169385.30899999995,
      "d": 62.49817916666507,
      "v": 58
    },
    {
      "midi": 60,
      "hit": false,
      "t": 169751.15199999994,
      "d": 57.925141666666605,
      "v": 81
    },
    {
      "midi": 56,
      "hit": false,
      "t": 169751.15199999994,
      "d": 65.54687083332101,
      "v": 61
    },
    {
      "midi": 63,
      "hit": false,
      "t": 169751.15199999994,
      "d": 77.74163749997388,
      "v": 64
    },
    {
      "midi": 53,
      "hit": false,
      "t": 170116.99499999956,
      "d": 359.7456166666525,
      "v": 1
    },
    {
      "midi": 63,
      "hit": false,
      "t": 170116.99499999956,
      "d": 359.7456166666525,
      "v": 1
    },
    {
      "midi": 70,
      "hit": false,
      "t": 170116.99499999956,
      "d": 359.7456166666525,
      "v": 1
    },
    {
      "midi": 60,
      "hit": false,
      "t": 170116.9949999999,
      "d": 70.11990833331947,
      "v": 97
    },
    {
      "midi": 56,
      "hit": false,
      "t": 170116.9949999999,
      "d": 85.36336666665738,
      "v": 74
    },
    {
      "midi": 63,
      "hit": false,
      "t": 170116.9949999999,
      "d": 85.36336666665738,
      "v": 76
    },
    {
      "midi": 56,
      "hit": false,
      "t": 170482.83799999955,
      "d": 1091.4316166666686,
      "v": 1
    },
    {
      "midi": 63,
      "hit": false,
      "t": 170482.83799999955,
      "d": 1091.4316166666686,
      "v": 1
    },
    {
      "midi": 68,
      "hit": false,
      "t": 170482.83799999955,
      "d": 1091.4316166666686,
      "v": 1
    },
    {
      "midi": 60,
      "hit": false,
      "t": 170482.8379999999,
      "d": 88.41205833334243,
      "v": 110
    },
    {
      "midi": 56,
      "hit": false,
      "t": 170482.8379999999,
      "d": 103.65551666668034,
      "v": 94
    },
    {
      "midi": 63,
      "hit": false,
      "t": 170482.8379999999,
      "d": 103.65551666668034,
      "v": 88
    },
    {
      "midi": 60,
      "hit": false,
      "t": 170848.68099999992,
      "d": 77.74163750000298,
      "v": 89
    },
    {
      "midi": 56,
      "hit": false,
      "t": 170848.68099999992,
      "d": 85.36336666665738,
      "v": 66
    },
    {
      "midi": 63,
      "hit": false,
      "t": 170848.68099999992,
      "d": 96.03378749999683,
      "v": 66
    },
    {
      "midi": 58,
      "hit": false,
      "t": 171214.52399999992,
      "d": 77.74163750000298,
      "v": 86
    },
    {
      "midi": 61,
      "hit": false,
      "t": 171214.52399999992,
      "d": 88.41205833334243,
      "v": 96
    },
    {
      "midi": 65,
      "hit": false,
      "t": 171214.52399999992,
      "d": 100.6068249999953,
      "v": 107
    },
    {
      "midi": 56,
      "hit": false,
      "t": 171580.36699999956,
      "d": 176.82411666665575,
      "v": 1
    },
    {
      "midi": 61,
      "hit": false,
      "t": 171580.36699999956,
      "d": 176.82411666665575,
      "v": 1
    },
    {
      "midi": 70,
      "hit": false,
      "t": 171580.36699999956,
      "d": 176.82411666665575,
      "v": 1
    },
    {
      "midi": 58,
      "hit": false,
      "t": 171580.3669999999,
      "d": 57.925141666666605,
      "v": 66
    },
    {
      "midi": 65,
      "hit": false,
      "t": 171580.3669999999,
      "d": 65.54687083332101,
      "v": 84
    },
    {
      "midi": 61,
      "hit": false,
      "t": 171580.3669999999,
      "d": 80.79032916665892,
      "v": 79
    },
    {
      "midi": 53,
      "hit": false,
      "t": 171763.28849999956,
      "d": 542.6671166666783,
      "v": 1
    },
    {
      "midi": 61,
      "hit": false,
      "t": 171763.28849999956,
      "d": 542.6671166666783,
      "v": 1
    },
    {
      "midi": 70,
      "hit": false,
      "t": 171763.28849999956,
      "d": 542.6671166666783,
      "v": 1
    },
    {
      "midi": 58,
      "hit": false,
      "t": 171946.2099999999,
      "d": 54.876450000010664,
      "v": 64
    },
    {
      "midi": 65,
      "hit": false,
      "t": 171946.2099999999,
      "d": 70.11990833334858,
      "v": 82
    },
    {
      "midi": 61,
      "hit": false,
      "t": 171946.2099999999,
      "d": 80.79032916668802,
      "v": 79
    },
    {
      "midi": 51,
      "hit": false,
      "t": 172312.05299999958,
      "d": 359.7456166666525,
      "v": 1
    },
    {
      "midi": 61,
      "hit": false,
      "t": 172312.05299999958,
      "d": 359.7456166666525,
      "v": 1
    },
    {
      "midi": 68,
      "hit": false,
      "t": 172312.05299999958,
      "d": 359.7456166666525,
      "v": 1
    },
    {
      "midi": 58,
      "hit": false,
      "t": 172312.05299999993,
      "d": 54.876450000010664,
      "v": 81
    },
    {
      "midi": 65,
      "hit": false,
      "t": 172312.05299999993,
      "d": 57.925141666666605,
      "v": 101
    },
    {
      "midi": 61,
      "hit": false,
      "t": 172312.05299999993,
      "d": 65.54687083332101,
      "v": 93
    },
    {
      "midi": 56,
      "hit": false,
      "t": 172677.89599999957,
      "d": 359.7456166666525,
      "v": 1
    },
    {
      "midi": 61,
      "hit": false,
      "t": 172677.89599999957,
      "d": 359.7456166666525,
      "v": 1
    },
    {
      "midi": 72,
      "hit": false,
      "t": 172677.89599999957,
      "d": 359.7456166666525,
      "v": 1
    },
    {
      "midi": 58,
      "hit": false,
      "t": 172677.89599999992,
      "d": 62.49817916666507,
      "v": 91
    },
    {
      "midi": 65,
      "hit": false,
      "t": 172677.89599999992,
      "d": 70.11990833331947,
      "v": 109
    },
    {
      "midi": 61,
      "hit": false,
      "t": 172677.89599999992,
      "d": 77.74163749997388,
      "v": 103
    },
    {
      "midi": 53,
      "hit": false,
      "t": 173043.73899999956,
      "d": 359.7456166666525,
      "v": 1
    },
    {
      "midi": 61,
      "hit": false,
      "t": 173043.73899999956,
      "d": 359.7456166666525,
      "v": 1
    },
    {
      "midi": 70,
      "hit": false,
      "t": 173043.73899999956,
      "d": 359.7456166666525,
      "v": 1
    },
    {
      "midi": 58,
      "hit": false,
      "t": 173043.73899999988,
      "d": 70.11990833331947,
      "v": 62
    },
    {
      "midi": 65,
      "hit": false,
      "t": 173043.73899999988,
      "d": 85.36336666665738,
      "v": 86
    },
    {
      "midi": 61,
      "hit": false,
      "t": 173043.73899999988,
      "d": 92.98509583331179,
      "v": 74
    },
    {
      "midi": 56,
      "hit": false,
      "t": 173409.58199999956,
      "d": 359.7456166666525,
      "v": 1
    },
    {
      "midi": 61,
      "hit": false,
      "t": 173409.58199999956,
      "d": 359.7456166666525,
      "v": 1
    },
    {
      "midi": 68,
      "hit": false,
      "t": 173409.58199999956,
      "d": 359.7456166666525,
      "v": 1
    },
    {
      "midi": 58,
      "hit": false,
      "t": 173409.58199999985,
      "d": 57.925141666666605,
      "v": 91
    },
    {
      "midi": 65,
      "hit": false,
      "t": 173409.58199999985,
      "d": 65.54687083332101,
      "v": 109
    },
    {
      "midi": 61,
      "hit": false,
      "t": 173409.58199999985,
      "d": 70.11990833331947,
      "v": 99
    },
    {
      "midi": 53,
      "hit": false,
      "t": 173775.42499999955,
      "d": 359.7456166666525,
      "v": 1
    },
    {
      "midi": 61,
      "hit": false,
      "t": 173775.42499999955,
      "d": 359.7456166666525,
      "v": 1
    },
    {
      "midi": 65,
      "hit": false,
      "t": 173775.42499999955,
      "d": 359.7456166666525,
      "v": 1
    },
    {
      "midi": 58,
      "hit": false,
      "t": 173775.42499999984,
      "d": 54.876450000010664,
      "v": 64
    },
    {
      "midi": 65,
      "hit": false,
      "t": 173775.42499999984,
      "d": 62.49817916666507,
      "v": 84
    },
    {
      "midi": 61,
      "hit": false,
      "t": 173775.42499999984,
      "d": 65.54687083332101,
      "v": 74
    },
    {
      "midi": 56,
      "hit": false,
      "t": 174141.26799999955,
      "d": 1823.1176166666555,
      "v": 1
    },
    {
      "midi": 63,
      "hit": false,
      "t": 174141.26799999955,
      "d": 1823.1176166666555,
      "v": 1
    },
    {
      "midi": 72,
      "hit": false,
      "t": 174141.26799999955,
      "d": 1823.1176166666555,
      "v": 1
    },
    {
      "midi": 60,
      "hit": false,
      "t": 174141.26799999984,
      "d": 62.49817916666507,
      "v": 104
    },
    {
      "midi": 56,
      "hit": false,
      "t": 174141.26799999984,
      "d": 70.11990833331947,
      "v": 86
    },
    {
      "midi": 63,
      "hit": false,
      "t": 174141.26799999984,
      "d": 80.79032916665892,
      "v": 96
    },
    {
      "midi": 60,
      "hit": false,
      "t": 174507.11099999983,
      "d": 57.925141666666605,
      "v": 79
    },
    {
      "midi": 56,
      "hit": false,
      "t": 174507.11099999983,
      "d": 65.54687083332101,
      "v": 58
    },
    {
      "midi": 63,
      "hit": false,
      "t": 174507.11099999983,
      "d": 65.54687083332101,
      "v": 58
    },
    {
      "midi": 60,
      "hit": false,
      "t": 174872.95399999982,
      "d": 54.876450000010664,
      "v": 104
    },
    {
      "midi": 56,
      "hit": false,
      "t": 174872.95399999982,
      "d": 65.54687083335011,
      "v": 81
    },
    {
      "midi": 63,
      "hit": false,
      "t": 174872.95399999982,
      "d": 70.11990833334858,
      "v": 84
    },
    {
      "midi": 60,
      "hit": false,
      "t": 175238.79699999985,
      "d": 50.3034125000122,
      "v": 79
    },
    {
      "midi": 56,
      "hit": false,
      "t": 175238.79699999985,
      "d": 62.49817916666507,
      "v": 56
    },
    {
      "midi": 63,
      "hit": false,
      "t": 175238.79699999985,
      "d": 62.49817916666507,
      "v": 58
    },
    {
      "midi": 60,
      "hit": false,
      "t": 175604.63999999984,
      "d": 57.925141666666605,
      "v": 81
    },
    {
      "midi": 56,
      "hit": false,
      "t": 175604.63999999984,
      "d": 65.54687083332101,
      "v": 61
    },
    {
      "midi": 63,
      "hit": false,
      "t": 175604.63999999984,
      "d": 77.74163749997388,
      "v": 64
    },
    {
      "midi": 53,
      "hit": false,
      "t": 175970.48299999954,
      "d": 359.7456166666525,
      "v": 1
    },
    {
      "midi": 63,
      "hit": false,
      "t": 175970.48299999954,
      "d": 359.7456166666525,
      "v": 1
    },
    {
      "midi": 70,
      "hit": false,
      "t": 175970.48299999954,
      "d": 359.7456166666525,
      "v": 1
    },
    {
      "midi": 60,
      "hit": false,
      "t": 175970.4829999998,
      "d": 70.11990833331947,
      "v": 97
    },
    {
      "midi": 56,
      "hit": false,
      "t": 175970.4829999998,
      "d": 85.36336666665738,
      "v": 74
    },
    {
      "midi": 63,
      "hit": false,
      "t": 175970.4829999998,
      "d": 85.36336666665738,
      "v": 76
    },
    {
      "midi": 56,
      "hit": false,
      "t": 176336.32599999954,
      "d": 359.7456166666525,
      "v": 1
    },
    {
      "midi": 63,
      "hit": false,
      "t": 176336.32599999954,
      "d": 359.7456166666525,
      "v": 1
    },
    {
      "midi": 68,
      "hit": false,
      "t": 176336.32599999954,
      "d": 359.7456166666525,
      "v": 1
    },
    {
      "midi": 60,
      "hit": false,
      "t": 176336.3259999998,
      "d": 88.41205833334243,
      "v": 110
    },
    {
      "midi": 56,
      "hit": false,
      "t": 176336.3259999998,
      "d": 103.65551666668034,
      "v": 94
    },
    {
      "midi": 63,
      "hit": false,
      "t": 176336.3259999998,
      "d": 103.65551666668034,
      "v": 88
    },
    {
      "midi": 53,
      "hit": false,
      "t": 176702.16899999953,
      "d": 237.7979500000074,
      "v": 1
    },
    {
      "midi": 63,
      "hit": false,
      "t": 176702.16899999953,
      "d": 237.7979500000074,
      "v": 1
    },
    {
      "midi": 65,
      "hit": false,
      "t": 176702.16899999953,
      "d": 237.7979500000074,
      "v": 1
    },
    {
      "midi": 60,
      "hit": false,
      "t": 176702.16899999982,
      "d": 77.74163750000298,
      "v": 89
    },
    {
      "midi": 56,
      "hit": false,
      "t": 176702.16899999982,
      "d": 85.36336666665738,
      "v": 66
    },
    {
      "midi": 63,
      "hit": false,
      "t": 176702.16899999982,
      "d": 96.03378749999683,
      "v": 66
    },
    {
      "midi": 72,
      "hit": false,
      "t": 176946.06433333288,
      "d": 207.31103333333158,
      "v": 1
    },
    {
      "midi": 56,
      "hit": false,
      "t": 176946.06433333288,
      "d": 271.33355833331007,
      "v": 1
    },
    {
      "midi": 63,
      "hit": false,
      "t": 176946.06433333288,
      "d": 294.1987458333024,
      "v": 1
    },
    {
      "midi": 53,
      "hit": false,
      "t": 177189.9596666662,
      "d": 786.5624499999685,
      "v": 1
    },
    {
      "midi": 61,
      "hit": false,
      "t": 177189.9596666662,
      "d": 786.5624499999685,
      "v": 1
    },
    {
      "midi": 70,
      "hit": false,
      "t": 177189.9596666662,
      "d": 786.5624499999685,
      "v": 1
    },
    {
      "midi": 56,
      "hit": false,
      "t": 179994.7559999995,
      "d": 1823.1176166666555,
      "v": 1
    },
    {
      "midi": 63,
      "hit": false,
      "t": 179994.7559999995,
      "d": 1823.1176166666555,
      "v": 1
    },
    {
      "midi": 72,
      "hit": false,
      "t": 179994.7559999995,
      "d": 1823.1176166666555,
      "v": 1
    },
    {
      "midi": 60,
      "hit": false,
      "t": 179994.75599999982,
      "d": 57.925141666666605,
      "v": 104
    },
    {
      "midi": 56,
      "hit": false,
      "t": 179994.75599999982,
      "d": 65.54687083332101,
      "v": 86
    },
    {
      "midi": 63,
      "hit": false,
      "t": 179994.75599999982,
      "d": 73.16859999997541,
      "v": 96
    },
    {
      "midi": 44,
      "hit": false,
      "t": 179994.75599999982,
      "d": 111.27724583330564,
      "v": 90
    },
    {
      "midi": 60,
      "hit": false,
      "t": 180360.59899999978,
      "d": 54.876450000010664,
      "v": 79
    },
    {
      "midi": 56,
      "hit": false,
      "t": 180360.59899999978,
      "d": 62.49817916666507,
      "v": 58
    },
    {
      "midi": 63,
      "hit": false,
      "t": 180360.59899999978,
      "d": 62.49817916666507,
      "v": 58
    },
    {
      "midi": 44,
      "hit": false,
      "t": 180360.59899999978,
      "d": 329.2587000000058,
      "v": 83
    },
    {
      "midi": 60,
      "hit": false,
      "t": 180726.44199999978,
      "d": 47.254720833327156,
      "v": 104
    },
    {
      "midi": 56,
      "hit": false,
      "t": 180726.44199999978,
      "d": 62.49817916666507,
      "v": 81
    },
    {
      "midi": 63,
      "hit": false,
      "t": 180726.44199999978,
      "d": 62.49817916666507,
      "v": 84
    },
    {
      "midi": 32,
      "hit": false,
      "t": 180726.44199999978,
      "d": 248.46837083331775,
      "v": 83
    },
    {
      "midi": 60,
      "hit": false,
      "t": 181092.28499999977,
      "d": 42.68168333332869,
      "v": 79
    },
    {
      "midi": 56,
      "hit": false,
      "t": 181092.28499999977,
      "d": 54.87644999998156,
      "v": 56
    },
    {
      "midi": 63,
      "hit": false,
      "t": 181092.28499999977,
      "d": 57.9251416666375,
      "v": 58
    },
    {
      "midi": 60,
      "hit": false,
      "t": 181458.12799999974,
      "d": 54.876450000010664,
      "v": 81
    },
    {
      "midi": 56,
      "hit": false,
      "t": 181458.12799999974,
      "d": 62.49817916666507,
      "v": 61
    },
    {
      "midi": 63,
      "hit": false,
      "t": 181458.12799999974,
      "d": 73.16860000000452,
      "v": 64
    },
    {
      "midi": 53,
      "hit": false,
      "t": 181823.9709999995,
      "d": 359.7456166666525,
      "v": 1
    },
    {
      "midi": 63,
      "hit": false,
      "t": 181823.9709999995,
      "d": 359.7456166666525,
      "v": 1
    },
    {
      "midi": 70,
      "hit": false,
      "t": 181823.9709999995,
      "d": 359.7456166666525,
      "v": 1
    },
    {
      "midi": 60,
      "hit": false,
      "t": 181823.97099999973,
      "d": 62.49817916666507,
      "v": 97
    },
    {
      "midi": 63,
      "hit": false,
      "t": 181823.97099999973,
      "d": 77.74163750000298,
      "v": 76
    },
    {
      "midi": 56,
      "hit": false,
      "t": 181823.97099999973,
      "d": 80.79032916665892,
      "v": 74
    },
    {
      "midi": 56,
      "hit": false,
      "t": 182189.8139999995,
      "d": 1091.4316166666686,
      "v": 1
    },
    {
      "midi": 63,
      "hit": false,
      "t": 182189.8139999995,
      "d": 1091.4316166666686,
      "v": 1
    },
    {
      "midi": 68,
      "hit": false,
      "t": 182189.8139999995,
      "d": 1091.4316166666686,
      "v": 1
    },
    {
      "midi": 60,
      "hit": false,
      "t": 182189.81399999972,
      "d": 85.36336666665738,
      "v": 110
    },
    {
      "midi": 56,
      "hit": false,
      "t": 182189.81399999972,
      "d": 96.03378749999683,
      "v": 94
    },
    {
      "midi": 63,
      "hit": false,
      "t": 182189.81399999972,
      "d": 96.03378749999683,
      "v": 88
    },
    {
      "midi": 60,
      "hit": false,
      "t": 182555.65699999972,
      "d": 70.11990833331947,
      "v": 89
    },
    {
      "midi": 56,
      "hit": false,
      "t": 182555.65699999972,
      "d": 77.74163749997388,
      "v": 66
    },
    {
      "midi": 63,
      "hit": false,
      "t": 182555.65699999972,
      "d": 92.98509583331179,
      "v": 66
    },
    {
      "midi": 44,
      "hit": false,
      "t": 182779.7358374997,
      "d": 73.16860000000452,
      "v": 79
    },
    {
      "midi": 63,
      "hit": false,
      "t": 182779.7358374997,
      "d": 92.98509583334089,
      "v": 59
    },
    {
      "midi": 58,
      "hit": false,
      "t": 182921.4999999997,
      "d": 73.16860000000452,
      "v": 86
    },
    {
      "midi": 61,
      "hit": false,
      "t": 182921.4999999997,
      "d": 80.79032916665892,
      "v": 96
    },
    {
      "midi": 65,
      "hit": false,
      "t": 182921.4999999997,
      "d": 92.98509583331179,
      "v": 107
    },
    {
      "midi": 46,
      "hit": false,
      "t": 182921.4999999997,
      "d": 115.8502833333041,
      "v": 79
    },
    {
      "midi": 56,
      "hit": false,
      "t": 183287.3429999995,
      "d": 176.82411666665575,
      "v": 1
    },
    {
      "midi": 61,
      "hit": false,
      "t": 183287.3429999995,
      "d": 176.82411666665575,
      "v": 1
    },
    {
      "midi": 70,
      "hit": false,
      "t": 183287.3429999995,
      "d": 176.82411666665575,
      "v": 1
    },
    {
      "midi": 58,
      "hit": false,
      "t": 183287.34299999967,
      "d": 54.876450000010664,
      "v": 66
    },
    {
      "midi": 65,
      "hit": false,
      "t": 183287.34299999967,
      "d": 57.925141666666605,
      "v": 84
    },
    {
      "midi": 61,
      "hit": false,
      "t": 183287.34299999967,
      "d": 73.16860000000452,
      "v": 79
    },
    {
      "midi": 46,
      "hit": false,
      "t": 183287.34299999967,
      "d": 321.63697083335137,
      "v": 83
    },
    {
      "midi": 53,
      "hit": false,
      "t": 183470.2644999995,
      "d": 542.6671166666783,
      "v": 1
    },
    {
      "midi": 61,
      "hit": false,
      "t": 183470.2644999995,
      "d": 542.6671166666783,
      "v": 1
    },
    {
      "midi": 70,
      "hit": false,
      "t": 183470.2644999995,
      "d": 542.6671166666783,
      "v": 1
    },
    {
      "midi": 58,
      "hit": false,
      "t": 183653.1859999997,
      "d": 50.3034125000122,
      "v": 64
    },
    {
      "midi": 65,
      "hit": false,
      "t": 183653.1859999997,
      "d": 62.49817916666507,
      "v": 82
    },
    {
      "midi": 61,
      "hit": false,
      "t": 183653.1859999997,
      "d": 73.16860000000452,
      "v": 79
    },
    {
      "midi": 34,
      "hit": false,
      "t": 183653.1859999997,
      "d": 210.35972500001662,
      "v": 103
    },
    {
      "midi": 51,
      "hit": false,
      "t": 184019.02899999951,
      "d": 359.7456166666525,
      "v": 1
    },
    {
      "midi": 61,
      "hit": false,
      "t": 184019.02899999951,
      "d": 359.7456166666525,
      "v": 1
    },
    {
      "midi": 68,
      "hit": false,
      "t": 184019.02899999951,
      "d": 359.7456166666525,
      "v": 1
    },
    {
      "midi": 58,
      "hit": false,
      "t": 184019.02899999972,
      "d": 47.254720833327156,
      "v": 81
    },
    {
      "midi": 65,
      "hit": false,
      "t": 184019.02899999972,
      "d": 50.3034124999831,
      "v": 101
    },
    {
      "midi": 61,
      "hit": false,
      "t": 184019.02899999972,
      "d": 57.9251416666375,
      "v": 93
    },
    {
      "midi": 56,
      "hit": false,
      "t": 184384.8719999995,
      "d": 359.7456166666525,
      "v": 1
    },
    {
      "midi": 61,
      "hit": false,
      "t": 184384.8719999995,
      "d": 359.7456166666525,
      "v": 1
    },
    {
      "midi": 72,
      "hit": false,
      "t": 184384.8719999995,
      "d": 359.7456166666525,
      "v": 1
    },
    {
      "midi": 58,
      "hit": false,
      "t": 184384.87199999968,
      "d": 57.925141666666605,
      "v": 91
    },
    {
      "midi": 65,
      "hit": false,
      "t": 184384.87199999968,
      "d": 65.54687083332101,
      "v": 109
    },
    {
      "midi": 61,
      "hit": false,
      "t": 184384.87199999968,
      "d": 73.16859999997541,
      "v": 103
    },
    {
      "midi": 53,
      "hit": false,
      "t": 184750.7149999995,
      "d": 359.7456166666525,
      "v": 1
    },
    {
      "midi": 61,
      "hit": false,
      "t": 184750.7149999995,
      "d": 359.7456166666525,
      "v": 1
    },
    {
      "midi": 70,
      "hit": false,
      "t": 184750.7149999995,
      "d": 359.7456166666525,
      "v": 1
    },
    {
      "midi": 58,
      "hit": false,
      "t": 184750.71499999965,
      "d": 65.54687083332101,
      "v": 62
    },
    {
      "midi": 65,
      "hit": false,
      "t": 184750.71499999965,
      "d": 77.74163749997388,
      "v": 86
    },
    {
      "midi": 61,
      "hit": false,
      "t": 184750.71499999965,
      "d": 85.36336666662828,
      "v": 74
    },
    {
      "midi": 56,
      "hit": false,
      "t": 185116.5579999995,
      "d": 359.7456166666525,
      "v": 1
    },
    {
      "midi": 61,
      "hit": false,
      "t": 185116.5579999995,
      "d": 359.7456166666525,
      "v": 1
    },
    {
      "midi": 68,
      "hit": false,
      "t": 185116.5579999995,
      "d": 359.7456166666525,
      "v": 1
    },
    {
      "midi": 58,
      "hit": false,
      "t": 185116.5579999996,
      "d": 54.876450000010664,
      "v": 91
    },
    {
      "midi": 65,
      "hit": false,
      "t": 185116.5579999996,
      "d": 57.925141666666605,
      "v": 109
    },
    {
      "midi": 61,
      "hit": false,
      "t": 185116.5579999996,
      "d": 62.49817916666507,
      "v": 99
    },
    {
      "midi": 65,
      "hit": false,
      "t": 185340.63683749962,
      "d": 57.925141666666605,
      "v": 63
    },
    {
      "midi": 53,
      "hit": false,
      "t": 185482.4009999995,
      "d": 359.7456166666525,
      "v": 1
    },
    {
      "midi": 61,
      "hit": false,
      "t": 185482.4009999995,
      "d": 359.7456166666525,
      "v": 1
    },
    {
      "midi": 65,
      "hit": false,
      "t": 185482.4009999995,
      "d": 359.7456166666525,
      "v": 1
    },
    {
      "midi": 58,
      "hit": false,
      "t": 185482.40099999963,
      "d": 50.3034125000122,
      "v": 64
    },
    {
      "midi": 65,
      "hit": false,
      "t": 185482.40099999963,
      "d": 57.925141666666605,
      "v": 84
    },
    {
      "midi": 61,
      "hit": false,
      "t": 185482.40099999963,
      "d": 62.49817916666507,
      "v": 74
    },
    {
      "midi": 65,
      "hit": false,
      "t": 185706.47983749965,
      "d": 57.925141666666605,
      "v": 63
    },
    {
      "midi": 46,
      "hit": false,
      "t": 185706.47983749965,
      "d": 80.79032916665892,
      "v": 86
    },
    {
      "midi": 56,
      "hit": false,
      "t": 185848.24399999948,
      "d": 1823.1176166666555,
      "v": 1
    },
    {
      "midi": 63,
      "hit": false,
      "t": 185848.24399999948,
      "d": 1823.1176166666555,
      "v": 1
    },
    {
      "midi": 72,
      "hit": false,
      "t": 185848.24399999948,
      "d": 1823.1176166666555,
      "v": 1
    },
    {
      "midi": 60,
      "hit": false,
      "t": 185848.24399999963,
      "d": 57.925141666666605,
      "v": 104
    },
    {
      "midi": 56,
      "hit": false,
      "t": 185848.24399999963,
      "d": 65.54687083332101,
      "v": 86
    },
    {
      "midi": 63,
      "hit": false,
      "t": 185848.24399999963,
      "d": 73.16859999997541,
      "v": 96
    },
    {
      "midi": 44,
      "hit": false,
      "t": 185848.24399999963,
      "d": 179.8728083333117,
      "v": 83
    },
    {
      "midi": 60,
      "hit": false,
      "t": 186214.0869999996,
      "d": 54.876450000010664,
      "v": 79
    },
    {
      "midi": 56,
      "hit": false,
      "t": 186214.0869999996,
      "d": 62.49817916666507,
      "v": 58
    },
    {
      "midi": 63,
      "hit": false,
      "t": 186214.0869999996,
      "d": 62.49817916666507,
      "v": 58
    },
    {
      "midi": 44,
      "hit": false,
      "t": 186214.0869999996,
      "d": 301.8204749999859,
      "v": 94
    },
    {
      "midi": 60,
      "hit": false,
      "t": 186579.9299999996,
      "d": 47.254720833327156,
      "v": 104
    },
    {
      "midi": 56,
      "hit": false,
      "t": 186579.9299999996,
      "d": 62.49817916666507,
      "v": 81
    },
    {
      "midi": 63,
      "hit": false,
      "t": 186579.9299999996,
      "d": 62.49817916666507,
      "v": 84
    },
    {
      "midi": 32,
      "hit": false,
      "t": 186579.9299999996,
      "d": 256.09010000000126,
      "v": 83
    },
    {
      "midi": 60,
      "hit": false,
      "t": 186945.77299999958,
      "d": 42.68168333332869,
      "v": 79
    },
    {
      "midi": 56,
      "hit": false,
      "t": 186945.77299999958,
      "d": 54.87644999998156,
      "v": 56
    },
    {
      "midi": 63,
      "hit": false,
      "t": 186945.77299999958,
      "d": 57.9251416666375,
      "v": 58
    },
    {
      "midi": 60,
      "hit": false,
      "t": 187311.61599999954,
      "d": 54.876450000010664,
      "v": 81
    },
    {
      "midi": 56,
      "hit": false,
      "t": 187311.61599999954,
      "d": 62.49817916666507,
      "v": 61
    },
    {
      "midi": 63,
      "hit": false,
      "t": 187311.61599999954,
      "d": 73.16860000000452,
      "v": 64
    },
    {
      "midi": 53,
      "hit": false,
      "t": 187677.45899999948,
      "d": 359.7456166666525,
      "v": 1
    },
    {
      "midi": 63,
      "hit": false,
      "t": 187677.45899999948,
      "d": 359.7456166666525,
      "v": 1
    },
    {
      "midi": 70,
      "hit": false,
      "t": 187677.45899999948,
      "d": 359.7456166666525,
      "v": 1
    },
    {
      "midi": 60,
      "hit": false,
      "t": 187677.45899999954,
      "d": 62.49817916666507,
      "v": 97
    },
    {
      "midi": 63,
      "hit": false,
      "t": 187677.45899999954,
      "d": 77.74163750000298,
      "v": 76
    },
    {
      "midi": 56,
      "hit": false,
      "t": 187677.45899999954,
      "d": 80.79032916665892,
      "v": 74
    },
    {
      "midi": 56,
      "hit": false,
      "t": 188043.30199999947,
      "d": 359.7456166666525,
      "v": 1
    },
    {
      "midi": 63,
      "hit": false,
      "t": 188043.30199999947,
      "d": 359.7456166666525,
      "v": 1
    },
    {
      "midi": 68,
      "hit": false,
      "t": 188043.30199999947,
      "d": 359.7456166666525,
      "v": 1
    },
    {
      "midi": 60,
      "hit": false,
      "t": 188043.30199999953,
      "d": 85.36336666665738,
      "v": 110
    },
    {
      "midi": 56,
      "hit": false,
      "t": 188043.30199999953,
      "d": 96.03378749999683,
      "v": 94
    },
    {
      "midi": 63,
      "hit": false,
      "t": 188043.30199999953,
      "d": 96.03378749999683,
      "v": 88
    },
    {
      "midi": 63,
      "hit": false,
      "t": 188267.3808374995,
      "d": 96.03378749999683,
      "v": 63
    },
    {
      "midi": 53,
      "hit": false,
      "t": 188409.14499999947,
      "d": 237.7979500000074,
      "v": 1
    },
    {
      "midi": 63,
      "hit": false,
      "t": 188409.14499999947,
      "d": 237.7979500000074,
      "v": 1
    },
    {
      "midi": 65,
      "hit": false,
      "t": 188409.14499999947,
      "d": 237.7979500000074,
      "v": 1
    },
    {
      "midi": 60,
      "hit": false,
      "t": 188409.14499999952,
      "d": 70.11990833331947,
      "v": 89
    },
    {
      "midi": 56,
      "hit": false,
      "t": 188409.14499999952,
      "d": 77.74163749997388,
      "v": 66
    },
    {
      "midi": 63,
      "hit": false,
      "t": 188409.14499999952,
      "d": 92.98509583331179,
      "v": 66
    },
    {
      "midi": 44,
      "hit": false,
      "t": 188633.2238374995,
      "d": 50.3034125000122,
      "v": 66
    },
    {
      "midi": 63,
      "hit": false,
      "t": 188633.2238374995,
      "d": 96.03378750002594,
      "v": 63
    },
    {
      "midi": 72,
      "hit": false,
      "t": 188653.0403333328,
      "d": 207.31103333333158,
      "v": 1
    },
    {
      "midi": 56,
      "hit": false,
      "t": 188653.0403333328,
      "d": 271.33355833331007,
      "v": 1
    },
    {
      "midi": 63,
      "hit": false,
      "t": 188653.0403333328,
      "d": 294.1987458333024,
      "v": 1
    },
    {
      "midi": 58,
      "hit": false,
      "t": 188774.98799999955,
      "d": 70.11990833331947,
      "v": 71
    },
    {
      "midi": 61,
      "hit": false,
      "t": 188774.98799999955,
      "d": 92.98509583331179,
      "v": 86
    },
    {
      "midi": 65,
      "hit": false,
      "t": 188774.98799999955,
      "d": 100.6068249999662,
      "v": 94
    },
    {
      "midi": 46,
      "hit": false,
      "t": 188774.98799999955,
      "d": 138.71547083329642,
      "v": 83
    },
    {
      "midi": 53,
      "hit": false,
      "t": 188896.93566666613,
      "d": 786.5624499999685,
      "v": 1
    },
    {
      "midi": 61,
      "hit": false,
      "t": 188896.93566666613,
      "d": 786.5624499999685,
      "v": 1
    },
    {
      "midi": 70,
      "hit": false,
      "t": 188896.93566666613,
      "d": 786.5624499999685,
      "v": 1
    },
    {
      "midi": 58,
      "hit": false,
      "t": 189140.8309999995,
      "d": 62.49817916666507,
      "v": 71
    },
    {
      "midi": 65,
      "hit": false,
      "t": 189140.8309999995,
      "d": 77.74163750000298,
      "v": 86
    },
    {
      "midi": 61,
      "hit": false,
      "t": 189140.8309999995,
      "d": 85.36336666665738,
      "v": 83
    },
    {
      "midi": 46,
      "hit": false,
      "t": 189140.8309999995,
      "d": 314.01524166666786,
      "v": 86
    },
    {
      "midi": 58,
      "hit": false,
      "t": 189506.6739999995,
      "d": 47.254720833327156,
      "v": 66
    },
    {
      "midi": 65,
      "hit": false,
      "t": 189506.6739999995,
      "d": 62.49817916666507,
      "v": 84
    },
    {
      "midi": 61,
      "hit": false,
      "t": 189506.6739999995,
      "d": 65.54687083332101,
      "v": 79
    },
    {
      "midi": 34,
      "hit": false,
      "t": 189506.6739999995,
      "d": 176.82411666665575,
      "v": 98
    },
    {
      "midi": 58,
      "hit": false,
      "t": 189872.5169999995,
      "d": 39.63299166667275,
      "v": 71
    },
    {
      "midi": 61,
      "hit": false,
      "t": 189872.5169999995,
      "d": 54.876450000010664,
      "v": 86
    },
    {
      "midi": 65,
      "hit": false,
      "t": 189872.5169999995,
      "d": 54.876450000010664,
      "v": 91
    },
    {
      "midi": 58,
      "hit": false,
      "t": 190238.35999999952,
      "d": 54.876450000010664,
      "v": 86
    },
    {
      "midi": 65,
      "hit": false,
      "t": 190238.35999999952,
      "d": 54.876450000010664,
      "v": 97
    },
    {
      "midi": 61,
      "hit": false,
      "t": 190238.35999999952,
      "d": 57.925141666666605,
      "v": 94
    },
    {
      "midi": 56,
      "hit": false,
      "t": 191701.73199999944,
      "d": 1823.1176166666555,
      "v": 1
    },
    {
      "midi": 63,
      "hit": false,
      "t": 191701.73199999944,
      "d": 1823.1176166666555,
      "v": 1
    },
    {
      "midi": 72,
      "hit": false,
      "t": 191701.73199999944,
      "d": 1823.1176166666555,
      "v": 1
    },
    {
      "midi": 60,
      "hit": false,
      "t": 191701.73199999952,
      "d": 57.925141666666605,
      "v": 104
    },
    {
      "midi": 56,
      "hit": false,
      "t": 191701.73199999952,
      "d": 65.54687083332101,
      "v": 86
    },
    {
      "midi": 63,
      "hit": false,
      "t": 191701.73199999952,
      "d": 73.16859999997541,
      "v": 96
    },
    {
      "midi": 44,
      "hit": false,
      "t": 191701.73199999952,
      "d": 111.27724583330564,
      "v": 90
    },
    {
      "midi": 60,
      "hit": false,
      "t": 192067.5749999995,
      "d": 54.876450000010664,
      "v": 79
    },
    {
      "midi": 56,
      "hit": false,
      "t": 192067.5749999995,
      "d": 62.49817916666507,
      "v": 58
    },
    {
      "midi": 63,
      "hit": false,
      "t": 192067.5749999995,
      "d": 62.49817916666507,
      "v": 58
    },
    {
      "midi": 44,
      "hit": false,
      "t": 192067.5749999995,
      "d": 329.2587000000058,
      "v": 83
    },
    {
      "midi": 60,
      "hit": false,
      "t": 192433.41799999948,
      "d": 47.254720833327156,
      "v": 104
    },
    {
      "midi": 56,
      "hit": false,
      "t": 192433.41799999948,
      "d": 62.49817916666507,
      "v": 81
    },
    {
      "midi": 63,
      "hit": false,
      "t": 192433.41799999948,
      "d": 62.49817916666507,
      "v": 84
    },
    {
      "midi": 32,
      "hit": false,
      "t": 192433.41799999948,
      "d": 248.46837083331775,
      "v": 83
    },
    {
      "midi": 60,
      "hit": false,
      "t": 192799.26099999947,
      "d": 42.68168333332869,
      "v": 79
    },
    {
      "midi": 56,
      "hit": false,
      "t": 192799.26099999947,
      "d": 54.87644999998156,
      "v": 56
    },
    {
      "midi": 63,
      "hit": false,
      "t": 192799.26099999947,
      "d": 57.9251416666375,
      "v": 58
    },
    {
      "midi": 60,
      "hit": false,
      "t": 193165.10399999944,
      "d": 54.876450000010664,
      "v": 81
    },
    {
      "midi": 56,
      "hit": false,
      "t": 193165.10399999944,
      "d": 62.49817916666507,
      "v": 61
    },
    {
      "midi": 63,
      "hit": false,
      "t": 193165.10399999944,
      "d": 73.16860000000452,
      "v": 64
    },
    {
      "midi": 60,
      "hit": false,
      "t": 193530.94699999943,
      "d": 62.49817916666507,
      "v": 97
    },
    {
      "midi": 63,
      "hit": false,
      "t": 193530.94699999943,
      "d": 77.74163750000298,
      "v": 76
    },
    {
      "midi": 56,
      "hit": false,
      "t": 193530.94699999943,
      "d": 80.79032916665892,
      "v": 74
    },
    {
      "midi": 53,
      "hit": false,
      "t": 193530.94699999943,
      "d": 359.7456166666525,
      "v": 1
    },
    {
      "midi": 63,
      "hit": false,
      "t": 193530.94699999943,
      "d": 359.7456166666525,
      "v": 1
    },
    {
      "midi": 70,
      "hit": false,
      "t": 193530.94699999943,
      "d": 359.7456166666525,
      "v": 1
    },
    {
      "midi": 60,
      "hit": false,
      "t": 193896.78999999943,
      "d": 85.36336666665738,
      "v": 110
    },
    {
      "midi": 56,
      "hit": false,
      "t": 193896.78999999943,
      "d": 96.03378749999683,
      "v": 94
    },
    {
      "midi": 63,
      "hit": false,
      "t": 193896.78999999943,
      "d": 96.03378749999683,
      "v": 88
    },
    {
      "midi": 56,
      "hit": false,
      "t": 193896.78999999943,
      "d": 1091.4316166666686,
      "v": 1
    },
    {
      "midi": 63,
      "hit": false,
      "t": 193896.78999999943,
      "d": 1091.4316166666686,
      "v": 1
    },
    {
      "midi": 68,
      "hit": false,
      "t": 193896.78999999943,
      "d": 1091.4316166666686,
      "v": 1
    },
    {
      "midi": 60,
      "hit": false,
      "t": 194262.63299999942,
      "d": 70.11990833331947,
      "v": 89
    },
    {
      "midi": 56,
      "hit": false,
      "t": 194262.63299999942,
      "d": 77.74163749997388,
      "v": 66
    },
    {
      "midi": 63,
      "hit": false,
      "t": 194262.63299999942,
      "d": 92.98509583331179,
      "v": 66
    },
    {
      "midi": 44,
      "hit": false,
      "t": 194486.7118374994,
      "d": 73.16860000000452,
      "v": 79
    },
    {
      "midi": 63,
      "hit": false,
      "t": 194486.7118374994,
      "d": 92.98509583334089,
      "v": 59
    },
    {
      "midi": 58,
      "hit": false,
      "t": 194628.4759999994,
      "d": 73.16860000000452,
      "v": 86
    },
    {
      "midi": 61,
      "hit": false,
      "t": 194628.4759999994,
      "d": 80.79032916665892,
      "v": 96
    },
    {
      "midi": 65,
      "hit": false,
      "t": 194628.4759999994,
      "d": 92.98509583331179,
      "v": 107
    },
    {
      "midi": 46,
      "hit": false,
      "t": 194628.4759999994,
      "d": 115.8502833333041,
      "v": 79
    },
    {
      "midi": 58,
      "hit": false,
      "t": 194994.31899999938,
      "d": 54.876450000010664,
      "v": 66
    },
    {
      "midi": 65,
      "hit": false,
      "t": 194994.31899999938,
      "d": 57.925141666666605,
      "v": 84
    },
    {
      "midi": 61,
      "hit": false,
      "t": 194994.31899999938,
      "d": 73.16860000000452,
      "v": 79
    },
    {
      "midi": 46,
      "hit": false,
      "t": 194994.31899999938,
      "d": 321.63697083335137,
      "v": 83
    },
    {
      "midi": 56,
      "hit": false,
      "t": 194994.31899999944,
      "d": 176.82411666665575,
      "v": 1
    },
    {
      "midi": 61,
      "hit": false,
      "t": 194994.31899999944,
      "d": 176.82411666665575,
      "v": 1
    },
    {
      "midi": 70,
      "hit": false,
      "t": 194994.31899999944,
      "d": 176.82411666665575,
      "v": 1
    },
    {
      "midi": 53,
      "hit": false,
      "t": 195177.24049999943,
      "d": 542.6671166666783,
      "v": 1
    },
    {
      "midi": 61,
      "hit": false,
      "t": 195177.24049999943,
      "d": 542.6671166666783,
      "v": 1
    },
    {
      "midi": 70,
      "hit": false,
      "t": 195177.24049999943,
      "d": 542.6671166666783,
      "v": 1
    },
    {
      "midi": 58,
      "hit": false,
      "t": 195360.1619999994,
      "d": 50.3034125000122,
      "v": 64
    },
    {
      "midi": 65,
      "hit": false,
      "t": 195360.1619999994,
      "d": 62.49817916666507,
      "v": 82
    },
    {
      "midi": 61,
      "hit": false,
      "t": 195360.1619999994,
      "d": 73.16860000000452,
      "v": 79
    },
    {
      "midi": 34,
      "hit": false,
      "t": 195360.1619999994,
      "d": 210.35972500001662,
      "v": 103
    },
    {
      "midi": 58,
      "hit": false,
      "t": 195726.00499999942,
      "d": 47.254720833327156,
      "v": 81
    },
    {
      "midi": 65,
      "hit": false,
      "t": 195726.00499999942,
      "d": 50.3034124999831,
      "v": 101
    },
    {
      "midi": 61,
      "hit": false,
      "t": 195726.00499999942,
      "d": 57.9251416666375,
      "v": 93
    },
    {
      "midi": 51,
      "hit": false,
      "t": 195726.00499999945,
      "d": 359.7456166666525,
      "v": 1
    },
    {
      "midi": 61,
      "hit": false,
      "t": 195726.00499999945,
      "d": 359.7456166666525,
      "v": 1
    },
    {
      "midi": 68,
      "hit": false,
      "t": 195726.00499999945,
      "d": 359.7456166666525,
      "v": 1
    },
    {
      "midi": 58,
      "hit": false,
      "t": 196091.8479999994,
      "d": 57.925141666666605,
      "v": 91
    },
    {
      "midi": 65,
      "hit": false,
      "t": 196091.8479999994,
      "d": 65.54687083332101,
      "v": 109
    },
    {
      "midi": 61,
      "hit": false,
      "t": 196091.8479999994,
      "d": 73.16859999997541,
      "v": 103
    },
    {
      "midi": 56,
      "hit": false,
      "t": 196091.84799999945,
      "d": 359.7456166666525,
      "v": 1
    },
    {
      "midi": 61,
      "hit": false,
      "t": 196091.84799999945,
      "d": 359.7456166666525,
      "v": 1
    },
    {
      "midi": 72,
      "hit": false,
      "t": 196091.84799999945,
      "d": 359.7456166666525,
      "v": 1
    },
    {
      "midi": 58,
      "hit": false,
      "t": 196457.69099999935,
      "d": 65.54687083332101,
      "v": 62
    },
    {
      "midi": 65,
      "hit": false,
      "t": 196457.69099999935,
      "d": 77.74163749997388,
      "v": 86
    },
    {
      "midi": 61,
      "hit": false,
      "t": 196457.69099999935,
      "d": 85.36336666662828,
      "v": 74
    },
    {
      "midi": 53,
      "hit": false,
      "t": 196457.69099999944,
      "d": 359.7456166666525,
      "v": 1
    },
    {
      "midi": 61,
      "hit": false,
      "t": 196457.69099999944,
      "d": 359.7456166666525,
      "v": 1
    },
    {
      "midi": 70,
      "hit": false,
      "t": 196457.69099999944,
      "d": 359.7456166666525,
      "v": 1
    },
    {
      "midi": 58,
      "hit": false,
      "t": 196823.53399999932,
      "d": 54.876450000010664,
      "v": 91
    },
    {
      "midi": 65,
      "hit": false,
      "t": 196823.53399999932,
      "d": 57.925141666666605,
      "v": 109
    },
    {
      "midi": 61,
      "hit": false,
      "t": 196823.53399999932,
      "d": 62.49817916666507,
      "v": 99
    },
    {
      "midi": 56,
      "hit": false,
      "t": 196823.53399999943,
      "d": 359.7456166666525,
      "v": 1
    },
    {
      "midi": 61,
      "hit": false,
      "t": 196823.53399999943,
      "d": 359.7456166666525,
      "v": 1
    },
    {
      "midi": 68,
      "hit": false,
      "t": 196823.53399999943,
      "d": 359.7456166666525,
      "v": 1
    },
    {
      "midi": 65,
      "hit": false,
      "t": 197047.61283749933,
      "d": 57.925141666666605,
      "v": 63
    },
    {
      "midi": 58,
      "hit": false,
      "t": 197189.37699999934,
      "d": 50.3034125000122,
      "v": 64
    },
    {
      "midi": 65,
      "hit": false,
      "t": 197189.37699999934,
      "d": 57.925141666666605,
      "v": 84
    },
    {
      "midi": 61,
      "hit": false,
      "t": 197189.37699999934,
      "d": 62.49817916666507,
      "v": 74
    },
    {
      "midi": 53,
      "hit": false,
      "t": 197189.37699999943,
      "d": 359.7456166666525,
      "v": 1
    },
    {
      "midi": 61,
      "hit": false,
      "t": 197189.37699999943,
      "d": 359.7456166666525,
      "v": 1
    },
    {
      "midi": 65,
      "hit": false,
      "t": 197189.37699999943,
      "d": 359.7456166666525,
      "v": 1
    },
    {
      "midi": 65,
      "hit": false,
      "t": 197413.45583749935,
      "d": 57.925141666666605,
      "v": 63
    },
    {
      "midi": 46,
      "hit": false,
      "t": 197413.45583749935,
      "d": 80.79032916665892,
      "v": 86
    },
    {
      "midi": 60,
      "hit": false,
      "t": 197555.21999999933,
      "d": 57.925141666666605,
      "v": 104
    },
    {
      "midi": 56,
      "hit": false,
      "t": 197555.21999999933,
      "d": 65.54687083332101,
      "v": 86
    },
    {
      "midi": 63,
      "hit": false,
      "t": 197555.21999999933,
      "d": 73.16859999997541,
      "v": 96
    },
    {
      "midi": 44,
      "hit": false,
      "t": 197555.21999999933,
      "d": 179.8728083333117,
      "v": 83
    },
    {
      "midi": 56,
      "hit": false,
      "t": 197555.21999999942,
      "d": 1823.1176166666555,
      "v": 1
    },
    {
      "midi": 63,
      "hit": false,
      "t": 197555.21999999942,
      "d": 1823.1176166666555,
      "v": 1
    },
    {
      "midi": 72,
      "hit": false,
      "t": 197555.21999999942,
      "d": 1823.1176166666555,
      "v": 1
    },
    {
      "midi": 60,
      "hit": false,
      "t": 197921.0629999993,
      "d": 54.876450000010664,
      "v": 79
    },
    {
      "midi": 56,
      "hit": false,
      "t": 197921.0629999993,
      "d": 62.49817916666507,
      "v": 58
    },
    {
      "midi": 63,
      "hit": false,
      "t": 197921.0629999993,
      "d": 62.49817916666507,
      "v": 58
    },
    {
      "midi": 44,
      "hit": false,
      "t": 197921.0629999993,
      "d": 301.8204749999859,
      "v": 94
    },
    {
      "midi": 60,
      "hit": false,
      "t": 198286.9059999993,
      "d": 47.254720833327156,
      "v": 104
    },
    {
      "midi": 56,
      "hit": false,
      "t": 198286.9059999993,
      "d": 62.49817916666507,
      "v": 81
    },
    {
      "midi": 63,
      "hit": false,
      "t": 198286.9059999993,
      "d": 62.49817916666507,
      "v": 84
    },
    {
      "midi": 32,
      "hit": false,
      "t": 198286.9059999993,
      "d": 256.09010000000126,
      "v": 83
    },
    {
      "midi": 60,
      "hit": false,
      "t": 198652.74899999928,
      "d": 42.68168333332869,
      "v": 79
    },
    {
      "midi": 56,
      "hit": false,
      "t": 198652.74899999928,
      "d": 54.87644999998156,
      "v": 56
    },
    {
      "midi": 63,
      "hit": false,
      "t": 198652.74899999928,
      "d": 57.9251416666375,
      "v": 58
    },
    {
      "midi": 60,
      "hit": false,
      "t": 199018.59199999925,
      "d": 54.876450000010664,
      "v": 81
    },
    {
      "midi": 56,
      "hit": false,
      "t": 199018.59199999925,
      "d": 62.49817916666507,
      "v": 61
    },
    {
      "midi": 63,
      "hit": false,
      "t": 199018.59199999925,
      "d": 73.16860000000452,
      "v": 64
    },
    {
      "midi": 60,
      "hit": false,
      "t": 199384.43499999924,
      "d": 62.49817916666507,
      "v": 97
    },
    {
      "midi": 63,
      "hit": false,
      "t": 199384.43499999924,
      "d": 77.74163750000298,
      "v": 76
    },
    {
      "midi": 56,
      "hit": false,
      "t": 199384.43499999924,
      "d": 80.79032916665892,
      "v": 74
    },
    {
      "midi": 53,
      "hit": false,
      "t": 199384.43499999942,
      "d": 359.7456166666525,
      "v": 1
    },
    {
      "midi": 63,
      "hit": false,
      "t": 199384.43499999942,
      "d": 359.7456166666525,
      "v": 1
    },
    {
      "midi": 70,
      "hit": false,
      "t": 199384.43499999942,
      "d": 359.7456166666525,
      "v": 1
    },
    {
      "midi": 60,
      "hit": false,
      "t": 199750.27799999923,
      "d": 85.36336666665738,
      "v": 110
    },
    {
      "midi": 56,
      "hit": false,
      "t": 199750.27799999923,
      "d": 96.03378749999683,
      "v": 94
    },
    {
      "midi": 63,
      "hit": false,
      "t": 199750.27799999923,
      "d": 96.03378749999683,
      "v": 88
    },
    {
      "midi": 56,
      "hit": false,
      "t": 199750.2779999994,
      "d": 359.7456166666525,
      "v": 1
    },
    {
      "midi": 63,
      "hit": false,
      "t": 199750.2779999994,
      "d": 359.7456166666525,
      "v": 1
    },
    {
      "midi": 68,
      "hit": false,
      "t": 199750.2779999994,
      "d": 359.7456166666525,
      "v": 1
    },
    {
      "midi": 63,
      "hit": false,
      "t": 199974.35683749922,
      "d": 96.03378749999683,
      "v": 63
    },
    {
      "midi": 60,
      "hit": false,
      "t": 200116.12099999923,
      "d": 70.11990833331947,
      "v": 89
    },
    {
      "midi": 56,
      "hit": false,
      "t": 200116.12099999923,
      "d": 77.74163749997388,
      "v": 66
    },
    {
      "midi": 63,
      "hit": false,
      "t": 200116.12099999923,
      "d": 92.98509583331179,
      "v": 66
    },
    {
      "midi": 53,
      "hit": false,
      "t": 200116.1209999994,
      "d": 237.7979500000074,
      "v": 1
    },
    {
      "midi": 63,
      "hit": false,
      "t": 200116.1209999994,
      "d": 237.7979500000074,
      "v": 1
    },
    {
      "midi": 65,
      "hit": false,
      "t": 200116.1209999994,
      "d": 237.7979500000074,
      "v": 1
    },
    {
      "midi": 44,
      "hit": false,
      "t": 200340.1998374992,
      "d": 50.3034125000122,
      "v": 66
    },
    {
      "midi": 63,
      "hit": false,
      "t": 200340.1998374992,
      "d": 96.03378750002594,
      "v": 63
    },
    {
      "midi": 72,
      "hit": false,
      "t": 200360.01633333275,
      "d": 207.31103333333158,
      "v": 1
    },
    {
      "midi": 56,
      "hit": false,
      "t": 200360.01633333275,
      "d": 271.33355833331007,
      "v": 1
    },
    {
      "midi": 63,
      "hit": false,
      "t": 200360.01633333275,
      "d": 294.1987458333024,
      "v": 1
    },
    {
      "midi": 58,
      "hit": false,
      "t": 200481.96399999925,
      "d": 70.11990833331947,
      "v": 71
    },
    {
      "midi": 61,
      "hit": false,
      "t": 200481.96399999925,
      "d": 92.98509583331179,
      "v": 86
    },
    {
      "midi": 65,
      "hit": false,
      "t": 200481.96399999925,
      "d": 100.6068249999662,
      "v": 94
    },
    {
      "midi": 46,
      "hit": false,
      "t": 200481.96399999925,
      "d": 138.71547083329642,
      "v": 83
    },
    {
      "midi": 53,
      "hit": false,
      "t": 200603.91166666607,
      "d": 786.5624499999685,
      "v": 1
    },
    {
      "midi": 61,
      "hit": false,
      "t": 200603.91166666607,
      "d": 786.5624499999685,
      "v": 1
    },
    {
      "midi": 70,
      "hit": false,
      "t": 200603.91166666607,
      "d": 786.5624499999685,
      "v": 1
    },
    {
      "midi": 58,
      "hit": false,
      "t": 200847.80699999921,
      "d": 62.49817916666507,
      "v": 71
    },
    {
      "midi": 65,
      "hit": false,
      "t": 200847.80699999921,
      "d": 77.74163750000298,
      "v": 86
    },
    {
      "midi": 61,
      "hit": false,
      "t": 200847.80699999921,
      "d": 85.36336666665738,
      "v": 83
    },
    {
      "midi": 46,
      "hit": false,
      "t": 200847.80699999921,
      "d": 314.01524166666786,
      "v": 86
    },
    {
      "midi": 58,
      "hit": false,
      "t": 201213.6499999992,
      "d": 47.254720833327156,
      "v": 66
    },
    {
      "midi": 65,
      "hit": false,
      "t": 201213.6499999992,
      "d": 62.49817916666507,
      "v": 84
    },
    {
      "midi": 61,
      "hit": false,
      "t": 201213.6499999992,
      "d": 65.54687083332101,
      "v": 79
    },
    {
      "midi": 34,
      "hit": false,
      "t": 201213.6499999992,
      "d": 176.82411666665575,
      "v": 98
    },
    {
      "midi": 58,
      "hit": false,
      "t": 201579.4929999992,
      "d": 39.63299166667275,
      "v": 71
    },
    {
      "midi": 61,
      "hit": false,
      "t": 201579.4929999992,
      "d": 54.876450000010664,
      "v": 86
    },
    {
      "midi": 65,
      "hit": false,
      "t": 201579.4929999992,
      "d": 54.876450000010664,
      "v": 91
    },
    {
      "midi": 58,
      "hit": false,
      "t": 201945.33599999922,
      "d": 54.876450000010664,
      "v": 86
    },
    {
      "midi": 65,
      "hit": false,
      "t": 201945.33599999922,
      "d": 54.876450000010664,
      "v": 97
    },
    {
      "midi": 61,
      "hit": false,
      "t": 201945.33599999922,
      "d": 57.925141666666605,
      "v": 94
    },
    {
      "midi": 60,
      "hit": false,
      "t": 203408.70799999923,
      "d": 57.925141666666605,
      "v": 104
    },
    {
      "midi": 56,
      "hit": false,
      "t": 203408.70799999923,
      "d": 65.54687083332101,
      "v": 86
    },
    {
      "midi": 63,
      "hit": false,
      "t": 203408.70799999923,
      "d": 73.16859999997541,
      "v": 96
    },
    {
      "midi": 44,
      "hit": false,
      "t": 203408.70799999923,
      "d": 111.27724583330564,
      "v": 90
    },
    {
      "midi": 60,
      "hit": false,
      "t": 203774.5509999992,
      "d": 54.876450000010664,
      "v": 79
    },
    {
      "midi": 56,
      "hit": false,
      "t": 203774.5509999992,
      "d": 62.49817916666507,
      "v": 58
    },
    {
      "midi": 63,
      "hit": false,
      "t": 203774.5509999992,
      "d": 62.49817916666507,
      "v": 58
    },
    {
      "midi": 44,
      "hit": false,
      "t": 203774.5509999992,
      "d": 329.2587000000058,
      "v": 83
    },
    {
      "midi": 60,
      "hit": false,
      "t": 204140.39399999919,
      "d": 47.254720833327156,
      "v": 104
    },
    {
      "midi": 56,
      "hit": false,
      "t": 204140.39399999919,
      "d": 62.49817916666507,
      "v": 81
    },
    {
      "midi": 63,
      "hit": false,
      "t": 204140.39399999919,
      "d": 62.49817916666507,
      "v": 84
    },
    {
      "midi": 32,
      "hit": false,
      "t": 204140.39399999919,
      "d": 248.46837083331775,
      "v": 83
    },
    {
      "midi": 60,
      "hit": false,
      "t": 204506.23699999918,
      "d": 42.68168333332869,
      "v": 79
    },
    {
      "midi": 56,
      "hit": false,
      "t": 204506.23699999918,
      "d": 54.87644999998156,
      "v": 56
    },
    {
      "midi": 63,
      "hit": false,
      "t": 204506.23699999918,
      "d": 57.9251416666375,
      "v": 58
    },
    {
      "midi": 60,
      "hit": false,
      "t": 204872.07999999914,
      "d": 54.876450000010664,
      "v": 81
    },
    {
      "midi": 56,
      "hit": false,
      "t": 204872.07999999914,
      "d": 62.49817916666507,
      "v": 61
    },
    {
      "midi": 63,
      "hit": false,
      "t": 204872.07999999914,
      "d": 73.16860000000452,
      "v": 64
    },
    {
      "midi": 60,
      "hit": false,
      "t": 205237.92299999914,
      "d": 62.49817916666507,
      "v": 97
    },
    {
      "midi": 63,
      "hit": false,
      "t": 205237.92299999914,
      "d": 77.74163750000298,
      "v": 76
    },
    {
      "midi": 56,
      "hit": false,
      "t": 205237.92299999914,
      "d": 80.79032916665892,
      "v": 74
    },
    {
      "midi": 60,
      "hit": false,
      "t": 205603.76599999913,
      "d": 85.36336666665738,
      "v": 110
    },
    {
      "midi": 56,
      "hit": false,
      "t": 205603.76599999913,
      "d": 96.03378749999683,
      "v": 94
    },
    {
      "midi": 63,
      "hit": false,
      "t": 205603.76599999913,
      "d": 96.03378749999683,
      "v": 88
    },
    {
      "midi": 60,
      "hit": false,
      "t": 205969.60899999912,
      "d": 70.11990833331947,
      "v": 89
    },
    {
      "midi": 56,
      "hit": false,
      "t": 205969.60899999912,
      "d": 77.74163749997388,
      "v": 66
    },
    {
      "midi": 63,
      "hit": false,
      "t": 205969.60899999912,
      "d": 92.98509583331179,
      "v": 66
    },
    {
      "midi": 44,
      "hit": false,
      "t": 206193.6878374991,
      "d": 73.16860000000452,
      "v": 79
    },
    {
      "midi": 63,
      "hit": false,
      "t": 206193.6878374991,
      "d": 92.98509583334089,
      "v": 59
    },
    {
      "midi": 58,
      "hit": false,
      "t": 206335.45199999912,
      "d": 73.16860000000452,
      "v": 86
    },
    {
      "midi": 61,
      "hit": false,
      "t": 206335.45199999912,
      "d": 80.79032916665892,
      "v": 96
    },
    {
      "midi": 65,
      "hit": false,
      "t": 206335.45199999912,
      "d": 92.98509583331179,
      "v": 107
    },
    {
      "midi": 46,
      "hit": false,
      "t": 206335.45199999912,
      "d": 115.8502833333041,
      "v": 79
    },
    {
      "midi": 58,
      "hit": false,
      "t": 206701.29499999908,
      "d": 54.876450000010664,
      "v": 66
    },
    {
      "midi": 65,
      "hit": false,
      "t": 206701.29499999908,
      "d": 57.925141666666605,
      "v": 84
    },
    {
      "midi": 61,
      "hit": false,
      "t": 206701.29499999908,
      "d": 73.16860000000452,
      "v": 79
    },
    {
      "midi": 46,
      "hit": false,
      "t": 206701.29499999908,
      "d": 321.63697083335137,
      "v": 83
    },
    {
      "midi": 58,
      "hit": false,
      "t": 207067.1379999991,
      "d": 50.3034125000122,
      "v": 64
    },
    {
      "midi": 65,
      "hit": false,
      "t": 207067.1379999991,
      "d": 62.49817916666507,
      "v": 82
    },
    {
      "midi": 61,
      "hit": false,
      "t": 207067.1379999991,
      "d": 73.16860000000452,
      "v": 79
    },
    {
      "midi": 34,
      "hit": false,
      "t": 207067.1379999991,
      "d": 210.35972500001662,
      "v": 103
    },
    {
      "midi": 58,
      "hit": false,
      "t": 207432.98099999913,
      "d": 47.254720833327156,
      "v": 81
    },
    {
      "midi": 65,
      "hit": false,
      "t": 207432.98099999913,
      "d": 50.3034124999831,
      "v": 101
    },
    {
      "midi": 61,
      "hit": false,
      "t": 207432.98099999913,
      "d": 57.9251416666375,
      "v": 93
    },
    {
      "midi": 58,
      "hit": false,
      "t": 207798.8239999991,
      "d": 57.925141666666605,
      "v": 91
    },
    {
      "midi": 65,
      "hit": false,
      "t": 207798.8239999991,
      "d": 65.54687083332101,
      "v": 109
    },
    {
      "midi": 61,
      "hit": false,
      "t": 207798.8239999991,
      "d": 73.16859999997541,
      "v": 103
    },
    {
      "midi": 58,
      "hit": false,
      "t": 208164.66699999906,
      "d": 65.54687083332101,
      "v": 62
    },
    {
      "midi": 65,
      "hit": false,
      "t": 208164.66699999906,
      "d": 77.74163749997388,
      "v": 86
    },
    {
      "midi": 61,
      "hit": false,
      "t": 208164.66699999906,
      "d": 85.36336666662828,
      "v": 74
    },
    {
      "midi": 58,
      "hit": false,
      "t": 208530.50999999902,
      "d": 54.876450000010664,
      "v": 91
    },
    {
      "midi": 65,
      "hit": false,
      "t": 208530.50999999902,
      "d": 57.925141666666605,
      "v": 109
    },
    {
      "midi": 61,
      "hit": false,
      "t": 208530.50999999902,
      "d": 62.49817916666507,
      "v": 99
    },
    {
      "midi": 65,
      "hit": false,
      "t": 208754.58883749903,
      "d": 57.925141666666605,
      "v": 63
    },
    {
      "midi": 58,
      "hit": false,
      "t": 208896.35299999904,
      "d": 50.3034125000122,
      "v": 64
    },
    {
      "midi": 65,
      "hit": false,
      "t": 208896.35299999904,
      "d": 57.925141666666605,
      "v": 84
    },
    {
      "midi": 61,
      "hit": false,
      "t": 208896.35299999904,
      "d": 62.49817916666507,
      "v": 74
    },
    {
      "midi": 65,
      "hit": false,
      "t": 209120.43183749905,
      "d": 57.925141666666605,
      "v": 63
    },
    {
      "midi": 46,
      "hit": false,
      "t": 209120.43183749905,
      "d": 80.79032916665892,
      "v": 86
    },
    {
      "midi": 60,
      "hit": false,
      "t": 209262.19599999904,
      "d": 57.925141666666605,
      "v": 104
    },
    {
      "midi": 56,
      "hit": false,
      "t": 209262.19599999904,
      "d": 65.54687083332101,
      "v": 86
    },
    {
      "midi": 63,
      "hit": false,
      "t": 209262.19599999904,
      "d": 73.16859999997541,
      "v": 96
    },
    {
      "midi": 44,
      "hit": false,
      "t": 209262.19599999904,
      "d": 179.8728083333117,
      "v": 83
    },
    {
      "midi": 60,
      "hit": false,
      "t": 209628.038999999,
      "d": 54.876450000010664,
      "v": 79
    },
    {
      "midi": 56,
      "hit": false,
      "t": 209628.038999999,
      "d": 62.49817916666507,
      "v": 58
    },
    {
      "midi": 63,
      "hit": false,
      "t": 209628.038999999,
      "d": 62.49817916666507,
      "v": 58
    },
    {
      "midi": 44,
      "hit": false,
      "t": 209628.038999999,
      "d": 301.8204749999859,
      "v": 94
    },
    {
      "midi": 60,
      "hit": false,
      "t": 209993.881999999,
      "d": 47.254720833327156,
      "v": 104
    },
    {
      "midi": 56,
      "hit": false,
      "t": 209993.881999999,
      "d": 62.49817916666507,
      "v": 81
    },
    {
      "midi": 63,
      "hit": false,
      "t": 209993.881999999,
      "d": 62.49817916666507,
      "v": 84
    },
    {
      "midi": 32,
      "hit": false,
      "t": 209993.881999999,
      "d": 256.09010000000126,
      "v": 83
    },
    {
      "midi": 60,
      "hit": false,
      "t": 210359.724999999,
      "d": 42.68168333332869,
      "v": 79
    },
    {
      "midi": 56,
      "hit": false,
      "t": 210359.724999999,
      "d": 54.87644999998156,
      "v": 56
    },
    {
      "midi": 63,
      "hit": false,
      "t": 210359.724999999,
      "d": 57.9251416666375,
      "v": 58
    },
    {
      "midi": 60,
      "hit": false,
      "t": 210725.56799999895,
      "d": 54.876450000010664,
      "v": 81
    },
    {
      "midi": 56,
      "hit": false,
      "t": 210725.56799999895,
      "d": 62.49817916666507,
      "v": 61
    },
    {
      "midi": 63,
      "hit": false,
      "t": 210725.56799999895,
      "d": 73.16860000000452,
      "v": 64
    },
    {
      "midi": 60,
      "hit": false,
      "t": 211091.41099999895,
      "d": 62.49817916666507,
      "v": 97
    },
    {
      "midi": 63,
      "hit": false,
      "t": 211091.41099999895,
      "d": 77.74163750000298,
      "v": 76
    },
    {
      "midi": 56,
      "hit": false,
      "t": 211091.41099999895,
      "d": 80.79032916665892,
      "v": 74
    },
    {
      "midi": 60,
      "hit": false,
      "t": 211457.25399999894,
      "d": 85.36336666665738,
      "v": 110
    },
    {
      "midi": 56,
      "hit": false,
      "t": 211457.25399999894,
      "d": 96.03378749999683,
      "v": 94
    },
    {
      "midi": 63,
      "hit": false,
      "t": 211457.25399999894,
      "d": 96.03378749999683,
      "v": 88
    },
    {
      "midi": 63,
      "hit": false,
      "t": 211681.33283749892,
      "d": 96.03378749999683,
      "v": 63
    },
    {
      "midi": 60,
      "hit": false,
      "t": 211823.09699999893,
      "d": 70.11990833331947,
      "v": 89
    },
    {
      "midi": 56,
      "hit": false,
      "t": 211823.09699999893,
      "d": 77.74163749997388,
      "v": 66
    },
    {
      "midi": 63,
      "hit": false,
      "t": 211823.09699999893,
      "d": 92.98509583331179,
      "v": 66
    },
    {
      "midi": 44,
      "hit": false,
      "t": 212047.17583749891,
      "d": 50.3034125000122,
      "v": 66
    },
    {
      "midi": 63,
      "hit": false,
      "t": 212047.17583749891,
      "d": 96.03378750002594,
      "v": 63
    },
    {
      "midi": 58,
      "hit": false,
      "t": 212188.93999999895,
      "d": 70.11990833331947,
      "v": 71
    },
    {
      "midi": 61,
      "hit": false,
      "t": 212188.93999999895,
      "d": 92.98509583331179,
      "v": 86
    },
    {
      "midi": 65,
      "hit": false,
      "t": 212188.93999999895,
      "d": 100.6068249999662,
      "v": 94
    },
    {
      "midi": 46,
      "hit": false,
      "t": 212188.93999999895,
      "d": 138.71547083329642,
      "v": 83
    },
    {
      "midi": 58,
      "hit": false,
      "t": 212554.78299999892,
      "d": 62.49817916666507,
      "v": 71
    },
    {
      "midi": 65,
      "hit": false,
      "t": 212554.78299999892,
      "d": 77.74163750000298,
      "v": 86
    },
    {
      "midi": 61,
      "hit": false,
      "t": 212554.78299999892,
      "d": 85.36336666665738,
      "v": 83
    },
    {
      "midi": 46,
      "hit": false,
      "t": 212554.78299999892,
      "d": 314.01524166666786,
      "v": 86
    },
    {
      "midi": 58,
      "hit": false,
      "t": 212920.6259999989,
      "d": 47.254720833327156,
      "v": 66
    },
    {
      "midi": 65,
      "hit": false,
      "t": 212920.6259999989,
      "d": 62.49817916666507,
      "v": 84
    },
    {
      "midi": 61,
      "hit": false,
      "t": 212920.6259999989,
      "d": 65.54687083332101,
      "v": 79
    },
    {
      "midi": 34,
      "hit": false,
      "t": 212920.6259999989,
      "d": 176.82411666665575,
      "v": 98
    },
    {
      "midi": 58,
      "hit": false,
      "t": 213286.4689999989,
      "d": 39.63299166667275,
      "v": 71
    },
    {
      "midi": 61,
      "hit": false,
      "t": 213286.4689999989,
      "d": 54.876450000010664,
      "v": 86
    },
    {
      "midi": 65,
      "hit": false,
      "t": 213286.4689999989,
      "d": 54.876450000010664,
      "v": 91
    },
    {
      "midi": 58,
      "hit": false,
      "t": 213652.31199999893,
      "d": 54.876450000010664,
      "v": 86
    },
    {
      "midi": 65,
      "hit": false,
      "t": 213652.31199999893,
      "d": 54.876450000010664,
      "v": 97
    },
    {
      "midi": 61,
      "hit": false,
      "t": 213652.31199999893,
      "d": 57.925141666666605,
      "v": 94
    },
    {
      "midi": 60,
      "hit": false,
      "t": 215115.68399999893,
      "d": 57.925141666666605,
      "v": 104
    },
    {
      "midi": 56,
      "hit": false,
      "t": 215115.68399999893,
      "d": 65.54687083332101,
      "v": 86
    },
    {
      "midi": 63,
      "hit": false,
      "t": 215115.68399999893,
      "d": 73.16859999997541,
      "v": 96
    },
    {
      "midi": 44,
      "hit": false,
      "t": 215115.68399999893,
      "d": 111.27724583330564,
      "v": 90
    },
    {
      "midi": 60,
      "hit": false,
      "t": 215481.5269999989,
      "d": 54.876450000010664,
      "v": 79
    },
    {
      "midi": 56,
      "hit": false,
      "t": 215481.5269999989,
      "d": 62.49817916666507,
      "v": 58
    },
    {
      "midi": 63,
      "hit": false,
      "t": 215481.5269999989,
      "d": 62.49817916666507,
      "v": 58
    },
    {
      "midi": 44,
      "hit": false,
      "t": 215481.5269999989,
      "d": 329.2587000000058,
      "v": 83
    },
    {
      "midi": 60,
      "hit": false,
      "t": 215847.3699999989,
      "d": 47.254720833327156,
      "v": 104
    },
    {
      "midi": 56,
      "hit": false,
      "t": 215847.3699999989,
      "d": 62.49817916666507,
      "v": 81
    },
    {
      "midi": 63,
      "hit": false,
      "t": 215847.3699999989,
      "d": 62.49817916666507,
      "v": 84
    },
    {
      "midi": 32,
      "hit": false,
      "t": 215847.3699999989,
      "d": 248.46837083331775,
      "v": 83
    },
    {
      "midi": 60,
      "hit": false,
      "t": 216213.21299999888,
      "d": 42.68168333332869,
      "v": 79
    },
    {
      "midi": 56,
      "hit": false,
      "t": 216213.21299999888,
      "d": 54.87644999998156,
      "v": 56
    },
    {
      "midi": 63,
      "hit": false,
      "t": 216213.21299999888,
      "d": 57.9251416666375,
      "v": 58
    },
    {
      "midi": 60,
      "hit": false,
      "t": 216579.05599999885,
      "d": 54.876450000010664,
      "v": 81
    },
    {
      "midi": 56,
      "hit": false,
      "t": 216579.05599999885,
      "d": 62.49817916666507,
      "v": 61
    },
    {
      "midi": 63,
      "hit": false,
      "t": 216579.05599999885,
      "d": 73.16860000000452,
      "v": 64
    },
    {
      "midi": 60,
      "hit": false,
      "t": 216944.89899999884,
      "d": 62.49817916666507,
      "v": 97
    },
    {
      "midi": 63,
      "hit": false,
      "t": 216944.89899999884,
      "d": 77.74163750000298,
      "v": 76
    },
    {
      "midi": 56,
      "hit": false,
      "t": 216944.89899999884,
      "d": 80.79032916665892,
      "v": 74
    },
    {
      "midi": 60,
      "hit": false,
      "t": 217310.74199999883,
      "d": 85.36336666665738,
      "v": 110
    },
    {
      "midi": 56,
      "hit": false,
      "t": 217310.74199999883,
      "d": 96.03378749999683,
      "v": 94
    },
    {
      "midi": 63,
      "hit": false,
      "t": 217310.74199999883,
      "d": 96.03378749999683,
      "v": 88
    },
    {
      "midi": 60,
      "hit": false,
      "t": 217676.58499999883,
      "d": 70.11990833331947,
      "v": 89
    },
    {
      "midi": 56,
      "hit": false,
      "t": 217676.58499999883,
      "d": 77.74163749997388,
      "v": 66
    },
    {
      "midi": 63,
      "hit": false,
      "t": 217676.58499999883,
      "d": 92.98509583331179,
      "v": 66
    },
    {
      "midi": 44,
      "hit": false,
      "t": 217900.6638374988,
      "d": 73.16860000000452,
      "v": 79
    },
    {
      "midi": 63,
      "hit": false,
      "t": 217900.6638374988,
      "d": 92.98509583334089,
      "v": 59
    },
    {
      "midi": 58,
      "hit": false,
      "t": 218042.42799999882,
      "d": 73.16860000000452,
      "v": 86
    },
    {
      "midi": 61,
      "hit": false,
      "t": 218042.42799999882,
      "d": 80.79032916665892,
      "v": 96
    },
    {
      "midi": 65,
      "hit": false,
      "t": 218042.42799999882,
      "d": 92.98509583331179,
      "v": 107
    },
    {
      "midi": 46,
      "hit": false,
      "t": 218042.42799999882,
      "d": 115.8502833333041,
      "v": 79
    },
    {
      "midi": 58,
      "hit": false,
      "t": 218408.2709999988,
      "d": 54.876450000010664,
      "v": 66
    },
    {
      "midi": 65,
      "hit": false,
      "t": 218408.2709999988,
      "d": 57.925141666666605,
      "v": 84
    },
    {
      "midi": 61,
      "hit": false,
      "t": 218408.2709999988,
      "d": 73.16860000000452,
      "v": 79
    },
    {
      "midi": 46,
      "hit": false,
      "t": 218408.2709999988,
      "d": 321.63697083335137,
      "v": 83
    },
    {
      "midi": 58,
      "hit": false,
      "t": 218774.1139999988,
      "d": 50.3034125000122,
      "v": 64
    },
    {
      "midi": 65,
      "hit": false,
      "t": 218774.1139999988,
      "d": 62.49817916666507,
      "v": 82
    },
    {
      "midi": 61,
      "hit": false,
      "t": 218774.1139999988,
      "d": 73.16860000000452,
      "v": 79
    },
    {
      "midi": 34,
      "hit": false,
      "t": 218774.1139999988,
      "d": 210.35972500001662,
      "v": 103
    },
    {
      "midi": 58,
      "hit": false,
      "t": 219139.95699999883,
      "d": 47.254720833327156,
      "v": 81
    },
    {
      "midi": 65,
      "hit": false,
      "t": 219139.95699999883,
      "d": 50.3034124999831,
      "v": 101
    },
    {
      "midi": 61,
      "hit": false,
      "t": 219139.95699999883,
      "d": 57.9251416666375,
      "v": 93
    },
    {
      "midi": 58,
      "hit": false,
      "t": 219505.7999999988,
      "d": 57.925141666666605,
      "v": 91
    },
    {
      "midi": 65,
      "hit": false,
      "t": 219505.7999999988,
      "d": 65.54687083332101,
      "v": 109
    },
    {
      "midi": 61,
      "hit": false,
      "t": 219505.7999999988,
      "d": 73.16859999997541,
      "v": 103
    },
    {
      "midi": 58,
      "hit": false,
      "t": 219871.64299999876,
      "d": 65.54687083332101,
      "v": 62
    },
    {
      "midi": 65,
      "hit": false,
      "t": 219871.64299999876,
      "d": 77.74163749997388,
      "v": 86
    },
    {
      "midi": 61,
      "hit": false,
      "t": 219871.64299999876,
      "d": 85.36336666662828,
      "v": 74
    },
    {
      "midi": 58,
      "hit": false,
      "t": 220237.48599999872,
      "d": 54.876450000010664,
      "v": 91
    },
    {
      "midi": 65,
      "hit": false,
      "t": 220237.48599999872,
      "d": 57.925141666666605,
      "v": 109
    },
    {
      "midi": 61,
      "hit": false,
      "t": 220237.48599999872,
      "d": 62.49817916666507,
      "v": 99
    },
    {
      "midi": 65,
      "hit": false,
      "t": 220461.56483749874,
      "d": 57.925141666666605,
      "v": 63
    },
    {
      "midi": 58,
      "hit": false,
      "t": 220603.32899999875,
      "d": 50.3034125000122,
      "v": 64
    },
    {
      "midi": 65,
      "hit": false,
      "t": 220603.32899999875,
      "d": 57.925141666666605,
      "v": 84
    },
    {
      "midi": 61,
      "hit": false,
      "t": 220603.32899999875,
      "d": 62.49817916666507,
      "v": 74
    },
    {
      "midi": 65,
      "hit": false,
      "t": 220827.40783749876,
      "d": 57.925141666666605,
      "v": 63
    },
    {
      "midi": 46,
      "hit": false,
      "t": 220827.40783749876,
      "d": 80.79032916665892,
      "v": 86
    },
    {
      "midi": 60,
      "hit": false,
      "t": 220969.17199999874,
      "d": 57.925141666666605,
      "v": 104
    },
    {
      "midi": 56,
      "hit": false,
      "t": 220969.17199999874,
      "d": 65.54687083332101,
      "v": 86
    },
    {
      "midi": 63,
      "hit": false,
      "t": 220969.17199999874,
      "d": 73.16859999997541,
      "v": 96
    },
    {
      "midi": 44,
      "hit": false,
      "t": 220969.17199999874,
      "d": 179.8728083333117,
      "v": 83
    },
    {
      "midi": 60,
      "hit": false,
      "t": 221335.0149999987,
      "d": 54.876450000010664,
      "v": 79
    },
    {
      "midi": 56,
      "hit": false,
      "t": 221335.0149999987,
      "d": 62.49817916666507,
      "v": 58
    },
    {
      "midi": 63,
      "hit": false,
      "t": 221335.0149999987,
      "d": 62.49817916666507,
      "v": 58
    },
    {
      "midi": 44,
      "hit": false,
      "t": 221335.0149999987,
      "d": 301.8204749999859,
      "v": 94
    },
    {
      "midi": 60,
      "hit": false,
      "t": 221700.8579999987,
      "d": 47.254720833327156,
      "v": 104
    },
    {
      "midi": 56,
      "hit": false,
      "t": 221700.8579999987,
      "d": 62.49817916666507,
      "v": 81
    },
    {
      "midi": 63,
      "hit": false,
      "t": 221700.8579999987,
      "d": 62.49817916666507,
      "v": 84
    },
    {
      "midi": 32,
      "hit": false,
      "t": 221700.8579999987,
      "d": 256.09010000000126,
      "v": 83
    },
    {
      "midi": 60,
      "hit": false,
      "t": 222066.7009999987,
      "d": 42.68168333332869,
      "v": 79
    },
    {
      "midi": 56,
      "hit": false,
      "t": 222066.7009999987,
      "d": 54.87644999998156,
      "v": 56
    },
    {
      "midi": 63,
      "hit": false,
      "t": 222066.7009999987,
      "d": 57.9251416666375,
      "v": 58
    },
    {
      "midi": 60,
      "hit": false,
      "t": 222432.54399999866,
      "d": 54.876450000010664,
      "v": 81
    },
    {
      "midi": 56,
      "hit": false,
      "t": 222432.54399999866,
      "d": 62.49817916666507,
      "v": 61
    },
    {
      "midi": 63,
      "hit": false,
      "t": 222432.54399999866,
      "d": 73.16860000000452,
      "v": 64
    },
    {
      "midi": 60,
      "hit": false,
      "t": 222798.38699999865,
      "d": 62.49817916666507,
      "v": 97
    },
    {
      "midi": 63,
      "hit": false,
      "t": 222798.38699999865,
      "d": 77.74163750000298,
      "v": 76
    },
    {
      "midi": 56,
      "hit": false,
      "t": 222798.38699999865,
      "d": 80.79032916665892,
      "v": 74
    },
    {
      "midi": 60,
      "hit": false,
      "t": 223164.22999999864,
      "d": 85.36336666665738,
      "v": 110
    },
    {
      "midi": 56,
      "hit": false,
      "t": 223164.22999999864,
      "d": 96.03378749999683,
      "v": 94
    },
    {
      "midi": 63,
      "hit": false,
      "t": 223164.22999999864,
      "d": 96.03378749999683,
      "v": 88
    },
    {
      "midi": 63,
      "hit": false,
      "t": 223388.30883749863,
      "d": 96.03378749999683,
      "v": 63
    },
    {
      "midi": 60,
      "hit": false,
      "t": 223530.07299999864,
      "d": 70.11990833331947,
      "v": 89
    },
    {
      "midi": 56,
      "hit": false,
      "t": 223530.07299999864,
      "d": 77.74163749997388,
      "v": 66
    },
    {
      "midi": 63,
      "hit": false,
      "t": 223530.07299999864,
      "d": 92.98509583331179,
      "v": 66
    },
    {
      "midi": 44,
      "hit": false,
      "t": 223754.15183749862,
      "d": 50.3034125000122,
      "v": 66
    },
    {
      "midi": 63,
      "hit": false,
      "t": 223754.15183749862,
      "d": 96.03378750002594,
      "v": 63
    },
    {
      "midi": 58,
      "hit": false,
      "t": 223895.91599999866,
      "d": 70.11990833331947,
      "v": 71
    },
    {
      "midi": 61,
      "hit": false,
      "t": 223895.91599999866,
      "d": 92.98509583331179,
      "v": 86
    },
    {
      "midi": 65,
      "hit": false,
      "t": 223895.91599999866,
      "d": 100.6068249999662,
      "v": 94
    },
    {
      "midi": 46,
      "hit": false,
      "t": 223895.91599999866,
      "d": 138.71547083329642,
      "v": 83
    },
    {
      "midi": 58,
      "hit": false,
      "t": 224261.75899999862,
      "d": 62.49817916666507,
      "v": 71
    },
    {
      "midi": 65,
      "hit": false,
      "t": 224261.75899999862,
      "d": 77.74163750000298,
      "v": 86
    },
    {
      "midi": 61,
      "hit": false,
      "t": 224261.75899999862,
      "d": 85.36336666665738,
      "v": 83
    },
    {
      "midi": 46,
      "hit": false,
      "t": 224261.75899999862,
      "d": 314.01524166666786,
      "v": 86
    },
    {
      "midi": 58,
      "hit": false,
      "t": 224627.60199999862,
      "d": 47.254720833327156,
      "v": 66
    },
    {
      "midi": 65,
      "hit": false,
      "t": 224627.60199999862,
      "d": 62.49817916666507,
      "v": 84
    },
    {
      "midi": 61,
      "hit": false,
      "t": 224627.60199999862,
      "d": 65.54687083332101,
      "v": 79
    },
    {
      "midi": 34,
      "hit": false,
      "t": 224627.60199999862,
      "d": 176.82411666665575,
      "v": 98
    },
    {
      "midi": 58,
      "hit": false,
      "t": 224993.4449999986,
      "d": 39.63299166667275,
      "v": 71
    },
    {
      "midi": 61,
      "hit": false,
      "t": 224993.4449999986,
      "d": 54.876450000010664,
      "v": 86
    },
    {
      "midi": 65,
      "hit": false,
      "t": 224993.4449999986,
      "d": 54.876450000010664,
      "v": 91
    },
    {
      "midi": 58,
      "hit": false,
      "t": 225359.28799999863,
      "d": 54.876450000010664,
      "v": 86
    },
    {
      "midi": 65,
      "hit": false,
      "t": 225359.28799999863,
      "d": 54.876450000010664,
      "v": 97
    },
    {
      "midi": 61,
      "hit": false,
      "t": 225359.28799999863,
      "d": 57.925141666666605,
      "v": 94
    }
  ]
}