{
  "jsonPath": "Jazz/Jazz Funk/Ashford  Simpson/it-seems-to-hang-on-tommy-musto-re-touch.json",
  "path": "Jazz\\Jazz Funk\\Ashford  Simpson\\It Seems To Hang On (Tommy Musto Re-Touch).mid",
  "name": "It Seems To Hang On (Tommy Musto Re-Touch)",
  "difficulty": "Advanced",
  "bpm": 126.00039060121087,
  "notes": [
    {
      "midi": 64,
      "hit": false,
      "t": 1666.6615,
      "d": 3616.06021875,
      "v": 127
    },
    {
      "midi": 62,
      "hit": false,
      "t": 1726.185125,
      "d": 3616.06021875,
      "v": 121
    },
    {
      "midi": 59,
      "hit": false,
      "t": 1785.70875,
      "d": 3616.06021875,
      "v": 127
    },
    {
      "midi": 55,
      "hit": false,
      "t": 1845.232375,
      "d": 3616.0602187499994,
      "v": 127
    },
    {
      "midi": 76,
      "hit": false,
      "t": 5476.1735,
      "d": 1855.1529791666662,
      "v": 127
    },
    {
      "midi": 74,
      "hit": false,
      "t": 5535.697125,
      "d": 1855.1529791666662,
      "v": 127
    },
    {
      "midi": 71,
      "hit": false,
      "t": 5595.2207499999995,
      "d": 1855.1529791666662,
      "v": 127
    },
    {
      "midi": 67,
      "hit": false,
      "t": 5654.744374999999,
      "d": 1855.1529791666662,
      "v": 127
    },
    {
      "midi": 73,
      "hit": false,
      "t": 7619.0239999999985,
      "d": 664.6804791666664,
      "v": 114
    },
    {
      "midi": 76,
      "hit": false,
      "t": 7619.0239999999985,
      "d": 664.6804791666664,
      "v": 127
    },
    {
      "midi": 81,
      "hit": false,
      "t": 7619.0239999999985,
      "d": 664.6804791666664,
      "v": 127
    },
    {
      "midi": 69,
      "hit": false,
      "t": 8348.188406249998,
      "d": 902.7749791666665,
      "v": 127
    },
    {
      "midi": 74,
      "hit": false,
      "t": 8348.188406249998,
      "d": 902.7749791666665,
      "v": 127
    },
    {
      "midi": 78,
      "hit": false,
      "t": 8348.188406249998,
      "d": 902.7749791666665,
      "v": 118
    },
    {
      "midi": 67,
      "hit": false,
      "t": 9315.447312499997,
      "d": 1855.1529791666671,
      "v": 127
    },
    {
      "midi": 71,
      "hit": false,
      "t": 9315.447312499997,
      "d": 1855.1529791666671,
      "v": 127
    },
    {
      "midi": 74,
      "hit": false,
      "t": 9315.447312499997,
      "d": 1855.1529791666671,
      "v": 118
    },
    {
      "midi": 76,
      "hit": false,
      "t": 9315.447312499997,
      "d": 1855.1529791666671,
      "v": 127
    },
    {
      "midi": 69,
      "hit": false,
      "t": 11458.297812499997,
      "d": 664.6804791666673,
      "v": 127
    },
    {
      "midi": 74,
      "hit": false,
      "t": 11458.297812499997,
      "d": 664.6804791666673,
      "v": 127
    },
    {
      "midi": 78,
      "hit": false,
      "t": 11458.297812499997,
      "d": 664.6804791666673,
      "v": 118
    },
    {
      "midi": 73,
      "hit": false,
      "t": 12187.462218749997,
      "d": 902.7749791666665,
      "v": 117
    },
    {
      "midi": 76,
      "hit": false,
      "t": 12187.462218749997,
      "d": 902.7749791666665,
      "v": 127
    },
    {
      "midi": 81,
      "hit": false,
      "t": 12187.462218749997,
      "d": 902.7749791666665,
      "v": 127
    },
    {
      "midi": 67,
      "hit": false,
      "t": 13154.721124999996,
      "d": 1711.3042187499996,
      "v": 127
    },
    {
      "midi": 71,
      "hit": false,
      "t": 13154.721124999996,
      "d": 1711.3042187499996,
      "v": 127
    },
    {
      "midi": 74,
      "hit": false,
      "t": 13154.721124999996,
      "d": 1711.3042187499996,
      "v": 118
    },
    {
      "midi": 76,
      "hit": false,
      "t": 13154.721124999996,
      "d": 1711.3042187499996,
      "v": 127
    },
    {
      "midi": 73,
      "hit": false,
      "t": 15297.571624999997,
      "d": 664.6804791666673,
      "v": 114
    },
    {
      "midi": 76,
      "hit": false,
      "t": 15297.571624999997,
      "d": 664.6804791666673,
      "v": 127
    },
    {
      "midi": 81,
      "hit": false,
      "t": 15297.571624999997,
      "d": 664.6804791666673,
      "v": 127
    },
    {
      "midi": 69,
      "hit": false,
      "t": 16026.736031249997,
      "d": 902.7749791666665,
      "v": 127
    },
    {
      "midi": 74,
      "hit": false,
      "t": 16026.736031249997,
      "d": 902.7749791666665,
      "v": 127
    },
    {
      "midi": 78,
      "hit": false,
      "t": 16026.736031249997,
      "d": 902.7749791666665,
      "v": 118
    },
    {
      "midi": 67,
      "hit": false,
      "t": 16993.994937499996,
      "d": 1855.1529791666653,
      "v": 127
    },
    {
      "midi": 71,
      "hit": false,
      "t": 16993.994937499996,
      "d": 1855.1529791666653,
      "v": 127
    },
    {
      "midi": 74,
      "hit": false,
      "t": 16993.994937499996,
      "d": 1855.1529791666653,
      "v": 118
    },
    {
      "midi": 76,
      "hit": false,
      "t": 16993.994937499996,
      "d": 1855.1529791666653,
      "v": 127
    },
    {
      "midi": 33,
      "hit": false,
      "t": 19136.845437499993,
      "d": 188.49147916666698,
      "v": 127
    },
    {
      "midi": 69,
      "hit": false,
      "t": 19136.845437499993,
      "d": 694.4422916666663,
      "v": 127
    },
    {
      "midi": 74,
      "hit": false,
      "t": 19136.845437499993,
      "d": 694.4422916666663,
      "v": 127
    },
    {
      "midi": 78,
      "hit": false,
      "t": 19136.845437499993,
      "d": 694.4422916666663,
      "v": 118
    },
    {
      "midi": 45,
      "hit": false,
      "t": 19389.820843749992,
      "d": 188.49147916666698,
      "v": 127
    },
    {
      "midi": 34,
      "hit": false,
      "t": 19642.796249999992,
      "d": 188.49147916666698,
      "v": 127
    },
    {
      "midi": 46,
      "hit": false,
      "t": 19895.77165624999,
      "d": 188.49147916666698,
      "v": 127
    },
    {
      "midi": 73,
      "hit": false,
      "t": 19895.77165624999,
      "d": 1185.5121979166652,
      "v": 118
    },
    {
      "midi": 76,
      "hit": false,
      "t": 19895.77165624999,
      "d": 1185.5121979166652,
      "v": 127
    },
    {
      "midi": 81,
      "hit": false,
      "t": 19895.77165624999,
      "d": 1185.5121979166652,
      "v": 127
    },
    {
      "midi": 35,
      "hit": false,
      "t": 20148.74706249999,
      "d": 188.49147916666698,
      "v": 127
    },
    {
      "midi": 47,
      "hit": false,
      "t": 20401.72246874999,
      "d": 188.49147916666698,
      "v": 127
    },
    {
      "midi": 47,
      "hit": false,
      "t": 20654.69787499999,
      "d": 188.49147916666698,
      "v": 127
    },
    {
      "midi": 67,
      "hit": false,
      "t": 21145.76778124999,
      "d": 1711.3042187499996,
      "v": 127
    },
    {
      "midi": 71,
      "hit": false,
      "t": 21145.76778124999,
      "d": 1711.3042187499996,
      "v": 127
    },
    {
      "midi": 76,
      "hit": false,
      "t": 21145.76778124999,
      "d": 1711.3042187499996,
      "v": 127
    },
    {
      "midi": 73,
      "hit": false,
      "t": 23050.52378124999,
      "d": 664.6804791666655,
      "v": 114
    },
    {
      "midi": 76,
      "hit": false,
      "t": 23050.52378124999,
      "d": 664.6804791666655,
      "v": 127
    },
    {
      "midi": 81,
      "hit": false,
      "t": 23050.52378124999,
      "d": 664.6804791666655,
      "v": 121
    },
    {
      "midi": 69,
      "hit": false,
      "t": 23779.68818749999,
      "d": 902.7749791666683,
      "v": 127
    },
    {
      "midi": 74,
      "hit": false,
      "t": 23779.68818749999,
      "d": 902.7749791666683,
      "v": 127
    },
    {
      "midi": 78,
      "hit": false,
      "t": 23779.68818749999,
      "d": 902.7749791666683,
      "v": 121
    },
    {
      "midi": 69,
      "hit": false,
      "t": 24047.5445,
      "d": 94.24573958333349,
      "v": 120
    },
    {
      "midi": 71,
      "hit": false,
      "t": 24166.59175,
      "d": 94.24573958333349,
      "v": 120
    },
    {
      "midi": 74,
      "hit": false,
      "t": 24285.639,
      "d": 94.24573958333349,
      "v": 120
    },
    {
      "midi": 69,
      "hit": false,
      "t": 24404.68625,
      "d": 94.24573958333349,
      "v": 120
    },
    {
      "midi": 71,
      "hit": false,
      "t": 24523.7335,
      "d": 94.24573958333349,
      "v": 120
    },
    {
      "midi": 74,
      "hit": false,
      "t": 24642.780749999998,
      "d": 94.24573958333349,
      "v": 120
    },
    {
      "midi": 67,
      "hit": false,
      "t": 24746.94709374999,
      "d": 2093.247479166668,
      "v": 127
    },
    {
      "midi": 71,
      "hit": false,
      "t": 24746.94709374999,
      "d": 2093.247479166668,
      "v": 127
    },
    {
      "midi": 76,
      "hit": false,
      "t": 24746.94709374999,
      "d": 2093.247479166668,
      "v": 127
    },
    {
      "midi": 69,
      "hit": false,
      "t": 26904.67849999999,
      "d": 664.6804791666655,
      "v": 127
    },
    {
      "midi": 74,
      "hit": false,
      "t": 26904.67849999999,
      "d": 664.6804791666655,
      "v": 127
    },
    {
      "midi": 78,
      "hit": false,
      "t": 26904.67849999999,
      "d": 664.6804791666655,
      "v": 118
    },
    {
      "midi": 73,
      "hit": false,
      "t": 27633.84290624999,
      "d": 902.7749791666683,
      "v": 114
    },
    {
      "midi": 76,
      "hit": false,
      "t": 27633.84290624999,
      "d": 902.7749791666683,
      "v": 127
    },
    {
      "midi": 81,
      "hit": false,
      "t": 27633.84290624999,
      "d": 902.7749791666683,
      "v": 127
    },
    {
      "midi": 67,
      "hit": false,
      "t": 28601.10181249999,
      "d": 2093.247479166668,
      "v": 127
    },
    {
      "midi": 71,
      "hit": false,
      "t": 28601.10181249999,
      "d": 2093.247479166668,
      "v": 127
    },
    {
      "midi": 76,
      "hit": false,
      "t": 28601.10181249999,
      "d": 2093.247479166668,
      "v": 127
    },
    {
      "midi": 73,
      "hit": false,
      "t": 30758.83321874999,
      "d": 664.6804791666655,
      "v": 114
    },
    {
      "midi": 76,
      "hit": false,
      "t": 30758.83321874999,
      "d": 664.6804791666655,
      "v": 127
    },
    {
      "midi": 81,
      "hit": false,
      "t": 30758.83321874999,
      "d": 664.6804791666655,
      "v": 121
    },
    {
      "midi": 69,
      "hit": false,
      "t": 31487.99762499999,
      "d": 902.7749791666683,
      "v": 127
    },
    {
      "midi": 74,
      "hit": false,
      "t": 31487.99762499999,
      "d": 902.7749791666683,
      "v": 127
    },
    {
      "midi": 78,
      "hit": false,
      "t": 31487.99762499999,
      "d": 902.7749791666683,
      "v": 121
    },
    {
      "midi": 76,
      "hit": false,
      "t": 31666.568499999998,
      "d": 376.98295833333395,
      "v": 120
    },
    {
      "midi": 88,
      "hit": false,
      "t": 31666.568499999998,
      "d": 376.98295833333395,
      "v": 120
    },
    {
      "midi": 74,
      "hit": false,
      "t": 32023.710249999996,
      "d": 317.45933333333596,
      "v": 120
    },
    {
      "midi": 86,
      "hit": false,
      "t": 32023.710249999996,
      "d": 317.45933333333596,
      "v": 120
    },
    {
      "midi": 71,
      "hit": false,
      "t": 32380.852,
      "d": 1190.4725000000035,
      "v": 120
    },
    {
      "midi": 83,
      "hit": false,
      "t": 32380.852,
      "d": 1190.4725000000035,
      "v": 120
    },
    {
      "midi": 67,
      "hit": false,
      "t": 32455.25653124999,
      "d": 2093.2474791666646,
      "v": 127
    },
    {
      "midi": 71,
      "hit": false,
      "t": 32455.25653124999,
      "d": 2093.2474791666646,
      "v": 127
    },
    {
      "midi": 76,
      "hit": false,
      "t": 32455.25653124999,
      "d": 2093.2474791666646,
      "v": 127
    },
    {
      "midi": 69,
      "hit": false,
      "t": 34612.98793749999,
      "d": 664.6804791666655,
      "v": 127
    },
    {
      "midi": 74,
      "hit": false,
      "t": 34612.98793749999,
      "d": 664.6804791666655,
      "v": 127
    },
    {
      "midi": 78,
      "hit": false,
      "t": 34612.98793749999,
      "d": 664.6804791666655,
      "v": 118
    },
    {
      "midi": 73,
      "hit": false,
      "t": 35342.152343749985,
      "d": 902.7749791666647,
      "v": 114
    },
    {
      "midi": 76,
      "hit": false,
      "t": 35342.152343749985,
      "d": 902.7749791666647,
      "v": 127
    },
    {
      "midi": 81,
      "hit": false,
      "t": 35342.152343749985,
      "d": 902.7749791666647,
      "v": 127
    },
    {
      "midi": 67,
      "hit": false,
      "t": 36309.41124999998,
      "d": 2093.247479166668,
      "v": 127
    },
    {
      "midi": 71,
      "hit": false,
      "t": 36309.41124999998,
      "d": 2093.247479166668,
      "v": 127
    },
    {
      "midi": 76,
      "hit": false,
      "t": 36309.41124999998,
      "d": 2093.247479166668,
      "v": 127
    },
    {
      "midi": 73,
      "hit": false,
      "t": 38467.142656249984,
      "d": 664.6804791666655,
      "v": 114
    },
    {
      "midi": 76,
      "hit": false,
      "t": 38467.142656249984,
      "d": 664.6804791666655,
      "v": 127
    },
    {
      "midi": 81,
      "hit": false,
      "t": 38467.142656249984,
      "d": 664.6804791666655,
      "v": 121
    },
    {
      "midi": 69,
      "hit": false,
      "t": 39196.30706249998,
      "d": 902.7749791666647,
      "v": 127
    },
    {
      "midi": 74,
      "hit": false,
      "t": 39196.30706249998,
      "d": 902.7749791666647,
      "v": 127
    },
    {
      "midi": 78,
      "hit": false,
      "t": 39196.30706249998,
      "d": 902.7749791666647,
      "v": 121
    },
    {
      "midi": 67,
      "hit": false,
      "t": 40163.56596874998,
      "d": 2093.247479166668,
      "v": 127
    },
    {
      "midi": 71,
      "hit": false,
      "t": 40163.56596874998,
      "d": 2093.247479166668,
      "v": 127
    },
    {
      "midi": 76,
      "hit": false,
      "t": 40163.56596874998,
      "d": 2093.247479166668,
      "v": 127
    },
    {
      "midi": 69,
      "hit": false,
      "t": 42321.29737499998,
      "d": 664.6804791666655,
      "v": 127
    },
    {
      "midi": 74,
      "hit": false,
      "t": 42321.29737499998,
      "d": 664.6804791666655,
      "v": 127
    },
    {
      "midi": 78,
      "hit": false,
      "t": 42321.29737499998,
      "d": 664.6804791666655,
      "v": 118
    },
    {
      "midi": 73,
      "hit": false,
      "t": 43050.46178124998,
      "d": 902.7749791666647,
      "v": 114
    },
    {
      "midi": 76,
      "hit": false,
      "t": 43050.46178124998,
      "d": 902.7749791666647,
      "v": 127
    },
    {
      "midi": 81,
      "hit": false,
      "t": 43050.46178124998,
      "d": 902.7749791666647,
      "v": 127
    },
    {
      "midi": 67,
      "hit": false,
      "t": 44017.720687499976,
      "d": 2093.247479166668,
      "v": 127
    },
    {
      "midi": 71,
      "hit": false,
      "t": 44017.720687499976,
      "d": 2093.247479166668,
      "v": 127
    },
    {
      "midi": 76,
      "hit": false,
      "t": 44017.720687499976,
      "d": 2093.247479166668,
      "v": 127
    },
    {
      "midi": 73,
      "hit": false,
      "t": 46175.45209374998,
      "d": 664.6804791666655,
      "v": 114
    },
    {
      "midi": 76,
      "hit": false,
      "t": 46175.45209374998,
      "d": 664.6804791666655,
      "v": 127
    },
    {
      "midi": 81,
      "hit": false,
      "t": 46175.45209374998,
      "d": 664.6804791666655,
      "v": 121
    },
    {
      "midi": 69,
      "hit": false,
      "t": 46904.616499999975,
      "d": 902.7749791666647,
      "v": 127
    },
    {
      "midi": 74,
      "hit": false,
      "t": 46904.616499999975,
      "d": 902.7749791666647,
      "v": 127
    },
    {
      "midi": 78,
      "hit": false,
      "t": 46904.616499999975,
      "d": 902.7749791666647,
      "v": 121
    },
    {
      "midi": 67,
      "hit": false,
      "t": 47871.87540624997,
      "d": 2093.247479166668,
      "v": 127
    },
    {
      "midi": 71,
      "hit": false,
      "t": 47871.87540624997,
      "d": 2093.247479166668,
      "v": 127
    },
    {
      "midi": 76,
      "hit": false,
      "t": 47871.87540624997,
      "d": 2093.247479166668,
      "v": 127
    },
    {
      "midi": 69,
      "hit": false,
      "t": 50029.60681249997,
      "d": 664.6804791666655,
      "v": 127
    },
    {
      "midi": 74,
      "hit": false,
      "t": 50029.60681249997,
      "d": 664.6804791666655,
      "v": 127
    },
    {
      "midi": 78,
      "hit": false,
      "t": 50029.60681249997,
      "d": 664.6804791666655,
      "v": 114
    },
    {
      "midi": 73,
      "hit": false,
      "t": 50758.77121874997,
      "d": 1140.869479166664,
      "v": 114
    },
    {
      "midi": 76,
      "hit": false,
      "t": 50758.77121874997,
      "d": 1140.869479166664,
      "v": 127
    },
    {
      "midi": 81,
      "hit": false,
      "t": 50758.77121874997,
      "d": 1140.869479166664,
      "v": 127
    },
    {
      "midi": 50,
      "hit": false,
      "t": 51964.12462499997,
      "d": 1711.3042187500032,
      "v": 127
    },
    {
      "midi": 55,
      "hit": false,
      "t": 51964.12462499997,
      "d": 1711.3042187500032,
      "v": 127
    },
    {
      "midi": 59,
      "hit": false,
      "t": 51964.12462499997,
      "d": 1711.3042187500032,
      "v": 127
    },
    {
      "midi": 62,
      "hit": false,
      "t": 51964.12462499997,
      "d": 1711.3042187500032,
      "v": 127
    },
    {
      "midi": 67,
      "hit": false,
      "t": 51964.12462499997,
      "d": 1711.3042187500032,
      "v": 127
    },
    {
      "midi": 71,
      "hit": false,
      "t": 51964.12462499997,
      "d": 1711.3042187500032,
      "v": 127
    },
    {
      "midi": 50,
      "hit": false,
      "t": 53868.88062499997,
      "d": 1711.3042187500032,
      "v": 127
    },
    {
      "midi": 54,
      "hit": false,
      "t": 53868.88062499997,
      "d": 1711.3042187500032,
      "v": 127
    },
    {
      "midi": 57,
      "hit": false,
      "t": 53868.88062499997,
      "d": 1711.3042187500032,
      "v": 127
    },
    {
      "midi": 62,
      "hit": false,
      "t": 53868.88062499997,
      "d": 1711.3042187500032,
      "v": 127
    },
    {
      "midi": 66,
      "hit": false,
      "t": 53868.88062499997,
      "d": 1711.3042187500032,
      "v": 127
    },
    {
      "midi": 69,
      "hit": false,
      "t": 53868.88062499997,
      "d": 1711.3042187500032,
      "v": 127
    },
    {
      "midi": 47,
      "hit": false,
      "t": 55773.63662499997,
      "d": 1711.3042187500032,
      "v": 127
    },
    {
      "midi": 52,
      "hit": false,
      "t": 55773.63662499997,
      "d": 1711.3042187500032,
      "v": 127
    },
    {
      "midi": 55,
      "hit": false,
      "t": 55773.63662499997,
      "d": 1711.3042187500032,
      "v": 127
    },
    {
      "midi": 59,
      "hit": false,
      "t": 55773.63662499997,
      "d": 1711.3042187500032,
      "v": 127
    },
    {
      "midi": 64,
      "hit": false,
      "t": 55773.63662499997,
      "d": 1711.3042187500032,
      "v": 127
    },
    {
      "midi": 67,
      "hit": false,
      "t": 55773.63662499997,
      "d": 1711.3042187500032,
      "v": 127
    },
    {
      "midi": 50,
      "hit": false,
      "t": 57678.39262499997,
      "d": 1711.3042187500032,
      "v": 127
    },
    {
      "midi": 54,
      "hit": false,
      "t": 57678.39262499997,
      "d": 1711.3042187500032,
      "v": 127
    },
    {
      "midi": 57,
      "hit": false,
      "t": 57678.39262499997,
      "d": 1711.3042187500032,
      "v": 127
    },
    {
      "midi": 62,
      "hit": false,
      "t": 57678.39262499997,
      "d": 1711.3042187500032,
      "v": 127
    },
    {
      "midi": 66,
      "hit": false,
      "t": 57678.39262499997,
      "d": 1711.3042187500032,
      "v": 127
    },
    {
      "midi": 69,
      "hit": false,
      "t": 57678.39262499997,
      "d": 1711.3042187500032,
      "v": 127
    },
    {
      "midi": 50,
      "hit": false,
      "t": 59583.14862499997,
      "d": 1711.3042187500032,
      "v": 127
    },
    {
      "midi": 55,
      "hit": false,
      "t": 59583.14862499997,
      "d": 1711.3042187500032,
      "v": 127
    },
    {
      "midi": 59,
      "hit": false,
      "t": 59583.14862499997,
      "d": 1711.3042187500032,
      "v": 127
    },
    {
      "midi": 62,
      "hit": false,
      "t": 59583.14862499997,
      "d": 1711.3042187500032,
      "v": 127
    },
    {
      "midi": 67,
      "hit": false,
      "t": 59583.14862499997,
      "d": 1711.3042187500032,
      "v": 127
    },
    {
      "midi": 71,
      "hit": false,
      "t": 59583.14862499997,
      "d": 1711.3042187500032,
      "v": 127
    },
    {
      "midi": 50,
      "hit": false,
      "t": 61487.904624999974,
      "d": 858.1322604166635,
      "v": 127
    },
    {
      "midi": 54,
      "hit": false,
      "t": 61487.904624999974,
      "d": 858.1322604166635,
      "v": 121
    },
    {
      "midi": 57,
      "hit": false,
      "t": 61487.904624999974,
      "d": 858.1322604166635,
      "v": 127
    },
    {
      "midi": 62,
      "hit": false,
      "t": 61487.904624999974,
      "d": 858.1322604166635,
      "v": 127
    },
    {
      "midi": 66,
      "hit": false,
      "t": 61487.904624999974,
      "d": 858.1322604166635,
      "v": 121
    },
    {
      "midi": 69,
      "hit": false,
      "t": 61487.904624999974,
      "d": 858.1322604166635,
      "v": 127
    },
    {
      "midi": 50,
      "hit": false,
      "t": 62440.28262499997,
      "d": 381.943260416665,
      "v": 127
    },
    {
      "midi": 54,
      "hit": false,
      "t": 62440.28262499997,
      "d": 381.943260416665,
      "v": 126
    },
    {
      "midi": 57,
      "hit": false,
      "t": 62440.28262499997,
      "d": 381.943260416665,
      "v": 127
    },
    {
      "midi": 62,
      "hit": false,
      "t": 62440.28262499997,
      "d": 381.943260416665,
      "v": 127
    },
    {
      "midi": 66,
      "hit": false,
      "t": 62440.28262499997,
      "d": 381.943260416665,
      "v": 126
    },
    {
      "midi": 69,
      "hit": false,
      "t": 62440.28262499997,
      "d": 381.943260416665,
      "v": 127
    },
    {
      "midi": 48,
      "hit": false,
      "t": 62916.47162499997,
      "d": 381.943260416665,
      "v": 127
    },
    {
      "midi": 51,
      "hit": false,
      "t": 62916.47162499997,
      "d": 381.943260416665,
      "v": 127
    },
    {
      "midi": 54,
      "hit": false,
      "t": 62916.47162499997,
      "d": 381.943260416665,
      "v": 127
    },
    {
      "midi": 60,
      "hit": false,
      "t": 62916.47162499997,
      "d": 381.943260416665,
      "v": 127
    },
    {
      "midi": 63,
      "hit": false,
      "t": 62916.47162499997,
      "d": 381.943260416665,
      "v": 127
    },
    {
      "midi": 66,
      "hit": false,
      "t": 62916.47162499997,
      "d": 381.943260416665,
      "v": 127
    },
    {
      "midi": 67,
      "hit": false,
      "t": 63392.66062499997,
      "d": 1855.152979166669,
      "v": 127
    },
    {
      "midi": 71,
      "hit": false,
      "t": 63392.66062499997,
      "d": 1855.152979166669,
      "v": 127
    },
    {
      "midi": 76,
      "hit": false,
      "t": 63392.66062499997,
      "d": 1855.152979166669,
      "v": 127
    },
    {
      "midi": 69,
      "hit": false,
      "t": 65312.29753124997,
      "d": 664.6804791666727,
      "v": 127
    },
    {
      "midi": 74,
      "hit": false,
      "t": 65312.29753124997,
      "d": 664.6804791666727,
      "v": 127
    },
    {
      "midi": 78,
      "hit": false,
      "t": 65312.29753124997,
      "d": 664.6804791666727,
      "v": 117
    },
    {
      "midi": 73,
      "hit": false,
      "t": 66041.46193749997,
      "d": 902.774979166672,
      "v": 105
    },
    {
      "midi": 76,
      "hit": false,
      "t": 66041.46193749997,
      "d": 902.774979166672,
      "v": 127
    },
    {
      "midi": 81,
      "hit": false,
      "t": 66041.46193749997,
      "d": 902.774979166672,
      "v": 112
    },
    {
      "midi": 67,
      "hit": false,
      "t": 67008.72084374998,
      "d": 2093.247479166661,
      "v": 127
    },
    {
      "midi": 71,
      "hit": false,
      "t": 67008.72084374998,
      "d": 2093.247479166661,
      "v": 127
    },
    {
      "midi": 76,
      "hit": false,
      "t": 67008.72084374998,
      "d": 2093.247479166661,
      "v": 127
    },
    {
      "midi": 76,
      "hit": false,
      "t": 67856.9325,
      "d": 94.24573958333349,
      "v": 120
    },
    {
      "midi": 79,
      "hit": false,
      "t": 67975.97975,
      "d": 94.24573958333349,
      "v": 120
    },
    {
      "midi": 76,
      "hit": false,
      "t": 68095.027,
      "d": 94.24573958333349,
      "v": 120
    },
    {
      "midi": 74,
      "hit": false,
      "t": 68214.07425,
      "d": 94.24573958333349,
      "v": 120
    },
    {
      "midi": 71,
      "hit": false,
      "t": 68333.12150000001,
      "d": 94.24573958333349,
      "v": 120
    },
    {
      "midi": 69,
      "hit": false,
      "t": 68452.16875000001,
      "d": 94.24573958333349,
      "v": 120
    },
    {
      "midi": 69,
      "hit": false,
      "t": 69166.45224999997,
      "d": 664.6804791666655,
      "v": 127
    },
    {
      "midi": 74,
      "hit": false,
      "t": 69166.45224999997,
      "d": 664.6804791666655,
      "v": 127
    },
    {
      "midi": 78,
      "hit": false,
      "t": 69166.45224999997,
      "d": 664.6804791666655,
      "v": 117
    },
    {
      "midi": 73,
      "hit": false,
      "t": 69895.61665624997,
      "d": 902.774979166672,
      "v": 105
    },
    {
      "midi": 76,
      "hit": false,
      "t": 69895.61665624997,
      "d": 902.774979166672,
      "v": 127
    },
    {
      "midi": 81,
      "hit": false,
      "t": 69895.61665624997,
      "d": 902.774979166672,
      "v": 112
    },
    {
      "midi": 67,
      "hit": false,
      "t": 70862.87556249998,
      "d": 2093.247479166661,
      "v": 127
    },
    {
      "midi": 71,
      "hit": false,
      "t": 70862.87556249998,
      "d": 2093.247479166661,
      "v": 127
    },
    {
      "midi": 76,
      "hit": false,
      "t": 70862.87556249998,
      "d": 2093.247479166661,
      "v": 127
    },
    {
      "midi": 69,
      "hit": false,
      "t": 73020.60696874997,
      "d": 664.6804791666655,
      "v": 127
    },
    {
      "midi": 74,
      "hit": false,
      "t": 73020.60696874997,
      "d": 664.6804791666655,
      "v": 127
    },
    {
      "midi": 78,
      "hit": false,
      "t": 73020.60696874997,
      "d": 664.6804791666655,
      "v": 117
    },
    {
      "midi": 76,
      "hit": false,
      "t": 73571.2005,
      "d": 94.24573958333349,
      "v": 120
    },
    {
      "midi": 79,
      "hit": false,
      "t": 73690.24775000001,
      "d": 94.24573958333349,
      "v": 120
    },
    {
      "midi": 73,
      "hit": false,
      "t": 73749.77137499997,
      "d": 902.774979166672,
      "v": 105
    },
    {
      "midi": 76,
      "hit": false,
      "t": 73749.77137499997,
      "d": 902.774979166672,
      "v": 127
    },
    {
      "midi": 81,
      "hit": false,
      "t": 73749.77137499997,
      "d": 902.774979166672,
      "v": 112
    },
    {
      "midi": 76,
      "hit": false,
      "t": 73809.29500000001,
      "d": 94.24573958333349,
      "v": 120
    },
    {
      "midi": 74,
      "hit": false,
      "t": 73928.34225000002,
      "d": 94.24573958333349,
      "v": 120
    },
    {
      "midi": 71,
      "hit": false,
      "t": 74047.38950000002,
      "d": 94.24573958333349,
      "v": 120
    },
    {
      "midi": 69,
      "hit": false,
      "t": 74166.43675000002,
      "d": 94.24573958333349,
      "v": 120
    },
    {
      "midi": 67,
      "hit": false,
      "t": 74717.03028124997,
      "d": 2093.247479166661,
      "v": 127
    },
    {
      "midi": 71,
      "hit": false,
      "t": 74717.03028124997,
      "d": 2093.247479166661,
      "v": 127
    },
    {
      "midi": 76,
      "hit": false,
      "t": 74717.03028124997,
      "d": 2093.247479166661,
      "v": 127
    },
    {
      "midi": 69,
      "hit": false,
      "t": 75475.95650000003,
      "d": 94.24573958333349,
      "v": 120
    },
    {
      "midi": 71,
      "hit": false,
      "t": 75595.00375000003,
      "d": 94.24573958333349,
      "v": 120
    },
    {
      "midi": 74,
      "hit": false,
      "t": 75714.05100000004,
      "d": 94.24573958333349,
      "v": 120
    },
    {
      "midi": 71,
      "hit": false,
      "t": 75833.09825000004,
      "d": 94.24573958333349,
      "v": 120
    },
    {
      "midi": 74,
      "hit": false,
      "t": 75952.14550000004,
      "d": 94.24573958333349,
      "v": 120
    },
    {
      "midi": 76,
      "hit": false,
      "t": 76071.19275000005,
      "d": 94.24573958333349,
      "v": 120
    },
    {
      "midi": 45,
      "hit": false,
      "t": 77177.3401145833,
      "d": 124.0075520833343,
      "v": 127
    },
    {
      "midi": 57,
      "hit": false,
      "t": 77177.3401145833,
      "d": 124.0075520833343,
      "v": 127
    },
    {
      "midi": 45,
      "hit": false,
      "t": 77494.79944791664,
      "d": 124.0075520833343,
      "v": 127
    },
    {
      "midi": 57,
      "hit": false,
      "t": 77494.79944791664,
      "d": 124.0075520833343,
      "v": 127
    },
    {
      "midi": 45,
      "hit": false,
      "t": 77812.25878124997,
      "d": 124.0075520833343,
      "v": 127
    },
    {
      "midi": 57,
      "hit": false,
      "t": 77812.25878124997,
      "d": 124.0075520833343,
      "v": 127
    },
    {
      "midi": 67,
      "hit": false,
      "t": 78526.54228124997,
      "d": 2093.247479166661,
      "v": 127
    },
    {
      "midi": 71,
      "hit": false,
      "t": 78526.54228124997,
      "d": 2093.247479166661,
      "v": 127
    },
    {
      "midi": 76,
      "hit": false,
      "t": 78526.54228124997,
      "d": 2093.247479166661,
      "v": 127
    },
    {
      "midi": 73,
      "hit": false,
      "t": 80684.27368749997,
      "d": 664.6804791666655,
      "v": 114
    },
    {
      "midi": 76,
      "hit": false,
      "t": 80684.27368749997,
      "d": 664.6804791666655,
      "v": 127
    },
    {
      "midi": 81,
      "hit": false,
      "t": 80684.27368749997,
      "d": 664.6804791666655,
      "v": 121
    },
    {
      "midi": 69,
      "hit": false,
      "t": 81413.43809374997,
      "d": 902.774979166672,
      "v": 127
    },
    {
      "midi": 74,
      "hit": false,
      "t": 81413.43809374997,
      "d": 902.774979166672,
      "v": 127
    },
    {
      "midi": 78,
      "hit": false,
      "t": 81413.43809374997,
      "d": 902.774979166672,
      "v": 121
    },
    {
      "midi": 67,
      "hit": false,
      "t": 82380.69699999997,
      "d": 2093.247479166661,
      "v": 127
    },
    {
      "midi": 71,
      "hit": false,
      "t": 82380.69699999997,
      "d": 2093.247479166661,
      "v": 127
    },
    {
      "midi": 76,
      "hit": false,
      "t": 82380.69699999997,
      "d": 2093.247479166661,
      "v": 127
    },
    {
      "midi": 73,
      "hit": false,
      "t": 84538.42840624996,
      "d": 664.6804791666655,
      "v": 114
    },
    {
      "midi": 76,
      "hit": false,
      "t": 84538.42840624996,
      "d": 664.6804791666655,
      "v": 127
    },
    {
      "midi": 81,
      "hit": false,
      "t": 84538.42840624996,
      "d": 664.6804791666655,
      "v": 121
    },
    {
      "midi": 76,
      "hit": false,
      "t": 84999.73650000004,
      "d": 376.98295833333395,
      "v": 120
    },
    {
      "midi": 88,
      "hit": false,
      "t": 84999.73650000004,
      "d": 376.98295833333395,
      "v": 120
    },
    {
      "midi": 69,
      "hit": false,
      "t": 85267.59281249996,
      "d": 902.774979166672,
      "v": 127
    },
    {
      "midi": 74,
      "hit": false,
      "t": 85267.59281249996,
      "d": 902.774979166672,
      "v": 127
    },
    {
      "midi": 78,
      "hit": false,
      "t": 85267.59281249996,
      "d": 902.774979166672,
      "v": 121
    },
    {
      "midi": 74,
      "hit": false,
      "t": 85356.87825000004,
      "d": 317.4593333333323,
      "v": 120
    },
    {
      "midi": 86,
      "hit": false,
      "t": 85356.87825000004,
      "d": 317.4593333333323,
      "v": 120
    },
    {
      "midi": 71,
      "hit": false,
      "t": 85714.02000000003,
      "d": 1190.4725000000035,
      "v": 120
    },
    {
      "midi": 83,
      "hit": false,
      "t": 85714.02000000003,
      "d": 1190.4725000000035,
      "v": 120
    },
    {
      "midi": 67,
      "hit": false,
      "t": 86234.85171874997,
      "d": 2093.247479166661,
      "v": 127
    },
    {
      "midi": 71,
      "hit": false,
      "t": 86234.85171874997,
      "d": 2093.247479166661,
      "v": 127
    },
    {
      "midi": 76,
      "hit": false,
      "t": 86234.85171874997,
      "d": 2093.247479166661,
      "v": 127
    },
    {
      "midi": 73,
      "hit": false,
      "t": 88392.58312499996,
      "d": 664.6804791666655,
      "v": 114
    },
    {
      "midi": 76,
      "hit": false,
      "t": 88392.58312499996,
      "d": 664.6804791666655,
      "v": 127
    },
    {
      "midi": 81,
      "hit": false,
      "t": 88392.58312499996,
      "d": 664.6804791666655,
      "v": 121
    },
    {
      "midi": 69,
      "hit": false,
      "t": 89121.74753124996,
      "d": 902.774979166672,
      "v": 127
    },
    {
      "midi": 74,
      "hit": false,
      "t": 89121.74753124996,
      "d": 902.774979166672,
      "v": 127
    },
    {
      "midi": 78,
      "hit": false,
      "t": 89121.74753124996,
      "d": 902.774979166672,
      "v": 121
    },
    {
      "midi": 67,
      "hit": false,
      "t": 90089.00643749996,
      "d": 2093.247479166661,
      "v": 127
    },
    {
      "midi": 71,
      "hit": false,
      "t": 90089.00643749996,
      "d": 2093.247479166661,
      "v": 127
    },
    {
      "midi": 76,
      "hit": false,
      "t": 90089.00643749996,
      "d": 2093.247479166661,
      "v": 127
    },
    {
      "midi": 73,
      "hit": false,
      "t": 92246.73784374996,
      "d": 664.6804791666655,
      "v": 114
    },
    {
      "midi": 76,
      "hit": false,
      "t": 92246.73784374996,
      "d": 664.6804791666655,
      "v": 127
    },
    {
      "midi": 81,
      "hit": false,
      "t": 92246.73784374996,
      "d": 664.6804791666655,
      "v": 121
    },
    {
      "midi": 69,
      "hit": false,
      "t": 92975.90224999996,
      "d": 902.774979166672,
      "v": 127
    },
    {
      "midi": 74,
      "hit": false,
      "t": 92975.90224999996,
      "d": 902.774979166672,
      "v": 127
    },
    {
      "midi": 78,
      "hit": false,
      "t": 92975.90224999996,
      "d": 902.774979166672,
      "v": 121
    },
    {
      "midi": 67,
      "hit": false,
      "t": 93943.16115624996,
      "d": 2093.247479166661,
      "v": 127
    },
    {
      "midi": 71,
      "hit": false,
      "t": 93943.16115624996,
      "d": 2093.247479166661,
      "v": 127
    },
    {
      "midi": 76,
      "hit": false,
      "t": 93943.16115624996,
      "d": 2093.247479166661,
      "v": 127
    },
    {
      "midi": 76,
      "hit": false,
      "t": 95475.89450000004,
      "d": 332.34023958334,
      "v": 120
    },
    {
      "midi": 74,
      "hit": false,
      "t": 95833.03625000005,
      "d": 277.7769166666694,
      "v": 120
    },
    {
      "midi": 73,
      "hit": false,
      "t": 96100.89256249995,
      "d": 664.6804791666655,
      "v": 114
    },
    {
      "midi": 76,
      "hit": false,
      "t": 96100.89256249995,
      "d": 664.6804791666655,
      "v": 127
    },
    {
      "midi": 81,
      "hit": false,
      "t": 96100.89256249995,
      "d": 664.6804791666655,
      "v": 121
    },
    {
      "midi": 71,
      "hit": false,
      "t": 96190.17800000006,
      "d": 322.41963541666337,
      "v": 120
    },
    {
      "midi": 69,
      "hit": false,
      "t": 96547.31975000005,
      "d": 302.5784270833392,
      "v": 120
    },
    {
      "midi": 69,
      "hit": false,
      "t": 96830.05696874995,
      "d": 902.774979166672,
      "v": 127
    },
    {
      "midi": 74,
      "hit": false,
      "t": 96830.05696874995,
      "d": 902.774979166672,
      "v": 127
    },
    {
      "midi": 78,
      "hit": false,
      "t": 96830.05696874995,
      "d": 902.774979166672,
      "v": 121
    },
    {
      "midi": 67,
      "hit": false,
      "t": 96904.46150000006,
      "d": 312.4990312500013,
      "v": 120
    },
    {
      "midi": 64,
      "hit": false,
      "t": 97142.55600000007,
      "d": 1383.9242812500015,
      "v": 120
    },
    {
      "midi": 67,
      "hit": false,
      "t": 97797.31587499996,
      "d": 2093.247479166661,
      "v": 127
    },
    {
      "midi": 71,
      "hit": false,
      "t": 97797.31587499996,
      "d": 2093.247479166661,
      "v": 127
    },
    {
      "midi": 76,
      "hit": false,
      "t": 97797.31587499996,
      "d": 2093.247479166661,
      "v": 127
    },
    {
      "midi": 73,
      "hit": false,
      "t": 99955.04728124995,
      "d": 664.6804791666655,
      "v": 114
    },
    {
      "midi": 76,
      "hit": false,
      "t": 99955.04728124995,
      "d": 664.6804791666655,
      "v": 127
    },
    {
      "midi": 81,
      "hit": false,
      "t": 99955.04728124995,
      "d": 664.6804791666655,
      "v": 121
    },
    {
      "midi": 69,
      "hit": false,
      "t": 100684.21168749995,
      "d": 902.774979166672,
      "v": 127
    },
    {
      "midi": 74,
      "hit": false,
      "t": 100684.21168749995,
      "d": 902.774979166672,
      "v": 127
    },
    {
      "midi": 78,
      "hit": false,
      "t": 100684.21168749995,
      "d": 902.774979166672,
      "v": 121
    },
    {
      "midi": 67,
      "hit": false,
      "t": 101651.47059374995,
      "d": 2093.247479166661,
      "v": 127
    },
    {
      "midi": 71,
      "hit": false,
      "t": 101651.47059374995,
      "d": 2093.247479166661,
      "v": 127
    },
    {
      "midi": 76,
      "hit": false,
      "t": 101651.47059374995,
      "d": 2093.247479166661,
      "v": 127
    },
    {
      "midi": 73,
      "hit": false,
      "t": 103809.20199999995,
      "d": 664.6804791666655,
      "v": 114
    },
    {
      "midi": 76,
      "hit": false,
      "t": 103809.20199999995,
      "d": 664.6804791666655,
      "v": 127
    },
    {
      "midi": 81,
      "hit": false,
      "t": 103809.20199999995,
      "d": 664.6804791666655,
      "v": 121
    },
    {
      "midi": 69,
      "hit": false,
      "t": 104538.36640624994,
      "d": 902.774979166672,
      "v": 127
    },
    {
      "midi": 74,
      "hit": false,
      "t": 104538.36640624994,
      "d": 902.774979166672,
      "v": 127
    },
    {
      "midi": 78,
      "hit": false,
      "t": 104538.36640624994,
      "d": 902.774979166672,
      "v": 121
    },
    {
      "midi": 67,
      "hit": false,
      "t": 105505.62531249995,
      "d": 2093.247479166661,
      "v": 127
    },
    {
      "midi": 71,
      "hit": false,
      "t": 105505.62531249995,
      "d": 2093.247479166661,
      "v": 127
    },
    {
      "midi": 76,
      "hit": false,
      "t": 105505.62531249995,
      "d": 2093.247479166661,
      "v": 127
    },
    {
      "midi": 69,
      "hit": false,
      "t": 107663.35671874994,
      "d": 664.6804791666655,
      "v": 127
    },
    {
      "midi": 74,
      "hit": false,
      "t": 107663.35671874994,
      "d": 664.6804791666655,
      "v": 127
    },
    {
      "midi": 78,
      "hit": false,
      "t": 107663.35671874994,
      "d": 664.6804791666655,
      "v": 114
    },
    {
      "midi": 73,
      "hit": false,
      "t": 108392.52112499994,
      "d": 1140.869479166664,
      "v": 117
    },
    {
      "midi": 76,
      "hit": false,
      "t": 108392.52112499994,
      "d": 1140.869479166664,
      "v": 127
    },
    {
      "midi": 81,
      "hit": false,
      "t": 108392.52112499994,
      "d": 1140.869479166664,
      "v": 127
    },
    {
      "midi": 50,
      "hit": false,
      "t": 109597.87453124994,
      "d": 1711.304218749996,
      "v": 127
    },
    {
      "midi": 55,
      "hit": false,
      "t": 109597.87453124994,
      "d": 1711.304218749996,
      "v": 127
    },
    {
      "midi": 59,
      "hit": false,
      "t": 109597.87453124994,
      "d": 1711.304218749996,
      "v": 127
    },
    {
      "midi": 62,
      "hit": false,
      "t": 109597.87453124994,
      "d": 1711.304218749996,
      "v": 127
    },
    {
      "midi": 67,
      "hit": false,
      "t": 109597.87453124994,
      "d": 1711.304218749996,
      "v": 127
    },
    {
      "midi": 71,
      "hit": false,
      "t": 109597.87453124994,
      "d": 1711.304218749996,
      "v": 127
    },
    {
      "midi": 50,
      "hit": false,
      "t": 111502.63053124993,
      "d": 1711.304218749996,
      "v": 127
    },
    {
      "midi": 54,
      "hit": false,
      "t": 111502.63053124993,
      "d": 1711.304218749996,
      "v": 127
    },
    {
      "midi": 57,
      "hit": false,
      "t": 111502.63053124993,
      "d": 1711.304218749996,
      "v": 127
    },
    {
      "midi": 62,
      "hit": false,
      "t": 111502.63053124993,
      "d": 1711.304218749996,
      "v": 127
    },
    {
      "midi": 66,
      "hit": false,
      "t": 111502.63053124993,
      "d": 1711.304218749996,
      "v": 127
    },
    {
      "midi": 69,
      "hit": false,
      "t": 111502.63053124993,
      "d": 1711.304218749996,
      "v": 127
    },
    {
      "midi": 47,
      "hit": false,
      "t": 113407.38653124993,
      "d": 1711.304218749996,
      "v": 127
    },
    {
      "midi": 52,
      "hit": false,
      "t": 113407.38653124993,
      "d": 1711.304218749996,
      "v": 127
    },
    {
      "midi": 55,
      "hit": false,
      "t": 113407.38653124993,
      "d": 1711.304218749996,
      "v": 127
    },
    {
      "midi": 59,
      "hit": false,
      "t": 113407.38653124993,
      "d": 1711.304218749996,
      "v": 127
    },
    {
      "midi": 64,
      "hit": false,
      "t": 113407.38653124993,
      "d": 1711.304218749996,
      "v": 127
    },
    {
      "midi": 67,
      "hit": false,
      "t": 113407.38653124993,
      "d": 1711.304218749996,
      "v": 127
    },
    {
      "midi": 50,
      "hit": false,
      "t": 115312.14253124992,
      "d": 1711.304218749996,
      "v": 127
    },
    {
      "midi": 54,
      "hit": false,
      "t": 115312.14253124992,
      "d": 1711.304218749996,
      "v": 127
    },
    {
      "midi": 57,
      "hit": false,
      "t": 115312.14253124992,
      "d": 1711.304218749996,
      "v": 127
    },
    {
      "midi": 62,
      "hit": false,
      "t": 115312.14253124992,
      "d": 1711.304218749996,
      "v": 127
    },
    {
      "midi": 66,
      "hit": false,
      "t": 115312.14253124992,
      "d": 1711.304218749996,
      "v": 127
    },
    {
      "midi": 69,
      "hit": false,
      "t": 115312.14253124992,
      "d": 1711.304218749996,
      "v": 127
    },
    {
      "midi": 50,
      "hit": false,
      "t": 117216.89853124991,
      "d": 1711.304218749996,
      "v": 127
    },
    {
      "midi": 55,
      "hit": false,
      "t": 117216.89853124991,
      "d": 1711.304218749996,
      "v": 127
    },
    {
      "midi": 59,
      "hit": false,
      "t": 117216.89853124991,
      "d": 1711.304218749996,
      "v": 127
    },
    {
      "midi": 62,
      "hit": false,
      "t": 117216.89853124991,
      "d": 1711.304218749996,
      "v": 127
    },
    {
      "midi": 67,
      "hit": false,
      "t": 117216.89853124991,
      "d": 1711.304218749996,
      "v": 127
    },
    {
      "midi": 71,
      "hit": false,
      "t": 117216.89853124991,
      "d": 1711.304218749996,
      "v": 127
    },
    {
      "midi": 50,
      "hit": false,
      "t": 119121.65453124991,
      "d": 858.1322604166635,
      "v": 127
    },
    {
      "midi": 54,
      "hit": false,
      "t": 119121.65453124991,
      "d": 858.1322604166635,
      "v": 121
    },
    {
      "midi": 57,
      "hit": false,
      "t": 119121.65453124991,
      "d": 858.1322604166635,
      "v": 127
    },
    {
      "midi": 62,
      "hit": false,
      "t": 119121.65453124991,
      "d": 858.1322604166635,
      "v": 127
    },
    {
      "midi": 66,
      "hit": false,
      "t": 119121.65453124991,
      "d": 858.1322604166635,
      "v": 121
    },
    {
      "midi": 69,
      "hit": false,
      "t": 119121.65453124991,
      "d": 858.1322604166635,
      "v": 127
    },
    {
      "midi": 50,
      "hit": false,
      "t": 120074.0325312499,
      "d": 381.943260416665,
      "v": 127
    },
    {
      "midi": 54,
      "hit": false,
      "t": 120074.0325312499,
      "d": 381.943260416665,
      "v": 126
    },
    {
      "midi": 57,
      "hit": false,
      "t": 120074.0325312499,
      "d": 381.943260416665,
      "v": 127
    },
    {
      "midi": 62,
      "hit": false,
      "t": 120074.0325312499,
      "d": 381.943260416665,
      "v": 127
    },
    {
      "midi": 66,
      "hit": false,
      "t": 120074.0325312499,
      "d": 381.943260416665,
      "v": 126
    },
    {
      "midi": 69,
      "hit": false,
      "t": 120074.0325312499,
      "d": 381.943260416665,
      "v": 127
    },
    {
      "midi": 48,
      "hit": false,
      "t": 120550.2215312499,
      "d": 381.943260416665,
      "v": 127
    },
    {
      "midi": 51,
      "hit": false,
      "t": 120550.2215312499,
      "d": 381.943260416665,
      "v": 127
    },
    {
      "midi": 54,
      "hit": false,
      "t": 120550.2215312499,
      "d": 381.943260416665,
      "v": 127
    },
    {
      "midi": 60,
      "hit": false,
      "t": 120550.2215312499,
      "d": 381.943260416665,
      "v": 127
    },
    {
      "midi": 63,
      "hit": false,
      "t": 120550.2215312499,
      "d": 381.943260416665,
      "v": 127
    },
    {
      "midi": 66,
      "hit": false,
      "t": 120550.2215312499,
      "d": 381.943260416665,
      "v": 127
    },
    {
      "midi": 67,
      "hit": false,
      "t": 121026.4105312499,
      "d": 1855.152979166669,
      "v": 127
    },
    {
      "midi": 71,
      "hit": false,
      "t": 121026.4105312499,
      "d": 1855.152979166669,
      "v": 127
    },
    {
      "midi": 76,
      "hit": false,
      "t": 121026.4105312499,
      "d": 1855.152979166669,
      "v": 127
    },
    {
      "midi": 69,
      "hit": false,
      "t": 122946.0474374999,
      "d": 664.6804791666655,
      "v": 127
    },
    {
      "midi": 74,
      "hit": false,
      "t": 122946.0474374999,
      "d": 664.6804791666655,
      "v": 127
    },
    {
      "midi": 78,
      "hit": false,
      "t": 122946.0474374999,
      "d": 664.6804791666655,
      "v": 117
    },
    {
      "midi": 73,
      "hit": false,
      "t": 123675.2118437499,
      "d": 902.774979166672,
      "v": 105
    },
    {
      "midi": 76,
      "hit": false,
      "t": 123675.2118437499,
      "d": 902.774979166672,
      "v": 127
    },
    {
      "midi": 81,
      "hit": false,
      "t": 123675.2118437499,
      "d": 902.774979166672,
      "v": 112
    },
    {
      "midi": 67,
      "hit": false,
      "t": 124642.4707499999,
      "d": 2093.247479166661,
      "v": 127
    },
    {
      "midi": 71,
      "hit": false,
      "t": 124642.4707499999,
      "d": 2093.247479166661,
      "v": 127
    },
    {
      "midi": 76,
      "hit": false,
      "t": 124642.4707499999,
      "d": 2093.247479166661,
      "v": 127
    },
    {
      "midi": 76,
      "hit": false,
      "t": 124999.61250000008,
      "d": 94.24573958333349,
      "v": 120
    },
    {
      "midi": 79,
      "hit": false,
      "t": 125118.65975000008,
      "d": 94.24573958333349,
      "v": 120
    },
    {
      "midi": 76,
      "hit": false,
      "t": 125237.70700000008,
      "d": 94.24573958333349,
      "v": 120
    },
    {
      "midi": 74,
      "hit": false,
      "t": 125356.75425000009,
      "d": 94.24573958333349,
      "v": 120
    },
    {
      "midi": 71,
      "hit": false,
      "t": 125475.80150000009,
      "d": 94.24573958333349,
      "v": 120
    },
    {
      "midi": 69,
      "hit": false,
      "t": 125594.84875000009,
      "d": 94.24573958333349,
      "v": 120
    },
    {
      "midi": 69,
      "hit": false,
      "t": 126800.2021562499,
      "d": 664.6804791666655,
      "v": 127
    },
    {
      "midi": 74,
      "hit": false,
      "t": 126800.2021562499,
      "d": 664.6804791666655,
      "v": 127
    },
    {
      "midi": 78,
      "hit": false,
      "t": 126800.2021562499,
      "d": 664.6804791666655,
      "v": 117
    },
    {
      "midi": 73,
      "hit": false,
      "t": 127529.3665624999,
      "d": 902.774979166672,
      "v": 105
    },
    {
      "midi": 76,
      "hit": false,
      "t": 127529.3665624999,
      "d": 902.774979166672,
      "v": 127
    },
    {
      "midi": 81,
      "hit": false,
      "t": 127529.3665624999,
      "d": 902.774979166672,
      "v": 112
    },
    {
      "midi": 67,
      "hit": false,
      "t": 128496.6254687499,
      "d": 2093.247479166661,
      "v": 127
    },
    {
      "midi": 71,
      "hit": false,
      "t": 128496.6254687499,
      "d": 2093.247479166661,
      "v": 127
    },
    {
      "midi": 76,
      "hit": false,
      "t": 128496.6254687499,
      "d": 2093.247479166661,
      "v": 127
    },
    {
      "midi": 69,
      "hit": false,
      "t": 130654.3568749999,
      "d": 664.6804791666655,
      "v": 127
    },
    {
      "midi": 74,
      "hit": false,
      "t": 130654.3568749999,
      "d": 664.6804791666655,
      "v": 127
    },
    {
      "midi": 78,
      "hit": false,
      "t": 130654.3568749999,
      "d": 664.6804791666655,
      "v": 117
    },
    {
      "midi": 76,
      "hit": false,
      "t": 130713.88050000009,
      "d": 94.24573958333349,
      "v": 120
    },
    {
      "midi": 79,
      "hit": false,
      "t": 130832.92775000009,
      "d": 94.24573958333349,
      "v": 120
    },
    {
      "midi": 76,
      "hit": false,
      "t": 130951.9750000001,
      "d": 94.24573958333349,
      "v": 120
    },
    {
      "midi": 74,
      "hit": false,
      "t": 131071.0222500001,
      "d": 94.24573958333349,
      "v": 120
    },
    {
      "midi": 71,
      "hit": false,
      "t": 131190.0695000001,
      "d": 94.24573958333349,
      "v": 120
    },
    {
      "midi": 69,
      "hit": false,
      "t": 131309.1167500001,
      "d": 94.24573958333349,
      "v": 120
    },
    {
      "midi": 73,
      "hit": false,
      "t": 131383.5212812499,
      "d": 902.7749791666574,
      "v": 105
    },
    {
      "midi": 76,
      "hit": false,
      "t": 131383.5212812499,
      "d": 902.7749791666574,
      "v": 127
    },
    {
      "midi": 81,
      "hit": false,
      "t": 131383.5212812499,
      "d": 902.7749791666574,
      "v": 112
    },
    {
      "midi": 67,
      "hit": false,
      "t": 132350.7801874999,
      "d": 2093.247479166661,
      "v": 127
    },
    {
      "midi": 71,
      "hit": false,
      "t": 132350.7801874999,
      "d": 2093.247479166661,
      "v": 127
    },
    {
      "midi": 76,
      "hit": false,
      "t": 132350.7801874999,
      "d": 2093.247479166661,
      "v": 127
    },
    {
      "midi": 69,
      "hit": false,
      "t": 132618.6365000001,
      "d": 94.24573958333349,
      "v": 120
    },
    {
      "midi": 71,
      "hit": false,
      "t": 132737.6837500001,
      "d": 94.24573958333349,
      "v": 120
    },
    {
      "midi": 74,
      "hit": false,
      "t": 132856.73100000012,
      "d": 94.24573958333349,
      "v": 120
    },
    {
      "midi": 71,
      "hit": false,
      "t": 132975.77825000012,
      "d": 94.24573958333349,
      "v": 120
    },
    {
      "midi": 74,
      "hit": false,
      "t": 133094.82550000012,
      "d": 94.24573958333349,
      "v": 120
    },
    {
      "midi": 76,
      "hit": false,
      "t": 133213.87275000013,
      "d": 94.24573958333349,
      "v": 120
    },
    {
      "midi": 45,
      "hit": false,
      "t": 134811.09002083325,
      "d": 124.00755208331975,
      "v": 127
    },
    {
      "midi": 57,
      "hit": false,
      "t": 134811.09002083325,
      "d": 124.00755208331975,
      "v": 127
    },
    {
      "midi": 45,
      "hit": false,
      "t": 135128.54935416658,
      "d": 124.00755208331975,
      "v": 127
    },
    {
      "midi": 57,
      "hit": false,
      "t": 135128.54935416658,
      "d": 124.00755208331975,
      "v": 127
    },
    {
      "midi": 45,
      "hit": false,
      "t": 135446.0086874999,
      "d": 124.00755208331975,
      "v": 127
    },
    {
      "midi": 57,
      "hit": false,
      "t": 135446.0086874999,
      "d": 124.00755208331975,
      "v": 127
    },
    {
      "midi": 55,
      "hit": false,
      "t": 136398.3866874999,
      "d": 3377.965718749998,
      "v": 127
    },
    {
      "midi": 59,
      "hit": false,
      "t": 136398.3866874999,
      "d": 3377.965718749998,
      "v": 127
    },
    {
      "midi": 62,
      "hit": false,
      "t": 136398.3866874999,
      "d": 3377.965718749998,
      "v": 123
    },
    {
      "midi": 64,
      "hit": false,
      "t": 136398.3866874999,
      "d": 3377.965718749998,
      "v": 127
    },
    {
      "midi": 83,
      "hit": false,
      "t": 139969.80418749992,
      "d": 3616.0602187500044,
      "v": 127
    },
    {
      "midi": 81,
      "hit": false,
      "t": 140029.32781249992,
      "d": 3616.0602187500044,
      "v": 127
    },
    {
      "midi": 78,
      "hit": false,
      "t": 140088.85143749992,
      "d": 3616.0602187500044,
      "v": 105
    },
    {
      "midi": 74,
      "hit": false,
      "t": 140148.37506249992,
      "d": 3616.0602187500044,
      "v": 127
    },
    {
      "midi": 71,
      "hit": false,
      "t": 140207.89868749992,
      "d": 3616.0602187500044,
      "v": 123
    },
    {
      "midi": 71,
      "hit": false,
      "t": 144017.41068749994,
      "d": 282.73721875000047,
      "v": 127
    },
    {
      "midi": 76,
      "hit": false,
      "t": 144017.41068749994,
      "d": 282.73721875000047,
      "v": 127
    },
    {
      "midi": 69,
      "hit": false,
      "t": 144334.87002083327,
      "d": 282.73721875000047,
      "v": 127
    },
    {
      "midi": 74,
      "hit": false,
      "t": 144334.87002083327,
      "d": 282.73721875000047,
      "v": 127
    },
    {
      "midi": 71,
      "hit": false,
      "t": 144652.3293541666,
      "d": 282.73721875000047,
      "v": 127
    },
    {
      "midi": 76,
      "hit": false,
      "t": 144652.3293541666,
      "d": 282.73721875000047,
      "v": 127
    },
    {
      "midi": 67,
      "hit": false,
      "t": 144969.78868749994,
      "d": 917.6558854166651,
      "v": 127
    },
    {
      "midi": 71,
      "hit": false,
      "t": 144969.78868749994,
      "d": 917.6558854166651,
      "v": 127
    },
    {
      "midi": 71,
      "hit": false,
      "t": 145922.16668749994,
      "d": 282.73721875000047,
      "v": 127
    },
    {
      "midi": 76,
      "hit": false,
      "t": 145922.16668749994,
      "d": 282.73721875000047,
      "v": 127
    },
    {
      "midi": 69,
      "hit": false,
      "t": 146239.62602083327,
      "d": 282.73721875000047,
      "v": 127
    },
    {
      "midi": 74,
      "hit": false,
      "t": 146239.62602083327,
      "d": 282.73721875000047,
      "v": 127
    },
    {
      "midi": 71,
      "hit": false,
      "t": 146557.0853541666,
      "d": 282.73721875000047,
      "v": 127
    },
    {
      "midi": 76,
      "hit": false,
      "t": 146557.0853541666,
      "d": 282.73721875000047,
      "v": 127
    },
    {
      "midi": 73,
      "hit": false,
      "t": 146874.54468749993,
      "d": 917.6558854166651,
      "v": 127
    },
    {
      "midi": 78,
      "hit": false,
      "t": 146874.54468749993,
      "d": 917.6558854166651,
      "v": 127
    },
    {
      "midi": 71,
      "hit": false,
      "t": 147826.92268749993,
      "d": 282.73721875000047,
      "v": 127
    },
    {
      "midi": 76,
      "hit": false,
      "t": 147826.92268749993,
      "d": 282.73721875000047,
      "v": 127
    },
    {
      "midi": 69,
      "hit": false,
      "t": 148144.38202083326,
      "d": 282.73721875000047,
      "v": 127
    },
    {
      "midi": 74,
      "hit": false,
      "t": 148144.38202083326,
      "d": 282.73721875000047,
      "v": 127
    },
    {
      "midi": 71,
      "hit": false,
      "t": 148461.8413541666,
      "d": 282.73721875000047,
      "v": 127
    },
    {
      "midi": 76,
      "hit": false,
      "t": 148461.8413541666,
      "d": 282.73721875000047,
      "v": 127
    },
    {
      "midi": 66,
      "hit": false,
      "t": 148779.30068749993,
      "d": 282.73721875000047,
      "v": 121
    },
    {
      "midi": 71,
      "hit": false,
      "t": 148779.30068749993,
      "d": 282.73721875000047,
      "v": 127
    },
    {
      "midi": 69,
      "hit": false,
      "t": 149096.76002083326,
      "d": 282.73721875000047,
      "v": 127
    },
    {
      "midi": 74,
      "hit": false,
      "t": 149096.76002083326,
      "d": 282.73721875000047,
      "v": 127
    },
    {
      "midi": 66,
      "hit": false,
      "t": 149414.2193541666,
      "d": 282.73721875000047,
      "v": 114
    },
    {
      "midi": 71,
      "hit": false,
      "t": 149414.2193541666,
      "d": 282.73721875000047,
      "v": 127
    },
    {
      "midi": 64,
      "hit": false,
      "t": 149731.67868749992,
      "d": 282.73721875000047,
      "v": 127
    },
    {
      "midi": 69,
      "hit": false,
      "t": 149731.67868749992,
      "d": 282.73721875000047,
      "v": 127
    },
    {
      "midi": 62,
      "hit": false,
      "t": 150049.13802083326,
      "d": 282.73721875000047,
      "v": 127
    },
    {
      "midi": 67,
      "hit": false,
      "t": 150049.13802083326,
      "d": 282.73721875000047,
      "v": 127
    },
    {
      "midi": 61,
      "hit": false,
      "t": 150366.5973541666,
      "d": 282.73721875000047,
      "v": 121
    },
    {
      "midi": 66,
      "hit": false,
      "t": 150366.5973541666,
      "d": 282.73721875000047,
      "v": 121
    },
    {
      "midi": 59,
      "hit": false,
      "t": 150684.05668749992,
      "d": 917.6558854166651,
      "v": 127
    },
    {
      "midi": 64,
      "hit": false,
      "t": 150684.05668749992,
      "d": 917.6558854166651,
      "v": 127
    },
    {
      "midi": 71,
      "hit": false,
      "t": 151636.43468749992,
      "d": 282.73721875000047,
      "v": 127
    },
    {
      "midi": 76,
      "hit": false,
      "t": 151636.43468749992,
      "d": 282.73721875000047,
      "v": 127
    },
    {
      "midi": 69,
      "hit": false,
      "t": 151953.89402083325,
      "d": 282.73721875000047,
      "v": 127
    },
    {
      "midi": 74,
      "hit": false,
      "t": 151953.89402083325,
      "d": 282.73721875000047,
      "v": 127
    },
    {
      "midi": 71,
      "hit": false,
      "t": 152271.35335416658,
      "d": 282.73721875000047,
      "v": 127
    },
    {
      "midi": 76,
      "hit": false,
      "t": 152271.35335416658,
      "d": 282.73721875000047,
      "v": 127
    },
    {
      "midi": 67,
      "hit": false,
      "t": 152588.8126874999,
      "d": 917.6558854166651,
      "v": 127
    },
    {
      "midi": 71,
      "hit": false,
      "t": 152588.8126874999,
      "d": 917.6558854166651,
      "v": 127
    },
    {
      "midi": 71,
      "hit": false,
      "t": 153541.1906874999,
      "d": 282.73721875000047,
      "v": 127
    },
    {
      "midi": 76,
      "hit": false,
      "t": 153541.1906874999,
      "d": 282.73721875000047,
      "v": 127
    },
    {
      "midi": 69,
      "hit": false,
      "t": 153858.65002083324,
      "d": 282.73721875000047,
      "v": 127
    },
    {
      "midi": 74,
      "hit": false,
      "t": 153858.65002083324,
      "d": 282.73721875000047,
      "v": 127
    },
    {
      "midi": 71,
      "hit": false,
      "t": 154176.10935416658,
      "d": 282.73721875000047,
      "v": 127
    },
    {
      "midi": 76,
      "hit": false,
      "t": 154176.10935416658,
      "d": 282.73721875000047,
      "v": 127
    },
    {
      "midi": 73,
      "hit": false,
      "t": 154493.5686874999,
      "d": 917.6558854166651,
      "v": 127
    },
    {
      "midi": 78,
      "hit": false,
      "t": 154493.5686874999,
      "d": 917.6558854166651,
      "v": 127
    },
    {
      "midi": 71,
      "hit": false,
      "t": 155445.9466874999,
      "d": 282.73721875000047,
      "v": 127
    },
    {
      "midi": 76,
      "hit": false,
      "t": 155445.9466874999,
      "d": 282.73721875000047,
      "v": 127
    },
    {
      "midi": 69,
      "hit": false,
      "t": 155763.40602083324,
      "d": 282.73721875000047,
      "v": 127
    },
    {
      "midi": 74,
      "hit": false,
      "t": 155763.40602083324,
      "d": 282.73721875000047,
      "v": 127
    },
    {
      "midi": 71,
      "hit": false,
      "t": 156080.86535416657,
      "d": 282.73721875000047,
      "v": 127
    },
    {
      "midi": 76,
      "hit": false,
      "t": 156080.86535416657,
      "d": 282.73721875000047,
      "v": 127
    },
    {
      "midi": 74,
      "hit": false,
      "t": 156398.3246874999,
      "d": 282.73721875000047,
      "v": 127
    },
    {
      "midi": 79,
      "hit": false,
      "t": 156398.3246874999,
      "d": 282.73721875000047,
      "v": 127
    },
    {
      "midi": 73,
      "hit": false,
      "t": 156715.78402083323,
      "d": 282.73721875000047,
      "v": 127
    },
    {
      "midi": 78,
      "hit": false,
      "t": 156715.78402083323,
      "d": 282.73721875000047,
      "v": 121
    },
    {
      "midi": 74,
      "hit": false,
      "t": 157033.24335416657,
      "d": 282.73721875000047,
      "v": 127
    },
    {
      "midi": 79,
      "hit": false,
      "t": 157033.24335416657,
      "d": 282.73721875000047,
      "v": 127
    },
    {
      "midi": 76,
      "hit": false,
      "t": 157350.7026874999,
      "d": 282.73721875000047,
      "v": 127
    },
    {
      "midi": 81,
      "hit": false,
      "t": 157350.7026874999,
      "d": 282.73721875000047,
      "v": 127
    },
    {
      "midi": 74,
      "hit": false,
      "t": 157668.16202083323,
      "d": 282.73721875000047,
      "v": 127
    },
    {
      "midi": 79,
      "hit": false,
      "t": 157668.16202083323,
      "d": 282.73721875000047,
      "v": 127
    },
    {
      "midi": 76,
      "hit": false,
      "t": 157985.62135416656,
      "d": 282.73721875000047,
      "v": 127
    },
    {
      "midi": 81,
      "hit": false,
      "t": 157985.62135416656,
      "d": 282.73721875000047,
      "v": 127
    },
    {
      "midi": 78,
      "hit": false,
      "t": 158303.0806874999,
      "d": 917.6558854166651,
      "v": 127
    },
    {
      "midi": 83,
      "hit": false,
      "t": 158303.0806874999,
      "d": 917.6558854166651,
      "v": 127
    },
    {
      "midi": 62,
      "hit": false,
      "t": 159255.4586874999,
      "d": 282.73721875000047,
      "v": 127
    },
    {
      "midi": 71,
      "hit": false,
      "t": 159255.4586874999,
      "d": 282.73721875000047,
      "v": 127
    },
    {
      "midi": 50,
      "hit": false,
      "t": 159255.4586874999,
      "d": 1711.3042187500105,
      "v": 127
    },
    {
      "midi": 55,
      "hit": false,
      "t": 159255.4586874999,
      "d": 1711.3042187500105,
      "v": 127
    },
    {
      "midi": 59,
      "hit": false,
      "t": 159255.4586874999,
      "d": 1711.3042187500105,
      "v": 127
    },
    {
      "midi": 62,
      "hit": false,
      "t": 159572.91802083323,
      "d": 282.73721875000047,
      "v": 127
    },
    {
      "midi": 67,
      "hit": false,
      "t": 159572.91802083323,
      "d": 282.73721875000047,
      "v": 127
    },
    {
      "midi": 62,
      "hit": false,
      "t": 159890.37735416656,
      "d": 282.73721875000047,
      "v": 127
    },
    {
      "midi": 67,
      "hit": false,
      "t": 159890.37735416656,
      "d": 282.73721875000047,
      "v": 127
    },
    {
      "midi": 62,
      "hit": false,
      "t": 160207.8366874999,
      "d": 917.6558854166942,
      "v": 127
    },
    {
      "midi": 67,
      "hit": false,
      "t": 160207.8366874999,
      "d": 917.6558854166942,
      "v": 127
    },
    {
      "midi": 50,
      "hit": false,
      "t": 161160.21468749992,
      "d": 1711.3042187500105,
      "v": 114
    },
    {
      "midi": 54,
      "hit": false,
      "t": 161160.21468749992,
      "d": 1711.3042187500105,
      "v": 105
    },
    {
      "midi": 57,
      "hit": false,
      "t": 161160.21468749992,
      "d": 1711.3042187500105,
      "v": 127
    },
    {
      "midi": 62,
      "hit": false,
      "t": 161160.21468749992,
      "d": 1711.3042187500105,
      "v": 127
    },
    {
      "midi": 66,
      "hit": false,
      "t": 161160.21468749992,
      "d": 1711.3042187500105,
      "v": 121
    },
    {
      "midi": 69,
      "hit": false,
      "t": 161160.21468749992,
      "d": 1711.3042187500105,
      "v": 127
    },
    {
      "midi": 71,
      "hit": false,
      "t": 163064.97068749994,
      "d": 282.73721875000047,
      "v": 127
    },
    {
      "midi": 47,
      "hit": false,
      "t": 163064.97068749994,
      "d": 1711.3042187499814,
      "v": 117
    },
    {
      "midi": 52,
      "hit": false,
      "t": 163064.97068749994,
      "d": 1711.3042187499814,
      "v": 121
    },
    {
      "midi": 55,
      "hit": false,
      "t": 163064.97068749994,
      "d": 1711.3042187499814,
      "v": 127
    },
    {
      "midi": 59,
      "hit": false,
      "t": 163064.97068749994,
      "d": 1711.3042187499814,
      "v": 127
    },
    {
      "midi": 64,
      "hit": false,
      "t": 163064.97068749994,
      "d": 1711.3042187499814,
      "v": 127
    },
    {
      "midi": 67,
      "hit": false,
      "t": 163064.97068749994,
      "d": 1711.3042187499814,
      "v": 127
    },
    {
      "midi": 72,
      "hit": false,
      "t": 163382.43002083327,
      "d": 282.73721875000047,
      "v": 127
    },
    {
      "midi": 74,
      "hit": false,
      "t": 163699.8893541666,
      "d": 282.73721875000047,
      "v": 127
    },
    {
      "midi": 76,
      "hit": false,
      "t": 164017.34868749994,
      "d": 282.73721875000047,
      "v": 127
    },
    {
      "midi": 74,
      "hit": false,
      "t": 164334.80802083327,
      "d": 282.73721875000047,
      "v": 127
    },
    {
      "midi": 81,
      "hit": false,
      "t": 164652.2673541666,
      "d": 997.0207187499909,
      "v": 127
    },
    {
      "midi": 50,
      "hit": false,
      "t": 164969.72668749993,
      "d": 1711.3042187499814,
      "v": 58
    },
    {
      "midi": 54,
      "hit": false,
      "t": 164969.72668749993,
      "d": 1711.3042187499814,
      "v": 105
    },
    {
      "midi": 57,
      "hit": false,
      "t": 164969.72668749993,
      "d": 1711.3042187499814,
      "v": 127
    },
    {
      "midi": 62,
      "hit": false,
      "t": 164969.72668749993,
      "d": 1711.3042187499814,
      "v": 127
    },
    {
      "midi": 66,
      "hit": false,
      "t": 164969.72668749993,
      "d": 1711.3042187499814,
      "v": 121
    },
    {
      "midi": 69,
      "hit": false,
      "t": 164969.72668749993,
      "d": 1711.3042187499814,
      "v": 127
    },
    {
      "midi": 50,
      "hit": false,
      "t": 166874.48268749993,
      "d": 1711.3042187500105,
      "v": 114
    },
    {
      "midi": 55,
      "hit": false,
      "t": 166874.48268749993,
      "d": 1711.3042187500105,
      "v": 127
    },
    {
      "midi": 59,
      "hit": false,
      "t": 166874.48268749993,
      "d": 1711.3042187500105,
      "v": 127
    },
    {
      "midi": 62,
      "hit": false,
      "t": 166874.48268749993,
      "d": 1711.3042187500105,
      "v": 127
    },
    {
      "midi": 67,
      "hit": false,
      "t": 166874.48268749993,
      "d": 1711.3042187500105,
      "v": 127
    },
    {
      "midi": 71,
      "hit": false,
      "t": 166874.48268749993,
      "d": 1711.3042187500105,
      "v": 127
    },
    {
      "midi": 50,
      "hit": false,
      "t": 168779.23868749995,
      "d": 1334.3212604166765,
      "v": 127
    },
    {
      "midi": 54,
      "hit": false,
      "t": 168779.23868749995,
      "d": 1334.3212604166765,
      "v": 118
    },
    {
      "midi": 57,
      "hit": false,
      "t": 168779.23868749995,
      "d": 1334.3212604166765,
      "v": 127
    },
    {
      "midi": 62,
      "hit": false,
      "t": 168779.23868749995,
      "d": 1334.3212604166765,
      "v": 127
    },
    {
      "midi": 66,
      "hit": false,
      "t": 168779.23868749995,
      "d": 1334.3212604166765,
      "v": 127
    },
    {
      "midi": 69,
      "hit": false,
      "t": 168779.23868749995,
      "d": 1334.3212604166765,
      "v": 127
    },
    {
      "midi": 48,
      "hit": false,
      "t": 170207.80568749996,
      "d": 381.94326041667955,
      "v": 127
    },
    {
      "midi": 51,
      "hit": false,
      "t": 170207.80568749996,
      "d": 381.94326041667955,
      "v": 127
    },
    {
      "midi": 54,
      "hit": false,
      "t": 170207.80568749996,
      "d": 381.94326041667955,
      "v": 123
    },
    {
      "midi": 60,
      "hit": false,
      "t": 170207.80568749996,
      "d": 381.94326041667955,
      "v": 127
    },
    {
      "midi": 63,
      "hit": false,
      "t": 170207.80568749996,
      "d": 381.94326041667955,
      "v": 117
    },
    {
      "midi": 66,
      "hit": false,
      "t": 170207.80568749996,
      "d": 381.94326041667955,
      "v": 114
    },
    {
      "midi": 76,
      "hit": false,
      "t": 170683.99468749997,
      "d": 282.73721875000047,
      "v": 127
    },
    {
      "midi": 55,
      "hit": false,
      "t": 170683.99468749997,
      "d": 1810.5102604166605,
      "v": 127
    },
    {
      "midi": 59,
      "hit": false,
      "t": 170683.99468749997,
      "d": 1810.5102604166605,
      "v": 127
    },
    {
      "midi": 62,
      "hit": false,
      "t": 170683.99468749997,
      "d": 1810.5102604166605,
      "v": 127
    },
    {
      "midi": 67,
      "hit": false,
      "t": 170683.99468749997,
      "d": 1810.5102604166605,
      "v": 127
    },
    {
      "midi": 71,
      "hit": false,
      "t": 170683.99468749997,
      "d": 1810.5102604166605,
      "v": 127
    },
    {
      "midi": 74,
      "hit": false,
      "t": 170683.99468749997,
      "d": 1810.5102604166605,
      "v": 127
    },
    {
      "midi": 78,
      "hit": false,
      "t": 171001.4540208333,
      "d": 282.73721875000047,
      "v": 127
    },
    {
      "midi": 79,
      "hit": false,
      "t": 171318.91335416664,
      "d": 282.73721875000047,
      "v": 127
    },
    {
      "midi": 81,
      "hit": false,
      "t": 171636.37268749997,
      "d": 282.73721875000047,
      "v": 127
    },
    {
      "midi": 76,
      "hit": false,
      "t": 171953.8320208333,
      "d": 282.73721875000047,
      "v": 127
    },
    {
      "midi": 76,
      "hit": false,
      "t": 172271.29135416663,
      "d": 282.73721875000047,
      "v": 127
    },
    {
      "midi": 78,
      "hit": false,
      "t": 172588.75068749997,
      "d": 282.73721875000047,
      "v": 127
    },
    {
      "midi": 57,
      "hit": false,
      "t": 172588.75068749997,
      "d": 1810.5102604166605,
      "v": 127
    },
    {
      "midi": 62,
      "hit": false,
      "t": 172588.75068749997,
      "d": 1810.5102604166605,
      "v": 127
    },
    {
      "midi": 66,
      "hit": false,
      "t": 172588.75068749997,
      "d": 1810.5102604166605,
      "v": 112
    },
    {
      "midi": 69,
      "hit": false,
      "t": 172588.75068749997,
      "d": 1810.5102604166605,
      "v": 127
    },
    {
      "midi": 74,
      "hit": false,
      "t": 172588.75068749997,
      "d": 1810.5102604166605,
      "v": 127
    },
    {
      "midi": 78,
      "hit": false,
      "t": 172906.2100208333,
      "d": 282.73721875000047,
      "v": 127
    },
    {
      "midi": 78,
      "hit": false,
      "t": 173223.66935416663,
      "d": 282.73721875000047,
      "v": 127
    },
    {
      "midi": 78,
      "hit": false,
      "t": 173541.12868749996,
      "d": 917.6558854166651,
      "v": 127
    },
    {
      "midi": 67,
      "hit": false,
      "t": 174493.50668749996,
      "d": 1855.1529791666544,
      "v": 127
    },
    {
      "midi": 71,
      "hit": false,
      "t": 174493.50668749996,
      "d": 1855.1529791666544,
      "v": 127
    },
    {
      "midi": 76,
      "hit": false,
      "t": 174493.50668749996,
      "d": 1855.1529791666544,
      "v": 127
    },
    {
      "midi": 69,
      "hit": false,
      "t": 176413.14359374996,
      "d": 664.68047916668,
      "v": 127
    },
    {
      "midi": 74,
      "hit": false,
      "t": 176413.14359374996,
      "d": 664.68047916668,
      "v": 127
    },
    {
      "midi": 78,
      "hit": false,
      "t": 176413.14359374996,
      "d": 664.68047916668,
      "v": 117
    },
    {
      "midi": 73,
      "hit": false,
      "t": 177142.308,
      "d": 902.7749791666574,
      "v": 105
    },
    {
      "midi": 76,
      "hit": false,
      "t": 177142.308,
      "d": 902.7749791666574,
      "v": 127
    },
    {
      "midi": 81,
      "hit": false,
      "t": 177142.308,
      "d": 902.7749791666574,
      "v": 112
    },
    {
      "midi": 67,
      "hit": false,
      "t": 178109.56690625,
      "d": 2093.247479166661,
      "v": 127
    },
    {
      "midi": 71,
      "hit": false,
      "t": 178109.56690625,
      "d": 2093.247479166661,
      "v": 127
    },
    {
      "midi": 76,
      "hit": false,
      "t": 178109.56690625,
      "d": 2093.247479166661,
      "v": 127
    },
    {
      "midi": 76,
      "hit": false,
      "t": 178332.7805000001,
      "d": 94.24573958333349,
      "v": 120
    },
    {
      "midi": 79,
      "hit": false,
      "t": 178451.8277500001,
      "d": 94.24573958333349,
      "v": 120
    },
    {
      "midi": 76,
      "hit": false,
      "t": 178570.87500000012,
      "d": 94.24573958333349,
      "v": 120
    },
    {
      "midi": 74,
      "hit": false,
      "t": 178689.92225000012,
      "d": 94.24573958333349,
      "v": 120
    },
    {
      "midi": 71,
      "hit": false,
      "t": 178808.96950000012,
      "d": 94.24573958333349,
      "v": 120
    },
    {
      "midi": 69,
      "hit": false,
      "t": 178928.01675000013,
      "d": 94.24573958333349,
      "v": 120
    },
    {
      "midi": 69,
      "hit": false,
      "t": 180267.2983125,
      "d": 664.68047916668,
      "v": 127
    },
    {
      "midi": 74,
      "hit": false,
      "t": 180267.2983125,
      "d": 664.68047916668,
      "v": 127
    },
    {
      "midi": 78,
      "hit": false,
      "t": 180267.2983125,
      "d": 664.68047916668,
      "v": 117
    },
    {
      "midi": 73,
      "hit": false,
      "t": 180996.46271875003,
      "d": 902.7749791666574,
      "v": 105
    },
    {
      "midi": 76,
      "hit": false,
      "t": 180996.46271875003,
      "d": 902.7749791666574,
      "v": 127
    },
    {
      "midi": 81,
      "hit": false,
      "t": 180996.46271875003,
      "d": 902.7749791666574,
      "v": 112
    },
    {
      "midi": 67,
      "hit": false,
      "t": 181963.72162500003,
      "d": 2093.247479166661,
      "v": 127
    },
    {
      "midi": 71,
      "hit": false,
      "t": 181963.72162500003,
      "d": 2093.247479166661,
      "v": 127
    },
    {
      "midi": 76,
      "hit": false,
      "t": 181963.72162500003,
      "d": 2093.247479166661,
      "v": 127
    },
    {
      "midi": 76,
      "hit": false,
      "t": 184047.04850000012,
      "d": 94.24573958333349,
      "v": 120
    },
    {
      "midi": 69,
      "hit": false,
      "t": 184121.45303125004,
      "d": 664.68047916668,
      "v": 127
    },
    {
      "midi": 74,
      "hit": false,
      "t": 184121.45303125004,
      "d": 664.68047916668,
      "v": 127
    },
    {
      "midi": 78,
      "hit": false,
      "t": 184121.45303125004,
      "d": 664.68047916668,
      "v": 117
    },
    {
      "midi": 79,
      "hit": false,
      "t": 184166.09575000012,
      "d": 94.24573958333349,
      "v": 120
    },
    {
      "midi": 76,
      "hit": false,
      "t": 184285.14300000013,
      "d": 94.24573958333349,
      "v": 120
    },
    {
      "midi": 74,
      "hit": false,
      "t": 184404.19025000013,
      "d": 94.24573958333349,
      "v": 120
    },
    {
      "midi": 71,
      "hit": false,
      "t": 184523.23750000013,
      "d": 94.24573958333349,
      "v": 120
    },
    {
      "midi": 69,
      "hit": false,
      "t": 184642.28475000014,
      "d": 94.24573958333349,
      "v": 120
    },
    {
      "midi": 73,
      "hit": false,
      "t": 184850.61743750007,
      "d": 902.7749791666574,
      "v": 105
    },
    {
      "midi": 76,
      "hit": false,
      "t": 184850.61743750007,
      "d": 902.7749791666574,
      "v": 127
    },
    {
      "midi": 81,
      "hit": false,
      "t": 184850.61743750007,
      "d": 902.7749791666574,
      "v": 112
    },
    {
      "midi": 67,
      "hit": false,
      "t": 185817.87634375007,
      "d": 2093.247479166661,
      "v": 127
    },
    {
      "midi": 71,
      "hit": false,
      "t": 185817.87634375007,
      "d": 2093.247479166661,
      "v": 127
    },
    {
      "midi": 76,
      "hit": false,
      "t": 185817.87634375007,
      "d": 2093.247479166661,
      "v": 127
    },
    {
      "midi": 69,
      "hit": false,
      "t": 185951.80450000014,
      "d": 94.24573958333349,
      "v": 120
    },
    {
      "midi": 71,
      "hit": false,
      "t": 186070.85175000015,
      "d": 94.24573958333349,
      "v": 120
    },
    {
      "midi": 74,
      "hit": false,
      "t": 186189.89900000015,
      "d": 94.24573958333349,
      "v": 120
    },
    {
      "midi": 71,
      "hit": false,
      "t": 186308.94625000015,
      "d": 94.24573958333349,
      "v": 120
    },
    {
      "midi": 74,
      "hit": false,
      "t": 186427.99350000016,
      "d": 94.24573958333349,
      "v": 120
    },
    {
      "midi": 76,
      "hit": false,
      "t": 186547.04075000016,
      "d": 94.24573958333349,
      "v": 120
    },
    {
      "midi": 45,
      "hit": false,
      "t": 188278.1861770834,
      "d": 124.00755208331975,
      "v": 127
    },
    {
      "midi": 57,
      "hit": false,
      "t": 188278.1861770834,
      "d": 124.00755208331975,
      "v": 127
    },
    {
      "midi": 45,
      "hit": false,
      "t": 188595.64551041674,
      "d": 124.00755208331975,
      "v": 127
    },
    {
      "midi": 57,
      "hit": false,
      "t": 188595.64551041674,
      "d": 124.00755208331975,
      "v": 127
    },
    {
      "midi": 45,
      "hit": false,
      "t": 188913.10484375007,
      "d": 124.00755208331975,
      "v": 127
    },
    {
      "midi": 57,
      "hit": false,
      "t": 188913.10484375007,
      "d": 124.00755208331975,
      "v": 127
    },
    {
      "midi": 67,
      "hit": false,
      "t": 189627.38834375006,
      "d": 2093.247479166661,
      "v": 127
    },
    {
      "midi": 71,
      "hit": false,
      "t": 189627.38834375006,
      "d": 2093.247479166661,
      "v": 127
    },
    {
      "midi": 76,
      "hit": false,
      "t": 189627.38834375006,
      "d": 2093.247479166661,
      "v": 127
    },
    {
      "midi": 69,
      "hit": false,
      "t": 191785.11975000007,
      "d": 664.68047916668,
      "v": 127
    },
    {
      "midi": 74,
      "hit": false,
      "t": 191785.11975000007,
      "d": 664.68047916668,
      "v": 127
    },
    {
      "midi": 78,
      "hit": false,
      "t": 191785.11975000007,
      "d": 664.68047916668,
      "v": 117
    },
    {
      "midi": 73,
      "hit": false,
      "t": 192514.2841562501,
      "d": 902.7749791666574,
      "v": 105
    },
    {
      "midi": 76,
      "hit": false,
      "t": 192514.2841562501,
      "d": 902.7749791666574,
      "v": 127
    },
    {
      "midi": 81,
      "hit": false,
      "t": 192514.2841562501,
      "d": 902.7749791666574,
      "v": 112
    },
    {
      "midi": 67,
      "hit": false,
      "t": 193481.5430625001,
      "d": 2093.247479166661,
      "v": 127
    },
    {
      "midi": 71,
      "hit": false,
      "t": 193481.5430625001,
      "d": 2093.247479166661,
      "v": 127
    },
    {
      "midi": 76,
      "hit": false,
      "t": 193481.5430625001,
      "d": 2093.247479166661,
      "v": 127
    },
    {
      "midi": 76,
      "hit": false,
      "t": 193570.82850000015,
      "d": 94.24573958333349,
      "v": 120
    },
    {
      "midi": 79,
      "hit": false,
      "t": 193689.87575000015,
      "d": 94.24573958333349,
      "v": 120
    },
    {
      "midi": 76,
      "hit": false,
      "t": 193808.92300000016,
      "d": 94.24573958333349,
      "v": 120
    },
    {
      "midi": 74,
      "hit": false,
      "t": 193927.97025000016,
      "d": 94.24573958333349,
      "v": 120
    },
    {
      "midi": 71,
      "hit": false,
      "t": 194047.01750000016,
      "d": 94.24573958333349,
      "v": 120
    },
    {
      "midi": 69,
      "hit": false,
      "t": 194166.06475000017,
      "d": 94.24573958333349,
      "v": 120
    },
    {
      "midi": 69,
      "hit": false,
      "t": 195475.58450000017,
      "d": 94.24573958333349,
      "v": 120
    },
    {
      "midi": 71,
      "hit": false,
      "t": 195594.63175000018,
      "d": 94.24573958333349,
      "v": 120
    },
    {
      "midi": 69,
      "hit": false,
      "t": 195639.2744687501,
      "d": 664.68047916668,
      "v": 127
    },
    {
      "midi": 74,
      "hit": false,
      "t": 195639.2744687501,
      "d": 664.68047916668,
      "v": 127
    },
    {
      "midi": 78,
      "hit": false,
      "t": 195639.2744687501,
      "d": 664.68047916668,
      "v": 117
    },
    {
      "midi": 74,
      "hit": false,
      "t": 195713.67900000018,
      "d": 94.24573958333349,
      "v": 120
    },
    {
      "midi": 69,
      "hit": false,
      "t": 195832.72625000018,
      "d": 94.24573958333349,
      "v": 120
    },
    {
      "midi": 71,
      "hit": false,
      "t": 195951.77350000018,
      "d": 94.24573958333349,
      "v": 120
    },
    {
      "midi": 74,
      "hit": false,
      "t": 196070.8207500002,
      "d": 94.24573958333349,
      "v": 120
    },
    {
      "midi": 73,
      "hit": false,
      "t": 196368.43887500014,
      "d": 902.7749791666574,
      "v": 105
    },
    {
      "midi": 76,
      "hit": false,
      "t": 196368.43887500014,
      "d": 902.7749791666574,
      "v": 127
    },
    {
      "midi": 81,
      "hit": false,
      "t": 196368.43887500014,
      "d": 902.7749791666574,
      "v": 112
    },
    {
      "midi": 67,
      "hit": false,
      "t": 197335.69778125014,
      "d": 2093.247479166661,
      "v": 127
    },
    {
      "midi": 71,
      "hit": false,
      "t": 197335.69778125014,
      "d": 2093.247479166661,
      "v": 127
    },
    {
      "midi": 76,
      "hit": false,
      "t": 197335.69778125014,
      "d": 2093.247479166661,
      "v": 127
    },
    {
      "midi": 76,
      "hit": false,
      "t": 199285.0965000002,
      "d": 94.24573958333349,
      "v": 120
    },
    {
      "midi": 79,
      "hit": false,
      "t": 199404.1437500002,
      "d": 94.24573958333349,
      "v": 120
    },
    {
      "midi": 69,
      "hit": false,
      "t": 199493.42918750015,
      "d": 664.68047916668,
      "v": 127
    },
    {
      "midi": 74,
      "hit": false,
      "t": 199493.42918750015,
      "d": 664.68047916668,
      "v": 127
    },
    {
      "midi": 78,
      "hit": false,
      "t": 199493.42918750015,
      "d": 664.68047916668,
      "v": 117
    },
    {
      "midi": 76,
      "hit": false,
      "t": 199523.1910000002,
      "d": 94.24573958333349,
      "v": 120
    },
    {
      "midi": 74,
      "hit": false,
      "t": 199642.2382500002,
      "d": 94.24573958333349,
      "v": 120
    },
    {
      "midi": 71,
      "hit": false,
      "t": 199761.2855000002,
      "d": 94.24573958333349,
      "v": 120
    },
    {
      "midi": 69,
      "hit": false,
      "t": 199880.3327500002,
      "d": 94.24573958333349,
      "v": 120
    },
    {
      "midi": 73,
      "hit": false,
      "t": 200222.59359375018,
      "d": 902.7749791666574,
      "v": 105
    },
    {
      "midi": 76,
      "hit": false,
      "t": 200222.59359375018,
      "d": 902.7749791666574,
      "v": 127
    },
    {
      "midi": 81,
      "hit": false,
      "t": 200222.59359375018,
      "d": 902.7749791666574,
      "v": 112
    },
    {
      "midi": 67,
      "hit": false,
      "t": 201413.06609375018,
      "d": 213.29298958333675,
      "v": 127
    },
    {
      "midi": 71,
      "hit": false,
      "t": 201413.06609375018,
      "d": 213.29298958333675,
      "v": 127
    },
    {
      "midi": 74,
      "hit": false,
      "t": 201413.06609375018,
      "d": 213.29298958333675,
      "v": 127
    },
    {
      "midi": 76,
      "hit": false,
      "t": 201413.06609375018,
      "d": 213.29298958333675,
      "v": 127
    },
    {
      "midi": 67,
      "hit": false,
      "t": 201651.1605937502,
      "d": 213.29298958333675,
      "v": 127
    },
    {
      "midi": 71,
      "hit": false,
      "t": 201651.1605937502,
      "d": 213.29298958333675,
      "v": 127
    },
    {
      "midi": 74,
      "hit": false,
      "t": 201651.1605937502,
      "d": 213.29298958333675,
      "v": 127
    },
    {
      "midi": 76,
      "hit": false,
      "t": 201651.1605937502,
      "d": 213.29298958333675,
      "v": 127
    },
    {
      "midi": 67,
      "hit": false,
      "t": 201889.2550937502,
      "d": 213.29298958333675,
      "v": 127
    },
    {
      "midi": 71,
      "hit": false,
      "t": 201889.2550937502,
      "d": 213.29298958333675,
      "v": 127
    },
    {
      "midi": 74,
      "hit": false,
      "t": 201889.2550937502,
      "d": 213.29298958333675,
      "v": 127
    },
    {
      "midi": 79,
      "hit": false,
      "t": 201889.2550937502,
      "d": 213.29298958333675,
      "v": 127
    },
    {
      "midi": 67,
      "hit": false,
      "t": 202127.3495937502,
      "d": 94.24573958333349,
      "v": 127
    },
    {
      "midi": 71,
      "hit": false,
      "t": 202127.3495937502,
      "d": 94.24573958333349,
      "v": 127
    },
    {
      "midi": 74,
      "hit": false,
      "t": 202127.3495937502,
      "d": 94.24573958333349,
      "v": 127
    },
    {
      "midi": 76,
      "hit": false,
      "t": 202127.3495937502,
      "d": 94.24573958333349,
      "v": 127
    },
    {
      "midi": 67,
      "hit": false,
      "t": 202246.3968437502,
      "d": 332.34023958334,
      "v": 127
    },
    {
      "midi": 71,
      "hit": false,
      "t": 202246.3968437502,
      "d": 332.34023958334,
      "v": 127
    },
    {
      "midi": 74,
      "hit": false,
      "t": 202246.3968437502,
      "d": 332.34023958334,
      "v": 127
    },
    {
      "midi": 67,
      "hit": false,
      "t": 202603.5385937502,
      "d": 332.34023958334,
      "v": 127
    },
    {
      "midi": 71,
      "hit": false,
      "t": 202603.5385937502,
      "d": 332.34023958334,
      "v": 127
    },
    {
      "midi": 74,
      "hit": false,
      "t": 202603.5385937502,
      "d": 332.34023958334,
      "v": 127
    },
    {
      "midi": 76,
      "hit": false,
      "t": 202603.5385937502,
      "d": 332.34023958334,
      "v": 127
    }
  ]
}