{
  "jsonPath": "Unknown/Unknown/Chilled Jazz Masters/take-5-dave-brubeck-quartet.json",
  "path": "Unknown\\Unknown\\Chilled Jazz Masters\\Take 5 ( Dave Brubeck Quartet ).mid",
  "name": "Take 5 ( Dave Brubeck Quartet )",
  "difficulty": "Advanced",
  "bpm": 166.00265604249668,
  "notes": [
    {
      "midi": 39,
      "hit": false,
      "t": 1822.26,
      "d": 154.365,
      "v": 85
    },
    {
      "midi": 54,
      "hit": false,
      "t": 2051.925,
      "d": 60.23999999999978,
      "v": 73
    },
    {
      "midi": 58,
      "hit": false,
      "t": 2055.69,
      "d": 52.710000000000036,
      "v": 65
    },
    {
      "midi": 63,
      "hit": false,
      "t": 2055.69,
      "d": 60.23999999999978,
      "v": 81
    },
    {
      "midi": 39,
      "hit": false,
      "t": 2398.305,
      "d": 79.06500000000005,
      "v": 81
    },
    {
      "midi": 58,
      "hit": false,
      "t": 2548.9049999999997,
      "d": 82.82999999999993,
      "v": 69
    },
    {
      "midi": 54,
      "hit": false,
      "t": 2552.6699999999996,
      "d": 86.59500000000025,
      "v": 65
    },
    {
      "midi": 63,
      "hit": false,
      "t": 2552.6699999999996,
      "d": 86.59500000000025,
      "v": 73
    },
    {
      "midi": 46,
      "hit": false,
      "t": 2899.0499999999997,
      "d": 289.9050000000002,
      "v": 77
    },
    {
      "midi": 53,
      "hit": false,
      "t": 3241.665,
      "d": 199.54499999999962,
      "v": 73
    },
    {
      "midi": 61,
      "hit": false,
      "t": 3241.665,
      "d": 207.07499999999982,
      "v": 81
    },
    {
      "midi": 56,
      "hit": false,
      "t": 3245.43,
      "d": 165.65999999999985,
      "v": 69
    },
    {
      "midi": 39,
      "hit": false,
      "t": 3580.515,
      "d": 184.48500000000013,
      "v": 85
    },
    {
      "midi": 54,
      "hit": false,
      "t": 3813.945,
      "d": 71.53499999999985,
      "v": 77
    },
    {
      "midi": 63,
      "hit": false,
      "t": 3817.71,
      "d": 64.00500000000011,
      "v": 81
    },
    {
      "midi": 58,
      "hit": false,
      "t": 3817.71,
      "d": 67.76999999999998,
      "v": 81
    },
    {
      "midi": 39,
      "hit": false,
      "t": 4186.68,
      "d": 67.77000000000044,
      "v": 81
    },
    {
      "midi": 58,
      "hit": false,
      "t": 4329.750000000001,
      "d": 90.36000000000058,
      "v": 77
    },
    {
      "midi": 63,
      "hit": false,
      "t": 4333.515000000001,
      "d": 97.89000000000033,
      "v": 81
    },
    {
      "midi": 54,
      "hit": false,
      "t": 4333.515000000001,
      "d": 101.65500000000065,
      "v": 73
    },
    {
      "midi": 46,
      "hit": false,
      "t": 4717.545000000002,
      "d": 323.78999999999996,
      "v": 73
    },
    {
      "midi": 56,
      "hit": false,
      "t": 5067.690000000001,
      "d": 139.3050000000003,
      "v": 73
    },
    {
      "midi": 61,
      "hit": false,
      "t": 5067.690000000001,
      "d": 176.95499999999993,
      "v": 81
    },
    {
      "midi": 53,
      "hit": false,
      "t": 5071.455000000002,
      "d": 161.89499999999953,
      "v": 69
    },
    {
      "midi": 39,
      "hit": false,
      "t": 5410.305000000001,
      "d": 199.54500000000007,
      "v": 81
    },
    {
      "midi": 54,
      "hit": false,
      "t": 5628.675000000001,
      "d": 67.77000000000044,
      "v": 65
    },
    {
      "midi": 63,
      "hit": false,
      "t": 5628.675000000001,
      "d": 67.77000000000044,
      "v": 85
    },
    {
      "midi": 58,
      "hit": false,
      "t": 5632.440000000001,
      "d": 67.77000000000044,
      "v": 81
    },
    {
      "midi": 39,
      "hit": false,
      "t": 5993.880000000002,
      "d": 97.89000000000033,
      "v": 73
    },
    {
      "midi": 54,
      "hit": false,
      "t": 6121.890000000002,
      "d": 116.71500000000015,
      "v": 77
    },
    {
      "midi": 58,
      "hit": false,
      "t": 6125.6550000000025,
      "d": 90.35999999999967,
      "v": 81
    },
    {
      "midi": 63,
      "hit": false,
      "t": 6125.6550000000025,
      "d": 109.18499999999949,
      "v": 81
    },
    {
      "midi": 46,
      "hit": false,
      "t": 6498.390000000002,
      "d": 365.2049999999999,
      "v": 81
    },
    {
      "midi": 56,
      "hit": false,
      "t": 6867.360000000002,
      "d": 214.60500000000047,
      "v": 65
    },
    {
      "midi": 61,
      "hit": false,
      "t": 6871.125000000003,
      "d": 233.4300000000003,
      "v": 77
    },
    {
      "midi": 53,
      "hit": false,
      "t": 6871.125000000003,
      "d": 237.19500000000062,
      "v": 56
    },
    {
      "midi": 39,
      "hit": false,
      "t": 7217.505000000004,
      "d": 225.89999999999964,
      "v": 81
    },
    {
      "midi": 58,
      "hit": false,
      "t": 7447.170000000004,
      "d": 75.30000000000018,
      "v": 81
    },
    {
      "midi": 63,
      "hit": false,
      "t": 7447.170000000004,
      "d": 75.30000000000018,
      "v": 81
    },
    {
      "midi": 54,
      "hit": false,
      "t": 7447.170000000004,
      "d": 79.06500000000051,
      "v": 81
    },
    {
      "midi": 39,
      "hit": false,
      "t": 7793.550000000004,
      "d": 86.59500000000025,
      "v": 85
    },
    {
      "midi": 63,
      "hit": false,
      "t": 7921.560000000004,
      "d": 112.95000000000073,
      "v": 85
    },
    {
      "midi": 58,
      "hit": false,
      "t": 7925.325000000004,
      "d": 101.65500000000065,
      "v": 81
    },
    {
      "midi": 54,
      "hit": false,
      "t": 7929.090000000005,
      "d": 109.1850000000004,
      "v": 73
    },
    {
      "midi": 46,
      "hit": false,
      "t": 8305.590000000006,
      "d": 365.2049999999981,
      "v": 81
    },
    {
      "midi": 56,
      "hit": false,
      "t": 8659.500000000005,
      "d": 301.1999999999989,
      "v": 65
    },
    {
      "midi": 61,
      "hit": false,
      "t": 8663.265000000005,
      "d": 304.96500000000015,
      "v": 81
    },
    {
      "midi": 53,
      "hit": false,
      "t": 8667.030000000004,
      "d": 293.6700000000001,
      "v": 57
    },
    {
      "midi": 39,
      "hit": false,
      "t": 9020.940000000004,
      "d": 199.54500000000007,
      "v": 85
    },
    {
      "midi": 63,
      "hit": false,
      "t": 9235.545000000004,
      "d": 86.59499999999935,
      "v": 85
    },
    {
      "midi": 54,
      "hit": false,
      "t": 9239.310000000003,
      "d": 79.06500000000051,
      "v": 73
    },
    {
      "midi": 58,
      "hit": false,
      "t": 9239.310000000003,
      "d": 82.82999999999993,
      "v": 85
    },
    {
      "midi": 39,
      "hit": false,
      "t": 9589.455000000004,
      "d": 94.125,
      "v": 81
    },
    {
      "midi": 58,
      "hit": false,
      "t": 9724.995000000004,
      "d": 97.88999999999942,
      "v": 81
    },
    {
      "midi": 63,
      "hit": false,
      "t": 9724.995000000004,
      "d": 124.2450000000008,
      "v": 81
    },
    {
      "midi": 54,
      "hit": false,
      "t": 9728.760000000004,
      "d": 112.95000000000073,
      "v": 77
    },
    {
      "midi": 46,
      "hit": false,
      "t": 10101.495000000004,
      "d": 368.96999999999935,
      "v": 85
    },
    {
      "midi": 56,
      "hit": false,
      "t": 10462.935000000005,
      "d": 278.60999999999876,
      "v": 65
    },
    {
      "midi": 53,
      "hit": false,
      "t": 10466.700000000004,
      "d": 286.1399999999994,
      "v": 56
    },
    {
      "midi": 61,
      "hit": false,
      "t": 10466.700000000004,
      "d": 286.1399999999994,
      "v": 81
    },
    {
      "midi": 39,
      "hit": false,
      "t": 10816.845000000003,
      "d": 222.13500000000022,
      "v": 85
    },
    {
      "midi": 63,
      "hit": false,
      "t": 11038.980000000003,
      "d": 64.0049999999992,
      "v": 81
    },
    {
      "midi": 54,
      "hit": false,
      "t": 11042.745000000003,
      "d": 75.29999999999927,
      "v": 77
    },
    {
      "midi": 58,
      "hit": false,
      "t": 11042.745000000003,
      "d": 75.29999999999927,
      "v": 85
    },
    {
      "midi": 39,
      "hit": false,
      "t": 11404.185000000001,
      "d": 101.65500000000065,
      "v": 81
    },
    {
      "midi": 63,
      "hit": false,
      "t": 11539.725000000002,
      "d": 120.47999999999956,
      "v": 85
    },
    {
      "midi": 58,
      "hit": false,
      "t": 11543.490000000002,
      "d": 105.42000000000007,
      "v": 81
    },
    {
      "midi": 54,
      "hit": false,
      "t": 11543.490000000002,
      "d": 154.36499999999978,
      "v": 73
    },
    {
      "midi": 46,
      "hit": false,
      "t": 11908.695000000002,
      "d": 376.5,
      "v": 85
    },
    {
      "midi": 61,
      "hit": false,
      "t": 12273.900000000001,
      "d": 237.1949999999997,
      "v": 81
    },
    {
      "midi": 56,
      "hit": false,
      "t": 12277.665,
      "d": 222.13500000000022,
      "v": 73
    },
    {
      "midi": 53,
      "hit": false,
      "t": 12277.665,
      "d": 240.96000000000095,
      "v": 56
    },
    {
      "midi": 39,
      "hit": false,
      "t": 12624.045000000002,
      "d": 233.4300000000003,
      "v": 81
    },
    {
      "midi": 54,
      "hit": false,
      "t": 12857.475000000002,
      "d": 79.06499999999869,
      "v": 81
    },
    {
      "midi": 63,
      "hit": false,
      "t": 12857.475000000002,
      "d": 79.06499999999869,
      "v": 85
    },
    {
      "midi": 58,
      "hit": false,
      "t": 12861.240000000002,
      "d": 75.29999999999927,
      "v": 85
    },
    {
      "midi": 39,
      "hit": false,
      "t": 13211.385,
      "d": 124.2450000000008,
      "v": 81
    },
    {
      "midi": 63,
      "hit": false,
      "t": 13350.69,
      "d": 112.94999999999891,
      "v": 81
    },
    {
      "midi": 58,
      "hit": false,
      "t": 13354.455,
      "d": 105.42000000000007,
      "v": 85
    },
    {
      "midi": 54,
      "hit": false,
      "t": 13354.455,
      "d": 112.94999999999891,
      "v": 81
    },
    {
      "midi": 46,
      "hit": false,
      "t": 13712.13,
      "d": 380.2649999999994,
      "v": 81
    },
    {
      "midi": 56,
      "hit": false,
      "t": 14073.57,
      "d": 135.53999999999905,
      "v": 77
    },
    {
      "midi": 61,
      "hit": false,
      "t": 14077.335,
      "d": 146.83499999999913,
      "v": 85
    },
    {
      "midi": 53,
      "hit": false,
      "t": 14077.335,
      "d": 161.89499999999862,
      "v": 69
    },
    {
      "midi": 39,
      "hit": false,
      "t": 14438.774999999998,
      "d": 233.42999999999847,
      "v": 85
    },
    {
      "midi": 63,
      "hit": false,
      "t": 14664.674999999997,
      "d": 109.18499999999949,
      "v": 81
    },
    {
      "midi": 54,
      "hit": false,
      "t": 14668.439999999997,
      "d": 90.35999999999876,
      "v": 77
    },
    {
      "midi": 58,
      "hit": false,
      "t": 14675.969999999996,
      "d": 90.36000000000058,
      "v": 81
    },
    {
      "midi": 39,
      "hit": false,
      "t": 15022.349999999997,
      "d": 120.47999999999956,
      "v": 81
    },
    {
      "midi": 63,
      "hit": false,
      "t": 15142.829999999996,
      "d": 105.41999999999825,
      "v": 77
    },
    {
      "midi": 58,
      "hit": false,
      "t": 15146.594999999996,
      "d": 109.18499999999949,
      "v": 77
    },
    {
      "midi": 54,
      "hit": false,
      "t": 15150.359999999995,
      "d": 131.77499999999964,
      "v": 73
    },
    {
      "midi": 46,
      "hit": false,
      "t": 15511.799999999996,
      "d": 368.96999999999935,
      "v": 81
    },
    {
      "midi": 56,
      "hit": false,
      "t": 15869.474999999995,
      "d": 112.94999999999891,
      "v": 73
    },
    {
      "midi": 61,
      "hit": false,
      "t": 15877.004999999996,
      "d": 124.24499999999898,
      "v": 81
    },
    {
      "midi": 53,
      "hit": false,
      "t": 15884.534999999994,
      "d": 135.54000000000087,
      "v": 65
    },
    {
      "midi": 39,
      "hit": false,
      "t": 16268.564999999995,
      "d": 233.4300000000003,
      "v": 85
    },
    {
      "midi": 54,
      "hit": false,
      "t": 16494.464999999997,
      "d": 86.59499999999753,
      "v": 85
    },
    {
      "midi": 63,
      "hit": false,
      "t": 16494.464999999997,
      "d": 94.12499999999636,
      "v": 85
    },
    {
      "midi": 58,
      "hit": false,
      "t": 16498.229999999996,
      "d": 60.23999999999796,
      "v": 81
    },
    {
      "midi": 39,
      "hit": false,
      "t": 16859.669999999995,
      "d": 90.36000000000058,
      "v": 85
    },
    {
      "midi": 54,
      "hit": false,
      "t": 16980.149999999994,
      "d": 109.18500000000131,
      "v": 77
    },
    {
      "midi": 63,
      "hit": false,
      "t": 16980.149999999994,
      "d": 109.18500000000131,
      "v": 81
    },
    {
      "midi": 58,
      "hit": false,
      "t": 16983.914999999994,
      "d": 90.36000000000058,
      "v": 77
    },
    {
      "midi": 46,
      "hit": false,
      "t": 17352.884999999995,
      "d": 353.9099999999962,
      "v": 85
    },
    {
      "midi": 53,
      "hit": false,
      "t": 17691.734999999993,
      "d": 293.6699999999946,
      "v": 73
    },
    {
      "midi": 61,
      "hit": false,
      "t": 17691.734999999993,
      "d": 293.6699999999946,
      "v": 85
    },
    {
      "midi": 56,
      "hit": false,
      "t": 17699.264999999992,
      "d": 252.25499999999738,
      "v": 77
    },
    {
      "midi": 39,
      "hit": false,
      "t": 18053.17499999999,
      "d": 218.36999999999898,
      "v": 85
    },
    {
      "midi": 54,
      "hit": false,
      "t": 18286.60499999999,
      "d": 79.06499999999869,
      "v": 85
    },
    {
      "midi": 58,
      "hit": false,
      "t": 18290.369999999988,
      "d": 64.00500000000102,
      "v": 81
    },
    {
      "midi": 63,
      "hit": false,
      "t": 18290.369999999988,
      "d": 79.06499999999869,
      "v": 85
    },
    {
      "midi": 39,
      "hit": false,
      "t": 18629.219999999987,
      "d": 90.36000000000058,
      "v": 85
    },
    {
      "midi": 63,
      "hit": false,
      "t": 18760.994999999988,
      "d": 101.65499999999884,
      "v": 85
    },
    {
      "midi": 58,
      "hit": false,
      "t": 18764.759999999987,
      "d": 79.06499999999869,
      "v": 73
    },
    {
      "midi": 54,
      "hit": false,
      "t": 18764.759999999987,
      "d": 105.41999999999825,
      "v": 81
    },
    {
      "midi": 46,
      "hit": false,
      "t": 19129.964999999986,
      "d": 410.3849999999984,
      "v": 89
    },
    {
      "midi": 53,
      "hit": false,
      "t": 19483.874999999985,
      "d": 357.67499999999563,
      "v": 85
    },
    {
      "midi": 56,
      "hit": false,
      "t": 19487.639999999985,
      "d": 346.3799999999974,
      "v": 85
    },
    {
      "midi": 61,
      "hit": false,
      "t": 19487.639999999985,
      "d": 368.9699999999975,
      "v": 85
    },
    {
      "midi": 39,
      "hit": false,
      "t": 19841.54999999998,
      "d": 259.78499999999985,
      "v": 89
    },
    {
      "midi": 58,
      "hit": false,
      "t": 20097.56999999998,
      "d": 64.00500000000102,
      "v": 85
    },
    {
      "midi": 63,
      "hit": false,
      "t": 20097.56999999998,
      "d": 75.29999999999927,
      "v": 85
    },
    {
      "midi": 54,
      "hit": false,
      "t": 20101.33499999998,
      "d": 67.77000000000044,
      "v": 85
    },
    {
      "midi": 39,
      "hit": false,
      "t": 20459.00999999998,
      "d": 90.36000000000058,
      "v": 85
    },
    {
      "midi": 58,
      "hit": false,
      "t": 20583.25499999998,
      "d": 116.71500000000015,
      "v": 85
    },
    {
      "midi": 63,
      "hit": false,
      "t": 20583.25499999998,
      "d": 120.47999999999956,
      "v": 85
    },
    {
      "midi": 54,
      "hit": false,
      "t": 20587.01999999998,
      "d": 124.24499999999898,
      "v": 73
    },
    {
      "midi": 46,
      "hit": false,
      "t": 20959.75499999998,
      "d": 395.3249999999971,
      "v": 81
    },
    {
      "midi": 56,
      "hit": false,
      "t": 21321.194999999978,
      "d": 312.494999999999,
      "v": 81
    },
    {
      "midi": 61,
      "hit": false,
      "t": 21321.194999999978,
      "d": 342.61499999999796,
      "v": 81
    },
    {
      "midi": 53,
      "hit": false,
      "t": 21321.194999999978,
      "d": 346.3799999999974,
      "v": 73
    },
    {
      "midi": 39,
      "hit": false,
      "t": 21675.104999999974,
      "d": 11.294999999998254,
      "v": 89
    },
    {
      "midi": 39,
      "hit": false,
      "t": 21686.399999999972,
      "d": 210.84000000000015,
      "v": 85
    },
    {
      "midi": 63,
      "hit": false,
      "t": 21923.594999999972,
      "d": 79.06499999999869,
      "v": 81
    },
    {
      "midi": 58,
      "hit": false,
      "t": 21927.35999999997,
      "d": 67.77000000000044,
      "v": 81
    },
    {
      "midi": 54,
      "hit": false,
      "t": 21931.12499999997,
      "d": 71.53499999999985,
      "v": 81
    },
    {
      "midi": 39,
      "hit": false,
      "t": 22262.44499999997,
      "d": 90.36000000000058,
      "v": 85
    },
    {
      "midi": 63,
      "hit": false,
      "t": 22390.454999999973,
      "d": 150.59999999999854,
      "v": 85
    },
    {
      "midi": 58,
      "hit": false,
      "t": 22390.454999999973,
      "d": 180.71999999999753,
      "v": 77
    },
    {
      "midi": 54,
      "hit": false,
      "t": 22394.219999999972,
      "d": 192.01499999999942,
      "v": 81
    },
    {
      "midi": 46,
      "hit": false,
      "t": 22744.364999999972,
      "d": 342.6150000000016,
      "v": 98
    },
    {
      "midi": 63,
      "hit": false,
      "t": 23094.509999999973,
      "d": 135.54000000000087,
      "v": 89
    },
    {
      "midi": 58,
      "hit": false,
      "t": 23098.274999999972,
      "d": 135.54000000000087,
      "v": 89
    },
    {
      "midi": 54,
      "hit": false,
      "t": 23098.274999999972,
      "d": 139.3050000000003,
      "v": 89
    },
    {
      "midi": 47,
      "hit": false,
      "t": 23493.599999999973,
      "d": 252.25499999999738,
      "v": 73
    },
    {
      "midi": 59,
      "hit": false,
      "t": 23734.559999999972,
      "d": 97.88999999999942,
      "v": 81
    },
    {
      "midi": 58,
      "hit": false,
      "t": 23734.559999999972,
      "d": 105.41999999999825,
      "v": 65
    },
    {
      "midi": 63,
      "hit": false,
      "t": 23734.559999999972,
      "d": 120.47999999999956,
      "v": 77
    },
    {
      "midi": 66,
      "hit": false,
      "t": 23734.559999999972,
      "d": 120.47999999999956,
      "v": 73
    },
    {
      "midi": 47,
      "hit": false,
      "t": 24095.99999999997,
      "d": 94.125,
      "v": 81
    },
    {
      "midi": 66,
      "hit": false,
      "t": 24216.47999999997,
      "d": 293.66999999999825,
      "v": 73
    },
    {
      "midi": 59,
      "hit": false,
      "t": 24216.47999999997,
      "d": 304.9649999999965,
      "v": 81
    },
    {
      "midi": 63,
      "hit": false,
      "t": 24216.47999999997,
      "d": 312.49499999999534,
      "v": 81
    },
    {
      "midi": 58,
      "hit": false,
      "t": 24216.47999999997,
      "d": 323.7899999999936,
      "v": 65
    },
    {
      "midi": 44,
      "hit": false,
      "t": 24577.919999999966,
      "d": 350.14500000000044,
      "v": 73
    },
    {
      "midi": 54,
      "hit": false,
      "t": 24939.359999999964,
      "d": 274.84500000000116,
      "v": 57
    },
    {
      "midi": 58,
      "hit": false,
      "t": 24939.359999999964,
      "d": 278.6100000000006,
      "v": 81
    },
    {
      "midi": 59,
      "hit": false,
      "t": 24939.359999999964,
      "d": 278.6100000000006,
      "v": 81
    },
    {
      "midi": 63,
      "hit": false,
      "t": 24939.359999999964,
      "d": 301.2000000000007,
      "v": 73
    },
    {
      "midi": 46,
      "hit": false,
      "t": 25300.799999999967,
      "d": 259.78499999999985,
      "v": 73
    },
    {
      "midi": 60,
      "hit": false,
      "t": 25541.759999999966,
      "d": 56.47500000000218,
      "v": 89
    },
    {
      "midi": 65,
      "hit": false,
      "t": 25541.759999999966,
      "d": 56.47500000000218,
      "v": 77
    },
    {
      "midi": 56,
      "hit": false,
      "t": 25541.759999999966,
      "d": 64.00500000000102,
      "v": 77
    },
    {
      "midi": 61,
      "hit": false,
      "t": 25541.759999999966,
      "d": 67.77000000000044,
      "v": 81
    },
    {
      "midi": 46,
      "hit": false,
      "t": 25903.199999999964,
      "d": 109.18500000000131,
      "v": 77
    },
    {
      "midi": 65,
      "hit": false,
      "t": 26023.679999999964,
      "d": 301.2000000000007,
      "v": 77
    },
    {
      "midi": 60,
      "hit": false,
      "t": 26023.679999999964,
      "d": 312.494999999999,
      "v": 81
    },
    {
      "midi": 56,
      "hit": false,
      "t": 26023.679999999964,
      "d": 338.84999999999854,
      "v": 73
    },
    {
      "midi": 61,
      "hit": false,
      "t": 26023.679999999964,
      "d": 346.3799999999974,
      "v": 85
    },
    {
      "midi": 39,
      "hit": false,
      "t": 26385.119999999963,
      "d": 391.5599999999977,
      "v": 85
    },
    {
      "midi": 65,
      "hit": false,
      "t": 26746.55999999996,
      "d": 297.4349999999977,
      "v": 81
    },
    {
      "midi": 58,
      "hit": false,
      "t": 26746.55999999996,
      "d": 338.84999999999854,
      "v": 73
    },
    {
      "midi": 61,
      "hit": false,
      "t": 26746.55999999996,
      "d": 338.84999999999854,
      "v": 81
    },
    {
      "midi": 54,
      "hit": false,
      "t": 26746.55999999996,
      "d": 353.90999999999985,
      "v": 73
    },
    {
      "midi": 44,
      "hit": false,
      "t": 27107.99999999996,
      "d": 256.02000000000044,
      "v": 77
    },
    {
      "midi": 58,
      "hit": false,
      "t": 27348.95999999996,
      "d": 75.30000000000291,
      "v": 73
    },
    {
      "midi": 59,
      "hit": false,
      "t": 27348.95999999996,
      "d": 79.06500000000233,
      "v": 81
    },
    {
      "midi": 63,
      "hit": false,
      "t": 27348.95999999996,
      "d": 90.36000000000058,
      "v": 85
    },
    {
      "midi": 44,
      "hit": false,
      "t": 27710.39999999996,
      "d": 128.0099999999984,
      "v": 77
    },
    {
      "midi": 63,
      "hit": false,
      "t": 27830.87999999996,
      "d": 308.72999999999956,
      "v": 85
    },
    {
      "midi": 58,
      "hit": false,
      "t": 27830.87999999996,
      "d": 331.3199999999997,
      "v": 77
    },
    {
      "midi": 59,
      "hit": false,
      "t": 27830.87999999996,
      "d": 331.3199999999997,
      "v": 85
    },
    {
      "midi": 37,
      "hit": false,
      "t": 28192.31999999996,
      "d": 395.3249999999971,
      "v": 85
    },
    {
      "midi": 63,
      "hit": false,
      "t": 28553.75999999996,
      "d": 312.494999999999,
      "v": 77
    },
    {
      "midi": 58,
      "hit": false,
      "t": 28553.75999999996,
      "d": 316.2599999999984,
      "v": 65
    },
    {
      "midi": 59,
      "hit": false,
      "t": 28553.75999999996,
      "d": 316.2599999999984,
      "v": 85
    },
    {
      "midi": 53,
      "hit": false,
      "t": 28553.75999999996,
      "d": 327.55499999999665,
      "v": 61
    },
    {
      "midi": 42,
      "hit": false,
      "t": 28915.199999999953,
      "d": 282.375,
      "v": 73
    },
    {
      "midi": 54,
      "hit": false,
      "t": 29156.159999999953,
      "d": 64.00500000000102,
      "v": 69
    },
    {
      "midi": 53,
      "hit": false,
      "t": 29156.159999999953,
      "d": 82.83000000000175,
      "v": 73
    },
    {
      "midi": 58,
      "hit": false,
      "t": 29156.159999999953,
      "d": 82.83000000000175,
      "v": 81
    },
    {
      "midi": 63,
      "hit": false,
      "t": 29156.159999999953,
      "d": 101.65500000000247,
      "v": 81
    },
    {
      "midi": 42,
      "hit": false,
      "t": 29517.599999999955,
      "d": 128.0099999999984,
      "v": 85
    },
    {
      "midi": 54,
      "hit": false,
      "t": 29638.079999999954,
      "d": 304.96500000000015,
      "v": 61
    },
    {
      "midi": 53,
      "hit": false,
      "t": 29638.079999999954,
      "d": 320.02500000000146,
      "v": 56
    },
    {
      "midi": 58,
      "hit": false,
      "t": 29638.079999999954,
      "d": 327.5550000000003,
      "v": 77
    },
    {
      "midi": 63,
      "hit": false,
      "t": 29638.079999999954,
      "d": 342.6150000000016,
      "v": 73
    },
    {
      "midi": 42,
      "hit": false,
      "t": 29999.519999999957,
      "d": 346.380000000001,
      "v": 81
    },
    {
      "midi": 54,
      "hit": false,
      "t": 30360.95999999996,
      "d": 120.47999999999956,
      "v": 69
    },
    {
      "midi": 58,
      "hit": false,
      "t": 30360.95999999996,
      "d": 120.47999999999956,
      "v": 73
    },
    {
      "midi": 65,
      "hit": false,
      "t": 30360.95999999996,
      "d": 131.77499999999782,
      "v": 77
    },
    {
      "midi": 61,
      "hit": false,
      "t": 30360.95999999996,
      "d": 139.30499999999665,
      "v": 81
    },
    {
      "midi": 47,
      "hit": false,
      "t": 30722.399999999954,
      "d": 173.1899999999987,
      "v": 73
    },
    {
      "midi": 59,
      "hit": false,
      "t": 30963.359999999953,
      "d": 56.474999999998545,
      "v": 69
    },
    {
      "midi": 58,
      "hit": false,
      "t": 30963.359999999953,
      "d": 67.7699999999968,
      "v": 55
    },
    {
      "midi": 63,
      "hit": false,
      "t": 30963.359999999953,
      "d": 67.7699999999968,
      "v": 73
    },
    {
      "midi": 66,
      "hit": false,
      "t": 30963.359999999953,
      "d": 82.82999999999811,
      "v": 61
    },
    {
      "midi": 47,
      "hit": false,
      "t": 31324.799999999952,
      "d": 71.53499999999985,
      "v": 77
    },
    {
      "midi": 59,
      "hit": false,
      "t": 31445.27999999995,
      "d": 82.83000000000175,
      "v": 73
    },
    {
      "midi": 58,
      "hit": false,
      "t": 31445.27999999995,
      "d": 97.89000000000306,
      "v": 57
    },
    {
      "midi": 63,
      "hit": false,
      "t": 31445.27999999995,
      "d": 109.18500000000131,
      "v": 77
    },
    {
      "midi": 66,
      "hit": false,
      "t": 31445.27999999995,
      "d": 112.95000000000073,
      "v": 61
    },
    {
      "midi": 44,
      "hit": false,
      "t": 31806.719999999954,
      "d": 357.6749999999993,
      "v": 65
    },
    {
      "midi": 54,
      "hit": false,
      "t": 32168.159999999953,
      "d": 297.4350000000013,
      "v": 51
    },
    {
      "midi": 58,
      "hit": false,
      "t": 32168.159999999953,
      "d": 297.4350000000013,
      "v": 65
    },
    {
      "midi": 63,
      "hit": false,
      "t": 32168.159999999953,
      "d": 301.2000000000007,
      "v": 57
    },
    {
      "midi": 59,
      "hit": false,
      "t": 32168.159999999953,
      "d": 304.96500000000015,
      "v": 77
    },
    {
      "midi": 46,
      "hit": false,
      "t": 32529.59999999995,
      "d": 233.4300000000003,
      "v": 57
    },
    {
      "midi": 60,
      "hit": false,
      "t": 32770.559999999954,
      "d": 33.88500000000204,
      "v": 77
    },
    {
      "midi": 65,
      "hit": false,
      "t": 32770.559999999954,
      "d": 45.18000000000029,
      "v": 73
    },
    {
      "midi": 61,
      "hit": false,
      "t": 32770.559999999954,
      "d": 48.94499999999971,
      "v": 77
    },
    {
      "midi": 56,
      "hit": false,
      "t": 32770.559999999954,
      "d": 52.70999999999913,
      "v": 65
    },
    {
      "midi": 46,
      "hit": false,
      "t": 33131.999999999956,
      "d": 97.88999999999942,
      "v": 65
    },
    {
      "midi": 60,
      "hit": false,
      "t": 33252.47999999995,
      "d": 90.36000000000058,
      "v": 69
    },
    {
      "midi": 65,
      "hit": false,
      "t": 33252.47999999995,
      "d": 101.65499999999884,
      "v": 61
    },
    {
      "midi": 56,
      "hit": false,
      "t": 33252.47999999995,
      "d": 105.41999999999825,
      "v": 57
    },
    {
      "midi": 61,
      "hit": false,
      "t": 33252.47999999995,
      "d": 109.18499999999767,
      "v": 73
    },
    {
      "midi": 39,
      "hit": false,
      "t": 33613.91999999995,
      "d": 376.5,
      "v": 65
    },
    {
      "midi": 65,
      "hit": false,
      "t": 33975.35999999995,
      "d": 267.31499999999505,
      "v": 73
    },
    {
      "midi": 58,
      "hit": false,
      "t": 33975.35999999995,
      "d": 293.66999999999825,
      "v": 73
    },
    {
      "midi": 61,
      "hit": false,
      "t": 33975.35999999995,
      "d": 293.66999999999825,
      "v": 69
    },
    {
      "midi": 54,
      "hit": false,
      "t": 33975.35999999995,
      "d": 327.5550000000003,
      "v": 52
    },
    {
      "midi": 44,
      "hit": false,
      "t": 34336.79999999995,
      "d": 244.72499999999854,
      "v": 65
    },
    {
      "midi": 59,
      "hit": false,
      "t": 34577.75999999995,
      "d": 79.06500000000233,
      "v": 85
    },
    {
      "midi": 58,
      "hit": false,
      "t": 34577.75999999995,
      "d": 82.83000000000175,
      "v": 73
    },
    {
      "midi": 63,
      "hit": false,
      "t": 34577.75999999995,
      "d": 86.59500000000116,
      "v": 81
    },
    {
      "midi": 44,
      "hit": false,
      "t": 34939.19999999995,
      "d": 82.83000000000175,
      "v": 65
    },
    {
      "midi": 58,
      "hit": false,
      "t": 35059.67999999996,
      "d": 90.36000000000058,
      "v": 69
    },
    {
      "midi": 59,
      "hit": false,
      "t": 35059.67999999996,
      "d": 90.36000000000058,
      "v": 77
    },
    {
      "midi": 63,
      "hit": false,
      "t": 35059.67999999996,
      "d": 101.65499999999884,
      "v": 77
    },
    {
      "midi": 37,
      "hit": false,
      "t": 35421.11999999996,
      "d": 380.2649999999994,
      "v": 73
    },
    {
      "midi": 59,
      "hit": false,
      "t": 35782.55999999996,
      "d": 274.8449999999939,
      "v": 81
    },
    {
      "midi": 58,
      "hit": false,
      "t": 35782.55999999996,
      "d": 278.6099999999933,
      "v": 69
    },
    {
      "midi": 63,
      "hit": false,
      "t": 35782.55999999996,
      "d": 278.6099999999933,
      "v": 69
    },
    {
      "midi": 53,
      "hit": false,
      "t": 35782.55999999996,
      "d": 286.13999999999214,
      "v": 54
    },
    {
      "midi": 41,
      "hit": false,
      "t": 36143.999999999956,
      "d": 259.7849999999962,
      "v": 81
    },
    {
      "midi": 56,
      "hit": false,
      "t": 36384.959999999955,
      "d": 67.7699999999968,
      "v": 73
    },
    {
      "midi": 60,
      "hit": false,
      "t": 36384.959999999955,
      "d": 79.06499999999505,
      "v": 77
    },
    {
      "midi": 55,
      "hit": false,
      "t": 36384.959999999955,
      "d": 82.82999999999447,
      "v": 53
    },
    {
      "midi": 63,
      "hit": false,
      "t": 36384.959999999955,
      "d": 105.41999999999098,
      "v": 73
    },
    {
      "midi": 41,
      "hit": false,
      "t": 36746.39999999994,
      "d": 109.18499999999767,
      "v": 81
    },
    {
      "midi": 56,
      "hit": false,
      "t": 36866.87999999994,
      "d": 75.30000000000291,
      "v": 73
    },
    {
      "midi": 60,
      "hit": false,
      "t": 36866.87999999994,
      "d": 101.65500000000611,
      "v": 81
    },
    {
      "midi": 55,
      "hit": false,
      "t": 36866.87999999994,
      "d": 105.42000000000553,
      "v": 56
    },
    {
      "midi": 63,
      "hit": false,
      "t": 36866.87999999994,
      "d": 112.95000000000437,
      "v": 65
    },
    {
      "midi": 46,
      "hit": false,
      "t": 37228.31999999994,
      "d": 353.9100000000035,
      "v": 73
    },
    {
      "midi": 56,
      "hit": false,
      "t": 37589.759999999944,
      "d": 143.0699999999997,
      "v": 65
    },
    {
      "midi": 53,
      "hit": false,
      "t": 37589.759999999944,
      "d": 150.59999999999854,
      "v": 51
    },
    {
      "midi": 62,
      "hit": false,
      "t": 37589.759999999944,
      "d": 150.59999999999854,
      "v": 77
    },
    {
      "midi": 58,
      "hit": false,
      "t": 37589.759999999944,
      "d": 154.36499999999796,
      "v": 73
    },
    {
      "midi": 39,
      "hit": false,
      "t": 37951.19999999994,
      "d": 210.8399999999965,
      "v": 77
    },
    {
      "midi": 58,
      "hit": false,
      "t": 38192.15999999994,
      "d": 75.30000000000291,
      "v": 65
    },
    {
      "midi": 54,
      "hit": false,
      "t": 38192.15999999994,
      "d": 79.06500000000233,
      "v": 65
    },
    {
      "midi": 63,
      "hit": false,
      "t": 38192.15999999994,
      "d": 82.83000000000175,
      "v": 73
    },
    {
      "midi": 39,
      "hit": false,
      "t": 38553.59999999994,
      "d": 90.36000000000058,
      "v": 77
    },
    {
      "midi": 58,
      "hit": false,
      "t": 38674.07999999994,
      "d": 101.65499999999884,
      "v": 73
    },
    {
      "midi": 54,
      "hit": false,
      "t": 38674.07999999994,
      "d": 124.24499999999534,
      "v": 65
    },
    {
      "midi": 63,
      "hit": false,
      "t": 38674.07999999994,
      "d": 128.00999999999476,
      "v": 77
    },
    {
      "midi": 46,
      "hit": false,
      "t": 39035.51999999994,
      "d": 346.3799999999974,
      "v": 77
    },
    {
      "midi": 56,
      "hit": false,
      "t": 39396.959999999934,
      "d": 192.01499999999942,
      "v": 73
    },
    {
      "midi": 53,
      "hit": false,
      "t": 39396.959999999934,
      "d": 229.66500000000087,
      "v": 57
    },
    {
      "midi": 61,
      "hit": false,
      "t": 39396.959999999934,
      "d": 244.72499999999854,
      "v": 81
    },
    {
      "midi": 39,
      "hit": false,
      "t": 39758.39999999993,
      "d": 218.37000000000262,
      "v": 77
    },
    {
      "midi": 63,
      "hit": false,
      "t": 39999.35999999993,
      "d": 60.23999999999796,
      "v": 77
    },
    {
      "midi": 54,
      "hit": false,
      "t": 39999.35999999993,
      "d": 67.7699999999968,
      "v": 73
    },
    {
      "midi": 58,
      "hit": false,
      "t": 39999.35999999993,
      "d": 67.7699999999968,
      "v": 73
    },
    {
      "midi": 39,
      "hit": false,
      "t": 40360.79999999992,
      "d": 90.36000000000058,
      "v": 81
    },
    {
      "midi": 58,
      "hit": false,
      "t": 40481.279999999926,
      "d": 109.18499999999767,
      "v": 73
    },
    {
      "midi": 54,
      "hit": false,
      "t": 40481.279999999926,
      "d": 124.24499999999534,
      "v": 69
    },
    {
      "midi": 63,
      "hit": false,
      "t": 40481.279999999926,
      "d": 131.77499999999418,
      "v": 81
    },
    {
      "midi": 46,
      "hit": false,
      "t": 40842.71999999992,
      "d": 338.84999999999854,
      "v": 77
    },
    {
      "midi": 56,
      "hit": false,
      "t": 41204.159999999916,
      "d": 131.77500000000146,
      "v": 65
    },
    {
      "midi": 61,
      "hit": false,
      "t": 41204.159999999916,
      "d": 139.3050000000003,
      "v": 81
    },
    {
      "midi": 53,
      "hit": false,
      "t": 41204.159999999916,
      "d": 169.4250000000029,
      "v": 61
    },
    {
      "midi": 39,
      "hit": false,
      "t": 41565.59999999992,
      "d": 207.0749999999971,
      "v": 85
    },
    {
      "midi": 58,
      "hit": false,
      "t": 41806.55999999992,
      "d": 60.23999999999796,
      "v": 65
    },
    {
      "midi": 54,
      "hit": false,
      "t": 41806.55999999992,
      "d": 67.7699999999968,
      "v": 77
    },
    {
      "midi": 63,
      "hit": false,
      "t": 41806.55999999992,
      "d": 71.53499999999622,
      "v": 85
    },
    {
      "midi": 39,
      "hit": false,
      "t": 42167.99999999991,
      "d": 105.41999999999825,
      "v": 73
    },
    {
      "midi": 58,
      "hit": false,
      "t": 42288.47999999991,
      "d": 109.18499999999767,
      "v": 73
    },
    {
      "midi": 63,
      "hit": false,
      "t": 42288.47999999991,
      "d": 120.47999999999593,
      "v": 81
    },
    {
      "midi": 54,
      "hit": false,
      "t": 42288.47999999991,
      "d": 146.83499999999913,
      "v": 73
    },
    {
      "midi": 46,
      "hit": false,
      "t": 42649.91999999991,
      "d": 342.61499999999796,
      "v": 77
    },
    {
      "midi": 56,
      "hit": false,
      "t": 43011.359999999906,
      "d": 124.24500000000262,
      "v": 65
    },
    {
      "midi": 61,
      "hit": false,
      "t": 43011.359999999906,
      "d": 135.54000000000087,
      "v": 85
    },
    {
      "midi": 53,
      "hit": false,
      "t": 43011.359999999906,
      "d": 146.83499999999913,
      "v": 73
    },
    {
      "midi": 39,
      "hit": false,
      "t": 43372.79999999991,
      "d": 214.6050000000032,
      "v": 69
    },
    {
      "midi": 58,
      "hit": false,
      "t": 43613.759999999915,
      "d": 56.474999999998545,
      "v": 69
    },
    {
      "midi": 54,
      "hit": false,
      "t": 43613.759999999915,
      "d": 67.7699999999968,
      "v": 65
    },
    {
      "midi": 63,
      "hit": false,
      "t": 43613.759999999915,
      "d": 71.53499999999622,
      "v": 77
    },
    {
      "midi": 39,
      "hit": false,
      "t": 43975.19999999991,
      "d": 71.53500000000349,
      "v": 65
    },
    {
      "midi": 58,
      "hit": false,
      "t": 44095.67999999991,
      "d": 105.41999999999825,
      "v": 65
    },
    {
      "midi": 63,
      "hit": false,
      "t": 44095.67999999991,
      "d": 109.18499999999767,
      "v": 77
    },
    {
      "midi": 54,
      "hit": false,
      "t": 44095.67999999991,
      "d": 139.3050000000003,
      "v": 61
    },
    {
      "midi": 46,
      "hit": false,
      "t": 44457.119999999915,
      "d": 323.7900000000009,
      "v": 65
    },
    {
      "midi": 56,
      "hit": false,
      "t": 44818.55999999992,
      "d": 135.54000000000087,
      "v": 56
    },
    {
      "midi": 61,
      "hit": false,
      "t": 44818.55999999992,
      "d": 139.3050000000003,
      "v": 77
    },
    {
      "midi": 53,
      "hit": false,
      "t": 44818.55999999992,
      "d": 150.59999999999854,
      "v": 61
    },
    {
      "midi": 39,
      "hit": false,
      "t": 45179.99999999991,
      "d": 165.6600000000035,
      "v": 85
    },
    {
      "midi": 58,
      "hit": false,
      "t": 45420.95999999992,
      "d": 71.53500000000349,
      "v": 61
    },
    {
      "midi": 63,
      "hit": false,
      "t": 45420.95999999992,
      "d": 75.30000000000291,
      "v": 77
    },
    {
      "midi": 54,
      "hit": false,
      "t": 45420.95999999992,
      "d": 79.06500000000233,
      "v": 69
    },
    {
      "midi": 39,
      "hit": false,
      "t": 45782.39999999992,
      "d": 105.41999999999825,
      "v": 73
    },
    {
      "midi": 58,
      "hit": false,
      "t": 45902.87999999992,
      "d": 90.36000000000058,
      "v": 65
    },
    {
      "midi": 63,
      "hit": false,
      "t": 45902.87999999992,
      "d": 90.36000000000058,
      "v": 81
    },
    {
      "midi": 54,
      "hit": false,
      "t": 45902.87999999992,
      "d": 105.41999999999825,
      "v": 77
    },
    {
      "midi": 46,
      "hit": false,
      "t": 46264.31999999991,
      "d": 342.61499999999796,
      "v": 77
    },
    {
      "midi": 56,
      "hit": false,
      "t": 46625.75999999991,
      "d": 109.18499999999767,
      "v": 73
    },
    {
      "midi": 61,
      "hit": false,
      "t": 46625.75999999991,
      "d": 120.47999999999593,
      "v": 81
    },
    {
      "midi": 53,
      "hit": false,
      "t": 46625.75999999991,
      "d": 128.00999999999476,
      "v": 69
    },
    {
      "midi": 39,
      "hit": false,
      "t": 46987.1999999999,
      "d": 203.30999999999767,
      "v": 81
    },
    {
      "midi": 58,
      "hit": false,
      "t": 47228.1599999999,
      "d": 67.7699999999968,
      "v": 69
    },
    {
      "midi": 54,
      "hit": false,
      "t": 47228.1599999999,
      "d": 79.06499999999505,
      "v": 77
    },
    {
      "midi": 63,
      "hit": false,
      "t": 47228.1599999999,
      "d": 79.06499999999505,
      "v": 81
    },
    {
      "midi": 39,
      "hit": false,
      "t": 47589.5999999999,
      "d": 97.88999999999942,
      "v": 77
    },
    {
      "midi": 58,
      "hit": false,
      "t": 47710.07999999989,
      "d": 90.36000000000058,
      "v": 65
    },
    {
      "midi": 63,
      "hit": false,
      "t": 47710.07999999989,
      "d": 105.41999999999825,
      "v": 85
    },
    {
      "midi": 54,
      "hit": false,
      "t": 47710.07999999989,
      "d": 109.18499999999767,
      "v": 69
    },
    {
      "midi": 46,
      "hit": false,
      "t": 48071.51999999989,
      "d": 316.26000000000204,
      "v": 77
    },
    {
      "midi": 56,
      "hit": false,
      "t": 48432.95999999989,
      "d": 94.125,
      "v": 81
    },
    {
      "midi": 61,
      "hit": false,
      "t": 48432.95999999989,
      "d": 116.71499999999651,
      "v": 85
    },
    {
      "midi": 53,
      "hit": false,
      "t": 48432.95999999989,
      "d": 131.77499999999418,
      "v": 81
    },
    {
      "midi": 39,
      "hit": false,
      "t": 48794.399999999885,
      "d": 176.95500000000175,
      "v": 81
    },
    {
      "midi": 58,
      "hit": false,
      "t": 49035.359999999884,
      "d": 60.23999999999796,
      "v": 65
    },
    {
      "midi": 54,
      "hit": false,
      "t": 49035.359999999884,
      "d": 71.53499999999622,
      "v": 77
    },
    {
      "midi": 63,
      "hit": false,
      "t": 49035.359999999884,
      "d": 75.29999999999563,
      "v": 81
    },
    {
      "midi": 39,
      "hit": false,
      "t": 49396.79999999988,
      "d": 112.94999999999709,
      "v": 73
    },
    {
      "midi": 58,
      "hit": false,
      "t": 49517.279999999875,
      "d": 82.83000000000175,
      "v": 69
    },
    {
      "midi": 63,
      "hit": false,
      "t": 49517.279999999875,
      "d": 94.125,
      "v": 85
    },
    {
      "midi": 54,
      "hit": false,
      "t": 49517.279999999875,
      "d": 109.18499999999767,
      "v": 61
    },
    {
      "midi": 46,
      "hit": false,
      "t": 49878.71999999987,
      "d": 335.0849999999991,
      "v": 77
    },
    {
      "midi": 56,
      "hit": false,
      "t": 50240.15999999987,
      "d": 139.3050000000003,
      "v": 77
    },
    {
      "midi": 61,
      "hit": false,
      "t": 50240.15999999987,
      "d": 169.4250000000029,
      "v": 85
    },
    {
      "midi": 53,
      "hit": false,
      "t": 50240.15999999987,
      "d": 184.48500000000058,
      "v": 77
    },
    {
      "midi": 39,
      "hit": false,
      "t": 50601.599999999875,
      "d": 210.8399999999965,
      "v": 77
    },
    {
      "midi": 58,
      "hit": false,
      "t": 50842.559999999874,
      "d": 79.06500000000233,
      "v": 73
    },
    {
      "midi": 63,
      "hit": false,
      "t": 50842.559999999874,
      "d": 79.06500000000233,
      "v": 73
    },
    {
      "midi": 54,
      "hit": false,
      "t": 50842.559999999874,
      "d": 86.59500000000116,
      "v": 73
    },
    {
      "midi": 39,
      "hit": false,
      "t": 51203.999999999876,
      "d": 90.36000000000058,
      "v": 77
    },
    {
      "midi": 58,
      "hit": false,
      "t": 51324.47999999988,
      "d": 90.36000000000058,
      "v": 77
    },
    {
      "midi": 63,
      "hit": false,
      "t": 51324.47999999988,
      "d": 90.36000000000058,
      "v": 77
    },
    {
      "midi": 54,
      "hit": false,
      "t": 51324.47999999988,
      "d": 105.41999999999825,
      "v": 73
    },
    {
      "midi": 46,
      "hit": false,
      "t": 51685.919999999875,
      "d": 365.20500000000175,
      "v": 73
    },
    {
      "midi": 56,
      "hit": false,
      "t": 52047.35999999988,
      "d": 124.24500000000262,
      "v": 81
    },
    {
      "midi": 61,
      "hit": false,
      "t": 52047.35999999988,
      "d": 135.54000000000087,
      "v": 81
    },
    {
      "midi": 53,
      "hit": false,
      "t": 52047.35999999988,
      "d": 150.59999999999854,
      "v": 77
    },
    {
      "midi": 39,
      "hit": false,
      "t": 52408.79999999987,
      "d": 210.8399999999965,
      "v": 77
    },
    {
      "midi": 58,
      "hit": false,
      "t": 52649.75999999987,
      "d": 75.30000000000291,
      "v": 65
    },
    {
      "midi": 54,
      "hit": false,
      "t": 52649.75999999987,
      "d": 79.06500000000233,
      "v": 65
    },
    {
      "midi": 63,
      "hit": false,
      "t": 52649.75999999987,
      "d": 82.83000000000175,
      "v": 73
    },
    {
      "midi": 39,
      "hit": false,
      "t": 53011.19999999987,
      "d": 90.36000000000058,
      "v": 77
    },
    {
      "midi": 58,
      "hit": false,
      "t": 53131.67999999988,
      "d": 101.65499999999884,
      "v": 73
    },
    {
      "midi": 54,
      "hit": false,
      "t": 53131.67999999988,
      "d": 124.24499999999534,
      "v": 65
    },
    {
      "midi": 63,
      "hit": false,
      "t": 53131.67999999988,
      "d": 128.00999999999476,
      "v": 77
    },
    {
      "midi": 46,
      "hit": false,
      "t": 53493.11999999987,
      "d": 346.3799999999974,
      "v": 77
    },
    {
      "midi": 56,
      "hit": false,
      "t": 53854.55999999987,
      "d": 192.01499999999942,
      "v": 73
    },
    {
      "midi": 53,
      "hit": false,
      "t": 53854.55999999987,
      "d": 229.66500000000087,
      "v": 57
    },
    {
      "midi": 61,
      "hit": false,
      "t": 53854.55999999987,
      "d": 244.72499999999854,
      "v": 81
    },
    {
      "midi": 39,
      "hit": false,
      "t": 54215.99999999986,
      "d": 218.37000000000262,
      "v": 77
    },
    {
      "midi": 63,
      "hit": false,
      "t": 54456.95999999986,
      "d": 60.23999999999796,
      "v": 77
    },
    {
      "midi": 54,
      "hit": false,
      "t": 54456.95999999986,
      "d": 67.7699999999968,
      "v": 73
    },
    {
      "midi": 58,
      "hit": false,
      "t": 54456.95999999986,
      "d": 67.7699999999968,
      "v": 73
    },
    {
      "midi": 39,
      "hit": false,
      "t": 54818.399999999856,
      "d": 90.36000000000058,
      "v": 81
    },
    {
      "midi": 58,
      "hit": false,
      "t": 54938.87999999986,
      "d": 109.18499999999767,
      "v": 73
    },
    {
      "midi": 54,
      "hit": false,
      "t": 54938.87999999986,
      "d": 124.24499999999534,
      "v": 69
    },
    {
      "midi": 63,
      "hit": false,
      "t": 54938.87999999986,
      "d": 131.77499999999418,
      "v": 81
    },
    {
      "midi": 46,
      "hit": false,
      "t": 55300.319999999854,
      "d": 338.84999999999854,
      "v": 77
    },
    {
      "midi": 56,
      "hit": false,
      "t": 55661.75999999985,
      "d": 131.77500000000146,
      "v": 65
    },
    {
      "midi": 61,
      "hit": false,
      "t": 55661.75999999985,
      "d": 139.3050000000003,
      "v": 81
    },
    {
      "midi": 53,
      "hit": false,
      "t": 55661.75999999985,
      "d": 169.4250000000029,
      "v": 61
    },
    {
      "midi": 39,
      "hit": false,
      "t": 56023.19999999985,
      "d": 207.0749999999971,
      "v": 85
    },
    {
      "midi": 58,
      "hit": false,
      "t": 56264.15999999985,
      "d": 60.23999999999796,
      "v": 65
    },
    {
      "midi": 54,
      "hit": false,
      "t": 56264.15999999985,
      "d": 67.7699999999968,
      "v": 77
    },
    {
      "midi": 63,
      "hit": false,
      "t": 56264.15999999985,
      "d": 71.53499999999622,
      "v": 85
    },
    {
      "midi": 39,
      "hit": false,
      "t": 56625.599999999846,
      "d": 105.41999999999825,
      "v": 73
    },
    {
      "midi": 58,
      "hit": false,
      "t": 56746.07999999984,
      "d": 109.18499999999767,
      "v": 73
    },
    {
      "midi": 63,
      "hit": false,
      "t": 56746.07999999984,
      "d": 120.47999999999593,
      "v": 81
    },
    {
      "midi": 54,
      "hit": false,
      "t": 56746.07999999984,
      "d": 146.83499999999913,
      "v": 73
    },
    {
      "midi": 46,
      "hit": false,
      "t": 57107.519999999844,
      "d": 342.61499999999796,
      "v": 77
    },
    {
      "midi": 56,
      "hit": false,
      "t": 57468.95999999984,
      "d": 124.24500000000262,
      "v": 65
    },
    {
      "midi": 61,
      "hit": false,
      "t": 57468.95999999984,
      "d": 135.54000000000087,
      "v": 85
    },
    {
      "midi": 53,
      "hit": false,
      "t": 57468.95999999984,
      "d": 146.83499999999913,
      "v": 73
    },
    {
      "midi": 39,
      "hit": false,
      "t": 57830.39999999984,
      "d": 214.6050000000032,
      "v": 69
    },
    {
      "midi": 58,
      "hit": false,
      "t": 58071.35999999985,
      "d": 56.474999999998545,
      "v": 69
    },
    {
      "midi": 54,
      "hit": false,
      "t": 58071.35999999985,
      "d": 67.7699999999968,
      "v": 65
    },
    {
      "midi": 63,
      "hit": false,
      "t": 58071.35999999985,
      "d": 71.53499999999622,
      "v": 77
    },
    {
      "midi": 39,
      "hit": false,
      "t": 58432.79999999984,
      "d": 71.53500000000349,
      "v": 65
    },
    {
      "midi": 58,
      "hit": false,
      "t": 58553.279999999846,
      "d": 105.41999999999825,
      "v": 65
    },
    {
      "midi": 63,
      "hit": false,
      "t": 58553.279999999846,
      "d": 109.18499999999767,
      "v": 77
    },
    {
      "midi": 54,
      "hit": false,
      "t": 58553.279999999846,
      "d": 139.3050000000003,
      "v": 61
    },
    {
      "midi": 46,
      "hit": false,
      "t": 58914.71999999985,
      "d": 323.7900000000009,
      "v": 65
    },
    {
      "midi": 56,
      "hit": false,
      "t": 59276.15999999985,
      "d": 135.54000000000087,
      "v": 56
    },
    {
      "midi": 61,
      "hit": false,
      "t": 59276.15999999985,
      "d": 139.3050000000003,
      "v": 77
    },
    {
      "midi": 53,
      "hit": false,
      "t": 59276.15999999985,
      "d": 150.59999999999854,
      "v": 61
    },
    {
      "midi": 39,
      "hit": false,
      "t": 59637.599999999846,
      "d": 165.6600000000035,
      "v": 85
    },
    {
      "midi": 58,
      "hit": false,
      "t": 59878.55999999985,
      "d": 71.53500000000349,
      "v": 61
    },
    {
      "midi": 63,
      "hit": false,
      "t": 59878.55999999985,
      "d": 75.30000000000291,
      "v": 77
    },
    {
      "midi": 54,
      "hit": false,
      "t": 59878.55999999985,
      "d": 79.06500000000233,
      "v": 69
    },
    {
      "midi": 39,
      "hit": false,
      "t": 60239.999999999854,
      "d": 105.41999999999825,
      "v": 73
    },
    {
      "midi": 58,
      "hit": false,
      "t": 60360.47999999985,
      "d": 90.36000000000058,
      "v": 65
    },
    {
      "midi": 63,
      "hit": false,
      "t": 60360.47999999985,
      "d": 90.36000000000058,
      "v": 81
    },
    {
      "midi": 54,
      "hit": false,
      "t": 60360.47999999985,
      "d": 105.41999999999825,
      "v": 77
    },
    {
      "midi": 46,
      "hit": false,
      "t": 60721.919999999845,
      "d": 342.61499999999796,
      "v": 77
    },
    {
      "midi": 56,
      "hit": false,
      "t": 61083.35999999984,
      "d": 109.18499999999767,
      "v": 73
    },
    {
      "midi": 61,
      "hit": false,
      "t": 61083.35999999984,
      "d": 120.47999999999593,
      "v": 81
    },
    {
      "midi": 53,
      "hit": false,
      "t": 61083.35999999984,
      "d": 128.00999999999476,
      "v": 69
    },
    {
      "midi": 39,
      "hit": false,
      "t": 61444.799999999836,
      "d": 203.30999999999767,
      "v": 81
    },
    {
      "midi": 58,
      "hit": false,
      "t": 61685.759999999835,
      "d": 67.7699999999968,
      "v": 69
    },
    {
      "midi": 54,
      "hit": false,
      "t": 61685.759999999835,
      "d": 79.06499999999505,
      "v": 77
    },
    {
      "midi": 63,
      "hit": false,
      "t": 61685.759999999835,
      "d": 79.06499999999505,
      "v": 81
    },
    {
      "midi": 39,
      "hit": false,
      "t": 62047.19999999983,
      "d": 97.88999999999942,
      "v": 77
    },
    {
      "midi": 58,
      "hit": false,
      "t": 62167.679999999826,
      "d": 90.36000000000058,
      "v": 65
    },
    {
      "midi": 63,
      "hit": false,
      "t": 62167.679999999826,
      "d": 105.41999999999825,
      "v": 85
    },
    {
      "midi": 54,
      "hit": false,
      "t": 62167.679999999826,
      "d": 109.18499999999767,
      "v": 69
    },
    {
      "midi": 46,
      "hit": false,
      "t": 62529.11999999982,
      "d": 316.26000000000204,
      "v": 77
    },
    {
      "midi": 56,
      "hit": false,
      "t": 62890.55999999982,
      "d": 94.125,
      "v": 81
    },
    {
      "midi": 61,
      "hit": false,
      "t": 62890.55999999982,
      "d": 116.71499999999651,
      "v": 85
    },
    {
      "midi": 53,
      "hit": false,
      "t": 62890.55999999982,
      "d": 131.77499999999418,
      "v": 81
    },
    {
      "midi": 39,
      "hit": false,
      "t": 63251.99999999982,
      "d": 176.95500000000175,
      "v": 81
    },
    {
      "midi": 58,
      "hit": false,
      "t": 63492.95999999982,
      "d": 60.23999999999796,
      "v": 65
    },
    {
      "midi": 54,
      "hit": false,
      "t": 63492.95999999982,
      "d": 71.53499999999622,
      "v": 77
    },
    {
      "midi": 63,
      "hit": false,
      "t": 63492.95999999982,
      "d": 75.29999999999563,
      "v": 81
    },
    {
      "midi": 39,
      "hit": false,
      "t": 63854.39999999981,
      "d": 112.94999999999709,
      "v": 73
    },
    {
      "midi": 58,
      "hit": false,
      "t": 63974.87999999981,
      "d": 82.83000000000175,
      "v": 69
    },
    {
      "midi": 63,
      "hit": false,
      "t": 63974.87999999981,
      "d": 94.125,
      "v": 85
    },
    {
      "midi": 54,
      "hit": false,
      "t": 63974.87999999981,
      "d": 109.18499999999767,
      "v": 61
    },
    {
      "midi": 46,
      "hit": false,
      "t": 64336.3199999998,
      "d": 335.0849999999991,
      "v": 77
    },
    {
      "midi": 56,
      "hit": false,
      "t": 64697.759999999806,
      "d": 139.3050000000003,
      "v": 77
    },
    {
      "midi": 61,
      "hit": false,
      "t": 64697.759999999806,
      "d": 169.4250000000029,
      "v": 85
    },
    {
      "midi": 53,
      "hit": false,
      "t": 64697.759999999806,
      "d": 184.48500000000058,
      "v": 77
    },
    {
      "midi": 39,
      "hit": false,
      "t": 65059.19999999981,
      "d": 210.8399999999965,
      "v": 77
    },
    {
      "midi": 58,
      "hit": false,
      "t": 65300.15999999981,
      "d": 79.06500000000233,
      "v": 73
    },
    {
      "midi": 63,
      "hit": false,
      "t": 65300.15999999981,
      "d": 79.06500000000233,
      "v": 73
    },
    {
      "midi": 54,
      "hit": false,
      "t": 65300.15999999981,
      "d": 86.59500000000116,
      "v": 73
    },
    {
      "midi": 39,
      "hit": false,
      "t": 65661.5999999998,
      "d": 90.36000000000058,
      "v": 77
    },
    {
      "midi": 58,
      "hit": false,
      "t": 65782.0799999998,
      "d": 90.36000000000058,
      "v": 77
    },
    {
      "midi": 63,
      "hit": false,
      "t": 65782.0799999998,
      "d": 90.36000000000058,
      "v": 77
    },
    {
      "midi": 54,
      "hit": false,
      "t": 65782.0799999998,
      "d": 105.41999999999825,
      "v": 73
    },
    {
      "midi": 46,
      "hit": false,
      "t": 66143.5199999998,
      "d": 365.20500000000175,
      "v": 73
    },
    {
      "midi": 56,
      "hit": false,
      "t": 66504.9599999998,
      "d": 124.24499999999534,
      "v": 81
    },
    {
      "midi": 61,
      "hit": false,
      "t": 66504.9599999998,
      "d": 135.5399999999936,
      "v": 81
    },
    {
      "midi": 53,
      "hit": false,
      "t": 66504.9599999998,
      "d": 150.59999999999127,
      "v": 77
    },
    {
      "midi": 39,
      "hit": false,
      "t": 66866.39999999979,
      "d": 210.8399999999965,
      "v": 77
    },
    {
      "midi": 58,
      "hit": false,
      "t": 67107.35999999978,
      "d": 75.30000000000291,
      "v": 65
    },
    {
      "midi": 54,
      "hit": false,
      "t": 67107.35999999978,
      "d": 79.06500000000233,
      "v": 65
    },
    {
      "midi": 63,
      "hit": false,
      "t": 67107.35999999978,
      "d": 82.83000000000175,
      "v": 73
    },
    {
      "midi": 39,
      "hit": false,
      "t": 67468.79999999978,
      "d": 90.36000000000058,
      "v": 77
    },
    {
      "midi": 58,
      "hit": false,
      "t": 67589.27999999978,
      "d": 101.65499999999884,
      "v": 73
    },
    {
      "midi": 54,
      "hit": false,
      "t": 67589.27999999978,
      "d": 124.24499999999534,
      "v": 65
    },
    {
      "midi": 63,
      "hit": false,
      "t": 67589.27999999978,
      "d": 128.00999999999476,
      "v": 77
    },
    {
      "midi": 46,
      "hit": false,
      "t": 67950.71999999977,
      "d": 346.38000000000466,
      "v": 77
    },
    {
      "midi": 56,
      "hit": false,
      "t": 68312.15999999977,
      "d": 192.01499999999942,
      "v": 73
    },
    {
      "midi": 53,
      "hit": false,
      "t": 68312.15999999977,
      "d": 229.6649999999936,
      "v": 57
    },
    {
      "midi": 61,
      "hit": false,
      "t": 68312.15999999977,
      "d": 244.72499999999127,
      "v": 81
    },
    {
      "midi": 39,
      "hit": false,
      "t": 68673.59999999976,
      "d": 218.36999999999534,
      "v": 77
    },
    {
      "midi": 63,
      "hit": false,
      "t": 68914.55999999975,
      "d": 60.24000000000524,
      "v": 77
    },
    {
      "midi": 54,
      "hit": false,
      "t": 68914.55999999975,
      "d": 67.77000000000407,
      "v": 73
    },
    {
      "midi": 58,
      "hit": false,
      "t": 68914.55999999975,
      "d": 67.77000000000407,
      "v": 73
    },
    {
      "midi": 39,
      "hit": false,
      "t": 69275.99999999975,
      "d": 90.36000000000058,
      "v": 81
    },
    {
      "midi": 58,
      "hit": false,
      "t": 69396.47999999975,
      "d": 109.18499999999767,
      "v": 73
    },
    {
      "midi": 54,
      "hit": false,
      "t": 69396.47999999975,
      "d": 124.24499999999534,
      "v": 69
    },
    {
      "midi": 63,
      "hit": false,
      "t": 69396.47999999975,
      "d": 131.77499999999418,
      "v": 81
    },
    {
      "midi": 46,
      "hit": false,
      "t": 69757.91999999974,
      "d": 338.8500000000058,
      "v": 77
    },
    {
      "midi": 56,
      "hit": false,
      "t": 70119.35999999974,
      "d": 131.77499999999418,
      "v": 65
    },
    {
      "midi": 61,
      "hit": false,
      "t": 70119.35999999974,
      "d": 139.30499999999302,
      "v": 81
    },
    {
      "midi": 53,
      "hit": false,
      "t": 70119.35999999974,
      "d": 169.42499999998836,
      "v": 61
    },
    {
      "midi": 39,
      "hit": false,
      "t": 70480.79999999973,
      "d": 207.0749999999971,
      "v": 85
    },
    {
      "midi": 58,
      "hit": false,
      "t": 70721.75999999972,
      "d": 60.24000000000524,
      "v": 65
    },
    {
      "midi": 54,
      "hit": false,
      "t": 70721.75999999972,
      "d": 67.77000000000407,
      "v": 77
    },
    {
      "midi": 63,
      "hit": false,
      "t": 70721.75999999972,
      "d": 71.53500000000349,
      "v": 85
    },
    {
      "midi": 39,
      "hit": false,
      "t": 71083.19999999972,
      "d": 105.41999999999825,
      "v": 73
    },
    {
      "midi": 58,
      "hit": false,
      "t": 71203.67999999972,
      "d": 109.18499999999767,
      "v": 73
    },
    {
      "midi": 63,
      "hit": false,
      "t": 71203.67999999972,
      "d": 120.47999999999593,
      "v": 81
    },
    {
      "midi": 54,
      "hit": false,
      "t": 71203.67999999972,
      "d": 146.83499999999185,
      "v": 73
    },
    {
      "midi": 46,
      "hit": false,
      "t": 71565.1199999997,
      "d": 342.61500000000524,
      "v": 77
    },
    {
      "midi": 56,
      "hit": false,
      "t": 71926.5599999997,
      "d": 124.24499999999534,
      "v": 65
    },
    {
      "midi": 61,
      "hit": false,
      "t": 71926.5599999997,
      "d": 135.5399999999936,
      "v": 85
    },
    {
      "midi": 53,
      "hit": false,
      "t": 71926.5599999997,
      "d": 146.83499999999185,
      "v": 73
    },
    {
      "midi": 39,
      "hit": false,
      "t": 72287.9999999997,
      "d": 214.60499999999593,
      "v": 69
    },
    {
      "midi": 58,
      "hit": false,
      "t": 72528.95999999969,
      "d": 56.47500000000582,
      "v": 69
    },
    {
      "midi": 54,
      "hit": false,
      "t": 72528.95999999969,
      "d": 67.77000000000407,
      "v": 65
    },
    {
      "midi": 63,
      "hit": false,
      "t": 72528.95999999969,
      "d": 71.53500000000349,
      "v": 77
    },
    {
      "midi": 39,
      "hit": false,
      "t": 72890.39999999969,
      "d": 71.53500000000349,
      "v": 65
    },
    {
      "midi": 58,
      "hit": false,
      "t": 73010.8799999997,
      "d": 105.41999999999825,
      "v": 65
    },
    {
      "midi": 63,
      "hit": false,
      "t": 73010.8799999997,
      "d": 109.18499999999767,
      "v": 77
    },
    {
      "midi": 54,
      "hit": false,
      "t": 73010.8799999997,
      "d": 139.30499999999302,
      "v": 61
    },
    {
      "midi": 46,
      "hit": false,
      "t": 73372.31999999969,
      "d": 323.7899999999936,
      "v": 65
    },
    {
      "midi": 56,
      "hit": false,
      "t": 73733.75999999967,
      "d": 135.5399999999936,
      "v": 56
    },
    {
      "midi": 61,
      "hit": false,
      "t": 73733.75999999967,
      "d": 139.30499999999302,
      "v": 77
    },
    {
      "midi": 53,
      "hit": false,
      "t": 73733.75999999967,
      "d": 150.59999999999127,
      "v": 61
    },
    {
      "midi": 39,
      "hit": false,
      "t": 74095.19999999966,
      "d": 165.6600000000035,
      "v": 85
    },
    {
      "midi": 58,
      "hit": false,
      "t": 74336.15999999967,
      "d": 71.53500000000349,
      "v": 61
    },
    {
      "midi": 63,
      "hit": false,
      "t": 74336.15999999967,
      "d": 75.30000000000291,
      "v": 77
    },
    {
      "midi": 54,
      "hit": false,
      "t": 74336.15999999967,
      "d": 79.06500000000233,
      "v": 69
    },
    {
      "midi": 39,
      "hit": false,
      "t": 74697.59999999967,
      "d": 105.41999999999825,
      "v": 73
    },
    {
      "midi": 58,
      "hit": false,
      "t": 74818.07999999967,
      "d": 90.36000000000058,
      "v": 65
    },
    {
      "midi": 63,
      "hit": false,
      "t": 74818.07999999967,
      "d": 90.36000000000058,
      "v": 81
    },
    {
      "midi": 54,
      "hit": false,
      "t": 74818.07999999967,
      "d": 105.41999999999825,
      "v": 77
    },
    {
      "midi": 46,
      "hit": false,
      "t": 75179.51999999967,
      "d": 342.61500000000524,
      "v": 77
    },
    {
      "midi": 56,
      "hit": false,
      "t": 75540.95999999967,
      "d": 109.18499999999767,
      "v": 73
    },
    {
      "midi": 61,
      "hit": false,
      "t": 75540.95999999967,
      "d": 120.47999999999593,
      "v": 81
    },
    {
      "midi": 53,
      "hit": false,
      "t": 75540.95999999967,
      "d": 128.00999999999476,
      "v": 69
    },
    {
      "midi": 39,
      "hit": false,
      "t": 75902.39999999966,
      "d": 203.30999999999767,
      "v": 81
    },
    {
      "midi": 58,
      "hit": false,
      "t": 76143.35999999965,
      "d": 67.77000000000407,
      "v": 69
    },
    {
      "midi": 54,
      "hit": false,
      "t": 76143.35999999965,
      "d": 79.06500000000233,
      "v": 77
    },
    {
      "midi": 63,
      "hit": false,
      "t": 76143.35999999965,
      "d": 79.06500000000233,
      "v": 81
    },
    {
      "midi": 39,
      "hit": false,
      "t": 76504.79999999965,
      "d": 97.88999999999942,
      "v": 77
    },
    {
      "midi": 58,
      "hit": false,
      "t": 76625.27999999965,
      "d": 90.36000000000058,
      "v": 65
    },
    {
      "midi": 63,
      "hit": false,
      "t": 76625.27999999965,
      "d": 105.41999999999825,
      "v": 85
    },
    {
      "midi": 54,
      "hit": false,
      "t": 76625.27999999965,
      "d": 109.18499999999767,
      "v": 69
    },
    {
      "midi": 46,
      "hit": false,
      "t": 76986.71999999965,
      "d": 316.25999999999476,
      "v": 77
    },
    {
      "midi": 56,
      "hit": false,
      "t": 77348.15999999964,
      "d": 94.125,
      "v": 81
    },
    {
      "midi": 61,
      "hit": false,
      "t": 77348.15999999964,
      "d": 116.71499999999651,
      "v": 85
    },
    {
      "midi": 53,
      "hit": false,
      "t": 77348.15999999964,
      "d": 131.77499999999418,
      "v": 81
    },
    {
      "midi": 39,
      "hit": false,
      "t": 77709.59999999963,
      "d": 176.95500000000175,
      "v": 81
    },
    {
      "midi": 58,
      "hit": false,
      "t": 77950.55999999963,
      "d": 60.24000000000524,
      "v": 65
    },
    {
      "midi": 54,
      "hit": false,
      "t": 77950.55999999963,
      "d": 71.53500000000349,
      "v": 77
    },
    {
      "midi": 63,
      "hit": false,
      "t": 77950.55999999963,
      "d": 75.30000000000291,
      "v": 81
    },
    {
      "midi": 39,
      "hit": false,
      "t": 78311.99999999964,
      "d": 112.94999999999709,
      "v": 73
    },
    {
      "midi": 58,
      "hit": false,
      "t": 78432.47999999963,
      "d": 82.83000000000175,
      "v": 69
    },
    {
      "midi": 63,
      "hit": false,
      "t": 78432.47999999963,
      "d": 94.125,
      "v": 85
    },
    {
      "midi": 54,
      "hit": false,
      "t": 78432.47999999963,
      "d": 109.18499999999767,
      "v": 61
    },
    {
      "midi": 46,
      "hit": false,
      "t": 78793.91999999963,
      "d": 335.0850000000064,
      "v": 77
    },
    {
      "midi": 56,
      "hit": false,
      "t": 79155.35999999964,
      "d": 139.30499999999302,
      "v": 77
    },
    {
      "midi": 61,
      "hit": false,
      "t": 79155.35999999964,
      "d": 169.42499999998836,
      "v": 85
    },
    {
      "midi": 53,
      "hit": false,
      "t": 79155.35999999964,
      "d": 184.48499999998603,
      "v": 77
    },
    {
      "midi": 39,
      "hit": false,
      "t": 79516.79999999962,
      "d": 210.8399999999965,
      "v": 77
    },
    {
      "midi": 58,
      "hit": false,
      "t": 79757.75999999962,
      "d": 79.06500000000233,
      "v": 73
    },
    {
      "midi": 63,
      "hit": false,
      "t": 79757.75999999962,
      "d": 79.06500000000233,
      "v": 73
    },
    {
      "midi": 54,
      "hit": false,
      "t": 79757.75999999962,
      "d": 86.59500000000116,
      "v": 73
    },
    {
      "midi": 39,
      "hit": false,
      "t": 80119.19999999962,
      "d": 90.36000000000058,
      "v": 77
    },
    {
      "midi": 58,
      "hit": false,
      "t": 80239.67999999961,
      "d": 90.36000000000058,
      "v": 77
    },
    {
      "midi": 63,
      "hit": false,
      "t": 80239.67999999961,
      "d": 90.36000000000058,
      "v": 77
    },
    {
      "midi": 54,
      "hit": false,
      "t": 80239.67999999961,
      "d": 105.41999999999825,
      "v": 73
    },
    {
      "midi": 46,
      "hit": false,
      "t": 80601.11999999962,
      "d": 365.20500000000175,
      "v": 73
    },
    {
      "midi": 56,
      "hit": false,
      "t": 80962.55999999962,
      "d": 124.24499999999534,
      "v": 81
    },
    {
      "midi": 61,
      "hit": false,
      "t": 80962.55999999962,
      "d": 135.5399999999936,
      "v": 81
    },
    {
      "midi": 53,
      "hit": false,
      "t": 80962.55999999962,
      "d": 150.59999999999127,
      "v": 77
    },
    {
      "midi": 39,
      "hit": false,
      "t": 81323.9999999996,
      "d": 210.8399999999965,
      "v": 77
    },
    {
      "midi": 58,
      "hit": false,
      "t": 81564.9599999996,
      "d": 75.30000000000291,
      "v": 65
    },
    {
      "midi": 54,
      "hit": false,
      "t": 81564.9599999996,
      "d": 79.06500000000233,
      "v": 65
    },
    {
      "midi": 63,
      "hit": false,
      "t": 81564.9599999996,
      "d": 82.83000000000175,
      "v": 73
    },
    {
      "midi": 39,
      "hit": false,
      "t": 81926.3999999996,
      "d": 90.36000000000058,
      "v": 77
    },
    {
      "midi": 58,
      "hit": false,
      "t": 82046.8799999996,
      "d": 101.65499999999884,
      "v": 73
    },
    {
      "midi": 54,
      "hit": false,
      "t": 82046.8799999996,
      "d": 124.24499999999534,
      "v": 65
    },
    {
      "midi": 63,
      "hit": false,
      "t": 82046.8799999996,
      "d": 128.00999999999476,
      "v": 77
    },
    {
      "midi": 46,
      "hit": false,
      "t": 82408.31999999958,
      "d": 346.38000000000466,
      "v": 77
    },
    {
      "midi": 56,
      "hit": false,
      "t": 82769.75999999959,
      "d": 192.01499999999942,
      "v": 73
    },
    {
      "midi": 53,
      "hit": false,
      "t": 82769.75999999959,
      "d": 229.6649999999936,
      "v": 57
    },
    {
      "midi": 61,
      "hit": false,
      "t": 82769.75999999959,
      "d": 244.72499999999127,
      "v": 81
    },
    {
      "midi": 39,
      "hit": false,
      "t": 83131.19999999958,
      "d": 218.36999999999534,
      "v": 77
    },
    {
      "midi": 63,
      "hit": false,
      "t": 83372.15999999957,
      "d": 60.24000000000524,
      "v": 77
    },
    {
      "midi": 54,
      "hit": false,
      "t": 83372.15999999957,
      "d": 67.77000000000407,
      "v": 73
    },
    {
      "midi": 58,
      "hit": false,
      "t": 83372.15999999957,
      "d": 67.77000000000407,
      "v": 73
    },
    {
      "midi": 39,
      "hit": false,
      "t": 83733.59999999957,
      "d": 90.36000000000058,
      "v": 81
    },
    {
      "midi": 58,
      "hit": false,
      "t": 83854.07999999957,
      "d": 109.18499999999767,
      "v": 73
    },
    {
      "midi": 54,
      "hit": false,
      "t": 83854.07999999957,
      "d": 124.24499999999534,
      "v": 69
    },
    {
      "midi": 63,
      "hit": false,
      "t": 83854.07999999957,
      "d": 131.77499999999418,
      "v": 81
    },
    {
      "midi": 46,
      "hit": false,
      "t": 84215.51999999955,
      "d": 338.8500000000058,
      "v": 77
    },
    {
      "midi": 56,
      "hit": false,
      "t": 84576.95999999956,
      "d": 131.77499999999418,
      "v": 65
    },
    {
      "midi": 61,
      "hit": false,
      "t": 84576.95999999956,
      "d": 139.30499999999302,
      "v": 81
    },
    {
      "midi": 53,
      "hit": false,
      "t": 84576.95999999956,
      "d": 169.42499999998836,
      "v": 61
    },
    {
      "midi": 39,
      "hit": false,
      "t": 84938.39999999954,
      "d": 207.0749999999971,
      "v": 85
    },
    {
      "midi": 58,
      "hit": false,
      "t": 85179.35999999953,
      "d": 60.24000000000524,
      "v": 65
    },
    {
      "midi": 54,
      "hit": false,
      "t": 85179.35999999953,
      "d": 67.77000000000407,
      "v": 77
    },
    {
      "midi": 63,
      "hit": false,
      "t": 85179.35999999953,
      "d": 71.53500000000349,
      "v": 85
    },
    {
      "midi": 39,
      "hit": false,
      "t": 85540.79999999954,
      "d": 105.41999999999825,
      "v": 73
    },
    {
      "midi": 58,
      "hit": false,
      "t": 85661.27999999953,
      "d": 109.18499999999767,
      "v": 73
    },
    {
      "midi": 63,
      "hit": false,
      "t": 85661.27999999953,
      "d": 120.47999999999593,
      "v": 81
    },
    {
      "midi": 54,
      "hit": false,
      "t": 85661.27999999953,
      "d": 146.83499999999185,
      "v": 73
    },
    {
      "midi": 46,
      "hit": false,
      "t": 86022.71999999952,
      "d": 342.61500000000524,
      "v": 77
    },
    {
      "midi": 56,
      "hit": false,
      "t": 86384.15999999952,
      "d": 124.24499999999534,
      "v": 65
    },
    {
      "midi": 61,
      "hit": false,
      "t": 86384.15999999952,
      "d": 135.5399999999936,
      "v": 85
    },
    {
      "midi": 53,
      "hit": false,
      "t": 86384.15999999952,
      "d": 146.83499999999185,
      "v": 73
    },
    {
      "midi": 39,
      "hit": false,
      "t": 86745.59999999951,
      "d": 214.60499999999593,
      "v": 69
    },
    {
      "midi": 58,
      "hit": false,
      "t": 86986.5599999995,
      "d": 56.47500000000582,
      "v": 69
    },
    {
      "midi": 54,
      "hit": false,
      "t": 86986.5599999995,
      "d": 67.77000000000407,
      "v": 65
    },
    {
      "midi": 63,
      "hit": false,
      "t": 86986.5599999995,
      "d": 71.53500000000349,
      "v": 77
    },
    {
      "midi": 39,
      "hit": false,
      "t": 87347.9999999995,
      "d": 71.53500000000349,
      "v": 65
    },
    {
      "midi": 58,
      "hit": false,
      "t": 87468.47999999952,
      "d": 105.41999999999825,
      "v": 65
    },
    {
      "midi": 63,
      "hit": false,
      "t": 87468.47999999952,
      "d": 109.18499999999767,
      "v": 77
    },
    {
      "midi": 54,
      "hit": false,
      "t": 87468.47999999952,
      "d": 139.30499999999302,
      "v": 61
    },
    {
      "midi": 46,
      "hit": false,
      "t": 87829.9199999995,
      "d": 323.7899999999936,
      "v": 65
    },
    {
      "midi": 56,
      "hit": false,
      "t": 88191.35999999949,
      "d": 135.5399999999936,
      "v": 56
    },
    {
      "midi": 61,
      "hit": false,
      "t": 88191.35999999949,
      "d": 139.30499999999302,
      "v": 77
    },
    {
      "midi": 53,
      "hit": false,
      "t": 88191.35999999949,
      "d": 150.59999999999127,
      "v": 61
    },
    {
      "midi": 39,
      "hit": false,
      "t": 88552.79999999948,
      "d": 165.6600000000035,
      "v": 85
    },
    {
      "midi": 58,
      "hit": false,
      "t": 88793.75999999949,
      "d": 71.53500000000349,
      "v": 61
    },
    {
      "midi": 63,
      "hit": false,
      "t": 88793.75999999949,
      "d": 75.30000000000291,
      "v": 77
    },
    {
      "midi": 54,
      "hit": false,
      "t": 88793.75999999949,
      "d": 79.06500000000233,
      "v": 69
    },
    {
      "midi": 39,
      "hit": false,
      "t": 89155.19999999949,
      "d": 105.41999999999825,
      "v": 73
    },
    {
      "midi": 58,
      "hit": false,
      "t": 89275.67999999948,
      "d": 90.36000000000058,
      "v": 65
    },
    {
      "midi": 63,
      "hit": false,
      "t": 89275.67999999948,
      "d": 90.36000000000058,
      "v": 81
    },
    {
      "midi": 54,
      "hit": false,
      "t": 89275.67999999948,
      "d": 105.41999999999825,
      "v": 77
    },
    {
      "midi": 46,
      "hit": false,
      "t": 89637.11999999949,
      "d": 342.61500000000524,
      "v": 77
    },
    {
      "midi": 56,
      "hit": false,
      "t": 89998.55999999949,
      "d": 109.18499999999767,
      "v": 73
    },
    {
      "midi": 61,
      "hit": false,
      "t": 89998.55999999949,
      "d": 120.47999999999593,
      "v": 81
    },
    {
      "midi": 53,
      "hit": false,
      "t": 89998.55999999949,
      "d": 128.00999999999476,
      "v": 69
    },
    {
      "midi": 39,
      "hit": false,
      "t": 90359.99999999948,
      "d": 203.30999999999767,
      "v": 81
    },
    {
      "midi": 58,
      "hit": false,
      "t": 90600.95999999947,
      "d": 67.77000000000407,
      "v": 69
    },
    {
      "midi": 54,
      "hit": false,
      "t": 90600.95999999947,
      "d": 79.06500000000233,
      "v": 77
    },
    {
      "midi": 63,
      "hit": false,
      "t": 90600.95999999947,
      "d": 79.06500000000233,
      "v": 81
    },
    {
      "midi": 39,
      "hit": false,
      "t": 90962.39999999947,
      "d": 97.88999999999942,
      "v": 77
    },
    {
      "midi": 58,
      "hit": false,
      "t": 91082.87999999947,
      "d": 90.36000000000058,
      "v": 65
    },
    {
      "midi": 63,
      "hit": false,
      "t": 91082.87999999947,
      "d": 105.41999999999825,
      "v": 85
    },
    {
      "midi": 54,
      "hit": false,
      "t": 91082.87999999947,
      "d": 109.18499999999767,
      "v": 69
    },
    {
      "midi": 46,
      "hit": false,
      "t": 91444.31999999947,
      "d": 316.25999999999476,
      "v": 77
    },
    {
      "midi": 56,
      "hit": false,
      "t": 91805.75999999946,
      "d": 94.125,
      "v": 81
    },
    {
      "midi": 61,
      "hit": false,
      "t": 91805.75999999946,
      "d": 116.71499999999651,
      "v": 85
    },
    {
      "midi": 53,
      "hit": false,
      "t": 91805.75999999946,
      "d": 131.77499999999418,
      "v": 81
    },
    {
      "midi": 39,
      "hit": false,
      "t": 92167.19999999944,
      "d": 176.95500000000175,
      "v": 81
    },
    {
      "midi": 58,
      "hit": false,
      "t": 92408.15999999945,
      "d": 60.24000000000524,
      "v": 65
    },
    {
      "midi": 54,
      "hit": false,
      "t": 92408.15999999945,
      "d": 71.53500000000349,
      "v": 77
    },
    {
      "midi": 63,
      "hit": false,
      "t": 92408.15999999945,
      "d": 75.30000000000291,
      "v": 81
    },
    {
      "midi": 39,
      "hit": false,
      "t": 92769.59999999945,
      "d": 112.94999999999709,
      "v": 73
    },
    {
      "midi": 58,
      "hit": false,
      "t": 92890.07999999945,
      "d": 82.83000000000175,
      "v": 69
    },
    {
      "midi": 63,
      "hit": false,
      "t": 92890.07999999945,
      "d": 94.125,
      "v": 85
    },
    {
      "midi": 54,
      "hit": false,
      "t": 92890.07999999945,
      "d": 109.18499999999767,
      "v": 61
    },
    {
      "midi": 46,
      "hit": false,
      "t": 93251.51999999945,
      "d": 335.0850000000064,
      "v": 77
    },
    {
      "midi": 56,
      "hit": false,
      "t": 93612.95999999945,
      "d": 139.30499999999302,
      "v": 77
    },
    {
      "midi": 61,
      "hit": false,
      "t": 93612.95999999945,
      "d": 169.42499999998836,
      "v": 85
    },
    {
      "midi": 53,
      "hit": false,
      "t": 93612.95999999945,
      "d": 184.48499999998603,
      "v": 77
    },
    {
      "midi": 39,
      "hit": false,
      "t": 93974.39999999944,
      "d": 210.8399999999965,
      "v": 77
    },
    {
      "midi": 58,
      "hit": false,
      "t": 94215.35999999943,
      "d": 79.06500000000233,
      "v": 73
    },
    {
      "midi": 63,
      "hit": false,
      "t": 94215.35999999943,
      "d": 79.06500000000233,
      "v": 73
    },
    {
      "midi": 54,
      "hit": false,
      "t": 94215.35999999943,
      "d": 86.59500000000116,
      "v": 73
    },
    {
      "midi": 39,
      "hit": false,
      "t": 94576.79999999944,
      "d": 90.36000000000058,
      "v": 77
    },
    {
      "midi": 58,
      "hit": false,
      "t": 94697.27999999943,
      "d": 90.36000000000058,
      "v": 77
    },
    {
      "midi": 63,
      "hit": false,
      "t": 94697.27999999943,
      "d": 90.36000000000058,
      "v": 77
    },
    {
      "midi": 54,
      "hit": false,
      "t": 94697.27999999943,
      "d": 105.41999999999825,
      "v": 73
    },
    {
      "midi": 46,
      "hit": false,
      "t": 95058.71999999943,
      "d": 365.20500000000175,
      "v": 73
    },
    {
      "midi": 56,
      "hit": false,
      "t": 95420.15999999944,
      "d": 124.24499999999534,
      "v": 81
    },
    {
      "midi": 61,
      "hit": false,
      "t": 95420.15999999944,
      "d": 135.5399999999936,
      "v": 81
    },
    {
      "midi": 53,
      "hit": false,
      "t": 95420.15999999944,
      "d": 150.59999999999127,
      "v": 77
    },
    {
      "midi": 39,
      "hit": false,
      "t": 95781.59999999942,
      "d": 222.13499999999476,
      "v": 98
    },
    {
      "midi": 58,
      "hit": false,
      "t": 96022.55999999942,
      "d": 79.06500000000233,
      "v": 81
    },
    {
      "midi": 54,
      "hit": false,
      "t": 96022.55999999942,
      "d": 86.59500000000116,
      "v": 89
    },
    {
      "midi": 63,
      "hit": false,
      "t": 96022.55999999942,
      "d": 90.36000000000058,
      "v": 85
    },
    {
      "midi": 39,
      "hit": false,
      "t": 96383.99999999942,
      "d": 86.59500000000116,
      "v": 85
    },
    {
      "midi": 58,
      "hit": false,
      "t": 96504.47999999941,
      "d": 150.60000000000582,
      "v": 85
    },
    {
      "midi": 63,
      "hit": false,
      "t": 96504.47999999941,
      "d": 158.13000000000466,
      "v": 89
    },
    {
      "midi": 54,
      "hit": false,
      "t": 96504.47999999941,
      "d": 176.95500000000175,
      "v": 81
    },
    {
      "midi": 46,
      "hit": false,
      "t": 96865.91999999942,
      "d": 357.6750000000029,
      "v": 107
    },
    {
      "midi": 56,
      "hit": false,
      "t": 97227.35999999942,
      "d": 263.5500000000029,
      "v": 89
    },
    {
      "midi": 53,
      "hit": false,
      "t": 97227.35999999942,
      "d": 282.375,
      "v": 85
    },
    {
      "midi": 61,
      "hit": false,
      "t": 97227.35999999942,
      "d": 286.1399999999994,
      "v": 89
    },
    {
      "midi": 39,
      "hit": false,
      "t": 97588.79999999942,
      "d": 222.13499999999476,
      "v": 89
    },
    {
      "midi": 54,
      "hit": false,
      "t": 97829.75999999941,
      "d": 71.53500000000349,
      "v": 89
    },
    {
      "midi": 63,
      "hit": false,
      "t": 97829.75999999941,
      "d": 79.06500000000233,
      "v": 85
    },
    {
      "midi": 58,
      "hit": false,
      "t": 97829.75999999941,
      "d": 82.83000000000175,
      "v": 89
    },
    {
      "midi": 39,
      "hit": false,
      "t": 98191.19999999942,
      "d": 112.94999999999709,
      "v": 89
    },
    {
      "midi": 58,
      "hit": false,
      "t": 98311.67999999941,
      "d": 150.60000000000582,
      "v": 81
    },
    {
      "midi": 54,
      "hit": false,
      "t": 98311.67999999941,
      "d": 154.36500000000524,
      "v": 73
    },
    {
      "midi": 63,
      "hit": false,
      "t": 98311.67999999941,
      "d": 158.13000000000466,
      "v": 89
    },
    {
      "midi": 46,
      "hit": false,
      "t": 98673.11999999941,
      "d": 361.4400000000023,
      "v": 98
    },
    {
      "midi": 61,
      "hit": false,
      "t": 99034.55999999942,
      "d": 180.72000000000116,
      "v": 89
    },
    {
      "midi": 56,
      "hit": false,
      "t": 99034.55999999942,
      "d": 184.48500000000058,
      "v": 98
    },
    {
      "midi": 53,
      "hit": false,
      "t": 99034.55999999942,
      "d": 195.77999999999884,
      "v": 89
    },
    {
      "midi": 39,
      "hit": false,
      "t": 99411.05999999942,
      "d": 154.36500000000524,
      "v": 85
    },
    {
      "midi": 54,
      "hit": false,
      "t": 99640.72499999942,
      "d": 60.24000000000524,
      "v": 73
    },
    {
      "midi": 58,
      "hit": false,
      "t": 99644.48999999942,
      "d": 52.7100000000064,
      "v": 65
    },
    {
      "midi": 63,
      "hit": false,
      "t": 99644.48999999942,
      "d": 60.24000000000524,
      "v": 81
    },
    {
      "midi": 39,
      "hit": false,
      "t": 99987.10499999943,
      "d": 79.06500000000233,
      "v": 81
    },
    {
      "midi": 58,
      "hit": false,
      "t": 100137.70499999943,
      "d": 82.83000000000175,
      "v": 69
    },
    {
      "midi": 54,
      "hit": false,
      "t": 100141.46999999943,
      "d": 86.59500000000116,
      "v": 65
    },
    {
      "midi": 63,
      "hit": false,
      "t": 100141.46999999943,
      "d": 86.59500000000116,
      "v": 73
    },
    {
      "midi": 46,
      "hit": false,
      "t": 100487.84999999944,
      "d": 289.90499999999884,
      "v": 77
    },
    {
      "midi": 53,
      "hit": false,
      "t": 100830.46499999944,
      "d": 199.54499999999825,
      "v": 73
    },
    {
      "midi": 61,
      "hit": false,
      "t": 100830.46499999944,
      "d": 207.0749999999971,
      "v": 81
    },
    {
      "midi": 56,
      "hit": false,
      "t": 100834.22999999944,
      "d": 165.6600000000035,
      "v": 69
    },
    {
      "midi": 39,
      "hit": false,
      "t": 101169.31499999943,
      "d": 184.48500000000058,
      "v": 85
    },
    {
      "midi": 54,
      "hit": false,
      "t": 101402.74499999944,
      "d": 71.53500000000349,
      "v": 77
    },
    {
      "midi": 63,
      "hit": false,
      "t": 101406.50999999944,
      "d": 64.00500000000466,
      "v": 81
    },
    {
      "midi": 58,
      "hit": false,
      "t": 101406.50999999944,
      "d": 67.77000000000407,
      "v": 81
    },
    {
      "midi": 39,
      "hit": false,
      "t": 101775.47999999944,
      "d": 67.77000000000407,
      "v": 81
    },
    {
      "midi": 58,
      "hit": false,
      "t": 101918.54999999945,
      "d": 90.36000000000058,
      "v": 77
    },
    {
      "midi": 63,
      "hit": false,
      "t": 101922.31499999945,
      "d": 97.88999999999942,
      "v": 81
    },
    {
      "midi": 54,
      "hit": false,
      "t": 101922.31499999945,
      "d": 101.65499999999884,
      "v": 73
    },
    {
      "midi": 46,
      "hit": false,
      "t": 102306.34499999945,
      "d": 323.7899999999936,
      "v": 73
    },
    {
      "midi": 56,
      "hit": false,
      "t": 102656.48999999944,
      "d": 139.30499999999302,
      "v": 73
    },
    {
      "midi": 61,
      "hit": false,
      "t": 102656.48999999944,
      "d": 176.9549999999872,
      "v": 81
    },
    {
      "midi": 53,
      "hit": false,
      "t": 102660.25499999944,
      "d": 161.89499999998952,
      "v": 69
    },
    {
      "midi": 39,
      "hit": false,
      "t": 102999.10499999943,
      "d": 199.54499999999825,
      "v": 81
    },
    {
      "midi": 54,
      "hit": false,
      "t": 103217.47499999942,
      "d": 67.77000000000407,
      "v": 65
    },
    {
      "midi": 63,
      "hit": false,
      "t": 103217.47499999942,
      "d": 67.77000000000407,
      "v": 85
    },
    {
      "midi": 58,
      "hit": false,
      "t": 103221.23999999942,
      "d": 67.77000000000407,
      "v": 81
    },
    {
      "midi": 39,
      "hit": false,
      "t": 103582.67999999943,
      "d": 97.88999999999942,
      "v": 73
    },
    {
      "midi": 54,
      "hit": false,
      "t": 103710.68999999942,
      "d": 116.71499999999651,
      "v": 77
    },
    {
      "midi": 58,
      "hit": false,
      "t": 103714.45499999942,
      "d": 90.36000000000058,
      "v": 81
    },
    {
      "midi": 63,
      "hit": false,
      "t": 103714.45499999942,
      "d": 109.18499999999767,
      "v": 81
    },
    {
      "midi": 46,
      "hit": false,
      "t": 104087.18999999942,
      "d": 365.20500000000175,
      "v": 81
    },
    {
      "midi": 56,
      "hit": false,
      "t": 104456.15999999942,
      "d": 214.60499999999593,
      "v": 65
    },
    {
      "midi": 61,
      "hit": false,
      "t": 104459.92499999942,
      "d": 233.42999999999302,
      "v": 77
    },
    {
      "midi": 53,
      "hit": false,
      "t": 104459.92499999942,
      "d": 237.19499999999243,
      "v": 56
    },
    {
      "midi": 39,
      "hit": false,
      "t": 104806.30499999941,
      "d": 225.89999999999418,
      "v": 81
    },
    {
      "midi": 58,
      "hit": false,
      "t": 105035.9699999994,
      "d": 75.30000000000291,
      "v": 81
    },
    {
      "midi": 63,
      "hit": false,
      "t": 105035.9699999994,
      "d": 75.30000000000291,
      "v": 81
    },
    {
      "midi": 54,
      "hit": false,
      "t": 105035.9699999994,
      "d": 79.06500000000233,
      "v": 81
    },
    {
      "midi": 39,
      "hit": false,
      "t": 105382.34999999941,
      "d": 86.59500000000116,
      "v": 85
    },
    {
      "midi": 63,
      "hit": false,
      "t": 105510.3599999994,
      "d": 112.94999999999709,
      "v": 85
    },
    {
      "midi": 58,
      "hit": false,
      "t": 105514.1249999994,
      "d": 101.65499999999884,
      "v": 81
    },
    {
      "midi": 54,
      "hit": false,
      "t": 105517.8899999994,
      "d": 109.18499999999767,
      "v": 73
    },
    {
      "midi": 46,
      "hit": false,
      "t": 105894.3899999994,
      "d": 365.20500000000175,
      "v": 81
    },
    {
      "midi": 56,
      "hit": false,
      "t": 106248.2999999994,
      "d": 301.1999999999971,
      "v": 65
    },
    {
      "midi": 61,
      "hit": false,
      "t": 106252.0649999994,
      "d": 304.9649999999965,
      "v": 81
    },
    {
      "midi": 53,
      "hit": false,
      "t": 106255.8299999994,
      "d": 293.66999999999825,
      "v": 57
    },
    {
      "midi": 39,
      "hit": false,
      "t": 106609.73999999941,
      "d": 199.54499999999825,
      "v": 85
    },
    {
      "midi": 63,
      "hit": false,
      "t": 106824.3449999994,
      "d": 86.59500000000116,
      "v": 85
    },
    {
      "midi": 54,
      "hit": false,
      "t": 106828.1099999994,
      "d": 79.06500000000233,
      "v": 73
    },
    {
      "midi": 58,
      "hit": false,
      "t": 106828.1099999994,
      "d": 82.83000000000175,
      "v": 85
    },
    {
      "midi": 39,
      "hit": false,
      "t": 107178.25499999941,
      "d": 94.125,
      "v": 81
    },
    {
      "midi": 58,
      "hit": false,
      "t": 107313.7949999994,
      "d": 97.88999999999942,
      "v": 81
    },
    {
      "midi": 63,
      "hit": false,
      "t": 107313.7949999994,
      "d": 124.24499999999534,
      "v": 81
    },
    {
      "midi": 54,
      "hit": false,
      "t": 107317.5599999994,
      "d": 112.94999999999709,
      "v": 77
    },
    {
      "midi": 46,
      "hit": false,
      "t": 107690.2949999994,
      "d": 368.97000000000116,
      "v": 85
    },
    {
      "midi": 56,
      "hit": false,
      "t": 108051.7349999994,
      "d": 278.6100000000006,
      "v": 65
    },
    {
      "midi": 53,
      "hit": false,
      "t": 108055.4999999994,
      "d": 286.1399999999994,
      "v": 56
    },
    {
      "midi": 61,
      "hit": false,
      "t": 108055.4999999994,
      "d": 286.1399999999994,
      "v": 81
    },
    {
      "midi": 39,
      "hit": false,
      "t": 108405.64499999941,
      "d": 222.13499999999476,
      "v": 85
    },
    {
      "midi": 63,
      "hit": false,
      "t": 108627.7799999994,
      "d": 64.00500000000466,
      "v": 81
    },
    {
      "midi": 54,
      "hit": false,
      "t": 108631.5449999994,
      "d": 75.30000000000291,
      "v": 77
    },
    {
      "midi": 58,
      "hit": false,
      "t": 108631.5449999994,
      "d": 75.30000000000291,
      "v": 85
    },
    {
      "midi": 39,
      "hit": false,
      "t": 108992.9849999994,
      "d": 101.65499999999884,
      "v": 81
    },
    {
      "midi": 63,
      "hit": false,
      "t": 109128.5249999994,
      "d": 120.47999999999593,
      "v": 85
    },
    {
      "midi": 58,
      "hit": false,
      "t": 109132.2899999994,
      "d": 105.41999999999825,
      "v": 81
    },
    {
      "midi": 54,
      "hit": false,
      "t": 109132.2899999994,
      "d": 154.3649999999907,
      "v": 73
    },
    {
      "midi": 46,
      "hit": false,
      "t": 109497.49499999938,
      "d": 376.5,
      "v": 85
    },
    {
      "midi": 61,
      "hit": false,
      "t": 109862.69999999939,
      "d": 237.19499999999243,
      "v": 81
    },
    {
      "midi": 56,
      "hit": false,
      "t": 109866.46499999939,
      "d": 222.13499999999476,
      "v": 73
    },
    {
      "midi": 53,
      "hit": false,
      "t": 109866.46499999939,
      "d": 240.95999999999185,
      "v": 56
    },
    {
      "midi": 39,
      "hit": false,
      "t": 110212.84499999938,
      "d": 233.42999999999302,
      "v": 81
    },
    {
      "midi": 54,
      "hit": false,
      "t": 110446.27499999937,
      "d": 79.06500000000233,
      "v": 81
    },
    {
      "midi": 63,
      "hit": false,
      "t": 110446.27499999937,
      "d": 79.06500000000233,
      "v": 85
    },
    {
      "midi": 58,
      "hit": false,
      "t": 110450.03999999937,
      "d": 75.30000000000291,
      "v": 85
    },
    {
      "midi": 39,
      "hit": false,
      "t": 110800.18499999937,
      "d": 124.24499999999534,
      "v": 81
    },
    {
      "midi": 63,
      "hit": false,
      "t": 110939.48999999936,
      "d": 112.94999999999709,
      "v": 81
    },
    {
      "midi": 58,
      "hit": false,
      "t": 110943.25499999936,
      "d": 105.41999999999825,
      "v": 85
    },
    {
      "midi": 54,
      "hit": false,
      "t": 110943.25499999936,
      "d": 112.94999999999709,
      "v": 81
    },
    {
      "midi": 46,
      "hit": false,
      "t": 111300.92999999937,
      "d": 380.2649999999994,
      "v": 81
    },
    {
      "midi": 56,
      "hit": false,
      "t": 111662.36999999937,
      "d": 135.5399999999936,
      "v": 77
    },
    {
      "midi": 61,
      "hit": false,
      "t": 111666.13499999937,
      "d": 146.83499999999185,
      "v": 85
    },
    {
      "midi": 53,
      "hit": false,
      "t": 111666.13499999937,
      "d": 161.89499999998952,
      "v": 69
    },
    {
      "midi": 39,
      "hit": false,
      "t": 112027.57499999936,
      "d": 233.42999999999302,
      "v": 85
    },
    {
      "midi": 63,
      "hit": false,
      "t": 112253.47499999935,
      "d": 109.18499999999767,
      "v": 81
    },
    {
      "midi": 54,
      "hit": false,
      "t": 112257.23999999935,
      "d": 90.36000000000058,
      "v": 77
    },
    {
      "midi": 58,
      "hit": false,
      "t": 112264.76999999935,
      "d": 90.36000000000058,
      "v": 81
    },
    {
      "midi": 39,
      "hit": false,
      "t": 112611.14999999935,
      "d": 120.47999999999593,
      "v": 81
    },
    {
      "midi": 63,
      "hit": false,
      "t": 112731.62999999935,
      "d": 105.41999999999825,
      "v": 77
    },
    {
      "midi": 58,
      "hit": false,
      "t": 112735.39499999935,
      "d": 109.18499999999767,
      "v": 77
    },
    {
      "midi": 54,
      "hit": false,
      "t": 112739.15999999935,
      "d": 131.77499999999418,
      "v": 73
    },
    {
      "midi": 46,
      "hit": false,
      "t": 113100.59999999934,
      "d": 368.97000000000116,
      "v": 81
    },
    {
      "midi": 56,
      "hit": false,
      "t": 113458.27499999934,
      "d": 112.94999999999709,
      "v": 73
    },
    {
      "midi": 61,
      "hit": false,
      "t": 113465.80499999934,
      "d": 124.24499999999534,
      "v": 81
    },
    {
      "midi": 53,
      "hit": false,
      "t": 113473.33499999934,
      "d": 135.5399999999936,
      "v": 65
    },
    {
      "midi": 39,
      "hit": false,
      "t": 113857.36499999934,
      "d": 233.42999999999302,
      "v": 85
    },
    {
      "midi": 54,
      "hit": false,
      "t": 114083.26499999933,
      "d": 86.59500000000116,
      "v": 85
    },
    {
      "midi": 63,
      "hit": false,
      "t": 114083.26499999933,
      "d": 94.125,
      "v": 85
    },
    {
      "midi": 58,
      "hit": false,
      "t": 114087.02999999933,
      "d": 60.24000000000524,
      "v": 81
    },
    {
      "midi": 39,
      "hit": false,
      "t": 114448.46999999933,
      "d": 90.36000000000058,
      "v": 85
    },
    {
      "midi": 54,
      "hit": false,
      "t": 114568.94999999933,
      "d": 109.18499999999767,
      "v": 77
    },
    {
      "midi": 63,
      "hit": false,
      "t": 114568.94999999933,
      "d": 109.18499999999767,
      "v": 81
    },
    {
      "midi": 58,
      "hit": false,
      "t": 114572.71499999933,
      "d": 90.36000000000058,
      "v": 77
    },
    {
      "midi": 46,
      "hit": false,
      "t": 114941.68499999933,
      "d": 353.9100000000035,
      "v": 85
    },
    {
      "midi": 53,
      "hit": false,
      "t": 115280.53499999933,
      "d": 293.66999999999825,
      "v": 73
    },
    {
      "midi": 61,
      "hit": false,
      "t": 115280.53499999933,
      "d": 293.66999999999825,
      "v": 85
    },
    {
      "midi": 56,
      "hit": false,
      "t": 115288.06499999933,
      "d": 252.25500000000466,
      "v": 77
    },
    {
      "midi": 39,
      "hit": false,
      "t": 115641.97499999934,
      "d": 218.36999999999534,
      "v": 85
    },
    {
      "midi": 54,
      "hit": false,
      "t": 115875.40499999933,
      "d": 79.06500000000233,
      "v": 85
    },
    {
      "midi": 58,
      "hit": false,
      "t": 115879.16999999933,
      "d": 64.00500000000466,
      "v": 81
    },
    {
      "midi": 63,
      "hit": false,
      "t": 115879.16999999933,
      "d": 79.06500000000233,
      "v": 85
    },
    {
      "midi": 39,
      "hit": false,
      "t": 116218.01999999933,
      "d": 90.36000000000058,
      "v": 85
    },
    {
      "midi": 63,
      "hit": false,
      "t": 116349.79499999933,
      "d": 101.65499999999884,
      "v": 85
    },
    {
      "midi": 58,
      "hit": false,
      "t": 116353.55999999933,
      "d": 79.06500000000233,
      "v": 73
    },
    {
      "midi": 54,
      "hit": false,
      "t": 116353.55999999933,
      "d": 105.41999999999825,
      "v": 81
    },
    {
      "midi": 46,
      "hit": false,
      "t": 116718.76499999933,
      "d": 410.3850000000093,
      "v": 89
    },
    {
      "midi": 53,
      "hit": false,
      "t": 117072.67499999933,
      "d": 357.6750000000029,
      "v": 85
    },
    {
      "midi": 56,
      "hit": false,
      "t": 117076.43999999933,
      "d": 346.38000000000466,
      "v": 85
    },
    {
      "midi": 61,
      "hit": false,
      "t": 117076.43999999933,
      "d": 368.97000000000116,
      "v": 85
    },
    {
      "midi": 39,
      "hit": false,
      "t": 117430.34999999934,
      "d": 259.7850000000035,
      "v": 89
    },
    {
      "midi": 58,
      "hit": false,
      "t": 117686.36999999934,
      "d": 64.00500000000466,
      "v": 85
    },
    {
      "midi": 63,
      "hit": false,
      "t": 117686.36999999934,
      "d": 75.30000000000291,
      "v": 85
    },
    {
      "midi": 54,
      "hit": false,
      "t": 117690.13499999934,
      "d": 67.77000000000407,
      "v": 85
    },
    {
      "midi": 39,
      "hit": false,
      "t": 118047.80999999934,
      "d": 90.36000000000058,
      "v": 85
    },
    {
      "midi": 58,
      "hit": false,
      "t": 118172.05499999934,
      "d": 116.71499999999651,
      "v": 85
    },
    {
      "midi": 63,
      "hit": false,
      "t": 118172.05499999934,
      "d": 120.47999999999593,
      "v": 85
    },
    {
      "midi": 54,
      "hit": false,
      "t": 118175.81999999934,
      "d": 124.24499999999534,
      "v": 73
    },
    {
      "midi": 46,
      "hit": false,
      "t": 118548.55499999934,
      "d": 395.3249999999971,
      "v": 81
    },
    {
      "midi": 56,
      "hit": false,
      "t": 118909.99499999934,
      "d": 312.49499999999534,
      "v": 81
    },
    {
      "midi": 61,
      "hit": false,
      "t": 118909.99499999934,
      "d": 342.6149999999907,
      "v": 81
    },
    {
      "midi": 53,
      "hit": false,
      "t": 118909.99499999934,
      "d": 346.3799999999901,
      "v": 73
    },
    {
      "midi": 39,
      "hit": false,
      "t": 119263.90499999933,
      "d": 11.294999999998254,
      "v": 89
    },
    {
      "midi": 39,
      "hit": false,
      "t": 119275.19999999933,
      "d": 210.8399999999965,
      "v": 85
    },
    {
      "midi": 63,
      "hit": false,
      "t": 119512.39499999932,
      "d": 79.06500000000233,
      "v": 81
    },
    {
      "midi": 58,
      "hit": false,
      "t": 119516.15999999932,
      "d": 67.77000000000407,
      "v": 81
    },
    {
      "midi": 54,
      "hit": false,
      "t": 119519.92499999932,
      "d": 71.53500000000349,
      "v": 81
    },
    {
      "midi": 39,
      "hit": false,
      "t": 119851.24499999933,
      "d": 90.36000000000058,
      "v": 85
    },
    {
      "midi": 63,
      "hit": false,
      "t": 119979.25499999932,
      "d": 150.60000000000582,
      "v": 85
    },
    {
      "midi": 58,
      "hit": false,
      "t": 119979.25499999932,
      "d": 180.72000000000116,
      "v": 77
    },
    {
      "midi": 54,
      "hit": false,
      "t": 119983.01999999932,
      "d": 192.01499999999942,
      "v": 81
    },
    {
      "midi": 46,
      "hit": false,
      "t": 120333.16499999932,
      "d": 342.61500000000524,
      "v": 98
    },
    {
      "midi": 63,
      "hit": false,
      "t": 120683.30999999933,
      "d": 135.5399999999936,
      "v": 89
    },
    {
      "midi": 58,
      "hit": false,
      "t": 120687.07499999933,
      "d": 135.5399999999936,
      "v": 89
    },
    {
      "midi": 54,
      "hit": false,
      "t": 120687.07499999933,
      "d": 139.30499999999302,
      "v": 89
    },
    {
      "midi": 47,
      "hit": false,
      "t": 121082.39999999932,
      "d": 252.25500000000466,
      "v": 73
    },
    {
      "midi": 59,
      "hit": false,
      "t": 121323.35999999933,
      "d": 97.88999999999942,
      "v": 81
    },
    {
      "midi": 58,
      "hit": false,
      "t": 121323.35999999933,
      "d": 105.41999999999825,
      "v": 65
    },
    {
      "midi": 63,
      "hit": false,
      "t": 121323.35999999933,
      "d": 120.47999999999593,
      "v": 77
    },
    {
      "midi": 66,
      "hit": false,
      "t": 121323.35999999933,
      "d": 120.47999999999593,
      "v": 73
    },
    {
      "midi": 47,
      "hit": false,
      "t": 121684.79999999933,
      "d": 94.125,
      "v": 81
    },
    {
      "midi": 66,
      "hit": false,
      "t": 121805.27999999933,
      "d": 293.66999999999825,
      "v": 73
    },
    {
      "midi": 59,
      "hit": false,
      "t": 121805.27999999933,
      "d": 304.9649999999965,
      "v": 81
    },
    {
      "midi": 63,
      "hit": false,
      "t": 121805.27999999933,
      "d": 312.49499999999534,
      "v": 81
    },
    {
      "midi": 58,
      "hit": false,
      "t": 121805.27999999933,
      "d": 323.7899999999936,
      "v": 65
    },
    {
      "midi": 44,
      "hit": false,
      "t": 122166.71999999932,
      "d": 350.1450000000041,
      "v": 73
    },
    {
      "midi": 54,
      "hit": false,
      "t": 122528.15999999932,
      "d": 274.84500000000116,
      "v": 57
    },
    {
      "midi": 58,
      "hit": false,
      "t": 122528.15999999932,
      "d": 278.6100000000006,
      "v": 81
    },
    {
      "midi": 59,
      "hit": false,
      "t": 122528.15999999932,
      "d": 278.6100000000006,
      "v": 81
    },
    {
      "midi": 63,
      "hit": false,
      "t": 122528.15999999932,
      "d": 301.1999999999971,
      "v": 73
    },
    {
      "midi": 46,
      "hit": false,
      "t": 122889.59999999932,
      "d": 259.7850000000035,
      "v": 73
    },
    {
      "midi": 60,
      "hit": false,
      "t": 123130.55999999933,
      "d": 56.47499999999127,
      "v": 89
    },
    {
      "midi": 65,
      "hit": false,
      "t": 123130.55999999933,
      "d": 56.47499999999127,
      "v": 77
    },
    {
      "midi": 56,
      "hit": false,
      "t": 123130.55999999933,
      "d": 64.0049999999901,
      "v": 77
    },
    {
      "midi": 61,
      "hit": false,
      "t": 123130.55999999933,
      "d": 67.76999999998952,
      "v": 81
    },
    {
      "midi": 46,
      "hit": false,
      "t": 123491.99999999932,
      "d": 109.18499999999767,
      "v": 77
    },
    {
      "midi": 65,
      "hit": false,
      "t": 123612.47999999931,
      "d": 301.1999999999971,
      "v": 77
    },
    {
      "midi": 60,
      "hit": false,
      "t": 123612.47999999931,
      "d": 312.49499999999534,
      "v": 81
    },
    {
      "midi": 56,
      "hit": false,
      "t": 123612.47999999931,
      "d": 338.84999999999127,
      "v": 73
    },
    {
      "midi": 61,
      "hit": false,
      "t": 123612.47999999931,
      "d": 346.3799999999901,
      "v": 85
    },
    {
      "midi": 39,
      "hit": false,
      "t": 123973.9199999993,
      "d": 391.5599999999977,
      "v": 85
    },
    {
      "midi": 65,
      "hit": false,
      "t": 124335.3599999993,
      "d": 297.4349999999977,
      "v": 81
    },
    {
      "midi": 58,
      "hit": false,
      "t": 124335.3599999993,
      "d": 338.84999999999127,
      "v": 73
    },
    {
      "midi": 61,
      "hit": false,
      "t": 124335.3599999993,
      "d": 338.84999999999127,
      "v": 81
    },
    {
      "midi": 54,
      "hit": false,
      "t": 124335.3599999993,
      "d": 353.90999999998894,
      "v": 73
    },
    {
      "midi": 44,
      "hit": false,
      "t": 124696.79999999929,
      "d": 256.0200000000041,
      "v": 77
    },
    {
      "midi": 58,
      "hit": false,
      "t": 124937.7599999993,
      "d": 75.30000000000291,
      "v": 73
    },
    {
      "midi": 59,
      "hit": false,
      "t": 124937.7599999993,
      "d": 79.06500000000233,
      "v": 81
    },
    {
      "midi": 63,
      "hit": false,
      "t": 124937.7599999993,
      "d": 90.36000000000058,
      "v": 85
    },
    {
      "midi": 44,
      "hit": false,
      "t": 125299.1999999993,
      "d": 128.00999999999476,
      "v": 77
    },
    {
      "midi": 63,
      "hit": false,
      "t": 125419.6799999993,
      "d": 308.7299999999959,
      "v": 85
    },
    {
      "midi": 58,
      "hit": false,
      "t": 125419.6799999993,
      "d": 331.31999999999243,
      "v": 77
    },
    {
      "midi": 59,
      "hit": false,
      "t": 125419.6799999993,
      "d": 331.31999999999243,
      "v": 85
    },
    {
      "midi": 37,
      "hit": false,
      "t": 125781.11999999928,
      "d": 395.3249999999971,
      "v": 85
    },
    {
      "midi": 63,
      "hit": false,
      "t": 126142.55999999928,
      "d": 312.49499999999534,
      "v": 77
    },
    {
      "midi": 58,
      "hit": false,
      "t": 126142.55999999928,
      "d": 316.25999999999476,
      "v": 65
    },
    {
      "midi": 59,
      "hit": false,
      "t": 126142.55999999928,
      "d": 316.25999999999476,
      "v": 85
    },
    {
      "midi": 53,
      "hit": false,
      "t": 126142.55999999928,
      "d": 327.554999999993,
      "v": 61
    },
    {
      "midi": 42,
      "hit": false,
      "t": 126503.99999999927,
      "d": 282.375,
      "v": 73
    },
    {
      "midi": 54,
      "hit": false,
      "t": 126744.95999999928,
      "d": 64.0049999999901,
      "v": 69
    },
    {
      "midi": 53,
      "hit": false,
      "t": 126744.95999999928,
      "d": 82.8299999999872,
      "v": 73
    },
    {
      "midi": 58,
      "hit": false,
      "t": 126744.95999999928,
      "d": 82.8299999999872,
      "v": 81
    },
    {
      "midi": 63,
      "hit": false,
      "t": 126744.95999999928,
      "d": 101.65499999998428,
      "v": 81
    },
    {
      "midi": 42,
      "hit": false,
      "t": 127106.39999999927,
      "d": 128.00999999999476,
      "v": 85
    },
    {
      "midi": 54,
      "hit": false,
      "t": 127226.87999999926,
      "d": 304.9649999999965,
      "v": 61
    },
    {
      "midi": 53,
      "hit": false,
      "t": 127226.87999999926,
      "d": 320.0249999999942,
      "v": 56
    },
    {
      "midi": 58,
      "hit": false,
      "t": 127226.87999999926,
      "d": 327.554999999993,
      "v": 77
    },
    {
      "midi": 63,
      "hit": false,
      "t": 127226.87999999926,
      "d": 342.6149999999907,
      "v": 73
    },
    {
      "midi": 42,
      "hit": false,
      "t": 127588.31999999925,
      "d": 346.38000000000466,
      "v": 81
    },
    {
      "midi": 54,
      "hit": false,
      "t": 127949.75999999925,
      "d": 120.47999999999593,
      "v": 69
    },
    {
      "midi": 58,
      "hit": false,
      "t": 127949.75999999925,
      "d": 120.47999999999593,
      "v": 73
    },
    {
      "midi": 65,
      "hit": false,
      "t": 127949.75999999925,
      "d": 131.77499999999418,
      "v": 77
    },
    {
      "midi": 61,
      "hit": false,
      "t": 127949.75999999925,
      "d": 139.30499999999302,
      "v": 81
    },
    {
      "midi": 47,
      "hit": false,
      "t": 128311.19999999924,
      "d": 173.19000000000233,
      "v": 73
    },
    {
      "midi": 59,
      "hit": false,
      "t": 128552.15999999925,
      "d": 56.47500000000582,
      "v": 69
    },
    {
      "midi": 58,
      "hit": false,
      "t": 128552.15999999925,
      "d": 67.77000000000407,
      "v": 55
    },
    {
      "midi": 63,
      "hit": false,
      "t": 128552.15999999925,
      "d": 67.77000000000407,
      "v": 73
    },
    {
      "midi": 66,
      "hit": false,
      "t": 128552.15999999925,
      "d": 82.83000000000175,
      "v": 61
    },
    {
      "midi": 47,
      "hit": false,
      "t": 128913.59999999925,
      "d": 71.53500000000349,
      "v": 77
    },
    {
      "midi": 59,
      "hit": false,
      "t": 129034.07999999926,
      "d": 82.83000000000175,
      "v": 73
    },
    {
      "midi": 58,
      "hit": false,
      "t": 129034.07999999926,
      "d": 97.88999999999942,
      "v": 57
    },
    {
      "midi": 63,
      "hit": false,
      "t": 129034.07999999926,
      "d": 109.18499999999767,
      "v": 77
    },
    {
      "midi": 66,
      "hit": false,
      "t": 129034.07999999926,
      "d": 112.94999999999709,
      "v": 61
    },
    {
      "midi": 44,
      "hit": false,
      "t": 129395.51999999926,
      "d": 357.6750000000029,
      "v": 65
    },
    {
      "midi": 54,
      "hit": false,
      "t": 129756.95999999926,
      "d": 297.4349999999977,
      "v": 51
    },
    {
      "midi": 58,
      "hit": false,
      "t": 129756.95999999926,
      "d": 297.4349999999977,
      "v": 65
    },
    {
      "midi": 63,
      "hit": false,
      "t": 129756.95999999926,
      "d": 301.1999999999971,
      "v": 57
    },
    {
      "midi": 59,
      "hit": false,
      "t": 129756.95999999926,
      "d": 304.9649999999965,
      "v": 77
    },
    {
      "midi": 46,
      "hit": false,
      "t": 130118.39999999927,
      "d": 233.42999999999302,
      "v": 57
    },
    {
      "midi": 60,
      "hit": false,
      "t": 130359.35999999926,
      "d": 33.88499999999476,
      "v": 77
    },
    {
      "midi": 65,
      "hit": false,
      "t": 130359.35999999926,
      "d": 45.179999999993015,
      "v": 73
    },
    {
      "midi": 61,
      "hit": false,
      "t": 130359.35999999926,
      "d": 48.94499999999243,
      "v": 77
    },
    {
      "midi": 56,
      "hit": false,
      "t": 130359.35999999926,
      "d": 52.70999999999185,
      "v": 65
    },
    {
      "midi": 46,
      "hit": false,
      "t": 130720.79999999925,
      "d": 97.88999999999942,
      "v": 65
    },
    {
      "midi": 60,
      "hit": false,
      "t": 130841.27999999924,
      "d": 90.36000000000058,
      "v": 69
    },
    {
      "midi": 65,
      "hit": false,
      "t": 130841.27999999924,
      "d": 101.65499999999884,
      "v": 61
    },
    {
      "midi": 56,
      "hit": false,
      "t": 130841.27999999924,
      "d": 105.41999999999825,
      "v": 57
    },
    {
      "midi": 61,
      "hit": false,
      "t": 130841.27999999924,
      "d": 109.18499999999767,
      "v": 73
    },
    {
      "midi": 39,
      "hit": false,
      "t": 131202.71999999924,
      "d": 376.5,
      "v": 65
    },
    {
      "midi": 65,
      "hit": false,
      "t": 131564.15999999925,
      "d": 267.3150000000023,
      "v": 73
    },
    {
      "midi": 58,
      "hit": false,
      "t": 131564.15999999925,
      "d": 293.6700000000128,
      "v": 73
    },
    {
      "midi": 61,
      "hit": false,
      "t": 131564.15999999925,
      "d": 293.6700000000128,
      "v": 69
    },
    {
      "midi": 54,
      "hit": false,
      "t": 131564.15999999925,
      "d": 327.5550000000221,
      "v": 52
    },
    {
      "midi": 44,
      "hit": false,
      "t": 131925.59999999928,
      "d": 244.72500000000582,
      "v": 65
    },
    {
      "midi": 59,
      "hit": false,
      "t": 132166.55999999927,
      "d": 79.06500000000233,
      "v": 85
    },
    {
      "midi": 58,
      "hit": false,
      "t": 132166.55999999927,
      "d": 82.8300000000163,
      "v": 73
    },
    {
      "midi": 63,
      "hit": false,
      "t": 132166.55999999927,
      "d": 86.59500000003027,
      "v": 81
    },
    {
      "midi": 44,
      "hit": false,
      "t": 132527.9999999993,
      "d": 82.8299999999872,
      "v": 65
    },
    {
      "midi": 58,
      "hit": false,
      "t": 132648.47999999928,
      "d": 90.35999999998603,
      "v": 69
    },
    {
      "midi": 59,
      "hit": false,
      "t": 132648.47999999928,
      "d": 90.35999999998603,
      "v": 77
    },
    {
      "midi": 63,
      "hit": false,
      "t": 132648.47999999928,
      "d": 101.65499999999884,
      "v": 77
    },
    {
      "midi": 37,
      "hit": false,
      "t": 133009.91999999929,
      "d": 380.26500000001397,
      "v": 73
    },
    {
      "midi": 59,
      "hit": false,
      "t": 133371.3599999993,
      "d": 274.84500000000116,
      "v": 81
    },
    {
      "midi": 58,
      "hit": false,
      "t": 133371.3599999993,
      "d": 278.61000000001513,
      "v": 69
    },
    {
      "midi": 63,
      "hit": false,
      "t": 133371.3599999993,
      "d": 278.61000000001513,
      "v": 69
    },
    {
      "midi": 53,
      "hit": false,
      "t": 133371.3599999993,
      "d": 286.14000000001397,
      "v": 54
    },
    {
      "midi": 41,
      "hit": false,
      "t": 133732.7999999993,
      "d": 259.7850000000035,
      "v": 81
    },
    {
      "midi": 56,
      "hit": false,
      "t": 133973.75999999928,
      "d": 67.77000000001863,
      "v": 73
    },
    {
      "midi": 60,
      "hit": false,
      "t": 133973.75999999928,
      "d": 79.06500000003143,
      "v": 77
    },
    {
      "midi": 55,
      "hit": false,
      "t": 133973.75999999928,
      "d": 82.8300000000454,
      "v": 53
    },
    {
      "midi": 63,
      "hit": false,
      "t": 133973.75999999928,
      "d": 105.42000000004191,
      "v": 73
    },
    {
      "midi": 41,
      "hit": false,
      "t": 134335.1999999993,
      "d": 109.18499999999767,
      "v": 81
    },
    {
      "midi": 56,
      "hit": false,
      "t": 134455.67999999932,
      "d": 75.29999999998836,
      "v": 73
    },
    {
      "midi": 60,
      "hit": false,
      "t": 134455.67999999932,
      "d": 101.65499999999884,
      "v": 81
    },
    {
      "midi": 55,
      "hit": false,
      "t": 134455.67999999932,
      "d": 105.4200000000128,
      "v": 56
    },
    {
      "midi": 63,
      "hit": false,
      "t": 134455.67999999932,
      "d": 112.95000000001164,
      "v": 65
    },
    {
      "midi": 46,
      "hit": false,
      "t": 134817.11999999933,
      "d": 353.9100000000035,
      "v": 73
    },
    {
      "midi": 56,
      "hit": false,
      "t": 135178.55999999933,
      "d": 143.07000000000698,
      "v": 65
    },
    {
      "midi": 53,
      "hit": false,
      "t": 135178.55999999933,
      "d": 150.60000000000582,
      "v": 51
    },
    {
      "midi": 62,
      "hit": false,
      "t": 135178.55999999933,
      "d": 150.60000000000582,
      "v": 77
    },
    {
      "midi": 58,
      "hit": false,
      "t": 135178.55999999933,
      "d": 154.3650000000198,
      "v": 73
    },
    {
      "midi": 39,
      "hit": false,
      "t": 135539.99999999936,
      "d": 210.8399999999965,
      "v": 77
    },
    {
      "midi": 58,
      "hit": false,
      "t": 135780.95999999935,
      "d": 75.29999999998836,
      "v": 65
    },
    {
      "midi": 54,
      "hit": false,
      "t": 135780.95999999935,
      "d": 79.06500000000233,
      "v": 65
    },
    {
      "midi": 63,
      "hit": false,
      "t": 135780.95999999935,
      "d": 82.8300000000163,
      "v": 73
    },
    {
      "midi": 39,
      "hit": false,
      "t": 136142.39999999935,
      "d": 90.35999999998603,
      "v": 77
    },
    {
      "midi": 58,
      "hit": false,
      "t": 136262.87999999934,
      "d": 101.65499999999884,
      "v": 73
    },
    {
      "midi": 54,
      "hit": false,
      "t": 136262.87999999934,
      "d": 124.24499999999534,
      "v": 65
    },
    {
      "midi": 63,
      "hit": false,
      "t": 136262.87999999934,
      "d": 128.0100000000093,
      "v": 77
    },
    {
      "midi": 46,
      "hit": false,
      "t": 136624.31999999934,
      "d": 346.38000000000466,
      "v": 77
    },
    {
      "midi": 56,
      "hit": false,
      "t": 136985.75999999934,
      "d": 192.01500000001397,
      "v": 73
    },
    {
      "midi": 53,
      "hit": false,
      "t": 136985.75999999934,
      "d": 229.66500000000815,
      "v": 57
    },
    {
      "midi": 61,
      "hit": false,
      "t": 136985.75999999934,
      "d": 244.72500000000582,
      "v": 81
    },
    {
      "midi": 39,
      "hit": false,
      "t": 137347.19999999934,
      "d": 218.36999999999534,
      "v": 77
    },
    {
      "midi": 63,
      "hit": false,
      "t": 137588.15999999933,
      "d": 60.23999999999069,
      "v": 77
    },
    {
      "midi": 54,
      "hit": false,
      "t": 137588.15999999933,
      "d": 67.76999999998952,
      "v": 73
    },
    {
      "midi": 58,
      "hit": false,
      "t": 137588.15999999933,
      "d": 67.76999999998952,
      "v": 73
    },
    {
      "midi": 39,
      "hit": false,
      "t": 137949.59999999934,
      "d": 90.35999999998603,
      "v": 81
    },
    {
      "midi": 58,
      "hit": false,
      "t": 138070.07999999932,
      "d": 109.18499999999767,
      "v": 73
    },
    {
      "midi": 54,
      "hit": false,
      "t": 138070.07999999932,
      "d": 124.24499999999534,
      "v": 69
    },
    {
      "midi": 63,
      "hit": false,
      "t": 138070.07999999932,
      "d": 131.77499999999418,
      "v": 81
    },
    {
      "midi": 46,
      "hit": false,
      "t": 138431.51999999932,
      "d": 338.8500000000058,
      "v": 77
    },
    {
      "midi": 56,
      "hit": false,
      "t": 138792.95999999932,
      "d": 131.77499999999418,
      "v": 65
    },
    {
      "midi": 61,
      "hit": false,
      "t": 138792.95999999932,
      "d": 139.30499999999302,
      "v": 81
    },
    {
      "midi": 53,
      "hit": false,
      "t": 138792.95999999932,
      "d": 169.42499999998836,
      "v": 61
    },
    {
      "midi": 39,
      "hit": false,
      "t": 139154.39999999932,
      "d": 207.07500000001164,
      "v": 85
    },
    {
      "midi": 58,
      "hit": false,
      "t": 139395.35999999935,
      "d": 60.23999999999069,
      "v": 65
    },
    {
      "midi": 54,
      "hit": false,
      "t": 139395.35999999935,
      "d": 67.76999999998952,
      "v": 77
    },
    {
      "midi": 63,
      "hit": false,
      "t": 139395.35999999935,
      "d": 71.53500000000349,
      "v": 85
    },
    {
      "midi": 39,
      "hit": false,
      "t": 139756.79999999935,
      "d": 105.4200000000128,
      "v": 73
    },
    {
      "midi": 58,
      "hit": false,
      "t": 139877.27999999936,
      "d": 109.18499999999767,
      "v": 73
    },
    {
      "midi": 63,
      "hit": false,
      "t": 139877.27999999936,
      "d": 120.48000000001048,
      "v": 81
    },
    {
      "midi": 54,
      "hit": false,
      "t": 139877.27999999936,
      "d": 146.83500000002095,
      "v": 73
    },
    {
      "midi": 46,
      "hit": false,
      "t": 140238.7199999994,
      "d": 342.6149999999907,
      "v": 77
    },
    {
      "midi": 56,
      "hit": false,
      "t": 140600.1599999994,
      "d": 124.24499999999534,
      "v": 65
    },
    {
      "midi": 61,
      "hit": false,
      "t": 140600.1599999994,
      "d": 135.54000000000815,
      "v": 85
    },
    {
      "midi": 53,
      "hit": false,
      "t": 140600.1599999994,
      "d": 146.83500000002095,
      "v": 73
    },
    {
      "midi": 39,
      "hit": false,
      "t": 140961.59999999942,
      "d": 214.60500000001048,
      "v": 69
    },
    {
      "midi": 58,
      "hit": false,
      "t": 141202.55999999944,
      "d": 56.47500000000582,
      "v": 69
    },
    {
      "midi": 54,
      "hit": false,
      "t": 141202.55999999944,
      "d": 67.77000000001863,
      "v": 65
    },
    {
      "midi": 63,
      "hit": false,
      "t": 141202.55999999944,
      "d": 71.5350000000326,
      "v": 77
    },
    {
      "midi": 39,
      "hit": false,
      "t": 141563.99999999948,
      "d": 71.53500000000349,
      "v": 65
    },
    {
      "midi": 58,
      "hit": false,
      "t": 141684.4799999995,
      "d": 105.4200000000128,
      "v": 65
    },
    {
      "midi": 63,
      "hit": false,
      "t": 141684.4799999995,
      "d": 109.18500000002678,
      "v": 77
    },
    {
      "midi": 54,
      "hit": false,
      "t": 141684.4799999995,
      "d": 139.30500000002212,
      "v": 61
    },
    {
      "midi": 46,
      "hit": false,
      "t": 142045.91999999952,
      "d": 323.79000000000815,
      "v": 65
    },
    {
      "midi": 56,
      "hit": false,
      "t": 142407.35999999952,
      "d": 135.54000000000815,
      "v": 56
    },
    {
      "midi": 61,
      "hit": false,
      "t": 142407.35999999952,
      "d": 139.30500000002212,
      "v": 77
    },
    {
      "midi": 53,
      "hit": false,
      "t": 142407.35999999952,
      "d": 150.60000000003492,
      "v": 61
    },
    {
      "midi": 39,
      "hit": false,
      "t": 142768.79999999955,
      "d": 165.6600000000035,
      "v": 85
    },
    {
      "midi": 58,
      "hit": false,
      "t": 143009.75999999954,
      "d": 71.53500000000349,
      "v": 61
    },
    {
      "midi": 63,
      "hit": false,
      "t": 143009.75999999954,
      "d": 75.30000000001746,
      "v": 77
    },
    {
      "midi": 54,
      "hit": false,
      "t": 143009.75999999954,
      "d": 79.06500000003143,
      "v": 69
    },
    {
      "midi": 39,
      "hit": false,
      "t": 143371.19999999958,
      "d": 105.4200000000128,
      "v": 73
    },
    {
      "midi": 58,
      "hit": false,
      "t": 143491.6799999996,
      "d": 90.35999999998603,
      "v": 65
    },
    {
      "midi": 63,
      "hit": false,
      "t": 143491.6799999996,
      "d": 90.35999999998603,
      "v": 81
    },
    {
      "midi": 54,
      "hit": false,
      "t": 143491.6799999996,
      "d": 105.4199999999837,
      "v": 77
    },
    {
      "midi": 46,
      "hit": false,
      "t": 143853.11999999956,
      "d": 342.6149999999907,
      "v": 77
    },
    {
      "midi": 56,
      "hit": false,
      "t": 144214.55999999956,
      "d": 109.18499999999767,
      "v": 73
    },
    {
      "midi": 61,
      "hit": false,
      "t": 144214.55999999956,
      "d": 120.48000000001048,
      "v": 81
    },
    {
      "midi": 53,
      "hit": false,
      "t": 144214.55999999956,
      "d": 128.0100000000093,
      "v": 69
    },
    {
      "midi": 39,
      "hit": false,
      "t": 144575.99999999956,
      "d": 203.30999999999767,
      "v": 81
    },
    {
      "midi": 58,
      "hit": false,
      "t": 144816.95999999956,
      "d": 67.76999999998952,
      "v": 69
    },
    {
      "midi": 54,
      "hit": false,
      "t": 144816.95999999956,
      "d": 79.06500000000233,
      "v": 77
    },
    {
      "midi": 63,
      "hit": false,
      "t": 144816.95999999956,
      "d": 79.06500000000233,
      "v": 81
    },
    {
      "midi": 39,
      "hit": false,
      "t": 145178.39999999956,
      "d": 97.89000000001397,
      "v": 77
    },
    {
      "midi": 58,
      "hit": false,
      "t": 145298.87999999957,
      "d": 90.35999999998603,
      "v": 65
    },
    {
      "midi": 63,
      "hit": false,
      "t": 145298.87999999957,
      "d": 105.4199999999837,
      "v": 85
    },
    {
      "midi": 54,
      "hit": false,
      "t": 145298.87999999957,
      "d": 109.18499999999767,
      "v": 69
    },
    {
      "midi": 46,
      "hit": false,
      "t": 145660.31999999957,
      "d": 316.2600000000093,
      "v": 77
    },
    {
      "midi": 56,
      "hit": false,
      "t": 146021.75999999957,
      "d": 94.125,
      "v": 81
    },
    {
      "midi": 61,
      "hit": false,
      "t": 146021.75999999957,
      "d": 116.71499999999651,
      "v": 85
    },
    {
      "midi": 53,
      "hit": false,
      "t": 146021.75999999957,
      "d": 131.77499999999418,
      "v": 81
    },
    {
      "midi": 39,
      "hit": false,
      "t": 146383.19999999958,
      "d": 176.9549999999872,
      "v": 81
    },
    {
      "midi": 58,
      "hit": false,
      "t": 146624.15999999957,
      "d": 60.23999999999069,
      "v": 65
    },
    {
      "midi": 54,
      "hit": false,
      "t": 146624.15999999957,
      "d": 71.53500000000349,
      "v": 77
    },
    {
      "midi": 63,
      "hit": false,
      "t": 146624.15999999957,
      "d": 75.30000000001746,
      "v": 81
    },
    {
      "midi": 39,
      "hit": false,
      "t": 146985.5999999996,
      "d": 112.95000000001164,
      "v": 73
    },
    {
      "midi": 58,
      "hit": false,
      "t": 147106.0799999996,
      "d": 82.8299999999872,
      "v": 69
    },
    {
      "midi": 63,
      "hit": false,
      "t": 147106.0799999996,
      "d": 94.125,
      "v": 85
    },
    {
      "midi": 54,
      "hit": false,
      "t": 147106.0799999996,
      "d": 109.18499999999767,
      "v": 61
    },
    {
      "midi": 46,
      "hit": false,
      "t": 147467.5199999996,
      "d": 335.08499999999185,
      "v": 77
    },
    {
      "midi": 56,
      "hit": false,
      "t": 147828.9599999996,
      "d": 139.30499999999302,
      "v": 77
    },
    {
      "midi": 61,
      "hit": false,
      "t": 147828.9599999996,
      "d": 169.42499999998836,
      "v": 85
    },
    {
      "midi": 53,
      "hit": false,
      "t": 147828.9599999996,
      "d": 184.48499999998603,
      "v": 77
    },
    {
      "midi": 39,
      "hit": false,
      "t": 148190.3999999996,
      "d": 210.8399999999965,
      "v": 77
    },
    {
      "midi": 58,
      "hit": false,
      "t": 148431.35999999958,
      "d": 79.06500000000233,
      "v": 73
    },
    {
      "midi": 63,
      "hit": false,
      "t": 148431.35999999958,
      "d": 79.06500000000233,
      "v": 73
    },
    {
      "midi": 54,
      "hit": false,
      "t": 148431.35999999958,
      "d": 86.59500000000116,
      "v": 73
    },
    {
      "midi": 39,
      "hit": false,
      "t": 148792.79999999958,
      "d": 90.35999999998603,
      "v": 77
    },
    {
      "midi": 58,
      "hit": false,
      "t": 148913.27999999956,
      "d": 90.35999999998603,
      "v": 77
    },
    {
      "midi": 63,
      "hit": false,
      "t": 148913.27999999956,
      "d": 90.35999999998603,
      "v": 77
    },
    {
      "midi": 54,
      "hit": false,
      "t": 148913.27999999956,
      "d": 105.4199999999837,
      "v": 73
    },
    {
      "midi": 46,
      "hit": false,
      "t": 149274.71999999954,
      "d": 365.2050000000163,
      "v": 73
    },
    {
      "midi": 56,
      "hit": false,
      "t": 149636.15999999954,
      "d": 124.24500000002445,
      "v": 81
    },
    {
      "midi": 61,
      "hit": false,
      "t": 149636.15999999954,
      "d": 135.54000000003725,
      "v": 81
    },
    {
      "midi": 53,
      "hit": false,
      "t": 149636.15999999954,
      "d": 150.60000000003492,
      "v": 77
    },
    {
      "midi": 39,
      "hit": false,
      "t": 149997.59999999957,
      "d": 210.8399999999965,
      "v": 77
    },
    {
      "midi": 58,
      "hit": false,
      "t": 150238.55999999956,
      "d": 75.29999999998836,
      "v": 65
    },
    {
      "midi": 54,
      "hit": false,
      "t": 150238.55999999956,
      "d": 79.06500000000233,
      "v": 65
    },
    {
      "midi": 63,
      "hit": false,
      "t": 150238.55999999956,
      "d": 82.8300000000163,
      "v": 73
    },
    {
      "midi": 39,
      "hit": false,
      "t": 150599.99999999956,
      "d": 90.35999999998603,
      "v": 77
    },
    {
      "midi": 58,
      "hit": false,
      "t": 150720.47999999954,
      "d": 101.65499999999884,
      "v": 73
    },
    {
      "midi": 54,
      "hit": false,
      "t": 150720.47999999954,
      "d": 124.24499999999534,
      "v": 65
    },
    {
      "midi": 63,
      "hit": false,
      "t": 150720.47999999954,
      "d": 128.0100000000093,
      "v": 77
    },
    {
      "midi": 46,
      "hit": false,
      "t": 151081.91999999955,
      "d": 346.38000000000466,
      "v": 77
    },
    {
      "midi": 56,
      "hit": false,
      "t": 151443.35999999955,
      "d": 192.01500000001397,
      "v": 73
    },
    {
      "midi": 53,
      "hit": false,
      "t": 151443.35999999955,
      "d": 229.66500000000815,
      "v": 57
    },
    {
      "midi": 61,
      "hit": false,
      "t": 151443.35999999955,
      "d": 244.72500000000582,
      "v": 81
    },
    {
      "midi": 39,
      "hit": false,
      "t": 151804.79999999955,
      "d": 218.36999999999534,
      "v": 77
    },
    {
      "midi": 63,
      "hit": false,
      "t": 152045.75999999954,
      "d": 60.23999999999069,
      "v": 77
    },
    {
      "midi": 54,
      "hit": false,
      "t": 152045.75999999954,
      "d": 67.76999999998952,
      "v": 73
    },
    {
      "midi": 58,
      "hit": false,
      "t": 152045.75999999954,
      "d": 67.76999999998952,
      "v": 73
    },
    {
      "midi": 39,
      "hit": false,
      "t": 152407.19999999955,
      "d": 90.35999999998603,
      "v": 81
    },
    {
      "midi": 58,
      "hit": false,
      "t": 152527.67999999953,
      "d": 109.18499999999767,
      "v": 73
    },
    {
      "midi": 54,
      "hit": false,
      "t": 152527.67999999953,
      "d": 124.24499999999534,
      "v": 69
    },
    {
      "midi": 63,
      "hit": false,
      "t": 152527.67999999953,
      "d": 131.77499999999418,
      "v": 81
    },
    {
      "midi": 46,
      "hit": false,
      "t": 152889.11999999953,
      "d": 338.8500000000058,
      "v": 77
    },
    {
      "midi": 56,
      "hit": false,
      "t": 153250.55999999953,
      "d": 131.77499999999418,
      "v": 65
    },
    {
      "midi": 61,
      "hit": false,
      "t": 153250.55999999953,
      "d": 139.30499999999302,
      "v": 81
    },
    {
      "midi": 53,
      "hit": false,
      "t": 153250.55999999953,
      "d": 169.42499999998836,
      "v": 61
    },
    {
      "midi": 39,
      "hit": false,
      "t": 153611.99999999953,
      "d": 207.07500000001164,
      "v": 85
    },
    {
      "midi": 58,
      "hit": false,
      "t": 153852.95999999956,
      "d": 60.23999999999069,
      "v": 65
    },
    {
      "midi": 54,
      "hit": false,
      "t": 153852.95999999956,
      "d": 67.76999999998952,
      "v": 77
    },
    {
      "midi": 63,
      "hit": false,
      "t": 153852.95999999956,
      "d": 71.53500000000349,
      "v": 85
    },
    {
      "midi": 39,
      "hit": false,
      "t": 154214.39999999956,
      "d": 105.4200000000128,
      "v": 73
    },
    {
      "midi": 58,
      "hit": false,
      "t": 154334.87999999957,
      "d": 109.18499999999767,
      "v": 73
    },
    {
      "midi": 63,
      "hit": false,
      "t": 154334.87999999957,
      "d": 120.48000000001048,
      "v": 81
    },
    {
      "midi": 54,
      "hit": false,
      "t": 154334.87999999957,
      "d": 146.83500000002095,
      "v": 73
    },
    {
      "midi": 46,
      "hit": false,
      "t": 154696.3199999996,
      "d": 342.6149999999907,
      "v": 77
    },
    {
      "midi": 56,
      "hit": false,
      "t": 155057.7599999996,
      "d": 124.24499999999534,
      "v": 65
    },
    {
      "midi": 61,
      "hit": false,
      "t": 155057.7599999996,
      "d": 135.54000000000815,
      "v": 85
    },
    {
      "midi": 53,
      "hit": false,
      "t": 155057.7599999996,
      "d": 146.83500000002095,
      "v": 73
    },
    {
      "midi": 39,
      "hit": false,
      "t": 155419.19999999963,
      "d": 214.60500000001048,
      "v": 69
    },
    {
      "midi": 58,
      "hit": false,
      "t": 155660.15999999965,
      "d": 56.47500000000582,
      "v": 69
    },
    {
      "midi": 54,
      "hit": false,
      "t": 155660.15999999965,
      "d": 67.77000000001863,
      "v": 65
    },
    {
      "midi": 63,
      "hit": false,
      "t": 155660.15999999965,
      "d": 71.5350000000326,
      "v": 77
    },
    {
      "midi": 39,
      "hit": false,
      "t": 156021.5999999997,
      "d": 71.53500000000349,
      "v": 65
    },
    {
      "midi": 58,
      "hit": false,
      "t": 156142.0799999997,
      "d": 105.4200000000128,
      "v": 65
    },
    {
      "midi": 63,
      "hit": false,
      "t": 156142.0799999997,
      "d": 109.18500000002678,
      "v": 77
    },
    {
      "midi": 54,
      "hit": false,
      "t": 156142.0799999997,
      "d": 139.30500000002212,
      "v": 61
    },
    {
      "midi": 46,
      "hit": false,
      "t": 156503.51999999973,
      "d": 323.79000000000815,
      "v": 65
    },
    {
      "midi": 56,
      "hit": false,
      "t": 156864.95999999973,
      "d": 135.54000000000815,
      "v": 56
    },
    {
      "midi": 61,
      "hit": false,
      "t": 156864.95999999973,
      "d": 139.30500000002212,
      "v": 77
    },
    {
      "midi": 53,
      "hit": false,
      "t": 156864.95999999973,
      "d": 150.60000000003492,
      "v": 61
    },
    {
      "midi": 39,
      "hit": false,
      "t": 157226.39999999976,
      "d": 165.6600000000035,
      "v": 85
    },
    {
      "midi": 58,
      "hit": false,
      "t": 157467.35999999975,
      "d": 71.53500000000349,
      "v": 61
    },
    {
      "midi": 63,
      "hit": false,
      "t": 157467.35999999975,
      "d": 75.30000000001746,
      "v": 77
    },
    {
      "midi": 54,
      "hit": false,
      "t": 157467.35999999975,
      "d": 79.06500000003143,
      "v": 69
    },
    {
      "midi": 39,
      "hit": false,
      "t": 157828.79999999978,
      "d": 105.4200000000128,
      "v": 73
    },
    {
      "midi": 58,
      "hit": false,
      "t": 157949.2799999998,
      "d": 90.35999999998603,
      "v": 65
    },
    {
      "midi": 63,
      "hit": false,
      "t": 157949.2799999998,
      "d": 90.35999999998603,
      "v": 81
    },
    {
      "midi": 54,
      "hit": false,
      "t": 157949.2799999998,
      "d": 105.4199999999837,
      "v": 77
    },
    {
      "midi": 46,
      "hit": false,
      "t": 158310.71999999977,
      "d": 342.6149999999907,
      "v": 77
    },
    {
      "midi": 56,
      "hit": false,
      "t": 158672.15999999977,
      "d": 109.18499999999767,
      "v": 73
    },
    {
      "midi": 61,
      "hit": false,
      "t": 158672.15999999977,
      "d": 120.48000000001048,
      "v": 81
    },
    {
      "midi": 53,
      "hit": false,
      "t": 158672.15999999977,
      "d": 128.0100000000093,
      "v": 69
    },
    {
      "midi": 39,
      "hit": false,
      "t": 159033.59999999977,
      "d": 203.30999999999767,
      "v": 81
    },
    {
      "midi": 58,
      "hit": false,
      "t": 159274.55999999976,
      "d": 67.76999999998952,
      "v": 69
    },
    {
      "midi": 54,
      "hit": false,
      "t": 159274.55999999976,
      "d": 79.06500000000233,
      "v": 77
    },
    {
      "midi": 63,
      "hit": false,
      "t": 159274.55999999976,
      "d": 79.06500000000233,
      "v": 81
    },
    {
      "midi": 39,
      "hit": false,
      "t": 159635.99999999977,
      "d": 97.89000000001397,
      "v": 77
    },
    {
      "midi": 58,
      "hit": false,
      "t": 159756.47999999978,
      "d": 90.35999999998603,
      "v": 65
    },
    {
      "midi": 63,
      "hit": false,
      "t": 159756.47999999978,
      "d": 105.4199999999837,
      "v": 85
    },
    {
      "midi": 54,
      "hit": false,
      "t": 159756.47999999978,
      "d": 109.18499999999767,
      "v": 69
    },
    {
      "midi": 46,
      "hit": false,
      "t": 160117.91999999978,
      "d": 316.2600000000093,
      "v": 77
    },
    {
      "midi": 56,
      "hit": false,
      "t": 160479.35999999978,
      "d": 94.125,
      "v": 81
    },
    {
      "midi": 61,
      "hit": false,
      "t": 160479.35999999978,
      "d": 116.71499999999651,
      "v": 85
    },
    {
      "midi": 53,
      "hit": false,
      "t": 160479.35999999978,
      "d": 131.77499999999418,
      "v": 81
    },
    {
      "midi": 39,
      "hit": false,
      "t": 160840.79999999978,
      "d": 176.9549999999872,
      "v": 81
    },
    {
      "midi": 58,
      "hit": false,
      "t": 161081.75999999978,
      "d": 60.23999999999069,
      "v": 65
    },
    {
      "midi": 54,
      "hit": false,
      "t": 161081.75999999978,
      "d": 71.53500000000349,
      "v": 77
    },
    {
      "midi": 63,
      "hit": false,
      "t": 161081.75999999978,
      "d": 75.30000000001746,
      "v": 81
    },
    {
      "midi": 39,
      "hit": false,
      "t": 161443.1999999998,
      "d": 112.95000000001164,
      "v": 73
    },
    {
      "midi": 58,
      "hit": false,
      "t": 161563.67999999982,
      "d": 82.8299999999872,
      "v": 69
    },
    {
      "midi": 63,
      "hit": false,
      "t": 161563.67999999982,
      "d": 94.125,
      "v": 85
    },
    {
      "midi": 54,
      "hit": false,
      "t": 161563.67999999982,
      "d": 109.18499999999767,
      "v": 61
    },
    {
      "midi": 46,
      "hit": false,
      "t": 161925.11999999982,
      "d": 335.08499999999185,
      "v": 77
    },
    {
      "midi": 56,
      "hit": false,
      "t": 162286.55999999982,
      "d": 139.30499999999302,
      "v": 77
    },
    {
      "midi": 61,
      "hit": false,
      "t": 162286.55999999982,
      "d": 169.42499999998836,
      "v": 85
    },
    {
      "midi": 53,
      "hit": false,
      "t": 162286.55999999982,
      "d": 184.48499999998603,
      "v": 77
    },
    {
      "midi": 39,
      "hit": false,
      "t": 162647.9999999998,
      "d": 210.8399999999965,
      "v": 77
    },
    {
      "midi": 58,
      "hit": false,
      "t": 162888.9599999998,
      "d": 79.06500000000233,
      "v": 73
    },
    {
      "midi": 63,
      "hit": false,
      "t": 162888.9599999998,
      "d": 79.06500000000233,
      "v": 73
    },
    {
      "midi": 54,
      "hit": false,
      "t": 162888.9599999998,
      "d": 86.59500000000116,
      "v": 73
    },
    {
      "midi": 39,
      "hit": false,
      "t": 163250.3999999998,
      "d": 90.35999999998603,
      "v": 77
    },
    {
      "midi": 58,
      "hit": false,
      "t": 163370.87999999977,
      "d": 90.35999999998603,
      "v": 77
    },
    {
      "midi": 63,
      "hit": false,
      "t": 163370.87999999977,
      "d": 90.35999999998603,
      "v": 77
    },
    {
      "midi": 54,
      "hit": false,
      "t": 163370.87999999977,
      "d": 105.4199999999837,
      "v": 73
    },
    {
      "midi": 46,
      "hit": false,
      "t": 163732.31999999975,
      "d": 365.2050000000163,
      "v": 73
    },
    {
      "midi": 56,
      "hit": false,
      "t": 164093.75999999975,
      "d": 124.24500000002445,
      "v": 81
    },
    {
      "midi": 61,
      "hit": false,
      "t": 164093.75999999975,
      "d": 135.54000000003725,
      "v": 81
    },
    {
      "midi": 53,
      "hit": false,
      "t": 164093.75999999975,
      "d": 150.60000000003492,
      "v": 77
    },
    {
      "midi": 63,
      "hit": false,
      "t": 164455.19999999978,
      "d": 304.9649999999965,
      "v": 85
    },
    {
      "midi": 54,
      "hit": false,
      "t": 164455.19999999978,
      "d": 308.7300000000105,
      "v": 77
    },
    {
      "midi": 58,
      "hit": false,
      "t": 164455.19999999978,
      "d": 308.7300000000105,
      "v": 81
    },
    {
      "midi": 39,
      "hit": false,
      "t": 164455.19999999978,
      "d": 320.0250000000233,
      "v": 81
    }
  ]
}