{
  "jsonPath": "Classical/Ballroom/The Strings Of Paris/feelings.json",
  "path": "Classical\\Ballroom\\The Strings Of Paris\\Feelings.mid",
  "name": "Feelings",
  "difficulty": "Advanced",
  "bpm": 65.00048750365627,
  "notes": [
    {
      "midi": 59,
      "hit": false,
      "t": 6461.49,
      "d": 283.6517187500003,
      "v": 70
    },
    {
      "midi": 64,
      "hit": false,
      "t": 6461.49,
      "d": 298.07468750000044,
      "v": 78
    },
    {
      "midi": 57,
      "hit": false,
      "t": 6461.49,
      "d": 317.3053125000006,
      "v": 50
    },
    {
      "midi": 56,
      "hit": false,
      "t": 7384.56,
      "d": 2293.252031250001,
      "v": 56
    },
    {
      "midi": 60,
      "hit": false,
      "t": 7384.56,
      "d": 2442.289375000001,
      "v": 58
    },
    {
      "midi": 58,
      "hit": false,
      "t": 7384.56,
      "d": 2451.9046875000013,
      "v": 72
    },
    {
      "midi": 63,
      "hit": false,
      "t": 7384.56,
      "d": 3221.1296875000016,
      "v": 56
    },
    {
      "midi": 65,
      "hit": false,
      "t": 8538.397500000001,
      "d": 211.53687499999978,
      "v": 110
    },
    {
      "midi": 53,
      "hit": false,
      "t": 8538.397500000001,
      "d": 274.03640624999935,
      "v": 92
    },
    {
      "midi": 66,
      "hit": false,
      "t": 8769.165,
      "d": 182.69093749999956,
      "v": 78
    },
    {
      "midi": 54,
      "hit": false,
      "t": 8769.165,
      "d": 249.99812500000007,
      "v": 84
    },
    {
      "midi": 56,
      "hit": false,
      "t": 8999.9325,
      "d": 432.68906249999964,
      "v": 90
    },
    {
      "midi": 68,
      "hit": false,
      "t": 8999.9325,
      "d": 528.8421875000004,
      "v": 116
    },
    {
      "midi": 65,
      "hit": false,
      "t": 9461.4675,
      "d": 197.11390625000058,
      "v": 80
    },
    {
      "midi": 49,
      "hit": false,
      "t": 9461.4675,
      "d": 245.19046874999913,
      "v": 78
    },
    {
      "midi": 66,
      "hit": false,
      "t": 9692.235,
      "d": 201.9215624999997,
      "v": 84
    },
    {
      "midi": 51,
      "hit": false,
      "t": 9692.235,
      "d": 230.76749999999993,
      "v": 56
    },
    {
      "midi": 53,
      "hit": false,
      "t": 9923.0025,
      "d": 432.68906249999964,
      "v": 84
    },
    {
      "midi": 68,
      "hit": false,
      "t": 9923.0025,
      "d": 528.8421875000004,
      "v": 116
    },
    {
      "midi": 56,
      "hit": false,
      "t": 10153.770000000002,
      "d": 384.6124999999993,
      "v": 70
    },
    {
      "midi": 60,
      "hit": false,
      "t": 10153.770000000002,
      "d": 384.6124999999993,
      "v": 74
    },
    {
      "midi": 65,
      "hit": false,
      "t": 10384.5375,
      "d": 197.11390625000058,
      "v": 100
    },
    {
      "midi": 44,
      "hit": false,
      "t": 10384.5375,
      "d": 254.8057812499992,
      "v": 72
    },
    {
      "midi": 45,
      "hit": false,
      "t": 10615.305,
      "d": 216.3445312499989,
      "v": 70
    },
    {
      "midi": 66,
      "hit": false,
      "t": 10615.305,
      "d": 221.15218749999804,
      "v": 44
    },
    {
      "midi": 46,
      "hit": false,
      "t": 10846.072499999998,
      "d": 1918.2548437500009,
      "v": 90
    },
    {
      "midi": 68,
      "hit": false,
      "t": 10846.072499999998,
      "d": 2225.9448437500014,
      "v": 98
    },
    {
      "midi": 53,
      "hit": false,
      "t": 11076.840000000002,
      "d": 1730.7562500000004,
      "v": 78
    },
    {
      "midi": 63,
      "hit": false,
      "t": 11076.840000000002,
      "d": 1754.7945312499996,
      "v": 84
    },
    {
      "midi": 58,
      "hit": false,
      "t": 11076.840000000002,
      "d": 3283.6292187500003,
      "v": 72
    },
    {
      "midi": 53,
      "hit": false,
      "t": 12922.980000000001,
      "d": 1269.2212500000005,
      "v": 62
    },
    {
      "midi": 62,
      "hit": false,
      "t": 12922.980000000001,
      "d": 1399.0279687500006,
      "v": 74
    },
    {
      "midi": 71,
      "hit": false,
      "t": 13153.7475,
      "d": 490.3809375000001,
      "v": 110
    },
    {
      "midi": 70,
      "hit": false,
      "t": 13615.2825,
      "d": 504.8039062499993,
      "v": 98
    },
    {
      "midi": 68,
      "hit": false,
      "t": 14076.8175,
      "d": 572.1110937499998,
      "v": 116
    },
    {
      "midi": 68,
      "hit": false,
      "t": 14769.119999999999,
      "d": 437.4967187500006,
      "v": 106
    },
    {
      "midi": 54,
      "hit": false,
      "t": 14769.12,
      "d": 2086.5228125000012,
      "v": 56
    },
    {
      "midi": 58,
      "hit": false,
      "t": 14769.12,
      "d": 2091.3304687500004,
      "v": 60
    },
    {
      "midi": 61,
      "hit": false,
      "t": 14769.12,
      "d": 2115.3687499999996,
      "v": 66
    },
    {
      "midi": 70,
      "hit": false,
      "t": 15230.654999999999,
      "d": 235.57515624999905,
      "v": 84
    },
    {
      "midi": 66,
      "hit": false,
      "t": 15461.422499999999,
      "d": 1961.5237499999985,
      "v": 80
    },
    {
      "midi": 78,
      "hit": false,
      "t": 15490.2684375,
      "d": 533.6498437500013,
      "v": 20
    },
    {
      "midi": 80,
      "hit": false,
      "t": 15605.652187500002,
      "d": 1456.7198437499992,
      "v": 52
    },
    {
      "midi": 85,
      "hit": false,
      "t": 15706.612968750002,
      "d": 1322.1054687499982,
      "v": 90
    },
    {
      "midi": 53,
      "hit": false,
      "t": 17538.33,
      "d": 336.5359375000007,
      "v": 62
    },
    {
      "midi": 56,
      "hit": false,
      "t": 17538.33,
      "d": 336.5359375000007,
      "v": 60
    },
    {
      "midi": 61,
      "hit": false,
      "t": 17538.33,
      "d": 341.34359374999985,
      "v": 66
    },
    {
      "midi": 54,
      "hit": false,
      "t": 18461.4,
      "d": 836.5321875000009,
      "v": 66
    },
    {
      "midi": 58,
      "hit": false,
      "t": 18461.4,
      "d": 874.9934375000012,
      "v": 66
    },
    {
      "midi": 61,
      "hit": false,
      "t": 18461.4,
      "d": 908.6470312500023,
      "v": 78
    },
    {
      "midi": 66,
      "hit": false,
      "t": 20307.540000000005,
      "d": 451.9196875000016,
      "v": 60
    },
    {
      "midi": 58,
      "hit": false,
      "t": 20307.540000000005,
      "d": 485.57328125000276,
      "v": 60
    },
    {
      "midi": 56,
      "hit": false,
      "t": 22153.680000000008,
      "d": 2264.40609375,
      "v": 56
    },
    {
      "midi": 65,
      "hit": false,
      "t": 22153.680000000008,
      "d": 2278.829062500001,
      "v": 92
    },
    {
      "midi": 60,
      "hit": false,
      "t": 22153.680000000008,
      "d": 2298.059687500001,
      "v": 84
    },
    {
      "midi": 65,
      "hit": false,
      "t": 23307.517499999998,
      "d": 197.11390625000058,
      "v": 100
    },
    {
      "midi": 53,
      "hit": false,
      "t": 23307.517499999998,
      "d": 259.61343750000015,
      "v": 96
    },
    {
      "midi": 66,
      "hit": false,
      "t": 23538.285,
      "d": 177.8832812499968,
      "v": 60
    },
    {
      "midi": 54,
      "hit": false,
      "t": 23538.285,
      "d": 230.7674999999981,
      "v": 84
    },
    {
      "midi": 56,
      "hit": false,
      "t": 23769.052499999998,
      "d": 432.68906250000146,
      "v": 98
    },
    {
      "midi": 68,
      "hit": false,
      "t": 23769.052499999998,
      "d": 499.99625000000015,
      "v": 126
    },
    {
      "midi": 65,
      "hit": false,
      "t": 24230.587499999998,
      "d": 206.72921874999884,
      "v": 106
    },
    {
      "midi": 49,
      "hit": false,
      "t": 24230.587499999998,
      "d": 225.95984374999898,
      "v": 72
    },
    {
      "midi": 66,
      "hit": false,
      "t": 24461.354999999996,
      "d": 201.9215624999997,
      "v": 78
    },
    {
      "midi": 51,
      "hit": false,
      "t": 24461.354999999996,
      "d": 240.38281249999636,
      "v": 98
    },
    {
      "midi": 53,
      "hit": false,
      "t": 24692.122499999994,
      "d": 427.8814062499987,
      "v": 78
    },
    {
      "midi": 68,
      "hit": false,
      "t": 24692.122499999994,
      "d": 471.1503124999981,
      "v": 126
    },
    {
      "midi": 63,
      "hit": false,
      "t": 24922.890000000007,
      "d": 307.6900000000023,
      "v": 60
    },
    {
      "midi": 60,
      "hit": false,
      "t": 24922.890000000007,
      "d": 322.11296875000335,
      "v": 84
    },
    {
      "midi": 56,
      "hit": false,
      "t": 24922.890000000007,
      "d": 331.7282812500016,
      "v": 60
    },
    {
      "midi": 65,
      "hit": false,
      "t": 25153.657499999994,
      "d": 206.72921874999884,
      "v": 116
    },
    {
      "midi": 44,
      "hit": false,
      "t": 25153.657499999994,
      "d": 240.38281249999636,
      "v": 84
    },
    {
      "midi": 66,
      "hit": false,
      "t": 25384.424999999992,
      "d": 206.72921874999884,
      "v": 84
    },
    {
      "midi": 45,
      "hit": false,
      "t": 25384.424999999992,
      "d": 216.3445312499971,
      "v": 68
    },
    {
      "midi": 46,
      "hit": false,
      "t": 25615.19249999999,
      "d": 1706.7179687499993,
      "v": 106
    },
    {
      "midi": 68,
      "hit": false,
      "t": 25615.19249999999,
      "d": 2149.022343749999,
      "v": 116
    },
    {
      "midi": 63,
      "hit": false,
      "t": 25845.960000000006,
      "d": 1336.528437500001,
      "v": 90
    },
    {
      "midi": 53,
      "hit": false,
      "t": 25845.960000000006,
      "d": 1384.6049999999996,
      "v": 70
    },
    {
      "midi": 58,
      "hit": false,
      "t": 25845.960000000006,
      "d": 1399.0279687500006,
      "v": 78
    },
    {
      "midi": 53,
      "hit": false,
      "t": 27692.100000000006,
      "d": 1100.9532812500001,
      "v": 68
    },
    {
      "midi": 62,
      "hit": false,
      "t": 27692.100000000006,
      "d": 1134.6068750000013,
      "v": 60
    },
    {
      "midi": 58,
      "hit": false,
      "t": 27692.100000000006,
      "d": 1149.0298437500023,
      "v": 72
    },
    {
      "midi": 71,
      "hit": false,
      "t": 27922.86749999999,
      "d": 447.11203124999884,
      "v": 116
    },
    {
      "midi": 70,
      "hit": false,
      "t": 28384.40249999999,
      "d": 519.2268750000003,
      "v": 106
    },
    {
      "midi": 68,
      "hit": false,
      "t": 28845.93749999999,
      "d": 543.2651562499996,
      "v": 106
    },
    {
      "midi": 68,
      "hit": false,
      "t": 29538.239999999987,
      "d": 418.26609375000044,
      "v": 116
    },
    {
      "midi": 54,
      "hit": false,
      "t": 29538.24000000001,
      "d": 1216.337031250001,
      "v": 60
    },
    {
      "midi": 61,
      "hit": false,
      "t": 29538.24000000001,
      "d": 1778.8328125000007,
      "v": 60
    },
    {
      "midi": 58,
      "hit": false,
      "t": 29538.24000000001,
      "d": 1812.486406250002,
      "v": 84
    },
    {
      "midi": 70,
      "hit": false,
      "t": 29999.774999999987,
      "d": 249.9981250000019,
      "v": 98
    },
    {
      "midi": 66,
      "hit": false,
      "t": 30230.54249999999,
      "d": 1932.677812500002,
      "v": 72
    },
    {
      "midi": 78,
      "hit": false,
      "t": 30259.38843750001,
      "d": 384.6124999999993,
      "v": 24
    },
    {
      "midi": 80,
      "hit": false,
      "t": 30384.387500000008,
      "d": 1346.143750000003,
      "v": 60
    },
    {
      "midi": 85,
      "hit": false,
      "t": 30499.77125000001,
      "d": 1293.2595312500016,
      "v": 42
    },
    {
      "midi": 56,
      "hit": false,
      "t": 32307.45000000001,
      "d": 326.92062499999884,
      "v": 66
    },
    {
      "midi": 53,
      "hit": false,
      "t": 32307.45000000001,
      "d": 341.34359374999985,
      "v": 68
    },
    {
      "midi": 61,
      "hit": false,
      "t": 32307.45000000001,
      "d": 355.7665625000009,
      "v": 66
    },
    {
      "midi": 54,
      "hit": false,
      "t": 33230.52000000002,
      "d": 1221.1446874999965,
      "v": 60
    },
    {
      "midi": 58,
      "hit": false,
      "t": 33230.52000000002,
      "d": 1225.9523437499956,
      "v": 60
    },
    {
      "midi": 61,
      "hit": false,
      "t": 33230.52000000002,
      "d": 1245.1829687499921,
      "v": 72
    },
    {
      "midi": 57,
      "hit": false,
      "t": 35999.73000000001,
      "d": 913.4546875000015,
      "v": 62
    },
    {
      "midi": 59,
      "hit": false,
      "t": 35999.73000000001,
      "d": 913.4546875000015,
      "v": 92
    },
    {
      "midi": 64,
      "hit": false,
      "t": 35999.73000000001,
      "d": 913.4546875000015,
      "v": 96
    },
    {
      "midi": 60,
      "hit": false,
      "t": 36922.80000000001,
      "d": 2701.902812499997,
      "v": 84
    },
    {
      "midi": 65,
      "hit": false,
      "t": 36922.80000000001,
      "d": 2745.171718749996,
      "v": 96
    },
    {
      "midi": 60,
      "hit": false,
      "t": 39692.01000000001,
      "d": 499.9962499999965,
      "v": 88
    },
    {
      "midi": 63,
      "hit": false,
      "t": 39692.01000000001,
      "d": 668.264218749995,
      "v": 90
    },
    {
      "midi": 56,
      "hit": false,
      "t": 39692.01000000001,
      "d": 687.4948437499916,
      "v": 72
    },
    {
      "midi": 53,
      "hit": false,
      "t": 40615.08,
      "d": 995.1848437499939,
      "v": 70
    },
    {
      "midi": 58,
      "hit": false,
      "t": 40615.08,
      "d": 1245.1829687499921,
      "v": 78
    },
    {
      "midi": 63,
      "hit": false,
      "t": 40615.08,
      "d": 1259.6059374999895,
      "v": 90
    },
    {
      "midi": 53,
      "hit": false,
      "t": 42461.21999999999,
      "d": 942.3006249999962,
      "v": 52
    },
    {
      "midi": 58,
      "hit": false,
      "t": 42461.21999999999,
      "d": 1009.6078124999985,
      "v": 48
    },
    {
      "midi": 62,
      "hit": false,
      "t": 42461.21999999999,
      "d": 1009.6078124999985,
      "v": 70
    },
    {
      "midi": 58,
      "hit": false,
      "t": 44307.35999999998,
      "d": 2014.407968749998,
      "v": 66
    },
    {
      "midi": 54,
      "hit": false,
      "t": 44307.35999999998,
      "d": 2100.945781249997,
      "v": 60
    },
    {
      "midi": 63,
      "hit": false,
      "t": 44307.35999999998,
      "d": 2269.2137499999953,
      "v": 90
    },
    {
      "midi": 53,
      "hit": false,
      "t": 47076.56999999998,
      "d": 307.6900000000023,
      "v": 60
    },
    {
      "midi": 61,
      "hit": false,
      "t": 47076.56999999998,
      "d": 312.49765625000146,
      "v": 60
    },
    {
      "midi": 56,
      "hit": false,
      "t": 47076.56999999998,
      "d": 326.92062499999884,
      "v": 66
    },
    {
      "midi": 54,
      "hit": false,
      "t": 47999.63999999998,
      "d": 923.0699999999997,
      "v": 78
    },
    {
      "midi": 58,
      "hit": false,
      "t": 47999.63999999998,
      "d": 932.685312499998,
      "v": 72
    },
    {
      "midi": 61,
      "hit": false,
      "t": 47999.63999999998,
      "d": 971.1465624999983,
      "v": 84
    },
    {
      "midi": 66,
      "hit": false,
      "t": 49845.77999999998,
      "d": 134.61437499999738,
      "v": 30
    },
    {
      "midi": 60,
      "hit": false,
      "t": 51691.91999999998,
      "d": 1990.369687499995,
      "v": 78
    },
    {
      "midi": 65,
      "hit": false,
      "t": 51691.91999999998,
      "d": 1990.369687499995,
      "v": 96
    },
    {
      "midi": 56,
      "hit": false,
      "t": 51691.91999999998,
      "d": 1999.9849999999933,
      "v": 52
    },
    {
      "midi": 60,
      "hit": false,
      "t": 54461.12999999997,
      "d": 302.8823437500032,
      "v": 88
    },
    {
      "midi": 63,
      "hit": false,
      "t": 54461.12999999997,
      "d": 307.6900000000023,
      "v": 84
    },
    {
      "midi": 56,
      "hit": false,
      "t": 54461.12999999997,
      "d": 341.3435937500035,
      "v": 56
    },
    {
      "midi": 63,
      "hit": false,
      "t": 55384.19999999997,
      "d": 942.3006250000035,
      "v": 98
    },
    {
      "midi": 53,
      "hit": false,
      "t": 55384.19999999997,
      "d": 951.9159375000017,
      "v": 74
    },
    {
      "midi": 58,
      "hit": false,
      "t": 55384.19999999997,
      "d": 951.9159375000017,
      "v": 78
    },
    {
      "midi": 84,
      "hit": false,
      "t": 56557.26812499997,
      "d": 230.76750000000175,
      "v": 66
    },
    {
      "midi": 75,
      "hit": false,
      "t": 56778.42031249998,
      "d": 504.80390624999563,
      "v": 14
    },
    {
      "midi": 58,
      "hit": false,
      "t": 57230.339999999975,
      "d": 951.9159374999945,
      "v": 52
    },
    {
      "midi": 53,
      "hit": false,
      "t": 57230.339999999975,
      "d": 971.146562499991,
      "v": 50
    },
    {
      "midi": 62,
      "hit": false,
      "t": 57230.339999999975,
      "d": 1004.8001562499921,
      "v": 70
    },
    {
      "midi": 80,
      "hit": false,
      "t": 57239.95531249997,
      "d": 1115.376249999994,
      "v": 52
    },
    {
      "midi": 58,
      "hit": false,
      "t": 59076.47999999997,
      "d": 2086.5228124999994,
      "v": 60
    },
    {
      "midi": 54,
      "hit": false,
      "t": 59076.47999999997,
      "d": 2120.1764062500006,
      "v": 48
    },
    {
      "midi": 63,
      "hit": false,
      "t": 59076.47999999997,
      "d": 2163.4453125,
      "v": 78
    },
    {
      "midi": 89,
      "hit": false,
      "t": 59999.54999999997,
      "d": 1639.4107812500006,
      "v": 44
    },
    {
      "midi": 85,
      "hit": false,
      "t": 59999.54999999997,
      "d": 1682.6796875,
      "v": 32
    },
    {
      "midi": 56,
      "hit": false,
      "t": 61845.689999999966,
      "d": 336.53593750000437,
      "v": 60
    },
    {
      "midi": 53,
      "hit": false,
      "t": 61845.689999999966,
      "d": 341.3435937500035,
      "v": 50
    },
    {
      "midi": 61,
      "hit": false,
      "t": 61845.689999999966,
      "d": 360.57421875,
      "v": 56
    },
    {
      "midi": 54,
      "hit": false,
      "t": 62768.759999999966,
      "d": 576.9187500000044,
      "v": 66
    },
    {
      "midi": 58,
      "hit": false,
      "t": 62768.759999999966,
      "d": 576.9187500000044,
      "v": 72
    },
    {
      "midi": 61,
      "hit": false,
      "t": 62768.759999999966,
      "d": 586.5340625000026,
      "v": 60
    },
    {
      "midi": 60,
      "hit": false,
      "t": 65076.43499999997,
      "d": 668.2642187500023,
      "v": 88
    },
    {
      "midi": 57,
      "hit": false,
      "t": 65076.43499999997,
      "d": 697.1101562499971,
      "v": 78
    },
    {
      "midi": 65,
      "hit": false,
      "t": 65076.43499999997,
      "d": 701.9178125000035,
      "v": 106
    },
    {
      "midi": 58,
      "hit": false,
      "t": 66461.03999999996,
      "d": 1259.605937500004,
      "v": 42
    },
    {
      "midi": 61,
      "hit": false,
      "t": 66461.03999999996,
      "d": 1490.3734375000058,
      "v": 66
    },
    {
      "midi": 65,
      "hit": false,
      "t": 66461.03999999996,
      "d": 1548.06531250001,
      "v": 92
    },
    {
      "midi": 61,
      "hit": false,
      "t": 68307.17999999998,
      "d": 711.5331250000017,
      "v": 32
    },
    {
      "midi": 58,
      "hit": false,
      "t": 69230.24999999999,
      "d": 139.4220312499965,
      "v": 56
    },
    {
      "midi": 61,
      "hit": false,
      "t": 69230.24999999999,
      "d": 173.07562499999767,
      "v": 44
    },
    {
      "midi": 65,
      "hit": false,
      "t": 69230.24999999999,
      "d": 182.69093749999593,
      "v": 74
    },
    {
      "midi": 65,
      "hit": false,
      "t": 70153.31999999998,
      "d": 1384.6050000000105,
      "v": 70
    },
    {
      "midi": 63,
      "hit": false,
      "t": 70153.31999999998,
      "d": 1432.6815625000163,
      "v": 66
    },
    {
      "midi": 59,
      "hit": false,
      "t": 70153.31999999998,
      "d": 1485.565781250014,
      "v": 70
    },
    {
      "midi": 59,
      "hit": false,
      "t": 71999.45999999999,
      "d": 379.8048437499965,
      "v": 78
    },
    {
      "midi": 63,
      "hit": false,
      "t": 71999.45999999999,
      "d": 413.4584374999977,
      "v": 72
    },
    {
      "midi": 66,
      "hit": false,
      "t": 71999.45999999999,
      "d": 451.9196874999907,
      "v": 52
    },
    {
      "midi": 56,
      "hit": false,
      "t": 72922.52999999998,
      "d": 379.8048437499965,
      "v": 52
    },
    {
      "midi": 65,
      "hit": false,
      "t": 72922.52999999998,
      "d": 379.8048437499965,
      "v": 58
    },
    {
      "midi": 61,
      "hit": false,
      "t": 72922.52999999998,
      "d": 389.42015624999476,
      "v": 66
    },
    {
      "midi": 58,
      "hit": false,
      "t": 73845.59999999998,
      "d": 2086.5228124999994,
      "v": 52
    },
    {
      "midi": 61,
      "hit": false,
      "t": 73845.59999999998,
      "d": 2115.368749999994,
      "v": 60
    },
    {
      "midi": 65,
      "hit": false,
      "t": 73845.59999999998,
      "d": 2283.63671875,
      "v": 60
    },
    {
      "midi": 61,
      "hit": false,
      "t": 76153.27499999998,
      "d": 370.18953124999825,
      "v": 52
    },
    {
      "midi": 63,
      "hit": false,
      "t": 76614.80999999998,
      "d": 307.6900000000023,
      "v": 78
    },
    {
      "midi": 65,
      "hit": false,
      "t": 77076.34499999999,
      "d": 115.3837499999936,
      "v": 60
    },
    {
      "midi": 68,
      "hit": false,
      "t": 77537.87999999998,
      "d": 855.7628125000047,
      "v": 60
    },
    {
      "midi": 63,
      "hit": false,
      "t": 77537.87999999998,
      "d": 1918.2548437499936,
      "v": 78
    },
    {
      "midi": 59,
      "hit": false,
      "t": 77537.87999999998,
      "d": 3384.590000000011,
      "v": 62
    },
    {
      "midi": 66,
      "hit": false,
      "t": 78460.94999999998,
      "d": 850.9551562499983,
      "v": 84
    },
    {
      "midi": 65,
      "hit": false,
      "t": 79384.01999999997,
      "d": 980.7618750000111,
      "v": 88
    },
    {
      "midi": 63,
      "hit": false,
      "t": 80307.08999999998,
      "d": 749.9943750000093,
      "v": 78
    },
    {
      "midi": 58,
      "hit": false,
      "t": 81230.15999999999,
      "d": 2173.0606249999983,
      "v": 48
    },
    {
      "midi": 61,
      "hit": false,
      "t": 81230.15999999999,
      "d": 2399.0204687499936,
      "v": 48
    },
    {
      "midi": 65,
      "hit": false,
      "t": 81230.15999999999,
      "d": 2932.6703124999913,
      "v": 74
    },
    {
      "midi": 61,
      "hit": false,
      "t": 84922.43999999997,
      "d": 1466.3351562499884,
      "v": 48
    },
    {
      "midi": 66,
      "hit": false,
      "t": 84922.43999999997,
      "d": 1495.1810937499831,
      "v": 56
    },
    {
      "midi": 58,
      "hit": false,
      "t": 84922.43999999997,
      "d": 1509.6040624999878,
      "v": 50
    },
    {
      "midi": 72,
      "hit": false,
      "t": 88614.71999999997,
      "d": 716.3407812500081,
      "v": 92
    },
    {
      "midi": 68,
      "hit": false,
      "t": 88614.71999999997,
      "d": 721.1484375000146,
      "v": 78
    },
    {
      "midi": 65,
      "hit": false,
      "t": 88614.71999999997,
      "d": 754.8020312500157,
      "v": 96
    },
    {
      "midi": 68,
      "hit": false,
      "t": 90460.85999999999,
      "d": 548.0728125000023,
      "v": 78
    },
    {
      "midi": 65,
      "hit": false,
      "t": 90460.85999999999,
      "d": 552.8804687500087,
      "v": 80
    },
    {
      "midi": 69,
      "hit": false,
      "t": 92307,
      "d": 365.38187499999185,
      "v": 80
    },
    {
      "midi": 66,
      "hit": false,
      "t": 92307,
      "d": 379.8048437499965,
      "v": 48
    },
    {
      "midi": 61,
      "hit": false,
      "t": 92307,
      "d": 389.42015624999476,
      "v": 90
    },
    {
      "midi": 59,
      "hit": false,
      "t": 93460.8375,
      "d": 269.22874999999476,
      "v": 78
    },
    {
      "midi": 64,
      "hit": false,
      "t": 93460.8375,
      "d": 302.8823437499959,
      "v": 110
    },
    {
      "midi": 68,
      "hit": false,
      "t": 93460.8375,
      "d": 302.8823437499959,
      "v": 98
    },
    {
      "midi": 64,
      "hit": false,
      "t": 94153.13999999998,
      "d": 1730.7562500000058,
      "v": 92
    },
    {
      "midi": 71,
      "hit": false,
      "t": 94153.13999999998,
      "d": 1802.87109375,
      "v": 92
    },
    {
      "midi": 68,
      "hit": false,
      "t": 94153.13999999998,
      "d": 1812.4864062499983,
      "v": 90
    },
    {
      "midi": 60,
      "hit": false,
      "t": 95999.27999999998,
      "d": 2740.364062499997,
      "v": 84
    },
    {
      "midi": 65,
      "hit": false,
      "t": 95999.27999999998,
      "d": 2745.1717187500035,
      "v": 96
    },
    {
      "midi": 60,
      "hit": false,
      "t": 98768.48999999999,
      "d": 499.9962499999965,
      "v": 88
    },
    {
      "midi": 63,
      "hit": false,
      "t": 98768.48999999999,
      "d": 668.2642187500023,
      "v": 90
    },
    {
      "midi": 56,
      "hit": false,
      "t": 98768.48999999999,
      "d": 687.4948437499988,
      "v": 72
    },
    {
      "midi": 53,
      "hit": false,
      "t": 99691.55999999998,
      "d": 995.1848437500012,
      "v": 70
    },
    {
      "midi": 58,
      "hit": false,
      "t": 99691.55999999998,
      "d": 1245.1829687499994,
      "v": 78
    },
    {
      "midi": 63,
      "hit": false,
      "t": 99691.55999999998,
      "d": 1259.605937500004,
      "v": 90
    },
    {
      "midi": 53,
      "hit": false,
      "t": 101537.69999999998,
      "d": 942.3006250000035,
      "v": 52
    },
    {
      "midi": 58,
      "hit": false,
      "t": 101537.69999999998,
      "d": 1009.6078125000058,
      "v": 48
    },
    {
      "midi": 62,
      "hit": false,
      "t": 101537.69999999998,
      "d": 1009.6078125000058,
      "v": 70
    },
    {
      "midi": 58,
      "hit": false,
      "t": 103383.83999999998,
      "d": 2014.4079687499907,
      "v": 66
    },
    {
      "midi": 54,
      "hit": false,
      "t": 103383.83999999998,
      "d": 2100.9457812499895,
      "v": 42
    },
    {
      "midi": 63,
      "hit": false,
      "t": 103383.83999999998,
      "d": 2269.2137499999953,
      "v": 90
    },
    {
      "midi": 53,
      "hit": false,
      "t": 106153.04999999997,
      "d": 307.6900000000023,
      "v": 60
    },
    {
      "midi": 61,
      "hit": false,
      "t": 106153.04999999997,
      "d": 312.49765625000873,
      "v": 60
    },
    {
      "midi": 56,
      "hit": false,
      "t": 106153.04999999997,
      "d": 326.9206250000134,
      "v": 66
    },
    {
      "midi": 54,
      "hit": false,
      "t": 107076.12,
      "d": 923.0699999999924,
      "v": 78
    },
    {
      "midi": 58,
      "hit": false,
      "t": 107076.12,
      "d": 932.6853124999907,
      "v": 72
    },
    {
      "midi": 61,
      "hit": false,
      "t": 107076.12,
      "d": 971.1465624999837,
      "v": 84
    },
    {
      "midi": 66,
      "hit": false,
      "t": 108922.25999999998,
      "d": 134.61437500000466,
      "v": 30
    },
    {
      "midi": 60,
      "hit": false,
      "t": 110768.39999999998,
      "d": 1990.3696875000023,
      "v": 78
    },
    {
      "midi": 65,
      "hit": false,
      "t": 110768.39999999998,
      "d": 1990.3696875000023,
      "v": 96
    },
    {
      "midi": 56,
      "hit": false,
      "t": 110768.39999999998,
      "d": 1999.9850000000006,
      "v": 52
    },
    {
      "midi": 60,
      "hit": false,
      "t": 113537.60999999999,
      "d": 302.8823437499959,
      "v": 88
    },
    {
      "midi": 63,
      "hit": false,
      "t": 113537.60999999999,
      "d": 307.6900000000023,
      "v": 84
    },
    {
      "midi": 56,
      "hit": false,
      "t": 113537.60999999999,
      "d": 341.3435937500035,
      "v": 56
    },
    {
      "midi": 63,
      "hit": false,
      "t": 114460.68,
      "d": 942.3006250000035,
      "v": 98
    },
    {
      "midi": 53,
      "hit": false,
      "t": 114460.68,
      "d": 951.9159375000017,
      "v": 74
    },
    {
      "midi": 58,
      "hit": false,
      "t": 114460.68,
      "d": 951.9159375000017,
      "v": 78
    },
    {
      "midi": 58,
      "hit": false,
      "t": 116306.82,
      "d": 951.9159375000017,
      "v": 52
    },
    {
      "midi": 53,
      "hit": false,
      "t": 116306.82,
      "d": 971.1465624999983,
      "v": 50
    },
    {
      "midi": 62,
      "hit": false,
      "t": 116306.82,
      "d": 1004.8001562499994,
      "v": 70
    },
    {
      "midi": 58,
      "hit": false,
      "t": 118152.96,
      "d": 2086.5228124999994,
      "v": 60
    },
    {
      "midi": 54,
      "hit": false,
      "t": 118152.96,
      "d": 2120.1764062500006,
      "v": 48
    },
    {
      "midi": 63,
      "hit": false,
      "t": 118152.96,
      "d": 2163.4453125,
      "v": 78
    },
    {
      "midi": 56,
      "hit": false,
      "t": 120922.17000000001,
      "d": 336.5359374999971,
      "v": 60
    },
    {
      "midi": 53,
      "hit": false,
      "t": 120922.17000000001,
      "d": 341.3435937500035,
      "v": 50
    },
    {
      "midi": 61,
      "hit": false,
      "t": 120922.17000000001,
      "d": 360.57421875,
      "v": 56
    },
    {
      "midi": 54,
      "hit": false,
      "t": 121845.24000000002,
      "d": 576.9187499999971,
      "v": 66
    },
    {
      "midi": 58,
      "hit": false,
      "t": 121845.24000000002,
      "d": 576.9187499999971,
      "v": 72
    },
    {
      "midi": 61,
      "hit": false,
      "t": 121845.24000000002,
      "d": 586.5340624999953,
      "v": 60
    },
    {
      "midi": 60,
      "hit": false,
      "t": 124152.91500000001,
      "d": 668.2642187500023,
      "v": 88
    },
    {
      "midi": 57,
      "hit": false,
      "t": 124152.91500000001,
      "d": 697.1101562499971,
      "v": 78
    },
    {
      "midi": 65,
      "hit": false,
      "t": 124152.91500000001,
      "d": 701.9178125000035,
      "v": 106
    },
    {
      "midi": 58,
      "hit": false,
      "t": 125537.52,
      "d": 1259.605937500004,
      "v": 68
    },
    {
      "midi": 61,
      "hit": false,
      "t": 125537.52,
      "d": 1490.3734375000058,
      "v": 66
    },
    {
      "midi": 65,
      "hit": false,
      "t": 125537.52,
      "d": 1548.06531250001,
      "v": 92
    },
    {
      "midi": 61,
      "hit": false,
      "t": 127383.66000000002,
      "d": 711.5331250000017,
      "v": 32
    },
    {
      "midi": 58,
      "hit": false,
      "t": 128306.73000000003,
      "d": 139.4220312499965,
      "v": 56
    },
    {
      "midi": 61,
      "hit": false,
      "t": 128306.73000000003,
      "d": 173.07562499999767,
      "v": 44
    },
    {
      "midi": 65,
      "hit": false,
      "t": 128306.73000000003,
      "d": 182.69093749999593,
      "v": 74
    },
    {
      "midi": 65,
      "hit": false,
      "t": 129229.80000000002,
      "d": 1384.6050000000105,
      "v": 70
    },
    {
      "midi": 63,
      "hit": false,
      "t": 129229.80000000002,
      "d": 1432.6815625000163,
      "v": 66
    },
    {
      "midi": 59,
      "hit": false,
      "t": 129229.80000000002,
      "d": 1485.565781250014,
      "v": 70
    },
    {
      "midi": 59,
      "hit": false,
      "t": 131075.94000000003,
      "d": 379.8048437499965,
      "v": 78
    },
    {
      "midi": 63,
      "hit": false,
      "t": 131075.94000000003,
      "d": 413.4584374999977,
      "v": 72
    },
    {
      "midi": 66,
      "hit": false,
      "t": 131075.94000000003,
      "d": 451.9196874999907,
      "v": 52
    },
    {
      "midi": 56,
      "hit": false,
      "t": 131999.01000000004,
      "d": 379.8048437499965,
      "v": 52
    },
    {
      "midi": 65,
      "hit": false,
      "t": 131999.01000000004,
      "d": 379.8048437499965,
      "v": 58
    },
    {
      "midi": 61,
      "hit": false,
      "t": 131999.01000000004,
      "d": 389.4201562500093,
      "v": 66
    },
    {
      "midi": 58,
      "hit": false,
      "t": 132922.08000000005,
      "d": 2086.522812500014,
      "v": 52
    },
    {
      "midi": 61,
      "hit": false,
      "t": 132922.08000000005,
      "d": 2115.3687500000233,
      "v": 60
    },
    {
      "midi": 65,
      "hit": false,
      "t": 132922.08000000005,
      "d": 2283.636718750029,
      "v": 60
    },
    {
      "midi": 61,
      "hit": false,
      "t": 135229.75500000006,
      "d": 370.1895312500128,
      "v": 52
    },
    {
      "midi": 63,
      "hit": false,
      "t": 135691.29000000007,
      "d": 307.6900000000023,
      "v": 78
    },
    {
      "midi": 65,
      "hit": false,
      "t": 136152.82500000007,
      "d": 115.38375000000815,
      "v": 60
    },
    {
      "midi": 68,
      "hit": false,
      "t": 136614.36000000007,
      "d": 855.7628125000047,
      "v": 60
    },
    {
      "midi": 63,
      "hit": false,
      "t": 136614.36000000007,
      "d": 1918.2548437500081,
      "v": 78
    },
    {
      "midi": 59,
      "hit": false,
      "t": 136614.36000000007,
      "d": 3384.5899999999674,
      "v": 62
    },
    {
      "midi": 66,
      "hit": false,
      "t": 137537.43000000008,
      "d": 850.9551562500128,
      "v": 84
    },
    {
      "midi": 65,
      "hit": false,
      "t": 138460.5000000001,
      "d": 980.7618749999674,
      "v": 88
    },
    {
      "midi": 63,
      "hit": false,
      "t": 139383.57000000007,
      "d": 749.9943749999802,
      "v": 78
    },
    {
      "midi": 58,
      "hit": false,
      "t": 140306.64000000004,
      "d": 2173.060625000013,
      "v": 48
    },
    {
      "midi": 61,
      "hit": false,
      "t": 140306.64000000004,
      "d": 2399.020468750008,
      "v": 48
    },
    {
      "midi": 65,
      "hit": false,
      "t": 140306.64000000004,
      "d": 2932.670312500006,
      "v": 74
    },
    {
      "midi": 61,
      "hit": false,
      "t": 143998.92000000007,
      "d": 1466.3351562499884,
      "v": 48
    },
    {
      "midi": 66,
      "hit": false,
      "t": 143998.92000000007,
      "d": 1495.1810937499977,
      "v": 56
    },
    {
      "midi": 58,
      "hit": false,
      "t": 143998.92000000007,
      "d": 1509.6040625000023,
      "v": 16
    },
    {
      "midi": 65,
      "hit": false,
      "t": 147691.20000000007,
      "d": 2548.0578124999884,
      "v": 74
    },
    {
      "midi": 60,
      "hit": false,
      "t": 147691.20000000007,
      "d": 2649.018593749992,
      "v": 88
    },
    {
      "midi": 65,
      "hit": false,
      "t": 148845.0375,
      "d": 182.69093750001048,
      "v": 62
    },
    {
      "midi": 53,
      "hit": false,
      "t": 148845.0375,
      "d": 230.7675000000163,
      "v": 68
    },
    {
      "midi": 66,
      "hit": false,
      "t": 149075.80500000002,
      "d": 206.72921874999884,
      "v": 60
    },
    {
      "midi": 54,
      "hit": false,
      "t": 149075.80500000002,
      "d": 259.6134374999965,
      "v": 72
    },
    {
      "midi": 56,
      "hit": false,
      "t": 149306.5725,
      "d": 427.8814062500023,
      "v": 106
    },
    {
      "midi": 68,
      "hit": false,
      "t": 149306.5725,
      "d": 461.5350000000035,
      "v": 116
    },
    {
      "midi": 49,
      "hit": false,
      "t": 149768.1075,
      "d": 225.95984374999534,
      "v": 78
    },
    {
      "midi": 65,
      "hit": false,
      "t": 149768.1075,
      "d": 230.7674999999872,
      "v": 80
    },
    {
      "midi": 66,
      "hit": false,
      "t": 149998.875,
      "d": 201.92156250000698,
      "v": 66
    },
    {
      "midi": 51,
      "hit": false,
      "t": 149998.875,
      "d": 230.7675000000163,
      "v": 90
    },
    {
      "midi": 53,
      "hit": false,
      "t": 150229.64250000002,
      "d": 403.84312500001397,
      "v": 78
    },
    {
      "midi": 68,
      "hit": false,
      "t": 150229.64250000002,
      "d": 461.5350000000035,
      "v": 116
    },
    {
      "midi": 60,
      "hit": false,
      "t": 150460.41000000006,
      "d": 932.6853125000198,
      "v": 96
    },
    {
      "midi": 63,
      "hit": false,
      "t": 150460.41000000006,
      "d": 2749.9793750000244,
      "v": 90
    },
    {
      "midi": 65,
      "hit": false,
      "t": 150691.17750000002,
      "d": 187.49859375000233,
      "v": 96
    },
    {
      "midi": 44,
      "hit": false,
      "t": 150691.17750000002,
      "d": 230.7675000000163,
      "v": 98
    },
    {
      "midi": 66,
      "hit": false,
      "t": 150921.94500000004,
      "d": 206.72921874999884,
      "v": 78
    },
    {
      "midi": 45,
      "hit": false,
      "t": 150921.94500000004,
      "d": 211.5368749999907,
      "v": 88
    },
    {
      "midi": 46,
      "hit": false,
      "t": 151152.71250000002,
      "d": 1331.7207812500128,
      "v": 106
    },
    {
      "midi": 68,
      "hit": false,
      "t": 151152.71250000002,
      "d": 2182.6759375000256,
      "v": 126
    },
    {
      "midi": 58,
      "hit": false,
      "t": 151383.48000000007,
      "d": 3543.2426562500186,
      "v": 52
    },
    {
      "midi": 62,
      "hit": false,
      "t": 153229.62000000008,
      "d": 1610.5648437500058,
      "v": 96
    },
    {
      "midi": 71,
      "hit": false,
      "t": 153460.38750000004,
      "d": 649.0335937500058,
      "v": 116
    },
    {
      "midi": 70,
      "hit": false,
      "t": 154152.69000000006,
      "d": 461.5350000000035,
      "v": 106
    },
    {
      "midi": 68,
      "hit": false,
      "t": 154614.22500000006,
      "d": 365.38187499999185,
      "v": 106
    },
    {
      "midi": 68,
      "hit": false,
      "t": 155075.76000000007,
      "d": 461.5350000000035,
      "v": 126
    },
    {
      "midi": 58,
      "hit": false,
      "t": 155075.7600000001,
      "d": 2586.5190625000105,
      "v": 52
    },
    {
      "midi": 63,
      "hit": false,
      "t": 155075.7600000001,
      "d": 2634.5956250000163,
      "v": 84
    },
    {
      "midi": 70,
      "hit": false,
      "t": 155537.29500000007,
      "d": 230.7674999999872,
      "v": 106
    },
    {
      "midi": 66,
      "hit": false,
      "t": 155768.06250000006,
      "d": 1759.602187499986,
      "v": 90
    },
    {
      "midi": 61,
      "hit": false,
      "t": 157844.97000000012,
      "d": 903.8393750000105,
      "v": 56
    },
    {
      "midi": 56,
      "hit": false,
      "t": 157844.97000000012,
      "d": 908.6470312500023,
      "v": 84
    },
    {
      "midi": 54,
      "hit": false,
      "t": 158768.04000000012,
      "d": 384.61249999998836,
      "v": 78
    },
    {
      "midi": 58,
      "hit": false,
      "t": 158768.04000000012,
      "d": 384.61249999998836,
      "v": 52
    },
    {
      "midi": 61,
      "hit": false,
      "t": 158768.04000000012,
      "d": 394.22781250000116,
      "v": 60
    },
    {
      "midi": 60,
      "hit": false,
      "t": 161075.7150000001,
      "d": 596.149374999979,
      "v": 88
    },
    {
      "midi": 57,
      "hit": false,
      "t": 161075.7150000001,
      "d": 624.9953124999884,
      "v": 74
    },
    {
      "midi": 65,
      "hit": false,
      "t": 161075.7150000001,
      "d": 663.4565624999814,
      "v": 92
    },
    {
      "midi": 61,
      "hit": false,
      "t": 162460.3200000001,
      "d": 2846.132500000007,
      "v": 56
    },
    {
      "midi": 58,
      "hit": false,
      "t": 162460.3200000001,
      "d": 2865.3631250000035,
      "v": 65
    },
    {
      "midi": 65,
      "hit": false,
      "t": 162460.3200000001,
      "d": 2913.4396875000093,
      "v": 84
    },
    {
      "midi": 59,
      "hit": false,
      "t": 166152.60000000012,
      "d": 1024.0307812499814,
      "v": 62
    },
    {
      "midi": 63,
      "hit": false,
      "t": 166152.60000000012,
      "d": 1024.0307812499814,
      "v": 44
    },
    {
      "midi": 65,
      "hit": false,
      "t": 166152.60000000012,
      "d": 1033.6460937499942,
      "v": 74
    },
    {
      "midi": 63,
      "hit": false,
      "t": 167998.74000000014,
      "d": 336.53593750001164,
      "v": 66
    },
    {
      "midi": 59,
      "hit": false,
      "t": 167998.74000000014,
      "d": 355.76656250000815,
      "v": 70
    },
    {
      "midi": 66,
      "hit": false,
      "t": 167998.74000000014,
      "d": 413.4584374999977,
      "v": 66
    },
    {
      "midi": 56,
      "hit": false,
      "t": 168921.81000000014,
      "d": 322.1129687499779,
      "v": 60
    },
    {
      "midi": 61,
      "hit": false,
      "t": 168921.81000000014,
      "d": 322.1129687499779,
      "v": 60
    },
    {
      "midi": 65,
      "hit": false,
      "t": 168921.81000000014,
      "d": 341.3435937499744,
      "v": 62
    },
    {
      "midi": 58,
      "hit": false,
      "t": 169844.88000000012,
      "d": 1144.2221874999814,
      "v": 52
    },
    {
      "midi": 61,
      "hit": false,
      "t": 169844.88000000012,
      "d": 1451.9121874999837,
      "v": 52
    },
    {
      "midi": 65,
      "hit": false,
      "t": 169844.88000000012,
      "d": 1730.7562499999767,
      "v": 70
    },
    {
      "midi": 63,
      "hit": false,
      "t": 172614.09000000008,
      "d": 399.035468749993,
      "v": 84
    },
    {
      "midi": 65,
      "hit": false,
      "t": 173075.6250000001,
      "d": 115.38375000000815,
      "v": 84
    },
    {
      "midi": 63,
      "hit": false,
      "t": 173537.1600000001,
      "d": 437.49671874998603,
      "v": 90
    },
    {
      "midi": 68,
      "hit": false,
      "t": 173537.1600000001,
      "d": 456.72734374998254,
      "v": 48
    },
    {
      "midi": 59,
      "hit": false,
      "t": 173537.1600000001,
      "d": 480.7656249999709,
      "v": 68
    },
    {
      "midi": 59,
      "hit": false,
      "t": 174460.23000000007,
      "d": 249.9981250000128,
      "v": 62
    },
    {
      "midi": 66,
      "hit": false,
      "t": 174460.23000000007,
      "d": 249.9981250000128,
      "v": 32
    },
    {
      "midi": 63,
      "hit": false,
      "t": 174460.23000000007,
      "d": 254.80578125000466,
      "v": 78
    },
    {
      "midi": 59,
      "hit": false,
      "t": 175383.30000000008,
      "d": 874.9934374999721,
      "v": 66
    },
    {
      "midi": 65,
      "hit": false,
      "t": 175383.30000000008,
      "d": 903.8393749999814,
      "v": 70
    },
    {
      "midi": 63,
      "hit": false,
      "t": 176306.37000000005,
      "d": 341.3435937499744,
      "v": 66
    },
    {
      "midi": 59,
      "hit": false,
      "t": 176306.37000000005,
      "d": 413.45843749996857,
      "v": 68
    },
    {
      "midi": 65,
      "hit": false,
      "t": 177229.44000000003,
      "d": 3312.4751562500023,
      "v": 66
    },
    {
      "midi": 61,
      "hit": false,
      "t": 177229.44000000003,
      "d": 3322.090468750015,
      "v": 65
    },
    {
      "midi": 58,
      "hit": false,
      "t": 177229.44000000003,
      "d": 3360.551718750008,
      "v": 65
    },
    {
      "midi": 61,
      "hit": false,
      "t": 180921.72000000006,
      "d": 2913.4396875000093,
      "v": 50
    },
    {
      "midi": 66,
      "hit": false,
      "t": 180921.72000000006,
      "d": 2947.0932812500105,
      "v": 50
    },
    {
      "midi": 58,
      "hit": false,
      "t": 180921.72000000006,
      "d": 3028.8234375000175,
      "v": 50
    },
    {
      "midi": 60,
      "hit": false,
      "t": 184614.00000000006,
      "d": 2605.749687499978,
      "v": 74
    },
    {
      "midi": 56,
      "hit": false,
      "t": 184614.00000000006,
      "d": 2610.5573437499697,
      "v": 65
    },
    {
      "midi": 65,
      "hit": false,
      "t": 184614.00000000006,
      "d": 2624.9803124999744,
      "v": 66
    },
    {
      "midi": 66,
      "hit": false,
      "t": 188306.28000000003,
      "d": 394.22781250000116,
      "v": 72
    },
    {
      "midi": 69,
      "hit": false,
      "t": 188306.28000000003,
      "d": 423.0737500000105,
      "v": 50
    },
    {
      "midi": 61,
      "hit": false,
      "t": 188306.28000000003,
      "d": 437.49671875001513,
      "v": 44
    },
    {
      "midi": 59,
      "hit": false,
      "t": 189460.11750000005,
      "d": 211.5368750000198,
      "v": 78
    },
    {
      "midi": 64,
      "hit": false,
      "t": 189460.11750000005,
      "d": 225.95984375002445,
      "v": 84
    },
    {
      "midi": 68,
      "hit": false,
      "t": 189460.11750000005,
      "d": 230.7675000000163,
      "v": 90
    },
    {
      "midi": 68,
      "hit": false,
      "t": 190152.42000000007,
      "d": 2855.7478124999907,
      "v": 60
    },
    {
      "midi": 71,
      "hit": false,
      "t": 190152.42000000007,
      "d": 2870.1707812499953,
      "v": 62
    },
    {
      "midi": 64,
      "hit": false,
      "t": 190152.42000000007,
      "d": 2874.978437499987,
      "v": 84
    },
    {
      "midi": 60,
      "hit": false,
      "t": 193844.70000000007,
      "d": 2499.9812499999825,
      "v": 70
    },
    {
      "midi": 65,
      "hit": false,
      "t": 193844.70000000007,
      "d": 2600.942031249986,
      "v": 70
    },
    {
      "midi": 65,
      "hit": false,
      "t": 194998.53750000003,
      "d": 211.5368749999907,
      "v": 80
    },
    {
      "midi": 66,
      "hit": false,
      "t": 195229.30500000002,
      "d": 192.30624999999418,
      "v": 72
    },
    {
      "midi": 68,
      "hit": false,
      "t": 195460.0725,
      "d": 461.5350000000035,
      "v": 126
    },
    {
      "midi": 65,
      "hit": false,
      "t": 195921.6075,
      "d": 225.95984374999534,
      "v": 88
    },
    {
      "midi": 66,
      "hit": false,
      "t": 196152.375,
      "d": 201.92156250000698,
      "v": 56
    },
    {
      "midi": 68,
      "hit": false,
      "t": 196383.14250000002,
      "d": 461.5350000000035,
      "v": 116
    },
    {
      "midi": 63,
      "hit": false,
      "t": 196613.91000000006,
      "d": 235.57515624997905,
      "v": 66
    },
    {
      "midi": 60,
      "hit": false,
      "t": 196613.91000000006,
      "d": 249.9981249999837,
      "v": 70
    },
    {
      "midi": 56,
      "hit": false,
      "t": 196613.91000000006,
      "d": 288.4593749999767,
      "v": 44
    },
    {
      "midi": 65,
      "hit": false,
      "t": 196844.67750000002,
      "d": 211.5368749999907,
      "v": 92
    },
    {
      "midi": 66,
      "hit": false,
      "t": 197075.445,
      "d": 230.7674999999872,
      "v": 72
    },
    {
      "midi": 68,
      "hit": false,
      "t": 197306.2125,
      "d": 1235.5676562500012,
      "v": 90
    },
    {
      "midi": 53,
      "hit": false,
      "t": 197536.98000000004,
      "d": 716.3407812500081,
      "v": 56
    },
    {
      "midi": 58,
      "hit": false,
      "t": 197536.98000000004,
      "d": 730.7637500000128,
      "v": 56
    },
    {
      "midi": 63,
      "hit": false,
      "t": 197536.98000000004,
      "d": 735.5714062500047,
      "v": 78
    },
    {
      "midi": 62,
      "hit": false,
      "t": 199383.12000000002,
      "d": 658.6489062499895,
      "v": 66
    },
    {
      "midi": 58,
      "hit": false,
      "t": 199383.12000000002,
      "d": 673.0718749999942,
      "v": 42
    },
    {
      "midi": 53,
      "hit": false,
      "t": 199383.12000000002,
      "d": 677.879531249986,
      "v": 44
    },
    {
      "midi": 71,
      "hit": false,
      "t": 199613.88749999998,
      "d": 620.1876562499965,
      "v": 116
    },
    {
      "midi": 70,
      "hit": false,
      "t": 200306.18999999997,
      "d": 461.5350000000035,
      "v": 98
    },
    {
      "midi": 68,
      "hit": false,
      "t": 200767.72499999998,
      "d": 326.92062499999884,
      "v": 98
    },
    {
      "midi": 68,
      "hit": false,
      "t": 201229.25999999998,
      "d": 384.61249999998836,
      "v": 106
    },
    {
      "midi": 58,
      "hit": false,
      "t": 201229.26,
      "d": 2096.1381249999977,
      "v": 50
    },
    {
      "midi": 54,
      "hit": false,
      "t": 201229.26,
      "d": 2115.368749999994,
      "v": 55
    },
    {
      "midi": 63,
      "hit": false,
      "t": 201229.26,
      "d": 2187.4835937499884,
      "v": 72
    },
    {
      "midi": 70,
      "hit": false,
      "t": 201690.79499999995,
      "d": 216.34453125001164,
      "v": 90
    },
    {
      "midi": 66,
      "hit": false,
      "t": 201921.56249999997,
      "d": 1913.4471874999872,
      "v": 80
    },
    {
      "midi": 61,
      "hit": false,
      "t": 203998.46999999997,
      "d": 225.95984374999534,
      "v": 60
    },
    {
      "midi": 53,
      "hit": false,
      "t": 203998.46999999997,
      "d": 249.9981249999837,
      "v": 52
    },
    {
      "midi": 56,
      "hit": false,
      "t": 203998.46999999997,
      "d": 249.9981249999837,
      "v": 60
    },
    {
      "midi": 54,
      "hit": false,
      "t": 204921.53999999995,
      "d": 841.33984375,
      "v": 50
    },
    {
      "midi": 58,
      "hit": false,
      "t": 204921.53999999995,
      "d": 846.1474999999919,
      "v": 55
    },
    {
      "midi": 61,
      "hit": false,
      "t": 204921.53999999995,
      "d": 865.3781249999884,
      "v": 60
    },
    {
      "midi": 65,
      "hit": false,
      "t": 208383.05249999993,
      "d": 1884.6012499999779,
      "v": 70
    },
    {
      "midi": 60,
      "hit": false,
      "t": 208383.05249999993,
      "d": 1913.4471874999872,
      "v": 70
    },
    {
      "midi": 56,
      "hit": false,
      "t": 208383.05249999993,
      "d": 1932.6778124999837,
      "v": 65
    },
    {
      "midi": 63,
      "hit": false,
      "t": 211383.0299999999,
      "d": 269.2287500000093,
      "v": 72
    },
    {
      "midi": 60,
      "hit": false,
      "t": 211383.0299999999,
      "d": 283.65171875001397,
      "v": 80
    },
    {
      "midi": 56,
      "hit": false,
      "t": 211383.0299999999,
      "d": 302.8823437500105,
      "v": 60
    },
    {
      "midi": 58,
      "hit": false,
      "t": 212306.09999999992,
      "d": 846.147500000021,
      "v": 60
    },
    {
      "midi": 63,
      "hit": false,
      "t": 212306.09999999992,
      "d": 855.7628125000338,
      "v": 66
    },
    {
      "midi": 53,
      "hit": false,
      "t": 212306.09999999992,
      "d": 889.4164062500349,
      "v": 60
    },
    {
      "midi": 53,
      "hit": false,
      "t": 214152.23999999993,
      "d": 966.3389062499919,
      "v": 56
    },
    {
      "midi": 58,
      "hit": false,
      "t": 214152.23999999993,
      "d": 1033.6460937499942,
      "v": 52
    },
    {
      "midi": 62,
      "hit": false,
      "t": 214152.23999999993,
      "d": 1038.453749999986,
      "v": 58
    },
    {
      "midi": 54,
      "hit": false,
      "t": 215998.37999999992,
      "d": 3504.7814062499965,
      "v": 68
    },
    {
      "midi": 63,
      "hit": false,
      "t": 215998.37999999992,
      "d": 3524.012031249993,
      "v": 84
    },
    {
      "midi": 58,
      "hit": false,
      "t": 215998.37999999992,
      "d": 3576.8962499999907,
      "v": 65
    },
    {
      "midi": 61,
      "hit": false,
      "t": 219690.65999999992,
      "d": 572.1110937499907,
      "v": 65
    },
    {
      "midi": 54,
      "hit": false,
      "t": 219690.65999999992,
      "d": 576.9187499999825,
      "v": 65
    },
    {
      "midi": 58,
      "hit": false,
      "t": 219690.65999999992,
      "d": 591.3417187499872,
      "v": 65
    },
    {
      "midi": 54,
      "hit": false,
      "t": 222690.6374999999,
      "d": 115.38375000000815,
      "v": 90
    },
    {
      "midi": 58,
      "hit": false,
      "t": 222690.6374999999,
      "d": 115.38375000000815,
      "v": 90
    },
    {
      "midi": 61,
      "hit": false,
      "t": 222690.6374999999,
      "d": 115.38375000000815,
      "v": 90
    },
    {
      "midi": 60,
      "hit": false,
      "t": 223152.1724999999,
      "d": 2663.4415624999965,
      "v": 74
    },
    {
      "midi": 65,
      "hit": false,
      "t": 223152.1724999999,
      "d": 2701.9028124999895,
      "v": 70
    },
    {
      "midi": 56,
      "hit": false,
      "t": 223152.1724999999,
      "d": 2711.5181250000023,
      "v": 48
    },
    {
      "midi": 60,
      "hit": false,
      "t": 226152.1499999999,
      "d": 269.2287500000093,
      "v": 68
    },
    {
      "midi": 63,
      "hit": false,
      "t": 226152.1499999999,
      "d": 283.65171875001397,
      "v": 66
    },
    {
      "midi": 56,
      "hit": false,
      "t": 226152.1499999999,
      "d": 298.0746875000186,
      "v": 65
    },
    {
      "midi": 63,
      "hit": false,
      "t": 227075.2199999999,
      "d": 951.9159374999872,
      "v": 84
    },
    {
      "midi": 53,
      "hit": false,
      "t": 227075.2199999999,
      "d": 971.1465624999837,
      "v": 70
    },
    {
      "midi": 58,
      "hit": false,
      "t": 227075.2199999999,
      "d": 980.7618749999965,
      "v": 70
    },
    {
      "midi": 53,
      "hit": false,
      "t": 228921.35999999993,
      "d": 1033.6460937499942,
      "v": 52
    },
    {
      "midi": 62,
      "hit": false,
      "t": 228921.35999999993,
      "d": 1033.6460937499942,
      "v": 46
    },
    {
      "midi": 58,
      "hit": false,
      "t": 228921.35999999993,
      "d": 1038.453749999986,
      "v": 50
    },
    {
      "midi": 58,
      "hit": false,
      "t": 230767.4999999999,
      "d": 3076.899999999994,
      "v": 42
    },
    {
      "midi": 54,
      "hit": false,
      "t": 230767.4999999999,
      "d": 3124.9765625,
      "v": 44
    },
    {
      "midi": 63,
      "hit": false,
      "t": 230767.4999999999,
      "d": 3187.4760937500105,
      "v": 78
    },
    {
      "midi": 54,
      "hit": false,
      "t": 234459.77999999994,
      "d": 663.4565625000105,
      "v": 60
    },
    {
      "midi": 61,
      "hit": false,
      "t": 234459.77999999994,
      "d": 663.4565625000105,
      "v": 50
    },
    {
      "midi": 58,
      "hit": false,
      "t": 234459.77999999994,
      "d": 677.8795312500151,
      "v": 50
    },
    {
      "midi": 60,
      "hit": false,
      "t": 237921.29249999995,
      "d": 2365.366875000007,
      "v": 80
    },
    {
      "midi": 56,
      "hit": false,
      "t": 237921.29249999995,
      "d": 2374.98218750002,
      "v": 65
    },
    {
      "midi": 65,
      "hit": false,
      "t": 237921.29249999995,
      "d": 2442.289375000022,
      "v": 78
    },
    {
      "midi": 60,
      "hit": false,
      "t": 240921.26999999996,
      "d": 269.2287499999802,
      "v": 78
    },
    {
      "midi": 56,
      "hit": false,
      "t": 240921.26999999996,
      "d": 278.844062499993,
      "v": 70
    },
    {
      "midi": 63,
      "hit": false,
      "t": 240921.26999999996,
      "d": 278.844062499993,
      "v": 72
    },
    {
      "midi": 53,
      "hit": false,
      "t": 241844.33999999994,
      "d": 1653.8337499999907,
      "v": 60
    },
    {
      "midi": 63,
      "hit": false,
      "t": 241844.33999999994,
      "d": 1663.4490625000035,
      "v": 84
    },
    {
      "midi": 58,
      "hit": false,
      "t": 241844.33999999994,
      "d": 1697.1026562500047,
      "v": 56
    },
    {
      "midi": 53,
      "hit": false,
      "t": 243690.47999999995,
      "d": 1365.374375000014,
      "v": 52
    },
    {
      "midi": 58,
      "hit": false,
      "t": 243690.47999999995,
      "d": 1418.2585937500116,
      "v": 48
    },
    {
      "midi": 62,
      "hit": false,
      "t": 243690.47999999995,
      "d": 1423.0662500000035,
      "v": 66
    },
    {
      "midi": 58,
      "hit": false,
      "t": 245536.61999999997,
      "d": 3504.7814062499965,
      "v": 52
    },
    {
      "midi": 54,
      "hit": false,
      "t": 245536.61999999997,
      "d": 3509.5890624999884,
      "v": 55
    },
    {
      "midi": 63,
      "hit": false,
      "t": 245536.61999999997,
      "d": 3538.4349999999977,
      "v": 78
    },
    {
      "midi": 61,
      "hit": false,
      "t": 249228.89999999997,
      "d": 2812.478906250006,
      "v": 48
    },
    {
      "midi": 58,
      "hit": false,
      "t": 249228.89999999997,
      "d": 2822.0942187500186,
      "v": 52
    },
    {
      "midi": 54,
      "hit": false,
      "t": 249228.89999999997,
      "d": 2846.132500000007,
      "v": 60
    },
    {
      "midi": 54,
      "hit": false,
      "t": 252228.87749999997,
      "d": 115.38375000000815,
      "v": 84
    },
    {
      "midi": 58,
      "hit": false,
      "t": 252228.87749999997,
      "d": 115.38375000000815,
      "v": 80
    },
    {
      "midi": 61,
      "hit": false,
      "t": 252228.87749999997,
      "d": 115.38375000000815,
      "v": 85
    },
    {
      "midi": 56,
      "hit": false,
      "t": 252690.41249999998,
      "d": 2524.01953125,
      "v": 65
    },
    {
      "midi": 60,
      "hit": false,
      "t": 252690.41249999998,
      "d": 2557.673125000001,
      "v": 74
    },
    {
      "midi": 65,
      "hit": false,
      "t": 252690.41249999998,
      "d": 2615.3649999999907,
      "v": 74
    },
    {
      "midi": 63,
      "hit": false,
      "t": 255690.38999999996,
      "d": 216.34453125001164,
      "v": 78
    },
    {
      "midi": 60,
      "hit": false,
      "t": 255690.38999999996,
      "d": 249.9981250000128,
      "v": 84
    },
    {
      "midi": 56,
      "hit": false,
      "t": 255690.38999999996,
      "d": 269.2287500000093,
      "v": 70
    },
    {
      "midi": 53,
      "hit": false,
      "t": 256613.45999999996,
      "d": 1730.7562500000058,
      "v": 70
    },
    {
      "midi": 63,
      "hit": false,
      "t": 256613.45999999996,
      "d": 1764.409843750007,
      "v": 90
    },
    {
      "midi": 58,
      "hit": false,
      "t": 256613.45999999996,
      "d": 1788.4481249999953,
      "v": 70
    },
    {
      "midi": 53,
      "hit": false,
      "t": 258459.59999999995,
      "d": 1124.991562500014,
      "v": 60
    },
    {
      "midi": 58,
      "hit": false,
      "t": 258459.59999999995,
      "d": 1177.8757812500116,
      "v": 52
    },
    {
      "midi": 62,
      "hit": false,
      "t": 258459.59999999995,
      "d": 1187.4910937500244,
      "v": 52
    },
    {
      "midi": 58,
      "hit": false,
      "t": 260305.73999999996,
      "d": 3192.283749999973,
      "v": 52
    },
    {
      "midi": 63,
      "hit": false,
      "t": 260305.73999999996,
      "d": 3201.899062499957,
      "v": 78
    },
    {
      "midi": 54,
      "hit": false,
      "t": 260305.73999999996,
      "d": 3211.5143749999406,
      "v": 65
    },
    {
      "midi": 58,
      "hit": false,
      "t": 263998.0199999999,
      "d": 2961.5162500000442,
      "v": 50
    },
    {
      "midi": 54,
      "hit": false,
      "t": 263998.0199999999,
      "d": 2990.3621875000536,
      "v": 50
    },
    {
      "midi": 61,
      "hit": false,
      "t": 263998.0199999999,
      "d": 3024.0157812500256,
      "v": 50
    },
    {
      "midi": 56,
      "hit": false,
      "t": 267459.5324999999,
      "d": 2855.7478124999907,
      "v": 60
    },
    {
      "midi": 60,
      "hit": false,
      "t": 267459.5324999999,
      "d": 2879.786093749979,
      "v": 74
    },
    {
      "midi": 65,
      "hit": false,
      "t": 267459.5324999999,
      "d": 2884.59375,
      "v": 84
    },
    {
      "midi": 63,
      "hit": false,
      "t": 270459.5099999999,
      "d": 264.42109374998836,
      "v": 72
    },
    {
      "midi": 60,
      "hit": false,
      "t": 270459.5099999999,
      "d": 278.844062499993,
      "v": 80
    },
    {
      "midi": 56,
      "hit": false,
      "t": 270459.5099999999,
      "d": 288.4593749999767,
      "v": 70
    },
    {
      "midi": 53,
      "hit": false,
      "t": 271382.5799999999,
      "d": 1677.872031249979,
      "v": 70
    },
    {
      "midi": 63,
      "hit": false,
      "t": 271382.5799999999,
      "d": 1692.2949999999837,
      "v": 90
    },
    {
      "midi": 58,
      "hit": false,
      "t": 271382.5799999999,
      "d": 1725.9485937499558,
      "v": 70
    },
    {
      "midi": 53,
      "hit": false,
      "t": 273228.71999999986,
      "d": 1360.566718749993,
      "v": 45
    },
    {
      "midi": 62,
      "hit": false,
      "t": 273228.71999999986,
      "d": 1456.7198437500047,
      "v": 60
    },
    {
      "midi": 58,
      "hit": false,
      "t": 273228.71999999986,
      "d": 1519.219374999986,
      "v": 45
    },
    {
      "midi": 63,
      "hit": false,
      "t": 275074.8599999998,
      "d": 3471.1278124999953,
      "v": 78
    },
    {
      "midi": 54,
      "hit": false,
      "t": 275074.8599999998,
      "d": 3519.204374999972,
      "v": 65
    },
    {
      "midi": 58,
      "hit": false,
      "t": 275074.8599999998,
      "d": 3528.8196874999558,
      "v": 70
    },
    {
      "midi": 58,
      "hit": false,
      "t": 278767.1399999998,
      "d": 557.688124999986,
      "v": 48
    },
    {
      "midi": 61,
      "hit": false,
      "t": 278767.1399999998,
      "d": 557.688124999986,
      "v": 44
    },
    {
      "midi": 54,
      "hit": false,
      "t": 278767.1399999998,
      "d": 567.3034374999697,
      "v": 56
    },
    {
      "midi": 56,
      "hit": false,
      "t": 282228.65249999973,
      "d": 115.38374999997905,
      "v": 78
    },
    {
      "midi": 65,
      "hit": false,
      "t": 282228.65249999973,
      "d": 124.99906249996275,
      "v": 92
    },
    {
      "midi": 60,
      "hit": false,
      "t": 282228.65249999973,
      "d": 129.8067187499837,
      "v": 92
    }
  ]
}