{
  "jsonPath": "Soul/Vapor Soul/Private/my-secret-lover-egyptian-lover-remake.json",
  "path": "Soul\\Vapor Soul\\Private\\My Secret Lover (Egyptian Lover Remake).mid",
  "name": "My Secret Lover (Egyptian Lover Remake)",
  "difficulty": "Advanced",
  "bpm": 120,
  "notes": [
    {
      "midi": 36,
      "hit": false,
      "t": 3989.5833333333335,
      "d": 468.75000000000045,
      "v": 96
    },
    {
      "midi": 48,
      "hit": false,
      "t": 3992.1875,
      "d": 41.666666666666515,
      "v": 96
    },
    {
      "midi": 55,
      "hit": false,
      "t": 3992.1875,
      "d": 41.666666666666515,
      "v": 127
    },
    {
      "midi": 64,
      "hit": false,
      "t": 3992.1875,
      "d": 406.25,
      "v": 99
    },
    {
      "midi": 67,
      "hit": false,
      "t": 3994.7916666666665,
      "d": 403.6458333333335,
      "v": 101
    },
    {
      "midi": 62,
      "hit": false,
      "t": 3994.7916666666665,
      "d": 934.8958333333335,
      "v": 96
    },
    {
      "midi": 64,
      "hit": false,
      "t": 3994.7916666666665,
      "d": 934.8958333333335,
      "v": 96
    },
    {
      "midi": 67,
      "hit": false,
      "t": 3994.7916666666665,
      "d": 934.8958333333335,
      "v": 96
    },
    {
      "midi": 58,
      "hit": false,
      "t": 3997.395833333333,
      "d": 401.04166666666697,
      "v": 90
    },
    {
      "midi": 74,
      "hit": false,
      "t": 3997.395833333333,
      "d": 401.04166666666697,
      "v": 102
    },
    {
      "midi": 58,
      "hit": false,
      "t": 4000,
      "d": 929.6875,
      "v": 96
    },
    {
      "midi": 55,
      "hit": false,
      "t": 4106.770833333333,
      "d": 31.25,
      "v": 60
    },
    {
      "midi": 55,
      "hit": false,
      "t": 4231.770833333333,
      "d": 31.25,
      "v": 66
    },
    {
      "midi": 48,
      "hit": false,
      "t": 4356.770833333333,
      "d": 41.66666666666697,
      "v": 96
    },
    {
      "midi": 55,
      "hit": false,
      "t": 4359.375,
      "d": 49.47916666666697,
      "v": 127
    },
    {
      "midi": 55,
      "hit": false,
      "t": 4484.375,
      "d": 18.22916666666697,
      "v": 63
    },
    {
      "midi": 55,
      "hit": false,
      "t": 4606.770833333334,
      "d": 31.25,
      "v": 53
    },
    {
      "midi": 48,
      "hit": false,
      "t": 4734.375000000001,
      "d": 39.0625,
      "v": 96
    },
    {
      "midi": 55,
      "hit": false,
      "t": 4734.375000000001,
      "d": 46.875,
      "v": 127
    },
    {
      "midi": 36,
      "hit": false,
      "t": 4734.375000000001,
      "d": 36.45833333333303,
      "v": 96
    },
    {
      "midi": 55,
      "hit": false,
      "t": 4856.770833333334,
      "d": 10.41666666666697,
      "v": 30
    },
    {
      "midi": 62,
      "hit": false,
      "t": 4929.6875,
      "d": 10.41666666666697,
      "v": 96
    },
    {
      "midi": 65,
      "hit": false,
      "t": 4932.291666666667,
      "d": 7.8125,
      "v": 96
    },
    {
      "midi": 70,
      "hit": false,
      "t": 4932.291666666667,
      "d": 7.8125,
      "v": 96
    },
    {
      "midi": 62,
      "hit": false,
      "t": 4940.104166666667,
      "d": 979.166666666667,
      "v": 96
    },
    {
      "midi": 65,
      "hit": false,
      "t": 4942.708333333334,
      "d": 976.5625,
      "v": 96
    },
    {
      "midi": 69,
      "hit": false,
      "t": 4942.708333333334,
      "d": 976.5625,
      "v": 96
    },
    {
      "midi": 65,
      "hit": false,
      "t": 4960.9375,
      "d": 414.0625,
      "v": 101
    },
    {
      "midi": 34,
      "hit": false,
      "t": 4981.770833333334,
      "d": 914.0625,
      "v": 96
    },
    {
      "midi": 74,
      "hit": false,
      "t": 4984.375,
      "d": 414.0625,
      "v": 101
    },
    {
      "midi": 57,
      "hit": false,
      "t": 4984.375000000001,
      "d": 26.04166666666697,
      "v": 44
    },
    {
      "midi": 81,
      "hit": false,
      "t": 5002.604166666667,
      "d": 416.66666666666606,
      "v": 101
    },
    {
      "midi": 46,
      "hit": false,
      "t": 5106.770833333335,
      "d": 41.66666666666697,
      "v": 96
    },
    {
      "midi": 57,
      "hit": false,
      "t": 5106.770833333335,
      "d": 49.47916666666697,
      "v": 127
    },
    {
      "midi": 57,
      "hit": false,
      "t": 5231.770833333335,
      "d": 28.64583333333303,
      "v": 53
    },
    {
      "midi": 57,
      "hit": false,
      "t": 5356.770833333335,
      "d": 31.25,
      "v": 44
    },
    {
      "midi": 46,
      "hit": false,
      "t": 5481.770833333335,
      "d": 49.47916666666697,
      "v": 96
    },
    {
      "midi": 57,
      "hit": false,
      "t": 5484.375000000002,
      "d": 57.29166666666697,
      "v": 127
    },
    {
      "midi": 57,
      "hit": false,
      "t": 5606.770833333336,
      "d": 39.0625,
      "v": 43
    },
    {
      "midi": 53,
      "hit": false,
      "t": 5731.770833333336,
      "d": 28.64583333333303,
      "v": 81
    },
    {
      "midi": 53,
      "hit": false,
      "t": 5856.770833333336,
      "d": 10.41666666666697,
      "v": 35
    },
    {
      "midi": 60,
      "hit": false,
      "t": 5919.270833333334,
      "d": 20.83333333333394,
      "v": 96
    },
    {
      "midi": 58,
      "hit": false,
      "t": 5921.875000000001,
      "d": 18.22916666666697,
      "v": 96
    },
    {
      "midi": 64,
      "hit": false,
      "t": 5921.875000000001,
      "d": 18.22916666666697,
      "v": 96
    },
    {
      "midi": 67,
      "hit": false,
      "t": 5921.875000000001,
      "d": 18.22916666666697,
      "v": 96
    },
    {
      "midi": 62,
      "hit": false,
      "t": 5942.708333333335,
      "d": 28.64583333333303,
      "v": 96
    },
    {
      "midi": 67,
      "hit": false,
      "t": 5942.708333333335,
      "d": 28.64583333333303,
      "v": 96
    },
    {
      "midi": 72,
      "hit": false,
      "t": 5942.708333333335,
      "d": 28.64583333333303,
      "v": 96
    },
    {
      "midi": 62,
      "hit": false,
      "t": 5971.354166666668,
      "d": 968.75,
      "v": 96
    },
    {
      "midi": 64,
      "hit": false,
      "t": 5971.354166666668,
      "d": 968.75,
      "v": 96
    },
    {
      "midi": 72,
      "hit": false,
      "t": 5973.958333333335,
      "d": 966.145833333333,
      "v": 96
    },
    {
      "midi": 34,
      "hit": false,
      "t": 5986.979166666667,
      "d": 471.35416666666697,
      "v": 96
    },
    {
      "midi": 46,
      "hit": false,
      "t": 5986.97916666667,
      "d": 54.6875,
      "v": 96
    },
    {
      "midi": 52,
      "hit": false,
      "t": 5989.583333333333,
      "d": 406.2500000000009,
      "v": 102
    },
    {
      "midi": 62,
      "hit": false,
      "t": 5989.583333333333,
      "d": 408.8541666666679,
      "v": 99
    },
    {
      "midi": 60,
      "hit": false,
      "t": 5989.583333333337,
      "d": 62.5,
      "v": 127
    },
    {
      "midi": 72,
      "hit": false,
      "t": 5992.1875,
      "d": 406.2500000000009,
      "v": 101
    },
    {
      "midi": 76,
      "hit": false,
      "t": 5992.1875,
      "d": 406.2500000000009,
      "v": 90
    },
    {
      "midi": 60,
      "hit": false,
      "t": 6106.770833333337,
      "d": 18.22916666666697,
      "v": 31
    },
    {
      "midi": 60,
      "hit": false,
      "t": 6231.770833333337,
      "d": 31.25,
      "v": 57
    },
    {
      "midi": 46,
      "hit": false,
      "t": 6356.770833333337,
      "d": 49.47916666666697,
      "v": 96
    },
    {
      "midi": 60,
      "hit": false,
      "t": 6356.770833333337,
      "d": 59.89583333333394,
      "v": 127
    },
    {
      "midi": 60,
      "hit": false,
      "t": 6481.770833333338,
      "d": 39.0625,
      "v": 31
    },
    {
      "midi": 60,
      "hit": false,
      "t": 6606.770833333338,
      "d": 39.0625,
      "v": 66
    },
    {
      "midi": 34,
      "hit": false,
      "t": 6734.375000000001,
      "d": 36.45833333333303,
      "v": 96
    },
    {
      "midi": 46,
      "hit": false,
      "t": 6734.375000000005,
      "d": 46.875,
      "v": 96
    },
    {
      "midi": 60,
      "hit": false,
      "t": 6734.375000000005,
      "d": 46.875,
      "v": 127
    },
    {
      "midi": 60,
      "hit": false,
      "t": 6856.770833333338,
      "d": 28.64583333333303,
      "v": 65
    },
    {
      "midi": 62,
      "hit": false,
      "t": 6940.104166666668,
      "d": 1000,
      "v": 96
    },
    {
      "midi": 65,
      "hit": false,
      "t": 6940.104166666668,
      "d": 1000,
      "v": 96
    },
    {
      "midi": 70,
      "hit": false,
      "t": 6940.104166666668,
      "d": 1000,
      "v": 96
    },
    {
      "midi": 34,
      "hit": false,
      "t": 6981.770833333334,
      "d": 914.0625,
      "v": 96
    },
    {
      "midi": 58,
      "hit": false,
      "t": 6981.770833333338,
      "d": 18.22916666666697,
      "v": 52
    },
    {
      "midi": 46,
      "hit": false,
      "t": 7106.770833333338,
      "d": 49.47916666666697,
      "v": 96
    },
    {
      "midi": 58,
      "hit": false,
      "t": 7106.770833333338,
      "d": 59.89583333333394,
      "v": 127
    },
    {
      "midi": 58,
      "hit": false,
      "t": 7231.7708333333385,
      "d": 18.22916666666697,
      "v": 31
    },
    {
      "midi": 58,
      "hit": false,
      "t": 7356.7708333333385,
      "d": 28.64583333333303,
      "v": 62
    },
    {
      "midi": 65,
      "hit": false,
      "t": 7359.375000000001,
      "d": 411.45833333333303,
      "v": 90
    },
    {
      "midi": 46,
      "hit": false,
      "t": 7481.7708333333385,
      "d": 59.89583333333394,
      "v": 96
    },
    {
      "midi": 58,
      "hit": false,
      "t": 7484.3750000000055,
      "d": 59.89583333333394,
      "v": 127
    },
    {
      "midi": 58,
      "hit": false,
      "t": 7606.770833333339,
      "d": 18.22916666666697,
      "v": 69
    },
    {
      "midi": 70,
      "hit": false,
      "t": 7609.375000000001,
      "d": 286.45833333333303,
      "v": 90
    },
    {
      "midi": 53,
      "hit": false,
      "t": 7731.770833333339,
      "d": 39.0625,
      "v": 93
    },
    {
      "midi": 53,
      "hit": false,
      "t": 7856.770833333339,
      "d": 7.8125,
      "v": 34
    },
    {
      "midi": 60,
      "hit": false,
      "t": 7940.104166666668,
      "d": 20.83333333333394,
      "v": 96
    },
    {
      "midi": 64,
      "hit": false,
      "t": 7942.708333333335,
      "d": 18.22916666666697,
      "v": 96
    },
    {
      "midi": 67,
      "hit": false,
      "t": 7942.708333333335,
      "d": 18.22916666666697,
      "v": 96
    },
    {
      "midi": 62,
      "hit": false,
      "t": 7960.937500000002,
      "d": 937.5,
      "v": 96
    },
    {
      "midi": 58,
      "hit": false,
      "t": 7963.541666666669,
      "d": 934.895833333333,
      "v": 96
    },
    {
      "midi": 64,
      "hit": false,
      "t": 7963.541666666669,
      "d": 934.895833333333,
      "v": 96
    },
    {
      "midi": 67,
      "hit": false,
      "t": 7963.541666666669,
      "d": 934.895833333333,
      "v": 96
    },
    {
      "midi": 36,
      "hit": false,
      "t": 7986.979166666667,
      "d": 471.35416666666697,
      "v": 96
    },
    {
      "midi": 48,
      "hit": false,
      "t": 7986.979166666673,
      "d": 44.27083333333394,
      "v": 96
    },
    {
      "midi": 67,
      "hit": false,
      "t": 7989.583333333334,
      "d": 406.25,
      "v": 99
    },
    {
      "midi": 74,
      "hit": false,
      "t": 7989.583333333334,
      "d": 408.85416666666606,
      "v": 101
    },
    {
      "midi": 55,
      "hit": false,
      "t": 7989.58333333334,
      "d": 41.66666666666697,
      "v": 127
    },
    {
      "midi": 58,
      "hit": false,
      "t": 7992.187500000001,
      "d": 406.2499999999991,
      "v": 102
    },
    {
      "midi": 62,
      "hit": false,
      "t": 7992.187500000001,
      "d": 406.2499999999991,
      "v": 102
    },
    {
      "midi": 64,
      "hit": false,
      "t": 7992.187500000001,
      "d": 406.2499999999991,
      "v": 90
    },
    {
      "midi": 55,
      "hit": false,
      "t": 8106.77083333334,
      "d": 28.64583333333303,
      "v": 60
    },
    {
      "midi": 55,
      "hit": false,
      "t": 8231.77083333334,
      "d": 28.64583333333394,
      "v": 66
    },
    {
      "midi": 48,
      "hit": false,
      "t": 8356.77083333334,
      "d": 39.0625,
      "v": 96
    },
    {
      "midi": 55,
      "hit": false,
      "t": 8356.77083333334,
      "d": 49.47916666666606,
      "v": 127
    },
    {
      "midi": 55,
      "hit": false,
      "t": 8481.77083333334,
      "d": 18.22916666666606,
      "v": 63
    },
    {
      "midi": 55,
      "hit": false,
      "t": 8606.77083333334,
      "d": 28.64583333333394,
      "v": 53
    },
    {
      "midi": 48,
      "hit": false,
      "t": 8731.77083333334,
      "d": 39.0625,
      "v": 96
    },
    {
      "midi": 55,
      "hit": false,
      "t": 8734.375000000005,
      "d": 46.875,
      "v": 127
    },
    {
      "midi": 34,
      "hit": false,
      "t": 8736.979166666668,
      "d": 33.85416666666606,
      "v": 96
    },
    {
      "midi": 55,
      "hit": false,
      "t": 8856.77083333334,
      "d": 7.8125,
      "v": 30
    },
    {
      "midi": 61,
      "hit": false,
      "t": 8898.437500000002,
      "d": 28.64583333333212,
      "v": 96
    },
    {
      "midi": 64,
      "hit": false,
      "t": 8898.437500000002,
      "d": 31.24999999999818,
      "v": 96
    },
    {
      "midi": 69,
      "hit": false,
      "t": 8901.041666666668,
      "d": 28.64583333333212,
      "v": 96
    },
    {
      "midi": 61,
      "hit": false,
      "t": 8929.6875,
      "d": 958.3333333333339,
      "v": 96
    },
    {
      "midi": 64,
      "hit": false,
      "t": 8929.6875,
      "d": 958.3333333333339,
      "v": 96
    },
    {
      "midi": 69,
      "hit": false,
      "t": 8929.6875,
      "d": 958.3333333333339,
      "v": 96
    },
    {
      "midi": 33,
      "hit": false,
      "t": 8981.770833333334,
      "d": 903.6458333333339,
      "v": 96
    },
    {
      "midi": 57,
      "hit": false,
      "t": 8981.77083333334,
      "d": 28.64583333333394,
      "v": 44
    },
    {
      "midi": 45,
      "hit": false,
      "t": 9106.77083333334,
      "d": 39.0625,
      "v": 96
    },
    {
      "midi": 57,
      "hit": false,
      "t": 9106.77083333334,
      "d": 49.47916666666606,
      "v": 127
    },
    {
      "midi": 57,
      "hit": false,
      "t": 9231.77083333334,
      "d": 28.64583333333394,
      "v": 53
    },
    {
      "midi": 57,
      "hit": false,
      "t": 9356.77083333334,
      "d": 28.64583333333394,
      "v": 44
    },
    {
      "midi": 45,
      "hit": false,
      "t": 9481.77083333334,
      "d": 49.47916666666606,
      "v": 96
    },
    {
      "midi": 57,
      "hit": false,
      "t": 9481.77083333334,
      "d": 59.89583333333212,
      "v": 127
    },
    {
      "midi": 57,
      "hit": false,
      "t": 9606.770833333338,
      "d": 39.0625,
      "v": 43
    },
    {
      "midi": 52,
      "hit": false,
      "t": 9731.770833333338,
      "d": 70.3125,
      "v": 87
    },
    {
      "midi": 61,
      "hit": false,
      "t": 9734.375,
      "d": 153.64583333333394,
      "v": 90
    },
    {
      "midi": 57,
      "hit": false,
      "t": 9856.770833333334,
      "d": 31.25,
      "v": 90
    },
    {
      "midi": 52,
      "hit": false,
      "t": 9856.770833333338,
      "d": 7.8125,
      "v": 38
    },
    {
      "midi": 60,
      "hit": false,
      "t": 9888.020833333334,
      "d": 18.22916666666606,
      "v": 96
    },
    {
      "midi": 65,
      "hit": false,
      "t": 9890.625,
      "d": 18.22916666666606,
      "v": 96
    },
    {
      "midi": 69,
      "hit": false,
      "t": 9890.625,
      "d": 18.22916666666606,
      "v": 96
    },
    {
      "midi": 60,
      "hit": false,
      "t": 9908.854166666666,
      "d": 986.9791666666661,
      "v": 96
    },
    {
      "midi": 68,
      "hit": false,
      "t": 9908.854166666666,
      "d": 986.9791666666661,
      "v": 96
    },
    {
      "midi": 65,
      "hit": false,
      "t": 9908.854166666666,
      "d": 989.5833333333321,
      "v": 96
    },
    {
      "midi": 29,
      "hit": false,
      "t": 9986.979166666668,
      "d": 471.35416666666606,
      "v": 96
    },
    {
      "midi": 41,
      "hit": false,
      "t": 9986.979166666672,
      "d": 54.6875,
      "v": 96
    },
    {
      "midi": 60,
      "hit": false,
      "t": 9989.583333333334,
      "d": 406.25,
      "v": 99
    },
    {
      "midi": 68,
      "hit": false,
      "t": 9989.583333333334,
      "d": 406.25,
      "v": 101
    },
    {
      "midi": 56,
      "hit": false,
      "t": 9989.583333333338,
      "d": 62.5,
      "v": 127
    },
    {
      "midi": 41,
      "hit": false,
      "t": 9992.1875,
      "d": 406.25,
      "v": 102
    },
    {
      "midi": 65,
      "hit": false,
      "t": 9992.1875,
      "d": 406.25,
      "v": 90
    },
    {
      "midi": 56,
      "hit": false,
      "t": 10106.770833333338,
      "d": 18.22916666666606,
      "v": 31
    },
    {
      "midi": 56,
      "hit": false,
      "t": 10231.770833333338,
      "d": 28.64583333333394,
      "v": 57
    },
    {
      "midi": 41,
      "hit": false,
      "t": 10356.770833333338,
      "d": 49.47916666666606,
      "v": 96
    },
    {
      "midi": 56,
      "hit": false,
      "t": 10356.770833333338,
      "d": 59.89583333333212,
      "v": 127
    },
    {
      "midi": 56,
      "hit": false,
      "t": 10481.770833333336,
      "d": 39.0625,
      "v": 31
    },
    {
      "midi": 56,
      "hit": false,
      "t": 10606.770833333336,
      "d": 39.0625,
      "v": 66
    },
    {
      "midi": 29,
      "hit": false,
      "t": 10731.770833333334,
      "d": 39.0625,
      "v": 96
    },
    {
      "midi": 41,
      "hit": false,
      "t": 10734.375000000002,
      "d": 46.875,
      "v": 96
    },
    {
      "midi": 56,
      "hit": false,
      "t": 10734.375000000002,
      "d": 46.875,
      "v": 127
    },
    {
      "midi": 56,
      "hit": false,
      "t": 10856.770833333336,
      "d": 28.64583333333394,
      "v": 65
    },
    {
      "midi": 62,
      "hit": false,
      "t": 10898.437499999998,
      "d": 7.8125,
      "v": 96
    },
    {
      "midi": 65,
      "hit": false,
      "t": 10898.437499999998,
      "d": 7.8125,
      "v": 96
    },
    {
      "midi": 70,
      "hit": false,
      "t": 10898.437499999998,
      "d": 10.41666666666606,
      "v": 96
    },
    {
      "midi": 61,
      "hit": false,
      "t": 10908.854166666664,
      "d": 968.75,
      "v": 96
    },
    {
      "midi": 65,
      "hit": false,
      "t": 10908.854166666664,
      "d": 968.75,
      "v": 96
    },
    {
      "midi": 70,
      "hit": false,
      "t": 10908.854166666664,
      "d": 968.75,
      "v": 96
    },
    {
      "midi": 34,
      "hit": false,
      "t": 10981.770833333334,
      "d": 539.0625,
      "v": 96
    },
    {
      "midi": 58,
      "hit": false,
      "t": 10981.770833333336,
      "d": 18.22916666666606,
      "v": 52
    },
    {
      "midi": 46,
      "hit": false,
      "t": 11106.770833333336,
      "d": 49.47916666666606,
      "v": 96
    },
    {
      "midi": 58,
      "hit": false,
      "t": 11106.770833333336,
      "d": 59.89583333333212,
      "v": 127
    },
    {
      "midi": 58,
      "hit": false,
      "t": 11231.770833333334,
      "d": 18.22916666666606,
      "v": 31
    },
    {
      "midi": 58,
      "hit": false,
      "t": 11356.770833333334,
      "d": 28.64583333333394,
      "v": 62
    },
    {
      "midi": 46,
      "hit": false,
      "t": 11481.770833333334,
      "d": 59.89583333333212,
      "v": 96
    },
    {
      "midi": 58,
      "hit": false,
      "t": 11484.375,
      "d": 57.29166666666606,
      "v": 127
    },
    {
      "midi": 34,
      "hit": false,
      "t": 11606.770833333334,
      "d": 7.8125,
      "v": 96
    },
    {
      "midi": 49,
      "hit": false,
      "t": 11609.375,
      "d": 78.125,
      "v": 92
    },
    {
      "midi": 29,
      "hit": false,
      "t": 11731.770833333334,
      "d": 143.22916666666606,
      "v": 96
    },
    {
      "midi": 49,
      "hit": false,
      "t": 11734.375,
      "d": 46.875,
      "v": 36
    },
    {
      "midi": 46,
      "hit": false,
      "t": 11856.770833333334,
      "d": 18.22916666666606,
      "v": 36
    },
    {
      "midi": 36,
      "hit": false,
      "t": 11986.979166666666,
      "d": 471.35416666666606,
      "v": 96
    },
    {
      "midi": 64,
      "hit": false,
      "t": 11989.583333333332,
      "d": 406.2499999999982,
      "v": 99
    },
    {
      "midi": 48,
      "hit": false,
      "t": 11989.583333333334,
      "d": 41.66666666666606,
      "v": 96
    },
    {
      "midi": 55,
      "hit": false,
      "t": 11989.583333333334,
      "d": 41.66666666666606,
      "v": 127
    },
    {
      "midi": 67,
      "hit": false,
      "t": 11992.187499999998,
      "d": 403.6458333333321,
      "v": 101
    },
    {
      "midi": 60,
      "hit": false,
      "t": 11992.187499999998,
      "d": 1895.8333333333321,
      "v": 96
    },
    {
      "midi": 64,
      "hit": false,
      "t": 11992.187499999998,
      "d": 1895.8333333333321,
      "v": 96
    },
    {
      "midi": 67,
      "hit": false,
      "t": 11992.187499999998,
      "d": 1898.4374999999982,
      "v": 96
    },
    {
      "midi": 58,
      "hit": false,
      "t": 11994.791666666664,
      "d": 401.04166666666606,
      "v": 90
    },
    {
      "midi": 72,
      "hit": false,
      "t": 11994.791666666664,
      "d": 403.6458333333321,
      "v": 102
    },
    {
      "midi": 58,
      "hit": false,
      "t": 11994.791666666664,
      "d": 1895.8333333333321,
      "v": 96
    },
    {
      "midi": 55,
      "hit": false,
      "t": 12104.166666666666,
      "d": 31.25,
      "v": 60
    },
    {
      "midi": 55,
      "hit": false,
      "t": 12231.770833333332,
      "d": 28.64583333333394,
      "v": 66
    },
    {
      "midi": 48,
      "hit": false,
      "t": 12356.770833333332,
      "d": 39.0625,
      "v": 96
    },
    {
      "midi": 55,
      "hit": false,
      "t": 12356.770833333332,
      "d": 49.47916666666606,
      "v": 127
    },
    {
      "midi": 55,
      "hit": false,
      "t": 12484.374999999998,
      "d": 5.20833333333394,
      "v": 40
    },
    {
      "midi": 60,
      "hit": false,
      "t": 12484.374999999998,
      "d": 5.20833333333394,
      "v": 40
    },
    {
      "midi": 58,
      "hit": false,
      "t": 12484.374999999998,
      "d": 7.8125,
      "v": 40
    },
    {
      "midi": 64,
      "hit": false,
      "t": 12484.374999999998,
      "d": 7.8125,
      "v": 40
    },
    {
      "midi": 60,
      "hit": false,
      "t": 12606.770833333332,
      "d": 7.8125,
      "v": 40
    },
    {
      "midi": 64,
      "hit": false,
      "t": 12606.770833333332,
      "d": 7.8125,
      "v": 40
    },
    {
      "midi": 55,
      "hit": false,
      "t": 12609.374999999998,
      "d": 5.20833333333394,
      "v": 40
    },
    {
      "midi": 58,
      "hit": false,
      "t": 12609.374999999998,
      "d": 5.20833333333394,
      "v": 40
    },
    {
      "midi": 55,
      "hit": false,
      "t": 12734.374999999998,
      "d": 1153.6458333333321,
      "v": 56
    },
    {
      "midi": 58,
      "hit": false,
      "t": 12734.374999999998,
      "d": 1153.6458333333321,
      "v": 56
    },
    {
      "midi": 60,
      "hit": false,
      "t": 12734.374999999998,
      "d": 1153.6458333333321,
      "v": 56
    },
    {
      "midi": 31,
      "hit": false,
      "t": 12734.374999999998,
      "d": 36.45833333333394,
      "v": 96
    },
    {
      "midi": 64,
      "hit": false,
      "t": 12736.979166666664,
      "d": 1151.041666666666,
      "v": 56
    },
    {
      "midi": 64,
      "hit": false,
      "t": 12958.33333333333,
      "d": 416.66666666666606,
      "v": 101
    },
    {
      "midi": 36,
      "hit": false,
      "t": 12981.770833333332,
      "d": 539.0625,
      "v": 96
    },
    {
      "midi": 70,
      "hit": false,
      "t": 12984.374999999996,
      "d": 411.45833333333394,
      "v": 101
    },
    {
      "midi": 79,
      "hit": false,
      "t": 12999.999999999996,
      "d": 416.6666666666679,
      "v": 101
    },
    {
      "midi": 31,
      "hit": false,
      "t": 13606.770833333332,
      "d": 7.8125,
      "v": 96
    },
    {
      "midi": 28,
      "hit": false,
      "t": 13734.374999999998,
      "d": 153.64583333333394,
      "v": 96
    },
    {
      "midi": 60,
      "hit": false,
      "t": 13890.624999999996,
      "d": 15.625,
      "v": 96
    },
    {
      "midi": 65,
      "hit": false,
      "t": 13890.624999999996,
      "d": 15.625,
      "v": 96
    },
    {
      "midi": 69,
      "hit": false,
      "t": 13890.624999999996,
      "d": 18.22916666666606,
      "v": 96
    },
    {
      "midi": 60,
      "hit": false,
      "t": 13908.854166666662,
      "d": 65.10416666666606,
      "v": 96
    },
    {
      "midi": 65,
      "hit": false,
      "t": 13908.854166666662,
      "d": 65.10416666666606,
      "v": 96
    },
    {
      "midi": 68,
      "hit": false,
      "t": 13908.854166666662,
      "d": 65.10416666666606,
      "v": 96
    },
    {
      "midi": 29,
      "hit": false,
      "t": 13986.979166666666,
      "d": 471.35416666666606,
      "v": 96
    },
    {
      "midi": 41,
      "hit": false,
      "t": 13989.58333333333,
      "d": 41.66666666666606,
      "v": 96
    },
    {
      "midi": 56,
      "hit": false,
      "t": 13989.58333333333,
      "d": 41.66666666666606,
      "v": 127
    },
    {
      "midi": 60,
      "hit": false,
      "t": 13989.58333333333,
      "d": 406.2499999999982,
      "v": 90
    },
    {
      "midi": 60,
      "hit": false,
      "t": 13992.187499999995,
      "d": 1882.8125,
      "v": 96
    },
    {
      "midi": 68,
      "hit": false,
      "t": 13992.187499999995,
      "d": 1882.8125,
      "v": 96
    },
    {
      "midi": 68,
      "hit": false,
      "t": 13992.187499999996,
      "d": 403.6458333333321,
      "v": 101
    },
    {
      "midi": 65,
      "hit": false,
      "t": 13994.79166666666,
      "d": 1880.208333333334,
      "v": 96
    },
    {
      "midi": 41,
      "hit": false,
      "t": 13994.791666666662,
      "d": 401.04166666666606,
      "v": 102
    },
    {
      "midi": 65,
      "hit": false,
      "t": 13994.791666666662,
      "d": 401.04166666666606,
      "v": 99
    },
    {
      "midi": 56,
      "hit": false,
      "t": 14104.166666666662,
      "d": 31.25,
      "v": 60
    },
    {
      "midi": 56,
      "hit": false,
      "t": 14229.166666666662,
      "d": 31.25,
      "v": 66
    },
    {
      "midi": 41,
      "hit": false,
      "t": 14356.770833333328,
      "d": 39.0625,
      "v": 96
    },
    {
      "midi": 56,
      "hit": false,
      "t": 14356.770833333328,
      "d": 49.47916666666606,
      "v": 127
    },
    {
      "midi": 56,
      "hit": false,
      "t": 14481.770833333328,
      "d": 18.22916666666606,
      "v": 63
    },
    {
      "midi": 56,
      "hit": false,
      "t": 14606.770833333328,
      "d": 28.64583333333394,
      "v": 53
    },
    {
      "midi": 41,
      "hit": false,
      "t": 14731.770833333328,
      "d": 39.0625,
      "v": 96
    },
    {
      "midi": 56,
      "hit": false,
      "t": 14731.770833333328,
      "d": 49.47916666666606,
      "v": 127
    },
    {
      "midi": 29,
      "hit": false,
      "t": 14731.770833333332,
      "d": 39.0625,
      "v": 96
    },
    {
      "midi": 56,
      "hit": false,
      "t": 14854.16666666666,
      "d": 10.41666666666606,
      "v": 30
    },
    {
      "midi": 65,
      "hit": false,
      "t": 14958.333333333328,
      "d": 416.66666666666606,
      "v": 101
    },
    {
      "midi": 56,
      "hit": false,
      "t": 14981.770833333327,
      "d": 28.64583333333394,
      "v": 44
    },
    {
      "midi": 72,
      "hit": false,
      "t": 14981.770833333328,
      "d": 414.0625,
      "v": 101
    },
    {
      "midi": 29,
      "hit": false,
      "t": 14981.770833333332,
      "d": 893.2291666666661,
      "v": 96
    },
    {
      "midi": 80,
      "hit": false,
      "t": 14999.999999999995,
      "d": 416.6666666666679,
      "v": 101
    },
    {
      "midi": 41,
      "hit": false,
      "t": 15104.16666666666,
      "d": 41.66666666666606,
      "v": 96
    },
    {
      "midi": 56,
      "hit": false,
      "t": 15106.770833333327,
      "d": 49.47916666666606,
      "v": 127
    },
    {
      "midi": 56,
      "hit": false,
      "t": 15231.770833333327,
      "d": 28.64583333333394,
      "v": 53
    },
    {
      "midi": 56,
      "hit": false,
      "t": 15356.770833333327,
      "d": 28.64583333333394,
      "v": 44
    },
    {
      "midi": 41,
      "hit": false,
      "t": 15481.770833333327,
      "d": 49.47916666666606,
      "v": 96
    },
    {
      "midi": 56,
      "hit": false,
      "t": 15481.770833333327,
      "d": 59.89583333333212,
      "v": 127
    },
    {
      "midi": 56,
      "hit": false,
      "t": 15606.770833333325,
      "d": 39.0625,
      "v": 43
    },
    {
      "midi": 44,
      "hit": false,
      "t": 15731.770833333325,
      "d": 28.64583333333394,
      "v": 81
    },
    {
      "midi": 44,
      "hit": false,
      "t": 15856.770833333325,
      "d": 7.8125,
      "v": 35
    },
    {
      "midi": 62,
      "hit": false,
      "t": 15877.60416666666,
      "d": 39.0625,
      "v": 96
    },
    {
      "midi": 65,
      "hit": false,
      "t": 15877.60416666666,
      "d": 39.0625,
      "v": 96
    },
    {
      "midi": 70,
      "hit": false,
      "t": 15877.60416666666,
      "d": 39.0625,
      "v": 96
    },
    {
      "midi": 61,
      "hit": false,
      "t": 15919.270833333327,
      "d": 28.64583333333394,
      "v": 96
    },
    {
      "midi": 65,
      "hit": false,
      "t": 15919.270833333327,
      "d": 28.64583333333394,
      "v": 96
    },
    {
      "midi": 70,
      "hit": false,
      "t": 15919.270833333327,
      "d": 28.64583333333394,
      "v": 96
    },
    {
      "midi": 61,
      "hit": false,
      "t": 15950.520833333327,
      "d": 924.4791666666661,
      "v": 96
    },
    {
      "midi": 65,
      "hit": false,
      "t": 15950.520833333327,
      "d": 924.4791666666661,
      "v": 96
    },
    {
      "midi": 70,
      "hit": false,
      "t": 15950.520833333327,
      "d": 924.4791666666661,
      "v": 96
    },
    {
      "midi": 34,
      "hit": false,
      "t": 15984.374999999998,
      "d": 473.95833333333394,
      "v": 96
    },
    {
      "midi": 46,
      "hit": false,
      "t": 15986.979166666659,
      "d": 54.6875,
      "v": 96
    },
    {
      "midi": 58,
      "hit": false,
      "t": 15986.979166666659,
      "d": 65.10416666666606,
      "v": 127
    },
    {
      "midi": 61,
      "hit": false,
      "t": 15986.979166666662,
      "d": 408.85416666666606,
      "v": 99
    },
    {
      "midi": 46,
      "hit": false,
      "t": 15989.583333333328,
      "d": 406.25,
      "v": 102
    },
    {
      "midi": 70,
      "hit": false,
      "t": 15989.583333333328,
      "d": 406.25,
      "v": 101
    },
    {
      "midi": 77,
      "hit": false,
      "t": 15989.583333333328,
      "d": 406.25,
      "v": 90
    },
    {
      "midi": 58,
      "hit": false,
      "t": 16104.166666666659,
      "d": 20.83333333333394,
      "v": 31
    },
    {
      "midi": 58,
      "hit": false,
      "t": 16229.166666666659,
      "d": 31.25,
      "v": 57
    },
    {
      "midi": 46,
      "hit": false,
      "t": 16356.770833333325,
      "d": 49.47916666666788,
      "v": 96
    },
    {
      "midi": 58,
      "hit": false,
      "t": 16356.770833333325,
      "d": 59.89583333333576,
      "v": 127
    },
    {
      "midi": 58,
      "hit": false,
      "t": 16481.77083333333,
      "d": 39.0625,
      "v": 31
    },
    {
      "midi": 58,
      "hit": false,
      "t": 16604.16666666666,
      "d": 41.66666666666788,
      "v": 66
    },
    {
      "midi": 46,
      "hit": false,
      "t": 16731.77083333333,
      "d": 49.47916666666788,
      "v": 96
    },
    {
      "midi": 58,
      "hit": false,
      "t": 16731.77083333333,
      "d": 49.47916666666788,
      "v": 127
    },
    {
      "midi": 34,
      "hit": false,
      "t": 16731.770833333332,
      "d": 39.0625,
      "v": 96
    },
    {
      "midi": 58,
      "hit": false,
      "t": 16854.166666666664,
      "d": 20.83333333333212,
      "v": 65
    },
    {
      "midi": 60,
      "hit": false,
      "t": 16877.60416666666,
      "d": 39.0625,
      "v": 96
    },
    {
      "midi": 64,
      "hit": false,
      "t": 16877.60416666666,
      "d": 39.0625,
      "v": 96
    },
    {
      "midi": 67,
      "hit": false,
      "t": 16877.60416666666,
      "d": 39.0625,
      "v": 96
    },
    {
      "midi": 60,
      "hit": false,
      "t": 16916.66666666666,
      "d": 31.25,
      "v": 96
    },
    {
      "midi": 64,
      "hit": false,
      "t": 16919.27083333333,
      "d": 28.64583333333212,
      "v": 96
    },
    {
      "midi": 67,
      "hit": false,
      "t": 16919.27083333333,
      "d": 28.64583333333212,
      "v": 96
    },
    {
      "midi": 60,
      "hit": false,
      "t": 16950.52083333333,
      "d": 955.7291666666679,
      "v": 96
    },
    {
      "midi": 64,
      "hit": false,
      "t": 16950.52083333333,
      "d": 955.7291666666679,
      "v": 96
    },
    {
      "midi": 67,
      "hit": false,
      "t": 16950.52083333333,
      "d": 955.7291666666679,
      "v": 96
    },
    {
      "midi": 55,
      "hit": false,
      "t": 16981.77083333333,
      "d": 18.22916666666788,
      "v": 52
    },
    {
      "midi": 36,
      "hit": false,
      "t": 16981.770833333332,
      "d": 914.0625,
      "v": 96
    },
    {
      "midi": 48,
      "hit": false,
      "t": 17104.166666666664,
      "d": 52.08333333333576,
      "v": 96
    },
    {
      "midi": 55,
      "hit": false,
      "t": 17106.770833333332,
      "d": 59.89583333333576,
      "v": 127
    },
    {
      "midi": 55,
      "hit": false,
      "t": 17229.166666666668,
      "d": 20.83333333333212,
      "v": 31
    },
    {
      "midi": 64,
      "hit": false,
      "t": 17356.77083333333,
      "d": 414.0625,
      "v": 90
    },
    {
      "midi": 55,
      "hit": false,
      "t": 17356.770833333332,
      "d": 28.64583333333212,
      "v": 62
    },
    {
      "midi": 48,
      "hit": false,
      "t": 17481.770833333332,
      "d": 59.89583333333212,
      "v": 96
    },
    {
      "midi": 55,
      "hit": false,
      "t": 17481.770833333332,
      "d": 59.89583333333212,
      "v": 127
    },
    {
      "midi": 67,
      "hit": false,
      "t": 17606.77083333333,
      "d": 289.0625,
      "v": 90
    },
    {
      "midi": 55,
      "hit": false,
      "t": 17606.770833333332,
      "d": 18.22916666666788,
      "v": 69
    },
    {
      "midi": 52,
      "hit": false,
      "t": 17731.770833333332,
      "d": 39.0625,
      "v": 93
    },
    {
      "midi": 52,
      "hit": false,
      "t": 17854.166666666664,
      "d": 10.41666666666788,
      "v": 34
    },
    {
      "midi": 60,
      "hit": false,
      "t": 17906.249999999996,
      "d": 20.83333333333576,
      "v": 96
    },
    {
      "midi": 65,
      "hit": false,
      "t": 17908.854166666664,
      "d": 18.22916666666788,
      "v": 96
    },
    {
      "midi": 69,
      "hit": false,
      "t": 17908.854166666664,
      "d": 18.22916666666788,
      "v": 96
    },
    {
      "midi": 60,
      "hit": false,
      "t": 17927.083333333332,
      "d": 1906.25,
      "v": 96
    },
    {
      "midi": 63,
      "hit": false,
      "t": 17929.6875,
      "d": 1903.6458333333321,
      "v": 96
    },
    {
      "midi": 65,
      "hit": false,
      "t": 17929.6875,
      "d": 1903.6458333333321,
      "v": 96
    },
    {
      "midi": 68,
      "hit": false,
      "t": 17929.6875,
      "d": 1903.6458333333321,
      "v": 96
    },
    {
      "midi": 29,
      "hit": false,
      "t": 17984.375,
      "d": 471.3541666666679,
      "v": 96
    },
    {
      "midi": 41,
      "hit": false,
      "t": 17986.979166666664,
      "d": 44.27083333333212,
      "v": 96
    },
    {
      "midi": 56,
      "hit": false,
      "t": 17986.979166666664,
      "d": 44.27083333333212,
      "v": 127
    },
    {
      "midi": 68,
      "hit": false,
      "t": 17986.979166666664,
      "d": 408.8541666666715,
      "v": 99
    },
    {
      "midi": 63,
      "hit": false,
      "t": 17989.583333333332,
      "d": 406.25000000000364,
      "v": 102
    },
    {
      "midi": 72,
      "hit": false,
      "t": 17989.583333333332,
      "d": 406.25000000000364,
      "v": 101
    },
    {
      "midi": 60,
      "hit": false,
      "t": 17992.1875,
      "d": 403.64583333333576,
      "v": 102
    },
    {
      "midi": 65,
      "hit": false,
      "t": 17992.1875,
      "d": 403.64583333333576,
      "v": 90
    },
    {
      "midi": 56,
      "hit": false,
      "t": 18104.166666666664,
      "d": 31.25,
      "v": 60
    },
    {
      "midi": 56,
      "hit": false,
      "t": 18229.166666666664,
      "d": 31.25,
      "v": 66
    },
    {
      "midi": 41,
      "hit": false,
      "t": 18356.770833333332,
      "d": 39.0625,
      "v": 96
    },
    {
      "midi": 56,
      "hit": false,
      "t": 18356.770833333332,
      "d": 49.47916666666788,
      "v": 127
    },
    {
      "midi": 56,
      "hit": false,
      "t": 18481.770833333332,
      "d": 18.22916666666788,
      "v": 63
    },
    {
      "midi": 56,
      "hit": false,
      "t": 18604.166666666668,
      "d": 31.25,
      "v": 53
    },
    {
      "midi": 41,
      "hit": false,
      "t": 18731.770833333336,
      "d": 39.0625,
      "v": 96
    },
    {
      "midi": 56,
      "hit": false,
      "t": 18731.770833333336,
      "d": 49.47916666666788,
      "v": 127
    },
    {
      "midi": 39,
      "hit": false,
      "t": 18734.375,
      "d": 36.45833333333212,
      "v": 96
    },
    {
      "midi": 56,
      "hit": false,
      "t": 18854.16666666667,
      "d": 10.41666666666788,
      "v": 30
    },
    {
      "midi": 29,
      "hit": false,
      "t": 18979.166666666664,
      "d": 854.1666666666679,
      "v": 96
    },
    {
      "midi": 56,
      "hit": false,
      "t": 18981.77083333334,
      "d": 26.04166666666788,
      "v": 44
    },
    {
      "midi": 41,
      "hit": false,
      "t": 19104.166666666675,
      "d": 41.66666666666788,
      "v": 96
    },
    {
      "midi": 56,
      "hit": false,
      "t": 19106.770833333343,
      "d": 46.875,
      "v": 127
    },
    {
      "midi": 56,
      "hit": false,
      "t": 19229.166666666675,
      "d": 31.25,
      "v": 53
    },
    {
      "midi": 56,
      "hit": false,
      "t": 19354.166666666675,
      "d": 31.25,
      "v": 44
    },
    {
      "midi": 41,
      "hit": false,
      "t": 19479.166666666675,
      "d": 52.08333333333576,
      "v": 96
    },
    {
      "midi": 56,
      "hit": false,
      "t": 19481.770833333343,
      "d": 57.29166666666788,
      "v": 127
    },
    {
      "midi": 56,
      "hit": false,
      "t": 19604.16666666668,
      "d": 39.0625,
      "v": 43
    },
    {
      "midi": 53,
      "hit": false,
      "t": 19731.770833333347,
      "d": 67.70833333333212,
      "v": 87
    },
    {
      "midi": 65,
      "hit": false,
      "t": 19734.375000000004,
      "d": 98.95833333333212,
      "v": 90
    },
    {
      "midi": 62,
      "hit": false,
      "t": 19835.9375,
      "d": 39.0625,
      "v": 96
    },
    {
      "midi": 65,
      "hit": false,
      "t": 19835.9375,
      "d": 39.0625,
      "v": 96
    },
    {
      "midi": 70,
      "hit": false,
      "t": 19835.9375,
      "d": 39.0625,
      "v": 96
    },
    {
      "midi": 53,
      "hit": false,
      "t": 19854.16666666668,
      "d": 10.41666666666788,
      "v": 38
    },
    {
      "midi": 58,
      "hit": false,
      "t": 19856.770833333336,
      "d": 18.22916666666788,
      "v": 90
    },
    {
      "midi": 61,
      "hit": false,
      "t": 19875,
      "d": 41.66666666666788,
      "v": 96
    },
    {
      "midi": 65,
      "hit": false,
      "t": 19877.604166666668,
      "d": 39.0625,
      "v": 96
    },
    {
      "midi": 70,
      "hit": false,
      "t": 19877.604166666668,
      "d": 39.0625,
      "v": 96
    },
    {
      "midi": 61,
      "hit": false,
      "t": 19916.666666666668,
      "d": 968.75,
      "v": 96
    },
    {
      "midi": 70,
      "hit": false,
      "t": 19916.666666666668,
      "d": 968.75,
      "v": 96
    },
    {
      "midi": 65,
      "hit": false,
      "t": 19919.270833333336,
      "d": 966.1458333333321,
      "v": 96
    },
    {
      "midi": 34,
      "hit": false,
      "t": 19984.375,
      "d": 471.3541666666679,
      "v": 96
    },
    {
      "midi": 61,
      "hit": false,
      "t": 19986.97916666667,
      "d": 406.25000000000364,
      "v": 99
    },
    {
      "midi": 46,
      "hit": false,
      "t": 19986.97916666668,
      "d": 52.08333333333212,
      "v": 96
    },
    {
      "midi": 58,
      "hit": false,
      "t": 19986.97916666668,
      "d": 62.5,
      "v": 127
    },
    {
      "midi": 46,
      "hit": false,
      "t": 19989.58333333334,
      "d": 406.25000000000364,
      "v": 102
    },
    {
      "midi": 65,
      "hit": false,
      "t": 19989.58333333334,
      "d": 406.25000000000364,
      "v": 90
    },
    {
      "midi": 70,
      "hit": false,
      "t": 19989.58333333334,
      "d": 406.25000000000364,
      "v": 101
    },
    {
      "midi": 58,
      "hit": false,
      "t": 20104.16666666668,
      "d": 18.22916666666788,
      "v": 31
    },
    {
      "midi": 58,
      "hit": false,
      "t": 20229.16666666668,
      "d": 31.25,
      "v": 57
    },
    {
      "midi": 46,
      "hit": false,
      "t": 20354.16666666668,
      "d": 49.47916666666788,
      "v": 96
    },
    {
      "midi": 58,
      "hit": false,
      "t": 20356.770833333347,
      "d": 57.29166666666788,
      "v": 127
    },
    {
      "midi": 58,
      "hit": false,
      "t": 20479.166666666682,
      "d": 41.66666666666788,
      "v": 31
    },
    {
      "midi": 58,
      "hit": false,
      "t": 20604.166666666682,
      "d": 39.0625,
      "v": 66
    },
    {
      "midi": 34,
      "hit": false,
      "t": 20731.770833333336,
      "d": 36.45833333333212,
      "v": 96
    },
    {
      "midi": 46,
      "hit": false,
      "t": 20731.77083333335,
      "d": 46.875,
      "v": 96
    },
    {
      "midi": 58,
      "hit": false,
      "t": 20731.77083333335,
      "d": 46.875,
      "v": 127
    },
    {
      "midi": 58,
      "hit": false,
      "t": 20854.166666666682,
      "d": 31.25,
      "v": 65
    },
    {
      "midi": 62,
      "hit": false,
      "t": 20885.416666666668,
      "d": 20.83333333333576,
      "v": 96
    },
    {
      "midi": 67,
      "hit": false,
      "t": 20885.416666666668,
      "d": 20.83333333333576,
      "v": 96
    },
    {
      "midi": 71,
      "hit": false,
      "t": 20888.020833333336,
      "d": 18.22916666666788,
      "v": 96
    },
    {
      "midi": 62,
      "hit": false,
      "t": 20906.250000000004,
      "d": 52.08333333333576,
      "v": 96
    },
    {
      "midi": 70,
      "hit": false,
      "t": 20906.250000000004,
      "d": 52.08333333333576,
      "v": 96
    },
    {
      "midi": 67,
      "hit": false,
      "t": 20908.85416666667,
      "d": 49.47916666666788,
      "v": 96
    },
    {
      "midi": 63,
      "hit": false,
      "t": 20958.33333333334,
      "d": 1000,
      "v": 96
    },
    {
      "midi": 67,
      "hit": false,
      "t": 20958.33333333334,
      "d": 1000,
      "v": 96
    },
    {
      "midi": 70,
      "hit": false,
      "t": 20960.937500000007,
      "d": 997.3958333333321,
      "v": 96
    },
    {
      "midi": 39,
      "hit": false,
      "t": 20979.166666666668,
      "d": 539.0625,
      "v": 96
    },
    {
      "midi": 58,
      "hit": false,
      "t": 20981.77083333335,
      "d": 15.625,
      "v": 52
    },
    {
      "midi": 51,
      "hit": false,
      "t": 21104.166666666682,
      "d": 49.47916666666788,
      "v": 96
    },
    {
      "midi": 58,
      "hit": false,
      "t": 21104.166666666682,
      "d": 59.89583333333576,
      "v": 127
    },
    {
      "midi": 58,
      "hit": false,
      "t": 21229.166666666686,
      "d": 18.22916666666788,
      "v": 31
    },
    {
      "midi": 58,
      "hit": false,
      "t": 21354.166666666686,
      "d": 28.64583333333212,
      "v": 62
    },
    {
      "midi": 51,
      "hit": false,
      "t": 21479.166666666686,
      "d": 59.89583333333576,
      "v": 96
    },
    {
      "midi": 58,
      "hit": false,
      "t": 21481.770833333354,
      "d": 57.29166666666788,
      "v": 127
    },
    {
      "midi": 39,
      "hit": false,
      "t": 21606.770833333336,
      "d": 5.208333333332121,
      "v": 96
    },
    {
      "midi": 55,
      "hit": false,
      "t": 21606.770833333354,
      "d": 78.125,
      "v": 92
    },
    {
      "midi": 34,
      "hit": false,
      "t": 21729.166666666668,
      "d": 226.5625,
      "v": 96
    },
    {
      "midi": 55,
      "hit": false,
      "t": 21731.770833333354,
      "d": 46.875,
      "v": 36
    },
    {
      "midi": 51,
      "hit": false,
      "t": 21854.166666666686,
      "d": 49.47916666666788,
      "v": 36
    },
    {
      "midi": 32,
      "hit": false,
      "t": 21971.354166666668,
      "d": 2.6041666666678793,
      "v": 96
    },
    {
      "midi": 63,
      "hit": false,
      "t": 21971.35416666667,
      "d": 2.6041666666678793,
      "v": 96
    },
    {
      "midi": 68,
      "hit": false,
      "t": 21971.35416666667,
      "d": 2.6041666666678793,
      "v": 96
    },
    {
      "midi": 72,
      "hit": false,
      "t": 21971.35416666667,
      "d": 2.6041666666678793,
      "v": 96
    },
    {
      "midi": 32,
      "hit": false,
      "t": 21984.375000000004,
      "d": 23.4375,
      "v": 96
    },
    {
      "midi": 56,
      "hit": false,
      "t": 21989.583333333343,
      "d": 20.83333333333576,
      "v": 102
    },
    {
      "midi": 63,
      "hit": false,
      "t": 21989.583333333343,
      "d": 20.83333333333576,
      "v": 90
    },
    {
      "midi": 44,
      "hit": false,
      "t": 21989.583333333354,
      "d": 18.22916666666788,
      "v": 96
    },
    {
      "midi": 60,
      "hit": false,
      "t": 21989.583333333354,
      "d": 20.83333333333576,
      "v": 127
    },
    {
      "midi": 63,
      "hit": false,
      "t": 21992.187500000007,
      "d": 18.22916666666788,
      "v": 96
    },
    {
      "midi": 68,
      "hit": false,
      "t": 21992.187500000007,
      "d": 20.83333333333576,
      "v": 96
    },
    {
      "midi": 68,
      "hit": false,
      "t": 21992.18750000001,
      "d": 18.22916666666788,
      "v": 99
    },
    {
      "midi": 72,
      "hit": false,
      "t": 21992.18750000001,
      "d": 18.22916666666788,
      "v": 101
    },
    {
      "midi": 72,
      "hit": false,
      "t": 21994.791666666675,
      "d": 18.22916666666788,
      "v": 96
    },
    {
      "midi": 32,
      "hit": false,
      "t": 22013.020833333336,
      "d": 442.7083333333321,
      "v": 96
    },
    {
      "midi": 63,
      "hit": false,
      "t": 22013.020833333343,
      "d": 1872.3958333333321,
      "v": 96
    },
    {
      "midi": 67,
      "hit": false,
      "t": 22013.020833333343,
      "d": 1872.3958333333321,
      "v": 96
    },
    {
      "midi": 72,
      "hit": false,
      "t": 22013.020833333343,
      "d": 1872.3958333333321,
      "v": 96
    },
    {
      "midi": 60,
      "hit": false,
      "t": 22104.16666666669,
      "d": 28.64583333333212,
      "v": 60
    },
    {
      "midi": 60,
      "hit": false,
      "t": 22229.16666666669,
      "d": 28.64583333333212,
      "v": 66
    },
    {
      "midi": 44,
      "hit": false,
      "t": 22354.16666666669,
      "d": 39.0625,
      "v": 96
    },
    {
      "midi": 60,
      "hit": false,
      "t": 22354.16666666669,
      "d": 49.47916666666788,
      "v": 127
    },
    {
      "midi": 60,
      "hit": false,
      "t": 22479.16666666669,
      "d": 18.22916666666788,
      "v": 63
    },
    {
      "midi": 60,
      "hit": false,
      "t": 22604.16666666669,
      "d": 28.64583333333212,
      "v": 53
    },
    {
      "midi": 32,
      "hit": false,
      "t": 22729.166666666668,
      "d": 39.0625,
      "v": 96
    },
    {
      "midi": 44,
      "hit": false,
      "t": 22731.770833333354,
      "d": 36.45833333333212,
      "v": 96
    },
    {
      "midi": 60,
      "hit": false,
      "t": 22731.770833333354,
      "d": 46.875,
      "v": 127
    },
    {
      "midi": 60,
      "hit": false,
      "t": 22854.166666666686,
      "d": 7.8125,
      "v": 30
    },
    {
      "midi": 67,
      "hit": false,
      "t": 22958.333333333347,
      "d": 414.0625,
      "v": 101
    },
    {
      "midi": 32,
      "hit": false,
      "t": 22979.166666666668,
      "d": 903.6458333333321,
      "v": 96
    },
    {
      "midi": 60,
      "hit": false,
      "t": 22979.166666666686,
      "d": 28.64583333333212,
      "v": 44
    },
    {
      "midi": 75,
      "hit": false,
      "t": 22981.770833333347,
      "d": 411.4583333333321,
      "v": 101
    },
    {
      "midi": 84,
      "hit": false,
      "t": 23000.000000000015,
      "d": 414.06249999999636,
      "v": 101
    },
    {
      "midi": 44,
      "hit": false,
      "t": 23104.166666666686,
      "d": 39.0625,
      "v": 96
    },
    {
      "midi": 60,
      "hit": false,
      "t": 23104.166666666686,
      "d": 49.47916666666788,
      "v": 127
    },
    {
      "midi": 60,
      "hit": false,
      "t": 23229.166666666686,
      "d": 28.64583333333212,
      "v": 53
    },
    {
      "midi": 60,
      "hit": false,
      "t": 23354.166666666686,
      "d": 28.64583333333212,
      "v": 44
    },
    {
      "midi": 44,
      "hit": false,
      "t": 23479.166666666686,
      "d": 49.47916666666788,
      "v": 96
    },
    {
      "midi": 60,
      "hit": false,
      "t": 23479.166666666686,
      "d": 59.89583333333576,
      "v": 127
    },
    {
      "midi": 60,
      "hit": false,
      "t": 23604.16666666669,
      "d": 39.0625,
      "v": 43
    },
    {
      "midi": 55,
      "hit": false,
      "t": 23729.16666666669,
      "d": 28.64583333333212,
      "v": 81
    },
    {
      "midi": 55,
      "hit": false,
      "t": 23854.16666666669,
      "d": 7.8125,
      "v": 35
    },
    {
      "midi": 63,
      "hit": false,
      "t": 23885.416666666675,
      "d": 28.64583333333212,
      "v": 96
    },
    {
      "midi": 68,
      "hit": false,
      "t": 23885.416666666675,
      "d": 31.25,
      "v": 96
    },
    {
      "midi": 72,
      "hit": false,
      "t": 23885.416666666675,
      "d": 31.25,
      "v": 96
    },
    {
      "midi": 61,
      "hit": false,
      "t": 23916.666666666675,
      "d": 39.0625,
      "v": 96
    },
    {
      "midi": 65,
      "hit": false,
      "t": 23916.666666666675,
      "d": 41.66666666666788,
      "v": 96
    },
    {
      "midi": 68,
      "hit": false,
      "t": 23916.666666666675,
      "d": 41.66666666666788,
      "v": 96
    },
    {
      "midi": 61,
      "hit": false,
      "t": 23958.333333333343,
      "d": 924.4791666666679,
      "v": 96
    },
    {
      "midi": 65,
      "hit": false,
      "t": 23958.333333333343,
      "d": 927.0833333333358,
      "v": 96
    },
    {
      "midi": 68,
      "hit": false,
      "t": 23958.333333333343,
      "d": 927.0833333333358,
      "v": 96
    },
    {
      "midi": 37,
      "hit": false,
      "t": 23984.375,
      "d": 471.3541666666679,
      "v": 96
    },
    {
      "midi": 49,
      "hit": false,
      "t": 23984.375000000022,
      "d": 54.6875,
      "v": 96
    },
    {
      "midi": 56,
      "hit": false,
      "t": 23984.375000000022,
      "d": 65.10416666666788,
      "v": 127
    },
    {
      "midi": 53,
      "hit": false,
      "t": 23986.979166666675,
      "d": 406.25,
      "v": 102
    },
    {
      "midi": 61,
      "hit": false,
      "t": 23986.979166666675,
      "d": 406.25,
      "v": 99
    },
    {
      "midi": 68,
      "hit": false,
      "t": 23986.979166666675,
      "d": 408.8541666666679,
      "v": 101
    },
    {
      "midi": 77,
      "hit": false,
      "t": 23986.979166666675,
      "d": 408.8541666666679,
      "v": 90
    },
    {
      "midi": 56,
      "hit": false,
      "t": 24104.16666666669,
      "d": 18.22916666666788,
      "v": 31
    },
    {
      "midi": 56,
      "hit": false,
      "t": 24229.16666666669,
      "d": 28.64583333333212,
      "v": 57
    },
    {
      "midi": 49,
      "hit": false,
      "t": 24354.16666666669,
      "d": 49.47916666666788,
      "v": 96
    },
    {
      "midi": 56,
      "hit": false,
      "t": 24354.16666666669,
      "d": 59.89583333333576,
      "v": 127
    },
    {
      "midi": 56,
      "hit": false,
      "t": 24479.166666666693,
      "d": 39.0625,
      "v": 31
    },
    {
      "midi": 56,
      "hit": false,
      "t": 24604.166666666693,
      "d": 39.0625,
      "v": 66
    },
    {
      "midi": 37,
      "hit": false,
      "t": 24729.166666666668,
      "d": 39.0625,
      "v": 96
    },
    {
      "midi": 49,
      "hit": false,
      "t": 24729.166666666693,
      "d": 49.47916666666788,
      "v": 96
    },
    {
      "midi": 56,
      "hit": false,
      "t": 24731.77083333336,
      "d": 46.875,
      "v": 127
    },
    {
      "midi": 56,
      "hit": false,
      "t": 24854.166666666693,
      "d": 28.64583333333212,
      "v": 65
    },
    {
      "midi": 62,
      "hit": false,
      "t": 24885.41666666668,
      "d": 7.8125,
      "v": 96
    },
    {
      "midi": 65,
      "hit": false,
      "t": 24885.41666666668,
      "d": 7.8125,
      "v": 96
    },
    {
      "midi": 70,
      "hit": false,
      "t": 24885.41666666668,
      "d": 10.41666666666788,
      "v": 96
    },
    {
      "midi": 61,
      "hit": false,
      "t": 24895.833333333347,
      "d": 18.22916666666788,
      "v": 96
    },
    {
      "midi": 70,
      "hit": false,
      "t": 24895.833333333347,
      "d": 18.22916666666788,
      "v": 96
    },
    {
      "midi": 65,
      "hit": false,
      "t": 24895.833333333347,
      "d": 20.83333333333576,
      "v": 96
    },
    {
      "midi": 61,
      "hit": false,
      "t": 24916.666666666682,
      "d": 1007.8125,
      "v": 96
    },
    {
      "midi": 70,
      "hit": false,
      "t": 24916.666666666682,
      "d": 1007.8125,
      "v": 96
    },
    {
      "midi": 65,
      "hit": false,
      "t": 24916.666666666682,
      "d": 1010.4166666666679,
      "v": 96
    },
    {
      "midi": 34,
      "hit": false,
      "t": 24979.166666666668,
      "d": 914.0625,
      "v": 96
    },
    {
      "midi": 58,
      "hit": false,
      "t": 24979.166666666693,
      "d": 18.22916666666788,
      "v": 52
    },
    {
      "midi": 46,
      "hit": false,
      "t": 25104.166666666693,
      "d": 49.47916666666788,
      "v": 96
    },
    {
      "midi": 58,
      "hit": false,
      "t": 25104.166666666693,
      "d": 59.89583333333576,
      "v": 127
    },
    {
      "midi": 58,
      "hit": false,
      "t": 25229.166666666697,
      "d": 18.22916666666788,
      "v": 31
    },
    {
      "midi": 58,
      "hit": false,
      "t": 25354.166666666697,
      "d": 28.64583333333212,
      "v": 62
    },
    {
      "midi": 65,
      "hit": false,
      "t": 25356.770833333343,
      "d": 411.4583333333321,
      "v": 90
    },
    {
      "midi": 46,
      "hit": false,
      "t": 25479.166666666697,
      "d": 59.89583333333212,
      "v": 96
    },
    {
      "midi": 58,
      "hit": false,
      "t": 25479.166666666697,
      "d": 59.89583333333212,
      "v": 127
    },
    {
      "midi": 70,
      "hit": false,
      "t": 25604.166666666675,
      "d": 291.6666666666679,
      "v": 90
    },
    {
      "midi": 58,
      "hit": false,
      "t": 25604.166666666697,
      "d": 18.22916666666788,
      "v": 69
    },
    {
      "midi": 49,
      "hit": false,
      "t": 25729.166666666697,
      "d": 39.0625,
      "v": 93
    },
    {
      "midi": 49,
      "hit": false,
      "t": 25854.166666666697,
      "d": 7.8125,
      "v": 34
    },
    {
      "midi": 63,
      "hit": false,
      "t": 25927.08333333335,
      "d": 966.1458333333321,
      "v": 96
    },
    {
      "midi": 67,
      "hit": false,
      "t": 25927.08333333335,
      "d": 966.1458333333321,
      "v": 96
    },
    {
      "midi": 70,
      "hit": false,
      "t": 25927.08333333335,
      "d": 968.75,
      "v": 96
    },
    {
      "midi": 39,
      "hit": false,
      "t": 25981.770833333336,
      "d": 473.9583333333321,
      "v": 96
    },
    {
      "midi": 51,
      "hit": false,
      "t": 25984.37500000003,
      "d": 44.27083333333212,
      "v": 96
    },
    {
      "midi": 58,
      "hit": false,
      "t": 25984.37500000003,
      "d": 44.27083333333212,
      "v": 127
    },
    {
      "midi": 55,
      "hit": false,
      "t": 25986.979166666675,
      "d": 406.25,
      "v": 102
    },
    {
      "midi": 63,
      "hit": false,
      "t": 25986.979166666675,
      "d": 406.25,
      "v": 90
    },
    {
      "midi": 70,
      "hit": false,
      "t": 25986.979166666675,
      "d": 406.25,
      "v": 99
    },
    {
      "midi": 75,
      "hit": false,
      "t": 25986.979166666675,
      "d": 408.8541666666679,
      "v": 101
    },
    {
      "midi": 58,
      "hit": false,
      "t": 26101.56250000003,
      "d": 31.25,
      "v": 60
    },
    {
      "midi": 58,
      "hit": false,
      "t": 26229.166666666697,
      "d": 28.64583333333212,
      "v": 66
    },
    {
      "midi": 51,
      "hit": false,
      "t": 26354.166666666697,
      "d": 39.0625,
      "v": 96
    },
    {
      "midi": 58,
      "hit": false,
      "t": 26354.166666666697,
      "d": 49.47916666666788,
      "v": 127
    },
    {
      "midi": 58,
      "hit": false,
      "t": 26479.166666666697,
      "d": 18.22916666666788,
      "v": 63
    },
    {
      "midi": 58,
      "hit": false,
      "t": 26604.166666666697,
      "d": 28.64583333333212,
      "v": 53
    },
    {
      "midi": 39,
      "hit": false,
      "t": 26729.166666666668,
      "d": 39.0625,
      "v": 96
    },
    {
      "midi": 51,
      "hit": false,
      "t": 26729.166666666697,
      "d": 39.0625,
      "v": 96
    },
    {
      "midi": 58,
      "hit": false,
      "t": 26731.770833333365,
      "d": 46.875,
      "v": 127
    },
    {
      "midi": 58,
      "hit": false,
      "t": 26851.562500000033,
      "d": 10.41666666666788,
      "v": 30
    },
    {
      "midi": 63,
      "hit": false,
      "t": 26895.83333333335,
      "d": 7.8125,
      "v": 96
    },
    {
      "midi": 68,
      "hit": false,
      "t": 26895.83333333335,
      "d": 7.8125,
      "v": 96
    },
    {
      "midi": 72,
      "hit": false,
      "t": 26895.83333333335,
      "d": 7.8125,
      "v": 96
    },
    {
      "midi": 63,
      "hit": false,
      "t": 26906.25000000002,
      "d": 18.22916666666788,
      "v": 96
    },
    {
      "midi": 68,
      "hit": false,
      "t": 26906.25000000002,
      "d": 18.22916666666788,
      "v": 96
    },
    {
      "midi": 72,
      "hit": false,
      "t": 26906.25000000002,
      "d": 18.22916666666788,
      "v": 96
    },
    {
      "midi": 63,
      "hit": false,
      "t": 26927.083333333354,
      "d": 947.9166666666679,
      "v": 96
    },
    {
      "midi": 68,
      "hit": false,
      "t": 26927.083333333354,
      "d": 947.9166666666679,
      "v": 96
    },
    {
      "midi": 72,
      "hit": false,
      "t": 26927.083333333354,
      "d": 947.9166666666679,
      "v": 96
    },
    {
      "midi": 32,
      "hit": false,
      "t": 26979.166666666668,
      "d": 893.2291666666679,
      "v": 96
    },
    {
      "midi": 60,
      "hit": false,
      "t": 26979.1666666667,
      "d": 28.64583333333212,
      "v": 44
    },
    {
      "midi": 44,
      "hit": false,
      "t": 27104.1666666667,
      "d": 39.0625,
      "v": 96
    },
    {
      "midi": 60,
      "hit": false,
      "t": 27104.1666666667,
      "d": 49.47916666666788,
      "v": 127
    },
    {
      "midi": 60,
      "hit": false,
      "t": 27229.1666666667,
      "d": 28.64583333333212,
      "v": 53
    },
    {
      "midi": 60,
      "hit": false,
      "t": 27354.1666666667,
      "d": 28.64583333333212,
      "v": 44
    },
    {
      "midi": 44,
      "hit": false,
      "t": 27479.1666666667,
      "d": 49.47916666666788,
      "v": 96
    },
    {
      "midi": 60,
      "hit": false,
      "t": 27479.1666666667,
      "d": 59.89583333333576,
      "v": 127
    },
    {
      "midi": 60,
      "hit": false,
      "t": 27604.166666666704,
      "d": 39.0625,
      "v": 43
    },
    {
      "midi": 63,
      "hit": false,
      "t": 27729.166666666675,
      "d": 143.22916666666788,
      "v": 90
    },
    {
      "midi": 56,
      "hit": false,
      "t": 27729.166666666704,
      "d": 70.3125,
      "v": 87
    },
    {
      "midi": 60,
      "hit": false,
      "t": 27854.166666666675,
      "d": 18.22916666666788,
      "v": 90
    },
    {
      "midi": 56,
      "hit": false,
      "t": 27854.166666666704,
      "d": 7.8125,
      "v": 38
    },
    {
      "midi": 63,
      "hit": false,
      "t": 27875.000000000022,
      "d": 18.22916666666788,
      "v": 96
    },
    {
      "midi": 68,
      "hit": false,
      "t": 27875.000000000022,
      "d": 18.22916666666788,
      "v": 96
    },
    {
      "midi": 72,
      "hit": false,
      "t": 27877.60416666669,
      "d": 15.625,
      "v": 96
    },
    {
      "midi": 61,
      "hit": false,
      "t": 27895.833333333358,
      "d": 7.8125,
      "v": 96
    },
    {
      "midi": 65,
      "hit": false,
      "t": 27895.833333333358,
      "d": 7.8125,
      "v": 96
    },
    {
      "midi": 68,
      "hit": false,
      "t": 27895.833333333358,
      "d": 7.8125,
      "v": 96
    },
    {
      "midi": 37,
      "hit": false,
      "t": 27906.250000000004,
      "d": 7.8125,
      "v": 96
    },
    {
      "midi": 61,
      "hit": false,
      "t": 27906.250000000025,
      "d": 580.7291666666679,
      "v": 96
    },
    {
      "midi": 65,
      "hit": false,
      "t": 27906.250000000025,
      "d": 580.7291666666679,
      "v": 96
    },
    {
      "midi": 68,
      "hit": false,
      "t": 27906.250000000025,
      "d": 583.3333333333358,
      "v": 96
    },
    {
      "midi": 37,
      "hit": false,
      "t": 27981.770833333336,
      "d": 473.9583333333321,
      "v": 96
    },
    {
      "midi": 49,
      "hit": false,
      "t": 27984.375000000036,
      "d": 54.6875,
      "v": 96
    },
    {
      "midi": 53,
      "hit": false,
      "t": 27986.97916666668,
      "d": 406.25000000000364,
      "v": 102
    },
    {
      "midi": 61,
      "hit": false,
      "t": 27986.97916666668,
      "d": 406.25000000000364,
      "v": 99
    },
    {
      "midi": 65,
      "hit": false,
      "t": 27986.97916666668,
      "d": 406.25000000000364,
      "v": 90
    },
    {
      "midi": 68,
      "hit": false,
      "t": 27986.97916666668,
      "d": 406.25000000000364,
      "v": 101
    },
    {
      "midi": 56,
      "hit": false,
      "t": 27986.979166666704,
      "d": 62.5,
      "v": 127
    },
    {
      "midi": 56,
      "hit": false,
      "t": 28101.562500000036,
      "d": 20.83333333333212,
      "v": 31
    },
    {
      "midi": 56,
      "hit": false,
      "t": 28226.562500000036,
      "d": 31.25,
      "v": 57
    },
    {
      "midi": 49,
      "hit": false,
      "t": 28354.166666666704,
      "d": 49.47916666666788,
      "v": 96
    },
    {
      "midi": 56,
      "hit": false,
      "t": 28354.166666666704,
      "d": 59.89583333333576,
      "v": 127
    },
    {
      "midi": 56,
      "hit": false,
      "t": 28479.166666666708,
      "d": 7.8125,
      "v": 31
    },
    {
      "midi": 61,
      "hit": false,
      "t": 28489.58333333336,
      "d": 7.8125,
      "v": 96
    },
    {
      "midi": 64,
      "hit": false,
      "t": 28489.58333333336,
      "d": 7.8125,
      "v": 96
    },
    {
      "midi": 68,
      "hit": false,
      "t": 28489.58333333336,
      "d": 7.8125,
      "v": 96
    },
    {
      "midi": 61,
      "hit": false,
      "t": 28500.00000000003,
      "d": 372.3958333333321,
      "v": 96
    },
    {
      "midi": 65,
      "hit": false,
      "t": 28500.00000000003,
      "d": 372.3958333333321,
      "v": 96
    },
    {
      "midi": 68,
      "hit": false,
      "t": 28500.00000000003,
      "d": 375,
      "v": 96
    },
    {
      "midi": 56,
      "hit": false,
      "t": 28604.166666666708,
      "d": 39.0625,
      "v": 66
    },
    {
      "midi": 37,
      "hit": false,
      "t": 28729.166666666668,
      "d": 39.0625,
      "v": 96
    },
    {
      "midi": 49,
      "hit": false,
      "t": 28729.166666666708,
      "d": 49.47916666666788,
      "v": 96
    },
    {
      "midi": 56,
      "hit": false,
      "t": 28729.166666666708,
      "d": 49.47916666666788,
      "v": 127
    },
    {
      "midi": 56,
      "hit": false,
      "t": 28851.562500000044,
      "d": 20.83333333333212,
      "v": 65
    },
    {
      "midi": 62,
      "hit": false,
      "t": 28875.00000000003,
      "d": 18.22916666666788,
      "v": 96
    },
    {
      "midi": 65,
      "hit": false,
      "t": 28875.00000000003,
      "d": 18.22916666666788,
      "v": 96
    },
    {
      "midi": 70,
      "hit": false,
      "t": 28875.00000000003,
      "d": 18.22916666666788,
      "v": 96
    },
    {
      "midi": 61,
      "hit": false,
      "t": 28895.833333333365,
      "d": 18.22916666666788,
      "v": 96
    },
    {
      "midi": 65,
      "hit": false,
      "t": 28895.833333333365,
      "d": 18.22916666666788,
      "v": 96
    },
    {
      "midi": 70,
      "hit": false,
      "t": 28895.833333333365,
      "d": 18.22916666666788,
      "v": 96
    },
    {
      "midi": 61,
      "hit": false,
      "t": 28916.6666666667,
      "d": 986.9791666666679,
      "v": 96
    },
    {
      "midi": 65,
      "hit": false,
      "t": 28916.6666666667,
      "d": 989.5833333333358,
      "v": 96
    },
    {
      "midi": 68,
      "hit": false,
      "t": 28916.6666666667,
      "d": 989.5833333333358,
      "v": 96
    },
    {
      "midi": 70,
      "hit": false,
      "t": 28916.6666666667,
      "d": 989.5833333333358,
      "v": 96
    },
    {
      "midi": 34,
      "hit": false,
      "t": 28979.166666666668,
      "d": 539.0625,
      "v": 96
    },
    {
      "midi": 58,
      "hit": false,
      "t": 28979.166666666708,
      "d": 18.22916666666788,
      "v": 52
    },
    {
      "midi": 46,
      "hit": false,
      "t": 29104.166666666708,
      "d": 49.47916666666788,
      "v": 96
    },
    {
      "midi": 58,
      "hit": false,
      "t": 29104.166666666708,
      "d": 59.89583333333576,
      "v": 127
    },
    {
      "midi": 58,
      "hit": false,
      "t": 29229.16666666671,
      "d": 18.22916666666788,
      "v": 31
    },
    {
      "midi": 58,
      "hit": false,
      "t": 29354.16666666671,
      "d": 28.64583333333212,
      "v": 62
    },
    {
      "midi": 46,
      "hit": false,
      "t": 29479.16666666671,
      "d": 59.89583333333212,
      "v": 96
    },
    {
      "midi": 58,
      "hit": false,
      "t": 29479.16666666671,
      "d": 59.89583333333212,
      "v": 127
    },
    {
      "midi": 53,
      "hit": false,
      "t": 29604.16666666671,
      "d": 80.72916666666788,
      "v": 92
    },
    {
      "midi": 32,
      "hit": false,
      "t": 29606.770833333336,
      "d": 5.208333333332121,
      "v": 96
    },
    {
      "midi": 29,
      "hit": false,
      "t": 29729.166666666668,
      "d": 174.47916666666788,
      "v": 96
    },
    {
      "midi": 53,
      "hit": false,
      "t": 29729.16666666671,
      "d": 49.47916666666788,
      "v": 36
    },
    {
      "midi": 46,
      "hit": false,
      "t": 29851.562500000047,
      "d": 52.08333333333212,
      "v": 36
    },
    {
      "midi": 36,
      "hit": false,
      "t": 29981.770833333336,
      "d": 473.9583333333321,
      "v": 96
    },
    {
      "midi": 48,
      "hit": false,
      "t": 29984.375000000047,
      "d": 44.27083333333212,
      "v": 96
    },
    {
      "midi": 55,
      "hit": false,
      "t": 29984.375000000047,
      "d": 44.27083333333212,
      "v": 127
    },
    {
      "midi": 52,
      "hit": false,
      "t": 29986.979166666682,
      "d": 406.25,
      "v": 102
    },
    {
      "midi": 60,
      "hit": false,
      "t": 29986.979166666682,
      "d": 406.25,
      "v": 90
    },
    {
      "midi": 64,
      "hit": false,
      "t": 29986.979166666682,
      "d": 406.25,
      "v": 99
    },
    {
      "midi": 67,
      "hit": false,
      "t": 29986.979166666682,
      "d": 406.25,
      "v": 101
    },
    {
      "midi": 60,
      "hit": false,
      "t": 29989.58333333337,
      "d": 1882.8125,
      "v": 96
    },
    {
      "midi": 64,
      "hit": false,
      "t": 29989.58333333337,
      "d": 1882.8125,
      "v": 96
    },
    {
      "midi": 67,
      "hit": false,
      "t": 29989.58333333337,
      "d": 1882.8125,
      "v": 96
    },
    {
      "midi": 55,
      "hit": false,
      "t": 30101.562500000047,
      "d": 31.25,
      "v": 60
    },
    {
      "midi": 55,
      "hit": false,
      "t": 30226.562500000047,
      "d": 31.25,
      "v": 66
    },
    {
      "midi": 48,
      "hit": false,
      "t": 30354.166666666715,
      "d": 39.0625,
      "v": 96
    },
    {
      "midi": 55,
      "hit": false,
      "t": 30354.166666666715,
      "d": 49.47916666666788,
      "v": 127
    },
    {
      "midi": 55,
      "hit": false,
      "t": 30479.166666666715,
      "d": 18.22916666666788,
      "v": 63
    },
    {
      "midi": 55,
      "hit": false,
      "t": 30601.56250000005,
      "d": 31.25,
      "v": 53
    },
    {
      "midi": 36,
      "hit": false,
      "t": 30729.166666666668,
      "d": 39.0625,
      "v": 96
    },
    {
      "midi": 48,
      "hit": false,
      "t": 30729.16666666672,
      "d": 39.0625,
      "v": 96
    },
    {
      "midi": 55,
      "hit": false,
      "t": 30729.16666666672,
      "d": 49.47916666666788,
      "v": 127
    },
    {
      "midi": 55,
      "hit": false,
      "t": 30851.562500000055,
      "d": 10.41666666666788,
      "v": 30
    },
    {
      "midi": 36,
      "hit": false,
      "t": 30979.166666666668,
      "d": 664.0625,
      "v": 96
    },
    {
      "midi": 55,
      "hit": false,
      "t": 30979.166666666722,
      "d": 28.64583333333212,
      "v": 44
    },
    {
      "midi": 48,
      "hit": false,
      "t": 31101.562500000055,
      "d": 41.66666666666788,
      "v": 96
    },
    {
      "midi": 55,
      "hit": false,
      "t": 31101.562500000055,
      "d": 52.08333333333576,
      "v": 127
    },
    {
      "midi": 55,
      "hit": false,
      "t": 31226.56250000006,
      "d": 31.25,
      "v": 53
    },
    {
      "midi": 55,
      "hit": false,
      "t": 31229.166666666682,
      "d": 414.0625,
      "v": 90
    },
    {
      "midi": 55,
      "hit": false,
      "t": 31351.56250000006,
      "d": 31.25,
      "v": 44
    },
    {
      "midi": 60,
      "hit": false,
      "t": 31354.166666666682,
      "d": 414.0625,
      "v": 90
    },
    {
      "midi": 48,
      "hit": false,
      "t": 31479.166666666726,
      "d": 49.47916666666788,
      "v": 96
    },
    {
      "midi": 55,
      "hit": false,
      "t": 31479.166666666726,
      "d": 59.89583333333576,
      "v": 127
    },
    {
      "midi": 67,
      "hit": false,
      "t": 31604.166666666682,
      "d": 164.0625,
      "v": 90
    },
    {
      "midi": 55,
      "hit": false,
      "t": 31604.16666666673,
      "d": 39.0625,
      "v": 43
    },
    {
      "midi": 28,
      "hit": false,
      "t": 31729.166666666668,
      "d": 39.0625,
      "v": 96
    },
    {
      "midi": 50,
      "hit": false,
      "t": 31729.16666666673,
      "d": 70.3125,
      "v": 78
    },
    {
      "midi": 31,
      "hit": false,
      "t": 31854.166666666668,
      "d": 18.22916666666788,
      "v": 96
    },
    {
      "midi": 48,
      "hit": false,
      "t": 31854.16666666673,
      "d": 18.22916666666788,
      "v": 64
    },
    {
      "midi": 62,
      "hit": false,
      "t": 31875.000000000036,
      "d": 7.8125,
      "v": 96
    },
    {
      "midi": 67,
      "hit": false,
      "t": 31875.000000000036,
      "d": 7.8125,
      "v": 96
    },
    {
      "midi": 71,
      "hit": false,
      "t": 31875.000000000036,
      "d": 7.8125,
      "v": 96
    },
    {
      "midi": 62,
      "hit": false,
      "t": 31882.812500000036,
      "d": 10.41666666666788,
      "v": 96
    },
    {
      "midi": 67,
      "hit": false,
      "t": 31885.416666666704,
      "d": 7.8125,
      "v": 96
    },
    {
      "midi": 70,
      "hit": false,
      "t": 31885.416666666704,
      "d": 7.8125,
      "v": 96
    },
    {
      "midi": 62,
      "hit": false,
      "t": 31893.229166666704,
      "d": 72.91666666666788,
      "v": 96
    },
    {
      "midi": 67,
      "hit": false,
      "t": 31895.833333333372,
      "d": 70.3125,
      "v": 96
    },
    {
      "midi": 65,
      "hit": false,
      "t": 31895.833333333372,
      "d": 72.91666666666788,
      "v": 96
    },
    {
      "midi": 70,
      "hit": false,
      "t": 31895.833333333372,
      "d": 72.91666666666788,
      "v": 96
    },
    {
      "midi": 31,
      "hit": false,
      "t": 31981.770833333336,
      "d": 471.3541666666679,
      "v": 96
    },
    {
      "midi": 43,
      "hit": false,
      "t": 31984.375000000065,
      "d": 44.27083333333212,
      "v": 96
    },
    {
      "midi": 58,
      "hit": false,
      "t": 31984.375000000065,
      "d": 44.27083333333212,
      "v": 127
    },
    {
      "midi": 67,
      "hit": false,
      "t": 31986.979166666686,
      "d": 406.25,
      "v": 99
    },
    {
      "midi": 70,
      "hit": false,
      "t": 31986.979166666686,
      "d": 406.25,
      "v": 101
    },
    {
      "midi": 62,
      "hit": false,
      "t": 31986.979166666708,
      "d": 1895.8333333333358,
      "v": 96
    },
    {
      "midi": 67,
      "hit": false,
      "t": 31989.583333333376,
      "d": 1893.2291666666679,
      "v": 96
    },
    {
      "midi": 70,
      "hit": false,
      "t": 31989.583333333376,
      "d": 1893.2291666666679,
      "v": 96
    },
    {
      "midi": 65,
      "hit": false,
      "t": 31992.18750000002,
      "d": 401.0416666666679,
      "v": 90
    },
    {
      "midi": 74,
      "hit": false,
      "t": 31992.18750000002,
      "d": 401.0416666666679,
      "v": 102
    },
    {
      "midi": 65,
      "hit": false,
      "t": 31992.187500000044,
      "d": 1890.625,
      "v": 96
    },
    {
      "midi": 58,
      "hit": false,
      "t": 32101.562500000065,
      "d": 31.25,
      "v": 60
    },
    {
      "midi": 58,
      "hit": false,
      "t": 32226.562500000065,
      "d": 31.25,
      "v": 66
    },
    {
      "midi": 43,
      "hit": false,
      "t": 32351.562500000065,
      "d": 41.66666666666788,
      "v": 96
    },
    {
      "midi": 58,
      "hit": false,
      "t": 32354.166666666733,
      "d": 49.47916666666788,
      "v": 127
    },
    {
      "midi": 58,
      "hit": false,
      "t": 32479.166666666733,
      "d": 18.22916666666788,
      "v": 63
    },
    {
      "midi": 58,
      "hit": false,
      "t": 32601.56250000007,
      "d": 31.25,
      "v": 53
    },
    {
      "midi": 31,
      "hit": false,
      "t": 32729.16666666667,
      "d": 39.0625,
      "v": 96
    },
    {
      "midi": 43,
      "hit": false,
      "t": 32729.166666666737,
      "d": 39.0625,
      "v": 96
    },
    {
      "midi": 58,
      "hit": false,
      "t": 32729.166666666737,
      "d": 49.47916666666424,
      "v": 127
    },
    {
      "midi": 58,
      "hit": false,
      "t": 32851.562500000065,
      "d": 10.416666666664241,
      "v": 30
    },
    {
      "midi": 67,
      "hit": false,
      "t": 32955.729166666686,
      "d": 414.0625,
      "v": 101
    },
    {
      "midi": 62,
      "hit": false,
      "t": 32955.729166666686,
      "d": 416.66666666666424,
      "v": 101
    },
    {
      "midi": 31,
      "hit": false,
      "t": 32979.16666666667,
      "d": 903.6458333333358,
      "v": 96
    },
    {
      "midi": 58,
      "hit": false,
      "t": 32979.16666666673,
      "d": 26.04166666666424,
      "v": 44
    },
    {
      "midi": 77,
      "hit": false,
      "t": 32981.77083333335,
      "d": 411.45833333333576,
      "v": 101
    },
    {
      "midi": 82,
      "hit": false,
      "t": 32997.39583333335,
      "d": 414.0625,
      "v": 101
    },
    {
      "midi": 43,
      "hit": false,
      "t": 33101.56250000006,
      "d": 41.66666666666424,
      "v": 96
    },
    {
      "midi": 58,
      "hit": false,
      "t": 33101.56250000006,
      "d": 49.47916666666424,
      "v": 127
    },
    {
      "midi": 58,
      "hit": false,
      "t": 33226.56250000006,
      "d": 31.25,
      "v": 53
    },
    {
      "midi": 58,
      "hit": false,
      "t": 33351.56250000006,
      "d": 31.25,
      "v": 44
    },
    {
      "midi": 43,
      "hit": false,
      "t": 33476.56250000006,
      "d": 52.08333333332848,
      "v": 96
    },
    {
      "midi": 58,
      "hit": false,
      "t": 33479.16666666672,
      "d": 57.29166666666424,
      "v": 127
    },
    {
      "midi": 58,
      "hit": false,
      "t": 33601.56250000005,
      "d": 39.0625,
      "v": 43
    },
    {
      "midi": 55,
      "hit": false,
      "t": 33729.166666666715,
      "d": 26.04166666666424,
      "v": 81
    },
    {
      "midi": 55,
      "hit": false,
      "t": 33851.562500000044,
      "d": 10.416666666664241,
      "v": 35
    },
    {
      "midi": 60,
      "hit": false,
      "t": 33885.41666666671,
      "d": 28.64583333333576,
      "v": 96
    },
    {
      "midi": 65,
      "hit": false,
      "t": 33885.41666666671,
      "d": 28.64583333333576,
      "v": 96
    },
    {
      "midi": 69,
      "hit": false,
      "t": 33885.41666666671,
      "d": 28.64583333333576,
      "v": 96
    },
    {
      "midi": 60,
      "hit": false,
      "t": 33914.062500000044,
      "d": 20.833333333328483,
      "v": 96
    },
    {
      "midi": 65,
      "hit": false,
      "t": 33914.062500000044,
      "d": 20.833333333328483,
      "v": 96
    },
    {
      "midi": 69,
      "hit": false,
      "t": 33916.66666666671,
      "d": 18.22916666666424,
      "v": 96
    },
    {
      "midi": 60,
      "hit": false,
      "t": 33934.89583333337,
      "d": 1937.5,
      "v": 96
    },
    {
      "midi": 64,
      "hit": false,
      "t": 33934.89583333337,
      "d": 1937.5,
      "v": 96
    },
    {
      "midi": 69,
      "hit": false,
      "t": 33937.50000000004,
      "d": 1934.8958333333358,
      "v": 96
    },
    {
      "midi": 29,
      "hit": false,
      "t": 33981.77083333334,
      "d": 471.35416666666424,
      "v": 96
    },
    {
      "midi": 52,
      "hit": false,
      "t": 33984.37500000002,
      "d": 406.2499999999927,
      "v": 102
    },
    {
      "midi": 60,
      "hit": false,
      "t": 33984.37500000002,
      "d": 408.85416666665697,
      "v": 99
    },
    {
      "midi": 41,
      "hit": false,
      "t": 33984.375000000044,
      "d": 52.08333333333576,
      "v": 96
    },
    {
      "midi": 57,
      "hit": false,
      "t": 33984.375000000044,
      "d": 62.5,
      "v": 127
    },
    {
      "midi": 69,
      "hit": false,
      "t": 33986.979166666686,
      "d": 406.2499999999927,
      "v": 101
    },
    {
      "midi": 76,
      "hit": false,
      "t": 33986.979166666686,
      "d": 406.2499999999927,
      "v": 90
    },
    {
      "midi": 57,
      "hit": false,
      "t": 34101.562500000044,
      "d": 18.22916666666424,
      "v": 31
    },
    {
      "midi": 57,
      "hit": false,
      "t": 34226.562500000044,
      "d": 31.25,
      "v": 57
    },
    {
      "midi": 41,
      "hit": false,
      "t": 34351.562500000044,
      "d": 49.47916666666424,
      "v": 96
    },
    {
      "midi": 57,
      "hit": false,
      "t": 34351.562500000044,
      "d": 59.89583333332848,
      "v": 127
    },
    {
      "midi": 57,
      "hit": false,
      "t": 34476.56250000004,
      "d": 39.0625,
      "v": 31
    },
    {
      "midi": 57,
      "hit": false,
      "t": 34601.56250000004,
      "d": 39.0625,
      "v": 66
    },
    {
      "midi": 29,
      "hit": false,
      "t": 34729.16666666667,
      "d": 36.45833333333576,
      "v": 96
    },
    {
      "midi": 41,
      "hit": false,
      "t": 34729.1666666667,
      "d": 46.875,
      "v": 96
    },
    {
      "midi": 57,
      "hit": false,
      "t": 34729.1666666667,
      "d": 46.875,
      "v": 127
    },
    {
      "midi": 57,
      "hit": false,
      "t": 34851.56250000004,
      "d": 28.64583333333576,
      "v": 65
    },
    {
      "midi": 29,
      "hit": false,
      "t": 34976.56250000001,
      "d": 895.8333333333358,
      "v": 96
    },
    {
      "midi": 57,
      "hit": false,
      "t": 34976.56250000004,
      "d": 18.22916666666424,
      "v": 52
    },
    {
      "midi": 41,
      "hit": false,
      "t": 35101.56250000004,
      "d": 49.47916666666424,
      "v": 96
    },
    {
      "midi": 57,
      "hit": false,
      "t": 35101.56250000004,
      "d": 59.89583333332848,
      "v": 127
    },
    {
      "midi": 57,
      "hit": false,
      "t": 35226.56250000003,
      "d": 18.22916666666424,
      "v": 31
    },
    {
      "midi": 57,
      "hit": false,
      "t": 35351.56250000003,
      "d": 28.64583333333576,
      "v": 62
    },
    {
      "midi": 64,
      "hit": false,
      "t": 35354.16666666668,
      "d": 411.45833333333576,
      "v": 90
    },
    {
      "midi": 41,
      "hit": false,
      "t": 35476.56250000003,
      "d": 59.89583333332848,
      "v": 96
    },
    {
      "midi": 57,
      "hit": false,
      "t": 35479.16666666669,
      "d": 57.29166666666424,
      "v": 127
    },
    {
      "midi": 57,
      "hit": false,
      "t": 35601.56250000002,
      "d": 18.22916666666424,
      "v": 69
    },
    {
      "midi": 69,
      "hit": false,
      "t": 35604.16666666668,
      "d": 268.2291666666715,
      "v": 90
    },
    {
      "midi": 52,
      "hit": false,
      "t": 35726.56250000002,
      "d": 39.0625,
      "v": 93
    },
    {
      "midi": 52,
      "hit": false,
      "t": 35851.56250000002,
      "d": 7.8125,
      "v": 34
    },
    {
      "midi": 61,
      "hit": false,
      "t": 35872.39583333337,
      "d": 31.25,
      "v": 96
    },
    {
      "midi": 64,
      "hit": false,
      "t": 35875.00000000004,
      "d": 28.64583333333576,
      "v": 96
    },
    {
      "midi": 69,
      "hit": false,
      "t": 35875.00000000004,
      "d": 28.64583333333576,
      "v": 96
    },
    {
      "midi": 60,
      "hit": false,
      "t": 35903.64583333337,
      "d": 20.83333333333576,
      "v": 96
    },
    {
      "midi": 64,
      "hit": false,
      "t": 35903.64583333337,
      "d": 20.83333333333576,
      "v": 96
    },
    {
      "midi": 69,
      "hit": false,
      "t": 35903.64583333337,
      "d": 20.83333333333576,
      "v": 96
    },
    {
      "midi": 60,
      "hit": false,
      "t": 35924.47916666671,
      "d": 955.7291666666642,
      "v": 96
    },
    {
      "midi": 64,
      "hit": false,
      "t": 35924.47916666671,
      "d": 958.3333333333285,
      "v": 96
    },
    {
      "midi": 69,
      "hit": false,
      "t": 35924.47916666671,
      "d": 958.3333333333285,
      "v": 96
    },
    {
      "midi": 33,
      "hit": false,
      "t": 35981.77083333334,
      "d": 471.35416666666424,
      "v": 96
    },
    {
      "midi": 45,
      "hit": false,
      "t": 35981.77083333336,
      "d": 44.27083333332848,
      "v": 96
    },
    {
      "midi": 69,
      "hit": false,
      "t": 35984.375000000015,
      "d": 408.85416666665697,
      "v": 99
    },
    {
      "midi": 72,
      "hit": false,
      "t": 35984.375000000015,
      "d": 408.85416666665697,
      "v": 101
    },
    {
      "midi": 57,
      "hit": false,
      "t": 35984.37500000002,
      "d": 41.66666666666424,
      "v": 127
    },
    {
      "midi": 45,
      "hit": false,
      "t": 35986.97916666668,
      "d": 406.2499999999927,
      "v": 102
    },
    {
      "midi": 64,
      "hit": false,
      "t": 35986.97916666668,
      "d": 406.2499999999927,
      "v": 90
    },
    {
      "midi": 57,
      "hit": false,
      "t": 36101.56250000002,
      "d": 28.64583333333576,
      "v": 60
    },
    {
      "midi": 57,
      "hit": false,
      "t": 36226.56250000002,
      "d": 28.64583333333576,
      "v": 66
    },
    {
      "midi": 45,
      "hit": false,
      "t": 36351.56250000002,
      "d": 39.0625,
      "v": 96
    },
    {
      "midi": 57,
      "hit": false,
      "t": 36351.56250000002,
      "d": 49.47916666666424,
      "v": 127
    },
    {
      "midi": 57,
      "hit": false,
      "t": 36476.56250000002,
      "d": 18.22916666666424,
      "v": 63
    },
    {
      "midi": 57,
      "hit": false,
      "t": 36601.56250000002,
      "d": 28.64583333333576,
      "v": 53
    },
    {
      "midi": 33,
      "hit": false,
      "t": 36729.16666666667,
      "d": 36.45833333333576,
      "v": 96
    },
    {
      "midi": 45,
      "hit": false,
      "t": 36729.16666666669,
      "d": 36.45833333333576,
      "v": 96
    },
    {
      "midi": 57,
      "hit": false,
      "t": 36729.16666666669,
      "d": 46.875,
      "v": 127
    },
    {
      "midi": 57,
      "hit": false,
      "t": 36851.56250000003,
      "d": 7.8125,
      "v": 30
    },
    {
      "midi": 62,
      "hit": false,
      "t": 36882.81250000004,
      "d": 31.25,
      "v": 96
    },
    {
      "midi": 66,
      "hit": false,
      "t": 36882.81250000004,
      "d": 31.25,
      "v": 96
    },
    {
      "midi": 69,
      "hit": false,
      "t": 36885.4166666667,
      "d": 28.64583333333576,
      "v": 96
    },
    {
      "midi": 62,
      "hit": false,
      "t": 36914.06250000004,
      "d": 28.645833333328483,
      "v": 96
    },
    {
      "midi": 66,
      "hit": false,
      "t": 36914.06250000004,
      "d": 31.249999999992724,
      "v": 96
    },
    {
      "midi": 69,
      "hit": false,
      "t": 36916.6666666667,
      "d": 28.645833333328483,
      "v": 96
    },
    {
      "midi": 62,
      "hit": false,
      "t": 36945.31250000003,
      "d": 18.22916666666424,
      "v": 96
    },
    {
      "midi": 66,
      "hit": false,
      "t": 36945.31250000003,
      "d": 20.833333333328483,
      "v": 96
    },
    {
      "midi": 69,
      "hit": false,
      "t": 36945.31250000003,
      "d": 20.833333333328483,
      "v": 96
    },
    {
      "midi": 60,
      "hit": false,
      "t": 36947.91666666669,
      "d": 18.22916666666424,
      "v": 96
    },
    {
      "midi": 64,
      "hit": false,
      "t": 36966.14583333336,
      "d": 895.8333333333285,
      "v": 96
    },
    {
      "midi": 66,
      "hit": false,
      "t": 36966.14583333336,
      "d": 895.8333333333285,
      "v": 96
    },
    {
      "midi": 69,
      "hit": false,
      "t": 36966.14583333336,
      "d": 895.8333333333285,
      "v": 96
    },
    {
      "midi": 60,
      "hit": false,
      "t": 36968.75000000002,
      "d": 893.2291666666642,
      "v": 96
    },
    {
      "midi": 38,
      "hit": false,
      "t": 36976.56250000001,
      "d": 882.8125,
      "v": 96
    },
    {
      "midi": 57,
      "hit": false,
      "t": 36976.56250000003,
      "d": 28.64583333333576,
      "v": 44
    },
    {
      "midi": 50,
      "hit": false,
      "t": 37101.56250000003,
      "d": 39.0625,
      "v": 96
    },
    {
      "midi": 57,
      "hit": false,
      "t": 37101.56250000003,
      "d": 49.47916666666424,
      "v": 127
    },
    {
      "midi": 57,
      "hit": false,
      "t": 37226.56250000003,
      "d": 28.64583333333576,
      "v": 53
    },
    {
      "midi": 57,
      "hit": false,
      "t": 37351.56250000003,
      "d": 28.64583333333576,
      "v": 44
    },
    {
      "midi": 50,
      "hit": false,
      "t": 37476.56250000003,
      "d": 49.47916666666424,
      "v": 96
    },
    {
      "midi": 57,
      "hit": false,
      "t": 37479.16666666669,
      "d": 57.29166666666424,
      "v": 127
    },
    {
      "midi": 57,
      "hit": false,
      "t": 37601.56250000002,
      "d": 39.0625,
      "v": 43
    },
    {
      "midi": 54,
      "hit": false,
      "t": 37726.56250000002,
      "d": 70.3125,
      "v": 87
    },
    {
      "midi": 66,
      "hit": false,
      "t": 37729.16666666667,
      "d": 132.8125,
      "v": 90
    },
    {
      "midi": 54,
      "hit": false,
      "t": 37851.56250000002,
      "d": 10.416666666664241,
      "v": 38
    },
    {
      "midi": 64,
      "hit": false,
      "t": 37854.16666666667,
      "d": 7.8125,
      "v": 90
    },
    {
      "midi": 60,
      "hit": false,
      "t": 37864.58333333335,
      "d": 26.04166666666424,
      "v": 96
    },
    {
      "midi": 65,
      "hit": false,
      "t": 37864.58333333335,
      "d": 28.645833333328483,
      "v": 96
    },
    {
      "midi": 69,
      "hit": false,
      "t": 37864.58333333335,
      "d": 28.645833333328483,
      "v": 96
    },
    {
      "midi": 62,
      "hit": false,
      "t": 37893.22916666668,
      "d": 39.0625,
      "v": 96
    },
    {
      "midi": 65,
      "hit": false,
      "t": 37893.22916666668,
      "d": 41.66666666666424,
      "v": 96
    },
    {
      "midi": 70,
      "hit": false,
      "t": 37893.22916666668,
      "d": 41.66666666666424,
      "v": 96
    },
    {
      "midi": 62,
      "hit": false,
      "t": 37934.89583333334,
      "d": 28.64583333333576,
      "v": 96
    },
    {
      "midi": 65,
      "hit": false,
      "t": 37934.89583333334,
      "d": 31.25,
      "v": 96
    },
    {
      "midi": 70,
      "hit": false,
      "t": 37934.89583333334,
      "d": 31.25,
      "v": 96
    },
    {
      "midi": 62,
      "hit": false,
      "t": 37966.14583333334,
      "d": 1062.5,
      "v": 96
    },
    {
      "midi": 65,
      "hit": false,
      "t": 37966.14583333334,
      "d": 1062.5,
      "v": 96
    },
    {
      "midi": 69,
      "hit": false,
      "t": 37966.14583333334,
      "d": 1062.5,
      "v": 96
    },
    {
      "midi": 34,
      "hit": false,
      "t": 37981.77083333334,
      "d": 471.35416666666424,
      "v": 96
    },
    {
      "midi": 46,
      "hit": false,
      "t": 37981.77083333335,
      "d": 54.6875,
      "v": 96
    },
    {
      "midi": 53,
      "hit": false,
      "t": 37984.375,
      "d": 406.25,
      "v": 102
    },
    {
      "midi": 62,
      "hit": false,
      "t": 37984.375,
      "d": 406.25,
      "v": 99
    },
    {
      "midi": 57,
      "hit": false,
      "t": 37984.375000000015,
      "d": 62.5,
      "v": 127
    },
    {
      "midi": 65,
      "hit": false,
      "t": 37986.979166666664,
      "d": 403.64583333333576,
      "v": 90
    },
    {
      "midi": 69,
      "hit": false,
      "t": 37986.979166666664,
      "d": 406.25,
      "v": 101
    },
    {
      "midi": 57,
      "hit": false,
      "t": 38101.562500000015,
      "d": 18.22916666666424,
      "v": 31
    },
    {
      "midi": 57,
      "hit": false,
      "t": 38226.562500000015,
      "d": 28.64583333333576,
      "v": 57
    },
    {
      "midi": 46,
      "hit": false,
      "t": 38351.562500000015,
      "d": 49.47916666666424,
      "v": 96
    },
    {
      "midi": 57,
      "hit": false,
      "t": 38351.562500000015,
      "d": 59.89583333332848,
      "v": 127
    },
    {
      "midi": 57,
      "hit": false,
      "t": 38476.56250000001,
      "d": 39.0625,
      "v": 31
    },
    {
      "midi": 57,
      "hit": false,
      "t": 38601.56250000001,
      "d": 39.0625,
      "v": 66
    },
    {
      "midi": 34,
      "hit": false,
      "t": 38726.56250000001,
      "d": 39.0625,
      "v": 96
    },
    {
      "midi": 46,
      "hit": false,
      "t": 38729.16666666667,
      "d": 46.875,
      "v": 96
    },
    {
      "midi": 57,
      "hit": false,
      "t": 38729.16666666667,
      "d": 46.875,
      "v": 127
    },
    {
      "midi": 57,
      "hit": false,
      "t": 38851.56250000001,
      "d": 28.64583333333576,
      "v": 65
    },
    {
      "midi": 57,
      "hit": false,
      "t": 38976.56250000001,
      "d": 18.22916666666424,
      "v": 52
    },
    {
      "midi": 34,
      "hit": false,
      "t": 38976.56250000001,
      "d": 52.08333333333576,
      "v": 96
    },
    {
      "midi": 28,
      "hit": false,
      "t": 39028.64583333334,
      "d": 18.22916666666424,
      "v": 96
    },
    {
      "midi": 58,
      "hit": false,
      "t": 39031.25000000001,
      "d": 15.625,
      "v": 96
    },
    {
      "midi": 62,
      "hit": false,
      "t": 39031.25000000001,
      "d": 18.22916666666424,
      "v": 96
    },
    {
      "midi": 64,
      "hit": false,
      "t": 39031.25000000001,
      "d": 18.22916666666424,
      "v": 96
    },
    {
      "midi": 68,
      "hit": false,
      "t": 39031.25000000001,
      "d": 18.22916666666424,
      "v": 96
    },
    {
      "midi": 34,
      "hit": false,
      "t": 39049.47916666667,
      "d": 466.14583333333576,
      "v": 96
    },
    {
      "midi": 62,
      "hit": false,
      "t": 39049.47916666667,
      "d": 822.9166666666642,
      "v": 96
    },
    {
      "midi": 65,
      "hit": false,
      "t": 39052.083333333336,
      "d": 820.3125,
      "v": 96
    },
    {
      "midi": 70,
      "hit": false,
      "t": 39052.083333333336,
      "d": 820.3125,
      "v": 96
    },
    {
      "midi": 46,
      "hit": false,
      "t": 39101.56250000001,
      "d": 49.47916666666424,
      "v": 96
    },
    {
      "midi": 58,
      "hit": false,
      "t": 39101.56250000001,
      "d": 59.89583333332848,
      "v": 127
    },
    {
      "midi": 58,
      "hit": false,
      "t": 39226.5625,
      "d": 18.22916666666424,
      "v": 31
    },
    {
      "midi": 58,
      "hit": false,
      "t": 39351.5625,
      "d": 28.64583333333576,
      "v": 62
    },
    {
      "midi": 46,
      "hit": false,
      "t": 39476.5625,
      "d": 59.89583333332848,
      "v": 96
    },
    {
      "midi": 58,
      "hit": false,
      "t": 39479.166666666664,
      "d": 57.29166666666424,
      "v": 127
    },
    {
      "midi": 53,
      "hit": false,
      "t": 39601.56249999999,
      "d": 80.72916666666424,
      "v": 92
    },
    {
      "midi": 34,
      "hit": false,
      "t": 39601.56250000001,
      "d": 7.8125,
      "v": 96
    },
    {
      "midi": 53,
      "hit": false,
      "t": 39726.56249999999,
      "d": 49.47916666666424,
      "v": 36
    },
    {
      "midi": 29,
      "hit": false,
      "t": 39726.56250000001,
      "d": 143.22916666666424,
      "v": 96
    },
    {
      "midi": 46,
      "hit": false,
      "t": 39851.56249999999,
      "d": 18.22916666666424,
      "v": 36
    },
    {
      "midi": 45,
      "hit": false,
      "t": 39981.77083333332,
      "d": 44.27083333332848,
      "v": 96
    },
    {
      "midi": 33,
      "hit": false,
      "t": 39981.770833333336,
      "d": 471.35416666666424,
      "v": 96
    },
    {
      "midi": 57,
      "hit": false,
      "t": 39984.374999999985,
      "d": 41.66666666666424,
      "v": 127
    },
    {
      "midi": 52,
      "hit": false,
      "t": 39984.37499999999,
      "d": 406.25,
      "v": 102
    },
    {
      "midi": 61,
      "hit": false,
      "t": 39984.37499999999,
      "d": 406.25,
      "v": 90
    },
    {
      "midi": 64,
      "hit": false,
      "t": 39986.97916666666,
      "d": 403.64583333333576,
      "v": 99
    },
    {
      "midi": 69,
      "hit": false,
      "t": 39986.97916666666,
      "d": 406.25,
      "v": 101
    },
    {
      "midi": 61,
      "hit": false,
      "t": 39986.97916666667,
      "d": 924.4791666666642,
      "v": 96
    },
    {
      "midi": 64,
      "hit": false,
      "t": 39986.97916666667,
      "d": 924.4791666666642,
      "v": 96
    },
    {
      "midi": 69,
      "hit": false,
      "t": 39986.97916666667,
      "d": 924.4791666666642,
      "v": 96
    },
    {
      "midi": 57,
      "hit": false,
      "t": 40098.958333333314,
      "d": 31.25,
      "v": 60
    },
    {
      "midi": 57,
      "hit": false,
      "t": 40226.56249999998,
      "d": 28.64583333333576,
      "v": 66
    },
    {
      "midi": 45,
      "hit": false,
      "t": 40351.56249999998,
      "d": 39.0625,
      "v": 96
    },
    {
      "midi": 57,
      "hit": false,
      "t": 40351.56249999998,
      "d": 49.47916666666424,
      "v": 127
    },
    {
      "midi": 57,
      "hit": false,
      "t": 40476.56249999998,
      "d": 18.22916666666424,
      "v": 63
    },
    {
      "midi": 57,
      "hit": false,
      "t": 40601.56249999998,
      "d": 28.64583333333576,
      "v": 53
    },
    {
      "midi": 45,
      "hit": false,
      "t": 40726.56249999998,
      "d": 39.0625,
      "v": 96
    },
    {
      "midi": 33,
      "hit": false,
      "t": 40726.5625,
      "d": 39.0625,
      "v": 96
    },
    {
      "midi": 57,
      "hit": false,
      "t": 40729.16666666664,
      "d": 46.875,
      "v": 127
    },
    {
      "midi": 57,
      "hit": false,
      "t": 40848.95833333331,
      "d": 10.416666666664241,
      "v": 30
    },
    {
      "midi": 61,
      "hit": false,
      "t": 40914.0625,
      "d": 955.7291666666642,
      "v": 96
    },
    {
      "midi": 64,
      "hit": false,
      "t": 40914.0625,
      "d": 955.7291666666642,
      "v": 96
    },
    {
      "midi": 67,
      "hit": false,
      "t": 40914.0625,
      "d": 958.3333333333285,
      "v": 96
    },
    {
      "midi": 69,
      "hit": false,
      "t": 40914.0625,
      "d": 958.3333333333285,
      "v": 96
    },
    {
      "midi": 64,
      "hit": false,
      "t": 40953.12499999999,
      "d": 416.66666666666424,
      "v": 101
    },
    {
      "midi": 61,
      "hit": false,
      "t": 40955.72916666666,
      "d": 414.0625,
      "v": 101
    },
    {
      "midi": 57,
      "hit": false,
      "t": 40976.56249999997,
      "d": 28.64583333333576,
      "v": 44
    },
    {
      "midi": 33,
      "hit": false,
      "t": 40976.5625,
      "d": 893.2291666666642,
      "v": 96
    },
    {
      "midi": 79,
      "hit": false,
      "t": 40979.16666666666,
      "d": 411.45833333333576,
      "v": 101
    },
    {
      "midi": 81,
      "hit": false,
      "t": 40994.79166666666,
      "d": 416.6666666666715,
      "v": 101
    },
    {
      "midi": 45,
      "hit": false,
      "t": 41101.56249999997,
      "d": 39.0625,
      "v": 96
    },
    {
      "midi": 57,
      "hit": false,
      "t": 41101.56249999997,
      "d": 49.47916666666424,
      "v": 127
    },
    {
      "midi": 57,
      "hit": false,
      "t": 41226.56249999997,
      "d": 28.64583333333576,
      "v": 53
    },
    {
      "midi": 57,
      "hit": false,
      "t": 41351.56249999997,
      "d": 28.64583333333576,
      "v": 44
    },
    {
      "midi": 45,
      "hit": false,
      "t": 41476.56249999997,
      "d": 49.47916666666424,
      "v": 96
    },
    {
      "midi": 57,
      "hit": false,
      "t": 41476.56249999997,
      "d": 59.89583333332848,
      "v": 127
    },
    {
      "midi": 57,
      "hit": false,
      "t": 41601.56249999996,
      "d": 39.0625,
      "v": 43
    },
    {
      "midi": 52,
      "hit": false,
      "t": 41726.56249999996,
      "d": 28.64583333333576,
      "v": 81
    },
    {
      "midi": 52,
      "hit": false,
      "t": 41851.56249999996,
      "d": 7.8125,
      "v": 35
    },
    {
      "midi": 60,
      "hit": false,
      "t": 41872.39583333333,
      "d": 28.64583333333576,
      "v": 96
    },
    {
      "midi": 65,
      "hit": false,
      "t": 41872.39583333333,
      "d": 28.64583333333576,
      "v": 96
    },
    {
      "midi": 69,
      "hit": false,
      "t": 41872.39583333333,
      "d": 28.64583333333576,
      "v": 96
    },
    {
      "midi": 60,
      "hit": false,
      "t": 41903.64583333333,
      "d": 18.22916666666424,
      "v": 96
    },
    {
      "midi": 65,
      "hit": false,
      "t": 41903.64583333333,
      "d": 18.22916666666424,
      "v": 96
    },
    {
      "midi": 69,
      "hit": false,
      "t": 41903.64583333333,
      "d": 18.22916666666424,
      "v": 96
    },
    {
      "midi": 60,
      "hit": false,
      "t": 41924.47916666666,
      "d": 1976.5625,
      "v": 96
    },
    {
      "midi": 64,
      "hit": false,
      "t": 41924.47916666666,
      "d": 1976.5625,
      "v": 96
    },
    {
      "midi": 69,
      "hit": false,
      "t": 41924.47916666666,
      "d": 1976.5625,
      "v": 96
    },
    {
      "midi": 29,
      "hit": false,
      "t": 41979.166666666664,
      "d": 473.95833333333576,
      "v": 96
    },
    {
      "midi": 41,
      "hit": false,
      "t": 41981.7708333333,
      "d": 54.6875,
      "v": 96
    },
    {
      "midi": 57,
      "hit": false,
      "t": 41981.7708333333,
      "d": 65.10416666666424,
      "v": 127
    },
    {
      "midi": 52,
      "hit": false,
      "t": 41981.77083333332,
      "d": 408.85416666666424,
      "v": 102
    },
    {
      "midi": 60,
      "hit": false,
      "t": 41984.374999999985,
      "d": 406.25,
      "v": 99
    },
    {
      "midi": 69,
      "hit": false,
      "t": 41984.374999999985,
      "d": 406.25,
      "v": 101
    },
    {
      "midi": 76,
      "hit": false,
      "t": 41984.374999999985,
      "d": 406.25,
      "v": 90
    },
    {
      "midi": 57,
      "hit": false,
      "t": 42098.9583333333,
      "d": 20.83333333333576,
      "v": 31
    },
    {
      "midi": 57,
      "hit": false,
      "t": 42223.9583333333,
      "d": 31.25,
      "v": 57
    },
    {
      "midi": 41,
      "hit": false,
      "t": 42351.56249999996,
      "d": 49.47916666666424,
      "v": 96
    },
    {
      "midi": 57,
      "hit": false,
      "t": 42351.56249999996,
      "d": 59.89583333332848,
      "v": 127
    },
    {
      "midi": 57,
      "hit": false,
      "t": 42476.562499999956,
      "d": 39.0625,
      "v": 31
    },
    {
      "midi": 57,
      "hit": false,
      "t": 42601.562499999956,
      "d": 39.0625,
      "v": 66
    },
    {
      "midi": 41,
      "hit": false,
      "t": 42726.562499999956,
      "d": 49.47916666666424,
      "v": 96
    },
    {
      "midi": 29,
      "hit": false,
      "t": 42726.5625,
      "d": 39.0625,
      "v": 96
    },
    {
      "midi": 57,
      "hit": false,
      "t": 42729.16666666662,
      "d": 46.875,
      "v": 127
    },
    {
      "midi": 57,
      "hit": false,
      "t": 42848.958333333285,
      "d": 31.25,
      "v": 65
    },
    {
      "midi": 57,
      "hit": false,
      "t": 42976.56249999995,
      "d": 18.22916666666424,
      "v": 52
    },
    {
      "midi": 29,
      "hit": false,
      "t": 42976.5625,
      "d": 914.0625,
      "v": 96
    },
    {
      "midi": 41,
      "hit": false,
      "t": 43098.95833333328,
      "d": 52.08333333332848,
      "v": 96
    },
    {
      "midi": 57,
      "hit": false,
      "t": 43101.56249999994,
      "d": 59.89583333332848,
      "v": 127
    },
    {
      "midi": 57,
      "hit": false,
      "t": 43226.562499999935,
      "d": 18.22916666666424,
      "v": 31
    },
    {
      "midi": 57,
      "hit": false,
      "t": 43351.562499999935,
      "d": 28.64583333333576,
      "v": 62
    },
    {
      "midi": 64,
      "hit": false,
      "t": 43351.562499999985,
      "d": 414.0625,
      "v": 90
    },
    {
      "midi": 41,
      "hit": false,
      "t": 43476.562499999935,
      "d": 59.89583333333576,
      "v": 96
    },
    {
      "midi": 57,
      "hit": false,
      "t": 43476.562499999935,
      "d": 59.89583333333576,
      "v": 127
    },
    {
      "midi": 57,
      "hit": false,
      "t": 43601.562499999935,
      "d": 18.22916666666424,
      "v": 69
    },
    {
      "midi": 69,
      "hit": false,
      "t": 43601.562499999985,
      "d": 289.0625,
      "v": 90
    },
    {
      "midi": 52,
      "hit": false,
      "t": 43726.562499999935,
      "d": 39.0625,
      "v": 93
    },
    {
      "midi": 52,
      "hit": false,
      "t": 43851.562499999935,
      "d": 7.8125,
      "v": 34
    },
    {
      "midi": 62,
      "hit": false,
      "t": 43903.64583333332,
      "d": 7.8125,
      "v": 96
    },
    {
      "midi": 66,
      "hit": false,
      "t": 43903.64583333332,
      "d": 7.8125,
      "v": 96
    },
    {
      "midi": 71,
      "hit": false,
      "t": 43903.64583333332,
      "d": 7.8125,
      "v": 96
    },
    {
      "midi": 62,
      "hit": false,
      "t": 43914.062499999985,
      "d": 684.8958333333358,
      "v": 96
    },
    {
      "midi": 66,
      "hit": false,
      "t": 43914.062499999985,
      "d": 687.5,
      "v": 96
    },
    {
      "midi": 69,
      "hit": false,
      "t": 43914.062499999985,
      "d": 687.5,
      "v": 96
    },
    {
      "midi": 71,
      "hit": false,
      "t": 43914.062499999985,
      "d": 687.5,
      "v": 96
    },
    {
      "midi": 35,
      "hit": false,
      "t": 43979.166666666664,
      "d": 473.95833333333576,
      "v": 96
    },
    {
      "midi": 47,
      "hit": false,
      "t": 43981.77083333327,
      "d": 44.27083333333576,
      "v": 96
    },
    {
      "midi": 59,
      "hit": false,
      "t": 43981.77083333327,
      "d": 44.27083333333576,
      "v": 127
    },
    {
      "midi": 71,
      "hit": false,
      "t": 43984.374999999985,
      "d": 406.2499999999927,
      "v": 99
    },
    {
      "midi": 74,
      "hit": false,
      "t": 43984.374999999985,
      "d": 406.2499999999927,
      "v": 101
    },
    {
      "midi": 62,
      "hit": false,
      "t": 43986.97916666665,
      "d": 403.6458333333285,
      "v": 102
    },
    {
      "midi": 69,
      "hit": false,
      "t": 43986.97916666665,
      "d": 403.6458333333285,
      "v": 102
    },
    {
      "midi": 66,
      "hit": false,
      "t": 43986.97916666665,
      "d": 406.2499999999927,
      "v": 90
    },
    {
      "midi": 59,
      "hit": false,
      "t": 44098.95833333327,
      "d": 31.25,
      "v": 60
    },
    {
      "midi": 59,
      "hit": false,
      "t": 44223.95833333327,
      "d": 31.25,
      "v": 66
    },
    {
      "midi": 47,
      "hit": false,
      "t": 44351.562499999935,
      "d": 39.0625,
      "v": 96
    },
    {
      "midi": 59,
      "hit": false,
      "t": 44351.562499999935,
      "d": 49.47916666666424,
      "v": 127
    },
    {
      "midi": 59,
      "hit": false,
      "t": 44476.562499999935,
      "d": 18.22916666666424,
      "v": 63
    },
    {
      "midi": 62,
      "hit": false,
      "t": 44601.562499999985,
      "d": 18.22916666666424,
      "v": 96
    },
    {
      "midi": 70,
      "hit": false,
      "t": 44601.562499999985,
      "d": 18.22916666666424,
      "v": 96
    },
    {
      "midi": 66,
      "hit": false,
      "t": 44604.16666666665,
      "d": 15.625,
      "v": 96
    },
    {
      "midi": 58,
      "hit": false,
      "t": 44606.77083333326,
      "d": 13.020833333335759,
      "v": 53
    },
    {
      "midi": 62,
      "hit": false,
      "t": 44622.395833333314,
      "d": 1236.9791666666642,
      "v": 96
    },
    {
      "midi": 66,
      "hit": false,
      "t": 44622.395833333314,
      "d": 1239.5833333333285,
      "v": 96
    },
    {
      "midi": 69,
      "hit": false,
      "t": 44622.395833333314,
      "d": 1239.5833333333285,
      "v": 96
    },
    {
      "midi": 71,
      "hit": false,
      "t": 44622.395833333314,
      "d": 1239.5833333333285,
      "v": 96
    },
    {
      "midi": 47,
      "hit": false,
      "t": 44726.562499999935,
      "d": 39.0625,
      "v": 96
    },
    {
      "midi": 59,
      "hit": false,
      "t": 44726.562499999935,
      "d": 49.47916666666424,
      "v": 127
    },
    {
      "midi": 35,
      "hit": false,
      "t": 44729.166666666664,
      "d": 36.45833333333576,
      "v": 96
    },
    {
      "midi": 59,
      "hit": false,
      "t": 44848.95833333326,
      "d": 10.416666666664241,
      "v": 30
    },
    {
      "midi": 35,
      "hit": false,
      "t": 44973.958333333336,
      "d": 885.4166666666642,
      "v": 96
    },
    {
      "midi": 59,
      "hit": false,
      "t": 44976.56249999993,
      "d": 28.64583333333576,
      "v": 44
    },
    {
      "midi": 47,
      "hit": false,
      "t": 45098.95833333326,
      "d": 41.66666666666424,
      "v": 96
    },
    {
      "midi": 59,
      "hit": false,
      "t": 45101.56249999993,
      "d": 49.47916666666424,
      "v": 127
    },
    {
      "midi": 59,
      "hit": false,
      "t": 45226.56249999993,
      "d": 28.64583333333576,
      "v": 53
    },
    {
      "midi": 59,
      "hit": false,
      "t": 45348.95833333326,
      "d": 31.25,
      "v": 44
    },
    {
      "midi": 47,
      "hit": false,
      "t": 45476.56249999993,
      "d": 49.47916666666424,
      "v": 96
    },
    {
      "midi": 59,
      "hit": false,
      "t": 45476.56249999993,
      "d": 59.89583333332848,
      "v": 127
    },
    {
      "midi": 59,
      "hit": false,
      "t": 45601.56249999992,
      "d": 39.0625,
      "v": 43
    },
    {
      "midi": 54,
      "hit": false,
      "t": 45726.56249999992,
      "d": 70.3125,
      "v": 87
    },
    {
      "midi": 66,
      "hit": false,
      "t": 45729.16666666664,
      "d": 130.20833333333576,
      "v": 90
    },
    {
      "midi": 54,
      "hit": false,
      "t": 45851.56249999992,
      "d": 7.8125,
      "v": 38
    },
    {
      "midi": 73,
      "hit": false,
      "t": 45851.56249999998,
      "d": 7.8125,
      "v": 90
    },
    {
      "midi": 62,
      "hit": false,
      "t": 45861.97916666664,
      "d": 39.0625,
      "v": 96
    },
    {
      "midi": 65,
      "hit": false,
      "t": 45861.97916666664,
      "d": 39.0625,
      "v": 96
    },
    {
      "midi": 70,
      "hit": false,
      "t": 45864.58333333331,
      "d": 36.45833333333576,
      "v": 96
    },
    {
      "midi": 62,
      "hit": false,
      "t": 45901.04166666664,
      "d": 41.66666666666424,
      "v": 96
    },
    {
      "midi": 65,
      "hit": false,
      "t": 45903.64583333331,
      "d": 39.0625,
      "v": 96
    },
    {
      "midi": 70,
      "hit": false,
      "t": 45903.64583333331,
      "d": 39.0625,
      "v": 96
    },
    {
      "midi": 62,
      "hit": false,
      "t": 45942.70833333331,
      "d": 1937.4999999999854,
      "v": 96
    },
    {
      "midi": 65,
      "hit": false,
      "t": 45945.31249999997,
      "d": 1934.8958333333212,
      "v": 96
    },
    {
      "midi": 70,
      "hit": false,
      "t": 45945.31249999997,
      "d": 1934.8958333333212,
      "v": 96
    },
    {
      "midi": 34,
      "hit": false,
      "t": 45979.166666666664,
      "d": 473.95833333333576,
      "v": 96
    },
    {
      "midi": 46,
      "hit": false,
      "t": 45981.770833333256,
      "d": 54.6875,
      "v": 96
    },
    {
      "midi": 58,
      "hit": false,
      "t": 45981.770833333256,
      "d": 65.10416666666424,
      "v": 127
    },
    {
      "midi": 53,
      "hit": false,
      "t": 45984.37499999998,
      "d": 406.2499999999927,
      "v": 102
    },
    {
      "midi": 62,
      "hit": false,
      "t": 45984.37499999998,
      "d": 406.2499999999927,
      "v": 99
    },
    {
      "midi": 65,
      "hit": false,
      "t": 45984.37499999998,
      "d": 406.2499999999927,
      "v": 90
    },
    {
      "midi": 70,
      "hit": false,
      "t": 45984.37499999998,
      "d": 406.2499999999927,
      "v": 101
    },
    {
      "midi": 58,
      "hit": false,
      "t": 46098.958333333256,
      "d": 20.83333333333576,
      "v": 31
    },
    {
      "midi": 58,
      "hit": false,
      "t": 46223.958333333256,
      "d": 31.25,
      "v": 57
    },
    {
      "midi": 46,
      "hit": false,
      "t": 46351.56249999992,
      "d": 49.47916666666424,
      "v": 96
    },
    {
      "midi": 58,
      "hit": false,
      "t": 46351.56249999992,
      "d": 59.89583333332848,
      "v": 127
    },
    {
      "midi": 58,
      "hit": false,
      "t": 46476.56249999991,
      "d": 39.0625,
      "v": 31
    },
    {
      "midi": 58,
      "hit": false,
      "t": 46598.95833333325,
      "d": 41.66666666666424,
      "v": 66
    },
    {
      "midi": 46,
      "hit": false,
      "t": 46726.56249999991,
      "d": 49.47916666666424,
      "v": 96
    },
    {
      "midi": 58,
      "hit": false,
      "t": 46726.56249999991,
      "d": 49.47916666666424,
      "v": 127
    },
    {
      "midi": 34,
      "hit": false,
      "t": 46726.5625,
      "d": 39.0625,
      "v": 96
    },
    {
      "midi": 58,
      "hit": false,
      "t": 46848.95833333324,
      "d": 31.25,
      "v": 65
    },
    {
      "midi": 65,
      "hit": false,
      "t": 46953.12499999997,
      "d": 414.0625,
      "v": 101
    },
    {
      "midi": 74,
      "hit": false,
      "t": 46976.56249999997,
      "d": 414.0625,
      "v": 101
    },
    {
      "midi": 34,
      "hit": false,
      "t": 46976.5625,
      "d": 539.0625,
      "v": 96
    },
    {
      "midi": 82,
      "hit": false,
      "t": 46994.791666666635,
      "d": 416.6666666666715,
      "v": 101
    },
    {
      "midi": 34,
      "hit": false,
      "t": 47601.5625,
      "d": 5.208333333335759,
      "v": 96
    },
    {
      "midi": 29,
      "hit": false,
      "t": 47726.5625,
      "d": 153.64583333333576,
      "v": 96
    },
    {
      "midi": 31,
      "hit": false,
      "t": 47979.16666666667,
      "d": 471.35416666666424,
      "v": 96
    },
    {
      "midi": 43,
      "hit": false,
      "t": 47981.77083333324,
      "d": 41.66666666666424,
      "v": 96
    },
    {
      "midi": 58,
      "hit": false,
      "t": 47984.374999999905,
      "d": 41.66666666666424,
      "v": 127
    },
    {
      "midi": 62,
      "hit": false,
      "t": 47984.37499999996,
      "d": 541.6666666666642,
      "v": 96
    },
    {
      "midi": 67,
      "hit": false,
      "t": 47984.37499999997,
      "d": 406.25,
      "v": 99
    },
    {
      "midi": 70,
      "hit": false,
      "t": 47984.37499999997,
      "d": 406.25,
      "v": 101
    },
    {
      "midi": 67,
      "hit": false,
      "t": 47986.97916666663,
      "d": 539.0625,
      "v": 96
    },
    {
      "midi": 70,
      "hit": false,
      "t": 47986.97916666663,
      "d": 539.0625,
      "v": 96
    },
    {
      "midi": 65,
      "hit": false,
      "t": 47989.58333333329,
      "d": 536.4583333333358,
      "v": 96
    },
    {
      "midi": 65,
      "hit": false,
      "t": 47989.58333333331,
      "d": 401.04166666666424,
      "v": 90
    },
    {
      "midi": 74,
      "hit": false,
      "t": 47989.58333333331,
      "d": 401.04166666666424,
      "v": 102
    },
    {
      "midi": 58,
      "hit": false,
      "t": 48098.958333333234,
      "d": 28.64583333333576,
      "v": 60
    },
    {
      "midi": 58,
      "hit": false,
      "t": 48223.958333333234,
      "d": 31.25,
      "v": 66
    },
    {
      "midi": 43,
      "hit": false,
      "t": 48348.958333333234,
      "d": 39.0625,
      "v": 96
    },
    {
      "midi": 58,
      "hit": false,
      "t": 48348.958333333234,
      "d": 49.47916666666424,
      "v": 127
    },
    {
      "midi": 58,
      "hit": false,
      "t": 48473.958333333234,
      "d": 18.22916666666424,
      "v": 63
    },
    {
      "midi": 62,
      "hit": false,
      "t": 48526.04166666663,
      "d": 1354.1666666666642,
      "v": 96
    },
    {
      "midi": 67,
      "hit": false,
      "t": 48528.64583333329,
      "d": 1351.5625,
      "v": 96
    },
    {
      "midi": 70,
      "hit": false,
      "t": 48528.64583333329,
      "d": 1351.5625,
      "v": 96
    },
    {
      "midi": 58,
      "hit": false,
      "t": 48598.958333333234,
      "d": 28.64583333333576,
      "v": 53
    },
    {
      "midi": 46,
      "hit": false,
      "t": 48726.562499999905,
      "d": 39.0625,
      "v": 96
    },
    {
      "midi": 58,
      "hit": false,
      "t": 48726.562499999905,
      "d": 46.875,
      "v": 127
    },
    {
      "midi": 34,
      "hit": false,
      "t": 48726.5625,
      "d": 36.45833333333576,
      "v": 96
    },
    {
      "midi": 58,
      "hit": false,
      "t": 48848.95833333324,
      "d": 10.416666666664241,
      "v": 30
    },
    {
      "midi": 67,
      "hit": false,
      "t": 48953.12499999997,
      "d": 414.0625,
      "v": 101
    },
    {
      "midi": 58,
      "hit": false,
      "t": 48973.95833333324,
      "d": 28.64583333333576,
      "v": 44
    },
    {
      "midi": 34,
      "hit": false,
      "t": 48973.958333333336,
      "d": 903.6458333333358,
      "v": 96
    },
    {
      "midi": 74,
      "hit": false,
      "t": 48976.56249999997,
      "d": 411.45833333333576,
      "v": 101
    },
    {
      "midi": 82,
      "hit": false,
      "t": 48994.791666666635,
      "d": 414.0625000000073,
      "v": 101
    },
    {
      "midi": 46,
      "hit": false,
      "t": 49098.95833333324,
      "d": 39.0625,
      "v": 96
    },
    {
      "midi": 58,
      "hit": false,
      "t": 49098.95833333324,
      "d": 49.47916666666424,
      "v": 127
    },
    {
      "midi": 58,
      "hit": false,
      "t": 49223.95833333324,
      "d": 28.64583333333576,
      "v": 53
    },
    {
      "midi": 58,
      "hit": false,
      "t": 49348.95833333324,
      "d": 31.25,
      "v": 44
    },
    {
      "midi": 46,
      "hit": false,
      "t": 49473.95833333324,
      "d": 49.47916666666424,
      "v": 96
    },
    {
      "midi": 58,
      "hit": false,
      "t": 49476.562499999905,
      "d": 57.29166666666424,
      "v": 127
    },
    {
      "midi": 58,
      "hit": false,
      "t": 49598.958333333234,
      "d": 39.0625,
      "v": 43
    },
    {
      "midi": 55,
      "hit": false,
      "t": 49723.958333333234,
      "d": 28.64583333333576,
      "v": 81
    },
    {
      "midi": 55,
      "hit": false,
      "t": 49848.958333333234,
      "d": 7.8125,
      "v": 35
    },
    {
      "midi": 60,
      "hit": false,
      "t": 49880.20833333329,
      "d": 31.25,
      "v": 96
    },
    {
      "midi": 65,
      "hit": false,
      "t": 49880.20833333329,
      "d": 31.25,
      "v": 96
    },
    {
      "midi": 69,
      "hit": false,
      "t": 49882.812499999956,
      "d": 28.64583333333576,
      "v": 96
    },
    {
      "midi": 60,
      "hit": false,
      "t": 49911.45833333329,
      "d": 20.833333333328483,
      "v": 96
    },
    {
      "midi": 65,
      "hit": false,
      "t": 49911.45833333329,
      "d": 20.833333333328483,
      "v": 96
    },
    {
      "midi": 69,
      "hit": false,
      "t": 49914.062499999956,
      "d": 18.22916666666424,
      "v": 96
    },
    {
      "midi": 60,
      "hit": false,
      "t": 49932.29166666662,
      "d": 1927.0833333333285,
      "v": 96
    },
    {
      "midi": 64,
      "hit": false,
      "t": 49932.29166666662,
      "d": 1927.0833333333285,
      "v": 96
    },
    {
      "midi": 69,
      "hit": false,
      "t": 49934.895833333285,
      "d": 1924.4791666666642,
      "v": 96
    },
    {
      "midi": 41,
      "hit": false,
      "t": 49979.16666666657,
      "d": 54.6875,
      "v": 96
    },
    {
      "midi": 29,
      "hit": false,
      "t": 49979.16666666667,
      "d": 471.35416666666424,
      "v": 96
    },
    {
      "midi": 57,
      "hit": false,
      "t": 49981.770833333234,
      "d": 62.5,
      "v": 127
    },
    {
      "midi": 52,
      "hit": false,
      "t": 49981.770833333314,
      "d": 406.2499999999927,
      "v": 102
    },
    {
      "midi": 60,
      "hit": false,
      "t": 49981.770833333314,
      "d": 406.2499999999927,
      "v": 99
    },
    {
      "midi": 69,
      "hit": false,
      "t": 49981.770833333314,
      "d": 408.85416666665697,
      "v": 101
    },
    {
      "midi": 76,
      "hit": false,
      "t": 49984.37499999998,
      "d": 406.2499999999927,
      "v": 90
    },
    {
      "midi": 57,
      "hit": false,
      "t": 50098.958333333234,
      "d": 18.22916666666424,
      "v": 31
    },
    {
      "midi": 57,
      "hit": false,
      "t": 50223.958333333234,
      "d": 28.64583333333576,
      "v": 57
    },
    {
      "midi": 41,
      "hit": false,
      "t": 50348.958333333234,
      "d": 49.47916666666424,
      "v": 96
    },
    {
      "midi": 57,
      "hit": false,
      "t": 50348.958333333234,
      "d": 59.89583333332848,
      "v": 127
    },
    {
      "midi": 57,
      "hit": false,
      "t": 50473.95833333323,
      "d": 39.0625,
      "v": 31
    },
    {
      "midi": 57,
      "hit": false,
      "t": 50598.95833333323,
      "d": 39.0625,
      "v": 66
    },
    {
      "midi": 29,
      "hit": false,
      "t": 50723.958333333336,
      "d": 39.0625,
      "v": 96
    },
    {
      "midi": 41,
      "hit": false,
      "t": 50726.56249999989,
      "d": 46.875,
      "v": 96
    },
    {
      "midi": 57,
      "hit": false,
      "t": 50726.56249999989,
      "d": 46.875,
      "v": 127
    },
    {
      "midi": 57,
      "hit": false,
      "t": 50848.95833333323,
      "d": 28.64583333333576,
      "v": 65
    },
    {
      "midi": 57,
      "hit": false,
      "t": 50973.95833333323,
      "d": 18.22916666666424,
      "v": 52
    },
    {
      "midi": 29,
      "hit": false,
      "t": 50973.958333333336,
      "d": 882.8125,
      "v": 96
    },
    {
      "midi": 41,
      "hit": false,
      "t": 51098.95833333323,
      "d": 49.47916666666424,
      "v": 96
    },
    {
      "midi": 57,
      "hit": false,
      "t": 51098.95833333323,
      "d": 59.89583333332848,
      "v": 127
    },
    {
      "midi": 57,
      "hit": false,
      "t": 51223.95833333322,
      "d": 18.22916666666424,
      "v": 31
    },
    {
      "midi": 57,
      "hit": false,
      "t": 51348.95833333322,
      "d": 28.64583333333576,
      "v": 62
    },
    {
      "midi": 64,
      "hit": false,
      "t": 51348.95833333331,
      "d": 414.0625,
      "v": 90
    },
    {
      "midi": 41,
      "hit": false,
      "t": 51473.95833333322,
      "d": 59.89583333332848,
      "v": 96
    },
    {
      "midi": 57,
      "hit": false,
      "t": 51476.56249999988,
      "d": 57.29166666666424,
      "v": 127
    },
    {
      "midi": 57,
      "hit": false,
      "t": 51598.95833333321,
      "d": 18.22916666666424,
      "v": 69
    },
    {
      "midi": 69,
      "hit": false,
      "t": 51601.56249999997,
      "d": 257.8125,
      "v": 90
    },
    {
      "midi": 52,
      "hit": false,
      "t": 51723.95833333321,
      "d": 39.0625,
      "v": 93
    },
    {
      "midi": 52,
      "hit": false,
      "t": 51848.95833333321,
      "d": 10.416666666664241,
      "v": 34
    },
    {
      "midi": 61,
      "hit": false,
      "t": 51859.37499999995,
      "d": 39.0625,
      "v": 96
    },
    {
      "midi": 64,
      "hit": false,
      "t": 51861.97916666661,
      "d": 39.0625,
      "v": 96
    },
    {
      "midi": 69,
      "hit": false,
      "t": 51861.97916666661,
      "d": 39.0625,
      "v": 96
    },
    {
      "midi": 60,
      "hit": false,
      "t": 51901.04166666661,
      "d": 28.64583333333576,
      "v": 96
    },
    {
      "midi": 64,
      "hit": false,
      "t": 51901.04166666661,
      "d": 31.25,
      "v": 96
    },
    {
      "midi": 69,
      "hit": false,
      "t": 51901.04166666661,
      "d": 31.25,
      "v": 96
    },
    {
      "midi": 60,
      "hit": false,
      "t": 51932.29166666661,
      "d": 916.6666666666642,
      "v": 96
    },
    {
      "midi": 64,
      "hit": false,
      "t": 51932.29166666661,
      "d": 916.6666666666642,
      "v": 96
    },
    {
      "midi": 69,
      "hit": false,
      "t": 51932.29166666661,
      "d": 916.6666666666642,
      "v": 96
    },
    {
      "midi": 45,
      "hit": false,
      "t": 51979.16666666654,
      "d": 44.27083333332848,
      "v": 96
    },
    {
      "midi": 33,
      "hit": false,
      "t": 51979.16666666667,
      "d": 471.35416666666424,
      "v": 96
    },
    {
      "midi": 57,
      "hit": false,
      "t": 51981.770833333205,
      "d": 41.66666666666424,
      "v": 127
    },
    {
      "midi": 69,
      "hit": false,
      "t": 51981.7708333333,
      "d": 406.2499999999927,
      "v": 99
    },
    {
      "midi": 72,
      "hit": false,
      "t": 51981.7708333333,
      "d": 408.85416666665697,
      "v": 101
    },
    {
      "midi": 45,
      "hit": false,
      "t": 51984.37499999996,
      "d": 406.2499999999927,
      "v": 102
    },
    {
      "midi": 64,
      "hit": false,
      "t": 51984.37499999996,
      "d": 406.2499999999927,
      "v": 90
    },
    {
      "midi": 57,
      "hit": false,
      "t": 52098.958333333205,
      "d": 28.64583333333576,
      "v": 60
    },
    {
      "midi": 57,
      "hit": false,
      "t": 52223.958333333205,
      "d": 28.64583333333576,
      "v": 66
    },
    {
      "midi": 45,
      "hit": false,
      "t": 52348.958333333205,
      "d": 39.0625,
      "v": 96
    },
    {
      "midi": 57,
      "hit": false,
      "t": 52348.958333333205,
      "d": 49.47916666666424,
      "v": 127
    },
    {
      "midi": 57,
      "hit": false,
      "t": 52473.958333333205,
      "d": 18.22916666666424,
      "v": 63
    },
    {
      "midi": 57,
      "hit": false,
      "t": 52598.958333333205,
      "d": 28.64583333333576,
      "v": 53
    },
    {
      "midi": 33,
      "hit": false,
      "t": 52723.958333333336,
      "d": 39.0625,
      "v": 96
    },
    {
      "midi": 45,
      "hit": false,
      "t": 52726.562499999876,
      "d": 36.45833333333576,
      "v": 96
    },
    {
      "midi": 57,
      "hit": false,
      "t": 52726.562499999876,
      "d": 46.875,
      "v": 127
    },
    {
      "midi": 62,
      "hit": false,
      "t": 52848.95833333328,
      "d": 39.0625,
      "v": 96
    },
    {
      "midi": 66,
      "hit": false,
      "t": 52848.95833333328,
      "d": 39.0625,
      "v": 96
    },
    {
      "midi": 57,
      "hit": false,
      "t": 52851.562499999876,
      "d": 5.208333333335759,
      "v": 30
    },
    {
      "midi": 69,
      "hit": false,
      "t": 52851.56249999994,
      "d": 39.0625,
      "v": 96
    },
    {
      "midi": 62,
      "hit": false,
      "t": 52890.62499999994,
      "d": 28.645833333328483,
      "v": 96
    },
    {
      "midi": 66,
      "hit": false,
      "t": 52890.62499999994,
      "d": 28.645833333328483,
      "v": 96
    },
    {
      "midi": 69,
      "hit": false,
      "t": 52893.229166666606,
      "d": 28.645833333328483,
      "v": 96
    },
    {
      "midi": 62,
      "hit": false,
      "t": 52921.874999999935,
      "d": 28.64583333333576,
      "v": 96
    },
    {
      "midi": 60,
      "hit": false,
      "t": 52921.874999999935,
      "d": 31.25,
      "v": 96
    },
    {
      "midi": 66,
      "hit": false,
      "t": 52921.874999999935,
      "d": 31.25,
      "v": 96
    },
    {
      "midi": 69,
      "hit": false,
      "t": 52921.874999999935,
      "d": 31.25,
      "v": 96
    },
    {
      "midi": 64,
      "hit": false,
      "t": 52953.124999999935,
      "d": 31.25,
      "v": 96
    },
    {
      "midi": 66,
      "hit": false,
      "t": 52953.124999999935,
      "d": 31.25,
      "v": 96
    },
    {
      "midi": 60,
      "hit": false,
      "t": 52955.7291666666,
      "d": 28.64583333333576,
      "v": 96
    },
    {
      "midi": 69,
      "hit": false,
      "t": 52955.7291666666,
      "d": 28.64583333333576,
      "v": 96
    },
    {
      "midi": 57,
      "hit": false,
      "t": 52973.95833333321,
      "d": 7.8125,
      "v": 44
    },
    {
      "midi": 38,
      "hit": false,
      "t": 52973.958333333336,
      "d": 7.8125,
      "v": 96
    },
    {
      "midi": 38,
      "hit": false,
      "t": 52984.375,
      "d": 893.2291666666642,
      "v": 96
    },
    {
      "midi": 60,
      "hit": false,
      "t": 52986.9791666666,
      "d": 893.2291666666642,
      "v": 96
    },
    {
      "midi": 64,
      "hit": false,
      "t": 52986.9791666666,
      "d": 893.2291666666642,
      "v": 96
    },
    {
      "midi": 66,
      "hit": false,
      "t": 52986.9791666666,
      "d": 893.2291666666642,
      "v": 96
    },
    {
      "midi": 69,
      "hit": false,
      "t": 52986.9791666666,
      "d": 893.2291666666642,
      "v": 96
    },
    {
      "midi": 50,
      "hit": false,
      "t": 53098.95833333321,
      "d": 39.0625,
      "v": 96
    },
    {
      "midi": 57,
      "hit": false,
      "t": 53098.95833333321,
      "d": 49.47916666666424,
      "v": 127
    },
    {
      "midi": 57,
      "hit": false,
      "t": 53223.95833333321,
      "d": 28.64583333333576,
      "v": 53
    },
    {
      "midi": 57,
      "hit": false,
      "t": 53348.95833333321,
      "d": 28.64583333333576,
      "v": 44
    },
    {
      "midi": 50,
      "hit": false,
      "t": 53473.95833333321,
      "d": 49.47916666666424,
      "v": 96
    },
    {
      "midi": 57,
      "hit": false,
      "t": 53473.95833333321,
      "d": 59.89583333332848,
      "v": 127
    },
    {
      "midi": 57,
      "hit": false,
      "t": 53598.958333333205,
      "d": 39.0625,
      "v": 43
    },
    {
      "midi": 54,
      "hit": false,
      "t": 53723.958333333205,
      "d": 70.3125,
      "v": 87
    },
    {
      "midi": 66,
      "hit": false,
      "t": 53726.562499999956,
      "d": 153.64583333333576,
      "v": 90
    },
    {
      "midi": 54,
      "hit": false,
      "t": 53848.958333333205,
      "d": 7.8125,
      "v": 38
    },
    {
      "midi": 64,
      "hit": false,
      "t": 53851.562499999956,
      "d": 28.64583333333576,
      "v": 90
    },
    {
      "midi": 62,
      "hit": false,
      "t": 53882.81249999993,
      "d": 5.208333333335759,
      "v": 96
    },
    {
      "midi": 65,
      "hit": false,
      "t": 53882.81249999993,
      "d": 5.208333333335759,
      "v": 96
    },
    {
      "midi": 70,
      "hit": false,
      "t": 53882.81249999993,
      "d": 7.8125,
      "v": 96
    },
    {
      "midi": 62,
      "hit": false,
      "t": 53890.62499999993,
      "d": 28.64583333333576,
      "v": 96
    },
    {
      "midi": 65,
      "hit": false,
      "t": 53890.62499999993,
      "d": 28.64583333333576,
      "v": 96
    },
    {
      "midi": 70,
      "hit": false,
      "t": 53890.62499999993,
      "d": 31.25,
      "v": 96
    },
    {
      "midi": 63,
      "hit": false,
      "t": 53921.87499999993,
      "d": 7.8125,
      "v": 96
    },
    {
      "midi": 65,
      "hit": false,
      "t": 53921.87499999993,
      "d": 7.8125,
      "v": 96
    },
    {
      "midi": 69,
      "hit": false,
      "t": 53921.87499999993,
      "d": 10.416666666664241,
      "v": 96
    },
    {
      "midi": 62,
      "hit": false,
      "t": 53932.29166666659,
      "d": 1955.7291666666642,
      "v": 96
    },
    {
      "midi": 65,
      "hit": false,
      "t": 53932.29166666659,
      "d": 1958.3333333333285,
      "v": 96
    },
    {
      "midi": 69,
      "hit": false,
      "t": 53932.29166666659,
      "d": 1958.3333333333285,
      "v": 96
    },
    {
      "midi": 46,
      "hit": false,
      "t": 53979.16666666654,
      "d": 54.6875,
      "v": 96
    },
    {
      "midi": 34,
      "hit": false,
      "t": 53979.166666666664,
      "d": 471.35416666666424,
      "v": 96
    },
    {
      "midi": 57,
      "hit": false,
      "t": 53981.770833333205,
      "d": 62.5,
      "v": 127
    },
    {
      "midi": 53,
      "hit": false,
      "t": 53981.770833333285,
      "d": 406.25,
      "v": 102
    },
    {
      "midi": 62,
      "hit": false,
      "t": 53981.770833333285,
      "d": 406.25,
      "v": 99
    },
    {
      "midi": 65,
      "hit": false,
      "t": 53984.37499999995,
      "d": 403.64583333333576,
      "v": 90
    },
    {
      "midi": 69,
      "hit": false,
      "t": 53984.37499999995,
      "d": 403.64583333333576,
      "v": 101
    },
    {
      "midi": 57,
      "hit": false,
      "t": 54096.35416666654,
      "d": 20.83333333333576,
      "v": 31
    },
    {
      "midi": 57,
      "hit": false,
      "t": 54223.95833333321,
      "d": 28.64583333333576,
      "v": 57
    },
    {
      "midi": 46,
      "hit": false,
      "t": 54348.95833333321,
      "d": 49.47916666666424,
      "v": 96
    },
    {
      "midi": 57,
      "hit": false,
      "t": 54348.95833333321,
      "d": 59.89583333332848,
      "v": 127
    },
    {
      "midi": 57,
      "hit": false,
      "t": 54473.958333333205,
      "d": 39.0625,
      "v": 31
    },
    {
      "midi": 57,
      "hit": false,
      "t": 54598.958333333205,
      "d": 39.0625,
      "v": 66
    },
    {
      "midi": 34,
      "hit": false,
      "t": 54723.95833333333,
      "d": 39.0625,
      "v": 96
    },
    {
      "midi": 46,
      "hit": false,
      "t": 54726.56249999987,
      "d": 46.875,
      "v": 96
    },
    {
      "midi": 57,
      "hit": false,
      "t": 54726.56249999987,
      "d": 46.875,
      "v": 127
    },
    {
      "midi": 57,
      "hit": false,
      "t": 54846.35416666653,
      "d": 31.25,
      "v": 65
    },
    {
      "midi": 57,
      "hit": false,
      "t": 54973.9583333332,
      "d": 18.22916666666424,
      "v": 52
    },
    {
      "midi": 34,
      "hit": false,
      "t": 54973.95833333333,
      "d": 539.0625,
      "v": 96
    },
    {
      "midi": 46,
      "hit": false,
      "t": 55098.9583333332,
      "d": 49.47916666666424,
      "v": 96
    },
    {
      "midi": 57,
      "hit": false,
      "t": 55098.9583333332,
      "d": 59.89583333332848,
      "v": 127
    },
    {
      "midi": 57,
      "hit": false,
      "t": 55223.95833333319,
      "d": 18.22916666666424,
      "v": 31
    },
    {
      "midi": 57,
      "hit": false,
      "t": 55348.95833333319,
      "d": 28.64583333333576,
      "v": 62
    },
    {
      "midi": 46,
      "hit": false,
      "t": 55473.95833333319,
      "d": 59.89583333332848,
      "v": 96
    },
    {
      "midi": 57,
      "hit": false,
      "t": 55476.562499999854,
      "d": 57.29166666666424,
      "v": 127
    },
    {
      "midi": 53,
      "hit": false,
      "t": 55598.95833333318,
      "d": 80.72916666666424,
      "v": 92
    },
    {
      "midi": 34,
      "hit": false,
      "t": 55598.95833333333,
      "d": 7.8125,
      "v": 96
    },
    {
      "midi": 53,
      "hit": false,
      "t": 55723.95833333318,
      "d": 49.47916666666424,
      "v": 36
    },
    {
      "midi": 29,
      "hit": false,
      "t": 55723.95833333333,
      "d": 164.0625,
      "v": 96
    },
    {
      "midi": 46,
      "hit": false,
      "t": 55848.95833333318,
      "d": 39.0625,
      "v": 36
    },
    {
      "midi": 33,
      "hit": false,
      "t": 55976.56249999999,
      "d": 473.95833333333576,
      "v": 96
    },
    {
      "midi": 45,
      "hit": false,
      "t": 55979.16666666652,
      "d": 44.27083333332848,
      "v": 96
    },
    {
      "midi": 57,
      "hit": false,
      "t": 55981.77083333318,
      "d": 41.66666666666424,
      "v": 127
    },
    {
      "midi": 61,
      "hit": false,
      "t": 55981.770833333256,
      "d": 1947.9166666666642,
      "v": 96
    },
    {
      "midi": 64,
      "hit": false,
      "t": 55981.770833333285,
      "d": 406.25,
      "v": 99
    },
    {
      "midi": 69,
      "hit": false,
      "t": 55981.770833333285,
      "d": 406.25,
      "v": 101
    },
    {
      "midi": 64,
      "hit": false,
      "t": 55984.37499999992,
      "d": 1945.3125,
      "v": 96
    },
    {
      "midi": 69,
      "hit": false,
      "t": 55984.37499999992,
      "d": 1945.3125,
      "v": 96
    },
    {
      "midi": 67,
      "hit": false,
      "t": 55986.979166666584,
      "d": 1942.7083333333358,
      "v": 96
    },
    {
      "midi": 67,
      "hit": false,
      "t": 55986.97916666662,
      "d": 401.04166666666424,
      "v": 90
    },
    {
      "midi": 73,
      "hit": false,
      "t": 55986.97916666662,
      "d": 403.6458333333285,
      "v": 102
    },
    {
      "midi": 57,
      "hit": false,
      "t": 56096.35416666651,
      "d": 31.25,
      "v": 60
    },
    {
      "midi": 57,
      "hit": false,
      "t": 56221.35416666651,
      "d": 31.25,
      "v": 66
    },
    {
      "midi": 45,
      "hit": false,
      "t": 56348.958333333176,
      "d": 39.0625,
      "v": 96
    },
    {
      "midi": 57,
      "hit": false,
      "t": 56348.958333333176,
      "d": 49.47916666666424,
      "v": 127
    },
    {
      "midi": 57,
      "hit": false,
      "t": 56473.958333333176,
      "d": 18.22916666666424,
      "v": 63
    },
    {
      "midi": 57,
      "hit": false,
      "t": 56598.958333333176,
      "d": 28.64583333333576,
      "v": 53
    },
    {
      "midi": 45,
      "hit": false,
      "t": 56723.958333333176,
      "d": 39.0625,
      "v": 96
    },
    {
      "midi": 33,
      "hit": false,
      "t": 56723.95833333333,
      "d": 39.0625,
      "v": 96
    },
    {
      "midi": 57,
      "hit": false,
      "t": 56726.56249999984,
      "d": 46.875,
      "v": 127
    },
    {
      "midi": 57,
      "hit": false,
      "t": 56846.354166666504,
      "d": 10.416666666664241,
      "v": 30
    },
    {
      "midi": 64,
      "hit": false,
      "t": 56950.520833333285,
      "d": 416.66666666666424,
      "v": 101
    },
    {
      "midi": 61,
      "hit": false,
      "t": 56953.12499999995,
      "d": 414.0625,
      "v": 101
    },
    {
      "midi": 57,
      "hit": false,
      "t": 56973.95833333317,
      "d": 28.64583333333576,
      "v": 44
    },
    {
      "midi": 33,
      "hit": false,
      "t": 56973.95833333333,
      "d": 914.0625,
      "v": 96
    },
    {
      "midi": 79,
      "hit": false,
      "t": 56976.56249999995,
      "d": 411.45833333333576,
      "v": 101
    },
    {
      "midi": 81,
      "hit": false,
      "t": 56992.18749999995,
      "d": 416.6666666666715,
      "v": 101
    },
    {
      "midi": 45,
      "hit": false,
      "t": 57096.354166666504,
      "d": 41.66666666666424,
      "v": 96
    },
    {
      "midi": 57,
      "hit": false,
      "t": 57098.95833333317,
      "d": 49.47916666666424,
      "v": 127
    },
    {
      "midi": 57,
      "hit": false,
      "t": 57223.95833333317,
      "d": 28.64583333333576,
      "v": 53
    },
    {
      "midi": 57,
      "hit": false,
      "t": 57348.95833333317,
      "d": 28.64583333333576,
      "v": 44
    },
    {
      "midi": 45,
      "hit": false,
      "t": 57473.95833333317,
      "d": 49.47916666666424,
      "v": 96
    },
    {
      "midi": 57,
      "hit": false,
      "t": 57473.95833333317,
      "d": 59.89583333332848,
      "v": 127
    },
    {
      "midi": 57,
      "hit": false,
      "t": 57598.95833333316,
      "d": 39.0625,
      "v": 43
    },
    {
      "midi": 52,
      "hit": false,
      "t": 57723.95833333316,
      "d": 28.64583333333576,
      "v": 81
    },
    {
      "midi": 52,
      "hit": false,
      "t": 57848.95833333316,
      "d": 7.8125,
      "v": 35
    },
    {
      "midi": 60,
      "hit": false,
      "t": 57932.291666666584,
      "d": 28.64583333333576,
      "v": 96
    },
    {
      "midi": 65,
      "hit": false,
      "t": 57932.291666666584,
      "d": 28.64583333333576,
      "v": 96
    },
    {
      "midi": 69,
      "hit": false,
      "t": 57932.291666666584,
      "d": 28.64583333333576,
      "v": 96
    },
    {
      "midi": 60,
      "hit": false,
      "t": 57963.541666666584,
      "d": 1924.4791666666642,
      "v": 96
    },
    {
      "midi": 65,
      "hit": false,
      "t": 57963.541666666584,
      "d": 1927.0833333333285,
      "v": 96
    },
    {
      "midi": 69,
      "hit": false,
      "t": 57963.541666666584,
      "d": 1927.0833333333285,
      "v": 96
    },
    {
      "midi": 29,
      "hit": false,
      "t": 57976.56249999999,
      "d": 473.95833333333576,
      "v": 96
    },
    {
      "midi": 41,
      "hit": false,
      "t": 57979.1666666665,
      "d": 54.6875,
      "v": 96
    },
    {
      "midi": 57,
      "hit": false,
      "t": 57979.1666666665,
      "d": 65.10416666666424,
      "v": 127
    },
    {
      "midi": 53,
      "hit": false,
      "t": 57979.16666666662,
      "d": 408.85416666665697,
      "v": 102
    },
    {
      "midi": 60,
      "hit": false,
      "t": 57979.16666666662,
      "d": 408.85416666665697,
      "v": 99
    },
    {
      "midi": 69,
      "hit": false,
      "t": 57981.770833333285,
      "d": 406.2499999999927,
      "v": 101
    },
    {
      "midi": 77,
      "hit": false,
      "t": 57981.770833333285,
      "d": 406.2499999999927,
      "v": 90
    },
    {
      "midi": 57,
      "hit": false,
      "t": 58096.3541666665,
      "d": 20.83333333333576,
      "v": 31
    },
    {
      "midi": 57,
      "hit": false,
      "t": 58221.3541666665,
      "d": 31.25,
      "v": 57
    },
    {
      "midi": 41,
      "hit": false,
      "t": 58348.95833333316,
      "d": 49.47916666666424,
      "v": 96
    },
    {
      "midi": 57,
      "hit": false,
      "t": 58348.95833333316,
      "d": 59.89583333332848,
      "v": 127
    },
    {
      "midi": 57,
      "hit": false,
      "t": 58473.958333333154,
      "d": 39.0625,
      "v": 31
    },
    {
      "midi": 57,
      "hit": false,
      "t": 58596.35416666649,
      "d": 41.66666666666424,
      "v": 66
    },
    {
      "midi": 41,
      "hit": false,
      "t": 58723.958333333154,
      "d": 49.47916666666424,
      "v": 96
    },
    {
      "midi": 57,
      "hit": false,
      "t": 58723.958333333154,
      "d": 49.47916666666424,
      "v": 127
    },
    {
      "midi": 29,
      "hit": false,
      "t": 58723.95833333333,
      "d": 39.0625,
      "v": 96
    },
    {
      "midi": 57,
      "hit": false,
      "t": 58846.35416666648,
      "d": 31.25,
      "v": 65
    },
    {
      "midi": 57,
      "hit": false,
      "t": 58973.95833333315,
      "d": 18.22916666666424,
      "v": 52
    },
    {
      "midi": 29,
      "hit": false,
      "t": 58973.95833333333,
      "d": 914.0625,
      "v": 96
    },
    {
      "midi": 41,
      "hit": false,
      "t": 59096.354166666475,
      "d": 52.08333333332848,
      "v": 96
    },
    {
      "midi": 57,
      "hit": false,
      "t": 59098.95833333314,
      "d": 59.89583333332848,
      "v": 127
    },
    {
      "midi": 57,
      "hit": false,
      "t": 59221.35416666647,
      "d": 20.83333333333576,
      "v": 31
    },
    {
      "midi": 57,
      "hit": false,
      "t": 59348.95833333314,
      "d": 28.64583333333576,
      "v": 62
    },
    {
      "midi": 65,
      "hit": false,
      "t": 59348.95833333328,
      "d": 414.0625,
      "v": 90
    },
    {
      "midi": 41,
      "hit": false,
      "t": 59473.95833333314,
      "d": 59.89583333333576,
      "v": 96
    },
    {
      "midi": 57,
      "hit": false,
      "t": 59473.95833333314,
      "d": 59.89583333333576,
      "v": 127
    },
    {
      "midi": 57,
      "hit": false,
      "t": 59598.95833333314,
      "d": 18.22916666666424,
      "v": 69
    },
    {
      "midi": 69,
      "hit": false,
      "t": 59598.95833333328,
      "d": 289.0625,
      "v": 90
    },
    {
      "midi": 53,
      "hit": false,
      "t": 59723.95833333314,
      "d": 39.0625,
      "v": 93
    },
    {
      "midi": 53,
      "hit": false,
      "t": 59846.354166666475,
      "d": 10.416666666664241,
      "v": 34
    },
    {
      "midi": 63,
      "hit": false,
      "t": 59890.62499999991,
      "d": 7.8125,
      "v": 96
    },
    {
      "midi": 66,
      "hit": false,
      "t": 59890.62499999991,
      "d": 7.8125,
      "v": 96
    },
    {
      "midi": 71,
      "hit": false,
      "t": 59890.62499999991,
      "d": 7.8125,
      "v": 96
    },
    {
      "midi": 35,
      "hit": false,
      "t": 59898.43749999999,
      "d": 10.416666666664241,
      "v": 96
    },
    {
      "midi": 62,
      "hit": false,
      "t": 59901.04166666658,
      "d": 18.22916666666424,
      "v": 96
    },
    {
      "midi": 66,
      "hit": false,
      "t": 59901.04166666658,
      "d": 18.22916666666424,
      "v": 96
    },
    {
      "midi": 71,
      "hit": false,
      "t": 59901.04166666658,
      "d": 18.22916666666424,
      "v": 96
    },
    {
      "midi": 62,
      "hit": false,
      "t": 59919.27083333324,
      "d": 1968.75,
      "v": 96
    },
    {
      "midi": 66,
      "hit": false,
      "t": 59921.874999999905,
      "d": 1966.1458333333358,
      "v": 96
    },
    {
      "midi": 71,
      "hit": false,
      "t": 59921.874999999905,
      "d": 1966.1458333333358,
      "v": 96
    },
    {
      "midi": 69,
      "hit": false,
      "t": 59921.874999999905,
      "d": 1968.75,
      "v": 96
    },
    {
      "midi": 35,
      "hit": false,
      "t": 59976.56249999999,
      "d": 473.95833333333576,
      "v": 96
    },
    {
      "midi": 47,
      "hit": false,
      "t": 59979.166666666475,
      "d": 44.27083333333576,
      "v": 96
    },
    {
      "midi": 59,
      "hit": false,
      "t": 59979.166666666475,
      "d": 44.27083333333576,
      "v": 127
    },
    {
      "midi": 71,
      "hit": false,
      "t": 59979.166666666606,
      "d": 408.85416666665697,
      "v": 99
    },
    {
      "midi": 69,
      "hit": false,
      "t": 59981.77083333327,
      "d": 406.2499999999927,
      "v": 102
    },
    {
      "midi": 74,
      "hit": false,
      "t": 59981.77083333327,
      "d": 406.2499999999927,
      "v": 101
    },
    {
      "midi": 62,
      "hit": false,
      "t": 59984.374999999935,
      "d": 403.6458333333285,
      "v": 102
    },
    {
      "midi": 66,
      "hit": false,
      "t": 59984.374999999935,
      "d": 403.6458333333285,
      "v": 90
    },
    {
      "midi": 59,
      "hit": false,
      "t": 60096.354166666475,
      "d": 31.25,
      "v": 60
    },
    {
      "midi": 59,
      "hit": false,
      "t": 60221.354166666475,
      "d": 31.25,
      "v": 66
    },
    {
      "midi": 47,
      "hit": false,
      "t": 60348.95833333314,
      "d": 39.0625,
      "v": 96
    },
    {
      "midi": 59,
      "hit": false,
      "t": 60348.95833333314,
      "d": 49.47916666666424,
      "v": 127
    },
    {
      "midi": 59,
      "hit": false,
      "t": 60473.95833333314,
      "d": 18.22916666666424,
      "v": 63
    },
    {
      "midi": 59,
      "hit": false,
      "t": 60596.35416666647,
      "d": 31.25,
      "v": 53
    },
    {
      "midi": 47,
      "hit": false,
      "t": 60723.95833333313,
      "d": 39.0625,
      "v": 96
    },
    {
      "midi": 59,
      "hit": false,
      "t": 60723.95833333313,
      "d": 49.47916666666424,
      "v": 127
    },
    {
      "midi": 33,
      "hit": false,
      "t": 60726.56249999999,
      "d": 36.45833333333576,
      "v": 96
    },
    {
      "midi": 59,
      "hit": false,
      "t": 60846.35416666646,
      "d": 10.416666666664241,
      "v": 30
    },
    {
      "midi": 35,
      "hit": false,
      "t": 60971.354166666664,
      "d": 916.6666666666642,
      "v": 96
    },
    {
      "midi": 59,
      "hit": false,
      "t": 60973.958333333125,
      "d": 28.64583333333576,
      "v": 44
    },
    {
      "midi": 47,
      "hit": false,
      "t": 61096.35416666646,
      "d": 41.66666666666424,
      "v": 96
    },
    {
      "midi": 59,
      "hit": false,
      "t": 61098.958333333125,
      "d": 46.875,
      "v": 127
    },
    {
      "midi": 59,
      "hit": false,
      "t": 61221.35416666646,
      "d": 31.25,
      "v": 53
    },
    {
      "midi": 59,
      "hit": false,
      "t": 61346.35416666646,
      "d": 31.25,
      "v": 44
    },
    {
      "midi": 47,
      "hit": false,
      "t": 61471.35416666646,
      "d": 52.08333333332848,
      "v": 96
    },
    {
      "midi": 59,
      "hit": false,
      "t": 61473.958333333125,
      "d": 57.29166666666424,
      "v": 127
    },
    {
      "midi": 59,
      "hit": false,
      "t": 61596.35416666645,
      "d": 41.66666666666424,
      "v": 43
    },
    {
      "midi": 54,
      "hit": false,
      "t": 61723.95833333312,
      "d": 67.70833333333576,
      "v": 87
    },
    {
      "midi": 66,
      "hit": false,
      "t": 61726.56249999993,
      "d": 161.45833333333576,
      "v": 90
    },
    {
      "midi": 54,
      "hit": false,
      "t": 61846.35416666645,
      "d": 10.416666666664241,
      "v": 38
    },
    {
      "midi": 73,
      "hit": false,
      "t": 61848.95833333326,
      "d": 39.0625,
      "v": 90
    },
    {
      "midi": 62,
      "hit": false,
      "t": 61890.624999999905,
      "d": 7.8125,
      "v": 96
    },
    {
      "midi": 66,
      "hit": false,
      "t": 61890.624999999905,
      "d": 7.8125,
      "v": 96
    },
    {
      "midi": 69,
      "hit": false,
      "t": 61890.624999999905,
      "d": 7.8125,
      "v": 96
    },
    {
      "midi": 38,
      "hit": false,
      "t": 61898.43749999999,
      "d": 10.416666666664241,
      "v": 96
    },
    {
      "midi": 62,
      "hit": false,
      "t": 61901.04166666657,
      "d": 18.22916666666424,
      "v": 96
    },
    {
      "midi": 65,
      "hit": false,
      "t": 61901.04166666657,
      "d": 18.22916666666424,
      "v": 96
    },
    {
      "midi": 69,
      "hit": false,
      "t": 61901.04166666657,
      "d": 18.22916666666424,
      "v": 96
    },
    {
      "midi": 62,
      "hit": false,
      "t": 61919.270833333234,
      "d": 20.833333333328483,
      "v": 96
    },
    {
      "midi": 66,
      "hit": false,
      "t": 61919.270833333234,
      "d": 20.833333333328483,
      "v": 96
    },
    {
      "midi": 70,
      "hit": false,
      "t": 61921.8749999999,
      "d": 18.22916666666424,
      "v": 96
    },
    {
      "midi": 62,
      "hit": false,
      "t": 61940.10416666656,
      "d": 1927.0833333333285,
      "v": 96
    },
    {
      "midi": 65,
      "hit": false,
      "t": 61940.10416666656,
      "d": 1927.0833333333285,
      "v": 96
    },
    {
      "midi": 70,
      "hit": false,
      "t": 61942.70833333323,
      "d": 1924.4791666666642,
      "v": 96
    },
    {
      "midi": 34,
      "hit": false,
      "t": 61976.56249999999,
      "d": 471.35416666666424,
      "v": 96
    },
    {
      "midi": 46,
      "hit": false,
      "t": 61979.16666666645,
      "d": 54.6875,
      "v": 96
    },
    {
      "midi": 58,
      "hit": false,
      "t": 61979.16666666645,
      "d": 62.5,
      "v": 127
    },
    {
      "midi": 53,
      "hit": false,
      "t": 61979.1666666666,
      "d": 408.85416666665697,
      "v": 102
    },
    {
      "midi": 62,
      "hit": false,
      "t": 61981.77083333326,
      "d": 406.2499999999927,
      "v": 99
    },
    {
      "midi": 65,
      "hit": false,
      "t": 61981.77083333326,
      "d": 406.2499999999927,
      "v": 90
    },
    {
      "midi": 70,
      "hit": false,
      "t": 61981.77083333326,
      "d": 406.2499999999927,
      "v": 101
    },
    {
      "midi": 58,
      "hit": false,
      "t": 62096.35416666645,
      "d": 18.22916666666424,
      "v": 31
    },
    {
      "midi": 58,
      "hit": false,
      "t": 62221.35416666645,
      "d": 31.25,
      "v": 57
    },
    {
      "midi": 46,
      "hit": false,
      "t": 62346.35416666645,
      "d": 49.47916666666424,
      "v": 96
    },
    {
      "midi": 58,
      "hit": false,
      "t": 62348.95833333312,
      "d": 57.29166666666424,
      "v": 127
    },
    {
      "midi": 58,
      "hit": false,
      "t": 62473.95833333312,
      "d": 36.45833333333576,
      "v": 31
    },
    {
      "midi": 58,
      "hit": false,
      "t": 62596.35416666645,
      "d": 39.0625,
      "v": 66
    },
    {
      "midi": 46,
      "hit": false,
      "t": 62723.95833333312,
      "d": 46.875,
      "v": 96
    },
    {
      "midi": 58,
      "hit": false,
      "t": 62723.95833333312,
      "d": 46.875,
      "v": 127
    },
    {
      "midi": 34,
      "hit": false,
      "t": 62723.95833333332,
      "d": 36.45833333333576,
      "v": 96
    },
    {
      "midi": 58,
      "hit": false,
      "t": 62846.35416666645,
      "d": 28.64583333333576,
      "v": 65
    },
    {
      "midi": 34,
      "hit": false,
      "t": 62971.35416666666,
      "d": 539.0625,
      "v": 96
    },
    {
      "midi": 58,
      "hit": false,
      "t": 62973.958333333125,
      "d": 15.625,
      "v": 52
    },
    {
      "midi": 46,
      "hit": false,
      "t": 63096.35416666646,
      "d": 41.66666666666424,
      "v": 96
    },
    {
      "midi": 58,
      "hit": false,
      "t": 63096.35416666646,
      "d": 49.47916666666424,
      "v": 127
    },
    {
      "midi": 58,
      "hit": false,
      "t": 63221.35416666646,
      "d": 28.64583333333576,
      "v": 53
    },
    {
      "midi": 58,
      "hit": false,
      "t": 63223.958333333256,
      "d": 414.0625,
      "v": 90
    },
    {
      "midi": 58,
      "hit": false,
      "t": 63346.35416666646,
      "d": 28.64583333333576,
      "v": 44
    },
    {
      "midi": 62,
      "hit": false,
      "t": 63348.958333333256,
      "d": 414.0625,
      "v": 90
    },
    {
      "midi": 46,
      "hit": false,
      "t": 63471.35416666646,
      "d": 49.47916666666424,
      "v": 96
    },
    {
      "midi": 58,
      "hit": false,
      "t": 63473.958333333125,
      "d": 57.29166666666424,
      "v": 127
    },
    {
      "midi": 58,
      "hit": false,
      "t": 63596.35416666645,
      "d": 39.0625,
      "v": 43
    },
    {
      "midi": 70,
      "hit": false,
      "t": 63598.958333333256,
      "d": 164.0625,
      "v": 90
    },
    {
      "midi": 38,
      "hit": false,
      "t": 63721.35416666666,
      "d": 39.0625,
      "v": 96
    },
    {
      "midi": 48,
      "hit": false,
      "t": 63723.95833333312,
      "d": 67.70833333333576,
      "v": 78
    },
    {
      "midi": 46,
      "hit": false,
      "t": 63846.35416666645,
      "d": 20.83333333333576,
      "v": 64
    },
    {
      "midi": 29,
      "hit": false,
      "t": 63846.35416666666,
      "d": 20.83333333333576,
      "v": 96
    },
    {
      "midi": 36,
      "hit": false,
      "t": 63976.56249999999,
      "d": 471.35416666666424,
      "v": 96
    },
    {
      "midi": 48,
      "hit": false,
      "t": 63979.16666666645,
      "d": 41.66666666666424,
      "v": 96
    },
    {
      "midi": 55,
      "hit": false,
      "t": 63979.16666666645,
      "d": 41.66666666666424,
      "v": 127
    },
    {
      "midi": 62,
      "hit": false,
      "t": 63981.77083333323,
      "d": 874.9999999999927,
      "v": 96
    },
    {
      "midi": 64,
      "hit": false,
      "t": 63981.770833333256,
      "d": 403.64583333333576,
      "v": 99
    },
    {
      "midi": 67,
      "hit": false,
      "t": 63981.770833333256,
      "d": 406.25,
      "v": 101
    },
    {
      "midi": 64,
      "hit": false,
      "t": 63984.37499999989,
      "d": 872.3958333333285,
      "v": 96
    },
    {
      "midi": 67,
      "hit": false,
      "t": 63984.37499999989,
      "d": 872.3958333333285,
      "v": 96
    },
    {
      "midi": 58,
      "hit": false,
      "t": 63986.979166666555,
      "d": 869.7916666666642,
      "v": 96
    },
    {
      "midi": 58,
      "hit": false,
      "t": 63986.97916666659,
      "d": 401.04166666666424,
      "v": 90
    },
    {
      "midi": 74,
      "hit": false,
      "t": 63986.97916666659,
      "d": 401.04166666666424,
      "v": 102
    },
    {
      "midi": 55,
      "hit": false,
      "t": 64096.35416666645,
      "d": 28.64583333333576,
      "v": 60
    },
    {
      "midi": 55,
      "hit": false,
      "t": 64221.35416666645,
      "d": 28.64583333333576,
      "v": 66
    },
    {
      "midi": 48,
      "hit": false,
      "t": 64346.35416666645,
      "d": 39.0625,
      "v": 96
    },
    {
      "midi": 55,
      "hit": false,
      "t": 64346.35416666645,
      "d": 49.47916666666424,
      "v": 127
    },
    {
      "midi": 55,
      "hit": false,
      "t": 64471.35416666645,
      "d": 18.22916666666424,
      "v": 63
    },
    {
      "midi": 55,
      "hit": false,
      "t": 64596.35416666645,
      "d": 28.64583333333576,
      "v": 53
    },
    {
      "midi": 36,
      "hit": false,
      "t": 64721.35416666666,
      "d": 39.0625,
      "v": 96
    },
    {
      "midi": 48,
      "hit": false,
      "t": 64723.958333333125,
      "d": 36.45833333333576,
      "v": 96
    },
    {
      "midi": 55,
      "hit": false,
      "t": 64723.958333333125,
      "d": 46.875,
      "v": 127
    },
    {
      "midi": 55,
      "hit": false,
      "t": 64846.35416666646,
      "d": 10.416666666664241,
      "v": 30
    },
    {
      "midi": 62,
      "hit": false,
      "t": 64856.77083333322,
      "d": 20.833333333328483,
      "v": 96
    },
    {
      "midi": 65,
      "hit": false,
      "t": 64859.37499999988,
      "d": 18.22916666666424,
      "v": 96
    },
    {
      "midi": 70,
      "hit": false,
      "t": 64859.37499999988,
      "d": 18.22916666666424,
      "v": 96
    },
    {
      "midi": 62,
      "hit": false,
      "t": 64880.20833333321,
      "d": 15.625,
      "v": 96
    },
    {
      "midi": 65,
      "hit": false,
      "t": 64880.20833333321,
      "d": 18.22916666666424,
      "v": 96
    },
    {
      "midi": 70,
      "hit": false,
      "t": 64880.20833333321,
      "d": 18.22916666666424,
      "v": 96
    },
    {
      "midi": 60,
      "hit": false,
      "t": 64898.437499999876,
      "d": 18.22916666666424,
      "v": 96
    },
    {
      "midi": 67,
      "hit": false,
      "t": 64898.437499999876,
      "d": 20.833333333328483,
      "v": 96
    },
    {
      "midi": 70,
      "hit": false,
      "t": 64898.437499999876,
      "d": 20.833333333328483,
      "v": 96
    },
    {
      "midi": 63,
      "hit": false,
      "t": 64901.04166666654,
      "d": 18.22916666666424,
      "v": 96
    },
    {
      "midi": 62,
      "hit": false,
      "t": 64919.270833333205,
      "d": 958.3333333333358,
      "v": 96
    },
    {
      "midi": 65,
      "hit": false,
      "t": 64919.270833333205,
      "d": 958.3333333333358,
      "v": 96
    },
    {
      "midi": 69,
      "hit": false,
      "t": 64921.87499999987,
      "d": 955.7291666666715,
      "v": 96
    },
    {
      "midi": 65,
      "hit": false,
      "t": 64950.520833333256,
      "d": 414.0625,
      "v": 101
    },
    {
      "midi": 57,
      "hit": false,
      "t": 64971.35416666646,
      "d": 28.64583333333576,
      "v": 44
    },
    {
      "midi": 34,
      "hit": false,
      "t": 64971.35416666666,
      "d": 903.6458333333285,
      "v": 96
    },
    {
      "midi": 74,
      "hit": false,
      "t": 64973.958333333256,
      "d": 411.45833333333576,
      "v": 101
    },
    {
      "midi": 81,
      "hit": false,
      "t": 64992.18749999992,
      "d": 414.0625000000073,
      "v": 101
    },
    {
      "midi": 46,
      "hit": false,
      "t": 65096.35416666646,
      "d": 39.0625,
      "v": 96
    },
    {
      "midi": 57,
      "hit": false,
      "t": 65096.35416666646,
      "d": 49.47916666666424,
      "v": 127
    },
    {
      "midi": 57,
      "hit": false,
      "t": 65221.35416666646,
      "d": 28.64583333333576,
      "v": 53
    },
    {
      "midi": 57,
      "hit": false,
      "t": 65346.35416666646,
      "d": 28.64583333333576,
      "v": 44
    },
    {
      "midi": 46,
      "hit": false,
      "t": 65471.35416666646,
      "d": 49.47916666666424,
      "v": 96
    },
    {
      "midi": 57,
      "hit": false,
      "t": 65473.958333333125,
      "d": 57.29166666666424,
      "v": 127
    },
    {
      "midi": 57,
      "hit": false,
      "t": 65596.35416666645,
      "d": 39.0625,
      "v": 43
    },
    {
      "midi": 53,
      "hit": false,
      "t": 65721.35416666645,
      "d": 28.645833333328483,
      "v": 81
    },
    {
      "midi": 53,
      "hit": false,
      "t": 65846.35416666645,
      "d": 7.8125,
      "v": 35
    },
    {
      "midi": 60,
      "hit": false,
      "t": 65877.60416666654,
      "d": 28.645833333343035,
      "v": 96
    },
    {
      "midi": 64,
      "hit": false,
      "t": 65877.60416666654,
      "d": 31.250000000014552,
      "v": 96
    },
    {
      "midi": 67,
      "hit": false,
      "t": 65880.20833333321,
      "d": 28.645833333343035,
      "v": 96
    },
    {
      "midi": 60,
      "hit": false,
      "t": 65908.85416666656,
      "d": 7.8125,
      "v": 96
    },
    {
      "midi": 64,
      "hit": false,
      "t": 65908.85416666656,
      "d": 7.8125,
      "v": 96
    },
    {
      "midi": 67,
      "hit": false,
      "t": 65911.45833333323,
      "d": 7.8125,
      "v": 96
    },
    {
      "midi": 60,
      "hit": false,
      "t": 65919.27083333323,
      "d": 28.645833333328483,
      "v": 96
    },
    {
      "midi": 58,
      "hit": false,
      "t": 65919.27083333323,
      "d": 31.25,
      "v": 96
    },
    {
      "midi": 64,
      "hit": false,
      "t": 65919.27083333323,
      "d": 31.25,
      "v": 96
    },
    {
      "midi": 67,
      "hit": false,
      "t": 65919.27083333323,
      "d": 31.25,
      "v": 96
    },
    {
      "midi": 62,
      "hit": false,
      "t": 65950.52083333323,
      "d": 7.8125,
      "v": 96
    },
    {
      "midi": 64,
      "hit": false,
      "t": 65950.52083333323,
      "d": 10.416666666671517,
      "v": 96
    },
    {
      "midi": 67,
      "hit": false,
      "t": 65950.52083333323,
      "d": 10.416666666671517,
      "v": 96
    },
    {
      "midi": 58,
      "hit": false,
      "t": 65953.1249999999,
      "d": 7.8125,
      "v": 96
    },
    {
      "midi": 62,
      "hit": false,
      "t": 65960.9374999999,
      "d": 914.0625,
      "v": 96
    },
    {
      "midi": 64,
      "hit": false,
      "t": 65960.9374999999,
      "d": 916.6666666666715,
      "v": 96
    },
    {
      "midi": 58,
      "hit": false,
      "t": 65963.54166666657,
      "d": 914.0625,
      "v": 96
    },
    {
      "midi": 67,
      "hit": false,
      "t": 65963.54166666657,
      "d": 914.0625,
      "v": 96
    },
    {
      "midi": 48,
      "hit": false,
      "t": 65976.56249999978,
      "d": 54.6875,
      "v": 96
    },
    {
      "midi": 55,
      "hit": false,
      "t": 65976.56249999978,
      "d": 65.10416666667152,
      "v": 127
    },
    {
      "midi": 36,
      "hit": false,
      "t": 65976.56249999999,
      "d": 471.3541666666715,
      "v": 96
    },
    {
      "midi": 76,
      "hit": false,
      "t": 65979.1666666666,
      "d": 406.25,
      "v": 90
    },
    {
      "midi": 58,
      "hit": false,
      "t": 65981.77083333327,
      "d": 403.6458333333285,
      "v": 102
    },
    {
      "midi": 67,
      "hit": false,
      "t": 65981.77083333327,
      "d": 406.25,
      "v": 99
    },
    {
      "midi": 74,
      "hit": false,
      "t": 65981.77083333327,
      "d": 406.25,
      "v": 101
    },
    {
      "midi": 55,
      "hit": false,
      "t": 66096.35416666645,
      "d": 18.229166666671517,
      "v": 31
    },
    {
      "midi": 55,
      "hit": false,
      "t": 66221.35416666645,
      "d": 28.645833333328483,
      "v": 57
    },
    {
      "midi": 48,
      "hit": false,
      "t": 66346.35416666645,
      "d": 49.47916666667152,
      "v": 96
    },
    {
      "midi": 55,
      "hit": false,
      "t": 66346.35416666645,
      "d": 59.895833333343035,
      "v": 127
    },
    {
      "midi": 55,
      "hit": false,
      "t": 66471.35416666647,
      "d": 39.0625,
      "v": 31
    },
    {
      "midi": 55,
      "hit": false,
      "t": 66596.35416666647,
      "d": 39.0625,
      "v": 66
    },
    {
      "midi": 48,
      "hit": false,
      "t": 66721.35416666647,
      "d": 49.47916666667152,
      "v": 96
    },
    {
      "midi": 36,
      "hit": false,
      "t": 66721.35416666666,
      "d": 39.0625,
      "v": 96
    },
    {
      "midi": 55,
      "hit": false,
      "t": 66723.95833333314,
      "d": 46.875,
      "v": 127
    },
    {
      "midi": 55,
      "hit": false,
      "t": 66846.35416666647,
      "d": 28.645833333328483,
      "v": 65
    },
    {
      "midi": 60,
      "hit": false,
      "t": 66877.60416666657,
      "d": 28.645833333343035,
      "v": 96
    },
    {
      "midi": 65,
      "hit": false,
      "t": 66877.60416666657,
      "d": 28.645833333343035,
      "v": 96
    },
    {
      "midi": 69,
      "hit": false,
      "t": 66880.20833333324,
      "d": 28.645833333343035,
      "v": 96
    },
    {
      "midi": 62,
      "hit": false,
      "t": 66908.85416666658,
      "d": 28.645833333328483,
      "v": 96
    },
    {
      "midi": 65,
      "hit": false,
      "t": 66908.85416666658,
      "d": 31.25,
      "v": 96
    },
    {
      "midi": 70,
      "hit": false,
      "t": 66908.85416666658,
      "d": 31.25,
      "v": 96
    },
    {
      "midi": 62,
      "hit": false,
      "t": 66940.10416666658,
      "d": 31.25,
      "v": 96
    },
    {
      "midi": 65,
      "hit": false,
      "t": 66940.10416666658,
      "d": 31.25,
      "v": 96
    },
    {
      "midi": 70,
      "hit": false,
      "t": 66940.10416666658,
      "d": 31.25,
      "v": 96
    },
    {
      "midi": 62,
      "hit": false,
      "t": 66973.95833333326,
      "d": 914.0625,
      "v": 96
    },
    {
      "midi": 65,
      "hit": false,
      "t": 66973.95833333326,
      "d": 914.0625,
      "v": 96
    },
    {
      "midi": 69,
      "hit": false,
      "t": 66973.95833333326,
      "d": 914.0625,
      "v": 96
    },
    {
      "midi": 34,
      "hit": false,
      "t": 66973.95833333333,
      "d": 911.4583333333285,
      "v": 96
    },
    {
      "midi": 57,
      "hit": false,
      "t": 66976.5624999998,
      "d": 13.020833333328483,
      "v": 52
    },
    {
      "midi": 46,
      "hit": false,
      "t": 67096.35416666645,
      "d": 49.47916666667152,
      "v": 96
    },
    {
      "midi": 57,
      "hit": false,
      "t": 67096.35416666645,
      "d": 59.895833333343035,
      "v": 127
    },
    {
      "midi": 57,
      "hit": false,
      "t": 67221.35416666647,
      "d": 18.229166666671517,
      "v": 31
    },
    {
      "midi": 57,
      "hit": false,
      "t": 67346.35416666647,
      "d": 28.645833333328483,
      "v": 62
    },
    {
      "midi": 65,
      "hit": false,
      "t": 67346.3541666666,
      "d": 414.0625,
      "v": 90
    },
    {
      "midi": 46,
      "hit": false,
      "t": 67471.35416666647,
      "d": 59.89583333332848,
      "v": 96
    },
    {
      "midi": 57,
      "hit": false,
      "t": 67471.35416666647,
      "d": 59.89583333332848,
      "v": 127
    },
    {
      "midi": 57,
      "hit": false,
      "t": 67596.35416666647,
      "d": 18.229166666671517,
      "v": 69
    },
    {
      "midi": 69,
      "hit": false,
      "t": 67596.3541666666,
      "d": 289.0625,
      "v": 90
    },
    {
      "midi": 53,
      "hit": false,
      "t": 67721.35416666647,
      "d": 39.0625,
      "v": 93
    },
    {
      "midi": 53,
      "hit": false,
      "t": 67846.35416666647,
      "d": 7.8125,
      "v": 34
    },
    {
      "midi": 60,
      "hit": false,
      "t": 67888.02083333326,
      "d": 18.229166666671517,
      "v": 96
    },
    {
      "midi": 64,
      "hit": false,
      "t": 67890.62499999993,
      "d": 15.625,
      "v": 96
    },
    {
      "midi": 58,
      "hit": false,
      "t": 67890.62499999993,
      "d": 18.229166666671517,
      "v": 96
    },
    {
      "midi": 67,
      "hit": false,
      "t": 67890.62499999993,
      "d": 18.229166666671517,
      "v": 96
    },
    {
      "midi": 62,
      "hit": false,
      "t": 67908.8541666666,
      "d": 114.58333333334303,
      "v": 96
    },
    {
      "midi": 64,
      "hit": false,
      "t": 67908.8541666666,
      "d": 114.58333333334303,
      "v": 96
    },
    {
      "midi": 58,
      "hit": false,
      "t": 67911.45833333327,
      "d": 114.58333333334303,
      "v": 96
    },
    {
      "midi": 67,
      "hit": false,
      "t": 67911.45833333327,
      "d": 114.58333333334303,
      "v": 96
    },
    {
      "midi": 48,
      "hit": false,
      "t": 67976.5624999998,
      "d": 44.270833333343035,
      "v": 96
    },
    {
      "midi": 36,
      "hit": false,
      "t": 67976.56249999999,
      "d": 44.27083333332848,
      "v": 96
    },
    {
      "midi": 55,
      "hit": false,
      "t": 67979.16666666647,
      "d": 41.66666666667152,
      "v": 127
    },
    {
      "midi": 67,
      "hit": false,
      "t": 67979.1666666666,
      "d": 41.66666666667152,
      "v": 99
    },
    {
      "midi": 74,
      "hit": false,
      "t": 67979.1666666666,
      "d": 44.270833333343035,
      "v": 101
    },
    {
      "midi": 58,
      "hit": false,
      "t": 67981.77083333327,
      "d": 41.66666666667152,
      "v": 102
    },
    {
      "midi": 62,
      "hit": false,
      "t": 67981.77083333327,
      "d": 41.66666666667152,
      "v": 102
    },
    {
      "midi": 64,
      "hit": false,
      "t": 67981.77083333327,
      "d": 41.66666666667152,
      "v": 90
    },
    {
      "midi": 62,
      "hit": false,
      "t": 68026.04166666661,
      "d": 869.7916666666715,
      "v": 96
    },
    {
      "midi": 64,
      "hit": false,
      "t": 68026.04166666661,
      "d": 869.7916666666715,
      "v": 96
    },
    {
      "midi": 34,
      "hit": false,
      "t": 68026.04166666664,
      "d": 421.875,
      "v": 96
    },
    {
      "midi": 72,
      "hit": false,
      "t": 68028.64583333328,
      "d": 869.7916666666715,
      "v": 96
    },
    {
      "midi": 60,
      "hit": false,
      "t": 68093.74999999981,
      "d": 31.25,
      "v": 60
    },
    {
      "midi": 60,
      "hit": false,
      "t": 68221.35416666648,
      "d": 28.645833333328483,
      "v": 66
    },
    {
      "midi": 46,
      "hit": false,
      "t": 68346.35416666648,
      "d": 39.0625,
      "v": 96
    },
    {
      "midi": 60,
      "hit": false,
      "t": 68346.35416666648,
      "d": 49.47916666667152,
      "v": 127
    },
    {
      "midi": 60,
      "hit": false,
      "t": 68471.35416666648,
      "d": 18.229166666671517,
      "v": 63
    },
    {
      "midi": 60,
      "hit": false,
      "t": 68596.35416666648,
      "d": 28.645833333328483,
      "v": 53
    },
    {
      "midi": 46,
      "hit": false,
      "t": 68721.35416666648,
      "d": 39.0625,
      "v": 96
    },
    {
      "midi": 34,
      "hit": false,
      "t": 68721.35416666664,
      "d": 39.0625,
      "v": 96
    },
    {
      "midi": 60,
      "hit": false,
      "t": 68723.95833333315,
      "d": 46.875,
      "v": 127
    },
    {
      "midi": 60,
      "hit": false,
      "t": 68843.74999999983,
      "d": 10.416666666671517,
      "v": 30
    },
    {
      "midi": 61,
      "hit": false,
      "t": 68898.43749999996,
      "d": 7.8125,
      "v": 96
    },
    {
      "midi": 64,
      "hit": false,
      "t": 68898.43749999996,
      "d": 7.8125,
      "v": 96
    },
    {
      "midi": 69,
      "hit": false,
      "t": 68898.43749999996,
      "d": 7.8125,
      "v": 96
    },
    {
      "midi": 61,
      "hit": false,
      "t": 68908.85416666663,
      "d": 986.9791666666715,
      "v": 96
    },
    {
      "midi": 64,
      "hit": false,
      "t": 68908.85416666663,
      "d": 986.9791666666715,
      "v": 96
    },
    {
      "midi": 69,
      "hit": false,
      "t": 68908.85416666663,
      "d": 986.9791666666715,
      "v": 96
    },
    {
      "midi": 57,
      "hit": false,
      "t": 68971.3541666665,
      "d": 28.645833333328483,
      "v": 44
    },
    {
      "midi": 33,
      "hit": false,
      "t": 68971.35416666664,
      "d": 914.0625,
      "v": 96
    },
    {
      "midi": 45,
      "hit": false,
      "t": 69096.3541666665,
      "d": 39.0625,
      "v": 96
    },
    {
      "midi": 57,
      "hit": false,
      "t": 69096.3541666665,
      "d": 49.47916666667152,
      "v": 127
    },
    {
      "midi": 57,
      "hit": false,
      "t": 69221.3541666665,
      "d": 28.645833333328483,
      "v": 53
    },
    {
      "midi": 57,
      "hit": false,
      "t": 69346.3541666665,
      "d": 28.645833333328483,
      "v": 44
    },
    {
      "midi": 45,
      "hit": false,
      "t": 69471.3541666665,
      "d": 49.47916666667152,
      "v": 96
    },
    {
      "midi": 57,
      "hit": false,
      "t": 69471.3541666665,
      "d": 59.895833333343035,
      "v": 127
    },
    {
      "midi": 57,
      "hit": false,
      "t": 69596.35416666651,
      "d": 39.0625,
      "v": 43
    },
    {
      "midi": 52,
      "hit": false,
      "t": 69721.35416666651,
      "d": 70.3125,
      "v": 87
    },
    {
      "midi": 61,
      "hit": false,
      "t": 69721.35416666661,
      "d": 164.0625,
      "v": 90
    },
    {
      "midi": 52,
      "hit": false,
      "t": 69846.35416666651,
      "d": 7.8125,
      "v": 38
    },
    {
      "midi": 57,
      "hit": false,
      "t": 69846.35416666661,
      "d": 39.0625,
      "v": 90
    },
    {
      "midi": 59,
      "hit": false,
      "t": 69898.43749999997,
      "d": 28.645833333328483,
      "v": 96
    },
    {
      "midi": 64,
      "hit": false,
      "t": 69898.43749999997,
      "d": 28.645833333328483,
      "v": 96
    },
    {
      "midi": 68,
      "hit": false,
      "t": 69898.43749999997,
      "d": 28.645833333328483,
      "v": 96
    },
    {
      "midi": 59,
      "hit": false,
      "t": 69929.68749999997,
      "d": 28.645833333328483,
      "v": 96
    },
    {
      "midi": 67,
      "hit": false,
      "t": 69929.68749999997,
      "d": 28.645833333328483,
      "v": 96
    },
    {
      "midi": 64,
      "hit": false,
      "t": 69929.68749999997,
      "d": 31.25,
      "v": 96
    },
    {
      "midi": 60,
      "hit": false,
      "t": 69960.93749999997,
      "d": 934.8958333333285,
      "v": 96
    },
    {
      "midi": 64,
      "hit": false,
      "t": 69960.93749999997,
      "d": 934.8958333333285,
      "v": 96
    },
    {
      "midi": 67,
      "hit": false,
      "t": 69960.93749999997,
      "d": 934.8958333333285,
      "v": 96
    },
    {
      "midi": 36,
      "hit": false,
      "t": 69973.95833333331,
      "d": 473.9583333333285,
      "v": 96
    },
    {
      "midi": 48,
      "hit": false,
      "t": 69976.56249999984,
      "d": 54.6875,
      "v": 96
    },
    {
      "midi": 55,
      "hit": false,
      "t": 69979.16666666651,
      "d": 62.5,
      "v": 127
    },
    {
      "midi": 52,
      "hit": false,
      "t": 69979.16666666661,
      "d": 406.25,
      "v": 102
    },
    {
      "midi": 60,
      "hit": false,
      "t": 69979.16666666661,
      "d": 406.25,
      "v": 99
    },
    {
      "midi": 64,
      "hit": false,
      "t": 69979.16666666661,
      "d": 406.25,
      "v": 90
    },
    {
      "midi": 67,
      "hit": false,
      "t": 69979.16666666661,
      "d": 406.25,
      "v": 101
    },
    {
      "midi": 55,
      "hit": false,
      "t": 70093.74999999984,
      "d": 20.833333333328483,
      "v": 31
    },
    {
      "midi": 55,
      "hit": false,
      "t": 70218.74999999984,
      "d": 31.25,
      "v": 57
    },
    {
      "midi": 48,
      "hit": false,
      "t": 70346.35416666651,
      "d": 49.47916666667152,
      "v": 96
    },
    {
      "midi": 55,
      "hit": false,
      "t": 70346.35416666651,
      "d": 59.895833333343035,
      "v": 127
    },
    {
      "midi": 55,
      "hit": false,
      "t": 70471.35416666653,
      "d": 39.0625,
      "v": 31
    },
    {
      "midi": 55,
      "hit": false,
      "t": 70596.35416666653,
      "d": 39.0625,
      "v": 66
    },
    {
      "midi": 48,
      "hit": false,
      "t": 70721.35416666653,
      "d": 49.47916666667152,
      "v": 96
    },
    {
      "midi": 36,
      "hit": false,
      "t": 70721.35416666664,
      "d": 39.0625,
      "v": 96
    },
    {
      "midi": 55,
      "hit": false,
      "t": 70723.9583333332,
      "d": 46.875,
      "v": 127
    },
    {
      "midi": 55,
      "hit": false,
      "t": 70843.74999999987,
      "d": 31.25,
      "v": 65
    },
    {
      "midi": 62,
      "hit": false,
      "t": 70898.43749999997,
      "d": 7.8125,
      "v": 96
    },
    {
      "midi": 66,
      "hit": false,
      "t": 70898.43749999997,
      "d": 7.8125,
      "v": 96
    },
    {
      "midi": 69,
      "hit": false,
      "t": 70898.43749999997,
      "d": 7.8125,
      "v": 96
    },
    {
      "midi": 62,
      "hit": false,
      "t": 70908.85416666664,
      "d": 18.229166666671517,
      "v": 96
    },
    {
      "midi": 65,
      "hit": false,
      "t": 70908.85416666664,
      "d": 18.229166666671517,
      "v": 96
    },
    {
      "midi": 69,
      "hit": false,
      "t": 70908.85416666664,
      "d": 18.229166666671517,
      "v": 96
    },
    {
      "midi": 62,
      "hit": false,
      "t": 70929.68749999999,
      "d": 955.7291666666715,
      "v": 96
    },
    {
      "midi": 65,
      "hit": false,
      "t": 70929.68749999999,
      "d": 955.7291666666715,
      "v": 96
    },
    {
      "midi": 60,
      "hit": false,
      "t": 70929.68749999999,
      "d": 958.333333333343,
      "v": 96
    },
    {
      "midi": 69,
      "hit": false,
      "t": 70929.68749999999,
      "d": 958.333333333343,
      "v": 96
    },
    {
      "midi": 57,
      "hit": false,
      "t": 70971.35416666654,
      "d": 18.229166666671517,
      "v": 52
    },
    {
      "midi": 38,
      "hit": false,
      "t": 70971.35416666664,
      "d": 539.0625,
      "v": 96
    },
    {
      "midi": 50,
      "hit": false,
      "t": 71096.35416666654,
      "d": 49.47916666667152,
      "v": 96
    },
    {
      "midi": 57,
      "hit": false,
      "t": 71096.35416666654,
      "d": 59.895833333343035,
      "v": 127
    },
    {
      "midi": 57,
      "hit": false,
      "t": 71221.35416666656,
      "d": 18.229166666671517,
      "v": 31
    },
    {
      "midi": 57,
      "hit": false,
      "t": 71346.35416666656,
      "d": 28.645833333328483,
      "v": 62
    },
    {
      "midi": 50,
      "hit": false,
      "t": 71471.35416666656,
      "d": 59.89583333332848,
      "v": 96
    },
    {
      "midi": 57,
      "hit": false,
      "t": 71471.35416666656,
      "d": 59.89583333332848,
      "v": 127
    },
    {
      "midi": 53,
      "hit": false,
      "t": 71596.35416666656,
      "d": 80.72916666667152,
      "v": 92
    },
    {
      "midi": 36,
      "hit": false,
      "t": 71598.95833333331,
      "d": 5.208333333328483,
      "v": 96
    },
    {
      "midi": 53,
      "hit": false,
      "t": 71721.35416666656,
      "d": 49.47916666667152,
      "v": 36
    },
    {
      "midi": 33,
      "hit": false,
      "t": 71721.35416666664,
      "d": 164.0625,
      "v": 96
    },
    {
      "midi": 50,
      "hit": false,
      "t": 71843.7499999999,
      "d": 41.66666666667152,
      "v": 36
    },
    {
      "midi": 31,
      "hit": false,
      "t": 71973.95833333331,
      "d": 473.9583333333285,
      "v": 96
    },
    {
      "midi": 43,
      "hit": false,
      "t": 71976.5624999999,
      "d": 44.27083333332848,
      "v": 96
    },
    {
      "midi": 58,
      "hit": false,
      "t": 71976.5624999999,
      "d": 44.27083333332848,
      "v": 127
    },
    {
      "midi": 67,
      "hit": false,
      "t": 71979.16666666661,
      "d": 406.25,
      "v": 99
    },
    {
      "midi": 70,
      "hit": false,
      "t": 71979.16666666661,
      "d": 406.25,
      "v": 101
    },
    {
      "midi": 62,
      "hit": false,
      "t": 71979.16666666666,
      "d": 927.083333333343,
      "v": 96
    },
    {
      "midi": 67,
      "hit": false,
      "t": 71981.77083333333,
      "d": 924.4791666666715,
      "v": 96
    },
    {
      "midi": 70,
      "hit": false,
      "t": 71981.77083333333,
      "d": 924.4791666666715,
      "v": 96
    },
    {
      "midi": 65,
      "hit": false,
      "t": 71984.37499999994,
      "d": 401.0416666666715,
      "v": 90
    },
    {
      "midi": 74,
      "hit": false,
      "t": 71984.37499999994,
      "d": 401.0416666666715,
      "v": 102
    },
    {
      "midi": 65,
      "hit": false,
      "t": 71984.375,
      "d": 921.875,
      "v": 96
    },
    {
      "midi": 58,
      "hit": false,
      "t": 72093.7499999999,
      "d": 31.25,
      "v": 60
    },
    {
      "midi": 58,
      "hit": false,
      "t": 72218.7499999999,
      "d": 31.25,
      "v": 66
    },
    {
      "midi": 43,
      "hit": false,
      "t": 72346.35416666657,
      "d": 39.0625,
      "v": 96
    },
    {
      "midi": 58,
      "hit": false,
      "t": 72346.35416666657,
      "d": 49.47916666667152,
      "v": 127
    },
    {
      "midi": 58,
      "hit": false,
      "t": 72471.35416666657,
      "d": 18.229166666671517,
      "v": 63
    },
    {
      "midi": 58,
      "hit": false,
      "t": 72593.74999999991,
      "d": 31.25,
      "v": 53
    },
    {
      "midi": 43,
      "hit": false,
      "t": 72721.35416666658,
      "d": 39.0625,
      "v": 96
    },
    {
      "midi": 58,
      "hit": false,
      "t": 72721.35416666658,
      "d": 49.47916666667152,
      "v": 127
    },
    {
      "midi": 31,
      "hit": false,
      "t": 72721.35416666664,
      "d": 39.0625,
      "v": 96
    },
    {
      "midi": 58,
      "hit": false,
      "t": 72843.74999999993,
      "d": 10.416666666671517,
      "v": 30
    },
    {
      "midi": 60,
      "hit": false,
      "t": 72908.85416666667,
      "d": 18.229166666671517,
      "v": 96
    },
    {
      "midi": 64,
      "hit": false,
      "t": 72908.85416666667,
      "d": 18.229166666671517,
      "v": 96
    },
    {
      "midi": 67,
      "hit": false,
      "t": 72908.85416666667,
      "d": 18.229166666671517,
      "v": 96
    },
    {
      "midi": 60,
      "hit": false,
      "t": 72927.08333333334,
      "d": 31.25,
      "v": 96
    },
    {
      "midi": 64,
      "hit": false,
      "t": 72929.68750000001,
      "d": 28.645833333328483,
      "v": 96
    },
    {
      "midi": 67,
      "hit": false,
      "t": 72929.68750000001,
      "d": 28.645833333328483,
      "v": 96
    },
    {
      "midi": 64,
      "hit": false,
      "t": 72947.91666666661,
      "d": 10.416666666671517,
      "v": 101
    },
    {
      "midi": 60,
      "hit": false,
      "t": 72960.93750000001,
      "d": 1000.0000000000146,
      "v": 96
    },
    {
      "midi": 64,
      "hit": false,
      "t": 72960.93750000001,
      "d": 1000.0000000000146,
      "v": 96
    },
    {
      "midi": 67,
      "hit": false,
      "t": 72960.93750000001,
      "d": 1000.0000000000146,
      "v": 96
    },
    {
      "midi": 55,
      "hit": false,
      "t": 72971.3541666666,
      "d": 28.645833333328483,
      "v": 44
    },
    {
      "midi": 72,
      "hit": false,
      "t": 72971.35416666663,
      "d": 414.0625,
      "v": 101
    },
    {
      "midi": 36,
      "hit": false,
      "t": 72971.35416666664,
      "d": 625,
      "v": 96
    },
    {
      "midi": 79,
      "hit": false,
      "t": 72989.5833333333,
      "d": 416.66666666665697,
      "v": 101
    },
    {
      "midi": 48,
      "hit": false,
      "t": 73093.74999999993,
      "d": 41.66666666667152,
      "v": 96
    },
    {
      "midi": 55,
      "hit": false,
      "t": 73096.3541666666,
      "d": 49.47916666667152,
      "v": 127
    },
    {
      "midi": 55,
      "hit": false,
      "t": 73221.3541666666,
      "d": 28.645833333328483,
      "v": 53
    },
    {
      "midi": 55,
      "hit": false,
      "t": 73343.74999999993,
      "d": 31.25,
      "v": 44
    },
    {
      "midi": 36,
      "hit": false,
      "t": 73596.35416666664,
      "d": 7.8125,
      "v": 96
    },
    {
      "midi": 31,
      "hit": false,
      "t": 73721.35416666664,
      "d": 226.5625,
      "v": 96
    },
    {
      "midi": 36,
      "hit": false,
      "t": 73973.95833333331,
      "d": 36.45833333332848,
      "v": 96
    },
    {
      "midi": 52,
      "hit": false,
      "t": 73976.56249999996,
      "d": 36.458333333343035,
      "v": 102
    },
    {
      "midi": 60,
      "hit": false,
      "t": 73976.56249999996,
      "d": 36.458333333343035,
      "v": 90
    },
    {
      "midi": 64,
      "hit": false,
      "t": 73976.56249999996,
      "d": 36.458333333343035,
      "v": 99
    },
    {
      "midi": 67,
      "hit": false,
      "t": 73979.16666666663,
      "d": 33.85416666667152,
      "v": 101
    },
    {
      "midi": 55,
      "hit": false,
      "t": 73981.77083333326,
      "d": 28.645833333343035,
      "v": 56
    },
    {
      "midi": 60,
      "hit": false,
      "t": 73981.77083333326,
      "d": 28.645833333343035,
      "v": 56
    },
    {
      "midi": 67,
      "hit": false,
      "t": 73981.77083333336,
      "d": 31.25,
      "v": 96
    },
    {
      "midi": 67,
      "hit": false,
      "t": 73984.37499999993,
      "d": 26.041666666671517,
      "v": 56
    },
    {
      "midi": 60,
      "hit": false,
      "t": 73984.37500000003,
      "d": 28.645833333328483,
      "v": 96
    },
    {
      "midi": 76,
      "hit": false,
      "t": 73984.37500000003,
      "d": 28.645833333328483,
      "v": 96
    },
    {
      "midi": 64,
      "hit": false,
      "t": 73986.9791666666,
      "d": 23.4375,
      "v": 56
    },
    {
      "midi": 29,
      "hit": false,
      "t": 74015.62499999997,
      "d": 5.208333333328483,
      "v": 96
    },
    {
      "midi": 60,
      "hit": false,
      "t": 74015.62500000003,
      "d": 5.208333333328483,
      "v": 96
    },
    {
      "midi": 69,
      "hit": false,
      "t": 74015.62500000003,
      "d": 5.208333333328483,
      "v": 96
    },
    {
      "midi": 77,
      "hit": false,
      "t": 74015.62500000003,
      "d": 5.208333333328483,
      "v": 96
    },
    {
      "midi": 29,
      "hit": false,
      "t": 74023.43749999997,
      "d": 424.4791666666715,
      "v": 96
    },
    {
      "midi": 60,
      "hit": false,
      "t": 74023.43750000003,
      "d": 1799.479166666686,
      "v": 96
    },
    {
      "midi": 68,
      "hit": false,
      "t": 74023.43750000003,
      "d": 1799.479166666686,
      "v": 96
    },
    {
      "midi": 77,
      "hit": false,
      "t": 74023.43750000003,
      "d": 1799.479166666686,
      "v": 96
    },
    {
      "midi": 60,
      "hit": false,
      "t": 74346.3541666666,
      "d": 111.97916666667152,
      "v": 56
    },
    {
      "midi": 65,
      "hit": false,
      "t": 74346.3541666666,
      "d": 111.97916666667152,
      "v": 56
    },
    {
      "midi": 68,
      "hit": false,
      "t": 74346.3541666666,
      "d": 111.97916666667152,
      "v": 56
    },
    {
      "midi": 56,
      "hit": false,
      "t": 74348.95833333327,
      "d": 98.95833333332848,
      "v": 56
    },
    {
      "midi": 56,
      "hit": false,
      "t": 74471.3541666666,
      "d": 7.8125,
      "v": 40
    },
    {
      "midi": 60,
      "hit": false,
      "t": 74473.95833333327,
      "d": 5.208333333328483,
      "v": 40
    },
    {
      "midi": 65,
      "hit": false,
      "t": 74473.95833333327,
      "d": 5.208333333328483,
      "v": 40
    },
    {
      "midi": 68,
      "hit": false,
      "t": 74473.95833333327,
      "d": 7.8125,
      "v": 40
    },
    {
      "midi": 60,
      "hit": false,
      "t": 74596.3541666666,
      "d": 7.8125,
      "v": 40
    },
    {
      "midi": 65,
      "hit": false,
      "t": 74596.3541666666,
      "d": 7.8125,
      "v": 40
    },
    {
      "midi": 68,
      "hit": false,
      "t": 74596.3541666666,
      "d": 7.8125,
      "v": 40
    },
    {
      "midi": 56,
      "hit": false,
      "t": 74598.95833333327,
      "d": 5.208333333328483,
      "v": 40
    },
    {
      "midi": 29,
      "hit": false,
      "t": 74721.35416666664,
      "d": 39.0625,
      "v": 96
    },
    {
      "midi": 56,
      "hit": false,
      "t": 74723.95833333327,
      "d": 1119.7916666666715,
      "v": 56
    },
    {
      "midi": 60,
      "hit": false,
      "t": 74723.95833333327,
      "d": 1122.395833333343,
      "v": 56
    },
    {
      "midi": 65,
      "hit": false,
      "t": 74723.95833333327,
      "d": 1122.395833333343,
      "v": 56
    },
    {
      "midi": 68,
      "hit": false,
      "t": 74726.56249999994,
      "d": 1119.7916666666715,
      "v": 56
    },
    {
      "midi": 65,
      "hit": false,
      "t": 74947.91666666664,
      "d": 414.0625,
      "v": 101
    },
    {
      "midi": 72,
      "hit": false,
      "t": 74971.35416666664,
      "d": 414.0625,
      "v": 101
    },
    {
      "midi": 29,
      "hit": false,
      "t": 74971.35416666664,
      "d": 539.0625,
      "v": 96
    },
    {
      "midi": 80,
      "hit": false,
      "t": 74989.58333333331,
      "d": 416.66666666665697,
      "v": 101
    },
    {
      "midi": 29,
      "hit": false,
      "t": 75593.74999999997,
      "d": 7.8125,
      "v": 96
    },
    {
      "midi": 36,
      "hit": false,
      "t": 75721.35416666664,
      "d": 122.39583333332848,
      "v": 96
    },
    {
      "midi": 34,
      "hit": false,
      "t": 75973.9583333333,
      "d": 471.3541666666715,
      "v": 96
    },
    {
      "midi": 46,
      "hit": false,
      "t": 75976.56249999994,
      "d": 41.66666666667152,
      "v": 96
    },
    {
      "midi": 58,
      "hit": false,
      "t": 75979.16666666661,
      "d": 41.66666666667152,
      "v": 127
    },
    {
      "midi": 61,
      "hit": false,
      "t": 75979.16666666664,
      "d": 406.25000000001455,
      "v": 90
    },
    {
      "midi": 70,
      "hit": false,
      "t": 75979.16666666664,
      "d": 406.25000000001455,
      "v": 101
    },
    {
      "midi": 61,
      "hit": false,
      "t": 75979.16666666672,
      "d": 1013.020833333343,
      "v": 96
    },
    {
      "midi": 46,
      "hit": false,
      "t": 75981.77083333331,
      "d": 403.64583333334303,
      "v": 102
    },
    {
      "midi": 65,
      "hit": false,
      "t": 75981.77083333331,
      "d": 403.64583333334303,
      "v": 99
    },
    {
      "midi": 70,
      "hit": false,
      "t": 75981.77083333339,
      "d": 1010.4166666666715,
      "v": 96
    },
    {
      "midi": 65,
      "hit": false,
      "t": 75984.37500000006,
      "d": 1007.8125,
      "v": 96
    },
    {
      "midi": 58,
      "hit": false,
      "t": 76093.74999999996,
      "d": 31.25,
      "v": 60
    },
    {
      "midi": 58,
      "hit": false,
      "t": 76218.74999999996,
      "d": 31.25,
      "v": 66
    },
    {
      "midi": 46,
      "hit": false,
      "t": 76343.74999999996,
      "d": 41.66666666667152,
      "v": 96
    },
    {
      "midi": 58,
      "hit": false,
      "t": 76343.74999999996,
      "d": 49.47916666667152,
      "v": 127
    },
    {
      "midi": 58,
      "hit": false,
      "t": 76468.74999999996,
      "d": 18.229166666671517,
      "v": 63
    },
    {
      "midi": 58,
      "hit": false,
      "t": 76593.74999999996,
      "d": 28.645833333328483,
      "v": 53
    },
    {
      "midi": 46,
      "hit": false,
      "t": 76721.35416666661,
      "d": 39.0625,
      "v": 96
    },
    {
      "midi": 58,
      "hit": false,
      "t": 76721.35416666661,
      "d": 46.875,
      "v": 127
    },
    {
      "midi": 34,
      "hit": false,
      "t": 76721.35416666664,
      "d": 36.45833333332848,
      "v": 96
    },
    {
      "midi": 58,
      "hit": false,
      "t": 76843.74999999994,
      "d": 10.416666666671517,
      "v": 30
    },
    {
      "midi": 65,
      "hit": false,
      "t": 76947.91666666666,
      "d": 41.66666666667152,
      "v": 101
    },
    {
      "midi": 34,
      "hit": false,
      "t": 76968.74999999997,
      "d": 20.833333333328483,
      "v": 96
    },
    {
      "midi": 58,
      "hit": false,
      "t": 76971.35416666661,
      "d": 18.229166666671517,
      "v": 44
    },
    {
      "midi": 73,
      "hit": false,
      "t": 76971.35416666666,
      "d": 20.833333333343035,
      "v": 101
    },
    {
      "midi": 28,
      "hit": false,
      "t": 76992.18749999997,
      "d": 18.229166666671517,
      "v": 96
    },
    {
      "midi": 80,
      "hit": false,
      "t": 76994.79166666667,
      "d": 15.625,
      "v": 101
    },
    {
      "midi": 59,
      "hit": false,
      "t": 76994.79166666673,
      "d": 15.625,
      "v": 96
    },
    {
      "midi": 64,
      "hit": false,
      "t": 76994.79166666673,
      "d": 15.625,
      "v": 96
    },
    {
      "midi": 68,
      "hit": false,
      "t": 76994.79166666673,
      "d": 15.625,
      "v": 96
    },
    {
      "midi": 36,
      "hit": false,
      "t": 77013.02083333331,
      "d": 851.5625,
      "v": 96
    },
    {
      "midi": 60,
      "hit": false,
      "t": 77013.0208333334,
      "d": 851.5625,
      "v": 96
    },
    {
      "midi": 64,
      "hit": false,
      "t": 77013.0208333334,
      "d": 851.5625,
      "v": 96
    },
    {
      "midi": 67,
      "hit": false,
      "t": 77013.0208333334,
      "d": 851.5625,
      "v": 96
    },
    {
      "midi": 48,
      "hit": false,
      "t": 77093.74999999996,
      "d": 41.66666666667152,
      "v": 96
    },
    {
      "midi": 55,
      "hit": false,
      "t": 77093.74999999996,
      "d": 49.47916666667152,
      "v": 127
    },
    {
      "midi": 55,
      "hit": false,
      "t": 77218.74999999996,
      "d": 28.645833333328483,
      "v": 53
    },
    {
      "midi": 55,
      "hit": false,
      "t": 77343.74999999996,
      "d": 28.645833333328483,
      "v": 44
    },
    {
      "midi": 48,
      "hit": false,
      "t": 77468.74999999996,
      "d": 49.47916666667152,
      "v": 96
    },
    {
      "midi": 55,
      "hit": false,
      "t": 77471.35416666663,
      "d": 57.29166666667152,
      "v": 127
    },
    {
      "midi": 55,
      "hit": false,
      "t": 77593.74999999997,
      "d": 39.0625,
      "v": 43
    },
    {
      "midi": 52,
      "hit": false,
      "t": 77718.74999999997,
      "d": 28.645833333328483,
      "v": 81
    },
    {
      "midi": 52,
      "hit": false,
      "t": 77843.74999999997,
      "d": 7.8125,
      "v": 35
    },
    {
      "midi": 60,
      "hit": false,
      "t": 77864.5833333334,
      "d": 20.833333333343035,
      "v": 96
    },
    {
      "midi": 65,
      "hit": false,
      "t": 77867.18750000007,
      "d": 18.229166666671517,
      "v": 96
    },
    {
      "midi": 69,
      "hit": false,
      "t": 77867.18750000007,
      "d": 18.229166666671517,
      "v": 96
    },
    {
      "midi": 60,
      "hit": false,
      "t": 77885.41666666674,
      "d": 1989.5833333333285,
      "v": 96
    },
    {
      "midi": 65,
      "hit": false,
      "t": 77885.41666666674,
      "d": 1989.5833333333285,
      "v": 96
    },
    {
      "midi": 68,
      "hit": false,
      "t": 77885.41666666674,
      "d": 1989.5833333333285,
      "v": 96
    },
    {
      "midi": 41,
      "hit": false,
      "t": 77973.9583333333,
      "d": 54.6875,
      "v": 96
    },
    {
      "midi": 29,
      "hit": false,
      "t": 77973.95833333331,
      "d": 471.3541666666715,
      "v": 96
    },
    {
      "midi": 56,
      "hit": false,
      "t": 77976.56249999997,
      "d": 62.5,
      "v": 127
    },
    {
      "midi": 60,
      "hit": false,
      "t": 77976.56250000001,
      "d": 406.25000000001455,
      "v": 99
    },
    {
      "midi": 68,
      "hit": false,
      "t": 77976.56250000001,
      "d": 406.25000000001455,
      "v": 101
    },
    {
      "midi": 41,
      "hit": false,
      "t": 77979.16666666669,
      "d": 406.25000000001455,
      "v": 102
    },
    {
      "midi": 77,
      "hit": false,
      "t": 77979.16666666669,
      "d": 406.25000000001455,
      "v": 90
    },
    {
      "midi": 56,
      "hit": false,
      "t": 78093.74999999997,
      "d": 18.229166666671517,
      "v": 31
    },
    {
      "midi": 56,
      "hit": false,
      "t": 78218.74999999997,
      "d": 28.645833333328483,
      "v": 57
    },
    {
      "midi": 41,
      "hit": false,
      "t": 78343.74999999997,
      "d": 49.47916666667152,
      "v": 96
    },
    {
      "midi": 56,
      "hit": false,
      "t": 78343.74999999997,
      "d": 59.895833333343035,
      "v": 127
    },
    {
      "midi": 56,
      "hit": false,
      "t": 78468.74999999999,
      "d": 39.0625,
      "v": 31
    },
    {
      "midi": 56,
      "hit": false,
      "t": 78593.74999999999,
      "d": 39.0625,
      "v": 66
    },
    {
      "midi": 29,
      "hit": false,
      "t": 78718.74999999999,
      "d": 39.0625,
      "v": 96
    },
    {
      "midi": 41,
      "hit": false,
      "t": 78721.35416666666,
      "d": 46.875,
      "v": 96
    },
    {
      "midi": 56,
      "hit": false,
      "t": 78721.35416666666,
      "d": 46.875,
      "v": 127
    },
    {
      "midi": 56,
      "hit": false,
      "t": 78843.74999999999,
      "d": 28.645833333328483,
      "v": 65
    },
    {
      "midi": 56,
      "hit": false,
      "t": 78968.74999999999,
      "d": 18.229166666671517,
      "v": 52
    },
    {
      "midi": 29,
      "hit": false,
      "t": 78968.74999999999,
      "d": 903.6458333333285,
      "v": 96
    },
    {
      "midi": 41,
      "hit": false,
      "t": 79093.74999999999,
      "d": 49.47916666667152,
      "v": 96
    },
    {
      "midi": 56,
      "hit": false,
      "t": 79093.74999999999,
      "d": 59.895833333343035,
      "v": 127
    },
    {
      "midi": 56,
      "hit": false,
      "t": 79218.75,
      "d": 18.229166666671517,
      "v": 31
    },
    {
      "midi": 56,
      "hit": false,
      "t": 79343.75,
      "d": 28.645833333328483,
      "v": 62
    },
    {
      "midi": 65,
      "hit": false,
      "t": 79346.3541666667,
      "d": 411.4583333333285,
      "v": 90
    },
    {
      "midi": 41,
      "hit": false,
      "t": 79468.75,
      "d": 59.895833333343035,
      "v": 96
    },
    {
      "midi": 56,
      "hit": false,
      "t": 79471.35416666667,
      "d": 57.29166666667152,
      "v": 127
    },
    {
      "midi": 56,
      "hit": false,
      "t": 79593.75000000001,
      "d": 18.229166666671517,
      "v": 69
    },
    {
      "midi": 68,
      "hit": false,
      "t": 79596.3541666667,
      "d": 278.6458333333285,
      "v": 90
    },
    {
      "midi": 44,
      "hit": false,
      "t": 79721.35416666669,
      "d": 36.45833333332848,
      "v": 93
    },
    {
      "midi": 44,
      "hit": false,
      "t": 79843.75000000001,
      "d": 7.8125,
      "v": 34
    },
    {
      "midi": 62,
      "hit": false,
      "t": 79875.00000000007,
      "d": 28.645833333343035,
      "v": 96
    },
    {
      "midi": 65,
      "hit": false,
      "t": 79875.00000000007,
      "d": 31.250000000014552,
      "v": 96
    },
    {
      "midi": 70,
      "hit": false,
      "t": 79877.60416666674,
      "d": 28.645833333343035,
      "v": 96
    },
    {
      "midi": 61,
      "hit": false,
      "t": 79906.25000000009,
      "d": 28.645833333328483,
      "v": 96
    },
    {
      "midi": 70,
      "hit": false,
      "t": 79906.25000000009,
      "d": 28.645833333328483,
      "v": 96
    },
    {
      "midi": 65,
      "hit": false,
      "t": 79906.25000000009,
      "d": 31.25,
      "v": 96
    },
    {
      "midi": 61,
      "hit": false,
      "t": 79937.50000000009,
      "d": 924.4791666666715,
      "v": 96
    },
    {
      "midi": 65,
      "hit": false,
      "t": 79937.50000000009,
      "d": 927.083333333343,
      "v": 96
    },
    {
      "midi": 70,
      "hit": false,
      "t": 79937.50000000009,
      "d": 927.083333333343,
      "v": 96
    },
    {
      "midi": 34,
      "hit": false,
      "t": 79973.95833333331,
      "d": 471.3541666666715,
      "v": 96
    },
    {
      "midi": 46,
      "hit": false,
      "t": 79973.95833333334,
      "d": 44.270833333343035,
      "v": 96
    },
    {
      "midi": 58,
      "hit": false,
      "t": 79976.56250000001,
      "d": 41.66666666667152,
      "v": 127
    },
    {
      "midi": 70,
      "hit": false,
      "t": 79976.56250000003,
      "d": 406.25000000001455,
      "v": 99
    },
    {
      "midi": 73,
      "hit": false,
      "t": 79976.56250000003,
      "d": 408.85416666668607,
      "v": 101
    },
    {
      "midi": 46,
      "hit": false,
      "t": 79979.1666666667,
      "d": 406.25000000001455,
      "v": 102
    },
    {
      "midi": 65,
      "hit": false,
      "t": 79979.1666666667,
      "d": 406.25000000001455,
      "v": 90
    },
    {
      "midi": 58,
      "hit": false,
      "t": 80093.75000000001,
      "d": 28.645833333328483,
      "v": 60
    },
    {
      "midi": 58,
      "hit": false,
      "t": 80218.75000000001,
      "d": 28.645833333328483,
      "v": 66
    },
    {
      "midi": 46,
      "hit": false,
      "t": 80343.75000000001,
      "d": 39.0625,
      "v": 96
    },
    {
      "midi": 58,
      "hit": false,
      "t": 80343.75000000001,
      "d": 49.47916666667152,
      "v": 127
    },
    {
      "midi": 58,
      "hit": false,
      "t": 80468.75000000001,
      "d": 18.229166666671517,
      "v": 63
    },
    {
      "midi": 58,
      "hit": false,
      "t": 80593.75000000001,
      "d": 28.645833333328483,
      "v": 53
    },
    {
      "midi": 34,
      "hit": false,
      "t": 80718.74999999999,
      "d": 39.0625,
      "v": 96
    },
    {
      "midi": 46,
      "hit": false,
      "t": 80721.35416666667,
      "d": 36.45833333332848,
      "v": 96
    },
    {
      "midi": 58,
      "hit": false,
      "t": 80721.35416666667,
      "d": 46.875,
      "v": 127
    },
    {
      "midi": 58,
      "hit": false,
      "t": 80843.75,
      "d": 7.8125,
      "v": 30
    },
    {
      "midi": 62,
      "hit": false,
      "t": 80864.58333333343,
      "d": 18.229166666671517,
      "v": 96
    },
    {
      "midi": 67,
      "hit": false,
      "t": 80864.58333333343,
      "d": 20.833333333343035,
      "v": 96
    },
    {
      "midi": 71,
      "hit": false,
      "t": 80864.58333333343,
      "d": 20.833333333343035,
      "v": 96
    },
    {
      "midi": 63,
      "hit": false,
      "t": 80885.41666666677,
      "d": 1028.6458333333285,
      "v": 96
    },
    {
      "midi": 67,
      "hit": false,
      "t": 80885.41666666677,
      "d": 1028.6458333333285,
      "v": 96
    },
    {
      "midi": 70,
      "hit": false,
      "t": 80885.41666666677,
      "d": 1031.25,
      "v": 96
    },
    {
      "midi": 39,
      "hit": false,
      "t": 80968.74999999999,
      "d": 914.0625,
      "v": 96
    },
    {
      "midi": 58,
      "hit": false,
      "t": 80968.75,
      "d": 28.645833333328483,
      "v": 44
    },
    {
      "midi": 51,
      "hit": false,
      "t": 81093.75,
      "d": 39.0625,
      "v": 96
    },
    {
      "midi": 58,
      "hit": false,
      "t": 81093.75,
      "d": 49.47916666667152,
      "v": 127
    },
    {
      "midi": 58,
      "hit": false,
      "t": 81218.75,
      "d": 28.645833333328483,
      "v": 53
    },
    {
      "midi": 58,
      "hit": false,
      "t": 81343.75,
      "d": 28.645833333328483,
      "v": 44
    },
    {
      "midi": 51,
      "hit": false,
      "t": 81468.75,
      "d": 49.47916666667152,
      "v": 96
    },
    {
      "midi": 58,
      "hit": false,
      "t": 81468.75,
      "d": 59.895833333343035,
      "v": 127
    },
    {
      "midi": 58,
      "hit": false,
      "t": 81593.75000000001,
      "d": 39.0625,
      "v": 43
    },
    {
      "midi": 55,
      "hit": false,
      "t": 81718.75000000001,
      "d": 70.3125,
      "v": 87
    },
    {
      "midi": 63,
      "hit": false,
      "t": 81721.35416666672,
      "d": 161.45833333332848,
      "v": 90
    },
    {
      "midi": 55,
      "hit": false,
      "t": 81843.75000000001,
      "d": 7.8125,
      "v": 38
    },
    {
      "midi": 58,
      "hit": false,
      "t": 81843.75000000004,
      "d": 39.0625,
      "v": 90
    },
    {
      "midi": 63,
      "hit": false,
      "t": 81916.66666666677,
      "d": 7.8125,
      "v": 96
    },
    {
      "midi": 68,
      "hit": false,
      "t": 81916.66666666677,
      "d": 7.8125,
      "v": 96
    },
    {
      "midi": 72,
      "hit": false,
      "t": 81916.66666666677,
      "d": 10.416666666671517,
      "v": 96
    },
    {
      "midi": 63,
      "hit": false,
      "t": 81927.08333333344,
      "d": 18.229166666671517,
      "v": 96
    },
    {
      "midi": 68,
      "hit": false,
      "t": 81927.08333333344,
      "d": 18.229166666671517,
      "v": 96
    },
    {
      "midi": 72,
      "hit": false,
      "t": 81927.08333333344,
      "d": 20.833333333343035,
      "v": 96
    },
    {
      "midi": 64,
      "hit": false,
      "t": 81947.91666666679,
      "d": 36.45833333332848,
      "v": 96
    },
    {
      "midi": 67,
      "hit": false,
      "t": 81947.91666666679,
      "d": 36.45833333332848,
      "v": 96
    },
    {
      "midi": 72,
      "hit": false,
      "t": 81947.91666666679,
      "d": 36.45833333332848,
      "v": 96
    },
    {
      "midi": 32,
      "hit": false,
      "t": 81973.95833333331,
      "d": 7.8125,
      "v": 96
    },
    {
      "midi": 44,
      "hit": false,
      "t": 81973.95833333334,
      "d": 7.8125,
      "v": 96
    },
    {
      "midi": 60,
      "hit": false,
      "t": 81976.56250000001,
      "d": 5.208333333328483,
      "v": 127
    },
    {
      "midi": 55,
      "hit": false,
      "t": 81976.56250000004,
      "d": 5.208333333343035,
      "v": 102
    },
    {
      "midi": 63,
      "hit": false,
      "t": 81976.56250000004,
      "d": 7.812500000014552,
      "v": 99
    },
    {
      "midi": 67,
      "hit": false,
      "t": 81979.16666666672,
      "d": 5.208333333343035,
      "v": 90
    },
    {
      "midi": 72,
      "hit": false,
      "t": 81979.16666666672,
      "d": 5.208333333343035,
      "v": 101
    },
    {
      "midi": 32,
      "hit": false,
      "t": 81986.97916666664,
      "d": 458.3333333333285,
      "v": 96
    },
    {
      "midi": 63,
      "hit": false,
      "t": 81986.97916666679,
      "d": 1877.6041666666715,
      "v": 96
    },
    {
      "midi": 67,
      "hit": false,
      "t": 81986.97916666679,
      "d": 1877.6041666666715,
      "v": 96
    },
    {
      "midi": 72,
      "hit": false,
      "t": 81986.97916666679,
      "d": 1877.6041666666715,
      "v": 96
    },
    {
      "midi": 60,
      "hit": false,
      "t": 82091.14583333334,
      "d": 20.833333333328483,
      "v": 31
    },
    {
      "midi": 60,
      "hit": false,
      "t": 82218.75,
      "d": 28.645833333328483,
      "v": 57
    },
    {
      "midi": 44,
      "hit": false,
      "t": 82343.75,
      "d": 49.47916666667152,
      "v": 96
    },
    {
      "midi": 60,
      "hit": false,
      "t": 82343.75,
      "d": 59.895833333343035,
      "v": 127
    },
    {
      "midi": 60,
      "hit": false,
      "t": 82468.75000000001,
      "d": 39.0625,
      "v": 31
    },
    {
      "midi": 60,
      "hit": false,
      "t": 82593.75000000001,
      "d": 39.0625,
      "v": 66
    },
    {
      "midi": 32,
      "hit": false,
      "t": 82718.74999999997,
      "d": 39.0625,
      "v": 96
    },
    {
      "midi": 44,
      "hit": false,
      "t": 82721.35416666669,
      "d": 46.875,
      "v": 96
    },
    {
      "midi": 60,
      "hit": false,
      "t": 82721.35416666669,
      "d": 46.875,
      "v": 127
    },
    {
      "midi": 60,
      "hit": false,
      "t": 82841.14583333336,
      "d": 31.25,
      "v": 65
    },
    {
      "midi": 32,
      "hit": false,
      "t": 82968.74999999997,
      "d": 539.0625,
      "v": 96
    },
    {
      "midi": 60,
      "hit": false,
      "t": 82968.75000000003,
      "d": 18.229166666671517,
      "v": 52
    },
    {
      "midi": 44,
      "hit": false,
      "t": 83093.75000000003,
      "d": 49.47916666667152,
      "v": 96
    },
    {
      "midi": 60,
      "hit": false,
      "t": 83093.75000000003,
      "d": 59.895833333343035,
      "v": 127
    },
    {
      "midi": 60,
      "hit": false,
      "t": 83218.75000000004,
      "d": 18.229166666671517,
      "v": 31
    },
    {
      "midi": 60,
      "hit": false,
      "t": 83343.75000000004,
      "d": 28.645833333328483,
      "v": 62
    },
    {
      "midi": 44,
      "hit": false,
      "t": 83468.75000000004,
      "d": 59.895833333343035,
      "v": 96
    },
    {
      "midi": 60,
      "hit": false,
      "t": 83471.35416666672,
      "d": 57.29166666667152,
      "v": 127
    },
    {
      "midi": 32,
      "hit": false,
      "t": 83593.74999999997,
      "d": 7.8125,
      "v": 96
    },
    {
      "midi": 55,
      "hit": false,
      "t": 83593.75000000006,
      "d": 80.72916666667152,
      "v": 92
    },
    {
      "midi": 39,
      "hit": false,
      "t": 83718.74999999997,
      "d": 143.22916666667152,
      "v": 96
    },
    {
      "midi": 55,
      "hit": false,
      "t": 83718.75000000006,
      "d": 49.47916666667152,
      "v": 36
    },
    {
      "midi": 44,
      "hit": false,
      "t": 83843.75000000006,
      "d": 18.229166666671517,
      "v": 36
    },
    {
      "midi": 37,
      "hit": false,
      "t": 83973.95833333331,
      "d": 471.3541666666715,
      "v": 96
    },
    {
      "midi": 49,
      "hit": false,
      "t": 83973.9583333334,
      "d": 44.270833333343035,
      "v": 96
    },
    {
      "midi": 53,
      "hit": false,
      "t": 83976.56250000006,
      "d": 406.25,
      "v": 102
    },
    {
      "midi": 61,
      "hit": false,
      "t": 83976.56250000006,
      "d": 406.25,
      "v": 90
    },
    {
      "midi": 65,
      "hit": false,
      "t": 83976.56250000006,
      "d": 406.25,
      "v": 99
    },
    {
      "midi": 56,
      "hit": false,
      "t": 83976.56250000007,
      "d": 41.66666666667152,
      "v": 127
    },
    {
      "midi": 68,
      "hit": false,
      "t": 83979.16666666673,
      "d": 403.6458333333285,
      "v": 101
    },
    {
      "midi": 61,
      "hit": false,
      "t": 83979.16666666679,
      "d": 914.0625,
      "v": 96
    },
    {
      "midi": 65,
      "hit": false,
      "t": 83979.16666666679,
      "d": 914.0625,
      "v": 96
    },
    {
      "midi": 68,
      "hit": false,
      "t": 83979.16666666679,
      "d": 914.0625,
      "v": 96
    },
    {
      "midi": 56,
      "hit": false,
      "t": 84091.14583333342,
      "d": 31.25,
      "v": 60
    },
    {
      "midi": 56,
      "hit": false,
      "t": 84216.14583333342,
      "d": 31.25,
      "v": 66
    },
    {
      "midi": 49,
      "hit": false,
      "t": 84343.75000000009,
      "d": 39.0625,
      "v": 96
    },
    {
      "midi": 56,
      "hit": false,
      "t": 84343.75000000009,
      "d": 49.47916666667152,
      "v": 127
    },
    {
      "midi": 56,
      "hit": false,
      "t": 84468.75000000009,
      "d": 18.229166666671517,
      "v": 63
    },
    {
      "midi": 56,
      "hit": false,
      "t": 84593.75000000009,
      "d": 28.645833333328483,
      "v": 53
    },
    {
      "midi": 37,
      "hit": false,
      "t": 84718.74999999999,
      "d": 39.0625,
      "v": 96
    },
    {
      "midi": 49,
      "hit": false,
      "t": 84718.75000000009,
      "d": 39.0625,
      "v": 96
    },
    {
      "midi": 56,
      "hit": false,
      "t": 84721.35416666676,
      "d": 46.875,
      "v": 127
    },
    {
      "midi": 56,
      "hit": false,
      "t": 84841.14583333343,
      "d": 10.416666666671517,
      "v": 30
    },
    {
      "midi": 62,
      "hit": false,
      "t": 84895.83333333346,
      "d": 18.229166666671517,
      "v": 96
    },
    {
      "midi": 65,
      "hit": false,
      "t": 84895.83333333346,
      "d": 18.229166666671517,
      "v": 96
    },
    {
      "midi": 70,
      "hit": false,
      "t": 84895.83333333346,
      "d": 18.229166666671517,
      "v": 96
    },
    {
      "midi": 61,
      "hit": false,
      "t": 84916.6666666668,
      "d": 976.5625,
      "v": 96
    },
    {
      "midi": 65,
      "hit": false,
      "t": 84916.6666666668,
      "d": 976.5625,
      "v": 96
    },
    {
      "midi": 68,
      "hit": false,
      "t": 84916.6666666668,
      "d": 976.5625,
      "v": 96
    },
    {
      "midi": 70,
      "hit": false,
      "t": 84916.6666666668,
      "d": 976.5625,
      "v": 96
    },
    {
      "midi": 65,
      "hit": false,
      "t": 84945.31250000006,
      "d": 416.6666666666715,
      "v": 101
    },
    {
      "midi": 61,
      "hit": false,
      "t": 84947.91666666673,
      "d": 414.0625,
      "v": 101
    },
    {
      "midi": 34,
      "hit": false,
      "t": 84968.74999999999,
      "d": 914.0625,
      "v": 96
    },
    {
      "midi": 58,
      "hit": false,
      "t": 84968.7500000001,
      "d": 28.645833333328483,
      "v": 44
    },
    {
      "midi": 80,
      "hit": false,
      "t": 84971.35416666673,
      "d": 411.4583333333285,
      "v": 101
    },
    {
      "midi": 82,
      "hit": false,
      "t": 84986.97916666673,
      "d": 416.66666666665697,
      "v": 101
    },
    {
      "midi": 46,
      "hit": false,
      "t": 85091.14583333343,
      "d": 41.66666666667152,
      "v": 96
    },
    {
      "midi": 58,
      "hit": false,
      "t": 85093.7500000001,
      "d": 49.47916666667152,
      "v": 127
    },
    {
      "midi": 58,
      "hit": false,
      "t": 85218.7500000001,
      "d": 28.645833333328483,
      "v": 53
    },
    {
      "midi": 58,
      "hit": false,
      "t": 85343.7500000001,
      "d": 28.645833333328483,
      "v": 44
    },
    {
      "midi": 46,
      "hit": false,
      "t": 85468.7500000001,
      "d": 49.47916666667152,
      "v": 96
    },
    {
      "midi": 58,
      "hit": false,
      "t": 85468.7500000001,
      "d": 59.895833333343035,
      "v": 127
    },
    {
      "midi": 58,
      "hit": false,
      "t": 85593.75000000012,
      "d": 39.0625,
      "v": 43
    },
    {
      "midi": 53,
      "hit": false,
      "t": 85718.75000000012,
      "d": 28.645833333328483,
      "v": 81
    },
    {
      "midi": 53,
      "hit": false,
      "t": 85843.75000000012,
      "d": 7.8125,
      "v": 35
    },
    {
      "midi": 62,
      "hit": false,
      "t": 85895.83333333347,
      "d": 7.8125,
      "v": 96
    },
    {
      "midi": 67,
      "hit": false,
      "t": 85895.83333333347,
      "d": 7.8125,
      "v": 96
    },
    {
      "midi": 70,
      "hit": false,
      "t": 85895.83333333347,
      "d": 7.8125,
      "v": 96
    },
    {
      "midi": 63,
      "hit": false,
      "t": 85906.25000000015,
      "d": 966.1458333333285,
      "v": 96
    },
    {
      "midi": 67,
      "hit": false,
      "t": 85906.25000000015,
      "d": 966.1458333333285,
      "v": 96
    },
    {
      "midi": 70,
      "hit": false,
      "t": 85906.25000000015,
      "d": 966.1458333333285,
      "v": 96
    },
    {
      "midi": 39,
      "hit": false,
      "t": 85971.35416666666,
      "d": 473.9583333333285,
      "v": 96
    },
    {
      "midi": 55,
      "hit": false,
      "t": 85973.95833333339,
      "d": 408.85416666668607,
      "v": 102
    },
    {
      "midi": 51,
      "hit": false,
      "t": 85973.95833333344,
      "d": 54.6875,
      "v": 96
    },
    {
      "midi": 58,
      "hit": false,
      "t": 85973.95833333344,
      "d": 65.10416666667152,
      "v": 127
    },
    {
      "midi": 63,
      "hit": false,
      "t": 85976.56250000006,
      "d": 406.25000000001455,
      "v": 99
    },
    {
      "midi": 70,
      "hit": false,
      "t": 85976.56250000006,
      "d": 406.25000000001455,
      "v": 101
    },
    {
      "midi": 79,
      "hit": false,
      "t": 85976.56250000006,
      "d": 406.25000000001455,
      "v": 90
    },
    {
      "midi": 58,
      "hit": false,
      "t": 86091.14583333344,
      "d": 20.833333333328483,
      "v": 31
    },
    {
      "midi": 58,
      "hit": false,
      "t": 86216.14583333344,
      "d": 31.25,
      "v": 57
    },
    {
      "midi": 51,
      "hit": false,
      "t": 86343.75000000012,
      "d": 49.47916666667152,
      "v": 96
    },
    {
      "midi": 58,
      "hit": false,
      "t": 86343.75000000012,
      "d": 59.895833333343035,
      "v": 127
    },
    {
      "midi": 58,
      "hit": false,
      "t": 86468.75000000013,
      "d": 39.0625,
      "v": 31
    },
    {
      "midi": 58,
      "hit": false,
      "t": 86591.14583333346,
      "d": 41.66666666667152,
      "v": 66
    },
    {
      "midi": 39,
      "hit": false,
      "t": 86718.74999999999,
      "d": 39.0625,
      "v": 96
    },
    {
      "midi": 51,
      "hit": false,
      "t": 86718.75000000013,
      "d": 49.47916666667152,
      "v": 96
    },
    {
      "midi": 58,
      "hit": false,
      "t": 86718.75000000013,
      "d": 49.47916666667152,
      "v": 127
    },
    {
      "midi": 58,
      "hit": false,
      "t": 86841.14583333347,
      "d": 31.25,
      "v": 65
    },
    {
      "midi": 63,
      "hit": false,
      "t": 86875.00000000015,
      "d": 18.229166666671517,
      "v": 96
    },
    {
      "midi": 68,
      "hit": false,
      "t": 86875.00000000015,
      "d": 18.229166666671517,
      "v": 96
    },
    {
      "midi": 72,
      "hit": false,
      "t": 86875.00000000015,
      "d": 18.229166666671517,
      "v": 96
    },
    {
      "midi": 63,
      "hit": false,
      "t": 86895.83333333349,
      "d": 986.9791666666715,
      "v": 96
    },
    {
      "midi": 68,
      "hit": false,
      "t": 86895.83333333349,
      "d": 986.9791666666715,
      "v": 96
    },
    {
      "midi": 72,
      "hit": false,
      "t": 86895.83333333349,
      "d": 986.9791666666715,
      "v": 96
    },
    {
      "midi": 32,
      "hit": false,
      "t": 86968.74999999999,
      "d": 914.0625,
      "v": 96
    },
    {
      "midi": 60,
      "hit": false,
      "t": 86968.75000000015,
      "d": 18.229166666671517,
      "v": 52
    },
    {
      "midi": 44,
      "hit": false,
      "t": 87091.14583333349,
      "d": 52.083333333343035,
      "v": 96
    },
    {
      "midi": 60,
      "hit": false,
      "t": 87093.75000000016,
      "d": 59.895833333343035,
      "v": 127
    },
    {
      "midi": 60,
      "hit": false,
      "t": 87216.1458333335,
      "d": 20.833333333328483,
      "v": 31
    },
    {
      "midi": 68,
      "hit": false,
      "t": 87343.75000000007,
      "d": 414.0625,
      "v": 90
    },
    {
      "midi": 60,
      "hit": false,
      "t": 87343.75000000016,
      "d": 28.645833333328483,
      "v": 62
    },
    {
      "midi": 44,
      "hit": false,
      "t": 87468.75000000016,
      "d": 59.89583333332848,
      "v": 96
    },
    {
      "midi": 60,
      "hit": false,
      "t": 87468.75000000016,
      "d": 59.89583333332848,
      "v": 127
    },
    {
      "midi": 72,
      "hit": false,
      "t": 87593.75000000007,
      "d": 289.0625,
      "v": 90
    },
    {
      "midi": 60,
      "hit": false,
      "t": 87593.75000000016,
      "d": 18.229166666671517,
      "v": 69
    },
    {
      "midi": 56,
      "hit": false,
      "t": 87718.75000000016,
      "d": 39.0625,
      "v": 93
    },
    {
      "midi": 56,
      "hit": false,
      "t": 87841.14583333349,
      "d": 10.416666666671517,
      "v": 34
    },
    {
      "midi": 61,
      "hit": false,
      "t": 87885.41666666683,
      "d": 7.8125,
      "v": 96
    },
    {
      "midi": 65,
      "hit": false,
      "t": 87885.41666666683,
      "d": 7.8125,
      "v": 96
    },
    {
      "midi": 68,
      "hit": false,
      "t": 87885.41666666683,
      "d": 7.8125,
      "v": 96
    },
    {
      "midi": 37,
      "hit": false,
      "t": 87893.22916666666,
      "d": 10.416666666671517,
      "v": 96
    },
    {
      "midi": 61,
      "hit": false,
      "t": 87895.8333333335,
      "d": 976.5625,
      "v": 96
    },
    {
      "midi": 65,
      "hit": false,
      "t": 87895.8333333335,
      "d": 976.5625,
      "v": 96
    },
    {
      "midi": 68,
      "hit": false,
      "t": 87895.8333333335,
      "d": 976.5625,
      "v": 96
    },
    {
      "midi": 37,
      "hit": false,
      "t": 87971.35416666666,
      "d": 473.9583333333285,
      "v": 96
    },
    {
      "midi": 53,
      "hit": false,
      "t": 87973.9583333334,
      "d": 408.85416666668607,
      "v": 102
    },
    {
      "midi": 61,
      "hit": false,
      "t": 87973.9583333334,
      "d": 408.85416666668607,
      "v": 90
    },
    {
      "midi": 49,
      "hit": false,
      "t": 87973.95833333349,
      "d": 44.27083333332848,
      "v": 96
    },
    {
      "midi": 56,
      "hit": false,
      "t": 87973.95833333349,
      "d": 44.27083333332848,
      "v": 127
    },
    {
      "midi": 68,
      "hit": false,
      "t": 87976.56250000007,
      "d": 406.25000000001455,
      "v": 99
    },
    {
      "midi": 73,
      "hit": false,
      "t": 87976.56250000007,
      "d": 406.25000000001455,
      "v": 101
    },
    {
      "midi": 56,
      "hit": false,
      "t": 88091.14583333349,
      "d": 31.25,
      "v": 60
    },
    {
      "midi": 56,
      "hit": false,
      "t": 88216.14583333349,
      "d": 31.25,
      "v": 66
    },
    {
      "midi": 49,
      "hit": false,
      "t": 88343.75000000016,
      "d": 39.0625,
      "v": 96
    },
    {
      "midi": 56,
      "hit": false,
      "t": 88343.75000000016,
      "d": 49.47916666667152,
      "v": 127
    },
    {
      "midi": 56,
      "hit": false,
      "t": 88468.75000000016,
      "d": 18.229166666671517,
      "v": 63
    },
    {
      "midi": 56,
      "hit": false,
      "t": 88591.1458333335,
      "d": 31.25,
      "v": 53
    },
    {
      "midi": 37,
      "hit": false,
      "t": 88718.74999999999,
      "d": 39.0625,
      "v": 96
    },
    {
      "midi": 49,
      "hit": false,
      "t": 88718.75000000017,
      "d": 39.0625,
      "v": 96
    },
    {
      "midi": 56,
      "hit": false,
      "t": 88718.75000000017,
      "d": 49.47916666667152,
      "v": 127
    },
    {
      "midi": 56,
      "hit": false,
      "t": 88841.14583333352,
      "d": 10.416666666671517,
      "v": 30
    },
    {
      "midi": 61,
      "hit": false,
      "t": 88872.3958333335,
      "d": 31.25,
      "v": 96
    },
    {
      "midi": 65,
      "hit": false,
      "t": 88875.00000000017,
      "d": 28.645833333328483,
      "v": 96
    },
    {
      "midi": 68,
      "hit": false,
      "t": 88875.00000000017,
      "d": 28.645833333328483,
      "v": 96
    },
    {
      "midi": 61,
      "hit": false,
      "t": 88903.6458333335,
      "d": 968.75,
      "v": 96
    },
    {
      "midi": 65,
      "hit": false,
      "t": 88906.25000000017,
      "d": 966.1458333333285,
      "v": 96
    },
    {
      "midi": 70,
      "hit": false,
      "t": 88906.25000000017,
      "d": 966.1458333333285,
      "v": 96
    },
    {
      "midi": 37,
      "hit": false,
      "t": 88966.14583333331,
      "d": 906.25,
      "v": 96
    },
    {
      "midi": 58,
      "hit": false,
      "t": 88968.75000000019,
      "d": 28.645833333328483,
      "v": 44
    },
    {
      "midi": 49,
      "hit": false,
      "t": 89091.14583333352,
      "d": 41.66666666667152,
      "v": 96
    },
    {
      "midi": 58,
      "hit": false,
      "t": 89093.75000000019,
      "d": 46.875,
      "v": 127
    },
    {
      "midi": 58,
      "hit": false,
      "t": 89216.14583333352,
      "d": 31.25,
      "v": 53
    },
    {
      "midi": 58,
      "hit": false,
      "t": 89341.14583333352,
      "d": 31.25,
      "v": 44
    },
    {
      "midi": 49,
      "hit": false,
      "t": 89466.14583333352,
      "d": 52.083333333343035,
      "v": 96
    },
    {
      "midi": 58,
      "hit": false,
      "t": 89468.75000000019,
      "d": 59.895833333343035,
      "v": 127
    },
    {
      "midi": 58,
      "hit": false,
      "t": 89591.14583333353,
      "d": 41.66666666667152,
      "v": 43
    },
    {
      "midi": 61,
      "hit": false,
      "t": 89718.75000000009,
      "d": 153.64583333332848,
      "v": 90
    },
    {
      "midi": 53,
      "hit": false,
      "t": 89718.7500000002,
      "d": 67.70833333332848,
      "v": 87
    },
    {
      "midi": 53,
      "hit": false,
      "t": 89841.14583333353,
      "d": 10.416666666671517,
      "v": 38
    },
    {
      "midi": 58,
      "hit": false,
      "t": 89843.75000000009,
      "d": 28.645833333328483,
      "v": 90
    },
    {
      "midi": 60,
      "hit": false,
      "t": 89875.00000000017,
      "d": 28.645833333328483,
      "v": 96
    },
    {
      "midi": 64,
      "hit": false,
      "t": 89875.00000000017,
      "d": 28.645833333328483,
      "v": 96
    },
    {
      "midi": 67,
      "hit": false,
      "t": 89875.00000000017,
      "d": 28.645833333328483,
      "v": 96
    },
    {
      "midi": 60,
      "hit": false,
      "t": 89903.6458333335,
      "d": 1979.1666666666715,
      "v": 96
    },
    {
      "midi": 64,
      "hit": false,
      "t": 89903.6458333335,
      "d": 1979.1666666666715,
      "v": 96
    },
    {
      "midi": 67,
      "hit": false,
      "t": 89906.25000000017,
      "d": 1976.5625,
      "v": 96
    },
    {
      "midi": 36,
      "hit": false,
      "t": 89971.35416666664,
      "d": 471.3541666666715,
      "v": 96
    },
    {
      "midi": 52,
      "hit": false,
      "t": 89973.95833333342,
      "d": 408.85416666668607,
      "v": 102
    },
    {
      "midi": 48,
      "hit": false,
      "t": 89973.95833333353,
      "d": 54.6875,
      "v": 96
    },
    {
      "midi": 55,
      "hit": false,
      "t": 89973.95833333353,
      "d": 62.5,
      "v": 127
    },
    {
      "midi": 60,
      "hit": false,
      "t": 89976.56250000009,
      "d": 406.25000000001455,
      "v": 99
    },
    {
      "midi": 64,
      "hit": false,
      "t": 89976.56250000009,
      "d": 406.25000000001455,
      "v": 90
    },
    {
      "midi": 67,
      "hit": false,
      "t": 89976.56250000009,
      "d": 406.25000000001455,
      "v": 101
    },
    {
      "midi": 55,
      "hit": false,
      "t": 90091.14583333353,
      "d": 18.229166666671517,
      "v": 31
    },
    {
      "midi": 55,
      "hit": false,
      "t": 90216.14583333353,
      "d": 31.25,
      "v": 57
    },
    {
      "midi": 48,
      "hit": false,
      "t": 90341.14583333353,
      "d": 49.47916666667152,
      "v": 96
    },
    {
      "midi": 55,
      "hit": false,
      "t": 90343.7500000002,
      "d": 57.29166666667152,
      "v": 127
    },
    {
      "midi": 55,
      "hit": false,
      "t": 90468.7500000002,
      "d": 39.0625,
      "v": 31
    },
    {
      "midi": 55,
      "hit": false,
      "t": 90591.14583333353,
      "d": 28.645833333328483,
      "v": 53
    },
    {
      "midi": 36,
      "hit": false,
      "t": 90718.74999999999,
      "d": 36.45833333332848,
      "v": 96
    },
    {
      "midi": 48,
      "hit": false,
      "t": 90718.75000000019,
      "d": 39.0625,
      "v": 96
    },
    {
      "midi": 55,
      "hit": false,
      "t": 90718.75000000019,
      "d": 46.875,
      "v": 127
    },
    {
      "midi": 55,
      "hit": false,
      "t": 90841.14583333352,
      "d": 10.416666666671517,
      "v": 30
    },
    {
      "midi": 36,
      "hit": false,
      "t": 90966.14583333331,
      "d": 664.0625,
      "v": 96
    },
    {
      "midi": 55,
      "hit": false,
      "t": 90968.75000000019,
      "d": 26.041666666671517,
      "v": 44
    },
    {
      "midi": 48,
      "hit": false,
      "t": 91091.14583333353,
      "d": 41.66666666667152,
      "v": 96
    },
    {
      "midi": 55,
      "hit": false,
      "t": 91091.14583333353,
      "d": 49.47916666667152,
      "v": 127
    },
    {
      "midi": 55,
      "hit": false,
      "t": 91216.14583333353,
      "d": 28.645833333328483,
      "v": 53
    },
    {
      "midi": 55,
      "hit": false,
      "t": 91218.7500000001,
      "d": 414.0625,
      "v": 90
    },
    {
      "midi": 55,
      "hit": false,
      "t": 91341.14583333353,
      "d": 28.645833333328483,
      "v": 44
    },
    {
      "midi": 60,
      "hit": false,
      "t": 91343.7500000001,
      "d": 414.0625,
      "v": 90
    },
    {
      "midi": 48,
      "hit": false,
      "t": 91466.14583333353,
      "d": 49.47916666667152,
      "v": 96
    },
    {
      "midi": 55,
      "hit": false,
      "t": 91468.7500000002,
      "d": 57.29166666667152,
      "v": 127
    },
    {
      "midi": 55,
      "hit": false,
      "t": 91591.14583333355,
      "d": 41.66666666667152,
      "v": 43
    },
    {
      "midi": 67,
      "hit": false,
      "t": 91593.7500000001,
      "d": 164.0625,
      "v": 90
    },
    {
      "midi": 28,
      "hit": false,
      "t": 91716.14583333331,
      "d": 39.0625,
      "v": 96
    },
    {
      "midi": 50,
      "hit": false,
      "t": 91718.75000000022,
      "d": 67.70833333332848,
      "v": 78
    },
    {
      "midi": 31,
      "hit": false,
      "t": 91841.14583333331,
      "d": 41.66666666667152,
      "v": 96
    },
    {
      "midi": 48,
      "hit": false,
      "t": 91841.14583333355,
      "d": 41.66666666667152,
      "v": 64
    },
    {
      "midi": 34,
      "hit": false,
      "t": 91971.35416666666,
      "d": 471.3541666666715,
      "v": 96
    },
    {
      "midi": 46,
      "hit": false,
      "t": 91973.95833333355,
      "d": 41.66666666667152,
      "v": 96
    },
    {
      "midi": 58,
      "hit": false,
      "t": 91973.95833333355,
      "d": 41.66666666667152,
      "v": 127
    },
    {
      "midi": 55,
      "hit": false,
      "t": 91976.5625000001,
      "d": 406.25,
      "v": 102
    },
    {
      "midi": 62,
      "hit": false,
      "t": 91976.5625000001,
      "d": 406.25,
      "v": 90
    },
    {
      "midi": 67,
      "hit": false,
      "t": 91976.5625000001,
      "d": 406.25,
      "v": 99
    },
    {
      "midi": 70,
      "hit": false,
      "t": 91976.5625000001,
      "d": 406.25,
      "v": 101
    },
    {
      "midi": 62,
      "hit": false,
      "t": 91979.16666666685,
      "d": 1882.8125,
      "v": 96
    },
    {
      "midi": 67,
      "hit": false,
      "t": 91979.16666666685,
      "d": 1882.8125,
      "v": 96
    },
    {
      "midi": 70,
      "hit": false,
      "t": 91979.16666666685,
      "d": 1882.8125,
      "v": 96
    },
    {
      "midi": 58,
      "hit": false,
      "t": 92091.14583333355,
      "d": 28.645833333328483,
      "v": 60
    },
    {
      "midi": 58,
      "hit": false,
      "t": 92216.14583333355,
      "d": 28.645833333328483,
      "v": 66
    },
    {
      "midi": 46,
      "hit": false,
      "t": 92341.14583333355,
      "d": 39.0625,
      "v": 96
    },
    {
      "midi": 58,
      "hit": false,
      "t": 92341.14583333355,
      "d": 49.47916666667152,
      "v": 127
    },
    {
      "midi": 58,
      "hit": false,
      "t": 92466.14583333355,
      "d": 18.229166666671517,
      "v": 63
    },
    {
      "midi": 58,
      "hit": false,
      "t": 92591.14583333355,
      "d": 28.645833333328483,
      "v": 53
    },
    {
      "midi": 34,
      "hit": false,
      "t": 92716.14583333333,
      "d": 39.0625,
      "v": 96
    },
    {
      "midi": 46,
      "hit": false,
      "t": 92718.7500000002,
      "d": 39.0625,
      "v": 96
    },
    {
      "midi": 58,
      "hit": false,
      "t": 92718.7500000002,
      "d": 46.875,
      "v": 127
    },
    {
      "midi": 58,
      "hit": false,
      "t": 92841.14583333353,
      "d": 7.8125,
      "v": 30
    },
    {
      "midi": 67,
      "hit": false,
      "t": 92945.3125000001,
      "d": 414.0625,
      "v": 101
    },
    {
      "midi": 34,
      "hit": false,
      "t": 92966.14583333333,
      "d": 893.2291666666715,
      "v": 96
    },
    {
      "midi": 58,
      "hit": false,
      "t": 92966.14583333353,
      "d": 28.645833333328483,
      "v": 44
    },
    {
      "midi": 74,
      "hit": false,
      "t": 92968.7500000001,
      "d": 411.4583333333285,
      "v": 101
    },
    {
      "midi": 82,
      "hit": false,
      "t": 92986.97916666677,
      "d": 414.06249999998545,
      "v": 101
    },
    {
      "midi": 46,
      "hit": false,
      "t": 93091.14583333353,
      "d": 39.0625,
      "v": 96
    },
    {
      "midi": 58,
      "hit": false,
      "t": 93091.14583333353,
      "d": 49.47916666667152,
      "v": 127
    },
    {
      "midi": 58,
      "hit": false,
      "t": 93216.14583333353,
      "d": 28.645833333328483,
      "v": 53
    },
    {
      "midi": 58,
      "hit": false,
      "t": 93341.14583333353,
      "d": 28.645833333328483,
      "v": 44
    },
    {
      "midi": 46,
      "hit": false,
      "t": 93466.14583333353,
      "d": 49.47916666667152,
      "v": 96
    },
    {
      "midi": 58,
      "hit": false,
      "t": 93468.7500000002,
      "d": 57.29166666667152,
      "v": 127
    },
    {
      "midi": 58,
      "hit": false,
      "t": 93591.14583333355,
      "d": 39.0625,
      "v": 43
    },
    {
      "midi": 55,
      "hit": false,
      "t": 93716.14583333355,
      "d": 28.645833333328483,
      "v": 81
    },
    {
      "midi": 55,
      "hit": false,
      "t": 93841.14583333355,
      "d": 7.8125,
      "v": 35
    },
    {
      "midi": 60,
      "hit": false,
      "t": 93861.97916666685,
      "d": 39.0625,
      "v": 96
    },
    {
      "midi": 65,
      "hit": false,
      "t": 93861.97916666685,
      "d": 41.66666666667152,
      "v": 96
    },
    {
      "midi": 69,
      "hit": false,
      "t": 93864.58333333352,
      "d": 39.0625,
      "v": 96
    },
    {
      "midi": 60,
      "hit": false,
      "t": 93903.64583333352,
      "d": 520.8333333333285,
      "v": 96
    },
    {
      "midi": 65,
      "hit": false,
      "t": 93903.64583333352,
      "d": 520.8333333333285,
      "v": 96
    },
    {
      "midi": 69,
      "hit": false,
      "t": 93903.64583333352,
      "d": 520.8333333333285,
      "v": 96
    },
    {
      "midi": 29,
      "hit": false,
      "t": 93971.35416666667,
      "d": 450.5208333333285,
      "v": 96
    },
    {
      "midi": 41,
      "hit": false,
      "t": 93971.35416666688,
      "d": 54.6875,
      "v": 96
    },
    {
      "midi": 57,
      "hit": false,
      "t": 93971.35416666688,
      "d": 65.10416666667152,
      "v": 127
    },
    {
      "midi": 53,
      "hit": false,
      "t": 93973.95833333343,
      "d": 406.25,
      "v": 102
    },
    {
      "midi": 60,
      "hit": false,
      "t": 93973.95833333343,
      "d": 406.25,
      "v": 99
    },
    {
      "midi": 69,
      "hit": false,
      "t": 93973.95833333343,
      "d": 408.8541666666715,
      "v": 101
    },
    {
      "midi": 77,
      "hit": false,
      "t": 93976.5625000001,
      "d": 406.25,
      "v": 90
    },
    {
      "midi": 57,
      "hit": false,
      "t": 94091.14583333355,
      "d": 18.229166666671517,
      "v": 31
    },
    {
      "midi": 57,
      "hit": false,
      "t": 94216.14583333355,
      "d": 28.645833333328483,
      "v": 57
    },
    {
      "midi": 41,
      "hit": false,
      "t": 94341.14583333355,
      "d": 49.47916666667152,
      "v": 96
    },
    {
      "midi": 57,
      "hit": false,
      "t": 94341.14583333355,
      "d": 59.895833333343035,
      "v": 127
    },
    {
      "midi": 60,
      "hit": false,
      "t": 94424.47916666685,
      "d": 1437.5,
      "v": 96
    },
    {
      "midi": 64,
      "hit": false,
      "t": 94424.47916666685,
      "d": 1437.5,
      "v": 96
    },
    {
      "midi": 69,
      "hit": false,
      "t": 94427.08333333352,
      "d": 1434.8958333333285,
      "v": 96
    },
    {
      "midi": 57,
      "hit": false,
      "t": 94466.14583333356,
      "d": 39.0625,
      "v": 31
    },
    {
      "midi": 57,
      "hit": false,
      "t": 94591.14583333356,
      "d": 39.0625,
      "v": 66
    },
    {
      "midi": 29,
      "hit": false,
      "t": 94716.14583333333,
      "d": 39.0625,
      "v": 96
    },
    {
      "midi": 41,
      "hit": false,
      "t": 94718.75000000023,
      "d": 46.875,
      "v": 96
    },
    {
      "midi": 57,
      "hit": false,
      "t": 94718.75000000023,
      "d": 46.875,
      "v": 127
    },
    {
      "midi": 57,
      "hit": false,
      "t": 94841.14583333356,
      "d": 28.645833333328483,
      "v": 65
    },
    {
      "midi": 29,
      "hit": false,
      "t": 94966.14583333333,
      "d": 893.2291666666715,
      "v": 96
    },
    {
      "midi": 57,
      "hit": false,
      "t": 94966.14583333356,
      "d": 18.229166666671517,
      "v": 52
    },
    {
      "midi": 41,
      "hit": false,
      "t": 95091.14583333356,
      "d": 49.47916666667152,
      "v": 96
    },
    {
      "midi": 57,
      "hit": false,
      "t": 95091.14583333356,
      "d": 59.895833333343035,
      "v": 127
    },
    {
      "midi": 57,
      "hit": false,
      "t": 95216.14583333358,
      "d": 18.229166666671517,
      "v": 31
    },
    {
      "midi": 64,
      "hit": false,
      "t": 95341.14583333343,
      "d": 414.0625,
      "v": 90
    },
    {
      "midi": 57,
      "hit": false,
      "t": 95341.14583333358,
      "d": 28.645833333328483,
      "v": 62
    },
    {
      "midi": 41,
      "hit": false,
      "t": 95466.14583333358,
      "d": 59.89583333332848,
      "v": 96
    },
    {
      "midi": 57,
      "hit": false,
      "t": 95466.14583333358,
      "d": 59.89583333332848,
      "v": 127
    },
    {
      "midi": 69,
      "hit": false,
      "t": 95591.14583333343,
      "d": 268.2291666666715,
      "v": 90
    },
    {
      "midi": 57,
      "hit": false,
      "t": 95591.14583333358,
      "d": 18.229166666671517,
      "v": 69
    },
    {
      "midi": 52,
      "hit": false,
      "t": 95716.14583333358,
      "d": 39.0625,
      "v": 93
    },
    {
      "midi": 52,
      "hit": false,
      "t": 95841.14583333358,
      "d": 7.8125,
      "v": 34
    },
    {
      "midi": 60,
      "hit": false,
      "t": 95861.97916666685,
      "d": 18.229166666671517,
      "v": 96
    },
    {
      "midi": 64,
      "hit": false,
      "t": 95861.97916666685,
      "d": 18.229166666671517,
      "v": 96
    },
    {
      "midi": 67,
      "hit": false,
      "t": 95864.58333333352,
      "d": 18.229166666671517,
      "v": 96
    },
    {
      "midi": 60,
      "hit": false,
      "t": 95882.81250000019,
      "d": 18.229166666671517,
      "v": 96
    },
    {
      "midi": 64,
      "hit": false,
      "t": 95882.81250000019,
      "d": 18.229166666671517,
      "v": 96
    },
    {
      "midi": 67,
      "hit": false,
      "t": 95882.81250000019,
      "d": 20.833333333343035,
      "v": 96
    },
    {
      "midi": 60,
      "hit": false,
      "t": 95903.64583333353,
      "d": 997.3958333333285,
      "v": 96
    },
    {
      "midi": 64,
      "hit": false,
      "t": 95903.64583333353,
      "d": 997.3958333333285,
      "v": 96
    },
    {
      "midi": 69,
      "hit": false,
      "t": 95903.64583333353,
      "d": 997.3958333333285,
      "v": 96
    },
    {
      "midi": 33,
      "hit": false,
      "t": 95971.35416666667,
      "d": 471.3541666666715,
      "v": 96
    },
    {
      "midi": 45,
      "hit": false,
      "t": 95971.3541666669,
      "d": 44.27083333332848,
      "v": 96
    },
    {
      "midi": 57,
      "hit": false,
      "t": 95971.3541666669,
      "d": 44.27083333332848,
      "v": 127
    },
    {
      "midi": 69,
      "hit": false,
      "t": 95973.95833333343,
      "d": 406.25,
      "v": 99
    },
    {
      "midi": 72,
      "hit": false,
      "t": 95973.95833333343,
      "d": 406.25,
      "v": 101
    },
    {
      "midi": 45,
      "hit": false,
      "t": 95976.5625000001,
      "d": 406.25,
      "v": 102
    },
    {
      "midi": 64,
      "hit": false,
      "t": 95976.5625000001,
      "d": 406.25,
      "v": 90
    },
    {
      "midi": 57,
      "hit": false,
      "t": 96088.5416666669,
      "d": 31.25,
      "v": 60
    },
    {
      "midi": 57,
      "hit": false,
      "t": 96216.14583333358,
      "d": 28.645833333328483,
      "v": 66
    },
    {
      "midi": 45,
      "hit": false,
      "t": 96341.14583333358,
      "d": 39.0625,
      "v": 96
    },
    {
      "midi": 57,
      "hit": false,
      "t": 96341.14583333358,
      "d": 49.47916666667152,
      "v": 127
    },
    {
      "midi": 57,
      "hit": false,
      "t": 96466.14583333358,
      "d": 18.229166666671517,
      "v": 63
    },
    {
      "midi": 57,
      "hit": false,
      "t": 96591.14583333358,
      "d": 28.645833333328483,
      "v": 53
    },
    {
      "midi": 33,
      "hit": false,
      "t": 96716.14583333334,
      "d": 39.0625,
      "v": 96
    },
    {
      "midi": 45,
      "hit": false,
      "t": 96718.75000000023,
      "d": 36.45833333332848,
      "v": 96
    },
    {
      "midi": 57,
      "hit": false,
      "t": 96718.75000000023,
      "d": 46.875,
      "v": 127
    },
    {
      "midi": 57,
      "hit": false,
      "t": 96838.5416666669,
      "d": 10.416666666671517,
      "v": 30
    },
    {
      "midi": 62,
      "hit": false,
      "t": 96903.64583333353,
      "d": 7.8125,
      "v": 96
    },
    {
      "midi": 66,
      "hit": false,
      "t": 96903.64583333353,
      "d": 7.8125,
      "v": 96
    },
    {
      "midi": 69,
      "hit": false,
      "t": 96903.64583333353,
      "d": 10.416666666671517,
      "v": 96
    },
    {
      "midi": 62,
      "hit": false,
      "t": 96914.0625000002,
      "d": 7.8125,
      "v": 96
    },
    {
      "midi": 66,
      "hit": false,
      "t": 96914.0625000002,
      "d": 7.8125,
      "v": 96
    },
    {
      "midi": 69,
      "hit": false,
      "t": 96914.0625000002,
      "d": 10.416666666671517,
      "v": 96
    },
    {
      "midi": 60,
      "hit": false,
      "t": 96916.66666666688,
      "d": 7.8125,
      "v": 96
    },
    {
      "midi": 64,
      "hit": false,
      "t": 96924.47916666688,
      "d": 958.333333333343,
      "v": 96
    },
    {
      "midi": 66,
      "hit": false,
      "t": 96924.47916666688,
      "d": 958.333333333343,
      "v": 96
    },
    {
      "midi": 69,
      "hit": false,
      "t": 96924.47916666688,
      "d": 958.333333333343,
      "v": 96
    },
    {
      "midi": 60,
      "hit": false,
      "t": 96927.08333333355,
      "d": 955.7291666666715,
      "v": 96
    },
    {
      "midi": 38,
      "hit": false,
      "t": 96966.14583333334,
      "d": 914.0625,
      "v": 96
    },
    {
      "midi": 57,
      "hit": false,
      "t": 96966.14583333358,
      "d": 28.645833333328483,
      "v": 44
    },
    {
      "midi": 50,
      "hit": false,
      "t": 97091.14583333358,
      "d": 39.0625,
      "v": 96
    },
    {
      "midi": 57,
      "hit": false,
      "t": 97091.14583333358,
      "d": 49.47916666667152,
      "v": 127
    },
    {
      "midi": 57,
      "hit": false,
      "t": 97216.14583333358,
      "d": 28.645833333328483,
      "v": 53
    },
    {
      "midi": 57,
      "hit": false,
      "t": 97341.14583333358,
      "d": 28.645833333328483,
      "v": 44
    },
    {
      "midi": 50,
      "hit": false,
      "t": 97466.14583333358,
      "d": 49.47916666667152,
      "v": 96
    },
    {
      "midi": 57,
      "hit": false,
      "t": 97466.14583333358,
      "d": 59.895833333343035,
      "v": 127
    },
    {
      "midi": 57,
      "hit": false,
      "t": 97591.14583333359,
      "d": 39.0625,
      "v": 43
    },
    {
      "midi": 54,
      "hit": false,
      "t": 97716.14583333359,
      "d": 70.3125,
      "v": 87
    },
    {
      "midi": 66,
      "hit": false,
      "t": 97718.7500000001,
      "d": 161.45833333332848,
      "v": 90
    },
    {
      "midi": 64,
      "hit": false,
      "t": 97841.14583333343,
      "d": 39.0625,
      "v": 90
    },
    {
      "midi": 54,
      "hit": false,
      "t": 97841.14583333359,
      "d": 7.8125,
      "v": 38
    },
    {
      "midi": 60,
      "hit": false,
      "t": 97882.81250000022,
      "d": 28.645833333343035,
      "v": 96
    },
    {
      "midi": 65,
      "hit": false,
      "t": 97885.41666666689,
      "d": 26.041666666671517,
      "v": 96
    },
    {
      "midi": 69,
      "hit": false,
      "t": 97885.41666666689,
      "d": 26.041666666671517,
      "v": 96
    },
    {
      "midi": 62,
      "hit": false,
      "t": 97914.06250000023,
      "d": 18.229166666671517,
      "v": 96
    },
    {
      "midi": 65,
      "hit": false,
      "t": 97914.06250000023,
      "d": 18.229166666671517,
      "v": 96
    },
    {
      "midi": 70,
      "hit": false,
      "t": 97914.06250000023,
      "d": 18.229166666671517,
      "v": 96
    },
    {
      "midi": 62,
      "hit": false,
      "t": 97934.89583333358,
      "d": 18.229166666671517,
      "v": 96
    },
    {
      "midi": 65,
      "hit": false,
      "t": 97934.89583333358,
      "d": 18.229166666671517,
      "v": 96
    },
    {
      "midi": 70,
      "hit": false,
      "t": 97934.89583333358,
      "d": 20.833333333343035,
      "v": 96
    },
    {
      "midi": 62,
      "hit": false,
      "t": 97955.72916666692,
      "d": 1945.3125,
      "v": 96
    },
    {
      "midi": 65,
      "hit": false,
      "t": 97955.72916666692,
      "d": 1945.3125,
      "v": 96
    },
    {
      "midi": 69,
      "hit": false,
      "t": 97955.72916666692,
      "d": 1945.3125,
      "v": 96
    },
    {
      "midi": 34,
      "hit": false,
      "t": 97968.75000000001,
      "d": 473.9583333333285,
      "v": 96
    },
    {
      "midi": 46,
      "hit": false,
      "t": 97971.35416666692,
      "d": 54.6875,
      "v": 96
    },
    {
      "midi": 57,
      "hit": false,
      "t": 97973.95833333359,
      "d": 62.5,
      "v": 127
    },
    {
      "midi": 53,
      "hit": false,
      "t": 97976.5625000001,
      "d": 403.64583333334303,
      "v": 102
    },
    {
      "midi": 62,
      "hit": false,
      "t": 97976.5625000001,
      "d": 403.64583333334303,
      "v": 99
    },
    {
      "midi": 65,
      "hit": false,
      "t": 97976.5625000001,
      "d": 403.64583333334303,
      "v": 90
    },
    {
      "midi": 69,
      "hit": false,
      "t": 97976.5625000001,
      "d": 403.64583333334303,
      "v": 101
    },
    {
      "midi": 57,
      "hit": false,
      "t": 98088.54166666692,
      "d": 20.833333333328483,
      "v": 31
    },
    {
      "midi": 57,
      "hit": false,
      "t": 98213.54166666692,
      "d": 31.25,
      "v": 57
    },
    {
      "midi": 46,
      "hit": false,
      "t": 98341.14583333359,
      "d": 49.47916666667152,
      "v": 96
    },
    {
      "midi": 57,
      "hit": false,
      "t": 98341.14583333359,
      "d": 59.895833333343035,
      "v": 127
    },
    {
      "midi": 57,
      "hit": false,
      "t": 98466.1458333336,
      "d": 39.0625,
      "v": 31
    },
    {
      "midi": 57,
      "hit": false,
      "t": 98591.1458333336,
      "d": 39.0625,
      "v": 66
    },
    {
      "midi": 34,
      "hit": false,
      "t": 98716.14583333334,
      "d": 39.0625,
      "v": 96
    },
    {
      "midi": 46,
      "hit": false,
      "t": 98716.1458333336,
      "d": 49.47916666667152,
      "v": 96
    },
    {
      "midi": 57,
      "hit": false,
      "t": 98718.75000000028,
      "d": 46.875,
      "v": 127
    },
    {
      "midi": 57,
      "hit": false,
      "t": 98838.54166666695,
      "d": 31.25,
      "v": 65
    },
    {
      "midi": 34,
      "hit": false,
      "t": 98966.14583333334,
      "d": 539.0625,
      "v": 96
    },
    {
      "midi": 57,
      "hit": false,
      "t": 98966.14583333362,
      "d": 18.229166666671517,
      "v": 52
    },
    {
      "midi": 46,
      "hit": false,
      "t": 99091.14583333362,
      "d": 49.47916666667152,
      "v": 96
    },
    {
      "midi": 57,
      "hit": false,
      "t": 99091.14583333362,
      "d": 59.895833333343035,
      "v": 127
    },
    {
      "midi": 57,
      "hit": false,
      "t": 99216.14583333363,
      "d": 18.229166666671517,
      "v": 31
    },
    {
      "midi": 57,
      "hit": false,
      "t": 99341.14583333363,
      "d": 28.645833333328483,
      "v": 62
    },
    {
      "midi": 46,
      "hit": false,
      "t": 99466.14583333363,
      "d": 59.895833333343035,
      "v": 96
    },
    {
      "midi": 57,
      "hit": false,
      "t": 99468.7500000003,
      "d": 57.29166666667152,
      "v": 127
    },
    {
      "midi": 34,
      "hit": false,
      "t": 99591.14583333334,
      "d": 7.8125,
      "v": 96
    },
    {
      "midi": 53,
      "hit": false,
      "t": 99591.14583333365,
      "d": 80.72916666667152,
      "v": 92
    },
    {
      "midi": 29,
      "hit": false,
      "t": 99716.14583333334,
      "d": 184.89583333332848,
      "v": 96
    },
    {
      "midi": 53,
      "hit": false,
      "t": 99716.14583333365,
      "d": 49.47916666667152,
      "v": 36
    },
    {
      "midi": 46,
      "hit": false,
      "t": 99838.54166666699,
      "d": 52.08333333332848,
      "v": 36
    },
    {
      "midi": 33,
      "hit": false,
      "t": 99968.75,
      "d": 473.9583333333285,
      "v": 96
    },
    {
      "midi": 45,
      "hit": false,
      "t": 99971.35416666699,
      "d": 44.27083333332848,
      "v": 96
    },
    {
      "midi": 57,
      "hit": false,
      "t": 99971.35416666699,
      "d": 44.27083333332848,
      "v": 127
    },
    {
      "midi": 64,
      "hit": false,
      "t": 99973.95833333344,
      "d": 406.25,
      "v": 99
    },
    {
      "midi": 69,
      "hit": false,
      "t": 99973.95833333344,
      "d": 406.25,
      "v": 101
    },
    {
      "midi": 61,
      "hit": false,
      "t": 99973.95833333359,
      "d": 1885.4166666666715,
      "v": 96
    },
    {
      "midi": 64,
      "hit": false,
      "t": 99976.56250000026,
      "d": 1882.8125,
      "v": 96
    },
    {
      "midi": 69,
      "hit": false,
      "t": 99976.56250000026,
      "d": 1882.8125,
      "v": 96
    },
    {
      "midi": 67,
      "hit": false,
      "t": 99979.16666666677,
      "d": 401.0416666666715,
      "v": 90
    },
    {
      "midi": 73,
      "hit": false,
      "t": 99979.16666666677,
      "d": 401.0416666666715,
      "v": 102
    },
    {
      "midi": 67,
      "hit": false,
      "t": 99979.16666666693,
      "d": 1880.2083333333285,
      "v": 96
    },
    {
      "midi": 57,
      "hit": false,
      "t": 100088.54166666699,
      "d": 31.25,
      "v": 60
    },
    {
      "midi": 57,
      "hit": false,
      "t": 100213.54166666699,
      "d": 31.25,
      "v": 66
    },
    {
      "midi": 45,
      "hit": false,
      "t": 100341.14583333366,
      "d": 39.0625,
      "v": 96
    },
    {
      "midi": 57,
      "hit": false,
      "t": 100341.14583333366,
      "d": 49.47916666667152,
      "v": 127
    },
    {
      "midi": 57,
      "hit": false,
      "t": 100466.14583333366,
      "d": 18.229166666671517,
      "v": 63
    },
    {
      "midi": 57,
      "hit": false,
      "t": 100588.541666667,
      "d": 31.25,
      "v": 53
    },
    {
      "midi": 33,
      "hit": false,
      "t": 100716.14583333333,
      "d": 39.0625,
      "v": 96
    },
    {
      "midi": 45,
      "hit": false,
      "t": 100716.14583333368,
      "d": 39.0625,
      "v": 96
    },
    {
      "midi": 57,
      "hit": false,
      "t": 100716.14583333368,
      "d": 49.47916666667152,
      "v": 127
    },
    {
      "midi": 57,
      "hit": false,
      "t": 100838.54166666702,
      "d": 10.416666666671517,
      "v": 30
    },
    {
      "midi": 61,
      "hit": false,
      "t": 100942.70833333344,
      "d": 416.6666666666715,
      "v": 101
    },
    {
      "midi": 64,
      "hit": false,
      "t": 100942.70833333344,
      "d": 416.6666666666715,
      "v": 101
    },
    {
      "midi": 33,
      "hit": false,
      "t": 100966.14583333333,
      "d": 893.2291666666715,
      "v": 96
    },
    {
      "midi": 57,
      "hit": false,
      "t": 100966.14583333369,
      "d": 28.645833333328483,
      "v": 44
    },
    {
      "midi": 79,
      "hit": false,
      "t": 100968.75000000012,
      "d": 411.4583333333285,
      "v": 101
    },
    {
      "midi": 81,
      "hit": false,
      "t": 100984.37500000012,
      "d": 416.66666666665697,
      "v": 101
    },
    {
      "midi": 45,
      "hit": false,
      "t": 101088.54166666702,
      "d": 41.66666666667152,
      "v": 96
    },
    {
      "midi": 57,
      "hit": false,
      "t": 101091.14583333369,
      "d": 49.47916666667152,
      "v": 127
    },
    {
      "midi": 57,
      "hit": false,
      "t": 101216.14583333369,
      "d": 28.645833333328483,
      "v": 53
    },
    {
      "midi": 57,
      "hit": false,
      "t": 101338.54166666702,
      "d": 31.25,
      "v": 44
    },
    {
      "midi": 45,
      "hit": false,
      "t": 101466.14583333369,
      "d": 49.47916666667152,
      "v": 96
    },
    {
      "midi": 57,
      "hit": false,
      "t": 101466.14583333369,
      "d": 59.895833333343035,
      "v": 127
    },
    {
      "midi": 57,
      "hit": false,
      "t": 101591.1458333337,
      "d": 39.0625,
      "v": 43
    },
    {
      "midi": 52,
      "hit": false,
      "t": 101716.1458333337,
      "d": 28.645833333328483,
      "v": 81
    },
    {
      "midi": 52,
      "hit": false,
      "t": 101838.54166666704,
      "d": 10.416666666671517,
      "v": 35
    },
    {
      "midi": 60,
      "hit": false,
      "t": 101861.97916666693,
      "d": 28.645833333328483,
      "v": 96
    },
    {
      "midi": 65,
      "hit": false,
      "t": 101861.97916666693,
      "d": 28.645833333328483,
      "v": 96
    },
    {
      "midi": 69,
      "hit": false,
      "t": 101861.97916666693,
      "d": 28.645833333328483,
      "v": 96
    },
    {
      "midi": 60,
      "hit": false,
      "t": 101890.62500000026,
      "d": 2091.145833333343,
      "v": 96
    },
    {
      "midi": 65,
      "hit": false,
      "t": 101893.22916666693,
      "d": 2088.5416666666715,
      "v": 96
    },
    {
      "midi": 69,
      "hit": false,
      "t": 101893.22916666693,
      "d": 2088.5416666666715,
      "v": 96
    },
    {
      "midi": 29,
      "hit": false,
      "t": 101968.75,
      "d": 473.9583333333285,
      "v": 96
    },
    {
      "midi": 53,
      "hit": false,
      "t": 101971.35416666677,
      "d": 408.85416666668607,
      "v": 102
    },
    {
      "midi": 60,
      "hit": false,
      "t": 101971.35416666677,
      "d": 408.85416666668607,
      "v": 99
    },
    {
      "midi": 41,
      "hit": false,
      "t": 101971.35416666704,
      "d": 54.6875,
      "v": 96
    },
    {
      "midi": 57,
      "hit": false,
      "t": 101971.35416666704,
      "d": 65.10416666667152,
      "v": 127
    },
    {
      "midi": 69,
      "hit": false,
      "t": 101973.95833333344,
      "d": 406.25000000001455,
      "v": 101
    },
    {
      "midi": 77,
      "hit": false,
      "t": 101973.95833333344,
      "d": 406.25000000001455,
      "v": 90
    },
    {
      "midi": 57,
      "hit": false,
      "t": 102088.54166666704,
      "d": 20.833333333328483,
      "v": 31
    },
    {
      "midi": 57,
      "hit": false,
      "t": 102213.54166666704,
      "d": 31.25,
      "v": 57
    },
    {
      "midi": 41,
      "hit": false,
      "t": 102341.1458333337,
      "d": 49.47916666667152,
      "v": 96
    },
    {
      "midi": 57,
      "hit": false,
      "t": 102341.1458333337,
      "d": 59.895833333343035,
      "v": 127
    },
    {
      "midi": 57,
      "hit": false,
      "t": 102466.14583333372,
      "d": 39.0625,
      "v": 31
    },
    {
      "midi": 57,
      "hit": false,
      "t": 102588.54166666705,
      "d": 41.66666666667152,
      "v": 66
    },
    {
      "midi": 29,
      "hit": false,
      "t": 102716.14583333333,
      "d": 39.0625,
      "v": 96
    },
    {
      "midi": 41,
      "hit": false,
      "t": 102716.14583333372,
      "d": 49.47916666667152,
      "v": 96
    },
    {
      "midi": 57,
      "hit": false,
      "t": 102716.14583333372,
      "d": 49.47916666667152,
      "v": 127
    },
    {
      "midi": 57,
      "hit": false,
      "t": 102838.54166666706,
      "d": 31.25,
      "v": 65
    },
    {
      "midi": 29,
      "hit": false,
      "t": 102963.54166666666,
      "d": 916.6666666666715,
      "v": 96
    },
    {
      "midi": 57,
      "hit": false,
      "t": 102966.14583333374,
      "d": 18.229166666671517,
      "v": 52
    },
    {
      "midi": 41,
      "hit": false,
      "t": 103088.54166666708,
      "d": 52.083333333343035,
      "v": 96
    },
    {
      "midi": 57,
      "hit": false,
      "t": 103091.14583333375,
      "d": 59.895833333343035,
      "v": 127
    },
    {
      "midi": 57,
      "hit": false,
      "t": 103213.5416666671,
      "d": 20.833333333328483,
      "v": 31
    },
    {
      "midi": 57,
      "hit": false,
      "t": 103338.5416666671,
      "d": 31.25,
      "v": 62
    },
    {
      "midi": 65,
      "hit": false,
      "t": 103341.14583333346,
      "d": 414.0625,
      "v": 90
    },
    {
      "midi": 41,
      "hit": false,
      "t": 103463.5416666671,
      "d": 59.895833333343035,
      "v": 96
    },
    {
      "midi": 57,
      "hit": false,
      "t": 103466.14583333377,
      "d": 59.895833333343035,
      "v": 127
    },
    {
      "midi": 69,
      "hit": false,
      "t": 103591.14583333346,
      "d": 289.0625,
      "v": 90
    },
    {
      "midi": 57,
      "hit": false,
      "t": 103591.14583333378,
      "d": 18.229166666671517,
      "v": 69
    },
    {
      "midi": 53,
      "hit": false,
      "t": 103716.14583333378,
      "d": 39.0625,
      "v": 93
    },
    {
      "midi": 53,
      "hit": false,
      "t": 103838.54166666711,
      "d": 10.416666666671517,
      "v": 34
    },
    {
      "midi": 29,
      "hit": false,
      "t": 103968.75,
      "d": 7.8125,
      "v": 96
    },
    {
      "midi": 53,
      "hit": false,
      "t": 103971.35416666679,
      "d": 7.812500000014552,
      "v": 102
    },
    {
      "midi": 41,
      "hit": false,
      "t": 103971.35416666711,
      "d": 7.8125,
      "v": 96
    },
    {
      "midi": 56,
      "hit": false,
      "t": 103971.35416666711,
      "d": 7.8125,
      "v": 127
    },
    {
      "midi": 60,
      "hit": false,
      "t": 103973.95833333346,
      "d": 5.208333333343035,
      "v": 90
    },
    {
      "midi": 68,
      "hit": false,
      "t": 103973.95833333346,
      "d": 5.208333333343035,
      "v": 99
    },
    {
      "midi": 72,
      "hit": false,
      "t": 103973.95833333346,
      "d": 5.208333333343035,
      "v": 101
    },
    {
      "midi": 35,
      "hit": false,
      "t": 103981.77083333333,
      "d": 458.3333333333285,
      "v": 96
    },
    {
      "midi": 62,
      "hit": false,
      "t": 103981.7708333336,
      "d": 1888.020833333343,
      "v": 96
    },
    {
      "midi": 71,
      "hit": false,
      "t": 103984.37500000028,
      "d": 1885.4166666666715,
      "v": 96
    },
    {
      "midi": 66,
      "hit": false,
      "t": 103984.37500000028,
      "d": 1888.020833333343,
      "v": 96
    },
    {
      "midi": 59,
      "hit": false,
      "t": 104088.54166666711,
      "d": 31.25,
      "v": 60
    },
    {
      "midi": 59,
      "hit": false,
      "t": 104213.54166666711,
      "d": 31.25,
      "v": 66
    },
    {
      "midi": 47,
      "hit": false,
      "t": 104338.54166666711,
      "d": 41.66666666667152,
      "v": 96
    },
    {
      "midi": 59,
      "hit": false,
      "t": 104341.14583333378,
      "d": 46.875,
      "v": 127
    },
    {
      "midi": 59,
      "hit": false,
      "t": 104466.14583333378,
      "d": 15.625,
      "v": 63
    },
    {
      "midi": 59,
      "hit": false,
      "t": 104588.54166666711,
      "d": 28.645833333328483,
      "v": 53
    },
    {
      "midi": 35,
      "hit": false,
      "t": 104716.14583333333,
      "d": 36.45833333332848,
      "v": 96
    },
    {
      "midi": 47,
      "hit": false,
      "t": 104716.14583333377,
      "d": 39.0625,
      "v": 96
    },
    {
      "midi": 59,
      "hit": false,
      "t": 104716.14583333377,
      "d": 49.47916666667152,
      "v": 127
    },
    {
      "midi": 59,
      "hit": false,
      "t": 104838.54166666711,
      "d": 10.416666666671517,
      "v": 30
    },
    {
      "midi": 35,
      "hit": false,
      "t": 104963.54166666666,
      "d": 906.25,
      "v": 96
    },
    {
      "midi": 59,
      "hit": false,
      "t": 104963.54166666711,
      "d": 28.645833333328483,
      "v": 44
    },
    {
      "midi": 47,
      "hit": false,
      "t": 105088.54166666711,
      "d": 41.66666666667152,
      "v": 96
    },
    {
      "midi": 59,
      "hit": false,
      "t": 105088.54166666711,
      "d": 49.47916666667152,
      "v": 127
    },
    {
      "midi": 59,
      "hit": false,
      "t": 105213.54166666711,
      "d": 28.645833333328483,
      "v": 53
    },
    {
      "midi": 59,
      "hit": false,
      "t": 105338.54166666711,
      "d": 28.645833333328483,
      "v": 44
    },
    {
      "midi": 47,
      "hit": false,
      "t": 105463.54166666711,
      "d": 49.47916666667152,
      "v": 96
    },
    {
      "midi": 59,
      "hit": false,
      "t": 105466.14583333378,
      "d": 57.29166666667152,
      "v": 127
    },
    {
      "midi": 59,
      "hit": false,
      "t": 105588.54166666712,
      "d": 39.0625,
      "v": 43
    },
    {
      "midi": 62,
      "hit": false,
      "t": 105716.14583333347,
      "d": 153.64583333332848,
      "v": 90
    },
    {
      "midi": 50,
      "hit": false,
      "t": 105718.75000000045,
      "d": 65.10416666667152,
      "v": 87
    },
    {
      "midi": 59,
      "hit": false,
      "t": 105838.5416666668,
      "d": 31.25,
      "v": 90
    },
    {
      "midi": 50,
      "hit": false,
      "t": 105841.1458333338,
      "d": 7.8125,
      "v": 38
    },
    {
      "midi": 62,
      "hit": false,
      "t": 105872.39583333362,
      "d": 18.229166666671517,
      "v": 96
    },
    {
      "midi": 65,
      "hit": false,
      "t": 105872.39583333362,
      "d": 18.229166666671517,
      "v": 96
    },
    {
      "midi": 70,
      "hit": false,
      "t": 105872.39583333362,
      "d": 18.229166666671517,
      "v": 96
    },
    {
      "midi": 62,
      "hit": false,
      "t": 105890.62500000029,
      "d": 2018.2291666666715,
      "v": 96
    },
    {
      "midi": 65,
      "hit": false,
      "t": 105890.62500000029,
      "d": 2020.833333333343,
      "v": 96
    },
    {
      "midi": 70,
      "hit": false,
      "t": 105893.22916666696,
      "d": 2018.2291666666715,
      "v": 96
    },
    {
      "midi": 34,
      "hit": false,
      "t": 105968.74999999999,
      "d": 471.3541666666715,
      "v": 96
    },
    {
      "midi": 46,
      "hit": false,
      "t": 105968.75000000047,
      "d": 54.6875,
      "v": 96
    },
    {
      "midi": 53,
      "hit": false,
      "t": 105971.3541666668,
      "d": 406.25000000001455,
      "v": 102
    },
    {
      "midi": 62,
      "hit": false,
      "t": 105971.3541666668,
      "d": 408.85416666668607,
      "v": 99
    },
    {
      "midi": 58,
      "hit": false,
      "t": 105971.35416666714,
      "d": 62.5,
      "v": 127
    },
    {
      "midi": 65,
      "hit": false,
      "t": 105973.95833333347,
      "d": 406.25000000001455,
      "v": 90
    },
    {
      "midi": 70,
      "hit": false,
      "t": 105973.95833333347,
      "d": 406.25000000001455,
      "v": 101
    },
    {
      "midi": 58,
      "hit": false,
      "t": 106088.54166666714,
      "d": 18.229166666671517,
      "v": 31
    },
    {
      "midi": 58,
      "hit": false,
      "t": 106213.54166666714,
      "d": 28.645833333328483,
      "v": 57
    },
    {
      "midi": 46,
      "hit": false,
      "t": 106338.54166666714,
      "d": 49.47916666667152,
      "v": 96
    },
    {
      "midi": 58,
      "hit": false,
      "t": 106341.14583333381,
      "d": 57.29166666667152,
      "v": 127
    },
    {
      "midi": 58,
      "hit": false,
      "t": 106463.54166666715,
      "d": 39.0625,
      "v": 31
    },
    {
      "midi": 58,
      "hit": false,
      "t": 106588.54166666715,
      "d": 39.0625,
      "v": 66
    },
    {
      "midi": 34,
      "hit": false,
      "t": 106716.14583333333,
      "d": 36.45833333332848,
      "v": 96
    },
    {
      "midi": 46,
      "hit": false,
      "t": 106716.14583333382,
      "d": 46.875,
      "v": 96
    },
    {
      "midi": 58,
      "hit": false,
      "t": 106716.14583333382,
      "d": 46.875,
      "v": 127
    },
    {
      "midi": 58,
      "hit": false,
      "t": 106838.54166666715,
      "d": 7.8125,
      "v": 30
    },
    {
      "midi": 34,
      "hit": false,
      "t": 106963.54166666666,
      "d": 664.0625,
      "v": 96
    },
    {
      "midi": 58,
      "hit": false,
      "t": 106963.54166666715,
      "d": 28.645833333328483,
      "v": 44
    },
    {
      "midi": 46,
      "hit": false,
      "t": 107088.54166666715,
      "d": 39.0625,
      "v": 96
    },
    {
      "midi": 58,
      "hit": false,
      "t": 107088.54166666715,
      "d": 49.47916666667152,
      "v": 127
    },
    {
      "midi": 58,
      "hit": false,
      "t": 107213.54166666682,
      "d": 416.6666666666715,
      "v": 90
    },
    {
      "midi": 58,
      "hit": false,
      "t": 107213.54166666715,
      "d": 28.645833333328483,
      "v": 53
    },
    {
      "midi": 58,
      "hit": false,
      "t": 107338.54166666715,
      "d": 28.645833333328483,
      "v": 44
    },
    {
      "midi": 62,
      "hit": false,
      "t": 107341.14583333349,
      "d": 411.4583333333285,
      "v": 90
    },
    {
      "midi": 46,
      "hit": false,
      "t": 107463.54166666715,
      "d": 49.47916666667152,
      "v": 96
    },
    {
      "midi": 58,
      "hit": false,
      "t": 107466.14583333382,
      "d": 57.29166666667152,
      "v": 127
    },
    {
      "midi": 58,
      "hit": false,
      "t": 107588.54166666717,
      "d": 41.66666666667152,
      "v": 43
    },
    {
      "midi": 70,
      "hit": false,
      "t": 107591.14583333349,
      "d": 164.0625,
      "v": 90
    },
    {
      "midi": 38,
      "hit": false,
      "t": 107713.54166666666,
      "d": 39.0625,
      "v": 96
    },
    {
      "midi": 48,
      "hit": false,
      "t": 107716.14583333384,
      "d": 67.70833333332848,
      "v": 78
    },
    {
      "midi": 29,
      "hit": false,
      "t": 107838.54166666666,
      "d": 39.0625,
      "v": 96
    },
    {
      "midi": 46,
      "hit": false,
      "t": 107838.54166666717,
      "d": 39.0625,
      "v": 64
    },
    {
      "midi": 34,
      "hit": false,
      "t": 107968.74999999999,
      "d": 471.3541666666715,
      "v": 96
    },
    {
      "midi": 55,
      "hit": false,
      "t": 107971.35416666682,
      "d": 406.25,
      "v": 102
    },
    {
      "midi": 46,
      "hit": false,
      "t": 107971.35416666717,
      "d": 41.66666666667152,
      "v": 96
    },
    {
      "midi": 58,
      "hit": false,
      "t": 107971.35416666717,
      "d": 41.66666666667152,
      "v": 127
    },
    {
      "midi": 62,
      "hit": false,
      "t": 107973.95833333349,
      "d": 406.25,
      "v": 90
    },
    {
      "midi": 67,
      "hit": false,
      "t": 107973.95833333349,
      "d": 406.25,
      "v": 99
    },
    {
      "midi": 70,
      "hit": false,
      "t": 107973.95833333349,
      "d": 406.25,
      "v": 101
    },
    {
      "midi": 62,
      "hit": false,
      "t": 107976.5625000003,
      "d": 1872.3958333333285,
      "v": 96
    },
    {
      "midi": 67,
      "hit": false,
      "t": 107976.5625000003,
      "d": 1872.3958333333285,
      "v": 96
    },
    {
      "midi": 70,
      "hit": false,
      "t": 107976.5625000003,
      "d": 1872.3958333333285,
      "v": 96
    },
    {
      "midi": 58,
      "hit": false,
      "t": 108088.54166666717,
      "d": 28.645833333328483,
      "v": 60
    },
    {
      "midi": 58,
      "hit": false,
      "t": 108213.54166666717,
      "d": 28.645833333328483,
      "v": 66
    },
    {
      "midi": 46,
      "hit": false,
      "t": 108338.54166666717,
      "d": 39.0625,
      "v": 96
    },
    {
      "midi": 58,
      "hit": false,
      "t": 108338.54166666717,
      "d": 49.47916666667152,
      "v": 127
    },
    {
      "midi": 58,
      "hit": false,
      "t": 108463.54166666717,
      "d": 18.229166666671517,
      "v": 63
    },
    {
      "midi": 58,
      "hit": false,
      "t": 108588.54166666717,
      "d": 28.645833333328483,
      "v": 53
    },
    {
      "midi": 34,
      "hit": false,
      "t": 108713.54166666666,
      "d": 39.0625,
      "v": 96
    },
    {
      "midi": 46,
      "hit": false,
      "t": 108713.54166666717,
      "d": 39.0625,
      "v": 96
    },
    {
      "midi": 58,
      "hit": false,
      "t": 108716.14583333384,
      "d": 46.875,
      "v": 127
    },
    {
      "midi": 58,
      "hit": false,
      "t": 108838.54166666717,
      "d": 7.8125,
      "v": 30
    },
    {
      "midi": 67,
      "hit": false,
      "t": 108942.70833333349,
      "d": 414.0625,
      "v": 101
    },
    {
      "midi": 34,
      "hit": false,
      "t": 108963.54166666666,
      "d": 882.8125,
      "v": 96
    },
    {
      "midi": 58,
      "hit": false,
      "t": 108963.54166666717,
      "d": 28.645833333328483,
      "v": 44
    },
    {
      "midi": 74,
      "hit": false,
      "t": 108966.14583333349,
      "d": 411.4583333333285,
      "v": 101
    },
    {
      "midi": 82,
      "hit": false,
      "t": 108984.37500000016,
      "d": 414.06249999998545,
      "v": 101
    },
    {
      "midi": 46,
      "hit": false,
      "t": 109088.54166666717,
      "d": 39.0625,
      "v": 96
    },
    {
      "midi": 58,
      "hit": false,
      "t": 109088.54166666717,
      "d": 49.47916666667152,
      "v": 127
    },
    {
      "midi": 58,
      "hit": false,
      "t": 109213.54166666717,
      "d": 28.645833333328483,
      "v": 53
    },
    {
      "midi": 58,
      "hit": false,
      "t": 109338.54166666717,
      "d": 28.645833333328483,
      "v": 44
    },
    {
      "midi": 46,
      "hit": false,
      "t": 109463.54166666717,
      "d": 49.47916666667152,
      "v": 96
    },
    {
      "midi": 58,
      "hit": false,
      "t": 109463.54166666717,
      "d": 59.895833333343035,
      "v": 127
    },
    {
      "midi": 58,
      "hit": false,
      "t": 109588.54166666718,
      "d": 39.0625,
      "v": 43
    },
    {
      "midi": 55,
      "hit": false,
      "t": 109713.54166666718,
      "d": 28.645833333328483,
      "v": 81
    },
    {
      "midi": 55,
      "hit": false,
      "t": 109838.54166666718,
      "d": 7.8125,
      "v": 35
    },
    {
      "midi": 60,
      "hit": false,
      "t": 109848.95833333363,
      "d": 18.229166666671517,
      "v": 96
    },
    {
      "midi": 65,
      "hit": false,
      "t": 109848.95833333363,
      "d": 18.229166666671517,
      "v": 96
    },
    {
      "midi": 69,
      "hit": false,
      "t": 109848.95833333363,
      "d": 20.833333333343035,
      "v": 96
    },
    {
      "midi": 60,
      "hit": false,
      "t": 109869.79166666698,
      "d": 2039.0625,
      "v": 96
    },
    {
      "midi": 65,
      "hit": false,
      "t": 109869.79166666698,
      "d": 2039.0625,
      "v": 96
    },
    {
      "midi": 69,
      "hit": false,
      "t": 109869.79166666698,
      "d": 2039.0625,
      "v": 96
    },
    {
      "midi": 29,
      "hit": false,
      "t": 109968.74999999999,
      "d": 471.3541666666715,
      "v": 96
    },
    {
      "midi": 41,
      "hit": false,
      "t": 109968.75000000051,
      "d": 54.6875,
      "v": 96
    },
    {
      "midi": 57,
      "hit": false,
      "t": 109968.75000000051,
      "d": 65.10416666667152,
      "v": 127
    },
    {
      "midi": 53,
      "hit": false,
      "t": 109971.35416666682,
      "d": 406.25,
      "v": 102
    },
    {
      "midi": 60,
      "hit": false,
      "t": 109971.35416666682,
      "d": 406.25,
      "v": 99
    },
    {
      "midi": 69,
      "hit": false,
      "t": 109971.35416666682,
      "d": 406.25,
      "v": 101
    },
    {
      "midi": 77,
      "hit": false,
      "t": 109971.35416666682,
      "d": 408.8541666666715,
      "v": 90
    },
    {
      "midi": 57,
      "hit": false,
      "t": 110088.54166666718,
      "d": 18.229166666671517,
      "v": 31
    },
    {
      "midi": 57,
      "hit": false,
      "t": 110213.54166666718,
      "d": 28.645833333328483,
      "v": 57
    },
    {
      "midi": 41,
      "hit": false,
      "t": 110338.54166666718,
      "d": 49.47916666667152,
      "v": 96
    },
    {
      "midi": 57,
      "hit": false,
      "t": 110338.54166666718,
      "d": 59.895833333343035,
      "v": 127
    },
    {
      "midi": 57,
      "hit": false,
      "t": 110463.5416666672,
      "d": 39.0625,
      "v": 31
    },
    {
      "midi": 57,
      "hit": false,
      "t": 110588.5416666672,
      "d": 39.0625,
      "v": 66
    },
    {
      "midi": 29,
      "hit": false,
      "t": 110713.54166666666,
      "d": 39.0625,
      "v": 96
    },
    {
      "midi": 41,
      "hit": false,
      "t": 110713.5416666672,
      "d": 49.47916666667152,
      "v": 96
    },
    {
      "midi": 57,
      "hit": false,
      "t": 110716.14583333387,
      "d": 46.875,
      "v": 127
    },
    {
      "midi": 57,
      "hit": false,
      "t": 110838.5416666672,
      "d": 28.645833333328483,
      "v": 65
    },
    {
      "midi": 29,
      "hit": false,
      "t": 110963.54166666666,
      "d": 914.0625,
      "v": 96
    },
    {
      "midi": 57,
      "hit": false,
      "t": 110963.5416666672,
      "d": 18.229166666671517,
      "v": 52
    },
    {
      "midi": 41,
      "hit": false,
      "t": 111088.5416666672,
      "d": 49.47916666667152,
      "v": 96
    },
    {
      "midi": 57,
      "hit": false,
      "t": 111088.5416666672,
      "d": 59.895833333343035,
      "v": 127
    },
    {
      "midi": 57,
      "hit": false,
      "t": 111213.54166666721,
      "d": 18.229166666671517,
      "v": 31
    },
    {
      "midi": 65,
      "hit": false,
      "t": 111338.54166666682,
      "d": 414.0625,
      "v": 90
    },
    {
      "midi": 57,
      "hit": false,
      "t": 111338.54166666721,
      "d": 28.645833333328483,
      "v": 62
    },
    {
      "midi": 41,
      "hit": false,
      "t": 111463.54166666721,
      "d": 59.89583333332848,
      "v": 96
    },
    {
      "midi": 57,
      "hit": false,
      "t": 111463.54166666721,
      "d": 59.89583333332848,
      "v": 127
    },
    {
      "midi": 69,
      "hit": false,
      "t": 111588.54166666682,
      "d": 289.0625,
      "v": 90
    },
    {
      "midi": 57,
      "hit": false,
      "t": 111588.54166666721,
      "d": 18.229166666671517,
      "v": 69
    },
    {
      "midi": 53,
      "hit": false,
      "t": 111713.54166666721,
      "d": 39.0625,
      "v": 93
    },
    {
      "midi": 53,
      "hit": false,
      "t": 111838.54166666721,
      "d": 7.8125,
      "v": 34
    },
    {
      "midi": 60,
      "hit": false,
      "t": 111911.45833333365,
      "d": 18.229166666671517,
      "v": 96
    },
    {
      "midi": 64,
      "hit": false,
      "t": 111911.45833333365,
      "d": 18.229166666671517,
      "v": 96
    },
    {
      "midi": 69,
      "hit": false,
      "t": 111911.45833333365,
      "d": 18.229166666671517,
      "v": 96
    },
    {
      "midi": 60,
      "hit": false,
      "t": 111932.29166666699,
      "d": 18.229166666671517,
      "v": 96
    },
    {
      "midi": 65,
      "hit": false,
      "t": 111932.29166666699,
      "d": 18.229166666671517,
      "v": 96
    },
    {
      "midi": 69,
      "hit": false,
      "t": 111932.29166666699,
      "d": 20.833333333343035,
      "v": 96
    },
    {
      "midi": 60,
      "hit": false,
      "t": 111953.12500000033,
      "d": 976.5625,
      "v": 96
    },
    {
      "midi": 64,
      "hit": false,
      "t": 111953.12500000033,
      "d": 976.5625,
      "v": 96
    },
    {
      "midi": 69,
      "hit": false,
      "t": 111953.12500000033,
      "d": 976.5625,
      "v": 96
    },
    {
      "midi": 33,
      "hit": false,
      "t": 111966.14583333333,
      "d": 473.9583333333285,
      "v": 96
    },
    {
      "midi": 45,
      "hit": false,
      "t": 111968.75000000054,
      "d": 44.27083333332848,
      "v": 96
    },
    {
      "midi": 57,
      "hit": false,
      "t": 111968.75000000054,
      "d": 44.27083333332848,
      "v": 127
    },
    {
      "midi": 69,
      "hit": false,
      "t": 111971.35416666682,
      "d": 406.25,
      "v": 99
    },
    {
      "midi": 72,
      "hit": false,
      "t": 111971.35416666682,
      "d": 406.25,
      "v": 101
    },
    {
      "midi": 45,
      "hit": false,
      "t": 111973.95833333349,
      "d": 403.6458333333285,
      "v": 102
    },
    {
      "midi": 64,
      "hit": false,
      "t": 111973.95833333349,
      "d": 406.25,
      "v": 90
    },
    {
      "midi": 57,
      "hit": false,
      "t": 112085.93750000054,
      "d": 31.25,
      "v": 60
    },
    {
      "midi": 57,
      "hit": false,
      "t": 112213.54166666721,
      "d": 28.645833333328483,
      "v": 66
    },
    {
      "midi": 45,
      "hit": false,
      "t": 112338.54166666721,
      "d": 39.0625,
      "v": 96
    },
    {
      "midi": 57,
      "hit": false,
      "t": 112338.54166666721,
      "d": 49.47916666667152,
      "v": 127
    },
    {
      "midi": 57,
      "hit": false,
      "t": 112463.54166666721,
      "d": 18.229166666671517,
      "v": 63
    },
    {
      "midi": 57,
      "hit": false,
      "t": 112588.54166666721,
      "d": 28.645833333328483,
      "v": 53
    },
    {
      "midi": 33,
      "hit": false,
      "t": 112713.54166666666,
      "d": 39.0625,
      "v": 96
    },
    {
      "midi": 45,
      "hit": false,
      "t": 112713.54166666721,
      "d": 39.0625,
      "v": 96
    },
    {
      "midi": 57,
      "hit": false,
      "t": 112716.14583333388,
      "d": 46.875,
      "v": 127
    },
    {
      "midi": 57,
      "hit": false,
      "t": 112835.93750000055,
      "d": 10.416666666671517,
      "v": 30
    },
    {
      "midi": 60,
      "hit": false,
      "t": 112932.291666667,
      "d": 18.229166666671517,
      "v": 96
    },
    {
      "midi": 64,
      "hit": false,
      "t": 112932.291666667,
      "d": 18.229166666671517,
      "v": 96
    },
    {
      "midi": 68,
      "hit": false,
      "t": 112932.291666667,
      "d": 18.229166666671517,
      "v": 96
    },
    {
      "midi": 60,
      "hit": false,
      "t": 112953.12500000035,
      "d": 1177.0833333333285,
      "v": 96
    },
    {
      "midi": 64,
      "hit": false,
      "t": 112953.12500000035,
      "d": 1177.0833333333285,
      "v": 96
    },
    {
      "midi": 67,
      "hit": false,
      "t": 112953.12500000035,
      "d": 1177.0833333333285,
      "v": 96
    },
    {
      "midi": 69,
      "hit": false,
      "t": 112953.12500000035,
      "d": 1177.0833333333285,
      "v": 96
    },
    {
      "midi": 33,
      "hit": false,
      "t": 112963.54166666666,
      "d": 914.0625,
      "v": 96
    },
    {
      "midi": 57,
      "hit": false,
      "t": 112963.54166666722,
      "d": 28.645833333328483,
      "v": 44
    },
    {
      "midi": 45,
      "hit": false,
      "t": 113088.54166666722,
      "d": 39.0625,
      "v": 96
    },
    {
      "midi": 57,
      "hit": false,
      "t": 113088.54166666722,
      "d": 49.47916666667152,
      "v": 127
    },
    {
      "midi": 57,
      "hit": false,
      "t": 113213.54166666722,
      "d": 28.645833333328483,
      "v": 53
    },
    {
      "midi": 57,
      "hit": false,
      "t": 113338.54166666722,
      "d": 28.645833333328483,
      "v": 44
    },
    {
      "midi": 45,
      "hit": false,
      "t": 113463.54166666722,
      "d": 49.47916666667152,
      "v": 96
    },
    {
      "midi": 57,
      "hit": false,
      "t": 113463.54166666722,
      "d": 59.895833333343035,
      "v": 127
    },
    {
      "midi": 57,
      "hit": false,
      "t": 113588.54166666724,
      "d": 39.0625,
      "v": 43
    },
    {
      "midi": 52,
      "hit": false,
      "t": 113713.54166666724,
      "d": 70.3125,
      "v": 87
    },
    {
      "midi": 64,
      "hit": false,
      "t": 113716.14583333349,
      "d": 161.45833333332848,
      "v": 90
    },
    {
      "midi": 71,
      "hit": false,
      "t": 113838.54166666682,
      "d": 39.0625,
      "v": 90
    },
    {
      "midi": 52,
      "hit": false,
      "t": 113838.54166666724,
      "d": 7.8125,
      "v": 38
    },
    {
      "midi": 33,
      "hit": false,
      "t": 113966.14583333333,
      "d": 161.45833333332848,
      "v": 96
    },
    {
      "midi": 45,
      "hit": false,
      "t": 113968.75000000057,
      "d": 54.6875,
      "v": 96
    },
    {
      "midi": 57,
      "hit": false,
      "t": 113968.75000000057,
      "d": 65.10416666667152,
      "v": 127
    },
    {
      "midi": 64,
      "hit": false,
      "t": 113971.35416666682,
      "d": 156.25,
      "v": 90
    },
    {
      "midi": 69,
      "hit": false,
      "t": 113971.35416666682,
      "d": 156.25,
      "v": 101
    },
    {
      "midi": 60,
      "hit": false,
      "t": 113973.95833333349,
      "d": 153.64583333332848,
      "v": 102
    },
    {
      "midi": 67,
      "hit": false,
      "t": 113973.95833333349,
      "d": 153.64583333332848,
      "v": 99
    },
    {
      "midi": 57,
      "hit": false,
      "t": 114085.93750000057,
      "d": 20.833333333328483,
      "v": 31
    },
    {
      "midi": 34,
      "hit": false,
      "t": 114130.20833333333,
      "d": 28.645833333328483,
      "v": 96
    },
    {
      "midi": 62,
      "hit": false,
      "t": 114132.81250000035,
      "d": 26.041666666671517,
      "v": 96
    },
    {
      "midi": 65,
      "hit": false,
      "t": 114132.81250000035,
      "d": 26.041666666671517,
      "v": 96
    },
    {
      "midi": 70,
      "hit": false,
      "t": 114132.81250000035,
      "d": 26.041666666671517,
      "v": 96
    },
    {
      "midi": 34,
      "hit": false,
      "t": 114161.45833333333,
      "d": 278.6458333333285,
      "v": 96
    },
    {
      "midi": 62,
      "hit": false,
      "t": 114161.45833333369,
      "d": 1726.5625,
      "v": 96
    },
    {
      "midi": 64,
      "hit": false,
      "t": 114161.45833333369,
      "d": 1726.5625,
      "v": 96
    },
    {
      "midi": 69,
      "hit": false,
      "t": 114161.45833333369,
      "d": 1726.5625,
      "v": 96
    },
    {
      "midi": 57,
      "hit": false,
      "t": 114210.93750000057,
      "d": 31.25,
      "v": 57
    },
    {
      "midi": 46,
      "hit": false,
      "t": 114338.54166666724,
      "d": 49.47916666667152,
      "v": 96
    },
    {
      "midi": 57,
      "hit": false,
      "t": 114338.54166666724,
      "d": 59.895833333343035,
      "v": 127
    },
    {
      "midi": 57,
      "hit": false,
      "t": 114463.54166666725,
      "d": 39.0625,
      "v": 31
    },
    {
      "midi": 57,
      "hit": false,
      "t": 114588.54166666725,
      "d": 39.0625,
      "v": 66
    },
    {
      "midi": 34,
      "hit": false,
      "t": 114713.54166666666,
      "d": 39.0625,
      "v": 96
    },
    {
      "midi": 46,
      "hit": false,
      "t": 114713.54166666725,
      "d": 49.47916666667152,
      "v": 96
    },
    {
      "midi": 57,
      "hit": false,
      "t": 114713.54166666725,
      "d": 49.47916666667152,
      "v": 127
    },
    {
      "midi": 57,
      "hit": false,
      "t": 114835.9375000006,
      "d": 31.25,
      "v": 65
    },
    {
      "midi": 34,
      "hit": false,
      "t": 114963.54166666666,
      "d": 539.0625,
      "v": 96
    },
    {
      "midi": 57,
      "hit": false,
      "t": 114963.54166666727,
      "d": 18.229166666671517,
      "v": 52
    },
    {
      "midi": 46,
      "hit": false,
      "t": 115088.54166666727,
      "d": 49.47916666667152,
      "v": 96
    },
    {
      "midi": 57,
      "hit": false,
      "t": 115088.54166666727,
      "d": 59.895833333343035,
      "v": 127
    },
    {
      "midi": 57,
      "hit": false,
      "t": 115213.54166666728,
      "d": 18.229166666671517,
      "v": 31
    },
    {
      "midi": 57,
      "hit": false,
      "t": 115338.54166666728,
      "d": 28.645833333328483,
      "v": 62
    },
    {
      "midi": 46,
      "hit": false,
      "t": 115463.54166666728,
      "d": 59.89583333332848,
      "v": 96
    },
    {
      "midi": 57,
      "hit": false,
      "t": 115463.54166666728,
      "d": 59.89583333332848,
      "v": 127
    },
    {
      "midi": 34,
      "hit": false,
      "t": 115588.54166666666,
      "d": 7.8125,
      "v": 96
    },
    {
      "midi": 52,
      "hit": false,
      "t": 115588.54166666728,
      "d": 80.72916666667152,
      "v": 92
    },
    {
      "midi": 28,
      "hit": false,
      "t": 115713.54166666666,
      "d": 174.47916666667152,
      "v": 96
    },
    {
      "midi": 52,
      "hit": false,
      "t": 115713.54166666728,
      "d": 49.47916666667152,
      "v": 36
    },
    {
      "midi": 46,
      "hit": false,
      "t": 115835.93750000063,
      "d": 52.08333333332848,
      "v": 36
    },
    {
      "midi": 33,
      "hit": false,
      "t": 115966.14583333333,
      "d": 473.9583333333285,
      "v": 96
    },
    {
      "midi": 45,
      "hit": false,
      "t": 115968.75000000063,
      "d": 44.27083333332848,
      "v": 96
    },
    {
      "midi": 57,
      "hit": false,
      "t": 115968.75000000063,
      "d": 44.27083333332848,
      "v": 127
    },
    {
      "midi": 64,
      "hit": false,
      "t": 115971.35416666682,
      "d": 406.25000000001455,
      "v": 99
    },
    {
      "midi": 69,
      "hit": false,
      "t": 115971.35416666682,
      "d": 406.25000000001455,
      "v": 101
    },
    {
      "midi": 61,
      "hit": false,
      "t": 115971.35416666702,
      "d": 1875.0000000000146,
      "v": 96
    },
    {
      "midi": 67,
      "hit": false,
      "t": 115973.95833333349,
      "d": 403.64583333334303,
      "v": 90
    },
    {
      "midi": 64,
      "hit": false,
      "t": 115973.95833333369,
      "d": 1872.395833333343,
      "v": 96
    },
    {
      "midi": 69,
      "hit": false,
      "t": 115973.95833333369,
      "d": 1872.395833333343,
      "v": 96
    },
    {
      "midi": 73,
      "hit": false,
      "t": 115976.56250000016,
      "d": 401.0416666666715,
      "v": 102
    },
    {
      "midi": 67,
      "hit": false,
      "t": 115976.56250000036,
      "d": 1869.7916666666715,
      "v": 96
    },
    {
      "midi": 57,
      "hit": false,
      "t": 116085.93750000063,
      "d": 31.25,
      "v": 60
    },
    {
      "midi": 57,
      "hit": false,
      "t": 116210.93750000063,
      "d": 31.25,
      "v": 66
    },
    {
      "midi": 45,
      "hit": false,
      "t": 116335.93750000063,
      "d": 41.66666666667152,
      "v": 96
    },
    {
      "midi": 57,
      "hit": false,
      "t": 116338.5416666673,
      "d": 49.47916666667152,
      "v": 127
    },
    {
      "midi": 57,
      "hit": false,
      "t": 116463.5416666673,
      "d": 18.229166666671517,
      "v": 63
    },
    {
      "midi": 57,
      "hit": false,
      "t": 116585.93750000064,
      "d": 31.25,
      "v": 53
    },
    {
      "midi": 33,
      "hit": false,
      "t": 116713.54166666666,
      "d": 39.0625,
      "v": 96
    },
    {
      "midi": 45,
      "hit": false,
      "t": 116713.54166666731,
      "d": 39.0625,
      "v": 96
    },
    {
      "midi": 57,
      "hit": false,
      "t": 116713.54166666731,
      "d": 49.47916666667152,
      "v": 127
    },
    {
      "midi": 57,
      "hit": false,
      "t": 116835.93750000065,
      "d": 10.416666666671517,
      "v": 30
    },
    {
      "midi": 64,
      "hit": false,
      "t": 116940.10416666683,
      "d": 414.0625,
      "v": 101
    },
    {
      "midi": 61,
      "hit": false,
      "t": 116940.10416666683,
      "d": 416.6666666666715,
      "v": 101
    },
    {
      "midi": 33,
      "hit": false,
      "t": 116963.54166666666,
      "d": 882.8125,
      "v": 96
    },
    {
      "midi": 57,
      "hit": false,
      "t": 116963.54166666733,
      "d": 28.645833333328483,
      "v": 44
    },
    {
      "midi": 79,
      "hit": false,
      "t": 116966.1458333335,
      "d": 411.4583333333285,
      "v": 101
    },
    {
      "midi": 81,
      "hit": false,
      "t": 116981.7708333335,
      "d": 416.66666666665697,
      "v": 101
    },
    {
      "midi": 45,
      "hit": false,
      "t": 117085.93750000065,
      "d": 41.66666666667152,
      "v": 96
    },
    {
      "midi": 57,
      "hit": false,
      "t": 117088.54166666733,
      "d": 49.47916666667152,
      "v": 127
    },
    {
      "midi": 57,
      "hit": false,
      "t": 117210.93750000067,
      "d": 31.25,
      "v": 53
    },
    {
      "midi": 57,
      "hit": false,
      "t": 117335.93750000067,
      "d": 31.25,
      "v": 44
    },
    {
      "midi": 45,
      "hit": false,
      "t": 117460.93750000067,
      "d": 52.083333333343035,
      "v": 96
    },
    {
      "midi": 57,
      "hit": false,
      "t": 117463.54166666734,
      "d": 57.29166666667152,
      "v": 127
    },
    {
      "midi": 57,
      "hit": false,
      "t": 117585.93750000068,
      "d": 41.66666666667152,
      "v": 43
    },
    {
      "midi": 52,
      "hit": false,
      "t": 117713.54166666736,
      "d": 26.041666666671517,
      "v": 81
    },
    {
      "midi": 52,
      "hit": false,
      "t": 117835.9375000007,
      "d": 10.416666666671517,
      "v": 35
    },
    {
      "midi": 60,
      "hit": false,
      "t": 117848.9583333337,
      "d": 18.229166666671517,
      "v": 96
    },
    {
      "midi": 64,
      "hit": false,
      "t": 117848.9583333337,
      "d": 18.229166666671517,
      "v": 96
    },
    {
      "midi": 67,
      "hit": false,
      "t": 117848.9583333337,
      "d": 18.229166666671517,
      "v": 96
    },
    {
      "midi": 60,
      "hit": false,
      "t": 117867.18750000038,
      "d": 31.25,
      "v": 96
    },
    {
      "midi": 65,
      "hit": false,
      "t": 117867.18750000038,
      "d": 31.25,
      "v": 96
    },
    {
      "midi": 69,
      "hit": false,
      "t": 117869.79166666705,
      "d": 28.645833333328483,
      "v": 96
    },
    {
      "midi": 60,
      "hit": false,
      "t": 117898.43750000038,
      "d": 2010.4166666666715,
      "v": 96
    },
    {
      "midi": 65,
      "hit": false,
      "t": 117898.43750000038,
      "d": 2010.4166666666715,
      "v": 96
    },
    {
      "midi": 69,
      "hit": false,
      "t": 117901.04166666705,
      "d": 2007.8125,
      "v": 96
    },
    {
      "midi": 29,
      "hit": false,
      "t": 117966.14583333333,
      "d": 471.3541666666715,
      "v": 96
    },
    {
      "midi": 53,
      "hit": false,
      "t": 117968.75000000015,
      "d": 408.85416666668607,
      "v": 102
    },
    {
      "midi": 60,
      "hit": false,
      "t": 117968.75000000015,
      "d": 408.85416666668607,
      "v": 99
    },
    {
      "midi": 41,
      "hit": false,
      "t": 117968.7500000007,
      "d": 52.08333333332848,
      "v": 96
    },
    {
      "midi": 57,
      "hit": false,
      "t": 117968.7500000007,
      "d": 62.5,
      "v": 127
    },
    {
      "midi": 69,
      "hit": false,
      "t": 117971.35416666682,
      "d": 406.25000000001455,
      "v": 101
    },
    {
      "midi": 77,
      "hit": false,
      "t": 117971.35416666682,
      "d": 406.25000000001455,
      "v": 90
    },
    {
      "midi": 57,
      "hit": false,
      "t": 118085.9375000007,
      "d": 18.229166666671517,
      "v": 31
    },
    {
      "midi": 57,
      "hit": false,
      "t": 118210.9375000007,
      "d": 31.25,
      "v": 57
    },
    {
      "midi": 41,
      "hit": false,
      "t": 118335.9375000007,
      "d": 52.083333333343035,
      "v": 96
    },
    {
      "midi": 57,
      "hit": false,
      "t": 118338.54166666737,
      "d": 57.29166666667152,
      "v": 127
    },
    {
      "midi": 57,
      "hit": false,
      "t": 118463.54166666737,
      "d": 39.0625,
      "v": 31
    },
    {
      "midi": 57,
      "hit": false,
      "t": 118585.9375000007,
      "d": 41.66666666667152,
      "v": 66
    },
    {
      "midi": 29,
      "hit": false,
      "t": 118713.54166666667,
      "d": 36.45833333332848,
      "v": 96
    },
    {
      "midi": 41,
      "hit": false,
      "t": 118713.54166666737,
      "d": 49.47916666667152,
      "v": 96
    },
    {
      "midi": 57,
      "hit": false,
      "t": 118713.54166666737,
      "d": 49.47916666667152,
      "v": 127
    },
    {
      "midi": 57,
      "hit": false,
      "t": 118835.93750000071,
      "d": 28.645833333328483,
      "v": 65
    },
    {
      "midi": 29,
      "hit": false,
      "t": 118960.9375,
      "d": 914.0625,
      "v": 96
    },
    {
      "midi": 57,
      "hit": false,
      "t": 118963.54166666737,
      "d": 18.229166666671517,
      "v": 52
    },
    {
      "midi": 41,
      "hit": false,
      "t": 119085.93750000071,
      "d": 49.47916666667152,
      "v": 96
    },
    {
      "midi": 57,
      "hit": false,
      "t": 119085.93750000071,
      "d": 59.895833333343035,
      "v": 127
    },
    {
      "midi": 57,
      "hit": false,
      "t": 119210.93750000073,
      "d": 18.229166666671517,
      "v": 31
    },
    {
      "midi": 57,
      "hit": false,
      "t": 119335.93750000073,
      "d": 28.645833333328483,
      "v": 62
    },
    {
      "midi": 65,
      "hit": false,
      "t": 119338.54166666683,
      "d": 414.0625,
      "v": 90
    },
    {
      "midi": 41,
      "hit": false,
      "t": 119460.93750000073,
      "d": 59.895833333343035,
      "v": 96
    },
    {
      "midi": 57,
      "hit": false,
      "t": 119463.5416666674,
      "d": 59.895833333343035,
      "v": 127
    },
    {
      "midi": 57,
      "hit": false,
      "t": 119585.93750000074,
      "d": 18.229166666671517,
      "v": 69
    },
    {
      "midi": 69,
      "hit": false,
      "t": 119588.54166666683,
      "d": 289.0625,
      "v": 90
    },
    {
      "midi": 53,
      "hit": false,
      "t": 119710.93750000074,
      "d": 39.0625,
      "v": 93
    },
    {
      "midi": 53,
      "hit": false,
      "t": 119835.93750000074,
      "d": 10.416666666671517,
      "v": 34
    },
    {
      "midi": 62,
      "hit": false,
      "t": 119908.85416666705,
      "d": 20.833333333343035,
      "v": 96
    },
    {
      "midi": 66,
      "hit": false,
      "t": 119908.85416666705,
      "d": 20.833333333343035,
      "v": 96
    },
    {
      "midi": 69,
      "hit": false,
      "t": 119911.45833333372,
      "d": 18.229166666671517,
      "v": 96
    },
    {
      "midi": 62,
      "hit": false,
      "t": 119929.6875000004,
      "d": 20.833333333328483,
      "v": 96
    },
    {
      "midi": 65,
      "hit": false,
      "t": 119929.6875000004,
      "d": 20.833333333328483,
      "v": 96
    },
    {
      "midi": 71,
      "hit": false,
      "t": 119929.6875000004,
      "d": 20.833333333328483,
      "v": 96
    },
    {
      "midi": 62,
      "hit": false,
      "t": 119950.52083333372,
      "d": 1927.0833333333285,
      "v": 96
    },
    {
      "midi": 66,
      "hit": false,
      "t": 119950.52083333372,
      "d": 1927.0833333333285,
      "v": 96
    },
    {
      "midi": 71,
      "hit": false,
      "t": 119950.52083333372,
      "d": 1927.0833333333285,
      "v": 96
    },
    {
      "midi": 38,
      "hit": false,
      "t": 119966.14583333333,
      "d": 471.3541666666715,
      "v": 96
    },
    {
      "midi": 50,
      "hit": false,
      "t": 119966.14583333409,
      "d": 44.270833333343035,
      "v": 96
    },
    {
      "midi": 54,
      "hit": false,
      "t": 119968.75000000016,
      "d": 408.85416666668607,
      "v": 102
    },
    {
      "midi": 62,
      "hit": false,
      "t": 119968.75000000016,
      "d": 408.85416666668607,
      "v": 90
    },
    {
      "midi": 71,
      "hit": false,
      "t": 119968.75000000016,
      "d": 408.85416666668607,
      "v": 99
    },
    {
      "midi": 59,
      "hit": false,
      "t": 119968.75000000076,
      "d": 41.66666666667152,
      "v": 127
    },
    {
      "midi": 74,
      "hit": false,
      "t": 119971.35416666683,
      "d": 406.25000000001455,
      "v": 101
    },
    {
      "midi": 59,
      "hit": false,
      "t": 120085.93750000076,
      "d": 28.645833333328483,
      "v": 60
    },
    {
      "midi": 59,
      "hit": false,
      "t": 120210.93750000076,
      "d": 28.645833333328483,
      "v": 66
    },
    {
      "midi": 50,
      "hit": false,
      "t": 120335.93750000076,
      "d": 39.0625,
      "v": 96
    },
    {
      "midi": 59,
      "hit": false,
      "t": 120335.93750000076,
      "d": 49.47916666667152,
      "v": 127
    },
    {
      "midi": 59,
      "hit": false,
      "t": 120460.93750000076,
      "d": 18.229166666671517,
      "v": 63
    },
    {
      "midi": 59,
      "hit": false,
      "t": 120585.93750000076,
      "d": 28.645833333328483,
      "v": 53
    },
    {
      "midi": 38,
      "hit": false,
      "t": 120713.54166666667,
      "d": 36.45833333332848,
      "v": 96
    },
    {
      "midi": 50,
      "hit": false,
      "t": 120713.54166666741,
      "d": 39.0625,
      "v": 96
    },
    {
      "midi": 59,
      "hit": false,
      "t": 120713.54166666741,
      "d": 46.875,
      "v": 127
    },
    {
      "midi": 59,
      "hit": false,
      "t": 120835.93750000074,
      "d": 7.8125,
      "v": 30
    },
    {
      "midi": 38,
      "hit": false,
      "t": 120960.9375,
      "d": 914.0625,
      "v": 96
    },
    {
      "midi": 59,
      "hit": false,
      "t": 120960.93750000074,
      "d": 28.645833333328483,
      "v": 44
    },
    {
      "midi": 50,
      "hit": false,
      "t": 121085.93750000074,
      "d": 39.0625,
      "v": 96
    },
    {
      "midi": 59,
      "hit": false,
      "t": 121085.93750000074,
      "d": 49.47916666667152,
      "v": 127
    },
    {
      "midi": 59,
      "hit": false,
      "t": 121210.93750000074,
      "d": 28.645833333328483,
      "v": 53
    },
    {
      "midi": 59,
      "hit": false,
      "t": 121335.93750000074,
      "d": 28.645833333328483,
      "v": 44
    },
    {
      "midi": 50,
      "hit": false,
      "t": 121460.93750000074,
      "d": 49.47916666667152,
      "v": 96
    },
    {
      "midi": 59,
      "hit": false,
      "t": 121463.54166666741,
      "d": 57.29166666667152,
      "v": 127
    },
    {
      "midi": 59,
      "hit": false,
      "t": 121585.93750000076,
      "d": 39.0625,
      "v": 43
    },
    {
      "midi": 54,
      "hit": false,
      "t": 121710.93750000076,
      "d": 70.3125,
      "v": 87
    },
    {
      "midi": 62,
      "hit": false,
      "t": 121713.54166666685,
      "d": 164.0625,
      "v": 90
    },
    {
      "midi": 59,
      "hit": false,
      "t": 121835.93750000017,
      "d": 41.66666666667152,
      "v": 90
    },
    {
      "midi": 54,
      "hit": false,
      "t": 121835.93750000076,
      "d": 7.8125,
      "v": 38
    },
    {
      "midi": 62,
      "hit": false,
      "t": 121880.20833333372,
      "d": 10.416666666671517,
      "v": 96
    },
    {
      "midi": 65,
      "hit": false,
      "t": 121880.20833333372,
      "d": 10.416666666671517,
      "v": 96
    },
    {
      "midi": 70,
      "hit": false,
      "t": 121880.20833333372,
      "d": 10.416666666671517,
      "v": 96
    },
    {
      "midi": 34,
      "hit": false,
      "t": 121890.625,
      "d": 5.208333333328483,
      "v": 96
    },
    {
      "midi": 62,
      "hit": false,
      "t": 121893.22916666706,
      "d": 15.625,
      "v": 96
    },
    {
      "midi": 65,
      "hit": false,
      "t": 121893.22916666706,
      "d": 15.625,
      "v": 96
    },
    {
      "midi": 70,
      "hit": false,
      "t": 121893.22916666706,
      "d": 15.625,
      "v": 96
    },
    {
      "midi": 62,
      "hit": false,
      "t": 121908.85416666706,
      "d": 18.229166666671517,
      "v": 96
    },
    {
      "midi": 66,
      "hit": false,
      "t": 121908.85416666706,
      "d": 20.833333333343035,
      "v": 96
    },
    {
      "midi": 70,
      "hit": false,
      "t": 121908.85416666706,
      "d": 20.833333333343035,
      "v": 96
    },
    {
      "midi": 62,
      "hit": false,
      "t": 121929.68750000041,
      "d": 1916.6666666667152,
      "v": 96
    },
    {
      "midi": 65,
      "hit": false,
      "t": 121929.68750000041,
      "d": 1916.6666666667152,
      "v": 96
    },
    {
      "midi": 70,
      "hit": false,
      "t": 121929.68750000041,
      "d": 1916.6666666667152,
      "v": 96
    },
    {
      "midi": 34,
      "hit": false,
      "t": 121966.14583333333,
      "d": 471.3541666666715,
      "v": 96
    },
    {
      "midi": 46,
      "hit": false,
      "t": 121966.14583333409,
      "d": 54.6875,
      "v": 96
    },
    {
      "midi": 53,
      "hit": false,
      "t": 121968.75000000017,
      "d": 406.25000000001455,
      "v": 102
    },
    {
      "midi": 62,
      "hit": false,
      "t": 121968.75000000017,
      "d": 406.25000000001455,
      "v": 99
    },
    {
      "midi": 58,
      "hit": false,
      "t": 121968.75000000076,
      "d": 62.5,
      "v": 127
    },
    {
      "midi": 65,
      "hit": false,
      "t": 121971.35416666685,
      "d": 406.25000000001455,
      "v": 90
    },
    {
      "midi": 70,
      "hit": false,
      "t": 121971.35416666685,
      "d": 406.25000000001455,
      "v": 101
    },
    {
      "midi": 58,
      "hit": false,
      "t": 122085.93750000076,
      "d": 18.229166666671517,
      "v": 31
    },
    {
      "midi": 58,
      "hit": false,
      "t": 122210.93750000076,
      "d": 28.645833333328483,
      "v": 57
    },
    {
      "midi": 46,
      "hit": false,
      "t": 122335.93750000076,
      "d": 49.47916666667152,
      "v": 96
    },
    {
      "midi": 58,
      "hit": false,
      "t": 122335.93750000076,
      "d": 59.895833333343035,
      "v": 127
    },
    {
      "midi": 58,
      "hit": false,
      "t": 122460.93750000077,
      "d": 39.0625,
      "v": 31
    },
    {
      "midi": 58,
      "hit": false,
      "t": 122585.93750000077,
      "d": 39.0625,
      "v": 66
    },
    {
      "midi": 34,
      "hit": false,
      "t": 122710.9375,
      "d": 39.0625,
      "v": 96
    },
    {
      "midi": 46,
      "hit": false,
      "t": 122713.54166666744,
      "d": 46.875,
      "v": 96
    },
    {
      "midi": 58,
      "hit": false,
      "t": 122713.54166666744,
      "d": 46.875,
      "v": 127
    },
    {
      "midi": 58,
      "hit": false,
      "t": 122835.93750000077,
      "d": 28.645833333328483,
      "v": 65
    },
    {
      "midi": 65,
      "hit": false,
      "t": 122940.10416666686,
      "d": 414.0625,
      "v": 101
    },
    {
      "midi": 34,
      "hit": false,
      "t": 122963.54166666667,
      "d": 536.4583333333285,
      "v": 96
    },
    {
      "midi": 74,
      "hit": false,
      "t": 122963.54166666686,
      "d": 411.4583333333285,
      "v": 101
    },
    {
      "midi": 82,
      "hit": false,
      "t": 122981.77083333353,
      "d": 414.06249999998545,
      "v": 101
    },
    {
      "midi": 34,
      "hit": false,
      "t": 123585.9375,
      "d": 7.8125,
      "v": 96
    },
    {
      "midi": 29,
      "hit": false,
      "t": 123710.9375,
      "d": 135.41666666667152,
      "v": 96
    },
    {
      "midi": 36,
      "hit": false,
      "t": 123966.14583333334,
      "d": 471.3541666666715,
      "v": 96
    },
    {
      "midi": 48,
      "hit": false,
      "t": 123968.75000000077,
      "d": 41.66666666667152,
      "v": 96
    },
    {
      "midi": 55,
      "hit": false,
      "t": 123968.75000000077,
      "d": 41.66666666667152,
      "v": 127
    },
    {
      "midi": 64,
      "hit": false,
      "t": 123971.35416666686,
      "d": 403.64583333334303,
      "v": 99
    },
    {
      "midi": 67,
      "hit": false,
      "t": 123971.35416666686,
      "d": 403.64583333334303,
      "v": 101
    },
    {
      "midi": 62,
      "hit": false,
      "t": 123971.35416666711,
      "d": 2893.2291666666715,
      "v": 96
    },
    {
      "midi": 64,
      "hit": false,
      "t": 123971.35416666711,
      "d": 2893.2291666666715,
      "v": 96
    },
    {
      "midi": 58,
      "hit": false,
      "t": 123973.95833333353,
      "d": 403.64583333334303,
      "v": 90
    },
    {
      "midi": 74,
      "hit": false,
      "t": 123973.95833333353,
      "d": 403.64583333334303,
      "v": 102
    },
    {
      "midi": 67,
      "hit": false,
      "t": 123973.95833333378,
      "d": 2890.625,
      "v": 96
    },
    {
      "midi": 58,
      "hit": false,
      "t": 123976.56250000045,
      "d": 2890.625,
      "v": 96
    },
    {
      "midi": 55,
      "hit": false,
      "t": 124085.93750000077,
      "d": 28.645833333328483,
      "v": 60
    },
    {
      "midi": 55,
      "hit": false,
      "t": 124210.93750000077,
      "d": 28.645833333328483,
      "v": 66
    },
    {
      "midi": 48,
      "hit": false,
      "t": 124335.93750000077,
      "d": 39.0625,
      "v": 96
    },
    {
      "midi": 55,
      "hit": false,
      "t": 124335.93750000077,
      "d": 49.47916666667152,
      "v": 127
    },
    {
      "midi": 55,
      "hit": false,
      "t": 124460.93750000077,
      "d": 18.229166666671517,
      "v": 63
    },
    {
      "midi": 55,
      "hit": false,
      "t": 124585.93750000077,
      "d": 28.645833333328483,
      "v": 53
    },
    {
      "midi": 36,
      "hit": false,
      "t": 124710.93750000001,
      "d": 39.0625,
      "v": 96
    },
    {
      "midi": 48,
      "hit": false,
      "t": 124710.93750000077,
      "d": 39.0625,
      "v": 96
    },
    {
      "midi": 55,
      "hit": false,
      "t": 124713.54166666744,
      "d": 46.875,
      "v": 127
    },
    {
      "midi": 55,
      "hit": false,
      "t": 124835.93750000077,
      "d": 7.8125,
      "v": 30
    },
    {
      "midi": 62,
      "hit": false,
      "t": 124940.10416666688,
      "d": 414.0625,
      "v": 101
    },
    {
      "midi": 64,
      "hit": false,
      "t": 124940.10416666688,
      "d": 414.0625,
      "v": 101
    },
    {
      "midi": 36,
      "hit": false,
      "t": 124960.93750000001,
      "d": 914.0625,
      "v": 96
    },
    {
      "midi": 55,
      "hit": false,
      "t": 124960.93750000077,
      "d": 28.645833333328483,
      "v": 44
    },
    {
      "midi": 70,
      "hit": false,
      "t": 124963.54166666688,
      "d": 411.4583333333285,
      "v": 101
    },
    {
      "midi": 79,
      "hit": false,
      "t": 124979.16666666688,
      "d": 416.66666666665697,
      "v": 101
    },
    {
      "midi": 48,
      "hit": false,
      "t": 125085.93750000077,
      "d": 39.0625,
      "v": 96
    },
    {
      "midi": 55,
      "hit": false,
      "t": 125085.93750000077,
      "d": 49.47916666667152,
      "v": 127
    },
    {
      "midi": 55,
      "hit": false,
      "t": 125210.93750000077,
      "d": 28.645833333328483,
      "v": 53
    },
    {
      "midi": 55,
      "hit": false,
      "t": 125335.93750000077,
      "d": 28.645833333328483,
      "v": 44
    },
    {
      "midi": 48,
      "hit": false,
      "t": 125460.93750000077,
      "d": 49.47916666667152,
      "v": 96
    },
    {
      "midi": 55,
      "hit": false,
      "t": 125460.93750000077,
      "d": 59.895833333343035,
      "v": 127
    },
    {
      "midi": 55,
      "hit": false,
      "t": 125585.93750000079,
      "d": 39.0625,
      "v": 43
    },
    {
      "midi": 52,
      "hit": false,
      "t": 125710.93750000079,
      "d": 28.645833333328483,
      "v": 81
    },
    {
      "midi": 52,
      "hit": false,
      "t": 125835.93750000079,
      "d": 7.8125,
      "v": 35
    },
    {
      "midi": 36,
      "hit": false,
      "t": 125963.54166666669,
      "d": 473.9583333333285,
      "v": 96
    },
    {
      "midi": 48,
      "hit": false,
      "t": 125966.14583333411,
      "d": 54.6875,
      "v": 96
    },
    {
      "midi": 55,
      "hit": false,
      "t": 125966.14583333411,
      "d": 65.10416666667152,
      "v": 127
    },
    {
      "midi": 58,
      "hit": false,
      "t": 125968.7500000002,
      "d": 406.25,
      "v": 102
    },
    {
      "midi": 67,
      "hit": false,
      "t": 125968.7500000002,
      "d": 406.25,
      "v": 99
    },
    {
      "midi": 76,
      "hit": false,
      "t": 125968.7500000002,
      "d": 406.25,
      "v": 90
    },
    {
      "midi": 74,
      "hit": false,
      "t": 125971.35416666688,
      "d": 403.6458333333285,
      "v": 101
    },
    {
      "midi": 55,
      "hit": false,
      "t": 126083.33333333411,
      "d": 20.833333333328483,
      "v": 31
    },
    {
      "midi": 55,
      "hit": false,
      "t": 126208.33333333411,
      "d": 31.25,
      "v": 57
    },
    {
      "midi": 48,
      "hit": false,
      "t": 126335.93750000079,
      "d": 49.47916666667152,
      "v": 96
    },
    {
      "midi": 55,
      "hit": false,
      "t": 126335.93750000079,
      "d": 59.895833333343035,
      "v": 127
    },
    {
      "midi": 55,
      "hit": false,
      "t": 126460.9375000008,
      "d": 39.0625,
      "v": 31
    },
    {
      "midi": 55,
      "hit": false,
      "t": 126585.9375000008,
      "d": 39.0625,
      "v": 66
    },
    {
      "midi": 36,
      "hit": false,
      "t": 126710.93750000001,
      "d": 39.0625,
      "v": 96
    },
    {
      "midi": 48,
      "hit": false,
      "t": 126710.9375000008,
      "d": 49.47916666667152,
      "v": 96
    },
    {
      "midi": 55,
      "hit": false,
      "t": 126713.54166666747,
      "d": 46.875,
      "v": 127
    },
    {
      "midi": 55,
      "hit": false,
      "t": 126833.33333333414,
      "d": 31.25,
      "v": 65
    },
    {
      "midi": 62,
      "hit": false,
      "t": 126867.18750000045,
      "d": 7.8125,
      "v": 96
    },
    {
      "midi": 65,
      "hit": false,
      "t": 126867.18750000045,
      "d": 7.8125,
      "v": 96
    },
    {
      "midi": 70,
      "hit": false,
      "t": 126867.18750000045,
      "d": 7.8125,
      "v": 96
    },
    {
      "midi": 62,
      "hit": false,
      "t": 126877.60416666712,
      "d": 7.8125,
      "v": 96
    },
    {
      "midi": 65,
      "hit": false,
      "t": 126877.60416666712,
      "d": 7.8125,
      "v": 96
    },
    {
      "midi": 70,
      "hit": false,
      "t": 126877.60416666712,
      "d": 7.8125,
      "v": 96
    },
    {
      "midi": 62,
      "hit": false,
      "t": 126888.0208333338,
      "d": 997.3958333333285,
      "v": 96
    },
    {
      "midi": 65,
      "hit": false,
      "t": 126888.0208333338,
      "d": 997.3958333333285,
      "v": 96
    },
    {
      "midi": 69,
      "hit": false,
      "t": 126888.0208333338,
      "d": 997.3958333333285,
      "v": 96
    },
    {
      "midi": 34,
      "hit": false,
      "t": 126960.93750000001,
      "d": 914.0625,
      "v": 96
    },
    {
      "midi": 57,
      "hit": false,
      "t": 126960.93750000081,
      "d": 18.229166666671517,
      "v": 52
    },
    {
      "midi": 46,
      "hit": false,
      "t": 127085.93750000081,
      "d": 49.47916666667152,
      "v": 96
    },
    {
      "midi": 57,
      "hit": false,
      "t": 127085.93750000081,
      "d": 59.895833333343035,
      "v": 127
    },
    {
      "midi": 57,
      "hit": false,
      "t": 127210.93750000083,
      "d": 18.229166666671517,
      "v": 31
    },
    {
      "midi": 65,
      "hit": false,
      "t": 127335.9375000002,
      "d": 414.0625,
      "v": 90
    },
    {
      "midi": 57,
      "hit": false,
      "t": 127335.93750000083,
      "d": 28.645833333328483,
      "v": 62
    },
    {
      "midi": 46,
      "hit": false,
      "t": 127460.93750000083,
      "d": 59.89583333332848,
      "v": 96
    },
    {
      "midi": 57,
      "hit": false,
      "t": 127460.93750000083,
      "d": 59.89583333332848,
      "v": 127
    },
    {
      "midi": 69,
      "hit": false,
      "t": 127585.9375000002,
      "d": 289.0625,
      "v": 90
    },
    {
      "midi": 57,
      "hit": false,
      "t": 127585.93750000083,
      "d": 18.229166666671517,
      "v": 69
    },
    {
      "midi": 53,
      "hit": false,
      "t": 127710.93750000083,
      "d": 39.0625,
      "v": 93
    },
    {
      "midi": 53,
      "hit": false,
      "t": 127835.93750000083,
      "d": 7.8125,
      "v": 34
    },
    {
      "midi": 60,
      "hit": false,
      "t": 127888.0208333338,
      "d": 18.229166666671517,
      "v": 96
    },
    {
      "midi": 64,
      "hit": false,
      "t": 127888.0208333338,
      "d": 20.833333333343035,
      "v": 96
    },
    {
      "midi": 67,
      "hit": false,
      "t": 127888.0208333338,
      "d": 20.833333333343035,
      "v": 96
    },
    {
      "midi": 61,
      "hit": false,
      "t": 127908.85416666714,
      "d": 18.229166666671517,
      "v": 96
    },
    {
      "midi": 64,
      "hit": false,
      "t": 127908.85416666714,
      "d": 18.229166666671517,
      "v": 96
    },
    {
      "midi": 67,
      "hit": false,
      "t": 127908.85416666714,
      "d": 18.229166666671517,
      "v": 96
    },
    {
      "midi": 58,
      "hit": false,
      "t": 127911.45833333381,
      "d": 15.625,
      "v": 96
    },
    {
      "midi": 58,
      "hit": false,
      "t": 127929.68750000048,
      "d": 72.91666666667152,
      "v": 96
    },
    {
      "midi": 62,
      "hit": false,
      "t": 127929.68750000048,
      "d": 72.91666666667152,
      "v": 96
    },
    {
      "midi": 64,
      "hit": false,
      "t": 127929.68750000048,
      "d": 72.91666666667152,
      "v": 96
    },
    {
      "midi": 67,
      "hit": false,
      "t": 127929.68750000048,
      "d": 72.91666666667152,
      "v": 96
    },
    {
      "midi": 36,
      "hit": false,
      "t": 127963.54166666669,
      "d": 36.45833333332848,
      "v": 96
    },
    {
      "midi": 48,
      "hit": false,
      "t": 127966.14583333417,
      "d": 33.85416666667152,
      "v": 96
    },
    {
      "midi": 55,
      "hit": false,
      "t": 127966.14583333417,
      "d": 33.85416666667152,
      "v": 127
    },
    {
      "midi": 67,
      "hit": false,
      "t": 127968.7500000002,
      "d": 31.25,
      "v": 99
    },
    {
      "midi": 74,
      "hit": false,
      "t": 127968.7500000002,
      "d": 31.25,
      "v": 101
    },
    {
      "midi": 58,
      "hit": false,
      "t": 127971.35416666688,
      "d": 28.645833333328483,
      "v": 102
    },
    {
      "midi": 62,
      "hit": false,
      "t": 127971.35416666688,
      "d": 31.25,
      "v": 102
    },
    {
      "midi": 64,
      "hit": false,
      "t": 127971.35416666688,
      "d": 31.25,
      "v": 90
    },
    {
      "midi": 39,
      "hit": false,
      "t": 128005.20833333334,
      "d": 5.208333333328483,
      "v": 96
    },
    {
      "midi": 63,
      "hit": false,
      "t": 128005.20833333382,
      "d": 5.208333333343035,
      "v": 96
    },
    {
      "midi": 67,
      "hit": false,
      "t": 128005.20833333382,
      "d": 5.208333333343035,
      "v": 96
    },
    {
      "midi": 70,
      "hit": false,
      "t": 128005.20833333382,
      "d": 5.208333333343035,
      "v": 96
    },
    {
      "midi": 61,
      "hit": false,
      "t": 128007.8125000005,
      "d": 2.6041666666715173,
      "v": 96
    },
    {
      "midi": 36,
      "hit": false,
      "t": 128013.02083333334,
      "d": 424.4791666666715,
      "v": 96
    },
    {
      "midi": 58,
      "hit": false,
      "t": 128013.02083333384,
      "d": 893.2291666666715,
      "v": 96
    },
    {
      "midi": 62,
      "hit": false,
      "t": 128013.02083333384,
      "d": 893.2291666666715,
      "v": 96
    },
    {
      "midi": 64,
      "hit": false,
      "t": 128013.02083333384,
      "d": 893.2291666666715,
      "v": 96
    },
    {
      "midi": 67,
      "hit": false,
      "t": 128013.02083333384,
      "d": 893.2291666666715,
      "v": 96
    },
    {
      "midi": 55,
      "hit": false,
      "t": 128083.33333333417,
      "d": 31.25,
      "v": 60
    },
    {
      "midi": 55,
      "hit": false,
      "t": 128208.33333333417,
      "d": 31.25,
      "v": 66
    },
    {
      "midi": 48,
      "hit": false,
      "t": 128335.93750000084,
      "d": 39.0625,
      "v": 96
    },
    {
      "midi": 55,
      "hit": false,
      "t": 128335.93750000084,
      "d": 49.47916666667152,
      "v": 127
    },
    {
      "midi": 55,
      "hit": false,
      "t": 128460.93750000084,
      "d": 18.229166666671517,
      "v": 63
    },
    {
      "midi": 55,
      "hit": false,
      "t": 128585.93750000084,
      "d": 28.645833333328483,
      "v": 53
    },
    {
      "midi": 48,
      "hit": false,
      "t": 128710.93750000084,
      "d": 39.0625,
      "v": 96
    },
    {
      "midi": 55,
      "hit": false,
      "t": 128710.93750000084,
      "d": 49.47916666667152,
      "v": 127
    },
    {
      "midi": 34,
      "hit": false,
      "t": 128713.54166666669,
      "d": 36.45833333332848,
      "v": 96
    },
    {
      "midi": 55,
      "hit": false,
      "t": 128833.33333333419,
      "d": 10.416666666671517,
      "v": 30
    },
    {
      "midi": 61,
      "hit": false,
      "t": 128908.85416666718,
      "d": 28.645833333328483,
      "v": 96
    },
    {
      "midi": 64,
      "hit": false,
      "t": 128908.85416666718,
      "d": 28.645833333328483,
      "v": 96
    },
    {
      "midi": 69,
      "hit": false,
      "t": 128908.85416666718,
      "d": 28.645833333328483,
      "v": 96
    },
    {
      "midi": 61,
      "hit": false,
      "t": 128940.10416666718,
      "d": 937.5,
      "v": 96
    },
    {
      "midi": 64,
      "hit": false,
      "t": 128940.10416666718,
      "d": 937.5,
      "v": 96
    },
    {
      "midi": 69,
      "hit": false,
      "t": 128940.10416666718,
      "d": 937.5,
      "v": 96
    },
    {
      "midi": 33,
      "hit": false,
      "t": 128960.93750000001,
      "d": 914.0625,
      "v": 96
    },
    {
      "midi": 57,
      "hit": false,
      "t": 128960.93750000086,
      "d": 28.645833333328483,
      "v": 44
    },
    {
      "midi": 45,
      "hit": false,
      "t": 129083.33333333419,
      "d": 41.66666666667152,
      "v": 96
    },
    {
      "midi": 57,
      "hit": false,
      "t": 129085.93750000086,
      "d": 49.47916666667152,
      "v": 127
    },
    {
      "midi": 57,
      "hit": false,
      "t": 129208.3333333342,
      "d": 31.25,
      "v": 53
    },
    {
      "midi": 57,
      "hit": false,
      "t": 129335.93750000087,
      "d": 28.645833333328483,
      "v": 44
    },
    {
      "midi": 45,
      "hit": false,
      "t": 129460.93750000087,
      "d": 49.47916666667152,
      "v": 96
    },
    {
      "midi": 57,
      "hit": false,
      "t": 129460.93750000087,
      "d": 59.895833333343035,
      "v": 127
    },
    {
      "midi": 57,
      "hit": false,
      "t": 129585.93750000089,
      "d": 39.0625,
      "v": 43
    },
    {
      "midi": 61,
      "hit": false,
      "t": 129710.9375000002,
      "d": 164.0625,
      "v": 90
    },
    {
      "midi": 52,
      "hit": false,
      "t": 129710.93750000089,
      "d": 70.3125,
      "v": 87
    },
    {
      "midi": 57,
      "hit": false,
      "t": 129835.9375000002,
      "d": 39.0625,
      "v": 90
    },
    {
      "midi": 52,
      "hit": false,
      "t": 129835.93750000089,
      "d": 7.8125,
      "v": 38
    },
    {
      "midi": 59,
      "hit": false,
      "t": 129877.60416666718,
      "d": 18.229166666671517,
      "v": 96
    },
    {
      "midi": 64,
      "hit": false,
      "t": 129877.60416666718,
      "d": 18.229166666671517,
      "v": 96
    },
    {
      "midi": 68,
      "hit": false,
      "t": 129880.20833333385,
      "d": 15.625,
      "v": 96
    },
    {
      "midi": 60,
      "hit": false,
      "t": 129895.83333333385,
      "d": 968.75,
      "v": 96
    },
    {
      "midi": 64,
      "hit": false,
      "t": 129898.43750000052,
      "d": 966.1458333333285,
      "v": 96
    },
    {
      "midi": 67,
      "hit": false,
      "t": 129898.43750000052,
      "d": 966.1458333333285,
      "v": 96
    },
    {
      "midi": 36,
      "hit": false,
      "t": 129963.54166666669,
      "d": 473.9583333333285,
      "v": 96
    },
    {
      "midi": 48,
      "hit": false,
      "t": 129966.14583333422,
      "d": 54.6875,
      "v": 96
    },
    {
      "midi": 55,
      "hit": false,
      "t": 129966.14583333422,
      "d": 65.10416666667152,
      "v": 127
    },
    {
      "midi": 52,
      "hit": false,
      "t": 129968.7500000002,
      "d": 406.25000000001455,
      "v": 102
    },
    {
      "midi": 60,
      "hit": false,
      "t": 129968.7500000002,
      "d": 406.25000000001455,
      "v": 99
    },
    {
      "midi": 64,
      "hit": false,
      "t": 129968.7500000002,
      "d": 406.25000000001455,
      "v": 90
    },
    {
      "midi": 67,
      "hit": false,
      "t": 129968.7500000002,
      "d": 406.25000000001455,
      "v": 101
    },
    {
      "midi": 55,
      "hit": false,
      "t": 130083.33333333422,
      "d": 20.833333333328483,
      "v": 31
    },
    {
      "midi": 55,
      "hit": false,
      "t": 130208.33333333422,
      "d": 31.25,
      "v": 57
    },
    {
      "midi": 48,
      "hit": false,
      "t": 130335.93750000089,
      "d": 49.47916666667152,
      "v": 96
    },
    {
      "midi": 55,
      "hit": false,
      "t": 130335.93750000089,
      "d": 59.895833333343035,
      "v": 127
    },
    {
      "midi": 55,
      "hit": false,
      "t": 130460.9375000009,
      "d": 39.0625,
      "v": 31
    },
    {
      "midi": 55,
      "hit": false,
      "t": 130583.33333333423,
      "d": 41.66666666667152,
      "v": 66
    },
    {
      "midi": 36,
      "hit": false,
      "t": 130710.93750000001,
      "d": 39.0625,
      "v": 96
    },
    {
      "midi": 48,
      "hit": false,
      "t": 130710.9375000009,
      "d": 49.47916666667152,
      "v": 96
    },
    {
      "midi": 55,
      "hit": false,
      "t": 130710.9375000009,
      "d": 49.47916666667152,
      "v": 127
    },
    {
      "midi": 55,
      "hit": false,
      "t": 130833.33333333425,
      "d": 31.25,
      "v": 65
    },
    {
      "midi": 62,
      "hit": false,
      "t": 130867.18750000052,
      "d": 7.8125,
      "v": 96
    },
    {
      "midi": 66,
      "hit": false,
      "t": 130867.18750000052,
      "d": 7.8125,
      "v": 96
    },
    {
      "midi": 69,
      "hit": false,
      "t": 130867.18750000052,
      "d": 7.8125,
      "v": 96
    },
    {
      "midi": 62,
      "hit": false,
      "t": 130875.00000000052,
      "d": 1000,
      "v": 96
    },
    {
      "midi": 65,
      "hit": false,
      "t": 130877.6041666672,
      "d": 997.3958333333285,
      "v": 96
    },
    {
      "midi": 69,
      "hit": false,
      "t": 130877.6041666672,
      "d": 997.3958333333285,
      "v": 96
    },
    {
      "midi": 38,
      "hit": false,
      "t": 130958.33333333334,
      "d": 541.666666666657,
      "v": 96
    },
    {
      "midi": 57,
      "hit": false,
      "t": 130960.93750000092,
      "d": 18.229166666671517,
      "v": 52
    },
    {
      "midi": 50,
      "hit": false,
      "t": 131083.33333333425,
      "d": 52.08333333331393,
      "v": 96
    },
    {
      "midi": 57,
      "hit": false,
      "t": 131085.9375000009,
      "d": 59.89583333331393,
      "v": 127
    },
    {
      "midi": 57,
      "hit": false,
      "t": 131208.33333333422,
      "d": 20.833333333343035,
      "v": 31
    },
    {
      "midi": 57,
      "hit": false,
      "t": 131333.33333333422,
      "d": 31.25,
      "v": 62
    },
    {
      "midi": 50,
      "hit": false,
      "t": 131460.93750000087,
      "d": 59.895833333343035,
      "v": 96
    },
    {
      "midi": 57,
      "hit": false,
      "t": 131460.93750000087,
      "d": 59.895833333343035,
      "v": 127
    },
    {
      "midi": 38,
      "hit": false,
      "t": 131585.9375,
      "d": 5.208333333343035,
      "v": 96
    },
    {
      "midi": 53,
      "hit": false,
      "t": 131585.93750000087,
      "d": 80.72916666665697,
      "v": 92
    },
    {
      "midi": 33,
      "hit": false,
      "t": 131710.9375,
      "d": 164.0625,
      "v": 96
    },
    {
      "midi": 53,
      "hit": false,
      "t": 131710.93750000087,
      "d": 49.479166666656965,
      "v": 36
    },
    {
      "midi": 50,
      "hit": false,
      "t": 131833.3333333342,
      "d": 41.666666666656965,
      "v": 36
    },
    {
      "midi": 31,
      "hit": false,
      "t": 131963.54166666666,
      "d": 471.35416666665697,
      "v": 96
    },
    {
      "midi": 43,
      "hit": false,
      "t": 131966.1458333342,
      "d": 44.270833333343035,
      "v": 96
    },
    {
      "midi": 58,
      "hit": false,
      "t": 131966.1458333342,
      "d": 44.270833333343035,
      "v": 127
    },
    {
      "midi": 62,
      "hit": false,
      "t": 131968.7500000002,
      "d": 406.2499999999709,
      "v": 90
    },
    {
      "midi": 70,
      "hit": false,
      "t": 131968.7500000002,
      "d": 406.2499999999709,
      "v": 101
    },
    {
      "midi": 62,
      "hit": false,
      "t": 131968.75000000052,
      "d": 906.25,
      "v": 96
    },
    {
      "midi": 70,
      "hit": false,
      "t": 131968.75000000052,
      "d": 906.25,
      "v": 96
    },
    {
      "midi": 43,
      "hit": false,
      "t": 131971.35416666686,
      "d": 403.64583333331393,
      "v": 102
    },
    {
      "midi": 67,
      "hit": false,
      "t": 131971.35416666686,
      "d": 403.64583333331393,
      "v": 99
    },
    {
      "midi": 67,
      "hit": false,
      "t": 131971.35416666718,
      "d": 903.645833333343,
      "v": 96
    },
    {
      "midi": 58,
      "hit": false,
      "t": 132083.3333333342,
      "d": 31.25,
      "v": 60
    },
    {
      "midi": 58,
      "hit": false,
      "t": 132208.3333333342,
      "d": 31.25,
      "v": 66
    },
    {
      "midi": 43,
      "hit": false,
      "t": 132333.3333333342,
      "d": 41.666666666656965,
      "v": 96
    },
    {
      "midi": 58,
      "hit": false,
      "t": 132335.93750000084,
      "d": 46.875,
      "v": 127
    },
    {
      "midi": 58,
      "hit": false,
      "t": 132458.3333333342,
      "d": 20.833333333343035,
      "v": 63
    },
    {
      "midi": 58,
      "hit": false,
      "t": 132583.3333333342,
      "d": 31.25,
      "v": 53
    },
    {
      "midi": 31,
      "hit": false,
      "t": 132710.93749999997,
      "d": 36.458333333343035,
      "v": 96
    },
    {
      "midi": 43,
      "hit": false,
      "t": 132710.93750000084,
      "d": 39.0625,
      "v": 96
    },
    {
      "midi": 58,
      "hit": false,
      "t": 132710.93750000084,
      "d": 49.479166666656965,
      "v": 127
    },
    {
      "midi": 58,
      "hit": false,
      "t": 132833.33333333416,
      "d": 10.416666666656965,
      "v": 30
    },
    {
      "midi": 59,
      "hit": false,
      "t": 132875.00000000052,
      "d": 41.666666666656965,
      "v": 96
    },
    {
      "midi": 64,
      "hit": false,
      "t": 132875.00000000052,
      "d": 41.666666666656965,
      "v": 96
    },
    {
      "midi": 68,
      "hit": false,
      "t": 132877.60416666718,
      "d": 39.0625,
      "v": 96
    },
    {
      "midi": 59,
      "hit": false,
      "t": 132916.66666666718,
      "d": 20.83333333331393,
      "v": 96
    },
    {
      "midi": 64,
      "hit": false,
      "t": 132919.27083333384,
      "d": 18.229166666656965,
      "v": 96
    },
    {
      "midi": 67,
      "hit": false,
      "t": 132919.27083333384,
      "d": 18.229166666656965,
      "v": 96
    },
    {
      "midi": 60,
      "hit": false,
      "t": 132937.5000000005,
      "d": 927.0833333333139,
      "v": 96
    },
    {
      "midi": 64,
      "hit": false,
      "t": 132940.10416666683,
      "d": 411.45833333334303,
      "v": 101
    },
    {
      "midi": 64,
      "hit": false,
      "t": 132940.10416666715,
      "d": 924.479166666657,
      "v": 96
    },
    {
      "midi": 67,
      "hit": false,
      "t": 132940.10416666715,
      "d": 924.479166666657,
      "v": 96
    },
    {
      "midi": 36,
      "hit": false,
      "t": 132958.3333333333,
      "d": 906.25,
      "v": 96
    },
    {
      "midi": 72,
      "hit": false,
      "t": 132960.93750000017,
      "d": 411.45833333334303,
      "v": 101
    },
    {
      "midi": 55,
      "hit": false,
      "t": 132960.93750000081,
      "d": 26.041666666656965,
      "v": 44
    },
    {
      "midi": 79,
      "hit": false,
      "t": 132979.16666666683,
      "d": 414.0625000000291,
      "v": 101
    },
    {
      "midi": 48,
      "hit": false,
      "t": 133083.33333333413,
      "d": 41.666666666656965,
      "v": 96
    },
    {
      "midi": 55,
      "hit": false,
      "t": 133083.33333333413,
      "d": 49.479166666656965,
      "v": 127
    },
    {
      "midi": 55,
      "hit": false,
      "t": 133208.33333333413,
      "d": 28.645833333343035,
      "v": 53
    },
    {
      "midi": 55,
      "hit": false,
      "t": 133333.33333333413,
      "d": 28.645833333343035,
      "v": 44
    },
    {
      "midi": 48,
      "hit": false,
      "t": 133458.33333333413,
      "d": 49.479166666656965,
      "v": 96
    },
    {
      "midi": 55,
      "hit": false,
      "t": 133460.9375000008,
      "d": 57.291666666656965,
      "v": 127
    },
    {
      "midi": 55,
      "hit": false,
      "t": 133583.3333333341,
      "d": 39.0625,
      "v": 43
    },
    {
      "midi": 52,
      "hit": false,
      "t": 133708.3333333341,
      "d": 28.645833333343035,
      "v": 81
    },
    {
      "midi": 52,
      "hit": false,
      "t": 133833.3333333341,
      "d": 10.416666666656965,
      "v": 35
    },
    {
      "midi": 60,
      "hit": false,
      "t": 133864.5833333338,
      "d": 10.416666666656965,
      "v": 96
    },
    {
      "midi": 64,
      "hit": false,
      "t": 133867.18750000047,
      "d": 7.8125,
      "v": 96
    },
    {
      "midi": 69,
      "hit": false,
      "t": 133867.18750000047,
      "d": 7.8125,
      "v": 96
    },
    {
      "midi": 60,
      "hit": false,
      "t": 133875.00000000047,
      "d": 2072.9166666665406,
      "v": 96
    },
    {
      "midi": 65,
      "hit": false,
      "t": 133875.00000000047,
      "d": 2072.9166666665406,
      "v": 96
    },
    {
      "midi": 69,
      "hit": false,
      "t": 133877.60416666712,
      "d": 2072.9166666665406,
      "v": 96
    },
    {
      "midi": 29,
      "hit": false,
      "t": 133963.54166666666,
      "d": 471.35416666665697,
      "v": 96
    },
    {
      "midi": 41,
      "hit": false,
      "t": 133963.5416666674,
      "d": 54.6875,
      "v": 96
    },
    {
      "midi": 53,
      "hit": false,
      "t": 133966.14583333352,
      "d": 406.2499999999709,
      "v": 102
    },
    {
      "midi": 60,
      "hit": false,
      "t": 133966.14583333352,
      "d": 406.2499999999709,
      "v": 99
    },
    {
      "midi": 57,
      "hit": false,
      "t": 133966.14583333407,
      "d": 62.5,
      "v": 127
    },
    {
      "midi": 69,
      "hit": false,
      "t": 133968.75000000017,
      "d": 406.2499999999709,
      "v": 101
    },
    {
      "midi": 77,
      "hit": false,
      "t": 133968.75000000017,
      "d": 406.2499999999709,
      "v": 90
    },
    {
      "midi": 57,
      "hit": false,
      "t": 134083.33333333407,
      "d": 18.229166666656965,
      "v": 31
    },
    {
      "midi": 57,
      "hit": false,
      "t": 134208.33333333407,
      "d": 28.645833333343035,
      "v": 57
    },
    {
      "midi": 41,
      "hit": false,
      "t": 134333.33333333407,
      "d": 49.479166666656965,
      "v": 96
    },
    {
      "midi": 57,
      "hit": false,
      "t": 134333.33333333407,
      "d": 59.89583333331393,
      "v": 127
    },
    {
      "midi": 57,
      "hit": false,
      "t": 134460.93750000073,
      "d": 5.208333333313931,
      "v": 40
    },
    {
      "midi": 60,
      "hit": false,
      "t": 134460.93750000073,
      "d": 7.812499999970896,
      "v": 40
    },
    {
      "midi": 65,
      "hit": false,
      "t": 134463.54166666738,
      "d": 5.208333333313931,
      "v": 40
    },
    {
      "midi": 69,
      "hit": false,
      "t": 134463.54166666738,
      "d": 5.208333333313931,
      "v": 40
    },
    {
      "midi": 69,
      "hit": false,
      "t": 134585.9375000007,
      "d": 5.208333333343035,
      "v": 40
    },
    {
      "midi": 57,
      "hit": false,
      "t": 134585.9375000007,
      "d": 7.8125,
      "v": 40
    },
    {
      "midi": 60,
      "hit": false,
      "t": 134585.9375000007,
      "d": 7.8125,
      "v": 40
    },
    {
      "midi": 65,
      "hit": false,
      "t": 134585.9375000007,
      "d": 7.8125,
      "v": 40
    },
    {
      "midi": 29,
      "hit": false,
      "t": 134710.93749999997,
      "d": 36.458333333343035,
      "v": 96
    },
    {
      "midi": 57,
      "hit": false,
      "t": 134710.9375000007,
      "d": 1161.458333333314,
      "v": 56
    },
    {
      "midi": 60,
      "hit": false,
      "t": 134713.54166666736,
      "d": 1169.270833333314,
      "v": 56
    },
    {
      "midi": 65,
      "hit": false,
      "t": 134713.54166666736,
      "d": 1169.270833333314,
      "v": 56
    },
    {
      "midi": 69,
      "hit": false,
      "t": 134713.54166666736,
      "d": 1171.874999999971,
      "v": 56
    },
    {
      "midi": 65,
      "hit": false,
      "t": 134937.50000000015,
      "d": 414.0625,
      "v": 101
    },
    {
      "midi": 29,
      "hit": false,
      "t": 134960.93749999997,
      "d": 536.458333333343,
      "v": 96
    },
    {
      "midi": 72,
      "hit": false,
      "t": 134960.93750000015,
      "d": 411.45833333334303,
      "v": 101
    },
    {
      "midi": 81,
      "hit": false,
      "t": 134979.1666666668,
      "d": 414.0625000000291,
      "v": 101
    },
    {
      "midi": 29,
      "hit": false,
      "t": 135583.3333333333,
      "d": 7.8125,
      "v": 96
    },
    {
      "midi": 36,
      "hit": false,
      "t": 135710.93749999997,
      "d": 223.95833333334303,
      "v": 96
    },
    {
      "midi": 29,
      "hit": false,
      "t": 135963.54166666666,
      "d": 471.35416666665697,
      "v": 96
    },
    {
      "midi": 53,
      "hit": false,
      "t": 135966.1458333335,
      "d": 406.25,
      "v": 102
    },
    {
      "midi": 41,
      "hit": false,
      "t": 135966.14583333398,
      "d": 41.666666666656965,
      "v": 96
    },
    {
      "midi": 57,
      "hit": false,
      "t": 135966.14583333398,
      "d": 41.666666666656965,
      "v": 127
    },
    {
      "midi": 60,
      "hit": false,
      "t": 135968.75000000015,
      "d": 406.25,
      "v": 90
    },
    {
      "midi": 65,
      "hit": false,
      "t": 135968.75000000015,
      "d": 406.25,
      "v": 99
    },
    {
      "midi": 69,
      "hit": false,
      "t": 135968.75000000015,
      "d": 406.25,
      "v": 101
    },
    {
      "midi": 60,
      "hit": false,
      "t": 135971.354166667,
      "d": 1005.208333333343,
      "v": 96
    },
    {
      "midi": 65,
      "hit": false,
      "t": 135971.354166667,
      "d": 1005.208333333343,
      "v": 96
    },
    {
      "midi": 69,
      "hit": false,
      "t": 135971.354166667,
      "d": 1007.8125,
      "v": 96
    },
    {
      "midi": 57,
      "hit": false,
      "t": 136083.33333333398,
      "d": 28.645833333343035,
      "v": 60
    },
    {
      "midi": 57,
      "hit": false,
      "t": 136208.33333333398,
      "d": 28.645833333343035,
      "v": 66
    },
    {
      "midi": 41,
      "hit": false,
      "t": 136333.33333333398,
      "d": 39.0625,
      "v": 96
    },
    {
      "midi": 57,
      "hit": false,
      "t": 136333.33333333398,
      "d": 49.479166666656965,
      "v": 127
    },
    {
      "midi": 57,
      "hit": false,
      "t": 136458.33333333398,
      "d": 18.229166666656965,
      "v": 63
    },
    {
      "midi": 57,
      "hit": false,
      "t": 136583.33333333398,
      "d": 28.645833333343035,
      "v": 53
    },
    {
      "midi": 29,
      "hit": false,
      "t": 136708.3333333333,
      "d": 39.0625,
      "v": 96
    },
    {
      "midi": 41,
      "hit": false,
      "t": 136710.93750000067,
      "d": 36.458333333343035,
      "v": 96
    },
    {
      "midi": 57,
      "hit": false,
      "t": 136710.93750000067,
      "d": 46.875,
      "v": 127
    },
    {
      "midi": 57,
      "hit": false,
      "t": 136833.333333334,
      "d": 7.8125,
      "v": 30
    },
    {
      "midi": 65,
      "hit": false,
      "t": 136937.50000000015,
      "d": 39.0625,
      "v": 101
    },
    {
      "midi": 29,
      "hit": false,
      "t": 136958.3333333333,
      "d": 18.229166666656965,
      "v": 96
    },
    {
      "midi": 57,
      "hit": false,
      "t": 136958.333333334,
      "d": 18.229166666656965,
      "v": 44
    },
    {
      "midi": 72,
      "hit": false,
      "t": 136960.93750000015,
      "d": 15.625,
      "v": 101
    }
  ]
}