{
  "jsonPath": "Classical/Post-Romantic Era/Vladimir Rebikov/the-organ-grinder.json",
  "path": "Classical\\Post-Romantic Era\\Vladimir Rebikov\\The Organ Grinder.mid",
  "name": "The Organ Grinder",
  "difficulty": "Advanced",
  "bpm": 100,
  "notes": [
    {
      "midi": 60,
      "hit": false,
      "t": 0,
      "d": 600,
      "v": 72
    },
    {
      "midi": 71,
      "hit": false,
      "t": 600,
      "d": 600,
      "v": 94
    },
    {
      "midi": 71,
      "hit": false,
      "t": 1200,
      "d": 600,
      "v": 83
    },
    {
      "midi": 60,
      "hit": false,
      "t": 1800,
      "d": 600,
      "v": 57
    },
    {
      "midi": 71,
      "hit": false,
      "t": 2400,
      "d": 600,
      "v": 94
    },
    {
      "midi": 71,
      "hit": false,
      "t": 3000,
      "d": 600,
      "v": 78
    },
    {
      "midi": 60,
      "hit": false,
      "t": 3600,
      "d": 600,
      "v": 57
    },
    {
      "midi": 71,
      "hit": false,
      "t": 4200,
      "d": 600,
      "v": 93
    },
    {
      "midi": 71,
      "hit": false,
      "t": 4800,
      "d": 600,
      "v": 76
    },
    {
      "midi": 60,
      "hit": false,
      "t": 5400,
      "d": 600,
      "v": 61
    },
    {
      "midi": 71,
      "hit": false,
      "t": 6000,
      "d": 600,
      "v": 91
    },
    {
      "midi": 71,
      "hit": false,
      "t": 6600,
      "d": 600,
      "v": 74
    },
    {
      "midi": 64,
      "hit": false,
      "t": 7200,
      "d": 300,
      "v": 67
    },
    {
      "midi": 60,
      "hit": false,
      "t": 7200,
      "d": 600,
      "v": 53
    },
    {
      "midi": 67,
      "hit": false,
      "t": 7500,
      "d": 300,
      "v": 82
    },
    {
      "midi": 69,
      "hit": false,
      "t": 7800,
      "d": 300,
      "v": 86
    },
    {
      "midi": 71,
      "hit": false,
      "t": 7800,
      "d": 600,
      "v": 91
    },
    {
      "midi": 65,
      "hit": false,
      "t": 8100,
      "d": 300,
      "v": 68
    },
    {
      "midi": 64,
      "hit": false,
      "t": 8400,
      "d": 300,
      "v": 68
    },
    {
      "midi": 71,
      "hit": false,
      "t": 8400,
      "d": 600,
      "v": 79
    },
    {
      "midi": 67,
      "hit": false,
      "t": 8700,
      "d": 300,
      "v": 79
    },
    {
      "midi": 62,
      "hit": false,
      "t": 9000,
      "d": 600,
      "v": 67
    },
    {
      "midi": 60,
      "hit": false,
      "t": 9000,
      "d": 600,
      "v": 54
    },
    {
      "midi": 65,
      "hit": false,
      "t": 9600,
      "d": 600,
      "v": 83
    },
    {
      "midi": 71,
      "hit": false,
      "t": 9600,
      "d": 600,
      "v": 96
    },
    {
      "midi": 65,
      "hit": false,
      "t": 10200,
      "d": 600,
      "v": 80
    },
    {
      "midi": 71,
      "hit": false,
      "t": 10200,
      "d": 600,
      "v": 78
    },
    {
      "midi": 64,
      "hit": false,
      "t": 10800,
      "d": 300,
      "v": 74
    },
    {
      "midi": 60,
      "hit": false,
      "t": 10800,
      "d": 600,
      "v": 51
    },
    {
      "midi": 67,
      "hit": false,
      "t": 11100,
      "d": 300,
      "v": 82
    },
    {
      "midi": 69,
      "hit": false,
      "t": 11400,
      "d": 300,
      "v": 82
    },
    {
      "midi": 71,
      "hit": false,
      "t": 11400,
      "d": 600,
      "v": 89
    },
    {
      "midi": 65,
      "hit": false,
      "t": 11700,
      "d": 300,
      "v": 68
    },
    {
      "midi": 64,
      "hit": false,
      "t": 12000,
      "d": 300,
      "v": 71
    },
    {
      "midi": 71,
      "hit": false,
      "t": 12000,
      "d": 600,
      "v": 80
    },
    {
      "midi": 67,
      "hit": false,
      "t": 12300,
      "d": 300,
      "v": 87
    },
    {
      "midi": 62,
      "hit": false,
      "t": 12600,
      "d": 600,
      "v": 67
    },
    {
      "midi": 60,
      "hit": false,
      "t": 12600,
      "d": 600,
      "v": 61
    },
    {
      "midi": 65,
      "hit": false,
      "t": 13200,
      "d": 600,
      "v": 84
    },
    {
      "midi": 71,
      "hit": false,
      "t": 13200,
      "d": 600,
      "v": 94
    },
    {
      "midi": 65,
      "hit": false,
      "t": 13800,
      "d": 600,
      "v": 75
    },
    {
      "midi": 71,
      "hit": false,
      "t": 13800,
      "d": 600,
      "v": 74
    },
    {
      "midi": 64,
      "hit": false,
      "t": 14400,
      "d": 300,
      "v": 70
    },
    {
      "midi": 60,
      "hit": false,
      "t": 14400,
      "d": 600,
      "v": 57
    },
    {
      "midi": 65,
      "hit": false,
      "t": 14700,
      "d": 300,
      "v": 73
    },
    {
      "midi": 67,
      "hit": false,
      "t": 15000,
      "d": 600,
      "v": 83
    },
    {
      "midi": 71,
      "hit": false,
      "t": 15000,
      "d": 600,
      "v": 92
    },
    {
      "midi": 69,
      "hit": false,
      "t": 15600,
      "d": 300,
      "v": 82
    },
    {
      "midi": 71,
      "hit": false,
      "t": 15600,
      "d": 600,
      "v": 74
    },
    {
      "midi": 65,
      "hit": false,
      "t": 15900,
      "d": 300,
      "v": 71
    },
    {
      "midi": 64,
      "hit": false,
      "t": 16200,
      "d": 300,
      "v": 68
    },
    {
      "midi": 60,
      "hit": false,
      "t": 16200,
      "d": 600,
      "v": 57
    },
    {
      "midi": 65,
      "hit": false,
      "t": 16500,
      "d": 300,
      "v": 76
    },
    {
      "midi": 67,
      "hit": false,
      "t": 16800,
      "d": 600,
      "v": 81
    },
    {
      "midi": 71,
      "hit": false,
      "t": 16800,
      "d": 600,
      "v": 96
    },
    {
      "midi": 69,
      "hit": false,
      "t": 17400,
      "d": 300,
      "v": 87
    },
    {
      "midi": 71,
      "hit": false,
      "t": 17400,
      "d": 600,
      "v": 76
    },
    {
      "midi": 65,
      "hit": false,
      "t": 17700,
      "d": 300,
      "v": 69
    },
    {
      "midi": 64,
      "hit": false,
      "t": 18000,
      "d": 300,
      "v": 69
    },
    {
      "midi": 60,
      "hit": false,
      "t": 18000,
      "d": 600,
      "v": 61
    },
    {
      "midi": 65,
      "hit": false,
      "t": 18300,
      "d": 300,
      "v": 82
    },
    {
      "midi": 67,
      "hit": false,
      "t": 18600,
      "d": 300,
      "v": 84
    },
    {
      "midi": 71,
      "hit": false,
      "t": 18600,
      "d": 600,
      "v": 90
    },
    {
      "midi": 64,
      "hit": false,
      "t": 18900,
      "d": 300,
      "v": 76
    },
    {
      "midi": 69,
      "hit": false,
      "t": 19200,
      "d": 300,
      "v": 86
    },
    {
      "midi": 71,
      "hit": false,
      "t": 19200,
      "d": 600,
      "v": 78
    },
    {
      "midi": 65,
      "hit": false,
      "t": 19500,
      "d": 300,
      "v": 72
    },
    {
      "midi": 67,
      "hit": false,
      "t": 19800,
      "d": 1800,
      "v": 80
    },
    {
      "midi": 60,
      "hit": false,
      "t": 19800,
      "d": 600,
      "v": 54
    },
    {
      "midi": 71,
      "hit": false,
      "t": 20400,
      "d": 600,
      "v": 94
    },
    {
      "midi": 71,
      "hit": false,
      "t": 21000,
      "d": 600,
      "v": 77
    },
    {
      "midi": 64,
      "hit": false,
      "t": 21600,
      "d": 300,
      "v": 71
    },
    {
      "midi": 60,
      "hit": false,
      "t": 21600,
      "d": 600,
      "v": 57
    },
    {
      "midi": 67,
      "hit": false,
      "t": 21900,
      "d": 300,
      "v": 85
    },
    {
      "midi": 69,
      "hit": false,
      "t": 22200,
      "d": 300,
      "v": 81
    },
    {
      "midi": 71,
      "hit": false,
      "t": 22200,
      "d": 600,
      "v": 91
    },
    {
      "midi": 65,
      "hit": false,
      "t": 22500,
      "d": 300,
      "v": 72
    },
    {
      "midi": 64,
      "hit": false,
      "t": 22800,
      "d": 300,
      "v": 69
    },
    {
      "midi": 71,
      "hit": false,
      "t": 22800,
      "d": 600,
      "v": 77
    },
    {
      "midi": 67,
      "hit": false,
      "t": 23100,
      "d": 300,
      "v": 83
    },
    {
      "midi": 62,
      "hit": false,
      "t": 23400,
      "d": 600,
      "v": 66
    },
    {
      "midi": 60,
      "hit": false,
      "t": 23400,
      "d": 600,
      "v": 56
    },
    {
      "midi": 65,
      "hit": false,
      "t": 24000,
      "d": 600,
      "v": 81
    },
    {
      "midi": 71,
      "hit": false,
      "t": 24000,
      "d": 600,
      "v": 95
    },
    {
      "midi": 65,
      "hit": false,
      "t": 24600,
      "d": 600,
      "v": 82
    },
    {
      "midi": 71,
      "hit": false,
      "t": 24600,
      "d": 600,
      "v": 81
    },
    {
      "midi": 64,
      "hit": false,
      "t": 25200,
      "d": 300,
      "v": 73
    },
    {
      "midi": 60,
      "hit": false,
      "t": 25200,
      "d": 600,
      "v": 52
    },
    {
      "midi": 67,
      "hit": false,
      "t": 25500,
      "d": 300,
      "v": 82
    },
    {
      "midi": 69,
      "hit": false,
      "t": 25800,
      "d": 300,
      "v": 78
    },
    {
      "midi": 71,
      "hit": false,
      "t": 25800,
      "d": 600,
      "v": 92
    },
    {
      "midi": 65,
      "hit": false,
      "t": 26100,
      "d": 300,
      "v": 66
    },
    {
      "midi": 64,
      "hit": false,
      "t": 26400,
      "d": 300,
      "v": 74
    },
    {
      "midi": 71,
      "hit": false,
      "t": 26400,
      "d": 600,
      "v": 78
    },
    {
      "midi": 67,
      "hit": false,
      "t": 26700,
      "d": 300,
      "v": 78
    },
    {
      "midi": 62,
      "hit": false,
      "t": 27000,
      "d": 600,
      "v": 69
    },
    {
      "midi": 60,
      "hit": false,
      "t": 27000,
      "d": 600,
      "v": 58
    },
    {
      "midi": 65,
      "hit": false,
      "t": 27600,
      "d": 600,
      "v": 80
    },
    {
      "midi": 71,
      "hit": false,
      "t": 27600,
      "d": 600,
      "v": 89
    },
    {
      "midi": 65,
      "hit": false,
      "t": 28200,
      "d": 600,
      "v": 77
    },
    {
      "midi": 71,
      "hit": false,
      "t": 28200,
      "d": 600,
      "v": 80
    },
    {
      "midi": 64,
      "hit": false,
      "t": 28800,
      "d": 300,
      "v": 70
    },
    {
      "midi": 60,
      "hit": false,
      "t": 28800,
      "d": 600,
      "v": 53
    },
    {
      "midi": 65,
      "hit": false,
      "t": 29100,
      "d": 300,
      "v": 81
    },
    {
      "midi": 67,
      "hit": false,
      "t": 29400,
      "d": 600,
      "v": 79
    },
    {
      "midi": 71,
      "hit": false,
      "t": 29400,
      "d": 600,
      "v": 90
    },
    {
      "midi": 69,
      "hit": false,
      "t": 30000,
      "d": 300,
      "v": 80
    },
    {
      "midi": 71,
      "hit": false,
      "t": 30000,
      "d": 600,
      "v": 77
    },
    {
      "midi": 65,
      "hit": false,
      "t": 30300,
      "d": 300,
      "v": 67
    },
    {
      "midi": 64,
      "hit": false,
      "t": 30600,
      "d": 300,
      "v": 72
    },
    {
      "midi": 60,
      "hit": false,
      "t": 30600,
      "d": 600,
      "v": 58
    },
    {
      "midi": 65,
      "hit": false,
      "t": 30900,
      "d": 300,
      "v": 77
    },
    {
      "midi": 67,
      "hit": false,
      "t": 31200,
      "d": 600,
      "v": 82
    },
    {
      "midi": 71,
      "hit": false,
      "t": 31200,
      "d": 600,
      "v": 89
    },
    {
      "midi": 69,
      "hit": false,
      "t": 31800,
      "d": 300,
      "v": 81
    },
    {
      "midi": 71,
      "hit": false,
      "t": 31800,
      "d": 600,
      "v": 81
    },
    {
      "midi": 65,
      "hit": false,
      "t": 32100,
      "d": 300,
      "v": 68
    },
    {
      "midi": 64,
      "hit": false,
      "t": 32400,
      "d": 300,
      "v": 72
    },
    {
      "midi": 60,
      "hit": false,
      "t": 32400,
      "d": 600,
      "v": 57
    },
    {
      "midi": 65,
      "hit": false,
      "t": 32700,
      "d": 300,
      "v": 80
    },
    {
      "midi": 67,
      "hit": false,
      "t": 33000,
      "d": 300,
      "v": 82
    },
    {
      "midi": 71,
      "hit": false,
      "t": 33000,
      "d": 600,
      "v": 96
    },
    {
      "midi": 64,
      "hit": false,
      "t": 33300,
      "d": 300,
      "v": 72
    },
    {
      "midi": 69,
      "hit": false,
      "t": 33600,
      "d": 300,
      "v": 89
    },
    {
      "midi": 71,
      "hit": false,
      "t": 33600,
      "d": 600,
      "v": 82
    },
    {
      "midi": 65,
      "hit": false,
      "t": 33900,
      "d": 300,
      "v": 65
    },
    {
      "midi": 67,
      "hit": false,
      "t": 34200,
      "d": 1800,
      "v": 83
    },
    {
      "midi": 60,
      "hit": false,
      "t": 34200,
      "d": 600,
      "v": 59
    },
    {
      "midi": 71,
      "hit": false,
      "t": 34800,
      "d": 600,
      "v": 88
    },
    {
      "midi": 71,
      "hit": false,
      "t": 35400,
      "d": 600,
      "v": 78
    },
    {
      "midi": 76,
      "hit": false,
      "t": 36000,
      "d": 300,
      "v": 89
    },
    {
      "midi": 60,
      "hit": false,
      "t": 36000,
      "d": 600,
      "v": 56
    },
    {
      "midi": 81,
      "hit": false,
      "t": 36300,
      "d": 300,
      "v": 88
    },
    {
      "midi": 79,
      "hit": false,
      "t": 36600,
      "d": 600,
      "v": 73
    },
    {
      "midi": 71,
      "hit": false,
      "t": 36600,
      "d": 600,
      "v": 97
    },
    {
      "midi": 84,
      "hit": false,
      "t": 37200,
      "d": 600,
      "v": 86
    },
    {
      "midi": 71,
      "hit": false,
      "t": 37200,
      "d": 600,
      "v": 80
    },
    {
      "midi": 77,
      "hit": false,
      "t": 37800,
      "d": 1800,
      "v": 85
    },
    {
      "midi": 79,
      "hit": false,
      "t": 37800,
      "d": 1800,
      "v": 85
    },
    {
      "midi": 86,
      "hit": false,
      "t": 37800,
      "d": 1800,
      "v": 85
    },
    {
      "midi": 60,
      "hit": false,
      "t": 37800,
      "d": 600,
      "v": 57
    },
    {
      "midi": 71,
      "hit": false,
      "t": 38400,
      "d": 600,
      "v": 93
    },
    {
      "midi": 71,
      "hit": false,
      "t": 39000,
      "d": 600,
      "v": 82
    },
    {
      "midi": 83,
      "hit": false,
      "t": 39600,
      "d": 600,
      "v": 87
    },
    {
      "midi": 89,
      "hit": false,
      "t": 39600,
      "d": 600,
      "v": 87
    },
    {
      "midi": 60,
      "hit": false,
      "t": 39600,
      "d": 600,
      "v": 55
    },
    {
      "midi": 71,
      "hit": false,
      "t": 40200,
      "d": 600,
      "v": 96
    },
    {
      "midi": 83,
      "hit": false,
      "t": 40800,
      "d": 600,
      "v": 68
    },
    {
      "midi": 89,
      "hit": false,
      "t": 40800,
      "d": 600,
      "v": 68
    },
    {
      "midi": 71,
      "hit": false,
      "t": 40800,
      "d": 600,
      "v": 78
    },
    {
      "midi": 79,
      "hit": false,
      "t": 41400,
      "d": 300,
      "v": 70
    },
    {
      "midi": 88,
      "hit": false,
      "t": 41400,
      "d": 300,
      "v": 73
    },
    {
      "midi": 60,
      "hit": false,
      "t": 41400,
      "d": 600,
      "v": 60
    },
    {
      "midi": 86,
      "hit": false,
      "t": 41700,
      "d": 300,
      "v": 71
    },
    {
      "midi": 84,
      "hit": false,
      "t": 42000,
      "d": 1200,
      "v": 72
    },
    {
      "midi": 71,
      "hit": false,
      "t": 42000,
      "d": 600,
      "v": 92
    },
    {
      "midi": 71,
      "hit": false,
      "t": 42600,
      "d": 600,
      "v": 79
    },
    {
      "midi": 76,
      "hit": false,
      "t": 43200,
      "d": 300,
      "v": 58
    },
    {
      "midi": 60,
      "hit": false,
      "t": 43200,
      "d": 600,
      "v": 59
    },
    {
      "midi": 81,
      "hit": false,
      "t": 43500,
      "d": 300,
      "v": 86
    },
    {
      "midi": 79,
      "hit": false,
      "t": 43800,
      "d": 600,
      "v": 76
    },
    {
      "midi": 71,
      "hit": false,
      "t": 43800,
      "d": 600,
      "v": 95
    },
    {
      "midi": 84,
      "hit": false,
      "t": 44400,
      "d": 600,
      "v": 83
    },
    {
      "midi": 71,
      "hit": false,
      "t": 44400,
      "d": 600,
      "v": 75
    },
    {
      "midi": 77,
      "hit": false,
      "t": 45000,
      "d": 1800,
      "v": 86
    },
    {
      "midi": 79,
      "hit": false,
      "t": 45000,
      "d": 1800,
      "v": 86
    },
    {
      "midi": 86,
      "hit": false,
      "t": 45000,
      "d": 1800,
      "v": 86
    },
    {
      "midi": 60,
      "hit": false,
      "t": 45000,
      "d": 600,
      "v": 58
    },
    {
      "midi": 71,
      "hit": false,
      "t": 45600,
      "d": 600,
      "v": 91
    },
    {
      "midi": 71,
      "hit": false,
      "t": 46200,
      "d": 600,
      "v": 76
    },
    {
      "midi": 76,
      "hit": false,
      "t": 46800,
      "d": 1200,
      "v": 71
    },
    {
      "midi": 81,
      "hit": false,
      "t": 46800,
      "d": 1200,
      "v": 71
    },
    {
      "midi": 60,
      "hit": false,
      "t": 46800,
      "d": 600,
      "v": 57
    },
    {
      "midi": 71,
      "hit": false,
      "t": 47400,
      "d": 600,
      "v": 91
    },
    {
      "midi": 74,
      "hit": false,
      "t": 48000,
      "d": 600,
      "v": 64
    },
    {
      "midi": 77,
      "hit": false,
      "t": 48000,
      "d": 600,
      "v": 64
    },
    {
      "midi": 71,
      "hit": false,
      "t": 48000,
      "d": 600,
      "v": 73
    },
    {
      "midi": 76,
      "hit": false,
      "t": 48600,
      "d": 1800,
      "v": 77
    },
    {
      "midi": 79,
      "hit": false,
      "t": 48600,
      "d": 1800,
      "v": 77
    },
    {
      "midi": 60,
      "hit": false,
      "t": 48600,
      "d": 600,
      "v": 55
    },
    {
      "midi": 71,
      "hit": false,
      "t": 49200,
      "d": 600,
      "v": 94
    },
    {
      "midi": 71,
      "hit": false,
      "t": 49800,
      "d": 600,
      "v": 82
    },
    {
      "midi": 76,
      "hit": false,
      "t": 50400,
      "d": 300,
      "v": 69
    },
    {
      "midi": 60,
      "hit": false,
      "t": 50400,
      "d": 600,
      "v": 58
    },
    {
      "midi": 81,
      "hit": false,
      "t": 50700,
      "d": 300,
      "v": 84
    },
    {
      "midi": 79,
      "hit": false,
      "t": 51000,
      "d": 600,
      "v": 71
    },
    {
      "midi": 71,
      "hit": false,
      "t": 51000,
      "d": 600,
      "v": 91
    },
    {
      "midi": 84,
      "hit": false,
      "t": 51600,
      "d": 600,
      "v": 89
    },
    {
      "midi": 71,
      "hit": false,
      "t": 51600,
      "d": 600,
      "v": 77
    },
    {
      "midi": 77,
      "hit": false,
      "t": 52200,
      "d": 1800,
      "v": 90
    },
    {
      "midi": 79,
      "hit": false,
      "t": 52200,
      "d": 1800,
      "v": 90
    },
    {
      "midi": 86,
      "hit": false,
      "t": 52200,
      "d": 1800,
      "v": 90
    },
    {
      "midi": 60,
      "hit": false,
      "t": 52200,
      "d": 600,
      "v": 63
    },
    {
      "midi": 71,
      "hit": false,
      "t": 52800,
      "d": 600,
      "v": 89
    },
    {
      "midi": 71,
      "hit": false,
      "t": 53400,
      "d": 600,
      "v": 80
    },
    {
      "midi": 83,
      "hit": false,
      "t": 54000,
      "d": 600,
      "v": 88
    },
    {
      "midi": 89,
      "hit": false,
      "t": 54000,
      "d": 600,
      "v": 88
    },
    {
      "midi": 60,
      "hit": false,
      "t": 54000,
      "d": 600,
      "v": 58
    },
    {
      "midi": 71,
      "hit": false,
      "t": 54600,
      "d": 600,
      "v": 90
    },
    {
      "midi": 83,
      "hit": false,
      "t": 55200,
      "d": 600,
      "v": 68
    },
    {
      "midi": 89,
      "hit": false,
      "t": 55200,
      "d": 600,
      "v": 68
    },
    {
      "midi": 71,
      "hit": false,
      "t": 55200,
      "d": 600,
      "v": 80
    },
    {
      "midi": 79,
      "hit": false,
      "t": 55800,
      "d": 300,
      "v": 76
    },
    {
      "midi": 88,
      "hit": false,
      "t": 55800,
      "d": 300,
      "v": 76
    },
    {
      "midi": 60,
      "hit": false,
      "t": 55800,
      "d": 600,
      "v": 60
    },
    {
      "midi": 86,
      "hit": false,
      "t": 56100,
      "d": 300,
      "v": 71
    },
    {
      "midi": 84,
      "hit": false,
      "t": 56400,
      "d": 1200,
      "v": 70
    },
    {
      "midi": 71,
      "hit": false,
      "t": 56400,
      "d": 600,
      "v": 92
    },
    {
      "midi": 71,
      "hit": false,
      "t": 57000,
      "d": 600,
      "v": 80
    },
    {
      "midi": 76,
      "hit": false,
      "t": 57600,
      "d": 300,
      "v": 63
    },
    {
      "midi": 60,
      "hit": false,
      "t": 57600,
      "d": 600,
      "v": 54
    },
    {
      "midi": 81,
      "hit": false,
      "t": 57900,
      "d": 300,
      "v": 80
    },
    {
      "midi": 79,
      "hit": false,
      "t": 58200,
      "d": 600,
      "v": 74
    },
    {
      "midi": 70,
      "hit": false,
      "t": 58200,
      "d": 600,
      "v": 89
    },
    {
      "midi": 84,
      "hit": false,
      "t": 58800,
      "d": 600,
      "v": 84
    },
    {
      "midi": 70,
      "hit": false,
      "t": 58800,
      "d": 600,
      "v": 78
    },
    {
      "midi": 77,
      "hit": false,
      "t": 59400,
      "d": 1800,
      "v": 82
    },
    {
      "midi": 79,
      "hit": false,
      "t": 59400,
      "d": 1800,
      "v": 82
    },
    {
      "midi": 86,
      "hit": false,
      "t": 59400,
      "d": 1800,
      "v": 82
    },
    {
      "midi": 60,
      "hit": false,
      "t": 59400,
      "d": 600,
      "v": 62
    },
    {
      "midi": 70,
      "hit": false,
      "t": 60000,
      "d": 600,
      "v": 93
    },
    {
      "midi": 70,
      "hit": false,
      "t": 60600,
      "d": 600,
      "v": 83
    },
    {
      "midi": 76,
      "hit": false,
      "t": 61200,
      "d": 1200,
      "v": 66
    },
    {
      "midi": 81,
      "hit": false,
      "t": 61200,
      "d": 1200,
      "v": 66
    },
    {
      "midi": 60,
      "hit": false,
      "t": 61200,
      "d": 600,
      "v": 57
    },
    {
      "midi": 70,
      "hit": false,
      "t": 61800,
      "d": 600,
      "v": 86
    },
    {
      "midi": 74,
      "hit": false,
      "t": 62400,
      "d": 600,
      "v": 71
    },
    {
      "midi": 77,
      "hit": false,
      "t": 62400,
      "d": 600,
      "v": 71
    },
    {
      "midi": 70,
      "hit": false,
      "t": 62400,
      "d": 600,
      "v": 82
    },
    {
      "midi": 76,
      "hit": false,
      "t": 63000,
      "d": 1800,
      "v": 78
    },
    {
      "midi": 79,
      "hit": false,
      "t": 63000,
      "d": 1800,
      "v": 78
    },
    {
      "midi": 60,
      "hit": false,
      "t": 63000,
      "d": 600,
      "v": 54
    },
    {
      "midi": 70,
      "hit": false,
      "t": 63600,
      "d": 600,
      "v": 92
    },
    {
      "midi": 70,
      "hit": false,
      "t": 64200,
      "d": 600,
      "v": 77
    },
    {
      "midi": 76,
      "hit": false,
      "t": 64800,
      "d": 1200,
      "v": 81
    },
    {
      "midi": 81,
      "hit": false,
      "t": 64800,
      "d": 1200,
      "v": 81
    },
    {
      "midi": 60,
      "hit": false,
      "t": 64800,
      "d": 600,
      "v": 60
    },
    {
      "midi": 70,
      "hit": false,
      "t": 65400,
      "d": 600,
      "v": 87
    },
    {
      "midi": 74,
      "hit": false,
      "t": 66000,
      "d": 600,
      "v": 69
    },
    {
      "midi": 77,
      "hit": false,
      "t": 66000,
      "d": 600,
      "v": 69
    },
    {
      "midi": 70,
      "hit": false,
      "t": 66000,
      "d": 600,
      "v": 77
    },
    {
      "midi": 76,
      "hit": false,
      "t": 66600,
      "d": 1800,
      "v": 83
    },
    {
      "midi": 79,
      "hit": false,
      "t": 66600,
      "d": 1800,
      "v": 83
    },
    {
      "midi": 60,
      "hit": false,
      "t": 66600,
      "d": 600,
      "v": 55
    },
    {
      "midi": 70,
      "hit": false,
      "t": 67200,
      "d": 600,
      "v": 91
    },
    {
      "midi": 70,
      "hit": false,
      "t": 67800,
      "d": 600,
      "v": 80
    },
    {
      "midi": 76,
      "hit": false,
      "t": 68400,
      "d": 1200,
      "v": 85
    },
    {
      "midi": 81,
      "hit": false,
      "t": 68400,
      "d": 1200,
      "v": 85
    },
    {
      "midi": 60,
      "hit": false,
      "t": 68400,
      "d": 600,
      "v": 60
    },
    {
      "midi": 70,
      "hit": false,
      "t": 69000,
      "d": 600,
      "v": 86
    },
    {
      "midi": 74,
      "hit": false,
      "t": 69600,
      "d": 600,
      "v": 66
    },
    {
      "midi": 77,
      "hit": false,
      "t": 69600,
      "d": 600,
      "v": 66
    },
    {
      "midi": 70,
      "hit": false,
      "t": 69600,
      "d": 600,
      "v": 82
    },
    {
      "midi": 76,
      "hit": false,
      "t": 70200,
      "d": 1800,
      "v": 81
    },
    {
      "midi": 79,
      "hit": false,
      "t": 70200,
      "d": 1800,
      "v": 81
    },
    {
      "midi": 60,
      "hit": false,
      "t": 70200,
      "d": 600,
      "v": 61
    },
    {
      "midi": 70,
      "hit": false,
      "t": 70800,
      "d": 600,
      "v": 88
    },
    {
      "midi": 70,
      "hit": false,
      "t": 71400,
      "d": 600,
      "v": 84
    },
    {
      "midi": 76,
      "hit": false,
      "t": 72000,
      "d": 1800,
      "v": 71
    },
    {
      "midi": 79,
      "hit": false,
      "t": 72000,
      "d": 1800,
      "v": 71
    },
    {
      "midi": 60,
      "hit": false,
      "t": 72000,
      "d": 600,
      "v": 56
    },
    {
      "midi": 70,
      "hit": false,
      "t": 72600,
      "d": 600,
      "v": 98
    },
    {
      "midi": 70,
      "hit": false,
      "t": 73200,
      "d": 600,
      "v": 78
    },
    {
      "midi": 76,
      "hit": false,
      "t": 73800,
      "d": 600,
      "v": 76
    },
    {
      "midi": 79,
      "hit": false,
      "t": 73800,
      "d": 600,
      "v": 76
    },
    {
      "midi": 60,
      "hit": false,
      "t": 73800,
      "d": 600,
      "v": 57
    },
    {
      "midi": 70,
      "hit": false,
      "t": 74400,
      "d": 600,
      "v": 93
    },
    {
      "midi": 70,
      "hit": false,
      "t": 75000,
      "d": 600,
      "v": 80
    },
    {
      "midi": 60,
      "hit": false,
      "t": 75600,
      "d": 600,
      "v": 57
    },
    {
      "midi": 70,
      "hit": false,
      "t": 76200,
      "d": 600,
      "v": 89
    },
    {
      "midi": 70,
      "hit": false,
      "t": 76800,
      "d": 600,
      "v": 80
    },
    {
      "midi": 64,
      "hit": false,
      "t": 77400,
      "d": 300,
      "v": 70
    },
    {
      "midi": 60,
      "hit": false,
      "t": 77400,
      "d": 600,
      "v": 59
    },
    {
      "midi": 67,
      "hit": false,
      "t": 77700,
      "d": 300,
      "v": 78
    },
    {
      "midi": 69,
      "hit": false,
      "t": 78000,
      "d": 300,
      "v": 79
    },
    {
      "midi": 70,
      "hit": false,
      "t": 78000,
      "d": 600,
      "v": 95
    },
    {
      "midi": 65,
      "hit": false,
      "t": 78300,
      "d": 300,
      "v": 72
    },
    {
      "midi": 64,
      "hit": false,
      "t": 78600,
      "d": 300,
      "v": 71
    },
    {
      "midi": 70,
      "hit": false,
      "t": 78600,
      "d": 600,
      "v": 81
    },
    {
      "midi": 67,
      "hit": false,
      "t": 78900,
      "d": 300,
      "v": 82
    },
    {
      "midi": 62,
      "hit": false,
      "t": 79200,
      "d": 600,
      "v": 68
    },
    {
      "midi": 60,
      "hit": false,
      "t": 79200,
      "d": 600,
      "v": 56
    },
    {
      "midi": 65,
      "hit": false,
      "t": 79800,
      "d": 600,
      "v": 81
    },
    {
      "midi": 70,
      "hit": false,
      "t": 79800,
      "d": 600,
      "v": 92
    },
    {
      "midi": 65,
      "hit": false,
      "t": 80400,
      "d": 600,
      "v": 78
    },
    {
      "midi": 70,
      "hit": false,
      "t": 80400,
      "d": 600,
      "v": 79
    },
    {
      "midi": 64,
      "hit": false,
      "t": 81000,
      "d": 300,
      "v": 73
    },
    {
      "midi": 60,
      "hit": false,
      "t": 81000,
      "d": 600,
      "v": 62
    },
    {
      "midi": 67,
      "hit": false,
      "t": 81300,
      "d": 300,
      "v": 84
    },
    {
      "midi": 69,
      "hit": false,
      "t": 81600,
      "d": 300,
      "v": 79
    },
    {
      "midi": 70,
      "hit": false,
      "t": 81600,
      "d": 600,
      "v": 91
    },
    {
      "midi": 65,
      "hit": false,
      "t": 81900,
      "d": 300,
      "v": 73
    },
    {
      "midi": 64,
      "hit": false,
      "t": 82200,
      "d": 300,
      "v": 73
    },
    {
      "midi": 70,
      "hit": false,
      "t": 82200,
      "d": 600,
      "v": 78
    },
    {
      "midi": 67,
      "hit": false,
      "t": 82500,
      "d": 300,
      "v": 83
    },
    {
      "midi": 62,
      "hit": false,
      "t": 82800,
      "d": 600,
      "v": 65
    },
    {
      "midi": 60,
      "hit": false,
      "t": 82800,
      "d": 600,
      "v": 58
    },
    {
      "midi": 65,
      "hit": false,
      "t": 83400,
      "d": 600,
      "v": 83
    },
    {
      "midi": 70,
      "hit": false,
      "t": 83400,
      "d": 600,
      "v": 91
    },
    {
      "midi": 65,
      "hit": false,
      "t": 84000,
      "d": 600,
      "v": 77
    },
    {
      "midi": 70,
      "hit": false,
      "t": 84000,
      "d": 600,
      "v": 79
    },
    {
      "midi": 64,
      "hit": false,
      "t": 84600,
      "d": 300,
      "v": 74
    },
    {
      "midi": 60,
      "hit": false,
      "t": 84600,
      "d": 600,
      "v": 59
    },
    {
      "midi": 65,
      "hit": false,
      "t": 84900,
      "d": 300,
      "v": 79
    },
    {
      "midi": 67,
      "hit": false,
      "t": 85200,
      "d": 600,
      "v": 80
    },
    {
      "midi": 70,
      "hit": false,
      "t": 85200,
      "d": 600,
      "v": 94
    },
    {
      "midi": 69,
      "hit": false,
      "t": 85800,
      "d": 300,
      "v": 76
    },
    {
      "midi": 70,
      "hit": false,
      "t": 85800,
      "d": 600,
      "v": 76
    },
    {
      "midi": 65,
      "hit": false,
      "t": 86100,
      "d": 300,
      "v": 72
    },
    {
      "midi": 64,
      "hit": false,
      "t": 86400,
      "d": 300,
      "v": 72
    },
    {
      "midi": 60,
      "hit": false,
      "t": 86400,
      "d": 600,
      "v": 60
    },
    {
      "midi": 65,
      "hit": false,
      "t": 86700,
      "d": 300,
      "v": 80
    },
    {
      "midi": 67,
      "hit": false,
      "t": 87000,
      "d": 600,
      "v": 86
    },
    {
      "midi": 70,
      "hit": false,
      "t": 87000,
      "d": 600,
      "v": 94
    },
    {
      "midi": 69,
      "hit": false,
      "t": 87600,
      "d": 300,
      "v": 81
    },
    {
      "midi": 70,
      "hit": false,
      "t": 87600,
      "d": 600,
      "v": 73
    },
    {
      "midi": 65,
      "hit": false,
      "t": 87900,
      "d": 300,
      "v": 67
    },
    {
      "midi": 64,
      "hit": false,
      "t": 88200,
      "d": 300,
      "v": 67
    },
    {
      "midi": 60,
      "hit": false,
      "t": 88200,
      "d": 600,
      "v": 62
    },
    {
      "midi": 65,
      "hit": false,
      "t": 88500,
      "d": 300,
      "v": 79
    },
    {
      "midi": 67,
      "hit": false,
      "t": 88800,
      "d": 300,
      "v": 80
    },
    {
      "midi": 70,
      "hit": false,
      "t": 88800,
      "d": 600,
      "v": 91
    },
    {
      "midi": 64,
      "hit": false,
      "t": 89100,
      "d": 300,
      "v": 69
    },
    {
      "midi": 69,
      "hit": false,
      "t": 89400,
      "d": 300,
      "v": 89
    },
    {
      "midi": 70,
      "hit": false,
      "t": 89400,
      "d": 600,
      "v": 80
    },
    {
      "midi": 65,
      "hit": false,
      "t": 89700,
      "d": 300,
      "v": 69
    },
    {
      "midi": 67,
      "hit": false,
      "t": 90000,
      "d": 1800,
      "v": 78
    },
    {
      "midi": 60,
      "hit": false,
      "t": 90000,
      "d": 600,
      "v": 54
    },
    {
      "midi": 70,
      "hit": false,
      "t": 90600,
      "d": 600,
      "v": 87
    },
    {
      "midi": 70,
      "hit": false,
      "t": 91200,
      "d": 600,
      "v": 78
    },
    {
      "midi": 64,
      "hit": false,
      "t": 91800,
      "d": 300,
      "v": 70
    },
    {
      "midi": 60,
      "hit": false,
      "t": 91800,
      "d": 600,
      "v": 59
    },
    {
      "midi": 67,
      "hit": false,
      "t": 92100,
      "d": 300,
      "v": 87
    },
    {
      "midi": 69,
      "hit": false,
      "t": 92400,
      "d": 300,
      "v": 78
    },
    {
      "midi": 70,
      "hit": false,
      "t": 92400,
      "d": 600,
      "v": 89
    },
    {
      "midi": 65,
      "hit": false,
      "t": 92700,
      "d": 300,
      "v": 67
    },
    {
      "midi": 64,
      "hit": false,
      "t": 93000,
      "d": 300,
      "v": 72
    },
    {
      "midi": 70,
      "hit": false,
      "t": 93000,
      "d": 600,
      "v": 77
    },
    {
      "midi": 67,
      "hit": false,
      "t": 93300,
      "d": 300,
      "v": 80
    },
    {
      "midi": 62,
      "hit": false,
      "t": 93600,
      "d": 600,
      "v": 66
    },
    {
      "midi": 60,
      "hit": false,
      "t": 93600,
      "d": 600,
      "v": 59
    },
    {
      "midi": 65,
      "hit": false,
      "t": 94200,
      "d": 600,
      "v": 81
    },
    {
      "midi": 70,
      "hit": false,
      "t": 94200,
      "d": 600,
      "v": 92
    },
    {
      "midi": 65,
      "hit": false,
      "t": 94800,
      "d": 600,
      "v": 76
    },
    {
      "midi": 70,
      "hit": false,
      "t": 94800,
      "d": 600,
      "v": 81
    },
    {
      "midi": 64,
      "hit": false,
      "t": 95400,
      "d": 300,
      "v": 75
    },
    {
      "midi": 60,
      "hit": false,
      "t": 95400,
      "d": 600,
      "v": 55
    },
    {
      "midi": 67,
      "hit": false,
      "t": 95700,
      "d": 300,
      "v": 83
    },
    {
      "midi": 69,
      "hit": false,
      "t": 96000,
      "d": 300,
      "v": 81
    },
    {
      "midi": 70,
      "hit": false,
      "t": 96000,
      "d": 600,
      "v": 88
    },
    {
      "midi": 65,
      "hit": false,
      "t": 96300,
      "d": 300,
      "v": 66
    },
    {
      "midi": 64,
      "hit": false,
      "t": 96600,
      "d": 300,
      "v": 71
    },
    {
      "midi": 70,
      "hit": false,
      "t": 96600,
      "d": 600,
      "v": 77
    },
    {
      "midi": 67,
      "hit": false,
      "t": 96900,
      "d": 300,
      "v": 82
    },
    {
      "midi": 62,
      "hit": false,
      "t": 97200,
      "d": 600,
      "v": 69
    },
    {
      "midi": 60,
      "hit": false,
      "t": 97200,
      "d": 600,
      "v": 59
    },
    {
      "midi": 65,
      "hit": false,
      "t": 97800,
      "d": 600,
      "v": 78
    },
    {
      "midi": 70,
      "hit": false,
      "t": 97800,
      "d": 600,
      "v": 89
    },
    {
      "midi": 65,
      "hit": false,
      "t": 98400,
      "d": 600,
      "v": 78
    },
    {
      "midi": 70,
      "hit": false,
      "t": 98400,
      "d": 600,
      "v": 81
    },
    {
      "midi": 64,
      "hit": false,
      "t": 99000,
      "d": 300,
      "v": 71
    },
    {
      "midi": 60,
      "hit": false,
      "t": 99000,
      "d": 600,
      "v": 52
    },
    {
      "midi": 65,
      "hit": false,
      "t": 99300,
      "d": 300,
      "v": 79
    },
    {
      "midi": 67,
      "hit": false,
      "t": 99600,
      "d": 600,
      "v": 81
    },
    {
      "midi": 70,
      "hit": false,
      "t": 99600,
      "d": 600,
      "v": 89
    },
    {
      "midi": 69,
      "hit": false,
      "t": 100200,
      "d": 300,
      "v": 81
    },
    {
      "midi": 70,
      "hit": false,
      "t": 100200,
      "d": 600,
      "v": 75
    },
    {
      "midi": 65,
      "hit": false,
      "t": 100500,
      "d": 300,
      "v": 73
    },
    {
      "midi": 64,
      "hit": false,
      "t": 100800,
      "d": 300,
      "v": 73
    },
    {
      "midi": 60,
      "hit": false,
      "t": 100800,
      "d": 600,
      "v": 59
    },
    {
      "midi": 65,
      "hit": false,
      "t": 101100,
      "d": 300,
      "v": 80
    },
    {
      "midi": 67,
      "hit": false,
      "t": 101400,
      "d": 600,
      "v": 84
    },
    {
      "midi": 70,
      "hit": false,
      "t": 101400,
      "d": 600,
      "v": 89
    },
    {
      "midi": 69,
      "hit": false,
      "t": 102000,
      "d": 300,
      "v": 78
    },
    {
      "midi": 70,
      "hit": false,
      "t": 102000,
      "d": 600,
      "v": 77
    },
    {
      "midi": 65,
      "hit": false,
      "t": 102300,
      "d": 300,
      "v": 66
    },
    {
      "midi": 64,
      "hit": false,
      "t": 102600,
      "d": 300,
      "v": 71
    },
    {
      "midi": 60,
      "hit": false,
      "t": 102600,
      "d": 600,
      "v": 62
    },
    {
      "midi": 65,
      "hit": false,
      "t": 102900,
      "d": 300,
      "v": 80
    },
    {
      "midi": 67,
      "hit": false,
      "t": 103200,
      "d": 600,
      "v": 83
    },
    {
      "midi": 70,
      "hit": false,
      "t": 103200,
      "d": 600,
      "v": 92
    },
    {
      "midi": 70,
      "hit": false,
      "t": 103800,
      "d": 600,
      "v": 81
    },
    {
      "midi": 60,
      "hit": false,
      "t": 104400,
      "d": 600,
      "v": 56
    },
    {
      "midi": 70,
      "hit": false,
      "t": 105000,
      "d": 600,
      "v": 87
    },
    {
      "midi": 70,
      "hit": false,
      "t": 105600,
      "d": 600,
      "v": 76
    },
    {
      "midi": 64,
      "hit": false,
      "t": 106200,
      "d": 300,
      "v": 69
    },
    {
      "midi": 60,
      "hit": false,
      "t": 106200,
      "d": 600,
      "v": 59
    },
    {
      "midi": 65,
      "hit": false,
      "t": 106500,
      "d": 300,
      "v": 80
    },
    {
      "midi": 67,
      "hit": false,
      "t": 106800,
      "d": 600,
      "v": 86
    },
    {
      "midi": 70,
      "hit": false,
      "t": 106800,
      "d": 600,
      "v": 90
    },
    {
      "midi": 69,
      "hit": false,
      "t": 107400,
      "d": 300,
      "v": 81
    },
    {
      "midi": 70,
      "hit": false,
      "t": 107400,
      "d": 600,
      "v": 76
    },
    {
      "midi": 65,
      "hit": false,
      "t": 107700,
      "d": 300,
      "v": 69
    },
    {
      "midi": 64,
      "hit": false,
      "t": 108000,
      "d": 300,
      "v": 71
    },
    {
      "midi": 60,
      "hit": false,
      "t": 108000,
      "d": 600,
      "v": 59
    },
    {
      "midi": 65,
      "hit": false,
      "t": 108300,
      "d": 300,
      "v": 81
    },
    {
      "midi": 67,
      "hit": false,
      "t": 108600,
      "d": 600,
      "v": 81
    },
    {
      "midi": 70,
      "hit": false,
      "t": 108600,
      "d": 600,
      "v": 93
    },
    {
      "midi": 69,
      "hit": false,
      "t": 109200,
      "d": 300,
      "v": 80
    },
    {
      "midi": 70,
      "hit": false,
      "t": 109200,
      "d": 600,
      "v": 78
    },
    {
      "midi": 65,
      "hit": false,
      "t": 109500,
      "d": 300,
      "v": 72
    },
    {
      "midi": 64,
      "hit": false,
      "t": 109800,
      "d": 300,
      "v": 72
    },
    {
      "midi": 60,
      "hit": false,
      "t": 109800,
      "d": 600,
      "v": 55
    },
    {
      "midi": 65,
      "hit": false,
      "t": 110100,
      "d": 300,
      "v": 83
    },
    {
      "midi": 67,
      "hit": false,
      "t": 110400,
      "d": 600,
      "v": 84
    },
    {
      "midi": 70,
      "hit": false,
      "t": 110400,
      "d": 600,
      "v": 91
    },
    {
      "midi": 70,
      "hit": false,
      "t": 111000,
      "d": 600,
      "v": 76
    },
    {
      "midi": 60,
      "hit": false,
      "t": 111600,
      "d": 600,
      "v": 59
    },
    {
      "midi": 70,
      "hit": false,
      "t": 112200,
      "d": 600,
      "v": 94
    },
    {
      "midi": 70,
      "hit": false,
      "t": 112800,
      "d": 600,
      "v": 82
    },
    {
      "midi": 64,
      "hit": false,
      "t": 113400,
      "d": 300,
      "v": 70
    },
    {
      "midi": 60,
      "hit": false,
      "t": 113400,
      "d": 600,
      "v": 59
    },
    {
      "midi": 65,
      "hit": false,
      "t": 113700,
      "d": 300,
      "v": 80
    },
    {
      "midi": 67,
      "hit": false,
      "t": 114000,
      "d": 600,
      "v": 82
    },
    {
      "midi": 70,
      "hit": false,
      "t": 114000,
      "d": 600,
      "v": 90
    },
    {
      "midi": 70,
      "hit": false,
      "t": 114600,
      "d": 600,
      "v": 76
    },
    {
      "midi": 60,
      "hit": false,
      "t": 115200,
      "d": 600,
      "v": 61
    },
    {
      "midi": 70,
      "hit": false,
      "t": 115800,
      "d": 600,
      "v": 90
    },
    {
      "midi": 70,
      "hit": false,
      "t": 116400,
      "d": 600,
      "v": 81
    },
    {
      "midi": 64,
      "hit": false,
      "t": 117000,
      "d": 300,
      "v": 68
    },
    {
      "midi": 60,
      "hit": false,
      "t": 117000,
      "d": 600,
      "v": 58
    },
    {
      "midi": 65,
      "hit": false,
      "t": 117300,
      "d": 300,
      "v": 79
    },
    {
      "midi": 67,
      "hit": false,
      "t": 117600,
      "d": 600,
      "v": 77
    },
    {
      "midi": 70,
      "hit": false,
      "t": 117600,
      "d": 600,
      "v": 94
    },
    {
      "midi": 70,
      "hit": false,
      "t": 118200,
      "d": 600,
      "v": 82
    },
    {
      "midi": 60,
      "hit": false,
      "t": 118800,
      "d": 600,
      "v": 61
    },
    {
      "midi": 70,
      "hit": false,
      "t": 119400,
      "d": 600,
      "v": 93
    },
    {
      "midi": 70,
      "hit": false,
      "t": 120000,
      "d": 600,
      "v": 83
    },
    {
      "midi": 60,
      "hit": false,
      "t": 120600,
      "d": 600,
      "v": 58
    },
    {
      "midi": 67,
      "hit": false,
      "t": 121200,
      "d": 600,
      "v": 70
    },
    {
      "midi": 70,
      "hit": false,
      "t": 121200,
      "d": 600,
      "v": 97
    },
    {
      "midi": 70,
      "hit": false,
      "t": 121800,
      "d": 600,
      "v": 78
    },
    {
      "midi": 60,
      "hit": false,
      "t": 122400,
      "d": 600,
      "v": 55
    },
    {
      "midi": 70,
      "hit": false,
      "t": 123000,
      "d": 600,
      "v": 92
    },
    {
      "midi": 70,
      "hit": false,
      "t": 123600,
      "d": 600,
      "v": 83
    },
    {
      "midi": 60,
      "hit": false,
      "t": 124200,
      "d": 600,
      "v": 55
    },
    {
      "midi": 67,
      "hit": false,
      "t": 124800,
      "d": 600,
      "v": 66
    },
    {
      "midi": 70,
      "hit": false,
      "t": 124800,
      "d": 600,
      "v": 89
    },
    {
      "midi": 70,
      "hit": false,
      "t": 125400,
      "d": 600,
      "v": 81
    },
    {
      "midi": 60,
      "hit": false,
      "t": 126000,
      "d": 600,
      "v": 59
    },
    {
      "midi": 70,
      "hit": false,
      "t": 126600,
      "d": 600,
      "v": 92
    },
    {
      "midi": 70,
      "hit": false,
      "t": 127200,
      "d": 600,
      "v": 78
    },
    {
      "midi": 60,
      "hit": false,
      "t": 127800,
      "d": 600,
      "v": 58
    },
    {
      "midi": 70,
      "hit": false,
      "t": 128400,
      "d": 600,
      "v": 91
    },
    {
      "midi": 70,
      "hit": false,
      "t": 129000,
      "d": 600,
      "v": 77
    },
    {
      "midi": 60,
      "hit": false,
      "t": 129600,
      "d": 600,
      "v": 58
    },
    {
      "midi": 70,
      "hit": false,
      "t": 130200,
      "d": 600,
      "v": 92
    },
    {
      "midi": 70,
      "hit": false,
      "t": 130800,
      "d": 600,
      "v": 80
    },
    {
      "midi": 60,
      "hit": false,
      "t": 131400,
      "d": 600,
      "v": 56
    }
  ]
}