{
  "jsonPath": "Animes/Dr. Slump MIDI Collection/slumps-song.json",
  "path": "Animes\\Dr. Slump MIDI Collection\\Slumps song.mid",
  "name": "Slumps song",
  "difficulty": "Advanced",
  "bpm": 130.00013000013,
  "notes": [
    {
      "midi": 55,
      "hit": false,
      "t": 3670.1886374999995,
      "d": 150.9613875,
      "v": 94
    },
    {
      "midi": 59,
      "hit": false,
      "t": 3671.1501749999993,
      "d": 148.07677500000045,
      "v": 97
    },
    {
      "midi": 62,
      "hit": false,
      "t": 3671.1501749999993,
      "d": 149.0383125000003,
      "v": 101
    },
    {
      "midi": 43,
      "hit": false,
      "t": 3692.3039999999996,
      "d": 456.7303125000003,
      "v": 104
    },
    {
      "midi": 62,
      "hit": false,
      "t": 3692.3039999999996,
      "d": 225.96131250000008,
      "v": 80
    },
    {
      "midi": 59,
      "hit": false,
      "t": 3692.3039999999996,
      "d": 225.96131250000008,
      "v": 73
    },
    {
      "midi": 55,
      "hit": false,
      "t": 3692.3039999999996,
      "d": 225.96131250000008,
      "v": 75
    },
    {
      "midi": 43,
      "hit": false,
      "t": 3692.3039999999996,
      "d": 225.96131250000008,
      "v": 101
    },
    {
      "midi": 50,
      "hit": false,
      "t": 3692.3039999999996,
      "d": 225.96131250000008,
      "v": 86
    },
    {
      "midi": 74,
      "hit": false,
      "t": 3692.3039999999996,
      "d": 225.96131250000008,
      "v": 113
    },
    {
      "midi": 62,
      "hit": false,
      "t": 3692.3039999999996,
      "d": 225.96131250000008,
      "v": 92
    },
    {
      "midi": 71,
      "hit": false,
      "t": 3692.3039999999996,
      "d": 225.96131250000008,
      "v": 94
    },
    {
      "midi": 42,
      "hit": false,
      "t": 3692.3039999999996,
      "d": 225.96131250000008,
      "v": 89
    },
    {
      "midi": 57,
      "hit": false,
      "t": 3692.3039999999996,
      "d": 225.96131250000008,
      "v": 110
    },
    {
      "midi": 36,
      "hit": false,
      "t": 3692.3039999999996,
      "d": 456.7303125000003,
      "v": 113
    },
    {
      "midi": 55,
      "hit": false,
      "t": 3896.149949999999,
      "d": 157.6921500000003,
      "v": 66
    },
    {
      "midi": 59,
      "hit": false,
      "t": 3896.149949999999,
      "d": 158.65368750000016,
      "v": 66
    },
    {
      "midi": 62,
      "hit": false,
      "t": 3898.0730249999992,
      "d": 153.846,
      "v": 75
    },
    {
      "midi": 62,
      "hit": false,
      "t": 3923.073,
      "d": 225.96131250000008,
      "v": 74
    },
    {
      "midi": 55,
      "hit": false,
      "t": 3923.073,
      "d": 225.96131250000008,
      "v": 69
    },
    {
      "midi": 59,
      "hit": false,
      "t": 3923.073,
      "d": 225.96131250000008,
      "v": 67
    },
    {
      "midi": 50,
      "hit": false,
      "t": 3923.073,
      "d": 225.96131250000008,
      "v": 85
    },
    {
      "midi": 43,
      "hit": false,
      "t": 3923.073,
      "d": 225.96131250000008,
      "v": 97
    },
    {
      "midi": 74,
      "hit": false,
      "t": 3923.073,
      "d": 225.96131250000008,
      "v": 113
    },
    {
      "midi": 62,
      "hit": false,
      "t": 3923.073,
      "d": 225.96131250000008,
      "v": 97
    },
    {
      "midi": 71,
      "hit": false,
      "t": 3923.073,
      "d": 225.96131250000008,
      "v": 94
    },
    {
      "midi": 42,
      "hit": false,
      "t": 3923.073,
      "d": 225.96131250000008,
      "v": 81
    },
    {
      "midi": 55,
      "hit": false,
      "t": 4152.880462499999,
      "d": 151.92292500000076,
      "v": 78
    },
    {
      "midi": 60,
      "hit": false,
      "t": 4153.842,
      "d": 138.46140000000014,
      "v": 85
    },
    {
      "midi": 55,
      "hit": false,
      "t": 4153.842,
      "d": 225.96131249999962,
      "v": 73
    },
    {
      "midi": 64,
      "hit": false,
      "t": 4153.842,
      "d": 225.96131249999962,
      "v": 72
    },
    {
      "midi": 60,
      "hit": false,
      "t": 4153.842,
      "d": 225.96131249999962,
      "v": 72
    },
    {
      "midi": 43,
      "hit": false,
      "t": 4153.842,
      "d": 225.96131249999962,
      "v": 101
    },
    {
      "midi": 52,
      "hit": false,
      "t": 4153.842,
      "d": 225.96131249999962,
      "v": 94
    },
    {
      "midi": 76,
      "hit": false,
      "t": 4153.842,
      "d": 225.96131249999962,
      "v": 101
    },
    {
      "midi": 64,
      "hit": false,
      "t": 4153.842,
      "d": 225.96131249999962,
      "v": 99
    },
    {
      "midi": 72,
      "hit": false,
      "t": 4153.842,
      "d": 225.96131249999962,
      "v": 99
    },
    {
      "midi": 42,
      "hit": false,
      "t": 4153.842,
      "d": 225.96131249999962,
      "v": 84
    },
    {
      "midi": 38,
      "hit": false,
      "t": 4153.842,
      "d": 225.96131249999962,
      "v": 113
    },
    {
      "midi": 64,
      "hit": false,
      "t": 4155.765074999999,
      "d": 121.15372500000012,
      "v": 86
    },
    {
      "midi": 62,
      "hit": false,
      "t": 4384.610999999999,
      "d": 918.2683125000003,
      "v": 85
    },
    {
      "midi": 59,
      "hit": false,
      "t": 4384.610999999999,
      "d": 918.2683125000003,
      "v": 80
    },
    {
      "midi": 55,
      "hit": false,
      "t": 4384.610999999999,
      "d": 918.2683125000003,
      "v": 82
    },
    {
      "midi": 50,
      "hit": false,
      "t": 4384.610999999999,
      "d": 225.96131249999962,
      "v": 97
    },
    {
      "midi": 43,
      "hit": false,
      "t": 4384.610999999999,
      "d": 225.96131249999962,
      "v": 94
    },
    {
      "midi": 74,
      "hit": false,
      "t": 4384.610999999999,
      "d": 918.2683125000003,
      "v": 101
    },
    {
      "midi": 62,
      "hit": false,
      "t": 4384.610999999999,
      "d": 918.2683125000003,
      "v": 99
    },
    {
      "midi": 71,
      "hit": false,
      "t": 4384.610999999999,
      "d": 918.2683125000003,
      "v": 99
    },
    {
      "midi": 42,
      "hit": false,
      "t": 4384.610999999999,
      "d": 225.96131249999962,
      "v": 86
    },
    {
      "midi": 36,
      "hit": false,
      "t": 4384.610999999999,
      "d": 225.96131249999962,
      "v": 123
    },
    {
      "midi": 43,
      "hit": false,
      "t": 4384.611,
      "d": 225.96131249999962,
      "v": 110
    },
    {
      "midi": 55,
      "hit": false,
      "t": 4389.4186875000005,
      "d": 818.2684125000023,
      "v": 86
    },
    {
      "midi": 59,
      "hit": false,
      "t": 4390.380225000001,
      "d": 574.9994250000018,
      "v": 94
    },
    {
      "midi": 62,
      "hit": false,
      "t": 4404.803287500001,
      "d": 548.0763750000015,
      "v": 88
    },
    {
      "midi": 50,
      "hit": false,
      "t": 4615.379999999998,
      "d": 225.96131249999962,
      "v": 97
    },
    {
      "midi": 43,
      "hit": false,
      "t": 4615.379999999998,
      "d": 225.96131249999962,
      "v": 94
    },
    {
      "midi": 42,
      "hit": false,
      "t": 4615.379999999998,
      "d": 225.96131249999962,
      "v": 92
    },
    {
      "midi": 36,
      "hit": false,
      "t": 4615.379999999998,
      "d": 456.73031249999894,
      "v": 110
    },
    {
      "midi": 43,
      "hit": false,
      "t": 4615.379999999999,
      "d": 456.73031249999985,
      "v": 110
    },
    {
      "midi": 50,
      "hit": false,
      "t": 4846.148999999998,
      "d": 225.96131249999962,
      "v": 90
    },
    {
      "midi": 43,
      "hit": false,
      "t": 4846.148999999998,
      "d": 225.96131249999962,
      "v": 97
    },
    {
      "midi": 46,
      "hit": false,
      "t": 4846.148999999998,
      "d": 225.96131249999962,
      "v": 89
    },
    {
      "midi": 64,
      "hit": false,
      "t": 5039.418037500002,
      "d": 117.30757500000072,
      "v": 92
    },
    {
      "midi": 60,
      "hit": false,
      "t": 5040.379575000003,
      "d": 115.38450000000012,
      "v": 75
    },
    {
      "midi": 62,
      "hit": false,
      "t": 5041.341112500003,
      "d": 36.538424999999734,
      "v": 66
    },
    {
      "midi": 43,
      "hit": false,
      "t": 5076.917999999997,
      "d": 225.96131249999962,
      "v": 101
    },
    {
      "midi": 52,
      "hit": false,
      "t": 5076.917999999997,
      "d": 225.96131249999962,
      "v": 94
    },
    {
      "midi": 42,
      "hit": false,
      "t": 5076.917999999997,
      "d": 225.96131249999962,
      "v": 92
    },
    {
      "midi": 38,
      "hit": false,
      "t": 5076.917999999997,
      "d": 225.96131249999962,
      "v": 110
    },
    {
      "midi": 55,
      "hit": false,
      "t": 5256.725512500003,
      "d": 660.5762625000007,
      "v": 65
    },
    {
      "midi": 59,
      "hit": false,
      "t": 5259.610125000003,
      "d": 658.653187500001,
      "v": 82
    },
    {
      "midi": 62,
      "hit": false,
      "t": 5278.840875000003,
      "d": 624.9993750000012,
      "v": 92
    },
    {
      "midi": 50,
      "hit": false,
      "t": 5307.686999999996,
      "d": 225.96131249999962,
      "v": 97
    },
    {
      "midi": 43,
      "hit": false,
      "t": 5307.686999999996,
      "d": 225.96131249999962,
      "v": 99
    },
    {
      "midi": 42,
      "hit": false,
      "t": 5307.686999999996,
      "d": 225.96131249999962,
      "v": 79
    },
    {
      "midi": 36,
      "hit": false,
      "t": 5307.686999999996,
      "d": 225.96131249999962,
      "v": 120
    },
    {
      "midi": 43,
      "hit": false,
      "t": 5307.686999999999,
      "d": 225.96131249999962,
      "v": 110
    },
    {
      "midi": 43,
      "hit": false,
      "t": 5538.455999999996,
      "d": 225.96131249999962,
      "v": 99
    },
    {
      "midi": 50,
      "hit": false,
      "t": 5538.455999999996,
      "d": 225.96131249999962,
      "v": 92
    },
    {
      "midi": 42,
      "hit": false,
      "t": 5538.455999999996,
      "d": 225.96131249999962,
      "v": 89
    },
    {
      "midi": 36,
      "hit": false,
      "t": 5538.455999999996,
      "d": 456.73031249999894,
      "v": 113
    },
    {
      "midi": 43,
      "hit": false,
      "t": 5538.455999999998,
      "d": 456.73031249999985,
      "v": 104
    },
    {
      "midi": 62,
      "hit": false,
      "t": 5538.455999999999,
      "d": 225.96131249999962,
      "v": 75
    },
    {
      "midi": 59,
      "hit": false,
      "t": 5538.455999999999,
      "d": 225.96131249999962,
      "v": 67
    },
    {
      "midi": 55,
      "hit": false,
      "t": 5538.455999999999,
      "d": 225.96131249999962,
      "v": 71
    },
    {
      "midi": 71,
      "hit": false,
      "t": 5538.455999999999,
      "d": 225.96131249999962,
      "v": 104
    },
    {
      "midi": 67,
      "hit": false,
      "t": 5538.455999999999,
      "d": 225.96131249999962,
      "v": 97
    },
    {
      "midi": 59,
      "hit": false,
      "t": 5538.455999999999,
      "d": 225.96131249999962,
      "v": 94
    },
    {
      "midi": 50,
      "hit": false,
      "t": 5769.224999999995,
      "d": 225.96131249999962,
      "v": 94
    },
    {
      "midi": 43,
      "hit": false,
      "t": 5769.224999999995,
      "d": 225.96131249999962,
      "v": 101
    },
    {
      "midi": 42,
      "hit": false,
      "t": 5769.224999999995,
      "d": 225.96131249999962,
      "v": 66
    },
    {
      "midi": 62,
      "hit": false,
      "t": 5769.2249999999985,
      "d": 225.96131249999962,
      "v": 75
    },
    {
      "midi": 55,
      "hit": false,
      "t": 5769.2249999999985,
      "d": 225.96131249999962,
      "v": 74
    },
    {
      "midi": 59,
      "hit": false,
      "t": 5769.2249999999985,
      "d": 225.96131249999962,
      "v": 68
    },
    {
      "midi": 71,
      "hit": false,
      "t": 5769.2249999999985,
      "d": 225.96131249999962,
      "v": 107
    },
    {
      "midi": 59,
      "hit": false,
      "t": 5769.2249999999985,
      "d": 225.96131249999962,
      "v": 99
    },
    {
      "midi": 67,
      "hit": false,
      "t": 5769.2249999999985,
      "d": 225.96131249999962,
      "v": 99
    },
    {
      "midi": 52,
      "hit": false,
      "t": 5999.993999999994,
      "d": 225.96131249999962,
      "v": 86
    },
    {
      "midi": 43,
      "hit": false,
      "t": 5999.993999999994,
      "d": 225.96131249999962,
      "v": 101
    },
    {
      "midi": 38,
      "hit": false,
      "t": 5999.993999999994,
      "d": 225.96131249999962,
      "v": 107
    },
    {
      "midi": 42,
      "hit": false,
      "t": 5999.993999999994,
      "d": 225.96131249999962,
      "v": 62
    },
    {
      "midi": 64,
      "hit": false,
      "t": 5999.993999999998,
      "d": 225.96131249999962,
      "v": 74
    },
    {
      "midi": 60,
      "hit": false,
      "t": 5999.993999999998,
      "d": 225.96131249999962,
      "v": 68
    },
    {
      "midi": 55,
      "hit": false,
      "t": 5999.993999999998,
      "d": 225.96131249999962,
      "v": 74
    },
    {
      "midi": 72,
      "hit": false,
      "t": 5999.993999999998,
      "d": 225.96131249999962,
      "v": 110
    },
    {
      "midi": 69,
      "hit": false,
      "t": 5999.993999999998,
      "d": 225.96131249999962,
      "v": 94
    },
    {
      "midi": 60,
      "hit": false,
      "t": 5999.993999999998,
      "d": 225.96131249999962,
      "v": 99
    },
    {
      "midi": 60,
      "hit": false,
      "t": 6041.340112500005,
      "d": 98.07682500000101,
      "v": 90
    },
    {
      "midi": 55,
      "hit": false,
      "t": 6042.301650000005,
      "d": 98.07682500000101,
      "v": 88
    },
    {
      "midi": 64,
      "hit": false,
      "t": 6043.263187500005,
      "d": 96.1537500000004,
      "v": 88
    },
    {
      "midi": 50,
      "hit": false,
      "t": 6230.762999999994,
      "d": 225.96131249999962,
      "v": 97
    },
    {
      "midi": 43,
      "hit": false,
      "t": 6230.762999999994,
      "d": 225.96131249999962,
      "v": 101
    },
    {
      "midi": 36,
      "hit": false,
      "t": 6230.762999999994,
      "d": 225.96131249999962,
      "v": 110
    },
    {
      "midi": 42,
      "hit": false,
      "t": 6230.762999999994,
      "d": 225.96131249999962,
      "v": 59
    },
    {
      "midi": 55,
      "hit": false,
      "t": 6230.762999999997,
      "d": 918.2683125000003,
      "v": 76
    },
    {
      "midi": 62,
      "hit": false,
      "t": 6230.762999999997,
      "d": 918.2683125000003,
      "v": 82
    },
    {
      "midi": 59,
      "hit": false,
      "t": 6230.762999999997,
      "d": 918.2683125000003,
      "v": 72
    },
    {
      "midi": 71,
      "hit": false,
      "t": 6230.762999999997,
      "d": 918.2683125000003,
      "v": 110
    },
    {
      "midi": 59,
      "hit": false,
      "t": 6230.762999999997,
      "d": 918.2683125000003,
      "v": 99
    },
    {
      "midi": 67,
      "hit": false,
      "t": 6230.762999999997,
      "d": 918.2683125000003,
      "v": 99
    },
    {
      "midi": 43,
      "hit": false,
      "t": 6230.762999999998,
      "d": 225.96131249999962,
      "v": 101
    },
    {
      "midi": 55,
      "hit": false,
      "t": 6251.916825000007,
      "d": 383.6534625000022,
      "v": 82
    },
    {
      "midi": 59,
      "hit": false,
      "t": 6252.878362500007,
      "d": 383.6534625000022,
      "v": 92
    },
    {
      "midi": 62,
      "hit": false,
      "t": 6253.839900000007,
      "d": 380.7688500000013,
      "v": 101
    },
    {
      "midi": 50,
      "hit": false,
      "t": 6461.531999999993,
      "d": 225.96131249999962,
      "v": 90
    },
    {
      "midi": 43,
      "hit": false,
      "t": 6461.531999999993,
      "d": 225.96131249999962,
      "v": 97
    },
    {
      "midi": 42,
      "hit": false,
      "t": 6461.531999999993,
      "d": 225.96131249999962,
      "v": 96
    },
    {
      "midi": 36,
      "hit": false,
      "t": 6461.531999999993,
      "d": 456.73031249999894,
      "v": 117
    },
    {
      "midi": 43,
      "hit": false,
      "t": 6461.531999999997,
      "d": 225.96131249999962,
      "v": 117
    },
    {
      "midi": 50,
      "hit": false,
      "t": 6692.300999999992,
      "d": 225.96131249999962,
      "v": 92
    },
    {
      "midi": 43,
      "hit": false,
      "t": 6692.300999999992,
      "d": 225.96131249999962,
      "v": 101
    },
    {
      "midi": 42,
      "hit": false,
      "t": 6692.300999999992,
      "d": 225.96131249999962,
      "v": 79
    },
    {
      "midi": 43,
      "hit": false,
      "t": 6692.300999999997,
      "d": 225.96131249999962,
      "v": 101
    },
    {
      "midi": 55,
      "hit": false,
      "t": 6748.070175000009,
      "d": 90.3845250000004,
      "v": 86
    },
    {
      "midi": 59,
      "hit": false,
      "t": 6748.070175000009,
      "d": 91.3460625000007,
      "v": 92
    },
    {
      "midi": 62,
      "hit": false,
      "t": 6750.954787500009,
      "d": 86.53837500000009,
      "v": 94
    },
    {
      "midi": 52,
      "hit": false,
      "t": 6923.0699999999915,
      "d": 225.96131249999962,
      "v": 99
    },
    {
      "midi": 43,
      "hit": false,
      "t": 6923.0699999999915,
      "d": 225.96131249999962,
      "v": 104
    },
    {
      "midi": 38,
      "hit": false,
      "t": 6923.0699999999915,
      "d": 225.96131249999962,
      "v": 107
    },
    {
      "midi": 42,
      "hit": false,
      "t": 6923.0699999999915,
      "d": 225.96131249999962,
      "v": 64
    },
    {
      "midi": 40,
      "hit": false,
      "t": 6923.069999999996,
      "d": 225.96131249999962,
      "v": 110
    },
    {
      "midi": 55,
      "hit": false,
      "t": 6950.954587500009,
      "d": 118.26911250000194,
      "v": 82
    },
    {
      "midi": 64,
      "hit": false,
      "t": 6951.91612500001,
      "d": 90.3845250000013,
      "v": 90
    },
    {
      "midi": 60,
      "hit": false,
      "t": 6952.87766250001,
      "d": 103.84605000000101,
      "v": 90
    },
    {
      "midi": 50,
      "hit": false,
      "t": 7153.838999999991,
      "d": 225.96131249999962,
      "v": 99
    },
    {
      "midi": 43,
      "hit": false,
      "t": 7153.838999999991,
      "d": 225.96131249999962,
      "v": 99
    },
    {
      "midi": 36,
      "hit": false,
      "t": 7153.838999999991,
      "d": 225.96131249999962,
      "v": 99
    },
    {
      "midi": 42,
      "hit": false,
      "t": 7153.838999999991,
      "d": 225.96131249999962,
      "v": 77
    },
    {
      "midi": 38,
      "hit": false,
      "t": 7153.838999999995,
      "d": 225.96131249999962,
      "v": 120
    },
    {
      "midi": 59,
      "hit": false,
      "t": 7155.7620750000115,
      "d": 492.3072000000002,
      "v": 92
    },
    {
      "midi": 55,
      "hit": false,
      "t": 7157.685150000011,
      "d": 503.8456500000002,
      "v": 79
    },
    {
      "midi": 62,
      "hit": false,
      "t": 7158.6466875000115,
      "d": 488.4610499999999,
      "v": 101
    },
    {
      "midi": 50,
      "hit": false,
      "t": 7384.60799999999,
      "d": 225.96131249999962,
      "v": 97
    },
    {
      "midi": 43,
      "hit": false,
      "t": 7384.60799999999,
      "d": 225.96131249999962,
      "v": 99
    },
    {
      "midi": 42,
      "hit": false,
      "t": 7384.60799999999,
      "d": 225.96131249999962,
      "v": 92
    },
    {
      "midi": 36,
      "hit": false,
      "t": 7384.60799999999,
      "d": 456.73031249999894,
      "v": 110
    },
    {
      "midi": 43,
      "hit": false,
      "t": 7384.607999999995,
      "d": 456.73031249999985,
      "v": 104
    },
    {
      "midi": 62,
      "hit": false,
      "t": 7384.607999999997,
      "d": 225.96131249999962,
      "v": 72
    },
    {
      "midi": 59,
      "hit": false,
      "t": 7384.607999999997,
      "d": 225.96131249999962,
      "v": 68
    },
    {
      "midi": 55,
      "hit": false,
      "t": 7384.607999999997,
      "d": 225.96131249999962,
      "v": 73
    },
    {
      "midi": 55,
      "hit": false,
      "t": 7384.607999999997,
      "d": 225.96131249999962,
      "v": 97
    },
    {
      "midi": 67,
      "hit": false,
      "t": 7384.607999999997,
      "d": 225.96131249999962,
      "v": 99
    },
    {
      "midi": 50,
      "hit": false,
      "t": 7615.3769999999895,
      "d": 225.96131249999962,
      "v": 97
    },
    {
      "midi": 43,
      "hit": false,
      "t": 7615.3769999999895,
      "d": 225.96131249999962,
      "v": 99
    },
    {
      "midi": 42,
      "hit": false,
      "t": 7615.3769999999895,
      "d": 225.96131249999962,
      "v": 60
    },
    {
      "midi": 62,
      "hit": false,
      "t": 7615.376999999997,
      "d": 225.96131249999962,
      "v": 68
    },
    {
      "midi": 59,
      "hit": false,
      "t": 7615.376999999997,
      "d": 225.96131249999962,
      "v": 66
    },
    {
      "midi": 55,
      "hit": false,
      "t": 7615.376999999997,
      "d": 225.96131249999962,
      "v": 74
    },
    {
      "midi": 67,
      "hit": false,
      "t": 7615.376999999997,
      "d": 225.96131249999962,
      "v": 92
    },
    {
      "midi": 55,
      "hit": false,
      "t": 7615.376999999997,
      "d": 225.96131249999962,
      "v": 92
    },
    {
      "midi": 59,
      "hit": false,
      "t": 7708.646137500012,
      "d": 89.42298750000009,
      "v": 78
    },
    {
      "midi": 55,
      "hit": false,
      "t": 7709.607675000012,
      "d": 90.3845250000004,
      "v": 79
    },
    {
      "midi": 62,
      "hit": false,
      "t": 7728.838425000012,
      "d": 70.19223750000037,
      "v": 92
    },
    {
      "midi": 43,
      "hit": false,
      "t": 7846.145999999989,
      "d": 225.96131249999962,
      "v": 104
    },
    {
      "midi": 52,
      "hit": false,
      "t": 7846.145999999989,
      "d": 225.96131249999962,
      "v": 92
    },
    {
      "midi": 38,
      "hit": false,
      "t": 7846.145999999989,
      "d": 225.96131249999962,
      "v": 110
    },
    {
      "midi": 42,
      "hit": false,
      "t": 7846.145999999989,
      "d": 225.96131249999962,
      "v": 66
    },
    {
      "midi": 62,
      "hit": false,
      "t": 7846.145999999996,
      "d": 225.96131249999962,
      "v": 79
    },
    {
      "midi": 59,
      "hit": false,
      "t": 7846.145999999996,
      "d": 225.96131249999962,
      "v": 75
    },
    {
      "midi": 57,
      "hit": false,
      "t": 7846.145999999996,
      "d": 225.96131249999962,
      "v": 75
    },
    {
      "midi": 69,
      "hit": false,
      "t": 7846.145999999996,
      "d": 225.96131249999962,
      "v": 86
    },
    {
      "midi": 57,
      "hit": false,
      "t": 7846.145999999996,
      "d": 225.96131249999962,
      "v": 97
    },
    {
      "midi": 55,
      "hit": false,
      "t": 7899.992100000013,
      "d": 131.73063750000165,
      "v": 71
    },
    {
      "midi": 64,
      "hit": false,
      "t": 7900.953637500013,
      "d": 102.88451250000071,
      "v": 67
    },
    {
      "midi": 60,
      "hit": false,
      "t": 7901.915175000014,
      "d": 102.88451250000071,
      "v": 92
    },
    {
      "midi": 62,
      "hit": false,
      "t": 7902.876712500014,
      "d": 88.46144999999979,
      "v": 90
    },
    {
      "midi": 50,
      "hit": false,
      "t": 8076.914999999988,
      "d": 225.96131249999962,
      "v": 97
    },
    {
      "midi": 43,
      "hit": false,
      "t": 8076.914999999988,
      "d": 225.96131249999962,
      "v": 101
    },
    {
      "midi": 36,
      "hit": false,
      "t": 8076.914999999988,
      "d": 225.96131249999962,
      "v": 104
    },
    {
      "midi": 42,
      "hit": false,
      "t": 8076.914999999988,
      "d": 225.96131249999962,
      "v": 62
    },
    {
      "midi": 43,
      "hit": false,
      "t": 8076.9149999999945,
      "d": 225.96131250000053,
      "v": 110
    },
    {
      "midi": 62,
      "hit": false,
      "t": 8076.914999999995,
      "d": 687.4993125000001,
      "v": 78
    },
    {
      "midi": 59,
      "hit": false,
      "t": 8076.914999999995,
      "d": 687.4993125000001,
      "v": 72
    },
    {
      "midi": 55,
      "hit": false,
      "t": 8076.914999999995,
      "d": 687.4993125000001,
      "v": 66
    },
    {
      "midi": 55,
      "hit": false,
      "t": 8076.914999999995,
      "d": 687.4993125000001,
      "v": 88
    },
    {
      "midi": 67,
      "hit": false,
      "t": 8076.914999999995,
      "d": 687.4993125000001,
      "v": 97
    },
    {
      "midi": 55,
      "hit": false,
      "t": 8105.761125000015,
      "d": 1331.7294375000001,
      "v": 66
    },
    {
      "midi": 59,
      "hit": false,
      "t": 8106.722662500016,
      "d": 569.2302000000009,
      "v": 86
    },
    {
      "midi": 62,
      "hit": false,
      "t": 8107.684200000016,
      "d": 542.3071500000005,
      "v": 94
    },
    {
      "midi": 50,
      "hit": false,
      "t": 8307.683999999988,
      "d": 225.96131249999962,
      "v": 90
    },
    {
      "midi": 43,
      "hit": false,
      "t": 8307.683999999988,
      "d": 225.96131249999962,
      "v": 99
    },
    {
      "midi": 42,
      "hit": false,
      "t": 8307.683999999988,
      "d": 225.96131249999962,
      "v": 86
    },
    {
      "midi": 36,
      "hit": false,
      "t": 8307.683999999988,
      "d": 456.73031249999985,
      "v": 110
    },
    {
      "midi": 43,
      "hit": false,
      "t": 8307.683999999996,
      "d": 456.73031249999985,
      "v": 110
    },
    {
      "midi": 50,
      "hit": false,
      "t": 8538.452999999989,
      "d": 225.96131249999962,
      "v": 90
    },
    {
      "midi": 43,
      "hit": false,
      "t": 8538.452999999989,
      "d": 225.96131249999962,
      "v": 99
    },
    {
      "midi": 42,
      "hit": false,
      "t": 8538.452999999989,
      "d": 225.96131249999962,
      "v": 75
    },
    {
      "midi": 59,
      "hit": false,
      "t": 8758.645087500017,
      "d": 49.03841250000005,
      "v": 68
    },
    {
      "midi": 64,
      "hit": false,
      "t": 8758.645087500017,
      "d": 225.9613124999978,
      "v": 107
    },
    {
      "midi": 43,
      "hit": false,
      "t": 8769.221999999989,
      "d": 225.96131249999962,
      "v": 97
    },
    {
      "midi": 52,
      "hit": false,
      "t": 8769.221999999989,
      "d": 225.96131249999962,
      "v": 85
    },
    {
      "midi": 38,
      "hit": false,
      "t": 8769.221999999989,
      "d": 225.96131249999962,
      "v": 107
    },
    {
      "midi": 42,
      "hit": false,
      "t": 8769.221999999989,
      "d": 225.96131249999962,
      "v": 69
    },
    {
      "midi": 59,
      "hit": false,
      "t": 8769.221999999996,
      "d": 225.96131249999962,
      "v": 67
    },
    {
      "midi": 64,
      "hit": false,
      "t": 8769.221999999996,
      "d": 225.96131249999962,
      "v": 66
    },
    {
      "midi": 55,
      "hit": false,
      "t": 8769.221999999996,
      "d": 225.96131249999962,
      "v": 76
    },
    {
      "midi": 64,
      "hit": false,
      "t": 8769.221999999996,
      "d": 225.96131249999962,
      "v": 92
    },
    {
      "midi": 52,
      "hit": false,
      "t": 8769.221999999996,
      "d": 225.96131249999962,
      "v": 85
    },
    {
      "midi": 62,
      "hit": false,
      "t": 8998.067925000016,
      "d": 629.8070625,
      "v": 110
    },
    {
      "midi": 50,
      "hit": false,
      "t": 8999.990999999989,
      "d": 225.96131249999962,
      "v": 92
    },
    {
      "midi": 43,
      "hit": false,
      "t": 8999.990999999989,
      "d": 225.96131249999962,
      "v": 99
    },
    {
      "midi": 36,
      "hit": false,
      "t": 8999.990999999989,
      "d": 225.96131249999962,
      "v": 97
    },
    {
      "midi": 42,
      "hit": false,
      "t": 8999.990999999989,
      "d": 225.96131249999962,
      "v": 79
    },
    {
      "midi": 43,
      "hit": false,
      "t": 8999.990999999996,
      "d": 225.96131249999962,
      "v": 110
    },
    {
      "midi": 55,
      "hit": false,
      "t": 8999.990999999996,
      "d": 923.0759999999991,
      "v": 64
    },
    {
      "midi": 59,
      "hit": false,
      "t": 8999.990999999996,
      "d": 923.0759999999991,
      "v": 61
    },
    {
      "midi": 62,
      "hit": false,
      "t": 8999.990999999996,
      "d": 923.0759999999991,
      "v": 66
    },
    {
      "midi": 50,
      "hit": false,
      "t": 8999.990999999996,
      "d": 918.2683125000003,
      "v": 94
    },
    {
      "midi": 62,
      "hit": false,
      "t": 8999.990999999996,
      "d": 918.2683125000003,
      "v": 94
    },
    {
      "midi": 50,
      "hit": false,
      "t": 9230.75999999999,
      "d": 225.96131249999962,
      "v": 85
    },
    {
      "midi": 43,
      "hit": false,
      "t": 9230.75999999999,
      "d": 225.96131249999962,
      "v": 97
    },
    {
      "midi": 42,
      "hit": false,
      "t": 9230.75999999999,
      "d": 225.96131249999962,
      "v": 96
    },
    {
      "midi": 36,
      "hit": false,
      "t": 9230.75999999999,
      "d": 456.73031249999985,
      "v": 113
    },
    {
      "midi": 43,
      "hit": false,
      "t": 9230.759999999997,
      "d": 456.73031249999985,
      "v": 104
    },
    {
      "midi": 50,
      "hit": false,
      "t": 9461.52899999999,
      "d": 225.96131249999962,
      "v": 88
    },
    {
      "midi": 43,
      "hit": false,
      "t": 9461.52899999999,
      "d": 225.96131249999962,
      "v": 99
    },
    {
      "midi": 42,
      "hit": false,
      "t": 9461.52899999999,
      "d": 225.96131249999962,
      "v": 77
    },
    {
      "midi": 55,
      "hit": false,
      "t": 9535.567387500016,
      "d": 768.2684624999965,
      "v": 90
    },
    {
      "midi": 43,
      "hit": false,
      "t": 9692.29799999999,
      "d": 225.96131249999962,
      "v": 99
    },
    {
      "midi": 52,
      "hit": false,
      "t": 9692.29799999999,
      "d": 225.96131249999962,
      "v": 86
    },
    {
      "midi": 38,
      "hit": false,
      "t": 9692.29799999999,
      "d": 225.96131249999962,
      "v": 113
    },
    {
      "midi": 42,
      "hit": false,
      "t": 9692.29799999999,
      "d": 225.96131249999962,
      "v": 71
    },
    {
      "midi": 59,
      "hit": false,
      "t": 9727.874887500016,
      "d": 164.42291249999835,
      "v": 75
    },
    {
      "midi": 62,
      "hit": false,
      "t": 9743.259487500016,
      "d": 110.5768124999995,
      "v": 88
    },
    {
      "midi": 60,
      "hit": false,
      "t": 9761.528700000015,
      "d": 79.80761250000069,
      "v": 75
    },
    {
      "midi": 50,
      "hit": false,
      "t": 9923.06699999999,
      "d": 225.96131249999962,
      "v": 92
    },
    {
      "midi": 43,
      "hit": false,
      "t": 9923.06699999999,
      "d": 225.96131249999962,
      "v": 94
    },
    {
      "midi": 36,
      "hit": false,
      "t": 9923.06699999999,
      "d": 225.96131249999962,
      "v": 104
    },
    {
      "midi": 42,
      "hit": false,
      "t": 9923.06699999999,
      "d": 225.96131249999962,
      "v": 73
    },
    {
      "midi": 43,
      "hit": false,
      "t": 9923.066999999997,
      "d": 225.96131249999962,
      "v": 101
    },
    {
      "midi": 59,
      "hit": false,
      "t": 9942.297750000014,
      "d": 143.26908749999893,
      "v": 66
    },
    {
      "midi": 62,
      "hit": false,
      "t": 9943.259287500014,
      "d": 127.88448749999952,
      "v": 82
    },
    {
      "midi": 62,
      "hit": false,
      "t": 10147.105237500013,
      "d": 94.23067499999888,
      "v": 74
    },
    {
      "midi": 59,
      "hit": false,
      "t": 10148.066775000012,
      "d": 80.76915000000008,
      "v": 61
    },
    {
      "midi": 50,
      "hit": false,
      "t": 10153.83599999999,
      "d": 225.96131249999962,
      "v": 85
    },
    {
      "midi": 43,
      "hit": false,
      "t": 10153.83599999999,
      "d": 225.96131249999962,
      "v": 92
    },
    {
      "midi": 42,
      "hit": false,
      "t": 10153.83599999999,
      "d": 225.96131249999962,
      "v": 84
    },
    {
      "midi": 36,
      "hit": false,
      "t": 10153.83599999999,
      "d": 456.73031249999985,
      "v": 110
    },
    {
      "midi": 43,
      "hit": false,
      "t": 10153.835999999998,
      "d": 225.96131249999962,
      "v": 117
    },
    {
      "midi": 50,
      "hit": false,
      "t": 10384.60499999999,
      "d": 225.96131249999962,
      "v": 83
    },
    {
      "midi": 43,
      "hit": false,
      "t": 10384.60499999999,
      "d": 225.96131249999962,
      "v": 94
    },
    {
      "midi": 42,
      "hit": false,
      "t": 10384.60499999999,
      "d": 225.96131249999962,
      "v": 81
    },
    {
      "midi": 43,
      "hit": false,
      "t": 10384.604999999998,
      "d": 225.96131249999962,
      "v": 101
    },
    {
      "midi": 55,
      "hit": false,
      "t": 10413.451125000012,
      "d": 88.46144999999888,
      "v": 66
    },
    {
      "midi": 59,
      "hit": false,
      "t": 10428.835725000012,
      "d": 59.61532499999885,
      "v": 92
    },
    {
      "midi": 62,
      "hit": false,
      "t": 10429.797262500011,
      "d": 57.69225000000006,
      "v": 94
    },
    {
      "midi": 55,
      "hit": false,
      "t": 10589.41248750001,
      "d": 203.845949999999,
      "v": 68
    },
    {
      "midi": 60,
      "hit": false,
      "t": 10606.72016250001,
      "d": 136.53832499999953,
      "v": 88
    },
    {
      "midi": 64,
      "hit": false,
      "t": 10607.68170000001,
      "d": 123.07680000000073,
      "v": 92
    },
    {
      "midi": 43,
      "hit": false,
      "t": 10615.37399999999,
      "d": 225.96131249999962,
      "v": 99
    },
    {
      "midi": 52,
      "hit": false,
      "t": 10615.37399999999,
      "d": 225.96131249999962,
      "v": 92
    },
    {
      "midi": 38,
      "hit": false,
      "t": 10615.37399999999,
      "d": 225.96131249999962,
      "v": 113
    },
    {
      "midi": 42,
      "hit": false,
      "t": 10615.37399999999,
      "d": 225.96131249999962,
      "v": 86
    },
    {
      "midi": 40,
      "hit": false,
      "t": 10615.373999999998,
      "d": 225.96131249999962,
      "v": 110
    },
    {
      "midi": 62,
      "hit": false,
      "t": 10844.219925000009,
      "d": 549.0379125,
      "v": 99
    },
    {
      "midi": 55,
      "hit": false,
      "t": 10844.219925000009,
      "d": 550.9609875000006,
      "v": 54
    },
    {
      "midi": 59,
      "hit": false,
      "t": 10845.181462500008,
      "d": 550.9609875000006,
      "v": 94
    },
    {
      "midi": 43,
      "hit": false,
      "t": 10846.142999999991,
      "d": 225.96131249999962,
      "v": 97
    },
    {
      "midi": 50,
      "hit": false,
      "t": 10846.142999999991,
      "d": 225.96131249999962,
      "v": 90
    },
    {
      "midi": 36,
      "hit": false,
      "t": 10846.142999999991,
      "d": 225.96131249999962,
      "v": 113
    },
    {
      "midi": 46,
      "hit": false,
      "t": 10846.142999999991,
      "d": 225.96131249999962,
      "v": 79
    },
    {
      "midi": 38,
      "hit": false,
      "t": 10846.142999999998,
      "d": 225.96131249999962,
      "v": 120
    },
    {
      "midi": 50,
      "hit": false,
      "t": 11076.911999999991,
      "d": 225.96131249999962,
      "v": 86
    },
    {
      "midi": 43,
      "hit": false,
      "t": 11076.911999999991,
      "d": 225.96131249999962,
      "v": 97
    },
    {
      "midi": 42,
      "hit": false,
      "t": 11076.911999999991,
      "d": 225.96131249999962,
      "v": 89
    },
    {
      "midi": 36,
      "hit": false,
      "t": 11076.911999999991,
      "d": 456.73031249999985,
      "v": 113
    },
    {
      "midi": 62,
      "hit": false,
      "t": 11076.911999999995,
      "d": 225.96131249999962,
      "v": 80
    },
    {
      "midi": 59,
      "hit": false,
      "t": 11076.911999999995,
      "d": 225.96131249999962,
      "v": 73
    },
    {
      "midi": 55,
      "hit": false,
      "t": 11076.911999999995,
      "d": 225.96131249999962,
      "v": 75
    },
    {
      "midi": 74,
      "hit": false,
      "t": 11076.911999999997,
      "d": 225.96131249999962,
      "v": 97
    },
    {
      "midi": 62,
      "hit": false,
      "t": 11076.911999999997,
      "d": 225.96131249999962,
      "v": 92
    },
    {
      "midi": 71,
      "hit": false,
      "t": 11076.911999999997,
      "d": 225.96131249999962,
      "v": 94
    },
    {
      "midi": 43,
      "hit": false,
      "t": 11076.911999999998,
      "d": 456.73031249999985,
      "v": 104
    },
    {
      "midi": 50,
      "hit": false,
      "t": 11307.680999999991,
      "d": 225.96131249999962,
      "v": 90
    },
    {
      "midi": 43,
      "hit": false,
      "t": 11307.680999999991,
      "d": 225.96131249999962,
      "v": 94
    },
    {
      "midi": 42,
      "hit": false,
      "t": 11307.680999999991,
      "d": 225.96131249999962,
      "v": 81
    },
    {
      "midi": 62,
      "hit": false,
      "t": 11307.680999999995,
      "d": 225.96131249999962,
      "v": 74
    },
    {
      "midi": 55,
      "hit": false,
      "t": 11307.680999999995,
      "d": 225.96131249999962,
      "v": 69
    },
    {
      "midi": 59,
      "hit": false,
      "t": 11307.680999999995,
      "d": 225.96131249999962,
      "v": 67
    },
    {
      "midi": 74,
      "hit": false,
      "t": 11307.680999999997,
      "d": 225.96131249999962,
      "v": 101
    },
    {
      "midi": 62,
      "hit": false,
      "t": 11307.680999999997,
      "d": 225.96131249999962,
      "v": 97
    },
    {
      "midi": 71,
      "hit": false,
      "t": 11307.680999999997,
      "d": 225.96131249999962,
      "v": 94
    },
    {
      "midi": 55,
      "hit": false,
      "t": 11520.180787500009,
      "d": 175.96136250000018,
      "v": 78
    },
    {
      "midi": 60,
      "hit": false,
      "t": 11535.565387500008,
      "d": 147.11523750000015,
      "v": 88
    },
    {
      "midi": 64,
      "hit": false,
      "t": 11536.526925000007,
      "d": 131.73063750000074,
      "v": 82
    },
    {
      "midi": 43,
      "hit": false,
      "t": 11538.449999999992,
      "d": 225.96131249999962,
      "v": 97
    },
    {
      "midi": 52,
      "hit": false,
      "t": 11538.449999999992,
      "d": 225.96131249999962,
      "v": 85
    },
    {
      "midi": 42,
      "hit": false,
      "t": 11538.449999999992,
      "d": 225.96131249999962,
      "v": 84
    },
    {
      "midi": 38,
      "hit": false,
      "t": 11538.449999999992,
      "d": 225.96131249999962,
      "v": 113
    },
    {
      "midi": 55,
      "hit": false,
      "t": 11538.449999999995,
      "d": 225.96131249999962,
      "v": 73
    },
    {
      "midi": 64,
      "hit": false,
      "t": 11538.449999999995,
      "d": 225.96131249999962,
      "v": 72
    },
    {
      "midi": 60,
      "hit": false,
      "t": 11538.449999999995,
      "d": 225.96131249999962,
      "v": 72
    },
    {
      "midi": 76,
      "hit": false,
      "t": 11538.449999999997,
      "d": 225.96131249999962,
      "v": 107
    },
    {
      "midi": 64,
      "hit": false,
      "t": 11538.449999999997,
      "d": 225.96131249999962,
      "v": 99
    },
    {
      "midi": 72,
      "hit": false,
      "t": 11538.449999999997,
      "d": 225.96131249999962,
      "v": 99
    },
    {
      "midi": 50,
      "hit": false,
      "t": 11769.218999999992,
      "d": 225.96131249999962,
      "v": 90
    },
    {
      "midi": 43,
      "hit": false,
      "t": 11769.218999999992,
      "d": 225.96131249999962,
      "v": 94
    },
    {
      "midi": 42,
      "hit": false,
      "t": 11769.218999999992,
      "d": 225.96131249999962,
      "v": 86
    },
    {
      "midi": 36,
      "hit": false,
      "t": 11769.218999999992,
      "d": 225.96131249999962,
      "v": 123
    },
    {
      "midi": 62,
      "hit": false,
      "t": 11769.218999999996,
      "d": 918.2683125000003,
      "v": 85
    },
    {
      "midi": 59,
      "hit": false,
      "t": 11769.218999999996,
      "d": 918.2683125000003,
      "v": 80
    },
    {
      "midi": 55,
      "hit": false,
      "t": 11769.218999999996,
      "d": 918.2683125000003,
      "v": 82
    },
    {
      "midi": 74,
      "hit": false,
      "t": 11769.218999999997,
      "d": 918.2683125000003,
      "v": 92
    },
    {
      "midi": 62,
      "hit": false,
      "t": 11769.218999999997,
      "d": 918.2683125000003,
      "v": 99
    },
    {
      "midi": 71,
      "hit": false,
      "t": 11769.218999999997,
      "d": 918.2683125000003,
      "v": 99
    },
    {
      "midi": 43,
      "hit": false,
      "t": 11769.219,
      "d": 225.96131249999962,
      "v": 110
    },
    {
      "midi": 59,
      "hit": false,
      "t": 11781.718987500008,
      "d": 368.26886249999916,
      "v": 76
    },
    {
      "midi": 62,
      "hit": false,
      "t": 11799.026662500008,
      "d": 349.03811249999853,
      "v": 90
    },
    {
      "midi": 55,
      "hit": false,
      "t": 11799.988200000007,
      "d": 335.57658749999973,
      "v": 72
    },
    {
      "midi": 50,
      "hit": false,
      "t": 11999.987999999992,
      "d": 225.96131249999962,
      "v": 86
    },
    {
      "midi": 43,
      "hit": false,
      "t": 11999.987999999992,
      "d": 225.96131249999962,
      "v": 97
    },
    {
      "midi": 42,
      "hit": false,
      "t": 11999.987999999992,
      "d": 225.96131249999962,
      "v": 92
    },
    {
      "midi": 36,
      "hit": false,
      "t": 11999.987999999992,
      "d": 456.73031249999985,
      "v": 110
    },
    {
      "midi": 43,
      "hit": false,
      "t": 11999.988,
      "d": 456.73031249999985,
      "v": 110
    },
    {
      "midi": 50,
      "hit": false,
      "t": 12230.756999999992,
      "d": 225.96131249999962,
      "v": 85
    },
    {
      "midi": 43,
      "hit": false,
      "t": 12230.756999999992,
      "d": 225.96131249999962,
      "v": 97
    },
    {
      "midi": 46,
      "hit": false,
      "t": 12230.756999999992,
      "d": 225.96131249999962,
      "v": 89
    },
    {
      "midi": 55,
      "hit": false,
      "t": 12249.026212500006,
      "d": 111.5383499999989,
      "v": 82
    },
    {
      "midi": 59,
      "hit": false,
      "t": 12249.987750000006,
      "d": 109.61527500000011,
      "v": 79
    },
    {
      "midi": 62,
      "hit": false,
      "t": 12250.949287500005,
      "d": 95.1922125000001,
      "v": 86
    },
    {
      "midi": 43,
      "hit": false,
      "t": 12461.525999999993,
      "d": 225.96131249999962,
      "v": 99
    },
    {
      "midi": 52,
      "hit": false,
      "t": 12461.525999999993,
      "d": 225.96131249999962,
      "v": 85
    },
    {
      "midi": 42,
      "hit": false,
      "t": 12461.525999999993,
      "d": 225.96131249999962,
      "v": 92
    },
    {
      "midi": 38,
      "hit": false,
      "t": 12461.525999999993,
      "d": 225.96131249999962,
      "v": 110
    },
    {
      "midi": 55,
      "hit": false,
      "t": 12472.102912500004,
      "d": 151.92292499999894,
      "v": 75
    },
    {
      "midi": 60,
      "hit": false,
      "t": 12473.064450000003,
      "d": 124.03833750000013,
      "v": 85
    },
    {
      "midi": 64,
      "hit": false,
      "t": 12493.256737500004,
      "d": 102.88451250000071,
      "v": 85
    },
    {
      "midi": 50,
      "hit": false,
      "t": 12692.294999999993,
      "d": 225.96131249999962,
      "v": 86
    },
    {
      "midi": 43,
      "hit": false,
      "t": 12692.294999999993,
      "d": 225.96131249999962,
      "v": 94
    },
    {
      "midi": 42,
      "hit": false,
      "t": 12692.294999999993,
      "d": 225.96131249999962,
      "v": 79
    },
    {
      "midi": 36,
      "hit": false,
      "t": 12692.294999999993,
      "d": 225.96131249999962,
      "v": 120
    },
    {
      "midi": 43,
      "hit": false,
      "t": 12692.295,
      "d": 225.96131249999962,
      "v": 110
    },
    {
      "midi": 59,
      "hit": false,
      "t": 12709.602675000002,
      "d": 562.4994375000006,
      "v": 83
    },
    {
      "midi": 62,
      "hit": false,
      "t": 12710.564212500001,
      "d": 562.4994375000006,
      "v": 94
    },
    {
      "midi": 55,
      "hit": false,
      "t": 12710.564212500001,
      "d": 575.9609625000012,
      "v": 72
    },
    {
      "midi": 50,
      "hit": false,
      "t": 12923.063999999993,
      "d": 225.96131249999962,
      "v": 86
    },
    {
      "midi": 43,
      "hit": false,
      "t": 12923.063999999993,
      "d": 225.96131249999962,
      "v": 94
    },
    {
      "midi": 42,
      "hit": false,
      "t": 12923.063999999993,
      "d": 225.96131249999962,
      "v": 89
    },
    {
      "midi": 36,
      "hit": false,
      "t": 12923.063999999993,
      "d": 456.73031249999985,
      "v": 113
    },
    {
      "midi": 62,
      "hit": false,
      "t": 12923.063999999997,
      "d": 225.96131249999962,
      "v": 75
    },
    {
      "midi": 59,
      "hit": false,
      "t": 12923.063999999997,
      "d": 225.96131249999962,
      "v": 67
    },
    {
      "midi": 55,
      "hit": false,
      "t": 12923.063999999997,
      "d": 225.96131249999962,
      "v": 71
    },
    {
      "midi": 71,
      "hit": false,
      "t": 12923.063999999998,
      "d": 225.96131249999962,
      "v": 90
    },
    {
      "midi": 67,
      "hit": false,
      "t": 12923.063999999998,
      "d": 225.96131249999962,
      "v": 97
    },
    {
      "midi": 59,
      "hit": false,
      "t": 12923.063999999998,
      "d": 225.96131249999962,
      "v": 94
    },
    {
      "midi": 43,
      "hit": false,
      "t": 12923.064,
      "d": 456.73031249999985,
      "v": 104
    },
    {
      "midi": 50,
      "hit": false,
      "t": 13153.832999999993,
      "d": 225.96131249999962,
      "v": 85
    },
    {
      "midi": 43,
      "hit": false,
      "t": 13153.832999999993,
      "d": 225.96131249999962,
      "v": 99
    },
    {
      "midi": 42,
      "hit": false,
      "t": 13153.832999999993,
      "d": 225.96131249999962,
      "v": 66
    },
    {
      "midi": 62,
      "hit": false,
      "t": 13153.832999999997,
      "d": 225.96131249999962,
      "v": 75
    },
    {
      "midi": 55,
      "hit": false,
      "t": 13153.832999999997,
      "d": 225.96131249999962,
      "v": 74
    },
    {
      "midi": 59,
      "hit": false,
      "t": 13153.832999999997,
      "d": 225.96131249999962,
      "v": 68
    },
    {
      "midi": 71,
      "hit": false,
      "t": 13153.832999999999,
      "d": 225.96131249999962,
      "v": 101
    },
    {
      "midi": 59,
      "hit": false,
      "t": 13153.832999999999,
      "d": 225.96131249999962,
      "v": 99
    },
    {
      "midi": 67,
      "hit": false,
      "t": 13153.832999999999,
      "d": 225.96131249999962,
      "v": 99
    },
    {
      "midi": 55,
      "hit": false,
      "t": 13362.486637500002,
      "d": 137.49986249999893,
      "v": 51
    },
    {
      "midi": 60,
      "hit": false,
      "t": 13377.871237500001,
      "d": 108.6537374999989,
      "v": 75
    },
    {
      "midi": 64,
      "hit": false,
      "t": 13378.832775,
      "d": 95.1922125000001,
      "v": 83
    },
    {
      "midi": 52,
      "hit": false,
      "t": 13384.601999999993,
      "d": 225.96131249999962,
      "v": 85
    },
    {
      "midi": 43,
      "hit": false,
      "t": 13384.601999999993,
      "d": 225.96131249999962,
      "v": 99
    },
    {
      "midi": 38,
      "hit": false,
      "t": 13384.601999999993,
      "d": 225.96131249999962,
      "v": 107
    },
    {
      "midi": 42,
      "hit": false,
      "t": 13384.601999999993,
      "d": 225.96131249999962,
      "v": 62
    },
    {
      "midi": 64,
      "hit": false,
      "t": 13384.601999999997,
      "d": 225.96131249999962,
      "v": 74
    },
    {
      "midi": 60,
      "hit": false,
      "t": 13384.601999999997,
      "d": 225.96131249999962,
      "v": 68
    },
    {
      "midi": 55,
      "hit": false,
      "t": 13384.601999999997,
      "d": 225.96131249999962,
      "v": 74
    },
    {
      "midi": 72,
      "hit": false,
      "t": 13384.601999999999,
      "d": 225.96131249999962,
      "v": 97
    },
    {
      "midi": 69,
      "hit": false,
      "t": 13384.601999999999,
      "d": 225.96131249999962,
      "v": 94
    },
    {
      "midi": 60,
      "hit": false,
      "t": 13384.601999999999,
      "d": 225.96131249999962,
      "v": 99
    },
    {
      "midi": 59,
      "hit": false,
      "t": 13599.0248625,
      "d": 402.8842124999992,
      "v": 85
    },
    {
      "midi": 50,
      "hit": false,
      "t": 13615.370999999994,
      "d": 225.96131249999962,
      "v": 86
    },
    {
      "midi": 43,
      "hit": false,
      "t": 13615.370999999994,
      "d": 225.96131249999962,
      "v": 99
    },
    {
      "midi": 36,
      "hit": false,
      "t": 13615.370999999994,
      "d": 225.96131249999962,
      "v": 110
    },
    {
      "midi": 42,
      "hit": false,
      "t": 13615.370999999994,
      "d": 225.96131249999962,
      "v": 59
    },
    {
      "midi": 55,
      "hit": false,
      "t": 13615.370999999997,
      "d": 918.2683125000003,
      "v": 76
    },
    {
      "midi": 62,
      "hit": false,
      "t": 13615.370999999997,
      "d": 918.2683125000003,
      "v": 82
    },
    {
      "midi": 59,
      "hit": false,
      "t": 13615.370999999997,
      "d": 918.2683125000003,
      "v": 72
    },
    {
      "midi": 71,
      "hit": false,
      "t": 13615.371,
      "d": 918.2683125000003,
      "v": 94
    },
    {
      "midi": 59,
      "hit": false,
      "t": 13615.371,
      "d": 918.2683125000003,
      "v": 99
    },
    {
      "midi": 67,
      "hit": false,
      "t": 13615.371,
      "d": 918.2683125000003,
      "v": 99
    },
    {
      "midi": 43,
      "hit": false,
      "t": 13615.371000000001,
      "d": 225.96131249999962,
      "v": 101
    },
    {
      "midi": 55,
      "hit": false,
      "t": 13616.3325375,
      "d": 373.07654999999977,
      "v": 69
    },
    {
      "midi": 62,
      "hit": false,
      "t": 13617.294075,
      "d": 347.11503749999974,
      "v": 94
    },
    {
      "midi": 50,
      "hit": false,
      "t": 13846.139999999994,
      "d": 225.96131249999962,
      "v": 86
    },
    {
      "midi": 43,
      "hit": false,
      "t": 13846.139999999994,
      "d": 225.96131249999962,
      "v": 94
    },
    {
      "midi": 42,
      "hit": false,
      "t": 13846.139999999994,
      "d": 225.96131249999962,
      "v": 96
    },
    {
      "midi": 36,
      "hit": false,
      "t": 13846.139999999994,
      "d": 456.73031249999985,
      "v": 117
    },
    {
      "midi": 43,
      "hit": false,
      "t": 13846.140000000001,
      "d": 225.96131249999962,
      "v": 117
    },
    {
      "midi": 50,
      "hit": false,
      "t": 14076.908999999994,
      "d": 225.96131249999962,
      "v": 85
    },
    {
      "midi": 43,
      "hit": false,
      "t": 14076.908999999994,
      "d": 225.96131249999962,
      "v": 92
    },
    {
      "midi": 42,
      "hit": false,
      "t": 14076.908999999994,
      "d": 225.96131249999962,
      "v": 79
    },
    {
      "midi": 43,
      "hit": false,
      "t": 14076.909000000001,
      "d": 225.96131249999962,
      "v": 101
    },
    {
      "midi": 59,
      "hit": false,
      "t": 14077.870537499999,
      "d": 159.61522499999955,
      "v": 66
    },
    {
      "midi": 55,
      "hit": false,
      "t": 14094.216675,
      "d": 117.3075749999989,
      "v": 55
    },
    {
      "midi": 62,
      "hit": false,
      "t": 14109.601274999999,
      "d": 102.88451249999889,
      "v": 86
    },
    {
      "midi": 43,
      "hit": false,
      "t": 14307.677999999994,
      "d": 225.96131249999962,
      "v": 83
    },
    {
      "midi": 52,
      "hit": false,
      "t": 14307.677999999994,
      "d": 225.96131249999962,
      "v": 94
    },
    {
      "midi": 38,
      "hit": false,
      "t": 14307.677999999994,
      "d": 225.96131249999962,
      "v": 107
    },
    {
      "midi": 42,
      "hit": false,
      "t": 14307.677999999994,
      "d": 225.96131249999962,
      "v": 64
    },
    {
      "midi": 40,
      "hit": false,
      "t": 14307.678000000002,
      "d": 225.96131249999962,
      "v": 110
    },
    {
      "midi": 59,
      "hit": false,
      "t": 14324.985674999998,
      "d": 135.57678750000014,
      "v": 74
    },
    {
      "midi": 55,
      "hit": false,
      "t": 14325.947212499997,
      "d": 147.11523750000015,
      "v": 62
    },
    {
      "midi": 64,
      "hit": false,
      "t": 14344.216424999997,
      "d": 102.88451250000071,
      "v": 86
    },
    {
      "midi": 43,
      "hit": false,
      "t": 14538.446999999995,
      "d": 225.96131249999962,
      "v": 85
    },
    {
      "midi": 50,
      "hit": false,
      "t": 14538.446999999995,
      "d": 225.96131249999962,
      "v": 88
    },
    {
      "midi": 36,
      "hit": false,
      "t": 14538.446999999995,
      "d": 225.96131249999962,
      "v": 99
    },
    {
      "midi": 42,
      "hit": false,
      "t": 14538.446999999995,
      "d": 225.96131249999962,
      "v": 77
    },
    {
      "midi": 38,
      "hit": false,
      "t": 14538.447000000002,
      "d": 225.96131249999962,
      "v": 120
    },
    {
      "midi": 59,
      "hit": false,
      "t": 14549.023912499997,
      "d": 136.5383249999977,
      "v": 71
    },
    {
      "midi": 55,
      "hit": false,
      "t": 14549.985449999996,
      "d": 133.65371249999953,
      "v": 63
    },
    {
      "midi": 62,
      "hit": false,
      "t": 14550.946987499996,
      "d": 133.65371249999953,
      "v": 86
    },
    {
      "midi": 43,
      "hit": false,
      "t": 14769.215999999995,
      "d": 225.96131249999962,
      "v": 86
    },
    {
      "midi": 50,
      "hit": false,
      "t": 14769.215999999995,
      "d": 225.96131249999962,
      "v": 80
    },
    {
      "midi": 42,
      "hit": false,
      "t": 14769.215999999995,
      "d": 225.96131249999962,
      "v": 92
    },
    {
      "midi": 36,
      "hit": false,
      "t": 14769.215999999995,
      "d": 456.73031249999985,
      "v": 110
    },
    {
      "midi": 62,
      "hit": false,
      "t": 14769.215999999999,
      "d": 225.96131249999962,
      "v": 72
    },
    {
      "midi": 59,
      "hit": false,
      "t": 14769.215999999999,
      "d": 225.96131249999962,
      "v": 68
    },
    {
      "midi": 55,
      "hit": false,
      "t": 14769.215999999999,
      "d": 225.96131249999962,
      "v": 73
    },
    {
      "midi": 55,
      "hit": false,
      "t": 14769.216,
      "d": 225.96131249999962,
      "v": 97
    },
    {
      "midi": 67,
      "hit": false,
      "t": 14769.216,
      "d": 225.96131249999962,
      "v": 99
    },
    {
      "midi": 43,
      "hit": false,
      "t": 14769.216000000002,
      "d": 456.73031249999985,
      "v": 104
    },
    {
      "midi": 55,
      "hit": false,
      "t": 14798.062124999995,
      "d": 124.99987499999952,
      "v": 70
    },
    {
      "midi": 62,
      "hit": false,
      "t": 14799.023662499994,
      "d": 111.53835000000072,
      "v": 86
    },
    {
      "midi": 59,
      "hit": false,
      "t": 14799.023662499994,
      "d": 124.99987499999952,
      "v": 75
    },
    {
      "midi": 50,
      "hit": false,
      "t": 14999.984999999995,
      "d": 225.96131249999962,
      "v": 94
    },
    {
      "midi": 43,
      "hit": false,
      "t": 14999.984999999995,
      "d": 225.96131249999962,
      "v": 94
    },
    {
      "midi": 42,
      "hit": false,
      "t": 14999.984999999995,
      "d": 225.96131249999962,
      "v": 60
    },
    {
      "midi": 62,
      "hit": false,
      "t": 14999.984999999999,
      "d": 225.96131249999962,
      "v": 68
    },
    {
      "midi": 59,
      "hit": false,
      "t": 14999.984999999999,
      "d": 225.96131249999962,
      "v": 66
    },
    {
      "midi": 55,
      "hit": false,
      "t": 14999.984999999999,
      "d": 225.96131249999962,
      "v": 74
    },
    {
      "midi": 67,
      "hit": false,
      "t": 14999.985,
      "d": 225.96131249999962,
      "v": 92
    },
    {
      "midi": 55,
      "hit": false,
      "t": 14999.985,
      "d": 225.96131249999962,
      "v": 92
    },
    {
      "midi": 55,
      "hit": false,
      "t": 15012.484987499993,
      "d": 88.4614500000007,
      "v": 62
    },
    {
      "midi": 59,
      "hit": false,
      "t": 15012.484987499993,
      "d": 125.96141250000073,
      "v": 65
    },
    {
      "midi": 62,
      "hit": false,
      "t": 15014.408062499993,
      "d": 124.03833750000013,
      "v": 75
    },
    {
      "midi": 52,
      "hit": false,
      "t": 15230.753999999995,
      "d": 225.96131249999962,
      "v": 83
    },
    {
      "midi": 43,
      "hit": false,
      "t": 15230.753999999995,
      "d": 225.96131249999962,
      "v": 99
    },
    {
      "midi": 38,
      "hit": false,
      "t": 15230.753999999995,
      "d": 225.96131249999962,
      "v": 110
    },
    {
      "midi": 42,
      "hit": false,
      "t": 15230.753999999995,
      "d": 225.96131249999962,
      "v": 66
    },
    {
      "midi": 62,
      "hit": false,
      "t": 15230.753999999999,
      "d": 225.96131249999962,
      "v": 79
    },
    {
      "midi": 59,
      "hit": false,
      "t": 15230.753999999999,
      "d": 225.96131249999962,
      "v": 75
    },
    {
      "midi": 57,
      "hit": false,
      "t": 15230.753999999999,
      "d": 225.96131249999962,
      "v": 75
    },
    {
      "midi": 69,
      "hit": false,
      "t": 15230.754,
      "d": 225.96131249999962,
      "v": 86
    },
    {
      "midi": 57,
      "hit": false,
      "t": 15230.754,
      "d": 225.96131249999962,
      "v": 97
    },
    {
      "midi": 57,
      "hit": false,
      "t": 15249.984749999992,
      "d": 119.2306499999977,
      "v": 88
    },
    {
      "midi": 59,
      "hit": false,
      "t": 15250.946287499992,
      "d": 131.73063749999892,
      "v": 71
    },
    {
      "midi": 60,
      "hit": false,
      "t": 15271.138574999992,
      "d": 21.153824999999415,
      "v": 58
    },
    {
      "midi": 62,
      "hit": false,
      "t": 15271.138574999992,
      "d": 97.11528749999889,
      "v": 85
    },
    {
      "midi": 43,
      "hit": false,
      "t": 15461.522999999996,
      "d": 225.96131249999962,
      "v": 92
    },
    {
      "midi": 50,
      "hit": false,
      "t": 15461.522999999996,
      "d": 225.96131249999962,
      "v": 88
    },
    {
      "midi": 36,
      "hit": false,
      "t": 15461.522999999996,
      "d": 225.96131249999962,
      "v": 104
    },
    {
      "midi": 42,
      "hit": false,
      "t": 15461.522999999996,
      "d": 225.96131249999962,
      "v": 62
    },
    {
      "midi": 62,
      "hit": false,
      "t": 15461.523,
      "d": 687.4993125000001,
      "v": 78
    },
    {
      "midi": 59,
      "hit": false,
      "t": 15461.523,
      "d": 687.4993125000001,
      "v": 72
    },
    {
      "midi": 55,
      "hit": false,
      "t": 15461.523,
      "d": 687.4993125000001,
      "v": 66
    },
    {
      "midi": 55,
      "hit": false,
      "t": 15461.523000000001,
      "d": 687.4993125000001,
      "v": 88
    },
    {
      "midi": 67,
      "hit": false,
      "t": 15461.523000000001,
      "d": 687.4993125000001,
      "v": 97
    },
    {
      "midi": 43,
      "hit": false,
      "t": 15461.523000000003,
      "d": 225.96131249999962,
      "v": 110
    },
    {
      "midi": 59,
      "hit": false,
      "t": 15470.17683749999,
      "d": 477.88413749999927,
      "v": 73
    },
    {
      "midi": 62,
      "hit": false,
      "t": 15471.13837499999,
      "d": 502.8841124999999,
      "v": 78
    },
    {
      "midi": 55,
      "hit": false,
      "t": 15490.36912499999,
      "d": 336.5381249999991,
      "v": 94
    },
    {
      "midi": 50,
      "hit": false,
      "t": 15692.291999999996,
      "d": 225.96131249999962,
      "v": 82
    },
    {
      "midi": 43,
      "hit": false,
      "t": 15692.291999999996,
      "d": 225.96131249999962,
      "v": 92
    },
    {
      "midi": 42,
      "hit": false,
      "t": 15692.291999999996,
      "d": 225.96131249999962,
      "v": 86
    },
    {
      "midi": 36,
      "hit": false,
      "t": 15692.291999999996,
      "d": 456.73031249999985,
      "v": 110
    },
    {
      "midi": 43,
      "hit": false,
      "t": 15692.292000000003,
      "d": 456.73031249999985,
      "v": 110
    },
    {
      "midi": 50,
      "hit": false,
      "t": 15923.060999999996,
      "d": 225.96131249999962,
      "v": 58
    },
    {
      "midi": 43,
      "hit": false,
      "t": 15923.060999999996,
      "d": 225.96131249999962,
      "v": 88
    },
    {
      "midi": 42,
      "hit": false,
      "t": 15923.060999999996,
      "d": 225.96131249999962,
      "v": 75
    },
    {
      "midi": 55,
      "hit": false,
      "t": 16049.02241249999,
      "d": 124.99987499999952,
      "v": 60
    },
    {
      "midi": 43,
      "hit": false,
      "t": 16153.829999999996,
      "d": 225.96131249999962,
      "v": 110
    },
    {
      "midi": 52,
      "hit": false,
      "t": 16153.829999999996,
      "d": 225.96131249999962,
      "v": 88
    },
    {
      "midi": 38,
      "hit": false,
      "t": 16153.829999999996,
      "d": 225.96131249999962,
      "v": 107
    },
    {
      "midi": 42,
      "hit": false,
      "t": 16153.829999999996,
      "d": 225.96131249999962,
      "v": 69
    },
    {
      "midi": 59,
      "hit": false,
      "t": 16153.83,
      "d": 225.96131249999962,
      "v": 67
    },
    {
      "midi": 64,
      "hit": false,
      "t": 16153.83,
      "d": 225.96131249999962,
      "v": 66
    },
    {
      "midi": 55,
      "hit": false,
      "t": 16153.83,
      "d": 225.96131249999962,
      "v": 76
    },
    {
      "midi": 64,
      "hit": false,
      "t": 16153.830000000002,
      "d": 225.96131249999962,
      "v": 92
    },
    {
      "midi": 52,
      "hit": false,
      "t": 16153.830000000002,
      "d": 225.96131249999962,
      "v": 85
    },
    {
      "midi": 43,
      "hit": false,
      "t": 16153.830000000004,
      "d": 225.96131249999962,
      "v": 110
    },
    {
      "midi": 55,
      "hit": false,
      "t": 16199.983799999989,
      "d": 62.49993749999885,
      "v": 49
    },
    {
      "midi": 62,
      "hit": false,
      "t": 16200.945337499988,
      "d": 89.42298749999827,
      "v": 90
    },
    {
      "midi": 59,
      "hit": false,
      "t": 16201.906874999988,
      "d": 87.49991249999948,
      "v": 83
    },
    {
      "midi": 50,
      "hit": false,
      "t": 16384.598999999995,
      "d": 225.96131249999962,
      "v": 94
    },
    {
      "midi": 43,
      "hit": false,
      "t": 16384.598999999995,
      "d": 225.96131249999962,
      "v": 94
    },
    {
      "midi": 36,
      "hit": false,
      "t": 16384.598999999995,
      "d": 225.96131249999962,
      "v": 97
    },
    {
      "midi": 42,
      "hit": false,
      "t": 16384.598999999995,
      "d": 225.96131249999962,
      "v": 79
    },
    {
      "midi": 54,
      "hit": false,
      "t": 16384.599,
      "d": 923.0760000000009,
      "v": 64
    },
    {
      "midi": 57,
      "hit": false,
      "t": 16384.599,
      "d": 923.0760000000009,
      "v": 61
    },
    {
      "midi": 62,
      "hit": false,
      "t": 16384.599,
      "d": 923.0760000000009,
      "v": 66
    },
    {
      "midi": 45,
      "hit": false,
      "t": 16384.599000000002,
      "d": 225.96131249999962,
      "v": 101
    },
    {
      "midi": 62,
      "hit": false,
      "t": 16384.599000000002,
      "d": 1846.1519999999982,
      "v": 94
    },
    {
      "midi": 50,
      "hit": false,
      "t": 16384.599000000002,
      "d": 1846.1519999999982,
      "v": 94
    },
    {
      "midi": 57,
      "hit": false,
      "t": 16615.367999999995,
      "d": 225.96131249999962,
      "v": 92
    },
    {
      "midi": 50,
      "hit": false,
      "t": 16615.367999999995,
      "d": 225.96131249999962,
      "v": 94
    },
    {
      "midi": 42,
      "hit": false,
      "t": 16615.367999999995,
      "d": 225.96131249999962,
      "v": 96
    },
    {
      "midi": 36,
      "hit": false,
      "t": 16615.367999999995,
      "d": 456.73031249999985,
      "v": 113
    },
    {
      "midi": 38,
      "hit": false,
      "t": 16615.368000000002,
      "d": 687.4993125000001,
      "v": 107
    },
    {
      "midi": 69,
      "hit": false,
      "t": 16653.829499999985,
      "d": 589.4224875,
      "v": 90
    },
    {
      "midi": 62,
      "hit": false,
      "t": 16653.829499999985,
      "d": 591.3455624999988,
      "v": 97
    },
    {
      "midi": 66,
      "hit": false,
      "t": 16654.791037499985,
      "d": 396.1534500000016,
      "v": 97
    },
    {
      "midi": 57,
      "hit": false,
      "t": 16846.136999999995,
      "d": 225.96131249999962,
      "v": 79
    },
    {
      "midi": 50,
      "hit": false,
      "t": 16846.136999999995,
      "d": 225.96131249999962,
      "v": 85
    },
    {
      "midi": 42,
      "hit": false,
      "t": 16846.136999999995,
      "d": 225.96131249999962,
      "v": 77
    },
    {
      "midi": 50,
      "hit": false,
      "t": 17076.905999999995,
      "d": 225.96131249999962,
      "v": 90
    },
    {
      "midi": 59,
      "hit": false,
      "t": 17076.905999999995,
      "d": 225.96131249999962,
      "v": 85
    },
    {
      "midi": 38,
      "hit": false,
      "t": 17076.905999999995,
      "d": 225.96131249999962,
      "v": 113
    },
    {
      "midi": 42,
      "hit": false,
      "t": 17076.905999999995,
      "d": 225.96131249999962,
      "v": 71
    },
    {
      "midi": 66,
      "hit": false,
      "t": 17077.867537499988,
      "d": 165.38444999999774,
      "v": 49
    },
    {
      "midi": 50,
      "hit": false,
      "t": 17307.674999999996,
      "d": 225.96131249999962,
      "v": 85
    },
    {
      "midi": 57,
      "hit": false,
      "t": 17307.674999999996,
      "d": 225.96131249999962,
      "v": 78
    },
    {
      "midi": 36,
      "hit": false,
      "t": 17307.674999999996,
      "d": 225.96131249999962,
      "v": 104
    },
    {
      "midi": 42,
      "hit": false,
      "t": 17307.674999999996,
      "d": 225.96131249999962,
      "v": 73
    },
    {
      "midi": 38,
      "hit": false,
      "t": 17307.675000000003,
      "d": 225.96131249999962,
      "v": 101
    },
    {
      "midi": 66,
      "hit": false,
      "t": 17320.174987499984,
      "d": 427.8841874999853,
      "v": 86
    },
    {
      "midi": 69,
      "hit": false,
      "t": 17321.136524999984,
      "d": 453.8456999999835,
      "v": 88
    },
    {
      "midi": 62,
      "hit": false,
      "t": 17323.059599999982,
      "d": 437.4995624999865,
      "v": 86
    },
    {
      "midi": 57,
      "hit": false,
      "t": 17538.443999999996,
      "d": 225.96131249999962,
      "v": 83
    },
    {
      "midi": 50,
      "hit": false,
      "t": 17538.443999999996,
      "d": 225.96131249999962,
      "v": 83
    },
    {
      "midi": 42,
      "hit": false,
      "t": 17538.443999999996,
      "d": 225.96131249999962,
      "v": 84
    },
    {
      "midi": 36,
      "hit": false,
      "t": 17538.443999999996,
      "d": 456.73031249999985,
      "v": 110
    },
    {
      "midi": 38,
      "hit": false,
      "t": 17538.444000000003,
      "d": 456.73031249999985,
      "v": 117
    },
    {
      "midi": 57,
      "hit": false,
      "t": 17769.212999999996,
      "d": 225.96131249999962,
      "v": 85
    },
    {
      "midi": 50,
      "hit": false,
      "t": 17769.212999999996,
      "d": 225.96131249999962,
      "v": 86
    },
    {
      "midi": 42,
      "hit": false,
      "t": 17769.212999999996,
      "d": 225.96131249999962,
      "v": 81
    },
    {
      "midi": 50,
      "hit": false,
      "t": 17999.981999999996,
      "d": 225.96131249999962,
      "v": 90
    },
    {
      "midi": 59,
      "hit": false,
      "t": 17999.981999999996,
      "d": 225.96131249999962,
      "v": 85
    },
    {
      "midi": 38,
      "hit": false,
      "t": 17999.981999999996,
      "d": 225.96131249999962,
      "v": 113
    },
    {
      "midi": 42,
      "hit": false,
      "t": 17999.981999999996,
      "d": 225.96131249999962,
      "v": 86
    },
    {
      "midi": 35,
      "hit": false,
      "t": 17999.982000000004,
      "d": 225.96131249999962,
      "v": 107
    },
    {
      "midi": 64,
      "hit": false,
      "t": 18005.751224999967,
      "d": 250.96128749998752,
      "v": 101
    },
    {
      "midi": 62,
      "hit": false,
      "t": 18006.712762499967,
      "d": 236.53822499998932,
      "v": 101
    },
    {
      "midi": 69,
      "hit": false,
      "t": 18007.674299999966,
      "d": 249.99974999998813,
      "v": 97
    },
    {
      "midi": 50,
      "hit": false,
      "t": 18230.750999999997,
      "d": 225.96131249999962,
      "v": 86
    },
    {
      "midi": 57,
      "hit": false,
      "t": 18230.750999999997,
      "d": 225.96131249999962,
      "v": 83
    },
    {
      "midi": 36,
      "hit": false,
      "t": 18230.750999999997,
      "d": 225.96131249999962,
      "v": 113
    },
    {
      "midi": 46,
      "hit": false,
      "t": 18230.750999999997,
      "d": 225.96131249999962,
      "v": 79
    },
    {
      "midi": 33,
      "hit": false,
      "t": 18230.751000000004,
      "d": 225.96131249999962,
      "v": 101
    },
    {
      "midi": 69,
      "hit": false,
      "t": 18430.750799999954,
      "d": 175.96136249999108,
      "v": 83
    },
    {
      "midi": 64,
      "hit": false,
      "t": 18430.750799999954,
      "d": 175.96136249999108,
      "v": 82
    },
    {
      "midi": 62,
      "hit": false,
      "t": 18431.712337499954,
      "d": 161.5382999999929,
      "v": 85
    },
    {
      "midi": 38,
      "hit": false,
      "t": 18456.712312500003,
      "d": 456.73031249999985,
      "v": 110
    },
    {
      "midi": 57,
      "hit": false,
      "t": 18461.519999999997,
      "d": 225.96131249999962,
      "v": 85
    },
    {
      "midi": 50,
      "hit": false,
      "t": 18461.519999999997,
      "d": 225.96131249999962,
      "v": 86
    },
    {
      "midi": 42,
      "hit": false,
      "t": 18461.519999999997,
      "d": 225.96131249999962,
      "v": 89
    },
    {
      "midi": 36,
      "hit": false,
      "t": 18461.519999999997,
      "d": 225.96131249999962,
      "v": 117
    },
    {
      "midi": 57,
      "hit": false,
      "t": 18692.288999999997,
      "d": 225.96131249999962,
      "v": 82
    },
    {
      "midi": 50,
      "hit": false,
      "t": 18692.288999999997,
      "d": 225.96131249999962,
      "v": 83
    },
    {
      "midi": 40,
      "hit": false,
      "t": 18692.288999999997,
      "d": 225.96131249999962,
      "v": 50
    },
    {
      "midi": 42,
      "hit": false,
      "t": 18692.288999999997,
      "d": 225.96131249999962,
      "v": 89
    },
    {
      "midi": 69,
      "hit": false,
      "t": 18696.135149999944,
      "d": 313.4612249999918,
      "v": 83
    },
    {
      "midi": 66,
      "hit": false,
      "t": 18711.519749999945,
      "d": 299.9996999999894,
      "v": 88
    },
    {
      "midi": 62,
      "hit": false,
      "t": 18712.481287499944,
      "d": 271.153574999993,
      "v": 94
    },
    {
      "midi": 59,
      "hit": false,
      "t": 18923.057999999997,
      "d": 225.96131249999962,
      "v": 85
    },
    {
      "midi": 50,
      "hit": false,
      "t": 18923.057999999997,
      "d": 225.96131249999962,
      "v": 86
    },
    {
      "midi": 40,
      "hit": false,
      "t": 18923.057999999997,
      "d": 225.96131249999962,
      "v": 65
    },
    {
      "midi": 42,
      "hit": false,
      "t": 18923.057999999997,
      "d": 225.96131249999962,
      "v": 96
    },
    {
      "midi": 33,
      "hit": false,
      "t": 18923.058000000005,
      "d": 225.96131249999962,
      "v": 113
    },
    {
      "midi": 57,
      "hit": false,
      "t": 19153.826999999997,
      "d": 225.96131249999962,
      "v": 82
    },
    {
      "midi": 50,
      "hit": false,
      "t": 19153.826999999997,
      "d": 225.96131249999962,
      "v": 83
    },
    {
      "midi": 40,
      "hit": false,
      "t": 19153.826999999997,
      "d": 225.96131249999962,
      "v": 76
    },
    {
      "midi": 42,
      "hit": false,
      "t": 19153.826999999997,
      "d": 225.96131249999962,
      "v": 96
    },
    {
      "midi": 35,
      "hit": false,
      "t": 19153.827000000005,
      "d": 225.96131249999962,
      "v": 110
    },
    {
      "midi": 62,
      "hit": false,
      "t": 19159.596224999932,
      "d": 376.92269999999553,
      "v": 97
    },
    {
      "midi": 66,
      "hit": false,
      "t": 19159.596224999932,
      "d": 551.9225249999945,
      "v": 94
    },
    {
      "midi": 69,
      "hit": false,
      "t": 19161.51929999993,
      "d": 672.1147124999952,
      "v": 92
    },
    {
      "midi": 57,
      "hit": false,
      "t": 19384.595999999998,
      "d": 225.96131249999962,
      "v": 80
    },
    {
      "midi": 50,
      "hit": false,
      "t": 19384.595999999998,
      "d": 225.96131249999962,
      "v": 85
    },
    {
      "midi": 40,
      "hit": false,
      "t": 19384.595999999998,
      "d": 225.96131249999962,
      "v": 93
    },
    {
      "midi": 55,
      "hit": false,
      "t": 19384.595999999998,
      "d": 225.96131249999962,
      "v": 97
    },
    {
      "midi": 42,
      "hit": false,
      "t": 19384.595999999998,
      "d": 225.96131249999962,
      "v": 96
    },
    {
      "midi": 38,
      "hit": false,
      "t": 19384.596000000005,
      "d": 225.96131249999962,
      "v": 117
    },
    {
      "midi": 57,
      "hit": false,
      "t": 19615.364999999998,
      "d": 225.96131249999962,
      "v": 83
    },
    {
      "midi": 50,
      "hit": false,
      "t": 19615.364999999998,
      "d": 225.96131249999962,
      "v": 88
    },
    {
      "midi": 40,
      "hit": false,
      "t": 19615.364999999998,
      "d": 225.96131249999962,
      "v": 110
    },
    {
      "midi": 42,
      "hit": false,
      "t": 19615.364999999998,
      "d": 225.96131249999962,
      "v": 100
    },
    {
      "midi": 40,
      "hit": false,
      "t": 19615.365000000005,
      "d": 225.96131249999962,
      "v": 101
    },
    {
      "midi": 62,
      "hit": false,
      "t": 19635.557287499927,
      "d": 349.03811249999853,
      "v": 86
    },
    {
      "midi": 66,
      "hit": false,
      "t": 19846.133999999925,
      "d": 139.42293749999953,
      "v": 86
    },
    {
      "midi": 50,
      "hit": false,
      "t": 19846.134,
      "d": 225.96131249999962,
      "v": 92
    },
    {
      "midi": 59,
      "hit": false,
      "t": 19846.134,
      "d": 225.96131249999962,
      "v": 83
    },
    {
      "midi": 40,
      "hit": false,
      "t": 19846.134,
      "d": 225.96131249999962,
      "v": 127
    },
    {
      "midi": 42,
      "hit": false,
      "t": 19846.134,
      "d": 225.96131249999962,
      "v": 100
    },
    {
      "midi": 43,
      "hit": false,
      "t": 19846.134000000005,
      "d": 225.96131249999962,
      "v": 113
    },
    {
      "midi": 69,
      "hit": false,
      "t": 20037.479962499925,
      "d": 75.96146249999947,
      "v": 74
    },
    {
      "midi": 50,
      "hit": false,
      "t": 20076.903,
      "d": 225.96131249999962,
      "v": 86
    },
    {
      "midi": 57,
      "hit": false,
      "t": 20076.903,
      "d": 225.96131249999962,
      "v": 88
    },
    {
      "midi": 45,
      "hit": false,
      "t": 20076.903,
      "d": 225.96131249999962,
      "v": 127
    },
    {
      "midi": 46,
      "hit": false,
      "t": 20076.903,
      "d": 225.96131249999962,
      "v": 104
    },
    {
      "midi": 45,
      "hit": false,
      "t": 20076.903000000006,
      "d": 225.96131249999962,
      "v": 99
    },
    {
      "midi": 50,
      "hit": false,
      "t": 20307.672,
      "d": 225.96131249999962,
      "v": 97
    },
    {
      "midi": 43,
      "hit": false,
      "t": 20307.672,
      "d": 225.96131249999962,
      "v": 99
    },
    {
      "midi": 42,
      "hit": false,
      "t": 20307.672,
      "d": 225.96131249999962,
      "v": 89
    },
    {
      "midi": 57,
      "hit": false,
      "t": 20307.672,
      "d": 225.96131249999962,
      "v": 110
    },
    {
      "midi": 36,
      "hit": false,
      "t": 20307.672,
      "d": 456.73031249999985,
      "v": 113
    },
    {
      "midi": 43,
      "hit": false,
      "t": 20307.672000000006,
      "d": 456.73031249999985,
      "v": 113
    },
    {
      "midi": 55,
      "hit": false,
      "t": 20345.171962499924,
      "d": 523.0763999999908,
      "v": 92
    },
    {
      "midi": 59,
      "hit": false,
      "t": 20536.517924999916,
      "d": 404.8072874999998,
      "v": 67
    },
    {
      "midi": 50,
      "hit": false,
      "t": 20538.441,
      "d": 225.96131249999962,
      "v": 83
    },
    {
      "midi": 43,
      "hit": false,
      "t": 20538.441,
      "d": 225.96131249999962,
      "v": 86
    },
    {
      "midi": 42,
      "hit": false,
      "t": 20538.441,
      "d": 225.96131249999962,
      "v": 81
    },
    {
      "midi": 43,
      "hit": false,
      "t": 20769.21,
      "d": 225.96131249999962,
      "v": 99
    },
    {
      "midi": 52,
      "hit": false,
      "t": 20769.21,
      "d": 225.96131249999962,
      "v": 88
    },
    {
      "midi": 42,
      "hit": false,
      "t": 20769.21,
      "d": 225.96131249999962,
      "v": 84
    },
    {
      "midi": 38,
      "hit": false,
      "t": 20769.21,
      "d": 225.96131249999962,
      "v": 113
    },
    {
      "midi": 62,
      "hit": false,
      "t": 20779.786912499916,
      "d": 336.53812500000276,
      "v": 85
    },
    {
      "midi": 50,
      "hit": false,
      "t": 20999.979,
      "d": 225.96131249999962,
      "v": 85
    },
    {
      "midi": 43,
      "hit": false,
      "t": 20999.979,
      "d": 225.96131249999962,
      "v": 90
    },
    {
      "midi": 42,
      "hit": false,
      "t": 20999.979,
      "d": 225.96131249999962,
      "v": 86
    },
    {
      "midi": 36,
      "hit": false,
      "t": 20999.979,
      "d": 225.96131249999962,
      "v": 123
    },
    {
      "midi": 43,
      "hit": false,
      "t": 20999.979000000007,
      "d": 225.96131249999962,
      "v": 104
    },
    {
      "midi": 55,
      "hit": false,
      "t": 21027.863587499916,
      "d": 26.92305000000124,
      "v": 51
    },
    {
      "midi": 50,
      "hit": false,
      "t": 21230.748,
      "d": 225.96131249999962,
      "v": 88
    },
    {
      "midi": 45,
      "hit": false,
      "t": 21230.748,
      "d": 225.96131249999962,
      "v": 97
    },
    {
      "midi": 42,
      "hit": false,
      "t": 21230.748,
      "d": 225.96131249999962,
      "v": 92
    },
    {
      "midi": 36,
      "hit": false,
      "t": 21230.748,
      "d": 456.73031249999985,
      "v": 110
    },
    {
      "midi": 38,
      "hit": false,
      "t": 21230.748000000007,
      "d": 456.73031249999985,
      "v": 113
    },
    {
      "midi": 50,
      "hit": false,
      "t": 21251.901824999917,
      "d": 724.9992749999983,
      "v": 97
    },
    {
      "midi": 50,
      "hit": false,
      "t": 21461.517,
      "d": 225.96131249999962,
      "v": 82
    },
    {
      "midi": 45,
      "hit": false,
      "t": 21461.517,
      "d": 225.96131249999962,
      "v": 94
    },
    {
      "midi": 46,
      "hit": false,
      "t": 21461.517,
      "d": 225.96131249999962,
      "v": 89
    },
    {
      "midi": 54,
      "hit": false,
      "t": 21472.093912499917,
      "d": 503.8456499999993,
      "v": 86
    },
    {
      "midi": 57,
      "hit": false,
      "t": 21680.747549999916,
      "d": 298.0766249999979,
      "v": 73
    },
    {
      "midi": 45,
      "hit": false,
      "t": 21692.286,
      "d": 225.96131249999962,
      "v": 99
    },
    {
      "midi": 52,
      "hit": false,
      "t": 21692.286,
      "d": 225.96131249999962,
      "v": 94
    },
    {
      "midi": 42,
      "hit": false,
      "t": 21692.286,
      "d": 225.96131249999962,
      "v": 92
    },
    {
      "midi": 38,
      "hit": false,
      "t": 21692.286,
      "d": 225.96131249999962,
      "v": 110
    },
    {
      "midi": 50,
      "hit": false,
      "t": 21923.055,
      "d": 225.96131249999962,
      "v": 83
    },
    {
      "midi": 45,
      "hit": false,
      "t": 21923.055,
      "d": 225.96131249999962,
      "v": 88
    },
    {
      "midi": 42,
      "hit": false,
      "t": 21923.055,
      "d": 225.96131249999962,
      "v": 79
    },
    {
      "midi": 36,
      "hit": false,
      "t": 21923.055,
      "d": 225.96131249999962,
      "v": 120
    },
    {
      "midi": 38,
      "hit": false,
      "t": 21923.055000000008,
      "d": 225.96131249999962,
      "v": 117
    },
    {
      "midi": 62,
      "hit": false,
      "t": 21935.554987499916,
      "d": 118.2691124999983,
      "v": 82
    },
    {
      "midi": 50,
      "hit": false,
      "t": 22153.824,
      "d": 225.96131249999962,
      "v": 86
    },
    {
      "midi": 43,
      "hit": false,
      "t": 22153.824,
      "d": 225.96131249999962,
      "v": 90
    },
    {
      "midi": 42,
      "hit": false,
      "t": 22153.824,
      "d": 225.96131249999962,
      "v": 89
    },
    {
      "midi": 36,
      "hit": false,
      "t": 22153.824,
      "d": 456.73031249999985,
      "v": 113
    },
    {
      "midi": 43,
      "hit": false,
      "t": 22153.824000000008,
      "d": 456.73031249999985,
      "v": 110
    },
    {
      "midi": 55,
      "hit": false,
      "t": 22175.939362499914,
      "d": 678.8454749999983,
      "v": 83
    },
    {
      "midi": 50,
      "hit": false,
      "t": 22384.593,
      "d": 225.96131249999962,
      "v": 86
    },
    {
      "midi": 43,
      "hit": false,
      "t": 22384.593,
      "d": 225.96131249999962,
      "v": 90
    },
    {
      "midi": 42,
      "hit": false,
      "t": 22384.593,
      "d": 225.96131249999962,
      "v": 66
    },
    {
      "midi": 59,
      "hit": false,
      "t": 22390.362224999913,
      "d": 556.7302124999987,
      "v": 78
    },
    {
      "midi": 62,
      "hit": false,
      "t": 22609.592774999914,
      "d": 378.8457749999943,
      "v": 78
    },
    {
      "midi": 52,
      "hit": false,
      "t": 22615.362,
      "d": 225.96131249999962,
      "v": 85
    },
    {
      "midi": 43,
      "hit": false,
      "t": 22615.362,
      "d": 225.96131249999962,
      "v": 86
    },
    {
      "midi": 38,
      "hit": false,
      "t": 22615.362,
      "d": 225.96131249999962,
      "v": 107
    },
    {
      "midi": 42,
      "hit": false,
      "t": 22615.362,
      "d": 225.96131249999962,
      "v": 62
    },
    {
      "midi": 50,
      "hit": false,
      "t": 22846.131,
      "d": 225.96131249999962,
      "v": 82
    },
    {
      "midi": 43,
      "hit": false,
      "t": 22846.131,
      "d": 225.96131249999962,
      "v": 86
    },
    {
      "midi": 36,
      "hit": false,
      "t": 22846.131,
      "d": 225.96131249999962,
      "v": 110
    },
    {
      "midi": 42,
      "hit": false,
      "t": 22846.131,
      "d": 225.96131249999962,
      "v": 59
    },
    {
      "midi": 38,
      "hit": false,
      "t": 22846.13100000001,
      "d": 225.96131249999962,
      "v": 113
    },
    {
      "midi": 67,
      "hit": false,
      "t": 22854.784837499912,
      "d": 120.19218749999709,
      "v": 53
    },
    {
      "midi": 66,
      "hit": false,
      "t": 22872.092512499912,
      "d": 88.46144999999888,
      "v": 57
    },
    {
      "midi": 43,
      "hit": false,
      "t": 23076.9,
      "d": 225.96131249999962,
      "v": 101
    },
    {
      "midi": 50,
      "hit": false,
      "t": 23076.9,
      "d": 225.96131249999962,
      "v": 88
    },
    {
      "midi": 43,
      "hit": false,
      "t": 23076.9,
      "d": 456.73031249999985,
      "v": 70
    },
    {
      "midi": 42,
      "hit": false,
      "t": 23076.9,
      "d": 225.96131249999962,
      "v": 96
    },
    {
      "midi": 36,
      "hit": false,
      "t": 23076.9,
      "d": 456.73031249999985,
      "v": 117
    },
    {
      "midi": 43,
      "hit": false,
      "t": 23076.90000000001,
      "d": 456.73031249999985,
      "v": 113
    },
    {
      "midi": 62,
      "hit": false,
      "t": 23088.438449999907,
      "d": 449.99954999998954,
      "v": 59
    },
    {
      "midi": 59,
      "hit": false,
      "t": 23102.861512499905,
      "d": 75.96146249999583,
      "v": 62
    },
    {
      "midi": 55,
      "hit": false,
      "t": 23103.823049999904,
      "d": 335.57658749999246,
      "v": 85
    },
    {
      "midi": 50,
      "hit": false,
      "t": 23307.669,
      "d": 225.96131249999962,
      "v": 82
    },
    {
      "midi": 43,
      "hit": false,
      "t": 23307.669,
      "d": 225.96131249999962,
      "v": 97
    },
    {
      "midi": 42,
      "hit": false,
      "t": 23307.669,
      "d": 225.96131249999962,
      "v": 79
    },
    {
      "midi": 50,
      "hit": false,
      "t": 23538.438000000002,
      "d": 225.96131249999962,
      "v": 85
    },
    {
      "midi": 42,
      "hit": false,
      "t": 23538.438000000002,
      "d": 225.96131249999962,
      "v": 104
    },
    {
      "midi": 42,
      "hit": false,
      "t": 23538.438000000002,
      "d": 456.73031249999985,
      "v": 57
    },
    {
      "midi": 38,
      "hit": false,
      "t": 23538.438000000002,
      "d": 225.96131249999962,
      "v": 107
    },
    {
      "midi": 42,
      "hit": false,
      "t": 23538.438000000002,
      "d": 225.96131249999962,
      "v": 64
    },
    {
      "midi": 42,
      "hit": false,
      "t": 23538.43800000001,
      "d": 456.73031249999985,
      "v": 109
    },
    {
      "midi": 54,
      "hit": false,
      "t": 23551.899524999895,
      "d": 315.3842999999906,
      "v": 101
    },
    {
      "midi": 50,
      "hit": false,
      "t": 23769.207000000002,
      "d": 225.96131249999962,
      "v": 80
    },
    {
      "midi": 42,
      "hit": false,
      "t": 23769.207000000002,
      "d": 225.96131249999962,
      "v": 84
    },
    {
      "midi": 36,
      "hit": false,
      "t": 23769.207000000002,
      "d": 225.96131249999962,
      "v": 99
    },
    {
      "midi": 42,
      "hit": false,
      "t": 23769.207000000002,
      "d": 225.96131249999962,
      "v": 77
    },
    {
      "midi": 47,
      "hit": false,
      "t": 23999.976000000002,
      "d": 225.96131249999962,
      "v": 90
    },
    {
      "midi": 52,
      "hit": false,
      "t": 23999.976000000002,
      "d": 225.96131249999962,
      "v": 83
    },
    {
      "midi": 42,
      "hit": false,
      "t": 23999.976000000002,
      "d": 225.96131249999962,
      "v": 92
    },
    {
      "midi": 36,
      "hit": false,
      "t": 23999.976000000002,
      "d": 456.73031249999985,
      "v": 110
    },
    {
      "midi": 40,
      "hit": false,
      "t": 23999.97600000001,
      "d": 456.73031249999985,
      "v": 117
    },
    {
      "midi": 52,
      "hit": false,
      "t": 24026.899049999884,
      "d": 708.653137499994,
      "v": 94
    },
    {
      "midi": 52,
      "hit": false,
      "t": 24230.745000000003,
      "d": 225.96131249999962,
      "v": 76
    },
    {
      "midi": 47,
      "hit": false,
      "t": 24230.745000000003,
      "d": 225.96131249999962,
      "v": 80
    },
    {
      "midi": 42,
      "hit": false,
      "t": 24230.745000000003,
      "d": 225.96131249999962,
      "v": 60
    },
    {
      "midi": 55,
      "hit": false,
      "t": 24240.36037499988,
      "d": 569.2301999999945,
      "v": 94
    },
    {
      "midi": 52,
      "hit": false,
      "t": 24461.514000000003,
      "d": 225.96131249999962,
      "v": 74
    },
    {
      "midi": 47,
      "hit": false,
      "t": 24461.514000000003,
      "d": 225.96131249999962,
      "v": 83
    },
    {
      "midi": 38,
      "hit": false,
      "t": 24461.514000000003,
      "d": 225.96131249999962,
      "v": 110
    },
    {
      "midi": 42,
      "hit": false,
      "t": 24461.514000000003,
      "d": 225.96131249999962,
      "v": 66
    },
    {
      "midi": 59,
      "hit": false,
      "t": 24462.47553749988,
      "d": 348.0765749999955,
      "v": 78
    },
    {
      "midi": 64,
      "hit": false,
      "t": 24683.629162499878,
      "d": 112.4998874999983,
      "v": 72
    },
    {
      "midi": 52,
      "hit": false,
      "t": 24692.283000000003,
      "d": 225.96131249999962,
      "v": 73
    },
    {
      "midi": 47,
      "hit": false,
      "t": 24692.283000000003,
      "d": 225.96131249999962,
      "v": 82
    },
    {
      "midi": 36,
      "hit": false,
      "t": 24692.283000000003,
      "d": 225.96131249999962,
      "v": 104
    },
    {
      "midi": 42,
      "hit": false,
      "t": 24692.283000000003,
      "d": 225.96131249999962,
      "v": 62
    },
    {
      "midi": 40,
      "hit": false,
      "t": 24692.28300000001,
      "d": 225.96131249999962,
      "v": 104
    },
    {
      "midi": 50,
      "hit": false,
      "t": 24923.052000000003,
      "d": 225.96131249999962,
      "v": 83
    },
    {
      "midi": 45,
      "hit": false,
      "t": 24923.052000000003,
      "d": 225.96131249999962,
      "v": 94
    },
    {
      "midi": 42,
      "hit": false,
      "t": 24923.052000000003,
      "d": 225.96131249999962,
      "v": 86
    },
    {
      "midi": 36,
      "hit": false,
      "t": 24923.052000000003,
      "d": 456.73031249999985,
      "v": 110
    },
    {
      "midi": 38,
      "hit": false,
      "t": 24923.05200000001,
      "d": 456.73031249999985,
      "v": 110
    },
    {
      "midi": 50,
      "hit": false,
      "t": 24946.128899999872,
      "d": 640.383974999997,
      "v": 92
    },
    {
      "midi": 50,
      "hit": false,
      "t": 25153.821000000004,
      "d": 225.96131249999962,
      "v": 79
    },
    {
      "midi": 45,
      "hit": false,
      "t": 25153.821000000004,
      "d": 225.96131249999962,
      "v": 85
    },
    {
      "midi": 42,
      "hit": false,
      "t": 25153.821000000004,
      "d": 225.96131249999962,
      "v": 75
    },
    {
      "midi": 54,
      "hit": false,
      "t": 25178.82097499987,
      "d": 446.1533999999956,
      "v": 85
    },
    {
      "midi": 45,
      "hit": false,
      "t": 25384.590000000004,
      "d": 225.96131249999962,
      "v": 76
    },
    {
      "midi": 50,
      "hit": false,
      "t": 25384.590000000004,
      "d": 225.96131249999962,
      "v": 80
    },
    {
      "midi": 38,
      "hit": false,
      "t": 25384.590000000004,
      "d": 225.96131249999962,
      "v": 107
    },
    {
      "midi": 42,
      "hit": false,
      "t": 25384.590000000004,
      "d": 225.96131249999962,
      "v": 69
    },
    {
      "midi": 57,
      "hit": false,
      "t": 25389.39768749987,
      "d": 262.49973749999845,
      "v": 78
    },
    {
      "midi": 50,
      "hit": false,
      "t": 25615.359000000004,
      "d": 225.96131249999962,
      "v": 76
    },
    {
      "midi": 45,
      "hit": false,
      "t": 25615.359000000004,
      "d": 225.96131249999962,
      "v": 83
    },
    {
      "midi": 36,
      "hit": false,
      "t": 25615.359000000004,
      "d": 225.96131249999962,
      "v": 97
    },
    {
      "midi": 42,
      "hit": false,
      "t": 25615.359000000004,
      "d": 225.96131249999962,
      "v": 79
    },
    {
      "midi": 42,
      "hit": false,
      "t": 25615.35900000001,
      "d": 225.96131249999962,
      "v": 104
    },
    {
      "midi": 62,
      "hit": false,
      "t": 25623.05129999987,
      "d": 102.88451250000071,
      "v": 82
    },
    {
      "midi": 50,
      "hit": false,
      "t": 25846.128,
      "d": 456.73031249999985,
      "v": 66
    },
    {
      "midi": 43,
      "hit": false,
      "t": 25846.128,
      "d": 456.73031249999985,
      "v": 58
    },
    {
      "midi": 50,
      "hit": false,
      "t": 25846.128000000004,
      "d": 225.96131249999962,
      "v": 86
    },
    {
      "midi": 43,
      "hit": false,
      "t": 25846.128000000004,
      "d": 225.96131249999962,
      "v": 92
    },
    {
      "midi": 42,
      "hit": false,
      "t": 25846.128000000004,
      "d": 225.96131249999962,
      "v": 96
    },
    {
      "midi": 36,
      "hit": false,
      "t": 25846.128000000004,
      "d": 456.73031249999985,
      "v": 113
    },
    {
      "midi": 43,
      "hit": false,
      "t": 25846.12800000001,
      "d": 456.73031249999985,
      "v": 113
    },
    {
      "midi": 55,
      "hit": false,
      "t": 25848.05107499987,
      "d": 743.2684874999941,
      "v": 90
    },
    {
      "midi": 59,
      "hit": false,
      "t": 26074.012387499864,
      "d": 627.8839874999976,
      "v": 76
    },
    {
      "midi": 50,
      "hit": false,
      "t": 26076.897000000004,
      "d": 225.96131249999962,
      "v": 78
    },
    {
      "midi": 43,
      "hit": false,
      "t": 26076.897000000004,
      "d": 225.96131249999962,
      "v": 88
    },
    {
      "midi": 42,
      "hit": false,
      "t": 26076.897000000004,
      "d": 225.96131249999962,
      "v": 77
    },
    {
      "midi": 62,
      "hit": false,
      "t": 26307.665999999863,
      "d": 813.4607249999972,
      "v": 79
    },
    {
      "midi": 52,
      "hit": false,
      "t": 26307.666,
      "d": 456.73031249999985,
      "v": 54
    },
    {
      "midi": 43,
      "hit": false,
      "t": 26307.666,
      "d": 456.73031249999985,
      "v": 45
    },
    {
      "midi": 43,
      "hit": false,
      "t": 26307.666000000005,
      "d": 225.96131249999962,
      "v": 90
    },
    {
      "midi": 52,
      "hit": false,
      "t": 26307.666000000005,
      "d": 225.96131249999962,
      "v": 76
    },
    {
      "midi": 38,
      "hit": false,
      "t": 26307.666000000005,
      "d": 225.96131249999962,
      "v": 113
    },
    {
      "midi": 42,
      "hit": false,
      "t": 26307.666000000005,
      "d": 225.96131249999962,
      "v": 71
    },
    {
      "midi": 43,
      "hit": false,
      "t": 26538.435000000005,
      "d": 225.96131249999962,
      "v": 86
    },
    {
      "midi": 50,
      "hit": false,
      "t": 26538.435000000005,
      "d": 225.96131249999962,
      "v": 72
    },
    {
      "midi": 36,
      "hit": false,
      "t": 26538.435000000005,
      "d": 225.96131249999962,
      "v": 104
    },
    {
      "midi": 42,
      "hit": false,
      "t": 26538.435000000005,
      "d": 225.96131249999962,
      "v": 73
    },
    {
      "midi": 38,
      "hit": false,
      "t": 26538.435000000012,
      "d": 225.96131249999962,
      "v": 117
    },
    {
      "midi": 67,
      "hit": false,
      "t": 26551.896524999862,
      "d": 692.3069999999971,
      "v": 73
    },
    {
      "midi": 50,
      "hit": false,
      "t": 26769.204,
      "d": 456.73031249999985,
      "v": 69
    },
    {
      "midi": 43,
      "hit": false,
      "t": 26769.204,
      "d": 456.73031249999985,
      "v": 57
    },
    {
      "midi": 50,
      "hit": false,
      "t": 26769.204000000005,
      "d": 225.96131249999962,
      "v": 78
    },
    {
      "midi": 43,
      "hit": false,
      "t": 26769.204000000005,
      "d": 225.96131249999962,
      "v": 92
    },
    {
      "midi": 42,
      "hit": false,
      "t": 26769.204000000005,
      "d": 225.96131249999962,
      "v": 84
    },
    {
      "midi": 36,
      "hit": false,
      "t": 26769.204000000005,
      "d": 456.73031249999985,
      "v": 110
    },
    {
      "midi": 40,
      "hit": false,
      "t": 26769.204000000012,
      "d": 225.96131249999962,
      "v": 101
    },
    {
      "midi": 55,
      "hit": false,
      "t": 26799.011662499863,
      "d": 532.6917749999957,
      "v": 88
    },
    {
      "midi": 43,
      "hit": false,
      "t": 26999.973000000005,
      "d": 225.96131249999962,
      "v": 86
    },
    {
      "midi": 50,
      "hit": false,
      "t": 26999.973000000005,
      "d": 225.96131249999962,
      "v": 71
    },
    {
      "midi": 42,
      "hit": false,
      "t": 26999.973000000005,
      "d": 225.96131249999962,
      "v": 81
    },
    {
      "midi": 43,
      "hit": false,
      "t": 26999.973000000013,
      "d": 225.96131249999962,
      "v": 101
    },
    {
      "midi": 59,
      "hit": false,
      "t": 27008.62683749986,
      "d": 482.69182499999806,
      "v": 75
    },
    {
      "midi": 52,
      "hit": false,
      "t": 27230.742000000002,
      "d": 456.73031249999985,
      "v": 72
    },
    {
      "midi": 43,
      "hit": false,
      "t": 27230.742000000002,
      "d": 456.73031249999985,
      "v": 49
    },
    {
      "midi": 43,
      "hit": false,
      "t": 27230.742000000006,
      "d": 225.96131249999962,
      "v": 86
    },
    {
      "midi": 52,
      "hit": false,
      "t": 27230.742000000006,
      "d": 225.96131249999962,
      "v": 82
    },
    {
      "midi": 38,
      "hit": false,
      "t": 27230.742000000006,
      "d": 225.96131249999962,
      "v": 113
    },
    {
      "midi": 42,
      "hit": false,
      "t": 27230.742000000006,
      "d": 225.96131249999962,
      "v": 86
    },
    {
      "midi": 40,
      "hit": false,
      "t": 27230.742000000013,
      "d": 225.96131249999962,
      "v": 107
    },
    {
      "midi": 62,
      "hit": false,
      "t": 27292.280399999858,
      "d": 290.3843249999991,
      "v": 66
    },
    {
      "midi": 43,
      "hit": false,
      "t": 27461.511000000006,
      "d": 225.96131249999962,
      "v": 92
    },
    {
      "midi": 50,
      "hit": false,
      "t": 27461.511000000006,
      "d": 225.96131249999962,
      "v": 80
    },
    {
      "midi": 36,
      "hit": false,
      "t": 27461.511000000006,
      "d": 225.96131249999962,
      "v": 113
    },
    {
      "midi": 46,
      "hit": false,
      "t": 27461.511000000006,
      "d": 225.96131249999962,
      "v": 79
    },
    {
      "midi": 43,
      "hit": false,
      "t": 27461.511000000013,
      "d": 225.96131249999962,
      "v": 110
    },
    {
      "midi": 67,
      "hit": false,
      "t": 27527.85708749986,
      "d": 53.84609999999884,
      "v": 46
    },
    {
      "midi": 52,
      "hit": false,
      "t": 27692.280000000006,
      "d": 225.96131249999962,
      "v": 83
    },
    {
      "midi": 45,
      "hit": false,
      "t": 27692.280000000006,
      "d": 225.96131249999962,
      "v": 90
    },
    {
      "midi": 42,
      "hit": false,
      "t": 27692.280000000006,
      "d": 225.96131249999962,
      "v": 89
    },
    {
      "midi": 36,
      "hit": false,
      "t": 27692.280000000006,
      "d": 456.73031249999985,
      "v": 113
    },
    {
      "midi": 45,
      "hit": false,
      "t": 27692.280000000013,
      "d": 456.73031249999985,
      "v": 107
    },
    {
      "midi": 57,
      "hit": false,
      "t": 27716.318437499856,
      "d": 698.0762249999934,
      "v": 92
    },
    {
      "midi": 60,
      "hit": false,
      "t": 27910.54901249985,
      "d": 687.4993125000001,
      "v": 86
    },
    {
      "midi": 52,
      "hit": false,
      "t": 27923.049000000006,
      "d": 225.96131249999962,
      "v": 62
    },
    {
      "midi": 45,
      "hit": false,
      "t": 27923.049000000006,
      "d": 225.96131249999962,
      "v": 82
    },
    {
      "midi": 42,
      "hit": false,
      "t": 27923.049000000006,
      "d": 225.96131249999962,
      "v": 81
    },
    {
      "midi": 64,
      "hit": false,
      "t": 28130.74109999985,
      "d": 727.8838875000001,
      "v": 78
    },
    {
      "midi": 52,
      "hit": false,
      "t": 28153.818000000007,
      "d": 225.96131249999962,
      "v": 88
    },
    {
      "midi": 45,
      "hit": false,
      "t": 28153.818000000007,
      "d": 225.96131249999962,
      "v": 85
    },
    {
      "midi": 42,
      "hit": false,
      "t": 28153.818000000007,
      "d": 225.96131249999962,
      "v": 84
    },
    {
      "midi": 38,
      "hit": false,
      "t": 28153.818000000007,
      "d": 225.96131249999962,
      "v": 113
    },
    {
      "midi": 69,
      "hit": false,
      "t": 28363.43317499985,
      "d": 532.6917749999993,
      "v": 73
    },
    {
      "midi": 52,
      "hit": false,
      "t": 28384.587000000007,
      "d": 225.96131249999962,
      "v": 74
    },
    {
      "midi": 45,
      "hit": false,
      "t": 28384.587000000007,
      "d": 225.96131249999962,
      "v": 83
    },
    {
      "midi": 42,
      "hit": false,
      "t": 28384.587000000007,
      "d": 225.96131249999962,
      "v": 86
    },
    {
      "midi": 36,
      "hit": false,
      "t": 28384.587000000007,
      "d": 225.96131249999962,
      "v": 123
    },
    {
      "midi": 45,
      "hit": false,
      "t": 28384.587000000014,
      "d": 225.96131249999962,
      "v": 94
    },
    {
      "midi": 57,
      "hit": false,
      "t": 28610.54831249985,
      "d": 397.11498749999737,
      "v": 80
    },
    {
      "midi": 52,
      "hit": false,
      "t": 28615.356000000007,
      "d": 225.96131249999962,
      "v": 83
    },
    {
      "midi": 45,
      "hit": false,
      "t": 28615.356000000007,
      "d": 225.96131249999962,
      "v": 86
    },
    {
      "midi": 42,
      "hit": false,
      "t": 28615.356000000007,
      "d": 225.96131249999962,
      "v": 92
    },
    {
      "midi": 36,
      "hit": false,
      "t": 28615.356000000007,
      "d": 456.73031249999985,
      "v": 110
    },
    {
      "midi": 45,
      "hit": false,
      "t": 28615.356000000014,
      "d": 456.73031249999985,
      "v": 107
    },
    {
      "midi": 60,
      "hit": false,
      "t": 28831.70193749985,
      "d": 138.46140000000014,
      "v": 73
    },
    {
      "midi": 52,
      "hit": false,
      "t": 28846.125000000007,
      "d": 225.96131249999962,
      "v": 79
    },
    {
      "midi": 45,
      "hit": false,
      "t": 28846.125000000007,
      "d": 225.96131249999962,
      "v": 86
    },
    {
      "midi": 46,
      "hit": false,
      "t": 28846.125000000007,
      "d": 225.96131249999962,
      "v": 89
    },
    {
      "midi": 57,
      "hit": false,
      "t": 29070.163237499848,
      "d": 84.61529999999766,
      "v": 25
    },
    {
      "midi": 45,
      "hit": false,
      "t": 29076.894000000008,
      "d": 225.96131249999962,
      "v": 86
    },
    {
      "midi": 52,
      "hit": false,
      "t": 29076.894000000008,
      "d": 225.96131249999962,
      "v": 80
    },
    {
      "midi": 42,
      "hit": false,
      "t": 29076.894000000008,
      "d": 225.96131249999962,
      "v": 92
    },
    {
      "midi": 38,
      "hit": false,
      "t": 29076.894000000008,
      "d": 225.96131249999962,
      "v": 110
    },
    {
      "midi": 47,
      "hit": false,
      "t": 29076.894000000015,
      "d": 225.96131249999962,
      "v": 110
    },
    {
      "midi": 64,
      "hit": false,
      "t": 29098.04782499985,
      "d": 131.7306374999971,
      "v": 50
    },
    {
      "midi": 60,
      "hit": false,
      "t": 29099.009362499848,
      "d": 43.269187499998225,
      "v": 52
    },
    {
      "midi": 64,
      "hit": false,
      "t": 29293.239937499846,
      "d": 85.57683750000069,
      "v": 63
    },
    {
      "midi": 52,
      "hit": false,
      "t": 29307.663000000008,
      "d": 225.96131249999962,
      "v": 85
    },
    {
      "midi": 45,
      "hit": false,
      "t": 29307.663000000008,
      "d": 225.96131249999962,
      "v": 94
    },
    {
      "midi": 42,
      "hit": false,
      "t": 29307.663000000008,
      "d": 225.96131249999962,
      "v": 79
    },
    {
      "midi": 36,
      "hit": false,
      "t": 29307.663000000008,
      "d": 225.96131249999962,
      "v": 120
    },
    {
      "midi": 45,
      "hit": false,
      "t": 29307.663000000015,
      "d": 225.96131249999962,
      "v": 101
    },
    {
      "midi": 55,
      "hit": false,
      "t": 29538.432000000008,
      "d": 225.96131249999962,
      "v": 94
    },
    {
      "midi": 48,
      "hit": false,
      "t": 29538.432000000008,
      "d": 225.96131249999962,
      "v": 90
    },
    {
      "midi": 42,
      "hit": false,
      "t": 29538.432000000008,
      "d": 225.96131249999962,
      "v": 89
    },
    {
      "midi": 36,
      "hit": false,
      "t": 29538.432000000008,
      "d": 456.73031249999985,
      "v": 113
    },
    {
      "midi": 38,
      "hit": false,
      "t": 29538.432000000015,
      "d": 456.73031249999985,
      "v": 113
    },
    {
      "midi": 60,
      "hit": false,
      "t": 29539.393537499847,
      "d": 745.1915624999965,
      "v": 88
    },
    {
      "midi": 64,
      "hit": false,
      "t": 29539.393537499847,
      "d": 829.8068624999978,
      "v": 94
    },
    {
      "midi": 67,
      "hit": false,
      "t": 29541.316612499846,
      "d": 828.8453249999984,
      "v": 80
    },
    {
      "midi": 66,
      "hit": false,
      "t": 29561.508899999844,
      "d": 100.96143749999828,
      "v": 82
    },
    {
      "midi": 55,
      "hit": false,
      "t": 29769.20100000001,
      "d": 225.96131249999962,
      "v": 80
    },
    {
      "midi": 48,
      "hit": false,
      "t": 29769.20100000001,
      "d": 225.96131249999962,
      "v": 85
    },
    {
      "midi": 42,
      "hit": false,
      "t": 29769.20100000001,
      "d": 225.96131249999962,
      "v": 66
    },
    {
      "midi": 48,
      "hit": false,
      "t": 29999.97000000001,
      "d": 225.96131249999962,
      "v": 92
    },
    {
      "midi": 57,
      "hit": false,
      "t": 29999.97000000001,
      "d": 225.96131249999962,
      "v": 83
    },
    {
      "midi": 38,
      "hit": false,
      "t": 29999.97000000001,
      "d": 225.96131249999962,
      "v": 107
    },
    {
      "midi": 42,
      "hit": false,
      "t": 29999.97000000001,
      "d": 225.96131249999962,
      "v": 62
    },
    {
      "midi": 55,
      "hit": false,
      "t": 30230.73900000001,
      "d": 225.96131249999962,
      "v": 90
    },
    {
      "midi": 48,
      "hit": false,
      "t": 30230.73900000001,
      "d": 225.96131249999962,
      "v": 88
    },
    {
      "midi": 36,
      "hit": false,
      "t": 30230.73900000001,
      "d": 225.96131249999962,
      "v": 110
    },
    {
      "midi": 42,
      "hit": false,
      "t": 30230.73900000001,
      "d": 225.96131249999962,
      "v": 59
    },
    {
      "midi": 38,
      "hit": false,
      "t": 30230.739000000016,
      "d": 225.96131249999962,
      "v": 110
    },
    {
      "midi": 50,
      "hit": false,
      "t": 30461.50800000001,
      "d": 225.96131249999962,
      "v": 97
    },
    {
      "midi": 59,
      "hit": false,
      "t": 30461.50800000001,
      "d": 225.96131249999962,
      "v": 83
    },
    {
      "midi": 42,
      "hit": false,
      "t": 30461.50800000001,
      "d": 225.96131249999962,
      "v": 96
    },
    {
      "midi": 36,
      "hit": false,
      "t": 30461.50800000001,
      "d": 456.73031249999985,
      "v": 117
    },
    {
      "midi": 38,
      "hit": false,
      "t": 30461.508000000016,
      "d": 456.73031249999985,
      "v": 120
    },
    {
      "midi": 66,
      "hit": false,
      "t": 30470.161837499843,
      "d": 716.3454374999928,
      "v": 92
    },
    {
      "midi": 62,
      "hit": false,
      "t": 30470.161837499843,
      "d": 729.8069624999916,
      "v": 92
    },
    {
      "midi": 69,
      "hit": false,
      "t": 30471.123374999843,
      "d": 689.4223874999952,
      "v": 88
    },
    {
      "midi": 50,
      "hit": false,
      "t": 30692.27700000001,
      "d": 225.96131249999962,
      "v": 90
    },
    {
      "midi": 57,
      "hit": false,
      "t": 30692.27700000001,
      "d": 225.96131249999962,
      "v": 82
    },
    {
      "midi": 42,
      "hit": false,
      "t": 30692.27700000001,
      "d": 225.96131249999962,
      "v": 79
    },
    {
      "midi": 50,
      "hit": false,
      "t": 30923.04600000001,
      "d": 225.96131249999962,
      "v": 90
    },
    {
      "midi": 59,
      "hit": false,
      "t": 30923.04600000001,
      "d": 225.96131249999962,
      "v": 78
    },
    {
      "midi": 38,
      "hit": false,
      "t": 30923.04600000001,
      "d": 225.96131249999962,
      "v": 107
    },
    {
      "midi": 42,
      "hit": false,
      "t": 30923.04600000001,
      "d": 225.96131249999962,
      "v": 64
    },
    {
      "midi": 38,
      "hit": false,
      "t": 30923.046000000017,
      "d": 225.96131249999962,
      "v": 117
    },
    {
      "midi": 50,
      "hit": false,
      "t": 31153.81500000001,
      "d": 225.96131249999962,
      "v": 94
    },
    {
      "midi": 57,
      "hit": false,
      "t": 31153.81500000001,
      "d": 225.96131249999962,
      "v": 83
    },
    {
      "midi": 36,
      "hit": false,
      "t": 31153.81500000001,
      "d": 225.96131249999962,
      "v": 99
    },
    {
      "midi": 42,
      "hit": false,
      "t": 31153.81500000001,
      "d": 225.96131249999962,
      "v": 77
    },
    {
      "midi": 40,
      "hit": false,
      "t": 31153.815000000017,
      "d": 225.96131249999962,
      "v": 110
    },
    {
      "midi": 43,
      "hit": false,
      "t": 31384.58400000001,
      "d": 225.96131249999962,
      "v": 90
    },
    {
      "midi": 50,
      "hit": false,
      "t": 31384.58400000001,
      "d": 225.96131249999962,
      "v": 86
    },
    {
      "midi": 42,
      "hit": false,
      "t": 31384.58400000001,
      "d": 225.96131249999962,
      "v": 92
    },
    {
      "midi": 36,
      "hit": false,
      "t": 31384.58400000001,
      "d": 456.73031249999985,
      "v": 110
    },
    {
      "midi": 43,
      "hit": false,
      "t": 31384.584000000017,
      "d": 456.73031249999985,
      "v": 113
    },
    {
      "midi": 55,
      "hit": false,
      "t": 31394.199374999833,
      "d": 679.8070124999977,
      "v": 101
    },
    {
      "midi": 59,
      "hit": false,
      "t": 31610.54531249983,
      "d": 517.3071749999981,
      "v": 75
    },
    {
      "midi": 50,
      "hit": false,
      "t": 31615.35300000001,
      "d": 225.96131249999962,
      "v": 78
    },
    {
      "midi": 43,
      "hit": false,
      "t": 31615.35300000001,
      "d": 225.96131249999962,
      "v": 88
    },
    {
      "midi": 42,
      "hit": false,
      "t": 31615.35300000001,
      "d": 225.96131249999962,
      "v": 60
    },
    {
      "midi": 62,
      "hit": false,
      "t": 31842.27584999983,
      "d": 286.53817499999786,
      "v": 83
    },
    {
      "midi": 43,
      "hit": false,
      "t": 31846.12200000001,
      "d": 225.96131249999962,
      "v": 90
    },
    {
      "midi": 52,
      "hit": false,
      "t": 31846.12200000001,
      "d": 225.96131249999962,
      "v": 82
    },
    {
      "midi": 38,
      "hit": false,
      "t": 31846.12200000001,
      "d": 225.96131249999962,
      "v": 110
    },
    {
      "midi": 42,
      "hit": false,
      "t": 31846.12200000001,
      "d": 225.96131249999962,
      "v": 66
    },
    {
      "midi": 67,
      "hit": false,
      "t": 32074.00638749983,
      "d": 79.80761249999705,
      "v": 76
    },
    {
      "midi": 50,
      "hit": false,
      "t": 32076.89100000001,
      "d": 225.96131249999962,
      "v": 85
    },
    {
      "midi": 43,
      "hit": false,
      "t": 32076.89100000001,
      "d": 225.96131249999962,
      "v": 90
    },
    {
      "midi": 36,
      "hit": false,
      "t": 32076.89100000001,
      "d": 225.96131249999962,
      "v": 104
    },
    {
      "midi": 42,
      "hit": false,
      "t": 32076.89100000001,
      "d": 225.96131249999962,
      "v": 62
    },
    {
      "midi": 43,
      "hit": false,
      "t": 32076.891000000018,
      "d": 225.96131249999962,
      "v": 104
    },
    {
      "midi": 45,
      "hit": false,
      "t": 32307.66000000001,
      "d": 225.96131249999962,
      "v": 97
    },
    {
      "midi": 50,
      "hit": false,
      "t": 32307.66000000001,
      "d": 225.96131249999962,
      "v": 86
    },
    {
      "midi": 42,
      "hit": false,
      "t": 32307.66000000001,
      "d": 225.96131249999962,
      "v": 86
    },
    {
      "midi": 36,
      "hit": false,
      "t": 32307.66000000001,
      "d": 456.73031249999985,
      "v": 110
    },
    {
      "midi": 38,
      "hit": false,
      "t": 32307.660000000018,
      "d": 456.73031249999985,
      "v": 113
    },
    {
      "midi": 50,
      "hit": false,
      "t": 32313.429224999825,
      "d": 680.7685500000007,
      "v": 92
    },
    {
      "midi": 45,
      "hit": false,
      "t": 32538.42900000001,
      "d": 225.96131249999962,
      "v": 90
    },
    {
      "midi": 50,
      "hit": false,
      "t": 32538.42900000001,
      "d": 225.96131249999962,
      "v": 76
    },
    {
      "midi": 42,
      "hit": false,
      "t": 32538.42900000001,
      "d": 225.96131249999962,
      "v": 75
    },
    {
      "midi": 54,
      "hit": false,
      "t": 32554.775137499826,
      "d": 456.7303124999962,
      "v": 74
    },
    {
      "midi": 45,
      "hit": false,
      "t": 32769.19800000001,
      "d": 225.96131250000326,
      "v": 92
    },
    {
      "midi": 52,
      "hit": false,
      "t": 32769.19800000001,
      "d": 225.96131250000326,
      "v": 83
    },
    {
      "midi": 38,
      "hit": false,
      "t": 32769.19800000001,
      "d": 225.96131250000326,
      "v": 107
    },
    {
      "midi": 42,
      "hit": false,
      "t": 32769.19800000001,
      "d": 225.96131250000326,
      "v": 69
    },
    {
      "midi": 57,
      "hit": false,
      "t": 32775.928762499825,
      "d": 261.5381999999954,
      "v": 75
    },
    {
      "midi": 62,
      "hit": false,
      "t": 32995.159312499825,
      "d": 105.76912499999162,
      "v": 86
    },
    {
      "midi": 50,
      "hit": false,
      "t": 32999.96700000001,
      "d": 225.96131250000326,
      "v": 83
    },
    {
      "midi": 45,
      "hit": false,
      "t": 32999.96700000001,
      "d": 225.96131250000326,
      "v": 85
    },
    {
      "midi": 36,
      "hit": false,
      "t": 32999.96700000001,
      "d": 225.96131250000326,
      "v": 97
    },
    {
      "midi": 42,
      "hit": false,
      "t": 32999.96700000001,
      "d": 225.96131250000326,
      "v": 79
    },
    {
      "midi": 38,
      "hit": false,
      "t": 32999.96700000002,
      "d": 225.96131250000326,
      "v": 117
    },
    {
      "midi": 55,
      "hit": false,
      "t": 33223.04369999981,
      "d": 729.8069624999916,
      "v": 85
    },
    {
      "midi": 50,
      "hit": false,
      "t": 33230.73600000001,
      "d": 225.96131250000326,
      "v": 83
    },
    {
      "midi": 43,
      "hit": false,
      "t": 33230.73600000001,
      "d": 225.96131250000326,
      "v": 99
    },
    {
      "midi": 42,
      "hit": false,
      "t": 33230.73600000001,
      "d": 225.96131250000326,
      "v": 96
    },
    {
      "midi": 36,
      "hit": false,
      "t": 33230.73600000001,
      "d": 456.7303125000035,
      "v": 113
    },
    {
      "midi": 43,
      "hit": false,
      "t": 33230.73600000002,
      "d": 456.7303125000035,
      "v": 110
    },
    {
      "midi": 43,
      "hit": false,
      "t": 33461.50500000001,
      "d": 225.96131250000326,
      "v": 92
    },
    {
      "midi": 50,
      "hit": false,
      "t": 33461.50500000001,
      "d": 225.96131250000326,
      "v": 80
    },
    {
      "midi": 42,
      "hit": false,
      "t": 33461.50500000001,
      "d": 225.96131250000326,
      "v": 77
    },
    {
      "midi": 59,
      "hit": false,
      "t": 33473.04344999981,
      "d": 541.3456124999939,
      "v": 76
    },
    {
      "midi": 62,
      "hit": false,
      "t": 33679.77401249981,
      "d": 1046.1527999999817,
      "v": 78
    },
    {
      "midi": 52,
      "hit": false,
      "t": 33692.27400000001,
      "d": 225.96131250000326,
      "v": 83
    },
    {
      "midi": 43,
      "hit": false,
      "t": 33692.27400000001,
      "d": 225.96131250000326,
      "v": 90
    },
    {
      "midi": 38,
      "hit": false,
      "t": 33692.27400000001,
      "d": 225.96131250000326,
      "v": 113
    },
    {
      "midi": 42,
      "hit": false,
      "t": 33692.27400000001,
      "d": 225.96131250000326,
      "v": 71
    },
    {
      "midi": 43,
      "hit": false,
      "t": 33923.04300000001,
      "d": 225.96131250000326,
      "v": 88
    },
    {
      "midi": 50,
      "hit": false,
      "t": 33923.04300000001,
      "d": 225.96131250000326,
      "v": 75
    },
    {
      "midi": 36,
      "hit": false,
      "t": 33923.04300000001,
      "d": 225.96131250000326,
      "v": 104
    },
    {
      "midi": 42,
      "hit": false,
      "t": 33923.04300000001,
      "d": 225.96131250000326,
      "v": 73
    },
    {
      "midi": 38,
      "hit": false,
      "t": 33923.04300000002,
      "d": 225.96131250000326,
      "v": 113
    },
    {
      "midi": 67,
      "hit": false,
      "t": 33924.96607499981,
      "d": 315.3842999999906,
      "v": 70
    },
    {
      "midi": 43,
      "hit": false,
      "t": 34153.812,
      "d": 456.7303125000035,
      "v": 65
    },
    {
      "midi": 50,
      "hit": false,
      "t": 34153.81200000001,
      "d": 225.96131250000326,
      "v": 85
    },
    {
      "midi": 43,
      "hit": false,
      "t": 34153.81200000001,
      "d": 225.96131250000326,
      "v": 94
    },
    {
      "midi": 42,
      "hit": false,
      "t": 34153.81200000001,
      "d": 225.96131250000326,
      "v": 84
    },
    {
      "midi": 36,
      "hit": false,
      "t": 34153.81200000001,
      "d": 456.7303125000035,
      "v": 110
    },
    {
      "midi": 43,
      "hit": false,
      "t": 34153.81200000002,
      "d": 456.7303125000035,
      "v": 113
    },
    {
      "midi": 55,
      "hit": false,
      "t": 34173.042749999804,
      "d": 324.99967499999184,
      "v": 101
    },
    {
      "midi": 50,
      "hit": false,
      "t": 34384.58100000001,
      "d": 225.96131250000326,
      "v": 83
    },
    {
      "midi": 43,
      "hit": false,
      "t": 34384.58100000001,
      "d": 225.96131250000326,
      "v": 90
    },
    {
      "midi": 42,
      "hit": false,
      "t": 34384.58100000001,
      "d": 225.96131250000326,
      "v": 81
    },
    {
      "midi": 42,
      "hit": false,
      "t": 34615.35,
      "d": 456.7303125000035,
      "v": 55
    },
    {
      "midi": 50,
      "hit": false,
      "t": 34615.35000000001,
      "d": 225.96131250000326,
      "v": 86
    },
    {
      "midi": 42,
      "hit": false,
      "t": 34615.35000000001,
      "d": 225.96131250000326,
      "v": 92
    },
    {
      "midi": 38,
      "hit": false,
      "t": 34615.35000000001,
      "d": 225.96131250000326,
      "v": 113
    },
    {
      "midi": 42,
      "hit": false,
      "t": 34615.35000000001,
      "d": 225.96131250000326,
      "v": 86
    },
    {
      "midi": 42,
      "hit": false,
      "t": 34615.35000000002,
      "d": 456.7303125000035,
      "v": 109
    },
    {
      "midi": 54,
      "hit": false,
      "t": 34632.6576749998,
      "d": 365.38424999998097,
      "v": 104
    },
    {
      "midi": 50,
      "hit": false,
      "t": 34846.11900000001,
      "d": 225.96131250000326,
      "v": 85
    },
    {
      "midi": 42,
      "hit": false,
      "t": 34846.11900000001,
      "d": 225.96131250000326,
      "v": 89
    },
    {
      "midi": 36,
      "hit": false,
      "t": 34846.11900000001,
      "d": 225.96131250000326,
      "v": 113
    },
    {
      "midi": 46,
      "hit": false,
      "t": 34846.11900000001,
      "d": 225.96131250000326,
      "v": 79
    },
    {
      "midi": 47,
      "hit": false,
      "t": 35076.88800000001,
      "d": 225.96131250000326,
      "v": 94
    },
    {
      "midi": 52,
      "hit": false,
      "t": 35076.88800000001,
      "d": 225.96131250000326,
      "v": 82
    },
    {
      "midi": 42,
      "hit": false,
      "t": 35076.88800000001,
      "d": 225.96131250000326,
      "v": 89
    },
    {
      "midi": 57,
      "hit": false,
      "t": 35076.88800000001,
      "d": 225.96131250000326,
      "v": 110
    },
    {
      "midi": 36,
      "hit": false,
      "t": 35076.88800000001,
      "d": 456.7303125000035,
      "v": 113
    },
    {
      "midi": 40,
      "hit": false,
      "t": 35076.88800000002,
      "d": 456.7303125000035,
      "v": 117
    },
    {
      "midi": 52,
      "hit": false,
      "t": 35098.041824999775,
      "d": 661.5377999999982,
      "v": 94
    },
    {
      "midi": 52,
      "hit": false,
      "t": 35307.657000000014,
      "d": 225.96131250000326,
      "v": 71
    },
    {
      "midi": 47,
      "hit": false,
      "t": 35307.657000000014,
      "d": 225.96131250000326,
      "v": 82
    },
    {
      "midi": 42,
      "hit": false,
      "t": 35307.657000000014,
      "d": 225.96131250000326,
      "v": 81
    },
    {
      "midi": 55,
      "hit": false,
      "t": 35317.272374999775,
      "d": 496.1533499999932,
      "v": 86
    },
    {
      "midi": 52,
      "hit": false,
      "t": 35538.426000000014,
      "d": 225.96131250000326,
      "v": 74
    },
    {
      "midi": 47,
      "hit": false,
      "t": 35538.426000000014,
      "d": 225.96131250000326,
      "v": 83
    },
    {
      "midi": 42,
      "hit": false,
      "t": 35538.426000000014,
      "d": 225.96131250000326,
      "v": 84
    },
    {
      "midi": 38,
      "hit": false,
      "t": 35538.426000000014,
      "d": 225.96131250000326,
      "v": 113
    },
    {
      "midi": 59,
      "hit": false,
      "t": 35539.38753749977,
      "d": 299.999699999993,
      "v": 78
    },
    {
      "midi": 52,
      "hit": false,
      "t": 35769.195000000014,
      "d": 225.96131250000326,
      "v": 79
    },
    {
      "midi": 47,
      "hit": false,
      "t": 35769.195000000014,
      "d": 225.96131250000326,
      "v": 86
    },
    {
      "midi": 42,
      "hit": false,
      "t": 35769.195000000014,
      "d": 225.96131250000326,
      "v": 86
    },
    {
      "midi": 36,
      "hit": false,
      "t": 35769.195000000014,
      "d": 225.96131250000326,
      "v": 123
    },
    {
      "midi": 40,
      "hit": false,
      "t": 35769.19500000002,
      "d": 225.96131250000326,
      "v": 104
    },
    {
      "midi": 64,
      "hit": false,
      "t": 35774.00268749977,
      "d": 125.96141249999346,
      "v": 75
    },
    {
      "midi": 50,
      "hit": false,
      "t": 35974.96402499976,
      "d": 708.6531374999977,
      "v": 67
    },
    {
      "midi": 45,
      "hit": false,
      "t": 35999.964000000014,
      "d": 225.96131250000326,
      "v": 94
    },
    {
      "midi": 50,
      "hit": false,
      "t": 35999.964000000014,
      "d": 225.96131250000326,
      "v": 82
    },
    {
      "midi": 42,
      "hit": false,
      "t": 35999.964000000014,
      "d": 225.96131250000326,
      "v": 92
    },
    {
      "midi": 36,
      "hit": false,
      "t": 35999.964000000014,
      "d": 456.7303125000035,
      "v": 110
    },
    {
      "midi": 38,
      "hit": false,
      "t": 35999.96400000002,
      "d": 456.7303125000035,
      "v": 110
    },
    {
      "midi": 50,
      "hit": false,
      "t": 36230.733000000015,
      "d": 225.96131250000326,
      "v": 83
    },
    {
      "midi": 45,
      "hit": false,
      "t": 36230.733000000015,
      "d": 225.96131250000326,
      "v": 86
    },
    {
      "midi": 46,
      "hit": false,
      "t": 36230.733000000015,
      "d": 225.96131250000326,
      "v": 89
    },
    {
      "midi": 54,
      "hit": false,
      "t": 36231.69453749976,
      "d": 454.8072374999974,
      "v": 75
    },
    {
      "midi": 57,
      "hit": false,
      "t": 36451.88662499976,
      "d": 262.4997374999948,
      "v": 76
    },
    {
      "midi": 50,
      "hit": false,
      "t": 36461.502000000015,
      "d": 225.96131250000326,
      "v": 76
    },
    {
      "midi": 45,
      "hit": false,
      "t": 36461.502000000015,
      "d": 225.96131250000326,
      "v": 83
    },
    {
      "midi": 42,
      "hit": false,
      "t": 36461.502000000015,
      "d": 225.96131250000326,
      "v": 92
    },
    {
      "midi": 38,
      "hit": false,
      "t": 36461.502000000015,
      "d": 225.96131250000326,
      "v": 110
    },
    {
      "midi": 62,
      "hit": false,
      "t": 36685.54023749976,
      "d": 103.84604999999283,
      "v": 83
    },
    {
      "midi": 50,
      "hit": false,
      "t": 36692.271000000015,
      "d": 225.96131250000326,
      "v": 80
    },
    {
      "midi": 45,
      "hit": false,
      "t": 36692.271000000015,
      "d": 225.96131250000326,
      "v": 90
    },
    {
      "midi": 42,
      "hit": false,
      "t": 36692.271000000015,
      "d": 225.96131250000326,
      "v": 79
    },
    {
      "midi": 36,
      "hit": false,
      "t": 36692.271000000015,
      "d": 225.96131250000326,
      "v": 120
    },
    {
      "midi": 42,
      "hit": false,
      "t": 36692.27100000002,
      "d": 225.96131250000326,
      "v": 104
    },
    {
      "midi": 55,
      "hit": false,
      "t": 36912.46308749975,
      "d": 729.8069624999916,
      "v": 88
    },
    {
      "midi": 50,
      "hit": false,
      "t": 36923.04,
      "d": 456.7303125000035,
      "v": 72
    },
    {
      "midi": 43,
      "hit": false,
      "t": 36923.04,
      "d": 456.7303125000035,
      "v": 63
    },
    {
      "midi": 50,
      "hit": false,
      "t": 36923.040000000015,
      "d": 225.96131250000326,
      "v": 82
    },
    {
      "midi": 43,
      "hit": false,
      "t": 36923.040000000015,
      "d": 225.96131250000326,
      "v": 99
    },
    {
      "midi": 42,
      "hit": false,
      "t": 36923.040000000015,
      "d": 225.96131250000326,
      "v": 89
    },
    {
      "midi": 36,
      "hit": false,
      "t": 36923.040000000015,
      "d": 456.7303125000035,
      "v": 113
    },
    {
      "midi": 43,
      "hit": false,
      "t": 36923.04000000002,
      "d": 456.7303125000035,
      "v": 113
    },
    {
      "midi": 59,
      "hit": false,
      "t": 37148.03977499975,
      "d": 917.3067749999973,
      "v": 64
    },
    {
      "midi": 50,
      "hit": false,
      "t": 37153.809000000016,
      "d": 225.96131250000326,
      "v": 80
    },
    {
      "midi": 43,
      "hit": false,
      "t": 37153.809000000016,
      "d": 225.96131250000326,
      "v": 97
    },
    {
      "midi": 42,
      "hit": false,
      "t": 37153.809000000016,
      "d": 225.96131250000326,
      "v": 66
    },
    {
      "midi": 62,
      "hit": false,
      "t": 37381.69338749975,
      "d": 959.6144249999925,
      "v": 74
    },
    {
      "midi": 52,
      "hit": false,
      "t": 37384.578,
      "d": 456.7303125000035,
      "v": 72
    },
    {
      "midi": 43,
      "hit": false,
      "t": 37384.578,
      "d": 456.7303125000035,
      "v": 58
    },
    {
      "midi": 43,
      "hit": false,
      "t": 37384.578000000016,
      "d": 225.96131250000326,
      "v": 97
    },
    {
      "midi": 52,
      "hit": false,
      "t": 37384.578000000016,
      "d": 225.96131250000326,
      "v": 79
    },
    {
      "midi": 38,
      "hit": false,
      "t": 37384.578000000016,
      "d": 225.96131250000326,
      "v": 107
    },
    {
      "midi": 42,
      "hit": false,
      "t": 37384.578000000016,
      "d": 225.96131250000326,
      "v": 62
    },
    {
      "midi": 67,
      "hit": false,
      "t": 37614.38546249975,
      "d": 752.8838624999917,
      "v": 69
    },
    {
      "midi": 43,
      "hit": false,
      "t": 37615.347000000016,
      "d": 225.96131250000326,
      "v": 97
    },
    {
      "midi": 50,
      "hit": false,
      "t": 37615.347000000016,
      "d": 225.96131250000326,
      "v": 79
    },
    {
      "midi": 36,
      "hit": false,
      "t": 37615.347000000016,
      "d": 225.96131250000326,
      "v": 110
    },
    {
      "midi": 42,
      "hit": false,
      "t": 37615.347000000016,
      "d": 225.96131250000326,
      "v": 59
    },
    {
      "midi": 38,
      "hit": false,
      "t": 37615.34700000002,
      "d": 225.96131250000326,
      "v": 117
    },
    {
      "midi": 43,
      "hit": false,
      "t": 37846.116,
      "d": 456.7303125000035,
      "v": 54
    },
    {
      "midi": 50,
      "hit": false,
      "t": 37846.116,
      "d": 456.7303125000035,
      "v": 73
    },
    {
      "midi": 50,
      "hit": false,
      "t": 37846.116000000016,
      "d": 225.96131250000326,
      "v": 83
    },
    {
      "midi": 43,
      "hit": false,
      "t": 37846.116000000016,
      "d": 225.96131250000326,
      "v": 97
    },
    {
      "midi": 42,
      "hit": false,
      "t": 37846.116000000016,
      "d": 225.96131250000326,
      "v": 96
    },
    {
      "midi": 36,
      "hit": false,
      "t": 37846.116000000016,
      "d": 456.7303125000035,
      "v": 117
    },
    {
      "midi": 40,
      "hit": false,
      "t": 37846.11600000002,
      "d": 225.96131250000326,
      "v": 101
    },
    {
      "midi": 43,
      "hit": false,
      "t": 38076.88500000002,
      "d": 225.96131250000326,
      "v": 94
    },
    {
      "midi": 50,
      "hit": false,
      "t": 38076.88500000002,
      "d": 225.96131250000326,
      "v": 75
    },
    {
      "midi": 42,
      "hit": false,
      "t": 38076.88500000002,
      "d": 225.96131250000326,
      "v": 79
    },
    {
      "midi": 43,
      "hit": false,
      "t": 38076.885000000024,
      "d": 225.96131250000326,
      "v": 101
    },
    {
      "midi": 55,
      "hit": false,
      "t": 38079.769612499746,
      "d": 510.5764124999914,
      "v": 83
    },
    {
      "midi": 59,
      "hit": false,
      "t": 38289.384787499745,
      "d": 325.96121249999123,
      "v": 76
    },
    {
      "midi": 43,
      "hit": false,
      "t": 38307.654,
      "d": 0.9615374999993946,
      "v": 53
    },
    {
      "midi": 52,
      "hit": false,
      "t": 38307.654,
      "d": 456.7303124999962,
      "v": 73
    },
    {
      "midi": 43,
      "hit": false,
      "t": 38307.65400000002,
      "d": 225.96131250000326,
      "v": 97
    },
    {
      "midi": 52,
      "hit": false,
      "t": 38307.65400000002,
      "d": 225.96131250000326,
      "v": 80
    },
    {
      "midi": 38,
      "hit": false,
      "t": 38307.65400000002,
      "d": 225.96131250000326,
      "v": 107
    },
    {
      "midi": 42,
      "hit": false,
      "t": 38307.65400000002,
      "d": 225.96131250000326,
      "v": 64
    },
    {
      "midi": 40,
      "hit": false,
      "t": 38307.654000000024,
      "d": 225.96131250000326,
      "v": 107
    },
    {
      "midi": 43,
      "hit": false,
      "t": 38538.42300000002,
      "d": 225.96131250000326,
      "v": 101
    },
    {
      "midi": 50,
      "hit": false,
      "t": 38538.42300000002,
      "d": 225.96131250000326,
      "v": 85
    },
    {
      "midi": 36,
      "hit": false,
      "t": 38538.42300000002,
      "d": 225.96131250000326,
      "v": 99
    },
    {
      "midi": 42,
      "hit": false,
      "t": 38538.42300000002,
      "d": 225.96131250000326,
      "v": 77
    },
    {
      "midi": 43,
      "hit": false,
      "t": 38538.423000000024,
      "d": 225.96131250000326,
      "v": 110
    },
    {
      "midi": 62,
      "hit": false,
      "t": 38549.96144999974,
      "d": 127.88448749999225,
      "v": 64
    },
    {
      "midi": 52,
      "hit": false,
      "t": 38769.19200000002,
      "d": 225.96131250000326,
      "v": 82
    },
    {
      "midi": 45,
      "hit": false,
      "t": 38769.19200000002,
      "d": 225.96131250000326,
      "v": 86
    },
    {
      "midi": 42,
      "hit": false,
      "t": 38769.19200000002,
      "d": 225.96131250000326,
      "v": 92
    },
    {
      "midi": 36,
      "hit": false,
      "t": 38769.19200000002,
      "d": 456.7303125000035,
      "v": 110
    },
    {
      "midi": 45,
      "hit": false,
      "t": 38769.192000000025,
      "d": 456.7303125000035,
      "v": 107
    },
    {
      "midi": 57,
      "hit": false,
      "t": 38789.384287499735,
      "d": 754.8069374999977,
      "v": 90
    },
    {
      "midi": 52,
      "hit": false,
      "t": 38999.96100000002,
      "d": 225.96131250000326,
      "v": 75
    },
    {
      "midi": 45,
      "hit": false,
      "t": 38999.96100000002,
      "d": 225.96131250000326,
      "v": 83
    },
    {
      "midi": 42,
      "hit": false,
      "t": 38999.96100000002,
      "d": 225.96131250000326,
      "v": 60
    },
    {
      "midi": 60,
      "hit": false,
      "t": 39014.38406249973,
      "d": 615.3839999999982,
      "v": 85
    },
    {
      "midi": 52,
      "hit": false,
      "t": 39230.73000000002,
      "d": 225.96131250000326,
      "v": 76
    },
    {
      "midi": 45,
      "hit": false,
      "t": 39230.73000000002,
      "d": 225.96131250000326,
      "v": 90
    },
    {
      "midi": 38,
      "hit": false,
      "t": 39230.73000000002,
      "d": 225.96131250000326,
      "v": 110
    },
    {
      "midi": 42,
      "hit": false,
      "t": 39230.73000000002,
      "d": 225.96131250000326,
      "v": 66
    },
    {
      "midi": 64,
      "hit": false,
      "t": 39248.03767499973,
      "d": 923.0760000000009,
      "v": 82
    },
    {
      "midi": 52,
      "hit": false,
      "t": 39461.49900000002,
      "d": 225.96131250000326,
      "v": 78
    },
    {
      "midi": 45,
      "hit": false,
      "t": 39461.49900000002,
      "d": 225.96131250000326,
      "v": 80
    },
    {
      "midi": 36,
      "hit": false,
      "t": 39461.49900000002,
      "d": 225.96131250000326,
      "v": 104
    },
    {
      "midi": 42,
      "hit": false,
      "t": 39461.49900000002,
      "d": 225.96131250000326,
      "v": 62
    },
    {
      "midi": 45,
      "hit": false,
      "t": 39461.499000000025,
      "d": 225.96131250000326,
      "v": 94
    },
    {
      "midi": 69,
      "hit": false,
      "t": 39468.22976249973,
      "d": 529.8071625000011,
      "v": 68
    },
    {
      "midi": 52,
      "hit": false,
      "t": 39692.26800000002,
      "d": 225.96131250000326,
      "v": 75
    },
    {
      "midi": 45,
      "hit": false,
      "t": 39692.26800000002,
      "d": 225.96131250000326,
      "v": 94
    },
    {
      "midi": 42,
      "hit": false,
      "t": 39692.26800000002,
      "d": 225.96131250000326,
      "v": 86
    },
    {
      "midi": 36,
      "hit": false,
      "t": 39692.26800000002,
      "d": 456.7303125000035,
      "v": 110
    },
    {
      "midi": 45,
      "hit": false,
      "t": 39692.268000000025,
      "d": 456.7303125000035,
      "v": 107
    },
    {
      "midi": 57,
      "hit": false,
      "t": 39908.61393749973,
      "d": 374.99962499999674,
      "v": 71
    },
    {
      "midi": 52,
      "hit": false,
      "t": 39923.03700000002,
      "d": 225.96131250000326,
      "v": 74
    },
    {
      "midi": 45,
      "hit": false,
      "t": 39923.03700000002,
      "d": 225.96131250000326,
      "v": 92
    },
    {
      "midi": 42,
      "hit": false,
      "t": 39923.03700000002,
      "d": 225.96131250000326,
      "v": 75
    },
    {
      "midi": 52,
      "hit": false,
      "t": 40153.80600000002,
      "d": 225.96131250000326,
      "v": 80
    },
    {
      "midi": 45,
      "hit": false,
      "t": 40153.80600000002,
      "d": 225.96131250000326,
      "v": 94
    },
    {
      "midi": 38,
      "hit": false,
      "t": 40153.80600000002,
      "d": 225.96131250000326,
      "v": 107
    },
    {
      "midi": 42,
      "hit": false,
      "t": 40153.80600000002,
      "d": 225.96131250000326,
      "v": 69
    },
    {
      "midi": 47,
      "hit": false,
      "t": 40153.806000000026,
      "d": 225.96131250000326,
      "v": 110
    },
    {
      "midi": 60,
      "hit": false,
      "t": 40155.729074999734,
      "d": 100.96143749999464,
      "v": 61
    },
    {
      "midi": 64,
      "hit": false,
      "t": 40369.19039999972,
      "d": 76.9230000000025,
      "v": 76
    },
    {
      "midi": 52,
      "hit": false,
      "t": 40384.57500000002,
      "d": 225.96131250000326,
      "v": 82
    },
    {
      "midi": 45,
      "hit": false,
      "t": 40384.57500000002,
      "d": 225.96131250000326,
      "v": 94
    },
    {
      "midi": 36,
      "hit": false,
      "t": 40384.57500000002,
      "d": 225.96131250000326,
      "v": 97
    },
    {
      "midi": 42,
      "hit": false,
      "t": 40384.57500000002,
      "d": 225.96131250000326,
      "v": 79
    },
    {
      "midi": 45,
      "hit": false,
      "t": 40384.575000000026,
      "d": 225.96131250000326,
      "v": 101
    },
    {
      "midi": 60,
      "hit": false,
      "t": 40615.34399999973,
      "d": 1005.7682249999998,
      "v": 90
    },
    {
      "midi": 55,
      "hit": false,
      "t": 40615.34400000002,
      "d": 225.96131250000326,
      "v": 90
    },
    {
      "midi": 48,
      "hit": false,
      "t": 40615.34400000002,
      "d": 225.96131250000326,
      "v": 92
    },
    {
      "midi": 42,
      "hit": false,
      "t": 40615.34400000002,
      "d": 225.96131250000326,
      "v": 96
    },
    {
      "midi": 36,
      "hit": false,
      "t": 40615.34400000002,
      "d": 456.7303125000035,
      "v": 113
    },
    {
      "midi": 38,
      "hit": false,
      "t": 40615.34400000003,
      "d": 456.7303125000035,
      "v": 113
    },
    {
      "midi": 64,
      "hit": false,
      "t": 40631.690137499725,
      "d": 1441.3447124999948,
      "v": 104
    },
    {
      "midi": 67,
      "hit": false,
      "t": 40632.651674999724,
      "d": 1646.1521999999968,
      "v": 97
    },
    {
      "midi": 55,
      "hit": false,
      "t": 40846.11300000002,
      "d": 225.96131250000326,
      "v": 80
    },
    {
      "midi": 48,
      "hit": false,
      "t": 40846.11300000002,
      "d": 225.96131250000326,
      "v": 92
    },
    {
      "midi": 42,
      "hit": false,
      "t": 40846.11300000002,
      "d": 225.96131250000326,
      "v": 77
    },
    {
      "midi": 48,
      "hit": false,
      "t": 41076.88200000002,
      "d": 225.96131250000326,
      "v": 94
    },
    {
      "midi": 57,
      "hit": false,
      "t": 41076.88200000002,
      "d": 225.96131250000326,
      "v": 80
    },
    {
      "midi": 38,
      "hit": false,
      "t": 41076.88200000002,
      "d": 225.96131250000326,
      "v": 113
    },
    {
      "midi": 42,
      "hit": false,
      "t": 41076.88200000002,
      "d": 225.96131250000326,
      "v": 71
    },
    {
      "midi": 55,
      "hit": false,
      "t": 41307.65100000002,
      "d": 225.96131250000326,
      "v": 83
    },
    {
      "midi": 48,
      "hit": false,
      "t": 41307.65100000002,
      "d": 225.96131250000326,
      "v": 94
    },
    {
      "midi": 36,
      "hit": false,
      "t": 41307.65100000002,
      "d": 225.96131250000326,
      "v": 104
    },
    {
      "midi": 42,
      "hit": false,
      "t": 41307.65100000002,
      "d": 225.96131250000326,
      "v": 73
    },
    {
      "midi": 38,
      "hit": false,
      "t": 41307.65100000003,
      "d": 225.96131250000326,
      "v": 110
    },
    {
      "midi": 72,
      "hit": false,
      "t": 41529.76616249973,
      "d": 761.5376999999935,
      "v": 76
    },
    {
      "midi": 55,
      "hit": false,
      "t": 41538.42000000002,
      "d": 225.96131250000326,
      "v": 88
    },
    {
      "midi": 48,
      "hit": false,
      "t": 41538.42000000002,
      "d": 225.96131250000326,
      "v": 99
    },
    {
      "midi": 42,
      "hit": false,
      "t": 41538.42000000002,
      "d": 225.96131250000326,
      "v": 84
    },
    {
      "midi": 36,
      "hit": false,
      "t": 41538.42000000002,
      "d": 456.7303125000035,
      "v": 110
    },
    {
      "midi": 38,
      "hit": false,
      "t": 41538.42000000003,
      "d": 456.7303125000035,
      "v": 120
    },
    {
      "midi": 71,
      "hit": false,
      "t": 41545.150762499725,
      "d": 138.46140000000014,
      "v": 66
    },
    {
      "midi": 55,
      "hit": false,
      "t": 41769.18900000002,
      "d": 225.96131250000326,
      "v": 83
    },
    {
      "midi": 48,
      "hit": false,
      "t": 41769.18900000002,
      "d": 225.96131250000326,
      "v": 88
    },
    {
      "midi": 42,
      "hit": false,
      "t": 41769.18900000002,
      "d": 225.96131250000326,
      "v": 81
    },
    {
      "midi": 48,
      "hit": false,
      "t": 41999.95800000002,
      "d": 225.96131250000326,
      "v": 99
    },
    {
      "midi": 57,
      "hit": false,
      "t": 41999.95800000002,
      "d": 225.96131250000326,
      "v": 83
    },
    {
      "midi": 38,
      "hit": false,
      "t": 41999.95800000002,
      "d": 225.96131250000326,
      "v": 113
    },
    {
      "midi": 42,
      "hit": false,
      "t": 41999.95800000002,
      "d": 225.96131250000326,
      "v": 86
    },
    {
      "midi": 38,
      "hit": false,
      "t": 41999.95800000003,
      "d": 225.96131250000326,
      "v": 117
    },
    {
      "midi": 60,
      "hit": false,
      "t": 42022.07336249972,
      "d": 296.15354999999545,
      "v": 80
    },
    {
      "midi": 55,
      "hit": false,
      "t": 42230.72700000002,
      "d": 225.96131250000326,
      "v": 86
    },
    {
      "midi": 48,
      "hit": false,
      "t": 42230.72700000002,
      "d": 225.96131250000326,
      "v": 99
    },
    {
      "midi": 36,
      "hit": false,
      "t": 42230.72700000002,
      "d": 225.96131250000326,
      "v": 113
    },
    {
      "midi": 46,
      "hit": false,
      "t": 42230.72700000002,
      "d": 225.96131250000326,
      "v": 79
    },
    {
      "midi": 40,
      "hit": false,
      "t": 42230.72700000003,
      "d": 225.96131250000326,
      "v": 110
    },
    {
      "midi": 57,
      "hit": false,
      "t": 42461.49600000002,
      "d": 225.96131250000326,
      "v": 90
    },
    {
      "midi": 50,
      "hit": false,
      "t": 42461.49600000002,
      "d": 225.96131250000326,
      "v": 99
    },
    {
      "midi": 42,
      "hit": false,
      "t": 42461.49600000002,
      "d": 225.96131250000326,
      "v": 89
    },
    {
      "midi": 36,
      "hit": false,
      "t": 42461.49600000002,
      "d": 225.96131250000326,
      "v": 120
    },
    {
      "midi": 38,
      "hit": false,
      "t": 42461.49600000003,
      "d": 225.96131250000326,
      "v": 123
    },
    {
      "midi": 66,
      "hit": false,
      "t": 42464.38061249972,
      "d": 1259.6141250000073,
      "v": 94
    },
    {
      "midi": 69,
      "hit": false,
      "t": 42465.34214999972,
      "d": 1257.6910500000085,
      "v": 94
    },
    {
      "midi": 62,
      "hit": false,
      "t": 42483.61136249972,
      "d": 282.69202499999665,
      "v": 97
    },
    {
      "midi": 50,
      "hit": false,
      "t": 42692.26500000002,
      "d": 225.96131250000326,
      "v": 85
    },
    {
      "midi": 57,
      "hit": false,
      "t": 42692.26500000002,
      "d": 225.96131250000326,
      "v": 73
    },
    {
      "midi": 42,
      "hit": false,
      "t": 42692.26500000002,
      "d": 225.96131250000326,
      "v": 86
    },
    {
      "midi": 38,
      "hit": false,
      "t": 42692.26500000002,
      "d": 225.96131250000326,
      "v": 50
    },
    {
      "midi": 38,
      "hit": false,
      "t": 42692.26500000003,
      "d": 225.96131250000326,
      "v": 104
    },
    {
      "midi": 62,
      "hit": false,
      "t": 42888.41864999972,
      "d": 308.65353750000213,
      "v": 88
    },
    {
      "midi": 50,
      "hit": false,
      "t": 42923.03400000002,
      "d": 225.96131250000326,
      "v": 92
    },
    {
      "midi": 59,
      "hit": false,
      "t": 42923.03400000002,
      "d": 225.96131250000326,
      "v": 82
    },
    {
      "midi": 42,
      "hit": false,
      "t": 42923.03400000002,
      "d": 225.96131250000326,
      "v": 84
    },
    {
      "midi": 38,
      "hit": false,
      "t": 42923.03400000002,
      "d": 225.96131250000326,
      "v": 65
    },
    {
      "midi": 74,
      "hit": false,
      "t": 43121.11072499972,
      "d": 512.4994875000048,
      "v": 75
    },
    {
      "midi": 50,
      "hit": false,
      "t": 43153.80300000002,
      "d": 225.96131250000326,
      "v": 92
    },
    {
      "midi": 57,
      "hit": false,
      "t": 43153.80300000002,
      "d": 225.96131250000326,
      "v": 78
    },
    {
      "midi": 42,
      "hit": false,
      "t": 43153.80300000002,
      "d": 225.96131250000326,
      "v": 73
    },
    {
      "midi": 38,
      "hit": false,
      "t": 43153.80300000002,
      "d": 225.96131250000326,
      "v": 76
    },
    {
      "midi": 38,
      "hit": false,
      "t": 43153.80300000003,
      "d": 225.96131250000326,
      "v": 110
    },
    {
      "midi": 57,
      "hit": false,
      "t": 43384.57200000002,
      "d": 225.96131250000326,
      "v": 79
    },
    {
      "midi": 50,
      "hit": false,
      "t": 43384.57200000002,
      "d": 225.96131250000326,
      "v": 86
    },
    {
      "midi": 36,
      "hit": false,
      "t": 43384.57200000002,
      "d": 225.96131250000326,
      "v": 117
    },
    {
      "midi": 42,
      "hit": false,
      "t": 43384.57200000002,
      "d": 225.96131250000326,
      "v": 92
    },
    {
      "midi": 38,
      "hit": false,
      "t": 43384.57200000002,
      "d": 225.96131250000326,
      "v": 93
    },
    {
      "midi": 40,
      "hit": false,
      "t": 43384.57200000003,
      "d": 225.96131250000326,
      "v": 107
    },
    {
      "midi": 57,
      "hit": false,
      "t": 43615.34100000002,
      "d": 225.96131250000326,
      "v": 78
    },
    {
      "midi": 50,
      "hit": false,
      "t": 43615.34100000002,
      "d": 225.96131250000326,
      "v": 94
    },
    {
      "midi": 46,
      "hit": false,
      "t": 43615.34100000002,
      "d": 225.96131250000326,
      "v": 86
    },
    {
      "midi": 38,
      "hit": false,
      "t": 43615.34100000002,
      "d": 225.96131250000326,
      "v": 110
    },
    {
      "midi": 38,
      "hit": false,
      "t": 43615.34100000003,
      "d": 225.96131250000326,
      "v": 107
    },
    {
      "midi": 62,
      "hit": false,
      "t": 43633.61021249973,
      "d": 342.30735000000277,
      "v": 85
    },
    {
      "midi": 50,
      "hit": false,
      "t": 43846.11000000002,
      "d": 225.96131250000326,
      "v": 99
    },
    {
      "midi": 59,
      "hit": false,
      "t": 43846.11000000002,
      "d": 225.96131250000326,
      "v": 86
    },
    {
      "midi": 38,
      "hit": false,
      "t": 43846.11000000002,
      "d": 100.96143750000192,
      "v": 117
    },
    {
      "midi": 42,
      "hit": false,
      "t": 43846.11000000002,
      "d": 225.96131250000326,
      "v": 84
    },
    {
      "midi": 35,
      "hit": false,
      "t": 43846.11000000003,
      "d": 225.96131250000326,
      "v": 117
    },
    {
      "midi": 66,
      "hit": false,
      "t": 43870.14843749973,
      "d": 104.8075874999995,
      "v": 76
    },
    {
      "midi": 69,
      "hit": false,
      "t": 43871.10997499973,
      "d": 107.69219999999768,
      "v": 82
    },
    {
      "midi": 62,
      "hit": false,
      "t": 44053.802099999724,
      "d": 59.61532499999885,
      "v": 60
    },
    {
      "midi": 69,
      "hit": false,
      "t": 44070.14823749972,
      "d": 57.69225000000006,
      "v": 65
    },
    {
      "midi": 66,
      "hit": false,
      "t": 44071.10977499972,
      "d": 55.76917500000127,
      "v": 56
    },
    {
      "midi": 57,
      "hit": false,
      "t": 44076.87900000002,
      "d": 225.96131250000326,
      "v": 86
    },
    {
      "midi": 50,
      "hit": false,
      "t": 44076.87900000002,
      "d": 225.96131250000326,
      "v": 104
    },
    {
      "midi": 46,
      "hit": false,
      "t": 44076.87900000002,
      "d": 225.96131250000326,
      "v": 89
    },
    {
      "midi": 45,
      "hit": false,
      "t": 44076.87900000002,
      "d": 225.96131250000326,
      "v": 120
    },
    {
      "midi": 33,
      "hit": false,
      "t": 44076.87900000003,
      "d": 225.96131250000326,
      "v": 113
    },
    {
      "midi": 62,
      "hit": false,
      "t": 44299.95569999972,
      "d": 196.15364999999292,
      "v": 97
    },
    {
      "midi": 67,
      "hit": false,
      "t": 44300.91723749972,
      "d": 144.2306249999965,
      "v": 97
    },
    {
      "midi": 71,
      "hit": false,
      "t": 44301.87877499972,
      "d": 143.2690874999971,
      "v": 90
    },
    {
      "midi": 43,
      "hit": false,
      "t": 44307.64800000002,
      "d": 225.96131250000326,
      "v": 101
    },
    {
      "midi": 50,
      "hit": false,
      "t": 44307.64800000002,
      "d": 225.96131250000326,
      "v": 86
    },
    {
      "midi": 42,
      "hit": false,
      "t": 44307.64800000002,
      "d": 225.96131250000326,
      "v": 86
    },
    {
      "midi": 56,
      "hit": false,
      "t": 44307.64800000002,
      "d": 456.7303125000035,
      "v": 86
    },
    {
      "midi": 57,
      "hit": false,
      "t": 44307.64800000002,
      "d": 456.7303125000035,
      "v": 113
    },
    {
      "midi": 36,
      "hit": false,
      "t": 44307.64800000002,
      "d": 456.7303125000035,
      "v": 120
    },
    {
      "midi": 31,
      "hit": false,
      "t": 44307.64800000003,
      "d": 225.96131250000326,
      "v": 117
    },
    {
      "midi": 62,
      "hit": false,
      "t": 44535.53238749971,
      "d": 120.19218749999709,
      "v": 62
    },
    {
      "midi": 43,
      "hit": false,
      "t": 44538.41700000002,
      "d": 225.96131250000326,
      "v": 82
    },
    {
      "midi": 50,
      "hit": false,
      "t": 44538.41700000002,
      "d": 225.96131250000326,
      "v": 75
    },
    {
      "midi": 46,
      "hit": false,
      "t": 44538.41700000002,
      "d": 225.96131250000326,
      "v": 89
    },
    {
      "midi": 43,
      "hit": false,
      "t": 44538.41700000003,
      "d": 225.96131250000326,
      "v": 117
    },
    {
      "midi": 66,
      "hit": false,
      "t": 44551.87852499971,
      "d": 105.7691249999989,
      "v": 85
    },
    {
      "midi": 69,
      "hit": false,
      "t": 44552.84006249971,
      "d": 104.8075874999995,
      "v": 92
    },
    {
      "midi": 71,
      "hit": false,
      "t": 44756.686012499704,
      "d": 132.6921749999965,
      "v": 88
    },
    {
      "midi": 62,
      "hit": false,
      "t": 44757.6475499997,
      "d": 159.6152249999941,
      "v": 71
    },
    {
      "midi": 67,
      "hit": false,
      "t": 44758.6090874997,
      "d": 131.7306374999971,
      "v": 90
    },
    {
      "midi": 43,
      "hit": false,
      "t": 44769.18600000002,
      "d": 225.96131250000326,
      "v": 92
    },
    {
      "midi": 52,
      "hit": false,
      "t": 44769.18600000002,
      "d": 225.96131250000326,
      "v": 82
    },
    {
      "midi": 42,
      "hit": false,
      "t": 44769.18600000002,
      "d": 225.96131250000326,
      "v": 96
    },
    {
      "midi": 56,
      "hit": false,
      "t": 44769.18600000002,
      "d": 456.7303125000035,
      "v": 75
    },
    {
      "midi": 58,
      "hit": false,
      "t": 44769.18600000002,
      "d": 456.7303125000035,
      "v": 109
    },
    {
      "midi": 38,
      "hit": false,
      "t": 44769.18600000002,
      "d": 456.7303125000035,
      "v": 117
    },
    {
      "midi": 31,
      "hit": false,
      "t": 44769.18600000003,
      "d": 225.96131250000326,
      "v": 113
    },
    {
      "midi": 43,
      "hit": false,
      "t": 44999.95500000002,
      "d": 225.96131250000326,
      "v": 92
    },
    {
      "midi": 50,
      "hit": false,
      "t": 44999.95500000002,
      "d": 225.96131250000326,
      "v": 75
    },
    {
      "midi": 46,
      "hit": false,
      "t": 44999.95500000002,
      "d": 225.96131250000326,
      "v": 92
    },
    {
      "midi": 31,
      "hit": false,
      "t": 44999.95500000003,
      "d": 456.7303125000035,
      "v": 113
    },
    {
      "midi": 66,
      "hit": false,
      "t": 45003.801149999694,
      "d": 287.4997124999936,
      "v": 90
    },
    {
      "midi": 62,
      "hit": false,
      "t": 45004.76268749969,
      "d": 258.65358749999723,
      "v": 83
    },
    {
      "midi": 69,
      "hit": false,
      "t": 45005.72422499969,
      "d": 272.11511249999603,
      "v": 94
    },
    {
      "midi": 50,
      "hit": false,
      "t": 45230.724000000024,
      "d": 225.96131250000326,
      "v": 83
    },
    {
      "midi": 43,
      "hit": false,
      "t": 45230.724000000024,
      "d": 225.96131250000326,
      "v": 94
    },
    {
      "midi": 42,
      "hit": false,
      "t": 45230.724000000024,
      "d": 225.96131250000326,
      "v": 86
    },
    {
      "midi": 56,
      "hit": false,
      "t": 45230.724000000024,
      "d": 456.7303125000035,
      "v": 73
    },
    {
      "midi": 36,
      "hit": false,
      "t": 45230.724000000024,
      "d": 456.7303125000035,
      "v": 123
    },
    {
      "midi": 62,
      "hit": false,
      "t": 45450.91608749969,
      "d": 331.7304374999949,
      "v": 90
    },
    {
      "midi": 43,
      "hit": false,
      "t": 45461.493000000024,
      "d": 225.96131250000326,
      "v": 90
    },
    {
      "midi": 50,
      "hit": false,
      "t": 45461.493000000024,
      "d": 225.96131250000326,
      "v": 78
    },
    {
      "midi": 42,
      "hit": false,
      "t": 45461.493000000024,
      "d": 110.57681250000314,
      "v": 89
    },
    {
      "midi": 43,
      "hit": false,
      "t": 45461.49300000003,
      "d": 225.96131250000326,
      "v": 113
    },
    {
      "midi": 67,
      "hit": false,
      "t": 45465.33914999969,
      "d": 304.8073874999973,
      "v": 94
    },
    {
      "midi": 71,
      "hit": false,
      "t": 45466.300687499686,
      "d": 290.3843249999991,
      "v": 90
    },
    {
      "midi": 42,
      "hit": false,
      "t": 45576.877500000024,
      "d": 110.57681250000314,
      "v": 92
    },
    {
      "midi": 43,
      "hit": false,
      "t": 45692.262000000024,
      "d": 225.96131250000326,
      "v": 99
    },
    {
      "midi": 52,
      "hit": false,
      "t": 45692.262000000024,
      "d": 225.96131250000326,
      "v": 83
    },
    {
      "midi": 42,
      "hit": false,
      "t": 45692.262000000024,
      "d": 225.96131250000326,
      "v": 100
    },
    {
      "midi": 56,
      "hit": false,
      "t": 45692.262000000024,
      "d": 456.7303125000035,
      "v": 71
    },
    {
      "midi": 38,
      "hit": false,
      "t": 45692.262000000024,
      "d": 456.7303125000035,
      "v": 117
    },
    {
      "midi": 31,
      "hit": false,
      "t": 45692.26200000003,
      "d": 225.96131250000326,
      "v": 110
    },
    {
      "midi": 43,
      "hit": false,
      "t": 45923.031000000025,
      "d": 225.96131250000326,
      "v": 94
    },
    {
      "midi": 50,
      "hit": false,
      "t": 45923.031000000025,
      "d": 225.96131250000326,
      "v": 79
    },
    {
      "midi": 46,
      "hit": false,
      "t": 45923.031000000025,
      "d": 225.96131250000326,
      "v": 96
    },
    {
      "midi": 31,
      "hit": false,
      "t": 45923.03100000003,
      "d": 456.7303125000035,
      "v": 110
    },
    {
      "midi": 60,
      "hit": false,
      "t": 45931.684837499684,
      "d": 779.8069124999965,
      "v": 92
    },
    {
      "midi": 64,
      "hit": false,
      "t": 45931.684837499684,
      "d": 804.8068874999954,
      "v": 97
    },
    {
      "midi": 67,
      "hit": false,
      "t": 45932.646374999684,
      "d": 818.2684124999942,
      "v": 90
    },
    {
      "midi": 43,
      "hit": false,
      "t": 46153.800000000025,
      "d": 225.96131250000326,
      "v": 97
    },
    {
      "midi": 50,
      "hit": false,
      "t": 46153.800000000025,
      "d": 225.96131250000326,
      "v": 83
    },
    {
      "midi": 42,
      "hit": false,
      "t": 46153.800000000025,
      "d": 225.96131250000326,
      "v": 89
    },
    {
      "midi": 56,
      "hit": false,
      "t": 46153.800000000025,
      "d": 456.7303125000035,
      "v": 75
    },
    {
      "midi": 36,
      "hit": false,
      "t": 46153.800000000025,
      "d": 456.7303125000035,
      "v": 117
    },
    {
      "midi": 43,
      "hit": false,
      "t": 46384.569000000025,
      "d": 225.96131250000326,
      "v": 85
    },
    {
      "midi": 50,
      "hit": false,
      "t": 46384.569000000025,
      "d": 225.96131250000326,
      "v": 76
    },
    {
      "midi": 46,
      "hit": false,
      "t": 46384.569000000025,
      "d": 225.96131250000326,
      "v": 84
    },
    {
      "midi": 43,
      "hit": false,
      "t": 46384.56900000003,
      "d": 225.96131250000326,
      "v": 117
    },
    {
      "midi": 43,
      "hit": false,
      "t": 46615.338000000025,
      "d": 225.96131250000326,
      "v": 97
    },
    {
      "midi": 52,
      "hit": false,
      "t": 46615.338000000025,
      "d": 225.96131250000326,
      "v": 82
    },
    {
      "midi": 42,
      "hit": false,
      "t": 46615.338000000025,
      "d": 225.96131250000326,
      "v": 100
    },
    {
      "midi": 56,
      "hit": false,
      "t": 46615.338000000025,
      "d": 456.7303125000035,
      "v": 73
    },
    {
      "midi": 38,
      "hit": false,
      "t": 46615.338000000025,
      "d": 456.7303125000035,
      "v": 113
    },
    {
      "midi": 31,
      "hit": false,
      "t": 46615.33800000003,
      "d": 225.96131250000326,
      "v": 113
    },
    {
      "midi": 43,
      "hit": false,
      "t": 46846.107000000025,
      "d": 225.96131250000326,
      "v": 92
    },
    {
      "midi": 50,
      "hit": false,
      "t": 46846.107000000025,
      "d": 225.96131250000326,
      "v": 82
    },
    {
      "midi": 42,
      "hit": false,
      "t": 46846.107000000025,
      "d": 110.57681250000314,
      "v": 84
    },
    {
      "midi": 43,
      "hit": false,
      "t": 46846.10700000003,
      "d": 225.96131250000326,
      "v": 110
    },
    {
      "midi": 62,
      "hit": false,
      "t": 46848.991612499674,
      "d": 913.4606249999997,
      "v": 88
    },
    {
      "midi": 66,
      "hit": false,
      "t": 46849.953149999674,
      "d": 950.9605874999979,
      "v": 88
    },
    {
      "midi": 69,
      "hit": false,
      "t": 46849.953149999674,
      "d": 963.4605749999973,
      "v": 88
    },
    {
      "midi": 42,
      "hit": false,
      "t": 46961.491500000026,
      "d": 110.57681250000314,
      "v": 89
    },
    {
      "midi": 50,
      "hit": false,
      "t": 47076.876000000026,
      "d": 225.96131250000326,
      "v": 76
    },
    {
      "midi": 43,
      "hit": false,
      "t": 47076.876000000026,
      "d": 225.96131250000326,
      "v": 86
    },
    {
      "midi": 42,
      "hit": false,
      "t": 47076.876000000026,
      "d": 225.96131250000326,
      "v": 100
    },
    {
      "midi": 56,
      "hit": false,
      "t": 47076.876000000026,
      "d": 456.7303125000035,
      "v": 75
    },
    {
      "midi": 36,
      "hit": false,
      "t": 47076.876000000026,
      "d": 456.7303125000035,
      "v": 113
    },
    {
      "midi": 28,
      "hit": false,
      "t": 47076.87600000003,
      "d": 225.96131250000326,
      "v": 117
    },
    {
      "midi": 50,
      "hit": false,
      "t": 47307.645000000026,
      "d": 225.96131250000326,
      "v": 79
    },
    {
      "midi": 43,
      "hit": false,
      "t": 47307.645000000026,
      "d": 225.96131250000326,
      "v": 90
    },
    {
      "midi": 46,
      "hit": false,
      "t": 47307.645000000026,
      "d": 225.96131250000326,
      "v": 84
    },
    {
      "midi": 28,
      "hit": false,
      "t": 47307.64500000003,
      "d": 456.7303125000035,
      "v": 120
    },
    {
      "midi": 43,
      "hit": false,
      "t": 47538.414000000026,
      "d": 225.96131250000326,
      "v": 97
    },
    {
      "midi": 52,
      "hit": false,
      "t": 47538.414000000026,
      "d": 225.96131250000326,
      "v": 78
    },
    {
      "midi": 42,
      "hit": false,
      "t": 47538.414000000026,
      "d": 225.96131250000326,
      "v": 104
    },
    {
      "midi": 56,
      "hit": false,
      "t": 47538.414000000026,
      "d": 456.7303125000035,
      "v": 71
    },
    {
      "midi": 38,
      "hit": false,
      "t": 47538.414000000026,
      "d": 456.7303125000035,
      "v": 120
    },
    {
      "midi": 43,
      "hit": false,
      "t": 47769.18300000003,
      "d": 225.96131250000326,
      "v": 99
    },
    {
      "midi": 50,
      "hit": false,
      "t": 47769.18300000003,
      "d": 225.96131250000326,
      "v": 76
    },
    {
      "midi": 46,
      "hit": false,
      "t": 47769.18300000003,
      "d": 225.96131250000326,
      "v": 96
    },
    {
      "midi": 31,
      "hit": false,
      "t": 47769.183000000034,
      "d": 456.7303125000035,
      "v": 113
    },
    {
      "midi": 67,
      "hit": false,
      "t": 47997.06738749967,
      "d": 119.2306499999977,
      "v": 92
    },
    {
      "midi": 62,
      "hit": false,
      "t": 47997.06738749967,
      "d": 146.1536999999953,
      "v": 94
    },
    {
      "midi": 71,
      "hit": false,
      "t": 47999.95199999967,
      "d": 116.34603749999951,
      "v": 88
    },
    {
      "midi": 43,
      "hit": false,
      "t": 47999.95200000003,
      "d": 225.96131250000326,
      "v": 97
    },
    {
      "midi": 50,
      "hit": false,
      "t": 47999.95200000003,
      "d": 225.96131250000326,
      "v": 90
    },
    {
      "midi": 42,
      "hit": false,
      "t": 47999.95200000003,
      "d": 225.96131250000326,
      "v": 89
    },
    {
      "midi": 56,
      "hit": false,
      "t": 47999.95200000003,
      "d": 456.7303125000035,
      "v": 69
    },
    {
      "midi": 36,
      "hit": false,
      "t": 47999.95200000003,
      "d": 456.7303125000035,
      "v": 117
    },
    {
      "midi": 66,
      "hit": false,
      "t": 48229.759462499664,
      "d": 110.57681249999587,
      "v": 86
    },
    {
      "midi": 62,
      "hit": false,
      "t": 48230.72099999966,
      "d": 94.23067499999888,
      "v": 71
    },
    {
      "midi": 50,
      "hit": false,
      "t": 48230.72100000003,
      "d": 225.96131250000326,
      "v": 76
    },
    {
      "midi": 43,
      "hit": false,
      "t": 48230.72100000003,
      "d": 225.96131250000326,
      "v": 90
    },
    {
      "midi": 46,
      "hit": false,
      "t": 48230.72100000003,
      "d": 225.96131250000326,
      "v": 84
    },
    {
      "midi": 43,
      "hit": false,
      "t": 48230.721000000034,
      "d": 225.96131250000326,
      "v": 117
    },
    {
      "midi": 69,
      "hit": false,
      "t": 48231.68253749966,
      "d": 107.69219999999768,
      "v": 90
    },
    {
      "midi": 43,
      "hit": false,
      "t": 48461.49000000003,
      "d": 225.96131250000326,
      "v": 101
    },
    {
      "midi": 52,
      "hit": false,
      "t": 48461.49000000003,
      "d": 225.96131250000326,
      "v": 83
    },
    {
      "midi": 42,
      "hit": false,
      "t": 48461.49000000003,
      "d": 225.96131250000326,
      "v": 100
    },
    {
      "midi": 56,
      "hit": false,
      "t": 48461.49000000003,
      "d": 456.7303125000035,
      "v": 66
    },
    {
      "midi": 38,
      "hit": false,
      "t": 48461.49000000003,
      "d": 456.7303125000035,
      "v": 113
    },
    {
      "midi": 31,
      "hit": false,
      "t": 48461.490000000034,
      "d": 225.96131250000326,
      "v": 113
    },
    {
      "midi": 62,
      "hit": false,
      "t": 48463.41307499966,
      "d": 146.1536999999953,
      "v": 80
    },
    {
      "midi": 67,
      "hit": false,
      "t": 48464.37461249966,
      "d": 131.7306374999971,
      "v": 92
    },
    {
      "midi": 71,
      "hit": false,
      "t": 48465.33614999966,
      "d": 129.8075624999983,
      "v": 90
    },
    {
      "midi": 43,
      "hit": false,
      "t": 48692.25900000003,
      "d": 225.96131250000326,
      "v": 92
    },
    {
      "midi": 50,
      "hit": false,
      "t": 48692.25900000003,
      "d": 225.96131250000326,
      "v": 75
    },
    {
      "midi": 42,
      "hit": false,
      "t": 48692.25900000003,
      "d": 110.57681250000314,
      "v": 84
    },
    {
      "midi": 31,
      "hit": false,
      "t": 48692.259000000035,
      "d": 456.7303125000035,
      "v": 113
    },
    {
      "midi": 62,
      "hit": false,
      "t": 48709.56667499966,
      "d": 210.5767124999984,
      "v": 82
    },
    {
      "midi": 66,
      "hit": false,
      "t": 48710.52821249966,
      "d": 223.0766999999978,
      "v": 92
    },
    {
      "midi": 69,
      "hit": false,
      "t": 48728.79742499966,
      "d": 204.80748749999475,
      "v": 94
    },
    {
      "midi": 42,
      "hit": false,
      "t": 48807.64350000003,
      "d": 110.57681250000314,
      "v": 89
    },
    {
      "midi": 50,
      "hit": false,
      "t": 48923.02800000003,
      "d": 225.96131250000326,
      "v": 83
    },
    {
      "midi": 43,
      "hit": false,
      "t": 48923.02800000003,
      "d": 225.96131250000326,
      "v": 97
    },
    {
      "midi": 42,
      "hit": false,
      "t": 48923.02800000003,
      "d": 225.96131250000326,
      "v": 100
    },
    {
      "midi": 56,
      "hit": false,
      "t": 48923.02800000003,
      "d": 456.7303125000035,
      "v": 63
    },
    {
      "midi": 36,
      "hit": false,
      "t": 48923.02800000003,
      "d": 456.7303125000035,
      "v": 113
    },
    {
      "midi": 62,
      "hit": false,
      "t": 49129.75856249966,
      "d": 308.65353749999485,
      "v": 85
    },
    {
      "midi": 67,
      "hit": false,
      "t": 49130.72009999966,
      "d": 295.19201249999605,
      "v": 94
    },
    {
      "midi": 71,
      "hit": false,
      "t": 49131.681637499656,
      "d": 269.23049999999785,
      "v": 86
    },
    {
      "midi": 43,
      "hit": false,
      "t": 49153.79700000003,
      "d": 225.96131250000326,
      "v": 92
    },
    {
      "midi": 50,
      "hit": false,
      "t": 49153.79700000003,
      "d": 225.96131250000326,
      "v": 73
    },
    {
      "midi": 46,
      "hit": false,
      "t": 49153.79700000003,
      "d": 225.96131250000326,
      "v": 84
    },
    {
      "midi": 43,
      "hit": false,
      "t": 49153.797000000035,
      "d": 225.96131250000326,
      "v": 113
    },
    {
      "midi": 43,
      "hit": false,
      "t": 49384.56600000003,
      "d": 225.96131250000326,
      "v": 101
    },
    {
      "midi": 52,
      "hit": false,
      "t": 49384.56600000003,
      "d": 225.96131250000326,
      "v": 90
    },
    {
      "midi": 42,
      "hit": false,
      "t": 49384.56600000003,
      "d": 225.96131250000326,
      "v": 104
    },
    {
      "midi": 56,
      "hit": false,
      "t": 49384.56600000003,
      "d": 456.7303125000035,
      "v": 75
    },
    {
      "midi": 38,
      "hit": false,
      "t": 49384.56600000003,
      "d": 456.7303125000035,
      "v": 120
    },
    {
      "midi": 31,
      "hit": false,
      "t": 49384.566000000035,
      "d": 225.96131250000326,
      "v": 110
    },
    {
      "midi": 43,
      "hit": false,
      "t": 49615.33500000003,
      "d": 225.96131250000326,
      "v": 92
    },
    {
      "midi": 50,
      "hit": false,
      "t": 49615.33500000003,
      "d": 225.96131250000326,
      "v": 78
    },
    {
      "midi": 46,
      "hit": false,
      "t": 49615.33500000003,
      "d": 225.96131250000326,
      "v": 96
    },
    {
      "midi": 31,
      "hit": false,
      "t": 49615.335000000036,
      "d": 456.7303125000035,
      "v": 110
    },
    {
      "midi": 64,
      "hit": false,
      "t": 49621.10422499965,
      "d": 786.5376749999996,
      "v": 92
    },
    {
      "midi": 60,
      "hit": false,
      "t": 49622.06576249965,
      "d": 735.5761875000026,
      "v": 90
    },
    {
      "midi": 67,
      "hit": false,
      "t": 49640.334974999656,
      "d": 780.7684499999959,
      "v": 90
    },
    {
      "midi": 50,
      "hit": false,
      "t": 49846.10400000003,
      "d": 225.96131250000326,
      "v": 85
    },
    {
      "midi": 43,
      "hit": false,
      "t": 49846.10400000003,
      "d": 225.96131250000326,
      "v": 99
    },
    {
      "midi": 42,
      "hit": false,
      "t": 49846.10400000003,
      "d": 225.96131250000326,
      "v": 89
    },
    {
      "midi": 56,
      "hit": false,
      "t": 49846.10400000003,
      "d": 456.7303125000035,
      "v": 77
    },
    {
      "midi": 36,
      "hit": false,
      "t": 49846.10400000003,
      "d": 456.7303125000035,
      "v": 117
    },
    {
      "midi": 43,
      "hit": false,
      "t": 50076.87300000003,
      "d": 225.96131250000326,
      "v": 94
    },
    {
      "midi": 50,
      "hit": false,
      "t": 50076.87300000003,
      "d": 225.96131250000326,
      "v": 82
    },
    {
      "midi": 46,
      "hit": false,
      "t": 50076.87300000003,
      "d": 225.96131250000326,
      "v": 84
    },
    {
      "midi": 43,
      "hit": false,
      "t": 50076.873000000036,
      "d": 225.96131250000326,
      "v": 117
    },
    {
      "midi": 72,
      "hit": false,
      "t": 50282.64202499966,
      "d": 176.92289999999048,
      "v": 72
    },
    {
      "midi": 43,
      "hit": false,
      "t": 50307.64200000003,
      "d": 225.96131250000326,
      "v": 97
    },
    {
      "midi": 52,
      "hit": false,
      "t": 50307.64200000003,
      "d": 225.96131250000326,
      "v": 82
    },
    {
      "midi": 42,
      "hit": false,
      "t": 50307.64200000003,
      "d": 225.96131250000326,
      "v": 100
    },
    {
      "midi": 56,
      "hit": false,
      "t": 50307.64200000003,
      "d": 456.7303125000035,
      "v": 64
    },
    {
      "midi": 38,
      "hit": false,
      "t": 50307.64200000003,
      "d": 456.7303125000035,
      "v": 113
    },
    {
      "midi": 31,
      "hit": false,
      "t": 50307.642000000036,
      "d": 225.96131250000326,
      "v": 113
    },
    {
      "midi": 43,
      "hit": false,
      "t": 50538.41100000003,
      "d": 225.96131250000326,
      "v": 92
    },
    {
      "midi": 50,
      "hit": false,
      "t": 50538.41100000003,
      "d": 225.96131250000326,
      "v": 79
    },
    {
      "midi": 42,
      "hit": false,
      "t": 50538.41100000003,
      "d": 110.57681250000314,
      "v": 84
    },
    {
      "midi": 43,
      "hit": false,
      "t": 50538.41100000004,
      "d": 225.96131250000326,
      "v": 110
    },
    {
      "midi": 62,
      "hit": false,
      "t": 50545.14176249965,
      "d": 932.691374999973,
      "v": 101
    },
    {
      "midi": 42,
      "hit": false,
      "t": 50653.79550000003,
      "d": 110.57681250000314,
      "v": 89
    },
    {
      "midi": 50,
      "hit": false,
      "t": 50769.18000000003,
      "d": 225.96131250000326,
      "v": 83
    },
    {
      "midi": 43,
      "hit": false,
      "t": 50769.18000000003,
      "d": 225.96131250000326,
      "v": 92
    },
    {
      "midi": 42,
      "hit": false,
      "t": 50769.18000000003,
      "d": 225.96131250000326,
      "v": 100
    },
    {
      "midi": 56,
      "hit": false,
      "t": 50769.18000000003,
      "d": 456.7303125000035,
      "v": 84
    },
    {
      "midi": 36,
      "hit": false,
      "t": 50769.18000000003,
      "d": 456.7303125000035,
      "v": 113
    },
    {
      "midi": 28,
      "hit": false,
      "t": 50769.18000000004,
      "d": 225.96131250000326,
      "v": 117
    },
    {
      "midi": 43,
      "hit": false,
      "t": 50999.94900000003,
      "d": 225.96131250000326,
      "v": 86
    },
    {
      "midi": 50,
      "hit": false,
      "t": 50999.94900000003,
      "d": 225.96131250000326,
      "v": 78
    },
    {
      "midi": 46,
      "hit": false,
      "t": 50999.94900000003,
      "d": 225.96131250000326,
      "v": 84
    },
    {
      "midi": 28,
      "hit": false,
      "t": 50999.94900000004,
      "d": 456.7303125000035,
      "v": 120
    },
    {
      "midi": 66,
      "hit": false,
      "t": 51015.33359999962,
      "d": 500.9610374999975,
      "v": 85
    },
    {
      "midi": 43,
      "hit": false,
      "t": 51230.71800000003,
      "d": 225.96131250000326,
      "v": 99
    },
    {
      "midi": 52,
      "hit": false,
      "t": 51230.71800000003,
      "d": 225.96131250000326,
      "v": 82
    },
    {
      "midi": 42,
      "hit": false,
      "t": 51230.71800000003,
      "d": 225.96131250000326,
      "v": 104
    },
    {
      "midi": 56,
      "hit": false,
      "t": 51230.71800000003,
      "d": 456.7303125000035,
      "v": 69
    },
    {
      "midi": 38,
      "hit": false,
      "t": 51230.71800000003,
      "d": 456.7303125000035,
      "v": 120
    },
    {
      "midi": 69,
      "hit": false,
      "t": 51258.60258749962,
      "d": 258.65358749999723,
      "v": 82
    },
    {
      "midi": 43,
      "hit": false,
      "t": 51461.48700000003,
      "d": 225.96131250000326,
      "v": 88
    },
    {
      "midi": 50,
      "hit": false,
      "t": 51461.48700000003,
      "d": 225.96131250000326,
      "v": 75
    },
    {
      "midi": 46,
      "hit": false,
      "t": 51461.48700000003,
      "d": 225.96131250000326,
      "v": 96
    },
    {
      "midi": 31,
      "hit": false,
      "t": 51461.48700000004,
      "d": 456.7303125000035,
      "v": 117
    },
    {
      "midi": 67,
      "hit": false,
      "t": 51688.40984999962,
      "d": 145.1921624999959,
      "v": 97
    },
    {
      "midi": 62,
      "hit": false,
      "t": 51688.40984999962,
      "d": 171.1536749999941,
      "v": 88
    },
    {
      "midi": 71,
      "hit": false,
      "t": 51689.37138749962,
      "d": 130.7690999999977,
      "v": 88
    },
    {
      "midi": 50,
      "hit": false,
      "t": 51692.25600000003,
      "d": 225.96131250000326,
      "v": 82
    },
    {
      "midi": 43,
      "hit": false,
      "t": 51692.25600000003,
      "d": 225.96131250000326,
      "v": 99
    },
    {
      "midi": 42,
      "hit": false,
      "t": 51692.25600000003,
      "d": 225.96131250000326,
      "v": 89
    },
    {
      "midi": 56,
      "hit": false,
      "t": 51692.25600000003,
      "d": 456.7303125000035,
      "v": 75
    },
    {
      "midi": 36,
      "hit": false,
      "t": 51692.25600000003,
      "d": 456.7303125000035,
      "v": 117
    },
    {
      "midi": 50,
      "hit": false,
      "t": 51923.02500000003,
      "d": 225.96131250000326,
      "v": 80
    },
    {
      "midi": 43,
      "hit": false,
      "t": 51923.02500000003,
      "d": 225.96131250000326,
      "v": 88
    },
    {
      "midi": 46,
      "hit": false,
      "t": 51923.02500000003,
      "d": 225.96131250000326,
      "v": 84
    },
    {
      "midi": 43,
      "hit": false,
      "t": 51923.02500000004,
      "d": 225.96131250000326,
      "v": 117
    },
    {
      "midi": 66,
      "hit": false,
      "t": 51933.60191249961,
      "d": 110.57681249999587,
      "v": 82
    },
    {
      "midi": 69,
      "hit": false,
      "t": 51934.56344999961,
      "d": 95.19221249999828,
      "v": 90
    },
    {
      "midi": 62,
      "hit": false,
      "t": 51935.52498749961,
      "d": 93.26913749999949,
      "v": 62
    },
    {
      "midi": 62,
      "hit": false,
      "t": 52153.7939999996,
      "d": 122.11526249999588,
      "v": 76
    },
    {
      "midi": 43,
      "hit": false,
      "t": 52153.79400000003,
      "d": 225.96131250000326,
      "v": 99
    },
    {
      "midi": 52,
      "hit": false,
      "t": 52153.79400000003,
      "d": 225.96131250000326,
      "v": 83
    },
    {
      "midi": 42,
      "hit": false,
      "t": 52153.79400000003,
      "d": 225.96131250000326,
      "v": 100
    },
    {
      "midi": 56,
      "hit": false,
      "t": 52153.79400000003,
      "d": 456.7303125000035,
      "v": 79
    },
    {
      "midi": 38,
      "hit": false,
      "t": 52153.79400000003,
      "d": 456.7303125000035,
      "v": 113
    },
    {
      "midi": 31,
      "hit": false,
      "t": 52153.79400000004,
      "d": 225.96131250000326,
      "v": 113
    },
    {
      "midi": 67,
      "hit": false,
      "t": 52156.6786124996,
      "d": 118.2691124999983,
      "v": 90
    },
    {
      "midi": 71,
      "hit": false,
      "t": 52157.6401499996,
      "d": 116.34603749999951,
      "v": 86
    },
    {
      "midi": 43,
      "hit": false,
      "t": 52384.56300000003,
      "d": 225.96131250000326,
      "v": 94
    },
    {
      "midi": 50,
      "hit": false,
      "t": 52384.56300000003,
      "d": 225.96131250000326,
      "v": 79
    },
    {
      "midi": 42,
      "hit": false,
      "t": 52384.56300000003,
      "d": 110.57681250000314,
      "v": 84
    },
    {
      "midi": 31,
      "hit": false,
      "t": 52384.56300000004,
      "d": 456.7303125000035,
      "v": 113
    },
    {
      "midi": 66,
      "hit": false,
      "t": 52398.9860624996,
      "d": 209.61517499998445,
      "v": 88
    },
    {
      "midi": 62,
      "hit": false,
      "t": 52400.9091374996,
      "d": 206.73056249998626,
      "v": 83
    },
    {
      "midi": 69,
      "hit": false,
      "t": 52418.216812499595,
      "d": 174.9998249999917,
      "v": 90
    },
    {
      "midi": 42,
      "hit": false,
      "t": 52499.94750000003,
      "d": 110.57681250000314,
      "v": 89
    },
    {
      "midi": 50,
      "hit": false,
      "t": 52615.33200000003,
      "d": 225.96131250000326,
      "v": 82
    },
    {
      "midi": 43,
      "hit": false,
      "t": 52615.33200000003,
      "d": 225.96131250000326,
      "v": 97
    },
    {
      "midi": 42,
      "hit": false,
      "t": 52615.33200000003,
      "d": 225.96131250000326,
      "v": 100
    },
    {
      "midi": 56,
      "hit": false,
      "t": 52615.33200000003,
      "d": 456.7303125000035,
      "v": 68
    },
    {
      "midi": 36,
      "hit": false,
      "t": 52615.33200000003,
      "d": 456.7303125000035,
      "v": 113
    },
    {
      "midi": 62,
      "hit": false,
      "t": 52839.370237499585,
      "d": 293.26893749999726,
      "v": 85
    },
    {
      "midi": 67,
      "hit": false,
      "t": 52840.331774999584,
      "d": 278.84587499999907,
      "v": 92
    },
    {
      "midi": 71,
      "hit": false,
      "t": 52842.25484999958,
      "d": 250.96128750000207,
      "v": 86
    },
    {
      "midi": 43,
      "hit": false,
      "t": 52846.10100000003,
      "d": 225.96131250000326,
      "v": 97
    },
    {
      "midi": 50,
      "hit": false,
      "t": 52846.10100000003,
      "d": 225.96131250000326,
      "v": 80
    },
    {
      "midi": 46,
      "hit": false,
      "t": 52846.10100000003,
      "d": 225.96131250000326,
      "v": 84
    },
    {
      "midi": 43,
      "hit": false,
      "t": 52846.10100000004,
      "d": 225.96131250000326,
      "v": 113
    },
    {
      "midi": 43,
      "hit": false,
      "t": 53076.87000000003,
      "d": 225.96131250000326,
      "v": 99
    },
    {
      "midi": 52,
      "hit": false,
      "t": 53076.87000000003,
      "d": 225.96131250000326,
      "v": 83
    },
    {
      "midi": 42,
      "hit": false,
      "t": 53076.87000000003,
      "d": 225.96131250000326,
      "v": 104
    },
    {
      "midi": 56,
      "hit": false,
      "t": 53076.87000000003,
      "d": 456.7303125000035,
      "v": 62
    },
    {
      "midi": 38,
      "hit": false,
      "t": 53076.87000000003,
      "d": 456.7303125000035,
      "v": 120
    },
    {
      "midi": 31,
      "hit": false,
      "t": 53076.87000000004,
      "d": 225.96131250000326,
      "v": 110
    },
    {
      "midi": 43,
      "hit": false,
      "t": 53307.63900000003,
      "d": 225.96131250000326,
      "v": 97
    },
    {
      "midi": 50,
      "hit": false,
      "t": 53307.63900000003,
      "d": 225.96131250000326,
      "v": 79
    },
    {
      "midi": 46,
      "hit": false,
      "t": 53307.63900000003,
      "d": 225.96131250000326,
      "v": 96
    },
    {
      "midi": 31,
      "hit": false,
      "t": 53307.63900000004,
      "d": 456.7303125000035,
      "v": 110
    },
    {
      "midi": 60,
      "hit": false,
      "t": 53314.369762499584,
      "d": 778.8453749999971,
      "v": 88
    },
    {
      "midi": 64,
      "hit": false,
      "t": 53315.33129999958,
      "d": 813.4607249999972,
      "v": 97
    },
    {
      "midi": 67,
      "hit": false,
      "t": 53316.29283749958,
      "d": 813.4607249999972,
      "v": 88
    },
    {
      "midi": 50,
      "hit": false,
      "t": 53538.40800000003,
      "d": 225.96131250000326,
      "v": 82
    },
    {
      "midi": 43,
      "hit": false,
      "t": 53538.40800000003,
      "d": 225.96131250000326,
      "v": 97
    },
    {
      "midi": 42,
      "hit": false,
      "t": 53538.40800000003,
      "d": 225.96131250000326,
      "v": 89
    },
    {
      "midi": 56,
      "hit": false,
      "t": 53538.40800000003,
      "d": 456.7303125000035,
      "v": 62
    },
    {
      "midi": 36,
      "hit": false,
      "t": 53538.40800000003,
      "d": 456.7303125000035,
      "v": 117
    },
    {
      "midi": 43,
      "hit": false,
      "t": 53769.17700000003,
      "d": 225.96131250000326,
      "v": 90
    },
    {
      "midi": 50,
      "hit": false,
      "t": 53769.17700000003,
      "d": 225.96131250000326,
      "v": 78
    },
    {
      "midi": 46,
      "hit": false,
      "t": 53769.17700000003,
      "d": 225.96131250000326,
      "v": 84
    },
    {
      "midi": 43,
      "hit": false,
      "t": 53769.17700000004,
      "d": 225.96131250000326,
      "v": 117
    },
    {
      "midi": 43,
      "hit": false,
      "t": 53999.94600000003,
      "d": 225.96131250000326,
      "v": 99
    },
    {
      "midi": 52,
      "hit": false,
      "t": 53999.94600000003,
      "d": 225.96131250000326,
      "v": 85
    },
    {
      "midi": 42,
      "hit": false,
      "t": 53999.94600000003,
      "d": 225.96131250000326,
      "v": 100
    },
    {
      "midi": 56,
      "hit": false,
      "t": 53999.94600000003,
      "d": 456.7303125000035,
      "v": 71
    },
    {
      "midi": 38,
      "hit": false,
      "t": 53999.94600000003,
      "d": 456.7303125000035,
      "v": 113
    },
    {
      "midi": 31,
      "hit": false,
      "t": 53999.94600000004,
      "d": 225.96131250000326,
      "v": 113
    },
    {
      "midi": 43,
      "hit": false,
      "t": 54230.71500000003,
      "d": 225.96131250000326,
      "v": 94
    },
    {
      "midi": 50,
      "hit": false,
      "t": 54230.71500000003,
      "d": 225.96131250000326,
      "v": 78
    },
    {
      "midi": 42,
      "hit": false,
      "t": 54230.71500000003,
      "d": 110.57681250000314,
      "v": 84
    },
    {
      "midi": 43,
      "hit": false,
      "t": 54230.71500000004,
      "d": 225.96131250000326,
      "v": 110
    },
    {
      "midi": 62,
      "hit": false,
      "t": 54252.830362499575,
      "d": 587.4994124999939,
      "v": 85
    },
    {
      "midi": 66,
      "hit": false,
      "t": 54254.753437499574,
      "d": 622.114762499994,
      "v": 90
    },
    {
      "midi": 69,
      "hit": false,
      "t": 54255.71497499957,
      "d": 623.0762999999934,
      "v": 86
    },
    {
      "midi": 42,
      "hit": false,
      "t": 54346.09950000003,
      "d": 110.57681250000314,
      "v": 89
    },
    {
      "midi": 43,
      "hit": false,
      "t": 54461.48400000003,
      "d": 225.96131250000326,
      "v": 99
    },
    {
      "midi": 50,
      "hit": false,
      "t": 54461.48400000003,
      "d": 225.96131250000326,
      "v": 83
    },
    {
      "midi": 42,
      "hit": false,
      "t": 54461.48400000003,
      "d": 225.96131250000326,
      "v": 100
    },
    {
      "midi": 56,
      "hit": false,
      "t": 54461.48400000003,
      "d": 456.7303125000035,
      "v": 69
    },
    {
      "midi": 36,
      "hit": false,
      "t": 54461.48400000003,
      "d": 456.7303125000035,
      "v": 113
    },
    {
      "midi": 43,
      "hit": false,
      "t": 54461.48400000004,
      "d": 225.96131250000326,
      "v": 113
    },
    {
      "midi": 74,
      "hit": false,
      "t": 54671.099174999574,
      "d": 129.8075624999983,
      "v": 57
    },
    {
      "midi": 72,
      "hit": false,
      "t": 54672.06071249957,
      "d": 128.84602499999892,
      "v": 57
    },
    {
      "midi": 43,
      "hit": false,
      "t": 54692.25300000003,
      "d": 225.96131250000326,
      "v": 101
    },
    {
      "midi": 50,
      "hit": false,
      "t": 54692.25300000003,
      "d": 225.96131250000326,
      "v": 83
    },
    {
      "midi": 46,
      "hit": false,
      "t": 54692.25300000003,
      "d": 225.96131250000326,
      "v": 84
    },
    {
      "midi": 43,
      "hit": false,
      "t": 54692.25300000004,
      "d": 225.96131250000326,
      "v": 120
    },
    {
      "midi": 43,
      "hit": false,
      "t": 54923.02200000003,
      "d": 225.96131250000326,
      "v": 104
    },
    {
      "midi": 52,
      "hit": false,
      "t": 54923.02200000003,
      "d": 225.96131250000326,
      "v": 85
    },
    {
      "midi": 42,
      "hit": false,
      "t": 54923.02200000003,
      "d": 225.96131250000326,
      "v": 104
    },
    {
      "midi": 56,
      "hit": false,
      "t": 54923.02200000003,
      "d": 456.7303125000035,
      "v": 77
    },
    {
      "midi": 38,
      "hit": false,
      "t": 54923.02200000003,
      "d": 456.7303125000035,
      "v": 120
    },
    {
      "midi": 35,
      "hit": false,
      "t": 54923.02200000004,
      "d": 225.96131250000326,
      "v": 107
    },
    {
      "midi": 69,
      "hit": false,
      "t": 54929.752762499564,
      "d": 238.4612999999881,
      "v": 27
    },
    {
      "midi": 66,
      "hit": false,
      "t": 54944.17582499956,
      "d": 99.03836249999586,
      "v": 51
    },
    {
      "midi": 60,
      "hit": false,
      "t": 54961.48349999956,
      "d": 106.73066249999829,
      "v": 66
    },
    {
      "midi": 62,
      "hit": false,
      "t": 54961.48349999956,
      "d": 231.73053749999235,
      "v": 71
    },
    {
      "midi": 43,
      "hit": false,
      "t": 55153.791000000034,
      "d": 225.96131250000326,
      "v": 92
    },
    {
      "midi": 50,
      "hit": false,
      "t": 55153.791000000034,
      "d": 225.96131250000326,
      "v": 85
    },
    {
      "midi": 46,
      "hit": false,
      "t": 55153.791000000034,
      "d": 225.96131250000326,
      "v": 96
    },
    {
      "midi": 36,
      "hit": false,
      "t": 55153.79100000004,
      "d": 225.96131250000326,
      "v": 113
    },
    {
      "midi": 48,
      "hit": false,
      "t": 55384.560000000034,
      "d": 225.96131250000326,
      "v": 101
    },
    {
      "midi": 55,
      "hit": false,
      "t": 55384.560000000034,
      "d": 225.96131250000326,
      "v": 94
    },
    {
      "midi": 42,
      "hit": false,
      "t": 55384.560000000034,
      "d": 225.96131250000326,
      "v": 89
    },
    {
      "midi": 56,
      "hit": false,
      "t": 55384.560000000034,
      "d": 456.7303125000035,
      "v": 84
    },
    {
      "midi": 36,
      "hit": false,
      "t": 55384.560000000034,
      "d": 456.7303125000035,
      "v": 117
    },
    {
      "midi": 38,
      "hit": false,
      "t": 55384.56000000004,
      "d": 687.4993124999964,
      "v": 113
    },
    {
      "midi": 60,
      "hit": false,
      "t": 55387.44461249955,
      "d": 1144.2296249999854,
      "v": 101
    },
    {
      "midi": 64,
      "hit": false,
      "t": 55388.40614999955,
      "d": 1216.3449374999836,
      "v": 99
    },
    {
      "midi": 67,
      "hit": false,
      "t": 55390.32922499955,
      "d": 1226.9218499999843,
      "v": 94
    },
    {
      "midi": 55,
      "hit": false,
      "t": 55615.329000000034,
      "d": 225.96131250000326,
      "v": 86
    },
    {
      "midi": 48,
      "hit": false,
      "t": 55615.329000000034,
      "d": 225.96131250000326,
      "v": 88
    },
    {
      "midi": 46,
      "hit": false,
      "t": 55615.329000000034,
      "d": 225.96131250000326,
      "v": 84
    },
    {
      "midi": 57,
      "hit": false,
      "t": 55846.098000000035,
      "d": 225.96131250000326,
      "v": 82
    },
    {
      "midi": 48,
      "hit": false,
      "t": 55846.098000000035,
      "d": 225.96131250000326,
      "v": 97
    },
    {
      "midi": 42,
      "hit": false,
      "t": 55846.098000000035,
      "d": 225.96131250000326,
      "v": 100
    },
    {
      "midi": 56,
      "hit": false,
      "t": 55846.098000000035,
      "d": 456.7303125000035,
      "v": 75
    },
    {
      "midi": 38,
      "hit": false,
      "t": 55846.098000000035,
      "d": 456.7303125000035,
      "v": 113
    },
    {
      "midi": 38,
      "hit": false,
      "t": 56076.867000000035,
      "d": 225.96131250000326,
      "v": 117
    },
    {
      "midi": 48,
      "hit": false,
      "t": 56076.867000000035,
      "d": 225.96131250000326,
      "v": 94
    },
    {
      "midi": 55,
      "hit": false,
      "t": 56076.867000000035,
      "d": 225.96131250000326,
      "v": 85
    },
    {
      "midi": 42,
      "hit": false,
      "t": 56076.867000000035,
      "d": 110.57681250000314,
      "v": 84
    },
    {
      "midi": 42,
      "hit": false,
      "t": 56192.251500000035,
      "d": 110.57681250000314,
      "v": 89
    },
    {
      "midi": 45,
      "hit": false,
      "t": 56307.636000000035,
      "d": 225.96131250000326,
      "v": 99
    },
    {
      "midi": 55,
      "hit": false,
      "t": 56307.636000000035,
      "d": 225.96131250000326,
      "v": 88
    },
    {
      "midi": 48,
      "hit": false,
      "t": 56307.636000000035,
      "d": 225.96131250000326,
      "v": 97
    },
    {
      "midi": 38,
      "hit": false,
      "t": 56307.636000000035,
      "d": 225.96131250000326,
      "v": 104
    },
    {
      "midi": 42,
      "hit": false,
      "t": 56307.636000000035,
      "d": 225.96131250000326,
      "v": 100
    },
    {
      "midi": 36,
      "hit": false,
      "t": 56307.636000000035,
      "d": 456.7303125000035,
      "v": 113
    },
    {
      "midi": 56,
      "hit": false,
      "t": 56307.636000000035,
      "d": 456.7303125000035,
      "v": 79
    },
    {
      "midi": 48,
      "hit": false,
      "t": 56538.405000000035,
      "d": 225.96131250000326,
      "v": 117
    },
    {
      "midi": 48,
      "hit": false,
      "t": 56538.405000000035,
      "d": 225.96131250000326,
      "v": 99
    },
    {
      "midi": 55,
      "hit": false,
      "t": 56538.405000000035,
      "d": 225.96131250000326,
      "v": 85
    },
    {
      "midi": 38,
      "hit": false,
      "t": 56538.405000000035,
      "d": 225.96131250000326,
      "v": 104
    },
    {
      "midi": 46,
      "hit": false,
      "t": 56538.405000000035,
      "d": 225.96131250000326,
      "v": 84
    },
    {
      "midi": 60,
      "hit": false,
      "t": 56621.09722499953,
      "d": 265.38434999997844,
      "v": 107
    },
    {
      "midi": 49,
      "hit": false,
      "t": 56769.174000000035,
      "d": 225.96131250000326,
      "v": 92
    },
    {
      "midi": 57,
      "hit": false,
      "t": 56769.174000000035,
      "d": 225.96131250000326,
      "v": 90
    },
    {
      "midi": 48,
      "hit": false,
      "t": 56769.174000000035,
      "d": 225.96131250000326,
      "v": 104
    },
    {
      "midi": 38,
      "hit": false,
      "t": 56769.174000000035,
      "d": 225.96131250000326,
      "v": 117
    },
    {
      "midi": 42,
      "hit": false,
      "t": 56769.174000000035,
      "d": 225.96131250000326,
      "v": 104
    },
    {
      "midi": 56,
      "hit": false,
      "t": 56769.174000000035,
      "d": 456.7303125000035,
      "v": 71
    },
    {
      "midi": 64,
      "hit": false,
      "t": 56804.75088749952,
      "d": 119.23064999999042,
      "v": 94
    },
    {
      "midi": 67,
      "hit": false,
      "t": 56831.673937499516,
      "d": 91.34606249999342,
      "v": 85
    },
    {
      "midi": 50,
      "hit": false,
      "t": 56999.943000000036,
      "d": 456.7303125000035,
      "v": 117
    },
    {
      "midi": 50,
      "hit": false,
      "t": 56999.943000000036,
      "d": 225.96131250000326,
      "v": 101
    },
    {
      "midi": 57,
      "hit": false,
      "t": 56999.943000000036,
      "d": 225.96131250000326,
      "v": 92
    },
    {
      "midi": 36,
      "hit": false,
      "t": 56999.943000000036,
      "d": 225.96131250000326,
      "v": 120
    },
    {
      "midi": 46,
      "hit": false,
      "t": 56999.943000000036,
      "d": 225.96131250000326,
      "v": 96
    },
    {
      "midi": 57,
      "hit": false,
      "t": 56999.943000000036,
      "d": 225.96131250000326,
      "v": 113
    },
    {
      "midi": 62,
      "hit": false,
      "t": 57035.51988749951,
      "d": 1774.0366874999963,
      "v": 99
    },
    {
      "midi": 66,
      "hit": false,
      "t": 57036.48142499951,
      "d": 1774.0366874999963,
      "v": 104
    },
    {
      "midi": 69,
      "hit": false,
      "t": 57037.44296249951,
      "d": 1774.0366874999963,
      "v": 104
    },
    {
      "midi": 56,
      "hit": false,
      "t": 57225.90431250004,
      "d": 4.807687499996973,
      "v": 104
    },
    {
      "midi": 50,
      "hit": false,
      "t": 57230.712000000036,
      "d": 225.96131250000326,
      "v": 101
    },
    {
      "midi": 57,
      "hit": false,
      "t": 57230.712000000036,
      "d": 225.96131250000326,
      "v": 88
    },
    {
      "midi": 42,
      "hit": false,
      "t": 57230.712000000036,
      "d": 225.96131250000326,
      "v": 89
    },
    {
      "midi": 56,
      "hit": false,
      "t": 57230.712000000036,
      "d": 456.7303125000035,
      "v": 100
    },
    {
      "midi": 38,
      "hit": false,
      "t": 57461.481000000036,
      "d": 456.7303125000035,
      "v": 104
    },
    {
      "midi": 57,
      "hit": false,
      "t": 57461.481000000036,
      "d": 225.96131250000326,
      "v": 79
    },
    {
      "midi": 50,
      "hit": false,
      "t": 57461.481000000036,
      "d": 225.96131250000326,
      "v": 83
    },
    {
      "midi": 42,
      "hit": false,
      "t": 57461.481000000036,
      "d": 225.96131250000326,
      "v": 86
    },
    {
      "midi": 38,
      "hit": false,
      "t": 57461.481000000036,
      "d": 225.96131250000326,
      "v": 50
    },
    {
      "midi": 50,
      "hit": false,
      "t": 57692.25000000004,
      "d": 225.96131250000326,
      "v": 97
    },
    {
      "midi": 59,
      "hit": false,
      "t": 57692.25000000004,
      "d": 225.96131250000326,
      "v": 83
    },
    {
      "midi": 42,
      "hit": false,
      "t": 57692.25000000004,
      "d": 225.96131250000326,
      "v": 84
    },
    {
      "midi": 38,
      "hit": false,
      "t": 57692.25000000004,
      "d": 225.96131250000326,
      "v": 65
    },
    {
      "midi": 56,
      "hit": false,
      "t": 57692.25000000004,
      "d": 456.7303125000035,
      "v": 96
    },
    {
      "midi": 38,
      "hit": false,
      "t": 57923.01900000004,
      "d": 225.96131250000326,
      "v": 101
    },
    {
      "midi": 50,
      "hit": false,
      "t": 57923.01900000004,
      "d": 225.96131250000326,
      "v": 90
    },
    {
      "midi": 57,
      "hit": false,
      "t": 57923.01900000004,
      "d": 225.96131250000326,
      "v": 75
    },
    {
      "midi": 42,
      "hit": false,
      "t": 57923.01900000004,
      "d": 225.96131250000326,
      "v": 73
    },
    {
      "midi": 38,
      "hit": false,
      "t": 57923.01900000004,
      "d": 225.96131250000326,
      "v": 76
    },
    {
      "midi": 40,
      "hit": false,
      "t": 58153.78800000004,
      "d": 225.96131250000326,
      "v": 110
    },
    {
      "midi": 57,
      "hit": false,
      "t": 58153.78800000004,
      "d": 225.96131250000326,
      "v": 80
    },
    {
      "midi": 50,
      "hit": false,
      "t": 58153.78800000004,
      "d": 225.96131250000326,
      "v": 94
    },
    {
      "midi": 36,
      "hit": false,
      "t": 58153.78800000004,
      "d": 225.96131250000326,
      "v": 117
    },
    {
      "midi": 38,
      "hit": false,
      "t": 58153.78800000004,
      "d": 225.96131250000326,
      "v": 93
    },
    {
      "midi": 42,
      "hit": false,
      "t": 58153.78800000004,
      "d": 225.96131250000326,
      "v": 92
    },
    {
      "midi": 56,
      "hit": false,
      "t": 58153.78800000004,
      "d": 456.7303125000035,
      "v": 100
    },
    {
      "midi": 38,
      "hit": false,
      "t": 58384.55700000004,
      "d": 225.96131250000326,
      "v": 101
    },
    {
      "midi": 50,
      "hit": false,
      "t": 58384.55700000004,
      "d": 225.96131250000326,
      "v": 97
    },
    {
      "midi": 57,
      "hit": false,
      "t": 58384.55700000004,
      "d": 225.96131250000326,
      "v": 78
    },
    {
      "midi": 46,
      "hit": false,
      "t": 58384.55700000004,
      "d": 225.96131250000326,
      "v": 86
    },
    {
      "midi": 38,
      "hit": false,
      "t": 58384.55700000004,
      "d": 225.96131250000326,
      "v": 110
    },
    {
      "midi": 35,
      "hit": false,
      "t": 58615.32600000004,
      "d": 225.96131250000326,
      "v": 117
    },
    {
      "midi": 50,
      "hit": false,
      "t": 58615.32600000004,
      "d": 225.96131250000326,
      "v": 107
    },
    {
      "midi": 59,
      "hit": false,
      "t": 58615.32600000004,
      "d": 225.96131250000326,
      "v": 86
    },
    {
      "midi": 38,
      "hit": false,
      "t": 58615.32600000004,
      "d": 100.96143750000192,
      "v": 117
    },
    {
      "midi": 42,
      "hit": false,
      "t": 58615.32600000004,
      "d": 225.96131250000326,
      "v": 84
    },
    {
      "midi": 56,
      "hit": false,
      "t": 58615.32600000004,
      "d": 456.7303125000035,
      "v": 100
    },
    {
      "midi": 33,
      "hit": false,
      "t": 58846.09500000004,
      "d": 225.96131250000326,
      "v": 110
    },
    {
      "midi": 50,
      "hit": false,
      "t": 58846.09500000004,
      "d": 225.96131250000326,
      "v": 104
    },
    {
      "midi": 57,
      "hit": false,
      "t": 58846.09500000004,
      "d": 225.96131250000326,
      "v": 86
    },
    {
      "midi": 46,
      "hit": false,
      "t": 58846.09500000004,
      "d": 225.96131250000326,
      "v": 89
    },
    {
      "midi": 45,
      "hit": false,
      "t": 58846.09500000004,
      "d": 225.96131250000326,
      "v": 120
    },
    {
      "midi": 62,
      "hit": false,
      "t": 59066.287087499506,
      "d": 163.46137499999168,
      "v": 97
    },
    {
      "midi": 67,
      "hit": false,
      "t": 59067.248624999505,
      "d": 136.53832499999407,
      "v": 94
    },
    {
      "midi": 71,
      "hit": false,
      "t": 59068.210162499505,
      "d": 134.61524999999529,
      "v": 90
    },
    {
      "midi": 31,
      "hit": false,
      "t": 59076.86400000004,
      "d": 225.96131250000326,
      "v": 117
    },
    {
      "midi": 50,
      "hit": false,
      "t": 59076.86400000004,
      "d": 225.96131250000326,
      "v": 97
    },
    {
      "midi": 43,
      "hit": false,
      "t": 59076.86400000004,
      "d": 225.96131250000326,
      "v": 107
    },
    {
      "midi": 42,
      "hit": false,
      "t": 59076.86400000004,
      "d": 225.96131250000326,
      "v": 86
    },
    {
      "midi": 56,
      "hit": false,
      "t": 59076.86400000004,
      "d": 456.7303125000035,
      "v": 86
    },
    {
      "midi": 57,
      "hit": false,
      "t": 59076.86400000004,
      "d": 456.7303125000035,
      "v": 113
    },
    {
      "midi": 36,
      "hit": false,
      "t": 59076.86400000004,
      "d": 456.7303125000035,
      "v": 120
    },
    {
      "midi": 62,
      "hit": false,
      "t": 59304.748387499494,
      "d": 106.73066249999829,
      "v": 78
    },
    {
      "midi": 66,
      "hit": false,
      "t": 59304.748387499494,
      "d": 122.11526249999588,
      "v": 85
    },
    {
      "midi": 69,
      "hit": false,
      "t": 59305.70992499949,
      "d": 120.19218749999709,
      "v": 88
    },
    {
      "midi": 43,
      "hit": false,
      "t": 59307.63300000004,
      "d": 225.96131250000326,
      "v": 117
    },
    {
      "midi": 43,
      "hit": false,
      "t": 59307.63300000004,
      "d": 225.96131250000326,
      "v": 92
    },
    {
      "midi": 50,
      "hit": false,
      "t": 59307.63300000004,
      "d": 225.96131250000326,
      "v": 82
    },
    {
      "midi": 46,
      "hit": false,
      "t": 59307.63300000004,
      "d": 225.96131250000326,
      "v": 89
    },
    {
      "midi": 62,
      "hit": false,
      "t": 59524.94047499949,
      "d": 163.46137499999168,
      "v": 72
    },
    {
      "midi": 71,
      "hit": false,
      "t": 59526.863549999485,
      "d": 134.61524999999529,
      "v": 83
    },
    {
      "midi": 67,
      "hit": false,
      "t": 59527.825087499485,
      "d": 147.1152374999947,
      "v": 85
    },
    {
      "midi": 31,
      "hit": false,
      "t": 59538.40200000004,
      "d": 225.96131250000326,
      "v": 113
    },
    {
      "midi": 43,
      "hit": false,
      "t": 59538.40200000004,
      "d": 225.96131250000326,
      "v": 97
    },
    {
      "midi": 52,
      "hit": false,
      "t": 59538.40200000004,
      "d": 225.96131250000326,
      "v": 88
    },
    {
      "midi": 42,
      "hit": false,
      "t": 59538.40200000004,
      "d": 225.96131250000326,
      "v": 96
    },
    {
      "midi": 56,
      "hit": false,
      "t": 59538.40200000004,
      "d": 456.7303125000035,
      "v": 75
    },
    {
      "midi": 58,
      "hit": false,
      "t": 59538.40200000004,
      "d": 456.7303125000035,
      "v": 109
    },
    {
      "midi": 38,
      "hit": false,
      "t": 59538.40200000004,
      "d": 456.7303125000035,
      "v": 117
    },
    {
      "midi": 31,
      "hit": false,
      "t": 59769.17100000004,
      "d": 456.7303125000035,
      "v": 113
    },
    {
      "midi": 43,
      "hit": false,
      "t": 59769.17100000004,
      "d": 225.96131250000326,
      "v": 99
    },
    {
      "midi": 50,
      "hit": false,
      "t": 59769.17100000004,
      "d": 225.96131250000326,
      "v": 83
    },
    {
      "midi": 46,
      "hit": false,
      "t": 59769.17100000004,
      "d": 225.96131250000326,
      "v": 92
    },
    {
      "midi": 66,
      "hit": false,
      "t": 59798.978662499474,
      "d": 211.5382499999978,
      "v": 88
    },
    {
      "midi": 69,
      "hit": false,
      "t": 59799.94019999947,
      "d": 224.0382374999972,
      "v": 88
    },
    {
      "midi": 62,
      "hit": false,
      "t": 59801.86327499947,
      "d": 208.6536374999996,
      "v": 90
    },
    {
      "midi": 50,
      "hit": false,
      "t": 59999.94000000004,
      "d": 225.96131250000326,
      "v": 85
    },
    {
      "midi": 43,
      "hit": false,
      "t": 59999.94000000004,
      "d": 225.96131250000326,
      "v": 94
    },
    {
      "midi": 42,
      "hit": false,
      "t": 59999.94000000004,
      "d": 225.96131250000326,
      "v": 86
    },
    {
      "midi": 56,
      "hit": false,
      "t": 59999.94000000004,
      "d": 456.7303125000035,
      "v": 73
    },
    {
      "midi": 36,
      "hit": false,
      "t": 59999.94000000004,
      "d": 456.7303125000035,
      "v": 123
    },
    {
      "midi": 43,
      "hit": false,
      "t": 60230.70900000004,
      "d": 225.96131250000326,
      "v": 113
    },
    {
      "midi": 50,
      "hit": false,
      "t": 60230.70900000004,
      "d": 225.96131250000326,
      "v": 78
    },
    {
      "midi": 43,
      "hit": false,
      "t": 60230.70900000004,
      "d": 225.96131250000326,
      "v": 90
    },
    {
      "midi": 42,
      "hit": false,
      "t": 60230.70900000004,
      "d": 110.57681250000314,
      "v": 89
    },
    {
      "midi": 67,
      "hit": false,
      "t": 60244.17052499947,
      "d": 294.2304749999894,
      "v": 90
    },
    {
      "midi": 62,
      "hit": false,
      "t": 60244.17052499947,
      "d": 308.6535374999876,
      "v": 86
    },
    {
      "midi": 71,
      "hit": false,
      "t": 60261.47819999947,
      "d": 263.4612749999942,
      "v": 85
    },
    {
      "midi": 42,
      "hit": false,
      "t": 60346.09350000004,
      "d": 110.57681250000314,
      "v": 92
    },
    {
      "midi": 31,
      "hit": false,
      "t": 60461.47800000004,
      "d": 225.96131250000326,
      "v": 110
    },
    {
      "midi": 43,
      "hit": false,
      "t": 60461.47800000004,
      "d": 225.96131250000326,
      "v": 107
    },
    {
      "midi": 52,
      "hit": false,
      "t": 60461.47800000004,
      "d": 225.96131250000326,
      "v": 97
    },
    {
      "midi": 42,
      "hit": false,
      "t": 60461.47800000004,
      "d": 225.96131250000326,
      "v": 100
    },
    {
      "midi": 56,
      "hit": false,
      "t": 60461.47800000004,
      "d": 456.7303125000035,
      "v": 71
    },
    {
      "midi": 38,
      "hit": false,
      "t": 60461.47800000004,
      "d": 456.7303125000035,
      "v": 117
    },
    {
      "midi": 31,
      "hit": false,
      "t": 60692.24700000004,
      "d": 456.7303125000035,
      "v": 110
    },
    {
      "midi": 43,
      "hit": false,
      "t": 60692.24700000004,
      "d": 225.96131250000326,
      "v": 99
    },
    {
      "midi": 50,
      "hit": false,
      "t": 60692.24700000004,
      "d": 225.96131250000326,
      "v": 88
    },
    {
      "midi": 46,
      "hit": false,
      "t": 60692.24700000004,
      "d": 225.96131250000326,
      "v": 96
    },
    {
      "midi": 64,
      "hit": false,
      "t": 60722.05466249946,
      "d": 827.8837874999954,
      "v": 94
    },
    {
      "midi": 60,
      "hit": false,
      "t": 60724.93927499946,
      "d": 775.960762499999,
      "v": 94
    },
    {
      "midi": 67,
      "hit": false,
      "t": 60724.93927499946,
      "d": 825.9607124999966,
      "v": 94
    },
    {
      "midi": 50,
      "hit": false,
      "t": 60923.01600000004,
      "d": 225.96131250000326,
      "v": 86
    },
    {
      "midi": 43,
      "hit": false,
      "t": 60923.01600000004,
      "d": 225.96131250000326,
      "v": 99
    },
    {
      "midi": 42,
      "hit": false,
      "t": 60923.01600000004,
      "d": 225.96131250000326,
      "v": 89
    },
    {
      "midi": 56,
      "hit": false,
      "t": 60923.01600000004,
      "d": 456.7303125000035,
      "v": 75
    },
    {
      "midi": 36,
      "hit": false,
      "t": 60923.01600000004,
      "d": 456.7303125000035,
      "v": 117
    },
    {
      "midi": 43,
      "hit": false,
      "t": 61153.78500000004,
      "d": 225.96131250000326,
      "v": 117
    },
    {
      "midi": 50,
      "hit": false,
      "t": 61153.78500000004,
      "d": 225.96131250000326,
      "v": 82
    },
    {
      "midi": 43,
      "hit": false,
      "t": 61153.78500000004,
      "d": 225.96131250000326,
      "v": 99
    },
    {
      "midi": 46,
      "hit": false,
      "t": 61153.78500000004,
      "d": 225.96131250000326,
      "v": 84
    },
    {
      "midi": 31,
      "hit": false,
      "t": 61384.55400000004,
      "d": 225.96131250000326,
      "v": 113
    },
    {
      "midi": 43,
      "hit": false,
      "t": 61384.55400000004,
      "d": 225.96131250000326,
      "v": 110
    },
    {
      "midi": 52,
      "hit": false,
      "t": 61384.55400000004,
      "d": 225.96131250000326,
      "v": 86
    },
    {
      "midi": 42,
      "hit": false,
      "t": 61384.55400000004,
      "d": 225.96131250000326,
      "v": 100
    },
    {
      "midi": 56,
      "hit": false,
      "t": 61384.55400000004,
      "d": 456.7303125000035,
      "v": 73
    },
    {
      "midi": 38,
      "hit": false,
      "t": 61384.55400000004,
      "d": 456.7303125000035,
      "v": 113
    },
    {
      "midi": 43,
      "hit": false,
      "t": 61615.32300000004,
      "d": 225.96131250000326,
      "v": 110
    },
    {
      "midi": 43,
      "hit": false,
      "t": 61615.32300000004,
      "d": 225.96131250000326,
      "v": 92
    },
    {
      "midi": 50,
      "hit": false,
      "t": 61615.32300000004,
      "d": 225.96131250000326,
      "v": 71
    },
    {
      "midi": 42,
      "hit": false,
      "t": 61615.32300000004,
      "d": 110.57681250000314,
      "v": 84
    },
    {
      "midi": 62,
      "hit": false,
      "t": 61638.39989999945,
      "d": 889.4221874999857,
      "v": 86
    },
    {
      "midi": 66,
      "hit": false,
      "t": 61652.82296249945,
      "d": 899.9990999999864,
      "v": 88
    },
    {
      "midi": 69,
      "hit": false,
      "t": 61653.78449999945,
      "d": 914.4221624999846,
      "v": 86
    },
    {
      "midi": 42,
      "hit": false,
      "t": 61730.70750000004,
      "d": 110.57681250000314,
      "v": 89
    },
    {
      "midi": 28,
      "hit": false,
      "t": 61846.09200000004,
      "d": 225.96131250000326,
      "v": 117
    },
    {
      "midi": 50,
      "hit": false,
      "t": 61846.09200000004,
      "d": 225.96131250000326,
      "v": 90
    },
    {
      "midi": 43,
      "hit": false,
      "t": 61846.09200000004,
      "d": 225.96131250000326,
      "v": 101
    },
    {
      "midi": 42,
      "hit": false,
      "t": 61846.09200000004,
      "d": 225.96131250000326,
      "v": 100
    },
    {
      "midi": 56,
      "hit": false,
      "t": 61846.09200000004,
      "d": 456.7303125000035,
      "v": 75
    },
    {
      "midi": 36,
      "hit": false,
      "t": 61846.09200000004,
      "d": 456.7303125000035,
      "v": 113
    },
    {
      "midi": 28,
      "hit": false,
      "t": 62076.86100000004,
      "d": 456.7303125000035,
      "v": 120
    },
    {
      "midi": 50,
      "hit": false,
      "t": 62076.86100000004,
      "d": 225.96131250000326,
      "v": 80
    },
    {
      "midi": 43,
      "hit": false,
      "t": 62076.86100000004,
      "d": 225.96131250000326,
      "v": 90
    },
    {
      "midi": 46,
      "hit": false,
      "t": 62076.86100000004,
      "d": 225.96131250000326,
      "v": 84
    },
    {
      "midi": 52,
      "hit": false,
      "t": 62307.63000000004,
      "d": 225.96131250000326,
      "v": 94
    },
    {
      "midi": 43,
      "hit": false,
      "t": 62307.63000000004,
      "d": 225.96131250000326,
      "v": 107
    },
    {
      "midi": 42,
      "hit": false,
      "t": 62307.63000000004,
      "d": 225.96131250000326,
      "v": 104
    },
    {
      "midi": 56,
      "hit": false,
      "t": 62307.63000000004,
      "d": 456.7303125000035,
      "v": 71
    },
    {
      "midi": 38,
      "hit": false,
      "t": 62307.63000000004,
      "d": 456.7303125000035,
      "v": 120
    },
    {
      "midi": 31,
      "hit": false,
      "t": 62538.39900000004,
      "d": 456.7303125000035,
      "v": 113
    },
    {
      "midi": 43,
      "hit": false,
      "t": 62538.39900000004,
      "d": 225.96131250000326,
      "v": 92
    },
    {
      "midi": 50,
      "hit": false,
      "t": 62538.39900000004,
      "d": 225.96131250000326,
      "v": 79
    },
    {
      "midi": 46,
      "hit": false,
      "t": 62538.39900000004,
      "d": 225.96131250000326,
      "v": 96
    },
    {
      "midi": 43,
      "hit": false,
      "t": 62769.16800000004,
      "d": 225.96131250000326,
      "v": 101
    },
    {
      "midi": 50,
      "hit": false,
      "t": 62769.16800000004,
      "d": 225.96131250000326,
      "v": 92
    },
    {
      "midi": 42,
      "hit": false,
      "t": 62769.16800000004,
      "d": 225.96131250000326,
      "v": 89
    },
    {
      "midi": 56,
      "hit": false,
      "t": 62769.16800000004,
      "d": 456.7303125000035,
      "v": 69
    },
    {
      "midi": 36,
      "hit": false,
      "t": 62769.16800000004,
      "d": 456.7303125000035,
      "v": 117
    },
    {
      "midi": 67,
      "hit": false,
      "t": 62773.014149999435,
      "d": 133.6537124999959,
      "v": 92
    },
    {
      "midi": 62,
      "hit": false,
      "t": 62773.975687499435,
      "d": 131.7306374999971,
      "v": 97
    },
    {
      "midi": 71,
      "hit": false,
      "t": 62774.937224999434,
      "d": 129.8075624999983,
      "v": 88
    },
    {
      "midi": 43,
      "hit": false,
      "t": 62999.93700000004,
      "d": 225.96131250000326,
      "v": 117
    },
    {
      "midi": 43,
      "hit": false,
      "t": 62999.93700000004,
      "d": 225.96131250000326,
      "v": 97
    },
    {
      "midi": 50,
      "hit": false,
      "t": 62999.93700000004,
      "d": 225.96131250000326,
      "v": 85
    },
    {
      "midi": 46,
      "hit": false,
      "t": 62999.93700000004,
      "d": 225.96131250000326,
      "v": 84
    },
    {
      "midi": 66,
      "hit": false,
      "t": 63004.74468749943,
      "d": 113.46142499999405,
      "v": 82
    },
    {
      "midi": 62,
      "hit": false,
      "t": 63007.629299999426,
      "d": 108.65373749999708,
      "v": 76
    },
    {
      "midi": 69,
      "hit": false,
      "t": 63008.590837499425,
      "d": 108.65373749999708,
      "v": 88
    },
    {
      "midi": 62,
      "hit": false,
      "t": 63228.78292499942,
      "d": 140.38447499999165,
      "v": 80
    },
    {
      "midi": 31,
      "hit": false,
      "t": 63230.70600000004,
      "d": 225.96131250000326,
      "v": 113
    },
    {
      "midi": 52,
      "hit": false,
      "t": 63230.70600000004,
      "d": 225.96131250000326,
      "v": 94
    },
    {
      "midi": 43,
      "hit": false,
      "t": 63230.70600000004,
      "d": 225.96131250000326,
      "v": 110
    },
    {
      "midi": 42,
      "hit": false,
      "t": 63230.70600000004,
      "d": 225.96131250000326,
      "v": 100
    },
    {
      "midi": 56,
      "hit": false,
      "t": 63230.70600000004,
      "d": 456.7303125000035,
      "v": 66
    },
    {
      "midi": 38,
      "hit": false,
      "t": 63230.70600000004,
      "d": 456.7303125000035,
      "v": 113
    },
    {
      "midi": 71,
      "hit": false,
      "t": 63246.090599999414,
      "d": 109.61527499999647,
      "v": 86
    },
    {
      "midi": 67,
      "hit": false,
      "t": 63246.090599999414,
      "d": 110.57681249999587,
      "v": 86
    },
    {
      "midi": 31,
      "hit": false,
      "t": 63461.47500000004,
      "d": 456.7303125000035,
      "v": 113
    },
    {
      "midi": 43,
      "hit": false,
      "t": 63461.47500000004,
      "d": 225.96131250000326,
      "v": 83
    },
    {
      "midi": 50,
      "hit": false,
      "t": 63461.47500000004,
      "d": 225.96131250000326,
      "v": 82
    },
    {
      "midi": 42,
      "hit": false,
      "t": 63461.47500000004,
      "d": 110.57681250000314,
      "v": 84
    },
    {
      "midi": 66,
      "hit": false,
      "t": 63468.205762499405,
      "d": 271.15357499999664,
      "v": 90
    },
    {
      "midi": 62,
      "hit": false,
      "t": 63469.167299999404,
      "d": 256.73051249999844,
      "v": 85
    },
    {
      "midi": 69,
      "hit": false,
      "t": 63470.128837499404,
      "d": 270.19203749999724,
      "v": 90
    },
    {
      "midi": 42,
      "hit": false,
      "t": 63576.85950000004,
      "d": 110.57681250000314,
      "v": 89
    },
    {
      "midi": 50,
      "hit": false,
      "t": 63692.24400000004,
      "d": 225.96131250000326,
      "v": 90
    },
    {
      "midi": 43,
      "hit": false,
      "t": 63692.24400000004,
      "d": 225.96131250000326,
      "v": 107
    },
    {
      "midi": 42,
      "hit": false,
      "t": 63692.24400000004,
      "d": 225.96131250000326,
      "v": 100
    },
    {
      "midi": 56,
      "hit": false,
      "t": 63692.24400000004,
      "d": 456.7303125000035,
      "v": 63
    },
    {
      "midi": 36,
      "hit": false,
      "t": 63692.24400000004,
      "d": 456.7303125000035,
      "v": 113
    },
    {
      "midi": 43,
      "hit": false,
      "t": 63923.01300000004,
      "d": 225.96131250000326,
      "v": 113
    },
    {
      "midi": 50,
      "hit": false,
      "t": 63923.01300000004,
      "d": 225.96131250000326,
      "v": 80
    },
    {
      "midi": 43,
      "hit": false,
      "t": 63923.01300000004,
      "d": 225.96131250000326,
      "v": 90
    },
    {
      "midi": 46,
      "hit": false,
      "t": 63923.01300000004,
      "d": 225.96131250000326,
      "v": 84
    },
    {
      "midi": 67,
      "hit": false,
      "t": 63934.5514499994,
      "d": 294.23047499999666,
      "v": 92
    },
    {
      "midi": 62,
      "hit": false,
      "t": 63935.5129874994,
      "d": 305.76892499999667,
      "v": 94
    },
    {
      "midi": 71,
      "hit": false,
      "t": 63937.4360624994,
      "d": 278.84587499999907,
      "v": 86
    },
    {
      "midi": 31,
      "hit": false,
      "t": 64153.78200000004,
      "d": 225.96131250000326,
      "v": 110
    },
    {
      "midi": 52,
      "hit": false,
      "t": 64153.78200000004,
      "d": 225.96131250000326,
      "v": 88
    },
    {
      "midi": 43,
      "hit": false,
      "t": 64153.78200000004,
      "d": 225.96131250000326,
      "v": 107
    },
    {
      "midi": 42,
      "hit": false,
      "t": 64153.78200000004,
      "d": 225.96131250000326,
      "v": 104
    },
    {
      "midi": 56,
      "hit": false,
      "t": 64153.78200000004,
      "d": 456.7303125000035,
      "v": 75
    },
    {
      "midi": 38,
      "hit": false,
      "t": 64153.78200000004,
      "d": 456.7303125000035,
      "v": 120
    },
    {
      "midi": 31,
      "hit": false,
      "t": 64384.55100000004,
      "d": 456.7303125000035,
      "v": 110
    },
    {
      "midi": 43,
      "hit": false,
      "t": 64384.55100000004,
      "d": 225.96131250000326,
      "v": 90
    },
    {
      "midi": 50,
      "hit": false,
      "t": 64384.55100000004,
      "d": 225.96131250000326,
      "v": 74
    },
    {
      "midi": 46,
      "hit": false,
      "t": 64384.55100000004,
      "d": 225.96131250000326,
      "v": 96
    },
    {
      "midi": 64,
      "hit": false,
      "t": 64423.9740374994,
      "d": 680.7685499999934,
      "v": 99
    },
    {
      "midi": 60,
      "hit": false,
      "t": 64424.9355749994,
      "d": 619.2301499999958,
      "v": 97
    },
    {
      "midi": 67,
      "hit": false,
      "t": 64424.9355749994,
      "d": 704.8069874999928,
      "v": 94
    },
    {
      "midi": 50,
      "hit": false,
      "t": 64615.32000000004,
      "d": 225.96131250000326,
      "v": 88
    },
    {
      "midi": 43,
      "hit": false,
      "t": 64615.32000000004,
      "d": 225.96131250000326,
      "v": 99
    },
    {
      "midi": 42,
      "hit": false,
      "t": 64615.32000000004,
      "d": 225.96131250000326,
      "v": 89
    },
    {
      "midi": 56,
      "hit": false,
      "t": 64615.32000000004,
      "d": 456.7303125000035,
      "v": 77
    },
    {
      "midi": 36,
      "hit": false,
      "t": 64615.32000000004,
      "d": 456.7303125000035,
      "v": 117
    },
    {
      "midi": 43,
      "hit": false,
      "t": 64846.08900000004,
      "d": 225.96131250000326,
      "v": 117
    },
    {
      "midi": 50,
      "hit": false,
      "t": 64846.08900000004,
      "d": 225.96131250000326,
      "v": 82
    },
    {
      "midi": 43,
      "hit": false,
      "t": 64846.08900000004,
      "d": 225.96131250000326,
      "v": 90
    },
    {
      "midi": 46,
      "hit": false,
      "t": 64846.08900000004,
      "d": 225.96131250000326,
      "v": 84
    },
    {
      "midi": 72,
      "hit": false,
      "t": 64993.2042374994,
      "d": 306.73046249999607,
      "v": 86
    },
    {
      "midi": 31,
      "hit": false,
      "t": 65076.858000000044,
      "d": 225.96131250000326,
      "v": 113
    },
    {
      "midi": 43,
      "hit": false,
      "t": 65076.858000000044,
      "d": 225.96131250000326,
      "v": 94
    },
    {
      "midi": 52,
      "hit": false,
      "t": 65076.858000000044,
      "d": 225.96131250000326,
      "v": 90
    },
    {
      "midi": 42,
      "hit": false,
      "t": 65076.858000000044,
      "d": 225.96131250000326,
      "v": 100
    },
    {
      "midi": 56,
      "hit": false,
      "t": 65076.858000000044,
      "d": 456.7303125000035,
      "v": 64
    },
    {
      "midi": 38,
      "hit": false,
      "t": 65076.858000000044,
      "d": 456.7303125000035,
      "v": 113
    },
    {
      "midi": 43,
      "hit": false,
      "t": 65307.627000000044,
      "d": 225.96131250000326,
      "v": 110
    },
    {
      "midi": 43,
      "hit": false,
      "t": 65307.627000000044,
      "d": 225.96131250000326,
      "v": 97
    },
    {
      "midi": 50,
      "hit": false,
      "t": 65307.627000000044,
      "d": 225.96131250000326,
      "v": 88
    },
    {
      "midi": 42,
      "hit": false,
      "t": 65307.627000000044,
      "d": 110.57681250000314,
      "v": 84
    },
    {
      "midi": 62,
      "hit": false,
      "t": 65313.39622499939,
      "d": 939.4221375000197,
      "v": 101
    },
    {
      "midi": 42,
      "hit": false,
      "t": 65423.011500000044,
      "d": 110.57681250000314,
      "v": 89
    },
    {
      "midi": 28,
      "hit": false,
      "t": 65538.39600000005,
      "d": 225.96131250000326,
      "v": 117
    },
    {
      "midi": 50,
      "hit": false,
      "t": 65538.39600000005,
      "d": 225.96131250000326,
      "v": 85
    },
    {
      "midi": 43,
      "hit": false,
      "t": 65538.39600000005,
      "d": 225.96131250000326,
      "v": 97
    },
    {
      "midi": 42,
      "hit": false,
      "t": 65538.39600000005,
      "d": 225.96131250000326,
      "v": 100
    },
    {
      "midi": 56,
      "hit": false,
      "t": 65538.39600000005,
      "d": 456.7303125000035,
      "v": 84
    },
    {
      "midi": 36,
      "hit": false,
      "t": 65538.39600000005,
      "d": 456.7303125000035,
      "v": 113
    },
    {
      "midi": 28,
      "hit": false,
      "t": 65769.16500000005,
      "d": 456.7303125000035,
      "v": 120
    },
    {
      "midi": 50,
      "hit": false,
      "t": 65769.16500000005,
      "d": 225.96131250000326,
      "v": 76
    },
    {
      "midi": 43,
      "hit": false,
      "t": 65769.16500000005,
      "d": 225.96131250000326,
      "v": 92
    },
    {
      "midi": 46,
      "hit": false,
      "t": 65769.16500000005,
      "d": 225.96131250000326,
      "v": 84
    },
    {
      "midi": 66,
      "hit": false,
      "t": 65788.39574999941,
      "d": 463.46107499999925,
      "v": 86
    },
    {
      "midi": 52,
      "hit": false,
      "t": 65999.93400000005,
      "d": 225.96131250000326,
      "v": 92
    },
    {
      "midi": 43,
      "hit": false,
      "t": 65999.93400000005,
      "d": 225.96131250000326,
      "v": 104
    },
    {
      "midi": 42,
      "hit": false,
      "t": 65999.93400000005,
      "d": 225.96131250000326,
      "v": 104
    },
    {
      "midi": 56,
      "hit": false,
      "t": 65999.93400000005,
      "d": 456.7303125000035,
      "v": 69
    },
    {
      "midi": 38,
      "hit": false,
      "t": 65999.93400000005,
      "d": 456.7303125000035,
      "v": 120
    },
    {
      "midi": 69,
      "hit": false,
      "t": 66020.12628749941,
      "d": 257.69204999999783,
      "v": 85
    },
    {
      "midi": 31,
      "hit": false,
      "t": 66230.70300000005,
      "d": 456.7303125000035,
      "v": 117
    },
    {
      "midi": 43,
      "hit": false,
      "t": 66230.70300000005,
      "d": 225.96131250000326,
      "v": 99
    },
    {
      "midi": 50,
      "hit": false,
      "t": 66230.70300000005,
      "d": 225.96131250000326,
      "v": 92
    },
    {
      "midi": 46,
      "hit": false,
      "t": 66230.70300000005,
      "d": 225.96131250000326,
      "v": 96
    },
    {
      "midi": 50,
      "hit": false,
      "t": 66461.47200000005,
      "d": 225.96131250000326,
      "v": 86
    },
    {
      "midi": 43,
      "hit": false,
      "t": 66461.47200000005,
      "d": 225.96131250000326,
      "v": 99
    },
    {
      "midi": 42,
      "hit": false,
      "t": 66461.47200000005,
      "d": 225.96131250000326,
      "v": 89
    },
    {
      "midi": 56,
      "hit": false,
      "t": 66461.47200000005,
      "d": 456.7303125000035,
      "v": 75
    },
    {
      "midi": 36,
      "hit": false,
      "t": 66461.47200000005,
      "d": 456.7303125000035,
      "v": 117
    },
    {
      "midi": 62,
      "hit": false,
      "t": 66472.0489124994,
      "d": 157.69215000000258,
      "v": 90
    },
    {
      "midi": 67,
      "hit": false,
      "t": 66473.0104499994,
      "d": 117.3075749999989,
      "v": 94
    },
    {
      "midi": 71,
      "hit": false,
      "t": 66473.0104499994,
      "d": 118.2691124999983,
      "v": 90
    },
    {
      "midi": 62,
      "hit": false,
      "t": 66692.24099999941,
      "d": 95.19221249999828,
      "v": 69
    },
    {
      "midi": 43,
      "hit": false,
      "t": 66692.24100000005,
      "d": 225.96131250000326,
      "v": 117
    },
    {
      "midi": 43,
      "hit": false,
      "t": 66692.24100000005,
      "d": 225.96131250000326,
      "v": 86
    },
    {
      "midi": 50,
      "hit": false,
      "t": 66692.24100000005,
      "d": 225.96131250000326,
      "v": 75
    },
    {
      "midi": 46,
      "hit": false,
      "t": 66692.24100000005,
      "d": 225.96131250000326,
      "v": 84
    },
    {
      "midi": 66,
      "hit": false,
      "t": 66693.20253749941,
      "d": 107.69220000000496,
      "v": 85
    },
    {
      "midi": 69,
      "hit": false,
      "t": 66711.47174999941,
      "d": 88.46145000000251,
      "v": 88
    },
    {
      "midi": 62,
      "hit": false,
      "t": 66912.43308749942,
      "d": 148.07677500000864,
      "v": 82
    },
    {
      "midi": 31,
      "hit": false,
      "t": 66923.01000000005,
      "d": 225.96131250000326,
      "v": 113
    },
    {
      "midi": 43,
      "hit": false,
      "t": 66923.01000000005,
      "d": 225.96131250000326,
      "v": 97
    },
    {
      "midi": 52,
      "hit": false,
      "t": 66923.01000000005,
      "d": 225.96131250000326,
      "v": 90
    },
    {
      "midi": 42,
      "hit": false,
      "t": 66923.01000000005,
      "d": 225.96131250000326,
      "v": 100
    },
    {
      "midi": 56,
      "hit": false,
      "t": 66923.01000000005,
      "d": 456.7303125000035,
      "v": 79
    },
    {
      "midi": 38,
      "hit": false,
      "t": 66923.01000000005,
      "d": 456.7303125000035,
      "v": 113
    },
    {
      "midi": 67,
      "hit": false,
      "t": 66927.81768749942,
      "d": 117.3075749999989,
      "v": 90
    },
    {
      "midi": 71,
      "hit": false,
      "t": 66928.77922499942,
      "d": 117.3075749999989,
      "v": 86
    },
    {
      "midi": 31,
      "hit": false,
      "t": 67153.77900000005,
      "d": 456.7303125000035,
      "v": 113
    },
    {
      "midi": 43,
      "hit": false,
      "t": 67153.77900000005,
      "d": 225.96131250000326,
      "v": 94
    },
    {
      "midi": 50,
      "hit": false,
      "t": 67153.77900000005,
      "d": 225.96131250000326,
      "v": 79
    },
    {
      "midi": 42,
      "hit": false,
      "t": 67153.77900000005,
      "d": 110.57681250000314,
      "v": 84
    },
    {
      "midi": 66,
      "hit": false,
      "t": 67172.04821249943,
      "d": 216.3459375000093,
      "v": 88
    },
    {
      "midi": 69,
      "hit": false,
      "t": 67173.00974999943,
      "d": 200.96133750000445,
      "v": 88
    },
    {
      "midi": 62,
      "hit": false,
      "t": 67189.35588749943,
      "d": 199.03826250000566,
      "v": 83
    },
    {
      "midi": 42,
      "hit": false,
      "t": 67269.16350000005,
      "d": 110.57681250000314,
      "v": 89
    },
    {
      "midi": 50,
      "hit": false,
      "t": 67384.54800000005,
      "d": 225.96131250000326,
      "v": 83
    },
    {
      "midi": 43,
      "hit": false,
      "t": 67384.54800000005,
      "d": 225.96131250000326,
      "v": 94
    },
    {
      "midi": 42,
      "hit": false,
      "t": 67384.54800000005,
      "d": 225.96131250000326,
      "v": 100
    },
    {
      "midi": 56,
      "hit": false,
      "t": 67384.54800000005,
      "d": 456.7303125000035,
      "v": 68
    },
    {
      "midi": 36,
      "hit": false,
      "t": 67384.54800000005,
      "d": 456.7303125000035,
      "v": 113
    },
    {
      "midi": 43,
      "hit": false,
      "t": 67615.31700000005,
      "d": 225.96131250000326,
      "v": 113
    },
    {
      "midi": 43,
      "hit": false,
      "t": 67615.31700000005,
      "d": 225.96131250000326,
      "v": 92
    },
    {
      "midi": 50,
      "hit": false,
      "t": 67615.31700000005,
      "d": 225.96131250000326,
      "v": 76
    },
    {
      "midi": 46,
      "hit": false,
      "t": 67615.31700000005,
      "d": 225.96131250000326,
      "v": 84
    },
    {
      "midi": 67,
      "hit": false,
      "t": 67644.16312499944,
      "d": 244.23052500002086,
      "v": 97
    },
    {
      "midi": 62,
      "hit": false,
      "t": 67644.16312499944,
      "d": 257.69205000002694,
      "v": 92
    },
    {
      "midi": 71,
      "hit": false,
      "t": 67645.12466249944,
      "d": 228.845925000016,
      "v": 90
    },
    {
      "midi": 31,
      "hit": false,
      "t": 67846.08600000005,
      "d": 225.96131250000326,
      "v": 110
    },
    {
      "midi": 43,
      "hit": false,
      "t": 67846.08600000005,
      "d": 225.96131250000326,
      "v": 99
    },
    {
      "midi": 52,
      "hit": false,
      "t": 67846.08600000005,
      "d": 225.96131250000326,
      "v": 86
    },
    {
      "midi": 42,
      "hit": false,
      "t": 67846.08600000005,
      "d": 225.96131250000326,
      "v": 104
    },
    {
      "midi": 56,
      "hit": false,
      "t": 67846.08600000005,
      "d": 456.7303125000035,
      "v": 62
    },
    {
      "midi": 38,
      "hit": false,
      "t": 67846.08600000005,
      "d": 456.7303125000035,
      "v": 120
    },
    {
      "midi": 31,
      "hit": false,
      "t": 68076.85500000005,
      "d": 456.7303125000035,
      "v": 110
    },
    {
      "midi": 50,
      "hit": false,
      "t": 68076.85500000005,
      "d": 225.96131250000326,
      "v": 86
    },
    {
      "midi": 43,
      "hit": false,
      "t": 68076.85500000005,
      "d": 225.96131250000326,
      "v": 97
    },
    {
      "midi": 46,
      "hit": false,
      "t": 68076.85500000005,
      "d": 225.96131250000326,
      "v": 96
    },
    {
      "midi": 60,
      "hit": false,
      "t": 68106.66266249947,
      "d": 726.922350000008,
      "v": 92
    },
    {
      "midi": 64,
      "hit": false,
      "t": 68107.62419999947,
      "d": 763.4607750000141,
      "v": 94
    },
    {
      "midi": 67,
      "hit": false,
      "t": 68124.93187499947,
      "d": 759.6146250000165,
      "v": 88
    },
    {
      "midi": 50,
      "hit": false,
      "t": 68307.62400000005,
      "d": 225.96131250000326,
      "v": 90
    },
    {
      "midi": 43,
      "hit": false,
      "t": 68307.62400000005,
      "d": 225.96131250000326,
      "v": 107
    },
    {
      "midi": 42,
      "hit": false,
      "t": 68307.62400000005,
      "d": 225.96131250000326,
      "v": 89
    },
    {
      "midi": 56,
      "hit": false,
      "t": 68307.62400000005,
      "d": 456.7303125000035,
      "v": 62
    },
    {
      "midi": 36,
      "hit": false,
      "t": 68307.62400000005,
      "d": 456.7303125000035,
      "v": 117
    },
    {
      "midi": 43,
      "hit": false,
      "t": 68538.39300000005,
      "d": 225.96131250000326,
      "v": 117
    },
    {
      "midi": 50,
      "hit": false,
      "t": 68538.39300000005,
      "d": 225.96131250000326,
      "v": 73
    },
    {
      "midi": 43,
      "hit": false,
      "t": 68538.39300000005,
      "d": 225.96131250000326,
      "v": 82
    },
    {
      "midi": 46,
      "hit": false,
      "t": 68538.39300000005,
      "d": 225.96131250000326,
      "v": 84
    },
    {
      "midi": 31,
      "hit": false,
      "t": 68769.16200000005,
      "d": 225.96131250000326,
      "v": 113
    },
    {
      "midi": 52,
      "hit": false,
      "t": 68769.16200000005,
      "d": 225.96131250000326,
      "v": 85
    },
    {
      "midi": 43,
      "hit": false,
      "t": 68769.16200000005,
      "d": 225.96131250000326,
      "v": 97
    },
    {
      "midi": 42,
      "hit": false,
      "t": 68769.16200000005,
      "d": 225.96131250000326,
      "v": 100
    },
    {
      "midi": 56,
      "hit": false,
      "t": 68769.16200000005,
      "d": 456.7303125000035,
      "v": 71
    },
    {
      "midi": 38,
      "hit": false,
      "t": 68769.16200000005,
      "d": 456.7303125000035,
      "v": 113
    },
    {
      "midi": 43,
      "hit": false,
      "t": 68999.93100000006,
      "d": 225.96131250000326,
      "v": 110
    },
    {
      "midi": 43,
      "hit": false,
      "t": 68999.93100000006,
      "d": 225.96131250000326,
      "v": 97
    },
    {
      "midi": 50,
      "hit": false,
      "t": 68999.93100000006,
      "d": 225.96131250000326,
      "v": 80
    },
    {
      "midi": 42,
      "hit": false,
      "t": 68999.93100000006,
      "d": 110.57681250000314,
      "v": 84
    },
    {
      "midi": 62,
      "hit": false,
      "t": 69017.23867499949,
      "d": 268.2689625000203,
      "v": 94
    },
    {
      "midi": 66,
      "hit": false,
      "t": 69018.20021249949,
      "d": 817.3068750000093,
      "v": 92
    },
    {
      "midi": 69,
      "hit": false,
      "t": 69036.4694249995,
      "d": 824.999175000019,
      "v": 90
    },
    {
      "midi": 42,
      "hit": false,
      "t": 69115.31550000006,
      "d": 110.57681250000314,
      "v": 89
    },
    {
      "midi": 43,
      "hit": false,
      "t": 69230.70000000006,
      "d": 225.96131250000326,
      "v": 113
    },
    {
      "midi": 50,
      "hit": false,
      "t": 69230.70000000006,
      "d": 225.96131250000326,
      "v": 82
    },
    {
      "midi": 43,
      "hit": false,
      "t": 69230.70000000006,
      "d": 225.96131250000326,
      "v": 99
    },
    {
      "midi": 42,
      "hit": false,
      "t": 69230.70000000006,
      "d": 225.96131250000326,
      "v": 100
    },
    {
      "midi": 56,
      "hit": false,
      "t": 69230.70000000006,
      "d": 456.7303125000035,
      "v": 69
    },
    {
      "midi": 36,
      "hit": false,
      "t": 69230.70000000006,
      "d": 456.7303125000035,
      "v": 113
    },
    {
      "midi": 62,
      "hit": false,
      "t": 69455.6997749995,
      "d": 293.26893749999,
      "v": 92
    },
    {
      "midi": 43,
      "hit": false,
      "t": 69461.46900000006,
      "d": 225.96131250000326,
      "v": 120
    },
    {
      "midi": 43,
      "hit": false,
      "t": 69461.46900000006,
      "d": 225.96131250000326,
      "v": 97
    },
    {
      "midi": 50,
      "hit": false,
      "t": 69461.46900000006,
      "d": 225.96131250000326,
      "v": 88
    },
    {
      "midi": 46,
      "hit": false,
      "t": 69461.46900000006,
      "d": 225.96131250000326,
      "v": 84
    },
    {
      "midi": 35,
      "hit": false,
      "t": 69692.23800000006,
      "d": 225.96131250000326,
      "v": 107
    },
    {
      "midi": 43,
      "hit": false,
      "t": 69692.23800000006,
      "d": 225.96131250000326,
      "v": 107
    },
    {
      "midi": 52,
      "hit": false,
      "t": 69692.23800000006,
      "d": 225.96131250000326,
      "v": 94
    },
    {
      "midi": 42,
      "hit": false,
      "t": 69692.23800000006,
      "d": 225.96131250000326,
      "v": 104
    },
    {
      "midi": 56,
      "hit": false,
      "t": 69692.23800000006,
      "d": 456.7303125000035,
      "v": 77
    },
    {
      "midi": 38,
      "hit": false,
      "t": 69692.23800000006,
      "d": 456.7303125000035,
      "v": 120
    },
    {
      "midi": 74,
      "hit": false,
      "t": 69697.0456874995,
      "d": 151.92292500000622,
      "v": 85
    },
    {
      "midi": 36,
      "hit": false,
      "t": 69923.00700000006,
      "d": 225.96131250000326,
      "v": 113
    },
    {
      "midi": 50,
      "hit": false,
      "t": 69923.00700000006,
      "d": 225.96131250000326,
      "v": 97
    },
    {
      "midi": 43,
      "hit": false,
      "t": 69923.00700000006,
      "d": 225.96131250000326,
      "v": 107
    },
    {
      "midi": 46,
      "hit": false,
      "t": 69923.00700000006,
      "d": 225.96131250000326,
      "v": 96
    },
    {
      "midi": 38,
      "hit": false,
      "t": 70153.77600000006,
      "d": 687.4993125000037,
      "v": 113
    },
    {
      "midi": 48,
      "hit": false,
      "t": 70153.77600000006,
      "d": 225.96131250000326,
      "v": 104
    },
    {
      "midi": 55,
      "hit": false,
      "t": 70153.77600000006,
      "d": 225.96131250000326,
      "v": 92
    },
    {
      "midi": 42,
      "hit": false,
      "t": 70153.77600000006,
      "d": 225.96131250000326,
      "v": 89
    },
    {
      "midi": 56,
      "hit": false,
      "t": 70153.77600000006,
      "d": 456.7303125000035,
      "v": 84
    },
    {
      "midi": 36,
      "hit": false,
      "t": 70153.77600000006,
      "d": 456.7303125000035,
      "v": 117
    },
    {
      "midi": 60,
      "hit": false,
      "t": 70164.35291249951,
      "d": 1000.9605375000247,
      "v": 97
    },
    {
      "midi": 64,
      "hit": false,
      "t": 70165.31444999951,
      "d": 1120.1911875000224,
      "v": 104
    },
    {
      "midi": 67,
      "hit": false,
      "t": 70166.27598749951,
      "d": 1234.6141500000376,
      "v": 97
    },
    {
      "midi": 48,
      "hit": false,
      "t": 70384.54500000006,
      "d": 225.96131250000326,
      "v": 85
    },
    {
      "midi": 55,
      "hit": false,
      "t": 70384.54500000006,
      "d": 225.96131250000326,
      "v": 80
    },
    {
      "midi": 46,
      "hit": false,
      "t": 70384.54500000006,
      "d": 225.96131250000326,
      "v": 84
    },
    {
      "midi": 57,
      "hit": false,
      "t": 70615.31400000006,
      "d": 225.96131250000326,
      "v": 83
    },
    {
      "midi": 48,
      "hit": false,
      "t": 70615.31400000006,
      "d": 225.96131250000326,
      "v": 97
    },
    {
      "midi": 42,
      "hit": false,
      "t": 70615.31400000006,
      "d": 225.96131250000326,
      "v": 100
    },
    {
      "midi": 56,
      "hit": false,
      "t": 70615.31400000006,
      "d": 456.7303125000035,
      "v": 75
    },
    {
      "midi": 38,
      "hit": false,
      "t": 70615.31400000006,
      "d": 456.7303125000035,
      "v": 113
    },
    {
      "midi": 38,
      "hit": false,
      "t": 70846.08300000006,
      "d": 225.96131250000326,
      "v": 117
    },
    {
      "midi": 48,
      "hit": false,
      "t": 70846.08300000006,
      "d": 225.96131250000326,
      "v": 94
    },
    {
      "midi": 55,
      "hit": false,
      "t": 70846.08300000006,
      "d": 225.96131250000326,
      "v": 74
    },
    {
      "midi": 42,
      "hit": false,
      "t": 70846.08300000006,
      "d": 110.57681250000314,
      "v": 84
    },
    {
      "midi": 42,
      "hit": false,
      "t": 70961.46750000006,
      "d": 110.57681250000314,
      "v": 89
    },
    {
      "midi": 45,
      "hit": false,
      "t": 71076.85200000006,
      "d": 225.96131250000326,
      "v": 99
    },
    {
      "midi": 55,
      "hit": false,
      "t": 71076.85200000006,
      "d": 225.96131250000326,
      "v": 83
    },
    {
      "midi": 48,
      "hit": false,
      "t": 71076.85200000006,
      "d": 225.96131250000326,
      "v": 94
    },
    {
      "midi": 38,
      "hit": false,
      "t": 71076.85200000006,
      "d": 225.96131250000326,
      "v": 104
    },
    {
      "midi": 42,
      "hit": false,
      "t": 71076.85200000006,
      "d": 225.96131250000326,
      "v": 100
    },
    {
      "midi": 36,
      "hit": false,
      "t": 71076.85200000006,
      "d": 456.7303125000035,
      "v": 113
    },
    {
      "midi": 56,
      "hit": false,
      "t": 71076.85200000006,
      "d": 456.7303125000035,
      "v": 79
    },
    {
      "midi": 72,
      "hit": false,
      "t": 71100.89043749953,
      "d": 486.53797500001383,
      "v": 76
    },
    {
      "midi": 48,
      "hit": false,
      "t": 71307.62100000006,
      "d": 225.96131250000326,
      "v": 117
    },
    {
      "midi": 48,
      "hit": false,
      "t": 71307.62100000006,
      "d": 225.96131250000326,
      "v": 90
    },
    {
      "midi": 55,
      "hit": false,
      "t": 71307.62100000006,
      "d": 225.96131250000326,
      "v": 73
    },
    {
      "midi": 38,
      "hit": false,
      "t": 71307.62100000006,
      "d": 225.96131250000326,
      "v": 104
    },
    {
      "midi": 46,
      "hit": false,
      "t": 71307.62100000006,
      "d": 225.96131250000326,
      "v": 84
    },
    {
      "midi": 60,
      "hit": false,
      "t": 71323.96713749954,
      "d": 299.99970000001485,
      "v": 94
    },
    {
      "midi": 64,
      "hit": false,
      "t": 71523.96693749954,
      "d": 137.4998625000153,
      "v": 85
    },
    {
      "midi": 49,
      "hit": false,
      "t": 71538.39000000006,
      "d": 225.96131250000326,
      "v": 92
    },
    {
      "midi": 57,
      "hit": false,
      "t": 71538.39000000006,
      "d": 225.96131250000326,
      "v": 86
    },
    {
      "midi": 48,
      "hit": false,
      "t": 71538.39000000006,
      "d": 225.96131250000326,
      "v": 99
    },
    {
      "midi": 38,
      "hit": false,
      "t": 71538.39000000006,
      "d": 225.96131250000326,
      "v": 117
    },
    {
      "midi": 42,
      "hit": false,
      "t": 71538.39000000006,
      "d": 225.96131250000326,
      "v": 104
    },
    {
      "midi": 56,
      "hit": false,
      "t": 71538.39000000006,
      "d": 456.7303125000035,
      "v": 71
    },
    {
      "midi": 62,
      "hit": false,
      "t": 71760.50516249955,
      "d": 402.8842125000374,
      "v": 94
    },
    {
      "midi": 66,
      "hit": false,
      "t": 71761.46669999955,
      "d": 1463.4600750000827,
      "v": 97
    },
    {
      "midi": 50,
      "hit": false,
      "t": 71769.15900000006,
      "d": 456.7303125000035,
      "v": 117
    },
    {
      "midi": 50,
      "hit": false,
      "t": 71769.15900000006,
      "d": 225.96131250000326,
      "v": 113
    },
    {
      "midi": 57,
      "hit": false,
      "t": 71769.15900000006,
      "d": 225.96131250000326,
      "v": 88
    },
    {
      "midi": 36,
      "hit": false,
      "t": 71769.15900000006,
      "d": 225.96131250000326,
      "v": 120
    },
    {
      "midi": 46,
      "hit": false,
      "t": 71769.15900000006,
      "d": 225.96131250000326,
      "v": 96
    },
    {
      "midi": 57,
      "hit": false,
      "t": 71769.15900000006,
      "d": 225.96131250000326,
      "v": 113
    },
    {
      "midi": 69,
      "hit": false,
      "t": 71779.73591249956,
      "d": 1457.6908500000864,
      "v": 97
    },
    {
      "midi": 56,
      "hit": false,
      "t": 71995.12031250006,
      "d": 4.807687499996973,
      "v": 104
    },
    {
      "midi": 57,
      "hit": false,
      "t": 71999.92800000006,
      "d": 225.96131250000326,
      "v": 92
    },
    {
      "midi": 50,
      "hit": false,
      "t": 71999.92800000006,
      "d": 225.96131250000326,
      "v": 97
    },
    {
      "midi": 42,
      "hit": false,
      "t": 71999.92800000006,
      "d": 225.96131250000326,
      "v": 89
    },
    {
      "midi": 56,
      "hit": false,
      "t": 71999.92800000006,
      "d": 456.7303125000035,
      "v": 100
    },
    {
      "midi": 62,
      "hit": false,
      "t": 72223.9662374996,
      "d": 310.57661250002275,
      "v": 85
    },
    {
      "midi": 38,
      "hit": false,
      "t": 72230.69700000006,
      "d": 456.7303125000035,
      "v": 104
    },
    {
      "midi": 57,
      "hit": false,
      "t": 72230.69700000006,
      "d": 225.96131250000326,
      "v": 85
    },
    {
      "midi": 50,
      "hit": false,
      "t": 72230.69700000006,
      "d": 225.96131250000326,
      "v": 79
    },
    {
      "midi": 42,
      "hit": false,
      "t": 72230.69700000006,
      "d": 225.96131250000326,
      "v": 86
    },
    {
      "midi": 38,
      "hit": false,
      "t": 72230.69700000006,
      "d": 225.96131250000326,
      "v": 50
    },
    {
      "midi": 74,
      "hit": false,
      "t": 72448.96601249962,
      "d": 232.69207499999902,
      "v": 78
    },
    {
      "midi": 50,
      "hit": false,
      "t": 72461.46600000006,
      "d": 225.96131250000326,
      "v": 99
    },
    {
      "midi": 59,
      "hit": false,
      "t": 72461.46600000006,
      "d": 225.96131250000326,
      "v": 83
    },
    {
      "midi": 42,
      "hit": false,
      "t": 72461.46600000006,
      "d": 225.96131250000326,
      "v": 84
    },
    {
      "midi": 38,
      "hit": false,
      "t": 72461.46600000006,
      "d": 225.96131250000326,
      "v": 65
    },
    {
      "midi": 56,
      "hit": false,
      "t": 72461.46600000006,
      "d": 456.7303125000035,
      "v": 96
    },
    {
      "midi": 38,
      "hit": false,
      "t": 72692.23500000006,
      "d": 225.96131250000326,
      "v": 101
    },
    {
      "midi": 50,
      "hit": false,
      "t": 72692.23500000006,
      "d": 225.96131250000326,
      "v": 88
    },
    {
      "midi": 57,
      "hit": false,
      "t": 72692.23500000006,
      "d": 225.96131250000326,
      "v": 83
    },
    {
      "midi": 42,
      "hit": false,
      "t": 72692.23500000006,
      "d": 225.96131250000326,
      "v": 73
    },
    {
      "midi": 38,
      "hit": false,
      "t": 72692.23500000006,
      "d": 225.96131250000326,
      "v": 76
    },
    {
      "midi": 62,
      "hit": false,
      "t": 72695.11961249962,
      "d": 269.2305000000051,
      "v": 92
    },
    {
      "midi": 40,
      "hit": false,
      "t": 72923.00400000006,
      "d": 225.96131250000326,
      "v": 110
    },
    {
      "midi": 57,
      "hit": false,
      "t": 72923.00400000006,
      "d": 225.96131250000326,
      "v": 79
    },
    {
      "midi": 50,
      "hit": false,
      "t": 72923.00400000006,
      "d": 225.96131250000326,
      "v": 85
    },
    {
      "midi": 36,
      "hit": false,
      "t": 72923.00400000006,
      "d": 225.96131250000326,
      "v": 117
    },
    {
      "midi": 38,
      "hit": false,
      "t": 72923.00400000006,
      "d": 225.96131250000326,
      "v": 93
    },
    {
      "midi": 42,
      "hit": false,
      "t": 72923.00400000006,
      "d": 225.96131250000326,
      "v": 92
    },
    {
      "midi": 56,
      "hit": false,
      "t": 72923.00400000006,
      "d": 456.7303125000035,
      "v": 100
    },
    {
      "midi": 74,
      "hit": false,
      "t": 72938.38859999963,
      "d": 248.0766750000039,
      "v": 79
    },
    {
      "midi": 38,
      "hit": false,
      "t": 73153.77300000006,
      "d": 225.96131250000326,
      "v": 101
    },
    {
      "midi": 57,
      "hit": false,
      "t": 73153.77300000006,
      "d": 225.96131250000326,
      "v": 82
    },
    {
      "midi": 50,
      "hit": false,
      "t": 73153.77300000006,
      "d": 225.96131250000326,
      "v": 86
    },
    {
      "midi": 46,
      "hit": false,
      "t": 73153.77300000006,
      "d": 225.96131250000326,
      "v": 86
    },
    {
      "midi": 38,
      "hit": false,
      "t": 73153.77300000006,
      "d": 225.96131250000326,
      "v": 110
    },
    {
      "midi": 62,
      "hit": false,
      "t": 73171.08067499963,
      "d": 140.38447500001348,
      "v": 83
    },
    {
      "midi": 35,
      "hit": false,
      "t": 73384.54200000006,
      "d": 225.96131250000326,
      "v": 117
    },
    {
      "midi": 50,
      "hit": false,
      "t": 73384.54200000006,
      "d": 225.96131250000326,
      "v": 94
    },
    {
      "midi": 59,
      "hit": false,
      "t": 73384.54200000006,
      "d": 225.96131250000326,
      "v": 85
    },
    {
      "midi": 38,
      "hit": false,
      "t": 73384.54200000006,
      "d": 100.96143749999464,
      "v": 117
    },
    {
      "midi": 42,
      "hit": false,
      "t": 73384.54200000006,
      "d": 225.9613124999887,
      "v": 84
    },
    {
      "midi": 56,
      "hit": false,
      "t": 73384.54200000006,
      "d": 456.73031249998894,
      "v": 100
    },
    {
      "midi": 46,
      "hit": false,
      "t": 73615.31100000005,
      "d": 225.96131250000326,
      "v": 89
    },
    {
      "midi": 45,
      "hit": false,
      "t": 73615.31100000005,
      "d": 225.96131250000326,
      "v": 120
    },
    {
      "midi": 33,
      "hit": false,
      "t": 73615.31100000006,
      "d": 225.96131250000326,
      "v": 110
    },
    {
      "midi": 50,
      "hit": false,
      "t": 73615.31100000006,
      "d": 225.96131250000326,
      "v": 99
    },
    {
      "midi": 57,
      "hit": false,
      "t": 73615.31100000006,
      "d": 225.96131250000326,
      "v": 90
    },
    {
      "midi": 62,
      "hit": false,
      "t": 73846.07999999999,
      "d": 225.96131250000326,
      "v": 80
    },
    {
      "midi": 59,
      "hit": false,
      "t": 73846.07999999999,
      "d": 225.96131250000326,
      "v": 73
    },
    {
      "midi": 55,
      "hit": false,
      "t": 73846.07999999999,
      "d": 225.96131250000326,
      "v": 75
    },
    {
      "midi": 74,
      "hit": false,
      "t": 73846.07999999999,
      "d": 225.96131250000326,
      "v": 113
    },
    {
      "midi": 62,
      "hit": false,
      "t": 73846.07999999999,
      "d": 225.96131250000326,
      "v": 92
    },
    {
      "midi": 71,
      "hit": false,
      "t": 73846.07999999999,
      "d": 225.96131250000326,
      "v": 94
    },
    {
      "midi": 42,
      "hit": false,
      "t": 73846.08000000005,
      "d": 225.96131250000326,
      "v": 89
    },
    {
      "midi": 57,
      "hit": false,
      "t": 73846.08000000005,
      "d": 225.96131250000326,
      "v": 110
    },
    {
      "midi": 36,
      "hit": false,
      "t": 73846.08000000005,
      "d": 456.7303125000035,
      "v": 113
    },
    {
      "midi": 43,
      "hit": false,
      "t": 73846.08000000006,
      "d": 456.7303125000035,
      "v": 104
    },
    {
      "midi": 43,
      "hit": false,
      "t": 73846.08000000006,
      "d": 225.96131250000326,
      "v": 101
    },
    {
      "midi": 50,
      "hit": false,
      "t": 73846.08000000006,
      "d": 225.96131250000326,
      "v": 86
    },
    {
      "midi": 55,
      "hit": false,
      "t": 74049.92594999964,
      "d": 157.69215000000258,
      "v": 66
    },
    {
      "midi": 59,
      "hit": false,
      "t": 74049.92594999964,
      "d": 158.65368750000198,
      "v": 66
    },
    {
      "midi": 62,
      "hit": false,
      "t": 74051.84902499964,
      "d": 153.846000000005,
      "v": 75
    },
    {
      "midi": 62,
      "hit": false,
      "t": 74076.84899999999,
      "d": 225.96131250000326,
      "v": 74
    },
    {
      "midi": 55,
      "hit": false,
      "t": 74076.84899999999,
      "d": 225.96131250000326,
      "v": 69
    },
    {
      "midi": 59,
      "hit": false,
      "t": 74076.84899999999,
      "d": 225.96131250000326,
      "v": 67
    },
    {
      "midi": 74,
      "hit": false,
      "t": 74076.84899999999,
      "d": 225.96131250000326,
      "v": 113
    },
    {
      "midi": 62,
      "hit": false,
      "t": 74076.84899999999,
      "d": 225.96131250000326,
      "v": 97
    },
    {
      "midi": 71,
      "hit": false,
      "t": 74076.84899999999,
      "d": 225.96131250000326,
      "v": 94
    },
    {
      "midi": 42,
      "hit": false,
      "t": 74076.84900000005,
      "d": 225.96131250000326,
      "v": 81
    },
    {
      "midi": 50,
      "hit": false,
      "t": 74076.84900000006,
      "d": 225.96131250000326,
      "v": 85
    },
    {
      "midi": 43,
      "hit": false,
      "t": 74076.84900000006,
      "d": 225.96131250000326,
      "v": 97
    },
    {
      "midi": 55,
      "hit": false,
      "t": 74306.65646249964,
      "d": 151.92292500000622,
      "v": 78
    },
    {
      "midi": 60,
      "hit": false,
      "t": 74307.61799999964,
      "d": 138.46140000000014,
      "v": 85
    },
    {
      "midi": 55,
      "hit": false,
      "t": 74307.61799999999,
      "d": 225.96131250000326,
      "v": 73
    },
    {
      "midi": 64,
      "hit": false,
      "t": 74307.61799999999,
      "d": 225.96131250000326,
      "v": 72
    },
    {
      "midi": 60,
      "hit": false,
      "t": 74307.61799999999,
      "d": 225.96131250000326,
      "v": 72
    },
    {
      "midi": 76,
      "hit": false,
      "t": 74307.61799999999,
      "d": 225.96131250000326,
      "v": 101
    },
    {
      "midi": 64,
      "hit": false,
      "t": 74307.61799999999,
      "d": 225.96131250000326,
      "v": 99
    },
    {
      "midi": 72,
      "hit": false,
      "t": 74307.61799999999,
      "d": 225.96131250000326,
      "v": 99
    },
    {
      "midi": 42,
      "hit": false,
      "t": 74307.61800000005,
      "d": 225.96131250000326,
      "v": 84
    },
    {
      "midi": 38,
      "hit": false,
      "t": 74307.61800000005,
      "d": 225.96131250000326,
      "v": 113
    },
    {
      "midi": 43,
      "hit": false,
      "t": 74307.61800000006,
      "d": 225.96131250000326,
      "v": 101
    },
    {
      "midi": 52,
      "hit": false,
      "t": 74307.61800000006,
      "d": 225.96131250000326,
      "v": 94
    },
    {
      "midi": 64,
      "hit": false,
      "t": 74309.54107499964,
      "d": 121.15372499999648,
      "v": 86
    },
    {
      "midi": 62,
      "hit": false,
      "t": 74538.38699999999,
      "d": 918.268312500004,
      "v": 85
    },
    {
      "midi": 59,
      "hit": false,
      "t": 74538.38699999999,
      "d": 918.268312500004,
      "v": 80
    },
    {
      "midi": 55,
      "hit": false,
      "t": 74538.38699999999,
      "d": 918.268312500004,
      "v": 82
    },
    {
      "midi": 74,
      "hit": false,
      "t": 74538.38699999999,
      "d": 918.268312500004,
      "v": 101
    },
    {
      "midi": 62,
      "hit": false,
      "t": 74538.38699999999,
      "d": 918.268312500004,
      "v": 99
    },
    {
      "midi": 71,
      "hit": false,
      "t": 74538.38699999999,
      "d": 918.268312500004,
      "v": 99
    },
    {
      "midi": 42,
      "hit": false,
      "t": 74538.38700000005,
      "d": 225.96131250000326,
      "v": 86
    },
    {
      "midi": 36,
      "hit": false,
      "t": 74538.38700000005,
      "d": 225.96131250000326,
      "v": 123
    },
    {
      "midi": 43,
      "hit": false,
      "t": 74538.38700000006,
      "d": 225.96131250000326,
      "v": 110
    },
    {
      "midi": 50,
      "hit": false,
      "t": 74538.38700000006,
      "d": 225.96131250000326,
      "v": 97
    },
    {
      "midi": 43,
      "hit": false,
      "t": 74538.38700000006,
      "d": 225.96131250000326,
      "v": 94
    },
    {
      "midi": 55,
      "hit": false,
      "t": 74543.19468749965,
      "d": 818.2684125000378,
      "v": 86
    },
    {
      "midi": 59,
      "hit": false,
      "t": 74544.15622499965,
      "d": 574.99942500006,
      "v": 94
    },
    {
      "midi": 62,
      "hit": false,
      "t": 74558.57928749966,
      "d": 548.0763750000478,
      "v": 88
    },
    {
      "midi": 42,
      "hit": false,
      "t": 74769.15600000005,
      "d": 225.96131250000326,
      "v": 92
    },
    {
      "midi": 36,
      "hit": false,
      "t": 74769.15600000005,
      "d": 456.7303125000035,
      "v": 110
    },
    {
      "midi": 43,
      "hit": false,
      "t": 74769.15600000006,
      "d": 456.7303125000035,
      "v": 110
    },
    {
      "midi": 50,
      "hit": false,
      "t": 74769.15600000006,
      "d": 225.96131250000326,
      "v": 97
    },
    {
      "midi": 43,
      "hit": false,
      "t": 74769.15600000006,
      "d": 225.96131250000326,
      "v": 94
    },
    {
      "midi": 46,
      "hit": false,
      "t": 74999.92500000005,
      "d": 225.96131250000326,
      "v": 89
    },
    {
      "midi": 50,
      "hit": false,
      "t": 74999.92500000006,
      "d": 225.96131250000326,
      "v": 90
    },
    {
      "midi": 43,
      "hit": false,
      "t": 74999.92500000006,
      "d": 225.96131250000326,
      "v": 97
    },
    {
      "midi": 64,
      "hit": false,
      "t": 75193.1940374997,
      "d": 117.30757499998435,
      "v": 92
    },
    {
      "midi": 60,
      "hit": false,
      "t": 75194.1555749997,
      "d": 115.38449999998556,
      "v": 75
    },
    {
      "midi": 62,
      "hit": false,
      "t": 75195.1171124997,
      "d": 36.53842499999155,
      "v": 66
    },
    {
      "midi": 42,
      "hit": false,
      "t": 75230.69400000005,
      "d": 225.96131250000326,
      "v": 92
    },
    {
      "midi": 38,
      "hit": false,
      "t": 75230.69400000005,
      "d": 225.96131250000326,
      "v": 110
    },
    {
      "midi": 43,
      "hit": false,
      "t": 75230.69400000006,
      "d": 225.96131250000326,
      "v": 101
    },
    {
      "midi": 52,
      "hit": false,
      "t": 75230.69400000006,
      "d": 225.96131250000326,
      "v": 94
    },
    {
      "midi": 55,
      "hit": false,
      "t": 75410.50151249969,
      "d": 660.5762625000352,
      "v": 65
    },
    {
      "midi": 59,
      "hit": false,
      "t": 75413.38612499968,
      "d": 658.6531875000364,
      "v": 82
    },
    {
      "midi": 62,
      "hit": false,
      "t": 75432.61687499969,
      "d": 624.9993750000285,
      "v": 92
    },
    {
      "midi": 42,
      "hit": false,
      "t": 75461.46300000005,
      "d": 225.96131250000326,
      "v": 79
    },
    {
      "midi": 36,
      "hit": false,
      "t": 75461.46300000005,
      "d": 225.96131250000326,
      "v": 120
    },
    {
      "midi": 43,
      "hit": false,
      "t": 75461.46300000006,
      "d": 225.96131250000326,
      "v": 110
    },
    {
      "midi": 50,
      "hit": false,
      "t": 75461.46300000006,
      "d": 225.96131250000326,
      "v": 97
    },
    {
      "midi": 43,
      "hit": false,
      "t": 75461.46300000006,
      "d": 225.96131250000326,
      "v": 99
    },
    {
      "midi": 62,
      "hit": false,
      "t": 75692.23199999999,
      "d": 225.96131250000326,
      "v": 75
    },
    {
      "midi": 59,
      "hit": false,
      "t": 75692.23199999999,
      "d": 225.96131250000326,
      "v": 67
    },
    {
      "midi": 55,
      "hit": false,
      "t": 75692.23199999999,
      "d": 225.96131250000326,
      "v": 71
    },
    {
      "midi": 71,
      "hit": false,
      "t": 75692.23199999999,
      "d": 225.96131250000326,
      "v": 104
    },
    {
      "midi": 67,
      "hit": false,
      "t": 75692.23199999999,
      "d": 225.96131250000326,
      "v": 97
    },
    {
      "midi": 59,
      "hit": false,
      "t": 75692.23199999999,
      "d": 225.96131250000326,
      "v": 94
    },
    {
      "midi": 42,
      "hit": false,
      "t": 75692.23200000005,
      "d": 225.96131250000326,
      "v": 89
    },
    {
      "midi": 36,
      "hit": false,
      "t": 75692.23200000005,
      "d": 456.7303125000035,
      "v": 113
    },
    {
      "midi": 43,
      "hit": false,
      "t": 75692.23200000006,
      "d": 456.7303125000035,
      "v": 104
    },
    {
      "midi": 43,
      "hit": false,
      "t": 75692.23200000006,
      "d": 225.96131250000326,
      "v": 99
    },
    {
      "midi": 50,
      "hit": false,
      "t": 75692.23200000006,
      "d": 225.96131250000326,
      "v": 92
    },
    {
      "midi": 62,
      "hit": false,
      "t": 75923.00099999999,
      "d": 225.96131250000326,
      "v": 75
    },
    {
      "midi": 55,
      "hit": false,
      "t": 75923.00099999999,
      "d": 225.96131250000326,
      "v": 74
    },
    {
      "midi": 59,
      "hit": false,
      "t": 75923.00099999999,
      "d": 225.96131250000326,
      "v": 68
    },
    {
      "midi": 71,
      "hit": false,
      "t": 75923.00099999999,
      "d": 225.96131250000326,
      "v": 107
    },
    {
      "midi": 59,
      "hit": false,
      "t": 75923.00099999999,
      "d": 225.96131250000326,
      "v": 99
    },
    {
      "midi": 67,
      "hit": false,
      "t": 75923.00099999999,
      "d": 225.96131250000326,
      "v": 99
    },
    {
      "midi": 42,
      "hit": false,
      "t": 75923.00100000005,
      "d": 225.96131250000326,
      "v": 66
    },
    {
      "midi": 50,
      "hit": false,
      "t": 75923.00100000006,
      "d": 225.96131250000326,
      "v": 94
    },
    {
      "midi": 43,
      "hit": false,
      "t": 75923.00100000006,
      "d": 225.96131250000326,
      "v": 101
    },
    {
      "midi": 64,
      "hit": false,
      "t": 76153.76999999999,
      "d": 225.96131250000326,
      "v": 74
    },
    {
      "midi": 60,
      "hit": false,
      "t": 76153.76999999999,
      "d": 225.96131250000326,
      "v": 68
    },
    {
      "midi": 55,
      "hit": false,
      "t": 76153.76999999999,
      "d": 225.96131250000326,
      "v": 74
    },
    {
      "midi": 72,
      "hit": false,
      "t": 76153.76999999999,
      "d": 225.96131250000326,
      "v": 110
    },
    {
      "midi": 69,
      "hit": false,
      "t": 76153.76999999999,
      "d": 225.96131250000326,
      "v": 94
    },
    {
      "midi": 60,
      "hit": false,
      "t": 76153.76999999999,
      "d": 225.96131250000326,
      "v": 99
    },
    {
      "midi": 38,
      "hit": false,
      "t": 76153.77000000005,
      "d": 225.96131250000326,
      "v": 107
    },
    {
      "midi": 42,
      "hit": false,
      "t": 76153.77000000005,
      "d": 225.96131250000326,
      "v": 62
    },
    {
      "midi": 52,
      "hit": false,
      "t": 76153.77000000006,
      "d": 225.96131250000326,
      "v": 86
    },
    {
      "midi": 43,
      "hit": false,
      "t": 76153.77000000006,
      "d": 225.96131250000326,
      "v": 101
    },
    {
      "midi": 60,
      "hit": false,
      "t": 76195.11611249972,
      "d": 98.07682499999646,
      "v": 90
    },
    {
      "midi": 55,
      "hit": false,
      "t": 76196.07764999972,
      "d": 98.07682499999646,
      "v": 88
    },
    {
      "midi": 64,
      "hit": false,
      "t": 76197.03918749971,
      "d": 96.15374999999767,
      "v": 88
    },
    {
      "midi": 55,
      "hit": false,
      "t": 76384.53899999999,
      "d": 918.268312500004,
      "v": 76
    },
    {
      "midi": 62,
      "hit": false,
      "t": 76384.53899999999,
      "d": 918.268312500004,
      "v": 82
    },
    {
      "midi": 59,
      "hit": false,
      "t": 76384.53899999999,
      "d": 918.268312500004,
      "v": 72
    },
    {
      "midi": 71,
      "hit": false,
      "t": 76384.53899999999,
      "d": 918.268312500004,
      "v": 110
    },
    {
      "midi": 59,
      "hit": false,
      "t": 76384.53899999999,
      "d": 918.268312500004,
      "v": 99
    },
    {
      "midi": 67,
      "hit": false,
      "t": 76384.53899999999,
      "d": 918.268312500004,
      "v": 99
    },
    {
      "midi": 36,
      "hit": false,
      "t": 76384.53900000005,
      "d": 225.96131250000326,
      "v": 110
    },
    {
      "midi": 42,
      "hit": false,
      "t": 76384.53900000005,
      "d": 225.96131250000326,
      "v": 59
    },
    {
      "midi": 43,
      "hit": false,
      "t": 76384.53900000006,
      "d": 225.96131250000326,
      "v": 101
    },
    {
      "midi": 50,
      "hit": false,
      "t": 76384.53900000006,
      "d": 225.96131250000326,
      "v": 97
    },
    {
      "midi": 43,
      "hit": false,
      "t": 76384.53900000006,
      "d": 225.96131250000326,
      "v": 101
    },
    {
      "midi": 55,
      "hit": false,
      "t": 76405.69282499971,
      "d": 383.65346250000584,
      "v": 82
    },
    {
      "midi": 59,
      "hit": false,
      "t": 76406.65436249971,
      "d": 383.65346250000584,
      "v": 92
    },
    {
      "midi": 62,
      "hit": false,
      "t": 76407.61589999971,
      "d": 380.76885000000766,
      "v": 101
    },
    {
      "midi": 42,
      "hit": false,
      "t": 76615.30800000005,
      "d": 225.96131250000326,
      "v": 96
    },
    {
      "midi": 36,
      "hit": false,
      "t": 76615.30800000005,
      "d": 456.7303125000035,
      "v": 117
    },
    {
      "midi": 43,
      "hit": false,
      "t": 76615.30800000006,
      "d": 225.96131250000326,
      "v": 117
    },
    {
      "midi": 50,
      "hit": false,
      "t": 76615.30800000006,
      "d": 225.96131250000326,
      "v": 90
    },
    {
      "midi": 43,
      "hit": false,
      "t": 76615.30800000006,
      "d": 225.96131250000326,
      "v": 97
    },
    {
      "midi": 42,
      "hit": false,
      "t": 76846.07700000005,
      "d": 225.96131250000326,
      "v": 79
    },
    {
      "midi": 43,
      "hit": false,
      "t": 76846.07700000006,
      "d": 225.96131250000326,
      "v": 101
    },
    {
      "midi": 50,
      "hit": false,
      "t": 76846.07700000006,
      "d": 225.96131250000326,
      "v": 92
    },
    {
      "midi": 43,
      "hit": false,
      "t": 76846.07700000006,
      "d": 225.96131250000326,
      "v": 101
    },
    {
      "midi": 55,
      "hit": false,
      "t": 76901.84617499972,
      "d": 90.38452499998675,
      "v": 86
    },
    {
      "midi": 59,
      "hit": false,
      "t": 76901.84617499972,
      "d": 91.34606249998615,
      "v": 92
    },
    {
      "midi": 62,
      "hit": false,
      "t": 76904.73078749972,
      "d": 86.53837499998917,
      "v": 94
    },
    {
      "midi": 38,
      "hit": false,
      "t": 77076.84600000005,
      "d": 225.96131250000326,
      "v": 107
    },
    {
      "midi": 42,
      "hit": false,
      "t": 77076.84600000005,
      "d": 225.96131250000326,
      "v": 64
    },
    {
      "midi": 40,
      "hit": false,
      "t": 77076.84600000006,
      "d": 225.96131250000326,
      "v": 110
    },
    {
      "midi": 52,
      "hit": false,
      "t": 77076.84600000006,
      "d": 225.96131250000326,
      "v": 99
    },
    {
      "midi": 43,
      "hit": false,
      "t": 77076.84600000006,
      "d": 225.96131250000326,
      "v": 104
    },
    {
      "midi": 55,
      "hit": false,
      "t": 77104.73058749971,
      "d": 118.2691125000274,
      "v": 82
    },
    {
      "midi": 64,
      "hit": false,
      "t": 77105.69212499971,
      "d": 90.38452500001586,
      "v": 90
    },
    {
      "midi": 60,
      "hit": false,
      "t": 77106.65366249971,
      "d": 103.84605000002193,
      "v": 90
    },
    {
      "midi": 36,
      "hit": false,
      "t": 77307.61500000005,
      "d": 225.96131250000326,
      "v": 99
    },
    {
      "midi": 42,
      "hit": false,
      "t": 77307.61500000005,
      "d": 225.96131250000326,
      "v": 77
    },
    {
      "midi": 38,
      "hit": false,
      "t": 77307.61500000006,
      "d": 225.96131250000326,
      "v": 120
    },
    {
      "midi": 50,
      "hit": false,
      "t": 77307.61500000006,
      "d": 225.96131250000326,
      "v": 99
    },
    {
      "midi": 43,
      "hit": false,
      "t": 77307.61500000006,
      "d": 225.96131250000326,
      "v": 99
    },
    {
      "midi": 59,
      "hit": false,
      "t": 77309.53807499974,
      "d": 492.3072000000102,
      "v": 92
    },
    {
      "midi": 55,
      "hit": false,
      "t": 77311.46114999974,
      "d": 503.8456500000175,
      "v": 79
    },
    {
      "midi": 62,
      "hit": false,
      "t": 77312.42268749974,
      "d": 488.4610500000126,
      "v": 101
    },
    {
      "midi": 62,
      "hit": false,
      "t": 77538.38399999999,
      "d": 225.96131250000326,
      "v": 72
    },
    {
      "midi": 59,
      "hit": false,
      "t": 77538.38399999999,
      "d": 225.96131250000326,
      "v": 68
    },
    {
      "midi": 55,
      "hit": false,
      "t": 77538.38399999999,
      "d": 225.96131250000326,
      "v": 73
    },
    {
      "midi": 55,
      "hit": false,
      "t": 77538.38399999999,
      "d": 225.96131250000326,
      "v": 97
    },
    {
      "midi": 67,
      "hit": false,
      "t": 77538.38399999999,
      "d": 225.96131250000326,
      "v": 99
    },
    {
      "midi": 42,
      "hit": false,
      "t": 77538.38400000005,
      "d": 225.96131250000326,
      "v": 92
    },
    {
      "midi": 36,
      "hit": false,
      "t": 77538.38400000005,
      "d": 456.7303125000035,
      "v": 110
    },
    {
      "midi": 43,
      "hit": false,
      "t": 77538.38400000006,
      "d": 456.7303125000035,
      "v": 104
    },
    {
      "midi": 50,
      "hit": false,
      "t": 77538.38400000006,
      "d": 225.96131250000326,
      "v": 97
    },
    {
      "midi": 43,
      "hit": false,
      "t": 77538.38400000006,
      "d": 225.96131250000326,
      "v": 99
    },
    {
      "midi": 62,
      "hit": false,
      "t": 77769.15299999999,
      "d": 225.96131250000326,
      "v": 68
    },
    {
      "midi": 59,
      "hit": false,
      "t": 77769.15299999999,
      "d": 225.96131250000326,
      "v": 66
    },
    {
      "midi": 55,
      "hit": false,
      "t": 77769.15299999999,
      "d": 225.96131250000326,
      "v": 74
    },
    {
      "midi": 67,
      "hit": false,
      "t": 77769.15299999999,
      "d": 225.96131250000326,
      "v": 92
    },
    {
      "midi": 55,
      "hit": false,
      "t": 77769.15299999999,
      "d": 225.96131250000326,
      "v": 92
    },
    {
      "midi": 42,
      "hit": false,
      "t": 77769.15300000005,
      "d": 225.96131250000326,
      "v": 60
    },
    {
      "midi": 50,
      "hit": false,
      "t": 77769.15300000006,
      "d": 225.96131250000326,
      "v": 97
    },
    {
      "midi": 43,
      "hit": false,
      "t": 77769.15300000006,
      "d": 225.96131250000326,
      "v": 99
    },
    {
      "midi": 59,
      "hit": false,
      "t": 77862.42213749976,
      "d": 89.42298750000191,
      "v": 78
    },
    {
      "midi": 55,
      "hit": false,
      "t": 77863.38367499976,
      "d": 90.3845250000013,
      "v": 79
    },
    {
      "midi": 62,
      "hit": false,
      "t": 77882.61442499976,
      "d": 70.19223749999946,
      "v": 92
    },
    {
      "midi": 62,
      "hit": false,
      "t": 77999.92199999999,
      "d": 225.96131250000326,
      "v": 79
    },
    {
      "midi": 59,
      "hit": false,
      "t": 77999.92199999999,
      "d": 225.96131250000326,
      "v": 75
    },
    {
      "midi": 57,
      "hit": false,
      "t": 77999.92199999999,
      "d": 225.96131250000326,
      "v": 75
    },
    {
      "midi": 69,
      "hit": false,
      "t": 77999.92199999999,
      "d": 225.96131250000326,
      "v": 86
    },
    {
      "midi": 57,
      "hit": false,
      "t": 77999.92199999999,
      "d": 225.96131250000326,
      "v": 97
    },
    {
      "midi": 38,
      "hit": false,
      "t": 77999.92200000005,
      "d": 225.96131250000326,
      "v": 110
    },
    {
      "midi": 42,
      "hit": false,
      "t": 77999.92200000005,
      "d": 225.96131250000326,
      "v": 66
    },
    {
      "midi": 43,
      "hit": false,
      "t": 77999.92200000006,
      "d": 225.96131250000326,
      "v": 104
    },
    {
      "midi": 52,
      "hit": false,
      "t": 77999.92200000006,
      "d": 225.96131250000326,
      "v": 92
    },
    {
      "midi": 55,
      "hit": false,
      "t": 78053.76809999975,
      "d": 131.73063750000438,
      "v": 71
    },
    {
      "midi": 64,
      "hit": false,
      "t": 78054.72963749975,
      "d": 102.88451250000799,
      "v": 67
    },
    {
      "midi": 60,
      "hit": false,
      "t": 78055.69117499975,
      "d": 102.88451250000799,
      "v": 92
    },
    {
      "midi": 62,
      "hit": false,
      "t": 78056.65271249975,
      "d": 88.46145000000251,
      "v": 90
    },
    {
      "midi": 62,
      "hit": false,
      "t": 78230.69099999999,
      "d": 687.4993125000037,
      "v": 78
    },
    {
      "midi": 59,
      "hit": false,
      "t": 78230.69099999999,
      "d": 687.4993125000037,
      "v": 72
    },
    {
      "midi": 55,
      "hit": false,
      "t": 78230.69099999999,
      "d": 687.4993125000037,
      "v": 66
    },
    {
      "midi": 55,
      "hit": false,
      "t": 78230.69099999999,
      "d": 687.4993125000037,
      "v": 88
    },
    {
      "midi": 67,
      "hit": false,
      "t": 78230.69099999999,
      "d": 687.4993125000037,
      "v": 97
    },
    {
      "midi": 36,
      "hit": false,
      "t": 78230.69100000005,
      "d": 225.96131250000326,
      "v": 104
    },
    {
      "midi": 42,
      "hit": false,
      "t": 78230.69100000005,
      "d": 225.96131250000326,
      "v": 62
    },
    {
      "midi": 43,
      "hit": false,
      "t": 78230.69100000006,
      "d": 225.96131250000326,
      "v": 110
    },
    {
      "midi": 50,
      "hit": false,
      "t": 78230.69100000006,
      "d": 225.96131250000326,
      "v": 97
    },
    {
      "midi": 43,
      "hit": false,
      "t": 78230.69100000006,
      "d": 225.96131250000326,
      "v": 101
    },
    {
      "midi": 55,
      "hit": false,
      "t": 78259.53712499976,
      "d": 1331.7294375000492,
      "v": 66
    },
    {
      "midi": 59,
      "hit": false,
      "t": 78260.49866249975,
      "d": 569.23020000002,
      "v": 86
    },
    {
      "midi": 62,
      "hit": false,
      "t": 78261.46019999975,
      "d": 542.3071500000224,
      "v": 94
    },
    {
      "midi": 42,
      "hit": false,
      "t": 78461.46000000005,
      "d": 225.96131250000326,
      "v": 86
    },
    {
      "midi": 36,
      "hit": false,
      "t": 78461.46000000005,
      "d": 456.7303125000035,
      "v": 110
    },
    {
      "midi": 43,
      "hit": false,
      "t": 78461.46000000006,
      "d": 456.7303125000035,
      "v": 110
    },
    {
      "midi": 50,
      "hit": false,
      "t": 78461.46000000006,
      "d": 225.96131250000326,
      "v": 90
    },
    {
      "midi": 43,
      "hit": false,
      "t": 78461.46000000006,
      "d": 225.96131250000326,
      "v": 99
    },
    {
      "midi": 42,
      "hit": false,
      "t": 78692.22900000005,
      "d": 225.96131250000326,
      "v": 75
    },
    {
      "midi": 50,
      "hit": false,
      "t": 78692.22900000006,
      "d": 225.96131250000326,
      "v": 90
    },
    {
      "midi": 43,
      "hit": false,
      "t": 78692.22900000006,
      "d": 225.96131250000326,
      "v": 99
    },
    {
      "midi": 59,
      "hit": false,
      "t": 78912.42108749978,
      "d": 49.03841250001278,
      "v": 68
    },
    {
      "midi": 64,
      "hit": false,
      "t": 78912.42108749978,
      "d": 225.9613125000178,
      "v": 107
    },
    {
      "midi": 59,
      "hit": false,
      "t": 78922.99799999999,
      "d": 225.96131250000326,
      "v": 67
    },
    {
      "midi": 64,
      "hit": false,
      "t": 78922.99799999999,
      "d": 225.96131250000326,
      "v": 66
    },
    {
      "midi": 55,
      "hit": false,
      "t": 78922.99799999999,
      "d": 225.96131250000326,
      "v": 76
    },
    {
      "midi": 64,
      "hit": false,
      "t": 78922.99799999999,
      "d": 225.96131250000326,
      "v": 92
    },
    {
      "midi": 52,
      "hit": false,
      "t": 78922.99799999999,
      "d": 225.96131250000326,
      "v": 85
    },
    {
      "midi": 38,
      "hit": false,
      "t": 78922.99800000005,
      "d": 225.96131250000326,
      "v": 107
    },
    {
      "midi": 42,
      "hit": false,
      "t": 78922.99800000005,
      "d": 225.96131250000326,
      "v": 69
    },
    {
      "midi": 43,
      "hit": false,
      "t": 78922.99800000007,
      "d": 225.96131250000326,
      "v": 97
    },
    {
      "midi": 52,
      "hit": false,
      "t": 78922.99800000007,
      "d": 225.96131250000326,
      "v": 85
    },
    {
      "midi": 62,
      "hit": false,
      "t": 79151.8439249998,
      "d": 629.8070624999964,
      "v": 110
    },
    {
      "midi": 55,
      "hit": false,
      "t": 79153.76699999999,
      "d": 923.0760000000009,
      "v": 64
    },
    {
      "midi": 59,
      "hit": false,
      "t": 79153.76699999999,
      "d": 923.0760000000009,
      "v": 61
    },
    {
      "midi": 62,
      "hit": false,
      "t": 79153.76699999999,
      "d": 923.0760000000009,
      "v": 66
    },
    {
      "midi": 50,
      "hit": false,
      "t": 79153.76699999999,
      "d": 918.268312500004,
      "v": 94
    },
    {
      "midi": 62,
      "hit": false,
      "t": 79153.76699999999,
      "d": 918.268312500004,
      "v": 94
    },
    {
      "midi": 36,
      "hit": false,
      "t": 79153.76700000005,
      "d": 225.96131250000326,
      "v": 97
    },
    {
      "midi": 42,
      "hit": false,
      "t": 79153.76700000005,
      "d": 225.96131250000326,
      "v": 79
    },
    {
      "midi": 43,
      "hit": false,
      "t": 79153.76700000007,
      "d": 225.96131250000326,
      "v": 110
    },
    {
      "midi": 50,
      "hit": false,
      "t": 79153.76700000007,
      "d": 225.96131250000326,
      "v": 92
    },
    {
      "midi": 43,
      "hit": false,
      "t": 79153.76700000007,
      "d": 225.96131250000326,
      "v": 99
    },
    {
      "midi": 42,
      "hit": false,
      "t": 79384.53600000005,
      "d": 225.96131250000326,
      "v": 96
    },
    {
      "midi": 36,
      "hit": false,
      "t": 79384.53600000005,
      "d": 456.7303125000035,
      "v": 113
    },
    {
      "midi": 43,
      "hit": false,
      "t": 79384.53600000007,
      "d": 456.7303125000035,
      "v": 104
    },
    {
      "midi": 50,
      "hit": false,
      "t": 79384.53600000007,
      "d": 225.96131250000326,
      "v": 85
    },
    {
      "midi": 43,
      "hit": false,
      "t": 79384.53600000007,
      "d": 225.96131250000326,
      "v": 97
    },
    {
      "midi": 42,
      "hit": false,
      "t": 79615.30500000005,
      "d": 225.96131250000326,
      "v": 77
    },
    {
      "midi": 50,
      "hit": false,
      "t": 79615.30500000007,
      "d": 225.96131250000326,
      "v": 88
    },
    {
      "midi": 43,
      "hit": false,
      "t": 79615.30500000007,
      "d": 225.96131250000326,
      "v": 99
    },
    {
      "midi": 55,
      "hit": false,
      "t": 79689.3433874998,
      "d": 768.2684625000547,
      "v": 90
    },
    {
      "midi": 38,
      "hit": false,
      "t": 79846.07400000005,
      "d": 225.96131250000326,
      "v": 113
    },
    {
      "midi": 42,
      "hit": false,
      "t": 79846.07400000005,
      "d": 225.96131250000326,
      "v": 71
    },
    {
      "midi": 43,
      "hit": false,
      "t": 79846.07400000007,
      "d": 225.96131250000326,
      "v": 99
    },
    {
      "midi": 52,
      "hit": false,
      "t": 79846.07400000007,
      "d": 225.96131250000326,
      "v": 86
    },
    {
      "midi": 59,
      "hit": false,
      "t": 79881.65088749981,
      "d": 164.42291250002745,
      "v": 75
    },
    {
      "midi": 62,
      "hit": false,
      "t": 79897.03548749982,
      "d": 110.5768125000177,
      "v": 88
    },
    {
      "midi": 60,
      "hit": false,
      "t": 79915.30469999982,
      "d": 79.80761250000796,
      "v": 75
    },
    {
      "midi": 36,
      "hit": false,
      "t": 80076.84300000005,
      "d": 225.96131250000326,
      "v": 104
    },
    {
      "midi": 42,
      "hit": false,
      "t": 80076.84300000005,
      "d": 225.96131250000326,
      "v": 73
    },
    {
      "midi": 43,
      "hit": false,
      "t": 80076.84300000007,
      "d": 225.96131250000326,
      "v": 101
    },
    {
      "midi": 50,
      "hit": false,
      "t": 80076.84300000007,
      "d": 225.96131250000326,
      "v": 92
    },
    {
      "midi": 43,
      "hit": false,
      "t": 80076.84300000007,
      "d": 225.96131250000326,
      "v": 94
    },
    {
      "midi": 59,
      "hit": false,
      "t": 80096.07374999984,
      "d": 143.26908750001166,
      "v": 66
    },
    {
      "midi": 62,
      "hit": false,
      "t": 80097.03528749984,
      "d": 127.8844875000068,
      "v": 82
    },
    {
      "midi": 62,
      "hit": false,
      "t": 80300.88123749985,
      "d": 94.23067499999888,
      "v": 74
    },
    {
      "midi": 59,
      "hit": false,
      "t": 80301.84277499985,
      "d": 80.7691499999928,
      "v": 61
    },
    {
      "midi": 42,
      "hit": false,
      "t": 80307.61200000005,
      "d": 225.96131250000326,
      "v": 84
    },
    {
      "midi": 36,
      "hit": false,
      "t": 80307.61200000005,
      "d": 456.7303125000035,
      "v": 110
    },
    {
      "midi": 43,
      "hit": false,
      "t": 80307.61200000007,
      "d": 225.96131250000326,
      "v": 117
    },
    {
      "midi": 50,
      "hit": false,
      "t": 80307.61200000007,
      "d": 225.96131250000326,
      "v": 85
    },
    {
      "midi": 43,
      "hit": false,
      "t": 80307.61200000007,
      "d": 225.96131250000326,
      "v": 92
    },
    {
      "midi": 42,
      "hit": false,
      "t": 80538.38100000005,
      "d": 225.96131250000326,
      "v": 81
    },
    {
      "midi": 43,
      "hit": false,
      "t": 80538.38100000007,
      "d": 225.96131250000326,
      "v": 101
    },
    {
      "midi": 50,
      "hit": false,
      "t": 80538.38100000007,
      "d": 225.96131250000326,
      "v": 83
    },
    {
      "midi": 43,
      "hit": false,
      "t": 80538.38100000007,
      "d": 225.96131250000326,
      "v": 94
    },
    {
      "midi": 55,
      "hit": false,
      "t": 80567.22712499986,
      "d": 88.46145000000251,
      "v": 66
    },
    {
      "midi": 59,
      "hit": false,
      "t": 80582.61172499986,
      "d": 59.61532499999157,
      "v": 92
    },
    {
      "midi": 62,
      "hit": false,
      "t": 80583.57326249986,
      "d": 57.69224999999278,
      "v": 94
    },
    {
      "midi": 55,
      "hit": false,
      "t": 80743.18848749987,
      "d": 203.84595000001718,
      "v": 68
    },
    {
      "midi": 60,
      "hit": false,
      "t": 80760.49616249987,
      "d": 136.5383250000159,
      "v": 88
    },
    {
      "midi": 64,
      "hit": false,
      "t": 80761.45769999987,
      "d": 123.07680000000983,
      "v": 92
    },
    {
      "midi": 38,
      "hit": false,
      "t": 80769.15000000005,
      "d": 225.96131250000326,
      "v": 113
    },
    {
      "midi": 42,
      "hit": false,
      "t": 80769.15000000005,
      "d": 225.96131250000326,
      "v": 86
    },
    {
      "midi": 40,
      "hit": false,
      "t": 80769.15000000007,
      "d": 225.96131250000326,
      "v": 110
    },
    {
      "midi": 43,
      "hit": false,
      "t": 80769.15000000007,
      "d": 225.96131250000326,
      "v": 99
    },
    {
      "midi": 52,
      "hit": false,
      "t": 80769.15000000007,
      "d": 225.96131250000326,
      "v": 92
    },
    {
      "midi": 62,
      "hit": false,
      "t": 80997.99592499988,
      "d": 549.0379125000327,
      "v": 99
    },
    {
      "midi": 55,
      "hit": false,
      "t": 80997.99592499988,
      "d": 550.9609875000315,
      "v": 54
    },
    {
      "midi": 59,
      "hit": false,
      "t": 80998.95746249988,
      "d": 550.9609875000315,
      "v": 94
    },
    {
      "midi": 36,
      "hit": false,
      "t": 80999.91900000005,
      "d": 225.96131250000326,
      "v": 113
    },
    {
      "midi": 46,
      "hit": false,
      "t": 80999.91900000005,
      "d": 225.96131250000326,
      "v": 79
    },
    {
      "midi": 38,
      "hit": false,
      "t": 80999.91900000007,
      "d": 225.96131250000326,
      "v": 120
    },
    {
      "midi": 43,
      "hit": false,
      "t": 80999.91900000007,
      "d": 225.96131250000326,
      "v": 97
    },
    {
      "midi": 50,
      "hit": false,
      "t": 80999.91900000007,
      "d": 225.96131250000326,
      "v": 90
    },
    {
      "midi": 62,
      "hit": false,
      "t": 81230.688,
      "d": 225.96131250000326,
      "v": 80
    },
    {
      "midi": 59,
      "hit": false,
      "t": 81230.688,
      "d": 225.96131250000326,
      "v": 73
    },
    {
      "midi": 55,
      "hit": false,
      "t": 81230.688,
      "d": 225.96131250000326,
      "v": 75
    },
    {
      "midi": 74,
      "hit": false,
      "t": 81230.688,
      "d": 225.96131250000326,
      "v": 97
    },
    {
      "midi": 62,
      "hit": false,
      "t": 81230.688,
      "d": 225.96131250000326,
      "v": 92
    },
    {
      "midi": 71,
      "hit": false,
      "t": 81230.688,
      "d": 225.96131250000326,
      "v": 94
    },
    {
      "midi": 42,
      "hit": false,
      "t": 81230.68800000005,
      "d": 225.96131250000326,
      "v": 89
    },
    {
      "midi": 36,
      "hit": false,
      "t": 81230.68800000005,
      "d": 456.7303125000035,
      "v": 113
    },
    {
      "midi": 43,
      "hit": false,
      "t": 81230.68800000007,
      "d": 456.7303125000035,
      "v": 104
    },
    {
      "midi": 50,
      "hit": false,
      "t": 81230.68800000007,
      "d": 225.96131250000326,
      "v": 86
    },
    {
      "midi": 43,
      "hit": false,
      "t": 81230.68800000007,
      "d": 225.96131250000326,
      "v": 97
    },
    {
      "midi": 62,
      "hit": false,
      "t": 81461.457,
      "d": 225.96131250000326,
      "v": 74
    },
    {
      "midi": 55,
      "hit": false,
      "t": 81461.457,
      "d": 225.96131250000326,
      "v": 69
    },
    {
      "midi": 59,
      "hit": false,
      "t": 81461.457,
      "d": 225.96131250000326,
      "v": 67
    },
    {
      "midi": 74,
      "hit": false,
      "t": 81461.457,
      "d": 225.96131250000326,
      "v": 101
    },
    {
      "midi": 62,
      "hit": false,
      "t": 81461.457,
      "d": 225.96131250000326,
      "v": 97
    },
    {
      "midi": 71,
      "hit": false,
      "t": 81461.457,
      "d": 225.96131250000326,
      "v": 94
    },
    {
      "midi": 42,
      "hit": false,
      "t": 81461.45700000005,
      "d": 225.96131250000326,
      "v": 81
    },
    {
      "midi": 50,
      "hit": false,
      "t": 81461.45700000007,
      "d": 225.96131250000326,
      "v": 90
    },
    {
      "midi": 43,
      "hit": false,
      "t": 81461.45700000007,
      "d": 225.96131250000326,
      "v": 94
    },
    {
      "midi": 55,
      "hit": false,
      "t": 81673.9567874999,
      "d": 175.9613625000202,
      "v": 78
    },
    {
      "midi": 60,
      "hit": false,
      "t": 81689.34138749991,
      "d": 147.11523750000924,
      "v": 88
    },
    {
      "midi": 64,
      "hit": false,
      "t": 81690.30292499991,
      "d": 131.73063750000438,
      "v": 82
    },
    {
      "midi": 55,
      "hit": false,
      "t": 81692.226,
      "d": 225.96131250000326,
      "v": 73
    },
    {
      "midi": 64,
      "hit": false,
      "t": 81692.226,
      "d": 225.96131250000326,
      "v": 72
    },
    {
      "midi": 60,
      "hit": false,
      "t": 81692.226,
      "d": 225.96131250000326,
      "v": 72
    },
    {
      "midi": 76,
      "hit": false,
      "t": 81692.226,
      "d": 225.96131250000326,
      "v": 107
    },
    {
      "midi": 64,
      "hit": false,
      "t": 81692.226,
      "d": 225.96131250000326,
      "v": 99
    },
    {
      "midi": 72,
      "hit": false,
      "t": 81692.226,
      "d": 225.96131250000326,
      "v": 99
    },
    {
      "midi": 42,
      "hit": false,
      "t": 81692.22600000005,
      "d": 225.96131250000326,
      "v": 84
    },
    {
      "midi": 38,
      "hit": false,
      "t": 81692.22600000005,
      "d": 225.96131250000326,
      "v": 113
    },
    {
      "midi": 43,
      "hit": false,
      "t": 81692.22600000007,
      "d": 225.96131250000326,
      "v": 97
    },
    {
      "midi": 52,
      "hit": false,
      "t": 81692.22600000007,
      "d": 225.96131250000326,
      "v": 85
    },
    {
      "midi": 62,
      "hit": false,
      "t": 81922.995,
      "d": 918.268312500004,
      "v": 85
    },
    {
      "midi": 59,
      "hit": false,
      "t": 81922.995,
      "d": 918.268312500004,
      "v": 80
    },
    {
      "midi": 55,
      "hit": false,
      "t": 81922.995,
      "d": 918.268312500004,
      "v": 82
    },
    {
      "midi": 74,
      "hit": false,
      "t": 81922.995,
      "d": 918.268312500004,
      "v": 92
    },
    {
      "midi": 62,
      "hit": false,
      "t": 81922.995,
      "d": 918.268312500004,
      "v": 99
    },
    {
      "midi": 71,
      "hit": false,
      "t": 81922.995,
      "d": 918.268312500004,
      "v": 99
    },
    {
      "midi": 42,
      "hit": false,
      "t": 81922.99500000005,
      "d": 225.96131250000326,
      "v": 86
    },
    {
      "midi": 36,
      "hit": false,
      "t": 81922.99500000005,
      "d": 225.96131250000326,
      "v": 123
    },
    {
      "midi": 43,
      "hit": false,
      "t": 81922.99500000007,
      "d": 225.96131250000326,
      "v": 110
    },
    {
      "midi": 50,
      "hit": false,
      "t": 81922.99500000007,
      "d": 225.96131250000326,
      "v": 90
    },
    {
      "midi": 43,
      "hit": false,
      "t": 81922.99500000007,
      "d": 225.96131250000326,
      "v": 94
    },
    {
      "midi": 59,
      "hit": false,
      "t": 81935.49498749993,
      "d": 368.26886250001553,
      "v": 76
    },
    {
      "midi": 62,
      "hit": false,
      "t": 81952.80266249993,
      "d": 349.0381125000131,
      "v": 90
    },
    {
      "midi": 55,
      "hit": false,
      "t": 81953.76419999993,
      "d": 335.576587500007,
      "v": 72
    },
    {
      "midi": 42,
      "hit": false,
      "t": 82153.76400000005,
      "d": 225.96131250000326,
      "v": 92
    },
    {
      "midi": 36,
      "hit": false,
      "t": 82153.76400000005,
      "d": 456.7303125000035,
      "v": 110
    },
    {
      "midi": 43,
      "hit": false,
      "t": 82153.76400000007,
      "d": 456.7303125000035,
      "v": 110
    },
    {
      "midi": 50,
      "hit": false,
      "t": 82153.76400000007,
      "d": 225.96131250000326,
      "v": 86
    },
    {
      "midi": 43,
      "hit": false,
      "t": 82153.76400000007,
      "d": 225.96131250000326,
      "v": 97
    },
    {
      "midi": 46,
      "hit": false,
      "t": 82384.53300000005,
      "d": 225.96131250000326,
      "v": 89
    },
    {
      "midi": 50,
      "hit": false,
      "t": 82384.53300000007,
      "d": 225.96131250000326,
      "v": 85
    },
    {
      "midi": 43,
      "hit": false,
      "t": 82384.53300000007,
      "d": 225.96131250000326,
      "v": 97
    },
    {
      "midi": 55,
      "hit": false,
      "t": 82402.80221249994,
      "d": 111.53835000000254,
      "v": 82
    },
    {
      "midi": 59,
      "hit": false,
      "t": 82403.76374999994,
      "d": 109.61527500000375,
      "v": 79
    },
    {
      "midi": 62,
      "hit": false,
      "t": 82404.72528749994,
      "d": 95.19221249999828,
      "v": 86
    },
    {
      "midi": 42,
      "hit": false,
      "t": 82615.30200000005,
      "d": 225.96131250000326,
      "v": 92
    },
    {
      "midi": 38,
      "hit": false,
      "t": 82615.30200000005,
      "d": 225.96131250000326,
      "v": 110
    },
    {
      "midi": 43,
      "hit": false,
      "t": 82615.30200000007,
      "d": 225.96131250000326,
      "v": 99
    },
    {
      "midi": 52,
      "hit": false,
      "t": 82615.30200000007,
      "d": 225.96131250000326,
      "v": 85
    },
    {
      "midi": 55,
      "hit": false,
      "t": 82625.87891249995,
      "d": 151.92292499999166,
      "v": 75
    },
    {
      "midi": 60,
      "hit": false,
      "t": 82626.84044999995,
      "d": 124.03833749999467,
      "v": 85
    },
    {
      "midi": 64,
      "hit": false,
      "t": 82647.03273749995,
      "d": 102.88451249999343,
      "v": 85
    },
    {
      "midi": 42,
      "hit": false,
      "t": 82846.07100000005,
      "d": 225.96131250000326,
      "v": 79
    },
    {
      "midi": 36,
      "hit": false,
      "t": 82846.07100000005,
      "d": 225.96131250000326,
      "v": 120
    },
    {
      "midi": 43,
      "hit": false,
      "t": 82846.07100000007,
      "d": 225.96131250000326,
      "v": 110
    },
    {
      "midi": 50,
      "hit": false,
      "t": 82846.07100000007,
      "d": 225.96131250000326,
      "v": 86
    },
    {
      "midi": 43,
      "hit": false,
      "t": 82846.07100000007,
      "d": 225.96131250000326,
      "v": 94
    },
    {
      "midi": 59,
      "hit": false,
      "t": 82863.37867499994,
      "d": 562.4994375000097,
      "v": 83
    },
    {
      "midi": 62,
      "hit": false,
      "t": 82864.34021249994,
      "d": 562.4994375000097,
      "v": 94
    },
    {
      "midi": 55,
      "hit": false,
      "t": 82864.34021249994,
      "d": 575.9609625000157,
      "v": 72
    },
    {
      "midi": 62,
      "hit": false,
      "t": 83076.84,
      "d": 225.96131250000326,
      "v": 75
    },
    {
      "midi": 59,
      "hit": false,
      "t": 83076.84,
      "d": 225.96131250000326,
      "v": 67
    },
    {
      "midi": 55,
      "hit": false,
      "t": 83076.84,
      "d": 225.96131250000326,
      "v": 71
    },
    {
      "midi": 71,
      "hit": false,
      "t": 83076.84,
      "d": 225.96131250000326,
      "v": 90
    },
    {
      "midi": 67,
      "hit": false,
      "t": 83076.84,
      "d": 225.96131250000326,
      "v": 97
    },
    {
      "midi": 59,
      "hit": false,
      "t": 83076.84,
      "d": 225.96131250000326,
      "v": 94
    },
    {
      "midi": 42,
      "hit": false,
      "t": 83076.84000000005,
      "d": 225.96131250000326,
      "v": 89
    },
    {
      "midi": 36,
      "hit": false,
      "t": 83076.84000000005,
      "d": 456.7303125000035,
      "v": 113
    },
    {
      "midi": 43,
      "hit": false,
      "t": 83076.84000000007,
      "d": 456.7303125000035,
      "v": 104
    },
    {
      "midi": 50,
      "hit": false,
      "t": 83076.84000000007,
      "d": 225.96131250000326,
      "v": 86
    },
    {
      "midi": 43,
      "hit": false,
      "t": 83076.84000000007,
      "d": 225.96131250000326,
      "v": 94
    },
    {
      "midi": 62,
      "hit": false,
      "t": 83307.609,
      "d": 225.96131250000326,
      "v": 75
    },
    {
      "midi": 55,
      "hit": false,
      "t": 83307.609,
      "d": 225.96131250000326,
      "v": 74
    },
    {
      "midi": 59,
      "hit": false,
      "t": 83307.609,
      "d": 225.96131250000326,
      "v": 68
    },
    {
      "midi": 71,
      "hit": false,
      "t": 83307.609,
      "d": 225.96131250000326,
      "v": 101
    },
    {
      "midi": 59,
      "hit": false,
      "t": 83307.609,
      "d": 225.96131250000326,
      "v": 99
    },
    {
      "midi": 67,
      "hit": false,
      "t": 83307.609,
      "d": 225.96131250000326,
      "v": 99
    },
    {
      "midi": 42,
      "hit": false,
      "t": 83307.60900000005,
      "d": 225.96131250000326,
      "v": 66
    },
    {
      "midi": 50,
      "hit": false,
      "t": 83307.60900000007,
      "d": 225.96131250000326,
      "v": 85
    },
    {
      "midi": 43,
      "hit": false,
      "t": 83307.60900000007,
      "d": 225.96131250000326,
      "v": 99
    },
    {
      "midi": 55,
      "hit": false,
      "t": 83516.26263749995,
      "d": 137.4998625000153,
      "v": 51
    },
    {
      "midi": 60,
      "hit": false,
      "t": 83531.64723749996,
      "d": 108.65373750000435,
      "v": 75
    },
    {
      "midi": 64,
      "hit": false,
      "t": 83532.60877499996,
      "d": 95.19221249999828,
      "v": 83
    },
    {
      "midi": 64,
      "hit": false,
      "t": 83538.378,
      "d": 225.96131250000326,
      "v": 74
    },
    {
      "midi": 60,
      "hit": false,
      "t": 83538.378,
      "d": 225.96131250000326,
      "v": 68
    },
    {
      "midi": 55,
      "hit": false,
      "t": 83538.378,
      "d": 225.96131250000326,
      "v": 74
    },
    {
      "midi": 72,
      "hit": false,
      "t": 83538.378,
      "d": 225.96131250000326,
      "v": 97
    },
    {
      "midi": 69,
      "hit": false,
      "t": 83538.378,
      "d": 225.96131250000326,
      "v": 94
    },
    {
      "midi": 60,
      "hit": false,
      "t": 83538.378,
      "d": 225.96131250000326,
      "v": 99
    },
    {
      "midi": 38,
      "hit": false,
      "t": 83538.37800000006,
      "d": 225.96131250000326,
      "v": 107
    },
    {
      "midi": 42,
      "hit": false,
      "t": 83538.37800000006,
      "d": 225.96131250000326,
      "v": 62
    },
    {
      "midi": 52,
      "hit": false,
      "t": 83538.37800000007,
      "d": 225.96131250000326,
      "v": 85
    },
    {
      "midi": 43,
      "hit": false,
      "t": 83538.37800000007,
      "d": 225.96131250000326,
      "v": 99
    },
    {
      "midi": 59,
      "hit": false,
      "t": 83752.80086249996,
      "d": 402.8842125000083,
      "v": 85
    },
    {
      "midi": 55,
      "hit": false,
      "t": 83769.147,
      "d": 918.268312500004,
      "v": 76
    },
    {
      "midi": 62,
      "hit": false,
      "t": 83769.147,
      "d": 918.268312500004,
      "v": 82
    },
    {
      "midi": 59,
      "hit": false,
      "t": 83769.147,
      "d": 918.268312500004,
      "v": 72
    },
    {
      "midi": 71,
      "hit": false,
      "t": 83769.147,
      "d": 918.268312500004,
      "v": 94
    },
    {
      "midi": 59,
      "hit": false,
      "t": 83769.147,
      "d": 918.268312500004,
      "v": 99
    },
    {
      "midi": 67,
      "hit": false,
      "t": 83769.147,
      "d": 918.268312500004,
      "v": 99
    },
    {
      "midi": 36,
      "hit": false,
      "t": 83769.14700000006,
      "d": 225.96131250000326,
      "v": 110
    },
    {
      "midi": 42,
      "hit": false,
      "t": 83769.14700000006,
      "d": 225.96131250000326,
      "v": 59
    },
    {
      "midi": 43,
      "hit": false,
      "t": 83769.14700000007,
      "d": 225.96131250000326,
      "v": 101
    },
    {
      "midi": 50,
      "hit": false,
      "t": 83769.14700000007,
      "d": 225.96131250000326,
      "v": 86
    },
    {
      "midi": 43,
      "hit": false,
      "t": 83769.14700000007,
      "d": 225.96131250000326,
      "v": 99
    },
    {
      "midi": 55,
      "hit": false,
      "t": 83770.10853749997,
      "d": 373.07654999999795,
      "v": 69
    },
    {
      "midi": 62,
      "hit": false,
      "t": 83771.07007499997,
      "d": 347.11503749999974,
      "v": 94
    },
    {
      "midi": 42,
      "hit": false,
      "t": 83999.91600000006,
      "d": 225.96131250000326,
      "v": 96
    },
    {
      "midi": 36,
      "hit": false,
      "t": 83999.91600000006,
      "d": 456.7303125000035,
      "v": 117
    },
    {
      "midi": 43,
      "hit": false,
      "t": 83999.91600000007,
      "d": 225.96131250000326,
      "v": 117
    },
    {
      "midi": 50,
      "hit": false,
      "t": 83999.91600000007,
      "d": 225.96131250000326,
      "v": 86
    },
    {
      "midi": 43,
      "hit": false,
      "t": 83999.91600000007,
      "d": 225.96131250000326,
      "v": 94
    },
    {
      "midi": 42,
      "hit": false,
      "t": 84230.68500000006,
      "d": 225.96131250000326,
      "v": 79
    },
    {
      "midi": 43,
      "hit": false,
      "t": 84230.68500000007,
      "d": 225.96131250000326,
      "v": 101
    },
    {
      "midi": 50,
      "hit": false,
      "t": 84230.68500000007,
      "d": 225.96131250000326,
      "v": 85
    },
    {
      "midi": 43,
      "hit": false,
      "t": 84230.68500000007,
      "d": 225.96131250000326,
      "v": 92
    },
    {
      "midi": 59,
      "hit": false,
      "t": 84231.64653749997,
      "d": 159.61522500000137,
      "v": 66
    },
    {
      "midi": 55,
      "hit": false,
      "t": 84247.99267499997,
      "d": 117.3075749999989,
      "v": 55
    },
    {
      "midi": 62,
      "hit": false,
      "t": 84263.37727499998,
      "d": 102.88451249999343,
      "v": 86
    },
    {
      "midi": 38,
      "hit": false,
      "t": 84461.45400000006,
      "d": 225.96131250000326,
      "v": 107
    },
    {
      "midi": 42,
      "hit": false,
      "t": 84461.45400000006,
      "d": 225.96131250000326,
      "v": 64
    },
    {
      "midi": 40,
      "hit": false,
      "t": 84461.45400000007,
      "d": 225.96131250000326,
      "v": 110
    },
    {
      "midi": 43,
      "hit": false,
      "t": 84461.45400000007,
      "d": 225.96131250000326,
      "v": 83
    },
    {
      "midi": 52,
      "hit": false,
      "t": 84461.45400000007,
      "d": 225.96131250000326,
      "v": 94
    },
    {
      "midi": 59,
      "hit": false,
      "t": 84478.76167499997,
      "d": 135.57678750000196,
      "v": 74
    },
    {
      "midi": 55,
      "hit": false,
      "t": 84479.72321249997,
      "d": 147.11523750000924,
      "v": 62
    },
    {
      "midi": 64,
      "hit": false,
      "t": 84497.99242499997,
      "d": 102.88451249999343,
      "v": 86
    },
    {
      "midi": 36,
      "hit": false,
      "t": 84692.22300000006,
      "d": 225.96131250000326,
      "v": 99
    },
    {
      "midi": 42,
      "hit": false,
      "t": 84692.22300000006,
      "d": 225.96131250000326,
      "v": 77
    },
    {
      "midi": 38,
      "hit": false,
      "t": 84692.22300000007,
      "d": 225.96131250000326,
      "v": 120
    },
    {
      "midi": 43,
      "hit": false,
      "t": 84692.22300000007,
      "d": 225.96131250000326,
      "v": 85
    },
    {
      "midi": 50,
      "hit": false,
      "t": 84692.22300000007,
      "d": 225.96131250000326,
      "v": 88
    },
    {
      "midi": 59,
      "hit": false,
      "t": 84702.79991249998,
      "d": 136.53832500000135,
      "v": 71
    },
    {
      "midi": 55,
      "hit": false,
      "t": 84703.76144999998,
      "d": 133.65371250000317,
      "v": 63
    },
    {
      "midi": 62,
      "hit": false,
      "t": 84704.72298749998,
      "d": 133.65371250000317,
      "v": 86
    },
    {
      "midi": 62,
      "hit": false,
      "t": 84922.992,
      "d": 225.96131250000326,
      "v": 72
    },
    {
      "midi": 59,
      "hit": false,
      "t": 84922.992,
      "d": 225.96131250000326,
      "v": 68
    },
    {
      "midi": 55,
      "hit": false,
      "t": 84922.992,
      "d": 225.96131250000326,
      "v": 73
    },
    {
      "midi": 55,
      "hit": false,
      "t": 84922.992,
      "d": 225.96131250000326,
      "v": 97
    },
    {
      "midi": 67,
      "hit": false,
      "t": 84922.992,
      "d": 225.96131250000326,
      "v": 99
    },
    {
      "midi": 42,
      "hit": false,
      "t": 84922.99200000006,
      "d": 225.96131250000326,
      "v": 92
    },
    {
      "midi": 36,
      "hit": false,
      "t": 84922.99200000006,
      "d": 456.7303125000035,
      "v": 110
    },
    {
      "midi": 43,
      "hit": false,
      "t": 84922.99200000007,
      "d": 456.7303125000035,
      "v": 104
    },
    {
      "midi": 43,
      "hit": false,
      "t": 84922.99200000007,
      "d": 225.96131250000326,
      "v": 86
    },
    {
      "midi": 50,
      "hit": false,
      "t": 84922.99200000007,
      "d": 225.96131250000326,
      "v": 80
    },
    {
      "midi": 55,
      "hit": false,
      "t": 84951.83812499998,
      "d": 124.99987500000861,
      "v": 70
    },
    {
      "midi": 62,
      "hit": false,
      "t": 84952.79966249998,
      "d": 111.53835000000254,
      "v": 86
    },
    {
      "midi": 59,
      "hit": false,
      "t": 84952.79966249998,
      "d": 124.99987500000861,
      "v": 75
    },
    {
      "midi": 62,
      "hit": false,
      "t": 85153.761,
      "d": 225.96131250000326,
      "v": 68
    },
    {
      "midi": 59,
      "hit": false,
      "t": 85153.761,
      "d": 225.96131250000326,
      "v": 66
    },
    {
      "midi": 55,
      "hit": false,
      "t": 85153.761,
      "d": 225.96131250000326,
      "v": 74
    },
    {
      "midi": 67,
      "hit": false,
      "t": 85153.761,
      "d": 225.96131250000326,
      "v": 92
    },
    {
      "midi": 55,
      "hit": false,
      "t": 85153.761,
      "d": 225.96131250000326,
      "v": 92
    },
    {
      "midi": 42,
      "hit": false,
      "t": 85153.76100000006,
      "d": 225.96131250000326,
      "v": 60
    },
    {
      "midi": 50,
      "hit": false,
      "t": 85153.76100000007,
      "d": 225.96131250000326,
      "v": 94
    },
    {
      "midi": 43,
      "hit": false,
      "t": 85153.76100000007,
      "d": 225.96131250000326,
      "v": 94
    },
    {
      "midi": 55,
      "hit": false,
      "t": 85166.26098749999,
      "d": 88.46145000000251,
      "v": 62
    },
    {
      "midi": 59,
      "hit": false,
      "t": 85166.26098749999,
      "d": 125.96141250000801,
      "v": 65
    },
    {
      "midi": 62,
      "hit": false,
      "t": 85168.18406249999,
      "d": 124.03833750000922,
      "v": 75
    },
    {
      "midi": 62,
      "hit": false,
      "t": 85384.53,
      "d": 225.96131250000326,
      "v": 79
    },
    {
      "midi": 59,
      "hit": false,
      "t": 85384.53,
      "d": 225.96131250000326,
      "v": 75
    },
    {
      "midi": 57,
      "hit": false,
      "t": 85384.53,
      "d": 225.96131250000326,
      "v": 75
    },
    {
      "midi": 69,
      "hit": false,
      "t": 85384.53,
      "d": 225.96131250000326,
      "v": 86
    },
    {
      "midi": 57,
      "hit": false,
      "t": 85384.53,
      "d": 225.96131250000326,
      "v": 97
    },
    {
      "midi": 38,
      "hit": false,
      "t": 85384.53000000006,
      "d": 225.96131250000326,
      "v": 110
    },
    {
      "midi": 42,
      "hit": false,
      "t": 85384.53000000006,
      "d": 225.96131250000326,
      "v": 66
    },
    {
      "midi": 52,
      "hit": false,
      "t": 85384.53000000007,
      "d": 225.96131250000326,
      "v": 83
    },
    {
      "midi": 43,
      "hit": false,
      "t": 85384.53000000007,
      "d": 225.96131250000326,
      "v": 99
    },
    {
      "midi": 57,
      "hit": false,
      "t": 85403.76075,
      "d": 119.2306499999977,
      "v": 88
    },
    {
      "midi": 59,
      "hit": false,
      "t": 85404.7222875,
      "d": 131.73063750000438,
      "v": 71
    },
    {
      "midi": 60,
      "hit": false,
      "t": 85424.914575,
      "d": 21.153825000001234,
      "v": 58
    },
    {
      "midi": 62,
      "hit": false,
      "t": 85424.914575,
      "d": 97.11528749999707,
      "v": 85
    },
    {
      "midi": 62,
      "hit": false,
      "t": 85615.299,
      "d": 687.4993125000037,
      "v": 78
    },
    {
      "midi": 59,
      "hit": false,
      "t": 85615.299,
      "d": 687.4993125000037,
      "v": 72
    },
    {
      "midi": 55,
      "hit": false,
      "t": 85615.299,
      "d": 687.4993125000037,
      "v": 66
    },
    {
      "midi": 55,
      "hit": false,
      "t": 85615.299,
      "d": 687.4993125000037,
      "v": 88
    },
    {
      "midi": 67,
      "hit": false,
      "t": 85615.299,
      "d": 687.4993125000037,
      "v": 97
    },
    {
      "midi": 36,
      "hit": false,
      "t": 85615.29900000006,
      "d": 225.96131250000326,
      "v": 104
    },
    {
      "midi": 42,
      "hit": false,
      "t": 85615.29900000006,
      "d": 225.96131250000326,
      "v": 62
    },
    {
      "midi": 43,
      "hit": false,
      "t": 85615.29900000007,
      "d": 225.96131250000326,
      "v": 110
    },
    {
      "midi": 43,
      "hit": false,
      "t": 85615.29900000007,
      "d": 225.96131250000326,
      "v": 92
    },
    {
      "midi": 50,
      "hit": false,
      "t": 85615.29900000007,
      "d": 225.96131250000326,
      "v": 88
    },
    {
      "midi": 59,
      "hit": false,
      "t": 85623.95283750001,
      "d": 477.8841375000047,
      "v": 73
    },
    {
      "midi": 62,
      "hit": false,
      "t": 85624.91437500001,
      "d": 502.88411250000354,
      "v": 78
    },
    {
      "midi": 55,
      "hit": false,
      "t": 85644.14512500001,
      "d": 336.5381250000064,
      "v": 94
    },
    {
      "midi": 42,
      "hit": false,
      "t": 85846.06800000006,
      "d": 225.96131250000326,
      "v": 86
    },
    {
      "midi": 36,
      "hit": false,
      "t": 85846.06800000006,
      "d": 456.7303125000035,
      "v": 110
    },
    {
      "midi": 43,
      "hit": false,
      "t": 85846.06800000007,
      "d": 456.7303125000035,
      "v": 110
    },
    {
      "midi": 50,
      "hit": false,
      "t": 85846.06800000007,
      "d": 225.96131250000326,
      "v": 82
    },
    {
      "midi": 43,
      "hit": false,
      "t": 85846.06800000007,
      "d": 225.96131250000326,
      "v": 92
    },
    {
      "midi": 42,
      "hit": false,
      "t": 86076.83700000006,
      "d": 225.96131250000326,
      "v": 75
    },
    {
      "midi": 50,
      "hit": false,
      "t": 86076.83700000007,
      "d": 225.96131250000326,
      "v": 58
    },
    {
      "midi": 43,
      "hit": false,
      "t": 86076.83700000007,
      "d": 225.96131250000326,
      "v": 88
    },
    {
      "midi": 55,
      "hit": false,
      "t": 86202.79841250001,
      "d": 124.99987499999406,
      "v": 60
    },
    {
      "midi": 59,
      "hit": false,
      "t": 86307.606,
      "d": 225.96131250000326,
      "v": 67
    },
    {
      "midi": 64,
      "hit": false,
      "t": 86307.606,
      "d": 225.96131250000326,
      "v": 66
    },
    {
      "midi": 55,
      "hit": false,
      "t": 86307.606,
      "d": 225.96131250000326,
      "v": 76
    },
    {
      "midi": 64,
      "hit": false,
      "t": 86307.606,
      "d": 225.96131250000326,
      "v": 92
    },
    {
      "midi": 52,
      "hit": false,
      "t": 86307.606,
      "d": 225.96131250000326,
      "v": 85
    },
    {
      "midi": 38,
      "hit": false,
      "t": 86307.60600000006,
      "d": 225.96131250000326,
      "v": 107
    },
    {
      "midi": 42,
      "hit": false,
      "t": 86307.60600000006,
      "d": 225.96131250000326,
      "v": 69
    },
    {
      "midi": 43,
      "hit": false,
      "t": 86307.60600000007,
      "d": 225.96131250000326,
      "v": 110
    },
    {
      "midi": 43,
      "hit": false,
      "t": 86307.60600000007,
      "d": 225.96131250000326,
      "v": 110
    },
    {
      "midi": 52,
      "hit": false,
      "t": 86307.60600000007,
      "d": 225.96131250000326,
      "v": 88
    },
    {
      "midi": 55,
      "hit": false,
      "t": 86353.7598,
      "d": 62.49993750000431,
      "v": 49
    },
    {
      "midi": 62,
      "hit": false,
      "t": 86354.7213375,
      "d": 89.42298750000191,
      "v": 90
    },
    {
      "midi": 59,
      "hit": false,
      "t": 86355.682875,
      "d": 87.49991250000312,
      "v": 83
    },
    {
      "midi": 54,
      "hit": false,
      "t": 86538.375,
      "d": 923.0760000000009,
      "v": 64
    },
    {
      "midi": 57,
      "hit": false,
      "t": 86538.375,
      "d": 923.0760000000009,
      "v": 61
    },
    {
      "midi": 62,
      "hit": false,
      "t": 86538.375,
      "d": 923.0760000000009,
      "v": 66
    },
    {
      "midi": 62,
      "hit": false,
      "t": 86538.375,
      "d": 1846.1520000000019,
      "v": 94
    },
    {
      "midi": 50,
      "hit": false,
      "t": 86538.375,
      "d": 1846.1520000000019,
      "v": 94
    },
    {
      "midi": 36,
      "hit": false,
      "t": 86538.37500000006,
      "d": 225.96131250000326,
      "v": 97
    },
    {
      "midi": 42,
      "hit": false,
      "t": 86538.37500000006,
      "d": 225.96131250000326,
      "v": 79
    },
    {
      "midi": 45,
      "hit": false,
      "t": 86538.37500000007,
      "d": 225.96131250000326,
      "v": 101
    },
    {
      "midi": 50,
      "hit": false,
      "t": 86538.37500000007,
      "d": 225.96131250000326,
      "v": 94
    },
    {
      "midi": 43,
      "hit": false,
      "t": 86538.37500000007,
      "d": 225.96131250000326,
      "v": 94
    },
    {
      "midi": 42,
      "hit": false,
      "t": 86769.14400000006,
      "d": 225.96131250000326,
      "v": 96
    },
    {
      "midi": 36,
      "hit": false,
      "t": 86769.14400000006,
      "d": 456.7303125000035,
      "v": 113
    },
    {
      "midi": 38,
      "hit": false,
      "t": 86769.14400000007,
      "d": 687.4993125000037,
      "v": 107
    },
    {
      "midi": 57,
      "hit": false,
      "t": 86769.14400000007,
      "d": 225.96131250000326,
      "v": 92
    },
    {
      "midi": 50,
      "hit": false,
      "t": 86769.14400000007,
      "d": 225.96131250000326,
      "v": 94
    },
    {
      "midi": 69,
      "hit": false,
      "t": 86807.6055,
      "d": 589.4224875000073,
      "v": 90
    },
    {
      "midi": 62,
      "hit": false,
      "t": 86807.6055,
      "d": 591.345562500006,
      "v": 97
    },
    {
      "midi": 66,
      "hit": false,
      "t": 86808.5670375,
      "d": 396.153449999998,
      "v": 97
    },
    {
      "midi": 42,
      "hit": false,
      "t": 86999.91300000006,
      "d": 225.96131250000326,
      "v": 77
    },
    {
      "midi": 57,
      "hit": false,
      "t": 86999.91300000007,
      "d": 225.96131250000326,
      "v": 79
    },
    {
      "midi": 50,
      "hit": false,
      "t": 86999.91300000007,
      "d": 225.96131250000326,
      "v": 85
    },
    {
      "midi": 38,
      "hit": false,
      "t": 87230.68200000006,
      "d": 225.96131250000326,
      "v": 113
    },
    {
      "midi": 42,
      "hit": false,
      "t": 87230.68200000006,
      "d": 225.96131250000326,
      "v": 71
    },
    {
      "midi": 50,
      "hit": false,
      "t": 87230.68200000007,
      "d": 225.96131250000326,
      "v": 90
    },
    {
      "midi": 59,
      "hit": false,
      "t": 87230.68200000007,
      "d": 225.96131250000326,
      "v": 85
    },
    {
      "midi": 66,
      "hit": false,
      "t": 87231.6435375,
      "d": 165.3844500000123,
      "v": 49
    },
    {
      "midi": 36,
      "hit": false,
      "t": 87461.45100000006,
      "d": 225.96131250000326,
      "v": 104
    },
    {
      "midi": 42,
      "hit": false,
      "t": 87461.45100000006,
      "d": 225.96131250000326,
      "v": 73
    },
    {
      "midi": 38,
      "hit": false,
      "t": 87461.45100000007,
      "d": 225.96131250000326,
      "v": 101
    },
    {
      "midi": 50,
      "hit": false,
      "t": 87461.45100000007,
      "d": 225.96131250000326,
      "v": 85
    },
    {
      "midi": 57,
      "hit": false,
      "t": 87461.45100000007,
      "d": 225.96131250000326,
      "v": 78
    },
    {
      "midi": 66,
      "hit": false,
      "t": 87473.95098750001,
      "d": 427.8841875000653,
      "v": 86
    },
    {
      "midi": 69,
      "hit": false,
      "t": 87474.912525,
      "d": 453.84570000007807,
      "v": 88
    },
    {
      "midi": 62,
      "hit": false,
      "t": 87476.8356,
      "d": 437.4995625000738,
      "v": 86
    },
    {
      "midi": 42,
      "hit": false,
      "t": 87692.22000000006,
      "d": 225.96131250000326,
      "v": 84
    },
    {
      "midi": 36,
      "hit": false,
      "t": 87692.22000000006,
      "d": 456.7303125000035,
      "v": 110
    },
    {
      "midi": 38,
      "hit": false,
      "t": 87692.22000000007,
      "d": 456.7303125000035,
      "v": 117
    },
    {
      "midi": 57,
      "hit": false,
      "t": 87692.22000000007,
      "d": 225.96131250000326,
      "v": 83
    },
    {
      "midi": 50,
      "hit": false,
      "t": 87692.22000000007,
      "d": 225.96131250000326,
      "v": 83
    },
    {
      "midi": 42,
      "hit": false,
      "t": 87922.98900000006,
      "d": 225.96131250000326,
      "v": 81
    },
    {
      "midi": 57,
      "hit": false,
      "t": 87922.98900000007,
      "d": 225.96131250000326,
      "v": 85
    },
    {
      "midi": 50,
      "hit": false,
      "t": 87922.98900000007,
      "d": 225.96131250000326,
      "v": 86
    },
    {
      "midi": 38,
      "hit": false,
      "t": 88153.75800000006,
      "d": 225.96131250000326,
      "v": 113
    },
    {
      "midi": 42,
      "hit": false,
      "t": 88153.75800000006,
      "d": 225.96131250000326,
      "v": 86
    },
    {
      "midi": 35,
      "hit": false,
      "t": 88153.75800000007,
      "d": 225.96131250000326,
      "v": 107
    },
    {
      "midi": 50,
      "hit": false,
      "t": 88153.75800000007,
      "d": 225.96131250000326,
      "v": 90
    },
    {
      "midi": 59,
      "hit": false,
      "t": 88153.75800000007,
      "d": 225.96131250000326,
      "v": 85
    },
    {
      "midi": 64,
      "hit": false,
      "t": 88159.52722500009,
      "d": 250.96128750004573,
      "v": 101
    },
    {
      "midi": 62,
      "hit": false,
      "t": 88160.48876250008,
      "d": 236.53822500004026,
      "v": 101
    },
    {
      "midi": 69,
      "hit": false,
      "t": 88161.45030000008,
      "d": 249.99975000004633,
      "v": 97
    },
    {
      "midi": 36,
      "hit": false,
      "t": 88384.52700000006,
      "d": 225.96131250000326,
      "v": 113
    },
    {
      "midi": 46,
      "hit": false,
      "t": 88384.52700000006,
      "d": 225.96131250000326,
      "v": 79
    },
    {
      "midi": 33,
      "hit": false,
      "t": 88384.52700000007,
      "d": 225.96131250000326,
      "v": 101
    },
    {
      "midi": 50,
      "hit": false,
      "t": 88384.52700000007,
      "d": 225.96131250000326,
      "v": 86
    },
    {
      "midi": 57,
      "hit": false,
      "t": 88384.52700000007,
      "d": 225.96131250000326,
      "v": 83
    },
    {
      "midi": 69,
      "hit": false,
      "t": 88584.52680000012,
      "d": 175.9613625000202,
      "v": 83
    },
    {
      "midi": 64,
      "hit": false,
      "t": 88584.52680000012,
      "d": 175.9613625000202,
      "v": 82
    },
    {
      "midi": 62,
      "hit": false,
      "t": 88585.48833750012,
      "d": 161.53830000001471,
      "v": 85
    },
    {
      "midi": 38,
      "hit": false,
      "t": 88610.48831250008,
      "d": 456.7303125000035,
      "v": 110
    },
    {
      "midi": 42,
      "hit": false,
      "t": 88615.29600000006,
      "d": 225.96131250000326,
      "v": 89
    },
    {
      "midi": 36,
      "hit": false,
      "t": 88615.29600000006,
      "d": 225.96131250000326,
      "v": 117
    },
    {
      "midi": 57,
      "hit": false,
      "t": 88615.29600000007,
      "d": 225.96131250000326,
      "v": 85
    },
    {
      "midi": 50,
      "hit": false,
      "t": 88615.29600000007,
      "d": 225.96131250000326,
      "v": 86
    },
    {
      "midi": 40,
      "hit": false,
      "t": 88846.06500000006,
      "d": 225.96131250000326,
      "v": 50
    },
    {
      "midi": 42,
      "hit": false,
      "t": 88846.06500000006,
      "d": 225.96131250000326,
      "v": 89
    },
    {
      "midi": 57,
      "hit": false,
      "t": 88846.06500000008,
      "d": 225.96131250000326,
      "v": 82
    },
    {
      "midi": 50,
      "hit": false,
      "t": 88846.06500000008,
      "d": 225.96131250000326,
      "v": 83
    },
    {
      "midi": 69,
      "hit": false,
      "t": 88849.91115000015,
      "d": 313.46122500005004,
      "v": 83
    },
    {
      "midi": 66,
      "hit": false,
      "t": 88865.29575000015,
      "d": 299.99970000004396,
      "v": 88
    },
    {
      "midi": 62,
      "hit": false,
      "t": 88866.25728750015,
      "d": 271.15357500004757,
      "v": 94
    },
    {
      "midi": 40,
      "hit": false,
      "t": 89076.83400000006,
      "d": 225.96131250000326,
      "v": 65
    },
    {
      "midi": 42,
      "hit": false,
      "t": 89076.83400000006,
      "d": 225.96131250000326,
      "v": 96
    },
    {
      "midi": 33,
      "hit": false,
      "t": 89076.83400000008,
      "d": 225.96131250000326,
      "v": 113
    },
    {
      "midi": 59,
      "hit": false,
      "t": 89076.83400000008,
      "d": 225.96131250000326,
      "v": 85
    },
    {
      "midi": 50,
      "hit": false,
      "t": 89076.83400000008,
      "d": 225.96131250000326,
      "v": 86
    },
    {
      "midi": 40,
      "hit": false,
      "t": 89307.60300000006,
      "d": 225.96131250000326,
      "v": 76
    },
    {
      "midi": 42,
      "hit": false,
      "t": 89307.60300000006,
      "d": 225.96131250000326,
      "v": 96
    },
    {
      "midi": 35,
      "hit": false,
      "t": 89307.60300000008,
      "d": 225.96131250000326,
      "v": 110
    },
    {
      "midi": 57,
      "hit": false,
      "t": 89307.60300000008,
      "d": 225.96131250000326,
      "v": 82
    },
    {
      "midi": 50,
      "hit": false,
      "t": 89307.60300000008,
      "d": 225.96131250000326,
      "v": 83
    },
    {
      "midi": 62,
      "hit": false,
      "t": 89313.37222500019,
      "d": 376.92270000002463,
      "v": 97
    },
    {
      "midi": 66,
      "hit": false,
      "t": 89313.37222500019,
      "d": 551.9225250000163,
      "v": 94
    },
    {
      "midi": 69,
      "hit": false,
      "t": 89315.29530000019,
      "d": 672.1147125000134,
      "v": 92
    },
    {
      "midi": 40,
      "hit": false,
      "t": 89538.37200000006,
      "d": 225.96131250000326,
      "v": 93
    },
    {
      "midi": 55,
      "hit": false,
      "t": 89538.37200000006,
      "d": 225.96131250000326,
      "v": 97
    },
    {
      "midi": 42,
      "hit": false,
      "t": 89538.37200000006,
      "d": 225.96131250000326,
      "v": 96
    },
    {
      "midi": 38,
      "hit": false,
      "t": 89538.37200000008,
      "d": 225.96131250000326,
      "v": 117
    },
    {
      "midi": 57,
      "hit": false,
      "t": 89538.37200000008,
      "d": 225.96131250000326,
      "v": 80
    },
    {
      "midi": 50,
      "hit": false,
      "t": 89538.37200000008,
      "d": 225.96131250000326,
      "v": 85
    },
    {
      "midi": 40,
      "hit": false,
      "t": 89769.14100000006,
      "d": 225.96131250000326,
      "v": 110
    },
    {
      "midi": 42,
      "hit": false,
      "t": 89769.14100000006,
      "d": 225.96131250000326,
      "v": 100
    },
    {
      "midi": 40,
      "hit": false,
      "t": 89769.14100000008,
      "d": 225.96131250000326,
      "v": 101
    },
    {
      "midi": 57,
      "hit": false,
      "t": 89769.14100000008,
      "d": 225.96131250000326,
      "v": 83
    },
    {
      "midi": 50,
      "hit": false,
      "t": 89769.14100000008,
      "d": 225.96131250000326,
      "v": 88
    },
    {
      "midi": 62,
      "hit": false,
      "t": 89789.33328750021,
      "d": 349.03811249999853,
      "v": 86
    },
    {
      "midi": 40,
      "hit": false,
      "t": 89999.91000000006,
      "d": 225.96131250000326,
      "v": 127
    },
    {
      "midi": 42,
      "hit": false,
      "t": 89999.91000000006,
      "d": 225.96131250000326,
      "v": 100
    },
    {
      "midi": 43,
      "hit": false,
      "t": 89999.91000000008,
      "d": 225.96131250000326,
      "v": 113
    },
    {
      "midi": 50,
      "hit": false,
      "t": 89999.91000000008,
      "d": 225.96131250000326,
      "v": 92
    },
    {
      "midi": 59,
      "hit": false,
      "t": 89999.91000000008,
      "d": 225.96131250000326,
      "v": 83
    },
    {
      "midi": 66,
      "hit": false,
      "t": 89999.9100000002,
      "d": 139.42293749999953,
      "v": 86
    },
    {
      "midi": 69,
      "hit": false,
      "t": 90191.2559625002,
      "d": 75.96146249999583,
      "v": 74
    },
    {
      "midi": 45,
      "hit": false,
      "t": 90230.67900000006,
      "d": 225.96131250000326,
      "v": 127
    },
    {
      "midi": 46,
      "hit": false,
      "t": 90230.67900000006,
      "d": 225.96131250000326,
      "v": 104
    },
    {
      "midi": 45,
      "hit": false,
      "t": 90230.67900000008,
      "d": 225.96131250000326,
      "v": 99
    },
    {
      "midi": 50,
      "hit": false,
      "t": 90230.67900000008,
      "d": 225.96131250000326,
      "v": 86
    },
    {
      "midi": 57,
      "hit": false,
      "t": 90230.67900000008,
      "d": 225.96131250000326,
      "v": 88
    },
    {
      "midi": 42,
      "hit": false,
      "t": 90461.44800000006,
      "d": 225.96131250000326,
      "v": 89
    },
    {
      "midi": 57,
      "hit": false,
      "t": 90461.44800000006,
      "d": 225.96131250000326,
      "v": 110
    },
    {
      "midi": 36,
      "hit": false,
      "t": 90461.44800000006,
      "d": 456.7303125000035,
      "v": 113
    },
    {
      "midi": 43,
      "hit": false,
      "t": 90461.44800000008,
      "d": 456.7303125000035,
      "v": 113
    },
    {
      "midi": 50,
      "hit": false,
      "t": 90461.44800000008,
      "d": 225.96131250000326,
      "v": 97
    },
    {
      "midi": 43,
      "hit": false,
      "t": 90461.44800000008,
      "d": 225.96131250000326,
      "v": 99
    },
    {
      "midi": 55,
      "hit": false,
      "t": 90498.9479625002,
      "d": 523.076400000049,
      "v": 92
    },
    {
      "midi": 59,
      "hit": false,
      "t": 90690.29392500024,
      "d": 404.8072875000071,
      "v": 67
    },
    {
      "midi": 42,
      "hit": false,
      "t": 90692.21700000006,
      "d": 225.96131250000326,
      "v": 81
    },
    {
      "midi": 50,
      "hit": false,
      "t": 90692.21700000008,
      "d": 225.96131250000326,
      "v": 83
    },
    {
      "midi": 43,
      "hit": false,
      "t": 90692.21700000008,
      "d": 225.96131250000326,
      "v": 86
    },
    {
      "midi": 42,
      "hit": false,
      "t": 90922.98600000006,
      "d": 225.96131250000326,
      "v": 84
    },
    {
      "midi": 38,
      "hit": false,
      "t": 90922.98600000006,
      "d": 225.96131250000326,
      "v": 113
    },
    {
      "midi": 43,
      "hit": false,
      "t": 90922.98600000008,
      "d": 225.96131250000326,
      "v": 99
    },
    {
      "midi": 52,
      "hit": false,
      "t": 90922.98600000008,
      "d": 225.96131250000326,
      "v": 88
    },
    {
      "midi": 62,
      "hit": false,
      "t": 90933.56291250025,
      "d": 336.5381250000064,
      "v": 85
    },
    {
      "midi": 42,
      "hit": false,
      "t": 91153.75500000006,
      "d": 225.96131250000326,
      "v": 86
    },
    {
      "midi": 36,
      "hit": false,
      "t": 91153.75500000006,
      "d": 225.96131250000326,
      "v": 123
    },
    {
      "midi": 43,
      "hit": false,
      "t": 91153.75500000008,
      "d": 225.96131250000326,
      "v": 104
    },
    {
      "midi": 50,
      "hit": false,
      "t": 91153.75500000008,
      "d": 225.96131250000326,
      "v": 85
    },
    {
      "midi": 43,
      "hit": false,
      "t": 91153.75500000008,
      "d": 225.96131250000326,
      "v": 90
    },
    {
      "midi": 55,
      "hit": false,
      "t": 91181.63958750025,
      "d": 26.923049999997602,
      "v": 51
    },
    {
      "midi": 42,
      "hit": false,
      "t": 91384.52400000006,
      "d": 225.96131250000326,
      "v": 92
    },
    {
      "midi": 36,
      "hit": false,
      "t": 91384.52400000006,
      "d": 456.7303125000035,
      "v": 110
    },
    {
      "midi": 38,
      "hit": false,
      "t": 91384.52400000008,
      "d": 456.7303125000035,
      "v": 113
    },
    {
      "midi": 50,
      "hit": false,
      "t": 91384.52400000008,
      "d": 225.96131250000326,
      "v": 88
    },
    {
      "midi": 45,
      "hit": false,
      "t": 91384.52400000008,
      "d": 225.96131250000326,
      "v": 97
    },
    {
      "midi": 50,
      "hit": false,
      "t": 91405.67782500025,
      "d": 724.9992750000092,
      "v": 97
    },
    {
      "midi": 46,
      "hit": false,
      "t": 91615.29300000006,
      "d": 225.96131250000326,
      "v": 89
    },
    {
      "midi": 50,
      "hit": false,
      "t": 91615.29300000008,
      "d": 225.96131250000326,
      "v": 82
    },
    {
      "midi": 45,
      "hit": false,
      "t": 91615.29300000008,
      "d": 225.96131250000326,
      "v": 94
    },
    {
      "midi": 54,
      "hit": false,
      "t": 91625.86991250026,
      "d": 503.84565000000293,
      "v": 86
    },
    {
      "midi": 57,
      "hit": false,
      "t": 91834.52355000026,
      "d": 298.0766250000015,
      "v": 73
    },
    {
      "midi": 42,
      "hit": false,
      "t": 91846.06200000006,
      "d": 225.96131250000326,
      "v": 92
    },
    {
      "midi": 38,
      "hit": false,
      "t": 91846.06200000006,
      "d": 225.96131250000326,
      "v": 110
    },
    {
      "midi": 45,
      "hit": false,
      "t": 91846.06200000008,
      "d": 225.96131250000326,
      "v": 99
    },
    {
      "midi": 52,
      "hit": false,
      "t": 91846.06200000008,
      "d": 225.96131250000326,
      "v": 94
    },
    {
      "midi": 42,
      "hit": false,
      "t": 92076.83100000006,
      "d": 225.96131250000326,
      "v": 79
    },
    {
      "midi": 36,
      "hit": false,
      "t": 92076.83100000006,
      "d": 225.96131250000326,
      "v": 120
    },
    {
      "midi": 38,
      "hit": false,
      "t": 92076.83100000008,
      "d": 225.96131250000326,
      "v": 117
    },
    {
      "midi": 50,
      "hit": false,
      "t": 92076.83100000008,
      "d": 225.96131250000326,
      "v": 83
    },
    {
      "midi": 45,
      "hit": false,
      "t": 92076.83100000008,
      "d": 225.96131250000326,
      "v": 88
    },
    {
      "midi": 62,
      "hit": false,
      "t": 92089.33098750026,
      "d": 118.2691124999983,
      "v": 82
    },
    {
      "midi": 42,
      "hit": false,
      "t": 92307.60000000006,
      "d": 225.96131250000326,
      "v": 89
    },
    {
      "midi": 36,
      "hit": false,
      "t": 92307.60000000006,
      "d": 456.7303125000035,
      "v": 113
    },
    {
      "midi": 43,
      "hit": false,
      "t": 92307.60000000008,
      "d": 456.7303125000035,
      "v": 110
    },
    {
      "midi": 50,
      "hit": false,
      "t": 92307.60000000008,
      "d": 225.96131250000326,
      "v": 86
    },
    {
      "midi": 43,
      "hit": false,
      "t": 92307.60000000008,
      "d": 225.96131250000326,
      "v": 90
    },
    {
      "midi": 55,
      "hit": false,
      "t": 92329.71536250025,
      "d": 678.8454750000092,
      "v": 83
    },
    {
      "midi": 42,
      "hit": false,
      "t": 92538.36900000006,
      "d": 225.96131250000326,
      "v": 66
    },
    {
      "midi": 50,
      "hit": false,
      "t": 92538.36900000008,
      "d": 225.96131250000326,
      "v": 86
    },
    {
      "midi": 43,
      "hit": false,
      "t": 92538.36900000008,
      "d": 225.96131250000326,
      "v": 90
    },
    {
      "midi": 59,
      "hit": false,
      "t": 92544.13822500026,
      "d": 556.7302124999987,
      "v": 78
    },
    {
      "midi": 62,
      "hit": false,
      "t": 92763.36877500026,
      "d": 378.8457750000234,
      "v": 78
    },
    {
      "midi": 38,
      "hit": false,
      "t": 92769.13800000006,
      "d": 225.96131250000326,
      "v": 107
    },
    {
      "midi": 42,
      "hit": false,
      "t": 92769.13800000006,
      "d": 225.96131250000326,
      "v": 62
    },
    {
      "midi": 52,
      "hit": false,
      "t": 92769.13800000008,
      "d": 225.96131250000326,
      "v": 85
    },
    {
      "midi": 43,
      "hit": false,
      "t": 92769.13800000008,
      "d": 225.96131250000326,
      "v": 86
    },
    {
      "midi": 36,
      "hit": false,
      "t": 92999.90700000006,
      "d": 225.96131250000326,
      "v": 110
    },
    {
      "midi": 42,
      "hit": false,
      "t": 92999.90700000006,
      "d": 225.96131250000326,
      "v": 59
    },
    {
      "midi": 38,
      "hit": false,
      "t": 92999.90700000008,
      "d": 225.96131250000326,
      "v": 113
    },
    {
      "midi": 50,
      "hit": false,
      "t": 92999.90700000008,
      "d": 225.96131250000326,
      "v": 82
    },
    {
      "midi": 43,
      "hit": false,
      "t": 92999.90700000008,
      "d": 225.96131250000326,
      "v": 86
    },
    {
      "midi": 67,
      "hit": false,
      "t": 93008.56083750026,
      "d": 120.19218750001164,
      "v": 53
    },
    {
      "midi": 66,
      "hit": false,
      "t": 93025.86851250027,
      "d": 88.46145000000251,
      "v": 57
    },
    {
      "midi": 43,
      "hit": false,
      "t": 93230.676,
      "d": 456.7303125000035,
      "v": 70
    },
    {
      "midi": 42,
      "hit": false,
      "t": 93230.67600000006,
      "d": 225.96131250000326,
      "v": 96
    },
    {
      "midi": 36,
      "hit": false,
      "t": 93230.67600000006,
      "d": 456.7303125000035,
      "v": 117
    },
    {
      "midi": 43,
      "hit": false,
      "t": 93230.67600000008,
      "d": 456.7303125000035,
      "v": 113
    },
    {
      "midi": 43,
      "hit": false,
      "t": 93230.67600000008,
      "d": 225.96131250000326,
      "v": 101
    },
    {
      "midi": 50,
      "hit": false,
      "t": 93230.67600000008,
      "d": 225.96131250000326,
      "v": 88
    },
    {
      "midi": 62,
      "hit": false,
      "t": 93242.21445000028,
      "d": 449.9995500000223,
      "v": 59
    },
    {
      "midi": 59,
      "hit": false,
      "t": 93256.63751250028,
      "d": 75.96146250001038,
      "v": 62
    },
    {
      "midi": 55,
      "hit": false,
      "t": 93257.59905000028,
      "d": 335.57658750002156,
      "v": 85
    },
    {
      "midi": 42,
      "hit": false,
      "t": 93461.44500000007,
      "d": 225.96131250000326,
      "v": 79
    },
    {
      "midi": 50,
      "hit": false,
      "t": 93461.44500000008,
      "d": 225.96131250000326,
      "v": 82
    },
    {
      "midi": 43,
      "hit": false,
      "t": 93461.44500000008,
      "d": 225.96131250000326,
      "v": 97
    },
    {
      "midi": 42,
      "hit": false,
      "t": 93692.214,
      "d": 456.7303125000035,
      "v": 57
    },
    {
      "midi": 38,
      "hit": false,
      "t": 93692.21400000007,
      "d": 225.96131250000326,
      "v": 107
    },
    {
      "midi": 42,
      "hit": false,
      "t": 93692.21400000007,
      "d": 225.96131250000326,
      "v": 64
    },
    {
      "midi": 42,
      "hit": false,
      "t": 93692.21400000008,
      "d": 456.7303125000035,
      "v": 109
    },
    {
      "midi": 50,
      "hit": false,
      "t": 93692.21400000008,
      "d": 225.96131250000326,
      "v": 85
    },
    {
      "midi": 42,
      "hit": false,
      "t": 93692.21400000008,
      "d": 225.96131250000326,
      "v": 104
    },
    {
      "midi": 54,
      "hit": false,
      "t": 93705.6755250003,
      "d": 315.3843000000488,
      "v": 101
    },
    {
      "midi": 36,
      "hit": false,
      "t": 93922.98300000007,
      "d": 225.96131250000326,
      "v": 99
    },
    {
      "midi": 42,
      "hit": false,
      "t": 93922.98300000007,
      "d": 225.96131250000326,
      "v": 77
    },
    {
      "midi": 50,
      "hit": false,
      "t": 93922.98300000008,
      "d": 225.96131250000326,
      "v": 80
    },
    {
      "midi": 42,
      "hit": false,
      "t": 93922.98300000008,
      "d": 225.96131250000326,
      "v": 84
    },
    {
      "midi": 42,
      "hit": false,
      "t": 94153.75200000007,
      "d": 225.96131250000326,
      "v": 92
    },
    {
      "midi": 36,
      "hit": false,
      "t": 94153.75200000007,
      "d": 456.7303125000035,
      "v": 110
    },
    {
      "midi": 40,
      "hit": false,
      "t": 94153.75200000008,
      "d": 456.7303125000035,
      "v": 117
    },
    {
      "midi": 47,
      "hit": false,
      "t": 94153.75200000008,
      "d": 225.96131250000326,
      "v": 90
    },
    {
      "midi": 52,
      "hit": false,
      "t": 94153.75200000008,
      "d": 225.96131250000326,
      "v": 83
    },
    {
      "midi": 52,
      "hit": false,
      "t": 94180.67505000035,
      "d": 708.6531375000195,
      "v": 94
    },
    {
      "midi": 42,
      "hit": false,
      "t": 94384.52100000007,
      "d": 225.96131250000326,
      "v": 60
    },
    {
      "midi": 52,
      "hit": false,
      "t": 94384.52100000008,
      "d": 225.96131250000326,
      "v": 76
    },
    {
      "midi": 47,
      "hit": false,
      "t": 94384.52100000008,
      "d": 225.96131250000326,
      "v": 80
    },
    {
      "midi": 55,
      "hit": false,
      "t": 94394.13637500037,
      "d": 569.23020000002,
      "v": 94
    },
    {
      "midi": 38,
      "hit": false,
      "t": 94615.29000000007,
      "d": 225.96131250000326,
      "v": 110
    },
    {
      "midi": 42,
      "hit": false,
      "t": 94615.29000000007,
      "d": 225.96131250000326,
      "v": 66
    },
    {
      "midi": 52,
      "hit": false,
      "t": 94615.29000000008,
      "d": 225.96131250000326,
      "v": 74
    },
    {
      "midi": 47,
      "hit": false,
      "t": 94615.29000000008,
      "d": 225.96131250000326,
      "v": 83
    },
    {
      "midi": 59,
      "hit": false,
      "t": 94616.25153750037,
      "d": 348.0765750000137,
      "v": 78
    },
    {
      "midi": 64,
      "hit": false,
      "t": 94837.40516250038,
      "d": 112.49988750000193,
      "v": 72
    },
    {
      "midi": 36,
      "hit": false,
      "t": 94846.05900000007,
      "d": 225.96131250000326,
      "v": 104
    },
    {
      "midi": 42,
      "hit": false,
      "t": 94846.05900000007,
      "d": 225.96131250000326,
      "v": 62
    },
    {
      "midi": 40,
      "hit": false,
      "t": 94846.05900000008,
      "d": 225.96131250000326,
      "v": 104
    },
    {
      "midi": 52,
      "hit": false,
      "t": 94846.05900000008,
      "d": 225.96131250000326,
      "v": 73
    },
    {
      "midi": 47,
      "hit": false,
      "t": 94846.05900000008,
      "d": 225.96131250000326,
      "v": 82
    },
    {
      "midi": 42,
      "hit": false,
      "t": 95076.82800000007,
      "d": 225.96131250000326,
      "v": 86
    },
    {
      "midi": 36,
      "hit": false,
      "t": 95076.82800000007,
      "d": 456.7303125000035,
      "v": 110
    },
    {
      "midi": 38,
      "hit": false,
      "t": 95076.82800000008,
      "d": 456.7303125000035,
      "v": 110
    },
    {
      "midi": 50,
      "hit": false,
      "t": 95076.82800000008,
      "d": 225.96131250000326,
      "v": 83
    },
    {
      "midi": 45,
      "hit": false,
      "t": 95076.82800000008,
      "d": 225.96131250000326,
      "v": 94
    },
    {
      "midi": 50,
      "hit": false,
      "t": 95099.90490000039,
      "d": 640.3839750000043,
      "v": 92
    },
    {
      "midi": 42,
      "hit": false,
      "t": 95307.59700000007,
      "d": 225.96131250000326,
      "v": 75
    },
    {
      "midi": 50,
      "hit": false,
      "t": 95307.59700000008,
      "d": 225.96131250000326,
      "v": 79
    },
    {
      "midi": 45,
      "hit": false,
      "t": 95307.59700000008,
      "d": 225.96131250000326,
      "v": 85
    },
    {
      "midi": 54,
      "hit": false,
      "t": 95332.59697500039,
      "d": 446.15340000001015,
      "v": 85
    },
    {
      "midi": 38,
      "hit": false,
      "t": 95538.36600000007,
      "d": 225.96131250000326,
      "v": 107
    },
    {
      "midi": 42,
      "hit": false,
      "t": 95538.36600000007,
      "d": 225.96131250000326,
      "v": 69
    },
    {
      "midi": 45,
      "hit": false,
      "t": 95538.36600000008,
      "d": 225.96131250000326,
      "v": 76
    },
    {
      "midi": 50,
      "hit": false,
      "t": 95538.36600000008,
      "d": 225.96131250000326,
      "v": 80
    },
    {
      "midi": 57,
      "hit": false,
      "t": 95543.17368750038,
      "d": 262.49973750000936,
      "v": 78
    },
    {
      "midi": 36,
      "hit": false,
      "t": 95769.13500000007,
      "d": 225.96131250000326,
      "v": 97
    },
    {
      "midi": 42,
      "hit": false,
      "t": 95769.13500000007,
      "d": 225.96131250000326,
      "v": 79
    },
    {
      "midi": 42,
      "hit": false,
      "t": 95769.13500000008,
      "d": 225.96131250000326,
      "v": 104
    },
    {
      "midi": 50,
      "hit": false,
      "t": 95769.13500000008,
      "d": 225.96131250000326,
      "v": 76
    },
    {
      "midi": 45,
      "hit": false,
      "t": 95769.13500000008,
      "d": 225.96131250000326,
      "v": 83
    },
    {
      "midi": 62,
      "hit": false,
      "t": 95776.8273000004,
      "d": 102.88451249999343,
      "v": 82
    },
    {
      "midi": 50,
      "hit": false,
      "t": 95999.90400000001,
      "d": 456.7303125000035,
      "v": 66
    },
    {
      "midi": 43,
      "hit": false,
      "t": 95999.90400000001,
      "d": 456.7303125000035,
      "v": 58
    },
    {
      "midi": 42,
      "hit": false,
      "t": 95999.90400000007,
      "d": 225.96131250000326,
      "v": 96
    },
    {
      "midi": 36,
      "hit": false,
      "t": 95999.90400000007,
      "d": 456.7303125000035,
      "v": 113
    },
    {
      "midi": 43,
      "hit": false,
      "t": 95999.90400000008,
      "d": 456.7303125000035,
      "v": 113
    },
    {
      "midi": 50,
      "hit": false,
      "t": 95999.90400000008,
      "d": 225.96131250000326,
      "v": 86
    },
    {
      "midi": 43,
      "hit": false,
      "t": 95999.90400000008,
      "d": 225.96131250000326,
      "v": 92
    },
    {
      "midi": 55,
      "hit": false,
      "t": 96001.82707500039,
      "d": 743.2684875000123,
      "v": 90
    },
    {
      "midi": 59,
      "hit": false,
      "t": 96227.78838750039,
      "d": 627.8839875000122,
      "v": 76
    },
    {
      "midi": 42,
      "hit": false,
      "t": 96230.67300000007,
      "d": 225.96131250000326,
      "v": 77
    },
    {
      "midi": 50,
      "hit": false,
      "t": 96230.67300000008,
      "d": 225.96131250000326,
      "v": 78
    },
    {
      "midi": 43,
      "hit": false,
      "t": 96230.67300000008,
      "d": 225.96131250000326,
      "v": 88
    },
    {
      "midi": 52,
      "hit": false,
      "t": 96461.44200000001,
      "d": 456.7303125000035,
      "v": 54
    },
    {
      "midi": 43,
      "hit": false,
      "t": 96461.44200000001,
      "d": 456.7303125000035,
      "v": 45
    },
    {
      "midi": 38,
      "hit": false,
      "t": 96461.44200000007,
      "d": 225.96131250000326,
      "v": 113
    },
    {
      "midi": 42,
      "hit": false,
      "t": 96461.44200000007,
      "d": 225.96131250000326,
      "v": 71
    },
    {
      "midi": 43,
      "hit": false,
      "t": 96461.44200000008,
      "d": 225.96131250000326,
      "v": 90
    },
    {
      "midi": 52,
      "hit": false,
      "t": 96461.44200000008,
      "d": 225.96131250000326,
      "v": 76
    },
    {
      "midi": 62,
      "hit": false,
      "t": 96461.44200000039,
      "d": 813.4607250000117,
      "v": 79
    },
    {
      "midi": 36,
      "hit": false,
      "t": 96692.21100000007,
      "d": 225.96131250000326,
      "v": 104
    },
    {
      "midi": 42,
      "hit": false,
      "t": 96692.21100000007,
      "d": 225.96131250000326,
      "v": 73
    },
    {
      "midi": 38,
      "hit": false,
      "t": 96692.21100000008,
      "d": 225.96131250000326,
      "v": 117
    },
    {
      "midi": 43,
      "hit": false,
      "t": 96692.21100000008,
      "d": 225.96131250000326,
      "v": 86
    },
    {
      "midi": 50,
      "hit": false,
      "t": 96692.21100000008,
      "d": 225.96131250000326,
      "v": 72
    },
    {
      "midi": 67,
      "hit": false,
      "t": 96705.6725250004,
      "d": 692.3070000000007,
      "v": 73
    },
    {
      "midi": 50,
      "hit": false,
      "t": 96922.98000000001,
      "d": 456.7303125000035,
      "v": 69
    },
    {
      "midi": 43,
      "hit": false,
      "t": 96922.98000000001,
      "d": 456.7303125000035,
      "v": 57
    },
    {
      "midi": 42,
      "hit": false,
      "t": 96922.98000000007,
      "d": 225.96131250000326,
      "v": 84
    },
    {
      "midi": 36,
      "hit": false,
      "t": 96922.98000000007,
      "d": 456.7303125000035,
      "v": 110
    },
    {
      "midi": 40,
      "hit": false,
      "t": 96922.98000000008,
      "d": 225.96131250000326,
      "v": 101
    },
    {
      "midi": 50,
      "hit": false,
      "t": 96922.98000000008,
      "d": 225.96131250000326,
      "v": 78
    },
    {
      "midi": 43,
      "hit": false,
      "t": 96922.98000000008,
      "d": 225.96131250000326,
      "v": 92
    },
    {
      "midi": 55,
      "hit": false,
      "t": 96952.7876625004,
      "d": 532.6917749999993,
      "v": 88
    },
    {
      "midi": 42,
      "hit": false,
      "t": 97153.74900000007,
      "d": 225.96131250000326,
      "v": 81
    },
    {
      "midi": 43,
      "hit": false,
      "t": 97153.74900000008,
      "d": 225.96131250000326,
      "v": 101
    },
    {
      "midi": 43,
      "hit": false,
      "t": 97153.74900000008,
      "d": 225.96131250000326,
      "v": 86
    },
    {
      "midi": 50,
      "hit": false,
      "t": 97153.74900000008,
      "d": 225.96131250000326,
      "v": 71
    },
    {
      "midi": 59,
      "hit": false,
      "t": 97162.4028375004,
      "d": 482.6918250000017,
      "v": 75
    },
    {
      "midi": 52,
      "hit": false,
      "t": 97384.51800000001,
      "d": 456.7303125000035,
      "v": 72
    },
    {
      "midi": 43,
      "hit": false,
      "t": 97384.51800000001,
      "d": 456.7303125000035,
      "v": 49
    },
    {
      "midi": 38,
      "hit": false,
      "t": 97384.51800000007,
      "d": 225.96131250000326,
      "v": 113
    },
    {
      "midi": 42,
      "hit": false,
      "t": 97384.51800000007,
      "d": 225.96131250000326,
      "v": 86
    },
    {
      "midi": 40,
      "hit": false,
      "t": 97384.51800000008,
      "d": 225.96131250000326,
      "v": 107
    },
    {
      "midi": 43,
      "hit": false,
      "t": 97384.51800000008,
      "d": 225.96131250000326,
      "v": 86
    },
    {
      "midi": 52,
      "hit": false,
      "t": 97384.51800000008,
      "d": 225.96131250000326,
      "v": 82
    },
    {
      "midi": 62,
      "hit": false,
      "t": 97446.0564000004,
      "d": 290.38432500000636,
      "v": 66
    },
    {
      "midi": 36,
      "hit": false,
      "t": 97615.28700000007,
      "d": 225.96131250000326,
      "v": 113
    },
    {
      "midi": 46,
      "hit": false,
      "t": 97615.28700000007,
      "d": 225.96131250000326,
      "v": 79
    },
    {
      "midi": 43,
      "hit": false,
      "t": 97615.28700000008,
      "d": 225.96131250000326,
      "v": 110
    },
    {
      "midi": 43,
      "hit": false,
      "t": 97615.28700000008,
      "d": 225.96131250000326,
      "v": 92
    },
    {
      "midi": 50,
      "hit": false,
      "t": 97615.28700000008,
      "d": 225.96131250000326,
      "v": 80
    },
    {
      "midi": 67,
      "hit": false,
      "t": 97681.6330875004,
      "d": 53.846099999995204,
      "v": 46
    },
    {
      "midi": 42,
      "hit": false,
      "t": 97846.05600000007,
      "d": 225.96131250000326,
      "v": 89
    },
    {
      "midi": 36,
      "hit": false,
      "t": 97846.05600000007,
      "d": 456.7303125000035,
      "v": 113
    },
    {
      "midi": 45,
      "hit": false,
      "t": 97846.05600000008,
      "d": 456.7303125000035,
      "v": 107
    },
    {
      "midi": 52,
      "hit": false,
      "t": 97846.05600000008,
      "d": 225.96131250000326,
      "v": 83
    },
    {
      "midi": 45,
      "hit": false,
      "t": 97846.05600000008,
      "d": 225.96131250000326,
      "v": 90
    },
    {
      "midi": 57,
      "hit": false,
      "t": 97870.0944375004,
      "d": 698.0762250000407,
      "v": 92
    },
    {
      "midi": 60,
      "hit": false,
      "t": 98064.32501250044,
      "d": 687.4993125000037,
      "v": 86
    },
    {
      "midi": 42,
      "hit": false,
      "t": 98076.82500000007,
      "d": 225.96131250000326,
      "v": 81
    },
    {
      "midi": 52,
      "hit": false,
      "t": 98076.82500000008,
      "d": 225.96131250000326,
      "v": 62
    },
    {
      "midi": 45,
      "hit": false,
      "t": 98076.82500000008,
      "d": 225.96131250000326,
      "v": 82
    },
    {
      "midi": 64,
      "hit": false,
      "t": 98284.51710000045,
      "d": 727.8838875000074,
      "v": 78
    },
    {
      "midi": 42,
      "hit": false,
      "t": 98307.59400000007,
      "d": 225.96131250000326,
      "v": 84
    },
    {
      "midi": 38,
      "hit": false,
      "t": 98307.59400000007,
      "d": 225.96131250000326,
      "v": 113
    },
    {
      "midi": 52,
      "hit": false,
      "t": 98307.59400000008,
      "d": 225.96131250000326,
      "v": 88
    },
    {
      "midi": 45,
      "hit": false,
      "t": 98307.59400000008,
      "d": 225.96131250000326,
      "v": 85
    },
    {
      "midi": 69,
      "hit": false,
      "t": 98517.20917500045,
      "d": 532.6917750000139,
      "v": 73
    },
    {
      "midi": 42,
      "hit": false,
      "t": 98538.36300000007,
      "d": 225.96131250000326,
      "v": 86
    },
    {
      "midi": 36,
      "hit": false,
      "t": 98538.36300000007,
      "d": 225.96131250000326,
      "v": 123
    },
    {
      "midi": 45,
      "hit": false,
      "t": 98538.36300000008,
      "d": 225.96131250000326,
      "v": 94
    },
    {
      "midi": 52,
      "hit": false,
      "t": 98538.36300000008,
      "d": 225.96131250000326,
      "v": 74
    },
    {
      "midi": 45,
      "hit": false,
      "t": 98538.36300000008,
      "d": 225.96131250000326,
      "v": 83
    },
    {
      "midi": 57,
      "hit": false,
      "t": 98764.32431250045,
      "d": 397.1149875000119,
      "v": 80
    },
    {
      "midi": 42,
      "hit": false,
      "t": 98769.13200000007,
      "d": 225.96131250000326,
      "v": 92
    },
    {
      "midi": 36,
      "hit": false,
      "t": 98769.13200000007,
      "d": 456.7303125000035,
      "v": 110
    },
    {
      "midi": 45,
      "hit": false,
      "t": 98769.13200000009,
      "d": 456.7303125000035,
      "v": 107
    },
    {
      "midi": 52,
      "hit": false,
      "t": 98769.13200000009,
      "d": 225.96131250000326,
      "v": 83
    },
    {
      "midi": 45,
      "hit": false,
      "t": 98769.13200000009,
      "d": 225.96131250000326,
      "v": 86
    },
    {
      "midi": 60,
      "hit": false,
      "t": 98985.47793750046,
      "d": 138.46140000000014,
      "v": 73
    },
    {
      "midi": 46,
      "hit": false,
      "t": 98999.90100000007,
      "d": 225.96131250000326,
      "v": 89
    },
    {
      "midi": 52,
      "hit": false,
      "t": 98999.90100000009,
      "d": 225.96131250000326,
      "v": 79
    },
    {
      "midi": 45,
      "hit": false,
      "t": 98999.90100000009,
      "d": 225.96131250000326,
      "v": 86
    },
    {
      "midi": 57,
      "hit": false,
      "t": 99223.93923750047,
      "d": 84.61530000000494,
      "v": 25
    },
    {
      "midi": 42,
      "hit": false,
      "t": 99230.67000000007,
      "d": 225.96131250000326,
      "v": 92
    },
    {
      "midi": 38,
      "hit": false,
      "t": 99230.67000000007,
      "d": 225.96131250000326,
      "v": 110
    },
    {
      "midi": 47,
      "hit": false,
      "t": 99230.67000000009,
      "d": 225.96131250000326,
      "v": 110
    },
    {
      "midi": 45,
      "hit": false,
      "t": 99230.67000000009,
      "d": 225.96131250000326,
      "v": 86
    },
    {
      "midi": 52,
      "hit": false,
      "t": 99230.67000000009,
      "d": 225.96131250000326,
      "v": 80
    },
    {
      "midi": 64,
      "hit": false,
      "t": 99251.82382500047,
      "d": 131.73063750000438,
      "v": 50
    },
    {
      "midi": 60,
      "hit": false,
      "t": 99252.78536250046,
      "d": 43.26918750000186,
      "v": 52
    },
    {
      "midi": 64,
      "hit": false,
      "t": 99447.01593750047,
      "d": 85.57683750000433,
      "v": 63
    },
    {
      "midi": 42,
      "hit": false,
      "t": 99461.43900000007,
      "d": 225.96131250000326,
      "v": 79
    },
    {
      "midi": 36,
      "hit": false,
      "t": 99461.43900000007,
      "d": 225.96131250000326,
      "v": 120
    },
    {
      "midi": 45,
      "hit": false,
      "t": 99461.43900000009,
      "d": 225.96131250000326,
      "v": 101
    },
    {
      "midi": 52,
      "hit": false,
      "t": 99461.43900000009,
      "d": 225.96131250000326,
      "v": 85
    },
    {
      "midi": 45,
      "hit": false,
      "t": 99461.43900000009,
      "d": 225.96131250000326,
      "v": 94
    },
    {
      "midi": 42,
      "hit": false,
      "t": 99692.20800000007,
      "d": 225.96131250000326,
      "v": 89
    },
    {
      "midi": 36,
      "hit": false,
      "t": 99692.20800000007,
      "d": 456.7303125000035,
      "v": 113
    },
    {
      "midi": 38,
      "hit": false,
      "t": 99692.20800000009,
      "d": 456.7303125000035,
      "v": 113
    },
    {
      "midi": 55,
      "hit": false,
      "t": 99692.20800000009,
      "d": 225.96131250000326,
      "v": 94
    },
    {
      "midi": 48,
      "hit": false,
      "t": 99692.20800000009,
      "d": 225.96131250000326,
      "v": 90
    },
    {
      "midi": 60,
      "hit": false,
      "t": 99693.16953750048,
      "d": 745.1915625000111,
      "v": 88
    },
    {
      "midi": 64,
      "hit": false,
      "t": 99693.16953750048,
      "d": 829.806862500016,
      "v": 94
    },
    {
      "midi": 67,
      "hit": false,
      "t": 99695.09261250048,
      "d": 828.8453250000166,
      "v": 80
    },
    {
      "midi": 66,
      "hit": false,
      "t": 99715.28490000048,
      "d": 100.96143749999464,
      "v": 82
    },
    {
      "midi": 42,
      "hit": false,
      "t": 99922.97700000007,
      "d": 225.96131250000326,
      "v": 66
    },
    {
      "midi": 55,
      "hit": false,
      "t": 99922.97700000009,
      "d": 225.96131250000326,
      "v": 80
    },
    {
      "midi": 48,
      "hit": false,
      "t": 99922.97700000009,
      "d": 225.96131250000326,
      "v": 85
    },
    {
      "midi": 38,
      "hit": false,
      "t": 100153.74600000007,
      "d": 225.96131250000326,
      "v": 107
    },
    {
      "midi": 42,
      "hit": false,
      "t": 100153.74600000007,
      "d": 225.96131250000326,
      "v": 62
    },
    {
      "midi": 48,
      "hit": false,
      "t": 100153.74600000009,
      "d": 225.96131250000326,
      "v": 92
    },
    {
      "midi": 57,
      "hit": false,
      "t": 100153.74600000009,
      "d": 225.96131250000326,
      "v": 83
    },
    {
      "midi": 36,
      "hit": false,
      "t": 100384.51500000007,
      "d": 225.96131250000326,
      "v": 110
    },
    {
      "midi": 42,
      "hit": false,
      "t": 100384.51500000007,
      "d": 225.96131250000326,
      "v": 59
    },
    {
      "midi": 38,
      "hit": false,
      "t": 100384.51500000009,
      "d": 225.96131250000326,
      "v": 110
    },
    {
      "midi": 55,
      "hit": false,
      "t": 100384.51500000009,
      "d": 225.96131250000326,
      "v": 90
    },
    {
      "midi": 48,
      "hit": false,
      "t": 100384.51500000009,
      "d": 225.96131250000326,
      "v": 88
    },
    {
      "midi": 42,
      "hit": false,
      "t": 100615.28400000007,
      "d": 225.96131250000326,
      "v": 96
    },
    {
      "midi": 36,
      "hit": false,
      "t": 100615.28400000007,
      "d": 456.7303125000035,
      "v": 117
    },
    {
      "midi": 38,
      "hit": false,
      "t": 100615.28400000009,
      "d": 456.7303125000035,
      "v": 120
    },
    {
      "midi": 50,
      "hit": false,
      "t": 100615.28400000009,
      "d": 225.96131250000326,
      "v": 97
    },
    {
      "midi": 59,
      "hit": false,
      "t": 100615.28400000009,
      "d": 225.96131250000326,
      "v": 83
    },
    {
      "midi": 66,
      "hit": false,
      "t": 100623.93783750049,
      "d": 716.3454375000292,
      "v": 92
    },
    {
      "midi": 62,
      "hit": false,
      "t": 100623.93783750049,
      "d": 729.8069625000353,
      "v": 92
    },
    {
      "midi": 69,
      "hit": false,
      "t": 100624.89937500049,
      "d": 689.4223875000316,
      "v": 88
    },
    {
      "midi": 42,
      "hit": false,
      "t": 100846.05300000007,
      "d": 225.96131250000326,
      "v": 79
    },
    {
      "midi": 50,
      "hit": false,
      "t": 100846.05300000009,
      "d": 225.96131250000326,
      "v": 90
    },
    {
      "midi": 57,
      "hit": false,
      "t": 100846.05300000009,
      "d": 225.96131250000326,
      "v": 82
    },
    {
      "midi": 38,
      "hit": false,
      "t": 101076.82200000007,
      "d": 225.96131250000326,
      "v": 107
    },
    {
      "midi": 42,
      "hit": false,
      "t": 101076.82200000007,
      "d": 225.96131250000326,
      "v": 64
    },
    {
      "midi": 38,
      "hit": false,
      "t": 101076.82200000009,
      "d": 225.96131250000326,
      "v": 117
    },
    {
      "midi": 50,
      "hit": false,
      "t": 101076.82200000009,
      "d": 225.96131250000326,
      "v": 90
    },
    {
      "midi": 59,
      "hit": false,
      "t": 101076.82200000009,
      "d": 225.96131250000326,
      "v": 78
    },
    {
      "midi": 36,
      "hit": false,
      "t": 101307.59100000007,
      "d": 225.96131250000326,
      "v": 99
    },
    {
      "midi": 42,
      "hit": false,
      "t": 101307.59100000007,
      "d": 225.96131250000326,
      "v": 77
    },
    {
      "midi": 40,
      "hit": false,
      "t": 101307.59100000009,
      "d": 225.96131250000326,
      "v": 110
    },
    {
      "midi": 50,
      "hit": false,
      "t": 101307.59100000009,
      "d": 225.96131250000326,
      "v": 94
    },
    {
      "midi": 57,
      "hit": false,
      "t": 101307.59100000009,
      "d": 225.96131250000326,
      "v": 83
    },
    {
      "midi": 42,
      "hit": false,
      "t": 101538.36000000007,
      "d": 225.96131250000326,
      "v": 92
    },
    {
      "midi": 36,
      "hit": false,
      "t": 101538.36000000007,
      "d": 456.7303125000035,
      "v": 110
    },
    {
      "midi": 43,
      "hit": false,
      "t": 101538.36000000009,
      "d": 456.7303125000035,
      "v": 113
    },
    {
      "midi": 43,
      "hit": false,
      "t": 101538.36000000009,
      "d": 225.96131250000326,
      "v": 90
    },
    {
      "midi": 50,
      "hit": false,
      "t": 101538.36000000009,
      "d": 225.96131250000326,
      "v": 86
    },
    {
      "midi": 55,
      "hit": false,
      "t": 101547.97537500052,
      "d": 679.8070125000377,
      "v": 101
    },
    {
      "midi": 59,
      "hit": false,
      "t": 101764.32131250056,
      "d": 517.3071749999945,
      "v": 75
    },
    {
      "midi": 42,
      "hit": false,
      "t": 101769.12900000007,
      "d": 225.96131250000326,
      "v": 60
    },
    {
      "midi": 50,
      "hit": false,
      "t": 101769.12900000009,
      "d": 225.96131250000326,
      "v": 78
    },
    {
      "midi": 43,
      "hit": false,
      "t": 101769.12900000009,
      "d": 225.96131250000326,
      "v": 88
    },
    {
      "midi": 62,
      "hit": false,
      "t": 101996.05185000056,
      "d": 286.5381749999942,
      "v": 83
    },
    {
      "midi": 38,
      "hit": false,
      "t": 101999.89800000007,
      "d": 225.96131250000326,
      "v": 110
    },
    {
      "midi": 42,
      "hit": false,
      "t": 101999.89800000007,
      "d": 225.96131250000326,
      "v": 66
    },
    {
      "midi": 43,
      "hit": false,
      "t": 101999.89800000009,
      "d": 225.96131250000326,
      "v": 90
    },
    {
      "midi": 52,
      "hit": false,
      "t": 101999.89800000009,
      "d": 225.96131250000326,
      "v": 82
    },
    {
      "midi": 67,
      "hit": false,
      "t": 102227.78238750056,
      "d": 79.80761249999341,
      "v": 76
    },
    {
      "midi": 36,
      "hit": false,
      "t": 102230.66700000007,
      "d": 225.96131250000326,
      "v": 104
    },
    {
      "midi": 42,
      "hit": false,
      "t": 102230.66700000007,
      "d": 225.96131250000326,
      "v": 62
    },
    {
      "midi": 43,
      "hit": false,
      "t": 102230.66700000009,
      "d": 225.96131250000326,
      "v": 104
    },
    {
      "midi": 50,
      "hit": false,
      "t": 102230.66700000009,
      "d": 225.96131250000326,
      "v": 85
    },
    {
      "midi": 43,
      "hit": false,
      "t": 102230.66700000009,
      "d": 225.96131250000326,
      "v": 90
    },
    {
      "midi": 42,
      "hit": false,
      "t": 102461.43600000007,
      "d": 225.96131250000326,
      "v": 86
    },
    {
      "midi": 36,
      "hit": false,
      "t": 102461.43600000007,
      "d": 456.7303125000035,
      "v": 110
    },
    {
      "midi": 38,
      "hit": false,
      "t": 102461.43600000009,
      "d": 456.7303125000035,
      "v": 113
    },
    {
      "midi": 45,
      "hit": false,
      "t": 102461.43600000009,
      "d": 225.96131250000326,
      "v": 97
    },
    {
      "midi": 50,
      "hit": false,
      "t": 102461.43600000009,
      "d": 225.96131250000326,
      "v": 86
    },
    {
      "midi": 50,
      "hit": false,
      "t": 102467.20522500055,
      "d": 680.7685499999934,
      "v": 92
    },
    {
      "midi": 42,
      "hit": false,
      "t": 102692.20500000007,
      "d": 225.96131250000326,
      "v": 75
    },
    {
      "midi": 45,
      "hit": false,
      "t": 102692.20500000009,
      "d": 225.96131250000326,
      "v": 90
    },
    {
      "midi": 50,
      "hit": false,
      "t": 102692.20500000009,
      "d": 225.96131250000326,
      "v": 76
    },
    {
      "midi": 54,
      "hit": false,
      "t": 102708.55113750054,
      "d": 456.7303125000035,
      "v": 74
    },
    {
      "midi": 38,
      "hit": false,
      "t": 102922.97400000007,
      "d": 225.96131250000326,
      "v": 107
    },
    {
      "midi": 42,
      "hit": false,
      "t": 102922.97400000007,
      "d": 225.96131250000326,
      "v": 69
    },
    {
      "midi": 45,
      "hit": false,
      "t": 102922.97400000009,
      "d": 225.96131250000326,
      "v": 92
    },
    {
      "midi": 52,
      "hit": false,
      "t": 102922.97400000009,
      "d": 225.96131250000326,
      "v": 83
    },
    {
      "midi": 57,
      "hit": false,
      "t": 102929.70476250055,
      "d": 261.5381999999954,
      "v": 75
    },
    {
      "midi": 62,
      "hit": false,
      "t": 103148.93531250054,
      "d": 105.76912500000617,
      "v": 86
    },
    {
      "midi": 36,
      "hit": false,
      "t": 103153.74300000007,
      "d": 225.96131250000326,
      "v": 97
    },
    {
      "midi": 42,
      "hit": false,
      "t": 103153.74300000007,
      "d": 225.96131250000326,
      "v": 79
    },
    {
      "midi": 38,
      "hit": false,
      "t": 103153.74300000009,
      "d": 225.96131250000326,
      "v": 117
    },
    {
      "midi": 50,
      "hit": false,
      "t": 103153.74300000009,
      "d": 225.96131250000326,
      "v": 83
    },
    {
      "midi": 45,
      "hit": false,
      "t": 103153.74300000009,
      "d": 225.96131250000326,
      "v": 85
    },
    {
      "midi": 55,
      "hit": false,
      "t": 103376.81970000055,
      "d": 729.8069625000207,
      "v": 85
    },
    {
      "midi": 42,
      "hit": false,
      "t": 103384.51200000008,
      "d": 225.96131250000326,
      "v": 96
    },
    {
      "midi": 36,
      "hit": false,
      "t": 103384.51200000008,
      "d": 456.7303125000035,
      "v": 113
    },
    {
      "midi": 43,
      "hit": false,
      "t": 103384.51200000009,
      "d": 456.7303125000035,
      "v": 110
    },
    {
      "midi": 50,
      "hit": false,
      "t": 103384.51200000009,
      "d": 225.96131250000326,
      "v": 83
    },
    {
      "midi": 43,
      "hit": false,
      "t": 103384.51200000009,
      "d": 225.96131250000326,
      "v": 99
    },
    {
      "midi": 42,
      "hit": false,
      "t": 103615.28100000008,
      "d": 225.96131250000326,
      "v": 77
    },
    {
      "midi": 43,
      "hit": false,
      "t": 103615.28100000009,
      "d": 225.96131250000326,
      "v": 92
    },
    {
      "midi": 50,
      "hit": false,
      "t": 103615.28100000009,
      "d": 225.96131250000326,
      "v": 80
    },
    {
      "midi": 59,
      "hit": false,
      "t": 103626.81945000056,
      "d": 541.3456125000084,
      "v": 76
    },
    {
      "midi": 62,
      "hit": false,
      "t": 103833.55001250056,
      "d": 1046.1528000000544,
      "v": 78
    },
    {
      "midi": 38,
      "hit": false,
      "t": 103846.05000000008,
      "d": 225.96131250000326,
      "v": 113
    },
    {
      "midi": 42,
      "hit": false,
      "t": 103846.05000000008,
      "d": 225.96131250000326,
      "v": 71
    },
    {
      "midi": 52,
      "hit": false,
      "t": 103846.05000000009,
      "d": 225.96131250000326,
      "v": 83
    },
    {
      "midi": 43,
      "hit": false,
      "t": 103846.05000000009,
      "d": 225.96131250000326,
      "v": 90
    },
    {
      "midi": 36,
      "hit": false,
      "t": 104076.81900000008,
      "d": 225.96131250000326,
      "v": 104
    },
    {
      "midi": 42,
      "hit": false,
      "t": 104076.81900000008,
      "d": 225.96131250000326,
      "v": 73
    },
    {
      "midi": 38,
      "hit": false,
      "t": 104076.81900000009,
      "d": 225.96131250000326,
      "v": 113
    },
    {
      "midi": 43,
      "hit": false,
      "t": 104076.81900000009,
      "d": 225.96131250000326,
      "v": 88
    },
    {
      "midi": 50,
      "hit": false,
      "t": 104076.81900000009,
      "d": 225.96131250000326,
      "v": 75
    },
    {
      "midi": 67,
      "hit": false,
      "t": 104078.74207500057,
      "d": 315.3843000000197,
      "v": 70
    },
    {
      "midi": 43,
      "hit": false,
      "t": 104307.58800000002,
      "d": 456.7303125000035,
      "v": 65
    },
    {
      "midi": 42,
      "hit": false,
      "t": 104307.58800000008,
      "d": 225.96131250000326,
      "v": 84
    },
    {
      "midi": 36,
      "hit": false,
      "t": 104307.58800000008,
      "d": 456.7303125000035,
      "v": 110
    },
    {
      "midi": 43,
      "hit": false,
      "t": 104307.58800000009,
      "d": 456.7303125000035,
      "v": 113
    },
    {
      "midi": 50,
      "hit": false,
      "t": 104307.58800000009,
      "d": 225.96131250000326,
      "v": 85
    },
    {
      "midi": 43,
      "hit": false,
      "t": 104307.58800000009,
      "d": 225.96131250000326,
      "v": 94
    },
    {
      "midi": 55,
      "hit": false,
      "t": 104326.81875000057,
      "d": 324.99967500001367,
      "v": 101
    },
    {
      "midi": 42,
      "hit": false,
      "t": 104538.35700000008,
      "d": 225.96131250000326,
      "v": 81
    },
    {
      "midi": 50,
      "hit": false,
      "t": 104538.35700000009,
      "d": 225.96131250000326,
      "v": 83
    },
    {
      "midi": 43,
      "hit": false,
      "t": 104538.35700000009,
      "d": 225.96131250000326,
      "v": 90
    },
    {
      "midi": 42,
      "hit": false,
      "t": 104769.12600000002,
      "d": 456.7303125000035,
      "v": 55
    },
    {
      "midi": 38,
      "hit": false,
      "t": 104769.12600000008,
      "d": 225.96131250000326,
      "v": 113
    },
    {
      "midi": 42,
      "hit": false,
      "t": 104769.12600000008,
      "d": 225.96131250000326,
      "v": 86
    },
    {
      "midi": 42,
      "hit": false,
      "t": 104769.12600000009,
      "d": 456.7303125000035,
      "v": 109
    },
    {
      "midi": 50,
      "hit": false,
      "t": 104769.12600000009,
      "d": 225.96131250000326,
      "v": 86
    },
    {
      "midi": 42,
      "hit": false,
      "t": 104769.12600000009,
      "d": 225.96131250000326,
      "v": 92
    },
    {
      "midi": 54,
      "hit": false,
      "t": 104786.43367500059,
      "d": 365.38425000004645,
      "v": 104
    },
    {
      "midi": 36,
      "hit": false,
      "t": 104999.89500000008,
      "d": 225.96131250000326,
      "v": 113
    },
    {
      "midi": 46,
      "hit": false,
      "t": 104999.89500000008,
      "d": 225.96131250000326,
      "v": 79
    },
    {
      "midi": 50,
      "hit": false,
      "t": 104999.89500000009,
      "d": 225.96131250000326,
      "v": 85
    },
    {
      "midi": 42,
      "hit": false,
      "t": 104999.89500000009,
      "d": 225.96131250000326,
      "v": 89
    },
    {
      "midi": 42,
      "hit": false,
      "t": 105230.66400000008,
      "d": 225.96131250000326,
      "v": 89
    },
    {
      "midi": 57,
      "hit": false,
      "t": 105230.66400000008,
      "d": 225.96131250000326,
      "v": 110
    },
    {
      "midi": 36,
      "hit": false,
      "t": 105230.66400000008,
      "d": 456.7303125000035,
      "v": 113
    },
    {
      "midi": 40,
      "hit": false,
      "t": 105230.66400000009,
      "d": 456.7303125000035,
      "v": 117
    },
    {
      "midi": 47,
      "hit": false,
      "t": 105230.66400000009,
      "d": 225.96131250000326,
      "v": 94
    },
    {
      "midi": 52,
      "hit": false,
      "t": 105230.66400000009,
      "d": 225.96131250000326,
      "v": 82
    },
    {
      "midi": 52,
      "hit": false,
      "t": 105251.81782500063,
      "d": 661.5378000000055,
      "v": 94
    },
    {
      "midi": 42,
      "hit": false,
      "t": 105461.43300000008,
      "d": 225.96131250000326,
      "v": 81
    },
    {
      "midi": 52,
      "hit": false,
      "t": 105461.43300000009,
      "d": 225.96131250000326,
      "v": 71
    },
    {
      "midi": 47,
      "hit": false,
      "t": 105461.43300000009,
      "d": 225.96131250000326,
      "v": 82
    },
    {
      "midi": 55,
      "hit": false,
      "t": 105471.04837500062,
      "d": 496.15335000002233,
      "v": 86
    },
    {
      "midi": 42,
      "hit": false,
      "t": 105692.20200000008,
      "d": 225.96131250000326,
      "v": 84
    },
    {
      "midi": 38,
      "hit": false,
      "t": 105692.20200000008,
      "d": 225.96131250000326,
      "v": 113
    },
    {
      "midi": 52,
      "hit": false,
      "t": 105692.20200000009,
      "d": 225.96131250000326,
      "v": 74
    },
    {
      "midi": 47,
      "hit": false,
      "t": 105692.20200000009,
      "d": 225.96131250000326,
      "v": 83
    },
    {
      "midi": 59,
      "hit": false,
      "t": 105693.16353750063,
      "d": 299.99970000001485,
      "v": 78
    },
    {
      "midi": 42,
      "hit": false,
      "t": 105922.97100000008,
      "d": 225.96131250000326,
      "v": 86
    },
    {
      "midi": 36,
      "hit": false,
      "t": 105922.97100000008,
      "d": 225.96131250000326,
      "v": 123
    },
    {
      "midi": 40,
      "hit": false,
      "t": 105922.97100000009,
      "d": 225.96131250000326,
      "v": 104
    },
    {
      "midi": 52,
      "hit": false,
      "t": 105922.97100000009,
      "d": 225.96131250000326,
      "v": 79
    },
    {
      "midi": 47,
      "hit": false,
      "t": 105922.97100000009,
      "d": 225.96131250000326,
      "v": 86
    },
    {
      "midi": 64,
      "hit": false,
      "t": 105927.77868750064,
      "d": 125.96141250000801,
      "v": 75
    },
    {
      "midi": 50,
      "hit": false,
      "t": 106128.74002500065,
      "d": 708.653137500005,
      "v": 67
    },
    {
      "midi": 42,
      "hit": false,
      "t": 106153.74000000008,
      "d": 225.96131250000326,
      "v": 92
    },
    {
      "midi": 36,
      "hit": false,
      "t": 106153.74000000008,
      "d": 456.7303125000035,
      "v": 110
    },
    {
      "midi": 38,
      "hit": false,
      "t": 106153.74000000009,
      "d": 456.7303125000035,
      "v": 110
    },
    {
      "midi": 45,
      "hit": false,
      "t": 106153.74000000009,
      "d": 225.96131250000326,
      "v": 94
    },
    {
      "midi": 50,
      "hit": false,
      "t": 106153.74000000009,
      "d": 225.96131250000326,
      "v": 82
    },
    {
      "midi": 46,
      "hit": false,
      "t": 106384.50900000008,
      "d": 225.96131250000326,
      "v": 89
    },
    {
      "midi": 50,
      "hit": false,
      "t": 106384.5090000001,
      "d": 225.96131250000326,
      "v": 83
    },
    {
      "midi": 45,
      "hit": false,
      "t": 106384.5090000001,
      "d": 225.96131250000326,
      "v": 86
    },
    {
      "midi": 54,
      "hit": false,
      "t": 106385.47053750065,
      "d": 454.8072375000047,
      "v": 75
    },
    {
      "midi": 57,
      "hit": false,
      "t": 106605.66262500065,
      "d": 262.4997374999948,
      "v": 76
    },
    {
      "midi": 42,
      "hit": false,
      "t": 106615.27800000008,
      "d": 225.96131250000326,
      "v": 92
    },
    {
      "midi": 38,
      "hit": false,
      "t": 106615.27800000008,
      "d": 225.96131250000326,
      "v": 110
    },
    {
      "midi": 50,
      "hit": false,
      "t": 106615.2780000001,
      "d": 225.96131250000326,
      "v": 76
    },
    {
      "midi": 45,
      "hit": false,
      "t": 106615.2780000001,
      "d": 225.96131250000326,
      "v": 83
    },
    {
      "midi": 62,
      "hit": false,
      "t": 106839.31623750065,
      "d": 103.84604999999283,
      "v": 83
    },
    {
      "midi": 42,
      "hit": false,
      "t": 106846.04700000008,
      "d": 225.96131250000326,
      "v": 79
    },
    {
      "midi": 36,
      "hit": false,
      "t": 106846.04700000008,
      "d": 225.96131250000326,
      "v": 120
    },
    {
      "midi": 42,
      "hit": false,
      "t": 106846.0470000001,
      "d": 225.96131250000326,
      "v": 104
    },
    {
      "midi": 50,
      "hit": false,
      "t": 106846.0470000001,
      "d": 225.96131250000326,
      "v": 80
    },
    {
      "midi": 45,
      "hit": false,
      "t": 106846.0470000001,
      "d": 225.96131250000326,
      "v": 90
    },
    {
      "midi": 55,
      "hit": false,
      "t": 107066.23908750064,
      "d": 729.8069624999916,
      "v": 88
    },
    {
      "midi": 50,
      "hit": false,
      "t": 107076.81600000002,
      "d": 456.7303125000035,
      "v": 72
    },
    {
      "midi": 43,
      "hit": false,
      "t": 107076.81600000002,
      "d": 456.7303125000035,
      "v": 63
    },
    {
      "midi": 42,
      "hit": false,
      "t": 107076.81600000008,
      "d": 225.96131250000326,
      "v": 89
    },
    {
      "midi": 36,
      "hit": false,
      "t": 107076.81600000008,
      "d": 456.7303125000035,
      "v": 113
    },
    {
      "midi": 43,
      "hit": false,
      "t": 107076.8160000001,
      "d": 456.7303125000035,
      "v": 113
    },
    {
      "midi": 50,
      "hit": false,
      "t": 107076.8160000001,
      "d": 225.96131250000326,
      "v": 82
    },
    {
      "midi": 43,
      "hit": false,
      "t": 107076.8160000001,
      "d": 225.96131250000326,
      "v": 99
    },
    {
      "midi": 59,
      "hit": false,
      "t": 107301.81577500064,
      "d": 917.30677499999,
      "v": 64
    },
    {
      "midi": 42,
      "hit": false,
      "t": 107307.58500000008,
      "d": 225.96131250000326,
      "v": 66
    },
    {
      "midi": 50,
      "hit": false,
      "t": 107307.5850000001,
      "d": 225.96131250000326,
      "v": 80
    },
    {
      "midi": 43,
      "hit": false,
      "t": 107307.5850000001,
      "d": 225.96131250000326,
      "v": 97
    },
    {
      "midi": 62,
      "hit": false,
      "t": 107535.46938750063,
      "d": 959.6144249999925,
      "v": 74
    },
    {
      "midi": 52,
      "hit": false,
      "t": 107538.35400000002,
      "d": 456.7303125000035,
      "v": 72
    },
    {
      "midi": 43,
      "hit": false,
      "t": 107538.35400000002,
      "d": 456.7303125000035,
      "v": 58
    },
    {
      "midi": 38,
      "hit": false,
      "t": 107538.35400000008,
      "d": 225.96131250000326,
      "v": 107
    },
    {
      "midi": 42,
      "hit": false,
      "t": 107538.35400000008,
      "d": 225.96131250000326,
      "v": 62
    },
    {
      "midi": 43,
      "hit": false,
      "t": 107538.3540000001,
      "d": 225.96131250000326,
      "v": 97
    },
    {
      "midi": 52,
      "hit": false,
      "t": 107538.3540000001,
      "d": 225.96131250000326,
      "v": 79
    },
    {
      "midi": 67,
      "hit": false,
      "t": 107768.16146250063,
      "d": 752.8838624999917,
      "v": 69
    },
    {
      "midi": 36,
      "hit": false,
      "t": 107769.12300000008,
      "d": 225.96131250000326,
      "v": 110
    },
    {
      "midi": 42,
      "hit": false,
      "t": 107769.12300000008,
      "d": 225.96131250000326,
      "v": 59
    },
    {
      "midi": 38,
      "hit": false,
      "t": 107769.1230000001,
      "d": 225.96131250000326,
      "v": 117
    },
    {
      "midi": 43,
      "hit": false,
      "t": 107769.1230000001,
      "d": 225.96131250000326,
      "v": 97
    },
    {
      "midi": 50,
      "hit": false,
      "t": 107769.1230000001,
      "d": 225.96131250000326,
      "v": 79
    },
    {
      "midi": 43,
      "hit": false,
      "t": 107999.89200000002,
      "d": 456.7303125000035,
      "v": 54
    },
    {
      "midi": 50,
      "hit": false,
      "t": 107999.89200000002,
      "d": 456.7303125000035,
      "v": 73
    },
    {
      "midi": 42,
      "hit": false,
      "t": 107999.89200000008,
      "d": 225.96131250000326,
      "v": 96
    },
    {
      "midi": 36,
      "hit": false,
      "t": 107999.89200000008,
      "d": 456.7303125000035,
      "v": 117
    },
    {
      "midi": 40,
      "hit": false,
      "t": 107999.8920000001,
      "d": 225.96131250000326,
      "v": 101
    },
    {
      "midi": 50,
      "hit": false,
      "t": 107999.8920000001,
      "d": 225.96131250000326,
      "v": 83
    },
    {
      "midi": 43,
      "hit": false,
      "t": 107999.8920000001,
      "d": 225.96131250000326,
      "v": 97
    },
    {
      "midi": 42,
      "hit": false,
      "t": 108230.66100000008,
      "d": 225.96131250000326,
      "v": 79
    },
    {
      "midi": 43,
      "hit": false,
      "t": 108230.6610000001,
      "d": 225.96131250000326,
      "v": 101
    },
    {
      "midi": 43,
      "hit": false,
      "t": 108230.6610000001,
      "d": 225.96131250000326,
      "v": 94
    },
    {
      "midi": 50,
      "hit": false,
      "t": 108230.6610000001,
      "d": 225.96131250000326,
      "v": 75
    },
    {
      "midi": 55,
      "hit": false,
      "t": 108233.54561250063,
      "d": 510.5764124999987,
      "v": 83
    },
    {
      "midi": 59,
      "hit": false,
      "t": 108443.16078750063,
      "d": 325.9612124999985,
      "v": 76
    },
    {
      "midi": 43,
      "hit": false,
      "t": 108461.43000000002,
      "d": 0.9615374999993946,
      "v": 53
    },
    {
      "midi": 52,
      "hit": false,
      "t": 108461.43000000002,
      "d": 456.7303125000035,
      "v": 73
    },
    {
      "midi": 38,
      "hit": false,
      "t": 108461.43000000008,
      "d": 225.96131250000326,
      "v": 107
    },
    {
      "midi": 42,
      "hit": false,
      "t": 108461.43000000008,
      "d": 225.96131250000326,
      "v": 64
    },
    {
      "midi": 40,
      "hit": false,
      "t": 108461.4300000001,
      "d": 225.96131250000326,
      "v": 107
    },
    {
      "midi": 43,
      "hit": false,
      "t": 108461.4300000001,
      "d": 225.96131250000326,
      "v": 97
    },
    {
      "midi": 52,
      "hit": false,
      "t": 108461.4300000001,
      "d": 225.96131250000326,
      "v": 80
    },
    {
      "midi": 36,
      "hit": false,
      "t": 108692.19900000008,
      "d": 225.96131250000326,
      "v": 99
    },
    {
      "midi": 42,
      "hit": false,
      "t": 108692.19900000008,
      "d": 225.96131250000326,
      "v": 77
    },
    {
      "midi": 43,
      "hit": false,
      "t": 108692.1990000001,
      "d": 225.96131250000326,
      "v": 110
    },
    {
      "midi": 43,
      "hit": false,
      "t": 108692.1990000001,
      "d": 225.96131250000326,
      "v": 101
    },
    {
      "midi": 50,
      "hit": false,
      "t": 108692.1990000001,
      "d": 225.96131250000326,
      "v": 85
    },
    {
      "midi": 62,
      "hit": false,
      "t": 108703.73745000063,
      "d": 127.8844875000068,
      "v": 64
    },
    {
      "midi": 42,
      "hit": false,
      "t": 108922.96800000008,
      "d": 225.96131250000326,
      "v": 92
    },
    {
      "midi": 36,
      "hit": false,
      "t": 108922.96800000008,
      "d": 456.7303125000035,
      "v": 110
    },
    {
      "midi": 45,
      "hit": false,
      "t": 108922.9680000001,
      "d": 456.7303125000035,
      "v": 107
    },
    {
      "midi": 52,
      "hit": false,
      "t": 108922.9680000001,
      "d": 225.96131250000326,
      "v": 82
    },
    {
      "midi": 45,
      "hit": false,
      "t": 108922.9680000001,
      "d": 225.96131250000326,
      "v": 86
    },
    {
      "midi": 57,
      "hit": false,
      "t": 108943.16028750064,
      "d": 754.806937500005,
      "v": 90
    },
    {
      "midi": 42,
      "hit": false,
      "t": 109153.73700000008,
      "d": 225.96131250000326,
      "v": 60
    },
    {
      "midi": 52,
      "hit": false,
      "t": 109153.7370000001,
      "d": 225.96131250000326,
      "v": 75
    },
    {
      "midi": 45,
      "hit": false,
      "t": 109153.7370000001,
      "d": 225.96131250000326,
      "v": 83
    },
    {
      "midi": 60,
      "hit": false,
      "t": 109168.16006250064,
      "d": 615.3840000000055,
      "v": 85
    },
    {
      "midi": 38,
      "hit": false,
      "t": 109384.50600000008,
      "d": 225.96131250000326,
      "v": 110
    },
    {
      "midi": 42,
      "hit": false,
      "t": 109384.50600000008,
      "d": 225.96131250000326,
      "v": 66
    },
    {
      "midi": 52,
      "hit": false,
      "t": 109384.5060000001,
      "d": 225.96131250000326,
      "v": 76
    },
    {
      "midi": 45,
      "hit": false,
      "t": 109384.5060000001,
      "d": 225.96131250000326,
      "v": 90
    },
    {
      "midi": 64,
      "hit": false,
      "t": 109401.81367500064,
      "d": 923.0760000000155,
      "v": 82
    },
    {
      "midi": 36,
      "hit": false,
      "t": 109615.27500000008,
      "d": 225.96131250000326,
      "v": 104
    },
    {
      "midi": 42,
      "hit": false,
      "t": 109615.27500000008,
      "d": 225.96131250000326,
      "v": 62
    },
    {
      "midi": 45,
      "hit": false,
      "t": 109615.2750000001,
      "d": 225.96131250000326,
      "v": 94
    },
    {
      "midi": 52,
      "hit": false,
      "t": 109615.2750000001,
      "d": 225.96131250000326,
      "v": 78
    },
    {
      "midi": 45,
      "hit": false,
      "t": 109615.2750000001,
      "d": 225.96131250000326,
      "v": 80
    },
    {
      "midi": 69,
      "hit": false,
      "t": 109622.00576250064,
      "d": 529.8071625000011,
      "v": 68
    },
    {
      "midi": 42,
      "hit": false,
      "t": 109846.04400000008,
      "d": 225.96131250000326,
      "v": 86
    },
    {
      "midi": 36,
      "hit": false,
      "t": 109846.04400000008,
      "d": 456.7303125000035,
      "v": 110
    },
    {
      "midi": 45,
      "hit": false,
      "t": 109846.0440000001,
      "d": 456.7303125000035,
      "v": 107
    },
    {
      "midi": 52,
      "hit": false,
      "t": 109846.0440000001,
      "d": 225.96131250000326,
      "v": 75
    },
    {
      "midi": 45,
      "hit": false,
      "t": 109846.0440000001,
      "d": 225.96131250000326,
      "v": 94
    },
    {
      "midi": 57,
      "hit": false,
      "t": 110062.38993750064,
      "d": 374.9996250000113,
      "v": 71
    },
    {
      "midi": 42,
      "hit": false,
      "t": 110076.81300000008,
      "d": 225.96131250000326,
      "v": 75
    },
    {
      "midi": 52,
      "hit": false,
      "t": 110076.8130000001,
      "d": 225.96131250000326,
      "v": 74
    },
    {
      "midi": 45,
      "hit": false,
      "t": 110076.8130000001,
      "d": 225.96131250000326,
      "v": 92
    },
    {
      "midi": 38,
      "hit": false,
      "t": 110307.58200000008,
      "d": 225.96131250000326,
      "v": 107
    },
    {
      "midi": 42,
      "hit": false,
      "t": 110307.58200000008,
      "d": 225.96131250000326,
      "v": 69
    },
    {
      "midi": 47,
      "hit": false,
      "t": 110307.5820000001,
      "d": 225.96131250000326,
      "v": 110
    },
    {
      "midi": 52,
      "hit": false,
      "t": 110307.5820000001,
      "d": 225.96131250000326,
      "v": 80
    },
    {
      "midi": 45,
      "hit": false,
      "t": 110307.5820000001,
      "d": 225.96131250000326,
      "v": 94
    },
    {
      "midi": 60,
      "hit": false,
      "t": 110309.50507500065,
      "d": 100.9614375000092,
      "v": 61
    },
    {
      "midi": 64,
      "hit": false,
      "t": 110522.96640000066,
      "d": 76.92299999999523,
      "v": 76
    },
    {
      "midi": 36,
      "hit": false,
      "t": 110538.35100000008,
      "d": 225.96131250000326,
      "v": 97
    },
    {
      "midi": 42,
      "hit": false,
      "t": 110538.35100000008,
      "d": 225.96131250000326,
      "v": 79
    },
    {
      "midi": 45,
      "hit": false,
      "t": 110538.3510000001,
      "d": 225.96131250000326,
      "v": 101
    },
    {
      "midi": 52,
      "hit": false,
      "t": 110538.3510000001,
      "d": 225.96131250000326,
      "v": 82
    },
    {
      "midi": 45,
      "hit": false,
      "t": 110538.3510000001,
      "d": 225.96131250000326,
      "v": 94
    },
    {
      "midi": 42,
      "hit": false,
      "t": 110769.12000000008,
      "d": 225.96131250000326,
      "v": 96
    },
    {
      "midi": 36,
      "hit": false,
      "t": 110769.12000000008,
      "d": 456.7303125000035,
      "v": 113
    },
    {
      "midi": 38,
      "hit": false,
      "t": 110769.1200000001,
      "d": 456.7303125000035,
      "v": 113
    },
    {
      "midi": 55,
      "hit": false,
      "t": 110769.1200000001,
      "d": 225.96131250000326,
      "v": 90
    },
    {
      "midi": 48,
      "hit": false,
      "t": 110769.1200000001,
      "d": 225.96131250000326,
      "v": 92
    },
    {
      "midi": 60,
      "hit": false,
      "t": 110769.12000000065,
      "d": 1005.7682250000071,
      "v": 90
    },
    {
      "midi": 64,
      "hit": false,
      "t": 110785.46613750065,
      "d": 1441.3447125000093,
      "v": 104
    },
    {
      "midi": 67,
      "hit": false,
      "t": 110786.42767500065,
      "d": 1646.1522000000114,
      "v": 97
    },
    {
      "midi": 42,
      "hit": false,
      "t": 110999.88900000008,
      "d": 225.96131250000326,
      "v": 77
    },
    {
      "midi": 55,
      "hit": false,
      "t": 110999.8890000001,
      "d": 225.96131250000326,
      "v": 80
    },
    {
      "midi": 48,
      "hit": false,
      "t": 110999.8890000001,
      "d": 225.96131250000326,
      "v": 92
    },
    {
      "midi": 38,
      "hit": false,
      "t": 111230.65800000008,
      "d": 225.96131250000326,
      "v": 113
    },
    {
      "midi": 42,
      "hit": false,
      "t": 111230.65800000008,
      "d": 225.96131250000326,
      "v": 71
    },
    {
      "midi": 48,
      "hit": false,
      "t": 111230.6580000001,
      "d": 225.96131250000326,
      "v": 94
    },
    {
      "midi": 57,
      "hit": false,
      "t": 111230.6580000001,
      "d": 225.96131250000326,
      "v": 80
    },
    {
      "midi": 36,
      "hit": false,
      "t": 111461.42700000008,
      "d": 225.96131250000326,
      "v": 104
    },
    {
      "midi": 42,
      "hit": false,
      "t": 111461.42700000008,
      "d": 225.96131250000326,
      "v": 73
    },
    {
      "midi": 38,
      "hit": false,
      "t": 111461.4270000001,
      "d": 225.96131250000326,
      "v": 110
    },
    {
      "midi": 55,
      "hit": false,
      "t": 111461.4270000001,
      "d": 225.96131250000326,
      "v": 83
    },
    {
      "midi": 48,
      "hit": false,
      "t": 111461.4270000001,
      "d": 225.96131250000326,
      "v": 94
    },
    {
      "midi": 72,
      "hit": false,
      "t": 111683.54216250066,
      "d": 761.5377000000153,
      "v": 76
    },
    {
      "midi": 42,
      "hit": false,
      "t": 111692.19600000008,
      "d": 225.96131250000326,
      "v": 84
    },
    {
      "midi": 36,
      "hit": false,
      "t": 111692.19600000008,
      "d": 456.7303125000035,
      "v": 110
    },
    {
      "midi": 38,
      "hit": false,
      "t": 111692.1960000001,
      "d": 456.7303125000035,
      "v": 120
    },
    {
      "midi": 55,
      "hit": false,
      "t": 111692.1960000001,
      "d": 225.96131250000326,
      "v": 88
    },
    {
      "midi": 48,
      "hit": false,
      "t": 111692.1960000001,
      "d": 225.96131250000326,
      "v": 99
    },
    {
      "midi": 71,
      "hit": false,
      "t": 111698.92676250066,
      "d": 138.46140000000014,
      "v": 66
    },
    {
      "midi": 42,
      "hit": false,
      "t": 111922.96500000008,
      "d": 225.96131250000326,
      "v": 81
    },
    {
      "midi": 55,
      "hit": false,
      "t": 111922.9650000001,
      "d": 225.96131250000326,
      "v": 83
    },
    {
      "midi": 48,
      "hit": false,
      "t": 111922.9650000001,
      "d": 225.96131250000326,
      "v": 88
    },
    {
      "midi": 38,
      "hit": false,
      "t": 112153.73400000008,
      "d": 225.96131250000326,
      "v": 113
    },
    {
      "midi": 42,
      "hit": false,
      "t": 112153.73400000008,
      "d": 225.96131250000326,
      "v": 86
    },
    {
      "midi": 38,
      "hit": false,
      "t": 112153.7340000001,
      "d": 225.96131250000326,
      "v": 117
    },
    {
      "midi": 48,
      "hit": false,
      "t": 112153.7340000001,
      "d": 225.96131250000326,
      "v": 99
    },
    {
      "midi": 57,
      "hit": false,
      "t": 112153.7340000001,
      "d": 225.96131250000326,
      "v": 83
    },
    {
      "midi": 60,
      "hit": false,
      "t": 112175.84936250067,
      "d": 296.1535500000027,
      "v": 80
    },
    {
      "midi": 36,
      "hit": false,
      "t": 112384.50300000008,
      "d": 225.96131250000326,
      "v": 113
    },
    {
      "midi": 46,
      "hit": false,
      "t": 112384.50300000008,
      "d": 225.96131250000326,
      "v": 79
    },
    {
      "midi": 40,
      "hit": false,
      "t": 112384.5030000001,
      "d": 225.96131250000326,
      "v": 110
    },
    {
      "midi": 55,
      "hit": false,
      "t": 112384.5030000001,
      "d": 225.96131250000326,
      "v": 86
    },
    {
      "midi": 48,
      "hit": false,
      "t": 112384.5030000001,
      "d": 225.96131250000326,
      "v": 99
    },
    {
      "midi": 42,
      "hit": false,
      "t": 112615.27200000008,
      "d": 225.96131250000326,
      "v": 89
    },
    {
      "midi": 36,
      "hit": false,
      "t": 112615.27200000008,
      "d": 225.96131250000326,
      "v": 120
    },
    {
      "midi": 38,
      "hit": false,
      "t": 112615.2720000001,
      "d": 225.96131250000326,
      "v": 123
    },
    {
      "midi": 57,
      "hit": false,
      "t": 112615.2720000001,
      "d": 225.96131250000326,
      "v": 90
    },
    {
      "midi": 50,
      "hit": false,
      "t": 112615.2720000001,
      "d": 225.96131250000326,
      "v": 99
    },
    {
      "midi": 66,
      "hit": false,
      "t": 112618.15661250066,
      "d": 1259.6141249999928,
      "v": 94
    },
    {
      "midi": 69,
      "hit": false,
      "t": 112619.11815000066,
      "d": 1257.691049999994,
      "v": 94
    },
    {
      "midi": 62,
      "hit": false,
      "t": 112637.38736250067,
      "d": 282.69202499999665,
      "v": 97
    },
    {
      "midi": 42,
      "hit": false,
      "t": 112846.04100000008,
      "d": 225.96131250000326,
      "v": 86
    },
    {
      "midi": 38,
      "hit": false,
      "t": 112846.04100000008,
      "d": 225.96131250000326,
      "v": 50
    },
    {
      "midi": 38,
      "hit": false,
      "t": 112846.0410000001,
      "d": 225.96131250000326,
      "v": 104
    },
    {
      "midi": 50,
      "hit": false,
      "t": 112846.0410000001,
      "d": 225.96131250000326,
      "v": 85
    },
    {
      "midi": 57,
      "hit": false,
      "t": 112846.0410000001,
      "d": 225.96131250000326,
      "v": 73
    },
    {
      "midi": 62,
      "hit": false,
      "t": 113042.19465000066,
      "d": 308.65353749999485,
      "v": 88
    },
    {
      "midi": 42,
      "hit": false,
      "t": 113076.81000000008,
      "d": 225.96131250000326,
      "v": 84
    },
    {
      "midi": 38,
      "hit": false,
      "t": 113076.81000000008,
      "d": 225.96131250000326,
      "v": 65
    },
    {
      "midi": 50,
      "hit": false,
      "t": 113076.8100000001,
      "d": 225.96131250000326,
      "v": 92
    },
    {
      "midi": 59,
      "hit": false,
      "t": 113076.8100000001,
      "d": 225.96131250000326,
      "v": 82
    },
    {
      "midi": 74,
      "hit": false,
      "t": 113274.88672500066,
      "d": 512.4994874999975,
      "v": 75
    },
    {
      "midi": 42,
      "hit": false,
      "t": 113307.57900000009,
      "d": 225.96131250000326,
      "v": 73
    },
    {
      "midi": 38,
      "hit": false,
      "t": 113307.57900000009,
      "d": 225.96131250000326,
      "v": 76
    },
    {
      "midi": 38,
      "hit": false,
      "t": 113307.5790000001,
      "d": 225.96131250000326,
      "v": 110
    },
    {
      "midi": 50,
      "hit": false,
      "t": 113307.5790000001,
      "d": 225.96131250000326,
      "v": 92
    },
    {
      "midi": 57,
      "hit": false,
      "t": 113307.5790000001,
      "d": 225.96131250000326,
      "v": 78
    },
    {
      "midi": 36,
      "hit": false,
      "t": 113538.34800000009,
      "d": 225.96131250000326,
      "v": 117
    },
    {
      "midi": 42,
      "hit": false,
      "t": 113538.34800000009,
      "d": 225.96131250000326,
      "v": 92
    },
    {
      "midi": 38,
      "hit": false,
      "t": 113538.34800000009,
      "d": 225.96131250000326,
      "v": 93
    },
    {
      "midi": 40,
      "hit": false,
      "t": 113538.3480000001,
      "d": 225.96131250000326,
      "v": 107
    },
    {
      "midi": 57,
      "hit": false,
      "t": 113538.3480000001,
      "d": 225.96131250000326,
      "v": 79
    },
    {
      "midi": 50,
      "hit": false,
      "t": 113538.3480000001,
      "d": 225.96131250000326,
      "v": 86
    },
    {
      "midi": 46,
      "hit": false,
      "t": 113769.11700000009,
      "d": 225.96131250000326,
      "v": 86
    },
    {
      "midi": 38,
      "hit": false,
      "t": 113769.11700000009,
      "d": 225.96131250000326,
      "v": 110
    },
    {
      "midi": 38,
      "hit": false,
      "t": 113769.1170000001,
      "d": 225.96131250000326,
      "v": 107
    },
    {
      "midi": 57,
      "hit": false,
      "t": 113769.1170000001,
      "d": 225.96131250000326,
      "v": 78
    },
    {
      "midi": 50,
      "hit": false,
      "t": 113769.1170000001,
      "d": 225.96131250000326,
      "v": 94
    },
    {
      "midi": 62,
      "hit": false,
      "t": 113787.38621250066,
      "d": 342.3073499999882,
      "v": 85
    },
    {
      "midi": 38,
      "hit": false,
      "t": 113999.88600000009,
      "d": 100.96143749999464,
      "v": 117
    },
    {
      "midi": 42,
      "hit": false,
      "t": 113999.88600000009,
      "d": 225.9613124999887,
      "v": 84
    },
    {
      "midi": 35,
      "hit": false,
      "t": 113999.8860000001,
      "d": 225.96131250000326,
      "v": 117
    },
    {
      "midi": 50,
      "hit": false,
      "t": 113999.8860000001,
      "d": 225.96131250000326,
      "v": 99
    },
    {
      "midi": 59,
      "hit": false,
      "t": 113999.8860000001,
      "d": 225.96131250000326,
      "v": 86
    },
    {
      "midi": 66,
      "hit": false,
      "t": 114023.92443750065,
      "d": 104.80758749999222,
      "v": 76
    },
    {
      "midi": 69,
      "hit": false,
      "t": 114024.88597500065,
      "d": 107.69219999999041,
      "v": 82
    },
    {
      "midi": 62,
      "hit": false,
      "t": 114207.57810000064,
      "d": 59.61532500000612,
      "v": 60
    },
    {
      "midi": 69,
      "hit": false,
      "t": 114223.92423750064,
      "d": 57.692250000007334,
      "v": 65
    },
    {
      "midi": 66,
      "hit": false,
      "t": 114224.88577500064,
      "d": 55.769175000008545,
      "v": 56
    },
    {
      "midi": 46,
      "hit": false,
      "t": 114230.65500000007,
      "d": 225.96131250000326,
      "v": 89
    },
    {
      "midi": 45,
      "hit": false,
      "t": 114230.65500000007,
      "d": 225.96131250000326,
      "v": 120
    },
    {
      "midi": 33,
      "hit": false,
      "t": 114230.6550000001,
      "d": 225.96131250000326,
      "v": 113
    },
    {
      "midi": 57,
      "hit": false,
      "t": 114230.6550000001,
      "d": 225.96131250000326,
      "v": 86
    },
    {
      "midi": 50,
      "hit": false,
      "t": 114230.6550000001,
      "d": 225.96131250000326,
      "v": 104
    },
    {
      "midi": 62,
      "hit": false,
      "t": 114453.73170000064,
      "d": 196.15364999999292,
      "v": 97
    },
    {
      "midi": 67,
      "hit": false,
      "t": 114454.69323750064,
      "d": 144.2306249999965,
      "v": 97
    },
    {
      "midi": 71,
      "hit": false,
      "t": 114455.65477500064,
      "d": 143.2690874999971,
      "v": 90
    },
    {
      "midi": 42,
      "hit": false,
      "t": 114461.42400000007,
      "d": 225.96131250000326,
      "v": 86
    },
    {
      "midi": 56,
      "hit": false,
      "t": 114461.42400000007,
      "d": 456.7303125000035,
      "v": 86
    },
    {
      "midi": 57,
      "hit": false,
      "t": 114461.42400000007,
      "d": 456.7303125000035,
      "v": 113
    },
    {
      "midi": 36,
      "hit": false,
      "t": 114461.42400000007,
      "d": 456.7303125000035,
      "v": 120
    },
    {
      "midi": 31,
      "hit": false,
      "t": 114461.4240000001,
      "d": 225.96131250000326,
      "v": 117
    },
    {
      "midi": 43,
      "hit": false,
      "t": 114461.4240000001,
      "d": 225.96131250000326,
      "v": 101
    },
    {
      "midi": 50,
      "hit": false,
      "t": 114461.4240000001,
      "d": 225.96131250000326,
      "v": 86
    },
    {
      "midi": 62,
      "hit": false,
      "t": 114689.30838750064,
      "d": 120.19218749999709,
      "v": 62
    },
    {
      "midi": 46,
      "hit": false,
      "t": 114692.19300000007,
      "d": 225.96131250000326,
      "v": 89
    },
    {
      "midi": 43,
      "hit": false,
      "t": 114692.1930000001,
      "d": 225.96131250000326,
      "v": 117
    },
    {
      "midi": 43,
      "hit": false,
      "t": 114692.1930000001,
      "d": 225.96131250000326,
      "v": 82
    },
    {
      "midi": 50,
      "hit": false,
      "t": 114692.1930000001,
      "d": 225.96131250000326,
      "v": 75
    },
    {
      "midi": 66,
      "hit": false,
      "t": 114705.65452500065,
      "d": 105.76912499999162,
      "v": 85
    },
    {
      "midi": 69,
      "hit": false,
      "t": 114706.61606250065,
      "d": 104.80758749999222,
      "v": 92
    },
    {
      "midi": 71,
      "hit": false,
      "t": 114910.46201250063,
      "d": 132.69217500000377,
      "v": 88
    },
    {
      "midi": 62,
      "hit": false,
      "t": 114911.42355000063,
      "d": 159.61522500000137,
      "v": 71
    },
    {
      "midi": 67,
      "hit": false,
      "t": 114912.38508750063,
      "d": 131.73063750000438,
      "v": 90
    },
    {
      "midi": 42,
      "hit": false,
      "t": 114922.96200000007,
      "d": 225.96131250000326,
      "v": 96
    },
    {
      "midi": 56,
      "hit": false,
      "t": 114922.96200000007,
      "d": 456.7303125000035,
      "v": 75
    },
    {
      "midi": 58,
      "hit": false,
      "t": 114922.96200000007,
      "d": 456.7303125000035,
      "v": 109
    },
    {
      "midi": 38,
      "hit": false,
      "t": 114922.96200000007,
      "d": 456.7303125000035,
      "v": 117
    },
    {
      "midi": 31,
      "hit": false,
      "t": 114922.9620000001,
      "d": 225.96131250000326,
      "v": 113
    },
    {
      "midi": 43,
      "hit": false,
      "t": 114922.9620000001,
      "d": 225.96131250000326,
      "v": 92
    },
    {
      "midi": 52,
      "hit": false,
      "t": 114922.9620000001,
      "d": 225.96131250000326,
      "v": 82
    },
    {
      "midi": 46,
      "hit": false,
      "t": 115153.73100000007,
      "d": 225.96131250000326,
      "v": 92
    },
    {
      "midi": 31,
      "hit": false,
      "t": 115153.7310000001,
      "d": 456.7303125000035,
      "v": 113
    },
    {
      "midi": 43,
      "hit": false,
      "t": 115153.7310000001,
      "d": 225.96131250000326,
      "v": 92
    },
    {
      "midi": 50,
      "hit": false,
      "t": 115153.7310000001,
      "d": 225.96131250000326,
      "v": 75
    },
    {
      "midi": 66,
      "hit": false,
      "t": 115157.57715000064,
      "d": 287.4997125000227,
      "v": 90
    },
    {
      "midi": 62,
      "hit": false,
      "t": 115158.53868750064,
      "d": 258.6535875000118,
      "v": 83
    },
    {
      "midi": 69,
      "hit": false,
      "t": 115159.50022500064,
      "d": 272.11511250001786,
      "v": 94
    },
    {
      "midi": 42,
      "hit": false,
      "t": 115384.50000000007,
      "d": 225.96131250000326,
      "v": 86
    },
    {
      "midi": 56,
      "hit": false,
      "t": 115384.50000000007,
      "d": 456.7303125000035,
      "v": 73
    },
    {
      "midi": 36,
      "hit": false,
      "t": 115384.50000000007,
      "d": 456.7303125000035,
      "v": 123
    },
    {
      "midi": 50,
      "hit": false,
      "t": 115384.5000000001,
      "d": 225.96131250000326,
      "v": 83
    },
    {
      "midi": 43,
      "hit": false,
      "t": 115384.5000000001,
      "d": 225.96131250000326,
      "v": 94
    },
    {
      "midi": 62,
      "hit": false,
      "t": 115604.69208750066,
      "d": 331.730437500024,
      "v": 90
    },
    {
      "midi": 42,
      "hit": false,
      "t": 115615.26900000007,
      "d": 110.57681250000314,
      "v": 89
    },
    {
      "midi": 43,
      "hit": false,
      "t": 115615.2690000001,
      "d": 225.96131250000326,
      "v": 113
    },
    {
      "midi": 43,
      "hit": false,
      "t": 115615.2690000001,
      "d": 225.96131250000326,
      "v": 90
    },
    {
      "midi": 50,
      "hit": false,
      "t": 115615.2690000001,
      "d": 225.96131250000326,
      "v": 78
    },
    {
      "midi": 67,
      "hit": false,
      "t": 115619.11515000067,
      "d": 304.8073875000118,
      "v": 94
    },
    {
      "midi": 71,
      "hit": false,
      "t": 115620.07668750067,
      "d": 290.38432500000636,
      "v": 90
    },
    {
      "midi": 42,
      "hit": false,
      "t": 115730.65350000007,
      "d": 110.57681250000314,
      "v": 92
    },
    {
      "midi": 42,
      "hit": false,
      "t": 115846.03800000007,
      "d": 225.96131250000326,
      "v": 100
    },
    {
      "midi": 56,
      "hit": false,
      "t": 115846.03800000007,
      "d": 456.7303125000035,
      "v": 71
    },
    {
      "midi": 38,
      "hit": false,
      "t": 115846.03800000007,
      "d": 456.7303125000035,
      "v": 117
    },
    {
      "midi": 31,
      "hit": false,
      "t": 115846.0380000001,
      "d": 225.96131250000326,
      "v": 110
    },
    {
      "midi": 43,
      "hit": false,
      "t": 115846.0380000001,
      "d": 225.96131250000326,
      "v": 99
    },
    {
      "midi": 52,
      "hit": false,
      "t": 115846.0380000001,
      "d": 225.96131250000326,
      "v": 83
    },
    {
      "midi": 46,
      "hit": false,
      "t": 116076.80700000007,
      "d": 225.96131250000326,
      "v": 96
    },
    {
      "midi": 31,
      "hit": false,
      "t": 116076.8070000001,
      "d": 456.7303125000035,
      "v": 110
    },
    {
      "midi": 43,
      "hit": false,
      "t": 116076.8070000001,
      "d": 225.96131250000326,
      "v": 94
    },
    {
      "midi": 50,
      "hit": false,
      "t": 116076.8070000001,
      "d": 225.96131250000326,
      "v": 79
    },
    {
      "midi": 60,
      "hit": false,
      "t": 116085.46083750068,
      "d": 779.8069125000038,
      "v": 92
    },
    {
      "midi": 64,
      "hit": false,
      "t": 116085.46083750068,
      "d": 804.8068875000026,
      "v": 97
    },
    {
      "midi": 67,
      "hit": false,
      "t": 116086.42237500068,
      "d": 818.2684125000087,
      "v": 90
    },
    {
      "midi": 42,
      "hit": false,
      "t": 116307.57600000007,
      "d": 225.96131250000326,
      "v": 89
    },
    {
      "midi": 56,
      "hit": false,
      "t": 116307.57600000007,
      "d": 456.7303125000035,
      "v": 75
    },
    {
      "midi": 36,
      "hit": false,
      "t": 116307.57600000007,
      "d": 456.7303125000035,
      "v": 117
    },
    {
      "midi": 43,
      "hit": false,
      "t": 116307.5760000001,
      "d": 225.96131250000326,
      "v": 97
    },
    {
      "midi": 50,
      "hit": false,
      "t": 116307.5760000001,
      "d": 225.96131250000326,
      "v": 83
    },
    {
      "midi": 46,
      "hit": false,
      "t": 116538.34500000007,
      "d": 225.96131250000326,
      "v": 84
    },
    {
      "midi": 43,
      "hit": false,
      "t": 116538.3450000001,
      "d": 225.96131250000326,
      "v": 117
    },
    {
      "midi": 43,
      "hit": false,
      "t": 116538.3450000001,
      "d": 225.96131250000326,
      "v": 85
    },
    {
      "midi": 50,
      "hit": false,
      "t": 116538.3450000001,
      "d": 225.96131250000326,
      "v": 76
    },
    {
      "midi": 42,
      "hit": false,
      "t": 116769.11400000007,
      "d": 225.96131250000326,
      "v": 100
    },
    {
      "midi": 56,
      "hit": false,
      "t": 116769.11400000007,
      "d": 456.7303125000035,
      "v": 73
    },
    {
      "midi": 38,
      "hit": false,
      "t": 116769.11400000007,
      "d": 456.7303125000035,
      "v": 113
    },
    {
      "midi": 31,
      "hit": false,
      "t": 116769.1140000001,
      "d": 225.96131250000326,
      "v": 113
    },
    {
      "midi": 43,
      "hit": false,
      "t": 116769.1140000001,
      "d": 225.96131250000326,
      "v": 97
    },
    {
      "midi": 52,
      "hit": false,
      "t": 116769.1140000001,
      "d": 225.96131250000326,
      "v": 82
    },
    {
      "midi": 42,
      "hit": false,
      "t": 116999.88300000007,
      "d": 110.57681250000314,
      "v": 84
    },
    {
      "midi": 43,
      "hit": false,
      "t": 116999.8830000001,
      "d": 225.96131250000326,
      "v": 110
    },
    {
      "midi": 43,
      "hit": false,
      "t": 116999.8830000001,
      "d": 225.96131250000326,
      "v": 92
    },
    {
      "midi": 50,
      "hit": false,
      "t": 116999.8830000001,
      "d": 225.96131250000326,
      "v": 82
    },
    {
      "midi": 62,
      "hit": false,
      "t": 117002.76761250068,
      "d": 913.4606249999924,
      "v": 88
    },
    {
      "midi": 66,
      "hit": false,
      "t": 117003.72915000068,
      "d": 950.9605874999979,
      "v": 88
    },
    {
      "midi": 69,
      "hit": false,
      "t": 117003.72915000068,
      "d": 963.4605750000046,
      "v": 88
    },
    {
      "midi": 42,
      "hit": false,
      "t": 117115.26750000007,
      "d": 110.57681250000314,
      "v": 89
    },
    {
      "midi": 42,
      "hit": false,
      "t": 117230.65200000007,
      "d": 225.96131250000326,
      "v": 100
    },
    {
      "midi": 56,
      "hit": false,
      "t": 117230.65200000007,
      "d": 456.7303125000035,
      "v": 75
    },
    {
      "midi": 36,
      "hit": false,
      "t": 117230.65200000007,
      "d": 456.7303125000035,
      "v": 113
    },
    {
      "midi": 28,
      "hit": false,
      "t": 117230.6520000001,
      "d": 225.96131250000326,
      "v": 117
    },
    {
      "midi": 50,
      "hit": false,
      "t": 117230.6520000001,
      "d": 225.96131250000326,
      "v": 76
    },
    {
      "midi": 43,
      "hit": false,
      "t": 117230.6520000001,
      "d": 225.96131250000326,
      "v": 86
    },
    {
      "midi": 46,
      "hit": false,
      "t": 117461.42100000007,
      "d": 225.96131250000326,
      "v": 84
    },
    {
      "midi": 28,
      "hit": false,
      "t": 117461.4210000001,
      "d": 456.7303125000035,
      "v": 120
    },
    {
      "midi": 50,
      "hit": false,
      "t": 117461.4210000001,
      "d": 225.96131250000326,
      "v": 79
    },
    {
      "midi": 43,
      "hit": false,
      "t": 117461.4210000001,
      "d": 225.96131250000326,
      "v": 90
    },
    {
      "midi": 42,
      "hit": false,
      "t": 117692.19000000008,
      "d": 225.96131250000326,
      "v": 104
    },
    {
      "midi": 56,
      "hit": false,
      "t": 117692.19000000008,
      "d": 456.7303125000035,
      "v": 71
    },
    {
      "midi": 38,
      "hit": false,
      "t": 117692.19000000008,
      "d": 456.7303125000035,
      "v": 120
    },
    {
      "midi": 43,
      "hit": false,
      "t": 117692.1900000001,
      "d": 225.96131250000326,
      "v": 97
    },
    {
      "midi": 52,
      "hit": false,
      "t": 117692.1900000001,
      "d": 225.96131250000326,
      "v": 78
    },
    {
      "midi": 46,
      "hit": false,
      "t": 117922.95900000008,
      "d": 225.96131250000326,
      "v": 96
    },
    {
      "midi": 31,
      "hit": false,
      "t": 117922.9590000001,
      "d": 456.7303125000035,
      "v": 113
    },
    {
      "midi": 43,
      "hit": false,
      "t": 117922.9590000001,
      "d": 225.96131250000326,
      "v": 99
    },
    {
      "midi": 50,
      "hit": false,
      "t": 117922.9590000001,
      "d": 225.96131250000326,
      "v": 76
    },
    {
      "midi": 67,
      "hit": false,
      "t": 118150.84338750069,
      "d": 119.2306499999977,
      "v": 92
    },
    {
      "midi": 62,
      "hit": false,
      "t": 118150.84338750069,
      "d": 146.1536999999953,
      "v": 94
    },
    {
      "midi": 42,
      "hit": false,
      "t": 118153.72800000008,
      "d": 225.96131250000326,
      "v": 89
    },
    {
      "midi": 56,
      "hit": false,
      "t": 118153.72800000008,
      "d": 456.7303125000035,
      "v": 69
    },
    {
      "midi": 36,
      "hit": false,
      "t": 118153.72800000008,
      "d": 456.7303125000035,
      "v": 117
    },
    {
      "midi": 43,
      "hit": false,
      "t": 118153.7280000001,
      "d": 225.96131250000326,
      "v": 97
    },
    {
      "midi": 50,
      "hit": false,
      "t": 118153.7280000001,
      "d": 225.96131250000326,
      "v": 90
    },
    {
      "midi": 71,
      "hit": false,
      "t": 118153.72800000069,
      "d": 116.34603749999951,
      "v": 88
    },
    {
      "midi": 66,
      "hit": false,
      "t": 118383.53546250069,
      "d": 110.57681250000314,
      "v": 86
    },
    {
      "midi": 46,
      "hit": false,
      "t": 118384.49700000008,
      "d": 225.96131250000326,
      "v": 84
    },
    {
      "midi": 43,
      "hit": false,
      "t": 118384.4970000001,
      "d": 225.96131250000326,
      "v": 117
    },
    {
      "midi": 50,
      "hit": false,
      "t": 118384.4970000001,
      "d": 225.96131250000326,
      "v": 76
    },
    {
      "midi": 43,
      "hit": false,
      "t": 118384.4970000001,
      "d": 225.96131250000326,
      "v": 90
    },
    {
      "midi": 62,
      "hit": false,
      "t": 118384.49700000069,
      "d": 94.23067499999888,
      "v": 71
    },
    {
      "midi": 69,
      "hit": false,
      "t": 118385.45853750069,
      "d": 107.69220000000496,
      "v": 90
    },
    {
      "midi": 42,
      "hit": false,
      "t": 118615.26600000008,
      "d": 225.96131250000326,
      "v": 100
    },
    {
      "midi": 56,
      "hit": false,
      "t": 118615.26600000008,
      "d": 456.7303125000035,
      "v": 66
    },
    {
      "midi": 38,
      "hit": false,
      "t": 118615.26600000008,
      "d": 456.7303125000035,
      "v": 113
    },
    {
      "midi": 31,
      "hit": false,
      "t": 118615.2660000001,
      "d": 225.96131250000326,
      "v": 113
    },
    {
      "midi": 43,
      "hit": false,
      "t": 118615.2660000001,
      "d": 225.96131250000326,
      "v": 101
    },
    {
      "midi": 52,
      "hit": false,
      "t": 118615.2660000001,
      "d": 225.96131250000326,
      "v": 83
    },
    {
      "midi": 62,
      "hit": false,
      "t": 118617.18907500069,
      "d": 146.15370000000985,
      "v": 80
    },
    {
      "midi": 67,
      "hit": false,
      "t": 118618.15061250069,
      "d": 131.73063750000438,
      "v": 92
    },
    {
      "midi": 71,
      "hit": false,
      "t": 118619.11215000068,
      "d": 129.8075625000056,
      "v": 90
    },
    {
      "midi": 42,
      "hit": false,
      "t": 118846.03500000008,
      "d": 110.57681250000314,
      "v": 84
    },
    {
      "midi": 31,
      "hit": false,
      "t": 118846.0350000001,
      "d": 456.7303125000035,
      "v": 113
    },
    {
      "midi": 43,
      "hit": false,
      "t": 118846.0350000001,
      "d": 225.96131250000326,
      "v": 92
    },
    {
      "midi": 50,
      "hit": false,
      "t": 118846.0350000001,
      "d": 225.96131250000326,
      "v": 75
    },
    {
      "midi": 62,
      "hit": false,
      "t": 118863.34267500069,
      "d": 210.5767125000275,
      "v": 82
    },
    {
      "midi": 66,
      "hit": false,
      "t": 118864.30421250069,
      "d": 223.07670000003418,
      "v": 92
    },
    {
      "midi": 69,
      "hit": false,
      "t": 118882.5734250007,
      "d": 204.80748750003113,
      "v": 94
    },
    {
      "midi": 42,
      "hit": false,
      "t": 118961.41950000008,
      "d": 110.57681250000314,
      "v": 89
    },
    {
      "midi": 42,
      "hit": false,
      "t": 119076.80400000008,
      "d": 225.96131250000326,
      "v": 100
    },
    {
      "midi": 56,
      "hit": false,
      "t": 119076.80400000008,
      "d": 456.7303125000035,
      "v": 63
    },
    {
      "midi": 36,
      "hit": false,
      "t": 119076.80400000008,
      "d": 456.7303125000035,
      "v": 113
    },
    {
      "midi": 50,
      "hit": false,
      "t": 119076.8040000001,
      "d": 225.96131250000326,
      "v": 83
    },
    {
      "midi": 43,
      "hit": false,
      "t": 119076.8040000001,
      "d": 225.96131250000326,
      "v": 97
    },
    {
      "midi": 62,
      "hit": false,
      "t": 119283.53456250072,
      "d": 308.6535375000094,
      "v": 85
    },
    {
      "midi": 67,
      "hit": false,
      "t": 119284.49610000072,
      "d": 295.19201250000333,
      "v": 94
    },
    {
      "midi": 71,
      "hit": false,
      "t": 119285.45763750072,
      "d": 269.2305000000051,
      "v": 86
    },
    {
      "midi": 46,
      "hit": false,
      "t": 119307.57300000008,
      "d": 225.96131250000326,
      "v": 84
    },
    {
      "midi": 43,
      "hit": false,
      "t": 119307.5730000001,
      "d": 225.96131250000326,
      "v": 113
    },
    {
      "midi": 43,
      "hit": false,
      "t": 119307.5730000001,
      "d": 225.96131250000326,
      "v": 92
    },
    {
      "midi": 50,
      "hit": false,
      "t": 119307.5730000001,
      "d": 225.96131250000326,
      "v": 73
    },
    {
      "midi": 42,
      "hit": false,
      "t": 119538.34200000008,
      "d": 225.96131250000326,
      "v": 104
    },
    {
      "midi": 56,
      "hit": false,
      "t": 119538.34200000008,
      "d": 456.7303125000035,
      "v": 75
    },
    {
      "midi": 38,
      "hit": false,
      "t": 119538.34200000008,
      "d": 456.7303125000035,
      "v": 120
    },
    {
      "midi": 31,
      "hit": false,
      "t": 119538.3420000001,
      "d": 225.96131250000326,
      "v": 110
    },
    {
      "midi": 43,
      "hit": false,
      "t": 119538.3420000001,
      "d": 225.96131250000326,
      "v": 101
    },
    {
      "midi": 52,
      "hit": false,
      "t": 119538.3420000001,
      "d": 225.96131250000326,
      "v": 90
    },
    {
      "midi": 46,
      "hit": false,
      "t": 119769.11100000008,
      "d": 225.96131250000326,
      "v": 96
    },
    {
      "midi": 31,
      "hit": false,
      "t": 119769.1110000001,
      "d": 456.7303125000035,
      "v": 110
    },
    {
      "midi": 43,
      "hit": false,
      "t": 119769.1110000001,
      "d": 225.96131250000326,
      "v": 92
    },
    {
      "midi": 50,
      "hit": false,
      "t": 119769.1110000001,
      "d": 225.96131250000326,
      "v": 78
    },
    {
      "midi": 64,
      "hit": false,
      "t": 119774.88022500073,
      "d": 786.5376749999996,
      "v": 92
    },
    {
      "midi": 60,
      "hit": false,
      "t": 119775.84176250073,
      "d": 735.5761875000026,
      "v": 90
    },
    {
      "midi": 67,
      "hit": false,
      "t": 119794.11097500073,
      "d": 780.7684500000032,
      "v": 90
    },
    {
      "midi": 42,
      "hit": false,
      "t": 119999.88000000008,
      "d": 225.96131250000326,
      "v": 89
    },
    {
      "midi": 56,
      "hit": false,
      "t": 119999.88000000008,
      "d": 456.7303125000035,
      "v": 77
    },
    {
      "midi": 36,
      "hit": false,
      "t": 119999.88000000008,
      "d": 456.7303125000035,
      "v": 117
    },
    {
      "midi": 50,
      "hit": false,
      "t": 119999.8800000001,
      "d": 225.96131250000326,
      "v": 85
    },
    {
      "midi": 43,
      "hit": false,
      "t": 119999.8800000001,
      "d": 225.96131250000326,
      "v": 99
    },
    {
      "midi": 46,
      "hit": false,
      "t": 120230.64900000008,
      "d": 225.96131250000326,
      "v": 84
    },
    {
      "midi": 43,
      "hit": false,
      "t": 120230.6490000001,
      "d": 225.96131250000326,
      "v": 117
    },
    {
      "midi": 43,
      "hit": false,
      "t": 120230.6490000001,
      "d": 225.96131250000326,
      "v": 94
    },
    {
      "midi": 50,
      "hit": false,
      "t": 120230.6490000001,
      "d": 225.96131250000326,
      "v": 82
    },
    {
      "midi": 72,
      "hit": false,
      "t": 120436.41802500073,
      "d": 176.92290000000503,
      "v": 72
    },
    {
      "midi": 42,
      "hit": false,
      "t": 120461.41800000008,
      "d": 225.96131250000326,
      "v": 100
    },
    {
      "midi": 56,
      "hit": false,
      "t": 120461.41800000008,
      "d": 456.7303125000035,
      "v": 64
    },
    {
      "midi": 38,
      "hit": false,
      "t": 120461.41800000008,
      "d": 456.7303125000035,
      "v": 113
    },
    {
      "midi": 31,
      "hit": false,
      "t": 120461.4180000001,
      "d": 225.96131250000326,
      "v": 113
    },
    {
      "midi": 43,
      "hit": false,
      "t": 120461.4180000001,
      "d": 225.96131250000326,
      "v": 97
    },
    {
      "midi": 52,
      "hit": false,
      "t": 120461.4180000001,
      "d": 225.96131250000326,
      "v": 82
    },
    {
      "midi": 42,
      "hit": false,
      "t": 120692.18700000008,
      "d": 110.57681250000314,
      "v": 84
    },
    {
      "midi": 43,
      "hit": false,
      "t": 120692.1870000001,
      "d": 225.96131250000326,
      "v": 110
    },
    {
      "midi": 43,
      "hit": false,
      "t": 120692.1870000001,
      "d": 225.96131250000326,
      "v": 92
    },
    {
      "midi": 50,
      "hit": false,
      "t": 120692.1870000001,
      "d": 225.96131250000326,
      "v": 79
    },
    {
      "midi": 62,
      "hit": false,
      "t": 120698.91776250074,
      "d": 932.6913750000967,
      "v": 101
    },
    {
      "midi": 42,
      "hit": false,
      "t": 120807.57150000008,
      "d": 110.57681250000314,
      "v": 89
    },
    {
      "midi": 42,
      "hit": false,
      "t": 120922.95600000008,
      "d": 225.96131250000326,
      "v": 100
    },
    {
      "midi": 56,
      "hit": false,
      "t": 120922.95600000008,
      "d": 456.7303125000035,
      "v": 84
    },
    {
      "midi": 36,
      "hit": false,
      "t": 120922.95600000008,
      "d": 456.7303125000035,
      "v": 113
    },
    {
      "midi": 28,
      "hit": false,
      "t": 120922.95600000011,
      "d": 225.96131250000326,
      "v": 117
    },
    {
      "midi": 50,
      "hit": false,
      "t": 120922.95600000011,
      "d": 225.96131250000326,
      "v": 83
    },
    {
      "midi": 43,
      "hit": false,
      "t": 120922.95600000011,
      "d": 225.96131250000326,
      "v": 92
    },
    {
      "midi": 46,
      "hit": false,
      "t": 121153.72500000008,
      "d": 225.96131250000326,
      "v": 84
    },
    {
      "midi": 28,
      "hit": false,
      "t": 121153.72500000011,
      "d": 456.7303125000035,
      "v": 120
    },
    {
      "midi": 43,
      "hit": false,
      "t": 121153.72500000011,
      "d": 225.96131250000326,
      "v": 86
    },
    {
      "midi": 50,
      "hit": false,
      "t": 121153.72500000011,
      "d": 225.96131250000326,
      "v": 78
    },
    {
      "midi": 66,
      "hit": false,
      "t": 121169.10960000084,
      "d": 500.96103750000475,
      "v": 85
    },
    {
      "midi": 42,
      "hit": false,
      "t": 121384.49400000008,
      "d": 225.96131250000326,
      "v": 104
    },
    {
      "midi": 56,
      "hit": false,
      "t": 121384.49400000008,
      "d": 456.7303125000035,
      "v": 69
    },
    {
      "midi": 38,
      "hit": false,
      "t": 121384.49400000008,
      "d": 456.7303125000035,
      "v": 120
    },
    {
      "midi": 43,
      "hit": false,
      "t": 121384.49400000011,
      "d": 225.96131250000326,
      "v": 99
    },
    {
      "midi": 52,
      "hit": false,
      "t": 121384.49400000011,
      "d": 225.96131250000326,
      "v": 82
    },
    {
      "midi": 69,
      "hit": false,
      "t": 121412.37858750085,
      "d": 258.65358749999723,
      "v": 82
    },
    {
      "midi": 46,
      "hit": false,
      "t": 121615.26300000008,
      "d": 225.96131250000326,
      "v": 96
    },
    {
      "midi": 31,
      "hit": false,
      "t": 121615.26300000011,
      "d": 456.7303125000035,
      "v": 117
    },
    {
      "midi": 43,
      "hit": false,
      "t": 121615.26300000011,
      "d": 225.96131250000326,
      "v": 88
    },
    {
      "midi": 50,
      "hit": false,
      "t": 121615.26300000011,
      "d": 225.96131250000326,
      "v": 75
    },
    {
      "midi": 67,
      "hit": false,
      "t": 121842.18585000084,
      "d": 145.19216250001045,
      "v": 97
    },
    {
      "midi": 62,
      "hit": false,
      "t": 121842.18585000084,
      "d": 171.15367500000866,
      "v": 88
    },
    {
      "midi": 71,
      "hit": false,
      "t": 121843.14738750084,
      "d": 130.76910000000498,
      "v": 88
    },
    {
      "midi": 42,
      "hit": false,
      "t": 121846.03200000008,
      "d": 225.96131250000326,
      "v": 89
    },
    {
      "midi": 56,
      "hit": false,
      "t": 121846.03200000008,
      "d": 456.7303125000035,
      "v": 75
    },
    {
      "midi": 36,
      "hit": false,
      "t": 121846.03200000008,
      "d": 456.7303125000035,
      "v": 117
    },
    {
      "midi": 50,
      "hit": false,
      "t": 121846.03200000011,
      "d": 225.96131250000326,
      "v": 82
    },
    {
      "midi": 43,
      "hit": false,
      "t": 121846.03200000011,
      "d": 225.96131250000326,
      "v": 99
    },
    {
      "midi": 46,
      "hit": false,
      "t": 122076.80100000008,
      "d": 225.96131250000326,
      "v": 84
    },
    {
      "midi": 43,
      "hit": false,
      "t": 122076.80100000011,
      "d": 225.96131250000326,
      "v": 117
    },
    {
      "midi": 50,
      "hit": false,
      "t": 122076.80100000011,
      "d": 225.96131250000326,
      "v": 80
    },
    {
      "midi": 43,
      "hit": false,
      "t": 122076.80100000011,
      "d": 225.96131250000326,
      "v": 88
    },
    {
      "midi": 66,
      "hit": false,
      "t": 122087.37791250084,
      "d": 110.57681250000314,
      "v": 82
    },
    {
      "midi": 69,
      "hit": false,
      "t": 122088.33945000084,
      "d": 95.19221249999828,
      "v": 90
    },
    {
      "midi": 62,
      "hit": false,
      "t": 122089.30098750084,
      "d": 93.26913749999949,
      "v": 62
    },
    {
      "midi": 42,
      "hit": false,
      "t": 122307.57000000008,
      "d": 225.96131250000326,
      "v": 100
    },
    {
      "midi": 56,
      "hit": false,
      "t": 122307.57000000008,
      "d": 456.7303125000035,
      "v": 79
    },
    {
      "midi": 38,
      "hit": false,
      "t": 122307.57000000008,
      "d": 456.7303125000035,
      "v": 113
    },
    {
      "midi": 31,
      "hit": false,
      "t": 122307.57000000011,
      "d": 225.96131250000326,
      "v": 113
    },
    {
      "midi": 43,
      "hit": false,
      "t": 122307.57000000011,
      "d": 225.96131250000326,
      "v": 99
    },
    {
      "midi": 52,
      "hit": false,
      "t": 122307.57000000011,
      "d": 225.96131250000326,
      "v": 83
    },
    {
      "midi": 62,
      "hit": false,
      "t": 122307.57000000085,
      "d": 122.11526249999588,
      "v": 76
    },
    {
      "midi": 67,
      "hit": false,
      "t": 122310.45461250085,
      "d": 118.2691124999983,
      "v": 90
    },
    {
      "midi": 71,
      "hit": false,
      "t": 122311.41615000085,
      "d": 116.34603749999951,
      "v": 86
    },
    {
      "midi": 42,
      "hit": false,
      "t": 122538.33900000008,
      "d": 110.57681250000314,
      "v": 84
    },
    {
      "midi": 31,
      "hit": false,
      "t": 122538.33900000011,
      "d": 456.7303125000035,
      "v": 113
    },
    {
      "midi": 43,
      "hit": false,
      "t": 122538.33900000011,
      "d": 225.96131250000326,
      "v": 94
    },
    {
      "midi": 50,
      "hit": false,
      "t": 122538.33900000011,
      "d": 225.96131250000326,
      "v": 79
    },
    {
      "midi": 66,
      "hit": false,
      "t": 122552.76206250084,
      "d": 209.61517500001355,
      "v": 88
    },
    {
      "midi": 62,
      "hit": false,
      "t": 122554.68513750084,
      "d": 206.73056250001537,
      "v": 83
    },
    {
      "midi": 69,
      "hit": false,
      "t": 122571.99281250084,
      "d": 174.99982500000624,
      "v": 90
    },
    {
      "midi": 42,
      "hit": false,
      "t": 122653.72350000008,
      "d": 110.57681250000314,
      "v": 89
    },
    {
      "midi": 42,
      "hit": false,
      "t": 122769.10800000008,
      "d": 225.96131250000326,
      "v": 100
    },
    {
      "midi": 56,
      "hit": false,
      "t": 122769.10800000008,
      "d": 456.7303125000035,
      "v": 68
    },
    {
      "midi": 36,
      "hit": false,
      "t": 122769.10800000008,
      "d": 456.7303125000035,
      "v": 113
    },
    {
      "midi": 50,
      "hit": false,
      "t": 122769.10800000011,
      "d": 225.96131250000326,
      "v": 82
    },
    {
      "midi": 43,
      "hit": false,
      "t": 122769.10800000011,
      "d": 225.96131250000326,
      "v": 97
    },
    {
      "midi": 62,
      "hit": false,
      "t": 122993.14623750086,
      "d": 293.26893750000454,
      "v": 85
    },
    {
      "midi": 67,
      "hit": false,
      "t": 122994.10777500086,
      "d": 278.84587499999907,
      "v": 92
    },
    {
      "midi": 71,
      "hit": false,
      "t": 122996.03085000085,
      "d": 250.96128750000207,
      "v": 86
    },
    {
      "midi": 46,
      "hit": false,
      "t": 122999.87700000008,
      "d": 225.96131250000326,
      "v": 84
    },
    {
      "midi": 43,
      "hit": false,
      "t": 122999.87700000011,
      "d": 225.96131250000326,
      "v": 113
    },
    {
      "midi": 43,
      "hit": false,
      "t": 122999.87700000011,
      "d": 225.96131250000326,
      "v": 97
    },
    {
      "midi": 50,
      "hit": false,
      "t": 122999.87700000011,
      "d": 225.96131250000326,
      "v": 80
    },
    {
      "midi": 42,
      "hit": false,
      "t": 123230.64600000008,
      "d": 225.96131250000326,
      "v": 104
    },
    {
      "midi": 56,
      "hit": false,
      "t": 123230.64600000008,
      "d": 456.7303125000035,
      "v": 62
    },
    {
      "midi": 38,
      "hit": false,
      "t": 123230.64600000008,
      "d": 456.7303125000035,
      "v": 120
    },
    {
      "midi": 31,
      "hit": false,
      "t": 123230.64600000011,
      "d": 225.96131250000326,
      "v": 110
    },
    {
      "midi": 43,
      "hit": false,
      "t": 123230.64600000011,
      "d": 225.96131250000326,
      "v": 99
    },
    {
      "midi": 52,
      "hit": false,
      "t": 123230.64600000011,
      "d": 225.96131250000326,
      "v": 83
    },
    {
      "midi": 46,
      "hit": false,
      "t": 123461.41500000008,
      "d": 225.96131250000326,
      "v": 96
    },
    {
      "midi": 31,
      "hit": false,
      "t": 123461.41500000011,
      "d": 456.7303125000035,
      "v": 110
    },
    {
      "midi": 43,
      "hit": false,
      "t": 123461.41500000011,
      "d": 225.96131250000326,
      "v": 97
    },
    {
      "midi": 50,
      "hit": false,
      "t": 123461.41500000011,
      "d": 225.96131250000326,
      "v": 79
    },
    {
      "midi": 60,
      "hit": false,
      "t": 123468.14576250086,
      "d": 778.8453750000044,
      "v": 88
    },
    {
      "midi": 64,
      "hit": false,
      "t": 123469.10730000086,
      "d": 813.4607250000117,
      "v": 97
    },
    {
      "midi": 67,
      "hit": false,
      "t": 123470.06883750086,
      "d": 813.4607250000117,
      "v": 88
    },
    {
      "midi": 42,
      "hit": false,
      "t": 123692.18400000008,
      "d": 225.96131250000326,
      "v": 89
    },
    {
      "midi": 56,
      "hit": false,
      "t": 123692.18400000008,
      "d": 456.7303125000035,
      "v": 62
    },
    {
      "midi": 36,
      "hit": false,
      "t": 123692.18400000008,
      "d": 456.7303125000035,
      "v": 117
    },
    {
      "midi": 50,
      "hit": false,
      "t": 123692.18400000011,
      "d": 225.96131250000326,
      "v": 82
    },
    {
      "midi": 43,
      "hit": false,
      "t": 123692.18400000011,
      "d": 225.96131250000326,
      "v": 97
    },
    {
      "midi": 46,
      "hit": false,
      "t": 123922.95300000008,
      "d": 225.96131250000326,
      "v": 84
    },
    {
      "midi": 43,
      "hit": false,
      "t": 123922.95300000011,
      "d": 225.96131250000326,
      "v": 117
    },
    {
      "midi": 43,
      "hit": false,
      "t": 123922.95300000011,
      "d": 225.96131250000326,
      "v": 90
    },
    {
      "midi": 50,
      "hit": false,
      "t": 123922.95300000011,
      "d": 225.96131250000326,
      "v": 78
    },
    {
      "midi": 42,
      "hit": false,
      "t": 124153.72200000008,
      "d": 225.96131250000326,
      "v": 100
    },
    {
      "midi": 56,
      "hit": false,
      "t": 124153.72200000008,
      "d": 456.7303125000035,
      "v": 71
    },
    {
      "midi": 38,
      "hit": false,
      "t": 124153.72200000008,
      "d": 456.7303125000035,
      "v": 113
    },
    {
      "midi": 31,
      "hit": false,
      "t": 124153.72200000011,
      "d": 225.96131250000326,
      "v": 113
    },
    {
      "midi": 43,
      "hit": false,
      "t": 124153.72200000011,
      "d": 225.96131250000326,
      "v": 99
    },
    {
      "midi": 52,
      "hit": false,
      "t": 124153.72200000011,
      "d": 225.96131250000326,
      "v": 85
    },
    {
      "midi": 42,
      "hit": false,
      "t": 124384.49100000008,
      "d": 110.57681250000314,
      "v": 84
    },
    {
      "midi": 43,
      "hit": false,
      "t": 124384.49100000011,
      "d": 225.96131250000326,
      "v": 110
    },
    {
      "midi": 43,
      "hit": false,
      "t": 124384.49100000011,
      "d": 225.96131250000326,
      "v": 94
    },
    {
      "midi": 50,
      "hit": false,
      "t": 124384.49100000011,
      "d": 225.96131250000326,
      "v": 78
    },
    {
      "midi": 62,
      "hit": false,
      "t": 124406.60636250087,
      "d": 587.4994125000085,
      "v": 85
    },
    {
      "midi": 66,
      "hit": false,
      "t": 124408.52943750087,
      "d": 622.1147625000158,
      "v": 90
    },
    {
      "midi": 69,
      "hit": false,
      "t": 124409.49097500087,
      "d": 623.0763000000152,
      "v": 86
    },
    {
      "midi": 42,
      "hit": false,
      "t": 124499.87550000008,
      "d": 110.57681250000314,
      "v": 89
    },
    {
      "midi": 42,
      "hit": false,
      "t": 124615.26000000008,
      "d": 225.96131250000326,
      "v": 100
    },
    {
      "midi": 56,
      "hit": false,
      "t": 124615.26000000008,
      "d": 456.7303125000035,
      "v": 69
    },
    {
      "midi": 36,
      "hit": false,
      "t": 124615.26000000008,
      "d": 456.7303125000035,
      "v": 113
    },
    {
      "midi": 43,
      "hit": false,
      "t": 124615.26000000011,
      "d": 225.96131250000326,
      "v": 113
    },
    {
      "midi": 43,
      "hit": false,
      "t": 124615.26000000011,
      "d": 225.96131250000326,
      "v": 99
    },
    {
      "midi": 50,
      "hit": false,
      "t": 124615.26000000011,
      "d": 225.96131250000326,
      "v": 83
    },
    {
      "midi": 74,
      "hit": false,
      "t": 124824.87517500087,
      "d": 129.8075625000056,
      "v": 57
    },
    {
      "midi": 72,
      "hit": false,
      "t": 124825.83671250087,
      "d": 128.8460250000062,
      "v": 57
    },
    {
      "midi": 46,
      "hit": false,
      "t": 124846.02900000008,
      "d": 225.96131250000326,
      "v": 84
    },
    {
      "midi": 43,
      "hit": false,
      "t": 124846.02900000011,
      "d": 225.96131250000326,
      "v": 120
    },
    {
      "midi": 43,
      "hit": false,
      "t": 124846.02900000011,
      "d": 225.96131250000326,
      "v": 101
    },
    {
      "midi": 50,
      "hit": false,
      "t": 124846.02900000011,
      "d": 225.96131250000326,
      "v": 83
    },
    {
      "midi": 42,
      "hit": false,
      "t": 125076.79800000008,
      "d": 225.96131250000326,
      "v": 104
    },
    {
      "midi": 56,
      "hit": false,
      "t": 125076.79800000008,
      "d": 456.7303125000035,
      "v": 77
    },
    {
      "midi": 38,
      "hit": false,
      "t": 125076.79800000008,
      "d": 456.7303125000035,
      "v": 120
    },
    {
      "midi": 35,
      "hit": false,
      "t": 125076.79800000011,
      "d": 225.96131250000326,
      "v": 107
    },
    {
      "midi": 43,
      "hit": false,
      "t": 125076.79800000011,
      "d": 225.96131250000326,
      "v": 104
    },
    {
      "midi": 52,
      "hit": false,
      "t": 125076.79800000011,
      "d": 225.96131250000326,
      "v": 85
    },
    {
      "midi": 69,
      "hit": false,
      "t": 125083.52876250088,
      "d": 238.46130000000994,
      "v": 27
    },
    {
      "midi": 66,
      "hit": false,
      "t": 125097.95182500088,
      "d": 99.03836250001041,
      "v": 51
    },
    {
      "midi": 60,
      "hit": false,
      "t": 125115.25950000089,
      "d": 106.73066250000556,
      "v": 66
    },
    {
      "midi": 62,
      "hit": false,
      "t": 125115.25950000089,
      "d": 231.73053749999963,
      "v": 71
    },
    {
      "midi": 46,
      "hit": false,
      "t": 125307.56700000008,
      "d": 225.96131250000326,
      "v": 96
    },
    {
      "midi": 36,
      "hit": false,
      "t": 125307.56700000011,
      "d": 225.96131250000326,
      "v": 113
    },
    {
      "midi": 43,
      "hit": false,
      "t": 125307.56700000011,
      "d": 225.96131250000326,
      "v": 92
    },
    {
      "midi": 50,
      "hit": false,
      "t": 125307.56700000011,
      "d": 225.96131250000326,
      "v": 85
    },
    {
      "midi": 42,
      "hit": false,
      "t": 125538.33600000008,
      "d": 225.96131250000326,
      "v": 89
    },
    {
      "midi": 56,
      "hit": false,
      "t": 125538.33600000008,
      "d": 456.7303125000035,
      "v": 84
    },
    {
      "midi": 36,
      "hit": false,
      "t": 125538.33600000008,
      "d": 456.7303125000035,
      "v": 117
    },
    {
      "midi": 38,
      "hit": false,
      "t": 125538.33600000011,
      "d": 687.4993125000037,
      "v": 113
    },
    {
      "midi": 48,
      "hit": false,
      "t": 125538.33600000011,
      "d": 225.96131250000326,
      "v": 101
    },
    {
      "midi": 55,
      "hit": false,
      "t": 125538.33600000011,
      "d": 225.96131250000326,
      "v": 94
    },
    {
      "midi": 60,
      "hit": false,
      "t": 125541.22061250088,
      "d": 1144.2296250000218,
      "v": 101
    },
    {
      "midi": 64,
      "hit": false,
      "t": 125542.18215000088,
      "d": 1216.34493750002,
      "v": 99
    },
    {
      "midi": 67,
      "hit": false,
      "t": 125544.10522500088,
      "d": 1226.921850000028,
      "v": 94
    },
    {
      "midi": 46,
      "hit": false,
      "t": 125769.10500000008,
      "d": 225.96131250000326,
      "v": 84
    },
    {
      "midi": 55,
      "hit": false,
      "t": 125769.10500000011,
      "d": 225.96131250000326,
      "v": 86
    },
    {
      "midi": 48,
      "hit": false,
      "t": 125769.10500000011,
      "d": 225.96131250000326,
      "v": 88
    },
    {
      "midi": 42,
      "hit": false,
      "t": 125999.87400000008,
      "d": 225.96131250000326,
      "v": 100
    },
    {
      "midi": 56,
      "hit": false,
      "t": 125999.87400000008,
      "d": 456.7303125000035,
      "v": 75
    },
    {
      "midi": 38,
      "hit": false,
      "t": 125999.87400000008,
      "d": 456.7303125000035,
      "v": 113
    },
    {
      "midi": 57,
      "hit": false,
      "t": 125999.87400000011,
      "d": 225.96131250000326,
      "v": 82
    },
    {
      "midi": 48,
      "hit": false,
      "t": 125999.87400000011,
      "d": 225.96131250000326,
      "v": 97
    },
    {
      "midi": 42,
      "hit": false,
      "t": 126230.64300000008,
      "d": 110.57681250000314,
      "v": 84
    },
    {
      "midi": 38,
      "hit": false,
      "t": 126230.64300000011,
      "d": 225.96131250000326,
      "v": 117
    },
    {
      "midi": 48,
      "hit": false,
      "t": 126230.64300000011,
      "d": 225.96131250000326,
      "v": 94
    },
    {
      "midi": 55,
      "hit": false,
      "t": 126230.64300000011,
      "d": 225.96131250000326,
      "v": 85
    },
    {
      "midi": 42,
      "hit": false,
      "t": 126346.02750000008,
      "d": 110.57681250000314,
      "v": 89
    },
    {
      "midi": 38,
      "hit": false,
      "t": 126461.41200000008,
      "d": 225.96131250000326,
      "v": 104
    },
    {
      "midi": 42,
      "hit": false,
      "t": 126461.41200000008,
      "d": 225.96131250000326,
      "v": 100
    },
    {
      "midi": 36,
      "hit": false,
      "t": 126461.41200000008,
      "d": 456.7303125000035,
      "v": 113
    },
    {
      "midi": 56,
      "hit": false,
      "t": 126461.41200000008,
      "d": 456.7303125000035,
      "v": 79
    },
    {
      "midi": 45,
      "hit": false,
      "t": 126461.41200000011,
      "d": 225.96131250000326,
      "v": 99
    },
    {
      "midi": 55,
      "hit": false,
      "t": 126461.41200000011,
      "d": 225.96131250000326,
      "v": 88
    },
    {
      "midi": 48,
      "hit": false,
      "t": 126461.41200000011,
      "d": 225.96131250000326,
      "v": 97
    },
    {
      "midi": 38,
      "hit": false,
      "t": 126692.18100000008,
      "d": 225.96131250000326,
      "v": 104
    },
    {
      "midi": 46,
      "hit": false,
      "t": 126692.18100000008,
      "d": 225.96131250000326,
      "v": 84
    },
    {
      "midi": 48,
      "hit": false,
      "t": 126692.18100000011,
      "d": 225.96131250000326,
      "v": 117
    },
    {
      "midi": 48,
      "hit": false,
      "t": 126692.18100000011,
      "d": 225.96131250000326,
      "v": 99
    },
    {
      "midi": 55,
      "hit": false,
      "t": 126692.18100000011,
      "d": 225.96131250000326,
      "v": 85
    },
    {
      "midi": 60,
      "hit": false,
      "t": 126774.8732250009,
      "d": 265.3843500000221,
      "v": 107
    },
    {
      "midi": 38,
      "hit": false,
      "t": 126922.95000000008,
      "d": 225.96131250000326,
      "v": 117
    },
    {
      "midi": 42,
      "hit": false,
      "t": 126922.95000000008,
      "d": 225.96131250000326,
      "v": 104
    },
    {
      "midi": 56,
      "hit": false,
      "t": 126922.95000000008,
      "d": 456.7303125000035,
      "v": 71
    },
    {
      "midi": 49,
      "hit": false,
      "t": 126922.95000000011,
      "d": 225.96131250000326,
      "v": 92
    },
    {
      "midi": 57,
      "hit": false,
      "t": 126922.95000000011,
      "d": 225.96131250000326,
      "v": 90
    },
    {
      "midi": 48,
      "hit": false,
      "t": 126922.95000000011,
      "d": 225.96131250000326,
      "v": 104
    },
    {
      "midi": 64,
      "hit": false,
      "t": 126958.52688750092,
      "d": 119.23065000001225,
      "v": 94
    },
    {
      "midi": 67,
      "hit": false,
      "t": 126985.44993750092,
      "d": 91.34606250001525,
      "v": 85
    },
    {
      "midi": 36,
      "hit": false,
      "t": 127153.71900000008,
      "d": 225.96131250000326,
      "v": 120
    },
    {
      "midi": 46,
      "hit": false,
      "t": 127153.71900000008,
      "d": 225.96131250000326,
      "v": 96
    },
    {
      "midi": 57,
      "hit": false,
      "t": 127153.71900000008,
      "d": 225.96131250000326,
      "v": 113
    },
    {
      "midi": 50,
      "hit": false,
      "t": 127153.71900000011,
      "d": 456.7303125000035,
      "v": 117
    },
    {
      "midi": 50,
      "hit": false,
      "t": 127153.71900000011,
      "d": 225.96131250000326,
      "v": 101
    },
    {
      "midi": 57,
      "hit": false,
      "t": 127153.71900000011,
      "d": 225.96131250000326,
      "v": 92
    },
    {
      "midi": 62,
      "hit": false,
      "t": 127189.29588750094,
      "d": 1774.0366875000182,
      "v": 99
    },
    {
      "midi": 66,
      "hit": false,
      "t": 127190.25742500093,
      "d": 1774.0366875000182,
      "v": 104
    },
    {
      "midi": 69,
      "hit": false,
      "t": 127191.21896250093,
      "d": 1774.0366875000182,
      "v": 104
    },
    {
      "midi": 56,
      "hit": false,
      "t": 127379.68031250009,
      "d": 4.807687499996973,
      "v": 104
    },
    {
      "midi": 42,
      "hit": false,
      "t": 127384.48800000008,
      "d": 225.96131250000326,
      "v": 89
    },
    {
      "midi": 56,
      "hit": false,
      "t": 127384.48800000008,
      "d": 456.7303125000035,
      "v": 100
    },
    {
      "midi": 50,
      "hit": false,
      "t": 127384.48800000011,
      "d": 225.96131250000326,
      "v": 101
    },
    {
      "midi": 57,
      "hit": false,
      "t": 127384.48800000011,
      "d": 225.96131250000326,
      "v": 88
    },
    {
      "midi": 42,
      "hit": false,
      "t": 127615.25700000009,
      "d": 225.96131250000326,
      "v": 86
    },
    {
      "midi": 38,
      "hit": false,
      "t": 127615.25700000009,
      "d": 225.96131250000326,
      "v": 50
    },
    {
      "midi": 38,
      "hit": false,
      "t": 127615.25700000011,
      "d": 456.7303125000035,
      "v": 104
    },
    {
      "midi": 57,
      "hit": false,
      "t": 127615.25700000011,
      "d": 225.96131250000326,
      "v": 79
    },
    {
      "midi": 50,
      "hit": false,
      "t": 127615.25700000011,
      "d": 225.96131250000326,
      "v": 83
    },
    {
      "midi": 42,
      "hit": false,
      "t": 127846.02600000009,
      "d": 225.96131250000326,
      "v": 84
    },
    {
      "midi": 38,
      "hit": false,
      "t": 127846.02600000009,
      "d": 225.96131250000326,
      "v": 65
    },
    {
      "midi": 56,
      "hit": false,
      "t": 127846.02600000009,
      "d": 456.7303125000035,
      "v": 96
    },
    {
      "midi": 50,
      "hit": false,
      "t": 127846.02600000011,
      "d": 225.96131250000326,
      "v": 97
    },
    {
      "midi": 59,
      "hit": false,
      "t": 127846.02600000011,
      "d": 225.96131250000326,
      "v": 83
    },
    {
      "midi": 42,
      "hit": false,
      "t": 128076.79500000009,
      "d": 225.96131250000326,
      "v": 73
    },
    {
      "midi": 38,
      "hit": false,
      "t": 128076.79500000009,
      "d": 225.96131250000326,
      "v": 76
    },
    {
      "midi": 38,
      "hit": false,
      "t": 128076.79500000011,
      "d": 225.96131250000326,
      "v": 101
    },
    {
      "midi": 50,
      "hit": false,
      "t": 128076.79500000011,
      "d": 225.96131250000326,
      "v": 90
    },
    {
      "midi": 57,
      "hit": false,
      "t": 128076.79500000011,
      "d": 225.96131250000326,
      "v": 75
    },
    {
      "midi": 36,
      "hit": false,
      "t": 128307.56400000009,
      "d": 225.96131250000326,
      "v": 117
    },
    {
      "midi": 38,
      "hit": false,
      "t": 128307.56400000009,
      "d": 225.96131250000326,
      "v": 93
    },
    {
      "midi": 42,
      "hit": false,
      "t": 128307.56400000009,
      "d": 225.96131250000326,
      "v": 92
    },
    {
      "midi": 56,
      "hit": false,
      "t": 128307.56400000009,
      "d": 456.7303125000035,
      "v": 100
    },
    {
      "midi": 40,
      "hit": false,
      "t": 128307.56400000011,
      "d": 225.96131250000326,
      "v": 110
    },
    {
      "midi": 57,
      "hit": false,
      "t": 128307.56400000011,
      "d": 225.96131250000326,
      "v": 80
    },
    {
      "midi": 50,
      "hit": false,
      "t": 128307.56400000011,
      "d": 225.96131250000326,
      "v": 94
    },
    {
      "midi": 46,
      "hit": false,
      "t": 128538.33300000009,
      "d": 225.96131250000326,
      "v": 86
    },
    {
      "midi": 38,
      "hit": false,
      "t": 128538.33300000009,
      "d": 225.96131250000326,
      "v": 110
    },
    {
      "midi": 38,
      "hit": false,
      "t": 128538.33300000012,
      "d": 225.96131250000326,
      "v": 101
    },
    {
      "midi": 50,
      "hit": false,
      "t": 128538.33300000012,
      "d": 225.96131250000326,
      "v": 97
    },
    {
      "midi": 57,
      "hit": false,
      "t": 128538.33300000012,
      "d": 225.96131250000326,
      "v": 78
    },
    {
      "midi": 38,
      "hit": false,
      "t": 128769.10200000009,
      "d": 100.96143749999464,
      "v": 117
    },
    {
      "midi": 42,
      "hit": false,
      "t": 128769.10200000009,
      "d": 225.9613124999887,
      "v": 84
    },
    {
      "midi": 56,
      "hit": false,
      "t": 128769.10200000009,
      "d": 456.73031249998894,
      "v": 100
    },
    {
      "midi": 35,
      "hit": false,
      "t": 128769.10200000012,
      "d": 225.96131250000326,
      "v": 117
    },
    {
      "midi": 50,
      "hit": false,
      "t": 128769.10200000012,
      "d": 225.96131250000326,
      "v": 107
    },
    {
      "midi": 59,
      "hit": false,
      "t": 128769.10200000012,
      "d": 225.96131250000326,
      "v": 86
    },
    {
      "midi": 46,
      "hit": false,
      "t": 128999.87100000007,
      "d": 225.96131250000326,
      "v": 89
    },
    {
      "midi": 45,
      "hit": false,
      "t": 128999.87100000007,
      "d": 225.96131250000326,
      "v": 120
    },
    {
      "midi": 33,
      "hit": false,
      "t": 128999.87100000012,
      "d": 225.96131250000326,
      "v": 110
    },
    {
      "midi": 50,
      "hit": false,
      "t": 128999.87100000012,
      "d": 225.96131250000326,
      "v": 104
    },
    {
      "midi": 57,
      "hit": false,
      "t": 128999.87100000012,
      "d": 225.96131250000326,
      "v": 86
    },
    {
      "midi": 62,
      "hit": false,
      "t": 129220.06308750095,
      "d": 163.46137499999895,
      "v": 97
    },
    {
      "midi": 67,
      "hit": false,
      "t": 129221.02462500095,
      "d": 136.53832500000135,
      "v": 94
    },
    {
      "midi": 71,
      "hit": false,
      "t": 129221.98616250095,
      "d": 134.61525000000256,
      "v": 90
    },
    {
      "midi": 42,
      "hit": false,
      "t": 129230.64000000007,
      "d": 225.96131250000326,
      "v": 86
    },
    {
      "midi": 56,
      "hit": false,
      "t": 129230.64000000007,
      "d": 456.7303125000035,
      "v": 86
    },
    {
      "midi": 57,
      "hit": false,
      "t": 129230.64000000007,
      "d": 456.7303125000035,
      "v": 113
    },
    {
      "midi": 36,
      "hit": false,
      "t": 129230.64000000007,
      "d": 456.7303125000035,
      "v": 120
    },
    {
      "midi": 31,
      "hit": false,
      "t": 129230.64000000012,
      "d": 225.96131250000326,
      "v": 117
    },
    {
      "midi": 50,
      "hit": false,
      "t": 129230.64000000012,
      "d": 225.96131250000326,
      "v": 97
    },
    {
      "midi": 43,
      "hit": false,
      "t": 129230.64000000012,
      "d": 225.96131250000326,
      "v": 107
    },
    {
      "midi": 62,
      "hit": false,
      "t": 129458.52438750095,
      "d": 106.73066250000556,
      "v": 78
    },
    {
      "midi": 66,
      "hit": false,
      "t": 129458.52438750095,
      "d": 122.11526250001043,
      "v": 85
    },
    {
      "midi": 69,
      "hit": false,
      "t": 129459.48592500095,
      "d": 120.19218750001164,
      "v": 88
    },
    {
      "midi": 46,
      "hit": false,
      "t": 129461.40900000007,
      "d": 225.96131250000326,
      "v": 89
    },
    {
      "midi": 43,
      "hit": false,
      "t": 129461.40900000012,
      "d": 225.96131250000326,
      "v": 117
    },
    {
      "midi": 43,
      "hit": false,
      "t": 129461.40900000012,
      "d": 225.96131250000326,
      "v": 92
    },
    {
      "midi": 50,
      "hit": false,
      "t": 129461.40900000012,
      "d": 225.96131250000326,
      "v": 82
    },
    {
      "midi": 62,
      "hit": false,
      "t": 129678.71647500095,
      "d": 163.46137500002806,
      "v": 72
    },
    {
      "midi": 71,
      "hit": false,
      "t": 129680.63955000095,
      "d": 134.6152500000171,
      "v": 83
    },
    {
      "midi": 67,
      "hit": false,
      "t": 129681.60108750095,
      "d": 147.1152375000238,
      "v": 85
    },
    {
      "midi": 42,
      "hit": false,
      "t": 129692.17800000007,
      "d": 225.96131250000326,
      "v": 96
    },
    {
      "midi": 56,
      "hit": false,
      "t": 129692.17800000007,
      "d": 456.7303125000035,
      "v": 75
    },
    {
      "midi": 58,
      "hit": false,
      "t": 129692.17800000007,
      "d": 456.7303125000035,
      "v": 109
    },
    {
      "midi": 38,
      "hit": false,
      "t": 129692.17800000007,
      "d": 456.7303125000035,
      "v": 117
    },
    {
      "midi": 31,
      "hit": false,
      "t": 129692.17800000012,
      "d": 225.96131250000326,
      "v": 113
    },
    {
      "midi": 43,
      "hit": false,
      "t": 129692.17800000012,
      "d": 225.96131250000326,
      "v": 97
    },
    {
      "midi": 52,
      "hit": false,
      "t": 129692.17800000012,
      "d": 225.96131250000326,
      "v": 88
    },
    {
      "midi": 46,
      "hit": false,
      "t": 129922.94700000007,
      "d": 225.96131250000326,
      "v": 92
    },
    {
      "midi": 31,
      "hit": false,
      "t": 129922.94700000012,
      "d": 456.7303125000035,
      "v": 113
    },
    {
      "midi": 43,
      "hit": false,
      "t": 129922.94700000012,
      "d": 225.96131250000326,
      "v": 99
    },
    {
      "midi": 50,
      "hit": false,
      "t": 129922.94700000012,
      "d": 225.96131250000326,
      "v": 83
    },
    {
      "midi": 66,
      "hit": false,
      "t": 129952.75466250099,
      "d": 211.5382500000269,
      "v": 88
    },
    {
      "midi": 69,
      "hit": false,
      "t": 129953.71620000098,
      "d": 224.03823750003357,
      "v": 88
    },
    {
      "midi": 62,
      "hit": false,
      "t": 129955.63927500098,
      "d": 208.6536375000287,
      "v": 90
    },
    {
      "midi": 42,
      "hit": false,
      "t": 130153.71600000007,
      "d": 225.96131250000326,
      "v": 86
    },
    {
      "midi": 56,
      "hit": false,
      "t": 130153.71600000007,
      "d": 456.7303125000035,
      "v": 73
    },
    {
      "midi": 36,
      "hit": false,
      "t": 130153.71600000007,
      "d": 456.7303125000035,
      "v": 123
    },
    {
      "midi": 50,
      "hit": false,
      "t": 130153.71600000012,
      "d": 225.96131250000326,
      "v": 85
    },
    {
      "midi": 43,
      "hit": false,
      "t": 130153.71600000012,
      "d": 225.96131250000326,
      "v": 94
    },
    {
      "midi": 42,
      "hit": false,
      "t": 130384.48500000007,
      "d": 110.57681250000314,
      "v": 89
    },
    {
      "midi": 43,
      "hit": false,
      "t": 130384.48500000012,
      "d": 225.96131250000326,
      "v": 113
    },
    {
      "midi": 50,
      "hit": false,
      "t": 130384.48500000012,
      "d": 225.96131250000326,
      "v": 78
    },
    {
      "midi": 43,
      "hit": false,
      "t": 130384.48500000012,
      "d": 225.96131250000326,
      "v": 90
    },
    {
      "midi": 67,
      "hit": false,
      "t": 130397.94652500101,
      "d": 294.23047500003304,
      "v": 90
    },
    {
      "midi": 62,
      "hit": false,
      "t": 130397.94652500101,
      "d": 308.6535375000385,
      "v": 86
    },
    {
      "midi": 71,
      "hit": false,
      "t": 130415.25420000101,
      "d": 263.4612750000233,
      "v": 85
    },
    {
      "midi": 42,
      "hit": false,
      "t": 130499.86950000007,
      "d": 110.57681250000314,
      "v": 92
    },
    {
      "midi": 42,
      "hit": false,
      "t": 130615.25400000007,
      "d": 225.96131250000326,
      "v": 100
    },
    {
      "midi": 56,
      "hit": false,
      "t": 130615.25400000007,
      "d": 456.7303125000035,
      "v": 71
    },
    {
      "midi": 38,
      "hit": false,
      "t": 130615.25400000007,
      "d": 456.7303125000035,
      "v": 117
    },
    {
      "midi": 31,
      "hit": false,
      "t": 130615.25400000012,
      "d": 225.96131250000326,
      "v": 110
    },
    {
      "midi": 43,
      "hit": false,
      "t": 130615.25400000012,
      "d": 225.96131250000326,
      "v": 107
    },
    {
      "midi": 52,
      "hit": false,
      "t": 130615.25400000012,
      "d": 225.96131250000326,
      "v": 97
    },
    {
      "midi": 46,
      "hit": false,
      "t": 130846.02300000007,
      "d": 225.96131250000326,
      "v": 96
    },
    {
      "midi": 31,
      "hit": false,
      "t": 130846.02300000012,
      "d": 456.73031249998894,
      "v": 110
    },
    {
      "midi": 43,
      "hit": false,
      "t": 130846.02300000012,
      "d": 225.96131250000326,
      "v": 99
    },
    {
      "midi": 50,
      "hit": false,
      "t": 130846.02300000012,
      "d": 225.96131250000326,
      "v": 88
    },
    {
      "midi": 64,
      "hit": false,
      "t": 130875.83066250104,
      "d": 827.8837875000027,
      "v": 94
    },
    {
      "midi": 60,
      "hit": false,
      "t": 130878.71527500104,
      "d": 775.9607625000062,
      "v": 94
    },
    {
      "midi": 67,
      "hit": false,
      "t": 130878.71527500104,
      "d": 825.9607125000039,
      "v": 94
    },
    {
      "midi": 42,
      "hit": false,
      "t": 131076.79200000007,
      "d": 225.96131250000326,
      "v": 89
    },
    {
      "midi": 56,
      "hit": false,
      "t": 131076.79200000007,
      "d": 456.7303125000035,
      "v": 75
    },
    {
      "midi": 36,
      "hit": false,
      "t": 131076.79200000007,
      "d": 456.7303125000035,
      "v": 117
    },
    {
      "midi": 50,
      "hit": false,
      "t": 131076.79200000013,
      "d": 225.96131250000326,
      "v": 86
    },
    {
      "midi": 43,
      "hit": false,
      "t": 131076.79200000013,
      "d": 225.96131250000326,
      "v": 99
    },
    {
      "midi": 46,
      "hit": false,
      "t": 131307.56100000007,
      "d": 225.96131250000326,
      "v": 84
    },
    {
      "midi": 43,
      "hit": false,
      "t": 131307.5610000001,
      "d": 225.96131250000326,
      "v": 117
    },
    {
      "midi": 50,
      "hit": false,
      "t": 131307.56100000013,
      "d": 225.96131250000326,
      "v": 82
    },
    {
      "midi": 43,
      "hit": false,
      "t": 131307.56100000013,
      "d": 225.96131250000326,
      "v": 99
    },
    {
      "midi": 42,
      "hit": false,
      "t": 131538.33000000007,
      "d": 225.96131250000326,
      "v": 100
    },
    {
      "midi": 56,
      "hit": false,
      "t": 131538.33000000007,
      "d": 456.7303124999744,
      "v": 73
    },
    {
      "midi": 38,
      "hit": false,
      "t": 131538.33000000007,
      "d": 456.7303124999744,
      "v": 113
    },
    {
      "midi": 31,
      "hit": false,
      "t": 131538.3300000001,
      "d": 225.96131250000326,
      "v": 113
    },
    {
      "midi": 43,
      "hit": false,
      "t": 131538.33000000013,
      "d": 225.96131250000326,
      "v": 110
    },
    {
      "midi": 52,
      "hit": false,
      "t": 131538.33000000013,
      "d": 225.96131250000326,
      "v": 86
    },
    {
      "midi": 42,
      "hit": false,
      "t": 131769.09900000007,
      "d": 110.57681249998859,
      "v": 84
    },
    {
      "midi": 43,
      "hit": false,
      "t": 131769.0990000001,
      "d": 225.96131250000326,
      "v": 110
    },
    {
      "midi": 43,
      "hit": false,
      "t": 131769.09900000013,
      "d": 225.96131250000326,
      "v": 92
    },
    {
      "midi": 50,
      "hit": false,
      "t": 131769.09900000013,
      "d": 225.96131250000326,
      "v": 71
    },
    {
      "midi": 62,
      "hit": false,
      "t": 131792.17590000105,
      "d": 889.4221874999639,
      "v": 86
    },
    {
      "midi": 66,
      "hit": false,
      "t": 131806.59896250104,
      "d": 899.9990999999864,
      "v": 88
    },
    {
      "midi": 69,
      "hit": false,
      "t": 131807.56050000104,
      "d": 914.4221624999773,
      "v": 86
    },
    {
      "midi": 42,
      "hit": false,
      "t": 131884.48350000006,
      "d": 110.57681249998859,
      "v": 89
    },
    {
      "midi": 42,
      "hit": false,
      "t": 131999.86800000005,
      "d": 225.96131250000326,
      "v": 100
    },
    {
      "midi": 56,
      "hit": false,
      "t": 131999.86800000005,
      "d": 456.7303125000035,
      "v": 75
    },
    {
      "midi": 36,
      "hit": false,
      "t": 131999.86800000005,
      "d": 456.7303125000035,
      "v": 113
    },
    {
      "midi": 28,
      "hit": false,
      "t": 131999.8680000001,
      "d": 225.96131250000326,
      "v": 117
    },
    {
      "midi": 50,
      "hit": false,
      "t": 131999.86800000013,
      "d": 225.96131250000326,
      "v": 90
    },
    {
      "midi": 43,
      "hit": false,
      "t": 131999.86800000013,
      "d": 225.96131250000326,
      "v": 101
    },
    {
      "midi": 46,
      "hit": false,
      "t": 132230.63700000005,
      "d": 225.96131250000326,
      "v": 84
    },
    {
      "midi": 28,
      "hit": false,
      "t": 132230.6370000001,
      "d": 456.7303125000035,
      "v": 120
    },
    {
      "midi": 50,
      "hit": false,
      "t": 132230.63700000013,
      "d": 225.96131250000326,
      "v": 80
    },
    {
      "midi": 43,
      "hit": false,
      "t": 132230.63700000013,
      "d": 225.96131250000326,
      "v": 90
    },
    {
      "midi": 42,
      "hit": false,
      "t": 132461.40600000005,
      "d": 225.96131250000326,
      "v": 104
    },
    {
      "midi": 56,
      "hit": false,
      "t": 132461.40600000005,
      "d": 456.7303125000035,
      "v": 71
    },
    {
      "midi": 38,
      "hit": false,
      "t": 132461.40600000005,
      "d": 456.7303125000035,
      "v": 120
    },
    {
      "midi": 52,
      "hit": false,
      "t": 132461.40600000013,
      "d": 225.96131250000326,
      "v": 94
    },
    {
      "midi": 43,
      "hit": false,
      "t": 132461.40600000013,
      "d": 225.96131250000326,
      "v": 107
    },
    {
      "midi": 46,
      "hit": false,
      "t": 132692.17500000005,
      "d": 225.96131250000326,
      "v": 96
    },
    {
      "midi": 31,
      "hit": false,
      "t": 132692.1750000001,
      "d": 456.7303125000035,
      "v": 113
    },
    {
      "midi": 43,
      "hit": false,
      "t": 132692.17500000013,
      "d": 225.96131250000326,
      "v": 92
    },
    {
      "midi": 50,
      "hit": false,
      "t": 132692.17500000013,
      "d": 225.96131250000326,
      "v": 79
    },
    {
      "midi": 42,
      "hit": false,
      "t": 132922.94400000005,
      "d": 225.96131250000326,
      "v": 89
    },
    {
      "midi": 56,
      "hit": false,
      "t": 132922.94400000005,
      "d": 456.7303125000035,
      "v": 69
    },
    {
      "midi": 36,
      "hit": false,
      "t": 132922.94400000005,
      "d": 456.7303125000035,
      "v": 117
    },
    {
      "midi": 43,
      "hit": false,
      "t": 132922.94400000013,
      "d": 225.96131250000326,
      "v": 101
    },
    {
      "midi": 50,
      "hit": false,
      "t": 132922.94400000013,
      "d": 225.96131250000326,
      "v": 92
    },
    {
      "midi": 67,
      "hit": false,
      "t": 132926.790150001,
      "d": 133.65371250000317,
      "v": 92
    },
    {
      "midi": 62,
      "hit": false,
      "t": 132927.751687501,
      "d": 131.73063750000438,
      "v": 97
    },
    {
      "midi": 71,
      "hit": false,
      "t": 132928.713225001,
      "d": 129.8075625000056,
      "v": 88
    },
    {
      "midi": 46,
      "hit": false,
      "t": 133153.71300000005,
      "d": 225.96131250000326,
      "v": 84
    },
    {
      "midi": 43,
      "hit": false,
      "t": 133153.7130000001,
      "d": 225.96131250000326,
      "v": 117
    },
    {
      "midi": 43,
      "hit": false,
      "t": 133153.71300000013,
      "d": 225.96131250000326,
      "v": 97
    },
    {
      "midi": 50,
      "hit": false,
      "t": 133153.71300000013,
      "d": 225.96131250000326,
      "v": 85
    },
    {
      "midi": 66,
      "hit": false,
      "t": 133158.520687501,
      "d": 113.46142500001588,
      "v": 82
    },
    {
      "midi": 62,
      "hit": false,
      "t": 133161.405300001,
      "d": 108.6537375000189,
      "v": 76
    },
    {
      "midi": 69,
      "hit": false,
      "t": 133162.366837501,
      "d": 108.6537375000189,
      "v": 88
    },
    {
      "midi": 62,
      "hit": false,
      "t": 133382.558925001,
      "d": 140.38447499999893,
      "v": 80
    },
    {
      "midi": 42,
      "hit": false,
      "t": 133384.48200000005,
      "d": 225.96131250000326,
      "v": 100
    },
    {
      "midi": 56,
      "hit": false,
      "t": 133384.48200000005,
      "d": 456.7303124999744,
      "v": 66
    },
    {
      "midi": 38,
      "hit": false,
      "t": 133384.48200000005,
      "d": 456.7303124999744,
      "v": 113
    },
    {
      "midi": 31,
      "hit": false,
      "t": 133384.4820000001,
      "d": 225.96131250000326,
      "v": 113
    },
    {
      "midi": 52,
      "hit": false,
      "t": 133384.48200000013,
      "d": 225.96131250000326,
      "v": 94
    },
    {
      "midi": 43,
      "hit": false,
      "t": 133384.48200000013,
      "d": 225.96131250000326,
      "v": 110
    },
    {
      "midi": 71,
      "hit": false,
      "t": 133399.866600001,
      "d": 109.6152750000183,
      "v": 86
    },
    {
      "midi": 67,
      "hit": false,
      "t": 133399.866600001,
      "d": 110.5768125000177,
      "v": 86
    },
    {
      "midi": 42,
      "hit": false,
      "t": 133615.25100000005,
      "d": 110.57681249998859,
      "v": 84
    },
    {
      "midi": 31,
      "hit": false,
      "t": 133615.2510000001,
      "d": 456.7303125000035,
      "v": 113
    },
    {
      "midi": 43,
      "hit": false,
      "t": 133615.25100000013,
      "d": 225.96131250000326,
      "v": 83
    },
    {
      "midi": 50,
      "hit": false,
      "t": 133615.25100000013,
      "d": 225.96131250000326,
      "v": 82
    },
    {
      "midi": 66,
      "hit": false,
      "t": 133621.981762501,
      "d": 271.1535749999748,
      "v": 90
    },
    {
      "midi": 62,
      "hit": false,
      "t": 133622.943300001,
      "d": 256.7305124999839,
      "v": 85
    },
    {
      "midi": 69,
      "hit": false,
      "t": 133623.904837501,
      "d": 270.1920374999754,
      "v": 90
    },
    {
      "midi": 42,
      "hit": false,
      "t": 133730.63550000003,
      "d": 110.57681249998859,
      "v": 89
    },
    {
      "midi": 42,
      "hit": false,
      "t": 133846.02000000002,
      "d": 225.96131250000326,
      "v": 100
    },
    {
      "midi": 56,
      "hit": false,
      "t": 133846.02000000002,
      "d": 456.7303125000035,
      "v": 63
    },
    {
      "midi": 36,
      "hit": false,
      "t": 133846.02000000002,
      "d": 456.7303125000035,
      "v": 113
    },
    {
      "midi": 50,
      "hit": false,
      "t": 133846.02000000014,
      "d": 225.96131250000326,
      "v": 90
    },
    {
      "midi": 43,
      "hit": false,
      "t": 133846.02000000014,
      "d": 225.96131250000326,
      "v": 107
    },
    {
      "midi": 46,
      "hit": false,
      "t": 134076.78900000002,
      "d": 225.96131250000326,
      "v": 84
    },
    {
      "midi": 43,
      "hit": false,
      "t": 134076.7890000001,
      "d": 225.96131250000326,
      "v": 113
    },
    {
      "midi": 50,
      "hit": false,
      "t": 134076.78900000014,
      "d": 225.96131250000326,
      "v": 80
    },
    {
      "midi": 43,
      "hit": false,
      "t": 134076.78900000014,
      "d": 225.96131250000326,
      "v": 90
    },
    {
      "midi": 67,
      "hit": false,
      "t": 134088.32745000097,
      "d": 294.2304749999603,
      "v": 92
    },
    {
      "midi": 62,
      "hit": false,
      "t": 134089.28898750097,
      "d": 305.768924999953,
      "v": 94
    },
    {
      "midi": 71,
      "hit": false,
      "t": 134091.21206250097,
      "d": 278.84587499996996,
      "v": 86
    },
    {
      "midi": 42,
      "hit": false,
      "t": 134307.55800000002,
      "d": 225.96131250000326,
      "v": 104
    },
    {
      "midi": 56,
      "hit": false,
      "t": 134307.55800000002,
      "d": 456.7303125000035,
      "v": 75
    },
    {
      "midi": 38,
      "hit": false,
      "t": 134307.55800000002,
      "d": 456.7303125000035,
      "v": 120
    },
    {
      "midi": 31,
      "hit": false,
      "t": 134307.5580000001,
      "d": 225.96131250000326,
      "v": 110
    },
    {
      "midi": 52,
      "hit": false,
      "t": 134307.55800000014,
      "d": 225.96131250000326,
      "v": 88
    },
    {
      "midi": 43,
      "hit": false,
      "t": 134307.55800000014,
      "d": 225.96131250000326,
      "v": 107
    },
    {
      "midi": 46,
      "hit": false,
      "t": 134538.32700000002,
      "d": 225.96131250000326,
      "v": 96
    },
    {
      "midi": 31,
      "hit": false,
      "t": 134538.3270000001,
      "d": 456.7303125000035,
      "v": 110
    },
    {
      "midi": 43,
      "hit": false,
      "t": 134538.32700000014,
      "d": 225.96131250000326,
      "v": 90
    },
    {
      "midi": 50,
      "hit": false,
      "t": 134538.32700000014,
      "d": 225.96131250000326,
      "v": 74
    },
    {
      "midi": 64,
      "hit": false,
      "t": 134577.75003750093,
      "d": 680.7685499999498,
      "v": 99
    },
    {
      "midi": 60,
      "hit": false,
      "t": 134578.71157500093,
      "d": 619.2301499999594,
      "v": 97
    },
    {
      "midi": 67,
      "hit": false,
      "t": 134578.71157500093,
      "d": 704.8069874999637,
      "v": 94
    },
    {
      "midi": 42,
      "hit": false,
      "t": 134769.09600000002,
      "d": 225.96131250000326,
      "v": 89
    },
    {
      "midi": 56,
      "hit": false,
      "t": 134769.09600000002,
      "d": 456.7303125000035,
      "v": 77
    },
    {
      "midi": 36,
      "hit": false,
      "t": 134769.09600000002,
      "d": 456.7303125000035,
      "v": 117
    },
    {
      "midi": 50,
      "hit": false,
      "t": 134769.09600000014,
      "d": 225.96131250000326,
      "v": 88
    },
    {
      "midi": 43,
      "hit": false,
      "t": 134769.09600000014,
      "d": 225.96131250000326,
      "v": 99
    },
    {
      "midi": 46,
      "hit": false,
      "t": 134999.86500000002,
      "d": 225.96131250000326,
      "v": 84
    },
    {
      "midi": 43,
      "hit": false,
      "t": 134999.8650000001,
      "d": 225.96131250000326,
      "v": 117
    },
    {
      "midi": 50,
      "hit": false,
      "t": 134999.86500000014,
      "d": 225.96131250000326,
      "v": 82
    },
    {
      "midi": 43,
      "hit": false,
      "t": 134999.86500000014,
      "d": 225.96131250000326,
      "v": 90
    },
    {
      "midi": 72,
      "hit": false,
      "t": 135146.9802375009,
      "d": 306.7304625000106,
      "v": 86
    },
    {
      "midi": 42,
      "hit": false,
      "t": 135230.63400000002,
      "d": 225.96131250000326,
      "v": 100
    },
    {
      "midi": 56,
      "hit": false,
      "t": 135230.63400000002,
      "d": 456.7303124999744,
      "v": 64
    },
    {
      "midi": 38,
      "hit": false,
      "t": 135230.63400000002,
      "d": 456.7303124999744,
      "v": 113
    },
    {
      "midi": 31,
      "hit": false,
      "t": 135230.6340000001,
      "d": 225.96131250000326,
      "v": 113
    },
    {
      "midi": 43,
      "hit": false,
      "t": 135230.63400000014,
      "d": 225.96131250000326,
      "v": 94
    },
    {
      "midi": 52,
      "hit": false,
      "t": 135230.63400000014,
      "d": 225.96131250000326,
      "v": 90
    },
    {
      "midi": 42,
      "hit": false,
      "t": 135461.40300000002,
      "d": 110.57681249998859,
      "v": 84
    },
    {
      "midi": 43,
      "hit": false,
      "t": 135461.4030000001,
      "d": 225.96131250000326,
      "v": 110
    },
    {
      "midi": 43,
      "hit": false,
      "t": 135461.40300000014,
      "d": 225.96131250000326,
      "v": 97
    },
    {
      "midi": 50,
      "hit": false,
      "t": 135461.40300000014,
      "d": 225.96131250000326,
      "v": 88
    },
    {
      "midi": 62,
      "hit": false,
      "t": 135467.1722250009,
      "d": 939.4221374999324,
      "v": 101
    },
    {
      "midi": 42,
      "hit": false,
      "t": 135576.7875,
      "d": 110.57681249998859,
      "v": 89
    },
    {
      "midi": 42,
      "hit": false,
      "t": 135692.172,
      "d": 225.96131250000326,
      "v": 100
    },
    {
      "midi": 56,
      "hit": false,
      "t": 135692.172,
      "d": 456.7303125000035,
      "v": 84
    },
    {
      "midi": 36,
      "hit": false,
      "t": 135692.172,
      "d": 456.7303125000035,
      "v": 113
    },
    {
      "midi": 28,
      "hit": false,
      "t": 135692.1720000001,
      "d": 225.96131250000326,
      "v": 117
    },
    {
      "midi": 50,
      "hit": false,
      "t": 135692.17200000014,
      "d": 225.96131250000326,
      "v": 85
    },
    {
      "midi": 43,
      "hit": false,
      "t": 135692.17200000014,
      "d": 225.96131250000326,
      "v": 97
    },
    {
      "midi": 46,
      "hit": false,
      "t": 135922.941,
      "d": 225.96131250000326,
      "v": 84
    },
    {
      "midi": 28,
      "hit": false,
      "t": 135922.9410000001,
      "d": 456.7303125000035,
      "v": 120
    },
    {
      "midi": 50,
      "hit": false,
      "t": 135922.94100000014,
      "d": 225.96131250000326,
      "v": 76
    },
    {
      "midi": 43,
      "hit": false,
      "t": 135922.94100000014,
      "d": 225.96131250000326,
      "v": 92
    },
    {
      "midi": 66,
      "hit": false,
      "t": 135942.17175000082,
      "d": 463.46107499999925,
      "v": 86
    },
    {
      "midi": 42,
      "hit": false,
      "t": 136153.71,
      "d": 225.96131250000326,
      "v": 104
    },
    {
      "midi": 56,
      "hit": false,
      "t": 136153.71,
      "d": 456.7303125000035,
      "v": 69
    },
    {
      "midi": 38,
      "hit": false,
      "t": 136153.71,
      "d": 456.7303125000035,
      "v": 120
    },
    {
      "midi": 52,
      "hit": false,
      "t": 136153.71000000014,
      "d": 225.96131250000326,
      "v": 92
    },
    {
      "midi": 43,
      "hit": false,
      "t": 136153.71000000014,
      "d": 225.96131250000326,
      "v": 104
    },
    {
      "midi": 69,
      "hit": false,
      "t": 136173.90228750082,
      "d": 257.6920500000124,
      "v": 85
    },
    {
      "midi": 46,
      "hit": false,
      "t": 136384.479,
      "d": 225.96131250000326,
      "v": 96
    },
    {
      "midi": 31,
      "hit": false,
      "t": 136384.4790000001,
      "d": 456.7303125000035,
      "v": 117
    },
    {
      "midi": 43,
      "hit": false,
      "t": 136384.47900000014,
      "d": 225.96131250000326,
      "v": 99
    },
    {
      "midi": 50,
      "hit": false,
      "t": 136384.47900000014,
      "d": 225.96131250000326,
      "v": 92
    },
    {
      "midi": 42,
      "hit": false,
      "t": 136615.248,
      "d": 225.96131250000326,
      "v": 89
    },
    {
      "midi": 56,
      "hit": false,
      "t": 136615.248,
      "d": 456.7303125000035,
      "v": 75
    },
    {
      "midi": 36,
      "hit": false,
      "t": 136615.248,
      "d": 456.7303125000035,
      "v": 117
    },
    {
      "midi": 50,
      "hit": false,
      "t": 136615.24800000014,
      "d": 225.96131250000326,
      "v": 86
    },
    {
      "midi": 43,
      "hit": false,
      "t": 136615.24800000014,
      "d": 225.96131250000326,
      "v": 99
    },
    {
      "midi": 62,
      "hit": false,
      "t": 136625.82491250083,
      "d": 157.69215000001714,
      "v": 90
    },
    {
      "midi": 67,
      "hit": false,
      "t": 136626.78645000083,
      "d": 117.30757500001346,
      "v": 94
    },
    {
      "midi": 71,
      "hit": false,
      "t": 136626.78645000083,
      "d": 118.26911250001285,
      "v": 90
    },
    {
      "midi": 46,
      "hit": false,
      "t": 136846.017,
      "d": 225.96131250000326,
      "v": 84
    },
    {
      "midi": 43,
      "hit": false,
      "t": 136846.0170000001,
      "d": 225.96131250000326,
      "v": 117
    },
    {
      "midi": 43,
      "hit": false,
      "t": 136846.01700000014,
      "d": 225.96131250000326,
      "v": 86
    },
    {
      "midi": 50,
      "hit": false,
      "t": 136846.01700000014,
      "d": 225.96131250000326,
      "v": 75
    },
    {
      "midi": 62,
      "hit": false,
      "t": 136846.01700000084,
      "d": 95.19221249999828,
      "v": 69
    },
    {
      "midi": 66,
      "hit": false,
      "t": 136846.97853750084,
      "d": 107.69219999999041,
      "v": 85
    },
    {
      "midi": 69,
      "hit": false,
      "t": 136865.24775000082,
      "d": 88.46145000000251,
      "v": 88
    },
    {
      "midi": 62,
      "hit": false,
      "t": 137066.2090875008,
      "d": 148.0767749999941,
      "v": 82
    },
    {
      "midi": 42,
      "hit": false,
      "t": 137076.786,
      "d": 225.96131250000326,
      "v": 100
    },
    {
      "midi": 56,
      "hit": false,
      "t": 137076.786,
      "d": 456.7303124999744,
      "v": 79
    },
    {
      "midi": 38,
      "hit": false,
      "t": 137076.786,
      "d": 456.7303124999744,
      "v": 113
    },
    {
      "midi": 31,
      "hit": false,
      "t": 137076.7860000001,
      "d": 225.96131250000326,
      "v": 113
    },
    {
      "midi": 43,
      "hit": false,
      "t": 137076.78600000014,
      "d": 225.96131250000326,
      "v": 97
    },
    {
      "midi": 52,
      "hit": false,
      "t": 137076.78600000014,
      "d": 225.96131250000326,
      "v": 90
    },
    {
      "midi": 67,
      "hit": false,
      "t": 137081.5936875008,
      "d": 117.30757500001346,
      "v": 90
    },
    {
      "midi": 71,
      "hit": false,
      "t": 137082.5552250008,
      "d": 117.30757500001346,
      "v": 86
    },
    {
      "midi": 42,
      "hit": false,
      "t": 137307.555,
      "d": 110.57681249998859,
      "v": 84
    },
    {
      "midi": 31,
      "hit": false,
      "t": 137307.5550000001,
      "d": 456.7303125000035,
      "v": 113
    },
    {
      "midi": 43,
      "hit": false,
      "t": 137307.55500000014,
      "d": 225.96131250000326,
      "v": 94
    },
    {
      "midi": 50,
      "hit": false,
      "t": 137307.55500000014,
      "d": 225.96131250000326,
      "v": 79
    },
    {
      "midi": 66,
      "hit": false,
      "t": 137325.8242125008,
      "d": 216.3459374999802,
      "v": 88
    },
    {
      "midi": 69,
      "hit": false,
      "t": 137326.7857500008,
      "d": 200.9613374999899,
      "v": 88
    },
    {
      "midi": 62,
      "hit": false,
      "t": 137343.1318875008,
      "d": 199.0382624999911,
      "v": 83
    },
    {
      "midi": 42,
      "hit": false,
      "t": 137422.93949999998,
      "d": 110.57681249998859,
      "v": 89
    },
    {
      "midi": 42,
      "hit": false,
      "t": 137538.32399999996,
      "d": 225.96131250000326,
      "v": 100
    },
    {
      "midi": 56,
      "hit": false,
      "t": 137538.32399999996,
      "d": 456.7303125000035,
      "v": 68
    },
    {
      "midi": 36,
      "hit": false,
      "t": 137538.32399999996,
      "d": 456.7303125000035,
      "v": 113
    },
    {
      "midi": 50,
      "hit": false,
      "t": 137538.32400000014,
      "d": 225.96131250000326,
      "v": 83
    },
    {
      "midi": 43,
      "hit": false,
      "t": 137538.32400000014,
      "d": 225.96131250000326,
      "v": 94
    },
    {
      "midi": 46,
      "hit": false,
      "t": 137769.09299999996,
      "d": 225.96131250000326,
      "v": 84
    },
    {
      "midi": 43,
      "hit": false,
      "t": 137769.0930000001,
      "d": 225.96131250000326,
      "v": 113
    },
    {
      "midi": 43,
      "hit": false,
      "t": 137769.09300000014,
      "d": 225.96131250000326,
      "v": 92
    },
    {
      "midi": 50,
      "hit": false,
      "t": 137769.09300000014,
      "d": 225.96131250000326,
      "v": 76
    },
    {
      "midi": 67,
      "hit": false,
      "t": 137797.93912500076,
      "d": 244.23052499996265,
      "v": 97
    },
    {
      "midi": 62,
      "hit": false,
      "t": 137797.93912500076,
      "d": 257.6920499999542,
      "v": 92
    },
    {
      "midi": 71,
      "hit": false,
      "t": 137798.90066250076,
      "d": 228.84592499997234,
      "v": 90
    },
    {
      "midi": 42,
      "hit": false,
      "t": 137999.86199999996,
      "d": 225.96131250000326,
      "v": 104
    },
    {
      "midi": 56,
      "hit": false,
      "t": 137999.86199999996,
      "d": 456.7303125000035,
      "v": 62
    },
    {
      "midi": 38,
      "hit": false,
      "t": 137999.86199999996,
      "d": 456.7303125000035,
      "v": 120
    },
    {
      "midi": 31,
      "hit": false,
      "t": 137999.8620000001,
      "d": 225.96131250000326,
      "v": 110
    },
    {
      "midi": 43,
      "hit": false,
      "t": 137999.86200000014,
      "d": 225.96131250000326,
      "v": 99
    },
    {
      "midi": 52,
      "hit": false,
      "t": 137999.86200000014,
      "d": 225.96131250000326,
      "v": 86
    },
    {
      "midi": 46,
      "hit": false,
      "t": 138230.63099999996,
      "d": 225.96131250000326,
      "v": 96
    },
    {
      "midi": 31,
      "hit": false,
      "t": 138230.6310000001,
      "d": 456.7303125000035,
      "v": 110
    },
    {
      "midi": 50,
      "hit": false,
      "t": 138230.63100000014,
      "d": 225.96131250000326,
      "v": 86
    },
    {
      "midi": 43,
      "hit": false,
      "t": 138230.63100000014,
      "d": 225.96131250000326,
      "v": 97
    },
    {
      "midi": 60,
      "hit": false,
      "t": 138260.4386625007,
      "d": 726.9223499999789,
      "v": 92
    },
    {
      "midi": 64,
      "hit": false,
      "t": 138261.4002000007,
      "d": 763.460774999985,
      "v": 94
    },
    {
      "midi": 67,
      "hit": false,
      "t": 138278.7078750007,
      "d": 759.6146249999874,
      "v": 88
    },
    {
      "midi": 42,
      "hit": false,
      "t": 138461.39999999997,
      "d": 225.96131250000326,
      "v": 89
    },
    {
      "midi": 56,
      "hit": false,
      "t": 138461.39999999997,
      "d": 456.7303125000035,
      "v": 62
    },
    {
      "midi": 36,
      "hit": false,
      "t": 138461.39999999997,
      "d": 456.7303125000035,
      "v": 117
    },
    {
      "midi": 50,
      "hit": false,
      "t": 138461.40000000014,
      "d": 225.96131250000326,
      "v": 90
    },
    {
      "midi": 43,
      "hit": false,
      "t": 138461.40000000014,
      "d": 225.96131250000326,
      "v": 107
    },
    {
      "midi": 46,
      "hit": false,
      "t": 138692.16899999997,
      "d": 225.96131250000326,
      "v": 84
    },
    {
      "midi": 43,
      "hit": false,
      "t": 138692.1690000001,
      "d": 225.96131250000326,
      "v": 117
    },
    {
      "midi": 50,
      "hit": false,
      "t": 138692.16900000014,
      "d": 225.96131250000326,
      "v": 73
    },
    {
      "midi": 43,
      "hit": false,
      "t": 138692.16900000014,
      "d": 225.96131250000326,
      "v": 82
    },
    {
      "midi": 42,
      "hit": false,
      "t": 138922.93799999997,
      "d": 225.96131250000326,
      "v": 100
    },
    {
      "midi": 56,
      "hit": false,
      "t": 138922.93799999997,
      "d": 456.7303124999744,
      "v": 71
    },
    {
      "midi": 38,
      "hit": false,
      "t": 138922.93799999997,
      "d": 456.7303124999744,
      "v": 113
    },
    {
      "midi": 31,
      "hit": false,
      "t": 138922.9380000001,
      "d": 225.96131250000326,
      "v": 113
    },
    {
      "midi": 52,
      "hit": false,
      "t": 138922.93800000014,
      "d": 225.96131250000326,
      "v": 85
    },
    {
      "midi": 43,
      "hit": false,
      "t": 138922.93800000014,
      "d": 225.96131250000326,
      "v": 97
    },
    {
      "midi": 42,
      "hit": false,
      "t": 139153.70699999997,
      "d": 110.57681249998859,
      "v": 84
    },
    {
      "midi": 43,
      "hit": false,
      "t": 139153.7070000001,
      "d": 225.96131250000326,
      "v": 110
    },
    {
      "midi": 43,
      "hit": false,
      "t": 139153.70700000014,
      "d": 225.96131250000326,
      "v": 97
    },
    {
      "midi": 50,
      "hit": false,
      "t": 139153.70700000014,
      "d": 225.96131250000326,
      "v": 80
    },
    {
      "midi": 62,
      "hit": false,
      "t": 139171.01467500068,
      "d": 268.2689624999766,
      "v": 94
    },
    {
      "midi": 66,
      "hit": false,
      "t": 139171.97621250068,
      "d": 817.3068749999802,
      "v": 92
    },
    {
      "midi": 69,
      "hit": false,
      "t": 139190.24542500067,
      "d": 824.9991749999754,
      "v": 90
    },
    {
      "midi": 42,
      "hit": false,
      "t": 139269.09149999995,
      "d": 110.57681249998859,
      "v": 89
    },
    {
      "midi": 42,
      "hit": false,
      "t": 139384.47599999994,
      "d": 225.96131250000326,
      "v": 100
    },
    {
      "midi": 56,
      "hit": false,
      "t": 139384.47599999994,
      "d": 456.7303125000035,
      "v": 69
    },
    {
      "midi": 36,
      "hit": false,
      "t": 139384.47599999994,
      "d": 456.7303125000035,
      "v": 113
    },
    {
      "midi": 43,
      "hit": false,
      "t": 139384.4760000001,
      "d": 225.96131250000326,
      "v": 113
    },
    {
      "midi": 50,
      "hit": false,
      "t": 139384.47600000014,
      "d": 225.96131250000326,
      "v": 82
    },
    {
      "midi": 43,
      "hit": false,
      "t": 139384.47600000014,
      "d": 225.96131250000326,
      "v": 99
    },
    {
      "midi": 62,
      "hit": false,
      "t": 139609.47577500067,
      "d": 293.26893749999,
      "v": 92
    },
    {
      "midi": 46,
      "hit": false,
      "t": 139615.24499999994,
      "d": 225.96131250000326,
      "v": 84
    },
    {
      "midi": 43,
      "hit": false,
      "t": 139615.2450000001,
      "d": 225.96131250000326,
      "v": 120
    },
    {
      "midi": 43,
      "hit": false,
      "t": 139615.24500000014,
      "d": 225.96131250000326,
      "v": 97
    },
    {
      "midi": 50,
      "hit": false,
      "t": 139615.24500000014,
      "d": 225.96131250000326,
      "v": 88
    },
    {
      "midi": 42,
      "hit": false,
      "t": 139846.01399999994,
      "d": 225.96131250000326,
      "v": 104
    },
    {
      "midi": 56,
      "hit": false,
      "t": 139846.01399999994,
      "d": 456.7303125000035,
      "v": 77
    },
    {
      "midi": 38,
      "hit": false,
      "t": 139846.01399999994,
      "d": 456.7303125000035,
      "v": 120
    },
    {
      "midi": 35,
      "hit": false,
      "t": 139846.0140000001,
      "d": 225.96131250000326,
      "v": 107
    },
    {
      "midi": 43,
      "hit": false,
      "t": 139846.01400000014,
      "d": 225.96131250000326,
      "v": 107
    },
    {
      "midi": 52,
      "hit": false,
      "t": 139846.01400000014,
      "d": 225.96131250000326,
      "v": 94
    },
    {
      "midi": 74,
      "hit": false,
      "t": 139850.82168750066,
      "d": 151.92292499999166,
      "v": 85
    },
    {
      "midi": 46,
      "hit": false,
      "t": 140076.78299999994,
      "d": 225.96131250000326,
      "v": 96
    },
    {
      "midi": 36,
      "hit": false,
      "t": 140076.7830000001,
      "d": 225.96131250000326,
      "v": 113
    },
    {
      "midi": 50,
      "hit": false,
      "t": 140076.78300000014,
      "d": 225.96131250000326,
      "v": 97
    },
    {
      "midi": 43,
      "hit": false,
      "t": 140076.78300000014,
      "d": 225.96131250000326,
      "v": 107
    },
    {
      "midi": 42,
      "hit": false,
      "t": 140307.55199999994,
      "d": 225.96131250000326,
      "v": 89
    },
    {
      "midi": 56,
      "hit": false,
      "t": 140307.55199999994,
      "d": 456.7303125000035,
      "v": 84
    },
    {
      "midi": 36,
      "hit": false,
      "t": 140307.55199999994,
      "d": 456.7303125000035,
      "v": 117
    },
    {
      "midi": 38,
      "hit": false,
      "t": 140307.5520000001,
      "d": 687.4993125000037,
      "v": 113
    },
    {
      "midi": 48,
      "hit": false,
      "t": 140307.55200000014,
      "d": 225.96131250000326,
      "v": 104
    },
    {
      "midi": 55,
      "hit": false,
      "t": 140307.55200000014,
      "d": 225.96131250000326,
      "v": 92
    },
    {
      "midi": 60,
      "hit": false,
      "t": 140318.12891250066,
      "d": 1000.9605374999519,
      "v": 97
    },
    {
      "midi": 64,
      "hit": false,
      "t": 140319.09045000066,
      "d": 1120.1911874999641,
      "v": 104
    },
    {
      "midi": 67,
      "hit": false,
      "t": 140320.05198750066,
      "d": 1234.6141499999503,
      "v": 97
    },
    {
      "midi": 46,
      "hit": false,
      "t": 140538.32099999994,
      "d": 225.96131250000326,
      "v": 84
    },
    {
      "midi": 48,
      "hit": false,
      "t": 140538.32100000014,
      "d": 225.96131250000326,
      "v": 85
    },
    {
      "midi": 55,
      "hit": false,
      "t": 140538.32100000014,
      "d": 225.96131250000326,
      "v": 80
    },
    {
      "midi": 42,
      "hit": false,
      "t": 140769.08999999994,
      "d": 225.96131250000326,
      "v": 100
    },
    {
      "midi": 56,
      "hit": false,
      "t": 140769.08999999994,
      "d": 456.7303124999744,
      "v": 75
    },
    {
      "midi": 38,
      "hit": false,
      "t": 140769.08999999994,
      "d": 456.7303124999744,
      "v": 113
    },
    {
      "midi": 57,
      "hit": false,
      "t": 140769.09000000014,
      "d": 225.96131250000326,
      "v": 83
    },
    {
      "midi": 48,
      "hit": false,
      "t": 140769.09000000014,
      "d": 225.96131250000326,
      "v": 97
    },
    {
      "midi": 42,
      "hit": false,
      "t": 140999.85899999994,
      "d": 110.57681249998859,
      "v": 84
    },
    {
      "midi": 38,
      "hit": false,
      "t": 140999.8590000001,
      "d": 225.96131250000326,
      "v": 117
    },
    {
      "midi": 48,
      "hit": false,
      "t": 140999.85900000014,
      "d": 225.96131250000326,
      "v": 94
    },
    {
      "midi": 55,
      "hit": false,
      "t": 140999.85900000014,
      "d": 225.96131250000326,
      "v": 74
    },
    {
      "midi": 42,
      "hit": false,
      "t": 141115.24349999992,
      "d": 110.57681249998859,
      "v": 89
    },
    {
      "midi": 38,
      "hit": false,
      "t": 141230.6279999999,
      "d": 225.96131250000326,
      "v": 104
    },
    {
      "midi": 42,
      "hit": false,
      "t": 141230.6279999999,
      "d": 225.96131250000326,
      "v": 100
    },
    {
      "midi": 36,
      "hit": false,
      "t": 141230.6279999999,
      "d": 456.7303125000035,
      "v": 113
    },
    {
      "midi": 56,
      "hit": false,
      "t": 141230.6279999999,
      "d": 456.7303125000035,
      "v": 79
    },
    {
      "midi": 45,
      "hit": false,
      "t": 141230.6280000001,
      "d": 225.96131250000326,
      "v": 99
    },
    {
      "midi": 55,
      "hit": false,
      "t": 141230.62800000014,
      "d": 225.96131250000326,
      "v": 83
    },
    {
      "midi": 48,
      "hit": false,
      "t": 141230.62800000014,
      "d": 225.96131250000326,
      "v": 94
    },
    {
      "midi": 72,
      "hit": false,
      "t": 141254.66643750062,
      "d": 486.5379749999847,
      "v": 76
    },
    {
      "midi": 38,
      "hit": false,
      "t": 141461.3969999999,
      "d": 225.96131250000326,
      "v": 104
    },
    {
      "midi": 46,
      "hit": false,
      "t": 141461.3969999999,
      "d": 225.96131250000326,
      "v": 84
    },
    {
      "midi": 48,
      "hit": false,
      "t": 141461.3970000001,
      "d": 225.96131250000326,
      "v": 117
    },
    {
      "midi": 48,
      "hit": false,
      "t": 141461.39700000014,
      "d": 225.96131250000326,
      "v": 90
    },
    {
      "midi": 55,
      "hit": false,
      "t": 141461.39700000014,
      "d": 225.96131250000326,
      "v": 73
    },
    {
      "midi": 60,
      "hit": false,
      "t": 141477.74313750063,
      "d": 299.99969999998575,
      "v": 94
    },
    {
      "midi": 64,
      "hit": false,
      "t": 141677.74293750062,
      "d": 137.49986250000075,
      "v": 85
    },
    {
      "midi": 38,
      "hit": false,
      "t": 141692.1659999999,
      "d": 225.96131250000326,
      "v": 117
    },
    {
      "midi": 42,
      "hit": false,
      "t": 141692.1659999999,
      "d": 225.96131250000326,
      "v": 104
    },
    {
      "midi": 56,
      "hit": false,
      "t": 141692.1659999999,
      "d": 456.7303125000035,
      "v": 71
    },
    {
      "midi": 49,
      "hit": false,
      "t": 141692.1660000001,
      "d": 225.96131250000326,
      "v": 92
    },
    {
      "midi": 57,
      "hit": false,
      "t": 141692.16600000014,
      "d": 225.96131250000326,
      "v": 86
    },
    {
      "midi": 48,
      "hit": false,
      "t": 141692.16600000014,
      "d": 225.96131250000326,
      "v": 99
    },
    {
      "midi": 62,
      "hit": false,
      "t": 141914.2811625006,
      "d": 402.8842124999501,
      "v": 94
    },
    {
      "midi": 66,
      "hit": false,
      "t": 141915.2427000006,
      "d": 1463.4600749998935,
      "v": 97
    },
    {
      "midi": 36,
      "hit": false,
      "t": 141922.9349999999,
      "d": 225.96131250000326,
      "v": 120
    },
    {
      "midi": 46,
      "hit": false,
      "t": 141922.9349999999,
      "d": 225.96131250000326,
      "v": 96
    },
    {
      "midi": 57,
      "hit": false,
      "t": 141922.9349999999,
      "d": 225.96131250000326,
      "v": 113
    },
    {
      "midi": 50,
      "hit": false,
      "t": 141922.9350000001,
      "d": 456.7303125000035,
      "v": 117
    },
    {
      "midi": 50,
      "hit": false,
      "t": 141922.93500000014,
      "d": 225.96131250000326,
      "v": 113
    },
    {
      "midi": 57,
      "hit": false,
      "t": 141922.93500000014,
      "d": 225.96131250000326,
      "v": 88
    },
    {
      "midi": 69,
      "hit": false,
      "t": 141933.5119125006,
      "d": 1457.6908499998972,
      "v": 97
    },
    {
      "midi": 56,
      "hit": false,
      "t": 142148.8963124999,
      "d": 4.807687499996973,
      "v": 104
    },
    {
      "midi": 42,
      "hit": false,
      "t": 142153.7039999999,
      "d": 225.96131250000326,
      "v": 89
    },
    {
      "midi": 56,
      "hit": false,
      "t": 142153.7039999999,
      "d": 456.7303125000035,
      "v": 100
    },
    {
      "midi": 57,
      "hit": false,
      "t": 142153.70400000014,
      "d": 225.96131250000326,
      "v": 92
    },
    {
      "midi": 50,
      "hit": false,
      "t": 142153.70400000014,
      "d": 225.96131250000326,
      "v": 97
    },
    {
      "midi": 62,
      "hit": false,
      "t": 142377.74223750056,
      "d": 310.5766124999791,
      "v": 85
    },
    {
      "midi": 42,
      "hit": false,
      "t": 142384.4729999999,
      "d": 225.96131250000326,
      "v": 86
    },
    {
      "midi": 38,
      "hit": false,
      "t": 142384.4729999999,
      "d": 225.96131250000326,
      "v": 50
    },
    {
      "midi": 38,
      "hit": false,
      "t": 142384.47300000011,
      "d": 456.7303125000035,
      "v": 104
    },
    {
      "midi": 57,
      "hit": false,
      "t": 142384.47300000014,
      "d": 225.96131250000326,
      "v": 85
    },
    {
      "midi": 50,
      "hit": false,
      "t": 142384.47300000014,
      "d": 225.96131250000326,
      "v": 79
    },
    {
      "midi": 74,
      "hit": false,
      "t": 142602.74201250053,
      "d": 232.69207499999902,
      "v": 78
    },
    {
      "midi": 42,
      "hit": false,
      "t": 142615.2419999999,
      "d": 225.96131250000326,
      "v": 84
    },
    {
      "midi": 38,
      "hit": false,
      "t": 142615.2419999999,
      "d": 225.96131250000326,
      "v": 65
    },
    {
      "midi": 56,
      "hit": false,
      "t": 142615.2419999999,
      "d": 456.7303125000035,
      "v": 96
    },
    {
      "midi": 50,
      "hit": false,
      "t": 142615.24200000014,
      "d": 225.96131250000326,
      "v": 99
    },
    {
      "midi": 59,
      "hit": false,
      "t": 142615.24200000014,
      "d": 225.96131250000326,
      "v": 83
    },
    {
      "midi": 42,
      "hit": false,
      "t": 142846.0109999999,
      "d": 225.96131250000326,
      "v": 73
    },
    {
      "midi": 38,
      "hit": false,
      "t": 142846.0109999999,
      "d": 225.96131250000326,
      "v": 76
    },
    {
      "midi": 38,
      "hit": false,
      "t": 142846.01100000012,
      "d": 225.96131250000326,
      "v": 101
    },
    {
      "midi": 50,
      "hit": false,
      "t": 142846.01100000014,
      "d": 225.96131250000326,
      "v": 88
    },
    {
      "midi": 57,
      "hit": false,
      "t": 142846.01100000014,
      "d": 225.96131250000326,
      "v": 83
    },
    {
      "midi": 62,
      "hit": false,
      "t": 142848.89561250052,
      "d": 269.2305000000051,
      "v": 92
    },
    {
      "midi": 36,
      "hit": false,
      "t": 143076.7799999999,
      "d": 225.96131250000326,
      "v": 117
    },
    {
      "midi": 38,
      "hit": false,
      "t": 143076.7799999999,
      "d": 225.96131250000326,
      "v": 93
    },
    {
      "midi": 42,
      "hit": false,
      "t": 143076.7799999999,
      "d": 225.96131250000326,
      "v": 92
    },
    {
      "midi": 56,
      "hit": false,
      "t": 143076.7799999999,
      "d": 456.7303125000035,
      "v": 100
    },
    {
      "midi": 40,
      "hit": false,
      "t": 143076.78000000012,
      "d": 225.96131250000326,
      "v": 110
    },
    {
      "midi": 57,
      "hit": false,
      "t": 143076.78000000014,
      "d": 225.96131250000326,
      "v": 79
    },
    {
      "midi": 50,
      "hit": false,
      "t": 143076.78000000014,
      "d": 225.96131250000326,
      "v": 85
    },
    {
      "midi": 74,
      "hit": false,
      "t": 143092.1646000005,
      "d": 248.07667499998934,
      "v": 79
    },
    {
      "midi": 46,
      "hit": false,
      "t": 143307.5489999999,
      "d": 225.96131250000326,
      "v": 86
    },
    {
      "midi": 38,
      "hit": false,
      "t": 143307.5489999999,
      "d": 225.96131250000326,
      "v": 110
    },
    {
      "midi": 38,
      "hit": false,
      "t": 143307.54900000012,
      "d": 225.96131250000326,
      "v": 101
    },
    {
      "midi": 57,
      "hit": false,
      "t": 143307.54900000014,
      "d": 225.96131250000326,
      "v": 82
    },
    {
      "midi": 50,
      "hit": false,
      "t": 143307.54900000014,
      "d": 225.96131250000326,
      "v": 86
    },
    {
      "midi": 62,
      "hit": false,
      "t": 143324.8566750005,
      "d": 140.38447499999893,
      "v": 83
    },
    {
      "midi": 38,
      "hit": false,
      "t": 143538.3179999999,
      "d": 100.96143749999464,
      "v": 117
    },
    {
      "midi": 42,
      "hit": false,
      "t": 143538.3179999999,
      "d": 225.96131250000326,
      "v": 84
    },
    {
      "midi": 56,
      "hit": false,
      "t": 143538.3179999999,
      "d": 456.7303125000035,
      "v": 100
    },
    {
      "midi": 35,
      "hit": false,
      "t": 143538.31800000012,
      "d": 225.96131250000326,
      "v": 117
    },
    {
      "midi": 50,
      "hit": false,
      "t": 143538.31800000014,
      "d": 225.96131250000326,
      "v": 94
    },
    {
      "midi": 59,
      "hit": false,
      "t": 143538.31800000014,
      "d": 225.96131250000326,
      "v": 85
    },
    {
      "midi": 46,
      "hit": false,
      "t": 143769.0869999999,
      "d": 225.96131250000326,
      "v": 89
    },
    {
      "midi": 45,
      "hit": false,
      "t": 143769.0869999999,
      "d": 225.96131250000326,
      "v": 120
    },
    {
      "midi": 33,
      "hit": false,
      "t": 143769.08700000012,
      "d": 225.96131250000326,
      "v": 110
    },
    {
      "midi": 50,
      "hit": false,
      "t": 143769.08700000015,
      "d": 225.96131250000326,
      "v": 99
    },
    {
      "midi": 57,
      "hit": false,
      "t": 143769.08700000015,
      "d": 225.96131250000326,
      "v": 90
    },
    {
      "midi": 44,
      "hit": false,
      "t": 143999.8559999999,
      "d": 225.96131250000326,
      "v": 19
    },
    {
      "midi": 58,
      "hit": false,
      "t": 143999.8559999999,
      "d": 225.96131250000326,
      "v": 114
    },
    {
      "midi": 56,
      "hit": false,
      "t": 143999.8559999999,
      "d": 456.7303125000035,
      "v": 86
    },
    {
      "midi": 36,
      "hit": false,
      "t": 143999.8559999999,
      "d": 456.7303125000035,
      "v": 120
    },
    {
      "midi": 44,
      "hit": false,
      "t": 144230.6249999999,
      "d": 225.96131250000326,
      "v": 33
    },
    {
      "midi": 44,
      "hit": false,
      "t": 144461.3939999999,
      "d": 225.96131250000326,
      "v": 25
    },
    {
      "midi": 38,
      "hit": false,
      "t": 144461.3939999999,
      "d": 225.96131250000326,
      "v": 113
    },
    {
      "midi": 56,
      "hit": false,
      "t": 144461.3939999999,
      "d": 225.96131250000326,
      "v": 51
    },
    {
      "midi": 39,
      "hit": false,
      "t": 144461.3939999999,
      "d": 687.4993125000037,
      "v": 127
    },
    {
      "midi": 44,
      "hit": false,
      "t": 144692.1629999999,
      "d": 225.96131250000326,
      "v": 33
    },
    {
      "midi": 56,
      "hit": false,
      "t": 144692.1629999999,
      "d": 225.96131250000326,
      "v": 64
    },
    {
      "midi": 36,
      "hit": false,
      "t": 144692.1629999999,
      "d": 225.96131250000326,
      "v": 117
    },
    {
      "midi": 44,
      "hit": false,
      "t": 144922.9319999999,
      "d": 225.96131250000326,
      "v": 29
    },
    {
      "midi": 36,
      "hit": false,
      "t": 144922.9319999999,
      "d": 456.7303125000035,
      "v": 117
    },
    {
      "midi": 56,
      "hit": false,
      "t": 144922.9319999999,
      "d": 456.7303125000035,
      "v": 79
    },
    {
      "midi": 44,
      "hit": false,
      "t": 145153.7009999999,
      "d": 225.96131250000326,
      "v": 34
    },
    {
      "midi": 39,
      "hit": false,
      "t": 145153.7009999999,
      "d": 225.96131250000326,
      "v": 127
    },
    {
      "midi": 44,
      "hit": false,
      "t": 145384.4699999999,
      "d": 225.96131250000326,
      "v": 25
    },
    {
      "midi": 38,
      "hit": false,
      "t": 145384.4699999999,
      "d": 225.96131250000326,
      "v": 104
    },
    {
      "midi": 56,
      "hit": false,
      "t": 145384.4699999999,
      "d": 225.96131250000326,
      "v": 73
    },
    {
      "midi": 39,
      "hit": false,
      "t": 145384.4699999999,
      "d": 225.96131250000326,
      "v": 127
    },
    {
      "midi": 44,
      "hit": false,
      "t": 145615.2389999999,
      "d": 225.96131250000326,
      "v": 27
    },
    {
      "midi": 56,
      "hit": false,
      "t": 145615.2389999999,
      "d": 225.96131250000326,
      "v": 59
    },
    {
      "midi": 36,
      "hit": false,
      "t": 145615.2389999999,
      "d": 225.96131250000326,
      "v": 117
    },
    {
      "midi": 44,
      "hit": false,
      "t": 145846.0079999999,
      "d": 225.96131250000326,
      "v": 28
    },
    {
      "midi": 56,
      "hit": false,
      "t": 145846.0079999999,
      "d": 456.7303125000035,
      "v": 86
    },
    {
      "midi": 36,
      "hit": false,
      "t": 145846.0079999999,
      "d": 456.7303125000035,
      "v": 120
    },
    {
      "midi": 44,
      "hit": false,
      "t": 146076.7769999999,
      "d": 225.96131250000326,
      "v": 34
    },
    {
      "midi": 44,
      "hit": false,
      "t": 146307.54599999991,
      "d": 225.96131250000326,
      "v": 34
    },
    {
      "midi": 38,
      "hit": false,
      "t": 146307.54599999991,
      "d": 225.96131250000326,
      "v": 113
    },
    {
      "midi": 56,
      "hit": false,
      "t": 146307.54599999991,
      "d": 225.96131250000326,
      "v": 51
    },
    {
      "midi": 39,
      "hit": false,
      "t": 146307.54599999991,
      "d": 687.4993125000037,
      "v": 127
    },
    {
      "midi": 44,
      "hit": false,
      "t": 146538.31499999992,
      "d": 225.96131250000326,
      "v": 25
    },
    {
      "midi": 56,
      "hit": false,
      "t": 146538.31499999992,
      "d": 225.96131250000326,
      "v": 64
    },
    {
      "midi": 36,
      "hit": false,
      "t": 146538.31499999992,
      "d": 225.96131250000326,
      "v": 117
    },
    {
      "midi": 44,
      "hit": false,
      "t": 146769.08399999992,
      "d": 225.96131250000326,
      "v": 30
    },
    {
      "midi": 36,
      "hit": false,
      "t": 146769.08399999992,
      "d": 456.7303125000035,
      "v": 117
    },
    {
      "midi": 56,
      "hit": false,
      "t": 146769.08399999992,
      "d": 456.7303125000035,
      "v": 79
    },
    {
      "midi": 44,
      "hit": false,
      "t": 146999.85299999992,
      "d": 225.96131250000326,
      "v": 24
    },
    {
      "midi": 39,
      "hit": false,
      "t": 146999.85299999992,
      "d": 225.96131250000326,
      "v": 127
    },
    {
      "midi": 44,
      "hit": false,
      "t": 147230.62199999992,
      "d": 225.96131250000326,
      "v": 33
    },
    {
      "midi": 38,
      "hit": false,
      "t": 147230.62199999992,
      "d": 225.96131250000326,
      "v": 104
    },
    {
      "midi": 56,
      "hit": false,
      "t": 147230.62199999992,
      "d": 225.96131250000326,
      "v": 73
    },
    {
      "midi": 39,
      "hit": false,
      "t": 147230.62199999992,
      "d": 225.96131250000326,
      "v": 127
    },
    {
      "midi": 44,
      "hit": false,
      "t": 147461.39099999992,
      "d": 225.96131250000326,
      "v": 21
    },
    {
      "midi": 56,
      "hit": false,
      "t": 147461.39099999992,
      "d": 225.96131250000326,
      "v": 59
    },
    {
      "midi": 36,
      "hit": false,
      "t": 147461.39099999992,
      "d": 225.96131250000326,
      "v": 117
    },
    {
      "midi": 44,
      "hit": false,
      "t": 147692.15999999992,
      "d": 225.96131250000326,
      "v": 34
    },
    {
      "midi": 56,
      "hit": false,
      "t": 147692.15999999992,
      "d": 456.7303125000035,
      "v": 86
    },
    {
      "midi": 36,
      "hit": false,
      "t": 147692.15999999992,
      "d": 456.7303125000035,
      "v": 120
    },
    {
      "midi": 44,
      "hit": false,
      "t": 147922.92899999992,
      "d": 225.96131250000326,
      "v": 27
    },
    {
      "midi": 44,
      "hit": false,
      "t": 148153.69799999992,
      "d": 225.96131250000326,
      "v": 37
    },
    {
      "midi": 38,
      "hit": false,
      "t": 148153.69799999992,
      "d": 225.96131250000326,
      "v": 113
    },
    {
      "midi": 56,
      "hit": false,
      "t": 148153.69799999992,
      "d": 225.96131250000326,
      "v": 51
    },
    {
      "midi": 39,
      "hit": false,
      "t": 148153.69799999992,
      "d": 687.4993125000037,
      "v": 127
    },
    {
      "midi": 44,
      "hit": false,
      "t": 148384.46699999992,
      "d": 225.96131250000326,
      "v": 31
    },
    {
      "midi": 56,
      "hit": false,
      "t": 148384.46699999992,
      "d": 225.96131250000326,
      "v": 64
    },
    {
      "midi": 36,
      "hit": false,
      "t": 148384.46699999992,
      "d": 225.96131250000326,
      "v": 117
    },
    {
      "midi": 44,
      "hit": false,
      "t": 148615.23599999992,
      "d": 225.96131250000326,
      "v": 22
    },
    {
      "midi": 36,
      "hit": false,
      "t": 148615.23599999992,
      "d": 456.7303125000035,
      "v": 117
    },
    {
      "midi": 56,
      "hit": false,
      "t": 148615.23599999992,
      "d": 456.7303125000035,
      "v": 79
    },
    {
      "midi": 44,
      "hit": false,
      "t": 148846.00499999992,
      "d": 225.96131250000326,
      "v": 19
    },
    {
      "midi": 39,
      "hit": false,
      "t": 148846.00499999992,
      "d": 225.96131250000326,
      "v": 127
    },
    {
      "midi": 44,
      "hit": false,
      "t": 149076.77399999992,
      "d": 225.96131250000326,
      "v": 36
    },
    {
      "midi": 38,
      "hit": false,
      "t": 149076.77399999992,
      "d": 225.96131250000326,
      "v": 104
    },
    {
      "midi": 56,
      "hit": false,
      "t": 149076.77399999992,
      "d": 225.96131250000326,
      "v": 73
    },
    {
      "midi": 39,
      "hit": false,
      "t": 149076.77399999992,
      "d": 225.96131250000326,
      "v": 127
    },
    {
      "midi": 44,
      "hit": false,
      "t": 149307.54299999992,
      "d": 225.96131250000326,
      "v": 37
    },
    {
      "midi": 56,
      "hit": false,
      "t": 149307.54299999992,
      "d": 225.96131250000326,
      "v": 59
    },
    {
      "midi": 36,
      "hit": false,
      "t": 149307.54299999992,
      "d": 225.96131250000326,
      "v": 117
    },
    {
      "midi": 44,
      "hit": false,
      "t": 149538.31199999992,
      "d": 225.96131250000326,
      "v": 35
    },
    {
      "midi": 56,
      "hit": false,
      "t": 149538.31199999992,
      "d": 456.7303125000035,
      "v": 86
    },
    {
      "midi": 36,
      "hit": false,
      "t": 149538.31199999992,
      "d": 456.7303125000035,
      "v": 120
    },
    {
      "midi": 44,
      "hit": false,
      "t": 149769.08099999992,
      "d": 225.96131250000326,
      "v": 36
    },
    {
      "midi": 44,
      "hit": false,
      "t": 149999.84999999992,
      "d": 225.96131250000326,
      "v": 32
    },
    {
      "midi": 38,
      "hit": false,
      "t": 149999.84999999992,
      "d": 225.96131250000326,
      "v": 113
    },
    {
      "midi": 56,
      "hit": false,
      "t": 149999.84999999992,
      "d": 225.96131250000326,
      "v": 51
    },
    {
      "midi": 39,
      "hit": false,
      "t": 149999.84999999992,
      "d": 687.4993125000037,
      "v": 127
    },
    {
      "midi": 44,
      "hit": false,
      "t": 150230.61899999992,
      "d": 225.96131250000326,
      "v": 36
    },
    {
      "midi": 56,
      "hit": false,
      "t": 150230.61899999992,
      "d": 225.96131250000326,
      "v": 64
    },
    {
      "midi": 36,
      "hit": false,
      "t": 150230.61899999992,
      "d": 225.96131250000326,
      "v": 117
    },
    {
      "midi": 44,
      "hit": false,
      "t": 150461.38799999992,
      "d": 225.96131250000326,
      "v": 31
    },
    {
      "midi": 36,
      "hit": false,
      "t": 150461.38799999992,
      "d": 456.7303125000035,
      "v": 117
    },
    {
      "midi": 56,
      "hit": false,
      "t": 150461.38799999992,
      "d": 456.7303125000035,
      "v": 79
    },
    {
      "midi": 44,
      "hit": false,
      "t": 150692.15699999992,
      "d": 225.96131250000326,
      "v": 29
    },
    {
      "midi": 39,
      "hit": false,
      "t": 150692.15699999992,
      "d": 225.96131250000326,
      "v": 127
    },
    {
      "midi": 44,
      "hit": false,
      "t": 150922.92599999992,
      "d": 225.96131250000326,
      "v": 32
    },
    {
      "midi": 38,
      "hit": false,
      "t": 150922.92599999992,
      "d": 225.96131250000326,
      "v": 104
    },
    {
      "midi": 56,
      "hit": false,
      "t": 150922.92599999992,
      "d": 225.96131250000326,
      "v": 73
    },
    {
      "midi": 39,
      "hit": false,
      "t": 150922.92599999992,
      "d": 225.96131250000326,
      "v": 127
    },
    {
      "midi": 44,
      "hit": false,
      "t": 151153.69499999992,
      "d": 225.96131250000326,
      "v": 30
    },
    {
      "midi": 56,
      "hit": false,
      "t": 151153.69499999992,
      "d": 225.96131250000326,
      "v": 59
    },
    {
      "midi": 36,
      "hit": false,
      "t": 151153.69499999992,
      "d": 225.96131250000326,
      "v": 117
    },
    {
      "midi": 44,
      "hit": false,
      "t": 151384.46399999992,
      "d": 225.96131250000326,
      "v": 39
    },
    {
      "midi": 56,
      "hit": false,
      "t": 151384.46399999992,
      "d": 456.7303125000035,
      "v": 86
    },
    {
      "midi": 36,
      "hit": false,
      "t": 151384.46399999992,
      "d": 456.7303125000035,
      "v": 120
    },
    {
      "midi": 44,
      "hit": false,
      "t": 151615.23299999992,
      "d": 225.96131250000326,
      "v": 33
    },
    {
      "midi": 44,
      "hit": false,
      "t": 151846.00199999992,
      "d": 225.96131250000326,
      "v": 28
    },
    {
      "midi": 38,
      "hit": false,
      "t": 151846.00199999992,
      "d": 225.96131250000326,
      "v": 113
    },
    {
      "midi": 56,
      "hit": false,
      "t": 151846.00199999992,
      "d": 225.96131250000326,
      "v": 51
    },
    {
      "midi": 39,
      "hit": false,
      "t": 151846.00199999992,
      "d": 687.4993125000037,
      "v": 127
    },
    {
      "midi": 44,
      "hit": false,
      "t": 152076.77099999992,
      "d": 225.96131250000326,
      "v": 32
    },
    {
      "midi": 56,
      "hit": false,
      "t": 152076.77099999992,
      "d": 225.96131250000326,
      "v": 64
    },
    {
      "midi": 36,
      "hit": false,
      "t": 152076.77099999992,
      "d": 225.96131250000326,
      "v": 117
    },
    {
      "midi": 44,
      "hit": false,
      "t": 152307.53999999992,
      "d": 225.96131250000326,
      "v": 33
    },
    {
      "midi": 36,
      "hit": false,
      "t": 152307.53999999992,
      "d": 456.7303125000035,
      "v": 117
    },
    {
      "midi": 56,
      "hit": false,
      "t": 152307.53999999992,
      "d": 456.7303125000035,
      "v": 79
    },
    {
      "midi": 44,
      "hit": false,
      "t": 152538.30899999992,
      "d": 225.96131250000326,
      "v": 31
    },
    {
      "midi": 39,
      "hit": false,
      "t": 152538.30899999992,
      "d": 225.96131250000326,
      "v": 127
    },
    {
      "midi": 44,
      "hit": false,
      "t": 152769.07799999992,
      "d": 225.96131250000326,
      "v": 35
    },
    {
      "midi": 38,
      "hit": false,
      "t": 152769.07799999992,
      "d": 225.96131250000326,
      "v": 104
    },
    {
      "midi": 56,
      "hit": false,
      "t": 152769.07799999992,
      "d": 225.96131250000326,
      "v": 73
    },
    {
      "midi": 39,
      "hit": false,
      "t": 152769.07799999992,
      "d": 225.96131250000326,
      "v": 127
    },
    {
      "midi": 44,
      "hit": false,
      "t": 152999.84699999992,
      "d": 225.96131250000326,
      "v": 31
    },
    {
      "midi": 56,
      "hit": false,
      "t": 152999.84699999992,
      "d": 225.96131250000326,
      "v": 59
    },
    {
      "midi": 36,
      "hit": false,
      "t": 152999.84699999992,
      "d": 225.96131250000326,
      "v": 117
    },
    {
      "midi": 44,
      "hit": false,
      "t": 153230.61599999992,
      "d": 225.96131250000326,
      "v": 35
    },
    {
      "midi": 56,
      "hit": false,
      "t": 153230.61599999992,
      "d": 456.7303125000035,
      "v": 86
    },
    {
      "midi": 36,
      "hit": false,
      "t": 153230.61599999992,
      "d": 456.7303125000035,
      "v": 120
    },
    {
      "midi": 44,
      "hit": false,
      "t": 153461.38499999992,
      "d": 225.96131250000326,
      "v": 32
    },
    {
      "midi": 44,
      "hit": false,
      "t": 153692.15399999992,
      "d": 225.96131250000326,
      "v": 33
    },
    {
      "midi": 38,
      "hit": false,
      "t": 153692.15399999992,
      "d": 225.96131250000326,
      "v": 113
    },
    {
      "midi": 56,
      "hit": false,
      "t": 153692.15399999992,
      "d": 225.96131250000326,
      "v": 51
    },
    {
      "midi": 39,
      "hit": false,
      "t": 153692.15399999992,
      "d": 687.4993125000037,
      "v": 127
    },
    {
      "midi": 44,
      "hit": false,
      "t": 153922.92299999992,
      "d": 225.96131250000326,
      "v": 39
    },
    {
      "midi": 56,
      "hit": false,
      "t": 153922.92299999992,
      "d": 225.96131250000326,
      "v": 64
    },
    {
      "midi": 36,
      "hit": false,
      "t": 153922.92299999992,
      "d": 225.96131250000326,
      "v": 117
    },
    {
      "midi": 44,
      "hit": false,
      "t": 154153.69199999992,
      "d": 225.96131250000326,
      "v": 40
    },
    {
      "midi": 36,
      "hit": false,
      "t": 154153.69199999992,
      "d": 456.7303125000035,
      "v": 117
    },
    {
      "midi": 56,
      "hit": false,
      "t": 154153.69199999992,
      "d": 456.7303125000035,
      "v": 79
    },
    {
      "midi": 44,
      "hit": false,
      "t": 154384.46099999992,
      "d": 225.96131250000326,
      "v": 66
    },
    {
      "midi": 39,
      "hit": false,
      "t": 154384.46099999992,
      "d": 225.96131250000326,
      "v": 127
    },
    {
      "midi": 46,
      "hit": false,
      "t": 154615.22999999992,
      "d": 225.96131250000326,
      "v": 100
    },
    {
      "midi": 38,
      "hit": false,
      "t": 154615.22999999992,
      "d": 225.96131250000326,
      "v": 104
    },
    {
      "midi": 56,
      "hit": false,
      "t": 154615.22999999992,
      "d": 225.96131250000326,
      "v": 73
    },
    {
      "midi": 39,
      "hit": false,
      "t": 154615.22999999992,
      "d": 225.96131250000326,
      "v": 127
    },
    {
      "midi": 56,
      "hit": false,
      "t": 154845.99899999992,
      "d": 225.96131250000326,
      "v": 59
    },
    {
      "midi": 36,
      "hit": false,
      "t": 154845.99899999992,
      "d": 225.96131250000326,
      "v": 117
    },
    {
      "midi": 42,
      "hit": false,
      "t": 155076.76799999992,
      "d": 225.96131250000326,
      "v": 89
    },
    {
      "midi": 36,
      "hit": false,
      "t": 155076.76799999992,
      "d": 225.96131250000326,
      "v": 117
    },
    {
      "midi": 38,
      "hit": false,
      "t": 155076.76800000013,
      "d": 225.96131250000326,
      "v": 107
    },
    {
      "midi": 55,
      "hit": false,
      "t": 155076.76800000016,
      "d": 225.96131250000326,
      "v": 104
    },
    {
      "midi": 48,
      "hit": false,
      "t": 155076.76800000016,
      "d": 225.96131250000326,
      "v": 97
    },
    {
      "midi": 40,
      "hit": false,
      "t": 155307.53699999992,
      "d": 225.96131250000326,
      "v": 50
    },
    {
      "midi": 42,
      "hit": false,
      "t": 155307.53699999992,
      "d": 225.96131250000326,
      "v": 89
    },
    {
      "midi": 38,
      "hit": false,
      "t": 155307.53700000013,
      "d": 225.96131250000326,
      "v": 99
    },
    {
      "midi": 55,
      "hit": false,
      "t": 155307.53700000016,
      "d": 225.96131250000326,
      "v": 97
    },
    {
      "midi": 48,
      "hit": false,
      "t": 155307.53700000016,
      "d": 225.96131250000326,
      "v": 86
    },
    {
      "midi": 40,
      "hit": false,
      "t": 155538.30599999992,
      "d": 225.96131250000326,
      "v": 65
    },
    {
      "midi": 42,
      "hit": false,
      "t": 155538.30599999992,
      "d": 225.96131250000326,
      "v": 96
    },
    {
      "midi": 38,
      "hit": false,
      "t": 155538.30600000013,
      "d": 225.96131250000326,
      "v": 104
    },
    {
      "midi": 55,
      "hit": false,
      "t": 155538.30600000016,
      "d": 225.96131250000326,
      "v": 90
    },
    {
      "midi": 48,
      "hit": false,
      "t": 155538.30600000016,
      "d": 225.96131250000326,
      "v": 94
    },
    {
      "midi": 40,
      "hit": false,
      "t": 155769.07499999992,
      "d": 225.96131250000326,
      "v": 76
    },
    {
      "midi": 42,
      "hit": false,
      "t": 155769.07499999992,
      "d": 225.96131250000326,
      "v": 96
    },
    {
      "midi": 38,
      "hit": false,
      "t": 155769.07500000013,
      "d": 225.96131250000326,
      "v": 104
    },
    {
      "midi": 48,
      "hit": false,
      "t": 155769.07500000016,
      "d": 225.96131250000326,
      "v": 90
    },
    {
      "midi": 55,
      "hit": false,
      "t": 155769.07500000016,
      "d": 225.96131250000326,
      "v": 94
    },
    {
      "midi": 40,
      "hit": false,
      "t": 155999.84399999992,
      "d": 225.96131250000326,
      "v": 93
    },
    {
      "midi": 42,
      "hit": false,
      "t": 155999.84399999992,
      "d": 225.96131250000326,
      "v": 96
    },
    {
      "midi": 38,
      "hit": false,
      "t": 155999.84400000013,
      "d": 225.96131250000326,
      "v": 113
    },
    {
      "midi": 55,
      "hit": false,
      "t": 155999.84400000016,
      "d": 225.96131250000326,
      "v": 94
    },
    {
      "midi": 48,
      "hit": false,
      "t": 155999.84400000016,
      "d": 225.96131250000326,
      "v": 90
    },
    {
      "midi": 40,
      "hit": false,
      "t": 156230.61299999992,
      "d": 225.96131250000326,
      "v": 110
    },
    {
      "midi": 42,
      "hit": false,
      "t": 156230.61299999992,
      "d": 225.96131250000326,
      "v": 100
    },
    {
      "midi": 38,
      "hit": false,
      "t": 156230.61300000013,
      "d": 225.96131250000326,
      "v": 110
    },
    {
      "midi": 55,
      "hit": false,
      "t": 156230.61300000016,
      "d": 225.96131250000326,
      "v": 92
    },
    {
      "midi": 48,
      "hit": false,
      "t": 156230.61300000016,
      "d": 225.96131250000326,
      "v": 90
    },
    {
      "midi": 40,
      "hit": false,
      "t": 156461.38199999993,
      "d": 225.96131250000326,
      "v": 127
    },
    {
      "midi": 42,
      "hit": false,
      "t": 156461.38199999993,
      "d": 225.96131250000326,
      "v": 100
    },
    {
      "midi": 38,
      "hit": false,
      "t": 156461.38200000013,
      "d": 225.96131250000326,
      "v": 101
    },
    {
      "midi": 55,
      "hit": false,
      "t": 156461.38200000016,
      "d": 225.96131250000326,
      "v": 94
    },
    {
      "midi": 48,
      "hit": false,
      "t": 156461.38200000016,
      "d": 225.96131250000326,
      "v": 92
    },
    {
      "midi": 57,
      "hit": false,
      "t": 156692.15099999993,
      "d": 225.96131250000326,
      "v": 117
    },
    {
      "midi": 36,
      "hit": false,
      "t": 156692.15099999993,
      "d": 225.96131250000326,
      "v": 120
    },
    {
      "midi": 38,
      "hit": false,
      "t": 156692.15100000013,
      "d": 456.7303125000035,
      "v": 110
    },
    {
      "midi": 50,
      "hit": false,
      "t": 156692.15100000016,
      "d": 225.96131250000326,
      "v": 101
    },
    {
      "midi": 57,
      "hit": false,
      "t": 156692.15100000016,
      "d": 225.96131250000326,
      "v": 97
    },
    {
      "midi": 42,
      "hit": false,
      "t": 156922.91999999993,
      "d": 225.96131250000326,
      "v": 89
    },
    {
      "midi": 57,
      "hit": false,
      "t": 156922.92000000016,
      "d": 225.96131250000326,
      "v": 94
    },
    {
      "midi": 50,
      "hit": false,
      "t": 156922.92000000016,
      "d": 225.96131250000326,
      "v": 99
    },
    {
      "midi": 42,
      "hit": false,
      "t": 157153.68899999993,
      "d": 225.96131250000326,
      "v": 86
    },
    {
      "midi": 38,
      "hit": false,
      "t": 157153.68899999993,
      "d": 225.96131250000326,
      "v": 50
    },
    {
      "midi": 38,
      "hit": false,
      "t": 157153.68900000013,
      "d": 225.96131250000326,
      "v": 101
    },
    {
      "midi": 57,
      "hit": false,
      "t": 157153.68900000016,
      "d": 225.96131250000326,
      "v": 86
    },
    {
      "midi": 50,
      "hit": false,
      "t": 157153.68900000016,
      "d": 225.96131250000326,
      "v": 90
    },
    {
      "midi": 42,
      "hit": false,
      "t": 157384.45799999993,
      "d": 225.96131250000326,
      "v": 84
    },
    {
      "midi": 38,
      "hit": false,
      "t": 157384.45799999993,
      "d": 225.96131250000326,
      "v": 65
    },
    {
      "midi": 38,
      "hit": false,
      "t": 157384.45800000013,
      "d": 225.96131250000326,
      "v": 104
    },
    {
      "midi": 57,
      "hit": false,
      "t": 157384.45800000016,
      "d": 225.96131250000326,
      "v": 88
    },
    {
      "midi": 50,
      "hit": false,
      "t": 157384.45800000016,
      "d": 225.96131250000326,
      "v": 99
    },
    {
      "midi": 42,
      "hit": false,
      "t": 157615.22699999993,
      "d": 225.96131250000326,
      "v": 73
    },
    {
      "midi": 38,
      "hit": false,
      "t": 157615.22699999993,
      "d": 225.96131250000326,
      "v": 76
    },
    {
      "midi": 38,
      "hit": false,
      "t": 157615.22700000013,
      "d": 225.96131250000326,
      "v": 104
    },
    {
      "midi": 57,
      "hit": false,
      "t": 157615.22700000016,
      "d": 225.96131250000326,
      "v": 90
    },
    {
      "midi": 50,
      "hit": false,
      "t": 157615.22700000016,
      "d": 225.96131250000326,
      "v": 90
    },
    {
      "midi": 36,
      "hit": false,
      "t": 157845.99599999993,
      "d": 225.96131250000326,
      "v": 117
    },
    {
      "midi": 42,
      "hit": false,
      "t": 157845.99599999993,
      "d": 225.96131250000326,
      "v": 92
    },
    {
      "midi": 38,
      "hit": false,
      "t": 157845.99599999993,
      "d": 225.96131250000326,
      "v": 93
    },
    {
      "midi": 38,
      "hit": false,
      "t": 157845.99600000013,
      "d": 225.96131250000326,
      "v": 113
    },
    {
      "midi": 57,
      "hit": false,
      "t": 157845.99600000016,
      "d": 225.96131250000326,
      "v": 85
    },
    {
      "midi": 50,
      "hit": false,
      "t": 157845.99600000016,
      "d": 225.96131250000326,
      "v": 92
    },
    {
      "midi": 46,
      "hit": false,
      "t": 158076.76499999993,
      "d": 225.96131250000326,
      "v": 86
    },
    {
      "midi": 38,
      "hit": false,
      "t": 158076.76499999993,
      "d": 225.96131250000326,
      "v": 110
    },
    {
      "midi": 38,
      "hit": false,
      "t": 158076.76500000013,
      "d": 225.96131250000326,
      "v": 107
    },
    {
      "midi": 50,
      "hit": false,
      "t": 158076.76500000016,
      "d": 225.96131250000326,
      "v": 92
    },
    {
      "midi": 57,
      "hit": false,
      "t": 158076.76500000016,
      "d": 225.96131250000326,
      "v": 83
    },
    {
      "midi": 38,
      "hit": false,
      "t": 158307.53399999993,
      "d": 98.07682499999646,
      "v": 117
    },
    {
      "midi": 42,
      "hit": false,
      "t": 158307.53399999993,
      "d": 225.96131250000326,
      "v": 84
    },
    {
      "midi": 38,
      "hit": false,
      "t": 158307.53400000013,
      "d": 225.96131250000326,
      "v": 113
    },
    {
      "midi": 57,
      "hit": false,
      "t": 158307.53400000016,
      "d": 225.96131250000326,
      "v": 88
    },
    {
      "midi": 50,
      "hit": false,
      "t": 158307.53400000016,
      "d": 225.96131250000326,
      "v": 97
    },
    {
      "midi": 46,
      "hit": false,
      "t": 158538.30299999993,
      "d": 225.96131250000326,
      "v": 89
    },
    {
      "midi": 45,
      "hit": false,
      "t": 158538.30299999993,
      "d": 225.96131250000326,
      "v": 120
    },
    {
      "midi": 38,
      "hit": false,
      "t": 158538.30300000013,
      "d": 225.96131250000326,
      "v": 113
    },
    {
      "midi": 57,
      "hit": false,
      "t": 158538.30300000016,
      "d": 225.96131250000326,
      "v": 97
    },
    {
      "midi": 50,
      "hit": false,
      "t": 158538.30300000016,
      "d": 225.96131250000326,
      "v": 101
    },
    {
      "midi": 44,
      "hit": false,
      "t": 158769.07199999993,
      "d": 225.96131250000326,
      "v": 86
    },
    {
      "midi": 58,
      "hit": false,
      "t": 158769.07199999993,
      "d": 456.7303125000035,
      "v": 86
    },
    {
      "midi": 59,
      "hit": false,
      "t": 158769.07199999993,
      "d": 456.7303125000035,
      "v": 113
    },
    {
      "midi": 38,
      "hit": false,
      "t": 158769.07199999993,
      "d": 456.7303125000035,
      "v": 120
    },
    {
      "midi": 33,
      "hit": false,
      "t": 158769.07200000013,
      "d": 225.96131250000326,
      "v": 117
    },
    {
      "midi": 52,
      "hit": false,
      "t": 158769.07200000016,
      "d": 225.96131250000326,
      "v": 97
    },
    {
      "midi": 45,
      "hit": false,
      "t": 158769.07200000016,
      "d": 225.96131250000326,
      "v": 107
    },
    {
      "midi": 64,
      "hit": false,
      "t": 158996.9563875005,
      "d": 106.73066249999101,
      "v": 78
    },
    {
      "midi": 68,
      "hit": false,
      "t": 158996.9563875005,
      "d": 122.11526249998133,
      "v": 85
    },
    {
      "midi": 71,
      "hit": false,
      "t": 158997.9179250005,
      "d": 120.19218749998254,
      "v": 88
    },
    {
      "midi": 48,
      "hit": false,
      "t": 158999.84099999993,
      "d": 225.96131250000326,
      "v": 89
    },
    {
      "midi": 45,
      "hit": false,
      "t": 158999.84100000013,
      "d": 225.96131250000326,
      "v": 117
    },
    {
      "midi": 45,
      "hit": false,
      "t": 158999.84100000016,
      "d": 225.96131250000326,
      "v": 92
    },
    {
      "midi": 52,
      "hit": false,
      "t": 158999.84100000016,
      "d": 225.96131250000326,
      "v": 82
    },
    {
      "midi": 64,
      "hit": false,
      "t": 159217.1484750005,
      "d": 163.4613749999844,
      "v": 72
    },
    {
      "midi": 73,
      "hit": false,
      "t": 159219.0715500005,
      "d": 134.61525000000256,
      "v": 83
    },
    {
      "midi": 69,
      "hit": false,
      "t": 159220.0330875005,
      "d": 147.1152374999947,
      "v": 85
    },
    {
      "midi": 44,
      "hit": false,
      "t": 159230.60999999993,
      "d": 225.96131250000326,
      "v": 96
    },
    {
      "midi": 58,
      "hit": false,
      "t": 159230.60999999993,
      "d": 456.7303125000035,
      "v": 75
    },
    {
      "midi": 60,
      "hit": false,
      "t": 159230.60999999993,
      "d": 456.7303125000035,
      "v": 109
    },
    {
      "midi": 40,
      "hit": false,
      "t": 159230.60999999993,
      "d": 456.7303125000035,
      "v": 117
    },
    {
      "midi": 33,
      "hit": false,
      "t": 159230.61000000013,
      "d": 225.96131250000326,
      "v": 113
    },
    {
      "midi": 45,
      "hit": false,
      "t": 159230.61000000016,
      "d": 225.96131250000326,
      "v": 97
    },
    {
      "midi": 54,
      "hit": false,
      "t": 159230.61000000016,
      "d": 225.96131250000326,
      "v": 88
    },
    {
      "midi": 48,
      "hit": false,
      "t": 159461.37899999993,
      "d": 225.96131250000326,
      "v": 92
    },
    {
      "midi": 33,
      "hit": false,
      "t": 159461.37900000013,
      "d": 456.7303125000035,
      "v": 113
    },
    {
      "midi": 45,
      "hit": false,
      "t": 159461.37900000016,
      "d": 225.96131250000326,
      "v": 99
    },
    {
      "midi": 52,
      "hit": false,
      "t": 159461.37900000016,
      "d": 225.96131250000326,
      "v": 83
    },
    {
      "midi": 68,
      "hit": false,
      "t": 159491.18666250046,
      "d": 211.53824999995413,
      "v": 88
    },
    {
      "midi": 71,
      "hit": false,
      "t": 159492.14820000046,
      "d": 224.03823749994626,
      "v": 88
    },
    {
      "midi": 64,
      "hit": false,
      "t": 159494.07127500046,
      "d": 208.65363749995595,
      "v": 90
    },
    {
      "midi": 44,
      "hit": false,
      "t": 159692.14799999993,
      "d": 225.96131250000326,
      "v": 86
    },
    {
      "midi": 58,
      "hit": false,
      "t": 159692.14799999993,
      "d": 456.7303124999744,
      "v": 73
    },
    {
      "midi": 38,
      "hit": false,
      "t": 159692.14799999993,
      "d": 456.7303124999744,
      "v": 123
    },
    {
      "midi": 52,
      "hit": false,
      "t": 159692.14800000016,
      "d": 225.96131250000326,
      "v": 85
    },
    {
      "midi": 45,
      "hit": false,
      "t": 159692.14800000016,
      "d": 225.96131250000326,
      "v": 94
    },
    {
      "midi": 44,
      "hit": false,
      "t": 159922.91699999993,
      "d": 110.57681249998859,
      "v": 89
    },
    {
      "midi": 45,
      "hit": false,
      "t": 159922.91700000013,
      "d": 225.96131250000326,
      "v": 113
    },
    {
      "midi": 52,
      "hit": false,
      "t": 159922.91700000016,
      "d": 225.96131250000326,
      "v": 78
    },
    {
      "midi": 45,
      "hit": false,
      "t": 159922.91700000016,
      "d": 225.96131250000326,
      "v": 90
    },
    {
      "midi": 69,
      "hit": false,
      "t": 159936.37852500041,
      "d": 294.2304749999603,
      "v": 90
    },
    {
      "midi": 64,
      "hit": false,
      "t": 159936.37852500041,
      "d": 308.6535374999512,
      "v": 86
    },
    {
      "midi": 73,
      "hit": false,
      "t": 159953.6862000004,
      "d": 263.46127499997965,
      "v": 85
    },
    {
      "midi": 44,
      "hit": false,
      "t": 160038.3014999999,
      "d": 110.57681249998859,
      "v": 92
    },
    {
      "midi": 44,
      "hit": false,
      "t": 160153.6859999999,
      "d": 225.96131250000326,
      "v": 100
    },
    {
      "midi": 58,
      "hit": false,
      "t": 160153.6859999999,
      "d": 456.7303125000035,
      "v": 71
    },
    {
      "midi": 40,
      "hit": false,
      "t": 160153.6859999999,
      "d": 456.7303125000035,
      "v": 117
    },
    {
      "midi": 33,
      "hit": false,
      "t": 160153.68600000013,
      "d": 225.96131250000326,
      "v": 110
    },
    {
      "midi": 45,
      "hit": false,
      "t": 160153.68600000016,
      "d": 225.96131250000326,
      "v": 107
    },
    {
      "midi": 54,
      "hit": false,
      "t": 160153.68600000016,
      "d": 225.96131250000326,
      "v": 97
    },
    {
      "midi": 48,
      "hit": false,
      "t": 160384.4549999999,
      "d": 225.96131250000326,
      "v": 96
    },
    {
      "midi": 33,
      "hit": false,
      "t": 160384.45500000013,
      "d": 456.7303125000035,
      "v": 110
    },
    {
      "midi": 45,
      "hit": false,
      "t": 160384.45500000016,
      "d": 225.96131250000326,
      "v": 99
    },
    {
      "midi": 52,
      "hit": false,
      "t": 160384.45500000016,
      "d": 225.96131250000326,
      "v": 88
    },
    {
      "midi": 66,
      "hit": false,
      "t": 160414.26266250038,
      "d": 827.8837875000027,
      "v": 94
    },
    {
      "midi": 62,
      "hit": false,
      "t": 160417.14727500037,
      "d": 775.9607625000062,
      "v": 94
    },
    {
      "midi": 69,
      "hit": false,
      "t": 160417.14727500037,
      "d": 825.9607125000039,
      "v": 94
    },
    {
      "midi": 44,
      "hit": false,
      "t": 160615.2239999999,
      "d": 225.96131250000326,
      "v": 89
    },
    {
      "midi": 58,
      "hit": false,
      "t": 160615.2239999999,
      "d": 456.7303125000035,
      "v": 75
    },
    {
      "midi": 38,
      "hit": false,
      "t": 160615.2239999999,
      "d": 456.7303125000035,
      "v": 117
    },
    {
      "midi": 52,
      "hit": false,
      "t": 160615.22400000016,
      "d": 225.96131250000326,
      "v": 86
    },
    {
      "midi": 45,
      "hit": false,
      "t": 160615.22400000016,
      "d": 225.96131250000326,
      "v": 99
    },
    {
      "midi": 48,
      "hit": false,
      "t": 160845.9929999999,
      "d": 225.96131250000326,
      "v": 84
    },
    {
      "midi": 45,
      "hit": false,
      "t": 160845.99300000013,
      "d": 225.96131250000326,
      "v": 117
    },
    {
      "midi": 52,
      "hit": false,
      "t": 160845.99300000016,
      "d": 225.96131250000326,
      "v": 82
    },
    {
      "midi": 45,
      "hit": false,
      "t": 160845.99300000016,
      "d": 225.96131250000326,
      "v": 99
    },
    {
      "midi": 44,
      "hit": false,
      "t": 161076.7619999999,
      "d": 225.96131250000326,
      "v": 100
    },
    {
      "midi": 58,
      "hit": false,
      "t": 161076.7619999999,
      "d": 456.7303124999744,
      "v": 73
    },
    {
      "midi": 40,
      "hit": false,
      "t": 161076.7619999999,
      "d": 456.7303124999744,
      "v": 113
    },
    {
      "midi": 33,
      "hit": false,
      "t": 161076.76200000013,
      "d": 225.96131250000326,
      "v": 113
    },
    {
      "midi": 45,
      "hit": false,
      "t": 161076.76200000016,
      "d": 225.96131250000326,
      "v": 110
    },
    {
      "midi": 54,
      "hit": false,
      "t": 161076.76200000016,
      "d": 225.96131250000326,
      "v": 86
    },
    {
      "midi": 44,
      "hit": false,
      "t": 161307.5309999999,
      "d": 110.57681249998859,
      "v": 84
    },
    {
      "midi": 45,
      "hit": false,
      "t": 161307.53100000013,
      "d": 225.96131250000326,
      "v": 110
    },
    {
      "midi": 45,
      "hit": false,
      "t": 161307.53100000016,
      "d": 225.96131250000326,
      "v": 92
    },
    {
      "midi": 52,
      "hit": false,
      "t": 161307.53100000016,
      "d": 225.96131250000326,
      "v": 71
    },
    {
      "midi": 64,
      "hit": false,
      "t": 161330.60790000038,
      "d": 889.4221874999639,
      "v": 86
    },
    {
      "midi": 68,
      "hit": false,
      "t": 161345.03096250037,
      "d": 899.9990999999864,
      "v": 88
    },
    {
      "midi": 71,
      "hit": false,
      "t": 161345.99250000037,
      "d": 914.4221624999773,
      "v": 86
    },
    {
      "midi": 44,
      "hit": false,
      "t": 161422.9154999999,
      "d": 110.57681249998859,
      "v": 89
    },
    {
      "midi": 44,
      "hit": false,
      "t": 161538.29999999987,
      "d": 225.96131250000326,
      "v": 100
    },
    {
      "midi": 58,
      "hit": false,
      "t": 161538.29999999987,
      "d": 456.7303125000035,
      "v": 75
    },
    {
      "midi": 38,
      "hit": false,
      "t": 161538.29999999987,
      "d": 456.7303125000035,
      "v": 113
    },
    {
      "midi": 30,
      "hit": false,
      "t": 161538.30000000013,
      "d": 225.96131250000326,
      "v": 117
    },
    {
      "midi": 52,
      "hit": false,
      "t": 161538.30000000016,
      "d": 225.96131250000326,
      "v": 90
    },
    {
      "midi": 45,
      "hit": false,
      "t": 161538.30000000016,
      "d": 225.96131250000326,
      "v": 101
    },
    {
      "midi": 48,
      "hit": false,
      "t": 161769.06899999987,
      "d": 225.96131250000326,
      "v": 84
    },
    {
      "midi": 30,
      "hit": false,
      "t": 161769.06900000013,
      "d": 456.7303125000035,
      "v": 120
    },
    {
      "midi": 52,
      "hit": false,
      "t": 161769.06900000016,
      "d": 225.96131250000326,
      "v": 80
    },
    {
      "midi": 45,
      "hit": false,
      "t": 161769.06900000016,
      "d": 225.96131250000326,
      "v": 90
    },
    {
      "midi": 44,
      "hit": false,
      "t": 161999.83799999987,
      "d": 225.96131250000326,
      "v": 104
    },
    {
      "midi": 58,
      "hit": false,
      "t": 161999.83799999987,
      "d": 456.7303125000035,
      "v": 71
    },
    {
      "midi": 40,
      "hit": false,
      "t": 161999.83799999987,
      "d": 456.7303125000035,
      "v": 120
    },
    {
      "midi": 54,
      "hit": false,
      "t": 161999.83800000016,
      "d": 225.96131250000326,
      "v": 94
    },
    {
      "midi": 45,
      "hit": false,
      "t": 161999.83800000016,
      "d": 225.96131250000326,
      "v": 107
    },
    {
      "midi": 48,
      "hit": false,
      "t": 162230.60699999987,
      "d": 225.96131250000326,
      "v": 96
    },
    {
      "midi": 33,
      "hit": false,
      "t": 162230.60700000013,
      "d": 456.7303125000035,
      "v": 113
    },
    {
      "midi": 45,
      "hit": false,
      "t": 162230.60700000016,
      "d": 225.96131250000326,
      "v": 92
    },
    {
      "midi": 52,
      "hit": false,
      "t": 162230.60700000016,
      "d": 225.96131250000326,
      "v": 79
    },
    {
      "midi": 44,
      "hit": false,
      "t": 162461.37599999987,
      "d": 225.96131250000326,
      "v": 89
    },
    {
      "midi": 58,
      "hit": false,
      "t": 162461.37599999987,
      "d": 456.7303125000035,
      "v": 69
    },
    {
      "midi": 38,
      "hit": false,
      "t": 162461.37599999987,
      "d": 456.7303125000035,
      "v": 117
    },
    {
      "midi": 45,
      "hit": false,
      "t": 162461.37600000016,
      "d": 225.96131250000326,
      "v": 101
    },
    {
      "midi": 52,
      "hit": false,
      "t": 162461.37600000016,
      "d": 225.96131250000326,
      "v": 92
    },
    {
      "midi": 69,
      "hit": false,
      "t": 162465.22215000034,
      "d": 133.65371250000317,
      "v": 92
    },
    {
      "midi": 64,
      "hit": false,
      "t": 162466.18368750034,
      "d": 131.73063750000438,
      "v": 97
    },
    {
      "midi": 73,
      "hit": false,
      "t": 162467.14522500033,
      "d": 129.8075625000056,
      "v": 88
    },
    {
      "midi": 48,
      "hit": false,
      "t": 162692.14499999987,
      "d": 225.96131250000326,
      "v": 84
    },
    {
      "midi": 45,
      "hit": false,
      "t": 162692.14500000014,
      "d": 225.96131250000326,
      "v": 117
    },
    {
      "midi": 45,
      "hit": false,
      "t": 162692.14500000016,
      "d": 225.96131250000326,
      "v": 97
    },
    {
      "midi": 52,
      "hit": false,
      "t": 162692.14500000016,
      "d": 225.96131250000326,
      "v": 85
    },
    {
      "midi": 68,
      "hit": false,
      "t": 162696.95268750034,
      "d": 113.46142500001588,
      "v": 82
    },
    {
      "midi": 64,
      "hit": false,
      "t": 162699.83730000033,
      "d": 108.6537375000189,
      "v": 76
    },
    {
      "midi": 71,
      "hit": false,
      "t": 162700.79883750033,
      "d": 108.6537375000189,
      "v": 88
    },
    {
      "midi": 64,
      "hit": false,
      "t": 162920.99092500034,
      "d": 140.38447499999893,
      "v": 80
    },
    {
      "midi": 44,
      "hit": false,
      "t": 162922.91399999987,
      "d": 225.96131250000326,
      "v": 100
    },
    {
      "midi": 58,
      "hit": false,
      "t": 162922.91399999987,
      "d": 456.7303124999744,
      "v": 66
    },
    {
      "midi": 40,
      "hit": false,
      "t": 162922.91399999987,
      "d": 456.7303124999744,
      "v": 113
    },
    {
      "midi": 33,
      "hit": false,
      "t": 162922.91400000014,
      "d": 225.96131250000326,
      "v": 113
    },
    {
      "midi": 54,
      "hit": false,
      "t": 162922.91400000016,
      "d": 225.96131250000326,
      "v": 94
    },
    {
      "midi": 45,
      "hit": false,
      "t": 162922.91400000016,
      "d": 225.96131250000326,
      "v": 110
    },
    {
      "midi": 73,
      "hit": false,
      "t": 162938.29860000033,
      "d": 109.6152750000183,
      "v": 86
    },
    {
      "midi": 69,
      "hit": false,
      "t": 162938.29860000033,
      "d": 110.5768125000177,
      "v": 86
    },
    {
      "midi": 44,
      "hit": false,
      "t": 163153.68299999987,
      "d": 110.57681249998859,
      "v": 84
    },
    {
      "midi": 33,
      "hit": false,
      "t": 163153.68300000014,
      "d": 456.7303125000035,
      "v": 113
    },
    {
      "midi": 45,
      "hit": false,
      "t": 163153.68300000016,
      "d": 225.96131250000326,
      "v": 83
    },
    {
      "midi": 52,
      "hit": false,
      "t": 163153.68300000016,
      "d": 225.96131250000326,
      "v": 82
    },
    {
      "midi": 68,
      "hit": false,
      "t": 163160.41376250033,
      "d": 271.1535749999748,
      "v": 90
    },
    {
      "midi": 64,
      "hit": false,
      "t": 163161.37530000033,
      "d": 256.7305124999839,
      "v": 85
    },
    {
      "midi": 71,
      "hit": false,
      "t": 163162.33683750033,
      "d": 270.1920374999754,
      "v": 90
    },
    {
      "midi": 44,
      "hit": false,
      "t": 163269.06749999986,
      "d": 110.57681249998859,
      "v": 89
    },
    {
      "midi": 44,
      "hit": false,
      "t": 163384.45199999984,
      "d": 225.96131250000326,
      "v": 100
    },
    {
      "midi": 58,
      "hit": false,
      "t": 163384.45199999984,
      "d": 456.7303125000035,
      "v": 63
    },
    {
      "midi": 38,
      "hit": false,
      "t": 163384.45199999984,
      "d": 456.7303125000035,
      "v": 113
    },
    {
      "midi": 52,
      "hit": false,
      "t": 163384.45200000016,
      "d": 225.96131250000326,
      "v": 90
    },
    {
      "midi": 45,
      "hit": false,
      "t": 163384.45200000016,
      "d": 225.96131250000326,
      "v": 107
    },
    {
      "midi": 48,
      "hit": false,
      "t": 163615.22099999984,
      "d": 225.96131250000326,
      "v": 84
    },
    {
      "midi": 45,
      "hit": false,
      "t": 163615.22100000014,
      "d": 225.96131250000326,
      "v": 113
    },
    {
      "midi": 52,
      "hit": false,
      "t": 163615.22100000017,
      "d": 225.96131250000326,
      "v": 80
    },
    {
      "midi": 45,
      "hit": false,
      "t": 163615.22100000017,
      "d": 225.96131250000326,
      "v": 90
    },
    {
      "midi": 69,
      "hit": false,
      "t": 163626.7594500003,
      "d": 294.2304749999603,
      "v": 92
    },
    {
      "midi": 64,
      "hit": false,
      "t": 163627.7209875003,
      "d": 305.768924999953,
      "v": 94
    },
    {
      "midi": 73,
      "hit": false,
      "t": 163629.6440625003,
      "d": 278.84587499996996,
      "v": 86
    },
    {
      "midi": 44,
      "hit": false,
      "t": 163845.98999999985,
      "d": 225.96131250000326,
      "v": 104
    },
    {
      "midi": 58,
      "hit": false,
      "t": 163845.98999999985,
      "d": 456.7303125000035,
      "v": 75
    },
    {
      "midi": 40,
      "hit": false,
      "t": 163845.98999999985,
      "d": 456.7303125000035,
      "v": 120
    },
    {
      "midi": 33,
      "hit": false,
      "t": 163845.99000000014,
      "d": 225.96131250000326,
      "v": 110
    },
    {
      "midi": 54,
      "hit": false,
      "t": 163845.99000000017,
      "d": 225.96131250000326,
      "v": 88
    },
    {
      "midi": 45,
      "hit": false,
      "t": 163845.99000000017,
      "d": 225.96131250000326,
      "v": 107
    },
    {
      "midi": 48,
      "hit": false,
      "t": 164076.75899999985,
      "d": 225.96131250000326,
      "v": 96
    },
    {
      "midi": 33,
      "hit": false,
      "t": 164076.75900000014,
      "d": 456.7303125000035,
      "v": 110
    },
    {
      "midi": 45,
      "hit": false,
      "t": 164076.75900000017,
      "d": 225.96131250000326,
      "v": 90
    },
    {
      "midi": 52,
      "hit": false,
      "t": 164076.75900000017,
      "d": 225.96131250000326,
      "v": 74
    },
    {
      "midi": 66,
      "hit": false,
      "t": 164116.18203750026,
      "d": 680.7685499999498,
      "v": 99
    },
    {
      "midi": 62,
      "hit": false,
      "t": 164117.14357500026,
      "d": 619.2301499999594,
      "v": 97
    },
    {
      "midi": 69,
      "hit": false,
      "t": 164117.14357500026,
      "d": 704.8069874999637,
      "v": 94
    },
    {
      "midi": 44,
      "hit": false,
      "t": 164307.52799999985,
      "d": 225.96131250000326,
      "v": 89
    },
    {
      "midi": 58,
      "hit": false,
      "t": 164307.52799999985,
      "d": 456.7303125000035,
      "v": 77
    },
    {
      "midi": 38,
      "hit": false,
      "t": 164307.52799999985,
      "d": 456.7303125000035,
      "v": 117
    },
    {
      "midi": 52,
      "hit": false,
      "t": 164307.52800000017,
      "d": 225.96131250000326,
      "v": 88
    },
    {
      "midi": 45,
      "hit": false,
      "t": 164307.52800000017,
      "d": 225.96131250000326,
      "v": 99
    },
    {
      "midi": 48,
      "hit": false,
      "t": 164538.29699999985,
      "d": 225.96131250000326,
      "v": 84
    },
    {
      "midi": 45,
      "hit": false,
      "t": 164538.29700000014,
      "d": 225.96131250000326,
      "v": 117
    },
    {
      "midi": 52,
      "hit": false,
      "t": 164538.29700000017,
      "d": 225.96131250000326,
      "v": 82
    },
    {
      "midi": 45,
      "hit": false,
      "t": 164538.29700000017,
      "d": 225.96131250000326,
      "v": 90
    },
    {
      "midi": 74,
      "hit": false,
      "t": 164685.41223750022,
      "d": 306.7304625000106,
      "v": 86
    },
    {
      "midi": 44,
      "hit": false,
      "t": 164769.06599999985,
      "d": 225.96131250000326,
      "v": 100
    },
    {
      "midi": 58,
      "hit": false,
      "t": 164769.06599999985,
      "d": 456.7303124999744,
      "v": 64
    },
    {
      "midi": 40,
      "hit": false,
      "t": 164769.06599999985,
      "d": 456.7303124999744,
      "v": 113
    },
    {
      "midi": 33,
      "hit": false,
      "t": 164769.06600000014,
      "d": 225.96131250000326,
      "v": 113
    },
    {
      "midi": 45,
      "hit": false,
      "t": 164769.06600000017,
      "d": 225.96131250000326,
      "v": 94
    },
    {
      "midi": 54,
      "hit": false,
      "t": 164769.06600000017,
      "d": 225.96131250000326,
      "v": 90
    },
    {
      "midi": 44,
      "hit": false,
      "t": 164999.83499999985,
      "d": 110.57681249998859,
      "v": 84
    },
    {
      "midi": 45,
      "hit": false,
      "t": 164999.83500000014,
      "d": 225.96131250000326,
      "v": 110
    },
    {
      "midi": 45,
      "hit": false,
      "t": 164999.83500000017,
      "d": 225.96131250000326,
      "v": 97
    },
    {
      "midi": 52,
      "hit": false,
      "t": 164999.83500000017,
      "d": 225.96131250000326,
      "v": 88
    },
    {
      "midi": 64,
      "hit": false,
      "t": 165005.60422500022,
      "d": 939.4221374999324,
      "v": 101
    },
    {
      "midi": 44,
      "hit": false,
      "t": 165115.21949999983,
      "d": 110.57681249998859,
      "v": 89
    },
    {
      "midi": 44,
      "hit": false,
      "t": 165230.60399999982,
      "d": 225.96131250000326,
      "v": 100
    },
    {
      "midi": 58,
      "hit": false,
      "t": 165230.60399999982,
      "d": 456.7303125000035,
      "v": 84
    },
    {
      "midi": 38,
      "hit": false,
      "t": 165230.60399999982,
      "d": 456.7303125000035,
      "v": 113
    },
    {
      "midi": 30,
      "hit": false,
      "t": 165230.60400000014,
      "d": 225.96131250000326,
      "v": 117
    },
    {
      "midi": 52,
      "hit": false,
      "t": 165230.60400000017,
      "d": 225.96131250000326,
      "v": 85
    },
    {
      "midi": 45,
      "hit": false,
      "t": 165230.60400000017,
      "d": 225.96131250000326,
      "v": 97
    },
    {
      "midi": 48,
      "hit": false,
      "t": 165461.37299999982,
      "d": 225.96131250000326,
      "v": 84
    },
    {
      "midi": 30,
      "hit": false,
      "t": 165461.37300000014,
      "d": 456.7303125000035,
      "v": 120
    },
    {
      "midi": 52,
      "hit": false,
      "t": 165461.37300000017,
      "d": 225.96131250000326,
      "v": 76
    },
    {
      "midi": 45,
      "hit": false,
      "t": 165461.37300000017,
      "d": 225.96131250000326,
      "v": 92
    },
    {
      "midi": 68,
      "hit": false,
      "t": 165480.60375000015,
      "d": 463.46107499999925,
      "v": 86
    },
    {
      "midi": 44,
      "hit": false,
      "t": 165692.14199999982,
      "d": 225.96131250000326,
      "v": 104
    },
    {
      "midi": 58,
      "hit": false,
      "t": 165692.14199999982,
      "d": 456.7303125000035,
      "v": 69
    },
    {
      "midi": 40,
      "hit": false,
      "t": 165692.14199999982,
      "d": 456.7303125000035,
      "v": 120
    },
    {
      "midi": 54,
      "hit": false,
      "t": 165692.14200000017,
      "d": 225.96131250000326,
      "v": 92
    },
    {
      "midi": 45,
      "hit": false,
      "t": 165692.14200000017,
      "d": 225.96131250000326,
      "v": 104
    },
    {
      "midi": 71,
      "hit": false,
      "t": 165712.33428750015,
      "d": 257.6920500000124,
      "v": 85
    },
    {
      "midi": 48,
      "hit": false,
      "t": 165922.91099999982,
      "d": 225.96131250000326,
      "v": 96
    },
    {
      "midi": 33,
      "hit": false,
      "t": 165922.91100000014,
      "d": 456.7303125000035,
      "v": 117
    },
    {
      "midi": 45,
      "hit": false,
      "t": 165922.91100000017,
      "d": 225.96131250000326,
      "v": 99
    },
    {
      "midi": 52,
      "hit": false,
      "t": 165922.91100000017,
      "d": 225.96131250000326,
      "v": 92
    },
    {
      "midi": 44,
      "hit": false,
      "t": 166153.67999999982,
      "d": 225.96131250000326,
      "v": 89
    },
    {
      "midi": 58,
      "hit": false,
      "t": 166153.67999999982,
      "d": 456.7303125000035,
      "v": 75
    },
    {
      "midi": 38,
      "hit": false,
      "t": 166153.67999999982,
      "d": 456.7303125000035,
      "v": 117
    },
    {
      "midi": 52,
      "hit": false,
      "t": 166153.68000000017,
      "d": 225.96131250000326,
      "v": 86
    },
    {
      "midi": 45,
      "hit": false,
      "t": 166153.68000000017,
      "d": 225.96131250000326,
      "v": 99
    },
    {
      "midi": 64,
      "hit": false,
      "t": 166164.25691250016,
      "d": 157.69215000001714,
      "v": 90
    },
    {
      "midi": 69,
      "hit": false,
      "t": 166165.21845000016,
      "d": 117.30757500001346,
      "v": 94
    },
    {
      "midi": 73,
      "hit": false,
      "t": 166165.21845000016,
      "d": 118.26911250001285,
      "v": 90
    },
    {
      "midi": 48,
      "hit": false,
      "t": 166384.44899999982,
      "d": 225.96131250000326,
      "v": 84
    },
    {
      "midi": 45,
      "hit": false,
      "t": 166384.44900000014,
      "d": 225.96131250000326,
      "v": 117
    },
    {
      "midi": 64,
      "hit": false,
      "t": 166384.44900000017,
      "d": 95.19221249999828,
      "v": 69
    },
    {
      "midi": 45,
      "hit": false,
      "t": 166384.44900000017,
      "d": 225.96131250000326,
      "v": 86
    },
    {
      "midi": 52,
      "hit": false,
      "t": 166384.44900000017,
      "d": 225.96131250000326,
      "v": 75
    },
    {
      "midi": 68,
      "hit": false,
      "t": 166385.41053750017,
      "d": 107.69219999999041,
      "v": 85
    },
    {
      "midi": 71,
      "hit": false,
      "t": 166403.67975000016,
      "d": 88.46145000000251,
      "v": 88
    },
    {
      "midi": 64,
      "hit": false,
      "t": 166604.64108750015,
      "d": 148.0767749999941,
      "v": 82
    },
    {
      "midi": 44,
      "hit": false,
      "t": 166615.21799999982,
      "d": 225.96131250000326,
      "v": 100
    },
    {
      "midi": 58,
      "hit": false,
      "t": 166615.21799999982,
      "d": 456.7303124999744,
      "v": 79
    },
    {
      "midi": 40,
      "hit": false,
      "t": 166615.21799999982,
      "d": 456.7303124999744,
      "v": 113
    },
    {
      "midi": 33,
      "hit": false,
      "t": 166615.21800000014,
      "d": 225.96131250000326,
      "v": 113
    },
    {
      "midi": 45,
      "hit": false,
      "t": 166615.21800000017,
      "d": 225.96131250000326,
      "v": 97
    },
    {
      "midi": 54,
      "hit": false,
      "t": 166615.21800000017,
      "d": 225.96131250000326,
      "v": 90
    },
    {
      "midi": 69,
      "hit": false,
      "t": 166620.02568750014,
      "d": 117.30757500001346,
      "v": 90
    },
    {
      "midi": 73,
      "hit": false,
      "t": 166620.98722500014,
      "d": 117.30757500001346,
      "v": 86
    },
    {
      "midi": 44,
      "hit": false,
      "t": 166845.98699999982,
      "d": 110.57681249998859,
      "v": 84
    },
    {
      "midi": 33,
      "hit": false,
      "t": 166845.98700000014,
      "d": 456.7303125000035,
      "v": 113
    },
    {
      "midi": 45,
      "hit": false,
      "t": 166845.98700000017,
      "d": 225.96131250000326,
      "v": 94
    },
    {
      "midi": 52,
      "hit": false,
      "t": 166845.98700000017,
      "d": 225.96131250000326,
      "v": 79
    },
    {
      "midi": 68,
      "hit": false,
      "t": 166864.25621250013,
      "d": 216.3459374999802,
      "v": 88
    },
    {
      "midi": 71,
      "hit": false,
      "t": 166865.21775000013,
      "d": 200.9613374999899,
      "v": 88
    },
    {
      "midi": 64,
      "hit": false,
      "t": 166881.56388750012,
      "d": 199.0382624999911,
      "v": 83
    },
    {
      "midi": 44,
      "hit": false,
      "t": 166961.3714999998,
      "d": 110.57681249998859,
      "v": 89
    },
    {
      "midi": 44,
      "hit": false,
      "t": 167076.7559999998,
      "d": 225.96131250000326,
      "v": 100
    },
    {
      "midi": 58,
      "hit": false,
      "t": 167076.7559999998,
      "d": 456.7303125000035,
      "v": 68
    },
    {
      "midi": 38,
      "hit": false,
      "t": 167076.7559999998,
      "d": 456.7303125000035,
      "v": 113
    },
    {
      "midi": 52,
      "hit": false,
      "t": 167076.75600000017,
      "d": 225.96131250000326,
      "v": 83
    },
    {
      "midi": 45,
      "hit": false,
      "t": 167076.75600000017,
      "d": 225.96131250000326,
      "v": 94
    },
    {
      "midi": 48,
      "hit": false,
      "t": 167307.5249999998,
      "d": 225.96131250000326,
      "v": 84
    },
    {
      "midi": 45,
      "hit": false,
      "t": 167307.52500000014,
      "d": 225.96131250000326,
      "v": 113
    },
    {
      "midi": 45,
      "hit": false,
      "t": 167307.52500000017,
      "d": 225.96131250000326,
      "v": 92
    },
    {
      "midi": 52,
      "hit": false,
      "t": 167307.52500000017,
      "d": 225.96131250000326,
      "v": 76
    },
    {
      "midi": 69,
      "hit": false,
      "t": 167336.3711250001,
      "d": 244.23052499996265,
      "v": 97
    },
    {
      "midi": 64,
      "hit": false,
      "t": 167336.3711250001,
      "d": 257.6920499999542,
      "v": 92
    },
    {
      "midi": 73,
      "hit": false,
      "t": 167337.3326625001,
      "d": 228.84592499997234,
      "v": 90
    },
    {
      "midi": 44,
      "hit": false,
      "t": 167538.2939999998,
      "d": 225.96131250000326,
      "v": 104
    },
    {
      "midi": 58,
      "hit": false,
      "t": 167538.2939999998,
      "d": 456.7303125000035,
      "v": 62
    },
    {
      "midi": 40,
      "hit": false,
      "t": 167538.2939999998,
      "d": 456.7303125000035,
      "v": 120
    },
    {
      "midi": 33,
      "hit": false,
      "t": 167538.29400000014,
      "d": 225.96131250000326,
      "v": 110
    },
    {
      "midi": 45,
      "hit": false,
      "t": 167538.29400000017,
      "d": 225.96131250000326,
      "v": 99
    },
    {
      "midi": 54,
      "hit": false,
      "t": 167538.29400000017,
      "d": 225.96131250000326,
      "v": 86
    },
    {
      "midi": 48,
      "hit": false,
      "t": 167769.0629999998,
      "d": 225.96131250000326,
      "v": 96
    },
    {
      "midi": 33,
      "hit": false,
      "t": 167769.06300000014,
      "d": 456.7303125000035,
      "v": 110
    },
    {
      "midi": 52,
      "hit": false,
      "t": 167769.06300000017,
      "d": 225.96131250000326,
      "v": 86
    },
    {
      "midi": 45,
      "hit": false,
      "t": 167769.06300000017,
      "d": 225.96131250000326,
      "v": 97
    },
    {
      "midi": 62,
      "hit": false,
      "t": 167798.87066250003,
      "d": 726.9223499999789,
      "v": 92
    },
    {
      "midi": 66,
      "hit": false,
      "t": 167799.83220000003,
      "d": 763.460774999985,
      "v": 94
    },
    {
      "midi": 69,
      "hit": false,
      "t": 167817.13987500002,
      "d": 759.6146249999874,
      "v": 88
    },
    {
      "midi": 44,
      "hit": false,
      "t": 167999.8319999998,
      "d": 225.96131250000326,
      "v": 89
    },
    {
      "midi": 58,
      "hit": false,
      "t": 167999.8319999998,
      "d": 456.7303125000035,
      "v": 62
    },
    {
      "midi": 38,
      "hit": false,
      "t": 167999.8319999998,
      "d": 456.7303125000035,
      "v": 117
    },
    {
      "midi": 52,
      "hit": false,
      "t": 167999.83200000017,
      "d": 225.96131250000326,
      "v": 90
    },
    {
      "midi": 45,
      "hit": false,
      "t": 167999.83200000017,
      "d": 225.96131250000326,
      "v": 107
    },
    {
      "midi": 48,
      "hit": false,
      "t": 168230.6009999998,
      "d": 225.96131250000326,
      "v": 84
    },
    {
      "midi": 45,
      "hit": false,
      "t": 168230.60100000014,
      "d": 225.96131250000326,
      "v": 117
    },
    {
      "midi": 52,
      "hit": false,
      "t": 168230.60100000017,
      "d": 225.96131250000326,
      "v": 73
    },
    {
      "midi": 45,
      "hit": false,
      "t": 168230.60100000017,
      "d": 225.96131250000326,
      "v": 82
    },
    {
      "midi": 44,
      "hit": false,
      "t": 168461.3699999998,
      "d": 225.96131250000326,
      "v": 100
    },
    {
      "midi": 58,
      "hit": false,
      "t": 168461.3699999998,
      "d": 456.7303124999744,
      "v": 71
    },
    {
      "midi": 40,
      "hit": false,
      "t": 168461.3699999998,
      "d": 456.7303124999744,
      "v": 113
    },
    {
      "midi": 33,
      "hit": false,
      "t": 168461.37000000014,
      "d": 225.96131250000326,
      "v": 113
    },
    {
      "midi": 54,
      "hit": false,
      "t": 168461.37000000017,
      "d": 225.96131250000326,
      "v": 85
    },
    {
      "midi": 45,
      "hit": false,
      "t": 168461.37000000017,
      "d": 225.96131250000326,
      "v": 97
    },
    {
      "midi": 44,
      "hit": false,
      "t": 168692.1389999998,
      "d": 110.57681249998859,
      "v": 84
    },
    {
      "midi": 45,
      "hit": false,
      "t": 168692.13900000014,
      "d": 225.96131250000326,
      "v": 110
    },
    {
      "midi": 45,
      "hit": false,
      "t": 168692.13900000017,
      "d": 225.96131250000326,
      "v": 97
    },
    {
      "midi": 52,
      "hit": false,
      "t": 168692.13900000017,
      "d": 225.96131250000326,
      "v": 80
    },
    {
      "midi": 64,
      "hit": false,
      "t": 168709.446675,
      "d": 268.2689624999766,
      "v": 94
    },
    {
      "midi": 68,
      "hit": false,
      "t": 168710.4082125,
      "d": 817.3068749999802,
      "v": 92
    },
    {
      "midi": 71,
      "hit": false,
      "t": 168728.677425,
      "d": 824.9991749999754,
      "v": 90
    },
    {
      "midi": 44,
      "hit": false,
      "t": 168807.52349999978,
      "d": 110.57681249998859,
      "v": 89
    },
    {
      "midi": 44,
      "hit": false,
      "t": 168922.90799999976,
      "d": 225.96131250000326,
      "v": 100
    },
    {
      "midi": 58,
      "hit": false,
      "t": 168922.90799999976,
      "d": 456.7303125000035,
      "v": 69
    },
    {
      "midi": 38,
      "hit": false,
      "t": 168922.90799999976,
      "d": 456.7303125000035,
      "v": 113
    },
    {
      "midi": 45,
      "hit": false,
      "t": 168922.90800000014,
      "d": 225.96131250000326,
      "v": 113
    },
    {
      "midi": 52,
      "hit": false,
      "t": 168922.90800000017,
      "d": 225.96131250000326,
      "v": 82
    },
    {
      "midi": 45,
      "hit": false,
      "t": 168922.90800000017,
      "d": 225.96131250000326,
      "v": 99
    },
    {
      "midi": 64,
      "hit": false,
      "t": 169147.907775,
      "d": 293.26893749999,
      "v": 92
    },
    {
      "midi": 48,
      "hit": false,
      "t": 169153.67699999976,
      "d": 225.96131250000326,
      "v": 84
    },
    {
      "midi": 45,
      "hit": false,
      "t": 169153.67700000014,
      "d": 225.96131250000326,
      "v": 120
    },
    {
      "midi": 45,
      "hit": false,
      "t": 169153.67700000017,
      "d": 225.96131250000326,
      "v": 97
    },
    {
      "midi": 52,
      "hit": false,
      "t": 169153.67700000017,
      "d": 225.96131250000326,
      "v": 88
    },
    {
      "midi": 44,
      "hit": false,
      "t": 169384.44599999976,
      "d": 225.96131250000326,
      "v": 104
    },
    {
      "midi": 58,
      "hit": false,
      "t": 169384.44599999976,
      "d": 456.7303125000035,
      "v": 77
    },
    {
      "midi": 40,
      "hit": false,
      "t": 169384.44599999976,
      "d": 456.7303125000035,
      "v": 120
    },
    {
      "midi": 37,
      "hit": false,
      "t": 169384.44600000014,
      "d": 225.96131250000326,
      "v": 107
    },
    {
      "midi": 45,
      "hit": false,
      "t": 169384.44600000017,
      "d": 225.96131250000326,
      "v": 107
    },
    {
      "midi": 54,
      "hit": false,
      "t": 169384.44600000017,
      "d": 225.96131250000326,
      "v": 94
    },
    {
      "midi": 76,
      "hit": false,
      "t": 169389.2536875,
      "d": 151.92292499999166,
      "v": 85
    },
    {
      "midi": 48,
      "hit": false,
      "t": 169615.21499999976,
      "d": 225.96131250000326,
      "v": 96
    },
    {
      "midi": 38,
      "hit": false,
      "t": 169615.21500000014,
      "d": 225.96131250000326,
      "v": 113
    },
    {
      "midi": 52,
      "hit": false,
      "t": 169615.21500000017,
      "d": 225.96131250000326,
      "v": 97
    },
    {
      "midi": 45,
      "hit": false,
      "t": 169615.21500000017,
      "d": 225.96131250000326,
      "v": 107
    },
    {
      "midi": 44,
      "hit": false,
      "t": 169845.98399999976,
      "d": 225.96131250000326,
      "v": 89
    },
    {
      "midi": 58,
      "hit": false,
      "t": 169845.98399999976,
      "d": 456.7303125000035,
      "v": 84
    },
    {
      "midi": 38,
      "hit": false,
      "t": 169845.98399999976,
      "d": 456.7303125000035,
      "v": 117
    },
    {
      "midi": 40,
      "hit": false,
      "t": 169845.98400000014,
      "d": 687.4993125000037,
      "v": 113
    },
    {
      "midi": 50,
      "hit": false,
      "t": 169845.98400000017,
      "d": 225.96131250000326,
      "v": 104
    },
    {
      "midi": 57,
      "hit": false,
      "t": 169845.98400000017,
      "d": 225.96131250000326,
      "v": 92
    },
    {
      "midi": 62,
      "hit": false,
      "t": 169856.5609125,
      "d": 1000.9605374999519,
      "v": 97
    },
    {
      "midi": 66,
      "hit": false,
      "t": 169857.52245,
      "d": 1120.1911874999641,
      "v": 104
    },
    {
      "midi": 69,
      "hit": false,
      "t": 169858.4839875,
      "d": 1234.6141499999503,
      "v": 97
    },
    {
      "midi": 48,
      "hit": false,
      "t": 170076.75299999976,
      "d": 225.96131250000326,
      "v": 84
    },
    {
      "midi": 50,
      "hit": false,
      "t": 170076.75300000017,
      "d": 225.96131250000326,
      "v": 85
    },
    {
      "midi": 57,
      "hit": false,
      "t": 170076.75300000017,
      "d": 225.96131250000326,
      "v": 80
    },
    {
      "midi": 44,
      "hit": false,
      "t": 170307.52199999976,
      "d": 225.96131250000326,
      "v": 100
    },
    {
      "midi": 58,
      "hit": false,
      "t": 170307.52199999976,
      "d": 456.7303124999744,
      "v": 75
    },
    {
      "midi": 40,
      "hit": false,
      "t": 170307.52199999976,
      "d": 456.7303124999744,
      "v": 113
    },
    {
      "midi": 59,
      "hit": false,
      "t": 170307.52200000017,
      "d": 225.96131250000326,
      "v": 83
    },
    {
      "midi": 50,
      "hit": false,
      "t": 170307.52200000017,
      "d": 225.96131250000326,
      "v": 97
    },
    {
      "midi": 44,
      "hit": false,
      "t": 170538.29099999976,
      "d": 110.57681249998859,
      "v": 84
    },
    {
      "midi": 40,
      "hit": false,
      "t": 170538.29100000014,
      "d": 225.96131250000326,
      "v": 117
    },
    {
      "midi": 50,
      "hit": false,
      "t": 170538.29100000017,
      "d": 225.96131250000326,
      "v": 94
    },
    {
      "midi": 57,
      "hit": false,
      "t": 170538.29100000017,
      "d": 225.96131250000326,
      "v": 74
    },
    {
      "midi": 44,
      "hit": false,
      "t": 170653.67549999975,
      "d": 110.57681249998859,
      "v": 89
    },
    {
      "midi": 40,
      "hit": false,
      "t": 170769.05999999974,
      "d": 225.96131250000326,
      "v": 104
    },
    {
      "midi": 44,
      "hit": false,
      "t": 170769.05999999974,
      "d": 225.96131250000326,
      "v": 100
    },
    {
      "midi": 38,
      "hit": false,
      "t": 170769.05999999974,
      "d": 456.7303125000035,
      "v": 113
    },
    {
      "midi": 58,
      "hit": false,
      "t": 170769.05999999974,
      "d": 456.7303125000035,
      "v": 79
    },
    {
      "midi": 47,
      "hit": false,
      "t": 170769.06000000014,
      "d": 225.96131250000326,
      "v": 99
    },
    {
      "midi": 57,
      "hit": false,
      "t": 170769.06000000017,
      "d": 225.96131250000326,
      "v": 83
    },
    {
      "midi": 50,
      "hit": false,
      "t": 170769.06000000017,
      "d": 225.96131250000326,
      "v": 94
    },
    {
      "midi": 74,
      "hit": false,
      "t": 170793.09843749995,
      "d": 486.5379749999847,
      "v": 76
    },
    {
      "midi": 40,
      "hit": false,
      "t": 170999.82899999974,
      "d": 225.96131250000326,
      "v": 104
    },
    {
      "midi": 48,
      "hit": false,
      "t": 170999.82899999974,
      "d": 225.96131250000326,
      "v": 84
    },
    {
      "midi": 50,
      "hit": false,
      "t": 170999.82900000014,
      "d": 225.96131250000326,
      "v": 117
    },
    {
      "midi": 50,
      "hit": false,
      "t": 170999.82900000017,
      "d": 225.96131250000326,
      "v": 90
    },
    {
      "midi": 57,
      "hit": false,
      "t": 170999.82900000017,
      "d": 225.96131250000326,
      "v": 73
    },
    {
      "midi": 62,
      "hit": false,
      "t": 171016.17513749996,
      "d": 299.99969999998575,
      "v": 94
    },
    {
      "midi": 66,
      "hit": false,
      "t": 171216.17493749995,
      "d": 137.49986250000075,
      "v": 85
    },
    {
      "midi": 40,
      "hit": false,
      "t": 171230.59799999974,
      "d": 225.96131250000326,
      "v": 117
    },
    {
      "midi": 44,
      "hit": false,
      "t": 171230.59799999974,
      "d": 225.96131250000326,
      "v": 104
    },
    {
      "midi": 58,
      "hit": false,
      "t": 171230.59799999974,
      "d": 456.7303125000035,
      "v": 71
    },
    {
      "midi": 51,
      "hit": false,
      "t": 171230.59800000014,
      "d": 225.96131250000326,
      "v": 92
    },
    {
      "midi": 59,
      "hit": false,
      "t": 171230.59800000017,
      "d": 225.96131250000326,
      "v": 86
    },
    {
      "midi": 50,
      "hit": false,
      "t": 171230.59800000017,
      "d": 225.96131250000326,
      "v": 99
    },
    {
      "midi": 64,
      "hit": false,
      "t": 171452.71316249995,
      "d": 402.8842124999501,
      "v": 94
    },
    {
      "midi": 68,
      "hit": false,
      "t": 171453.67469999995,
      "d": 1463.4600749998935,
      "v": 97
    },
    {
      "midi": 38,
      "hit": false,
      "t": 171461.36699999974,
      "d": 225.96131250000326,
      "v": 120
    },
    {
      "midi": 48,
      "hit": false,
      "t": 171461.36699999974,
      "d": 225.96131250000326,
      "v": 96
    },
    {
      "midi": 59,
      "hit": false,
      "t": 171461.36699999974,
      "d": 225.96131250000326,
      "v": 113
    },
    {
      "midi": 52,
      "hit": false,
      "t": 171461.36700000014,
      "d": 456.7303125000035,
      "v": 117
    },
    {
      "midi": 52,
      "hit": false,
      "t": 171461.36700000017,
      "d": 225.96131250000326,
      "v": 113
    },
    {
      "midi": 59,
      "hit": false,
      "t": 171461.36700000017,
      "d": 225.96131250000326,
      "v": 88
    },
    {
      "midi": 71,
      "hit": false,
      "t": 171471.94391249993,
      "d": 1457.6908499998972,
      "v": 97
    },
    {
      "midi": 58,
      "hit": false,
      "t": 171687.32831249974,
      "d": 4.807687499996973,
      "v": 104
    },
    {
      "midi": 44,
      "hit": false,
      "t": 171692.13599999974,
      "d": 225.96131250000326,
      "v": 89
    },
    {
      "midi": 58,
      "hit": false,
      "t": 171692.13599999974,
      "d": 456.7303125000035,
      "v": 100
    },
    {
      "midi": 59,
      "hit": false,
      "t": 171692.13600000017,
      "d": 225.96131250000326,
      "v": 92
    },
    {
      "midi": 52,
      "hit": false,
      "t": 171692.13600000017,
      "d": 225.96131250000326,
      "v": 97
    },
    {
      "midi": 64,
      "hit": false,
      "t": 171916.1742374999,
      "d": 310.5766124999791,
      "v": 85
    },
    {
      "midi": 44,
      "hit": false,
      "t": 171922.90499999974,
      "d": 225.96131250000326,
      "v": 86
    },
    {
      "midi": 40,
      "hit": false,
      "t": 171922.90499999974,
      "d": 225.96131250000326,
      "v": 50
    },
    {
      "midi": 40,
      "hit": false,
      "t": 171922.90500000014,
      "d": 456.7303125000035,
      "v": 104
    },
    {
      "midi": 59,
      "hit": false,
      "t": 171922.90500000017,
      "d": 225.96131250000326,
      "v": 85
    },
    {
      "midi": 52,
      "hit": false,
      "t": 171922.90500000017,
      "d": 225.96131250000326,
      "v": 79
    },
    {
      "midi": 76,
      "hit": false,
      "t": 172141.17401249986,
      "d": 232.69207499999902,
      "v": 78
    },
    {
      "midi": 44,
      "hit": false,
      "t": 172153.67399999974,
      "d": 225.96131250000326,
      "v": 84
    },
    {
      "midi": 40,
      "hit": false,
      "t": 172153.67399999974,
      "d": 225.96131250000326,
      "v": 65
    },
    {
      "midi": 58,
      "hit": false,
      "t": 172153.67399999974,
      "d": 456.7303125000035,
      "v": 96
    },
    {
      "midi": 52,
      "hit": false,
      "t": 172153.67400000017,
      "d": 225.96131250000326,
      "v": 99
    },
    {
      "midi": 61,
      "hit": false,
      "t": 172153.67400000017,
      "d": 225.96131250000326,
      "v": 83
    },
    {
      "midi": 44,
      "hit": false,
      "t": 172384.44299999974,
      "d": 225.96131250000326,
      "v": 73
    },
    {
      "midi": 40,
      "hit": false,
      "t": 172384.44299999974,
      "d": 225.96131250000326,
      "v": 76
    },
    {
      "midi": 40,
      "hit": false,
      "t": 172384.44300000014,
      "d": 225.96131250000326,
      "v": 101
    },
    {
      "midi": 52,
      "hit": false,
      "t": 172384.44300000017,
      "d": 225.96131250000326,
      "v": 88
    },
    {
      "midi": 59,
      "hit": false,
      "t": 172384.44300000017,
      "d": 225.96131250000326,
      "v": 83
    },
    {
      "midi": 64,
      "hit": false,
      "t": 172387.32761249985,
      "d": 269.2305000000051,
      "v": 92
    },
    {
      "midi": 38,
      "hit": false,
      "t": 172615.21199999974,
      "d": 225.96131250000326,
      "v": 117
    },
    {
      "midi": 40,
      "hit": false,
      "t": 172615.21199999974,
      "d": 225.96131250000326,
      "v": 93
    },
    {
      "midi": 44,
      "hit": false,
      "t": 172615.21199999974,
      "d": 225.96131250000326,
      "v": 92
    },
    {
      "midi": 58,
      "hit": false,
      "t": 172615.21199999974,
      "d": 456.7303125000035,
      "v": 100
    },
    {
      "midi": 42,
      "hit": false,
      "t": 172615.21200000015,
      "d": 225.96131250000326,
      "v": 110
    },
    {
      "midi": 59,
      "hit": false,
      "t": 172615.21200000017,
      "d": 225.96131250000326,
      "v": 79
    },
    {
      "midi": 52,
      "hit": false,
      "t": 172615.21200000017,
      "d": 225.96131250000326,
      "v": 85
    },
    {
      "midi": 76,
      "hit": false,
      "t": 172630.59659999984,
      "d": 248.07667499998934,
      "v": 79
    },
    {
      "midi": 48,
      "hit": false,
      "t": 172845.98099999974,
      "d": 225.96131250000326,
      "v": 86
    },
    {
      "midi": 40,
      "hit": false,
      "t": 172845.98099999974,
      "d": 225.96131250000326,
      "v": 110
    },
    {
      "midi": 40,
      "hit": false,
      "t": 172845.98100000015,
      "d": 225.96131250000326,
      "v": 101
    },
    {
      "midi": 59,
      "hit": false,
      "t": 172845.98100000017,
      "d": 225.96131250000326,
      "v": 82
    },
    {
      "midi": 52,
      "hit": false,
      "t": 172845.98100000017,
      "d": 225.96131250000326,
      "v": 86
    },
    {
      "midi": 64,
      "hit": false,
      "t": 172863.28867499984,
      "d": 140.38447499999893,
      "v": 83
    },
    {
      "midi": 40,
      "hit": false,
      "t": 173076.74999999974,
      "d": 100.96143749999464,
      "v": 117
    },
    {
      "midi": 44,
      "hit": false,
      "t": 173076.74999999974,
      "d": 225.96131250000326,
      "v": 84
    },
    {
      "midi": 58,
      "hit": false,
      "t": 173076.74999999974,
      "d": 456.7303125000035,
      "v": 100
    },
    {
      "midi": 37,
      "hit": false,
      "t": 173076.75000000015,
      "d": 225.96131250000326,
      "v": 117
    },
    {
      "midi": 52,
      "hit": false,
      "t": 173076.75000000017,
      "d": 225.96131250000326,
      "v": 94
    },
    {
      "midi": 61,
      "hit": false,
      "t": 173076.75000000017,
      "d": 225.96131250000326,
      "v": 85
    },
    {
      "midi": 48,
      "hit": false,
      "t": 173307.51899999974,
      "d": 225.96131250000326,
      "v": 89
    },
    {
      "midi": 47,
      "hit": false,
      "t": 173307.51899999974,
      "d": 225.96131250000326,
      "v": 120
    },
    {
      "midi": 35,
      "hit": false,
      "t": 173307.51900000015,
      "d": 225.96131250000326,
      "v": 110
    },
    {
      "midi": 52,
      "hit": false,
      "t": 173307.51900000017,
      "d": 225.96131250000326,
      "v": 99
    },
    {
      "midi": 59,
      "hit": false,
      "t": 173307.51900000017,
      "d": 225.96131250000326,
      "v": 90
    },
    {
      "midi": 44,
      "hit": false,
      "t": 173538.28799999974,
      "d": 225.96131250000326,
      "v": 86
    },
    {
      "midi": 58,
      "hit": false,
      "t": 173538.28799999974,
      "d": 456.7303125000035,
      "v": 86
    },
    {
      "midi": 59,
      "hit": false,
      "t": 173538.28799999974,
      "d": 456.7303125000035,
      "v": 113
    },
    {
      "midi": 38,
      "hit": false,
      "t": 173538.28799999974,
      "d": 456.7303125000035,
      "v": 120
    },
    {
      "midi": 33,
      "hit": false,
      "t": 173538.28800000015,
      "d": 225.96131250000326,
      "v": 117
    },
    {
      "midi": 52,
      "hit": false,
      "t": 173538.28800000018,
      "d": 225.96131250000326,
      "v": 97
    },
    {
      "midi": 45,
      "hit": false,
      "t": 173538.28800000018,
      "d": 225.96131250000326,
      "v": 107
    },
    {
      "midi": 64,
      "hit": false,
      "t": 173766.17238749986,
      "d": 106.73066249999101,
      "v": 78
    },
    {
      "midi": 68,
      "hit": false,
      "t": 173766.17238749986,
      "d": 122.11526249998133,
      "v": 85
    },
    {
      "midi": 71,
      "hit": false,
      "t": 173767.13392499986,
      "d": 120.19218749998254,
      "v": 88
    },
    {
      "midi": 48,
      "hit": false,
      "t": 173769.05699999974,
      "d": 225.96131250000326,
      "v": 89
    },
    {
      "midi": 45,
      "hit": false,
      "t": 173769.05700000015,
      "d": 225.96131250000326,
      "v": 117
    },
    {
      "midi": 45,
      "hit": false,
      "t": 173769.05700000018,
      "d": 225.96131250000326,
      "v": 92
    },
    {
      "midi": 52,
      "hit": false,
      "t": 173769.05700000018,
      "d": 225.96131250000326,
      "v": 82
    },
    {
      "midi": 64,
      "hit": false,
      "t": 173986.36447499983,
      "d": 163.4613749999844,
      "v": 72
    },
    {
      "midi": 73,
      "hit": false,
      "t": 173988.28754999983,
      "d": 134.61525000000256,
      "v": 83
    },
    {
      "midi": 69,
      "hit": false,
      "t": 173989.24908749983,
      "d": 147.1152374999947,
      "v": 85
    },
    {
      "midi": 44,
      "hit": false,
      "t": 173999.82599999974,
      "d": 225.96131250000326,
      "v": 96
    },
    {
      "midi": 58,
      "hit": false,
      "t": 173999.82599999974,
      "d": 456.7303125000035,
      "v": 75
    },
    {
      "midi": 60,
      "hit": false,
      "t": 173999.82599999974,
      "d": 456.7303125000035,
      "v": 109
    },
    {
      "midi": 40,
      "hit": false,
      "t": 173999.82599999974,
      "d": 456.7303125000035,
      "v": 117
    },
    {
      "midi": 33,
      "hit": false,
      "t": 173999.82600000015,
      "d": 225.96131250000326,
      "v": 113
    },
    {
      "midi": 45,
      "hit": false,
      "t": 173999.82600000018,
      "d": 225.96131250000326,
      "v": 97
    },
    {
      "midi": 54,
      "hit": false,
      "t": 173999.82600000018,
      "d": 225.96131250000326,
      "v": 88
    },
    {
      "midi": 48,
      "hit": false,
      "t": 174230.59499999974,
      "d": 225.96131250000326,
      "v": 92
    },
    {
      "midi": 33,
      "hit": false,
      "t": 174230.59500000015,
      "d": 456.7303125000035,
      "v": 113
    },
    {
      "midi": 45,
      "hit": false,
      "t": 174230.59500000018,
      "d": 225.96131250000326,
      "v": 99
    },
    {
      "midi": 52,
      "hit": false,
      "t": 174230.59500000018,
      "d": 225.96131250000326,
      "v": 83
    },
    {
      "midi": 68,
      "hit": false,
      "t": 174260.4026624998,
      "d": 211.53824999995413,
      "v": 88
    },
    {
      "midi": 71,
      "hit": false,
      "t": 174261.3641999998,
      "d": 224.03823749994626,
      "v": 88
    },
    {
      "midi": 64,
      "hit": false,
      "t": 174263.2872749998,
      "d": 208.65363749995595,
      "v": 90
    },
    {
      "midi": 44,
      "hit": false,
      "t": 174461.36399999974,
      "d": 225.96131250000326,
      "v": 86
    },
    {
      "midi": 58,
      "hit": false,
      "t": 174461.36399999974,
      "d": 456.7303124999744,
      "v": 73
    },
    {
      "midi": 38,
      "hit": false,
      "t": 174461.36399999974,
      "d": 456.7303124999744,
      "v": 123
    },
    {
      "midi": 52,
      "hit": false,
      "t": 174461.36400000018,
      "d": 225.96131250000326,
      "v": 85
    },
    {
      "midi": 45,
      "hit": false,
      "t": 174461.36400000018,
      "d": 225.96131250000326,
      "v": 94
    },
    {
      "midi": 44,
      "hit": false,
      "t": 174692.13299999974,
      "d": 110.57681249998859,
      "v": 89
    },
    {
      "midi": 45,
      "hit": false,
      "t": 174692.13300000015,
      "d": 225.96131250000326,
      "v": 113
    },
    {
      "midi": 52,
      "hit": false,
      "t": 174692.13300000018,
      "d": 225.96131250000326,
      "v": 78
    },
    {
      "midi": 45,
      "hit": false,
      "t": 174692.13300000018,
      "d": 225.96131250000326,
      "v": 90
    },
    {
      "midi": 69,
      "hit": false,
      "t": 174705.59452499976,
      "d": 294.2304749999603,
      "v": 90
    },
    {
      "midi": 64,
      "hit": false,
      "t": 174705.59452499976,
      "d": 308.6535374999512,
      "v": 86
    },
    {
      "midi": 73,
      "hit": false,
      "t": 174722.90219999975,
      "d": 263.46127499997965,
      "v": 85
    },
    {
      "midi": 44,
      "hit": false,
      "t": 174807.51749999973,
      "d": 110.57681249998859,
      "v": 92
    },
    {
      "midi": 44,
      "hit": false,
      "t": 174922.9019999997,
      "d": 225.96131250000326,
      "v": 100
    },
    {
      "midi": 58,
      "hit": false,
      "t": 174922.9019999997,
      "d": 456.7303125000035,
      "v": 71
    },
    {
      "midi": 40,
      "hit": false,
      "t": 174922.9019999997,
      "d": 456.7303125000035,
      "v": 117
    },
    {
      "midi": 33,
      "hit": false,
      "t": 174922.90200000015,
      "d": 225.96131250000326,
      "v": 110
    },
    {
      "midi": 45,
      "hit": false,
      "t": 174922.90200000018,
      "d": 225.96131250000326,
      "v": 107
    },
    {
      "midi": 54,
      "hit": false,
      "t": 174922.90200000018,
      "d": 225.96131250000326,
      "v": 97
    },
    {
      "midi": 48,
      "hit": false,
      "t": 175153.6709999997,
      "d": 225.96131250000326,
      "v": 96
    },
    {
      "midi": 33,
      "hit": false,
      "t": 175153.67100000015,
      "d": 456.7303125000035,
      "v": 110
    },
    {
      "midi": 45,
      "hit": false,
      "t": 175153.67100000018,
      "d": 225.96131250000326,
      "v": 99
    },
    {
      "midi": 52,
      "hit": false,
      "t": 175153.67100000018,
      "d": 225.96131250000326,
      "v": 88
    },
    {
      "midi": 66,
      "hit": false,
      "t": 175183.47866249972,
      "d": 827.8837875000027,
      "v": 94
    },
    {
      "midi": 62,
      "hit": false,
      "t": 175186.36327499972,
      "d": 775.9607625000062,
      "v": 94
    },
    {
      "midi": 69,
      "hit": false,
      "t": 175186.36327499972,
      "d": 825.9607125000039,
      "v": 94
    },
    {
      "midi": 44,
      "hit": false,
      "t": 175384.4399999997,
      "d": 225.96131250000326,
      "v": 89
    },
    {
      "midi": 58,
      "hit": false,
      "t": 175384.4399999997,
      "d": 456.7303125000035,
      "v": 75
    },
    {
      "midi": 38,
      "hit": false,
      "t": 175384.4399999997,
      "d": 456.7303125000035,
      "v": 117
    },
    {
      "midi": 52,
      "hit": false,
      "t": 175384.44000000018,
      "d": 225.96131250000326,
      "v": 86
    },
    {
      "midi": 45,
      "hit": false,
      "t": 175384.44000000018,
      "d": 225.96131250000326,
      "v": 99
    },
    {
      "midi": 48,
      "hit": false,
      "t": 175615.2089999997,
      "d": 225.96131250000326,
      "v": 84
    },
    {
      "midi": 45,
      "hit": false,
      "t": 175615.20900000015,
      "d": 225.96131250000326,
      "v": 117
    },
    {
      "midi": 52,
      "hit": false,
      "t": 175615.20900000018,
      "d": 225.96131250000326,
      "v": 82
    },
    {
      "midi": 45,
      "hit": false,
      "t": 175615.20900000018,
      "d": 225.96131250000326,
      "v": 99
    },
    {
      "midi": 44,
      "hit": false,
      "t": 175845.9779999997,
      "d": 225.96131250000326,
      "v": 100
    },
    {
      "midi": 58,
      "hit": false,
      "t": 175845.9779999997,
      "d": 456.7303124999744,
      "v": 73
    },
    {
      "midi": 40,
      "hit": false,
      "t": 175845.9779999997,
      "d": 456.7303124999744,
      "v": 113
    },
    {
      "midi": 33,
      "hit": false,
      "t": 175845.97800000015,
      "d": 225.96131250000326,
      "v": 113
    },
    {
      "midi": 45,
      "hit": false,
      "t": 175845.97800000018,
      "d": 225.96131250000326,
      "v": 110
    },
    {
      "midi": 54,
      "hit": false,
      "t": 175845.97800000018,
      "d": 225.96131250000326,
      "v": 86
    },
    {
      "midi": 44,
      "hit": false,
      "t": 176076.7469999997,
      "d": 110.57681249998859,
      "v": 84
    },
    {
      "midi": 45,
      "hit": false,
      "t": 176076.74700000015,
      "d": 225.96131250000326,
      "v": 110
    },
    {
      "midi": 45,
      "hit": false,
      "t": 176076.74700000018,
      "d": 225.96131250000326,
      "v": 92
    },
    {
      "midi": 52,
      "hit": false,
      "t": 176076.74700000018,
      "d": 225.96131250000326,
      "v": 71
    },
    {
      "midi": 64,
      "hit": false,
      "t": 176099.82389999973,
      "d": 889.4221874999639,
      "v": 86
    },
    {
      "midi": 68,
      "hit": false,
      "t": 176114.24696249972,
      "d": 899.9990999999864,
      "v": 88
    },
    {
      "midi": 71,
      "hit": false,
      "t": 176115.20849999972,
      "d": 914.4221624999773,
      "v": 86
    },
    {
      "midi": 44,
      "hit": false,
      "t": 176192.1314999997,
      "d": 110.57681249998859,
      "v": 89
    },
    {
      "midi": 44,
      "hit": false,
      "t": 176307.51599999968,
      "d": 225.96131250000326,
      "v": 100
    },
    {
      "midi": 58,
      "hit": false,
      "t": 176307.51599999968,
      "d": 456.7303125000035,
      "v": 75
    },
    {
      "midi": 38,
      "hit": false,
      "t": 176307.51599999968,
      "d": 456.7303125000035,
      "v": 113
    },
    {
      "midi": 30,
      "hit": false,
      "t": 176307.51600000015,
      "d": 225.96131250000326,
      "v": 117
    },
    {
      "midi": 52,
      "hit": false,
      "t": 176307.51600000018,
      "d": 225.96131250000326,
      "v": 90
    },
    {
      "midi": 45,
      "hit": false,
      "t": 176307.51600000018,
      "d": 225.96131250000326,
      "v": 101
    },
    {
      "midi": 48,
      "hit": false,
      "t": 176538.28499999968,
      "d": 225.96131250000326,
      "v": 84
    },
    {
      "midi": 30,
      "hit": false,
      "t": 176538.28500000015,
      "d": 456.7303125000035,
      "v": 120
    },
    {
      "midi": 52,
      "hit": false,
      "t": 176538.28500000018,
      "d": 225.96131250000326,
      "v": 80
    },
    {
      "midi": 45,
      "hit": false,
      "t": 176538.28500000018,
      "d": 225.96131250000326,
      "v": 90
    },
    {
      "midi": 44,
      "hit": false,
      "t": 176769.05399999968,
      "d": 225.96131250000326,
      "v": 104
    },
    {
      "midi": 58,
      "hit": false,
      "t": 176769.05399999968,
      "d": 456.7303125000035,
      "v": 71
    },
    {
      "midi": 40,
      "hit": false,
      "t": 176769.05399999968,
      "d": 456.7303125000035,
      "v": 120
    },
    {
      "midi": 54,
      "hit": false,
      "t": 176769.05400000018,
      "d": 225.96131250000326,
      "v": 94
    },
    {
      "midi": 45,
      "hit": false,
      "t": 176769.05400000018,
      "d": 225.96131250000326,
      "v": 107
    },
    {
      "midi": 48,
      "hit": false,
      "t": 176999.82299999968,
      "d": 225.96131250000326,
      "v": 96
    },
    {
      "midi": 33,
      "hit": false,
      "t": 176999.82300000015,
      "d": 456.7303125000035,
      "v": 113
    },
    {
      "midi": 45,
      "hit": false,
      "t": 176999.82300000018,
      "d": 225.96131250000326,
      "v": 92
    },
    {
      "midi": 52,
      "hit": false,
      "t": 176999.82300000018,
      "d": 225.96131250000326,
      "v": 79
    },
    {
      "midi": 44,
      "hit": false,
      "t": 177230.59199999968,
      "d": 225.96131250000326,
      "v": 89
    },
    {
      "midi": 58,
      "hit": false,
      "t": 177230.59199999968,
      "d": 456.7303125000035,
      "v": 69
    },
    {
      "midi": 38,
      "hit": false,
      "t": 177230.59199999968,
      "d": 456.7303125000035,
      "v": 117
    },
    {
      "midi": 45,
      "hit": false,
      "t": 177230.59200000018,
      "d": 225.96131250000326,
      "v": 101
    },
    {
      "midi": 52,
      "hit": false,
      "t": 177230.59200000018,
      "d": 225.96131250000326,
      "v": 92
    },
    {
      "midi": 69,
      "hit": false,
      "t": 177234.43814999968,
      "d": 133.65371250000317,
      "v": 92
    },
    {
      "midi": 64,
      "hit": false,
      "t": 177235.39968749968,
      "d": 131.73063750000438,
      "v": 97
    },
    {
      "midi": 73,
      "hit": false,
      "t": 177236.36122499968,
      "d": 129.8075625000056,
      "v": 88
    },
    {
      "midi": 48,
      "hit": false,
      "t": 177461.36099999968,
      "d": 225.96131250000326,
      "v": 84
    },
    {
      "midi": 45,
      "hit": false,
      "t": 177461.36100000015,
      "d": 225.96131250000326,
      "v": 117
    },
    {
      "midi": 45,
      "hit": false,
      "t": 177461.36100000018,
      "d": 225.96131250000326,
      "v": 97
    },
    {
      "midi": 52,
      "hit": false,
      "t": 177461.36100000018,
      "d": 225.96131250000326,
      "v": 85
    },
    {
      "midi": 68,
      "hit": false,
      "t": 177466.16868749968,
      "d": 113.46142500001588,
      "v": 82
    },
    {
      "midi": 64,
      "hit": false,
      "t": 177469.05329999968,
      "d": 108.6537375000189,
      "v": 76
    },
    {
      "midi": 71,
      "hit": false,
      "t": 177470.01483749968,
      "d": 108.6537375000189,
      "v": 88
    },
    {
      "midi": 64,
      "hit": false,
      "t": 177690.2069249997,
      "d": 140.38447499999893,
      "v": 80
    },
    {
      "midi": 44,
      "hit": false,
      "t": 177692.12999999968,
      "d": 225.96131250000326,
      "v": 100
    },
    {
      "midi": 58,
      "hit": false,
      "t": 177692.12999999968,
      "d": 456.7303124999744,
      "v": 66
    },
    {
      "midi": 40,
      "hit": false,
      "t": 177692.12999999968,
      "d": 456.7303124999744,
      "v": 113
    },
    {
      "midi": 33,
      "hit": false,
      "t": 177692.13000000015,
      "d": 225.96131250000326,
      "v": 113
    },
    {
      "midi": 54,
      "hit": false,
      "t": 177692.13000000018,
      "d": 225.96131250000326,
      "v": 94
    },
    {
      "midi": 45,
      "hit": false,
      "t": 177692.13000000018,
      "d": 225.96131250000326,
      "v": 110
    },
    {
      "midi": 73,
      "hit": false,
      "t": 177707.51459999967,
      "d": 109.6152750000183,
      "v": 86
    },
    {
      "midi": 69,
      "hit": false,
      "t": 177707.51459999967,
      "d": 110.5768125000177,
      "v": 86
    },
    {
      "midi": 44,
      "hit": false,
      "t": 177922.89899999968,
      "d": 110.57681249998859,
      "v": 84
    },
    {
      "midi": 33,
      "hit": false,
      "t": 177922.89900000015,
      "d": 456.7303125000035,
      "v": 113
    },
    {
      "midi": 45,
      "hit": false,
      "t": 177922.89900000018,
      "d": 225.96131250000326,
      "v": 83
    },
    {
      "midi": 52,
      "hit": false,
      "t": 177922.89900000018,
      "d": 225.96131250000326,
      "v": 82
    },
    {
      "midi": 68,
      "hit": false,
      "t": 177929.62976249968,
      "d": 271.1535749999748,
      "v": 90
    },
    {
      "midi": 64,
      "hit": false,
      "t": 177930.59129999968,
      "d": 256.7305124999839,
      "v": 85
    },
    {
      "midi": 71,
      "hit": false,
      "t": 177931.55283749968,
      "d": 270.1920374999754,
      "v": 90
    },
    {
      "midi": 44,
      "hit": false,
      "t": 178038.28349999967,
      "d": 110.57681249998859,
      "v": 89
    },
    {
      "midi": 44,
      "hit": false,
      "t": 178153.66799999966,
      "d": 225.96131250000326,
      "v": 100
    },
    {
      "midi": 58,
      "hit": false,
      "t": 178153.66799999966,
      "d": 456.7303125000035,
      "v": 63
    },
    {
      "midi": 38,
      "hit": false,
      "t": 178153.66799999966,
      "d": 456.7303125000035,
      "v": 113
    },
    {
      "midi": 52,
      "hit": false,
      "t": 178153.66800000018,
      "d": 225.96131250000326,
      "v": 90
    },
    {
      "midi": 45,
      "hit": false,
      "t": 178153.66800000018,
      "d": 225.96131250000326,
      "v": 107
    },
    {
      "midi": 48,
      "hit": false,
      "t": 178384.43699999966,
      "d": 225.96131250000326,
      "v": 84
    },
    {
      "midi": 45,
      "hit": false,
      "t": 178384.43700000015,
      "d": 225.96131250000326,
      "v": 113
    },
    {
      "midi": 52,
      "hit": false,
      "t": 178384.43700000018,
      "d": 225.96131250000326,
      "v": 80
    },
    {
      "midi": 45,
      "hit": false,
      "t": 178384.43700000018,
      "d": 225.96131250000326,
      "v": 90
    },
    {
      "midi": 69,
      "hit": false,
      "t": 178395.97544999965,
      "d": 294.2304749999603,
      "v": 92
    },
    {
      "midi": 64,
      "hit": false,
      "t": 178396.93698749965,
      "d": 305.768924999953,
      "v": 94
    },
    {
      "midi": 73,
      "hit": false,
      "t": 178398.86006249965,
      "d": 278.84587499996996,
      "v": 86
    },
    {
      "midi": 44,
      "hit": false,
      "t": 178615.20599999966,
      "d": 225.96131250000326,
      "v": 104
    },
    {
      "midi": 58,
      "hit": false,
      "t": 178615.20599999966,
      "d": 456.7303125000035,
      "v": 75
    },
    {
      "midi": 40,
      "hit": false,
      "t": 178615.20599999966,
      "d": 456.7303125000035,
      "v": 120
    },
    {
      "midi": 33,
      "hit": false,
      "t": 178615.20600000015,
      "d": 225.96131250000326,
      "v": 110
    },
    {
      "midi": 54,
      "hit": false,
      "t": 178615.20600000018,
      "d": 225.96131250000326,
      "v": 88
    },
    {
      "midi": 45,
      "hit": false,
      "t": 178615.20600000018,
      "d": 225.96131250000326,
      "v": 107
    },
    {
      "midi": 48,
      "hit": false,
      "t": 178845.97499999966,
      "d": 225.96131250000326,
      "v": 96
    },
    {
      "midi": 33,
      "hit": false,
      "t": 178845.97500000015,
      "d": 456.7303125000035,
      "v": 110
    },
    {
      "midi": 45,
      "hit": false,
      "t": 178845.97500000018,
      "d": 225.96131250000326,
      "v": 90
    },
    {
      "midi": 52,
      "hit": false,
      "t": 178845.97500000018,
      "d": 225.96131250000326,
      "v": 74
    },
    {
      "midi": 66,
      "hit": false,
      "t": 178885.3980374996,
      "d": 680.7685499999498,
      "v": 99
    },
    {
      "midi": 62,
      "hit": false,
      "t": 178886.3595749996,
      "d": 619.2301499999594,
      "v": 97
    },
    {
      "midi": 69,
      "hit": false,
      "t": 178886.3595749996,
      "d": 704.8069874999637,
      "v": 94
    },
    {
      "midi": 44,
      "hit": false,
      "t": 179076.74399999966,
      "d": 225.96131250000326,
      "v": 89
    },
    {
      "midi": 58,
      "hit": false,
      "t": 179076.74399999966,
      "d": 456.7303125000035,
      "v": 77
    },
    {
      "midi": 38,
      "hit": false,
      "t": 179076.74399999966,
      "d": 456.7303125000035,
      "v": 117
    },
    {
      "midi": 52,
      "hit": false,
      "t": 179076.74400000018,
      "d": 225.96131250000326,
      "v": 88
    },
    {
      "midi": 45,
      "hit": false,
      "t": 179076.74400000018,
      "d": 225.96131250000326,
      "v": 99
    },
    {
      "midi": 48,
      "hit": false,
      "t": 179307.51299999966,
      "d": 225.96131250000326,
      "v": 84
    },
    {
      "midi": 45,
      "hit": false,
      "t": 179307.51300000015,
      "d": 225.96131250000326,
      "v": 117
    },
    {
      "midi": 52,
      "hit": false,
      "t": 179307.51300000018,
      "d": 225.96131250000326,
      "v": 82
    },
    {
      "midi": 45,
      "hit": false,
      "t": 179307.51300000018,
      "d": 225.96131250000326,
      "v": 90
    },
    {
      "midi": 74,
      "hit": false,
      "t": 179454.62823749956,
      "d": 306.7304625000106,
      "v": 86
    },
    {
      "midi": 44,
      "hit": false,
      "t": 179538.28199999966,
      "d": 225.96131250000326,
      "v": 100
    },
    {
      "midi": 58,
      "hit": false,
      "t": 179538.28199999966,
      "d": 456.7303124999744,
      "v": 64
    },
    {
      "midi": 40,
      "hit": false,
      "t": 179538.28199999966,
      "d": 456.7303124999744,
      "v": 113
    },
    {
      "midi": 33,
      "hit": false,
      "t": 179538.28200000015,
      "d": 225.96131250000326,
      "v": 113
    },
    {
      "midi": 45,
      "hit": false,
      "t": 179538.28200000018,
      "d": 225.96131250000326,
      "v": 94
    },
    {
      "midi": 54,
      "hit": false,
      "t": 179538.28200000018,
      "d": 225.96131250000326,
      "v": 90
    },
    {
      "midi": 44,
      "hit": false,
      "t": 179769.05099999966,
      "d": 110.57681249998859,
      "v": 84
    },
    {
      "midi": 45,
      "hit": false,
      "t": 179769.05100000015,
      "d": 225.96131250000326,
      "v": 110
    },
    {
      "midi": 45,
      "hit": false,
      "t": 179769.05100000018,
      "d": 225.96131250000326,
      "v": 97
    },
    {
      "midi": 52,
      "hit": false,
      "t": 179769.05100000018,
      "d": 225.96131250000326,
      "v": 88
    },
    {
      "midi": 64,
      "hit": false,
      "t": 179774.82022499957,
      "d": 939.4221374999324,
      "v": 101
    },
    {
      "midi": 44,
      "hit": false,
      "t": 179884.43549999964,
      "d": 110.57681249998859,
      "v": 89
    },
    {
      "midi": 44,
      "hit": false,
      "t": 179999.81999999963,
      "d": 225.96131250000326,
      "v": 100
    },
    {
      "midi": 58,
      "hit": false,
      "t": 179999.81999999963,
      "d": 456.7303125000035,
      "v": 84
    },
    {
      "midi": 38,
      "hit": false,
      "t": 179999.81999999963,
      "d": 456.7303125000035,
      "v": 113
    },
    {
      "midi": 30,
      "hit": false,
      "t": 179999.82000000015,
      "d": 225.96131250000326,
      "v": 117
    },
    {
      "midi": 52,
      "hit": false,
      "t": 179999.82000000018,
      "d": 225.96131250000326,
      "v": 85
    },
    {
      "midi": 45,
      "hit": false,
      "t": 179999.82000000018,
      "d": 225.96131250000326,
      "v": 97
    },
    {
      "midi": 48,
      "hit": false,
      "t": 180230.58899999963,
      "d": 225.96131250000326,
      "v": 84
    },
    {
      "midi": 30,
      "hit": false,
      "t": 180230.58900000015,
      "d": 456.7303125000035,
      "v": 120
    },
    {
      "midi": 52,
      "hit": false,
      "t": 180230.58900000018,
      "d": 225.96131250000326,
      "v": 76
    },
    {
      "midi": 45,
      "hit": false,
      "t": 180230.58900000018,
      "d": 225.96131250000326,
      "v": 92
    },
    {
      "midi": 68,
      "hit": false,
      "t": 180249.8197499995,
      "d": 463.46107499999925,
      "v": 86
    },
    {
      "midi": 44,
      "hit": false,
      "t": 180461.35799999963,
      "d": 225.96131250000326,
      "v": 104
    },
    {
      "midi": 58,
      "hit": false,
      "t": 180461.35799999963,
      "d": 456.7303125000035,
      "v": 69
    },
    {
      "midi": 40,
      "hit": false,
      "t": 180461.35799999963,
      "d": 456.7303125000035,
      "v": 120
    },
    {
      "midi": 54,
      "hit": false,
      "t": 180461.35800000018,
      "d": 225.96131250000326,
      "v": 92
    },
    {
      "midi": 45,
      "hit": false,
      "t": 180461.35800000018,
      "d": 225.96131250000326,
      "v": 104
    },
    {
      "midi": 71,
      "hit": false,
      "t": 180481.5502874995,
      "d": 257.6920500000124,
      "v": 85
    },
    {
      "midi": 48,
      "hit": false,
      "t": 180692.12699999963,
      "d": 225.96131250000326,
      "v": 96
    },
    {
      "midi": 33,
      "hit": false,
      "t": 180692.12700000015,
      "d": 456.7303125000035,
      "v": 117
    },
    {
      "midi": 45,
      "hit": false,
      "t": 180692.12700000018,
      "d": 225.96131250000326,
      "v": 99
    },
    {
      "midi": 52,
      "hit": false,
      "t": 180692.12700000018,
      "d": 225.96131250000326,
      "v": 92
    },
    {
      "midi": 44,
      "hit": false,
      "t": 180922.89599999963,
      "d": 225.96131250000326,
      "v": 89
    },
    {
      "midi": 58,
      "hit": false,
      "t": 180922.89599999963,
      "d": 456.7303125000035,
      "v": 75
    },
    {
      "midi": 38,
      "hit": false,
      "t": 180922.89599999963,
      "d": 456.7303125000035,
      "v": 117
    },
    {
      "midi": 52,
      "hit": false,
      "t": 180922.89600000018,
      "d": 225.96131250000326,
      "v": 86
    },
    {
      "midi": 45,
      "hit": false,
      "t": 180922.89600000018,
      "d": 225.96131250000326,
      "v": 99
    },
    {
      "midi": 64,
      "hit": false,
      "t": 180933.4729124995,
      "d": 157.69215000001714,
      "v": 90
    },
    {
      "midi": 69,
      "hit": false,
      "t": 180934.4344499995,
      "d": 117.30757500001346,
      "v": 94
    },
    {
      "midi": 73,
      "hit": false,
      "t": 180934.4344499995,
      "d": 118.26911250001285,
      "v": 90
    },
    {
      "midi": 64,
      "hit": false,
      "t": 181153.6649999995,
      "d": 95.19221249999828,
      "v": 69
    },
    {
      "midi": 48,
      "hit": false,
      "t": 181153.66499999963,
      "d": 225.96131250000326,
      "v": 84
    },
    {
      "midi": 45,
      "hit": false,
      "t": 181153.66500000015,
      "d": 225.96131250000326,
      "v": 117
    },
    {
      "midi": 45,
      "hit": false,
      "t": 181153.66500000018,
      "d": 225.96131250000326,
      "v": 86
    },
    {
      "midi": 52,
      "hit": false,
      "t": 181153.66500000018,
      "d": 225.96131250000326,
      "v": 75
    },
    {
      "midi": 68,
      "hit": false,
      "t": 181154.6265374995,
      "d": 107.69219999999041,
      "v": 85
    },
    {
      "midi": 71,
      "hit": false,
      "t": 181172.8957499995,
      "d": 88.46145000000251,
      "v": 88
    },
    {
      "midi": 64,
      "hit": false,
      "t": 181373.8570874995,
      "d": 148.0767749999941,
      "v": 82
    },
    {
      "midi": 44,
      "hit": false,
      "t": 181384.43399999963,
      "d": 225.96131250000326,
      "v": 100
    },
    {
      "midi": 58,
      "hit": false,
      "t": 181384.43399999963,
      "d": 456.7303124999744,
      "v": 79
    },
    {
      "midi": 40,
      "hit": false,
      "t": 181384.43399999963,
      "d": 456.7303124999744,
      "v": 113
    },
    {
      "midi": 33,
      "hit": false,
      "t": 181384.43400000015,
      "d": 225.96131250000326,
      "v": 113
    },
    {
      "midi": 45,
      "hit": false,
      "t": 181384.43400000018,
      "d": 225.96131250000326,
      "v": 97
    },
    {
      "midi": 54,
      "hit": false,
      "t": 181384.43400000018,
      "d": 225.96131250000326,
      "v": 90
    },
    {
      "midi": 69,
      "hit": false,
      "t": 181389.24168749948,
      "d": 117.30757500001346,
      "v": 90
    },
    {
      "midi": 73,
      "hit": false,
      "t": 181390.20322499948,
      "d": 117.30757500001346,
      "v": 86
    },
    {
      "midi": 44,
      "hit": false,
      "t": 181615.20299999963,
      "d": 110.57681249998859,
      "v": 84
    },
    {
      "midi": 33,
      "hit": false,
      "t": 181615.20300000015,
      "d": 456.7303125000035,
      "v": 113
    },
    {
      "midi": 45,
      "hit": false,
      "t": 181615.20300000018,
      "d": 225.96131250000326,
      "v": 94
    },
    {
      "midi": 52,
      "hit": false,
      "t": 181615.20300000018,
      "d": 225.96131250000326,
      "v": 79
    },
    {
      "midi": 68,
      "hit": false,
      "t": 181633.47221249947,
      "d": 216.3459374999802,
      "v": 88
    },
    {
      "midi": 71,
      "hit": false,
      "t": 181634.43374999947,
      "d": 200.9613374999899,
      "v": 88
    },
    {
      "midi": 64,
      "hit": false,
      "t": 181650.77988749946,
      "d": 199.0382624999911,
      "v": 83
    },
    {
      "midi": 44,
      "hit": false,
      "t": 181730.58749999962,
      "d": 110.57681249998859,
      "v": 89
    },
    {
      "midi": 44,
      "hit": false,
      "t": 181845.9719999996,
      "d": 225.96131250000326,
      "v": 100
    },
    {
      "midi": 58,
      "hit": false,
      "t": 181845.9719999996,
      "d": 456.7303125000035,
      "v": 68
    },
    {
      "midi": 38,
      "hit": false,
      "t": 181845.9719999996,
      "d": 456.7303125000035,
      "v": 113
    },
    {
      "midi": 52,
      "hit": false,
      "t": 181845.97200000018,
      "d": 225.96131250000326,
      "v": 83
    },
    {
      "midi": 45,
      "hit": false,
      "t": 181845.97200000018,
      "d": 225.96131250000326,
      "v": 94
    },
    {
      "midi": 48,
      "hit": false,
      "t": 182076.7409999996,
      "d": 225.96131250000326,
      "v": 84
    },
    {
      "midi": 45,
      "hit": false,
      "t": 182076.74100000015,
      "d": 225.96131250000326,
      "v": 113
    },
    {
      "midi": 45,
      "hit": false,
      "t": 182076.74100000018,
      "d": 225.96131250000326,
      "v": 92
    },
    {
      "midi": 52,
      "hit": false,
      "t": 182076.74100000018,
      "d": 225.96131250000326,
      "v": 76
    },
    {
      "midi": 69,
      "hit": false,
      "t": 182105.58712499944,
      "d": 244.23052499996265,
      "v": 97
    },
    {
      "midi": 64,
      "hit": false,
      "t": 182105.58712499944,
      "d": 257.6920499999542,
      "v": 92
    },
    {
      "midi": 73,
      "hit": false,
      "t": 182106.54866249944,
      "d": 228.84592499997234,
      "v": 90
    },
    {
      "midi": 44,
      "hit": false,
      "t": 182307.5099999996,
      "d": 225.96131250000326,
      "v": 104
    },
    {
      "midi": 58,
      "hit": false,
      "t": 182307.5099999996,
      "d": 456.7303125000035,
      "v": 62
    },
    {
      "midi": 40,
      "hit": false,
      "t": 182307.5099999996,
      "d": 456.7303125000035,
      "v": 120
    },
    {
      "midi": 33,
      "hit": false,
      "t": 182307.51000000015,
      "d": 225.96131250000326,
      "v": 110
    },
    {
      "midi": 45,
      "hit": false,
      "t": 182307.51000000018,
      "d": 225.96131250000326,
      "v": 99
    },
    {
      "midi": 54,
      "hit": false,
      "t": 182307.51000000018,
      "d": 225.96131250000326,
      "v": 86
    },
    {
      "midi": 48,
      "hit": false,
      "t": 182538.2789999996,
      "d": 225.96131250000326,
      "v": 96
    },
    {
      "midi": 33,
      "hit": false,
      "t": 182538.27900000016,
      "d": 456.7303125000035,
      "v": 110
    },
    {
      "midi": 52,
      "hit": false,
      "t": 182538.27900000018,
      "d": 225.96131250000326,
      "v": 86
    },
    {
      "midi": 45,
      "hit": false,
      "t": 182538.27900000018,
      "d": 225.96131250000326,
      "v": 97
    },
    {
      "midi": 62,
      "hit": false,
      "t": 182568.08666249938,
      "d": 726.9223499999789,
      "v": 92
    },
    {
      "midi": 66,
      "hit": false,
      "t": 182569.04819999938,
      "d": 763.460774999985,
      "v": 94
    },
    {
      "midi": 69,
      "hit": false,
      "t": 182586.35587499937,
      "d": 759.6146249999874,
      "v": 88
    },
    {
      "midi": 44,
      "hit": false,
      "t": 182769.0479999996,
      "d": 225.96131250000326,
      "v": 89
    },
    {
      "midi": 58,
      "hit": false,
      "t": 182769.0479999996,
      "d": 456.7303125000035,
      "v": 62
    },
    {
      "midi": 38,
      "hit": false,
      "t": 182769.0479999996,
      "d": 456.7303125000035,
      "v": 117
    },
    {
      "midi": 52,
      "hit": false,
      "t": 182769.04800000018,
      "d": 225.96131250000326,
      "v": 90
    },
    {
      "midi": 45,
      "hit": false,
      "t": 182769.04800000018,
      "d": 225.96131250000326,
      "v": 107
    },
    {
      "midi": 48,
      "hit": false,
      "t": 182999.8169999996,
      "d": 225.96131250000326,
      "v": 84
    },
    {
      "midi": 45,
      "hit": false,
      "t": 182999.81700000016,
      "d": 225.96131250000326,
      "v": 117
    },
    {
      "midi": 52,
      "hit": false,
      "t": 182999.81700000018,
      "d": 225.96131250000326,
      "v": 73
    },
    {
      "midi": 45,
      "hit": false,
      "t": 182999.81700000018,
      "d": 225.96131250000326,
      "v": 82
    },
    {
      "midi": 44,
      "hit": false,
      "t": 183230.5859999996,
      "d": 225.96131250000326,
      "v": 100
    },
    {
      "midi": 58,
      "hit": false,
      "t": 183230.5859999996,
      "d": 456.7303124999744,
      "v": 71
    },
    {
      "midi": 40,
      "hit": false,
      "t": 183230.5859999996,
      "d": 456.7303124999744,
      "v": 113
    },
    {
      "midi": 33,
      "hit": false,
      "t": 183230.58600000016,
      "d": 225.96131250000326,
      "v": 113
    },
    {
      "midi": 54,
      "hit": false,
      "t": 183230.58600000018,
      "d": 225.96131250000326,
      "v": 85
    },
    {
      "midi": 45,
      "hit": false,
      "t": 183230.58600000018,
      "d": 225.96131250000326,
      "v": 97
    },
    {
      "midi": 44,
      "hit": false,
      "t": 183461.3549999996,
      "d": 110.57681249998859,
      "v": 84
    },
    {
      "midi": 45,
      "hit": false,
      "t": 183461.35500000016,
      "d": 225.96131250000326,
      "v": 110
    },
    {
      "midi": 45,
      "hit": false,
      "t": 183461.35500000019,
      "d": 225.96131250000326,
      "v": 97
    },
    {
      "midi": 52,
      "hit": false,
      "t": 183461.35500000019,
      "d": 225.96131250000326,
      "v": 80
    },
    {
      "midi": 64,
      "hit": false,
      "t": 183478.66267499936,
      "d": 268.2689624999766,
      "v": 94
    },
    {
      "midi": 68,
      "hit": false,
      "t": 183479.62421249936,
      "d": 817.3068749999802,
      "v": 92
    },
    {
      "midi": 71,
      "hit": false,
      "t": 183497.89342499935,
      "d": 824.9991749999754,
      "v": 90
    },
    {
      "midi": 44,
      "hit": false,
      "t": 183576.7394999996,
      "d": 110.57681249998859,
      "v": 89
    },
    {
      "midi": 44,
      "hit": false,
      "t": 183692.12399999957,
      "d": 225.96131250000326,
      "v": 100
    },
    {
      "midi": 58,
      "hit": false,
      "t": 183692.12399999957,
      "d": 456.7303125000035,
      "v": 69
    },
    {
      "midi": 38,
      "hit": false,
      "t": 183692.12399999957,
      "d": 456.7303125000035,
      "v": 113
    },
    {
      "midi": 45,
      "hit": false,
      "t": 183692.12400000016,
      "d": 225.96131250000326,
      "v": 113
    },
    {
      "midi": 52,
      "hit": false,
      "t": 183692.12400000019,
      "d": 225.96131250000326,
      "v": 82
    },
    {
      "midi": 45,
      "hit": false,
      "t": 183692.12400000019,
      "d": 225.96131250000326,
      "v": 99
    },
    {
      "midi": 64,
      "hit": false,
      "t": 183917.12377499935,
      "d": 293.26893749999,
      "v": 92
    },
    {
      "midi": 48,
      "hit": false,
      "t": 183922.89299999957,
      "d": 225.96131250000326,
      "v": 84
    },
    {
      "midi": 45,
      "hit": false,
      "t": 183922.89300000016,
      "d": 225.96131250000326,
      "v": 120
    },
    {
      "midi": 45,
      "hit": false,
      "t": 183922.8930000002,
      "d": 225.96131250000326,
      "v": 97
    },
    {
      "midi": 52,
      "hit": false,
      "t": 183922.8930000002,
      "d": 225.96131250000326,
      "v": 88
    },
    {
      "midi": 44,
      "hit": false,
      "t": 184153.66199999957,
      "d": 225.96131250000326,
      "v": 104
    },
    {
      "midi": 58,
      "hit": false,
      "t": 184153.66199999957,
      "d": 456.7303125000035,
      "v": 77
    },
    {
      "midi": 40,
      "hit": false,
      "t": 184153.66199999957,
      "d": 456.7303125000035,
      "v": 120
    },
    {
      "midi": 37,
      "hit": false,
      "t": 184153.66200000016,
      "d": 225.96131250000326,
      "v": 107
    },
    {
      "midi": 45,
      "hit": false,
      "t": 184153.6620000002,
      "d": 225.96131250000326,
      "v": 107
    },
    {
      "midi": 54,
      "hit": false,
      "t": 184153.6620000002,
      "d": 225.96131250000326,
      "v": 94
    },
    {
      "midi": 76,
      "hit": false,
      "t": 184158.46968749934,
      "d": 151.92292499999166,
      "v": 85
    },
    {
      "midi": 48,
      "hit": false,
      "t": 184384.43099999957,
      "d": 225.96131250000326,
      "v": 96
    },
    {
      "midi": 38,
      "hit": false,
      "t": 184384.43100000016,
      "d": 225.96131250000326,
      "v": 113
    },
    {
      "midi": 52,
      "hit": false,
      "t": 184384.4310000002,
      "d": 225.96131250000326,
      "v": 97
    },
    {
      "midi": 45,
      "hit": false,
      "t": 184384.4310000002,
      "d": 225.96131250000326,
      "v": 107
    },
    {
      "midi": 44,
      "hit": false,
      "t": 184615.19999999958,
      "d": 225.96131250000326,
      "v": 89
    },
    {
      "midi": 58,
      "hit": false,
      "t": 184615.19999999958,
      "d": 456.7303125000035,
      "v": 84
    },
    {
      "midi": 38,
      "hit": false,
      "t": 184615.19999999958,
      "d": 456.7303125000035,
      "v": 117
    },
    {
      "midi": 40,
      "hit": false,
      "t": 184615.20000000016,
      "d": 687.4993125000037,
      "v": 113
    },
    {
      "midi": 50,
      "hit": false,
      "t": 184615.2000000002,
      "d": 225.96131250000326,
      "v": 104
    },
    {
      "midi": 57,
      "hit": false,
      "t": 184615.2000000002,
      "d": 225.96131250000326,
      "v": 92
    },
    {
      "midi": 62,
      "hit": false,
      "t": 184625.77691249934,
      "d": 1000.9605374999519,
      "v": 97
    },
    {
      "midi": 66,
      "hit": false,
      "t": 184626.73844999933,
      "d": 1120.1911874999641,
      "v": 104
    },
    {
      "midi": 69,
      "hit": false,
      "t": 184627.69998749933,
      "d": 1234.6141499999503,
      "v": 97
    },
    {
      "midi": 48,
      "hit": false,
      "t": 184845.96899999958,
      "d": 225.96131250000326,
      "v": 84
    },
    {
      "midi": 50,
      "hit": false,
      "t": 184845.9690000002,
      "d": 225.96131250000326,
      "v": 85
    },
    {
      "midi": 57,
      "hit": false,
      "t": 184845.9690000002,
      "d": 225.96131250000326,
      "v": 80
    },
    {
      "midi": 44,
      "hit": false,
      "t": 185076.73799999958,
      "d": 225.96131250000326,
      "v": 100
    },
    {
      "midi": 58,
      "hit": false,
      "t": 185076.73799999958,
      "d": 456.7303124999744,
      "v": 75
    },
    {
      "midi": 40,
      "hit": false,
      "t": 185076.73799999958,
      "d": 456.7303124999744,
      "v": 113
    },
    {
      "midi": 59,
      "hit": false,
      "t": 185076.7380000002,
      "d": 225.96131250000326,
      "v": 83
    },
    {
      "midi": 50,
      "hit": false,
      "t": 185076.7380000002,
      "d": 225.96131250000326,
      "v": 97
    },
    {
      "midi": 44,
      "hit": false,
      "t": 185307.50699999958,
      "d": 110.57681249998859,
      "v": 84
    },
    {
      "midi": 40,
      "hit": false,
      "t": 185307.50700000016,
      "d": 225.96131250000326,
      "v": 117
    },
    {
      "midi": 50,
      "hit": false,
      "t": 185307.5070000002,
      "d": 225.96131250000326,
      "v": 94
    },
    {
      "midi": 57,
      "hit": false,
      "t": 185307.5070000002,
      "d": 225.96131250000326,
      "v": 74
    },
    {
      "midi": 44,
      "hit": false,
      "t": 185422.89149999956,
      "d": 110.57681249998859,
      "v": 89
    },
    {
      "midi": 40,
      "hit": false,
      "t": 185538.27599999955,
      "d": 225.96131250000326,
      "v": 104
    },
    {
      "midi": 44,
      "hit": false,
      "t": 185538.27599999955,
      "d": 225.96131250000326,
      "v": 100
    },
    {
      "midi": 38,
      "hit": false,
      "t": 185538.27599999955,
      "d": 456.7303125000035,
      "v": 113
    },
    {
      "midi": 58,
      "hit": false,
      "t": 185538.27599999955,
      "d": 456.7303125000035,
      "v": 79
    },
    {
      "midi": 47,
      "hit": false,
      "t": 185538.27600000016,
      "d": 225.96131250000326,
      "v": 99
    },
    {
      "midi": 57,
      "hit": false,
      "t": 185538.2760000002,
      "d": 225.96131250000326,
      "v": 83
    },
    {
      "midi": 50,
      "hit": false,
      "t": 185538.2760000002,
      "d": 225.96131250000326,
      "v": 94
    },
    {
      "midi": 74,
      "hit": false,
      "t": 185562.3144374993,
      "d": 486.5379749999847,
      "v": 76
    },
    {
      "midi": 40,
      "hit": false,
      "t": 185769.04499999955,
      "d": 225.96131250000326,
      "v": 104
    },
    {
      "midi": 48,
      "hit": false,
      "t": 185769.04499999955,
      "d": 225.96131250000326,
      "v": 84
    },
    {
      "midi": 50,
      "hit": false,
      "t": 185769.04500000016,
      "d": 225.96131250000326,
      "v": 117
    },
    {
      "midi": 50,
      "hit": false,
      "t": 185769.0450000002,
      "d": 225.96131250000326,
      "v": 90
    },
    {
      "midi": 57,
      "hit": false,
      "t": 185769.0450000002,
      "d": 225.96131250000326,
      "v": 73
    },
    {
      "midi": 62,
      "hit": false,
      "t": 185785.3911374993,
      "d": 299.99969999998575,
      "v": 94
    },
    {
      "midi": 66,
      "hit": false,
      "t": 185985.3909374993,
      "d": 137.49986250000075,
      "v": 85
    },
    {
      "midi": 40,
      "hit": false,
      "t": 185999.81399999955,
      "d": 225.96131250000326,
      "v": 117
    },
    {
      "midi": 44,
      "hit": false,
      "t": 185999.81399999955,
      "d": 225.96131250000326,
      "v": 104
    },
    {
      "midi": 58,
      "hit": false,
      "t": 185999.81399999955,
      "d": 456.7303125000035,
      "v": 71
    },
    {
      "midi": 51,
      "hit": false,
      "t": 185999.81400000016,
      "d": 225.96131250000326,
      "v": 92
    },
    {
      "midi": 59,
      "hit": false,
      "t": 185999.8140000002,
      "d": 225.96131250000326,
      "v": 86
    },
    {
      "midi": 50,
      "hit": false,
      "t": 185999.8140000002,
      "d": 225.96131250000326,
      "v": 99
    },
    {
      "midi": 64,
      "hit": false,
      "t": 186221.9291624993,
      "d": 402.8842124999501,
      "v": 94
    },
    {
      "midi": 68,
      "hit": false,
      "t": 186222.8906999993,
      "d": 1463.4600749998935,
      "v": 97
    },
    {
      "midi": 38,
      "hit": false,
      "t": 186230.58299999955,
      "d": 225.96131250000326,
      "v": 120
    },
    {
      "midi": 48,
      "hit": false,
      "t": 186230.58299999955,
      "d": 225.96131250000326,
      "v": 96
    },
    {
      "midi": 59,
      "hit": false,
      "t": 186230.58299999955,
      "d": 225.96131250000326,
      "v": 113
    },
    {
      "midi": 52,
      "hit": false,
      "t": 186230.58300000016,
      "d": 456.7303125000035,
      "v": 117
    },
    {
      "midi": 52,
      "hit": false,
      "t": 186230.5830000002,
      "d": 225.96131250000326,
      "v": 113
    },
    {
      "midi": 59,
      "hit": false,
      "t": 186230.5830000002,
      "d": 225.96131250000326,
      "v": 88
    },
    {
      "midi": 71,
      "hit": false,
      "t": 186241.15991249928,
      "d": 1457.6908499998972,
      "v": 97
    },
    {
      "midi": 58,
      "hit": false,
      "t": 186456.54431249955,
      "d": 4.807687499996973,
      "v": 104
    },
    {
      "midi": 44,
      "hit": false,
      "t": 186461.35199999955,
      "d": 225.96131250000326,
      "v": 89
    },
    {
      "midi": 58,
      "hit": false,
      "t": 186461.35199999955,
      "d": 456.7303125000035,
      "v": 100
    },
    {
      "midi": 59,
      "hit": false,
      "t": 186461.3520000002,
      "d": 225.96131250000326,
      "v": 92
    },
    {
      "midi": 52,
      "hit": false,
      "t": 186461.3520000002,
      "d": 225.96131250000326,
      "v": 97
    },
    {
      "midi": 64,
      "hit": false,
      "t": 186685.39023749923,
      "d": 310.5766124999791,
      "v": 85
    },
    {
      "midi": 44,
      "hit": false,
      "t": 186692.12099999955,
      "d": 225.96131250000326,
      "v": 86
    },
    {
      "midi": 40,
      "hit": false,
      "t": 186692.12099999955,
      "d": 225.96131250000326,
      "v": 50
    },
    {
      "midi": 40,
      "hit": false,
      "t": 186692.12100000016,
      "d": 456.7303125000035,
      "v": 104
    },
    {
      "midi": 59,
      "hit": false,
      "t": 186692.1210000002,
      "d": 225.96131250000326,
      "v": 85
    },
    {
      "midi": 52,
      "hit": false,
      "t": 186692.1210000002,
      "d": 225.96131250000326,
      "v": 79
    },
    {
      "midi": 76,
      "hit": false,
      "t": 186910.3900124992,
      "d": 232.69207499999902,
      "v": 78
    },
    {
      "midi": 44,
      "hit": false,
      "t": 186922.88999999955,
      "d": 225.96131250000326,
      "v": 84
    },
    {
      "midi": 40,
      "hit": false,
      "t": 186922.88999999955,
      "d": 225.96131250000326,
      "v": 65
    },
    {
      "midi": 58,
      "hit": false,
      "t": 186922.88999999955,
      "d": 456.7303125000035,
      "v": 96
    },
    {
      "midi": 52,
      "hit": false,
      "t": 186922.8900000002,
      "d": 225.96131250000326,
      "v": 99
    },
    {
      "midi": 61,
      "hit": false,
      "t": 186922.8900000002,
      "d": 225.96131250000326,
      "v": 83
    },
    {
      "midi": 44,
      "hit": false,
      "t": 187153.65899999955,
      "d": 225.96131250000326,
      "v": 73
    },
    {
      "midi": 40,
      "hit": false,
      "t": 187153.65899999955,
      "d": 225.96131250000326,
      "v": 76
    },
    {
      "midi": 40,
      "hit": false,
      "t": 187153.65900000016,
      "d": 225.96131250000326,
      "v": 101
    },
    {
      "midi": 52,
      "hit": false,
      "t": 187153.6590000002,
      "d": 225.96131250000326,
      "v": 88
    },
    {
      "midi": 59,
      "hit": false,
      "t": 187153.6590000002,
      "d": 225.96131250000326,
      "v": 83
    },
    {
      "midi": 64,
      "hit": false,
      "t": 187156.5436124992,
      "d": 269.2305000000051,
      "v": 92
    },
    {
      "midi": 38,
      "hit": false,
      "t": 187384.42799999955,
      "d": 225.96131250000326,
      "v": 117
    },
    {
      "midi": 40,
      "hit": false,
      "t": 187384.42799999955,
      "d": 225.96131250000326,
      "v": 93
    },
    {
      "midi": 44,
      "hit": false,
      "t": 187384.42799999955,
      "d": 225.96131250000326,
      "v": 92
    },
    {
      "midi": 58,
      "hit": false,
      "t": 187384.42799999955,
      "d": 456.7303125000035,
      "v": 100
    },
    {
      "midi": 42,
      "hit": false,
      "t": 187384.42800000016,
      "d": 225.96131250000326,
      "v": 110
    },
    {
      "midi": 59,
      "hit": false,
      "t": 187384.4280000002,
      "d": 225.96131250000326,
      "v": 79
    },
    {
      "midi": 52,
      "hit": false,
      "t": 187384.4280000002,
      "d": 225.96131250000326,
      "v": 85
    },
    {
      "midi": 76,
      "hit": false,
      "t": 187399.8125999992,
      "d": 248.07667499998934,
      "v": 79
    },
    {
      "midi": 48,
      "hit": false,
      "t": 187615.19699999955,
      "d": 225.96131250000326,
      "v": 86
    },
    {
      "midi": 40,
      "hit": false,
      "t": 187615.19699999955,
      "d": 225.96131250000326,
      "v": 110
    },
    {
      "midi": 40,
      "hit": false,
      "t": 187615.19700000016,
      "d": 225.96131250000326,
      "v": 101
    },
    {
      "midi": 59,
      "hit": false,
      "t": 187615.1970000002,
      "d": 225.96131250000326,
      "v": 82
    },
    {
      "midi": 52,
      "hit": false,
      "t": 187615.1970000002,
      "d": 225.96131250000326,
      "v": 86
    },
    {
      "midi": 64,
      "hit": false,
      "t": 187632.5046749992,
      "d": 140.38447499999893,
      "v": 83
    },
    {
      "midi": 40,
      "hit": false,
      "t": 187845.96599999955,
      "d": 100.96143749999464,
      "v": 117
    },
    {
      "midi": 44,
      "hit": false,
      "t": 187845.96599999955,
      "d": 225.96131250000326,
      "v": 84
    },
    {
      "midi": 58,
      "hit": false,
      "t": 187845.96599999955,
      "d": 456.7303125000035,
      "v": 100
    },
    {
      "midi": 37,
      "hit": false,
      "t": 187845.96600000016,
      "d": 225.96131250000326,
      "v": 117
    },
    {
      "midi": 52,
      "hit": false,
      "t": 187845.9660000002,
      "d": 225.96131250000326,
      "v": 94
    },
    {
      "midi": 61,
      "hit": false,
      "t": 187845.9660000002,
      "d": 225.96131250000326,
      "v": 85
    },
    {
      "midi": 48,
      "hit": false,
      "t": 188076.73499999955,
      "d": 225.96131250000326,
      "v": 89
    },
    {
      "midi": 47,
      "hit": false,
      "t": 188076.73499999955,
      "d": 225.96131250000326,
      "v": 120
    },
    {
      "midi": 35,
      "hit": false,
      "t": 188076.73500000016,
      "d": 225.96131250000326,
      "v": 110
    },
    {
      "midi": 52,
      "hit": false,
      "t": 188076.7350000002,
      "d": 225.96131250000326,
      "v": 99
    },
    {
      "midi": 59,
      "hit": false,
      "t": 188076.7350000002,
      "d": 225.96131250000326,
      "v": 90
    },
    {
      "midi": 44,
      "hit": false,
      "t": 188307.50399999955,
      "d": 225.96131250000326,
      "v": 86
    },
    {
      "midi": 58,
      "hit": false,
      "t": 188307.50399999955,
      "d": 456.7303125000035,
      "v": 86
    },
    {
      "midi": 59,
      "hit": false,
      "t": 188307.50399999955,
      "d": 456.7303125000035,
      "v": 113
    },
    {
      "midi": 38,
      "hit": false,
      "t": 188307.50399999955,
      "d": 456.7303125000035,
      "v": 120
    },
    {
      "midi": 33,
      "hit": false,
      "t": 188307.50400000016,
      "d": 225.96131250000326,
      "v": 117
    },
    {
      "midi": 52,
      "hit": false,
      "t": 188307.5040000002,
      "d": 225.96131250000326,
      "v": 97
    },
    {
      "midi": 45,
      "hit": false,
      "t": 188307.5040000002,
      "d": 225.96131250000326,
      "v": 107
    },
    {
      "midi": 64,
      "hit": false,
      "t": 188535.3883874992,
      "d": 106.73066249999101,
      "v": 78
    },
    {
      "midi": 68,
      "hit": false,
      "t": 188535.3883874992,
      "d": 122.11526249998133,
      "v": 85
    },
    {
      "midi": 71,
      "hit": false,
      "t": 188536.3499249992,
      "d": 120.19218749998254,
      "v": 88
    },
    {
      "midi": 48,
      "hit": false,
      "t": 188538.27299999955,
      "d": 225.96131250000326,
      "v": 89
    },
    {
      "midi": 45,
      "hit": false,
      "t": 188538.27300000016,
      "d": 225.96131250000326,
      "v": 117
    },
    {
      "midi": 45,
      "hit": false,
      "t": 188538.2730000002,
      "d": 225.96131250000326,
      "v": 92
    },
    {
      "midi": 52,
      "hit": false,
      "t": 188538.2730000002,
      "d": 225.96131250000326,
      "v": 82
    },
    {
      "midi": 64,
      "hit": false,
      "t": 188755.58047499918,
      "d": 163.4613749999844,
      "v": 72
    },
    {
      "midi": 73,
      "hit": false,
      "t": 188757.50354999918,
      "d": 134.61525000000256,
      "v": 83
    },
    {
      "midi": 69,
      "hit": false,
      "t": 188758.46508749918,
      "d": 147.1152374999947,
      "v": 85
    },
    {
      "midi": 44,
      "hit": false,
      "t": 188769.04199999955,
      "d": 225.96131250000326,
      "v": 96
    },
    {
      "midi": 58,
      "hit": false,
      "t": 188769.04199999955,
      "d": 456.7303125000035,
      "v": 75
    },
    {
      "midi": 60,
      "hit": false,
      "t": 188769.04199999955,
      "d": 456.7303125000035,
      "v": 109
    },
    {
      "midi": 40,
      "hit": false,
      "t": 188769.04199999955,
      "d": 456.7303125000035,
      "v": 117
    },
    {
      "midi": 33,
      "hit": false,
      "t": 188769.04200000016,
      "d": 225.96131250000326,
      "v": 113
    },
    {
      "midi": 45,
      "hit": false,
      "t": 188769.0420000002,
      "d": 225.96131250000326,
      "v": 97
    },
    {
      "midi": 54,
      "hit": false,
      "t": 188769.0420000002,
      "d": 225.96131250000326,
      "v": 88
    },
    {
      "midi": 48,
      "hit": false,
      "t": 188999.81099999955,
      "d": 225.96131250000326,
      "v": 92
    },
    {
      "midi": 33,
      "hit": false,
      "t": 188999.81100000016,
      "d": 456.7303125000035,
      "v": 113
    },
    {
      "midi": 45,
      "hit": false,
      "t": 188999.8110000002,
      "d": 225.96131250000326,
      "v": 99
    },
    {
      "midi": 52,
      "hit": false,
      "t": 188999.8110000002,
      "d": 225.96131250000326,
      "v": 83
    },
    {
      "midi": 68,
      "hit": false,
      "t": 189029.61866249915,
      "d": 211.53824999995413,
      "v": 88
    },
    {
      "midi": 71,
      "hit": false,
      "t": 189030.58019999915,
      "d": 224.03823749994626,
      "v": 88
    },
    {
      "midi": 64,
      "hit": false,
      "t": 189032.50327499915,
      "d": 208.65363749995595,
      "v": 90
    },
    {
      "midi": 44,
      "hit": false,
      "t": 189230.57999999955,
      "d": 225.96131250000326,
      "v": 86
    },
    {
      "midi": 58,
      "hit": false,
      "t": 189230.57999999955,
      "d": 456.7303124999744,
      "v": 73
    },
    {
      "midi": 38,
      "hit": false,
      "t": 189230.57999999955,
      "d": 456.7303124999744,
      "v": 123
    },
    {
      "midi": 52,
      "hit": false,
      "t": 189230.5800000002,
      "d": 225.96131250000326,
      "v": 85
    },
    {
      "midi": 45,
      "hit": false,
      "t": 189230.5800000002,
      "d": 225.96131250000326,
      "v": 94
    },
    {
      "midi": 44,
      "hit": false,
      "t": 189461.34899999955,
      "d": 110.57681249998859,
      "v": 89
    },
    {
      "midi": 45,
      "hit": false,
      "t": 189461.34900000016,
      "d": 225.96131250000326,
      "v": 113
    },
    {
      "midi": 52,
      "hit": false,
      "t": 189461.3490000002,
      "d": 225.96131250000326,
      "v": 78
    },
    {
      "midi": 45,
      "hit": false,
      "t": 189461.3490000002,
      "d": 225.96131250000326,
      "v": 90
    },
    {
      "midi": 69,
      "hit": false,
      "t": 189474.8105249991,
      "d": 294.2304749999603,
      "v": 90
    },
    {
      "midi": 64,
      "hit": false,
      "t": 189474.8105249991,
      "d": 308.6535374999512,
      "v": 86
    },
    {
      "midi": 73,
      "hit": false,
      "t": 189492.1181999991,
      "d": 263.46127499997965,
      "v": 85
    },
    {
      "midi": 44,
      "hit": false,
      "t": 189576.73349999954,
      "d": 110.57681249998859,
      "v": 92
    },
    {
      "midi": 44,
      "hit": false,
      "t": 189692.11799999952,
      "d": 225.96131250000326,
      "v": 100
    },
    {
      "midi": 58,
      "hit": false,
      "t": 189692.11799999952,
      "d": 456.7303125000035,
      "v": 71
    },
    {
      "midi": 40,
      "hit": false,
      "t": 189692.11799999952,
      "d": 456.7303125000035,
      "v": 117
    },
    {
      "midi": 33,
      "hit": false,
      "t": 189692.11800000016,
      "d": 225.96131250000326,
      "v": 110
    },
    {
      "midi": 45,
      "hit": false,
      "t": 189692.1180000002,
      "d": 225.96131250000326,
      "v": 107
    },
    {
      "midi": 54,
      "hit": false,
      "t": 189692.1180000002,
      "d": 225.96131250000326,
      "v": 97
    },
    {
      "midi": 48,
      "hit": false,
      "t": 189922.88699999952,
      "d": 225.96131250000326,
      "v": 96
    },
    {
      "midi": 33,
      "hit": false,
      "t": 189922.88700000016,
      "d": 456.7303125000035,
      "v": 110
    },
    {
      "midi": 45,
      "hit": false,
      "t": 189922.8870000002,
      "d": 225.96131250000326,
      "v": 99
    },
    {
      "midi": 52,
      "hit": false,
      "t": 189922.8870000002,
      "d": 225.96131250000326,
      "v": 88
    },
    {
      "midi": 66,
      "hit": false,
      "t": 189952.69466249907,
      "d": 827.8837875000027,
      "v": 94
    },
    {
      "midi": 62,
      "hit": false,
      "t": 189955.57927499907,
      "d": 775.9607625000062,
      "v": 94
    },
    {
      "midi": 69,
      "hit": false,
      "t": 189955.57927499907,
      "d": 825.9607125000039,
      "v": 94
    },
    {
      "midi": 44,
      "hit": false,
      "t": 190153.65599999952,
      "d": 225.96131250000326,
      "v": 89
    },
    {
      "midi": 58,
      "hit": false,
      "t": 190153.65599999952,
      "d": 456.7303125000035,
      "v": 75
    },
    {
      "midi": 38,
      "hit": false,
      "t": 190153.65599999952,
      "d": 456.7303125000035,
      "v": 117
    },
    {
      "midi": 52,
      "hit": false,
      "t": 190153.6560000002,
      "d": 225.96131250000326,
      "v": 86
    },
    {
      "midi": 45,
      "hit": false,
      "t": 190153.6560000002,
      "d": 225.96131250000326,
      "v": 99
    },
    {
      "midi": 48,
      "hit": false,
      "t": 190384.42499999952,
      "d": 225.96131250000326,
      "v": 84
    },
    {
      "midi": 45,
      "hit": false,
      "t": 190384.42500000016,
      "d": 225.96131250000326,
      "v": 117
    },
    {
      "midi": 52,
      "hit": false,
      "t": 190384.4250000002,
      "d": 225.96131250000326,
      "v": 82
    },
    {
      "midi": 45,
      "hit": false,
      "t": 190384.4250000002,
      "d": 225.96131250000326,
      "v": 99
    },
    {
      "midi": 44,
      "hit": false,
      "t": 190615.19399999952,
      "d": 225.96131250000326,
      "v": 100
    },
    {
      "midi": 58,
      "hit": false,
      "t": 190615.19399999952,
      "d": 456.7303124999744,
      "v": 73
    },
    {
      "midi": 40,
      "hit": false,
      "t": 190615.19399999952,
      "d": 456.7303124999744,
      "v": 113
    },
    {
      "midi": 33,
      "hit": false,
      "t": 190615.19400000016,
      "d": 225.96131250000326,
      "v": 113
    },
    {
      "midi": 45,
      "hit": false,
      "t": 190615.1940000002,
      "d": 225.96131250000326,
      "v": 110
    },
    {
      "midi": 54,
      "hit": false,
      "t": 190615.1940000002,
      "d": 225.96131250000326,
      "v": 86
    },
    {
      "midi": 44,
      "hit": false,
      "t": 190845.96299999952,
      "d": 110.57681249998859,
      "v": 84
    },
    {
      "midi": 45,
      "hit": false,
      "t": 190845.96300000016,
      "d": 225.96131250000326,
      "v": 110
    },
    {
      "midi": 45,
      "hit": false,
      "t": 190845.9630000002,
      "d": 225.96131250000326,
      "v": 92
    },
    {
      "midi": 52,
      "hit": false,
      "t": 190845.9630000002,
      "d": 225.96131250000326,
      "v": 71
    },
    {
      "midi": 64,
      "hit": false,
      "t": 190869.03989999907,
      "d": 889.4221874999639,
      "v": 86
    },
    {
      "midi": 68,
      "hit": false,
      "t": 190883.46296249906,
      "d": 899.9990999999864,
      "v": 88
    },
    {
      "midi": 71,
      "hit": false,
      "t": 190884.42449999906,
      "d": 914.4221624999773,
      "v": 86
    },
    {
      "midi": 44,
      "hit": false,
      "t": 190961.3474999995,
      "d": 110.57681249998859,
      "v": 89
    },
    {
      "midi": 44,
      "hit": false,
      "t": 191076.7319999995,
      "d": 225.96131250000326,
      "v": 100
    },
    {
      "midi": 58,
      "hit": false,
      "t": 191076.7319999995,
      "d": 456.7303125000035,
      "v": 75
    },
    {
      "midi": 38,
      "hit": false,
      "t": 191076.7319999995,
      "d": 456.7303125000035,
      "v": 113
    },
    {
      "midi": 30,
      "hit": false,
      "t": 191076.73200000016,
      "d": 225.96131250000326,
      "v": 117
    },
    {
      "midi": 52,
      "hit": false,
      "t": 191076.7320000002,
      "d": 225.96131250000326,
      "v": 90
    },
    {
      "midi": 45,
      "hit": false,
      "t": 191076.7320000002,
      "d": 225.96131250000326,
      "v": 101
    },
    {
      "midi": 48,
      "hit": false,
      "t": 191307.5009999995,
      "d": 225.96131250000326,
      "v": 84
    },
    {
      "midi": 30,
      "hit": false,
      "t": 191307.50100000016,
      "d": 456.7303125000035,
      "v": 120
    },
    {
      "midi": 52,
      "hit": false,
      "t": 191307.5010000002,
      "d": 225.96131250000326,
      "v": 80
    },
    {
      "midi": 45,
      "hit": false,
      "t": 191307.5010000002,
      "d": 225.96131250000326,
      "v": 90
    },
    {
      "midi": 44,
      "hit": false,
      "t": 191538.2699999995,
      "d": 225.96131250000326,
      "v": 104
    },
    {
      "midi": 58,
      "hit": false,
      "t": 191538.2699999995,
      "d": 456.7303125000035,
      "v": 71
    },
    {
      "midi": 40,
      "hit": false,
      "t": 191538.2699999995,
      "d": 456.7303125000035,
      "v": 120
    },
    {
      "midi": 54,
      "hit": false,
      "t": 191538.2700000002,
      "d": 225.96131250000326,
      "v": 94
    },
    {
      "midi": 45,
      "hit": false,
      "t": 191538.2700000002,
      "d": 225.96131250000326,
      "v": 107
    },
    {
      "midi": 48,
      "hit": false,
      "t": 191769.0389999995,
      "d": 225.96131250000326,
      "v": 96
    },
    {
      "midi": 33,
      "hit": false,
      "t": 191769.03900000016,
      "d": 456.7303125000035,
      "v": 113
    },
    {
      "midi": 45,
      "hit": false,
      "t": 191769.0390000002,
      "d": 225.96131250000326,
      "v": 92
    },
    {
      "midi": 52,
      "hit": false,
      "t": 191769.0390000002,
      "d": 225.96131250000326,
      "v": 79
    },
    {
      "midi": 44,
      "hit": false,
      "t": 191999.8079999995,
      "d": 225.96131250000326,
      "v": 89
    },
    {
      "midi": 58,
      "hit": false,
      "t": 191999.8079999995,
      "d": 456.7303125000035,
      "v": 69
    },
    {
      "midi": 38,
      "hit": false,
      "t": 191999.8079999995,
      "d": 456.7303125000035,
      "v": 117
    },
    {
      "midi": 45,
      "hit": false,
      "t": 191999.8080000002,
      "d": 225.96131250000326,
      "v": 101
    },
    {
      "midi": 52,
      "hit": false,
      "t": 191999.8080000002,
      "d": 225.96131250000326,
      "v": 92
    },
    {
      "midi": 69,
      "hit": false,
      "t": 192003.65414999903,
      "d": 133.65371250000317,
      "v": 92
    },
    {
      "midi": 64,
      "hit": false,
      "t": 192004.61568749903,
      "d": 131.73063750000438,
      "v": 97
    },
    {
      "midi": 73,
      "hit": false,
      "t": 192005.57722499903,
      "d": 129.8075625000056,
      "v": 88
    },
    {
      "midi": 48,
      "hit": false,
      "t": 192230.5769999995,
      "d": 225.96131250000326,
      "v": 84
    },
    {
      "midi": 45,
      "hit": false,
      "t": 192230.57700000016,
      "d": 225.96131250000326,
      "v": 117
    },
    {
      "midi": 45,
      "hit": false,
      "t": 192230.5770000002,
      "d": 225.96131250000326,
      "v": 97
    },
    {
      "midi": 52,
      "hit": false,
      "t": 192230.5770000002,
      "d": 225.96131250000326,
      "v": 85
    },
    {
      "midi": 68,
      "hit": false,
      "t": 192235.38468749903,
      "d": 113.46142500001588,
      "v": 82
    },
    {
      "midi": 64,
      "hit": false,
      "t": 192238.26929999902,
      "d": 108.6537375000189,
      "v": 76
    },
    {
      "midi": 71,
      "hit": false,
      "t": 192239.23083749902,
      "d": 108.6537375000189,
      "v": 88
    },
    {
      "midi": 64,
      "hit": false,
      "t": 192459.42292499903,
      "d": 140.38447499999893,
      "v": 80
    },
    {
      "midi": 44,
      "hit": false,
      "t": 192461.3459999995,
      "d": 225.96131250000326,
      "v": 100
    },
    {
      "midi": 58,
      "hit": false,
      "t": 192461.3459999995,
      "d": 456.7303124999744,
      "v": 66
    },
    {
      "midi": 40,
      "hit": false,
      "t": 192461.3459999995,
      "d": 456.7303124999744,
      "v": 113
    },
    {
      "midi": 33,
      "hit": false,
      "t": 192461.34600000017,
      "d": 225.96131250000326,
      "v": 113
    },
    {
      "midi": 54,
      "hit": false,
      "t": 192461.3460000002,
      "d": 225.96131250000326,
      "v": 94
    },
    {
      "midi": 45,
      "hit": false,
      "t": 192461.3460000002,
      "d": 225.96131250000326,
      "v": 110
    },
    {
      "midi": 73,
      "hit": false,
      "t": 192476.73059999902,
      "d": 109.6152750000183,
      "v": 86
    },
    {
      "midi": 69,
      "hit": false,
      "t": 192476.73059999902,
      "d": 110.5768125000177,
      "v": 86
    },
    {
      "midi": 44,
      "hit": false,
      "t": 192692.1149999995,
      "d": 110.57681249998859,
      "v": 84
    },
    {
      "midi": 33,
      "hit": false,
      "t": 192692.11500000017,
      "d": 456.7303125000035,
      "v": 113
    },
    {
      "midi": 45,
      "hit": false,
      "t": 192692.1150000002,
      "d": 225.96131250000326,
      "v": 83
    },
    {
      "midi": 52,
      "hit": false,
      "t": 192692.1150000002,
      "d": 225.96131250000326,
      "v": 82
    },
    {
      "midi": 68,
      "hit": false,
      "t": 192698.84576249903,
      "d": 271.1535749999748,
      "v": 90
    },
    {
      "midi": 64,
      "hit": false,
      "t": 192699.80729999903,
      "d": 256.7305124999839,
      "v": 85
    },
    {
      "midi": 71,
      "hit": false,
      "t": 192700.76883749902,
      "d": 270.1920374999754,
      "v": 90
    },
    {
      "midi": 44,
      "hit": false,
      "t": 192807.49949999948,
      "d": 110.57681249998859,
      "v": 89
    },
    {
      "midi": 44,
      "hit": false,
      "t": 192922.88399999947,
      "d": 225.96131250000326,
      "v": 100
    },
    {
      "midi": 58,
      "hit": false,
      "t": 192922.88399999947,
      "d": 456.7303125000035,
      "v": 63
    },
    {
      "midi": 38,
      "hit": false,
      "t": 192922.88399999947,
      "d": 456.7303125000035,
      "v": 113
    },
    {
      "midi": 52,
      "hit": false,
      "t": 192922.8840000002,
      "d": 225.96131250000326,
      "v": 90
    },
    {
      "midi": 45,
      "hit": false,
      "t": 192922.8840000002,
      "d": 225.96131250000326,
      "v": 107
    },
    {
      "midi": 48,
      "hit": false,
      "t": 193153.65299999947,
      "d": 225.96131250000326,
      "v": 84
    },
    {
      "midi": 45,
      "hit": false,
      "t": 193153.65300000017,
      "d": 225.96131250000326,
      "v": 113
    },
    {
      "midi": 52,
      "hit": false,
      "t": 193153.6530000002,
      "d": 225.96131250000326,
      "v": 80
    },
    {
      "midi": 45,
      "hit": false,
      "t": 193153.6530000002,
      "d": 225.96131250000326,
      "v": 90
    },
    {
      "midi": 69,
      "hit": false,
      "t": 193165.191449999,
      "d": 294.2304749999603,
      "v": 92
    },
    {
      "midi": 64,
      "hit": false,
      "t": 193166.152987499,
      "d": 305.768924999953,
      "v": 94
    },
    {
      "midi": 73,
      "hit": false,
      "t": 193168.076062499,
      "d": 278.84587499996996,
      "v": 86
    },
    {
      "midi": 44,
      "hit": false,
      "t": 193384.42199999947,
      "d": 225.96131250000326,
      "v": 104
    },
    {
      "midi": 58,
      "hit": false,
      "t": 193384.42199999947,
      "d": 456.7303125000035,
      "v": 75
    },
    {
      "midi": 40,
      "hit": false,
      "t": 193384.42199999947,
      "d": 456.7303125000035,
      "v": 120
    },
    {
      "midi": 33,
      "hit": false,
      "t": 193384.42200000017,
      "d": 225.96131250000326,
      "v": 110
    },
    {
      "midi": 54,
      "hit": false,
      "t": 193384.4220000002,
      "d": 225.96131250000326,
      "v": 88
    },
    {
      "midi": 45,
      "hit": false,
      "t": 193384.4220000002,
      "d": 225.96131250000326,
      "v": 107
    },
    {
      "midi": 48,
      "hit": false,
      "t": 193615.19099999947,
      "d": 225.96131250000326,
      "v": 96
    },
    {
      "midi": 33,
      "hit": false,
      "t": 193615.19100000017,
      "d": 456.7303125000035,
      "v": 110
    },
    {
      "midi": 45,
      "hit": false,
      "t": 193615.1910000002,
      "d": 225.96131250000326,
      "v": 90
    },
    {
      "midi": 52,
      "hit": false,
      "t": 193615.1910000002,
      "d": 225.96131250000326,
      "v": 74
    },
    {
      "midi": 66,
      "hit": false,
      "t": 193654.61403749895,
      "d": 680.7685499999498,
      "v": 99
    },
    {
      "midi": 62,
      "hit": false,
      "t": 193655.57557499895,
      "d": 619.2301499999594,
      "v": 97
    },
    {
      "midi": 69,
      "hit": false,
      "t": 193655.57557499895,
      "d": 704.8069874999637,
      "v": 94
    },
    {
      "midi": 44,
      "hit": false,
      "t": 193845.95999999947,
      "d": 225.96131250000326,
      "v": 89
    },
    {
      "midi": 58,
      "hit": false,
      "t": 193845.95999999947,
      "d": 456.7303125000035,
      "v": 77
    },
    {
      "midi": 38,
      "hit": false,
      "t": 193845.95999999947,
      "d": 456.7303125000035,
      "v": 117
    },
    {
      "midi": 52,
      "hit": false,
      "t": 193845.9600000002,
      "d": 225.96131250000326,
      "v": 88
    },
    {
      "midi": 45,
      "hit": false,
      "t": 193845.9600000002,
      "d": 225.96131250000326,
      "v": 99
    },
    {
      "midi": 48,
      "hit": false,
      "t": 194076.72899999947,
      "d": 225.96131250000326,
      "v": 84
    },
    {
      "midi": 45,
      "hit": false,
      "t": 194076.72900000017,
      "d": 225.96131250000326,
      "v": 117
    },
    {
      "midi": 52,
      "hit": false,
      "t": 194076.7290000002,
      "d": 225.96131250000326,
      "v": 82
    },
    {
      "midi": 45,
      "hit": false,
      "t": 194076.7290000002,
      "d": 225.96131250000326,
      "v": 90
    },
    {
      "midi": 74,
      "hit": false,
      "t": 194223.8442374989,
      "d": 306.7304625000106,
      "v": 86
    },
    {
      "midi": 44,
      "hit": false,
      "t": 194307.49799999947,
      "d": 225.96131250000326,
      "v": 100
    },
    {
      "midi": 58,
      "hit": false,
      "t": 194307.49799999947,
      "d": 456.7303124999744,
      "v": 64
    },
    {
      "midi": 40,
      "hit": false,
      "t": 194307.49799999947,
      "d": 456.7303124999744,
      "v": 113
    },
    {
      "midi": 33,
      "hit": false,
      "t": 194307.49800000017,
      "d": 225.96131250000326,
      "v": 113
    },
    {
      "midi": 45,
      "hit": false,
      "t": 194307.4980000002,
      "d": 225.96131250000326,
      "v": 94
    },
    {
      "midi": 54,
      "hit": false,
      "t": 194307.4980000002,
      "d": 225.96131250000326,
      "v": 90
    },
    {
      "midi": 44,
      "hit": false,
      "t": 194538.26699999947,
      "d": 110.57681249998859,
      "v": 84
    },
    {
      "midi": 45,
      "hit": false,
      "t": 194538.26700000017,
      "d": 225.96131250000326,
      "v": 110
    },
    {
      "midi": 45,
      "hit": false,
      "t": 194538.2670000002,
      "d": 225.96131250000326,
      "v": 97
    },
    {
      "midi": 52,
      "hit": false,
      "t": 194538.2670000002,
      "d": 225.96131250000326,
      "v": 88
    },
    {
      "midi": 64,
      "hit": false,
      "t": 194544.0362249989,
      "d": 939.4221374999324,
      "v": 101
    },
    {
      "midi": 44,
      "hit": false,
      "t": 194653.65149999945,
      "d": 110.57681249998859,
      "v": 89
    },
    {
      "midi": 44,
      "hit": false,
      "t": 194769.03599999944,
      "d": 225.96131250000326,
      "v": 100
    },
    {
      "midi": 58,
      "hit": false,
      "t": 194769.03599999944,
      "d": 456.7303125000035,
      "v": 84
    },
    {
      "midi": 38,
      "hit": false,
      "t": 194769.03599999944,
      "d": 456.7303125000035,
      "v": 113
    },
    {
      "midi": 30,
      "hit": false,
      "t": 194769.03600000017,
      "d": 225.96131250000326,
      "v": 117
    },
    {
      "midi": 52,
      "hit": false,
      "t": 194769.0360000002,
      "d": 225.96131250000326,
      "v": 85
    },
    {
      "midi": 45,
      "hit": false,
      "t": 194769.0360000002,
      "d": 225.96131250000326,
      "v": 97
    },
    {
      "midi": 48,
      "hit": false,
      "t": 194999.80499999944,
      "d": 225.96131250000326,
      "v": 84
    },
    {
      "midi": 30,
      "hit": false,
      "t": 194999.80500000017,
      "d": 456.7303125000035,
      "v": 120
    },
    {
      "midi": 52,
      "hit": false,
      "t": 194999.8050000002,
      "d": 225.96131250000326,
      "v": 76
    },
    {
      "midi": 45,
      "hit": false,
      "t": 194999.8050000002,
      "d": 225.96131250000326,
      "v": 92
    },
    {
      "midi": 68,
      "hit": false,
      "t": 195019.03574999885,
      "d": 463.46107499999925,
      "v": 86
    },
    {
      "midi": 44,
      "hit": false,
      "t": 195230.57399999944,
      "d": 225.96131250000326,
      "v": 104
    },
    {
      "midi": 58,
      "hit": false,
      "t": 195230.57399999944,
      "d": 456.7303125000035,
      "v": 69
    },
    {
      "midi": 40,
      "hit": false,
      "t": 195230.57399999944,
      "d": 456.7303125000035,
      "v": 120
    },
    {
      "midi": 54,
      "hit": false,
      "t": 195230.5740000002,
      "d": 225.96131250000326,
      "v": 92
    },
    {
      "midi": 45,
      "hit": false,
      "t": 195230.5740000002,
      "d": 225.96131250000326,
      "v": 104
    },
    {
      "midi": 71,
      "hit": false,
      "t": 195250.76628749885,
      "d": 257.6920500000124,
      "v": 85
    },
    {
      "midi": 48,
      "hit": false,
      "t": 195461.34299999944,
      "d": 225.96131250000326,
      "v": 96
    },
    {
      "midi": 33,
      "hit": false,
      "t": 195461.34300000017,
      "d": 456.7303125000035,
      "v": 117
    },
    {
      "midi": 45,
      "hit": false,
      "t": 195461.3430000002,
      "d": 225.96131250000326,
      "v": 99
    },
    {
      "midi": 52,
      "hit": false,
      "t": 195461.3430000002,
      "d": 225.96131250000326,
      "v": 92
    },
    {
      "midi": 44,
      "hit": false,
      "t": 195692.11199999944,
      "d": 225.96131250000326,
      "v": 89
    },
    {
      "midi": 58,
      "hit": false,
      "t": 195692.11199999944,
      "d": 456.7303125000035,
      "v": 75
    },
    {
      "midi": 38,
      "hit": false,
      "t": 195692.11199999944,
      "d": 456.7303125000035,
      "v": 117
    },
    {
      "midi": 52,
      "hit": false,
      "t": 195692.1120000002,
      "d": 225.96131250000326,
      "v": 86
    },
    {
      "midi": 45,
      "hit": false,
      "t": 195692.1120000002,
      "d": 225.96131250000326,
      "v": 99
    },
    {
      "midi": 64,
      "hit": false,
      "t": 195702.68891249885,
      "d": 157.69215000001714,
      "v": 90
    },
    {
      "midi": 69,
      "hit": false,
      "t": 195703.65044999885,
      "d": 117.30757500001346,
      "v": 94
    },
    {
      "midi": 73,
      "hit": false,
      "t": 195703.65044999885,
      "d": 118.26911250001285,
      "v": 90
    },
    {
      "midi": 64,
      "hit": false,
      "t": 195922.88099999886,
      "d": 95.19221249999828,
      "v": 69
    },
    {
      "midi": 48,
      "hit": false,
      "t": 195922.88099999944,
      "d": 225.96131250000326,
      "v": 84
    },
    {
      "midi": 45,
      "hit": false,
      "t": 195922.88100000017,
      "d": 225.96131250000326,
      "v": 117
    },
    {
      "midi": 45,
      "hit": false,
      "t": 195922.8810000002,
      "d": 225.96131250000326,
      "v": 86
    },
    {
      "midi": 52,
      "hit": false,
      "t": 195922.8810000002,
      "d": 225.96131250000326,
      "v": 75
    },
    {
      "midi": 68,
      "hit": false,
      "t": 195923.84253749886,
      "d": 107.69219999999041,
      "v": 85
    },
    {
      "midi": 71,
      "hit": false,
      "t": 195942.11174999885,
      "d": 88.46145000000251,
      "v": 88
    },
    {
      "midi": 64,
      "hit": false,
      "t": 196143.07308749884,
      "d": 148.0767749999941,
      "v": 82
    },
    {
      "midi": 44,
      "hit": false,
      "t": 196153.64999999944,
      "d": 225.96131250000326,
      "v": 100
    },
    {
      "midi": 58,
      "hit": false,
      "t": 196153.64999999944,
      "d": 456.7303124999744,
      "v": 79
    },
    {
      "midi": 40,
      "hit": false,
      "t": 196153.64999999944,
      "d": 456.7303124999744,
      "v": 113
    },
    {
      "midi": 33,
      "hit": false,
      "t": 196153.65000000017,
      "d": 225.96131250000326,
      "v": 113
    },
    {
      "midi": 45,
      "hit": false,
      "t": 196153.6500000002,
      "d": 225.96131250000326,
      "v": 97
    },
    {
      "midi": 54,
      "hit": false,
      "t": 196153.6500000002,
      "d": 225.96131250000326,
      "v": 90
    },
    {
      "midi": 69,
      "hit": false,
      "t": 196158.45768749883,
      "d": 117.30757500001346,
      "v": 90
    },
    {
      "midi": 73,
      "hit": false,
      "t": 196159.41922499883,
      "d": 117.30757500001346,
      "v": 86
    },
    {
      "midi": 44,
      "hit": false,
      "t": 196384.41899999944,
      "d": 110.57681249998859,
      "v": 84
    },
    {
      "midi": 33,
      "hit": false,
      "t": 196384.41900000017,
      "d": 456.7303125000035,
      "v": 113
    },
    {
      "midi": 45,
      "hit": false,
      "t": 196384.4190000002,
      "d": 225.96131250000326,
      "v": 94
    },
    {
      "midi": 52,
      "hit": false,
      "t": 196384.4190000002,
      "d": 225.96131250000326,
      "v": 79
    },
    {
      "midi": 68,
      "hit": false,
      "t": 196402.68821249882,
      "d": 216.3459374999802,
      "v": 88
    },
    {
      "midi": 71,
      "hit": false,
      "t": 196403.64974999882,
      "d": 200.9613374999899,
      "v": 88
    },
    {
      "midi": 64,
      "hit": false,
      "t": 196419.9958874988,
      "d": 199.0382624999911,
      "v": 83
    },
    {
      "midi": 44,
      "hit": false,
      "t": 196499.80349999943,
      "d": 110.57681249998859,
      "v": 89
    },
    {
      "midi": 44,
      "hit": false,
      "t": 196615.1879999994,
      "d": 225.96131250000326,
      "v": 100
    },
    {
      "midi": 58,
      "hit": false,
      "t": 196615.1879999994,
      "d": 456.7303125000035,
      "v": 68
    },
    {
      "midi": 38,
      "hit": false,
      "t": 196615.1879999994,
      "d": 456.7303125000035,
      "v": 113
    },
    {
      "midi": 52,
      "hit": false,
      "t": 196615.1880000002,
      "d": 225.96131250000326,
      "v": 83
    },
    {
      "midi": 45,
      "hit": false,
      "t": 196615.1880000002,
      "d": 225.96131250000326,
      "v": 94
    },
    {
      "midi": 48,
      "hit": false,
      "t": 196845.9569999994,
      "d": 225.96131250000326,
      "v": 84
    },
    {
      "midi": 45,
      "hit": false,
      "t": 196845.95700000017,
      "d": 225.96131250000326,
      "v": 113
    },
    {
      "midi": 45,
      "hit": false,
      "t": 196845.9570000002,
      "d": 225.96131250000326,
      "v": 92
    },
    {
      "midi": 52,
      "hit": false,
      "t": 196845.9570000002,
      "d": 225.96131250000326,
      "v": 76
    },
    {
      "midi": 69,
      "hit": false,
      "t": 196874.80312499878,
      "d": 244.23052499996265,
      "v": 97
    },
    {
      "midi": 64,
      "hit": false,
      "t": 196874.80312499878,
      "d": 257.6920499999542,
      "v": 92
    },
    {
      "midi": 73,
      "hit": false,
      "t": 196875.76466249878,
      "d": 228.84592499997234,
      "v": 90
    },
    {
      "midi": 44,
      "hit": false,
      "t": 197076.7259999994,
      "d": 225.96131250000326,
      "v": 104
    },
    {
      "midi": 58,
      "hit": false,
      "t": 197076.7259999994,
      "d": 456.7303125000035,
      "v": 62
    },
    {
      "midi": 40,
      "hit": false,
      "t": 197076.7259999994,
      "d": 456.7303125000035,
      "v": 120
    },
    {
      "midi": 33,
      "hit": false,
      "t": 197076.72600000017,
      "d": 225.96131250000326,
      "v": 110
    },
    {
      "midi": 45,
      "hit": false,
      "t": 197076.7260000002,
      "d": 225.96131250000326,
      "v": 99
    },
    {
      "midi": 54,
      "hit": false,
      "t": 197076.7260000002,
      "d": 225.96131250000326,
      "v": 86
    },
    {
      "midi": 48,
      "hit": false,
      "t": 197307.4949999994,
      "d": 225.96131250000326,
      "v": 96
    },
    {
      "midi": 33,
      "hit": false,
      "t": 197307.49500000017,
      "d": 456.7303125000035,
      "v": 110
    },
    {
      "midi": 52,
      "hit": false,
      "t": 197307.4950000002,
      "d": 225.96131250000326,
      "v": 86
    },
    {
      "midi": 45,
      "hit": false,
      "t": 197307.4950000002,
      "d": 225.96131250000326,
      "v": 97
    },
    {
      "midi": 62,
      "hit": false,
      "t": 197337.30266249873,
      "d": 726.9223499999789,
      "v": 92
    },
    {
      "midi": 66,
      "hit": false,
      "t": 197338.26419999872,
      "d": 763.460774999985,
      "v": 94
    },
    {
      "midi": 69,
      "hit": false,
      "t": 197355.5718749987,
      "d": 759.6146249999874,
      "v": 88
    },
    {
      "midi": 44,
      "hit": false,
      "t": 197538.2639999994,
      "d": 225.96131250000326,
      "v": 89
    },
    {
      "midi": 58,
      "hit": false,
      "t": 197538.2639999994,
      "d": 456.7303125000035,
      "v": 62
    },
    {
      "midi": 38,
      "hit": false,
      "t": 197538.2639999994,
      "d": 456.7303125000035,
      "v": 117
    },
    {
      "midi": 52,
      "hit": false,
      "t": 197538.2640000002,
      "d": 225.96131250000326,
      "v": 90
    },
    {
      "midi": 45,
      "hit": false,
      "t": 197538.2640000002,
      "d": 225.96131250000326,
      "v": 107
    },
    {
      "midi": 48,
      "hit": false,
      "t": 197769.0329999994,
      "d": 225.96131250000326,
      "v": 84
    },
    {
      "midi": 45,
      "hit": false,
      "t": 197769.03300000017,
      "d": 225.96131250000326,
      "v": 117
    },
    {
      "midi": 52,
      "hit": false,
      "t": 197769.0330000002,
      "d": 225.96131250000326,
      "v": 73
    },
    {
      "midi": 45,
      "hit": false,
      "t": 197769.0330000002,
      "d": 225.96131250000326,
      "v": 82
    },
    {
      "midi": 44,
      "hit": false,
      "t": 197999.8019999994,
      "d": 225.96131250000326,
      "v": 100
    },
    {
      "midi": 58,
      "hit": false,
      "t": 197999.8019999994,
      "d": 456.7303124999744,
      "v": 71
    },
    {
      "midi": 40,
      "hit": false,
      "t": 197999.8019999994,
      "d": 456.7303124999744,
      "v": 113
    },
    {
      "midi": 33,
      "hit": false,
      "t": 197999.80200000017,
      "d": 225.96131250000326,
      "v": 113
    },
    {
      "midi": 54,
      "hit": false,
      "t": 197999.8020000002,
      "d": 225.96131250000326,
      "v": 85
    },
    {
      "midi": 45,
      "hit": false,
      "t": 197999.8020000002,
      "d": 225.96131250000326,
      "v": 97
    },
    {
      "midi": 44,
      "hit": false,
      "t": 198230.5709999994,
      "d": 110.57681249998859,
      "v": 84
    },
    {
      "midi": 45,
      "hit": false,
      "t": 198230.57100000017,
      "d": 225.96131250000326,
      "v": 110
    },
    {
      "midi": 45,
      "hit": false,
      "t": 198230.5710000002,
      "d": 225.96131250000326,
      "v": 97
    },
    {
      "midi": 52,
      "hit": false,
      "t": 198230.5710000002,
      "d": 225.96131250000326,
      "v": 80
    },
    {
      "midi": 64,
      "hit": false,
      "t": 198247.8786749987,
      "d": 268.2689624999766,
      "v": 94
    },
    {
      "midi": 68,
      "hit": false,
      "t": 198248.8402124987,
      "d": 817.3068749999802,
      "v": 92
    },
    {
      "midi": 71,
      "hit": false,
      "t": 198267.1094249987,
      "d": 824.9991749999754,
      "v": 90
    },
    {
      "midi": 44,
      "hit": false,
      "t": 198345.9554999994,
      "d": 110.57681249998859,
      "v": 89
    },
    {
      "midi": 44,
      "hit": false,
      "t": 198461.33999999939,
      "d": 225.96131250000326,
      "v": 100
    },
    {
      "midi": 58,
      "hit": false,
      "t": 198461.33999999939,
      "d": 456.7303125000035,
      "v": 69
    },
    {
      "midi": 38,
      "hit": false,
      "t": 198461.33999999939,
      "d": 456.7303125000035,
      "v": 113
    },
    {
      "midi": 45,
      "hit": false,
      "t": 198461.34000000017,
      "d": 225.96131250000326,
      "v": 113
    },
    {
      "midi": 52,
      "hit": false,
      "t": 198461.3400000002,
      "d": 225.96131250000326,
      "v": 82
    },
    {
      "midi": 45,
      "hit": false,
      "t": 198461.3400000002,
      "d": 225.96131250000326,
      "v": 99
    },
    {
      "midi": 64,
      "hit": false,
      "t": 198686.3397749987,
      "d": 293.26893749999,
      "v": 92
    },
    {
      "midi": 48,
      "hit": false,
      "t": 198692.1089999994,
      "d": 225.96131250000326,
      "v": 84
    },
    {
      "midi": 45,
      "hit": false,
      "t": 198692.10900000017,
      "d": 225.96131250000326,
      "v": 120
    },
    {
      "midi": 45,
      "hit": false,
      "t": 198692.1090000002,
      "d": 225.96131250000326,
      "v": 97
    },
    {
      "midi": 52,
      "hit": false,
      "t": 198692.1090000002,
      "d": 225.96131250000326,
      "v": 88
    },
    {
      "midi": 44,
      "hit": false,
      "t": 198922.8779999994,
      "d": 225.96131250000326,
      "v": 104
    },
    {
      "midi": 58,
      "hit": false,
      "t": 198922.8779999994,
      "d": 456.7303125000035,
      "v": 77
    },
    {
      "midi": 40,
      "hit": false,
      "t": 198922.8779999994,
      "d": 456.7303125000035,
      "v": 120
    },
    {
      "midi": 37,
      "hit": false,
      "t": 198922.87800000017,
      "d": 225.96131250000326,
      "v": 107
    },
    {
      "midi": 45,
      "hit": false,
      "t": 198922.8780000002,
      "d": 225.96131250000326,
      "v": 107
    },
    {
      "midi": 54,
      "hit": false,
      "t": 198922.8780000002,
      "d": 225.96131250000326,
      "v": 94
    },
    {
      "midi": 76,
      "hit": false,
      "t": 198927.68568749868,
      "d": 151.92292499999166,
      "v": 85
    },
    {
      "midi": 48,
      "hit": false,
      "t": 199153.6469999994,
      "d": 225.96131250000326,
      "v": 96
    },
    {
      "midi": 38,
      "hit": false,
      "t": 199153.64700000017,
      "d": 225.96131250000326,
      "v": 113
    },
    {
      "midi": 52,
      "hit": false,
      "t": 199153.6470000002,
      "d": 225.96131250000326,
      "v": 97
    },
    {
      "midi": 45,
      "hit": false,
      "t": 199153.6470000002,
      "d": 225.96131250000326,
      "v": 107
    },
    {
      "midi": 44,
      "hit": false,
      "t": 199384.4159999994,
      "d": 225.96131250000326,
      "v": 89
    },
    {
      "midi": 58,
      "hit": false,
      "t": 199384.4159999994,
      "d": 456.7303125000035,
      "v": 84
    },
    {
      "midi": 38,
      "hit": false,
      "t": 199384.4159999994,
      "d": 456.7303125000035,
      "v": 117
    },
    {
      "midi": 40,
      "hit": false,
      "t": 199384.41600000017,
      "d": 687.4993125000037,
      "v": 113
    },
    {
      "midi": 50,
      "hit": false,
      "t": 199384.4160000002,
      "d": 225.96131250000326,
      "v": 104
    },
    {
      "midi": 57,
      "hit": false,
      "t": 199384.4160000002,
      "d": 225.96131250000326,
      "v": 92
    },
    {
      "midi": 62,
      "hit": false,
      "t": 199394.99291249868,
      "d": 1000.9605374999519,
      "v": 97
    },
    {
      "midi": 66,
      "hit": false,
      "t": 199395.95444999868,
      "d": 1120.1911874999641,
      "v": 104
    },
    {
      "midi": 69,
      "hit": false,
      "t": 199396.91598749868,
      "d": 1234.6141499999503,
      "v": 97
    },
    {
      "midi": 48,
      "hit": false,
      "t": 199615.1849999994,
      "d": 225.96131250000326,
      "v": 84
    },
    {
      "midi": 50,
      "hit": false,
      "t": 199615.1850000002,
      "d": 225.96131250000326,
      "v": 85
    },
    {
      "midi": 57,
      "hit": false,
      "t": 199615.1850000002,
      "d": 225.96131250000326,
      "v": 80
    },
    {
      "midi": 44,
      "hit": false,
      "t": 199845.9539999994,
      "d": 225.96131250000326,
      "v": 100
    },
    {
      "midi": 58,
      "hit": false,
      "t": 199845.9539999994,
      "d": 456.7303124999744,
      "v": 75
    },
    {
      "midi": 40,
      "hit": false,
      "t": 199845.9539999994,
      "d": 456.7303124999744,
      "v": 113
    },
    {
      "midi": 59,
      "hit": false,
      "t": 199845.9540000002,
      "d": 225.96131250000326,
      "v": 83
    },
    {
      "midi": 50,
      "hit": false,
      "t": 199845.9540000002,
      "d": 225.96131250000326,
      "v": 97
    },
    {
      "midi": 44,
      "hit": false,
      "t": 200076.7229999994,
      "d": 110.57681249998859,
      "v": 84
    },
    {
      "midi": 40,
      "hit": false,
      "t": 200076.72300000017,
      "d": 225.96131250000326,
      "v": 117
    },
    {
      "midi": 50,
      "hit": false,
      "t": 200076.7230000002,
      "d": 225.96131250000326,
      "v": 94
    },
    {
      "midi": 57,
      "hit": false,
      "t": 200076.7230000002,
      "d": 225.96131250000326,
      "v": 74
    },
    {
      "midi": 44,
      "hit": false,
      "t": 200192.10749999937,
      "d": 110.57681249998859,
      "v": 89
    },
    {
      "midi": 40,
      "hit": false,
      "t": 200307.49199999936,
      "d": 225.96131250000326,
      "v": 104
    },
    {
      "midi": 44,
      "hit": false,
      "t": 200307.49199999936,
      "d": 225.96131250000326,
      "v": 100
    },
    {
      "midi": 38,
      "hit": false,
      "t": 200307.49199999936,
      "d": 456.7303125000035,
      "v": 113
    },
    {
      "midi": 58,
      "hit": false,
      "t": 200307.49199999936,
      "d": 456.7303125000035,
      "v": 79
    },
    {
      "midi": 47,
      "hit": false,
      "t": 200307.49200000017,
      "d": 225.96131250000326,
      "v": 99
    },
    {
      "midi": 57,
      "hit": false,
      "t": 200307.4920000002,
      "d": 225.96131250000326,
      "v": 83
    },
    {
      "midi": 50,
      "hit": false,
      "t": 200307.4920000002,
      "d": 225.96131250000326,
      "v": 94
    },
    {
      "midi": 74,
      "hit": false,
      "t": 200331.53043749864,
      "d": 486.5379749999847,
      "v": 76
    },
    {
      "midi": 40,
      "hit": false,
      "t": 200538.26099999936,
      "d": 225.96131250000326,
      "v": 104
    },
    {
      "midi": 48,
      "hit": false,
      "t": 200538.26099999936,
      "d": 225.96131250000326,
      "v": 84
    },
    {
      "midi": 50,
      "hit": false,
      "t": 200538.26100000017,
      "d": 225.96131250000326,
      "v": 117
    },
    {
      "midi": 50,
      "hit": false,
      "t": 200538.2610000002,
      "d": 225.96131250000326,
      "v": 90
    },
    {
      "midi": 57,
      "hit": false,
      "t": 200538.2610000002,
      "d": 225.96131250000326,
      "v": 73
    },
    {
      "midi": 62,
      "hit": false,
      "t": 200554.60713749865,
      "d": 299.99969999998575,
      "v": 94
    },
    {
      "midi": 66,
      "hit": false,
      "t": 200754.60693749864,
      "d": 137.49986250000075,
      "v": 85
    },
    {
      "midi": 40,
      "hit": false,
      "t": 200769.02999999936,
      "d": 225.96131250000326,
      "v": 117
    },
    {
      "midi": 44,
      "hit": false,
      "t": 200769.02999999936,
      "d": 225.96131250000326,
      "v": 104
    },
    {
      "midi": 58,
      "hit": false,
      "t": 200769.02999999936,
      "d": 456.7303125000035,
      "v": 71
    },
    {
      "midi": 51,
      "hit": false,
      "t": 200769.03000000017,
      "d": 225.96131250000326,
      "v": 92
    },
    {
      "midi": 59,
      "hit": false,
      "t": 200769.0300000002,
      "d": 225.96131250000326,
      "v": 86
    },
    {
      "midi": 50,
      "hit": false,
      "t": 200769.0300000002,
      "d": 225.96131250000326,
      "v": 99
    },
    {
      "midi": 64,
      "hit": false,
      "t": 200991.14516249864,
      "d": 402.8842124999501,
      "v": 94
    },
    {
      "midi": 68,
      "hit": false,
      "t": 200992.10669999864,
      "d": 1463.4600749998935,
      "v": 97
    },
    {
      "midi": 38,
      "hit": false,
      "t": 200999.79899999936,
      "d": 225.96131250000326,
      "v": 120
    },
    {
      "midi": 48,
      "hit": false,
      "t": 200999.79899999936,
      "d": 225.96131250000326,
      "v": 96
    },
    {
      "midi": 59,
      "hit": false,
      "t": 200999.79899999936,
      "d": 225.96131250000326,
      "v": 113
    },
    {
      "midi": 52,
      "hit": false,
      "t": 200999.79900000017,
      "d": 456.7303125000035,
      "v": 117
    },
    {
      "midi": 52,
      "hit": false,
      "t": 200999.7990000002,
      "d": 225.96131250000326,
      "v": 113
    },
    {
      "midi": 59,
      "hit": false,
      "t": 200999.7990000002,
      "d": 225.96131250000326,
      "v": 88
    },
    {
      "midi": 71,
      "hit": false,
      "t": 201010.37591249862,
      "d": 1457.6908499998972,
      "v": 97
    },
    {
      "midi": 58,
      "hit": false,
      "t": 201225.76031249936,
      "d": 4.807687499996973,
      "v": 104
    },
    {
      "midi": 44,
      "hit": false,
      "t": 201230.56799999936,
      "d": 225.96131250000326,
      "v": 89
    },
    {
      "midi": 58,
      "hit": false,
      "t": 201230.56799999936,
      "d": 456.7303125000035,
      "v": 100
    },
    {
      "midi": 59,
      "hit": false,
      "t": 201230.5680000002,
      "d": 225.96131250000326,
      "v": 92
    },
    {
      "midi": 52,
      "hit": false,
      "t": 201230.5680000002,
      "d": 225.96131250000326,
      "v": 97
    },
    {
      "midi": 64,
      "hit": false,
      "t": 201454.60623749858,
      "d": 310.5766124999791,
      "v": 85
    },
    {
      "midi": 44,
      "hit": false,
      "t": 201461.33699999936,
      "d": 225.96131250000326,
      "v": 86
    },
    {
      "midi": 40,
      "hit": false,
      "t": 201461.33699999936,
      "d": 225.96131250000326,
      "v": 50
    },
    {
      "midi": 40,
      "hit": false,
      "t": 201461.33700000017,
      "d": 456.7303125000035,
      "v": 104
    },
    {
      "midi": 59,
      "hit": false,
      "t": 201461.3370000002,
      "d": 225.96131250000326,
      "v": 85
    },
    {
      "midi": 52,
      "hit": false,
      "t": 201461.3370000002,
      "d": 225.96131250000326,
      "v": 79
    },
    {
      "midi": 76,
      "hit": false,
      "t": 201679.60601249855,
      "d": 232.69207499999902,
      "v": 78
    },
    {
      "midi": 44,
      "hit": false,
      "t": 201692.10599999936,
      "d": 225.96131250000326,
      "v": 84
    },
    {
      "midi": 40,
      "hit": false,
      "t": 201692.10599999936,
      "d": 225.96131250000326,
      "v": 65
    },
    {
      "midi": 58,
      "hit": false,
      "t": 201692.10599999936,
      "d": 456.7303125000035,
      "v": 96
    },
    {
      "midi": 52,
      "hit": false,
      "t": 201692.1060000002,
      "d": 225.96131250000326,
      "v": 99
    },
    {
      "midi": 61,
      "hit": false,
      "t": 201692.1060000002,
      "d": 225.96131250000326,
      "v": 83
    },
    {
      "midi": 44,
      "hit": false,
      "t": 201922.87499999936,
      "d": 225.96131250000326,
      "v": 73
    },
    {
      "midi": 40,
      "hit": false,
      "t": 201922.87499999936,
      "d": 225.96131250000326,
      "v": 76
    },
    {
      "midi": 40,
      "hit": false,
      "t": 201922.87500000017,
      "d": 225.96131250000326,
      "v": 101
    },
    {
      "midi": 52,
      "hit": false,
      "t": 201922.8750000002,
      "d": 225.96131250000326,
      "v": 88
    },
    {
      "midi": 59,
      "hit": false,
      "t": 201922.8750000002,
      "d": 225.96131250000326,
      "v": 83
    },
    {
      "midi": 64,
      "hit": false,
      "t": 201925.75961249854,
      "d": 269.2305000000051,
      "v": 92
    },
    {
      "midi": 38,
      "hit": false,
      "t": 202153.64399999936,
      "d": 225.96131250000326,
      "v": 117
    },
    {
      "midi": 40,
      "hit": false,
      "t": 202153.64399999936,
      "d": 225.96131250000326,
      "v": 93
    },
    {
      "midi": 44,
      "hit": false,
      "t": 202153.64399999936,
      "d": 225.96131250000326,
      "v": 92
    },
    {
      "midi": 58,
      "hit": false,
      "t": 202153.64399999936,
      "d": 456.7303125000035,
      "v": 100
    },
    {
      "midi": 42,
      "hit": false,
      "t": 202153.64400000017,
      "d": 225.96131250000326,
      "v": 110
    },
    {
      "midi": 59,
      "hit": false,
      "t": 202153.6440000002,
      "d": 225.96131250000326,
      "v": 79
    },
    {
      "midi": 52,
      "hit": false,
      "t": 202153.6440000002,
      "d": 225.96131250000326,
      "v": 85
    },
    {
      "midi": 76,
      "hit": false,
      "t": 202169.02859999854,
      "d": 248.07667499998934,
      "v": 79
    },
    {
      "midi": 48,
      "hit": false,
      "t": 202384.41299999936,
      "d": 225.96131250000326,
      "v": 86
    },
    {
      "midi": 40,
      "hit": false,
      "t": 202384.41299999936,
      "d": 225.96131250000326,
      "v": 110
    },
    {
      "midi": 40,
      "hit": false,
      "t": 202384.41300000018,
      "d": 225.96131250000326,
      "v": 101
    },
    {
      "midi": 59,
      "hit": false,
      "t": 202384.4130000002,
      "d": 225.96131250000326,
      "v": 82
    },
    {
      "midi": 52,
      "hit": false,
      "t": 202384.4130000002,
      "d": 225.96131250000326,
      "v": 86
    },
    {
      "midi": 64,
      "hit": false,
      "t": 202401.72067499853,
      "d": 140.38447499999893,
      "v": 83
    },
    {
      "midi": 40,
      "hit": false,
      "t": 202615.18199999936,
      "d": 100.96143749999464,
      "v": 117
    },
    {
      "midi": 44,
      "hit": false,
      "t": 202615.18199999936,
      "d": 225.96131250000326,
      "v": 84
    },
    {
      "midi": 58,
      "hit": false,
      "t": 202615.18199999936,
      "d": 456.7303125000035,
      "v": 100
    },
    {
      "midi": 37,
      "hit": false,
      "t": 202615.18200000018,
      "d": 225.96131250000326,
      "v": 117
    },
    {
      "midi": 52,
      "hit": false,
      "t": 202615.1820000002,
      "d": 225.96131250000326,
      "v": 94
    },
    {
      "midi": 61,
      "hit": false,
      "t": 202615.1820000002,
      "d": 225.96131250000326,
      "v": 85
    },
    {
      "midi": 48,
      "hit": false,
      "t": 202845.95099999936,
      "d": 225.96131250000326,
      "v": 89
    },
    {
      "midi": 47,
      "hit": false,
      "t": 202845.95099999936,
      "d": 225.96131250000326,
      "v": 120
    },
    {
      "midi": 35,
      "hit": false,
      "t": 202845.95100000018,
      "d": 225.96131250000326,
      "v": 110
    },
    {
      "midi": 52,
      "hit": false,
      "t": 202845.9510000002,
      "d": 225.96131250000326,
      "v": 99
    },
    {
      "midi": 59,
      "hit": false,
      "t": 202845.9510000002,
      "d": 225.96131250000326,
      "v": 90
    },
    {
      "midi": 44,
      "hit": false,
      "t": 203076.71999999936,
      "d": 225.96131250000326,
      "v": 86
    },
    {
      "midi": 58,
      "hit": false,
      "t": 203076.71999999936,
      "d": 456.7303125000035,
      "v": 86
    },
    {
      "midi": 59,
      "hit": false,
      "t": 203076.71999999936,
      "d": 456.7303125000035,
      "v": 113
    },
    {
      "midi": 38,
      "hit": false,
      "t": 203076.71999999936,
      "d": 456.7303125000035,
      "v": 120
    },
    {
      "midi": 33,
      "hit": false,
      "t": 203076.72000000018,
      "d": 225.96131250000326,
      "v": 117
    },
    {
      "midi": 52,
      "hit": false,
      "t": 203076.7200000002,
      "d": 225.96131250000326,
      "v": 97
    },
    {
      "midi": 45,
      "hit": false,
      "t": 203076.7200000002,
      "d": 225.96131250000326,
      "v": 107
    },
    {
      "midi": 64,
      "hit": false,
      "t": 203304.60438749855,
      "d": 106.73066249999101,
      "v": 78
    },
    {
      "midi": 68,
      "hit": false,
      "t": 203304.60438749855,
      "d": 122.11526249998133,
      "v": 85
    },
    {
      "midi": 71,
      "hit": false,
      "t": 203305.56592499855,
      "d": 120.19218749998254,
      "v": 88
    },
    {
      "midi": 48,
      "hit": false,
      "t": 203307.48899999936,
      "d": 225.96131250000326,
      "v": 89
    },
    {
      "midi": 45,
      "hit": false,
      "t": 203307.48900000018,
      "d": 225.96131250000326,
      "v": 117
    },
    {
      "midi": 45,
      "hit": false,
      "t": 203307.4890000002,
      "d": 225.96131250000326,
      "v": 92
    },
    {
      "midi": 52,
      "hit": false,
      "t": 203307.4890000002,
      "d": 225.96131250000326,
      "v": 82
    },
    {
      "midi": 64,
      "hit": false,
      "t": 203524.79647499853,
      "d": 163.4613749999844,
      "v": 72
    },
    {
      "midi": 73,
      "hit": false,
      "t": 203526.71954999852,
      "d": 134.61525000000256,
      "v": 83
    },
    {
      "midi": 69,
      "hit": false,
      "t": 203527.68108749852,
      "d": 147.1152374999947,
      "v": 85
    },
    {
      "midi": 44,
      "hit": false,
      "t": 203538.25799999936,
      "d": 225.96131250000326,
      "v": 96
    },
    {
      "midi": 58,
      "hit": false,
      "t": 203538.25799999936,
      "d": 456.7303125000035,
      "v": 75
    },
    {
      "midi": 60,
      "hit": false,
      "t": 203538.25799999936,
      "d": 456.7303125000035,
      "v": 109
    },
    {
      "midi": 40,
      "hit": false,
      "t": 203538.25799999936,
      "d": 456.7303125000035,
      "v": 117
    },
    {
      "midi": 33,
      "hit": false,
      "t": 203538.25800000018,
      "d": 225.96131250000326,
      "v": 113
    },
    {
      "midi": 45,
      "hit": false,
      "t": 203538.2580000002,
      "d": 225.96131250000326,
      "v": 97
    },
    {
      "midi": 54,
      "hit": false,
      "t": 203538.2580000002,
      "d": 225.96131250000326,
      "v": 88
    },
    {
      "midi": 48,
      "hit": false,
      "t": 203769.02699999936,
      "d": 225.96131250000326,
      "v": 92
    },
    {
      "midi": 33,
      "hit": false,
      "t": 203769.02700000018,
      "d": 456.7303125000035,
      "v": 113
    },
    {
      "midi": 45,
      "hit": false,
      "t": 203769.0270000002,
      "d": 225.96131250000326,
      "v": 99
    },
    {
      "midi": 52,
      "hit": false,
      "t": 203769.0270000002,
      "d": 225.96131250000326,
      "v": 83
    },
    {
      "midi": 68,
      "hit": false,
      "t": 203798.8346624985,
      "d": 211.53824999995413,
      "v": 88
    },
    {
      "midi": 71,
      "hit": false,
      "t": 203799.7961999985,
      "d": 224.03823749994626,
      "v": 88
    },
    {
      "midi": 64,
      "hit": false,
      "t": 203801.7192749985,
      "d": 208.65363749995595,
      "v": 90
    },
    {
      "midi": 44,
      "hit": false,
      "t": 203999.79599999936,
      "d": 225.96131250000326,
      "v": 86
    },
    {
      "midi": 58,
      "hit": false,
      "t": 203999.79599999936,
      "d": 456.7303124999744,
      "v": 73
    },
    {
      "midi": 38,
      "hit": false,
      "t": 203999.79599999936,
      "d": 456.7303124999744,
      "v": 123
    },
    {
      "midi": 52,
      "hit": false,
      "t": 203999.7960000002,
      "d": 225.96131250000326,
      "v": 85
    },
    {
      "midi": 45,
      "hit": false,
      "t": 203999.7960000002,
      "d": 225.96131250000326,
      "v": 94
    },
    {
      "midi": 44,
      "hit": false,
      "t": 204230.56499999936,
      "d": 110.57681249998859,
      "v": 89
    },
    {
      "midi": 45,
      "hit": false,
      "t": 204230.56500000018,
      "d": 225.96131250000326,
      "v": 113
    },
    {
      "midi": 52,
      "hit": false,
      "t": 204230.5650000002,
      "d": 225.96131250000326,
      "v": 78
    },
    {
      "midi": 45,
      "hit": false,
      "t": 204230.5650000002,
      "d": 225.96131250000326,
      "v": 90
    },
    {
      "midi": 69,
      "hit": false,
      "t": 204244.02652499845,
      "d": 294.2304749999603,
      "v": 90
    },
    {
      "midi": 64,
      "hit": false,
      "t": 204244.02652499845,
      "d": 308.6535374999512,
      "v": 86
    },
    {
      "midi": 73,
      "hit": false,
      "t": 204261.33419999844,
      "d": 263.46127499997965,
      "v": 85
    },
    {
      "midi": 44,
      "hit": false,
      "t": 204345.94949999935,
      "d": 110.57681249998859,
      "v": 92
    },
    {
      "midi": 44,
      "hit": false,
      "t": 204461.33399999933,
      "d": 225.96131250000326,
      "v": 100
    },
    {
      "midi": 58,
      "hit": false,
      "t": 204461.33399999933,
      "d": 456.7303125000035,
      "v": 71
    },
    {
      "midi": 40,
      "hit": false,
      "t": 204461.33399999933,
      "d": 456.7303125000035,
      "v": 117
    },
    {
      "midi": 33,
      "hit": false,
      "t": 204461.33400000018,
      "d": 225.96131250000326,
      "v": 110
    },
    {
      "midi": 45,
      "hit": false,
      "t": 204461.3340000002,
      "d": 225.96131250000326,
      "v": 107
    },
    {
      "midi": 54,
      "hit": false,
      "t": 204461.3340000002,
      "d": 225.96131250000326,
      "v": 97
    },
    {
      "midi": 48,
      "hit": false,
      "t": 204692.10299999933,
      "d": 225.96131250000326,
      "v": 96
    },
    {
      "midi": 33,
      "hit": false,
      "t": 204692.10300000018,
      "d": 456.7303125000035,
      "v": 110
    },
    {
      "midi": 45,
      "hit": false,
      "t": 204692.1030000002,
      "d": 225.96131250000326,
      "v": 99
    },
    {
      "midi": 52,
      "hit": false,
      "t": 204692.1030000002,
      "d": 225.96131250000326,
      "v": 88
    },
    {
      "midi": 66,
      "hit": false,
      "t": 204721.9106624984,
      "d": 827.8837875000027,
      "v": 94
    },
    {
      "midi": 62,
      "hit": false,
      "t": 204724.7952749984,
      "d": 775.9607625000062,
      "v": 94
    },
    {
      "midi": 69,
      "hit": false,
      "t": 204724.7952749984,
      "d": 825.9607125000039,
      "v": 94
    },
    {
      "midi": 44,
      "hit": false,
      "t": 204922.87199999933,
      "d": 225.96131250000326,
      "v": 89
    },
    {
      "midi": 58,
      "hit": false,
      "t": 204922.87199999933,
      "d": 456.7303125000035,
      "v": 75
    },
    {
      "midi": 38,
      "hit": false,
      "t": 204922.87199999933,
      "d": 456.7303125000035,
      "v": 117
    },
    {
      "midi": 52,
      "hit": false,
      "t": 204922.8720000002,
      "d": 225.96131250000326,
      "v": 86
    },
    {
      "midi": 45,
      "hit": false,
      "t": 204922.8720000002,
      "d": 225.96131250000326,
      "v": 99
    },
    {
      "midi": 48,
      "hit": false,
      "t": 205153.64099999933,
      "d": 225.96131250000326,
      "v": 84
    },
    {
      "midi": 45,
      "hit": false,
      "t": 205153.64100000018,
      "d": 225.96131250000326,
      "v": 117
    },
    {
      "midi": 52,
      "hit": false,
      "t": 205153.6410000002,
      "d": 225.96131250000326,
      "v": 82
    },
    {
      "midi": 45,
      "hit": false,
      "t": 205153.6410000002,
      "d": 225.96131250000326,
      "v": 99
    },
    {
      "midi": 44,
      "hit": false,
      "t": 205384.40999999933,
      "d": 225.96131250000326,
      "v": 100
    },
    {
      "midi": 58,
      "hit": false,
      "t": 205384.40999999933,
      "d": 456.7303124999744,
      "v": 73
    },
    {
      "midi": 40,
      "hit": false,
      "t": 205384.40999999933,
      "d": 456.7303124999744,
      "v": 113
    },
    {
      "midi": 33,
      "hit": false,
      "t": 205384.41000000018,
      "d": 225.96131250000326,
      "v": 113
    },
    {
      "midi": 45,
      "hit": false,
      "t": 205384.4100000002,
      "d": 225.96131250000326,
      "v": 110
    },
    {
      "midi": 54,
      "hit": false,
      "t": 205384.4100000002,
      "d": 225.96131250000326,
      "v": 86
    },
    {
      "midi": 44,
      "hit": false,
      "t": 205615.17899999933,
      "d": 110.57681249998859,
      "v": 84
    },
    {
      "midi": 45,
      "hit": false,
      "t": 205615.17900000018,
      "d": 225.96131250000326,
      "v": 110
    },
    {
      "midi": 45,
      "hit": false,
      "t": 205615.1790000002,
      "d": 225.96131250000326,
      "v": 92
    },
    {
      "midi": 52,
      "hit": false,
      "t": 205615.1790000002,
      "d": 225.96131250000326,
      "v": 71
    },
    {
      "midi": 64,
      "hit": false,
      "t": 205638.25589999842,
      "d": 889.4221874999639,
      "v": 86
    },
    {
      "midi": 68,
      "hit": false,
      "t": 205652.6789624984,
      "d": 899.9990999999864,
      "v": 88
    },
    {
      "midi": 71,
      "hit": false,
      "t": 205653.6404999984,
      "d": 914.4221624999773,
      "v": 86
    },
    {
      "midi": 44,
      "hit": false,
      "t": 205730.56349999932,
      "d": 110.57681249998859,
      "v": 89
    },
    {
      "midi": 44,
      "hit": false,
      "t": 205845.9479999993,
      "d": 225.96131250000326,
      "v": 100
    },
    {
      "midi": 58,
      "hit": false,
      "t": 205845.9479999993,
      "d": 456.7303125000035,
      "v": 75
    },
    {
      "midi": 38,
      "hit": false,
      "t": 205845.9479999993,
      "d": 456.7303125000035,
      "v": 113
    },
    {
      "midi": 30,
      "hit": false,
      "t": 205845.94800000018,
      "d": 225.96131250000326,
      "v": 117
    },
    {
      "midi": 52,
      "hit": false,
      "t": 205845.9480000002,
      "d": 225.96131250000326,
      "v": 90
    },
    {
      "midi": 45,
      "hit": false,
      "t": 205845.9480000002,
      "d": 225.96131250000326,
      "v": 101
    },
    {
      "midi": 48,
      "hit": false,
      "t": 206076.7169999993,
      "d": 225.96131250000326,
      "v": 84
    },
    {
      "midi": 30,
      "hit": false,
      "t": 206076.71700000018,
      "d": 456.7303125000035,
      "v": 120
    },
    {
      "midi": 52,
      "hit": false,
      "t": 206076.7170000002,
      "d": 225.96131250000326,
      "v": 80
    },
    {
      "midi": 45,
      "hit": false,
      "t": 206076.7170000002,
      "d": 225.96131250000326,
      "v": 90
    },
    {
      "midi": 44,
      "hit": false,
      "t": 206307.4859999993,
      "d": 225.96131250000326,
      "v": 104
    },
    {
      "midi": 58,
      "hit": false,
      "t": 206307.4859999993,
      "d": 456.7303125000035,
      "v": 71
    },
    {
      "midi": 40,
      "hit": false,
      "t": 206307.4859999993,
      "d": 456.7303125000035,
      "v": 120
    },
    {
      "midi": 54,
      "hit": false,
      "t": 206307.4860000002,
      "d": 225.96131250000326,
      "v": 94
    },
    {
      "midi": 45,
      "hit": false,
      "t": 206307.4860000002,
      "d": 225.96131250000326,
      "v": 107
    },
    {
      "midi": 48,
      "hit": false,
      "t": 206538.2549999993,
      "d": 225.96131250000326,
      "v": 96
    },
    {
      "midi": 33,
      "hit": false,
      "t": 206538.25500000018,
      "d": 456.7303125000035,
      "v": 113
    },
    {
      "midi": 45,
      "hit": false,
      "t": 206538.2550000002,
      "d": 225.96131250000326,
      "v": 92
    },
    {
      "midi": 52,
      "hit": false,
      "t": 206538.2550000002,
      "d": 225.96131250000326,
      "v": 79
    },
    {
      "midi": 44,
      "hit": false,
      "t": 206769.0239999993,
      "d": 225.96131250000326,
      "v": 89
    },
    {
      "midi": 58,
      "hit": false,
      "t": 206769.0239999993,
      "d": 456.7303125000035,
      "v": 69
    },
    {
      "midi": 38,
      "hit": false,
      "t": 206769.0239999993,
      "d": 456.7303125000035,
      "v": 117
    },
    {
      "midi": 45,
      "hit": false,
      "t": 206769.0240000002,
      "d": 225.96131250000326,
      "v": 101
    },
    {
      "midi": 52,
      "hit": false,
      "t": 206769.0240000002,
      "d": 225.96131250000326,
      "v": 92
    },
    {
      "midi": 69,
      "hit": false,
      "t": 206772.87014999837,
      "d": 133.65371250000317,
      "v": 92
    },
    {
      "midi": 64,
      "hit": false,
      "t": 206773.83168749837,
      "d": 131.73063750000438,
      "v": 97
    },
    {
      "midi": 73,
      "hit": false,
      "t": 206774.79322499837,
      "d": 129.8075625000056,
      "v": 88
    },
    {
      "midi": 48,
      "hit": false,
      "t": 206999.7929999993,
      "d": 225.96131250000326,
      "v": 84
    },
    {
      "midi": 45,
      "hit": false,
      "t": 206999.79300000018,
      "d": 225.96131250000326,
      "v": 117
    },
    {
      "midi": 45,
      "hit": false,
      "t": 206999.7930000002,
      "d": 225.96131250000326,
      "v": 97
    },
    {
      "midi": 52,
      "hit": false,
      "t": 206999.7930000002,
      "d": 225.96131250000326,
      "v": 85
    },
    {
      "midi": 68,
      "hit": false,
      "t": 207004.60068749837,
      "d": 113.46142500001588,
      "v": 82
    },
    {
      "midi": 64,
      "hit": false,
      "t": 207007.48529999837,
      "d": 108.6537375000189,
      "v": 76
    },
    {
      "midi": 71,
      "hit": false,
      "t": 207008.44683749837,
      "d": 108.6537375000189,
      "v": 88
    },
    {
      "midi": 64,
      "hit": false,
      "t": 207228.63892499838,
      "d": 140.38447499999893,
      "v": 80
    },
    {
      "midi": 44,
      "hit": false,
      "t": 207230.5619999993,
      "d": 225.96131250000326,
      "v": 100
    },
    {
      "midi": 58,
      "hit": false,
      "t": 207230.5619999993,
      "d": 456.7303124999744,
      "v": 66
    },
    {
      "midi": 40,
      "hit": false,
      "t": 207230.5619999993,
      "d": 456.7303124999744,
      "v": 113
    },
    {
      "midi": 33,
      "hit": false,
      "t": 207230.56200000018,
      "d": 225.96131250000326,
      "v": 113
    },
    {
      "midi": 54,
      "hit": false,
      "t": 207230.5620000002,
      "d": 225.96131250000326,
      "v": 94
    },
    {
      "midi": 45,
      "hit": false,
      "t": 207230.5620000002,
      "d": 225.96131250000326,
      "v": 110
    },
    {
      "midi": 73,
      "hit": false,
      "t": 207245.94659999837,
      "d": 109.6152750000183,
      "v": 86
    },
    {
      "midi": 69,
      "hit": false,
      "t": 207245.94659999837,
      "d": 110.5768125000177,
      "v": 86
    },
    {
      "midi": 44,
      "hit": false,
      "t": 207461.3309999993,
      "d": 110.57681249998859,
      "v": 84
    },
    {
      "midi": 33,
      "hit": false,
      "t": 207461.33100000018,
      "d": 456.7303125000035,
      "v": 113
    },
    {
      "midi": 45,
      "hit": false,
      "t": 207461.3310000002,
      "d": 225.96131250000326,
      "v": 83
    },
    {
      "midi": 52,
      "hit": false,
      "t": 207461.3310000002,
      "d": 225.96131250000326,
      "v": 82
    },
    {
      "midi": 68,
      "hit": false,
      "t": 207468.06176249837,
      "d": 271.1535749999748,
      "v": 90
    },
    {
      "midi": 64,
      "hit": false,
      "t": 207469.02329999837,
      "d": 256.7305124999839,
      "v": 85
    },
    {
      "midi": 71,
      "hit": false,
      "t": 207469.98483749837,
      "d": 270.1920374999754,
      "v": 90
    },
    {
      "midi": 44,
      "hit": false,
      "t": 207576.7154999993,
      "d": 110.57681249998859,
      "v": 89
    },
    {
      "midi": 44,
      "hit": false,
      "t": 207692.09999999928,
      "d": 225.96131250000326,
      "v": 100
    },
    {
      "midi": 58,
      "hit": false,
      "t": 207692.09999999928,
      "d": 456.7303125000035,
      "v": 63
    },
    {
      "midi": 38,
      "hit": false,
      "t": 207692.09999999928,
      "d": 456.7303125000035,
      "v": 113
    },
    {
      "midi": 52,
      "hit": false,
      "t": 207692.1000000002,
      "d": 225.96131250000326,
      "v": 90
    },
    {
      "midi": 45,
      "hit": false,
      "t": 207692.1000000002,
      "d": 225.96131250000326,
      "v": 107
    },
    {
      "midi": 48,
      "hit": false,
      "t": 207922.86899999928,
      "d": 225.96131250000326,
      "v": 84
    },
    {
      "midi": 45,
      "hit": false,
      "t": 207922.86900000018,
      "d": 225.96131250000326,
      "v": 113
    },
    {
      "midi": 52,
      "hit": false,
      "t": 207922.8690000002,
      "d": 225.96131250000326,
      "v": 80
    },
    {
      "midi": 45,
      "hit": false,
      "t": 207922.8690000002,
      "d": 225.96131250000326,
      "v": 90
    },
    {
      "midi": 69,
      "hit": false,
      "t": 207934.40744999834,
      "d": 294.2304749999603,
      "v": 92
    },
    {
      "midi": 64,
      "hit": false,
      "t": 207935.36898749834,
      "d": 305.768924999953,
      "v": 94
    },
    {
      "midi": 73,
      "hit": false,
      "t": 207937.29206249834,
      "d": 278.84587499996996,
      "v": 86
    },
    {
      "midi": 44,
      "hit": false,
      "t": 208153.63799999928,
      "d": 225.96131250000326,
      "v": 104
    },
    {
      "midi": 58,
      "hit": false,
      "t": 208153.63799999928,
      "d": 456.7303125000035,
      "v": 75
    },
    {
      "midi": 40,
      "hit": false,
      "t": 208153.63799999928,
      "d": 456.7303125000035,
      "v": 120
    },
    {
      "midi": 33,
      "hit": false,
      "t": 208153.63800000018,
      "d": 225.96131250000326,
      "v": 110
    },
    {
      "midi": 54,
      "hit": false,
      "t": 208153.6380000002,
      "d": 225.96131250000326,
      "v": 88
    },
    {
      "midi": 45,
      "hit": false,
      "t": 208153.6380000002,
      "d": 225.96131250000326,
      "v": 107
    },
    {
      "midi": 48,
      "hit": false,
      "t": 208384.40699999928,
      "d": 225.96131250000326,
      "v": 96
    },
    {
      "midi": 33,
      "hit": false,
      "t": 208384.40700000018,
      "d": 456.7303125000035,
      "v": 110
    },
    {
      "midi": 45,
      "hit": false,
      "t": 208384.4070000002,
      "d": 225.96131250000326,
      "v": 90
    },
    {
      "midi": 52,
      "hit": false,
      "t": 208384.4070000002,
      "d": 225.96131250000326,
      "v": 74
    },
    {
      "midi": 66,
      "hit": false,
      "t": 208423.8300374983,
      "d": 680.7685499999498,
      "v": 99
    },
    {
      "midi": 62,
      "hit": false,
      "t": 208424.7915749983,
      "d": 619.2301499999594,
      "v": 97
    },
    {
      "midi": 69,
      "hit": false,
      "t": 208424.7915749983,
      "d": 704.8069874999637,
      "v": 94
    },
    {
      "midi": 44,
      "hit": false,
      "t": 208615.17599999928,
      "d": 225.96131250000326,
      "v": 89
    },
    {
      "midi": 58,
      "hit": false,
      "t": 208615.17599999928,
      "d": 456.7303125000035,
      "v": 77
    },
    {
      "midi": 38,
      "hit": false,
      "t": 208615.17599999928,
      "d": 456.7303125000035,
      "v": 117
    },
    {
      "midi": 52,
      "hit": false,
      "t": 208615.1760000002,
      "d": 225.96131250000326,
      "v": 88
    },
    {
      "midi": 45,
      "hit": false,
      "t": 208615.1760000002,
      "d": 225.96131250000326,
      "v": 99
    },
    {
      "midi": 48,
      "hit": false,
      "t": 208845.94499999928,
      "d": 225.96131250000326,
      "v": 84
    },
    {
      "midi": 45,
      "hit": false,
      "t": 208845.94500000018,
      "d": 225.96131250000326,
      "v": 117
    },
    {
      "midi": 52,
      "hit": false,
      "t": 208845.9450000002,
      "d": 225.96131250000326,
      "v": 82
    },
    {
      "midi": 45,
      "hit": false,
      "t": 208845.9450000002,
      "d": 225.96131250000326,
      "v": 90
    },
    {
      "midi": 74,
      "hit": false,
      "t": 208993.06023749826,
      "d": 306.7304625000106,
      "v": 86
    },
    {
      "midi": 44,
      "hit": false,
      "t": 209076.71399999928,
      "d": 225.96131250000326,
      "v": 100
    },
    {
      "midi": 58,
      "hit": false,
      "t": 209076.71399999928,
      "d": 456.7303124999744,
      "v": 64
    },
    {
      "midi": 40,
      "hit": false,
      "t": 209076.71399999928,
      "d": 456.7303124999744,
      "v": 113
    },
    {
      "midi": 33,
      "hit": false,
      "t": 209076.71400000018,
      "d": 225.96131250000326,
      "v": 113
    },
    {
      "midi": 45,
      "hit": false,
      "t": 209076.7140000002,
      "d": 225.96131250000326,
      "v": 94
    },
    {
      "midi": 54,
      "hit": false,
      "t": 209076.7140000002,
      "d": 225.96131250000326,
      "v": 90
    },
    {
      "midi": 44,
      "hit": false,
      "t": 209307.48299999928,
      "d": 110.57681249998859,
      "v": 84
    },
    {
      "midi": 45,
      "hit": false,
      "t": 209307.48300000018,
      "d": 225.96131250000326,
      "v": 110
    },
    {
      "midi": 45,
      "hit": false,
      "t": 209307.4830000002,
      "d": 225.96131250000326,
      "v": 97
    },
    {
      "midi": 52,
      "hit": false,
      "t": 209307.4830000002,
      "d": 225.96131250000326,
      "v": 88
    },
    {
      "midi": 64,
      "hit": false,
      "t": 209313.25222499826,
      "d": 939.4221374999324,
      "v": 101
    },
    {
      "midi": 44,
      "hit": false,
      "t": 209422.86749999927,
      "d": 110.57681249998859,
      "v": 89
    },
    {
      "midi": 44,
      "hit": false,
      "t": 209538.25199999925,
      "d": 225.96131250000326,
      "v": 100
    },
    {
      "midi": 58,
      "hit": false,
      "t": 209538.25199999925,
      "d": 456.7303125000035,
      "v": 84
    },
    {
      "midi": 38,
      "hit": false,
      "t": 209538.25199999925,
      "d": 456.7303125000035,
      "v": 113
    },
    {
      "midi": 30,
      "hit": false,
      "t": 209538.25200000018,
      "d": 225.96131250000326,
      "v": 117
    },
    {
      "midi": 52,
      "hit": false,
      "t": 209538.2520000002,
      "d": 225.96131250000326,
      "v": 85
    },
    {
      "midi": 45,
      "hit": false,
      "t": 209538.2520000002,
      "d": 225.96131250000326,
      "v": 97
    },
    {
      "midi": 48,
      "hit": false,
      "t": 209769.02099999925,
      "d": 225.96131250000326,
      "v": 84
    },
    {
      "midi": 30,
      "hit": false,
      "t": 209769.02100000018,
      "d": 456.7303125000035,
      "v": 120
    },
    {
      "midi": 52,
      "hit": false,
      "t": 209769.0210000002,
      "d": 225.96131250000326,
      "v": 76
    },
    {
      "midi": 45,
      "hit": false,
      "t": 209769.0210000002,
      "d": 225.96131250000326,
      "v": 92
    },
    {
      "midi": 68,
      "hit": false,
      "t": 209788.2517499982,
      "d": 463.46107499999925,
      "v": 86
    },
    {
      "midi": 44,
      "hit": false,
      "t": 209999.78999999925,
      "d": 225.96131250000326,
      "v": 104
    },
    {
      "midi": 58,
      "hit": false,
      "t": 209999.78999999925,
      "d": 456.7303125000035,
      "v": 69
    },
    {
      "midi": 40,
      "hit": false,
      "t": 209999.78999999925,
      "d": 456.7303125000035,
      "v": 120
    },
    {
      "midi": 54,
      "hit": false,
      "t": 209999.7900000002,
      "d": 225.96131250000326,
      "v": 92
    },
    {
      "midi": 45,
      "hit": false,
      "t": 209999.7900000002,
      "d": 225.96131250000326,
      "v": 104
    },
    {
      "midi": 71,
      "hit": false,
      "t": 210019.9822874982,
      "d": 257.6920500000124,
      "v": 85
    },
    {
      "midi": 48,
      "hit": false,
      "t": 210230.55899999925,
      "d": 225.96131250000326,
      "v": 96
    },
    {
      "midi": 33,
      "hit": false,
      "t": 210230.55900000018,
      "d": 456.7303125000035,
      "v": 117
    },
    {
      "midi": 45,
      "hit": false,
      "t": 210230.5590000002,
      "d": 225.96131250000326,
      "v": 99
    },
    {
      "midi": 52,
      "hit": false,
      "t": 210230.5590000002,
      "d": 225.96131250000326,
      "v": 92
    },
    {
      "midi": 44,
      "hit": false,
      "t": 210461.32799999925,
      "d": 225.96131250000326,
      "v": 89
    },
    {
      "midi": 58,
      "hit": false,
      "t": 210461.32799999925,
      "d": 456.7303125000035,
      "v": 75
    },
    {
      "midi": 38,
      "hit": false,
      "t": 210461.32799999925,
      "d": 456.7303125000035,
      "v": 117
    },
    {
      "midi": 52,
      "hit": false,
      "t": 210461.3280000002,
      "d": 225.96131250000326,
      "v": 86
    },
    {
      "midi": 45,
      "hit": false,
      "t": 210461.3280000002,
      "d": 225.96131250000326,
      "v": 99
    },
    {
      "midi": 64,
      "hit": false,
      "t": 210471.9049124982,
      "d": 157.69215000001714,
      "v": 90
    },
    {
      "midi": 69,
      "hit": false,
      "t": 210472.8664499982,
      "d": 117.30757500001346,
      "v": 94
    },
    {
      "midi": 73,
      "hit": false,
      "t": 210472.8664499982,
      "d": 118.26911250001285,
      "v": 90
    },
    {
      "midi": 64,
      "hit": false,
      "t": 210692.0969999982,
      "d": 95.19221249999828,
      "v": 69
    },
    {
      "midi": 48,
      "hit": false,
      "t": 210692.09699999925,
      "d": 225.96131250000326,
      "v": 84
    },
    {
      "midi": 45,
      "hit": false,
      "t": 210692.09700000018,
      "d": 225.96131250000326,
      "v": 117
    },
    {
      "midi": 45,
      "hit": false,
      "t": 210692.0970000002,
      "d": 225.96131250000326,
      "v": 86
    },
    {
      "midi": 52,
      "hit": false,
      "t": 210692.0970000002,
      "d": 225.96131250000326,
      "v": 75
    },
    {
      "midi": 68,
      "hit": false,
      "t": 210693.0585374982,
      "d": 107.69219999999041,
      "v": 85
    },
    {
      "midi": 71,
      "hit": false,
      "t": 210711.3277499982,
      "d": 88.46145000000251,
      "v": 88
    },
    {
      "midi": 64,
      "hit": false,
      "t": 210912.28908749818,
      "d": 148.0767749999941,
      "v": 82
    },
    {
      "midi": 44,
      "hit": false,
      "t": 210922.86599999925,
      "d": 225.96131250000326,
      "v": 100
    },
    {
      "midi": 58,
      "hit": false,
      "t": 210922.86599999925,
      "d": 456.7303124999744,
      "v": 79
    },
    {
      "midi": 40,
      "hit": false,
      "t": 210922.86599999925,
      "d": 456.7303124999744,
      "v": 113
    },
    {
      "midi": 33,
      "hit": false,
      "t": 210922.86600000018,
      "d": 225.96131250000326,
      "v": 113
    },
    {
      "midi": 45,
      "hit": false,
      "t": 210922.8660000002,
      "d": 225.96131250000326,
      "v": 97
    },
    {
      "midi": 54,
      "hit": false,
      "t": 210922.8660000002,
      "d": 225.96131250000326,
      "v": 90
    },
    {
      "midi": 69,
      "hit": false,
      "t": 210927.67368749817,
      "d": 117.30757500001346,
      "v": 90
    },
    {
      "midi": 73,
      "hit": false,
      "t": 210928.63522499817,
      "d": 117.30757500001346,
      "v": 86
    },
    {
      "midi": 44,
      "hit": false,
      "t": 211153.63499999925,
      "d": 110.57681249998859,
      "v": 84
    },
    {
      "midi": 33,
      "hit": false,
      "t": 211153.63500000018,
      "d": 456.7303125000035,
      "v": 113
    },
    {
      "midi": 45,
      "hit": false,
      "t": 211153.6350000002,
      "d": 225.96131250000326,
      "v": 94
    },
    {
      "midi": 52,
      "hit": false,
      "t": 211153.6350000002,
      "d": 225.96131250000326,
      "v": 79
    },
    {
      "midi": 68,
      "hit": false,
      "t": 211171.90421249816,
      "d": 216.3459374999802,
      "v": 88
    },
    {
      "midi": 71,
      "hit": false,
      "t": 211172.86574999816,
      "d": 200.9613374999899,
      "v": 88
    },
    {
      "midi": 64,
      "hit": false,
      "t": 211189.21188749815,
      "d": 199.0382624999911,
      "v": 83
    },
    {
      "midi": 44,
      "hit": false,
      "t": 211269.01949999924,
      "d": 110.57681249998859,
      "v": 89
    },
    {
      "midi": 44,
      "hit": false,
      "t": 211384.40399999922,
      "d": 225.96131250000326,
      "v": 100
    },
    {
      "midi": 58,
      "hit": false,
      "t": 211384.40399999922,
      "d": 456.7303125000035,
      "v": 68
    },
    {
      "midi": 38,
      "hit": false,
      "t": 211384.40399999922,
      "d": 456.7303125000035,
      "v": 113
    },
    {
      "midi": 52,
      "hit": false,
      "t": 211384.4040000002,
      "d": 225.96131250000326,
      "v": 83
    },
    {
      "midi": 45,
      "hit": false,
      "t": 211384.4040000002,
      "d": 225.96131250000326,
      "v": 94
    },
    {
      "midi": 48,
      "hit": false,
      "t": 211615.17299999922,
      "d": 225.96131250000326,
      "v": 84
    },
    {
      "midi": 45,
      "hit": false,
      "t": 211615.17300000018,
      "d": 225.96131250000326,
      "v": 113
    },
    {
      "midi": 45,
      "hit": false,
      "t": 211615.1730000002,
      "d": 225.96131250000326,
      "v": 92
    },
    {
      "midi": 52,
      "hit": false,
      "t": 211615.1730000002,
      "d": 225.96131250000326,
      "v": 76
    },
    {
      "midi": 69,
      "hit": false,
      "t": 211644.01912499813,
      "d": 244.23052499996265,
      "v": 97
    },
    {
      "midi": 64,
      "hit": false,
      "t": 211644.01912499813,
      "d": 257.6920499999542,
      "v": 92
    },
    {
      "midi": 73,
      "hit": false,
      "t": 211644.98066249813,
      "d": 228.84592499997234,
      "v": 90
    },
    {
      "midi": 44,
      "hit": false,
      "t": 211845.94199999922,
      "d": 225.96131250000326,
      "v": 104
    },
    {
      "midi": 58,
      "hit": false,
      "t": 211845.94199999922,
      "d": 456.7303125000035,
      "v": 62
    },
    {
      "midi": 40,
      "hit": false,
      "t": 211845.94199999922,
      "d": 456.7303125000035,
      "v": 120
    },
    {
      "midi": 33,
      "hit": false,
      "t": 211845.94200000018,
      "d": 225.96131250000326,
      "v": 110
    },
    {
      "midi": 45,
      "hit": false,
      "t": 211845.9420000002,
      "d": 225.96131250000326,
      "v": 99
    },
    {
      "midi": 54,
      "hit": false,
      "t": 211845.9420000002,
      "d": 225.96131250000326,
      "v": 86
    },
    {
      "midi": 48,
      "hit": false,
      "t": 212076.71099999922,
      "d": 225.96131250000326,
      "v": 96
    },
    {
      "midi": 33,
      "hit": false,
      "t": 212076.71100000018,
      "d": 456.7303125000035,
      "v": 110
    },
    {
      "midi": 52,
      "hit": false,
      "t": 212076.7110000002,
      "d": 225.96131250000326,
      "v": 86
    },
    {
      "midi": 45,
      "hit": false,
      "t": 212076.7110000002,
      "d": 225.96131250000326,
      "v": 97
    },
    {
      "midi": 62,
      "hit": false,
      "t": 212106.51866249807,
      "d": 726.9223499999789,
      "v": 92
    },
    {
      "midi": 66,
      "hit": false,
      "t": 212107.48019999807,
      "d": 763.460774999985,
      "v": 94
    },
    {
      "midi": 69,
      "hit": false,
      "t": 212124.78787499806,
      "d": 759.6146249999874,
      "v": 88
    },
    {
      "midi": 44,
      "hit": false,
      "t": 212307.47999999922,
      "d": 225.96131250000326,
      "v": 89
    },
    {
      "midi": 58,
      "hit": false,
      "t": 212307.47999999922,
      "d": 456.7303125000035,
      "v": 62
    },
    {
      "midi": 38,
      "hit": false,
      "t": 212307.47999999922,
      "d": 456.7303125000035,
      "v": 117
    },
    {
      "midi": 52,
      "hit": false,
      "t": 212307.4800000002,
      "d": 225.96131250000326,
      "v": 90
    },
    {
      "midi": 45,
      "hit": false,
      "t": 212307.4800000002,
      "d": 225.96131250000326,
      "v": 107
    },
    {
      "midi": 48,
      "hit": false,
      "t": 212538.24899999922,
      "d": 225.96131250000326,
      "v": 84
    },
    {
      "midi": 45,
      "hit": false,
      "t": 212538.24900000019,
      "d": 225.96131250000326,
      "v": 117
    },
    {
      "midi": 52,
      "hit": false,
      "t": 212538.2490000002,
      "d": 225.96131250000326,
      "v": 73
    },
    {
      "midi": 45,
      "hit": false,
      "t": 212538.2490000002,
      "d": 225.96131250000326,
      "v": 82
    },
    {
      "midi": 44,
      "hit": false,
      "t": 212769.01799999923,
      "d": 225.96131250000326,
      "v": 100
    },
    {
      "midi": 58,
      "hit": false,
      "t": 212769.01799999923,
      "d": 456.7303124999744,
      "v": 71
    },
    {
      "midi": 40,
      "hit": false,
      "t": 212769.01799999923,
      "d": 456.7303124999744,
      "v": 113
    },
    {
      "midi": 33,
      "hit": false,
      "t": 212769.0180000002,
      "d": 225.96131250000326,
      "v": 113
    },
    {
      "midi": 54,
      "hit": false,
      "t": 212769.01800000021,
      "d": 225.96131250000326,
      "v": 85
    },
    {
      "midi": 45,
      "hit": false,
      "t": 212769.01800000021,
      "d": 225.96131250000326,
      "v": 97
    },
    {
      "midi": 44,
      "hit": false,
      "t": 212999.78699999923,
      "d": 110.57681249998859,
      "v": 84
    },
    {
      "midi": 45,
      "hit": false,
      "t": 212999.7870000002,
      "d": 225.96131250000326,
      "v": 110
    },
    {
      "midi": 45,
      "hit": false,
      "t": 212999.78700000021,
      "d": 225.96131250000326,
      "v": 97
    },
    {
      "midi": 52,
      "hit": false,
      "t": 212999.78700000021,
      "d": 225.96131250000326,
      "v": 80
    },
    {
      "midi": 64,
      "hit": false,
      "t": 213017.09467499805,
      "d": 268.2689624999766,
      "v": 94
    },
    {
      "midi": 68,
      "hit": false,
      "t": 213018.05621249805,
      "d": 817.3068749999802,
      "v": 92
    },
    {
      "midi": 71,
      "hit": false,
      "t": 213036.32542499804,
      "d": 824.9991749999754,
      "v": 90
    },
    {
      "midi": 44,
      "hit": false,
      "t": 213115.1714999992,
      "d": 110.57681249998859,
      "v": 89
    },
    {
      "midi": 44,
      "hit": false,
      "t": 213230.5559999992,
      "d": 225.96131250000326,
      "v": 100
    },
    {
      "midi": 58,
      "hit": false,
      "t": 213230.5559999992,
      "d": 456.7303125000035,
      "v": 69
    },
    {
      "midi": 38,
      "hit": false,
      "t": 213230.5559999992,
      "d": 456.7303125000035,
      "v": 113
    },
    {
      "midi": 45,
      "hit": false,
      "t": 213230.5560000002,
      "d": 225.96131250000326,
      "v": 113
    },
    {
      "midi": 52,
      "hit": false,
      "t": 213230.55600000022,
      "d": 225.96131250000326,
      "v": 82
    },
    {
      "midi": 45,
      "hit": false,
      "t": 213230.55600000022,
      "d": 225.96131250000326,
      "v": 99
    },
    {
      "midi": 64,
      "hit": false,
      "t": 213455.55577499804,
      "d": 293.26893749999,
      "v": 92
    },
    {
      "midi": 48,
      "hit": false,
      "t": 213461.3249999992,
      "d": 225.96131250000326,
      "v": 84
    },
    {
      "midi": 45,
      "hit": false,
      "t": 213461.3250000002,
      "d": 225.96131250000326,
      "v": 120
    },
    {
      "midi": 45,
      "hit": false,
      "t": 213461.32500000022,
      "d": 225.96131250000326,
      "v": 97
    },
    {
      "midi": 52,
      "hit": false,
      "t": 213461.32500000022,
      "d": 225.96131250000326,
      "v": 88
    },
    {
      "midi": 44,
      "hit": false,
      "t": 213692.0939999992,
      "d": 225.96131250000326,
      "v": 104
    },
    {
      "midi": 58,
      "hit": false,
      "t": 213692.0939999992,
      "d": 456.7303125000035,
      "v": 77
    },
    {
      "midi": 40,
      "hit": false,
      "t": 213692.0939999992,
      "d": 456.7303125000035,
      "v": 120
    },
    {
      "midi": 37,
      "hit": false,
      "t": 213692.0940000002,
      "d": 225.96131250000326,
      "v": 107
    },
    {
      "midi": 45,
      "hit": false,
      "t": 213692.09400000022,
      "d": 225.96131250000326,
      "v": 107
    },
    {
      "midi": 54,
      "hit": false,
      "t": 213692.09400000022,
      "d": 225.96131250000326,
      "v": 94
    },
    {
      "midi": 76,
      "hit": false,
      "t": 213696.90168749803,
      "d": 151.92292499999166,
      "v": 85
    },
    {
      "midi": 48,
      "hit": false,
      "t": 213922.8629999992,
      "d": 225.96131250000326,
      "v": 96
    },
    {
      "midi": 38,
      "hit": false,
      "t": 213922.8630000002,
      "d": 225.96131250000326,
      "v": 113
    },
    {
      "midi": 52,
      "hit": false,
      "t": 213922.86300000022,
      "d": 225.96131250000326,
      "v": 97
    },
    {
      "midi": 45,
      "hit": false,
      "t": 213922.86300000022,
      "d": 225.96131250000326,
      "v": 107
    },
    {
      "midi": 44,
      "hit": false,
      "t": 214153.6319999992,
      "d": 225.96131250000326,
      "v": 89
    },
    {
      "midi": 58,
      "hit": false,
      "t": 214153.6319999992,
      "d": 456.7303125000035,
      "v": 84
    },
    {
      "midi": 38,
      "hit": false,
      "t": 214153.6319999992,
      "d": 456.7303125000035,
      "v": 117
    },
    {
      "midi": 40,
      "hit": false,
      "t": 214153.6320000002,
      "d": 687.4993125000037,
      "v": 113
    },
    {
      "midi": 50,
      "hit": false,
      "t": 214153.63200000022,
      "d": 225.96131250000326,
      "v": 104
    },
    {
      "midi": 57,
      "hit": false,
      "t": 214153.63200000022,
      "d": 225.96131250000326,
      "v": 92
    },
    {
      "midi": 62,
      "hit": false,
      "t": 214164.20891249803,
      "d": 1000.9605374999519,
      "v": 97
    },
    {
      "midi": 66,
      "hit": false,
      "t": 214165.17044999803,
      "d": 1120.1911874999641,
      "v": 104
    },
    {
      "midi": 69,
      "hit": false,
      "t": 214166.13198749803,
      "d": 1234.6141499999503,
      "v": 97
    },
    {
      "midi": 48,
      "hit": false,
      "t": 214384.4009999992,
      "d": 225.96131250000326,
      "v": 84
    },
    {
      "midi": 50,
      "hit": false,
      "t": 214384.40100000022,
      "d": 225.96131250000326,
      "v": 85
    },
    {
      "midi": 57,
      "hit": false,
      "t": 214384.40100000022,
      "d": 225.96131250000326,
      "v": 80
    },
    {
      "midi": 44,
      "hit": false,
      "t": 214615.1699999992,
      "d": 225.96131250000326,
      "v": 100
    },
    {
      "midi": 58,
      "hit": false,
      "t": 214615.1699999992,
      "d": 456.7303124999744,
      "v": 75
    },
    {
      "midi": 40,
      "hit": false,
      "t": 214615.1699999992,
      "d": 456.7303124999744,
      "v": 113
    },
    {
      "midi": 59,
      "hit": false,
      "t": 214615.17000000022,
      "d": 225.96131250000326,
      "v": 83
    },
    {
      "midi": 50,
      "hit": false,
      "t": 214615.17000000022,
      "d": 225.96131250000326,
      "v": 97
    },
    {
      "midi": 44,
      "hit": false,
      "t": 214845.9389999992,
      "d": 110.57681249998859,
      "v": 84
    },
    {
      "midi": 40,
      "hit": false,
      "t": 214845.9390000002,
      "d": 225.96131250000326,
      "v": 117
    },
    {
      "midi": 50,
      "hit": false,
      "t": 214845.93900000022,
      "d": 225.96131250000326,
      "v": 94
    },
    {
      "midi": 57,
      "hit": false,
      "t": 214845.93900000022,
      "d": 225.96131250000326,
      "v": 74
    },
    {
      "midi": 44,
      "hit": false,
      "t": 214961.32349999918,
      "d": 110.57681249998859,
      "v": 89
    },
    {
      "midi": 40,
      "hit": false,
      "t": 215076.70799999917,
      "d": 225.96131250000326,
      "v": 104
    },
    {
      "midi": 44,
      "hit": false,
      "t": 215076.70799999917,
      "d": 225.96131250000326,
      "v": 100
    },
    {
      "midi": 38,
      "hit": false,
      "t": 215076.70799999917,
      "d": 456.7303125000035,
      "v": 113
    },
    {
      "midi": 58,
      "hit": false,
      "t": 215076.70799999917,
      "d": 456.7303125000035,
      "v": 79
    },
    {
      "midi": 47,
      "hit": false,
      "t": 215076.7080000002,
      "d": 225.96131250000326,
      "v": 99
    },
    {
      "midi": 57,
      "hit": false,
      "t": 215076.70800000022,
      "d": 225.96131250000326,
      "v": 83
    },
    {
      "midi": 50,
      "hit": false,
      "t": 215076.70800000022,
      "d": 225.96131250000326,
      "v": 94
    },
    {
      "midi": 74,
      "hit": false,
      "t": 215100.746437498,
      "d": 486.5379749999847,
      "v": 76
    },
    {
      "midi": 40,
      "hit": false,
      "t": 215307.47699999917,
      "d": 225.96131250000326,
      "v": 104
    },
    {
      "midi": 48,
      "hit": false,
      "t": 215307.47699999917,
      "d": 225.96131250000326,
      "v": 84
    },
    {
      "midi": 50,
      "hit": false,
      "t": 215307.4770000002,
      "d": 225.96131250000326,
      "v": 117
    },
    {
      "midi": 50,
      "hit": false,
      "t": 215307.47700000022,
      "d": 225.96131250000326,
      "v": 90
    },
    {
      "midi": 57,
      "hit": false,
      "t": 215307.47700000022,
      "d": 225.96131250000326,
      "v": 73
    },
    {
      "midi": 62,
      "hit": false,
      "t": 215323.823137498,
      "d": 299.99969999998575,
      "v": 94
    },
    {
      "midi": 66,
      "hit": false,
      "t": 215523.822937498,
      "d": 137.49986250000075,
      "v": 85
    },
    {
      "midi": 40,
      "hit": false,
      "t": 215538.24599999917,
      "d": 225.96131250000326,
      "v": 117
    },
    {
      "midi": 44,
      "hit": false,
      "t": 215538.24599999917,
      "d": 225.96131250000326,
      "v": 104
    },
    {
      "midi": 58,
      "hit": false,
      "t": 215538.24599999917,
      "d": 456.7303125000035,
      "v": 71
    },
    {
      "midi": 51,
      "hit": false,
      "t": 215538.2460000002,
      "d": 225.96131250000326,
      "v": 92
    },
    {
      "midi": 59,
      "hit": false,
      "t": 215538.24600000022,
      "d": 225.96131250000326,
      "v": 86
    },
    {
      "midi": 50,
      "hit": false,
      "t": 215538.24600000022,
      "d": 225.96131250000326,
      "v": 99
    },
    {
      "midi": 64,
      "hit": false,
      "t": 215760.36116249798,
      "d": 402.8842124999501,
      "v": 94
    },
    {
      "midi": 68,
      "hit": false,
      "t": 215761.32269999798,
      "d": 1463.4600749998935,
      "v": 97
    },
    {
      "midi": 38,
      "hit": false,
      "t": 215769.01499999917,
      "d": 225.96131250000326,
      "v": 120
    },
    {
      "midi": 48,
      "hit": false,
      "t": 215769.01499999917,
      "d": 225.96131250000326,
      "v": 96
    },
    {
      "midi": 59,
      "hit": false,
      "t": 215769.01499999917,
      "d": 225.96131250000326,
      "v": 113
    },
    {
      "midi": 52,
      "hit": false,
      "t": 215769.0150000002,
      "d": 456.7303125000035,
      "v": 117
    },
    {
      "midi": 52,
      "hit": false,
      "t": 215769.01500000022,
      "d": 225.96131250000326,
      "v": 113
    },
    {
      "midi": 59,
      "hit": false,
      "t": 215769.01500000022,
      "d": 225.96131250000326,
      "v": 88
    },
    {
      "midi": 71,
      "hit": false,
      "t": 215779.59191249797,
      "d": 1457.6908499998972,
      "v": 97
    },
    {
      "midi": 58,
      "hit": false,
      "t": 215994.97631249917,
      "d": 4.807687499996973,
      "v": 104
    },
    {
      "midi": 44,
      "hit": false,
      "t": 215999.78399999917,
      "d": 225.96131250000326,
      "v": 89
    },
    {
      "midi": 58,
      "hit": false,
      "t": 215999.78399999917,
      "d": 456.7303125000035,
      "v": 100
    },
    {
      "midi": 59,
      "hit": false,
      "t": 215999.78400000022,
      "d": 225.96131250000326,
      "v": 92
    },
    {
      "midi": 52,
      "hit": false,
      "t": 215999.78400000022,
      "d": 225.96131250000326,
      "v": 97
    },
    {
      "midi": 64,
      "hit": false,
      "t": 216223.82223749792,
      "d": 310.5766124999791,
      "v": 85
    },
    {
      "midi": 44,
      "hit": false,
      "t": 216230.55299999917,
      "d": 225.96131250000326,
      "v": 86
    },
    {
      "midi": 40,
      "hit": false,
      "t": 216230.55299999917,
      "d": 225.96131250000326,
      "v": 50
    },
    {
      "midi": 40,
      "hit": false,
      "t": 216230.5530000002,
      "d": 456.7303125000035,
      "v": 104
    },
    {
      "midi": 59,
      "hit": false,
      "t": 216230.55300000022,
      "d": 225.96131250000326,
      "v": 85
    },
    {
      "midi": 52,
      "hit": false,
      "t": 216230.55300000022,
      "d": 225.96131250000326,
      "v": 79
    },
    {
      "midi": 76,
      "hit": false,
      "t": 216448.8220124979,
      "d": 232.69207499999902,
      "v": 78
    },
    {
      "midi": 44,
      "hit": false,
      "t": 216461.32199999917,
      "d": 225.96131250000326,
      "v": 84
    },
    {
      "midi": 40,
      "hit": false,
      "t": 216461.32199999917,
      "d": 225.96131250000326,
      "v": 65
    },
    {
      "midi": 58,
      "hit": false,
      "t": 216461.32199999917,
      "d": 456.7303125000035,
      "v": 96
    },
    {
      "midi": 52,
      "hit": false,
      "t": 216461.32200000022,
      "d": 225.96131250000326,
      "v": 99
    },
    {
      "midi": 61,
      "hit": false,
      "t": 216461.32200000022,
      "d": 225.96131250000326,
      "v": 83
    },
    {
      "midi": 44,
      "hit": false,
      "t": 216692.09099999917,
      "d": 225.96131250000326,
      "v": 73
    },
    {
      "midi": 40,
      "hit": false,
      "t": 216692.09099999917,
      "d": 225.96131250000326,
      "v": 76
    },
    {
      "midi": 40,
      "hit": false,
      "t": 216692.0910000002,
      "d": 225.96131250000326,
      "v": 101
    },
    {
      "midi": 52,
      "hit": false,
      "t": 216692.09100000022,
      "d": 225.96131250000326,
      "v": 88
    },
    {
      "midi": 59,
      "hit": false,
      "t": 216692.09100000022,
      "d": 225.96131250000326,
      "v": 83
    },
    {
      "midi": 64,
      "hit": false,
      "t": 216694.9756124979,
      "d": 269.2305000000051,
      "v": 92
    },
    {
      "midi": 38,
      "hit": false,
      "t": 216922.85999999917,
      "d": 225.96131250000326,
      "v": 117
    },
    {
      "midi": 40,
      "hit": false,
      "t": 216922.85999999917,
      "d": 225.96131250000326,
      "v": 93
    },
    {
      "midi": 44,
      "hit": false,
      "t": 216922.85999999917,
      "d": 225.96131250000326,
      "v": 92
    },
    {
      "midi": 58,
      "hit": false,
      "t": 216922.85999999917,
      "d": 456.7303125000035,
      "v": 100
    },
    {
      "midi": 42,
      "hit": false,
      "t": 216922.8600000002,
      "d": 225.96131250000326,
      "v": 110
    },
    {
      "midi": 59,
      "hit": false,
      "t": 216922.86000000022,
      "d": 225.96131250000326,
      "v": 79
    },
    {
      "midi": 52,
      "hit": false,
      "t": 216922.86000000022,
      "d": 225.96131250000326,
      "v": 85
    },
    {
      "midi": 76,
      "hit": false,
      "t": 216938.24459999788,
      "d": 248.07667499998934,
      "v": 79
    },
    {
      "midi": 48,
      "hit": false,
      "t": 217153.62899999917,
      "d": 225.96131250000326,
      "v": 86
    },
    {
      "midi": 40,
      "hit": false,
      "t": 217153.62899999917,
      "d": 225.96131250000326,
      "v": 110
    },
    {
      "midi": 40,
      "hit": false,
      "t": 217153.6290000002,
      "d": 225.96131250000326,
      "v": 101
    },
    {
      "midi": 59,
      "hit": false,
      "t": 217153.62900000022,
      "d": 225.96131250000326,
      "v": 82
    },
    {
      "midi": 52,
      "hit": false,
      "t": 217153.62900000022,
      "d": 225.96131250000326,
      "v": 86
    },
    {
      "midi": 64,
      "hit": false,
      "t": 217170.93667499788,
      "d": 140.38447499999893,
      "v": 83
    },
    {
      "midi": 40,
      "hit": false,
      "t": 217384.39799999917,
      "d": 100.96143749999464,
      "v": 117
    },
    {
      "midi": 44,
      "hit": false,
      "t": 217384.39799999917,
      "d": 225.96131250000326,
      "v": 84
    },
    {
      "midi": 58,
      "hit": false,
      "t": 217384.39799999917,
      "d": 456.7303125000035,
      "v": 100
    },
    {
      "midi": 37,
      "hit": false,
      "t": 217384.3980000002,
      "d": 225.96131250000326,
      "v": 117
    },
    {
      "midi": 52,
      "hit": false,
      "t": 217384.39800000022,
      "d": 225.96131250000326,
      "v": 94
    },
    {
      "midi": 61,
      "hit": false,
      "t": 217384.39800000022,
      "d": 225.96131250000326,
      "v": 85
    },
    {
      "midi": 48,
      "hit": false,
      "t": 217615.16699999917,
      "d": 225.96131250000326,
      "v": 89
    },
    {
      "midi": 47,
      "hit": false,
      "t": 217615.16699999917,
      "d": 225.96131250000326,
      "v": 120
    },
    {
      "midi": 35,
      "hit": false,
      "t": 217615.1670000002,
      "d": 225.96131250000326,
      "v": 110
    },
    {
      "midi": 52,
      "hit": false,
      "t": 217615.16700000022,
      "d": 225.96131250000326,
      "v": 99
    },
    {
      "midi": 59,
      "hit": false,
      "t": 217615.16700000022,
      "d": 225.96131250000326,
      "v": 90
    },
    {
      "midi": 42,
      "hit": false,
      "t": 217845.93599999917,
      "d": 225.96131250000326,
      "v": 89
    },
    {
      "midi": 57,
      "hit": false,
      "t": 217845.93599999917,
      "d": 225.96131250000326,
      "v": 110
    },
    {
      "midi": 36,
      "hit": false,
      "t": 217845.93599999917,
      "d": 456.7303125000035,
      "v": 113
    },
    {
      "midi": 64,
      "hit": false,
      "t": 217845.936,
      "d": 225.96131250000326,
      "v": 80
    },
    {
      "midi": 61,
      "hit": false,
      "t": 217845.936,
      "d": 225.96131250000326,
      "v": 73
    },
    {
      "midi": 57,
      "hit": false,
      "t": 217845.936,
      "d": 225.96131250000326,
      "v": 75
    },
    {
      "midi": 76,
      "hit": false,
      "t": 217845.93600000002,
      "d": 225.96131250000326,
      "v": 113
    },
    {
      "midi": 64,
      "hit": false,
      "t": 217845.93600000002,
      "d": 225.96131250000326,
      "v": 92
    },
    {
      "midi": 73,
      "hit": false,
      "t": 217845.93600000002,
      "d": 225.96131250000326,
      "v": 94
    },
    {
      "midi": 45,
      "hit": false,
      "t": 217845.9360000002,
      "d": 456.7303125000035,
      "v": 104
    },
    {
      "midi": 45,
      "hit": false,
      "t": 217845.93600000022,
      "d": 225.96131250000326,
      "v": 101
    },
    {
      "midi": 52,
      "hit": false,
      "t": 217845.93600000022,
      "d": 225.96131250000326,
      "v": 86
    },
    {
      "midi": 57,
      "hit": false,
      "t": 218049.78194999788,
      "d": 157.69214999998803,
      "v": 66
    },
    {
      "midi": 61,
      "hit": false,
      "t": 218049.78194999788,
      "d": 158.65368749998743,
      "v": 66
    },
    {
      "midi": 64,
      "hit": false,
      "t": 218051.70502499788,
      "d": 153.84599999999045,
      "v": 75
    },
    {
      "midi": 42,
      "hit": false,
      "t": 218076.70499999917,
      "d": 225.96131250000326,
      "v": 81
    },
    {
      "midi": 64,
      "hit": false,
      "t": 218076.705,
      "d": 225.96131250000326,
      "v": 74
    },
    {
      "midi": 57,
      "hit": false,
      "t": 218076.705,
      "d": 225.96131250000326,
      "v": 69
    },
    {
      "midi": 61,
      "hit": false,
      "t": 218076.705,
      "d": 225.96131250000326,
      "v": 67
    },
    {
      "midi": 76,
      "hit": false,
      "t": 218076.70500000002,
      "d": 225.96131250000326,
      "v": 113
    },
    {
      "midi": 64,
      "hit": false,
      "t": 218076.70500000002,
      "d": 225.96131250000326,
      "v": 97
    },
    {
      "midi": 73,
      "hit": false,
      "t": 218076.70500000002,
      "d": 225.96131250000326,
      "v": 94
    },
    {
      "midi": 52,
      "hit": false,
      "t": 218076.70500000022,
      "d": 225.96131250000326,
      "v": 85
    },
    {
      "midi": 45,
      "hit": false,
      "t": 218076.70500000022,
      "d": 225.96131250000326,
      "v": 97
    },
    {
      "midi": 57,
      "hit": false,
      "t": 218306.51246249786,
      "d": 151.92292499999166,
      "v": 78
    },
    {
      "midi": 62,
      "hit": false,
      "t": 218307.47399999786,
      "d": 138.46140000000014,
      "v": 85
    },
    {
      "midi": 42,
      "hit": false,
      "t": 218307.47399999917,
      "d": 225.96131250000326,
      "v": 84
    },
    {
      "midi": 38,
      "hit": false,
      "t": 218307.47399999917,
      "d": 225.96131250000326,
      "v": 113
    },
    {
      "midi": 57,
      "hit": false,
      "t": 218307.474,
      "d": 225.96131250000326,
      "v": 73
    },
    {
      "midi": 66,
      "hit": false,
      "t": 218307.474,
      "d": 225.96131250000326,
      "v": 72
    },
    {
      "midi": 62,
      "hit": false,
      "t": 218307.474,
      "d": 225.96131250000326,
      "v": 72
    },
    {
      "midi": 78,
      "hit": false,
      "t": 218307.47400000002,
      "d": 225.96131250000326,
      "v": 101
    },
    {
      "midi": 66,
      "hit": false,
      "t": 218307.47400000002,
      "d": 225.96131250000326,
      "v": 99
    },
    {
      "midi": 74,
      "hit": false,
      "t": 218307.47400000002,
      "d": 225.96131250000326,
      "v": 99
    },
    {
      "midi": 45,
      "hit": false,
      "t": 218307.47400000022,
      "d": 225.96131250000326,
      "v": 101
    },
    {
      "midi": 54,
      "hit": false,
      "t": 218307.47400000022,
      "d": 225.96131250000326,
      "v": 94
    },
    {
      "midi": 66,
      "hit": false,
      "t": 218309.39707499786,
      "d": 121.15372500001104,
      "v": 86
    },
    {
      "midi": 42,
      "hit": false,
      "t": 218538.24299999917,
      "d": 225.96131250000326,
      "v": 86
    },
    {
      "midi": 36,
      "hit": false,
      "t": 218538.24299999917,
      "d": 225.96131250000326,
      "v": 123
    },
    {
      "midi": 64,
      "hit": false,
      "t": 218538.243,
      "d": 918.268312500004,
      "v": 85
    },
    {
      "midi": 61,
      "hit": false,
      "t": 218538.243,
      "d": 918.268312500004,
      "v": 80
    },
    {
      "midi": 57,
      "hit": false,
      "t": 218538.243,
      "d": 918.268312500004,
      "v": 82
    },
    {
      "midi": 76,
      "hit": false,
      "t": 218538.24300000002,
      "d": 918.268312500004,
      "v": 101
    },
    {
      "midi": 64,
      "hit": false,
      "t": 218538.24300000002,
      "d": 918.268312500004,
      "v": 99
    },
    {
      "midi": 73,
      "hit": false,
      "t": 218538.24300000002,
      "d": 918.268312500004,
      "v": 99
    },
    {
      "midi": 45,
      "hit": false,
      "t": 218538.2430000002,
      "d": 225.96131250000326,
      "v": 110
    },
    {
      "midi": 52,
      "hit": false,
      "t": 218538.24300000022,
      "d": 225.96131250000326,
      "v": 97
    },
    {
      "midi": 45,
      "hit": false,
      "t": 218538.24300000022,
      "d": 225.96131250000326,
      "v": 94
    },
    {
      "midi": 57,
      "hit": false,
      "t": 218543.05068749786,
      "d": 818.2684124999505,
      "v": 86
    },
    {
      "midi": 61,
      "hit": false,
      "t": 218544.01222499786,
      "d": 574.999424999929,
      "v": 94
    },
    {
      "midi": 64,
      "hit": false,
      "t": 218558.43528749785,
      "d": 548.076374999946,
      "v": 88
    },
    {
      "midi": 42,
      "hit": false,
      "t": 218769.01199999917,
      "d": 225.96131250000326,
      "v": 92
    },
    {
      "midi": 36,
      "hit": false,
      "t": 218769.01199999917,
      "d": 456.7303125000035,
      "v": 110
    },
    {
      "midi": 45,
      "hit": false,
      "t": 218769.0120000002,
      "d": 456.7303125000035,
      "v": 110
    },
    {
      "midi": 52,
      "hit": false,
      "t": 218769.01200000022,
      "d": 225.96131250000326,
      "v": 97
    },
    {
      "midi": 45,
      "hit": false,
      "t": 218769.01200000022,
      "d": 225.96131250000326,
      "v": 94
    },
    {
      "midi": 46,
      "hit": false,
      "t": 218999.78099999917,
      "d": 225.96131250000326,
      "v": 89
    },
    {
      "midi": 52,
      "hit": false,
      "t": 218999.78100000022,
      "d": 225.96131250000326,
      "v": 90
    },
    {
      "midi": 45,
      "hit": false,
      "t": 218999.78100000022,
      "d": 225.96131250000326,
      "v": 97
    },
    {
      "midi": 66,
      "hit": false,
      "t": 219193.0500374978,
      "d": 117.30757500001346,
      "v": 92
    },
    {
      "midi": 62,
      "hit": false,
      "t": 219194.0115749978,
      "d": 115.38450000001467,
      "v": 75
    },
    {
      "midi": 64,
      "hit": false,
      "t": 219194.9731124978,
      "d": 36.5384250000061,
      "v": 66
    },
    {
      "midi": 42,
      "hit": false,
      "t": 219230.54999999917,
      "d": 225.96131250000326,
      "v": 92
    },
    {
      "midi": 38,
      "hit": false,
      "t": 219230.54999999917,
      "d": 225.96131250000326,
      "v": 110
    },
    {
      "midi": 45,
      "hit": false,
      "t": 219230.55000000022,
      "d": 225.96131250000326,
      "v": 101
    },
    {
      "midi": 54,
      "hit": false,
      "t": 219230.55000000022,
      "d": 225.96131250000326,
      "v": 94
    },
    {
      "midi": 57,
      "hit": false,
      "t": 219410.3575124978,
      "d": 660.5762624999625,
      "v": 65
    },
    {
      "midi": 61,
      "hit": false,
      "t": 219413.2421249978,
      "d": 658.6531874999637,
      "v": 82
    },
    {
      "midi": 64,
      "hit": false,
      "t": 219432.4728749978,
      "d": 624.9993749999849,
      "v": 92
    },
    {
      "midi": 42,
      "hit": false,
      "t": 219461.31899999917,
      "d": 225.96131250000326,
      "v": 79
    },
    {
      "midi": 36,
      "hit": false,
      "t": 219461.31899999917,
      "d": 225.96131250000326,
      "v": 120
    },
    {
      "midi": 45,
      "hit": false,
      "t": 219461.3190000002,
      "d": 225.96131250000326,
      "v": 110
    },
    {
      "midi": 52,
      "hit": false,
      "t": 219461.31900000022,
      "d": 225.96131250000326,
      "v": 97
    },
    {
      "midi": 45,
      "hit": false,
      "t": 219461.31900000022,
      "d": 225.96131250000326,
      "v": 99
    },
    {
      "midi": 42,
      "hit": false,
      "t": 219692.08799999917,
      "d": 225.96131250000326,
      "v": 89
    },
    {
      "midi": 36,
      "hit": false,
      "t": 219692.08799999917,
      "d": 456.7303125000035,
      "v": 113
    },
    {
      "midi": 64,
      "hit": false,
      "t": 219692.088,
      "d": 225.96131250000326,
      "v": 75
    },
    {
      "midi": 61,
      "hit": false,
      "t": 219692.088,
      "d": 225.96131250000326,
      "v": 67
    },
    {
      "midi": 57,
      "hit": false,
      "t": 219692.088,
      "d": 225.96131250000326,
      "v": 71
    },
    {
      "midi": 73,
      "hit": false,
      "t": 219692.08800000002,
      "d": 225.96131250000326,
      "v": 104
    },
    {
      "midi": 69,
      "hit": false,
      "t": 219692.08800000002,
      "d": 225.96131250000326,
      "v": 97
    },
    {
      "midi": 61,
      "hit": false,
      "t": 219692.08800000002,
      "d": 225.96131250000326,
      "v": 94
    },
    {
      "midi": 45,
      "hit": false,
      "t": 219692.0880000002,
      "d": 456.7303125000035,
      "v": 104
    },
    {
      "midi": 45,
      "hit": false,
      "t": 219692.08800000022,
      "d": 225.96131250000326,
      "v": 99
    },
    {
      "midi": 52,
      "hit": false,
      "t": 219692.08800000022,
      "d": 225.96131250000326,
      "v": 92
    },
    {
      "midi": 42,
      "hit": false,
      "t": 219922.85699999917,
      "d": 225.96131250000326,
      "v": 66
    },
    {
      "midi": 64,
      "hit": false,
      "t": 219922.857,
      "d": 225.96131250000326,
      "v": 75
    },
    {
      "midi": 57,
      "hit": false,
      "t": 219922.857,
      "d": 225.96131250000326,
      "v": 74
    },
    {
      "midi": 61,
      "hit": false,
      "t": 219922.857,
      "d": 225.96131250000326,
      "v": 68
    },
    {
      "midi": 73,
      "hit": false,
      "t": 219922.85700000002,
      "d": 225.96131250000326,
      "v": 107
    },
    {
      "midi": 61,
      "hit": false,
      "t": 219922.85700000002,
      "d": 225.96131250000326,
      "v": 99
    },
    {
      "midi": 69,
      "hit": false,
      "t": 219922.85700000002,
      "d": 225.96131250000326,
      "v": 99
    },
    {
      "midi": 52,
      "hit": false,
      "t": 219922.85700000022,
      "d": 225.96131250000326,
      "v": 94
    },
    {
      "midi": 45,
      "hit": false,
      "t": 219922.85700000022,
      "d": 225.96131250000326,
      "v": 101
    },
    {
      "midi": 38,
      "hit": false,
      "t": 220153.62599999917,
      "d": 225.96131250000326,
      "v": 107
    },
    {
      "midi": 42,
      "hit": false,
      "t": 220153.62599999917,
      "d": 225.96131250000326,
      "v": 62
    },
    {
      "midi": 66,
      "hit": false,
      "t": 220153.626,
      "d": 225.96131250000326,
      "v": 74
    },
    {
      "midi": 62,
      "hit": false,
      "t": 220153.626,
      "d": 225.96131250000326,
      "v": 68
    },
    {
      "midi": 57,
      "hit": false,
      "t": 220153.626,
      "d": 225.96131250000326,
      "v": 74
    },
    {
      "midi": 74,
      "hit": false,
      "t": 220153.62600000002,
      "d": 225.96131250000326,
      "v": 110
    },
    {
      "midi": 71,
      "hit": false,
      "t": 220153.62600000002,
      "d": 225.96131250000326,
      "v": 94
    },
    {
      "midi": 62,
      "hit": false,
      "t": 220153.62600000002,
      "d": 225.96131250000326,
      "v": 99
    },
    {
      "midi": 54,
      "hit": false,
      "t": 220153.62600000022,
      "d": 225.96131250000326,
      "v": 86
    },
    {
      "midi": 45,
      "hit": false,
      "t": 220153.62600000022,
      "d": 225.96131250000326,
      "v": 101
    },
    {
      "midi": 62,
      "hit": false,
      "t": 220194.97211249778,
      "d": 98.07682500002556,
      "v": 90
    },
    {
      "midi": 57,
      "hit": false,
      "t": 220195.93364999778,
      "d": 98.07682500002556,
      "v": 88
    },
    {
      "midi": 66,
      "hit": false,
      "t": 220196.89518749778,
      "d": 96.15375000002678,
      "v": 88
    },
    {
      "midi": 36,
      "hit": false,
      "t": 220384.39499999917,
      "d": 225.96131250000326,
      "v": 110
    },
    {
      "midi": 42,
      "hit": false,
      "t": 220384.39499999917,
      "d": 225.96131250000326,
      "v": 59
    },
    {
      "midi": 57,
      "hit": false,
      "t": 220384.395,
      "d": 918.268312500004,
      "v": 76
    },
    {
      "midi": 64,
      "hit": false,
      "t": 220384.395,
      "d": 918.268312500004,
      "v": 82
    },
    {
      "midi": 61,
      "hit": false,
      "t": 220384.395,
      "d": 918.268312500004,
      "v": 72
    },
    {
      "midi": 73,
      "hit": false,
      "t": 220384.39500000002,
      "d": 918.268312500004,
      "v": 110
    },
    {
      "midi": 61,
      "hit": false,
      "t": 220384.39500000002,
      "d": 918.268312500004,
      "v": 99
    },
    {
      "midi": 69,
      "hit": false,
      "t": 220384.39500000002,
      "d": 918.268312500004,
      "v": 99
    },
    {
      "midi": 45,
      "hit": false,
      "t": 220384.3950000002,
      "d": 225.96131250000326,
      "v": 101
    },
    {
      "midi": 52,
      "hit": false,
      "t": 220384.39500000022,
      "d": 225.96131250000326,
      "v": 97
    },
    {
      "midi": 45,
      "hit": false,
      "t": 220384.39500000022,
      "d": 225.96131250000326,
      "v": 101
    },
    {
      "midi": 57,
      "hit": false,
      "t": 220405.5488249978,
      "d": 383.6534624999622,
      "v": 82
    },
    {
      "midi": 61,
      "hit": false,
      "t": 220406.5103624978,
      "d": 383.6534624999622,
      "v": 92
    },
    {
      "midi": 64,
      "hit": false,
      "t": 220407.4718999978,
      "d": 380.768849999964,
      "v": 101
    },
    {
      "midi": 42,
      "hit": false,
      "t": 220615.16399999917,
      "d": 225.96131250000326,
      "v": 96
    },
    {
      "midi": 36,
      "hit": false,
      "t": 220615.16399999917,
      "d": 456.7303125000035,
      "v": 117
    },
    {
      "midi": 45,
      "hit": false,
      "t": 220615.1640000002,
      "d": 225.96131250000326,
      "v": 117
    },
    {
      "midi": 52,
      "hit": false,
      "t": 220615.16400000022,
      "d": 225.96131250000326,
      "v": 90
    },
    {
      "midi": 45,
      "hit": false,
      "t": 220615.16400000022,
      "d": 225.96131250000326,
      "v": 97
    },
    {
      "midi": 42,
      "hit": false,
      "t": 220845.93299999918,
      "d": 225.96131250000326,
      "v": 79
    },
    {
      "midi": 45,
      "hit": false,
      "t": 220845.9330000002,
      "d": 225.96131250000326,
      "v": 101
    },
    {
      "midi": 52,
      "hit": false,
      "t": 220845.93300000022,
      "d": 225.96131250000326,
      "v": 92
    },
    {
      "midi": 45,
      "hit": false,
      "t": 220845.93300000022,
      "d": 225.96131250000326,
      "v": 101
    },
    {
      "midi": 57,
      "hit": false,
      "t": 220901.70217499774,
      "d": 90.38452500003041,
      "v": 86
    },
    {
      "midi": 61,
      "hit": false,
      "t": 220901.70217499774,
      "d": 91.3460625000298,
      "v": 92
    },
    {
      "midi": 64,
      "hit": false,
      "t": 220904.58678749774,
      "d": 86.53837500003283,
      "v": 94
    },
    {
      "midi": 38,
      "hit": false,
      "t": 221076.70199999918,
      "d": 225.96131250000326,
      "v": 107
    },
    {
      "midi": 42,
      "hit": false,
      "t": 221076.70199999918,
      "d": 225.96131250000326,
      "v": 64
    },
    {
      "midi": 42,
      "hit": false,
      "t": 221076.7020000002,
      "d": 225.96131250000326,
      "v": 110
    },
    {
      "midi": 54,
      "hit": false,
      "t": 221076.70200000022,
      "d": 225.96131250000326,
      "v": 99
    },
    {
      "midi": 45,
      "hit": false,
      "t": 221076.70200000022,
      "d": 225.96131250000326,
      "v": 104
    },
    {
      "midi": 57,
      "hit": false,
      "t": 221104.58658749776,
      "d": 118.26911249992554,
      "v": 82
    },
    {
      "midi": 66,
      "hit": false,
      "t": 221105.54812499776,
      "d": 90.3845249999431,
      "v": 90
    },
    {
      "midi": 62,
      "hit": false,
      "t": 221106.50966249776,
      "d": 103.84604999993462,
      "v": 90
    },
    {
      "midi": 36,
      "hit": false,
      "t": 221307.47099999918,
      "d": 225.96131250000326,
      "v": 99
    },
    {
      "midi": 42,
      "hit": false,
      "t": 221307.47099999918,
      "d": 225.96131250000326,
      "v": 77
    },
    {
      "midi": 40,
      "hit": false,
      "t": 221307.4710000002,
      "d": 225.96131250000326,
      "v": 120
    },
    {
      "midi": 52,
      "hit": false,
      "t": 221307.47100000022,
      "d": 225.96131250000326,
      "v": 99
    },
    {
      "midi": 45,
      "hit": false,
      "t": 221307.47100000022,
      "d": 225.96131250000326,
      "v": 99
    },
    {
      "midi": 61,
      "hit": false,
      "t": 221309.3940749977,
      "d": 492.307199999952,
      "v": 92
    },
    {
      "midi": 57,
      "hit": false,
      "t": 221311.3171499977,
      "d": 503.8456499999447,
      "v": 79
    },
    {
      "midi": 64,
      "hit": false,
      "t": 221312.2786874977,
      "d": 488.4610499999544,
      "v": 101
    },
    {
      "midi": 42,
      "hit": false,
      "t": 221538.23999999918,
      "d": 225.96131250000326,
      "v": 92
    },
    {
      "midi": 36,
      "hit": false,
      "t": 221538.23999999918,
      "d": 456.7303125000035,
      "v": 110
    },
    {
      "midi": 64,
      "hit": false,
      "t": 221538.24,
      "d": 225.96131250000326,
      "v": 72
    },
    {
      "midi": 61,
      "hit": false,
      "t": 221538.24,
      "d": 225.96131250000326,
      "v": 68
    },
    {
      "midi": 57,
      "hit": false,
      "t": 221538.24,
      "d": 225.96131250000326,
      "v": 73
    },
    {
      "midi": 57,
      "hit": false,
      "t": 221538.24000000002,
      "d": 225.96131250000326,
      "v": 97
    },
    {
      "midi": 69,
      "hit": false,
      "t": 221538.24000000002,
      "d": 225.96131250000326,
      "v": 99
    },
    {
      "midi": 45,
      "hit": false,
      "t": 221538.2400000002,
      "d": 456.7303125000035,
      "v": 104
    },
    {
      "midi": 52,
      "hit": false,
      "t": 221538.24000000022,
      "d": 225.96131250000326,
      "v": 97
    },
    {
      "midi": 45,
      "hit": false,
      "t": 221538.24000000022,
      "d": 225.96131250000326,
      "v": 99
    },
    {
      "midi": 42,
      "hit": false,
      "t": 221769.00899999918,
      "d": 225.96131250000326,
      "v": 60
    },
    {
      "midi": 64,
      "hit": false,
      "t": 221769.009,
      "d": 225.96131250000326,
      "v": 68
    },
    {
      "midi": 61,
      "hit": false,
      "t": 221769.009,
      "d": 225.96131250000326,
      "v": 66
    },
    {
      "midi": 57,
      "hit": false,
      "t": 221769.009,
      "d": 225.96131250000326,
      "v": 74
    },
    {
      "midi": 69,
      "hit": false,
      "t": 221769.00900000002,
      "d": 225.96131250000326,
      "v": 92
    },
    {
      "midi": 57,
      "hit": false,
      "t": 221769.00900000002,
      "d": 225.96131250000326,
      "v": 92
    },
    {
      "midi": 52,
      "hit": false,
      "t": 221769.00900000022,
      "d": 225.96131250000326,
      "v": 97
    },
    {
      "midi": 45,
      "hit": false,
      "t": 221769.00900000022,
      "d": 225.96131250000326,
      "v": 99
    },
    {
      "midi": 61,
      "hit": false,
      "t": 221862.27813749763,
      "d": 89.42298750000191,
      "v": 78
    },
    {
      "midi": 57,
      "hit": false,
      "t": 221863.23967499763,
      "d": 90.3845250000013,
      "v": 79
    },
    {
      "midi": 64,
      "hit": false,
      "t": 221882.47042499762,
      "d": 70.19223750001402,
      "v": 92
    },
    {
      "midi": 38,
      "hit": false,
      "t": 221999.77799999918,
      "d": 225.96131250000326,
      "v": 110
    },
    {
      "midi": 42,
      "hit": false,
      "t": 221999.77799999918,
      "d": 225.96131250000326,
      "v": 66
    },
    {
      "midi": 64,
      "hit": false,
      "t": 221999.778,
      "d": 225.96131250000326,
      "v": 79
    },
    {
      "midi": 61,
      "hit": false,
      "t": 221999.778,
      "d": 225.96131250000326,
      "v": 75
    },
    {
      "midi": 59,
      "hit": false,
      "t": 221999.778,
      "d": 225.96131250000326,
      "v": 75
    },
    {
      "midi": 71,
      "hit": false,
      "t": 221999.77800000002,
      "d": 225.96131250000326,
      "v": 86
    },
    {
      "midi": 59,
      "hit": false,
      "t": 221999.77800000002,
      "d": 225.96131250000326,
      "v": 97
    },
    {
      "midi": 45,
      "hit": false,
      "t": 221999.77800000022,
      "d": 225.96131250000326,
      "v": 104
    },
    {
      "midi": 54,
      "hit": false,
      "t": 221999.77800000022,
      "d": 225.96131250000326,
      "v": 92
    },
    {
      "midi": 57,
      "hit": false,
      "t": 222053.62409999763,
      "d": 131.73063750003348,
      "v": 71
    },
    {
      "midi": 66,
      "hit": false,
      "t": 222054.58563749763,
      "d": 102.88451250002254,
      "v": 67
    },
    {
      "midi": 62,
      "hit": false,
      "t": 222055.54717499763,
      "d": 102.88451250002254,
      "v": 92
    },
    {
      "midi": 64,
      "hit": false,
      "t": 222056.50871249763,
      "d": 88.46145000003162,
      "v": 90
    },
    {
      "midi": 36,
      "hit": false,
      "t": 222230.54699999918,
      "d": 225.96131250000326,
      "v": 104
    },
    {
      "midi": 42,
      "hit": false,
      "t": 222230.54699999918,
      "d": 225.96131250000326,
      "v": 62
    },
    {
      "midi": 64,
      "hit": false,
      "t": 222230.547,
      "d": 687.4993125000037,
      "v": 78
    },
    {
      "midi": 61,
      "hit": false,
      "t": 222230.547,
      "d": 687.4993125000037,
      "v": 72
    },
    {
      "midi": 57,
      "hit": false,
      "t": 222230.547,
      "d": 687.4993125000037,
      "v": 66
    },
    {
      "midi": 57,
      "hit": false,
      "t": 222230.54700000002,
      "d": 687.4993125000037,
      "v": 88
    },
    {
      "midi": 69,
      "hit": false,
      "t": 222230.54700000002,
      "d": 687.4993125000037,
      "v": 97
    },
    {
      "midi": 45,
      "hit": false,
      "t": 222230.5470000002,
      "d": 225.96131250000326,
      "v": 110
    },
    {
      "midi": 52,
      "hit": false,
      "t": 222230.54700000022,
      "d": 225.96131250000326,
      "v": 97
    },
    {
      "midi": 45,
      "hit": false,
      "t": 222230.54700000022,
      "d": 225.96131250000326,
      "v": 101
    },
    {
      "midi": 57,
      "hit": false,
      "t": 222259.39312499767,
      "d": 1331.7294374999474,
      "v": 66
    },
    {
      "midi": 61,
      "hit": false,
      "t": 222260.35466249767,
      "d": 569.2301999999909,
      "v": 86
    },
    {
      "midi": 64,
      "hit": false,
      "t": 222261.31619999767,
      "d": 542.3071499999787,
      "v": 94
    },
    {
      "midi": 42,
      "hit": false,
      "t": 222461.31599999918,
      "d": 225.96131250000326,
      "v": 86
    },
    {
      "midi": 36,
      "hit": false,
      "t": 222461.31599999918,
      "d": 456.7303125000035,
      "v": 110
    },
    {
      "midi": 45,
      "hit": false,
      "t": 222461.3160000002,
      "d": 456.7303125000035,
      "v": 110
    },
    {
      "midi": 52,
      "hit": false,
      "t": 222461.31600000022,
      "d": 225.96131250000326,
      "v": 90
    },
    {
      "midi": 45,
      "hit": false,
      "t": 222461.31600000022,
      "d": 225.96131250000326,
      "v": 99
    },
    {
      "midi": 42,
      "hit": false,
      "t": 222692.08499999918,
      "d": 225.96131250000326,
      "v": 75
    },
    {
      "midi": 52,
      "hit": false,
      "t": 222692.08500000022,
      "d": 225.96131250000326,
      "v": 90
    },
    {
      "midi": 45,
      "hit": false,
      "t": 222692.08500000022,
      "d": 225.96131250000326,
      "v": 99
    },
    {
      "midi": 61,
      "hit": false,
      "t": 222912.27708749767,
      "d": 49.03841249996913,
      "v": 68
    },
    {
      "midi": 66,
      "hit": false,
      "t": 222912.27708749767,
      "d": 225.96131249994505,
      "v": 107
    },
    {
      "midi": 38,
      "hit": false,
      "t": 222922.85399999918,
      "d": 225.96131250000326,
      "v": 107
    },
    {
      "midi": 42,
      "hit": false,
      "t": 222922.85399999918,
      "d": 225.96131250000326,
      "v": 69
    },
    {
      "midi": 61,
      "hit": false,
      "t": 222922.854,
      "d": 225.96131250000326,
      "v": 67
    },
    {
      "midi": 66,
      "hit": false,
      "t": 222922.854,
      "d": 225.96131250000326,
      "v": 66
    },
    {
      "midi": 57,
      "hit": false,
      "t": 222922.854,
      "d": 225.96131250000326,
      "v": 76
    },
    {
      "midi": 66,
      "hit": false,
      "t": 222922.85400000002,
      "d": 225.96131250000326,
      "v": 92
    },
    {
      "midi": 54,
      "hit": false,
      "t": 222922.85400000002,
      "d": 225.96131250000326,
      "v": 85
    },
    {
      "midi": 45,
      "hit": false,
      "t": 222922.85400000022,
      "d": 225.96131250000326,
      "v": 97
    },
    {
      "midi": 54,
      "hit": false,
      "t": 222922.85400000022,
      "d": 225.96131250000326,
      "v": 85
    },
    {
      "midi": 64,
      "hit": false,
      "t": 223151.6999249976,
      "d": 629.8070625000109,
      "v": 110
    },
    {
      "midi": 36,
      "hit": false,
      "t": 223153.62299999918,
      "d": 225.96131250000326,
      "v": 97
    },
    {
      "midi": 42,
      "hit": false,
      "t": 223153.62299999918,
      "d": 225.96131250000326,
      "v": 79
    },
    {
      "midi": 57,
      "hit": false,
      "t": 223153.623,
      "d": 923.0760000000009,
      "v": 64
    },
    {
      "midi": 61,
      "hit": false,
      "t": 223153.623,
      "d": 923.0760000000009,
      "v": 61
    },
    {
      "midi": 64,
      "hit": false,
      "t": 223153.623,
      "d": 923.0760000000009,
      "v": 66
    },
    {
      "midi": 52,
      "hit": false,
      "t": 223153.62300000002,
      "d": 918.268312500004,
      "v": 94
    },
    {
      "midi": 64,
      "hit": false,
      "t": 223153.62300000002,
      "d": 918.268312500004,
      "v": 94
    },
    {
      "midi": 45,
      "hit": false,
      "t": 223153.6230000002,
      "d": 225.96131250000326,
      "v": 110
    },
    {
      "midi": 52,
      "hit": false,
      "t": 223153.62300000023,
      "d": 225.96131250000326,
      "v": 92
    },
    {
      "midi": 45,
      "hit": false,
      "t": 223153.62300000023,
      "d": 225.96131250000326,
      "v": 99
    },
    {
      "midi": 42,
      "hit": false,
      "t": 223384.39199999918,
      "d": 225.96131250000326,
      "v": 96
    },
    {
      "midi": 36,
      "hit": false,
      "t": 223384.39199999918,
      "d": 456.7303125000035,
      "v": 113
    },
    {
      "midi": 45,
      "hit": false,
      "t": 223384.3920000002,
      "d": 456.7303125000035,
      "v": 104
    },
    {
      "midi": 52,
      "hit": false,
      "t": 223384.39200000023,
      "d": 225.96131250000326,
      "v": 85
    },
    {
      "midi": 45,
      "hit": false,
      "t": 223384.39200000023,
      "d": 225.96131250000326,
      "v": 97
    },
    {
      "midi": 42,
      "hit": false,
      "t": 223615.16099999918,
      "d": 225.96131250000326,
      "v": 77
    },
    {
      "midi": 52,
      "hit": false,
      "t": 223615.16100000023,
      "d": 225.96131250000326,
      "v": 88
    },
    {
      "midi": 45,
      "hit": false,
      "t": 223615.16100000023,
      "d": 225.96131250000326,
      "v": 99
    },
    {
      "midi": 57,
      "hit": false,
      "t": 223689.19938749762,
      "d": 768.2684624999529,
      "v": 90
    },
    {
      "midi": 38,
      "hit": false,
      "t": 223845.92999999918,
      "d": 225.96131250000326,
      "v": 113
    },
    {
      "midi": 42,
      "hit": false,
      "t": 223845.92999999918,
      "d": 225.96131250000326,
      "v": 71
    },
    {
      "midi": 45,
      "hit": false,
      "t": 223845.93000000023,
      "d": 225.96131250000326,
      "v": 99
    },
    {
      "midi": 54,
      "hit": false,
      "t": 223845.93000000023,
      "d": 225.96131250000326,
      "v": 86
    },
    {
      "midi": 61,
      "hit": false,
      "t": 223881.5068874976,
      "d": 164.4229124999838,
      "v": 75
    },
    {
      "midi": 64,
      "hit": false,
      "t": 223896.8914874976,
      "d": 110.57681249998859,
      "v": 88
    },
    {
      "midi": 62,
      "hit": false,
      "t": 223915.1606999976,
      "d": 79.80761250000796,
      "v": 75
    },
    {
      "midi": 36,
      "hit": false,
      "t": 224076.69899999918,
      "d": 225.96131250000326,
      "v": 104
    },
    {
      "midi": 42,
      "hit": false,
      "t": 224076.69899999918,
      "d": 225.96131250000326,
      "v": 73
    },
    {
      "midi": 45,
      "hit": false,
      "t": 224076.6990000002,
      "d": 225.96131250000326,
      "v": 101
    },
    {
      "midi": 52,
      "hit": false,
      "t": 224076.69900000023,
      "d": 225.96131250000326,
      "v": 92
    },
    {
      "midi": 45,
      "hit": false,
      "t": 224076.69900000023,
      "d": 225.96131250000326,
      "v": 94
    },
    {
      "midi": 61,
      "hit": false,
      "t": 224095.9297499976,
      "d": 143.2690874999971,
      "v": 66
    },
    {
      "midi": 64,
      "hit": false,
      "t": 224096.8912874976,
      "d": 127.8844875000068,
      "v": 82
    },
    {
      "midi": 64,
      "hit": false,
      "t": 224300.73723749758,
      "d": 94.23067499999888,
      "v": 74
    },
    {
      "midi": 61,
      "hit": false,
      "t": 224301.69877499758,
      "d": 80.76915000000736,
      "v": 61
    },
    {
      "midi": 42,
      "hit": false,
      "t": 224307.46799999918,
      "d": 225.96131250000326,
      "v": 84
    },
    {
      "midi": 36,
      "hit": false,
      "t": 224307.46799999918,
      "d": 456.7303125000035,
      "v": 110
    },
    {
      "midi": 45,
      "hit": false,
      "t": 224307.4680000002,
      "d": 225.96131250000326,
      "v": 117
    },
    {
      "midi": 52,
      "hit": false,
      "t": 224307.46800000023,
      "d": 225.96131250000326,
      "v": 85
    },
    {
      "midi": 45,
      "hit": false,
      "t": 224307.46800000023,
      "d": 225.96131250000326,
      "v": 92
    },
    {
      "midi": 42,
      "hit": false,
      "t": 224538.23699999918,
      "d": 225.96131250000326,
      "v": 81
    },
    {
      "midi": 45,
      "hit": false,
      "t": 224538.2370000002,
      "d": 225.96131250000326,
      "v": 101
    },
    {
      "midi": 52,
      "hit": false,
      "t": 224538.23700000023,
      "d": 225.96131250000326,
      "v": 83
    },
    {
      "midi": 45,
      "hit": false,
      "t": 224538.23700000023,
      "d": 225.96131250000326,
      "v": 94
    },
    {
      "midi": 57,
      "hit": false,
      "t": 224567.08312499756,
      "d": 88.46144999997341,
      "v": 66
    },
    {
      "midi": 61,
      "hit": false,
      "t": 224582.46772499755,
      "d": 59.61532499999157,
      "v": 92
    },
    {
      "midi": 64,
      "hit": false,
      "t": 224583.42926249755,
      "d": 57.69224999999278,
      "v": 94
    },
    {
      "midi": 57,
      "hit": false,
      "t": 224743.04448749754,
      "d": 203.84594999995898,
      "v": 68
    },
    {
      "midi": 62,
      "hit": false,
      "t": 224760.35216249753,
      "d": 136.53832499997225,
      "v": 88
    },
    {
      "midi": 66,
      "hit": false,
      "t": 224761.31369999752,
      "d": 123.07679999998072,
      "v": 92
    },
    {
      "midi": 38,
      "hit": false,
      "t": 224769.00599999918,
      "d": 225.96131250000326,
      "v": 113
    },
    {
      "midi": 42,
      "hit": false,
      "t": 224769.00599999918,
      "d": 225.96131250000326,
      "v": 86
    },
    {
      "midi": 42,
      "hit": false,
      "t": 224769.0060000002,
      "d": 225.96131250000326,
      "v": 110
    },
    {
      "midi": 45,
      "hit": false,
      "t": 224769.00600000023,
      "d": 225.96131250000326,
      "v": 99
    },
    {
      "midi": 54,
      "hit": false,
      "t": 224769.00600000023,
      "d": 225.96131250000326,
      "v": 92
    },
    {
      "midi": 64,
      "hit": false,
      "t": 224997.8519249975,
      "d": 549.0379124999454,
      "v": 99
    },
    {
      "midi": 57,
      "hit": false,
      "t": 224997.8519249975,
      "d": 550.9609874999442,
      "v": 54
    },
    {
      "midi": 61,
      "hit": false,
      "t": 224998.8134624975,
      "d": 550.9609874999442,
      "v": 94
    },
    {
      "midi": 36,
      "hit": false,
      "t": 224999.77499999918,
      "d": 225.96131250000326,
      "v": 113
    },
    {
      "midi": 46,
      "hit": false,
      "t": 224999.77499999918,
      "d": 225.96131250000326,
      "v": 79
    },
    {
      "midi": 40,
      "hit": false,
      "t": 224999.7750000002,
      "d": 225.96131250000326,
      "v": 120
    },
    {
      "midi": 45,
      "hit": false,
      "t": 224999.77500000023,
      "d": 225.96131250000326,
      "v": 97
    },
    {
      "midi": 52,
      "hit": false,
      "t": 224999.77500000023,
      "d": 225.96131250000326,
      "v": 90
    },
    {
      "midi": 42,
      "hit": false,
      "t": 225230.54399999918,
      "d": 225.96131250000326,
      "v": 89
    },
    {
      "midi": 36,
      "hit": false,
      "t": 225230.54399999918,
      "d": 456.7303125000035,
      "v": 113
    },
    {
      "midi": 64,
      "hit": false,
      "t": 225230.544,
      "d": 225.96131250000326,
      "v": 80
    },
    {
      "midi": 61,
      "hit": false,
      "t": 225230.544,
      "d": 225.96131250000326,
      "v": 73
    },
    {
      "midi": 57,
      "hit": false,
      "t": 225230.544,
      "d": 225.96131250000326,
      "v": 75
    },
    {
      "midi": 76,
      "hit": false,
      "t": 225230.54400000002,
      "d": 225.96131250000326,
      "v": 97
    },
    {
      "midi": 64,
      "hit": false,
      "t": 225230.54400000002,
      "d": 225.96131250000326,
      "v": 92
    },
    {
      "midi": 73,
      "hit": false,
      "t": 225230.54400000002,
      "d": 225.96131250000326,
      "v": 94
    },
    {
      "midi": 45,
      "hit": false,
      "t": 225230.5440000002,
      "d": 456.7303125000035,
      "v": 104
    },
    {
      "midi": 52,
      "hit": false,
      "t": 225230.54400000023,
      "d": 225.96131250000326,
      "v": 86
    },
    {
      "midi": 45,
      "hit": false,
      "t": 225230.54400000023,
      "d": 225.96131250000326,
      "v": 97
    },
    {
      "midi": 42,
      "hit": false,
      "t": 225461.31299999918,
      "d": 225.96131250000326,
      "v": 81
    },
    {
      "midi": 64,
      "hit": false,
      "t": 225461.313,
      "d": 225.96131250000326,
      "v": 74
    },
    {
      "midi": 57,
      "hit": false,
      "t": 225461.313,
      "d": 225.96131250000326,
      "v": 69
    },
    {
      "midi": 61,
      "hit": false,
      "t": 225461.313,
      "d": 225.96131250000326,
      "v": 67
    },
    {
      "midi": 76,
      "hit": false,
      "t": 225461.31300000002,
      "d": 225.96131250000326,
      "v": 101
    },
    {
      "midi": 64,
      "hit": false,
      "t": 225461.31300000002,
      "d": 225.96131250000326,
      "v": 97
    },
    {
      "midi": 73,
      "hit": false,
      "t": 225461.31300000002,
      "d": 225.96131250000326,
      "v": 94
    },
    {
      "midi": 52,
      "hit": false,
      "t": 225461.31300000023,
      "d": 225.96131250000326,
      "v": 90
    },
    {
      "midi": 45,
      "hit": false,
      "t": 225461.31300000023,
      "d": 225.96131250000326,
      "v": 94
    },
    {
      "midi": 57,
      "hit": false,
      "t": 225673.81278749745,
      "d": 175.96136249997653,
      "v": 78
    },
    {
      "midi": 62,
      "hit": false,
      "t": 225689.19738749744,
      "d": 147.1152374999947,
      "v": 88
    },
    {
      "midi": 66,
      "hit": false,
      "t": 225690.15892499743,
      "d": 131.73063750000438,
      "v": 82
    },
    {
      "midi": 42,
      "hit": false,
      "t": 225692.08199999918,
      "d": 225.96131250000326,
      "v": 84
    },
    {
      "midi": 38,
      "hit": false,
      "t": 225692.08199999918,
      "d": 225.96131250000326,
      "v": 113
    },
    {
      "midi": 57,
      "hit": false,
      "t": 225692.082,
      "d": 225.96131250000326,
      "v": 73
    },
    {
      "midi": 66,
      "hit": false,
      "t": 225692.082,
      "d": 225.96131250000326,
      "v": 72
    },
    {
      "midi": 62,
      "hit": false,
      "t": 225692.082,
      "d": 225.96131250000326,
      "v": 72
    },
    {
      "midi": 78,
      "hit": false,
      "t": 225692.08200000002,
      "d": 225.96131250000326,
      "v": 107
    },
    {
      "midi": 66,
      "hit": false,
      "t": 225692.08200000002,
      "d": 225.96131250000326,
      "v": 99
    },
    {
      "midi": 74,
      "hit": false,
      "t": 225692.08200000002,
      "d": 225.96131250000326,
      "v": 99
    },
    {
      "midi": 45,
      "hit": false,
      "t": 225692.08200000023,
      "d": 225.96131250000326,
      "v": 97
    },
    {
      "midi": 54,
      "hit": false,
      "t": 225692.08200000023,
      "d": 225.96131250000326,
      "v": 85
    },
    {
      "midi": 42,
      "hit": false,
      "t": 225922.85099999918,
      "d": 225.96131250000326,
      "v": 86
    },
    {
      "midi": 36,
      "hit": false,
      "t": 225922.85099999918,
      "d": 225.96131250000326,
      "v": 123
    },
    {
      "midi": 64,
      "hit": false,
      "t": 225922.851,
      "d": 918.268312500004,
      "v": 85
    },
    {
      "midi": 61,
      "hit": false,
      "t": 225922.851,
      "d": 918.268312500004,
      "v": 80
    },
    {
      "midi": 57,
      "hit": false,
      "t": 225922.851,
      "d": 918.268312500004,
      "v": 82
    },
    {
      "midi": 76,
      "hit": false,
      "t": 225922.85100000002,
      "d": 918.268312500004,
      "v": 92
    },
    {
      "midi": 64,
      "hit": false,
      "t": 225922.85100000002,
      "d": 918.268312500004,
      "v": 99
    },
    {
      "midi": 73,
      "hit": false,
      "t": 225922.85100000002,
      "d": 918.268312500004,
      "v": 99
    },
    {
      "midi": 45,
      "hit": false,
      "t": 225922.8510000002,
      "d": 225.96131250000326,
      "v": 110
    },
    {
      "midi": 52,
      "hit": false,
      "t": 225922.85100000023,
      "d": 225.96131250000326,
      "v": 90
    },
    {
      "midi": 45,
      "hit": false,
      "t": 225922.85100000023,
      "d": 225.96131250000326,
      "v": 94
    },
    {
      "midi": 61,
      "hit": false,
      "t": 225935.35098749743,
      "d": 368.2688624999719,
      "v": 76
    },
    {
      "midi": 64,
      "hit": false,
      "t": 225952.65866249742,
      "d": 349.038112499984,
      "v": 90
    },
    {
      "midi": 57,
      "hit": false,
      "t": 225953.62019999741,
      "d": 335.57658749999246,
      "v": 72
    },
    {
      "midi": 42,
      "hit": false,
      "t": 226153.61999999918,
      "d": 225.96131250000326,
      "v": 92
    },
    {
      "midi": 36,
      "hit": false,
      "t": 226153.61999999918,
      "d": 456.7303125000035,
      "v": 110
    },
    {
      "midi": 45,
      "hit": false,
      "t": 226153.6200000002,
      "d": 456.7303125000035,
      "v": 110
    },
    {
      "midi": 52,
      "hit": false,
      "t": 226153.62000000023,
      "d": 225.96131250000326,
      "v": 86
    },
    {
      "midi": 45,
      "hit": false,
      "t": 226153.62000000023,
      "d": 225.96131250000326,
      "v": 97
    },
    {
      "midi": 46,
      "hit": false,
      "t": 226384.38899999918,
      "d": 225.96131250000326,
      "v": 89
    },
    {
      "midi": 52,
      "hit": false,
      "t": 226384.38900000023,
      "d": 225.96131250000326,
      "v": 85
    },
    {
      "midi": 45,
      "hit": false,
      "t": 226384.38900000023,
      "d": 225.96131250000326,
      "v": 97
    },
    {
      "midi": 57,
      "hit": false,
      "t": 226402.6582124974,
      "d": 111.53834999998799,
      "v": 82
    },
    {
      "midi": 61,
      "hit": false,
      "t": 226403.6197499974,
      "d": 109.6152749999892,
      "v": 79
    },
    {
      "midi": 64,
      "hit": false,
      "t": 226404.5812874974,
      "d": 95.19221249999828,
      "v": 86
    },
    {
      "midi": 42,
      "hit": false,
      "t": 226615.15799999918,
      "d": 225.96131250000326,
      "v": 92
    },
    {
      "midi": 38,
      "hit": false,
      "t": 226615.15799999918,
      "d": 225.96131250000326,
      "v": 110
    },
    {
      "midi": 45,
      "hit": false,
      "t": 226615.15800000023,
      "d": 225.96131250000326,
      "v": 99
    },
    {
      "midi": 54,
      "hit": false,
      "t": 226615.15800000023,
      "d": 225.96131250000326,
      "v": 85
    },
    {
      "midi": 57,
      "hit": false,
      "t": 226625.73491249737,
      "d": 151.92292499999166,
      "v": 75
    },
    {
      "midi": 62,
      "hit": false,
      "t": 226626.69644999737,
      "d": 124.03833749998012,
      "v": 85
    },
    {
      "midi": 66,
      "hit": false,
      "t": 226646.88873749736,
      "d": 102.88451249999343,
      "v": 85
    },
    {
      "midi": 42,
      "hit": false,
      "t": 226845.92699999918,
      "d": 225.96131250000326,
      "v": 79
    },
    {
      "midi": 36,
      "hit": false,
      "t": 226845.92699999918,
      "d": 225.96131250000326,
      "v": 120
    },
    {
      "midi": 45,
      "hit": false,
      "t": 226845.9270000002,
      "d": 225.96131250000326,
      "v": 110
    },
    {
      "midi": 52,
      "hit": false,
      "t": 226845.92700000023,
      "d": 225.96131250000326,
      "v": 86
    },
    {
      "midi": 45,
      "hit": false,
      "t": 226845.92700000023,
      "d": 225.96131250000326,
      "v": 94
    },
    {
      "midi": 61,
      "hit": false,
      "t": 226863.23467499737,
      "d": 562.4994374999951,
      "v": 83
    },
    {
      "midi": 64,
      "hit": false,
      "t": 226864.19621249737,
      "d": 562.4994374999951,
      "v": 94
    },
    {
      "midi": 57,
      "hit": false,
      "t": 226864.19621249737,
      "d": 575.9609624999866,
      "v": 72
    },
    {
      "midi": 42,
      "hit": false,
      "t": 227076.69599999918,
      "d": 225.96131250000326,
      "v": 89
    },
    {
      "midi": 36,
      "hit": false,
      "t": 227076.69599999918,
      "d": 456.7303125000035,
      "v": 113
    },
    {
      "midi": 64,
      "hit": false,
      "t": 227076.696,
      "d": 225.96131250000326,
      "v": 75
    },
    {
      "midi": 61,
      "hit": false,
      "t": 227076.696,
      "d": 225.96131250000326,
      "v": 67
    },
    {
      "midi": 57,
      "hit": false,
      "t": 227076.696,
      "d": 225.96131250000326,
      "v": 71
    },
    {
      "midi": 73,
      "hit": false,
      "t": 227076.69600000003,
      "d": 225.96131250000326,
      "v": 90
    },
    {
      "midi": 69,
      "hit": false,
      "t": 227076.69600000003,
      "d": 225.96131250000326,
      "v": 97
    },
    {
      "midi": 61,
      "hit": false,
      "t": 227076.69600000003,
      "d": 225.96131250000326,
      "v": 94
    },
    {
      "midi": 45,
      "hit": false,
      "t": 227076.6960000002,
      "d": 456.7303125000035,
      "v": 104
    },
    {
      "midi": 52,
      "hit": false,
      "t": 227076.69600000023,
      "d": 225.96131250000326,
      "v": 86
    },
    {
      "midi": 45,
      "hit": false,
      "t": 227076.69600000023,
      "d": 225.96131250000326,
      "v": 94
    },
    {
      "midi": 42,
      "hit": false,
      "t": 227307.46499999918,
      "d": 225.96131250000326,
      "v": 66
    },
    {
      "midi": 64,
      "hit": false,
      "t": 227307.465,
      "d": 225.96131250000326,
      "v": 75
    },
    {
      "midi": 57,
      "hit": false,
      "t": 227307.465,
      "d": 225.96131250000326,
      "v": 74
    },
    {
      "midi": 61,
      "hit": false,
      "t": 227307.465,
      "d": 225.96131250000326,
      "v": 68
    },
    {
      "midi": 73,
      "hit": false,
      "t": 227307.46500000003,
      "d": 225.96131250000326,
      "v": 101
    },
    {
      "midi": 61,
      "hit": false,
      "t": 227307.46500000003,
      "d": 225.96131250000326,
      "v": 99
    },
    {
      "midi": 69,
      "hit": false,
      "t": 227307.46500000003,
      "d": 225.96131250000326,
      "v": 99
    },
    {
      "midi": 52,
      "hit": false,
      "t": 227307.46500000023,
      "d": 225.96131250000326,
      "v": 85
    },
    {
      "midi": 45,
      "hit": false,
      "t": 227307.46500000023,
      "d": 225.96131250000326,
      "v": 99
    },
    {
      "midi": 57,
      "hit": false,
      "t": 227516.11863749736,
      "d": 137.49986249997164,
      "v": 51
    },
    {
      "midi": 62,
      "hit": false,
      "t": 227531.50323749735,
      "d": 108.6537374999898,
      "v": 75
    },
    {
      "midi": 66,
      "hit": false,
      "t": 227532.46477499735,
      "d": 95.19221249999828,
      "v": 83
    },
    {
      "midi": 38,
      "hit": false,
      "t": 227538.23399999918,
      "d": 225.96131250000326,
      "v": 107
    },
    {
      "midi": 42,
      "hit": false,
      "t": 227538.23399999918,
      "d": 225.96131250000326,
      "v": 62
    },
    {
      "midi": 66,
      "hit": false,
      "t": 227538.234,
      "d": 225.96131250000326,
      "v": 74
    },
    {
      "midi": 62,
      "hit": false,
      "t": 227538.234,
      "d": 225.96131250000326,
      "v": 68
    },
    {
      "midi": 57,
      "hit": false,
      "t": 227538.234,
      "d": 225.96131250000326,
      "v": 74
    },
    {
      "midi": 74,
      "hit": false,
      "t": 227538.23400000003,
      "d": 225.96131250000326,
      "v": 97
    },
    {
      "midi": 71,
      "hit": false,
      "t": 227538.23400000003,
      "d": 225.96131250000326,
      "v": 94
    },
    {
      "midi": 62,
      "hit": false,
      "t": 227538.23400000003,
      "d": 225.96131250000326,
      "v": 99
    },
    {
      "midi": 54,
      "hit": false,
      "t": 227538.23400000023,
      "d": 225.96131250000326,
      "v": 85
    },
    {
      "midi": 45,
      "hit": false,
      "t": 227538.23400000023,
      "d": 225.96131250000326,
      "v": 99
    },
    {
      "midi": 61,
      "hit": false,
      "t": 227752.65686249733,
      "d": 402.8842125000083,
      "v": 85
    },
    {
      "midi": 36,
      "hit": false,
      "t": 227769.00299999918,
      "d": 225.96131250000326,
      "v": 110
    },
    {
      "midi": 42,
      "hit": false,
      "t": 227769.00299999918,
      "d": 225.96131250000326,
      "v": 59
    },
    {
      "midi": 57,
      "hit": false,
      "t": 227769.003,
      "d": 918.268312500004,
      "v": 76
    },
    {
      "midi": 64,
      "hit": false,
      "t": 227769.003,
      "d": 918.268312500004,
      "v": 82
    },
    {
      "midi": 61,
      "hit": false,
      "t": 227769.003,
      "d": 918.268312500004,
      "v": 72
    },
    {
      "midi": 73,
      "hit": false,
      "t": 227769.00300000003,
      "d": 918.268312500004,
      "v": 94
    },
    {
      "midi": 61,
      "hit": false,
      "t": 227769.00300000003,
      "d": 918.268312500004,
      "v": 99
    },
    {
      "midi": 69,
      "hit": false,
      "t": 227769.00300000003,
      "d": 918.268312500004,
      "v": 99
    },
    {
      "midi": 45,
      "hit": false,
      "t": 227769.0030000002,
      "d": 225.96131250000326,
      "v": 101
    },
    {
      "midi": 52,
      "hit": false,
      "t": 227769.00300000023,
      "d": 225.96131250000326,
      "v": 86
    },
    {
      "midi": 45,
      "hit": false,
      "t": 227769.00300000023,
      "d": 225.96131250000326,
      "v": 99
    },
    {
      "midi": 57,
      "hit": false,
      "t": 227769.96453749732,
      "d": 373.07655000002705,
      "v": 69
    },
    {
      "midi": 64,
      "hit": false,
      "t": 227770.92607499732,
      "d": 347.1150375000143,
      "v": 94
    },
    {
      "midi": 42,
      "hit": false,
      "t": 227999.77199999918,
      "d": 225.96131250000326,
      "v": 96
    },
    {
      "midi": 36,
      "hit": false,
      "t": 227999.77199999918,
      "d": 456.7303125000035,
      "v": 117
    },
    {
      "midi": 45,
      "hit": false,
      "t": 227999.7720000002,
      "d": 225.96131250000326,
      "v": 117
    },
    {
      "midi": 52,
      "hit": false,
      "t": 227999.77200000023,
      "d": 225.96131250000326,
      "v": 86
    },
    {
      "midi": 45,
      "hit": false,
      "t": 227999.77200000023,
      "d": 225.96131250000326,
      "v": 94
    },
    {
      "midi": 42,
      "hit": false,
      "t": 228230.54099999918,
      "d": 225.96131250000326,
      "v": 79
    },
    {
      "midi": 45,
      "hit": false,
      "t": 228230.5410000002,
      "d": 225.96131250000326,
      "v": 101
    },
    {
      "midi": 52,
      "hit": false,
      "t": 228230.54100000023,
      "d": 225.96131250000326,
      "v": 85
    },
    {
      "midi": 45,
      "hit": false,
      "t": 228230.54100000023,
      "d": 225.96131250000326,
      "v": 92
    },
    {
      "midi": 61,
      "hit": false,
      "t": 228231.50253749735,
      "d": 159.61522499998682,
      "v": 66
    },
    {
      "midi": 57,
      "hit": false,
      "t": 228247.84867499734,
      "d": 117.30757499998435,
      "v": 55
    },
    {
      "midi": 64,
      "hit": false,
      "t": 228263.23327499733,
      "d": 102.88451249999343,
      "v": 86
    },
    {
      "midi": 38,
      "hit": false,
      "t": 228461.30999999918,
      "d": 225.96131250000326,
      "v": 107
    },
    {
      "midi": 42,
      "hit": false,
      "t": 228461.30999999918,
      "d": 225.96131250000326,
      "v": 64
    },
    {
      "midi": 42,
      "hit": false,
      "t": 228461.3100000002,
      "d": 225.96131250000326,
      "v": 110
    },
    {
      "midi": 45,
      "hit": false,
      "t": 228461.31000000023,
      "d": 225.96131250000326,
      "v": 83
    },
    {
      "midi": 54,
      "hit": false,
      "t": 228461.31000000023,
      "d": 225.96131250000326,
      "v": 94
    },
    {
      "midi": 61,
      "hit": false,
      "t": 228478.61767499734,
      "d": 135.57678749997285,
      "v": 74
    },
    {
      "midi": 57,
      "hit": false,
      "t": 228479.57921249734,
      "d": 147.1152374999656,
      "v": 62
    },
    {
      "midi": 66,
      "hit": false,
      "t": 228497.84842499733,
      "d": 102.88451249999343,
      "v": 86
    },
    {
      "midi": 36,
      "hit": false,
      "t": 228692.07899999918,
      "d": 225.96131250000326,
      "v": 99
    },
    {
      "midi": 42,
      "hit": false,
      "t": 228692.07899999918,
      "d": 225.96131250000326,
      "v": 77
    },
    {
      "midi": 40,
      "hit": false,
      "t": 228692.0790000002,
      "d": 225.96131250000326,
      "v": 120
    },
    {
      "midi": 45,
      "hit": false,
      "t": 228692.07900000023,
      "d": 225.96131250000326,
      "v": 85
    },
    {
      "midi": 52,
      "hit": false,
      "t": 228692.07900000023,
      "d": 225.96131250000326,
      "v": 88
    },
    {
      "midi": 61,
      "hit": false,
      "t": 228702.6559124973,
      "d": 136.53832500000135,
      "v": 71
    },
    {
      "midi": 57,
      "hit": false,
      "t": 228703.6174499973,
      "d": 133.65371250000317,
      "v": 63
    },
    {
      "midi": 64,
      "hit": false,
      "t": 228704.5789874973,
      "d": 133.65371250000317,
      "v": 86
    },
    {
      "midi": 42,
      "hit": false,
      "t": 228922.84799999918,
      "d": 225.96131250000326,
      "v": 92
    },
    {
      "midi": 36,
      "hit": false,
      "t": 228922.84799999918,
      "d": 456.7303125000035,
      "v": 110
    },
    {
      "midi": 64,
      "hit": false,
      "t": 228922.848,
      "d": 225.96131250000326,
      "v": 72
    },
    {
      "midi": 61,
      "hit": false,
      "t": 228922.848,
      "d": 225.96131250000326,
      "v": 68
    },
    {
      "midi": 57,
      "hit": false,
      "t": 228922.848,
      "d": 225.96131250000326,
      "v": 73
    },
    {
      "midi": 57,
      "hit": false,
      "t": 228922.84800000003,
      "d": 225.96131250000326,
      "v": 97
    },
    {
      "midi": 69,
      "hit": false,
      "t": 228922.84800000003,
      "d": 225.96131250000326,
      "v": 99
    },
    {
      "midi": 45,
      "hit": false,
      "t": 228922.8480000002,
      "d": 456.7303125000035,
      "v": 104
    },
    {
      "midi": 45,
      "hit": false,
      "t": 228922.84800000023,
      "d": 225.96131250000326,
      "v": 86
    },
    {
      "midi": 52,
      "hit": false,
      "t": 228922.84800000023,
      "d": 225.96131250000326,
      "v": 80
    },
    {
      "midi": 57,
      "hit": false,
      "t": 228951.6941249973,
      "d": 124.99987499997951,
      "v": 70
    },
    {
      "midi": 64,
      "hit": false,
      "t": 228952.6556624973,
      "d": 111.53834999998799,
      "v": 86
    },
    {
      "midi": 61,
      "hit": false,
      "t": 228952.6556624973,
      "d": 124.99987499997951,
      "v": 75
    },
    {
      "midi": 42,
      "hit": false,
      "t": 229153.61699999918,
      "d": 225.96131250000326,
      "v": 60
    },
    {
      "midi": 64,
      "hit": false,
      "t": 229153.617,
      "d": 225.96131250000326,
      "v": 68
    },
    {
      "midi": 61,
      "hit": false,
      "t": 229153.617,
      "d": 225.96131250000326,
      "v": 66
    },
    {
      "midi": 57,
      "hit": false,
      "t": 229153.617,
      "d": 225.96131250000326,
      "v": 74
    },
    {
      "midi": 69,
      "hit": false,
      "t": 229153.61700000003,
      "d": 225.96131250000326,
      "v": 92
    },
    {
      "midi": 57,
      "hit": false,
      "t": 229153.61700000003,
      "d": 225.96131250000326,
      "v": 92
    },
    {
      "midi": 52,
      "hit": false,
      "t": 229153.61700000023,
      "d": 225.96131250000326,
      "v": 94
    },
    {
      "midi": 45,
      "hit": false,
      "t": 229153.61700000023,
      "d": 225.96131250000326,
      "v": 94
    },
    {
      "midi": 57,
      "hit": false,
      "t": 229166.11698749728,
      "d": 88.46145000000251,
      "v": 62
    },
    {
      "midi": 61,
      "hit": false,
      "t": 229166.11698749728,
      "d": 125.96141250000801,
      "v": 65
    },
    {
      "midi": 64,
      "hit": false,
      "t": 229168.04006249728,
      "d": 124.03833750000922,
      "v": 75
    },
    {
      "midi": 38,
      "hit": false,
      "t": 229384.38599999918,
      "d": 225.96131250000326,
      "v": 110
    },
    {
      "midi": 42,
      "hit": false,
      "t": 229384.38599999918,
      "d": 225.96131250000326,
      "v": 66
    },
    {
      "midi": 64,
      "hit": false,
      "t": 229384.386,
      "d": 225.96131250000326,
      "v": 79
    },
    {
      "midi": 61,
      "hit": false,
      "t": 229384.386,
      "d": 225.96131250000326,
      "v": 75
    },
    {
      "midi": 59,
      "hit": false,
      "t": 229384.386,
      "d": 225.96131250000326,
      "v": 75
    },
    {
      "midi": 71,
      "hit": false,
      "t": 229384.38600000003,
      "d": 225.96131250000326,
      "v": 86
    },
    {
      "midi": 59,
      "hit": false,
      "t": 229384.38600000003,
      "d": 225.96131250000326,
      "v": 97
    },
    {
      "midi": 54,
      "hit": false,
      "t": 229384.38600000023,
      "d": 225.96131250000326,
      "v": 83
    },
    {
      "midi": 45,
      "hit": false,
      "t": 229384.38600000023,
      "d": 225.96131250000326,
      "v": 99
    },
    {
      "midi": 59,
      "hit": false,
      "t": 229403.61674999728,
      "d": 119.23064999998314,
      "v": 88
    },
    {
      "midi": 61,
      "hit": false,
      "t": 229404.57828749728,
      "d": 131.73063749997527,
      "v": 71
    },
    {
      "midi": 62,
      "hit": false,
      "t": 229424.77057499727,
      "d": 21.153824999986682,
      "v": 58
    },
    {
      "midi": 64,
      "hit": false,
      "t": 229424.77057499727,
      "d": 97.11528749999707,
      "v": 85
    },
    {
      "midi": 36,
      "hit": false,
      "t": 229615.15499999918,
      "d": 225.96131250000326,
      "v": 104
    },
    {
      "midi": 42,
      "hit": false,
      "t": 229615.15499999918,
      "d": 225.96131250000326,
      "v": 62
    },
    {
      "midi": 64,
      "hit": false,
      "t": 229615.155,
      "d": 687.4993125000037,
      "v": 78
    },
    {
      "midi": 61,
      "hit": false,
      "t": 229615.155,
      "d": 687.4993125000037,
      "v": 72
    },
    {
      "midi": 57,
      "hit": false,
      "t": 229615.155,
      "d": 687.4993125000037,
      "v": 66
    },
    {
      "midi": 57,
      "hit": false,
      "t": 229615.15500000003,
      "d": 687.4993125000037,
      "v": 88
    },
    {
      "midi": 69,
      "hit": false,
      "t": 229615.15500000003,
      "d": 687.4993125000037,
      "v": 97
    },
    {
      "midi": 45,
      "hit": false,
      "t": 229615.1550000002,
      "d": 225.96131250000326,
      "v": 110
    },
    {
      "midi": 45,
      "hit": false,
      "t": 229615.15500000023,
      "d": 225.96131250000326,
      "v": 92
    },
    {
      "midi": 52,
      "hit": false,
      "t": 229615.15500000023,
      "d": 225.96131250000326,
      "v": 88
    },
    {
      "midi": 61,
      "hit": false,
      "t": 229623.80883749726,
      "d": 477.8841374999902,
      "v": 73
    },
    {
      "midi": 64,
      "hit": false,
      "t": 229624.77037499726,
      "d": 502.88411250000354,
      "v": 78
    },
    {
      "midi": 57,
      "hit": false,
      "t": 229644.00112499724,
      "d": 336.53812499999185,
      "v": 94
    },
    {
      "midi": 38,
      "hit": false,
      "t": 229845.92399999918,
      "d": 225.96131250000326,
      "v": 113
    },
    {
      "midi": 42,
      "hit": false,
      "t": 229845.92399999918,
      "d": 225.96131250000326,
      "v": 86
    },
    {
      "midi": 36,
      "hit": false,
      "t": 229845.92399999918,
      "d": 456.7303124999744,
      "v": 110
    },
    {
      "midi": 45,
      "hit": false,
      "t": 229845.9240000002,
      "d": 225.96131250000326,
      "v": 110
    },
    {
      "midi": 52,
      "hit": false,
      "t": 229845.92400000023,
      "d": 225.96131250000326,
      "v": 82
    },
    {
      "midi": 45,
      "hit": false,
      "t": 229845.92400000023,
      "d": 225.96131250000326,
      "v": 92
    },
    {
      "midi": 38,
      "hit": false,
      "t": 230076.69299999918,
      "d": 110.57681249998859,
      "v": 110
    },
    {
      "midi": 42,
      "hit": false,
      "t": 230076.69299999918,
      "d": 225.96131249997416,
      "v": 75
    },
    {
      "midi": 40,
      "hit": false,
      "t": 230076.6930000002,
      "d": 225.96131250000326,
      "v": 110
    },
    {
      "midi": 52,
      "hit": false,
      "t": 230076.69300000023,
      "d": 225.96131250000326,
      "v": 58
    },
    {
      "midi": 45,
      "hit": false,
      "t": 230076.69300000023,
      "d": 225.96131250000326,
      "v": 88
    },
    {
      "midi": 38,
      "hit": false,
      "t": 230192.07749999917,
      "d": 110.57681249998859,
      "v": 104
    },
    {
      "midi": 57,
      "hit": false,
      "t": 230307.46199999726,
      "d": 20.192287499987287,
      "v": 49
    },
    {
      "midi": 38,
      "hit": false,
      "t": 230307.46199999916,
      "d": 225.96131250000326,
      "v": 107
    },
    {
      "midi": 42,
      "hit": false,
      "t": 230307.46199999916,
      "d": 225.96131250000326,
      "v": 69
    },
    {
      "midi": 61,
      "hit": false,
      "t": 230307.462,
      "d": 225.96131250000326,
      "v": 67
    },
    {
      "midi": 66,
      "hit": false,
      "t": 230307.462,
      "d": 225.96131250000326,
      "v": 66
    },
    {
      "midi": 57,
      "hit": false,
      "t": 230307.462,
      "d": 225.96131250000326,
      "v": 76
    },
    {
      "midi": 66,
      "hit": false,
      "t": 230307.46200000003,
      "d": 225.96131250000326,
      "v": 92
    },
    {
      "midi": 54,
      "hit": false,
      "t": 230307.46200000003,
      "d": 225.96131250000326,
      "v": 85
    },
    {
      "midi": 42,
      "hit": false,
      "t": 230307.4620000002,
      "d": 225.96131250000326,
      "v": 109
    },
    {
      "midi": 45,
      "hit": false,
      "t": 230307.46200000023,
      "d": 225.96131250000326,
      "v": 110
    },
    {
      "midi": 54,
      "hit": false,
      "t": 230307.46200000023,
      "d": 225.96131250000326,
      "v": 88
    },
    {
      "midi": 64,
      "hit": false,
      "t": 230354.57733749726,
      "d": 89.42298750000191,
      "v": 90
    },
    {
      "midi": 61,
      "hit": false,
      "t": 230355.53887499726,
      "d": 87.49991250000312,
      "v": 83
    },
    {
      "midi": 64,
      "hit": false,
      "t": 230538.23099999726,
      "d": 1841.344312500005,
      "v": 107
    },
    {
      "midi": 69,
      "hit": false,
      "t": 230538.23099999726,
      "d": 1841.344312500005,
      "v": 88
    },
    {
      "midi": 57,
      "hit": false,
      "t": 230538.23099999726,
      "d": 1841.344312500005,
      "v": 104
    },
    {
      "midi": 61,
      "hit": false,
      "t": 230538.23099999726,
      "d": 1841.344312500005,
      "v": 100
    },
    {
      "midi": 57,
      "hit": false,
      "t": 230538.23099999916,
      "d": 225.96131250000326,
      "v": 110
    },
    {
      "midi": 36,
      "hit": false,
      "t": 230538.23099999916,
      "d": 225.96131250000326,
      "v": 97
    },
    {
      "midi": 42,
      "hit": false,
      "t": 230538.23099999916,
      "d": 225.96131250000326,
      "v": 79
    },
    {
      "midi": 57,
      "hit": false,
      "t": 230538.231,
      "d": 1384.6140000000014,
      "v": 83
    },
    {
      "midi": 69,
      "hit": false,
      "t": 230538.231,
      "d": 1384.6140000000014,
      "v": 68
    },
    {
      "midi": 64,
      "hit": false,
      "t": 230538.231,
      "d": 1384.6140000000014,
      "v": 79
    },
    {
      "midi": 61,
      "hit": false,
      "t": 230538.231,
      "d": 1384.6140000000014,
      "v": 73
    },
    {
      "midi": 64,
      "hit": false,
      "t": 230538.23100000003,
      "d": 1846.1520000000019,
      "v": 94
    },
    {
      "midi": 52,
      "hit": false,
      "t": 230538.23100000003,
      "d": 1846.1520000000019,
      "v": 94
    },
    {
      "midi": 45,
      "hit": false,
      "t": 230538.2310000002,
      "d": 1841.344312500005,
      "v": 110
    },
    {
      "midi": 45,
      "hit": false,
      "t": 230538.23100000023,
      "d": 1846.1520000000019,
      "v": 94
    },
    {
      "midi": 52,
      "hit": false,
      "t": 230538.23100000023,
      "d": 1846.1520000000019,
      "v": 94
    }
  ]
}