{
  "jsonPath": "Soundtracks/Video Game Music/Super Mario Land/super-mario-land-world1.json",
  "path": "Soundtracks\\Video Game Music\\Super Mario Land\\Super_Mario_Land_World1.mid",
  "name": "Super_Mario_Land_World1",
  "difficulty": "Advanced",
  "bpm": 126.000126000126,
  "notes": [
    {
      "midi": 67,
      "hit": false,
      "t": 0,
      "d": 189.51575,
      "v": 127
    },
    {
      "midi": 64,
      "hit": false,
      "t": 0,
      "d": 189.51575,
      "v": 110
    },
    {
      "midi": 66,
      "hit": false,
      "t": 193.548,
      "d": 189.51575000000003,
      "v": 127
    },
    {
      "midi": 63,
      "hit": false,
      "t": 193.548,
      "d": 189.51575000000003,
      "v": 110
    },
    {
      "midi": 65,
      "hit": false,
      "t": 387.096,
      "d": 92.74175000000002,
      "v": 127
    },
    {
      "midi": 62,
      "hit": false,
      "t": 387.096,
      "d": 92.74175000000002,
      "v": 110
    },
    {
      "midi": 64,
      "hit": false,
      "t": 483.87,
      "d": 286.28975,
      "v": 127
    },
    {
      "midi": 60,
      "hit": false,
      "t": 483.87,
      "d": 286.28975,
      "v": 110
    },
    {
      "midi": 64,
      "hit": false,
      "t": 870.966,
      "d": 286.28975,
      "v": 127
    },
    {
      "midi": 55,
      "hit": false,
      "t": 1161.288,
      "d": 322.5799999999999,
      "v": 127
    },
    {
      "midi": 43,
      "hit": false,
      "t": 1354.836,
      "d": 189.51575000000003,
      "v": 110
    },
    {
      "midi": 64,
      "hit": false,
      "t": 1548.384,
      "d": 322.5799999999999,
      "v": 127
    },
    {
      "midi": 48,
      "hit": false,
      "t": 1548.384,
      "d": 322.5799999999999,
      "v": 110
    },
    {
      "midi": 55,
      "hit": false,
      "t": 1741.932,
      "d": 189.51575000000003,
      "v": 110
    },
    {
      "midi": 62,
      "hit": false,
      "t": 1935.48,
      "d": 92.74174999999991,
      "v": 127
    },
    {
      "midi": 48,
      "hit": false,
      "t": 1935.48,
      "d": 322.5800000000004,
      "v": 110
    },
    {
      "midi": 60,
      "hit": false,
      "t": 2032.254,
      "d": 189.51575000000003,
      "v": 127
    },
    {
      "midi": 55,
      "hit": false,
      "t": 2129.0280000000002,
      "d": 189.51575000000003,
      "v": 110
    },
    {
      "midi": 64,
      "hit": false,
      "t": 2225.802,
      "d": 419.3539999999998,
      "v": 127
    },
    {
      "midi": 48,
      "hit": false,
      "t": 2322.5760000000005,
      "d": 322.5800000000004,
      "v": 110
    },
    {
      "midi": 56,
      "hit": false,
      "t": 2516.1240000000007,
      "d": 189.51575000000003,
      "v": 110
    },
    {
      "midi": 48,
      "hit": false,
      "t": 2709.672000000001,
      "d": 322.5800000000004,
      "v": 110
    },
    {
      "midi": 60,
      "hit": false,
      "t": 2903.22,
      "d": 92.74175000000014,
      "v": 127
    },
    {
      "midi": 56,
      "hit": false,
      "t": 2903.220000000001,
      "d": 189.51575000000003,
      "v": 110
    },
    {
      "midi": 62,
      "hit": false,
      "t": 2999.994,
      "d": 92.74175000000014,
      "v": 127
    },
    {
      "midi": 64,
      "hit": false,
      "t": 3096.7680000000005,
      "d": 189.51575000000003,
      "v": 127
    },
    {
      "midi": 48,
      "hit": false,
      "t": 3096.7680000000014,
      "d": 322.5800000000004,
      "v": 110
    },
    {
      "midi": 64,
      "hit": false,
      "t": 3290.3160000000007,
      "d": 189.51575000000003,
      "v": 127
    },
    {
      "midi": 57,
      "hit": false,
      "t": 3290.3160000000016,
      "d": 189.51575000000003,
      "v": 110
    },
    {
      "midi": 62,
      "hit": false,
      "t": 3483.864000000001,
      "d": 189.51575000000003,
      "v": 127
    },
    {
      "midi": 48,
      "hit": false,
      "t": 3483.864000000002,
      "d": 322.5800000000004,
      "v": 110
    },
    {
      "midi": 60,
      "hit": false,
      "t": 3677.412000000001,
      "d": 189.51575000000003,
      "v": 127
    },
    {
      "midi": 57,
      "hit": false,
      "t": 3677.412000000002,
      "d": 189.51575000000003,
      "v": 110
    },
    {
      "midi": 64,
      "hit": false,
      "t": 3870.9600000000014,
      "d": 189.51575000000003,
      "v": 127
    },
    {
      "midi": 48,
      "hit": false,
      "t": 3870.9600000000023,
      "d": 322.5800000000004,
      "v": 110
    },
    {
      "midi": 65,
      "hit": false,
      "t": 4064.5080000000016,
      "d": 189.51574999999957,
      "v": 127
    },
    {
      "midi": 58,
      "hit": false,
      "t": 4064.5080000000025,
      "d": 189.51575000000048,
      "v": 110
    },
    {
      "midi": 67,
      "hit": false,
      "t": 4258.056000000001,
      "d": 189.51574999999957,
      "v": 127
    },
    {
      "midi": 48,
      "hit": false,
      "t": 4258.056000000003,
      "d": 322.5799999999999,
      "v": 110
    },
    {
      "midi": 69,
      "hit": false,
      "t": 4451.604000000001,
      "d": 189.51574999999957,
      "v": 127
    },
    {
      "midi": 58,
      "hit": false,
      "t": 4451.604000000003,
      "d": 189.51575000000048,
      "v": 110
    },
    {
      "midi": 53,
      "hit": false,
      "t": 4645.152000000004,
      "d": 189.51574999999957,
      "v": 110
    },
    {
      "midi": 60,
      "hit": false,
      "t": 4838.700000000001,
      "d": 189.51574999999957,
      "v": 127
    },
    {
      "midi": 60,
      "hit": false,
      "t": 4838.7000000000035,
      "d": 189.51574999999957,
      "v": 110
    },
    {
      "midi": 60,
      "hit": false,
      "t": 5032.2480000000005,
      "d": 189.51574999999957,
      "v": 127
    },
    {
      "midi": 53,
      "hit": false,
      "t": 5032.248000000003,
      "d": 189.51574999999957,
      "v": 110
    },
    {
      "midi": 57,
      "hit": false,
      "t": 5225.796,
      "d": 189.51574999999957,
      "v": 127
    },
    {
      "midi": 60,
      "hit": false,
      "t": 5225.796000000003,
      "d": 189.51574999999957,
      "v": 110
    },
    {
      "midi": 55,
      "hit": false,
      "t": 5419.344,
      "d": 189.51574999999957,
      "v": 127
    },
    {
      "midi": 52,
      "hit": false,
      "t": 5419.344000000003,
      "d": 322.5799999999999,
      "v": 110
    },
    {
      "midi": 60,
      "hit": false,
      "t": 5612.892,
      "d": 92.74175000000014,
      "v": 127
    },
    {
      "midi": 60,
      "hit": false,
      "t": 5612.892000000003,
      "d": 189.51575000000048,
      "v": 110
    },
    {
      "midi": 60,
      "hit": false,
      "t": 5709.666,
      "d": 286.2897499999999,
      "v": 127
    },
    {
      "midi": 52,
      "hit": false,
      "t": 5806.440000000003,
      "d": 322.5799999999999,
      "v": 110
    },
    {
      "midi": 60,
      "hit": false,
      "t": 5999.988,
      "d": 189.51574999999957,
      "v": 127
    },
    {
      "midi": 60,
      "hit": false,
      "t": 5999.988000000003,
      "d": 189.51575000000048,
      "v": 110
    },
    {
      "midi": 53,
      "hit": false,
      "t": 6193.536,
      "d": 189.51574999999957,
      "v": 127
    },
    {
      "midi": 50,
      "hit": false,
      "t": 6193.536000000004,
      "d": 189.51574999999957,
      "v": 110
    },
    {
      "midi": 55,
      "hit": false,
      "t": 6387.084,
      "d": 189.51574999999957,
      "v": 127
    },
    {
      "midi": 52,
      "hit": false,
      "t": 6387.0840000000035,
      "d": 189.51574999999957,
      "v": 110
    },
    {
      "midi": 57,
      "hit": false,
      "t": 6580.632,
      "d": 189.51574999999957,
      "v": 127
    },
    {
      "midi": 53,
      "hit": false,
      "t": 6580.632000000003,
      "d": 189.51574999999957,
      "v": 110
    },
    {
      "midi": 59,
      "hit": false,
      "t": 6774.179999999999,
      "d": 189.51574999999957,
      "v": 127
    },
    {
      "midi": 55,
      "hit": false,
      "t": 6774.180000000003,
      "d": 189.51574999999957,
      "v": 110
    },
    {
      "midi": 79,
      "hit": false,
      "t": 7161.275999999999,
      "d": 189.51574999999957,
      "v": 127
    },
    {
      "midi": 79,
      "hit": false,
      "t": 7354.823999999999,
      "d": 322.5799999999999,
      "v": 127
    },
    {
      "midi": 64,
      "hit": false,
      "t": 7741.919999999998,
      "d": 322.5799999999999,
      "v": 127
    },
    {
      "midi": 48,
      "hit": false,
      "t": 7741.920000000003,
      "d": 322.5799999999999,
      "v": 110
    },
    {
      "midi": 55,
      "hit": false,
      "t": 7935.468000000003,
      "d": 189.51575000000048,
      "v": 110
    },
    {
      "midi": 62,
      "hit": false,
      "t": 8129.015999999998,
      "d": 92.74174999999923,
      "v": 127
    },
    {
      "midi": 48,
      "hit": false,
      "t": 8129.016000000003,
      "d": 322.5799999999999,
      "v": 110
    },
    {
      "midi": 60,
      "hit": false,
      "t": 8225.789999999997,
      "d": 189.51575000000048,
      "v": 127
    },
    {
      "midi": 55,
      "hit": false,
      "t": 8322.564000000004,
      "d": 189.51574999999866,
      "v": 110
    },
    {
      "midi": 64,
      "hit": false,
      "t": 8419.337999999998,
      "d": 419.35399999999936,
      "v": 127
    },
    {
      "midi": 48,
      "hit": false,
      "t": 8516.112000000003,
      "d": 322.5799999999999,
      "v": 110
    },
    {
      "midi": 56,
      "hit": false,
      "t": 8709.660000000003,
      "d": 189.51574999999866,
      "v": 110
    },
    {
      "midi": 48,
      "hit": false,
      "t": 8903.208000000002,
      "d": 322.5799999999999,
      "v": 110
    },
    {
      "midi": 60,
      "hit": false,
      "t": 9096.755999999998,
      "d": 92.74174999999923,
      "v": 127
    },
    {
      "midi": 56,
      "hit": false,
      "t": 9096.756000000003,
      "d": 189.51574999999866,
      "v": 110
    },
    {
      "midi": 62,
      "hit": false,
      "t": 9193.529999999997,
      "d": 92.74174999999923,
      "v": 127
    },
    {
      "midi": 64,
      "hit": false,
      "t": 9290.303999999996,
      "d": 189.51575000000048,
      "v": 127
    },
    {
      "midi": 48,
      "hit": false,
      "t": 9290.304000000002,
      "d": 322.5799999999999,
      "v": 110
    },
    {
      "midi": 64,
      "hit": false,
      "t": 9483.851999999997,
      "d": 189.51575000000048,
      "v": 127
    },
    {
      "midi": 57,
      "hit": false,
      "t": 9483.852000000003,
      "d": 189.51574999999866,
      "v": 110
    },
    {
      "midi": 62,
      "hit": false,
      "t": 9677.399999999998,
      "d": 189.51575000000048,
      "v": 127
    },
    {
      "midi": 48,
      "hit": false,
      "t": 9677.400000000001,
      "d": 322.5799999999999,
      "v": 110
    },
    {
      "midi": 60,
      "hit": false,
      "t": 9870.947999999999,
      "d": 189.51575000000048,
      "v": 127
    },
    {
      "midi": 57,
      "hit": false,
      "t": 9870.948000000002,
      "d": 189.51574999999866,
      "v": 110
    },
    {
      "midi": 69,
      "hit": false,
      "t": 10064.496,
      "d": 189.51575000000048,
      "v": 127
    },
    {
      "midi": 48,
      "hit": false,
      "t": 10064.496000000001,
      "d": 322.5799999999999,
      "v": 110
    },
    {
      "midi": 67,
      "hit": false,
      "t": 10258.044,
      "d": 189.51575000000048,
      "v": 127
    },
    {
      "midi": 58,
      "hit": false,
      "t": 10258.044000000002,
      "d": 189.51574999999866,
      "v": 110
    },
    {
      "midi": 72,
      "hit": false,
      "t": 10451.592,
      "d": 189.51575000000048,
      "v": 127
    },
    {
      "midi": 48,
      "hit": false,
      "t": 10451.592,
      "d": 322.5799999999999,
      "v": 110
    },
    {
      "midi": 63,
      "hit": false,
      "t": 10645.140000000001,
      "d": 92.74174999999923,
      "v": 127
    },
    {
      "midi": 58,
      "hit": false,
      "t": 10645.140000000001,
      "d": 189.51574999999866,
      "v": 110
    },
    {
      "midi": 62,
      "hit": false,
      "t": 10741.914,
      "d": 286.2897499999999,
      "v": 127
    },
    {
      "midi": 53,
      "hit": false,
      "t": 10838.688,
      "d": 189.51575000000048,
      "v": 110
    },
    {
      "midi": 60,
      "hit": false,
      "t": 11032.236,
      "d": 189.51575000000048,
      "v": 127
    },
    {
      "midi": 60,
      "hit": false,
      "t": 11032.236,
      "d": 189.51575000000048,
      "v": 110
    },
    {
      "midi": 60,
      "hit": false,
      "t": 11225.784000000001,
      "d": 189.51575000000048,
      "v": 127
    },
    {
      "midi": 53,
      "hit": false,
      "t": 11225.784000000001,
      "d": 189.51575000000048,
      "v": 110
    },
    {
      "midi": 62,
      "hit": false,
      "t": 11419.332000000002,
      "d": 189.51575000000048,
      "v": 127
    },
    {
      "midi": 60,
      "hit": false,
      "t": 11419.332000000002,
      "d": 189.51575000000048,
      "v": 110
    },
    {
      "midi": 64,
      "hit": false,
      "t": 11612.880000000003,
      "d": 286.2897499999999,
      "v": 127
    },
    {
      "midi": 52,
      "hit": false,
      "t": 11612.880000000003,
      "d": 322.5799999999999,
      "v": 110
    },
    {
      "midi": 60,
      "hit": false,
      "t": 11806.428000000004,
      "d": 189.51574999999866,
      "v": 110
    },
    {
      "midi": 60,
      "hit": false,
      "t": 11903.202000000003,
      "d": 286.2897499999999,
      "v": 127
    },
    {
      "midi": 52,
      "hit": false,
      "t": 11999.976000000002,
      "d": 322.5799999999999,
      "v": 110
    },
    {
      "midi": 60,
      "hit": false,
      "t": 12193.524000000003,
      "d": 189.51575000000048,
      "v": 127
    },
    {
      "midi": 60,
      "hit": false,
      "t": 12193.524000000003,
      "d": 189.51574999999866,
      "v": 110
    },
    {
      "midi": 50,
      "hit": false,
      "t": 12387.072000000002,
      "d": 189.51575000000048,
      "v": 110
    },
    {
      "midi": 65,
      "hit": false,
      "t": 12387.072000000004,
      "d": 189.51575000000048,
      "v": 127
    },
    {
      "midi": 52,
      "hit": false,
      "t": 12580.620000000003,
      "d": 189.51575000000048,
      "v": 110
    },
    {
      "midi": 64,
      "hit": false,
      "t": 12580.620000000004,
      "d": 189.51575000000048,
      "v": 127
    },
    {
      "midi": 53,
      "hit": false,
      "t": 12774.168000000003,
      "d": 189.51575000000048,
      "v": 110
    },
    {
      "midi": 60,
      "hit": false,
      "t": 12774.168000000005,
      "d": 189.51575000000048,
      "v": 127
    },
    {
      "midi": 55,
      "hit": false,
      "t": 12967.716000000004,
      "d": 189.51575000000048,
      "v": 110
    },
    {
      "midi": 62,
      "hit": false,
      "t": 12967.716000000006,
      "d": 189.51575000000048,
      "v": 127
    },
    {
      "midi": 76,
      "hit": false,
      "t": 13258.038000000006,
      "d": 286.2897499999999,
      "v": 127
    },
    {
      "midi": 67,
      "hit": false,
      "t": 13548.360000000006,
      "d": 322.5799999999999,
      "v": 127
    },
    {
      "midi": 45,
      "hit": false,
      "t": 13935.456000000004,
      "d": 322.5799999999999,
      "v": 110
    },
    {
      "midi": 53,
      "hit": false,
      "t": 14129.004000000004,
      "d": 189.51574999999866,
      "v": 110
    },
    {
      "midi": 69,
      "hit": false,
      "t": 14129.004000000006,
      "d": 189.51575000000048,
      "v": 127
    },
    {
      "midi": 45,
      "hit": false,
      "t": 14322.552000000003,
      "d": 322.5799999999999,
      "v": 110
    },
    {
      "midi": 71,
      "hit": false,
      "t": 14322.552000000007,
      "d": 189.51575000000048,
      "v": 127
    },
    {
      "midi": 53,
      "hit": false,
      "t": 14516.100000000004,
      "d": 189.51574999999866,
      "v": 110
    },
    {
      "midi": 72,
      "hit": false,
      "t": 14516.100000000008,
      "d": 189.51575000000048,
      "v": 127
    },
    {
      "midi": 43,
      "hit": false,
      "t": 14709.648000000003,
      "d": 189.51575000000048,
      "v": 110
    },
    {
      "midi": 71,
      "hit": false,
      "t": 14709.648000000008,
      "d": 286.2897499999999,
      "v": 127
    },
    {
      "midi": 52,
      "hit": false,
      "t": 14903.196000000004,
      "d": 189.51575000000048,
      "v": 110
    },
    {
      "midi": 67,
      "hit": false,
      "t": 14999.970000000008,
      "d": 286.2897499999999,
      "v": 127
    },
    {
      "midi": 43,
      "hit": false,
      "t": 15096.744000000004,
      "d": 189.51575000000048,
      "v": 110
    },
    {
      "midi": 52,
      "hit": false,
      "t": 15290.292000000005,
      "d": 189.51575000000048,
      "v": 110
    },
    {
      "midi": 67,
      "hit": false,
      "t": 15290.292000000009,
      "d": 189.51575000000048,
      "v": 127
    },
    {
      "midi": 43,
      "hit": false,
      "t": 15483.840000000006,
      "d": 189.51575000000048,
      "v": 110
    },
    {
      "midi": 65,
      "hit": false,
      "t": 15483.84000000001,
      "d": 322.5799999999999,
      "v": 127
    },
    {
      "midi": 50,
      "hit": false,
      "t": 15677.388000000006,
      "d": 189.51575000000048,
      "v": 110
    },
    {
      "midi": 43,
      "hit": false,
      "t": 15870.936000000007,
      "d": 189.51575000000048,
      "v": 110
    },
    {
      "midi": 67,
      "hit": false,
      "t": 15870.936000000009,
      "d": 92.74174999999923,
      "v": 127
    },
    {
      "midi": 65,
      "hit": false,
      "t": 15967.710000000008,
      "d": 286.2897499999999,
      "v": 127
    },
    {
      "midi": 50,
      "hit": false,
      "t": 16064.484000000008,
      "d": 189.51575000000048,
      "v": 110
    },
    {
      "midi": 64,
      "hit": false,
      "t": 16258.032000000008,
      "d": 189.51575000000048,
      "v": 127
    },
    {
      "midi": 48,
      "hit": false,
      "t": 16258.032000000008,
      "d": 189.51575000000048,
      "v": 110
    },
    {
      "midi": 65,
      "hit": false,
      "t": 16451.58000000001,
      "d": 189.51574999999866,
      "v": 127
    },
    {
      "midi": 50,
      "hit": false,
      "t": 16451.58000000001,
      "d": 189.51574999999866,
      "v": 110
    },
    {
      "midi": 66,
      "hit": false,
      "t": 16645.128000000008,
      "d": 189.51574999999866,
      "v": 127
    },
    {
      "midi": 51,
      "hit": false,
      "t": 16645.128000000008,
      "d": 189.51574999999866,
      "v": 110
    },
    {
      "midi": 67,
      "hit": false,
      "t": 16838.676000000007,
      "d": 189.51574999999866,
      "v": 127
    },
    {
      "midi": 52,
      "hit": false,
      "t": 16838.676000000007,
      "d": 189.51574999999866,
      "v": 110
    },
    {
      "midi": 45,
      "hit": false,
      "t": 17032.224000000006,
      "d": 322.5799999999981,
      "v": 110
    },
    {
      "midi": 69,
      "hit": false,
      "t": 17225.772000000004,
      "d": 189.51574999999866,
      "v": 127
    },
    {
      "midi": 53,
      "hit": false,
      "t": 17225.772000000004,
      "d": 189.51574999999866,
      "v": 110
    },
    {
      "midi": 71,
      "hit": false,
      "t": 17419.320000000003,
      "d": 189.51574999999866,
      "v": 127
    },
    {
      "midi": 45,
      "hit": false,
      "t": 17419.320000000003,
      "d": 322.5799999999981,
      "v": 110
    },
    {
      "midi": 72,
      "hit": false,
      "t": 17612.868000000002,
      "d": 189.51574999999866,
      "v": 127
    },
    {
      "midi": 53,
      "hit": false,
      "t": 17612.868000000002,
      "d": 189.51574999999866,
      "v": 110
    },
    {
      "midi": 71,
      "hit": false,
      "t": 17806.416,
      "d": 286.2897499999999,
      "v": 127
    },
    {
      "midi": 43,
      "hit": false,
      "t": 17806.416,
      "d": 189.51574999999866,
      "v": 110
    },
    {
      "midi": 52,
      "hit": false,
      "t": 17999.964,
      "d": 189.51574999999866,
      "v": 110
    },
    {
      "midi": 67,
      "hit": false,
      "t": 18096.738,
      "d": 286.2897499999999,
      "v": 127
    },
    {
      "midi": 43,
      "hit": false,
      "t": 18193.512,
      "d": 189.51574999999866,
      "v": 110
    },
    {
      "midi": 52,
      "hit": false,
      "t": 18387.059999999998,
      "d": 189.51574999999866,
      "v": 110
    },
    {
      "midi": 67,
      "hit": false,
      "t": 18387.06,
      "d": 189.51574999999866,
      "v": 127
    },
    {
      "midi": 44,
      "hit": false,
      "t": 18580.607999999997,
      "d": 189.51574999999866,
      "v": 110
    },
    {
      "midi": 75,
      "hit": false,
      "t": 18580.608,
      "d": 189.51574999999866,
      "v": 127
    },
    {
      "midi": 51,
      "hit": false,
      "t": 18774.155999999995,
      "d": 189.51574999999866,
      "v": 110
    },
    {
      "midi": 74,
      "hit": false,
      "t": 18774.156,
      "d": 189.51574999999866,
      "v": 127
    },
    {
      "midi": 44,
      "hit": false,
      "t": 18967.703999999994,
      "d": 189.51574999999866,
      "v": 110
    },
    {
      "midi": 51,
      "hit": false,
      "t": 19161.251999999993,
      "d": 189.51574999999866,
      "v": 110
    },
    {
      "midi": 72,
      "hit": false,
      "t": 19161.251999999997,
      "d": 189.51574999999866,
      "v": 127
    },
    {
      "midi": 55,
      "hit": false,
      "t": 19354.799999999992,
      "d": 92.74175000000105,
      "v": 110
    },
    {
      "midi": 55,
      "hit": false,
      "t": 19451.573999999993,
      "d": 92.74175000000105,
      "v": 110
    },
    {
      "midi": 53,
      "hit": false,
      "t": 19548.347999999994,
      "d": 189.51574999999866,
      "v": 110
    },
    {
      "midi": 52,
      "hit": false,
      "t": 19741.895999999993,
      "d": 189.51574999999866,
      "v": 110
    },
    {
      "midi": 50,
      "hit": false,
      "t": 19935.443999999992,
      "d": 189.51574999999866,
      "v": 110
    },
    {
      "midi": 48,
      "hit": false,
      "t": 20128.99199999999,
      "d": 322.5799999999981,
      "v": 110
    },
    {
      "midi": 64,
      "hit": false,
      "t": 20128.991999999995,
      "d": 322.58000000000175,
      "v": 127
    },
    {
      "midi": 55,
      "hit": false,
      "t": 20322.53999999999,
      "d": 189.51574999999866,
      "v": 110
    },
    {
      "midi": 48,
      "hit": false,
      "t": 20516.08799999999,
      "d": 322.5799999999981,
      "v": 110
    },
    {
      "midi": 62,
      "hit": false,
      "t": 20516.087999999996,
      "d": 92.74175000000105,
      "v": 127
    },
    {
      "midi": 60,
      "hit": false,
      "t": 20612.861999999997,
      "d": 189.51574999999866,
      "v": 127
    },
    {
      "midi": 55,
      "hit": false,
      "t": 20709.635999999988,
      "d": 189.51574999999866,
      "v": 110
    },
    {
      "midi": 64,
      "hit": false,
      "t": 20806.409999999996,
      "d": 419.35399999999936,
      "v": 127
    },
    {
      "midi": 48,
      "hit": false,
      "t": 20903.183999999987,
      "d": 322.5799999999981,
      "v": 110
    },
    {
      "midi": 56,
      "hit": false,
      "t": 21096.731999999985,
      "d": 189.51574999999866,
      "v": 110
    },
    {
      "midi": 48,
      "hit": false,
      "t": 21290.279999999984,
      "d": 322.5799999999981,
      "v": 110
    },
    {
      "midi": 56,
      "hit": false,
      "t": 21483.827999999983,
      "d": 189.51574999999866,
      "v": 110
    },
    {
      "midi": 60,
      "hit": false,
      "t": 21483.827999999994,
      "d": 92.74175000000105,
      "v": 127
    },
    {
      "midi": 62,
      "hit": false,
      "t": 21580.601999999995,
      "d": 92.74175000000105,
      "v": 127
    },
    {
      "midi": 48,
      "hit": false,
      "t": 21677.375999999982,
      "d": 322.5799999999981,
      "v": 110
    },
    {
      "midi": 64,
      "hit": false,
      "t": 21677.375999999997,
      "d": 189.51574999999866,
      "v": 127
    },
    {
      "midi": 57,
      "hit": false,
      "t": 21870.92399999998,
      "d": 189.51574999999866,
      "v": 110
    },
    {
      "midi": 64,
      "hit": false,
      "t": 21870.923999999995,
      "d": 189.51574999999866,
      "v": 127
    },
    {
      "midi": 48,
      "hit": false,
      "t": 22064.47199999998,
      "d": 322.5799999999981,
      "v": 110
    },
    {
      "midi": 62,
      "hit": false,
      "t": 22064.471999999994,
      "d": 189.51574999999866,
      "v": 127
    },
    {
      "midi": 57,
      "hit": false,
      "t": 22258.01999999998,
      "d": 189.51574999999866,
      "v": 110
    },
    {
      "midi": 60,
      "hit": false,
      "t": 22258.019999999993,
      "d": 189.51574999999866,
      "v": 127
    },
    {
      "midi": 48,
      "hit": false,
      "t": 22451.567999999977,
      "d": 322.5799999999981,
      "v": 110
    },
    {
      "midi": 64,
      "hit": false,
      "t": 22451.567999999992,
      "d": 189.51574999999866,
      "v": 127
    },
    {
      "midi": 58,
      "hit": false,
      "t": 22645.115999999976,
      "d": 189.51574999999866,
      "v": 110
    },
    {
      "midi": 65,
      "hit": false,
      "t": 22645.11599999999,
      "d": 189.51574999999866,
      "v": 127
    },
    {
      "midi": 48,
      "hit": false,
      "t": 22838.663999999975,
      "d": 322.5799999999981,
      "v": 110
    },
    {
      "midi": 67,
      "hit": false,
      "t": 22838.66399999999,
      "d": 189.51574999999866,
      "v": 127
    },
    {
      "midi": 58,
      "hit": false,
      "t": 23032.211999999974,
      "d": 189.51574999999866,
      "v": 110
    },
    {
      "midi": 69,
      "hit": false,
      "t": 23032.21199999999,
      "d": 189.51574999999866,
      "v": 127
    },
    {
      "midi": 53,
      "hit": false,
      "t": 23225.759999999973,
      "d": 189.51574999999866,
      "v": 110
    },
    {
      "midi": 60,
      "hit": false,
      "t": 23419.30799999997,
      "d": 189.51574999999866,
      "v": 110
    },
    {
      "midi": 60,
      "hit": false,
      "t": 23419.307999999986,
      "d": 189.51574999999866,
      "v": 127
    },
    {
      "midi": 53,
      "hit": false,
      "t": 23612.85599999997,
      "d": 189.51574999999866,
      "v": 110
    },
    {
      "midi": 60,
      "hit": false,
      "t": 23612.855999999985,
      "d": 189.51574999999866,
      "v": 127
    },
    {
      "midi": 60,
      "hit": false,
      "t": 23806.40399999997,
      "d": 189.51574999999866,
      "v": 110
    },
    {
      "midi": 57,
      "hit": false,
      "t": 23806.403999999984,
      "d": 189.51574999999866,
      "v": 127
    },
    {
      "midi": 52,
      "hit": false,
      "t": 23999.95199999997,
      "d": 322.5799999999981,
      "v": 110
    },
    {
      "midi": 55,
      "hit": false,
      "t": 23999.951999999983,
      "d": 189.51574999999866,
      "v": 127
    },
    {
      "midi": 60,
      "hit": false,
      "t": 24193.499999999967,
      "d": 189.51574999999866,
      "v": 110
    },
    {
      "midi": 60,
      "hit": false,
      "t": 24193.49999999998,
      "d": 92.74175000000105,
      "v": 127
    },
    {
      "midi": 60,
      "hit": false,
      "t": 24290.273999999983,
      "d": 286.2897499999999,
      "v": 127
    },
    {
      "midi": 52,
      "hit": false,
      "t": 24387.047999999966,
      "d": 322.5799999999981,
      "v": 110
    },
    {
      "midi": 60,
      "hit": false,
      "t": 24580.595999999965,
      "d": 189.51574999999866,
      "v": 110
    },
    {
      "midi": 60,
      "hit": false,
      "t": 24580.595999999983,
      "d": 189.51574999999866,
      "v": 127
    },
    {
      "midi": 50,
      "hit": false,
      "t": 24774.143999999964,
      "d": 189.51574999999866,
      "v": 110
    },
    {
      "midi": 53,
      "hit": false,
      "t": 24774.143999999982,
      "d": 189.51574999999866,
      "v": 127
    },
    {
      "midi": 52,
      "hit": false,
      "t": 24967.691999999963,
      "d": 189.51574999999866,
      "v": 110
    },
    {
      "midi": 55,
      "hit": false,
      "t": 24967.69199999998,
      "d": 189.51574999999866,
      "v": 127
    },
    {
      "midi": 53,
      "hit": false,
      "t": 25161.23999999996,
      "d": 189.51574999999866,
      "v": 110
    },
    {
      "midi": 57,
      "hit": false,
      "t": 25161.23999999998,
      "d": 189.51574999999866,
      "v": 127
    },
    {
      "midi": 55,
      "hit": false,
      "t": 25354.78799999996,
      "d": 189.51574999999866,
      "v": 110
    },
    {
      "midi": 59,
      "hit": false,
      "t": 25354.78799999998,
      "d": 189.51574999999866,
      "v": 127
    },
    {
      "midi": 79,
      "hit": false,
      "t": 25741.883999999976,
      "d": 189.51574999999866,
      "v": 127
    },
    {
      "midi": 79,
      "hit": false,
      "t": 25935.431999999975,
      "d": 322.58000000000175,
      "v": 127
    },
    {
      "midi": 48,
      "hit": false,
      "t": 26322.52799999996,
      "d": 322.5799999999981,
      "v": 110
    },
    {
      "midi": 64,
      "hit": false,
      "t": 26322.527999999977,
      "d": 322.58000000000175,
      "v": 127
    },
    {
      "midi": 55,
      "hit": false,
      "t": 26516.075999999957,
      "d": 189.51574999999866,
      "v": 110
    },
    {
      "midi": 48,
      "hit": false,
      "t": 26709.623999999956,
      "d": 322.5799999999981,
      "v": 110
    },
    {
      "midi": 62,
      "hit": false,
      "t": 26709.623999999978,
      "d": 92.74175000000105,
      "v": 127
    },
    {
      "midi": 60,
      "hit": false,
      "t": 26806.39799999998,
      "d": 189.51574999999866,
      "v": 127
    },
    {
      "midi": 55,
      "hit": false,
      "t": 26903.171999999955,
      "d": 189.51574999999866,
      "v": 110
    },
    {
      "midi": 64,
      "hit": false,
      "t": 26999.945999999978,
      "d": 419.35399999999936,
      "v": 127
    },
    {
      "midi": 48,
      "hit": false,
      "t": 27096.719999999954,
      "d": 322.5799999999981,
      "v": 110
    },
    {
      "midi": 56,
      "hit": false,
      "t": 27290.267999999953,
      "d": 189.51574999999866,
      "v": 110
    },
    {
      "midi": 48,
      "hit": false,
      "t": 27483.81599999995,
      "d": 322.5799999999981,
      "v": 110
    },
    {
      "midi": 56,
      "hit": false,
      "t": 27677.36399999995,
      "d": 189.51574999999866,
      "v": 110
    },
    {
      "midi": 60,
      "hit": false,
      "t": 27677.363999999976,
      "d": 92.74175000000105,
      "v": 127
    },
    {
      "midi": 62,
      "hit": false,
      "t": 27774.137999999977,
      "d": 92.74175000000105,
      "v": 127
    },
    {
      "midi": 48,
      "hit": false,
      "t": 27870.91199999995,
      "d": 322.5799999999981,
      "v": 110
    },
    {
      "midi": 64,
      "hit": false,
      "t": 27870.91199999998,
      "d": 189.51574999999866,
      "v": 127
    },
    {
      "midi": 57,
      "hit": false,
      "t": 28064.45999999995,
      "d": 189.51574999999866,
      "v": 110
    },
    {
      "midi": 64,
      "hit": false,
      "t": 28064.459999999977,
      "d": 189.51574999999866,
      "v": 127
    },
    {
      "midi": 48,
      "hit": false,
      "t": 28258.007999999947,
      "d": 322.5799999999981,
      "v": 110
    },
    {
      "midi": 62,
      "hit": false,
      "t": 28258.007999999976,
      "d": 189.51574999999866,
      "v": 127
    },
    {
      "midi": 57,
      "hit": false,
      "t": 28451.555999999946,
      "d": 189.51574999999866,
      "v": 110
    },
    {
      "midi": 60,
      "hit": false,
      "t": 28451.555999999975,
      "d": 189.51574999999866,
      "v": 127
    },
    {
      "midi": 48,
      "hit": false,
      "t": 28645.103999999945,
      "d": 322.5799999999981,
      "v": 110
    },
    {
      "midi": 69,
      "hit": false,
      "t": 28645.103999999974,
      "d": 189.51574999999866,
      "v": 127
    },
    {
      "midi": 58,
      "hit": false,
      "t": 28838.651999999944,
      "d": 189.51574999999866,
      "v": 110
    },
    {
      "midi": 67,
      "hit": false,
      "t": 28838.651999999973,
      "d": 189.51574999999866,
      "v": 127
    },
    {
      "midi": 48,
      "hit": false,
      "t": 29032.199999999943,
      "d": 322.5799999999981,
      "v": 110
    },
    {
      "midi": 72,
      "hit": false,
      "t": 29032.19999999997,
      "d": 189.51574999999866,
      "v": 127
    },
    {
      "midi": 58,
      "hit": false,
      "t": 29225.74799999994,
      "d": 189.51574999999866,
      "v": 110
    },
    {
      "midi": 63,
      "hit": false,
      "t": 29225.74799999997,
      "d": 92.74175000000105,
      "v": 127
    },
    {
      "midi": 62,
      "hit": false,
      "t": 29322.52199999997,
      "d": 286.2897499999999,
      "v": 127
    },
    {
      "midi": 53,
      "hit": false,
      "t": 29419.29599999994,
      "d": 189.51574999999866,
      "v": 110
    },
    {
      "midi": 60,
      "hit": false,
      "t": 29612.84399999994,
      "d": 189.51574999999866,
      "v": 110
    },
    {
      "midi": 60,
      "hit": false,
      "t": 29612.843999999972,
      "d": 189.51574999999866,
      "v": 127
    },
    {
      "midi": 53,
      "hit": false,
      "t": 29806.391999999938,
      "d": 189.51574999999866,
      "v": 110
    },
    {
      "midi": 60,
      "hit": false,
      "t": 29806.39199999997,
      "d": 189.51574999999866,
      "v": 127
    },
    {
      "midi": 60,
      "hit": false,
      "t": 29999.939999999937,
      "d": 189.51574999999866,
      "v": 110
    },
    {
      "midi": 62,
      "hit": false,
      "t": 29999.93999999997,
      "d": 189.51574999999866,
      "v": 127
    },
    {
      "midi": 52,
      "hit": false,
      "t": 30193.487999999936,
      "d": 322.5799999999981,
      "v": 110
    },
    {
      "midi": 64,
      "hit": false,
      "t": 30193.48799999997,
      "d": 286.2897499999999,
      "v": 127
    },
    {
      "midi": 60,
      "hit": false,
      "t": 30387.035999999935,
      "d": 189.51574999999866,
      "v": 110
    },
    {
      "midi": 60,
      "hit": false,
      "t": 30483.80999999997,
      "d": 286.2897499999999,
      "v": 127
    },
    {
      "midi": 52,
      "hit": false,
      "t": 30580.583999999933,
      "d": 322.5799999999981,
      "v": 110
    },
    {
      "midi": 60,
      "hit": false,
      "t": 30774.131999999932,
      "d": 189.51574999999866,
      "v": 110
    },
    {
      "midi": 60,
      "hit": false,
      "t": 30774.13199999997,
      "d": 189.51574999999866,
      "v": 127
    },
    {
      "midi": 50,
      "hit": false,
      "t": 30967.67999999993,
      "d": 189.51574999999866,
      "v": 110
    },
    {
      "midi": 65,
      "hit": false,
      "t": 30967.679999999968,
      "d": 189.51574999999866,
      "v": 127
    },
    {
      "midi": 52,
      "hit": false,
      "t": 31161.22799999993,
      "d": 189.51574999999866,
      "v": 110
    },
    {
      "midi": 64,
      "hit": false,
      "t": 31161.227999999966,
      "d": 189.51574999999866,
      "v": 127
    },
    {
      "midi": 53,
      "hit": false,
      "t": 31354.77599999993,
      "d": 189.51574999999866,
      "v": 110
    },
    {
      "midi": 60,
      "hit": false,
      "t": 31354.775999999965,
      "d": 189.51574999999866,
      "v": 127
    },
    {
      "midi": 55,
      "hit": false,
      "t": 31548.323999999928,
      "d": 189.51574999999866,
      "v": 110
    },
    {
      "midi": 62,
      "hit": false,
      "t": 31548.323999999964,
      "d": 189.51574999999866,
      "v": 127
    },
    {
      "midi": 76,
      "hit": false,
      "t": 31838.645999999964,
      "d": 286.2897499999999,
      "v": 127
    },
    {
      "midi": 67,
      "hit": false,
      "t": 32128.967999999964,
      "d": 322.58000000000175,
      "v": 127
    },
    {
      "midi": 45,
      "hit": false,
      "t": 32516.063999999926,
      "d": 322.58000000000175,
      "v": 110
    },
    {
      "midi": 53,
      "hit": false,
      "t": 32709.611999999925,
      "d": 189.5157500000023,
      "v": 110
    },
    {
      "midi": 69,
      "hit": false,
      "t": 32709.611999999965,
      "d": 189.51574999999866,
      "v": 127
    },
    {
      "midi": 45,
      "hit": false,
      "t": 32903.15999999992,
      "d": 322.58000000000175,
      "v": 110
    },
    {
      "midi": 71,
      "hit": false,
      "t": 32903.15999999996,
      "d": 189.51574999999866,
      "v": 127
    },
    {
      "midi": 53,
      "hit": false,
      "t": 33096.707999999926,
      "d": 189.51574999999866,
      "v": 110
    },
    {
      "midi": 72,
      "hit": false,
      "t": 33096.707999999955,
      "d": 189.51574999999866,
      "v": 127
    },
    {
      "midi": 43,
      "hit": false,
      "t": 33290.25599999992,
      "d": 189.51574999999866,
      "v": 110
    },
    {
      "midi": 71,
      "hit": false,
      "t": 33290.25599999995,
      "d": 286.28975000000355,
      "v": 127
    },
    {
      "midi": 52,
      "hit": false,
      "t": 33483.80399999992,
      "d": 189.51574999999866,
      "v": 110
    },
    {
      "midi": 67,
      "hit": false,
      "t": 33580.57799999995,
      "d": 286.28975000000355,
      "v": 127
    },
    {
      "midi": 43,
      "hit": false,
      "t": 33677.35199999991,
      "d": 189.51574999999866,
      "v": 110
    },
    {
      "midi": 52,
      "hit": false,
      "t": 33870.89999999991,
      "d": 189.51574999999866,
      "v": 110
    },
    {
      "midi": 67,
      "hit": false,
      "t": 33870.89999999995,
      "d": 189.51574999999866,
      "v": 127
    },
    {
      "midi": 43,
      "hit": false,
      "t": 34064.4479999999,
      "d": 189.51574999999866,
      "v": 110
    },
    {
      "midi": 65,
      "hit": false,
      "t": 34064.447999999946,
      "d": 322.58000000000175,
      "v": 127
    },
    {
      "midi": 50,
      "hit": false,
      "t": 34257.9959999999,
      "d": 189.51574999999866,
      "v": 110
    },
    {
      "midi": 43,
      "hit": false,
      "t": 34451.54399999989,
      "d": 189.51574999999866,
      "v": 110
    },
    {
      "midi": 67,
      "hit": false,
      "t": 34451.54399999995,
      "d": 92.74175000000105,
      "v": 127
    },
    {
      "midi": 65,
      "hit": false,
      "t": 34548.31799999995,
      "d": 286.28975000000355,
      "v": 127
    },
    {
      "midi": 50,
      "hit": false,
      "t": 34645.09199999989,
      "d": 189.51574999999866,
      "v": 110
    },
    {
      "midi": 48,
      "hit": false,
      "t": 34838.63999999988,
      "d": 189.51574999999866,
      "v": 110
    },
    {
      "midi": 64,
      "hit": false,
      "t": 34838.63999999995,
      "d": 189.51574999999866,
      "v": 127
    },
    {
      "midi": 50,
      "hit": false,
      "t": 35032.18799999988,
      "d": 189.51574999999866,
      "v": 110
    },
    {
      "midi": 65,
      "hit": false,
      "t": 35032.187999999944,
      "d": 189.51574999999866,
      "v": 127
    },
    {
      "midi": 51,
      "hit": false,
      "t": 35225.73599999987,
      "d": 189.51574999999866,
      "v": 110
    },
    {
      "midi": 66,
      "hit": false,
      "t": 35225.73599999994,
      "d": 189.51574999999866,
      "v": 127
    },
    {
      "midi": 52,
      "hit": false,
      "t": 35419.28399999987,
      "d": 189.51574999999866,
      "v": 110
    },
    {
      "midi": 67,
      "hit": false,
      "t": 35419.283999999934,
      "d": 189.51574999999866,
      "v": 127
    },
    {
      "midi": 45,
      "hit": false,
      "t": 35612.831999999864,
      "d": 322.58000000000175,
      "v": 110
    },
    {
      "midi": 53,
      "hit": false,
      "t": 35806.37999999987,
      "d": 189.51574999999866,
      "v": 110
    },
    {
      "midi": 69,
      "hit": false,
      "t": 35806.37999999993,
      "d": 189.51574999999866,
      "v": 127
    },
    {
      "midi": 45,
      "hit": false,
      "t": 35999.92799999986,
      "d": 322.58000000000175,
      "v": 110
    },
    {
      "midi": 71,
      "hit": false,
      "t": 35999.92799999993,
      "d": 189.51574999999866,
      "v": 127
    },
    {
      "midi": 53,
      "hit": false,
      "t": 36193.475999999864,
      "d": 189.51574999999866,
      "v": 110
    },
    {
      "midi": 72,
      "hit": false,
      "t": 36193.47599999992,
      "d": 189.51574999999866,
      "v": 127
    },
    {
      "midi": 43,
      "hit": false,
      "t": 36387.02399999986,
      "d": 189.51574999999866,
      "v": 110
    },
    {
      "midi": 71,
      "hit": false,
      "t": 36387.02399999992,
      "d": 286.28975000000355,
      "v": 127
    },
    {
      "midi": 52,
      "hit": false,
      "t": 36580.571999999855,
      "d": 189.51574999999866,
      "v": 110
    },
    {
      "midi": 67,
      "hit": false,
      "t": 36677.34599999992,
      "d": 286.28975000000355,
      "v": 127
    },
    {
      "midi": 43,
      "hit": false,
      "t": 36774.11999999985,
      "d": 189.51574999999866,
      "v": 110
    },
    {
      "midi": 52,
      "hit": false,
      "t": 36967.667999999845,
      "d": 189.51574999999866,
      "v": 110
    },
    {
      "midi": 67,
      "hit": false,
      "t": 36967.66799999992,
      "d": 189.51574999999866,
      "v": 127
    },
    {
      "midi": 44,
      "hit": false,
      "t": 37161.21599999984,
      "d": 189.51574999999866,
      "v": 110
    },
    {
      "midi": 75,
      "hit": false,
      "t": 37161.21599999991,
      "d": 189.51574999999866,
      "v": 127
    },
    {
      "midi": 51,
      "hit": false,
      "t": 37354.763999999836,
      "d": 189.51574999999866,
      "v": 110
    },
    {
      "midi": 74,
      "hit": false,
      "t": 37354.76399999991,
      "d": 189.51574999999866,
      "v": 127
    },
    {
      "midi": 44,
      "hit": false,
      "t": 37548.31199999983,
      "d": 189.51574999999866,
      "v": 110
    },
    {
      "midi": 51,
      "hit": false,
      "t": 37741.859999999826,
      "d": 189.51574999999866,
      "v": 110
    },
    {
      "midi": 72,
      "hit": false,
      "t": 37741.859999999906,
      "d": 189.51574999999866,
      "v": 127
    },
    {
      "midi": 55,
      "hit": false,
      "t": 37935.40799999982,
      "d": 92.74175000000105,
      "v": 110
    },
    {
      "midi": 55,
      "hit": false,
      "t": 38032.18199999982,
      "d": 92.74175000000105,
      "v": 110
    },
    {
      "midi": 53,
      "hit": false,
      "t": 38128.95599999982,
      "d": 189.51574999999866,
      "v": 110
    },
    {
      "midi": 52,
      "hit": false,
      "t": 38322.50399999981,
      "d": 189.51574999999866,
      "v": 110
    },
    {
      "midi": 50,
      "hit": false,
      "t": 38516.05199999981,
      "d": 189.51574999999866,
      "v": 110
    },
    {
      "midi": 48,
      "hit": false,
      "t": 38709.5999999998,
      "d": 258.0639999999985,
      "v": 127
    },
    {
      "midi": 52,
      "hit": false,
      "t": 38967.6639999998,
      "d": 129.03199999999924,
      "v": 127
    },
    {
      "midi": 43,
      "hit": false,
      "t": 39096.6959999998,
      "d": 129.03199999999924,
      "v": 127
    },
    {
      "midi": 45,
      "hit": false,
      "t": 39225.7279999998,
      "d": 129.03199999999924,
      "v": 127
    },
    {
      "midi": 47,
      "hit": false,
      "t": 39354.7599999998,
      "d": 129.03199999999924,
      "v": 127
    },
    {
      "midi": 48,
      "hit": false,
      "t": 39483.7919999998,
      "d": 258.0639999999985,
      "v": 127
    },
    {
      "midi": 55,
      "hit": false,
      "t": 39741.855999999796,
      "d": 129.03199999999924,
      "v": 127
    },
    {
      "midi": 52,
      "hit": false,
      "t": 39870.887999999795,
      "d": 322.58000000000175,
      "v": 110
    },
    {
      "midi": 48,
      "hit": false,
      "t": 40257.9839999998,
      "d": 258.0639999999985,
      "v": 127
    },
    {
      "midi": 52,
      "hit": false,
      "t": 40516.0479999998,
      "d": 129.03199999999924,
      "v": 127
    },
    {
      "midi": 43,
      "hit": false,
      "t": 40645.0799999998,
      "d": 129.03199999999924,
      "v": 127
    },
    {
      "midi": 45,
      "hit": false,
      "t": 40774.1119999998,
      "d": 129.03199999999924,
      "v": 127
    },
    {
      "midi": 47,
      "hit": false,
      "t": 40903.1439999998,
      "d": 129.03199999999924,
      "v": 127
    },
    {
      "midi": 48,
      "hit": false,
      "t": 41032.175999999796,
      "d": 322.58000000000175,
      "v": 110
    },
    {
      "midi": 48,
      "hit": false,
      "t": 41806.3679999998,
      "d": 258.0639999999985,
      "v": 127
    },
    {
      "midi": 52,
      "hit": false,
      "t": 42064.4319999998,
      "d": 129.03199999999924,
      "v": 127
    },
    {
      "midi": 43,
      "hit": false,
      "t": 42193.463999999796,
      "d": 129.03199999999924,
      "v": 127
    },
    {
      "midi": 45,
      "hit": false,
      "t": 42322.495999999795,
      "d": 129.03199999999924,
      "v": 127
    },
    {
      "midi": 47,
      "hit": false,
      "t": 42451.527999999795,
      "d": 129.03199999999924,
      "v": 127
    },
    {
      "midi": 48,
      "hit": false,
      "t": 42580.559999999794,
      "d": 258.0639999999985,
      "v": 127
    },
    {
      "midi": 55,
      "hit": false,
      "t": 42838.62399999979,
      "d": 129.03199999999924,
      "v": 127
    },
    {
      "midi": 52,
      "hit": false,
      "t": 42967.65599999979,
      "d": 322.58000000000175,
      "v": 110
    },
    {
      "midi": 48,
      "hit": false,
      "t": 43354.7519999998,
      "d": 258.0639999999985,
      "v": 127
    },
    {
      "midi": 52,
      "hit": false,
      "t": 43612.815999999795,
      "d": 129.03199999999924,
      "v": 127
    },
    {
      "midi": 43,
      "hit": false,
      "t": 43741.847999999794,
      "d": 129.03199999999924,
      "v": 127
    },
    {
      "midi": 45,
      "hit": false,
      "t": 43870.879999999794,
      "d": 129.03199999999924,
      "v": 127
    },
    {
      "midi": 47,
      "hit": false,
      "t": 43999.91199999979,
      "d": 129.03199999999924,
      "v": 127
    },
    {
      "midi": 48,
      "hit": false,
      "t": 44128.94399999979,
      "d": 322.58000000000175,
      "v": 110
    },
    {
      "midi": 43,
      "hit": false,
      "t": 44903.135999999795,
      "d": 189.51574999999866,
      "v": 110
    },
    {
      "midi": 67,
      "hit": false,
      "t": 44903.135999999904,
      "d": 322.58000000000175,
      "v": 127
    },
    {
      "midi": 44,
      "hit": false,
      "t": 45096.68399999979,
      "d": 189.51574999999866,
      "v": 110
    },
    {
      "midi": 43,
      "hit": false,
      "t": 45290.231999999785,
      "d": 189.51574999999866,
      "v": 110
    },
    {
      "midi": 66,
      "hit": false,
      "t": 45290.23199999991,
      "d": 189.51574999999866,
      "v": 127
    },
    {
      "midi": 44,
      "hit": false,
      "t": 45483.77999999978,
      "d": 189.51574999999866,
      "v": 110
    },
    {
      "midi": 63,
      "hit": false,
      "t": 45483.779999999904,
      "d": 64.51600000000326,
      "v": 127
    },
    {
      "midi": 66,
      "hit": false,
      "t": 45548.29599999991,
      "d": 64.51600000000326,
      "v": 127
    },
    {
      "midi": 63,
      "hit": false,
      "t": 45612.81199999991,
      "d": 64.51600000000326,
      "v": 127
    },
    {
      "midi": 43,
      "hit": false,
      "t": 45677.327999999776,
      "d": 189.51574999999866,
      "v": 110
    },
    {
      "midi": 62,
      "hit": false,
      "t": 45677.327999999914,
      "d": 516.127999999997,
      "v": 127
    },
    {
      "midi": 44,
      "hit": false,
      "t": 45870.87599999977,
      "d": 189.51574999999866,
      "v": 110
    },
    {
      "midi": 43,
      "hit": false,
      "t": 46064.423999999766,
      "d": 189.51574999999866,
      "v": 110
    },
    {
      "midi": 50,
      "hit": false,
      "t": 46257.97199999976,
      "d": 189.51574999999866,
      "v": 110
    },
    {
      "midi": 55,
      "hit": false,
      "t": 46257.971999999914,
      "d": 189.51574999999866,
      "v": 127
    },
    {
      "midi": 43,
      "hit": false,
      "t": 46451.51999999976,
      "d": 189.51574999999866,
      "v": 110
    },
    {
      "midi": 56,
      "hit": false,
      "t": 46451.51999999991,
      "d": 286.28975000000355,
      "v": 127
    },
    {
      "midi": 44,
      "hit": false,
      "t": 46645.06799999975,
      "d": 189.51574999999866,
      "v": 110
    },
    {
      "midi": 58,
      "hit": false,
      "t": 46741.84199999991,
      "d": 92.74175000000105,
      "v": 127
    },
    {
      "midi": 43,
      "hit": false,
      "t": 46838.61599999975,
      "d": 189.51574999999866,
      "v": 110
    },
    {
      "midi": 56,
      "hit": false,
      "t": 46838.61599999991,
      "d": 189.51574999999866,
      "v": 127
    },
    {
      "midi": 44,
      "hit": false,
      "t": 47032.16399999974,
      "d": 189.51574999999866,
      "v": 110
    },
    {
      "midi": 58,
      "hit": false,
      "t": 47032.1639999999,
      "d": 189.51574999999866,
      "v": 127
    },
    {
      "midi": 43,
      "hit": false,
      "t": 47225.71199999974,
      "d": 189.51574999999866,
      "v": 110
    },
    {
      "midi": 55,
      "hit": false,
      "t": 47225.7119999999,
      "d": 677.4179999999978,
      "v": 127
    },
    {
      "midi": 44,
      "hit": false,
      "t": 47419.25999999973,
      "d": 189.51574999999866,
      "v": 110
    },
    {
      "midi": 43,
      "hit": false,
      "t": 47612.80799999973,
      "d": 189.51574999999866,
      "v": 110
    },
    {
      "midi": 41,
      "hit": false,
      "t": 47806.35599999972,
      "d": 189.51574999999866,
      "v": 110
    },
    {
      "midi": 43,
      "hit": false,
      "t": 47999.90399999972,
      "d": 189.51574999999866,
      "v": 110
    },
    {
      "midi": 67,
      "hit": false,
      "t": 47999.90399999989,
      "d": 322.58000000000175,
      "v": 127
    },
    {
      "midi": 44,
      "hit": false,
      "t": 48193.451999999714,
      "d": 189.51574999999866,
      "v": 110
    },
    {
      "midi": 43,
      "hit": false,
      "t": 48386.99999999971,
      "d": 189.51574999999866,
      "v": 110
    },
    {
      "midi": 66,
      "hit": false,
      "t": 48386.9999999999,
      "d": 189.51574999999866,
      "v": 127
    },
    {
      "midi": 44,
      "hit": false,
      "t": 48580.547999999704,
      "d": 189.51574999999866,
      "v": 110
    },
    {
      "midi": 63,
      "hit": false,
      "t": 48580.54799999989,
      "d": 64.51600000000326,
      "v": 127
    },
    {
      "midi": 66,
      "hit": false,
      "t": 48645.0639999999,
      "d": 64.51600000000326,
      "v": 127
    },
    {
      "midi": 63,
      "hit": false,
      "t": 48709.5799999999,
      "d": 64.51600000000326,
      "v": 127
    },
    {
      "midi": 43,
      "hit": false,
      "t": 48774.0959999997,
      "d": 189.51574999999866,
      "v": 110
    },
    {
      "midi": 62,
      "hit": false,
      "t": 48774.0959999999,
      "d": 516.127999999997,
      "v": 127
    },
    {
      "midi": 44,
      "hit": false,
      "t": 48967.643999999695,
      "d": 189.51574999999866,
      "v": 110
    },
    {
      "midi": 43,
      "hit": false,
      "t": 49161.19199999969,
      "d": 189.51574999999866,
      "v": 110
    },
    {
      "midi": 50,
      "hit": false,
      "t": 49354.739999999685,
      "d": 189.51574999999866,
      "v": 110
    },
    {
      "midi": 55,
      "hit": false,
      "t": 49354.7399999999,
      "d": 189.51574999999866,
      "v": 127
    },
    {
      "midi": 43,
      "hit": false,
      "t": 49548.28799999968,
      "d": 189.51574999999866,
      "v": 110
    },
    {
      "midi": 56,
      "hit": false,
      "t": 49548.2879999999,
      "d": 286.28975000000355,
      "v": 127
    },
    {
      "midi": 44,
      "hit": false,
      "t": 49741.835999999676,
      "d": 189.51574999999866,
      "v": 110
    },
    {
      "midi": 58,
      "hit": false,
      "t": 49838.6099999999,
      "d": 92.74175000000105,
      "v": 127
    },
    {
      "midi": 43,
      "hit": false,
      "t": 49935.38399999967,
      "d": 189.51574999999866,
      "v": 110
    },
    {
      "midi": 60,
      "hit": false,
      "t": 49935.383999999896,
      "d": 189.51574999999866,
      "v": 127
    },
    {
      "midi": 44,
      "hit": false,
      "t": 50128.931999999666,
      "d": 189.51574999999866,
      "v": 110
    },
    {
      "midi": 58,
      "hit": false,
      "t": 50128.93199999989,
      "d": 44.3547499999986,
      "v": 127
    },
    {
      "midi": 60,
      "hit": false,
      "t": 50177.31899999989,
      "d": 44.3547499999986,
      "v": 127
    },
    {
      "midi": 58,
      "hit": false,
      "t": 50225.70599999988,
      "d": 44.3547499999986,
      "v": 127
    },
    {
      "midi": 60,
      "hit": false,
      "t": 50274.09299999988,
      "d": 44.3547499999986,
      "v": 127
    },
    {
      "midi": 43,
      "hit": false,
      "t": 50322.47999999966,
      "d": 189.51574999999866,
      "v": 110
    },
    {
      "midi": 55,
      "hit": false,
      "t": 50322.47999999987,
      "d": 677.4179999999978,
      "v": 127
    },
    {
      "midi": 44,
      "hit": false,
      "t": 50516.02799999966,
      "d": 189.51574999999866,
      "v": 110
    },
    {
      "midi": 43,
      "hit": false,
      "t": 50709.57599999965,
      "d": 189.51574999999866,
      "v": 110
    },
    {
      "midi": 41,
      "hit": false,
      "t": 50903.12399999965,
      "d": 189.51574999999866,
      "v": 110
    },
    {
      "midi": 43,
      "hit": false,
      "t": 51096.67199999964,
      "d": 189.51574999999866,
      "v": 110
    },
    {
      "midi": 67,
      "hit": false,
      "t": 51096.67199999987,
      "d": 322.58000000000175,
      "v": 127
    },
    {
      "midi": 44,
      "hit": false,
      "t": 51290.21999999964,
      "d": 189.51574999999866,
      "v": 110
    },
    {
      "midi": 43,
      "hit": false,
      "t": 51483.76799999963,
      "d": 189.51574999999866,
      "v": 110
    },
    {
      "midi": 66,
      "hit": false,
      "t": 51483.76799999987,
      "d": 189.51574999999866,
      "v": 127
    },
    {
      "midi": 44,
      "hit": false,
      "t": 51677.31599999963,
      "d": 189.51574999999866,
      "v": 110
    },
    {
      "midi": 63,
      "hit": false,
      "t": 51677.31599999987,
      "d": 64.51600000000326,
      "v": 127
    },
    {
      "midi": 66,
      "hit": false,
      "t": 51741.83199999987,
      "d": 64.51600000000326,
      "v": 127
    },
    {
      "midi": 63,
      "hit": false,
      "t": 51806.347999999874,
      "d": 64.51600000000326,
      "v": 127
    },
    {
      "midi": 43,
      "hit": false,
      "t": 51870.86399999962,
      "d": 189.51574999999866,
      "v": 110
    },
    {
      "midi": 62,
      "hit": false,
      "t": 51870.86399999988,
      "d": 516.127999999997,
      "v": 127
    },
    {
      "midi": 44,
      "hit": false,
      "t": 52064.41199999962,
      "d": 189.51574999999866,
      "v": 110
    },
    {
      "midi": 43,
      "hit": false,
      "t": 52257.95999999961,
      "d": 189.51574999999866,
      "v": 110
    },
    {
      "midi": 50,
      "hit": false,
      "t": 52451.50799999961,
      "d": 189.51574999999866,
      "v": 110
    },
    {
      "midi": 55,
      "hit": false,
      "t": 52451.50799999988,
      "d": 189.51574999999866,
      "v": 127
    },
    {
      "midi": 43,
      "hit": false,
      "t": 52645.055999999604,
      "d": 189.51574999999866,
      "v": 110
    },
    {
      "midi": 56,
      "hit": false,
      "t": 52645.05599999987,
      "d": 286.28975000000355,
      "v": 127
    },
    {
      "midi": 44,
      "hit": false,
      "t": 52838.6039999996,
      "d": 189.51574999999866,
      "v": 110
    },
    {
      "midi": 58,
      "hit": false,
      "t": 52935.37799999987,
      "d": 92.74175000000105,
      "v": 127
    },
    {
      "midi": 43,
      "hit": false,
      "t": 53032.151999999594,
      "d": 189.51574999999866,
      "v": 110
    },
    {
      "midi": 56,
      "hit": false,
      "t": 53032.15199999987,
      "d": 189.51574999999866,
      "v": 127
    },
    {
      "midi": 44,
      "hit": false,
      "t": 53225.69999999959,
      "d": 189.51574999999866,
      "v": 110
    },
    {
      "midi": 58,
      "hit": false,
      "t": 53225.699999999866,
      "d": 189.51574999999866,
      "v": 127
    },
    {
      "midi": 43,
      "hit": false,
      "t": 53419.247999999585,
      "d": 189.51574999999866,
      "v": 110
    },
    {
      "midi": 55,
      "hit": false,
      "t": 53419.24799999986,
      "d": 677.4179999999978,
      "v": 127
    },
    {
      "midi": 44,
      "hit": false,
      "t": 53612.79599999958,
      "d": 189.51574999999866,
      "v": 110
    },
    {
      "midi": 43,
      "hit": false,
      "t": 53806.343999999575,
      "d": 189.51574999999866,
      "v": 110
    },
    {
      "midi": 41,
      "hit": false,
      "t": 53999.89199999957,
      "d": 189.51574999999866,
      "v": 110
    },
    {
      "midi": 43,
      "hit": false,
      "t": 54193.439999999566,
      "d": 189.51574999999866,
      "v": 110
    },
    {
      "midi": 67,
      "hit": false,
      "t": 54193.43999999986,
      "d": 322.58000000000175,
      "v": 127
    },
    {
      "midi": 44,
      "hit": false,
      "t": 54386.98799999956,
      "d": 189.51574999999866,
      "v": 110
    },
    {
      "midi": 43,
      "hit": false,
      "t": 54580.535999999556,
      "d": 189.51574999999866,
      "v": 110
    },
    {
      "midi": 66,
      "hit": false,
      "t": 54580.53599999986,
      "d": 189.51574999999866,
      "v": 127
    },
    {
      "midi": 44,
      "hit": false,
      "t": 54774.08399999955,
      "d": 189.51574999999866,
      "v": 110
    },
    {
      "midi": 63,
      "hit": false,
      "t": 54774.08399999986,
      "d": 64.51600000000326,
      "v": 127
    },
    {
      "midi": 66,
      "hit": false,
      "t": 54838.59999999986,
      "d": 64.51600000000326,
      "v": 127
    },
    {
      "midi": 63,
      "hit": false,
      "t": 54903.11599999986,
      "d": 64.51600000000326,
      "v": 127
    },
    {
      "midi": 43,
      "hit": false,
      "t": 54967.63199999955,
      "d": 189.51574999999866,
      "v": 110
    },
    {
      "midi": 62,
      "hit": false,
      "t": 54967.63199999987,
      "d": 516.127999999997,
      "v": 127
    },
    {
      "midi": 44,
      "hit": false,
      "t": 55161.17999999954,
      "d": 189.51574999999866,
      "v": 110
    },
    {
      "midi": 43,
      "hit": false,
      "t": 55354.72799999954,
      "d": 189.51574999999866,
      "v": 110
    },
    {
      "midi": 50,
      "hit": false,
      "t": 55548.27599999953,
      "d": 189.51574999999866,
      "v": 110
    },
    {
      "midi": 55,
      "hit": false,
      "t": 55548.27599999987,
      "d": 189.51574999999866,
      "v": 127
    },
    {
      "midi": 43,
      "hit": false,
      "t": 55741.82399999953,
      "d": 189.51574999999866,
      "v": 110
    },
    {
      "midi": 56,
      "hit": false,
      "t": 55741.82399999986,
      "d": 286.28975000000355,
      "v": 127
    },
    {
      "midi": 44,
      "hit": false,
      "t": 55935.37199999952,
      "d": 189.51574999999866,
      "v": 110
    },
    {
      "midi": 58,
      "hit": false,
      "t": 56032.14599999986,
      "d": 92.74175000000105,
      "v": 127
    },
    {
      "midi": 43,
      "hit": false,
      "t": 56128.91999999952,
      "d": 189.51574999999866,
      "v": 110
    },
    {
      "midi": 60,
      "hit": false,
      "t": 56128.91999999986,
      "d": 189.51574999999866,
      "v": 127
    },
    {
      "midi": 44,
      "hit": false,
      "t": 56322.46799999951,
      "d": 189.51574999999866,
      "v": 110
    },
    {
      "midi": 58,
      "hit": false,
      "t": 56322.467999999855,
      "d": 44.3547499999986,
      "v": 127
    },
    {
      "midi": 60,
      "hit": false,
      "t": 56370.85499999985,
      "d": 44.3547499999986,
      "v": 127
    },
    {
      "midi": 58,
      "hit": false,
      "t": 56419.241999999846,
      "d": 44.3547499999986,
      "v": 127
    },
    {
      "midi": 60,
      "hit": false,
      "t": 56467.62899999984,
      "d": 44.3547499999986,
      "v": 127
    },
    {
      "midi": 43,
      "hit": false,
      "t": 56516.01599999951,
      "d": 189.51574999999866,
      "v": 110
    },
    {
      "midi": 55,
      "hit": false,
      "t": 56516.015999999836,
      "d": 677.4179999999978,
      "v": 127
    },
    {
      "midi": 44,
      "hit": false,
      "t": 56709.563999999504,
      "d": 189.51574999999866,
      "v": 110
    },
    {
      "midi": 43,
      "hit": false,
      "t": 56903.1119999995,
      "d": 189.51574999999866,
      "v": 110
    },
    {
      "midi": 41,
      "hit": false,
      "t": 57096.659999999494,
      "d": 189.51574999999866,
      "v": 110
    },
    {
      "midi": 44,
      "hit": false,
      "t": 57290.20799999949,
      "d": 189.51574999999866,
      "v": 110
    },
    {
      "midi": 56,
      "hit": false,
      "t": 57290.20799999983,
      "d": 1064.5140000000029,
      "v": 127
    },
    {
      "midi": 51,
      "hit": false,
      "t": 57483.755999999485,
      "d": 189.51574999999866,
      "v": 110
    },
    {
      "midi": 44,
      "hit": false,
      "t": 57677.30399999948,
      "d": 189.51574999999866,
      "v": 110
    },
    {
      "midi": 51,
      "hit": false,
      "t": 57870.851999999475,
      "d": 189.51574999999866,
      "v": 110
    },
    {
      "midi": 44,
      "hit": false,
      "t": 58064.39999999947,
      "d": 189.51574999999866,
      "v": 110
    },
    {
      "midi": 51,
      "hit": false,
      "t": 58257.947999999466,
      "d": 189.51574999999866,
      "v": 110
    },
    {
      "midi": 44,
      "hit": false,
      "t": 58451.49599999946,
      "d": 189.51574999999866,
      "v": 110
    },
    {
      "midi": 60,
      "hit": false,
      "t": 58451.49599999983,
      "d": 322.58000000000175,
      "v": 127
    },
    {
      "midi": 51,
      "hit": false,
      "t": 58645.043999999456,
      "d": 189.51574999999866,
      "v": 110
    },
    {
      "midi": 44,
      "hit": false,
      "t": 58838.59199999945,
      "d": 189.51574999999866,
      "v": 110
    },
    {
      "midi": 65,
      "hit": false,
      "t": 58838.59199999984,
      "d": 677.4179999999978,
      "v": 127
    },
    {
      "midi": 51,
      "hit": false,
      "t": 59032.13999999945,
      "d": 189.51574999999866,
      "v": 110
    },
    {
      "midi": 44,
      "hit": false,
      "t": 59225.68799999944,
      "d": 189.51574999999866,
      "v": 110
    },
    {
      "midi": 51,
      "hit": false,
      "t": 59419.23599999944,
      "d": 189.51574999999866,
      "v": 110
    },
    {
      "midi": 44,
      "hit": false,
      "t": 59612.78399999943,
      "d": 189.51574999999866,
      "v": 110
    },
    {
      "midi": 63,
      "hit": false,
      "t": 59612.78399999983,
      "d": 516.127999999997,
      "v": 127
    },
    {
      "midi": 51,
      "hit": false,
      "t": 59806.33199999943,
      "d": 189.51574999999866,
      "v": 110
    },
    {
      "midi": 44,
      "hit": false,
      "t": 59999.87999999942,
      "d": 189.51574999999866,
      "v": 110
    },
    {
      "midi": 51,
      "hit": false,
      "t": 60193.42799999942,
      "d": 189.51574999999866,
      "v": 110
    },
    {
      "midi": 65,
      "hit": false,
      "t": 60193.42799999983,
      "d": 92.74175000000105,
      "v": 127
    },
    {
      "midi": 63,
      "hit": false,
      "t": 60290.20199999983,
      "d": 92.74175000000105,
      "v": 127
    },
    {
      "midi": 43,
      "hit": false,
      "t": 60386.97599999941,
      "d": 189.51574999999866,
      "v": 110
    },
    {
      "midi": 62,
      "hit": false,
      "t": 60386.97599999983,
      "d": 1451.6100000000006,
      "v": 127
    },
    {
      "midi": 44,
      "hit": false,
      "t": 60580.52399999941,
      "d": 189.51574999999866,
      "v": 110
    },
    {
      "midi": 43,
      "hit": false,
      "t": 60774.0719999994,
      "d": 189.51574999999866,
      "v": 110
    },
    {
      "midi": 44,
      "hit": false,
      "t": 60967.6199999994,
      "d": 189.51574999999866,
      "v": 110
    },
    {
      "midi": 43,
      "hit": false,
      "t": 61161.167999999394,
      "d": 189.51574999999866,
      "v": 110
    },
    {
      "midi": 44,
      "hit": false,
      "t": 61354.71599999939,
      "d": 189.51574999999866,
      "v": 110
    },
    {
      "midi": 43,
      "hit": false,
      "t": 61548.263999999384,
      "d": 189.51574999999866,
      "v": 110
    },
    {
      "midi": 50,
      "hit": false,
      "t": 61741.81199999938,
      "d": 189.51574999999866,
      "v": 110
    },
    {
      "midi": 43,
      "hit": false,
      "t": 61935.359999999375,
      "d": 189.51574999999866,
      "v": 110
    },
    {
      "midi": 44,
      "hit": false,
      "t": 62128.90799999937,
      "d": 189.51574999999866,
      "v": 110
    },
    {
      "midi": 43,
      "hit": false,
      "t": 62322.455999999365,
      "d": 189.51574999999866,
      "v": 110
    },
    {
      "midi": 44,
      "hit": false,
      "t": 62516.00399999936,
      "d": 189.51574999999866,
      "v": 110
    },
    {
      "midi": 43,
      "hit": false,
      "t": 62709.551999999356,
      "d": 189.51574999999866,
      "v": 110
    },
    {
      "midi": 44,
      "hit": false,
      "t": 62903.09999999935,
      "d": 189.51574999999866,
      "v": 110
    },
    {
      "midi": 43,
      "hit": false,
      "t": 63096.647999999346,
      "d": 189.51574999999866,
      "v": 110
    },
    {
      "midi": 41,
      "hit": false,
      "t": 63290.19599999934,
      "d": 189.51574999999866,
      "v": 110
    },
    {
      "midi": 43,
      "hit": false,
      "t": 63483.74399999934,
      "d": 189.51574999999866,
      "v": 110
    },
    {
      "midi": 67,
      "hit": false,
      "t": 63483.74399999983,
      "d": 322.58000000000175,
      "v": 127
    },
    {
      "midi": 44,
      "hit": false,
      "t": 63677.29199999933,
      "d": 189.51574999999866,
      "v": 110
    },
    {
      "midi": 43,
      "hit": false,
      "t": 63870.83999999933,
      "d": 189.51574999999866,
      "v": 110
    },
    {
      "midi": 66,
      "hit": false,
      "t": 63870.83999999984,
      "d": 189.51574999999866,
      "v": 127
    },
    {
      "midi": 44,
      "hit": false,
      "t": 64064.38799999932,
      "d": 189.51574999999866,
      "v": 110
    },
    {
      "midi": 63,
      "hit": false,
      "t": 64064.38799999983,
      "d": 64.51600000000326,
      "v": 127
    },
    {
      "midi": 66,
      "hit": false,
      "t": 64128.903999999835,
      "d": 64.51600000000326,
      "v": 127
    },
    {
      "midi": 63,
      "hit": false,
      "t": 64193.41999999984,
      "d": 64.51600000000326,
      "v": 127
    },
    {
      "midi": 43,
      "hit": false,
      "t": 64257.93599999932,
      "d": 189.51574999999866,
      "v": 110
    },
    {
      "midi": 62,
      "hit": false,
      "t": 64257.93599999984,
      "d": 516.127999999997,
      "v": 127
    },
    {
      "midi": 44,
      "hit": false,
      "t": 64451.48399999931,
      "d": 189.51574999999866,
      "v": 110
    },
    {
      "midi": 43,
      "hit": false,
      "t": 64645.03199999931,
      "d": 189.51574999999866,
      "v": 110
    },
    {
      "midi": 50,
      "hit": false,
      "t": 64838.5799999993,
      "d": 189.51574999999866,
      "v": 110
    },
    {
      "midi": 55,
      "hit": false,
      "t": 64838.57999999984,
      "d": 189.51574999999866,
      "v": 127
    },
    {
      "midi": 43,
      "hit": false,
      "t": 65032.1279999993,
      "d": 189.51574999999866,
      "v": 110
    },
    {
      "midi": 56,
      "hit": false,
      "t": 65032.12799999984,
      "d": 286.28975000000355,
      "v": 127
    },
    {
      "midi": 44,
      "hit": false,
      "t": 65225.675999999294,
      "d": 189.51574999999866,
      "v": 110
    },
    {
      "midi": 58,
      "hit": false,
      "t": 65322.44999999984,
      "d": 92.74175000000105,
      "v": 127
    },
    {
      "midi": 43,
      "hit": false,
      "t": 65419.22399999929,
      "d": 189.51575000000594,
      "v": 110
    },
    {
      "midi": 56,
      "hit": false,
      "t": 65419.223999999835,
      "d": 189.51574999999866,
      "v": 127
    },
    {
      "midi": 44,
      "hit": false,
      "t": 65612.7719999993,
      "d": 189.51575000000594,
      "v": 110
    },
    {
      "midi": 58,
      "hit": false,
      "t": 65612.77199999984,
      "d": 189.51575000000594,
      "v": 127
    },
    {
      "midi": 43,
      "hit": false,
      "t": 65806.31999999931,
      "d": 189.51575000000594,
      "v": 110
    },
    {
      "midi": 55,
      "hit": false,
      "t": 65806.31999999985,
      "d": 677.4180000000051,
      "v": 127
    },
    {
      "midi": 44,
      "hit": false,
      "t": 65999.86799999932,
      "d": 189.51575000000594,
      "v": 110
    },
    {
      "midi": 43,
      "hit": false,
      "t": 66193.41599999933,
      "d": 189.51575000000594,
      "v": 110
    },
    {
      "midi": 41,
      "hit": false,
      "t": 66386.96399999934,
      "d": 189.51575000000594,
      "v": 110
    },
    {
      "midi": 43,
      "hit": false,
      "t": 66580.51199999935,
      "d": 189.51575000000594,
      "v": 110
    },
    {
      "midi": 67,
      "hit": false,
      "t": 66580.51199999986,
      "d": 322.58000000000175,
      "v": 127
    },
    {
      "midi": 44,
      "hit": false,
      "t": 66774.05999999936,
      "d": 189.51575000000594,
      "v": 110
    },
    {
      "midi": 43,
      "hit": false,
      "t": 66967.60799999937,
      "d": 189.51575000000594,
      "v": 110
    },
    {
      "midi": 66,
      "hit": false,
      "t": 66967.60799999986,
      "d": 189.51575000000594,
      "v": 127
    },
    {
      "midi": 44,
      "hit": false,
      "t": 67161.15599999938,
      "d": 189.51575000000594,
      "v": 110
    },
    {
      "midi": 63,
      "hit": false,
      "t": 67161.15599999987,
      "d": 64.51600000000326,
      "v": 127
    },
    {
      "midi": 66,
      "hit": false,
      "t": 67225.67199999987,
      "d": 64.51600000000326,
      "v": 127
    },
    {
      "midi": 63,
      "hit": false,
      "t": 67290.18799999988,
      "d": 64.51600000000326,
      "v": 127
    },
    {
      "midi": 43,
      "hit": false,
      "t": 67354.70399999939,
      "d": 189.51575000000594,
      "v": 110
    },
    {
      "midi": 62,
      "hit": false,
      "t": 67354.70399999988,
      "d": 516.127999999997,
      "v": 127
    },
    {
      "midi": 44,
      "hit": false,
      "t": 67548.2519999994,
      "d": 189.51575000000594,
      "v": 110
    },
    {
      "midi": 43,
      "hit": false,
      "t": 67741.7999999994,
      "d": 189.51575000000594,
      "v": 110
    },
    {
      "midi": 50,
      "hit": false,
      "t": 67935.34799999942,
      "d": 189.51575000000594,
      "v": 110
    },
    {
      "midi": 55,
      "hit": false,
      "t": 67935.34799999988,
      "d": 189.51575000000594,
      "v": 127
    },
    {
      "midi": 43,
      "hit": false,
      "t": 68128.89599999943,
      "d": 189.51575000000594,
      "v": 110
    },
    {
      "midi": 56,
      "hit": false,
      "t": 68128.89599999989,
      "d": 286.2897499999963,
      "v": 127
    },
    {
      "midi": 44,
      "hit": false,
      "t": 68322.44399999944,
      "d": 189.51575000000594,
      "v": 110
    },
    {
      "midi": 58,
      "hit": false,
      "t": 68419.21799999989,
      "d": 92.74175000000105,
      "v": 127
    },
    {
      "midi": 43,
      "hit": false,
      "t": 68515.99199999945,
      "d": 189.51575000000594,
      "v": 110
    },
    {
      "midi": 60,
      "hit": false,
      "t": 68515.9919999999,
      "d": 189.51575000000594,
      "v": 127
    },
    {
      "midi": 44,
      "hit": false,
      "t": 68709.53999999946,
      "d": 189.51575000000594,
      "v": 110
    },
    {
      "midi": 58,
      "hit": false,
      "t": 68709.5399999999,
      "d": 44.3547499999986,
      "v": 127
    },
    {
      "midi": 60,
      "hit": false,
      "t": 68757.92699999991,
      "d": 44.3547499999986,
      "v": 127
    },
    {
      "midi": 58,
      "hit": false,
      "t": 68806.31399999991,
      "d": 44.3547499999986,
      "v": 127
    },
    {
      "midi": 60,
      "hit": false,
      "t": 68854.70099999991,
      "d": 44.3547499999986,
      "v": 127
    },
    {
      "midi": 43,
      "hit": false,
      "t": 68903.08799999946,
      "d": 189.51575000000594,
      "v": 110
    },
    {
      "midi": 55,
      "hit": false,
      "t": 68903.08799999992,
      "d": 677.4180000000051,
      "v": 127
    },
    {
      "midi": 44,
      "hit": false,
      "t": 69096.63599999947,
      "d": 189.51575000000594,
      "v": 110
    },
    {
      "midi": 43,
      "hit": false,
      "t": 69290.18399999948,
      "d": 189.51575000000594,
      "v": 110
    },
    {
      "midi": 41,
      "hit": false,
      "t": 69483.7319999995,
      "d": 189.51575000000594,
      "v": 110
    },
    {
      "midi": 43,
      "hit": false,
      "t": 69677.2799999995,
      "d": 189.51575000000594,
      "v": 110
    },
    {
      "midi": 67,
      "hit": false,
      "t": 69677.27999999993,
      "d": 322.58000000000175,
      "v": 127
    },
    {
      "midi": 44,
      "hit": false,
      "t": 69870.82799999951,
      "d": 189.51575000000594,
      "v": 110
    },
    {
      "midi": 43,
      "hit": false,
      "t": 70064.37599999952,
      "d": 189.51575000000594,
      "v": 110
    },
    {
      "midi": 66,
      "hit": false,
      "t": 70064.37599999993,
      "d": 189.51575000000594,
      "v": 127
    },
    {
      "midi": 44,
      "hit": false,
      "t": 70257.92399999953,
      "d": 189.51575000000594,
      "v": 110
    },
    {
      "midi": 63,
      "hit": false,
      "t": 70257.92399999994,
      "d": 64.51600000000326,
      "v": 127
    },
    {
      "midi": 66,
      "hit": false,
      "t": 70322.43999999994,
      "d": 64.51600000000326,
      "v": 127
    },
    {
      "midi": 63,
      "hit": false,
      "t": 70386.95599999995,
      "d": 64.51600000000326,
      "v": 127
    },
    {
      "midi": 43,
      "hit": false,
      "t": 70451.47199999954,
      "d": 189.51575000000594,
      "v": 110
    },
    {
      "midi": 62,
      "hit": false,
      "t": 70451.47199999995,
      "d": 516.127999999997,
      "v": 127
    },
    {
      "midi": 44,
      "hit": false,
      "t": 70645.01999999955,
      "d": 189.51575000000594,
      "v": 110
    },
    {
      "midi": 43,
      "hit": false,
      "t": 70838.56799999956,
      "d": 189.51575000000594,
      "v": 110
    },
    {
      "midi": 50,
      "hit": false,
      "t": 71032.11599999957,
      "d": 189.51575000000594,
      "v": 110
    },
    {
      "midi": 55,
      "hit": false,
      "t": 71032.11599999995,
      "d": 189.51575000000594,
      "v": 127
    },
    {
      "midi": 43,
      "hit": false,
      "t": 71225.66399999958,
      "d": 189.51575000000594,
      "v": 110
    },
    {
      "midi": 56,
      "hit": false,
      "t": 71225.66399999996,
      "d": 286.2897499999963,
      "v": 127
    },
    {
      "midi": 44,
      "hit": false,
      "t": 71419.21199999959,
      "d": 189.51575000000594,
      "v": 110
    },
    {
      "midi": 58,
      "hit": false,
      "t": 71515.98599999996,
      "d": 92.74175000000105,
      "v": 127
    },
    {
      "midi": 43,
      "hit": false,
      "t": 71612.7599999996,
      "d": 189.51575000000594,
      "v": 110
    },
    {
      "midi": 56,
      "hit": false,
      "t": 71612.75999999997,
      "d": 189.51575000000594,
      "v": 127
    },
    {
      "midi": 44,
      "hit": false,
      "t": 71806.30799999961,
      "d": 189.51575000000594,
      "v": 110
    },
    {
      "midi": 58,
      "hit": false,
      "t": 71806.30799999998,
      "d": 189.51575000000594,
      "v": 127
    },
    {
      "midi": 43,
      "hit": false,
      "t": 71999.85599999962,
      "d": 189.51575000000594,
      "v": 110
    },
    {
      "midi": 55,
      "hit": false,
      "t": 71999.85599999999,
      "d": 677.4180000000051,
      "v": 127
    },
    {
      "midi": 44,
      "hit": false,
      "t": 72193.40399999963,
      "d": 189.51575000000594,
      "v": 110
    },
    {
      "midi": 43,
      "hit": false,
      "t": 72386.95199999964,
      "d": 189.51575000000594,
      "v": 110
    },
    {
      "midi": 41,
      "hit": false,
      "t": 72580.49999999965,
      "d": 189.51575000000594,
      "v": 110
    },
    {
      "midi": 43,
      "hit": false,
      "t": 72774.04799999966,
      "d": 189.51575000000594,
      "v": 110
    },
    {
      "midi": 67,
      "hit": false,
      "t": 72774.048,
      "d": 322.58000000000175,
      "v": 127
    },
    {
      "midi": 44,
      "hit": false,
      "t": 72967.59599999967,
      "d": 189.51575000000594,
      "v": 110
    },
    {
      "midi": 43,
      "hit": false,
      "t": 73161.14399999968,
      "d": 189.51575000000594,
      "v": 110
    },
    {
      "midi": 66,
      "hit": false,
      "t": 73161.144,
      "d": 189.51575000000594,
      "v": 127
    },
    {
      "midi": 44,
      "hit": false,
      "t": 73354.69199999969,
      "d": 189.51575000000594,
      "v": 110
    },
    {
      "midi": 63,
      "hit": false,
      "t": 73354.69200000001,
      "d": 64.51600000000326,
      "v": 127
    },
    {
      "midi": 66,
      "hit": false,
      "t": 73419.20800000001,
      "d": 64.51600000000326,
      "v": 127
    },
    {
      "midi": 63,
      "hit": false,
      "t": 73483.72400000002,
      "d": 64.51600000000326,
      "v": 127
    },
    {
      "midi": 43,
      "hit": false,
      "t": 73548.2399999997,
      "d": 189.51575000000594,
      "v": 110
    },
    {
      "midi": 62,
      "hit": false,
      "t": 73548.24000000002,
      "d": 516.127999999997,
      "v": 127
    },
    {
      "midi": 44,
      "hit": false,
      "t": 73741.78799999971,
      "d": 189.51575000000594,
      "v": 110
    },
    {
      "midi": 43,
      "hit": false,
      "t": 73935.33599999972,
      "d": 189.51575000000594,
      "v": 110
    },
    {
      "midi": 50,
      "hit": false,
      "t": 74128.88399999973,
      "d": 189.51575000000594,
      "v": 110
    },
    {
      "midi": 55,
      "hit": false,
      "t": 74128.88400000002,
      "d": 189.51575000000594,
      "v": 127
    },
    {
      "midi": 43,
      "hit": false,
      "t": 74322.43199999974,
      "d": 189.51575000000594,
      "v": 110
    },
    {
      "midi": 56,
      "hit": false,
      "t": 74322.43200000003,
      "d": 286.2897499999963,
      "v": 127
    },
    {
      "midi": 44,
      "hit": false,
      "t": 74515.97999999975,
      "d": 189.51575000000594,
      "v": 110
    },
    {
      "midi": 58,
      "hit": false,
      "t": 74612.75400000003,
      "d": 92.74175000000105,
      "v": 127
    },
    {
      "midi": 43,
      "hit": false,
      "t": 74709.52799999976,
      "d": 189.51575000000594,
      "v": 110
    },
    {
      "midi": 60,
      "hit": false,
      "t": 74709.52800000003,
      "d": 189.51575000000594,
      "v": 127
    },
    {
      "midi": 44,
      "hit": false,
      "t": 74903.07599999977,
      "d": 189.51575000000594,
      "v": 110
    },
    {
      "midi": 58,
      "hit": false,
      "t": 74903.07600000004,
      "d": 44.3547499999986,
      "v": 127
    },
    {
      "midi": 60,
      "hit": false,
      "t": 74951.46300000005,
      "d": 44.3547499999986,
      "v": 127
    },
    {
      "midi": 58,
      "hit": false,
      "t": 74999.85000000005,
      "d": 44.3547499999986,
      "v": 127
    },
    {
      "midi": 60,
      "hit": false,
      "t": 75048.23700000005,
      "d": 44.3547499999986,
      "v": 127
    },
    {
      "midi": 43,
      "hit": false,
      "t": 75096.62399999978,
      "d": 189.51575000000594,
      "v": 110
    },
    {
      "midi": 55,
      "hit": false,
      "t": 75096.62400000005,
      "d": 677.4180000000051,
      "v": 127
    },
    {
      "midi": 44,
      "hit": false,
      "t": 75290.17199999979,
      "d": 189.51575000000594,
      "v": 110
    },
    {
      "midi": 43,
      "hit": false,
      "t": 75483.7199999998,
      "d": 189.51575000000594,
      "v": 110
    },
    {
      "midi": 41,
      "hit": false,
      "t": 75677.2679999998,
      "d": 189.51575000000594,
      "v": 110
    },
    {
      "midi": 44,
      "hit": false,
      "t": 75870.81599999982,
      "d": 189.51575000000594,
      "v": 110
    },
    {
      "midi": 56,
      "hit": false,
      "t": 75870.81600000006,
      "d": 1064.5139999999956,
      "v": 127
    },
    {
      "midi": 51,
      "hit": false,
      "t": 76064.36399999983,
      "d": 189.51575000000594,
      "v": 110
    },
    {
      "midi": 44,
      "hit": false,
      "t": 76257.91199999984,
      "d": 189.51575000000594,
      "v": 110
    },
    {
      "midi": 51,
      "hit": false,
      "t": 76451.45999999985,
      "d": 189.51575000000594,
      "v": 110
    },
    {
      "midi": 44,
      "hit": false,
      "t": 76645.00799999986,
      "d": 189.51575000000594,
      "v": 110
    },
    {
      "midi": 51,
      "hit": false,
      "t": 76838.55599999987,
      "d": 189.51575000000594,
      "v": 110
    },
    {
      "midi": 44,
      "hit": false,
      "t": 77032.10399999988,
      "d": 189.51575000000594,
      "v": 110
    },
    {
      "midi": 60,
      "hit": false,
      "t": 77032.10400000006,
      "d": 322.58000000000175,
      "v": 127
    },
    {
      "midi": 51,
      "hit": false,
      "t": 77225.65199999989,
      "d": 189.51575000000594,
      "v": 110
    },
    {
      "midi": 44,
      "hit": false,
      "t": 77419.1999999999,
      "d": 189.51575000000594,
      "v": 110
    },
    {
      "midi": 65,
      "hit": false,
      "t": 77419.20000000007,
      "d": 677.4180000000051,
      "v": 127
    },
    {
      "midi": 51,
      "hit": false,
      "t": 77612.7479999999,
      "d": 189.51575000000594,
      "v": 110
    },
    {
      "midi": 44,
      "hit": false,
      "t": 77806.29599999991,
      "d": 189.51575000000594,
      "v": 110
    },
    {
      "midi": 51,
      "hit": false,
      "t": 77999.84399999992,
      "d": 189.51575000000594,
      "v": 110
    },
    {
      "midi": 44,
      "hit": false,
      "t": 78193.39199999993,
      "d": 189.51575000000594,
      "v": 110
    },
    {
      "midi": 63,
      "hit": false,
      "t": 78193.39200000008,
      "d": 516.127999999997,
      "v": 127
    },
    {
      "midi": 51,
      "hit": false,
      "t": 78386.93999999994,
      "d": 189.51575000000594,
      "v": 110
    },
    {
      "midi": 44,
      "hit": false,
      "t": 78580.48799999995,
      "d": 189.51575000000594,
      "v": 110
    },
    {
      "midi": 51,
      "hit": false,
      "t": 78774.03599999996,
      "d": 189.51575000000594,
      "v": 110
    },
    {
      "midi": 65,
      "hit": false,
      "t": 78774.03600000008,
      "d": 92.74175000000105,
      "v": 127
    },
    {
      "midi": 63,
      "hit": false,
      "t": 78870.81000000008,
      "d": 92.74175000000105,
      "v": 127
    },
    {
      "midi": 43,
      "hit": false,
      "t": 78967.58399999997,
      "d": 189.51575000000594,
      "v": 110
    },
    {
      "midi": 62,
      "hit": false,
      "t": 78967.58400000009,
      "d": 1451.6100000000006,
      "v": 127
    },
    {
      "midi": 44,
      "hit": false,
      "t": 79161.13199999998,
      "d": 189.51575000000594,
      "v": 110
    },
    {
      "midi": 43,
      "hit": false,
      "t": 79354.68,
      "d": 189.51575000000594,
      "v": 110
    },
    {
      "midi": 44,
      "hit": false,
      "t": 79548.228,
      "d": 189.51575000000594,
      "v": 110
    },
    {
      "midi": 43,
      "hit": false,
      "t": 79741.77600000001,
      "d": 189.51575000000594,
      "v": 110
    },
    {
      "midi": 44,
      "hit": false,
      "t": 79935.32400000002,
      "d": 189.51575000000594,
      "v": 110
    },
    {
      "midi": 43,
      "hit": false,
      "t": 80128.87200000003,
      "d": 189.51575000000594,
      "v": 110
    },
    {
      "midi": 50,
      "hit": false,
      "t": 80322.42000000004,
      "d": 189.51575000000594,
      "v": 110
    },
    {
      "midi": 43,
      "hit": false,
      "t": 80515.96800000005,
      "d": 189.51575000000594,
      "v": 110
    },
    {
      "midi": 44,
      "hit": false,
      "t": 80709.51600000006,
      "d": 189.51575000000594,
      "v": 110
    },
    {
      "midi": 43,
      "hit": false,
      "t": 80903.06400000007,
      "d": 189.51575000000594,
      "v": 110
    },
    {
      "midi": 44,
      "hit": false,
      "t": 81096.61200000008,
      "d": 189.51575000000594,
      "v": 110
    },
    {
      "midi": 43,
      "hit": false,
      "t": 81290.16000000009,
      "d": 189.51575000000594,
      "v": 110
    },
    {
      "midi": 44,
      "hit": false,
      "t": 81483.7080000001,
      "d": 189.51575000000594,
      "v": 110
    },
    {
      "midi": 43,
      "hit": false,
      "t": 81677.25600000011,
      "d": 189.51575000000594,
      "v": 110
    },
    {
      "midi": 41,
      "hit": false,
      "t": 81870.80400000012,
      "d": 189.51575000000594,
      "v": 110
    },
    {
      "midi": 63,
      "hit": false,
      "t": 82064.35200000009,
      "d": 189.51575000000594,
      "v": 127
    },
    {
      "midi": 68,
      "hit": false,
      "t": 82257.9000000001,
      "d": 189.51575000000594,
      "v": 127
    },
    {
      "midi": 56,
      "hit": false,
      "t": 82257.90000000013,
      "d": 189.51575000000594,
      "v": 110
    },
    {
      "midi": 48,
      "hit": false,
      "t": 82354.67400000013,
      "d": 92.74175000000105,
      "v": 110
    },
    {
      "midi": 68,
      "hit": false,
      "t": 82451.4480000001,
      "d": 189.51575000000594,
      "v": 127
    },
    {
      "midi": 51,
      "hit": false,
      "t": 82451.44800000013,
      "d": 92.74175000000105,
      "v": 110
    },
    {
      "midi": 48,
      "hit": false,
      "t": 82548.22200000014,
      "d": 189.51575000000594,
      "v": 110
    },
    {
      "midi": 70,
      "hit": false,
      "t": 82644.99600000012,
      "d": 92.74175000000105,
      "v": 127
    },
    {
      "midi": 56,
      "hit": false,
      "t": 82644.99600000014,
      "d": 189.51575000000594,
      "v": 110
    },
    {
      "midi": 73,
      "hit": false,
      "t": 82741.77000000012,
      "d": 92.74175000000105,
      "v": 127
    },
    {
      "midi": 48,
      "hit": false,
      "t": 82741.77000000015,
      "d": 92.74175000000105,
      "v": 110
    },
    {
      "midi": 72,
      "hit": false,
      "t": 82838.54400000013,
      "d": 92.74175000000105,
      "v": 127
    },
    {
      "midi": 51,
      "hit": false,
      "t": 82838.54400000015,
      "d": 92.74175000000105,
      "v": 110
    },
    {
      "midi": 70,
      "hit": false,
      "t": 82935.31800000013,
      "d": 92.74175000000105,
      "v": 127
    },
    {
      "midi": 48,
      "hit": false,
      "t": 82935.31800000016,
      "d": 189.51575000000594,
      "v": 110
    },
    {
      "midi": 75,
      "hit": false,
      "t": 83032.09200000014,
      "d": 189.51575000000594,
      "v": 127
    },
    {
      "midi": 56,
      "hit": false,
      "t": 83032.09200000016,
      "d": 189.51575000000594,
      "v": 110
    },
    {
      "midi": 48,
      "hit": false,
      "t": 83128.86600000017,
      "d": 92.74175000000105,
      "v": 110
    },
    {
      "midi": 75,
      "hit": false,
      "t": 83225.64000000014,
      "d": 189.51575000000594,
      "v": 127
    },
    {
      "midi": 51,
      "hit": false,
      "t": 83225.64000000017,
      "d": 92.74175000000105,
      "v": 110
    },
    {
      "midi": 48,
      "hit": false,
      "t": 83322.41400000018,
      "d": 189.51575000000594,
      "v": 110
    },
    {
      "midi": 75,
      "hit": false,
      "t": 83419.18800000015,
      "d": 92.74175000000105,
      "v": 127
    },
    {
      "midi": 56,
      "hit": false,
      "t": 83419.18800000018,
      "d": 189.51575000000594,
      "v": 110
    },
    {
      "midi": 77,
      "hit": false,
      "t": 83515.96200000016,
      "d": 92.74175000000105,
      "v": 127
    },
    {
      "midi": 48,
      "hit": false,
      "t": 83515.96200000019,
      "d": 44.3547499999986,
      "v": 110
    },
    {
      "midi": 48,
      "hit": false,
      "t": 83564.34900000019,
      "d": 44.3547499999986,
      "v": 110
    },
    {
      "midi": 72,
      "hit": false,
      "t": 83612.73600000016,
      "d": 92.74175000000105,
      "v": 127
    },
    {
      "midi": 51,
      "hit": false,
      "t": 83612.7360000002,
      "d": 92.74175000000105,
      "v": 110
    },
    {
      "midi": 73,
      "hit": false,
      "t": 83709.51000000017,
      "d": 92.74175000000105,
      "v": 127
    },
    {
      "midi": 48,
      "hit": false,
      "t": 83709.5100000002,
      "d": 92.74175000000105,
      "v": 110
    },
    {
      "midi": 70,
      "hit": false,
      "t": 83806.28400000017,
      "d": 189.51575000000594,
      "v": 127
    },
    {
      "midi": 51,
      "hit": false,
      "t": 83806.2840000002,
      "d": 92.74175000000105,
      "v": 110
    },
    {
      "midi": 46,
      "hit": false,
      "t": 83903.05800000021,
      "d": 92.74175000000105,
      "v": 110
    },
    {
      "midi": 70,
      "hit": false,
      "t": 83999.83200000018,
      "d": 189.51575000000594,
      "v": 127
    },
    {
      "midi": 58,
      "hit": false,
      "t": 83999.83200000021,
      "d": 322.5800000000163,
      "v": 110
    },
    {
      "midi": 46,
      "hit": false,
      "t": 84096.60600000022,
      "d": 92.74175000000105,
      "v": 110
    },
    {
      "midi": 70,
      "hit": false,
      "t": 84193.3800000002,
      "d": 92.74175000000105,
      "v": 127
    },
    {
      "midi": 51,
      "hit": false,
      "t": 84193.38000000022,
      "d": 92.74175000000105,
      "v": 110
    },
    {
      "midi": 73,
      "hit": false,
      "t": 84290.1540000002,
      "d": 92.74175000000105,
      "v": 127
    },
    {
      "midi": 46,
      "hit": false,
      "t": 84290.15400000023,
      "d": 92.74175000000105,
      "v": 110
    },
    {
      "midi": 72,
      "hit": false,
      "t": 84386.9280000002,
      "d": 92.74175000000105,
      "v": 127
    },
    {
      "midi": 58,
      "hit": false,
      "t": 84386.92800000023,
      "d": 322.5800000000163,
      "v": 110
    },
    {
      "midi": 70,
      "hit": false,
      "t": 84483.70200000021,
      "d": 92.74175000000105,
      "v": 127
    },
    {
      "midi": 46,
      "hit": false,
      "t": 84483.70200000024,
      "d": 92.74175000000105,
      "v": 110
    },
    {
      "midi": 68,
      "hit": false,
      "t": 84580.47600000021,
      "d": 92.74175000000105,
      "v": 127
    },
    {
      "midi": 44,
      "hit": false,
      "t": 84580.47600000024,
      "d": 189.51575000000594,
      "v": 110
    },
    {
      "midi": 80,
      "hit": false,
      "t": 84677.25000000022,
      "d": 92.74175000000105,
      "v": 127
    },
    {
      "midi": 79,
      "hit": false,
      "t": 84774.02400000022,
      "d": 92.74175000000105,
      "v": 127
    },
    {
      "midi": 56,
      "hit": false,
      "t": 84774.02400000025,
      "d": 322.58000000000175,
      "v": 110
    },
    {
      "midi": 77,
      "hit": false,
      "t": 84870.79800000023,
      "d": 92.74175000000105,
      "v": 127
    },
    {
      "midi": 75,
      "hit": false,
      "t": 84967.57200000023,
      "d": 92.74175000000105,
      "v": 127
    },
    {
      "midi": 49,
      "hit": false,
      "t": 84967.57200000025,
      "d": 189.51575000000594,
      "v": 110
    },
    {
      "midi": 74,
      "hit": false,
      "t": 85064.34600000024,
      "d": 92.74175000000105,
      "v": 127
    },
    {
      "midi": 72,
      "hit": false,
      "t": 85161.12000000024,
      "d": 92.74175000000105,
      "v": 127
    },
    {
      "midi": 48,
      "hit": false,
      "t": 85161.12000000026,
      "d": 286.2897499999963,
      "v": 110
    },
    {
      "midi": 70,
      "hit": false,
      "t": 85257.89400000025,
      "d": 92.74175000000105,
      "v": 127
    },
    {
      "midi": 68,
      "hit": false,
      "t": 85354.66800000025,
      "d": 189.51575000000594,
      "v": 127
    },
    {
      "midi": 56,
      "hit": false,
      "t": 85354.66800000025,
      "d": 189.51575000000594,
      "v": 110
    },
    {
      "midi": 48,
      "hit": false,
      "t": 85451.44200000026,
      "d": 92.74175000000105,
      "v": 110
    },
    {
      "midi": 68,
      "hit": false,
      "t": 85548.21600000026,
      "d": 189.51575000000594,
      "v": 127
    },
    {
      "midi": 51,
      "hit": false,
      "t": 85548.21600000026,
      "d": 92.74175000000105,
      "v": 110
    },
    {
      "midi": 48,
      "hit": false,
      "t": 85644.99000000027,
      "d": 189.51575000000594,
      "v": 110
    },
    {
      "midi": 70,
      "hit": false,
      "t": 85741.76400000027,
      "d": 92.74175000000105,
      "v": 127
    },
    {
      "midi": 56,
      "hit": false,
      "t": 85741.76400000027,
      "d": 189.51575000000594,
      "v": 110
    },
    {
      "midi": 73,
      "hit": false,
      "t": 85838.53800000028,
      "d": 92.74175000000105,
      "v": 127
    },
    {
      "midi": 48,
      "hit": false,
      "t": 85838.53800000028,
      "d": 92.74175000000105,
      "v": 110
    },
    {
      "midi": 72,
      "hit": false,
      "t": 85935.31200000028,
      "d": 92.74175000000105,
      "v": 127
    },
    {
      "midi": 51,
      "hit": false,
      "t": 85935.31200000028,
      "d": 92.74175000000105,
      "v": 110
    },
    {
      "midi": 70,
      "hit": false,
      "t": 86032.08600000029,
      "d": 92.74175000000105,
      "v": 127
    },
    {
      "midi": 48,
      "hit": false,
      "t": 86032.08600000029,
      "d": 189.51575000000594,
      "v": 110
    },
    {
      "midi": 75,
      "hit": false,
      "t": 86128.86000000029,
      "d": 189.51575000000594,
      "v": 127
    },
    {
      "midi": 56,
      "hit": false,
      "t": 86128.86000000029,
      "d": 189.51575000000594,
      "v": 110
    },
    {
      "midi": 48,
      "hit": false,
      "t": 86225.6340000003,
      "d": 92.74175000000105,
      "v": 110
    },
    {
      "midi": 75,
      "hit": false,
      "t": 86322.4080000003,
      "d": 189.51575000000594,
      "v": 127
    },
    {
      "midi": 51,
      "hit": false,
      "t": 86322.4080000003,
      "d": 92.74175000000105,
      "v": 110
    },
    {
      "midi": 48,
      "hit": false,
      "t": 86419.1820000003,
      "d": 189.51575000000594,
      "v": 110
    },
    {
      "midi": 75,
      "hit": false,
      "t": 86515.95600000031,
      "d": 92.74175000000105,
      "v": 127
    },
    {
      "midi": 56,
      "hit": false,
      "t": 86515.95600000031,
      "d": 189.51575000000594,
      "v": 110
    },
    {
      "midi": 77,
      "hit": false,
      "t": 86612.73000000032,
      "d": 92.74175000000105,
      "v": 127
    },
    {
      "midi": 48,
      "hit": false,
      "t": 86612.73000000032,
      "d": 44.3547499999986,
      "v": 110
    },
    {
      "midi": 48,
      "hit": false,
      "t": 86661.11700000032,
      "d": 44.3547499999986,
      "v": 110
    },
    {
      "midi": 72,
      "hit": false,
      "t": 86709.50400000032,
      "d": 92.74175000000105,
      "v": 127
    },
    {
      "midi": 51,
      "hit": false,
      "t": 86709.50400000032,
      "d": 92.74175000000105,
      "v": 110
    },
    {
      "midi": 73,
      "hit": false,
      "t": 86806.27800000033,
      "d": 92.74175000000105,
      "v": 127
    },
    {
      "midi": 48,
      "hit": false,
      "t": 86806.27800000033,
      "d": 92.74175000000105,
      "v": 110
    },
    {
      "midi": 70,
      "hit": false,
      "t": 86903.05200000033,
      "d": 189.51575000000594,
      "v": 127
    },
    {
      "midi": 51,
      "hit": false,
      "t": 86903.05200000033,
      "d": 92.74175000000105,
      "v": 110
    },
    {
      "midi": 46,
      "hit": false,
      "t": 86999.82600000034,
      "d": 92.74175000000105,
      "v": 110
    },
    {
      "midi": 70,
      "hit": false,
      "t": 87096.60000000034,
      "d": 189.51575000000594,
      "v": 127
    },
    {
      "midi": 58,
      "hit": false,
      "t": 87096.60000000034,
      "d": 322.5800000000163,
      "v": 110
    },
    {
      "midi": 46,
      "hit": false,
      "t": 87193.37400000035,
      "d": 92.74175000000105,
      "v": 110
    },
    {
      "midi": 70,
      "hit": false,
      "t": 87290.14800000035,
      "d": 92.74175000000105,
      "v": 127
    },
    {
      "midi": 51,
      "hit": false,
      "t": 87290.14800000035,
      "d": 92.74175000000105,
      "v": 110
    },
    {
      "midi": 73,
      "hit": false,
      "t": 87386.92200000036,
      "d": 92.74175000000105,
      "v": 127
    },
    {
      "midi": 46,
      "hit": false,
      "t": 87386.92200000036,
      "d": 92.74175000000105,
      "v": 110
    },
    {
      "midi": 72,
      "hit": false,
      "t": 87483.69600000036,
      "d": 92.74175000000105,
      "v": 127
    },
    {
      "midi": 58,
      "hit": false,
      "t": 87483.69600000036,
      "d": 189.51575000000594,
      "v": 110
    },
    {
      "midi": 70,
      "hit": false,
      "t": 87580.47000000036,
      "d": 92.74175000000105,
      "v": 127
    },
    {
      "midi": 46,
      "hit": false,
      "t": 87580.47000000036,
      "d": 286.2897500000108,
      "v": 110
    },
    {
      "midi": 68,
      "hit": false,
      "t": 87677.24400000037,
      "d": 92.74175000000105,
      "v": 127
    },
    {
      "midi": 56,
      "hit": false,
      "t": 87677.24400000037,
      "d": 92.74175000000105,
      "v": 110
    },
    {
      "midi": 75,
      "hit": false,
      "t": 87774.01800000037,
      "d": 92.74175000000105,
      "v": 127
    },
    {
      "midi": 60,
      "hit": false,
      "t": 87774.01800000037,
      "d": 92.74175000000105,
      "v": 110
    },
    {
      "midi": 70,
      "hit": false,
      "t": 87870.79200000038,
      "d": 92.74175000000105,
      "v": 127
    },
    {
      "midi": 51,
      "hit": false,
      "t": 87870.79200000038,
      "d": 322.5800000000163,
      "v": 110
    },
    {
      "midi": 72,
      "hit": false,
      "t": 87967.56600000038,
      "d": 92.74175000000105,
      "v": 127
    },
    {
      "midi": 60,
      "hit": false,
      "t": 87967.56600000038,
      "d": 92.74175000000105,
      "v": 110
    },
    {
      "midi": 68,
      "hit": false,
      "t": 88064.34000000039,
      "d": 189.51575000000594,
      "v": 127
    },
    {
      "midi": 56,
      "hit": false,
      "t": 88064.34000000039,
      "d": 189.51575000000594,
      "v": 110
    },
    {
      "midi": 63,
      "hit": false,
      "t": 88257.8880000004,
      "d": 189.51575000000594,
      "v": 127
    },
    {
      "midi": 56,
      "hit": false,
      "t": 88451.4360000004,
      "d": 189.51575000000594,
      "v": 110
    },
    {
      "midi": 68,
      "hit": false,
      "t": 88451.43600000041,
      "d": 189.51575000000594,
      "v": 127
    },
    {
      "midi": 48,
      "hit": false,
      "t": 88548.2100000004,
      "d": 92.74175000000105,
      "v": 110
    },
    {
      "midi": 51,
      "hit": false,
      "t": 88644.9840000004,
      "d": 92.74175000000105,
      "v": 110
    },
    {
      "midi": 68,
      "hit": false,
      "t": 88644.98400000042,
      "d": 189.51575000000594,
      "v": 127
    },
    {
      "midi": 48,
      "hit": false,
      "t": 88741.75800000041,
      "d": 189.51575000000594,
      "v": 110
    },
    {
      "midi": 56,
      "hit": false,
      "t": 88838.53200000041,
      "d": 189.51575000000594,
      "v": 110
    },
    {
      "midi": 70,
      "hit": false,
      "t": 88838.53200000043,
      "d": 92.74175000000105,
      "v": 127
    },
    {
      "midi": 48,
      "hit": false,
      "t": 88935.30600000042,
      "d": 92.74175000000105,
      "v": 110
    },
    {
      "midi": 73,
      "hit": false,
      "t": 88935.30600000043,
      "d": 92.74175000000105,
      "v": 127
    },
    {
      "midi": 51,
      "hit": false,
      "t": 89032.08000000042,
      "d": 92.74175000000105,
      "v": 110
    },
    {
      "midi": 72,
      "hit": false,
      "t": 89032.08000000044,
      "d": 92.74175000000105,
      "v": 127
    },
    {
      "midi": 48,
      "hit": false,
      "t": 89128.85400000043,
      "d": 189.51575000000594,
      "v": 110
    },
    {
      "midi": 70,
      "hit": false,
      "t": 89128.85400000044,
      "d": 92.74175000000105,
      "v": 127
    },
    {
      "midi": 56,
      "hit": false,
      "t": 89225.62800000043,
      "d": 189.51575000000594,
      "v": 110
    },
    {
      "midi": 75,
      "hit": false,
      "t": 89225.62800000045,
      "d": 189.51575000000594,
      "v": 127
    },
    {
      "midi": 48,
      "hit": false,
      "t": 89322.40200000044,
      "d": 92.74175000000105,
      "v": 110
    },
    {
      "midi": 51,
      "hit": false,
      "t": 89419.17600000044,
      "d": 92.74175000000105,
      "v": 110
    },
    {
      "midi": 75,
      "hit": false,
      "t": 89419.17600000046,
      "d": 189.51575000000594,
      "v": 127
    },
    {
      "midi": 48,
      "hit": false,
      "t": 89515.95000000045,
      "d": 189.51575000000594,
      "v": 110
    },
    {
      "midi": 56,
      "hit": false,
      "t": 89612.72400000045,
      "d": 189.51575000000594,
      "v": 110
    },
    {
      "midi": 75,
      "hit": false,
      "t": 89612.72400000047,
      "d": 92.74175000000105,
      "v": 127
    },
    {
      "midi": 48,
      "hit": false,
      "t": 89709.49800000046,
      "d": 44.3547499999986,
      "v": 110
    },
    {
      "midi": 77,
      "hit": false,
      "t": 89709.49800000047,
      "d": 92.74175000000105,
      "v": 127
    },
    {
      "midi": 48,
      "hit": false,
      "t": 89757.88500000046,
      "d": 44.3547499999986,
      "v": 110
    },
    {
      "midi": 51,
      "hit": false,
      "t": 89806.27200000046,
      "d": 92.74175000000105,
      "v": 110
    },
    {
      "midi": 72,
      "hit": false,
      "t": 89806.27200000048,
      "d": 92.74175000000105,
      "v": 127
    },
    {
      "midi": 48,
      "hit": false,
      "t": 89903.04600000047,
      "d": 92.74175000000105,
      "v": 110
    },
    {
      "midi": 73,
      "hit": false,
      "t": 89903.04600000048,
      "d": 92.74175000000105,
      "v": 127
    },
    {
      "midi": 51,
      "hit": false,
      "t": 89999.82000000047,
      "d": 92.74175000000105,
      "v": 110
    },
    {
      "midi": 70,
      "hit": false,
      "t": 89999.82000000049,
      "d": 189.51575000000594,
      "v": 127
    },
    {
      "midi": 46,
      "hit": false,
      "t": 90096.59400000048,
      "d": 92.74175000000105,
      "v": 110
    },
    {
      "midi": 58,
      "hit": false,
      "t": 90193.36800000048,
      "d": 322.5800000000163,
      "v": 110
    },
    {
      "midi": 70,
      "hit": false,
      "t": 90193.3680000005,
      "d": 189.51575000000594,
      "v": 127
    },
    {
      "midi": 46,
      "hit": false,
      "t": 90290.14200000049,
      "d": 92.74175000000105,
      "v": 110
    },
    {
      "midi": 51,
      "hit": false,
      "t": 90386.91600000049,
      "d": 92.74175000000105,
      "v": 110
    },
    {
      "midi": 70,
      "hit": false,
      "t": 90386.9160000005,
      "d": 92.74175000000105,
      "v": 127
    },
    {
      "midi": 46,
      "hit": false,
      "t": 90483.6900000005,
      "d": 92.74175000000105,
      "v": 110
    },
    {
      "midi": 73,
      "hit": false,
      "t": 90483.69000000051,
      "d": 92.74175000000105,
      "v": 127
    },
    {
      "midi": 58,
      "hit": false,
      "t": 90580.4640000005,
      "d": 322.5800000000163,
      "v": 110
    },
    {
      "midi": 72,
      "hit": false,
      "t": 90580.46400000052,
      "d": 92.74175000000105,
      "v": 127
    },
    {
      "midi": 46,
      "hit": false,
      "t": 90677.2380000005,
      "d": 92.74175000000105,
      "v": 110
    },
    {
      "midi": 70,
      "hit": false,
      "t": 90677.23800000052,
      "d": 92.74175000000105,
      "v": 127
    },
    {
      "midi": 44,
      "hit": false,
      "t": 90774.01200000051,
      "d": 189.51575000000594,
      "v": 110
    },
    {
      "midi": 68,
      "hit": false,
      "t": 90774.01200000053,
      "d": 92.74175000000105,
      "v": 127
    },
    {
      "midi": 80,
      "hit": false,
      "t": 90870.78600000053,
      "d": 92.74175000000105,
      "v": 127
    },
    {
      "midi": 56,
      "hit": false,
      "t": 90967.56000000052,
      "d": 322.58000000000175,
      "v": 110
    },
    {
      "midi": 79,
      "hit": false,
      "t": 90967.56000000054,
      "d": 92.74175000000105,
      "v": 127
    },
    {
      "midi": 77,
      "hit": false,
      "t": 91064.33400000054,
      "d": 92.74175000000105,
      "v": 127
    },
    {
      "midi": 49,
      "hit": false,
      "t": 91161.10800000052,
      "d": 189.51575000000594,
      "v": 110
    },
    {
      "midi": 75,
      "hit": false,
      "t": 91161.10800000055,
      "d": 92.74175000000105,
      "v": 127
    },
    {
      "midi": 74,
      "hit": false,
      "t": 91257.88200000055,
      "d": 92.74175000000105,
      "v": 127
    },
    {
      "midi": 48,
      "hit": false,
      "t": 91354.65600000053,
      "d": 286.2897499999963,
      "v": 110
    },
    {
      "midi": 72,
      "hit": false,
      "t": 91354.65600000056,
      "d": 92.74175000000105,
      "v": 127
    },
    {
      "midi": 70,
      "hit": false,
      "t": 91451.43000000056,
      "d": 92.74175000000105,
      "v": 127
    },
    {
      "midi": 56,
      "hit": false,
      "t": 91548.20400000052,
      "d": 189.51575000000594,
      "v": 110
    },
    {
      "midi": 68,
      "hit": false,
      "t": 91548.20400000057,
      "d": 189.51575000000594,
      "v": 127
    },
    {
      "midi": 48,
      "hit": false,
      "t": 91644.97800000053,
      "d": 92.74175000000105,
      "v": 110
    },
    {
      "midi": 51,
      "hit": false,
      "t": 91741.75200000053,
      "d": 92.74175000000105,
      "v": 110
    },
    {
      "midi": 68,
      "hit": false,
      "t": 91741.75200000058,
      "d": 189.51575000000594,
      "v": 127
    },
    {
      "midi": 48,
      "hit": false,
      "t": 91838.52600000054,
      "d": 189.51575000000594,
      "v": 110
    },
    {
      "midi": 56,
      "hit": false,
      "t": 91935.30000000054,
      "d": 189.51575000000594,
      "v": 110
    },
    {
      "midi": 70,
      "hit": false,
      "t": 91935.30000000058,
      "d": 92.74175000000105,
      "v": 127
    },
    {
      "midi": 48,
      "hit": false,
      "t": 92032.07400000055,
      "d": 92.74175000000105,
      "v": 110
    },
    {
      "midi": 73,
      "hit": false,
      "t": 92032.07400000059,
      "d": 92.74175000000105,
      "v": 127
    },
    {
      "midi": 51,
      "hit": false,
      "t": 92128.84800000055,
      "d": 92.74175000000105,
      "v": 110
    },
    {
      "midi": 72,
      "hit": false,
      "t": 92128.8480000006,
      "d": 92.74175000000105,
      "v": 127
    },
    {
      "midi": 48,
      "hit": false,
      "t": 92225.62200000056,
      "d": 189.51575000000594,
      "v": 110
    },
    {
      "midi": 70,
      "hit": false,
      "t": 92225.6220000006,
      "d": 92.74175000000105,
      "v": 127
    },
    {
      "midi": 56,
      "hit": false,
      "t": 92322.39600000056,
      "d": 189.51575000000594,
      "v": 110
    },
    {
      "midi": 75,
      "hit": false,
      "t": 92322.3960000006,
      "d": 189.51575000000594,
      "v": 127
    },
    {
      "midi": 48,
      "hit": false,
      "t": 92419.17000000057,
      "d": 92.74175000000105,
      "v": 110
    },
    {
      "midi": 51,
      "hit": false,
      "t": 92515.94400000057,
      "d": 92.74175000000105,
      "v": 110
    },
    {
      "midi": 75,
      "hit": false,
      "t": 92515.94400000061,
      "d": 189.51575000000594,
      "v": 127
    },
    {
      "midi": 48,
      "hit": false,
      "t": 92612.71800000058,
      "d": 189.51575000000594,
      "v": 110
    },
    {
      "midi": 56,
      "hit": false,
      "t": 92709.49200000058,
      "d": 189.51575000000594,
      "v": 110
    },
    {
      "midi": 75,
      "hit": false,
      "t": 92709.49200000062,
      "d": 92.74175000000105,
      "v": 127
    },
    {
      "midi": 48,
      "hit": false,
      "t": 92806.26600000059,
      "d": 44.3547499999986,
      "v": 110
    },
    {
      "midi": 77,
      "hit": false,
      "t": 92806.26600000063,
      "d": 92.74175000000105,
      "v": 127
    },
    {
      "midi": 48,
      "hit": false,
      "t": 92854.65300000059,
      "d": 44.3547499999986,
      "v": 110
    },
    {
      "midi": 51,
      "hit": false,
      "t": 92903.04000000059,
      "d": 92.74175000000105,
      "v": 110
    },
    {
      "midi": 72,
      "hit": false,
      "t": 92903.04000000063,
      "d": 92.74175000000105,
      "v": 127
    },
    {
      "midi": 48,
      "hit": false,
      "t": 92999.8140000006,
      "d": 92.74175000000105,
      "v": 110
    },
    {
      "midi": 73,
      "hit": false,
      "t": 92999.81400000064,
      "d": 92.74175000000105,
      "v": 127
    },
    {
      "midi": 51,
      "hit": false,
      "t": 93096.5880000006,
      "d": 92.74175000000105,
      "v": 110
    },
    {
      "midi": 70,
      "hit": false,
      "t": 93096.58800000064,
      "d": 189.51575000000594,
      "v": 127
    },
    {
      "midi": 46,
      "hit": false,
      "t": 93193.3620000006,
      "d": 92.74175000000105,
      "v": 110
    },
    {
      "midi": 58,
      "hit": false,
      "t": 93290.13600000061,
      "d": 322.5800000000163,
      "v": 110
    },
    {
      "midi": 70,
      "hit": false,
      "t": 93290.13600000065,
      "d": 189.51575000000594,
      "v": 127
    },
    {
      "midi": 46,
      "hit": false,
      "t": 93386.91000000061,
      "d": 92.74175000000105,
      "v": 110
    },
    {
      "midi": 51,
      "hit": false,
      "t": 93483.68400000062,
      "d": 92.74175000000105,
      "v": 110
    },
    {
      "midi": 70,
      "hit": false,
      "t": 93483.68400000066,
      "d": 92.74175000000105,
      "v": 127
    },
    {
      "midi": 46,
      "hit": false,
      "t": 93580.45800000062,
      "d": 92.74175000000105,
      "v": 110
    },
    {
      "midi": 73,
      "hit": false,
      "t": 93580.45800000067,
      "d": 92.74175000000105,
      "v": 127
    },
    {
      "midi": 58,
      "hit": false,
      "t": 93677.23200000063,
      "d": 189.51575000000594,
      "v": 110
    },
    {
      "midi": 72,
      "hit": false,
      "t": 93677.23200000067,
      "d": 92.74175000000105,
      "v": 127
    },
    {
      "midi": 46,
      "hit": false,
      "t": 93774.00600000063,
      "d": 286.2897500000108,
      "v": 110
    },
    {
      "midi": 70,
      "hit": false,
      "t": 93774.00600000068,
      "d": 92.74175000000105,
      "v": 127
    },
    {
      "midi": 56,
      "hit": false,
      "t": 93870.78000000064,
      "d": 92.74175000000105,
      "v": 110
    },
    {
      "midi": 68,
      "hit": false,
      "t": 93870.78000000068,
      "d": 92.74175000000105,
      "v": 127
    },
    {
      "midi": 60,
      "hit": false,
      "t": 93967.55400000064,
      "d": 92.74175000000105,
      "v": 110
    },
    {
      "midi": 75,
      "hit": false,
      "t": 93967.55400000069,
      "d": 92.74175000000105,
      "v": 127
    },
    {
      "midi": 51,
      "hit": false,
      "t": 94064.32800000065,
      "d": 322.5800000000163,
      "v": 110
    },
    {
      "midi": 70,
      "hit": false,
      "t": 94064.32800000069,
      "d": 92.74175000000105,
      "v": 127
    },
    {
      "midi": 60,
      "hit": false,
      "t": 94161.10200000065,
      "d": 92.74175000000105,
      "v": 110
    },
    {
      "midi": 72,
      "hit": false,
      "t": 94161.1020000007,
      "d": 92.74175000000105,
      "v": 127
    },
    {
      "midi": 56,
      "hit": false,
      "t": 94257.87600000066,
      "d": 189.51575000000594,
      "v": 110
    },
    {
      "midi": 68,
      "hit": false,
      "t": 94257.8760000007,
      "d": 189.51575000000594,
      "v": 127
    },
    {
      "midi": 45,
      "hit": false,
      "t": 94451.42400000067,
      "d": 677.4180000000051,
      "v": 110
    },
    {
      "midi": 64,
      "hit": false,
      "t": 94451.42400000071,
      "d": 92.74175000000105,
      "v": 127
    },
    {
      "midi": 75,
      "hit": false,
      "t": 94451.42400000071,
      "d": 92.74175000000105,
      "v": 127
    },
    {
      "midi": 63,
      "hit": false,
      "t": 94548.19800000072,
      "d": 92.74175000000105,
      "v": 127
    },
    {
      "midi": 74,
      "hit": false,
      "t": 94548.19800000072,
      "d": 92.74175000000105,
      "v": 127
    },
    {
      "midi": 62,
      "hit": false,
      "t": 94644.97200000072,
      "d": 92.74175000000105,
      "v": 127
    },
    {
      "midi": 73,
      "hit": false,
      "t": 94644.97200000072,
      "d": 92.74175000000105,
      "v": 127
    },
    {
      "midi": 61,
      "hit": false,
      "t": 94741.74600000073,
      "d": 92.74175000000105,
      "v": 127
    },
    {
      "midi": 72,
      "hit": false,
      "t": 94741.74600000073,
      "d": 92.74175000000105,
      "v": 127
    },
    {
      "midi": 60,
      "hit": false,
      "t": 94838.52000000073,
      "d": 92.74175000000105,
      "v": 127
    },
    {
      "midi": 71,
      "hit": false,
      "t": 94838.52000000073,
      "d": 92.74175000000105,
      "v": 127
    },
    {
      "midi": 59,
      "hit": false,
      "t": 94935.29400000074,
      "d": 92.74175000000105,
      "v": 127
    },
    {
      "midi": 70,
      "hit": false,
      "t": 94935.29400000074,
      "d": 92.74175000000105,
      "v": 127
    },
    {
      "midi": 64,
      "hit": false,
      "t": 95032.06800000074,
      "d": 92.74175000000105,
      "v": 127
    },
    {
      "midi": 75,
      "hit": false,
      "t": 95032.06800000074,
      "d": 92.74175000000105,
      "v": 127
    },
    {
      "midi": 63,
      "hit": false,
      "t": 95128.84200000075,
      "d": 92.74175000000105,
      "v": 127
    },
    {
      "midi": 74,
      "hit": false,
      "t": 95128.84200000075,
      "d": 92.74175000000105,
      "v": 127
    },
    {
      "midi": 62,
      "hit": false,
      "t": 95225.61600000075,
      "d": 92.74175000000105,
      "v": 127
    },
    {
      "midi": 73,
      "hit": false,
      "t": 95225.61600000075,
      "d": 92.74175000000105,
      "v": 127
    },
    {
      "midi": 48,
      "hit": false,
      "t": 95322.39000000067,
      "d": 286.2897499999963,
      "v": 110
    },
    {
      "midi": 61,
      "hit": false,
      "t": 95322.39000000076,
      "d": 92.74175000000105,
      "v": 127
    },
    {
      "midi": 72,
      "hit": false,
      "t": 95322.39000000076,
      "d": 92.74175000000105,
      "v": 127
    },
    {
      "midi": 60,
      "hit": false,
      "t": 95419.16400000076,
      "d": 92.74175000000105,
      "v": 127
    },
    {
      "midi": 71,
      "hit": false,
      "t": 95419.16400000076,
      "d": 92.74175000000105,
      "v": 127
    },
    {
      "midi": 59,
      "hit": false,
      "t": 95515.93800000077,
      "d": 92.74175000000105,
      "v": 127
    },
    {
      "midi": 70,
      "hit": false,
      "t": 95515.93800000077,
      "d": 92.74175000000105,
      "v": 127
    },
    {
      "midi": 51,
      "hit": false,
      "t": 95612.71200000067,
      "d": 1064.5139999999956,
      "v": 110
    },
    {
      "midi": 64,
      "hit": false,
      "t": 95612.71200000077,
      "d": 92.74175000000105,
      "v": 127
    },
    {
      "midi": 75,
      "hit": false,
      "t": 95612.71200000077,
      "d": 92.74175000000105,
      "v": 127
    },
    {
      "midi": 63,
      "hit": false,
      "t": 95709.48600000078,
      "d": 92.74175000000105,
      "v": 127
    },
    {
      "midi": 74,
      "hit": false,
      "t": 95709.48600000078,
      "d": 92.74175000000105,
      "v": 127
    },
    {
      "midi": 62,
      "hit": false,
      "t": 95806.26000000078,
      "d": 92.74175000000105,
      "v": 127
    },
    {
      "midi": 73,
      "hit": false,
      "t": 95806.26000000078,
      "d": 92.74175000000105,
      "v": 127
    },
    {
      "midi": 61,
      "hit": false,
      "t": 95903.03400000079,
      "d": 92.74175000000105,
      "v": 127
    },
    {
      "midi": 72,
      "hit": false,
      "t": 95903.03400000079,
      "d": 92.74175000000105,
      "v": 127
    },
    {
      "midi": 60,
      "hit": false,
      "t": 95999.80800000079,
      "d": 92.74175000000105,
      "v": 127
    },
    {
      "midi": 71,
      "hit": false,
      "t": 95999.80800000079,
      "d": 92.74175000000105,
      "v": 127
    },
    {
      "midi": 59,
      "hit": false,
      "t": 96096.5820000008,
      "d": 92.74175000000105,
      "v": 127
    },
    {
      "midi": 70,
      "hit": false,
      "t": 96096.5820000008,
      "d": 92.74175000000105,
      "v": 127
    },
    {
      "midi": 64,
      "hit": false,
      "t": 96193.3560000008,
      "d": 92.74175000000105,
      "v": 127
    },
    {
      "midi": 75,
      "hit": false,
      "t": 96193.3560000008,
      "d": 92.74175000000105,
      "v": 127
    },
    {
      "midi": 63,
      "hit": false,
      "t": 96290.1300000008,
      "d": 92.74175000000105,
      "v": 127
    },
    {
      "midi": 74,
      "hit": false,
      "t": 96290.1300000008,
      "d": 92.74175000000105,
      "v": 127
    },
    {
      "midi": 62,
      "hit": false,
      "t": 96386.90400000081,
      "d": 92.74175000000105,
      "v": 127
    },
    {
      "midi": 73,
      "hit": false,
      "t": 96386.90400000081,
      "d": 92.74175000000105,
      "v": 127
    },
    {
      "midi": 61,
      "hit": false,
      "t": 96483.67800000081,
      "d": 92.74175000000105,
      "v": 127
    },
    {
      "midi": 72,
      "hit": false,
      "t": 96483.67800000081,
      "d": 92.74175000000105,
      "v": 127
    },
    {
      "midi": 60,
      "hit": false,
      "t": 96580.45200000082,
      "d": 92.74175000000105,
      "v": 127
    },
    {
      "midi": 71,
      "hit": false,
      "t": 96580.45200000082,
      "d": 92.74175000000105,
      "v": 127
    },
    {
      "midi": 59,
      "hit": false,
      "t": 96677.22600000082,
      "d": 92.74175000000105,
      "v": 127
    },
    {
      "midi": 70,
      "hit": false,
      "t": 96677.22600000082,
      "d": 92.74175000000105,
      "v": 127
    },
    {
      "midi": 45,
      "hit": false,
      "t": 96774.00000000067,
      "d": 677.4180000000051,
      "v": 110
    },
    {
      "midi": 64,
      "hit": false,
      "t": 96774.00000000083,
      "d": 92.74175000000105,
      "v": 127
    },
    {
      "midi": 75,
      "hit": false,
      "t": 96774.00000000083,
      "d": 92.74175000000105,
      "v": 127
    },
    {
      "midi": 63,
      "hit": false,
      "t": 96870.77400000083,
      "d": 92.74175000000105,
      "v": 127
    },
    {
      "midi": 74,
      "hit": false,
      "t": 96870.77400000083,
      "d": 92.74175000000105,
      "v": 127
    },
    {
      "midi": 62,
      "hit": false,
      "t": 96967.54800000084,
      "d": 92.74175000000105,
      "v": 127
    },
    {
      "midi": 73,
      "hit": false,
      "t": 96967.54800000084,
      "d": 92.74175000000105,
      "v": 127
    },
    {
      "midi": 61,
      "hit": false,
      "t": 97064.32200000084,
      "d": 92.74175000000105,
      "v": 127
    },
    {
      "midi": 72,
      "hit": false,
      "t": 97064.32200000084,
      "d": 92.74175000000105,
      "v": 127
    },
    {
      "midi": 60,
      "hit": false,
      "t": 97161.09600000085,
      "d": 92.74175000000105,
      "v": 127
    },
    {
      "midi": 71,
      "hit": false,
      "t": 97161.09600000085,
      "d": 92.74175000000105,
      "v": 127
    },
    {
      "midi": 59,
      "hit": false,
      "t": 97257.87000000085,
      "d": 92.74175000000105,
      "v": 127
    },
    {
      "midi": 70,
      "hit": false,
      "t": 97257.87000000085,
      "d": 92.74175000000105,
      "v": 127
    },
    {
      "midi": 64,
      "hit": false,
      "t": 97354.64400000086,
      "d": 92.74175000000105,
      "v": 127
    },
    {
      "midi": 75,
      "hit": false,
      "t": 97354.64400000086,
      "d": 92.74175000000105,
      "v": 127
    },
    {
      "midi": 63,
      "hit": false,
      "t": 97451.41800000086,
      "d": 92.74175000000105,
      "v": 127
    },
    {
      "midi": 74,
      "hit": false,
      "t": 97451.41800000086,
      "d": 92.74175000000105,
      "v": 127
    },
    {
      "midi": 62,
      "hit": false,
      "t": 97548.19200000087,
      "d": 92.74175000000105,
      "v": 127
    },
    {
      "midi": 73,
      "hit": false,
      "t": 97548.19200000087,
      "d": 92.74175000000105,
      "v": 127
    },
    {
      "midi": 48,
      "hit": false,
      "t": 97644.96600000067,
      "d": 286.2897499999963,
      "v": 110
    },
    {
      "midi": 61,
      "hit": false,
      "t": 97644.96600000087,
      "d": 92.74175000000105,
      "v": 127
    },
    {
      "midi": 72,
      "hit": false,
      "t": 97644.96600000087,
      "d": 92.74175000000105,
      "v": 127
    },
    {
      "midi": 60,
      "hit": false,
      "t": 97741.74000000088,
      "d": 92.74175000000105,
      "v": 127
    },
    {
      "midi": 71,
      "hit": false,
      "t": 97741.74000000088,
      "d": 92.74175000000105,
      "v": 127
    },
    {
      "midi": 59,
      "hit": false,
      "t": 97838.51400000088,
      "d": 92.74175000000105,
      "v": 127
    },
    {
      "midi": 70,
      "hit": false,
      "t": 97838.51400000088,
      "d": 92.74175000000105,
      "v": 127
    },
    {
      "midi": 51,
      "hit": false,
      "t": 97935.28800000067,
      "d": 1064.5139999999956,
      "v": 110
    },
    {
      "midi": 64,
      "hit": false,
      "t": 97935.28800000089,
      "d": 92.74175000000105,
      "v": 127
    },
    {
      "midi": 75,
      "hit": false,
      "t": 97935.28800000089,
      "d": 92.74175000000105,
      "v": 127
    },
    {
      "midi": 63,
      "hit": false,
      "t": 98032.0620000009,
      "d": 92.74175000000105,
      "v": 127
    },
    {
      "midi": 74,
      "hit": false,
      "t": 98032.0620000009,
      "d": 92.74175000000105,
      "v": 127
    },
    {
      "midi": 62,
      "hit": false,
      "t": 98128.8360000009,
      "d": 92.74175000000105,
      "v": 127
    },
    {
      "midi": 73,
      "hit": false,
      "t": 98128.8360000009,
      "d": 92.74175000000105,
      "v": 127
    },
    {
      "midi": 61,
      "hit": false,
      "t": 98225.6100000009,
      "d": 92.74175000000105,
      "v": 127
    },
    {
      "midi": 72,
      "hit": false,
      "t": 98225.6100000009,
      "d": 92.74175000000105,
      "v": 127
    },
    {
      "midi": 60,
      "hit": false,
      "t": 98322.38400000091,
      "d": 92.74175000000105,
      "v": 127
    },
    {
      "midi": 71,
      "hit": false,
      "t": 98322.38400000091,
      "d": 92.74175000000105,
      "v": 127
    },
    {
      "midi": 59,
      "hit": false,
      "t": 98419.15800000091,
      "d": 92.74175000000105,
      "v": 127
    },
    {
      "midi": 70,
      "hit": false,
      "t": 98419.15800000091,
      "d": 92.74175000000105,
      "v": 127
    },
    {
      "midi": 64,
      "hit": false,
      "t": 98515.93200000092,
      "d": 92.74175000000105,
      "v": 127
    },
    {
      "midi": 75,
      "hit": false,
      "t": 98515.93200000092,
      "d": 92.74175000000105,
      "v": 127
    },
    {
      "midi": 63,
      "hit": false,
      "t": 98612.70600000092,
      "d": 92.74175000000105,
      "v": 127
    },
    {
      "midi": 74,
      "hit": false,
      "t": 98612.70600000092,
      "d": 92.74175000000105,
      "v": 127
    },
    {
      "midi": 62,
      "hit": false,
      "t": 98709.48000000093,
      "d": 92.74175000000105,
      "v": 127
    },
    {
      "midi": 73,
      "hit": false,
      "t": 98709.48000000093,
      "d": 92.74175000000105,
      "v": 127
    },
    {
      "midi": 61,
      "hit": false,
      "t": 98806.25400000093,
      "d": 92.74175000000105,
      "v": 127
    },
    {
      "midi": 72,
      "hit": false,
      "t": 98806.25400000093,
      "d": 92.74175000000105,
      "v": 127
    },
    {
      "midi": 60,
      "hit": false,
      "t": 98903.02800000094,
      "d": 92.74175000000105,
      "v": 127
    },
    {
      "midi": 71,
      "hit": false,
      "t": 98903.02800000094,
      "d": 92.74175000000105,
      "v": 127
    },
    {
      "midi": 59,
      "hit": false,
      "t": 98999.80200000094,
      "d": 92.74175000000105,
      "v": 127
    },
    {
      "midi": 70,
      "hit": false,
      "t": 98999.80200000094,
      "d": 92.74175000000105,
      "v": 127
    },
    {
      "midi": 45,
      "hit": false,
      "t": 99096.57600000067,
      "d": 677.4180000000051,
      "v": 110
    },
    {
      "midi": 64,
      "hit": false,
      "t": 99096.57600000095,
      "d": 92.74175000000105,
      "v": 127
    },
    {
      "midi": 75,
      "hit": false,
      "t": 99096.57600000095,
      "d": 92.74175000000105,
      "v": 127
    },
    {
      "midi": 63,
      "hit": false,
      "t": 99193.35000000095,
      "d": 92.74175000000105,
      "v": 127
    },
    {
      "midi": 74,
      "hit": false,
      "t": 99193.35000000095,
      "d": 92.74175000000105,
      "v": 127
    },
    {
      "midi": 62,
      "hit": false,
      "t": 99290.12400000096,
      "d": 92.74175000000105,
      "v": 127
    },
    {
      "midi": 73,
      "hit": false,
      "t": 99290.12400000096,
      "d": 92.74175000000105,
      "v": 127
    },
    {
      "midi": 61,
      "hit": false,
      "t": 99386.89800000096,
      "d": 92.74175000000105,
      "v": 127
    },
    {
      "midi": 72,
      "hit": false,
      "t": 99386.89800000096,
      "d": 92.74175000000105,
      "v": 127
    },
    {
      "midi": 60,
      "hit": false,
      "t": 99483.67200000097,
      "d": 92.74175000000105,
      "v": 127
    },
    {
      "midi": 71,
      "hit": false,
      "t": 99483.67200000097,
      "d": 92.74175000000105,
      "v": 127
    },
    {
      "midi": 59,
      "hit": false,
      "t": 99580.44600000097,
      "d": 92.74175000000105,
      "v": 127
    },
    {
      "midi": 70,
      "hit": false,
      "t": 99580.44600000097,
      "d": 92.74175000000105,
      "v": 127
    },
    {
      "midi": 64,
      "hit": false,
      "t": 99677.22000000098,
      "d": 92.74175000000105,
      "v": 127
    },
    {
      "midi": 75,
      "hit": false,
      "t": 99677.22000000098,
      "d": 92.74175000000105,
      "v": 127
    },
    {
      "midi": 63,
      "hit": false,
      "t": 99773.99400000098,
      "d": 92.74175000000105,
      "v": 127
    },
    {
      "midi": 74,
      "hit": false,
      "t": 99773.99400000098,
      "d": 92.74175000000105,
      "v": 127
    },
    {
      "midi": 62,
      "hit": false,
      "t": 99870.76800000099,
      "d": 92.74175000000105,
      "v": 127
    },
    {
      "midi": 73,
      "hit": false,
      "t": 99870.76800000099,
      "d": 92.74175000000105,
      "v": 127
    },
    {
      "midi": 48,
      "hit": false,
      "t": 99967.54200000067,
      "d": 286.2897499999963,
      "v": 110
    },
    {
      "midi": 61,
      "hit": false,
      "t": 99967.54200000099,
      "d": 92.74175000000105,
      "v": 127
    },
    {
      "midi": 72,
      "hit": false,
      "t": 99967.54200000099,
      "d": 92.74175000000105,
      "v": 127
    },
    {
      "midi": 60,
      "hit": false,
      "t": 100064.316000001,
      "d": 92.74175000000105,
      "v": 127
    },
    {
      "midi": 71,
      "hit": false,
      "t": 100064.316000001,
      "d": 92.74175000000105,
      "v": 127
    },
    {
      "midi": 59,
      "hit": false,
      "t": 100161.090000001,
      "d": 92.74175000000105,
      "v": 127
    },
    {
      "midi": 70,
      "hit": false,
      "t": 100161.090000001,
      "d": 92.74175000000105,
      "v": 127
    },
    {
      "midi": 51,
      "hit": false,
      "t": 100257.86400000067,
      "d": 1064.5139999999956,
      "v": 110
    },
    {
      "midi": 64,
      "hit": false,
      "t": 100257.864000001,
      "d": 92.74175000000105,
      "v": 127
    },
    {
      "midi": 75,
      "hit": false,
      "t": 100257.864000001,
      "d": 92.74175000000105,
      "v": 127
    },
    {
      "midi": 63,
      "hit": false,
      "t": 100354.63800000101,
      "d": 92.74175000000105,
      "v": 127
    },
    {
      "midi": 74,
      "hit": false,
      "t": 100354.63800000101,
      "d": 92.74175000000105,
      "v": 127
    },
    {
      "midi": 62,
      "hit": false,
      "t": 100451.41200000102,
      "d": 92.74175000000105,
      "v": 127
    },
    {
      "midi": 73,
      "hit": false,
      "t": 100451.41200000102,
      "d": 92.74175000000105,
      "v": 127
    },
    {
      "midi": 61,
      "hit": false,
      "t": 100548.18600000102,
      "d": 92.74175000000105,
      "v": 127
    },
    {
      "midi": 72,
      "hit": false,
      "t": 100548.18600000102,
      "d": 92.74175000000105,
      "v": 127
    },
    {
      "midi": 60,
      "hit": false,
      "t": 100644.96000000103,
      "d": 92.74175000000105,
      "v": 127
    },
    {
      "midi": 71,
      "hit": false,
      "t": 100644.96000000103,
      "d": 92.74175000000105,
      "v": 127
    },
    {
      "midi": 59,
      "hit": false,
      "t": 100741.73400000103,
      "d": 92.74175000000105,
      "v": 127
    },
    {
      "midi": 70,
      "hit": false,
      "t": 100741.73400000103,
      "d": 92.74175000000105,
      "v": 127
    },
    {
      "midi": 64,
      "hit": false,
      "t": 100838.50800000103,
      "d": 92.74175000000105,
      "v": 127
    },
    {
      "midi": 75,
      "hit": false,
      "t": 100838.50800000103,
      "d": 92.74175000000105,
      "v": 127
    },
    {
      "midi": 63,
      "hit": false,
      "t": 100935.28200000104,
      "d": 92.74175000000105,
      "v": 127
    },
    {
      "midi": 74,
      "hit": false,
      "t": 100935.28200000104,
      "d": 92.74175000000105,
      "v": 127
    },
    {
      "midi": 62,
      "hit": false,
      "t": 101032.05600000104,
      "d": 92.74175000000105,
      "v": 127
    },
    {
      "midi": 73,
      "hit": false,
      "t": 101032.05600000104,
      "d": 92.74175000000105,
      "v": 127
    },
    {
      "midi": 61,
      "hit": false,
      "t": 101128.83000000105,
      "d": 92.74175000000105,
      "v": 127
    },
    {
      "midi": 72,
      "hit": false,
      "t": 101128.83000000105,
      "d": 92.74175000000105,
      "v": 127
    },
    {
      "midi": 60,
      "hit": false,
      "t": 101225.60400000105,
      "d": 92.74175000000105,
      "v": 127
    },
    {
      "midi": 71,
      "hit": false,
      "t": 101225.60400000105,
      "d": 92.74175000000105,
      "v": 127
    },
    {
      "midi": 59,
      "hit": false,
      "t": 101322.37800000106,
      "d": 92.74175000000105,
      "v": 127
    },
    {
      "midi": 70,
      "hit": false,
      "t": 101322.37800000106,
      "d": 92.74175000000105,
      "v": 127
    },
    {
      "midi": 45,
      "hit": false,
      "t": 101419.15200000067,
      "d": 677.4180000000051,
      "v": 110
    },
    {
      "midi": 64,
      "hit": false,
      "t": 101419.15200000106,
      "d": 92.74175000000105,
      "v": 127
    },
    {
      "midi": 75,
      "hit": false,
      "t": 101419.15200000106,
      "d": 92.74175000000105,
      "v": 127
    },
    {
      "midi": 63,
      "hit": false,
      "t": 101515.92600000107,
      "d": 92.74175000000105,
      "v": 127
    },
    {
      "midi": 74,
      "hit": false,
      "t": 101515.92600000107,
      "d": 92.74175000000105,
      "v": 127
    },
    {
      "midi": 62,
      "hit": false,
      "t": 101612.70000000107,
      "d": 92.74175000000105,
      "v": 127
    },
    {
      "midi": 73,
      "hit": false,
      "t": 101612.70000000107,
      "d": 92.74175000000105,
      "v": 127
    },
    {
      "midi": 61,
      "hit": false,
      "t": 101709.47400000108,
      "d": 92.74175000000105,
      "v": 127
    },
    {
      "midi": 72,
      "hit": false,
      "t": 101709.47400000108,
      "d": 92.74175000000105,
      "v": 127
    },
    {
      "midi": 60,
      "hit": false,
      "t": 101806.24800000108,
      "d": 92.74175000000105,
      "v": 127
    },
    {
      "midi": 71,
      "hit": false,
      "t": 101806.24800000108,
      "d": 92.74175000000105,
      "v": 127
    },
    {
      "midi": 59,
      "hit": false,
      "t": 101903.02200000109,
      "d": 92.74175000000105,
      "v": 127
    },
    {
      "midi": 70,
      "hit": false,
      "t": 101903.02200000109,
      "d": 92.74175000000105,
      "v": 127
    },
    {
      "midi": 64,
      "hit": false,
      "t": 101999.7960000011,
      "d": 92.74175000000105,
      "v": 127
    },
    {
      "midi": 75,
      "hit": false,
      "t": 101999.7960000011,
      "d": 92.74175000000105,
      "v": 127
    },
    {
      "midi": 63,
      "hit": false,
      "t": 102096.5700000011,
      "d": 92.74175000000105,
      "v": 127
    },
    {
      "midi": 74,
      "hit": false,
      "t": 102096.5700000011,
      "d": 92.74175000000105,
      "v": 127
    },
    {
      "midi": 62,
      "hit": false,
      "t": 102193.3440000011,
      "d": 92.74175000000105,
      "v": 127
    },
    {
      "midi": 73,
      "hit": false,
      "t": 102193.3440000011,
      "d": 92.74175000000105,
      "v": 127
    },
    {
      "midi": 48,
      "hit": false,
      "t": 102290.11800000067,
      "d": 286.2897499999963,
      "v": 110
    },
    {
      "midi": 61,
      "hit": false,
      "t": 102290.11800000111,
      "d": 92.74175000000105,
      "v": 127
    },
    {
      "midi": 72,
      "hit": false,
      "t": 102290.11800000111,
      "d": 92.74175000000105,
      "v": 127
    },
    {
      "midi": 60,
      "hit": false,
      "t": 102386.89200000111,
      "d": 92.74175000000105,
      "v": 127
    },
    {
      "midi": 71,
      "hit": false,
      "t": 102386.89200000111,
      "d": 92.74175000000105,
      "v": 127
    },
    {
      "midi": 59,
      "hit": false,
      "t": 102483.66600000112,
      "d": 92.74175000000105,
      "v": 127
    },
    {
      "midi": 70,
      "hit": false,
      "t": 102483.66600000112,
      "d": 92.74175000000105,
      "v": 127
    },
    {
      "midi": 51,
      "hit": false,
      "t": 102580.44000000067,
      "d": 1064.5139999999956,
      "v": 110
    },
    {
      "midi": 64,
      "hit": false,
      "t": 102580.44000000112,
      "d": 92.74175000000105,
      "v": 127
    },
    {
      "midi": 75,
      "hit": false,
      "t": 102580.44000000112,
      "d": 92.74175000000105,
      "v": 127
    },
    {
      "midi": 63,
      "hit": false,
      "t": 102677.21400000113,
      "d": 92.74175000000105,
      "v": 127
    },
    {
      "midi": 74,
      "hit": false,
      "t": 102677.21400000113,
      "d": 92.74175000000105,
      "v": 127
    },
    {
      "midi": 62,
      "hit": false,
      "t": 102773.98800000113,
      "d": 92.74175000000105,
      "v": 127
    },
    {
      "midi": 73,
      "hit": false,
      "t": 102773.98800000113,
      "d": 92.74175000000105,
      "v": 127
    },
    {
      "midi": 61,
      "hit": false,
      "t": 102870.76200000114,
      "d": 92.74175000000105,
      "v": 127
    },
    {
      "midi": 72,
      "hit": false,
      "t": 102870.76200000114,
      "d": 92.74175000000105,
      "v": 127
    },
    {
      "midi": 60,
      "hit": false,
      "t": 102967.53600000114,
      "d": 92.74175000000105,
      "v": 127
    },
    {
      "midi": 71,
      "hit": false,
      "t": 102967.53600000114,
      "d": 92.74175000000105,
      "v": 127
    },
    {
      "midi": 59,
      "hit": false,
      "t": 103064.31000000115,
      "d": 92.74175000000105,
      "v": 127
    },
    {
      "midi": 70,
      "hit": false,
      "t": 103064.31000000115,
      "d": 92.74175000000105,
      "v": 127
    },
    {
      "midi": 64,
      "hit": false,
      "t": 103161.08400000115,
      "d": 92.74175000000105,
      "v": 127
    },
    {
      "midi": 75,
      "hit": false,
      "t": 103161.08400000115,
      "d": 92.74175000000105,
      "v": 127
    },
    {
      "midi": 63,
      "hit": false,
      "t": 103257.85800000116,
      "d": 92.74175000000105,
      "v": 127
    },
    {
      "midi": 74,
      "hit": false,
      "t": 103257.85800000116,
      "d": 92.74175000000105,
      "v": 127
    },
    {
      "midi": 62,
      "hit": false,
      "t": 103354.63200000116,
      "d": 92.74175000000105,
      "v": 127
    },
    {
      "midi": 73,
      "hit": false,
      "t": 103354.63200000116,
      "d": 92.74175000000105,
      "v": 127
    },
    {
      "midi": 61,
      "hit": false,
      "t": 103451.40600000117,
      "d": 92.74175000000105,
      "v": 127
    },
    {
      "midi": 72,
      "hit": false,
      "t": 103451.40600000117,
      "d": 92.74175000000105,
      "v": 127
    },
    {
      "midi": 60,
      "hit": false,
      "t": 103548.18000000117,
      "d": 92.74175000000105,
      "v": 127
    },
    {
      "midi": 71,
      "hit": false,
      "t": 103548.18000000117,
      "d": 92.74175000000105,
      "v": 127
    },
    {
      "midi": 59,
      "hit": false,
      "t": 103644.95400000118,
      "d": 92.74175000000105,
      "v": 127
    },
    {
      "midi": 70,
      "hit": false,
      "t": 103644.95400000118,
      "d": 92.74175000000105,
      "v": 127
    },
    {
      "midi": 67,
      "hit": false,
      "t": 103741.72800000067,
      "d": 322.58000000000175,
      "v": 110
    },
    {
      "midi": 83,
      "hit": false,
      "t": 103741.72800000118,
      "d": 677.4180000000051,
      "v": 127
    },
    {
      "midi": 71,
      "hit": false,
      "t": 104128.82400000068,
      "d": 322.58000000000175,
      "v": 110
    },
    {
      "midi": 74,
      "hit": false,
      "t": 104515.92000000068,
      "d": 322.58000000000175,
      "v": 110
    },
    {
      "midi": 81,
      "hit": false,
      "t": 104515.92000000119,
      "d": 322.58000000000175,
      "v": 127
    },
    {
      "midi": 71,
      "hit": false,
      "t": 104903.01600000069,
      "d": 322.58000000000175,
      "v": 110
    },
    {
      "midi": 79,
      "hit": false,
      "t": 104903.0160000012,
      "d": 322.58000000000175,
      "v": 127
    },
    {
      "midi": 66,
      "hit": false,
      "t": 105290.11200000069,
      "d": 322.58000000000175,
      "v": 110
    },
    {
      "midi": 83,
      "hit": false,
      "t": 105290.1120000012,
      "d": 1064.5139999999956,
      "v": 127
    },
    {
      "midi": 71,
      "hit": false,
      "t": 105677.2080000007,
      "d": 322.58000000000175,
      "v": 110
    },
    {
      "midi": 74,
      "hit": false,
      "t": 106064.3040000007,
      "d": 322.58000000000175,
      "v": 110
    },
    {
      "midi": 71,
      "hit": false,
      "t": 106451.4000000007,
      "d": 322.58000000000175,
      "v": 110
    },
    {
      "midi": 79,
      "hit": false,
      "t": 106451.4000000012,
      "d": 189.51575000000594,
      "v": 127
    },
    {
      "midi": 81,
      "hit": false,
      "t": 106644.94800000121,
      "d": 189.51575000000594,
      "v": 127
    },
    {
      "midi": 65,
      "hit": false,
      "t": 106838.49600000071,
      "d": 322.58000000000175,
      "v": 110
    },
    {
      "midi": 83,
      "hit": false,
      "t": 106838.49600000122,
      "d": 322.58000000000175,
      "v": 127
    },
    {
      "midi": 71,
      "hit": false,
      "t": 107225.59200000072,
      "d": 322.58000000000175,
      "v": 110
    },
    {
      "midi": 83,
      "hit": false,
      "t": 107225.59200000123,
      "d": 322.58000000000175,
      "v": 127
    },
    {
      "midi": 74,
      "hit": false,
      "t": 107612.68800000072,
      "d": 322.58000000000175,
      "v": 110
    },
    {
      "midi": 81,
      "hit": false,
      "t": 107612.68800000123,
      "d": 322.58000000000175,
      "v": 127
    },
    {
      "midi": 71,
      "hit": false,
      "t": 107999.78400000073,
      "d": 322.58000000000175,
      "v": 110
    },
    {
      "midi": 79,
      "hit": false,
      "t": 107999.78400000124,
      "d": 322.58000000000175,
      "v": 127
    },
    {
      "midi": 64,
      "hit": false,
      "t": 108386.88000000073,
      "d": 322.58000000000175,
      "v": 110
    },
    {
      "midi": 83,
      "hit": false,
      "t": 108386.88000000124,
      "d": 322.58000000000175,
      "v": 127
    },
    {
      "midi": 71,
      "hit": false,
      "t": 108773.97600000074,
      "d": 322.58000000000175,
      "v": 110
    },
    {
      "midi": 84,
      "hit": false,
      "t": 108773.97600000125,
      "d": 322.58000000000175,
      "v": 127
    },
    {
      "midi": 74,
      "hit": false,
      "t": 109161.07200000074,
      "d": 322.58000000000175,
      "v": 110
    },
    {
      "midi": 86,
      "hit": false,
      "t": 109161.07200000125,
      "d": 322.58000000000175,
      "v": 127
    },
    {
      "midi": 71,
      "hit": false,
      "t": 109548.16800000075,
      "d": 322.58000000000175,
      "v": 110
    },
    {
      "midi": 88,
      "hit": false,
      "t": 109548.16800000126,
      "d": 322.58000000000175,
      "v": 127
    },
    {
      "midi": 43,
      "hit": false,
      "t": 109935.26400000075,
      "d": 189.51575000000594,
      "v": 110
    },
    {
      "midi": 67,
      "hit": false,
      "t": 109935.26400000126,
      "d": 189.51575000000594,
      "v": 127
    },
    {
      "midi": 44,
      "hit": false,
      "t": 110128.81200000076,
      "d": 189.51575000000594,
      "v": 110
    },
    {
      "midi": 68,
      "hit": false,
      "t": 110128.81200000127,
      "d": 189.51575000000594,
      "v": 127
    },
    {
      "midi": 43,
      "hit": false,
      "t": 110322.36000000077,
      "d": 189.51575000000594,
      "v": 110
    },
    {
      "midi": 67,
      "hit": false,
      "t": 110322.36000000128,
      "d": 189.51575000000594,
      "v": 127
    },
    {
      "midi": 44,
      "hit": false,
      "t": 110515.90800000078,
      "d": 189.51575000000594,
      "v": 110
    },
    {
      "midi": 68,
      "hit": false,
      "t": 110515.90800000129,
      "d": 189.51575000000594,
      "v": 127
    },
    {
      "midi": 43,
      "hit": false,
      "t": 110709.45600000079,
      "d": 189.51575000000594,
      "v": 110
    },
    {
      "midi": 67,
      "hit": false,
      "t": 110709.4560000013,
      "d": 189.51575000000594,
      "v": 127
    },
    {
      "midi": 44,
      "hit": false,
      "t": 110903.0040000008,
      "d": 189.51575000000594,
      "v": 110
    },
    {
      "midi": 68,
      "hit": false,
      "t": 110903.00400000131,
      "d": 189.51575000000594,
      "v": 127
    },
    {
      "midi": 43,
      "hit": false,
      "t": 111096.55200000081,
      "d": 189.51575000000594,
      "v": 110
    },
    {
      "midi": 67,
      "hit": false,
      "t": 111096.55200000132,
      "d": 189.51575000000594,
      "v": 127
    },
    {
      "midi": 44,
      "hit": false,
      "t": 111290.10000000082,
      "d": 189.51575000000594,
      "v": 110
    },
    {
      "midi": 68,
      "hit": false,
      "t": 111290.10000000133,
      "d": 189.51575000000594,
      "v": 127
    },
    {
      "midi": 52,
      "hit": false,
      "t": 111483.64800000083,
      "d": 322.58000000000175,
      "v": 110
    },
    {
      "midi": 67,
      "hit": false,
      "t": 111483.64800000134,
      "d": 189.51575000000594,
      "v": 127
    },
    {
      "midi": 55,
      "hit": false,
      "t": 111677.19600000083,
      "d": 189.51575000000594,
      "v": 110
    },
    {
      "midi": 70,
      "hit": false,
      "t": 111677.19600000135,
      "d": 189.51575000000594,
      "v": 127
    },
    {
      "midi": 58,
      "hit": false,
      "t": 111870.74400000084,
      "d": 189.51575000000594,
      "v": 110
    },
    {
      "midi": 73,
      "hit": false,
      "t": 111870.74400000136,
      "d": 189.51575000000594,
      "v": 127
    },
    {
      "midi": 61,
      "hit": false,
      "t": 112064.29200000085,
      "d": 189.51575000000594,
      "v": 110
    },
    {
      "midi": 76,
      "hit": false,
      "t": 112064.29200000137,
      "d": 189.51575000000594,
      "v": 127
    },
    {
      "midi": 64,
      "hit": false,
      "t": 112257.84000000086,
      "d": 189.51575000000594,
      "v": 110
    },
    {
      "midi": 79,
      "hit": false,
      "t": 112257.84000000138,
      "d": 189.51575000000594,
      "v": 127
    },
    {
      "midi": 61,
      "hit": false,
      "t": 112451.38800000086,
      "d": 189.51575000000594,
      "v": 110
    },
    {
      "midi": 76,
      "hit": false,
      "t": 112451.38800000139,
      "d": 189.51575000000594,
      "v": 127
    },
    {
      "midi": 58,
      "hit": false,
      "t": 112644.93600000087,
      "d": 189.51575000000594,
      "v": 110
    },
    {
      "midi": 73,
      "hit": false,
      "t": 112644.9360000014,
      "d": 189.51575000000594,
      "v": 127
    },
    {
      "midi": 55,
      "hit": false,
      "t": 112838.48400000088,
      "d": 189.51575000000594,
      "v": 110
    },
    {
      "midi": 70,
      "hit": false,
      "t": 112838.48400000141,
      "d": 189.51575000000594,
      "v": 127
    },
    {
      "midi": 43,
      "hit": false,
      "t": 113032.0320000009,
      "d": 189.51575000000594,
      "v": 110
    },
    {
      "midi": 67,
      "hit": false,
      "t": 113032.03200000142,
      "d": 189.51575000000594,
      "v": 127
    },
    {
      "midi": 44,
      "hit": false,
      "t": 113225.5800000009,
      "d": 189.51575000000594,
      "v": 110
    },
    {
      "midi": 68,
      "hit": false,
      "t": 113225.58000000143,
      "d": 189.51575000000594,
      "v": 127
    },
    {
      "midi": 43,
      "hit": false,
      "t": 113419.12800000091,
      "d": 189.51575000000594,
      "v": 110
    },
    {
      "midi": 67,
      "hit": false,
      "t": 113419.12800000144,
      "d": 189.51575000000594,
      "v": 127
    },
    {
      "midi": 44,
      "hit": false,
      "t": 113612.67600000092,
      "d": 189.51575000000594,
      "v": 110
    },
    {
      "midi": 68,
      "hit": false,
      "t": 113612.67600000145,
      "d": 189.51575000000594,
      "v": 127
    },
    {
      "midi": 43,
      "hit": false,
      "t": 113806.22400000093,
      "d": 189.51575000000594,
      "v": 110
    },
    {
      "midi": 67,
      "hit": false,
      "t": 113806.22400000146,
      "d": 189.51575000000594,
      "v": 127
    },
    {
      "midi": 44,
      "hit": false,
      "t": 113999.77200000094,
      "d": 189.51575000000594,
      "v": 110
    },
    {
      "midi": 68,
      "hit": false,
      "t": 113999.77200000147,
      "d": 189.51575000000594,
      "v": 127
    },
    {
      "midi": 43,
      "hit": false,
      "t": 114193.32000000095,
      "d": 189.51575000000594,
      "v": 110
    },
    {
      "midi": 67,
      "hit": false,
      "t": 114193.32000000148,
      "d": 189.51575000000594,
      "v": 127
    },
    {
      "midi": 44,
      "hit": false,
      "t": 114386.86800000096,
      "d": 189.51575000000594,
      "v": 110
    },
    {
      "midi": 68,
      "hit": false,
      "t": 114386.86800000149,
      "d": 189.51575000000594,
      "v": 127
    },
    {
      "midi": 52,
      "hit": false,
      "t": 114580.41600000097,
      "d": 322.58000000000175,
      "v": 110
    },
    {
      "midi": 67,
      "hit": false,
      "t": 114580.4160000015,
      "d": 189.51575000000594,
      "v": 127
    },
    {
      "midi": 55,
      "hit": false,
      "t": 114773.96400000097,
      "d": 189.51575000000594,
      "v": 110
    },
    {
      "midi": 70,
      "hit": false,
      "t": 114773.9640000015,
      "d": 189.51575000000594,
      "v": 127
    },
    {
      "midi": 58,
      "hit": false,
      "t": 114967.51200000098,
      "d": 189.51575000000594,
      "v": 110
    },
    {
      "midi": 73,
      "hit": false,
      "t": 114967.51200000152,
      "d": 189.51575000000594,
      "v": 127
    },
    {
      "midi": 61,
      "hit": false,
      "t": 115161.06000000099,
      "d": 189.51575000000594,
      "v": 110
    },
    {
      "midi": 76,
      "hit": false,
      "t": 115161.06000000153,
      "d": 189.51575000000594,
      "v": 127
    },
    {
      "midi": 64,
      "hit": false,
      "t": 115354.608000001,
      "d": 189.51575000000594,
      "v": 110
    },
    {
      "midi": 79,
      "hit": false,
      "t": 115354.60800000154,
      "d": 189.51575000000594,
      "v": 127
    },
    {
      "midi": 61,
      "hit": false,
      "t": 115548.156000001,
      "d": 189.51575000000594,
      "v": 110
    },
    {
      "midi": 76,
      "hit": false,
      "t": 115548.15600000155,
      "d": 189.51575000000594,
      "v": 127
    },
    {
      "midi": 58,
      "hit": false,
      "t": 115741.70400000102,
      "d": 189.51575000000594,
      "v": 110
    },
    {
      "midi": 73,
      "hit": false,
      "t": 115741.70400000155,
      "d": 189.51575000000594,
      "v": 127
    },
    {
      "midi": 55,
      "hit": false,
      "t": 115935.25200000103,
      "d": 189.51575000000594,
      "v": 110
    },
    {
      "midi": 70,
      "hit": false,
      "t": 115935.25200000156,
      "d": 189.51575000000594,
      "v": 127
    },
    {
      "midi": 43,
      "hit": false,
      "t": 116128.80000000104,
      "d": 189.51575000000594,
      "v": 110
    },
    {
      "midi": 67,
      "hit": false,
      "t": 116128.80000000157,
      "d": 189.51575000000594,
      "v": 127
    },
    {
      "midi": 44,
      "hit": false,
      "t": 116322.34800000105,
      "d": 189.51575000000594,
      "v": 110
    },
    {
      "midi": 68,
      "hit": false,
      "t": 116322.34800000158,
      "d": 189.51575000000594,
      "v": 127
    },
    {
      "midi": 43,
      "hit": false,
      "t": 116515.89600000106,
      "d": 189.51575000000594,
      "v": 110
    },
    {
      "midi": 67,
      "hit": false,
      "t": 116515.8960000016,
      "d": 189.51575000000594,
      "v": 127
    },
    {
      "midi": 44,
      "hit": false,
      "t": 116709.44400000107,
      "d": 189.51575000000594,
      "v": 110
    },
    {
      "midi": 68,
      "hit": false,
      "t": 116709.4440000016,
      "d": 189.51575000000594,
      "v": 127
    },
    {
      "midi": 43,
      "hit": false,
      "t": 116902.99200000108,
      "d": 189.51575000000594,
      "v": 110
    },
    {
      "midi": 67,
      "hit": false,
      "t": 116902.99200000161,
      "d": 189.51575000000594,
      "v": 127
    },
    {
      "midi": 44,
      "hit": false,
      "t": 117096.54000000108,
      "d": 189.51575000000594,
      "v": 110
    },
    {
      "midi": 68,
      "hit": false,
      "t": 117096.54000000162,
      "d": 189.51575000000594,
      "v": 127
    },
    {
      "midi": 43,
      "hit": false,
      "t": 117290.0880000011,
      "d": 189.51575000000594,
      "v": 110
    },
    {
      "midi": 67,
      "hit": false,
      "t": 117290.08800000163,
      "d": 189.51575000000594,
      "v": 127
    },
    {
      "midi": 44,
      "hit": false,
      "t": 117483.6360000011,
      "d": 189.51575000000594,
      "v": 110
    },
    {
      "midi": 68,
      "hit": false,
      "t": 117483.63600000164,
      "d": 189.51575000000594,
      "v": 127
    },
    {
      "midi": 52,
      "hit": false,
      "t": 117677.18400000111,
      "d": 322.58000000000175,
      "v": 110
    },
    {
      "midi": 67,
      "hit": false,
      "t": 117677.18400000165,
      "d": 189.51575000000594,
      "v": 127
    },
    {
      "midi": 55,
      "hit": false,
      "t": 117870.73200000111,
      "d": 189.51575000000594,
      "v": 110
    },
    {
      "midi": 70,
      "hit": false,
      "t": 117870.73200000166,
      "d": 189.51575000000594,
      "v": 127
    },
    {
      "midi": 58,
      "hit": false,
      "t": 118064.28000000112,
      "d": 189.51575000000594,
      "v": 110
    },
    {
      "midi": 73,
      "hit": false,
      "t": 118064.28000000167,
      "d": 189.51575000000594,
      "v": 127
    },
    {
      "midi": 61,
      "hit": false,
      "t": 118257.82800000113,
      "d": 189.51575000000594,
      "v": 110
    },
    {
      "midi": 76,
      "hit": false,
      "t": 118257.82800000168,
      "d": 189.51575000000594,
      "v": 127
    },
    {
      "midi": 64,
      "hit": false,
      "t": 118451.37600000114,
      "d": 189.51575000000594,
      "v": 110
    },
    {
      "midi": 79,
      "hit": false,
      "t": 118451.37600000169,
      "d": 189.51575000000594,
      "v": 127
    },
    {
      "midi": 61,
      "hit": false,
      "t": 118644.92400000115,
      "d": 189.51575000000594,
      "v": 110
    },
    {
      "midi": 76,
      "hit": false,
      "t": 118644.9240000017,
      "d": 189.51575000000594,
      "v": 127
    },
    {
      "midi": 58,
      "hit": false,
      "t": 118838.47200000116,
      "d": 189.51575000000594,
      "v": 110
    },
    {
      "midi": 73,
      "hit": false,
      "t": 118838.47200000171,
      "d": 189.51575000000594,
      "v": 127
    },
    {
      "midi": 55,
      "hit": false,
      "t": 119032.02000000117,
      "d": 189.51575000000594,
      "v": 110
    },
    {
      "midi": 70,
      "hit": false,
      "t": 119032.02000000172,
      "d": 189.51575000000594,
      "v": 127
    },
    {
      "midi": 43,
      "hit": false,
      "t": 119225.56800000118,
      "d": 189.51575000000594,
      "v": 110
    },
    {
      "midi": 67,
      "hit": false,
      "t": 119225.56800000173,
      "d": 189.51575000000594,
      "v": 127
    },
    {
      "midi": 44,
      "hit": false,
      "t": 119419.11600000119,
      "d": 189.51575000000594,
      "v": 110
    },
    {
      "midi": 68,
      "hit": false,
      "t": 119419.11600000174,
      "d": 189.51575000000594,
      "v": 127
    },
    {
      "midi": 43,
      "hit": false,
      "t": 119612.6640000012,
      "d": 189.51575000000594,
      "v": 110
    },
    {
      "midi": 67,
      "hit": false,
      "t": 119612.66400000175,
      "d": 189.51575000000594,
      "v": 127
    },
    {
      "midi": 44,
      "hit": false,
      "t": 119806.21200000121,
      "d": 189.51575000000594,
      "v": 110
    },
    {
      "midi": 68,
      "hit": false,
      "t": 119806.21200000176,
      "d": 189.51575000000594,
      "v": 127
    },
    {
      "midi": 43,
      "hit": false,
      "t": 119999.76000000122,
      "d": 189.51575000000594,
      "v": 110
    },
    {
      "midi": 67,
      "hit": false,
      "t": 119999.76000000177,
      "d": 189.51575000000594,
      "v": 127
    },
    {
      "midi": 44,
      "hit": false,
      "t": 120193.30800000123,
      "d": 189.51575000000594,
      "v": 110
    },
    {
      "midi": 68,
      "hit": false,
      "t": 120193.30800000178,
      "d": 189.51575000000594,
      "v": 127
    },
    {
      "midi": 43,
      "hit": false,
      "t": 120386.85600000124,
      "d": 189.51575000000594,
      "v": 110
    },
    {
      "midi": 67,
      "hit": false,
      "t": 120386.85600000179,
      "d": 189.51575000000594,
      "v": 127
    },
    {
      "midi": 44,
      "hit": false,
      "t": 120580.40400000125,
      "d": 189.51575000000594,
      "v": 110
    },
    {
      "midi": 68,
      "hit": false,
      "t": 120580.4040000018,
      "d": 189.51575000000594,
      "v": 127
    },
    {
      "midi": 52,
      "hit": false,
      "t": 120773.95200000126,
      "d": 322.58000000000175,
      "v": 110
    },
    {
      "midi": 67,
      "hit": false,
      "t": 120773.95200000181,
      "d": 189.51575000000594,
      "v": 127
    },
    {
      "midi": 55,
      "hit": false,
      "t": 120967.50000000125,
      "d": 189.51575000000594,
      "v": 110
    },
    {
      "midi": 70,
      "hit": false,
      "t": 120967.50000000182,
      "d": 189.51575000000594,
      "v": 127
    },
    {
      "midi": 58,
      "hit": false,
      "t": 121161.04800000126,
      "d": 189.51575000000594,
      "v": 110
    },
    {
      "midi": 73,
      "hit": false,
      "t": 121161.04800000183,
      "d": 189.51575000000594,
      "v": 127
    },
    {
      "midi": 61,
      "hit": false,
      "t": 121354.59600000127,
      "d": 189.51575000000594,
      "v": 110
    },
    {
      "midi": 76,
      "hit": false,
      "t": 121354.59600000184,
      "d": 189.51575000000594,
      "v": 127
    },
    {
      "midi": 64,
      "hit": false,
      "t": 121548.14400000128,
      "d": 189.51575000000594,
      "v": 110
    },
    {
      "midi": 79,
      "hit": false,
      "t": 121548.14400000185,
      "d": 189.51575000000594,
      "v": 127
    },
    {
      "midi": 61,
      "hit": false,
      "t": 121741.69200000129,
      "d": 189.51575000000594,
      "v": 110
    },
    {
      "midi": 76,
      "hit": false,
      "t": 121741.69200000186,
      "d": 189.51575000000594,
      "v": 127
    },
    {
      "midi": 58,
      "hit": false,
      "t": 121935.2400000013,
      "d": 189.51575000000594,
      "v": 110
    },
    {
      "midi": 73,
      "hit": false,
      "t": 121935.24000000187,
      "d": 189.51575000000594,
      "v": 127
    },
    {
      "midi": 55,
      "hit": false,
      "t": 122128.78800000131,
      "d": 189.51575000000594,
      "v": 110
    },
    {
      "midi": 70,
      "hit": false,
      "t": 122128.78800000188,
      "d": 189.51575000000594,
      "v": 127
    },
    {
      "midi": 52,
      "hit": false,
      "t": 122322.33600000132,
      "d": 774.1919999999955,
      "v": 127
    },
    {
      "midi": 68,
      "hit": false,
      "t": 122322.33600000189,
      "d": 774.1919999999955,
      "v": 127
    },
    {
      "midi": 50,
      "hit": false,
      "t": 123096.52800000132,
      "d": 774.1919999999955,
      "v": 127
    },
    {
      "midi": 66,
      "hit": false,
      "t": 123096.52800000188,
      "d": 774.1919999999955,
      "v": 127
    },
    {
      "midi": 49,
      "hit": false,
      "t": 123870.72000000131,
      "d": 774.1919999999955,
      "v": 127
    },
    {
      "midi": 64,
      "hit": false,
      "t": 123870.72000000188,
      "d": 774.1919999999955,
      "v": 127
    },
    {
      "midi": 47,
      "hit": false,
      "t": 124644.9120000013,
      "d": 129.03200000000652,
      "v": 127
    },
    {
      "midi": 62,
      "hit": false,
      "t": 124644.91200000187,
      "d": 129.03200000000652,
      "v": 127
    },
    {
      "midi": 47,
      "hit": false,
      "t": 124773.94400000131,
      "d": 129.03200000000652,
      "v": 127
    },
    {
      "midi": 62,
      "hit": false,
      "t": 124773.94400000188,
      "d": 129.03200000000652,
      "v": 127
    },
    {
      "midi": 47,
      "hit": false,
      "t": 124902.97600000132,
      "d": 129.03200000000652,
      "v": 127
    },
    {
      "midi": 62,
      "hit": false,
      "t": 124902.97600000189,
      "d": 129.03200000000652,
      "v": 127
    },
    {
      "midi": 47,
      "hit": false,
      "t": 125032.00800000133,
      "d": 129.03200000000652,
      "v": 127
    },
    {
      "midi": 62,
      "hit": false,
      "t": 125032.0080000019,
      "d": 129.03200000000652,
      "v": 127
    },
    {
      "midi": 47,
      "hit": false,
      "t": 125161.04000000133,
      "d": 129.03200000000652,
      "v": 127
    },
    {
      "midi": 62,
      "hit": false,
      "t": 125161.0400000019,
      "d": 129.03200000000652,
      "v": 127
    },
    {
      "midi": 47,
      "hit": false,
      "t": 125290.07200000134,
      "d": 129.03200000000652,
      "v": 127
    },
    {
      "midi": 62,
      "hit": false,
      "t": 125290.0720000019,
      "d": 129.03200000000652,
      "v": 127
    },
    {
      "midi": 45,
      "hit": false,
      "t": 125419.10400000135,
      "d": 387.096000000005,
      "v": 127
    },
    {
      "midi": 45,
      "hit": false,
      "t": 125806.20000000135,
      "d": 129.03200000000652,
      "v": 127
    },
    {
      "midi": 45,
      "hit": false,
      "t": 125935.23200000136,
      "d": 129.03200000000652,
      "v": 127
    },
    {
      "midi": 40,
      "hit": false,
      "t": 126064.26400000136,
      "d": 129.03200000000652,
      "v": 127
    },
    {
      "midi": 45,
      "hit": false,
      "t": 126193.29600000137,
      "d": 387.096000000005,
      "v": 127
    },
    {
      "midi": 64,
      "hit": false,
      "t": 126193.29600000191,
      "d": 258.0639999999985,
      "v": 127
    },
    {
      "midi": 73,
      "hit": false,
      "t": 126193.29600000191,
      "d": 258.0639999999985,
      "v": 127
    },
    {
      "midi": 66,
      "hit": false,
      "t": 126451.3600000019,
      "d": 129.03200000000652,
      "v": 127
    },
    {
      "midi": 74,
      "hit": false,
      "t": 126451.3600000019,
      "d": 129.03200000000652,
      "v": 127
    },
    {
      "midi": 45,
      "hit": false,
      "t": 126580.39200000137,
      "d": 129.03200000000652,
      "v": 127
    },
    {
      "midi": 45,
      "hit": false,
      "t": 126709.42400000138,
      "d": 129.03200000000652,
      "v": 127
    },
    {
      "midi": 40,
      "hit": false,
      "t": 126838.45600000139,
      "d": 129.03200000000652,
      "v": 127
    },
    {
      "midi": 73,
      "hit": false,
      "t": 126838.45600000191,
      "d": 129.03200000000652,
      "v": 127
    },
    {
      "midi": 76,
      "hit": false,
      "t": 126838.45600000191,
      "d": 129.03200000000652,
      "v": 127
    },
    {
      "midi": 45,
      "hit": false,
      "t": 126967.4880000014,
      "d": 387.096000000005,
      "v": 127
    },
    {
      "midi": 45,
      "hit": false,
      "t": 127354.5840000014,
      "d": 129.03200000000652,
      "v": 127
    },
    {
      "midi": 45,
      "hit": false,
      "t": 127483.6160000014,
      "d": 129.03200000000652,
      "v": 127
    },
    {
      "midi": 40,
      "hit": false,
      "t": 127612.64800000141,
      "d": 129.03200000000652,
      "v": 127
    },
    {
      "midi": 61,
      "hit": false,
      "t": 127612.64800000192,
      "d": 129.03200000000652,
      "v": 127
    },
    {
      "midi": 69,
      "hit": false,
      "t": 127612.64800000192,
      "d": 129.03200000000652,
      "v": 127
    },
    {
      "midi": 45,
      "hit": false,
      "t": 127741.68000000142,
      "d": 387.096000000005,
      "v": 127
    },
    {
      "midi": 73,
      "hit": false,
      "t": 127741.68000000193,
      "d": 258.0639999999985,
      "v": 127
    },
    {
      "midi": 76,
      "hit": false,
      "t": 127741.68000000193,
      "d": 258.0639999999985,
      "v": 127
    },
    {
      "midi": 71,
      "hit": false,
      "t": 127999.74400000193,
      "d": 129.03200000000652,
      "v": 127
    },
    {
      "midi": 74,
      "hit": false,
      "t": 127999.74400000193,
      "d": 129.03200000000652,
      "v": 127
    },
    {
      "midi": 45,
      "hit": false,
      "t": 128128.77600000142,
      "d": 129.03200000000652,
      "v": 127
    },
    {
      "midi": 69,
      "hit": false,
      "t": 128128.77600000193,
      "d": 258.0639999999985,
      "v": 127
    },
    {
      "midi": 73,
      "hit": false,
      "t": 128128.77600000193,
      "d": 258.0639999999985,
      "v": 127
    },
    {
      "midi": 45,
      "hit": false,
      "t": 128257.80800000143,
      "d": 129.03200000000652,
      "v": 127
    },
    {
      "midi": 40,
      "hit": false,
      "t": 128386.84000000144,
      "d": 129.03200000000652,
      "v": 127
    },
    {
      "midi": 38,
      "hit": false,
      "t": 128515.87200000144,
      "d": 387.096000000005,
      "v": 127
    },
    {
      "midi": 66,
      "hit": false,
      "t": 128515.87200000194,
      "d": 387.096000000005,
      "v": 127
    },
    {
      "midi": 71,
      "hit": false,
      "t": 128515.87200000194,
      "d": 387.096000000005,
      "v": 127
    },
    {
      "midi": 38,
      "hit": false,
      "t": 128902.96800000145,
      "d": 129.03200000000652,
      "v": 127
    },
    {
      "midi": 69,
      "hit": false,
      "t": 128902.96800000194,
      "d": 258.0639999999985,
      "v": 127
    },
    {
      "midi": 73,
      "hit": false,
      "t": 128902.96800000194,
      "d": 258.0639999999985,
      "v": 127
    },
    {
      "midi": 38,
      "hit": false,
      "t": 129032.00000000146,
      "d": 129.03200000000652,
      "v": 127
    },
    {
      "midi": 45,
      "hit": false,
      "t": 129161.03200000146,
      "d": 129.03200000000652,
      "v": 127
    },
    {
      "midi": 69,
      "hit": false,
      "t": 129161.03200000194,
      "d": 2451.607999999993,
      "v": 127
    },
    {
      "midi": 66,
      "hit": false,
      "t": 129161.03200000194,
      "d": 2451.607999999993,
      "v": 127
    },
    {
      "midi": 38,
      "hit": false,
      "t": 129290.06400000147,
      "d": 387.096000000005,
      "v": 127
    },
    {
      "midi": 38,
      "hit": false,
      "t": 129677.16000000147,
      "d": 129.03200000000652,
      "v": 127
    },
    {
      "midi": 38,
      "hit": false,
      "t": 129806.19200000148,
      "d": 129.03200000000652,
      "v": 127
    },
    {
      "midi": 45,
      "hit": false,
      "t": 129935.22400000149,
      "d": 129.03200000000652,
      "v": 127
    },
    {
      "midi": 38,
      "hit": false,
      "t": 130064.2560000015,
      "d": 387.096000000005,
      "v": 127
    },
    {
      "midi": 38,
      "hit": false,
      "t": 130451.3520000015,
      "d": 129.03200000000652,
      "v": 127
    },
    {
      "midi": 38,
      "hit": false,
      "t": 130580.3840000015,
      "d": 129.03200000000652,
      "v": 127
    },
    {
      "midi": 45,
      "hit": false,
      "t": 130709.41600000151,
      "d": 129.03200000000652,
      "v": 127
    },
    {
      "midi": 38,
      "hit": false,
      "t": 130838.44800000152,
      "d": 387.09599999999045,
      "v": 127
    },
    {
      "midi": 38,
      "hit": false,
      "t": 131225.5440000015,
      "d": 129.03200000000652,
      "v": 127
    },
    {
      "midi": 38,
      "hit": false,
      "t": 131354.5760000015,
      "d": 129.03200000000652,
      "v": 127
    },
    {
      "midi": 45,
      "hit": false,
      "t": 131483.60800000152,
      "d": 129.03200000000652,
      "v": 127
    },
    {
      "midi": 45,
      "hit": false,
      "t": 131612.64000000153,
      "d": 387.09599999999045,
      "v": 127
    },
    {
      "midi": 45,
      "hit": false,
      "t": 131999.73600000152,
      "d": 129.03200000000652,
      "v": 127
    },
    {
      "midi": 45,
      "hit": false,
      "t": 132128.76800000152,
      "d": 129.03200000000652,
      "v": 127
    },
    {
      "midi": 40,
      "hit": false,
      "t": 132257.80000000153,
      "d": 129.03200000000652,
      "v": 127
    },
    {
      "midi": 45,
      "hit": false,
      "t": 132386.83200000154,
      "d": 387.09599999999045,
      "v": 127
    },
    {
      "midi": 64,
      "hit": false,
      "t": 132386.83200000194,
      "d": 258.06400000001304,
      "v": 127
    },
    {
      "midi": 73,
      "hit": false,
      "t": 132386.83200000194,
      "d": 258.06400000001304,
      "v": 127
    },
    {
      "midi": 66,
      "hit": false,
      "t": 132644.89600000196,
      "d": 129.03200000000652,
      "v": 127
    },
    {
      "midi": 74,
      "hit": false,
      "t": 132644.89600000196,
      "d": 129.03200000000652,
      "v": 127
    },
    {
      "midi": 45,
      "hit": false,
      "t": 132773.92800000153,
      "d": 129.03200000000652,
      "v": 127
    },
    {
      "midi": 45,
      "hit": false,
      "t": 132902.96000000153,
      "d": 129.03200000000652,
      "v": 127
    },
    {
      "midi": 40,
      "hit": false,
      "t": 133031.99200000154,
      "d": 129.03200000000652,
      "v": 127
    },
    {
      "midi": 73,
      "hit": false,
      "t": 133031.99200000198,
      "d": 129.03200000000652,
      "v": 127
    },
    {
      "midi": 76,
      "hit": false,
      "t": 133031.99200000198,
      "d": 129.03200000000652,
      "v": 127
    },
    {
      "midi": 45,
      "hit": false,
      "t": 133161.02400000155,
      "d": 387.09599999999045,
      "v": 127
    },
    {
      "midi": 45,
      "hit": false,
      "t": 133548.12000000154,
      "d": 129.03200000000652,
      "v": 127
    },
    {
      "midi": 45,
      "hit": false,
      "t": 133677.15200000154,
      "d": 129.03200000000652,
      "v": 127
    },
    {
      "midi": 40,
      "hit": false,
      "t": 133806.18400000155,
      "d": 129.03200000000652,
      "v": 127
    },
    {
      "midi": 61,
      "hit": false,
      "t": 133806.184000002,
      "d": 129.03200000000652,
      "v": 127
    },
    {
      "midi": 69,
      "hit": false,
      "t": 133806.184000002,
      "d": 129.03200000000652,
      "v": 127
    },
    {
      "midi": 45,
      "hit": false,
      "t": 133935.21600000156,
      "d": 387.09599999999045,
      "v": 127
    },
    {
      "midi": 73,
      "hit": false,
      "t": 133935.216000002,
      "d": 258.06400000001304,
      "v": 127
    },
    {
      "midi": 76,
      "hit": false,
      "t": 133935.216000002,
      "d": 258.06400000001304,
      "v": 127
    },
    {
      "midi": 71,
      "hit": false,
      "t": 134193.280000002,
      "d": 129.03200000000652,
      "v": 127
    },
    {
      "midi": 74,
      "hit": false,
      "t": 134193.280000002,
      "d": 129.03200000000652,
      "v": 127
    },
    {
      "midi": 45,
      "hit": false,
      "t": 134322.31200000155,
      "d": 129.03200000000652,
      "v": 127
    },
    {
      "midi": 69,
      "hit": false,
      "t": 134322.312000002,
      "d": 258.06400000001304,
      "v": 127
    },
    {
      "midi": 73,
      "hit": false,
      "t": 134322.312000002,
      "d": 258.06400000001304,
      "v": 127
    },
    {
      "midi": 45,
      "hit": false,
      "t": 134451.34400000155,
      "d": 129.03200000000652,
      "v": 127
    },
    {
      "midi": 40,
      "hit": false,
      "t": 134580.37600000156,
      "d": 129.03200000000652,
      "v": 127
    },
    {
      "midi": 38,
      "hit": false,
      "t": 134709.40800000157,
      "d": 387.09599999999045,
      "v": 127
    },
    {
      "midi": 66,
      "hit": false,
      "t": 134709.40800000203,
      "d": 387.09599999999045,
      "v": 127
    },
    {
      "midi": 71,
      "hit": false,
      "t": 134709.40800000203,
      "d": 387.09599999999045,
      "v": 127
    },
    {
      "midi": 38,
      "hit": false,
      "t": 135096.50400000156,
      "d": 129.03200000000652,
      "v": 127
    },
    {
      "midi": 69,
      "hit": false,
      "t": 135096.50400000202,
      "d": 258.06400000001304,
      "v": 127
    },
    {
      "midi": 73,
      "hit": false,
      "t": 135096.50400000202,
      "d": 258.06400000001304,
      "v": 127
    },
    {
      "midi": 38,
      "hit": false,
      "t": 135225.53600000156,
      "d": 129.03200000000652,
      "v": 127
    },
    {
      "midi": 45,
      "hit": false,
      "t": 135354.56800000157,
      "d": 129.03200000000652,
      "v": 127
    },
    {
      "midi": 69,
      "hit": false,
      "t": 135354.56800000204,
      "d": 774.19200000001,
      "v": 127
    },
    {
      "midi": 66,
      "hit": false,
      "t": 135354.56800000204,
      "d": 2451.6080000000075,
      "v": 127
    },
    {
      "midi": 38,
      "hit": false,
      "t": 135483.60000000158,
      "d": 387.09599999999045,
      "v": 127
    },
    {
      "midi": 38,
      "hit": false,
      "t": 135870.69600000157,
      "d": 129.03200000000652,
      "v": 127
    },
    {
      "midi": 38,
      "hit": false,
      "t": 135999.72800000157,
      "d": 129.03200000000652,
      "v": 127
    },
    {
      "midi": 45,
      "hit": false,
      "t": 136128.76000000158,
      "d": 129.03200000000652,
      "v": 127
    },
    {
      "midi": 38,
      "hit": false,
      "t": 136257.7920000016,
      "d": 387.09599999999045,
      "v": 127
    },
    {
      "midi": 38,
      "hit": false,
      "t": 136644.88800000158,
      "d": 129.03200000000652,
      "v": 127
    },
    {
      "midi": 38,
      "hit": false,
      "t": 136773.92000000158,
      "d": 129.03200000000652,
      "v": 127
    },
    {
      "midi": 45,
      "hit": false,
      "t": 136902.9520000016,
      "d": 129.03200000000652,
      "v": 127
    },
    {
      "midi": 38,
      "hit": false,
      "t": 137031.9840000016,
      "d": 387.09599999999045,
      "v": 127
    },
    {
      "midi": 38,
      "hit": false,
      "t": 137419.0800000016,
      "d": 129.03200000000652,
      "v": 127
    },
    {
      "midi": 38,
      "hit": false,
      "t": 137548.1120000016,
      "d": 129.03200000000652,
      "v": 127
    },
    {
      "midi": 45,
      "hit": false,
      "t": 137677.1440000016,
      "d": 129.03200000000652,
      "v": 127
    },
    {
      "midi": 47,
      "hit": false,
      "t": 137806.1760000016,
      "d": 387.09599999999045,
      "v": 127
    },
    {
      "midi": 47,
      "hit": false,
      "t": 138193.2720000016,
      "d": 129.03200000000652,
      "v": 127
    },
    {
      "midi": 47,
      "hit": false,
      "t": 138322.3040000016,
      "d": 129.03200000000652,
      "v": 127
    },
    {
      "midi": 42,
      "hit": false,
      "t": 138451.3360000016,
      "d": 129.03200000000652,
      "v": 127
    },
    {
      "midi": 47,
      "hit": false,
      "t": 138580.36800000162,
      "d": 387.09599999999045,
      "v": 127
    },
    {
      "midi": 66,
      "hit": false,
      "t": 138580.36800000205,
      "d": 258.06400000001304,
      "v": 127
    },
    {
      "midi": 74,
      "hit": false,
      "t": 138580.36800000205,
      "d": 258.06400000001304,
      "v": 127
    },
    {
      "midi": 66,
      "hit": false,
      "t": 138838.43200000207,
      "d": 129.03200000000652,
      "v": 127
    },
    {
      "midi": 74,
      "hit": false,
      "t": 138838.43200000207,
      "d": 129.03200000000652,
      "v": 127
    },
    {
      "midi": 47,
      "hit": false,
      "t": 138967.4640000016,
      "d": 129.03200000000652,
      "v": 127
    },
    {
      "midi": 47,
      "hit": false,
      "t": 139096.4960000016,
      "d": 129.03200000000652,
      "v": 127
    },
    {
      "midi": 42,
      "hit": false,
      "t": 139225.52800000162,
      "d": 129.03200000000652,
      "v": 127
    },
    {
      "midi": 66,
      "hit": false,
      "t": 139225.5280000021,
      "d": 129.03200000000652,
      "v": 127
    },
    {
      "midi": 74,
      "hit": false,
      "t": 139225.5280000021,
      "d": 129.03200000000652,
      "v": 127
    },
    {
      "midi": 47,
      "hit": false,
      "t": 139354.56000000163,
      "d": 387.09599999999045,
      "v": 127
    },
    {
      "midi": 47,
      "hit": false,
      "t": 139741.65600000162,
      "d": 129.03200000000652,
      "v": 127
    },
    {
      "midi": 47,
      "hit": false,
      "t": 139870.68800000162,
      "d": 129.03200000000652,
      "v": 127
    },
    {
      "midi": 42,
      "hit": false,
      "t": 139999.72000000163,
      "d": 129.03200000000652,
      "v": 127
    },
    {
      "midi": 64,
      "hit": false,
      "t": 139999.7200000021,
      "d": 129.03200000000652,
      "v": 127
    },
    {
      "midi": 73,
      "hit": false,
      "t": 139999.7200000021,
      "d": 129.03200000000652,
      "v": 127
    },
    {
      "midi": 47,
      "hit": false,
      "t": 140128.75200000164,
      "d": 387.09599999999045,
      "v": 127
    },
    {
      "midi": 62,
      "hit": false,
      "t": 140128.7520000021,
      "d": 387.09599999999045,
      "v": 127
    },
    {
      "midi": 71,
      "hit": false,
      "t": 140128.7520000021,
      "d": 387.09599999999045,
      "v": 127
    },
    {
      "midi": 47,
      "hit": false,
      "t": 140515.84800000163,
      "d": 129.03200000000652,
      "v": 127
    },
    {
      "midi": 61,
      "hit": false,
      "t": 140515.8480000021,
      "d": 387.09599999999045,
      "v": 127
    },
    {
      "midi": 69,
      "hit": false,
      "t": 140515.8480000021,
      "d": 387.09599999999045,
      "v": 127
    },
    {
      "midi": 47,
      "hit": false,
      "t": 140644.88000000163,
      "d": 129.03200000000652,
      "v": 127
    },
    {
      "midi": 42,
      "hit": false,
      "t": 140773.91200000164,
      "d": 129.03200000000652,
      "v": 127
    },
    {
      "midi": 40,
      "hit": false,
      "t": 140902.94400000165,
      "d": 387.09599999999045,
      "v": 127
    },
    {
      "midi": 59,
      "hit": false,
      "t": 140902.94400000208,
      "d": 258.06400000001304,
      "v": 127
    },
    {
      "midi": 68,
      "hit": false,
      "t": 140902.94400000208,
      "d": 258.06400000001304,
      "v": 127
    },
    {
      "midi": 61,
      "hit": false,
      "t": 141161.0080000021,
      "d": 129.03200000000652,
      "v": 127
    },
    {
      "midi": 69,
      "hit": false,
      "t": 141161.0080000021,
      "d": 129.03200000000652,
      "v": 127
    },
    {
      "midi": 40,
      "hit": false,
      "t": 141290.04000000164,
      "d": 129.03200000000652,
      "v": 127
    },
    {
      "midi": 40,
      "hit": false,
      "t": 141419.07200000164,
      "d": 129.03200000000652,
      "v": 127
    },
    {
      "midi": 47,
      "hit": false,
      "t": 141548.10400000165,
      "d": 129.03200000000652,
      "v": 127
    },
    {
      "midi": 68,
      "hit": false,
      "t": 141548.10400000212,
      "d": 129.03200000000652,
      "v": 127
    },
    {
      "midi": 71,
      "hit": false,
      "t": 141548.10400000212,
      "d": 129.03200000000652,
      "v": 127
    },
    {
      "midi": 40,
      "hit": false,
      "t": 141677.13600000166,
      "d": 387.09599999999045,
      "v": 127
    },
    {
      "midi": 40,
      "hit": false,
      "t": 142064.23200000165,
      "d": 129.03200000000652,
      "v": 127
    },
    {
      "midi": 40,
      "hit": false,
      "t": 142193.26400000165,
      "d": 129.03200000000652,
      "v": 127
    },
    {
      "midi": 47,
      "hit": false,
      "t": 142322.29600000166,
      "d": 129.03200000000652,
      "v": 127
    },
    {
      "midi": 40,
      "hit": false,
      "t": 142451.32800000167,
      "d": 387.09599999999045,
      "v": 127
    },
    {
      "midi": 40,
      "hit": false,
      "t": 142838.42400000166,
      "d": 129.03200000000652,
      "v": 127
    },
    {
      "midi": 40,
      "hit": false,
      "t": 142967.45600000166,
      "d": 129.03200000000652,
      "v": 127
    },
    {
      "midi": 47,
      "hit": false,
      "t": 143096.48800000167,
      "d": 129.03200000000652,
      "v": 127
    },
    {
      "midi": 40,
      "hit": false,
      "t": 143225.52000000168,
      "d": 387.09599999999045,
      "v": 127
    },
    {
      "midi": 40,
      "hit": false,
      "t": 143612.61600000167,
      "d": 129.03200000000652,
      "v": 127
    },
    {
      "midi": 40,
      "hit": false,
      "t": 143741.64800000167,
      "d": 129.03200000000652,
      "v": 127
    },
    {
      "midi": 47,
      "hit": false,
      "t": 143870.68000000168,
      "d": 129.03200000000652,
      "v": 127
    },
    {
      "midi": 47,
      "hit": false,
      "t": 143999.7120000017,
      "d": 387.09599999999045,
      "v": 127
    },
    {
      "midi": 47,
      "hit": false,
      "t": 144386.80800000168,
      "d": 129.03200000000652,
      "v": 127
    },
    {
      "midi": 47,
      "hit": false,
      "t": 144515.84000000168,
      "d": 129.03200000000652,
      "v": 127
    },
    {
      "midi": 42,
      "hit": false,
      "t": 144644.8720000017,
      "d": 129.03200000000652,
      "v": 127
    },
    {
      "midi": 47,
      "hit": false,
      "t": 144773.9040000017,
      "d": 387.09599999999045,
      "v": 127
    },
    {
      "midi": 66,
      "hit": false,
      "t": 144773.90400000213,
      "d": 258.06400000001304,
      "v": 127
    },
    {
      "midi": 74,
      "hit": false,
      "t": 144773.90400000213,
      "d": 258.06400000001304,
      "v": 127
    },
    {
      "midi": 66,
      "hit": false,
      "t": 145031.96800000215,
      "d": 129.03200000000652,
      "v": 127
    },
    {
      "midi": 74,
      "hit": false,
      "t": 145031.96800000215,
      "d": 129.03200000000652,
      "v": 127
    },
    {
      "midi": 47,
      "hit": false,
      "t": 145161.0000000017,
      "d": 129.03200000000652,
      "v": 127
    },
    {
      "midi": 47,
      "hit": false,
      "t": 145290.0320000017,
      "d": 129.03200000000652,
      "v": 127
    },
    {
      "midi": 42,
      "hit": false,
      "t": 145419.0640000017,
      "d": 129.03200000000652,
      "v": 127
    },
    {
      "midi": 66,
      "hit": false,
      "t": 145419.06400000217,
      "d": 129.03200000000652,
      "v": 127
    },
    {
      "midi": 74,
      "hit": false,
      "t": 145419.06400000217,
      "d": 129.03200000000652,
      "v": 127
    },
    {
      "midi": 47,
      "hit": false,
      "t": 145548.0960000017,
      "d": 387.09599999999045,
      "v": 127
    },
    {
      "midi": 47,
      "hit": false,
      "t": 145935.1920000017,
      "d": 129.03200000000652,
      "v": 127
    },
    {
      "midi": 47,
      "hit": false,
      "t": 146064.2240000017,
      "d": 129.03200000000652,
      "v": 127
    },
    {
      "midi": 42,
      "hit": false,
      "t": 146193.2560000017,
      "d": 129.03200000000652,
      "v": 127
    },
    {
      "midi": 64,
      "hit": false,
      "t": 146193.25600000218,
      "d": 129.03200000000652,
      "v": 127
    },
    {
      "midi": 73,
      "hit": false,
      "t": 146193.25600000218,
      "d": 129.03200000000652,
      "v": 127
    },
    {
      "midi": 47,
      "hit": false,
      "t": 146322.28800000172,
      "d": 387.09599999999045,
      "v": 127
    },
    {
      "midi": 62,
      "hit": false,
      "t": 146322.28800000218,
      "d": 387.09599999999045,
      "v": 127
    },
    {
      "midi": 71,
      "hit": false,
      "t": 146322.28800000218,
      "d": 387.09599999999045,
      "v": 127
    },
    {
      "midi": 47,
      "hit": false,
      "t": 146709.3840000017,
      "d": 129.03200000000652,
      "v": 127
    },
    {
      "midi": 61,
      "hit": false,
      "t": 146709.38400000217,
      "d": 129.03200000000652,
      "v": 127
    },
    {
      "midi": 69,
      "hit": false,
      "t": 146709.38400000217,
      "d": 387.09600000001956,
      "v": 127
    },
    {
      "midi": 47,
      "hit": false,
      "t": 146838.41600000171,
      "d": 129.03200000000652,
      "v": 127
    },
    {
      "midi": 42,
      "hit": false,
      "t": 146967.44800000172,
      "d": 129.03200000000652,
      "v": 127
    },
    {
      "midi": 52,
      "hit": false,
      "t": 147096.48000000173,
      "d": 387.09599999999045,
      "v": 127
    },
    {
      "midi": 68,
      "hit": false,
      "t": 147096.4800000022,
      "d": 774.19200000001,
      "v": 127
    },
    {
      "midi": 52,
      "hit": false,
      "t": 147483.57600000172,
      "d": 387.09599999999045,
      "v": 127
    },
    {
      "midi": 50,
      "hit": false,
      "t": 147870.6720000017,
      "d": 387.09599999999045,
      "v": 127
    },
    {
      "midi": 66,
      "hit": false,
      "t": 147870.6720000022,
      "d": 774.19200000001,
      "v": 127
    },
    {
      "midi": 50,
      "hit": false,
      "t": 148257.7680000017,
      "d": 387.09599999999045,
      "v": 127
    },
    {
      "midi": 49,
      "hit": false,
      "t": 148644.8640000017,
      "d": 387.09599999999045,
      "v": 127
    },
    {
      "midi": 64,
      "hit": false,
      "t": 148644.8640000022,
      "d": 774.19200000001,
      "v": 127
    },
    {
      "midi": 49,
      "hit": false,
      "t": 149031.96000000168,
      "d": 387.09599999999045,
      "v": 127
    },
    {
      "midi": 47,
      "hit": false,
      "t": 149419.05600000167,
      "d": 129.03200000000652,
      "v": 127
    },
    {
      "midi": 62,
      "hit": false,
      "t": 149419.05600000222,
      "d": 129.03200000000652,
      "v": 127
    },
    {
      "midi": 47,
      "hit": false,
      "t": 149548.08800000168,
      "d": 129.03200000000652,
      "v": 127
    },
    {
      "midi": 62,
      "hit": false,
      "t": 149548.08800000223,
      "d": 129.03200000000652,
      "v": 127
    },
    {
      "midi": 47,
      "hit": false,
      "t": 149677.12000000168,
      "d": 129.03200000000652,
      "v": 127
    },
    {
      "midi": 62,
      "hit": false,
      "t": 149677.12000000224,
      "d": 129.03200000000652,
      "v": 127
    },
    {
      "midi": 47,
      "hit": false,
      "t": 149806.1520000017,
      "d": 129.03200000000652,
      "v": 127
    },
    {
      "midi": 62,
      "hit": false,
      "t": 149806.15200000224,
      "d": 129.03200000000652,
      "v": 127
    },
    {
      "midi": 47,
      "hit": false,
      "t": 149935.1840000017,
      "d": 129.03200000000652,
      "v": 127
    },
    {
      "midi": 62,
      "hit": false,
      "t": 149935.18400000225,
      "d": 129.03200000000652,
      "v": 127
    },
    {
      "midi": 47,
      "hit": false,
      "t": 150064.2160000017,
      "d": 129.03200000000652,
      "v": 127
    },
    {
      "midi": 62,
      "hit": false,
      "t": 150064.21600000226,
      "d": 129.03200000000652,
      "v": 127
    },
    {
      "midi": 64,
      "hit": false,
      "t": 150193.2480000017,
      "d": 96.77400000000489,
      "v": 127
    },
    {
      "midi": 60,
      "hit": false,
      "t": 150193.24800000226,
      "d": 96.77400000000489,
      "v": 127
    },
    {
      "midi": 67,
      "hit": false,
      "t": 150193.24800000226,
      "d": 96.77400000000489,
      "v": 127
    },
    {
      "midi": 65,
      "hit": false,
      "t": 150290.0220000017,
      "d": 189.51574999999139,
      "v": 110
    },
    {
      "midi": 60,
      "hit": false,
      "t": 150290.02200000227,
      "d": 189.51574999999139,
      "v": 127
    },
    {
      "midi": 69,
      "hit": false,
      "t": 150290.02200000227,
      "d": 189.51574999999139,
      "v": 127
    },
    {
      "midi": 67,
      "hit": false,
      "t": 150483.5700000017,
      "d": 189.51574999999139,
      "v": 110
    },
    {
      "midi": 60,
      "hit": false,
      "t": 150483.57000000225,
      "d": 92.7417499999865,
      "v": 127
    },
    {
      "midi": 71,
      "hit": false,
      "t": 150483.57000000225,
      "d": 92.7417499999865,
      "v": 127
    },
    {
      "midi": 65,
      "hit": false,
      "t": 150677.11800000168,
      "d": 189.51574999999139,
      "v": 110
    },
    {
      "midi": 60,
      "hit": false,
      "t": 150677.11800000223,
      "d": 189.51574999999139,
      "v": 127
    },
    {
      "midi": 69,
      "hit": false,
      "t": 150677.11800000223,
      "d": 189.51574999999139,
      "v": 127
    },
    {
      "midi": 64,
      "hit": false,
      "t": 150870.66600000166,
      "d": 92.7417499999865,
      "v": 110
    },
    {
      "midi": 60,
      "hit": false,
      "t": 150870.6660000022,
      "d": 92.7417499999865,
      "v": 127
    },
    {
      "midi": 67,
      "hit": false,
      "t": 150870.6660000022,
      "d": 92.7417499999865,
      "v": 127
    },
    {
      "midi": 55,
      "hit": false,
      "t": 150967.44000000163,
      "d": 322.5799999999872,
      "v": 110
    },
    {
      "midi": 57,
      "hit": false,
      "t": 150967.44000000219,
      "d": 322.5799999999872,
      "v": 127
    },
    {
      "midi": 65,
      "hit": false,
      "t": 150967.44000000219,
      "d": 322.5799999999872,
      "v": 127
    },
    {
      "midi": 50,
      "hit": false,
      "t": 151064.21400000164,
      "d": 189.51574999999139,
      "v": 110
    },
    {
      "midi": 47,
      "hit": false,
      "t": 151257.76200000162,
      "d": 92.7417500000156,
      "v": 110
    },
    {
      "midi": 43,
      "hit": false,
      "t": 151354.53600000162,
      "d": 322.5799999999872,
      "v": 110
    },
    {
      "midi": 36,
      "hit": false,
      "t": 151741.6320000016,
      "d": 286.2897499999963,
      "v": 110
    },
    {
      "midi": 64,
      "hit": false,
      "t": 151741.63200000217,
      "d": 286.2897499999963,
      "v": 127
    },
    {
      "midi": 72,
      "hit": false,
      "t": 151741.63200000217,
      "d": 286.2897499999963,
      "v": 127
    },
    {
      "midi": 40,
      "hit": false,
      "t": 152031.9540000016,
      "d": 286.2897499999963,
      "v": 110
    },
    {
      "midi": 67,
      "hit": false,
      "t": 152031.95400000215,
      "d": 286.2897499999963,
      "v": 127
    },
    {
      "midi": 76,
      "hit": false,
      "t": 152031.95400000215,
      "d": 286.2897499999963,
      "v": 127
    },
    {
      "midi": 43,
      "hit": false,
      "t": 152322.27600000158,
      "d": 189.51574999999139,
      "v": 110
    },
    {
      "midi": 64,
      "hit": false,
      "t": 152322.27600000214,
      "d": 189.51574999999139,
      "v": 127
    },
    {
      "midi": 72,
      "hit": false,
      "t": 152322.27600000214,
      "d": 189.51574999999139,
      "v": 127
    },
    {
      "midi": 41,
      "hit": false,
      "t": 152515.82400000156,
      "d": 286.2897499999963,
      "v": 110
    },
    {
      "midi": 69,
      "hit": false,
      "t": 152515.82400000212,
      "d": 92.7417499999865,
      "v": 127
    },
    {
      "midi": 74,
      "hit": false,
      "t": 152612.5980000021,
      "d": 189.51574999999139,
      "v": 127
    },
    {
      "midi": 45,
      "hit": false,
      "t": 152806.14600000155,
      "d": 286.2897499999963,
      "v": 110
    },
    {
      "midi": 77,
      "hit": false,
      "t": 152806.14600000207,
      "d": 92.7417499999865,
      "v": 127
    },
    {
      "midi": 60,
      "hit": false,
      "t": 152902.92000000205,
      "d": 322.5799999999872,
      "v": 127
    },
    {
      "midi": 69,
      "hit": false,
      "t": 152902.92000000205,
      "d": 322.5799999999872,
      "v": 127
    },
    {
      "midi": 48,
      "hit": false,
      "t": 153096.46800000154,
      "d": 189.51574999999139,
      "v": 110
    },
    {
      "midi": 43,
      "hit": false,
      "t": 153290.01600000152,
      "d": 286.2897499999963,
      "v": 110
    },
    {
      "midi": 62,
      "hit": false,
      "t": 153290.01600000204,
      "d": 129.03200000000652,
      "v": 127
    },
    {
      "midi": 71,
      "hit": false,
      "t": 153290.01600000204,
      "d": 129.03200000000652,
      "v": 127
    },
    {
      "midi": 69,
      "hit": false,
      "t": 153419.04800000205,
      "d": 129.03200000000652,
      "v": 127
    },
    {
      "midi": 77,
      "hit": false,
      "t": 153419.04800000205,
      "d": 129.03200000000652,
      "v": 127
    },
    {
      "midi": 69,
      "hit": false,
      "t": 153548.08000000205,
      "d": 129.03200000000652,
      "v": 127
    },
    {
      "midi": 77,
      "hit": false,
      "t": 153548.08000000205,
      "d": 129.03200000000652,
      "v": 127
    },
    {
      "midi": 47,
      "hit": false,
      "t": 153580.3380000015,
      "d": 286.2897499999963,
      "v": 110
    },
    {
      "midi": 69,
      "hit": false,
      "t": 153677.11200000206,
      "d": 129.03200000000652,
      "v": 127
    },
    {
      "midi": 77,
      "hit": false,
      "t": 153677.11200000206,
      "d": 129.03200000000652,
      "v": 127
    },
    {
      "midi": 71,
      "hit": false,
      "t": 153806.14400000207,
      "d": 129.03200000000652,
      "v": 127
    },
    {
      "midi": 79,
      "hit": false,
      "t": 153806.14400000207,
      "d": 129.03200000000652,
      "v": 127
    },
    {
      "midi": 38,
      "hit": false,
      "t": 153870.6600000015,
      "d": 189.51574999999139,
      "v": 110
    },
    {
      "midi": 72,
      "hit": false,
      "t": 153935.17600000207,
      "d": 129.03200000000652,
      "v": 127
    },
    {
      "midi": 81,
      "hit": false,
      "t": 153935.17600000207,
      "d": 129.03200000000652,
      "v": 127
    },
    {
      "midi": 36,
      "hit": false,
      "t": 154064.20800000147,
      "d": 286.2897499999963,
      "v": 110
    },
    {
      "midi": 72,
      "hit": false,
      "t": 154064.20800000208,
      "d": 92.7417499999865,
      "v": 127
    },
    {
      "midi": 79,
      "hit": false,
      "t": 154064.20800000208,
      "d": 92.7417499999865,
      "v": 127
    },
    {
      "midi": 67,
      "hit": false,
      "t": 154160.98200000206,
      "d": 189.51574999999139,
      "v": 127
    },
    {
      "midi": 76,
      "hit": false,
      "t": 154160.98200000206,
      "d": 189.51574999999139,
      "v": 127
    },
    {
      "midi": 40,
      "hit": false,
      "t": 154354.53000000145,
      "d": 286.2897499999963,
      "v": 110
    },
    {
      "midi": 67,
      "hit": false,
      "t": 154354.53000000204,
      "d": 92.7417499999865,
      "v": 127
    },
    {
      "midi": 72,
      "hit": false,
      "t": 154354.53000000204,
      "d": 92.7417499999865,
      "v": 127
    },
    {
      "midi": 64,
      "hit": false,
      "t": 154451.304000002,
      "d": 322.5799999999872,
      "v": 127
    },
    {
      "midi": 67,
      "hit": false,
      "t": 154451.304000002,
      "d": 322.5799999999872,
      "v": 127
    },
    {
      "midi": 43,
      "hit": false,
      "t": 154644.85200000144,
      "d": 189.51574999999139,
      "v": 110
    },
    {
      "midi": 36,
      "hit": false,
      "t": 154838.40000000142,
      "d": 286.2897499999963,
      "v": 110
    },
    {
      "midi": 64,
      "hit": false,
      "t": 154838.400000002,
      "d": 92.7417499999865,
      "v": 127
    },
    {
      "midi": 72,
      "hit": false,
      "t": 154838.400000002,
      "d": 92.7417499999865,
      "v": 127
    },
    {
      "midi": 64,
      "hit": false,
      "t": 154935.17400000198,
      "d": 189.51574999999139,
      "v": 127
    },
    {
      "midi": 40,
      "hit": false,
      "t": 155128.7220000014,
      "d": 286.2897499999963,
      "v": 110
    },
    {
      "midi": 67,
      "hit": false,
      "t": 155128.72200000196,
      "d": 286.2897499999963,
      "v": 127
    },
    {
      "midi": 76,
      "hit": false,
      "t": 155128.72200000196,
      "d": 286.2897499999963,
      "v": 127
    },
    {
      "midi": 43,
      "hit": false,
      "t": 155419.0440000014,
      "d": 189.51574999999139,
      "v": 110
    },
    {
      "midi": 64,
      "hit": false,
      "t": 155419.04400000194,
      "d": 189.51574999999139,
      "v": 127
    },
    {
      "midi": 72,
      "hit": false,
      "t": 155419.04400000194,
      "d": 189.51574999999139,
      "v": 127
    },
    {
      "midi": 41,
      "hit": false,
      "t": 155612.59200000137,
      "d": 286.2897499999963,
      "v": 110
    },
    {
      "midi": 69,
      "hit": false,
      "t": 155612.59200000193,
      "d": 92.7417499999865,
      "v": 127
    },
    {
      "midi": 74,
      "hit": false,
      "t": 155709.3660000019,
      "d": 189.51574999999139,
      "v": 127
    },
    {
      "midi": 45,
      "hit": false,
      "t": 155902.91400000136,
      "d": 286.2897499999963,
      "v": 110
    },
    {
      "midi": 77,
      "hit": false,
      "t": 155902.91400000188,
      "d": 92.7417499999865,
      "v": 127
    },
    {
      "midi": 69,
      "hit": false,
      "t": 155999.68800000186,
      "d": 322.5799999999872,
      "v": 127
    },
    {
      "midi": 48,
      "hit": false,
      "t": 156193.23600000134,
      "d": 189.51574999999139,
      "v": 110
    },
    {
      "midi": 43,
      "hit": false,
      "t": 156386.78400000132,
      "d": 286.2897499999963,
      "v": 110
    },
    {
      "midi": 62,
      "hit": false,
      "t": 156386.78400000185,
      "d": 322.5799999999872,
      "v": 127
    },
    {
      "midi": 71,
      "hit": false,
      "t": 156386.78400000185,
      "d": 322.5799999999872,
      "v": 127
    },
    {
      "midi": 47,
      "hit": false,
      "t": 156677.1060000013,
      "d": 286.2897499999963,
      "v": 110
    },
    {
      "midi": 62,
      "hit": false,
      "t": 156773.88000000184,
      "d": 129.03200000000652,
      "v": 127
    },
    {
      "midi": 71,
      "hit": false,
      "t": 156773.88000000184,
      "d": 129.03200000000652,
      "v": 127
    },
    {
      "midi": 64,
      "hit": false,
      "t": 156902.91200000184,
      "d": 129.03200000000652,
      "v": 127
    },
    {
      "midi": 72,
      "hit": false,
      "t": 156902.91200000184,
      "d": 129.03200000000652,
      "v": 127
    },
    {
      "midi": 38,
      "hit": false,
      "t": 156967.4280000013,
      "d": 189.51574999999139,
      "v": 110
    },
    {
      "midi": 65,
      "hit": false,
      "t": 157031.94400000185,
      "d": 129.03200000000652,
      "v": 127
    },
    {
      "midi": 74,
      "hit": false,
      "t": 157031.94400000185,
      "d": 129.03200000000652,
      "v": 127
    },
    {
      "midi": 36,
      "hit": false,
      "t": 157160.97600000128,
      "d": 286.2897499999963,
      "v": 110
    },
    {
      "midi": 64,
      "hit": false,
      "t": 157160.97600000186,
      "d": 322.5799999999872,
      "v": 127
    },
    {
      "midi": 72,
      "hit": false,
      "t": 157160.97600000186,
      "d": 322.5799999999872,
      "v": 127
    },
    {
      "midi": 40,
      "hit": false,
      "t": 157451.29800000126,
      "d": 286.2897499999963,
      "v": 110
    },
    {
      "midi": 43,
      "hit": false,
      "t": 157741.62000000125,
      "d": 189.51574999999139,
      "v": 110
    },
    {
      "midi": 64,
      "hit": false,
      "t": 157923.07125000184,
      "d": 286.2897499999963,
      "v": 127
    },
    {
      "midi": 72,
      "hit": false,
      "t": 157923.07125000184,
      "d": 286.2897499999963,
      "v": 127
    },
    {
      "midi": 36,
      "hit": false,
      "t": 157935.16800000123,
      "d": 286.2897499999963,
      "v": 110
    },
    {
      "midi": 67,
      "hit": false,
      "t": 158213.39325000183,
      "d": 286.2897499999963,
      "v": 127
    },
    {
      "midi": 76,
      "hit": false,
      "t": 158213.39325000183,
      "d": 286.2897499999963,
      "v": 127
    },
    {
      "midi": 40,
      "hit": false,
      "t": 158225.4900000012,
      "d": 286.2897499999963,
      "v": 110
    },
    {
      "midi": 64,
      "hit": false,
      "t": 158503.7152500018,
      "d": 189.51574999999139,
      "v": 127
    },
    {
      "midi": 72,
      "hit": false,
      "t": 158503.7152500018,
      "d": 189.51574999999139,
      "v": 127
    },
    {
      "midi": 43,
      "hit": false,
      "t": 158515.8120000012,
      "d": 189.51574999999139,
      "v": 110
    },
    {
      "midi": 69,
      "hit": false,
      "t": 158697.2632500018,
      "d": 92.7417499999865,
      "v": 127
    },
    {
      "midi": 41,
      "hit": false,
      "t": 158709.36000000118,
      "d": 286.2897499999963,
      "v": 110
    },
    {
      "midi": 74,
      "hit": false,
      "t": 158794.03725000177,
      "d": 189.51574999999139,
      "v": 127
    },
    {
      "midi": 77,
      "hit": false,
      "t": 158987.58525000175,
      "d": 92.7417499999865,
      "v": 127
    },
    {
      "midi": 45,
      "hit": false,
      "t": 158999.68200000116,
      "d": 286.2897499999963,
      "v": 110
    },
    {
      "midi": 60,
      "hit": false,
      "t": 159084.35925000173,
      "d": 322.5799999999872,
      "v": 127
    },
    {
      "midi": 69,
      "hit": false,
      "t": 159084.35925000173,
      "d": 322.5799999999872,
      "v": 127
    },
    {
      "midi": 48,
      "hit": false,
      "t": 159290.00400000115,
      "d": 189.51574999999139,
      "v": 110
    },
    {
      "midi": 62,
      "hit": false,
      "t": 159471.45525000172,
      "d": 129.03200000000652,
      "v": 127
    },
    {
      "midi": 71,
      "hit": false,
      "t": 159471.45525000172,
      "d": 129.03200000000652,
      "v": 127
    },
    {
      "midi": 43,
      "hit": false,
      "t": 159483.55200000113,
      "d": 286.2897499999963,
      "v": 110
    },
    {
      "midi": 69,
      "hit": false,
      "t": 159600.48725000172,
      "d": 129.03200000000652,
      "v": 127
    },
    {
      "midi": 77,
      "hit": false,
      "t": 159600.48725000172,
      "d": 129.03200000000652,
      "v": 127
    },
    {
      "midi": 69,
      "hit": false,
      "t": 159729.51925000173,
      "d": 129.03200000000652,
      "v": 127
    },
    {
      "midi": 77,
      "hit": false,
      "t": 159729.51925000173,
      "d": 129.03200000000652,
      "v": 127
    },
    {
      "midi": 47,
      "hit": false,
      "t": 159773.87400000112,
      "d": 286.2897499999963,
      "v": 110
    },
    {
      "midi": 69,
      "hit": false,
      "t": 159858.55125000174,
      "d": 129.03200000000652,
      "v": 127
    },
    {
      "midi": 77,
      "hit": false,
      "t": 159858.55125000174,
      "d": 129.03200000000652,
      "v": 127
    },
    {
      "midi": 71,
      "hit": false,
      "t": 159987.58325000174,
      "d": 129.03200000000652,
      "v": 127
    },
    {
      "midi": 79,
      "hit": false,
      "t": 159987.58325000174,
      "d": 129.03200000000652,
      "v": 127
    },
    {
      "midi": 38,
      "hit": false,
      "t": 160064.1960000011,
      "d": 189.51574999999139,
      "v": 110
    },
    {
      "midi": 72,
      "hit": false,
      "t": 160116.61525000175,
      "d": 129.03200000000652,
      "v": 127
    },
    {
      "midi": 81,
      "hit": false,
      "t": 160116.61525000175,
      "d": 129.03200000000652,
      "v": 127
    },
    {
      "midi": 72,
      "hit": false,
      "t": 160245.64725000176,
      "d": 92.7417499999865,
      "v": 127
    },
    {
      "midi": 79,
      "hit": false,
      "t": 160245.64725000176,
      "d": 92.7417499999865,
      "v": 127
    },
    {
      "midi": 36,
      "hit": false,
      "t": 160257.74400000108,
      "d": 286.2897499999963,
      "v": 110
    },
    {
      "midi": 67,
      "hit": false,
      "t": 160342.42125000173,
      "d": 189.51574999999139,
      "v": 127
    },
    {
      "midi": 76,
      "hit": false,
      "t": 160342.42125000173,
      "d": 189.51574999999139,
      "v": 127
    },
    {
      "midi": 67,
      "hit": false,
      "t": 160535.9692500017,
      "d": 92.7417499999865,
      "v": 127
    },
    {
      "midi": 72,
      "hit": false,
      "t": 160535.9692500017,
      "d": 92.7417499999865,
      "v": 127
    },
    {
      "midi": 40,
      "hit": false,
      "t": 160548.06600000107,
      "d": 286.2897499999963,
      "v": 110
    },
    {
      "midi": 64,
      "hit": false,
      "t": 160632.7432500017,
      "d": 322.5799999999872,
      "v": 127
    },
    {
      "midi": 67,
      "hit": false,
      "t": 160632.7432500017,
      "d": 322.5799999999872,
      "v": 127
    },
    {
      "midi": 43,
      "hit": false,
      "t": 160838.38800000105,
      "d": 189.51574999999139,
      "v": 110
    },
    {
      "midi": 64,
      "hit": false,
      "t": 161019.83925000168,
      "d": 92.7417499999865,
      "v": 127
    },
    {
      "midi": 72,
      "hit": false,
      "t": 161019.83925000168,
      "d": 92.7417499999865,
      "v": 127
    },
    {
      "midi": 36,
      "hit": false,
      "t": 161031.93600000103,
      "d": 286.2897499999963,
      "v": 110
    },
    {
      "midi": 64,
      "hit": false,
      "t": 161116.61325000165,
      "d": 189.51574999999139,
      "v": 127
    },
    {
      "midi": 67,
      "hit": false,
      "t": 161310.16125000163,
      "d": 286.2897499999963,
      "v": 127
    },
    {
      "midi": 76,
      "hit": false,
      "t": 161310.16125000163,
      "d": 286.2897499999963,
      "v": 127
    },
    {
      "midi": 40,
      "hit": false,
      "t": 161322.25800000102,
      "d": 286.2897499999963,
      "v": 110
    },
    {
      "midi": 64,
      "hit": false,
      "t": 161600.48325000162,
      "d": 189.51574999999139,
      "v": 127
    },
    {
      "midi": 72,
      "hit": false,
      "t": 161600.48325000162,
      "d": 189.51574999999139,
      "v": 127
    },
    {
      "midi": 43,
      "hit": false,
      "t": 161612.580000001,
      "d": 189.51574999999139,
      "v": 110
    },
    {
      "midi": 69,
      "hit": false,
      "t": 161794.0312500016,
      "d": 92.7417499999865,
      "v": 127
    },
    {
      "midi": 41,
      "hit": false,
      "t": 161806.128000001,
      "d": 286.2897499999963,
      "v": 110
    },
    {
      "midi": 74,
      "hit": false,
      "t": 161890.80525000158,
      "d": 189.51574999999139,
      "v": 127
    },
    {
      "midi": 77,
      "hit": false,
      "t": 162084.35325000156,
      "d": 92.7417499999865,
      "v": 127
    },
    {
      "midi": 45,
      "hit": false,
      "t": 162096.45000000097,
      "d": 286.2897499999963,
      "v": 110
    },
    {
      "midi": 69,
      "hit": false,
      "t": 162181.12725000153,
      "d": 322.5799999999872,
      "v": 127
    },
    {
      "midi": 48,
      "hit": false,
      "t": 162386.77200000096,
      "d": 189.51574999999139,
      "v": 110
    },
    {
      "midi": 62,
      "hit": false,
      "t": 162568.22325000152,
      "d": 322.5799999999872,
      "v": 127
    },
    {
      "midi": 71,
      "hit": false,
      "t": 162568.22325000152,
      "d": 322.5799999999872,
      "v": 127
    },
    {
      "midi": 43,
      "hit": false,
      "t": 162580.32000000094,
      "d": 286.2897499999963,
      "v": 110
    },
    {
      "midi": 47,
      "hit": false,
      "t": 162870.64200000092,
      "d": 286.2897499999963,
      "v": 110
    },
    {
      "midi": 62,
      "hit": false,
      "t": 162955.3192500015,
      "d": 129.03200000000652,
      "v": 127
    },
    {
      "midi": 71,
      "hit": false,
      "t": 162955.3192500015,
      "d": 129.03200000000652,
      "v": 127
    },
    {
      "midi": 64,
      "hit": false,
      "t": 163084.35125000152,
      "d": 129.03200000000652,
      "v": 127
    },
    {
      "midi": 72,
      "hit": false,
      "t": 163084.35125000152,
      "d": 129.03200000000652,
      "v": 127
    },
    {
      "midi": 38,
      "hit": false,
      "t": 163160.9640000009,
      "d": 189.51574999999139,
      "v": 110
    },
    {
      "midi": 65,
      "hit": false,
      "t": 163213.38325000153,
      "d": 129.03200000000652,
      "v": 127
    },
    {
      "midi": 74,
      "hit": false,
      "t": 163213.38325000153,
      "d": 129.03200000000652,
      "v": 127
    },
    {
      "midi": 64,
      "hit": false,
      "t": 163342.41525000153,
      "d": 322.5799999999872,
      "v": 127
    },
    {
      "midi": 72,
      "hit": false,
      "t": 163342.41525000153,
      "d": 322.5799999999872,
      "v": 127
    },
    {
      "midi": 36,
      "hit": false,
      "t": 163354.5120000009,
      "d": 286.2897499999963,
      "v": 110
    },
    {
      "midi": 40,
      "hit": false,
      "t": 163644.83400000088,
      "d": 286.2897499999963,
      "v": 110
    },
    {
      "midi": 43,
      "hit": false,
      "t": 163935.15600000086,
      "d": 189.51574999999139,
      "v": 110
    },
    {
      "midi": 69,
      "hit": false,
      "t": 164116.6072500015,
      "d": 0,
      "v": 127
    },
    {
      "midi": 77,
      "hit": false,
      "t": 164116.6072500015,
      "d": 0,
      "v": 127
    },
    {
      "midi": 41,
      "hit": false,
      "t": 164128.70400000084,
      "d": 286.2897499999963,
      "v": 110
    },
    {
      "midi": 69,
      "hit": false,
      "t": 164128.7040000015,
      "d": 129.03200000000652,
      "v": 127
    },
    {
      "midi": 77,
      "hit": false,
      "t": 164128.7040000015,
      "d": 129.03200000000652,
      "v": 127
    },
    {
      "midi": 69,
      "hit": false,
      "t": 164257.73600000152,
      "d": 129.03200000000652,
      "v": 127
    },
    {
      "midi": 77,
      "hit": false,
      "t": 164257.73600000152,
      "d": 129.03200000000652,
      "v": 127
    },
    {
      "midi": 69,
      "hit": false,
      "t": 164386.76800000152,
      "d": 129.03200000000652,
      "v": 127
    },
    {
      "midi": 77,
      "hit": false,
      "t": 164386.76800000152,
      "d": 129.03200000000652,
      "v": 127
    },
    {
      "midi": 45,
      "hit": false,
      "t": 164419.02600000083,
      "d": 286.2897499999963,
      "v": 110
    },
    {
      "midi": 69,
      "hit": false,
      "t": 164531.92900000152,
      "d": 129.03200000000652,
      "v": 127
    },
    {
      "midi": 77,
      "hit": false,
      "t": 164531.92900000152,
      "d": 129.03200000000652,
      "v": 127
    },
    {
      "midi": 76,
      "hit": false,
      "t": 164660.96100000152,
      "d": 129.03200000000652,
      "v": 127
    },
    {
      "midi": 67,
      "hit": false,
      "t": 164660.96100000152,
      "d": 129.03200000000652,
      "v": 127
    },
    {
      "midi": 48,
      "hit": false,
      "t": 164709.3480000008,
      "d": 189.51574999999139,
      "v": 110
    },
    {
      "midi": 65,
      "hit": false,
      "t": 164789.99300000153,
      "d": 129.03200000000652,
      "v": 127
    },
    {
      "midi": 74,
      "hit": false,
      "t": 164789.99300000153,
      "d": 129.03200000000652,
      "v": 127
    },
    {
      "midi": 36,
      "hit": false,
      "t": 164902.8960000008,
      "d": 286.2897499999963,
      "v": 110
    },
    {
      "midi": 67,
      "hit": false,
      "t": 164919.02500000154,
      "d": 286.2897499999963,
      "v": 127
    },
    {
      "midi": 76,
      "hit": false,
      "t": 164919.02500000154,
      "d": 286.2897499999963,
      "v": 127
    },
    {
      "midi": 40,
      "hit": false,
      "t": 165193.21800000078,
      "d": 286.2897499999963,
      "v": 110
    },
    {
      "midi": 64,
      "hit": false,
      "t": 165209.34700000152,
      "d": 419.3539999999921,
      "v": 127
    },
    {
      "midi": 72,
      "hit": false,
      "t": 165209.34700000152,
      "d": 419.3539999999921,
      "v": 127
    },
    {
      "midi": 43,
      "hit": false,
      "t": 165483.54000000076,
      "d": 189.51574999999139,
      "v": 110
    },
    {
      "midi": 47,
      "hit": false,
      "t": 165677.08800000075,
      "d": 286.2897499999963,
      "v": 110
    },
    {
      "midi": 62,
      "hit": false,
      "t": 165693.21700000152,
      "d": 286.2897499999963,
      "v": 127
    },
    {
      "midi": 71,
      "hit": false,
      "t": 165693.21700000152,
      "d": 286.2897499999963,
      "v": 127
    },
    {
      "midi": 38,
      "hit": false,
      "t": 165967.41000000073,
      "d": 286.2897499999963,
      "v": 110
    },
    {
      "midi": 62,
      "hit": false,
      "t": 165983.5390000015,
      "d": 92.7417499999865,
      "v": 127
    },
    {
      "midi": 71,
      "hit": false,
      "t": 165983.5390000015,
      "d": 92.7417499999865,
      "v": 127
    },
    {
      "midi": 62,
      "hit": false,
      "t": 166080.31300000148,
      "d": 92.7417499999865,
      "v": 127
    },
    {
      "midi": 71,
      "hit": false,
      "t": 166080.31300000148,
      "d": 92.7417499999865,
      "v": 127
    },
    {
      "midi": 64,
      "hit": false,
      "t": 166177.08700000145,
      "d": 189.51574999999139,
      "v": 127
    },
    {
      "midi": 72,
      "hit": false,
      "t": 166177.08700000145,
      "d": 189.51574999999139,
      "v": 127
    },
    {
      "midi": 36,
      "hit": false,
      "t": 166257.73200000072,
      "d": 189.51574999999139,
      "v": 110
    },
    {
      "midi": 65,
      "hit": false,
      "t": 166370.63500000144,
      "d": 92.7417499999865,
      "v": 127
    },
    {
      "midi": 74,
      "hit": false,
      "t": 166370.63500000144,
      "d": 92.7417499999865,
      "v": 127
    },
    {
      "midi": 40,
      "hit": false,
      "t": 166451.2800000007,
      "d": 286.2897499999963,
      "v": 110
    },
    {
      "midi": 67,
      "hit": false,
      "t": 166467.4090000014,
      "d": 322.5799999999872,
      "v": 127
    },
    {
      "midi": 76,
      "hit": false,
      "t": 166467.4090000014,
      "d": 322.5799999999872,
      "v": 127
    },
    {
      "midi": 43,
      "hit": false,
      "t": 166741.60200000068,
      "d": 286.2897499999963,
      "v": 110
    },
    {
      "midi": 41,
      "hit": false,
      "t": 167031.92400000067,
      "d": 189.51574999999139,
      "v": 110
    },
    {
      "midi": 41,
      "hit": false,
      "t": 167225.47200000065,
      "d": 286.2897499999963,
      "v": 110
    },
    {
      "midi": 69,
      "hit": false,
      "t": 167225.4720000014,
      "d": 290.32199999998556,
      "v": 127
    },
    {
      "midi": 77,
      "hit": false,
      "t": 167225.4720000014,
      "d": 290.32199999998556,
      "v": 127
    },
    {
      "midi": 45,
      "hit": false,
      "t": 167515.79400000063,
      "d": 286.2897499999963,
      "v": 110
    },
    {
      "midi": 69,
      "hit": false,
      "t": 167515.7940000014,
      "d": 129.03200000000652,
      "v": 127
    },
    {
      "midi": 77,
      "hit": false,
      "t": 167515.7940000014,
      "d": 129.03200000000652,
      "v": 127
    },
    {
      "midi": 69,
      "hit": false,
      "t": 167644.8260000014,
      "d": 129.03200000000652,
      "v": 127
    },
    {
      "midi": 77,
      "hit": false,
      "t": 167644.8260000014,
      "d": 129.03200000000652,
      "v": 127
    },
    {
      "midi": 71,
      "hit": false,
      "t": 167773.8580000014,
      "d": 129.03200000000652,
      "v": 127
    },
    {
      "midi": 79,
      "hit": false,
      "t": 167773.8580000014,
      "d": 129.03200000000652,
      "v": 127
    },
    {
      "midi": 48,
      "hit": false,
      "t": 167806.11600000062,
      "d": 189.51574999999139,
      "v": 110
    },
    {
      "midi": 72,
      "hit": false,
      "t": 167902.8900000014,
      "d": 64.51600000000326,
      "v": 127
    },
    {
      "midi": 81,
      "hit": false,
      "t": 167902.8900000014,
      "d": 129.03200000000652,
      "v": 127
    },
    {
      "midi": 40,
      "hit": false,
      "t": 167999.6640000006,
      "d": 286.2897499999963,
      "v": 110
    },
    {
      "midi": 71,
      "hit": false,
      "t": 168031.92200000142,
      "d": 290.32199999998556,
      "v": 127
    },
    {
      "midi": 79,
      "hit": false,
      "t": 168031.92200000142,
      "d": 290.32199999998556,
      "v": 127
    },
    {
      "midi": 43,
      "hit": false,
      "t": 168289.9860000006,
      "d": 286.2897499999963,
      "v": 110
    },
    {
      "midi": 67,
      "hit": false,
      "t": 168322.2440000014,
      "d": 387.09599999999045,
      "v": 127
    },
    {
      "midi": 76,
      "hit": false,
      "t": 168322.2440000014,
      "d": 387.09599999999045,
      "v": 127
    },
    {
      "midi": 47,
      "hit": false,
      "t": 168580.30800000057,
      "d": 189.51574999999139,
      "v": 110
    },
    {
      "midi": 41,
      "hit": false,
      "t": 168773.85600000055,
      "d": 286.2897499999963,
      "v": 110
    },
    {
      "midi": 69,
      "hit": false,
      "t": 168773.8560000014,
      "d": 286.2897499999963,
      "v": 127
    },
    {
      "midi": 77,
      "hit": false,
      "t": 168773.8560000014,
      "d": 286.2897499999963,
      "v": 127
    },
    {
      "midi": 45,
      "hit": false,
      "t": 169064.17800000054,
      "d": 286.2897499999963,
      "v": 110
    },
    {
      "midi": 67,
      "hit": false,
      "t": 169064.17800000138,
      "d": 286.2897499999963,
      "v": 127
    },
    {
      "midi": 76,
      "hit": false,
      "t": 169064.17800000138,
      "d": 286.2897499999963,
      "v": 127
    },
    {
      "midi": 48,
      "hit": false,
      "t": 169354.50000000052,
      "d": 189.51574999999139,
      "v": 110
    },
    {
      "midi": 65,
      "hit": false,
      "t": 169354.50000000137,
      "d": 189.51574999999139,
      "v": 127
    },
    {
      "midi": 74,
      "hit": false,
      "t": 169354.50000000137,
      "d": 189.51574999999139,
      "v": 127
    },
    {
      "midi": 43,
      "hit": false,
      "t": 169741.5960000005,
      "d": 189.51574999999139,
      "v": 110
    },
    {
      "midi": 65,
      "hit": false,
      "t": 169741.59600000136,
      "d": 189.51574999999139,
      "v": 127
    },
    {
      "midi": 69,
      "hit": false,
      "t": 169741.59600000136,
      "d": 189.51574999999139,
      "v": 127
    },
    {
      "midi": 43,
      "hit": false,
      "t": 169935.1440000005,
      "d": 322.5799999999872,
      "v": 110
    },
    {
      "midi": 67,
      "hit": false,
      "t": 169935.14400000134,
      "d": 322.5799999999872,
      "v": 127
    },
    {
      "midi": 71,
      "hit": false,
      "t": 169935.14400000134,
      "d": 322.5799999999872,
      "v": 127
    },
    {
      "midi": 36,
      "hit": false,
      "t": 170322.2400000005,
      "d": 286.2897499999963,
      "v": 110
    },
    {
      "midi": 64,
      "hit": false,
      "t": 170322.24000000133,
      "d": 286.2897499999963,
      "v": 127
    },
    {
      "midi": 72,
      "hit": false,
      "t": 170322.24000000133,
      "d": 286.2897499999963,
      "v": 127
    },
    {
      "midi": 40,
      "hit": false,
      "t": 170612.56200000047,
      "d": 286.2897499999963,
      "v": 110
    },
    {
      "midi": 67,
      "hit": false,
      "t": 170612.56200000132,
      "d": 286.2897499999963,
      "v": 127
    },
    {
      "midi": 76,
      "hit": false,
      "t": 170612.56200000132,
      "d": 286.2897499999963,
      "v": 127
    },
    {
      "midi": 43,
      "hit": false,
      "t": 170902.88400000046,
      "d": 189.51574999999139,
      "v": 110
    },
    {
      "midi": 64,
      "hit": false,
      "t": 170902.8840000013,
      "d": 189.51574999999139,
      "v": 127
    },
    {
      "midi": 72,
      "hit": false,
      "t": 170902.8840000013,
      "d": 189.51574999999139,
      "v": 127
    },
    {
      "midi": 41,
      "hit": false,
      "t": 171096.43200000044,
      "d": 286.2897499999963,
      "v": 110
    },
    {
      "midi": 69,
      "hit": false,
      "t": 171096.43200000128,
      "d": 92.7417499999865,
      "v": 127
    },
    {
      "midi": 74,
      "hit": false,
      "t": 171193.20600000126,
      "d": 189.51574999999139,
      "v": 127
    },
    {
      "midi": 45,
      "hit": false,
      "t": 171386.75400000042,
      "d": 286.2897499999963,
      "v": 110
    },
    {
      "midi": 77,
      "hit": false,
      "t": 171386.75400000124,
      "d": 92.7417499999865,
      "v": 127
    },
    {
      "midi": 60,
      "hit": false,
      "t": 171483.5280000012,
      "d": 322.5799999999872,
      "v": 127
    },
    {
      "midi": 69,
      "hit": false,
      "t": 171483.5280000012,
      "d": 322.5799999999872,
      "v": 127
    },
    {
      "midi": 48,
      "hit": false,
      "t": 171677.0760000004,
      "d": 189.51574999999139,
      "v": 110
    },
    {
      "midi": 43,
      "hit": false,
      "t": 171870.6240000004,
      "d": 286.2897499999963,
      "v": 110
    },
    {
      "midi": 62,
      "hit": false,
      "t": 171870.6240000012,
      "d": 129.03200000000652,
      "v": 127
    },
    {
      "midi": 71,
      "hit": false,
      "t": 171870.6240000012,
      "d": 129.03200000000652,
      "v": 127
    },
    {
      "midi": 69,
      "hit": false,
      "t": 171999.6560000012,
      "d": 129.03200000000652,
      "v": 127
    },
    {
      "midi": 77,
      "hit": false,
      "t": 171999.6560000012,
      "d": 129.03200000000652,
      "v": 127
    },
    {
      "midi": 69,
      "hit": false,
      "t": 172128.68800000122,
      "d": 129.03200000000652,
      "v": 127
    },
    {
      "midi": 77,
      "hit": false,
      "t": 172128.68800000122,
      "d": 129.03200000000652,
      "v": 127
    },
    {
      "midi": 47,
      "hit": false,
      "t": 172160.94600000037,
      "d": 286.2897499999963,
      "v": 110
    },
    {
      "midi": 69,
      "hit": false,
      "t": 172257.72000000122,
      "d": 129.03200000000652,
      "v": 127
    },
    {
      "midi": 77,
      "hit": false,
      "t": 172257.72000000122,
      "d": 129.03200000000652,
      "v": 127
    },
    {
      "midi": 71,
      "hit": false,
      "t": 172386.75200000123,
      "d": 129.03200000000652,
      "v": 127
    },
    {
      "midi": 79,
      "hit": false,
      "t": 172386.75200000123,
      "d": 129.03200000000652,
      "v": 127
    },
    {
      "midi": 38,
      "hit": false,
      "t": 172451.26800000036,
      "d": 189.51574999999139,
      "v": 110
    },
    {
      "midi": 72,
      "hit": false,
      "t": 172515.78400000124,
      "d": 129.03200000000652,
      "v": 127
    },
    {
      "midi": 81,
      "hit": false,
      "t": 172515.78400000124,
      "d": 129.03200000000652,
      "v": 127
    },
    {
      "midi": 36,
      "hit": false,
      "t": 172644.81600000034,
      "d": 286.2897499999963,
      "v": 110
    },
    {
      "midi": 72,
      "hit": false,
      "t": 172644.81600000124,
      "d": 92.7417499999865,
      "v": 127
    },
    {
      "midi": 79,
      "hit": false,
      "t": 172644.81600000124,
      "d": 92.7417499999865,
      "v": 127
    },
    {
      "midi": 67,
      "hit": false,
      "t": 172741.59000000122,
      "d": 189.51574999999139,
      "v": 127
    },
    {
      "midi": 76,
      "hit": false,
      "t": 172741.59000000122,
      "d": 189.51574999999139,
      "v": 127
    },
    {
      "midi": 40,
      "hit": false,
      "t": 172935.13800000033,
      "d": 286.2897499999963,
      "v": 110
    },
    {
      "midi": 67,
      "hit": false,
      "t": 172935.1380000012,
      "d": 92.7417499999865,
      "v": 127
    },
    {
      "midi": 72,
      "hit": false,
      "t": 172935.1380000012,
      "d": 92.7417499999865,
      "v": 127
    },
    {
      "midi": 64,
      "hit": false,
      "t": 173031.91200000118,
      "d": 322.5799999999872,
      "v": 127
    },
    {
      "midi": 67,
      "hit": false,
      "t": 173031.91200000118,
      "d": 322.5799999999872,
      "v": 127
    },
    {
      "midi": 43,
      "hit": false,
      "t": 173225.4600000003,
      "d": 189.51574999999139,
      "v": 110
    },
    {
      "midi": 36,
      "hit": false,
      "t": 173419.0080000003,
      "d": 286.2897499999963,
      "v": 110
    },
    {
      "midi": 64,
      "hit": false,
      "t": 173419.00800000117,
      "d": 92.7417499999865,
      "v": 127
    },
    {
      "midi": 72,
      "hit": false,
      "t": 173419.00800000117,
      "d": 92.7417499999865,
      "v": 127
    },
    {
      "midi": 64,
      "hit": false,
      "t": 173515.78200000114,
      "d": 189.51574999999139,
      "v": 127
    },
    {
      "midi": 40,
      "hit": false,
      "t": 173709.33000000028,
      "d": 286.2897499999963,
      "v": 110
    },
    {
      "midi": 67,
      "hit": false,
      "t": 173709.33000000112,
      "d": 286.2897499999963,
      "v": 127
    },
    {
      "midi": 76,
      "hit": false,
      "t": 173709.33000000112,
      "d": 286.2897499999963,
      "v": 127
    },
    {
      "midi": 43,
      "hit": false,
      "t": 173999.65200000026,
      "d": 189.51574999999139,
      "v": 110
    },
    {
      "midi": 64,
      "hit": false,
      "t": 173999.6520000011,
      "d": 189.51574999999139,
      "v": 127
    },
    {
      "midi": 72,
      "hit": false,
      "t": 173999.6520000011,
      "d": 189.51574999999139,
      "v": 127
    },
    {
      "midi": 41,
      "hit": false,
      "t": 174193.20000000024,
      "d": 286.2897499999963,
      "v": 110
    },
    {
      "midi": 69,
      "hit": false,
      "t": 174193.2000000011,
      "d": 92.7417499999865,
      "v": 127
    },
    {
      "midi": 74,
      "hit": false,
      "t": 174289.97400000106,
      "d": 189.51574999999139,
      "v": 127
    },
    {
      "midi": 45,
      "hit": false,
      "t": 174483.52200000023,
      "d": 286.2897499999963,
      "v": 110
    },
    {
      "midi": 77,
      "hit": false,
      "t": 174483.52200000104,
      "d": 92.7417499999865,
      "v": 127
    },
    {
      "midi": 69,
      "hit": false,
      "t": 174580.29600000102,
      "d": 322.5799999999872,
      "v": 127
    },
    {
      "midi": 48,
      "hit": false,
      "t": 174773.84400000022,
      "d": 189.51574999999139,
      "v": 110
    },
    {
      "midi": 43,
      "hit": false,
      "t": 174967.3920000002,
      "d": 286.2897499999963,
      "v": 110
    },
    {
      "midi": 62,
      "hit": false,
      "t": 174967.392000001,
      "d": 322.5799999999872,
      "v": 127
    },
    {
      "midi": 71,
      "hit": false,
      "t": 174967.392000001,
      "d": 322.5799999999872,
      "v": 127
    },
    {
      "midi": 47,
      "hit": false,
      "t": 175257.71400000018,
      "d": 286.2897499999963,
      "v": 110
    },
    {
      "midi": 62,
      "hit": false,
      "t": 175354.488000001,
      "d": 129.03200000000652,
      "v": 127
    },
    {
      "midi": 71,
      "hit": false,
      "t": 175354.488000001,
      "d": 129.03200000000652,
      "v": 127
    },
    {
      "midi": 64,
      "hit": false,
      "t": 175483.520000001,
      "d": 129.03200000000652,
      "v": 127
    },
    {
      "midi": 72,
      "hit": false,
      "t": 175483.520000001,
      "d": 129.03200000000652,
      "v": 127
    },
    {
      "midi": 38,
      "hit": false,
      "t": 175548.03600000017,
      "d": 189.51574999999139,
      "v": 110
    },
    {
      "midi": 65,
      "hit": false,
      "t": 175612.55200000101,
      "d": 129.03200000000652,
      "v": 127
    },
    {
      "midi": 74,
      "hit": false,
      "t": 175612.55200000101,
      "d": 129.03200000000652,
      "v": 127
    },
    {
      "midi": 36,
      "hit": false,
      "t": 175741.58400000015,
      "d": 286.2897499999963,
      "v": 110
    },
    {
      "midi": 64,
      "hit": false,
      "t": 175741.58400000102,
      "d": 322.5799999999872,
      "v": 127
    },
    {
      "midi": 72,
      "hit": false,
      "t": 175741.58400000102,
      "d": 322.5799999999872,
      "v": 127
    },
    {
      "midi": 40,
      "hit": false,
      "t": 176031.90600000013,
      "d": 286.2897499999963,
      "v": 110
    },
    {
      "midi": 43,
      "hit": false,
      "t": 176322.22800000012,
      "d": 189.51574999999139,
      "v": 110
    },
    {
      "midi": 64,
      "hit": false,
      "t": 176503.679250001,
      "d": 286.2897499999963,
      "v": 127
    },
    {
      "midi": 72,
      "hit": false,
      "t": 176503.679250001,
      "d": 286.2897499999963,
      "v": 127
    },
    {
      "midi": 36,
      "hit": false,
      "t": 176515.7760000001,
      "d": 286.2897499999963,
      "v": 110
    },
    {
      "midi": 67,
      "hit": false,
      "t": 176794.001250001,
      "d": 286.2897499999963,
      "v": 127
    },
    {
      "midi": 76,
      "hit": false,
      "t": 176794.001250001,
      "d": 286.2897499999963,
      "v": 127
    },
    {
      "midi": 40,
      "hit": false,
      "t": 176806.0980000001,
      "d": 286.2897499999963,
      "v": 110
    },
    {
      "midi": 64,
      "hit": false,
      "t": 177084.32325000098,
      "d": 189.51574999999139,
      "v": 127
    },
    {
      "midi": 72,
      "hit": false,
      "t": 177084.32325000098,
      "d": 189.51574999999139,
      "v": 127
    },
    {
      "midi": 43,
      "hit": false,
      "t": 177096.42000000007,
      "d": 189.51574999999139,
      "v": 110
    },
    {
      "midi": 69,
      "hit": false,
      "t": 177277.87125000096,
      "d": 92.7417499999865,
      "v": 127
    },
    {
      "midi": 41,
      "hit": false,
      "t": 177289.96800000005,
      "d": 286.2897499999963,
      "v": 110
    },
    {
      "midi": 74,
      "hit": false,
      "t": 177374.64525000093,
      "d": 189.51574999999139,
      "v": 127
    },
    {
      "midi": 77,
      "hit": false,
      "t": 177568.1932500009,
      "d": 92.7417499999865,
      "v": 127
    },
    {
      "midi": 45,
      "hit": false,
      "t": 177580.29000000004,
      "d": 286.2897499999963,
      "v": 110
    },
    {
      "midi": 60,
      "hit": false,
      "t": 177664.9672500009,
      "d": 322.5799999999872,
      "v": 127
    },
    {
      "midi": 69,
      "hit": false,
      "t": 177664.9672500009,
      "d": 322.5799999999872,
      "v": 127
    },
    {
      "midi": 48,
      "hit": false,
      "t": 177870.61200000002,
      "d": 189.51574999999139,
      "v": 110
    },
    {
      "midi": 62,
      "hit": false,
      "t": 178052.06325000088,
      "d": 129.03200000000652,
      "v": 127
    },
    {
      "midi": 71,
      "hit": false,
      "t": 178052.06325000088,
      "d": 129.03200000000652,
      "v": 127
    },
    {
      "midi": 43,
      "hit": false,
      "t": 178064.16,
      "d": 286.2897499999963,
      "v": 110
    },
    {
      "midi": 69,
      "hit": false,
      "t": 178181.0952500009,
      "d": 129.03200000000652,
      "v": 127
    },
    {
      "midi": 77,
      "hit": false,
      "t": 178181.0952500009,
      "d": 129.03200000000652,
      "v": 127
    },
    {
      "midi": 69,
      "hit": false,
      "t": 178310.1272500009,
      "d": 129.03200000000652,
      "v": 127
    },
    {
      "midi": 77,
      "hit": false,
      "t": 178310.1272500009,
      "d": 129.03200000000652,
      "v": 127
    },
    {
      "midi": 47,
      "hit": false,
      "t": 178354.482,
      "d": 286.2897499999963,
      "v": 110
    },
    {
      "midi": 69,
      "hit": false,
      "t": 178439.1592500009,
      "d": 129.03200000000652,
      "v": 127
    },
    {
      "midi": 77,
      "hit": false,
      "t": 178439.1592500009,
      "d": 129.03200000000652,
      "v": 127
    },
    {
      "midi": 71,
      "hit": false,
      "t": 178568.1912500009,
      "d": 129.03200000000652,
      "v": 127
    },
    {
      "midi": 79,
      "hit": false,
      "t": 178568.1912500009,
      "d": 129.03200000000652,
      "v": 127
    },
    {
      "midi": 38,
      "hit": false,
      "t": 178644.80399999997,
      "d": 189.51574999999139,
      "v": 110
    },
    {
      "midi": 72,
      "hit": false,
      "t": 178697.2232500009,
      "d": 129.03200000000652,
      "v": 127
    },
    {
      "midi": 81,
      "hit": false,
      "t": 178697.2232500009,
      "d": 129.03200000000652,
      "v": 127
    },
    {
      "midi": 72,
      "hit": false,
      "t": 178826.25525000092,
      "d": 92.7417499999865,
      "v": 127
    },
    {
      "midi": 79,
      "hit": false,
      "t": 178826.25525000092,
      "d": 92.7417499999865,
      "v": 127
    },
    {
      "midi": 36,
      "hit": false,
      "t": 178838.35199999996,
      "d": 286.2897499999963,
      "v": 110
    },
    {
      "midi": 67,
      "hit": false,
      "t": 178923.0292500009,
      "d": 189.51574999999139,
      "v": 127
    },
    {
      "midi": 76,
      "hit": false,
      "t": 178923.0292500009,
      "d": 189.51574999999139,
      "v": 127
    },
    {
      "midi": 67,
      "hit": false,
      "t": 179116.57725000088,
      "d": 92.7417499999865,
      "v": 127
    },
    {
      "midi": 72,
      "hit": false,
      "t": 179116.57725000088,
      "d": 92.7417499999865,
      "v": 127
    },
    {
      "midi": 40,
      "hit": false,
      "t": 179128.67399999994,
      "d": 286.2897499999963,
      "v": 110
    },
    {
      "midi": 64,
      "hit": false,
      "t": 179213.35125000085,
      "d": 322.5799999999872,
      "v": 127
    },
    {
      "midi": 67,
      "hit": false,
      "t": 179213.35125000085,
      "d": 322.5799999999872,
      "v": 127
    },
    {
      "midi": 43,
      "hit": false,
      "t": 179418.99599999993,
      "d": 189.51574999999139,
      "v": 110
    },
    {
      "midi": 64,
      "hit": false,
      "t": 179600.44725000084,
      "d": 92.7417499999865,
      "v": 127
    },
    {
      "midi": 72,
      "hit": false,
      "t": 179600.44725000084,
      "d": 92.7417499999865,
      "v": 127
    },
    {
      "midi": 36,
      "hit": false,
      "t": 179612.5439999999,
      "d": 286.2897499999963,
      "v": 110
    },
    {
      "midi": 64,
      "hit": false,
      "t": 179697.22125000082,
      "d": 189.51574999999139,
      "v": 127
    },
    {
      "midi": 67,
      "hit": false,
      "t": 179890.7692500008,
      "d": 286.2897499999963,
      "v": 127
    },
    {
      "midi": 76,
      "hit": false,
      "t": 179890.7692500008,
      "d": 286.2897499999963,
      "v": 127
    },
    {
      "midi": 40,
      "hit": false,
      "t": 179902.8659999999,
      "d": 286.2897499999963,
      "v": 110
    },
    {
      "midi": 64,
      "hit": false,
      "t": 180181.09125000078,
      "d": 189.51574999999139,
      "v": 127
    },
    {
      "midi": 72,
      "hit": false,
      "t": 180181.09125000078,
      "d": 189.51574999999139,
      "v": 127
    },
    {
      "midi": 43,
      "hit": false,
      "t": 180193.18799999988,
      "d": 189.51574999999139,
      "v": 110
    },
    {
      "midi": 69,
      "hit": false,
      "t": 180374.63925000076,
      "d": 92.7417499999865,
      "v": 127
    },
    {
      "midi": 41,
      "hit": false,
      "t": 180386.73599999986,
      "d": 286.2897499999963,
      "v": 110
    },
    {
      "midi": 74,
      "hit": false,
      "t": 180471.41325000074,
      "d": 189.51574999999139,
      "v": 127
    },
    {
      "midi": 77,
      "hit": false,
      "t": 180664.96125000072,
      "d": 92.7417499999865,
      "v": 127
    },
    {
      "midi": 45,
      "hit": false,
      "t": 180677.05799999984,
      "d": 286.2897499999963,
      "v": 110
    },
    {
      "midi": 69,
      "hit": false,
      "t": 180761.7352500007,
      "d": 322.5799999999872,
      "v": 127
    },
    {
      "midi": 48,
      "hit": false,
      "t": 180967.37999999983,
      "d": 189.51574999999139,
      "v": 110
    },
    {
      "midi": 62,
      "hit": false,
      "t": 181148.8312500007,
      "d": 322.5799999999872,
      "v": 127
    },
    {
      "midi": 71,
      "hit": false,
      "t": 181148.8312500007,
      "d": 322.5799999999872,
      "v": 127
    },
    {
      "midi": 43,
      "hit": false,
      "t": 181160.9279999998,
      "d": 286.2897499999963,
      "v": 110
    },
    {
      "midi": 47,
      "hit": false,
      "t": 181451.2499999998,
      "d": 286.2897499999963,
      "v": 110
    },
    {
      "midi": 62,
      "hit": false,
      "t": 181535.92725000068,
      "d": 129.03200000000652,
      "v": 127
    },
    {
      "midi": 71,
      "hit": false,
      "t": 181535.92725000068,
      "d": 129.03200000000652,
      "v": 127
    },
    {
      "midi": 64,
      "hit": false,
      "t": 181664.95925000068,
      "d": 129.03200000000652,
      "v": 127
    },
    {
      "midi": 72,
      "hit": false,
      "t": 181664.95925000068,
      "d": 129.03200000000652,
      "v": 127
    },
    {
      "midi": 38,
      "hit": false,
      "t": 181741.57199999978,
      "d": 189.51574999999139,
      "v": 110
    },
    {
      "midi": 65,
      "hit": false,
      "t": 181793.9912500007,
      "d": 129.03200000000652,
      "v": 127
    },
    {
      "midi": 74,
      "hit": false,
      "t": 181793.9912500007,
      "d": 129.03200000000652,
      "v": 127
    },
    {
      "midi": 64,
      "hit": false,
      "t": 181923.0232500007,
      "d": 322.5799999999872,
      "v": 127
    },
    {
      "midi": 72,
      "hit": false,
      "t": 181923.0232500007,
      "d": 322.5799999999872,
      "v": 127
    },
    {
      "midi": 36,
      "hit": false,
      "t": 181935.11999999976,
      "d": 286.2897499999963,
      "v": 110
    },
    {
      "midi": 40,
      "hit": false,
      "t": 182225.44199999975,
      "d": 286.2897499999963,
      "v": 110
    },
    {
      "midi": 43,
      "hit": false,
      "t": 182515.76399999973,
      "d": 189.51574999999139,
      "v": 110
    },
    {
      "midi": 69,
      "hit": false,
      "t": 182697.21525000068,
      "d": 12.096749999996973,
      "v": 127
    },
    {
      "midi": 77,
      "hit": false,
      "t": 182697.21525000068,
      "d": 12.096749999996973,
      "v": 127
    },
    {
      "midi": 41,
      "hit": false,
      "t": 182709.3119999997,
      "d": 286.2897499999963,
      "v": 110
    },
    {
      "midi": 69,
      "hit": false,
      "t": 182709.31200000067,
      "d": 129.03200000000652,
      "v": 127
    },
    {
      "midi": 77,
      "hit": false,
      "t": 182709.31200000067,
      "d": 129.03200000000652,
      "v": 127
    },
    {
      "midi": 69,
      "hit": false,
      "t": 182838.34400000068,
      "d": 129.03200000000652,
      "v": 127
    },
    {
      "midi": 77,
      "hit": false,
      "t": 182838.34400000068,
      "d": 129.03200000000652,
      "v": 127
    },
    {
      "midi": 69,
      "hit": false,
      "t": 182967.3760000007,
      "d": 129.03200000000652,
      "v": 127
    },
    {
      "midi": 77,
      "hit": false,
      "t": 182967.3760000007,
      "d": 129.03200000000652,
      "v": 127
    },
    {
      "midi": 45,
      "hit": false,
      "t": 182999.6339999997,
      "d": 286.2897499999963,
      "v": 110
    },
    {
      "midi": 69,
      "hit": false,
      "t": 183112.53700000068,
      "d": 129.03200000000652,
      "v": 127
    },
    {
      "midi": 77,
      "hit": false,
      "t": 183112.53700000068,
      "d": 129.03200000000652,
      "v": 127
    },
    {
      "midi": 76,
      "hit": false,
      "t": 183241.5690000007,
      "d": 129.03200000000652,
      "v": 127
    },
    {
      "midi": 67,
      "hit": false,
      "t": 183241.5690000007,
      "d": 129.03200000000652,
      "v": 127
    },
    {
      "midi": 48,
      "hit": false,
      "t": 183289.95599999969,
      "d": 189.51574999999139,
      "v": 110
    },
    {
      "midi": 65,
      "hit": false,
      "t": 183370.6010000007,
      "d": 129.03200000000652,
      "v": 127
    },
    {
      "midi": 74,
      "hit": false,
      "t": 183370.6010000007,
      "d": 129.03200000000652,
      "v": 127
    },
    {
      "midi": 36,
      "hit": false,
      "t": 183483.50399999967,
      "d": 286.2897499999963,
      "v": 110
    },
    {
      "midi": 67,
      "hit": false,
      "t": 183499.6330000007,
      "d": 286.2897499999963,
      "v": 127
    },
    {
      "midi": 76,
      "hit": false,
      "t": 183499.6330000007,
      "d": 286.2897499999963,
      "v": 127
    },
    {
      "midi": 40,
      "hit": false,
      "t": 183773.82599999965,
      "d": 286.2897499999963,
      "v": 110
    },
    {
      "midi": 64,
      "hit": false,
      "t": 183789.9550000007,
      "d": 419.3539999999921,
      "v": 127
    },
    {
      "midi": 72,
      "hit": false,
      "t": 183789.9550000007,
      "d": 419.3539999999921,
      "v": 127
    },
    {
      "midi": 43,
      "hit": false,
      "t": 184064.14799999964,
      "d": 189.51574999999139,
      "v": 110
    },
    {
      "midi": 47,
      "hit": false,
      "t": 184257.69599999962,
      "d": 286.2897499999963,
      "v": 110
    },
    {
      "midi": 62,
      "hit": false,
      "t": 184273.82500000068,
      "d": 286.2897499999963,
      "v": 127
    },
    {
      "midi": 71,
      "hit": false,
      "t": 184273.82500000068,
      "d": 286.2897499999963,
      "v": 127
    },
    {
      "midi": 38,
      "hit": false,
      "t": 184548.0179999996,
      "d": 286.2897499999963,
      "v": 110
    },
    {
      "midi": 62,
      "hit": false,
      "t": 184564.14700000067,
      "d": 92.7417499999865,
      "v": 127
    },
    {
      "midi": 71,
      "hit": false,
      "t": 184564.14700000067,
      "d": 92.7417499999865,
      "v": 127
    },
    {
      "midi": 62,
      "hit": false,
      "t": 184660.92100000064,
      "d": 92.7417499999865,
      "v": 127
    },
    {
      "midi": 71,
      "hit": false,
      "t": 184660.92100000064,
      "d": 92.7417499999865,
      "v": 127
    },
    {
      "midi": 64,
      "hit": false,
      "t": 184757.69500000062,
      "d": 189.51574999999139,
      "v": 127
    },
    {
      "midi": 72,
      "hit": false,
      "t": 184757.69500000062,
      "d": 189.51574999999139,
      "v": 127
    },
    {
      "midi": 36,
      "hit": false,
      "t": 184838.3399999996,
      "d": 189.51574999999139,
      "v": 110
    },
    {
      "midi": 65,
      "hit": false,
      "t": 184951.2430000006,
      "d": 92.7417499999865,
      "v": 127
    },
    {
      "midi": 74,
      "hit": false,
      "t": 184951.2430000006,
      "d": 92.7417499999865,
      "v": 127
    },
    {
      "midi": 40,
      "hit": false,
      "t": 185031.88799999957,
      "d": 286.2897499999963,
      "v": 110
    },
    {
      "midi": 67,
      "hit": false,
      "t": 185048.01700000057,
      "d": 322.5799999999872,
      "v": 127
    },
    {
      "midi": 76,
      "hit": false,
      "t": 185048.01700000057,
      "d": 322.5799999999872,
      "v": 127
    },
    {
      "midi": 43,
      "hit": false,
      "t": 185322.20999999956,
      "d": 286.2897499999963,
      "v": 110
    },
    {
      "midi": 41,
      "hit": false,
      "t": 185612.53199999954,
      "d": 189.51574999999139,
      "v": 110
    },
    {
      "midi": 41,
      "hit": false,
      "t": 185806.07999999952,
      "d": 286.2897499999963,
      "v": 110
    },
    {
      "midi": 69,
      "hit": false,
      "t": 185822.20900000056,
      "d": 290.32199999998556,
      "v": 127
    },
    {
      "midi": 77,
      "hit": false,
      "t": 185822.20900000056,
      "d": 290.32199999998556,
      "v": 127
    },
    {
      "midi": 45,
      "hit": false,
      "t": 186096.4019999995,
      "d": 286.2897499999963,
      "v": 110
    },
    {
      "midi": 69,
      "hit": false,
      "t": 186112.53100000054,
      "d": 129.03200000000652,
      "v": 127
    },
    {
      "midi": 77,
      "hit": false,
      "t": 186112.53100000054,
      "d": 129.03200000000652,
      "v": 127
    },
    {
      "midi": 69,
      "hit": false,
      "t": 186241.56300000055,
      "d": 129.03200000000652,
      "v": 127
    },
    {
      "midi": 77,
      "hit": false,
      "t": 186241.56300000055,
      "d": 129.03200000000652,
      "v": 127
    },
    {
      "midi": 71,
      "hit": false,
      "t": 186370.59500000055,
      "d": 129.03200000000652,
      "v": 127
    },
    {
      "midi": 79,
      "hit": false,
      "t": 186370.59500000055,
      "d": 129.03200000000652,
      "v": 127
    },
    {
      "midi": 48,
      "hit": false,
      "t": 186386.7239999995,
      "d": 189.51574999999139,
      "v": 110
    },
    {
      "midi": 72,
      "hit": false,
      "t": 186499.62700000056,
      "d": 64.51600000000326,
      "v": 127
    },
    {
      "midi": 81,
      "hit": false,
      "t": 186499.62700000056,
      "d": 129.03200000000652,
      "v": 127
    },
    {
      "midi": 40,
      "hit": false,
      "t": 186580.27199999947,
      "d": 286.2897499999963,
      "v": 110
    },
    {
      "midi": 71,
      "hit": false,
      "t": 186628.65900000057,
      "d": 290.32199999998556,
      "v": 127
    },
    {
      "midi": 79,
      "hit": false,
      "t": 186628.65900000057,
      "d": 290.32199999998556,
      "v": 127
    },
    {
      "midi": 43,
      "hit": false,
      "t": 186870.59399999946,
      "d": 286.2897499999963,
      "v": 110
    },
    {
      "midi": 67,
      "hit": false,
      "t": 186918.98100000055,
      "d": 387.09599999999045,
      "v": 127
    },
    {
      "midi": 76,
      "hit": false,
      "t": 186918.98100000055,
      "d": 387.09599999999045,
      "v": 127
    },
    {
      "midi": 47,
      "hit": false,
      "t": 187160.91599999944,
      "d": 189.51574999999139,
      "v": 110
    },
    {
      "midi": 41,
      "hit": false,
      "t": 187354.46399999943,
      "d": 286.2897499999963,
      "v": 110
    },
    {
      "midi": 69,
      "hit": false,
      "t": 187370.59300000055,
      "d": 286.2897499999963,
      "v": 127
    },
    {
      "midi": 77,
      "hit": false,
      "t": 187370.59300000055,
      "d": 286.2897499999963,
      "v": 127
    },
    {
      "midi": 45,
      "hit": false,
      "t": 187644.7859999994,
      "d": 286.2897499999963,
      "v": 110
    },
    {
      "midi": 67,
      "hit": false,
      "t": 187660.91500000053,
      "d": 286.2897499999963,
      "v": 127
    },
    {
      "midi": 76,
      "hit": false,
      "t": 187660.91500000053,
      "d": 286.2897499999963,
      "v": 127
    },
    {
      "midi": 48,
      "hit": false,
      "t": 187935.1079999994,
      "d": 189.51574999999139,
      "v": 110
    },
    {
      "midi": 65,
      "hit": false,
      "t": 187951.23700000052,
      "d": 189.51574999999139,
      "v": 127
    },
    {
      "midi": 74,
      "hit": false,
      "t": 187951.23700000052,
      "d": 189.51574999999139,
      "v": 127
    },
    {
      "midi": 43,
      "hit": false,
      "t": 188322.2039999994,
      "d": 189.51574999999139,
      "v": 110
    },
    {
      "midi": 65,
      "hit": false,
      "t": 188338.3330000005,
      "d": 189.51574999999139,
      "v": 127
    },
    {
      "midi": 69,
      "hit": false,
      "t": 188338.3330000005,
      "d": 189.51574999999139,
      "v": 127
    },
    {
      "midi": 43,
      "hit": false,
      "t": 188515.75199999937,
      "d": 322.5799999999872,
      "v": 110
    },
    {
      "midi": 67,
      "hit": false,
      "t": 188531.8810000005,
      "d": 322.5799999999872,
      "v": 127
    },
    {
      "midi": 71,
      "hit": false,
      "t": 188531.8810000005,
      "d": 322.5799999999872,
      "v": 127
    },
    {
      "midi": 86,
      "hit": false,
      "t": 188902.84800000046,
      "d": 92.7417499999865,
      "v": 127
    },
    {
      "midi": 91,
      "hit": false,
      "t": 188902.84800000046,
      "d": 92.7417499999865,
      "v": 127
    },
    {
      "midi": 86,
      "hit": false,
      "t": 188999.62200000044,
      "d": 92.7417499999865,
      "v": 127
    },
    {
      "midi": 91,
      "hit": false,
      "t": 188999.62200000044,
      "d": 92.7417499999865,
      "v": 127
    },
    {
      "midi": 86,
      "hit": false,
      "t": 189096.39600000042,
      "d": 189.51574999999139,
      "v": 127
    },
    {
      "midi": 91,
      "hit": false,
      "t": 189096.39600000042,
      "d": 189.51574999999139,
      "v": 127
    },
    {
      "midi": 83,
      "hit": false,
      "t": 189289.9440000004,
      "d": 189.51574999999139,
      "v": 127
    },
    {
      "midi": 88,
      "hit": false,
      "t": 189289.9440000004,
      "d": 189.51574999999139,
      "v": 127
    },
    {
      "midi": 83,
      "hit": false,
      "t": 189483.49200000038,
      "d": 189.51574999999139,
      "v": 127
    },
    {
      "midi": 88,
      "hit": false,
      "t": 189483.49200000038,
      "d": 189.51574999999139,
      "v": 127
    },
    {
      "midi": 81,
      "hit": false,
      "t": 189677.04000000036,
      "d": 189.51574999999139,
      "v": 127
    },
    {
      "midi": 86,
      "hit": false,
      "t": 189677.04000000036,
      "d": 189.51574999999139,
      "v": 127
    },
    {
      "midi": 81,
      "hit": false,
      "t": 189870.58800000034,
      "d": 189.51574999999139,
      "v": 127
    },
    {
      "midi": 86,
      "hit": false,
      "t": 189870.58800000034,
      "d": 189.51574999999139,
      "v": 127
    },
    {
      "midi": 83,
      "hit": false,
      "t": 190064.13600000032,
      "d": 322.5799999999872,
      "v": 127
    },
    {
      "midi": 88,
      "hit": false,
      "t": 190064.13600000032,
      "d": 322.5799999999872,
      "v": 127
    },
    {
      "midi": 43,
      "hit": false,
      "t": 190451.23199999935,
      "d": 286.2897499999963,
      "v": 110
    },
    {
      "midi": 69,
      "hit": false,
      "t": 190451.2320000003,
      "d": 516.127999999997,
      "v": 127
    },
    {
      "midi": 74,
      "hit": false,
      "t": 190451.2320000003,
      "d": 516.127999999997,
      "v": 127
    },
    {
      "midi": 55,
      "hit": false,
      "t": 190644.77999999936,
      "d": 189.51574999996228,
      "v": 110
    },
    {
      "midi": 50,
      "hit": false,
      "t": 190741.55399999933,
      "d": 92.7417499999865,
      "v": 110
    },
    {
      "midi": 43,
      "hit": false,
      "t": 190838.3279999993,
      "d": 322.5800000000163,
      "v": 110
    },
    {
      "midi": 55,
      "hit": false,
      "t": 191031.87599999932,
      "d": 189.5157500000205,
      "v": 110
    },
    {
      "midi": 71,
      "hit": false,
      "t": 191031.8760000003,
      "d": 189.51574999999139,
      "v": 127
    },
    {
      "midi": 76,
      "hit": false,
      "t": 191031.8760000003,
      "d": 189.51574999999139,
      "v": 127
    },
    {
      "midi": 43,
      "hit": false,
      "t": 191225.42399999933,
      "d": 286.2897499999963,
      "v": 110
    },
    {
      "midi": 74,
      "hit": false,
      "t": 191225.4240000003,
      "d": 322.5799999999872,
      "v": 127
    },
    {
      "midi": 79,
      "hit": false,
      "t": 191225.4240000003,
      "d": 322.5799999999872,
      "v": 127
    },
    {
      "midi": 55,
      "hit": false,
      "t": 191418.97199999934,
      "d": 189.51574999996228,
      "v": 110
    },
    {
      "midi": 50,
      "hit": false,
      "t": 191515.74599999932,
      "d": 92.7417499999865,
      "v": 110
    },
    {
      "midi": 43,
      "hit": false,
      "t": 191612.5199999993,
      "d": 322.5800000000163,
      "v": 110
    },
    {
      "midi": 71,
      "hit": false,
      "t": 191612.52000000028,
      "d": 322.5799999999872,
      "v": 127
    },
    {
      "midi": 76,
      "hit": false,
      "t": 191612.52000000028,
      "d": 322.5799999999872,
      "v": 127
    },
    {
      "midi": 55,
      "hit": false,
      "t": 191806.0679999993,
      "d": 189.5157500000205,
      "v": 110
    },
    {
      "midi": 36,
      "hit": false,
      "t": 191999.6159999993,
      "d": 189.51574999999139,
      "v": 110
    },
    {
      "midi": 69,
      "hit": false,
      "t": 191999.61600000027,
      "d": 322.5799999999872,
      "v": 127
    },
    {
      "midi": 74,
      "hit": false,
      "t": 191999.61600000027,
      "d": 322.5799999999872,
      "v": 127
    },
    {
      "midi": 48,
      "hit": false,
      "t": 192193.1639999993,
      "d": 92.7417499999865,
      "v": 110
    },
    {
      "midi": 43,
      "hit": false,
      "t": 192289.93799999927,
      "d": 92.7417499999865,
      "v": 110
    },
    {
      "midi": 36,
      "hit": false,
      "t": 192386.71199999924,
      "d": 189.51574999999139,
      "v": 110
    },
    {
      "midi": 71,
      "hit": false,
      "t": 192386.71200000026,
      "d": 189.51574999999139,
      "v": 127
    },
    {
      "midi": 76,
      "hit": false,
      "t": 192386.71200000026,
      "d": 189.51574999999139,
      "v": 127
    },
    {
      "midi": 48,
      "hit": false,
      "t": 192580.25999999922,
      "d": 189.51574999999139,
      "v": 110
    },
    {
      "midi": 69,
      "hit": false,
      "t": 192580.26000000024,
      "d": 189.51574999999139,
      "v": 127
    },
    {
      "midi": 74,
      "hit": false,
      "t": 192580.26000000024,
      "d": 189.51574999999139,
      "v": 127
    },
    {
      "midi": 36,
      "hit": false,
      "t": 192773.8079999992,
      "d": 189.51574999999139,
      "v": 110
    },
    {
      "midi": 67,
      "hit": false,
      "t": 192773.80800000022,
      "d": 322.5799999999872,
      "v": 127
    },
    {
      "midi": 71,
      "hit": false,
      "t": 192773.80800000022,
      "d": 322.5799999999872,
      "v": 127
    },
    {
      "midi": 48,
      "hit": false,
      "t": 192967.35599999918,
      "d": 92.7417499999865,
      "v": 110
    },
    {
      "midi": 43,
      "hit": false,
      "t": 193064.12999999916,
      "d": 92.7417499999865,
      "v": 110
    },
    {
      "midi": 36,
      "hit": false,
      "t": 193160.90399999914,
      "d": 189.51574999999139,
      "v": 110
    },
    {
      "midi": 64,
      "hit": false,
      "t": 193160.9040000002,
      "d": 189.51574999999139,
      "v": 127
    },
    {
      "midi": 69,
      "hit": false,
      "t": 193160.9040000002,
      "d": 189.51574999999139,
      "v": 127
    },
    {
      "midi": 48,
      "hit": false,
      "t": 193354.45199999912,
      "d": 189.51574999999139,
      "v": 110
    },
    {
      "midi": 62,
      "hit": false,
      "t": 193354.4520000002,
      "d": 189.51574999999139,
      "v": 127
    },
    {
      "midi": 67,
      "hit": false,
      "t": 193354.4520000002,
      "d": 189.51574999999139,
      "v": 127
    },
    {
      "midi": 43,
      "hit": false,
      "t": 193547.9999999991,
      "d": 286.2897499999963,
      "v": 110
    },
    {
      "midi": 69,
      "hit": false,
      "t": 193548.00000000017,
      "d": 516.127999999997,
      "v": 127
    },
    {
      "midi": 74,
      "hit": false,
      "t": 193548.00000000017,
      "d": 516.127999999997,
      "v": 127
    },
    {
      "midi": 55,
      "hit": false,
      "t": 193741.5479999991,
      "d": 189.51574999996228,
      "v": 110
    },
    {
      "midi": 50,
      "hit": false,
      "t": 193838.32199999908,
      "d": 92.7417499999865,
      "v": 110
    },
    {
      "midi": 43,
      "hit": false,
      "t": 193935.09599999906,
      "d": 322.5800000000163,
      "v": 110
    },
    {
      "midi": 55,
      "hit": false,
      "t": 194128.64399999907,
      "d": 189.5157500000205,
      "v": 110
    },
    {
      "midi": 71,
      "hit": false,
      "t": 194128.64400000017,
      "d": 189.51574999999139,
      "v": 127
    },
    {
      "midi": 76,
      "hit": false,
      "t": 194128.64400000017,
      "d": 189.51574999999139,
      "v": 127
    },
    {
      "midi": 43,
      "hit": false,
      "t": 194322.19199999908,
      "d": 286.2897499999963,
      "v": 110
    },
    {
      "midi": 74,
      "hit": false,
      "t": 194322.19200000016,
      "d": 322.5799999999872,
      "v": 127
    },
    {
      "midi": 79,
      "hit": false,
      "t": 194322.19200000016,
      "d": 322.5799999999872,
      "v": 127
    },
    {
      "midi": 55,
      "hit": false,
      "t": 194515.7399999991,
      "d": 189.51574999996228,
      "v": 110
    },
    {
      "midi": 50,
      "hit": false,
      "t": 194612.51399999906,
      "d": 92.7417499999865,
      "v": 110
    },
    {
      "midi": 43,
      "hit": false,
      "t": 194709.28799999904,
      "d": 322.5800000000163,
      "v": 110
    },
    {
      "midi": 71,
      "hit": false,
      "t": 194709.28800000015,
      "d": 189.51574999999139,
      "v": 127
    },
    {
      "midi": 76,
      "hit": false,
      "t": 194709.28800000015,
      "d": 189.51574999999139,
      "v": 127
    },
    {
      "midi": 55,
      "hit": false,
      "t": 194902.83599999905,
      "d": 189.5157500000205,
      "v": 110
    },
    {
      "midi": 69,
      "hit": false,
      "t": 194902.83600000013,
      "d": 189.51574999999139,
      "v": 127
    },
    {
      "midi": 74,
      "hit": false,
      "t": 194902.83600000013,
      "d": 189.51574999999139,
      "v": 127
    },
    {
      "midi": 79,
      "hit": false,
      "t": 195096.38399999906,
      "d": 92.7417499999865,
      "v": 110
    },
    {
      "midi": 36,
      "hit": false,
      "t": 195096.38399999906,
      "d": 189.51574999996228,
      "v": 110
    },
    {
      "midi": 76,
      "hit": false,
      "t": 195096.3840000001,
      "d": 1451.609999999986,
      "v": 127
    },
    {
      "midi": 81,
      "hit": false,
      "t": 195193.15799999904,
      "d": 92.7417499999865,
      "v": 110
    },
    {
      "midi": 48,
      "hit": false,
      "t": 195289.931999999,
      "d": 92.7417499999865,
      "v": 110
    },
    {
      "midi": 79,
      "hit": false,
      "t": 195289.931999999,
      "d": 189.51574999996228,
      "v": 110
    },
    {
      "midi": 43,
      "hit": false,
      "t": 195386.705999999,
      "d": 92.7417499999865,
      "v": 110
    },
    {
      "midi": 76,
      "hit": false,
      "t": 195483.47999999896,
      "d": 92.7417499999865,
      "v": 110
    },
    {
      "midi": 36,
      "hit": false,
      "t": 195483.47999999896,
      "d": 189.51574999996228,
      "v": 110
    },
    {
      "midi": 79,
      "hit": false,
      "t": 195580.25399999894,
      "d": 92.7417499999865,
      "v": 110
    },
    {
      "midi": 48,
      "hit": false,
      "t": 195677.0279999989,
      "d": 189.51574999999139,
      "v": 110
    },
    {
      "midi": 76,
      "hit": false,
      "t": 195677.0279999989,
      "d": 189.51574999999139,
      "v": 110
    },
    {
      "midi": 74,
      "hit": false,
      "t": 195870.5759999989,
      "d": 92.7417499999865,
      "v": 110
    },
    {
      "midi": 36,
      "hit": false,
      "t": 195870.5759999989,
      "d": 189.51574999996228,
      "v": 110
    },
    {
      "midi": 76,
      "hit": false,
      "t": 195967.34999999887,
      "d": 92.7417499999865,
      "v": 110
    },
    {
      "midi": 48,
      "hit": false,
      "t": 196064.12399999885,
      "d": 92.7417499999865,
      "v": 110
    },
    {
      "midi": 74,
      "hit": false,
      "t": 196064.12399999885,
      "d": 189.51574999996228,
      "v": 110
    },
    {
      "midi": 43,
      "hit": false,
      "t": 196160.89799999882,
      "d": 92.7417499999865,
      "v": 110
    },
    {
      "midi": 71,
      "hit": false,
      "t": 196257.6719999988,
      "d": 92.7417499999865,
      "v": 110
    },
    {
      "midi": 36,
      "hit": false,
      "t": 196257.6719999988,
      "d": 189.51574999996228,
      "v": 110
    },
    {
      "midi": 69,
      "hit": false,
      "t": 196354.44599999877,
      "d": 92.7417499999865,
      "v": 110
    },
    {
      "midi": 48,
      "hit": false,
      "t": 196451.21999999875,
      "d": 189.51574999999139,
      "v": 110
    },
    {
      "midi": 67,
      "hit": false,
      "t": 196451.21999999875,
      "d": 189.51574999999139,
      "v": 110
    },
    {
      "midi": 43,
      "hit": false,
      "t": 196644.76799999873,
      "d": 286.2897499999963,
      "v": 110
    },
    {
      "midi": 69,
      "hit": false,
      "t": 196644.7680000001,
      "d": 516.127999999997,
      "v": 127
    },
    {
      "midi": 74,
      "hit": false,
      "t": 196644.7680000001,
      "d": 516.127999999997,
      "v": 127
    },
    {
      "midi": 55,
      "hit": false,
      "t": 196838.31599999874,
      "d": 189.51574999996228,
      "v": 110
    },
    {
      "midi": 50,
      "hit": false,
      "t": 196935.08999999872,
      "d": 92.7417499999865,
      "v": 110
    },
    {
      "midi": 43,
      "hit": false,
      "t": 197031.8639999987,
      "d": 322.5800000000163,
      "v": 110
    },
    {
      "midi": 55,
      "hit": false,
      "t": 197225.4119999987,
      "d": 189.5157500000205,
      "v": 110
    },
    {
      "midi": 71,
      "hit": false,
      "t": 197225.4120000001,
      "d": 189.51574999999139,
      "v": 127
    },
    {
      "midi": 76,
      "hit": false,
      "t": 197225.4120000001,
      "d": 189.51574999999139,
      "v": 127
    },
    {
      "midi": 43,
      "hit": false,
      "t": 197418.9599999987,
      "d": 286.2897499999963,
      "v": 110
    },
    {
      "midi": 74,
      "hit": false,
      "t": 197418.96000000008,
      "d": 322.5799999999872,
      "v": 127
    },
    {
      "midi": 79,
      "hit": false,
      "t": 197418.96000000008,
      "d": 322.5799999999872,
      "v": 127
    },
    {
      "midi": 55,
      "hit": false,
      "t": 197612.50799999872,
      "d": 189.51574999996228,
      "v": 110
    },
    {
      "midi": 50,
      "hit": false,
      "t": 197709.2819999987,
      "d": 92.7417499999865,
      "v": 110
    },
    {
      "midi": 43,
      "hit": false,
      "t": 197806.05599999867,
      "d": 322.5800000000163,
      "v": 110
    },
    {
      "midi": 71,
      "hit": false,
      "t": 197806.05600000007,
      "d": 322.5799999999872,
      "v": 127
    },
    {
      "midi": 76,
      "hit": false,
      "t": 197806.05600000007,
      "d": 322.5799999999872,
      "v": 127
    },
    {
      "midi": 55,
      "hit": false,
      "t": 197999.60399999868,
      "d": 189.5157500000205,
      "v": 110
    },
    {
      "midi": 36,
      "hit": false,
      "t": 198193.1519999987,
      "d": 189.51574999999139,
      "v": 110
    },
    {
      "midi": 69,
      "hit": false,
      "t": 198193.15200000006,
      "d": 322.5799999999872,
      "v": 127
    },
    {
      "midi": 74,
      "hit": false,
      "t": 198193.15200000006,
      "d": 322.5799999999872,
      "v": 127
    },
    {
      "midi": 48,
      "hit": false,
      "t": 198386.69999999867,
      "d": 92.7417499999865,
      "v": 110
    },
    {
      "midi": 43,
      "hit": false,
      "t": 198483.47399999865,
      "d": 92.7417499999865,
      "v": 110
    },
    {
      "midi": 36,
      "hit": false,
      "t": 198580.24799999862,
      "d": 189.51574999999139,
      "v": 110
    },
    {
      "midi": 71,
      "hit": false,
      "t": 198580.24800000005,
      "d": 189.51574999999139,
      "v": 127
    },
    {
      "midi": 76,
      "hit": false,
      "t": 198580.24800000005,
      "d": 189.51574999999139,
      "v": 127
    },
    {
      "midi": 48,
      "hit": false,
      "t": 198773.7959999986,
      "d": 189.51574999999139,
      "v": 110
    },
    {
      "midi": 69,
      "hit": false,
      "t": 198773.79600000003,
      "d": 189.51574999999139,
      "v": 127
    },
    {
      "midi": 74,
      "hit": false,
      "t": 198773.79600000003,
      "d": 189.51574999999139,
      "v": 127
    },
    {
      "midi": 36,
      "hit": false,
      "t": 198967.3439999986,
      "d": 189.51574999999139,
      "v": 110
    },
    {
      "midi": 67,
      "hit": false,
      "t": 198967.344,
      "d": 322.5799999999872,
      "v": 127
    },
    {
      "midi": 71,
      "hit": false,
      "t": 198967.344,
      "d": 322.5799999999872,
      "v": 127
    },
    {
      "midi": 48,
      "hit": false,
      "t": 199160.89199999857,
      "d": 92.7417499999865,
      "v": 110
    },
    {
      "midi": 43,
      "hit": false,
      "t": 199257.66599999854,
      "d": 92.7417499999865,
      "v": 110
    },
    {
      "midi": 36,
      "hit": false,
      "t": 199354.43999999852,
      "d": 189.51574999999139,
      "v": 110
    },
    {
      "midi": 64,
      "hit": false,
      "t": 199354.44,
      "d": 189.51574999999139,
      "v": 127
    },
    {
      "midi": 69,
      "hit": false,
      "t": 199354.44,
      "d": 189.51574999999139,
      "v": 127
    },
    {
      "midi": 48,
      "hit": false,
      "t": 199547.9879999985,
      "d": 189.51574999999139,
      "v": 110
    },
    {
      "midi": 62,
      "hit": false,
      "t": 199547.98799999998,
      "d": 189.51574999999139,
      "v": 127
    },
    {
      "midi": 67,
      "hit": false,
      "t": 199547.98799999998,
      "d": 189.51574999999139,
      "v": 127
    },
    {
      "midi": 38,
      "hit": false,
      "t": 199741.53599999848,
      "d": 189.51574999999139,
      "v": 110
    },
    {
      "midi": 64,
      "hit": false,
      "t": 199741.53599999996,
      "d": 516.127999999997,
      "v": 127
    },
    {
      "midi": 69,
      "hit": false,
      "t": 199741.53599999996,
      "d": 516.127999999997,
      "v": 127
    },
    {
      "midi": 50,
      "hit": false,
      "t": 199935.08399999846,
      "d": 92.7417499999865,
      "v": 110
    },
    {
      "midi": 45,
      "hit": false,
      "t": 200031.85799999844,
      "d": 92.7417499999865,
      "v": 110
    },
    {
      "midi": 38,
      "hit": false,
      "t": 200128.6319999984,
      "d": 189.51574999999139,
      "v": 110
    },
    {
      "midi": 50,
      "hit": false,
      "t": 200322.1799999984,
      "d": 189.51574999999139,
      "v": 110
    },
    {
      "midi": 66,
      "hit": false,
      "t": 200322.17999999996,
      "d": 189.51574999999139,
      "v": 127
    },
    {
      "midi": 71,
      "hit": false,
      "t": 200322.17999999996,
      "d": 189.51574999999139,
      "v": 127
    },
    {
      "midi": 38,
      "hit": false,
      "t": 200515.72799999837,
      "d": 189.51574999999139,
      "v": 110
    },
    {
      "midi": 64,
      "hit": false,
      "t": 200515.72799999994,
      "d": 189.51574999999139,
      "v": 127
    },
    {
      "midi": 69,
      "hit": false,
      "t": 200515.72799999994,
      "d": 189.51574999999139,
      "v": 127
    },
    {
      "midi": 50,
      "hit": false,
      "t": 200709.27599999835,
      "d": 92.7417499999865,
      "v": 110
    },
    {
      "midi": 62,
      "hit": false,
      "t": 200709.27599999993,
      "d": 189.51574999999139,
      "v": 127
    },
    {
      "midi": 67,
      "hit": false,
      "t": 200709.27599999993,
      "d": 189.51574999999139,
      "v": 127
    },
    {
      "midi": 45,
      "hit": false,
      "t": 200806.04999999833,
      "d": 92.7417499999865,
      "v": 110
    },
    {
      "midi": 38,
      "hit": false,
      "t": 200902.8239999983,
      "d": 189.51574999999139,
      "v": 110
    },
    {
      "midi": 59,
      "hit": false,
      "t": 200902.8239999999,
      "d": 189.51574999999139,
      "v": 127
    },
    {
      "midi": 64,
      "hit": false,
      "t": 200902.8239999999,
      "d": 189.51574999999139,
      "v": 127
    },
    {
      "midi": 50,
      "hit": false,
      "t": 201096.3719999983,
      "d": 189.51574999999139,
      "v": 110
    },
    {
      "midi": 57,
      "hit": false,
      "t": 201096.3719999999,
      "d": 189.51574999999139,
      "v": 127
    },
    {
      "midi": 62,
      "hit": false,
      "t": 201096.3719999999,
      "d": 189.51574999999139,
      "v": 127
    },
    {
      "midi": 40,
      "hit": false,
      "t": 201289.91999999827,
      "d": 189.51574999999139,
      "v": 110
    },
    {
      "midi": 59,
      "hit": false,
      "t": 201289.91999999987,
      "d": 1451.609999999986,
      "v": 127
    },
    {
      "midi": 64,
      "hit": false,
      "t": 201289.91999999987,
      "d": 1451.609999999986,
      "v": 127
    },
    {
      "midi": 52,
      "hit": false,
      "t": 201483.46799999825,
      "d": 92.7417499999865,
      "v": 110
    },
    {
      "midi": 47,
      "hit": false,
      "t": 201580.24199999822,
      "d": 92.7417499999865,
      "v": 110
    },
    {
      "midi": 40,
      "hit": false,
      "t": 201677.0159999982,
      "d": 189.51574999999139,
      "v": 110
    },
    {
      "midi": 52,
      "hit": false,
      "t": 201870.56399999818,
      "d": 189.51574999999139,
      "v": 110
    },
    {
      "midi": 40,
      "hit": false,
      "t": 202064.11199999816,
      "d": 189.51574999999139,
      "v": 110
    },
    {
      "midi": 52,
      "hit": false,
      "t": 202257.65999999814,
      "d": 92.7417499999865,
      "v": 110
    },
    {
      "midi": 47,
      "hit": false,
      "t": 202354.43399999812,
      "d": 92.7417499999865,
      "v": 110
    },
    {
      "midi": 40,
      "hit": false,
      "t": 202451.2079999981,
      "d": 189.51574999999139,
      "v": 110
    },
    {
      "midi": 52,
      "hit": false,
      "t": 202644.75599999807,
      "d": 189.51574999999139,
      "v": 110
    },
    {
      "midi": 43,
      "hit": false,
      "t": 202838.30399999805,
      "d": 286.2897499999963,
      "v": 110
    },
    {
      "midi": 69,
      "hit": false,
      "t": 202838.30399999986,
      "d": 516.127999999997,
      "v": 127
    },
    {
      "midi": 74,
      "hit": false,
      "t": 202838.30399999986,
      "d": 516.127999999997,
      "v": 127
    },
    {
      "midi": 55,
      "hit": false,
      "t": 203031.85199999806,
      "d": 189.51574999996228,
      "v": 110
    },
    {
      "midi": 50,
      "hit": false,
      "t": 203128.62599999804,
      "d": 92.7417499999865,
      "v": 110
    },
    {
      "midi": 43,
      "hit": false,
      "t": 203225.39999999802,
      "d": 322.5800000000163,
      "v": 110
    },
    {
      "midi": 55,
      "hit": false,
      "t": 203418.94799999802,
      "d": 189.5157500000205,
      "v": 110
    },
    {
      "midi": 71,
      "hit": false,
      "t": 203418.94799999986,
      "d": 189.51574999999139,
      "v": 127
    },
    {
      "midi": 76,
      "hit": false,
      "t": 203418.94799999986,
      "d": 189.51574999999139,
      "v": 127
    },
    {
      "midi": 43,
      "hit": false,
      "t": 203612.49599999803,
      "d": 286.2897499999963,
      "v": 110
    },
    {
      "midi": 74,
      "hit": false,
      "t": 203612.49599999984,
      "d": 322.5799999999872,
      "v": 127
    },
    {
      "midi": 79,
      "hit": false,
      "t": 203612.49599999984,
      "d": 322.5799999999872,
      "v": 127
    },
    {
      "midi": 55,
      "hit": false,
      "t": 203806.04399999804,
      "d": 189.51574999996228,
      "v": 110
    },
    {
      "midi": 50,
      "hit": false,
      "t": 203902.81799999802,
      "d": 92.7417499999865,
      "v": 110
    },
    {
      "midi": 43,
      "hit": false,
      "t": 203999.591999998,
      "d": 322.5800000000163,
      "v": 110
    },
    {
      "midi": 71,
      "hit": false,
      "t": 203999.59199999983,
      "d": 322.5799999999872,
      "v": 127
    },
    {
      "midi": 76,
      "hit": false,
      "t": 203999.59199999983,
      "d": 322.5799999999872,
      "v": 127
    },
    {
      "midi": 55,
      "hit": false,
      "t": 204193.139999998,
      "d": 189.5157500000205,
      "v": 110
    },
    {
      "midi": 36,
      "hit": false,
      "t": 204386.68799999802,
      "d": 189.51574999999139,
      "v": 110
    },
    {
      "midi": 69,
      "hit": false,
      "t": 204386.68799999982,
      "d": 322.5799999999872,
      "v": 127
    },
    {
      "midi": 74,
      "hit": false,
      "t": 204386.68799999982,
      "d": 322.5799999999872,
      "v": 127
    },
    {
      "midi": 48,
      "hit": false,
      "t": 204580.235999998,
      "d": 92.7417499999865,
      "v": 110
    },
    {
      "midi": 43,
      "hit": false,
      "t": 204677.00999999797,
      "d": 92.7417499999865,
      "v": 110
    },
    {
      "midi": 36,
      "hit": false,
      "t": 204773.78399999795,
      "d": 189.51574999999139,
      "v": 110
    },
    {
      "midi": 71,
      "hit": false,
      "t": 204773.7839999998,
      "d": 189.51574999999139,
      "v": 127
    },
    {
      "midi": 76,
      "hit": false,
      "t": 204773.7839999998,
      "d": 189.51574999999139,
      "v": 127
    },
    {
      "midi": 48,
      "hit": false,
      "t": 204967.33199999793,
      "d": 189.51574999999139,
      "v": 110
    },
    {
      "midi": 69,
      "hit": false,
      "t": 204967.3319999998,
      "d": 189.51574999999139,
      "v": 127
    },
    {
      "midi": 74,
      "hit": false,
      "t": 204967.3319999998,
      "d": 189.51574999999139,
      "v": 127
    },
    {
      "midi": 36,
      "hit": false,
      "t": 205160.8799999979,
      "d": 189.51574999999139,
      "v": 110
    },
    {
      "midi": 67,
      "hit": false,
      "t": 205160.87999999977,
      "d": 322.5799999999872,
      "v": 127
    },
    {
      "midi": 71,
      "hit": false,
      "t": 205160.87999999977,
      "d": 322.5799999999872,
      "v": 127
    },
    {
      "midi": 48,
      "hit": false,
      "t": 205354.4279999979,
      "d": 92.7417499999865,
      "v": 110
    },
    {
      "midi": 43,
      "hit": false,
      "t": 205451.20199999787,
      "d": 92.7417499999865,
      "v": 110
    },
    {
      "midi": 36,
      "hit": false,
      "t": 205547.97599999784,
      "d": 189.51574999999139,
      "v": 110
    },
    {
      "midi": 64,
      "hit": false,
      "t": 205547.97599999976,
      "d": 189.51574999999139,
      "v": 127
    },
    {
      "midi": 69,
      "hit": false,
      "t": 205547.97599999976,
      "d": 189.51574999999139,
      "v": 127
    },
    {
      "midi": 48,
      "hit": false,
      "t": 205741.52399999782,
      "d": 189.51574999999139,
      "v": 110
    },
    {
      "midi": 62,
      "hit": false,
      "t": 205741.52399999974,
      "d": 189.51574999999139,
      "v": 127
    },
    {
      "midi": 67,
      "hit": false,
      "t": 205741.52399999974,
      "d": 189.51574999999139,
      "v": 127
    },
    {
      "midi": 43,
      "hit": false,
      "t": 205935.0719999978,
      "d": 286.2897499999963,
      "v": 110
    },
    {
      "midi": 69,
      "hit": false,
      "t": 205935.07199999972,
      "d": 516.127999999997,
      "v": 127
    },
    {
      "midi": 74,
      "hit": false,
      "t": 205935.07199999972,
      "d": 516.127999999997,
      "v": 127
    },
    {
      "midi": 55,
      "hit": false,
      "t": 206128.6199999978,
      "d": 189.51574999996228,
      "v": 110
    },
    {
      "midi": 50,
      "hit": false,
      "t": 206225.3939999978,
      "d": 92.7417499999865,
      "v": 110
    },
    {
      "midi": 43,
      "hit": false,
      "t": 206322.16799999776,
      "d": 322.5800000000163,
      "v": 110
    },
    {
      "midi": 55,
      "hit": false,
      "t": 206515.71599999777,
      "d": 189.5157500000205,
      "v": 110
    },
    {
      "midi": 71,
      "hit": false,
      "t": 206515.71599999972,
      "d": 189.51574999999139,
      "v": 127
    },
    {
      "midi": 76,
      "hit": false,
      "t": 206515.71599999972,
      "d": 189.51574999999139,
      "v": 127
    },
    {
      "midi": 43,
      "hit": false,
      "t": 206709.26399999778,
      "d": 286.2897499999963,
      "v": 110
    },
    {
      "midi": 74,
      "hit": false,
      "t": 206709.2639999997,
      "d": 322.5799999999872,
      "v": 127
    },
    {
      "midi": 79,
      "hit": false,
      "t": 206709.2639999997,
      "d": 322.5799999999872,
      "v": 127
    },
    {
      "midi": 55,
      "hit": false,
      "t": 206902.8119999978,
      "d": 189.51574999996228,
      "v": 110
    },
    {
      "midi": 50,
      "hit": false,
      "t": 206999.58599999777,
      "d": 92.7417499999865,
      "v": 110
    },
    {
      "midi": 43,
      "hit": false,
      "t": 207096.35999999775,
      "d": 322.5800000000163,
      "v": 110
    },
    {
      "midi": 71,
      "hit": false,
      "t": 207096.3599999997,
      "d": 189.51574999999139,
      "v": 127
    },
    {
      "midi": 76,
      "hit": false,
      "t": 207096.3599999997,
      "d": 189.51574999999139,
      "v": 127
    },
    {
      "midi": 55,
      "hit": false,
      "t": 207289.90799999775,
      "d": 189.5157500000205,
      "v": 110
    },
    {
      "midi": 69,
      "hit": false,
      "t": 207289.90799999968,
      "d": 189.51574999999139,
      "v": 127
    },
    {
      "midi": 74,
      "hit": false,
      "t": 207289.90799999968,
      "d": 189.51574999999139,
      "v": 127
    },
    {
      "midi": 79,
      "hit": false,
      "t": 207483.45599999776,
      "d": 92.7417499999865,
      "v": 110
    },
    {
      "midi": 36,
      "hit": false,
      "t": 207483.45599999776,
      "d": 189.51574999996228,
      "v": 110
    },
    {
      "midi": 76,
      "hit": false,
      "t": 207483.45599999966,
      "d": 1451.609999999986,
      "v": 127
    },
    {
      "midi": 81,
      "hit": false,
      "t": 207580.22999999774,
      "d": 92.7417499999865,
      "v": 110
    },
    {
      "midi": 48,
      "hit": false,
      "t": 207677.00399999772,
      "d": 92.7417499999865,
      "v": 110
    },
    {
      "midi": 79,
      "hit": false,
      "t": 207677.00399999772,
      "d": 189.51574999996228,
      "v": 110
    },
    {
      "midi": 43,
      "hit": false,
      "t": 207773.7779999977,
      "d": 92.7417499999865,
      "v": 110
    },
    {
      "midi": 76,
      "hit": false,
      "t": 207870.55199999767,
      "d": 92.7417499999865,
      "v": 110
    },
    {
      "midi": 36,
      "hit": false,
      "t": 207870.55199999767,
      "d": 189.51574999996228,
      "v": 110
    },
    {
      "midi": 79,
      "hit": false,
      "t": 207967.32599999764,
      "d": 92.7417499999865,
      "v": 110
    },
    {
      "midi": 48,
      "hit": false,
      "t": 208064.09999999762,
      "d": 189.51574999999139,
      "v": 110
    },
    {
      "midi": 76,
      "hit": false,
      "t": 208064.09999999762,
      "d": 189.51574999999139,
      "v": 110
    },
    {
      "midi": 74,
      "hit": false,
      "t": 208257.6479999976,
      "d": 92.7417499999865,
      "v": 110
    },
    {
      "midi": 36,
      "hit": false,
      "t": 208257.6479999976,
      "d": 189.51574999996228,
      "v": 110
    },
    {
      "midi": 76,
      "hit": false,
      "t": 208354.42199999758,
      "d": 92.7417499999865,
      "v": 110
    },
    {
      "midi": 48,
      "hit": false,
      "t": 208451.19599999755,
      "d": 92.7417499999865,
      "v": 110
    },
    {
      "midi": 74,
      "hit": false,
      "t": 208451.19599999755,
      "d": 189.51574999996228,
      "v": 110
    },
    {
      "midi": 43,
      "hit": false,
      "t": 208547.96999999753,
      "d": 92.7417499999865,
      "v": 110
    },
    {
      "midi": 71,
      "hit": false,
      "t": 208644.7439999975,
      "d": 92.7417499999865,
      "v": 110
    },
    {
      "midi": 36,
      "hit": false,
      "t": 208644.7439999975,
      "d": 189.51574999996228,
      "v": 110
    },
    {
      "midi": 69,
      "hit": false,
      "t": 208741.51799999748,
      "d": 92.7417499999865,
      "v": 110
    },
    {
      "midi": 48,
      "hit": false,
      "t": 208838.29199999745,
      "d": 189.51574999999139,
      "v": 110
    },
    {
      "midi": 67,
      "hit": false,
      "t": 208838.29199999745,
      "d": 189.51574999999139,
      "v": 110
    },
    {
      "midi": 43,
      "hit": false,
      "t": 209031.83999999744,
      "d": 286.2897499999963,
      "v": 110
    },
    {
      "midi": 69,
      "hit": false,
      "t": 209031.83999999965,
      "d": 516.127999999997,
      "v": 127
    },
    {
      "midi": 74,
      "hit": false,
      "t": 209031.83999999965,
      "d": 516.127999999997,
      "v": 127
    },
    {
      "midi": 55,
      "hit": false,
      "t": 209225.38799999745,
      "d": 189.51574999996228,
      "v": 110
    },
    {
      "midi": 50,
      "hit": false,
      "t": 209322.16199999742,
      "d": 92.7417499999865,
      "v": 110
    },
    {
      "midi": 43,
      "hit": false,
      "t": 209418.9359999974,
      "d": 322.5800000000163,
      "v": 110
    },
    {
      "midi": 55,
      "hit": false,
      "t": 209612.4839999974,
      "d": 189.5157500000205,
      "v": 110
    },
    {
      "midi": 71,
      "hit": false,
      "t": 209612.48399999965,
      "d": 189.51574999999139,
      "v": 127
    },
    {
      "midi": 76,
      "hit": false,
      "t": 209612.48399999965,
      "d": 189.51574999999139,
      "v": 127
    },
    {
      "midi": 43,
      "hit": false,
      "t": 209806.03199999742,
      "d": 286.2897499999963,
      "v": 110
    },
    {
      "midi": 74,
      "hit": false,
      "t": 209806.03199999963,
      "d": 322.5799999999872,
      "v": 127
    },
    {
      "midi": 79,
      "hit": false,
      "t": 209806.03199999963,
      "d": 322.5799999999872,
      "v": 127
    },
    {
      "midi": 55,
      "hit": false,
      "t": 209999.57999999743,
      "d": 189.51574999996228,
      "v": 110
    },
    {
      "midi": 50,
      "hit": false,
      "t": 210096.3539999974,
      "d": 92.7417499999865,
      "v": 110
    },
    {
      "midi": 43,
      "hit": false,
      "t": 210193.12799999738,
      "d": 322.5800000000163,
      "v": 110
    },
    {
      "midi": 71,
      "hit": false,
      "t": 210193.12799999962,
      "d": 322.5799999999872,
      "v": 127
    },
    {
      "midi": 76,
      "hit": false,
      "t": 210193.12799999962,
      "d": 322.5799999999872,
      "v": 127
    },
    {
      "midi": 55,
      "hit": false,
      "t": 210386.6759999974,
      "d": 189.5157500000205,
      "v": 110
    },
    {
      "midi": 36,
      "hit": false,
      "t": 210580.2239999974,
      "d": 189.51574999999139,
      "v": 110
    },
    {
      "midi": 69,
      "hit": false,
      "t": 210580.2239999996,
      "d": 322.5799999999872,
      "v": 127
    },
    {
      "midi": 74,
      "hit": false,
      "t": 210580.2239999996,
      "d": 322.5799999999872,
      "v": 127
    },
    {
      "midi": 48,
      "hit": false,
      "t": 210773.77199999738,
      "d": 92.7417499999865,
      "v": 110
    },
    {
      "midi": 43,
      "hit": false,
      "t": 210870.54599999735,
      "d": 92.7417499999865,
      "v": 110
    },
    {
      "midi": 36,
      "hit": false,
      "t": 210967.31999999733,
      "d": 189.51574999999139,
      "v": 110
    },
    {
      "midi": 71,
      "hit": false,
      "t": 210967.3199999996,
      "d": 189.51574999999139,
      "v": 127
    },
    {
      "midi": 76,
      "hit": false,
      "t": 210967.3199999996,
      "d": 189.51574999999139,
      "v": 127
    },
    {
      "midi": 48,
      "hit": false,
      "t": 211160.8679999973,
      "d": 189.51574999999139,
      "v": 110
    },
    {
      "midi": 69,
      "hit": false,
      "t": 211160.86799999958,
      "d": 189.51574999999139,
      "v": 127
    },
    {
      "midi": 74,
      "hit": false,
      "t": 211160.86799999958,
      "d": 189.51574999999139,
      "v": 127
    },
    {
      "midi": 36,
      "hit": false,
      "t": 211354.4159999973,
      "d": 189.51574999999139,
      "v": 110
    },
    {
      "midi": 67,
      "hit": false,
      "t": 211354.41599999956,
      "d": 322.5799999999872,
      "v": 127
    },
    {
      "midi": 71,
      "hit": false,
      "t": 211354.41599999956,
      "d": 322.5799999999872,
      "v": 127
    },
    {
      "midi": 48,
      "hit": false,
      "t": 211547.96399999727,
      "d": 92.7417499999865,
      "v": 110
    },
    {
      "midi": 43,
      "hit": false,
      "t": 211644.73799999725,
      "d": 92.7417499999865,
      "v": 110
    },
    {
      "midi": 36,
      "hit": false,
      "t": 211741.51199999722,
      "d": 189.51574999999139,
      "v": 110
    },
    {
      "midi": 64,
      "hit": false,
      "t": 211741.51199999955,
      "d": 189.51574999999139,
      "v": 127
    },
    {
      "midi": 69,
      "hit": false,
      "t": 211741.51199999955,
      "d": 189.51574999999139,
      "v": 127
    },
    {
      "midi": 48,
      "hit": false,
      "t": 211935.0599999972,
      "d": 189.51574999999139,
      "v": 110
    },
    {
      "midi": 62,
      "hit": false,
      "t": 211935.05999999953,
      "d": 189.51574999999139,
      "v": 127
    },
    {
      "midi": 67,
      "hit": false,
      "t": 211935.05999999953,
      "d": 189.51574999999139,
      "v": 127
    },
    {
      "midi": 38,
      "hit": false,
      "t": 212128.60799999718,
      "d": 189.51574999999139,
      "v": 110
    },
    {
      "midi": 64,
      "hit": false,
      "t": 212128.6079999995,
      "d": 516.127999999997,
      "v": 127
    },
    {
      "midi": 69,
      "hit": false,
      "t": 212128.6079999995,
      "d": 516.127999999997,
      "v": 127
    },
    {
      "midi": 50,
      "hit": false,
      "t": 212322.15599999717,
      "d": 92.7417499999865,
      "v": 110
    },
    {
      "midi": 45,
      "hit": false,
      "t": 212418.92999999714,
      "d": 92.7417499999865,
      "v": 110
    },
    {
      "midi": 38,
      "hit": false,
      "t": 212515.70399999712,
      "d": 189.51574999999139,
      "v": 110
    },
    {
      "midi": 50,
      "hit": false,
      "t": 212709.2519999971,
      "d": 189.51574999999139,
      "v": 110
    },
    {
      "midi": 66,
      "hit": false,
      "t": 212709.2519999995,
      "d": 189.51574999999139,
      "v": 127
    },
    {
      "midi": 71,
      "hit": false,
      "t": 212709.2519999995,
      "d": 189.51574999999139,
      "v": 127
    },
    {
      "midi": 38,
      "hit": false,
      "t": 212902.79999999708,
      "d": 189.51574999999139,
      "v": 110
    },
    {
      "midi": 64,
      "hit": false,
      "t": 212902.7999999995,
      "d": 189.51574999999139,
      "v": 127
    },
    {
      "midi": 69,
      "hit": false,
      "t": 212902.7999999995,
      "d": 189.51574999999139,
      "v": 127
    },
    {
      "midi": 50,
      "hit": false,
      "t": 213096.34799999706,
      "d": 92.7417499999865,
      "v": 110
    },
    {
      "midi": 62,
      "hit": false,
      "t": 213096.34799999947,
      "d": 189.51574999999139,
      "v": 127
    },
    {
      "midi": 67,
      "hit": false,
      "t": 213096.34799999947,
      "d": 189.51574999999139,
      "v": 127
    },
    {
      "midi": 45,
      "hit": false,
      "t": 213193.12199999703,
      "d": 92.7417499999865,
      "v": 110
    },
    {
      "midi": 38,
      "hit": false,
      "t": 213289.895999997,
      "d": 189.51574999999139,
      "v": 110
    },
    {
      "midi": 59,
      "hit": false,
      "t": 213289.89599999945,
      "d": 189.51574999999139,
      "v": 127
    },
    {
      "midi": 64,
      "hit": false,
      "t": 213289.89599999945,
      "d": 189.51574999999139,
      "v": 127
    },
    {
      "midi": 50,
      "hit": false,
      "t": 213483.443999997,
      "d": 189.51574999999139,
      "v": 110
    },
    {
      "midi": 57,
      "hit": false,
      "t": 213483.44399999944,
      "d": 189.51574999999139,
      "v": 127
    },
    {
      "midi": 62,
      "hit": false,
      "t": 213483.44399999944,
      "d": 189.51574999999139,
      "v": 127
    },
    {
      "midi": 40,
      "hit": false,
      "t": 213676.99199999697,
      "d": 189.51574999999139,
      "v": 110
    },
    {
      "midi": 59,
      "hit": false,
      "t": 213676.99199999942,
      "d": 1451.609999999986,
      "v": 127
    },
    {
      "midi": 64,
      "hit": false,
      "t": 213676.99199999942,
      "d": 1451.609999999986,
      "v": 127
    },
    {
      "midi": 52,
      "hit": false,
      "t": 213870.53999999695,
      "d": 92.7417499999865,
      "v": 110
    },
    {
      "midi": 47,
      "hit": false,
      "t": 213967.31399999693,
      "d": 92.7417499999865,
      "v": 110
    },
    {
      "midi": 40,
      "hit": false,
      "t": 214064.0879999969,
      "d": 189.51574999999139,
      "v": 110
    },
    {
      "midi": 52,
      "hit": false,
      "t": 214257.63599999688,
      "d": 189.51574999999139,
      "v": 110
    },
    {
      "midi": 40,
      "hit": false,
      "t": 214451.18399999687,
      "d": 189.51574999999139,
      "v": 110
    },
    {
      "midi": 52,
      "hit": false,
      "t": 214644.73199999685,
      "d": 92.7417499999865,
      "v": 110
    },
    {
      "midi": 47,
      "hit": false,
      "t": 214741.50599999682,
      "d": 92.7417499999865,
      "v": 110
    },
    {
      "midi": 40,
      "hit": false,
      "t": 214838.2799999968,
      "d": 189.51574999999139,
      "v": 110
    },
    {
      "midi": 52,
      "hit": false,
      "t": 215031.82799999678,
      "d": 189.51574999999139,
      "v": 110
    },
    {
      "midi": 38,
      "hit": false,
      "t": 215225.37599999676,
      "d": 189.51574999999139,
      "v": 110
    },
    {
      "midi": 69,
      "hit": false,
      "t": 215225.3759999994,
      "d": 516.127999999997,
      "v": 127
    },
    {
      "midi": 81,
      "hit": false,
      "t": 215225.3759999994,
      "d": 516.127999999997,
      "v": 127
    },
    {
      "midi": 50,
      "hit": false,
      "t": 215418.92399999674,
      "d": 92.7417499999865,
      "v": 110
    },
    {
      "midi": 45,
      "hit": false,
      "t": 215515.69799999672,
      "d": 92.7417499999865,
      "v": 110
    },
    {
      "midi": 38,
      "hit": false,
      "t": 215612.4719999967,
      "d": 189.51574999999139,
      "v": 110
    },
    {
      "midi": 50,
      "hit": false,
      "t": 215806.01999999667,
      "d": 189.51574999999139,
      "v": 110
    },
    {
      "midi": 71,
      "hit": false,
      "t": 215806.0199999994,
      "d": 189.51574999999139,
      "v": 127
    },
    {
      "midi": 83,
      "hit": false,
      "t": 215806.0199999994,
      "d": 189.51574999999139,
      "v": 127
    },
    {
      "midi": 38,
      "hit": false,
      "t": 215999.56799999665,
      "d": 189.51574999999139,
      "v": 110
    },
    {
      "midi": 74,
      "hit": false,
      "t": 215999.5679999994,
      "d": 322.5799999999872,
      "v": 127
    },
    {
      "midi": 86,
      "hit": false,
      "t": 215999.5679999994,
      "d": 322.5799999999872,
      "v": 127
    },
    {
      "midi": 50,
      "hit": false,
      "t": 216193.11599999663,
      "d": 92.7417499999865,
      "v": 110
    },
    {
      "midi": 45,
      "hit": false,
      "t": 216289.8899999966,
      "d": 92.7417499999865,
      "v": 110
    },
    {
      "midi": 38,
      "hit": false,
      "t": 216386.66399999658,
      "d": 189.51574999999139,
      "v": 110
    },
    {
      "midi": 86,
      "hit": false,
      "t": 216386.66399999938,
      "d": 189.51574999999139,
      "v": 127
    },
    {
      "midi": 50,
      "hit": false,
      "t": 216580.21199999657,
      "d": 189.51574999999139,
      "v": 110
    },
    {
      "midi": 76,
      "hit": false,
      "t": 216580.21199999936,
      "d": 92.7417499999865,
      "v": 127
    },
    {
      "midi": 88,
      "hit": false,
      "t": 216580.21199999936,
      "d": 92.7417499999865,
      "v": 127
    },
    {
      "midi": 74,
      "hit": false,
      "t": 216676.98599999934,
      "d": 92.7417499999865,
      "v": 127
    },
    {
      "midi": 86,
      "hit": false,
      "t": 216676.98599999934,
      "d": 92.7417499999865,
      "v": 127
    },
    {
      "midi": 36,
      "hit": false,
      "t": 216773.75999999655,
      "d": 189.51574999999139,
      "v": 110
    },
    {
      "midi": 71,
      "hit": false,
      "t": 216773.7599999993,
      "d": 322.5799999999872,
      "v": 127
    },
    {
      "midi": 83,
      "hit": false,
      "t": 216773.7599999993,
      "d": 322.5799999999872,
      "v": 127
    },
    {
      "midi": 48,
      "hit": false,
      "t": 216967.30799999653,
      "d": 92.7417499999865,
      "v": 110
    },
    {
      "midi": 43,
      "hit": false,
      "t": 217064.0819999965,
      "d": 92.7417499999865,
      "v": 110
    },
    {
      "midi": 36,
      "hit": false,
      "t": 217160.85599999648,
      "d": 189.51574999999139,
      "v": 110
    },
    {
      "midi": 74,
      "hit": false,
      "t": 217160.8559999993,
      "d": 189.51574999999139,
      "v": 127
    },
    {
      "midi": 86,
      "hit": false,
      "t": 217160.8559999993,
      "d": 189.51574999999139,
      "v": 127
    },
    {
      "midi": 48,
      "hit": false,
      "t": 217354.40399999646,
      "d": 189.51574999999139,
      "v": 110
    },
    {
      "midi": 71,
      "hit": false,
      "t": 217354.40399999928,
      "d": 189.51574999999139,
      "v": 127
    },
    {
      "midi": 83,
      "hit": false,
      "t": 217354.40399999928,
      "d": 189.51574999999139,
      "v": 127
    },
    {
      "midi": 36,
      "hit": false,
      "t": 217547.95199999644,
      "d": 189.51574999999139,
      "v": 110
    },
    {
      "midi": 69,
      "hit": false,
      "t": 217547.95199999926,
      "d": 189.51574999999139,
      "v": 127
    },
    {
      "midi": 81,
      "hit": false,
      "t": 217547.95199999926,
      "d": 189.51574999999139,
      "v": 127
    },
    {
      "midi": 48,
      "hit": false,
      "t": 217741.49999999642,
      "d": 92.7417499999865,
      "v": 110
    },
    {
      "midi": 71,
      "hit": false,
      "t": 217741.49999999924,
      "d": 92.7417499999865,
      "v": 127
    },
    {
      "midi": 83,
      "hit": false,
      "t": 217741.49999999924,
      "d": 92.7417499999865,
      "v": 127
    },
    {
      "midi": 43,
      "hit": false,
      "t": 217838.2739999964,
      "d": 92.7417499999865,
      "v": 110
    },
    {
      "midi": 69,
      "hit": false,
      "t": 217838.27399999922,
      "d": 92.7417499999865,
      "v": 127
    },
    {
      "midi": 81,
      "hit": false,
      "t": 217838.27399999922,
      "d": 92.7417499999865,
      "v": 127
    },
    {
      "midi": 36,
      "hit": false,
      "t": 217935.04799999637,
      "d": 189.51574999999139,
      "v": 110
    },
    {
      "midi": 67,
      "hit": false,
      "t": 217935.0479999992,
      "d": 189.51574999999139,
      "v": 127
    },
    {
      "midi": 79,
      "hit": false,
      "t": 217935.0479999992,
      "d": 189.51574999999139,
      "v": 127
    },
    {
      "midi": 48,
      "hit": false,
      "t": 218128.59599999635,
      "d": 189.51574999999139,
      "v": 110
    },
    {
      "midi": 64,
      "hit": false,
      "t": 218128.59599999918,
      "d": 92.7417499999865,
      "v": 127
    },
    {
      "midi": 76,
      "hit": false,
      "t": 218128.59599999918,
      "d": 92.7417499999865,
      "v": 127
    },
    {
      "midi": 62,
      "hit": false,
      "t": 218225.36999999915,
      "d": 92.7417499999865,
      "v": 127
    },
    {
      "midi": 74,
      "hit": false,
      "t": 218225.36999999915,
      "d": 92.7417499999865,
      "v": 127
    },
    {
      "midi": 47,
      "hit": false,
      "t": 218322.14399999633,
      "d": 286.2897499999963,
      "v": 110
    },
    {
      "midi": 74,
      "hit": false,
      "t": 218322.14399999913,
      "d": 677.4180000000051,
      "v": 127
    },
    {
      "midi": 86,
      "hit": false,
      "t": 218322.14399999913,
      "d": 677.4180000000051,
      "v": 127
    },
    {
      "midi": 59,
      "hit": false,
      "t": 218515.69199999634,
      "d": 189.51574999996228,
      "v": 110
    },
    {
      "midi": 42,
      "hit": false,
      "t": 218612.46599999632,
      "d": 92.7417499999865,
      "v": 110
    },
    {
      "midi": 47,
      "hit": false,
      "t": 218709.2399999963,
      "d": 322.5800000000163,
      "v": 110
    },
    {
      "midi": 59,
      "hit": false,
      "t": 218902.7879999963,
      "d": 189.5157500000205,
      "v": 110
    },
    {
      "midi": 47,
      "hit": false,
      "t": 219096.3359999963,
      "d": 286.2897499999963,
      "v": 110
    },
    {
      "midi": 74,
      "hit": false,
      "t": 219096.33599999914,
      "d": 516.127999999997,
      "v": 127
    },
    {
      "midi": 86,
      "hit": false,
      "t": 219096.33599999914,
      "d": 516.127999999997,
      "v": 127
    },
    {
      "midi": 59,
      "hit": false,
      "t": 219289.88399999632,
      "d": 189.51574999996228,
      "v": 110
    },
    {
      "midi": 42,
      "hit": false,
      "t": 219386.6579999963,
      "d": 92.7417499999865,
      "v": 110
    },
    {
      "midi": 47,
      "hit": false,
      "t": 219483.43199999628,
      "d": 322.5800000000163,
      "v": 110
    },
    {
      "midi": 59,
      "hit": false,
      "t": 219676.97999999629,
      "d": 189.5157500000205,
      "v": 110
    },
    {
      "midi": 71,
      "hit": false,
      "t": 219676.97999999914,
      "d": 189.51574999999139,
      "v": 127
    },
    {
      "midi": 83,
      "hit": false,
      "t": 219676.97999999914,
      "d": 189.51574999999139,
      "v": 127
    },
    {
      "midi": 38,
      "hit": false,
      "t": 219870.5279999963,
      "d": 189.51574999999139,
      "v": 110
    },
    {
      "midi": 74,
      "hit": false,
      "t": 219870.52799999912,
      "d": 1451.609999999986,
      "v": 127
    },
    {
      "midi": 86,
      "hit": false,
      "t": 219870.52799999912,
      "d": 1451.609999999986,
      "v": 127
    },
    {
      "midi": 50,
      "hit": false,
      "t": 220064.07599999628,
      "d": 92.7417499999865,
      "v": 110
    },
    {
      "midi": 45,
      "hit": false,
      "t": 220160.84999999625,
      "d": 92.7417499999865,
      "v": 110
    },
    {
      "midi": 38,
      "hit": false,
      "t": 220257.62399999623,
      "d": 189.51574999999139,
      "v": 110
    },
    {
      "midi": 50,
      "hit": false,
      "t": 220451.1719999962,
      "d": 189.51574999999139,
      "v": 110
    },
    {
      "midi": 38,
      "hit": false,
      "t": 220644.7199999962,
      "d": 189.51574999999139,
      "v": 110
    },
    {
      "midi": 50,
      "hit": false,
      "t": 220838.26799999617,
      "d": 92.7417499999865,
      "v": 110
    },
    {
      "midi": 45,
      "hit": false,
      "t": 220935.04199999615,
      "d": 92.7417499999865,
      "v": 110
    },
    {
      "midi": 38,
      "hit": false,
      "t": 221031.81599999612,
      "d": 189.51574999999139,
      "v": 110
    },
    {
      "midi": 50,
      "hit": false,
      "t": 221225.3639999961,
      "d": 189.51574999999139,
      "v": 110
    },
    {
      "midi": 40,
      "hit": false,
      "t": 221418.91199999608,
      "d": 1451.609999999986,
      "v": 110
    },
    {
      "midi": 76,
      "hit": false,
      "t": 221418.9119999991,
      "d": 516.127999999997,
      "v": 127
    },
    {
      "midi": 79,
      "hit": false,
      "t": 221999.5559999991,
      "d": 189.51574999999139,
      "v": 127
    },
    {
      "midi": 81,
      "hit": false,
      "t": 222193.1039999991,
      "d": 322.5799999999872,
      "v": 127
    },
    {
      "midi": 79,
      "hit": false,
      "t": 222580.19999999908,
      "d": 322.5799999999872,
      "v": 127
    },
    {
      "midi": 36,
      "hit": false,
      "t": 222967.29599999607,
      "d": 1451.609999999986,
      "v": 110
    },
    {
      "midi": 76,
      "hit": false,
      "t": 222967.29599999907,
      "d": 516.127999999997,
      "v": 127
    },
    {
      "midi": 74,
      "hit": false,
      "t": 223547.93999999907,
      "d": 189.51574999999139,
      "v": 127
    },
    {
      "midi": 71,
      "hit": false,
      "t": 223741.48799999905,
      "d": 322.5799999999872,
      "v": 127
    },
    {
      "midi": 69,
      "hit": false,
      "t": 224128.58399999904,
      "d": 189.51574999999139,
      "v": 127
    },
    {
      "midi": 67,
      "hit": false,
      "t": 224322.13199999902,
      "d": 189.51574999999139,
      "v": 127
    },
    {
      "midi": 38,
      "hit": false,
      "t": 224515.67999999606,
      "d": 1451.609999999986,
      "v": 110
    },
    {
      "midi": 69,
      "hit": false,
      "t": 224515.679999999,
      "d": 516.127999999997,
      "v": 127
    },
    {
      "midi": 71,
      "hit": false,
      "t": 225096.323999999,
      "d": 189.51574999999139,
      "v": 127
    },
    {
      "midi": 74,
      "hit": false,
      "t": 225289.87199999898,
      "d": 322.5799999999872,
      "v": 127
    },
    {
      "midi": 76,
      "hit": false,
      "t": 225676.96799999897,
      "d": 322.5799999999872,
      "v": 127
    },
    {
      "midi": 40,
      "hit": false,
      "t": 226064.06399999605,
      "d": 1451.609999999986,
      "v": 110
    },
    {
      "midi": 79,
      "hit": false,
      "t": 226064.06399999897,
      "d": 1451.609999999986,
      "v": 127
    },
    {
      "midi": 43,
      "hit": false,
      "t": 227612.44799999605,
      "d": 286.2897499999963,
      "v": 110
    },
    {
      "midi": 69,
      "hit": false,
      "t": 227612.44799999896,
      "d": 516.127999999997,
      "v": 127
    },
    {
      "midi": 74,
      "hit": false,
      "t": 227612.44799999896,
      "d": 516.127999999997,
      "v": 127
    },
    {
      "midi": 55,
      "hit": false,
      "t": 227805.99599999606,
      "d": 189.51574999996228,
      "v": 110
    },
    {
      "midi": 50,
      "hit": false,
      "t": 227902.76999999603,
      "d": 92.7417499999865,
      "v": 110
    },
    {
      "midi": 43,
      "hit": false,
      "t": 227999.543999996,
      "d": 322.5800000000163,
      "v": 110
    },
    {
      "midi": 55,
      "hit": false,
      "t": 228193.09199999602,
      "d": 189.5157500000205,
      "v": 110
    },
    {
      "midi": 71,
      "hit": false,
      "t": 228193.09199999896,
      "d": 189.51574999999139,
      "v": 127
    },
    {
      "midi": 76,
      "hit": false,
      "t": 228193.09199999896,
      "d": 189.51574999999139,
      "v": 127
    },
    {
      "midi": 43,
      "hit": false,
      "t": 228386.63999999603,
      "d": 286.2897499999963,
      "v": 110
    },
    {
      "midi": 74,
      "hit": false,
      "t": 228386.63999999894,
      "d": 322.5799999999872,
      "v": 127
    },
    {
      "midi": 79,
      "hit": false,
      "t": 228386.63999999894,
      "d": 322.5799999999872,
      "v": 127
    },
    {
      "midi": 55,
      "hit": false,
      "t": 228580.18799999604,
      "d": 189.51574999996228,
      "v": 110
    },
    {
      "midi": 50,
      "hit": false,
      "t": 228676.961999996,
      "d": 92.7417499999865,
      "v": 110
    },
    {
      "midi": 43,
      "hit": false,
      "t": 228773.735999996,
      "d": 322.5800000000163,
      "v": 110
    },
    {
      "midi": 71,
      "hit": false,
      "t": 228773.73599999893,
      "d": 322.5799999999872,
      "v": 127
    },
    {
      "midi": 76,
      "hit": false,
      "t": 228773.73599999893,
      "d": 322.5799999999872,
      "v": 127
    },
    {
      "midi": 55,
      "hit": false,
      "t": 228967.283999996,
      "d": 189.5157500000205,
      "v": 110
    },
    {
      "midi": 36,
      "hit": false,
      "t": 229160.831999996,
      "d": 189.51574999999139,
      "v": 110
    },
    {
      "midi": 69,
      "hit": false,
      "t": 229160.83199999892,
      "d": 322.5799999999872,
      "v": 127
    },
    {
      "midi": 74,
      "hit": false,
      "t": 229160.83199999892,
      "d": 322.5799999999872,
      "v": 127
    },
    {
      "midi": 48,
      "hit": false,
      "t": 229354.379999996,
      "d": 92.7417499999865,
      "v": 110
    },
    {
      "midi": 43,
      "hit": false,
      "t": 229451.15399999596,
      "d": 92.7417499999865,
      "v": 110
    },
    {
      "midi": 36,
      "hit": false,
      "t": 229547.92799999594,
      "d": 189.51574999999139,
      "v": 110
    },
    {
      "midi": 71,
      "hit": false,
      "t": 229547.9279999989,
      "d": 189.51574999999139,
      "v": 127
    },
    {
      "midi": 76,
      "hit": false,
      "t": 229547.9279999989,
      "d": 189.51574999999139,
      "v": 127
    },
    {
      "midi": 48,
      "hit": false,
      "t": 229741.47599999592,
      "d": 189.51574999999139,
      "v": 110
    },
    {
      "midi": 69,
      "hit": false,
      "t": 229741.4759999989,
      "d": 189.51574999999139,
      "v": 127
    },
    {
      "midi": 74,
      "hit": false,
      "t": 229741.4759999989,
      "d": 189.51574999999139,
      "v": 127
    },
    {
      "midi": 36,
      "hit": false,
      "t": 229935.0239999959,
      "d": 189.51574999999139,
      "v": 110
    },
    {
      "midi": 67,
      "hit": false,
      "t": 229935.02399999887,
      "d": 322.5799999999872,
      "v": 127
    },
    {
      "midi": 71,
      "hit": false,
      "t": 229935.02399999887,
      "d": 322.5799999999872,
      "v": 127
    },
    {
      "midi": 48,
      "hit": false,
      "t": 230128.57199999588,
      "d": 92.7417499999865,
      "v": 110
    },
    {
      "midi": 43,
      "hit": false,
      "t": 230225.34599999586,
      "d": 92.7417499999865,
      "v": 110
    },
    {
      "midi": 36,
      "hit": false,
      "t": 230322.11999999583,
      "d": 189.51574999999139,
      "v": 110
    },
    {
      "midi": 64,
      "hit": false,
      "t": 230322.11999999886,
      "d": 189.51574999999139,
      "v": 127
    },
    {
      "midi": 69,
      "hit": false,
      "t": 230322.11999999886,
      "d": 189.51574999999139,
      "v": 127
    },
    {
      "midi": 48,
      "hit": false,
      "t": 230515.6679999958,
      "d": 189.51574999999139,
      "v": 110
    },
    {
      "midi": 62,
      "hit": false,
      "t": 230515.66799999884,
      "d": 189.51574999999139,
      "v": 127
    },
    {
      "midi": 67,
      "hit": false,
      "t": 230515.66799999884,
      "d": 189.51574999999139,
      "v": 127
    },
    {
      "midi": 43,
      "hit": false,
      "t": 230709.2159999958,
      "d": 286.2897499999963,
      "v": 110
    },
    {
      "midi": 69,
      "hit": false,
      "t": 230709.21599999882,
      "d": 516.127999999997,
      "v": 127
    },
    {
      "midi": 74,
      "hit": false,
      "t": 230709.21599999882,
      "d": 516.127999999997,
      "v": 127
    },
    {
      "midi": 55,
      "hit": false,
      "t": 230902.7639999958,
      "d": 189.51574999996228,
      "v": 110
    },
    {
      "midi": 50,
      "hit": false,
      "t": 230999.53799999578,
      "d": 92.7417499999865,
      "v": 110
    },
    {
      "midi": 43,
      "hit": false,
      "t": 231096.31199999576,
      "d": 322.5800000000163,
      "v": 110
    },
    {
      "midi": 55,
      "hit": false,
      "t": 231289.85999999577,
      "d": 189.5157500000205,
      "v": 110
    },
    {
      "midi": 71,
      "hit": false,
      "t": 231289.85999999882,
      "d": 189.51574999999139,
      "v": 127
    },
    {
      "midi": 76,
      "hit": false,
      "t": 231289.85999999882,
      "d": 189.51574999999139,
      "v": 127
    },
    {
      "midi": 43,
      "hit": false,
      "t": 231483.40799999578,
      "d": 286.2897499999963,
      "v": 110
    },
    {
      "midi": 74,
      "hit": false,
      "t": 231483.4079999988,
      "d": 322.5799999999872,
      "v": 127
    },
    {
      "midi": 79,
      "hit": false,
      "t": 231483.4079999988,
      "d": 322.5799999999872,
      "v": 127
    },
    {
      "midi": 55,
      "hit": false,
      "t": 231676.9559999958,
      "d": 189.51574999996228,
      "v": 110
    },
    {
      "midi": 50,
      "hit": false,
      "t": 231773.72999999576,
      "d": 92.7417499999865,
      "v": 110
    },
    {
      "midi": 43,
      "hit": false,
      "t": 231870.50399999574,
      "d": 322.5800000000163,
      "v": 110
    },
    {
      "midi": 71,
      "hit": false,
      "t": 231870.5039999988,
      "d": 189.51574999999139,
      "v": 127
    },
    {
      "midi": 76,
      "hit": false,
      "t": 231870.5039999988,
      "d": 189.51574999999139,
      "v": 127
    },
    {
      "midi": 55,
      "hit": false,
      "t": 232064.05199999575,
      "d": 189.5157500000205,
      "v": 110
    },
    {
      "midi": 69,
      "hit": false,
      "t": 232064.05199999877,
      "d": 189.51574999999139,
      "v": 127
    },
    {
      "midi": 74,
      "hit": false,
      "t": 232064.05199999877,
      "d": 189.51574999999139,
      "v": 127
    },
    {
      "midi": 79,
      "hit": false,
      "t": 232257.59999999576,
      "d": 92.7417499999865,
      "v": 110
    },
    {
      "midi": 36,
      "hit": false,
      "t": 232257.59999999576,
      "d": 189.51574999996228,
      "v": 110
    },
    {
      "midi": 76,
      "hit": false,
      "t": 232257.59999999875,
      "d": 1451.609999999986,
      "v": 127
    },
    {
      "midi": 81,
      "hit": false,
      "t": 232354.37399999573,
      "d": 92.7417499999865,
      "v": 110
    },
    {
      "midi": 48,
      "hit": false,
      "t": 232451.1479999957,
      "d": 92.7417499999865,
      "v": 110
    },
    {
      "midi": 79,
      "hit": false,
      "t": 232451.1479999957,
      "d": 189.51574999996228,
      "v": 110
    },
    {
      "midi": 43,
      "hit": false,
      "t": 232547.92199999568,
      "d": 92.7417499999865,
      "v": 110
    },
    {
      "midi": 76,
      "hit": false,
      "t": 232644.69599999566,
      "d": 92.7417499999865,
      "v": 110
    },
    {
      "midi": 36,
      "hit": false,
      "t": 232644.69599999566,
      "d": 189.51574999996228,
      "v": 110
    },
    {
      "midi": 79,
      "hit": false,
      "t": 232741.46999999564,
      "d": 92.7417499999865,
      "v": 110
    },
    {
      "midi": 48,
      "hit": false,
      "t": 232838.2439999956,
      "d": 189.51574999999139,
      "v": 110
    },
    {
      "midi": 76,
      "hit": false,
      "t": 232838.2439999956,
      "d": 189.51574999999139,
      "v": 110
    },
    {
      "midi": 74,
      "hit": false,
      "t": 233031.7919999956,
      "d": 92.7417499999865,
      "v": 110
    },
    {
      "midi": 36,
      "hit": false,
      "t": 233031.7919999956,
      "d": 189.51574999996228,
      "v": 110
    },
    {
      "midi": 76,
      "hit": false,
      "t": 233128.56599999557,
      "d": 92.7417499999865,
      "v": 110
    },
    {
      "midi": 48,
      "hit": false,
      "t": 233225.33999999554,
      "d": 92.7417499999865,
      "v": 110
    },
    {
      "midi": 74,
      "hit": false,
      "t": 233225.33999999554,
      "d": 189.51574999996228,
      "v": 110
    },
    {
      "midi": 43,
      "hit": false,
      "t": 233322.11399999552,
      "d": 92.7417499999865,
      "v": 110
    },
    {
      "midi": 71,
      "hit": false,
      "t": 233418.8879999955,
      "d": 92.7417499999865,
      "v": 110
    },
    {
      "midi": 36,
      "hit": false,
      "t": 233418.8879999955,
      "d": 189.51574999996228,
      "v": 110
    },
    {
      "midi": 69,
      "hit": false,
      "t": 233515.66199999547,
      "d": 92.7417499999865,
      "v": 110
    },
    {
      "midi": 48,
      "hit": false,
      "t": 233612.43599999545,
      "d": 189.51574999999139,
      "v": 110
    },
    {
      "midi": 67,
      "hit": false,
      "t": 233612.43599999545,
      "d": 189.51574999999139,
      "v": 110
    },
    {
      "midi": 43,
      "hit": false,
      "t": 233805.98399999543,
      "d": 286.2897499999963,
      "v": 110
    },
    {
      "midi": 69,
      "hit": false,
      "t": 233805.98399999875,
      "d": 516.127999999997,
      "v": 127
    },
    {
      "midi": 74,
      "hit": false,
      "t": 233805.98399999875,
      "d": 516.127999999997,
      "v": 127
    },
    {
      "midi": 55,
      "hit": false,
      "t": 233999.53199999544,
      "d": 189.51574999996228,
      "v": 110
    },
    {
      "midi": 50,
      "hit": false,
      "t": 234096.3059999954,
      "d": 92.7417499999865,
      "v": 110
    },
    {
      "midi": 43,
      "hit": false,
      "t": 234193.0799999954,
      "d": 322.5800000000163,
      "v": 110
    },
    {
      "midi": 55,
      "hit": false,
      "t": 234386.6279999954,
      "d": 189.5157500000205,
      "v": 110
    },
    {
      "midi": 71,
      "hit": false,
      "t": 234386.62799999875,
      "d": 189.51574999999139,
      "v": 127
    },
    {
      "midi": 76,
      "hit": false,
      "t": 234386.62799999875,
      "d": 189.51574999999139,
      "v": 127
    },
    {
      "midi": 43,
      "hit": false,
      "t": 234580.1759999954,
      "d": 286.2897499999963,
      "v": 110
    },
    {
      "midi": 74,
      "hit": false,
      "t": 234580.17599999873,
      "d": 322.5799999999872,
      "v": 127
    },
    {
      "midi": 79,
      "hit": false,
      "t": 234580.17599999873,
      "d": 322.5799999999872,
      "v": 127
    },
    {
      "midi": 55,
      "hit": false,
      "t": 234773.72399999542,
      "d": 189.51574999996228,
      "v": 110
    },
    {
      "midi": 50,
      "hit": false,
      "t": 234870.4979999954,
      "d": 92.7417499999865,
      "v": 110
    },
    {
      "midi": 43,
      "hit": false,
      "t": 234967.27199999537,
      "d": 322.5800000000163,
      "v": 110
    },
    {
      "midi": 71,
      "hit": false,
      "t": 234967.27199999872,
      "d": 322.5799999999872,
      "v": 127
    },
    {
      "midi": 76,
      "hit": false,
      "t": 234967.27199999872,
      "d": 322.5799999999872,
      "v": 127
    },
    {
      "midi": 55,
      "hit": false,
      "t": 235160.81999999538,
      "d": 189.5157500000205,
      "v": 110
    },
    {
      "midi": 36,
      "hit": false,
      "t": 235354.3679999954,
      "d": 189.51574999999139,
      "v": 110
    },
    {
      "midi": 69,
      "hit": false,
      "t": 235354.3679999987,
      "d": 322.5799999999872,
      "v": 127
    },
    {
      "midi": 74,
      "hit": false,
      "t": 235354.3679999987,
      "d": 322.5799999999872,
      "v": 127
    },
    {
      "midi": 48,
      "hit": false,
      "t": 235547.91599999537,
      "d": 92.7417499999865,
      "v": 110
    },
    {
      "midi": 43,
      "hit": false,
      "t": 235644.68999999535,
      "d": 92.7417499999865,
      "v": 110
    },
    {
      "midi": 36,
      "hit": false,
      "t": 235741.46399999532,
      "d": 189.51574999999139,
      "v": 110
    },
    {
      "midi": 71,
      "hit": false,
      "t": 235741.4639999987,
      "d": 189.51574999999139,
      "v": 127
    },
    {
      "midi": 76,
      "hit": false,
      "t": 235741.4639999987,
      "d": 189.51574999999139,
      "v": 127
    },
    {
      "midi": 48,
      "hit": false,
      "t": 235935.0119999953,
      "d": 189.51574999999139,
      "v": 110
    },
    {
      "midi": 69,
      "hit": false,
      "t": 235935.01199999868,
      "d": 189.51574999999139,
      "v": 127
    },
    {
      "midi": 74,
      "hit": false,
      "t": 235935.01199999868,
      "d": 189.51574999999139,
      "v": 127
    },
    {
      "midi": 36,
      "hit": false,
      "t": 236128.55999999528,
      "d": 189.51574999999139,
      "v": 110
    },
    {
      "midi": 67,
      "hit": false,
      "t": 236128.55999999866,
      "d": 322.5799999999872,
      "v": 127
    },
    {
      "midi": 71,
      "hit": false,
      "t": 236128.55999999866,
      "d": 322.5799999999872,
      "v": 127
    },
    {
      "midi": 48,
      "hit": false,
      "t": 236322.10799999526,
      "d": 92.7417499999865,
      "v": 110
    },
    {
      "midi": 43,
      "hit": false,
      "t": 236418.88199999524,
      "d": 92.7417499999865,
      "v": 110
    },
    {
      "midi": 36,
      "hit": false,
      "t": 236515.65599999522,
      "d": 189.51574999999139,
      "v": 110
    },
    {
      "midi": 64,
      "hit": false,
      "t": 236515.65599999865,
      "d": 189.51574999999139,
      "v": 127
    },
    {
      "midi": 69,
      "hit": false,
      "t": 236515.65599999865,
      "d": 189.51574999999139,
      "v": 127
    },
    {
      "midi": 48,
      "hit": false,
      "t": 236709.2039999952,
      "d": 189.51574999999139,
      "v": 110
    },
    {
      "midi": 62,
      "hit": false,
      "t": 236709.20399999863,
      "d": 189.51574999999139,
      "v": 127
    },
    {
      "midi": 67,
      "hit": false,
      "t": 236709.20399999863,
      "d": 189.51574999999139,
      "v": 127
    },
    {
      "midi": 38,
      "hit": false,
      "t": 236902.75199999518,
      "d": 189.51574999999139,
      "v": 110
    },
    {
      "midi": 64,
      "hit": false,
      "t": 236902.7519999986,
      "d": 516.127999999997,
      "v": 127
    },
    {
      "midi": 69,
      "hit": false,
      "t": 236902.7519999986,
      "d": 516.127999999997,
      "v": 127
    },
    {
      "midi": 50,
      "hit": false,
      "t": 237096.29999999516,
      "d": 92.7417499999865,
      "v": 110
    },
    {
      "midi": 45,
      "hit": false,
      "t": 237193.07399999513,
      "d": 92.7417499999865,
      "v": 110
    },
    {
      "midi": 38,
      "hit": false,
      "t": 237289.8479999951,
      "d": 189.51574999999139,
      "v": 110
    },
    {
      "midi": 50,
      "hit": false,
      "t": 237483.3959999951,
      "d": 189.51574999999139,
      "v": 110
    },
    {
      "midi": 66,
      "hit": false,
      "t": 237483.3959999986,
      "d": 189.51574999999139,
      "v": 127
    },
    {
      "midi": 71,
      "hit": false,
      "t": 237483.3959999986,
      "d": 189.51574999999139,
      "v": 127
    },
    {
      "midi": 38,
      "hit": false,
      "t": 237676.94399999507,
      "d": 189.51574999999139,
      "v": 110
    },
    {
      "midi": 64,
      "hit": false,
      "t": 237676.9439999986,
      "d": 189.51574999999139,
      "v": 127
    },
    {
      "midi": 69,
      "hit": false,
      "t": 237676.9439999986,
      "d": 189.51574999999139,
      "v": 127
    },
    {
      "midi": 50,
      "hit": false,
      "t": 237870.49199999505,
      "d": 92.7417499999865,
      "v": 110
    },
    {
      "midi": 62,
      "hit": false,
      "t": 237870.49199999857,
      "d": 189.51574999999139,
      "v": 127
    },
    {
      "midi": 67,
      "hit": false,
      "t": 237870.49199999857,
      "d": 189.51574999999139,
      "v": 127
    },
    {
      "midi": 45,
      "hit": false,
      "t": 237967.26599999503,
      "d": 92.7417499999865,
      "v": 110
    },
    {
      "midi": 38,
      "hit": false,
      "t": 238064.039999995,
      "d": 189.51574999999139,
      "v": 110
    },
    {
      "midi": 59,
      "hit": false,
      "t": 238064.03999999855,
      "d": 189.51574999999139,
      "v": 127
    },
    {
      "midi": 64,
      "hit": false,
      "t": 238064.03999999855,
      "d": 189.51574999999139,
      "v": 127
    },
    {
      "midi": 50,
      "hit": false,
      "t": 238257.58799999498,
      "d": 189.51574999999139,
      "v": 110
    },
    {
      "midi": 57,
      "hit": false,
      "t": 238257.58799999853,
      "d": 189.51574999999139,
      "v": 127
    },
    {
      "midi": 62,
      "hit": false,
      "t": 238257.58799999853,
      "d": 189.51574999999139,
      "v": 127
    },
    {
      "midi": 40,
      "hit": false,
      "t": 238451.13599999496,
      "d": 189.51574999999139,
      "v": 110
    },
    {
      "midi": 59,
      "hit": false,
      "t": 238451.1359999985,
      "d": 1451.609999999986,
      "v": 127
    },
    {
      "midi": 64,
      "hit": false,
      "t": 238451.1359999985,
      "d": 1451.609999999986,
      "v": 127
    },
    {
      "midi": 52,
      "hit": false,
      "t": 238644.68399999494,
      "d": 92.7417499999865,
      "v": 110
    },
    {
      "midi": 47,
      "hit": false,
      "t": 238741.45799999492,
      "d": 92.7417499999865,
      "v": 110
    },
    {
      "midi": 40,
      "hit": false,
      "t": 238838.2319999949,
      "d": 189.51574999999139,
      "v": 110
    },
    {
      "midi": 52,
      "hit": false,
      "t": 239031.77999999488,
      "d": 189.51574999999139,
      "v": 110
    },
    {
      "midi": 40,
      "hit": false,
      "t": 239225.32799999486,
      "d": 189.51574999999139,
      "v": 110
    },
    {
      "midi": 52,
      "hit": false,
      "t": 239418.87599999484,
      "d": 92.7417499999865,
      "v": 110
    },
    {
      "midi": 47,
      "hit": false,
      "t": 239515.6499999948,
      "d": 92.7417499999865,
      "v": 110
    },
    {
      "midi": 40,
      "hit": false,
      "t": 239612.4239999948,
      "d": 189.51574999999139,
      "v": 110
    },
    {
      "midi": 52,
      "hit": false,
      "t": 239805.97199999477,
      "d": 189.51574999999139,
      "v": 110
    },
    {
      "midi": 43,
      "hit": false,
      "t": 239999.51999999475,
      "d": 286.2897499999963,
      "v": 110
    },
    {
      "midi": 69,
      "hit": false,
      "t": 239999.5199999985,
      "d": 516.127999999997,
      "v": 127
    },
    {
      "midi": 74,
      "hit": false,
      "t": 239999.5199999985,
      "d": 516.127999999997,
      "v": 127
    },
    {
      "midi": 55,
      "hit": false,
      "t": 240193.06799999476,
      "d": 189.51574999996228,
      "v": 110
    },
    {
      "midi": 50,
      "hit": false,
      "t": 240289.84199999474,
      "d": 92.7417499999865,
      "v": 110
    },
    {
      "midi": 43,
      "hit": false,
      "t": 240386.6159999947,
      "d": 322.5800000000163,
      "v": 110
    },
    {
      "midi": 55,
      "hit": false,
      "t": 240580.16399999472,
      "d": 189.5157500000205,
      "v": 110
    },
    {
      "midi": 71,
      "hit": false,
      "t": 240580.1639999985,
      "d": 189.51574999999139,
      "v": 127
    },
    {
      "midi": 76,
      "hit": false,
      "t": 240580.1639999985,
      "d": 189.51574999999139,
      "v": 127
    },
    {
      "midi": 43,
      "hit": false,
      "t": 240773.71199999473,
      "d": 286.2897499999963,
      "v": 110
    },
    {
      "midi": 74,
      "hit": false,
      "t": 240773.7119999985,
      "d": 322.5799999999872,
      "v": 127
    },
    {
      "midi": 79,
      "hit": false,
      "t": 240773.7119999985,
      "d": 322.5799999999872,
      "v": 127
    },
    {
      "midi": 55,
      "hit": false,
      "t": 240967.25999999474,
      "d": 189.51574999996228,
      "v": 110
    },
    {
      "midi": 50,
      "hit": false,
      "t": 241064.03399999472,
      "d": 92.7417499999865,
      "v": 110
    },
    {
      "midi": 43,
      "hit": false,
      "t": 241160.8079999947,
      "d": 322.5800000000163,
      "v": 110
    },
    {
      "midi": 71,
      "hit": false,
      "t": 241160.80799999848,
      "d": 322.5799999999872,
      "v": 127
    },
    {
      "midi": 76,
      "hit": false,
      "t": 241160.80799999848,
      "d": 322.5799999999872,
      "v": 127
    },
    {
      "midi": 55,
      "hit": false,
      "t": 241354.3559999947,
      "d": 189.5157500000205,
      "v": 110
    },
    {
      "midi": 36,
      "hit": false,
      "t": 241547.9039999947,
      "d": 189.51574999999139,
      "v": 110
    },
    {
      "midi": 69,
      "hit": false,
      "t": 241547.90399999847,
      "d": 322.5799999999872,
      "v": 127
    },
    {
      "midi": 74,
      "hit": false,
      "t": 241547.90399999847,
      "d": 322.5799999999872,
      "v": 127
    },
    {
      "midi": 48,
      "hit": false,
      "t": 241741.4519999947,
      "d": 92.7417499999865,
      "v": 110
    },
    {
      "midi": 43,
      "hit": false,
      "t": 241838.22599999467,
      "d": 92.7417499999865,
      "v": 110
    },
    {
      "midi": 36,
      "hit": false,
      "t": 241934.99999999464,
      "d": 189.51574999999139,
      "v": 110
    },
    {
      "midi": 71,
      "hit": false,
      "t": 241934.99999999846,
      "d": 189.51574999999139,
      "v": 127
    },
    {
      "midi": 76,
      "hit": false,
      "t": 241934.99999999846,
      "d": 189.51574999999139,
      "v": 127
    },
    {
      "midi": 48,
      "hit": false,
      "t": 242128.54799999463,
      "d": 189.51574999999139,
      "v": 110
    },
    {
      "midi": 69,
      "hit": false,
      "t": 242128.54799999844,
      "d": 189.51574999999139,
      "v": 127
    },
    {
      "midi": 74,
      "hit": false,
      "t": 242128.54799999844,
      "d": 189.51574999999139,
      "v": 127
    },
    {
      "midi": 36,
      "hit": false,
      "t": 242322.0959999946,
      "d": 189.51574999999139,
      "v": 110
    },
    {
      "midi": 67,
      "hit": false,
      "t": 242322.09599999842,
      "d": 322.5799999999872,
      "v": 127
    },
    {
      "midi": 71,
      "hit": false,
      "t": 242322.09599999842,
      "d": 322.5799999999872,
      "v": 127
    },
    {
      "midi": 48,
      "hit": false,
      "t": 242515.6439999946,
      "d": 92.7417499999865,
      "v": 110
    },
    {
      "midi": 43,
      "hit": false,
      "t": 242612.41799999456,
      "d": 92.7417499999865,
      "v": 110
    },
    {
      "midi": 36,
      "hit": false,
      "t": 242709.19199999454,
      "d": 189.51574999999139,
      "v": 110
    },
    {
      "midi": 64,
      "hit": false,
      "t": 242709.1919999984,
      "d": 189.51574999999139,
      "v": 127
    },
    {
      "midi": 69,
      "hit": false,
      "t": 242709.1919999984,
      "d": 189.51574999999139,
      "v": 127
    },
    {
      "midi": 48,
      "hit": false,
      "t": 242902.73999999452,
      "d": 189.51574999999139,
      "v": 110
    },
    {
      "midi": 62,
      "hit": false,
      "t": 242902.7399999984,
      "d": 189.51574999999139,
      "v": 127
    },
    {
      "midi": 67,
      "hit": false,
      "t": 242902.7399999984,
      "d": 189.51574999999139,
      "v": 127
    },
    {
      "midi": 43,
      "hit": false,
      "t": 243096.2879999945,
      "d": 286.2897499999963,
      "v": 110
    },
    {
      "midi": 69,
      "hit": false,
      "t": 243096.28799999837,
      "d": 516.127999999997,
      "v": 127
    },
    {
      "midi": 74,
      "hit": false,
      "t": 243096.28799999837,
      "d": 516.127999999997,
      "v": 127
    },
    {
      "midi": 55,
      "hit": false,
      "t": 243289.8359999945,
      "d": 189.51574999996228,
      "v": 110
    },
    {
      "midi": 50,
      "hit": false,
      "t": 243386.60999999449,
      "d": 92.7417499999865,
      "v": 110
    },
    {
      "midi": 43,
      "hit": false,
      "t": 243483.38399999446,
      "d": 322.5800000000163,
      "v": 110
    },
    {
      "midi": 55,
      "hit": false,
      "t": 243676.93199999447,
      "d": 189.5157500000205,
      "v": 110
    },
    {
      "midi": 71,
      "hit": false,
      "t": 243676.93199999837,
      "d": 189.51574999999139,
      "v": 127
    },
    {
      "midi": 76,
      "hit": false,
      "t": 243676.93199999837,
      "d": 189.51574999999139,
      "v": 127
    },
    {
      "midi": 43,
      "hit": false,
      "t": 243870.47999999448,
      "d": 286.2897499999963,
      "v": 110
    },
    {
      "midi": 74,
      "hit": false,
      "t": 243870.47999999835,
      "d": 322.5799999999872,
      "v": 127
    },
    {
      "midi": 79,
      "hit": false,
      "t": 243870.47999999835,
      "d": 322.5799999999872,
      "v": 127
    },
    {
      "midi": 55,
      "hit": false,
      "t": 244064.0279999945,
      "d": 189.51574999996228,
      "v": 110
    },
    {
      "midi": 50,
      "hit": false,
      "t": 244160.80199999447,
      "d": 92.7417499999865,
      "v": 110
    },
    {
      "midi": 43,
      "hit": false,
      "t": 244257.57599999444,
      "d": 322.5800000000163,
      "v": 110
    },
    {
      "midi": 71,
      "hit": false,
      "t": 244257.57599999834,
      "d": 189.51574999999139,
      "v": 127
    },
    {
      "midi": 76,
      "hit": false,
      "t": 244257.57599999834,
      "d": 189.51574999999139,
      "v": 127
    },
    {
      "midi": 55,
      "hit": false,
      "t": 244451.12399999445,
      "d": 189.5157500000205,
      "v": 110
    },
    {
      "midi": 69,
      "hit": false,
      "t": 244451.12399999832,
      "d": 189.51574999999139,
      "v": 127
    },
    {
      "midi": 74,
      "hit": false,
      "t": 244451.12399999832,
      "d": 189.51574999999139,
      "v": 127
    },
    {
      "midi": 79,
      "hit": false,
      "t": 244644.67199999446,
      "d": 92.7417499999865,
      "v": 110
    },
    {
      "midi": 36,
      "hit": false,
      "t": 244644.67199999446,
      "d": 189.51574999996228,
      "v": 110
    },
    {
      "midi": 76,
      "hit": false,
      "t": 244644.6719999983,
      "d": 1451.609999999986,
      "v": 127
    },
    {
      "midi": 81,
      "hit": false,
      "t": 244741.44599999444,
      "d": 92.7417499999865,
      "v": 110
    },
    {
      "midi": 48,
      "hit": false,
      "t": 244838.2199999944,
      "d": 92.7417499999865,
      "v": 110
    },
    {
      "midi": 79,
      "hit": false,
      "t": 244838.2199999944,
      "d": 189.51574999996228,
      "v": 110
    },
    {
      "midi": 43,
      "hit": false,
      "t": 244934.9939999944,
      "d": 92.7417499999865,
      "v": 110
    },
    {
      "midi": 76,
      "hit": false,
      "t": 245031.76799999436,
      "d": 92.7417499999865,
      "v": 110
    },
    {
      "midi": 36,
      "hit": false,
      "t": 245031.76799999436,
      "d": 189.51574999996228,
      "v": 110
    },
    {
      "midi": 79,
      "hit": false,
      "t": 245128.54199999434,
      "d": 92.7417499999865,
      "v": 110
    },
    {
      "midi": 48,
      "hit": false,
      "t": 245225.31599999432,
      "d": 189.51574999999139,
      "v": 110
    },
    {
      "midi": 76,
      "hit": false,
      "t": 245225.31599999432,
      "d": 189.51574999999139,
      "v": 110
    },
    {
      "midi": 74,
      "hit": false,
      "t": 245418.8639999943,
      "d": 92.7417499999865,
      "v": 110
    },
    {
      "midi": 36,
      "hit": false,
      "t": 245418.8639999943,
      "d": 189.51574999996228,
      "v": 110
    },
    {
      "midi": 76,
      "hit": false,
      "t": 245515.63799999427,
      "d": 92.7417499999865,
      "v": 110
    },
    {
      "midi": 48,
      "hit": false,
      "t": 245612.41199999425,
      "d": 92.7417499999865,
      "v": 110
    },
    {
      "midi": 74,
      "hit": false,
      "t": 245612.41199999425,
      "d": 189.51574999996228,
      "v": 110
    },
    {
      "midi": 43,
      "hit": false,
      "t": 245709.18599999422,
      "d": 92.7417499999865,
      "v": 110
    },
    {
      "midi": 71,
      "hit": false,
      "t": 245805.9599999942,
      "d": 92.7417499999865,
      "v": 110
    },
    {
      "midi": 36,
      "hit": false,
      "t": 245805.9599999942,
      "d": 189.51574999996228,
      "v": 110
    },
    {
      "midi": 69,
      "hit": false,
      "t": 245902.73399999418,
      "d": 92.7417499999865,
      "v": 110
    },
    {
      "midi": 48,
      "hit": false,
      "t": 245999.50799999415,
      "d": 189.51574999999139,
      "v": 110
    },
    {
      "midi": 67,
      "hit": false,
      "t": 245999.50799999415,
      "d": 189.51574999999139,
      "v": 110
    },
    {
      "midi": 43,
      "hit": false,
      "t": 246193.05599999413,
      "d": 286.2897499999963,
      "v": 110
    },
    {
      "midi": 69,
      "hit": false,
      "t": 246193.0559999983,
      "d": 516.127999999997,
      "v": 127
    },
    {
      "midi": 74,
      "hit": false,
      "t": 246193.0559999983,
      "d": 516.127999999997,
      "v": 127
    },
    {
      "midi": 55,
      "hit": false,
      "t": 246386.60399999414,
      "d": 189.51574999996228,
      "v": 110
    },
    {
      "midi": 50,
      "hit": false,
      "t": 246483.37799999412,
      "d": 92.7417499999865,
      "v": 110
    },
    {
      "midi": 43,
      "hit": false,
      "t": 246580.1519999941,
      "d": 322.5800000000163,
      "v": 110
    },
    {
      "midi": 55,
      "hit": false,
      "t": 246773.6999999941,
      "d": 189.5157500000205,
      "v": 110
    },
    {
      "midi": 71,
      "hit": false,
      "t": 246773.6999999983,
      "d": 189.51574999999139,
      "v": 127
    },
    {
      "midi": 76,
      "hit": false,
      "t": 246773.6999999983,
      "d": 189.51574999999139,
      "v": 127
    },
    {
      "midi": 43,
      "hit": false,
      "t": 246967.2479999941,
      "d": 286.2897499999963,
      "v": 110
    },
    {
      "midi": 74,
      "hit": false,
      "t": 246967.24799999828,
      "d": 322.5799999999872,
      "v": 127
    },
    {
      "midi": 79,
      "hit": false,
      "t": 246967.24799999828,
      "d": 322.5799999999872,
      "v": 127
    },
    {
      "midi": 55,
      "hit": false,
      "t": 247160.79599999412,
      "d": 189.51574999996228,
      "v": 110
    },
    {
      "midi": 50,
      "hit": false,
      "t": 247257.5699999941,
      "d": 92.7417499999865,
      "v": 110
    },
    {
      "midi": 43,
      "hit": false,
      "t": 247354.34399999407,
      "d": 322.5800000000163,
      "v": 110
    },
    {
      "midi": 71,
      "hit": false,
      "t": 247354.34399999827,
      "d": 322.5799999999872,
      "v": 127
    },
    {
      "midi": 76,
      "hit": false,
      "t": 247354.34399999827,
      "d": 322.5799999999872,
      "v": 127
    },
    {
      "midi": 55,
      "hit": false,
      "t": 247547.89199999408,
      "d": 189.5157500000205,
      "v": 110
    },
    {
      "midi": 36,
      "hit": false,
      "t": 247741.4399999941,
      "d": 189.51574999999139,
      "v": 110
    },
    {
      "midi": 69,
      "hit": false,
      "t": 247741.43999999826,
      "d": 322.5799999999872,
      "v": 127
    },
    {
      "midi": 74,
      "hit": false,
      "t": 247741.43999999826,
      "d": 322.5799999999872,
      "v": 127
    },
    {
      "midi": 48,
      "hit": false,
      "t": 247934.98799999407,
      "d": 92.7417499999865,
      "v": 110
    },
    {
      "midi": 43,
      "hit": false,
      "t": 248031.76199999405,
      "d": 92.7417499999865,
      "v": 110
    },
    {
      "midi": 36,
      "hit": false,
      "t": 248128.53599999403,
      "d": 189.51574999999139,
      "v": 110
    },
    {
      "midi": 71,
      "hit": false,
      "t": 248128.53599999825,
      "d": 189.51574999999139,
      "v": 127
    },
    {
      "midi": 76,
      "hit": false,
      "t": 248128.53599999825,
      "d": 189.51574999999139,
      "v": 127
    },
    {
      "midi": 48,
      "hit": false,
      "t": 248322.083999994,
      "d": 189.51574999999139,
      "v": 110
    },
    {
      "midi": 69,
      "hit": false,
      "t": 248322.08399999823,
      "d": 189.51574999999139,
      "v": 127
    },
    {
      "midi": 74,
      "hit": false,
      "t": 248322.08399999823,
      "d": 189.51574999999139,
      "v": 127
    },
    {
      "midi": 36,
      "hit": false,
      "t": 248515.631999994,
      "d": 189.51574999999139,
      "v": 110
    },
    {
      "midi": 67,
      "hit": false,
      "t": 248515.6319999982,
      "d": 322.5799999999872,
      "v": 127
    },
    {
      "midi": 71,
      "hit": false,
      "t": 248515.6319999982,
      "d": 322.5799999999872,
      "v": 127
    },
    {
      "midi": 48,
      "hit": false,
      "t": 248709.17999999397,
      "d": 92.7417499999865,
      "v": 110
    },
    {
      "midi": 43,
      "hit": false,
      "t": 248805.95399999394,
      "d": 92.7417499999865,
      "v": 110
    },
    {
      "midi": 36,
      "hit": false,
      "t": 248902.72799999392,
      "d": 189.51574999999139,
      "v": 110
    },
    {
      "midi": 64,
      "hit": false,
      "t": 248902.7279999982,
      "d": 189.51574999999139,
      "v": 127
    },
    {
      "midi": 69,
      "hit": false,
      "t": 248902.7279999982,
      "d": 189.51574999999139,
      "v": 127
    },
    {
      "midi": 48,
      "hit": false,
      "t": 249096.2759999939,
      "d": 189.51574999999139,
      "v": 110
    },
    {
      "midi": 62,
      "hit": false,
      "t": 249096.27599999818,
      "d": 189.51574999999139,
      "v": 127
    },
    {
      "midi": 67,
      "hit": false,
      "t": 249096.27599999818,
      "d": 189.51574999999139,
      "v": 127
    },
    {
      "midi": 38,
      "hit": false,
      "t": 249289.82399999388,
      "d": 189.51574999999139,
      "v": 110
    },
    {
      "midi": 64,
      "hit": false,
      "t": 249289.82399999816,
      "d": 516.127999999997,
      "v": 127
    },
    {
      "midi": 69,
      "hit": false,
      "t": 249289.82399999816,
      "d": 516.127999999997,
      "v": 127
    },
    {
      "midi": 50,
      "hit": false,
      "t": 249483.37199999386,
      "d": 92.7417499999865,
      "v": 110
    },
    {
      "midi": 45,
      "hit": false,
      "t": 249580.14599999384,
      "d": 92.7417499999865,
      "v": 110
    },
    {
      "midi": 38,
      "hit": false,
      "t": 249676.9199999938,
      "d": 189.51574999999139,
      "v": 110
    },
    {
      "midi": 50,
      "hit": false,
      "t": 249870.4679999938,
      "d": 189.51574999999139,
      "v": 110
    },
    {
      "midi": 66,
      "hit": false,
      "t": 249870.46799999816,
      "d": 189.51574999999139,
      "v": 127
    },
    {
      "midi": 71,
      "hit": false,
      "t": 249870.46799999816,
      "d": 189.51574999999139,
      "v": 127
    },
    {
      "midi": 38,
      "hit": false,
      "t": 250064.01599999378,
      "d": 189.51574999999139,
      "v": 110
    },
    {
      "midi": 64,
      "hit": false,
      "t": 250064.01599999814,
      "d": 189.51574999999139,
      "v": 127
    },
    {
      "midi": 69,
      "hit": false,
      "t": 250064.01599999814,
      "d": 189.51574999999139,
      "v": 127
    },
    {
      "midi": 50,
      "hit": false,
      "t": 250257.56399999376,
      "d": 92.7417499999865,
      "v": 110
    },
    {
      "midi": 62,
      "hit": false,
      "t": 250257.56399999812,
      "d": 189.51574999999139,
      "v": 127
    },
    {
      "midi": 67,
      "hit": false,
      "t": 250257.56399999812,
      "d": 189.51574999999139,
      "v": 127
    },
    {
      "midi": 45,
      "hit": false,
      "t": 250354.33799999373,
      "d": 92.7417499999865,
      "v": 110
    },
    {
      "midi": 38,
      "hit": false,
      "t": 250451.1119999937,
      "d": 189.51574999999139,
      "v": 110
    },
    {
      "midi": 59,
      "hit": false,
      "t": 250451.1119999981,
      "d": 189.51574999999139,
      "v": 127
    },
    {
      "midi": 64,
      "hit": false,
      "t": 250451.1119999981,
      "d": 189.51574999999139,
      "v": 127
    },
    {
      "midi": 50,
      "hit": false,
      "t": 250644.6599999937,
      "d": 189.51574999999139,
      "v": 110
    },
    {
      "midi": 57,
      "hit": false,
      "t": 250644.65999999808,
      "d": 189.51574999999139,
      "v": 127
    },
    {
      "midi": 62,
      "hit": false,
      "t": 250644.65999999808,
      "d": 189.51574999999139,
      "v": 127
    },
    {
      "midi": 40,
      "hit": false,
      "t": 250838.20799999367,
      "d": 189.51574999999139,
      "v": 110
    },
    {
      "midi": 59,
      "hit": false,
      "t": 250838.20799999806,
      "d": 1451.609999999986,
      "v": 127
    },
    {
      "midi": 64,
      "hit": false,
      "t": 250838.20799999806,
      "d": 1451.609999999986,
      "v": 127
    },
    {
      "midi": 52,
      "hit": false,
      "t": 251031.75599999365,
      "d": 92.7417499999865,
      "v": 110
    },
    {
      "midi": 47,
      "hit": false,
      "t": 251128.52999999363,
      "d": 92.7417499999865,
      "v": 110
    },
    {
      "midi": 40,
      "hit": false,
      "t": 251225.3039999936,
      "d": 189.51574999999139,
      "v": 110
    },
    {
      "midi": 52,
      "hit": false,
      "t": 251418.85199999358,
      "d": 189.51574999999139,
      "v": 110
    },
    {
      "midi": 40,
      "hit": false,
      "t": 251612.39999999356,
      "d": 189.51574999999139,
      "v": 110
    },
    {
      "midi": 52,
      "hit": false,
      "t": 251805.94799999354,
      "d": 92.7417499999865,
      "v": 110
    },
    {
      "midi": 47,
      "hit": false,
      "t": 251902.72199999352,
      "d": 92.7417499999865,
      "v": 110
    },
    {
      "midi": 40,
      "hit": false,
      "t": 251999.4959999935,
      "d": 189.51574999999139,
      "v": 110
    },
    {
      "midi": 52,
      "hit": false,
      "t": 252193.04399999348,
      "d": 189.51574999999139,
      "v": 110
    },
    {
      "midi": 38,
      "hit": false,
      "t": 252386.59199999346,
      "d": 189.51574999999139,
      "v": 110
    },
    {
      "midi": 69,
      "hit": false,
      "t": 252386.59199999805,
      "d": 516.127999999997,
      "v": 127
    },
    {
      "midi": 81,
      "hit": false,
      "t": 252386.59199999805,
      "d": 516.127999999997,
      "v": 127
    },
    {
      "midi": 50,
      "hit": false,
      "t": 252580.13999999344,
      "d": 92.7417499999865,
      "v": 110
    },
    {
      "midi": 45,
      "hit": false,
      "t": 252676.9139999934,
      "d": 92.7417499999865,
      "v": 110
    },
    {
      "midi": 38,
      "hit": false,
      "t": 252773.6879999934,
      "d": 189.51574999999139,
      "v": 110
    },
    {
      "midi": 50,
      "hit": false,
      "t": 252967.23599999337,
      "d": 189.51574999999139,
      "v": 110
    },
    {
      "midi": 71,
      "hit": false,
      "t": 252967.23599999805,
      "d": 189.51574999999139,
      "v": 127
    },
    {
      "midi": 83,
      "hit": false,
      "t": 252967.23599999805,
      "d": 189.51574999999139,
      "v": 127
    },
    {
      "midi": 38,
      "hit": false,
      "t": 253160.78399999335,
      "d": 189.51574999999139,
      "v": 110
    },
    {
      "midi": 74,
      "hit": false,
      "t": 253160.78399999804,
      "d": 322.5799999999872,
      "v": 127
    },
    {
      "midi": 86,
      "hit": false,
      "t": 253160.78399999804,
      "d": 322.5799999999872,
      "v": 127
    },
    {
      "midi": 50,
      "hit": false,
      "t": 253354.33199999333,
      "d": 92.7417499999865,
      "v": 110
    },
    {
      "midi": 45,
      "hit": false,
      "t": 253451.1059999933,
      "d": 92.7417499999865,
      "v": 110
    },
    {
      "midi": 38,
      "hit": false,
      "t": 253547.87999999328,
      "d": 189.51574999999139,
      "v": 110
    },
    {
      "midi": 86,
      "hit": false,
      "t": 253547.87999999803,
      "d": 189.51574999999139,
      "v": 127
    },
    {
      "midi": 50,
      "hit": false,
      "t": 253741.42799999326,
      "d": 189.51574999999139,
      "v": 110
    },
    {
      "midi": 76,
      "hit": false,
      "t": 253741.427999998,
      "d": 92.7417499999865,
      "v": 127
    },
    {
      "midi": 88,
      "hit": false,
      "t": 253741.427999998,
      "d": 92.7417499999865,
      "v": 127
    },
    {
      "midi": 74,
      "hit": false,
      "t": 253838.20199999798,
      "d": 92.7417499999865,
      "v": 127
    },
    {
      "midi": 86,
      "hit": false,
      "t": 253838.20199999798,
      "d": 92.7417499999865,
      "v": 127
    },
    {
      "midi": 36,
      "hit": false,
      "t": 253934.97599999324,
      "d": 189.51574999999139,
      "v": 110
    },
    {
      "midi": 71,
      "hit": false,
      "t": 253934.97599999796,
      "d": 322.5799999999872,
      "v": 127
    },
    {
      "midi": 83,
      "hit": false,
      "t": 253934.97599999796,
      "d": 322.5799999999872,
      "v": 127
    },
    {
      "midi": 48,
      "hit": false,
      "t": 254128.52399999322,
      "d": 92.7417499999865,
      "v": 110
    },
    {
      "midi": 43,
      "hit": false,
      "t": 254225.2979999932,
      "d": 92.7417499999865,
      "v": 110
    },
    {
      "midi": 36,
      "hit": false,
      "t": 254322.07199999318,
      "d": 189.51574999999139,
      "v": 110
    },
    {
      "midi": 74,
      "hit": false,
      "t": 254322.07199999795,
      "d": 189.51574999999139,
      "v": 127
    },
    {
      "midi": 86,
      "hit": false,
      "t": 254322.07199999795,
      "d": 189.51574999999139,
      "v": 127
    },
    {
      "midi": 48,
      "hit": false,
      "t": 254515.61999999316,
      "d": 189.51574999999139,
      "v": 110
    },
    {
      "midi": 71,
      "hit": false,
      "t": 254515.61999999793,
      "d": 189.51574999999139,
      "v": 127
    },
    {
      "midi": 83,
      "hit": false,
      "t": 254515.61999999793,
      "d": 189.51574999999139,
      "v": 127
    },
    {
      "midi": 36,
      "hit": false,
      "t": 254709.16799999314,
      "d": 189.51574999999139,
      "v": 110
    },
    {
      "midi": 69,
      "hit": false,
      "t": 254709.1679999979,
      "d": 189.51574999999139,
      "v": 127
    },
    {
      "midi": 81,
      "hit": false,
      "t": 254709.1679999979,
      "d": 189.51574999999139,
      "v": 127
    },
    {
      "midi": 48,
      "hit": false,
      "t": 254902.71599999312,
      "d": 92.7417499999865,
      "v": 110
    },
    {
      "midi": 71,
      "hit": false,
      "t": 254902.7159999979,
      "d": 92.7417499999865,
      "v": 127
    },
    {
      "midi": 83,
      "hit": false,
      "t": 254902.7159999979,
      "d": 92.7417499999865,
      "v": 127
    },
    {
      "midi": 43,
      "hit": false,
      "t": 254999.4899999931,
      "d": 92.7417499999865,
      "v": 110
    },
    {
      "midi": 69,
      "hit": false,
      "t": 254999.48999999787,
      "d": 92.7417499999865,
      "v": 127
    },
    {
      "midi": 81,
      "hit": false,
      "t": 254999.48999999787,
      "d": 92.7417499999865,
      "v": 127
    },
    {
      "midi": 36,
      "hit": false,
      "t": 255096.26399999307,
      "d": 189.51574999999139,
      "v": 110
    },
    {
      "midi": 67,
      "hit": false,
      "t": 255096.26399999784,
      "d": 189.51574999999139,
      "v": 127
    },
    {
      "midi": 79,
      "hit": false,
      "t": 255096.26399999784,
      "d": 189.51574999999139,
      "v": 127
    },
    {
      "midi": 48,
      "hit": false,
      "t": 255289.81199999305,
      "d": 189.51574999999139,
      "v": 110
    },
    {
      "midi": 64,
      "hit": false,
      "t": 255289.81199999782,
      "d": 92.7417499999865,
      "v": 127
    },
    {
      "midi": 76,
      "hit": false,
      "t": 255289.81199999782,
      "d": 92.7417499999865,
      "v": 127
    },
    {
      "midi": 62,
      "hit": false,
      "t": 255386.5859999978,
      "d": 92.7417499999865,
      "v": 127
    },
    {
      "midi": 74,
      "hit": false,
      "t": 255386.5859999978,
      "d": 92.7417499999865,
      "v": 127
    },
    {
      "midi": 47,
      "hit": false,
      "t": 255483.35999999303,
      "d": 286.2897499999963,
      "v": 110
    },
    {
      "midi": 74,
      "hit": false,
      "t": 255483.35999999777,
      "d": 677.4180000000051,
      "v": 127
    },
    {
      "midi": 86,
      "hit": false,
      "t": 255483.35999999777,
      "d": 677.4180000000051,
      "v": 127
    },
    {
      "midi": 59,
      "hit": false,
      "t": 255676.90799999304,
      "d": 189.51574999996228,
      "v": 110
    },
    {
      "midi": 42,
      "hit": false,
      "t": 255773.68199999302,
      "d": 92.7417499999865,
      "v": 110
    },
    {
      "midi": 47,
      "hit": false,
      "t": 255870.455999993,
      "d": 322.5800000000163,
      "v": 110
    },
    {
      "midi": 59,
      "hit": false,
      "t": 256064.003999993,
      "d": 189.5157500000205,
      "v": 110
    },
    {
      "midi": 47,
      "hit": false,
      "t": 256257.551999993,
      "d": 286.2897499999963,
      "v": 110
    },
    {
      "midi": 74,
      "hit": false,
      "t": 256257.55199999778,
      "d": 516.127999999997,
      "v": 127
    },
    {
      "midi": 86,
      "hit": false,
      "t": 256257.55199999778,
      "d": 516.127999999997,
      "v": 127
    },
    {
      "midi": 59,
      "hit": false,
      "t": 256451.09999999302,
      "d": 189.51574999996228,
      "v": 110
    },
    {
      "midi": 42,
      "hit": false,
      "t": 256547.873999993,
      "d": 92.7417499999865,
      "v": 110
    },
    {
      "midi": 47,
      "hit": false,
      "t": 256644.64799999297,
      "d": 322.5800000000163,
      "v": 110
    },
    {
      "midi": 59,
      "hit": false,
      "t": 256838.19599999298,
      "d": 189.5157500000205,
      "v": 110
    },
    {
      "midi": 71,
      "hit": false,
      "t": 256838.19599999778,
      "d": 189.51574999999139,
      "v": 127
    },
    {
      "midi": 83,
      "hit": false,
      "t": 256838.19599999778,
      "d": 189.51574999999139,
      "v": 127
    },
    {
      "midi": 38,
      "hit": false,
      "t": 257031.743999993,
      "d": 189.51574999999139,
      "v": 110
    },
    {
      "midi": 74,
      "hit": false,
      "t": 257031.74399999777,
      "d": 1451.609999999986,
      "v": 127
    },
    {
      "midi": 86,
      "hit": false,
      "t": 257031.74399999777,
      "d": 1451.609999999986,
      "v": 127
    },
    {
      "midi": 50,
      "hit": false,
      "t": 257225.29199999297,
      "d": 92.7417499999865,
      "v": 110
    },
    {
      "midi": 45,
      "hit": false,
      "t": 257322.06599999295,
      "d": 92.7417499999865,
      "v": 110
    },
    {
      "midi": 38,
      "hit": false,
      "t": 257418.83999999292,
      "d": 189.51574999999139,
      "v": 110
    },
    {
      "midi": 50,
      "hit": false,
      "t": 257612.3879999929,
      "d": 189.51574999999139,
      "v": 110
    },
    {
      "midi": 38,
      "hit": false,
      "t": 257805.9359999929,
      "d": 189.51574999999139,
      "v": 110
    },
    {
      "midi": 50,
      "hit": false,
      "t": 257999.48399999287,
      "d": 92.7417499999865,
      "v": 110
    },
    {
      "midi": 45,
      "hit": false,
      "t": 258096.25799999284,
      "d": 92.7417499999865,
      "v": 110
    },
    {
      "midi": 38,
      "hit": false,
      "t": 258193.03199999282,
      "d": 189.51574999999139,
      "v": 110
    },
    {
      "midi": 50,
      "hit": false,
      "t": 258386.5799999928,
      "d": 189.51574999999139,
      "v": 110
    },
    {
      "midi": 40,
      "hit": false,
      "t": 258580.12799999278,
      "d": 1451.609999999986,
      "v": 110
    },
    {
      "midi": 76,
      "hit": false,
      "t": 258580.12799999776,
      "d": 516.127999999997,
      "v": 127
    },
    {
      "midi": 79,
      "hit": false,
      "t": 259160.77199999776,
      "d": 189.51574999999139,
      "v": 127
    },
    {
      "midi": 81,
      "hit": false,
      "t": 259354.31999999774,
      "d": 322.5799999999872,
      "v": 127
    },
    {
      "midi": 79,
      "hit": false,
      "t": 259741.41599999773,
      "d": 322.5799999999872,
      "v": 127
    },
    {
      "midi": 36,
      "hit": false,
      "t": 260128.51199999277,
      "d": 1451.609999999986,
      "v": 110
    },
    {
      "midi": 76,
      "hit": false,
      "t": 260128.51199999772,
      "d": 516.127999999997,
      "v": 127
    },
    {
      "midi": 74,
      "hit": false,
      "t": 260709.15599999772,
      "d": 189.51574999999139,
      "v": 127
    },
    {
      "midi": 71,
      "hit": false,
      "t": 260902.7039999977,
      "d": 322.5799999999872,
      "v": 127
    },
    {
      "midi": 69,
      "hit": false,
      "t": 261289.7999999977,
      "d": 189.51574999999139,
      "v": 127
    },
    {
      "midi": 67,
      "hit": false,
      "t": 261483.34799999767,
      "d": 189.51574999999139,
      "v": 127
    },
    {
      "midi": 38,
      "hit": false,
      "t": 261676.89599999276,
      "d": 1451.6100000000151,
      "v": 110
    },
    {
      "midi": 69,
      "hit": false,
      "t": 261676.89599999765,
      "d": 516.127999999997,
      "v": 127
    },
    {
      "midi": 71,
      "hit": false,
      "t": 262257.53999999765,
      "d": 189.5157500000205,
      "v": 127
    },
    {
      "midi": 74,
      "hit": false,
      "t": 262451.08799999766,
      "d": 322.5800000000163,
      "v": 127
    },
    {
      "midi": 76,
      "hit": false,
      "t": 262838.1839999977,
      "d": 322.5800000000163,
      "v": 127
    },
    {
      "midi": 40,
      "hit": false,
      "t": 263225.27999999275,
      "d": 1451.609999999986,
      "v": 110
    },
    {
      "midi": 79,
      "hit": false,
      "t": 263225.2799999977,
      "d": 1451.609999999986,
      "v": 127
    },
    {
      "midi": 43,
      "hit": false,
      "t": 264773.66399999766,
      "d": 1451.609999999986,
      "v": 127
    },
    {
      "midi": 50,
      "hit": false,
      "t": 264773.66399999766,
      "d": 1451.609999999986,
      "v": 127
    },
    {
      "midi": 44,
      "hit": false,
      "t": 266322.0479999976,
      "d": 1451.609999999986,
      "v": 127
    },
    {
      "midi": 51,
      "hit": false,
      "t": 266322.0479999976,
      "d": 1451.609999999986,
      "v": 127
    },
    {
      "midi": 45,
      "hit": false,
      "t": 267870.4319999976,
      "d": 677.4180000000051,
      "v": 127
    },
    {
      "midi": 52,
      "hit": false,
      "t": 267870.4319999976,
      "d": 677.4180000000051,
      "v": 127
    },
    {
      "midi": 46,
      "hit": false,
      "t": 268644.62399999757,
      "d": 677.4180000000051,
      "v": 127
    },
    {
      "midi": 53,
      "hit": false,
      "t": 268644.62399999757,
      "d": 677.4180000000051,
      "v": 127
    },
    {
      "midi": 47,
      "hit": false,
      "t": 269418.81599999755,
      "d": 322.5800000000163,
      "v": 127
    },
    {
      "midi": 54,
      "hit": false,
      "t": 269418.81599999755,
      "d": 322.5800000000163,
      "v": 127
    },
    {
      "midi": 48,
      "hit": false,
      "t": 269805.91199999757,
      "d": 322.5800000000163,
      "v": 127
    },
    {
      "midi": 55,
      "hit": false,
      "t": 269805.91199999757,
      "d": 322.5800000000163,
      "v": 127
    },
    {
      "midi": 49,
      "hit": false,
      "t": 270193.0079999976,
      "d": 322.5800000000163,
      "v": 127
    },
    {
      "midi": 56,
      "hit": false,
      "t": 270193.0079999976,
      "d": 322.5800000000163,
      "v": 127
    },
    {
      "midi": 50,
      "hit": false,
      "t": 270580.1039999976,
      "d": 322.5800000000163,
      "v": 127
    },
    {
      "midi": 57,
      "hit": false,
      "t": 270580.1039999976,
      "d": 322.5800000000163,
      "v": 127
    },
    {
      "midi": 31,
      "hit": false,
      "t": 270967.19999999274,
      "d": 677.4180000000051,
      "v": 110
    },
    {
      "midi": 43,
      "hit": false,
      "t": 270967.1999999976,
      "d": 92.7417499999865,
      "v": 127
    },
    {
      "midi": 55,
      "hit": false,
      "t": 271063.9739999976,
      "d": 92.7417499999865,
      "v": 127
    },
    {
      "midi": 42,
      "hit": false,
      "t": 271160.7479999976,
      "d": 92.7417499999865,
      "v": 127
    },
    {
      "midi": 54,
      "hit": false,
      "t": 271257.52199999755,
      "d": 92.7417499999865,
      "v": 127
    },
    {
      "midi": 41,
      "hit": false,
      "t": 271354.2959999975,
      "d": 92.7417499999865,
      "v": 127
    },
    {
      "midi": 53,
      "hit": false,
      "t": 271451.0699999975,
      "d": 92.7417499999865,
      "v": 127
    },
    {
      "midi": 40,
      "hit": false,
      "t": 271547.8439999975,
      "d": 92.7417499999865,
      "v": 127
    },
    {
      "midi": 52,
      "hit": false,
      "t": 271644.61799999746,
      "d": 92.7417499999865,
      "v": 127
    },
    {
      "midi": 44,
      "hit": false,
      "t": 271741.3919999927,
      "d": 677.4180000000051,
      "v": 110
    },
    {
      "midi": 39,
      "hit": false,
      "t": 271741.39199999743,
      "d": 92.7417499999865,
      "v": 127
    },
    {
      "midi": 51,
      "hit": false,
      "t": 271838.1659999974,
      "d": 92.7417499999865,
      "v": 127
    },
    {
      "midi": 38,
      "hit": false,
      "t": 271934.9399999974,
      "d": 92.7417499999865,
      "v": 127
    },
    {
      "midi": 50,
      "hit": false,
      "t": 272031.71399999736,
      "d": 92.7417499999865,
      "v": 127
    },
    {
      "midi": 37,
      "hit": false,
      "t": 272128.48799999733,
      "d": 92.7417499999865,
      "v": 127
    },
    {
      "midi": 49,
      "hit": false,
      "t": 272225.2619999973,
      "d": 92.7417499999865,
      "v": 127
    },
    {
      "midi": 36,
      "hit": false,
      "t": 272322.0359999973,
      "d": 92.7417499999865,
      "v": 127
    },
    {
      "midi": 48,
      "hit": false,
      "t": 272418.80999999726,
      "d": 92.7417499999865,
      "v": 127
    },
    {
      "midi": 43,
      "hit": false,
      "t": 272515.5839999927,
      "d": 677.4180000000051,
      "v": 110
    },
    {
      "midi": 43,
      "hit": false,
      "t": 272515.58399999724,
      "d": 92.7417499999865,
      "v": 127
    },
    {
      "midi": 55,
      "hit": false,
      "t": 272612.3579999972,
      "d": 92.7417499999865,
      "v": 127
    },
    {
      "midi": 42,
      "hit": false,
      "t": 272709.1319999972,
      "d": 92.7417499999865,
      "v": 127
    },
    {
      "midi": 54,
      "hit": false,
      "t": 272805.90599999717,
      "d": 92.7417499999865,
      "v": 127
    },
    {
      "midi": 41,
      "hit": false,
      "t": 272902.67999999714,
      "d": 92.7417499999865,
      "v": 127
    },
    {
      "midi": 53,
      "hit": false,
      "t": 272999.4539999971,
      "d": 92.7417499999865,
      "v": 127
    },
    {
      "midi": 40,
      "hit": false,
      "t": 273096.2279999971,
      "d": 92.7417499999865,
      "v": 127
    },
    {
      "midi": 52,
      "hit": false,
      "t": 273193.00199999707,
      "d": 92.7417499999865,
      "v": 127
    },
    {
      "midi": 49,
      "hit": false,
      "t": 273289.7759999927,
      "d": 677.4180000000051,
      "v": 110
    },
    {
      "midi": 39,
      "hit": false,
      "t": 273289.77599999704,
      "d": 92.7417499999865,
      "v": 127
    },
    {
      "midi": 51,
      "hit": false,
      "t": 273386.549999997,
      "d": 92.7417499999865,
      "v": 127
    },
    {
      "midi": 38,
      "hit": false,
      "t": 273483.323999997,
      "d": 92.7417499999865,
      "v": 127
    },
    {
      "midi": 50,
      "hit": false,
      "t": 273580.097999997,
      "d": 92.7417499999865,
      "v": 127
    },
    {
      "midi": 37,
      "hit": false,
      "t": 273676.87199999695,
      "d": 92.7417499999865,
      "v": 127
    },
    {
      "midi": 49,
      "hit": false,
      "t": 273773.6459999969,
      "d": 92.7417499999865,
      "v": 127
    },
    {
      "midi": 36,
      "hit": false,
      "t": 273870.4199999969,
      "d": 92.7417499999865,
      "v": 127
    },
    {
      "midi": 48,
      "hit": false,
      "t": 273967.1939999969,
      "d": 92.7417499999865,
      "v": 127
    },
    {
      "midi": 48,
      "hit": false,
      "t": 274063.96799999266,
      "d": 1451.609999999986,
      "v": 110
    },
    {
      "midi": 43,
      "hit": false,
      "t": 274063.96799999685,
      "d": 92.7417499999865,
      "v": 127
    },
    {
      "midi": 55,
      "hit": false,
      "t": 274160.7419999968,
      "d": 92.7417499999865,
      "v": 127
    },
    {
      "midi": 42,
      "hit": false,
      "t": 274257.5159999968,
      "d": 92.7417499999865,
      "v": 127
    },
    {
      "midi": 54,
      "hit": false,
      "t": 274354.2899999968,
      "d": 92.7417499999865,
      "v": 127
    },
    {
      "midi": 41,
      "hit": false,
      "t": 274451.06399999675,
      "d": 92.7417499999865,
      "v": 127
    },
    {
      "midi": 53,
      "hit": false,
      "t": 274547.83799999673,
      "d": 92.7417499999865,
      "v": 127
    },
    {
      "midi": 40,
      "hit": false,
      "t": 274644.6119999967,
      "d": 92.7417499999865,
      "v": 127
    },
    {
      "midi": 52,
      "hit": false,
      "t": 274741.3859999967,
      "d": 92.7417499999865,
      "v": 127
    },
    {
      "midi": 39,
      "hit": false,
      "t": 274838.15999999666,
      "d": 92.7417499999865,
      "v": 127
    },
    {
      "midi": 51,
      "hit": false,
      "t": 274934.93399999663,
      "d": 92.7417499999865,
      "v": 127
    },
    {
      "midi": 38,
      "hit": false,
      "t": 275031.7079999966,
      "d": 92.7417499999865,
      "v": 127
    },
    {
      "midi": 50,
      "hit": false,
      "t": 275128.4819999966,
      "d": 92.7417499999865,
      "v": 127
    },
    {
      "midi": 37,
      "hit": false,
      "t": 275225.25599999656,
      "d": 92.7417499999865,
      "v": 127
    },
    {
      "midi": 49,
      "hit": false,
      "t": 275322.02999999654,
      "d": 92.7417499999865,
      "v": 127
    },
    {
      "midi": 36,
      "hit": false,
      "t": 275418.8039999965,
      "d": 92.7417499999865,
      "v": 127
    },
    {
      "midi": 48,
      "hit": false,
      "t": 275515.5779999965,
      "d": 92.7417499999865,
      "v": 127
    },
    {
      "midi": 43,
      "hit": false,
      "t": 275612.35199999646,
      "d": 92.7417499999865,
      "v": 127
    },
    {
      "midi": 55,
      "hit": false,
      "t": 275709.12599999644,
      "d": 92.7417499999865,
      "v": 127
    },
    {
      "midi": 42,
      "hit": false,
      "t": 275805.8999999964,
      "d": 92.7417499999865,
      "v": 127
    },
    {
      "midi": 54,
      "hit": false,
      "t": 275902.6739999964,
      "d": 92.7417499999865,
      "v": 127
    },
    {
      "midi": 41,
      "hit": false,
      "t": 275999.44799999637,
      "d": 92.7417499999865,
      "v": 127
    },
    {
      "midi": 53,
      "hit": false,
      "t": 276096.22199999634,
      "d": 92.7417499999865,
      "v": 127
    },
    {
      "midi": 40,
      "hit": false,
      "t": 276192.9959999963,
      "d": 92.7417499999865,
      "v": 127
    },
    {
      "midi": 52,
      "hit": false,
      "t": 276289.7699999963,
      "d": 92.7417499999865,
      "v": 127
    },
    {
      "midi": 39,
      "hit": false,
      "t": 276386.54399999627,
      "d": 92.7417499999865,
      "v": 127
    },
    {
      "midi": 51,
      "hit": false,
      "t": 276483.31799999624,
      "d": 92.7417499999865,
      "v": 127
    },
    {
      "midi": 38,
      "hit": false,
      "t": 276580.0919999962,
      "d": 92.7417499999865,
      "v": 127
    },
    {
      "midi": 50,
      "hit": false,
      "t": 276676.8659999962,
      "d": 92.7417499999865,
      "v": 127
    },
    {
      "midi": 37,
      "hit": false,
      "t": 276773.6399999962,
      "d": 92.7417499999865,
      "v": 127
    },
    {
      "midi": 49,
      "hit": false,
      "t": 276870.41399999615,
      "d": 92.7417499999865,
      "v": 127
    },
    {
      "midi": 36,
      "hit": false,
      "t": 276967.1879999961,
      "d": 92.7417499999865,
      "v": 127
    },
    {
      "midi": 48,
      "hit": false,
      "t": 277063.9619999961,
      "d": 92.7417499999865,
      "v": 127
    },
    {
      "midi": 31,
      "hit": false,
      "t": 277160.73599999264,
      "d": 677.4180000000051,
      "v": 110
    },
    {
      "midi": 43,
      "hit": false,
      "t": 277160.7359999961,
      "d": 92.7417499999865,
      "v": 127
    },
    {
      "midi": 55,
      "hit": false,
      "t": 277257.50999999605,
      "d": 92.7417499999865,
      "v": 127
    },
    {
      "midi": 42,
      "hit": false,
      "t": 277354.283999996,
      "d": 92.7417499999865,
      "v": 127
    },
    {
      "midi": 54,
      "hit": false,
      "t": 277451.057999996,
      "d": 92.7417499999865,
      "v": 127
    },
    {
      "midi": 41,
      "hit": false,
      "t": 277547.831999996,
      "d": 92.7417499999865,
      "v": 127
    },
    {
      "midi": 53,
      "hit": false,
      "t": 277644.60599999595,
      "d": 92.7417499999865,
      "v": 127
    },
    {
      "midi": 40,
      "hit": false,
      "t": 277741.37999999593,
      "d": 92.7417499999865,
      "v": 127
    },
    {
      "midi": 52,
      "hit": false,
      "t": 277838.1539999959,
      "d": 92.7417499999865,
      "v": 127
    },
    {
      "midi": 44,
      "hit": false,
      "t": 277934.9279999926,
      "d": 677.4180000000051,
      "v": 110
    },
    {
      "midi": 39,
      "hit": false,
      "t": 277934.9279999959,
      "d": 92.7417499999865,
      "v": 127
    },
    {
      "midi": 51,
      "hit": false,
      "t": 278031.70199999586,
      "d": 92.7417499999865,
      "v": 127
    },
    {
      "midi": 38,
      "hit": false,
      "t": 278128.47599999583,
      "d": 92.7417499999865,
      "v": 127
    },
    {
      "midi": 50,
      "hit": false,
      "t": 278225.2499999958,
      "d": 92.7417499999865,
      "v": 127
    },
    {
      "midi": 37,
      "hit": false,
      "t": 278322.0239999958,
      "d": 92.7417499999865,
      "v": 127
    },
    {
      "midi": 49,
      "hit": false,
      "t": 278418.79799999576,
      "d": 92.7417499999865,
      "v": 127
    },
    {
      "midi": 36,
      "hit": false,
      "t": 278515.57199999574,
      "d": 92.7417499999865,
      "v": 127
    },
    {
      "midi": 48,
      "hit": false,
      "t": 278612.3459999957,
      "d": 92.7417499999865,
      "v": 127
    },
    {
      "midi": 43,
      "hit": false,
      "t": 278709.1199999926,
      "d": 677.4180000000051,
      "v": 110
    },
    {
      "midi": 43,
      "hit": false,
      "t": 278709.1199999957,
      "d": 92.7417499999865,
      "v": 127
    },
    {
      "midi": 55,
      "hit": false,
      "t": 278805.89399999566,
      "d": 92.7417499999865,
      "v": 127
    },
    {
      "midi": 42,
      "hit": false,
      "t": 278902.66799999564,
      "d": 92.7417499999865,
      "v": 127
    },
    {
      "midi": 54,
      "hit": false,
      "t": 278999.4419999956,
      "d": 92.7417499999865,
      "v": 127
    },
    {
      "midi": 41,
      "hit": false,
      "t": 279096.2159999956,
      "d": 92.7417499999865,
      "v": 127
    },
    {
      "midi": 53,
      "hit": false,
      "t": 279192.98999999557,
      "d": 92.7417499999865,
      "v": 127
    },
    {
      "midi": 40,
      "hit": false,
      "t": 279289.76399999554,
      "d": 92.7417499999865,
      "v": 127
    },
    {
      "midi": 52,
      "hit": false,
      "t": 279386.5379999955,
      "d": 92.7417499999865,
      "v": 127
    },
    {
      "midi": 49,
      "hit": false,
      "t": 279483.3119999926,
      "d": 677.4180000000051,
      "v": 110
    },
    {
      "midi": 39,
      "hit": false,
      "t": 279483.3119999955,
      "d": 92.7417499999865,
      "v": 127
    },
    {
      "midi": 51,
      "hit": false,
      "t": 279580.08599999547,
      "d": 92.7417499999865,
      "v": 127
    },
    {
      "midi": 38,
      "hit": false,
      "t": 279676.85999999545,
      "d": 92.7417499999865,
      "v": 127
    },
    {
      "midi": 50,
      "hit": false,
      "t": 279773.6339999954,
      "d": 92.7417499999865,
      "v": 127
    },
    {
      "midi": 37,
      "hit": false,
      "t": 279870.4079999954,
      "d": 92.7417499999865,
      "v": 127
    },
    {
      "midi": 49,
      "hit": false,
      "t": 279967.1819999954,
      "d": 92.7417499999865,
      "v": 127
    },
    {
      "midi": 36,
      "hit": false,
      "t": 280063.95599999535,
      "d": 92.7417499999865,
      "v": 127
    },
    {
      "midi": 48,
      "hit": false,
      "t": 280160.7299999953,
      "d": 92.7417499999865,
      "v": 127
    },
    {
      "midi": 48,
      "hit": false,
      "t": 280257.50399999256,
      "d": 1451.609999999986,
      "v": 110
    },
    {
      "midi": 43,
      "hit": false,
      "t": 280257.5039999953,
      "d": 92.7417499999865,
      "v": 127
    },
    {
      "midi": 55,
      "hit": false,
      "t": 280354.2779999953,
      "d": 92.7417499999865,
      "v": 127
    },
    {
      "midi": 42,
      "hit": false,
      "t": 280451.05199999525,
      "d": 92.7417499999865,
      "v": 127
    },
    {
      "midi": 54,
      "hit": false,
      "t": 280547.8259999952,
      "d": 92.7417499999865,
      "v": 127
    },
    {
      "midi": 41,
      "hit": false,
      "t": 280644.5999999952,
      "d": 92.7417499999865,
      "v": 127
    },
    {
      "midi": 53,
      "hit": false,
      "t": 280741.3739999952,
      "d": 92.7417499999865,
      "v": 127
    },
    {
      "midi": 40,
      "hit": false,
      "t": 280838.14799999516,
      "d": 92.7417499999865,
      "v": 127
    },
    {
      "midi": 52,
      "hit": false,
      "t": 280934.92199999513,
      "d": 92.7417499999865,
      "v": 127
    },
    {
      "midi": 39,
      "hit": false,
      "t": 281031.6959999951,
      "d": 92.7417499999865,
      "v": 127
    },
    {
      "midi": 51,
      "hit": false,
      "t": 281128.4699999951,
      "d": 92.7417499999865,
      "v": 127
    },
    {
      "midi": 38,
      "hit": false,
      "t": 281225.24399999506,
      "d": 92.7417499999865,
      "v": 127
    },
    {
      "midi": 50,
      "hit": false,
      "t": 281322.01799999503,
      "d": 92.7417499999865,
      "v": 127
    },
    {
      "midi": 37,
      "hit": false,
      "t": 281418.791999995,
      "d": 92.7417499999865,
      "v": 127
    },
    {
      "midi": 49,
      "hit": false,
      "t": 281515.565999995,
      "d": 92.7417499999865,
      "v": 127
    },
    {
      "midi": 36,
      "hit": false,
      "t": 281612.33999999496,
      "d": 92.7417499999865,
      "v": 127
    },
    {
      "midi": 48,
      "hit": false,
      "t": 281709.11399999494,
      "d": 92.7417499999865,
      "v": 127
    },
    {
      "midi": 43,
      "hit": false,
      "t": 281805.8879999949,
      "d": 92.7417499999865,
      "v": 127
    },
    {
      "midi": 55,
      "hit": false,
      "t": 281902.6619999949,
      "d": 92.7417499999865,
      "v": 127
    },
    {
      "midi": 42,
      "hit": false,
      "t": 281999.43599999486,
      "d": 92.7417499999865,
      "v": 127
    },
    {
      "midi": 54,
      "hit": false,
      "t": 282096.20999999484,
      "d": 92.7417499999865,
      "v": 127
    },
    {
      "midi": 41,
      "hit": false,
      "t": 282192.9839999948,
      "d": 92.7417499999865,
      "v": 127
    },
    {
      "midi": 53,
      "hit": false,
      "t": 282289.7579999948,
      "d": 92.7417499999865,
      "v": 127
    },
    {
      "midi": 40,
      "hit": false,
      "t": 282386.53199999477,
      "d": 92.7417499999865,
      "v": 127
    },
    {
      "midi": 52,
      "hit": false,
      "t": 282483.30599999474,
      "d": 92.7417499999865,
      "v": 127
    },
    {
      "midi": 39,
      "hit": false,
      "t": 282580.0799999947,
      "d": 92.7417499999865,
      "v": 127
    },
    {
      "midi": 51,
      "hit": false,
      "t": 282676.8539999947,
      "d": 92.7417499999865,
      "v": 127
    },
    {
      "midi": 38,
      "hit": false,
      "t": 282773.6279999947,
      "d": 92.7417499999865,
      "v": 127
    },
    {
      "midi": 50,
      "hit": false,
      "t": 282870.40199999465,
      "d": 92.7417499999865,
      "v": 127
    },
    {
      "midi": 37,
      "hit": false,
      "t": 282967.1759999946,
      "d": 92.7417499999865,
      "v": 127
    },
    {
      "midi": 49,
      "hit": false,
      "t": 283063.9499999946,
      "d": 92.7417499999865,
      "v": 127
    },
    {
      "midi": 36,
      "hit": false,
      "t": 283160.7239999946,
      "d": 92.7417499999865,
      "v": 127
    },
    {
      "midi": 48,
      "hit": false,
      "t": 283257.49799999455,
      "d": 92.7417499999865,
      "v": 127
    },
    {
      "midi": 79,
      "hit": false,
      "t": 283354.27199999255,
      "d": 322.5800000000163,
      "v": 110
    },
    {
      "midi": 95,
      "hit": false,
      "t": 283354.2719999945,
      "d": 677.4180000000051,
      "v": 127
    },
    {
      "midi": 83,
      "hit": false,
      "t": 283741.36799999257,
      "d": 322.5800000000163,
      "v": 110
    },
    {
      "midi": 86,
      "hit": false,
      "t": 284128.4639999926,
      "d": 322.5800000000163,
      "v": 110
    },
    {
      "midi": 93,
      "hit": false,
      "t": 284128.4639999945,
      "d": 322.5800000000163,
      "v": 127
    },
    {
      "midi": 83,
      "hit": false,
      "t": 284515.5599999926,
      "d": 322.5800000000163,
      "v": 110
    },
    {
      "midi": 91,
      "hit": false,
      "t": 284515.5599999945,
      "d": 322.5800000000163,
      "v": 127
    },
    {
      "midi": 78,
      "hit": false,
      "t": 284902.6559999926,
      "d": 322.5800000000163,
      "v": 110
    },
    {
      "midi": 95,
      "hit": false,
      "t": 284902.65599999455,
      "d": 1064.5140000000247,
      "v": 127
    },
    {
      "midi": 83,
      "hit": false,
      "t": 285289.75199999264,
      "d": 322.5800000000163,
      "v": 110
    },
    {
      "midi": 86,
      "hit": false,
      "t": 285676.84799999266,
      "d": 322.5800000000163,
      "v": 110
    },
    {
      "midi": 83,
      "hit": false,
      "t": 286063.9439999927,
      "d": 322.5800000000163,
      "v": 110
    },
    {
      "midi": 91,
      "hit": false,
      "t": 286063.94399999455,
      "d": 189.5157500000205,
      "v": 127
    },
    {
      "midi": 93,
      "hit": false,
      "t": 286257.49199999456,
      "d": 189.5157500000205,
      "v": 127
    },
    {
      "midi": 77,
      "hit": false,
      "t": 286451.0399999927,
      "d": 322.5800000000163,
      "v": 110
    },
    {
      "midi": 95,
      "hit": false,
      "t": 286451.03999999457,
      "d": 322.5800000000163,
      "v": 127
    },
    {
      "midi": 83,
      "hit": false,
      "t": 286838.1359999927,
      "d": 322.5800000000163,
      "v": 110
    },
    {
      "midi": 95,
      "hit": false,
      "t": 286838.1359999946,
      "d": 322.5800000000163,
      "v": 127
    },
    {
      "midi": 86,
      "hit": false,
      "t": 287225.23199999274,
      "d": 322.5800000000163,
      "v": 110
    },
    {
      "midi": 93,
      "hit": false,
      "t": 287225.2319999946,
      "d": 322.5800000000163,
      "v": 127
    },
    {
      "midi": 83,
      "hit": false,
      "t": 287612.32799999276,
      "d": 322.5800000000163,
      "v": 110
    },
    {
      "midi": 91,
      "hit": false,
      "t": 287612.3279999946,
      "d": 322.5800000000163,
      "v": 127
    },
    {
      "midi": 76,
      "hit": false,
      "t": 287999.4239999928,
      "d": 322.5800000000163,
      "v": 110
    },
    {
      "midi": 95,
      "hit": false,
      "t": 287999.42399999464,
      "d": 322.5800000000163,
      "v": 127
    },
    {
      "midi": 79,
      "hit": false,
      "t": 288386.5199999928,
      "d": 322.5800000000163,
      "v": 110
    },
    {
      "midi": 96,
      "hit": false,
      "t": 288386.51999999466,
      "d": 322.5800000000163,
      "v": 127
    },
    {
      "midi": 84,
      "hit": false,
      "t": 288773.6159999928,
      "d": 322.5800000000163,
      "v": 110
    },
    {
      "midi": 98,
      "hit": false,
      "t": 288773.6159999947,
      "d": 322.5800000000163,
      "v": 127
    },
    {
      "midi": 79,
      "hit": false,
      "t": 289160.71199999284,
      "d": 322.5800000000163,
      "v": 110
    },
    {
      "midi": 100,
      "hit": false,
      "t": 289160.7119999947,
      "d": 322.5800000000163,
      "v": 127
    },
    {
      "midi": 75,
      "hit": false,
      "t": 289547.80799999286,
      "d": 322.5800000000163,
      "v": 110
    },
    {
      "midi": 79,
      "hit": false,
      "t": 289934.9039999929,
      "d": 322.5800000000163,
      "v": 110
    },
    {
      "midi": 91,
      "hit": false,
      "t": 289934.90399999474,
      "d": 322.5800000000163,
      "v": 127
    },
    {
      "midi": 84,
      "hit": false,
      "t": 290321.9999999929,
      "d": 322.5800000000163,
      "v": 110
    },
    {
      "midi": 91,
      "hit": false,
      "t": 290321.99999999476,
      "d": 322.5800000000163,
      "v": 127
    },
    {
      "midi": 79,
      "hit": false,
      "t": 290709.0959999929,
      "d": 322.5800000000163,
      "v": 110
    },
    {
      "midi": 87,
      "hit": false,
      "t": 290709.0959999948,
      "d": 322.5800000000163,
      "v": 127
    },
    {
      "midi": 74,
      "hit": false,
      "t": 291096.19199999294,
      "d": 322.5800000000163,
      "v": 110
    },
    {
      "midi": 86,
      "hit": false,
      "t": 291096.1919999948,
      "d": 677.4180000000051,
      "v": 127
    },
    {
      "midi": 79,
      "hit": false,
      "t": 291483.28799999296,
      "d": 322.5800000000163,
      "v": 110
    },
    {
      "midi": 83,
      "hit": false,
      "t": 291870.383999993,
      "d": 322.5800000000163,
      "v": 110
    },
    {
      "midi": 91,
      "hit": false,
      "t": 291870.3839999948,
      "d": 677.4180000000051,
      "v": 127
    },
    {
      "midi": 79,
      "hit": false,
      "t": 292257.479999993,
      "d": 322.5800000000163,
      "v": 110
    },
    {
      "midi": 73,
      "hit": false,
      "t": 292644.575999993,
      "d": 322.5800000000163,
      "v": 110
    },
    {
      "midi": 88,
      "hit": false,
      "t": 292644.57599999476,
      "d": 322.5800000000163,
      "v": 127
    },
    {
      "midi": 76,
      "hit": false,
      "t": 293031.67199999304,
      "d": 322.5800000000163,
      "v": 110
    },
    {
      "midi": 91,
      "hit": false,
      "t": 293031.6719999948,
      "d": 322.5800000000163,
      "v": 127
    },
    {
      "midi": 79,
      "hit": false,
      "t": 293418.76799999306,
      "d": 322.5800000000163,
      "v": 110
    },
    {
      "midi": 93,
      "hit": false,
      "t": 293418.7679999948,
      "d": 322.5800000000163,
      "v": 127
    },
    {
      "midi": 81,
      "hit": false,
      "t": 293805.8639999931,
      "d": 322.5800000000163,
      "v": 110
    },
    {
      "midi": 95,
      "hit": false,
      "t": 293805.8639999948,
      "d": 322.5800000000163,
      "v": 127
    },
    {
      "midi": 79,
      "hit": false,
      "t": 294192.9599999931,
      "d": 322.5800000000163,
      "v": 110
    },
    {
      "midi": 93,
      "hit": false,
      "t": 294192.95999999484,
      "d": 677.4180000000051,
      "v": 127
    },
    {
      "midi": 72,
      "hit": false,
      "t": 294580.0559999931,
      "d": 322.5800000000163,
      "v": 110
    },
    {
      "midi": 78,
      "hit": false,
      "t": 294967.15199999313,
      "d": 322.5800000000163,
      "v": 110
    },
    {
      "midi": 86,
      "hit": false,
      "t": 294967.1519999948,
      "d": 677.4180000000051,
      "v": 127
    },
    {
      "midi": 74,
      "hit": false,
      "t": 295354.24799999315,
      "d": 322.5800000000163,
      "v": 110
    },
    {
      "midi": 79,
      "hit": false,
      "t": 295741.3439999932,
      "d": 322.5800000000163,
      "v": 110
    },
    {
      "midi": 95,
      "hit": false,
      "t": 295741.3439999948,
      "d": 677.4180000000051,
      "v": 127
    },
    {
      "midi": 83,
      "hit": false,
      "t": 296128.4399999932,
      "d": 322.5800000000163,
      "v": 110
    },
    {
      "midi": 86,
      "hit": false,
      "t": 296515.5359999932,
      "d": 322.5800000000163,
      "v": 110
    },
    {
      "midi": 93,
      "hit": false,
      "t": 296515.5359999948,
      "d": 322.5800000000163,
      "v": 127
    },
    {
      "midi": 83,
      "hit": false,
      "t": 296902.63199999323,
      "d": 322.5800000000163,
      "v": 110
    },
    {
      "midi": 91,
      "hit": false,
      "t": 296902.6319999948,
      "d": 322.5800000000163,
      "v": 127
    },
    {
      "midi": 78,
      "hit": false,
      "t": 297289.72799999325,
      "d": 322.5800000000163,
      "v": 110
    },
    {
      "midi": 95,
      "hit": false,
      "t": 297289.7279999948,
      "d": 1064.5140000000247,
      "v": 127
    },
    {
      "midi": 83,
      "hit": false,
      "t": 297676.82399999327,
      "d": 322.5800000000163,
      "v": 110
    },
    {
      "midi": 86,
      "hit": false,
      "t": 298063.9199999933,
      "d": 322.5800000000163,
      "v": 110
    },
    {
      "midi": 83,
      "hit": false,
      "t": 298451.0159999933,
      "d": 322.5800000000163,
      "v": 110
    },
    {
      "midi": 91,
      "hit": false,
      "t": 298451.0159999948,
      "d": 189.5157500000205,
      "v": 127
    },
    {
      "midi": 93,
      "hit": false,
      "t": 298644.56399999483,
      "d": 189.5157500000205,
      "v": 127
    },
    {
      "midi": 77,
      "hit": false,
      "t": 298838.1119999933,
      "d": 322.5800000000163,
      "v": 110
    },
    {
      "midi": 95,
      "hit": false,
      "t": 298838.11199999484,
      "d": 322.5800000000163,
      "v": 127
    },
    {
      "midi": 83,
      "hit": false,
      "t": 299225.20799999335,
      "d": 322.5800000000163,
      "v": 110
    },
    {
      "midi": 95,
      "hit": false,
      "t": 299225.20799999486,
      "d": 322.5800000000163,
      "v": 127
    },
    {
      "midi": 86,
      "hit": false,
      "t": 299612.30399999337,
      "d": 322.5800000000163,
      "v": 110
    },
    {
      "midi": 93,
      "hit": false,
      "t": 299612.3039999949,
      "d": 322.5800000000163,
      "v": 127
    },
    {
      "midi": 83,
      "hit": false,
      "t": 299999.3999999934,
      "d": 322.5800000000163,
      "v": 110
    },
    {
      "midi": 91,
      "hit": false,
      "t": 299999.3999999949,
      "d": 322.5800000000163,
      "v": 127
    },
    {
      "midi": 76,
      "hit": false,
      "t": 300386.4959999934,
      "d": 322.5800000000163,
      "v": 110
    },
    {
      "midi": 95,
      "hit": false,
      "t": 300386.4959999949,
      "d": 322.5800000000163,
      "v": 127
    },
    {
      "midi": 79,
      "hit": false,
      "t": 300773.5919999934,
      "d": 322.5800000000163,
      "v": 110
    },
    {
      "midi": 96,
      "hit": false,
      "t": 300773.59199999494,
      "d": 322.5800000000163,
      "v": 127
    },
    {
      "midi": 84,
      "hit": false,
      "t": 301160.68799999345,
      "d": 322.5800000000163,
      "v": 110
    },
    {
      "midi": 98,
      "hit": false,
      "t": 301160.68799999496,
      "d": 322.5800000000163,
      "v": 127
    },
    {
      "midi": 79,
      "hit": false,
      "t": 301547.78399999347,
      "d": 322.5800000000163,
      "v": 110
    },
    {
      "midi": 100,
      "hit": false,
      "t": 301547.783999995,
      "d": 322.5800000000163,
      "v": 127
    },
    {
      "midi": 75,
      "hit": false,
      "t": 301934.8799999935,
      "d": 322.5800000000163,
      "v": 110
    },
    {
      "midi": 79,
      "hit": false,
      "t": 302321.9759999935,
      "d": 322.5800000000163,
      "v": 110
    },
    {
      "midi": 91,
      "hit": false,
      "t": 302321.975999995,
      "d": 322.5800000000163,
      "v": 127
    },
    {
      "midi": 84,
      "hit": false,
      "t": 302709.0719999935,
      "d": 322.5800000000163,
      "v": 110
    },
    {
      "midi": 91,
      "hit": false,
      "t": 302709.07199999504,
      "d": 322.5800000000163,
      "v": 127
    },
    {
      "midi": 79,
      "hit": false,
      "t": 303096.16799999354,
      "d": 322.5800000000163,
      "v": 110
    },
    {
      "midi": 87,
      "hit": false,
      "t": 303096.16799999506,
      "d": 322.5800000000163,
      "v": 127
    },
    {
      "midi": 74,
      "hit": false,
      "t": 303483.26399999356,
      "d": 322.5800000000163,
      "v": 110
    },
    {
      "midi": 86,
      "hit": false,
      "t": 303483.2639999951,
      "d": 677.4180000000051,
      "v": 127
    },
    {
      "midi": 79,
      "hit": false,
      "t": 303870.3599999936,
      "d": 322.5800000000163,
      "v": 110
    },
    {
      "midi": 83,
      "hit": false,
      "t": 304257.4559999936,
      "d": 322.5800000000163,
      "v": 110
    },
    {
      "midi": 91,
      "hit": false,
      "t": 304257.45599999506,
      "d": 677.4180000000051,
      "v": 127
    },
    {
      "midi": 79,
      "hit": false,
      "t": 304644.5519999936,
      "d": 322.5800000000163,
      "v": 110
    },
    {
      "midi": 76,
      "hit": false,
      "t": 305031.64799999364,
      "d": 322.5800000000163,
      "v": 110
    },
    {
      "midi": 96,
      "hit": false,
      "t": 305031.64799999504,
      "d": 322.5800000000163,
      "v": 127
    },
    {
      "midi": 79,
      "hit": false,
      "t": 305418.74399999366,
      "d": 322.5800000000163,
      "v": 110
    },
    {
      "midi": 88,
      "hit": false,
      "t": 305418.74399999506,
      "d": 322.5800000000163,
      "v": 127
    },
    {
      "midi": 81,
      "hit": false,
      "t": 305805.8399999937,
      "d": 322.5800000000163,
      "v": 110
    },
    {
      "midi": 90,
      "hit": false,
      "t": 305805.8399999951,
      "d": 322.5800000000163,
      "v": 127
    },
    {
      "midi": 78,
      "hit": false,
      "t": 306192.9359999937,
      "d": 322.5800000000163,
      "v": 110
    },
    {
      "midi": 86,
      "hit": false,
      "t": 306192.9359999951,
      "d": 322.5800000000163,
      "v": 127
    },
    {
      "midi": 83,
      "hit": false,
      "t": 306580.0319999937,
      "d": 677.4180000000051,
      "v": 110
    },
    {
      "midi": 91,
      "hit": false,
      "t": 306580.0319999951,
      "d": 677.4180000000051,
      "v": 127
    },
    {
      "midi": 67,
      "hit": false,
      "t": 307354.2239999937,
      "d": 677.4180000000051,
      "v": 110
    },
    {
      "midi": 45,
      "hit": false,
      "t": 308128.4159999937,
      "d": 193.54800000000978,
      "v": 127
    },
    {
      "midi": 73,
      "hit": false,
      "t": 308128.41599999514,
      "d": 387.09600000001956,
      "v": 127
    },
    {
      "midi": 45,
      "hit": false,
      "t": 308321.9639999937,
      "d": 193.54800000000978,
      "v": 127
    },
    {
      "midi": 57,
      "hit": false,
      "t": 308515.5119999937,
      "d": 193.54800000000978,
      "v": 127
    },
    {
      "midi": 64,
      "hit": false,
      "t": 308515.51199999516,
      "d": 387.09600000001956,
      "v": 127
    },
    {
      "midi": 57,
      "hit": false,
      "t": 308709.0599999937,
      "d": 193.54800000000978,
      "v": 127
    },
    {
      "midi": 45,
      "hit": false,
      "t": 308902.6079999937,
      "d": 193.54800000000978,
      "v": 127
    },
    {
      "midi": 69,
      "hit": false,
      "t": 308902.6079999952,
      "d": 387.09600000001956,
      "v": 127
    },
    {
      "midi": 45,
      "hit": false,
      "t": 309096.15599999373,
      "d": 193.54800000000978,
      "v": 127
    },
    {
      "midi": 57,
      "hit": false,
      "t": 309289.70399999374,
      "d": 193.54800000000978,
      "v": 127
    },
    {
      "midi": 73,
      "hit": false,
      "t": 309289.7039999952,
      "d": 387.09600000001956,
      "v": 127
    },
    {
      "midi": 57,
      "hit": false,
      "t": 309483.25199999375,
      "d": 193.54800000000978,
      "v": 127
    },
    {
      "midi": 45,
      "hit": false,
      "t": 309676.79999999376,
      "d": 193.54800000000978,
      "v": 127
    },
    {
      "midi": 75,
      "hit": false,
      "t": 309676.7999999952,
      "d": 387.09600000001956,
      "v": 127
    },
    {
      "midi": 45,
      "hit": false,
      "t": 309870.34799999377,
      "d": 193.54800000000978,
      "v": 127
    },
    {
      "midi": 57,
      "hit": false,
      "t": 310063.8959999938,
      "d": 193.54800000000978,
      "v": 127
    },
    {
      "midi": 66,
      "hit": false,
      "t": 310063.89599999523,
      "d": 387.09600000001956,
      "v": 127
    },
    {
      "midi": 57,
      "hit": false,
      "t": 310257.4439999938,
      "d": 193.54800000000978,
      "v": 127
    },
    {
      "midi": 45,
      "hit": false,
      "t": 310450.9919999938,
      "d": 193.54800000000978,
      "v": 127
    },
    {
      "midi": 71,
      "hit": false,
      "t": 310450.99199999525,
      "d": 387.09600000001956,
      "v": 127
    },
    {
      "midi": 45,
      "hit": false,
      "t": 310644.5399999938,
      "d": 193.54800000000978,
      "v": 127
    },
    {
      "midi": 57,
      "hit": false,
      "t": 310838.0879999938,
      "d": 193.54800000000978,
      "v": 127
    },
    {
      "midi": 75,
      "hit": false,
      "t": 310838.0879999953,
      "d": 387.09600000001956,
      "v": 127
    },
    {
      "midi": 57,
      "hit": false,
      "t": 311031.6359999938,
      "d": 193.54800000000978,
      "v": 127
    },
    {
      "midi": 45,
      "hit": false,
      "t": 311225.18399999384,
      "d": 193.54800000000978,
      "v": 127
    },
    {
      "midi": 76,
      "hit": false,
      "t": 311225.1839999953,
      "d": 387.09600000001956,
      "v": 127
    },
    {
      "midi": 45,
      "hit": false,
      "t": 311418.73199999385,
      "d": 193.54800000000978,
      "v": 127
    },
    {
      "midi": 57,
      "hit": false,
      "t": 311612.27999999386,
      "d": 193.54800000000978,
      "v": 127
    },
    {
      "midi": 67,
      "hit": false,
      "t": 311612.2799999953,
      "d": 387.09600000001956,
      "v": 127
    },
    {
      "midi": 57,
      "hit": false,
      "t": 311805.82799999387,
      "d": 193.54800000000978,
      "v": 127
    },
    {
      "midi": 45,
      "hit": false,
      "t": 311999.3759999939,
      "d": 193.54800000000978,
      "v": 127
    },
    {
      "midi": 73,
      "hit": false,
      "t": 311999.37599999533,
      "d": 387.09600000001956,
      "v": 127
    },
    {
      "midi": 45,
      "hit": false,
      "t": 312192.9239999939,
      "d": 193.54800000000978,
      "v": 127
    },
    {
      "midi": 57,
      "hit": false,
      "t": 312386.4719999939,
      "d": 193.54800000000978,
      "v": 127
    },
    {
      "midi": 76,
      "hit": false,
      "t": 312386.47199999535,
      "d": 387.09600000001956,
      "v": 127
    },
    {
      "midi": 57,
      "hit": false,
      "t": 312580.0199999939,
      "d": 193.54800000000978,
      "v": 127
    },
    {
      "midi": 45,
      "hit": false,
      "t": 312773.5679999939,
      "d": 193.54800000000978,
      "v": 127
    },
    {
      "midi": 78,
      "hit": false,
      "t": 312773.5679999954,
      "d": 387.09600000001956,
      "v": 127
    },
    {
      "midi": 45,
      "hit": false,
      "t": 312967.1159999939,
      "d": 193.54800000000978,
      "v": 127
    },
    {
      "midi": 57,
      "hit": false,
      "t": 313160.66399999394,
      "d": 193.54800000000978,
      "v": 127
    },
    {
      "midi": 69,
      "hit": false,
      "t": 313160.6639999954,
      "d": 387.09600000001956,
      "v": 127
    },
    {
      "midi": 57,
      "hit": false,
      "t": 313354.21199999395,
      "d": 193.54800000000978,
      "v": 127
    },
    {
      "midi": 45,
      "hit": false,
      "t": 313547.75999999396,
      "d": 193.54800000000978,
      "v": 127
    },
    {
      "midi": 73,
      "hit": false,
      "t": 313547.7599999954,
      "d": 387.09600000001956,
      "v": 127
    },
    {
      "midi": 45,
      "hit": false,
      "t": 313741.30799999397,
      "d": 193.54800000000978,
      "v": 127
    },
    {
      "midi": 57,
      "hit": false,
      "t": 313934.855999994,
      "d": 193.54800000000978,
      "v": 127
    },
    {
      "midi": 78,
      "hit": false,
      "t": 313934.85599999543,
      "d": 387.09600000001956,
      "v": 127
    },
    {
      "midi": 57,
      "hit": false,
      "t": 314128.403999994,
      "d": 193.54800000000978,
      "v": 127
    },
    {
      "midi": 40,
      "hit": false,
      "t": 314321.951999994,
      "d": 193.54800000000978,
      "v": 127
    },
    {
      "midi": 80,
      "hit": false,
      "t": 314321.95199999545,
      "d": 387.09600000001956,
      "v": 127
    },
    {
      "midi": 40,
      "hit": false,
      "t": 314515.499999994,
      "d": 193.54800000000978,
      "v": 127
    },
    {
      "midi": 52,
      "hit": false,
      "t": 314709.047999994,
      "d": 193.54800000000978,
      "v": 127
    },
    {
      "midi": 71,
      "hit": false,
      "t": 314709.04799999547,
      "d": 387.09600000001956,
      "v": 127
    },
    {
      "midi": 52,
      "hit": false,
      "t": 314902.595999994,
      "d": 193.54800000000978,
      "v": 127
    },
    {
      "midi": 40,
      "hit": false,
      "t": 315096.14399999403,
      "d": 193.54800000000978,
      "v": 127
    },
    {
      "midi": 76,
      "hit": false,
      "t": 315096.1439999955,
      "d": 387.09600000001956,
      "v": 127
    },
    {
      "midi": 40,
      "hit": false,
      "t": 315289.69199999404,
      "d": 193.54800000000978,
      "v": 127
    },
    {
      "midi": 52,
      "hit": false,
      "t": 315483.23999999405,
      "d": 193.54800000000978,
      "v": 127
    },
    {
      "midi": 80,
      "hit": false,
      "t": 315483.2399999955,
      "d": 387.09600000001956,
      "v": 127
    },
    {
      "midi": 52,
      "hit": false,
      "t": 315676.78799999406,
      "d": 193.54800000000978,
      "v": 127
    },
    {
      "midi": 40,
      "hit": false,
      "t": 315870.3359999941,
      "d": 193.54800000000978,
      "v": 127
    },
    {
      "midi": 81,
      "hit": false,
      "t": 315870.3359999955,
      "d": 387.09600000001956,
      "v": 127
    },
    {
      "midi": 40,
      "hit": false,
      "t": 316063.8839999941,
      "d": 193.54800000000978,
      "v": 127
    },
    {
      "midi": 52,
      "hit": false,
      "t": 316257.4319999941,
      "d": 193.54800000000978,
      "v": 127
    },
    {
      "midi": 73,
      "hit": false,
      "t": 316257.43199999555,
      "d": 387.09600000001956,
      "v": 127
    },
    {
      "midi": 52,
      "hit": false,
      "t": 316450.9799999941,
      "d": 193.54800000000978,
      "v": 127
    },
    {
      "midi": 40,
      "hit": false,
      "t": 316644.5279999941,
      "d": 193.54800000000978,
      "v": 127
    },
    {
      "midi": 76,
      "hit": false,
      "t": 316644.52799999557,
      "d": 387.09600000001956,
      "v": 127
    },
    {
      "midi": 40,
      "hit": false,
      "t": 316838.0759999941,
      "d": 193.54800000000978,
      "v": 127
    },
    {
      "midi": 52,
      "hit": false,
      "t": 317031.62399999413,
      "d": 193.54800000000978,
      "v": 127
    },
    {
      "midi": 81,
      "hit": false,
      "t": 317031.6239999956,
      "d": 387.09600000001956,
      "v": 127
    },
    {
      "midi": 52,
      "hit": false,
      "t": 317225.17199999414,
      "d": 193.54800000000978,
      "v": 127
    },
    {
      "midi": 40,
      "hit": false,
      "t": 317418.71999999415,
      "d": 193.54800000000978,
      "v": 127
    },
    {
      "midi": 80,
      "hit": false,
      "t": 317418.7199999956,
      "d": 387.09600000001956,
      "v": 127
    },
    {
      "midi": 40,
      "hit": false,
      "t": 317612.26799999416,
      "d": 193.54800000000978,
      "v": 127
    },
    {
      "midi": 52,
      "hit": false,
      "t": 317805.81599999417,
      "d": 193.54800000000978,
      "v": 127
    },
    {
      "midi": 71,
      "hit": false,
      "t": 317805.8159999956,
      "d": 387.09600000001956,
      "v": 127
    },
    {
      "midi": 52,
      "hit": false,
      "t": 317999.3639999942,
      "d": 193.54800000000978,
      "v": 127
    },
    {
      "midi": 40,
      "hit": false,
      "t": 318192.9119999942,
      "d": 193.54800000000978,
      "v": 127
    },
    {
      "midi": 76,
      "hit": false,
      "t": 318192.91199999565,
      "d": 387.09600000001956,
      "v": 127
    },
    {
      "midi": 40,
      "hit": false,
      "t": 318386.4599999942,
      "d": 193.54800000000978,
      "v": 127
    },
    {
      "midi": 52,
      "hit": false,
      "t": 318580.0079999942,
      "d": 193.54800000000978,
      "v": 127
    },
    {
      "midi": 80,
      "hit": false,
      "t": 318580.00799999567,
      "d": 387.09600000001956,
      "v": 127
    },
    {
      "midi": 52,
      "hit": false,
      "t": 318773.5559999942,
      "d": 193.54800000000978,
      "v": 127
    },
    {
      "midi": 40,
      "hit": false,
      "t": 318967.10399999423,
      "d": 193.54800000000978,
      "v": 127
    },
    {
      "midi": 81,
      "hit": false,
      "t": 318967.1039999957,
      "d": 387.09600000001956,
      "v": 127
    },
    {
      "midi": 40,
      "hit": false,
      "t": 319160.65199999424,
      "d": 193.54800000000978,
      "v": 127
    },
    {
      "midi": 52,
      "hit": false,
      "t": 319354.19999999425,
      "d": 193.54800000000978,
      "v": 127
    },
    {
      "midi": 73,
      "hit": false,
      "t": 319354.1999999957,
      "d": 387.09600000001956,
      "v": 127
    },
    {
      "midi": 52,
      "hit": false,
      "t": 319547.74799999426,
      "d": 193.54800000000978,
      "v": 127
    },
    {
      "midi": 40,
      "hit": false,
      "t": 319741.29599999427,
      "d": 193.54800000000978,
      "v": 127
    },
    {
      "midi": 76,
      "hit": false,
      "t": 319741.2959999957,
      "d": 387.09600000001956,
      "v": 127
    },
    {
      "midi": 40,
      "hit": false,
      "t": 319934.8439999943,
      "d": 193.54800000000978,
      "v": 127
    },
    {
      "midi": 52,
      "hit": false,
      "t": 320128.3919999943,
      "d": 193.54800000000978,
      "v": 127
    },
    {
      "midi": 81,
      "hit": false,
      "t": 320128.39199999574,
      "d": 387.09600000001956,
      "v": 127
    },
    {
      "midi": 52,
      "hit": false,
      "t": 320321.9399999943,
      "d": 193.54800000000978,
      "v": 127
    },
    {
      "midi": 52,
      "hit": false,
      "t": 320515.4879999943,
      "d": 387.09600000001956,
      "v": 127
    },
    {
      "midi": 56,
      "hit": false,
      "t": 320515.4879999943,
      "d": 387.09600000001956,
      "v": 127
    },
    {
      "midi": 80,
      "hit": false,
      "t": 320515.48799999576,
      "d": 580.6439999999711,
      "v": 127
    },
    {
      "midi": 52,
      "hit": false,
      "t": 320902.5839999943,
      "d": 387.09600000001956,
      "v": 127
    },
    {
      "midi": 56,
      "hit": false,
      "t": 320902.5839999943,
      "d": 387.09600000001956,
      "v": 127
    },
    {
      "midi": 76,
      "hit": false,
      "t": 321096.13199999573,
      "d": 580.6439999999711,
      "v": 127
    },
    {
      "midi": 52,
      "hit": false,
      "t": 321289.67999999435,
      "d": 387.09600000001956,
      "v": 127
    },
    {
      "midi": 56,
      "hit": false,
      "t": 321289.67999999435,
      "d": 387.09600000001956,
      "v": 127
    },
    {
      "midi": 52,
      "hit": false,
      "t": 321676.77599999437,
      "d": 387.09600000001956,
      "v": 127
    },
    {
      "midi": 56,
      "hit": false,
      "t": 321676.77599999437,
      "d": 387.09600000001956,
      "v": 127
    },
    {
      "midi": 71,
      "hit": false,
      "t": 321676.7759999957,
      "d": 580.6439999999711,
      "v": 127
    },
    {
      "midi": 51,
      "hit": false,
      "t": 322063.8719999944,
      "d": 387.09600000001956,
      "v": 127
    },
    {
      "midi": 54,
      "hit": false,
      "t": 322063.8719999944,
      "d": 387.09600000001956,
      "v": 127
    },
    {
      "midi": 78,
      "hit": false,
      "t": 322257.4199999957,
      "d": 387.09600000001956,
      "v": 127
    },
    {
      "midi": 51,
      "hit": false,
      "t": 322450.9679999944,
      "d": 387.09600000001956,
      "v": 127
    },
    {
      "midi": 54,
      "hit": false,
      "t": 322450.9679999944,
      "d": 387.09600000001956,
      "v": 127
    },
    {
      "midi": 81,
      "hit": false,
      "t": 322644.5159999957,
      "d": 387.09600000001956,
      "v": 127
    },
    {
      "midi": 51,
      "hit": false,
      "t": 322838.0639999944,
      "d": 387.09600000001956,
      "v": 127
    },
    {
      "midi": 54,
      "hit": false,
      "t": 322838.0639999944,
      "d": 387.09600000001956,
      "v": 127
    },
    {
      "midi": 80,
      "hit": false,
      "t": 323031.6119999957,
      "d": 193.54800000000978,
      "v": 127
    },
    {
      "midi": 51,
      "hit": false,
      "t": 323225.15999999444,
      "d": 387.09600000001956,
      "v": 127
    },
    {
      "midi": 54,
      "hit": false,
      "t": 323225.15999999444,
      "d": 387.09600000001956,
      "v": 127
    },
    {
      "midi": 78,
      "hit": false,
      "t": 323225.1599999957,
      "d": 193.54800000000978,
      "v": 127
    },
    {
      "midi": 76,
      "hit": false,
      "t": 323418.70799999574,
      "d": 1548.38400000002,
      "v": 127
    },
    {
      "midi": 50,
      "hit": false,
      "t": 323612.25599999446,
      "d": 387.09600000001956,
      "v": 127
    },
    {
      "midi": 52,
      "hit": false,
      "t": 323612.25599999446,
      "d": 387.09600000001956,
      "v": 127
    },
    {
      "midi": 50,
      "hit": false,
      "t": 323999.3519999945,
      "d": 387.09600000001956,
      "v": 127
    },
    {
      "midi": 52,
      "hit": false,
      "t": 323999.3519999945,
      "d": 387.09600000001956,
      "v": 127
    },
    {
      "midi": 50,
      "hit": false,
      "t": 324386.4479999945,
      "d": 387.09600000001956,
      "v": 127
    },
    {
      "midi": 52,
      "hit": false,
      "t": 324386.4479999945,
      "d": 387.09600000001956,
      "v": 127
    },
    {
      "midi": 50,
      "hit": false,
      "t": 324773.5439999945,
      "d": 387.09600000001956,
      "v": 127
    },
    {
      "midi": 52,
      "hit": false,
      "t": 324773.5439999945,
      "d": 387.09600000001956,
      "v": 127
    },
    {
      "midi": 49,
      "hit": false,
      "t": 325160.63999999454,
      "d": 387.09600000001956,
      "v": 127
    },
    {
      "midi": 52,
      "hit": false,
      "t": 325160.63999999454,
      "d": 387.09600000001956,
      "v": 127
    },
    {
      "midi": 49,
      "hit": false,
      "t": 325547.73599999456,
      "d": 387.09600000001956,
      "v": 127
    },
    {
      "midi": 52,
      "hit": false,
      "t": 325547.73599999456,
      "d": 387.09600000001956,
      "v": 127
    },
    {
      "midi": 49,
      "hit": false,
      "t": 325934.8319999946,
      "d": 387.09600000001956,
      "v": 127
    },
    {
      "midi": 52,
      "hit": false,
      "t": 325934.8319999946,
      "d": 387.09600000001956,
      "v": 127
    },
    {
      "midi": 49,
      "hit": false,
      "t": 326321.9279999946,
      "d": 387.09600000001956,
      "v": 127
    },
    {
      "midi": 52,
      "hit": false,
      "t": 326321.9279999946,
      "d": 387.09600000001956,
      "v": 127
    },
    {
      "midi": 45,
      "hit": false,
      "t": 326709.0239999946,
      "d": 387.09600000001956,
      "v": 127
    },
    {
      "midi": 52,
      "hit": false,
      "t": 326709.0239999946,
      "d": 387.09600000001956,
      "v": 127
    },
    {
      "midi": 80,
      "hit": false,
      "t": 326709.0239999957,
      "d": 580.6439999999711,
      "v": 127
    },
    {
      "midi": 45,
      "hit": false,
      "t": 327096.11999999464,
      "d": 387.09600000001956,
      "v": 127
    },
    {
      "midi": 52,
      "hit": false,
      "t": 327096.11999999464,
      "d": 387.09600000001956,
      "v": 127
    },
    {
      "midi": 76,
      "hit": false,
      "t": 327289.6679999957,
      "d": 580.6439999999711,
      "v": 127
    },
    {
      "midi": 45,
      "hit": false,
      "t": 327483.21599999466,
      "d": 387.09600000001956,
      "v": 127
    },
    {
      "midi": 52,
      "hit": false,
      "t": 327483.21599999466,
      "d": 387.09600000001956,
      "v": 127
    },
    {
      "midi": 45,
      "hit": false,
      "t": 327870.3119999947,
      "d": 387.09600000001956,
      "v": 127
    },
    {
      "midi": 52,
      "hit": false,
      "t": 327870.3119999947,
      "d": 387.09600000001956,
      "v": 127
    },
    {
      "midi": 71,
      "hit": false,
      "t": 327870.31199999567,
      "d": 387.09600000001956,
      "v": 127
    },
    {
      "midi": 44,
      "hit": false,
      "t": 328257.4079999947,
      "d": 387.09600000001956,
      "v": 127
    },
    {
      "midi": 52,
      "hit": false,
      "t": 328257.4079999947,
      "d": 387.09600000001956,
      "v": 127
    },
    {
      "midi": 76,
      "hit": false,
      "t": 328257.4079999957,
      "d": 774.1919999999809,
      "v": 127
    },
    {
      "midi": 44,
      "hit": false,
      "t": 328644.5039999947,
      "d": 387.09600000001956,
      "v": 127
    },
    {
      "midi": 52,
      "hit": false,
      "t": 328644.5039999947,
      "d": 387.09600000001956,
      "v": 127
    },
    {
      "midi": 44,
      "hit": false,
      "t": 329031.59999999474,
      "d": 387.09600000001956,
      "v": 127
    },
    {
      "midi": 52,
      "hit": false,
      "t": 329031.59999999474,
      "d": 387.09600000001956,
      "v": 127
    },
    {
      "midi": 75,
      "hit": false,
      "t": 329225.1479999957,
      "d": 193.54800000000978,
      "v": 127
    },
    {
      "midi": 44,
      "hit": false,
      "t": 329418.69599999476,
      "d": 387.09600000001956,
      "v": 127
    },
    {
      "midi": 52,
      "hit": false,
      "t": 329418.69599999476,
      "d": 387.09600000001956,
      "v": 127
    },
    {
      "midi": 76,
      "hit": false,
      "t": 329418.6959999957,
      "d": 193.54800000000978,
      "v": 127
    },
    {
      "midi": 78,
      "hit": false,
      "t": 329612.2439999957,
      "d": 774.1919999999809,
      "v": 127
    },
    {
      "midi": 42,
      "hit": false,
      "t": 329805.7919999948,
      "d": 387.09600000001956,
      "v": 127
    },
    {
      "midi": 49,
      "hit": false,
      "t": 329805.7919999948,
      "d": 387.09600000001956,
      "v": 127
    },
    {
      "midi": 42,
      "hit": false,
      "t": 330192.8879999948,
      "d": 387.09600000001956,
      "v": 127
    },
    {
      "midi": 49,
      "hit": false,
      "t": 330192.8879999948,
      "d": 387.09600000001956,
      "v": 127
    },
    {
      "midi": 42,
      "hit": false,
      "t": 330579.9839999948,
      "d": 387.09600000001956,
      "v": 127
    },
    {
      "midi": 49,
      "hit": false,
      "t": 330579.9839999948,
      "d": 387.09600000001956,
      "v": 127
    },
    {
      "midi": 73,
      "hit": false,
      "t": 330579.9839999957,
      "d": 774.1919999999809,
      "v": 127
    },
    {
      "midi": 42,
      "hit": false,
      "t": 330967.07999999484,
      "d": 387.09600000001956,
      "v": 127
    },
    {
      "midi": 49,
      "hit": false,
      "t": 330967.07999999484,
      "d": 387.09600000001956,
      "v": 127
    },
    {
      "midi": 47,
      "hit": false,
      "t": 331354.17599999486,
      "d": 387.09600000001956,
      "v": 127
    },
    {
      "midi": 51,
      "hit": false,
      "t": 331354.17599999486,
      "d": 387.09600000001956,
      "v": 127
    },
    {
      "midi": 75,
      "hit": false,
      "t": 331354.17599999567,
      "d": 1548.38400000002,
      "v": 127
    },
    {
      "midi": 47,
      "hit": false,
      "t": 331741.2719999949,
      "d": 387.09600000001956,
      "v": 127
    },
    {
      "midi": 51,
      "hit": false,
      "t": 331741.2719999949,
      "d": 387.09600000001956,
      "v": 127
    },
    {
      "midi": 47,
      "hit": false,
      "t": 332128.3679999949,
      "d": 387.09600000001956,
      "v": 127
    },
    {
      "midi": 51,
      "hit": false,
      "t": 332128.3679999949,
      "d": 387.09600000001956,
      "v": 127
    },
    {
      "midi": 47,
      "hit": false,
      "t": 332515.4639999949,
      "d": 387.09600000001956,
      "v": 127
    },
    {
      "midi": 51,
      "hit": false,
      "t": 332515.4639999949,
      "d": 387.09600000001956,
      "v": 127
    },
    {
      "midi": 52,
      "hit": false,
      "t": 332902.55999999493,
      "d": 387.09600000001956,
      "v": 127
    },
    {
      "midi": 56,
      "hit": false,
      "t": 332902.55999999493,
      "d": 387.09600000001956,
      "v": 127
    },
    {
      "midi": 80,
      "hit": false,
      "t": 332902.5599999957,
      "d": 580.6439999999711,
      "v": 127
    },
    {
      "midi": 52,
      "hit": false,
      "t": 333289.65599999495,
      "d": 387.09600000001956,
      "v": 127
    },
    {
      "midi": 56,
      "hit": false,
      "t": 333289.65599999495,
      "d": 387.09600000001956,
      "v": 127
    },
    {
      "midi": 76,
      "hit": false,
      "t": 333483.20399999566,
      "d": 580.6439999999711,
      "v": 127
    },
    {
      "midi": 52,
      "hit": false,
      "t": 333676.751999995,
      "d": 387.09600000001956,
      "v": 127
    },
    {
      "midi": 56,
      "hit": false,
      "t": 333676.751999995,
      "d": 387.09600000001956,
      "v": 127
    },
    {
      "midi": 52,
      "hit": false,
      "t": 334063.847999995,
      "d": 387.09600000001956,
      "v": 127
    },
    {
      "midi": 56,
      "hit": false,
      "t": 334063.847999995,
      "d": 387.09600000001956,
      "v": 127
    },
    {
      "midi": 71,
      "hit": false,
      "t": 334063.84799999563,
      "d": 580.6439999999711,
      "v": 127
    },
    {
      "midi": 51,
      "hit": false,
      "t": 334450.943999995,
      "d": 387.09600000001956,
      "v": 127
    },
    {
      "midi": 54,
      "hit": false,
      "t": 334450.943999995,
      "d": 387.09600000001956,
      "v": 127
    },
    {
      "midi": 78,
      "hit": false,
      "t": 334644.4919999956,
      "d": 387.09600000001956,
      "v": 127
    },
    {
      "midi": 51,
      "hit": false,
      "t": 334838.03999999503,
      "d": 387.09600000001956,
      "v": 127
    },
    {
      "midi": 54,
      "hit": false,
      "t": 334838.03999999503,
      "d": 387.09600000001956,
      "v": 127
    },
    {
      "midi": 81,
      "hit": false,
      "t": 335031.5879999956,
      "d": 387.09600000001956,
      "v": 127
    },
    {
      "midi": 51,
      "hit": false,
      "t": 335225.13599999505,
      "d": 387.09600000001956,
      "v": 127
    },
    {
      "midi": 54,
      "hit": false,
      "t": 335225.13599999505,
      "d": 387.09600000001956,
      "v": 127
    },
    {
      "midi": 80,
      "hit": false,
      "t": 335418.68399999564,
      "d": 193.54800000000978,
      "v": 127
    },
    {
      "midi": 51,
      "hit": false,
      "t": 335612.23199999507,
      "d": 387.09600000001956,
      "v": 127
    },
    {
      "midi": 54,
      "hit": false,
      "t": 335612.23199999507,
      "d": 387.09600000001956,
      "v": 127
    },
    {
      "midi": 78,
      "hit": false,
      "t": 335612.23199999565,
      "d": 193.54800000000978,
      "v": 127
    },
    {
      "midi": 76,
      "hit": false,
      "t": 335805.77999999566,
      "d": 1548.38400000002,
      "v": 127
    },
    {
      "midi": 50,
      "hit": false,
      "t": 335999.3279999951,
      "d": 387.09600000001956,
      "v": 127
    },
    {
      "midi": 52,
      "hit": false,
      "t": 335999.3279999951,
      "d": 387.09600000001956,
      "v": 127
    },
    {
      "midi": 50,
      "hit": false,
      "t": 336386.4239999951,
      "d": 387.09600000001956,
      "v": 127
    },
    {
      "midi": 52,
      "hit": false,
      "t": 336386.4239999951,
      "d": 387.09600000001956,
      "v": 127
    },
    {
      "midi": 50,
      "hit": false,
      "t": 336773.51999999513,
      "d": 387.09600000001956,
      "v": 127
    },
    {
      "midi": 52,
      "hit": false,
      "t": 336773.51999999513,
      "d": 387.09600000001956,
      "v": 127
    },
    {
      "midi": 50,
      "hit": false,
      "t": 337160.61599999515,
      "d": 387.09600000001956,
      "v": 127
    },
    {
      "midi": 52,
      "hit": false,
      "t": 337160.61599999515,
      "d": 387.09600000001956,
      "v": 127
    },
    {
      "midi": 49,
      "hit": false,
      "t": 337547.71199999517,
      "d": 387.09600000001956,
      "v": 127
    },
    {
      "midi": 52,
      "hit": false,
      "t": 337547.71199999517,
      "d": 387.09600000001956,
      "v": 127
    },
    {
      "midi": 49,
      "hit": false,
      "t": 337934.8079999952,
      "d": 387.09600000001956,
      "v": 127
    },
    {
      "midi": 52,
      "hit": false,
      "t": 337934.8079999952,
      "d": 387.09600000001956,
      "v": 127
    },
    {
      "midi": 49,
      "hit": false,
      "t": 338321.9039999952,
      "d": 387.09600000001956,
      "v": 127
    },
    {
      "midi": 52,
      "hit": false,
      "t": 338321.9039999952,
      "d": 387.09600000001956,
      "v": 127
    },
    {
      "midi": 49,
      "hit": false,
      "t": 338708.9999999952,
      "d": 387.09600000001956,
      "v": 127
    },
    {
      "midi": 52,
      "hit": false,
      "t": 338708.9999999952,
      "d": 387.09600000001956,
      "v": 127
    },
    {
      "midi": 45,
      "hit": false,
      "t": 339096.09599999525,
      "d": 387.09600000001956,
      "v": 127
    },
    {
      "midi": 52,
      "hit": false,
      "t": 339096.09599999525,
      "d": 387.09600000001956,
      "v": 127
    },
    {
      "midi": 80,
      "hit": false,
      "t": 339096.09599999565,
      "d": 580.6439999999711,
      "v": 127
    },
    {
      "midi": 45,
      "hit": false,
      "t": 339483.19199999527,
      "d": 387.09600000001956,
      "v": 127
    },
    {
      "midi": 52,
      "hit": false,
      "t": 339483.19199999527,
      "d": 387.09600000001956,
      "v": 127
    },
    {
      "midi": 76,
      "hit": false,
      "t": 339676.7399999956,
      "d": 580.6439999999711,
      "v": 127
    },
    {
      "midi": 45,
      "hit": false,
      "t": 339870.2879999953,
      "d": 387.09600000001956,
      "v": 127
    },
    {
      "midi": 52,
      "hit": false,
      "t": 339870.2879999953,
      "d": 387.09600000001956,
      "v": 127
    },
    {
      "midi": 45,
      "hit": false,
      "t": 340257.3839999953,
      "d": 387.09600000001956,
      "v": 127
    },
    {
      "midi": 52,
      "hit": false,
      "t": 340257.3839999953,
      "d": 387.09600000001956,
      "v": 127
    },
    {
      "midi": 71,
      "hit": false,
      "t": 340257.3839999956,
      "d": 387.09600000001956,
      "v": 127
    },
    {
      "midi": 44,
      "hit": false,
      "t": 340644.4799999953,
      "d": 387.09600000001956,
      "v": 127
    },
    {
      "midi": 52,
      "hit": false,
      "t": 340644.4799999953,
      "d": 387.09600000001956,
      "v": 127
    },
    {
      "midi": 76,
      "hit": false,
      "t": 340644.4799999956,
      "d": 774.1919999999809,
      "v": 127
    },
    {
      "midi": 44,
      "hit": false,
      "t": 341031.57599999534,
      "d": 387.09600000001956,
      "v": 127
    },
    {
      "midi": 52,
      "hit": false,
      "t": 341031.57599999534,
      "d": 387.09600000001956,
      "v": 127
    },
    {
      "midi": 44,
      "hit": false,
      "t": 341418.67199999536,
      "d": 387.09600000001956,
      "v": 127
    },
    {
      "midi": 52,
      "hit": false,
      "t": 341418.67199999536,
      "d": 387.09600000001956,
      "v": 127
    },
    {
      "midi": 75,
      "hit": false,
      "t": 341612.2199999956,
      "d": 193.54800000000978,
      "v": 127
    },
    {
      "midi": 44,
      "hit": false,
      "t": 341805.7679999954,
      "d": 387.09600000001956,
      "v": 127
    },
    {
      "midi": 52,
      "hit": false,
      "t": 341805.7679999954,
      "d": 387.09600000001956,
      "v": 127
    },
    {
      "midi": 76,
      "hit": false,
      "t": 341805.7679999956,
      "d": 193.54800000000978,
      "v": 127
    },
    {
      "midi": 78,
      "hit": false,
      "t": 341999.3159999956,
      "d": 774.1919999999809,
      "v": 127
    },
    {
      "midi": 42,
      "hit": false,
      "t": 342192.8639999954,
      "d": 387.09600000001956,
      "v": 127
    },
    {
      "midi": 49,
      "hit": false,
      "t": 342192.8639999954,
      "d": 387.09600000001956,
      "v": 127
    },
    {
      "midi": 42,
      "hit": false,
      "t": 342579.9599999954,
      "d": 387.09600000001956,
      "v": 127
    },
    {
      "midi": 49,
      "hit": false,
      "t": 342579.9599999954,
      "d": 387.09600000001956,
      "v": 127
    },
    {
      "midi": 42,
      "hit": false,
      "t": 342967.05599999544,
      "d": 387.09600000001956,
      "v": 127
    },
    {
      "midi": 49,
      "hit": false,
      "t": 342967.05599999544,
      "d": 387.09600000001956,
      "v": 127
    },
    {
      "midi": 73,
      "hit": false,
      "t": 342967.0559999956,
      "d": 774.1919999999809,
      "v": 127
    },
    {
      "midi": 42,
      "hit": false,
      "t": 343354.15199999546,
      "d": 387.09600000001956,
      "v": 127
    },
    {
      "midi": 49,
      "hit": false,
      "t": 343354.15199999546,
      "d": 387.09600000001956,
      "v": 127
    },
    {
      "midi": 47,
      "hit": false,
      "t": 343741.2479999955,
      "d": 387.09600000001956,
      "v": 127
    },
    {
      "midi": 51,
      "hit": false,
      "t": 343741.2479999955,
      "d": 387.09600000001956,
      "v": 127
    },
    {
      "midi": 75,
      "hit": false,
      "t": 343741.2479999956,
      "d": 1548.38400000002,
      "v": 127
    },
    {
      "midi": 47,
      "hit": false,
      "t": 344128.3439999955,
      "d": 387.09600000001956,
      "v": 127
    },
    {
      "midi": 51,
      "hit": false,
      "t": 344128.3439999955,
      "d": 387.09600000001956,
      "v": 127
    },
    {
      "midi": 47,
      "hit": false,
      "t": 344515.4399999955,
      "d": 387.09600000001956,
      "v": 127
    },
    {
      "midi": 51,
      "hit": false,
      "t": 344515.4399999955,
      "d": 387.09600000001956,
      "v": 127
    },
    {
      "midi": 47,
      "hit": false,
      "t": 344902.53599999554,
      "d": 387.09600000001956,
      "v": 127
    },
    {
      "midi": 51,
      "hit": false,
      "t": 344902.53599999554,
      "d": 387.09600000001956,
      "v": 127
    },
    {
      "midi": 45,
      "hit": false,
      "t": 345289.63199999556,
      "d": 193.54800000000978,
      "v": 127
    },
    {
      "midi": 76,
      "hit": false,
      "t": 345289.6319999956,
      "d": 1161.2880000000005,
      "v": 127
    },
    {
      "midi": 45,
      "hit": false,
      "t": 345483.17999999557,
      "d": 193.54800000000978,
      "v": 127
    },
    {
      "midi": 57,
      "hit": false,
      "t": 345676.7279999956,
      "d": 193.54800000000978,
      "v": 127
    },
    {
      "midi": 57,
      "hit": false,
      "t": 345870.2759999956,
      "d": 193.54800000000978,
      "v": 127
    },
    {
      "midi": 45,
      "hit": false,
      "t": 346063.8239999956,
      "d": 193.54800000000978,
      "v": 127
    },
    {
      "midi": 45,
      "hit": false,
      "t": 346257.3719999956,
      "d": 193.54800000000978,
      "v": 127
    },
    {
      "midi": 75,
      "hit": false,
      "t": 346450.9199999956,
      "d": 193.54800000000978,
      "v": 127
    },
    {
      "midi": 57,
      "hit": false,
      "t": 346450.9199999956,
      "d": 193.54800000000978,
      "v": 127
    },
    {
      "midi": 76,
      "hit": false,
      "t": 346644.4679999956,
      "d": 193.54800000000978,
      "v": 127
    },
    {
      "midi": 57,
      "hit": false,
      "t": 346644.4679999956,
      "d": 193.54800000000978,
      "v": 127
    },
    {
      "midi": 78,
      "hit": false,
      "t": 346838.01599999564,
      "d": 774.1919999999809,
      "v": 127
    },
    {
      "midi": 45,
      "hit": false,
      "t": 346838.01599999564,
      "d": 193.54800000000978,
      "v": 127
    },
    {
      "midi": 45,
      "hit": false,
      "t": 347031.56399999565,
      "d": 193.54800000000978,
      "v": 127
    },
    {
      "midi": 57,
      "hit": false,
      "t": 347225.11199999566,
      "d": 193.54800000000978,
      "v": 127
    },
    {
      "midi": 57,
      "hit": false,
      "t": 347418.65999999567,
      "d": 193.54800000000978,
      "v": 127
    },
    {
      "midi": 71,
      "hit": false,
      "t": 347612.2079999956,
      "d": 774.1919999999809,
      "v": 127
    },
    {
      "midi": 45,
      "hit": false,
      "t": 347612.2079999957,
      "d": 193.54800000000978,
      "v": 127
    },
    {
      "midi": 45,
      "hit": false,
      "t": 347805.7559999957,
      "d": 193.54800000000978,
      "v": 127
    },
    {
      "midi": 57,
      "hit": false,
      "t": 347999.3039999957,
      "d": 193.54800000000978,
      "v": 127
    },
    {
      "midi": 57,
      "hit": false,
      "t": 348192.8519999957,
      "d": 193.54800000000978,
      "v": 127
    },
    {
      "midi": 80,
      "hit": false,
      "t": 348386.3999999956,
      "d": 1161.2880000000005,
      "v": 127
    },
    {
      "midi": 44,
      "hit": false,
      "t": 348386.3999999957,
      "d": 193.54800000000978,
      "v": 127
    },
    {
      "midi": 44,
      "hit": false,
      "t": 348579.9479999957,
      "d": 193.54800000000978,
      "v": 127
    },
    {
      "midi": 56,
      "hit": false,
      "t": 348773.49599999574,
      "d": 193.54800000000978,
      "v": 127
    },
    {
      "midi": 56,
      "hit": false,
      "t": 348967.04399999575,
      "d": 193.54800000000978,
      "v": 127
    },
    {
      "midi": 44,
      "hit": false,
      "t": 349160.59199999576,
      "d": 193.54800000000978,
      "v": 127
    },
    {
      "midi": 44,
      "hit": false,
      "t": 349354.13999999576,
      "d": 193.54800000000978,
      "v": 127
    },
    {
      "midi": 78,
      "hit": false,
      "t": 349547.6879999956,
      "d": 193.54800000000978,
      "v": 127
    },
    {
      "midi": 56,
      "hit": false,
      "t": 349547.6879999958,
      "d": 193.54800000000978,
      "v": 127
    },
    {
      "midi": 80,
      "hit": false,
      "t": 349741.2359999956,
      "d": 193.54800000000978,
      "v": 127
    },
    {
      "midi": 56,
      "hit": false,
      "t": 349741.2359999958,
      "d": 193.54800000000978,
      "v": 127
    },
    {
      "midi": 81,
      "hit": false,
      "t": 349934.7839999956,
      "d": 387.09600000001956,
      "v": 127
    },
    {
      "midi": 44,
      "hit": false,
      "t": 349934.7839999958,
      "d": 193.54800000000978,
      "v": 127
    },
    {
      "midi": 44,
      "hit": false,
      "t": 350128.3319999958,
      "d": 193.54800000000978,
      "v": 127
    },
    {
      "midi": 73,
      "hit": false,
      "t": 350321.87999999564,
      "d": 387.09600000001956,
      "v": 127
    },
    {
      "midi": 56,
      "hit": false,
      "t": 350321.8799999958,
      "d": 193.54800000000978,
      "v": 127
    },
    {
      "midi": 56,
      "hit": false,
      "t": 350515.4279999958,
      "d": 193.54800000000978,
      "v": 127
    },
    {
      "midi": 76,
      "hit": false,
      "t": 350708.97599999566,
      "d": 387.09600000001956,
      "v": 127
    },
    {
      "midi": 47,
      "hit": false,
      "t": 350708.97599999583,
      "d": 193.54800000000978,
      "v": 127
    },
    {
      "midi": 47,
      "hit": false,
      "t": 350902.52399999584,
      "d": 193.54800000000978,
      "v": 127
    },
    {
      "midi": 75,
      "hit": false,
      "t": 351096.0719999957,
      "d": 387.09600000001956,
      "v": 127
    },
    {
      "midi": 59,
      "hit": false,
      "t": 351096.07199999585,
      "d": 193.54800000000978,
      "v": 127
    },
    {
      "midi": 59,
      "hit": false,
      "t": 351289.61999999586,
      "d": 193.54800000000978,
      "v": 127
    },
    {
      "midi": 76,
      "hit": false,
      "t": 351483.1679999957,
      "d": 1161.2880000000005,
      "v": 127
    },
    {
      "midi": 45,
      "hit": false,
      "t": 351483.1679999959,
      "d": 193.54800000000978,
      "v": 127
    },
    {
      "midi": 45,
      "hit": false,
      "t": 351676.7159999959,
      "d": 193.54800000000978,
      "v": 127
    },
    {
      "midi": 57,
      "hit": false,
      "t": 351870.2639999959,
      "d": 193.54800000000978,
      "v": 127
    },
    {
      "midi": 57,
      "hit": false,
      "t": 352063.8119999959,
      "d": 193.54800000000978,
      "v": 127
    },
    {
      "midi": 45,
      "hit": false,
      "t": 352257.3599999959,
      "d": 193.54800000000978,
      "v": 127
    },
    {
      "midi": 45,
      "hit": false,
      "t": 352450.9079999959,
      "d": 193.54800000000978,
      "v": 127
    },
    {
      "midi": 75,
      "hit": false,
      "t": 352644.4559999957,
      "d": 193.54800000000978,
      "v": 127
    },
    {
      "midi": 57,
      "hit": false,
      "t": 352644.45599999593,
      "d": 193.54800000000978,
      "v": 127
    },
    {
      "midi": 76,
      "hit": false,
      "t": 352838.0039999957,
      "d": 193.54800000000978,
      "v": 127
    },
    {
      "midi": 57,
      "hit": false,
      "t": 352838.00399999594,
      "d": 193.54800000000978,
      "v": 127
    },
    {
      "midi": 78,
      "hit": false,
      "t": 353031.5519999957,
      "d": 774.1919999999809,
      "v": 127
    },
    {
      "midi": 45,
      "hit": false,
      "t": 353031.55199999595,
      "d": 193.54800000000978,
      "v": 127
    },
    {
      "midi": 45,
      "hit": false,
      "t": 353225.09999999596,
      "d": 193.54800000000978,
      "v": 127
    },
    {
      "midi": 57,
      "hit": false,
      "t": 353418.64799999597,
      "d": 193.54800000000978,
      "v": 127
    },
    {
      "midi": 57,
      "hit": false,
      "t": 353612.195999996,
      "d": 193.54800000000978,
      "v": 127
    },
    {
      "midi": 71,
      "hit": false,
      "t": 353805.7439999957,
      "d": 774.1919999999809,
      "v": 127
    },
    {
      "midi": 45,
      "hit": false,
      "t": 353805.743999996,
      "d": 193.54800000000978,
      "v": 127
    },
    {
      "midi": 45,
      "hit": false,
      "t": 353999.291999996,
      "d": 193.54800000000978,
      "v": 127
    },
    {
      "midi": 57,
      "hit": false,
      "t": 354192.839999996,
      "d": 193.54800000000978,
      "v": 127
    },
    {
      "midi": 57,
      "hit": false,
      "t": 354386.387999996,
      "d": 193.54800000000978,
      "v": 127
    },
    {
      "midi": 80,
      "hit": false,
      "t": 354579.9359999957,
      "d": 1161.2880000000005,
      "v": 127
    },
    {
      "midi": 44,
      "hit": false,
      "t": 354579.935999996,
      "d": 193.54800000000978,
      "v": 127
    },
    {
      "midi": 44,
      "hit": false,
      "t": 354773.48399999604,
      "d": 193.54800000000978,
      "v": 127
    },
    {
      "midi": 56,
      "hit": false,
      "t": 354967.03199999605,
      "d": 193.54800000000978,
      "v": 127
    },
    {
      "midi": 56,
      "hit": false,
      "t": 355160.57999999606,
      "d": 193.54800000000978,
      "v": 127
    },
    {
      "midi": 44,
      "hit": false,
      "t": 355354.12799999607,
      "d": 193.54800000000978,
      "v": 127
    },
    {
      "midi": 44,
      "hit": false,
      "t": 355547.6759999961,
      "d": 193.54800000000978,
      "v": 127
    },
    {
      "midi": 78,
      "hit": false,
      "t": 355741.2239999957,
      "d": 193.54800000000978,
      "v": 127
    },
    {
      "midi": 56,
      "hit": false,
      "t": 355741.2239999961,
      "d": 193.54800000000978,
      "v": 127
    },
    {
      "midi": 80,
      "hit": false,
      "t": 355934.7719999957,
      "d": 193.54800000000978,
      "v": 127
    },
    {
      "midi": 56,
      "hit": false,
      "t": 355934.7719999961,
      "d": 193.54800000000978,
      "v": 127
    },
    {
      "midi": 83,
      "hit": false,
      "t": 356128.3199999957,
      "d": 193.54800000000978,
      "v": 127
    },
    {
      "midi": 43,
      "hit": false,
      "t": 356128.3199999961,
      "d": 193.54800000000978,
      "v": 127
    },
    {
      "midi": 43,
      "hit": false,
      "t": 356321.8679999961,
      "d": 193.54800000000978,
      "v": 127
    },
    {
      "midi": 71,
      "hit": false,
      "t": 356515.4159999957,
      "d": 387.09600000001956,
      "v": 127
    },
    {
      "midi": 55,
      "hit": false,
      "t": 356515.4159999961,
      "d": 193.54800000000978,
      "v": 127
    },
    {
      "midi": 55,
      "hit": false,
      "t": 356708.96399999614,
      "d": 193.54800000000978,
      "v": 127
    },
    {
      "midi": 74,
      "hit": false,
      "t": 356902.51199999574,
      "d": 387.09600000001956,
      "v": 127
    },
    {
      "midi": 43,
      "hit": false,
      "t": 356902.51199999615,
      "d": 193.54800000000978,
      "v": 127
    },
    {
      "midi": 43,
      "hit": false,
      "t": 357096.05999999616,
      "d": 193.54800000000978,
      "v": 127
    },
    {
      "midi": 79,
      "hit": false,
      "t": 357289.60799999576,
      "d": 387.09600000001956,
      "v": 127
    },
    {
      "midi": 55,
      "hit": false,
      "t": 357289.60799999617,
      "d": 193.54800000000978,
      "v": 127
    },
    {
      "midi": 55,
      "hit": false,
      "t": 357483.1559999962,
      "d": 193.54800000000978,
      "v": 127
    },
    {
      "midi": 81,
      "hit": false,
      "t": 357676.7039999958,
      "d": 774.1919999999809,
      "v": 127
    },
    {
      "midi": 43,
      "hit": false,
      "t": 357676.7039999962,
      "d": 193.54800000000978,
      "v": 127
    },
    {
      "midi": 43,
      "hit": false,
      "t": 357870.2519999962,
      "d": 193.54800000000978,
      "v": 127
    },
    {
      "midi": 55,
      "hit": false,
      "t": 358063.7999999962,
      "d": 193.54800000000978,
      "v": 127
    },
    {
      "midi": 55,
      "hit": false,
      "t": 358257.3479999962,
      "d": 193.54800000000978,
      "v": 127
    },
    {
      "midi": 84,
      "hit": false,
      "t": 358450.89599999576,
      "d": 774.1919999999809,
      "v": 127
    },
    {
      "midi": 43,
      "hit": false,
      "t": 358450.8959999962,
      "d": 193.54800000000978,
      "v": 127
    },
    {
      "midi": 43,
      "hit": false,
      "t": 358644.44399999623,
      "d": 193.54800000000978,
      "v": 127
    },
    {
      "midi": 55,
      "hit": false,
      "t": 358837.99199999624,
      "d": 193.54800000000978,
      "v": 127
    },
    {
      "midi": 55,
      "hit": false,
      "t": 359031.53999999625,
      "d": 193.54800000000978,
      "v": 127
    },
    {
      "midi": 80,
      "hit": false,
      "t": 359225.08799999574,
      "d": 1548.38400000002,
      "v": 127
    },
    {
      "midi": 40,
      "hit": false,
      "t": 359225.08799999626,
      "d": 193.54800000000978,
      "v": 127
    },
    {
      "midi": 40,
      "hit": false,
      "t": 359418.6359999963,
      "d": 193.54800000000978,
      "v": 127
    },
    {
      "midi": 44,
      "hit": false,
      "t": 359612.1839999963,
      "d": 193.54800000000978,
      "v": 127
    },
    {
      "midi": 47,
      "hit": false,
      "t": 359805.7319999963,
      "d": 193.54800000000978,
      "v": 127
    },
    {
      "midi": 40,
      "hit": false,
      "t": 359999.2799999963,
      "d": 193.54800000000978,
      "v": 127
    },
    {
      "midi": 40,
      "hit": false,
      "t": 360192.8279999963,
      "d": 193.54800000000978,
      "v": 127
    },
    {
      "midi": 44,
      "hit": false,
      "t": 360386.3759999963,
      "d": 193.54800000000978,
      "v": 127
    },
    {
      "midi": 47,
      "hit": false,
      "t": 360579.92399999633,
      "d": 193.54800000000978,
      "v": 127
    },
    {
      "midi": 78,
      "hit": false,
      "t": 360773.47199999576,
      "d": 1548.38400000002,
      "v": 127
    },
    {
      "midi": 47,
      "hit": false,
      "t": 360773.47199999634,
      "d": 193.54800000000978,
      "v": 127
    },
    {
      "midi": 47,
      "hit": false,
      "t": 360967.01999999635,
      "d": 193.54800000000978,
      "v": 127
    },
    {
      "midi": 51,
      "hit": false,
      "t": 361160.56799999636,
      "d": 193.54800000000978,
      "v": 127
    },
    {
      "midi": 54,
      "hit": false,
      "t": 361354.1159999964,
      "d": 193.54800000000978,
      "v": 127
    },
    {
      "midi": 47,
      "hit": false,
      "t": 361547.6639999964,
      "d": 193.54800000000978,
      "v": 127
    },
    {
      "midi": 47,
      "hit": false,
      "t": 361741.2119999964,
      "d": 193.54800000000978,
      "v": 127
    },
    {
      "midi": 51,
      "hit": false,
      "t": 361934.7599999964,
      "d": 193.54800000000978,
      "v": 127
    },
    {
      "midi": 54,
      "hit": false,
      "t": 362128.3079999964,
      "d": 193.54800000000978,
      "v": 127
    },
    {
      "midi": 80,
      "hit": false,
      "t": 362321.8559999958,
      "d": 580.6439999999711,
      "v": 127
    },
    {
      "midi": 52,
      "hit": false,
      "t": 362321.8559999964,
      "d": 387.09600000001956,
      "v": 127
    },
    {
      "midi": 56,
      "hit": false,
      "t": 362321.8559999964,
      "d": 387.09600000001956,
      "v": 127
    },
    {
      "midi": 52,
      "hit": false,
      "t": 362708.95199999644,
      "d": 387.09600000001956,
      "v": 127
    },
    {
      "midi": 56,
      "hit": false,
      "t": 362708.95199999644,
      "d": 387.09600000001956,
      "v": 127
    },
    {
      "midi": 76,
      "hit": false,
      "t": 362902.49999999575,
      "d": 580.6439999999711,
      "v": 127
    },
    {
      "midi": 52,
      "hit": false,
      "t": 363096.04799999646,
      "d": 387.09600000001956,
      "v": 127
    },
    {
      "midi": 56,
      "hit": false,
      "t": 363096.04799999646,
      "d": 387.09600000001956,
      "v": 127
    },
    {
      "midi": 71,
      "hit": false,
      "t": 363483.1439999957,
      "d": 580.6439999999711,
      "v": 127
    },
    {
      "midi": 52,
      "hit": false,
      "t": 363483.1439999965,
      "d": 387.09600000001956,
      "v": 127
    },
    {
      "midi": 56,
      "hit": false,
      "t": 363483.1439999965,
      "d": 387.09600000001956,
      "v": 127
    },
    {
      "midi": 51,
      "hit": false,
      "t": 363870.2399999965,
      "d": 387.09600000001956,
      "v": 127
    },
    {
      "midi": 54,
      "hit": false,
      "t": 363870.2399999965,
      "d": 387.09600000001956,
      "v": 127
    },
    {
      "midi": 78,
      "hit": false,
      "t": 364063.7879999957,
      "d": 387.09600000001956,
      "v": 127
    },
    {
      "midi": 51,
      "hit": false,
      "t": 364257.3359999965,
      "d": 387.09600000001956,
      "v": 127
    },
    {
      "midi": 54,
      "hit": false,
      "t": 364257.3359999965,
      "d": 387.09600000001956,
      "v": 127
    },
    {
      "midi": 81,
      "hit": false,
      "t": 364450.8839999957,
      "d": 387.09600000001956,
      "v": 127
    },
    {
      "midi": 51,
      "hit": false,
      "t": 364644.43199999654,
      "d": 387.09600000001956,
      "v": 127
    },
    {
      "midi": 54,
      "hit": false,
      "t": 364644.43199999654,
      "d": 387.09600000001956,
      "v": 127
    },
    {
      "midi": 80,
      "hit": false,
      "t": 364837.97999999573,
      "d": 193.54800000000978,
      "v": 127
    },
    {
      "midi": 78,
      "hit": false,
      "t": 365031.52799999574,
      "d": 193.54800000000978,
      "v": 127
    },
    {
      "midi": 51,
      "hit": false,
      "t": 365031.52799999656,
      "d": 387.09600000001956,
      "v": 127
    },
    {
      "midi": 54,
      "hit": false,
      "t": 365031.52799999656,
      "d": 387.09600000001956,
      "v": 127
    },
    {
      "midi": 76,
      "hit": false,
      "t": 365225.07599999575,
      "d": 1548.38400000002,
      "v": 127
    },
    {
      "midi": 50,
      "hit": false,
      "t": 365418.6239999966,
      "d": 387.09600000001956,
      "v": 127
    },
    {
      "midi": 52,
      "hit": false,
      "t": 365418.6239999966,
      "d": 387.09600000001956,
      "v": 127
    },
    {
      "midi": 50,
      "hit": false,
      "t": 365805.7199999966,
      "d": 387.09600000001956,
      "v": 127
    },
    {
      "midi": 52,
      "hit": false,
      "t": 365805.7199999966,
      "d": 387.09600000001956,
      "v": 127
    },
    {
      "midi": 50,
      "hit": false,
      "t": 366192.8159999966,
      "d": 387.09600000001956,
      "v": 127
    },
    {
      "midi": 52,
      "hit": false,
      "t": 366192.8159999966,
      "d": 387.09600000001956,
      "v": 127
    },
    {
      "midi": 50,
      "hit": false,
      "t": 366579.91199999664,
      "d": 387.09600000001956,
      "v": 127
    },
    {
      "midi": 52,
      "hit": false,
      "t": 366579.91199999664,
      "d": 387.09600000001956,
      "v": 127
    },
    {
      "midi": 49,
      "hit": false,
      "t": 366967.00799999665,
      "d": 387.09600000001956,
      "v": 127
    },
    {
      "midi": 52,
      "hit": false,
      "t": 366967.00799999665,
      "d": 387.09600000001956,
      "v": 127
    },
    {
      "midi": 49,
      "hit": false,
      "t": 367354.1039999967,
      "d": 387.09600000001956,
      "v": 127
    },
    {
      "midi": 52,
      "hit": false,
      "t": 367354.1039999967,
      "d": 387.09600000001956,
      "v": 127
    },
    {
      "midi": 49,
      "hit": false,
      "t": 367741.1999999967,
      "d": 387.09600000001956,
      "v": 127
    },
    {
      "midi": 52,
      "hit": false,
      "t": 367741.1999999967,
      "d": 387.09600000001956,
      "v": 127
    },
    {
      "midi": 49,
      "hit": false,
      "t": 368128.2959999967,
      "d": 387.09600000001956,
      "v": 127
    },
    {
      "midi": 52,
      "hit": false,
      "t": 368128.2959999967,
      "d": 387.09600000001956,
      "v": 127
    },
    {
      "midi": 80,
      "hit": false,
      "t": 368515.39199999574,
      "d": 580.6439999999711,
      "v": 127
    },
    {
      "midi": 45,
      "hit": false,
      "t": 368515.39199999673,
      "d": 387.09600000001956,
      "v": 127
    },
    {
      "midi": 52,
      "hit": false,
      "t": 368515.39199999673,
      "d": 387.09600000001956,
      "v": 127
    },
    {
      "midi": 45,
      "hit": false,
      "t": 368902.48799999675,
      "d": 387.09600000001956,
      "v": 127
    },
    {
      "midi": 52,
      "hit": false,
      "t": 368902.48799999675,
      "d": 387.09600000001956,
      "v": 127
    },
    {
      "midi": 76,
      "hit": false,
      "t": 369096.0359999957,
      "d": 580.6439999999711,
      "v": 127
    },
    {
      "midi": 45,
      "hit": false,
      "t": 369289.5839999968,
      "d": 387.09600000001956,
      "v": 127
    },
    {
      "midi": 52,
      "hit": false,
      "t": 369289.5839999968,
      "d": 387.09600000001956,
      "v": 127
    },
    {
      "midi": 71,
      "hit": false,
      "t": 369676.6799999957,
      "d": 387.09600000001956,
      "v": 127
    },
    {
      "midi": 45,
      "hit": false,
      "t": 369676.6799999968,
      "d": 387.09600000001956,
      "v": 127
    },
    {
      "midi": 52,
      "hit": false,
      "t": 369676.6799999968,
      "d": 387.09600000001956,
      "v": 127
    },
    {
      "midi": 76,
      "hit": false,
      "t": 370063.7759999957,
      "d": 774.1919999999809,
      "v": 127
    },
    {
      "midi": 44,
      "hit": false,
      "t": 370063.7759999968,
      "d": 387.09600000001956,
      "v": 127
    },
    {
      "midi": 52,
      "hit": false,
      "t": 370063.7759999968,
      "d": 387.09600000001956,
      "v": 127
    },
    {
      "midi": 44,
      "hit": false,
      "t": 370450.87199999683,
      "d": 387.09600000001956,
      "v": 127
    },
    {
      "midi": 52,
      "hit": false,
      "t": 370450.87199999683,
      "d": 387.09600000001956,
      "v": 127
    },
    {
      "midi": 44,
      "hit": false,
      "t": 370837.96799999685,
      "d": 387.09600000001956,
      "v": 127
    },
    {
      "midi": 52,
      "hit": false,
      "t": 370837.96799999685,
      "d": 387.09600000001956,
      "v": 127
    },
    {
      "midi": 75,
      "hit": false,
      "t": 371031.5159999957,
      "d": 193.54800000000978,
      "v": 127
    },
    {
      "midi": 76,
      "hit": false,
      "t": 371225.0639999957,
      "d": 193.54800000000978,
      "v": 127
    },
    {
      "midi": 44,
      "hit": false,
      "t": 371225.06399999687,
      "d": 387.09600000001956,
      "v": 127
    },
    {
      "midi": 52,
      "hit": false,
      "t": 371225.06399999687,
      "d": 387.09600000001956,
      "v": 127
    },
    {
      "midi": 78,
      "hit": false,
      "t": 371418.6119999957,
      "d": 774.1919999999809,
      "v": 127
    },
    {
      "midi": 42,
      "hit": false,
      "t": 371612.1599999969,
      "d": 387.09600000001956,
      "v": 127
    },
    {
      "midi": 49,
      "hit": false,
      "t": 371612.1599999969,
      "d": 387.09600000001956,
      "v": 127
    },
    {
      "midi": 42,
      "hit": false,
      "t": 371999.2559999969,
      "d": 387.09600000001956,
      "v": 127
    },
    {
      "midi": 49,
      "hit": false,
      "t": 371999.2559999969,
      "d": 387.09600000001956,
      "v": 127
    },
    {
      "midi": 73,
      "hit": false,
      "t": 372386.3519999957,
      "d": 774.1919999999809,
      "v": 127
    },
    {
      "midi": 42,
      "hit": false,
      "t": 372386.3519999969,
      "d": 387.09600000001956,
      "v": 127
    },
    {
      "midi": 49,
      "hit": false,
      "t": 372386.3519999969,
      "d": 387.09600000001956,
      "v": 127
    },
    {
      "midi": 42,
      "hit": false,
      "t": 372773.44799999695,
      "d": 387.09600000001956,
      "v": 127
    },
    {
      "midi": 49,
      "hit": false,
      "t": 372773.44799999695,
      "d": 387.09600000001956,
      "v": 127
    },
    {
      "midi": 75,
      "hit": false,
      "t": 373160.5439999957,
      "d": 1548.38400000002,
      "v": 127
    },
    {
      "midi": 47,
      "hit": false,
      "t": 373160.54399999697,
      "d": 387.09600000001956,
      "v": 127
    },
    {
      "midi": 51,
      "hit": false,
      "t": 373160.54399999697,
      "d": 387.09600000001956,
      "v": 127
    },
    {
      "midi": 47,
      "hit": false,
      "t": 373547.639999997,
      "d": 387.09600000001956,
      "v": 127
    },
    {
      "midi": 51,
      "hit": false,
      "t": 373547.639999997,
      "d": 387.09600000001956,
      "v": 127
    },
    {
      "midi": 47,
      "hit": false,
      "t": 373934.735999997,
      "d": 387.09600000001956,
      "v": 127
    },
    {
      "midi": 51,
      "hit": false,
      "t": 373934.735999997,
      "d": 387.09600000001956,
      "v": 127
    },
    {
      "midi": 47,
      "hit": false,
      "t": 374321.831999997,
      "d": 387.09600000001956,
      "v": 127
    },
    {
      "midi": 51,
      "hit": false,
      "t": 374321.831999997,
      "d": 387.09600000001956,
      "v": 127
    },
    {
      "midi": 80,
      "hit": false,
      "t": 374708.9279999957,
      "d": 580.6439999999711,
      "v": 127
    },
    {
      "midi": 52,
      "hit": false,
      "t": 374708.92799999705,
      "d": 387.09600000001956,
      "v": 127
    },
    {
      "midi": 56,
      "hit": false,
      "t": 374708.92799999705,
      "d": 387.09600000001956,
      "v": 127
    },
    {
      "midi": 52,
      "hit": false,
      "t": 375096.02399999707,
      "d": 387.09600000001956,
      "v": 127
    },
    {
      "midi": 56,
      "hit": false,
      "t": 375096.02399999707,
      "d": 387.09600000001956,
      "v": 127
    },
    {
      "midi": 76,
      "hit": false,
      "t": 375289.5719999957,
      "d": 580.6439999999711,
      "v": 127
    },
    {
      "midi": 52,
      "hit": false,
      "t": 375483.1199999971,
      "d": 387.09600000001956,
      "v": 127
    },
    {
      "midi": 56,
      "hit": false,
      "t": 375483.1199999971,
      "d": 387.09600000001956,
      "v": 127
    },
    {
      "midi": 71,
      "hit": false,
      "t": 375870.21599999565,
      "d": 580.6439999999711,
      "v": 127
    },
    {
      "midi": 52,
      "hit": false,
      "t": 375870.2159999971,
      "d": 387.09600000001956,
      "v": 127
    },
    {
      "midi": 56,
      "hit": false,
      "t": 375870.2159999971,
      "d": 387.09600000001956,
      "v": 127
    },
    {
      "midi": 51,
      "hit": false,
      "t": 376257.3119999971,
      "d": 387.09600000001956,
      "v": 127
    },
    {
      "midi": 54,
      "hit": false,
      "t": 376257.3119999971,
      "d": 387.09600000001956,
      "v": 127
    },
    {
      "midi": 78,
      "hit": false,
      "t": 376450.8599999956,
      "d": 387.09600000001956,
      "v": 127
    },
    {
      "midi": 51,
      "hit": false,
      "t": 376644.40799999714,
      "d": 387.09600000001956,
      "v": 127
    },
    {
      "midi": 54,
      "hit": false,
      "t": 376644.40799999714,
      "d": 387.09600000001956,
      "v": 127
    },
    {
      "midi": 81,
      "hit": false,
      "t": 376837.95599999564,
      "d": 387.09600000001956,
      "v": 127
    },
    {
      "midi": 51,
      "hit": false,
      "t": 377031.50399999716,
      "d": 387.09600000001956,
      "v": 127
    },
    {
      "midi": 54,
      "hit": false,
      "t": 377031.50399999716,
      "d": 387.09600000001956,
      "v": 127
    },
    {
      "midi": 80,
      "hit": false,
      "t": 377225.05199999566,
      "d": 193.54800000000978,
      "v": 127
    },
    {
      "midi": 78,
      "hit": false,
      "t": 377418.59999999567,
      "d": 193.54800000000978,
      "v": 127
    },
    {
      "midi": 51,
      "hit": false,
      "t": 377418.5999999972,
      "d": 387.09600000001956,
      "v": 127
    },
    {
      "midi": 54,
      "hit": false,
      "t": 377418.5999999972,
      "d": 387.09600000001956,
      "v": 127
    },
    {
      "midi": 76,
      "hit": false,
      "t": 377612.1479999957,
      "d": 1548.38400000002,
      "v": 127
    },
    {
      "midi": 50,
      "hit": false,
      "t": 377805.6959999972,
      "d": 387.09600000001956,
      "v": 127
    },
    {
      "midi": 52,
      "hit": false,
      "t": 377805.6959999972,
      "d": 387.09600000001956,
      "v": 127
    },
    {
      "midi": 50,
      "hit": false,
      "t": 378192.7919999972,
      "d": 387.09600000001956,
      "v": 127
    },
    {
      "midi": 52,
      "hit": false,
      "t": 378192.7919999972,
      "d": 387.09600000001956,
      "v": 127
    },
    {
      "midi": 50,
      "hit": false,
      "t": 378579.88799999724,
      "d": 387.09600000001956,
      "v": 127
    },
    {
      "midi": 52,
      "hit": false,
      "t": 378579.88799999724,
      "d": 387.09600000001956,
      "v": 127
    },
    {
      "midi": 50,
      "hit": false,
      "t": 378966.98399999726,
      "d": 387.09600000001956,
      "v": 127
    },
    {
      "midi": 52,
      "hit": false,
      "t": 378966.98399999726,
      "d": 387.09600000001956,
      "v": 127
    },
    {
      "midi": 49,
      "hit": false,
      "t": 379354.0799999973,
      "d": 387.09600000001956,
      "v": 127
    },
    {
      "midi": 52,
      "hit": false,
      "t": 379354.0799999973,
      "d": 387.09600000001956,
      "v": 127
    },
    {
      "midi": 49,
      "hit": false,
      "t": 379741.1759999973,
      "d": 387.09600000001956,
      "v": 127
    },
    {
      "midi": 52,
      "hit": false,
      "t": 379741.1759999973,
      "d": 387.09600000001956,
      "v": 127
    },
    {
      "midi": 49,
      "hit": false,
      "t": 380128.2719999973,
      "d": 387.09600000001956,
      "v": 127
    },
    {
      "midi": 52,
      "hit": false,
      "t": 380128.2719999973,
      "d": 387.09600000001956,
      "v": 127
    },
    {
      "midi": 49,
      "hit": false,
      "t": 380515.36799999734,
      "d": 387.09600000001956,
      "v": 127
    },
    {
      "midi": 52,
      "hit": false,
      "t": 380515.36799999734,
      "d": 387.09600000001956,
      "v": 127
    },
    {
      "midi": 80,
      "hit": false,
      "t": 380902.46399999567,
      "d": 580.6439999999711,
      "v": 127
    },
    {
      "midi": 45,
      "hit": false,
      "t": 380902.46399999736,
      "d": 387.09600000001956,
      "v": 127
    },
    {
      "midi": 52,
      "hit": false,
      "t": 380902.46399999736,
      "d": 387.09600000001956,
      "v": 127
    },
    {
      "midi": 45,
      "hit": false,
      "t": 381289.5599999974,
      "d": 387.09600000001956,
      "v": 127
    },
    {
      "midi": 52,
      "hit": false,
      "t": 381289.5599999974,
      "d": 387.09600000001956,
      "v": 127
    },
    {
      "midi": 76,
      "hit": false,
      "t": 381483.10799999564,
      "d": 580.6439999999711,
      "v": 127
    },
    {
      "midi": 45,
      "hit": false,
      "t": 381676.6559999974,
      "d": 387.09600000001956,
      "v": 127
    },
    {
      "midi": 52,
      "hit": false,
      "t": 381676.6559999974,
      "d": 387.09600000001956,
      "v": 127
    },
    {
      "midi": 71,
      "hit": false,
      "t": 382063.7519999956,
      "d": 387.09600000001956,
      "v": 127
    },
    {
      "midi": 45,
      "hit": false,
      "t": 382063.7519999974,
      "d": 387.09600000001956,
      "v": 127
    },
    {
      "midi": 52,
      "hit": false,
      "t": 382063.7519999974,
      "d": 387.09600000001956,
      "v": 127
    },
    {
      "midi": 76,
      "hit": false,
      "t": 382450.84799999563,
      "d": 774.1919999999809,
      "v": 127
    },
    {
      "midi": 44,
      "hit": false,
      "t": 382450.84799999744,
      "d": 387.09600000001956,
      "v": 127
    },
    {
      "midi": 52,
      "hit": false,
      "t": 382450.84799999744,
      "d": 387.09600000001956,
      "v": 127
    },
    {
      "midi": 44,
      "hit": false,
      "t": 382837.94399999746,
      "d": 387.09600000001956,
      "v": 127
    },
    {
      "midi": 52,
      "hit": false,
      "t": 382837.94399999746,
      "d": 387.09600000001956,
      "v": 127
    },
    {
      "midi": 44,
      "hit": false,
      "t": 383225.0399999975,
      "d": 387.09600000001956,
      "v": 127
    },
    {
      "midi": 52,
      "hit": false,
      "t": 383225.0399999975,
      "d": 387.09600000001956,
      "v": 127
    },
    {
      "midi": 75,
      "hit": false,
      "t": 383418.5879999956,
      "d": 193.54800000000978,
      "v": 127
    },
    {
      "midi": 76,
      "hit": false,
      "t": 383612.13599999563,
      "d": 193.54800000000978,
      "v": 127
    },
    {
      "midi": 44,
      "hit": false,
      "t": 383612.1359999975,
      "d": 387.09600000001956,
      "v": 127
    },
    {
      "midi": 52,
      "hit": false,
      "t": 383612.1359999975,
      "d": 387.09600000001956,
      "v": 127
    },
    {
      "midi": 78,
      "hit": false,
      "t": 383805.68399999564,
      "d": 774.1919999999809,
      "v": 127
    },
    {
      "midi": 42,
      "hit": false,
      "t": 383999.2319999975,
      "d": 387.09600000001956,
      "v": 127
    },
    {
      "midi": 49,
      "hit": false,
      "t": 383999.2319999975,
      "d": 387.09600000001956,
      "v": 127
    },
    {
      "midi": 42,
      "hit": false,
      "t": 384386.32799999753,
      "d": 387.09600000001956,
      "v": 127
    },
    {
      "midi": 49,
      "hit": false,
      "t": 384386.32799999753,
      "d": 387.09600000001956,
      "v": 127
    },
    {
      "midi": 73,
      "hit": false,
      "t": 384773.42399999563,
      "d": 774.1919999999809,
      "v": 127
    },
    {
      "midi": 42,
      "hit": false,
      "t": 384773.42399999755,
      "d": 387.09600000001956,
      "v": 127
    },
    {
      "midi": 49,
      "hit": false,
      "t": 384773.42399999755,
      "d": 387.09600000001956,
      "v": 127
    },
    {
      "midi": 42,
      "hit": false,
      "t": 385160.5199999976,
      "d": 387.09600000001956,
      "v": 127
    },
    {
      "midi": 49,
      "hit": false,
      "t": 385160.5199999976,
      "d": 387.09600000001956,
      "v": 127
    },
    {
      "midi": 75,
      "hit": false,
      "t": 385547.6159999956,
      "d": 1548.38400000002,
      "v": 127
    },
    {
      "midi": 47,
      "hit": false,
      "t": 385547.6159999976,
      "d": 387.09600000001956,
      "v": 127
    },
    {
      "midi": 51,
      "hit": false,
      "t": 385547.6159999976,
      "d": 387.09600000001956,
      "v": 127
    },
    {
      "midi": 47,
      "hit": false,
      "t": 385934.7119999976,
      "d": 387.09600000001956,
      "v": 127
    },
    {
      "midi": 51,
      "hit": false,
      "t": 385934.7119999976,
      "d": 387.09600000001956,
      "v": 127
    },
    {
      "midi": 47,
      "hit": false,
      "t": 386321.80799999763,
      "d": 387.09600000001956,
      "v": 127
    },
    {
      "midi": 51,
      "hit": false,
      "t": 386321.80799999763,
      "d": 387.09600000001956,
      "v": 127
    },
    {
      "midi": 47,
      "hit": false,
      "t": 386708.90399999765,
      "d": 387.09600000001956,
      "v": 127
    },
    {
      "midi": 51,
      "hit": false,
      "t": 386708.90399999765,
      "d": 387.09600000001956,
      "v": 127
    },
    {
      "midi": 76,
      "hit": false,
      "t": 387095.99999999563,
      "d": 1161.2880000000005,
      "v": 127
    },
    {
      "midi": 45,
      "hit": false,
      "t": 387095.9999999977,
      "d": 193.54800000000978,
      "v": 127
    },
    {
      "midi": 45,
      "hit": false,
      "t": 387289.5479999977,
      "d": 193.54800000000978,
      "v": 127
    },
    {
      "midi": 57,
      "hit": false,
      "t": 387483.0959999977,
      "d": 193.54800000000978,
      "v": 127
    },
    {
      "midi": 57,
      "hit": false,
      "t": 387676.6439999977,
      "d": 193.54800000000978,
      "v": 127
    },
    {
      "midi": 45,
      "hit": false,
      "t": 387870.1919999977,
      "d": 193.54800000000978,
      "v": 127
    },
    {
      "midi": 45,
      "hit": false,
      "t": 388063.7399999977,
      "d": 193.54800000000978,
      "v": 127
    },
    {
      "midi": 75,
      "hit": false,
      "t": 388257.28799999563,
      "d": 193.54800000000978,
      "v": 127
    },
    {
      "midi": 57,
      "hit": false,
      "t": 388257.28799999773,
      "d": 193.54800000000978,
      "v": 127
    },
    {
      "midi": 76,
      "hit": false,
      "t": 388450.83599999564,
      "d": 193.54800000000978,
      "v": 127
    },
    {
      "midi": 57,
      "hit": false,
      "t": 388450.83599999774,
      "d": 193.54800000000978,
      "v": 127
    },
    {
      "midi": 78,
      "hit": false,
      "t": 388644.38399999565,
      "d": 774.1919999999809,
      "v": 127
    },
    {
      "midi": 45,
      "hit": false,
      "t": 388644.38399999775,
      "d": 193.54800000000978,
      "v": 127
    },
    {
      "midi": 45,
      "hit": false,
      "t": 388837.93199999776,
      "d": 193.54800000000978,
      "v": 127
    },
    {
      "midi": 57,
      "hit": false,
      "t": 389031.47999999777,
      "d": 193.54800000000978,
      "v": 127
    },
    {
      "midi": 57,
      "hit": false,
      "t": 389225.0279999978,
      "d": 193.54800000000978,
      "v": 127
    },
    {
      "midi": 71,
      "hit": false,
      "t": 389418.57599999564,
      "d": 774.1919999999809,
      "v": 127
    },
    {
      "midi": 45,
      "hit": false,
      "t": 389418.5759999978,
      "d": 193.54800000000978,
      "v": 127
    },
    {
      "midi": 45,
      "hit": false,
      "t": 389612.1239999978,
      "d": 193.54800000000978,
      "v": 127
    },
    {
      "midi": 57,
      "hit": false,
      "t": 389805.6719999978,
      "d": 193.54800000000978,
      "v": 127
    },
    {
      "midi": 57,
      "hit": false,
      "t": 389999.2199999978,
      "d": 193.54800000000978,
      "v": 127
    },
    {
      "midi": 80,
      "hit": false,
      "t": 390192.7679999956,
      "d": 1161.2880000000005,
      "v": 127
    },
    {
      "midi": 44,
      "hit": false,
      "t": 390192.7679999978,
      "d": 193.54800000000978,
      "v": 127
    },
    {
      "midi": 44,
      "hit": false,
      "t": 390386.31599999784,
      "d": 193.54800000000978,
      "v": 127
    },
    {
      "midi": 56,
      "hit": false,
      "t": 390579.86399999785,
      "d": 193.54800000000978,
      "v": 127
    },
    {
      "midi": 56,
      "hit": false,
      "t": 390773.41199999786,
      "d": 193.54800000000978,
      "v": 127
    },
    {
      "midi": 44,
      "hit": false,
      "t": 390966.95999999787,
      "d": 193.54800000000978,
      "v": 127
    },
    {
      "midi": 44,
      "hit": false,
      "t": 391160.5079999979,
      "d": 193.54800000000978,
      "v": 127
    },
    {
      "midi": 78,
      "hit": false,
      "t": 391354.0559999956,
      "d": 193.54800000000978,
      "v": 127
    },
    {
      "midi": 56,
      "hit": false,
      "t": 391354.0559999979,
      "d": 193.54800000000978,
      "v": 127
    },
    {
      "midi": 80,
      "hit": false,
      "t": 391547.6039999956,
      "d": 193.54800000000978,
      "v": 127
    },
    {
      "midi": 56,
      "hit": false,
      "t": 391547.6039999979,
      "d": 193.54800000000978,
      "v": 127
    },
    {
      "midi": 81,
      "hit": false,
      "t": 391741.15199999564,
      "d": 387.09600000001956,
      "v": 127
    },
    {
      "midi": 44,
      "hit": false,
      "t": 391741.1519999979,
      "d": 193.54800000000978,
      "v": 127
    },
    {
      "midi": 44,
      "hit": false,
      "t": 391934.6999999979,
      "d": 193.54800000000978,
      "v": 127
    },
    {
      "midi": 73,
      "hit": false,
      "t": 392128.24799999566,
      "d": 387.09600000001956,
      "v": 127
    },
    {
      "midi": 56,
      "hit": false,
      "t": 392128.2479999979,
      "d": 193.54800000000978,
      "v": 127
    },
    {
      "midi": 56,
      "hit": false,
      "t": 392321.79599999794,
      "d": 193.54800000000978,
      "v": 127
    },
    {
      "midi": 76,
      "hit": false,
      "t": 392515.3439999957,
      "d": 387.09600000001956,
      "v": 127
    },
    {
      "midi": 47,
      "hit": false,
      "t": 392515.34399999795,
      "d": 193.54800000000978,
      "v": 127
    },
    {
      "midi": 47,
      "hit": false,
      "t": 392708.89199999796,
      "d": 193.54800000000978,
      "v": 127
    },
    {
      "midi": 75,
      "hit": false,
      "t": 392902.4399999957,
      "d": 387.09600000001956,
      "v": 127
    },
    {
      "midi": 59,
      "hit": false,
      "t": 392902.43999999797,
      "d": 193.54800000000978,
      "v": 127
    },
    {
      "midi": 59,
      "hit": false,
      "t": 393095.987999998,
      "d": 193.54800000000978,
      "v": 127
    },
    {
      "midi": 76,
      "hit": false,
      "t": 393289.5359999957,
      "d": 1161.2880000000005,
      "v": 127
    },
    {
      "midi": 45,
      "hit": false,
      "t": 393289.535999998,
      "d": 193.54800000000978,
      "v": 127
    },
    {
      "midi": 45,
      "hit": false,
      "t": 393483.083999998,
      "d": 193.54800000000978,
      "v": 127
    },
    {
      "midi": 57,
      "hit": false,
      "t": 393676.631999998,
      "d": 193.54800000000978,
      "v": 127
    },
    {
      "midi": 57,
      "hit": false,
      "t": 393870.179999998,
      "d": 193.54800000000978,
      "v": 127
    },
    {
      "midi": 45,
      "hit": false,
      "t": 394063.727999998,
      "d": 193.54800000000978,
      "v": 127
    },
    {
      "midi": 45,
      "hit": false,
      "t": 394257.27599999803,
      "d": 193.54800000000978,
      "v": 127
    },
    {
      "midi": 75,
      "hit": false,
      "t": 394450.8239999957,
      "d": 193.54800000000978,
      "v": 127
    },
    {
      "midi": 57,
      "hit": false,
      "t": 394450.82399999804,
      "d": 193.54800000000978,
      "v": 127
    },
    {
      "midi": 76,
      "hit": false,
      "t": 394644.3719999957,
      "d": 193.54800000000978,
      "v": 127
    },
    {
      "midi": 57,
      "hit": false,
      "t": 394644.37199999805,
      "d": 193.54800000000978,
      "v": 127
    },
    {
      "midi": 78,
      "hit": false,
      "t": 394837.91999999573,
      "d": 774.1919999999809,
      "v": 127
    },
    {
      "midi": 45,
      "hit": false,
      "t": 394837.91999999806,
      "d": 193.54800000000978,
      "v": 127
    },
    {
      "midi": 45,
      "hit": false,
      "t": 395031.4679999981,
      "d": 193.54800000000978,
      "v": 127
    },
    {
      "midi": 57,
      "hit": false,
      "t": 395225.0159999981,
      "d": 193.54800000000978,
      "v": 127
    },
    {
      "midi": 57,
      "hit": false,
      "t": 395418.5639999981,
      "d": 193.54800000000978,
      "v": 127
    },
    {
      "midi": 71,
      "hit": false,
      "t": 395612.1119999957,
      "d": 774.1919999999809,
      "v": 127
    },
    {
      "midi": 45,
      "hit": false,
      "t": 395612.1119999981,
      "d": 193.54800000000978,
      "v": 127
    },
    {
      "midi": 45,
      "hit": false,
      "t": 395805.6599999981,
      "d": 193.54800000000978,
      "v": 127
    },
    {
      "midi": 57,
      "hit": false,
      "t": 395999.2079999981,
      "d": 193.54800000000978,
      "v": 127
    },
    {
      "midi": 57,
      "hit": false,
      "t": 396192.75599999813,
      "d": 193.54800000000978,
      "v": 127
    },
    {
      "midi": 80,
      "hit": false,
      "t": 396386.3039999957,
      "d": 1161.2880000000005,
      "v": 127
    },
    {
      "midi": 44,
      "hit": false,
      "t": 396386.30399999814,
      "d": 193.54800000000978,
      "v": 127
    },
    {
      "midi": 44,
      "hit": false,
      "t": 396579.85199999815,
      "d": 193.54800000000978,
      "v": 127
    },
    {
      "midi": 56,
      "hit": false,
      "t": 396773.39999999816,
      "d": 193.54800000000978,
      "v": 127
    },
    {
      "midi": 56,
      "hit": false,
      "t": 396966.94799999817,
      "d": 193.54800000000978,
      "v": 127
    },
    {
      "midi": 44,
      "hit": false,
      "t": 397160.4959999982,
      "d": 193.54800000000978,
      "v": 127
    },
    {
      "midi": 44,
      "hit": false,
      "t": 397354.0439999982,
      "d": 193.54800000000978,
      "v": 127
    },
    {
      "midi": 78,
      "hit": false,
      "t": 397547.5919999957,
      "d": 193.54800000000978,
      "v": 127
    },
    {
      "midi": 56,
      "hit": false,
      "t": 397547.5919999982,
      "d": 193.54800000000978,
      "v": 127
    },
    {
      "midi": 80,
      "hit": false,
      "t": 397741.1399999957,
      "d": 193.54800000000978,
      "v": 127
    },
    {
      "midi": 56,
      "hit": false,
      "t": 397741.1399999982,
      "d": 193.54800000000978,
      "v": 127
    },
    {
      "midi": 83,
      "hit": false,
      "t": 397934.6879999957,
      "d": 193.54800000000978,
      "v": 127
    },
    {
      "midi": 43,
      "hit": false,
      "t": 397934.6879999982,
      "d": 193.54800000000978,
      "v": 127
    },
    {
      "midi": 43,
      "hit": false,
      "t": 398128.2359999982,
      "d": 193.54800000000978,
      "v": 127
    },
    {
      "midi": 71,
      "hit": false,
      "t": 398321.78399999574,
      "d": 387.09600000001956,
      "v": 127
    },
    {
      "midi": 55,
      "hit": false,
      "t": 398321.78399999824,
      "d": 193.54800000000978,
      "v": 127
    },
    {
      "midi": 55,
      "hit": false,
      "t": 398515.33199999825,
      "d": 193.54800000000978,
      "v": 127
    },
    {
      "midi": 74,
      "hit": false,
      "t": 398708.87999999576,
      "d": 387.09600000001956,
      "v": 127
    },
    {
      "midi": 43,
      "hit": false,
      "t": 398708.87999999826,
      "d": 193.54800000000978,
      "v": 127
    },
    {
      "midi": 43,
      "hit": false,
      "t": 398902.42799999827,
      "d": 193.54800000000978,
      "v": 127
    },
    {
      "midi": 79,
      "hit": false,
      "t": 399095.9759999958,
      "d": 387.09600000001956,
      "v": 127
    },
    {
      "midi": 55,
      "hit": false,
      "t": 399095.9759999983,
      "d": 193.54800000000978,
      "v": 127
    },
    {
      "midi": 55,
      "hit": false,
      "t": 399289.5239999983,
      "d": 193.54800000000978,
      "v": 127
    },
    {
      "midi": 81,
      "hit": false,
      "t": 399483.0719999958,
      "d": 774.1919999999809,
      "v": 127
    },
    {
      "midi": 43,
      "hit": false,
      "t": 399483.0719999983,
      "d": 193.54800000000978,
      "v": 127
    },
    {
      "midi": 43,
      "hit": false,
      "t": 399676.6199999983,
      "d": 193.54800000000978,
      "v": 127
    },
    {
      "midi": 55,
      "hit": false,
      "t": 399870.1679999983,
      "d": 193.54800000000978,
      "v": 127
    },
    {
      "midi": 55,
      "hit": false,
      "t": 400063.7159999983,
      "d": 193.54800000000978,
      "v": 127
    },
    {
      "midi": 84,
      "hit": false,
      "t": 400257.2639999958,
      "d": 774.1919999999809,
      "v": 127
    },
    {
      "midi": 43,
      "hit": false,
      "t": 400257.26399999834,
      "d": 193.54800000000978,
      "v": 127
    },
    {
      "midi": 43,
      "hit": false,
      "t": 400450.81199999835,
      "d": 193.54800000000978,
      "v": 127
    },
    {
      "midi": 55,
      "hit": false,
      "t": 400644.35999999836,
      "d": 193.54800000000978,
      "v": 127
    },
    {
      "midi": 55,
      "hit": false,
      "t": 400837.90799999837,
      "d": 193.54800000000978,
      "v": 127
    },
    {
      "midi": 80,
      "hit": false,
      "t": 401031.45599999576,
      "d": 1548.38400000002,
      "v": 127
    },
    {
      "midi": 40,
      "hit": false,
      "t": 401031.4559999984,
      "d": 193.54800000000978,
      "v": 127
    },
    {
      "midi": 40,
      "hit": false,
      "t": 401225.0039999984,
      "d": 193.54800000000978,
      "v": 127
    },
    {
      "midi": 44,
      "hit": false,
      "t": 401418.5519999984,
      "d": 193.54800000000978,
      "v": 127
    },
    {
      "midi": 47,
      "hit": false,
      "t": 401612.0999999984,
      "d": 193.54800000000978,
      "v": 127
    },
    {
      "midi": 40,
      "hit": false,
      "t": 401805.6479999984,
      "d": 193.54800000000978,
      "v": 127
    },
    {
      "midi": 40,
      "hit": false,
      "t": 401999.1959999984,
      "d": 193.54800000000978,
      "v": 127
    },
    {
      "midi": 44,
      "hit": false,
      "t": 402192.74399999843,
      "d": 193.54800000000978,
      "v": 127
    },
    {
      "midi": 47,
      "hit": false,
      "t": 402386.29199999844,
      "d": 193.54800000000978,
      "v": 127
    },
    {
      "midi": 78,
      "hit": false,
      "t": 402579.8399999958,
      "d": 1548.38400000002,
      "v": 127
    },
    {
      "midi": 47,
      "hit": false,
      "t": 402579.83999999845,
      "d": 193.54800000000978,
      "v": 127
    },
    {
      "midi": 47,
      "hit": false,
      "t": 402773.38799999846,
      "d": 193.54800000000978,
      "v": 127
    },
    {
      "midi": 51,
      "hit": false,
      "t": 402966.9359999985,
      "d": 193.54800000000978,
      "v": 127
    },
    {
      "midi": 54,
      "hit": false,
      "t": 403160.4839999985,
      "d": 193.54800000000978,
      "v": 127
    },
    {
      "midi": 47,
      "hit": false,
      "t": 403354.0319999985,
      "d": 193.54800000000978,
      "v": 127
    },
    {
      "midi": 47,
      "hit": false,
      "t": 403547.5799999985,
      "d": 193.54800000000978,
      "v": 127
    },
    {
      "midi": 51,
      "hit": false,
      "t": 403741.1279999985,
      "d": 193.54800000000978,
      "v": 127
    },
    {
      "midi": 54,
      "hit": false,
      "t": 403934.6759999985,
      "d": 193.54800000000978,
      "v": 127
    },
    {
      "midi": 76,
      "hit": false,
      "t": 404128.2239999958,
      "d": 1548.38400000002,
      "v": 127
    },
    {
      "midi": 64,
      "hit": false,
      "t": 404128.22399999853,
      "d": 1548.38400000002,
      "v": 127
    },
    {
      "midi": 40,
      "hit": false,
      "t": 405676.60799999855,
      "d": 4645.152000000002,
      "v": 127
    },
    {
      "midi": 47,
      "hit": false,
      "t": 405676.60799999855,
      "d": 4645.152000000002,
      "v": 127
    },
    {
      "midi": 52,
      "hit": false,
      "t": 405676.60799999855,
      "d": 4645.152000000002,
      "v": 127
    }
  ]
}