{
  "jsonPath": "Jazz/Cool Jazz/Bill Evans/peace-piece.json",
  "path": "Jazz\\Cool Jazz\\Bill Evans\\Peace Piece.mid",
  "name": "Peace Piece",
  "difficulty": "Advanced",
  "bpm": 120,
  "notes": [
    {
      "midi": 43,
      "hit": false,
      "t": 3000,
      "d": 1291.666666666666,
      "v": 75
    },
    {
      "midi": 36,
      "hit": false,
      "t": 4229.166666666666,
      "d": 432.29166666666697,
      "v": 67
    },
    {
      "midi": 64,
      "hit": false,
      "t": 5255.208333333333,
      "d": 598.958333333333,
      "v": 60
    },
    {
      "midi": 60,
      "hit": false,
      "t": 5260.416666666666,
      "d": 536.458333333333,
      "v": 63
    },
    {
      "midi": 59,
      "hit": false,
      "t": 5265.624999999999,
      "d": 557.291666666667,
      "v": 63
    },
    {
      "midi": 65,
      "hit": false,
      "t": 6406.249999999999,
      "d": 406.2499999999982,
      "v": 49
    },
    {
      "midi": 55,
      "hit": false,
      "t": 6406.249999999999,
      "d": 531.2499999999982,
      "v": 54
    },
    {
      "midi": 60,
      "hit": false,
      "t": 6416.666666666665,
      "d": 380.2083333333321,
      "v": 54
    },
    {
      "midi": 57,
      "hit": false,
      "t": 6416.666666666665,
      "d": 499.9999999999991,
      "v": 49
    },
    {
      "midi": 43,
      "hit": false,
      "t": 7583.33333333333,
      "d": 1411.4583333333376,
      "v": 51
    },
    {
      "midi": 36,
      "hit": false,
      "t": 8880.208333333332,
      "d": 343.75000000000364,
      "v": 51
    },
    {
      "midi": 64,
      "hit": false,
      "t": 9942.708333333336,
      "d": 479.16666666666606,
      "v": 44
    },
    {
      "midi": 60,
      "hit": false,
      "t": 9953.125000000002,
      "d": 505.20833333333394,
      "v": 54
    },
    {
      "midi": 59,
      "hit": false,
      "t": 9963.541666666668,
      "d": 479.1666666666679,
      "v": 48
    },
    {
      "midi": 65,
      "hit": false,
      "t": 11010.416666666672,
      "d": 270.83333333333394,
      "v": 38
    },
    {
      "midi": 57,
      "hit": false,
      "t": 11015.625000000005,
      "d": 359.375,
      "v": 48
    },
    {
      "midi": 55,
      "hit": false,
      "t": 11015.625000000005,
      "d": 364.58333333333394,
      "v": 40
    },
    {
      "midi": 60,
      "hit": false,
      "t": 11026.041666666672,
      "d": 244.79166666666788,
      "v": 49
    },
    {
      "midi": 43,
      "hit": false,
      "t": 12203.125000000005,
      "d": 1296.8750000000018,
      "v": 60
    },
    {
      "midi": 79,
      "hit": false,
      "t": 12213.541666666672,
      "d": 1296.8750000000018,
      "v": 107
    },
    {
      "midi": 36,
      "hit": false,
      "t": 13447.916666666672,
      "d": 411.45833333333576,
      "v": 68
    },
    {
      "midi": 86,
      "hit": false,
      "t": 13468.750000000005,
      "d": 3239.5833333333376,
      "v": 81
    },
    {
      "midi": 64,
      "hit": false,
      "t": 14546.875000000007,
      "d": 494.7916666666679,
      "v": 53
    },
    {
      "midi": 60,
      "hit": false,
      "t": 14557.291666666673,
      "d": 442.70833333333394,
      "v": 56
    },
    {
      "midi": 59,
      "hit": false,
      "t": 14557.291666666673,
      "d": 463.5416666666679,
      "v": 57
    },
    {
      "midi": 55,
      "hit": false,
      "t": 15718.75000000001,
      "d": 411.45833333333394,
      "v": 44
    },
    {
      "midi": 65,
      "hit": false,
      "t": 15734.37500000001,
      "d": 317.70833333333394,
      "v": 43
    },
    {
      "midi": 57,
      "hit": false,
      "t": 15734.37500000001,
      "d": 406.25,
      "v": 45
    },
    {
      "midi": 60,
      "hit": false,
      "t": 15739.583333333343,
      "d": 302.08333333333394,
      "v": 49
    },
    {
      "midi": 43,
      "hit": false,
      "t": 16869.791666666675,
      "d": 1062.4999999999927,
      "v": 55
    },
    {
      "midi": 91,
      "hit": false,
      "t": 17427.083333333343,
      "d": 515.6249999999927,
      "v": 117
    },
    {
      "midi": 36,
      "hit": false,
      "t": 17895.833333333336,
      "d": 281.25000000000364,
      "v": 64
    },
    {
      "midi": 86,
      "hit": false,
      "t": 17901.041666666668,
      "d": 8286.458333333318,
      "v": 88
    },
    {
      "midi": 64,
      "hit": false,
      "t": 18791.66666666667,
      "d": 463.5416666666679,
      "v": 72
    },
    {
      "midi": 59,
      "hit": false,
      "t": 18802.08333333334,
      "d": 432.29166666666424,
      "v": 68
    },
    {
      "midi": 60,
      "hit": false,
      "t": 18807.29166666667,
      "d": 437.5,
      "v": 68
    },
    {
      "midi": 55,
      "hit": false,
      "t": 19729.16666666667,
      "d": 421.8749999999927,
      "v": 63
    },
    {
      "midi": 57,
      "hit": false,
      "t": 19734.375000000004,
      "d": 442.7083333333285,
      "v": 63
    },
    {
      "midi": 60,
      "hit": false,
      "t": 19739.583333333336,
      "d": 364.5833333333285,
      "v": 60
    },
    {
      "midi": 65,
      "hit": false,
      "t": 19744.791666666668,
      "d": 348.9583333333285,
      "v": 60
    },
    {
      "midi": 43,
      "hit": false,
      "t": 20880.208333333332,
      "d": 1083.3333333333285,
      "v": 58
    },
    {
      "midi": 36,
      "hit": false,
      "t": 21895.83333333333,
      "d": 369.79166666666424,
      "v": 68
    },
    {
      "midi": 64,
      "hit": false,
      "t": 22989.583333333325,
      "d": 401.0416666666679,
      "v": 44
    },
    {
      "midi": 60,
      "hit": false,
      "t": 22999.999999999993,
      "d": 364.5833333333321,
      "v": 52
    },
    {
      "midi": 59,
      "hit": false,
      "t": 23010.41666666666,
      "d": 348.9583333333321,
      "v": 49
    },
    {
      "midi": 55,
      "hit": false,
      "t": 24088.54166666666,
      "d": 458.33333333332484,
      "v": 42
    },
    {
      "midi": 57,
      "hit": false,
      "t": 24093.749999999993,
      "d": 453.1249999999927,
      "v": 41
    },
    {
      "midi": 65,
      "hit": false,
      "t": 24098.958333333325,
      "d": 380.2083333333285,
      "v": 43
    },
    {
      "midi": 60,
      "hit": false,
      "t": 24114.583333333325,
      "d": 354.1666666666606,
      "v": 41
    },
    {
      "midi": 43,
      "hit": false,
      "t": 25296.874999999985,
      "d": 1359.375,
      "v": 54
    },
    {
      "midi": 36,
      "hit": false,
      "t": 26536.458333333318,
      "d": 187.5,
      "v": 54
    },
    {
      "midi": 96,
      "hit": false,
      "t": 27515.624999999985,
      "d": 291.6666666666606,
      "v": 75
    },
    {
      "midi": 95,
      "hit": false,
      "t": 27703.124999999985,
      "d": 249.9999999999891,
      "v": 74
    },
    {
      "midi": 60,
      "hit": false,
      "t": 27770.833333333314,
      "d": 593.7499999999927,
      "v": 45
    },
    {
      "midi": 64,
      "hit": false,
      "t": 27786.458333333314,
      "d": 609.3749999999927,
      "v": 32
    },
    {
      "midi": 59,
      "hit": false,
      "t": 27791.666666666646,
      "d": 515.6249999999927,
      "v": 51
    },
    {
      "midi": 93,
      "hit": false,
      "t": 27890.624999999978,
      "d": 2291.6666666666606,
      "v": 85
    },
    {
      "midi": 65,
      "hit": false,
      "t": 28812.499999999975,
      "d": 302.0833333333321,
      "v": 55
    },
    {
      "midi": 55,
      "hit": false,
      "t": 28817.708333333307,
      "d": 390.625,
      "v": 49
    },
    {
      "midi": 57,
      "hit": false,
      "t": 28822.91666666664,
      "d": 380.20833333333576,
      "v": 54
    },
    {
      "midi": 60,
      "hit": false,
      "t": 28828.12499999997,
      "d": 276.0416666666679,
      "v": 48
    },
    {
      "midi": 43,
      "hit": false,
      "t": 29854.16666666664,
      "d": 1031.2499999999927,
      "v": 71
    },
    {
      "midi": 91,
      "hit": false,
      "t": 30828.12499999997,
      "d": 546.8749999999927,
      "v": 115
    },
    {
      "midi": 36,
      "hit": false,
      "t": 30843.749999999967,
      "d": 291.66666666666424,
      "v": 74
    },
    {
      "midi": 88,
      "hit": false,
      "t": 31385.41666666663,
      "d": 588.5416666666679,
      "v": 89
    },
    {
      "midi": 64,
      "hit": false,
      "t": 31916.66666666663,
      "d": 755.2083333333321,
      "v": 53
    },
    {
      "midi": 60,
      "hit": false,
      "t": 31927.0833333333,
      "d": 718.75,
      "v": 61
    },
    {
      "midi": 86,
      "hit": false,
      "t": 31927.0833333333,
      "d": 2546.875,
      "v": 78
    },
    {
      "midi": 59,
      "hit": false,
      "t": 31937.499999999967,
      "d": 713.5416666666642,
      "v": 57
    },
    {
      "midi": 65,
      "hit": false,
      "t": 33119.79166666663,
      "d": 270.83333333333576,
      "v": 38
    },
    {
      "midi": 60,
      "hit": false,
      "t": 33119.79166666663,
      "d": 286.45833333333576,
      "v": 43
    },
    {
      "midi": 55,
      "hit": false,
      "t": 33119.79166666663,
      "d": 359.375,
      "v": 38
    },
    {
      "midi": 57,
      "hit": false,
      "t": 33119.79166666663,
      "d": 380.20833333333576,
      "v": 41
    },
    {
      "midi": 43,
      "hit": false,
      "t": 34229.16666666663,
      "d": 1177.083333333343,
      "v": 49
    },
    {
      "midi": 81,
      "hit": false,
      "t": 34244.791666666635,
      "d": 1161.4583333333358,
      "v": 60
    },
    {
      "midi": 79,
      "hit": false,
      "t": 35406.24999999997,
      "d": 2317.7083333333576,
      "v": 56
    },
    {
      "midi": 36,
      "hit": false,
      "t": 35411.45833333331,
      "d": 354.1666666666715,
      "v": 49
    },
    {
      "midi": 64,
      "hit": false,
      "t": 36473.958333333314,
      "d": 468.75,
      "v": 57
    },
    {
      "midi": 60,
      "hit": false,
      "t": 36484.37499999998,
      "d": 411.45833333333576,
      "v": 59
    },
    {
      "midi": 59,
      "hit": false,
      "t": 36484.37499999998,
      "d": 427.08333333333576,
      "v": 59
    },
    {
      "midi": 57,
      "hit": false,
      "t": 37510.41666666665,
      "d": 380.20833333334303,
      "v": 58
    },
    {
      "midi": 60,
      "hit": false,
      "t": 37515.624999999985,
      "d": 286.45833333334303,
      "v": 56
    },
    {
      "midi": 65,
      "hit": false,
      "t": 37520.83333333332,
      "d": 281.2500000000073,
      "v": 60
    },
    {
      "midi": 55,
      "hit": false,
      "t": 37526.04166666666,
      "d": 390.625,
      "v": 57
    },
    {
      "midi": 43,
      "hit": false,
      "t": 38619.79166666666,
      "d": 583.3333333333358,
      "v": 63
    },
    {
      "midi": 76,
      "hit": false,
      "t": 39171.87499999999,
      "d": 546.875,
      "v": 115
    },
    {
      "midi": 36,
      "hit": false,
      "t": 39718.74999999999,
      "d": 369.79166666668607,
      "v": 71
    },
    {
      "midi": 74,
      "hit": false,
      "t": 39718.74999999999,
      "d": 3604.166666666686,
      "v": 96
    },
    {
      "midi": 64,
      "hit": false,
      "t": 40833.33333333334,
      "d": 489.58333333333576,
      "v": 54
    },
    {
      "midi": 60,
      "hit": false,
      "t": 40848.95833333334,
      "d": 385.41666666666424,
      "v": 58
    },
    {
      "midi": 59,
      "hit": false,
      "t": 40848.95833333334,
      "d": 390.625,
      "v": 57
    },
    {
      "midi": 55,
      "hit": false,
      "t": 41984.375000000015,
      "d": 447.91666666666424,
      "v": 45
    },
    {
      "midi": 65,
      "hit": false,
      "t": 41989.58333333335,
      "d": 343.7499999999927,
      "v": 46
    },
    {
      "midi": 57,
      "hit": false,
      "t": 41989.58333333335,
      "d": 442.7083333333285,
      "v": 47
    },
    {
      "midi": 60,
      "hit": false,
      "t": 42000.00000000002,
      "d": 322.91666666665697,
      "v": 54
    },
    {
      "midi": 69,
      "hit": false,
      "t": 43229.16666666668,
      "d": 1234.375,
      "v": 60
    },
    {
      "midi": 43,
      "hit": false,
      "t": 43255.20833333334,
      "d": 1255.2083333333358,
      "v": 52
    },
    {
      "midi": 67,
      "hit": false,
      "t": 44494.79166666668,
      "d": 755.208333333343,
      "v": 51
    },
    {
      "midi": 36,
      "hit": false,
      "t": 44515.625000000015,
      "d": 354.1666666666715,
      "v": 46
    },
    {
      "midi": 60,
      "hit": false,
      "t": 45625.00000000002,
      "d": 375,
      "v": 39
    },
    {
      "midi": 64,
      "hit": false,
      "t": 45625.00000000002,
      "d": 427.08333333333576,
      "v": 31
    },
    {
      "midi": 59,
      "hit": false,
      "t": 45635.416666666686,
      "d": 395.83333333333576,
      "v": 43
    },
    {
      "midi": 55,
      "hit": false,
      "t": 46750.00000000002,
      "d": 432.2916666666788,
      "v": 41
    },
    {
      "midi": 57,
      "hit": false,
      "t": 46755.20833333336,
      "d": 447.9166666666788,
      "v": 41
    },
    {
      "midi": 65,
      "hit": false,
      "t": 46760.41666666669,
      "d": 359.3750000000073,
      "v": 39
    },
    {
      "midi": 60,
      "hit": false,
      "t": 46770.83333333336,
      "d": 322.9166666666788,
      "v": 47
    },
    {
      "midi": 43,
      "hit": false,
      "t": 47932.2916666667,
      "d": 1015.6250000000073,
      "v": 41
    },
    {
      "midi": 36,
      "hit": false,
      "t": 49039.062500000044,
      "d": 260.41666666666424,
      "v": 60
    },
    {
      "midi": 64,
      "hit": false,
      "t": 50236.97916666671,
      "d": 755.2083333333358,
      "v": 34
    },
    {
      "midi": 59,
      "hit": false,
      "t": 50247.39583333337,
      "d": 755.208333333343,
      "v": 39
    },
    {
      "midi": 60,
      "hit": false,
      "t": 50252.60416666671,
      "d": 744.7916666666715,
      "v": 43
    },
    {
      "midi": 86,
      "hit": false,
      "t": 50877.60416666671,
      "d": 156.25000000000728,
      "v": 92
    },
    {
      "midi": 86,
      "hit": false,
      "t": 51179.68750000005,
      "d": 208.33333333333576,
      "v": 85
    },
    {
      "midi": 55,
      "hit": false,
      "t": 51450.520833333394,
      "d": 401.04166666666424,
      "v": 46
    },
    {
      "midi": 65,
      "hit": false,
      "t": 51455.72916666673,
      "d": 286.4583333333285,
      "v": 48
    },
    {
      "midi": 60,
      "hit": false,
      "t": 51471.35416666673,
      "d": 270.8333333333285,
      "v": 48
    },
    {
      "midi": 57,
      "hit": false,
      "t": 51481.770833333394,
      "d": 359.375,
      "v": 49
    },
    {
      "midi": 91,
      "hit": false,
      "t": 51528.645833333394,
      "d": 296.875,
      "v": 98
    },
    {
      "midi": 91,
      "hit": false,
      "t": 51893.22916666672,
      "d": 223.95833333333576,
      "v": 83
    },
    {
      "midi": 83,
      "hit": false,
      "t": 52148.43750000006,
      "d": 93.75,
      "v": 55
    },
    {
      "midi": 83,
      "hit": false,
      "t": 52330.72916666672,
      "d": 151.04166666666424,
      "v": 57
    },
    {
      "midi": 86,
      "hit": false,
      "t": 52528.64583333339,
      "d": 135.41666666667152,
      "v": 83
    },
    {
      "midi": 43,
      "hit": false,
      "t": 52565.10416666672,
      "d": 1187.4999999999854,
      "v": 50
    },
    {
      "midi": 86,
      "hit": false,
      "t": 52752.60416666672,
      "d": 98.95833333333576,
      "v": 65
    },
    {
      "midi": 79,
      "hit": false,
      "t": 52940.10416666672,
      "d": 72.91666666666424,
      "v": 50
    },
    {
      "midi": 79,
      "hit": false,
      "t": 53132.81250000005,
      "d": 104.16666666666424,
      "v": 48
    },
    {
      "midi": 83,
      "hit": false,
      "t": 53304.68750000005,
      "d": 88.54166666666424,
      "v": 60
    },
    {
      "midi": 83,
      "hit": false,
      "t": 53497.39583333338,
      "d": 109.375,
      "v": 54
    },
    {
      "midi": 36,
      "hit": false,
      "t": 53638.02083333338,
      "d": 276.04166666665697,
      "v": 40
    },
    {
      "midi": 52,
      "hit": false,
      "t": 53679.687500000044,
      "d": 354.16666666666424,
      "v": 31
    },
    {
      "midi": 74,
      "hit": false,
      "t": 53726.562500000044,
      "d": 114.58333333332848,
      "v": 33
    },
    {
      "midi": 74,
      "hit": false,
      "t": 53950.52083333337,
      "d": 114.58333333333576,
      "v": 44
    },
    {
      "midi": 76,
      "hit": false,
      "t": 54132.812500000044,
      "d": 307.29166666666424,
      "v": 56
    },
    {
      "midi": 67,
      "hit": false,
      "t": 54841.14583333337,
      "d": 562.5000000000073,
      "v": 41
    },
    {
      "midi": 64,
      "hit": false,
      "t": 54846.35416666671,
      "d": 427.08333333333576,
      "v": 33
    },
    {
      "midi": 59,
      "hit": false,
      "t": 54851.562500000044,
      "d": 421.875,
      "v": 30
    },
    {
      "midi": 60,
      "hit": false,
      "t": 54851.562500000044,
      "d": 468.75,
      "v": 36
    },
    {
      "midi": 55,
      "hit": false,
      "t": 55986.97916666672,
      "d": 463.54166666666424,
      "v": 24
    },
    {
      "midi": 57,
      "hit": false,
      "t": 55992.18750000006,
      "d": 468.7499999999927,
      "v": 33
    },
    {
      "midi": 65,
      "hit": false,
      "t": 56002.60416666672,
      "d": 343.75,
      "v": 33
    },
    {
      "midi": 60,
      "hit": false,
      "t": 56007.81250000006,
      "d": 328.125,
      "v": 41
    },
    {
      "midi": 43,
      "hit": false,
      "t": 57231.77083333339,
      "d": 1119.7916666666715,
      "v": 33
    },
    {
      "midi": 36,
      "hit": false,
      "t": 58341.14583333339,
      "d": 270.83333333334303,
      "v": 39
    },
    {
      "midi": 52,
      "hit": false,
      "t": 58388.020833333394,
      "d": 364.58333333333576,
      "v": 36
    },
    {
      "midi": 84,
      "hit": false,
      "t": 58684.895833333394,
      "d": 125,
      "v": 55
    },
    {
      "midi": 84,
      "hit": false,
      "t": 58986.97916666673,
      "d": 93.75,
      "v": 56
    },
    {
      "midi": 91,
      "hit": false,
      "t": 59268.22916666673,
      "d": 177.08333333333576,
      "v": 87
    },
    {
      "midi": 91,
      "hit": false,
      "t": 59596.35416666673,
      "d": 557.2916666666715,
      "v": 84
    },
    {
      "midi": 59,
      "hit": false,
      "t": 59596.35416666673,
      "d": 635.4166666666715,
      "v": 37
    },
    {
      "midi": 64,
      "hit": false,
      "t": 59596.35416666673,
      "d": 671.8750000000073,
      "v": 34
    },
    {
      "midi": 60,
      "hit": false,
      "t": 59601.562500000065,
      "d": 635.4166666666715,
      "v": 40
    },
    {
      "midi": 83,
      "hit": false,
      "t": 59877.60416666673,
      "d": 177.08333333333576,
      "v": 67
    },
    {
      "midi": 83,
      "hit": false,
      "t": 60158.85416666674,
      "d": 723.9583333333503,
      "v": 48
    },
    {
      "midi": 89,
      "hit": false,
      "t": 60403.6458333334,
      "d": 625.0000000000218,
      "v": 80
    },
    {
      "midi": 55,
      "hit": false,
      "t": 60622.39583333341,
      "d": 343.75000000001455,
      "v": 38
    },
    {
      "midi": 65,
      "hit": false,
      "t": 60638.02083333341,
      "d": 218.75000000000728,
      "v": 34
    },
    {
      "midi": 57,
      "hit": false,
      "t": 60643.229166666744,
      "d": 333.33333333334303,
      "v": 40
    },
    {
      "midi": 60,
      "hit": false,
      "t": 60653.64583333341,
      "d": 208.33333333334303,
      "v": 36
    },
    {
      "midi": 88,
      "hit": false,
      "t": 60851.56250000008,
      "d": 864.583333333343,
      "v": 75
    },
    {
      "midi": 79,
      "hit": false,
      "t": 61278.64583333342,
      "d": 333.33333333333576,
      "v": 58
    },
    {
      "midi": 43,
      "hit": false,
      "t": 61851.56250000009,
      "d": 307.2916666666715,
      "v": 40
    },
    {
      "midi": 79,
      "hit": false,
      "t": 61856.77083333342,
      "d": 479.16666666666424,
      "v": 46
    },
    {
      "midi": 86,
      "hit": false,
      "t": 62325.52083333342,
      "d": 260.41666666666424,
      "v": 77
    },
    {
      "midi": 84,
      "hit": false,
      "t": 62643.22916666675,
      "d": 286.4583333333285,
      "v": 68
    },
    {
      "midi": 79,
      "hit": false,
      "t": 62856.770833333416,
      "d": 161.45833333332848,
      "v": 58
    },
    {
      "midi": 36,
      "hit": false,
      "t": 63070.31250000008,
      "d": 281.25,
      "v": 43
    },
    {
      "midi": 76,
      "hit": false,
      "t": 63080.72916666675,
      "d": 182.29166666666424,
      "v": 35
    },
    {
      "midi": 52,
      "hit": false,
      "t": 63148.43750000009,
      "d": 328.1249999999927,
      "v": 24
    },
    {
      "midi": 81,
      "hit": false,
      "t": 63294.270833333416,
      "d": 270.8333333333285,
      "v": 67
    },
    {
      "midi": 79,
      "hit": false,
      "t": 63502.604166666744,
      "d": 312.5,
      "v": 71
    },
    {
      "midi": 76,
      "hit": false,
      "t": 63695.31250000008,
      "d": 125,
      "v": 67
    },
    {
      "midi": 72,
      "hit": false,
      "t": 63877.604166666744,
      "d": 125,
      "v": 57
    },
    {
      "midi": 77,
      "hit": false,
      "t": 64054.68750000008,
      "d": 208.33333333333576,
      "v": 73
    },
    {
      "midi": 64,
      "hit": false,
      "t": 64080.729166666744,
      "d": 598.958333333343,
      "v": 41
    },
    {
      "midi": 59,
      "hit": false,
      "t": 64096.354166666744,
      "d": 598.958333333343,
      "v": 39
    },
    {
      "midi": 60,
      "hit": false,
      "t": 64101.56250000008,
      "d": 619.7916666666715,
      "v": 41
    },
    {
      "midi": 76,
      "hit": false,
      "t": 64231.770833333416,
      "d": 161.45833333333576,
      "v": 66
    },
    {
      "midi": 72,
      "hit": false,
      "t": 64393.22916666675,
      "d": 125,
      "v": 63
    },
    {
      "midi": 67,
      "hit": false,
      "t": 64575.520833333416,
      "d": 98.95833333333576,
      "v": 47
    },
    {
      "midi": 74,
      "hit": false,
      "t": 64731.770833333416,
      "d": 213.54166666667152,
      "v": 68
    },
    {
      "midi": 72,
      "hit": false,
      "t": 64908.85416666675,
      "d": 171.87500000000728,
      "v": 61
    },
    {
      "midi": 67,
      "hit": false,
      "t": 65075.52083333342,
      "d": 203.12500000000728,
      "v": 65
    },
    {
      "midi": 65,
      "hit": false,
      "t": 65101.562500000095,
      "d": 125.00000000000728,
      "v": 40
    },
    {
      "midi": 55,
      "hit": false,
      "t": 65122.39583333343,
      "d": 354.1666666666715,
      "v": 35
    },
    {
      "midi": 57,
      "hit": false,
      "t": 65143.229166666766,
      "d": 302.08333333333576,
      "v": 41
    },
    {
      "midi": 60,
      "hit": false,
      "t": 65164.0625000001,
      "d": 182.29166666666424,
      "v": 37
    },
    {
      "midi": 64,
      "hit": false,
      "t": 65320.3125000001,
      "d": 640.625,
      "v": 49
    },
    {
      "midi": 65,
      "hit": false,
      "t": 65934.89583333343,
      "d": 1520.8333333333576,
      "v": 63
    },
    {
      "midi": 43,
      "hit": false,
      "t": 66518.22916666677,
      "d": 369.79166666668607,
      "v": 45
    },
    {
      "midi": 67,
      "hit": false,
      "t": 67455.72916666679,
      "d": 437.5,
      "v": 39
    },
    {
      "midi": 36,
      "hit": false,
      "t": 67908.85416666679,
      "d": 328.1249999999709,
      "v": 39
    },
    {
      "midi": 64,
      "hit": false,
      "t": 67924.47916666679,
      "d": 494.7916666666424,
      "v": 44
    },
    {
      "midi": 52,
      "hit": false,
      "t": 67950.52083333343,
      "d": 427.0833333333285,
      "v": 38
    },
    {
      "midi": 64,
      "hit": false,
      "t": 69143.22916666676,
      "d": 703.125,
      "v": 29
    },
    {
      "midi": 60,
      "hit": false,
      "t": 69153.64583333343,
      "d": 651.041666666657,
      "v": 36
    },
    {
      "midi": 59,
      "hit": false,
      "t": 69158.85416666676,
      "d": 578.125,
      "v": 39
    },
    {
      "midi": 65,
      "hit": false,
      "t": 70294.27083333342,
      "d": 229.16666666665697,
      "v": 36
    },
    {
      "midi": 60,
      "hit": false,
      "t": 70299.47916666674,
      "d": 218.75,
      "v": 36
    },
    {
      "midi": 55,
      "hit": false,
      "t": 70299.47916666674,
      "d": 322.91666666665697,
      "v": 33
    },
    {
      "midi": 57,
      "hit": false,
      "t": 70309.89583333342,
      "d": 322.91666666665697,
      "v": 39
    },
    {
      "midi": 43,
      "hit": false,
      "t": 71570.31250000007,
      "d": 1161.458333333314,
      "v": 31
    },
    {
      "midi": 67,
      "hit": false,
      "t": 71747.3958333334,
      "d": 119.79166666667152,
      "v": 49
    },
    {
      "midi": 69,
      "hit": false,
      "t": 71893.22916666674,
      "d": 72.91666666667152,
      "v": 55
    },
    {
      "midi": 71,
      "hit": false,
      "t": 71986.97916666674,
      "d": 36.45833333332848,
      "v": 62
    },
    {
      "midi": 74,
      "hit": false,
      "t": 72096.35416666674,
      "d": 88.54166666667152,
      "v": 77
    },
    {
      "midi": 76,
      "hit": false,
      "t": 72195.31250000009,
      "d": 31.25,
      "v": 81
    },
    {
      "midi": 79,
      "hit": false,
      "t": 72320.31250000009,
      "d": 114.58333333332848,
      "v": 85
    },
    {
      "midi": 81,
      "hit": false,
      "t": 72419.27083333342,
      "d": 161.45833333332848,
      "v": 81
    },
    {
      "midi": 83,
      "hit": false,
      "t": 72533.85416666674,
      "d": 109.375,
      "v": 81
    },
    {
      "midi": 86,
      "hit": false,
      "t": 72627.60416666674,
      "d": 213.54166666662786,
      "v": 115
    },
    {
      "midi": 36,
      "hit": false,
      "t": 72721.35416666673,
      "d": 343.7499999999709,
      "v": 54
    },
    {
      "midi": 52,
      "hit": false,
      "t": 72752.60416666672,
      "d": 453.12499999998545,
      "v": 54
    },
    {
      "midi": 83,
      "hit": false,
      "t": 72773.43750000004,
      "d": 661.4583333333285,
      "v": 81
    },
    {
      "midi": 84,
      "hit": false,
      "t": 72783.85416666672,
      "d": 36.45833333332848,
      "v": 63
    },
    {
      "midi": 67,
      "hit": false,
      "t": 73674.4791666667,
      "d": 52.08333333332848,
      "v": 43
    },
    {
      "midi": 69,
      "hit": false,
      "t": 73794.27083333336,
      "d": 104.16666666667152,
      "v": 54
    },
    {
      "midi": 71,
      "hit": false,
      "t": 73888.02083333336,
      "d": 46.875,
      "v": 71
    },
    {
      "midi": 74,
      "hit": false,
      "t": 74013.02083333336,
      "d": 83.33333333334303,
      "v": 76
    },
    {
      "midi": 64,
      "hit": false,
      "t": 74039.06250000003,
      "d": 598.958333333343,
      "v": 37
    },
    {
      "midi": 59,
      "hit": false,
      "t": 74054.68750000003,
      "d": 546.8750000000146,
      "v": 35
    },
    {
      "midi": 60,
      "hit": false,
      "t": 74054.68750000003,
      "d": 578.1250000000146,
      "v": 45
    },
    {
      "midi": 76,
      "hit": false,
      "t": 74111.9791666667,
      "d": 83.33333333332848,
      "v": 75
    },
    {
      "midi": 79,
      "hit": false,
      "t": 74283.8541666667,
      "d": 104.16666666667152,
      "v": 46
    },
    {
      "midi": 81,
      "hit": false,
      "t": 74299.4791666667,
      "d": 41.66666666667152,
      "v": 44
    },
    {
      "midi": 81,
      "hit": false,
      "t": 74372.39583333337,
      "d": 119.79166666667152,
      "v": 41
    },
    {
      "midi": 83,
      "hit": false,
      "t": 74476.56250000004,
      "d": 52.08333333332848,
      "v": 75
    },
    {
      "midi": 86,
      "hit": false,
      "t": 74559.89583333337,
      "d": 244.79166666667152,
      "v": 99
    },
    {
      "midi": 83,
      "hit": false,
      "t": 74684.89583333337,
      "d": 1416.666666666657,
      "v": 94
    },
    {
      "midi": 55,
      "hit": false,
      "t": 75179.68750000003,
      "d": 484.375,
      "v": 40
    },
    {
      "midi": 65,
      "hit": false,
      "t": 75190.1041666667,
      "d": 369.7916666666715,
      "v": 36
    },
    {
      "midi": 60,
      "hit": false,
      "t": 75210.93750000003,
      "d": 333.33333333334303,
      "v": 41
    },
    {
      "midi": 57,
      "hit": false,
      "t": 75210.93750000003,
      "d": 432.2916666666715,
      "v": 45
    },
    {
      "midi": 43,
      "hit": false,
      "t": 76445.31250000003,
      "d": 1156.2499999999854,
      "v": 37
    },
    {
      "midi": 67,
      "hit": false,
      "t": 76476.56250000003,
      "d": 276.0416666666715,
      "v": 44
    },
    {
      "midi": 69,
      "hit": false,
      "t": 76768.2291666667,
      "d": 151.04166666667152,
      "v": 52
    },
    {
      "midi": 71,
      "hit": false,
      "t": 76945.31250000004,
      "d": 88.54166666667152,
      "v": 63
    },
    {
      "midi": 74,
      "hit": false,
      "t": 77132.81250000004,
      "d": 83.33333333332848,
      "v": 58
    },
    {
      "midi": 76,
      "hit": false,
      "t": 77252.6041666667,
      "d": 52.08333333332848,
      "v": 50
    },
    {
      "midi": 79,
      "hit": false,
      "t": 77419.27083333336,
      "d": 52.08333333331393,
      "v": 46
    },
    {
      "midi": 81,
      "hit": false,
      "t": 77523.43750000001,
      "d": 104.16666666667152,
      "v": 58
    },
    {
      "midi": 36,
      "hit": false,
      "t": 77523.43750000001,
      "d": 223.95833333331393,
      "v": 41
    },
    {
      "midi": 52,
      "hit": false,
      "t": 77570.31250000001,
      "d": 354.16666666665697,
      "v": 37
    },
    {
      "midi": 83,
      "hit": false,
      "t": 77632.81250000001,
      "d": 109.37499999998545,
      "v": 63
    },
    {
      "midi": 86,
      "hit": false,
      "t": 77789.0625,
      "d": 291.6666666666715,
      "v": 61
    },
    {
      "midi": 83,
      "hit": false,
      "t": 78059.89583333334,
      "d": 1932.291666666686,
      "v": 79
    },
    {
      "midi": 59,
      "hit": false,
      "t": 78747.39583333334,
      "d": 739.583333333343,
      "v": 38
    },
    {
      "midi": 60,
      "hit": false,
      "t": 78757.81250000001,
      "d": 739.583333333343,
      "v": 39
    },
    {
      "midi": 64,
      "hit": false,
      "t": 78757.81250000001,
      "d": 770.833333333343,
      "v": 31
    },
    {
      "midi": 79,
      "hit": false,
      "t": 79486.97916666669,
      "d": 510.4166666666715,
      "v": 45
    },
    {
      "midi": 55,
      "hit": false,
      "t": 80018.22916666669,
      "d": 427.0833333333285,
      "v": 34
    },
    {
      "midi": 60,
      "hit": false,
      "t": 80023.43750000001,
      "d": 265.625,
      "v": 39
    },
    {
      "midi": 65,
      "hit": false,
      "t": 80023.43750000001,
      "d": 281.25,
      "v": 34
    },
    {
      "midi": 57,
      "hit": false,
      "t": 80033.85416666667,
      "d": 427.08333333334303,
      "v": 36
    },
    {
      "midi": 81,
      "hit": false,
      "t": 80033.85416666667,
      "d": 2776.0416666666715,
      "v": 43
    },
    {
      "midi": 43,
      "hit": false,
      "t": 81377.60416666669,
      "d": 1307.291666666657,
      "v": 41
    },
    {
      "midi": 36,
      "hit": false,
      "t": 82684.89583333334,
      "d": 333.3333333333285,
      "v": 41
    },
    {
      "midi": 52,
      "hit": false,
      "t": 82700.52083333334,
      "d": 468.75,
      "v": 45
    },
    {
      "midi": 64,
      "hit": false,
      "t": 83888.02083333334,
      "d": 802.0833333333285,
      "v": 35
    },
    {
      "midi": 60,
      "hit": false,
      "t": 83908.85416666667,
      "d": 781.25,
      "v": 37
    },
    {
      "midi": 59,
      "hit": false,
      "t": 83914.0625,
      "d": 776.0416666666715,
      "v": 37
    },
    {
      "midi": 96,
      "hit": false,
      "t": 84617.1875,
      "d": 906.2500000000146,
      "v": 107
    },
    {
      "midi": 65,
      "hit": false,
      "t": 85096.35416666667,
      "d": 354.1666666666715,
      "v": 43
    },
    {
      "midi": 60,
      "hit": false,
      "t": 85106.77083333333,
      "d": 338.54166666668607,
      "v": 44
    },
    {
      "midi": 57,
      "hit": false,
      "t": 85106.77083333333,
      "d": 453.12500000001455,
      "v": 47
    },
    {
      "midi": 55,
      "hit": false,
      "t": 85111.97916666666,
      "d": 453.12500000001455,
      "v": 41
    },
    {
      "midi": 95,
      "hit": false,
      "t": 85434.89583333334,
      "d": 755.2083333333285,
      "v": 82
    },
    {
      "midi": 88,
      "hit": false,
      "t": 85820.3125,
      "d": 859.3750000000146,
      "v": 62
    },
    {
      "midi": 43,
      "hit": false,
      "t": 86242.1875,
      "d": 395.83333333334303,
      "v": 42
    },
    {
      "midi": 95,
      "hit": false,
      "t": 86664.06250000001,
      "d": 401.04166666665697,
      "v": 66
    },
    {
      "midi": 93,
      "hit": false,
      "t": 86669.27083333334,
      "d": 31.25,
      "v": 61
    },
    {
      "midi": 93,
      "hit": false,
      "t": 87101.5625,
      "d": 1041.666666666686,
      "v": 65
    },
    {
      "midi": 36,
      "hit": false,
      "t": 87476.5625,
      "d": 322.91666666668607,
      "v": 43
    },
    {
      "midi": 52,
      "hit": false,
      "t": 87528.64583333333,
      "d": 411.4583333333576,
      "v": 34
    },
    {
      "midi": 91,
      "hit": false,
      "t": 87799.47916666669,
      "d": 328.125,
      "v": 64
    },
    {
      "midi": 83,
      "hit": false,
      "t": 88111.97916666669,
      "d": 338.5416666666715,
      "v": 49
    },
    {
      "midi": 89,
      "hit": false,
      "t": 88372.39583333336,
      "d": 536.4583333333139,
      "v": 76
    },
    {
      "midi": 88,
      "hit": false,
      "t": 88643.22916666669,
      "d": 510.41666666665697,
      "v": 73
    },
    {
      "midi": 64,
      "hit": false,
      "t": 88648.43750000001,
      "d": 927.0833333333139,
      "v": 40
    },
    {
      "midi": 59,
      "hit": false,
      "t": 88653.64583333334,
      "d": 864.5833333333285,
      "v": 41
    },
    {
      "midi": 60,
      "hit": false,
      "t": 88669.27083333334,
      "d": 854.166666666657,
      "v": 42
    },
    {
      "midi": 79,
      "hit": false,
      "t": 88981.77083333334,
      "d": 500,
      "v": 48
    },
    {
      "midi": 86,
      "hit": false,
      "t": 89502.60416666667,
      "d": 406.2499999999709,
      "v": 78
    },
    {
      "midi": 65,
      "hit": false,
      "t": 89799.47916666664,
      "d": 312.5,
      "v": 34
    },
    {
      "midi": 57,
      "hit": false,
      "t": 89804.68749999997,
      "d": 421.87500000001455,
      "v": 41
    },
    {
      "midi": 84,
      "hit": false,
      "t": 89815.10416666664,
      "d": 296.875,
      "v": 54
    },
    {
      "midi": 55,
      "hit": false,
      "t": 89815.10416666664,
      "d": 401.0416666666715,
      "v": 32
    },
    {
      "midi": 60,
      "hit": false,
      "t": 89841.14583333331,
      "d": 234.375,
      "v": 36
    },
    {
      "midi": 76,
      "hit": false,
      "t": 90075.52083333331,
      "d": 385.4166666666715,
      "v": 57
    },
    {
      "midi": 83,
      "hit": false,
      "t": 90460.93749999999,
      "d": 432.2916666666715,
      "v": 66
    },
    {
      "midi": 81,
      "hit": false,
      "t": 90768.22916666666,
      "d": 447.91666666665697,
      "v": 63
    },
    {
      "midi": 43,
      "hit": false,
      "t": 91080.72916666666,
      "d": 333.3333333333285,
      "v": 33
    },
    {
      "midi": 53,
      "hit": false,
      "t": 91101.56249999999,
      "d": 416.6666666666715,
      "v": 30
    },
    {
      "midi": 71,
      "hit": false,
      "t": 91169.27083333331,
      "d": 536.458333333343,
      "v": 20
    },
    {
      "midi": 81,
      "hit": false,
      "t": 91492.18749999999,
      "d": 203.125,
      "v": 50
    },
    {
      "midi": 79,
      "hit": false,
      "t": 91778.64583333333,
      "d": 213.54166666667152,
      "v": 49
    },
    {
      "midi": 67,
      "hit": false,
      "t": 92117.1875,
      "d": 807.2916666666424,
      "v": 18
    },
    {
      "midi": 36,
      "hit": false,
      "t": 92377.60416666667,
      "d": 427.0833333332994,
      "v": 38
    },
    {
      "midi": 76,
      "hit": false,
      "t": 92424.47916666664,
      "d": 1703.1249999999854,
      "v": 49
    },
    {
      "midi": 52,
      "hit": false,
      "t": 92445.31249999997,
      "d": 494.7916666666715,
      "v": 26
    },
    {
      "midi": 64,
      "hit": false,
      "t": 93585.93749999997,
      "d": 713.541666666657,
      "v": 18
    },
    {
      "midi": 60,
      "hit": false,
      "t": 93591.1458333333,
      "d": 677.0833333333285,
      "v": 33
    },
    {
      "midi": 59,
      "hit": false,
      "t": 93596.35416666663,
      "d": 661.4583333333285,
      "v": 36
    },
    {
      "midi": 67,
      "hit": false,
      "t": 93929.68749999996,
      "d": 500,
      "v": 40
    },
    {
      "midi": 69,
      "hit": false,
      "t": 94304.68749999996,
      "d": 432.2916666666715,
      "v": 39
    },
    {
      "midi": 72,
      "hit": false,
      "t": 94736.97916666663,
      "d": 364.5833333332994,
      "v": 53
    },
    {
      "midi": 55,
      "hit": false,
      "t": 94752.60416666663,
      "d": 536.4583333332994,
      "v": 35
    },
    {
      "midi": 57,
      "hit": false,
      "t": 94752.60416666663,
      "d": 546.8749999999709,
      "v": 39
    },
    {
      "midi": 60,
      "hit": false,
      "t": 94773.43749999997,
      "d": 369.79166666662786,
      "v": 38
    },
    {
      "midi": 65,
      "hit": false,
      "t": 94794.27083333328,
      "d": 354.1666666666424,
      "v": 9
    },
    {
      "midi": 72,
      "hit": false,
      "t": 95190.1041666666,
      "d": 364.5833333333285,
      "v": 49
    },
    {
      "midi": 69,
      "hit": false,
      "t": 95559.89583333326,
      "d": 359.375,
      "v": 42
    },
    {
      "midi": 43,
      "hit": false,
      "t": 96007.81249999991,
      "d": 364.5833333333285,
      "v": 37
    },
    {
      "midi": 71,
      "hit": false,
      "t": 96013.02083333324,
      "d": 598.9583333333285,
      "v": 40
    },
    {
      "midi": 67,
      "hit": false,
      "t": 96033.85416666657,
      "d": 661.4583333333285,
      "v": 13
    },
    {
      "midi": 72,
      "hit": false,
      "t": 96643.22916666657,
      "d": 213.54166666665697,
      "v": 49
    },
    {
      "midi": 74,
      "hit": false,
      "t": 96898.4374999999,
      "d": 213.54166666667152,
      "v": 52
    },
    {
      "midi": 64,
      "hit": false,
      "t": 97320.3124999999,
      "d": 687.5,
      "v": 32
    },
    {
      "midi": 67,
      "hit": false,
      "t": 97320.3124999999,
      "d": 890.625,
      "v": 43
    },
    {
      "midi": 36,
      "hit": false,
      "t": 97335.9374999999,
      "d": 296.875,
      "v": 36
    },
    {
      "midi": 52,
      "hit": false,
      "t": 97377.60416666656,
      "d": 390.62500000001455,
      "v": 31
    },
    {
      "midi": 60,
      "hit": false,
      "t": 98539.0624999999,
      "d": 708.3333333333285,
      "v": 31
    },
    {
      "midi": 59,
      "hit": false,
      "t": 98544.27083333323,
      "d": 666.6666666666715,
      "v": 36
    },
    {
      "midi": 64,
      "hit": false,
      "t": 98544.27083333323,
      "d": 755.2083333333285,
      "v": 22
    },
    {
      "midi": 79,
      "hit": false,
      "t": 99023.4374999999,
      "d": 62.5,
      "v": 38
    },
    {
      "midi": 79,
      "hit": false,
      "t": 99346.35416666656,
      "d": 244.79166666667152,
      "v": 46
    },
    {
      "midi": 55,
      "hit": false,
      "t": 99669.27083333323,
      "d": 427.0833333332994,
      "v": 35
    },
    {
      "midi": 60,
      "hit": false,
      "t": 99684.89583333321,
      "d": 270.83333333331393,
      "v": 39
    },
    {
      "midi": 57,
      "hit": false,
      "t": 99690.10416666654,
      "d": 390.62499999998545,
      "v": 31
    },
    {
      "midi": 65,
      "hit": false,
      "t": 99705.72916666654,
      "d": 265.62499999998545,
      "v": 30
    },
    {
      "midi": 79,
      "hit": false,
      "t": 99716.1458333332,
      "d": 265.625,
      "v": 46
    },
    {
      "midi": 79,
      "hit": false,
      "t": 100138.0208333332,
      "d": 119.79166666667152,
      "v": 47
    },
    {
      "midi": 79,
      "hit": false,
      "t": 100356.7708333332,
      "d": 109.375,
      "v": 66
    },
    {
      "midi": 79,
      "hit": false,
      "t": 100533.85416666653,
      "d": 166.66666666667152,
      "v": 79
    },
    {
      "midi": 79,
      "hit": false,
      "t": 100757.81249999987,
      "d": 140.625,
      "v": 76
    },
    {
      "midi": 79,
      "hit": false,
      "t": 100971.35416666654,
      "d": 114.58333333334303,
      "v": 51
    },
    {
      "midi": 43,
      "hit": false,
      "t": 100981.77083333321,
      "d": 1109.3750000000146,
      "v": 41
    },
    {
      "midi": 79,
      "hit": false,
      "t": 101179.68749999988,
      "d": 119.79166666667152,
      "v": 56
    },
    {
      "midi": 79,
      "hit": false,
      "t": 101351.56249999988,
      "d": 72.91666666667152,
      "v": 48
    },
    {
      "midi": 79,
      "hit": false,
      "t": 101513.02083333323,
      "d": 57.29166666667152,
      "v": 68
    },
    {
      "midi": 79,
      "hit": false,
      "t": 101658.85416666657,
      "d": 36.45833333332848,
      "v": 55
    },
    {
      "midi": 79,
      "hit": false,
      "t": 101768.22916666657,
      "d": 31.25,
      "v": 72
    },
    {
      "midi": 79,
      "hit": false,
      "t": 101898.4374999999,
      "d": 83.33333333332848,
      "v": 66
    },
    {
      "midi": 79,
      "hit": false,
      "t": 102039.0624999999,
      "d": 31.249999999985448,
      "v": 60
    },
    {
      "midi": 36,
      "hit": false,
      "t": 102070.31249999988,
      "d": 302.0833333333285,
      "v": 41
    },
    {
      "midi": 52,
      "hit": false,
      "t": 102101.5624999999,
      "d": 421.8749999999709,
      "v": 48
    },
    {
      "midi": 79,
      "hit": false,
      "t": 102122.39583333323,
      "d": 98.95833333332848,
      "v": 58
    },
    {
      "midi": 81,
      "hit": false,
      "t": 102252.60416666654,
      "d": 218.75,
      "v": 86
    },
    {
      "midi": 79,
      "hit": false,
      "t": 102486.97916666654,
      "d": 119.79166666665697,
      "v": 74
    },
    {
      "midi": 79,
      "hit": false,
      "t": 102684.8958333332,
      "d": 208.33333333332848,
      "v": 69
    },
    {
      "midi": 79,
      "hit": false,
      "t": 102934.8958333332,
      "d": 119.79166666667152,
      "v": 46
    },
    {
      "midi": 81,
      "hit": false,
      "t": 103117.18749999987,
      "d": 135.4166666666424,
      "v": 72
    },
    {
      "midi": 64,
      "hit": false,
      "t": 103184.8958333332,
      "d": 828.125,
      "v": 32
    },
    {
      "midi": 60,
      "hit": false,
      "t": 103205.72916666653,
      "d": 776.0416666666715,
      "v": 40
    },
    {
      "midi": 59,
      "hit": false,
      "t": 103210.93749999985,
      "d": 776.0416666666715,
      "v": 41
    },
    {
      "midi": 79,
      "hit": false,
      "t": 103273.43749999984,
      "d": 145.83333333334303,
      "v": 59
    },
    {
      "midi": 79,
      "hit": false,
      "t": 103507.81249999985,
      "d": 197.91666666667152,
      "v": 60
    },
    {
      "midi": 81,
      "hit": false,
      "t": 103731.7708333332,
      "d": 177.08333333332848,
      "v": 52
    },
    {
      "midi": 79,
      "hit": false,
      "t": 104013.0208333332,
      "d": 187.5,
      "v": 57
    },
    {
      "midi": 79,
      "hit": false,
      "t": 104299.47916666653,
      "d": 182.29166666665697,
      "v": 57
    },
    {
      "midi": 65,
      "hit": false,
      "t": 104398.43749999985,
      "d": 369.7916666666715,
      "v": 33
    },
    {
      "midi": 60,
      "hit": false,
      "t": 104424.47916666653,
      "d": 322.9166666666715,
      "v": 36
    },
    {
      "midi": 57,
      "hit": false,
      "t": 104445.31249999985,
      "d": 442.7083333333285,
      "v": 36
    },
    {
      "midi": 55,
      "hit": false,
      "t": 104466.14583333318,
      "d": 416.6666666666715,
      "v": 26
    },
    {
      "midi": 79,
      "hit": false,
      "t": 104575.52083333318,
      "d": 1447.9166666666715,
      "v": 60
    },
    {
      "midi": 88,
      "hit": false,
      "t": 104851.56249999985,
      "d": 1380.2083333333285,
      "v": 63
    },
    {
      "midi": 43,
      "hit": false,
      "t": 105559.89583333318,
      "d": 250,
      "v": 40
    },
    {
      "midi": 79,
      "hit": false,
      "t": 106216.14583333318,
      "d": 57.29166666667152,
      "v": 49
    },
    {
      "midi": 79,
      "hit": false,
      "t": 106403.64583333318,
      "d": 93.75,
      "v": 52
    },
    {
      "midi": 79,
      "hit": false,
      "t": 106591.14583333318,
      "d": 130.20833333332848,
      "v": 61
    },
    {
      "midi": 81,
      "hit": false,
      "t": 106778.64583333318,
      "d": 197.91666666665697,
      "v": 63
    },
    {
      "midi": 36,
      "hit": false,
      "t": 106804.68749999984,
      "d": 213.54166666665697,
      "v": 39
    },
    {
      "midi": 52,
      "hit": false,
      "t": 106830.72916666651,
      "d": 343.74999999998545,
      "v": 41
    },
    {
      "midi": 79,
      "hit": false,
      "t": 106997.39583333317,
      "d": 104.16666666665697,
      "v": 57
    },
    {
      "midi": 79,
      "hit": false,
      "t": 107216.14583333317,
      "d": 187.5,
      "v": 49
    },
    {
      "midi": 79,
      "hit": false,
      "t": 107539.06249999984,
      "d": 140.625,
      "v": 62
    },
    {
      "midi": 81,
      "hit": false,
      "t": 107747.39583333317,
      "d": 145.83333333332848,
      "v": 66
    },
    {
      "midi": 79,
      "hit": false,
      "t": 107940.1041666665,
      "d": 93.75,
      "v": 56
    },
    {
      "midi": 64,
      "hit": false,
      "t": 107966.14583333317,
      "d": 817.7083333333139,
      "v": 32
    },
    {
      "midi": 59,
      "hit": false,
      "t": 107976.56249999984,
      "d": 817.7083333333139,
      "v": 39
    },
    {
      "midi": 60,
      "hit": false,
      "t": 107981.77083333317,
      "d": 796.8749999999854,
      "v": 39
    },
    {
      "midi": 79,
      "hit": false,
      "t": 108148.43749999983,
      "d": 281.25,
      "v": 58
    },
    {
      "midi": 84,
      "hit": false,
      "t": 108606.77083333315,
      "d": 328.125,
      "v": 66
    },
    {
      "midi": 81,
      "hit": false,
      "t": 108950.52083333315,
      "d": 260.4166666666715,
      "v": 63
    },
    {
      "midi": 65,
      "hit": false,
      "t": 109231.77083333315,
      "d": 385.4166666666424,
      "v": 35
    },
    {
      "midi": 55,
      "hit": false,
      "t": 109236.97916666648,
      "d": 468.74999999998545,
      "v": 36
    },
    {
      "midi": 79,
      "hit": false,
      "t": 109242.18749999981,
      "d": 234.37499999998545,
      "v": 48
    },
    {
      "midi": 57,
      "hit": false,
      "t": 109242.18749999981,
      "d": 479.16666666665697,
      "v": 42
    },
    {
      "midi": 60,
      "hit": false,
      "t": 109247.39583333314,
      "d": 359.37499999998545,
      "v": 39
    },
    {
      "midi": 79,
      "hit": false,
      "t": 109591.14583333312,
      "d": 859.3750000000146,
      "v": 50
    },
    {
      "midi": 43,
      "hit": false,
      "t": 110450.52083333314,
      "d": 354.1666666666715,
      "v": 42
    },
    {
      "midi": 36,
      "hit": false,
      "t": 111794.27083333314,
      "d": 281.25,
      "v": 36
    },
    {
      "midi": 90,
      "hit": false,
      "t": 111799.47916666647,
      "d": 484.375,
      "v": 57
    },
    {
      "midi": 52,
      "hit": false,
      "t": 111835.93749999981,
      "d": 432.29166666665697,
      "v": 41
    },
    {
      "midi": 81,
      "hit": false,
      "t": 111856.77083333314,
      "d": 380.2083333333285,
      "v": 31
    },
    {
      "midi": 93,
      "hit": false,
      "t": 112440.10416666647,
      "d": 338.5416666666715,
      "v": 83
    },
    {
      "midi": 90,
      "hit": false,
      "t": 112721.35416666647,
      "d": 177.08333333334303,
      "v": 68
    },
    {
      "midi": 91,
      "hit": false,
      "t": 112966.14583333314,
      "d": 338.5416666666715,
      "v": 75
    },
    {
      "midi": 59,
      "hit": false,
      "t": 113210.93749999981,
      "d": 619.791666666657,
      "v": 36
    },
    {
      "midi": 64,
      "hit": false,
      "t": 113216.14583333314,
      "d": 588.5416666666715,
      "v": 39
    },
    {
      "midi": 60,
      "hit": false,
      "t": 113231.77083333314,
      "d": 578.125,
      "v": 39
    },
    {
      "midi": 89,
      "hit": false,
      "t": 113242.18749999981,
      "d": 390.625,
      "v": 66
    },
    {
      "midi": 88,
      "hit": false,
      "t": 113627.60416666648,
      "d": 203.12499999998545,
      "v": 66
    },
    {
      "midi": 84,
      "hit": false,
      "t": 113861.97916666647,
      "d": 119.79166666667152,
      "v": 63
    },
    {
      "midi": 79,
      "hit": false,
      "t": 114033.85416666647,
      "d": 104.16666666667152,
      "v": 58
    },
    {
      "midi": 77,
      "hit": false,
      "t": 114200.52083333314,
      "d": 156.25,
      "v": 57
    },
    {
      "midi": 76,
      "hit": false,
      "t": 114382.81249999981,
      "d": 109.375,
      "v": 52
    },
    {
      "midi": 65,
      "hit": false,
      "t": 114455.72916666648,
      "d": 380.20833333331393,
      "v": 36
    },
    {
      "midi": 57,
      "hit": false,
      "t": 114455.72916666648,
      "d": 499.9999999999709,
      "v": 36
    },
    {
      "midi": 60,
      "hit": false,
      "t": 114466.14583333315,
      "d": 374.9999999999709,
      "v": 34
    },
    {
      "midi": 55,
      "hit": false,
      "t": 114471.35416666648,
      "d": 484.3749999999709,
      "v": 33
    },
    {
      "midi": 79,
      "hit": false,
      "t": 114565.10416666647,
      "d": 130.20833333332848,
      "v": 49
    },
    {
      "midi": 76,
      "hit": false,
      "t": 114773.4374999998,
      "d": 98.95833333332848,
      "v": 44
    },
    {
      "midi": 77,
      "hit": false,
      "t": 114919.27083333312,
      "d": 104.16666666665697,
      "v": 54
    },
    {
      "midi": 76,
      "hit": false,
      "t": 115127.60416666645,
      "d": 166.66666666667152,
      "v": 62
    },
    {
      "midi": 67,
      "hit": false,
      "t": 115419.27083333312,
      "d": 208.33333333332848,
      "v": 40
    },
    {
      "midi": 71,
      "hit": false,
      "t": 115846.35416666645,
      "d": 1062.4999999999854,
      "v": 54
    },
    {
      "midi": 43,
      "hit": false,
      "t": 115867.18749999978,
      "d": 401.04166666665697,
      "v": 39
    },
    {
      "midi": 53,
      "hit": false,
      "t": 115882.81249999977,
      "d": 494.7916666666715,
      "v": 31
    },
    {
      "midi": 36,
      "hit": false,
      "t": 117216.14583333308,
      "d": 307.29166666665697,
      "v": 41
    },
    {
      "midi": 52,
      "hit": false,
      "t": 117247.39583333308,
      "d": 463.54166666665697,
      "v": 41
    },
    {
      "midi": 59,
      "hit": false,
      "t": 118596.35416666641,
      "d": 864.5833333333139,
      "v": 31
    },
    {
      "midi": 60,
      "hit": false,
      "t": 118611.97916666641,
      "d": 874.9999999999854,
      "v": 37
    },
    {
      "midi": 64,
      "hit": false,
      "t": 118617.18749999974,
      "d": 901.041666666657,
      "v": 27
    },
    {
      "midi": 90,
      "hit": false,
      "t": 118981.77083333307,
      "d": 234.375,
      "v": 57
    },
    {
      "midi": 91,
      "hit": false,
      "t": 119283.8541666664,
      "d": 312.5,
      "v": 81
    },
    {
      "midi": 87,
      "hit": false,
      "t": 119606.77083333307,
      "d": 192.70833333332848,
      "v": 56
    },
    {
      "midi": 89,
      "hit": false,
      "t": 119809.89583333307,
      "d": 177.08333333332848,
      "v": 79
    },
    {
      "midi": 88,
      "hit": false,
      "t": 120002.6041666664,
      "d": 208.33333333331393,
      "v": 70
    },
    {
      "midi": 65,
      "hit": false,
      "t": 120013.02083333307,
      "d": 661.4583333332848,
      "v": 37
    },
    {
      "midi": 60,
      "hit": false,
      "t": 120018.2291666664,
      "d": 635.4166666666279,
      "v": 43
    },
    {
      "midi": 55,
      "hit": false,
      "t": 120018.2291666664,
      "d": 755.2083333332848,
      "v": 36
    },
    {
      "midi": 57,
      "hit": false,
      "t": 120018.2291666664,
      "d": 755.2083333332848,
      "v": 43
    },
    {
      "midi": 84,
      "hit": false,
      "t": 120236.97916666637,
      "d": 177.08333333332848,
      "v": 57
    },
    {
      "midi": 79,
      "hit": false,
      "t": 120445.3124999997,
      "d": 1937.4999999999854,
      "v": 55
    },
    {
      "midi": 43,
      "hit": false,
      "t": 121361.97916666635,
      "d": 625,
      "v": 39
    },
    {
      "midi": 90,
      "hit": false,
      "t": 122210.93749999968,
      "d": 234.375,
      "v": 73
    },
    {
      "midi": 91,
      "hit": false,
      "t": 122497.39583333301,
      "d": 208.33333333332848,
      "v": 75
    },
    {
      "midi": 83,
      "hit": false,
      "t": 122783.85416666634,
      "d": 239.58333333331393,
      "v": 23
    },
    {
      "midi": 36,
      "hit": false,
      "t": 122955.72916666632,
      "d": 364.5833333333285,
      "v": 45
    },
    {
      "midi": 52,
      "hit": false,
      "t": 122986.97916666632,
      "d": 484.375,
      "v": 36
    },
    {
      "midi": 89,
      "hit": false,
      "t": 123023.43749999965,
      "d": 208.33333333334303,
      "v": 74
    },
    {
      "midi": 87,
      "hit": false,
      "t": 123252.60416666632,
      "d": 156.25,
      "v": 59
    },
    {
      "midi": 88,
      "hit": false,
      "t": 123434.895833333,
      "d": 192.70833333332848,
      "v": 57
    },
    {
      "midi": 84,
      "hit": false,
      "t": 123627.60416666632,
      "d": 93.75,
      "v": 57
    },
    {
      "midi": 79,
      "hit": false,
      "t": 123763.020833333,
      "d": 98.95833333332848,
      "v": 51
    },
    {
      "midi": 77,
      "hit": false,
      "t": 123924.47916666632,
      "d": 125,
      "v": 52
    },
    {
      "midi": 76,
      "hit": false,
      "t": 124096.35416666632,
      "d": 62.5,
      "v": 57
    },
    {
      "midi": 81,
      "hit": false,
      "t": 124221.35416666632,
      "d": 156.24999999998545,
      "v": 79
    },
    {
      "midi": 60,
      "hit": false,
      "t": 124330.72916666632,
      "d": 744.7916666666424,
      "v": 41
    },
    {
      "midi": 64,
      "hit": false,
      "t": 124335.93749999965,
      "d": 749.9999999999854,
      "v": 31
    },
    {
      "midi": 59,
      "hit": false,
      "t": 124341.14583333298,
      "d": 713.541666666657,
      "v": 37
    },
    {
      "midi": 76,
      "hit": false,
      "t": 124388.02083333298,
      "d": 114.58333333332848,
      "v": 38
    },
    {
      "midi": 79,
      "hit": false,
      "t": 124544.27083333296,
      "d": 125,
      "v": 56
    },
    {
      "midi": 77,
      "hit": false,
      "t": 124768.2291666663,
      "d": 135.41666666667152,
      "v": 61
    },
    {
      "midi": 76,
      "hit": false,
      "t": 125070.31249999964,
      "d": 88.54166666667152,
      "v": 56
    },
    {
      "midi": 72,
      "hit": false,
      "t": 125294.27083333298,
      "d": 125,
      "v": 34
    },
    {
      "midi": 67,
      "hit": false,
      "t": 125486.97916666631,
      "d": 171.875,
      "v": 54
    },
    {
      "midi": 65,
      "hit": false,
      "t": 125710.93749999964,
      "d": 369.79166666668607,
      "v": 39
    },
    {
      "midi": 69,
      "hit": false,
      "t": 125710.93749999964,
      "d": 937.5000000000146,
      "v": 55
    },
    {
      "midi": 55,
      "hit": false,
      "t": 125731.77083333296,
      "d": 510.41666666668607,
      "v": 35
    },
    {
      "midi": 57,
      "hit": false,
      "t": 125742.18749999964,
      "d": 494.79166666668607,
      "v": 39
    },
    {
      "midi": 60,
      "hit": false,
      "t": 125747.39583333296,
      "d": 333.3333333333576,
      "v": 39
    },
    {
      "midi": 67,
      "hit": false,
      "t": 126669.27083333298,
      "d": 1197.916666666686,
      "v": 45
    },
    {
      "midi": 43,
      "hit": false,
      "t": 127148.43749999965,
      "d": 395.83333333334303,
      "v": 41
    },
    {
      "midi": 71,
      "hit": false,
      "t": 127497.395833333,
      "d": 322.9166666666715,
      "v": 49
    },
    {
      "midi": 74,
      "hit": false,
      "t": 127861.97916666634,
      "d": 2864.583333333343,
      "v": 60
    },
    {
      "midi": 69,
      "hit": false,
      "t": 128429.68749999967,
      "d": 468.75000000001455,
      "v": 57
    },
    {
      "midi": 36,
      "hit": false,
      "t": 128445.31249999967,
      "d": 453.12500000001455,
      "v": 46
    },
    {
      "midi": 52,
      "hit": false,
      "t": 128492.18749999965,
      "d": 526.0416666667006,
      "v": 31
    },
    {
      "midi": 67,
      "hit": false,
      "t": 128872.39583333301,
      "d": 244.79166666667152,
      "v": 44
    },
    {
      "midi": 67,
      "hit": false,
      "t": 129268.22916666635,
      "d": 260.4166666666715,
      "v": 46
    },
    {
      "midi": 64,
      "hit": false,
      "t": 129731.77083333302,
      "d": 666.666666666657,
      "v": 33
    },
    {
      "midi": 67,
      "hit": false,
      "t": 129731.77083333302,
      "d": 697.916666666657,
      "v": 41
    },
    {
      "midi": 59,
      "hit": false,
      "t": 129747.39583333302,
      "d": 666.666666666657,
      "v": 37
    },
    {
      "midi": 60,
      "hit": false,
      "t": 129752.60416666635,
      "d": 640.625,
      "v": 36
    },
    {
      "midi": 55,
      "hit": false,
      "t": 131065.10416666635,
      "d": 458.3333333333867,
      "v": 37
    },
    {
      "midi": 57,
      "hit": false,
      "t": 131091.14583333302,
      "d": 427.08333333337214,
      "v": 39
    },
    {
      "midi": 60,
      "hit": false,
      "t": 131096.35416666637,
      "d": 291.66666666668607,
      "v": 36
    },
    {
      "midi": 65,
      "hit": false,
      "t": 131096.35416666637,
      "d": 291.66666666668607,
      "v": 35
    },
    {
      "midi": 88,
      "hit": false,
      "t": 131669.27083333308,
      "d": 338.54166666665697,
      "v": 84
    },
    {
      "midi": 83,
      "hit": false,
      "t": 131903.64583333308,
      "d": 187.5,
      "v": 68
    },
    {
      "midi": 81,
      "hit": false,
      "t": 132096.35416666642,
      "d": 104.16666666665697,
      "v": 66
    },
    {
      "midi": 86,
      "hit": false,
      "t": 132289.06249999974,
      "d": 192.70833333334303,
      "v": 78
    },
    {
      "midi": 43,
      "hit": false,
      "t": 132351.56249999974,
      "d": 1369.791666666686,
      "v": 44
    },
    {
      "midi": 83,
      "hit": false,
      "t": 132492.18749999977,
      "d": 135.41666666665697,
      "v": 60
    },
    {
      "midi": 79,
      "hit": false,
      "t": 132669.27083333308,
      "d": 145.83333333334303,
      "v": 57
    },
    {
      "midi": 76,
      "hit": false,
      "t": 132893.22916666642,
      "d": 156.25,
      "v": 36
    },
    {
      "midi": 81,
      "hit": false,
      "t": 133106.77083333308,
      "d": 151.04166666665697,
      "v": 64
    },
    {
      "midi": 79,
      "hit": false,
      "t": 133325.52083333308,
      "d": 1119.791666666686,
      "v": 56
    },
    {
      "midi": 36,
      "hit": false,
      "t": 133632.81249999974,
      "d": 296.8750000000291,
      "v": 39
    },
    {
      "midi": 52,
      "hit": false,
      "t": 133653.64583333308,
      "d": 432.29166666668607,
      "v": 36
    },
    {
      "midi": 74,
      "hit": false,
      "t": 134294.2708333331,
      "d": 192.70833333331393,
      "v": 50
    },
    {
      "midi": 72,
      "hit": false,
      "t": 134492.18749999977,
      "d": 343.75,
      "v": 45
    },
    {
      "midi": 64,
      "hit": false,
      "t": 134898.43749999977,
      "d": 572.916666666657,
      "v": 39
    },
    {
      "midi": 60,
      "hit": false,
      "t": 134898.43749999977,
      "d": 588.541666666657,
      "v": 45
    },
    {
      "midi": 59,
      "hit": false,
      "t": 134908.85416666642,
      "d": 625,
      "v": 39
    },
    {
      "midi": 79,
      "hit": false,
      "t": 135289.06249999977,
      "d": 369.79166666665697,
      "v": 67
    },
    {
      "midi": 76,
      "hit": false,
      "t": 135716.14583333308,
      "d": 2369.7916666667734,
      "v": 48
    },
    {
      "midi": 71,
      "hit": false,
      "t": 136096.35416666642,
      "d": 479.16666666668607,
      "v": 59
    },
    {
      "midi": 55,
      "hit": false,
      "t": 136122.39583333308,
      "d": 593.7500000000291,
      "v": 36
    },
    {
      "midi": 60,
      "hit": false,
      "t": 136138.02083333308,
      "d": 447.9166666667152,
      "v": 41
    },
    {
      "midi": 65,
      "hit": false,
      "t": 136143.22916666642,
      "d": 427.08333333334303,
      "v": 26
    },
    {
      "midi": 57,
      "hit": false,
      "t": 136153.6458333331,
      "d": 552.083333333343,
      "v": 40
    },
    {
      "midi": 69,
      "hit": false,
      "t": 136580.72916666645,
      "d": 687.5,
      "v": 41
    },
    {
      "midi": 43,
      "hit": false,
      "t": 137507.8124999998,
      "d": 432.2916666667152,
      "v": 41
    },
    {
      "midi": 69,
      "hit": false,
      "t": 137513.02083333314,
      "d": 625.0000000000582,
      "v": 42
    },
    {
      "midi": 53,
      "hit": false,
      "t": 137539.06249999983,
      "d": 447.91666666668607,
      "v": 32
    },
    {
      "midi": 69,
      "hit": false,
      "t": 138367.18749999985,
      "d": 239.58333333334303,
      "v": 35
    },
    {
      "midi": 36,
      "hit": false,
      "t": 138877.60416666654,
      "d": 479.1666666667152,
      "v": 45
    },
    {
      "midi": 69,
      "hit": false,
      "t": 138888.02083333323,
      "d": 609.3750000000291,
      "v": 45
    },
    {
      "midi": 52,
      "hit": false,
      "t": 138929.6874999999,
      "d": 531.25,
      "v": 36
    },
    {
      "midi": 71,
      "hit": false,
      "t": 139414.0624999999,
      "d": 354.16666666668607,
      "v": 56
    },
    {
      "midi": 67,
      "hit": false,
      "t": 139783.8541666666,
      "d": 322.91666666665697,
      "v": 60
    },
    {
      "midi": 67,
      "hit": false,
      "t": 140252.6041666666,
      "d": 729.1666666666861,
      "v": 58
    },
    {
      "midi": 64,
      "hit": false,
      "t": 140268.2291666666,
      "d": 880.208333333343,
      "v": 32
    },
    {
      "midi": 59,
      "hit": false,
      "t": 140273.43749999994,
      "d": 880.208333333343,
      "v": 36
    },
    {
      "midi": 60,
      "hit": false,
      "t": 140278.64583333328,
      "d": 869.791666666657,
      "v": 39
    },
    {
      "midi": 67,
      "hit": false,
      "t": 141164.06249999994,
      "d": 276.04166666665697,
      "v": 48
    },
    {
      "midi": 67,
      "hit": false,
      "t": 141664.06249999994,
      "d": 1406.2500000000582,
      "v": 48
    },
    {
      "midi": 65,
      "hit": false,
      "t": 141684.89583333328,
      "d": 833.3333333334012,
      "v": 34
    },
    {
      "midi": 55,
      "hit": false,
      "t": 141705.72916666663,
      "d": 1666.6666666667152,
      "v": 27
    },
    {
      "midi": 57,
      "hit": false,
      "t": 141710.93749999997,
      "d": 744.7916666667152,
      "v": 31
    },
    {
      "midi": 60,
      "hit": false,
      "t": 141721.35416666666,
      "d": 854.1666666666861,
      "v": 43
    }
  ]
}