{
  "jsonPath": "Jazz/Cool Jazz/Bill Evans/the-peacocks.json",
  "path": "Jazz\\Cool Jazz\\Bill Evans\\The Peacocks.mid",
  "name": "The Peacocks",
  "difficulty": "Advanced",
  "bpm": 60,
  "notes": [
    {
      "midi": 74,
      "hit": false,
      "t": 4000,
      "d": 483.33333333333394,
      "v": 42
    },
    {
      "midi": 67,
      "hit": false,
      "t": 4016.6666666666665,
      "d": 425.00000000000045,
      "v": 47
    },
    {
      "midi": 55,
      "hit": false,
      "t": 4025,
      "d": 2224.999999999999,
      "v": 34
    },
    {
      "midi": 48,
      "hit": false,
      "t": 4033.3333333333335,
      "d": 950.0000000000005,
      "v": 35
    },
    {
      "midi": 63,
      "hit": false,
      "t": 4083.3333333333335,
      "d": 400.00000000000045,
      "v": 15
    },
    {
      "midi": 77,
      "hit": false,
      "t": 4808.333333333334,
      "d": 591.6666666666661,
      "v": 82
    },
    {
      "midi": 62,
      "hit": false,
      "t": 5366.666666666667,
      "d": 341.66666666666606,
      "v": 27
    },
    {
      "midi": 63,
      "hit": false,
      "t": 5858.333333333333,
      "d": 75,
      "v": 23
    },
    {
      "midi": 74,
      "hit": false,
      "t": 6008.333333333333,
      "d": 83.33333333333303,
      "v": 40
    },
    {
      "midi": 74,
      "hit": false,
      "t": 6166.666666666666,
      "d": 1491.666666666666,
      "v": 32
    },
    {
      "midi": 48,
      "hit": false,
      "t": 6199.999999999999,
      "d": 1566.666666666666,
      "v": 35
    },
    {
      "midi": 68,
      "hit": false,
      "t": 6508.333333333332,
      "d": 1383.333333333333,
      "v": 46
    },
    {
      "midi": 56,
      "hit": false,
      "t": 6541.666666666665,
      "d": 1591.666666666667,
      "v": 27
    },
    {
      "midi": 62,
      "hit": false,
      "t": 7258.333333333332,
      "d": 525,
      "v": 24
    },
    {
      "midi": 75,
      "hit": false,
      "t": 7908.333333333332,
      "d": 175,
      "v": 78
    },
    {
      "midi": 74,
      "hit": false,
      "t": 8141.666666666665,
      "d": 333.33333333333303,
      "v": 67
    },
    {
      "midi": 48,
      "hit": false,
      "t": 8141.666666666665,
      "d": 1725.0000000000027,
      "v": 51
    },
    {
      "midi": 67,
      "hit": false,
      "t": 8474.999999999998,
      "d": 275,
      "v": 36
    },
    {
      "midi": 74,
      "hit": false,
      "t": 8716.666666666664,
      "d": 191.66666666666788,
      "v": 52
    },
    {
      "midi": 67,
      "hit": false,
      "t": 8916.666666666666,
      "d": 283.33333333333394,
      "v": 40
    },
    {
      "midi": 74,
      "hit": false,
      "t": 9141.666666666666,
      "d": 191.66666666666788,
      "v": 46
    },
    {
      "midi": 67,
      "hit": false,
      "t": 9366.666666666668,
      "d": 191.66666666666788,
      "v": 30
    },
    {
      "midi": 74,
      "hit": false,
      "t": 9550.000000000002,
      "d": 150,
      "v": 38
    },
    {
      "midi": 67,
      "hit": false,
      "t": 9716.666666666668,
      "d": 141.66666666666606,
      "v": 36
    },
    {
      "midi": 74,
      "hit": false,
      "t": 9875.000000000002,
      "d": 125,
      "v": 44
    },
    {
      "midi": 67,
      "hit": false,
      "t": 10008.333333333336,
      "d": 75,
      "v": 29
    },
    {
      "midi": 48,
      "hit": false,
      "t": 10166.66666666667,
      "d": 1575.0000000000036,
      "v": 30
    },
    {
      "midi": 74,
      "hit": false,
      "t": 10166.66666666667,
      "d": 1800.0000000000036,
      "v": 38
    },
    {
      "midi": 56,
      "hit": false,
      "t": 10183.333333333336,
      "d": 600.0000000000018,
      "v": 27
    },
    {
      "midi": 60,
      "hit": false,
      "t": 10191.66666666667,
      "d": 550.0000000000018,
      "v": 33
    },
    {
      "midi": 68,
      "hit": false,
      "t": 10408.333333333338,
      "d": 408.33333333333394,
      "v": 43
    },
    {
      "midi": 63,
      "hit": false,
      "t": 11116.666666666672,
      "d": 825.0000000000018,
      "v": 30
    },
    {
      "midi": 56,
      "hit": false,
      "t": 11133.333333333338,
      "d": 541.6666666666679,
      "v": 15
    },
    {
      "midi": 60,
      "hit": false,
      "t": 11141.666666666672,
      "d": 558.3333333333339,
      "v": 24
    },
    {
      "midi": 68,
      "hit": false,
      "t": 11733.33333333334,
      "d": 241.66666666666788,
      "v": 21
    },
    {
      "midi": 56,
      "hit": false,
      "t": 11825.000000000007,
      "d": 183.33333333333394,
      "v": 12
    },
    {
      "midi": 67,
      "hit": false,
      "t": 12083.333333333341,
      "d": 450.0000000000018,
      "v": 39
    },
    {
      "midi": 63,
      "hit": false,
      "t": 12091.666666666675,
      "d": 483.33333333333394,
      "v": 25
    },
    {
      "midi": 55,
      "hit": false,
      "t": 12100.00000000001,
      "d": 1033.333333333334,
      "v": 34
    },
    {
      "midi": 48,
      "hit": false,
      "t": 12108.333333333343,
      "d": 991.6666666666661,
      "v": 35
    },
    {
      "midi": 74,
      "hit": false,
      "t": 12941.666666666675,
      "d": 150,
      "v": 105
    },
    {
      "midi": 77,
      "hit": false,
      "t": 13266.666666666677,
      "d": 2400.000000000002,
      "v": 96
    },
    {
      "midi": 63,
      "hit": false,
      "t": 13658.333333333343,
      "d": 325,
      "v": 37
    },
    {
      "midi": 71,
      "hit": false,
      "t": 13658.333333333343,
      "d": 433.33333333333394,
      "v": 56
    },
    {
      "midi": 59,
      "hit": false,
      "t": 13675.00000000001,
      "d": 300,
      "v": 38
    },
    {
      "midi": 67,
      "hit": false,
      "t": 13683.333333333343,
      "d": 250,
      "v": 25
    },
    {
      "midi": 70,
      "hit": false,
      "t": 14275.000000000011,
      "d": 1583.333333333334,
      "v": 55
    },
    {
      "midi": 61,
      "hit": false,
      "t": 14283.333333333345,
      "d": 600.0000000000018,
      "v": 31
    },
    {
      "midi": 65,
      "hit": false,
      "t": 14291.666666666679,
      "d": 508.33333333333394,
      "v": 30
    },
    {
      "midi": 56,
      "hit": false,
      "t": 14308.333333333345,
      "d": 616.6666666666679,
      "v": 23
    },
    {
      "midi": 60,
      "hit": false,
      "t": 14316.666666666679,
      "d": 516.6666666666679,
      "v": 24
    },
    {
      "midi": 63,
      "hit": false,
      "t": 15166.666666666679,
      "d": 650,
      "v": 32
    },
    {
      "midi": 58,
      "hit": false,
      "t": 15191.666666666679,
      "d": 700,
      "v": 28
    },
    {
      "midi": 59,
      "hit": false,
      "t": 15200.000000000013,
      "d": 641.6666666666661,
      "v": 44
    },
    {
      "midi": 54,
      "hit": false,
      "t": 15208.333333333347,
      "d": 791.6666666666661,
      "v": 35
    },
    {
      "midi": 75,
      "hit": false,
      "t": 15900.000000000013,
      "d": 208.33333333333394,
      "v": 65
    },
    {
      "midi": 55,
      "hit": false,
      "t": 16108.333333333347,
      "d": 1600.0000000000073,
      "v": 43
    },
    {
      "midi": 74,
      "hit": false,
      "t": 16133.333333333347,
      "d": 175.00000000000182,
      "v": 55
    },
    {
      "midi": 62,
      "hit": false,
      "t": 16150.000000000015,
      "d": 741.6666666666679,
      "v": 34
    },
    {
      "midi": 58,
      "hit": false,
      "t": 16150.000000000015,
      "d": 808.3333333333358,
      "v": 23
    },
    {
      "midi": 53,
      "hit": false,
      "t": 16158.333333333348,
      "d": 1533.3333333333376,
      "v": 28
    },
    {
      "midi": 67,
      "hit": false,
      "t": 16341.666666666682,
      "d": 116.66666666666788,
      "v": 30
    },
    {
      "midi": 74,
      "hit": false,
      "t": 16483.33333333335,
      "d": 175,
      "v": 56
    },
    {
      "midi": 67,
      "hit": false,
      "t": 16666.666666666682,
      "d": 116.66666666666788,
      "v": 31
    },
    {
      "midi": 74,
      "hit": false,
      "t": 16833.33333333335,
      "d": 158.33333333333212,
      "v": 47
    },
    {
      "midi": 67,
      "hit": false,
      "t": 17008.33333333335,
      "d": 100,
      "v": 33
    },
    {
      "midi": 62,
      "hit": false,
      "t": 17158.33333333335,
      "d": 533.3333333333358,
      "v": 32
    },
    {
      "midi": 58,
      "hit": false,
      "t": 17175.00000000002,
      "d": 608.3333333333358,
      "v": 28
    },
    {
      "midi": 74,
      "hit": false,
      "t": 17175.00000000002,
      "d": 1116.6666666666679,
      "v": 43
    },
    {
      "midi": 63,
      "hit": false,
      "t": 18075.000000000022,
      "d": 1349.9999999999964,
      "v": 30
    },
    {
      "midi": 52,
      "hit": false,
      "t": 18091.666666666686,
      "d": 1791.6666666666606,
      "v": 29
    },
    {
      "midi": 58,
      "hit": false,
      "t": 18091.666666666686,
      "d": 1891.6666666666606,
      "v": 25
    },
    {
      "midi": 56,
      "hit": false,
      "t": 18116.666666666686,
      "d": 1974.9999999999964,
      "v": 18
    },
    {
      "midi": 87,
      "hit": false,
      "t": 18666.666666666686,
      "d": 500,
      "v": 82
    },
    {
      "midi": 85,
      "hit": false,
      "t": 19100.00000000002,
      "d": 233.33333333333576,
      "v": 46
    },
    {
      "midi": 82,
      "hit": false,
      "t": 19258.333333333354,
      "d": 108.33333333333212,
      "v": 25
    },
    {
      "midi": 80,
      "hit": false,
      "t": 19316.666666666686,
      "d": 108.33333333333212,
      "v": 39
    },
    {
      "midi": 76,
      "hit": false,
      "t": 19483.33333333335,
      "d": 58.33333333333212,
      "v": 24
    },
    {
      "midi": 75,
      "hit": false,
      "t": 19700.000000000015,
      "d": 116.66666666666788,
      "v": 52
    },
    {
      "midi": 63,
      "hit": false,
      "t": 19716.666666666682,
      "d": 333.3333333333321,
      "v": 26
    },
    {
      "midi": 73,
      "hit": false,
      "t": 19875.000000000015,
      "d": 91.66666666666424,
      "v": 31
    },
    {
      "midi": 72,
      "hit": false,
      "t": 20025.000000000015,
      "d": 50,
      "v": 35
    },
    {
      "midi": 70,
      "hit": false,
      "t": 20150.000000000015,
      "d": 149.99999999999636,
      "v": 45
    },
    {
      "midi": 63,
      "hit": false,
      "t": 20183.333333333347,
      "d": 1275,
      "v": 23
    },
    {
      "midi": 60,
      "hit": false,
      "t": 20208.333333333347,
      "d": 1708.3333333333321,
      "v": 35
    },
    {
      "midi": 53,
      "hit": false,
      "t": 20241.66666666668,
      "d": 1625,
      "v": 17
    },
    {
      "midi": 68,
      "hit": false,
      "t": 20316.66666666668,
      "d": 125,
      "v": 31
    },
    {
      "midi": 70,
      "hit": false,
      "t": 20625.00000000001,
      "d": 308.3333333333321,
      "v": 43
    },
    {
      "midi": 67,
      "hit": false,
      "t": 20925.00000000001,
      "d": 133.33333333333212,
      "v": 41
    },
    {
      "midi": 70,
      "hit": false,
      "t": 21100.00000000001,
      "d": 241.66666666666788,
      "v": 78
    },
    {
      "midi": 65,
      "hit": false,
      "t": 21300.00000000001,
      "d": 116.66666666666788,
      "v": 58
    },
    {
      "midi": 67,
      "hit": false,
      "t": 21466.66666666668,
      "d": 275,
      "v": 66
    },
    {
      "midi": 56,
      "hit": false,
      "t": 21525.00000000001,
      "d": 408.33333333333576,
      "v": 1
    },
    {
      "midi": 63,
      "hit": false,
      "t": 21625.00000000001,
      "d": 116.66666666666788,
      "v": 56
    },
    {
      "midi": 65,
      "hit": false,
      "t": 21783.333333333347,
      "d": 150,
      "v": 67
    },
    {
      "midi": 62,
      "hit": false,
      "t": 21966.66666666668,
      "d": 1008.3333333333321,
      "v": 37
    },
    {
      "midi": 60,
      "hit": false,
      "t": 22200.00000000001,
      "d": 633.3333333333321,
      "v": 24
    },
    {
      "midi": 56,
      "hit": false,
      "t": 22200.00000000001,
      "d": 1524.9999999999964,
      "v": 25
    },
    {
      "midi": 53,
      "hit": false,
      "t": 22208.333333333343,
      "d": 1508.3333333333321,
      "v": 22
    },
    {
      "midi": 60,
      "hit": false,
      "t": 23083.333333333343,
      "d": 283.3333333333321,
      "v": 29
    },
    {
      "midi": 60,
      "hit": false,
      "t": 23816.666666666675,
      "d": 41.66666666666788,
      "v": 54
    },
    {
      "midi": 53,
      "hit": false,
      "t": 24033.333333333343,
      "d": 1633.3333333333358,
      "v": 32
    },
    {
      "midi": 60,
      "hit": false,
      "t": 24033.333333333343,
      "d": 1741.6666666666715,
      "v": 37
    },
    {
      "midi": 63,
      "hit": false,
      "t": 24041.666666666675,
      "d": 866.6666666666679,
      "v": 21
    },
    {
      "midi": 56,
      "hit": false,
      "t": 24050.000000000007,
      "d": 1816.6666666666752,
      "v": 27
    },
    {
      "midi": 67,
      "hit": false,
      "t": 24691.666666666675,
      "d": 216.66666666666788,
      "v": 113
    },
    {
      "midi": 70,
      "hit": false,
      "t": 24950.00000000001,
      "d": 216.66666666666788,
      "v": 87
    },
    {
      "midi": 63,
      "hit": false,
      "t": 25191.66666666668,
      "d": 516.6666666666679,
      "v": 34
    },
    {
      "midi": 65,
      "hit": false,
      "t": 25200.00000000001,
      "d": 191.66666666666788,
      "v": 82
    },
    {
      "midi": 67,
      "hit": false,
      "t": 25375.00000000001,
      "d": 150,
      "v": 74
    },
    {
      "midi": 65,
      "hit": false,
      "t": 25733.333333333347,
      "d": 2141.666666666668,
      "v": 59
    },
    {
      "midi": 62,
      "hit": false,
      "t": 25941.666666666682,
      "d": 700,
      "v": 55
    },
    {
      "midi": 60,
      "hit": false,
      "t": 27533.33333333335,
      "d": 308.3333333333321,
      "v": 57
    },
    {
      "midi": 56,
      "hit": false,
      "t": 27541.666666666682,
      "d": 258.3333333333321,
      "v": 33
    },
    {
      "midi": 51,
      "hit": false,
      "t": 27558.33333333335,
      "d": 358.3333333333321,
      "v": 30
    },
    {
      "midi": 54,
      "hit": false,
      "t": 28058.33333333335,
      "d": 258.3333333333321,
      "v": 26
    },
    {
      "midi": 60,
      "hit": false,
      "t": 28058.33333333335,
      "d": 441.66666666666424,
      "v": 46
    },
    {
      "midi": 50,
      "hit": false,
      "t": 28066.666666666682,
      "d": 1649.9999999999964,
      "v": 30
    },
    {
      "midi": 60,
      "hit": false,
      "t": 28883.333333333347,
      "d": 841.6666666666642,
      "v": 51
    },
    {
      "midi": 62,
      "hit": false,
      "t": 29333.333333333347,
      "d": 125,
      "v": 47
    },
    {
      "midi": 63,
      "hit": false,
      "t": 29483.333333333347,
      "d": 58.33333333333212,
      "v": 60
    },
    {
      "midi": 65,
      "hit": false,
      "t": 29591.66666666668,
      "d": 125,
      "v": 74
    },
    {
      "midi": 67,
      "hit": false,
      "t": 29708.333333333347,
      "d": 133.33333333333212,
      "v": 77
    },
    {
      "midi": 68,
      "hit": false,
      "t": 29816.66666666668,
      "d": 108.33333333333212,
      "v": 74
    },
    {
      "midi": 70,
      "hit": false,
      "t": 29925.00000000001,
      "d": 50,
      "v": 57
    },
    {
      "midi": 72,
      "hit": false,
      "t": 30000.00000000001,
      "d": 108.33333333333212,
      "v": 66
    },
    {
      "midi": 74,
      "hit": false,
      "t": 30100.00000000001,
      "d": 108.33333333333212,
      "v": 62
    },
    {
      "midi": 75,
      "hit": false,
      "t": 30200.00000000001,
      "d": 58.33333333333212,
      "v": 71
    },
    {
      "midi": 77,
      "hit": false,
      "t": 30291.666666666675,
      "d": 125,
      "v": 40
    },
    {
      "midi": 79,
      "hit": false,
      "t": 30408.333333333343,
      "d": 116.66666666666788,
      "v": 44
    },
    {
      "midi": 80,
      "hit": false,
      "t": 30508.333333333343,
      "d": 83.33333333333576,
      "v": 63
    },
    {
      "midi": 59,
      "hit": false,
      "t": 30608.333333333347,
      "d": 991.6666666666679,
      "v": 40
    },
    {
      "midi": 64,
      "hit": false,
      "t": 30616.66666666668,
      "d": 966.6666666666679,
      "v": 46
    },
    {
      "midi": 82,
      "hit": false,
      "t": 30616.66666666668,
      "d": 1208.3333333333358,
      "v": 78
    },
    {
      "midi": 53,
      "hit": false,
      "t": 30633.333333333347,
      "d": 1016.6666666666679,
      "v": 39
    },
    {
      "midi": 80,
      "hit": false,
      "t": 31825.000000000015,
      "d": 216.66666666666788,
      "v": 52
    },
    {
      "midi": 79,
      "hit": false,
      "t": 32075.000000000015,
      "d": 1741.6666666666642,
      "v": 41
    },
    {
      "midi": 51,
      "hit": false,
      "t": 32091.666666666682,
      "d": 1566.6666666666606,
      "v": 25
    },
    {
      "midi": 57,
      "hit": false,
      "t": 32100.000000000015,
      "d": 575,
      "v": 33
    },
    {
      "midi": 62,
      "hit": false,
      "t": 32116.666666666682,
      "d": 600,
      "v": 10
    },
    {
      "midi": 55,
      "hit": false,
      "t": 32125.000000000015,
      "d": 633.3333333333358,
      "v": 18
    },
    {
      "midi": 62,
      "hit": false,
      "t": 33125.000000000015,
      "d": 608.3333333333285,
      "v": 29
    },
    {
      "midi": 59,
      "hit": false,
      "t": 33141.66666666668,
      "d": 475,
      "v": 25
    },
    {
      "midi": 55,
      "hit": false,
      "t": 33150.000000000015,
      "d": 483.3333333333285,
      "v": 22
    },
    {
      "midi": 67,
      "hit": false,
      "t": 33858.33333333334,
      "d": 33.33333333333576,
      "v": 40
    },
    {
      "midi": 82,
      "hit": false,
      "t": 34100.000000000015,
      "d": 475.0000000000073,
      "v": 56
    },
    {
      "midi": 79,
      "hit": false,
      "t": 34133.33333333335,
      "d": 416.6666666666715,
      "v": 56
    },
    {
      "midi": 59,
      "hit": false,
      "t": 34141.666666666686,
      "d": 758.333333333343,
      "v": 36
    },
    {
      "midi": 64,
      "hit": false,
      "t": 34166.666666666686,
      "d": 641.6666666666715,
      "v": 44
    },
    {
      "midi": 75,
      "hit": false,
      "t": 34175.00000000002,
      "d": 433.33333333333576,
      "v": 58
    },
    {
      "midi": 53,
      "hit": false,
      "t": 34175.00000000002,
      "d": 691.6666666666715,
      "v": 35
    },
    {
      "midi": 70,
      "hit": false,
      "t": 34200.00000000002,
      "d": 358.33333333333576,
      "v": 39
    },
    {
      "midi": 80,
      "hit": false,
      "t": 34650.00000000002,
      "d": 275.0000000000073,
      "v": 42
    },
    {
      "midi": 75,
      "hit": false,
      "t": 34675.00000000002,
      "d": 200.00000000000728,
      "v": 42
    },
    {
      "midi": 68,
      "hit": false,
      "t": 34683.33333333336,
      "d": 233.33333333333576,
      "v": 35
    },
    {
      "midi": 59,
      "hit": false,
      "t": 35150.00000000003,
      "d": 416.6666666666715,
      "v": 34
    },
    {
      "midi": 75,
      "hit": false,
      "t": 35150.00000000003,
      "d": 566.6666666666715,
      "v": 26
    },
    {
      "midi": 67,
      "hit": false,
      "t": 35150.00000000003,
      "d": 608.3333333333358,
      "v": 28
    },
    {
      "midi": 79,
      "hit": false,
      "t": 35150.00000000003,
      "d": 650,
      "v": 36
    },
    {
      "midi": 63,
      "hit": false,
      "t": 35158.333333333365,
      "d": 475,
      "v": 29
    },
    {
      "midi": 71,
      "hit": false,
      "t": 35166.6666666667,
      "d": 450,
      "v": 37
    },
    {
      "midi": 53,
      "hit": false,
      "t": 35191.6666666667,
      "d": 350,
      "v": 20
    },
    {
      "midi": 71,
      "hit": false,
      "t": 35933.333333333365,
      "d": 125,
      "v": 32
    },
    {
      "midi": 67,
      "hit": false,
      "t": 36125.00000000003,
      "d": 625.0000000000073,
      "v": 29
    },
    {
      "midi": 63,
      "hit": false,
      "t": 36125.00000000003,
      "d": 650.0000000000073,
      "v": 23
    },
    {
      "midi": 62,
      "hit": false,
      "t": 36133.333333333365,
      "d": 575.0000000000073,
      "v": 28
    },
    {
      "midi": 60,
      "hit": false,
      "t": 36141.6666666667,
      "d": 1108.3333333333358,
      "v": 32
    },
    {
      "midi": 74,
      "hit": false,
      "t": 36150.00000000004,
      "d": 241.66666666667152,
      "v": 40
    },
    {
      "midi": 77,
      "hit": false,
      "t": 36400.000000000044,
      "d": 2375,
      "v": 50
    },
    {
      "midi": 67,
      "hit": false,
      "t": 37050.00000000004,
      "d": 125,
      "v": 30
    },
    {
      "midi": 63,
      "hit": false,
      "t": 37050.00000000004,
      "d": 141.66666666666424,
      "v": 26
    },
    {
      "midi": 62,
      "hit": false,
      "t": 37058.33333333337,
      "d": 116.66666666666424,
      "v": 29
    },
    {
      "midi": 55,
      "hit": false,
      "t": 37816.6666666667,
      "d": 100,
      "v": 24
    },
    {
      "midi": 56,
      "hit": false,
      "t": 38016.6666666667,
      "d": 658.333333333343,
      "v": 33
    },
    {
      "midi": 51,
      "hit": false,
      "t": 38025.00000000004,
      "d": 1800.0000000000073,
      "v": 42
    },
    {
      "midi": 48,
      "hit": false,
      "t": 38050.00000000004,
      "d": 1883.3333333333358,
      "v": 38
    },
    {
      "midi": 75,
      "hit": false,
      "t": 39475.000000000044,
      "d": 366.66666666666424,
      "v": 92
    },
    {
      "midi": 74,
      "hit": false,
      "t": 39983.33333333337,
      "d": 333.33333333334303,
      "v": 55
    },
    {
      "midi": 63,
      "hit": false,
      "t": 39991.66666666671,
      "d": 608.3333333333358,
      "v": 44
    },
    {
      "midi": 55,
      "hit": false,
      "t": 40000.000000000044,
      "d": 700,
      "v": 33
    },
    {
      "midi": 48,
      "hit": false,
      "t": 40016.66666666671,
      "d": 425.0000000000073,
      "v": 8
    },
    {
      "midi": 67,
      "hit": false,
      "t": 40025.000000000044,
      "d": 108.33333333333576,
      "v": 27
    },
    {
      "midi": 67,
      "hit": false,
      "t": 40325.00000000005,
      "d": 283.3333333333285,
      "v": 39
    },
    {
      "midi": 74,
      "hit": false,
      "t": 40558.33333333338,
      "d": 216.66666666666424,
      "v": 51
    },
    {
      "midi": 63,
      "hit": false,
      "t": 40783.33333333338,
      "d": 241.66666666666424,
      "v": 23
    },
    {
      "midi": 74,
      "hit": false,
      "t": 41000.000000000044,
      "d": 208.33333333332848,
      "v": 35
    },
    {
      "midi": 62,
      "hit": false,
      "t": 41050.000000000044,
      "d": 516.6666666666642,
      "v": 40
    },
    {
      "midi": 63,
      "hit": false,
      "t": 41191.66666666671,
      "d": 433.33333333333576,
      "v": 27
    },
    {
      "midi": 67,
      "hit": false,
      "t": 41375.00000000004,
      "d": 325.0000000000073,
      "v": 39
    },
    {
      "midi": 74,
      "hit": false,
      "t": 41558.33333333337,
      "d": 258.33333333334303,
      "v": 60
    },
    {
      "midi": 63,
      "hit": false,
      "t": 41733.33333333338,
      "d": 458.33333333333576,
      "v": 34
    },
    {
      "midi": 67,
      "hit": false,
      "t": 41900.00000000005,
      "d": 141.66666666666424,
      "v": 40
    },
    {
      "midi": 74,
      "hit": false,
      "t": 42058.33333333338,
      "d": 1483.3333333333285,
      "v": 48
    },
    {
      "midi": 56,
      "hit": false,
      "t": 42075.000000000044,
      "d": 816.6666666666642,
      "v": 25
    },
    {
      "midi": 48,
      "hit": false,
      "t": 42108.33333333338,
      "d": 1433.3333333333285,
      "v": 26
    },
    {
      "midi": 63,
      "hit": false,
      "t": 42258.33333333338,
      "d": 649.9999999999927,
      "v": 28
    },
    {
      "midi": 68,
      "hit": false,
      "t": 42275.000000000044,
      "d": 500,
      "v": 50
    },
    {
      "midi": 68,
      "hit": false,
      "t": 43533.33333333337,
      "d": 458.33333333333576,
      "v": 40
    },
    {
      "midi": 63,
      "hit": false,
      "t": 43616.66666666671,
      "d": 300,
      "v": 3
    },
    {
      "midi": 67,
      "hit": false,
      "t": 44058.33333333337,
      "d": 241.66666666666424,
      "v": 47
    },
    {
      "midi": 48,
      "hit": false,
      "t": 44066.66666666671,
      "d": 658.3333333333285,
      "v": 27
    },
    {
      "midi": 55,
      "hit": false,
      "t": 44066.66666666671,
      "d": 691.6666666666642,
      "v": 30
    },
    {
      "midi": 60,
      "hit": false,
      "t": 44083.33333333337,
      "d": 708.3333333333358,
      "v": 24
    },
    {
      "midi": 74,
      "hit": false,
      "t": 44316.6666666667,
      "d": 83.33333333333576,
      "v": 43
    },
    {
      "midi": 77,
      "hit": false,
      "t": 44566.6666666667,
      "d": 225.00000000000728,
      "v": 80
    },
    {
      "midi": 77,
      "hit": false,
      "t": 44841.66666666671,
      "d": 166.66666666666424,
      "v": 63
    },
    {
      "midi": 77,
      "hit": false,
      "t": 45100.00000000004,
      "d": 2800.000000000022,
      "v": 46
    },
    {
      "midi": 71,
      "hit": false,
      "t": 45125.00000000004,
      "d": 833.3333333333358,
      "v": 46
    },
    {
      "midi": 67,
      "hit": false,
      "t": 45133.33333333337,
      "d": 50,
      "v": 24
    },
    {
      "midi": 59,
      "hit": false,
      "t": 45133.33333333337,
      "d": 400,
      "v": 31
    },
    {
      "midi": 67,
      "hit": false,
      "t": 46116.66666666671,
      "d": 500.0000000000073,
      "v": 58
    },
    {
      "midi": 62,
      "hit": false,
      "t": 46125.000000000044,
      "d": 383.33333333333576,
      "v": 50
    },
    {
      "midi": 58,
      "hit": false,
      "t": 46125.000000000044,
      "d": 583.3333333333358,
      "v": 49
    },
    {
      "midi": 63,
      "hit": false,
      "t": 46133.33333333338,
      "d": 533.3333333333358,
      "v": 46
    },
    {
      "midi": 63,
      "hit": false,
      "t": 47591.666666666715,
      "d": 316.6666666666788,
      "v": 42
    },
    {
      "midi": 58,
      "hit": false,
      "t": 47616.666666666715,
      "d": 275.0000000000073,
      "v": 34
    },
    {
      "midi": 59,
      "hit": false,
      "t": 47625.00000000005,
      "d": 183.33333333333576,
      "v": 36
    },
    {
      "midi": 54,
      "hit": false,
      "t": 47633.33333333339,
      "d": 391.6666666666715,
      "v": 23
    },
    {
      "midi": 74,
      "hit": false,
      "t": 48091.66666666672,
      "d": 300,
      "v": 43
    },
    {
      "midi": 55,
      "hit": false,
      "t": 48108.33333333339,
      "d": 675,
      "v": 38
    },
    {
      "midi": 62,
      "hit": false,
      "t": 48108.33333333339,
      "d": 750,
      "v": 33
    },
    {
      "midi": 58,
      "hit": false,
      "t": 48116.66666666672,
      "d": 733.3333333333285,
      "v": 28
    },
    {
      "midi": 53,
      "hit": false,
      "t": 48133.33333333339,
      "d": 1533.3333333333358,
      "v": 29
    },
    {
      "midi": 67,
      "hit": false,
      "t": 48358.33333333339,
      "d": 1633.3333333333358,
      "v": 22
    },
    {
      "midi": 74,
      "hit": false,
      "t": 48566.66666666672,
      "d": 1358.3333333333358,
      "v": 40
    },
    {
      "midi": 62,
      "hit": false,
      "t": 49125.00000000005,
      "d": 508.33333333333576,
      "v": 26
    },
    {
      "midi": 55,
      "hit": false,
      "t": 49125.00000000005,
      "d": 533.3333333333358,
      "v": 27
    },
    {
      "midi": 58,
      "hit": false,
      "t": 49125.00000000005,
      "d": 800.0000000000073,
      "v": 28
    },
    {
      "midi": 67,
      "hit": false,
      "t": 50050.00000000006,
      "d": 225,
      "v": 48
    },
    {
      "midi": 63,
      "hit": false,
      "t": 50075.00000000006,
      "d": 900,
      "v": 38
    },
    {
      "midi": 58,
      "hit": false,
      "t": 50108.333333333394,
      "d": 1558.3333333333285,
      "v": 23
    },
    {
      "midi": 52,
      "hit": false,
      "t": 50133.333333333394,
      "d": 1466.6666666666642,
      "v": 36
    },
    {
      "midi": 74,
      "hit": false,
      "t": 50350.00000000006,
      "d": 2508.3333333333358,
      "v": 71
    },
    {
      "midi": 67,
      "hit": false,
      "t": 50700.00000000006,
      "d": 1058.3333333333285,
      "v": 16
    },
    {
      "midi": 63,
      "hit": false,
      "t": 51108.333333333394,
      "d": 624.9999999999927,
      "v": 31
    },
    {
      "midi": 63,
      "hit": false,
      "t": 52016.66666666672,
      "d": 641.6666666666715,
      "v": 25
    },
    {
      "midi": 68,
      "hit": false,
      "t": 52025.00000000006,
      "d": 1000,
      "v": 31
    },
    {
      "midi": 65,
      "hit": false,
      "t": 52025.00000000006,
      "d": 1016.6666666666642,
      "v": 34
    },
    {
      "midi": 60,
      "hit": false,
      "t": 52050.00000000006,
      "d": 558.3333333333358,
      "v": 36
    },
    {
      "midi": 56,
      "hit": false,
      "t": 52075.00000000006,
      "d": 641.6666666666715,
      "v": 19
    },
    {
      "midi": 53,
      "hit": false,
      "t": 52083.333333333394,
      "d": 3883.3333333333285,
      "v": 17
    },
    {
      "midi": 63,
      "hit": false,
      "t": 53041.66666666672,
      "d": 741.6666666666715,
      "v": 29
    },
    {
      "midi": 60,
      "hit": false,
      "t": 53066.66666666672,
      "d": 825.0000000000073,
      "v": 31
    },
    {
      "midi": 56,
      "hit": false,
      "t": 53091.66666666672,
      "d": 1841.6666666666642,
      "v": 18
    },
    {
      "midi": 67,
      "hit": false,
      "t": 53258.33333333339,
      "d": 133.33333333333576,
      "v": 77
    },
    {
      "midi": 70,
      "hit": false,
      "t": 53425.00000000006,
      "d": 150,
      "v": 82
    },
    {
      "midi": 65,
      "hit": false,
      "t": 53616.66666666672,
      "d": 108.33333333333576,
      "v": 84
    },
    {
      "midi": 67,
      "hit": false,
      "t": 53750.00000000006,
      "d": 158.33333333333576,
      "v": 77
    },
    {
      "midi": 63,
      "hit": false,
      "t": 53916.66666666673,
      "d": 141.66666666666424,
      "v": 64
    },
    {
      "midi": 60,
      "hit": false,
      "t": 53991.66666666673,
      "d": 383.33333333333576,
      "v": 17
    },
    {
      "midi": 65,
      "hit": false,
      "t": 54091.66666666673,
      "d": 133.33333333332848,
      "v": 58
    },
    {
      "midi": 62,
      "hit": false,
      "t": 54283.333333333394,
      "d": 183.33333333333576,
      "v": 55
    },
    {
      "midi": 60,
      "hit": false,
      "t": 54658.333333333394,
      "d": 141.66666666666424,
      "v": 27
    },
    {
      "midi": 79,
      "hit": false,
      "t": 54891.66666666672,
      "d": 200,
      "v": 63
    },
    {
      "midi": 72,
      "hit": false,
      "t": 54916.66666666672,
      "d": 408.33333333333576,
      "v": 42
    },
    {
      "midi": 68,
      "hit": false,
      "t": 54941.66666666672,
      "d": 466.66666666666424,
      "v": 32
    },
    {
      "midi": 64,
      "hit": false,
      "t": 54966.66666666672,
      "d": 91.66666666666424,
      "v": 36
    },
    {
      "midi": 77,
      "hit": false,
      "t": 55158.333333333394,
      "d": 183.33333333332848,
      "v": 48
    },
    {
      "midi": 63,
      "hit": false,
      "t": 55191.66666666673,
      "d": 558.3333333333212,
      "v": 23
    },
    {
      "midi": 72,
      "hit": false,
      "t": 55833.33333333339,
      "d": 133.33333333333576,
      "v": 51
    },
    {
      "midi": 63,
      "hit": false,
      "t": 56066.66666666672,
      "d": 408.33333333333576,
      "v": 20
    },
    {
      "midi": 60,
      "hit": false,
      "t": 56066.66666666672,
      "d": 666.6666666666715,
      "v": 1
    },
    {
      "midi": 72,
      "hit": false,
      "t": 56075.00000000006,
      "d": 341.66666666666424,
      "v": 39
    },
    {
      "midi": 56,
      "hit": false,
      "t": 56091.66666666672,
      "d": 683.3333333333358,
      "v": 32
    },
    {
      "midi": 53,
      "hit": false,
      "t": 56116.66666666672,
      "d": 1816.6666666666715,
      "v": 14
    },
    {
      "midi": 65,
      "hit": false,
      "t": 56425.00000000006,
      "d": 50,
      "v": 32
    },
    {
      "midi": 79,
      "hit": false,
      "t": 56800.00000000006,
      "d": 116.66666666666424,
      "v": 49
    },
    {
      "midi": 82,
      "hit": false,
      "t": 56958.33333333339,
      "d": 141.66666666667152,
      "v": 80
    },
    {
      "midi": 63,
      "hit": false,
      "t": 57008.33333333339,
      "d": 566.6666666666715,
      "v": 25
    },
    {
      "midi": 60,
      "hit": false,
      "t": 57025.00000000005,
      "d": 875.0000000000073,
      "v": 34
    },
    {
      "midi": 56,
      "hit": false,
      "t": 57033.33333333339,
      "d": 908.333333333343,
      "v": 23
    },
    {
      "midi": 77,
      "hit": false,
      "t": 57141.66666666672,
      "d": 133.33333333333576,
      "v": 69
    },
    {
      "midi": 79,
      "hit": false,
      "t": 57316.66666666672,
      "d": 133.33333333333576,
      "v": 80
    },
    {
      "midi": 75,
      "hit": false,
      "t": 57491.66666666672,
      "d": 166.66666666667152,
      "v": 67
    },
    {
      "midi": 77,
      "hit": false,
      "t": 57675.00000000006,
      "d": 350.0000000000073,
      "v": 68
    },
    {
      "midi": 74,
      "hit": false,
      "t": 58066.66666666673,
      "d": 1883.333333333343,
      "v": 50
    },
    {
      "midi": 60,
      "hit": false,
      "t": 58075.000000000065,
      "d": 575,
      "v": 30
    },
    {
      "midi": 56,
      "hit": false,
      "t": 58083.3333333334,
      "d": 1516.6666666666715,
      "v": 21
    },
    {
      "midi": 53,
      "hit": false,
      "t": 58108.3333333334,
      "d": 425,
      "v": 13
    },
    {
      "midi": 65,
      "hit": false,
      "t": 59058.3333333334,
      "d": 858.3333333333358,
      "v": 31
    },
    {
      "midi": 68,
      "hit": false,
      "t": 59058.3333333334,
      "d": 891.6666666666715,
      "v": 33
    },
    {
      "midi": 60,
      "hit": false,
      "t": 59066.66666666674,
      "d": 758.3333333333358,
      "v": 34
    },
    {
      "midi": 51,
      "hit": false,
      "t": 59075.00000000007,
      "d": 600,
      "v": 27
    },
    {
      "midi": 60,
      "hit": false,
      "t": 60050.00000000007,
      "d": 291.66666666666424,
      "v": 42
    },
    {
      "midi": 56,
      "hit": false,
      "t": 60058.33333333341,
      "d": 658.3333333333285,
      "v": 30
    },
    {
      "midi": 50,
      "hit": false,
      "t": 60058.33333333341,
      "d": 1658.3333333333285,
      "v": 30
    },
    {
      "midi": 56,
      "hit": false,
      "t": 61025.00000000007,
      "d": 758.3333333333285,
      "v": 25
    },
    {
      "midi": 60,
      "hit": false,
      "t": 61208.3333333334,
      "d": 116.66666666666424,
      "v": 62
    },
    {
      "midi": 62,
      "hit": false,
      "t": 61358.3333333334,
      "d": 166.66666666666424,
      "v": 76
    },
    {
      "midi": 63,
      "hit": false,
      "t": 61575.000000000065,
      "d": 133.33333333333576,
      "v": 71
    },
    {
      "midi": 65,
      "hit": false,
      "t": 61741.66666666674,
      "d": 100,
      "v": 71
    },
    {
      "midi": 67,
      "hit": false,
      "t": 61900.00000000007,
      "d": 91.66666666666424,
      "v": 69
    },
    {
      "midi": 68,
      "hit": false,
      "t": 62066.66666666674,
      "d": 141.66666666666424,
      "v": 71
    },
    {
      "midi": 59,
      "hit": false,
      "t": 62108.3333333334,
      "d": 250,
      "v": 30
    },
    {
      "midi": 64,
      "hit": false,
      "t": 62116.66666666674,
      "d": 225,
      "v": 26
    },
    {
      "midi": 53,
      "hit": false,
      "t": 62158.3333333334,
      "d": 250,
      "v": 16
    },
    {
      "midi": 70,
      "hit": false,
      "t": 62291.66666666674,
      "d": 766.6666666666642,
      "v": 60
    },
    {
      "midi": 63,
      "hit": false,
      "t": 62666.66666666674,
      "d": 966.666666666657,
      "v": 37
    },
    {
      "midi": 59,
      "hit": false,
      "t": 62691.66666666674,
      "d": 1133.3333333333285,
      "v": 19
    },
    {
      "midi": 53,
      "hit": false,
      "t": 62708.3333333334,
      "d": 1141.6666666666642,
      "v": 29
    },
    {
      "midi": 43,
      "hit": false,
      "t": 63100.000000000065,
      "d": 466.66666666666424,
      "v": 30
    },
    {
      "midi": 62,
      "hit": false,
      "t": 63766.66666666673,
      "d": 150,
      "v": 34
    },
    {
      "midi": 67,
      "hit": false,
      "t": 63950.000000000065,
      "d": 175,
      "v": 72
    },
    {
      "midi": 55,
      "hit": false,
      "t": 64141.66666666673,
      "d": 900,
      "v": 28
    },
    {
      "midi": 48,
      "hit": false,
      "t": 64166.66666666673,
      "d": 3291.666666666657,
      "v": 22
    },
    {
      "midi": 58,
      "hit": false,
      "t": 64175.000000000065,
      "d": 666.6666666666642,
      "v": 11
    },
    {
      "midi": 67,
      "hit": false,
      "t": 64191.66666666673,
      "d": 191.66666666666424,
      "v": 59
    },
    {
      "midi": 62,
      "hit": false,
      "t": 64383.333333333394,
      "d": 91.66666666666424,
      "v": 36
    },
    {
      "midi": 65,
      "hit": false,
      "t": 64525.00000000006,
      "d": 108.33333333333576,
      "v": 56
    },
    {
      "midi": 55,
      "hit": false,
      "t": 65150.000000000065,
      "d": 208.33333333333576,
      "v": 48
    },
    {
      "midi": 60,
      "hit": false,
      "t": 65441.66666666674,
      "d": 91.66666666666424,
      "v": 48
    },
    {
      "midi": 63,
      "hit": false,
      "t": 65658.3333333334,
      "d": 33.33333333332848,
      "v": 42
    },
    {
      "midi": 67,
      "hit": false,
      "t": 65916.66666666673,
      "d": 66.66666666665697,
      "v": 29
    },
    {
      "midi": 69,
      "hit": false,
      "t": 65925.00000000006,
      "d": 33.33333333332848,
      "v": 24
    },
    {
      "midi": 74,
      "hit": false,
      "t": 66125.00000000006,
      "d": 783.333333333343,
      "v": 55
    },
    {
      "midi": 63,
      "hit": false,
      "t": 66141.66666666673,
      "d": 600,
      "v": 37
    },
    {
      "midi": 67,
      "hit": false,
      "t": 66141.66666666673,
      "d": 700,
      "v": 49
    },
    {
      "midi": 59,
      "hit": false,
      "t": 66166.66666666673,
      "d": 525,
      "v": 24
    },
    {
      "midi": 63,
      "hit": false,
      "t": 67041.66666666673,
      "d": 91.66666666665697,
      "v": 26
    },
    {
      "midi": 58,
      "hit": false,
      "t": 67050.00000000006,
      "d": 408.3333333333285,
      "v": 21
    },
    {
      "midi": 72,
      "hit": false,
      "t": 67058.33333333339,
      "d": 116.66666666667152,
      "v": 30
    },
    {
      "midi": 79,
      "hit": false,
      "t": 67775.00000000006,
      "d": 183.33333333332848,
      "v": 62
    },
    {
      "midi": 50,
      "hit": false,
      "t": 68008.33333333339,
      "d": 1424.9999999999854,
      "v": 31
    },
    {
      "midi": 56,
      "hit": false,
      "t": 68008.33333333339,
      "d": 1466.666666666657,
      "v": 23
    },
    {
      "midi": 77,
      "hit": false,
      "t": 68008.33333333339,
      "d": 1541.666666666657,
      "v": 38
    },
    {
      "midi": 60,
      "hit": false,
      "t": 68016.66666666672,
      "d": 1483.3333333333285,
      "v": 24
    },
    {
      "midi": 80,
      "hit": false,
      "t": 68575.00000000004,
      "d": 950,
      "v": 62
    },
    {
      "midi": 59,
      "hit": false,
      "t": 70033.33333333337,
      "d": 700,
      "v": 32
    },
    {
      "midi": 88,
      "hit": false,
      "t": 70033.33333333337,
      "d": 1100,
      "v": 51
    },
    {
      "midi": 76,
      "hit": false,
      "t": 70033.33333333337,
      "d": 1191.6666666666715,
      "v": 37
    },
    {
      "midi": 64,
      "hit": false,
      "t": 70041.6666666667,
      "d": 641.6666666666715,
      "v": 39
    },
    {
      "midi": 53,
      "hit": false,
      "t": 70091.6666666667,
      "d": 583.333333333343,
      "v": 22
    },
    {
      "midi": 59,
      "hit": false,
      "t": 71058.33333333337,
      "d": 600,
      "v": 32
    },
    {
      "midi": 63,
      "hit": false,
      "t": 71058.33333333337,
      "d": 600,
      "v": 33
    },
    {
      "midi": 87,
      "hit": false,
      "t": 71358.33333333337,
      "d": 433.3333333333285,
      "v": 78
    },
    {
      "midi": 83,
      "hit": false,
      "t": 71808.33333333337,
      "d": 225,
      "v": 50
    },
    {
      "midi": 86,
      "hit": false,
      "t": 72025.00000000004,
      "d": 216.66666666667152,
      "v": 71
    },
    {
      "midi": 55,
      "hit": false,
      "t": 72150.00000000004,
      "d": 2475,
      "v": 33
    },
    {
      "midi": 60,
      "hit": false,
      "t": 72166.66666666672,
      "d": 2500,
      "v": 31
    },
    {
      "midi": 48,
      "hit": false,
      "t": 72191.66666666672,
      "d": 2283.3333333333285,
      "v": 24
    },
    {
      "midi": 85,
      "hit": false,
      "t": 72291.66666666672,
      "d": 233.33333333332848,
      "v": 68
    },
    {
      "midi": 82,
      "hit": false,
      "t": 72525.00000000004,
      "d": 241.66666666667152,
      "v": 59
    },
    {
      "midi": 81,
      "hit": false,
      "t": 72775.00000000004,
      "d": 683.333333333343,
      "v": 44
    },
    {
      "midi": 84,
      "hit": false,
      "t": 73416.66666666672,
      "d": 216.66666666667152,
      "v": 58
    },
    {
      "midi": 84,
      "hit": false,
      "t": 73725.00000000006,
      "d": 33.33333333332848,
      "v": 31
    },
    {
      "midi": 83,
      "hit": false,
      "t": 73725.00000000006,
      "d": 200,
      "v": 30
    },
    {
      "midi": 80,
      "hit": false,
      "t": 73933.33333333339,
      "d": 158.33333333332848,
      "v": 52
    },
    {
      "midi": 79,
      "hit": false,
      "t": 74108.33333333339,
      "d": 183.33333333332848,
      "v": 30
    },
    {
      "midi": 82,
      "hit": false,
      "t": 74266.66666666672,
      "d": 141.66666666667152,
      "v": 57
    },
    {
      "midi": 81,
      "hit": false,
      "t": 74466.66666666672,
      "d": 208.33333333332848,
      "v": 51
    },
    {
      "midi": 63,
      "hit": false,
      "t": 75300.00000000004,
      "d": 366.66666666665697,
      "v": 30
    },
    {
      "midi": 67,
      "hit": false,
      "t": 75300.00000000004,
      "d": 366.66666666665697,
      "v": 35
    },
    {
      "midi": 60,
      "hit": false,
      "t": 75308.33333333337,
      "d": 283.3333333333285,
      "v": 33
    },
    {
      "midi": 57,
      "hit": false,
      "t": 75341.6666666667,
      "d": 175,
      "v": 29
    },
    {
      "midi": 51,
      "hit": false,
      "t": 75766.6666666667,
      "d": 191.66666666667152,
      "v": 36
    },
    {
      "midi": 67,
      "hit": false,
      "t": 76016.6666666667,
      "d": 291.66666666665697,
      "v": 71
    },
    {
      "midi": 56,
      "hit": false,
      "t": 76033.33333333337,
      "d": 1466.666666666657,
      "v": 14
    },
    {
      "midi": 60,
      "hit": false,
      "t": 76033.33333333337,
      "d": 1508.3333333333285,
      "v": 37
    },
    {
      "midi": 50,
      "hit": false,
      "t": 76041.6666666667,
      "d": 1441.666666666657,
      "v": 35
    },
    {
      "midi": 68,
      "hit": false,
      "t": 76358.33333333336,
      "d": 66.66666666667152,
      "v": 59
    },
    {
      "midi": 78,
      "hit": false,
      "t": 76691.6666666667,
      "d": 1291.6666666666715,
      "v": 76
    },
    {
      "midi": 66,
      "hit": false,
      "t": 76700.00000000003,
      "d": 1308.333333333343,
      "v": 73
    },
    {
      "midi": 65,
      "hit": false,
      "t": 78041.6666666667,
      "d": 941.666666666657,
      "v": 44
    },
    {
      "midi": 59,
      "hit": false,
      "t": 78050.00000000003,
      "d": 683.3333333333285,
      "v": 14
    },
    {
      "midi": 62,
      "hit": false,
      "t": 78066.6666666667,
      "d": 649.9999999999854,
      "v": 20
    },
    {
      "midi": 53,
      "hit": false,
      "t": 78091.6666666667,
      "d": 566.666666666657,
      "v": 24
    },
    {
      "midi": 62,
      "hit": false,
      "t": 78975.00000000003,
      "d": 741.6666666666715,
      "v": 32
    },
    {
      "midi": 59,
      "hit": false,
      "t": 78975.00000000003,
      "d": 758.333333333343,
      "v": 25
    },
    {
      "midi": 53,
      "hit": false,
      "t": 78991.66666666669,
      "d": 800.0000000000146,
      "v": 27
    },
    {
      "midi": 77,
      "hit": false,
      "t": 79408.33333333336,
      "d": 266.6666666666715,
      "v": 66
    },
    {
      "midi": 73,
      "hit": false,
      "t": 79675.00000000003,
      "d": 233.33333333334303,
      "v": 46
    },
    {
      "midi": 76,
      "hit": false,
      "t": 79925.00000000004,
      "d": 208.33333333332848,
      "v": 62
    },
    {
      "midi": 55,
      "hit": false,
      "t": 80166.6666666667,
      "d": 1858.333333333314,
      "v": 36
    },
    {
      "midi": 48,
      "hit": false,
      "t": 80175.00000000003,
      "d": 1249.9999999999854,
      "v": 27
    },
    {
      "midi": 75,
      "hit": false,
      "t": 80183.33333333336,
      "d": 241.66666666667152,
      "v": 55
    },
    {
      "midi": 72,
      "hit": false,
      "t": 80416.6666666667,
      "d": 216.66666666665697,
      "v": 55
    },
    {
      "midi": 71,
      "hit": false,
      "t": 80658.33333333336,
      "d": 200,
      "v": 51
    },
    {
      "midi": 74,
      "hit": false,
      "t": 80883.33333333336,
      "d": 316.66666666665697,
      "v": 68
    },
    {
      "midi": 73,
      "hit": false,
      "t": 81108.33333333336,
      "d": 299.99999999998545,
      "v": 49
    },
    {
      "midi": 60,
      "hit": false,
      "t": 81150.00000000001,
      "d": 841.6666666666715,
      "v": 1
    },
    {
      "midi": 70,
      "hit": false,
      "t": 81333.33333333334,
      "d": 300.00000000001455,
      "v": 56
    },
    {
      "midi": 69,
      "hit": false,
      "t": 81566.66666666669,
      "d": 225,
      "v": 47
    },
    {
      "midi": 72,
      "hit": false,
      "t": 81808.33333333336,
      "d": 183.33333333332848,
      "v": 58
    },
    {
      "midi": 71,
      "hit": false,
      "t": 82041.66666666669,
      "d": 1524.9999999999854,
      "v": 31
    },
    {
      "midi": 48,
      "hit": false,
      "t": 82083.33333333334,
      "d": 1316.666666666657,
      "v": 17
    },
    {
      "midi": 55,
      "hit": false,
      "t": 82333.33333333334,
      "d": 308.3333333333285,
      "v": 25
    },
    {
      "midi": 55,
      "hit": false,
      "t": 82808.33333333334,
      "d": 116.66666666667152,
      "v": 30
    },
    {
      "midi": 63,
      "hit": false,
      "t": 83050.00000000001,
      "d": 374.99999999998545,
      "v": 30
    },
    {
      "midi": 59,
      "hit": false,
      "t": 83058.33333333334,
      "d": 374.99999999998545,
      "v": 31
    },
    {
      "midi": 67,
      "hit": false,
      "t": 83058.33333333334,
      "d": 433.3333333333285,
      "v": 33
    },
    {
      "midi": 55,
      "hit": false,
      "t": 83066.66666666667,
      "d": 383.3333333333285,
      "v": 31
    },
    {
      "midi": 63,
      "hit": false,
      "t": 83541.66666666667,
      "d": 50,
      "v": 35
    },
    {
      "midi": 63,
      "hit": false,
      "t": 84016.66666666667,
      "d": 358.3333333333285,
      "v": 56
    },
    {
      "midi": 59,
      "hit": false,
      "t": 84016.66666666667,
      "d": 766.666666666657,
      "v": 56
    },
    {
      "midi": 70,
      "hit": false,
      "t": 84025,
      "d": 375,
      "v": 85
    },
    {
      "midi": 82,
      "hit": false,
      "t": 84025,
      "d": 408.3333333333285,
      "v": 77
    },
    {
      "midi": 56,
      "hit": false,
      "t": 84033.33333333333,
      "d": 808.3333333333285,
      "v": 37
    },
    {
      "midi": 53,
      "hit": false,
      "t": 84166.66666666667,
      "d": 574.9999999999854,
      "v": 1
    },
    {
      "midi": 63,
      "hit": false,
      "t": 84508.33333333333,
      "d": 208.33333333332848,
      "v": 46
    },
    {
      "midi": 83,
      "hit": false,
      "t": 84516.66666666666,
      "d": 200,
      "v": 73
    },
    {
      "midi": 71,
      "hit": false,
      "t": 84524.99999999999,
      "d": 150,
      "v": 71
    },
    {
      "midi": 93,
      "hit": false,
      "t": 84983.33333333333,
      "d": 1683.3333333333285,
      "v": 67
    },
    {
      "midi": 63,
      "hit": false,
      "t": 85000,
      "d": 575,
      "v": 57
    },
    {
      "midi": 59,
      "hit": false,
      "t": 85008.33333333333,
      "d": 458.33333333334303,
      "v": 51
    },
    {
      "midi": 56,
      "hit": false,
      "t": 85008.33333333333,
      "d": 558.333333333343,
      "v": 38
    },
    {
      "midi": 81,
      "hit": false,
      "t": 85025,
      "d": 750,
      "v": 68
    },
    {
      "midi": 53,
      "hit": false,
      "t": 85050,
      "d": 383.33333333334303,
      "v": 20
    },
    {
      "midi": 62,
      "hit": false,
      "t": 86033.33333333333,
      "d": 1391.666666666657,
      "v": 34
    },
    {
      "midi": 67,
      "hit": false,
      "t": 86041.66666666666,
      "d": 525,
      "v": 36
    },
    {
      "midi": 80,
      "hit": false,
      "t": 86041.66666666666,
      "d": 741.666666666657,
      "v": 29
    },
    {
      "midi": 56,
      "hit": false,
      "t": 86066.66666666666,
      "d": 708.3333333333285,
      "v": 25
    },
    {
      "midi": 66,
      "hit": false,
      "t": 87041.66666666664,
      "d": 433.33333333334303,
      "v": 34
    },
    {
      "midi": 56,
      "hit": false,
      "t": 87091.66666666664,
      "d": 475,
      "v": 18
    },
    {
      "midi": 92,
      "hit": false,
      "t": 87308.33333333331,
      "d": 200,
      "v": 78
    },
    {
      "midi": 88,
      "hit": false,
      "t": 87558.33333333331,
      "d": 166.66666666665697,
      "v": 55
    },
    {
      "midi": 91,
      "hit": false,
      "t": 87791.66666666664,
      "d": 191.66666666667152,
      "v": 81
    },
    {
      "midi": 90,
      "hit": false,
      "t": 88041.66666666664,
      "d": 350,
      "v": 65
    },
    {
      "midi": 65,
      "hit": false,
      "t": 88041.66666666664,
      "d": 825.0000000000146,
      "v": 38
    },
    {
      "midi": 54,
      "hit": false,
      "t": 88041.66666666664,
      "d": 1883.3333333333285,
      "v": 29
    },
    {
      "midi": 61,
      "hit": false,
      "t": 88049.99999999997,
      "d": 891.6666666666861,
      "v": 37
    },
    {
      "midi": 58,
      "hit": false,
      "t": 88058.3333333333,
      "d": 1841.6666666666715,
      "v": 35
    },
    {
      "midi": 87,
      "hit": false,
      "t": 88324.99999999997,
      "d": 233.33333333334303,
      "v": 67
    },
    {
      "midi": 86,
      "hit": false,
      "t": 88574.99999999999,
      "d": 208.33333333332848,
      "v": 54
    },
    {
      "midi": 89,
      "hit": false,
      "t": 88799.99999999999,
      "d": 366.6666666666715,
      "v": 77
    },
    {
      "midi": 61,
      "hit": false,
      "t": 89033.33333333333,
      "d": 841.6666666666424,
      "v": 33
    },
    {
      "midi": 65,
      "hit": false,
      "t": 89041.66666666666,
      "d": 799.9999999999854,
      "v": 41
    },
    {
      "midi": 88,
      "hit": false,
      "t": 89049.99999999999,
      "d": 283.3333333333285,
      "v": 71
    },
    {
      "midi": 85,
      "hit": false,
      "t": 89324.99999999999,
      "d": 250,
      "v": 72
    },
    {
      "midi": 89,
      "hit": false,
      "t": 89341.66666666664,
      "d": 91.66666666667152,
      "v": 1
    },
    {
      "midi": 84,
      "hit": false,
      "t": 89583.33333333331,
      "d": 366.66666666665697,
      "v": 50
    },
    {
      "midi": 87,
      "hit": false,
      "t": 89816.66666666664,
      "d": 216.66666666665697,
      "v": 62
    },
    {
      "midi": 86,
      "hit": false,
      "t": 90074.99999999997,
      "d": 1066.666666666657,
      "v": 64
    },
    {
      "midi": 51,
      "hit": false,
      "t": 90341.66666666663,
      "d": 1108.333333333343,
      "v": 28
    },
    {
      "midi": 54,
      "hit": false,
      "t": 90574.99999999996,
      "d": 933.333333333343,
      "v": 31
    },
    {
      "midi": 58,
      "hit": false,
      "t": 91099.99999999996,
      "d": 425.00000000001455,
      "v": 23
    },
    {
      "midi": 62,
      "hit": false,
      "t": 91099.99999999996,
      "d": 533.3333333333576,
      "v": 50
    },
    {
      "midi": 85,
      "hit": false,
      "t": 91408.3333333333,
      "d": 208.33333333334303,
      "v": 58
    },
    {
      "midi": 73,
      "hit": false,
      "t": 91433.3333333333,
      "d": 225.00000000001455,
      "v": 25
    },
    {
      "midi": 84,
      "hit": false,
      "t": 91758.33333333331,
      "d": 225,
      "v": 39
    },
    {
      "midi": 83,
      "hit": false,
      "t": 92074.99999999999,
      "d": 241.66666666667152,
      "v": 49
    },
    {
      "midi": 63,
      "hit": false,
      "t": 92074.99999999999,
      "d": 3675.0000000000146,
      "v": 30
    },
    {
      "midi": 59,
      "hit": false,
      "t": 92083.33333333331,
      "d": 3650.0000000000146,
      "v": 30
    },
    {
      "midi": 74,
      "hit": false,
      "t": 92374.99999999999,
      "d": 233.33333333334303,
      "v": 17
    },
    {
      "midi": 75,
      "hit": false,
      "t": 92541.66666666666,
      "d": 158.33333333334303,
      "v": 62
    },
    {
      "midi": 84,
      "hit": false,
      "t": 92741.66666666667,
      "d": 158.33333333332848,
      "v": 63
    },
    {
      "midi": 75,
      "hit": false,
      "t": 92933.33333333333,
      "d": 158.33333333332848,
      "v": 34
    },
    {
      "midi": 76,
      "hit": false,
      "t": 93116.66666666666,
      "d": 200,
      "v": 46
    },
    {
      "midi": 85,
      "hit": false,
      "t": 93308.33333333333,
      "d": 175,
      "v": 69
    },
    {
      "midi": 76,
      "hit": false,
      "t": 93500,
      "d": 175,
      "v": 35
    },
    {
      "midi": 77,
      "hit": false,
      "t": 93675,
      "d": 125,
      "v": 45
    },
    {
      "midi": 86,
      "hit": false,
      "t": 93883.33333333333,
      "d": 166.66666666667152,
      "v": 44
    },
    {
      "midi": 77,
      "hit": false,
      "t": 94058.33333333333,
      "d": 300,
      "v": 36
    },
    {
      "midi": 78,
      "hit": false,
      "t": 94216.66666666666,
      "d": 166.66666666667152,
      "v": 42
    },
    {
      "midi": 87,
      "hit": false,
      "t": 94408.33333333333,
      "d": 1108.333333333343,
      "v": 61
    },
    {
      "midi": 79,
      "hit": false,
      "t": 94475,
      "d": 1000,
      "v": 37
    },
    {
      "midi": 86,
      "hit": false,
      "t": 95625,
      "d": 300,
      "v": 57
    },
    {
      "midi": 80,
      "hit": false,
      "t": 96141.66666666666,
      "d": 225,
      "v": 15
    },
    {
      "midi": 71,
      "hit": false,
      "t": 96366.66666666666,
      "d": 141.66666666667152,
      "v": 40
    },
    {
      "midi": 73,
      "hit": false,
      "t": 96575,
      "d": 158.33333333332848,
      "v": 14
    },
    {
      "midi": 72,
      "hit": false,
      "t": 96600,
      "d": 125,
      "v": 36
    },
    {
      "midi": 80,
      "hit": false,
      "t": 96766.66666666666,
      "d": 333.3333333333285,
      "v": 69
    },
    {
      "midi": 71,
      "hit": false,
      "t": 96974.99999999999,
      "d": 50,
      "v": 28
    },
    {
      "midi": 73,
      "hit": false,
      "t": 97108.33333333331,
      "d": 133.33333333332848,
      "v": 46
    },
    {
      "midi": 82,
      "hit": false,
      "t": 97291.66666666664,
      "d": 141.66666666667152,
      "v": 74
    },
    {
      "midi": 72,
      "hit": false,
      "t": 97466.66666666666,
      "d": 108.33333333332848,
      "v": 42
    },
    {
      "midi": 73,
      "hit": false,
      "t": 97616.66666666666,
      "d": 108.33333333332848,
      "v": 25
    },
    {
      "midi": 82,
      "hit": false,
      "t": 97766.66666666666,
      "d": 125,
      "v": 57
    },
    {
      "midi": 83,
      "hit": false,
      "t": 97816.66666666666,
      "d": 41.66666666667152,
      "v": 35
    },
    {
      "midi": 74,
      "hit": false,
      "t": 97941.66666666666,
      "d": 125,
      "v": 39
    },
    {
      "midi": 77,
      "hit": false,
      "t": 98099.99999999999,
      "d": 125,
      "v": 44
    },
    {
      "midi": 84,
      "hit": false,
      "t": 98274.99999999999,
      "d": 183.33333333332848,
      "v": 54
    },
    {
      "midi": 74,
      "hit": false,
      "t": 98491.66666666664,
      "d": 66.66666666667152,
      "v": 20
    },
    {
      "midi": 85,
      "hit": false,
      "t": 98624.99999999999,
      "d": 208.33333333332848,
      "v": 69
    },
    {
      "midi": 64,
      "hit": false,
      "t": 98849.99999999999,
      "d": 416.66666666665697,
      "v": 36
    },
    {
      "midi": 59,
      "hit": false,
      "t": 98849.99999999999,
      "d": 466.66666666665697,
      "v": 24
    },
    {
      "midi": 86,
      "hit": false,
      "t": 98849.99999999999,
      "d": 2991.6666666666715,
      "v": 57
    },
    {
      "midi": 53,
      "hit": false,
      "t": 98874.99999999999,
      "d": 391.66666666665697,
      "v": 32
    },
    {
      "midi": 59,
      "hit": false,
      "t": 99408.33333333331,
      "d": 466.6666666666715,
      "v": 36
    },
    {
      "midi": 63,
      "hit": false,
      "t": 99408.33333333331,
      "d": 533.333333333343,
      "v": 52
    },
    {
      "midi": 53,
      "hit": false,
      "t": 99491.66666666666,
      "d": 458.3333333333285,
      "v": 11
    },
    {
      "midi": 62,
      "hit": false,
      "t": 101058.33333333331,
      "d": 591.6666666666861,
      "v": 25
    },
    {
      "midi": 57,
      "hit": false,
      "t": 101074.99999999999,
      "d": 575.0000000000146,
      "v": 42
    },
    {
      "midi": 51,
      "hit": false,
      "t": 101091.66666666666,
      "d": 2891.666666666628,
      "v": 25
    },
    {
      "midi": 55,
      "hit": false,
      "t": 101108.33333333333,
      "d": 600,
      "v": 28
    },
    {
      "midi": 62,
      "hit": false,
      "t": 102058.33333333333,
      "d": 733.3333333333139,
      "v": 38
    },
    {
      "midi": 57,
      "hit": false,
      "t": 102083.33333333333,
      "d": 783.3333333333139,
      "v": 38
    },
    {
      "midi": 55,
      "hit": false,
      "t": 102091.66666666666,
      "d": 1166.6666666666424,
      "v": 36
    },
    {
      "midi": 86,
      "hit": false,
      "t": 102499.99999999999,
      "d": 133.33333333332848,
      "v": 69
    },
    {
      "midi": 89,
      "hit": false,
      "t": 102708.33333333331,
      "d": 258.3333333333285,
      "v": 91
    },
    {
      "midi": 87,
      "hit": false,
      "t": 102933.33333333331,
      "d": 191.66666666665697,
      "v": 77
    },
    {
      "midi": 57,
      "hit": false,
      "t": 103124.99999999997,
      "d": 116.66666666665697,
      "v": 29
    },
    {
      "midi": 62,
      "hit": false,
      "t": 103124.99999999997,
      "d": 175,
      "v": 25
    },
    {
      "midi": 77,
      "hit": false,
      "t": 103158.3333333333,
      "d": 58.33333333332848,
      "v": 31
    },
    {
      "midi": 79,
      "hit": false,
      "t": 103158.3333333333,
      "d": 200,
      "v": 29
    },
    {
      "midi": 86,
      "hit": false,
      "t": 103416.66666666663,
      "d": 499.99999999998545,
      "v": 52
    },
    {
      "midi": 80,
      "hit": false,
      "t": 103416.66666666663,
      "d": 549.9999999999854,
      "v": 53
    },
    {
      "midi": 62,
      "hit": false,
      "t": 103424.99999999996,
      "d": 383.3333333333285,
      "v": 44
    },
    {
      "midi": 56,
      "hit": false,
      "t": 103433.33333333328,
      "d": 400,
      "v": 40
    },
    {
      "midi": 86,
      "hit": false,
      "t": 104066.66666666661,
      "d": 791.6666666666279,
      "v": 43
    },
    {
      "midi": 74,
      "hit": false,
      "t": 104074.99999999994,
      "d": 616.6666666666424,
      "v": 34
    },
    {
      "midi": 62,
      "hit": false,
      "t": 104074.99999999994,
      "d": 649.9999999999709,
      "v": 36
    },
    {
      "midi": 57,
      "hit": false,
      "t": 104074.99999999994,
      "d": 733.3333333332994,
      "v": 49
    },
    {
      "midi": 79,
      "hit": false,
      "t": 104083.33333333327,
      "d": 499.99999999998545,
      "v": 29
    },
    {
      "midi": 51,
      "hit": false,
      "t": 104091.6666666666,
      "d": 1891.666666666657,
      "v": 33
    },
    {
      "midi": 85,
      "hit": false,
      "t": 104558.33333333326,
      "d": 191.66666666665697,
      "v": 42
    },
    {
      "midi": 84,
      "hit": false,
      "t": 104591.66666666658,
      "d": 333.3333333333285,
      "v": 32
    },
    {
      "midi": 79,
      "hit": false,
      "t": 104783.33333333324,
      "d": 141.66666666667152,
      "v": 45
    },
    {
      "midi": 74,
      "hit": false,
      "t": 104974.99999999991,
      "d": 125,
      "v": 37
    },
    {
      "midi": 62,
      "hit": false,
      "t": 105049.99999999991,
      "d": 650.0000000000146,
      "v": 28
    },
    {
      "midi": 57,
      "hit": false,
      "t": 105066.66666666658,
      "d": 858.333333333343,
      "v": 32
    },
    {
      "midi": 69,
      "hit": false,
      "t": 105291.66666666658,
      "d": 41.66666666667152,
      "v": 25
    },
    {
      "midi": 67,
      "hit": false,
      "t": 105291.66666666658,
      "d": 616.6666666666715,
      "v": 24
    },
    {
      "midi": 74,
      "hit": false,
      "t": 105533.33333333326,
      "d": 408.3333333333285,
      "v": 55
    },
    {
      "midi": 63,
      "hit": false,
      "t": 105766.6666666666,
      "d": 83.33333333332848,
      "v": 23
    },
    {
      "midi": 63,
      "hit": false,
      "t": 105933.33333333326,
      "d": 116.66666666667152,
      "v": 34
    },
    {
      "midi": 56,
      "hit": false,
      "t": 106133.33333333326,
      "d": 716.666666666657,
      "v": 37
    },
    {
      "midi": 68,
      "hit": false,
      "t": 106149.99999999993,
      "d": 341.66666666665697,
      "v": 42
    },
    {
      "midi": 48,
      "hit": false,
      "t": 106149.99999999993,
      "d": 1424.9999999999854,
      "v": 41
    },
    {
      "midi": 64,
      "hit": false,
      "t": 106208.33333333326,
      "d": 266.66666666665697,
      "v": 6
    },
    {
      "midi": 56,
      "hit": false,
      "t": 107074.99999999991,
      "d": 516.6666666666715,
      "v": 33
    },
    {
      "midi": 61,
      "hit": false,
      "t": 107991.66666666658,
      "d": 49.99999999998545,
      "v": 42
    },
    {
      "midi": 55,
      "hit": false,
      "t": 108024.99999999991,
      "d": 741.6666666666715,
      "v": 20
    },
    {
      "midi": 58,
      "hit": false,
      "t": 108033.33333333324,
      "d": 833.333333333343,
      "v": 32
    },
    {
      "midi": 48,
      "hit": false,
      "t": 108041.66666666657,
      "d": 966.6666666666861,
      "v": 26
    },
    {
      "midi": 62,
      "hit": false,
      "t": 108058.33333333324,
      "d": 1166.666666666686,
      "v": 43
    },
    {
      "midi": 65,
      "hit": false,
      "t": 108341.66666666658,
      "d": 958.333333333343,
      "v": 52
    },
    {
      "midi": 57,
      "hit": false,
      "t": 109566.6666666666,
      "d": 291.6666666666715,
      "v": 44
    },
    {
      "midi": 47,
      "hit": false,
      "t": 109574.99999999993,
      "d": 250.00000000001455,
      "v": 36
    },
    {
      "midi": 67,
      "hit": false,
      "t": 110108.33333333327,
      "d": 416.66666666665697,
      "v": 47
    },
    {
      "midi": 56,
      "hit": false,
      "t": 110108.33333333327,
      "d": 533.3333333333285,
      "v": 35
    },
    {
      "midi": 63,
      "hit": false,
      "t": 110108.33333333327,
      "d": 841.666666666657,
      "v": 45
    },
    {
      "midi": 46,
      "hit": false,
      "t": 110133.33333333327,
      "d": 616.666666666657,
      "v": 32
    },
    {
      "midi": 65,
      "hit": false,
      "t": 111099.99999999993,
      "d": 433.33333333331393,
      "v": 64
    },
    {
      "midi": 54,
      "hit": false,
      "t": 111099.99999999993,
      "d": 541.6666666666424,
      "v": 39
    },
    {
      "midi": 63,
      "hit": false,
      "t": 111108.33333333326,
      "d": 349.99999999998545,
      "v": 49
    },
    {
      "midi": 44,
      "hit": false,
      "t": 111108.33333333326,
      "d": 624.9999999999854,
      "v": 33
    },
    {
      "midi": 59,
      "hit": false,
      "t": 111116.66666666658,
      "d": 591.666666666657,
      "v": 45
    },
    {
      "midi": 63,
      "hit": false,
      "t": 111791.66666666657,
      "d": 166.66666666667152,
      "v": 48
    },
    {
      "midi": 62,
      "hit": false,
      "t": 112091.66666666657,
      "d": 341.6666666666715,
      "v": 46
    },
    {
      "midi": 58,
      "hit": false,
      "t": 112108.33333333324,
      "d": 183.33333333334303,
      "v": 35
    },
    {
      "midi": 53,
      "hit": false,
      "t": 112124.99999999991,
      "d": 250,
      "v": 24
    },
    {
      "midi": 43,
      "hit": false,
      "t": 112124.99999999991,
      "d": 1300,
      "v": 36
    },
    {
      "midi": 58,
      "hit": false,
      "t": 112383.33333333324,
      "d": 233.33333333334303,
      "v": 45
    },
    {
      "midi": 55,
      "hit": false,
      "t": 112674.99999999991,
      "d": 158.33333333332848,
      "v": 50
    },
    {
      "midi": 55,
      "hit": false,
      "t": 113099.99999999991,
      "d": 416.6666666666715,
      "v": 32
    },
    {
      "midi": 63,
      "hit": false,
      "t": 113983.33333333326,
      "d": 1466.6666666666715,
      "v": 35
    },
    {
      "midi": 58,
      "hit": false,
      "t": 114008.33333333326,
      "d": 1608.3333333333285,
      "v": 35
    },
    {
      "midi": 52,
      "hit": false,
      "t": 114024.99999999993,
      "d": 1641.666666666657,
      "v": 37
    },
    {
      "midi": 87,
      "hit": false,
      "t": 114333.33333333326,
      "d": 125,
      "v": 64
    },
    {
      "midi": 76,
      "hit": false,
      "t": 114566.66666666658,
      "d": 75,
      "v": 38
    },
    {
      "midi": 73,
      "hit": false,
      "t": 114883.33333333326,
      "d": 166.66666666667152,
      "v": 34
    },
    {
      "midi": 72,
      "hit": false,
      "t": 115074.99999999993,
      "d": 275,
      "v": 53
    },
    {
      "midi": 70,
      "hit": false,
      "t": 115366.6666666666,
      "d": 116.66666666665697,
      "v": 46
    },
    {
      "midi": 65,
      "hit": false,
      "t": 115558.33333333326,
      "d": 150,
      "v": 39
    },
    {
      "midi": 61,
      "hit": false,
      "t": 115841.66666666658,
      "d": 183.33333333332848,
      "v": 56
    },
    {
      "midi": 60,
      "hit": false,
      "t": 116083.33333333326,
      "d": 225,
      "v": 38
    },
    {
      "midi": 48,
      "hit": false,
      "t": 116108.33333333326,
      "d": 1508.333333333314,
      "v": 17
    },
    {
      "midi": 41,
      "hit": false,
      "t": 116116.66666666658,
      "d": 1333.333333333314,
      "v": 17
    },
    {
      "midi": 58,
      "hit": false,
      "t": 116358.33333333326,
      "d": 108.33333333332848,
      "v": 34
    },
    {
      "midi": 56,
      "hit": false,
      "t": 116533.33333333326,
      "d": 225,
      "v": 43
    },
    {
      "midi": 58,
      "hit": false,
      "t": 116549.99999999993,
      "d": 233.33333333332848,
      "v": 23
    },
    {
      "midi": 58,
      "hit": false,
      "t": 116849.99999999991,
      "d": 100,
      "v": 40
    },
    {
      "midi": 56,
      "hit": false,
      "t": 116849.99999999991,
      "d": 108.33333333332848,
      "v": 35
    },
    {
      "midi": 56,
      "hit": false,
      "t": 117049.9999999999,
      "d": 283.3333333333285,
      "v": 28
    },
    {
      "midi": 58,
      "hit": false,
      "t": 117049.9999999999,
      "d": 308.3333333333285,
      "v": 31
    },
    {
      "midi": 53,
      "hit": false,
      "t": 117299.9999999999,
      "d": 325,
      "v": 1
    },
    {
      "midi": 55,
      "hit": false,
      "t": 117349.9999999999,
      "d": 33.33333333332848,
      "v": 48
    },
    {
      "midi": 67,
      "hit": false,
      "t": 117716.66666666657,
      "d": 100,
      "v": 71
    },
    {
      "midi": 70,
      "hit": false,
      "t": 117858.33333333324,
      "d": 116.66666666667152,
      "v": 65
    },
    {
      "midi": 65,
      "hit": false,
      "t": 118033.33333333324,
      "d": 150,
      "v": 64
    },
    {
      "midi": 56,
      "hit": false,
      "t": 118049.99999999991,
      "d": 1899.9999999999563,
      "v": 18
    },
    {
      "midi": 60,
      "hit": false,
      "t": 118049.99999999991,
      "d": 1908.3333333332848,
      "v": 35
    },
    {
      "midi": 53,
      "hit": false,
      "t": 118058.33333333324,
      "d": 1641.6666666666424,
      "v": 22
    },
    {
      "midi": 65,
      "hit": false,
      "t": 118891.66666666657,
      "d": 125,
      "v": 69
    },
    {
      "midi": 67,
      "hit": false,
      "t": 119024.9999999999,
      "d": 108.33333333332848,
      "v": 57
    },
    {
      "midi": 63,
      "hit": false,
      "t": 119183.33333333323,
      "d": 100,
      "v": 42
    },
    {
      "midi": 65,
      "hit": false,
      "t": 119316.66666666656,
      "d": 125,
      "v": 52
    },
    {
      "midi": 62,
      "hit": false,
      "t": 119483.33333333323,
      "d": 224.99999999998545,
      "v": 53
    },
    {
      "midi": 53,
      "hit": false,
      "t": 119891.66666666654,
      "d": 149.99999999998545,
      "v": 22
    },
    {
      "midi": 53,
      "hit": false,
      "t": 120141.66666666653,
      "d": 1733.333333333314,
      "v": 14
    },
    {
      "midi": 60,
      "hit": false,
      "t": 120158.3333333332,
      "d": 541.666666666657,
      "v": 32
    },
    {
      "midi": 56,
      "hit": false,
      "t": 120166.66666666653,
      "d": 1799.9999999999854,
      "v": 20
    },
    {
      "midi": 79,
      "hit": false,
      "t": 120608.3333333332,
      "d": 141.66666666665697,
      "v": 45
    },
    {
      "midi": 67,
      "hit": false,
      "t": 120641.66666666653,
      "d": 66.66666666665697,
      "v": 64
    },
    {
      "midi": 70,
      "hit": false,
      "t": 120941.66666666653,
      "d": 241.66666666665697,
      "v": 57
    },
    {
      "midi": 82,
      "hit": false,
      "t": 120941.66666666653,
      "d": 258.3333333333285,
      "v": 67
    },
    {
      "midi": 65,
      "hit": false,
      "t": 120949.99999999985,
      "d": 916.666666666657,
      "v": 43
    },
    {
      "midi": 60,
      "hit": false,
      "t": 120949.99999999985,
      "d": 1016.666666666657,
      "v": 27
    },
    {
      "midi": 77,
      "hit": false,
      "t": 121274.99999999985,
      "d": 158.33333333332848,
      "v": 33
    },
    {
      "midi": 79,
      "hit": false,
      "t": 121483.33333333318,
      "d": 158.33333333332848,
      "v": 64
    },
    {
      "midi": 75,
      "hit": false,
      "t": 121683.33333333318,
      "d": 150,
      "v": 57
    },
    {
      "midi": 77,
      "hit": false,
      "t": 121866.66666666651,
      "d": 2191.666666666657,
      "v": 48
    },
    {
      "midi": 72,
      "hit": false,
      "t": 122074.99999999984,
      "d": 391.6666666666715,
      "v": 50
    },
    {
      "midi": 60,
      "hit": false,
      "t": 122116.66666666651,
      "d": 1441.6666666666715,
      "v": 24
    },
    {
      "midi": 56,
      "hit": false,
      "t": 122124.99999999984,
      "d": 1491.6666666666715,
      "v": 15
    },
    {
      "midi": 53,
      "hit": false,
      "t": 122133.33333333317,
      "d": 1141.6666666666715,
      "v": 22
    },
    {
      "midi": 74,
      "hit": false,
      "t": 122441.66666666651,
      "d": 1641.666666666657,
      "v": 64
    },
    {
      "midi": 63,
      "hit": false,
      "t": 123108.33333333318,
      "d": 383.3333333333285,
      "v": 30
    },
    {
      "midi": 68,
      "hit": false,
      "t": 123116.66666666651,
      "d": 558.3333333333285,
      "v": 29
    },
    {
      "midi": 72,
      "hit": false,
      "t": 123124.99999999984,
      "d": 625,
      "v": 40
    },
    {
      "midi": 60,
      "hit": false,
      "t": 124049.99999999984,
      "d": 666.6666666666715,
      "v": 36
    },
    {
      "midi": 54,
      "hit": false,
      "t": 124074.99999999984,
      "d": 1425.000000000029,
      "v": 20
    },
    {
      "midi": 50,
      "hit": false,
      "t": 124091.6666666665,
      "d": 1358.3333333333721,
      "v": 32
    },
    {
      "midi": 62,
      "hit": false,
      "t": 124699.99999999984,
      "d": 58.333333333343035,
      "v": 34
    },
    {
      "midi": 63,
      "hit": false,
      "t": 124824.99999999985,
      "d": 41.66666666667152,
      "v": 36
    },
    {
      "midi": 65,
      "hit": false,
      "t": 124941.66666666653,
      "d": 41.66666666667152,
      "v": 44
    },
    {
      "midi": 67,
      "hit": false,
      "t": 125049.99999999987,
      "d": 75,
      "v": 60
    },
    {
      "midi": 68,
      "hit": false,
      "t": 125166.66666666654,
      "d": 83.33333333332848,
      "v": 71
    },
    {
      "midi": 60,
      "hit": false,
      "t": 125241.66666666654,
      "d": 241.66666666665697,
      "v": 32
    },
    {
      "midi": 70,
      "hit": false,
      "t": 125283.3333333332,
      "d": 50,
      "v": 59
    },
    {
      "midi": 72,
      "hit": false,
      "t": 125399.99999999987,
      "d": 50,
      "v": 58
    },
    {
      "midi": 74,
      "hit": false,
      "t": 125499.99999999987,
      "d": 75,
      "v": 63
    },
    {
      "midi": 75,
      "hit": false,
      "t": 125616.66666666654,
      "d": 58.33333333332848,
      "v": 62
    },
    {
      "midi": 77,
      "hit": false,
      "t": 125733.3333333332,
      "d": 91.66666666667152,
      "v": 43
    },
    {
      "midi": 79,
      "hit": false,
      "t": 125841.66666666654,
      "d": 66.66666666667152,
      "v": 48
    },
    {
      "midi": 80,
      "hit": false,
      "t": 125958.33333333321,
      "d": 66.66666666667152,
      "v": 62
    },
    {
      "midi": 82,
      "hit": false,
      "t": 126091.66666666656,
      "d": 950,
      "v": 69
    },
    {
      "midi": 59,
      "hit": false,
      "t": 126091.66666666656,
      "d": 1516.6666666666715,
      "v": 27
    },
    {
      "midi": 64,
      "hit": false,
      "t": 126099.99999999988,
      "d": 1475.0000000000146,
      "v": 41
    },
    {
      "midi": 53,
      "hit": false,
      "t": 126124.99999999988,
      "d": 1558.333333333343,
      "v": 29
    },
    {
      "midi": 80,
      "hit": false,
      "t": 126924.99999999988,
      "d": 125,
      "v": 44
    },
    {
      "midi": 75,
      "hit": false,
      "t": 127116.66666666656,
      "d": 116.66666666667152,
      "v": 67
    },
    {
      "midi": 71,
      "hit": false,
      "t": 127299.9999999999,
      "d": 166.66666666665697,
      "v": 36
    },
    {
      "midi": 70,
      "hit": false,
      "t": 127483.33333333323,
      "d": 233.33333333332848,
      "v": 53
    },
    {
      "midi": 68,
      "hit": false,
      "t": 127649.9999999999,
      "d": 99.99999999998545,
      "v": 47
    },
    {
      "midi": 67,
      "hit": false,
      "t": 127808.33333333321,
      "d": 75,
      "v": 42
    },
    {
      "midi": 65,
      "hit": false,
      "t": 127949.99999999988,
      "d": 116.66666666665697,
      "v": 55
    },
    {
      "midi": 55,
      "hit": false,
      "t": 128066.66666666654,
      "d": 766.6666666666715,
      "v": 25
    },
    {
      "midi": 48,
      "hit": false,
      "t": 128091.66666666654,
      "d": 1583.333333333343,
      "v": 19
    },
    {
      "midi": 63,
      "hit": false,
      "t": 128108.33333333321,
      "d": 66.66666666667152,
      "v": 27
    },
    {
      "midi": 62,
      "hit": false,
      "t": 128266.66666666656,
      "d": 91.66666666667152,
      "v": 16
    },
    {
      "midi": 65,
      "hit": false,
      "t": 128408.33333333323,
      "d": 133.33333333332848,
      "v": 44
    },
    {
      "midi": 63,
      "hit": false,
      "t": 128549.99999999988,
      "d": 1208.3333333333285,
      "v": 26
    },
    {
      "midi": 60,
      "hit": false,
      "t": 129116.66666666654,
      "d": 391.6666666666715,
      "v": 32
    },
    {
      "midi": 55,
      "hit": false,
      "t": 129133.33333333321,
      "d": 425,
      "v": 29
    },
    {
      "midi": 63,
      "hit": false,
      "t": 130049.99999999988,
      "d": 850,
      "v": 31
    },
    {
      "midi": 59,
      "hit": false,
      "t": 130074.99999999988,
      "d": 675,
      "v": 26
    },
    {
      "midi": 43,
      "hit": false,
      "t": 130074.99999999988,
      "d": 1083.333333333343,
      "v": 24
    },
    {
      "midi": 56,
      "hit": false,
      "t": 130091.66666666654,
      "d": 591.6666666666715,
      "v": 10
    },
    {
      "midi": 53,
      "hit": false,
      "t": 130183.33333333321,
      "d": 366.6666666666715,
      "v": 33
    },
    {
      "midi": 56,
      "hit": false,
      "t": 131008.33333333321,
      "d": 141.66666666667152,
      "v": 28
    },
    {
      "midi": 62,
      "hit": false,
      "t": 131008.33333333321,
      "d": 183.3333333333576,
      "v": 36
    },
    {
      "midi": 59,
      "hit": false,
      "t": 131016.66666666654,
      "d": 133.33333333334303,
      "v": 35
    },
    {
      "midi": 67,
      "hit": false,
      "t": 131766.66666666657,
      "d": 41.666666666656965,
      "v": 40
    },
    {
      "midi": 74,
      "hit": false,
      "t": 131949.99999999988,
      "d": 66.66666666665697,
      "v": 62
    },
    {
      "midi": 48,
      "hit": false,
      "t": 131991.66666666654,
      "d": 1408.333333333343,
      "v": 35
    },
    {
      "midi": 55,
      "hit": false,
      "t": 131999.99999999988,
      "d": 1683.333333333343,
      "v": 24
    },
    {
      "midi": 72,
      "hit": false,
      "t": 132308.3333333332,
      "d": 100,
      "v": 60
    },
    {
      "midi": 67,
      "hit": false,
      "t": 132491.66666666654,
      "d": 258.33333333334303,
      "v": 32
    },
    {
      "midi": 63,
      "hit": false,
      "t": 132816.66666666657,
      "d": 116.66666666665697,
      "v": 31
    },
    {
      "midi": 62,
      "hit": false,
      "t": 132974.99999999988,
      "d": 591.6666666666861,
      "v": 30
    },
    {
      "midi": 60,
      "hit": false,
      "t": 132991.66666666654,
      "d": 775.0000000000291,
      "v": 30
    },
    {
      "midi": 63,
      "hit": false,
      "t": 133533.33333333323,
      "d": 125,
      "v": 47
    },
    {
      "midi": 68,
      "hit": false,
      "t": 133691.66666666657,
      "d": 125,
      "v": 62
    },
    {
      "midi": 72,
      "hit": false,
      "t": 133916.66666666657,
      "d": 166.66666666671517,
      "v": 77
    },
    {
      "midi": 56,
      "hit": false,
      "t": 133999.9999999999,
      "d": 2016.6666666667152,
      "v": 30
    },
    {
      "midi": 60,
      "hit": false,
      "t": 134008.33333333326,
      "d": 1683.3333333333721,
      "v": 27
    },
    {
      "midi": 48,
      "hit": false,
      "t": 134024.99999999994,
      "d": 1258.333333333343,
      "v": 26
    },
    {
      "midi": 75,
      "hit": false,
      "t": 134116.66666666663,
      "d": 116.66666666665697,
      "v": 62
    },
    {
      "midi": 80,
      "hit": false,
      "t": 134324.99999999994,
      "d": 91.66666666665697,
      "v": 49
    },
    {
      "midi": 84,
      "hit": false,
      "t": 134524.99999999994,
      "d": 108.33333333334303,
      "v": 50
    },
    {
      "midi": 87,
      "hit": false,
      "t": 134683.33333333328,
      "d": 150,
      "v": 64
    },
    {
      "midi": 92,
      "hit": false,
      "t": 134833.33333333328,
      "d": 108.33333333334303,
      "v": 62
    },
    {
      "midi": 87,
      "hit": false,
      "t": 135008.33333333328,
      "d": 133.33333333334303,
      "v": 56
    },
    {
      "midi": 48,
      "hit": false,
      "t": 135466.66666666663,
      "d": 175,
      "v": 31
    },
    {
      "midi": 63,
      "hit": false,
      "t": 135949.99999999997,
      "d": 300,
      "v": 28
    },
    {
      "midi": 69,
      "hit": false,
      "t": 135974.99999999997,
      "d": 275,
      "v": 43
    },
    {
      "midi": 57,
      "hit": false,
      "t": 135991.66666666663,
      "d": 1999.999999999971,
      "v": 37
    },
    {
      "midi": 48,
      "hit": false,
      "t": 136024.99999999997,
      "d": 1841.6666666666279,
      "v": 20
    },
    {
      "midi": 69,
      "hit": false,
      "t": 136841.66666666663,
      "d": 41.666666666656965,
      "v": 48
    },
    {
      "midi": 74,
      "hit": false,
      "t": 137099.99999999994,
      "d": 174.9999999999709,
      "v": 82
    },
    {
      "midi": 79,
      "hit": false,
      "t": 137099.99999999994,
      "d": 291.66666666662786,
      "v": 80
    },
    {
      "midi": 76,
      "hit": false,
      "t": 137108.33333333328,
      "d": 108.33333333331393,
      "v": 80
    },
    {
      "midi": 75,
      "hit": false,
      "t": 137258.33333333326,
      "d": 133.33333333331393,
      "v": 69
    },
    {
      "midi": 74,
      "hit": false,
      "t": 137441.66666666657,
      "d": 150,
      "v": 74
    },
    {
      "midi": 79,
      "hit": false,
      "t": 137449.9999999999,
      "d": 125,
      "v": 68
    },
    {
      "midi": 75,
      "hit": false,
      "t": 137608.33333333326,
      "d": 116.66666666665697,
      "v": 67
    },
    {
      "midi": 74,
      "hit": false,
      "t": 137774.9999999999,
      "d": 141.66666666668607,
      "v": 82
    },
    {
      "midi": 79,
      "hit": false,
      "t": 137783.33333333326,
      "d": 116.66666666668607,
      "v": 58
    },
    {
      "midi": 75,
      "hit": false,
      "t": 137933.33333333326,
      "d": 108.33333333334303,
      "v": 65
    },
    {
      "midi": 79,
      "hit": false,
      "t": 137941.6666666666,
      "d": 83.33333333334303,
      "v": 27
    },
    {
      "midi": 74,
      "hit": false,
      "t": 138108.33333333326,
      "d": 258.33333333334303,
      "v": 66
    },
    {
      "midi": 56,
      "hit": false,
      "t": 138116.6666666666,
      "d": 1816.666666666686,
      "v": 33
    },
    {
      "midi": 48,
      "hit": false,
      "t": 138124.99999999994,
      "d": 1141.666666666657,
      "v": 38
    },
    {
      "midi": 79,
      "hit": false,
      "t": 138133.33333333328,
      "d": 266.66666666665697,
      "v": 34
    },
    {
      "midi": 72,
      "hit": false,
      "t": 138374.99999999994,
      "d": 150,
      "v": 50
    },
    {
      "midi": 68,
      "hit": false,
      "t": 138591.6666666666,
      "d": 933.333333333343,
      "v": 55
    },
    {
      "midi": 60,
      "hit": false,
      "t": 139058.33333333326,
      "d": 600.0000000000291,
      "v": 26
    },
    {
      "midi": 64,
      "hit": false,
      "t": 139391.6666666666,
      "d": 308.33333333334303,
      "v": 58
    },
    {
      "midi": 63,
      "hit": false,
      "t": 139699.99999999994,
      "d": 258.33333333334303,
      "v": 60
    },
    {
      "midi": 55,
      "hit": false,
      "t": 139983.33333333328,
      "d": 1074.999999999971,
      "v": 34
    },
    {
      "midi": 62,
      "hit": false,
      "t": 140008.33333333328,
      "d": 349.9999999999709,
      "v": 45
    },
    {
      "midi": 58,
      "hit": false,
      "t": 140024.99999999994,
      "d": 1141.666666666657,
      "v": 28
    },
    {
      "midi": 59,
      "hit": false,
      "t": 140341.6666666666,
      "d": 233.33333333331393,
      "v": 28
    },
    {
      "midi": 60,
      "hit": false,
      "t": 140608.33333333326,
      "d": 1391.666666666686,
      "v": 44
    },
    {
      "midi": 47,
      "hit": false,
      "t": 141374.99999999994,
      "d": 375,
      "v": 46
    },
    {
      "midi": 57,
      "hit": false,
      "t": 141374.99999999994,
      "d": 450,
      "v": 47
    },
    {
      "midi": 56,
      "hit": false,
      "t": 142049.99999999994,
      "d": 550,
      "v": 33
    },
    {
      "midi": 46,
      "hit": false,
      "t": 142066.6666666666,
      "d": 591.6666666666861,
      "v": 35
    },
    {
      "midi": 54,
      "hit": false,
      "t": 143016.66666666663,
      "d": 591.666666666657,
      "v": 46
    },
    {
      "midi": 44,
      "hit": false,
      "t": 143033.33333333328,
      "d": 658.333333333343,
      "v": 35
    },
    {
      "midi": 62,
      "hit": false,
      "t": 143983.33333333328,
      "d": 458.33333333334303,
      "v": 41
    },
    {
      "midi": 57,
      "hit": false,
      "t": 143999.99999999994,
      "d": 341.66666666668607,
      "v": 27
    },
    {
      "midi": 53,
      "hit": false,
      "t": 143999.99999999994,
      "d": 408.33333333334303,
      "v": 29
    },
    {
      "midi": 58,
      "hit": false,
      "t": 143999.99999999994,
      "d": 416.66666666668607,
      "v": 27
    },
    {
      "midi": 43,
      "hit": false,
      "t": 144008.33333333328,
      "d": 333.33333333334303,
      "v": 31
    },
    {
      "midi": 62,
      "hit": false,
      "t": 144974.99999999997,
      "d": 791.666666666657,
      "v": 22
    },
    {
      "midi": 58,
      "hit": false,
      "t": 144974.99999999997,
      "d": 958.3333333333139,
      "v": 25
    },
    {
      "midi": 57,
      "hit": false,
      "t": 144974.99999999997,
      "d": 1758.333333333343,
      "v": 24
    },
    {
      "midi": 66,
      "hit": false,
      "t": 145841.66666666663,
      "d": 66.66666666665697,
      "v": 49
    },
    {
      "midi": 67,
      "hit": false,
      "t": 145908.33333333328,
      "d": 125,
      "v": 67
    },
    {
      "midi": 66,
      "hit": false,
      "t": 146016.66666666663,
      "d": 108.33333333334303,
      "v": 46
    },
    {
      "midi": 62,
      "hit": false,
      "t": 146116.66666666663,
      "d": 58.333333333343035,
      "v": 40
    },
    {
      "midi": 65,
      "hit": false,
      "t": 146241.66666666663,
      "d": 116.66666666665697,
      "v": 67
    },
    {
      "midi": 62,
      "hit": false,
      "t": 146391.66666666663,
      "d": 50,
      "v": 44
    },
    {
      "midi": 63,
      "hit": false,
      "t": 146524.99999999997,
      "d": 83.33333333334303,
      "v": 48
    },
    {
      "midi": 64,
      "hit": false,
      "t": 146666.66666666666,
      "d": 91.66666666665697,
      "v": 50
    },
    {
      "midi": 67,
      "hit": false,
      "t": 146808.3333333333,
      "d": 50,
      "v": 44
    },
    {
      "midi": 70,
      "hit": false,
      "t": 146983.3333333333,
      "d": 83.33333333334303,
      "v": 59
    },
    {
      "midi": 58,
      "hit": false,
      "t": 147141.66666666666,
      "d": 583.333333333343,
      "v": 28
    },
    {
      "midi": 63,
      "hit": false,
      "t": 147141.66666666666,
      "d": 625,
      "v": 29
    },
    {
      "midi": 72,
      "hit": false,
      "t": 147150,
      "d": 75,
      "v": 55
    },
    {
      "midi": 52,
      "hit": false,
      "t": 147158.33333333334,
      "d": 524.9999999999709,
      "v": 35
    },
    {
      "midi": 75,
      "hit": false,
      "t": 147316.66666666666,
      "d": 66.66666666665697,
      "v": 57
    },
    {
      "midi": 76,
      "hit": false,
      "t": 147483.3333333333,
      "d": 75,
      "v": 63
    },
    {
      "midi": 79,
      "hit": false,
      "t": 147624.99999999997,
      "d": 91.66666666668607,
      "v": 79
    },
    {
      "midi": 76,
      "hit": false,
      "t": 147783.3333333333,
      "d": 66.66666666668607,
      "v": 57
    },
    {
      "midi": 77,
      "hit": false,
      "t": 147916.6666666667,
      "d": 91.66666666668607,
      "v": 58
    },
    {
      "midi": 60,
      "hit": false,
      "t": 147916.6666666667,
      "d": 1299.9999999999127,
      "v": 32
    },
    {
      "midi": 56,
      "hit": false,
      "t": 147925.00000000003,
      "d": 1533.3333333332266,
      "v": 20
    },
    {
      "midi": 53,
      "hit": false,
      "t": 147950.00000000003,
      "d": 1558.3333333332266,
      "v": 20
    },
    {
      "midi": 72,
      "hit": false,
      "t": 148075.00000000003,
      "d": 91.66666666665697,
      "v": 34
    },
    {
      "midi": 68,
      "hit": false,
      "t": 148216.6666666667,
      "d": 116.66666666665697,
      "v": 31
    },
    {
      "midi": 67,
      "hit": false,
      "t": 148375,
      "d": 50,
      "v": 34
    },
    {
      "midi": 70,
      "hit": false,
      "t": 148500,
      "d": 116.66666666665697,
      "v": 56
    },
    {
      "midi": 68,
      "hit": false,
      "t": 148658.3333333333,
      "d": 100,
      "v": 50
    },
    {
      "midi": 64,
      "hit": false,
      "t": 148824.99999999997,
      "d": 50,
      "v": 34
    },
    {
      "midi": 67,
      "hit": false,
      "t": 148966.66666666663,
      "d": 75,
      "v": 45
    },
    {
      "midi": 64,
      "hit": false,
      "t": 149108.33333333328,
      "d": 41.666666666656965,
      "v": 24
    },
    {
      "midi": 65,
      "hit": false,
      "t": 149233.33333333326,
      "d": 100,
      "v": 58
    },
    {
      "midi": 60,
      "hit": false,
      "t": 149391.6666666666,
      "d": 91.66666666665697,
      "v": 57
    },
    {
      "midi": 56,
      "hit": false,
      "t": 149533.33333333326,
      "d": 125,
      "v": 45
    },
    {
      "midi": 55,
      "hit": false,
      "t": 149691.6666666666,
      "d": 41.666666666656965,
      "v": 44
    },
    {
      "midi": 58,
      "hit": false,
      "t": 149816.6666666666,
      "d": 108.33333333334303,
      "v": 58
    },
    {
      "midi": 55,
      "hit": false,
      "t": 149966.6666666666,
      "d": 41.666666666656965,
      "v": 29
    },
    {
      "midi": 56,
      "hit": false,
      "t": 150083.33333333326,
      "d": 116.66666666665697,
      "v": 46
    },
    {
      "midi": 55,
      "hit": false,
      "t": 150358.33333333326,
      "d": 191.66666666668607,
      "v": 60
    },
    {
      "midi": 52,
      "hit": false,
      "t": 150516.6666666666,
      "d": 41.66666666668607,
      "v": 24
    },
    {
      "midi": 53,
      "hit": false,
      "t": 150633.33333333328,
      "d": 116.66666666665697,
      "v": 36
    },
    {
      "midi": 48,
      "hit": false,
      "t": 150816.6666666666,
      "d": 100,
      "v": 43
    },
    {
      "midi": 72,
      "hit": false,
      "t": 151816.6666666666,
      "d": 66.66666666665697,
      "v": 72
    },
    {
      "midi": 78,
      "hit": false,
      "t": 151991.6666666666,
      "d": 141.66666666665697,
      "v": 49
    },
    {
      "midi": 64,
      "hit": false,
      "t": 152008.33333333326,
      "d": 33.33333333331393,
      "v": 54
    },
    {
      "midi": 66,
      "hit": false,
      "t": 152008.33333333326,
      "d": 125,
      "v": 56
    },
    {
      "midi": 60,
      "hit": false,
      "t": 152024.9999999999,
      "d": 158.33333333334303,
      "v": 35
    },
    {
      "midi": 56,
      "hit": false,
      "t": 152041.66666666657,
      "d": 833.3333333333721,
      "v": 28
    },
    {
      "midi": 53,
      "hit": false,
      "t": 152049.9999999999,
      "d": 908.3333333333721,
      "v": 22
    },
    {
      "midi": 67,
      "hit": false,
      "t": 152166.6666666666,
      "d": 83.33333333331393,
      "v": 44
    },
    {
      "midi": 79,
      "hit": false,
      "t": 152274.9999999999,
      "d": 175,
      "v": 43
    },
    {
      "midi": 67,
      "hit": false,
      "t": 152391.66666666657,
      "d": 91.66666666668607,
      "v": 39
    },
    {
      "midi": 77,
      "hit": false,
      "t": 152541.6666666666,
      "d": 100,
      "v": 36
    },
    {
      "midi": 65,
      "hit": false,
      "t": 152566.6666666666,
      "d": 66.66666666665697,
      "v": 60
    },
    {
      "midi": 56,
      "hit": false,
      "t": 152949.99999999994,
      "d": 1625,
      "v": 14
    },
    {
      "midi": 64,
      "hit": false,
      "t": 152991.66666666663,
      "d": 1266.666666666657,
      "v": 31
    },
    {
      "midi": 60,
      "hit": false,
      "t": 152991.66666666663,
      "d": 1500,
      "v": 34
    },
    {
      "midi": 68,
      "hit": false,
      "t": 154308.33333333328,
      "d": 83.33333333334303,
      "v": 72
    },
    {
      "midi": 72,
      "hit": false,
      "t": 154508.33333333328,
      "d": 83.33333333331393,
      "v": 81
    },
    {
      "midi": 76,
      "hit": false,
      "t": 154766.6666666666,
      "d": 108.33333333334303,
      "v": 84
    },
    {
      "midi": 79,
      "hit": false,
      "t": 154983.33333333328,
      "d": 241.66666666668607,
      "v": 82
    },
    {
      "midi": 51,
      "hit": false,
      "t": 154983.33333333328,
      "d": 775,
      "v": 45
    },
    {
      "midi": 67,
      "hit": false,
      "t": 154991.66666666663,
      "d": 416.66666666665697,
      "v": 89
    },
    {
      "midi": 56,
      "hit": false,
      "t": 154991.66666666663,
      "d": 616.6666666666279,
      "v": 37
    },
    {
      "midi": 60,
      "hit": false,
      "t": 154999.99999999997,
      "d": 833.3333333333139,
      "v": 49
    },
    {
      "midi": 78,
      "hit": false,
      "t": 155291.66666666663,
      "d": 158.33333333331393,
      "v": 73
    },
    {
      "midi": 77,
      "hit": false,
      "t": 155516.6666666666,
      "d": 150,
      "v": 44
    },
    {
      "midi": 72,
      "hit": false,
      "t": 155799.99999999994,
      "d": 133.33333333334303,
      "v": 38
    },
    {
      "midi": 66,
      "hit": false,
      "t": 155999.99999999997,
      "d": 333.33333333331393,
      "v": 42
    },
    {
      "midi": 60,
      "hit": false,
      "t": 155999.99999999997,
      "d": 766.6666666666279,
      "v": 41
    },
    {
      "midi": 54,
      "hit": false,
      "t": 156016.66666666663,
      "d": 1583.333333333343,
      "v": 26
    },
    {
      "midi": 50,
      "hit": false,
      "t": 156041.66666666663,
      "d": 1533.333333333343,
      "v": 24
    },
    {
      "midi": 65,
      "hit": false,
      "t": 156349.99999999994,
      "d": 375,
      "v": 59
    },
    {
      "midi": 62,
      "hit": false,
      "t": 156824.99999999994,
      "d": 83.33333333334303,
      "v": 52
    },
    {
      "midi": 63,
      "hit": false,
      "t": 156966.66666666663,
      "d": 58.333333333343035,
      "v": 52
    },
    {
      "midi": 65,
      "hit": false,
      "t": 157074.99999999997,
      "d": 66.66666666665697,
      "v": 61
    },
    {
      "midi": 60,
      "hit": false,
      "t": 157149.99999999997,
      "d": 475,
      "v": 15
    },
    {
      "midi": 66,
      "hit": false,
      "t": 157174.99999999997,
      "d": 91.66666666665697,
      "v": 43
    },
    {
      "midi": 68,
      "hit": false,
      "t": 157283.33333333328,
      "d": 58.333333333343035,
      "v": 39
    },
    {
      "midi": 72,
      "hit": false,
      "t": 157441.66666666663,
      "d": 50,
      "v": 39
    },
    {
      "midi": 74,
      "hit": false,
      "t": 157549.99999999997,
      "d": 75,
      "v": 59
    },
    {
      "midi": 75,
      "hit": false,
      "t": 157641.66666666663,
      "d": 41.666666666656965,
      "v": 60
    },
    {
      "midi": 77,
      "hit": false,
      "t": 157741.66666666663,
      "d": 50,
      "v": 38
    },
    {
      "midi": 78,
      "hit": false,
      "t": 157824.99999999997,
      "d": 83.33333333334303,
      "v": 45
    },
    {
      "midi": 80,
      "hit": false,
      "t": 157941.66666666666,
      "d": 116.66666666665697,
      "v": 34
    },
    {
      "midi": 82,
      "hit": false,
      "t": 158033.3333333333,
      "d": 66.66666666665697,
      "v": 48
    },
    {
      "midi": 84,
      "hit": false,
      "t": 158166.66666666663,
      "d": 66.66666666665697,
      "v": 69
    },
    {
      "midi": 82,
      "hit": false,
      "t": 158391.66666666663,
      "d": 91.66666666668607,
      "v": 73
    },
    {
      "midi": 63,
      "hit": false,
      "t": 158391.66666666663,
      "d": 683.333333333343,
      "v": 55
    },
    {
      "midi": 59,
      "hit": false,
      "t": 158399.99999999997,
      "d": 1150,
      "v": 51
    },
    {
      "midi": 53,
      "hit": false,
      "t": 158474.99999999997,
      "d": 1150,
      "v": 14
    },
    {
      "midi": 80,
      "hit": false,
      "t": 158599.99999999997,
      "d": 75,
      "v": 53
    },
    {
      "midi": 75,
      "hit": false,
      "t": 158716.66666666663,
      "d": 100,
      "v": 62
    },
    {
      "midi": 71,
      "hit": false,
      "t": 158883.33333333328,
      "d": 75,
      "v": 24
    },
    {
      "midi": 70,
      "hit": false,
      "t": 159016.66666666663,
      "d": 66.66666666668607,
      "v": 48
    },
    {
      "midi": 68,
      "hit": false,
      "t": 159149.99999999997,
      "d": 75,
      "v": 40
    },
    {
      "midi": 67,
      "hit": false,
      "t": 159299.99999999997,
      "d": 33.333333333343035,
      "v": 40
    },
    {
      "midi": 65,
      "hit": false,
      "t": 159458.3333333333,
      "d": 66.66666666665697,
      "v": 53
    },
    {
      "midi": 63,
      "hit": false,
      "t": 159599.99999999997,
      "d": 75,
      "v": 31
    },
    {
      "midi": 62,
      "hit": false,
      "t": 159724.99999999997,
      "d": 58.333333333343035,
      "v": 30
    },
    {
      "midi": 65,
      "hit": false,
      "t": 159858.3333333333,
      "d": 125,
      "v": 75
    },
    {
      "midi": 55,
      "hit": false,
      "t": 159999.99999999997,
      "d": 83.33333333331393,
      "v": 36
    },
    {
      "midi": 63,
      "hit": false,
      "t": 159999.99999999997,
      "d": 441.66666666665697,
      "v": 52
    },
    {
      "midi": 48,
      "hit": false,
      "t": 160066.66666666663,
      "d": 1649.999999999971,
      "v": 22
    },
    {
      "midi": 55,
      "hit": false,
      "t": 160308.33333333328,
      "d": 83.33333333334303,
      "v": 36
    },
    {
      "midi": 60,
      "hit": false,
      "t": 160483.33333333328,
      "d": 41.666666666656965,
      "v": 39
    },
    {
      "midi": 62,
      "hit": false,
      "t": 160633.33333333328,
      "d": 58.333333333343035,
      "v": 57
    },
    {
      "midi": 63,
      "hit": false,
      "t": 160774.99999999997,
      "d": 116.66666666665697,
      "v": 81
    },
    {
      "midi": 55,
      "hit": false,
      "t": 160824.99999999997,
      "d": 258.33333333331393,
      "v": 29
    },
    {
      "midi": 62,
      "hit": false,
      "t": 160958.33333333328,
      "d": 100,
      "v": 43
    },
    {
      "midi": 63,
      "hit": false,
      "t": 161099.99999999994,
      "d": 91.66666666665697,
      "v": 51
    },
    {
      "midi": 62,
      "hit": false,
      "t": 161266.6666666666,
      "d": 100,
      "v": 52
    },
    {
      "midi": 55,
      "hit": false,
      "t": 161299.99999999994,
      "d": 108.33333333331393,
      "v": 29
    },
    {
      "midi": 63,
      "hit": false,
      "t": 161408.33333333326,
      "d": 91.66666666665697,
      "v": 44
    },
    {
      "midi": 55,
      "hit": false,
      "t": 161508.33333333326,
      "d": 141.66666666668607,
      "v": 11
    },
    {
      "midi": 62,
      "hit": false,
      "t": 161566.6666666666,
      "d": 575,
      "v": 53
    },
    {
      "midi": 43,
      "hit": false,
      "t": 161974.99999999994,
      "d": 775,
      "v": 41
    },
    {
      "midi": 55,
      "hit": false,
      "t": 162158.33333333326,
      "d": 83.33333333334303,
      "v": 63
    },
    {
      "midi": 56,
      "hit": false,
      "t": 162299.99999999994,
      "d": 141.66666666665697,
      "v": 68
    },
    {
      "midi": 58,
      "hit": false,
      "t": 162466.6666666666,
      "d": 91.66666666665697,
      "v": 51
    },
    {
      "midi": 53,
      "hit": false,
      "t": 162608.33333333326,
      "d": 858.333333333343,
      "v": 1
    },
    {
      "midi": 59,
      "hit": false,
      "t": 162616.6666666666,
      "d": 91.66666666668607,
      "v": 52
    },
    {
      "midi": 61,
      "hit": false,
      "t": 162766.6666666666,
      "d": 75,
      "v": 51
    },
    {
      "midi": 70,
      "hit": false,
      "t": 162941.6666666666,
      "d": 116.66666666665697,
      "v": 78
    },
    {
      "midi": 68,
      "hit": false,
      "t": 163091.6666666666,
      "d": 116.66666666665697,
      "v": 62
    },
    {
      "midi": 63,
      "hit": false,
      "t": 163266.6666666666,
      "d": 108.33333333334303,
      "v": 62
    },
    {
      "midi": 43,
      "hit": false,
      "t": 163291.6666666666,
      "d": 299.9999999999709,
      "v": 35
    },
    {
      "midi": 59,
      "hit": false,
      "t": 163424.99999999994,
      "d": 133.33333333331393,
      "v": 38
    },
    {
      "midi": 58,
      "hit": false,
      "t": 163574.9999999999,
      "d": 141.66666666665697,
      "v": 37
    },
    {
      "midi": 56,
      "hit": false,
      "t": 163749.9999999999,
      "d": 116.66666666665697,
      "v": 39
    },
    {
      "midi": 55,
      "hit": false,
      "t": 163891.66666666657,
      "d": 66.66666666665697,
      "v": 39
    },
    {
      "midi": 53,
      "hit": false,
      "t": 164016.66666666654,
      "d": 125,
      "v": 52
    },
    {
      "midi": 36,
      "hit": false,
      "t": 164041.66666666654,
      "d": 966.6666666666861,
      "v": 15
    },
    {
      "midi": 51,
      "hit": false,
      "t": 164191.66666666654,
      "d": 108.33333333334303,
      "v": 39
    },
    {
      "midi": 50,
      "hit": false,
      "t": 164358.33333333323,
      "d": 83.33333333334303,
      "v": 35
    },
    {
      "midi": 53,
      "hit": false,
      "t": 164491.66666666657,
      "d": 100,
      "v": 59
    },
    {
      "midi": 50,
      "hit": false,
      "t": 164633.33333333323,
      "d": 58.333333333343035,
      "v": 39
    },
    {
      "midi": 51,
      "hit": false,
      "t": 164758.33333333323,
      "d": 166.66666666665697,
      "v": 53
    },
    {
      "midi": 45,
      "hit": false,
      "t": 164983.33333333323,
      "d": 41.666666666656965,
      "v": 37
    },
    {
      "midi": 24,
      "hit": false,
      "t": 165299.99999999988,
      "d": 33.333333333343035,
      "v": 45
    },
    {
      "midi": 63,
      "hit": false,
      "t": 165716.66666666657,
      "d": 66.66666666665697,
      "v": 35
    },
    {
      "midi": 67,
      "hit": false,
      "t": 165858.33333333323,
      "d": 75,
      "v": 50
    },
    {
      "midi": 71,
      "hit": false,
      "t": 166008.33333333323,
      "d": 83.33333333334303,
      "v": 68
    },
    {
      "midi": 72,
      "hit": false,
      "t": 166158.33333333323,
      "d": 166.66666666665697,
      "v": 76
    },
    {
      "midi": 68,
      "hit": false,
      "t": 166349.99999999988,
      "d": 116.66666666665697,
      "v": 63
    },
    {
      "midi": 64,
      "hit": false,
      "t": 166516.66666666654,
      "d": 50,
      "v": 39
    },
    {
      "midi": 75,
      "hit": false,
      "t": 166674.99999999988,
      "d": 225,
      "v": 59
    },
    {
      "midi": 68,
      "hit": false,
      "t": 166691.66666666654,
      "d": 191.66666666668607,
      "v": 48
    },
    {
      "midi": 56,
      "hit": false,
      "t": 166691.66666666654,
      "d": 650,
      "v": 33
    },
    {
      "midi": 48,
      "hit": false,
      "t": 166708.33333333323,
      "d": 1249.999999999971,
      "v": 31
    },
    {
      "midi": 60,
      "hit": false,
      "t": 166716.66666666657,
      "d": 583.3333333333139,
      "v": 32
    },
    {
      "midi": 63,
      "hit": false,
      "t": 166924.99999999988,
      "d": 1049.999999999971,
      "v": 35
    },
    {
      "midi": 72,
      "hit": false,
      "t": 166941.66666666654,
      "d": 1016.666666666657,
      "v": 45
    },
    {
      "midi": 68,
      "hit": false,
      "t": 166949.99999999988,
      "d": 1024.999999999971,
      "v": 20
    },
    {
      "midi": 56,
      "hit": false,
      "t": 167941.66666666654,
      "d": 166.66666666665697,
      "v": 25
    },
    {
      "midi": 63,
      "hit": false,
      "t": 168133.3333333332,
      "d": 250.0000000000291,
      "v": 39
    },
    {
      "midi": 75,
      "hit": false,
      "t": 168133.3333333332,
      "d": 366.66666666668607,
      "v": 47
    },
    {
      "midi": 57,
      "hit": false,
      "t": 168133.3333333332,
      "d": 691.6666666666861,
      "v": 40
    },
    {
      "midi": 48,
      "hit": false,
      "t": 168158.3333333332,
      "d": 1708.3333333334303,
      "v": 34
    },
    {
      "midi": 85,
      "hit": false,
      "t": 168883.33333333323,
      "d": 175,
      "v": 69
    },
    {
      "midi": 73,
      "hit": false,
      "t": 168883.33333333323,
      "d": 208.33333333334303,
      "v": 73
    },
    {
      "midi": 57,
      "hit": false,
      "t": 168933.33333333323,
      "d": 525.0000000000582,
      "v": 33
    },
    {
      "midi": 74,
      "hit": false,
      "t": 169108.33333333323,
      "d": 83.33333333334303,
      "v": 37
    },
    {
      "midi": 86,
      "hit": false,
      "t": 169224.9999999999,
      "d": 75,
      "v": 38
    },
    {
      "midi": 74,
      "hit": false,
      "t": 169308.33333333326,
      "d": 116.66666666668607,
      "v": 29
    },
    {
      "midi": 86,
      "hit": false,
      "t": 169416.6666666666,
      "d": 150.0000000000291,
      "v": 31
    },
    {
      "midi": 74,
      "hit": false,
      "t": 169541.66666666663,
      "d": 100,
      "v": 39
    },
    {
      "midi": 57,
      "hit": false,
      "t": 169599.99999999997,
      "d": 241.66666666665697,
      "v": 28
    },
    {
      "midi": 84,
      "hit": false,
      "t": 169866.66666666663,
      "d": 83.33333333334303,
      "v": 45
    },
    {
      "midi": 72,
      "hit": false,
      "t": 169874.99999999997,
      "d": 58.333333333343035,
      "v": 49
    },
    {
      "midi": 56,
      "hit": false,
      "t": 170083.3333333333,
      "d": 2091.666666666657,
      "v": 37
    },
    {
      "midi": 48,
      "hit": false,
      "t": 170091.66666666666,
      "d": 1974.999999999971,
      "v": 39
    },
    {
      "midi": 86,
      "hit": false,
      "t": 170108.3333333333,
      "d": 175,
      "v": 65
    },
    {
      "midi": 84,
      "hit": false,
      "t": 170383.3333333333,
      "d": 100,
      "v": 62
    },
    {
      "midi": 80,
      "hit": false,
      "t": 170616.66666666666,
      "d": 75,
      "v": 54
    },
    {
      "midi": 75,
      "hit": false,
      "t": 170800,
      "d": 116.66666666665697,
      "v": 61
    },
    {
      "midi": 72,
      "hit": false,
      "t": 170991.66666666666,
      "d": 116.66666666665697,
      "v": 44
    },
    {
      "midi": 75,
      "hit": false,
      "t": 171499.99999999997,
      "d": 75,
      "v": 74
    },
    {
      "midi": 72,
      "hit": false,
      "t": 171683.3333333333,
      "d": 100,
      "v": 63
    },
    {
      "midi": 68,
      "hit": false,
      "t": 171833.3333333333,
      "d": 91.66666666665697,
      "v": 52
    },
    {
      "midi": 63,
      "hit": false,
      "t": 171974.99999999997,
      "d": 125,
      "v": 39
    },
    {
      "midi": 62,
      "hit": false,
      "t": 172149.99999999997,
      "d": 100,
      "v": 36
    },
    {
      "midi": 55,
      "hit": false,
      "t": 172249.99999999997,
      "d": 450.0000000000582,
      "v": 22
    },
    {
      "midi": 48,
      "hit": false,
      "t": 172258.3333333333,
      "d": 141.66666666668607,
      "v": 24
    },
    {
      "midi": 65,
      "hit": false,
      "t": 172316.66666666666,
      "d": 116.66666666668607,
      "v": 64
    },
    {
      "midi": 62,
      "hit": false,
      "t": 172491.6666666667,
      "d": 66.66666666665697,
      "v": 43
    },
    {
      "midi": 63,
      "hit": false,
      "t": 172616.6666666667,
      "d": 275,
      "v": 45
    },
    {
      "midi": 48,
      "hit": false,
      "t": 172641.6666666667,
      "d": 233.33333333334303,
      "v": 2
    },
    {
      "midi": 55,
      "hit": false,
      "t": 172791.6666666667,
      "d": 58.333333333343035,
      "v": 36
    },
    {
      "midi": 60,
      "hit": false,
      "t": 172966.6666666667,
      "d": 41.666666666656965,
      "v": 32
    },
    {
      "midi": 62,
      "hit": false,
      "t": 173116.6666666667,
      "d": 83.33333333334303,
      "v": 52
    },
    {
      "midi": 62,
      "hit": false,
      "t": 173341.6666666667,
      "d": 83.33333333334303,
      "v": 67
    },
    {
      "midi": 63,
      "hit": false,
      "t": 173433.33333333337,
      "d": 1458.3333333332848,
      "v": 51
    },
    {
      "midi": 57,
      "hit": false,
      "t": 173791.66666666672,
      "d": 99.9999999999709,
      "v": 35
    },
    {
      "midi": 47,
      "hit": false,
      "t": 173808.33333333337,
      "d": 66.66666666665697,
      "v": 28
    },
    {
      "midi": 56,
      "hit": false,
      "t": 174066.6666666667,
      "d": 633.3333333333139,
      "v": 35
    },
    {
      "midi": 46,
      "hit": false,
      "t": 174083.33333333334,
      "d": 708.3333333333139,
      "v": 37
    },
    {
      "midi": 54,
      "hit": false,
      "t": 175075,
      "d": 733.3333333333721,
      "v": 25
    },
    {
      "midi": 44,
      "hit": false,
      "t": 175091.66666666666,
      "d": 658.3333333333721,
      "v": 26
    },
    {
      "midi": 92,
      "hit": false,
      "t": 175625,
      "d": 83.33333333334303,
      "v": 73
    },
    {
      "midi": 94,
      "hit": false,
      "t": 175741.6666666667,
      "d": 166.66666666668607,
      "v": 58
    },
    {
      "midi": 92,
      "hit": false,
      "t": 175850.00000000003,
      "d": 166.66666666665697,
      "v": 50
    },
    {
      "midi": 90,
      "hit": false,
      "t": 175975.00000000003,
      "d": 75,
      "v": 26
    },
    {
      "midi": 89,
      "hit": false,
      "t": 176133.33333333337,
      "d": 33.333333333343035,
      "v": 24
    },
    {
      "midi": 87,
      "hit": false,
      "t": 176258.33333333337,
      "d": 83.33333333334303,
      "v": 47
    },
    {
      "midi": 86,
      "hit": false,
      "t": 176483.33333333337,
      "d": 91.66666666665697,
      "v": 61
    },
    {
      "midi": 89,
      "hit": false,
      "t": 176641.6666666667,
      "d": 100,
      "v": 74
    },
    {
      "midi": 86,
      "hit": false,
      "t": 176791.6666666667,
      "d": 91.66666666665697,
      "v": 60
    },
    {
      "midi": 82,
      "hit": false,
      "t": 176941.6666666667,
      "d": 91.66666666665697,
      "v": 57
    },
    {
      "midi": 81,
      "hit": false,
      "t": 177100,
      "d": 66.66666666665697,
      "v": 30
    },
    {
      "midi": 86,
      "hit": false,
      "t": 177258.3333333333,
      "d": 83.33333333334303,
      "v": 61
    },
    {
      "midi": 62,
      "hit": false,
      "t": 177283.3333333333,
      "d": 491.66666666668607,
      "v": 28
    },
    {
      "midi": 55,
      "hit": false,
      "t": 177299.99999999997,
      "d": 516.6666666666861,
      "v": 31
    },
    {
      "midi": 58,
      "hit": false,
      "t": 177308.3333333333,
      "d": 675.0000000000291,
      "v": 30
    },
    {
      "midi": 85,
      "hit": false,
      "t": 177425,
      "d": 75,
      "v": 71
    },
    {
      "midi": 82,
      "hit": false,
      "t": 177608.33333333334,
      "d": 100,
      "v": 46
    },
    {
      "midi": 78,
      "hit": false,
      "t": 177841.66666666666,
      "d": 108.33333333334303,
      "v": 54
    },
    {
      "midi": 77,
      "hit": false,
      "t": 177983.33333333334,
      "d": 100,
      "v": 34
    },
    {
      "midi": 63,
      "hit": false,
      "t": 178083.33333333334,
      "d": 1399.999999999971,
      "v": 38
    },
    {
      "midi": 58,
      "hit": false,
      "t": 178091.6666666667,
      "d": 1574.999999999971,
      "v": 28
    },
    {
      "midi": 56,
      "hit": false,
      "t": 178125.00000000003,
      "d": 1466.6666666666279,
      "v": 18
    },
    {
      "midi": 75,
      "hit": false,
      "t": 178150.00000000003,
      "d": 75,
      "v": 59
    },
    {
      "midi": 76,
      "hit": false,
      "t": 178291.6666666667,
      "d": 50,
      "v": 16
    },
    {
      "midi": 73,
      "hit": false,
      "t": 178408.33333333334,
      "d": 125,
      "v": 46
    },
    {
      "midi": 72,
      "hit": false,
      "t": 178600,
      "d": 91.66666666665697,
      "v": 41
    },
    {
      "midi": 52,
      "hit": false,
      "t": 178650,
      "d": 958.3333333333139,
      "v": 1
    },
    {
      "midi": 70,
      "hit": false,
      "t": 178766.66666666666,
      "d": 141.66666666665697,
      "v": 43
    },
    {
      "midi": 68,
      "hit": false,
      "t": 178958.3333333333,
      "d": 650,
      "v": 49
    },
    {
      "midi": 67,
      "hit": false,
      "t": 179716.66666666666,
      "d": 100,
      "v": 36
    },
    {
      "midi": 58,
      "hit": false,
      "t": 179741.66666666666,
      "d": 91.66666666665697,
      "v": 11
    },
    {
      "midi": 65,
      "hit": false,
      "t": 179841.66666666666,
      "d": 100,
      "v": 36
    },
    {
      "midi": 70,
      "hit": false,
      "t": 180016.66666666666,
      "d": 166.66666666665697,
      "v": 56
    },
    {
      "midi": 63,
      "hit": false,
      "t": 180016.66666666666,
      "d": 433.33333333331393,
      "v": 26
    },
    {
      "midi": 60,
      "hit": false,
      "t": 180016.66666666666,
      "d": 958.3333333333139,
      "v": 35
    },
    {
      "midi": 53,
      "hit": false,
      "t": 180041.66666666666,
      "d": 1150,
      "v": 19
    },
    {
      "midi": 67,
      "hit": false,
      "t": 180199.99999999997,
      "d": 50,
      "v": 31
    },
    {
      "midi": 68,
      "hit": false,
      "t": 180349.99999999997,
      "d": 133.33333333334303,
      "v": 52
    },
    {
      "midi": 56,
      "hit": false,
      "t": 180499.99999999997,
      "d": 683.333333333343,
      "v": 1
    },
    {
      "midi": 64,
      "hit": false,
      "t": 180508.3333333333,
      "d": 291.66666666665697,
      "v": 32
    },
    {
      "midi": 67,
      "hit": false,
      "t": 180841.66666666663,
      "d": 141.66666666668607,
      "v": 61
    },
    {
      "midi": 65,
      "hit": false,
      "t": 181049.99999999997,
      "d": 183.33333333334303,
      "v": 56
    },
    {
      "midi": 60,
      "hit": false,
      "t": 181341.66666666666,
      "d": 83.33333333334303,
      "v": 43
    },
    {
      "midi": 56,
      "hit": false,
      "t": 181516.66666666666,
      "d": 291.66666666668607,
      "v": 42
    },
    {
      "midi": 55,
      "hit": false,
      "t": 181858.33333333334,
      "d": 75,
      "v": 30
    },
    {
      "midi": 48,
      "hit": false,
      "t": 181866.6666666667,
      "d": 108.33333333331393,
      "v": 32
    },
    {
      "midi": 56,
      "hit": false,
      "t": 182008.3333333333,
      "d": 366.66666666665697,
      "v": 46
    },
    {
      "midi": 51,
      "hit": false,
      "t": 182016.66666666666,
      "d": 341.66666666665697,
      "v": 35
    },
    {
      "midi": 58,
      "hit": false,
      "t": 182541.66666666663,
      "d": 275,
      "v": 60
    },
    {
      "midi": 60,
      "hit": false,
      "t": 183016.66666666663,
      "d": 325,
      "v": 57
    },
    {
      "midi": 51,
      "hit": false,
      "t": 183016.66666666663,
      "d": 333.33333333334303,
      "v": 28
    },
    {
      "midi": 56,
      "hit": false,
      "t": 183033.33333333328,
      "d": 275,
      "v": 33
    },
    {
      "midi": 63,
      "hit": false,
      "t": 183483.3333333333,
      "d": 300,
      "v": 40
    },
    {
      "midi": 51,
      "hit": false,
      "t": 183499.99999999997,
      "d": 341.66666666668607,
      "v": 30
    },
    {
      "midi": 56,
      "hit": false,
      "t": 183499.99999999997,
      "d": 375.0000000000291,
      "v": 25
    },
    {
      "midi": 60,
      "hit": false,
      "t": 183508.3333333333,
      "d": 225,
      "v": 46
    },
    {
      "midi": 46,
      "hit": false,
      "t": 183883.33333333334,
      "d": 66.66666666668607,
      "v": 29
    },
    {
      "midi": 49,
      "hit": false,
      "t": 183891.6666666667,
      "d": 66.66666666668607,
      "v": 33
    },
    {
      "midi": 65,
      "hit": false,
      "t": 184008.33333333337,
      "d": 191.66666666668607,
      "v": 54
    },
    {
      "midi": 56,
      "hit": false,
      "t": 184025.00000000003,
      "d": 350.0000000000582,
      "v": 28
    },
    {
      "midi": 60,
      "hit": false,
      "t": 184033.33333333337,
      "d": 325.0000000000291,
      "v": 37
    },
    {
      "midi": 63,
      "hit": false,
      "t": 184033.33333333337,
      "d": 350.0000000000582,
      "v": 29
    },
    {
      "midi": 52,
      "hit": false,
      "t": 184041.66666666672,
      "d": 308.33333333334303,
      "v": 20
    },
    {
      "midi": 51,
      "hit": false,
      "t": 184366.66666666674,
      "d": 66.66666666668607,
      "v": 37
    },
    {
      "midi": 55,
      "hit": false,
      "t": 184466.66666666677,
      "d": 491.66666666668607,
      "v": 71
    },
    {
      "midi": 56,
      "hit": false,
      "t": 184475.00000000012,
      "d": 366.66666666668607,
      "v": 46
    },
    {
      "midi": 60,
      "hit": false,
      "t": 184475.00000000012,
      "d": 408.33333333334303,
      "v": 55
    },
    {
      "midi": 63,
      "hit": false,
      "t": 184475.00000000012,
      "d": 525,
      "v": 38
    },
    {
      "midi": 67,
      "hit": false,
      "t": 184483.33333333346,
      "d": 408.33333333334303,
      "v": 62
    },
    {
      "midi": 53,
      "hit": false,
      "t": 184975.00000000012,
      "d": 108.33333333334303,
      "v": 44
    },
    {
      "midi": 65,
      "hit": false,
      "t": 184991.66666666677,
      "d": 33.333333333343035,
      "v": 29
    },
    {
      "midi": 58,
      "hit": false,
      "t": 185300.00000000012,
      "d": 300,
      "v": 59
    },
    {
      "midi": 63,
      "hit": false,
      "t": 185316.66666666677,
      "d": 241.66666666668607,
      "v": 51
    },
    {
      "midi": 70,
      "hit": false,
      "t": 185316.66666666677,
      "d": 266.66666666668607,
      "v": 63
    },
    {
      "midi": 67,
      "hit": false,
      "t": 185333.33333333343,
      "d": 158.33333333334303,
      "v": 53
    },
    {
      "midi": 60,
      "hit": false,
      "t": 185333.33333333343,
      "d": 200.0000000000291,
      "v": 65
    },
    {
      "midi": 56,
      "hit": false,
      "t": 185650.00000000012,
      "d": 100,
      "v": 42
    },
    {
      "midi": 68,
      "hit": false,
      "t": 185658.33333333346,
      "d": 100,
      "v": 53
    },
    {
      "midi": 60,
      "hit": false,
      "t": 185675.00000000012,
      "d": 33.333333333343035,
      "v": 31
    },
    {
      "midi": 63,
      "hit": false,
      "t": 185675.00000000012,
      "d": 33.333333333343035,
      "v": 27
    },
    {
      "midi": 79,
      "hit": false,
      "t": 186050.00000000012,
      "d": 266.66666666668607,
      "v": 66
    },
    {
      "midi": 72,
      "hit": false,
      "t": 186058.33333333346,
      "d": 800.0000000000291,
      "v": 63
    },
    {
      "midi": 68,
      "hit": false,
      "t": 186066.6666666668,
      "d": 675,
      "v": 43
    },
    {
      "midi": 56,
      "hit": false,
      "t": 186075.00000000015,
      "d": 933.333333333343,
      "v": 30
    },
    {
      "midi": 64,
      "hit": false,
      "t": 186083.3333333335,
      "d": 549.9999999999709,
      "v": 33
    },
    {
      "midi": 60,
      "hit": false,
      "t": 186083.3333333335,
      "d": 608.3333333333139,
      "v": 42
    },
    {
      "midi": 75,
      "hit": false,
      "t": 186325.00000000015,
      "d": 41.666666666656965,
      "v": 14
    },
    {
      "midi": 78,
      "hit": false,
      "t": 186408.33333333346,
      "d": 216.66666666665697,
      "v": 64
    },
    {
      "midi": 77,
      "hit": false,
      "t": 186750.00000000015,
      "d": 258.33333333334303,
      "v": 64
    },
    {
      "midi": 56,
      "hit": false,
      "t": 187100.00000000015,
      "d": 616.6666666667152,
      "v": 18
    },
    {
      "midi": 51,
      "hit": false,
      "t": 187100.00000000015,
      "d": 741.6666666667152,
      "v": 35
    },
    {
      "midi": 77,
      "hit": false,
      "t": 187100.00000000015,
      "d": 875.0000000000291,
      "v": 35
    },
    {
      "midi": 60,
      "hit": false,
      "t": 187108.3333333335,
      "d": 683.3333333333721,
      "v": 36
    },
    {
      "midi": 68,
      "hit": false,
      "t": 187125.00000000017,
      "d": 758.333333333343,
      "v": 27
    },
    {
      "midi": 72,
      "hit": false,
      "t": 187125.00000000017,
      "d": 800,
      "v": 45
    },
    {
      "midi": 66,
      "hit": false,
      "t": 188100.00000000017,
      "d": 725,
      "v": 30
    },
    {
      "midi": 77,
      "hit": false,
      "t": 188116.66666666683,
      "d": 566.6666666666861,
      "v": 32
    },
    {
      "midi": 60,
      "hit": false,
      "t": 188116.66666666683,
      "d": 616.6666666666861,
      "v": 35
    },
    {
      "midi": 54,
      "hit": false,
      "t": 188125.00000000017,
      "d": 675,
      "v": 26
    },
    {
      "midi": 72,
      "hit": false,
      "t": 188133.33333333352,
      "d": 508.33333333334303,
      "v": 34
    },
    {
      "midi": 50,
      "hit": false,
      "t": 188166.66666666686,
      "d": 1774.999999999971,
      "v": 25
    },
    {
      "midi": 54,
      "hit": false,
      "t": 189108.33333333352,
      "d": 908.3333333333139,
      "v": 31
    },
    {
      "midi": 60,
      "hit": false,
      "t": 189333.33333333352,
      "d": 333.33333333334303,
      "v": 48
    },
    {
      "midi": 61,
      "hit": false,
      "t": 189683.33333333352,
      "d": 125,
      "v": 38
    },
    {
      "midi": 62,
      "hit": false,
      "t": 189808.33333333352,
      "d": 83.33333333331393,
      "v": 52
    },
    {
      "midi": 63,
      "hit": false,
      "t": 189925.00000000017,
      "d": 75,
      "v": 49
    },
    {
      "midi": 64,
      "hit": false,
      "t": 190016.66666666683,
      "d": 75,
      "v": 61
    },
    {
      "midi": 65,
      "hit": false,
      "t": 190241.66666666683,
      "d": 66.66666666665697,
      "v": 47
    },
    {
      "midi": 66,
      "hit": false,
      "t": 190333.3333333335,
      "d": 33.333333333343035,
      "v": 30
    },
    {
      "midi": 67,
      "hit": false,
      "t": 190416.66666666683,
      "d": 100,
      "v": 22
    },
    {
      "midi": 68,
      "hit": false,
      "t": 190525.00000000017,
      "d": 100,
      "v": 48
    },
    {
      "midi": 69,
      "hit": false,
      "t": 190616.66666666683,
      "d": 75,
      "v": 50
    },
    {
      "midi": 59,
      "hit": false,
      "t": 190700.00000000017,
      "d": 683.333333333343,
      "v": 28
    },
    {
      "midi": 64,
      "hit": false,
      "t": 190708.33333333352,
      "d": 500,
      "v": 32
    },
    {
      "midi": 70,
      "hit": false,
      "t": 190716.66666666686,
      "d": 700,
      "v": 64
    },
    {
      "midi": 53,
      "hit": false,
      "t": 190725.0000000002,
      "d": 749.9999999999709,
      "v": 32
    },
    {
      "midi": 68,
      "hit": false,
      "t": 191333.33333333352,
      "d": 100,
      "v": 44
    },
    {
      "midi": 63,
      "hit": false,
      "t": 191408.33333333352,
      "d": 141.66666666665697,
      "v": 39
    },
    {
      "midi": 59,
      "hit": false,
      "t": 191533.33333333352,
      "d": 366.66666666665697,
      "v": 42
    },
    {
      "midi": 70,
      "hit": false,
      "t": 191908.33333333352,
      "d": 91.66666666665697,
      "v": 48
    },
    {
      "midi": 68,
      "hit": false,
      "t": 191983.33333333352,
      "d": 100,
      "v": 20
    },
    {
      "midi": 67,
      "hit": false,
      "t": 192058.33333333352,
      "d": 91.66666666665697,
      "v": 30
    },
    {
      "midi": 63,
      "hit": false,
      "t": 192133.33333333352,
      "d": 91.66666666665697,
      "v": 31
    },
    {
      "midi": 62,
      "hit": false,
      "t": 192225.00000000017,
      "d": 58.333333333343035,
      "v": 39
    },
    {
      "midi": 55,
      "hit": false,
      "t": 192275.00000000017,
      "d": 766.6666666666861,
      "v": 10
    },
    {
      "midi": 58,
      "hit": false,
      "t": 192283.33333333352,
      "d": 433.33333333331393,
      "v": 23
    },
    {
      "midi": 48,
      "hit": false,
      "t": 192300.00000000017,
      "d": 1408.333333333343,
      "v": 31
    },
    {
      "midi": 67,
      "hit": false,
      "t": 192358.33333333352,
      "d": 108.33333333334303,
      "v": 52
    },
    {
      "midi": 62,
      "hit": false,
      "t": 192508.33333333352,
      "d": 50,
      "v": 44
    },
    {
      "midi": 65,
      "hit": false,
      "t": 192625.00000000017,
      "d": 75,
      "v": 32
    },
    {
      "midi": 62,
      "hit": false,
      "t": 192733.3333333335,
      "d": 50,
      "v": 29
    },
    {
      "midi": 63,
      "hit": false,
      "t": 192816.66666666683,
      "d": 108.33333333334303,
      "v": 48
    },
    {
      "midi": 59,
      "hit": false,
      "t": 192941.66666666683,
      "d": 33.333333333343035,
      "v": 29
    },
    {
      "midi": 62,
      "hit": false,
      "t": 193008.33333333352,
      "d": 291.66666666665697,
      "v": 60
    },
    {
      "midi": 55,
      "hit": false,
      "t": 193166.66666666686,
      "d": 41.666666666656965,
      "v": 44
    },
    {
      "midi": 55,
      "hit": false,
      "t": 193325.00000000017,
      "d": 83.33333333334303,
      "v": 54
    },
    {
      "midi": 55,
      "hit": false,
      "t": 193500.00000000017,
      "d": 83.33333333334303,
      "v": 49
    },
    {
      "midi": 55,
      "hit": false,
      "t": 193666.66666666686,
      "d": 66.66666666665697,
      "v": 55
    },
    {
      "midi": 55,
      "hit": false,
      "t": 193808.33333333352,
      "d": 66.66666666665697,
      "v": 59
    },
    {
      "midi": 55,
      "hit": false,
      "t": 193958.33333333352,
      "d": 491.66666666665697,
      "v": 62
    },
    {
      "midi": 62,
      "hit": false,
      "t": 194458.33333333352,
      "d": 41.666666666656965,
      "v": 66
    },
    {
      "midi": 63,
      "hit": false,
      "t": 194816.66666666683,
      "d": 108.33333333334303,
      "v": 71
    },
    {
      "midi": 62,
      "hit": false,
      "t": 194991.66666666683,
      "d": 108.33333333334303,
      "v": 71
    },
    {
      "midi": 60,
      "hit": false,
      "t": 195341.66666666683,
      "d": 133.33333333334303,
      "v": 67
    },
    {
      "midi": 55,
      "hit": false,
      "t": 195541.66666666683,
      "d": 375,
      "v": 48
    },
    {
      "midi": 39,
      "hit": false,
      "t": 195858.3333333335,
      "d": 50,
      "v": 35
    },
    {
      "midi": 56,
      "hit": false,
      "t": 196025.00000000017,
      "d": 525,
      "v": 49
    },
    {
      "midi": 50,
      "hit": false,
      "t": 196033.33333333352,
      "d": 416.66666666665697,
      "v": 49
    },
    {
      "midi": 56,
      "hit": false,
      "t": 197016.66666666683,
      "d": 608.3333333333721,
      "v": 30
    },
    {
      "midi": 60,
      "hit": false,
      "t": 197016.66666666683,
      "d": 641.6666666667152,
      "v": 44
    },
    {
      "midi": 50,
      "hit": false,
      "t": 197041.66666666683,
      "d": 541.6666666666861,
      "v": 30
    },
    {
      "midi": 65,
      "hit": false,
      "t": 197375.00000000017,
      "d": 25,
      "v": 52
    },
    {
      "midi": 68,
      "hit": false,
      "t": 197525.00000000017,
      "d": 316.6666666667152,
      "v": 94
    },
    {
      "midi": 75,
      "hit": false,
      "t": 197875.00000000023,
      "d": 208.33333333334303,
      "v": 80
    },
    {
      "midi": 59,
      "hit": false,
      "t": 197900.00000000023,
      "d": 1658.333333333343,
      "v": 53
    },
    {
      "midi": 64,
      "hit": false,
      "t": 197908.33333333358,
      "d": 1308.333333333343,
      "v": 52
    },
    {
      "midi": 53,
      "hit": false,
      "t": 197941.66666666692,
      "d": 1666.666666666657,
      "v": 26
    },
    {
      "midi": 75,
      "hit": false,
      "t": 198200.00000000023,
      "d": 83.33333333334303,
      "v": 71
    },
    {
      "midi": 76,
      "hit": false,
      "t": 198283.33333333358,
      "d": 316.66666666665697,
      "v": 66
    },
    {
      "midi": 71,
      "hit": false,
      "t": 198616.6666666669,
      "d": 1025.000000000029,
      "v": 45
    },
    {
      "midi": 68,
      "hit": false,
      "t": 199108.33333333358,
      "d": 658.333333333343,
      "v": 49
    },
    {
      "midi": 67,
      "hit": false,
      "t": 199783.33333333358,
      "d": 158.33333333334303,
      "v": 46
    },
    {
      "midi": 65,
      "hit": false,
      "t": 200025.00000000023,
      "d": 1225,
      "v": 44
    },
    {
      "midi": 48,
      "hit": false,
      "t": 200041.6666666669,
      "d": 2816.666666666657,
      "v": 29
    },
    {
      "midi": 55,
      "hit": false,
      "t": 200041.6666666669,
      "d": 3008.333333333343,
      "v": 25
    },
    {
      "midi": 63,
      "hit": false,
      "t": 201216.6666666669,
      "d": 125,
      "v": 56
    },
    {
      "midi": 59,
      "hit": false,
      "t": 201375.00000000023,
      "d": 58.333333333343035,
      "v": 46
    },
    {
      "midi": 62,
      "hit": false,
      "t": 201525.00000000023,
      "d": 116.66666666665697,
      "v": 76
    },
    {
      "midi": 59,
      "hit": false,
      "t": 201666.6666666669,
      "d": 66.66666666665697,
      "v": 44
    },
    {
      "midi": 60,
      "hit": false,
      "t": 201833.33333333355,
      "d": 100,
      "v": 67
    },
    {
      "midi": 62,
      "hit": false,
      "t": 202000.0000000002,
      "d": 83.33333333334303,
      "v": 61
    },
    {
      "midi": 63,
      "hit": false,
      "t": 202158.33333333355,
      "d": 66.66666666665697,
      "v": 54
    },
    {
      "midi": 67,
      "hit": false,
      "t": 202316.66666666686,
      "d": 58.333333333343035,
      "v": 62
    },
    {
      "midi": 71,
      "hit": false,
      "t": 202475.0000000002,
      "d": 116.66666666665697,
      "v": 84
    },
    {
      "midi": 74,
      "hit": false,
      "t": 202625.0000000002,
      "d": 133.33333333334303,
      "v": 87
    },
    {
      "midi": 71,
      "hit": false,
      "t": 202775.0000000002,
      "d": 191.66666666668607,
      "v": 76
    },
    {
      "midi": 72,
      "hit": false,
      "t": 202933.33333333355,
      "d": 108.33333333334303,
      "v": 62
    },
    {
      "midi": 74,
      "hit": false,
      "t": 203083.33333333358,
      "d": 91.66666666665697,
      "v": 54
    },
    {
      "midi": 75,
      "hit": false,
      "t": 203233.33333333358,
      "d": 83.33333333334303,
      "v": 77
    },
    {
      "midi": 79,
      "hit": false,
      "t": 203391.66666666692,
      "d": 83.33333333334303,
      "v": 71
    },
    {
      "midi": 83,
      "hit": false,
      "t": 203550.00000000026,
      "d": 91.66666666665697,
      "v": 73
    },
    {
      "midi": 86,
      "hit": false,
      "t": 203708.33333333358,
      "d": 58.333333333343035,
      "v": 66
    },
    {
      "midi": 89,
      "hit": false,
      "t": 203866.66666666692,
      "d": 66.66666666665697,
      "v": 74
    },
    {
      "midi": 90,
      "hit": false,
      "t": 204041.6666666669,
      "d": 158.33333333334303,
      "v": 67
    },
    {
      "midi": 56,
      "hit": false,
      "t": 204041.6666666669,
      "d": 575.0000000000291,
      "v": 35
    },
    {
      "midi": 60,
      "hit": false,
      "t": 204041.6666666669,
      "d": 608.3333333333721,
      "v": 57
    },
    {
      "midi": 78,
      "hit": false,
      "t": 204050.00000000023,
      "d": 183.33333333334303,
      "v": 69
    },
    {
      "midi": 50,
      "hit": false,
      "t": 204050.00000000023,
      "d": 516.6666666666861,
      "v": 42
    },
    {
      "midi": 91,
      "hit": false,
      "t": 204183.33333333358,
      "d": 216.66666666668607,
      "v": 18
    },
    {
      "midi": 79,
      "hit": false,
      "t": 204241.66666666692,
      "d": 200,
      "v": 34
    },
    {
      "midi": 89,
      "hit": false,
      "t": 204516.66666666692,
      "d": 341.66666666668607,
      "v": 50
    },
    {
      "midi": 77,
      "hit": false,
      "t": 204541.66666666692,
      "d": 391.66666666668607,
      "v": 39
    },
    {
      "midi": 65,
      "hit": false,
      "t": 205000.00000000026,
      "d": 650,
      "v": 40
    },
    {
      "midi": 87,
      "hit": false,
      "t": 205000.00000000026,
      "d": 841.666666666657,
      "v": 58
    },
    {
      "midi": 60,
      "hit": false,
      "t": 205016.66666666692,
      "d": 616.6666666666861,
      "v": 33
    },
    {
      "midi": 54,
      "hit": false,
      "t": 205025.00000000026,
      "d": 900,
      "v": 30
    },
    {
      "midi": 84,
      "hit": false,
      "t": 205775.00000000026,
      "d": 91.66666666665697,
      "v": 32
    },
    {
      "midi": 90,
      "hit": false,
      "t": 206033.33333333358,
      "d": 366.66666666668607,
      "v": 59
    },
    {
      "midi": 64,
      "hit": false,
      "t": 206033.33333333358,
      "d": 1591.666666666686,
      "v": 47
    },
    {
      "midi": 59,
      "hit": false,
      "t": 206033.33333333358,
      "d": 1600.000000000029,
      "v": 36
    },
    {
      "midi": 78,
      "hit": false,
      "t": 206041.66666666692,
      "d": 333.33333333334303,
      "v": 69
    },
    {
      "midi": 53,
      "hit": false,
      "t": 206041.66666666692,
      "d": 1608.333333333343,
      "v": 35
    },
    {
      "midi": 89,
      "hit": false,
      "t": 206408.3333333336,
      "d": 591.666666666657,
      "v": 62
    },
    {
      "midi": 77,
      "hit": false,
      "t": 206416.66666666695,
      "d": 691.6666666666279,
      "v": 29
    },
    {
      "midi": 87,
      "hit": false,
      "t": 207066.66666666692,
      "d": 675,
      "v": 56
    },
    {
      "midi": 83,
      "hit": false,
      "t": 207791.66666666692,
      "d": 116.66666666665697,
      "v": 27
    },
    {
      "midi": 62,
      "hit": false,
      "t": 208008.33333333358,
      "d": 1458.3333333334594,
      "v": 43
    },
    {
      "midi": 86,
      "hit": false,
      "t": 208016.66666666692,
      "d": 116.66666666668607,
      "v": 83
    },
    {
      "midi": 51,
      "hit": false,
      "t": 208025.00000000026,
      "d": 1383.3333333334303,
      "v": 29
    },
    {
      "midi": 57,
      "hit": false,
      "t": 208050.00000000026,
      "d": 1350.0000000000873,
      "v": 40
    },
    {
      "midi": 84,
      "hit": false,
      "t": 208191.66666666695,
      "d": 83.33333333334303,
      "v": 64
    },
    {
      "midi": 79,
      "hit": false,
      "t": 208333.33333333363,
      "d": 108.33333333334303,
      "v": 44
    },
    {
      "midi": 78,
      "hit": false,
      "t": 208475.00000000032,
      "d": 83.33333333334303,
      "v": 34
    },
    {
      "midi": 77,
      "hit": false,
      "t": 208641.666666667,
      "d": 1100.000000000029,
      "v": 22
    },
    {
      "midi": 75,
      "hit": false,
      "t": 209866.66666666704,
      "d": 66.66666666665697,
      "v": 62
    },
    {
      "midi": 63,
      "hit": false,
      "t": 210108.3333333337,
      "d": 1566.6666666666279,
      "v": 37
    },
    {
      "midi": 67,
      "hit": false,
      "t": 210116.66666666704,
      "d": 1358.3333333332848,
      "v": 39
    },
    {
      "midi": 59,
      "hit": false,
      "t": 210116.66666666704,
      "d": 1591.6666666666279,
      "v": 34
    },
    {
      "midi": 75,
      "hit": false,
      "t": 210133.3333333337,
      "d": 125,
      "v": 62
    },
    {
      "midi": 74,
      "hit": false,
      "t": 210500.00000000035,
      "d": 83.33333333334303,
      "v": 42
    },
    {
      "midi": 72,
      "hit": false,
      "t": 210608.3333333337,
      "d": 91.66666666665697,
      "v": 34
    },
    {
      "midi": 71,
      "hit": false,
      "t": 210725.00000000035,
      "d": 191.66666666665697,
      "v": 31
    },
    {
      "midi": 74,
      "hit": false,
      "t": 211008.33333333366,
      "d": 116.66666666665697,
      "v": 71
    },
    {
      "midi": 73,
      "hit": false,
      "t": 211350.00000000032,
      "d": 75,
      "v": 38
    },
    {
      "midi": 71,
      "hit": false,
      "t": 211575.00000000032,
      "d": 83.33333333334303,
      "v": 64
    },
    {
      "midi": 70,
      "hit": false,
      "t": 211800.00000000032,
      "d": 125,
      "v": 59
    },
    {
      "midi": 68,
      "hit": false,
      "t": 211966.66666666698,
      "d": 133.33333333334303,
      "v": 56
    },
    {
      "midi": 59,
      "hit": false,
      "t": 212033.33333333363,
      "d": 825.0000000000291,
      "v": 35
    },
    {
      "midi": 56,
      "hit": false,
      "t": 212075.00000000032,
      "d": 1391.666666666657,
      "v": 18
    },
    {
      "midi": 63,
      "hit": false,
      "t": 212116.66666666698,
      "d": 541.666666666657,
      "v": 13
    },
    {
      "midi": 65,
      "hit": false,
      "t": 212183.33333333363,
      "d": 125,
      "v": 30
    },
    {
      "midi": 71,
      "hit": false,
      "t": 212416.66666666698,
      "d": 141.66666666665697,
      "v": 66
    },
    {
      "midi": 53,
      "hit": false,
      "t": 212650.0000000003,
      "d": 833.333333333343,
      "v": 1
    },
    {
      "midi": 70,
      "hit": false,
      "t": 212666.66666666698,
      "d": 133.33333333334303,
      "v": 60
    },
    {
      "midi": 68,
      "hit": false,
      "t": 212908.33333333366,
      "d": 125,
      "v": 53
    },
    {
      "midi": 63,
      "hit": false,
      "t": 213091.666666667,
      "d": 624.9999999999709,
      "v": 35
    },
    {
      "midi": 59,
      "hit": false,
      "t": 213275.00000000032,
      "d": 383.33333333331393,
      "v": 29
    },
    {
      "midi": 75,
      "hit": false,
      "t": 214350.0000000003,
      "d": 250.0000000000291,
      "v": 81
    },
    {
      "midi": 82,
      "hit": false,
      "t": 214350.0000000003,
      "d": 258.33333333337214,
      "v": 84
    },
    {
      "midi": 66,
      "hit": false,
      "t": 214350.0000000003,
      "d": 266.6666666667152,
      "v": 76
    },
    {
      "midi": 62,
      "hit": false,
      "t": 214350.0000000003,
      "d": 1250.0000000000582,
      "v": 70
    },
    {
      "midi": 71,
      "hit": false,
      "t": 214358.33333333363,
      "d": 233.33333333334303,
      "v": 80
    },
    {
      "midi": 56,
      "hit": false,
      "t": 214358.33333333363,
      "d": 241.66666666668607,
      "v": 60
    },
    {
      "midi": 75,
      "hit": false,
      "t": 214658.33333333366,
      "d": 350,
      "v": 57
    },
    {
      "midi": 71,
      "hit": false,
      "t": 214666.666666667,
      "d": 275,
      "v": 47
    },
    {
      "midi": 80,
      "hit": false,
      "t": 214666.666666667,
      "d": 341.66666666665697,
      "v": 67
    },
    {
      "midi": 56,
      "hit": false,
      "t": 214675.00000000035,
      "d": 308.33333333331393,
      "v": 51
    },
    {
      "midi": 69,
      "hit": false,
      "t": 215108.33333333366,
      "d": 616.6666666666861,
      "v": 44
    },
    {
      "midi": 66,
      "hit": false,
      "t": 215116.666666667,
      "d": 483.33333333334303,
      "v": 40
    },
    {
      "midi": 81,
      "hit": false,
      "t": 215116.666666667,
      "d": 550,
      "v": 48
    },
    {
      "midi": 74,
      "hit": false,
      "t": 215116.666666667,
      "d": 708.333333333343,
      "v": 35
    },
    {
      "midi": 56,
      "hit": false,
      "t": 215133.33333333366,
      "d": 558.333333333343,
      "v": 31
    },
    {
      "midi": 71,
      "hit": false,
      "t": 215141.666666667,
      "d": 33.333333333343035,
      "v": 32
    },
    {
      "midi": 80,
      "hit": false,
      "t": 215858.3333333337,
      "d": 150,
      "v": 53
    },
    {
      "midi": 62,
      "hit": false,
      "t": 216116.66666666704,
      "d": 825.0000000000291,
      "v": 31
    },
    {
      "midi": 81,
      "hit": false,
      "t": 216125.00000000038,
      "d": 66.66666666668607,
      "v": 34
    },
    {
      "midi": 58,
      "hit": false,
      "t": 216125.00000000038,
      "d": 825.0000000000291,
      "v": 35
    },
    {
      "midi": 54,
      "hit": false,
      "t": 216133.33333333372,
      "d": 850.0000000000291,
      "v": 34
    },
    {
      "midi": 51,
      "hit": false,
      "t": 216141.66666666706,
      "d": 3100.0000000001164,
      "v": 20
    },
    {
      "midi": 62,
      "hit": false,
      "t": 217083.33333333375,
      "d": 741.6666666666861,
      "v": 29
    },
    {
      "midi": 58,
      "hit": false,
      "t": 217091.6666666671,
      "d": 766.6666666666861,
      "v": 28
    },
    {
      "midi": 54,
      "hit": false,
      "t": 217091.6666666671,
      "d": 2491.6666666667443,
      "v": 28
    },
    {
      "midi": 77,
      "hit": false,
      "t": 217300.00000000044,
      "d": 525,
      "v": 66
    },
    {
      "midi": 73,
      "hit": false,
      "t": 217308.33333333378,
      "d": 375,
      "v": 46
    },
    {
      "midi": 75,
      "hit": false,
      "t": 217750.00000000044,
      "d": 250.0000000000291,
      "v": 56
    },
    {
      "midi": 72,
      "hit": false,
      "t": 217775.00000000044,
      "d": 116.66666666668607,
      "v": 34
    },
    {
      "midi": 74,
      "hit": false,
      "t": 218041.66666666712,
      "d": 375,
      "v": 47
    },
    {
      "midi": 70,
      "hit": false,
      "t": 218041.66666666712,
      "d": 508.33333333334303,
      "v": 40
    },
    {
      "midi": 62,
      "hit": false,
      "t": 218066.66666666712,
      "d": 633.333333333343,
      "v": 35
    },
    {
      "midi": 58,
      "hit": false,
      "t": 218066.66666666712,
      "d": 691.6666666666861,
      "v": 29
    },
    {
      "midi": 75,
      "hit": false,
      "t": 218391.66666666712,
      "d": 400.0000000000291,
      "v": 63
    },
    {
      "midi": 70,
      "hit": false,
      "t": 219016.66666666715,
      "d": 208.33333333337214,
      "v": 38
    },
    {
      "midi": 62,
      "hit": false,
      "t": 219016.66666666715,
      "d": 233.33333333337214,
      "v": 33
    },
    {
      "midi": 73,
      "hit": false,
      "t": 219025.0000000005,
      "d": 866.6666666666861,
      "v": 27
    },
    {
      "midi": 58,
      "hit": false,
      "t": 219041.66666666718,
      "d": 591.666666666657,
      "v": 20
    },
    {
      "midi": 51,
      "hit": false,
      "t": 219358.33333333387,
      "d": 258.33333333331393,
      "v": 35
    },
    {
      "midi": 66,
      "hit": false,
      "t": 219375.00000000052,
      "d": 366.66666666665697,
      "v": 30
    },
    {
      "midi": 61,
      "hit": false,
      "t": 220025.00000000052,
      "d": 1141.666666666657,
      "v": 29
    },
    {
      "midi": 59,
      "hit": false,
      "t": 220025.00000000052,
      "d": 3891.666666666657,
      "v": 29
    },
    {
      "midi": 65,
      "hit": false,
      "t": 220033.33333333387,
      "d": 833.3333333333139,
      "v": 42
    },
    {
      "midi": 71,
      "hit": false,
      "t": 220033.33333333387,
      "d": 908.3333333333139,
      "v": 41
    },
    {
      "midi": 57,
      "hit": false,
      "t": 220066.6666666672,
      "d": 3841.666666666628,
      "v": 30
    },
    {
      "midi": 53,
      "hit": false,
      "t": 220083.33333333387,
      "d": 3833.333333333314,
      "v": 19
    },
    {
      "midi": 62,
      "hit": false,
      "t": 221325.00000000052,
      "d": 108.33333333334303,
      "v": 49
    },
    {
      "midi": 63,
      "hit": false,
      "t": 221475.00000000052,
      "d": 208.33333333334303,
      "v": 59
    },
    {
      "midi": 62,
      "hit": false,
      "t": 221483.33333333387,
      "d": 100,
      "v": 13
    },
    {
      "midi": 72,
      "hit": false,
      "t": 221708.33333333387,
      "d": 366.66666666665697,
      "v": 65
    },
    {
      "midi": 63,
      "hit": false,
      "t": 221975.00000000052,
      "d": 150,
      "v": 42
    },
    {
      "midi": 64,
      "hit": false,
      "t": 222133.33333333387,
      "d": 241.66666666665697,
      "v": 64
    },
    {
      "midi": 73,
      "hit": false,
      "t": 222325.00000000052,
      "d": 216.66666666665697,
      "v": 62
    },
    {
      "midi": 61,
      "hit": false,
      "t": 222350.00000000052,
      "d": 1666.666666666657,
      "v": 25
    },
    {
      "midi": 64,
      "hit": false,
      "t": 222516.66666666718,
      "d": 216.66666666665697,
      "v": 44
    },
    {
      "midi": 65,
      "hit": false,
      "t": 222691.66666666718,
      "d": 141.66666666665697,
      "v": 42
    },
    {
      "midi": 74,
      "hit": false,
      "t": 222866.66666666718,
      "d": 449.9999999999709,
      "v": 65
    },
    {
      "midi": 66,
      "hit": false,
      "t": 223191.66666666715,
      "d": 183.33333333334303,
      "v": 36
    },
    {
      "midi": 67,
      "hit": false,
      "t": 223458.33333333384,
      "d": 833.333333333343,
      "v": 16
    },
    {
      "midi": 75,
      "hit": false,
      "t": 223591.66666666718,
      "d": 966.666666666657,
      "v": 62
    },
    {
      "midi": 66,
      "hit": false,
      "t": 224466.66666666718,
      "d": 550,
      "v": 46
    },
    {
      "midi": 54,
      "hit": false,
      "t": 224483.33333333384,
      "d": 775,
      "v": 36
    },
    {
      "midi": 60,
      "hit": false,
      "t": 224500.0000000005,
      "d": 500.0000000000291,
      "v": 32
    },
    {
      "midi": 72,
      "hit": false,
      "t": 225016.66666666718,
      "d": 150,
      "v": 26
    },
    {
      "midi": 65,
      "hit": false,
      "t": 225475.0000000005,
      "d": 200,
      "v": 30
    },
    {
      "midi": 60,
      "hit": false,
      "t": 225491.66666666715,
      "d": 183.33333333334303,
      "v": 33
    },
    {
      "midi": 54,
      "hit": false,
      "t": 225500.0000000005,
      "d": 175,
      "v": 20
    },
    {
      "midi": 58,
      "hit": false,
      "t": 225500.0000000005,
      "d": 175,
      "v": 29
    },
    {
      "midi": 89,
      "hit": false,
      "t": 225775.0000000005,
      "d": 183.33333333337214,
      "v": 74
    },
    {
      "midi": 84,
      "hit": false,
      "t": 225783.33333333384,
      "d": 166.66666666668607,
      "v": 79
    },
    {
      "midi": 54,
      "hit": false,
      "t": 225783.33333333384,
      "d": 216.66666666668607,
      "v": 62
    },
    {
      "midi": 65,
      "hit": false,
      "t": 225783.33333333384,
      "d": 216.66666666668607,
      "v": 71
    },
    {
      "midi": 60,
      "hit": false,
      "t": 225783.33333333384,
      "d": 233.33333333334303,
      "v": 60
    },
    {
      "midi": 77,
      "hit": false,
      "t": 225791.66666666718,
      "d": 125,
      "v": 71
    },
    {
      "midi": 58,
      "hit": false,
      "t": 225791.66666666718,
      "d": 225,
      "v": 51
    },
    {
      "midi": 92,
      "hit": false,
      "t": 226125.00000000052,
      "d": 241.66666666671517,
      "v": 83
    },
    {
      "midi": 80,
      "hit": false,
      "t": 226133.33333333387,
      "d": 200.0000000000291,
      "v": 84
    },
    {
      "midi": 58,
      "hit": false,
      "t": 226133.33333333387,
      "d": 291.6666666667152,
      "v": 71
    },
    {
      "midi": 60,
      "hit": false,
      "t": 226141.6666666672,
      "d": 191.66666666668607,
      "v": 79
    },
    {
      "midi": 65,
      "hit": false,
      "t": 226141.6666666672,
      "d": 216.66666666668607,
      "v": 82
    },
    {
      "midi": 54,
      "hit": false,
      "t": 226141.6666666672,
      "d": 275.0000000000291,
      "v": 76
    },
    {
      "midi": 87,
      "hit": false,
      "t": 226150.00000000055,
      "d": 25,
      "v": 72
    },
    {
      "midi": 87,
      "hit": false,
      "t": 226208.3333333339,
      "d": 91.66666666665697,
      "v": 31
    },
    {
      "midi": 64,
      "hit": false,
      "t": 226491.66666666724,
      "d": 358.33333333337214,
      "v": 76
    },
    {
      "midi": 59,
      "hit": false,
      "t": 226491.66666666724,
      "d": 375.0000000000291,
      "v": 65
    },
    {
      "midi": 53,
      "hit": false,
      "t": 226500.00000000058,
      "d": 308.33333333334303,
      "v": 71
    },
    {
      "midi": 94,
      "hit": false,
      "t": 226508.33333333393,
      "d": 300,
      "v": 83
    },
    {
      "midi": 87,
      "hit": false,
      "t": 226508.33333333393,
      "d": 325,
      "v": 76
    },
    {
      "midi": 82,
      "hit": false,
      "t": 226508.33333333393,
      "d": 333.33333333334303,
      "v": 69
    },
    {
      "midi": 87,
      "hit": false,
      "t": 226925.0000000006,
      "d": 308.33333333334303,
      "v": 52
    },
    {
      "midi": 92,
      "hit": false,
      "t": 226925.0000000006,
      "d": 316.66666666668607,
      "v": 63
    },
    {
      "midi": 80,
      "hit": false,
      "t": 226925.0000000006,
      "d": 333.33333333337214,
      "v": 53
    },
    {
      "midi": 64,
      "hit": false,
      "t": 226925.0000000006,
      "d": 375.0000000000291,
      "v": 46
    },
    {
      "midi": 59,
      "hit": false,
      "t": 226933.33333333395,
      "d": 416.66666666668607,
      "v": 47
    },
    {
      "midi": 53,
      "hit": false,
      "t": 226958.33333333395,
      "d": 291.66666666668607,
      "v": 37
    },
    {
      "midi": 63,
      "hit": false,
      "t": 227550.00000000064,
      "d": 525.0000000000291,
      "v": 35
    },
    {
      "midi": 87,
      "hit": false,
      "t": 227558.33333333398,
      "d": 641.6666666666861,
      "v": 42
    },
    {
      "midi": 79,
      "hit": false,
      "t": 227558.33333333398,
      "d": 741.6666666666861,
      "v": 44
    },
    {
      "midi": 91,
      "hit": false,
      "t": 227566.66666666733,
      "d": 625,
      "v": 49
    },
    {
      "midi": 59,
      "hit": false,
      "t": 227575.00000000067,
      "d": 416.66666666668607,
      "v": 39
    },
    {
      "midi": 56,
      "hit": false,
      "t": 227575.00000000067,
      "d": 541.666666666657,
      "v": 27
    },
    {
      "midi": 53,
      "hit": false,
      "t": 227616.66666666736,
      "d": 441.66666666665697,
      "v": 15
    },
    {
      "midi": 86,
      "hit": false,
      "t": 228316.66666666733,
      "d": 75,
      "v": 53
    },
    {
      "midi": 89,
      "hit": false,
      "t": 228450.00000000067,
      "d": 100,
      "v": 72
    },
    {
      "midi": 62,
      "hit": false,
      "t": 228500.00000000067,
      "d": 1691.666666666686,
      "v": 33
    },
    {
      "midi": 57,
      "hit": false,
      "t": 228525.00000000067,
      "d": 1658.333333333343,
      "v": 34
    },
    {
      "midi": 51,
      "hit": false,
      "t": 228525.00000000067,
      "d": 1758.333333333343,
      "v": 26
    },
    {
      "midi": 55,
      "hit": false,
      "t": 228541.66666666733,
      "d": 1666.666666666686,
      "v": 34
    },
    {
      "midi": 87,
      "hit": false,
      "t": 228641.66666666733,
      "d": 83.33333333334303,
      "v": 51
    },
    {
      "midi": 79,
      "hit": false,
      "t": 228808.333333334,
      "d": 50,
      "v": 18
    },
    {
      "midi": 86,
      "hit": false,
      "t": 228925.00000000067,
      "d": 125,
      "v": 71
    },
    {
      "midi": 84,
      "hit": false,
      "t": 229100.00000000067,
      "d": 91.66666666665697,
      "v": 43
    },
    {
      "midi": 76,
      "hit": false,
      "t": 229241.66666666733,
      "d": 100,
      "v": 39
    },
    {
      "midi": 79,
      "hit": false,
      "t": 229391.66666666733,
      "d": 108.33333333334303,
      "v": 53
    },
    {
      "midi": 67,
      "hit": false,
      "t": 229991.66666666733,
      "d": 58.333333333343035,
      "v": 33
    },
    {
      "midi": 74,
      "hit": false,
      "t": 230158.333333334,
      "d": 75,
      "v": 58
    },
    {
      "midi": 75,
      "hit": false,
      "t": 230308.333333334,
      "d": 75,
      "v": 74
    },
    {
      "midi": 75,
      "hit": false,
      "t": 230466.66666666736,
      "d": 100,
      "v": 60
    },
    {
      "midi": 56,
      "hit": false,
      "t": 230633.33333333404,
      "d": 1141.666666666657,
      "v": 32
    },
    {
      "midi": 48,
      "hit": false,
      "t": 230666.66666666738,
      "d": 1449.999999999971,
      "v": 29
    },
    {
      "midi": 72,
      "hit": false,
      "t": 230816.66666666738,
      "d": 66.66666666665697,
      "v": 58
    },
    {
      "midi": 68,
      "hit": false,
      "t": 230975.0000000007,
      "d": 100,
      "v": 38
    },
    {
      "midi": 64,
      "hit": false,
      "t": 231158.33333333404,
      "d": 291.66666666665697,
      "v": 28
    },
    {
      "midi": 63,
      "hit": false,
      "t": 231508.33333333404,
      "d": 950,
      "v": 34
    },
    {
      "midi": 56,
      "hit": false,
      "t": 231950.0000000007,
      "d": 541.6666666666861,
      "v": 25
    },
    {
      "midi": 48,
      "hit": false,
      "t": 232350.0000000007,
      "d": 50,
      "v": 32
    },
    {
      "midi": 60,
      "hit": false,
      "t": 232366.66666666736,
      "d": 66.66666666668607,
      "v": 33
    },
    {
      "midi": 62,
      "hit": false,
      "t": 232550.00000000073,
      "d": 91.66666666668607,
      "v": 64
    },
    {
      "midi": 55,
      "hit": false,
      "t": 232558.33333333407,
      "d": 941.6666666666861,
      "v": 36
    },
    {
      "midi": 48,
      "hit": false,
      "t": 232566.6666666674,
      "d": 1591.666666666686,
      "v": 30
    },
    {
      "midi": 63,
      "hit": false,
      "t": 232691.6666666674,
      "d": 141.66666666665697,
      "v": 39
    },
    {
      "midi": 62,
      "hit": false,
      "t": 232766.6666666674,
      "d": 100,
      "v": 37
    },
    {
      "midi": 60,
      "hit": false,
      "t": 232900.00000000076,
      "d": 91.66666666665697,
      "v": 33
    },
    {
      "midi": 59,
      "hit": false,
      "t": 233016.6666666674,
      "d": 316.66666666665697,
      "v": 37
    },
    {
      "midi": 62,
      "hit": false,
      "t": 233341.6666666674,
      "d": 133.33333333334303,
      "v": 59
    },
    {
      "midi": 60,
      "hit": false,
      "t": 233533.3333333341,
      "d": 250,
      "v": 49
    },
    {
      "midi": 55,
      "hit": false,
      "t": 233841.66666666744,
      "d": 658.333333333343,
      "v": 44
    },
    {
      "midi": 56,
      "hit": false,
      "t": 234533.33333333413,
      "d": 250,
      "v": 44
    },
    {
      "midi": 48,
      "hit": false,
      "t": 234541.66666666747,
      "d": 1658.333333333343,
      "v": 40
    },
    {
      "midi": 60,
      "hit": false,
      "t": 234866.66666666747,
      "d": 108.33333333334303,
      "v": 45
    },
    {
      "midi": 56,
      "hit": false,
      "t": 235025.00000000081,
      "d": 758.333333333343,
      "v": 1
    },
    {
      "midi": 63,
      "hit": false,
      "t": 235050.00000000081,
      "d": 108.33333333334303,
      "v": 33
    },
    {
      "midi": 68,
      "hit": false,
      "t": 235233.33333333416,
      "d": 25,
      "v": 27
    },
    {
      "midi": 60,
      "hit": false,
      "t": 235558.33333333416,
      "d": 66.66666666665697,
      "v": 26
    },
    {
      "midi": 72,
      "hit": false,
      "t": 235725.00000000081,
      "d": 75,
      "v": 50
    },
    {
      "midi": 75,
      "hit": false,
      "t": 235825.00000000081,
      "d": 125,
      "v": 69
    },
    {
      "midi": 80,
      "hit": false,
      "t": 235966.66666666747,
      "d": 33.333333333343035,
      "v": 51
    },
    {
      "midi": 56,
      "hit": false,
      "t": 235966.66666666747,
      "d": 325,
      "v": 25
    },
    {
      "midi": 60,
      "hit": false,
      "t": 235966.66666666747,
      "d": 333.33333333334303,
      "v": 33
    },
    {
      "midi": 84,
      "hit": false,
      "t": 236125.00000000081,
      "d": 41.666666666656965,
      "v": 46
    },
    {
      "midi": 87,
      "hit": false,
      "t": 236250.00000000081,
      "d": 66.66666666665697,
      "v": 62
    },
    {
      "midi": 92,
      "hit": false,
      "t": 236391.66666666747,
      "d": 66.66666666665697,
      "v": 53
    },
    {
      "midi": 55,
      "hit": false,
      "t": 236483.33333333413,
      "d": 1150.0000000000582,
      "v": 35
    },
    {
      "midi": 60,
      "hit": false,
      "t": 236508.33333333413,
      "d": 1058.3333333334012,
      "v": 25
    },
    {
      "midi": 48,
      "hit": false,
      "t": 236516.66666666747,
      "d": 1175.0000000000582,
      "v": 30
    },
    {
      "midi": 95,
      "hit": false,
      "t": 236700.00000000081,
      "d": 108.33333333334303,
      "v": 71
    },
    {
      "midi": 98,
      "hit": false,
      "t": 236883.33333333416,
      "d": 91.66666666668607,
      "v": 78
    },
    {
      "midi": 96,
      "hit": false,
      "t": 236908.33333333416,
      "d": 33.333333333343035,
      "v": 38
    },
    {
      "midi": 95,
      "hit": false,
      "t": 237066.6666666675,
      "d": 41.666666666656965,
      "v": 35
    },
    {
      "midi": 96,
      "hit": false,
      "t": 237175.00000000081,
      "d": 133.33333333334303,
      "v": 80
    },
    {
      "midi": 91,
      "hit": false,
      "t": 237316.6666666675,
      "d": 91.66666666668607,
      "v": 56
    },
    {
      "midi": 89,
      "hit": false,
      "t": 237450.00000000084,
      "d": 83.33333333334303,
      "v": 60
    },
    {
      "midi": 87,
      "hit": false,
      "t": 237583.3333333342,
      "d": 125,
      "v": 36
    },
    {
      "midi": 86,
      "hit": false,
      "t": 237733.3333333342,
      "d": 83.33333333334303,
      "v": 44
    },
    {
      "midi": 89,
      "hit": false,
      "t": 237875.00000000087,
      "d": 108.33333333331393,
      "v": 70
    },
    {
      "midi": 47,
      "hit": false,
      "t": 237891.66666666753,
      "d": 208.33333333331393,
      "v": 35
    },
    {
      "midi": 57,
      "hit": false,
      "t": 237891.66666666753,
      "d": 275,
      "v": 32
    },
    {
      "midi": 86,
      "hit": false,
      "t": 238025.00000000084,
      "d": 50,
      "v": 44
    },
    {
      "midi": 87,
      "hit": false,
      "t": 238158.3333333342,
      "d": 116.66666666668607,
      "v": 65
    },
    {
      "midi": 85,
      "hit": false,
      "t": 238308.33333333422,
      "d": 25,
      "v": 32
    },
    {
      "midi": 84,
      "hit": false,
      "t": 238341.66666666756,
      "d": 66.66666666665697,
      "v": 44
    },
    {
      "midi": 54,
      "hit": false,
      "t": 239516.66666666753,
      "d": 208.33333333334303,
      "v": 45
    },
    {
      "midi": 44,
      "hit": false,
      "t": 239541.66666666753,
      "d": 558.3333333333721,
      "v": 30
    },
    {
      "midi": 54,
      "hit": false,
      "t": 239808.33333333422,
      "d": 108.33333333334303,
      "v": 49
    },
    {
      "midi": 56,
      "hit": false,
      "t": 239966.66666666756,
      "d": 100,
      "v": 52
    },
    {
      "midi": 58,
      "hit": false,
      "t": 240108.33333333425,
      "d": 116.66666666665697,
      "v": 56
    },
    {
      "midi": 59,
      "hit": false,
      "t": 240275.0000000009,
      "d": 150,
      "v": 61
    },
    {
      "midi": 44,
      "hit": false,
      "t": 240275.0000000009,
      "d": 208.33333333331393,
      "v": 31
    },
    {
      "midi": 54,
      "hit": false,
      "t": 240291.66666666756,
      "d": 133.33333333334303,
      "v": 21
    },
    {
      "midi": 58,
      "hit": false,
      "t": 240483.33333333422,
      "d": 566.666666666657,
      "v": 50
    },
    {
      "midi": 53,
      "hit": false,
      "t": 240491.66666666756,
      "d": 533.3333333333139,
      "v": 40
    },
    {
      "midi": 43,
      "hit": false,
      "t": 240525.0000000009,
      "d": 433.33333333331393,
      "v": 39
    },
    {
      "midi": 62,
      "hit": false,
      "t": 241483.33333333422,
      "d": 550,
      "v": 50
    },
    {
      "midi": 58,
      "hit": false,
      "t": 241483.33333333422,
      "d": 633.333333333343,
      "v": 44
    },
    {
      "midi": 57,
      "hit": false,
      "t": 241491.66666666756,
      "d": 616.666666666657,
      "v": 45
    },
    {
      "midi": 58,
      "hit": false,
      "t": 243458.33333333425,
      "d": 266.66666666668607,
      "v": 50
    },
    {
      "midi": 48,
      "hit": false,
      "t": 243491.6666666676,
      "d": 108.33333333334303,
      "v": 31
    },
    {
      "midi": 60,
      "hit": false,
      "t": 244025.00000000093,
      "d": 775,
      "v": 44
    },
    {
      "midi": 53,
      "hit": false,
      "t": 244025.00000000093,
      "d": 1941.6666666666279,
      "v": 35
    },
    {
      "midi": 56,
      "hit": false,
      "t": 244033.33333333427,
      "d": 2933.333333333343,
      "v": 30
    },
    {
      "midi": 63,
      "hit": false,
      "t": 245025.00000000093,
      "d": 699.9999999999709,
      "v": 27
    },
    {
      "midi": 60,
      "hit": false,
      "t": 245041.6666666676,
      "d": 649.9999999999709,
      "v": 30
    },
    {
      "midi": 67,
      "hit": false,
      "t": 245483.33333333425,
      "d": 116.66666666665697,
      "v": 27
    },
    {
      "midi": 68,
      "hit": false,
      "t": 245641.66666666756,
      "d": 75,
      "v": 51
    },
    {
      "midi": 72,
      "hit": false,
      "t": 245816.66666666756,
      "d": 58.333333333343035,
      "v": 48
    },
    {
      "midi": 60,
      "hit": false,
      "t": 245816.66666666756,
      "d": 191.66666666665697,
      "v": 51
    },
    {
      "midi": 71,
      "hit": false,
      "t": 245825.0000000009,
      "d": 33.333333333343035,
      "v": 44
    },
    {
      "midi": 64,
      "hit": false,
      "t": 246033.33333333422,
      "d": 366.66666666668607,
      "v": 71
    },
    {
      "midi": 68,
      "hit": false,
      "t": 246033.33333333422,
      "d": 375.0000000000291,
      "v": 75
    },
    {
      "midi": 79,
      "hit": false,
      "t": 246033.33333333422,
      "d": 383.33333333337214,
      "v": 77
    },
    {
      "midi": 72,
      "hit": false,
      "t": 246033.33333333422,
      "d": 400.0000000000291,
      "v": 73
    },
    {
      "midi": 75,
      "hit": false,
      "t": 246041.66666666756,
      "d": 391.66666666668607,
      "v": 59
    },
    {
      "midi": 72,
      "hit": false,
      "t": 246500.00000000093,
      "d": 308.33333333334303,
      "v": 64
    },
    {
      "midi": 77,
      "hit": false,
      "t": 246500.00000000093,
      "d": 325,
      "v": 55
    },
    {
      "midi": 68,
      "hit": false,
      "t": 246500.00000000093,
      "d": 383.33333333334303,
      "v": 49
    },
    {
      "midi": 63,
      "hit": false,
      "t": 246500.00000000093,
      "d": 458.33333333334303,
      "v": 59
    },
    {
      "midi": 75,
      "hit": false,
      "t": 246966.66666666762,
      "d": 416.66666666668607,
      "v": 57
    },
    {
      "midi": 68,
      "hit": false,
      "t": 246983.33333333427,
      "d": 366.66666666668607,
      "v": 34
    },
    {
      "midi": 65,
      "hit": false,
      "t": 247000.00000000093,
      "d": 341.66666666668607,
      "v": 35
    },
    {
      "midi": 60,
      "hit": false,
      "t": 247008.33333333427,
      "d": 850,
      "v": 44
    },
    {
      "midi": 72,
      "hit": false,
      "t": 247041.66666666762,
      "d": 275,
      "v": 26
    },
    {
      "midi": 72,
      "hit": false,
      "t": 247458.3333333343,
      "d": 449.9999999999709,
      "v": 34
    },
    {
      "midi": 65,
      "hit": false,
      "t": 247475.00000000096,
      "d": 341.66666666665697,
      "v": 29
    },
    {
      "midi": 68,
      "hit": false,
      "t": 247475.00000000096,
      "d": 341.66666666665697,
      "v": 25
    },
    {
      "midi": 56,
      "hit": false,
      "t": 247475.00000000096,
      "d": 383.33333333331393,
      "v": 31
    },
    {
      "midi": 68,
      "hit": false,
      "t": 247975.00000000093,
      "d": 933.3333333334012,
      "v": 27
    },
    {
      "midi": 60,
      "hit": false,
      "t": 247983.33333333427,
      "d": 775.0000000000291,
      "v": 36
    },
    {
      "midi": 65,
      "hit": false,
      "t": 247991.66666666762,
      "d": 833.3333333333721,
      "v": 37
    },
    {
      "midi": 53,
      "hit": false,
      "t": 248000.00000000096,
      "d": 2700.000000000058,
      "v": 26
    },
    {
      "midi": 63,
      "hit": false,
      "t": 248008.3333333343,
      "d": 583.333333333343,
      "v": 27
    },
    {
      "midi": 56,
      "hit": false,
      "t": 248016.66666666765,
      "d": 750,
      "v": 23
    },
    {
      "midi": 63,
      "hit": false,
      "t": 249008.33333333433,
      "d": 1525,
      "v": 26
    },
    {
      "midi": 60,
      "hit": false,
      "t": 249008.33333333433,
      "d": 1641.666666666686,
      "v": 36
    },
    {
      "midi": 68,
      "hit": false,
      "t": 249008.33333333433,
      "d": 2500.000000000058,
      "v": 29
    },
    {
      "midi": 65,
      "hit": false,
      "t": 249025.000000001,
      "d": 2425.000000000058,
      "v": 31
    },
    {
      "midi": 56,
      "hit": false,
      "t": 250591.66666666768,
      "d": 400,
      "v": 75
    },
    {
      "midi": 51,
      "hit": false,
      "t": 251025.00000000102,
      "d": 916.6666666667152,
      "v": 71
    },
    {
      "midi": 60,
      "hit": false,
      "t": 251033.33333333436,
      "d": 783.3333333333721,
      "v": 70
    },
    {
      "midi": 50,
      "hit": false,
      "t": 252066.66666666773,
      "d": 33.333333333343035,
      "v": 56
    },
    {
      "midi": 60,
      "hit": false,
      "t": 252066.66666666773,
      "d": 66.66666666668607,
      "v": 56
    },
    {
      "midi": 56,
      "hit": false,
      "t": 252066.66666666773,
      "d": 75.0000000000291,
      "v": 56
    },
    {
      "midi": 70,
      "hit": false,
      "t": 252375.0000000011,
      "d": 125,
      "v": 54
    },
    {
      "midi": 65,
      "hit": false,
      "t": 252375.0000000011,
      "d": 191.66666666665697,
      "v": 54
    },
    {
      "midi": 66,
      "hit": false,
      "t": 252383.33333333445,
      "d": 100,
      "v": 54
    },
    {
      "midi": 77,
      "hit": false,
      "t": 252383.33333333445,
      "d": 133.33333333331393,
      "v": 54
    },
    {
      "midi": 72,
      "hit": false,
      "t": 252400.0000000011,
      "d": 100,
      "v": 53
    },
    {
      "midi": 63,
      "hit": false,
      "t": 252600.0000000011,
      "d": 225,
      "v": 52
    },
    {
      "midi": 66,
      "hit": false,
      "t": 252883.33333333445,
      "d": 125,
      "v": 50
    },
    {
      "midi": 70,
      "hit": false,
      "t": 252883.33333333445,
      "d": 133.33333333334303,
      "v": 50
    },
    {
      "midi": 65,
      "hit": false,
      "t": 252883.33333333445,
      "d": 166.66666666668607,
      "v": 50
    },
    {
      "midi": 77,
      "hit": false,
      "t": 252891.6666666678,
      "d": 125,
      "v": 50
    },
    {
      "midi": 72,
      "hit": false,
      "t": 252908.33333333445,
      "d": 100,
      "v": 50
    },
    {
      "midi": 63,
      "hit": false,
      "t": 253116.6666666678,
      "d": 325,
      "v": 48
    },
    {
      "midi": 66,
      "hit": false,
      "t": 253150.00000000114,
      "d": 125,
      "v": 48
    },
    {
      "midi": 75,
      "hit": false,
      "t": 253166.6666666678,
      "d": 150,
      "v": 48
    },
    {
      "midi": 70,
      "hit": false,
      "t": 253183.33333333445,
      "d": 58.333333333343035,
      "v": 48
    },
    {
      "midi": 65,
      "hit": false,
      "t": 253391.6666666678,
      "d": 33.333333333343035,
      "v": 47
    },
    {
      "midi": 66,
      "hit": false,
      "t": 253400.00000000114,
      "d": 58.33333333331393,
      "v": 47
    },
    {
      "midi": 43,
      "hit": false,
      "t": 253816.6666666678,
      "d": 1441.6666666667152,
      "v": 44
    },
    {
      "midi": 55,
      "hit": false,
      "t": 254041.6666666678,
      "d": 91.66666666665697,
      "v": 42
    },
    {
      "midi": 56,
      "hit": false,
      "t": 254250.0000000011,
      "d": 100,
      "v": 41
    },
    {
      "midi": 58,
      "hit": false,
      "t": 254400.0000000011,
      "d": 100,
      "v": 38
    },
    {
      "midi": 59,
      "hit": false,
      "t": 254583.33333333445,
      "d": 33.333333333343035,
      "v": 37
    },
    {
      "midi": 60,
      "hit": false,
      "t": 254783.33333333445,
      "d": 33.333333333343035,
      "v": 36
    },
    {
      "midi": 62,
      "hit": false,
      "t": 254900.00000000114,
      "d": 91.66666666665697,
      "v": 35
    },
    {
      "midi": 63,
      "hit": false,
      "t": 255000.00000000114,
      "d": 50,
      "v": 35
    },
    {
      "midi": 65,
      "hit": false,
      "t": 255083.33333333448,
      "d": 108.33333333334303,
      "v": 34
    },
    {
      "midi": 67,
      "hit": false,
      "t": 255191.66666666782,
      "d": 91.66666666668607,
      "v": 32
    },
    {
      "midi": 68,
      "hit": false,
      "t": 255250.00000000116,
      "d": 91.66666666668607,
      "v": 32
    },
    {
      "midi": 70,
      "hit": false,
      "t": 255350.0000000012,
      "d": 25,
      "v": 32
    },
    {
      "midi": 72,
      "hit": false,
      "t": 255433.33333333454,
      "d": 75,
      "v": 31
    },
    {
      "midi": 74,
      "hit": false,
      "t": 255516.66666666788,
      "d": 66.66666666665697,
      "v": 31
    },
    {
      "midi": 75,
      "hit": false,
      "t": 255583.33333333454,
      "d": 41.666666666656965,
      "v": 30
    },
    {
      "midi": 77,
      "hit": false,
      "t": 255683.33333333454,
      "d": 75,
      "v": 30
    },
    {
      "midi": 79,
      "hit": false,
      "t": 255791.66666666788,
      "d": 50,
      "v": 30
    },
    {
      "midi": 80,
      "hit": false,
      "t": 255866.66666666788,
      "d": 91.66666666665697,
      "v": 29
    },
    {
      "midi": 82,
      "hit": false,
      "t": 255991.66666666788,
      "d": 116.66666666665697,
      "v": 28
    },
    {
      "midi": 83,
      "hit": false,
      "t": 256125.0000000012,
      "d": 83.33333333334303,
      "v": 27
    },
    {
      "midi": 86,
      "hit": false,
      "t": 256258.33333333454,
      "d": 116.66666666665697,
      "v": 26
    },
    {
      "midi": 62,
      "hit": false,
      "t": 256258.33333333454,
      "d": 1791.6666666666279,
      "v": 26
    },
    {
      "midi": 51,
      "hit": false,
      "t": 256275.0000000012,
      "d": 1774.999999999971,
      "v": 26
    },
    {
      "midi": 57,
      "hit": false,
      "t": 256283.33333333454,
      "d": 1658.3333333332848,
      "v": 26
    },
    {
      "midi": 83,
      "hit": false,
      "t": 256433.33333333454,
      "d": 33.333333333343035,
      "v": 25
    },
    {
      "midi": 84,
      "hit": false,
      "t": 256541.66666666788,
      "d": 116.66666666665697,
      "v": 24
    },
    {
      "midi": 79,
      "hit": false,
      "t": 256666.66666666788,
      "d": 66.66666666665697,
      "v": 22
    },
    {
      "midi": 75,
      "hit": false,
      "t": 256875.0000000012,
      "d": 50,
      "v": 18
    },
    {
      "midi": 74,
      "hit": false,
      "t": 256975.0000000012,
      "d": 75,
      "v": 15
    },
    {
      "midi": 77,
      "hit": false,
      "t": 257091.66666666785,
      "d": 100,
      "v": 13
    },
    {
      "midi": 74,
      "hit": false,
      "t": 257208.3333333345,
      "d": 58.333333333343035,
      "v": 10
    },
    {
      "midi": 75,
      "hit": false,
      "t": 257333.3333333345,
      "d": 100,
      "v": 8
    },
    {
      "midi": 67,
      "hit": false,
      "t": 257475.00000000116,
      "d": 100,
      "v": 6
    },
    {
      "midi": 67,
      "hit": false,
      "t": 257650.00000000116,
      "d": 75,
      "v": 4
    },
    {
      "midi": 67,
      "hit": false,
      "t": 257791.66666666782,
      "d": 41.666666666656965,
      "v": 2
    },
    {
      "midi": 68,
      "hit": false,
      "t": 259525.00000000116,
      "d": 158.33333333334303,
      "v": 2
    },
    {
      "midi": 43,
      "hit": false,
      "t": 259541.66666666782,
      "d": 133.33333333334303,
      "v": 2
    },
    {
      "midi": 59,
      "hit": false,
      "t": 259550.00000000116,
      "d": 100,
      "v": 2
    },
    {
      "midi": 63,
      "hit": false,
      "t": 259558.3333333345,
      "d": 100,
      "v": 2
    }
  ]
}