{
  "jsonPath": "World/German Techno/Moonbootica/siren.json",
  "path": "World\\German Techno\\Moonbootica\\Siren.mid",
  "name": "Siren",
  "difficulty": "Advanced",
  "bpm": 110.00011000011,
  "notes": [
    {
      "midi": 61,
      "hit": false,
      "t": 126545.32800000001,
      "d": 1090.9079999999958,
      "v": 95
    },
    {
      "midi": 69,
      "hit": false,
      "t": 126727.14600000001,
      "d": 181.8179999999993,
      "v": 95
    },
    {
      "midi": 66,
      "hit": false,
      "t": 126908.964,
      "d": 181.8179999999993,
      "v": 95
    },
    {
      "midi": 69,
      "hit": false,
      "t": 127090.782,
      "d": 181.8179999999993,
      "v": 95
    },
    {
      "midi": 68,
      "hit": false,
      "t": 127272.6,
      "d": 181.8179999999993,
      "v": 95
    },
    {
      "midi": 69,
      "hit": false,
      "t": 127454.418,
      "d": 181.8179999999993,
      "v": 95
    },
    {
      "midi": 61,
      "hit": false,
      "t": 127636.236,
      "d": 1090.9079999999958,
      "v": 95
    },
    {
      "midi": 69,
      "hit": false,
      "t": 127818.054,
      "d": 181.8179999999993,
      "v": 95
    },
    {
      "midi": 66,
      "hit": false,
      "t": 127999.872,
      "d": 181.8179999999993,
      "v": 95
    },
    {
      "midi": 69,
      "hit": false,
      "t": 128181.69,
      "d": 181.8179999999993,
      "v": 95
    },
    {
      "midi": 68,
      "hit": false,
      "t": 128363.508,
      "d": 181.8179999999993,
      "v": 95
    },
    {
      "midi": 69,
      "hit": false,
      "t": 128545.326,
      "d": 181.8179999999993,
      "v": 95
    },
    {
      "midi": 61,
      "hit": false,
      "t": 128727.144,
      "d": 1090.9079999999958,
      "v": 95
    },
    {
      "midi": 69,
      "hit": false,
      "t": 128908.962,
      "d": 181.8179999999993,
      "v": 95
    },
    {
      "midi": 66,
      "hit": false,
      "t": 129090.78,
      "d": 181.8179999999993,
      "v": 95
    },
    {
      "midi": 69,
      "hit": false,
      "t": 129272.598,
      "d": 181.8179999999993,
      "v": 95
    },
    {
      "midi": 68,
      "hit": false,
      "t": 129454.416,
      "d": 181.8179999999993,
      "v": 95
    },
    {
      "midi": 69,
      "hit": false,
      "t": 129636.234,
      "d": 181.8179999999993,
      "v": 95
    },
    {
      "midi": 61,
      "hit": false,
      "t": 129818.052,
      "d": 1090.9079999999958,
      "v": 95
    },
    {
      "midi": 69,
      "hit": false,
      "t": 129999.87,
      "d": 181.8179999999993,
      "v": 95
    },
    {
      "midi": 66,
      "hit": false,
      "t": 130181.688,
      "d": 181.8179999999993,
      "v": 95
    },
    {
      "midi": 69,
      "hit": false,
      "t": 130363.506,
      "d": 181.8179999999993,
      "v": 95
    },
    {
      "midi": 68,
      "hit": false,
      "t": 130545.324,
      "d": 181.8179999999993,
      "v": 95
    },
    {
      "midi": 69,
      "hit": false,
      "t": 130727.14199999999,
      "d": 181.8179999999993,
      "v": 95
    },
    {
      "midi": 62,
      "hit": false,
      "t": 130908.95999999999,
      "d": 1090.9079999999958,
      "v": 95
    },
    {
      "midi": 69,
      "hit": false,
      "t": 131090.778,
      "d": 181.8179999999993,
      "v": 95
    },
    {
      "midi": 68,
      "hit": false,
      "t": 131272.596,
      "d": 181.8179999999993,
      "v": 95
    },
    {
      "midi": 71,
      "hit": false,
      "t": 131454.414,
      "d": 181.8179999999993,
      "v": 95
    },
    {
      "midi": 68,
      "hit": false,
      "t": 131636.232,
      "d": 181.8179999999993,
      "v": 95
    },
    {
      "midi": 69,
      "hit": false,
      "t": 131818.05,
      "d": 181.8179999999993,
      "v": 95
    },
    {
      "midi": 62,
      "hit": false,
      "t": 131999.868,
      "d": 1090.9079999999958,
      "v": 95
    },
    {
      "midi": 69,
      "hit": false,
      "t": 132181.686,
      "d": 181.8179999999993,
      "v": 95
    },
    {
      "midi": 68,
      "hit": false,
      "t": 132363.504,
      "d": 181.8179999999993,
      "v": 95
    },
    {
      "midi": 71,
      "hit": false,
      "t": 132545.322,
      "d": 181.8179999999993,
      "v": 95
    },
    {
      "midi": 68,
      "hit": false,
      "t": 132727.13999999998,
      "d": 181.8179999999993,
      "v": 95
    },
    {
      "midi": 69,
      "hit": false,
      "t": 132908.95799999998,
      "d": 181.8179999999993,
      "v": 95
    },
    {
      "midi": 62,
      "hit": false,
      "t": 133090.77599999998,
      "d": 1090.9079999999958,
      "v": 95
    },
    {
      "midi": 69,
      "hit": false,
      "t": 133272.59399999998,
      "d": 181.8179999999993,
      "v": 95
    },
    {
      "midi": 68,
      "hit": false,
      "t": 133454.41199999998,
      "d": 181.8179999999993,
      "v": 95
    },
    {
      "midi": 71,
      "hit": false,
      "t": 133636.22999999998,
      "d": 181.8179999999993,
      "v": 95
    },
    {
      "midi": 68,
      "hit": false,
      "t": 133818.04799999998,
      "d": 181.8179999999993,
      "v": 95
    },
    {
      "midi": 69,
      "hit": false,
      "t": 133999.86599999998,
      "d": 181.8179999999993,
      "v": 95
    },
    {
      "midi": 62,
      "hit": false,
      "t": 134181.68399999998,
      "d": 1090.9079999999958,
      "v": 95
    },
    {
      "midi": 69,
      "hit": false,
      "t": 134363.50199999998,
      "d": 181.8179999999993,
      "v": 95
    },
    {
      "midi": 68,
      "hit": false,
      "t": 134545.31999999998,
      "d": 181.8179999999993,
      "v": 95
    },
    {
      "midi": 71,
      "hit": false,
      "t": 134727.13799999998,
      "d": 181.8179999999993,
      "v": 95
    },
    {
      "midi": 68,
      "hit": false,
      "t": 134908.95599999998,
      "d": 181.8179999999993,
      "v": 95
    },
    {
      "midi": 73,
      "hit": false,
      "t": 135090.77399999998,
      "d": 181.8179999999993,
      "v": 95
    },
    {
      "midi": 61,
      "hit": false,
      "t": 135272.59199999998,
      "d": 1090.9079999999958,
      "v": 95
    },
    {
      "midi": 69,
      "hit": false,
      "t": 135454.40999999997,
      "d": 181.8179999999993,
      "v": 95
    },
    {
      "midi": 66,
      "hit": false,
      "t": 135636.22799999997,
      "d": 181.8179999999993,
      "v": 95
    },
    {
      "midi": 69,
      "hit": false,
      "t": 135818.04599999997,
      "d": 181.8179999999993,
      "v": 95
    },
    {
      "midi": 68,
      "hit": false,
      "t": 135999.86399999997,
      "d": 181.8179999999993,
      "v": 95
    },
    {
      "midi": 69,
      "hit": false,
      "t": 136181.68199999997,
      "d": 181.8179999999993,
      "v": 95
    },
    {
      "midi": 61,
      "hit": false,
      "t": 136363.49999999997,
      "d": 1090.9079999999958,
      "v": 95
    },
    {
      "midi": 69,
      "hit": false,
      "t": 136545.31799999997,
      "d": 181.8179999999993,
      "v": 95
    },
    {
      "midi": 66,
      "hit": false,
      "t": 136727.13599999997,
      "d": 181.8179999999993,
      "v": 95
    },
    {
      "midi": 69,
      "hit": false,
      "t": 136908.95399999997,
      "d": 181.8179999999993,
      "v": 95
    },
    {
      "midi": 68,
      "hit": false,
      "t": 137090.77199999997,
      "d": 181.8179999999993,
      "v": 95
    },
    {
      "midi": 69,
      "hit": false,
      "t": 137272.58999999997,
      "d": 181.8179999999993,
      "v": 95
    },
    {
      "midi": 61,
      "hit": false,
      "t": 137454.40799999997,
      "d": 1090.9079999999958,
      "v": 95
    },
    {
      "midi": 69,
      "hit": false,
      "t": 137636.22599999997,
      "d": 181.8179999999993,
      "v": 95
    },
    {
      "midi": 66,
      "hit": false,
      "t": 137818.04399999997,
      "d": 181.8179999999993,
      "v": 95
    },
    {
      "midi": 69,
      "hit": false,
      "t": 137999.86199999996,
      "d": 181.8179999999993,
      "v": 95
    },
    {
      "midi": 68,
      "hit": false,
      "t": 138181.67999999996,
      "d": 181.8179999999993,
      "v": 95
    },
    {
      "midi": 69,
      "hit": false,
      "t": 138363.49799999996,
      "d": 181.8179999999993,
      "v": 95
    },
    {
      "midi": 61,
      "hit": false,
      "t": 138545.31599999996,
      "d": 1090.9079999999958,
      "v": 95
    },
    {
      "midi": 69,
      "hit": false,
      "t": 138727.13399999996,
      "d": 181.8179999999993,
      "v": 95
    },
    {
      "midi": 66,
      "hit": false,
      "t": 138908.95199999996,
      "d": 181.8179999999993,
      "v": 95
    },
    {
      "midi": 69,
      "hit": false,
      "t": 139090.76999999996,
      "d": 181.8179999999993,
      "v": 95
    },
    {
      "midi": 68,
      "hit": false,
      "t": 139272.58799999996,
      "d": 181.8179999999993,
      "v": 95
    },
    {
      "midi": 69,
      "hit": false,
      "t": 139454.40599999996,
      "d": 181.8179999999993,
      "v": 95
    },
    {
      "midi": 62,
      "hit": false,
      "t": 139636.22399999996,
      "d": 1090.9079999999958,
      "v": 95
    },
    {
      "midi": 69,
      "hit": false,
      "t": 139818.04199999996,
      "d": 181.8179999999993,
      "v": 95
    },
    {
      "midi": 68,
      "hit": false,
      "t": 139999.85999999996,
      "d": 181.8179999999993,
      "v": 95
    },
    {
      "midi": 71,
      "hit": false,
      "t": 140181.67799999996,
      "d": 181.8179999999993,
      "v": 95
    },
    {
      "midi": 68,
      "hit": false,
      "t": 140363.49599999996,
      "d": 181.8179999999993,
      "v": 95
    },
    {
      "midi": 69,
      "hit": false,
      "t": 140545.31399999995,
      "d": 181.8179999999993,
      "v": 95
    },
    {
      "midi": 62,
      "hit": false,
      "t": 140727.13199999995,
      "d": 1090.9079999999958,
      "v": 95
    },
    {
      "midi": 69,
      "hit": false,
      "t": 140908.94999999995,
      "d": 181.8179999999993,
      "v": 95
    },
    {
      "midi": 68,
      "hit": false,
      "t": 141090.76799999995,
      "d": 181.8179999999993,
      "v": 95
    },
    {
      "midi": 71,
      "hit": false,
      "t": 141272.58599999995,
      "d": 181.8179999999993,
      "v": 95
    },
    {
      "midi": 68,
      "hit": false,
      "t": 141454.40399999995,
      "d": 181.8179999999993,
      "v": 95
    },
    {
      "midi": 69,
      "hit": false,
      "t": 141636.22199999995,
      "d": 181.8179999999993,
      "v": 95
    },
    {
      "midi": 62,
      "hit": false,
      "t": 141818.03999999995,
      "d": 1090.9079999999958,
      "v": 95
    },
    {
      "midi": 69,
      "hit": false,
      "t": 141999.85799999995,
      "d": 181.8179999999993,
      "v": 95
    },
    {
      "midi": 68,
      "hit": false,
      "t": 142181.67599999995,
      "d": 181.8179999999993,
      "v": 95
    },
    {
      "midi": 71,
      "hit": false,
      "t": 142363.49399999995,
      "d": 181.8179999999993,
      "v": 95
    },
    {
      "midi": 68,
      "hit": false,
      "t": 142545.31199999995,
      "d": 181.8179999999993,
      "v": 95
    },
    {
      "midi": 69,
      "hit": false,
      "t": 142727.12999999995,
      "d": 181.8179999999993,
      "v": 95
    },
    {
      "midi": 62,
      "hit": false,
      "t": 142908.94799999995,
      "d": 1090.9079999999958,
      "v": 95
    },
    {
      "midi": 69,
      "hit": false,
      "t": 143090.76599999995,
      "d": 181.8179999999993,
      "v": 95
    },
    {
      "midi": 68,
      "hit": false,
      "t": 143272.58399999994,
      "d": 181.8179999999993,
      "v": 95
    },
    {
      "midi": 71,
      "hit": false,
      "t": 143454.40199999994,
      "d": 181.8179999999993,
      "v": 95
    },
    {
      "midi": 68,
      "hit": false,
      "t": 143636.21999999994,
      "d": 181.8179999999993,
      "v": 95
    },
    {
      "midi": 73,
      "hit": false,
      "t": 143818.03799999994,
      "d": 181.8179999999993,
      "v": 95
    },
    {
      "midi": 61,
      "hit": false,
      "t": 143999.85599999994,
      "d": 1090.9079999999958,
      "v": 95
    },
    {
      "midi": 69,
      "hit": false,
      "t": 144181.67399999994,
      "d": 181.8179999999993,
      "v": 95
    },
    {
      "midi": 66,
      "hit": false,
      "t": 144363.49199999994,
      "d": 181.8179999999993,
      "v": 95
    },
    {
      "midi": 69,
      "hit": false,
      "t": 144545.30999999994,
      "d": 181.8179999999993,
      "v": 95
    },
    {
      "midi": 68,
      "hit": false,
      "t": 144727.12799999994,
      "d": 181.8179999999993,
      "v": 95
    },
    {
      "midi": 69,
      "hit": false,
      "t": 144908.94599999994,
      "d": 181.8179999999993,
      "v": 95
    },
    {
      "midi": 61,
      "hit": false,
      "t": 145090.76399999994,
      "d": 1090.9079999999958,
      "v": 95
    },
    {
      "midi": 69,
      "hit": false,
      "t": 145272.58199999994,
      "d": 181.8179999999993,
      "v": 95
    },
    {
      "midi": 66,
      "hit": false,
      "t": 145454.39999999994,
      "d": 181.8179999999993,
      "v": 95
    },
    {
      "midi": 69,
      "hit": false,
      "t": 145636.21799999994,
      "d": 181.8179999999993,
      "v": 95
    },
    {
      "midi": 68,
      "hit": false,
      "t": 145818.03599999993,
      "d": 181.8179999999993,
      "v": 95
    },
    {
      "midi": 69,
      "hit": false,
      "t": 145999.85399999993,
      "d": 181.8179999999993,
      "v": 95
    },
    {
      "midi": 61,
      "hit": false,
      "t": 146181.67199999993,
      "d": 1090.9079999999958,
      "v": 95
    },
    {
      "midi": 69,
      "hit": false,
      "t": 146363.48999999993,
      "d": 181.8179999999993,
      "v": 95
    },
    {
      "midi": 66,
      "hit": false,
      "t": 146545.30799999993,
      "d": 181.8179999999993,
      "v": 95
    },
    {
      "midi": 69,
      "hit": false,
      "t": 146727.12599999993,
      "d": 181.8179999999993,
      "v": 95
    },
    {
      "midi": 68,
      "hit": false,
      "t": 146908.94399999993,
      "d": 181.8179999999993,
      "v": 95
    },
    {
      "midi": 69,
      "hit": false,
      "t": 147090.76199999993,
      "d": 181.8179999999993,
      "v": 95
    },
    {
      "midi": 61,
      "hit": false,
      "t": 147272.57999999993,
      "d": 1090.9079999999958,
      "v": 95
    },
    {
      "midi": 69,
      "hit": false,
      "t": 147454.39799999993,
      "d": 181.8179999999993,
      "v": 95
    },
    {
      "midi": 66,
      "hit": false,
      "t": 147636.21599999993,
      "d": 181.8179999999993,
      "v": 95
    },
    {
      "midi": 69,
      "hit": false,
      "t": 147818.03399999993,
      "d": 181.8179999999993,
      "v": 95
    },
    {
      "midi": 68,
      "hit": false,
      "t": 147999.85199999993,
      "d": 181.8179999999993,
      "v": 95
    },
    {
      "midi": 69,
      "hit": false,
      "t": 148181.66999999993,
      "d": 181.8179999999993,
      "v": 95
    },
    {
      "midi": 62,
      "hit": false,
      "t": 148363.48799999992,
      "d": 1090.9079999999958,
      "v": 95
    },
    {
      "midi": 69,
      "hit": false,
      "t": 148545.30599999992,
      "d": 181.8179999999993,
      "v": 95
    },
    {
      "midi": 68,
      "hit": false,
      "t": 148727.12399999992,
      "d": 181.8179999999993,
      "v": 95
    },
    {
      "midi": 71,
      "hit": false,
      "t": 148908.94199999992,
      "d": 181.8179999999993,
      "v": 95
    },
    {
      "midi": 68,
      "hit": false,
      "t": 149090.75999999992,
      "d": 181.8179999999993,
      "v": 95
    },
    {
      "midi": 69,
      "hit": false,
      "t": 149272.57799999992,
      "d": 181.8179999999993,
      "v": 95
    },
    {
      "midi": 62,
      "hit": false,
      "t": 149454.39599999992,
      "d": 1090.9079999999958,
      "v": 95
    },
    {
      "midi": 69,
      "hit": false,
      "t": 149636.21399999992,
      "d": 181.8179999999993,
      "v": 95
    },
    {
      "midi": 68,
      "hit": false,
      "t": 149818.03199999992,
      "d": 181.8179999999993,
      "v": 95
    },
    {
      "midi": 71,
      "hit": false,
      "t": 149999.84999999992,
      "d": 181.8179999999993,
      "v": 95
    },
    {
      "midi": 68,
      "hit": false,
      "t": 150181.66799999992,
      "d": 181.8179999999993,
      "v": 95
    },
    {
      "midi": 69,
      "hit": false,
      "t": 150363.48599999992,
      "d": 181.8179999999993,
      "v": 95
    },
    {
      "midi": 62,
      "hit": false,
      "t": 150545.30399999992,
      "d": 1090.9079999999958,
      "v": 95
    },
    {
      "midi": 69,
      "hit": false,
      "t": 150727.12199999992,
      "d": 181.8179999999993,
      "v": 95
    },
    {
      "midi": 68,
      "hit": false,
      "t": 150908.93999999992,
      "d": 181.8179999999993,
      "v": 95
    },
    {
      "midi": 71,
      "hit": false,
      "t": 151090.7579999999,
      "d": 181.8179999999993,
      "v": 95
    },
    {
      "midi": 68,
      "hit": false,
      "t": 151272.5759999999,
      "d": 181.8179999999993,
      "v": 95
    },
    {
      "midi": 69,
      "hit": false,
      "t": 151454.3939999999,
      "d": 181.8179999999993,
      "v": 95
    },
    {
      "midi": 62,
      "hit": false,
      "t": 151636.2119999999,
      "d": 1090.9079999999958,
      "v": 95
    },
    {
      "midi": 69,
      "hit": false,
      "t": 151818.0299999999,
      "d": 181.8179999999993,
      "v": 95
    },
    {
      "midi": 68,
      "hit": false,
      "t": 151999.8479999999,
      "d": 181.8179999999993,
      "v": 95
    },
    {
      "midi": 71,
      "hit": false,
      "t": 152181.6659999999,
      "d": 181.8179999999993,
      "v": 95
    },
    {
      "midi": 68,
      "hit": false,
      "t": 152363.4839999999,
      "d": 181.8179999999993,
      "v": 95
    },
    {
      "midi": 73,
      "hit": false,
      "t": 152545.3019999999,
      "d": 181.8179999999993,
      "v": 95
    },
    {
      "midi": 61,
      "hit": false,
      "t": 152727.1199999999,
      "d": 1090.9079999999958,
      "v": 95
    },
    {
      "midi": 69,
      "hit": false,
      "t": 152908.9379999999,
      "d": 181.8179999999993,
      "v": 95
    },
    {
      "midi": 66,
      "hit": false,
      "t": 153090.7559999999,
      "d": 181.8179999999993,
      "v": 95
    },
    {
      "midi": 69,
      "hit": false,
      "t": 153272.5739999999,
      "d": 181.8179999999993,
      "v": 95
    },
    {
      "midi": 68,
      "hit": false,
      "t": 153454.3919999999,
      "d": 181.8179999999993,
      "v": 95
    },
    {
      "midi": 69,
      "hit": false,
      "t": 153636.2099999999,
      "d": 181.8179999999993,
      "v": 95
    },
    {
      "midi": 61,
      "hit": false,
      "t": 153818.0279999999,
      "d": 1090.9079999999958,
      "v": 95
    },
    {
      "midi": 69,
      "hit": false,
      "t": 153999.8459999999,
      "d": 181.8179999999993,
      "v": 95
    },
    {
      "midi": 66,
      "hit": false,
      "t": 154181.6639999999,
      "d": 181.8179999999993,
      "v": 95
    },
    {
      "midi": 69,
      "hit": false,
      "t": 154363.4819999999,
      "d": 181.8179999999993,
      "v": 95
    },
    {
      "midi": 68,
      "hit": false,
      "t": 154545.2999999999,
      "d": 181.8179999999993,
      "v": 95
    },
    {
      "midi": 69,
      "hit": false,
      "t": 154727.1179999999,
      "d": 181.8179999999993,
      "v": 95
    },
    {
      "midi": 61,
      "hit": false,
      "t": 154908.9359999999,
      "d": 1090.9079999999958,
      "v": 95
    },
    {
      "midi": 69,
      "hit": false,
      "t": 155090.7539999999,
      "d": 181.8179999999993,
      "v": 95
    },
    {
      "midi": 66,
      "hit": false,
      "t": 155272.5719999999,
      "d": 181.8179999999993,
      "v": 95
    },
    {
      "midi": 69,
      "hit": false,
      "t": 155454.3899999999,
      "d": 181.8179999999993,
      "v": 95
    },
    {
      "midi": 68,
      "hit": false,
      "t": 155636.2079999999,
      "d": 181.8179999999993,
      "v": 95
    },
    {
      "midi": 69,
      "hit": false,
      "t": 155818.0259999999,
      "d": 181.8179999999993,
      "v": 95
    },
    {
      "midi": 61,
      "hit": false,
      "t": 155999.8439999999,
      "d": 1090.9079999999958,
      "v": 95
    },
    {
      "midi": 69,
      "hit": false,
      "t": 156181.6619999999,
      "d": 181.8179999999993,
      "v": 95
    },
    {
      "midi": 66,
      "hit": false,
      "t": 156363.4799999999,
      "d": 181.8179999999993,
      "v": 95
    },
    {
      "midi": 69,
      "hit": false,
      "t": 156545.2979999999,
      "d": 181.8179999999993,
      "v": 95
    },
    {
      "midi": 68,
      "hit": false,
      "t": 156727.1159999999,
      "d": 181.8179999999993,
      "v": 95
    },
    {
      "midi": 69,
      "hit": false,
      "t": 156908.9339999999,
      "d": 181.8179999999993,
      "v": 95
    },
    {
      "midi": 62,
      "hit": false,
      "t": 157090.7519999999,
      "d": 1090.9079999999958,
      "v": 95
    },
    {
      "midi": 69,
      "hit": false,
      "t": 157272.5699999999,
      "d": 181.8179999999993,
      "v": 95
    },
    {
      "midi": 68,
      "hit": false,
      "t": 157454.3879999999,
      "d": 181.8179999999993,
      "v": 95
    },
    {
      "midi": 71,
      "hit": false,
      "t": 157636.2059999999,
      "d": 181.8179999999993,
      "v": 95
    },
    {
      "midi": 68,
      "hit": false,
      "t": 157818.0239999999,
      "d": 181.8179999999993,
      "v": 95
    },
    {
      "midi": 69,
      "hit": false,
      "t": 157999.8419999999,
      "d": 181.8179999999993,
      "v": 95
    },
    {
      "midi": 62,
      "hit": false,
      "t": 158181.6599999999,
      "d": 1090.9079999999958,
      "v": 95
    },
    {
      "midi": 69,
      "hit": false,
      "t": 158363.4779999999,
      "d": 181.8179999999993,
      "v": 95
    },
    {
      "midi": 68,
      "hit": false,
      "t": 158545.2959999999,
      "d": 181.8179999999993,
      "v": 95
    },
    {
      "midi": 71,
      "hit": false,
      "t": 158727.11399999988,
      "d": 181.8179999999993,
      "v": 95
    },
    {
      "midi": 68,
      "hit": false,
      "t": 158908.93199999988,
      "d": 181.8179999999993,
      "v": 95
    },
    {
      "midi": 69,
      "hit": false,
      "t": 159090.74999999988,
      "d": 181.8179999999993,
      "v": 95
    },
    {
      "midi": 62,
      "hit": false,
      "t": 159272.56799999988,
      "d": 1090.9079999999958,
      "v": 95
    },
    {
      "midi": 69,
      "hit": false,
      "t": 159454.38599999988,
      "d": 181.8179999999993,
      "v": 95
    },
    {
      "midi": 68,
      "hit": false,
      "t": 159636.20399999988,
      "d": 181.8179999999993,
      "v": 95
    },
    {
      "midi": 71,
      "hit": false,
      "t": 159818.02199999988,
      "d": 181.8179999999993,
      "v": 95
    },
    {
      "midi": 68,
      "hit": false,
      "t": 159999.83999999988,
      "d": 181.8179999999993,
      "v": 95
    },
    {
      "midi": 69,
      "hit": false,
      "t": 160181.65799999988,
      "d": 181.8179999999993,
      "v": 95
    },
    {
      "midi": 62,
      "hit": false,
      "t": 160363.47599999988,
      "d": 1272.725999999995,
      "v": 95
    },
    {
      "midi": 69,
      "hit": false,
      "t": 160545.29399999988,
      "d": 181.8179999999993,
      "v": 95
    },
    {
      "midi": 68,
      "hit": false,
      "t": 160727.11199999988,
      "d": 181.8179999999993,
      "v": 95
    },
    {
      "midi": 71,
      "hit": false,
      "t": 160908.92999999988,
      "d": 181.8179999999993,
      "v": 95
    },
    {
      "midi": 68,
      "hit": false,
      "t": 161090.74799999988,
      "d": 181.8179999999993,
      "v": 95
    },
    {
      "midi": 73,
      "hit": false,
      "t": 161272.56599999988,
      "d": 181.8179999999993,
      "v": 95
    },
    {
      "midi": 54,
      "hit": false,
      "t": 161454.38399999987,
      "d": 1090.9079999999958,
      "v": 95
    },
    {
      "midi": 61,
      "hit": false,
      "t": 161636.20199999987,
      "d": 1090.9079999999958,
      "v": 95
    },
    {
      "midi": 66,
      "hit": false,
      "t": 161818.01999999987,
      "d": 181.8179999999993,
      "v": 95
    },
    {
      "midi": 69,
      "hit": false,
      "t": 161999.83799999987,
      "d": 181.8179999999993,
      "v": 95
    },
    {
      "midi": 73,
      "hit": false,
      "t": 162181.65599999987,
      "d": 181.8179999999993,
      "v": 95
    },
    {
      "midi": 69,
      "hit": false,
      "t": 162363.47399999987,
      "d": 181.8179999999993,
      "v": 95
    },
    {
      "midi": 54,
      "hit": false,
      "t": 162545.29199999987,
      "d": 1090.9079999999958,
      "v": 95
    },
    {
      "midi": 59,
      "hit": false,
      "t": 162727.10999999987,
      "d": 1090.9079999999958,
      "v": 95
    },
    {
      "midi": 66,
      "hit": false,
      "t": 162908.92799999987,
      "d": 181.8179999999993,
      "v": 95
    },
    {
      "midi": 68,
      "hit": false,
      "t": 163090.74599999987,
      "d": 181.8179999999993,
      "v": 95
    },
    {
      "midi": 71,
      "hit": false,
      "t": 163272.56399999987,
      "d": 181.8179999999993,
      "v": 95
    },
    {
      "midi": 68,
      "hit": false,
      "t": 163454.38199999987,
      "d": 181.8179999999993,
      "v": 95
    },
    {
      "midi": 52,
      "hit": false,
      "t": 163636.19999999987,
      "d": 1090.9079999999958,
      "v": 95
    },
    {
      "midi": 59,
      "hit": false,
      "t": 163818.01799999987,
      "d": 1272.725999999995,
      "v": 95
    },
    {
      "midi": 64,
      "hit": false,
      "t": 163999.83599999986,
      "d": 181.8179999999993,
      "v": 95
    },
    {
      "midi": 71,
      "hit": false,
      "t": 164181.65399999986,
      "d": 181.8179999999993,
      "v": 95
    },
    {
      "midi": 68,
      "hit": false,
      "t": 164363.47199999986,
      "d": 181.8179999999993,
      "v": 95
    },
    {
      "midi": 71,
      "hit": false,
      "t": 164545.28999999986,
      "d": 181.8179999999993,
      "v": 95
    },
    {
      "midi": 50,
      "hit": false,
      "t": 164727.10799999986,
      "d": 1090.9079999999958,
      "v": 95
    },
    {
      "midi": 57,
      "hit": false,
      "t": 164908.92599999986,
      "d": 2181.8159999999916,
      "v": 95
    },
    {
      "midi": 62,
      "hit": false,
      "t": 165090.74399999986,
      "d": 181.8179999999993,
      "v": 95
    },
    {
      "midi": 66,
      "hit": false,
      "t": 165272.56199999986,
      "d": 181.8179999999993,
      "v": 95
    },
    {
      "midi": 69,
      "hit": false,
      "t": 165454.37999999986,
      "d": 181.8179999999993,
      "v": 95
    },
    {
      "midi": 66,
      "hit": false,
      "t": 165636.19799999986,
      "d": 181.8179999999993,
      "v": 95
    },
    {
      "midi": 54,
      "hit": false,
      "t": 165818.01599999986,
      "d": 1090.9079999999958,
      "v": 95
    },
    {
      "midi": 61,
      "hit": false,
      "t": 165999.83399999986,
      "d": 1090.9079999999958,
      "v": 95
    },
    {
      "midi": 66,
      "hit": false,
      "t": 166181.65199999986,
      "d": 181.8179999999993,
      "v": 95
    },
    {
      "midi": 69,
      "hit": false,
      "t": 166363.46999999986,
      "d": 181.8179999999993,
      "v": 95
    },
    {
      "midi": 73,
      "hit": false,
      "t": 166545.28799999985,
      "d": 181.8179999999993,
      "v": 95
    },
    {
      "midi": 69,
      "hit": false,
      "t": 166727.10599999985,
      "d": 181.8179999999993,
      "v": 95
    },
    {
      "midi": 54,
      "hit": false,
      "t": 166908.92399999985,
      "d": 1090.9079999999958,
      "v": 95
    },
    {
      "midi": 59,
      "hit": false,
      "t": 167090.74199999985,
      "d": 1090.9079999999958,
      "v": 95
    },
    {
      "midi": 66,
      "hit": false,
      "t": 167272.55999999985,
      "d": 181.8179999999993,
      "v": 95
    },
    {
      "midi": 68,
      "hit": false,
      "t": 167454.37799999985,
      "d": 181.8179999999993,
      "v": 95
    },
    {
      "midi": 71,
      "hit": false,
      "t": 167636.19599999985,
      "d": 181.8179999999993,
      "v": 95
    },
    {
      "midi": 68,
      "hit": false,
      "t": 167818.01399999985,
      "d": 181.8179999999993,
      "v": 95
    },
    {
      "midi": 52,
      "hit": false,
      "t": 167999.83199999985,
      "d": 1090.9079999999958,
      "v": 95
    },
    {
      "midi": 59,
      "hit": false,
      "t": 168181.64999999985,
      "d": 909.0899999999965,
      "v": 95
    },
    {
      "midi": 64,
      "hit": false,
      "t": 168363.46799999985,
      "d": 181.8179999999993,
      "v": 95
    },
    {
      "midi": 71,
      "hit": false,
      "t": 168545.28599999985,
      "d": 181.8179999999993,
      "v": 95
    },
    {
      "midi": 68,
      "hit": false,
      "t": 168727.10399999985,
      "d": 181.8179999999993,
      "v": 95
    },
    {
      "midi": 71,
      "hit": false,
      "t": 168908.92199999985,
      "d": 181.8179999999993,
      "v": 95
    },
    {
      "midi": 50,
      "hit": false,
      "t": 169090.73999999985,
      "d": 181.8179999999993,
      "v": 95
    },
    {
      "midi": 66,
      "hit": false,
      "t": 169090.73999999985,
      "d": 363.6359999999986,
      "v": 95
    },
    {
      "midi": 69,
      "hit": false,
      "t": 169090.73999999985,
      "d": 545.4539999999979,
      "v": 95
    },
    {
      "midi": 57,
      "hit": false,
      "t": 169272.55799999984,
      "d": 181.8179999999993,
      "v": 95
    },
    {
      "midi": 62,
      "hit": false,
      "t": 169454.37599999984,
      "d": 181.8179999999993,
      "v": 95
    },
    {
      "midi": 49,
      "hit": false,
      "t": 169636.19399999984,
      "d": 181.8179999999993,
      "v": 95
    },
    {
      "midi": 65,
      "hit": false,
      "t": 169636.19399999984,
      "d": 363.6359999999986,
      "v": 95
    },
    {
      "midi": 68,
      "hit": false,
      "t": 169636.19399999984,
      "d": 909.0899999999965,
      "v": 95
    },
    {
      "midi": 56,
      "hit": false,
      "t": 169818.01199999984,
      "d": 181.8179999999993,
      "v": 95
    },
    {
      "midi": 61,
      "hit": false,
      "t": 169999.82999999984,
      "d": 181.8179999999993,
      "v": 95
    },
    {
      "midi": 54,
      "hit": false,
      "t": 170181.64799999984,
      "d": 1090.9079999999958,
      "v": 95
    },
    {
      "midi": 61,
      "hit": false,
      "t": 170363.46599999984,
      "d": 1090.9079999999958,
      "v": 95
    },
    {
      "midi": 66,
      "hit": false,
      "t": 170545.28399999984,
      "d": 181.8179999999993,
      "v": 95
    },
    {
      "midi": 69,
      "hit": false,
      "t": 170727.10199999984,
      "d": 181.8179999999993,
      "v": 95
    },
    {
      "midi": 73,
      "hit": false,
      "t": 170908.91999999984,
      "d": 181.8179999999993,
      "v": 95
    },
    {
      "midi": 69,
      "hit": false,
      "t": 171090.73799999984,
      "d": 181.8179999999993,
      "v": 95
    },
    {
      "midi": 54,
      "hit": false,
      "t": 171272.55599999984,
      "d": 1090.9079999999958,
      "v": 95
    },
    {
      "midi": 59,
      "hit": false,
      "t": 171454.37399999984,
      "d": 1090.9079999999958,
      "v": 95
    },
    {
      "midi": 66,
      "hit": false,
      "t": 171636.19199999984,
      "d": 181.8179999999993,
      "v": 95
    },
    {
      "midi": 68,
      "hit": false,
      "t": 171818.00999999983,
      "d": 181.8179999999993,
      "v": 95
    },
    {
      "midi": 71,
      "hit": false,
      "t": 171999.82799999983,
      "d": 181.8179999999993,
      "v": 95
    },
    {
      "midi": 68,
      "hit": false,
      "t": 172181.64599999983,
      "d": 181.8179999999993,
      "v": 95
    },
    {
      "midi": 52,
      "hit": false,
      "t": 172363.46399999983,
      "d": 1090.9079999999958,
      "v": 95
    },
    {
      "midi": 59,
      "hit": false,
      "t": 172545.28199999983,
      "d": 1272.725999999995,
      "v": 95
    },
    {
      "midi": 64,
      "hit": false,
      "t": 172727.09999999983,
      "d": 181.8179999999993,
      "v": 95
    },
    {
      "midi": 71,
      "hit": false,
      "t": 172908.91799999983,
      "d": 181.8179999999993,
      "v": 95
    },
    {
      "midi": 68,
      "hit": false,
      "t": 173090.73599999983,
      "d": 181.8179999999993,
      "v": 95
    },
    {
      "midi": 71,
      "hit": false,
      "t": 173272.55399999983,
      "d": 181.8179999999993,
      "v": 95
    },
    {
      "midi": 50,
      "hit": false,
      "t": 173454.37199999983,
      "d": 1090.9079999999958,
      "v": 95
    },
    {
      "midi": 57,
      "hit": false,
      "t": 173636.18999999983,
      "d": 2181.8159999999916,
      "v": 95
    },
    {
      "midi": 62,
      "hit": false,
      "t": 173818.00799999983,
      "d": 181.8179999999993,
      "v": 95
    },
    {
      "midi": 66,
      "hit": false,
      "t": 173999.82599999983,
      "d": 181.8179999999993,
      "v": 95
    },
    {
      "midi": 69,
      "hit": false,
      "t": 174181.64399999983,
      "d": 181.8179999999993,
      "v": 95
    },
    {
      "midi": 66,
      "hit": false,
      "t": 174363.46199999982,
      "d": 181.8179999999993,
      "v": 95
    },
    {
      "midi": 54,
      "hit": false,
      "t": 174545.27999999982,
      "d": 1090.9079999999958,
      "v": 95
    },
    {
      "midi": 61,
      "hit": false,
      "t": 174727.09799999982,
      "d": 1090.9079999999958,
      "v": 95
    },
    {
      "midi": 66,
      "hit": false,
      "t": 174908.91599999982,
      "d": 181.8179999999993,
      "v": 95
    },
    {
      "midi": 69,
      "hit": false,
      "t": 175090.73399999982,
      "d": 181.8179999999993,
      "v": 95
    },
    {
      "midi": 73,
      "hit": false,
      "t": 175272.55199999982,
      "d": 181.8179999999993,
      "v": 95
    },
    {
      "midi": 69,
      "hit": false,
      "t": 175454.36999999982,
      "d": 181.8179999999993,
      "v": 95
    },
    {
      "midi": 54,
      "hit": false,
      "t": 175636.18799999982,
      "d": 1090.9079999999958,
      "v": 95
    },
    {
      "midi": 59,
      "hit": false,
      "t": 175818.00599999982,
      "d": 1090.9079999999958,
      "v": 95
    },
    {
      "midi": 66,
      "hit": false,
      "t": 175999.82399999982,
      "d": 181.8179999999993,
      "v": 95
    },
    {
      "midi": 68,
      "hit": false,
      "t": 176181.64199999982,
      "d": 181.8179999999993,
      "v": 95
    },
    {
      "midi": 71,
      "hit": false,
      "t": 176363.45999999982,
      "d": 181.8179999999993,
      "v": 95
    },
    {
      "midi": 68,
      "hit": false,
      "t": 176545.27799999982,
      "d": 181.8179999999993,
      "v": 95
    },
    {
      "midi": 52,
      "hit": false,
      "t": 176727.09599999982,
      "d": 1090.9079999999958,
      "v": 95
    },
    {
      "midi": 59,
      "hit": false,
      "t": 176908.91399999982,
      "d": 909.0899999999965,
      "v": 95
    },
    {
      "midi": 64,
      "hit": false,
      "t": 177090.7319999998,
      "d": 181.8179999999993,
      "v": 95
    },
    {
      "midi": 71,
      "hit": false,
      "t": 177272.5499999998,
      "d": 181.8179999999993,
      "v": 95
    },
    {
      "midi": 68,
      "hit": false,
      "t": 177454.3679999998,
      "d": 181.8179999999993,
      "v": 95
    },
    {
      "midi": 71,
      "hit": false,
      "t": 177636.1859999998,
      "d": 181.8179999999993,
      "v": 95
    },
    {
      "midi": 50,
      "hit": false,
      "t": 177818.0039999998,
      "d": 181.8179999999993,
      "v": 95
    },
    {
      "midi": 66,
      "hit": false,
      "t": 177818.0039999998,
      "d": 363.6359999999986,
      "v": 95
    },
    {
      "midi": 69,
      "hit": false,
      "t": 177818.0039999998,
      "d": 545.4539999999979,
      "v": 95
    },
    {
      "midi": 57,
      "hit": false,
      "t": 177999.8219999998,
      "d": 181.8179999999993,
      "v": 95
    },
    {
      "midi": 62,
      "hit": false,
      "t": 178181.6399999998,
      "d": 181.8179999999993,
      "v": 95
    },
    {
      "midi": 49,
      "hit": false,
      "t": 178363.4579999998,
      "d": 181.8179999999993,
      "v": 95
    },
    {
      "midi": 65,
      "hit": false,
      "t": 178363.4579999998,
      "d": 363.6359999999986,
      "v": 95
    },
    {
      "midi": 68,
      "hit": false,
      "t": 178363.4579999998,
      "d": 545.4539999999979,
      "v": 95
    },
    {
      "midi": 56,
      "hit": false,
      "t": 178545.2759999998,
      "d": 181.8179999999993,
      "v": 95
    },
    {
      "midi": 61,
      "hit": false,
      "t": 178727.0939999998,
      "d": 181.8179999999993,
      "v": 95
    },
    {
      "midi": 65,
      "hit": false,
      "t": 178908.9119999998,
      "d": 363.6359999999986,
      "v": 95
    },
    {
      "midi": 65,
      "hit": false,
      "t": 179272.5479999998,
      "d": 181.8179999999993,
      "v": 95
    },
    {
      "midi": 64,
      "hit": false,
      "t": 179454.3659999998,
      "d": 181.8179999999993,
      "v": 95
    },
    {
      "midi": 65,
      "hit": false,
      "t": 179636.1839999998,
      "d": 181.8179999999993,
      "v": 95
    },
    {
      "midi": 67,
      "hit": false,
      "t": 179818.0019999998,
      "d": 181.8179999999993,
      "v": 95
    },
    {
      "midi": 69,
      "hit": false,
      "t": 179999.8199999998,
      "d": 181.8179999999993,
      "v": 95
    },
    {
      "midi": 67,
      "hit": false,
      "t": 180181.6379999998,
      "d": 181.8179999999993,
      "v": 95
    },
    {
      "midi": 65,
      "hit": false,
      "t": 180363.4559999998,
      "d": 181.8179999999993,
      "v": 95
    },
    {
      "midi": 74,
      "hit": false,
      "t": 180545.2739999998,
      "d": 181.8179999999993,
      "v": 95
    },
    {
      "midi": 73,
      "hit": false,
      "t": 180727.0919999998,
      "d": 181.8179999999993,
      "v": 95
    },
    {
      "midi": 70,
      "hit": false,
      "t": 180908.9099999998,
      "d": 181.8179999999993,
      "v": 95
    },
    {
      "midi": 77,
      "hit": false,
      "t": 181090.7279999998,
      "d": 181.8179999999993,
      "v": 95
    },
    {
      "midi": 76,
      "hit": false,
      "t": 181272.5459999998,
      "d": 181.8179999999993,
      "v": 95
    },
    {
      "midi": 74,
      "hit": false,
      "t": 181454.3639999998,
      "d": 181.8179999999993,
      "v": 95
    },
    {
      "midi": 82,
      "hit": false,
      "t": 181636.1819999998,
      "d": 181.8179999999993,
      "v": 95
    },
    {
      "midi": 73,
      "hit": false,
      "t": 181817.9999999998,
      "d": 181.8179999999993,
      "v": 95
    },
    {
      "midi": 74,
      "hit": false,
      "t": 181999.8179999998,
      "d": 181.8179999999993,
      "v": 95
    },
    {
      "midi": 77,
      "hit": false,
      "t": 182181.6359999998,
      "d": 181.8179999999993,
      "v": 95
    },
    {
      "midi": 81,
      "hit": false,
      "t": 182363.4539999998,
      "d": 181.8179999999993,
      "v": 95
    },
    {
      "midi": 77,
      "hit": false,
      "t": 182545.2719999998,
      "d": 181.8179999999993,
      "v": 95
    },
    {
      "midi": 81,
      "hit": false,
      "t": 182727.0899999998,
      "d": 181.8179999999993,
      "v": 95
    },
    {
      "midi": 77,
      "hit": false,
      "t": 182908.9079999998,
      "d": 181.8179999999993,
      "v": 95
    },
    {
      "midi": 79,
      "hit": false,
      "t": 183090.7259999998,
      "d": 181.8179999999993,
      "v": 95
    },
    {
      "midi": 76,
      "hit": false,
      "t": 183454.3619999998,
      "d": 181.8179999999993,
      "v": 95
    },
    {
      "midi": 73,
      "hit": false,
      "t": 183636.1799999998,
      "d": 181.8179999999993,
      "v": 95
    },
    {
      "midi": 76,
      "hit": false,
      "t": 183817.9979999998,
      "d": 181.8179999999993,
      "v": 95
    },
    {
      "midi": 70,
      "hit": false,
      "t": 183999.8159999998,
      "d": 181.8179999999993,
      "v": 95
    },
    {
      "midi": 74,
      "hit": false,
      "t": 184181.6339999998,
      "d": 181.8179999999993,
      "v": 95
    },
    {
      "midi": 70,
      "hit": false,
      "t": 184363.4519999998,
      "d": 181.8179999999993,
      "v": 95
    },
    {
      "midi": 79,
      "hit": false,
      "t": 184545.2699999998,
      "d": 181.8179999999993,
      "v": 95
    },
    {
      "midi": 70,
      "hit": false,
      "t": 184727.08799999979,
      "d": 181.8179999999993,
      "v": 95
    },
    {
      "midi": 79,
      "hit": false,
      "t": 184908.90599999978,
      "d": 181.8179999999993,
      "v": 95
    },
    {
      "midi": 70,
      "hit": false,
      "t": 185090.72399999978,
      "d": 181.8179999999993,
      "v": 95
    },
    {
      "midi": 79,
      "hit": false,
      "t": 185272.54199999978,
      "d": 181.8179999999993,
      "v": 95
    },
    {
      "midi": 77,
      "hit": false,
      "t": 185636.17799999978,
      "d": 181.8179999999993,
      "v": 95
    },
    {
      "midi": 76,
      "hit": false,
      "t": 185817.99599999978,
      "d": 181.8179999999993,
      "v": 95
    },
    {
      "midi": 74,
      "hit": false,
      "t": 185999.81399999978,
      "d": 181.8179999999993,
      "v": 95
    },
    {
      "midi": 73,
      "hit": false,
      "t": 186181.63199999978,
      "d": 181.8179999999993,
      "v": 95
    },
    {
      "midi": 70,
      "hit": false,
      "t": 186363.44999999978,
      "d": 181.8179999999993,
      "v": 95
    },
    {
      "midi": 74,
      "hit": false,
      "t": 186545.26799999978,
      "d": 181.8179999999993,
      "v": 95
    },
    {
      "midi": 73,
      "hit": false,
      "t": 186727.08599999978,
      "d": 181.8179999999993,
      "v": 95
    },
    {
      "midi": 70,
      "hit": false,
      "t": 186908.90399999978,
      "d": 181.8179999999993,
      "v": 95
    },
    {
      "midi": 69,
      "hit": false,
      "t": 187090.72199999978,
      "d": 181.8179999999993,
      "v": 95
    },
    {
      "midi": 67,
      "hit": false,
      "t": 187272.53999999978,
      "d": 181.8179999999993,
      "v": 95
    },
    {
      "midi": 65,
      "hit": false,
      "t": 187454.35799999977,
      "d": 181.8179999999993,
      "v": 95
    },
    {
      "midi": 65,
      "hit": false,
      "t": 187636.17599999977,
      "d": 363.6359999999986,
      "v": 95
    },
    {
      "midi": 65,
      "hit": false,
      "t": 187999.81199999977,
      "d": 181.8179999999993,
      "v": 95
    },
    {
      "midi": 64,
      "hit": false,
      "t": 188181.62999999977,
      "d": 181.8179999999993,
      "v": 95
    },
    {
      "midi": 65,
      "hit": false,
      "t": 188363.44799999977,
      "d": 181.8179999999993,
      "v": 95
    },
    {
      "midi": 67,
      "hit": false,
      "t": 188545.26599999977,
      "d": 181.8179999999993,
      "v": 95
    },
    {
      "midi": 69,
      "hit": false,
      "t": 188727.08399999977,
      "d": 181.8179999999993,
      "v": 95
    },
    {
      "midi": 67,
      "hit": false,
      "t": 188908.90199999977,
      "d": 181.8179999999993,
      "v": 95
    },
    {
      "midi": 65,
      "hit": false,
      "t": 189090.71999999977,
      "d": 181.8179999999993,
      "v": 95
    },
    {
      "midi": 74,
      "hit": false,
      "t": 189272.53799999977,
      "d": 181.8179999999993,
      "v": 95
    },
    {
      "midi": 73,
      "hit": false,
      "t": 189454.35599999977,
      "d": 181.8179999999993,
      "v": 95
    },
    {
      "midi": 70,
      "hit": false,
      "t": 189636.17399999977,
      "d": 181.8179999999993,
      "v": 95
    },
    {
      "midi": 77,
      "hit": false,
      "t": 189817.99199999977,
      "d": 181.8179999999993,
      "v": 95
    },
    {
      "midi": 76,
      "hit": false,
      "t": 189999.80999999976,
      "d": 181.8179999999993,
      "v": 95
    },
    {
      "midi": 74,
      "hit": false,
      "t": 190181.62799999976,
      "d": 181.8179999999993,
      "v": 95
    },
    {
      "midi": 82,
      "hit": false,
      "t": 190363.44599999976,
      "d": 181.8179999999993,
      "v": 95
    },
    {
      "midi": 73,
      "hit": false,
      "t": 190545.26399999976,
      "d": 181.8179999999993,
      "v": 95
    },
    {
      "midi": 74,
      "hit": false,
      "t": 190727.08199999976,
      "d": 181.8179999999993,
      "v": 95
    },
    {
      "midi": 77,
      "hit": false,
      "t": 190908.89999999976,
      "d": 181.8179999999993,
      "v": 95
    },
    {
      "midi": 81,
      "hit": false,
      "t": 191090.71799999976,
      "d": 181.8179999999993,
      "v": 95
    },
    {
      "midi": 77,
      "hit": false,
      "t": 191272.53599999976,
      "d": 181.8179999999993,
      "v": 95
    },
    {
      "midi": 81,
      "hit": false,
      "t": 191454.35399999976,
      "d": 181.8179999999993,
      "v": 95
    },
    {
      "midi": 77,
      "hit": false,
      "t": 191636.17199999976,
      "d": 181.8179999999993,
      "v": 95
    },
    {
      "midi": 79,
      "hit": false,
      "t": 191817.98999999976,
      "d": 181.8179999999993,
      "v": 95
    },
    {
      "midi": 76,
      "hit": false,
      "t": 192181.62599999976,
      "d": 181.8179999999993,
      "v": 95
    },
    {
      "midi": 73,
      "hit": false,
      "t": 192363.44399999976,
      "d": 181.8179999999993,
      "v": 95
    },
    {
      "midi": 76,
      "hit": false,
      "t": 192545.26199999976,
      "d": 181.8179999999993,
      "v": 95
    },
    {
      "midi": 70,
      "hit": false,
      "t": 192727.07999999975,
      "d": 181.8179999999993,
      "v": 95
    },
    {
      "midi": 74,
      "hit": false,
      "t": 192908.89799999975,
      "d": 181.8179999999993,
      "v": 95
    },
    {
      "midi": 70,
      "hit": false,
      "t": 193090.71599999975,
      "d": 181.8179999999993,
      "v": 95
    },
    {
      "midi": 79,
      "hit": false,
      "t": 193272.53399999975,
      "d": 181.8179999999993,
      "v": 95
    },
    {
      "midi": 70,
      "hit": false,
      "t": 193454.35199999975,
      "d": 181.8179999999993,
      "v": 95
    },
    {
      "midi": 79,
      "hit": false,
      "t": 193636.16999999975,
      "d": 181.8179999999993,
      "v": 95
    },
    {
      "midi": 70,
      "hit": false,
      "t": 193817.98799999975,
      "d": 181.8179999999993,
      "v": 95
    },
    {
      "midi": 79,
      "hit": false,
      "t": 193999.80599999975,
      "d": 181.8179999999993,
      "v": 95
    },
    {
      "midi": 77,
      "hit": false,
      "t": 194363.44199999975,
      "d": 181.8179999999993,
      "v": 95
    },
    {
      "midi": 76,
      "hit": false,
      "t": 194545.25999999975,
      "d": 181.8179999999993,
      "v": 95
    },
    {
      "midi": 74,
      "hit": false,
      "t": 194727.07799999975,
      "d": 181.8179999999993,
      "v": 95
    },
    {
      "midi": 73,
      "hit": false,
      "t": 194908.89599999975,
      "d": 181.8179999999993,
      "v": 95
    },
    {
      "midi": 70,
      "hit": false,
      "t": 195090.71399999975,
      "d": 181.8179999999993,
      "v": 95
    },
    {
      "midi": 74,
      "hit": false,
      "t": 195272.53199999974,
      "d": 181.8179999999993,
      "v": 95
    },
    {
      "midi": 73,
      "hit": false,
      "t": 195454.34999999974,
      "d": 181.8179999999993,
      "v": 95
    },
    {
      "midi": 70,
      "hit": false,
      "t": 195636.16799999974,
      "d": 181.8179999999993,
      "v": 95
    },
    {
      "midi": 69,
      "hit": false,
      "t": 195817.98599999974,
      "d": 181.8179999999993,
      "v": 95
    },
    {
      "midi": 67,
      "hit": false,
      "t": 195999.80399999974,
      "d": 181.8179999999993,
      "v": 95
    },
    {
      "midi": 65,
      "hit": false,
      "t": 196181.62199999974,
      "d": 181.8179999999993,
      "v": 95
    },
    {
      "midi": 65,
      "hit": false,
      "t": 196363.43999999974,
      "d": 363.6359999999986,
      "v": 95
    },
    {
      "midi": 65,
      "hit": false,
      "t": 196727.07599999974,
      "d": 181.8179999999993,
      "v": 95
    },
    {
      "midi": 64,
      "hit": false,
      "t": 196908.89399999974,
      "d": 181.8179999999993,
      "v": 95
    },
    {
      "midi": 65,
      "hit": false,
      "t": 197090.71199999974,
      "d": 181.8179999999993,
      "v": 95
    },
    {
      "midi": 67,
      "hit": false,
      "t": 197272.52999999974,
      "d": 181.8179999999993,
      "v": 95
    },
    {
      "midi": 69,
      "hit": false,
      "t": 197454.34799999974,
      "d": 181.8179999999993,
      "v": 95
    },
    {
      "midi": 67,
      "hit": false,
      "t": 197636.16599999974,
      "d": 181.8179999999993,
      "v": 95
    },
    {
      "midi": 65,
      "hit": false,
      "t": 197817.98399999973,
      "d": 181.8179999999993,
      "v": 95
    },
    {
      "midi": 74,
      "hit": false,
      "t": 197999.80199999973,
      "d": 181.8179999999993,
      "v": 95
    },
    {
      "midi": 73,
      "hit": false,
      "t": 198181.61999999973,
      "d": 181.8179999999993,
      "v": 95
    },
    {
      "midi": 70,
      "hit": false,
      "t": 198363.43799999973,
      "d": 181.8179999999993,
      "v": 95
    },
    {
      "midi": 77,
      "hit": false,
      "t": 198545.25599999973,
      "d": 181.8179999999993,
      "v": 95
    },
    {
      "midi": 76,
      "hit": false,
      "t": 198727.07399999973,
      "d": 181.8179999999993,
      "v": 95
    },
    {
      "midi": 74,
      "hit": false,
      "t": 198908.89199999973,
      "d": 181.8179999999993,
      "v": 95
    },
    {
      "midi": 82,
      "hit": false,
      "t": 199090.70999999973,
      "d": 181.8179999999993,
      "v": 95
    },
    {
      "midi": 73,
      "hit": false,
      "t": 199272.52799999973,
      "d": 181.8179999999993,
      "v": 95
    },
    {
      "midi": 74,
      "hit": false,
      "t": 199454.34599999973,
      "d": 181.8179999999993,
      "v": 95
    },
    {
      "midi": 77,
      "hit": false,
      "t": 199636.16399999973,
      "d": 181.8179999999993,
      "v": 95
    },
    {
      "midi": 81,
      "hit": false,
      "t": 199817.98199999973,
      "d": 181.8179999999993,
      "v": 95
    },
    {
      "midi": 77,
      "hit": false,
      "t": 199999.79999999973,
      "d": 181.8179999999993,
      "v": 95
    },
    {
      "midi": 81,
      "hit": false,
      "t": 200181.61799999973,
      "d": 181.8179999999993,
      "v": 95
    },
    {
      "midi": 77,
      "hit": false,
      "t": 200363.43599999973,
      "d": 181.8179999999993,
      "v": 95
    },
    {
      "midi": 79,
      "hit": false,
      "t": 200545.25399999972,
      "d": 181.8179999999993,
      "v": 95
    },
    {
      "midi": 76,
      "hit": false,
      "t": 200908.88999999972,
      "d": 181.8179999999993,
      "v": 95
    },
    {
      "midi": 73,
      "hit": false,
      "t": 201090.70799999972,
      "d": 181.8179999999993,
      "v": 95
    },
    {
      "midi": 76,
      "hit": false,
      "t": 201272.52599999972,
      "d": 181.8179999999993,
      "v": 95
    },
    {
      "midi": 70,
      "hit": false,
      "t": 201454.34399999972,
      "d": 181.8179999999993,
      "v": 95
    },
    {
      "midi": 74,
      "hit": false,
      "t": 201636.16199999972,
      "d": 181.8179999999993,
      "v": 95
    },
    {
      "midi": 70,
      "hit": false,
      "t": 201817.97999999972,
      "d": 181.8179999999993,
      "v": 95
    },
    {
      "midi": 79,
      "hit": false,
      "t": 201999.79799999972,
      "d": 181.8179999999993,
      "v": 95
    },
    {
      "midi": 70,
      "hit": false,
      "t": 202181.61599999972,
      "d": 181.8179999999993,
      "v": 95
    },
    {
      "midi": 79,
      "hit": false,
      "t": 202363.43399999972,
      "d": 181.8179999999993,
      "v": 95
    },
    {
      "midi": 70,
      "hit": false,
      "t": 202545.25199999972,
      "d": 181.8179999999993,
      "v": 95
    },
    {
      "midi": 79,
      "hit": false,
      "t": 202727.06999999972,
      "d": 181.8179999999993,
      "v": 95
    },
    {
      "midi": 77,
      "hit": false,
      "t": 203090.7059999997,
      "d": 181.8179999999993,
      "v": 95
    },
    {
      "midi": 76,
      "hit": false,
      "t": 203272.5239999997,
      "d": 181.8179999999993,
      "v": 95
    },
    {
      "midi": 74,
      "hit": false,
      "t": 203454.3419999997,
      "d": 181.8179999999993,
      "v": 95
    },
    {
      "midi": 73,
      "hit": false,
      "t": 203636.1599999997,
      "d": 181.8179999999993,
      "v": 95
    },
    {
      "midi": 70,
      "hit": false,
      "t": 203817.9779999997,
      "d": 181.8179999999993,
      "v": 95
    },
    {
      "midi": 74,
      "hit": false,
      "t": 203999.7959999997,
      "d": 181.8179999999993,
      "v": 95
    },
    {
      "midi": 73,
      "hit": false,
      "t": 204181.6139999997,
      "d": 181.8179999999993,
      "v": 95
    },
    {
      "midi": 70,
      "hit": false,
      "t": 204363.4319999997,
      "d": 181.8179999999993,
      "v": 95
    },
    {
      "midi": 69,
      "hit": false,
      "t": 204545.2499999997,
      "d": 181.8179999999993,
      "v": 95
    },
    {
      "midi": 67,
      "hit": false,
      "t": 204727.0679999997,
      "d": 181.8179999999993,
      "v": 95
    },
    {
      "midi": 65,
      "hit": false,
      "t": 204908.8859999997,
      "d": 181.8179999999993,
      "v": 95
    },
    {
      "midi": 65,
      "hit": false,
      "t": 205090.7039999997,
      "d": 363.6359999999986,
      "v": 95
    },
    {
      "midi": 65,
      "hit": false,
      "t": 205454.3399999997,
      "d": 181.8179999999993,
      "v": 95
    },
    {
      "midi": 64,
      "hit": false,
      "t": 205636.1579999997,
      "d": 181.8179999999993,
      "v": 95
    },
    {
      "midi": 65,
      "hit": false,
      "t": 205817.9759999997,
      "d": 181.8179999999993,
      "v": 95
    },
    {
      "midi": 67,
      "hit": false,
      "t": 205999.7939999997,
      "d": 181.8179999999993,
      "v": 95
    },
    {
      "midi": 69,
      "hit": false,
      "t": 206181.6119999997,
      "d": 181.8179999999993,
      "v": 95
    },
    {
      "midi": 67,
      "hit": false,
      "t": 206363.4299999997,
      "d": 181.8179999999993,
      "v": 95
    },
    {
      "midi": 65,
      "hit": false,
      "t": 206545.2479999997,
      "d": 181.8179999999993,
      "v": 95
    },
    {
      "midi": 74,
      "hit": false,
      "t": 206727.0659999997,
      "d": 181.8179999999993,
      "v": 95
    },
    {
      "midi": 73,
      "hit": false,
      "t": 206908.8839999997,
      "d": 181.8179999999993,
      "v": 95
    },
    {
      "midi": 70,
      "hit": false,
      "t": 207090.7019999997,
      "d": 181.8179999999993,
      "v": 95
    },
    {
      "midi": 77,
      "hit": false,
      "t": 207272.5199999997,
      "d": 181.8179999999993,
      "v": 95
    },
    {
      "midi": 76,
      "hit": false,
      "t": 207454.3379999997,
      "d": 181.8179999999993,
      "v": 95
    },
    {
      "midi": 74,
      "hit": false,
      "t": 207636.1559999997,
      "d": 181.8179999999993,
      "v": 95
    },
    {
      "midi": 82,
      "hit": false,
      "t": 207817.9739999997,
      "d": 181.8179999999993,
      "v": 95
    },
    {
      "midi": 73,
      "hit": false,
      "t": 207999.7919999997,
      "d": 181.8179999999993,
      "v": 95
    },
    {
      "midi": 74,
      "hit": false,
      "t": 208181.6099999997,
      "d": 181.8179999999993,
      "v": 95
    },
    {
      "midi": 77,
      "hit": false,
      "t": 208363.4279999997,
      "d": 181.8179999999993,
      "v": 95
    },
    {
      "midi": 81,
      "hit": false,
      "t": 208545.2459999997,
      "d": 181.8179999999993,
      "v": 95
    },
    {
      "midi": 77,
      "hit": false,
      "t": 208727.0639999997,
      "d": 181.8179999999993,
      "v": 95
    },
    {
      "midi": 81,
      "hit": false,
      "t": 208908.8819999997,
      "d": 181.8179999999993,
      "v": 95
    },
    {
      "midi": 77,
      "hit": false,
      "t": 209090.6999999997,
      "d": 181.8179999999993,
      "v": 95
    },
    {
      "midi": 79,
      "hit": false,
      "t": 209272.5179999997,
      "d": 181.8179999999993,
      "v": 95
    },
    {
      "midi": 76,
      "hit": false,
      "t": 209636.1539999997,
      "d": 181.8179999999993,
      "v": 95
    },
    {
      "midi": 73,
      "hit": false,
      "t": 209817.9719999997,
      "d": 181.8179999999993,
      "v": 95
    },
    {
      "midi": 76,
      "hit": false,
      "t": 209999.7899999997,
      "d": 181.8179999999993,
      "v": 95
    },
    {
      "midi": 70,
      "hit": false,
      "t": 210181.6079999997,
      "d": 181.8179999999993,
      "v": 95
    },
    {
      "midi": 74,
      "hit": false,
      "t": 210363.4259999997,
      "d": 181.8179999999993,
      "v": 95
    },
    {
      "midi": 70,
      "hit": false,
      "t": 210545.2439999997,
      "d": 181.8179999999993,
      "v": 95
    },
    {
      "midi": 79,
      "hit": false,
      "t": 210727.06199999969,
      "d": 181.8179999999993,
      "v": 95
    },
    {
      "midi": 70,
      "hit": false,
      "t": 210908.87999999968,
      "d": 181.8179999999993,
      "v": 95
    },
    {
      "midi": 79,
      "hit": false,
      "t": 211090.69799999968,
      "d": 181.8179999999993,
      "v": 95
    },
    {
      "midi": 70,
      "hit": false,
      "t": 211272.51599999968,
      "d": 181.8179999999993,
      "v": 95
    },
    {
      "midi": 79,
      "hit": false,
      "t": 211454.33399999968,
      "d": 181.8179999999993,
      "v": 95
    },
    {
      "midi": 79,
      "hit": false,
      "t": 211636.15199999968,
      "d": 181.8179999999993,
      "v": 95
    },
    {
      "midi": 77,
      "hit": false,
      "t": 211817.96999999968,
      "d": 181.8179999999993,
      "v": 95
    },
    {
      "midi": 76,
      "hit": false,
      "t": 211999.78799999968,
      "d": 181.8179999999993,
      "v": 95
    },
    {
      "midi": 74,
      "hit": false,
      "t": 212181.60599999968,
      "d": 181.8179999999993,
      "v": 95
    },
    {
      "midi": 73,
      "hit": false,
      "t": 212363.42399999968,
      "d": 181.8179999999993,
      "v": 95
    },
    {
      "midi": 70,
      "hit": false,
      "t": 212545.24199999968,
      "d": 181.8179999999993,
      "v": 95
    },
    {
      "midi": 74,
      "hit": false,
      "t": 212727.05999999968,
      "d": 181.8179999999993,
      "v": 95
    },
    {
      "midi": 73,
      "hit": false,
      "t": 212908.87799999968,
      "d": 181.8179999999993,
      "v": 95
    },
    {
      "midi": 70,
      "hit": false,
      "t": 213090.69599999968,
      "d": 181.8179999999993,
      "v": 95
    },
    {
      "midi": 69,
      "hit": false,
      "t": 213272.51399999968,
      "d": 181.8179999999993,
      "v": 95
    },
    {
      "midi": 67,
      "hit": false,
      "t": 213454.33199999967,
      "d": 181.8179999999993,
      "v": 95
    },
    {
      "midi": 65,
      "hit": false,
      "t": 213636.14999999967,
      "d": 181.8179999999993,
      "v": 95
    },
    {
      "midi": 61,
      "hit": false,
      "t": 213817.96799999967,
      "d": 1090.9079999999958,
      "v": 95
    },
    {
      "midi": 69,
      "hit": false,
      "t": 213999.78599999967,
      "d": 181.8179999999993,
      "v": 95
    },
    {
      "midi": 66,
      "hit": false,
      "t": 214181.60399999967,
      "d": 181.8179999999993,
      "v": 95
    },
    {
      "midi": 69,
      "hit": false,
      "t": 214363.42199999967,
      "d": 181.8179999999993,
      "v": 95
    },
    {
      "midi": 68,
      "hit": false,
      "t": 214545.23999999967,
      "d": 181.8179999999993,
      "v": 95
    },
    {
      "midi": 69,
      "hit": false,
      "t": 214727.05799999967,
      "d": 181.8179999999993,
      "v": 95
    },
    {
      "midi": 61,
      "hit": false,
      "t": 214908.87599999967,
      "d": 1090.9079999999958,
      "v": 95
    },
    {
      "midi": 69,
      "hit": false,
      "t": 215090.69399999967,
      "d": 181.8179999999993,
      "v": 95
    },
    {
      "midi": 66,
      "hit": false,
      "t": 215272.51199999967,
      "d": 181.8179999999993,
      "v": 95
    },
    {
      "midi": 69,
      "hit": false,
      "t": 215454.32999999967,
      "d": 181.8179999999993,
      "v": 95
    },
    {
      "midi": 68,
      "hit": false,
      "t": 215636.14799999967,
      "d": 181.8179999999993,
      "v": 95
    },
    {
      "midi": 69,
      "hit": false,
      "t": 215817.96599999967,
      "d": 181.8179999999993,
      "v": 95
    },
    {
      "midi": 61,
      "hit": false,
      "t": 215999.78399999966,
      "d": 1090.9079999999958,
      "v": 95
    },
    {
      "midi": 69,
      "hit": false,
      "t": 216181.60199999966,
      "d": 181.8179999999993,
      "v": 95
    },
    {
      "midi": 66,
      "hit": false,
      "t": 216363.41999999966,
      "d": 181.8179999999993,
      "v": 95
    },
    {
      "midi": 69,
      "hit": false,
      "t": 216545.23799999966,
      "d": 181.8179999999993,
      "v": 95
    },
    {
      "midi": 68,
      "hit": false,
      "t": 216727.05599999966,
      "d": 181.8179999999993,
      "v": 95
    },
    {
      "midi": 69,
      "hit": false,
      "t": 216908.87399999966,
      "d": 181.8179999999993,
      "v": 95
    },
    {
      "midi": 61,
      "hit": false,
      "t": 217090.69199999966,
      "d": 1090.9079999999958,
      "v": 95
    },
    {
      "midi": 69,
      "hit": false,
      "t": 217272.50999999966,
      "d": 181.8179999999993,
      "v": 95
    },
    {
      "midi": 66,
      "hit": false,
      "t": 217454.32799999966,
      "d": 181.8179999999993,
      "v": 95
    },
    {
      "midi": 69,
      "hit": false,
      "t": 217636.14599999966,
      "d": 181.8179999999993,
      "v": 95
    },
    {
      "midi": 68,
      "hit": false,
      "t": 217817.96399999966,
      "d": 181.8179999999993,
      "v": 95
    },
    {
      "midi": 69,
      "hit": false,
      "t": 217999.78199999966,
      "d": 181.8179999999993,
      "v": 95
    },
    {
      "midi": 62,
      "hit": false,
      "t": 218181.59999999966,
      "d": 1090.9079999999958,
      "v": 95
    },
    {
      "midi": 69,
      "hit": false,
      "t": 218363.41799999966,
      "d": 181.8179999999993,
      "v": 95
    },
    {
      "midi": 68,
      "hit": false,
      "t": 218545.23599999966,
      "d": 181.8179999999993,
      "v": 95
    },
    {
      "midi": 71,
      "hit": false,
      "t": 218727.05399999965,
      "d": 181.8179999999993,
      "v": 95
    },
    {
      "midi": 68,
      "hit": false,
      "t": 218908.87199999965,
      "d": 181.8179999999993,
      "v": 95
    },
    {
      "midi": 69,
      "hit": false,
      "t": 219090.68999999965,
      "d": 181.8179999999993,
      "v": 95
    },
    {
      "midi": 62,
      "hit": false,
      "t": 219272.50799999965,
      "d": 1090.9079999999958,
      "v": 95
    },
    {
      "midi": 69,
      "hit": false,
      "t": 219454.32599999965,
      "d": 181.8179999999993,
      "v": 95
    },
    {
      "midi": 68,
      "hit": false,
      "t": 219636.14399999965,
      "d": 181.8179999999993,
      "v": 95
    },
    {
      "midi": 71,
      "hit": false,
      "t": 219817.96199999965,
      "d": 181.8179999999993,
      "v": 95
    },
    {
      "midi": 68,
      "hit": false,
      "t": 219999.77999999965,
      "d": 181.8179999999993,
      "v": 95
    },
    {
      "midi": 69,
      "hit": false,
      "t": 220181.59799999965,
      "d": 181.8179999999993,
      "v": 95
    },
    {
      "midi": 62,
      "hit": false,
      "t": 220363.41599999965,
      "d": 1090.9079999999958,
      "v": 95
    },
    {
      "midi": 69,
      "hit": false,
      "t": 220545.23399999965,
      "d": 181.8179999999993,
      "v": 95
    },
    {
      "midi": 68,
      "hit": false,
      "t": 220727.05199999965,
      "d": 181.8179999999993,
      "v": 95
    },
    {
      "midi": 71,
      "hit": false,
      "t": 220908.86999999965,
      "d": 181.8179999999993,
      "v": 95
    },
    {
      "midi": 68,
      "hit": false,
      "t": 221090.68799999965,
      "d": 181.8179999999993,
      "v": 95
    },
    {
      "midi": 69,
      "hit": false,
      "t": 221272.50599999964,
      "d": 181.8179999999993,
      "v": 95
    },
    {
      "midi": 62,
      "hit": false,
      "t": 221454.32399999964,
      "d": 1090.9079999999958,
      "v": 95
    },
    {
      "midi": 69,
      "hit": false,
      "t": 221636.14199999964,
      "d": 181.8179999999993,
      "v": 95
    },
    {
      "midi": 68,
      "hit": false,
      "t": 221817.95999999964,
      "d": 181.8179999999993,
      "v": 95
    },
    {
      "midi": 71,
      "hit": false,
      "t": 221999.77799999964,
      "d": 181.8179999999993,
      "v": 95
    },
    {
      "midi": 68,
      "hit": false,
      "t": 222181.59599999964,
      "d": 181.8179999999993,
      "v": 95
    },
    {
      "midi": 73,
      "hit": false,
      "t": 222363.41399999964,
      "d": 181.8179999999993,
      "v": 95
    },
    {
      "midi": 61,
      "hit": false,
      "t": 222545.23199999964,
      "d": 1090.9079999999958,
      "v": 95
    },
    {
      "midi": 69,
      "hit": false,
      "t": 222727.04999999964,
      "d": 181.8179999999993,
      "v": 95
    },
    {
      "midi": 66,
      "hit": false,
      "t": 222908.86799999964,
      "d": 181.8179999999993,
      "v": 95
    },
    {
      "midi": 69,
      "hit": false,
      "t": 223090.68599999964,
      "d": 181.8179999999993,
      "v": 95
    },
    {
      "midi": 68,
      "hit": false,
      "t": 223272.50399999964,
      "d": 181.8179999999993,
      "v": 95
    },
    {
      "midi": 69,
      "hit": false,
      "t": 223454.32199999964,
      "d": 181.8179999999993,
      "v": 95
    },
    {
      "midi": 61,
      "hit": false,
      "t": 223636.13999999964,
      "d": 1090.9079999999958,
      "v": 95
    },
    {
      "midi": 69,
      "hit": false,
      "t": 223817.95799999963,
      "d": 181.8179999999993,
      "v": 95
    },
    {
      "midi": 66,
      "hit": false,
      "t": 223999.77599999963,
      "d": 181.8179999999993,
      "v": 95
    },
    {
      "midi": 69,
      "hit": false,
      "t": 224181.59399999963,
      "d": 181.8179999999993,
      "v": 95
    },
    {
      "midi": 68,
      "hit": false,
      "t": 224363.41199999963,
      "d": 181.8179999999993,
      "v": 95
    },
    {
      "midi": 69,
      "hit": false,
      "t": 224545.22999999963,
      "d": 181.8179999999993,
      "v": 95
    },
    {
      "midi": 61,
      "hit": false,
      "t": 224727.04799999963,
      "d": 1090.9079999999958,
      "v": 95
    },
    {
      "midi": 69,
      "hit": false,
      "t": 224908.86599999963,
      "d": 181.8179999999993,
      "v": 95
    },
    {
      "midi": 66,
      "hit": false,
      "t": 225090.68399999963,
      "d": 181.8179999999993,
      "v": 95
    },
    {
      "midi": 69,
      "hit": false,
      "t": 225272.50199999963,
      "d": 181.8179999999993,
      "v": 95
    },
    {
      "midi": 68,
      "hit": false,
      "t": 225454.31999999963,
      "d": 181.8179999999993,
      "v": 95
    },
    {
      "midi": 69,
      "hit": false,
      "t": 225636.13799999963,
      "d": 181.8179999999993,
      "v": 95
    },
    {
      "midi": 61,
      "hit": false,
      "t": 225817.95599999963,
      "d": 1090.9079999999958,
      "v": 95
    },
    {
      "midi": 69,
      "hit": false,
      "t": 225999.77399999963,
      "d": 181.8179999999993,
      "v": 95
    },
    {
      "midi": 66,
      "hit": false,
      "t": 226181.59199999963,
      "d": 181.8179999999993,
      "v": 95
    },
    {
      "midi": 69,
      "hit": false,
      "t": 226363.40999999963,
      "d": 181.8179999999993,
      "v": 95
    },
    {
      "midi": 68,
      "hit": false,
      "t": 226545.22799999962,
      "d": 181.8179999999993,
      "v": 95
    },
    {
      "midi": 69,
      "hit": false,
      "t": 226727.04599999962,
      "d": 181.8179999999993,
      "v": 95
    },
    {
      "midi": 62,
      "hit": false,
      "t": 226908.86399999962,
      "d": 1090.9079999999958,
      "v": 95
    },
    {
      "midi": 69,
      "hit": false,
      "t": 227090.68199999962,
      "d": 181.8179999999993,
      "v": 95
    },
    {
      "midi": 68,
      "hit": false,
      "t": 227272.49999999962,
      "d": 181.8179999999993,
      "v": 95
    },
    {
      "midi": 71,
      "hit": false,
      "t": 227454.31799999962,
      "d": 181.8179999999993,
      "v": 95
    },
    {
      "midi": 68,
      "hit": false,
      "t": 227636.13599999962,
      "d": 181.8179999999993,
      "v": 95
    },
    {
      "midi": 69,
      "hit": false,
      "t": 227817.95399999962,
      "d": 181.8179999999993,
      "v": 95
    },
    {
      "midi": 62,
      "hit": false,
      "t": 227999.77199999962,
      "d": 1090.9079999999958,
      "v": 95
    },
    {
      "midi": 69,
      "hit": false,
      "t": 228181.58999999962,
      "d": 181.8179999999993,
      "v": 95
    },
    {
      "midi": 68,
      "hit": false,
      "t": 228363.40799999962,
      "d": 181.8179999999993,
      "v": 95
    },
    {
      "midi": 71,
      "hit": false,
      "t": 228545.22599999962,
      "d": 181.8179999999993,
      "v": 95
    },
    {
      "midi": 68,
      "hit": false,
      "t": 228727.04399999962,
      "d": 181.8179999999993,
      "v": 95
    },
    {
      "midi": 69,
      "hit": false,
      "t": 228908.86199999962,
      "d": 181.8179999999993,
      "v": 95
    },
    {
      "midi": 62,
      "hit": false,
      "t": 229090.67999999961,
      "d": 1090.9079999999958,
      "v": 95
    },
    {
      "midi": 69,
      "hit": false,
      "t": 229272.4979999996,
      "d": 181.8179999999993,
      "v": 95
    },
    {
      "midi": 68,
      "hit": false,
      "t": 229454.3159999996,
      "d": 181.8179999999993,
      "v": 95
    },
    {
      "midi": 71,
      "hit": false,
      "t": 229636.1339999996,
      "d": 181.8179999999993,
      "v": 95
    },
    {
      "midi": 68,
      "hit": false,
      "t": 229817.9519999996,
      "d": 181.8179999999993,
      "v": 95
    },
    {
      "midi": 69,
      "hit": false,
      "t": 229999.7699999996,
      "d": 181.8179999999993,
      "v": 95
    },
    {
      "midi": 62,
      "hit": false,
      "t": 230181.5879999996,
      "d": 1090.9079999999958,
      "v": 95
    },
    {
      "midi": 69,
      "hit": false,
      "t": 230363.4059999996,
      "d": 181.8179999999993,
      "v": 95
    },
    {
      "midi": 68,
      "hit": false,
      "t": 230545.2239999996,
      "d": 181.8179999999993,
      "v": 95
    },
    {
      "midi": 71,
      "hit": false,
      "t": 230727.0419999996,
      "d": 181.8179999999993,
      "v": 95
    },
    {
      "midi": 68,
      "hit": false,
      "t": 230908.8599999996,
      "d": 181.8179999999993,
      "v": 95
    },
    {
      "midi": 73,
      "hit": false,
      "t": 231090.6779999996,
      "d": 181.8179999999993,
      "v": 95
    },
    {
      "midi": 61,
      "hit": false,
      "t": 231272.4959999996,
      "d": 1090.9079999999958,
      "v": 95
    },
    {
      "midi": 69,
      "hit": false,
      "t": 231454.3139999996,
      "d": 181.8179999999993,
      "v": 95
    },
    {
      "midi": 66,
      "hit": false,
      "t": 231636.1319999996,
      "d": 181.8179999999993,
      "v": 95
    },
    {
      "midi": 69,
      "hit": false,
      "t": 231817.9499999996,
      "d": 181.8179999999993,
      "v": 95
    },
    {
      "midi": 68,
      "hit": false,
      "t": 231999.7679999996,
      "d": 181.8179999999993,
      "v": 95
    },
    {
      "midi": 69,
      "hit": false,
      "t": 232181.5859999996,
      "d": 181.8179999999993,
      "v": 95
    },
    {
      "midi": 61,
      "hit": false,
      "t": 232363.4039999996,
      "d": 1090.9079999999958,
      "v": 95
    },
    {
      "midi": 69,
      "hit": false,
      "t": 232545.2219999996,
      "d": 181.8179999999993,
      "v": 95
    },
    {
      "midi": 66,
      "hit": false,
      "t": 232727.0399999996,
      "d": 181.8179999999993,
      "v": 95
    },
    {
      "midi": 69,
      "hit": false,
      "t": 232908.8579999996,
      "d": 181.8179999999993,
      "v": 95
    },
    {
      "midi": 68,
      "hit": false,
      "t": 233090.6759999996,
      "d": 181.8179999999993,
      "v": 95
    },
    {
      "midi": 69,
      "hit": false,
      "t": 233272.4939999996,
      "d": 181.8179999999993,
      "v": 95
    },
    {
      "midi": 61,
      "hit": false,
      "t": 233454.3119999996,
      "d": 1090.9079999999958,
      "v": 95
    },
    {
      "midi": 69,
      "hit": false,
      "t": 233636.1299999996,
      "d": 181.8179999999993,
      "v": 95
    },
    {
      "midi": 66,
      "hit": false,
      "t": 233817.9479999996,
      "d": 181.8179999999993,
      "v": 95
    },
    {
      "midi": 69,
      "hit": false,
      "t": 233999.7659999996,
      "d": 181.8179999999993,
      "v": 95
    },
    {
      "midi": 68,
      "hit": false,
      "t": 234181.5839999996,
      "d": 181.8179999999993,
      "v": 95
    },
    {
      "midi": 69,
      "hit": false,
      "t": 234363.4019999996,
      "d": 181.8179999999993,
      "v": 95
    },
    {
      "midi": 61,
      "hit": false,
      "t": 234545.2199999996,
      "d": 1090.9079999999958,
      "v": 95
    },
    {
      "midi": 69,
      "hit": false,
      "t": 234727.0379999996,
      "d": 181.8179999999993,
      "v": 95
    },
    {
      "midi": 66,
      "hit": false,
      "t": 234908.8559999996,
      "d": 181.8179999999993,
      "v": 95
    },
    {
      "midi": 69,
      "hit": false,
      "t": 235090.6739999996,
      "d": 181.8179999999993,
      "v": 95
    },
    {
      "midi": 68,
      "hit": false,
      "t": 235272.4919999996,
      "d": 181.8179999999993,
      "v": 95
    },
    {
      "midi": 69,
      "hit": false,
      "t": 235454.3099999996,
      "d": 181.8179999999993,
      "v": 95
    },
    {
      "midi": 62,
      "hit": false,
      "t": 235636.1279999996,
      "d": 1090.9079999999958,
      "v": 95
    },
    {
      "midi": 69,
      "hit": false,
      "t": 235817.9459999996,
      "d": 181.8179999999993,
      "v": 95
    },
    {
      "midi": 68,
      "hit": false,
      "t": 235999.7639999996,
      "d": 181.8179999999993,
      "v": 95
    },
    {
      "midi": 71,
      "hit": false,
      "t": 236181.5819999996,
      "d": 181.8179999999993,
      "v": 95
    },
    {
      "midi": 68,
      "hit": false,
      "t": 236363.3999999996,
      "d": 181.8179999999993,
      "v": 95
    },
    {
      "midi": 69,
      "hit": false,
      "t": 236545.2179999996,
      "d": 181.8179999999993,
      "v": 95
    },
    {
      "midi": 62,
      "hit": false,
      "t": 236727.03599999959,
      "d": 1090.9079999999958,
      "v": 95
    },
    {
      "midi": 69,
      "hit": false,
      "t": 236908.85399999958,
      "d": 181.8179999999993,
      "v": 95
    },
    {
      "midi": 68,
      "hit": false,
      "t": 237090.67199999958,
      "d": 181.8179999999993,
      "v": 95
    },
    {
      "midi": 71,
      "hit": false,
      "t": 237272.48999999958,
      "d": 181.8179999999993,
      "v": 95
    },
    {
      "midi": 68,
      "hit": false,
      "t": 237454.30799999958,
      "d": 181.8179999999993,
      "v": 95
    },
    {
      "midi": 69,
      "hit": false,
      "t": 237636.12599999958,
      "d": 181.8179999999993,
      "v": 95
    },
    {
      "midi": 62,
      "hit": false,
      "t": 237817.94399999958,
      "d": 1090.9079999999958,
      "v": 95
    },
    {
      "midi": 69,
      "hit": false,
      "t": 237999.76199999958,
      "d": 181.8179999999993,
      "v": 95
    },
    {
      "midi": 68,
      "hit": false,
      "t": 238181.57999999958,
      "d": 181.8179999999993,
      "v": 95
    },
    {
      "midi": 71,
      "hit": false,
      "t": 238363.39799999958,
      "d": 181.8179999999993,
      "v": 95
    },
    {
      "midi": 68,
      "hit": false,
      "t": 238545.21599999958,
      "d": 181.8179999999993,
      "v": 95
    },
    {
      "midi": 69,
      "hit": false,
      "t": 238727.03399999958,
      "d": 181.8179999999993,
      "v": 95
    },
    {
      "midi": 62,
      "hit": false,
      "t": 238908.85199999958,
      "d": 1090.9079999999958,
      "v": 95
    },
    {
      "midi": 69,
      "hit": false,
      "t": 239090.66999999958,
      "d": 181.8179999999993,
      "v": 95
    },
    {
      "midi": 68,
      "hit": false,
      "t": 239272.48799999958,
      "d": 181.8179999999993,
      "v": 95
    },
    {
      "midi": 71,
      "hit": false,
      "t": 239454.30599999957,
      "d": 181.8179999999993,
      "v": 95
    },
    {
      "midi": 68,
      "hit": false,
      "t": 239636.12399999957,
      "d": 181.8179999999993,
      "v": 95
    },
    {
      "midi": 73,
      "hit": false,
      "t": 239817.94199999957,
      "d": 181.8179999999993,
      "v": 95
    },
    {
      "midi": 61,
      "hit": false,
      "t": 239999.75999999957,
      "d": 1090.9079999999958,
      "v": 95
    },
    {
      "midi": 69,
      "hit": false,
      "t": 240181.57799999957,
      "d": 181.8179999999993,
      "v": 95
    },
    {
      "midi": 66,
      "hit": false,
      "t": 240363.39599999957,
      "d": 181.8179999999993,
      "v": 95
    },
    {
      "midi": 69,
      "hit": false,
      "t": 240545.21399999957,
      "d": 181.8179999999993,
      "v": 95
    },
    {
      "midi": 68,
      "hit": false,
      "t": 240727.03199999957,
      "d": 181.8179999999993,
      "v": 95
    },
    {
      "midi": 69,
      "hit": false,
      "t": 240908.84999999957,
      "d": 181.8179999999993,
      "v": 95
    },
    {
      "midi": 61,
      "hit": false,
      "t": 241090.66799999957,
      "d": 1090.9079999999958,
      "v": 95
    },
    {
      "midi": 69,
      "hit": false,
      "t": 241272.48599999957,
      "d": 181.8179999999993,
      "v": 95
    },
    {
      "midi": 66,
      "hit": false,
      "t": 241454.30399999957,
      "d": 181.8179999999993,
      "v": 95
    },
    {
      "midi": 69,
      "hit": false,
      "t": 241636.12199999957,
      "d": 181.8179999999993,
      "v": 95
    },
    {
      "midi": 68,
      "hit": false,
      "t": 241817.93999999957,
      "d": 181.8179999999993,
      "v": 95
    },
    {
      "midi": 69,
      "hit": false,
      "t": 241999.75799999957,
      "d": 181.8179999999993,
      "v": 95
    },
    {
      "midi": 61,
      "hit": false,
      "t": 242181.57599999956,
      "d": 1090.9079999999958,
      "v": 95
    },
    {
      "midi": 69,
      "hit": false,
      "t": 242363.39399999956,
      "d": 181.8179999999993,
      "v": 95
    },
    {
      "midi": 66,
      "hit": false,
      "t": 242545.21199999956,
      "d": 181.8179999999993,
      "v": 95
    },
    {
      "midi": 69,
      "hit": false,
      "t": 242727.02999999956,
      "d": 181.8179999999993,
      "v": 95
    },
    {
      "midi": 68,
      "hit": false,
      "t": 242908.84799999956,
      "d": 181.8179999999993,
      "v": 95
    },
    {
      "midi": 69,
      "hit": false,
      "t": 243090.66599999956,
      "d": 181.8179999999993,
      "v": 95
    },
    {
      "midi": 61,
      "hit": false,
      "t": 243272.48399999956,
      "d": 1090.9079999999958,
      "v": 95
    },
    {
      "midi": 69,
      "hit": false,
      "t": 243454.30199999956,
      "d": 181.8179999999993,
      "v": 95
    },
    {
      "midi": 66,
      "hit": false,
      "t": 243636.11999999956,
      "d": 181.8179999999993,
      "v": 95
    },
    {
      "midi": 69,
      "hit": false,
      "t": 243817.93799999956,
      "d": 181.8179999999993,
      "v": 95
    },
    {
      "midi": 68,
      "hit": false,
      "t": 243999.75599999956,
      "d": 181.8179999999993,
      "v": 95
    },
    {
      "midi": 69,
      "hit": false,
      "t": 244181.57399999956,
      "d": 181.8179999999993,
      "v": 95
    },
    {
      "midi": 62,
      "hit": false,
      "t": 244363.39199999956,
      "d": 1090.9079999999958,
      "v": 95
    },
    {
      "midi": 69,
      "hit": false,
      "t": 244545.20999999956,
      "d": 181.8179999999993,
      "v": 95
    },
    {
      "midi": 68,
      "hit": false,
      "t": 244727.02799999955,
      "d": 181.8179999999993,
      "v": 95
    },
    {
      "midi": 71,
      "hit": false,
      "t": 244908.84599999955,
      "d": 181.8179999999993,
      "v": 95
    },
    {
      "midi": 68,
      "hit": false,
      "t": 245090.66399999955,
      "d": 181.8179999999993,
      "v": 95
    },
    {
      "midi": 69,
      "hit": false,
      "t": 245272.48199999955,
      "d": 181.8179999999993,
      "v": 95
    },
    {
      "midi": 62,
      "hit": false,
      "t": 245454.29999999955,
      "d": 1090.9079999999958,
      "v": 95
    },
    {
      "midi": 69,
      "hit": false,
      "t": 245636.11799999955,
      "d": 181.8179999999993,
      "v": 95
    },
    {
      "midi": 68,
      "hit": false,
      "t": 245817.93599999955,
      "d": 181.8179999999993,
      "v": 95
    },
    {
      "midi": 71,
      "hit": false,
      "t": 245999.75399999955,
      "d": 181.8179999999993,
      "v": 95
    },
    {
      "midi": 68,
      "hit": false,
      "t": 246181.57199999955,
      "d": 181.8179999999993,
      "v": 95
    },
    {
      "midi": 69,
      "hit": false,
      "t": 246363.38999999955,
      "d": 181.8179999999993,
      "v": 95
    },
    {
      "midi": 62,
      "hit": false,
      "t": 246545.20799999955,
      "d": 1090.9079999999958,
      "v": 95
    },
    {
      "midi": 69,
      "hit": false,
      "t": 246727.02599999955,
      "d": 181.8179999999993,
      "v": 95
    },
    {
      "midi": 68,
      "hit": false,
      "t": 246908.84399999955,
      "d": 181.8179999999993,
      "v": 95
    },
    {
      "midi": 71,
      "hit": false,
      "t": 247090.66199999955,
      "d": 181.8179999999993,
      "v": 95
    },
    {
      "midi": 68,
      "hit": false,
      "t": 247272.47999999954,
      "d": 181.8179999999993,
      "v": 95
    },
    {
      "midi": 69,
      "hit": false,
      "t": 247454.29799999954,
      "d": 181.8179999999993,
      "v": 95
    },
    {
      "midi": 62,
      "hit": false,
      "t": 247636.11599999954,
      "d": 1272.725999999995,
      "v": 95
    },
    {
      "midi": 69,
      "hit": false,
      "t": 247817.93399999954,
      "d": 181.8179999999993,
      "v": 95
    },
    {
      "midi": 68,
      "hit": false,
      "t": 247999.75199999954,
      "d": 181.8179999999993,
      "v": 95
    },
    {
      "midi": 71,
      "hit": false,
      "t": 248181.56999999954,
      "d": 181.8179999999993,
      "v": 95
    },
    {
      "midi": 68,
      "hit": false,
      "t": 248363.38799999954,
      "d": 181.8179999999993,
      "v": 95
    },
    {
      "midi": 73,
      "hit": false,
      "t": 248545.20599999954,
      "d": 181.8179999999993,
      "v": 95
    },
    {
      "midi": 54,
      "hit": false,
      "t": 248727.02399999954,
      "d": 1090.9079999999958,
      "v": 95
    },
    {
      "midi": 61,
      "hit": false,
      "t": 248908.84199999954,
      "d": 1090.9079999999958,
      "v": 95
    },
    {
      "midi": 66,
      "hit": false,
      "t": 249090.65999999954,
      "d": 181.8179999999993,
      "v": 95
    },
    {
      "midi": 69,
      "hit": false,
      "t": 249272.47799999954,
      "d": 181.8179999999993,
      "v": 95
    },
    {
      "midi": 73,
      "hit": false,
      "t": 249454.29599999954,
      "d": 181.8179999999993,
      "v": 95
    },
    {
      "midi": 69,
      "hit": false,
      "t": 249636.11399999954,
      "d": 181.8179999999993,
      "v": 95
    },
    {
      "midi": 54,
      "hit": false,
      "t": 249817.93199999954,
      "d": 1090.9079999999958,
      "v": 95
    },
    {
      "midi": 59,
      "hit": false,
      "t": 249999.74999999953,
      "d": 1090.9079999999958,
      "v": 95
    },
    {
      "midi": 66,
      "hit": false,
      "t": 250181.56799999953,
      "d": 181.8179999999993,
      "v": 95
    },
    {
      "midi": 68,
      "hit": false,
      "t": 250363.38599999953,
      "d": 181.8179999999993,
      "v": 95
    },
    {
      "midi": 71,
      "hit": false,
      "t": 250545.20399999953,
      "d": 181.8179999999993,
      "v": 95
    },
    {
      "midi": 68,
      "hit": false,
      "t": 250727.02199999953,
      "d": 181.8179999999993,
      "v": 95
    },
    {
      "midi": 52,
      "hit": false,
      "t": 250908.83999999953,
      "d": 1090.9079999999958,
      "v": 95
    },
    {
      "midi": 59,
      "hit": false,
      "t": 251090.65799999953,
      "d": 1272.725999999995,
      "v": 95
    },
    {
      "midi": 64,
      "hit": false,
      "t": 251272.47599999953,
      "d": 181.8179999999993,
      "v": 95
    },
    {
      "midi": 71,
      "hit": false,
      "t": 251454.29399999953,
      "d": 181.8179999999993,
      "v": 95
    },
    {
      "midi": 68,
      "hit": false,
      "t": 251636.11199999953,
      "d": 181.8179999999993,
      "v": 95
    },
    {
      "midi": 71,
      "hit": false,
      "t": 251817.92999999953,
      "d": 181.8179999999993,
      "v": 95
    },
    {
      "midi": 50,
      "hit": false,
      "t": 251999.74799999953,
      "d": 1090.9079999999958,
      "v": 95
    },
    {
      "midi": 57,
      "hit": false,
      "t": 252181.56599999953,
      "d": 2181.8159999999916,
      "v": 95
    },
    {
      "midi": 62,
      "hit": false,
      "t": 252363.38399999953,
      "d": 181.8179999999993,
      "v": 95
    },
    {
      "midi": 66,
      "hit": false,
      "t": 252545.20199999952,
      "d": 181.8179999999993,
      "v": 95
    },
    {
      "midi": 69,
      "hit": false,
      "t": 252727.01999999952,
      "d": 181.8179999999993,
      "v": 95
    },
    {
      "midi": 66,
      "hit": false,
      "t": 252908.83799999952,
      "d": 181.8179999999993,
      "v": 95
    },
    {
      "midi": 54,
      "hit": false,
      "t": 253090.65599999952,
      "d": 1090.9079999999958,
      "v": 95
    },
    {
      "midi": 61,
      "hit": false,
      "t": 253272.47399999952,
      "d": 1090.9079999999958,
      "v": 95
    },
    {
      "midi": 66,
      "hit": false,
      "t": 253454.29199999952,
      "d": 181.8179999999993,
      "v": 95
    },
    {
      "midi": 69,
      "hit": false,
      "t": 253636.10999999952,
      "d": 181.8179999999993,
      "v": 95
    },
    {
      "midi": 73,
      "hit": false,
      "t": 253817.92799999952,
      "d": 181.8179999999993,
      "v": 95
    },
    {
      "midi": 69,
      "hit": false,
      "t": 253999.74599999952,
      "d": 181.8179999999993,
      "v": 95
    },
    {
      "midi": 54,
      "hit": false,
      "t": 254181.56399999952,
      "d": 1090.9079999999958,
      "v": 95
    },
    {
      "midi": 59,
      "hit": false,
      "t": 254363.38199999952,
      "d": 1090.9079999999958,
      "v": 95
    },
    {
      "midi": 66,
      "hit": false,
      "t": 254545.19999999952,
      "d": 181.8179999999993,
      "v": 95
    },
    {
      "midi": 68,
      "hit": false,
      "t": 254727.01799999952,
      "d": 181.8179999999993,
      "v": 95
    },
    {
      "midi": 71,
      "hit": false,
      "t": 254908.83599999952,
      "d": 181.8179999999993,
      "v": 95
    },
    {
      "midi": 68,
      "hit": false,
      "t": 255090.65399999951,
      "d": 181.8179999999993,
      "v": 95
    },
    {
      "midi": 52,
      "hit": false,
      "t": 255272.4719999995,
      "d": 1090.9079999999958,
      "v": 95
    },
    {
      "midi": 59,
      "hit": false,
      "t": 255454.2899999995,
      "d": 909.0899999999965,
      "v": 95
    },
    {
      "midi": 64,
      "hit": false,
      "t": 255636.1079999995,
      "d": 181.8179999999993,
      "v": 95
    },
    {
      "midi": 71,
      "hit": false,
      "t": 255817.9259999995,
      "d": 181.8179999999993,
      "v": 95
    },
    {
      "midi": 68,
      "hit": false,
      "t": 255999.7439999995,
      "d": 181.8179999999993,
      "v": 95
    },
    {
      "midi": 71,
      "hit": false,
      "t": 256181.5619999995,
      "d": 181.8179999999993,
      "v": 95
    },
    {
      "midi": 50,
      "hit": false,
      "t": 256363.3799999995,
      "d": 181.8179999999993,
      "v": 95
    },
    {
      "midi": 66,
      "hit": false,
      "t": 256363.3799999995,
      "d": 363.6359999999986,
      "v": 95
    },
    {
      "midi": 69,
      "hit": false,
      "t": 256363.3799999995,
      "d": 545.4539999999979,
      "v": 95
    },
    {
      "midi": 57,
      "hit": false,
      "t": 256545.1979999995,
      "d": 181.8179999999993,
      "v": 95
    },
    {
      "midi": 62,
      "hit": false,
      "t": 256727.0159999995,
      "d": 181.8179999999993,
      "v": 95
    },
    {
      "midi": 49,
      "hit": false,
      "t": 256908.8339999995,
      "d": 181.8179999999993,
      "v": 95
    },
    {
      "midi": 65,
      "hit": false,
      "t": 256908.8339999995,
      "d": 363.6359999999986,
      "v": 95
    },
    {
      "midi": 68,
      "hit": false,
      "t": 256908.8339999995,
      "d": 909.0899999999965,
      "v": 95
    },
    {
      "midi": 56,
      "hit": false,
      "t": 257090.6519999995,
      "d": 181.8179999999993,
      "v": 95
    },
    {
      "midi": 61,
      "hit": false,
      "t": 257272.4699999995,
      "d": 181.8179999999993,
      "v": 95
    },
    {
      "midi": 54,
      "hit": false,
      "t": 257454.2879999995,
      "d": 1090.9079999999958,
      "v": 95
    },
    {
      "midi": 61,
      "hit": false,
      "t": 257636.1059999995,
      "d": 1090.9079999999958,
      "v": 95
    },
    {
      "midi": 66,
      "hit": false,
      "t": 257817.9239999995,
      "d": 181.8179999999993,
      "v": 95
    },
    {
      "midi": 69,
      "hit": false,
      "t": 257999.7419999995,
      "d": 181.8179999999993,
      "v": 95
    },
    {
      "midi": 73,
      "hit": false,
      "t": 258181.5599999995,
      "d": 181.8179999999993,
      "v": 95
    },
    {
      "midi": 69,
      "hit": false,
      "t": 258363.3779999995,
      "d": 181.8179999999993,
      "v": 95
    },
    {
      "midi": 54,
      "hit": false,
      "t": 258545.1959999995,
      "d": 1090.9079999999958,
      "v": 95
    },
    {
      "midi": 59,
      "hit": false,
      "t": 258727.0139999995,
      "d": 1090.9079999999958,
      "v": 95
    },
    {
      "midi": 66,
      "hit": false,
      "t": 258908.8319999995,
      "d": 181.8179999999993,
      "v": 95
    },
    {
      "midi": 68,
      "hit": false,
      "t": 259090.6499999995,
      "d": 181.8179999999993,
      "v": 95
    },
    {
      "midi": 71,
      "hit": false,
      "t": 259272.4679999995,
      "d": 181.8179999999993,
      "v": 95
    },
    {
      "midi": 68,
      "hit": false,
      "t": 259454.2859999995,
      "d": 181.8179999999993,
      "v": 95
    },
    {
      "midi": 52,
      "hit": false,
      "t": 259636.1039999995,
      "d": 1090.9079999999958,
      "v": 95
    },
    {
      "midi": 59,
      "hit": false,
      "t": 259817.9219999995,
      "d": 1272.725999999995,
      "v": 95
    },
    {
      "midi": 64,
      "hit": false,
      "t": 259999.7399999995,
      "d": 181.8179999999993,
      "v": 95
    },
    {
      "midi": 71,
      "hit": false,
      "t": 260181.5579999995,
      "d": 181.8179999999993,
      "v": 95
    },
    {
      "midi": 68,
      "hit": false,
      "t": 260363.3759999995,
      "d": 181.8179999999993,
      "v": 95
    },
    {
      "midi": 71,
      "hit": false,
      "t": 260545.1939999995,
      "d": 181.8179999999993,
      "v": 95
    },
    {
      "midi": 50,
      "hit": false,
      "t": 260727.0119999995,
      "d": 1090.9079999999958,
      "v": 95
    },
    {
      "midi": 57,
      "hit": false,
      "t": 260908.8299999995,
      "d": 2181.8160000001662,
      "v": 95
    },
    {
      "midi": 62,
      "hit": false,
      "t": 261090.6479999995,
      "d": 181.8179999999993,
      "v": 95
    },
    {
      "midi": 66,
      "hit": false,
      "t": 261272.4659999995,
      "d": 181.8179999999993,
      "v": 95
    },
    {
      "midi": 69,
      "hit": false,
      "t": 261454.2839999995,
      "d": 181.8179999999993,
      "v": 95
    },
    {
      "midi": 66,
      "hit": false,
      "t": 261636.1019999995,
      "d": 181.8179999999993,
      "v": 95
    },
    {
      "midi": 54,
      "hit": false,
      "t": 261817.9199999995,
      "d": 1090.9080000001413,
      "v": 95
    },
    {
      "midi": 61,
      "hit": false,
      "t": 261999.7379999995,
      "d": 1090.9080000001704,
      "v": 95
    },
    {
      "midi": 66,
      "hit": false,
      "t": 262181.5559999995,
      "d": 181.8180000000284,
      "v": 95
    },
    {
      "midi": 69,
      "hit": false,
      "t": 262363.37399999955,
      "d": 181.8180000000284,
      "v": 95
    },
    {
      "midi": 73,
      "hit": false,
      "t": 262545.1919999996,
      "d": 181.8180000000284,
      "v": 95
    },
    {
      "midi": 69,
      "hit": false,
      "t": 262727.0099999996,
      "d": 181.8180000000284,
      "v": 95
    },
    {
      "midi": 54,
      "hit": false,
      "t": 262908.82799999963,
      "d": 1090.9080000001704,
      "v": 95
    },
    {
      "midi": 59,
      "hit": false,
      "t": 263090.64599999966,
      "d": 1090.9080000001704,
      "v": 95
    },
    {
      "midi": 66,
      "hit": false,
      "t": 263272.4639999997,
      "d": 181.8180000000284,
      "v": 95
    },
    {
      "midi": 68,
      "hit": false,
      "t": 263454.2819999997,
      "d": 181.8180000000284,
      "v": 95
    },
    {
      "midi": 71,
      "hit": false,
      "t": 263636.09999999974,
      "d": 181.8180000000284,
      "v": 95
    },
    {
      "midi": 68,
      "hit": false,
      "t": 263817.9179999998,
      "d": 181.8180000000284,
      "v": 95
    },
    {
      "midi": 52,
      "hit": false,
      "t": 263999.7359999998,
      "d": 1090.9080000001704,
      "v": 95
    },
    {
      "midi": 59,
      "hit": false,
      "t": 264181.5539999998,
      "d": 909.090000000142,
      "v": 95
    },
    {
      "midi": 64,
      "hit": false,
      "t": 264363.37199999986,
      "d": 181.8180000000284,
      "v": 95
    },
    {
      "midi": 71,
      "hit": false,
      "t": 264545.1899999999,
      "d": 181.8180000000284,
      "v": 95
    },
    {
      "midi": 68,
      "hit": false,
      "t": 264727.0079999999,
      "d": 181.8180000000284,
      "v": 95
    },
    {
      "midi": 71,
      "hit": false,
      "t": 264908.82599999994,
      "d": 181.8180000000284,
      "v": 95
    },
    {
      "midi": 50,
      "hit": false,
      "t": 265090.644,
      "d": 181.8180000000284,
      "v": 95
    },
    {
      "midi": 66,
      "hit": false,
      "t": 265090.644,
      "d": 363.6360000000568,
      "v": 95
    },
    {
      "midi": 69,
      "hit": false,
      "t": 265090.644,
      "d": 545.4540000000852,
      "v": 95
    },
    {
      "midi": 57,
      "hit": false,
      "t": 265272.462,
      "d": 181.8180000000284,
      "v": 95
    },
    {
      "midi": 62,
      "hit": false,
      "t": 265454.28,
      "d": 181.8180000000284,
      "v": 95
    },
    {
      "midi": 49,
      "hit": false,
      "t": 265636.09800000006,
      "d": 181.8180000000284,
      "v": 95
    },
    {
      "midi": 65,
      "hit": false,
      "t": 265636.09800000006,
      "d": 363.6360000000568,
      "v": 95
    },
    {
      "midi": 68,
      "hit": false,
      "t": 265636.09800000006,
      "d": 727.2720000001136,
      "v": 95
    },
    {
      "midi": 56,
      "hit": false,
      "t": 265817.9160000001,
      "d": 181.8180000000284,
      "v": 95
    },
    {
      "midi": 61,
      "hit": false,
      "t": 265999.7340000001,
      "d": 181.8180000000284,
      "v": 95
    },
    {
      "midi": 61,
      "hit": false,
      "t": 266181.55200000014,
      "d": 1090.9080000001704,
      "v": 95
    },
    {
      "midi": 69,
      "hit": false,
      "t": 266363.37000000017,
      "d": 181.8180000000284,
      "v": 95
    },
    {
      "midi": 66,
      "hit": false,
      "t": 266545.1880000002,
      "d": 181.8180000000284,
      "v": 95
    },
    {
      "midi": 69,
      "hit": false,
      "t": 266727.0060000002,
      "d": 181.8180000000284,
      "v": 95
    },
    {
      "midi": 68,
      "hit": false,
      "t": 266908.82400000026,
      "d": 181.8180000000284,
      "v": 95
    },
    {
      "midi": 73,
      "hit": false,
      "t": 267090.6420000003,
      "d": 181.8180000000284,
      "v": 95
    },
    {
      "midi": 61,
      "hit": false,
      "t": 267272.4600000003,
      "d": 1090.9080000001704,
      "v": 95
    },
    {
      "midi": 69,
      "hit": false,
      "t": 267454.27800000034,
      "d": 181.8180000000284,
      "v": 95
    },
    {
      "midi": 66,
      "hit": false,
      "t": 267636.09600000037,
      "d": 181.8180000000284,
      "v": 95
    },
    {
      "midi": 69,
      "hit": false,
      "t": 267817.9140000004,
      "d": 181.8180000000284,
      "v": 95
    },
    {
      "midi": 68,
      "hit": false,
      "t": 267999.7320000004,
      "d": 181.8180000000284,
      "v": 95
    },
    {
      "midi": 73,
      "hit": false,
      "t": 268181.55000000045,
      "d": 181.8180000000284,
      "v": 95
    },
    {
      "midi": 61,
      "hit": false,
      "t": 268363.3680000005,
      "d": 1090.9080000001704,
      "v": 95
    },
    {
      "midi": 69,
      "hit": false,
      "t": 268545.1860000005,
      "d": 181.8180000000284,
      "v": 95
    },
    {
      "midi": 66,
      "hit": false,
      "t": 268727.00400000054,
      "d": 181.8180000000284,
      "v": 95
    },
    {
      "midi": 69,
      "hit": false,
      "t": 268908.82200000057,
      "d": 181.8180000000284,
      "v": 95
    },
    {
      "midi": 68,
      "hit": false,
      "t": 269090.6400000006,
      "d": 181.8180000000284,
      "v": 95
    },
    {
      "midi": 73,
      "hit": false,
      "t": 269272.4580000006,
      "d": 181.8180000000284,
      "v": 95
    },
    {
      "midi": 61,
      "hit": false,
      "t": 269454.27600000065,
      "d": 1090.9080000001704,
      "v": 95
    },
    {
      "midi": 69,
      "hit": false,
      "t": 269636.0940000007,
      "d": 181.8180000000284,
      "v": 95
    },
    {
      "midi": 66,
      "hit": false,
      "t": 269817.9120000007,
      "d": 181.8180000000284,
      "v": 95
    },
    {
      "midi": 69,
      "hit": false,
      "t": 269999.73000000074,
      "d": 181.8180000000284,
      "v": 95
    },
    {
      "midi": 68,
      "hit": false,
      "t": 270181.54800000077,
      "d": 181.8180000000284,
      "v": 95
    },
    {
      "midi": 73,
      "hit": false,
      "t": 270363.3660000008,
      "d": 181.8180000000284,
      "v": 95
    },
    {
      "midi": 62,
      "hit": false,
      "t": 270545.1840000008,
      "d": 1090.9080000001704,
      "v": 95
    },
    {
      "midi": 69,
      "hit": false,
      "t": 270727.00200000085,
      "d": 181.8180000000284,
      "v": 95
    },
    {
      "midi": 68,
      "hit": false,
      "t": 270908.8200000009,
      "d": 181.8180000000284,
      "v": 95
    },
    {
      "midi": 71,
      "hit": false,
      "t": 271090.6380000009,
      "d": 181.8180000000284,
      "v": 95
    },
    {
      "midi": 68,
      "hit": false,
      "t": 271272.45600000094,
      "d": 181.8180000000284,
      "v": 95
    },
    {
      "midi": 69,
      "hit": false,
      "t": 271454.27400000097,
      "d": 181.8180000000284,
      "v": 95
    },
    {
      "midi": 62,
      "hit": false,
      "t": 271636.092000001,
      "d": 1090.9080000001704,
      "v": 95
    },
    {
      "midi": 69,
      "hit": false,
      "t": 271817.910000001,
      "d": 181.8180000000284,
      "v": 95
    },
    {
      "midi": 68,
      "hit": false,
      "t": 271999.72800000105,
      "d": 181.8180000000284,
      "v": 95
    },
    {
      "midi": 71,
      "hit": false,
      "t": 272181.5460000011,
      "d": 181.8180000000284,
      "v": 95
    },
    {
      "midi": 68,
      "hit": false,
      "t": 272363.3640000011,
      "d": 181.8180000000284,
      "v": 95
    },
    {
      "midi": 69,
      "hit": false,
      "t": 272545.18200000114,
      "d": 181.8180000000284,
      "v": 95
    },
    {
      "midi": 62,
      "hit": false,
      "t": 272727.00000000116,
      "d": 1090.9080000001704,
      "v": 95
    },
    {
      "midi": 69,
      "hit": false,
      "t": 272908.8180000012,
      "d": 181.8180000000284,
      "v": 95
    },
    {
      "midi": 68,
      "hit": false,
      "t": 273090.6360000012,
      "d": 181.8180000000284,
      "v": 95
    },
    {
      "midi": 71,
      "hit": false,
      "t": 273272.45400000125,
      "d": 181.8180000000284,
      "v": 95
    },
    {
      "midi": 68,
      "hit": false,
      "t": 273454.2720000013,
      "d": 181.8180000000284,
      "v": 95
    },
    {
      "midi": 69,
      "hit": false,
      "t": 273636.0900000013,
      "d": 181.8180000000284,
      "v": 95
    },
    {
      "midi": 62,
      "hit": false,
      "t": 273817.90800000133,
      "d": 1090.9080000001704,
      "v": 95
    },
    {
      "midi": 69,
      "hit": false,
      "t": 273999.72600000136,
      "d": 181.8180000000284,
      "v": 95
    },
    {
      "midi": 68,
      "hit": false,
      "t": 274181.5440000014,
      "d": 181.8180000000284,
      "v": 95
    },
    {
      "midi": 71,
      "hit": false,
      "t": 274363.3620000014,
      "d": 181.8180000000284,
      "v": 95
    },
    {
      "midi": 68,
      "hit": false,
      "t": 274545.18000000145,
      "d": 181.8180000000284,
      "v": 95
    },
    {
      "midi": 73,
      "hit": false,
      "t": 274726.9980000015,
      "d": 181.8180000000284,
      "v": 95
    },
    {
      "midi": 61,
      "hit": false,
      "t": 274908.8160000015,
      "d": 1090.9080000001704,
      "v": 95
    },
    {
      "midi": 69,
      "hit": false,
      "t": 275090.63400000153,
      "d": 181.8180000000284,
      "v": 95
    },
    {
      "midi": 66,
      "hit": false,
      "t": 275272.45200000156,
      "d": 181.8180000000284,
      "v": 95
    },
    {
      "midi": 69,
      "hit": false,
      "t": 275454.2700000016,
      "d": 181.8180000000284,
      "v": 95
    },
    {
      "midi": 68,
      "hit": false,
      "t": 275636.0880000016,
      "d": 181.8180000000284,
      "v": 95
    },
    {
      "midi": 73,
      "hit": false,
      "t": 275817.90600000165,
      "d": 181.8180000000284,
      "v": 95
    },
    {
      "midi": 61,
      "hit": false,
      "t": 275999.7240000017,
      "d": 1090.9080000001704,
      "v": 95
    },
    {
      "midi": 69,
      "hit": false,
      "t": 276181.5420000017,
      "d": 181.8180000000284,
      "v": 95
    },
    {
      "midi": 66,
      "hit": false,
      "t": 276363.36000000173,
      "d": 181.8180000000284,
      "v": 95
    },
    {
      "midi": 69,
      "hit": false,
      "t": 276545.17800000176,
      "d": 181.8180000000284,
      "v": 95
    },
    {
      "midi": 68,
      "hit": false,
      "t": 276726.9960000018,
      "d": 181.8180000000284,
      "v": 95
    },
    {
      "midi": 73,
      "hit": false,
      "t": 276908.8140000018,
      "d": 181.8180000000284,
      "v": 95
    },
    {
      "midi": 61,
      "hit": false,
      "t": 277090.63200000185,
      "d": 1090.9080000001704,
      "v": 95
    },
    {
      "midi": 69,
      "hit": false,
      "t": 277272.4500000019,
      "d": 181.8180000000284,
      "v": 95
    },
    {
      "midi": 66,
      "hit": false,
      "t": 277454.2680000019,
      "d": 181.8180000000284,
      "v": 95
    },
    {
      "midi": 69,
      "hit": false,
      "t": 277636.08600000193,
      "d": 181.8180000000284,
      "v": 95
    },
    {
      "midi": 68,
      "hit": false,
      "t": 277817.90400000196,
      "d": 181.8180000000284,
      "v": 95
    },
    {
      "midi": 73,
      "hit": false,
      "t": 277999.722000002,
      "d": 181.8180000000284,
      "v": 95
    },
    {
      "midi": 61,
      "hit": false,
      "t": 278181.540000002,
      "d": 1090.9080000001704,
      "v": 95
    },
    {
      "midi": 69,
      "hit": false,
      "t": 278363.35800000204,
      "d": 181.8180000000284,
      "v": 95
    },
    {
      "midi": 66,
      "hit": false,
      "t": 278545.1760000021,
      "d": 181.8180000000284,
      "v": 95
    },
    {
      "midi": 69,
      "hit": false,
      "t": 278726.9940000021,
      "d": 181.8180000000284,
      "v": 95
    },
    {
      "midi": 68,
      "hit": false,
      "t": 278908.81200000213,
      "d": 181.8180000000284,
      "v": 95
    },
    {
      "midi": 73,
      "hit": false,
      "t": 279090.63000000216,
      "d": 181.8180000000284,
      "v": 95
    },
    {
      "midi": 62,
      "hit": false,
      "t": 279272.4480000022,
      "d": 1090.9080000001704,
      "v": 95
    },
    {
      "midi": 69,
      "hit": false,
      "t": 279454.2660000022,
      "d": 181.8180000000284,
      "v": 95
    },
    {
      "midi": 68,
      "hit": false,
      "t": 279636.08400000224,
      "d": 181.8180000000284,
      "v": 95
    },
    {
      "midi": 71,
      "hit": false,
      "t": 279817.9020000023,
      "d": 181.8180000000284,
      "v": 95
    },
    {
      "midi": 68,
      "hit": false,
      "t": 279999.7200000023,
      "d": 181.8180000000284,
      "v": 95
    },
    {
      "midi": 69,
      "hit": false,
      "t": 280181.5380000023,
      "d": 181.8180000000284,
      "v": 95
    },
    {
      "midi": 62,
      "hit": false,
      "t": 280363.35600000236,
      "d": 1090.9080000001704,
      "v": 95
    },
    {
      "midi": 69,
      "hit": false,
      "t": 280545.1740000024,
      "d": 181.8180000000284,
      "v": 95
    },
    {
      "midi": 68,
      "hit": false,
      "t": 280726.9920000024,
      "d": 181.8180000000284,
      "v": 95
    },
    {
      "midi": 71,
      "hit": false,
      "t": 280908.81000000244,
      "d": 181.8180000000284,
      "v": 95
    },
    {
      "midi": 68,
      "hit": false,
      "t": 281090.62800000247,
      "d": 181.8180000000284,
      "v": 95
    },
    {
      "midi": 69,
      "hit": false,
      "t": 281272.4460000025,
      "d": 181.8180000000284,
      "v": 95
    },
    {
      "midi": 62,
      "hit": false,
      "t": 281454.2640000025,
      "d": 1090.9080000001704,
      "v": 95
    },
    {
      "midi": 69,
      "hit": false,
      "t": 281636.08200000256,
      "d": 181.8180000000284,
      "v": 95
    },
    {
      "midi": 68,
      "hit": false,
      "t": 281817.9000000026,
      "d": 181.8180000000284,
      "v": 95
    },
    {
      "midi": 71,
      "hit": false,
      "t": 281999.7180000026,
      "d": 181.8180000000284,
      "v": 95
    },
    {
      "midi": 68,
      "hit": false,
      "t": 282181.53600000264,
      "d": 181.8180000000284,
      "v": 95
    },
    {
      "midi": 69,
      "hit": false,
      "t": 282363.35400000267,
      "d": 181.8180000000284,
      "v": 95
    },
    {
      "midi": 62,
      "hit": false,
      "t": 282545.1720000027,
      "d": 1090.9080000001704,
      "v": 95
    },
    {
      "midi": 69,
      "hit": false,
      "t": 282726.9900000027,
      "d": 181.8180000000284,
      "v": 95
    },
    {
      "midi": 68,
      "hit": false,
      "t": 282908.80800000275,
      "d": 181.8180000000284,
      "v": 95
    },
    {
      "midi": 69,
      "hit": false,
      "t": 283090.6260000028,
      "d": 181.8180000000284,
      "v": 95
    },
    {
      "midi": 71,
      "hit": false,
      "t": 283272.4440000028,
      "d": 181.8180000000284,
      "v": 95
    },
    {
      "midi": 73,
      "hit": false,
      "t": 283454.26200000284,
      "d": 181.8180000000284,
      "v": 95
    },
    {
      "midi": 61,
      "hit": false,
      "t": 283636.08000000287,
      "d": 1090.9080000001704,
      "v": 95
    },
    {
      "midi": 69,
      "hit": false,
      "t": 283817.8980000029,
      "d": 181.8180000000284,
      "v": 95
    },
    {
      "midi": 66,
      "hit": false,
      "t": 283999.7160000029,
      "d": 181.8180000000284,
      "v": 95
    },
    {
      "midi": 69,
      "hit": false,
      "t": 284181.53400000295,
      "d": 181.8180000000284,
      "v": 95
    },
    {
      "midi": 68,
      "hit": false,
      "t": 284363.352000003,
      "d": 181.8180000000284,
      "v": 95
    },
    {
      "midi": 73,
      "hit": false,
      "t": 284545.170000003,
      "d": 181.8180000000284,
      "v": 95
    },
    {
      "midi": 61,
      "hit": false,
      "t": 284726.98800000304,
      "d": 1090.9080000001704,
      "v": 95
    },
    {
      "midi": 69,
      "hit": false,
      "t": 284908.80600000307,
      "d": 181.8180000000284,
      "v": 95
    },
    {
      "midi": 66,
      "hit": false,
      "t": 285090.6240000031,
      "d": 181.8180000000284,
      "v": 95
    },
    {
      "midi": 69,
      "hit": false,
      "t": 285272.4420000031,
      "d": 181.8180000000284,
      "v": 95
    },
    {
      "midi": 68,
      "hit": false,
      "t": 285454.26000000315,
      "d": 181.8180000000284,
      "v": 95
    },
    {
      "midi": 73,
      "hit": false,
      "t": 285636.0780000032,
      "d": 181.8180000000284,
      "v": 95
    },
    {
      "midi": 61,
      "hit": false,
      "t": 285817.8960000032,
      "d": 1090.9080000001704,
      "v": 95
    },
    {
      "midi": 69,
      "hit": false,
      "t": 285999.71400000324,
      "d": 181.8180000000284,
      "v": 95
    },
    {
      "midi": 66,
      "hit": false,
      "t": 286181.53200000327,
      "d": 181.8180000000284,
      "v": 95
    },
    {
      "midi": 69,
      "hit": false,
      "t": 286363.3500000033,
      "d": 181.8180000000284,
      "v": 95
    },
    {
      "midi": 68,
      "hit": false,
      "t": 286545.1680000033,
      "d": 181.8180000000284,
      "v": 95
    },
    {
      "midi": 73,
      "hit": false,
      "t": 286726.98600000335,
      "d": 181.8180000000284,
      "v": 95
    },
    {
      "midi": 61,
      "hit": false,
      "t": 286908.8040000034,
      "d": 1090.9080000001704,
      "v": 95
    },
    {
      "midi": 69,
      "hit": false,
      "t": 287090.6220000034,
      "d": 181.8180000000284,
      "v": 95
    },
    {
      "midi": 66,
      "hit": false,
      "t": 287272.44000000344,
      "d": 181.8180000000284,
      "v": 95
    },
    {
      "midi": 69,
      "hit": false,
      "t": 287454.25800000346,
      "d": 181.8180000000284,
      "v": 95
    },
    {
      "midi": 68,
      "hit": false,
      "t": 287636.0760000035,
      "d": 181.8180000000284,
      "v": 95
    },
    {
      "midi": 73,
      "hit": false,
      "t": 287817.8940000035,
      "d": 181.8180000000284,
      "v": 95
    },
    {
      "midi": 62,
      "hit": false,
      "t": 287999.71200000355,
      "d": 1090.9080000001704,
      "v": 95
    },
    {
      "midi": 69,
      "hit": false,
      "t": 288181.5300000036,
      "d": 181.8180000000284,
      "v": 95
    },
    {
      "midi": 68,
      "hit": false,
      "t": 288363.3480000036,
      "d": 181.8180000000284,
      "v": 95
    },
    {
      "midi": 71,
      "hit": false,
      "t": 288545.16600000364,
      "d": 181.8180000000284,
      "v": 95
    },
    {
      "midi": 68,
      "hit": false,
      "t": 288726.98400000366,
      "d": 181.8180000000284,
      "v": 95
    },
    {
      "midi": 69,
      "hit": false,
      "t": 288908.8020000037,
      "d": 181.8180000000284,
      "v": 95
    },
    {
      "midi": 62,
      "hit": false,
      "t": 289090.6200000037,
      "d": 1090.9080000001704,
      "v": 95
    },
    {
      "midi": 69,
      "hit": false,
      "t": 289272.43800000375,
      "d": 181.8180000000284,
      "v": 95
    },
    {
      "midi": 68,
      "hit": false,
      "t": 289454.2560000038,
      "d": 181.8180000000284,
      "v": 95
    },
    {
      "midi": 71,
      "hit": false,
      "t": 289636.0740000038,
      "d": 181.8180000000284,
      "v": 95
    },
    {
      "midi": 68,
      "hit": false,
      "t": 289817.89200000383,
      "d": 181.8180000000284,
      "v": 95
    },
    {
      "midi": 69,
      "hit": false,
      "t": 289999.71000000386,
      "d": 181.8180000000284,
      "v": 95
    },
    {
      "midi": 62,
      "hit": false,
      "t": 290181.5280000039,
      "d": 1090.9080000001704,
      "v": 95
    },
    {
      "midi": 69,
      "hit": false,
      "t": 290363.3460000039,
      "d": 181.8180000000284,
      "v": 95
    },
    {
      "midi": 68,
      "hit": false,
      "t": 290545.16400000395,
      "d": 181.8180000000284,
      "v": 95
    },
    {
      "midi": 71,
      "hit": false,
      "t": 290726.982000004,
      "d": 181.8180000000284,
      "v": 95
    },
    {
      "midi": 68,
      "hit": false,
      "t": 290908.800000004,
      "d": 181.8180000000284,
      "v": 95
    },
    {
      "midi": 69,
      "hit": false,
      "t": 291090.61800000403,
      "d": 181.8180000000284,
      "v": 95
    },
    {
      "midi": 62,
      "hit": false,
      "t": 291272.43600000406,
      "d": 1090.9080000001704,
      "v": 95
    },
    {
      "midi": 69,
      "hit": false,
      "t": 291454.2540000041,
      "d": 181.8180000000284,
      "v": 95
    },
    {
      "midi": 68,
      "hit": false,
      "t": 291636.0720000041,
      "d": 181.8180000000284,
      "v": 95
    },
    {
      "midi": 71,
      "hit": false,
      "t": 291817.89000000415,
      "d": 181.8180000000284,
      "v": 95
    },
    {
      "midi": 68,
      "hit": false,
      "t": 291999.7080000042,
      "d": 181.8180000000284,
      "v": 95
    },
    {
      "midi": 73,
      "hit": false,
      "t": 292181.5260000042,
      "d": 181.8180000000284,
      "v": 95
    },
    {
      "midi": 61,
      "hit": false,
      "t": 292363.34400000423,
      "d": 1090.9080000001704,
      "v": 95
    },
    {
      "midi": 69,
      "hit": false,
      "t": 292545.16200000426,
      "d": 181.8180000000284,
      "v": 95
    },
    {
      "midi": 66,
      "hit": false,
      "t": 292726.9800000043,
      "d": 181.8180000000284,
      "v": 95
    },
    {
      "midi": 69,
      "hit": false,
      "t": 292908.7980000043,
      "d": 181.8180000000284,
      "v": 95
    },
    {
      "midi": 68,
      "hit": false,
      "t": 293090.61600000435,
      "d": 181.8180000000284,
      "v": 95
    },
    {
      "midi": 73,
      "hit": false,
      "t": 293272.4340000044,
      "d": 181.8180000000284,
      "v": 95
    },
    {
      "midi": 61,
      "hit": false,
      "t": 293454.2520000044,
      "d": 1090.9080000001704,
      "v": 95
    },
    {
      "midi": 69,
      "hit": false,
      "t": 293636.07000000443,
      "d": 181.8180000000284,
      "v": 95
    },
    {
      "midi": 66,
      "hit": false,
      "t": 293817.88800000446,
      "d": 181.8180000000284,
      "v": 95
    },
    {
      "midi": 69,
      "hit": false,
      "t": 293999.7060000045,
      "d": 181.8180000000284,
      "v": 95
    },
    {
      "midi": 68,
      "hit": false,
      "t": 294181.5240000045,
      "d": 181.8180000000284,
      "v": 95
    },
    {
      "midi": 73,
      "hit": false,
      "t": 294363.34200000454,
      "d": 181.8180000000284,
      "v": 95
    },
    {
      "midi": 61,
      "hit": false,
      "t": 294545.1600000046,
      "d": 1090.9080000001704,
      "v": 95
    },
    {
      "midi": 69,
      "hit": false,
      "t": 294726.9780000046,
      "d": 181.8180000000284,
      "v": 95
    },
    {
      "midi": 66,
      "hit": false,
      "t": 294908.79600000463,
      "d": 181.8180000000284,
      "v": 95
    },
    {
      "midi": 69,
      "hit": false,
      "t": 295090.61400000466,
      "d": 181.8180000000284,
      "v": 95
    },
    {
      "midi": 68,
      "hit": false,
      "t": 295272.4320000047,
      "d": 181.8180000000284,
      "v": 95
    },
    {
      "midi": 73,
      "hit": false,
      "t": 295454.2500000047,
      "d": 181.8180000000284,
      "v": 95
    },
    {
      "midi": 61,
      "hit": false,
      "t": 295636.06800000474,
      "d": 1090.9080000001704,
      "v": 95
    },
    {
      "midi": 69,
      "hit": false,
      "t": 295817.8860000048,
      "d": 181.8180000000284,
      "v": 95
    },
    {
      "midi": 66,
      "hit": false,
      "t": 295999.7040000048,
      "d": 181.8180000000284,
      "v": 95
    },
    {
      "midi": 69,
      "hit": false,
      "t": 296181.5220000048,
      "d": 181.8180000000284,
      "v": 95
    },
    {
      "midi": 68,
      "hit": false,
      "t": 296363.34000000486,
      "d": 181.8180000000284,
      "v": 95
    },
    {
      "midi": 73,
      "hit": false,
      "t": 296545.1580000049,
      "d": 181.8180000000284,
      "v": 95
    },
    {
      "midi": 62,
      "hit": false,
      "t": 296726.9760000049,
      "d": 1090.9080000001704,
      "v": 95
    },
    {
      "midi": 69,
      "hit": false,
      "t": 296908.79400000494,
      "d": 181.8180000000284,
      "v": 95
    },
    {
      "midi": 68,
      "hit": false,
      "t": 297090.61200000497,
      "d": 181.8180000000284,
      "v": 95
    },
    {
      "midi": 71,
      "hit": false,
      "t": 297272.430000005,
      "d": 181.8180000000284,
      "v": 95
    },
    {
      "midi": 68,
      "hit": false,
      "t": 297454.248000005,
      "d": 181.8180000000284,
      "v": 95
    },
    {
      "midi": 69,
      "hit": false,
      "t": 297636.06600000506,
      "d": 181.8180000000284,
      "v": 95
    },
    {
      "midi": 62,
      "hit": false,
      "t": 297817.8840000051,
      "d": 1090.9080000001704,
      "v": 95
    },
    {
      "midi": 69,
      "hit": false,
      "t": 297999.7020000051,
      "d": 181.8180000000284,
      "v": 95
    },
    {
      "midi": 68,
      "hit": false,
      "t": 298181.52000000514,
      "d": 181.8180000000284,
      "v": 95
    },
    {
      "midi": 71,
      "hit": false,
      "t": 298363.33800000517,
      "d": 181.8180000000284,
      "v": 95
    },
    {
      "midi": 68,
      "hit": false,
      "t": 298545.1560000052,
      "d": 181.8180000000284,
      "v": 95
    },
    {
      "midi": 69,
      "hit": false,
      "t": 298726.9740000052,
      "d": 181.8180000000284,
      "v": 95
    },
    {
      "midi": 62,
      "hit": false,
      "t": 298908.79200000525,
      "d": 1090.9080000001704,
      "v": 95
    },
    {
      "midi": 69,
      "hit": false,
      "t": 299090.6100000053,
      "d": 181.8180000000284,
      "v": 95
    },
    {
      "midi": 68,
      "hit": false,
      "t": 299272.4280000053,
      "d": 181.8180000000284,
      "v": 95
    },
    {
      "midi": 71,
      "hit": false,
      "t": 299454.24600000534,
      "d": 181.8180000000284,
      "v": 95
    },
    {
      "midi": 68,
      "hit": false,
      "t": 299636.06400000537,
      "d": 181.8180000000284,
      "v": 95
    },
    {
      "midi": 69,
      "hit": false,
      "t": 299817.8820000054,
      "d": 181.8180000000284,
      "v": 95
    },
    {
      "midi": 62,
      "hit": false,
      "t": 299999.7000000054,
      "d": 1272.7260000001988,
      "v": 95
    },
    {
      "midi": 69,
      "hit": false,
      "t": 300181.51800000545,
      "d": 181.8180000000284,
      "v": 95
    },
    {
      "midi": 68,
      "hit": false,
      "t": 300363.3360000055,
      "d": 181.8180000000284,
      "v": 95
    },
    {
      "midi": 69,
      "hit": false,
      "t": 300545.1540000055,
      "d": 181.8180000000284,
      "v": 95
    },
    {
      "midi": 71,
      "hit": false,
      "t": 300726.97200000554,
      "d": 181.8180000000284,
      "v": 95
    },
    {
      "midi": 73,
      "hit": false,
      "t": 300908.79000000557,
      "d": 181.8180000000284,
      "v": 95
    },
    {
      "midi": 54,
      "hit": false,
      "t": 301090.6080000056,
      "d": 1090.9080000001704,
      "v": 95
    },
    {
      "midi": 61,
      "hit": false,
      "t": 301272.4260000056,
      "d": 1090.9080000001704,
      "v": 95
    },
    {
      "midi": 66,
      "hit": false,
      "t": 301454.24400000565,
      "d": 181.8180000000284,
      "v": 95
    },
    {
      "midi": 69,
      "hit": false,
      "t": 301636.0620000057,
      "d": 181.8180000000284,
      "v": 95
    },
    {
      "midi": 73,
      "hit": false,
      "t": 301817.8800000057,
      "d": 181.8180000000284,
      "v": 95
    },
    {
      "midi": 69,
      "hit": false,
      "t": 301999.69800000574,
      "d": 181.8180000000284,
      "v": 95
    },
    {
      "midi": 54,
      "hit": false,
      "t": 302181.51600000577,
      "d": 1090.9080000001704,
      "v": 95
    },
    {
      "midi": 59,
      "hit": false,
      "t": 302363.3340000058,
      "d": 1090.9080000001704,
      "v": 95
    },
    {
      "midi": 66,
      "hit": false,
      "t": 302545.1520000058,
      "d": 181.8180000000284,
      "v": 95
    },
    {
      "midi": 68,
      "hit": false,
      "t": 302726.97000000585,
      "d": 181.8180000000284,
      "v": 95
    },
    {
      "midi": 71,
      "hit": false,
      "t": 302908.7880000059,
      "d": 181.8180000000284,
      "v": 95
    },
    {
      "midi": 68,
      "hit": false,
      "t": 303090.6060000059,
      "d": 181.8180000000284,
      "v": 95
    },
    {
      "midi": 52,
      "hit": false,
      "t": 303272.42400000594,
      "d": 1090.9080000001704,
      "v": 95
    },
    {
      "midi": 59,
      "hit": false,
      "t": 303454.24200000596,
      "d": 1272.7260000001988,
      "v": 95
    },
    {
      "midi": 64,
      "hit": false,
      "t": 303636.060000006,
      "d": 181.8180000000284,
      "v": 95
    },
    {
      "midi": 71,
      "hit": false,
      "t": 303817.878000006,
      "d": 181.8180000000284,
      "v": 95
    },
    {
      "midi": 68,
      "hit": false,
      "t": 303999.69600000605,
      "d": 181.8180000000284,
      "v": 95
    },
    {
      "midi": 71,
      "hit": false,
      "t": 304181.5140000061,
      "d": 181.8180000000284,
      "v": 95
    },
    {
      "midi": 50,
      "hit": false,
      "t": 304363.3320000061,
      "d": 1090.9080000001704,
      "v": 95
    },
    {
      "midi": 57,
      "hit": false,
      "t": 304545.15000000614,
      "d": 2181.816000000341,
      "v": 95
    },
    {
      "midi": 62,
      "hit": false,
      "t": 304726.96800000616,
      "d": 181.8180000000284,
      "v": 95
    },
    {
      "midi": 66,
      "hit": false,
      "t": 304908.7860000062,
      "d": 181.8180000000284,
      "v": 95
    },
    {
      "midi": 69,
      "hit": false,
      "t": 305090.6040000062,
      "d": 181.8180000000284,
      "v": 95
    },
    {
      "midi": 66,
      "hit": false,
      "t": 305272.42200000625,
      "d": 181.8180000000284,
      "v": 95
    },
    {
      "midi": 54,
      "hit": false,
      "t": 305454.2400000063,
      "d": 1090.9080000001704,
      "v": 95
    },
    {
      "midi": 61,
      "hit": false,
      "t": 305636.0580000063,
      "d": 1090.9080000001704,
      "v": 95
    },
    {
      "midi": 66,
      "hit": false,
      "t": 305817.87600000633,
      "d": 181.8180000000284,
      "v": 95
    },
    {
      "midi": 69,
      "hit": false,
      "t": 305999.69400000636,
      "d": 181.8180000000284,
      "v": 95
    },
    {
      "midi": 73,
      "hit": false,
      "t": 306181.5120000064,
      "d": 181.8180000000284,
      "v": 95
    },
    {
      "midi": 69,
      "hit": false,
      "t": 306363.3300000064,
      "d": 181.8180000000284,
      "v": 95
    },
    {
      "midi": 54,
      "hit": false,
      "t": 306545.14800000645,
      "d": 1090.9080000001704,
      "v": 95
    },
    {
      "midi": 59,
      "hit": false,
      "t": 306726.9660000065,
      "d": 1090.9080000001704,
      "v": 95
    },
    {
      "midi": 66,
      "hit": false,
      "t": 306908.7840000065,
      "d": 181.8180000000284,
      "v": 95
    },
    {
      "midi": 68,
      "hit": false,
      "t": 307090.60200000653,
      "d": 181.8180000000284,
      "v": 95
    },
    {
      "midi": 71,
      "hit": false,
      "t": 307272.42000000656,
      "d": 181.8180000000284,
      "v": 95
    },
    {
      "midi": 68,
      "hit": false,
      "t": 307454.2380000066,
      "d": 181.8180000000284,
      "v": 95
    },
    {
      "midi": 52,
      "hit": false,
      "t": 307636.0560000066,
      "d": 1090.9080000001704,
      "v": 95
    },
    {
      "midi": 59,
      "hit": false,
      "t": 307817.87400000665,
      "d": 909.090000000142,
      "v": 95
    },
    {
      "midi": 64,
      "hit": false,
      "t": 307999.6920000067,
      "d": 181.8180000000284,
      "v": 95
    },
    {
      "midi": 71,
      "hit": false,
      "t": 308181.5100000067,
      "d": 181.8180000000284,
      "v": 95
    },
    {
      "midi": 68,
      "hit": false,
      "t": 308363.32800000673,
      "d": 181.8180000000284,
      "v": 95
    },
    {
      "midi": 71,
      "hit": false,
      "t": 308545.14600000676,
      "d": 181.8180000000284,
      "v": 95
    },
    {
      "midi": 50,
      "hit": false,
      "t": 308726.9640000068,
      "d": 181.8180000000284,
      "v": 95
    },
    {
      "midi": 66,
      "hit": false,
      "t": 308726.9640000068,
      "d": 363.6360000000568,
      "v": 95
    },
    {
      "midi": 69,
      "hit": false,
      "t": 308726.9640000068,
      "d": 545.4540000000852,
      "v": 95
    },
    {
      "midi": 57,
      "hit": false,
      "t": 308908.7820000068,
      "d": 181.8180000000284,
      "v": 95
    },
    {
      "midi": 62,
      "hit": false,
      "t": 309090.60000000685,
      "d": 181.8180000000284,
      "v": 95
    },
    {
      "midi": 49,
      "hit": false,
      "t": 309272.4180000069,
      "d": 181.8180000000284,
      "v": 95
    },
    {
      "midi": 65,
      "hit": false,
      "t": 309272.4180000069,
      "d": 363.6360000000568,
      "v": 95
    },
    {
      "midi": 68,
      "hit": false,
      "t": 309272.4180000069,
      "d": 909.090000000142,
      "v": 95
    },
    {
      "midi": 56,
      "hit": false,
      "t": 309454.2360000069,
      "d": 181.8180000000284,
      "v": 95
    },
    {
      "midi": 61,
      "hit": false,
      "t": 309636.05400000693,
      "d": 181.8180000000284,
      "v": 95
    },
    {
      "midi": 54,
      "hit": false,
      "t": 309817.87200000696,
      "d": 1090.9080000001704,
      "v": 95
    },
    {
      "midi": 61,
      "hit": false,
      "t": 309999.690000007,
      "d": 1090.9080000001704,
      "v": 95
    },
    {
      "midi": 66,
      "hit": false,
      "t": 310181.508000007,
      "d": 181.8180000000284,
      "v": 95
    },
    {
      "midi": 69,
      "hit": false,
      "t": 310363.32600000704,
      "d": 181.8180000000284,
      "v": 95
    },
    {
      "midi": 73,
      "hit": false,
      "t": 310545.1440000071,
      "d": 181.8180000000284,
      "v": 95
    },
    {
      "midi": 69,
      "hit": false,
      "t": 310726.9620000071,
      "d": 181.8180000000284,
      "v": 95
    },
    {
      "midi": 54,
      "hit": false,
      "t": 310908.78000000713,
      "d": 1090.9080000001704,
      "v": 95
    },
    {
      "midi": 59,
      "hit": false,
      "t": 311090.59800000716,
      "d": 1090.9080000001704,
      "v": 95
    },
    {
      "midi": 66,
      "hit": false,
      "t": 311272.4160000072,
      "d": 181.8180000000284,
      "v": 95
    },
    {
      "midi": 68,
      "hit": false,
      "t": 311454.2340000072,
      "d": 181.8180000000284,
      "v": 95
    },
    {
      "midi": 71,
      "hit": false,
      "t": 311636.05200000724,
      "d": 181.8180000000284,
      "v": 95
    },
    {
      "midi": 68,
      "hit": false,
      "t": 311817.8700000073,
      "d": 181.8180000000284,
      "v": 95
    },
    {
      "midi": 52,
      "hit": false,
      "t": 311999.6880000073,
      "d": 1090.9080000001704,
      "v": 95
    },
    {
      "midi": 59,
      "hit": false,
      "t": 312181.5060000073,
      "d": 1272.7260000001988,
      "v": 95
    },
    {
      "midi": 64,
      "hit": false,
      "t": 312363.32400000736,
      "d": 181.8180000000284,
      "v": 95
    },
    {
      "midi": 71,
      "hit": false,
      "t": 312545.1420000074,
      "d": 181.8180000000284,
      "v": 95
    },
    {
      "midi": 68,
      "hit": false,
      "t": 312726.9600000074,
      "d": 181.8180000000284,
      "v": 95
    },
    {
      "midi": 71,
      "hit": false,
      "t": 312908.77800000744,
      "d": 181.8180000000284,
      "v": 95
    },
    {
      "midi": 50,
      "hit": false,
      "t": 313090.59600000747,
      "d": 1090.9080000001704,
      "v": 95
    },
    {
      "midi": 57,
      "hit": false,
      "t": 313272.4140000075,
      "d": 2181.816000000341,
      "v": 95
    },
    {
      "midi": 62,
      "hit": false,
      "t": 313454.2320000075,
      "d": 181.8180000000284,
      "v": 95
    },
    {
      "midi": 66,
      "hit": false,
      "t": 313636.05000000756,
      "d": 181.8180000000284,
      "v": 95
    },
    {
      "midi": 69,
      "hit": false,
      "t": 313817.8680000076,
      "d": 181.8180000000284,
      "v": 95
    },
    {
      "midi": 66,
      "hit": false,
      "t": 313999.6860000076,
      "d": 181.8180000000284,
      "v": 95
    },
    {
      "midi": 54,
      "hit": false,
      "t": 314181.50400000764,
      "d": 1090.9080000001704,
      "v": 95
    },
    {
      "midi": 61,
      "hit": false,
      "t": 314363.32200000767,
      "d": 1090.9080000001704,
      "v": 95
    },
    {
      "midi": 66,
      "hit": false,
      "t": 314545.1400000077,
      "d": 181.8180000000284,
      "v": 95
    },
    {
      "midi": 69,
      "hit": false,
      "t": 314726.9580000077,
      "d": 181.8180000000284,
      "v": 95
    },
    {
      "midi": 73,
      "hit": false,
      "t": 314908.77600000775,
      "d": 181.8180000000284,
      "v": 95
    },
    {
      "midi": 69,
      "hit": false,
      "t": 315090.5940000078,
      "d": 181.8180000000284,
      "v": 95
    },
    {
      "midi": 54,
      "hit": false,
      "t": 315272.4120000078,
      "d": 1090.9080000001704,
      "v": 95
    },
    {
      "midi": 59,
      "hit": false,
      "t": 315454.23000000784,
      "d": 1090.9080000001704,
      "v": 95
    },
    {
      "midi": 66,
      "hit": false,
      "t": 315636.04800000787,
      "d": 181.8180000000284,
      "v": 95
    },
    {
      "midi": 68,
      "hit": false,
      "t": 315817.8660000079,
      "d": 181.8180000000284,
      "v": 95
    },
    {
      "midi": 71,
      "hit": false,
      "t": 315999.6840000079,
      "d": 181.8180000000284,
      "v": 95
    },
    {
      "midi": 68,
      "hit": false,
      "t": 316181.50200000795,
      "d": 181.8180000000284,
      "v": 95
    },
    {
      "midi": 52,
      "hit": false,
      "t": 316363.320000008,
      "d": 1090.9080000001704,
      "v": 95
    },
    {
      "midi": 59,
      "hit": false,
      "t": 316545.138000008,
      "d": 909.090000000142,
      "v": 95
    },
    {
      "midi": 64,
      "hit": false,
      "t": 316726.95600000804,
      "d": 181.8180000000284,
      "v": 95
    },
    {
      "midi": 71,
      "hit": false,
      "t": 316908.77400000807,
      "d": 181.8180000000284,
      "v": 95
    },
    {
      "midi": 68,
      "hit": false,
      "t": 317090.5920000081,
      "d": 181.8180000000284,
      "v": 95
    },
    {
      "midi": 71,
      "hit": false,
      "t": 317272.4100000081,
      "d": 181.8180000000284,
      "v": 95
    },
    {
      "midi": 50,
      "hit": false,
      "t": 317454.22800000815,
      "d": 181.8180000000284,
      "v": 95
    },
    {
      "midi": 66,
      "hit": false,
      "t": 317454.22800000815,
      "d": 363.6360000000568,
      "v": 95
    },
    {
      "midi": 69,
      "hit": false,
      "t": 317454.22800000815,
      "d": 545.4540000000852,
      "v": 95
    },
    {
      "midi": 57,
      "hit": false,
      "t": 317636.0460000082,
      "d": 181.8180000000284,
      "v": 95
    },
    {
      "midi": 62,
      "hit": false,
      "t": 317817.8640000082,
      "d": 181.8180000000284,
      "v": 95
    },
    {
      "midi": 49,
      "hit": false,
      "t": 317999.68200000824,
      "d": 181.8180000000284,
      "v": 95
    },
    {
      "midi": 65,
      "hit": false,
      "t": 317999.68200000824,
      "d": 363.6360000000568,
      "v": 95
    },
    {
      "midi": 68,
      "hit": false,
      "t": 317999.68200000824,
      "d": 2181.816000000108,
      "v": 95
    },
    {
      "midi": 56,
      "hit": false,
      "t": 318181.50000000827,
      "d": 181.8180000000284,
      "v": 95
    },
    {
      "midi": 61,
      "hit": false,
      "t": 318363.3180000083,
      "d": 181.8180000000284,
      "v": 95
    },
    {
      "midi": 54,
      "hit": false,
      "t": 318545.1360000083,
      "d": 1636.3620000000228,
      "v": 95
    },
    {
      "midi": 61,
      "hit": false,
      "t": 318545.1360000083,
      "d": 1636.3620000000228,
      "v": 95
    },
    {
      "midi": 66,
      "hit": false,
      "t": 318545.1360000083,
      "d": 1636.3620000000228,
      "v": 95
    },
    {
      "midi": 57,
      "hit": false,
      "t": 320454.22500000836,
      "d": 136.36349999997765,
      "v": 95
    },
    {
      "midi": 61,
      "hit": false,
      "t": 320590.58850000834,
      "d": 136.36349999997765,
      "v": 95
    },
    {
      "midi": 64,
      "hit": false,
      "t": 320726.9520000083,
      "d": 818.1809999999823,
      "v": 95
    },
    {
      "midi": 64,
      "hit": false,
      "t": 321545.1330000083,
      "d": 136.36349999997765,
      "v": 95
    },
    {
      "midi": 68,
      "hit": false,
      "t": 321681.4965000083,
      "d": 136.36349999997765,
      "v": 95
    },
    {
      "midi": 71,
      "hit": false,
      "t": 321817.86000000825,
      "d": 818.1809999999823,
      "v": 95
    },
    {
      "midi": 66,
      "hit": false,
      "t": 322636.04100000823,
      "d": 136.36349999997765,
      "v": 95
    },
    {
      "midi": 69,
      "hit": false,
      "t": 322772.4045000082,
      "d": 136.36349999997765,
      "v": 95
    },
    {
      "midi": 73,
      "hit": false,
      "t": 322908.7680000082,
      "d": 818.1809999999823,
      "v": 95
    }
  ]
}