{
  "jsonPath": "Pop/Classic Italian Pop/Fabio Concato/ciao-ninin.json",
  "path": "Pop\\Classic Italian Pop\\Fabio Concato\\Ciao Ninìn.mid",
  "name": "Ciao Ninìn",
  "difficulty": "Advanced",
  "bpm": 79.30004493669213,
  "notes": [
    {
      "midi": 64,
      "hit": false,
      "t": 3029.632583333333,
      "d": 2659.204041666667,
      "v": 59
    },
    {
      "midi": 71,
      "hit": false,
      "t": 3029.632583333333,
      "d": 2671.814375,
      "v": 76
    },
    {
      "midi": 72,
      "hit": false,
      "t": 3035.9377499999996,
      "d": 2671.8143750000004,
      "v": 69
    },
    {
      "midi": 79,
      "hit": false,
      "t": 3039.090333333333,
      "d": 2624.5256249999998,
      "v": 101
    },
    {
      "midi": 81,
      "hit": false,
      "t": 5576.919916666666,
      "d": 400.37808333333396,
      "v": 84
    },
    {
      "midi": 72,
      "hit": false,
      "t": 6040.349666666666,
      "d": 2641.864833333332,
      "v": 73
    },
    {
      "midi": 65,
      "hit": false,
      "t": 6043.50225,
      "d": 2633.983374999998,
      "v": 64
    },
    {
      "midi": 74,
      "hit": false,
      "t": 6045.078541666666,
      "d": 2602.457541666665,
      "v": 70
    },
    {
      "midi": 79,
      "hit": false,
      "t": 6068.722916666666,
      "d": 2602.457541666665,
      "v": 83
    },
    {
      "midi": 76,
      "hit": false,
      "t": 8586.06070833333,
      "d": 260.0881250000002,
      "v": 63
    },
    {
      "midi": 77,
      "hit": false,
      "t": 8820.928166666665,
      "d": 258.5118333333321,
      "v": 72
    },
    {
      "midi": 64,
      "hit": false,
      "t": 9076.287416666664,
      "d": 2747.476375,
      "v": 74
    },
    {
      "midi": 72,
      "hit": false,
      "t": 9081.016291666663,
      "d": 2808.95175,
      "v": 57
    },
    {
      "midi": 71,
      "hit": false,
      "t": 9082.59258333333,
      "d": 2807.375458333334,
      "v": 73
    },
    {
      "midi": 79,
      "hit": false,
      "t": 9085.745166666662,
      "d": 272.6984583333342,
      "v": 72
    },
    {
      "midi": 79,
      "hit": false,
      "t": 9527.10683333333,
      "d": 170.23949999999968,
      "v": 74
    },
    {
      "midi": 79,
      "hit": false,
      "t": 9850.246624999996,
      "d": 212.7993750000005,
      "v": 81
    },
    {
      "midi": 79,
      "hit": false,
      "t": 10162.352374999997,
      "d": 171.81579166666597,
      "v": 84
    },
    {
      "midi": 79,
      "hit": false,
      "t": 10491.79733333333,
      "d": 230.13858333333337,
      "v": 71
    },
    {
      "midi": 79,
      "hit": false,
      "t": 10920.548666666664,
      "d": 204.91791666666722,
      "v": 41
    },
    {
      "midi": 79,
      "hit": false,
      "t": 11314.621583333332,
      "d": 356.24191666666593,
      "v": 62
    },
    {
      "midi": 83,
      "hit": false,
      "t": 11568.404541666665,
      "d": 256.9355416666658,
      "v": 77
    },
    {
      "midi": 84,
      "hit": false,
      "t": 11817.458624999997,
      "d": 249.05408333333253,
      "v": 76
    },
    {
      "midi": 65,
      "hit": false,
      "t": 12085.42820833333,
      "d": 3007.5644999999986,
      "v": 64
    },
    {
      "midi": 72,
      "hit": false,
      "t": 12094.885958333329,
      "d": 2985.496416666665,
      "v": 85
    },
    {
      "midi": 79,
      "hit": false,
      "t": 12101.191124999996,
      "d": 2971.3097916666648,
      "v": 87
    },
    {
      "midi": 74,
      "hit": false,
      "t": 12102.767416666662,
      "d": 2966.580916666666,
      "v": 70
    },
    {
      "midi": 62,
      "hit": false,
      "t": 15130.823708333328,
      "d": 1560.5287499999959,
      "v": 82
    },
    {
      "midi": 67,
      "hit": false,
      "t": 15132.399999999994,
      "d": 2963.4283333333296,
      "v": 83
    },
    {
      "midi": 52,
      "hit": false,
      "t": 15133.97629166666,
      "d": 2987.0727083333313,
      "v": 79
    },
    {
      "midi": 60,
      "hit": false,
      "t": 16645.639999999992,
      "d": 1410.7810416666653,
      "v": 72
    },
    {
      "midi": 50,
      "hit": false,
      "t": 18141.54079166666,
      "d": 3021.7511250000025,
      "v": 68
    },
    {
      "midi": 60,
      "hit": false,
      "t": 18150.99854166666,
      "d": 1538.460666666666,
      "v": 89
    },
    {
      "midi": 65,
      "hit": false,
      "t": 18155.72741666666,
      "d": 3029.632583333332,
      "v": 82
    },
    {
      "midi": 59,
      "hit": false,
      "t": 19659.50966666666,
      "d": 1470.680124999999,
      "v": 77
    },
    {
      "midi": 52,
      "hit": false,
      "t": 21163.29191666666,
      "d": 2958.6994583333326,
      "v": 71
    },
    {
      "midi": 62,
      "hit": false,
      "t": 21182.20741666666,
      "d": 1571.5627916666672,
      "v": 88
    },
    {
      "midi": 67,
      "hit": false,
      "t": 21186.93629166666,
      "d": 2916.1395833333336,
      "v": 85
    },
    {
      "midi": 60,
      "hit": false,
      "t": 22725.396958333327,
      "d": 1368.2211666666662,
      "v": 76
    },
    {
      "midi": 64,
      "hit": false,
      "t": 24192.924499999994,
      "d": 127.67962500000067,
      "v": 76
    },
    {
      "midi": 57,
      "hit": false,
      "t": 24695.76154166666,
      "d": 127.67962500000067,
      "v": 73
    },
    {
      "midi": 69,
      "hit": false,
      "t": 25231.700708333326,
      "d": 132.40850000000137,
      "v": 89
    },
    {
      "midi": 62,
      "hit": false,
      "t": 25725.079999999994,
      "d": 77.23829166666837,
      "v": 84
    },
    {
      "midi": 52,
      "hit": false,
      "t": 27225.709666666662,
      "d": 2991.8015833333375,
      "v": 76
    },
    {
      "midi": 62,
      "hit": false,
      "t": 27227.28595833333,
      "d": 1525.8503333333356,
      "v": 85
    },
    {
      "midi": 67,
      "hit": false,
      "t": 27228.86225,
      "d": 2987.072708333333,
      "v": 85
    },
    {
      "midi": 60,
      "hit": false,
      "t": 28800.425041666665,
      "d": 1407.6284583333327,
      "v": 72
    },
    {
      "midi": 72,
      "hit": false,
      "t": 29776.149583333332,
      "d": 409.83583333333445,
      "v": 94
    },
    {
      "midi": 60,
      "hit": false,
      "t": 30211.20608333333,
      "d": 1456.4935000000005,
      "v": 77
    },
    {
      "midi": 50,
      "hit": false,
      "t": 30212.782375,
      "d": 2993.377875000002,
      "v": 66
    },
    {
      "midi": 65,
      "hit": false,
      "t": 30223.816416666665,
      "d": 2985.4964166666723,
      "v": 89
    },
    {
      "midi": 77,
      "hit": false,
      "t": 31278.355541666664,
      "d": 1913.6180833333347,
      "v": 97
    },
    {
      "midi": 59,
      "hit": false,
      "t": 31727.598666666665,
      "d": 1481.714166666672,
      "v": 72
    },
    {
      "midi": 52,
      "hit": false,
      "t": 33292.85629166667,
      "d": 1603.0886249999967,
      "v": 73
    },
    {
      "midi": 59,
      "hit": false,
      "t": 33294.432583333335,
      "d": 1517.9688749999987,
      "v": 68
    },
    {
      "midi": 67,
      "hit": false,
      "t": 33296.008875,
      "d": 2987.0727083333404,
      "v": 70
    },
    {
      "midi": 76,
      "hit": false,
      "t": 33311.771791666666,
      "d": 2961.8520416666724,
      "v": 87
    },
    {
      "midi": 58,
      "hit": false,
      "t": 34802.94370833333,
      "d": 143.44254166667088,
      "v": 81
    },
    {
      "midi": 42,
      "hit": false,
      "t": 35307.35704166667,
      "d": 72.50941666666768,
      "v": 70
    },
    {
      "midi": 41,
      "hit": false,
      "t": 36279.929000000004,
      "d": 1568.4102083333419,
      "v": 72
    },
    {
      "midi": 81,
      "hit": false,
      "t": 36303.57337500001,
      "d": 193.88387499999953,
      "v": 89
    },
    {
      "midi": 69,
      "hit": false,
      "t": 36860.00433333334,
      "d": 204.9179166666654,
      "v": 73
    },
    {
      "midi": 74,
      "hit": false,
      "t": 37350.23104166667,
      "d": 86.69604166666977,
      "v": 84
    },
    {
      "midi": 43,
      "hit": false,
      "t": 37812.08450000001,
      "d": 1283.1014166666646,
      "v": 62
    },
    {
      "midi": 57,
      "hit": false,
      "t": 37821.54225000001,
      "d": 558.0072499999951,
      "v": 77
    },
    {
      "midi": 62,
      "hit": false,
      "t": 38341.71850000001,
      "d": 272.6984583333324,
      "v": 72
    },
    {
      "midi": 59,
      "hit": false,
      "t": 38865.04733333334,
      "d": 61.475375000001804,
      "v": 71
    },
    {
      "midi": 64,
      "hit": false,
      "t": 39342.66370833334,
      "d": 2928.7499166666603,
      "v": 71
    },
    {
      "midi": 67,
      "hit": false,
      "t": 39342.66370833334,
      "d": 2928.7499166666603,
      "v": 68
    },
    {
      "midi": 62,
      "hit": false,
      "t": 39344.240000000005,
      "d": 1508.5111249999973,
      "v": 70
    },
    {
      "midi": 52,
      "hit": false,
      "t": 39344.240000000005,
      "d": 2955.546875,
      "v": 51
    },
    {
      "midi": 60,
      "hit": false,
      "t": 40851.17483333334,
      "d": 1423.3913749999992,
      "v": 66
    },
    {
      "midi": 60,
      "hit": false,
      "t": 42854.64154166667,
      "d": 531.21029166667,
      "v": 57
    },
    {
      "midi": 67,
      "hit": false,
      "t": 43277.08770833334,
      "d": 1737.0734166666662,
      "v": 69
    },
    {
      "midi": 59,
      "hit": false,
      "t": 44014.79220833334,
      "d": 1297.2880416666667,
      "v": 54
    },
    {
      "midi": 71,
      "hit": false,
      "t": 44973.17754166667,
      "d": 214.3756666666668,
      "v": 80
    },
    {
      "midi": 72,
      "hit": false,
      "t": 45211.19758333334,
      "d": 156.05287500000122,
      "v": 103
    },
    {
      "midi": 52,
      "hit": false,
      "t": 45378.28450000001,
      "d": 2924.021041666667,
      "v": 71
    },
    {
      "midi": 62,
      "hit": false,
      "t": 45405.08145833334,
      "d": 1530.5792083333363,
      "v": 76
    },
    {
      "midi": 67,
      "hit": false,
      "t": 45405.08145833334,
      "d": 2886.1900416666685,
      "v": 82
    },
    {
      "midi": 60,
      "hit": false,
      "t": 46910.44000000001,
      "d": 1380.8315000000002,
      "v": 77
    },
    {
      "midi": 53,
      "hit": false,
      "t": 48472.54504166668,
      "d": 1483.2904583333438,
      "v": 84
    },
    {
      "midi": 60,
      "hit": false,
      "t": 48857.16020833335,
      "d": 417.71729166666773,
      "v": 79
    },
    {
      "midi": 67,
      "hit": false,
      "t": 49252.809416666685,
      "d": 357.8182083333377,
      "v": 85
    },
    {
      "midi": 68,
      "hit": false,
      "t": 49575.94920833335,
      "d": 100.88266666667187,
      "v": 104
    },
    {
      "midi": 46,
      "hit": false,
      "t": 49973.174708333354,
      "d": 1420.2387916666703,
      "v": 101
    },
    {
      "midi": 75,
      "hit": false,
      "t": 49985.785041666684,
      "d": 718.7890000000043,
      "v": 104
    },
    {
      "midi": 74,
      "hit": false,
      "t": 50745.55762500002,
      "d": 625.7877916666694,
      "v": 96
    },
    {
      "midi": 52,
      "hit": false,
      "t": 51442.27854166669,
      "d": 3046.971791666663,
      "v": 85
    },
    {
      "midi": 62,
      "hit": false,
      "t": 51454.88887500002,
      "d": 1519.5451666666704,
      "v": 87
    },
    {
      "midi": 67,
      "hit": false,
      "t": 51458.041458333355,
      "d": 3035.9377499999973,
      "v": 88
    },
    {
      "midi": 60,
      "hit": false,
      "t": 52958.67112500002,
      "d": 1418.6624999999985,
      "v": 84
    },
    {
      "midi": 59,
      "hit": false,
      "t": 54421.469791666685,
      "d": 2952.394291666671,
      "v": 75
    },
    {
      "midi": 60,
      "hit": false,
      "t": 54512.894708333355,
      "d": 2872.0034166666665,
      "v": 77
    },
    {
      "midi": 64,
      "hit": false,
      "t": 54516.04729166669,
      "d": 2879.884874999996,
      "v": 64
    },
    {
      "midi": 64,
      "hit": false,
      "t": 57511.001458333354,
      "d": 1513.239999999998,
      "v": 82
    },
    {
      "midi": 69,
      "hit": false,
      "t": 57515.730333333355,
      "d": 2993.3778749999983,
      "v": 91
    },
    {
      "midi": 63,
      "hit": false,
      "t": 59027.39404166669,
      "d": 1481.7141666666648,
      "v": 80
    },
    {
      "midi": 62,
      "hit": false,
      "t": 60554.82066666669,
      "d": 742.4333750000005,
      "v": 91
    },
    {
      "midi": 67,
      "hit": false,
      "t": 60556.39695833335,
      "d": 1495.900791666667,
      "v": 97
    },
    {
      "midi": 60,
      "hit": false,
      "t": 61331.93245833336,
      "d": 651.00845833333,
      "v": 92
    },
    {
      "midi": 60,
      "hit": false,
      "t": 62082.24729166669,
      "d": 732.9756249999991,
      "v": 91
    },
    {
      "midi": 65,
      "hit": false,
      "t": 62083.82358333335,
      "d": 1464.3749583333338,
      "v": 100
    },
    {
      "midi": 59,
      "hit": false,
      "t": 62857.78279166669,
      "d": 685.6868749999994,
      "v": 96
    },
    {
      "midi": 52,
      "hit": false,
      "t": 63532.43562500002,
      "d": 2919.2921666666734,
      "v": 83
    },
    {
      "midi": 67,
      "hit": false,
      "t": 63541.89337500002,
      "d": 2063.3657916666634,
      "v": 82
    },
    {
      "midi": 62,
      "hit": false,
      "t": 63541.89337500002,
      "d": 2080.7049999999945,
      "v": 81
    },
    {
      "midi": 64,
      "hit": false,
      "t": 65597.37770833336,
      "d": 821.2479583333334,
      "v": 90
    },
    {
      "midi": 67,
      "hit": false,
      "t": 65991.45062500001,
      "d": 431.9039166666771,
      "v": 87
    },
    {
      "midi": 60,
      "hit": false,
      "t": 66402.86275000001,
      "d": 1464.374958333341,
      "v": 83
    },
    {
      "midi": 55,
      "hit": false,
      "t": 66565.2207916667,
      "d": 2963.428333333344,
      "v": 82
    },
    {
      "midi": 71,
      "hit": false,
      "t": 67126.38062500003,
      "d": 420.8698749999894,
      "v": 94
    },
    {
      "midi": 72,
      "hit": false,
      "t": 67517.30095833336,
      "d": 370.428541666668,
      "v": 91
    },
    {
      "midi": 59,
      "hit": false,
      "t": 67859.35625000003,
      "d": 1667.716583333342,
      "v": 84
    },
    {
      "midi": 74,
      "hit": false,
      "t": 67881.42433333336,
      "d": 606.8722916666738,
      "v": 95
    },
    {
      "midi": 71,
      "hit": false,
      "t": 68461.4996666667,
      "d": 375.1574166666687,
      "v": 87
    },
    {
      "midi": 69,
      "hit": false,
      "t": 68827.19933333337,
      "d": 340.47900000000664,
      "v": 96
    },
    {
      "midi": 67,
      "hit": false,
      "t": 69199.2041666667,
      "d": 282.1562083333265,
      "v": 87
    },
    {
      "midi": 48,
      "hit": false,
      "t": 69588.54820833338,
      "d": 3062.7347083333443,
      "v": 76
    },
    {
      "midi": 64,
      "hit": false,
      "t": 69590.12450000005,
      "d": 3050.1243749999994,
      "v": 72
    },
    {
      "midi": 67,
      "hit": false,
      "t": 69605.88741666672,
      "d": 3039.0903333333263,
      "v": 69
    },
    {
      "midi": 62,
      "hit": false,
      "t": 70545.35725000006,
      "d": 580.0753333333269,
      "v": 69
    },
    {
      "midi": 60,
      "hit": false,
      "t": 72600.84158333339,
      "d": 39.407291666662786,
      "v": 76
    },
    {
      "midi": 62,
      "hit": false,
      "t": 72603.99416666671,
      "d": 2920.8684583333234,
      "v": 71
    },
    {
      "midi": 55,
      "hit": false,
      "t": 72607.14675000004,
      "d": 2942.936541666655,
      "v": 69
    },
    {
      "midi": 71,
      "hit": false,
      "t": 73198.25612500006,
      "d": 455.54829166666605,
      "v": 96
    },
    {
      "midi": 72,
      "hit": false,
      "t": 73611.24454166672,
      "d": 373.5811250000115,
      "v": 90
    },
    {
      "midi": 59,
      "hit": false,
      "t": 73978.52050000006,
      "d": 1579.4442499999714,
      "v": 77
    },
    {
      "midi": 74,
      "hit": false,
      "t": 73994.28341666673,
      "d": 575.3464583333262,
      "v": 100
    },
    {
      "midi": 71,
      "hit": false,
      "t": 74534.9514583334,
      "d": 411.412124999988,
      "v": 97
    },
    {
      "midi": 72,
      "hit": false,
      "t": 74911.68516666672,
      "d": 376.7337083333259,
      "v": 99
    },
    {
      "midi": 74,
      "hit": false,
      "t": 75269.50337500004,
      "d": 238.02004166666302,
      "v": 98
    },
    {
      "midi": 64,
      "hit": false,
      "t": 75630.4741666667,
      "d": 2034.992541666681,
      "v": 87
    },
    {
      "midi": 52,
      "hit": false,
      "t": 75633.62675000002,
      "d": 2980.76754166669,
      "v": 70
    },
    {
      "midi": 67,
      "hit": false,
      "t": 75635.2030416667,
      "d": 2083.8575833333452,
      "v": 84
    },
    {
      "midi": 62,
      "hit": false,
      "t": 75638.35562500003,
      "d": 1592.0545833333454,
      "v": 83
    },
    {
      "midi": 60,
      "hit": false,
      "t": 77183.12145833336,
      "d": 1418.6625000000204,
      "v": 91
    },
    {
      "midi": 64,
      "hit": false,
      "t": 77755.31533333338,
      "d": 837.0108750000072,
      "v": 70
    },
    {
      "midi": 67,
      "hit": false,
      "t": 78130.47275000004,
      "d": 455.54829166666605,
      "v": 90
    },
    {
      "midi": 55,
      "hit": false,
      "t": 78667.98820833338,
      "d": 680.9579999999987,
      "v": 81
    },
    {
      "midi": 60,
      "hit": false,
      "t": 78667.98820833338,
      "d": 859.078958333339,
      "v": 85
    },
    {
      "midi": 55,
      "hit": false,
      "t": 79452.98145833338,
      "d": 1169.6084166666842,
      "v": 74
    },
    {
      "midi": 60,
      "hit": false,
      "t": 79659.47566666672,
      "d": 376.7337083333405,
      "v": 84
    },
    {
      "midi": 59,
      "hit": false,
      "t": 80020.44645833339,
      "d": 762.9251666666823,
      "v": 73
    },
    {
      "midi": 55,
      "hit": false,
      "t": 80745.54062500007,
      "d": 956.8090416666673,
      "v": 68
    },
    {
      "midi": 59,
      "hit": false,
      "t": 80996.17100000007,
      "d": 725.0941666666622,
      "v": 61
    },
    {
      "midi": 67,
      "hit": false,
      "t": 81495.8554583334,
      "d": 187.57870833332709,
      "v": 92
    },
    {
      "midi": 62,
      "hit": false,
      "t": 81700.77337500006,
      "d": 15.762916666673846,
      "v": 89
    },
    {
      "midi": 64,
      "hit": false,
      "t": 81702.34966666673,
      "d": 2916.1395833333227,
      "v": 90
    },
    {
      "midi": 67,
      "hit": false,
      "t": 81702.34966666673,
      "d": 2922.4447499999806,
      "v": 92
    },
    {
      "midi": 60,
      "hit": false,
      "t": 83207.70820833341,
      "d": 753.4674166666664,
      "v": 95
    },
    {
      "midi": 52,
      "hit": false,
      "t": 83229.77629166674,
      "d": 1412.3573333333043,
      "v": 97
    },
    {
      "midi": 55,
      "hit": false,
      "t": 83981.66741666674,
      "d": 639.9744166666496,
      "v": 96
    },
    {
      "midi": 60,
      "hit": false,
      "t": 84173.97500000006,
      "d": 444.5142499999929,
      "v": 96
    },
    {
      "midi": 41,
      "hit": false,
      "t": 84705.18529166671,
      "d": 1467.5275416666846,
      "v": 103
    },
    {
      "midi": 53,
      "hit": false,
      "t": 84714.64304166671,
      "d": 584.8042083333421,
      "v": 101
    },
    {
      "midi": 57,
      "hit": false,
      "t": 84720.94820833339,
      "d": 539.0917500000069,
      "v": 96
    },
    {
      "midi": 55,
      "hit": false,
      "t": 85269.4977083334,
      "d": 619.4826249999896,
      "v": 78
    },
    {
      "midi": 52,
      "hit": false,
      "t": 85278.9554583334,
      "d": 628.940374999991,
      "v": 85
    },
    {
      "midi": 53,
      "hit": false,
      "t": 85857.45450000005,
      "d": 304.2242916666728,
      "v": 88
    },
    {
      "midi": 57,
      "hit": false,
      "t": 85859.03079166672,
      "d": 323.1397916666756,
      "v": 81
    },
    {
      "midi": 57,
      "hit": false,
      "t": 86243.64595833339,
      "d": 704.6023750000022,
      "v": 95
    },
    {
      "midi": 53,
      "hit": false,
      "t": 86248.3748333334,
      "d": 687.2631666666712,
      "v": 101
    },
    {
      "midi": 41,
      "hit": false,
      "t": 86248.3748333334,
      "d": 1395.0181249999878,
      "v": 86
    },
    {
      "midi": 59,
      "hit": false,
      "t": 87000.26595833339,
      "d": 651.0084583333228,
      "v": 100
    },
    {
      "midi": 55,
      "hit": false,
      "t": 87003.41854166672,
      "d": 630.5166666666628,
      "v": 100
    },
    {
      "midi": 52,
      "hit": false,
      "t": 87752.15708333338,
      "d": 277.4273333333258,
      "v": 85
    },
    {
      "midi": 62,
      "hit": false,
      "t": 87755.30966666671,
      "d": 362.5470833333238,
      "v": 75
    },
    {
      "midi": 67,
      "hit": false,
      "t": 87758.46225000004,
      "d": 211.22308333333058,
      "v": 86
    },
    {
      "midi": 74,
      "hit": false,
      "t": 87761.61483333337,
      "d": 360.9707916666666,
      "v": 84
    },
    {
      "midi": 67,
      "hit": false,
      "t": 88311.74062500003,
      "d": 115.06929166665941,
      "v": 101
    },
    {
      "midi": 74,
      "hit": false,
      "t": 88871.32416666669,
      "d": 97.73008333332837,
      "v": 91
    },
    {
      "midi": 62,
      "hit": false,
      "t": 88874.47675000002,
      "d": 104.03525000000081,
      "v": 96
    },
    {
      "midi": 71,
      "hit": false,
      "t": 89274.85483333335,
      "d": 85.11974999999802,
      "v": 92
    },
    {
      "midi": 72,
      "hit": false,
      "t": 89847.04870833334,
      "d": 52.01762499999313,
      "v": 103
    },
    {
      "midi": 56,
      "hit": false,
      "t": 90732.924625,
      "d": 3029.632583333354,
      "v": 104
    },
    {
      "midi": 77,
      "hit": false,
      "t": 90737.6535,
      "d": 1436.0017083333369,
      "v": 95
    },
    {
      "midi": 71,
      "hit": false,
      "t": 90737.6535,
      "d": 1472.2564166666707,
      "v": 85
    },
    {
      "midi": 72,
      "hit": false,
      "t": 92301.33483333334,
      "d": 715.6364166666754,
      "v": 108
    },
    {
      "midi": 76,
      "hit": false,
      "t": 92307.64000000001,
      "d": 715.6364166666754,
      "v": 99
    },
    {
      "midi": 71,
      "hit": false,
      "t": 93067.41258333335,
      "d": 676.229124999998,
      "v": 104
    },
    {
      "midi": 74,
      "hit": false,
      "t": 93070.56516666668,
      "d": 674.6528333333408,
      "v": 102
    },
    {
      "midi": 72,
      "hit": false,
      "t": 93768.86237500003,
      "d": 1499.0533750000031,
      "v": 91
    },
    {
      "midi": 57,
      "hit": false,
      "t": 93772.01495833336,
      "d": 1543.1895416666812,
      "v": 95
    },
    {
      "midi": 69,
      "hit": false,
      "t": 93776.74383333336,
      "d": 1492.7482083333452,
      "v": 84
    },
    {
      "midi": 55,
      "hit": false,
      "t": 95330.96741666671,
      "d": 1478.5615833333286,
      "v": 80
    },
    {
      "midi": 72,
      "hit": false,
      "t": 95337.27258333338,
      "d": 4095.2057499999937,
      "v": 105
    },
    {
      "midi": 69,
      "hit": false,
      "t": 95342.00145833338,
      "d": 4088.9005833333213,
      "v": 85
    },
    {
      "midi": 76,
      "hit": false,
      "t": 95346.73033333338,
      "d": 1437.577999999994,
      "v": 86
    },
    {
      "midi": 64,
      "hit": false,
      "t": 96796.91866666671,
      "d": 1431.2728333333362,
      "v": 68
    },
    {
      "midi": 60,
      "hit": false,
      "t": 96804.80012500004,
      "d": 3024.9037083333387,
      "v": 85
    },
    {
      "midi": 54,
      "hit": false,
      "t": 96807.95270833337,
      "d": 3026.4800000000105,
      "v": 74
    },
    {
      "midi": 63,
      "hit": false,
      "t": 98362.1762916667,
      "d": 1462.7986666666693,
      "v": 73
    },
    {
      "midi": 71,
      "hit": false,
      "t": 99492.37741666671,
      "d": 346.78416666666453,
      "v": 99
    },
    {
      "midi": 67,
      "hit": false,
      "t": 99891.17920833337,
      "d": 151.3240000000078,
      "v": 92
    },
    {
      "midi": 76,
      "hit": false,
      "t": 101382.35112500004,
      "d": 274.27474999999686,
      "v": 89
    },
    {
      "midi": 71,
      "hit": false,
      "t": 101669.23620833337,
      "d": 261.6644166666665,
      "v": 86
    },
    {
      "midi": 72,
      "hit": false,
      "t": 101907.25625000003,
      "d": 297.9191250000149,
      "v": 84
    },
    {
      "midi": 79,
      "hit": false,
      "t": 102172.07325000004,
      "d": 269.5458750000107,
      "v": 103
    },
    {
      "midi": 71,
      "hit": false,
      "t": 102435.31395833338,
      "d": 233.29116666667687,
      "v": 99
    },
    {
      "midi": 72,
      "hit": false,
      "t": 102684.36804166673,
      "d": 102.45895833332906,
      "v": 90
    },
    {
      "midi": 74,
      "hit": false,
      "t": 102955.4902083334,
      "d": 107.18783333332976,
      "v": 92
    },
    {
      "midi": 76,
      "hit": false,
      "t": 103330.64762500007,
      "d": 77.23829166666837,
      "v": 87
    },
    {
      "midi": 67,
      "hit": false,
      "t": 103715.26279166674,
      "d": 70.93312499999593,
      "v": 99
    },
    {
      "midi": 48,
      "hit": false,
      "t": 105786.51004166673,
      "d": 1497.4770833333314,
      "v": 72
    },
    {
      "midi": 55,
      "hit": false,
      "t": 105849.5617083334,
      "d": 1453.340916666668,
      "v": 72
    },
    {
      "midi": 62,
      "hit": false,
      "t": 105931.52887500006,
      "d": 1371.3737499999988,
      "v": 73
    },
    {
      "midi": 64,
      "hit": false,
      "t": 105961.47841666672,
      "d": 1350.8819583333388,
      "v": 78
    },
    {
      "midi": 60,
      "hit": false,
      "t": 105966.20729166672,
      "d": 1335.119041666665,
      "v": 83
    },
    {
      "midi": 59,
      "hit": false,
      "t": 107444.76887500007,
      "d": 1377.6789166666858,
      "v": 77
    },
    {
      "midi": 55,
      "hit": false,
      "t": 107446.34516666674,
      "d": 1395.0181250000169,
      "v": 74
    },
    {
      "midi": 62,
      "hit": false,
      "t": 107447.92145833341,
      "d": 1355.6108333333395,
      "v": 81
    },
    {
      "midi": 64,
      "hit": false,
      "t": 107449.49775000008,
      "d": 1355.6108333333395,
      "v": 84
    },
    {
      "midi": 45,
      "hit": false,
      "t": 108883.92316666676,
      "d": 1552.647291666668,
      "v": 96
    },
    {
      "midi": 60,
      "hit": false,
      "t": 108902.83866666676,
      "d": 1510.0874166666617,
      "v": 105
    },
    {
      "midi": 64,
      "hit": false,
      "t": 108909.14383333344,
      "d": 1410.7810416666616,
      "v": 99
    },
    {
      "midi": 55,
      "hit": false,
      "t": 110436.57045833343,
      "d": 1450.188333333339,
      "v": 82
    },
    {
      "midi": 64,
      "hit": false,
      "t": 110442.8756250001,
      "d": 1424.9676666666637,
      "v": 84
    },
    {
      "midi": 59,
      "hit": false,
      "t": 110452.3333750001,
      "d": 775.5354999999981,
      "v": 93
    },
    {
      "midi": 60,
      "hit": false,
      "t": 111197.91933333344,
      "d": 673.0765416666545,
      "v": 95
    },
    {
      "midi": 62,
      "hit": false,
      "t": 111941.9290000001,
      "d": 844.8923333333369,
      "v": 84
    },
    {
      "midi": 53,
      "hit": false,
      "t": 111943.50529166678,
      "d": 1510.0874166666617,
      "v": 88
    },
    {
      "midi": 57,
      "hit": false,
      "t": 111945.08158333345,
      "d": 1543.1895416666666,
      "v": 97
    },
    {
      "midi": 62,
      "hit": false,
      "t": 112894.00916666677,
      "d": 487.0741249999992,
      "v": 92
    },
    {
      "midi": 52,
      "hit": false,
      "t": 113455.16900000011,
      "d": 1470.680124999999,
      "v": 95
    },
    {
      "midi": 60,
      "hit": false,
      "t": 113461.47416666678,
      "d": 1475.4089999999997,
      "v": 95
    },
    {
      "midi": 55,
      "hit": false,
      "t": 113464.62675000011,
      "d": 1458.0697916666686,
      "v": 76
    },
    {
      "midi": 55,
      "hit": false,
      "t": 114992.05337500012,
      "d": 2941.3602500000125,
      "v": 75
    },
    {
      "midi": 60,
      "hit": false,
      "t": 114993.62966666679,
      "d": 1500.6296666666603,
      "v": 76
    },
    {
      "midi": 59,
      "hit": false,
      "t": 116513.17483333345,
      "d": 1417.0862083333486,
      "v": 62
    },
    {
      "midi": 74,
      "hit": false,
      "t": 117082.21612500012,
      "d": 118.22187500000291,
      "v": 63
    },
    {
      "midi": 74,
      "hit": false,
      "t": 117266.64225000012,
      "d": 657.3136250000098,
      "v": 63
    },
    {
      "midi": 79,
      "hit": false,
      "t": 117462.10241666679,
      "d": 457.1245833333378,
      "v": 78
    },
    {
      "midi": 52,
      "hit": false,
      "t": 117999.61787500013,
      "d": 1757.5652083333407,
      "v": 76
    },
    {
      "midi": 67,
      "hit": false,
      "t": 118004.34675000013,
      "d": 1658.2588333333406,
      "v": 85
    },
    {
      "midi": 62,
      "hit": false,
      "t": 118005.9230416668,
      "d": 1562.1050416666549,
      "v": 83
    },
    {
      "midi": 60,
      "hit": false,
      "t": 119542.8074166668,
      "d": 104.03525000000081,
      "v": 76
    },
    {
      "midi": 83,
      "hit": false,
      "t": 120330.95325000014,
      "d": 37.83100000000559,
      "v": 58
    },
    {
      "midi": 65,
      "hit": false,
      "t": 121052.89483333347,
      "d": 337.32641666666314,
      "v": 89
    },
    {
      "midi": 50,
      "hit": false,
      "t": 121054.47112500014,
      "d": 299.49541666665755,
      "v": 76
    },
    {
      "midi": 60,
      "hit": false,
      "t": 121054.47112500014,
      "d": 334.17383333331964,
      "v": 91
    },
    {
      "midi": 59,
      "hit": false,
      "t": 123303.83933333347,
      "d": 170.23949999999604,
      "v": 61
    },
    {
      "midi": 65,
      "hit": false,
      "t": 123474.07883333346,
      "d": 69.35683333333873,
      "v": 74
    },
    {
      "midi": 55,
      "hit": false,
      "t": 124051.00158333346,
      "d": 2901.9529583333206,
      "v": 77
    },
    {
      "midi": 59,
      "hit": false,
      "t": 124052.57787500013,
      "d": 1508.51112499999,
      "v": 84
    },
    {
      "midi": 64,
      "hit": false,
      "t": 124055.73045833346,
      "d": 2271.436291666658,
      "v": 80
    },
    {
      "midi": 58,
      "hit": false,
      "t": 125543.74979166679,
      "d": 1399.7469999999885,
      "v": 79
    },
    {
      "midi": 62,
      "hit": false,
      "t": 126300.36979166679,
      "d": 647.8558749999938,
      "v": 81
    },
    {
      "midi": 57,
      "hit": false,
      "t": 127055.41350000011,
      "d": 1424.9676666666783,
      "v": 76
    },
    {
      "midi": 60,
      "hit": false,
      "t": 127056.98979166678,
      "d": 1409.2047500000044,
      "v": 88
    },
    {
      "midi": 60,
      "hit": false,
      "t": 128584.41641666679,
      "d": 565.8887083333393,
      "v": 97
    },
    {
      "midi": 59,
      "hit": false,
      "t": 129164.49175000013,
      "d": 603.7197083333303,
      "v": 83
    },
    {
      "midi": 60,
      "hit": false,
      "t": 129731.95675000013,
      "d": 331.02125000000524,
      "v": 86
    },
    {
      "midi": 52,
      "hit": false,
      "t": 130100.80900000014,
      "d": 340.47900000000664,
      "v": 66
    },
    {
      "midi": 62,
      "hit": false,
      "t": 130129.18225000014,
      "d": 321.56350000000384,
      "v": 69
    },
    {
      "midi": 60,
      "hit": false,
      "t": 130472.81383333348,
      "d": 206.49420833332988,
      "v": 68
    },
    {
      "midi": 59,
      "hit": false,
      "t": 130657.23995833348,
      "d": 129.2559166666615,
      "v": 57
    },
    {
      "midi": 52,
      "hit": false,
      "t": 131183.72137500014,
      "d": 233.29116666666232,
      "v": 69
    },
    {
      "midi": 60,
      "hit": false,
      "t": 131188.45025000014,
      "d": 220.68083333331742,
      "v": 68
    },
    {
      "midi": 62,
      "hit": false,
      "t": 131412.2836666668,
      "d": 217.52825000000303,
      "v": 77
    },
    {
      "midi": 64,
      "hit": false,
      "t": 131822.11950000015,
      "d": 72.50941666666768,
      "v": 54
    },
    {
      "midi": 67,
      "hit": false,
      "t": 132186.24287500014,
      "d": 88.27233333335607,
      "v": 94
    },
    {
      "midi": 62,
      "hit": false,
      "t": 132187.8191666668,
      "d": 88.27233333335607,
      "v": 81
    },
    {
      "midi": 52,
      "hit": false,
      "t": 132190.97175000014,
      "d": 61.47537500000908,
      "v": 85
    },
    {
      "midi": 72,
      "hit": false,
      "t": 132567.70545833348,
      "d": 58.32279166666558,
      "v": 102
    },
    {
      "midi": 52,
      "hit": false,
      "t": 132897.15041666682,
      "d": 192.30758333334234,
      "v": 62
    },
    {
      "midi": 55,
      "hit": false,
      "t": 132900.30300000016,
      "d": 165.51062499999534,
      "v": 55
    },
    {
      "midi": 55,
      "hit": false,
      "t": 133149.35708333348,
      "d": 2701.7639166666777,
      "v": 103
    },
    {
      "midi": 67,
      "hit": false,
      "t": 134147.14970833348,
      "d": 145.01883333333535,
      "v": 68
    },
    {
      "midi": 64,
      "hit": false,
      "t": 134326.84695833348,
      "d": 105.61154166667257,
      "v": 56
    },
    {
      "midi": 65,
      "hit": false,
      "t": 134512.84937500017,
      "d": 105.61154166667257,
      "v": 87
    },
    {
      "midi": 67,
      "hit": false,
      "t": 135222.18062500018,
      "d": 59.89908333332278,
      "v": 76
    },
    {
      "midi": 52,
      "hit": false,
      "t": 136169.53191666683,
      "d": 156.05287500002305,
      "v": 81
    },
    {
      "midi": 62,
      "hit": false,
      "t": 136177.41337500018,
      "d": 157.62916666668025,
      "v": 77
    },
    {
      "midi": 67,
      "hit": false,
      "t": 136191.60000000018,
      "d": 140.28995833333465,
      "v": 82
    },
    {
      "midi": 59,
      "hit": false,
      "t": 136708.62366666686,
      "d": 115.06929166667396,
      "v": 69
    },
    {
      "midi": 60,
      "hit": false,
      "t": 137476.27770833354,
      "d": 141.86624999999185,
      "v": 76
    },
    {
      "midi": 67,
      "hit": false,
      "t": 137681.1956250002,
      "d": 156.05287499999395,
      "v": 84
    },
    {
      "midi": 62,
      "hit": false,
      "t": 137687.50079166685,
      "d": 162.35804166668095,
      "v": 79
    },
    {
      "midi": 62,
      "hit": false,
      "t": 138313.28858333355,
      "d": 66.20425000000978,
      "v": 73
    },
    {
      "midi": 67,
      "hit": false,
      "t": 138678.98825000023,
      "d": 64.62795833332348,
      "v": 94
    },
    {
      "midi": 64,
      "hit": false,
      "t": 138683.71712500023,
      "d": 97.73008333332837,
      "v": 92
    },
    {
      "midi": 56,
      "hit": false,
      "t": 139238.5717916669,
      "d": 86.69604166666977,
      "v": 109
    },
    {
      "midi": 68,
      "hit": false,
      "t": 139966.8185416669,
      "d": 228.56229166666162,
      "v": 117
    },
    {
      "midi": 65,
      "hit": false,
      "t": 140097.65075000023,
      "d": 220.68083333334653,
      "v": 76
    },
    {
      "midi": 63,
      "hit": false,
      "t": 140233.21183333357,
      "d": 124.52704166667536,
      "v": 68
    },
    {
      "midi": 60,
      "hit": false,
      "t": 140351.43370833358,
      "d": 88.27233333332697,
      "v": 85
    },
    {
      "midi": 56,
      "hit": false,
      "t": 140504.33400000024,
      "d": 97.73008333332837,
      "v": 102
    },
    {
      "midi": 75,
      "hit": false,
      "t": 140728.1674166669,
      "d": 780.2643749999988,
      "v": 107
    },
    {
      "midi": 63,
      "hit": false,
      "t": 140736.04887500024,
      "d": 773.9592083333118,
      "v": 97
    },
    {
      "midi": 62,
      "hit": false,
      "t": 141498.9740416669,
      "d": 677.8054166666698,
      "v": 76
    },
    {
      "midi": 74,
      "hit": false,
      "t": 141503.7029166669,
      "d": 655.7373333333235,
      "v": 95
    },
    {
      "midi": 52,
      "hit": false,
      "t": 142236.6785416669,
      "d": 2955.546874999971,
      "v": 70
    },
    {
      "midi": 62,
      "hit": false,
      "t": 142254.01775000023,
      "d": 389.34404166665627,
      "v": 84
    },
    {
      "midi": 67,
      "hit": false,
      "t": 142255.5940416669,
      "d": 2016.0770416666346,
      "v": 85
    },
    {
      "midi": 60,
      "hit": false,
      "t": 142592.92045833357,
      "d": 233.29116666663322,
      "v": 87
    },
    {
      "midi": 59,
      "hit": false,
      "t": 142815.17758333354,
      "d": 379.88629166665487,
      "v": 84
    },
    {
      "midi": 60,
      "hit": false,
      "t": 143191.91129166685,
      "d": 1078.1835000000137,
      "v": 86
    },
    {
      "midi": 62,
      "hit": false,
      "t": 144333.14645833353,
      "d": 375.15741666665417,
      "v": 59
    },
    {
      "midi": 64,
      "hit": false,
      "t": 144692.54095833353,
      "d": 398.80179166665766,
      "v": 69
    },
    {
      "midi": 57,
      "hit": false,
      "t": 145231.63270833352,
      "d": 1322.5087083333055,
      "v": 64
    },
    {
      "midi": 64,
      "hit": false,
      "t": 145233.20900000018,
      "d": 1270.491083333327,
      "v": 72
    },
    {
      "midi": 60,
      "hit": false,
      "t": 145237.93787500018,
      "d": 1270.491083333327,
      "v": 81
    },
    {
      "midi": 57,
      "hit": false,
      "t": 146800.04291666683,
      "d": 1191.6765000000014,
      "v": 56
    },
    {
      "midi": 60,
      "hit": false,
      "t": 146803.19550000018,
      "d": 1160.1506666666537,
      "v": 77
    },
    {
      "midi": 64,
      "hit": false,
      "t": 146807.92437500018,
      "d": 1188.523916666658,
      "v": 59
    },
    {
      "midi": 54,
      "hit": false,
      "t": 148269.14675000016,
      "d": 1374.5263333333423,
      "v": 74
    },
    {
      "midi": 57,
      "hit": false,
      "t": 148280.18079166682,
      "d": 1331.966458333336,
      "v": 73
    },
    {
      "midi": 64,
      "hit": false,
      "t": 148280.18079166682,
      "d": 1393.4418333333451,
      "v": 72
    },
    {
      "midi": 54,
      "hit": false,
      "t": 149804.4548333335,
      "d": 1365.0685833333118,
      "v": 70
    },
    {
      "midi": 63,
      "hit": false,
      "t": 149806.03112500015,
      "d": 1368.2211666666553,
      "v": 77
    },
    {
      "midi": 57,
      "hit": false,
      "t": 149810.76000000015,
      "d": 1366.6448749999981,
      "v": 73
    },
    {
      "midi": 62,
      "hit": false,
      "t": 151297.20304166683,
      "d": 699.8735000000161,
      "v": 76
    },
    {
      "midi": 55,
      "hit": false,
      "t": 151300.35562500017,
      "d": 687.2631666666712,
      "v": 82
    },
    {
      "midi": 60,
      "hit": false,
      "t": 152053.82304166685,
      "d": 654.1610416666663,
      "v": 85
    },
    {
      "midi": 55,
      "hit": false,
      "t": 152060.1282083335,
      "d": 613.1774583333463,
      "v": 73
    },
    {
      "midi": 60,
      "hit": false,
      "t": 152793.10383333353,
      "d": 688.8394583333284,
      "v": 62
    },
    {
      "midi": 53,
      "hit": false,
      "t": 152807.29045833353,
      "d": 654.1610416666663,
      "v": 84
    },
    {
      "midi": 62,
      "hit": false,
      "t": 153567.06304166687,
      "d": 665.1950833333249,
      "v": 83
    },
    {
      "midi": 67,
      "hit": false,
      "t": 153570.21562500022,
      "d": 663.6187916666386,
      "v": 84
    },
    {
      "midi": 59,
      "hit": false,
      "t": 153574.94450000022,
      "d": 673.07654166664,
      "v": 77
    },
    {
      "midi": 53,
      "hit": false,
      "t": 153576.52079166687,
      "d": 674.6528333333263,
      "v": 85
    },
    {
      "midi": 52,
      "hit": false,
      "t": 154337.86966666687,
      "d": 2982.343833333376,
      "v": 62
    },
    {
      "midi": 62,
      "hit": false,
      "t": 154347.32741666687,
      "d": 863.8078333333251,
      "v": 73
    },
    {
      "midi": 67,
      "hit": false,
      "t": 154352.05629166687,
      "d": 2224.1475416666945,
      "v": 72
    },
    {
      "midi": 62,
      "hit": false,
      "t": 155282.0683750002,
      "d": 647.8558750000084,
      "v": 70
    },
    {
      "midi": 60,
      "hit": false,
      "t": 155876.33033333355,
      "d": 668.3476666666684,
      "v": 85
    },
    {
      "midi": 60,
      "hit": false,
      "t": 156618.76370833357,
      "d": 704.6023750000168,
      "v": 77
    },
    {
      "midi": 67,
      "hit": false,
      "t": 156815.80016666692,
      "d": 510.71850000001723,
      "v": 76
    },
    {
      "midi": 55,
      "hit": false,
      "t": 157378.53629166694,
      "d": 1437.5780000000086,
      "v": 64
    },
    {
      "midi": 60,
      "hit": false,
      "t": 157380.1125833336,
      "d": 1450.1883333333535,
      "v": 69
    },
    {
      "midi": 71,
      "hit": false,
      "t": 157946.00129166694,
      "d": 422.44616666666116,
      "v": 101
    },
    {
      "midi": 72,
      "hit": false,
      "t": 158329.04016666693,
      "d": 332.597541666677,
      "v": 96
    },
    {
      "midi": 74,
      "hit": false,
      "t": 158690.01095833362,
      "d": 641.5507083333505,
      "v": 102
    },
    {
      "midi": 55,
      "hit": false,
      "t": 158920.14954166696,
      "d": 1412.3573333333188,
      "v": 67
    },
    {
      "midi": 59,
      "hit": false,
      "t": 158924.87841666696,
      "d": 1404.4758749999746,
      "v": 78
    },
    {
      "midi": 71,
      "hit": false,
      "t": 159301.6121250003,
      "d": 368.8522499999963,
      "v": 79
    },
    {
      "midi": 69,
      "hit": false,
      "t": 159656.2777500003,
      "d": 406.68325000000186,
      "v": 89
    },
    {
      "midi": 67,
      "hit": false,
      "t": 160017.24854166698,
      "d": 275.8510416666395,
      "v": 84
    },
    {
      "midi": 62,
      "hit": false,
      "t": 160390.82966666695,
      "d": 788.145833333343,
      "v": 74
    },
    {
      "midi": 52,
      "hit": false,
      "t": 160390.82966666695,
      "d": 2914.563291666651,
      "v": 61
    },
    {
      "midi": 67,
      "hit": false,
      "t": 160393.9822500003,
      "d": 930.0120833333349,
      "v": 76
    },
    {
      "midi": 55,
      "hit": false,
      "t": 161156.90741666695,
      "d": 2142.1803749999963,
      "v": 87
    },
    {
      "midi": 62,
      "hit": false,
      "t": 161374.43566666695,
      "d": 417.71729166666046,
      "v": 87
    },
    {
      "midi": 67,
      "hit": false,
      "t": 161727.52500000029,
      "d": 805.4850416666595,
      "v": 84
    },
    {
      "midi": 60,
      "hit": false,
      "t": 161916.68000000028,
      "d": 611.60116666666,
      "v": 78
    },
    {
      "midi": 60,
      "hit": false,
      "t": 162663.84225000028,
      "d": 589.5330833333428,
      "v": 73
    },
    {
      "midi": 67,
      "hit": false,
      "t": 162666.99483333362,
      "d": 597.4145416666579,
      "v": 73
    },
    {
      "midi": 64,
      "hit": false,
      "t": 162670.14741666697,
      "d": 589.5330833333137,
      "v": 76
    },
    {
      "midi": 60,
      "hit": false,
      "t": 163447.2592083336,
      "d": 1480.1378749999858,
      "v": 76
    },
    {
      "midi": 55,
      "hit": false,
      "t": 163456.7169583336,
      "d": 2935.055083333311,
      "v": 63
    },
    {
      "midi": 71,
      "hit": false,
      "t": 163995.80870833358,
      "d": 461.85345833332394,
      "v": 94
    },
    {
      "midi": 72,
      "hit": false,
      "t": 164407.2208333336,
      "d": 327.8686666666472,
      "v": 89
    },
    {
      "midi": 74,
      "hit": false,
      "t": 164765.0390416669,
      "d": 567.4649999999965,
      "v": 89
    },
    {
      "midi": 59,
      "hit": false,
      "t": 164968.3806666669,
      "d": 1423.3913750000065,
      "v": 80
    },
    {
      "midi": 71,
      "hit": false,
      "t": 165321.47000000023,
      "d": 338.9027083333349,
      "v": 85
    },
    {
      "midi": 72,
      "hit": false,
      "t": 165698.20370833357,
      "d": 348.3604583333363,
      "v": 92
    },
    {
      "midi": 74,
      "hit": false,
      "t": 166062.32708333357,
      "d": 252.20666666666511,
      "v": 98
    },
    {
      "midi": 52,
      "hit": false,
      "t": 166437.48450000022,
      "d": 3039.0903333333845,
      "v": 73
    },
    {
      "midi": 62,
      "hit": false,
      "t": 166443.78966666688,
      "d": 737.7045000000217,
      "v": 71
    },
    {
      "midi": 67,
      "hit": false,
      "t": 166446.94225000023,
      "d": 2274.588875000016,
      "v": 74
    },
    {
      "midi": 55,
      "hit": false,
      "t": 167033.32275000022,
      "d": 2413.3025416666933,
      "v": 82
    },
    {
      "midi": 62,
      "hit": false,
      "t": 167410.05645833357,
      "d": 561.1598333333386,
      "v": 71
    },
    {
      "midi": 60,
      "hit": false,
      "t": 167966.4874166669,
      "d": 669.9239583333256,
      "v": 99
    },
    {
      "midi": 60,
      "hit": false,
      "t": 168737.2940416669,
      "d": 717.2127083333617,
      "v": 90
    },
    {
      "midi": 67,
      "hit": false,
      "t": 169095.11225000024,
      "d": 362.5470833333675,
      "v": 84
    },
    {
      "midi": 50,
      "hit": false,
      "t": 169481.3037083336,
      "d": 2966.5809166666877,
      "v": 79
    },
    {
      "midi": 60,
      "hit": false,
      "t": 169487.60887500027,
      "d": 725.0941666666768,
      "v": 94
    },
    {
      "midi": 65,
      "hit": false,
      "t": 169487.60887500027,
      "d": 2287.1992083333316,
      "v": 87
    },
    {
      "midi": 55,
      "hit": false,
      "t": 170055.07387500026,
      "d": 2362.861208333343,
      "v": 81
    },
    {
      "midi": 60,
      "hit": false,
      "t": 170441.2653333336,
      "d": 556.4309583333379,
      "v": 82
    },
    {
      "midi": 59,
      "hit": false,
      "t": 170996.1200000003,
      "d": 622.6352083333186,
      "v": 85
    },
    {
      "midi": 67,
      "hit": false,
      "t": 171771.65550000028,
      "d": 143.44254166664905,
      "v": 76
    },
    {
      "midi": 59,
      "hit": false,
      "t": 171773.23179166694,
      "d": 165.51062499999534,
      "v": 68
    },
    {
      "midi": 59,
      "hit": false,
      "t": 171965.53937500028,
      "d": 455.54829166666605,
      "v": 71
    },
    {
      "midi": 67,
      "hit": false,
      "t": 171967.11566666694,
      "d": 482.34525000001304,
      "v": 77
    },
    {
      "midi": 62,
      "hit": false,
      "t": 172514.08887500028,
      "d": 655.7373333333235,
      "v": 76
    },
    {
      "midi": 52,
      "hit": false,
      "t": 172517.24145833362,
      "d": 2944.5128333333414,
      "v": 70
    },
    {
      "midi": 67,
      "hit": false,
      "t": 172523.54662500028,
      "d": 1855.295291666669,
      "v": 77
    },
    {
      "midi": 55,
      "hit": false,
      "t": 173067.36725000027,
      "d": 2378.624125000031,
      "v": 75
    },
    {
      "midi": 62,
      "hit": false,
      "t": 173459.86387500027,
      "d": 564.3124166666821,
      "v": 64
    },
    {
      "midi": 60,
      "hit": false,
      "t": 174011.5659583336,
      "d": 1409.2047500000335,
      "v": 78
    },
    {
      "midi": 64,
      "hit": false,
      "t": 174766.60966666695,
      "d": 635.2455416666926,
      "v": 67
    },
    {
      "midi": 67,
      "hit": false,
      "t": 174779.2200000003,
      "d": 646.2795833333512,
      "v": 58
    },
    {
      "midi": 55,
      "hit": false,
      "t": 175534.26370833363,
      "d": 2810.528041666723,
      "v": 57
    },
    {
      "midi": 62,
      "hit": false,
      "t": 175537.41629166697,
      "d": 447.66683333332185,
      "v": 69
    },
    {
      "midi": 60,
      "hit": false,
      "t": 175538.99258333363,
      "d": 453.97200000000885,
      "v": 64
    },
    {
      "midi": 62,
      "hit": false,
      "t": 176104.88129166697,
      "d": 321.5634999999893,
      "v": 69
    },
    {
      "midi": 60,
      "hit": false,
      "t": 176106.45758333363,
      "d": 290.0376666666707,
      "v": 68
    },
    {
      "midi": 60,
      "hit": false,
      "t": 176478.46241666697,
      "d": 313.6820416667033,
      "v": 90
    },
    {
      "midi": 64,
      "hit": false,
      "t": 176478.46241666697,
      "d": 329.4449583333626,
      "v": 89
    },
    {
      "midi": 67,
      "hit": false,
      "t": 176481.6150000003,
      "d": 288.4613750000135,
      "v": 85
    },
    {
      "midi": 60,
      "hit": false,
      "t": 176858.34870833365,
      "d": 264.81700000001,
      "v": 86
    },
    {
      "midi": 64,
      "hit": false,
      "t": 176863.07758333365,
      "d": 335.7501249999914,
      "v": 74
    },
    {
      "midi": 67,
      "hit": false,
      "t": 176866.230166667,
      "d": 307.3768749999872,
      "v": 87
    },
    {
      "midi": 67,
      "hit": false,
      "t": 177201.980291667,
      "d": 204.91791666668723,
      "v": 79
    },
    {
      "midi": 62,
      "hit": false,
      "t": 177235.082416667,
      "d": 293.1902500000142,
      "v": 78
    },
    {
      "midi": 59,
      "hit": false,
      "t": 177236.65870833365,
      "d": 288.4613750000135,
      "v": 72
    },
    {
      "midi": 69,
      "hit": false,
      "t": 177394.28787500033,
      "d": 247.47779166669352,
      "v": 89
    },
    {
      "midi": 71,
      "hit": false,
      "t": 177603.93466666702,
      "d": 351.5130416666798,
      "v": 84
    },
    {
      "midi": 62,
      "hit": false,
      "t": 177613.39241666702,
      "d": 691.9920416666719,
      "v": 85
    },
    {
      "midi": 67,
      "hit": false,
      "t": 177618.12129166702,
      "d": 673.0765416666691,
      "v": 88
    },
    {
      "midi": 59,
      "hit": false,
      "t": 177618.12129166702,
      "d": 677.8054166666698,
      "v": 83
    },
    {
      "midi": 72,
      "hit": false,
      "t": 177971.21062500036,
      "d": 201.76533333334373,
      "v": 91
    },
    {
      "midi": 74,
      "hit": false,
      "t": 178168.2470833337,
      "d": 274.2747499999823,
      "v": 84
    },
    {
      "midi": 74,
      "hit": false,
      "t": 178559.167416667,
      "d": 212.79937500000233,
      "v": 88
    },
    {
      "midi": 67,
      "hit": false,
      "t": 178562.32000000036,
      "d": 105.61154166667257,
      "v": 83
    },
    {
      "midi": 52,
      "hit": false,
      "t": 178562.32000000036,
      "d": 2733.289749999967,
      "v": 77
    },
    {
      "midi": 62,
      "hit": false,
      "t": 178565.4725833337,
      "d": 271.1221666666388,
      "v": 68
    },
    {
      "midi": 67,
      "hit": false,
      "t": 178902.79900000035,
      "d": 97.73008333332837,
      "v": 76
    },
    {
      "midi": 67,
      "hit": false,
      "t": 179102.988041667,
      "d": 97.73008333332837,
      "v": 63
    },
    {
      "midi": 74,
      "hit": false,
      "t": 179489.17950000035,
      "d": 80.39087500001187,
      "v": 85
    },
    {
      "midi": 62,
      "hit": false,
      "t": 179492.3320833337,
      "d": 88.27233333332697,
      "v": 84
    },
    {
      "midi": 59,
      "hit": false,
      "t": 180051.91562500034,
      "d": 91.42491666667047,
      "v": 84
    },
    {
      "midi": 71,
      "hit": false,
      "t": 180053.491916667,
      "d": 86.69604166666977,
      "v": 87
    },
    {
      "midi": 60,
      "hit": false,
      "t": 180649.330166667,
      "d": 50.44133333332138,
      "v": 84
    },
    {
      "midi": 72,
      "hit": false,
      "t": 180650.90645833366,
      "d": 63.05166666666628,
      "v": 87
    },
    {
      "midi": 65,
      "hit": false,
      "t": 181584.07112500034,
      "d": 1372.950041666656,
      "v": 85
    },
    {
      "midi": 77,
      "hit": false,
      "t": 181585.647416667,
      "d": 1328.8138749999925,
      "v": 93
    },
    {
      "midi": 56,
      "hit": false,
      "t": 181585.647416667,
      "d": 2247.791916666669,
      "v": 78
    },
    {
      "midi": 76,
      "hit": false,
      "t": 183095.73483333367,
      "d": 539.0917499999923,
      "v": 82
    },
    {
      "midi": 64,
      "hit": false,
      "t": 183095.73483333367,
      "d": 619.4826250000042,
      "v": 64
    },
    {
      "midi": 74,
      "hit": false,
      "t": 183852.35483333367,
      "d": 628.9403749999765,
      "v": 72
    },
    {
      "midi": 62,
      "hit": false,
      "t": 183852.35483333367,
      "d": 639.9744166666351,
      "v": 67
    },
    {
      "midi": 68,
      "hit": false,
      "t": 183852.35483333367,
      "d": 647.8558749999793,
      "v": 79
    },
    {
      "midi": 59,
      "hit": false,
      "t": 183853.93112500032,
      "d": 688.8394583333284,
      "v": 60
    },
    {
      "midi": 57,
      "hit": false,
      "t": 184604.24595833366,
      "d": 1481.714166666643,
      "v": 79
    },
    {
      "midi": 72,
      "hit": false,
      "t": 184608.97483333366,
      "d": 1521.1214583333349,
      "v": 91
    },
    {
      "midi": 64,
      "hit": false,
      "t": 184610.55112500032,
      "d": 4185.054375000007,
      "v": 76
    },
    {
      "midi": 69,
      "hit": false,
      "t": 184612.12741666698,
      "d": 1491.1719166666735,
      "v": 88
    },
    {
      "midi": 55,
      "hit": false,
      "t": 186111.180791667,
      "d": 1495.9007916666742,
      "v": 75
    },
    {
      "midi": 71,
      "hit": false,
      "t": 186119.06225000034,
      "d": 1557.3761666666542,
      "v": 76
    },
    {
      "midi": 54,
      "hit": false,
      "t": 187619.691916667,
      "d": 1555.7998749999679,
      "v": 77
    },
    {
      "midi": 69,
      "hit": false,
      "t": 187625.99708333367,
      "d": 2682.848416666646,
      "v": 79
    },
    {
      "midi": 63,
      "hit": false,
      "t": 189155.00000000032,
      "d": 1516.3925833333342,
      "v": 72
    },
    {
      "midi": 59,
      "hit": false,
      "t": 189156.57629166698,
      "d": 1524.2740416666784,
      "v": 41
    },
    {
      "midi": 71,
      "hit": false,
      "t": 190286.77741666697,
      "d": 381.4625833333412,
      "v": 80
    },
    {
      "midi": 52,
      "hit": false,
      "t": 190666.66370833365,
      "d": 226.98600000003353,
      "v": 72
    },
    {
      "midi": 62,
      "hit": false,
      "t": 190668.2400000003,
      "d": 212.79937500003143,
      "v": 77
    },
    {
      "midi": 67,
      "hit": false,
      "t": 190674.545166667,
      "d": 231.71487500003423,
      "v": 79
    },
    {
      "midi": 60,
      "hit": false,
      "t": 191412.24966666702,
      "d": 74.08570833332487,
      "v": 104
    },
    {
      "midi": 71,
      "hit": false,
      "t": 192373.78758333367,
      "d": 272.6984583333251,
      "v": 76
    },
    {
      "midi": 72,
      "hit": false,
      "t": 192622.841666667,
      "d": 312.105750000017,
      "v": 89
    },
    {
      "midi": 79,
      "hit": false,
      "t": 192912.87933333367,
      "d": 316.8346250000177,
      "v": 101
    },
    {
      "midi": 71,
      "hit": false,
      "t": 193185.57779166702,
      "d": 247.47779166666442,
      "v": 88
    },
    {
      "midi": 72,
      "hit": false,
      "t": 193451.9710833337,
      "d": 310.5294583333307,
      "v": 86
    },
    {
      "midi": 74,
      "hit": false,
      "t": 193723.09325000035,
      "d": 349.9367499999935,
      "v": 95
    },
    {
      "midi": 76,
      "hit": false,
      "t": 194069.877416667,
      "d": 354.6656250000233,
      "v": 86
    },
    {
      "midi": 67,
      "hit": false,
      "t": 194432.42450000037,
      "d": 2224.1475416666653,
      "v": 93
    },
    {
      "midi": 52,
      "hit": false,
      "t": 196718.04741666705,
      "d": 170.23949999999604,
      "v": 73
    },
    {
      "midi": 62,
      "hit": false,
      "t": 196719.6237083337,
      "d": 96.15379166667117,
      "v": 72
    },
    {
      "midi": 67,
      "hit": false,
      "t": 196721.20000000036,
      "d": 126.10333333336166,
      "v": 73
    },
    {
      "midi": 60,
      "hit": false,
      "t": 198231.28741666704,
      "d": 111.91670833333046,
      "v": 50
    },
    {
      "midi": 60,
      "hit": false,
      "t": 198609.59741666703,
      "d": 96.15379166667117,
      "v": 72
    },
    {
      "midi": 60,
      "hit": false,
      "t": 199180.21500000037,
      "d": 63.05166666666628,
      "v": 67
    },
    {
      "midi": 65,
      "hit": false,
      "t": 199733.4933750004,
      "d": 201.76533333334373,
      "v": 76
    },
    {
      "midi": 50,
      "hit": false,
      "t": 199733.4933750004,
      "d": 234.86745833334862,
      "v": 71
    },
    {
      "midi": 60,
      "hit": false,
      "t": 199741.37483333374,
      "d": 192.30758333334234,
      "v": 82
    },
    {
      "midi": 65,
      "hit": false,
      "t": 200311.99241666708,
      "d": 124.52704166667536,
      "v": 59
    },
    {
      "midi": 60,
      "hit": false,
      "t": 200315.14500000043,
      "d": 133.98479166667676,
      "v": 75
    },
    {
      "midi": 60,
      "hit": false,
      "t": 200679.26837500042,
      "d": 132.40850000001956,
      "v": 72
    },
    {
      "midi": 65,
      "hit": false,
      "t": 200682.42095833377,
      "d": 132.40850000001956,
      "v": 60
    },
    {
      "midi": 65,
      "hit": false,
      "t": 201224.66529166713,
      "d": 111.91670833333046,
      "v": 62
    },
    {
      "midi": 60,
      "hit": false,
      "t": 201224.66529166713,
      "d": 121.37445833333186,
      "v": 71
    },
    {
      "midi": 60,
      "hit": false,
      "t": 201800.01175000047,
      "d": 126.10333333333256,
      "v": 67
    },
    {
      "midi": 65,
      "hit": false,
      "t": 201803.1643333338,
      "d": 116.64558333333116,
      "v": 61
    },
    {
      "midi": 60,
      "hit": false,
      "t": 202323.3405833338,
      "d": 80.39087499998277,
      "v": 68
    },
    {
      "midi": 65,
      "hit": false,
      "t": 202334.37462500046,
      "d": 70.93312499998137,
      "v": 57
    },
    {
      "midi": 52,
      "hit": false,
      "t": 202722.14237500046,
      "d": 192.30758333334234,
      "v": 56
    },
    {
      "midi": 62,
      "hit": false,
      "t": 202726.87125000046,
      "d": 148.17141666667885,
      "v": 72
    },
    {
      "midi": 67,
      "hit": false,
      "t": 202736.32900000046,
      "d": 140.28995833333465,
      "v": 65
    },
    {
      "midi": 62,
      "hit": false,
      "t": 203707.32466666715,
      "d": 127.67962499998976,
      "v": 69
    },
    {
      "midi": 60,
      "hit": false,
      "t": 204260.60304166714,
      "d": 77.23829166666837,
      "v": 76
    },
    {
      "midi": 50,
      "hit": false,
      "t": 205726.55429166715,
      "d": 2939.7839583332825,
      "v": 72
    },
    {
      "midi": 60,
      "hit": false,
      "t": 205731.28316666716,
      "d": 606.8722916666593,
      "v": 89
    },
    {
      "midi": 65,
      "hit": false,
      "t": 205742.3172083338,
      "d": 2922.444749999966,
      "v": 77
    },
    {
      "midi": 59,
      "hit": false,
      "t": 206327.12141666716,
      "d": 447.66683333332185,
      "v": 70
    },
    {
      "midi": 60,
      "hit": false,
      "t": 206735.38095833382,
      "d": 439.78537499997765,
      "v": 72
    },
    {
      "midi": 62,
      "hit": false,
      "t": 207145.21679166713,
      "d": 1524.2740416666493,
      "v": 69
    },
    {
      "midi": 55,
      "hit": false,
      "t": 207630.71462500046,
      "d": 137.13737499999115,
      "v": 64
    },
    {
      "midi": 55,
      "hit": false,
      "t": 207838.78512500046,
      "d": 266.3932916666672,
      "v": 89
    },
    {
      "midi": 55,
      "hit": false,
      "t": 208206.0610833338,
      "d": 447.66683333332185,
      "v": 95
    },
    {
      "midi": 52,
      "hit": false,
      "t": 208825.54370833377,
      "d": 2610.338999999949,
      "v": 60
    },
    {
      "midi": 64,
      "hit": false,
      "t": 209582.16370833377,
      "d": 113.49299999998766,
      "v": 85
    },
    {
      "midi": 67,
      "hit": false,
      "t": 209771.31870833377,
      "d": 99.30637499998556,
      "v": 100
    },
    {
      "midi": 62,
      "hit": false,
      "t": 209771.31870833377,
      "d": 100.88266666664276,
      "v": 90
    },
    {
      "midi": 55,
      "hit": false,
      "t": 210717.09370833373,
      "d": 97.73008333332837,
      "v": 71
    },
    {
      "midi": 55,
      "hit": false,
      "t": 210904.67241666708,
      "d": 108.76412499998696,
      "v": 69
    },
    {
      "midi": 60,
      "hit": false,
      "t": 211279.82983333373,
      "d": 64.62795833332348,
      "v": 92
    },
    {
      "midi": 67,
      "hit": false,
      "t": 211279.82983333373,
      "d": 64.62795833332348,
      "v": 78
    },
    {
      "midi": 55,
      "hit": false,
      "t": 211281.4061250004,
      "d": 111.91670833333046,
      "v": 91
    },
    {
      "midi": 55,
      "hit": false,
      "t": 211834.6845000004,
      "d": 288.4613749999844,
      "v": 73
    },
    {
      "midi": 62,
      "hit": false,
      "t": 211839.4133750004,
      "d": 1075.0309166666702,
      "v": 64
    },
    {
      "midi": 50,
      "hit": false,
      "t": 211844.1422500004,
      "d": 2810.5280416666646,
      "v": 54
    },
    {
      "midi": 65,
      "hit": false,
      "t": 211845.71854166707,
      "d": 1172.7609999999986,
      "v": 69
    },
    {
      "midi": 55,
      "hit": false,
      "t": 212419.48870833372,
      "d": 100.88266666667187,
      "v": 62
    },
    {
      "midi": 55,
      "hit": false,
      "t": 212605.4911250004,
      "d": 97.73008333332837,
      "v": 75
    },
    {
      "midi": 55,
      "hit": false,
      "t": 212789.9172500004,
      "d": 778.6880833333125,
      "v": 75
    },
    {
      "midi": 62,
      "hit": false,
      "t": 213198.17679166707,
      "d": 662.0424999999814,
      "v": 70
    },
    {
      "midi": 65,
      "hit": false,
      "t": 213202.90566666707,
      "d": 690.4157499999856,
      "v": 65
    },
    {
      "midi": 55,
      "hit": false,
      "t": 213759.33662500037,
      "d": 345.2078750000219,
      "v": 78
    },
    {
      "midi": 62,
      "hit": false,
      "t": 213950.06791666706,
      "d": 178.12095833334024,
      "v": 76
    },
    {
      "midi": 55,
      "hit": false,
      "t": 214320.49645833374,
      "d": 313.6820416666742,
      "v": 101
    },
    {
      "midi": 62,
      "hit": false,
      "t": 214325.22533333374,
      "d": 305.80058333333,
      "v": 93
    },
    {
      "midi": 65,
      "hit": false,
      "t": 214325.22533333374,
      "d": 313.6820416666742,
      "v": 100
    },
    {
      "midi": 62,
      "hit": false,
      "t": 214870.6222500004,
      "d": 111.91670833333046,
      "v": 56
    },
    {
      "midi": 64,
      "hit": false,
      "t": 214875.3511250004,
      "d": 113.49300000001676,
      "v": 57
    },
    {
      "midi": 52,
      "hit": false,
      "t": 214875.3511250004,
      "d": 2744.323791666684,
      "v": 53
    },
    {
      "midi": 67,
      "hit": false,
      "t": 214876.92741666705,
      "d": 108.76412500001607,
      "v": 44
    },
    {
      "midi": 64,
      "hit": false,
      "t": 215255.23741666708,
      "d": 130.83220833333326,
      "v": 60
    },
    {
      "midi": 67,
      "hit": false,
      "t": 215258.39000000042,
      "d": 116.64558333333116,
      "v": 51
    },
    {
      "midi": 64,
      "hit": false,
      "t": 215630.39483333373,
      "d": 94.57750000001397,
      "v": 84
    },
    {
      "midi": 67,
      "hit": false,
      "t": 215633.54741666708,
      "d": 83.54345833332627,
      "v": 77
    },
    {
      "midi": 64,
      "hit": false,
      "t": 215819.54983333376,
      "d": 133.98479166667676,
      "v": 95
    },
    {
      "midi": 67,
      "hit": false,
      "t": 215822.7024166671,
      "d": 256.9355416666658,
      "v": 86
    },
    {
      "midi": 62,
      "hit": false,
      "t": 216008.70483333376,
      "d": 86.69604166666977,
      "v": 81
    },
    {
      "midi": 67,
      "hit": false,
      "t": 216194.7072500004,
      "d": 105.61154166667257,
      "v": 100
    },
    {
      "midi": 60,
      "hit": false,
      "t": 216197.85983333376,
      "d": 108.76412499998696,
      "v": 106
    },
    {
      "midi": 67,
      "hit": false,
      "t": 216577.7461250004,
      "d": 77.23829166666837,
      "v": 79
    },
    {
      "midi": 64,
      "hit": false,
      "t": 216577.7461250004,
      "d": 93.00120833332767,
      "v": 85
    },
    {
      "midi": 67,
      "hit": false,
      "t": 216760.59595833375,
      "d": 55.17020833332208,
      "v": 60
    },
    {
      "midi": 62,
      "hit": false,
      "t": 216765.32483333375,
      "d": 80.39087499998277,
      "v": 66
    },
    {
      "midi": 60,
      "hit": false,
      "t": 216960.7850000004,
      "d": 85.11974999998347,
      "v": 103
    },
    {
      "midi": 64,
      "hit": false,
      "t": 216965.5138750004,
      "d": 39.407291666662786,
      "v": 77
    },
    {
      "midi": 67,
      "hit": false,
      "t": 216965.5138750004,
      "d": 80.39087499998277,
      "v": 98
    },
    {
      "midi": 67,
      "hit": false,
      "t": 217335.94241666707,
      "d": 39.407291666662786,
      "v": 97
    },
    {
      "midi": 64,
      "hit": false,
      "t": 217335.94241666707,
      "d": 47.288750000006985,
      "v": 104
    },
    {
      "midi": 50,
      "hit": false,
      "t": 217871.88158333374,
      "d": 2941.360250000056,
      "v": 76
    },
    {
      "midi": 65,
      "hit": false,
      "t": 217881.33933333374,
      "d": 561.1598333333677,
      "v": 97
    },
    {
      "midi": 62,
      "hit": false,
      "t": 217884.4919166671,
      "d": 565.8887083333684,
      "v": 87
    },
    {
      "midi": 55,
      "hit": false,
      "t": 218466.14354166712,
      "d": 163.93433333333815,
      "v": 76
    },
    {
      "midi": 60,
      "hit": false,
      "t": 218857.06387500046,
      "d": 126.10333333333256,
      "v": 79
    },
    {
      "midi": 65,
      "hit": false,
      "t": 219244.83162500046,
      "d": 138.71366666667745,
      "v": 88
    },
    {
      "midi": 62,
      "hit": false,
      "t": 219247.9842083338,
      "d": 137.13737499999115,
      "v": 84
    },
    {
      "midi": 65,
      "hit": false,
      "t": 219627.87050000046,
      "d": 140.28995833333465,
      "v": 79
    },
    {
      "midi": 62,
      "hit": false,
      "t": 219627.87050000046,
      "d": 143.44254166667815,
      "v": 85
    },
    {
      "midi": 62,
      "hit": false,
      "t": 220182.72516666714,
      "d": 113.49300000001676,
      "v": 94
    },
    {
      "midi": 65,
      "hit": false,
      "t": 220185.87775000048,
      "d": 105.61154166667257,
      "v": 96
    },
    {
      "midi": 65,
      "hit": false,
      "t": 220564.18775000048,
      "d": 81.96716666666907,
      "v": 95
    },
    {
      "midi": 62,
      "hit": false,
      "t": 220564.18775000048,
      "d": 88.27233333332697,
      "v": 91
    },
    {
      "midi": 67,
      "hit": false,
      "t": 220934.61629166713,
      "d": 297.9191249999567,
      "v": 92
    },
    {
      "midi": 62,
      "hit": false,
      "t": 220936.1925833338,
      "d": 241.17262499997742,
      "v": 95
    },
    {
      "midi": 52,
      "hit": false,
      "t": 220936.1925833338,
      "d": 2618.220458333235,
      "v": 92
    },
    {
      "midi": 55,
      "hit": false,
      "t": 221694.3888750004,
      "d": 1819.0405833332916,
      "v": 94
    },
    {
      "midi": 74,
      "hit": false,
      "t": 221870.93354166707,
      "d": 66.20425000000978,
      "v": 101
    },
    {
      "midi": 62,
      "hit": false,
      "t": 221870.93354166707,
      "d": 67.78054166666698,
      "v": 89
    },
    {
      "midi": 71,
      "hit": false,
      "t": 222433.66966666706,
      "d": 61.47537499997998,
      "v": 100
    },
    {
      "midi": 59,
      "hit": false,
      "t": 222435.24595833372,
      "d": 58.32279166666558,
      "v": 101
    },
    {
      "midi": 60,
      "hit": false,
      "t": 223018.47387500037,
      "d": 63.05166666666628,
      "v": 104
    },
    {
      "midi": 72,
      "hit": false,
      "t": 223021.62645833372,
      "d": 69.35683333332418,
      "v": 106
    },
    {
      "midi": 56,
      "hit": false,
      "t": 223950.06225000037,
      "d": 2247.7919166666397,
      "v": 79
    },
    {
      "midi": 65,
      "hit": false,
      "t": 223954.79112500037,
      "d": 1372.950041666656,
      "v": 85
    },
    {
      "midi": 77,
      "hit": false,
      "t": 223959.52000000037,
      "d": 1328.8138749999925,
      "v": 92
    },
    {
      "midi": 64,
      "hit": false,
      "t": 225466.4548333337,
      "d": 619.4826249999751,
      "v": 64
    },
    {
      "midi": 76,
      "hit": false,
      "t": 225468.03112500036,
      "d": 539.0917499999923,
      "v": 83
    },
    {
      "midi": 68,
      "hit": false,
      "t": 226219.92225000035,
      "d": 647.8558749999502,
      "v": 79
    },
    {
      "midi": 62,
      "hit": false,
      "t": 226226.227416667,
      "d": 639.9744166666351,
      "v": 66
    },
    {
      "midi": 74,
      "hit": false,
      "t": 226227.80370833367,
      "d": 628.9403749999765,
      "v": 72
    },
    {
      "midi": 59,
      "hit": false,
      "t": 226229.38000000032,
      "d": 688.8394583332993,
      "v": 61
    },
    {
      "midi": 57,
      "hit": false,
      "t": 226979.69483333363,
      "d": 1481.714166666643,
      "v": 78
    },
    {
      "midi": 64,
      "hit": false,
      "t": 226981.2711250003,
      "d": 4185.054375000036,
      "v": 77
    },
    {
      "midi": 69,
      "hit": false,
      "t": 226982.84741666695,
      "d": 1491.1719166666735,
      "v": 89
    },
    {
      "midi": 72,
      "hit": false,
      "t": 226982.84741666695,
      "d": 1521.121458333364,
      "v": 90
    },
    {
      "midi": 55,
      "hit": false,
      "t": 228481.90079166697,
      "d": 1495.9007916666742,
      "v": 75
    },
    {
      "midi": 71,
      "hit": false,
      "t": 228486.62966666697,
      "d": 1557.3761666666833,
      "v": 76
    },
    {
      "midi": 54,
      "hit": false,
      "t": 229995.14079166699,
      "d": 1555.799874999997,
      "v": 76
    },
    {
      "midi": 69,
      "hit": false,
      "t": 229995.14079166699,
      "d": 2682.848416666675,
      "v": 79
    },
    {
      "midi": 63,
      "hit": false,
      "t": 231525.72000000032,
      "d": 1516.3925833333342,
      "v": 72
    },
    {
      "midi": 59,
      "hit": false,
      "t": 231525.72000000032,
      "d": 1524.2740416666784,
      "v": 41
    },
    {
      "midi": 71,
      "hit": false,
      "t": 232659.07370833366,
      "d": 381.4625833333412,
      "v": 80
    },
    {
      "midi": 52,
      "hit": false,
      "t": 233034.23112500034,
      "d": 226.98600000000442,
      "v": 73
    },
    {
      "midi": 62,
      "hit": false,
      "t": 233038.96000000034,
      "d": 212.79937500000233,
      "v": 77
    },
    {
      "midi": 67,
      "hit": false,
      "t": 233046.84145833366,
      "d": 231.71487500003423,
      "v": 78
    },
    {
      "midi": 60,
      "hit": false,
      "t": 233782.96966666702,
      "d": 74.08570833332487,
      "v": 104
    },
    {
      "midi": 71,
      "hit": false,
      "t": 234741.35500000036,
      "d": 272.6984583333542,
      "v": 77
    },
    {
      "midi": 72,
      "hit": false,
      "t": 234991.98537500037,
      "d": 312.105750000017,
      "v": 88
    },
    {
      "midi": 79,
      "hit": false,
      "t": 235282.02304166704,
      "d": 316.8346250000177,
      "v": 101
    },
    {
      "midi": 71,
      "hit": false,
      "t": 235556.29779166705,
      "d": 247.47779166666442,
      "v": 89
    },
    {
      "midi": 72,
      "hit": false,
      "t": 235817.96220833372,
      "d": 310.5294583333307,
      "v": 86
    },
    {
      "midi": 74,
      "hit": false,
      "t": 236092.23695833373,
      "d": 349.9367499999935,
      "v": 95
    },
    {
      "midi": 55,
      "hit": false,
      "t": 236388.57979166706,
      "d": 345.2078749999928,
      "v": 64
    },
    {
      "midi": 76,
      "hit": false,
      "t": 236437.44483333372,
      "d": 354.6656249999942,
      "v": 86
    },
    {
      "midi": 62,
      "hit": false,
      "t": 236784.22900000037,
      "d": 401.95437500000116,
      "v": 55
    },
    {
      "midi": 60,
      "hit": false,
      "t": 237208.25145833372,
      "d": 537.5154583333351,
      "v": 59
    },
    {
      "midi": 60,
      "hit": false,
      "t": 237875.02283333373,
      "d": 805.4850416666595,
      "v": 54
    },
    {
      "midi": 67,
      "hit": false,
      "t": 238713.6100000004,
      "d": 200.18904166668653,
      "v": 68
    },
    {
      "midi": 65,
      "hit": false,
      "t": 238809.76379166706,
      "d": 162.35804166668095,
      "v": 69
    },
    {
      "midi": 63,
      "hit": false,
      "t": 238904.34129166708,
      "d": 156.05287500002305,
      "v": 75
    },
    {
      "midi": 60,
      "hit": false,
      "t": 238998.9187916671,
      "d": 685.686875000014,
      "v": 84
    },
    {
      "midi": 44,
      "hit": false,
      "t": 239091.92000000045,
      "d": 698.2972083333298,
      "v": 74
    },
    {
      "midi": 51,
      "hit": false,
      "t": 239451.31450000044,
      "d": 367.2759583333391,
      "v": 75
    },
    {
      "midi": 58,
      "hit": false,
      "t": 239853.26887500045,
      "d": 52.01762500000768,
      "v": 66
    },
    {
      "midi": 58,
      "hit": false,
      "t": 240215.81595833378,
      "d": 64.62795833332348,
      "v": 119
    },
    {
      "midi": 60,
      "hit": false,
      "t": 240412.8524166671,
      "d": 110.34041666667326,
      "v": 107
    },
    {
      "midi": 67,
      "hit": false,
      "t": 240778.55208333378,
      "d": 74.08570833332487,
      "v": 108
    },
    {
      "midi": 72,
      "hit": false,
      "t": 241164.7435416671,
      "d": 47.288750000006985,
      "v": 111
    },
    {
      "midi": 58,
      "hit": false,
      "t": 241763.73437500044,
      "d": 299.4954166666721,
      "v": 86
    },
    {
      "midi": 64,
      "hit": false,
      "t": 242108.94225000043,
      "d": 365.6996666666528,
      "v": 74
    },
    {
      "midi": 59,
      "hit": false,
      "t": 242487.25225000043,
      "d": 25.22066666666069,
      "v": 91
    },
    {
      "midi": 60,
      "hit": false,
      "t": 242677.98354166708,
      "d": 20.491791666659992,
      "v": 109
    },
    {
      "midi": 64,
      "hit": false,
      "t": 243054.71725000042,
      "d": 17.339208333345596,
      "v": 82
    },
    {
      "midi": 60,
      "hit": false,
      "t": 243054.71725000042,
      "d": 20.491791666689096,
      "v": 90
    },
    {
      "midi": 67,
      "hit": false,
      "t": 243057.86983333377,
      "d": 23.644375000003492,
      "v": 93
    },
    {
      "midi": 62,
      "hit": false,
      "t": 243428.29837500045,
      "d": 395.64920833334327,
      "v": 81
    },
    {
      "midi": 67,
      "hit": false,
      "t": 243431.4509583338,
      "d": 390.92033333334257,
      "v": 86
    },
    {
      "midi": 71,
      "hit": false,
      "t": 243439.33241666714,
      "d": 397.22550000000047,
      "v": 82
    },
    {
      "midi": 69,
      "hit": false,
      "t": 243812.91354166713,
      "d": 181.27354166668374,
      "v": 97
    },
    {
      "midi": 67,
      "hit": false,
      "t": 243998.91595833382,
      "d": 36.25470833334839,
      "v": 88
    },
    {
      "midi": 60,
      "hit": false,
      "t": 244002.06854166716,
      "d": 29.94954166666139,
      "v": 79
    },
    {
      "midi": 64,
      "hit": false,
      "t": 244003.64483333382,
      "d": 31.52583333334769,
      "v": 95
    },
    {
      "midi": 64,
      "hit": false,
      "t": 244186.49466666716,
      "d": 192.30758333334234,
      "v": 106
    },
    {
      "midi": 67,
      "hit": false,
      "t": 244188.07095833382,
      "d": 195.46016666668584,
      "v": 65
    },
    {
      "midi": 60,
      "hit": false,
      "t": 244191.22354166716,
      "d": 189.15499999999884,
      "v": 92
    },
    {
      "midi": 60,
      "hit": false,
      "t": 244577.4150000005,
      "d": 548.5494999999646,
      "v": 108
    },
    {
      "midi": 62,
      "hit": false,
      "t": 244947.84354166716,
      "d": 111.91670833333046,
      "v": 63
    },
    {
      "midi": 65,
      "hit": false,
      "t": 244949.4198333338,
      "d": 111.91670833333046,
      "v": 65
    },
    {
      "midi": 67,
      "hit": false,
      "t": 245505.85079166712,
      "d": 33.10212500000489,
      "v": 54
    },
    {
      "midi": 62,
      "hit": false,
      "t": 245507.42708333378,
      "d": 56.74650000000838,
      "v": 64
    },
    {
      "midi": 62,
      "hit": false,
      "t": 245696.58208333378,
      "d": 45.71245833332068,
      "v": 65
    },
    {
      "midi": 67,
      "hit": false,
      "t": 245698.15837500044,
      "d": 56.74650000000838,
      "v": 59
    },
    {
      "midi": 58,
      "hit": false,
      "t": 246074.89208333378,
      "d": 20.491791666659992,
      "v": 92
    },
    {
      "midi": 65,
      "hit": false,
      "t": 246844.12241666712,
      "d": 93.00120833332767,
      "v": 72
    },
    {
      "midi": 70,
      "hit": false,
      "t": 246845.69870833377,
      "d": 107.18783333332976,
      "v": 71
    },
    {
      "midi": 74,
      "hit": false,
      "t": 247217.7035416671,
      "d": 86.69604166666977,
      "v": 88
    },
    {
      "midi": 70,
      "hit": false,
      "t": 247220.85612500046,
      "d": 83.54345833332627,
      "v": 83
    },
    {
      "midi": 74,
      "hit": false,
      "t": 247600.7424166671,
      "d": 50.44133333332138,
      "v": 99
    },
    {
      "midi": 77,
      "hit": false,
      "t": 247600.7424166671,
      "d": 56.74649999997928,
      "v": 96
    },
    {
      "midi": 57,
      "hit": false,
      "t": 248031.0700416671,
      "d": 174.96837499999674,
      "v": 43
    },
    {
      "midi": 72,
      "hit": false,
      "t": 248073.6299166671,
      "d": 124.52704166667536,
      "v": 42
    },
    {
      "midi": 67,
      "hit": false,
      "t": 248116.1897916671,
      "d": 168.66320833330974,
      "v": 42
    },
    {
      "midi": 76,
      "hit": false,
      "t": 248199.73325000043,
      "d": 110.34041666664416,
      "v": 55
    },
    {
      "midi": 57,
      "hit": false,
      "t": 248269.09008333375,
      "d": 1322.5087083332764,
      "v": 67
    },
    {
      "midi": 72,
      "hit": false,
      "t": 248305.34479166707,
      "d": 111.91670833333046,
      "v": 86
    },
    {
      "midi": 67,
      "hit": false,
      "t": 248355.7861250004,
      "d": 154.47658333333675,
      "v": 50
    },
    {
      "midi": 76,
      "hit": false,
      "t": 248390.46454166705,
      "d": 115.06929166667396,
      "v": 87
    },
    {
      "midi": 72,
      "hit": false,
      "t": 248486.61833333372,
      "d": 107.18783333332976,
      "v": 87
    },
    {
      "midi": 76,
      "hit": false,
      "t": 248578.0432500004,
      "d": 111.91670833330136,
      "v": 96
    },
    {
      "midi": 67,
      "hit": false,
      "t": 248582.7721250004,
      "d": 145.01883333330625,
      "v": 58
    },
    {
      "midi": 72,
      "hit": false,
      "t": 248653.70525000038,
      "d": 107.18783333332976,
      "v": 83
    },
    {
      "midi": 76,
      "hit": false,
      "t": 248715.18062500036,
      "d": 143.44254166667815,
      "v": 58
    },
    {
      "midi": 67,
      "hit": false,
      "t": 248767.19825000037,
      "d": 359.3944999999949,
      "v": 49
    },
    {
      "midi": 72,
      "hit": false,
      "t": 248819.21587500037,
      "d": 100.88266666664276,
      "v": 73
    },
    {
      "midi": 76,
      "hit": false,
      "t": 248918.52225000036,
      "d": 477.61637500001234,
      "v": 76
    },
    {
      "midi": 72,
      "hit": false,
      "t": 249177.03408333368,
      "d": 342.0552916666784,
      "v": 111
    },
    {
      "midi": 67,
      "hit": false,
      "t": 249306.29000000036,
      "d": 176.54466666668304,
      "v": 82
    },
    {
      "midi": 62,
      "hit": false,
      "t": 249824.88995833372,
      "d": 204.91791666665813,
      "v": 68
    },
    {
      "midi": 64,
      "hit": false,
      "t": 250039.26562500038,
      "d": 244.32520833335002,
      "v": 83
    },
    {
      "midi": 67,
      "hit": false,
      "t": 250231.57320833372,
      "d": 149.74770833333605,
      "v": 91
    },
    {
      "midi": 76,
      "hit": false,
      "t": 250419.15191666706,
      "d": 75.66200000001118,
      "v": 90
    },
    {
      "midi": 67,
      "hit": false,
      "t": 251330.2485000004,
      "d": 220.68083333331742,
      "v": 64
    },
    {
      "midi": 69,
      "hit": false,
      "t": 251457.92812500038,
      "d": 178.12095833334024,
      "v": 79
    },
    {
      "midi": 72,
      "hit": false,
      "t": 251604.52325000038,
      "d": 126.10333333336166,
      "v": 75
    },
    {
      "midi": 69,
      "hit": false,
      "t": 251758.99983333374,
      "d": 149.74770833333605,
      "v": 78
    },
    {
      "midi": 70,
      "hit": false,
      "t": 251875.64541666707,
      "d": 178.12095833334024,
      "v": 78
    },
    {
      "midi": 74,
      "hit": false,
      "t": 252036.42716666707,
      "d": 162.35804166668095,
      "v": 79
    },
    {
      "midi": 77,
      "hit": false,
      "t": 252179.86970833375,
      "d": 189.15499999999884,
      "v": 92
    },
    {
      "midi": 76,
      "hit": false,
      "t": 252331.19370833374,
      "d": 113.49300000001676,
      "v": 93
    },
    {
      "midi": 79,
      "hit": false,
      "t": 252454.14445833376,
      "d": 179.69725000002654,
      "v": 73
    },
    {
      "midi": 76,
      "hit": false,
      "t": 252602.31587500044,
      "d": 245.90150000000722,
      "v": 78
    },
    {
      "midi": 77,
      "hit": false,
      "t": 252769.40279166712,
      "d": 170.23949999999604,
      "v": 55
    },
    {
      "midi": 79,
      "hit": false,
      "t": 252897.0824166671,
      "d": 107.18783333332976,
      "v": 82
    },
    {
      "midi": 84,
      "hit": false,
      "t": 253040.52495833376,
      "d": 118.22187499998836,
      "v": 104
    },
    {
      "midi": 81,
      "hit": false,
      "t": 253176.0860416671,
      "d": 127.67962499998976,
      "v": 103
    },
    {
      "midi": 82,
      "hit": false,
      "t": 253310.07083333374,
      "d": 124.52704166667536,
      "v": 89
    },
    {
      "midi": 84,
      "hit": false,
      "t": 253474.00516666708,
      "d": 145.01883333333535,
      "v": 82
    },
    {
      "midi": 86,
      "hit": false,
      "t": 253622.17658333376,
      "d": 187.57870833334164,
      "v": 70
    },
    {
      "midi": 88,
      "hit": false,
      "t": 253776.6531666671,
      "d": 170.23949999999604,
      "v": 87
    },
    {
      "midi": 89,
      "hit": false,
      "t": 253923.24829166709,
      "d": 337.3264166666777,
      "v": 95
    },
    {
      "midi": 91,
      "hit": false,
      "t": 254251.11695833376,
      "d": 100.88266666667187,
      "v": 94
    }
  ]
}