{
  "jsonPath": "Pop/Classic Italian Pop/Fabio Concato/il-caffettino-caldo.json",
  "path": "Pop\\Classic Italian Pop\\Fabio Concato\\Il Caffettino Caldo.mid",
  "name": "Il Caffettino Caldo",
  "difficulty": "Advanced",
  "bpm": 136.0001450668214,
  "notes": [
    {
      "midi": 40,
      "hit": false,
      "t": 72352.864,
      "d": 1539.5204166666663,
      "v": 112
    },
    {
      "midi": 36,
      "hit": false,
      "t": 73896.98,
      "d": 1946.2295416666602,
      "v": 112
    },
    {
      "midi": 38,
      "hit": false,
      "t": 75882.27199999998,
      "d": 1539.5204166666663,
      "v": 113
    },
    {
      "midi": 33,
      "hit": false,
      "t": 77426.38799999998,
      "d": 1980.696416666673,
      "v": 112
    },
    {
      "midi": 40,
      "hit": false,
      "t": 79411.67999999998,
      "d": 1539.5204166666663,
      "v": 112
    },
    {
      "midi": 36,
      "hit": false,
      "t": 80955.79599999997,
      "d": 1946.2295416666602,
      "v": 112
    },
    {
      "midi": 38,
      "hit": false,
      "t": 82941.08799999996,
      "d": 1539.5204166666663,
      "v": 113
    },
    {
      "midi": 33,
      "hit": false,
      "t": 84485.20399999995,
      "d": 1980.696416666673,
      "v": 112
    },
    {
      "midi": 40,
      "hit": false,
      "t": 86470.49599999996,
      "d": 1539.5204166666663,
      "v": 112
    },
    {
      "midi": 36,
      "hit": false,
      "t": 88014.61199999995,
      "d": 1946.2295416666602,
      "v": 112
    },
    {
      "midi": 38,
      "hit": false,
      "t": 89999.90399999994,
      "d": 1539.5204166666663,
      "v": 113
    },
    {
      "midi": 33,
      "hit": false,
      "t": 91544.01999999993,
      "d": 1980.696416666673,
      "v": 112
    },
    {
      "midi": 40,
      "hit": false,
      "t": 93529.31199999993,
      "d": 1539.5204166666663,
      "v": 112
    },
    {
      "midi": 36,
      "hit": false,
      "t": 95073.42799999993,
      "d": 1946.2295416666602,
      "v": 112
    },
    {
      "midi": 38,
      "hit": false,
      "t": 97058.71999999991,
      "d": 1539.5204166666663,
      "v": 113
    },
    {
      "midi": 33,
      "hit": false,
      "t": 98602.83599999991,
      "d": 1980.696416666673,
      "v": 112
    },
    {
      "midi": 40,
      "hit": false,
      "t": 100588.12799999991,
      "d": 1539.5204166666663,
      "v": 112
    },
    {
      "midi": 71,
      "hit": false,
      "t": 100588.12799999991,
      "d": 3524.812416666653,
      "v": 125
    },
    {
      "midi": 36,
      "hit": false,
      "t": 102132.2439999999,
      "d": 1946.2295416666602,
      "v": 112
    },
    {
      "midi": 38,
      "hit": false,
      "t": 104117.53599999989,
      "d": 1539.5204166666663,
      "v": 113
    },
    {
      "midi": 72,
      "hit": false,
      "t": 104117.53599999989,
      "d": 3524.8124166666676,
      "v": 122
    },
    {
      "midi": 33,
      "hit": false,
      "t": 105661.65199999989,
      "d": 1980.696416666673,
      "v": 111
    },
    {
      "midi": 40,
      "hit": false,
      "t": 107646.94399999989,
      "d": 1539.5204166666663,
      "v": 112
    },
    {
      "midi": 74,
      "hit": false,
      "t": 107646.94399999989,
      "d": 3524.812416666653,
      "v": 119
    },
    {
      "midi": 36,
      "hit": false,
      "t": 109191.05999999988,
      "d": 1946.2295416666602,
      "v": 112
    },
    {
      "midi": 38,
      "hit": false,
      "t": 111176.35199999987,
      "d": 1539.5204166666663,
      "v": 113
    },
    {
      "midi": 76,
      "hit": false,
      "t": 111176.35199999987,
      "d": 3524.8124166666676,
      "v": 127
    },
    {
      "midi": 33,
      "hit": false,
      "t": 112720.46799999986,
      "d": 1980.696416666673,
      "v": 113
    },
    {
      "midi": 55,
      "hit": false,
      "t": 114705.75999999986,
      "d": 1332.7191666666622,
      "v": 94
    },
    {
      "midi": 59,
      "hit": false,
      "t": 114705.75999999986,
      "d": 1397.0573333333305,
      "v": 90
    },
    {
      "midi": 62,
      "hit": false,
      "t": 114705.75999999986,
      "d": 1408.5462916666584,
      "v": 90
    },
    {
      "midi": 43,
      "hit": false,
      "t": 114705.75999999986,
      "d": 1534.9248333333235,
      "v": 94
    },
    {
      "midi": 59,
      "hit": false,
      "t": 116249.87599999986,
      "d": 1670.4945416666596,
      "v": 78
    },
    {
      "midi": 54,
      "hit": false,
      "t": 116249.87599999986,
      "d": 1693.47245833333,
      "v": 82
    },
    {
      "midi": 62,
      "hit": false,
      "t": 116249.87599999986,
      "d": 1755.5128333333269,
      "v": 82
    },
    {
      "midi": 35,
      "hit": false,
      "t": 116249.87599999986,
      "d": 1902.571499999991,
      "v": 94
    },
    {
      "midi": 36,
      "hit": false,
      "t": 118235.16799999985,
      "d": 1539.5204166666663,
      "v": 94
    },
    {
      "midi": 59,
      "hit": false,
      "t": 118235.16799999985,
      "d": 1539.5204166666663,
      "v": 98
    },
    {
      "midi": 64,
      "hit": false,
      "t": 118235.16799999985,
      "d": 1539.5204166666663,
      "v": 90
    },
    {
      "midi": 55,
      "hit": false,
      "t": 119779.28399999984,
      "d": 22.977916666670353,
      "v": 86
    },
    {
      "midi": 31,
      "hit": false,
      "t": 119779.28399999984,
      "d": 1980.696416666673,
      "v": 94
    },
    {
      "midi": 59,
      "hit": false,
      "t": 119779.28399999984,
      "d": 1980.696416666673,
      "v": 86
    },
    {
      "midi": 62,
      "hit": false,
      "t": 119779.28399999984,
      "d": 1980.696416666673,
      "v": 82
    },
    {
      "midi": 52,
      "hit": false,
      "t": 121764.57599999984,
      "d": 1443.0131666666712,
      "v": 90
    },
    {
      "midi": 59,
      "hit": false,
      "t": 121764.57599999984,
      "d": 1468.2888749999984,
      "v": 90
    },
    {
      "midi": 55,
      "hit": false,
      "t": 121764.57599999984,
      "d": 1493.5645833333256,
      "v": 94
    },
    {
      "midi": 40,
      "hit": false,
      "t": 121764.57599999984,
      "d": 1516.542499999996,
      "v": 94
    },
    {
      "midi": 50,
      "hit": false,
      "t": 123308.69199999984,
      "d": 1686.5790833333303,
      "v": 78
    },
    {
      "midi": 54,
      "hit": false,
      "t": 123308.69199999984,
      "d": 1691.1746666666586,
      "v": 86
    },
    {
      "midi": 59,
      "hit": false,
      "t": 123308.69199999984,
      "d": 1709.5569999999861,
      "v": 90
    },
    {
      "midi": 35,
      "hit": false,
      "t": 123308.69199999984,
      "d": 1746.3216666666558,
      "v": 66
    },
    {
      "midi": 52,
      "hit": false,
      "t": 125293.98399999982,
      "d": 1456.7999166666705,
      "v": 90
    },
    {
      "midi": 59,
      "hit": false,
      "t": 125293.98399999982,
      "d": 1470.5866666666698,
      "v": 86
    },
    {
      "midi": 55,
      "hit": false,
      "t": 125293.98399999982,
      "d": 1479.7778333333408,
      "v": 86
    },
    {
      "midi": 36,
      "hit": false,
      "t": 125293.98399999982,
      "d": 1500.4579583333398,
      "v": 70
    },
    {
      "midi": 38,
      "hit": false,
      "t": 126838.09999999983,
      "d": 1318.932416666663,
      "v": 90
    },
    {
      "midi": 50,
      "hit": false,
      "t": 126838.09999999983,
      "d": 1318.932416666663,
      "v": 78
    },
    {
      "midi": 55,
      "hit": false,
      "t": 126838.09999999983,
      "d": 1318.932416666663,
      "v": 86
    },
    {
      "midi": 60,
      "hit": false,
      "t": 126838.09999999983,
      "d": 1318.932416666663,
      "v": 78
    },
    {
      "midi": 50,
      "hit": false,
      "t": 128823.39199999983,
      "d": 1486.6712083333405,
      "v": 90
    },
    {
      "midi": 59,
      "hit": false,
      "t": 128823.39199999983,
      "d": 1502.7557500000112,
      "v": 94
    },
    {
      "midi": 55,
      "hit": false,
      "t": 128823.39199999983,
      "d": 1551.0093750000087,
      "v": 90
    },
    {
      "midi": 43,
      "hit": false,
      "t": 128823.39199999983,
      "d": 1557.9027500000084,
      "v": 86
    },
    {
      "midi": 54,
      "hit": false,
      "t": 130367.50799999984,
      "d": 1704.9614166666724,
      "v": 82
    },
    {
      "midi": 50,
      "hit": false,
      "t": 130367.50799999984,
      "d": 1709.5570000000153,
      "v": 74
    },
    {
      "midi": 59,
      "hit": false,
      "t": 130367.50799999984,
      "d": 1723.3437500000146,
      "v": 90
    },
    {
      "midi": 35,
      "hit": false,
      "t": 130367.50799999984,
      "d": 1732.534916666671,
      "v": 74
    },
    {
      "midi": 55,
      "hit": false,
      "t": 132352.79999999984,
      "d": 1394.759541666659,
      "v": 86
    },
    {
      "midi": 59,
      "hit": false,
      "t": 132352.79999999984,
      "d": 1413.1418750000012,
      "v": 82
    },
    {
      "midi": 36,
      "hit": false,
      "t": 132352.79999999984,
      "d": 1465.991083333327,
      "v": 82
    },
    {
      "midi": 52,
      "hit": false,
      "t": 132352.79999999984,
      "d": 1472.8844583333412,
      "v": 86
    },
    {
      "midi": 35,
      "hit": false,
      "t": 133896.91599999985,
      "d": 1895.6781250000058,
      "v": 86
    },
    {
      "midi": 51,
      "hit": false,
      "t": 133896.91599999985,
      "d": 1895.6781250000058,
      "v": 90
    },
    {
      "midi": 54,
      "hit": false,
      "t": 133896.91599999985,
      "d": 1900.2737083333486,
      "v": 78
    },
    {
      "midi": 57,
      "hit": false,
      "t": 133896.91599999985,
      "d": 1907.1670833333628,
      "v": 90
    },
    {
      "midi": 52,
      "hit": false,
      "t": 135882.20799999987,
      "d": 1452.2043333333277,
      "v": 90
    },
    {
      "midi": 59,
      "hit": false,
      "t": 135882.20799999987,
      "d": 1461.3954999999842,
      "v": 94
    },
    {
      "midi": 55,
      "hit": false,
      "t": 135882.20799999987,
      "d": 1518.8402916666528,
      "v": 94
    },
    {
      "midi": 40,
      "hit": false,
      "t": 135882.20799999987,
      "d": 1557.9027499999793,
      "v": 94
    },
    {
      "midi": 50,
      "hit": false,
      "t": 137426.32399999985,
      "d": 1704.961416666658,
      "v": 82
    },
    {
      "midi": 54,
      "hit": false,
      "t": 137426.32399999985,
      "d": 1716.4503749999858,
      "v": 86
    },
    {
      "midi": 35,
      "hit": false,
      "t": 137426.32399999985,
      "d": 1721.0459583333286,
      "v": 70
    },
    {
      "midi": 59,
      "hit": false,
      "t": 137426.32399999985,
      "d": 1730.237124999985,
      "v": 82
    },
    {
      "midi": 55,
      "hit": false,
      "t": 139411.61599999983,
      "d": 1307.4434583333205,
      "v": 86
    },
    {
      "midi": 59,
      "hit": false,
      "t": 139411.61599999983,
      "d": 1328.123583333334,
      "v": 94
    },
    {
      "midi": 52,
      "hit": false,
      "t": 139411.61599999983,
      "d": 1399.3551250000019,
      "v": 90
    },
    {
      "midi": 36,
      "hit": false,
      "t": 139411.61599999983,
      "d": 1443.0131666666712,
      "v": 74
    },
    {
      "midi": 38,
      "hit": false,
      "t": 140955.73199999984,
      "d": 1953.1229166666744,
      "v": 90
    },
    {
      "midi": 50,
      "hit": false,
      "t": 140955.73199999984,
      "d": 1957.7185000000172,
      "v": 78
    },
    {
      "midi": 55,
      "hit": false,
      "t": 140955.73199999984,
      "d": 1960.0162916666886,
      "v": 78
    },
    {
      "midi": 60,
      "hit": false,
      "t": 140955.73199999984,
      "d": 1962.31408333336,
      "v": 74
    },
    {
      "midi": 57,
      "hit": false,
      "t": 140955.73199999984,
      "d": 1964.6118750000314,
      "v": 82
    },
    {
      "midi": 40,
      "hit": false,
      "t": 157058.65599999987,
      "d": 1539.5204166666663,
      "v": 112
    },
    {
      "midi": 36,
      "hit": false,
      "t": 158602.77199999988,
      "d": 1946.2295416666602,
      "v": 112
    },
    {
      "midi": 38,
      "hit": false,
      "t": 160588.06399999987,
      "d": 1539.5204166666663,
      "v": 113
    },
    {
      "midi": 33,
      "hit": false,
      "t": 162132.17999999988,
      "d": 1980.696416666673,
      "v": 112
    },
    {
      "midi": 40,
      "hit": false,
      "t": 164117.4719999999,
      "d": 1539.5204166666663,
      "v": 112
    },
    {
      "midi": 36,
      "hit": false,
      "t": 165661.5879999999,
      "d": 1946.2295416666602,
      "v": 112
    },
    {
      "midi": 38,
      "hit": false,
      "t": 167646.8799999999,
      "d": 1539.5204166666663,
      "v": 113
    },
    {
      "midi": 33,
      "hit": false,
      "t": 169190.9959999999,
      "d": 1980.696416666673,
      "v": 112
    },
    {
      "midi": 40,
      "hit": false,
      "t": 171176.2879999999,
      "d": 1539.5204166666663,
      "v": 112
    },
    {
      "midi": 36,
      "hit": false,
      "t": 172720.40399999992,
      "d": 1946.2295416666602,
      "v": 112
    },
    {
      "midi": 38,
      "hit": false,
      "t": 174705.6959999999,
      "d": 1539.5204166666663,
      "v": 113
    },
    {
      "midi": 33,
      "hit": false,
      "t": 176249.81199999992,
      "d": 1980.696416666673,
      "v": 112
    },
    {
      "midi": 40,
      "hit": false,
      "t": 178235.10399999993,
      "d": 1539.5204166666663,
      "v": 112
    },
    {
      "midi": 36,
      "hit": false,
      "t": 179779.21999999994,
      "d": 1946.2295416666602,
      "v": 112
    },
    {
      "midi": 38,
      "hit": false,
      "t": 181764.51199999993,
      "d": 1539.5204166666663,
      "v": 113
    },
    {
      "midi": 33,
      "hit": false,
      "t": 183308.62799999994,
      "d": 1980.696416666673,
      "v": 112
    },
    {
      "midi": 40,
      "hit": false,
      "t": 185293.91999999995,
      "d": 1539.5204166666663,
      "v": 112
    },
    {
      "midi": 71,
      "hit": false,
      "t": 185293.91999999995,
      "d": 3524.812416666682,
      "v": 125
    },
    {
      "midi": 36,
      "hit": false,
      "t": 186838.03599999996,
      "d": 1946.2295416666602,
      "v": 112
    },
    {
      "midi": 38,
      "hit": false,
      "t": 188823.32799999998,
      "d": 1539.5204166666663,
      "v": 113
    },
    {
      "midi": 72,
      "hit": false,
      "t": 188823.32799999998,
      "d": 3524.812416666682,
      "v": 122
    },
    {
      "midi": 33,
      "hit": false,
      "t": 190367.444,
      "d": 1980.696416666673,
      "v": 111
    },
    {
      "midi": 40,
      "hit": false,
      "t": 192352.736,
      "d": 1539.5204166666663,
      "v": 112
    },
    {
      "midi": 74,
      "hit": false,
      "t": 192352.736,
      "d": 3524.812416666682,
      "v": 119
    },
    {
      "midi": 36,
      "hit": false,
      "t": 193896.852,
      "d": 1946.2295416666602,
      "v": 112
    },
    {
      "midi": 38,
      "hit": false,
      "t": 195882.14400000003,
      "d": 1539.5204166666663,
      "v": 113
    },
    {
      "midi": 76,
      "hit": false,
      "t": 195882.14400000003,
      "d": 3524.812416666682,
      "v": 127
    },
    {
      "midi": 33,
      "hit": false,
      "t": 197426.26000000004,
      "d": 1980.696416666673,
      "v": 113
    },
    {
      "midi": 55,
      "hit": false,
      "t": 199411.55200000005,
      "d": 1332.7191666666768,
      "v": 94
    },
    {
      "midi": 59,
      "hit": false,
      "t": 199411.55200000005,
      "d": 1397.0573333333305,
      "v": 90
    },
    {
      "midi": 62,
      "hit": false,
      "t": 199411.55200000005,
      "d": 1408.5462916666584,
      "v": 90
    },
    {
      "midi": 43,
      "hit": false,
      "t": 199411.55200000005,
      "d": 1534.9248333333235,
      "v": 94
    },
    {
      "midi": 59,
      "hit": false,
      "t": 200955.66800000003,
      "d": 1670.4945416666742,
      "v": 78
    },
    {
      "midi": 54,
      "hit": false,
      "t": 200955.66800000003,
      "d": 1693.47245833333,
      "v": 82
    },
    {
      "midi": 62,
      "hit": false,
      "t": 200955.66800000003,
      "d": 1755.5128333333414,
      "v": 82
    },
    {
      "midi": 35,
      "hit": false,
      "t": 200955.66800000003,
      "d": 1902.57150000002,
      "v": 94
    },
    {
      "midi": 36,
      "hit": false,
      "t": 202940.96000000005,
      "d": 1539.5204166666663,
      "v": 94
    },
    {
      "midi": 59,
      "hit": false,
      "t": 202940.96000000005,
      "d": 1539.5204166666663,
      "v": 98
    },
    {
      "midi": 64,
      "hit": false,
      "t": 202940.96000000005,
      "d": 1539.5204166666663,
      "v": 90
    },
    {
      "midi": 55,
      "hit": false,
      "t": 204485.07600000006,
      "d": 22.9779166666558,
      "v": 86
    },
    {
      "midi": 31,
      "hit": false,
      "t": 204485.07600000006,
      "d": 1980.696416666644,
      "v": 94
    },
    {
      "midi": 59,
      "hit": false,
      "t": 204485.07600000006,
      "d": 1980.696416666644,
      "v": 86
    },
    {
      "midi": 62,
      "hit": false,
      "t": 204485.07600000006,
      "d": 1980.696416666644,
      "v": 82
    },
    {
      "midi": 52,
      "hit": false,
      "t": 206470.36800000005,
      "d": 1443.0131666666712,
      "v": 90
    },
    {
      "midi": 59,
      "hit": false,
      "t": 206470.36800000005,
      "d": 1468.2888749999984,
      "v": 90
    },
    {
      "midi": 55,
      "hit": false,
      "t": 206470.36800000005,
      "d": 1493.5645833333256,
      "v": 94
    },
    {
      "midi": 40,
      "hit": false,
      "t": 206470.36800000005,
      "d": 1516.5424999999814,
      "v": 94
    },
    {
      "midi": 50,
      "hit": false,
      "t": 208014.48400000003,
      "d": 1686.579083333345,
      "v": 78
    },
    {
      "midi": 54,
      "hit": false,
      "t": 208014.48400000003,
      "d": 1691.1746666666877,
      "v": 86
    },
    {
      "midi": 59,
      "hit": false,
      "t": 208014.48400000003,
      "d": 1709.5570000000298,
      "v": 90
    },
    {
      "midi": 35,
      "hit": false,
      "t": 208014.48400000003,
      "d": 1746.321666666685,
      "v": 66
    },
    {
      "midi": 52,
      "hit": false,
      "t": 209999.77600000004,
      "d": 1456.7999166666705,
      "v": 90
    },
    {
      "midi": 59,
      "hit": false,
      "t": 209999.77600000004,
      "d": 1470.5866666666698,
      "v": 86
    },
    {
      "midi": 55,
      "hit": false,
      "t": 209999.77600000004,
      "d": 1479.7778333333263,
      "v": 86
    },
    {
      "midi": 36,
      "hit": false,
      "t": 209999.77600000004,
      "d": 1500.4579583333398,
      "v": 70
    },
    {
      "midi": 38,
      "hit": false,
      "t": 211543.89200000005,
      "d": 1318.9324166666775,
      "v": 90
    },
    {
      "midi": 50,
      "hit": false,
      "t": 211543.89200000005,
      "d": 1318.9324166666775,
      "v": 78
    },
    {
      "midi": 55,
      "hit": false,
      "t": 211543.89200000005,
      "d": 1318.9324166666775,
      "v": 86
    },
    {
      "midi": 60,
      "hit": false,
      "t": 211543.89200000005,
      "d": 1318.9324166666775,
      "v": 78
    },
    {
      "midi": 50,
      "hit": false,
      "t": 213529.18400000007,
      "d": 1486.6712083333405,
      "v": 90
    },
    {
      "midi": 59,
      "hit": false,
      "t": 213529.18400000007,
      "d": 1502.7557500000112,
      "v": 94
    },
    {
      "midi": 55,
      "hit": false,
      "t": 213529.18400000007,
      "d": 1551.0093750000233,
      "v": 90
    },
    {
      "midi": 43,
      "hit": false,
      "t": 213529.18400000007,
      "d": 1557.9027500000375,
      "v": 86
    },
    {
      "midi": 54,
      "hit": false,
      "t": 215073.30000000008,
      "d": 1704.961416666687,
      "v": 82
    },
    {
      "midi": 50,
      "hit": false,
      "t": 215073.30000000008,
      "d": 1709.5570000000298,
      "v": 74
    },
    {
      "midi": 59,
      "hit": false,
      "t": 215073.30000000008,
      "d": 1723.343750000029,
      "v": 90
    },
    {
      "midi": 35,
      "hit": false,
      "t": 215073.30000000008,
      "d": 1732.5349166666856,
      "v": 74
    },
    {
      "midi": 55,
      "hit": false,
      "t": 217058.5920000001,
      "d": 1394.759541666659,
      "v": 86
    },
    {
      "midi": 59,
      "hit": false,
      "t": 217058.5920000001,
      "d": 1413.1418750000012,
      "v": 82
    },
    {
      "midi": 36,
      "hit": false,
      "t": 217058.5920000001,
      "d": 1465.991083333327,
      "v": 82
    },
    {
      "midi": 52,
      "hit": false,
      "t": 217058.5920000001,
      "d": 1472.8844583333412,
      "v": 86
    },
    {
      "midi": 35,
      "hit": false,
      "t": 218602.7080000001,
      "d": 1895.6781250000058,
      "v": 86
    },
    {
      "midi": 51,
      "hit": false,
      "t": 218602.7080000001,
      "d": 1895.6781250000058,
      "v": 90
    },
    {
      "midi": 54,
      "hit": false,
      "t": 218602.7080000001,
      "d": 1900.2737083333486,
      "v": 78
    },
    {
      "midi": 57,
      "hit": false,
      "t": 218602.7080000001,
      "d": 1907.1670833333628,
      "v": 90
    },
    {
      "midi": 52,
      "hit": false,
      "t": 220588.00000000012,
      "d": 1452.2043333333277,
      "v": 90
    },
    {
      "midi": 59,
      "hit": false,
      "t": 220588.00000000012,
      "d": 1461.3954999999842,
      "v": 94
    },
    {
      "midi": 55,
      "hit": false,
      "t": 220588.00000000012,
      "d": 1518.8402916666528,
      "v": 94
    },
    {
      "midi": 40,
      "hit": false,
      "t": 220588.00000000012,
      "d": 1557.9027499999793,
      "v": 94
    },
    {
      "midi": 50,
      "hit": false,
      "t": 222132.1160000001,
      "d": 1704.961416666658,
      "v": 82
    },
    {
      "midi": 54,
      "hit": false,
      "t": 222132.1160000001,
      "d": 1716.4503749999858,
      "v": 86
    },
    {
      "midi": 35,
      "hit": false,
      "t": 222132.1160000001,
      "d": 1721.0459583333286,
      "v": 70
    },
    {
      "midi": 59,
      "hit": false,
      "t": 222132.1160000001,
      "d": 1730.237124999985,
      "v": 82
    },
    {
      "midi": 55,
      "hit": false,
      "t": 224117.40800000008,
      "d": 1307.4434583333205,
      "v": 86
    },
    {
      "midi": 59,
      "hit": false,
      "t": 224117.40800000008,
      "d": 1328.123583333334,
      "v": 94
    },
    {
      "midi": 52,
      "hit": false,
      "t": 224117.40800000008,
      "d": 1399.3551250000019,
      "v": 90
    },
    {
      "midi": 36,
      "hit": false,
      "t": 224117.40800000008,
      "d": 1443.0131666666712,
      "v": 74
    },
    {
      "midi": 38,
      "hit": false,
      "t": 225661.5240000001,
      "d": 1953.1229166666744,
      "v": 90
    },
    {
      "midi": 50,
      "hit": false,
      "t": 225661.5240000001,
      "d": 1957.7185000000172,
      "v": 78
    },
    {
      "midi": 55,
      "hit": false,
      "t": 225661.5240000001,
      "d": 1960.0162916666886,
      "v": 78
    },
    {
      "midi": 60,
      "hit": false,
      "t": 225661.5240000001,
      "d": 1962.31408333336,
      "v": 74
    },
    {
      "midi": 57,
      "hit": false,
      "t": 225661.5240000001,
      "d": 1964.6118750000314,
      "v": 82
    },
    {
      "midi": 55,
      "hit": false,
      "t": 227646.81600000014,
      "d": 1332.7191666666768,
      "v": 94
    },
    {
      "midi": 59,
      "hit": false,
      "t": 227646.81600000014,
      "d": 1397.0573333333305,
      "v": 90
    },
    {
      "midi": 62,
      "hit": false,
      "t": 227646.81600000014,
      "d": 1408.5462916666584,
      "v": 90
    },
    {
      "midi": 43,
      "hit": false,
      "t": 227646.81600000014,
      "d": 1534.9248333333235,
      "v": 94
    },
    {
      "midi": 59,
      "hit": false,
      "t": 229190.93200000012,
      "d": 1670.4945416666742,
      "v": 78
    },
    {
      "midi": 54,
      "hit": false,
      "t": 229190.93200000012,
      "d": 1693.47245833333,
      "v": 82
    },
    {
      "midi": 62,
      "hit": false,
      "t": 229190.93200000012,
      "d": 1755.5128333333414,
      "v": 82
    },
    {
      "midi": 35,
      "hit": false,
      "t": 229190.93200000012,
      "d": 1902.57150000002,
      "v": 94
    },
    {
      "midi": 36,
      "hit": false,
      "t": 231176.22400000013,
      "d": 1539.5204166666663,
      "v": 94
    },
    {
      "midi": 59,
      "hit": false,
      "t": 231176.22400000013,
      "d": 1539.5204166666663,
      "v": 98
    },
    {
      "midi": 64,
      "hit": false,
      "t": 231176.22400000013,
      "d": 1539.5204166666663,
      "v": 90
    },
    {
      "midi": 55,
      "hit": false,
      "t": 232720.34000000014,
      "d": 22.9779166666558,
      "v": 86
    },
    {
      "midi": 31,
      "hit": false,
      "t": 232720.34000000014,
      "d": 1980.696416666644,
      "v": 94
    },
    {
      "midi": 59,
      "hit": false,
      "t": 232720.34000000014,
      "d": 1980.696416666644,
      "v": 86
    },
    {
      "midi": 62,
      "hit": false,
      "t": 232720.34000000014,
      "d": 1980.696416666644,
      "v": 82
    },
    {
      "midi": 52,
      "hit": false,
      "t": 234705.63200000013,
      "d": 1443.0131666666712,
      "v": 90
    },
    {
      "midi": 59,
      "hit": false,
      "t": 234705.63200000013,
      "d": 1468.2888749999984,
      "v": 90
    },
    {
      "midi": 55,
      "hit": false,
      "t": 234705.63200000013,
      "d": 1493.5645833333256,
      "v": 94
    },
    {
      "midi": 40,
      "hit": false,
      "t": 234705.63200000013,
      "d": 1516.5424999999814,
      "v": 94
    },
    {
      "midi": 50,
      "hit": false,
      "t": 236249.7480000001,
      "d": 1686.579083333345,
      "v": 78
    },
    {
      "midi": 54,
      "hit": false,
      "t": 236249.7480000001,
      "d": 1691.1746666666877,
      "v": 86
    },
    {
      "midi": 59,
      "hit": false,
      "t": 236249.7480000001,
      "d": 1709.5570000000298,
      "v": 90
    },
    {
      "midi": 35,
      "hit": false,
      "t": 236249.7480000001,
      "d": 1746.321666666685,
      "v": 66
    },
    {
      "midi": 52,
      "hit": false,
      "t": 238235.04000000012,
      "d": 1456.7999166666705,
      "v": 90
    },
    {
      "midi": 59,
      "hit": false,
      "t": 238235.04000000012,
      "d": 1470.5866666666698,
      "v": 86
    },
    {
      "midi": 55,
      "hit": false,
      "t": 238235.04000000012,
      "d": 1479.7778333333263,
      "v": 86
    },
    {
      "midi": 36,
      "hit": false,
      "t": 238235.04000000012,
      "d": 1500.4579583333398,
      "v": 70
    },
    {
      "midi": 38,
      "hit": false,
      "t": 239779.15600000013,
      "d": 1318.9324166666775,
      "v": 90
    },
    {
      "midi": 50,
      "hit": false,
      "t": 239779.15600000013,
      "d": 1318.9324166666775,
      "v": 78
    },
    {
      "midi": 55,
      "hit": false,
      "t": 239779.15600000013,
      "d": 1318.9324166666775,
      "v": 86
    },
    {
      "midi": 60,
      "hit": false,
      "t": 239779.15600000013,
      "d": 1318.9324166666775,
      "v": 78
    },
    {
      "midi": 50,
      "hit": false,
      "t": 241764.44800000015,
      "d": 1486.6712083333405,
      "v": 90
    },
    {
      "midi": 59,
      "hit": false,
      "t": 241764.44800000015,
      "d": 1502.7557500000112,
      "v": 94
    },
    {
      "midi": 55,
      "hit": false,
      "t": 241764.44800000015,
      "d": 1551.0093750000233,
      "v": 90
    },
    {
      "midi": 43,
      "hit": false,
      "t": 241764.44800000015,
      "d": 1557.9027500000375,
      "v": 86
    },
    {
      "midi": 54,
      "hit": false,
      "t": 243308.56400000016,
      "d": 1704.961416666687,
      "v": 82
    },
    {
      "midi": 50,
      "hit": false,
      "t": 243308.56400000016,
      "d": 1709.5570000000298,
      "v": 74
    },
    {
      "midi": 59,
      "hit": false,
      "t": 243308.56400000016,
      "d": 1723.343750000029,
      "v": 90
    },
    {
      "midi": 35,
      "hit": false,
      "t": 243308.56400000016,
      "d": 1732.5349166666856,
      "v": 74
    },
    {
      "midi": 55,
      "hit": false,
      "t": 245293.85600000017,
      "d": 1394.759541666659,
      "v": 86
    },
    {
      "midi": 59,
      "hit": false,
      "t": 245293.85600000017,
      "d": 1413.1418750000012,
      "v": 82
    },
    {
      "midi": 36,
      "hit": false,
      "t": 245293.85600000017,
      "d": 1465.991083333327,
      "v": 82
    },
    {
      "midi": 52,
      "hit": false,
      "t": 245293.85600000017,
      "d": 1472.8844583333412,
      "v": 86
    },
    {
      "midi": 35,
      "hit": false,
      "t": 246837.97200000018,
      "d": 1895.6781250000058,
      "v": 86
    },
    {
      "midi": 51,
      "hit": false,
      "t": 246837.97200000018,
      "d": 1895.6781250000058,
      "v": 90
    },
    {
      "midi": 54,
      "hit": false,
      "t": 246837.97200000018,
      "d": 1900.2737083333486,
      "v": 78
    },
    {
      "midi": 57,
      "hit": false,
      "t": 246837.97200000018,
      "d": 1907.1670833333628,
      "v": 90
    },
    {
      "midi": 52,
      "hit": false,
      "t": 248823.2640000002,
      "d": 1452.2043333333277,
      "v": 90
    },
    {
      "midi": 59,
      "hit": false,
      "t": 248823.2640000002,
      "d": 1461.3954999999842,
      "v": 94
    },
    {
      "midi": 55,
      "hit": false,
      "t": 248823.2640000002,
      "d": 1518.8402916666528,
      "v": 94
    },
    {
      "midi": 40,
      "hit": false,
      "t": 248823.2640000002,
      "d": 1557.9027499999793,
      "v": 94
    },
    {
      "midi": 50,
      "hit": false,
      "t": 250367.38000000018,
      "d": 1704.961416666658,
      "v": 82
    },
    {
      "midi": 54,
      "hit": false,
      "t": 250367.38000000018,
      "d": 1716.4503749999858,
      "v": 86
    },
    {
      "midi": 35,
      "hit": false,
      "t": 250367.38000000018,
      "d": 1721.0459583333286,
      "v": 70
    },
    {
      "midi": 59,
      "hit": false,
      "t": 250367.38000000018,
      "d": 1730.237124999985,
      "v": 82
    },
    {
      "midi": 55,
      "hit": false,
      "t": 252352.67200000017,
      "d": 1307.4434583333205,
      "v": 86
    },
    {
      "midi": 59,
      "hit": false,
      "t": 252352.67200000017,
      "d": 1328.123583333334,
      "v": 94
    },
    {
      "midi": 52,
      "hit": false,
      "t": 252352.67200000017,
      "d": 1399.3551250000019,
      "v": 90
    },
    {
      "midi": 36,
      "hit": false,
      "t": 252352.67200000017,
      "d": 1443.0131666666712,
      "v": 74
    },
    {
      "midi": 38,
      "hit": false,
      "t": 253896.78800000018,
      "d": 1953.1229166666744,
      "v": 90
    },
    {
      "midi": 50,
      "hit": false,
      "t": 253896.78800000018,
      "d": 1957.7185000000172,
      "v": 78
    },
    {
      "midi": 55,
      "hit": false,
      "t": 253896.78800000018,
      "d": 1960.0162916666886,
      "v": 78
    },
    {
      "midi": 60,
      "hit": false,
      "t": 253896.78800000018,
      "d": 1962.31408333336,
      "v": 74
    },
    {
      "midi": 57,
      "hit": false,
      "t": 253896.78800000018,
      "d": 1964.6118750000314,
      "v": 82
    },
    {
      "midi": 40,
      "hit": false,
      "t": 255882.08000000022,
      "d": 1539.5204166666663,
      "v": 112
    },
    {
      "midi": 36,
      "hit": false,
      "t": 257426.19600000023,
      "d": 1946.2295416666602,
      "v": 112
    },
    {
      "midi": 38,
      "hit": false,
      "t": 259411.48800000022,
      "d": 1539.5204166666663,
      "v": 113
    },
    {
      "midi": 33,
      "hit": false,
      "t": 260955.60400000022,
      "d": 1980.696416666673,
      "v": 112
    },
    {
      "midi": 40,
      "hit": false,
      "t": 262940.89600000024,
      "d": 1539.5204166666954,
      "v": 112
    },
    {
      "midi": 36,
      "hit": false,
      "t": 264485.0120000003,
      "d": 1946.2295416666893,
      "v": 112
    },
    {
      "midi": 38,
      "hit": false,
      "t": 266470.3040000003,
      "d": 1539.5204166666954,
      "v": 113
    },
    {
      "midi": 33,
      "hit": false,
      "t": 268014.42000000033,
      "d": 1980.696416666673,
      "v": 112
    },
    {
      "midi": 40,
      "hit": false,
      "t": 269999.71200000035,
      "d": 1305.1456666666782,
      "v": 92
    },
    {
      "midi": 55,
      "hit": false,
      "t": 270220.30000000034,
      "d": 96.50725000002421,
      "v": 68
    },
    {
      "midi": 52,
      "hit": false,
      "t": 270229.491166667,
      "d": 78.12491666665301,
      "v": 64
    },
    {
      "midi": 52,
      "hit": false,
      "t": 270564.96875000035,
      "d": 73.5293333333102,
      "v": 56
    },
    {
      "midi": 55,
      "hit": false,
      "t": 270564.96875000035,
      "d": 87.31608333333861,
      "v": 64
    },
    {
      "midi": 57,
      "hit": false,
      "t": 270868.27725000033,
      "d": 312.49966666667024,
      "v": 64
    },
    {
      "midi": 52,
      "hit": false,
      "t": 270870.575041667,
      "d": 241.26812500000233,
      "v": 64
    },
    {
      "midi": 52,
      "hit": false,
      "t": 271229.030541667,
      "d": 186.12112500000512,
      "v": 72
    },
    {
      "midi": 55,
      "hit": false,
      "t": 271229.030541667,
      "d": 218.29020833334653,
      "v": 80
    },
    {
      "midi": 40,
      "hit": false,
      "t": 271323.24000000034,
      "d": 248.16150000004563,
      "v": 95
    },
    {
      "midi": 36,
      "hit": false,
      "t": 271543.8280000004,
      "d": 1424.6308333331835,
      "v": 95
    },
    {
      "midi": 52,
      "hit": false,
      "t": 271985.00400000036,
      "d": 66.6359583333251,
      "v": 64
    },
    {
      "midi": 55,
      "hit": false,
      "t": 271985.00400000036,
      "d": 82.72049999999581,
      "v": 64
    },
    {
      "midi": 52,
      "hit": false,
      "t": 272311.290416667,
      "d": 73.5293333333102,
      "v": 64
    },
    {
      "midi": 55,
      "hit": false,
      "t": 272311.290416667,
      "d": 85.0182916666381,
      "v": 68
    },
    {
      "midi": 52,
      "hit": false,
      "t": 272628.38566666696,
      "d": 255.05487499997253,
      "v": 60
    },
    {
      "midi": 57,
      "hit": false,
      "t": 272635.27904166694,
      "d": 330.88199999998324,
      "v": 68
    },
    {
      "midi": 55,
      "hit": false,
      "t": 272989.1389583336,
      "d": 215.99241666670423,
      "v": 80
    },
    {
      "midi": 52,
      "hit": false,
      "t": 272993.7345416669,
      "d": 197.61008333333302,
      "v": 76
    },
    {
      "midi": 36,
      "hit": false,
      "t": 273087.94400000025,
      "d": 367.64666666672565,
      "v": 83
    },
    {
      "midi": 38,
      "hit": false,
      "t": 273529.1200000003,
      "d": 1300.5500833332771,
      "v": 101
    },
    {
      "midi": 50,
      "hit": false,
      "t": 273749.7080000003,
      "d": 89.6138749999227,
      "v": 56
    },
    {
      "midi": 54,
      "hit": false,
      "t": 273761.1969583336,
      "d": 71.2315416666097,
      "v": 64
    },
    {
      "midi": 57,
      "hit": false,
      "t": 273763.49475000025,
      "d": 39.062458333326504,
      "v": 56
    },
    {
      "midi": 50,
      "hit": false,
      "t": 274080.5900000002,
      "d": 73.52933333336841,
      "v": 60
    },
    {
      "midi": 57,
      "hit": false,
      "t": 274085.18558333354,
      "d": 82.72050000005402,
      "v": 72
    },
    {
      "midi": 54,
      "hit": false,
      "t": 274096.6745416669,
      "d": 41.36025000002701,
      "v": 48
    },
    {
      "midi": 50,
      "hit": false,
      "t": 274411.47200000024,
      "d": 220.58799999998882,
      "v": 64
    },
    {
      "midi": 54,
      "hit": false,
      "t": 274411.47200000024,
      "d": 252.75708333333023,
      "v": 64
    },
    {
      "midi": 59,
      "hit": false,
      "t": 274416.0675833336,
      "d": 284.92616666667163,
      "v": 76
    },
    {
      "midi": 54,
      "hit": false,
      "t": 274749.24737500027,
      "d": 174.632166666619,
      "v": 68
    },
    {
      "midi": 50,
      "hit": false,
      "t": 274751.5451666669,
      "d": 170.03658333333442,
      "v": 60
    },
    {
      "midi": 57,
      "hit": false,
      "t": 274751.5451666669,
      "d": 197.61008333333302,
      "v": 76
    },
    {
      "midi": 38,
      "hit": false,
      "t": 274852.6480000002,
      "d": 271.13941666670144,
      "v": 92
    },
    {
      "midi": 33,
      "hit": false,
      "t": 275073.23600000027,
      "d": 1408.546291666571,
      "v": 95
    },
    {
      "midi": 52,
      "hit": false,
      "t": 275514.41200000024,
      "d": 71.23154166666791,
      "v": 76
    },
    {
      "midi": 48,
      "hit": false,
      "t": 275519.0075833336,
      "d": 73.5293333333102,
      "v": 56
    },
    {
      "midi": 52,
      "hit": false,
      "t": 275845.2940000002,
      "d": 85.0182916666381,
      "v": 72
    },
    {
      "midi": 48,
      "hit": false,
      "t": 275847.59179166687,
      "d": 75.82712500001071,
      "v": 48
    },
    {
      "midi": 52,
      "hit": false,
      "t": 276157.79366666684,
      "d": 273.43720833334373,
      "v": 76
    },
    {
      "midi": 55,
      "hit": false,
      "t": 276162.3892500002,
      "d": 321.69083333329763,
      "v": 64
    },
    {
      "midi": 52,
      "hit": false,
      "t": 276509.35579166684,
      "d": 147.05866666667862,
      "v": 56
    },
    {
      "midi": 48,
      "hit": false,
      "t": 276513.9513750002,
      "d": 107.99620833335212,
      "v": 68
    },
    {
      "midi": 33,
      "hit": false,
      "t": 276617.3520000002,
      "d": 436.58041666663485,
      "v": 80
    },
    {
      "midi": 40,
      "hit": false,
      "t": 277058.52800000017,
      "d": 1305.1456666666782,
      "v": 92
    },
    {
      "midi": 55,
      "hit": false,
      "t": 277279.11600000015,
      "d": 96.50725000002421,
      "v": 68
    },
    {
      "midi": 52,
      "hit": false,
      "t": 277288.30716666684,
      "d": 78.12491666665301,
      "v": 64
    },
    {
      "midi": 52,
      "hit": false,
      "t": 277623.78475000017,
      "d": 73.5293333333102,
      "v": 56
    },
    {
      "midi": 55,
      "hit": false,
      "t": 277623.78475000017,
      "d": 87.31608333333861,
      "v": 64
    },
    {
      "midi": 57,
      "hit": false,
      "t": 277927.09325000015,
      "d": 312.49966666667024,
      "v": 64
    },
    {
      "midi": 52,
      "hit": false,
      "t": 277929.3910416668,
      "d": 241.26812500000233,
      "v": 64
    },
    {
      "midi": 52,
      "hit": false,
      "t": 278287.84654166683,
      "d": 186.12112500000512,
      "v": 72
    },
    {
      "midi": 55,
      "hit": false,
      "t": 278287.84654166683,
      "d": 218.29020833334653,
      "v": 80
    },
    {
      "midi": 40,
      "hit": false,
      "t": 278382.05600000016,
      "d": 248.16150000004563,
      "v": 95
    },
    {
      "midi": 36,
      "hit": false,
      "t": 278602.6440000002,
      "d": 1424.6308333331835,
      "v": 95
    },
    {
      "midi": 52,
      "hit": false,
      "t": 279043.8200000002,
      "d": 66.6359583333251,
      "v": 64
    },
    {
      "midi": 55,
      "hit": false,
      "t": 279043.8200000002,
      "d": 82.72049999999581,
      "v": 64
    },
    {
      "midi": 52,
      "hit": false,
      "t": 279370.1064166668,
      "d": 73.5293333333102,
      "v": 64
    },
    {
      "midi": 55,
      "hit": false,
      "t": 279370.1064166668,
      "d": 85.0182916666381,
      "v": 68
    },
    {
      "midi": 52,
      "hit": false,
      "t": 279687.2016666668,
      "d": 255.05487499997253,
      "v": 60
    },
    {
      "midi": 57,
      "hit": false,
      "t": 279694.09504166676,
      "d": 330.88199999998324,
      "v": 68
    },
    {
      "midi": 55,
      "hit": false,
      "t": 280047.9549583334,
      "d": 215.99241666670423,
      "v": 80
    },
    {
      "midi": 52,
      "hit": false,
      "t": 280052.55054166674,
      "d": 197.61008333333302,
      "v": 76
    },
    {
      "midi": 36,
      "hit": false,
      "t": 280146.76000000007,
      "d": 367.64666666672565,
      "v": 83
    },
    {
      "midi": 38,
      "hit": false,
      "t": 280587.9360000001,
      "d": 1300.5500833332771,
      "v": 101
    },
    {
      "midi": 50,
      "hit": false,
      "t": 280808.5240000001,
      "d": 89.6138749999227,
      "v": 56
    },
    {
      "midi": 54,
      "hit": false,
      "t": 280820.0129583334,
      "d": 71.2315416666097,
      "v": 64
    },
    {
      "midi": 57,
      "hit": false,
      "t": 280822.31075000006,
      "d": 39.062458333326504,
      "v": 56
    },
    {
      "midi": 50,
      "hit": false,
      "t": 281139.406,
      "d": 73.52933333336841,
      "v": 60
    },
    {
      "midi": 57,
      "hit": false,
      "t": 281144.00158333336,
      "d": 82.72050000005402,
      "v": 72
    },
    {
      "midi": 54,
      "hit": false,
      "t": 281155.4905416667,
      "d": 41.36025000002701,
      "v": 48
    },
    {
      "midi": 50,
      "hit": false,
      "t": 281470.28800000006,
      "d": 220.58799999998882,
      "v": 64
    },
    {
      "midi": 54,
      "hit": false,
      "t": 281470.28800000006,
      "d": 252.75708333333023,
      "v": 64
    },
    {
      "midi": 59,
      "hit": false,
      "t": 281474.8835833334,
      "d": 284.92616666667163,
      "v": 76
    },
    {
      "midi": 54,
      "hit": false,
      "t": 281808.0633750001,
      "d": 174.632166666619,
      "v": 68
    },
    {
      "midi": 50,
      "hit": false,
      "t": 281810.3611666667,
      "d": 170.03658333333442,
      "v": 60
    },
    {
      "midi": 57,
      "hit": false,
      "t": 281810.3611666667,
      "d": 197.61008333333302,
      "v": 76
    },
    {
      "midi": 38,
      "hit": false,
      "t": 281911.46400000004,
      "d": 271.13941666670144,
      "v": 92
    },
    {
      "midi": 33,
      "hit": false,
      "t": 282132.0520000001,
      "d": 1408.546291666571,
      "v": 95
    },
    {
      "midi": 52,
      "hit": false,
      "t": 282573.22800000006,
      "d": 71.23154166666791,
      "v": 76
    },
    {
      "midi": 48,
      "hit": false,
      "t": 282577.8235833334,
      "d": 73.5293333333102,
      "v": 56
    },
    {
      "midi": 52,
      "hit": false,
      "t": 282904.11000000004,
      "d": 85.0182916666381,
      "v": 72
    },
    {
      "midi": 48,
      "hit": false,
      "t": 282906.4077916667,
      "d": 75.82712500001071,
      "v": 48
    },
    {
      "midi": 52,
      "hit": false,
      "t": 283216.60966666666,
      "d": 273.43720833334373,
      "v": 76
    },
    {
      "midi": 55,
      "hit": false,
      "t": 283221.20525,
      "d": 321.69083333329763,
      "v": 64
    },
    {
      "midi": 52,
      "hit": false,
      "t": 283568.17179166665,
      "d": 147.05866666667862,
      "v": 56
    },
    {
      "midi": 48,
      "hit": false,
      "t": 283572.767375,
      "d": 107.99620833335212,
      "v": 68
    },
    {
      "midi": 33,
      "hit": false,
      "t": 283676.168,
      "d": 436.58041666663485,
      "v": 80
    },
    {
      "midi": 40,
      "hit": false,
      "t": 284117.344,
      "d": 1305.1456666666782,
      "v": 92
    },
    {
      "midi": 55,
      "hit": false,
      "t": 284337.932,
      "d": 96.50725000002421,
      "v": 68
    },
    {
      "midi": 52,
      "hit": false,
      "t": 284347.12316666666,
      "d": 78.12491666665301,
      "v": 64
    },
    {
      "midi": 52,
      "hit": false,
      "t": 284682.60075,
      "d": 73.5293333333102,
      "v": 56
    },
    {
      "midi": 55,
      "hit": false,
      "t": 284682.60075,
      "d": 87.31608333333861,
      "v": 64
    },
    {
      "midi": 57,
      "hit": false,
      "t": 284985.90924999997,
      "d": 312.49966666667024,
      "v": 64
    },
    {
      "midi": 52,
      "hit": false,
      "t": 284988.2070416666,
      "d": 241.26812500000233,
      "v": 64
    },
    {
      "midi": 52,
      "hit": false,
      "t": 285346.66254166665,
      "d": 186.12112500000512,
      "v": 72
    },
    {
      "midi": 55,
      "hit": false,
      "t": 285346.66254166665,
      "d": 218.29020833334653,
      "v": 80
    },
    {
      "midi": 40,
      "hit": false,
      "t": 285440.872,
      "d": 248.16150000004563,
      "v": 95
    },
    {
      "midi": 36,
      "hit": false,
      "t": 285661.46,
      "d": 1424.6308333331835,
      "v": 95
    },
    {
      "midi": 52,
      "hit": false,
      "t": 286102.636,
      "d": 66.6359583333251,
      "v": 64
    },
    {
      "midi": 55,
      "hit": false,
      "t": 286102.636,
      "d": 82.72049999999581,
      "v": 64
    },
    {
      "midi": 52,
      "hit": false,
      "t": 286428.92241666664,
      "d": 73.5293333333102,
      "v": 64
    },
    {
      "midi": 55,
      "hit": false,
      "t": 286428.92241666664,
      "d": 85.0182916666381,
      "v": 68
    },
    {
      "midi": 52,
      "hit": false,
      "t": 286746.0176666666,
      "d": 255.05487499997253,
      "v": 60
    },
    {
      "midi": 57,
      "hit": false,
      "t": 286752.9110416666,
      "d": 330.88199999998324,
      "v": 68
    },
    {
      "midi": 55,
      "hit": false,
      "t": 287106.7709583332,
      "d": 215.99241666670423,
      "v": 80
    },
    {
      "midi": 52,
      "hit": false,
      "t": 287111.36654166656,
      "d": 197.61008333333302,
      "v": 76
    },
    {
      "midi": 36,
      "hit": false,
      "t": 287205.5759999999,
      "d": 367.64666666672565,
      "v": 83
    },
    {
      "midi": 38,
      "hit": false,
      "t": 287646.7519999999,
      "d": 1300.5500833332771,
      "v": 101
    },
    {
      "midi": 50,
      "hit": false,
      "t": 287867.3399999999,
      "d": 89.6138749999227,
      "v": 56
    },
    {
      "midi": 54,
      "hit": false,
      "t": 287878.82895833324,
      "d": 71.2315416666097,
      "v": 64
    },
    {
      "midi": 57,
      "hit": false,
      "t": 287881.1267499999,
      "d": 39.062458333326504,
      "v": 56
    },
    {
      "midi": 50,
      "hit": false,
      "t": 288198.22199999983,
      "d": 73.52933333336841,
      "v": 60
    },
    {
      "midi": 57,
      "hit": false,
      "t": 288202.8175833332,
      "d": 82.72050000005402,
      "v": 72
    },
    {
      "midi": 54,
      "hit": false,
      "t": 288214.3065416665,
      "d": 41.36025000002701,
      "v": 48
    },
    {
      "midi": 50,
      "hit": false,
      "t": 288529.1039999999,
      "d": 220.58799999998882,
      "v": 64
    },
    {
      "midi": 54,
      "hit": false,
      "t": 288529.1039999999,
      "d": 252.75708333333023,
      "v": 64
    },
    {
      "midi": 59,
      "hit": false,
      "t": 288533.6995833332,
      "d": 284.92616666667163,
      "v": 76
    },
    {
      "midi": 54,
      "hit": false,
      "t": 288866.8793749999,
      "d": 174.632166666619,
      "v": 68
    },
    {
      "midi": 50,
      "hit": false,
      "t": 288869.17716666654,
      "d": 170.03658333333442,
      "v": 60
    },
    {
      "midi": 57,
      "hit": false,
      "t": 288869.17716666654,
      "d": 197.61008333333302,
      "v": 76
    },
    {
      "midi": 38,
      "hit": false,
      "t": 288970.27999999985,
      "d": 271.13941666670144,
      "v": 92
    },
    {
      "midi": 33,
      "hit": false,
      "t": 289190.8679999999,
      "d": 1408.546291666571,
      "v": 95
    },
    {
      "midi": 52,
      "hit": false,
      "t": 289632.0439999999,
      "d": 71.23154166666791,
      "v": 76
    },
    {
      "midi": 48,
      "hit": false,
      "t": 289636.6395833332,
      "d": 73.5293333333102,
      "v": 56
    },
    {
      "midi": 52,
      "hit": false,
      "t": 289962.92599999986,
      "d": 85.0182916666381,
      "v": 72
    },
    {
      "midi": 48,
      "hit": false,
      "t": 289965.2237916665,
      "d": 75.82712500001071,
      "v": 48
    },
    {
      "midi": 52,
      "hit": false,
      "t": 290275.4256666665,
      "d": 273.43720833334373,
      "v": 76
    },
    {
      "midi": 55,
      "hit": false,
      "t": 290280.0212499998,
      "d": 321.69083333329763,
      "v": 64
    },
    {
      "midi": 52,
      "hit": false,
      "t": 290626.98779166647,
      "d": 147.05866666667862,
      "v": 56
    },
    {
      "midi": 48,
      "hit": false,
      "t": 290631.5833749998,
      "d": 107.99620833335212,
      "v": 68
    },
    {
      "midi": 33,
      "hit": false,
      "t": 290734.9839999998,
      "d": 436.58041666663485,
      "v": 80
    },
    {
      "midi": 40,
      "hit": false,
      "t": 291176.1599999998,
      "d": 1305.1456666666782,
      "v": 92
    },
    {
      "midi": 55,
      "hit": false,
      "t": 291396.7479999998,
      "d": 96.50725000002421,
      "v": 68
    },
    {
      "midi": 52,
      "hit": false,
      "t": 291405.9391666665,
      "d": 78.12491666665301,
      "v": 64
    },
    {
      "midi": 52,
      "hit": false,
      "t": 291741.4167499998,
      "d": 73.5293333333102,
      "v": 56
    },
    {
      "midi": 55,
      "hit": false,
      "t": 291741.4167499998,
      "d": 87.31608333333861,
      "v": 64
    },
    {
      "midi": 57,
      "hit": false,
      "t": 292044.7252499998,
      "d": 312.49966666667024,
      "v": 64
    },
    {
      "midi": 52,
      "hit": false,
      "t": 292047.0230416664,
      "d": 241.26812500000233,
      "v": 64
    },
    {
      "midi": 52,
      "hit": false,
      "t": 292405.47854166647,
      "d": 186.12112500000512,
      "v": 72
    },
    {
      "midi": 55,
      "hit": false,
      "t": 292405.47854166647,
      "d": 218.29020833334653,
      "v": 80
    },
    {
      "midi": 40,
      "hit": false,
      "t": 292499.6879999998,
      "d": 248.16150000004563,
      "v": 95
    },
    {
      "midi": 36,
      "hit": false,
      "t": 292720.27599999984,
      "d": 1424.6308333331835,
      "v": 95
    },
    {
      "midi": 52,
      "hit": false,
      "t": 293161.4519999998,
      "d": 66.6359583333251,
      "v": 64
    },
    {
      "midi": 55,
      "hit": false,
      "t": 293161.4519999998,
      "d": 82.72049999999581,
      "v": 64
    },
    {
      "midi": 52,
      "hit": false,
      "t": 293487.73841666646,
      "d": 73.5293333333102,
      "v": 64
    },
    {
      "midi": 55,
      "hit": false,
      "t": 293487.73841666646,
      "d": 85.0182916666381,
      "v": 68
    },
    {
      "midi": 52,
      "hit": false,
      "t": 293804.8336666664,
      "d": 255.05487499997253,
      "v": 60
    },
    {
      "midi": 57,
      "hit": false,
      "t": 293811.7270416664,
      "d": 330.88199999998324,
      "v": 68
    },
    {
      "midi": 55,
      "hit": false,
      "t": 294165.58695833303,
      "d": 215.99241666670423,
      "v": 80
    },
    {
      "midi": 52,
      "hit": false,
      "t": 294170.1825416664,
      "d": 197.61008333333302,
      "v": 76
    },
    {
      "midi": 36,
      "hit": false,
      "t": 294264.3919999997,
      "d": 367.64666666672565,
      "v": 83
    },
    {
      "midi": 38,
      "hit": false,
      "t": 294705.56799999974,
      "d": 1300.5500833332771,
      "v": 101
    },
    {
      "midi": 50,
      "hit": false,
      "t": 294926.1559999997,
      "d": 89.6138749999227,
      "v": 56
    },
    {
      "midi": 54,
      "hit": false,
      "t": 294937.64495833305,
      "d": 71.2315416666097,
      "v": 64
    },
    {
      "midi": 57,
      "hit": false,
      "t": 294939.9427499997,
      "d": 39.062458333326504,
      "v": 56
    },
    {
      "midi": 50,
      "hit": false,
      "t": 295257.03799999965,
      "d": 73.52933333336841,
      "v": 60
    },
    {
      "midi": 57,
      "hit": false,
      "t": 295261.633583333,
      "d": 82.72050000005402,
      "v": 72
    },
    {
      "midi": 54,
      "hit": false,
      "t": 295273.1225416663,
      "d": 41.36025000002701,
      "v": 48
    },
    {
      "midi": 50,
      "hit": false,
      "t": 295587.9199999997,
      "d": 220.58799999998882,
      "v": 64
    },
    {
      "midi": 54,
      "hit": false,
      "t": 295587.9199999997,
      "d": 252.75708333333023,
      "v": 64
    },
    {
      "midi": 59,
      "hit": false,
      "t": 295592.51558333304,
      "d": 284.92616666667163,
      "v": 76
    },
    {
      "midi": 54,
      "hit": false,
      "t": 295925.6953749997,
      "d": 174.632166666619,
      "v": 68
    },
    {
      "midi": 50,
      "hit": false,
      "t": 295927.99316666636,
      "d": 170.03658333333442,
      "v": 60
    },
    {
      "midi": 57,
      "hit": false,
      "t": 295927.99316666636,
      "d": 197.61008333333302,
      "v": 76
    },
    {
      "midi": 38,
      "hit": false,
      "t": 296029.09599999967,
      "d": 271.13941666670144,
      "v": 92
    },
    {
      "midi": 33,
      "hit": false,
      "t": 296249.6839999997,
      "d": 1408.546291666571,
      "v": 95
    },
    {
      "midi": 52,
      "hit": false,
      "t": 296690.8599999997,
      "d": 71.23154166666791,
      "v": 76
    },
    {
      "midi": 48,
      "hit": false,
      "t": 296695.45558333304,
      "d": 73.5293333333102,
      "v": 56
    },
    {
      "midi": 52,
      "hit": false,
      "t": 297021.7419999997,
      "d": 85.0182916666381,
      "v": 72
    },
    {
      "midi": 48,
      "hit": false,
      "t": 297024.0397916663,
      "d": 75.82712500001071,
      "v": 48
    },
    {
      "midi": 52,
      "hit": false,
      "t": 297334.2416666663,
      "d": 273.43720833334373,
      "v": 76
    },
    {
      "midi": 55,
      "hit": false,
      "t": 297338.83724999963,
      "d": 321.69083333329763,
      "v": 64
    },
    {
      "midi": 52,
      "hit": false,
      "t": 297685.8037916663,
      "d": 147.05866666667862,
      "v": 56
    },
    {
      "midi": 48,
      "hit": false,
      "t": 297690.39937499963,
      "d": 107.99620833335212,
      "v": 68
    },
    {
      "midi": 33,
      "hit": false,
      "t": 297793.79999999964,
      "d": 436.58041666663485,
      "v": 80
    },
    {
      "midi": 40,
      "hit": false,
      "t": 298234.9759999996,
      "d": 1305.1456666666782,
      "v": 88
    },
    {
      "midi": 55,
      "hit": false,
      "t": 298455.5639999996,
      "d": 96.50725000002421,
      "v": 64
    },
    {
      "midi": 52,
      "hit": false,
      "t": 298464.7551666663,
      "d": 78.12491666665301,
      "v": 60
    },
    {
      "midi": 52,
      "hit": false,
      "t": 298800.2327499996,
      "d": 73.5293333333102,
      "v": 52
    },
    {
      "midi": 55,
      "hit": false,
      "t": 298800.2327499996,
      "d": 87.31608333333861,
      "v": 60
    },
    {
      "midi": 57,
      "hit": false,
      "t": 299103.5412499996,
      "d": 312.49966666667024,
      "v": 60
    },
    {
      "midi": 52,
      "hit": false,
      "t": 299105.83904166624,
      "d": 241.26812500000233,
      "v": 60
    },
    {
      "midi": 52,
      "hit": false,
      "t": 299464.2945416663,
      "d": 186.12112500000512,
      "v": 68
    },
    {
      "midi": 55,
      "hit": false,
      "t": 299464.2945416663,
      "d": 218.29020833334653,
      "v": 76
    },
    {
      "midi": 40,
      "hit": false,
      "t": 299558.5039999996,
      "d": 248.16150000004563,
      "v": 91
    },
    {
      "midi": 36,
      "hit": false,
      "t": 299779.09199999965,
      "d": 1424.6308333331835,
      "v": 91
    },
    {
      "midi": 52,
      "hit": false,
      "t": 300220.26799999963,
      "d": 66.6359583333251,
      "v": 60
    },
    {
      "midi": 55,
      "hit": false,
      "t": 300220.26799999963,
      "d": 82.72049999999581,
      "v": 60
    },
    {
      "midi": 52,
      "hit": false,
      "t": 300546.5544166663,
      "d": 73.5293333333102,
      "v": 60
    },
    {
      "midi": 55,
      "hit": false,
      "t": 300546.5544166663,
      "d": 85.0182916666381,
      "v": 64
    },
    {
      "midi": 52,
      "hit": false,
      "t": 300863.6496666662,
      "d": 255.05487499997253,
      "v": 56
    },
    {
      "midi": 57,
      "hit": false,
      "t": 300870.5430416662,
      "d": 330.88199999998324,
      "v": 64
    },
    {
      "midi": 55,
      "hit": false,
      "t": 301224.40295833285,
      "d": 215.99241666670423,
      "v": 76
    },
    {
      "midi": 52,
      "hit": false,
      "t": 301228.9985416662,
      "d": 197.61008333333302,
      "v": 72
    },
    {
      "midi": 36,
      "hit": false,
      "t": 301323.2079999995,
      "d": 367.64666666672565,
      "v": 79
    },
    {
      "midi": 38,
      "hit": false,
      "t": 301764.38399999955,
      "d": 1300.5500833333936,
      "v": 97
    },
    {
      "midi": 50,
      "hit": false,
      "t": 301984.97199999954,
      "d": 89.6138749999227,
      "v": 52
    },
    {
      "midi": 54,
      "hit": false,
      "t": 301996.4609583329,
      "d": 71.2315416666097,
      "v": 60
    },
    {
      "midi": 57,
      "hit": false,
      "t": 301998.7587499995,
      "d": 39.062458333326504,
      "v": 52
    },
    {
      "midi": 50,
      "hit": false,
      "t": 302315.85399999947,
      "d": 73.52933333336841,
      "v": 56
    },
    {
      "midi": 57,
      "hit": false,
      "t": 302320.4495833328,
      "d": 82.72050000005402,
      "v": 68
    },
    {
      "midi": 54,
      "hit": false,
      "t": 302331.93854166614,
      "d": 41.36025000002701,
      "v": 44
    },
    {
      "midi": 50,
      "hit": false,
      "t": 302646.7359999995,
      "d": 220.58800000004703,
      "v": 60
    },
    {
      "midi": 54,
      "hit": false,
      "t": 302646.7359999995,
      "d": 252.75708333338844,
      "v": 60
    },
    {
      "midi": 59,
      "hit": false,
      "t": 302651.33158333285,
      "d": 284.92616666672984,
      "v": 72
    },
    {
      "midi": 54,
      "hit": false,
      "t": 302984.5113749996,
      "d": 174.63216666667722,
      "v": 64
    },
    {
      "midi": 50,
      "hit": false,
      "t": 302986.80916666624,
      "d": 170.03658333339263,
      "v": 56
    },
    {
      "midi": 57,
      "hit": false,
      "t": 302986.80916666624,
      "d": 197.61008333333302,
      "v": 72
    },
    {
      "midi": 38,
      "hit": false,
      "t": 303087.9119999996,
      "d": 271.13941666670144,
      "v": 88
    },
    {
      "midi": 33,
      "hit": false,
      "t": 303308.4999999996,
      "d": 1408.5462916667457,
      "v": 91
    },
    {
      "midi": 52,
      "hit": false,
      "t": 303749.6759999996,
      "d": 71.23154166666791,
      "v": 72
    },
    {
      "midi": 48,
      "hit": false,
      "t": 303754.271583333,
      "d": 73.5293333333102,
      "v": 52
    },
    {
      "midi": 52,
      "hit": false,
      "t": 304080.55799999967,
      "d": 85.0182916666381,
      "v": 68
    },
    {
      "midi": 48,
      "hit": false,
      "t": 304082.8557916663,
      "d": 75.82712500001071,
      "v": 44
    },
    {
      "midi": 52,
      "hit": false,
      "t": 304393.0576666663,
      "d": 273.43720833340194,
      "v": 72
    },
    {
      "midi": 55,
      "hit": false,
      "t": 304397.6532499996,
      "d": 321.69083333335584,
      "v": 60
    },
    {
      "midi": 52,
      "hit": false,
      "t": 304744.61979166634,
      "d": 147.05866666667862,
      "v": 52
    },
    {
      "midi": 48,
      "hit": false,
      "t": 304749.2153749997,
      "d": 107.99620833335212,
      "v": 64
    },
    {
      "midi": 33,
      "hit": false,
      "t": 304852.6159999997,
      "d": 436.58041666675126,
      "v": 76
    },
    {
      "midi": 40,
      "hit": false,
      "t": 305293.7919999998,
      "d": 1305.1456666667946,
      "v": 88
    },
    {
      "midi": 55,
      "hit": false,
      "t": 305514.37999999983,
      "d": 96.50725000002421,
      "v": 64
    },
    {
      "midi": 52,
      "hit": false,
      "t": 305523.5711666665,
      "d": 78.12491666665301,
      "v": 60
    },
    {
      "midi": 52,
      "hit": false,
      "t": 305859.04874999984,
      "d": 73.52933333336841,
      "v": 52
    },
    {
      "midi": 55,
      "hit": false,
      "t": 305859.04874999984,
      "d": 87.31608333339682,
      "v": 60
    },
    {
      "midi": 57,
      "hit": false,
      "t": 306162.35724999994,
      "d": 312.49966666661203,
      "v": 60
    },
    {
      "midi": 52,
      "hit": false,
      "t": 306164.6550416666,
      "d": 241.26812500000233,
      "v": 60
    },
    {
      "midi": 52,
      "hit": false,
      "t": 306523.11054166657,
      "d": 186.12112499994691,
      "v": 68
    },
    {
      "midi": 55,
      "hit": false,
      "t": 306523.11054166657,
      "d": 218.29020833328832,
      "v": 76
    },
    {
      "midi": 40,
      "hit": false,
      "t": 306617.3199999999,
      "d": 248.16149999998743,
      "v": 91
    },
    {
      "midi": 36,
      "hit": false,
      "t": 306837.9079999999,
      "d": 1424.6308333333,
      "v": 91
    },
    {
      "midi": 52,
      "hit": false,
      "t": 307279.0839999999,
      "d": 66.6359583333251,
      "v": 60
    },
    {
      "midi": 55,
      "hit": false,
      "t": 307279.0839999999,
      "d": 82.72049999999581,
      "v": 60
    },
    {
      "midi": 52,
      "hit": false,
      "t": 307605.37041666656,
      "d": 73.52933333336841,
      "v": 60
    },
    {
      "midi": 55,
      "hit": false,
      "t": 307605.37041666656,
      "d": 85.01829166669631,
      "v": 64
    },
    {
      "midi": 52,
      "hit": false,
      "t": 307922.46566666657,
      "d": 255.05487499997253,
      "v": 56
    },
    {
      "midi": 57,
      "hit": false,
      "t": 307929.35904166655,
      "d": 330.88199999998324,
      "v": 64
    },
    {
      "midi": 55,
      "hit": false,
      "t": 308283.2189583332,
      "d": 215.99241666670423,
      "v": 76
    },
    {
      "midi": 52,
      "hit": false,
      "t": 308287.81454166654,
      "d": 197.61008333333302,
      "v": 72
    },
    {
      "midi": 36,
      "hit": false,
      "t": 308382.02399999986,
      "d": 367.64666666666744,
      "v": 79
    },
    {
      "midi": 38,
      "hit": false,
      "t": 308823.19999999984,
      "d": 1300.5500833334518,
      "v": 97
    },
    {
      "midi": 50,
      "hit": false,
      "t": 309043.7879999999,
      "d": 89.6138749999227,
      "v": 52
    },
    {
      "midi": 54,
      "hit": false,
      "t": 309055.2769583332,
      "d": 71.2315416666097,
      "v": 60
    },
    {
      "midi": 57,
      "hit": false,
      "t": 309057.57474999985,
      "d": 39.062458333326504,
      "v": 52
    },
    {
      "midi": 50,
      "hit": false,
      "t": 309374.66999999987,
      "d": 73.52933333336841,
      "v": 56
    },
    {
      "midi": 57,
      "hit": false,
      "t": 309379.2655833332,
      "d": 82.72050000005402,
      "v": 68
    },
    {
      "midi": 54,
      "hit": false,
      "t": 309390.75454166654,
      "d": 41.36025000002701,
      "v": 44
    },
    {
      "midi": 50,
      "hit": false,
      "t": 309705.5519999999,
      "d": 220.58800000004703,
      "v": 60
    },
    {
      "midi": 54,
      "hit": false,
      "t": 309705.5519999999,
      "d": 252.75708333338844,
      "v": 60
    },
    {
      "midi": 59,
      "hit": false,
      "t": 309710.14758333325,
      "d": 284.92616666672984,
      "v": 72
    },
    {
      "midi": 54,
      "hit": false,
      "t": 310043.327375,
      "d": 174.632166666619,
      "v": 64
    },
    {
      "midi": 50,
      "hit": false,
      "t": 310045.62516666664,
      "d": 170.03658333333442,
      "v": 56
    },
    {
      "midi": 57,
      "hit": false,
      "t": 310045.62516666664,
      "d": 197.61008333327482,
      "v": 72
    },
    {
      "midi": 38,
      "hit": false,
      "t": 310146.72799999994,
      "d": 271.13941666670144,
      "v": 88
    },
    {
      "midi": 33,
      "hit": false,
      "t": 310367.31599999993,
      "d": 1408.5462916668039,
      "v": 91
    },
    {
      "midi": 52,
      "hit": false,
      "t": 310808.492,
      "d": 71.23154166666791,
      "v": 72
    },
    {
      "midi": 48,
      "hit": false,
      "t": 310813.08758333337,
      "d": 73.5293333333102,
      "v": 52
    },
    {
      "midi": 52,
      "hit": false,
      "t": 311139.37400000007,
      "d": 85.0182916666381,
      "v": 68
    },
    {
      "midi": 48,
      "hit": false,
      "t": 311141.6717916667,
      "d": 75.82712500001071,
      "v": 44
    },
    {
      "midi": 52,
      "hit": false,
      "t": 311451.8736666667,
      "d": 273.43720833340194,
      "v": 72
    },
    {
      "midi": 55,
      "hit": false,
      "t": 311456.46925,
      "d": 321.69083333335584,
      "v": 60
    },
    {
      "midi": 52,
      "hit": false,
      "t": 311803.43579166674,
      "d": 147.05866666667862,
      "v": 52
    },
    {
      "midi": 48,
      "hit": false,
      "t": 311808.0313750001,
      "d": 107.99620833335212,
      "v": 64
    },
    {
      "midi": 33,
      "hit": false,
      "t": 311911.4320000001,
      "d": 436.58041666669305,
      "v": 76
    }
  ]
}