{
  "jsonPath": "Animes/Kimagure Orange Road MIDI Collection/my-little-girl.json",
  "path": "Animes\\Kimagure Orange Road MIDI Collection\\My Little Girl.mid",
  "name": "My Little Girl",
  "difficulty": "Advanced",
  "bpm": 65.000065000065,
  "notes": [
    {
      "midi": 55,
      "hit": false,
      "t": 6857.14,
      "d": 6857.14,
      "v": 100
    },
    {
      "midi": 64,
      "hit": false,
      "t": 6857.14,
      "d": 6857.14,
      "v": 100
    },
    {
      "midi": 60,
      "hit": false,
      "t": 6857.14,
      "d": 6857.14,
      "v": 100
    },
    {
      "midi": 48,
      "hit": false,
      "t": 6857.14,
      "d": 6857.14,
      "v": 100
    },
    {
      "midi": 64,
      "hit": false,
      "t": 10285.710000000001,
      "d": 946.4281770833331,
      "v": 100
    },
    {
      "midi": 65,
      "hit": false,
      "t": 11142.8525,
      "d": 1003.5710104166665,
      "v": 100
    },
    {
      "midi": 67,
      "hit": false,
      "t": 11999.995,
      "d": 1042.8567083333328,
      "v": 100
    },
    {
      "midi": 60,
      "hit": false,
      "t": 12857.1375,
      "d": 871.4282083333328,
      "v": 100
    },
    {
      "midi": 62,
      "hit": false,
      "t": 13714.28,
      "d": 6857.140000000001,
      "v": 100
    },
    {
      "midi": 55,
      "hit": false,
      "t": 13714.28,
      "d": 6857.140000000001,
      "v": 100
    },
    {
      "midi": 59,
      "hit": false,
      "t": 13714.28,
      "d": 6857.140000000001,
      "v": 100
    },
    {
      "midi": 47,
      "hit": false,
      "t": 13714.28,
      "d": 6857.140000000001,
      "v": 100
    },
    {
      "midi": 62,
      "hit": false,
      "t": 13714.28,
      "d": 2582.1417812500003,
      "v": 100
    },
    {
      "midi": 67,
      "hit": false,
      "t": 16285.7075,
      "d": 4217.855385416668,
      "v": 100
    },
    {
      "midi": 62,
      "hit": false,
      "t": 20571.420000000002,
      "d": 6857.139999999999,
      "v": 100
    },
    {
      "midi": 55,
      "hit": false,
      "t": 20571.420000000002,
      "d": 6857.139999999999,
      "v": 100
    },
    {
      "midi": 58,
      "hit": false,
      "t": 20571.420000000002,
      "d": 6857.139999999999,
      "v": 100
    },
    {
      "midi": 64,
      "hit": false,
      "t": 20571.420000000002,
      "d": 6857.139999999999,
      "v": 100
    },
    {
      "midi": 46,
      "hit": false,
      "t": 20571.420000000002,
      "d": 6857.139999999999,
      "v": 100
    },
    {
      "midi": 64,
      "hit": false,
      "t": 23999.99,
      "d": 853.5710729166676,
      "v": 100
    },
    {
      "midi": 65,
      "hit": false,
      "t": 24857.132500000003,
      "d": 946.4281770833368,
      "v": 100
    },
    {
      "midi": 67,
      "hit": false,
      "t": 25714.275000000005,
      "d": 985.7138750000013,
      "v": 100
    },
    {
      "midi": 62,
      "hit": false,
      "t": 26571.417500000007,
      "d": 2042.856291666667,
      "v": 100
    },
    {
      "midi": 62,
      "hit": false,
      "t": 27428.56,
      "d": 1714.2849999999999,
      "v": 100
    },
    {
      "midi": 57,
      "hit": false,
      "t": 27428.56,
      "d": 6857.140000000003,
      "v": 100
    },
    {
      "midi": 55,
      "hit": false,
      "t": 27428.56,
      "d": 6857.140000000003,
      "v": 100
    },
    {
      "midi": 45,
      "hit": false,
      "t": 27428.56,
      "d": 3428.5699999999997,
      "v": 100
    },
    {
      "midi": 64,
      "hit": false,
      "t": 28824.98798958334,
      "d": 174.9999270833323,
      "v": 100
    },
    {
      "midi": 62,
      "hit": false,
      "t": 28935.702229166673,
      "d": 203.57134374999805,
      "v": 100
    },
    {
      "midi": 61,
      "hit": false,
      "t": 29142.845,
      "d": 1714.2849999999999,
      "v": 100
    },
    {
      "midi": 61,
      "hit": false,
      "t": 29142.845000000005,
      "d": 1539.2850729166676,
      "v": 100
    },
    {
      "midi": 62,
      "hit": false,
      "t": 30857.13,
      "d": 1714.2849999999999,
      "v": 100
    },
    {
      "midi": 47,
      "hit": false,
      "t": 30857.13,
      "d": 1714.2849999999999,
      "v": 100
    },
    {
      "midi": 62,
      "hit": false,
      "t": 30857.130000000005,
      "d": 889.2853437500016,
      "v": 100
    },
    {
      "midi": 64,
      "hit": false,
      "t": 31714.272500000006,
      "d": 1932.1420520833344,
      "v": 100
    },
    {
      "midi": 64,
      "hit": false,
      "t": 32571.415,
      "d": 1714.2850000000035,
      "v": 100
    },
    {
      "midi": 49,
      "hit": false,
      "t": 32571.415,
      "d": 1714.2850000000035,
      "v": 100
    },
    {
      "midi": 65,
      "hit": false,
      "t": 33428.55750000001,
      "d": 3528.5699583333335,
      "v": 100
    },
    {
      "midi": 57,
      "hit": false,
      "t": 34285.700000000004,
      "d": 6857.139999999999,
      "v": 100
    },
    {
      "midi": 62,
      "hit": false,
      "t": 34285.700000000004,
      "d": 6857.139999999999,
      "v": 100
    },
    {
      "midi": 65,
      "hit": false,
      "t": 34285.700000000004,
      "d": 6857.139999999999,
      "v": 100
    },
    {
      "midi": 50,
      "hit": false,
      "t": 34285.700000000004,
      "d": 6857.139999999999,
      "v": 100
    },
    {
      "midi": 65,
      "hit": false,
      "t": 37714.27000000001,
      "d": 928.5710416666698,
      "v": 100
    },
    {
      "midi": 64,
      "hit": false,
      "t": 38571.41250000001,
      "d": 889.2853437500016,
      "v": 100
    },
    {
      "midi": 67,
      "hit": false,
      "t": 39428.555000000015,
      "d": 910.7139062499991,
      "v": 100
    },
    {
      "midi": 64,
      "hit": false,
      "t": 40285.69750000002,
      "d": 946.4281770833259,
      "v": 100
    },
    {
      "midi": 57,
      "hit": false,
      "t": 41142.840000000004,
      "d": 6857.139999999999,
      "v": 100
    },
    {
      "midi": 61,
      "hit": false,
      "t": 41142.840000000004,
      "d": 6857.139999999999,
      "v": 100
    },
    {
      "midi": 65,
      "hit": false,
      "t": 41142.840000000004,
      "d": 6857.139999999999,
      "v": 100
    },
    {
      "midi": 49,
      "hit": false,
      "t": 41142.840000000004,
      "d": 6857.139999999999,
      "v": 100
    },
    {
      "midi": 65,
      "hit": false,
      "t": 41142.84000000001,
      "d": 3360.712885416666,
      "v": 100
    },
    {
      "midi": 67,
      "hit": false,
      "t": 45207.12402083334,
      "d": 314.2855833333306,
      "v": 100
    },
    {
      "midi": 65,
      "hit": false,
      "t": 45299.981125000006,
      "d": 353.5712812499987,
      "v": 100
    },
    {
      "midi": 64,
      "hit": false,
      "t": 45428.552500000005,
      "d": 685.7139999999999,
      "v": 100
    },
    {
      "midi": 62,
      "hit": false,
      "t": 46285.69500000001,
      "d": 892.8567708333358,
      "v": 100
    },
    {
      "midi": 64,
      "hit": false,
      "t": 47142.83750000001,
      "d": 967.8567395833379,
      "v": 100
    },
    {
      "midi": 57,
      "hit": false,
      "t": 47999.98,
      "d": 6857.139999999999,
      "v": 100
    },
    {
      "midi": 62,
      "hit": false,
      "t": 47999.98,
      "d": 6857.139999999999,
      "v": 100
    },
    {
      "midi": 65,
      "hit": false,
      "t": 47999.98,
      "d": 6857.139999999999,
      "v": 100
    },
    {
      "midi": 48,
      "hit": false,
      "t": 47999.98,
      "d": 6857.139999999999,
      "v": 100
    },
    {
      "midi": 65,
      "hit": false,
      "t": 47999.98000000001,
      "d": 4285.7125000000015,
      "v": 100
    },
    {
      "midi": 64,
      "hit": false,
      "t": 52285.69250000001,
      "d": 857.1425000000017,
      "v": 100
    },
    {
      "midi": 67,
      "hit": false,
      "t": 53142.835000000014,
      "d": 857.1425000000017,
      "v": 100
    },
    {
      "midi": 64,
      "hit": false,
      "t": 53999.977500000015,
      "d": 857.1425000000017,
      "v": 100
    },
    {
      "midi": 59,
      "hit": false,
      "t": 54857.12,
      "d": 3428.5699999999997,
      "v": 100
    },
    {
      "midi": 62,
      "hit": false,
      "t": 54857.12,
      "d": 3428.5699999999997,
      "v": 100
    },
    {
      "midi": 65,
      "hit": false,
      "t": 54857.12,
      "d": 3428.5699999999997,
      "v": 100
    },
    {
      "midi": 47,
      "hit": false,
      "t": 54857.12,
      "d": 3428.5699999999997,
      "v": 100
    },
    {
      "midi": 62,
      "hit": false,
      "t": 56571.40500000002,
      "d": 857.1425000000017,
      "v": 100
    },
    {
      "midi": 61,
      "hit": false,
      "t": 57428.54750000002,
      "d": 428.5712500000009,
      "v": 100
    },
    {
      "midi": 62,
      "hit": false,
      "t": 57857.11875000002,
      "d": 428.5712500000009,
      "v": 100
    },
    {
      "midi": 62,
      "hit": false,
      "t": 58285.69,
      "d": 3428.5699999999997,
      "v": 100
    },
    {
      "midi": 59,
      "hit": false,
      "t": 58285.69,
      "d": 3428.5699999999997,
      "v": 100
    },
    {
      "midi": 64,
      "hit": false,
      "t": 58285.69,
      "d": 3428.5699999999997,
      "v": 100
    },
    {
      "midi": 40,
      "hit": false,
      "t": 58285.69,
      "d": 3428.5699999999997,
      "v": 100
    },
    {
      "midi": 64,
      "hit": false,
      "t": 58285.690000000024,
      "d": 428.5712500000009,
      "v": 100
    },
    {
      "midi": 70,
      "hit": false,
      "t": 59017.83255208336,
      "d": 428.5712499999936,
      "v": 100
    },
    {
      "midi": 71,
      "hit": false,
      "t": 59142.832500000026,
      "d": 428.5712499999936,
      "v": 100
    },
    {
      "midi": 72,
      "hit": false,
      "t": 59324.97528125002,
      "d": 857.1424999999945,
      "v": 100
    },
    {
      "midi": 71,
      "hit": false,
      "t": 59999.97500000002,
      "d": 857.1424999999945,
      "v": 100
    },
    {
      "midi": 65,
      "hit": false,
      "t": 60857.117500000015,
      "d": 857.1425000000017,
      "v": 100
    },
    {
      "midi": 59,
      "hit": false,
      "t": 61714.26,
      "d": 6857.140000000007,
      "v": 100
    },
    {
      "midi": 64,
      "hit": false,
      "t": 61714.26,
      "d": 6857.140000000007,
      "v": 100
    },
    {
      "midi": 61,
      "hit": false,
      "t": 61714.26,
      "d": 6857.140000000007,
      "v": 100
    },
    {
      "midi": 45,
      "hit": false,
      "t": 61714.26,
      "d": 6857.140000000007,
      "v": 100
    },
    {
      "midi": 64,
      "hit": false,
      "t": 61714.26000000002,
      "d": 2999.998749999999,
      "v": 100
    },
    {
      "midi": 69,
      "hit": false,
      "t": 64714.258750000015,
      "d": 214.2856249999968,
      "v": 100
    },
    {
      "midi": 71,
      "hit": false,
      "t": 64928.54437500001,
      "d": 214.2856249999968,
      "v": 100
    },
    {
      "midi": 73,
      "hit": false,
      "t": 65142.83000000001,
      "d": 857.1424999999945,
      "v": 100
    },
    {
      "midi": 74,
      "hit": false,
      "t": 65999.9725,
      "d": 857.1425000000017,
      "v": 100
    },
    {
      "midi": 76,
      "hit": false,
      "t": 66857.115,
      "d": 857.1425000000017,
      "v": 100
    },
    {
      "midi": 73,
      "hit": false,
      "t": 67714.2575,
      "d": 857.1425000000017,
      "v": 100
    },
    {
      "midi": 64,
      "hit": false,
      "t": 68571.40000000001,
      "d": 6857.139999999999,
      "v": 100
    },
    {
      "midi": 59,
      "hit": false,
      "t": 68571.40000000001,
      "d": 6857.139999999999,
      "v": 100
    },
    {
      "midi": 56,
      "hit": false,
      "t": 68571.40000000001,
      "d": 6857.139999999999,
      "v": 100
    },
    {
      "midi": 44,
      "hit": false,
      "t": 68571.40000000001,
      "d": 6857.139999999999,
      "v": 100
    },
    {
      "midi": 71,
      "hit": false,
      "t": 68571.40000000001,
      "d": 2571.4275000000052,
      "v": 100
    },
    {
      "midi": 76,
      "hit": false,
      "t": 71142.82750000001,
      "d": 2571.4275000000052,
      "v": 100
    },
    {
      "midi": 71,
      "hit": false,
      "t": 73714.25500000002,
      "d": 4285.712499999994,
      "v": 100
    },
    {
      "midi": 64,
      "hit": false,
      "t": 75428.54000000001,
      "d": 6857.139999999999,
      "v": 100
    },
    {
      "midi": 59,
      "hit": false,
      "t": 75428.54000000001,
      "d": 6857.139999999999,
      "v": 100
    },
    {
      "midi": 55,
      "hit": false,
      "t": 75428.54000000001,
      "d": 6857.139999999999,
      "v": 100
    },
    {
      "midi": 43,
      "hit": false,
      "t": 75428.54000000001,
      "d": 6857.139999999999,
      "v": 100
    },
    {
      "midi": 74,
      "hit": false,
      "t": 77999.96750000001,
      "d": 428.5712499999936,
      "v": 100
    },
    {
      "midi": 76,
      "hit": false,
      "t": 78428.53875,
      "d": 428.5712499999936,
      "v": 100
    },
    {
      "midi": 73,
      "hit": false,
      "t": 78792.8243125,
      "d": 428.5712499999936,
      "v": 100
    },
    {
      "midi": 74,
      "hit": false,
      "t": 78978.53852083333,
      "d": 857.1424999999872,
      "v": 100
    },
    {
      "midi": 73,
      "hit": false,
      "t": 79714.25249999999,
      "d": 1039.285281250006,
      "v": 100
    },
    {
      "midi": 71,
      "hit": false,
      "t": 80571.39499999999,
      "d": 857.1425000000017,
      "v": 100
    },
    {
      "midi": 73,
      "hit": false,
      "t": 81428.53749999999,
      "d": 857.1425000000017,
      "v": 100
    },
    {
      "midi": 71,
      "hit": false,
      "t": 82285.68,
      "d": 1714.2850000000035,
      "v": 100
    },
    {
      "midi": 59,
      "hit": false,
      "t": 82285.68000000001,
      "d": 1714.2850000000035,
      "v": 100
    },
    {
      "midi": 54,
      "hit": false,
      "t": 82285.68000000001,
      "d": 3428.570000000007,
      "v": 100
    },
    {
      "midi": 61,
      "hit": false,
      "t": 82285.68000000001,
      "d": 5142.8550000000105,
      "v": 100
    },
    {
      "midi": 42,
      "hit": false,
      "t": 82285.68000000001,
      "d": 3428.570000000007,
      "v": 100
    },
    {
      "midi": 70,
      "hit": false,
      "t": 83999.965,
      "d": 1714.2850000000035,
      "v": 100
    },
    {
      "midi": 58,
      "hit": false,
      "t": 83999.96500000001,
      "d": 1714.2850000000035,
      "v": 100
    },
    {
      "midi": 71,
      "hit": false,
      "t": 85714.25,
      "d": 857.1425000000017,
      "v": 100
    },
    {
      "midi": 54,
      "hit": false,
      "t": 85714.25000000001,
      "d": 1714.2850000000035,
      "v": 100
    },
    {
      "midi": 59,
      "hit": false,
      "t": 85714.25000000001,
      "d": 1714.2850000000035,
      "v": 100
    },
    {
      "midi": 44,
      "hit": false,
      "t": 85714.25000000001,
      "d": 1714.2850000000035,
      "v": 100
    },
    {
      "midi": 73,
      "hit": false,
      "t": 86571.3925,
      "d": 1714.2850000000035,
      "v": 100
    },
    {
      "midi": 54,
      "hit": false,
      "t": 87428.53500000002,
      "d": 1714.2850000000035,
      "v": 100
    },
    {
      "midi": 58,
      "hit": false,
      "t": 87428.53500000002,
      "d": 1714.2850000000035,
      "v": 100
    },
    {
      "midi": 61,
      "hit": false,
      "t": 87428.53500000002,
      "d": 1714.2850000000035,
      "v": 100
    },
    {
      "midi": 46,
      "hit": false,
      "t": 87428.53500000002,
      "d": 1714.2850000000035,
      "v": 100
    },
    {
      "midi": 74,
      "hit": false,
      "t": 88285.6775,
      "d": 4285.712499999994,
      "v": 100
    },
    {
      "midi": 54,
      "hit": false,
      "t": 89142.82000000002,
      "d": 6857.139999999999,
      "v": 100
    },
    {
      "midi": 59,
      "hit": false,
      "t": 89142.82000000002,
      "d": 6857.139999999999,
      "v": 100
    },
    {
      "midi": 62,
      "hit": false,
      "t": 89142.82000000002,
      "d": 6857.139999999999,
      "v": 100
    },
    {
      "midi": 47,
      "hit": false,
      "t": 89142.82000000002,
      "d": 6857.139999999999,
      "v": 100
    },
    {
      "midi": 76,
      "hit": false,
      "t": 92571.39,
      "d": 857.1425000000017,
      "v": 100
    },
    {
      "midi": 74,
      "hit": false,
      "t": 93428.5325,
      "d": 1714.2850000000035,
      "v": 100
    },
    {
      "midi": 73,
      "hit": false,
      "t": 95142.8175,
      "d": 428.5712499999936,
      "v": 100
    },
    {
      "midi": 71,
      "hit": false,
      "t": 95571.38875,
      "d": 428.5712499999936,
      "v": 100
    },
    {
      "midi": 73,
      "hit": false,
      "t": 95935.67431249999,
      "d": 428.5712499999936,
      "v": 100
    },
    {
      "midi": 74,
      "hit": false,
      "t": 95999.95999999999,
      "d": 3428.5699999999924,
      "v": 100
    },
    {
      "midi": 54,
      "hit": false,
      "t": 95999.96000000002,
      "d": 6857.139999999999,
      "v": 100
    },
    {
      "midi": 62,
      "hit": false,
      "t": 95999.96000000002,
      "d": 6857.139999999999,
      "v": 100
    },
    {
      "midi": 58,
      "hit": false,
      "t": 95999.96000000002,
      "d": 6857.139999999999,
      "v": 100
    },
    {
      "midi": 46,
      "hit": false,
      "t": 95999.96000000002,
      "d": 6857.139999999999,
      "v": 100
    },
    {
      "midi": 66,
      "hit": false,
      "t": 99428.52999999998,
      "d": 857.1425000000017,
      "v": 100
    },
    {
      "midi": 71,
      "hit": false,
      "t": 100285.67249999999,
      "d": 857.1425000000017,
      "v": 100
    },
    {
      "midi": 73,
      "hit": false,
      "t": 101142.81499999999,
      "d": 857.1425000000017,
      "v": 100
    },
    {
      "midi": 74,
      "hit": false,
      "t": 101999.95749999999,
      "d": 671.4282916666707,
      "v": 100
    },
    {
      "midi": 73,
      "hit": false,
      "t": 102671.38579166666,
      "d": 303.57130208333547,
      "v": 100
    },
    {
      "midi": 74,
      "hit": false,
      "t": 102857.09999999999,
      "d": 2571.4275000000052,
      "v": 100
    },
    {
      "midi": 54,
      "hit": false,
      "t": 102857.10000000002,
      "d": 6857.139999999999,
      "v": 100
    },
    {
      "midi": 59,
      "hit": false,
      "t": 102857.10000000002,
      "d": 6857.139999999999,
      "v": 100
    },
    {
      "midi": 62,
      "hit": false,
      "t": 102857.10000000002,
      "d": 6857.139999999999,
      "v": 100
    },
    {
      "midi": 45,
      "hit": false,
      "t": 102857.10000000002,
      "d": 6857.139999999999,
      "v": 100
    },
    {
      "midi": 73,
      "hit": false,
      "t": 105428.5275,
      "d": 428.5712499999936,
      "v": 100
    },
    {
      "midi": 74,
      "hit": false,
      "t": 105857.09874999999,
      "d": 428.5712499999936,
      "v": 100
    },
    {
      "midi": 76,
      "hit": false,
      "t": 106285.66999999998,
      "d": 857.1425000000017,
      "v": 100
    },
    {
      "midi": 74,
      "hit": false,
      "t": 107142.81249999999,
      "d": 1714.2850000000035,
      "v": 100
    },
    {
      "midi": 73,
      "hit": false,
      "t": 108857.09749999999,
      "d": 428.5712499999936,
      "v": 100
    },
    {
      "midi": 71,
      "hit": false,
      "t": 109285.66874999998,
      "d": 428.57125000000815,
      "v": 100
    },
    {
      "midi": 73,
      "hit": false,
      "t": 109589.24005208332,
      "d": 303.57130208333547,
      "v": 100
    },
    {
      "midi": 74,
      "hit": false,
      "t": 109714.23999999999,
      "d": 4285.712499999994,
      "v": 100
    },
    {
      "midi": 66,
      "hit": false,
      "t": 109714.24000000002,
      "d": 3428.570000000007,
      "v": 100
    },
    {
      "midi": 62,
      "hit": false,
      "t": 109714.24000000002,
      "d": 3428.570000000007,
      "v": 100
    },
    {
      "midi": 59,
      "hit": false,
      "t": 109714.24000000002,
      "d": 3428.570000000007,
      "v": 100
    },
    {
      "midi": 44,
      "hit": false,
      "t": 109714.24000000002,
      "d": 3428.570000000007,
      "v": 100
    },
    {
      "midi": 59,
      "hit": false,
      "t": 113142.81000000003,
      "d": 3428.570000000007,
      "v": 100
    },
    {
      "midi": 62,
      "hit": false,
      "t": 113142.81000000003,
      "d": 3428.570000000007,
      "v": 100
    },
    {
      "midi": 65,
      "hit": false,
      "t": 113142.81000000003,
      "d": 3428.570000000007,
      "v": 100
    },
    {
      "midi": 49,
      "hit": false,
      "t": 113142.81000000003,
      "d": 3428.570000000007,
      "v": 100
    },
    {
      "midi": 74,
      "hit": false,
      "t": 113999.95249999998,
      "d": 857.1425000000017,
      "v": 100
    },
    {
      "midi": 73,
      "hit": false,
      "t": 114857.09499999999,
      "d": 857.1425000000017,
      "v": 100
    },
    {
      "midi": 71,
      "hit": false,
      "t": 115714.23749999999,
      "d": 857.1425000000017,
      "v": 100
    },
    {
      "midi": 70,
      "hit": false,
      "t": 116571.37999999999,
      "d": 2571.4275000000052,
      "v": 100
    },
    {
      "midi": 65,
      "hit": false,
      "t": 116571.38000000003,
      "d": 6857.139999999999,
      "v": 100
    },
    {
      "midi": 61,
      "hit": false,
      "t": 116571.38000000003,
      "d": 6857.139999999999,
      "v": 100
    },
    {
      "midi": 58,
      "hit": false,
      "t": 116571.38000000003,
      "d": 6857.139999999999,
      "v": 100
    },
    {
      "midi": 54,
      "hit": false,
      "t": 116571.38000000003,
      "d": 13714.279999999999,
      "v": 100
    },
    {
      "midi": 71,
      "hit": false,
      "t": 119142.8075,
      "d": 857.1425000000017,
      "v": 100
    },
    {
      "midi": 73,
      "hit": false,
      "t": 119999.95,
      "d": 3428.570000000007,
      "v": 100
    },
    {
      "midi": 72,
      "hit": false,
      "t": 123428.52,
      "d": 428.5712499999936,
      "v": 100
    },
    {
      "midi": 56,
      "hit": false,
      "t": 123428.52000000003,
      "d": 13714.280000000013,
      "v": 100
    },
    {
      "midi": 60,
      "hit": false,
      "t": 123428.52000000003,
      "d": 13714.280000000013,
      "v": 100
    },
    {
      "midi": 63,
      "hit": false,
      "t": 123428.52000000003,
      "d": 13714.280000000013,
      "v": 100
    },
    {
      "midi": 73,
      "hit": false,
      "t": 123857.09125,
      "d": 428.5712499999936,
      "v": 100
    },
    {
      "midi": 75,
      "hit": false,
      "t": 124285.66249999999,
      "d": 5999.997499999998,
      "v": 100
    },
    {
      "midi": 53,
      "hit": false,
      "t": 130285.66000000003,
      "d": 6857.140000000014,
      "v": 100
    },
    {
      "midi": 68,
      "hit": false,
      "t": 131999.94499999998,
      "d": 857.1424999999872,
      "v": 100
    },
    {
      "midi": 70,
      "hit": false,
      "t": 132857.08749999997,
      "d": 857.1424999999872,
      "v": 100
    },
    {
      "midi": 72,
      "hit": false,
      "t": 133714.22999999995,
      "d": 857.1424999999872,
      "v": 100
    },
    {
      "midi": 73,
      "hit": false,
      "t": 134571.37249999994,
      "d": 1714.2850000000035,
      "v": 100
    },
    {
      "midi": 75,
      "hit": false,
      "t": 136649.94306249995,
      "d": 64.28568749999977,
      "v": 100
    },
    {
      "midi": 77,
      "hit": false,
      "t": 136714.22874999995,
      "d": 428.57125000000815,
      "v": 100
    },
    {
      "midi": 75,
      "hit": false,
      "t": 137142.79999999996,
      "d": 1714.2850000000035,
      "v": 100
    },
    {
      "midi": 65,
      "hit": false,
      "t": 137142.80000000005,
      "d": 3428.570000000007,
      "v": 100
    },
    {
      "midi": 58,
      "hit": false,
      "t": 137142.80000000005,
      "d": 3428.570000000007,
      "v": 100
    },
    {
      "midi": 61,
      "hit": false,
      "t": 137142.80000000005,
      "d": 3428.570000000007,
      "v": 100
    },
    {
      "midi": 58,
      "hit": false,
      "t": 137142.80000000005,
      "d": 3428.570000000007,
      "v": 100
    },
    {
      "midi": 73,
      "hit": false,
      "t": 138857.08499999996,
      "d": 3428.570000000007,
      "v": 100
    },
    {
      "midi": 53,
      "hit": false,
      "t": 140571.37000000005,
      "d": 3428.570000000007,
      "v": 100
    },
    {
      "midi": 56,
      "hit": false,
      "t": 140571.37000000005,
      "d": 3428.570000000007,
      "v": 100
    },
    {
      "midi": 60,
      "hit": false,
      "t": 140571.37000000005,
      "d": 3428.570000000007,
      "v": 100
    },
    {
      "midi": 56,
      "hit": false,
      "t": 140571.37000000005,
      "d": 3428.570000000007,
      "v": 100
    },
    {
      "midi": 72,
      "hit": false,
      "t": 142285.65499999997,
      "d": 857.1424999999872,
      "v": 100
    },
    {
      "midi": 73,
      "hit": false,
      "t": 143142.79749999996,
      "d": 857.1424999999872,
      "v": 100
    },
    {
      "midi": 76,
      "hit": false,
      "t": 143874.9400520833,
      "d": 428.57124999997905,
      "v": 100
    },
    {
      "midi": 77,
      "hit": false,
      "t": 143999.93999999994,
      "d": 1714.2849999999744,
      "v": 100
    },
    {
      "midi": 58,
      "hit": false,
      "t": 143999.94000000006,
      "d": 6857.140000000014,
      "v": 100
    },
    {
      "midi": 61,
      "hit": false,
      "t": 143999.94000000006,
      "d": 6857.140000000014,
      "v": 100
    },
    {
      "midi": 65,
      "hit": false,
      "t": 143999.94000000006,
      "d": 6857.140000000014,
      "v": 100
    },
    {
      "midi": 54,
      "hit": false,
      "t": 143999.94000000006,
      "d": 13714.279999999999,
      "v": 100
    },
    {
      "midi": 78,
      "hit": false,
      "t": 145714.22499999992,
      "d": 1285.7137499999953,
      "v": 100
    },
    {
      "midi": 75,
      "hit": false,
      "t": 147121.36727083326,
      "d": 428.57125000000815,
      "v": 100
    },
    {
      "midi": 76,
      "hit": false,
      "t": 147303.51005208326,
      "d": 428.57125000000815,
      "v": 100
    },
    {
      "midi": 77,
      "hit": false,
      "t": 147428.50999999992,
      "d": 1285.7137500000244,
      "v": 100
    },
    {
      "midi": 75,
      "hit": false,
      "t": 148714.22374999995,
      "d": 1285.7137499999953,
      "v": 100
    },
    {
      "midi": 73,
      "hit": false,
      "t": 149999.93749999994,
      "d": 428.57125000000815,
      "v": 100
    },
    {
      "midi": 75,
      "hit": false,
      "t": 150428.50874999995,
      "d": 428.57125000000815,
      "v": 100
    },
    {
      "midi": 72,
      "hit": false,
      "t": 150857.07999999996,
      "d": 428.57125000000815,
      "v": 100
    },
    {
      "midi": 56,
      "hit": false,
      "t": 150857.08000000007,
      "d": 13714.279999999999,
      "v": 100
    },
    {
      "midi": 60,
      "hit": false,
      "t": 150857.08000000007,
      "d": 13714.279999999999,
      "v": 100
    },
    {
      "midi": 63,
      "hit": false,
      "t": 150857.08000000007,
      "d": 13714.279999999999,
      "v": 100
    },
    {
      "midi": 73,
      "hit": false,
      "t": 151285.65124999997,
      "d": 428.57125000000815,
      "v": 100
    },
    {
      "midi": 75,
      "hit": false,
      "t": 151714.22249999997,
      "d": 5999.997499999998,
      "v": 100
    },
    {
      "midi": 53,
      "hit": false,
      "t": 157714.22000000006,
      "d": 6857.140000000014,
      "v": 100
    },
    {
      "midi": 68,
      "hit": false,
      "t": 159428.50499999998,
      "d": 857.1424999999872,
      "v": 100
    },
    {
      "midi": 70,
      "hit": false,
      "t": 160285.64749999996,
      "d": 857.1424999999872,
      "v": 100
    },
    {
      "midi": 72,
      "hit": false,
      "t": 161142.78999999995,
      "d": 857.1424999999872,
      "v": 100
    },
    {
      "midi": 73,
      "hit": false,
      "t": 161999.93249999994,
      "d": 857.1424999999872,
      "v": 100
    },
    {
      "midi": 75,
      "hit": false,
      "t": 162857.07499999992,
      "d": 857.1424999999872,
      "v": 100
    },
    {
      "midi": 77,
      "hit": false,
      "t": 163714.2174999999,
      "d": 857.1424999999872,
      "v": 100
    },
    {
      "midi": 74,
      "hit": false,
      "t": 164446.36005208324,
      "d": 428.57124999997905,
      "v": 100
    },
    {
      "midi": 75,
      "hit": false,
      "t": 164571.3599999999,
      "d": 1714.2849999999744,
      "v": 100
    },
    {
      "midi": 63,
      "hit": false,
      "t": 164571.36000000007,
      "d": 1714.2850000000035,
      "v": 100
    },
    {
      "midi": 53,
      "hit": false,
      "t": 164571.36000000007,
      "d": 5142.8550000000105,
      "v": 100
    },
    {
      "midi": 58,
      "hit": false,
      "t": 164571.36000000007,
      "d": 6857.140000000014,
      "v": 100
    },
    {
      "midi": 58,
      "hit": false,
      "t": 164571.36000000007,
      "d": 6857.140000000014,
      "v": 100
    },
    {
      "midi": 74,
      "hit": false,
      "t": 166285.64499999987,
      "d": 1714.2850000000035,
      "v": 100
    },
    {
      "midi": 62,
      "hit": false,
      "t": 166285.64500000008,
      "d": 1714.2850000000035,
      "v": 100
    },
    {
      "midi": 75,
      "hit": false,
      "t": 167999.92999999988,
      "d": 1714.2850000000035,
      "v": 100
    },
    {
      "midi": 63,
      "hit": false,
      "t": 167999.93000000008,
      "d": 1714.2850000000035,
      "v": 100
    },
    {
      "midi": 76,
      "hit": false,
      "t": 169589.21505208322,
      "d": 428.57124999997905,
      "v": 100
    },
    {
      "midi": 77,
      "hit": false,
      "t": 169714.21499999988,
      "d": 1714.2849999999744,
      "v": 100
    },
    {
      "midi": 62,
      "hit": false,
      "t": 169714.21500000008,
      "d": 1714.2850000000035,
      "v": 100
    },
    {
      "midi": 65,
      "hit": false,
      "t": 169714.21500000008,
      "d": 1714.2850000000035,
      "v": 100
    },
    {
      "midi": 51,
      "hit": false,
      "t": 171428.5000000001,
      "d": 13714.279999999999,
      "v": 100
    },
    {
      "midi": 55,
      "hit": false,
      "t": 171428.5000000001,
      "d": 13714.279999999999,
      "v": 100
    },
    {
      "midi": 46,
      "hit": false,
      "t": 171428.5000000001,
      "d": 13714.279999999999,
      "v": 100
    },
    {
      "midi": 39,
      "hit": false,
      "t": 171428.5000000001,
      "d": 6857.140000000014,
      "v": 100
    },
    {
      "midi": 67,
      "hit": false,
      "t": 172285.64249999984,
      "d": 917.8567604166456,
      "v": 100
    },
    {
      "midi": 72,
      "hit": false,
      "t": 173142.78499999983,
      "d": 857.1424999999872,
      "v": 100
    },
    {
      "midi": 69,
      "hit": false,
      "t": 173999.92749999982,
      "d": 857.1424999999872,
      "v": 100
    },
    {
      "midi": 79,
      "hit": false,
      "t": 174857.0699999998,
      "d": 857.1424999999872,
      "v": 100
    },
    {
      "midi": 57,
      "hit": false,
      "t": 174857.0700000001,
      "d": 10285.709999999992,
      "v": 100
    },
    {
      "midi": 77,
      "hit": false,
      "t": 175714.2124999998,
      "d": 857.1424999999872,
      "v": 100
    },
    {
      "midi": 84,
      "hit": false,
      "t": 176571.35499999978,
      "d": 857.1424999999872,
      "v": 100
    },
    {
      "midi": 81,
      "hit": false,
      "t": 177428.49749999976,
      "d": 857.1424999999872,
      "v": 100
    }
  ]
}