{
  "jsonPath": "Unknown/Unknown/Harold FaltermeyerSteve Stevens/top-gun-anthem.json",
  "path": "Unknown\\Unknown\\Harold FaltermeyerSteve Stevens\\Top Gun Anthem.mid",
  "name": "Top Gun Anthem",
  "difficulty": "Advanced",
  "bpm": 113.00009605008164,
  "notes": [
    {
      "midi": 67,
      "hit": false,
      "t": 65309.679000000004,
      "d": 442.4774999999936,
      "v": 110
    },
    {
      "midi": 79,
      "hit": false,
      "t": 65309.679000000004,
      "d": 442.4774999999936,
      "v": 110
    },
    {
      "midi": 72,
      "hit": false,
      "t": 65840.652,
      "d": 929.2027499999967,
      "v": 110
    },
    {
      "midi": 84,
      "hit": false,
      "t": 65840.652,
      "d": 929.2027499999967,
      "v": 110
    },
    {
      "midi": 46,
      "hit": false,
      "t": 65840.652,
      "d": 259.9555312500015,
      "v": 110
    },
    {
      "midi": 53,
      "hit": false,
      "t": 66106.1385,
      "d": 259.9555312500015,
      "v": 110
    },
    {
      "midi": 58,
      "hit": false,
      "t": 66371.625,
      "d": 259.9555312500015,
      "v": 110
    },
    {
      "midi": 62,
      "hit": false,
      "t": 66637.1115,
      "d": 259.9555312500015,
      "v": 110
    },
    {
      "midi": 60,
      "hit": false,
      "t": 66902.598,
      "d": 392.69878125000105,
      "v": 110
    },
    {
      "midi": 72,
      "hit": false,
      "t": 66902.598,
      "d": 392.69878125000105,
      "v": 110
    },
    {
      "midi": 53,
      "hit": false,
      "t": 66902.598,
      "d": 442.4774999999936,
      "v": 110
    },
    {
      "midi": 62,
      "hit": false,
      "t": 67300.82775,
      "d": 392.69878125000105,
      "v": 110
    },
    {
      "midi": 74,
      "hit": false,
      "t": 67300.82775,
      "d": 392.69878125000105,
      "v": 110
    },
    {
      "midi": 50,
      "hit": false,
      "t": 67433.571,
      "d": 442.4774999999936,
      "v": 110
    },
    {
      "midi": 64,
      "hit": false,
      "t": 67699.0575,
      "d": 259.9555312500015,
      "v": 110
    },
    {
      "midi": 76,
      "hit": false,
      "t": 67699.0575,
      "d": 259.9555312500015,
      "v": 110
    },
    {
      "midi": 64,
      "hit": false,
      "t": 67964.544,
      "d": 929.2027499999967,
      "v": 110
    },
    {
      "midi": 76,
      "hit": false,
      "t": 67964.544,
      "d": 929.2027499999967,
      "v": 110
    },
    {
      "midi": 45,
      "hit": false,
      "t": 67964.544,
      "d": 259.9555312500015,
      "v": 110
    },
    {
      "midi": 52,
      "hit": false,
      "t": 68230.0305,
      "d": 259.9555312500015,
      "v": 110
    },
    {
      "midi": 57,
      "hit": false,
      "t": 68495.51699999999,
      "d": 259.9555312500015,
      "v": 110
    },
    {
      "midi": 60,
      "hit": false,
      "t": 68761.00349999999,
      "d": 259.9555312500015,
      "v": 110
    },
    {
      "midi": 64,
      "hit": false,
      "t": 69026.48999999999,
      "d": 442.4774999999936,
      "v": 110
    },
    {
      "midi": 60,
      "hit": false,
      "t": 69557.46299999999,
      "d": 442.4774999999936,
      "v": 110
    },
    {
      "midi": 72,
      "hit": false,
      "t": 69557.46299999999,
      "d": 442.4774999999936,
      "v": 110
    },
    {
      "midi": 52,
      "hit": false,
      "t": 69557.46299999999,
      "d": 442.4774999999936,
      "v": 110
    },
    {
      "midi": 65,
      "hit": false,
      "t": 70088.43599999999,
      "d": 707.9640000000072,
      "v": 110
    },
    {
      "midi": 77,
      "hit": false,
      "t": 70088.43599999999,
      "d": 707.9640000000072,
      "v": 110
    },
    {
      "midi": 50,
      "hit": false,
      "t": 70088.43599999999,
      "d": 259.9555312500015,
      "v": 110
    },
    {
      "midi": 53,
      "hit": false,
      "t": 70353.92249999999,
      "d": 259.9555312500015,
      "v": 110
    },
    {
      "midi": 57,
      "hit": false,
      "t": 70619.40899999999,
      "d": 259.9555312500015,
      "v": 110
    },
    {
      "midi": 62,
      "hit": false,
      "t": 70884.89549999998,
      "d": 259.9555312500015,
      "v": 110
    },
    {
      "midi": 53,
      "hit": false,
      "t": 71150.38199999998,
      "d": 442.4774999999936,
      "v": 110
    },
    {
      "midi": 57,
      "hit": false,
      "t": 71150.382,
      "d": 392.69878125000105,
      "v": 110
    },
    {
      "midi": 69,
      "hit": false,
      "t": 71150.382,
      "d": 392.69878125000105,
      "v": 110
    },
    {
      "midi": 59,
      "hit": false,
      "t": 71548.61175,
      "d": 392.69878125000105,
      "v": 110
    },
    {
      "midi": 71,
      "hit": false,
      "t": 71548.61175,
      "d": 392.69878125000105,
      "v": 110
    },
    {
      "midi": 38,
      "hit": false,
      "t": 71681.35499999998,
      "d": 442.4774999999936,
      "v": 110
    },
    {
      "midi": 60,
      "hit": false,
      "t": 71946.8415,
      "d": 259.9555312500015,
      "v": 110
    },
    {
      "midi": 72,
      "hit": false,
      "t": 71946.8415,
      "d": 259.9555312500015,
      "v": 110
    },
    {
      "midi": 43,
      "hit": false,
      "t": 72212.32799999998,
      "d": 929.2027499999967,
      "v": 110
    },
    {
      "midi": 55,
      "hit": false,
      "t": 72212.32799999998,
      "d": 929.2027499999967,
      "v": 110
    },
    {
      "midi": 60,
      "hit": false,
      "t": 72212.328,
      "d": 707.9640000000072,
      "v": 110
    },
    {
      "midi": 65,
      "hit": false,
      "t": 72212.328,
      "d": 707.9640000000072,
      "v": 110
    },
    {
      "midi": 69,
      "hit": false,
      "t": 72212.328,
      "d": 707.9640000000072,
      "v": 110
    },
    {
      "midi": 72,
      "hit": false,
      "t": 72212.328,
      "d": 707.9640000000072,
      "v": 110
    },
    {
      "midi": 43,
      "hit": false,
      "t": 73274.27399999998,
      "d": 929.2027499999967,
      "v": 110
    },
    {
      "midi": 53,
      "hit": false,
      "t": 73274.274,
      "d": 259.9555312500015,
      "v": 110
    },
    {
      "midi": 57,
      "hit": false,
      "t": 73274.274,
      "d": 259.9555312500015,
      "v": 110
    },
    {
      "midi": 62,
      "hit": false,
      "t": 73274.274,
      "d": 259.9555312500015,
      "v": 110
    },
    {
      "midi": 74,
      "hit": false,
      "t": 73274.274,
      "d": 259.9555312500015,
      "v": 110
    },
    {
      "midi": 53,
      "hit": false,
      "t": 73539.7605,
      "d": 259.9555312500015,
      "v": 110
    },
    {
      "midi": 57,
      "hit": false,
      "t": 73805.247,
      "d": 259.9555312500015,
      "v": 110
    },
    {
      "midi": 62,
      "hit": false,
      "t": 74070.7335,
      "d": 259.9555312500015,
      "v": 110
    },
    {
      "midi": 43,
      "hit": false,
      "t": 74336.21999999997,
      "d": 929.2027499999967,
      "v": 110
    },
    {
      "midi": 55,
      "hit": false,
      "t": 74336.22,
      "d": 259.9555312500015,
      "v": 110
    },
    {
      "midi": 60,
      "hit": false,
      "t": 74336.22,
      "d": 259.9555312500015,
      "v": 110
    },
    {
      "midi": 64,
      "hit": false,
      "t": 74336.22,
      "d": 259.9555312500015,
      "v": 110
    },
    {
      "midi": 79,
      "hit": false,
      "t": 74336.22,
      "d": 259.9555312500015,
      "v": 110
    },
    {
      "midi": 55,
      "hit": false,
      "t": 74601.7065,
      "d": 259.9555312500015,
      "v": 110
    },
    {
      "midi": 60,
      "hit": false,
      "t": 74867.193,
      "d": 259.9555312500015,
      "v": 110
    },
    {
      "midi": 64,
      "hit": false,
      "t": 75132.6795,
      "d": 259.9555312500015,
      "v": 110
    },
    {
      "midi": 79,
      "hit": false,
      "t": 75132.6795,
      "d": 259.9555312500015,
      "v": 110
    },
    {
      "midi": 43,
      "hit": false,
      "t": 75398.16599999997,
      "d": 929.2027499999967,
      "v": 110
    },
    {
      "midi": 57,
      "hit": false,
      "t": 75398.166,
      "d": 259.9555312500015,
      "v": 110
    },
    {
      "midi": 62,
      "hit": false,
      "t": 75398.166,
      "d": 259.9555312500015,
      "v": 110
    },
    {
      "midi": 65,
      "hit": false,
      "t": 75398.166,
      "d": 259.9555312500015,
      "v": 110
    },
    {
      "midi": 81,
      "hit": false,
      "t": 75398.166,
      "d": 259.9555312500015,
      "v": 110
    },
    {
      "midi": 57,
      "hit": false,
      "t": 75663.6525,
      "d": 259.9555312500015,
      "v": 110
    },
    {
      "midi": 62,
      "hit": false,
      "t": 75929.139,
      "d": 259.9555312500015,
      "v": 110
    },
    {
      "midi": 65,
      "hit": false,
      "t": 76194.6255,
      "d": 259.9555312500015,
      "v": 110
    },
    {
      "midi": 81,
      "hit": false,
      "t": 76194.6255,
      "d": 259.9555312500015,
      "v": 110
    },
    {
      "midi": 43,
      "hit": false,
      "t": 76460.11199999996,
      "d": 929.2027499999967,
      "v": 110
    },
    {
      "midi": 59,
      "hit": false,
      "t": 76460.112,
      "d": 259.9555312500015,
      "v": 110
    },
    {
      "midi": 64,
      "hit": false,
      "t": 76460.112,
      "d": 259.9555312500015,
      "v": 110
    },
    {
      "midi": 67,
      "hit": false,
      "t": 76460.112,
      "d": 259.9555312500015,
      "v": 110
    },
    {
      "midi": 83,
      "hit": false,
      "t": 76460.112,
      "d": 259.9555312500015,
      "v": 110
    },
    {
      "midi": 59,
      "hit": false,
      "t": 76725.5985,
      "d": 259.9555312500015,
      "v": 110
    },
    {
      "midi": 64,
      "hit": false,
      "t": 76991.08499999999,
      "d": 259.9555312500015,
      "v": 110
    },
    {
      "midi": 67,
      "hit": false,
      "t": 77256.57149999999,
      "d": 259.9555312500015,
      "v": 110
    },
    {
      "midi": 83,
      "hit": false,
      "t": 77256.57149999999,
      "d": 259.9555312500015,
      "v": 110
    },
    {
      "midi": 43,
      "hit": false,
      "t": 77522.05799999996,
      "d": 929.2027499999967,
      "v": 110
    },
    {
      "midi": 60,
      "hit": false,
      "t": 77522.05799999999,
      "d": 259.9555312500015,
      "v": 110
    },
    {
      "midi": 65,
      "hit": false,
      "t": 77522.05799999999,
      "d": 259.9555312500015,
      "v": 110
    },
    {
      "midi": 69,
      "hit": false,
      "t": 77522.05799999999,
      "d": 259.9555312500015,
      "v": 110
    },
    {
      "midi": 84,
      "hit": false,
      "t": 77522.05799999999,
      "d": 259.9555312500015,
      "v": 110
    },
    {
      "midi": 60,
      "hit": false,
      "t": 77787.54449999999,
      "d": 259.9555312500015,
      "v": 110
    },
    {
      "midi": 65,
      "hit": false,
      "t": 78053.03099999999,
      "d": 259.9555312500015,
      "v": 110
    },
    {
      "midi": 69,
      "hit": false,
      "t": 78318.51749999999,
      "d": 259.9555312500015,
      "v": 110
    },
    {
      "midi": 84,
      "hit": false,
      "t": 78318.51749999999,
      "d": 259.9555312500015,
      "v": 110
    },
    {
      "midi": 43,
      "hit": false,
      "t": 78584.00399999996,
      "d": 929.2027499999967,
      "v": 110
    },
    {
      "midi": 55,
      "hit": false,
      "t": 78584.00399999996,
      "d": 929.2027499999967,
      "v": 110
    },
    {
      "midi": 62,
      "hit": false,
      "t": 78584.00399999999,
      "d": 259.9555312500015,
      "v": 110
    },
    {
      "midi": 67,
      "hit": false,
      "t": 78584.00399999999,
      "d": 259.9555312500015,
      "v": 110
    },
    {
      "midi": 71,
      "hit": false,
      "t": 78584.00399999999,
      "d": 259.9555312500015,
      "v": 110
    },
    {
      "midi": 86,
      "hit": false,
      "t": 78584.00399999999,
      "d": 259.9555312500015,
      "v": 110
    },
    {
      "midi": 62,
      "hit": false,
      "t": 78849.49049999999,
      "d": 259.9555312500015,
      "v": 110
    },
    {
      "midi": 67,
      "hit": false,
      "t": 79114.97699999998,
      "d": 259.9555312500015,
      "v": 110
    },
    {
      "midi": 71,
      "hit": false,
      "t": 79380.46349999998,
      "d": 259.9555312500015,
      "v": 110
    },
    {
      "midi": 86,
      "hit": false,
      "t": 79380.46349999998,
      "d": 259.9555312500015,
      "v": 110
    },
    {
      "midi": 43,
      "hit": false,
      "t": 79645.94999999995,
      "d": 442.4774999999936,
      "v": 110
    },
    {
      "midi": 65,
      "hit": false,
      "t": 79645.94999999998,
      "d": 442.4774999999936,
      "v": 110
    },
    {
      "midi": 69,
      "hit": false,
      "t": 79645.94999999998,
      "d": 442.4774999999936,
      "v": 110
    },
    {
      "midi": 72,
      "hit": false,
      "t": 79645.94999999998,
      "d": 442.4774999999936,
      "v": 110
    },
    {
      "midi": 88,
      "hit": false,
      "t": 79645.94999999998,
      "d": 442.4774999999936,
      "v": 110
    },
    {
      "midi": 43,
      "hit": false,
      "t": 80176.92299999995,
      "d": 442.4774999999936,
      "v": 110
    },
    {
      "midi": 67,
      "hit": false,
      "t": 80176.92299999998,
      "d": 442.4774999999936,
      "v": 110
    },
    {
      "midi": 71,
      "hit": false,
      "t": 80176.92299999998,
      "d": 442.4774999999936,
      "v": 110
    },
    {
      "midi": 74,
      "hit": false,
      "t": 80176.92299999998,
      "d": 442.4774999999936,
      "v": 110
    },
    {
      "midi": 89,
      "hit": false,
      "t": 80176.92299999998,
      "d": 442.4774999999936,
      "v": 110
    },
    {
      "midi": 67,
      "hit": false,
      "t": 131150.33099999998,
      "d": 442.47750000000815,
      "v": 110
    },
    {
      "midi": 79,
      "hit": false,
      "t": 131150.33099999998,
      "d": 442.47750000000815,
      "v": 110
    },
    {
      "midi": 46,
      "hit": false,
      "t": 131681.30399999995,
      "d": 259.95553124998696,
      "v": 110
    },
    {
      "midi": 72,
      "hit": false,
      "t": 131681.30399999997,
      "d": 929.2027499999967,
      "v": 110
    },
    {
      "midi": 84,
      "hit": false,
      "t": 131681.30399999997,
      "d": 929.2027499999967,
      "v": 110
    },
    {
      "midi": 53,
      "hit": false,
      "t": 131946.79049999994,
      "d": 259.95553124998696,
      "v": 110
    },
    {
      "midi": 58,
      "hit": false,
      "t": 132212.27699999994,
      "d": 259.95553124998696,
      "v": 110
    },
    {
      "midi": 62,
      "hit": false,
      "t": 132477.76349999994,
      "d": 259.95553124998696,
      "v": 110
    },
    {
      "midi": 53,
      "hit": false,
      "t": 132743.24999999994,
      "d": 442.47750000000815,
      "v": 110
    },
    {
      "midi": 60,
      "hit": false,
      "t": 132743.24999999997,
      "d": 392.6987812499865,
      "v": 110
    },
    {
      "midi": 72,
      "hit": false,
      "t": 132743.24999999997,
      "d": 392.6987812499865,
      "v": 110
    },
    {
      "midi": 62,
      "hit": false,
      "t": 133141.47974999997,
      "d": 392.6987812499865,
      "v": 110
    },
    {
      "midi": 74,
      "hit": false,
      "t": 133141.47974999997,
      "d": 392.6987812499865,
      "v": 110
    },
    {
      "midi": 50,
      "hit": false,
      "t": 133274.22299999994,
      "d": 442.47750000000815,
      "v": 110
    },
    {
      "midi": 64,
      "hit": false,
      "t": 133539.70949999997,
      "d": 259.95553124998696,
      "v": 110
    },
    {
      "midi": 76,
      "hit": false,
      "t": 133539.70949999997,
      "d": 259.95553124998696,
      "v": 110
    },
    {
      "midi": 45,
      "hit": false,
      "t": 133805.19599999994,
      "d": 259.95553124998696,
      "v": 110
    },
    {
      "midi": 64,
      "hit": false,
      "t": 133805.19599999997,
      "d": 929.2027499999967,
      "v": 110
    },
    {
      "midi": 76,
      "hit": false,
      "t": 133805.19599999997,
      "d": 929.2027499999967,
      "v": 110
    },
    {
      "midi": 52,
      "hit": false,
      "t": 134070.68249999994,
      "d": 259.95553124998696,
      "v": 110
    },
    {
      "midi": 57,
      "hit": false,
      "t": 134336.16899999994,
      "d": 259.95553124998696,
      "v": 110
    },
    {
      "midi": 60,
      "hit": false,
      "t": 134601.65549999994,
      "d": 259.95553124998696,
      "v": 110
    },
    {
      "midi": 64,
      "hit": false,
      "t": 134867.14199999993,
      "d": 442.47750000000815,
      "v": 110
    },
    {
      "midi": 52,
      "hit": false,
      "t": 135398.11499999993,
      "d": 442.47750000000815,
      "v": 110
    },
    {
      "midi": 60,
      "hit": false,
      "t": 135398.11499999996,
      "d": 442.47750000000815,
      "v": 110
    },
    {
      "midi": 72,
      "hit": false,
      "t": 135398.11499999996,
      "d": 442.47750000000815,
      "v": 110
    },
    {
      "midi": 50,
      "hit": false,
      "t": 135929.08799999993,
      "d": 259.95553124998696,
      "v": 110
    },
    {
      "midi": 65,
      "hit": false,
      "t": 135929.08799999996,
      "d": 707.9640000000072,
      "v": 110
    },
    {
      "midi": 77,
      "hit": false,
      "t": 135929.08799999996,
      "d": 707.9640000000072,
      "v": 110
    },
    {
      "midi": 53,
      "hit": false,
      "t": 136194.57449999993,
      "d": 259.95553124998696,
      "v": 110
    },
    {
      "midi": 57,
      "hit": false,
      "t": 136460.06099999993,
      "d": 259.95553124998696,
      "v": 110
    },
    {
      "midi": 62,
      "hit": false,
      "t": 136725.54749999993,
      "d": 259.95553124998696,
      "v": 110
    },
    {
      "midi": 53,
      "hit": false,
      "t": 136991.03399999993,
      "d": 442.47750000000815,
      "v": 110
    },
    {
      "midi": 57,
      "hit": false,
      "t": 136991.03399999996,
      "d": 392.6987812499865,
      "v": 110
    },
    {
      "midi": 69,
      "hit": false,
      "t": 136991.03399999996,
      "d": 392.6987812499865,
      "v": 110
    },
    {
      "midi": 59,
      "hit": false,
      "t": 137389.26374999995,
      "d": 392.6987812499865,
      "v": 110
    },
    {
      "midi": 71,
      "hit": false,
      "t": 137389.26374999995,
      "d": 392.6987812499865,
      "v": 110
    },
    {
      "midi": 38,
      "hit": false,
      "t": 137522.00699999993,
      "d": 442.47750000000815,
      "v": 110
    },
    {
      "midi": 60,
      "hit": false,
      "t": 137787.49349999995,
      "d": 259.95553124998696,
      "v": 110
    },
    {
      "midi": 72,
      "hit": false,
      "t": 137787.49349999995,
      "d": 259.95553124998696,
      "v": 110
    },
    {
      "midi": 43,
      "hit": false,
      "t": 138052.97999999992,
      "d": 929.2027499999967,
      "v": 110
    },
    {
      "midi": 55,
      "hit": false,
      "t": 138052.97999999992,
      "d": 929.2027499999967,
      "v": 110
    },
    {
      "midi": 60,
      "hit": false,
      "t": 138052.97999999995,
      "d": 707.9640000000072,
      "v": 110
    },
    {
      "midi": 65,
      "hit": false,
      "t": 138052.97999999995,
      "d": 707.9640000000072,
      "v": 110
    },
    {
      "midi": 69,
      "hit": false,
      "t": 138052.97999999995,
      "d": 707.9640000000072,
      "v": 110
    },
    {
      "midi": 72,
      "hit": false,
      "t": 138052.97999999995,
      "d": 707.9640000000072,
      "v": 110
    },
    {
      "midi": 43,
      "hit": false,
      "t": 139114.92599999992,
      "d": 929.2027499999967,
      "v": 110
    },
    {
      "midi": 53,
      "hit": false,
      "t": 139114.92599999995,
      "d": 259.95553124998696,
      "v": 110
    },
    {
      "midi": 57,
      "hit": false,
      "t": 139114.92599999995,
      "d": 259.95553124998696,
      "v": 110
    },
    {
      "midi": 62,
      "hit": false,
      "t": 139114.92599999995,
      "d": 259.95553124998696,
      "v": 110
    },
    {
      "midi": 74,
      "hit": false,
      "t": 139114.92599999995,
      "d": 259.95553124998696,
      "v": 110
    },
    {
      "midi": 53,
      "hit": false,
      "t": 139380.41249999995,
      "d": 259.95553124998696,
      "v": 110
    },
    {
      "midi": 57,
      "hit": false,
      "t": 139645.89899999995,
      "d": 259.95553124998696,
      "v": 110
    },
    {
      "midi": 62,
      "hit": false,
      "t": 139911.38549999995,
      "d": 259.95553124998696,
      "v": 110
    },
    {
      "midi": 43,
      "hit": false,
      "t": 140176.87199999992,
      "d": 929.2027499999967,
      "v": 110
    },
    {
      "midi": 55,
      "hit": false,
      "t": 140176.87199999994,
      "d": 259.95553124998696,
      "v": 110
    },
    {
      "midi": 60,
      "hit": false,
      "t": 140176.87199999994,
      "d": 259.95553124998696,
      "v": 110
    },
    {
      "midi": 64,
      "hit": false,
      "t": 140176.87199999994,
      "d": 259.95553124998696,
      "v": 110
    },
    {
      "midi": 79,
      "hit": false,
      "t": 140176.87199999994,
      "d": 259.95553124998696,
      "v": 110
    },
    {
      "midi": 55,
      "hit": false,
      "t": 140442.35849999994,
      "d": 259.95553124998696,
      "v": 110
    },
    {
      "midi": 60,
      "hit": false,
      "t": 140707.84499999994,
      "d": 259.95553124998696,
      "v": 110
    },
    {
      "midi": 64,
      "hit": false,
      "t": 140973.33149999994,
      "d": 259.95553124998696,
      "v": 110
    },
    {
      "midi": 79,
      "hit": false,
      "t": 140973.33149999994,
      "d": 259.95553124998696,
      "v": 110
    },
    {
      "midi": 43,
      "hit": false,
      "t": 141238.8179999999,
      "d": 929.2027499999967,
      "v": 110
    },
    {
      "midi": 57,
      "hit": false,
      "t": 141238.81799999994,
      "d": 259.95553124998696,
      "v": 110
    },
    {
      "midi": 62,
      "hit": false,
      "t": 141238.81799999994,
      "d": 259.95553124998696,
      "v": 110
    },
    {
      "midi": 65,
      "hit": false,
      "t": 141238.81799999994,
      "d": 259.95553124998696,
      "v": 110
    },
    {
      "midi": 81,
      "hit": false,
      "t": 141238.81799999994,
      "d": 259.95553124998696,
      "v": 110
    },
    {
      "midi": 57,
      "hit": false,
      "t": 141504.30449999994,
      "d": 259.95553124998696,
      "v": 110
    },
    {
      "midi": 62,
      "hit": false,
      "t": 141769.79099999994,
      "d": 259.95553124998696,
      "v": 110
    },
    {
      "midi": 65,
      "hit": false,
      "t": 142035.27749999994,
      "d": 259.95553124998696,
      "v": 110
    },
    {
      "midi": 81,
      "hit": false,
      "t": 142035.27749999994,
      "d": 259.95553124998696,
      "v": 110
    },
    {
      "midi": 43,
      "hit": false,
      "t": 142300.7639999999,
      "d": 929.2027499999967,
      "v": 110
    },
    {
      "midi": 59,
      "hit": false,
      "t": 142300.76399999994,
      "d": 259.95553124998696,
      "v": 110
    },
    {
      "midi": 64,
      "hit": false,
      "t": 142300.76399999994,
      "d": 259.95553124998696,
      "v": 110
    },
    {
      "midi": 67,
      "hit": false,
      "t": 142300.76399999994,
      "d": 259.95553124998696,
      "v": 110
    },
    {
      "midi": 83,
      "hit": false,
      "t": 142300.76399999994,
      "d": 259.95553124998696,
      "v": 110
    },
    {
      "midi": 59,
      "hit": false,
      "t": 142566.25049999994,
      "d": 259.95553124998696,
      "v": 110
    },
    {
      "midi": 64,
      "hit": false,
      "t": 142831.73699999994,
      "d": 259.95553124998696,
      "v": 110
    },
    {
      "midi": 67,
      "hit": false,
      "t": 143097.22349999993,
      "d": 259.95553124998696,
      "v": 110
    },
    {
      "midi": 83,
      "hit": false,
      "t": 143097.22349999993,
      "d": 259.95553124998696,
      "v": 110
    },
    {
      "midi": 43,
      "hit": false,
      "t": 143362.7099999999,
      "d": 929.2027499999967,
      "v": 110
    },
    {
      "midi": 60,
      "hit": false,
      "t": 143362.70999999993,
      "d": 259.95553124998696,
      "v": 110
    },
    {
      "midi": 65,
      "hit": false,
      "t": 143362.70999999993,
      "d": 259.95553124998696,
      "v": 110
    },
    {
      "midi": 69,
      "hit": false,
      "t": 143362.70999999993,
      "d": 259.95553124998696,
      "v": 110
    },
    {
      "midi": 84,
      "hit": false,
      "t": 143362.70999999993,
      "d": 259.95553124998696,
      "v": 110
    },
    {
      "midi": 60,
      "hit": false,
      "t": 143628.19649999993,
      "d": 259.95553124998696,
      "v": 110
    },
    {
      "midi": 65,
      "hit": false,
      "t": 143893.68299999993,
      "d": 259.95553124998696,
      "v": 110
    },
    {
      "midi": 69,
      "hit": false,
      "t": 144159.16949999993,
      "d": 259.95553124998696,
      "v": 110
    },
    {
      "midi": 84,
      "hit": false,
      "t": 144159.16949999993,
      "d": 259.95553124998696,
      "v": 110
    },
    {
      "midi": 43,
      "hit": false,
      "t": 144424.6559999999,
      "d": 929.2027499999967,
      "v": 110
    },
    {
      "midi": 55,
      "hit": false,
      "t": 144424.6559999999,
      "d": 929.2027499999967,
      "v": 110
    },
    {
      "midi": 62,
      "hit": false,
      "t": 144424.65599999993,
      "d": 259.95553124998696,
      "v": 110
    },
    {
      "midi": 67,
      "hit": false,
      "t": 144424.65599999993,
      "d": 259.95553124998696,
      "v": 110
    },
    {
      "midi": 71,
      "hit": false,
      "t": 144424.65599999993,
      "d": 259.95553124998696,
      "v": 110
    },
    {
      "midi": 86,
      "hit": false,
      "t": 144424.65599999993,
      "d": 259.95553124998696,
      "v": 110
    },
    {
      "midi": 62,
      "hit": false,
      "t": 144690.14249999993,
      "d": 259.95553124998696,
      "v": 110
    },
    {
      "midi": 67,
      "hit": false,
      "t": 144955.62899999993,
      "d": 259.95553124998696,
      "v": 110
    },
    {
      "midi": 71,
      "hit": false,
      "t": 145221.11549999993,
      "d": 259.95553124998696,
      "v": 110
    },
    {
      "midi": 86,
      "hit": false,
      "t": 145221.11549999993,
      "d": 259.95553124998696,
      "v": 110
    },
    {
      "midi": 43,
      "hit": false,
      "t": 145486.6019999999,
      "d": 442.47750000000815,
      "v": 110
    },
    {
      "midi": 65,
      "hit": false,
      "t": 145486.60199999993,
      "d": 442.47750000000815,
      "v": 110
    },
    {
      "midi": 69,
      "hit": false,
      "t": 145486.60199999993,
      "d": 442.47750000000815,
      "v": 110
    },
    {
      "midi": 72,
      "hit": false,
      "t": 145486.60199999993,
      "d": 442.47750000000815,
      "v": 110
    },
    {
      "midi": 88,
      "hit": false,
      "t": 145486.60199999993,
      "d": 442.47750000000815,
      "v": 110
    },
    {
      "midi": 43,
      "hit": false,
      "t": 146017.5749999999,
      "d": 442.47750000000815,
      "v": 110
    },
    {
      "midi": 67,
      "hit": false,
      "t": 146017.57499999992,
      "d": 442.47750000000815,
      "v": 110
    },
    {
      "midi": 71,
      "hit": false,
      "t": 146017.57499999992,
      "d": 442.47750000000815,
      "v": 110
    },
    {
      "midi": 74,
      "hit": false,
      "t": 146017.57499999992,
      "d": 442.47750000000815,
      "v": 110
    },
    {
      "midi": 89,
      "hit": false,
      "t": 146017.57499999992,
      "d": 442.47750000000815,
      "v": 110
    },
    {
      "midi": 43,
      "hit": false,
      "t": 186902.4959999999,
      "d": 929.2027499999967,
      "v": 110
    },
    {
      "midi": 53,
      "hit": false,
      "t": 186902.49599999993,
      "d": 929.2027499999967,
      "v": 110
    },
    {
      "midi": 57,
      "hit": false,
      "t": 186902.49599999993,
      "d": 929.2027499999967,
      "v": 110
    },
    {
      "midi": 60,
      "hit": false,
      "t": 186902.49599999993,
      "d": 929.2027499999967,
      "v": 110
    },
    {
      "midi": 43,
      "hit": false,
      "t": 187964.4419999999,
      "d": 929.2027499999967,
      "v": 110
    },
    {
      "midi": 53,
      "hit": false,
      "t": 187964.44199999992,
      "d": 929.2027499999967,
      "v": 110
    },
    {
      "midi": 57,
      "hit": false,
      "t": 187964.44199999992,
      "d": 929.2027499999967,
      "v": 110
    },
    {
      "midi": 62,
      "hit": false,
      "t": 187964.44199999992,
      "d": 929.2027499999967,
      "v": 110
    },
    {
      "midi": 43,
      "hit": false,
      "t": 189026.3879999999,
      "d": 929.2027499999967,
      "v": 110
    },
    {
      "midi": 55,
      "hit": false,
      "t": 189026.38799999992,
      "d": 929.2027499999967,
      "v": 110
    },
    {
      "midi": 60,
      "hit": false,
      "t": 189026.38799999992,
      "d": 929.2027499999967,
      "v": 110
    },
    {
      "midi": 64,
      "hit": false,
      "t": 189026.38799999992,
      "d": 929.2027499999967,
      "v": 110
    },
    {
      "midi": 43,
      "hit": false,
      "t": 190088.3339999999,
      "d": 929.2027499999967,
      "v": 110
    },
    {
      "midi": 57,
      "hit": false,
      "t": 190088.33399999992,
      "d": 929.2027499999967,
      "v": 110
    },
    {
      "midi": 62,
      "hit": false,
      "t": 190088.33399999992,
      "d": 929.2027499999967,
      "v": 110
    },
    {
      "midi": 65,
      "hit": false,
      "t": 190088.33399999992,
      "d": 929.2027499999967,
      "v": 110
    },
    {
      "midi": 43,
      "hit": false,
      "t": 191150.27999999988,
      "d": 929.2027499999967,
      "v": 110
    },
    {
      "midi": 59,
      "hit": false,
      "t": 191150.2799999999,
      "d": 929.2027499999967,
      "v": 110
    },
    {
      "midi": 64,
      "hit": false,
      "t": 191150.2799999999,
      "d": 929.2027499999967,
      "v": 110
    },
    {
      "midi": 67,
      "hit": false,
      "t": 191150.2799999999,
      "d": 929.2027499999967,
      "v": 110
    },
    {
      "midi": 43,
      "hit": false,
      "t": 192212.22599999988,
      "d": 929.2027499999967,
      "v": 110
    },
    {
      "midi": 60,
      "hit": false,
      "t": 192212.2259999999,
      "d": 929.2027499999967,
      "v": 110
    },
    {
      "midi": 65,
      "hit": false,
      "t": 192212.2259999999,
      "d": 929.2027499999967,
      "v": 110
    },
    {
      "midi": 69,
      "hit": false,
      "t": 192212.2259999999,
      "d": 929.2027499999967,
      "v": 110
    },
    {
      "midi": 43,
      "hit": false,
      "t": 193274.17199999987,
      "d": 929.2027499999967,
      "v": 110
    },
    {
      "midi": 55,
      "hit": false,
      "t": 193274.17199999987,
      "d": 929.2027499999967,
      "v": 110
    },
    {
      "midi": 64,
      "hit": false,
      "t": 193274.1719999999,
      "d": 929.2027499999967,
      "v": 110
    },
    {
      "midi": 67,
      "hit": false,
      "t": 193274.1719999999,
      "d": 929.2027499999967,
      "v": 110
    },
    {
      "midi": 71,
      "hit": false,
      "t": 193274.1719999999,
      "d": 929.2027499999967,
      "v": 110
    },
    {
      "midi": 43,
      "hit": false,
      "t": 194336.11799999987,
      "d": 442.47750000000815,
      "v": 110
    },
    {
      "midi": 55,
      "hit": false,
      "t": 194336.11799999987,
      "d": 442.47750000000815,
      "v": 110
    },
    {
      "midi": 65,
      "hit": false,
      "t": 194336.1179999999,
      "d": 442.47750000000815,
      "v": 110
    },
    {
      "midi": 69,
      "hit": false,
      "t": 194336.1179999999,
      "d": 442.47750000000815,
      "v": 110
    },
    {
      "midi": 72,
      "hit": false,
      "t": 194336.1179999999,
      "d": 442.47750000000815,
      "v": 110
    },
    {
      "midi": 43,
      "hit": false,
      "t": 194867.09099999987,
      "d": 442.47750000000815,
      "v": 110
    },
    {
      "midi": 55,
      "hit": false,
      "t": 194867.09099999987,
      "d": 442.47750000000815,
      "v": 110
    },
    {
      "midi": 67,
      "hit": false,
      "t": 194867.0909999999,
      "d": 442.47750000000815,
      "v": 110
    },
    {
      "midi": 71,
      "hit": false,
      "t": 194867.0909999999,
      "d": 442.47750000000815,
      "v": 110
    },
    {
      "midi": 74,
      "hit": false,
      "t": 194867.0909999999,
      "d": 442.47750000000815,
      "v": 110
    },
    {
      "midi": 60,
      "hit": false,
      "t": 195398.0639999999,
      "d": 442.47750000000815,
      "v": 110
    },
    {
      "midi": 67,
      "hit": false,
      "t": 195929.0369999999,
      "d": 442.47750000000815,
      "v": 110
    },
    {
      "midi": 67,
      "hit": false,
      "t": 196460.0099999999,
      "d": 442.47750000000815,
      "v": 110
    },
    {
      "midi": 65,
      "hit": false,
      "t": 196990.9829999999,
      "d": 259.95553124998696,
      "v": 110
    },
    {
      "midi": 64,
      "hit": false,
      "t": 197256.4694999999,
      "d": 259.95553124998696,
      "v": 110
    },
    {
      "midi": 65,
      "hit": false,
      "t": 197521.9559999999,
      "d": 259.95553124998696,
      "v": 110
    },
    {
      "midi": 64,
      "hit": false,
      "t": 197787.4424999999,
      "d": 259.95553124998696,
      "v": 110
    },
    {
      "midi": 62,
      "hit": false,
      "t": 198052.9289999999,
      "d": 442.47750000000815,
      "v": 110
    },
    {
      "midi": 62,
      "hit": false,
      "t": 198583.90199999989,
      "d": 442.47750000000815,
      "v": 110
    },
    {
      "midi": 60,
      "hit": false,
      "t": 199114.87499999988,
      "d": 259.95553124998696,
      "v": 110
    },
    {
      "midi": 62,
      "hit": false,
      "t": 199380.36149999988,
      "d": 259.95553124998696,
      "v": 110
    },
    {
      "midi": 64,
      "hit": false,
      "t": 199645.84799999988,
      "d": 442.47750000000815,
      "v": 110
    },
    {
      "midi": 62,
      "hit": false,
      "t": 200176.82099999988,
      "d": 259.95553124998696,
      "v": 110
    },
    {
      "midi": 64,
      "hit": false,
      "t": 200442.30749999988,
      "d": 259.95553124998696,
      "v": 110
    },
    {
      "midi": 65,
      "hit": false,
      "t": 200707.79399999988,
      "d": 442.47750000000815,
      "v": 110
    },
    {
      "midi": 64,
      "hit": false,
      "t": 201238.76699999988,
      "d": 259.95553124998696,
      "v": 110
    },
    {
      "midi": 60,
      "hit": false,
      "t": 201504.25349999988,
      "d": 259.95553124998696,
      "v": 110
    },
    {
      "midi": 64,
      "hit": false,
      "t": 201769.73999999987,
      "d": 442.47750000000815,
      "v": 110
    },
    {
      "midi": 62,
      "hit": false,
      "t": 202300.71299999987,
      "d": 1460.1757499999949,
      "v": 110
    },
    {
      "midi": 60,
      "hit": false,
      "t": 203893.63199999987,
      "d": 442.47750000000815,
      "v": 110
    },
    {
      "midi": 67,
      "hit": false,
      "t": 204424.60499999986,
      "d": 442.47750000000815,
      "v": 110
    },
    {
      "midi": 67,
      "hit": false,
      "t": 204955.57799999986,
      "d": 442.47750000000815,
      "v": 110
    },
    {
      "midi": 65,
      "hit": false,
      "t": 205486.55099999986,
      "d": 259.95553124998696,
      "v": 110
    },
    {
      "midi": 64,
      "hit": false,
      "t": 205752.03749999986,
      "d": 259.95553124998696,
      "v": 110
    },
    {
      "midi": 65,
      "hit": false,
      "t": 206017.52399999986,
      "d": 259.95553124998696,
      "v": 110
    },
    {
      "midi": 64,
      "hit": false,
      "t": 206283.01049999986,
      "d": 259.95553124998696,
      "v": 110
    },
    {
      "midi": 62,
      "hit": false,
      "t": 206548.49699999986,
      "d": 442.47750000000815,
      "v": 110
    },
    {
      "midi": 62,
      "hit": false,
      "t": 207079.46999999986,
      "d": 442.47750000000815,
      "v": 110
    },
    {
      "midi": 60,
      "hit": false,
      "t": 207610.44299999985,
      "d": 259.95553124998696,
      "v": 110
    },
    {
      "midi": 62,
      "hit": false,
      "t": 207875.92949999985,
      "d": 259.95553124998696,
      "v": 110
    },
    {
      "midi": 64,
      "hit": false,
      "t": 208141.41599999985,
      "d": 442.47750000000815,
      "v": 110
    },
    {
      "midi": 62,
      "hit": false,
      "t": 208672.38899999985,
      "d": 259.95553124998696,
      "v": 110
    },
    {
      "midi": 64,
      "hit": false,
      "t": 208937.87549999985,
      "d": 259.95553124998696,
      "v": 110
    },
    {
      "midi": 65,
      "hit": false,
      "t": 209203.36199999985,
      "d": 442.47750000000815,
      "v": 110
    },
    {
      "midi": 64,
      "hit": false,
      "t": 209734.33499999985,
      "d": 259.95553124998696,
      "v": 110
    },
    {
      "midi": 62,
      "hit": false,
      "t": 209999.82149999985,
      "d": 259.95553124998696,
      "v": 110
    },
    {
      "midi": 62,
      "hit": false,
      "t": 210265.30799999984,
      "d": 442.47750000000815,
      "v": 110
    },
    {
      "midi": 60,
      "hit": false,
      "t": 210796.28099999984,
      "d": 1460.1757499999949,
      "v": 110
    },
    {
      "midi": 60,
      "hit": false,
      "t": 212389.19999999984,
      "d": 442.47750000000815,
      "v": 110
    },
    {
      "midi": 60,
      "hit": false,
      "t": 212389.2,
      "d": 442.47750000000815,
      "v": 110
    },
    {
      "midi": 67,
      "hit": false,
      "t": 212920.17299999984,
      "d": 442.47750000000815,
      "v": 110
    },
    {
      "midi": 67,
      "hit": false,
      "t": 212920.173,
      "d": 442.47750000000815,
      "v": 110
    },
    {
      "midi": 67,
      "hit": false,
      "t": 213451.14599999983,
      "d": 442.47750000000815,
      "v": 110
    },
    {
      "midi": 67,
      "hit": false,
      "t": 213451.146,
      "d": 442.47750000000815,
      "v": 110
    },
    {
      "midi": 65,
      "hit": false,
      "t": 213982.11899999983,
      "d": 259.95553124998696,
      "v": 110
    },
    {
      "midi": 65,
      "hit": false,
      "t": 213982.119,
      "d": 259.95553124998696,
      "v": 110
    },
    {
      "midi": 64,
      "hit": false,
      "t": 214247.60549999983,
      "d": 259.95553124998696,
      "v": 110
    },
    {
      "midi": 64,
      "hit": false,
      "t": 214247.6055,
      "d": 259.95553124998696,
      "v": 110
    },
    {
      "midi": 65,
      "hit": false,
      "t": 214513.09199999983,
      "d": 259.95553124998696,
      "v": 110
    },
    {
      "midi": 65,
      "hit": false,
      "t": 214513.092,
      "d": 259.95553124998696,
      "v": 110
    },
    {
      "midi": 64,
      "hit": false,
      "t": 214778.57849999983,
      "d": 259.95553124998696,
      "v": 110
    },
    {
      "midi": 64,
      "hit": false,
      "t": 214778.5785,
      "d": 259.95553124998696,
      "v": 110
    },
    {
      "midi": 62,
      "hit": false,
      "t": 215044.06499999983,
      "d": 442.47750000000815,
      "v": 110
    },
    {
      "midi": 62,
      "hit": false,
      "t": 215044.065,
      "d": 442.47750000000815,
      "v": 110
    },
    {
      "midi": 62,
      "hit": false,
      "t": 215575.03799999983,
      "d": 442.47750000000815,
      "v": 110
    },
    {
      "midi": 62,
      "hit": false,
      "t": 215575.038,
      "d": 442.47750000000815,
      "v": 110
    },
    {
      "midi": 60,
      "hit": false,
      "t": 216106.01099999982,
      "d": 259.95553124998696,
      "v": 110
    },
    {
      "midi": 60,
      "hit": false,
      "t": 216106.011,
      "d": 259.95553124998696,
      "v": 110
    },
    {
      "midi": 62,
      "hit": false,
      "t": 216371.49749999982,
      "d": 259.95553124998696,
      "v": 110
    },
    {
      "midi": 62,
      "hit": false,
      "t": 216371.4975,
      "d": 259.95553124998696,
      "v": 110
    },
    {
      "midi": 64,
      "hit": false,
      "t": 216636.98399999982,
      "d": 442.47750000000815,
      "v": 110
    },
    {
      "midi": 64,
      "hit": false,
      "t": 216636.984,
      "d": 442.47750000000815,
      "v": 110
    },
    {
      "midi": 62,
      "hit": false,
      "t": 217167.95699999982,
      "d": 259.95553124998696,
      "v": 110
    },
    {
      "midi": 62,
      "hit": false,
      "t": 217167.957,
      "d": 259.95553124998696,
      "v": 110
    },
    {
      "midi": 64,
      "hit": false,
      "t": 217433.44349999982,
      "d": 259.95553124998696,
      "v": 110
    },
    {
      "midi": 64,
      "hit": false,
      "t": 217433.4435,
      "d": 259.95553124998696,
      "v": 110
    },
    {
      "midi": 65,
      "hit": false,
      "t": 217698.92999999982,
      "d": 442.47750000000815,
      "v": 110
    },
    {
      "midi": 65,
      "hit": false,
      "t": 217698.93,
      "d": 442.47750000000815,
      "v": 110
    },
    {
      "midi": 64,
      "hit": false,
      "t": 218229.90299999982,
      "d": 259.95553124998696,
      "v": 110
    },
    {
      "midi": 64,
      "hit": false,
      "t": 218229.903,
      "d": 259.95553124998696,
      "v": 110
    },
    {
      "midi": 60,
      "hit": false,
      "t": 218495.38949999982,
      "d": 259.95553124998696,
      "v": 110
    },
    {
      "midi": 60,
      "hit": false,
      "t": 218495.3895,
      "d": 259.95553124998696,
      "v": 110
    },
    {
      "midi": 64,
      "hit": false,
      "t": 218760.87599999981,
      "d": 442.47750000000815,
      "v": 110
    },
    {
      "midi": 64,
      "hit": false,
      "t": 218760.876,
      "d": 442.47750000000815,
      "v": 110
    },
    {
      "midi": 62,
      "hit": false,
      "t": 219291.8489999998,
      "d": 1460.1757499999949,
      "v": 110
    },
    {
      "midi": 62,
      "hit": false,
      "t": 219291.849,
      "d": 1460.1757499999949,
      "v": 110
    },
    {
      "midi": 60,
      "hit": false,
      "t": 220884.7679999998,
      "d": 442.47750000000815,
      "v": 110
    },
    {
      "midi": 60,
      "hit": false,
      "t": 220884.76799999998,
      "d": 442.47750000000815,
      "v": 110
    },
    {
      "midi": 67,
      "hit": false,
      "t": 221415.7409999998,
      "d": 442.47750000000815,
      "v": 110
    },
    {
      "midi": 67,
      "hit": false,
      "t": 221415.74099999998,
      "d": 442.47750000000815,
      "v": 110
    },
    {
      "midi": 67,
      "hit": false,
      "t": 221946.7139999998,
      "d": 442.47750000000815,
      "v": 110
    },
    {
      "midi": 67,
      "hit": false,
      "t": 221946.71399999998,
      "d": 442.47750000000815,
      "v": 110
    },
    {
      "midi": 65,
      "hit": false,
      "t": 222477.6869999998,
      "d": 259.95553124998696,
      "v": 110
    },
    {
      "midi": 65,
      "hit": false,
      "t": 222477.68699999998,
      "d": 259.95553124998696,
      "v": 110
    },
    {
      "midi": 64,
      "hit": false,
      "t": 222743.1734999998,
      "d": 259.95553124998696,
      "v": 110
    },
    {
      "midi": 64,
      "hit": false,
      "t": 222743.17349999998,
      "d": 259.95553124998696,
      "v": 110
    },
    {
      "midi": 65,
      "hit": false,
      "t": 223008.6599999998,
      "d": 259.95553124998696,
      "v": 110
    },
    {
      "midi": 65,
      "hit": false,
      "t": 223008.65999999997,
      "d": 259.95553124998696,
      "v": 110
    },
    {
      "midi": 64,
      "hit": false,
      "t": 223274.1464999998,
      "d": 259.95553124998696,
      "v": 110
    },
    {
      "midi": 64,
      "hit": false,
      "t": 223274.14649999997,
      "d": 259.95553124998696,
      "v": 110
    },
    {
      "midi": 62,
      "hit": false,
      "t": 223539.6329999998,
      "d": 442.47750000000815,
      "v": 110
    },
    {
      "midi": 62,
      "hit": false,
      "t": 223539.63299999997,
      "d": 442.47750000000815,
      "v": 110
    },
    {
      "midi": 62,
      "hit": false,
      "t": 224070.6059999998,
      "d": 442.47750000000815,
      "v": 110
    },
    {
      "midi": 62,
      "hit": false,
      "t": 224070.60599999997,
      "d": 442.47750000000815,
      "v": 110
    },
    {
      "midi": 60,
      "hit": false,
      "t": 224601.5789999998,
      "d": 259.95553124998696,
      "v": 110
    },
    {
      "midi": 60,
      "hit": false,
      "t": 224601.57899999997,
      "d": 259.95553124998696,
      "v": 110
    },
    {
      "midi": 62,
      "hit": false,
      "t": 224867.0654999998,
      "d": 259.95553124998696,
      "v": 110
    },
    {
      "midi": 62,
      "hit": false,
      "t": 224867.06549999997,
      "d": 259.95553124998696,
      "v": 110
    },
    {
      "midi": 64,
      "hit": false,
      "t": 225132.5519999998,
      "d": 442.47750000000815,
      "v": 110
    },
    {
      "midi": 64,
      "hit": false,
      "t": 225132.55199999997,
      "d": 442.47750000000815,
      "v": 110
    },
    {
      "midi": 62,
      "hit": false,
      "t": 225663.5249999998,
      "d": 259.95553124998696,
      "v": 110
    },
    {
      "midi": 62,
      "hit": false,
      "t": 225663.52499999997,
      "d": 259.95553124998696,
      "v": 110
    },
    {
      "midi": 64,
      "hit": false,
      "t": 225929.0114999998,
      "d": 259.95553124998696,
      "v": 110
    },
    {
      "midi": 64,
      "hit": false,
      "t": 225929.01149999996,
      "d": 259.95553124998696,
      "v": 110
    },
    {
      "midi": 65,
      "hit": false,
      "t": 226194.4979999998,
      "d": 442.47750000000815,
      "v": 110
    },
    {
      "midi": 65,
      "hit": false,
      "t": 226194.49799999996,
      "d": 442.47750000000815,
      "v": 110
    },
    {
      "midi": 64,
      "hit": false,
      "t": 226725.4709999998,
      "d": 259.95553124998696,
      "v": 110
    },
    {
      "midi": 64,
      "hit": false,
      "t": 226725.47099999996,
      "d": 259.95553124998696,
      "v": 110
    },
    {
      "midi": 62,
      "hit": false,
      "t": 226990.9574999998,
      "d": 259.95553124998696,
      "v": 110
    },
    {
      "midi": 62,
      "hit": false,
      "t": 226990.95749999996,
      "d": 259.95553124998696,
      "v": 110
    },
    {
      "midi": 62,
      "hit": false,
      "t": 227256.44399999978,
      "d": 442.47750000000815,
      "v": 110
    },
    {
      "midi": 62,
      "hit": false,
      "t": 227256.44399999996,
      "d": 442.47750000000815,
      "v": 110
    },
    {
      "midi": 60,
      "hit": false,
      "t": 227787.41699999978,
      "d": 1460.1757499999949,
      "v": 110
    },
    {
      "midi": 60,
      "hit": false,
      "t": 227787.41699999996,
      "d": 1460.1757499999949,
      "v": 110
    },
    {
      "midi": 60,
      "hit": false,
      "t": 229380.33599999978,
      "d": 442.47750000000815,
      "v": 110
    },
    {
      "midi": 60,
      "hit": false,
      "t": 229380.33599999995,
      "d": 442.47750000000815,
      "v": 110
    },
    {
      "midi": 67,
      "hit": false,
      "t": 229911.30899999978,
      "d": 442.47750000000815,
      "v": 110
    },
    {
      "midi": 67,
      "hit": false,
      "t": 229911.30899999995,
      "d": 442.47750000000815,
      "v": 110
    },
    {
      "midi": 67,
      "hit": false,
      "t": 230442.28199999977,
      "d": 442.47750000000815,
      "v": 110
    },
    {
      "midi": 67,
      "hit": false,
      "t": 230442.28199999995,
      "d": 442.47750000000815,
      "v": 110
    },
    {
      "midi": 65,
      "hit": false,
      "t": 230973.25499999977,
      "d": 259.95553124998696,
      "v": 110
    },
    {
      "midi": 65,
      "hit": false,
      "t": 230973.25499999995,
      "d": 259.95553124998696,
      "v": 110
    },
    {
      "midi": 64,
      "hit": false,
      "t": 231238.74149999977,
      "d": 259.95553124998696,
      "v": 110
    },
    {
      "midi": 64,
      "hit": false,
      "t": 231238.74149999995,
      "d": 259.95553124998696,
      "v": 110
    },
    {
      "midi": 65,
      "hit": false,
      "t": 231504.22799999977,
      "d": 259.95553124998696,
      "v": 110
    },
    {
      "midi": 65,
      "hit": false,
      "t": 231504.22799999994,
      "d": 259.95553124998696,
      "v": 110
    },
    {
      "midi": 64,
      "hit": false,
      "t": 231769.71449999977,
      "d": 259.95553124998696,
      "v": 110
    },
    {
      "midi": 64,
      "hit": false,
      "t": 231769.71449999994,
      "d": 259.95553124998696,
      "v": 110
    },
    {
      "midi": 62,
      "hit": false,
      "t": 232035.20099999977,
      "d": 442.47750000000815,
      "v": 110
    },
    {
      "midi": 62,
      "hit": false,
      "t": 232035.20099999994,
      "d": 442.47750000000815,
      "v": 110
    },
    {
      "midi": 62,
      "hit": false,
      "t": 232566.17399999977,
      "d": 442.47750000000815,
      "v": 110
    },
    {
      "midi": 62,
      "hit": false,
      "t": 232566.17399999994,
      "d": 442.47750000000815,
      "v": 110
    },
    {
      "midi": 60,
      "hit": false,
      "t": 233097.14699999976,
      "d": 259.95553124998696,
      "v": 110
    },
    {
      "midi": 60,
      "hit": false,
      "t": 233097.14699999994,
      "d": 259.95553124998696,
      "v": 110
    },
    {
      "midi": 62,
      "hit": false,
      "t": 233362.63349999976,
      "d": 259.95553124998696,
      "v": 110
    },
    {
      "midi": 62,
      "hit": false,
      "t": 233362.63349999994,
      "d": 259.95553124998696,
      "v": 110
    },
    {
      "midi": 64,
      "hit": false,
      "t": 233628.11999999976,
      "d": 442.47750000000815,
      "v": 110
    },
    {
      "midi": 64,
      "hit": false,
      "t": 233628.11999999994,
      "d": 442.47750000000815,
      "v": 110
    },
    {
      "midi": 62,
      "hit": false,
      "t": 234159.09299999976,
      "d": 259.95553124998696,
      "v": 110
    },
    {
      "midi": 62,
      "hit": false,
      "t": 234159.09299999994,
      "d": 259.95553124998696,
      "v": 110
    },
    {
      "midi": 64,
      "hit": false,
      "t": 234424.57949999976,
      "d": 259.95553124998696,
      "v": 110
    },
    {
      "midi": 64,
      "hit": false,
      "t": 234424.57949999993,
      "d": 259.95553124998696,
      "v": 110
    },
    {
      "midi": 65,
      "hit": false,
      "t": 234690.06599999976,
      "d": 442.47750000000815,
      "v": 110
    },
    {
      "midi": 65,
      "hit": false,
      "t": 234690.06599999993,
      "d": 442.47750000000815,
      "v": 110
    },
    {
      "midi": 64,
      "hit": false,
      "t": 235221.03899999976,
      "d": 259.95553124998696,
      "v": 110
    },
    {
      "midi": 64,
      "hit": false,
      "t": 235221.03899999993,
      "d": 259.95553124998696,
      "v": 110
    },
    {
      "midi": 60,
      "hit": false,
      "t": 235486.52549999976,
      "d": 259.95553124998696,
      "v": 110
    },
    {
      "midi": 60,
      "hit": false,
      "t": 235486.52549999993,
      "d": 259.95553124998696,
      "v": 110
    },
    {
      "midi": 64,
      "hit": false,
      "t": 235752.01199999976,
      "d": 442.47750000000815,
      "v": 110
    },
    {
      "midi": 64,
      "hit": false,
      "t": 235752.01199999993,
      "d": 442.47750000000815,
      "v": 110
    },
    {
      "midi": 62,
      "hit": false,
      "t": 236282.98499999975,
      "d": 1460.1757499999949,
      "v": 110
    },
    {
      "midi": 62,
      "hit": false,
      "t": 236282.98499999993,
      "d": 1460.1757499999949,
      "v": 110
    },
    {
      "midi": 60,
      "hit": false,
      "t": 237875.90399999975,
      "d": 442.47750000000815,
      "v": 110
    },
    {
      "midi": 60,
      "hit": false,
      "t": 237875.90399999992,
      "d": 442.47750000000815,
      "v": 110
    },
    {
      "midi": 67,
      "hit": false,
      "t": 238406.87699999975,
      "d": 442.47750000000815,
      "v": 110
    },
    {
      "midi": 67,
      "hit": false,
      "t": 238406.87699999992,
      "d": 442.47750000000815,
      "v": 110
    },
    {
      "midi": 67,
      "hit": false,
      "t": 238937.84999999974,
      "d": 442.47750000000815,
      "v": 110
    },
    {
      "midi": 67,
      "hit": false,
      "t": 238937.84999999992,
      "d": 442.47750000000815,
      "v": 110
    },
    {
      "midi": 65,
      "hit": false,
      "t": 239468.82299999974,
      "d": 259.95553124998696,
      "v": 110
    },
    {
      "midi": 65,
      "hit": false,
      "t": 239468.82299999992,
      "d": 259.95553124998696,
      "v": 110
    },
    {
      "midi": 64,
      "hit": false,
      "t": 239734.30949999974,
      "d": 259.95553124998696,
      "v": 110
    },
    {
      "midi": 64,
      "hit": false,
      "t": 239734.30949999992,
      "d": 259.95553124998696,
      "v": 110
    },
    {
      "midi": 65,
      "hit": false,
      "t": 239999.79599999974,
      "d": 259.95553124998696,
      "v": 110
    },
    {
      "midi": 65,
      "hit": false,
      "t": 239999.79599999991,
      "d": 259.95553124998696,
      "v": 110
    },
    {
      "midi": 64,
      "hit": false,
      "t": 240265.28249999974,
      "d": 259.95553124998696,
      "v": 110
    },
    {
      "midi": 64,
      "hit": false,
      "t": 240265.2824999999,
      "d": 259.95553124998696,
      "v": 110
    },
    {
      "midi": 62,
      "hit": false,
      "t": 240530.76899999974,
      "d": 442.47750000000815,
      "v": 110
    },
    {
      "midi": 62,
      "hit": false,
      "t": 240530.7689999999,
      "d": 442.47750000000815,
      "v": 110
    },
    {
      "midi": 62,
      "hit": false,
      "t": 241061.74199999974,
      "d": 442.47750000000815,
      "v": 110
    },
    {
      "midi": 62,
      "hit": false,
      "t": 241061.7419999999,
      "d": 442.47750000000815,
      "v": 110
    },
    {
      "midi": 60,
      "hit": false,
      "t": 241592.71499999973,
      "d": 259.95553124998696,
      "v": 110
    },
    {
      "midi": 60,
      "hit": false,
      "t": 241592.7149999999,
      "d": 259.95553124998696,
      "v": 110
    },
    {
      "midi": 62,
      "hit": false,
      "t": 241858.20149999973,
      "d": 259.95553124998696,
      "v": 110
    },
    {
      "midi": 62,
      "hit": false,
      "t": 241858.2014999999,
      "d": 259.95553124998696,
      "v": 110
    },
    {
      "midi": 64,
      "hit": false,
      "t": 242123.68799999973,
      "d": 442.47750000000815,
      "v": 110
    },
    {
      "midi": 64,
      "hit": false,
      "t": 242123.6879999999,
      "d": 442.47750000000815,
      "v": 110
    },
    {
      "midi": 62,
      "hit": false,
      "t": 242654.66099999973,
      "d": 259.95553124998696,
      "v": 110
    },
    {
      "midi": 62,
      "hit": false,
      "t": 242654.6609999999,
      "d": 259.95553124998696,
      "v": 110
    },
    {
      "midi": 64,
      "hit": false,
      "t": 242920.14749999973,
      "d": 259.95553124998696,
      "v": 110
    },
    {
      "midi": 64,
      "hit": false,
      "t": 242920.1474999999,
      "d": 259.95553124998696,
      "v": 110
    },
    {
      "midi": 65,
      "hit": false,
      "t": 243185.63399999973,
      "d": 442.47750000000815,
      "v": 110
    },
    {
      "midi": 65,
      "hit": false,
      "t": 243185.6339999999,
      "d": 442.47750000000815,
      "v": 110
    },
    {
      "midi": 64,
      "hit": false,
      "t": 243716.60699999973,
      "d": 259.95553124998696,
      "v": 110
    },
    {
      "midi": 64,
      "hit": false,
      "t": 243716.6069999999,
      "d": 259.95553124998696,
      "v": 110
    },
    {
      "midi": 62,
      "hit": false,
      "t": 243982.09349999973,
      "d": 259.95553124998696,
      "v": 110
    },
    {
      "midi": 62,
      "hit": false,
      "t": 243982.0934999999,
      "d": 259.95553124998696,
      "v": 110
    },
    {
      "midi": 62,
      "hit": false,
      "t": 244247.57999999973,
      "d": 442.47750000000815,
      "v": 110
    },
    {
      "midi": 62,
      "hit": false,
      "t": 244247.5799999999,
      "d": 442.47750000000815,
      "v": 110
    },
    {
      "midi": 60,
      "hit": false,
      "t": 244778.55299999972,
      "d": 1460.1757499999949,
      "v": 110
    },
    {
      "midi": 60,
      "hit": false,
      "t": 244778.5529999999,
      "d": 1460.1757499999949,
      "v": 110
    },
    {
      "midi": 60,
      "hit": false,
      "t": 246371.47199999972,
      "d": 442.47750000000815,
      "v": 110
    },
    {
      "midi": 60,
      "hit": false,
      "t": 246371.4719999999,
      "d": 442.47750000000815,
      "v": 110
    },
    {
      "midi": 67,
      "hit": false,
      "t": 246902.44499999972,
      "d": 442.47750000000815,
      "v": 110
    },
    {
      "midi": 67,
      "hit": false,
      "t": 246902.4449999999,
      "d": 442.47750000000815,
      "v": 110
    },
    {
      "midi": 67,
      "hit": false,
      "t": 247433.4179999997,
      "d": 442.47750000000815,
      "v": 110
    },
    {
      "midi": 67,
      "hit": false,
      "t": 247433.4179999999,
      "d": 442.47750000000815,
      "v": 110
    },
    {
      "midi": 65,
      "hit": false,
      "t": 247964.3909999997,
      "d": 259.95553124998696,
      "v": 110
    },
    {
      "midi": 65,
      "hit": false,
      "t": 247964.3909999999,
      "d": 259.95553124998696,
      "v": 110
    },
    {
      "midi": 64,
      "hit": false,
      "t": 248229.8774999997,
      "d": 259.95553124998696,
      "v": 110
    },
    {
      "midi": 64,
      "hit": false,
      "t": 248229.8774999999,
      "d": 259.95553124998696,
      "v": 110
    },
    {
      "midi": 65,
      "hit": false,
      "t": 248495.3639999997,
      "d": 259.95553124998696,
      "v": 110
    },
    {
      "midi": 65,
      "hit": false,
      "t": 248495.36399999988,
      "d": 259.95553124998696,
      "v": 110
    },
    {
      "midi": 64,
      "hit": false,
      "t": 248760.8504999997,
      "d": 259.95553124998696,
      "v": 110
    },
    {
      "midi": 64,
      "hit": false,
      "t": 248760.85049999988,
      "d": 259.95553124998696,
      "v": 110
    },
    {
      "midi": 62,
      "hit": false,
      "t": 249026.3369999997,
      "d": 442.47750000000815,
      "v": 110
    },
    {
      "midi": 62,
      "hit": false,
      "t": 249026.33699999988,
      "d": 442.47750000000815,
      "v": 110
    },
    {
      "midi": 62,
      "hit": false,
      "t": 249557.3099999997,
      "d": 442.47750000000815,
      "v": 110
    },
    {
      "midi": 62,
      "hit": false,
      "t": 249557.30999999988,
      "d": 442.47750000000815,
      "v": 110
    },
    {
      "midi": 60,
      "hit": false,
      "t": 250088.2829999997,
      "d": 259.95553124998696,
      "v": 110
    },
    {
      "midi": 60,
      "hit": false,
      "t": 250088.28299999988,
      "d": 259.95553124998696,
      "v": 110
    },
    {
      "midi": 62,
      "hit": false,
      "t": 250353.7694999997,
      "d": 259.95553124998696,
      "v": 110
    },
    {
      "midi": 62,
      "hit": false,
      "t": 250353.76949999988,
      "d": 259.95553124998696,
      "v": 110
    },
    {
      "midi": 64,
      "hit": false,
      "t": 250619.2559999997,
      "d": 442.47750000000815,
      "v": 110
    },
    {
      "midi": 64,
      "hit": false,
      "t": 250619.25599999988,
      "d": 442.47750000000815,
      "v": 110
    },
    {
      "midi": 62,
      "hit": false,
      "t": 251150.2289999997,
      "d": 259.95553124998696,
      "v": 110
    },
    {
      "midi": 62,
      "hit": false,
      "t": 251150.22899999988,
      "d": 259.95553124998696,
      "v": 110
    },
    {
      "midi": 64,
      "hit": false,
      "t": 251415.7154999997,
      "d": 259.95553124998696,
      "v": 110
    },
    {
      "midi": 64,
      "hit": false,
      "t": 251415.71549999987,
      "d": 259.95553124998696,
      "v": 110
    },
    {
      "midi": 65,
      "hit": false,
      "t": 251681.2019999997,
      "d": 442.47750000000815,
      "v": 110
    },
    {
      "midi": 65,
      "hit": false,
      "t": 251681.20199999987,
      "d": 442.47750000000815,
      "v": 110
    },
    {
      "midi": 64,
      "hit": false,
      "t": 252212.1749999997,
      "d": 259.95553124998696,
      "v": 110
    },
    {
      "midi": 64,
      "hit": false,
      "t": 252212.17499999987,
      "d": 259.95553124998696,
      "v": 110
    },
    {
      "midi": 60,
      "hit": false,
      "t": 252477.6614999997,
      "d": 259.95553124998696,
      "v": 110
    },
    {
      "midi": 60,
      "hit": false,
      "t": 252477.66149999987,
      "d": 259.95553124998696,
      "v": 110
    },
    {
      "midi": 64,
      "hit": false,
      "t": 252743.1479999997,
      "d": 442.47750000000815,
      "v": 110
    },
    {
      "midi": 64,
      "hit": false,
      "t": 252743.14799999987,
      "d": 442.47750000000815,
      "v": 110
    },
    {
      "midi": 62,
      "hit": false,
      "t": 253274.1209999997,
      "d": 1460.1757499999949,
      "v": 110
    },
    {
      "midi": 62,
      "hit": false,
      "t": 253274.12099999987,
      "d": 1460.1757499999949,
      "v": 110
    },
    {
      "midi": 60,
      "hit": false,
      "t": 254867.0399999997,
      "d": 442.47750000000815,
      "v": 110
    },
    {
      "midi": 60,
      "hit": false,
      "t": 254867.03999999986,
      "d": 442.47750000000815,
      "v": 110
    },
    {
      "midi": 67,
      "hit": false,
      "t": 255398.0129999997,
      "d": 442.47750000000815,
      "v": 110
    },
    {
      "midi": 67,
      "hit": false,
      "t": 255398.01299999986,
      "d": 442.47750000000815,
      "v": 110
    },
    {
      "midi": 67,
      "hit": false,
      "t": 255928.98599999968,
      "d": 442.47750000000815,
      "v": 110
    },
    {
      "midi": 67,
      "hit": false,
      "t": 255928.98599999986,
      "d": 442.47750000000815,
      "v": 110
    },
    {
      "midi": 65,
      "hit": false,
      "t": 256459.95899999968,
      "d": 259.95553124998696,
      "v": 110
    },
    {
      "midi": 65,
      "hit": false,
      "t": 256459.95899999986,
      "d": 259.95553124998696,
      "v": 110
    },
    {
      "midi": 64,
      "hit": false,
      "t": 256725.44549999968,
      "d": 259.95553124998696,
      "v": 110
    },
    {
      "midi": 64,
      "hit": false,
      "t": 256725.44549999986,
      "d": 259.95553124998696,
      "v": 110
    },
    {
      "midi": 65,
      "hit": false,
      "t": 256990.93199999968,
      "d": 259.95553124998696,
      "v": 110
    },
    {
      "midi": 65,
      "hit": false,
      "t": 256990.93199999986,
      "d": 259.95553124998696,
      "v": 110
    },
    {
      "midi": 64,
      "hit": false,
      "t": 257256.41849999968,
      "d": 259.95553124998696,
      "v": 110
    },
    {
      "midi": 64,
      "hit": false,
      "t": 257256.41849999985,
      "d": 259.95553124998696,
      "v": 110
    },
    {
      "midi": 62,
      "hit": false,
      "t": 257521.90499999968,
      "d": 442.47750000000815,
      "v": 110
    },
    {
      "midi": 62,
      "hit": false,
      "t": 257521.90499999985,
      "d": 442.47750000000815,
      "v": 110
    },
    {
      "midi": 62,
      "hit": false,
      "t": 258052.87799999968,
      "d": 442.47750000000815,
      "v": 110
    },
    {
      "midi": 62,
      "hit": false,
      "t": 258052.87799999985,
      "d": 442.47750000000815,
      "v": 110
    },
    {
      "midi": 60,
      "hit": false,
      "t": 258583.85099999967,
      "d": 259.95553124998696,
      "v": 110
    },
    {
      "midi": 60,
      "hit": false,
      "t": 258583.85099999985,
      "d": 259.95553124998696,
      "v": 110
    },
    {
      "midi": 62,
      "hit": false,
      "t": 258849.33749999967,
      "d": 259.95553124998696,
      "v": 110
    },
    {
      "midi": 62,
      "hit": false,
      "t": 258849.33749999985,
      "d": 259.95553124998696,
      "v": 110
    },
    {
      "midi": 64,
      "hit": false,
      "t": 259114.82399999967,
      "d": 442.47750000000815,
      "v": 110
    },
    {
      "midi": 64,
      "hit": false,
      "t": 259114.82399999985,
      "d": 442.47750000000815,
      "v": 110
    },
    {
      "midi": 62,
      "hit": false,
      "t": 259645.79699999967,
      "d": 259.95553124998696,
      "v": 110
    },
    {
      "midi": 62,
      "hit": false,
      "t": 259645.79699999985,
      "d": 259.95553124998696,
      "v": 110
    },
    {
      "midi": 64,
      "hit": false,
      "t": 259911.28349999967,
      "d": 259.95553124998696,
      "v": 110
    },
    {
      "midi": 64,
      "hit": false,
      "t": 259911.28349999984,
      "d": 259.95553124998696,
      "v": 110
    },
    {
      "midi": 65,
      "hit": false,
      "t": 260176.76999999967,
      "d": 442.47750000000815,
      "v": 110
    },
    {
      "midi": 65,
      "hit": false,
      "t": 260176.76999999984,
      "d": 442.47750000000815,
      "v": 110
    },
    {
      "midi": 64,
      "hit": false,
      "t": 260707.74299999967,
      "d": 259.95553124998696,
      "v": 110
    },
    {
      "midi": 64,
      "hit": false,
      "t": 260707.74299999984,
      "d": 259.95553124998696,
      "v": 110
    },
    {
      "midi": 62,
      "hit": false,
      "t": 260973.22949999967,
      "d": 259.95553124998696,
      "v": 110
    },
    {
      "midi": 62,
      "hit": false,
      "t": 260973.22949999984,
      "d": 259.95553124998696,
      "v": 110
    },
    {
      "midi": 62,
      "hit": false,
      "t": 261238.71599999967,
      "d": 442.47750000000815,
      "v": 110
    },
    {
      "midi": 62,
      "hit": false,
      "t": 261238.71599999984,
      "d": 442.47750000000815,
      "v": 110
    },
    {
      "midi": 60,
      "hit": false,
      "t": 261769.68899999966,
      "d": 1460.1757499999949,
      "v": 110
    },
    {
      "midi": 60,
      "hit": false,
      "t": 261769.68899999984,
      "d": 1460.1757499999949,
      "v": 110
    }
  ]
}