{
  "jsonPath": "Soundtracks/Video Game Music/Legend of Zelda Ocarina of Time/legend-of-zelda-ocarina-of-time-links-house-by-w3sp.json",
  "path": "Soundtracks\\Video Game Music\\Legend of Zelda Ocarina of Time\\Legend_of_Zelda_Ocarina_of_Time_Links_House_by_w3sp.mid",
  "name": "Legend_of_Zelda_Ocarina_of_Time_Links_House_by_w3sp",
  "difficulty": "Advanced",
  "bpm": 150,
  "notes": [
    {
      "midi": 76,
      "hit": false,
      "t": 162.5,
      "d": 125.78125,
      "v": 56
    },
    {
      "midi": 81,
      "hit": false,
      "t": 212.5,
      "d": 66.40625,
      "v": 56
    },
    {
      "midi": 86,
      "hit": false,
      "t": 262.5,
      "d": 16.40625,
      "v": 70
    },
    {
      "midi": 85,
      "hit": false,
      "t": 408.984375,
      "d": 76.5625,
      "v": 65
    },
    {
      "midi": 81,
      "hit": false,
      "t": 608.203125,
      "d": 79.296875,
      "v": 64
    },
    {
      "midi": 76,
      "hit": false,
      "t": 804.6875,
      "d": 79.296875,
      "v": 67
    },
    {
      "midi": 74,
      "hit": false,
      "t": 1003.90625,
      "d": 77.734375,
      "v": 64
    },
    {
      "midi": 73,
      "hit": false,
      "t": 1203.90625,
      "d": 75,
      "v": 65
    },
    {
      "midi": 69,
      "hit": false,
      "t": 1400,
      "d": 76.5625,
      "v": 64
    },
    {
      "midi": 50,
      "hit": false,
      "t": 1600,
      "d": 605.46875,
      "v": 69
    },
    {
      "midi": 66,
      "hit": false,
      "t": 1812.5,
      "d": 183.984375,
      "v": 56
    },
    {
      "midi": 69,
      "hit": false,
      "t": 1812.5,
      "d": 183.984375,
      "v": 70
    },
    {
      "midi": 64,
      "hit": false,
      "t": 2208.203125,
      "d": 204.296875,
      "v": 56
    },
    {
      "midi": 68,
      "hit": false,
      "t": 2208.203125,
      "d": 204.296875,
      "v": 70
    },
    {
      "midi": 57,
      "hit": false,
      "t": 2208.203125,
      "d": 595.703125,
      "v": 64
    },
    {
      "midi": 66,
      "hit": false,
      "t": 2603.90625,
      "d": 185.9375,
      "v": 56
    },
    {
      "midi": 69,
      "hit": false,
      "t": 2603.90625,
      "d": 185.9375,
      "v": 70
    },
    {
      "midi": 62,
      "hit": false,
      "t": 2803.90625,
      "d": 392.578125,
      "v": 65
    },
    {
      "midi": 64,
      "hit": false,
      "t": 3000,
      "d": 184.765625,
      "v": 56
    },
    {
      "midi": 68,
      "hit": false,
      "t": 3000,
      "d": 184.765625,
      "v": 70
    },
    {
      "midi": 66,
      "hit": false,
      "t": 3412.5,
      "d": 183.984375,
      "v": 56
    },
    {
      "midi": 69,
      "hit": false,
      "t": 3412.5,
      "d": 183.984375,
      "v": 70
    },
    {
      "midi": 50,
      "hit": false,
      "t": 3412.5,
      "d": 183.984375,
      "v": 64
    },
    {
      "midi": 64,
      "hit": false,
      "t": 3808.203125,
      "d": 187.5,
      "v": 56
    },
    {
      "midi": 68,
      "hit": false,
      "t": 3808.203125,
      "d": 187.5,
      "v": 70
    },
    {
      "midi": 50,
      "hit": false,
      "t": 3808.203125,
      "d": 187.5,
      "v": 64
    },
    {
      "midi": 57,
      "hit": false,
      "t": 4004.6875,
      "d": 187.5,
      "v": 67
    },
    {
      "midi": 66,
      "hit": false,
      "t": 4203.90625,
      "d": 185.9375,
      "v": 56
    },
    {
      "midi": 69,
      "hit": false,
      "t": 4203.90625,
      "d": 185.9375,
      "v": 70
    },
    {
      "midi": 62,
      "hit": false,
      "t": 4203.90625,
      "d": 185.9375,
      "v": 64
    },
    {
      "midi": 66,
      "hit": false,
      "t": 4403.90625,
      "d": 183.59375,
      "v": 57
    },
    {
      "midi": 69,
      "hit": false,
      "t": 4403.90625,
      "d": 183.59375,
      "v": 67
    },
    {
      "midi": 57,
      "hit": false,
      "t": 4403.90625,
      "d": 392.578125,
      "v": 65
    },
    {
      "midi": 66,
      "hit": false,
      "t": 4600,
      "d": 184.765625,
      "v": 56
    },
    {
      "midi": 69,
      "hit": false,
      "t": 4600,
      "d": 184.765625,
      "v": 70
    },
    {
      "midi": 48,
      "hit": false,
      "t": 4800,
      "d": 605.46875,
      "v": 68
    },
    {
      "midi": 64,
      "hit": false,
      "t": 5012.5,
      "d": 183.984375,
      "v": 56
    },
    {
      "midi": 67,
      "hit": false,
      "t": 5012.5,
      "d": 183.984375,
      "v": 70
    },
    {
      "midi": 62,
      "hit": false,
      "t": 5408.203125,
      "d": 204.296875,
      "v": 56
    },
    {
      "midi": 66,
      "hit": false,
      "t": 5408.203125,
      "d": 204.296875,
      "v": 70
    },
    {
      "midi": 55,
      "hit": false,
      "t": 5408.203125,
      "d": 595.703125,
      "v": 64
    },
    {
      "midi": 64,
      "hit": false,
      "t": 5803.90625,
      "d": 185.9375,
      "v": 56
    },
    {
      "midi": 67,
      "hit": false,
      "t": 5803.90625,
      "d": 185.9375,
      "v": 70
    },
    {
      "midi": 60,
      "hit": false,
      "t": 6003.90625,
      "d": 392.578125,
      "v": 65
    },
    {
      "midi": 62,
      "hit": false,
      "t": 6200,
      "d": 184.765625,
      "v": 56
    },
    {
      "midi": 66,
      "hit": false,
      "t": 6200,
      "d": 184.765625,
      "v": 70
    },
    {
      "midi": 64,
      "hit": false,
      "t": 6612.5,
      "d": 183.984375,
      "v": 56
    },
    {
      "midi": 67,
      "hit": false,
      "t": 6612.5,
      "d": 183.984375,
      "v": 70
    },
    {
      "midi": 48,
      "hit": false,
      "t": 6612.5,
      "d": 183.984375,
      "v": 64
    },
    {
      "midi": 62,
      "hit": false,
      "t": 7008.203125,
      "d": 187.5,
      "v": 56
    },
    {
      "midi": 66,
      "hit": false,
      "t": 7008.203125,
      "d": 187.5,
      "v": 70
    },
    {
      "midi": 48,
      "hit": false,
      "t": 7008.203125,
      "d": 187.5,
      "v": 64
    },
    {
      "midi": 55,
      "hit": false,
      "t": 7204.6875,
      "d": 187.5,
      "v": 67
    },
    {
      "midi": 64,
      "hit": false,
      "t": 7403.90625,
      "d": 185.9375,
      "v": 56
    },
    {
      "midi": 67,
      "hit": false,
      "t": 7403.90625,
      "d": 185.9375,
      "v": 70
    },
    {
      "midi": 60,
      "hit": false,
      "t": 7403.90625,
      "d": 185.9375,
      "v": 64
    },
    {
      "midi": 64,
      "hit": false,
      "t": 7603.90625,
      "d": 183.59375,
      "v": 57
    },
    {
      "midi": 67,
      "hit": false,
      "t": 7603.90625,
      "d": 183.59375,
      "v": 67
    },
    {
      "midi": 55,
      "hit": false,
      "t": 7603.90625,
      "d": 392.578125,
      "v": 65
    },
    {
      "midi": 64,
      "hit": false,
      "t": 7800,
      "d": 184.765625,
      "v": 56
    },
    {
      "midi": 67,
      "hit": false,
      "t": 7800,
      "d": 184.765625,
      "v": 70
    },
    {
      "midi": 46,
      "hit": false,
      "t": 8000,
      "d": 605.46875,
      "v": 68
    },
    {
      "midi": 62,
      "hit": false,
      "t": 8212.5,
      "d": 183.984375,
      "v": 56
    },
    {
      "midi": 65,
      "hit": false,
      "t": 8212.5,
      "d": 183.984375,
      "v": 70
    },
    {
      "midi": 60,
      "hit": false,
      "t": 8608.203125,
      "d": 204.296875,
      "v": 56
    },
    {
      "midi": 64,
      "hit": false,
      "t": 8608.203125,
      "d": 204.296875,
      "v": 70
    },
    {
      "midi": 53,
      "hit": false,
      "t": 8608.203125,
      "d": 595.703125,
      "v": 64
    },
    {
      "midi": 62,
      "hit": false,
      "t": 9003.90625,
      "d": 185.9375,
      "v": 56
    },
    {
      "midi": 65,
      "hit": false,
      "t": 9003.90625,
      "d": 185.9375,
      "v": 70
    },
    {
      "midi": 58,
      "hit": false,
      "t": 9203.90625,
      "d": 392.578125,
      "v": 65
    },
    {
      "midi": 60,
      "hit": false,
      "t": 9400,
      "d": 184.765625,
      "v": 56
    },
    {
      "midi": 64,
      "hit": false,
      "t": 9400,
      "d": 184.765625,
      "v": 70
    },
    {
      "midi": 62,
      "hit": false,
      "t": 9812.5,
      "d": 183.984375,
      "v": 56
    },
    {
      "midi": 65,
      "hit": false,
      "t": 9812.5,
      "d": 183.984375,
      "v": 70
    },
    {
      "midi": 46,
      "hit": false,
      "t": 9812.5,
      "d": 183.984375,
      "v": 64
    },
    {
      "midi": 60,
      "hit": false,
      "t": 10208.203125,
      "d": 187.5,
      "v": 56
    },
    {
      "midi": 64,
      "hit": false,
      "t": 10208.203125,
      "d": 187.5,
      "v": 70
    },
    {
      "midi": 46,
      "hit": false,
      "t": 10208.203125,
      "d": 187.5,
      "v": 64
    },
    {
      "midi": 53,
      "hit": false,
      "t": 10404.6875,
      "d": 187.5,
      "v": 67
    },
    {
      "midi": 62,
      "hit": false,
      "t": 10603.90625,
      "d": 185.9375,
      "v": 56
    },
    {
      "midi": 65,
      "hit": false,
      "t": 10603.90625,
      "d": 185.9375,
      "v": 70
    },
    {
      "midi": 58,
      "hit": false,
      "t": 10603.90625,
      "d": 185.9375,
      "v": 64
    },
    {
      "midi": 62,
      "hit": false,
      "t": 10803.90625,
      "d": 183.59375,
      "v": 57
    },
    {
      "midi": 65,
      "hit": false,
      "t": 10803.90625,
      "d": 183.59375,
      "v": 67
    },
    {
      "midi": 53,
      "hit": false,
      "t": 10803.90625,
      "d": 392.578125,
      "v": 65
    },
    {
      "midi": 62,
      "hit": false,
      "t": 11000,
      "d": 184.765625,
      "v": 56
    },
    {
      "midi": 65,
      "hit": false,
      "t": 11000,
      "d": 184.765625,
      "v": 70
    },
    {
      "midi": 61,
      "hit": false,
      "t": 11200,
      "d": 2404.6875,
      "v": 56
    },
    {
      "midi": 64,
      "hit": false,
      "t": 11200,
      "d": 2404.6875,
      "v": 70
    },
    {
      "midi": 45,
      "hit": false,
      "t": 11200,
      "d": 605.46875,
      "v": 68
    },
    {
      "midi": 52,
      "hit": false,
      "t": 11808.203125,
      "d": 595.703125,
      "v": 64
    },
    {
      "midi": 57,
      "hit": false,
      "t": 12403.90625,
      "d": 392.578125,
      "v": 65
    },
    {
      "midi": 45,
      "hit": false,
      "t": 13012.5,
      "d": 183.984375,
      "v": 64
    },
    {
      "midi": 44,
      "hit": false,
      "t": 13408.203125,
      "d": 187.5,
      "v": 64
    },
    {
      "midi": 45,
      "hit": false,
      "t": 13604.6875,
      "d": 187.5,
      "v": 66
    },
    {
      "midi": 52,
      "hit": false,
      "t": 13803.90625,
      "d": 185.9375,
      "v": 64
    },
    {
      "midi": 57,
      "hit": false,
      "t": 14003.90625,
      "d": 392.578125,
      "v": 65
    },
    {
      "midi": 50,
      "hit": false,
      "t": 14400,
      "d": 605.46875,
      "v": 69
    },
    {
      "midi": 81,
      "hit": false,
      "t": 14612.5,
      "d": 183.984375,
      "v": 64
    },
    {
      "midi": 80,
      "hit": false,
      "t": 14808.984375,
      "d": 185.15625,
      "v": 65
    },
    {
      "midi": 81,
      "hit": false,
      "t": 15008.203125,
      "d": 204.296875,
      "v": 64
    },
    {
      "midi": 57,
      "hit": false,
      "t": 15008.203125,
      "d": 595.703125,
      "v": 64
    },
    {
      "midi": 81,
      "hit": false,
      "t": 15403.90625,
      "d": 185.9375,
      "v": 64
    },
    {
      "midi": 62,
      "hit": false,
      "t": 15603.90625,
      "d": 392.578125,
      "v": 65
    },
    {
      "midi": 93,
      "hit": false,
      "t": 15800,
      "d": 184.765625,
      "v": 64
    },
    {
      "midi": 81,
      "hit": false,
      "t": 16212.5,
      "d": 183.984375,
      "v": 64
    },
    {
      "midi": 50,
      "hit": false,
      "t": 16212.5,
      "d": 183.984375,
      "v": 64
    },
    {
      "midi": 81,
      "hit": false,
      "t": 16608.203125,
      "d": 187.5,
      "v": 64
    },
    {
      "midi": 50,
      "hit": false,
      "t": 16608.203125,
      "d": 187.5,
      "v": 64
    },
    {
      "midi": 57,
      "hit": false,
      "t": 16804.6875,
      "d": 187.5,
      "v": 67
    },
    {
      "midi": 81,
      "hit": false,
      "t": 17003.90625,
      "d": 185.9375,
      "v": 64
    },
    {
      "midi": 62,
      "hit": false,
      "t": 17003.90625,
      "d": 185.9375,
      "v": 64
    },
    {
      "midi": 93,
      "hit": false,
      "t": 17203.90625,
      "d": 183.59375,
      "v": 65
    },
    {
      "midi": 57,
      "hit": false,
      "t": 17203.90625,
      "d": 392.578125,
      "v": 65
    },
    {
      "midi": 93,
      "hit": false,
      "t": 17400,
      "d": 184.765625,
      "v": 64
    },
    {
      "midi": 48,
      "hit": false,
      "t": 17600,
      "d": 605.46875,
      "v": 68
    },
    {
      "midi": 79,
      "hit": false,
      "t": 17812.5,
      "d": 183.984375,
      "v": 64
    },
    {
      "midi": 78,
      "hit": false,
      "t": 18008.984375,
      "d": 185.15625,
      "v": 65
    },
    {
      "midi": 79,
      "hit": false,
      "t": 18208.203125,
      "d": 187.5,
      "v": 64
    },
    {
      "midi": 55,
      "hit": false,
      "t": 18208.203125,
      "d": 595.703125,
      "v": 64
    },
    {
      "midi": 84,
      "hit": false,
      "t": 18404.6875,
      "d": 187.5,
      "v": 67
    },
    {
      "midi": 91,
      "hit": false,
      "t": 18603.90625,
      "d": 185.9375,
      "v": 64
    },
    {
      "midi": 60,
      "hit": false,
      "t": 18803.90625,
      "d": 392.578125,
      "v": 65
    },
    {
      "midi": 91,
      "hit": false,
      "t": 19000,
      "d": 184.765625,
      "v": 64
    },
    {
      "midi": 91,
      "hit": false,
      "t": 19412.5,
      "d": 183.984375,
      "v": 64
    },
    {
      "midi": 48,
      "hit": false,
      "t": 19412.5,
      "d": 183.984375,
      "v": 64
    },
    {
      "midi": 90,
      "hit": false,
      "t": 19608.984375,
      "d": 185.15625,
      "v": 65
    },
    {
      "midi": 91,
      "hit": false,
      "t": 19808.203125,
      "d": 187.5,
      "v": 64
    },
    {
      "midi": 48,
      "hit": false,
      "t": 19808.203125,
      "d": 187.5,
      "v": 64
    },
    {
      "midi": 93,
      "hit": false,
      "t": 20004.6875,
      "d": 187.5,
      "v": 67
    },
    {
      "midi": 55,
      "hit": false,
      "t": 20004.6875,
      "d": 187.5,
      "v": 67
    },
    {
      "midi": 91,
      "hit": false,
      "t": 20203.90625,
      "d": 185.9375,
      "v": 64
    },
    {
      "midi": 60,
      "hit": false,
      "t": 20203.90625,
      "d": 185.9375,
      "v": 64
    },
    {
      "midi": 89,
      "hit": false,
      "t": 20403.90625,
      "d": 183.59375,
      "v": 65
    },
    {
      "midi": 55,
      "hit": false,
      "t": 20403.90625,
      "d": 392.578125,
      "v": 65
    },
    {
      "midi": 88,
      "hit": false,
      "t": 20600,
      "d": 184.765625,
      "v": 64
    },
    {
      "midi": 46,
      "hit": false,
      "t": 20800,
      "d": 605.46875,
      "v": 68
    },
    {
      "midi": 77,
      "hit": false,
      "t": 21012.5,
      "d": 183.984375,
      "v": 64
    },
    {
      "midi": 76,
      "hit": false,
      "t": 21208.984375,
      "d": 185.15625,
      "v": 65
    },
    {
      "midi": 77,
      "hit": false,
      "t": 21408.203125,
      "d": 187.5,
      "v": 64
    },
    {
      "midi": 53,
      "hit": false,
      "t": 21408.203125,
      "d": 595.703125,
      "v": 64
    },
    {
      "midi": 84,
      "hit": false,
      "t": 21604.6875,
      "d": 187.5,
      "v": 67
    },
    {
      "midi": 89,
      "hit": false,
      "t": 21803.90625,
      "d": 185.9375,
      "v": 64
    },
    {
      "midi": 58,
      "hit": false,
      "t": 22003.90625,
      "d": 392.578125,
      "v": 65
    },
    {
      "midi": 89,
      "hit": false,
      "t": 22200,
      "d": 184.765625,
      "v": 64
    },
    {
      "midi": 89,
      "hit": false,
      "t": 22612.5,
      "d": 183.984375,
      "v": 64
    },
    {
      "midi": 46,
      "hit": false,
      "t": 22612.5,
      "d": 183.984375,
      "v": 64
    },
    {
      "midi": 88,
      "hit": false,
      "t": 22808.984375,
      "d": 185.15625,
      "v": 65
    },
    {
      "midi": 89,
      "hit": false,
      "t": 23008.203125,
      "d": 187.5,
      "v": 64
    },
    {
      "midi": 46,
      "hit": false,
      "t": 23008.203125,
      "d": 187.5,
      "v": 64
    },
    {
      "midi": 91,
      "hit": false,
      "t": 23204.6875,
      "d": 187.5,
      "v": 67
    },
    {
      "midi": 53,
      "hit": false,
      "t": 23204.6875,
      "d": 187.5,
      "v": 67
    },
    {
      "midi": 89,
      "hit": false,
      "t": 23403.90625,
      "d": 185.9375,
      "v": 64
    },
    {
      "midi": 58,
      "hit": false,
      "t": 23403.90625,
      "d": 185.9375,
      "v": 64
    },
    {
      "midi": 88,
      "hit": false,
      "t": 23603.90625,
      "d": 183.59375,
      "v": 65
    },
    {
      "midi": 53,
      "hit": false,
      "t": 23603.90625,
      "d": 392.578125,
      "v": 65
    },
    {
      "midi": 86,
      "hit": false,
      "t": 23800,
      "d": 184.765625,
      "v": 64
    },
    {
      "midi": 85,
      "hit": false,
      "t": 24000,
      "d": 108.203125,
      "v": 69
    },
    {
      "midi": 45,
      "hit": false,
      "t": 24000,
      "d": 605.46875,
      "v": 68
    },
    {
      "midi": 86,
      "hit": false,
      "t": 24113.28125,
      "d": 89.84375,
      "v": 64
    },
    {
      "midi": 85,
      "hit": false,
      "t": 24212.5,
      "d": 1187.5,
      "v": 64
    },
    {
      "midi": 52,
      "hit": false,
      "t": 24608.203125,
      "d": 595.703125,
      "v": 64
    },
    {
      "midi": 57,
      "hit": false,
      "t": 25203.90625,
      "d": 392.578125,
      "v": 65
    },
    {
      "midi": 85,
      "hit": false,
      "t": 25400,
      "d": 184.765625,
      "v": 64
    },
    {
      "midi": 93,
      "hit": false,
      "t": 25600,
      "d": 1596.484375,
      "v": 64
    },
    {
      "midi": 45,
      "hit": false,
      "t": 25812.5,
      "d": 183.984375,
      "v": 64
    },
    {
      "midi": 44,
      "hit": false,
      "t": 26208.203125,
      "d": 187.5,
      "v": 64
    },
    {
      "midi": 45,
      "hit": false,
      "t": 26404.6875,
      "d": 187.5,
      "v": 66
    },
    {
      "midi": 52,
      "hit": false,
      "t": 26603.90625,
      "d": 185.9375,
      "v": 64
    },
    {
      "midi": 57,
      "hit": false,
      "t": 26803.90625,
      "d": 183.59375,
      "v": 65
    },
    {
      "midi": 64,
      "hit": false,
      "t": 27000,
      "d": 184.765625,
      "v": 64
    },
    {
      "midi": 50,
      "hit": false,
      "t": 27200,
      "d": 605.46875,
      "v": 69
    },
    {
      "midi": 66,
      "hit": false,
      "t": 27412.5,
      "d": 183.984375,
      "v": 56
    },
    {
      "midi": 69,
      "hit": false,
      "t": 27412.5,
      "d": 183.984375,
      "v": 70
    },
    {
      "midi": 64,
      "hit": false,
      "t": 27808.203125,
      "d": 204.296875,
      "v": 56
    },
    {
      "midi": 68,
      "hit": false,
      "t": 27808.203125,
      "d": 204.296875,
      "v": 70
    },
    {
      "midi": 57,
      "hit": false,
      "t": 27808.203125,
      "d": 595.703125,
      "v": 64
    },
    {
      "midi": 66,
      "hit": false,
      "t": 28203.90625,
      "d": 185.9375,
      "v": 56
    },
    {
      "midi": 69,
      "hit": false,
      "t": 28203.90625,
      "d": 185.9375,
      "v": 70
    },
    {
      "midi": 62,
      "hit": false,
      "t": 28403.90625,
      "d": 392.578125,
      "v": 65
    },
    {
      "midi": 64,
      "hit": false,
      "t": 28600,
      "d": 184.765625,
      "v": 56
    },
    {
      "midi": 68,
      "hit": false,
      "t": 28600,
      "d": 184.765625,
      "v": 70
    },
    {
      "midi": 66,
      "hit": false,
      "t": 29012.5,
      "d": 183.984375,
      "v": 56
    },
    {
      "midi": 69,
      "hit": false,
      "t": 29012.5,
      "d": 183.984375,
      "v": 70
    },
    {
      "midi": 50,
      "hit": false,
      "t": 29012.5,
      "d": 183.984375,
      "v": 64
    },
    {
      "midi": 64,
      "hit": false,
      "t": 29408.203125,
      "d": 187.5,
      "v": 56
    },
    {
      "midi": 68,
      "hit": false,
      "t": 29408.203125,
      "d": 187.5,
      "v": 70
    },
    {
      "midi": 50,
      "hit": false,
      "t": 29408.203125,
      "d": 187.5,
      "v": 64
    },
    {
      "midi": 57,
      "hit": false,
      "t": 29604.6875,
      "d": 187.5,
      "v": 67
    },
    {
      "midi": 66,
      "hit": false,
      "t": 29803.90625,
      "d": 185.9375,
      "v": 56
    },
    {
      "midi": 69,
      "hit": false,
      "t": 29803.90625,
      "d": 185.9375,
      "v": 70
    },
    {
      "midi": 62,
      "hit": false,
      "t": 29803.90625,
      "d": 185.9375,
      "v": 64
    },
    {
      "midi": 66,
      "hit": false,
      "t": 30003.90625,
      "d": 183.59375,
      "v": 57
    },
    {
      "midi": 69,
      "hit": false,
      "t": 30003.90625,
      "d": 183.59375,
      "v": 67
    },
    {
      "midi": 57,
      "hit": false,
      "t": 30003.90625,
      "d": 392.578125,
      "v": 65
    },
    {
      "midi": 66,
      "hit": false,
      "t": 30200,
      "d": 184.765625,
      "v": 56
    },
    {
      "midi": 69,
      "hit": false,
      "t": 30200,
      "d": 184.765625,
      "v": 70
    },
    {
      "midi": 48,
      "hit": false,
      "t": 30400,
      "d": 605.46875,
      "v": 68
    },
    {
      "midi": 64,
      "hit": false,
      "t": 30612.5,
      "d": 183.984375,
      "v": 56
    },
    {
      "midi": 67,
      "hit": false,
      "t": 30612.5,
      "d": 183.984375,
      "v": 70
    },
    {
      "midi": 62,
      "hit": false,
      "t": 31008.203125,
      "d": 204.296875,
      "v": 56
    },
    {
      "midi": 66,
      "hit": false,
      "t": 31008.203125,
      "d": 204.296875,
      "v": 70
    },
    {
      "midi": 55,
      "hit": false,
      "t": 31008.203125,
      "d": 595.703125,
      "v": 64
    },
    {
      "midi": 64,
      "hit": false,
      "t": 31403.90625,
      "d": 185.9375,
      "v": 56
    },
    {
      "midi": 67,
      "hit": false,
      "t": 31403.90625,
      "d": 185.9375,
      "v": 70
    },
    {
      "midi": 60,
      "hit": false,
      "t": 31603.90625,
      "d": 392.578125,
      "v": 65
    },
    {
      "midi": 62,
      "hit": false,
      "t": 31800,
      "d": 184.765625,
      "v": 56
    },
    {
      "midi": 66,
      "hit": false,
      "t": 31800,
      "d": 184.765625,
      "v": 70
    },
    {
      "midi": 64,
      "hit": false,
      "t": 32212.5,
      "d": 183.984375,
      "v": 56
    },
    {
      "midi": 67,
      "hit": false,
      "t": 32212.5,
      "d": 183.984375,
      "v": 70
    },
    {
      "midi": 48,
      "hit": false,
      "t": 32212.5,
      "d": 183.984375,
      "v": 64
    },
    {
      "midi": 62,
      "hit": false,
      "t": 32608.203125,
      "d": 187.5,
      "v": 56
    },
    {
      "midi": 66,
      "hit": false,
      "t": 32608.203125,
      "d": 187.5,
      "v": 70
    },
    {
      "midi": 48,
      "hit": false,
      "t": 32608.203125,
      "d": 187.5,
      "v": 64
    },
    {
      "midi": 55,
      "hit": false,
      "t": 32804.6875,
      "d": 187.5,
      "v": 67
    },
    {
      "midi": 64,
      "hit": false,
      "t": 33003.90625,
      "d": 185.9375,
      "v": 56
    },
    {
      "midi": 67,
      "hit": false,
      "t": 33003.90625,
      "d": 185.9375,
      "v": 70
    },
    {
      "midi": 60,
      "hit": false,
      "t": 33003.90625,
      "d": 185.9375,
      "v": 64
    },
    {
      "midi": 64,
      "hit": false,
      "t": 33203.90625,
      "d": 183.59375,
      "v": 57
    },
    {
      "midi": 67,
      "hit": false,
      "t": 33203.90625,
      "d": 183.59375,
      "v": 67
    },
    {
      "midi": 55,
      "hit": false,
      "t": 33203.90625,
      "d": 392.578125,
      "v": 65
    },
    {
      "midi": 64,
      "hit": false,
      "t": 33400,
      "d": 184.765625,
      "v": 56
    },
    {
      "midi": 67,
      "hit": false,
      "t": 33400,
      "d": 184.765625,
      "v": 70
    },
    {
      "midi": 46,
      "hit": false,
      "t": 33600,
      "d": 605.46875,
      "v": 68
    },
    {
      "midi": 62,
      "hit": false,
      "t": 33812.5,
      "d": 183.984375,
      "v": 56
    },
    {
      "midi": 65,
      "hit": false,
      "t": 33812.5,
      "d": 183.984375,
      "v": 70
    },
    {
      "midi": 60,
      "hit": false,
      "t": 34208.203125,
      "d": 204.296875,
      "v": 56
    },
    {
      "midi": 64,
      "hit": false,
      "t": 34208.203125,
      "d": 204.296875,
      "v": 70
    },
    {
      "midi": 53,
      "hit": false,
      "t": 34208.203125,
      "d": 595.703125,
      "v": 64
    },
    {
      "midi": 62,
      "hit": false,
      "t": 34603.90625,
      "d": 185.9375,
      "v": 56
    },
    {
      "midi": 65,
      "hit": false,
      "t": 34603.90625,
      "d": 185.9375,
      "v": 70
    },
    {
      "midi": 58,
      "hit": false,
      "t": 34803.90625,
      "d": 392.578125,
      "v": 65
    },
    {
      "midi": 60,
      "hit": false,
      "t": 35000,
      "d": 184.765625,
      "v": 56
    },
    {
      "midi": 64,
      "hit": false,
      "t": 35000,
      "d": 184.765625,
      "v": 70
    },
    {
      "midi": 62,
      "hit": false,
      "t": 35412.5,
      "d": 183.984375,
      "v": 56
    },
    {
      "midi": 65,
      "hit": false,
      "t": 35412.5,
      "d": 183.984375,
      "v": 70
    },
    {
      "midi": 46,
      "hit": false,
      "t": 35412.5,
      "d": 183.984375,
      "v": 64
    },
    {
      "midi": 60,
      "hit": false,
      "t": 35808.203125,
      "d": 187.5,
      "v": 56
    },
    {
      "midi": 64,
      "hit": false,
      "t": 35808.203125,
      "d": 187.5,
      "v": 70
    },
    {
      "midi": 46,
      "hit": false,
      "t": 35808.203125,
      "d": 187.5,
      "v": 64
    },
    {
      "midi": 53,
      "hit": false,
      "t": 36004.6875,
      "d": 187.5,
      "v": 67
    },
    {
      "midi": 62,
      "hit": false,
      "t": 36203.90625,
      "d": 185.9375,
      "v": 56
    },
    {
      "midi": 65,
      "hit": false,
      "t": 36203.90625,
      "d": 185.9375,
      "v": 70
    },
    {
      "midi": 58,
      "hit": false,
      "t": 36203.90625,
      "d": 185.9375,
      "v": 64
    },
    {
      "midi": 62,
      "hit": false,
      "t": 36403.90625,
      "d": 183.59375,
      "v": 57
    },
    {
      "midi": 65,
      "hit": false,
      "t": 36403.90625,
      "d": 183.59375,
      "v": 67
    },
    {
      "midi": 53,
      "hit": false,
      "t": 36403.90625,
      "d": 392.578125,
      "v": 65
    },
    {
      "midi": 62,
      "hit": false,
      "t": 36600,
      "d": 184.765625,
      "v": 56
    },
    {
      "midi": 65,
      "hit": false,
      "t": 36600,
      "d": 184.765625,
      "v": 70
    },
    {
      "midi": 61,
      "hit": false,
      "t": 36800,
      "d": 2404.6875,
      "v": 56
    },
    {
      "midi": 64,
      "hit": false,
      "t": 36800,
      "d": 2404.6875,
      "v": 70
    },
    {
      "midi": 45,
      "hit": false,
      "t": 36800,
      "d": 605.46875,
      "v": 68
    },
    {
      "midi": 52,
      "hit": false,
      "t": 37408.203125,
      "d": 595.703125,
      "v": 64
    },
    {
      "midi": 57,
      "hit": false,
      "t": 38003.90625,
      "d": 392.578125,
      "v": 65
    },
    {
      "midi": 45,
      "hit": false,
      "t": 38612.5,
      "d": 183.984375,
      "v": 64
    },
    {
      "midi": 44,
      "hit": false,
      "t": 39008.203125,
      "d": 187.5,
      "v": 64
    },
    {
      "midi": 45,
      "hit": false,
      "t": 39204.6875,
      "d": 187.5,
      "v": 66
    },
    {
      "midi": 52,
      "hit": false,
      "t": 39403.90625,
      "d": 185.9375,
      "v": 64
    },
    {
      "midi": 57,
      "hit": false,
      "t": 39603.90625,
      "d": 392.578125,
      "v": 65
    },
    {
      "midi": 50,
      "hit": false,
      "t": 40000,
      "d": 605.46875,
      "v": 69
    },
    {
      "midi": 81,
      "hit": false,
      "t": 40212.5,
      "d": 183.984375,
      "v": 64
    },
    {
      "midi": 80,
      "hit": false,
      "t": 40408.984375,
      "d": 185.15625,
      "v": 65
    },
    {
      "midi": 81,
      "hit": false,
      "t": 40608.203125,
      "d": 204.296875,
      "v": 64
    },
    {
      "midi": 57,
      "hit": false,
      "t": 40608.203125,
      "d": 595.703125,
      "v": 64
    },
    {
      "midi": 81,
      "hit": false,
      "t": 41003.90625,
      "d": 185.9375,
      "v": 64
    },
    {
      "midi": 62,
      "hit": false,
      "t": 41203.90625,
      "d": 392.578125,
      "v": 65
    },
    {
      "midi": 93,
      "hit": false,
      "t": 41400,
      "d": 184.765625,
      "v": 64
    },
    {
      "midi": 81,
      "hit": false,
      "t": 41812.5,
      "d": 183.984375,
      "v": 64
    },
    {
      "midi": 50,
      "hit": false,
      "t": 41812.5,
      "d": 183.984375,
      "v": 64
    },
    {
      "midi": 81,
      "hit": false,
      "t": 42208.203125,
      "d": 187.5,
      "v": 64
    },
    {
      "midi": 50,
      "hit": false,
      "t": 42208.203125,
      "d": 187.5,
      "v": 64
    },
    {
      "midi": 57,
      "hit": false,
      "t": 42404.6875,
      "d": 187.5,
      "v": 67
    },
    {
      "midi": 81,
      "hit": false,
      "t": 42603.90625,
      "d": 185.9375,
      "v": 64
    },
    {
      "midi": 62,
      "hit": false,
      "t": 42603.90625,
      "d": 185.9375,
      "v": 64
    },
    {
      "midi": 93,
      "hit": false,
      "t": 42803.90625,
      "d": 183.59375,
      "v": 65
    },
    {
      "midi": 57,
      "hit": false,
      "t": 42803.90625,
      "d": 392.578125,
      "v": 65
    },
    {
      "midi": 93,
      "hit": false,
      "t": 43000,
      "d": 184.765625,
      "v": 64
    },
    {
      "midi": 48,
      "hit": false,
      "t": 43200,
      "d": 605.46875,
      "v": 68
    },
    {
      "midi": 79,
      "hit": false,
      "t": 43412.5,
      "d": 183.984375,
      "v": 64
    },
    {
      "midi": 78,
      "hit": false,
      "t": 43608.984375,
      "d": 185.15625,
      "v": 65
    },
    {
      "midi": 79,
      "hit": false,
      "t": 43808.203125,
      "d": 187.5,
      "v": 64
    },
    {
      "midi": 55,
      "hit": false,
      "t": 43808.203125,
      "d": 595.703125,
      "v": 64
    },
    {
      "midi": 84,
      "hit": false,
      "t": 44004.6875,
      "d": 187.5,
      "v": 67
    },
    {
      "midi": 91,
      "hit": false,
      "t": 44203.90625,
      "d": 185.9375,
      "v": 64
    },
    {
      "midi": 60,
      "hit": false,
      "t": 44403.90625,
      "d": 392.578125,
      "v": 65
    },
    {
      "midi": 91,
      "hit": false,
      "t": 44600,
      "d": 184.765625,
      "v": 64
    },
    {
      "midi": 91,
      "hit": false,
      "t": 45012.5,
      "d": 183.984375,
      "v": 64
    },
    {
      "midi": 48,
      "hit": false,
      "t": 45012.5,
      "d": 183.984375,
      "v": 64
    },
    {
      "midi": 90,
      "hit": false,
      "t": 45208.984375,
      "d": 185.15625,
      "v": 65
    },
    {
      "midi": 91,
      "hit": false,
      "t": 45408.203125,
      "d": 187.5,
      "v": 64
    },
    {
      "midi": 48,
      "hit": false,
      "t": 45408.203125,
      "d": 187.5,
      "v": 64
    },
    {
      "midi": 93,
      "hit": false,
      "t": 45604.6875,
      "d": 187.5,
      "v": 67
    },
    {
      "midi": 55,
      "hit": false,
      "t": 45604.6875,
      "d": 187.5,
      "v": 67
    },
    {
      "midi": 91,
      "hit": false,
      "t": 45803.90625,
      "d": 185.9375,
      "v": 64
    },
    {
      "midi": 60,
      "hit": false,
      "t": 45803.90625,
      "d": 185.9375,
      "v": 64
    },
    {
      "midi": 89,
      "hit": false,
      "t": 46003.90625,
      "d": 183.59375,
      "v": 65
    },
    {
      "midi": 55,
      "hit": false,
      "t": 46003.90625,
      "d": 392.578125,
      "v": 65
    },
    {
      "midi": 88,
      "hit": false,
      "t": 46200,
      "d": 184.765625,
      "v": 64
    },
    {
      "midi": 46,
      "hit": false,
      "t": 46400,
      "d": 605.46875,
      "v": 68
    },
    {
      "midi": 77,
      "hit": false,
      "t": 46612.5,
      "d": 183.984375,
      "v": 64
    },
    {
      "midi": 76,
      "hit": false,
      "t": 46808.984375,
      "d": 185.15625,
      "v": 65
    },
    {
      "midi": 77,
      "hit": false,
      "t": 47008.203125,
      "d": 187.5,
      "v": 64
    },
    {
      "midi": 53,
      "hit": false,
      "t": 47008.203125,
      "d": 595.703125,
      "v": 64
    },
    {
      "midi": 84,
      "hit": false,
      "t": 47204.6875,
      "d": 187.5,
      "v": 67
    },
    {
      "midi": 89,
      "hit": false,
      "t": 47403.90625,
      "d": 185.9375,
      "v": 64
    },
    {
      "midi": 58,
      "hit": false,
      "t": 47603.90625,
      "d": 392.578125,
      "v": 65
    },
    {
      "midi": 89,
      "hit": false,
      "t": 47800,
      "d": 184.765625,
      "v": 64
    },
    {
      "midi": 89,
      "hit": false,
      "t": 48212.5,
      "d": 183.984375,
      "v": 64
    },
    {
      "midi": 46,
      "hit": false,
      "t": 48212.5,
      "d": 183.984375,
      "v": 64
    },
    {
      "midi": 88,
      "hit": false,
      "t": 48408.984375,
      "d": 185.15625,
      "v": 65
    },
    {
      "midi": 89,
      "hit": false,
      "t": 48608.203125,
      "d": 187.5,
      "v": 64
    },
    {
      "midi": 46,
      "hit": false,
      "t": 48608.203125,
      "d": 187.5,
      "v": 64
    },
    {
      "midi": 91,
      "hit": false,
      "t": 48804.6875,
      "d": 187.5,
      "v": 67
    },
    {
      "midi": 53,
      "hit": false,
      "t": 48804.6875,
      "d": 187.5,
      "v": 67
    },
    {
      "midi": 89,
      "hit": false,
      "t": 49003.90625,
      "d": 185.9375,
      "v": 64
    },
    {
      "midi": 58,
      "hit": false,
      "t": 49003.90625,
      "d": 185.9375,
      "v": 64
    },
    {
      "midi": 88,
      "hit": false,
      "t": 49203.90625,
      "d": 183.59375,
      "v": 65
    },
    {
      "midi": 53,
      "hit": false,
      "t": 49203.90625,
      "d": 392.578125,
      "v": 65
    },
    {
      "midi": 86,
      "hit": false,
      "t": 49400,
      "d": 184.765625,
      "v": 64
    },
    {
      "midi": 85,
      "hit": false,
      "t": 49600,
      "d": 108.203125,
      "v": 69
    },
    {
      "midi": 45,
      "hit": false,
      "t": 49600,
      "d": 605.46875,
      "v": 68
    },
    {
      "midi": 86,
      "hit": false,
      "t": 49713.28125,
      "d": 89.84375,
      "v": 64
    },
    {
      "midi": 85,
      "hit": false,
      "t": 49812.5,
      "d": 1187.5,
      "v": 64
    },
    {
      "midi": 52,
      "hit": false,
      "t": 50208.203125,
      "d": 595.703125,
      "v": 64
    },
    {
      "midi": 57,
      "hit": false,
      "t": 50803.90625,
      "d": 392.578125,
      "v": 65
    },
    {
      "midi": 85,
      "hit": false,
      "t": 51000,
      "d": 184.765625,
      "v": 64
    },
    {
      "midi": 93,
      "hit": false,
      "t": 51200,
      "d": 1596.484375,
      "v": 64
    },
    {
      "midi": 45,
      "hit": false,
      "t": 51412.5,
      "d": 183.984375,
      "v": 64
    },
    {
      "midi": 44,
      "hit": false,
      "t": 51808.203125,
      "d": 187.5,
      "v": 64
    },
    {
      "midi": 45,
      "hit": false,
      "t": 52004.6875,
      "d": 187.5,
      "v": 66
    },
    {
      "midi": 52,
      "hit": false,
      "t": 52203.90625,
      "d": 185.9375,
      "v": 64
    },
    {
      "midi": 57,
      "hit": false,
      "t": 52403.90625,
      "d": 183.59375,
      "v": 65
    },
    {
      "midi": 64,
      "hit": false,
      "t": 52600,
      "d": 184.765625,
      "v": 64
    }
  ]
}