{
  "jsonPath": "Unknown/Unknown/Vanessa Wagner/little-black-baby.json",
  "path": "Unknown\\Unknown\\Vanessa Wagner\\Little Black Baby.mid",
  "name": "Little Black Baby",
  "difficulty": "Advanced",
  "bpm": 90.00009000009,
  "notes": [
    {
      "midi": 65,
      "hit": false,
      "t": 0,
      "d": 428.571,
      "v": 64
    },
    {
      "midi": 74,
      "hit": false,
      "t": 0,
      "d": 428.571,
      "v": 64
    },
    {
      "midi": 46,
      "hit": false,
      "t": 0,
      "d": 857.142,
      "v": 64
    },
    {
      "midi": 65,
      "hit": false,
      "t": 428.571,
      "d": 428.571,
      "v": 64
    },
    {
      "midi": 74,
      "hit": false,
      "t": 428.571,
      "d": 428.571,
      "v": 64
    },
    {
      "midi": 65,
      "hit": false,
      "t": 857.142,
      "d": 428.57100000000014,
      "v": 64
    },
    {
      "midi": 74,
      "hit": false,
      "t": 857.142,
      "d": 428.57100000000014,
      "v": 64
    },
    {
      "midi": 53,
      "hit": false,
      "t": 857.142,
      "d": 857.142,
      "v": 64
    },
    {
      "midi": 58,
      "hit": false,
      "t": 857.142,
      "d": 857.142,
      "v": 64
    },
    {
      "midi": 62,
      "hit": false,
      "t": 857.142,
      "d": 857.142,
      "v": 64
    },
    {
      "midi": 65,
      "hit": false,
      "t": 1285.7130000000002,
      "d": 428.5709999999999,
      "v": 64
    },
    {
      "midi": 74,
      "hit": false,
      "t": 1285.7130000000002,
      "d": 428.5709999999999,
      "v": 64
    },
    {
      "midi": 67,
      "hit": false,
      "t": 1714.284,
      "d": 428.5709999999999,
      "v": 64
    },
    {
      "midi": 72,
      "hit": false,
      "t": 1714.284,
      "d": 428.5709999999999,
      "v": 64
    },
    {
      "midi": 39,
      "hit": false,
      "t": 1714.284,
      "d": 857.1419999999998,
      "v": 64
    },
    {
      "midi": 51,
      "hit": false,
      "t": 1714.284,
      "d": 857.1419999999998,
      "v": 64
    },
    {
      "midi": 67,
      "hit": false,
      "t": 2142.855,
      "d": 428.5709999999999,
      "v": 64
    },
    {
      "midi": 70,
      "hit": false,
      "t": 2142.855,
      "d": 428.5709999999999,
      "v": 64
    },
    {
      "midi": 66,
      "hit": false,
      "t": 2571.426,
      "d": 428.5709999999999,
      "v": 64
    },
    {
      "midi": 72,
      "hit": false,
      "t": 2571.426,
      "d": 428.5709999999999,
      "v": 64
    },
    {
      "midi": 54,
      "hit": false,
      "t": 2571.426,
      "d": 857.1419999999998,
      "v": 64
    },
    {
      "midi": 58,
      "hit": false,
      "t": 2571.426,
      "d": 857.1419999999998,
      "v": 64
    },
    {
      "midi": 63,
      "hit": false,
      "t": 2571.426,
      "d": 857.1419999999998,
      "v": 64
    },
    {
      "midi": 66,
      "hit": false,
      "t": 2999.997,
      "d": 428.5709999999999,
      "v": 64
    },
    {
      "midi": 70,
      "hit": false,
      "t": 2999.997,
      "d": 428.5709999999999,
      "v": 64
    },
    {
      "midi": 65,
      "hit": false,
      "t": 3428.5679999999998,
      "d": 428.5709999999999,
      "v": 64
    },
    {
      "midi": 74,
      "hit": false,
      "t": 3428.5679999999998,
      "d": 428.5709999999999,
      "v": 64
    },
    {
      "midi": 46,
      "hit": false,
      "t": 3428.5679999999998,
      "d": 857.1420000000003,
      "v": 64
    },
    {
      "midi": 65,
      "hit": false,
      "t": 3857.1389999999997,
      "d": 428.57100000000037,
      "v": 64
    },
    {
      "midi": 70,
      "hit": false,
      "t": 4285.71,
      "d": 428.5709999999999,
      "v": 64
    },
    {
      "midi": 53,
      "hit": false,
      "t": 4285.71,
      "d": 857.1419999999998,
      "v": 64
    },
    {
      "midi": 58,
      "hit": false,
      "t": 4285.71,
      "d": 857.1419999999998,
      "v": 64
    },
    {
      "midi": 62,
      "hit": false,
      "t": 4285.71,
      "d": 857.1419999999998,
      "v": 64
    },
    {
      "midi": 74,
      "hit": false,
      "t": 4714.281,
      "d": 428.5709999999999,
      "v": 64
    },
    {
      "midi": 43,
      "hit": false,
      "t": 5142.852,
      "d": 857.1419999999998,
      "v": 64
    },
    {
      "midi": 75,
      "hit": false,
      "t": 5142.852,
      "d": 857.1419999999998,
      "v": 64
    },
    {
      "midi": 65,
      "hit": false,
      "t": 5142.852,
      "d": 1714.2839999999997,
      "v": 64
    },
    {
      "midi": 71,
      "hit": false,
      "t": 5142.852,
      "d": 1714.2839999999997,
      "v": 64
    },
    {
      "midi": 53,
      "hit": false,
      "t": 5999.994,
      "d": 857.1419999999998,
      "v": 64
    },
    {
      "midi": 55,
      "hit": false,
      "t": 5999.994,
      "d": 857.1419999999998,
      "v": 64
    },
    {
      "midi": 59,
      "hit": false,
      "t": 5999.994,
      "d": 857.1419999999998,
      "v": 64
    },
    {
      "midi": 74,
      "hit": false,
      "t": 5999.994,
      "d": 857.1419999999998,
      "v": 64
    },
    {
      "midi": 64,
      "hit": false,
      "t": 6857.1359999999995,
      "d": 428.5709999999999,
      "v": 64
    },
    {
      "midi": 70,
      "hit": false,
      "t": 6857.1359999999995,
      "d": 428.5709999999999,
      "v": 64
    },
    {
      "midi": 74,
      "hit": false,
      "t": 6857.1359999999995,
      "d": 428.5709999999999,
      "v": 64
    },
    {
      "midi": 48,
      "hit": false,
      "t": 6857.1359999999995,
      "d": 857.1419999999998,
      "v": 64
    },
    {
      "midi": 72,
      "hit": false,
      "t": 7285.706999999999,
      "d": 428.5709999999999,
      "v": 64
    },
    {
      "midi": 67,
      "hit": false,
      "t": 7714.277999999999,
      "d": 428.5709999999999,
      "v": 64
    },
    {
      "midi": 52,
      "hit": false,
      "t": 7714.277999999999,
      "d": 857.1420000000007,
      "v": 64
    },
    {
      "midi": 55,
      "hit": false,
      "t": 7714.277999999999,
      "d": 857.1420000000007,
      "v": 64
    },
    {
      "midi": 58,
      "hit": false,
      "t": 7714.277999999999,
      "d": 857.1420000000007,
      "v": 64
    },
    {
      "midi": 60,
      "hit": false,
      "t": 7714.277999999999,
      "d": 857.1420000000007,
      "v": 64
    },
    {
      "midi": 72,
      "hit": false,
      "t": 8142.848999999999,
      "d": 428.5710000000008,
      "v": 64
    },
    {
      "midi": 41,
      "hit": false,
      "t": 8571.42,
      "d": 857.1419999999998,
      "v": 64
    },
    {
      "midi": 63,
      "hit": false,
      "t": 8571.42,
      "d": 857.1419999999998,
      "v": 64
    },
    {
      "midi": 69,
      "hit": false,
      "t": 8571.42,
      "d": 857.1419999999998,
      "v": 64
    },
    {
      "midi": 74,
      "hit": false,
      "t": 8571.42,
      "d": 857.1419999999998,
      "v": 64
    },
    {
      "midi": 53,
      "hit": false,
      "t": 9428.562,
      "d": 857.1419999999998,
      "v": 64
    },
    {
      "midi": 57,
      "hit": false,
      "t": 9428.562,
      "d": 857.1419999999998,
      "v": 64
    },
    {
      "midi": 63,
      "hit": false,
      "t": 9428.562,
      "d": 857.1419999999998,
      "v": 64
    },
    {
      "midi": 72,
      "hit": false,
      "t": 9428.562,
      "d": 857.1419999999998,
      "v": 64
    },
    {
      "midi": 46,
      "hit": false,
      "t": 10285.704,
      "d": 857.1419999999998,
      "v": 64
    },
    {
      "midi": 53,
      "hit": false,
      "t": 10285.704,
      "d": 857.1419999999998,
      "v": 64
    },
    {
      "midi": 62,
      "hit": false,
      "t": 10285.704,
      "d": 857.1419999999998,
      "v": 64
    },
    {
      "midi": 65,
      "hit": false,
      "t": 10285.704,
      "d": 857.1419999999998,
      "v": 64
    },
    {
      "midi": 70,
      "hit": false,
      "t": 10285.704,
      "d": 857.1419999999998,
      "v": 64
    },
    {
      "midi": 34,
      "hit": false,
      "t": 11999.988,
      "d": 857.1419999999998,
      "v": 64
    },
    {
      "midi": 46,
      "hit": false,
      "t": 11999.988,
      "d": 857.1419999999998,
      "v": 64
    },
    {
      "midi": 70,
      "hit": false,
      "t": 11999.988,
      "d": 857.1419999999998,
      "v": 64
    },
    {
      "midi": 74,
      "hit": false,
      "t": 11999.988,
      "d": 857.1419999999998,
      "v": 64
    },
    {
      "midi": 77,
      "hit": false,
      "t": 11999.988,
      "d": 857.1419999999998,
      "v": 64
    },
    {
      "midi": 82,
      "hit": false,
      "t": 11999.988,
      "d": 857.1419999999998,
      "v": 64
    },
    {
      "midi": 70,
      "hit": false,
      "t": 13714.271999999999,
      "d": 857.1419999999998,
      "v": 64
    },
    {
      "midi": 53,
      "hit": false,
      "t": 13714.271999999999,
      "d": 1714.2839999999997,
      "v": 64
    },
    {
      "midi": 58,
      "hit": false,
      "t": 13714.271999999999,
      "d": 1714.2839999999997,
      "v": 64
    },
    {
      "midi": 62,
      "hit": false,
      "t": 13714.271999999999,
      "d": 1714.2839999999997,
      "v": 64
    },
    {
      "midi": 77,
      "hit": false,
      "t": 14571.413999999999,
      "d": 857.1419999999998,
      "v": 64
    },
    {
      "midi": 69,
      "hit": false,
      "t": 15428.555999999999,
      "d": 428.5709999999999,
      "v": 64
    },
    {
      "midi": 53,
      "hit": false,
      "t": 15428.555999999999,
      "d": 1714.2840000000015,
      "v": 64
    },
    {
      "midi": 57,
      "hit": false,
      "t": 15428.555999999999,
      "d": 1714.2840000000015,
      "v": 64
    },
    {
      "midi": 63,
      "hit": false,
      "t": 15428.555999999999,
      "d": 1714.2840000000015,
      "v": 64
    },
    {
      "midi": 77,
      "hit": false,
      "t": 15857.126999999999,
      "d": 428.5709999999999,
      "v": 64
    },
    {
      "midi": 75,
      "hit": false,
      "t": 16285.697999999999,
      "d": 428.57100000000173,
      "v": 64
    },
    {
      "midi": 72,
      "hit": false,
      "t": 16714.269,
      "d": 428.5709999999999,
      "v": 64
    },
    {
      "midi": 70,
      "hit": false,
      "t": 17142.84,
      "d": 857.1419999999998,
      "v": 64
    },
    {
      "midi": 53,
      "hit": false,
      "t": 17142.84,
      "d": 1714.2839999999997,
      "v": 64
    },
    {
      "midi": 58,
      "hit": false,
      "t": 17142.84,
      "d": 1714.2839999999997,
      "v": 64
    },
    {
      "midi": 62,
      "hit": false,
      "t": 17142.84,
      "d": 1714.2839999999997,
      "v": 64
    },
    {
      "midi": 77,
      "hit": false,
      "t": 17999.982,
      "d": 857.1419999999998,
      "v": 64
    },
    {
      "midi": 69,
      "hit": false,
      "t": 18857.124,
      "d": 428.5709999999999,
      "v": 64
    },
    {
      "midi": 53,
      "hit": false,
      "t": 18857.124,
      "d": 1714.2839999999997,
      "v": 64
    },
    {
      "midi": 57,
      "hit": false,
      "t": 18857.124,
      "d": 1714.2839999999997,
      "v": 64
    },
    {
      "midi": 63,
      "hit": false,
      "t": 18857.124,
      "d": 1714.2839999999997,
      "v": 64
    },
    {
      "midi": 77,
      "hit": false,
      "t": 19285.695,
      "d": 428.5709999999999,
      "v": 64
    },
    {
      "midi": 75,
      "hit": false,
      "t": 19714.266,
      "d": 428.5709999999999,
      "v": 64
    },
    {
      "midi": 72,
      "hit": false,
      "t": 20142.837,
      "d": 428.5709999999999,
      "v": 64
    },
    {
      "midi": 65,
      "hit": false,
      "t": 20571.408,
      "d": 428.5709999999999,
      "v": 64
    },
    {
      "midi": 74,
      "hit": false,
      "t": 20571.408,
      "d": 428.5709999999999,
      "v": 64
    },
    {
      "midi": 46,
      "hit": false,
      "t": 20571.408,
      "d": 857.1419999999998,
      "v": 64
    },
    {
      "midi": 65,
      "hit": false,
      "t": 20999.979,
      "d": 428.5709999999999,
      "v": 64
    },
    {
      "midi": 74,
      "hit": false,
      "t": 20999.979,
      "d": 428.5709999999999,
      "v": 64
    },
    {
      "midi": 53,
      "hit": false,
      "t": 21428.55,
      "d": 857.1419999999998,
      "v": 64
    },
    {
      "midi": 58,
      "hit": false,
      "t": 21428.55,
      "d": 857.1419999999998,
      "v": 64
    },
    {
      "midi": 62,
      "hit": false,
      "t": 21428.55,
      "d": 857.1419999999998,
      "v": 64
    },
    {
      "midi": 65,
      "hit": false,
      "t": 21428.55,
      "d": 857.1419999999998,
      "v": 64
    },
    {
      "midi": 74,
      "hit": false,
      "t": 21428.55,
      "d": 857.1419999999998,
      "v": 64
    },
    {
      "midi": 72,
      "hit": false,
      "t": 22285.692,
      "d": 428.5709999999999,
      "v": 64
    },
    {
      "midi": 39,
      "hit": false,
      "t": 22285.692,
      "d": 857.1419999999998,
      "v": 64
    },
    {
      "midi": 51,
      "hit": false,
      "t": 22285.692,
      "d": 857.1419999999998,
      "v": 64
    },
    {
      "midi": 67,
      "hit": false,
      "t": 22285.692,
      "d": 857.1419999999998,
      "v": 64
    },
    {
      "midi": 70,
      "hit": false,
      "t": 22714.263,
      "d": 428.5709999999999,
      "v": 64
    },
    {
      "midi": 72,
      "hit": false,
      "t": 23142.834,
      "d": 428.5709999999999,
      "v": 64
    },
    {
      "midi": 54,
      "hit": false,
      "t": 23142.834,
      "d": 857.1419999999998,
      "v": 64
    },
    {
      "midi": 58,
      "hit": false,
      "t": 23142.834,
      "d": 857.1419999999998,
      "v": 64
    },
    {
      "midi": 63,
      "hit": false,
      "t": 23142.834,
      "d": 857.1419999999998,
      "v": 64
    },
    {
      "midi": 66,
      "hit": false,
      "t": 23142.834,
      "d": 857.1419999999998,
      "v": 64
    },
    {
      "midi": 70,
      "hit": false,
      "t": 23571.405,
      "d": 428.5709999999999,
      "v": 64
    },
    {
      "midi": 46,
      "hit": false,
      "t": 23999.976,
      "d": 857.1419999999998,
      "v": 64
    },
    {
      "midi": 65,
      "hit": false,
      "t": 23999.976,
      "d": 857.1419999999998,
      "v": 64
    },
    {
      "midi": 74,
      "hit": false,
      "t": 23999.976,
      "d": 857.1419999999998,
      "v": 64
    },
    {
      "midi": 65,
      "hit": false,
      "t": 24857.118,
      "d": 428.5709999999999,
      "v": 64
    },
    {
      "midi": 53,
      "hit": false,
      "t": 24857.118,
      "d": 857.1419999999998,
      "v": 64
    },
    {
      "midi": 58,
      "hit": false,
      "t": 24857.118,
      "d": 857.1419999999998,
      "v": 64
    },
    {
      "midi": 62,
      "hit": false,
      "t": 24857.118,
      "d": 857.1419999999998,
      "v": 64
    },
    {
      "midi": 77,
      "hit": false,
      "t": 25285.689,
      "d": 857.1419999999998,
      "v": 64
    },
    {
      "midi": 43,
      "hit": false,
      "t": 25714.26,
      "d": 857.1419999999998,
      "v": 64
    },
    {
      "midi": 75,
      "hit": false,
      "t": 26142.831,
      "d": 428.5709999999999,
      "v": 64
    },
    {
      "midi": 72,
      "hit": false,
      "t": 26571.402,
      "d": 428.5709999999999,
      "v": 64
    },
    {
      "midi": 53,
      "hit": false,
      "t": 26571.402,
      "d": 857.1419999999998,
      "v": 64
    },
    {
      "midi": 57,
      "hit": false,
      "t": 26571.402,
      "d": 857.1419999999998,
      "v": 64
    },
    {
      "midi": 63,
      "hit": false,
      "t": 26571.402,
      "d": 857.1419999999998,
      "v": 64
    },
    {
      "midi": 73,
      "hit": false,
      "t": 26999.972999999998,
      "d": 428.5709999999999,
      "v": 64
    },
    {
      "midi": 65,
      "hit": false,
      "t": 27428.543999999998,
      "d": 428.5709999999999,
      "v": 64
    },
    {
      "midi": 74,
      "hit": false,
      "t": 27428.543999999998,
      "d": 428.5709999999999,
      "v": 64
    },
    {
      "midi": 46,
      "hit": false,
      "t": 27428.543999999998,
      "d": 857.1419999999998,
      "v": 64
    },
    {
      "midi": 65,
      "hit": false,
      "t": 27857.114999999998,
      "d": 428.5709999999999,
      "v": 64
    },
    {
      "midi": 74,
      "hit": false,
      "t": 27857.114999999998,
      "d": 428.5709999999999,
      "v": 64
    },
    {
      "midi": 65,
      "hit": false,
      "t": 28285.685999999998,
      "d": 428.5709999999999,
      "v": 64
    },
    {
      "midi": 74,
      "hit": false,
      "t": 28285.685999999998,
      "d": 428.5709999999999,
      "v": 64
    },
    {
      "midi": 53,
      "hit": false,
      "t": 28285.685999999998,
      "d": 857.1419999999998,
      "v": 64
    },
    {
      "midi": 58,
      "hit": false,
      "t": 28285.685999999998,
      "d": 857.1419999999998,
      "v": 64
    },
    {
      "midi": 62,
      "hit": false,
      "t": 28285.685999999998,
      "d": 857.1419999999998,
      "v": 64
    },
    {
      "midi": 72,
      "hit": false,
      "t": 29142.827999999998,
      "d": 428.5709999999999,
      "v": 64
    },
    {
      "midi": 39,
      "hit": false,
      "t": 29142.827999999998,
      "d": 857.1419999999998,
      "v": 64
    },
    {
      "midi": 67,
      "hit": false,
      "t": 29142.827999999998,
      "d": 857.1419999999998,
      "v": 64
    },
    {
      "midi": 70,
      "hit": false,
      "t": 29571.398999999998,
      "d": 428.5709999999999,
      "v": 64
    },
    {
      "midi": 72,
      "hit": false,
      "t": 29999.969999999998,
      "d": 428.5709999999999,
      "v": 64
    },
    {
      "midi": 54,
      "hit": false,
      "t": 29999.969999999998,
      "d": 857.1419999999998,
      "v": 64
    },
    {
      "midi": 58,
      "hit": false,
      "t": 29999.969999999998,
      "d": 857.1419999999998,
      "v": 64
    },
    {
      "midi": 63,
      "hit": false,
      "t": 29999.969999999998,
      "d": 857.1419999999998,
      "v": 64
    },
    {
      "midi": 66,
      "hit": false,
      "t": 29999.969999999998,
      "d": 857.1419999999998,
      "v": 64
    },
    {
      "midi": 70,
      "hit": false,
      "t": 30428.540999999997,
      "d": 428.5709999999999,
      "v": 64
    },
    {
      "midi": 65,
      "hit": false,
      "t": 30857.111999999997,
      "d": 428.5709999999999,
      "v": 64
    },
    {
      "midi": 74,
      "hit": false,
      "t": 30857.111999999997,
      "d": 428.5709999999999,
      "v": 64
    },
    {
      "midi": 46,
      "hit": false,
      "t": 30857.111999999997,
      "d": 1714.2839999999997,
      "v": 64
    },
    {
      "midi": 65,
      "hit": false,
      "t": 31285.682999999997,
      "d": 857.1419999999998,
      "v": 64
    },
    {
      "midi": 74,
      "hit": false,
      "t": 31285.682999999997,
      "d": 857.1419999999998,
      "v": 64
    },
    {
      "midi": 53,
      "hit": false,
      "t": 31714.253999999997,
      "d": 857.1419999999998,
      "v": 64
    },
    {
      "midi": 58,
      "hit": false,
      "t": 31714.253999999997,
      "d": 857.1419999999998,
      "v": 64
    },
    {
      "midi": 62,
      "hit": false,
      "t": 31714.253999999997,
      "d": 857.1419999999998,
      "v": 64
    },
    {
      "midi": 65,
      "hit": false,
      "t": 32142.824999999997,
      "d": 428.5709999999999,
      "v": 64
    },
    {
      "midi": 66,
      "hit": false,
      "t": 32571.395999999997,
      "d": 428.5709999999999,
      "v": 64
    },
    {
      "midi": 45,
      "hit": false,
      "t": 32571.395999999997,
      "d": 1714.2840000000033,
      "v": 64
    },
    {
      "midi": 66,
      "hit": false,
      "t": 32999.967,
      "d": 428.57100000000355,
      "v": 64
    },
    {
      "midi": 54,
      "hit": false,
      "t": 33428.538,
      "d": 857.1419999999998,
      "v": 64
    },
    {
      "midi": 57,
      "hit": false,
      "t": 33428.538,
      "d": 857.1419999999998,
      "v": 64
    },
    {
      "midi": 60,
      "hit": false,
      "t": 33428.538,
      "d": 857.1419999999998,
      "v": 64
    },
    {
      "midi": 62,
      "hit": false,
      "t": 33428.538,
      "d": 857.1419999999998,
      "v": 64
    },
    {
      "midi": 69,
      "hit": false,
      "t": 33428.538,
      "d": 857.1419999999998,
      "v": 64
    },
    {
      "midi": 74,
      "hit": false,
      "t": 33428.538,
      "d": 857.1419999999998,
      "v": 64
    },
    {
      "midi": 67,
      "hit": false,
      "t": 34285.68,
      "d": 428.57100000000355,
      "v": 64
    },
    {
      "midi": 70,
      "hit": false,
      "t": 34285.68,
      "d": 428.57100000000355,
      "v": 64
    },
    {
      "midi": 74,
      "hit": false,
      "t": 34285.68,
      "d": 428.57100000000355,
      "v": 64
    },
    {
      "midi": 43,
      "hit": false,
      "t": 34285.68,
      "d": 857.1420000000071,
      "v": 64
    },
    {
      "midi": 55,
      "hit": false,
      "t": 34285.68,
      "d": 857.1420000000071,
      "v": 64
    },
    {
      "midi": 67,
      "hit": false,
      "t": 34714.251000000004,
      "d": 857.1420000000071,
      "v": 64
    },
    {
      "midi": 70,
      "hit": false,
      "t": 34714.251000000004,
      "d": 857.1420000000071,
      "v": 64
    },
    {
      "midi": 74,
      "hit": false,
      "t": 34714.251000000004,
      "d": 857.1420000000071,
      "v": 64
    },
    {
      "midi": 55,
      "hit": false,
      "t": 35142.82200000001,
      "d": 857.1420000000071,
      "v": 64
    },
    {
      "midi": 58,
      "hit": false,
      "t": 35142.82200000001,
      "d": 857.1420000000071,
      "v": 64
    },
    {
      "midi": 62,
      "hit": false,
      "t": 35142.82200000001,
      "d": 857.1420000000071,
      "v": 64
    },
    {
      "midi": 67,
      "hit": false,
      "t": 35571.39300000001,
      "d": 428.57100000000355,
      "v": 64
    },
    {
      "midi": 70,
      "hit": false,
      "t": 35571.39300000001,
      "d": 428.57100000000355,
      "v": 64
    },
    {
      "midi": 74,
      "hit": false,
      "t": 35571.39300000001,
      "d": 428.57100000000355,
      "v": 64
    },
    {
      "midi": 67,
      "hit": false,
      "t": 35999.964000000014,
      "d": 428.57100000000355,
      "v": 64
    },
    {
      "midi": 72,
      "hit": false,
      "t": 35999.964000000014,
      "d": 428.57100000000355,
      "v": 64
    },
    {
      "midi": 39,
      "hit": false,
      "t": 35999.964000000014,
      "d": 857.1420000000071,
      "v": 64
    },
    {
      "midi": 51,
      "hit": false,
      "t": 35999.964000000014,
      "d": 857.1420000000071,
      "v": 64
    },
    {
      "midi": 70,
      "hit": false,
      "t": 36428.53500000002,
      "d": 428.57100000000355,
      "v": 64
    },
    {
      "midi": 54,
      "hit": false,
      "t": 36857.10600000002,
      "d": 857.1419999999998,
      "v": 64
    },
    {
      "midi": 58,
      "hit": false,
      "t": 36857.10600000002,
      "d": 857.1419999999998,
      "v": 64
    },
    {
      "midi": 63,
      "hit": false,
      "t": 36857.10600000002,
      "d": 857.1419999999998,
      "v": 64
    },
    {
      "midi": 66,
      "hit": false,
      "t": 36857.10600000002,
      "d": 857.1419999999998,
      "v": 64
    },
    {
      "midi": 72,
      "hit": false,
      "t": 36857.10600000002,
      "d": 857.1419999999998,
      "v": 64
    },
    {
      "midi": 46,
      "hit": false,
      "t": 37714.24800000002,
      "d": 857.1419999999998,
      "v": 64
    },
    {
      "midi": 65,
      "hit": false,
      "t": 37714.24800000002,
      "d": 857.1419999999998,
      "v": 64
    },
    {
      "midi": 74,
      "hit": false,
      "t": 37714.24800000002,
      "d": 857.1419999999998,
      "v": 64
    },
    {
      "midi": 65,
      "hit": false,
      "t": 38571.39000000002,
      "d": 428.57100000000355,
      "v": 64
    },
    {
      "midi": 53,
      "hit": false,
      "t": 38571.39000000002,
      "d": 857.1420000000071,
      "v": 64
    },
    {
      "midi": 58,
      "hit": false,
      "t": 38571.39000000002,
      "d": 857.1420000000071,
      "v": 64
    },
    {
      "midi": 62,
      "hit": false,
      "t": 38571.39000000002,
      "d": 857.1420000000071,
      "v": 64
    },
    {
      "midi": 74,
      "hit": false,
      "t": 38999.961000000025,
      "d": 857.1420000000071,
      "v": 64
    },
    {
      "midi": 41,
      "hit": false,
      "t": 39428.53200000003,
      "d": 857.1420000000071,
      "v": 64
    },
    {
      "midi": 74,
      "hit": false,
      "t": 39857.10300000003,
      "d": 428.57100000000355,
      "v": 64
    },
    {
      "midi": 53,
      "hit": false,
      "t": 40285.674000000035,
      "d": 857.1419999999998,
      "v": 64
    },
    {
      "midi": 58,
      "hit": false,
      "t": 40285.674000000035,
      "d": 857.1419999999998,
      "v": 64
    },
    {
      "midi": 62,
      "hit": false,
      "t": 40285.674000000035,
      "d": 857.1419999999998,
      "v": 64
    },
    {
      "midi": 65,
      "hit": false,
      "t": 40285.674000000035,
      "d": 857.1419999999998,
      "v": 64
    },
    {
      "midi": 58,
      "hit": false,
      "t": 41142.816000000035,
      "d": 428.57100000000355,
      "v": 64
    },
    {
      "midi": 62,
      "hit": false,
      "t": 41142.816000000035,
      "d": 428.57100000000355,
      "v": 64
    },
    {
      "midi": 70,
      "hit": false,
      "t": 41142.816000000035,
      "d": 428.57100000000355,
      "v": 64
    },
    {
      "midi": 43,
      "hit": false,
      "t": 41142.816000000035,
      "d": 857.1420000000071,
      "v": 64
    },
    {
      "midi": 55,
      "hit": false,
      "t": 41142.816000000035,
      "d": 857.1420000000071,
      "v": 64
    },
    {
      "midi": 70,
      "hit": false,
      "t": 41571.38700000004,
      "d": 428.57100000000355,
      "v": 64
    },
    {
      "midi": 43,
      "hit": false,
      "t": 41999.95800000004,
      "d": 857.1419999999998,
      "v": 64
    },
    {
      "midi": 55,
      "hit": false,
      "t": 41999.95800000004,
      "d": 857.1419999999998,
      "v": 64
    },
    {
      "midi": 58,
      "hit": false,
      "t": 41999.95800000004,
      "d": 857.1419999999998,
      "v": 64
    },
    {
      "midi": 62,
      "hit": false,
      "t": 41999.95800000004,
      "d": 857.1419999999998,
      "v": 64
    },
    {
      "midi": 70,
      "hit": false,
      "t": 41999.95800000004,
      "d": 857.1419999999998,
      "v": 64
    },
    {
      "midi": 72,
      "hit": false,
      "t": 42857.10000000004,
      "d": 428.57100000000355,
      "v": 64
    },
    {
      "midi": 48,
      "hit": false,
      "t": 42857.10000000004,
      "d": 857.1420000000071,
      "v": 64
    },
    {
      "midi": 64,
      "hit": false,
      "t": 42857.10000000004,
      "d": 1714.2840000000142,
      "v": 64
    },
    {
      "midi": 72,
      "hit": false,
      "t": 43285.671000000046,
      "d": 428.57100000000355,
      "v": 64
    },
    {
      "midi": 74,
      "hit": false,
      "t": 43714.24200000005,
      "d": 428.57100000000355,
      "v": 64
    },
    {
      "midi": 52,
      "hit": false,
      "t": 43714.24200000005,
      "d": 857.1420000000071,
      "v": 64
    },
    {
      "midi": 55,
      "hit": false,
      "t": 43714.24200000005,
      "d": 857.1420000000071,
      "v": 64
    },
    {
      "midi": 58,
      "hit": false,
      "t": 43714.24200000005,
      "d": 857.1420000000071,
      "v": 64
    },
    {
      "midi": 60,
      "hit": false,
      "t": 43714.24200000005,
      "d": 857.1420000000071,
      "v": 64
    },
    {
      "midi": 72,
      "hit": false,
      "t": 44142.81300000005,
      "d": 428.57100000000355,
      "v": 64
    },
    {
      "midi": 53,
      "hit": false,
      "t": 44571.38400000006,
      "d": 857.1419999999998,
      "v": 64
    },
    {
      "midi": 63,
      "hit": false,
      "t": 44571.38400000006,
      "d": 857.1419999999998,
      "v": 64
    },
    {
      "midi": 69,
      "hit": false,
      "t": 44571.38400000006,
      "d": 857.1419999999998,
      "v": 64
    },
    {
      "midi": 72,
      "hit": false,
      "t": 44571.38400000006,
      "d": 2571.4259999999995,
      "v": 64
    },
    {
      "midi": 58,
      "hit": false,
      "t": 45428.526000000056,
      "d": 857.1419999999998,
      "v": 64
    },
    {
      "midi": 63,
      "hit": false,
      "t": 45428.526000000056,
      "d": 857.1419999999998,
      "v": 64
    },
    {
      "midi": 67,
      "hit": false,
      "t": 45428.526000000056,
      "d": 857.1419999999998,
      "v": 64
    },
    {
      "midi": 57,
      "hit": false,
      "t": 46285.668000000056,
      "d": 857.1419999999998,
      "v": 64
    },
    {
      "midi": 63,
      "hit": false,
      "t": 46285.668000000056,
      "d": 857.1419999999998,
      "v": 64
    },
    {
      "midi": 65,
      "hit": false,
      "t": 46285.668000000056,
      "d": 857.1419999999998,
      "v": 64
    },
    {
      "midi": 53,
      "hit": false,
      "t": 47142.810000000056,
      "d": 857.1419999999998,
      "v": 64
    },
    {
      "midi": 74,
      "hit": false,
      "t": 47999.952000000056,
      "d": 428.57100000000355,
      "v": 64
    },
    {
      "midi": 46,
      "hit": false,
      "t": 47999.952000000056,
      "d": 857.1420000000071,
      "v": 64
    },
    {
      "midi": 65,
      "hit": false,
      "t": 47999.952000000056,
      "d": 857.1420000000071,
      "v": 64
    },
    {
      "midi": 74,
      "hit": false,
      "t": 48428.52300000006,
      "d": 428.57100000000355,
      "v": 64
    },
    {
      "midi": 74,
      "hit": false,
      "t": 48857.09400000006,
      "d": 428.57100000000355,
      "v": 64
    },
    {
      "midi": 53,
      "hit": false,
      "t": 48857.09400000006,
      "d": 857.1420000000071,
      "v": 64
    },
    {
      "midi": 58,
      "hit": false,
      "t": 48857.09400000006,
      "d": 857.1420000000071,
      "v": 64
    },
    {
      "midi": 62,
      "hit": false,
      "t": 48857.09400000006,
      "d": 857.1420000000071,
      "v": 64
    },
    {
      "midi": 65,
      "hit": false,
      "t": 48857.09400000006,
      "d": 857.1420000000071,
      "v": 64
    },
    {
      "midi": 74,
      "hit": false,
      "t": 49285.665000000066,
      "d": 428.57100000000355,
      "v": 64
    },
    {
      "midi": 72,
      "hit": false,
      "t": 49714.23600000007,
      "d": 428.57100000000355,
      "v": 64
    },
    {
      "midi": 39,
      "hit": false,
      "t": 49714.23600000007,
      "d": 857.1420000000071,
      "v": 64
    },
    {
      "midi": 51,
      "hit": false,
      "t": 49714.23600000007,
      "d": 857.1420000000071,
      "v": 64
    },
    {
      "midi": 67,
      "hit": false,
      "t": 49714.23600000007,
      "d": 857.1420000000071,
      "v": 64
    },
    {
      "midi": 70,
      "hit": false,
      "t": 50142.80700000007,
      "d": 428.57100000000355,
      "v": 64
    },
    {
      "midi": 72,
      "hit": false,
      "t": 50571.37800000008,
      "d": 428.57100000000355,
      "v": 64
    },
    {
      "midi": 54,
      "hit": false,
      "t": 50571.37800000008,
      "d": 857.1420000000071,
      "v": 64
    },
    {
      "midi": 58,
      "hit": false,
      "t": 50571.37800000008,
      "d": 857.1420000000071,
      "v": 64
    },
    {
      "midi": 63,
      "hit": false,
      "t": 50571.37800000008,
      "d": 857.1420000000071,
      "v": 64
    },
    {
      "midi": 66,
      "hit": false,
      "t": 50571.37800000008,
      "d": 857.1420000000071,
      "v": 64
    },
    {
      "midi": 70,
      "hit": false,
      "t": 50999.94900000008,
      "d": 428.57100000000355,
      "v": 64
    },
    {
      "midi": 46,
      "hit": false,
      "t": 51428.520000000084,
      "d": 857.1419999999998,
      "v": 64
    },
    {
      "midi": 65,
      "hit": false,
      "t": 51428.520000000084,
      "d": 857.1419999999998,
      "v": 64
    },
    {
      "midi": 74,
      "hit": false,
      "t": 51428.520000000084,
      "d": 857.1419999999998,
      "v": 64
    },
    {
      "midi": 65,
      "hit": false,
      "t": 52285.662000000084,
      "d": 428.57100000000355,
      "v": 64
    },
    {
      "midi": 53,
      "hit": false,
      "t": 52285.662000000084,
      "d": 857.1420000000071,
      "v": 64
    },
    {
      "midi": 58,
      "hit": false,
      "t": 52285.662000000084,
      "d": 857.1420000000071,
      "v": 64
    },
    {
      "midi": 62,
      "hit": false,
      "t": 52285.662000000084,
      "d": 857.1420000000071,
      "v": 64
    },
    {
      "midi": 77,
      "hit": false,
      "t": 52714.23300000009,
      "d": 857.1420000000071,
      "v": 64
    },
    {
      "midi": 41,
      "hit": false,
      "t": 53142.80400000009,
      "d": 857.1420000000071,
      "v": 64
    },
    {
      "midi": 75,
      "hit": false,
      "t": 53571.375000000095,
      "d": 428.57100000000355,
      "v": 64
    },
    {
      "midi": 72,
      "hit": false,
      "t": 53999.9460000001,
      "d": 428.57100000000355,
      "v": 64
    },
    {
      "midi": 53,
      "hit": false,
      "t": 53999.9460000001,
      "d": 857.1420000000071,
      "v": 64
    },
    {
      "midi": 57,
      "hit": false,
      "t": 53999.9460000001,
      "d": 857.1420000000071,
      "v": 64
    },
    {
      "midi": 63,
      "hit": false,
      "t": 53999.9460000001,
      "d": 857.1420000000071,
      "v": 64
    },
    {
      "midi": 73,
      "hit": false,
      "t": 54428.5170000001,
      "d": 428.57100000000355,
      "v": 64
    },
    {
      "midi": 46,
      "hit": false,
      "t": 54857.088000000105,
      "d": 857.1419999999998,
      "v": 64
    },
    {
      "midi": 65,
      "hit": false,
      "t": 54857.088000000105,
      "d": 857.1419999999998,
      "v": 64
    },
    {
      "midi": 74,
      "hit": false,
      "t": 54857.088000000105,
      "d": 857.1419999999998,
      "v": 64
    },
    {
      "midi": 53,
      "hit": false,
      "t": 55714.230000000105,
      "d": 857.1419999999998,
      "v": 64
    },
    {
      "midi": 58,
      "hit": false,
      "t": 55714.230000000105,
      "d": 857.1419999999998,
      "v": 64
    },
    {
      "midi": 62,
      "hit": false,
      "t": 55714.230000000105,
      "d": 857.1419999999998,
      "v": 64
    },
    {
      "midi": 65,
      "hit": false,
      "t": 55714.230000000105,
      "d": 857.1419999999998,
      "v": 64
    },
    {
      "midi": 74,
      "hit": false,
      "t": 55714.230000000105,
      "d": 857.1419999999998,
      "v": 64
    },
    {
      "midi": 67,
      "hit": false,
      "t": 56571.372000000105,
      "d": 428.57100000000355,
      "v": 64
    },
    {
      "midi": 72,
      "hit": false,
      "t": 56571.372000000105,
      "d": 428.57100000000355,
      "v": 64
    },
    {
      "midi": 39,
      "hit": false,
      "t": 56571.372000000105,
      "d": 857.1420000000071,
      "v": 64
    },
    {
      "midi": 70,
      "hit": false,
      "t": 56999.94300000011,
      "d": 428.57100000000355,
      "v": 64
    },
    {
      "midi": 66,
      "hit": false,
      "t": 57428.51400000011,
      "d": 428.57100000000355,
      "v": 64
    },
    {
      "midi": 72,
      "hit": false,
      "t": 57428.51400000011,
      "d": 428.57100000000355,
      "v": 64
    },
    {
      "midi": 54,
      "hit": false,
      "t": 57428.51400000011,
      "d": 857.1420000000071,
      "v": 64
    },
    {
      "midi": 58,
      "hit": false,
      "t": 57428.51400000011,
      "d": 857.1420000000071,
      "v": 64
    },
    {
      "midi": 63,
      "hit": false,
      "t": 57428.51400000011,
      "d": 857.1420000000071,
      "v": 64
    },
    {
      "midi": 70,
      "hit": false,
      "t": 57857.085000000116,
      "d": 428.57100000000355,
      "v": 64
    },
    {
      "midi": 46,
      "hit": false,
      "t": 58285.65600000012,
      "d": 857.1419999999998,
      "v": 64
    },
    {
      "midi": 65,
      "hit": false,
      "t": 58285.65600000012,
      "d": 857.1419999999998,
      "v": 64
    },
    {
      "midi": 74,
      "hit": false,
      "t": 58285.65600000012,
      "d": 857.1419999999998,
      "v": 64
    },
    {
      "midi": 65,
      "hit": false,
      "t": 59142.79800000012,
      "d": 428.57100000000355,
      "v": 64
    },
    {
      "midi": 53,
      "hit": false,
      "t": 59142.79800000012,
      "d": 857.1420000000071,
      "v": 64
    },
    {
      "midi": 58,
      "hit": false,
      "t": 59142.79800000012,
      "d": 857.1420000000071,
      "v": 64
    },
    {
      "midi": 62,
      "hit": false,
      "t": 59142.79800000012,
      "d": 857.1420000000071,
      "v": 64
    },
    {
      "midi": 74,
      "hit": false,
      "t": 59571.36900000012,
      "d": 857.1420000000071,
      "v": 64
    },
    {
      "midi": 53,
      "hit": false,
      "t": 59999.940000000126,
      "d": 857.1420000000071,
      "v": 64
    },
    {
      "midi": 58,
      "hit": false,
      "t": 59999.940000000126,
      "d": 857.1420000000071,
      "v": 64
    },
    {
      "midi": 62,
      "hit": false,
      "t": 59999.940000000126,
      "d": 857.1420000000071,
      "v": 64
    },
    {
      "midi": 70,
      "hit": false,
      "t": 60428.51100000013,
      "d": 428.57100000000355,
      "v": 64
    },
    {
      "midi": 69,
      "hit": false,
      "t": 60857.08200000013,
      "d": 428.57100000000355,
      "v": 64
    },
    {
      "midi": 68,
      "hit": false,
      "t": 61285.65300000014,
      "d": 428.57100000000355,
      "v": 64
    },
    {
      "midi": 51,
      "hit": false,
      "t": 61714.22400000014,
      "d": 857.1419999999998,
      "v": 64
    },
    {
      "midi": 67,
      "hit": false,
      "t": 61714.22400000014,
      "d": 857.1419999999998,
      "v": 64
    },
    {
      "midi": 67,
      "hit": false,
      "t": 62571.36600000014,
      "d": 428.57100000000355,
      "v": 64
    },
    {
      "midi": 55,
      "hit": false,
      "t": 62571.36600000014,
      "d": 857.1420000000071,
      "v": 64
    },
    {
      "midi": 58,
      "hit": false,
      "t": 62571.36600000014,
      "d": 857.1420000000071,
      "v": 64
    },
    {
      "midi": 63,
      "hit": false,
      "t": 62571.36600000014,
      "d": 857.1420000000071,
      "v": 64
    },
    {
      "midi": 67,
      "hit": false,
      "t": 62999.93700000014,
      "d": 428.57100000000355,
      "v": 64
    },
    {
      "midi": 67,
      "hit": false,
      "t": 63428.50800000015,
      "d": 428.57100000000355,
      "v": 64
    },
    {
      "midi": 70,
      "hit": false,
      "t": 63428.50800000015,
      "d": 428.57100000000355,
      "v": 64
    },
    {
      "midi": 51,
      "hit": false,
      "t": 63428.50800000015,
      "d": 857.1420000000071,
      "v": 64
    },
    {
      "midi": 58,
      "hit": false,
      "t": 63428.50800000015,
      "d": 857.1420000000071,
      "v": 64
    },
    {
      "midi": 67,
      "hit": false,
      "t": 63857.07900000015,
      "d": 428.57100000000355,
      "v": 64
    },
    {
      "midi": 70,
      "hit": false,
      "t": 63857.07900000015,
      "d": 428.57100000000355,
      "v": 64
    },
    {
      "midi": 63,
      "hit": false,
      "t": 64285.650000000154,
      "d": 428.57100000000355,
      "v": 64
    },
    {
      "midi": 72,
      "hit": false,
      "t": 64285.650000000154,
      "d": 428.57100000000355,
      "v": 64
    },
    {
      "midi": 55,
      "hit": false,
      "t": 64285.650000000154,
      "d": 857.1420000000071,
      "v": 64
    },
    {
      "midi": 58,
      "hit": false,
      "t": 64285.650000000154,
      "d": 857.1420000000071,
      "v": 64
    },
    {
      "midi": 63,
      "hit": false,
      "t": 64714.22100000016,
      "d": 428.57100000000355,
      "v": 64
    },
    {
      "midi": 70,
      "hit": false,
      "t": 64714.22100000016,
      "d": 428.57100000000355,
      "v": 64
    },
    {
      "midi": 41,
      "hit": false,
      "t": 65142.79200000016,
      "d": 857.1420000000071,
      "v": 64
    },
    {
      "midi": 65,
      "hit": false,
      "t": 65142.79200000016,
      "d": 857.1420000000071,
      "v": 64
    },
    {
      "midi": 53,
      "hit": false,
      "t": 65999.93400000017,
      "d": 857.1420000000071,
      "v": 64
    },
    {
      "midi": 58,
      "hit": false,
      "t": 65999.93400000017,
      "d": 857.1420000000071,
      "v": 64
    },
    {
      "midi": 62,
      "hit": false,
      "t": 65999.93400000017,
      "d": 857.1420000000071,
      "v": 64
    },
    {
      "midi": 65,
      "hit": false,
      "t": 65999.93400000017,
      "d": 1714.2840000000142,
      "v": 64
    },
    {
      "midi": 74,
      "hit": false,
      "t": 65999.93400000017,
      "d": 1714.2840000000142,
      "v": 64
    },
    {
      "midi": 53,
      "hit": false,
      "t": 66857.07600000018,
      "d": 857.1420000000071,
      "v": 64
    },
    {
      "midi": 58,
      "hit": false,
      "t": 66857.07600000018,
      "d": 857.1420000000071,
      "v": 64
    },
    {
      "midi": 62,
      "hit": false,
      "t": 66857.07600000018,
      "d": 857.1420000000071,
      "v": 64
    },
    {
      "midi": 47,
      "hit": false,
      "t": 67714.21800000018,
      "d": 857.1420000000071,
      "v": 64
    },
    {
      "midi": 59,
      "hit": false,
      "t": 67714.21800000018,
      "d": 857.1420000000071,
      "v": 64
    },
    {
      "midi": 65,
      "hit": false,
      "t": 67714.21800000018,
      "d": 857.1420000000071,
      "v": 64
    },
    {
      "midi": 68,
      "hit": false,
      "t": 67714.21800000018,
      "d": 857.1420000000071,
      "v": 64
    },
    {
      "midi": 74,
      "hit": false,
      "t": 67714.21800000018,
      "d": 857.1420000000071,
      "v": 64
    },
    {
      "midi": 74,
      "hit": false,
      "t": 68571.36000000019,
      "d": 857.1420000000071,
      "v": 64
    },
    {
      "midi": 48,
      "hit": false,
      "t": 68571.36000000019,
      "d": 1714.2840000000142,
      "v": 64
    },
    {
      "midi": 60,
      "hit": false,
      "t": 68571.36000000019,
      "d": 1714.2840000000142,
      "v": 64
    },
    {
      "midi": 65,
      "hit": false,
      "t": 68571.36000000019,
      "d": 1714.2840000000142,
      "v": 64
    },
    {
      "midi": 69,
      "hit": false,
      "t": 68571.36000000019,
      "d": 1714.2840000000142,
      "v": 64
    },
    {
      "midi": 72,
      "hit": false,
      "t": 69428.5020000002,
      "d": 857.1420000000071,
      "v": 64
    },
    {
      "midi": 70,
      "hit": false,
      "t": 70285.6440000002,
      "d": 428.5709999999963,
      "v": 64
    },
    {
      "midi": 48,
      "hit": false,
      "t": 70285.6440000002,
      "d": 857.1419999999925,
      "v": 64
    },
    {
      "midi": 60,
      "hit": false,
      "t": 70285.6440000002,
      "d": 1714.283999999985,
      "v": 64
    },
    {
      "midi": 64,
      "hit": false,
      "t": 70285.6440000002,
      "d": 1714.283999999985,
      "v": 64
    },
    {
      "midi": 70,
      "hit": false,
      "t": 70714.2150000002,
      "d": 428.5709999999963,
      "v": 64
    },
    {
      "midi": 69,
      "hit": false,
      "t": 71142.7860000002,
      "d": 428.5709999999963,
      "v": 64
    },
    {
      "midi": 36,
      "hit": false,
      "t": 71142.7860000002,
      "d": 857.1419999999925,
      "v": 64
    },
    {
      "midi": 48,
      "hit": false,
      "t": 71142.7860000002,
      "d": 857.1419999999925,
      "v": 64
    },
    {
      "midi": 67,
      "hit": false,
      "t": 71571.3570000002,
      "d": 428.5709999999963,
      "v": 64
    },
    {
      "midi": 41,
      "hit": false,
      "t": 71999.92800000019,
      "d": 857.1420000000071,
      "v": 64
    },
    {
      "midi": 53,
      "hit": false,
      "t": 71999.92800000019,
      "d": 857.1420000000071,
      "v": 64
    },
    {
      "midi": 63,
      "hit": false,
      "t": 71999.92800000019,
      "d": 857.1420000000071,
      "v": 64
    },
    {
      "midi": 69,
      "hit": false,
      "t": 71999.92800000019,
      "d": 857.1420000000071,
      "v": 64
    },
    {
      "midi": 72,
      "hit": false,
      "t": 71999.92800000019,
      "d": 2571.4260000000213,
      "v": 64
    },
    {
      "midi": 55,
      "hit": false,
      "t": 72857.0700000002,
      "d": 857.1420000000071,
      "v": 64
    },
    {
      "midi": 63,
      "hit": false,
      "t": 72857.0700000002,
      "d": 857.1420000000071,
      "v": 64
    },
    {
      "midi": 67,
      "hit": false,
      "t": 72857.0700000002,
      "d": 857.1420000000071,
      "v": 64
    },
    {
      "midi": 57,
      "hit": false,
      "t": 73714.2120000002,
      "d": 857.1420000000071,
      "v": 64
    },
    {
      "midi": 63,
      "hit": false,
      "t": 73714.2120000002,
      "d": 857.1420000000071,
      "v": 64
    },
    {
      "midi": 65,
      "hit": false,
      "t": 73714.2120000002,
      "d": 857.1420000000071,
      "v": 64
    },
    {
      "midi": 41,
      "hit": false,
      "t": 74571.35400000021,
      "d": 857.1420000000071,
      "v": 64
    },
    {
      "midi": 53,
      "hit": false,
      "t": 74571.35400000021,
      "d": 857.1420000000071,
      "v": 64
    },
    {
      "midi": 65,
      "hit": false,
      "t": 74571.35400000021,
      "d": 857.1420000000071,
      "v": 64
    },
    {
      "midi": 69,
      "hit": false,
      "t": 74571.35400000021,
      "d": 857.1420000000071,
      "v": 64
    },
    {
      "midi": 72,
      "hit": false,
      "t": 74571.35400000021,
      "d": 857.1420000000071,
      "v": 64
    },
    {
      "midi": 77,
      "hit": false,
      "t": 74571.35400000021,
      "d": 857.1420000000071,
      "v": 64
    },
    {
      "midi": 46,
      "hit": false,
      "t": 75428.49600000022,
      "d": 428.5709999999963,
      "v": 64
    },
    {
      "midi": 58,
      "hit": false,
      "t": 75428.49600000022,
      "d": 428.5709999999963,
      "v": 64
    },
    {
      "midi": 62,
      "hit": false,
      "t": 75857.06700000021,
      "d": 428.5709999999963,
      "v": 64
    },
    {
      "midi": 65,
      "hit": false,
      "t": 75857.06700000021,
      "d": 428.5709999999963,
      "v": 64
    },
    {
      "midi": 70,
      "hit": false,
      "t": 75857.06700000021,
      "d": 428.5709999999963,
      "v": 64
    },
    {
      "midi": 41,
      "hit": false,
      "t": 76285.63800000021,
      "d": 428.5709999999963,
      "v": 64
    },
    {
      "midi": 53,
      "hit": false,
      "t": 76285.63800000021,
      "d": 428.5709999999963,
      "v": 64
    },
    {
      "midi": 62,
      "hit": false,
      "t": 76714.2090000002,
      "d": 428.5709999999963,
      "v": 64
    },
    {
      "midi": 65,
      "hit": false,
      "t": 76714.2090000002,
      "d": 428.5709999999963,
      "v": 64
    },
    {
      "midi": 70,
      "hit": false,
      "t": 76714.2090000002,
      "d": 428.5709999999963,
      "v": 64
    },
    {
      "midi": 46,
      "hit": false,
      "t": 77142.7800000002,
      "d": 428.5709999999963,
      "v": 64
    },
    {
      "midi": 58,
      "hit": false,
      "t": 77142.7800000002,
      "d": 428.5709999999963,
      "v": 64
    },
    {
      "midi": 62,
      "hit": false,
      "t": 77571.3510000002,
      "d": 428.5709999999963,
      "v": 64
    },
    {
      "midi": 65,
      "hit": false,
      "t": 77571.3510000002,
      "d": 428.5709999999963,
      "v": 64
    },
    {
      "midi": 70,
      "hit": false,
      "t": 77571.3510000002,
      "d": 428.5709999999963,
      "v": 64
    },
    {
      "midi": 41,
      "hit": false,
      "t": 77999.9220000002,
      "d": 428.5709999999963,
      "v": 64
    },
    {
      "midi": 53,
      "hit": false,
      "t": 77999.9220000002,
      "d": 428.5709999999963,
      "v": 64
    },
    {
      "midi": 62,
      "hit": false,
      "t": 78428.49300000019,
      "d": 428.5709999999963,
      "v": 64
    },
    {
      "midi": 65,
      "hit": false,
      "t": 78428.49300000019,
      "d": 428.5709999999963,
      "v": 64
    },
    {
      "midi": 70,
      "hit": false,
      "t": 78428.49300000019,
      "d": 428.5709999999963,
      "v": 64
    },
    {
      "midi": 62,
      "hit": false,
      "t": 78857.06400000019,
      "d": 214.28549999999814,
      "v": 64
    },
    {
      "midi": 65,
      "hit": false,
      "t": 78857.06400000019,
      "d": 214.28549999999814,
      "v": 64
    },
    {
      "midi": 46,
      "hit": false,
      "t": 78857.06400000019,
      "d": 428.5709999999963,
      "v": 64
    },
    {
      "midi": 65,
      "hit": false,
      "t": 79071.34950000019,
      "d": 214.28549999999814,
      "v": 64
    },
    {
      "midi": 50,
      "hit": false,
      "t": 79285.63500000018,
      "d": 428.5709999999963,
      "v": 64
    },
    {
      "midi": 53,
      "hit": false,
      "t": 79285.63500000018,
      "d": 428.5709999999963,
      "v": 64
    },
    {
      "midi": 58,
      "hit": false,
      "t": 79285.63500000018,
      "d": 428.5709999999963,
      "v": 64
    },
    {
      "midi": 62,
      "hit": false,
      "t": 79285.63500000018,
      "d": 428.5709999999963,
      "v": 64
    },
    {
      "midi": 65,
      "hit": false,
      "t": 79285.63500000018,
      "d": 428.5709999999963,
      "v": 64
    },
    {
      "midi": 62,
      "hit": false,
      "t": 79714.20600000018,
      "d": 214.28549999999814,
      "v": 64
    },
    {
      "midi": 65,
      "hit": false,
      "t": 79714.20600000018,
      "d": 214.28549999999814,
      "v": 64
    },
    {
      "midi": 41,
      "hit": false,
      "t": 79714.20600000018,
      "d": 428.5709999999963,
      "v": 64
    },
    {
      "midi": 65,
      "hit": false,
      "t": 79928.49150000018,
      "d": 214.28549999999814,
      "v": 64
    },
    {
      "midi": 62,
      "hit": false,
      "t": 80142.77700000018,
      "d": 214.28549999999814,
      "v": 64
    },
    {
      "midi": 65,
      "hit": false,
      "t": 80142.77700000018,
      "d": 214.28549999999814,
      "v": 64
    },
    {
      "midi": 50,
      "hit": false,
      "t": 80142.77700000018,
      "d": 428.5709999999963,
      "v": 64
    },
    {
      "midi": 53,
      "hit": false,
      "t": 80142.77700000018,
      "d": 428.5709999999963,
      "v": 64
    },
    {
      "midi": 58,
      "hit": false,
      "t": 80142.77700000018,
      "d": 428.5709999999963,
      "v": 64
    },
    {
      "midi": 65,
      "hit": false,
      "t": 80357.06250000017,
      "d": 214.28549999999814,
      "v": 64
    },
    {
      "midi": 46,
      "hit": false,
      "t": 80571.34800000017,
      "d": 428.5709999999963,
      "v": 64
    },
    {
      "midi": 62,
      "hit": false,
      "t": 80571.34800000017,
      "d": 428.5709999999963,
      "v": 64
    },
    {
      "midi": 65,
      "hit": false,
      "t": 80571.34800000017,
      "d": 428.5709999999963,
      "v": 64
    },
    {
      "midi": 50,
      "hit": false,
      "t": 80999.91900000017,
      "d": 428.5709999999963,
      "v": 64
    },
    {
      "midi": 53,
      "hit": false,
      "t": 80999.91900000017,
      "d": 428.5709999999963,
      "v": 64
    },
    {
      "midi": 58,
      "hit": false,
      "t": 80999.91900000017,
      "d": 428.5709999999963,
      "v": 64
    },
    {
      "midi": 62,
      "hit": false,
      "t": 80999.91900000017,
      "d": 642.8564999999944,
      "v": 64
    },
    {
      "midi": 65,
      "hit": false,
      "t": 80999.91900000017,
      "d": 642.8564999999944,
      "v": 64
    },
    {
      "midi": 46,
      "hit": false,
      "t": 81428.49000000017,
      "d": 428.5709999999963,
      "v": 64
    },
    {
      "midi": 74,
      "hit": false,
      "t": 81642.77550000016,
      "d": 214.28549999999814,
      "v": 64
    },
    {
      "midi": 70,
      "hit": false,
      "t": 81857.06100000016,
      "d": 214.28549999999814,
      "v": 64
    },
    {
      "midi": 56,
      "hit": false,
      "t": 81857.06100000016,
      "d": 428.5709999999963,
      "v": 64
    },
    {
      "midi": 58,
      "hit": false,
      "t": 81857.06100000016,
      "d": 428.5709999999963,
      "v": 64
    },
    {
      "midi": 62,
      "hit": false,
      "t": 81857.06100000016,
      "d": 428.5709999999963,
      "v": 64
    },
    {
      "midi": 65,
      "hit": false,
      "t": 82071.34650000016,
      "d": 214.28549999999814,
      "v": 64
    },
    {
      "midi": 67,
      "hit": false,
      "t": 82285.63200000016,
      "d": 214.28549999999814,
      "v": 64
    },
    {
      "midi": 51,
      "hit": false,
      "t": 82285.63200000016,
      "d": 428.5709999999963,
      "v": 64
    },
    {
      "midi": 66,
      "hit": false,
      "t": 82499.91750000016,
      "d": 214.28549999999814,
      "v": 64
    },
    {
      "midi": 55,
      "hit": false,
      "t": 82714.20300000015,
      "d": 428.5709999999963,
      "v": 64
    },
    {
      "midi": 58,
      "hit": false,
      "t": 82714.20300000015,
      "d": 428.5709999999963,
      "v": 64
    },
    {
      "midi": 63,
      "hit": false,
      "t": 82714.20300000015,
      "d": 428.5709999999963,
      "v": 64
    },
    {
      "midi": 67,
      "hit": false,
      "t": 82714.20300000015,
      "d": 428.5709999999963,
      "v": 64
    },
    {
      "midi": 70,
      "hit": false,
      "t": 83142.77400000015,
      "d": 214.28549999999814,
      "v": 64
    },
    {
      "midi": 51,
      "hit": false,
      "t": 83142.77400000015,
      "d": 428.5709999999963,
      "v": 64
    },
    {
      "midi": 67,
      "hit": false,
      "t": 83142.77400000015,
      "d": 857.1419999999925,
      "v": 64
    },
    {
      "midi": 70,
      "hit": false,
      "t": 83357.05950000015,
      "d": 214.28549999999814,
      "v": 64
    },
    {
      "midi": 72,
      "hit": false,
      "t": 83571.34500000015,
      "d": 214.28549999999814,
      "v": 64
    },
    {
      "midi": 55,
      "hit": false,
      "t": 83571.34500000015,
      "d": 428.5709999999963,
      "v": 64
    },
    {
      "midi": 58,
      "hit": false,
      "t": 83571.34500000015,
      "d": 428.5709999999963,
      "v": 64
    },
    {
      "midi": 63,
      "hit": false,
      "t": 83571.34500000015,
      "d": 428.5709999999963,
      "v": 64
    },
    {
      "midi": 70,
      "hit": false,
      "t": 83785.63050000014,
      "d": 214.28549999999814,
      "v": 64
    },
    {
      "midi": 62,
      "hit": false,
      "t": 83999.91600000014,
      "d": 214.28549999999814,
      "v": 64
    },
    {
      "midi": 65,
      "hit": false,
      "t": 83999.91600000014,
      "d": 214.28549999999814,
      "v": 64
    },
    {
      "midi": 46,
      "hit": false,
      "t": 83999.91600000014,
      "d": 428.5709999999963,
      "v": 64
    },
    {
      "midi": 70,
      "hit": false,
      "t": 84214.20150000014,
      "d": 214.28549999999814,
      "v": 64
    },
    {
      "midi": 74,
      "hit": false,
      "t": 84428.48700000014,
      "d": 214.28549999999814,
      "v": 64
    },
    {
      "midi": 53,
      "hit": false,
      "t": 84428.48700000014,
      "d": 428.5709999999963,
      "v": 64
    },
    {
      "midi": 58,
      "hit": false,
      "t": 84428.48700000014,
      "d": 428.5709999999963,
      "v": 64
    },
    {
      "midi": 62,
      "hit": false,
      "t": 84428.48700000014,
      "d": 428.5709999999963,
      "v": 64
    },
    {
      "midi": 77,
      "hit": false,
      "t": 84642.77250000014,
      "d": 214.28549999999814,
      "v": 64
    },
    {
      "midi": 79,
      "hit": false,
      "t": 84857.05800000014,
      "d": 214.28549999999814,
      "v": 64
    },
    {
      "midi": 41,
      "hit": false,
      "t": 84857.05800000014,
      "d": 428.5709999999963,
      "v": 64
    },
    {
      "midi": 77,
      "hit": false,
      "t": 85071.34350000013,
      "d": 428.5709999999963,
      "v": 64
    },
    {
      "midi": 53,
      "hit": false,
      "t": 85285.62900000013,
      "d": 428.5709999999963,
      "v": 64
    },
    {
      "midi": 58,
      "hit": false,
      "t": 85285.62900000013,
      "d": 428.5709999999963,
      "v": 64
    },
    {
      "midi": 62,
      "hit": false,
      "t": 85285.62900000013,
      "d": 428.5709999999963,
      "v": 64
    },
    {
      "midi": 74,
      "hit": false,
      "t": 85499.91450000013,
      "d": 214.28549999999814,
      "v": 64
    },
    {
      "midi": 46,
      "hit": false,
      "t": 85714.20000000013,
      "d": 428.5709999999963,
      "v": 64
    },
    {
      "midi": 62,
      "hit": false,
      "t": 85714.20000000013,
      "d": 428.5709999999963,
      "v": 64
    },
    {
      "midi": 65,
      "hit": false,
      "t": 85714.20000000013,
      "d": 428.5709999999963,
      "v": 64
    },
    {
      "midi": 62,
      "hit": false,
      "t": 86142.77100000012,
      "d": 214.28549999999814,
      "v": 64
    },
    {
      "midi": 65,
      "hit": false,
      "t": 86142.77100000012,
      "d": 214.28549999999814,
      "v": 64
    },
    {
      "midi": 50,
      "hit": false,
      "t": 86142.77100000012,
      "d": 428.5709999999963,
      "v": 64
    },
    {
      "midi": 53,
      "hit": false,
      "t": 86142.77100000012,
      "d": 428.5709999999963,
      "v": 64
    },
    {
      "midi": 58,
      "hit": false,
      "t": 86142.77100000012,
      "d": 428.5709999999963,
      "v": 64
    },
    {
      "midi": 65,
      "hit": false,
      "t": 86357.05650000012,
      "d": 214.28549999999814,
      "v": 64
    },
    {
      "midi": 62,
      "hit": false,
      "t": 86571.34200000012,
      "d": 214.28549999999814,
      "v": 64
    },
    {
      "midi": 65,
      "hit": false,
      "t": 86571.34200000012,
      "d": 214.28549999999814,
      "v": 64
    },
    {
      "midi": 41,
      "hit": false,
      "t": 86571.34200000012,
      "d": 428.5709999999963,
      "v": 64
    },
    {
      "midi": 65,
      "hit": false,
      "t": 86785.62750000012,
      "d": 214.28549999999814,
      "v": 64
    },
    {
      "midi": 50,
      "hit": false,
      "t": 86999.91300000012,
      "d": 428.5709999999963,
      "v": 64
    },
    {
      "midi": 53,
      "hit": false,
      "t": 86999.91300000012,
      "d": 428.5709999999963,
      "v": 64
    },
    {
      "midi": 58,
      "hit": false,
      "t": 86999.91300000012,
      "d": 428.5709999999963,
      "v": 64
    },
    {
      "midi": 62,
      "hit": false,
      "t": 86999.91300000012,
      "d": 428.5709999999963,
      "v": 64
    },
    {
      "midi": 65,
      "hit": false,
      "t": 86999.91300000012,
      "d": 428.5709999999963,
      "v": 64
    },
    {
      "midi": 46,
      "hit": false,
      "t": 87428.48400000011,
      "d": 428.5709999999963,
      "v": 64
    },
    {
      "midi": 62,
      "hit": false,
      "t": 87428.48400000011,
      "d": 428.5709999999963,
      "v": 64
    },
    {
      "midi": 65,
      "hit": false,
      "t": 87428.48400000011,
      "d": 428.5709999999963,
      "v": 64
    },
    {
      "midi": 50,
      "hit": false,
      "t": 87857.05500000011,
      "d": 428.5709999999963,
      "v": 64
    },
    {
      "midi": 53,
      "hit": false,
      "t": 87857.05500000011,
      "d": 428.5709999999963,
      "v": 64
    },
    {
      "midi": 58,
      "hit": false,
      "t": 87857.05500000011,
      "d": 428.5709999999963,
      "v": 64
    },
    {
      "midi": 62,
      "hit": false,
      "t": 87857.05500000011,
      "d": 857.1419999999925,
      "v": 64
    },
    {
      "midi": 65,
      "hit": false,
      "t": 87857.05500000011,
      "d": 857.1419999999925,
      "v": 64
    },
    {
      "midi": 50,
      "hit": false,
      "t": 88285.6260000001,
      "d": 428.5709999999963,
      "v": 64
    },
    {
      "midi": 53,
      "hit": false,
      "t": 88285.6260000001,
      "d": 428.5709999999963,
      "v": 64
    },
    {
      "midi": 58,
      "hit": false,
      "t": 88285.6260000001,
      "d": 428.5709999999963,
      "v": 64
    },
    {
      "midi": 43,
      "hit": false,
      "t": 88714.1970000001,
      "d": 428.5709999999963,
      "v": 64
    },
    {
      "midi": 55,
      "hit": false,
      "t": 88714.1970000001,
      "d": 428.5709999999963,
      "v": 64
    },
    {
      "midi": 58,
      "hit": false,
      "t": 88714.1970000001,
      "d": 428.5709999999963,
      "v": 64
    },
    {
      "midi": 61,
      "hit": false,
      "t": 88714.1970000001,
      "d": 428.5709999999963,
      "v": 64
    },
    {
      "midi": 67,
      "hit": false,
      "t": 88714.1970000001,
      "d": 428.5709999999963,
      "v": 64
    },
    {
      "midi": 69,
      "hit": false,
      "t": 89142.7680000001,
      "d": 214.28549999999814,
      "v": 64
    },
    {
      "midi": 48,
      "hit": false,
      "t": 89142.7680000001,
      "d": 428.5709999999963,
      "v": 64
    },
    {
      "midi": 65,
      "hit": false,
      "t": 89142.7680000001,
      "d": 428.5709999999963,
      "v": 64
    },
    {
      "midi": 69,
      "hit": false,
      "t": 89357.0535000001,
      "d": 214.28549999999814,
      "v": 64
    },
    {
      "midi": 53,
      "hit": false,
      "t": 89571.3390000001,
      "d": 428.5709999999963,
      "v": 64
    },
    {
      "midi": 57,
      "hit": false,
      "t": 89571.3390000001,
      "d": 428.5709999999963,
      "v": 64
    },
    {
      "midi": 60,
      "hit": false,
      "t": 89571.3390000001,
      "d": 428.5709999999963,
      "v": 64
    },
    {
      "midi": 69,
      "hit": false,
      "t": 89571.3390000001,
      "d": 428.5709999999963,
      "v": 64
    },
    {
      "midi": 72,
      "hit": false,
      "t": 89571.3390000001,
      "d": 428.5709999999963,
      "v": 64
    },
    {
      "midi": 67,
      "hit": false,
      "t": 89999.91000000009,
      "d": 214.28549999999814,
      "v": 64
    },
    {
      "midi": 48,
      "hit": false,
      "t": 89999.91000000009,
      "d": 428.5709999999963,
      "v": 64
    },
    {
      "midi": 64,
      "hit": false,
      "t": 89999.91000000009,
      "d": 428.5709999999963,
      "v": 64
    },
    {
      "midi": 67,
      "hit": false,
      "t": 90214.19550000009,
      "d": 214.28549999999814,
      "v": 64
    },
    {
      "midi": 72,
      "hit": false,
      "t": 90428.48100000009,
      "d": 214.28549999999814,
      "v": 64
    },
    {
      "midi": 52,
      "hit": false,
      "t": 90428.48100000009,
      "d": 428.5709999999963,
      "v": 64
    },
    {
      "midi": 55,
      "hit": false,
      "t": 90428.48100000009,
      "d": 428.5709999999963,
      "v": 64
    },
    {
      "midi": 58,
      "hit": false,
      "t": 90428.48100000009,
      "d": 428.5709999999963,
      "v": 64
    },
    {
      "midi": 60,
      "hit": false,
      "t": 90428.48100000009,
      "d": 428.5709999999963,
      "v": 64
    },
    {
      "midi": 64,
      "hit": false,
      "t": 90428.48100000009,
      "d": 428.5709999999963,
      "v": 64
    },
    {
      "midi": 72,
      "hit": false,
      "t": 90642.76650000009,
      "d": 214.28549999999814,
      "v": 64
    },
    {
      "midi": 53,
      "hit": false,
      "t": 90857.05200000008,
      "d": 428.5709999999963,
      "v": 64
    },
    {
      "midi": 57,
      "hit": false,
      "t": 90857.05200000008,
      "d": 428.5709999999963,
      "v": 64
    },
    {
      "midi": 60,
      "hit": false,
      "t": 90857.05200000008,
      "d": 428.5709999999963,
      "v": 64
    },
    {
      "midi": 65,
      "hit": false,
      "t": 90857.05200000008,
      "d": 428.5709999999963,
      "v": 64
    },
    {
      "midi": 72,
      "hit": false,
      "t": 91285.62300000008,
      "d": 142.8570000000036,
      "v": 64
    },
    {
      "midi": 71,
      "hit": false,
      "t": 91428.48000000008,
      "d": 142.8570000000036,
      "v": 64
    },
    {
      "midi": 72,
      "hit": false,
      "t": 91571.33700000009,
      "d": 142.8570000000036,
      "v": 64
    },
    {
      "midi": 41,
      "hit": false,
      "t": 91714.19400000009,
      "d": 214.28549999999814,
      "v": 64
    },
    {
      "midi": 53,
      "hit": false,
      "t": 91714.19400000009,
      "d": 214.28549999999814,
      "v": 64
    },
    {
      "midi": 65,
      "hit": false,
      "t": 91714.19400000009,
      "d": 428.5709999999963,
      "v": 64
    },
    {
      "midi": 69,
      "hit": false,
      "t": 91714.19400000009,
      "d": 428.5709999999963,
      "v": 64
    },
    {
      "midi": 72,
      "hit": false,
      "t": 91714.19400000009,
      "d": 428.5709999999963,
      "v": 64
    },
    {
      "midi": 77,
      "hit": false,
      "t": 91714.19400000009,
      "d": 428.5709999999963,
      "v": 64
    },
    {
      "midi": 57,
      "hit": false,
      "t": 91928.47950000009,
      "d": 214.28549999999814,
      "v": 64
    },
    {
      "midi": 60,
      "hit": false,
      "t": 92142.76500000009,
      "d": 214.28549999999814,
      "v": 64
    },
    {
      "midi": 57,
      "hit": false,
      "t": 92357.05050000008,
      "d": 214.28549999999814,
      "v": 64
    },
    {
      "midi": 69,
      "hit": false,
      "t": 92571.33600000008,
      "d": 214.28549999999814,
      "v": 64
    },
    {
      "midi": 75,
      "hit": false,
      "t": 92571.33600000008,
      "d": 214.28549999999814,
      "v": 64
    },
    {
      "midi": 81,
      "hit": false,
      "t": 92571.33600000008,
      "d": 214.28549999999814,
      "v": 64
    },
    {
      "midi": 48,
      "hit": false,
      "t": 92571.33600000008,
      "d": 428.5709999999963,
      "v": 64
    },
    {
      "midi": 69,
      "hit": false,
      "t": 92785.62150000008,
      "d": 214.28549999999814,
      "v": 64
    },
    {
      "midi": 75,
      "hit": false,
      "t": 92785.62150000008,
      "d": 214.28549999999814,
      "v": 64
    },
    {
      "midi": 81,
      "hit": false,
      "t": 92785.62150000008,
      "d": 214.28549999999814,
      "v": 64
    },
    {
      "midi": 67,
      "hit": false,
      "t": 92999.90700000008,
      "d": 214.28549999999814,
      "v": 64
    },
    {
      "midi": 75,
      "hit": false,
      "t": 92999.90700000008,
      "d": 214.28549999999814,
      "v": 64
    },
    {
      "midi": 79,
      "hit": false,
      "t": 92999.90700000008,
      "d": 214.28549999999814,
      "v": 64
    },
    {
      "midi": 53,
      "hit": false,
      "t": 92999.90700000008,
      "d": 428.5709999999963,
      "v": 64
    },
    {
      "midi": 57,
      "hit": false,
      "t": 92999.90700000008,
      "d": 428.5709999999963,
      "v": 64
    },
    {
      "midi": 63,
      "hit": false,
      "t": 92999.90700000008,
      "d": 428.5709999999963,
      "v": 64
    },
    {
      "midi": 67,
      "hit": false,
      "t": 93214.19250000008,
      "d": 214.28549999999814,
      "v": 64
    },
    {
      "midi": 75,
      "hit": false,
      "t": 93214.19250000008,
      "d": 214.28549999999814,
      "v": 64
    },
    {
      "midi": 79,
      "hit": false,
      "t": 93214.19250000008,
      "d": 214.28549999999814,
      "v": 64
    },
    {
      "midi": 41,
      "hit": false,
      "t": 93428.47800000008,
      "d": 428.5709999999963,
      "v": 64
    },
    {
      "midi": 69,
      "hit": false,
      "t": 93428.47800000008,
      "d": 428.5709999999963,
      "v": 64
    },
    {
      "midi": 75,
      "hit": false,
      "t": 93428.47800000008,
      "d": 428.5709999999963,
      "v": 64
    },
    {
      "midi": 81,
      "hit": false,
      "t": 93428.47800000008,
      "d": 428.5709999999963,
      "v": 64
    },
    {
      "midi": 67,
      "hit": false,
      "t": 93857.04900000007,
      "d": 214.28549999999814,
      "v": 64
    },
    {
      "midi": 75,
      "hit": false,
      "t": 93857.04900000007,
      "d": 214.28549999999814,
      "v": 64
    },
    {
      "midi": 79,
      "hit": false,
      "t": 93857.04900000007,
      "d": 214.28549999999814,
      "v": 64
    },
    {
      "midi": 53,
      "hit": false,
      "t": 93857.04900000007,
      "d": 428.5709999999963,
      "v": 64
    },
    {
      "midi": 57,
      "hit": false,
      "t": 93857.04900000007,
      "d": 428.5709999999963,
      "v": 64
    },
    {
      "midi": 63,
      "hit": false,
      "t": 93857.04900000007,
      "d": 428.5709999999963,
      "v": 64
    },
    {
      "midi": 69,
      "hit": false,
      "t": 94071.33450000007,
      "d": 214.28549999999814,
      "v": 64
    },
    {
      "midi": 75,
      "hit": false,
      "t": 94071.33450000007,
      "d": 214.28549999999814,
      "v": 64
    },
    {
      "midi": 81,
      "hit": false,
      "t": 94071.33450000007,
      "d": 214.28549999999814,
      "v": 64
    },
    {
      "midi": 48,
      "hit": false,
      "t": 94285.62000000007,
      "d": 428.5709999999963,
      "v": 64
    },
    {
      "midi": 67,
      "hit": false,
      "t": 94285.62000000007,
      "d": 428.5709999999963,
      "v": 64
    },
    {
      "midi": 75,
      "hit": false,
      "t": 94285.62000000007,
      "d": 428.5709999999963,
      "v": 64
    },
    {
      "midi": 79,
      "hit": false,
      "t": 94285.62000000007,
      "d": 428.5709999999963,
      "v": 64
    },
    {
      "midi": 53,
      "hit": false,
      "t": 94714.19100000006,
      "d": 428.5709999999963,
      "v": 64
    },
    {
      "midi": 57,
      "hit": false,
      "t": 94714.19100000006,
      "d": 428.5709999999963,
      "v": 64
    },
    {
      "midi": 63,
      "hit": false,
      "t": 94714.19100000006,
      "d": 428.5709999999963,
      "v": 64
    },
    {
      "midi": 67,
      "hit": false,
      "t": 94714.19100000006,
      "d": 857.1419999999925,
      "v": 64
    },
    {
      "midi": 75,
      "hit": false,
      "t": 94714.19100000006,
      "d": 857.1419999999925,
      "v": 64
    },
    {
      "midi": 79,
      "hit": false,
      "t": 94714.19100000006,
      "d": 857.1419999999925,
      "v": 64
    },
    {
      "midi": 41,
      "hit": false,
      "t": 95142.76200000006,
      "d": 428.5709999999963,
      "v": 64
    },
    {
      "midi": 53,
      "hit": false,
      "t": 95571.33300000006,
      "d": 428.5709999999963,
      "v": 64
    },
    {
      "midi": 57,
      "hit": false,
      "t": 95571.33300000006,
      "d": 428.5709999999963,
      "v": 64
    },
    {
      "midi": 63,
      "hit": false,
      "t": 95571.33300000006,
      "d": 428.5709999999963,
      "v": 64
    },
    {
      "midi": 67,
      "hit": false,
      "t": 95999.90400000005,
      "d": 214.28549999999814,
      "v": 64
    },
    {
      "midi": 74,
      "hit": false,
      "t": 95999.90400000005,
      "d": 214.28549999999814,
      "v": 64
    },
    {
      "midi": 79,
      "hit": false,
      "t": 95999.90400000005,
      "d": 214.28549999999814,
      "v": 64
    },
    {
      "midi": 46,
      "hit": false,
      "t": 95999.90400000005,
      "d": 428.5709999999963,
      "v": 64
    },
    {
      "midi": 65,
      "hit": false,
      "t": 96214.18950000005,
      "d": 214.28549999999814,
      "v": 64
    },
    {
      "midi": 74,
      "hit": false,
      "t": 96214.18950000005,
      "d": 214.28549999999814,
      "v": 64
    },
    {
      "midi": 77,
      "hit": false,
      "t": 96214.18950000005,
      "d": 214.28549999999814,
      "v": 64
    },
    {
      "midi": 65,
      "hit": false,
      "t": 96428.47500000005,
      "d": 214.28549999999814,
      "v": 64
    },
    {
      "midi": 74,
      "hit": false,
      "t": 96428.47500000005,
      "d": 214.28549999999814,
      "v": 64
    },
    {
      "midi": 77,
      "hit": false,
      "t": 96428.47500000005,
      "d": 214.28549999999814,
      "v": 64
    },
    {
      "midi": 53,
      "hit": false,
      "t": 96428.47500000005,
      "d": 428.5709999999963,
      "v": 64
    },
    {
      "midi": 58,
      "hit": false,
      "t": 96428.47500000005,
      "d": 428.5709999999963,
      "v": 64
    },
    {
      "midi": 62,
      "hit": false,
      "t": 96428.47500000005,
      "d": 428.5709999999963,
      "v": 64
    },
    {
      "midi": 65,
      "hit": false,
      "t": 96642.76050000005,
      "d": 214.28549999999814,
      "v": 64
    },
    {
      "midi": 74,
      "hit": false,
      "t": 96642.76050000005,
      "d": 214.28549999999814,
      "v": 64
    },
    {
      "midi": 77,
      "hit": false,
      "t": 96642.76050000005,
      "d": 214.28549999999814,
      "v": 64
    },
    {
      "midi": 41,
      "hit": false,
      "t": 96857.04600000005,
      "d": 428.5709999999963,
      "v": 64
    },
    {
      "midi": 67,
      "hit": false,
      "t": 96857.04600000005,
      "d": 428.5709999999963,
      "v": 64
    },
    {
      "midi": 74,
      "hit": false,
      "t": 96857.04600000005,
      "d": 428.5709999999963,
      "v": 64
    },
    {
      "midi": 79,
      "hit": false,
      "t": 96857.04600000005,
      "d": 428.5709999999963,
      "v": 64
    },
    {
      "midi": 65,
      "hit": false,
      "t": 97285.61700000004,
      "d": 214.28549999999814,
      "v": 64
    },
    {
      "midi": 74,
      "hit": false,
      "t": 97285.61700000004,
      "d": 214.28549999999814,
      "v": 64
    },
    {
      "midi": 77,
      "hit": false,
      "t": 97285.61700000004,
      "d": 214.28549999999814,
      "v": 64
    },
    {
      "midi": 53,
      "hit": false,
      "t": 97285.61700000004,
      "d": 428.5709999999963,
      "v": 64
    },
    {
      "midi": 58,
      "hit": false,
      "t": 97285.61700000004,
      "d": 428.5709999999963,
      "v": 64
    },
    {
      "midi": 62,
      "hit": false,
      "t": 97285.61700000004,
      "d": 428.5709999999963,
      "v": 64
    },
    {
      "midi": 67,
      "hit": false,
      "t": 97499.90250000004,
      "d": 214.28549999999814,
      "v": 64
    },
    {
      "midi": 74,
      "hit": false,
      "t": 97499.90250000004,
      "d": 214.28549999999814,
      "v": 64
    },
    {
      "midi": 79,
      "hit": false,
      "t": 97499.90250000004,
      "d": 214.28549999999814,
      "v": 64
    },
    {
      "midi": 46,
      "hit": false,
      "t": 97714.18800000004,
      "d": 428.5709999999963,
      "v": 64
    },
    {
      "midi": 65,
      "hit": false,
      "t": 97714.18800000004,
      "d": 1285.7129999999888,
      "v": 64
    },
    {
      "midi": 74,
      "hit": false,
      "t": 97714.18800000004,
      "d": 1285.7129999999888,
      "v": 64
    },
    {
      "midi": 77,
      "hit": false,
      "t": 97714.18800000004,
      "d": 1285.7129999999888,
      "v": 64
    },
    {
      "midi": 53,
      "hit": false,
      "t": 98142.75900000003,
      "d": 428.5709999999963,
      "v": 64
    },
    {
      "midi": 58,
      "hit": false,
      "t": 98142.75900000003,
      "d": 428.5709999999963,
      "v": 64
    },
    {
      "midi": 62,
      "hit": false,
      "t": 98142.75900000003,
      "d": 428.5709999999963,
      "v": 64
    },
    {
      "midi": 41,
      "hit": false,
      "t": 98571.33000000003,
      "d": 428.5709999999963,
      "v": 64
    },
    {
      "midi": 53,
      "hit": false,
      "t": 98999.90100000003,
      "d": 428.5709999999963,
      "v": 64
    },
    {
      "midi": 58,
      "hit": false,
      "t": 98999.90100000003,
      "d": 428.5709999999963,
      "v": 64
    },
    {
      "midi": 62,
      "hit": false,
      "t": 98999.90100000003,
      "d": 428.5709999999963,
      "v": 64
    },
    {
      "midi": 52,
      "hit": false,
      "t": 99428.47200000002,
      "d": 428.5709999999963,
      "v": 64
    },
    {
      "midi": 70,
      "hit": false,
      "t": 99428.47200000002,
      "d": 428.5709999999963,
      "v": 64
    },
    {
      "midi": 82,
      "hit": false,
      "t": 99428.47200000002,
      "d": 428.5709999999963,
      "v": 64
    },
    {
      "midi": 70,
      "hit": false,
      "t": 99857.04300000002,
      "d": 214.28549999999814,
      "v": 64
    },
    {
      "midi": 82,
      "hit": false,
      "t": 99857.04300000002,
      "d": 214.28549999999814,
      "v": 64
    },
    {
      "midi": 55,
      "hit": false,
      "t": 99857.04300000002,
      "d": 428.5709999999963,
      "v": 64
    },
    {
      "midi": 60,
      "hit": false,
      "t": 99857.04300000002,
      "d": 428.5709999999963,
      "v": 64
    },
    {
      "midi": 67,
      "hit": false,
      "t": 100071.32850000002,
      "d": 214.28549999999814,
      "v": 64
    },
    {
      "midi": 79,
      "hit": false,
      "t": 100071.32850000002,
      "d": 214.28549999999814,
      "v": 64
    },
    {
      "midi": 70,
      "hit": false,
      "t": 100285.61400000002,
      "d": 214.28549999999814,
      "v": 64
    },
    {
      "midi": 82,
      "hit": false,
      "t": 100285.61400000002,
      "d": 214.28549999999814,
      "v": 64
    },
    {
      "midi": 52,
      "hit": false,
      "t": 100285.61400000002,
      "d": 428.5709999999963,
      "v": 64
    },
    {
      "midi": 67,
      "hit": false,
      "t": 100499.89950000001,
      "d": 214.28549999999814,
      "v": 64
    },
    {
      "midi": 79,
      "hit": false,
      "t": 100499.89950000001,
      "d": 214.28549999999814,
      "v": 64
    },
    {
      "midi": 67,
      "hit": false,
      "t": 100714.18500000001,
      "d": 214.28549999999814,
      "v": 64
    },
    {
      "midi": 79,
      "hit": false,
      "t": 100714.18500000001,
      "d": 214.28549999999814,
      "v": 64
    },
    {
      "midi": 55,
      "hit": false,
      "t": 100714.18500000001,
      "d": 428.5709999999963,
      "v": 64
    },
    {
      "midi": 60,
      "hit": false,
      "t": 100714.18500000001,
      "d": 428.5709999999963,
      "v": 64
    },
    {
      "midi": 70,
      "hit": false,
      "t": 100928.47050000001,
      "d": 214.28549999999814,
      "v": 64
    },
    {
      "midi": 82,
      "hit": false,
      "t": 100928.47050000001,
      "d": 214.28549999999814,
      "v": 64
    },
    {
      "midi": 41,
      "hit": false,
      "t": 101142.75600000001,
      "d": 428.5709999999963,
      "v": 64
    },
    {
      "midi": 74,
      "hit": false,
      "t": 101142.75600000001,
      "d": 428.5709999999963,
      "v": 64
    },
    {
      "midi": 77,
      "hit": false,
      "t": 101142.75600000001,
      "d": 428.5709999999963,
      "v": 64
    },
    {
      "midi": 86,
      "hit": false,
      "t": 101142.75600000001,
      "d": 428.5709999999963,
      "v": 64
    },
    {
      "midi": 53,
      "hit": false,
      "t": 101571.327,
      "d": 428.5709999999963,
      "v": 64
    },
    {
      "midi": 58,
      "hit": false,
      "t": 101571.327,
      "d": 428.5709999999963,
      "v": 64
    },
    {
      "midi": 62,
      "hit": false,
      "t": 101571.327,
      "d": 428.5709999999963,
      "v": 64
    },
    {
      "midi": 74,
      "hit": false,
      "t": 101571.327,
      "d": 857.1419999999925,
      "v": 64
    },
    {
      "midi": 77,
      "hit": false,
      "t": 101571.327,
      "d": 857.1419999999925,
      "v": 64
    },
    {
      "midi": 86,
      "hit": false,
      "t": 101571.327,
      "d": 857.1419999999925,
      "v": 64
    },
    {
      "midi": 53,
      "hit": false,
      "t": 101999.898,
      "d": 428.5709999999963,
      "v": 64
    },
    {
      "midi": 58,
      "hit": false,
      "t": 101999.898,
      "d": 428.5709999999963,
      "v": 64
    },
    {
      "midi": 62,
      "hit": false,
      "t": 101999.898,
      "d": 428.5709999999963,
      "v": 64
    },
    {
      "midi": 41,
      "hit": false,
      "t": 102428.469,
      "d": 428.5709999999963,
      "v": 64
    },
    {
      "midi": 53,
      "hit": false,
      "t": 102428.469,
      "d": 428.5709999999963,
      "v": 64
    },
    {
      "midi": 74,
      "hit": false,
      "t": 102857.04,
      "d": 214.28549999999814,
      "v": 64
    },
    {
      "midi": 86,
      "hit": false,
      "t": 102857.04,
      "d": 214.28549999999814,
      "v": 64
    },
    {
      "midi": 48,
      "hit": false,
      "t": 102857.04,
      "d": 428.5709999999963,
      "v": 64
    },
    {
      "midi": 74,
      "hit": false,
      "t": 103071.32549999999,
      "d": 214.28549999999814,
      "v": 64
    },
    {
      "midi": 86,
      "hit": false,
      "t": 103071.32549999999,
      "d": 214.28549999999814,
      "v": 64
    },
    {
      "midi": 72,
      "hit": false,
      "t": 103285.61099999999,
      "d": 214.28549999999814,
      "v": 64
    },
    {
      "midi": 84,
      "hit": false,
      "t": 103285.61099999999,
      "d": 214.28549999999814,
      "v": 64
    },
    {
      "midi": 53,
      "hit": false,
      "t": 103285.61099999999,
      "d": 428.5709999999963,
      "v": 64
    },
    {
      "midi": 57,
      "hit": false,
      "t": 103285.61099999999,
      "d": 428.5709999999963,
      "v": 64
    },
    {
      "midi": 63,
      "hit": false,
      "t": 103285.61099999999,
      "d": 428.5709999999963,
      "v": 64
    },
    {
      "midi": 69,
      "hit": false,
      "t": 103499.89649999999,
      "d": 214.28549999999814,
      "v": 64
    },
    {
      "midi": 81,
      "hit": false,
      "t": 103499.89649999999,
      "d": 214.28549999999814,
      "v": 64
    },
    {
      "midi": 41,
      "hit": false,
      "t": 103714.18199999999,
      "d": 428.5709999999963,
      "v": 64
    },
    {
      "midi": 65,
      "hit": false,
      "t": 103714.18199999999,
      "d": 428.5709999999963,
      "v": 64
    },
    {
      "midi": 77,
      "hit": false,
      "t": 103714.18199999999,
      "d": 428.5709999999963,
      "v": 64
    },
    {
      "midi": 72,
      "hit": false,
      "t": 104142.75299999998,
      "d": 214.28549999999814,
      "v": 64
    },
    {
      "midi": 84,
      "hit": false,
      "t": 104142.75299999998,
      "d": 214.28549999999814,
      "v": 64
    },
    {
      "midi": 53,
      "hit": false,
      "t": 104142.75299999998,
      "d": 428.5709999999963,
      "v": 64
    },
    {
      "midi": 57,
      "hit": false,
      "t": 104142.75299999998,
      "d": 428.5709999999963,
      "v": 64
    },
    {
      "midi": 63,
      "hit": false,
      "t": 104142.75299999998,
      "d": 428.5709999999963,
      "v": 64
    },
    {
      "midi": 74,
      "hit": false,
      "t": 104357.03849999998,
      "d": 214.28549999999814,
      "v": 64
    },
    {
      "midi": 86,
      "hit": false,
      "t": 104357.03849999998,
      "d": 214.28549999999814,
      "v": 64
    },
    {
      "midi": 46,
      "hit": false,
      "t": 104571.32399999998,
      "d": 428.5709999999963,
      "v": 64
    },
    {
      "midi": 58,
      "hit": false,
      "t": 104571.32399999998,
      "d": 428.5709999999963,
      "v": 64
    },
    {
      "midi": 70,
      "hit": false,
      "t": 104571.32399999998,
      "d": 1285.7129999999888,
      "v": 64
    },
    {
      "midi": 74,
      "hit": false,
      "t": 104571.32399999998,
      "d": 1285.7129999999888,
      "v": 64
    },
    {
      "midi": 82,
      "hit": false,
      "t": 104571.32399999998,
      "d": 1285.7129999999888,
      "v": 64
    },
    {
      "midi": 41,
      "hit": false,
      "t": 104999.89499999997,
      "d": 428.5709999999963,
      "v": 64
    },
    {
      "midi": 53,
      "hit": false,
      "t": 104999.89499999997,
      "d": 428.5709999999963,
      "v": 64
    },
    {
      "midi": 34,
      "hit": false,
      "t": 105428.46599999997,
      "d": 428.5709999999963,
      "v": 64
    },
    {
      "midi": 46,
      "hit": false,
      "t": 105428.46599999997,
      "d": 428.5709999999963,
      "v": 64
    },
    {
      "midi": 65,
      "hit": false,
      "t": 106285.60799999996,
      "d": 428.5709999999963,
      "v": 64
    },
    {
      "midi": 74,
      "hit": false,
      "t": 106285.60799999996,
      "d": 428.5709999999963,
      "v": 64
    },
    {
      "midi": 46,
      "hit": false,
      "t": 106285.60799999996,
      "d": 857.1419999999925,
      "v": 64
    },
    {
      "midi": 65,
      "hit": false,
      "t": 106714.17899999996,
      "d": 428.5709999999963,
      "v": 64
    },
    {
      "midi": 74,
      "hit": false,
      "t": 106714.17899999996,
      "d": 428.5709999999963,
      "v": 64
    },
    {
      "midi": 53,
      "hit": false,
      "t": 107142.74999999996,
      "d": 857.1420000000071,
      "v": 64
    },
    {
      "midi": 58,
      "hit": false,
      "t": 107142.74999999996,
      "d": 857.1420000000071,
      "v": 64
    },
    {
      "midi": 62,
      "hit": false,
      "t": 107142.74999999996,
      "d": 857.1420000000071,
      "v": 64
    },
    {
      "midi": 65,
      "hit": false,
      "t": 107142.74999999996,
      "d": 857.1420000000071,
      "v": 64
    },
    {
      "midi": 74,
      "hit": false,
      "t": 107142.74999999996,
      "d": 857.1420000000071,
      "v": 64
    },
    {
      "midi": 72,
      "hit": false,
      "t": 107999.89199999996,
      "d": 428.5709999999963,
      "v": 64
    },
    {
      "midi": 39,
      "hit": false,
      "t": 107999.89199999996,
      "d": 857.1419999999925,
      "v": 64
    },
    {
      "midi": 51,
      "hit": false,
      "t": 107999.89199999996,
      "d": 857.1419999999925,
      "v": 64
    },
    {
      "midi": 67,
      "hit": false,
      "t": 107999.89199999996,
      "d": 857.1419999999925,
      "v": 64
    },
    {
      "midi": 70,
      "hit": false,
      "t": 108428.46299999996,
      "d": 428.5709999999963,
      "v": 64
    },
    {
      "midi": 72,
      "hit": false,
      "t": 108857.03399999996,
      "d": 428.5709999999963,
      "v": 64
    },
    {
      "midi": 54,
      "hit": false,
      "t": 108857.03399999996,
      "d": 857.1419999999925,
      "v": 64
    },
    {
      "midi": 58,
      "hit": false,
      "t": 108857.03399999996,
      "d": 857.1419999999925,
      "v": 64
    },
    {
      "midi": 63,
      "hit": false,
      "t": 108857.03399999996,
      "d": 857.1419999999925,
      "v": 64
    },
    {
      "midi": 66,
      "hit": false,
      "t": 108857.03399999996,
      "d": 857.1419999999925,
      "v": 64
    },
    {
      "midi": 70,
      "hit": false,
      "t": 109285.60499999995,
      "d": 428.5709999999963,
      "v": 64
    },
    {
      "midi": 46,
      "hit": false,
      "t": 109714.17599999995,
      "d": 857.1420000000071,
      "v": 64
    },
    {
      "midi": 65,
      "hit": false,
      "t": 109714.17599999995,
      "d": 857.1420000000071,
      "v": 64
    },
    {
      "midi": 74,
      "hit": false,
      "t": 109714.17599999995,
      "d": 857.1420000000071,
      "v": 64
    },
    {
      "midi": 65,
      "hit": false,
      "t": 110571.31799999996,
      "d": 428.5709999999963,
      "v": 64
    },
    {
      "midi": 53,
      "hit": false,
      "t": 110571.31799999996,
      "d": 857.1419999999925,
      "v": 64
    },
    {
      "midi": 58,
      "hit": false,
      "t": 110571.31799999996,
      "d": 857.1419999999925,
      "v": 64
    },
    {
      "midi": 62,
      "hit": false,
      "t": 110571.31799999996,
      "d": 857.1419999999925,
      "v": 64
    },
    {
      "midi": 77,
      "hit": false,
      "t": 110999.88899999995,
      "d": 857.1419999999925,
      "v": 64
    },
    {
      "midi": 43,
      "hit": false,
      "t": 111428.45999999995,
      "d": 857.1419999999925,
      "v": 64
    },
    {
      "midi": 75,
      "hit": false,
      "t": 111857.03099999994,
      "d": 428.5709999999963,
      "v": 64
    },
    {
      "midi": 72,
      "hit": false,
      "t": 112285.60199999994,
      "d": 428.5709999999963,
      "v": 64
    },
    {
      "midi": 53,
      "hit": false,
      "t": 112285.60199999994,
      "d": 857.1419999999925,
      "v": 64
    },
    {
      "midi": 57,
      "hit": false,
      "t": 112285.60199999994,
      "d": 857.1419999999925,
      "v": 64
    },
    {
      "midi": 63,
      "hit": false,
      "t": 112285.60199999994,
      "d": 857.1419999999925,
      "v": 64
    },
    {
      "midi": 73,
      "hit": false,
      "t": 112714.17299999994,
      "d": 428.5709999999963,
      "v": 64
    },
    {
      "midi": 65,
      "hit": false,
      "t": 113142.74399999993,
      "d": 428.5709999999963,
      "v": 64
    },
    {
      "midi": 74,
      "hit": false,
      "t": 113142.74399999993,
      "d": 428.5709999999963,
      "v": 64
    },
    {
      "midi": 46,
      "hit": false,
      "t": 113142.74399999993,
      "d": 857.1419999999925,
      "v": 64
    },
    {
      "midi": 65,
      "hit": false,
      "t": 113571.31499999993,
      "d": 428.5709999999963,
      "v": 64
    },
    {
      "midi": 74,
      "hit": false,
      "t": 113571.31499999993,
      "d": 428.5709999999963,
      "v": 64
    },
    {
      "midi": 65,
      "hit": false,
      "t": 113999.88599999993,
      "d": 428.5709999999963,
      "v": 64
    },
    {
      "midi": 74,
      "hit": false,
      "t": 113999.88599999993,
      "d": 428.5709999999963,
      "v": 64
    },
    {
      "midi": 53,
      "hit": false,
      "t": 113999.88599999993,
      "d": 857.1419999999925,
      "v": 64
    },
    {
      "midi": 58,
      "hit": false,
      "t": 113999.88599999993,
      "d": 857.1419999999925,
      "v": 64
    },
    {
      "midi": 62,
      "hit": false,
      "t": 113999.88599999993,
      "d": 857.1419999999925,
      "v": 64
    },
    {
      "midi": 72,
      "hit": false,
      "t": 114857.02799999992,
      "d": 428.5709999999963,
      "v": 64
    },
    {
      "midi": 39,
      "hit": false,
      "t": 114857.02799999992,
      "d": 857.1419999999925,
      "v": 64
    },
    {
      "midi": 67,
      "hit": false,
      "t": 114857.02799999992,
      "d": 857.1419999999925,
      "v": 64
    },
    {
      "midi": 70,
      "hit": false,
      "t": 115285.59899999991,
      "d": 428.5709999999963,
      "v": 64
    },
    {
      "midi": 72,
      "hit": false,
      "t": 115714.16999999991,
      "d": 428.5709999999963,
      "v": 64
    },
    {
      "midi": 54,
      "hit": false,
      "t": 115714.16999999991,
      "d": 857.1419999999925,
      "v": 64
    },
    {
      "midi": 58,
      "hit": false,
      "t": 115714.16999999991,
      "d": 857.1419999999925,
      "v": 64
    },
    {
      "midi": 63,
      "hit": false,
      "t": 115714.16999999991,
      "d": 857.1419999999925,
      "v": 64
    },
    {
      "midi": 66,
      "hit": false,
      "t": 115714.16999999991,
      "d": 857.1419999999925,
      "v": 64
    },
    {
      "midi": 70,
      "hit": false,
      "t": 116142.7409999999,
      "d": 428.5709999999963,
      "v": 64
    },
    {
      "midi": 65,
      "hit": false,
      "t": 116571.3119999999,
      "d": 428.5709999999963,
      "v": 64
    },
    {
      "midi": 74,
      "hit": false,
      "t": 116571.3119999999,
      "d": 428.5709999999963,
      "v": 64
    },
    {
      "midi": 46,
      "hit": false,
      "t": 116571.3119999999,
      "d": 1714.283999999985,
      "v": 64
    },
    {
      "midi": 65,
      "hit": false,
      "t": 116999.8829999999,
      "d": 857.1419999999925,
      "v": 64
    },
    {
      "midi": 74,
      "hit": false,
      "t": 116999.8829999999,
      "d": 857.1419999999925,
      "v": 64
    },
    {
      "midi": 53,
      "hit": false,
      "t": 117428.4539999999,
      "d": 857.1419999999925,
      "v": 64
    },
    {
      "midi": 58,
      "hit": false,
      "t": 117428.4539999999,
      "d": 857.1419999999925,
      "v": 64
    },
    {
      "midi": 62,
      "hit": false,
      "t": 117428.4539999999,
      "d": 857.1419999999925,
      "v": 64
    },
    {
      "midi": 65,
      "hit": false,
      "t": 117857.02499999989,
      "d": 428.5709999999963,
      "v": 64
    },
    {
      "midi": 66,
      "hit": false,
      "t": 118285.59599999989,
      "d": 428.5709999999963,
      "v": 64
    },
    {
      "midi": 45,
      "hit": false,
      "t": 118285.59599999989,
      "d": 1714.2839999999997,
      "v": 64
    },
    {
      "midi": 66,
      "hit": false,
      "t": 118714.16699999988,
      "d": 428.5709999999963,
      "v": 64
    },
    {
      "midi": 54,
      "hit": false,
      "t": 119142.73799999988,
      "d": 857.1420000000071,
      "v": 64
    },
    {
      "midi": 57,
      "hit": false,
      "t": 119142.73799999988,
      "d": 857.1420000000071,
      "v": 64
    },
    {
      "midi": 60,
      "hit": false,
      "t": 119142.73799999988,
      "d": 857.1420000000071,
      "v": 64
    },
    {
      "midi": 62,
      "hit": false,
      "t": 119142.73799999988,
      "d": 857.1420000000071,
      "v": 64
    },
    {
      "midi": 69,
      "hit": false,
      "t": 119142.73799999988,
      "d": 857.1420000000071,
      "v": 64
    },
    {
      "midi": 74,
      "hit": false,
      "t": 119142.73799999988,
      "d": 857.1420000000071,
      "v": 64
    },
    {
      "midi": 67,
      "hit": false,
      "t": 119999.87999999989,
      "d": 428.5709999999963,
      "v": 64
    },
    {
      "midi": 70,
      "hit": false,
      "t": 119999.87999999989,
      "d": 428.5709999999963,
      "v": 64
    },
    {
      "midi": 74,
      "hit": false,
      "t": 119999.87999999989,
      "d": 428.5709999999963,
      "v": 64
    },
    {
      "midi": 43,
      "hit": false,
      "t": 119999.87999999989,
      "d": 857.1419999999925,
      "v": 64
    },
    {
      "midi": 55,
      "hit": false,
      "t": 119999.87999999989,
      "d": 857.1419999999925,
      "v": 64
    },
    {
      "midi": 67,
      "hit": false,
      "t": 120428.45099999988,
      "d": 857.1419999999925,
      "v": 64
    },
    {
      "midi": 70,
      "hit": false,
      "t": 120428.45099999988,
      "d": 857.1419999999925,
      "v": 64
    },
    {
      "midi": 74,
      "hit": false,
      "t": 120428.45099999988,
      "d": 857.1419999999925,
      "v": 64
    },
    {
      "midi": 55,
      "hit": false,
      "t": 120857.02199999988,
      "d": 857.1419999999925,
      "v": 64
    },
    {
      "midi": 58,
      "hit": false,
      "t": 120857.02199999988,
      "d": 857.1419999999925,
      "v": 64
    },
    {
      "midi": 62,
      "hit": false,
      "t": 120857.02199999988,
      "d": 857.1419999999925,
      "v": 64
    },
    {
      "midi": 67,
      "hit": false,
      "t": 121285.59299999988,
      "d": 428.5709999999963,
      "v": 64
    },
    {
      "midi": 70,
      "hit": false,
      "t": 121285.59299999988,
      "d": 428.5709999999963,
      "v": 64
    },
    {
      "midi": 74,
      "hit": false,
      "t": 121285.59299999988,
      "d": 428.5709999999963,
      "v": 64
    },
    {
      "midi": 67,
      "hit": false,
      "t": 121714.16399999987,
      "d": 428.5709999999963,
      "v": 64
    },
    {
      "midi": 72,
      "hit": false,
      "t": 121714.16399999987,
      "d": 428.5709999999963,
      "v": 64
    },
    {
      "midi": 39,
      "hit": false,
      "t": 121714.16399999987,
      "d": 857.1419999999925,
      "v": 64
    },
    {
      "midi": 51,
      "hit": false,
      "t": 121714.16399999987,
      "d": 857.1419999999925,
      "v": 64
    },
    {
      "midi": 70,
      "hit": false,
      "t": 122142.73499999987,
      "d": 428.5709999999963,
      "v": 64
    },
    {
      "midi": 54,
      "hit": false,
      "t": 122571.30599999987,
      "d": 857.1420000000071,
      "v": 64
    },
    {
      "midi": 58,
      "hit": false,
      "t": 122571.30599999987,
      "d": 857.1420000000071,
      "v": 64
    },
    {
      "midi": 63,
      "hit": false,
      "t": 122571.30599999987,
      "d": 857.1420000000071,
      "v": 64
    },
    {
      "midi": 66,
      "hit": false,
      "t": 122571.30599999987,
      "d": 857.1420000000071,
      "v": 64
    },
    {
      "midi": 72,
      "hit": false,
      "t": 122571.30599999987,
      "d": 857.1420000000071,
      "v": 64
    },
    {
      "midi": 46,
      "hit": false,
      "t": 123428.44799999987,
      "d": 857.1420000000071,
      "v": 64
    },
    {
      "midi": 65,
      "hit": false,
      "t": 123428.44799999987,
      "d": 857.1420000000071,
      "v": 64
    },
    {
      "midi": 74,
      "hit": false,
      "t": 123428.44799999987,
      "d": 857.1420000000071,
      "v": 64
    },
    {
      "midi": 65,
      "hit": false,
      "t": 124285.58999999988,
      "d": 428.5709999999963,
      "v": 64
    },
    {
      "midi": 53,
      "hit": false,
      "t": 124285.58999999988,
      "d": 857.1419999999925,
      "v": 64
    },
    {
      "midi": 58,
      "hit": false,
      "t": 124285.58999999988,
      "d": 857.1419999999925,
      "v": 64
    },
    {
      "midi": 62,
      "hit": false,
      "t": 124285.58999999988,
      "d": 857.1419999999925,
      "v": 64
    },
    {
      "midi": 74,
      "hit": false,
      "t": 124714.16099999988,
      "d": 857.1419999999925,
      "v": 64
    },
    {
      "midi": 41,
      "hit": false,
      "t": 125142.73199999987,
      "d": 857.1419999999925,
      "v": 64
    },
    {
      "midi": 74,
      "hit": false,
      "t": 125571.30299999987,
      "d": 428.5709999999963,
      "v": 64
    },
    {
      "midi": 53,
      "hit": false,
      "t": 125999.87399999987,
      "d": 857.1420000000071,
      "v": 64
    },
    {
      "midi": 58,
      "hit": false,
      "t": 125999.87399999987,
      "d": 857.1420000000071,
      "v": 64
    },
    {
      "midi": 62,
      "hit": false,
      "t": 125999.87399999987,
      "d": 857.1420000000071,
      "v": 64
    },
    {
      "midi": 65,
      "hit": false,
      "t": 125999.87399999987,
      "d": 857.1420000000071,
      "v": 64
    },
    {
      "midi": 58,
      "hit": false,
      "t": 126857.01599999987,
      "d": 428.5709999999963,
      "v": 64
    },
    {
      "midi": 62,
      "hit": false,
      "t": 126857.01599999987,
      "d": 428.5709999999963,
      "v": 64
    },
    {
      "midi": 70,
      "hit": false,
      "t": 126857.01599999987,
      "d": 428.5709999999963,
      "v": 64
    },
    {
      "midi": 43,
      "hit": false,
      "t": 126857.01599999987,
      "d": 857.1419999999925,
      "v": 64
    },
    {
      "midi": 55,
      "hit": false,
      "t": 126857.01599999987,
      "d": 857.1419999999925,
      "v": 64
    },
    {
      "midi": 70,
      "hit": false,
      "t": 127285.58699999987,
      "d": 428.5709999999963,
      "v": 64
    },
    {
      "midi": 43,
      "hit": false,
      "t": 127714.15799999986,
      "d": 857.1420000000071,
      "v": 64
    },
    {
      "midi": 55,
      "hit": false,
      "t": 127714.15799999986,
      "d": 857.1420000000071,
      "v": 64
    },
    {
      "midi": 58,
      "hit": false,
      "t": 127714.15799999986,
      "d": 857.1420000000071,
      "v": 64
    },
    {
      "midi": 62,
      "hit": false,
      "t": 127714.15799999986,
      "d": 857.1420000000071,
      "v": 64
    },
    {
      "midi": 70,
      "hit": false,
      "t": 127714.15799999986,
      "d": 857.1420000000071,
      "v": 64
    },
    {
      "midi": 72,
      "hit": false,
      "t": 128571.29999999987,
      "d": 428.5709999999963,
      "v": 64
    },
    {
      "midi": 48,
      "hit": false,
      "t": 128571.29999999987,
      "d": 857.1419999999925,
      "v": 64
    },
    {
      "midi": 64,
      "hit": false,
      "t": 128571.29999999987,
      "d": 1714.283999999985,
      "v": 64
    },
    {
      "midi": 72,
      "hit": false,
      "t": 128999.87099999987,
      "d": 428.5709999999963,
      "v": 64
    },
    {
      "midi": 74,
      "hit": false,
      "t": 129428.44199999986,
      "d": 428.5709999999963,
      "v": 64
    },
    {
      "midi": 52,
      "hit": false,
      "t": 129428.44199999986,
      "d": 857.1419999999925,
      "v": 64
    },
    {
      "midi": 55,
      "hit": false,
      "t": 129428.44199999986,
      "d": 857.1419999999925,
      "v": 64
    },
    {
      "midi": 58,
      "hit": false,
      "t": 129428.44199999986,
      "d": 857.1419999999925,
      "v": 64
    },
    {
      "midi": 60,
      "hit": false,
      "t": 129428.44199999986,
      "d": 857.1419999999925,
      "v": 64
    },
    {
      "midi": 72,
      "hit": false,
      "t": 129857.01299999986,
      "d": 428.5709999999963,
      "v": 64
    },
    {
      "midi": 53,
      "hit": false,
      "t": 130285.58399999986,
      "d": 857.1419999999925,
      "v": 64
    },
    {
      "midi": 63,
      "hit": false,
      "t": 130285.58399999986,
      "d": 857.1419999999925,
      "v": 64
    },
    {
      "midi": 69,
      "hit": false,
      "t": 130285.58399999986,
      "d": 857.1419999999925,
      "v": 64
    },
    {
      "midi": 72,
      "hit": false,
      "t": 130285.58399999986,
      "d": 2571.4259999999776,
      "v": 64
    },
    {
      "midi": 58,
      "hit": false,
      "t": 131142.72599999985,
      "d": 857.1419999999925,
      "v": 64
    },
    {
      "midi": 63,
      "hit": false,
      "t": 131142.72599999985,
      "d": 857.1419999999925,
      "v": 64
    },
    {
      "midi": 67,
      "hit": false,
      "t": 131142.72599999985,
      "d": 857.1419999999925,
      "v": 64
    },
    {
      "midi": 57,
      "hit": false,
      "t": 131999.86799999984,
      "d": 857.1419999999925,
      "v": 64
    },
    {
      "midi": 63,
      "hit": false,
      "t": 131999.86799999984,
      "d": 857.1419999999925,
      "v": 64
    },
    {
      "midi": 65,
      "hit": false,
      "t": 131999.86799999984,
      "d": 857.1419999999925,
      "v": 64
    },
    {
      "midi": 53,
      "hit": false,
      "t": 132857.00999999983,
      "d": 857.1419999999925,
      "v": 64
    },
    {
      "midi": 74,
      "hit": false,
      "t": 133714.15199999983,
      "d": 428.5709999999963,
      "v": 64
    },
    {
      "midi": 46,
      "hit": false,
      "t": 133714.15199999983,
      "d": 857.1419999999925,
      "v": 64
    },
    {
      "midi": 65,
      "hit": false,
      "t": 133714.15199999983,
      "d": 857.1419999999925,
      "v": 64
    },
    {
      "midi": 74,
      "hit": false,
      "t": 134142.72299999982,
      "d": 428.5709999999963,
      "v": 64
    },
    {
      "midi": 74,
      "hit": false,
      "t": 134571.29399999982,
      "d": 428.5709999999963,
      "v": 64
    },
    {
      "midi": 53,
      "hit": false,
      "t": 134571.29399999982,
      "d": 857.1419999999925,
      "v": 64
    },
    {
      "midi": 58,
      "hit": false,
      "t": 134571.29399999982,
      "d": 857.1419999999925,
      "v": 64
    },
    {
      "midi": 62,
      "hit": false,
      "t": 134571.29399999982,
      "d": 857.1419999999925,
      "v": 64
    },
    {
      "midi": 65,
      "hit": false,
      "t": 134571.29399999982,
      "d": 857.1419999999925,
      "v": 64
    },
    {
      "midi": 74,
      "hit": false,
      "t": 134999.86499999982,
      "d": 428.5709999999963,
      "v": 64
    },
    {
      "midi": 72,
      "hit": false,
      "t": 135428.4359999998,
      "d": 428.5709999999963,
      "v": 64
    },
    {
      "midi": 39,
      "hit": false,
      "t": 135428.4359999998,
      "d": 857.1419999999925,
      "v": 64
    },
    {
      "midi": 51,
      "hit": false,
      "t": 135428.4359999998,
      "d": 857.1419999999925,
      "v": 64
    },
    {
      "midi": 67,
      "hit": false,
      "t": 135428.4359999998,
      "d": 857.1419999999925,
      "v": 64
    },
    {
      "midi": 70,
      "hit": false,
      "t": 135857.0069999998,
      "d": 428.5709999999963,
      "v": 64
    },
    {
      "midi": 72,
      "hit": false,
      "t": 136285.5779999998,
      "d": 428.5709999999963,
      "v": 64
    },
    {
      "midi": 54,
      "hit": false,
      "t": 136285.5779999998,
      "d": 857.1419999999925,
      "v": 64
    },
    {
      "midi": 58,
      "hit": false,
      "t": 136285.5779999998,
      "d": 857.1419999999925,
      "v": 64
    },
    {
      "midi": 63,
      "hit": false,
      "t": 136285.5779999998,
      "d": 857.1419999999925,
      "v": 64
    },
    {
      "midi": 66,
      "hit": false,
      "t": 136285.5779999998,
      "d": 857.1419999999925,
      "v": 64
    },
    {
      "midi": 70,
      "hit": false,
      "t": 136714.1489999998,
      "d": 428.5709999999963,
      "v": 64
    },
    {
      "midi": 46,
      "hit": false,
      "t": 137142.7199999998,
      "d": 857.1419999999925,
      "v": 64
    },
    {
      "midi": 65,
      "hit": false,
      "t": 137142.7199999998,
      "d": 857.1419999999925,
      "v": 64
    },
    {
      "midi": 74,
      "hit": false,
      "t": 137142.7199999998,
      "d": 857.1419999999925,
      "v": 64
    },
    {
      "midi": 65,
      "hit": false,
      "t": 137999.8619999998,
      "d": 428.5709999999963,
      "v": 64
    },
    {
      "midi": 53,
      "hit": false,
      "t": 137999.8619999998,
      "d": 857.1419999999925,
      "v": 64
    },
    {
      "midi": 58,
      "hit": false,
      "t": 137999.8619999998,
      "d": 857.1419999999925,
      "v": 64
    },
    {
      "midi": 62,
      "hit": false,
      "t": 137999.8619999998,
      "d": 857.1419999999925,
      "v": 64
    },
    {
      "midi": 77,
      "hit": false,
      "t": 138428.4329999998,
      "d": 857.1419999999925,
      "v": 64
    },
    {
      "midi": 41,
      "hit": false,
      "t": 138857.00399999978,
      "d": 857.1419999999925,
      "v": 64
    },
    {
      "midi": 75,
      "hit": false,
      "t": 139285.57499999978,
      "d": 428.5709999999963,
      "v": 64
    },
    {
      "midi": 72,
      "hit": false,
      "t": 139714.14599999978,
      "d": 428.5709999999963,
      "v": 64
    },
    {
      "midi": 53,
      "hit": false,
      "t": 139714.14599999978,
      "d": 857.1419999999925,
      "v": 64
    },
    {
      "midi": 57,
      "hit": false,
      "t": 139714.14599999978,
      "d": 857.1419999999925,
      "v": 64
    },
    {
      "midi": 63,
      "hit": false,
      "t": 139714.14599999978,
      "d": 857.1419999999925,
      "v": 64
    },
    {
      "midi": 73,
      "hit": false,
      "t": 140142.71699999977,
      "d": 428.5709999999963,
      "v": 64
    },
    {
      "midi": 46,
      "hit": false,
      "t": 140571.28799999977,
      "d": 857.1419999999925,
      "v": 64
    },
    {
      "midi": 65,
      "hit": false,
      "t": 140571.28799999977,
      "d": 857.1419999999925,
      "v": 64
    },
    {
      "midi": 74,
      "hit": false,
      "t": 140571.28799999977,
      "d": 857.1419999999925,
      "v": 64
    },
    {
      "midi": 53,
      "hit": false,
      "t": 141428.42999999976,
      "d": 857.1419999999925,
      "v": 64
    },
    {
      "midi": 58,
      "hit": false,
      "t": 141428.42999999976,
      "d": 857.1419999999925,
      "v": 64
    },
    {
      "midi": 62,
      "hit": false,
      "t": 141428.42999999976,
      "d": 857.1419999999925,
      "v": 64
    },
    {
      "midi": 65,
      "hit": false,
      "t": 141428.42999999976,
      "d": 857.1419999999925,
      "v": 64
    },
    {
      "midi": 74,
      "hit": false,
      "t": 141428.42999999976,
      "d": 857.1419999999925,
      "v": 64
    },
    {
      "midi": 67,
      "hit": false,
      "t": 142285.57199999975,
      "d": 428.5709999999963,
      "v": 64
    },
    {
      "midi": 72,
      "hit": false,
      "t": 142285.57199999975,
      "d": 428.5709999999963,
      "v": 64
    },
    {
      "midi": 39,
      "hit": false,
      "t": 142285.57199999975,
      "d": 857.1419999999925,
      "v": 64
    },
    {
      "midi": 70,
      "hit": false,
      "t": 142714.14299999975,
      "d": 428.5709999999963,
      "v": 64
    },
    {
      "midi": 66,
      "hit": false,
      "t": 143142.71399999975,
      "d": 428.5709999999963,
      "v": 64
    },
    {
      "midi": 72,
      "hit": false,
      "t": 143142.71399999975,
      "d": 428.5709999999963,
      "v": 64
    },
    {
      "midi": 54,
      "hit": false,
      "t": 143142.71399999975,
      "d": 857.1419999999925,
      "v": 64
    },
    {
      "midi": 58,
      "hit": false,
      "t": 143142.71399999975,
      "d": 857.1419999999925,
      "v": 64
    },
    {
      "midi": 63,
      "hit": false,
      "t": 143142.71399999975,
      "d": 857.1419999999925,
      "v": 64
    },
    {
      "midi": 70,
      "hit": false,
      "t": 143571.28499999974,
      "d": 428.5709999999963,
      "v": 64
    },
    {
      "midi": 46,
      "hit": false,
      "t": 143999.85599999974,
      "d": 857.1419999999925,
      "v": 64
    },
    {
      "midi": 65,
      "hit": false,
      "t": 143999.85599999974,
      "d": 857.1419999999925,
      "v": 64
    },
    {
      "midi": 74,
      "hit": false,
      "t": 143999.85599999974,
      "d": 857.1419999999925,
      "v": 64
    },
    {
      "midi": 65,
      "hit": false,
      "t": 144856.99799999973,
      "d": 428.5709999999963,
      "v": 64
    },
    {
      "midi": 53,
      "hit": false,
      "t": 144856.99799999973,
      "d": 857.1419999999925,
      "v": 64
    },
    {
      "midi": 58,
      "hit": false,
      "t": 144856.99799999973,
      "d": 857.1419999999925,
      "v": 64
    },
    {
      "midi": 62,
      "hit": false,
      "t": 144856.99799999973,
      "d": 857.1419999999925,
      "v": 64
    },
    {
      "midi": 74,
      "hit": false,
      "t": 145285.56899999973,
      "d": 857.1419999999925,
      "v": 64
    },
    {
      "midi": 53,
      "hit": false,
      "t": 145714.13999999972,
      "d": 857.1419999999925,
      "v": 64
    },
    {
      "midi": 58,
      "hit": false,
      "t": 145714.13999999972,
      "d": 857.1419999999925,
      "v": 64
    },
    {
      "midi": 62,
      "hit": false,
      "t": 145714.13999999972,
      "d": 857.1419999999925,
      "v": 64
    },
    {
      "midi": 70,
      "hit": false,
      "t": 146142.71099999972,
      "d": 428.5709999999963,
      "v": 64
    },
    {
      "midi": 69,
      "hit": false,
      "t": 146571.28199999972,
      "d": 428.5709999999963,
      "v": 64
    },
    {
      "midi": 68,
      "hit": false,
      "t": 146999.8529999997,
      "d": 428.5709999999963,
      "v": 64
    },
    {
      "midi": 51,
      "hit": false,
      "t": 147428.4239999997,
      "d": 857.1419999999925,
      "v": 64
    },
    {
      "midi": 67,
      "hit": false,
      "t": 147428.4239999997,
      "d": 857.1419999999925,
      "v": 64
    },
    {
      "midi": 67,
      "hit": false,
      "t": 148285.5659999997,
      "d": 428.5709999999963,
      "v": 64
    },
    {
      "midi": 55,
      "hit": false,
      "t": 148285.5659999997,
      "d": 857.1419999999925,
      "v": 64
    },
    {
      "midi": 58,
      "hit": false,
      "t": 148285.5659999997,
      "d": 857.1419999999925,
      "v": 64
    },
    {
      "midi": 63,
      "hit": false,
      "t": 148285.5659999997,
      "d": 857.1419999999925,
      "v": 64
    },
    {
      "midi": 67,
      "hit": false,
      "t": 148714.1369999997,
      "d": 428.5709999999963,
      "v": 64
    },
    {
      "midi": 67,
      "hit": false,
      "t": 149142.7079999997,
      "d": 428.5709999999963,
      "v": 64
    },
    {
      "midi": 70,
      "hit": false,
      "t": 149142.7079999997,
      "d": 428.5709999999963,
      "v": 64
    },
    {
      "midi": 51,
      "hit": false,
      "t": 149142.7079999997,
      "d": 857.1419999999925,
      "v": 64
    },
    {
      "midi": 58,
      "hit": false,
      "t": 149142.7079999997,
      "d": 857.1419999999925,
      "v": 64
    },
    {
      "midi": 67,
      "hit": false,
      "t": 149571.2789999997,
      "d": 428.5709999999963,
      "v": 64
    },
    {
      "midi": 70,
      "hit": false,
      "t": 149571.2789999997,
      "d": 428.5709999999963,
      "v": 64
    },
    {
      "midi": 63,
      "hit": false,
      "t": 149999.8499999997,
      "d": 428.5709999999963,
      "v": 64
    },
    {
      "midi": 72,
      "hit": false,
      "t": 149999.8499999997,
      "d": 428.5709999999963,
      "v": 64
    },
    {
      "midi": 55,
      "hit": false,
      "t": 149999.8499999997,
      "d": 857.1419999999925,
      "v": 64
    },
    {
      "midi": 58,
      "hit": false,
      "t": 149999.8499999997,
      "d": 857.1419999999925,
      "v": 64
    },
    {
      "midi": 63,
      "hit": false,
      "t": 150428.42099999968,
      "d": 428.5709999999963,
      "v": 64
    },
    {
      "midi": 70,
      "hit": false,
      "t": 150428.42099999968,
      "d": 428.5709999999963,
      "v": 64
    },
    {
      "midi": 41,
      "hit": false,
      "t": 150856.99199999968,
      "d": 857.1419999999925,
      "v": 64
    },
    {
      "midi": 65,
      "hit": false,
      "t": 150856.99199999968,
      "d": 857.1419999999925,
      "v": 64
    },
    {
      "midi": 53,
      "hit": false,
      "t": 151714.13399999967,
      "d": 857.1419999999925,
      "v": 64
    },
    {
      "midi": 58,
      "hit": false,
      "t": 151714.13399999967,
      "d": 857.1419999999925,
      "v": 64
    },
    {
      "midi": 62,
      "hit": false,
      "t": 151714.13399999967,
      "d": 857.1419999999925,
      "v": 64
    },
    {
      "midi": 65,
      "hit": false,
      "t": 151714.13399999967,
      "d": 1714.283999999985,
      "v": 64
    },
    {
      "midi": 74,
      "hit": false,
      "t": 151714.13399999967,
      "d": 1714.283999999985,
      "v": 64
    },
    {
      "midi": 53,
      "hit": false,
      "t": 152571.27599999966,
      "d": 857.1419999999925,
      "v": 64
    },
    {
      "midi": 58,
      "hit": false,
      "t": 152571.27599999966,
      "d": 857.1419999999925,
      "v": 64
    },
    {
      "midi": 62,
      "hit": false,
      "t": 152571.27599999966,
      "d": 857.1419999999925,
      "v": 64
    },
    {
      "midi": 47,
      "hit": false,
      "t": 153428.41799999966,
      "d": 857.1419999999925,
      "v": 64
    },
    {
      "midi": 59,
      "hit": false,
      "t": 153428.41799999966,
      "d": 857.1419999999925,
      "v": 64
    },
    {
      "midi": 65,
      "hit": false,
      "t": 153428.41799999966,
      "d": 857.1419999999925,
      "v": 64
    },
    {
      "midi": 68,
      "hit": false,
      "t": 153428.41799999966,
      "d": 857.1419999999925,
      "v": 64
    },
    {
      "midi": 74,
      "hit": false,
      "t": 153428.41799999966,
      "d": 857.1419999999925,
      "v": 64
    },
    {
      "midi": 74,
      "hit": false,
      "t": 154285.55999999965,
      "d": 857.1419999999925,
      "v": 64
    },
    {
      "midi": 48,
      "hit": false,
      "t": 154285.55999999965,
      "d": 1714.283999999985,
      "v": 64
    },
    {
      "midi": 60,
      "hit": false,
      "t": 154285.55999999965,
      "d": 1714.283999999985,
      "v": 64
    },
    {
      "midi": 65,
      "hit": false,
      "t": 154285.55999999965,
      "d": 1714.283999999985,
      "v": 64
    },
    {
      "midi": 69,
      "hit": false,
      "t": 154285.55999999965,
      "d": 1714.283999999985,
      "v": 64
    },
    {
      "midi": 72,
      "hit": false,
      "t": 155142.70199999964,
      "d": 857.1419999999925,
      "v": 64
    },
    {
      "midi": 70,
      "hit": false,
      "t": 155999.84399999963,
      "d": 428.5709999999963,
      "v": 64
    },
    {
      "midi": 48,
      "hit": false,
      "t": 155999.84399999963,
      "d": 857.1419999999925,
      "v": 64
    },
    {
      "midi": 60,
      "hit": false,
      "t": 155999.84399999963,
      "d": 1714.283999999985,
      "v": 64
    },
    {
      "midi": 64,
      "hit": false,
      "t": 155999.84399999963,
      "d": 1714.283999999985,
      "v": 64
    },
    {
      "midi": 70,
      "hit": false,
      "t": 156428.41499999963,
      "d": 428.5709999999963,
      "v": 64
    },
    {
      "midi": 69,
      "hit": false,
      "t": 156856.98599999963,
      "d": 428.5709999999963,
      "v": 64
    },
    {
      "midi": 36,
      "hit": false,
      "t": 156856.98599999963,
      "d": 857.1419999999925,
      "v": 64
    },
    {
      "midi": 48,
      "hit": false,
      "t": 156856.98599999963,
      "d": 857.1419999999925,
      "v": 64
    },
    {
      "midi": 67,
      "hit": false,
      "t": 157285.55699999962,
      "d": 428.5709999999963,
      "v": 64
    },
    {
      "midi": 41,
      "hit": false,
      "t": 157714.12799999962,
      "d": 857.1419999999925,
      "v": 64
    },
    {
      "midi": 53,
      "hit": false,
      "t": 157714.12799999962,
      "d": 857.1419999999925,
      "v": 64
    },
    {
      "midi": 63,
      "hit": false,
      "t": 157714.12799999962,
      "d": 857.1419999999925,
      "v": 64
    },
    {
      "midi": 69,
      "hit": false,
      "t": 157714.12799999962,
      "d": 857.1419999999925,
      "v": 64
    },
    {
      "midi": 72,
      "hit": false,
      "t": 157714.12799999962,
      "d": 2571.4259999999776,
      "v": 64
    },
    {
      "midi": 55,
      "hit": false,
      "t": 158571.2699999996,
      "d": 857.1419999999925,
      "v": 64
    },
    {
      "midi": 63,
      "hit": false,
      "t": 158571.2699999996,
      "d": 857.1419999999925,
      "v": 64
    },
    {
      "midi": 67,
      "hit": false,
      "t": 158571.2699999996,
      "d": 857.1419999999925,
      "v": 64
    },
    {
      "midi": 57,
      "hit": false,
      "t": 159428.4119999996,
      "d": 857.1419999999925,
      "v": 64
    },
    {
      "midi": 63,
      "hit": false,
      "t": 159428.4119999996,
      "d": 857.1419999999925,
      "v": 64
    },
    {
      "midi": 65,
      "hit": false,
      "t": 159428.4119999996,
      "d": 857.1419999999925,
      "v": 64
    },
    {
      "midi": 41,
      "hit": false,
      "t": 160285.5539999996,
      "d": 857.1419999999925,
      "v": 64
    },
    {
      "midi": 53,
      "hit": false,
      "t": 160285.5539999996,
      "d": 857.1419999999925,
      "v": 64
    },
    {
      "midi": 65,
      "hit": false,
      "t": 160285.5539999996,
      "d": 857.1419999999925,
      "v": 64
    },
    {
      "midi": 69,
      "hit": false,
      "t": 160285.5539999996,
      "d": 857.1419999999925,
      "v": 64
    },
    {
      "midi": 72,
      "hit": false,
      "t": 160285.5539999996,
      "d": 857.1419999999925,
      "v": 64
    },
    {
      "midi": 77,
      "hit": false,
      "t": 160285.5539999996,
      "d": 857.1419999999925,
      "v": 64
    },
    {
      "midi": 46,
      "hit": false,
      "t": 161142.6959999996,
      "d": 428.5709999999963,
      "v": 64
    },
    {
      "midi": 58,
      "hit": false,
      "t": 161142.6959999996,
      "d": 428.5709999999963,
      "v": 64
    },
    {
      "midi": 62,
      "hit": false,
      "t": 161571.26699999959,
      "d": 428.5709999999963,
      "v": 64
    },
    {
      "midi": 65,
      "hit": false,
      "t": 161571.26699999959,
      "d": 428.5709999999963,
      "v": 64
    },
    {
      "midi": 70,
      "hit": false,
      "t": 161571.26699999959,
      "d": 428.5709999999963,
      "v": 64
    },
    {
      "midi": 41,
      "hit": false,
      "t": 161999.83799999958,
      "d": 428.5709999999963,
      "v": 64
    },
    {
      "midi": 53,
      "hit": false,
      "t": 161999.83799999958,
      "d": 428.5709999999963,
      "v": 64
    },
    {
      "midi": 62,
      "hit": false,
      "t": 162428.40899999958,
      "d": 428.5709999999963,
      "v": 64
    },
    {
      "midi": 65,
      "hit": false,
      "t": 162428.40899999958,
      "d": 428.5709999999963,
      "v": 64
    },
    {
      "midi": 70,
      "hit": false,
      "t": 162428.40899999958,
      "d": 428.5709999999963,
      "v": 64
    },
    {
      "midi": 46,
      "hit": false,
      "t": 162856.97999999957,
      "d": 428.5709999999963,
      "v": 64
    },
    {
      "midi": 58,
      "hit": false,
      "t": 162856.97999999957,
      "d": 428.5709999999963,
      "v": 64
    },
    {
      "midi": 62,
      "hit": false,
      "t": 163285.55099999957,
      "d": 428.5709999999963,
      "v": 64
    },
    {
      "midi": 65,
      "hit": false,
      "t": 163285.55099999957,
      "d": 428.5709999999963,
      "v": 64
    },
    {
      "midi": 70,
      "hit": false,
      "t": 163285.55099999957,
      "d": 428.5709999999963,
      "v": 64
    },
    {
      "midi": 41,
      "hit": false,
      "t": 163714.12199999957,
      "d": 428.5709999999963,
      "v": 64
    },
    {
      "midi": 53,
      "hit": false,
      "t": 163714.12199999957,
      "d": 428.5709999999963,
      "v": 64
    },
    {
      "midi": 62,
      "hit": false,
      "t": 164142.69299999956,
      "d": 428.5709999999963,
      "v": 64
    },
    {
      "midi": 65,
      "hit": false,
      "t": 164142.69299999956,
      "d": 428.5709999999963,
      "v": 64
    },
    {
      "midi": 70,
      "hit": false,
      "t": 164142.69299999956,
      "d": 428.5709999999963,
      "v": 64
    },
    {
      "midi": 62,
      "hit": false,
      "t": 164571.26399999956,
      "d": 214.28549999999814,
      "v": 64
    },
    {
      "midi": 65,
      "hit": false,
      "t": 164571.26399999956,
      "d": 214.28549999999814,
      "v": 64
    },
    {
      "midi": 46,
      "hit": false,
      "t": 164571.26399999956,
      "d": 428.5709999999963,
      "v": 64
    },
    {
      "midi": 65,
      "hit": false,
      "t": 164785.54949999956,
      "d": 214.28549999999814,
      "v": 64
    },
    {
      "midi": 50,
      "hit": false,
      "t": 164999.83499999956,
      "d": 428.5709999999963,
      "v": 64
    },
    {
      "midi": 53,
      "hit": false,
      "t": 164999.83499999956,
      "d": 428.5709999999963,
      "v": 64
    },
    {
      "midi": 58,
      "hit": false,
      "t": 164999.83499999956,
      "d": 428.5709999999963,
      "v": 64
    },
    {
      "midi": 62,
      "hit": false,
      "t": 164999.83499999956,
      "d": 428.5709999999963,
      "v": 64
    },
    {
      "midi": 65,
      "hit": false,
      "t": 164999.83499999956,
      "d": 428.5709999999963,
      "v": 64
    },
    {
      "midi": 62,
      "hit": false,
      "t": 165428.40599999955,
      "d": 214.28549999999814,
      "v": 64
    },
    {
      "midi": 65,
      "hit": false,
      "t": 165428.40599999955,
      "d": 214.28549999999814,
      "v": 64
    },
    {
      "midi": 41,
      "hit": false,
      "t": 165428.40599999955,
      "d": 428.5709999999963,
      "v": 64
    },
    {
      "midi": 65,
      "hit": false,
      "t": 165642.69149999955,
      "d": 214.28549999999814,
      "v": 64
    },
    {
      "midi": 62,
      "hit": false,
      "t": 165856.97699999955,
      "d": 214.28549999999814,
      "v": 64
    },
    {
      "midi": 65,
      "hit": false,
      "t": 165856.97699999955,
      "d": 214.28549999999814,
      "v": 64
    },
    {
      "midi": 50,
      "hit": false,
      "t": 165856.97699999955,
      "d": 428.5709999999963,
      "v": 64
    },
    {
      "midi": 53,
      "hit": false,
      "t": 165856.97699999955,
      "d": 428.5709999999963,
      "v": 64
    },
    {
      "midi": 58,
      "hit": false,
      "t": 165856.97699999955,
      "d": 428.5709999999963,
      "v": 64
    },
    {
      "midi": 65,
      "hit": false,
      "t": 166071.26249999955,
      "d": 214.28549999999814,
      "v": 64
    },
    {
      "midi": 46,
      "hit": false,
      "t": 166285.54799999954,
      "d": 428.5709999999963,
      "v": 64
    },
    {
      "midi": 62,
      "hit": false,
      "t": 166285.54799999954,
      "d": 428.5709999999963,
      "v": 64
    },
    {
      "midi": 65,
      "hit": false,
      "t": 166285.54799999954,
      "d": 428.5709999999963,
      "v": 64
    },
    {
      "midi": 50,
      "hit": false,
      "t": 166714.11899999954,
      "d": 428.5709999999963,
      "v": 64
    },
    {
      "midi": 53,
      "hit": false,
      "t": 166714.11899999954,
      "d": 428.5709999999963,
      "v": 64
    },
    {
      "midi": 58,
      "hit": false,
      "t": 166714.11899999954,
      "d": 428.5709999999963,
      "v": 64
    },
    {
      "midi": 62,
      "hit": false,
      "t": 166714.11899999954,
      "d": 642.8564999999944,
      "v": 64
    },
    {
      "midi": 65,
      "hit": false,
      "t": 166714.11899999954,
      "d": 642.8564999999944,
      "v": 64
    },
    {
      "midi": 46,
      "hit": false,
      "t": 167142.68999999954,
      "d": 428.5709999999963,
      "v": 64
    },
    {
      "midi": 74,
      "hit": false,
      "t": 167356.97549999953,
      "d": 214.28549999999814,
      "v": 64
    },
    {
      "midi": 70,
      "hit": false,
      "t": 167571.26099999953,
      "d": 214.28549999999814,
      "v": 64
    },
    {
      "midi": 56,
      "hit": false,
      "t": 167571.26099999953,
      "d": 428.5709999999963,
      "v": 64
    },
    {
      "midi": 58,
      "hit": false,
      "t": 167571.26099999953,
      "d": 428.5709999999963,
      "v": 64
    },
    {
      "midi": 62,
      "hit": false,
      "t": 167571.26099999953,
      "d": 428.5709999999963,
      "v": 64
    },
    {
      "midi": 65,
      "hit": false,
      "t": 167785.54649999953,
      "d": 214.28549999999814,
      "v": 64
    },
    {
      "midi": 67,
      "hit": false,
      "t": 167999.83199999953,
      "d": 214.28549999999814,
      "v": 64
    },
    {
      "midi": 51,
      "hit": false,
      "t": 167999.83199999953,
      "d": 428.5709999999963,
      "v": 64
    },
    {
      "midi": 66,
      "hit": false,
      "t": 168214.11749999953,
      "d": 214.28549999999814,
      "v": 64
    },
    {
      "midi": 55,
      "hit": false,
      "t": 168428.40299999953,
      "d": 428.5709999999963,
      "v": 64
    },
    {
      "midi": 58,
      "hit": false,
      "t": 168428.40299999953,
      "d": 428.5709999999963,
      "v": 64
    },
    {
      "midi": 63,
      "hit": false,
      "t": 168428.40299999953,
      "d": 428.5709999999963,
      "v": 64
    },
    {
      "midi": 67,
      "hit": false,
      "t": 168428.40299999953,
      "d": 428.5709999999963,
      "v": 64
    },
    {
      "midi": 70,
      "hit": false,
      "t": 168856.97399999952,
      "d": 214.28549999999814,
      "v": 64
    },
    {
      "midi": 51,
      "hit": false,
      "t": 168856.97399999952,
      "d": 428.5709999999963,
      "v": 64
    },
    {
      "midi": 67,
      "hit": false,
      "t": 168856.97399999952,
      "d": 857.1419999999925,
      "v": 64
    },
    {
      "midi": 70,
      "hit": false,
      "t": 169071.25949999952,
      "d": 214.28549999999814,
      "v": 64
    },
    {
      "midi": 72,
      "hit": false,
      "t": 169285.54499999952,
      "d": 214.28549999999814,
      "v": 64
    },
    {
      "midi": 55,
      "hit": false,
      "t": 169285.54499999952,
      "d": 428.5709999999963,
      "v": 64
    },
    {
      "midi": 58,
      "hit": false,
      "t": 169285.54499999952,
      "d": 428.5709999999963,
      "v": 64
    },
    {
      "midi": 63,
      "hit": false,
      "t": 169285.54499999952,
      "d": 428.5709999999963,
      "v": 64
    },
    {
      "midi": 70,
      "hit": false,
      "t": 169499.83049999952,
      "d": 214.28549999999814,
      "v": 64
    },
    {
      "midi": 62,
      "hit": false,
      "t": 169714.1159999995,
      "d": 214.28549999999814,
      "v": 64
    },
    {
      "midi": 65,
      "hit": false,
      "t": 169714.1159999995,
      "d": 214.28549999999814,
      "v": 64
    },
    {
      "midi": 46,
      "hit": false,
      "t": 169714.1159999995,
      "d": 428.5709999999963,
      "v": 64
    },
    {
      "midi": 70,
      "hit": false,
      "t": 169928.4014999995,
      "d": 214.28549999999814,
      "v": 64
    },
    {
      "midi": 74,
      "hit": false,
      "t": 170142.6869999995,
      "d": 214.28549999999814,
      "v": 64
    },
    {
      "midi": 53,
      "hit": false,
      "t": 170142.6869999995,
      "d": 428.5709999999963,
      "v": 64
    },
    {
      "midi": 58,
      "hit": false,
      "t": 170142.6869999995,
      "d": 428.5709999999963,
      "v": 64
    },
    {
      "midi": 62,
      "hit": false,
      "t": 170142.6869999995,
      "d": 428.5709999999963,
      "v": 64
    },
    {
      "midi": 77,
      "hit": false,
      "t": 170356.9724999995,
      "d": 214.28549999999814,
      "v": 64
    },
    {
      "midi": 79,
      "hit": false,
      "t": 170571.2579999995,
      "d": 214.28549999999814,
      "v": 64
    },
    {
      "midi": 41,
      "hit": false,
      "t": 170571.2579999995,
      "d": 428.5709999999963,
      "v": 64
    },
    {
      "midi": 77,
      "hit": false,
      "t": 170785.5434999995,
      "d": 428.5709999999963,
      "v": 64
    },
    {
      "midi": 53,
      "hit": false,
      "t": 170999.8289999995,
      "d": 428.5709999999963,
      "v": 64
    },
    {
      "midi": 58,
      "hit": false,
      "t": 170999.8289999995,
      "d": 428.5709999999963,
      "v": 64
    },
    {
      "midi": 62,
      "hit": false,
      "t": 170999.8289999995,
      "d": 428.5709999999963,
      "v": 64
    },
    {
      "midi": 74,
      "hit": false,
      "t": 171214.1144999995,
      "d": 214.28549999999814,
      "v": 64
    },
    {
      "midi": 46,
      "hit": false,
      "t": 171428.3999999995,
      "d": 428.5709999999963,
      "v": 64
    },
    {
      "midi": 62,
      "hit": false,
      "t": 171428.3999999995,
      "d": 428.5709999999963,
      "v": 64
    },
    {
      "midi": 65,
      "hit": false,
      "t": 171428.3999999995,
      "d": 428.5709999999963,
      "v": 64
    },
    {
      "midi": 62,
      "hit": false,
      "t": 171856.9709999995,
      "d": 214.28549999999814,
      "v": 64
    },
    {
      "midi": 65,
      "hit": false,
      "t": 171856.9709999995,
      "d": 214.28549999999814,
      "v": 64
    },
    {
      "midi": 50,
      "hit": false,
      "t": 171856.9709999995,
      "d": 428.5709999999963,
      "v": 64
    },
    {
      "midi": 53,
      "hit": false,
      "t": 171856.9709999995,
      "d": 428.5709999999963,
      "v": 64
    },
    {
      "midi": 58,
      "hit": false,
      "t": 171856.9709999995,
      "d": 428.5709999999963,
      "v": 64
    },
    {
      "midi": 65,
      "hit": false,
      "t": 172071.2564999995,
      "d": 214.28549999999814,
      "v": 64
    },
    {
      "midi": 62,
      "hit": false,
      "t": 172285.5419999995,
      "d": 214.28549999999814,
      "v": 64
    },
    {
      "midi": 65,
      "hit": false,
      "t": 172285.5419999995,
      "d": 214.28549999999814,
      "v": 64
    },
    {
      "midi": 41,
      "hit": false,
      "t": 172285.5419999995,
      "d": 428.5709999999963,
      "v": 64
    },
    {
      "midi": 65,
      "hit": false,
      "t": 172499.8274999995,
      "d": 214.28549999999814,
      "v": 64
    },
    {
      "midi": 50,
      "hit": false,
      "t": 172714.1129999995,
      "d": 428.5709999999963,
      "v": 64
    },
    {
      "midi": 53,
      "hit": false,
      "t": 172714.1129999995,
      "d": 428.5709999999963,
      "v": 64
    },
    {
      "midi": 58,
      "hit": false,
      "t": 172714.1129999995,
      "d": 428.5709999999963,
      "v": 64
    },
    {
      "midi": 62,
      "hit": false,
      "t": 172714.1129999995,
      "d": 428.5709999999963,
      "v": 64
    },
    {
      "midi": 65,
      "hit": false,
      "t": 172714.1129999995,
      "d": 428.5709999999963,
      "v": 64
    },
    {
      "midi": 46,
      "hit": false,
      "t": 173142.68399999948,
      "d": 428.5709999999963,
      "v": 64
    },
    {
      "midi": 62,
      "hit": false,
      "t": 173142.68399999948,
      "d": 428.5709999999963,
      "v": 64
    },
    {
      "midi": 65,
      "hit": false,
      "t": 173142.68399999948,
      "d": 428.5709999999963,
      "v": 64
    },
    {
      "midi": 50,
      "hit": false,
      "t": 173571.25499999948,
      "d": 428.5709999999963,
      "v": 64
    },
    {
      "midi": 53,
      "hit": false,
      "t": 173571.25499999948,
      "d": 428.5709999999963,
      "v": 64
    },
    {
      "midi": 58,
      "hit": false,
      "t": 173571.25499999948,
      "d": 428.5709999999963,
      "v": 64
    },
    {
      "midi": 62,
      "hit": false,
      "t": 173571.25499999948,
      "d": 857.1419999999925,
      "v": 64
    },
    {
      "midi": 65,
      "hit": false,
      "t": 173571.25499999948,
      "d": 857.1419999999925,
      "v": 64
    },
    {
      "midi": 50,
      "hit": false,
      "t": 173999.82599999948,
      "d": 428.5709999999963,
      "v": 64
    },
    {
      "midi": 53,
      "hit": false,
      "t": 173999.82599999948,
      "d": 428.5709999999963,
      "v": 64
    },
    {
      "midi": 58,
      "hit": false,
      "t": 173999.82599999948,
      "d": 428.5709999999963,
      "v": 64
    },
    {
      "midi": 43,
      "hit": false,
      "t": 174428.39699999947,
      "d": 428.5709999999963,
      "v": 64
    },
    {
      "midi": 55,
      "hit": false,
      "t": 174428.39699999947,
      "d": 428.5709999999963,
      "v": 64
    },
    {
      "midi": 58,
      "hit": false,
      "t": 174428.39699999947,
      "d": 428.5709999999963,
      "v": 64
    },
    {
      "midi": 61,
      "hit": false,
      "t": 174428.39699999947,
      "d": 428.5709999999963,
      "v": 64
    },
    {
      "midi": 67,
      "hit": false,
      "t": 174428.39699999947,
      "d": 428.5709999999963,
      "v": 64
    },
    {
      "midi": 69,
      "hit": false,
      "t": 174856.96799999947,
      "d": 214.28549999999814,
      "v": 64
    },
    {
      "midi": 48,
      "hit": false,
      "t": 174856.96799999947,
      "d": 428.5709999999963,
      "v": 64
    },
    {
      "midi": 65,
      "hit": false,
      "t": 174856.96799999947,
      "d": 428.5709999999963,
      "v": 64
    },
    {
      "midi": 69,
      "hit": false,
      "t": 175071.25349999947,
      "d": 214.28549999999814,
      "v": 64
    },
    {
      "midi": 53,
      "hit": false,
      "t": 175285.53899999947,
      "d": 428.5709999999963,
      "v": 64
    },
    {
      "midi": 57,
      "hit": false,
      "t": 175285.53899999947,
      "d": 428.5709999999963,
      "v": 64
    },
    {
      "midi": 60,
      "hit": false,
      "t": 175285.53899999947,
      "d": 428.5709999999963,
      "v": 64
    },
    {
      "midi": 69,
      "hit": false,
      "t": 175285.53899999947,
      "d": 428.5709999999963,
      "v": 64
    },
    {
      "midi": 72,
      "hit": false,
      "t": 175285.53899999947,
      "d": 428.5709999999963,
      "v": 64
    },
    {
      "midi": 67,
      "hit": false,
      "t": 175714.10999999946,
      "d": 214.28549999999814,
      "v": 64
    },
    {
      "midi": 48,
      "hit": false,
      "t": 175714.10999999946,
      "d": 428.5709999999963,
      "v": 64
    },
    {
      "midi": 64,
      "hit": false,
      "t": 175714.10999999946,
      "d": 428.5709999999963,
      "v": 64
    },
    {
      "midi": 67,
      "hit": false,
      "t": 175928.39549999946,
      "d": 214.28549999999814,
      "v": 64
    },
    {
      "midi": 72,
      "hit": false,
      "t": 176142.68099999946,
      "d": 214.28549999999814,
      "v": 64
    },
    {
      "midi": 52,
      "hit": false,
      "t": 176142.68099999946,
      "d": 428.5709999999963,
      "v": 64
    },
    {
      "midi": 55,
      "hit": false,
      "t": 176142.68099999946,
      "d": 428.5709999999963,
      "v": 64
    },
    {
      "midi": 58,
      "hit": false,
      "t": 176142.68099999946,
      "d": 428.5709999999963,
      "v": 64
    },
    {
      "midi": 60,
      "hit": false,
      "t": 176142.68099999946,
      "d": 428.5709999999963,
      "v": 64
    },
    {
      "midi": 64,
      "hit": false,
      "t": 176142.68099999946,
      "d": 428.5709999999963,
      "v": 64
    },
    {
      "midi": 72,
      "hit": false,
      "t": 176356.96649999946,
      "d": 214.28549999999814,
      "v": 64
    },
    {
      "midi": 53,
      "hit": false,
      "t": 176571.25199999945,
      "d": 428.5709999999963,
      "v": 64
    },
    {
      "midi": 57,
      "hit": false,
      "t": 176571.25199999945,
      "d": 428.5709999999963,
      "v": 64
    },
    {
      "midi": 60,
      "hit": false,
      "t": 176571.25199999945,
      "d": 428.5709999999963,
      "v": 64
    },
    {
      "midi": 65,
      "hit": false,
      "t": 176571.25199999945,
      "d": 428.5709999999963,
      "v": 64
    },
    {
      "midi": 72,
      "hit": false,
      "t": 176999.82299999945,
      "d": 142.85699999998906,
      "v": 64
    },
    {
      "midi": 71,
      "hit": false,
      "t": 177142.67999999944,
      "d": 142.85699999998906,
      "v": 64
    },
    {
      "midi": 72,
      "hit": false,
      "t": 177285.53699999943,
      "d": 142.85699999998906,
      "v": 64
    },
    {
      "midi": 41,
      "hit": false,
      "t": 177428.39399999942,
      "d": 214.28549999999814,
      "v": 64
    },
    {
      "midi": 53,
      "hit": false,
      "t": 177428.39399999942,
      "d": 214.28549999999814,
      "v": 64
    },
    {
      "midi": 65,
      "hit": false,
      "t": 177428.39399999942,
      "d": 428.5709999999963,
      "v": 64
    },
    {
      "midi": 69,
      "hit": false,
      "t": 177428.39399999942,
      "d": 428.5709999999963,
      "v": 64
    },
    {
      "midi": 72,
      "hit": false,
      "t": 177428.39399999942,
      "d": 428.5709999999963,
      "v": 64
    },
    {
      "midi": 77,
      "hit": false,
      "t": 177428.39399999942,
      "d": 428.5709999999963,
      "v": 64
    },
    {
      "midi": 57,
      "hit": false,
      "t": 177642.67949999942,
      "d": 214.28549999999814,
      "v": 64
    },
    {
      "midi": 60,
      "hit": false,
      "t": 177856.9649999994,
      "d": 214.28549999999814,
      "v": 64
    },
    {
      "midi": 57,
      "hit": false,
      "t": 178071.2504999994,
      "d": 214.28549999999814,
      "v": 64
    },
    {
      "midi": 69,
      "hit": false,
      "t": 178285.5359999994,
      "d": 214.28549999999814,
      "v": 64
    },
    {
      "midi": 75,
      "hit": false,
      "t": 178285.5359999994,
      "d": 214.28549999999814,
      "v": 64
    },
    {
      "midi": 81,
      "hit": false,
      "t": 178285.5359999994,
      "d": 214.28549999999814,
      "v": 64
    },
    {
      "midi": 48,
      "hit": false,
      "t": 178285.5359999994,
      "d": 428.5709999999963,
      "v": 64
    },
    {
      "midi": 69,
      "hit": false,
      "t": 178499.8214999994,
      "d": 214.28549999999814,
      "v": 64
    },
    {
      "midi": 75,
      "hit": false,
      "t": 178499.8214999994,
      "d": 214.28549999999814,
      "v": 64
    },
    {
      "midi": 81,
      "hit": false,
      "t": 178499.8214999994,
      "d": 214.28549999999814,
      "v": 64
    },
    {
      "midi": 67,
      "hit": false,
      "t": 178714.1069999994,
      "d": 214.28549999999814,
      "v": 64
    },
    {
      "midi": 75,
      "hit": false,
      "t": 178714.1069999994,
      "d": 214.28549999999814,
      "v": 64
    },
    {
      "midi": 79,
      "hit": false,
      "t": 178714.1069999994,
      "d": 214.28549999999814,
      "v": 64
    },
    {
      "midi": 53,
      "hit": false,
      "t": 178714.1069999994,
      "d": 428.5709999999963,
      "v": 64
    },
    {
      "midi": 57,
      "hit": false,
      "t": 178714.1069999994,
      "d": 428.5709999999963,
      "v": 64
    },
    {
      "midi": 63,
      "hit": false,
      "t": 178714.1069999994,
      "d": 428.5709999999963,
      "v": 64
    },
    {
      "midi": 67,
      "hit": false,
      "t": 178928.3924999994,
      "d": 214.28549999999814,
      "v": 64
    },
    {
      "midi": 75,
      "hit": false,
      "t": 178928.3924999994,
      "d": 214.28549999999814,
      "v": 64
    },
    {
      "midi": 79,
      "hit": false,
      "t": 178928.3924999994,
      "d": 214.28549999999814,
      "v": 64
    },
    {
      "midi": 41,
      "hit": false,
      "t": 179142.6779999994,
      "d": 428.5709999999963,
      "v": 64
    },
    {
      "midi": 69,
      "hit": false,
      "t": 179142.6779999994,
      "d": 428.5709999999963,
      "v": 64
    },
    {
      "midi": 75,
      "hit": false,
      "t": 179142.6779999994,
      "d": 428.5709999999963,
      "v": 64
    },
    {
      "midi": 81,
      "hit": false,
      "t": 179142.6779999994,
      "d": 428.5709999999963,
      "v": 64
    },
    {
      "midi": 67,
      "hit": false,
      "t": 179571.2489999994,
      "d": 214.28549999999814,
      "v": 64
    },
    {
      "midi": 75,
      "hit": false,
      "t": 179571.2489999994,
      "d": 214.28549999999814,
      "v": 64
    },
    {
      "midi": 79,
      "hit": false,
      "t": 179571.2489999994,
      "d": 214.28549999999814,
      "v": 64
    },
    {
      "midi": 53,
      "hit": false,
      "t": 179571.2489999994,
      "d": 428.5709999999963,
      "v": 64
    },
    {
      "midi": 57,
      "hit": false,
      "t": 179571.2489999994,
      "d": 428.5709999999963,
      "v": 64
    },
    {
      "midi": 63,
      "hit": false,
      "t": 179571.2489999994,
      "d": 428.5709999999963,
      "v": 64
    },
    {
      "midi": 69,
      "hit": false,
      "t": 179785.5344999994,
      "d": 214.28549999999814,
      "v": 64
    },
    {
      "midi": 75,
      "hit": false,
      "t": 179785.5344999994,
      "d": 214.28549999999814,
      "v": 64
    },
    {
      "midi": 81,
      "hit": false,
      "t": 179785.5344999994,
      "d": 214.28549999999814,
      "v": 64
    },
    {
      "midi": 48,
      "hit": false,
      "t": 179999.8199999994,
      "d": 428.5709999999963,
      "v": 64
    },
    {
      "midi": 67,
      "hit": false,
      "t": 179999.8199999994,
      "d": 428.5709999999963,
      "v": 64
    },
    {
      "midi": 75,
      "hit": false,
      "t": 179999.8199999994,
      "d": 428.5709999999963,
      "v": 64
    },
    {
      "midi": 79,
      "hit": false,
      "t": 179999.8199999994,
      "d": 428.5709999999963,
      "v": 64
    },
    {
      "midi": 53,
      "hit": false,
      "t": 180428.3909999994,
      "d": 428.5709999999963,
      "v": 64
    },
    {
      "midi": 57,
      "hit": false,
      "t": 180428.3909999994,
      "d": 428.5709999999963,
      "v": 64
    },
    {
      "midi": 63,
      "hit": false,
      "t": 180428.3909999994,
      "d": 428.5709999999963,
      "v": 64
    },
    {
      "midi": 67,
      "hit": false,
      "t": 180428.3909999994,
      "d": 857.1419999999925,
      "v": 64
    },
    {
      "midi": 75,
      "hit": false,
      "t": 180428.3909999994,
      "d": 857.1419999999925,
      "v": 64
    },
    {
      "midi": 79,
      "hit": false,
      "t": 180428.3909999994,
      "d": 857.1419999999925,
      "v": 64
    },
    {
      "midi": 41,
      "hit": false,
      "t": 180856.9619999994,
      "d": 428.5709999999963,
      "v": 64
    },
    {
      "midi": 53,
      "hit": false,
      "t": 181285.53299999938,
      "d": 428.5709999999963,
      "v": 64
    },
    {
      "midi": 57,
      "hit": false,
      "t": 181285.53299999938,
      "d": 428.5709999999963,
      "v": 64
    },
    {
      "midi": 63,
      "hit": false,
      "t": 181285.53299999938,
      "d": 428.5709999999963,
      "v": 64
    },
    {
      "midi": 67,
      "hit": false,
      "t": 181714.10399999938,
      "d": 214.28549999999814,
      "v": 64
    },
    {
      "midi": 74,
      "hit": false,
      "t": 181714.10399999938,
      "d": 214.28549999999814,
      "v": 64
    },
    {
      "midi": 79,
      "hit": false,
      "t": 181714.10399999938,
      "d": 214.28549999999814,
      "v": 64
    },
    {
      "midi": 46,
      "hit": false,
      "t": 181714.10399999938,
      "d": 428.5709999999963,
      "v": 64
    },
    {
      "midi": 65,
      "hit": false,
      "t": 181928.38949999938,
      "d": 214.28549999999814,
      "v": 64
    },
    {
      "midi": 74,
      "hit": false,
      "t": 181928.38949999938,
      "d": 214.28549999999814,
      "v": 64
    },
    {
      "midi": 77,
      "hit": false,
      "t": 181928.38949999938,
      "d": 214.28549999999814,
      "v": 64
    },
    {
      "midi": 65,
      "hit": false,
      "t": 182142.67499999938,
      "d": 214.28549999999814,
      "v": 64
    },
    {
      "midi": 74,
      "hit": false,
      "t": 182142.67499999938,
      "d": 214.28549999999814,
      "v": 64
    },
    {
      "midi": 77,
      "hit": false,
      "t": 182142.67499999938,
      "d": 214.28549999999814,
      "v": 64
    },
    {
      "midi": 53,
      "hit": false,
      "t": 182142.67499999938,
      "d": 428.5709999999963,
      "v": 64
    },
    {
      "midi": 58,
      "hit": false,
      "t": 182142.67499999938,
      "d": 428.5709999999963,
      "v": 64
    },
    {
      "midi": 62,
      "hit": false,
      "t": 182142.67499999938,
      "d": 428.5709999999963,
      "v": 64
    },
    {
      "midi": 65,
      "hit": false,
      "t": 182356.96049999938,
      "d": 214.28549999999814,
      "v": 64
    },
    {
      "midi": 74,
      "hit": false,
      "t": 182356.96049999938,
      "d": 214.28549999999814,
      "v": 64
    },
    {
      "midi": 77,
      "hit": false,
      "t": 182356.96049999938,
      "d": 214.28549999999814,
      "v": 64
    },
    {
      "midi": 41,
      "hit": false,
      "t": 182571.24599999937,
      "d": 428.5709999999963,
      "v": 64
    },
    {
      "midi": 67,
      "hit": false,
      "t": 182571.24599999937,
      "d": 428.5709999999963,
      "v": 64
    },
    {
      "midi": 74,
      "hit": false,
      "t": 182571.24599999937,
      "d": 428.5709999999963,
      "v": 64
    },
    {
      "midi": 79,
      "hit": false,
      "t": 182571.24599999937,
      "d": 428.5709999999963,
      "v": 64
    },
    {
      "midi": 65,
      "hit": false,
      "t": 182999.81699999937,
      "d": 214.28549999999814,
      "v": 64
    },
    {
      "midi": 74,
      "hit": false,
      "t": 182999.81699999937,
      "d": 214.28549999999814,
      "v": 64
    },
    {
      "midi": 77,
      "hit": false,
      "t": 182999.81699999937,
      "d": 214.28549999999814,
      "v": 64
    },
    {
      "midi": 53,
      "hit": false,
      "t": 182999.81699999937,
      "d": 428.5709999999963,
      "v": 64
    },
    {
      "midi": 58,
      "hit": false,
      "t": 182999.81699999937,
      "d": 428.5709999999963,
      "v": 64
    },
    {
      "midi": 62,
      "hit": false,
      "t": 182999.81699999937,
      "d": 428.5709999999963,
      "v": 64
    },
    {
      "midi": 67,
      "hit": false,
      "t": 183214.10249999937,
      "d": 214.28549999999814,
      "v": 64
    },
    {
      "midi": 74,
      "hit": false,
      "t": 183214.10249999937,
      "d": 214.28549999999814,
      "v": 64
    },
    {
      "midi": 79,
      "hit": false,
      "t": 183214.10249999937,
      "d": 214.28549999999814,
      "v": 64
    },
    {
      "midi": 46,
      "hit": false,
      "t": 183428.38799999937,
      "d": 428.5709999999963,
      "v": 64
    },
    {
      "midi": 65,
      "hit": false,
      "t": 183428.38799999937,
      "d": 1285.7129999999888,
      "v": 64
    },
    {
      "midi": 74,
      "hit": false,
      "t": 183428.38799999937,
      "d": 1285.7129999999888,
      "v": 64
    },
    {
      "midi": 77,
      "hit": false,
      "t": 183428.38799999937,
      "d": 1285.7129999999888,
      "v": 64
    },
    {
      "midi": 53,
      "hit": false,
      "t": 183856.95899999936,
      "d": 428.5709999999963,
      "v": 64
    },
    {
      "midi": 58,
      "hit": false,
      "t": 183856.95899999936,
      "d": 428.5709999999963,
      "v": 64
    },
    {
      "midi": 62,
      "hit": false,
      "t": 183856.95899999936,
      "d": 428.5709999999963,
      "v": 64
    },
    {
      "midi": 41,
      "hit": false,
      "t": 184285.52999999936,
      "d": 428.5709999999963,
      "v": 64
    },
    {
      "midi": 53,
      "hit": false,
      "t": 184714.10099999935,
      "d": 428.5709999999963,
      "v": 64
    },
    {
      "midi": 58,
      "hit": false,
      "t": 184714.10099999935,
      "d": 428.5709999999963,
      "v": 64
    },
    {
      "midi": 62,
      "hit": false,
      "t": 184714.10099999935,
      "d": 428.5709999999963,
      "v": 64
    },
    {
      "midi": 52,
      "hit": false,
      "t": 185142.67199999935,
      "d": 428.5709999999963,
      "v": 64
    },
    {
      "midi": 70,
      "hit": false,
      "t": 185142.67199999935,
      "d": 428.5709999999963,
      "v": 64
    },
    {
      "midi": 82,
      "hit": false,
      "t": 185142.67199999935,
      "d": 428.5709999999963,
      "v": 64
    },
    {
      "midi": 70,
      "hit": false,
      "t": 185571.24299999935,
      "d": 214.28549999999814,
      "v": 64
    },
    {
      "midi": 82,
      "hit": false,
      "t": 185571.24299999935,
      "d": 214.28549999999814,
      "v": 64
    },
    {
      "midi": 55,
      "hit": false,
      "t": 185571.24299999935,
      "d": 428.5709999999963,
      "v": 64
    },
    {
      "midi": 60,
      "hit": false,
      "t": 185571.24299999935,
      "d": 428.5709999999963,
      "v": 64
    },
    {
      "midi": 67,
      "hit": false,
      "t": 185785.52849999935,
      "d": 214.28549999999814,
      "v": 64
    },
    {
      "midi": 79,
      "hit": false,
      "t": 185785.52849999935,
      "d": 214.28549999999814,
      "v": 64
    },
    {
      "midi": 70,
      "hit": false,
      "t": 185999.81399999934,
      "d": 214.28549999999814,
      "v": 64
    },
    {
      "midi": 82,
      "hit": false,
      "t": 185999.81399999934,
      "d": 214.28549999999814,
      "v": 64
    },
    {
      "midi": 52,
      "hit": false,
      "t": 185999.81399999934,
      "d": 428.5709999999963,
      "v": 64
    },
    {
      "midi": 67,
      "hit": false,
      "t": 186214.09949999934,
      "d": 214.28549999999814,
      "v": 64
    },
    {
      "midi": 79,
      "hit": false,
      "t": 186214.09949999934,
      "d": 214.28549999999814,
      "v": 64
    },
    {
      "midi": 67,
      "hit": false,
      "t": 186428.38499999934,
      "d": 214.28549999999814,
      "v": 64
    },
    {
      "midi": 79,
      "hit": false,
      "t": 186428.38499999934,
      "d": 214.28549999999814,
      "v": 64
    },
    {
      "midi": 55,
      "hit": false,
      "t": 186428.38499999934,
      "d": 428.5709999999963,
      "v": 64
    },
    {
      "midi": 60,
      "hit": false,
      "t": 186428.38499999934,
      "d": 428.5709999999963,
      "v": 64
    },
    {
      "midi": 70,
      "hit": false,
      "t": 186642.67049999934,
      "d": 214.28549999999814,
      "v": 64
    },
    {
      "midi": 82,
      "hit": false,
      "t": 186642.67049999934,
      "d": 214.28549999999814,
      "v": 64
    },
    {
      "midi": 41,
      "hit": false,
      "t": 186856.95599999934,
      "d": 428.5709999999963,
      "v": 64
    },
    {
      "midi": 74,
      "hit": false,
      "t": 186856.95599999934,
      "d": 428.5709999999963,
      "v": 64
    },
    {
      "midi": 77,
      "hit": false,
      "t": 186856.95599999934,
      "d": 428.5709999999963,
      "v": 64
    },
    {
      "midi": 86,
      "hit": false,
      "t": 186856.95599999934,
      "d": 428.5709999999963,
      "v": 64
    },
    {
      "midi": 53,
      "hit": false,
      "t": 187285.52699999933,
      "d": 428.5709999999963,
      "v": 64
    },
    {
      "midi": 58,
      "hit": false,
      "t": 187285.52699999933,
      "d": 428.5709999999963,
      "v": 64
    },
    {
      "midi": 62,
      "hit": false,
      "t": 187285.52699999933,
      "d": 428.5709999999963,
      "v": 64
    },
    {
      "midi": 74,
      "hit": false,
      "t": 187285.52699999933,
      "d": 857.1419999999925,
      "v": 64
    },
    {
      "midi": 77,
      "hit": false,
      "t": 187285.52699999933,
      "d": 857.1419999999925,
      "v": 64
    },
    {
      "midi": 86,
      "hit": false,
      "t": 187285.52699999933,
      "d": 857.1419999999925,
      "v": 64
    },
    {
      "midi": 53,
      "hit": false,
      "t": 187714.09799999933,
      "d": 428.5709999999963,
      "v": 64
    },
    {
      "midi": 58,
      "hit": false,
      "t": 187714.09799999933,
      "d": 428.5709999999963,
      "v": 64
    },
    {
      "midi": 62,
      "hit": false,
      "t": 187714.09799999933,
      "d": 428.5709999999963,
      "v": 64
    },
    {
      "midi": 41,
      "hit": false,
      "t": 188142.66899999933,
      "d": 428.5709999999963,
      "v": 64
    },
    {
      "midi": 53,
      "hit": false,
      "t": 188142.66899999933,
      "d": 428.5709999999963,
      "v": 64
    },
    {
      "midi": 74,
      "hit": false,
      "t": 188571.23999999932,
      "d": 214.28549999999814,
      "v": 64
    },
    {
      "midi": 86,
      "hit": false,
      "t": 188571.23999999932,
      "d": 214.28549999999814,
      "v": 64
    },
    {
      "midi": 48,
      "hit": false,
      "t": 188571.23999999932,
      "d": 428.5709999999963,
      "v": 64
    },
    {
      "midi": 74,
      "hit": false,
      "t": 188785.52549999932,
      "d": 214.28549999999814,
      "v": 64
    },
    {
      "midi": 86,
      "hit": false,
      "t": 188785.52549999932,
      "d": 214.28549999999814,
      "v": 64
    },
    {
      "midi": 72,
      "hit": false,
      "t": 188999.81099999932,
      "d": 214.28549999999814,
      "v": 64
    },
    {
      "midi": 84,
      "hit": false,
      "t": 188999.81099999932,
      "d": 214.28549999999814,
      "v": 64
    },
    {
      "midi": 53,
      "hit": false,
      "t": 188999.81099999932,
      "d": 428.5709999999963,
      "v": 64
    },
    {
      "midi": 57,
      "hit": false,
      "t": 188999.81099999932,
      "d": 428.5709999999963,
      "v": 64
    },
    {
      "midi": 63,
      "hit": false,
      "t": 188999.81099999932,
      "d": 428.5709999999963,
      "v": 64
    },
    {
      "midi": 69,
      "hit": false,
      "t": 189214.09649999932,
      "d": 214.28549999999814,
      "v": 64
    },
    {
      "midi": 81,
      "hit": false,
      "t": 189214.09649999932,
      "d": 214.28549999999814,
      "v": 64
    },
    {
      "midi": 41,
      "hit": false,
      "t": 189428.3819999993,
      "d": 428.5709999999963,
      "v": 64
    },
    {
      "midi": 65,
      "hit": false,
      "t": 189428.3819999993,
      "d": 428.5709999999963,
      "v": 64
    },
    {
      "midi": 77,
      "hit": false,
      "t": 189428.3819999993,
      "d": 428.5709999999963,
      "v": 64
    },
    {
      "midi": 72,
      "hit": false,
      "t": 189856.9529999993,
      "d": 214.28549999999814,
      "v": 64
    },
    {
      "midi": 84,
      "hit": false,
      "t": 189856.9529999993,
      "d": 214.28549999999814,
      "v": 64
    },
    {
      "midi": 53,
      "hit": false,
      "t": 189856.9529999993,
      "d": 428.5709999999963,
      "v": 64
    },
    {
      "midi": 57,
      "hit": false,
      "t": 189856.9529999993,
      "d": 428.5709999999963,
      "v": 64
    },
    {
      "midi": 63,
      "hit": false,
      "t": 189856.9529999993,
      "d": 428.5709999999963,
      "v": 64
    },
    {
      "midi": 74,
      "hit": false,
      "t": 190071.2384999993,
      "d": 214.28549999999814,
      "v": 64
    },
    {
      "midi": 86,
      "hit": false,
      "t": 190071.2384999993,
      "d": 214.28549999999814,
      "v": 64
    },
    {
      "midi": 46,
      "hit": false,
      "t": 190285.5239999993,
      "d": 428.5709999999963,
      "v": 64
    },
    {
      "midi": 58,
      "hit": false,
      "t": 190285.5239999993,
      "d": 428.5709999999963,
      "v": 64
    },
    {
      "midi": 70,
      "hit": false,
      "t": 190285.5239999993,
      "d": 1285.7129999999888,
      "v": 64
    },
    {
      "midi": 74,
      "hit": false,
      "t": 190285.5239999993,
      "d": 1285.7129999999888,
      "v": 64
    },
    {
      "midi": 82,
      "hit": false,
      "t": 190285.5239999993,
      "d": 1285.7129999999888,
      "v": 64
    },
    {
      "midi": 41,
      "hit": false,
      "t": 190714.0949999993,
      "d": 428.5709999999963,
      "v": 64
    },
    {
      "midi": 53,
      "hit": false,
      "t": 190714.0949999993,
      "d": 428.5709999999963,
      "v": 64
    },
    {
      "midi": 34,
      "hit": false,
      "t": 191142.6659999993,
      "d": 428.5709999999963,
      "v": 64
    },
    {
      "midi": 46,
      "hit": false,
      "t": 191142.6659999993,
      "d": 428.5709999999963,
      "v": 64
    }
  ]
}