{
  "jsonPath": "Jazz/Jazz Blues/Billie Holiday/a-fine-romance-take-2.json",
  "path": "Jazz\\Jazz Blues\\Billie Holiday\\A Fine Romance  take 2.mid",
  "name": "A Fine Romance  take 2",
  "difficulty": "Advanced",
  "bpm": 120,
  "notes": [
    {
      "midi": 70,
      "hit": false,
      "t": 16.666666666666668,
      "d": 1512.5,
      "v": 59
    },
    {
      "midi": 65,
      "hit": false,
      "t": 29.166666666666668,
      "d": 266.6666666666667,
      "v": 34
    },
    {
      "midi": 62,
      "hit": false,
      "t": 33.333333333333336,
      "d": 687.5,
      "v": 28
    },
    {
      "midi": 60,
      "hit": false,
      "t": 41.66666666666667,
      "d": 687.5000000000001,
      "v": 36
    },
    {
      "midi": 62,
      "hit": false,
      "t": 945.8333333333334,
      "d": 204.16666666666663,
      "v": 26
    },
    {
      "midi": 65,
      "hit": false,
      "t": 950,
      "d": 529.1666666666667,
      "v": 30
    },
    {
      "midi": 60,
      "hit": false,
      "t": 962.5,
      "d": 216.66666666666674,
      "v": 24
    },
    {
      "midi": 53,
      "hit": false,
      "t": 1466.6666666666667,
      "d": 95.83333333333326,
      "v": 40
    },
    {
      "midi": 68,
      "hit": false,
      "t": 1908.3333333333333,
      "d": 916.6666666666663,
      "v": 35
    },
    {
      "midi": 71,
      "hit": false,
      "t": 1950,
      "d": 833.333333333333,
      "v": 70
    },
    {
      "midi": 74,
      "hit": false,
      "t": 1975,
      "d": 804.1666666666665,
      "v": 53
    },
    {
      "midi": 67,
      "hit": false,
      "t": 1987.5,
      "d": 229.16666666666652,
      "v": 49
    },
    {
      "midi": 79,
      "hit": false,
      "t": 2012.5,
      "d": 691.6666666666665,
      "v": 68
    },
    {
      "midi": 53,
      "hit": false,
      "t": 2487.5,
      "d": 125,
      "v": 29
    },
    {
      "midi": 77,
      "hit": false,
      "t": 2987.4999999999995,
      "d": 208.33333333333348,
      "v": 36
    },
    {
      "midi": 68,
      "hit": false,
      "t": 2995.833333333333,
      "d": 287.5,
      "v": 27
    },
    {
      "midi": 71,
      "hit": false,
      "t": 2995.833333333333,
      "d": 383.3333333333335,
      "v": 37
    },
    {
      "midi": 74,
      "hit": false,
      "t": 3004.1666666666665,
      "d": 341.6666666666665,
      "v": 32
    },
    {
      "midi": 67,
      "hit": false,
      "t": 3016.6666666666665,
      "d": 79.16666666666652,
      "v": 22
    },
    {
      "midi": 53,
      "hit": false,
      "t": 3500,
      "d": 729.166666666667,
      "v": 22
    },
    {
      "midi": 79,
      "hit": false,
      "t": 3808.3333333333335,
      "d": 58.333333333333485,
      "v": 65
    },
    {
      "midi": 63,
      "hit": false,
      "t": 4029.166666666667,
      "d": 662.4999999999982,
      "v": 25
    },
    {
      "midi": 69,
      "hit": false,
      "t": 4033.3333333333335,
      "d": 191.66666666666652,
      "v": 36
    },
    {
      "midi": 57,
      "hit": false,
      "t": 4041.666666666667,
      "d": 479.16666666666606,
      "v": 28
    },
    {
      "midi": 74,
      "hit": false,
      "t": 4500,
      "d": 91.66666666666606,
      "v": 82
    },
    {
      "midi": 81,
      "hit": false,
      "t": 4504.166666666667,
      "d": 74.99999999999909,
      "v": 77
    },
    {
      "midi": 53,
      "hit": false,
      "t": 4512.5,
      "d": 708.333333333333,
      "v": 34
    },
    {
      "midi": 69,
      "hit": false,
      "t": 4624.999999999999,
      "d": 25,
      "v": 54
    },
    {
      "midi": 78,
      "hit": false,
      "t": 4633.333333333332,
      "d": 50,
      "v": 37
    },
    {
      "midi": 93,
      "hit": false,
      "t": 4791.666666666665,
      "d": 137.5,
      "v": 79
    },
    {
      "midi": 86,
      "hit": false,
      "t": 4795.833333333332,
      "d": 100,
      "v": 72
    },
    {
      "midi": 90,
      "hit": false,
      "t": 4929.166666666665,
      "d": 45.83333333333394,
      "v": 52
    },
    {
      "midi": 81,
      "hit": false,
      "t": 4933.333333333332,
      "d": 41.66666666666697,
      "v": 51
    },
    {
      "midi": 63,
      "hit": false,
      "t": 5049.999999999999,
      "d": 520.8333333333339,
      "v": 36
    },
    {
      "midi": 57,
      "hit": false,
      "t": 5104.166666666666,
      "d": 437.5,
      "v": 24
    },
    {
      "midi": 53,
      "hit": false,
      "t": 5566.666666666666,
      "d": 720.8333333333339,
      "v": 34
    },
    {
      "midi": 58,
      "hit": false,
      "t": 5962.5,
      "d": 720.8333333333339,
      "v": 37
    },
    {
      "midi": 61,
      "hit": false,
      "t": 6012.5,
      "d": 737.5000000000009,
      "v": 28
    },
    {
      "midi": 70,
      "hit": false,
      "t": 6025,
      "d": 562.5,
      "v": 48
    },
    {
      "midi": 64,
      "hit": false,
      "t": 6054.166666666667,
      "d": 575,
      "v": 37
    },
    {
      "midi": 76,
      "hit": false,
      "t": 6066.666666666667,
      "d": 587.5,
      "v": 50
    },
    {
      "midi": 73,
      "hit": false,
      "t": 6066.666666666667,
      "d": 700.0000000000009,
      "v": 31
    },
    {
      "midi": 81,
      "hit": false,
      "t": 6100,
      "d": 441.66666666666697,
      "v": 51
    },
    {
      "midi": 53,
      "hit": false,
      "t": 6516.666666666667,
      "d": 1062.5000000000045,
      "v": 24
    },
    {
      "midi": 58,
      "hit": false,
      "t": 6979.166666666668,
      "d": 95.83333333333394,
      "v": 28
    },
    {
      "midi": 64,
      "hit": false,
      "t": 6987.500000000001,
      "d": 50.00000000000091,
      "v": 26
    },
    {
      "midi": 61,
      "hit": false,
      "t": 6991.666666666668,
      "d": 58.33333333333394,
      "v": 19
    },
    {
      "midi": 67,
      "hit": false,
      "t": 6995.833333333335,
      "d": 33.33333333333394,
      "v": 30
    },
    {
      "midi": 73,
      "hit": false,
      "t": 6995.833333333335,
      "d": 45.83333333333394,
      "v": 35
    },
    {
      "midi": 79,
      "hit": false,
      "t": 7000.000000000002,
      "d": 41.66666666666697,
      "v": 33
    },
    {
      "midi": 76,
      "hit": false,
      "t": 7004.166666666669,
      "d": 37.5,
      "v": 30
    },
    {
      "midi": 79,
      "hit": false,
      "t": 7320.833333333336,
      "d": 62.50000000000091,
      "v": 45
    },
    {
      "midi": 67,
      "hit": false,
      "t": 7325.000000000003,
      "d": 41.66666666666697,
      "v": 32
    },
    {
      "midi": 73,
      "hit": false,
      "t": 7325.000000000003,
      "d": 58.33333333333394,
      "v": 33
    },
    {
      "midi": 73,
      "hit": false,
      "t": 7475.000000000004,
      "d": 54.16666666666788,
      "v": 51
    },
    {
      "midi": 69,
      "hit": false,
      "t": 7479.166666666671,
      "d": 33.33333333333394,
      "v": 58
    },
    {
      "midi": 61,
      "hit": false,
      "t": 7479.166666666671,
      "d": 487.5000000000009,
      "v": 42
    },
    {
      "midi": 58,
      "hit": false,
      "t": 7479.166666666671,
      "d": 491.6666666666679,
      "v": 34
    },
    {
      "midi": 76,
      "hit": false,
      "t": 7483.333333333338,
      "d": 41.66666666666697,
      "v": 37
    },
    {
      "midi": 64,
      "hit": false,
      "t": 7487.500000000005,
      "d": 362.5,
      "v": 32
    },
    {
      "midi": 81,
      "hit": false,
      "t": 7491.6666666666715,
      "d": 45.83333333333303,
      "v": 41
    },
    {
      "midi": 79,
      "hit": false,
      "t": 7504.1666666666715,
      "d": 25,
      "v": 31
    },
    {
      "midi": 53,
      "hit": false,
      "t": 7812.500000000005,
      "d": 520.8333333333348,
      "v": 34
    },
    {
      "midi": 69,
      "hit": false,
      "t": 7975.0000000000055,
      "d": 395.83333333333394,
      "v": 55
    },
    {
      "midi": 65,
      "hit": false,
      "t": 7975.0000000000055,
      "d": 400,
      "v": 55
    },
    {
      "midi": 74,
      "hit": false,
      "t": 7979.166666666672,
      "d": 1991.666666666667,
      "v": 58
    },
    {
      "midi": 62,
      "hit": false,
      "t": 8000.0000000000055,
      "d": 570.8333333333321,
      "v": 33
    },
    {
      "midi": 53,
      "hit": false,
      "t": 8516.666666666672,
      "d": 54.16666666666606,
      "v": 40
    },
    {
      "midi": 65,
      "hit": false,
      "t": 8533.333333333338,
      "d": 983.3333333333339,
      "v": 24
    },
    {
      "midi": 69,
      "hit": false,
      "t": 8533.333333333338,
      "d": 1104.1666666666679,
      "v": 31
    },
    {
      "midi": 53,
      "hit": false,
      "t": 8875.000000000005,
      "d": 29.16666666666606,
      "v": 38
    },
    {
      "midi": 41,
      "hit": false,
      "t": 9087.500000000005,
      "d": 37.5,
      "v": 55
    },
    {
      "midi": 29,
      "hit": false,
      "t": 9404.166666666672,
      "d": 170.83333333333394,
      "v": 42
    },
    {
      "midi": 65,
      "hit": false,
      "t": 9920.83333333334,
      "d": 33.33333333333394,
      "v": 24
    },
    {
      "midi": 65,
      "hit": false,
      "t": 10066.666666666673,
      "d": 329.16666666666606,
      "v": 44
    },
    {
      "midi": 62,
      "hit": false,
      "t": 10066.666666666673,
      "d": 350,
      "v": 34
    },
    {
      "midi": 58,
      "hit": false,
      "t": 10066.666666666673,
      "d": 395.83333333333394,
      "v": 33
    },
    {
      "midi": 69,
      "hit": false,
      "t": 10070.83333333334,
      "d": 354.1666666666679,
      "v": 56
    },
    {
      "midi": 60,
      "hit": false,
      "t": 10079.166666666673,
      "d": 354.1666666666679,
      "v": 34
    },
    {
      "midi": 72,
      "hit": false,
      "t": 10079.166666666673,
      "d": 1654.166666666666,
      "v": 47
    },
    {
      "midi": 70,
      "hit": false,
      "t": 10558.333333333341,
      "d": 1170.8333333333321,
      "v": 44
    },
    {
      "midi": 65,
      "hit": false,
      "t": 10566.666666666675,
      "d": 1133.3333333333321,
      "v": 27
    },
    {
      "midi": 41,
      "hit": false,
      "t": 11345.833333333341,
      "d": 129.16666666666606,
      "v": 44
    },
    {
      "midi": 29,
      "hit": false,
      "t": 11512.500000000007,
      "d": 29.16666666666606,
      "v": 34
    },
    {
      "midi": 75,
      "hit": false,
      "t": 11979.166666666673,
      "d": 1575,
      "v": 48
    },
    {
      "midi": 77,
      "hit": false,
      "t": 11983.33333333334,
      "d": 1570.833333333334,
      "v": 64
    },
    {
      "midi": 70,
      "hit": false,
      "t": 11987.500000000005,
      "d": 804.1666666666679,
      "v": 61
    },
    {
      "midi": 67,
      "hit": false,
      "t": 11995.83333333334,
      "d": 770.8333333333339,
      "v": 49
    },
    {
      "midi": 63,
      "hit": false,
      "t": 12000.000000000005,
      "d": 420.83333333333394,
      "v": 42
    },
    {
      "midi": 53,
      "hit": false,
      "t": 12491.666666666673,
      "d": 616.6666666666661,
      "v": 33
    },
    {
      "midi": 70,
      "hit": false,
      "t": 12979.166666666673,
      "d": 525,
      "v": 30
    },
    {
      "midi": 63,
      "hit": false,
      "t": 12983.33333333334,
      "d": 375,
      "v": 31
    },
    {
      "midi": 67,
      "hit": false,
      "t": 12983.33333333334,
      "d": 495.83333333333394,
      "v": 24
    },
    {
      "midi": 53,
      "hit": false,
      "t": 13537.500000000007,
      "d": 891.6666666666642,
      "v": 36
    },
    {
      "midi": 63,
      "hit": false,
      "t": 13925.000000000007,
      "d": 458.3333333333321,
      "v": 31
    },
    {
      "midi": 74,
      "hit": false,
      "t": 13962.500000000007,
      "d": 774.9999999999982,
      "v": 56
    },
    {
      "midi": 78,
      "hit": false,
      "t": 14004.166666666673,
      "d": 862.4999999999982,
      "v": 64
    },
    {
      "midi": 67,
      "hit": false,
      "t": 14020.83333333334,
      "d": 366.66666666666606,
      "v": 31
    },
    {
      "midi": 81,
      "hit": false,
      "t": 14029.166666666673,
      "d": 820.8333333333321,
      "v": 60
    },
    {
      "midi": 86,
      "hit": false,
      "t": 14083.33333333334,
      "d": 625,
      "v": 67
    },
    {
      "midi": 53,
      "hit": false,
      "t": 14525.000000000005,
      "d": 812.4999999999982,
      "v": 28
    },
    {
      "midi": 63,
      "hit": false,
      "t": 15004.166666666672,
      "d": 266.66666666666606,
      "v": 25
    },
    {
      "midi": 84,
      "hit": false,
      "t": 15004.166666666672,
      "d": 266.66666666666606,
      "v": 53
    },
    {
      "midi": 67,
      "hit": false,
      "t": 15020.833333333338,
      "d": 229.16666666666606,
      "v": 32
    },
    {
      "midi": 72,
      "hit": false,
      "t": 15025.000000000004,
      "d": 325,
      "v": 30
    },
    {
      "midi": 53,
      "hit": false,
      "t": 15516.66666666667,
      "d": 70.83333333333394,
      "v": 31
    },
    {
      "midi": 65,
      "hit": false,
      "t": 15820.833333333338,
      "d": 83.33333333333394,
      "v": 46
    },
    {
      "midi": 70,
      "hit": false,
      "t": 15979.166666666672,
      "d": 320.83333333333394,
      "v": 60
    },
    {
      "midi": 62,
      "hit": false,
      "t": 16000.000000000005,
      "d": 554.1666666666624,
      "v": 20
    },
    {
      "midi": 60,
      "hit": false,
      "t": 16004.166666666672,
      "d": 520.8333333333321,
      "v": 22
    },
    {
      "midi": 65,
      "hit": false,
      "t": 16054.166666666672,
      "d": 87.5,
      "v": 1
    },
    {
      "midi": 69,
      "hit": false,
      "t": 16320.83333333334,
      "d": 87.5,
      "v": 54
    },
    {
      "midi": 53,
      "hit": false,
      "t": 16491.66666666667,
      "d": 41.66666666666424,
      "v": 34
    },
    {
      "midi": 70,
      "hit": false,
      "t": 16504.16666666667,
      "d": 83.33333333332848,
      "v": 44
    },
    {
      "midi": 69,
      "hit": false,
      "t": 16816.666666666668,
      "d": 75,
      "v": 49
    },
    {
      "midi": 65,
      "hit": false,
      "t": 16995.833333333336,
      "d": 112.50000000000364,
      "v": 26
    },
    {
      "midi": 70,
      "hit": false,
      "t": 17000.000000000004,
      "d": 208.33333333333576,
      "v": 39
    },
    {
      "midi": 62,
      "hit": false,
      "t": 17004.16666666667,
      "d": 525,
      "v": 28
    },
    {
      "midi": 60,
      "hit": false,
      "t": 17020.83333333334,
      "d": 512.5,
      "v": 29
    },
    {
      "midi": 72,
      "hit": false,
      "t": 17341.66666666667,
      "d": 75,
      "v": 52
    },
    {
      "midi": 53,
      "hit": false,
      "t": 17504.16666666667,
      "d": 95.83333333333576,
      "v": 35
    },
    {
      "midi": 70,
      "hit": false,
      "t": 18008.33333333334,
      "d": 258.33333333333576,
      "v": 63
    },
    {
      "midi": 58,
      "hit": false,
      "t": 18008.33333333334,
      "d": 291.6666666666679,
      "v": 47
    },
    {
      "midi": 65,
      "hit": false,
      "t": 18012.500000000007,
      "d": 283.3333333333321,
      "v": 48
    },
    {
      "midi": 63,
      "hit": false,
      "t": 18012.500000000007,
      "d": 308.3333333333321,
      "v": 53
    },
    {
      "midi": 60,
      "hit": false,
      "t": 18016.666666666675,
      "d": 258.3333333333321,
      "v": 53
    },
    {
      "midi": 69,
      "hit": false,
      "t": 18350.000000000007,
      "d": 41.66666666666788,
      "v": 48
    },
    {
      "midi": 57,
      "hit": false,
      "t": 18354.166666666675,
      "d": 137.49999999999636,
      "v": 36
    },
    {
      "midi": 60,
      "hit": false,
      "t": 18358.333333333343,
      "d": 41.66666666666424,
      "v": 30
    },
    {
      "midi": 62,
      "hit": false,
      "t": 18358.333333333343,
      "d": 62.49999999999636,
      "v": 44
    },
    {
      "midi": 65,
      "hit": false,
      "t": 18366.666666666675,
      "d": 83.33333333333212,
      "v": 28
    },
    {
      "midi": 68,
      "hit": false,
      "t": 18537.500000000004,
      "d": 66.66666666666424,
      "v": 40
    },
    {
      "midi": 62,
      "hit": false,
      "t": 18545.833333333336,
      "d": 87.5,
      "v": 35
    },
    {
      "midi": 56,
      "hit": false,
      "t": 18558.333333333336,
      "d": 25,
      "v": 25
    },
    {
      "midi": 44,
      "hit": false,
      "t": 18858.333333333336,
      "d": 108.33333333333212,
      "v": 31
    },
    {
      "midi": 67,
      "hit": false,
      "t": 19012.5,
      "d": 254.16666666667152,
      "v": 27
    },
    {
      "midi": 59,
      "hit": false,
      "t": 19012.5,
      "d": 283.3333333333394,
      "v": 34
    },
    {
      "midi": 64,
      "hit": false,
      "t": 19020.833333333332,
      "d": 204.16666666667152,
      "v": 26
    },
    {
      "midi": 62,
      "hit": false,
      "t": 19020.833333333332,
      "d": 233.3333333333394,
      "v": 30
    },
    {
      "midi": 53,
      "hit": false,
      "t": 19025,
      "d": 270.8333333333394,
      "v": 29
    },
    {
      "midi": 43,
      "hit": false,
      "t": 19037.5,
      "d": 566.6666666666679,
      "v": 24
    },
    {
      "midi": 65,
      "hit": false,
      "t": 19195.833333333336,
      "d": 129.16666666667152,
      "v": 8
    },
    {
      "midi": 66,
      "hit": false,
      "t": 19508.33333333334,
      "d": 279.16666666666424,
      "v": 37
    },
    {
      "midi": 63,
      "hit": false,
      "t": 19508.33333333334,
      "d": 304.16666666666424,
      "v": 35
    },
    {
      "midi": 53,
      "hit": false,
      "t": 19516.66666666667,
      "d": 54.16666666666424,
      "v": 37
    },
    {
      "midi": 57,
      "hit": false,
      "t": 19516.66666666667,
      "d": 295.8333333333321,
      "v": 33
    },
    {
      "midi": 60,
      "hit": false,
      "t": 19525.000000000004,
      "d": 258.3333333333321,
      "v": 48
    },
    {
      "midi": 47,
      "hit": false,
      "t": 19862.500000000004,
      "d": 100,
      "v": 27
    },
    {
      "midi": 63,
      "hit": false,
      "t": 20012.500000000004,
      "d": 754.1666666666715,
      "v": 30
    },
    {
      "midi": 58,
      "hit": false,
      "t": 20020.833333333336,
      "d": 670.8333333333394,
      "v": 36
    },
    {
      "midi": 65,
      "hit": false,
      "t": 20020.833333333336,
      "d": 733.3333333333394,
      "v": 43
    },
    {
      "midi": 55,
      "hit": false,
      "t": 20033.333333333336,
      "d": 604.1666666666715,
      "v": 36
    },
    {
      "midi": 24,
      "hit": false,
      "t": 20337.500000000004,
      "d": 295.83333333333576,
      "v": 53
    },
    {
      "midi": 80,
      "hit": false,
      "t": 21545.833333333343,
      "d": 295.83333333333576,
      "v": 70
    },
    {
      "midi": 72,
      "hit": false,
      "t": 21550.00000000001,
      "d": 241.66666666666788,
      "v": 71
    },
    {
      "midi": 68,
      "hit": false,
      "t": 21550.00000000001,
      "d": 295.83333333333576,
      "v": 73
    },
    {
      "midi": 75,
      "hit": false,
      "t": 21550.00000000001,
      "d": 308.33333333333576,
      "v": 70
    },
    {
      "midi": 64,
      "hit": false,
      "t": 21562.50000000001,
      "d": 308.33333333333576,
      "v": 75
    },
    {
      "midi": 58,
      "hit": false,
      "t": 21566.66666666668,
      "d": 366.6666666666679,
      "v": 68
    },
    {
      "midi": 57,
      "hit": false,
      "t": 22041.66666666668,
      "d": 525,
      "v": 53
    },
    {
      "midi": 63,
      "hit": false,
      "t": 22045.833333333347,
      "d": 237.5,
      "v": 36
    },
    {
      "midi": 77,
      "hit": false,
      "t": 22045.833333333347,
      "d": 250,
      "v": 61
    },
    {
      "midi": 69,
      "hit": false,
      "t": 22045.833333333347,
      "d": 279.1666666666679,
      "v": 44
    },
    {
      "midi": 74,
      "hit": false,
      "t": 22054.16666666668,
      "d": 229.16666666666788,
      "v": 43
    },
    {
      "midi": 53,
      "hit": false,
      "t": 22533.333333333347,
      "d": 100,
      "v": 49
    },
    {
      "midi": 61,
      "hit": false,
      "t": 23016.66666666668,
      "d": 258.3333333333321,
      "v": 39
    },
    {
      "midi": 68,
      "hit": false,
      "t": 23016.66666666668,
      "d": 262.5,
      "v": 37
    },
    {
      "midi": 51,
      "hit": false,
      "t": 23016.66666666668,
      "d": 266.6666666666679,
      "v": 35
    },
    {
      "midi": 57,
      "hit": false,
      "t": 23025.00000000001,
      "d": 208.33333333333576,
      "v": 24
    },
    {
      "midi": 65,
      "hit": false,
      "t": 23025.00000000001,
      "d": 229.16666666666788,
      "v": 44
    },
    {
      "midi": 47,
      "hit": false,
      "t": 23033.333333333347,
      "d": 245.83333333333212,
      "v": 30
    },
    {
      "midi": 60,
      "hit": false,
      "t": 23525.000000000015,
      "d": 325,
      "v": 55
    },
    {
      "midi": 54,
      "hit": false,
      "t": 23533.333333333347,
      "d": 320.83333333333576,
      "v": 40
    },
    {
      "midi": 50,
      "hit": false,
      "t": 23537.500000000015,
      "d": 283.3333333333321,
      "v": 44
    },
    {
      "midi": 43,
      "hit": false,
      "t": 24029.166666666682,
      "d": 137.5,
      "v": 43
    },
    {
      "midi": 58,
      "hit": false,
      "t": 24033.33333333335,
      "d": 262.49999999999636,
      "v": 36
    },
    {
      "midi": 53,
      "hit": false,
      "t": 24041.666666666682,
      "d": 170.83333333333212,
      "v": 30
    },
    {
      "midi": 43,
      "hit": false,
      "t": 24487.500000000015,
      "d": 45.83333333333212,
      "v": 36
    },
    {
      "midi": 55,
      "hit": false,
      "t": 24520.833333333347,
      "d": 70.83333333333212,
      "v": 24
    },
    {
      "midi": 62,
      "hit": false,
      "t": 25008.333333333347,
      "d": 295.8333333333321,
      "v": 39
    },
    {
      "midi": 67,
      "hit": false,
      "t": 25016.66666666668,
      "d": 120.83333333333212,
      "v": 53
    },
    {
      "midi": 58,
      "hit": false,
      "t": 25025.00000000001,
      "d": 891.6666666666679,
      "v": 30
    },
    {
      "midi": 54,
      "hit": false,
      "t": 25033.333333333343,
      "d": 858.3333333333358,
      "v": 26
    },
    {
      "midi": 66,
      "hit": false,
      "t": 25158.333333333343,
      "d": 79.16666666666788,
      "v": 33
    },
    {
      "midi": 67,
      "hit": false,
      "t": 25287.50000000001,
      "d": 120.83333333333576,
      "v": 42
    },
    {
      "midi": 66,
      "hit": false,
      "t": 25420.833333333347,
      "d": 62.5,
      "v": 45
    },
    {
      "midi": 62,
      "hit": false,
      "t": 25529.16666666668,
      "d": 333.3333333333321,
      "v": 31
    },
    {
      "midi": 67,
      "hit": false,
      "t": 25537.50000000001,
      "d": 129.16666666666788,
      "v": 42
    },
    {
      "midi": 68,
      "hit": false,
      "t": 25704.16666666668,
      "d": 270.8333333333321,
      "v": 56
    },
    {
      "midi": 53,
      "hit": false,
      "t": 26008.333333333343,
      "d": 458.33333333333576,
      "v": 35
    },
    {
      "midi": 67,
      "hit": false,
      "t": 26012.50000000001,
      "d": 279.1666666666679,
      "v": 50
    },
    {
      "midi": 62,
      "hit": false,
      "t": 26016.66666666668,
      "d": 329.1666666666679,
      "v": 27
    },
    {
      "midi": 58,
      "hit": false,
      "t": 26016.66666666668,
      "d": 391.6666666666679,
      "v": 28
    },
    {
      "midi": 66,
      "hit": false,
      "t": 26366.66666666668,
      "d": 108.33333333333212,
      "v": 50
    },
    {
      "midi": 53,
      "hit": false,
      "t": 26525.00000000001,
      "d": 91.66666666666788,
      "v": 16
    },
    {
      "midi": 62,
      "hit": false,
      "t": 26533.333333333343,
      "d": 33.33333333333576,
      "v": 30
    },
    {
      "midi": 65,
      "hit": false,
      "t": 26533.333333333343,
      "d": 200.00000000000364,
      "v": 48
    },
    {
      "midi": 58,
      "hit": false,
      "t": 26537.50000000001,
      "d": 70.83333333333576,
      "v": 34
    },
    {
      "midi": 64,
      "hit": false,
      "t": 27004.166666666682,
      "d": 241.66666666667152,
      "v": 34
    },
    {
      "midi": 56,
      "hit": false,
      "t": 27008.33333333335,
      "d": 325.00000000000364,
      "v": 29
    },
    {
      "midi": 53,
      "hit": false,
      "t": 27020.83333333335,
      "d": 275.00000000000364,
      "v": 36
    },
    {
      "midi": 59,
      "hit": false,
      "t": 27020.83333333335,
      "d": 304.1666666666715,
      "v": 38
    },
    {
      "midi": 50,
      "hit": false,
      "t": 27025.00000000002,
      "d": 95.83333333333576,
      "v": 34
    },
    {
      "midi": 43,
      "hit": false,
      "t": 27029.166666666686,
      "d": 362.5,
      "v": 25
    },
    {
      "midi": 63,
      "hit": false,
      "t": 27520.83333333335,
      "d": 183.33333333333212,
      "v": 33
    },
    {
      "midi": 47,
      "hit": false,
      "t": 27529.166666666682,
      "d": 29.16666666666788,
      "v": 34
    },
    {
      "midi": 59,
      "hit": false,
      "t": 27529.166666666682,
      "d": 166.66666666666788,
      "v": 37
    },
    {
      "midi": 53,
      "hit": false,
      "t": 27529.166666666682,
      "d": 179.16666666666788,
      "v": 27
    },
    {
      "midi": 56,
      "hit": false,
      "t": 27533.33333333335,
      "d": 212.5,
      "v": 34
    },
    {
      "midi": 62,
      "hit": false,
      "t": 28008.33333333335,
      "d": 183.33333333333576,
      "v": 31
    },
    {
      "midi": 54,
      "hit": false,
      "t": 28016.666666666682,
      "d": 133.33333333333576,
      "v": 34
    },
    {
      "midi": 24,
      "hit": false,
      "t": 28020.83333333335,
      "d": 87.5,
      "v": 37
    },
    {
      "midi": 50,
      "hit": false,
      "t": 28025.00000000002,
      "d": 70.83333333333212,
      "v": 30
    },
    {
      "midi": 57,
      "hit": false,
      "t": 28025.00000000002,
      "d": 87.5,
      "v": 33
    },
    {
      "midi": 36,
      "hit": false,
      "t": 28025.00000000002,
      "d": 129.16666666666788,
      "v": 26
    },
    {
      "midi": 74,
      "hit": false,
      "t": 28508.333333333354,
      "d": 470.8333333333285,
      "v": 78
    },
    {
      "midi": 66,
      "hit": false,
      "t": 28516.666666666686,
      "d": 383.3333333333321,
      "v": 71
    },
    {
      "midi": 69,
      "hit": false,
      "t": 28516.666666666686,
      "d": 441.66666666666424,
      "v": 74
    },
    {
      "midi": 62,
      "hit": false,
      "t": 28520.833333333354,
      "d": 295.8333333333321,
      "v": 71
    },
    {
      "midi": 58,
      "hit": false,
      "t": 28529.166666666686,
      "d": 854.1666666666606,
      "v": 75
    },
    {
      "midi": 64,
      "hit": false,
      "t": 29041.666666666682,
      "d": 245.83333333333212,
      "v": 40
    },
    {
      "midi": 74,
      "hit": false,
      "t": 29062.500000000015,
      "d": 829.1666666666642,
      "v": 15
    },
    {
      "midi": 64,
      "hit": false,
      "t": 29529.16666666668,
      "d": 75,
      "v": 34
    },
    {
      "midi": 67,
      "hit": false,
      "t": 29529.16666666668,
      "d": 320.8333333333321,
      "v": 35
    },
    {
      "midi": 58,
      "hit": false,
      "t": 29533.333333333347,
      "d": 395.8333333333321,
      "v": 34
    },
    {
      "midi": 57,
      "hit": false,
      "t": 29987.50000000001,
      "d": 179.16666666666424,
      "v": 39
    },
    {
      "midi": 63,
      "hit": false,
      "t": 29987.50000000001,
      "d": 662.4999999999964,
      "v": 38
    },
    {
      "midi": 62,
      "hit": false,
      "t": 29991.66666666668,
      "d": 133.33333333333212,
      "v": 36
    },
    {
      "midi": 67,
      "hit": false,
      "t": 30000.00000000001,
      "d": 758.3333333333321,
      "v": 36
    },
    {
      "midi": 71,
      "hit": false,
      "t": 30004.16666666668,
      "d": 762.4999999999964,
      "v": 38
    },
    {
      "midi": 41,
      "hit": false,
      "t": 30516.666666666675,
      "d": 37.5,
      "v": 43
    },
    {
      "midi": 72,
      "hit": false,
      "t": 30704.166666666675,
      "d": 1066.6666666666715,
      "v": 1
    },
    {
      "midi": 74,
      "hit": false,
      "t": 30733.333333333343,
      "d": 1000.0000000000036,
      "v": 2
    },
    {
      "midi": 66,
      "hit": false,
      "t": 31000.000000000007,
      "d": 375.00000000000364,
      "v": 36
    },
    {
      "midi": 62,
      "hit": false,
      "t": 31004.166666666675,
      "d": 329.1666666666679,
      "v": 37
    },
    {
      "midi": 57,
      "hit": false,
      "t": 31012.50000000001,
      "d": 237.5,
      "v": 28
    },
    {
      "midi": 51,
      "hit": false,
      "t": 31020.833333333343,
      "d": 491.6666666666679,
      "v": 32
    },
    {
      "midi": 57,
      "hit": false,
      "t": 31495.833333333343,
      "d": 70.83333333333576,
      "v": 45
    },
    {
      "midi": 70,
      "hit": false,
      "t": 31979.16666666668,
      "d": 37.5,
      "v": 67
    },
    {
      "midi": 65,
      "hit": false,
      "t": 31983.333333333347,
      "d": 116.66666666666424,
      "v": 29
    },
    {
      "midi": 62,
      "hit": false,
      "t": 31991.66666666668,
      "d": 645.8333333333321,
      "v": 28
    },
    {
      "midi": 60,
      "hit": false,
      "t": 32000.00000000001,
      "d": 625,
      "v": 28
    },
    {
      "midi": 70,
      "hit": false,
      "t": 32108.333333333343,
      "d": 50,
      "v": 50
    },
    {
      "midi": 69,
      "hit": false,
      "t": 32266.666666666675,
      "d": 29.16666666666788,
      "v": 39
    },
    {
      "midi": 70,
      "hit": false,
      "t": 32387.50000000001,
      "d": 33.33333333333212,
      "v": 57
    },
    {
      "midi": 53,
      "hit": false,
      "t": 32437.50000000001,
      "d": 1179.1666666666606,
      "v": 25
    },
    {
      "midi": 70,
      "hit": false,
      "t": 32516.66666666668,
      "d": 70.83333333333212,
      "v": 62
    },
    {
      "midi": 65,
      "hit": false,
      "t": 32891.66666666668,
      "d": 145.83333333332848,
      "v": 28
    },
    {
      "midi": 60,
      "hit": false,
      "t": 32895.83333333334,
      "d": 133.33333333332848,
      "v": 28
    },
    {
      "midi": 62,
      "hit": false,
      "t": 32900.00000000001,
      "d": 104.16666666666424,
      "v": 26
    },
    {
      "midi": 60,
      "hit": false,
      "t": 33395.83333333334,
      "d": 254.16666666666424,
      "v": 39
    },
    {
      "midi": 65,
      "hit": false,
      "t": 33400.00000000001,
      "d": 200,
      "v": 45
    },
    {
      "midi": 62,
      "hit": false,
      "t": 33400.00000000001,
      "d": 320.83333333333576,
      "v": 45
    },
    {
      "midi": 53,
      "hit": false,
      "t": 33687.50000000001,
      "d": 466.66666666665697,
      "v": 35
    },
    {
      "midi": 79,
      "hit": false,
      "t": 33908.33333333334,
      "d": 158.3333333333212,
      "v": 77
    },
    {
      "midi": 56,
      "hit": false,
      "t": 33929.16666666667,
      "d": 1774.9999999999854,
      "v": 34
    },
    {
      "midi": 62,
      "hit": false,
      "t": 33933.333333333336,
      "d": 579.166666666657,
      "v": 63
    },
    {
      "midi": 68,
      "hit": false,
      "t": 33937.5,
      "d": 120.83333333332848,
      "v": 72
    },
    {
      "midi": 59,
      "hit": false,
      "t": 33941.666666666664,
      "d": 554.1666666666642,
      "v": 35
    },
    {
      "midi": 77,
      "hit": false,
      "t": 33958.33333333333,
      "d": 133.33333333333576,
      "v": 35
    },
    {
      "midi": 79,
      "hit": false,
      "t": 34129.166666666664,
      "d": 83.33333333333576,
      "v": 58
    },
    {
      "midi": 68,
      "hit": false,
      "t": 34141.666666666664,
      "d": 79.16666666667152,
      "v": 73
    },
    {
      "midi": 77,
      "hit": false,
      "t": 34308.333333333336,
      "d": 25,
      "v": 62
    },
    {
      "midi": 53,
      "hit": false,
      "t": 34316.66666666667,
      "d": 987.4999999999927,
      "v": 34
    },
    {
      "midi": 77,
      "hit": false,
      "t": 34462.5,
      "d": 54.166666666656965,
      "v": 58
    },
    {
      "midi": 65,
      "hit": false,
      "t": 34466.666666666664,
      "d": 41.66666666666424,
      "v": 45
    },
    {
      "midi": 77,
      "hit": false,
      "t": 34616.66666666666,
      "d": 70.83333333333576,
      "v": 58
    },
    {
      "midi": 62,
      "hit": false,
      "t": 34887.49999999999,
      "d": 750,
      "v": 30
    },
    {
      "midi": 59,
      "hit": false,
      "t": 34895.83333333333,
      "d": 700,
      "v": 33
    },
    {
      "midi": 53,
      "hit": false,
      "t": 35529.166666666664,
      "d": 783.3333333333285,
      "v": 14
    },
    {
      "midi": 74,
      "hit": false,
      "t": 35845.83333333332,
      "d": 579.1666666666715,
      "v": 54
    },
    {
      "midi": 63,
      "hit": false,
      "t": 36029.16666666666,
      "d": 600.0000000000073,
      "v": 25
    },
    {
      "midi": 60,
      "hit": false,
      "t": 36041.66666666666,
      "d": 633.3333333333358,
      "v": 30
    },
    {
      "midi": 57,
      "hit": false,
      "t": 36062.49999999999,
      "d": 570.8333333333358,
      "v": 25
    },
    {
      "midi": 69,
      "hit": false,
      "t": 36366.66666666666,
      "d": 270.83333333333576,
      "v": 50
    },
    {
      "midi": 53,
      "hit": false,
      "t": 36545.83333333333,
      "d": 712.5,
      "v": 45
    },
    {
      "midi": 63,
      "hit": false,
      "t": 37037.49999999999,
      "d": 216.66666666667152,
      "v": 30
    },
    {
      "midi": 60,
      "hit": false,
      "t": 37058.33333333333,
      "d": 537.5,
      "v": 30
    },
    {
      "midi": 57,
      "hit": false,
      "t": 37074.99999999999,
      "d": 358.33333333333576,
      "v": 28
    },
    {
      "midi": 53,
      "hit": false,
      "t": 37558.33333333333,
      "d": 725.0000000000073,
      "v": 36
    },
    {
      "midi": 58,
      "hit": false,
      "t": 37891.666666666664,
      "d": 691.6666666666715,
      "v": 59
    },
    {
      "midi": 61,
      "hit": false,
      "t": 37929.166666666664,
      "d": 670.8333333333358,
      "v": 46
    },
    {
      "midi": 79,
      "hit": false,
      "t": 37962.5,
      "d": 25,
      "v": 54
    },
    {
      "midi": 81,
      "hit": false,
      "t": 37966.666666666664,
      "d": 850,
      "v": 56
    },
    {
      "midi": 85,
      "hit": false,
      "t": 37979.166666666664,
      "d": 875,
      "v": 75
    },
    {
      "midi": 64,
      "hit": false,
      "t": 38004.166666666664,
      "d": 579.1666666666715,
      "v": 54
    },
    {
      "midi": 88,
      "hit": false,
      "t": 38012.5,
      "d": 862.5,
      "v": 62
    },
    {
      "midi": 93,
      "hit": false,
      "t": 38058.333333333336,
      "d": 754.1666666666642,
      "v": 71
    },
    {
      "midi": 53,
      "hit": false,
      "t": 38516.66666666667,
      "d": 683.3333333333212,
      "v": 36
    },
    {
      "midi": 61,
      "hit": false,
      "t": 38987.5,
      "d": 620.8333333333285,
      "v": 30
    },
    {
      "midi": 91,
      "hit": false,
      "t": 39000,
      "d": 312.4999999999927,
      "v": 36
    },
    {
      "midi": 58,
      "hit": false,
      "t": 39004.166666666664,
      "d": 579.1666666666642,
      "v": 28
    },
    {
      "midi": 64,
      "hit": false,
      "t": 39008.33333333333,
      "d": 537.5,
      "v": 33
    },
    {
      "midi": 85,
      "hit": false,
      "t": 39016.666666666664,
      "d": 466.66666666666424,
      "v": 33
    },
    {
      "midi": 88,
      "hit": false,
      "t": 39020.83333333333,
      "d": 429.16666666666424,
      "v": 37
    },
    {
      "midi": 79,
      "hit": false,
      "t": 39024.99999999999,
      "d": 354.16666666666424,
      "v": 24
    },
    {
      "midi": 53,
      "hit": false,
      "t": 39495.83333333333,
      "d": 825.0000000000146,
      "v": 27
    },
    {
      "midi": 93,
      "hit": false,
      "t": 39820.83333333333,
      "d": 45.83333333333576,
      "v": 85
    },
    {
      "midi": 62,
      "hit": false,
      "t": 39987.5,
      "d": 679.1666666666788,
      "v": 31
    },
    {
      "midi": 86,
      "hit": false,
      "t": 39991.666666666664,
      "d": 25.000000000007276,
      "v": 58
    },
    {
      "midi": 57,
      "hit": false,
      "t": 39991.666666666664,
      "d": 625.0000000000146,
      "v": 37
    },
    {
      "midi": 74,
      "hit": false,
      "t": 40000,
      "d": 29.166666666671517,
      "v": 39
    },
    {
      "midi": 86,
      "hit": false,
      "t": 40300.00000000001,
      "d": 20.83333333333576,
      "v": 66
    },
    {
      "midi": 53,
      "hit": false,
      "t": 40470.83333333334,
      "d": 679.1666666666715,
      "v": 30
    },
    {
      "midi": 74,
      "hit": false,
      "t": 40979.16666666668,
      "d": 25,
      "v": 66
    },
    {
      "midi": 57,
      "hit": false,
      "t": 40979.16666666668,
      "d": 516.6666666666642,
      "v": 42
    },
    {
      "midi": 62,
      "hit": false,
      "t": 41283.33333333335,
      "d": 29.16666666666424,
      "v": 64
    },
    {
      "midi": 74,
      "hit": false,
      "t": 41283.33333333335,
      "d": 33.33333333332848,
      "v": 63
    },
    {
      "midi": 53,
      "hit": false,
      "t": 41466.66666666668,
      "d": 83.33333333332848,
      "v": 44
    },
    {
      "midi": 82,
      "hit": false,
      "t": 41954.16666666667,
      "d": 25,
      "v": 46
    },
    {
      "midi": 83,
      "hit": false,
      "t": 41962.50000000001,
      "d": 45.83333333333576,
      "v": 76
    },
    {
      "midi": 84,
      "hit": false,
      "t": 41987.50000000001,
      "d": 50,
      "v": 74
    },
    {
      "midi": 61,
      "hit": false,
      "t": 42000.00000000001,
      "d": 20.83333333333576,
      "v": 25
    },
    {
      "midi": 83,
      "hit": false,
      "t": 42233.33333333334,
      "d": 50,
      "v": 64
    },
    {
      "midi": 84,
      "hit": false,
      "t": 42254.16666666668,
      "d": 70.83333333332848,
      "v": 72
    },
    {
      "midi": 82,
      "hit": false,
      "t": 42458.33333333334,
      "d": 62.5,
      "v": 59
    },
    {
      "midi": 53,
      "hit": false,
      "t": 42466.66666666668,
      "d": 562.5,
      "v": 29
    },
    {
      "midi": 62,
      "hit": false,
      "t": 42958.33333333334,
      "d": 37.5,
      "v": 34
    },
    {
      "midi": 58,
      "hit": false,
      "t": 42958.33333333334,
      "d": 75,
      "v": 39
    },
    {
      "midi": 41,
      "hit": false,
      "t": 43466.66666666668,
      "d": 804.1666666666788,
      "v": 32
    },
    {
      "midi": 62,
      "hit": false,
      "t": 43470.83333333334,
      "d": 41.66666666666424,
      "v": 66
    },
    {
      "midi": 63,
      "hit": false,
      "t": 43516.66666666667,
      "d": 104.16666666666424,
      "v": 47
    },
    {
      "midi": 62,
      "hit": false,
      "t": 43595.833333333336,
      "d": 50,
      "v": 35
    },
    {
      "midi": 63,
      "hit": false,
      "t": 43654.16666666667,
      "d": 104.16666666667152,
      "v": 48
    },
    {
      "midi": 62,
      "hit": false,
      "t": 43725.00000000001,
      "d": 54.16666666667152,
      "v": 37
    },
    {
      "midi": 61,
      "hit": false,
      "t": 43787.500000000015,
      "d": 70.83333333333576,
      "v": 38
    },
    {
      "midi": 62,
      "hit": false,
      "t": 43850.000000000015,
      "d": 95.83333333333576,
      "v": 33
    },
    {
      "midi": 63,
      "hit": false,
      "t": 43916.666666666686,
      "d": 62.5,
      "v": 35
    },
    {
      "midi": 64,
      "hit": false,
      "t": 43987.50000000002,
      "d": 75,
      "v": 64
    },
    {
      "midi": 53,
      "hit": false,
      "t": 44045.83333333336,
      "d": 450,
      "v": 36
    },
    {
      "midi": 65,
      "hit": false,
      "t": 44070.83333333336,
      "d": 308.33333333333576,
      "v": 64
    },
    {
      "midi": 55,
      "hit": false,
      "t": 44270.83333333336,
      "d": 58.33333333333576,
      "v": 62
    },
    {
      "midi": 41,
      "hit": false,
      "t": 44533.33333333336,
      "d": 33.33333333333576,
      "v": 37
    },
    {
      "midi": 77,
      "hit": false,
      "t": 45029.16666666669,
      "d": 566.6666666666642,
      "v": 44
    },
    {
      "midi": 75,
      "hit": false,
      "t": 45037.50000000003,
      "d": 570.8333333333285,
      "v": 42
    },
    {
      "midi": 70,
      "hit": false,
      "t": 45041.66666666669,
      "d": 516.6666666666642,
      "v": 36
    },
    {
      "midi": 67,
      "hit": false,
      "t": 45045.83333333336,
      "d": 479.16666666666424,
      "v": 33
    },
    {
      "midi": 65,
      "hit": false,
      "t": 45058.33333333336,
      "d": 362.5,
      "v": 31
    },
    {
      "midi": 53,
      "hit": false,
      "t": 45475.00000000002,
      "d": 37.5,
      "v": 41
    },
    {
      "midi": 62,
      "hit": false,
      "t": 45887.50000000002,
      "d": 379.16666666666424,
      "v": 59
    },
    {
      "midi": 74,
      "hit": false,
      "t": 45933.33333333336,
      "d": 800,
      "v": 64
    },
    {
      "midi": 78,
      "hit": false,
      "t": 45954.16666666669,
      "d": 916.6666666666642,
      "v": 62
    },
    {
      "midi": 63,
      "hit": false,
      "t": 45970.83333333336,
      "d": 316.66666666666424,
      "v": 48
    },
    {
      "midi": 67,
      "hit": false,
      "t": 45983.33333333336,
      "d": 274.9999999999927,
      "v": 55
    },
    {
      "midi": 81,
      "hit": false,
      "t": 45983.33333333336,
      "d": 833.3333333333358,
      "v": 62
    },
    {
      "midi": 86,
      "hit": false,
      "t": 46029.166666666686,
      "d": 654.1666666666715,
      "v": 67
    },
    {
      "midi": 53,
      "hit": false,
      "t": 46470.83333333336,
      "d": 37.5,
      "v": 22
    },
    {
      "midi": 63,
      "hit": false,
      "t": 47525.00000000002,
      "d": 54.16666666666424,
      "v": 29
    },
    {
      "midi": 84,
      "hit": false,
      "t": 47666.666666666686,
      "d": 112.5,
      "v": 74
    },
    {
      "midi": 81,
      "hit": false,
      "t": 47825.00000000002,
      "d": 91.66666666666424,
      "v": 56
    },
    {
      "midi": 65,
      "hit": false,
      "t": 47991.666666666686,
      "d": 133.33333333332848,
      "v": 20
    },
    {
      "midi": 82,
      "hit": false,
      "t": 48000.00000000002,
      "d": 233.33333333332848,
      "v": 53
    },
    {
      "midi": 62,
      "hit": false,
      "t": 48004.166666666686,
      "d": 662.5,
      "v": 26
    },
    {
      "midi": 60,
      "hit": false,
      "t": 48004.166666666686,
      "d": 683.3333333333358,
      "v": 32
    },
    {
      "midi": 81,
      "hit": false,
      "t": 48337.500000000015,
      "d": 45.83333333333576,
      "v": 45
    },
    {
      "midi": 82,
      "hit": false,
      "t": 48516.66666666668,
      "d": 54.16666666667152,
      "v": 57
    },
    {
      "midi": 53,
      "hit": false,
      "t": 48537.500000000015,
      "d": 704.1666666666642,
      "v": 24
    },
    {
      "midi": 81,
      "hit": false,
      "t": 48858.33333333336,
      "d": 41.66666666666424,
      "v": 47
    },
    {
      "midi": 62,
      "hit": false,
      "t": 49016.666666666686,
      "d": 554.1666666666642,
      "v": 30
    },
    {
      "midi": 65,
      "hit": false,
      "t": 49020.83333333335,
      "d": 133.33333333332848,
      "v": 30
    },
    {
      "midi": 60,
      "hit": false,
      "t": 49020.83333333335,
      "d": 529.1666666666642,
      "v": 24
    },
    {
      "midi": 82,
      "hit": false,
      "t": 49037.500000000015,
      "d": 450,
      "v": 35
    },
    {
      "midi": 53,
      "hit": false,
      "t": 49500.000000000015,
      "d": 79.16666666667152,
      "v": 35
    },
    {
      "midi": 84,
      "hit": false,
      "t": 49516.66666666668,
      "d": 316.6666666666715,
      "v": 60
    },
    {
      "midi": 80,
      "hit": false,
      "t": 49987.500000000015,
      "d": 108.33333333332848,
      "v": 69
    },
    {
      "midi": 74,
      "hit": false,
      "t": 49991.66666666668,
      "d": 166.66666666666424,
      "v": 78
    },
    {
      "midi": 86,
      "hit": false,
      "t": 49991.66666666668,
      "d": 166.66666666666424,
      "v": 80
    },
    {
      "midi": 62,
      "hit": false,
      "t": 49995.83333333334,
      "d": 154.16666666666424,
      "v": 61
    },
    {
      "midi": 67,
      "hit": false,
      "t": 50000.00000000001,
      "d": 125,
      "v": 62
    },
    {
      "midi": 56,
      "hit": false,
      "t": 50000.00000000001,
      "d": 208.33333333333576,
      "v": 59
    },
    {
      "midi": 81,
      "hit": false,
      "t": 50108.33333333334,
      "d": 62.5,
      "v": 43
    },
    {
      "midi": 85,
      "hit": false,
      "t": 50320.83333333334,
      "d": 166.66666666665697,
      "v": 69
    },
    {
      "midi": 61,
      "hit": false,
      "t": 50320.83333333334,
      "d": 229.16666666665697,
      "v": 48
    },
    {
      "midi": 73,
      "hit": false,
      "t": 50325.00000000001,
      "d": 166.66666666665697,
      "v": 52
    },
    {
      "midi": 55,
      "hit": false,
      "t": 50329.16666666667,
      "d": 125,
      "v": 54
    },
    {
      "midi": 66,
      "hit": false,
      "t": 50329.16666666667,
      "d": 141.66666666666424,
      "v": 43
    },
    {
      "midi": 80,
      "hit": false,
      "t": 50329.16666666667,
      "d": 170.83333333332848,
      "v": 51
    },
    {
      "midi": 84,
      "hit": false,
      "t": 50637.5,
      "d": 174.99999999998545,
      "v": 54
    },
    {
      "midi": 79,
      "hit": false,
      "t": 50641.666666666664,
      "d": 183.3333333333212,
      "v": 51
    },
    {
      "midi": 72,
      "hit": false,
      "t": 50641.666666666664,
      "d": 229.16666666665697,
      "v": 40
    },
    {
      "midi": 65,
      "hit": false,
      "t": 50645.83333333333,
      "d": 137.49999999999272,
      "v": 24
    },
    {
      "midi": 60,
      "hit": false,
      "t": 50645.83333333333,
      "d": 174.99999999999272,
      "v": 42
    },
    {
      "midi": 54,
      "hit": false,
      "t": 50649.99999999999,
      "d": 262.4999999999927,
      "v": 34
    },
    {
      "midi": 64,
      "hit": false,
      "t": 50974.999999999985,
      "d": 91.66666666666424,
      "v": 37
    },
    {
      "midi": 83,
      "hit": false,
      "t": 50983.33333333332,
      "d": 112.5,
      "v": 45
    },
    {
      "midi": 59,
      "hit": false,
      "t": 50987.499999999985,
      "d": 100,
      "v": 41
    },
    {
      "midi": 53,
      "hit": false,
      "t": 50987.499999999985,
      "d": 141.66666666667152,
      "v": 37
    },
    {
      "midi": 71,
      "hit": false,
      "t": 50991.66666666665,
      "d": 154.16666666667152,
      "v": 28
    },
    {
      "midi": 77,
      "hit": false,
      "t": 50995.833333333314,
      "d": 137.50000000000728,
      "v": 46
    },
    {
      "midi": 82,
      "hit": false,
      "t": 51320.83333333332,
      "d": 179.16666666665697,
      "v": 51
    },
    {
      "midi": 70,
      "hit": false,
      "t": 51333.33333333332,
      "d": 149.99999999999272,
      "v": 36
    },
    {
      "midi": 54,
      "hit": false,
      "t": 51333.33333333332,
      "d": 162.49999999999272,
      "v": 37
    },
    {
      "midi": 44,
      "hit": false,
      "t": 51337.499999999985,
      "d": 166.66666666665697,
      "v": 38
    },
    {
      "midi": 77,
      "hit": false,
      "t": 51341.66666666665,
      "d": 116.66666666666424,
      "v": 44
    },
    {
      "midi": 81,
      "hit": false,
      "t": 51662.49999999998,
      "d": 41.66666666666424,
      "v": 48
    },
    {
      "midi": 76,
      "hit": false,
      "t": 51691.66666666664,
      "d": 37.5,
      "v": 24
    },
    {
      "midi": 80,
      "hit": false,
      "t": 51829.16666666665,
      "d": 70.83333333333576,
      "v": 49
    },
    {
      "midi": 68,
      "hit": false,
      "t": 51841.66666666665,
      "d": 45.83333333333576,
      "v": 32
    },
    {
      "midi": 75,
      "hit": false,
      "t": 51845.833333333314,
      "d": 33.33333333333576,
      "v": 35
    },
    {
      "midi": 79,
      "hit": false,
      "t": 51999.999999999985,
      "d": 162.5,
      "v": 44
    },
    {
      "midi": 67,
      "hit": false,
      "t": 51999.999999999985,
      "d": 208.33333333333576,
      "v": 31
    },
    {
      "midi": 75,
      "hit": false,
      "t": 52008.33333333332,
      "d": 175,
      "v": 32
    },
    {
      "midi": 39,
      "hit": false,
      "t": 52016.66666666666,
      "d": 154.16666666666424,
      "v": 29
    },
    {
      "midi": 46,
      "hit": false,
      "t": 52162.499999999985,
      "d": 100,
      "v": 45
    },
    {
      "midi": 60,
      "hit": false,
      "t": 52470.83333333332,
      "d": 83.33333333333576,
      "v": 45
    },
    {
      "midi": 61,
      "hit": false,
      "t": 52583.33333333332,
      "d": 91.66666666667152,
      "v": 43
    },
    {
      "midi": 58,
      "hit": false,
      "t": 52641.66666666666,
      "d": 691.6666666666642,
      "v": 1
    },
    {
      "midi": 63,
      "hit": false,
      "t": 52704.16666666666,
      "d": 70.83333333333576,
      "v": 38
    },
    {
      "midi": 65,
      "hit": false,
      "t": 52833.33333333333,
      "d": 66.66666666666424,
      "v": 37
    },
    {
      "midi": 67,
      "hit": false,
      "t": 52954.16666666666,
      "d": 50,
      "v": 50
    },
    {
      "midi": 65,
      "hit": false,
      "t": 53083.33333333332,
      "d": 200,
      "v": 36
    },
    {
      "midi": 69,
      "hit": false,
      "t": 53420.83333333332,
      "d": 50,
      "v": 41
    },
    {
      "midi": 59,
      "hit": false,
      "t": 53608.33333333332,
      "d": 195.83333333332848,
      "v": 52
    },
    {
      "midi": 70,
      "hit": false,
      "t": 53754.16666666665,
      "d": 83.33333333332848,
      "v": 60
    },
    {
      "midi": 71,
      "hit": false,
      "t": 53887.49999999998,
      "d": 83.33333333333576,
      "v": 59
    },
    {
      "midi": 72,
      "hit": false,
      "t": 54033.333333333314,
      "d": 70.83333333333576,
      "v": 51
    },
    {
      "midi": 58,
      "hit": false,
      "t": 54041.66666666665,
      "d": 29.16666666666424,
      "v": 45
    },
    {
      "midi": 82,
      "hit": false,
      "t": 54349.999999999985,
      "d": 133.33333333332848,
      "v": 67
    },
    {
      "midi": 73,
      "hit": false,
      "t": 54354.16666666665,
      "d": 145.83333333332848,
      "v": 56
    },
    {
      "midi": 76,
      "hit": false,
      "t": 54362.499999999985,
      "d": 104.16666666666424,
      "v": 57
    },
    {
      "midi": 67,
      "hit": false,
      "t": 54366.66666666665,
      "d": 166.66666666666424,
      "v": 64
    },
    {
      "midi": 81,
      "hit": false,
      "t": 54545.833333333314,
      "d": 66.66666666667152,
      "v": 53
    },
    {
      "midi": 72,
      "hit": false,
      "t": 54545.833333333314,
      "d": 79.16666666667152,
      "v": 39
    },
    {
      "midi": 66,
      "hit": false,
      "t": 54554.16666666665,
      "d": 108.33333333333576,
      "v": 35
    },
    {
      "midi": 80,
      "hit": false,
      "t": 54812.499999999985,
      "d": 58.33333333332848,
      "v": 37
    },
    {
      "midi": 75,
      "hit": false,
      "t": 54816.66666666665,
      "d": 83.33333333332848,
      "v": 45
    },
    {
      "midi": 65,
      "hit": false,
      "t": 54833.333333333314,
      "d": 41.66666666666424,
      "v": 45
    },
    {
      "midi": 70,
      "hit": false,
      "t": 54995.83333333331,
      "d": 237.50000000000728,
      "v": 44
    },
    {
      "midi": 73,
      "hit": false,
      "t": 54995.83333333331,
      "d": 316.6666666666715,
      "v": 48
    },
    {
      "midi": 79,
      "hit": false,
      "t": 55004.16666666664,
      "d": 220.83333333333576,
      "v": 47
    },
    {
      "midi": 64,
      "hit": false,
      "t": 55008.33333333331,
      "d": 466.66666666666424,
      "v": 34
    },
    {
      "midi": 78,
      "hit": false,
      "t": 55466.66666666664,
      "d": 183.3333333333212,
      "v": 40
    },
    {
      "midi": 63,
      "hit": false,
      "t": 55483.33333333331,
      "d": 87.49999999999272,
      "v": 35
    },
    {
      "midi": 69,
      "hit": false,
      "t": 55487.49999999997,
      "d": 112.49999999999272,
      "v": 27
    },
    {
      "midi": 75,
      "hit": false,
      "t": 55499.99999999997,
      "d": 341.66666666665697,
      "v": 27
    },
    {
      "midi": 72,
      "hit": false,
      "t": 55504.166666666635,
      "d": 116.66666666666424,
      "v": 33
    },
    {
      "midi": 77,
      "hit": false,
      "t": 55966.66666666663,
      "d": 174.99999999999272,
      "v": 43
    },
    {
      "midi": 57,
      "hit": false,
      "t": 55966.66666666663,
      "d": 299.9999999999927,
      "v": 28
    },
    {
      "midi": 60,
      "hit": false,
      "t": 55970.83333333329,
      "d": 158.33333333332848,
      "v": 35
    },
    {
      "midi": 65,
      "hit": false,
      "t": 55974.999999999956,
      "d": 245.83333333332848,
      "v": 33
    },
    {
      "midi": 72,
      "hit": false,
      "t": 55979.16666666662,
      "d": 137.5,
      "v": 41
    },
    {
      "midi": 50,
      "hit": false,
      "t": 55983.333333333285,
      "d": 616.6666666666642,
      "v": 32
    },
    {
      "midi": 65,
      "hit": false,
      "t": 56495.833333333285,
      "d": 79.16666666666424,
      "v": 36
    },
    {
      "midi": 50,
      "hit": false,
      "t": 56804.16666666661,
      "d": 170.83333333333576,
      "v": 28
    },
    {
      "midi": 61,
      "hit": false,
      "t": 56979.16666666661,
      "d": 100,
      "v": 36
    },
    {
      "midi": 59,
      "hit": false,
      "t": 56995.83333333328,
      "d": 62.5,
      "v": 35
    },
    {
      "midi": 43,
      "hit": false,
      "t": 57008.33333333328,
      "d": 499.9999999999927,
      "v": 29
    },
    {
      "midi": 53,
      "hit": false,
      "t": 57087.49999999995,
      "d": 316.66666666666424,
      "v": 1
    },
    {
      "midi": 59,
      "hit": false,
      "t": 57120.833333333285,
      "d": 270.8333333333285,
      "v": 31
    },
    {
      "midi": 62,
      "hit": false,
      "t": 57124.99999999995,
      "d": 262.5,
      "v": 40
    },
    {
      "midi": 59,
      "hit": false,
      "t": 57483.33333333328,
      "d": 124.99999999999272,
      "v": 37
    },
    {
      "midi": 62,
      "hit": false,
      "t": 57491.666666666606,
      "d": 141.66666666666424,
      "v": 37
    },
    {
      "midi": 50,
      "hit": false,
      "t": 57491.666666666606,
      "d": 187.5,
      "v": 32
    },
    {
      "midi": 65,
      "hit": false,
      "t": 57495.83333333327,
      "d": 133.33333333333576,
      "v": 44
    },
    {
      "midi": 47,
      "hit": false,
      "t": 57824.99999999994,
      "d": 120.83333333333576,
      "v": 28
    },
    {
      "midi": 70,
      "hit": false,
      "t": 57991.66666666661,
      "d": 74.99999999999272,
      "v": 54
    },
    {
      "midi": 63,
      "hit": false,
      "t": 58008.33333333328,
      "d": 58.33333333332848,
      "v": 37
    },
    {
      "midi": 67,
      "hit": false,
      "t": 58012.49999999994,
      "d": 29.16666666666424,
      "v": 32
    },
    {
      "midi": 48,
      "hit": false,
      "t": 58012.49999999994,
      "d": 33.33333333332848,
      "v": 36
    },
    {
      "midi": 60,
      "hit": false,
      "t": 58012.49999999994,
      "d": 37.499999999992724,
      "v": 34
    },
    {
      "midi": 67,
      "hit": false,
      "t": 58316.6666666666,
      "d": 83.33333333332848,
      "v": 47
    },
    {
      "midi": 63,
      "hit": false,
      "t": 58329.1666666666,
      "d": 87.5,
      "v": 31
    },
    {
      "midi": 60,
      "hit": false,
      "t": 58329.1666666666,
      "d": 91.66666666666424,
      "v": 34
    },
    {
      "midi": 48,
      "hit": false,
      "t": 58329.1666666666,
      "d": 108.33333333332848,
      "v": 38
    },
    {
      "midi": 55,
      "hit": false,
      "t": 58333.33333333326,
      "d": 75,
      "v": 37
    },
    {
      "midi": 66,
      "hit": false,
      "t": 58516.66666666659,
      "d": 49.99999999998545,
      "v": 35
    },
    {
      "midi": 63,
      "hit": false,
      "t": 58516.66666666659,
      "d": 58.33333333332121,
      "v": 23
    },
    {
      "midi": 55,
      "hit": false,
      "t": 58520.833333333256,
      "d": 41.666666666656965,
      "v": 25
    },
    {
      "midi": 60,
      "hit": false,
      "t": 58524.99999999992,
      "d": 33.33333333332848,
      "v": 22
    },
    {
      "midi": 43,
      "hit": false,
      "t": 58529.166666666584,
      "d": 25,
      "v": 22
    },
    {
      "midi": 40,
      "hit": false,
      "t": 58829.16666666658,
      "d": 62.5,
      "v": 39
    },
    {
      "midi": 41,
      "hit": false,
      "t": 59008.33333333324,
      "d": 70.83333333333576,
      "v": 41
    },
    {
      "midi": 57,
      "hit": false,
      "t": 59012.499999999905,
      "d": 25,
      "v": 32
    },
    {
      "midi": 60,
      "hit": false,
      "t": 59016.66666666657,
      "d": 29.166666666671517,
      "v": 30
    },
    {
      "midi": 63,
      "hit": false,
      "t": 59016.66666666657,
      "d": 50.000000000007276,
      "v": 20
    },
    {
      "midi": 29,
      "hit": false,
      "t": 59333.33333333324,
      "d": 87.5,
      "v": 48
    },
    {
      "midi": 72,
      "hit": false,
      "t": 59516.66666666658,
      "d": 49.999999999992724,
      "v": 58
    },
    {
      "midi": 60,
      "hit": false,
      "t": 59520.83333333324,
      "d": 29.16666666666424,
      "v": 53
    },
    {
      "midi": 65,
      "hit": false,
      "t": 59520.83333333324,
      "d": 33.33333333332848,
      "v": 52
    },
    {
      "midi": 41,
      "hit": false,
      "t": 59524.999999999905,
      "d": 25,
      "v": 42
    },
    {
      "midi": 69,
      "hit": false,
      "t": 59524.999999999905,
      "d": 25,
      "v": 46
    },
    {
      "midi": 61,
      "hit": false,
      "t": 59999.9999999999,
      "d": 637.5,
      "v": 65
    },
    {
      "midi": 69,
      "hit": false,
      "t": 59999.9999999999,
      "d": 750,
      "v": 64
    },
    {
      "midi": 57,
      "hit": false,
      "t": 60004.16666666656,
      "d": 625.0000000000073,
      "v": 66
    },
    {
      "midi": 64,
      "hit": false,
      "t": 60004.16666666656,
      "d": 629.1666666666715,
      "v": 51
    },
    {
      "midi": 34,
      "hit": false,
      "t": 60012.4999999999,
      "d": 50,
      "v": 52
    },
    {
      "midi": 46,
      "hit": false,
      "t": 60012.4999999999,
      "d": 58.33333333333576,
      "v": 58
    },
    {
      "midi": 58,
      "hit": false,
      "t": 60316.66666666657,
      "d": 95.83333333333576,
      "v": 86
    },
    {
      "midi": 58,
      "hit": false,
      "t": 60529.16666666657,
      "d": 58.33333333333576,
      "v": 67
    },
    {
      "midi": 58,
      "hit": false,
      "t": 60812.4999999999,
      "d": 54.16666666667152,
      "v": 53
    },
    {
      "midi": 57,
      "hit": false,
      "t": 60820.833333333234,
      "d": 345.83333333333576,
      "v": 36
    },
    {
      "midi": 61,
      "hit": false,
      "t": 60820.833333333234,
      "d": 354.1666666666715,
      "v": 29
    },
    {
      "midi": 64,
      "hit": false,
      "t": 60829.16666666657,
      "d": 350,
      "v": 37
    },
    {
      "midi": 58,
      "hit": false,
      "t": 61012.499999999905,
      "d": 62.5,
      "v": 45
    },
    {
      "midi": 58,
      "hit": false,
      "t": 61299.999999999905,
      "d": 83.33333333333576,
      "v": 36
    },
    {
      "midi": 57,
      "hit": false,
      "t": 61499.999999999905,
      "d": 33.33333333333576,
      "v": 46
    },
    {
      "midi": 61,
      "hit": false,
      "t": 61599.999999999905,
      "d": 54.16666666666424,
      "v": 43
    },
    {
      "midi": 64,
      "hit": false,
      "t": 61737.499999999905,
      "d": 54.16666666666424,
      "v": 60
    },
    {
      "midi": 69,
      "hit": false,
      "t": 61854.16666666657,
      "d": 62.5,
      "v": 74
    },
    {
      "midi": 76,
      "hit": false,
      "t": 61974.999999999905,
      "d": 91.66666666666424,
      "v": 75
    },
    {
      "midi": 69,
      "hit": false,
      "t": 61974.999999999905,
      "d": 108.33333333332848,
      "v": 77
    },
    {
      "midi": 58,
      "hit": false,
      "t": 61991.66666666657,
      "d": 179.16666666666424,
      "v": 47
    },
    {
      "midi": 64,
      "hit": false,
      "t": 62108.333333333234,
      "d": 50,
      "v": 42
    },
    {
      "midi": 69,
      "hit": false,
      "t": 62249.9999999999,
      "d": 225,
      "v": 69
    },
    {
      "midi": 76,
      "hit": false,
      "t": 62254.16666666656,
      "d": 241.66666666667152,
      "v": 66
    },
    {
      "midi": 58,
      "hit": false,
      "t": 62266.66666666656,
      "d": 208.33333333333576,
      "v": 36
    },
    {
      "midi": 73,
      "hit": false,
      "t": 62541.66666666657,
      "d": 145.83333333333576,
      "v": 43
    },
    {
      "midi": 64,
      "hit": false,
      "t": 62545.833333333234,
      "d": 170.83333333333576,
      "v": 38
    },
    {
      "midi": 69,
      "hit": false,
      "t": 62554.16666666657,
      "d": 125,
      "v": 39
    },
    {
      "midi": 58,
      "hit": false,
      "t": 62558.333333333234,
      "d": 225,
      "v": 27
    },
    {
      "midi": 64,
      "hit": false,
      "t": 63033.333333333234,
      "d": 354.16666666666424,
      "v": 24
    },
    {
      "midi": 61,
      "hit": false,
      "t": 63037.4999999999,
      "d": 275,
      "v": 21
    },
    {
      "midi": 58,
      "hit": false,
      "t": 63045.833333333234,
      "d": 237.5,
      "v": 21
    },
    {
      "midi": 57,
      "hit": false,
      "t": 63049.9999999999,
      "d": 208.33333333333576,
      "v": 16
    },
    {
      "midi": 58,
      "hit": false,
      "t": 63499.9999999999,
      "d": 70.83333333333576,
      "v": 28
    },
    {
      "midi": 74,
      "hit": false,
      "t": 63974.9999999999,
      "d": 304.16666666666424,
      "v": 58
    },
    {
      "midi": 53,
      "hit": false,
      "t": 64320.83333333323,
      "d": 120.83333333333576,
      "v": 35
    },
    {
      "midi": 41,
      "hit": false,
      "t": 64487.4999999999,
      "d": 1216.6666666666715,
      "v": 32
    },
    {
      "midi": 58,
      "hit": false,
      "t": 65008.33333333323,
      "d": 112.5,
      "v": 50
    },
    {
      "midi": 53,
      "hit": false,
      "t": 65154.16666666656,
      "d": 33.33333333333576,
      "v": 35
    },
    {
      "midi": 55,
      "hit": false,
      "t": 65283.333333333234,
      "d": 50,
      "v": 33
    },
    {
      "midi": 57,
      "hit": false,
      "t": 65416.66666666657,
      "d": 62.5,
      "v": 56
    },
    {
      "midi": 58,
      "hit": false,
      "t": 65533.333333333234,
      "d": 195.83333333333576,
      "v": 50
    },
    {
      "midi": 53,
      "hit": false,
      "t": 65541.66666666657,
      "d": 170.83333333332848,
      "v": 33
    },
    {
      "midi": 55,
      "hit": false,
      "t": 65787.4999999999,
      "d": 62.5,
      "v": 51
    },
    {
      "midi": 57,
      "hit": false,
      "t": 65924.9999999999,
      "d": 54.16666666667152,
      "v": 54
    },
    {
      "midi": 41,
      "hit": false,
      "t": 66024.9999999999,
      "d": 683.3333333333721,
      "v": 39
    },
    {
      "midi": 59,
      "hit": false,
      "t": 66045.83333333324,
      "d": 104.16666666667152,
      "v": 42
    },
    {
      "midi": 55,
      "hit": false,
      "t": 66195.83333333324,
      "d": 37.5,
      "v": 40
    },
    {
      "midi": 56,
      "hit": false,
      "t": 66291.66666666657,
      "d": 95.83333333334303,
      "v": 35
    },
    {
      "midi": 58,
      "hit": false,
      "t": 66429.16666666658,
      "d": 70.83333333332848,
      "v": 52
    },
    {
      "midi": 53,
      "hit": false,
      "t": 66554.16666666658,
      "d": 541.6666666666715,
      "v": 20
    },
    {
      "midi": 59,
      "hit": false,
      "t": 66562.49999999993,
      "d": 79.16666666667152,
      "v": 26
    },
    {
      "midi": 61,
      "hit": false,
      "t": 66679.1666666666,
      "d": 70.83333333334303,
      "v": 42
    },
    {
      "midi": 62,
      "hit": false,
      "t": 66783.33333333327,
      "d": 62.5,
      "v": 42
    },
    {
      "midi": 64,
      "hit": false,
      "t": 66912.49999999993,
      "d": 108.33333333332848,
      "v": 60
    },
    {
      "midi": 41,
      "hit": false,
      "t": 66999.99999999993,
      "d": 583.3333333332994,
      "v": 42
    },
    {
      "midi": 65,
      "hit": false,
      "t": 67037.49999999993,
      "d": 58.33333333332848,
      "v": 49
    },
    {
      "midi": 67,
      "hit": false,
      "t": 67166.66666666658,
      "d": 75,
      "v": 55
    },
    {
      "midi": 68,
      "hit": false,
      "t": 67279.16666666658,
      "d": 83.33333333332848,
      "v": 48
    },
    {
      "midi": 70,
      "hit": false,
      "t": 67408.33333333324,
      "d": 108.33333333332848,
      "v": 72
    },
    {
      "midi": 71,
      "hit": false,
      "t": 67516.66666666657,
      "d": 91.66666666665697,
      "v": 82
    },
    {
      "midi": 53,
      "hit": false,
      "t": 67537.4999999999,
      "d": 83.33333333332848,
      "v": 48
    },
    {
      "midi": 72,
      "hit": false,
      "t": 67645.83333333323,
      "d": 62.5,
      "v": 68
    },
    {
      "midi": 73,
      "hit": false,
      "t": 67762.4999999999,
      "d": 58.33333333332848,
      "v": 53
    },
    {
      "midi": 74,
      "hit": false,
      "t": 67891.66666666656,
      "d": 70.83333333332848,
      "v": 75
    },
    {
      "midi": 66,
      "hit": false,
      "t": 68008.33333333323,
      "d": 412.5,
      "v": 47
    },
    {
      "midi": 69,
      "hit": false,
      "t": 68012.4999999999,
      "d": 595.8333333333139,
      "v": 54
    },
    {
      "midi": 62,
      "hit": false,
      "t": 68020.83333333323,
      "d": 533.3333333333285,
      "v": 41
    },
    {
      "midi": 63,
      "hit": false,
      "t": 68024.9999999999,
      "d": 400,
      "v": 49
    },
    {
      "midi": 74,
      "hit": false,
      "t": 68024.9999999999,
      "d": 420.8333333333285,
      "v": 34
    },
    {
      "midi": 66,
      "hit": false,
      "t": 68537.49999999988,
      "d": 150,
      "v": 35
    },
    {
      "midi": 63,
      "hit": false,
      "t": 68541.66666666656,
      "d": 58.33333333332848,
      "v": 25
    },
    {
      "midi": 53,
      "hit": false,
      "t": 68541.66666666656,
      "d": 829.166666666657,
      "v": 36
    },
    {
      "midi": 63,
      "hit": false,
      "t": 69004.16666666656,
      "d": 233.33333333332848,
      "v": 32
    },
    {
      "midi": 69,
      "hit": false,
      "t": 69016.66666666656,
      "d": 649.9999999999854,
      "v": 58
    },
    {
      "midi": 74,
      "hit": false,
      "t": 69041.66666666656,
      "d": 724.9999999999854,
      "v": 58
    },
    {
      "midi": 65,
      "hit": false,
      "t": 69066.66666666656,
      "d": 399.99999999998545,
      "v": 24
    },
    {
      "midi": 78,
      "hit": false,
      "t": 69066.66666666656,
      "d": 604.166666666657,
      "v": 50
    },
    {
      "midi": 81,
      "hit": false,
      "t": 69087.49999999988,
      "d": 633.3333333333285,
      "v": 62
    },
    {
      "midi": 53,
      "hit": false,
      "t": 69520.83333333321,
      "d": 712.5,
      "v": 42
    },
    {
      "midi": 58,
      "hit": false,
      "t": 69920.83333333321,
      "d": 604.1666666666861,
      "v": 52
    },
    {
      "midi": 61,
      "hit": false,
      "t": 69962.49999999988,
      "d": 595.833333333343,
      "v": 25
    },
    {
      "midi": 69,
      "hit": false,
      "t": 69970.83333333321,
      "d": 379.1666666666715,
      "v": 60
    },
    {
      "midi": 73,
      "hit": false,
      "t": 69999.99999999988,
      "d": 387.5,
      "v": 51
    },
    {
      "midi": 64,
      "hit": false,
      "t": 70008.33333333321,
      "d": 416.6666666666715,
      "v": 50
    },
    {
      "midi": 76,
      "hit": false,
      "t": 70024.99999999988,
      "d": 387.5,
      "v": 53
    },
    {
      "midi": 81,
      "hit": false,
      "t": 70058.33333333321,
      "d": 287.5,
      "v": 60
    },
    {
      "midi": 53,
      "hit": false,
      "t": 70479.16666666656,
      "d": 695.833333333343,
      "v": 36
    },
    {
      "midi": 73,
      "hit": false,
      "t": 70491.66666666656,
      "d": 383.3333333333285,
      "v": 37
    },
    {
      "midi": 79,
      "hit": false,
      "t": 70491.66666666656,
      "d": 650.0000000000146,
      "v": 38
    },
    {
      "midi": 67,
      "hit": false,
      "t": 70499.9999999999,
      "d": 366.66666666665697,
      "v": 29
    },
    {
      "midi": 76,
      "hit": false,
      "t": 70499.9999999999,
      "d": 829.1666666666715,
      "v": 44
    },
    {
      "midi": 64,
      "hit": false,
      "t": 70508.33333333323,
      "d": 58.33333333332848,
      "v": 30
    },
    {
      "midi": 61,
      "hit": false,
      "t": 70999.99999999988,
      "d": 550.0000000000291,
      "v": 29
    },
    {
      "midi": 73,
      "hit": false,
      "t": 71004.16666666656,
      "d": 120.83333333334303,
      "v": 31
    },
    {
      "midi": 64,
      "hit": false,
      "t": 71008.33333333323,
      "d": 462.50000000001455,
      "v": 22
    },
    {
      "midi": 67,
      "hit": false,
      "t": 71012.4999999999,
      "d": 58.33333333332848,
      "v": 30
    },
    {
      "midi": 58,
      "hit": false,
      "t": 71020.83333333323,
      "d": 541.6666666666861,
      "v": 20
    },
    {
      "midi": 53,
      "hit": false,
      "t": 71487.49999999991,
      "d": 758.333333333343,
      "v": 35
    },
    {
      "midi": 81,
      "hit": false,
      "t": 71816.66666666658,
      "d": 54.16666666667152,
      "v": 74
    },
    {
      "midi": 62,
      "hit": false,
      "t": 71991.66666666658,
      "d": 550.0000000000146,
      "v": 20
    },
    {
      "midi": 57,
      "hit": false,
      "t": 71999.99999999991,
      "d": 666.6666666666861,
      "v": 29
    },
    {
      "midi": 68,
      "hit": false,
      "t": 72012.49999999991,
      "d": 87.5,
      "v": 67
    },
    {
      "midi": 74,
      "hit": false,
      "t": 72012.49999999991,
      "d": 370.83333333334303,
      "v": 48
    },
    {
      "midi": 69,
      "hit": false,
      "t": 72124.99999999991,
      "d": 41.66666666667152,
      "v": 31
    },
    {
      "midi": 65,
      "hit": false,
      "t": 72387.49999999993,
      "d": 29.166666666671517,
      "v": 29
    },
    {
      "midi": 74,
      "hit": false,
      "t": 72504.1666666666,
      "d": 433.3333333333285,
      "v": 56
    },
    {
      "midi": 53,
      "hit": false,
      "t": 72508.33333333327,
      "d": 745.8333333333285,
      "v": 35
    },
    {
      "midi": 69,
      "hit": false,
      "t": 72520.83333333327,
      "d": 258.3333333333285,
      "v": 43
    },
    {
      "midi": 67,
      "hit": false,
      "t": 72529.1666666666,
      "d": 225,
      "v": 44
    },
    {
      "midi": 62,
      "hit": false,
      "t": 72841.6666666666,
      "d": 54.166666666656965,
      "v": 27
    },
    {
      "midi": 65,
      "hit": false,
      "t": 72983.33333333327,
      "d": 245.83333333332848,
      "v": 45
    },
    {
      "midi": 57,
      "hit": false,
      "t": 73008.33333333327,
      "d": 454.16666666665697,
      "v": 28
    },
    {
      "midi": 62,
      "hit": false,
      "t": 73058.33333333327,
      "d": 441.66666666665697,
      "v": 1
    },
    {
      "midi": 65,
      "hit": false,
      "t": 73304.1666666666,
      "d": 37.5,
      "v": 45
    },
    {
      "midi": 53,
      "hit": false,
      "t": 73470.83333333326,
      "d": 816.666666666657,
      "v": 32
    },
    {
      "midi": 72,
      "hit": false,
      "t": 73974.99999999993,
      "d": 637.4999999999854,
      "v": 62
    },
    {
      "midi": 58,
      "hit": false,
      "t": 73987.49999999993,
      "d": 604.1666666666424,
      "v": 28
    },
    {
      "midi": 77,
      "hit": false,
      "t": 73991.6666666666,
      "d": 641.6666666666424,
      "v": 69
    },
    {
      "midi": 65,
      "hit": false,
      "t": 73999.99999999993,
      "d": 262.49999999998545,
      "v": 58
    },
    {
      "midi": 62,
      "hit": false,
      "t": 73999.99999999993,
      "d": 595.8333333333139,
      "v": 48
    },
    {
      "midi": 84,
      "hit": false,
      "t": 74016.66666666658,
      "d": 504.16666666665697,
      "v": 80
    },
    {
      "midi": 53,
      "hit": false,
      "t": 74508.33333333324,
      "d": 683.333333333343,
      "v": 29
    },
    {
      "midi": 70,
      "hit": false,
      "t": 74999.99999999991,
      "d": 29.166666666671517,
      "v": 51
    },
    {
      "midi": 82,
      "hit": false,
      "t": 74999.99999999991,
      "d": 54.16666666667152,
      "v": 56
    },
    {
      "midi": 58,
      "hit": false,
      "t": 74999.99999999991,
      "d": 533.3333333333285,
      "v": 28
    },
    {
      "midi": 62,
      "hit": false,
      "t": 75008.33333333324,
      "d": 483.33333333334303,
      "v": 27
    },
    {
      "midi": 65,
      "hit": false,
      "t": 75012.49999999991,
      "d": 104.16666666667152,
      "v": 35
    },
    {
      "midi": 79,
      "hit": false,
      "t": 75024.99999999991,
      "d": 29.166666666671517,
      "v": 30
    },
    {
      "midi": 53,
      "hit": false,
      "t": 75512.49999999991,
      "d": 79.16666666665697,
      "v": 32
    },
    {
      "midi": 62,
      "hit": false,
      "t": 75845.83333333324,
      "d": 62.5,
      "v": 39
    },
    {
      "midi": 65,
      "hit": false,
      "t": 76016.66666666657,
      "d": 29.166666666671517,
      "v": 45
    },
    {
      "midi": 63,
      "hit": false,
      "t": 76024.9999999999,
      "d": 29.166666666671517,
      "v": 32
    },
    {
      "midi": 58,
      "hit": false,
      "t": 76029.16666666657,
      "d": 25,
      "v": 31
    },
    {
      "midi": 53,
      "hit": false,
      "t": 76166.66666666657,
      "d": 25,
      "v": 47
    },
    {
      "midi": 65,
      "hit": false,
      "t": 76499.9999999999,
      "d": 54.16666666668607,
      "v": 41
    },
    {
      "midi": 58,
      "hit": false,
      "t": 76504.16666666657,
      "d": 50.00000000001455,
      "v": 38
    },
    {
      "midi": 55,
      "hit": false,
      "t": 76508.33333333324,
      "d": 33.333333333343035,
      "v": 37
    },
    {
      "midi": 63,
      "hit": false,
      "t": 76512.49999999991,
      "d": 37.5,
      "v": 36
    },
    {
      "midi": 41,
      "hit": false,
      "t": 76654.16666666658,
      "d": 791.666666666657,
      "v": 45
    },
    {
      "midi": 29,
      "hit": false,
      "t": 76999.99999999991,
      "d": 387.5,
      "v": 39
    },
    {
      "midi": 70,
      "hit": false,
      "t": 77512.49999999991,
      "d": 137.5,
      "v": 33
    },
    {
      "midi": 67,
      "hit": false,
      "t": 77516.66666666658,
      "d": 154.16666666665697,
      "v": 29
    },
    {
      "midi": 53,
      "hit": false,
      "t": 77879.16666666657,
      "d": 1404.166666666686,
      "v": 58
    },
    {
      "midi": 60,
      "hit": false,
      "t": 77937.4999999999,
      "d": 83.33333333334303,
      "v": 53
    },
    {
      "midi": 63,
      "hit": false,
      "t": 77966.66666666657,
      "d": 470.83333333334303,
      "v": 60
    },
    {
      "midi": 66,
      "hit": false,
      "t": 77991.66666666657,
      "d": 458.33333333334303,
      "v": 54
    },
    {
      "midi": 62,
      "hit": false,
      "t": 77999.99999999991,
      "d": 716.666666666657,
      "v": 66
    },
    {
      "midi": 69,
      "hit": false,
      "t": 77999.99999999991,
      "d": 887.4999999999854,
      "v": 64
    },
    {
      "midi": 74,
      "hit": false,
      "t": 78024.99999999991,
      "d": 937.4999999999854,
      "v": 80
    },
    {
      "midi": 63,
      "hit": false,
      "t": 78558.33333333324,
      "d": 316.66666666665697,
      "v": 21
    },
    {
      "midi": 66,
      "hit": false,
      "t": 78558.33333333324,
      "d": 333.3333333333285,
      "v": 32
    },
    {
      "midi": 63,
      "hit": false,
      "t": 79037.4999999999,
      "d": 154.16666666668607,
      "v": 26
    },
    {
      "midi": 72,
      "hit": false,
      "t": 79041.66666666657,
      "d": 266.66666666668607,
      "v": 34
    },
    {
      "midi": 60,
      "hit": false,
      "t": 79049.99999999991,
      "d": 216.66666666667152,
      "v": 25
    },
    {
      "midi": 69,
      "hit": false,
      "t": 79054.16666666658,
      "d": 166.66666666667152,
      "v": 34
    },
    {
      "midi": 66,
      "hit": false,
      "t": 79054.16666666658,
      "d": 204.16666666667152,
      "v": 25
    },
    {
      "midi": 57,
      "hit": false,
      "t": 79824.99999999993,
      "d": 175.0000000000291,
      "v": 57
    },
    {
      "midi": 63,
      "hit": false,
      "t": 79829.1666666666,
      "d": 237.5000000000291,
      "v": 55
    },
    {
      "midi": 68,
      "hit": false,
      "t": 79833.33333333327,
      "d": 200.00000000001455,
      "v": 71
    },
    {
      "midi": 93,
      "hit": false,
      "t": 79837.49999999994,
      "d": 100,
      "v": 74
    },
    {
      "midi": 81,
      "hit": false,
      "t": 79837.49999999994,
      "d": 104.16666666667152,
      "v": 51
    },
    {
      "midi": 83,
      "hit": false,
      "t": 79845.83333333327,
      "d": 95.83333333334303,
      "v": 63
    },
    {
      "midi": 92,
      "hit": false,
      "t": 79849.99999999994,
      "d": 108.33333333334303,
      "v": 40
    },
    {
      "midi": 94,
      "hit": false,
      "t": 80062.49999999996,
      "d": 366.66666666668607,
      "v": 65
    },
    {
      "midi": 82,
      "hit": false,
      "t": 80066.66666666663,
      "d": 370.83333333334303,
      "v": 54
    },
    {
      "midi": 67,
      "hit": false,
      "t": 80079.16666666663,
      "d": 279.1666666666715,
      "v": 66
    },
    {
      "midi": 89,
      "hit": false,
      "t": 80083.3333333333,
      "d": 312.5,
      "v": 62
    },
    {
      "midi": 62,
      "hit": false,
      "t": 80087.49999999997,
      "d": 287.5,
      "v": 59
    },
    {
      "midi": 56,
      "hit": false,
      "t": 80091.66666666664,
      "d": 333.3333333333285,
      "v": 51
    },
    {
      "midi": 55,
      "hit": false,
      "t": 80470.83333333331,
      "d": 262.5,
      "v": 44
    },
    {
      "midi": 93,
      "hit": false,
      "t": 80479.16666666664,
      "d": 291.6666666666715,
      "v": 56
    },
    {
      "midi": 66,
      "hit": false,
      "t": 80479.16666666664,
      "d": 329.1666666666715,
      "v": 42
    },
    {
      "midi": 88,
      "hit": false,
      "t": 80483.33333333331,
      "d": 345.8333333333285,
      "v": 41
    },
    {
      "midi": 61,
      "hit": false,
      "t": 80495.83333333331,
      "d": 379.16666666665697,
      "v": 42
    },
    {
      "midi": 81,
      "hit": false,
      "t": 80499.99999999999,
      "d": 300,
      "v": 24
    },
    {
      "midi": 94,
      "hit": false,
      "t": 80966.66666666664,
      "d": 404.1666666666715,
      "v": 47
    },
    {
      "midi": 82,
      "hit": false,
      "t": 80970.83333333331,
      "d": 366.66666666665697,
      "v": 35
    },
    {
      "midi": 62,
      "hit": false,
      "t": 80974.99999999999,
      "d": 320.8333333333285,
      "v": 37
    },
    {
      "midi": 56,
      "hit": false,
      "t": 80974.99999999999,
      "d": 379.16666666665697,
      "v": 35
    },
    {
      "midi": 89,
      "hit": false,
      "t": 80983.33333333331,
      "d": 320.8333333333285,
      "v": 44
    },
    {
      "midi": 67,
      "hit": false,
      "t": 80999.99999999999,
      "d": 312.49999999998545,
      "v": 15
    },
    {
      "midi": 68,
      "hit": false,
      "t": 81783.33333333331,
      "d": 137.5000000000291,
      "v": 67
    },
    {
      "midi": 63,
      "hit": false,
      "t": 81783.33333333331,
      "d": 187.5000000000291,
      "v": 53
    },
    {
      "midi": 57,
      "hit": false,
      "t": 81787.49999999999,
      "d": 83.33333333335759,
      "v": 62
    },
    {
      "midi": 96,
      "hit": false,
      "t": 81804.16666666666,
      "d": 79.16666666668607,
      "v": 83
    },
    {
      "midi": 91,
      "hit": false,
      "t": 81808.33333333333,
      "d": 79.16666666668607,
      "v": 69
    },
    {
      "midi": 84,
      "hit": false,
      "t": 81808.33333333333,
      "d": 87.50000000001455,
      "v": 71
    },
    {
      "midi": 92,
      "hit": false,
      "t": 81816.66666666667,
      "d": 29.166666666671517,
      "v": 35
    },
    {
      "midi": 67,
      "hit": false,
      "t": 82020.83333333334,
      "d": 154.16666666667152,
      "v": 58
    },
    {
      "midi": 62,
      "hit": false,
      "t": 82025.00000000001,
      "d": 179.16666666667152,
      "v": 54
    },
    {
      "midi": 56,
      "hit": false,
      "t": 82029.16666666669,
      "d": 220.83333333332848,
      "v": 38
    },
    {
      "midi": 94,
      "hit": false,
      "t": 82033.33333333336,
      "d": 179.16666666665697,
      "v": 65
    },
    {
      "midi": 90,
      "hit": false,
      "t": 82041.66666666669,
      "d": 25,
      "v": 44
    },
    {
      "midi": 82,
      "hit": false,
      "t": 82041.66666666669,
      "d": 183.33333333332848,
      "v": 45
    },
    {
      "midi": 66,
      "hit": false,
      "t": 82316.66666666669,
      "d": 116.66666666670062,
      "v": 59
    },
    {
      "midi": 93,
      "hit": false,
      "t": 82320.83333333336,
      "d": 75.00000000001455,
      "v": 65
    },
    {
      "midi": 88,
      "hit": false,
      "t": 82320.83333333336,
      "d": 95.83333333335759,
      "v": 64
    },
    {
      "midi": 55,
      "hit": false,
      "t": 82325.00000000003,
      "d": 66.66666666667152,
      "v": 58
    },
    {
      "midi": 81,
      "hit": false,
      "t": 82329.1666666667,
      "d": 70.83333333334303,
      "v": 47
    },
    {
      "midi": 61,
      "hit": false,
      "t": 82337.50000000003,
      "d": 141.66666666668607,
      "v": 44
    },
    {
      "midi": 83,
      "hit": false,
      "t": 82341.6666666667,
      "d": 25,
      "v": 33
    },
    {
      "midi": 65,
      "hit": false,
      "t": 82525.00000000006,
      "d": 154.16666666667152,
      "v": 54
    },
    {
      "midi": 92,
      "hit": false,
      "t": 82525.00000000006,
      "d": 200.00000000001455,
      "v": 59
    },
    {
      "midi": 60,
      "hit": false,
      "t": 82533.33333333339,
      "d": 162.50000000001455,
      "v": 42
    },
    {
      "midi": 87,
      "hit": false,
      "t": 82533.33333333339,
      "d": 208.33333333334303,
      "v": 64
    },
    {
      "midi": 80,
      "hit": false,
      "t": 82537.50000000006,
      "d": 195.83333333334303,
      "v": 42
    },
    {
      "midi": 54,
      "hit": false,
      "t": 82545.83333333339,
      "d": 237.50000000001455,
      "v": 39
    },
    {
      "midi": 91,
      "hit": false,
      "t": 82841.66666666673,
      "d": 300.00000000001455,
      "v": 63
    },
    {
      "midi": 79,
      "hit": false,
      "t": 82841.66666666673,
      "d": 387.50000000001455,
      "v": 46
    },
    {
      "midi": 64,
      "hit": false,
      "t": 82845.8333333334,
      "d": 179.16666666667152,
      "v": 58
    },
    {
      "midi": 86,
      "hit": false,
      "t": 82845.8333333334,
      "d": 312.50000000001455,
      "v": 60
    },
    {
      "midi": 59,
      "hit": false,
      "t": 82854.16666666673,
      "d": 183.33333333334303,
      "v": 56
    },
    {
      "midi": 53,
      "hit": false,
      "t": 82858.3333333334,
      "d": 220.83333333334303,
      "v": 54
    },
    {
      "midi": 53,
      "hit": false,
      "t": 83833.33333333342,
      "d": 45.833333333343035,
      "v": 54
    },
    {
      "midi": 78,
      "hit": false,
      "t": 83833.33333333342,
      "d": 125.00000000001455,
      "v": 50
    },
    {
      "midi": 90,
      "hit": false,
      "t": 83833.33333333342,
      "d": 129.16666666668607,
      "v": 64
    },
    {
      "midi": 85,
      "hit": false,
      "t": 83837.50000000009,
      "d": 104.16666666667152,
      "v": 59
    },
    {
      "midi": 85,
      "hit": false,
      "t": 84037.5000000001,
      "d": 75,
      "v": 52
    },
    {
      "midi": 48,
      "hit": false,
      "t": 84045.83333333343,
      "d": 120.83333333334303,
      "v": 51
    },
    {
      "midi": 89,
      "hit": false,
      "t": 84054.16666666676,
      "d": 95.83333333334303,
      "v": 50
    },
    {
      "midi": 58,
      "hit": false,
      "t": 84058.33333333343,
      "d": 179.16666666667152,
      "v": 38
    },
    {
      "midi": 77,
      "hit": false,
      "t": 84070.83333333343,
      "d": 191.66666666667152,
      "v": 29
    },
    {
      "midi": 67,
      "hit": false,
      "t": 84541.66666666677,
      "d": 120.83333333334303,
      "v": 35
    },
    {
      "midi": 63,
      "hit": false,
      "t": 84545.83333333344,
      "d": 191.66666666667152,
      "v": 35
    },
    {
      "midi": 62,
      "hit": false,
      "t": 84550.00000000012,
      "d": 162.5,
      "v": 41
    },
    {
      "midi": 74,
      "hit": false,
      "t": 85412.50000000012,
      "d": 37.5,
      "v": 60
    },
    {
      "midi": 73,
      "hit": false,
      "t": 85454.16666666679,
      "d": 79.16666666667152,
      "v": 51
    },
    {
      "midi": 72,
      "hit": false,
      "t": 85504.16666666679,
      "d": 79.16666666667152,
      "v": 42
    },
    {
      "midi": 71,
      "hit": false,
      "t": 85570.83333333346,
      "d": 800.0000000000291,
      "v": 43
    },
    {
      "midi": 63,
      "hit": false,
      "t": 85583.33333333346,
      "d": 233.33333333334303,
      "v": 33
    },
    {
      "midi": 67,
      "hit": false,
      "t": 85587.50000000013,
      "d": 183.33333333334303,
      "v": 33
    },
    {
      "midi": 62,
      "hit": false,
      "t": 85600.00000000013,
      "d": 204.16666666667152,
      "v": 26
    },
    {
      "midi": 63,
      "hit": false,
      "t": 86083.33333333347,
      "d": 245.83333333334303,
      "v": 35
    },
    {
      "midi": 53,
      "hit": false,
      "t": 86087.50000000015,
      "d": 1100.000000000029,
      "v": 44
    },
    {
      "midi": 63,
      "hit": false,
      "t": 86537.50000000016,
      "d": 170.83333333334303,
      "v": 23
    },
    {
      "midi": 60,
      "hit": false,
      "t": 86558.3333333335,
      "d": 41.666666666656965,
      "v": 22
    },
    {
      "midi": 71,
      "hit": false,
      "t": 86566.66666666683,
      "d": 50,
      "v": 62
    },
    {
      "midi": 72,
      "hit": false,
      "t": 86633.3333333335,
      "d": 66.66666666667152,
      "v": 57
    },
    {
      "midi": 71,
      "hit": false,
      "t": 86687.50000000017,
      "d": 50,
      "v": 51
    },
    {
      "midi": 67,
      "hit": false,
      "t": 86741.66666666685,
      "d": 45.83333333332848,
      "v": 49
    },
    {
      "midi": 70,
      "hit": false,
      "t": 86825.00000000017,
      "d": 54.16666666667152,
      "v": 47
    },
    {
      "midi": 72,
      "hit": false,
      "t": 86920.83333333352,
      "d": 29.166666666671517,
      "v": 18
    },
    {
      "midi": 70,
      "hit": false,
      "t": 86950.00000000019,
      "d": 87.5,
      "v": 37
    },
    {
      "midi": 67,
      "hit": false,
      "t": 87033.33333333352,
      "d": 25,
      "v": 50
    },
    {
      "midi": 63,
      "hit": false,
      "t": 87070.83333333352,
      "d": 99.99999999998545,
      "v": 34
    },
    {
      "midi": 69,
      "hit": false,
      "t": 87091.66666666685,
      "d": 141.66666666665697,
      "v": 68
    },
    {
      "midi": 65,
      "hit": false,
      "t": 87245.8333333335,
      "d": 62.5,
      "v": 40
    },
    {
      "midi": 63,
      "hit": false,
      "t": 87525.00000000017,
      "d": 58.33333333332848,
      "v": 55
    },
    {
      "midi": 60,
      "hit": false,
      "t": 87533.3333333335,
      "d": 29.166666666671517,
      "v": 45
    },
    {
      "midi": 60,
      "hit": false,
      "t": 87775.00000000017,
      "d": 120.83333333332848,
      "v": 33
    },
    {
      "midi": 50,
      "hit": false,
      "t": 87775.00000000017,
      "d": 241.66666666667152,
      "v": 45
    },
    {
      "midi": 54,
      "hit": false,
      "t": 87783.3333333335,
      "d": 154.16666666667152,
      "v": 26
    },
    {
      "midi": 62,
      "hit": false,
      "t": 87783.3333333335,
      "d": 183.33333333334303,
      "v": 36
    },
    {
      "midi": 58,
      "hit": false,
      "t": 88037.50000000019,
      "d": 187.5,
      "v": 42
    },
    {
      "midi": 43,
      "hit": false,
      "t": 88045.83333333352,
      "d": 425,
      "v": 38
    },
    {
      "midi": 55,
      "hit": false,
      "t": 88054.16666666685,
      "d": 129.16666666667152,
      "v": 40
    },
    {
      "midi": 62,
      "hit": false,
      "t": 88491.66666666685,
      "d": 249.99999999998545,
      "v": 34
    },
    {
      "midi": 57,
      "hit": false,
      "t": 88500.00000000017,
      "d": 133.33333333332848,
      "v": 34
    },
    {
      "midi": 55,
      "hit": false,
      "t": 88512.50000000017,
      "d": 95.83333333332848,
      "v": 35
    },
    {
      "midi": 54,
      "hit": false,
      "t": 88962.50000000016,
      "d": 491.6666666666715,
      "v": 46
    },
    {
      "midi": 62,
      "hit": false,
      "t": 88970.83333333349,
      "d": 337.5,
      "v": 33
    },
    {
      "midi": 58,
      "hit": false,
      "t": 88975.00000000016,
      "d": 462.5,
      "v": 42
    },
    {
      "midi": 62,
      "hit": false,
      "t": 89487.50000000016,
      "d": 295.83333333334303,
      "v": 36
    },
    {
      "midi": 58,
      "hit": false,
      "t": 89487.50000000016,
      "d": 395.8333333333576,
      "v": 23
    },
    {
      "midi": 53,
      "hit": false,
      "t": 89491.66666666683,
      "d": 329.1666666666715,
      "v": 43
    },
    {
      "midi": 66,
      "hit": false,
      "t": 89629.16666666683,
      "d": 91.66666666667152,
      "v": 68
    },
    {
      "midi": 67,
      "hit": false,
      "t": 89745.8333333335,
      "d": 91.66666666667152,
      "v": 56
    },
    {
      "midi": 69,
      "hit": false,
      "t": 89879.16666666685,
      "d": 83.33333333334303,
      "v": 64
    },
    {
      "midi": 62,
      "hit": false,
      "t": 90000.00000000019,
      "d": 291.66666666668607,
      "v": 36
    },
    {
      "midi": 55,
      "hit": false,
      "t": 90004.16666666686,
      "d": 362.50000000001455,
      "v": 51
    },
    {
      "midi": 58,
      "hit": false,
      "t": 90008.33333333353,
      "d": 345.83333333334303,
      "v": 32
    },
    {
      "midi": 62,
      "hit": false,
      "t": 90508.33333333355,
      "d": 200.0000000000291,
      "v": 53
    },
    {
      "midi": 79,
      "hit": false,
      "t": 90512.50000000022,
      "d": 87.5,
      "v": 70
    },
    {
      "midi": 74,
      "hit": false,
      "t": 90512.50000000022,
      "d": 104.16666666667152,
      "v": 73
    },
    {
      "midi": 69,
      "hit": false,
      "t": 90516.66666666689,
      "d": 87.5,
      "v": 56
    },
    {
      "midi": 78,
      "hit": false,
      "t": 90691.66666666689,
      "d": 108.33333333335759,
      "v": 53
    },
    {
      "midi": 68,
      "hit": false,
      "t": 90695.83333333356,
      "d": 91.66666666668607,
      "v": 50
    },
    {
      "midi": 73,
      "hit": false,
      "t": 90700.00000000023,
      "d": 100.00000000001455,
      "v": 57
    },
    {
      "midi": 61,
      "hit": false,
      "t": 90704.1666666669,
      "d": 141.66666666667152,
      "v": 48
    },
    {
      "midi": 77,
      "hit": false,
      "t": 90895.83333333358,
      "d": 45.83333333332848,
      "v": 46
    },
    {
      "midi": 72,
      "hit": false,
      "t": 90895.83333333358,
      "d": 62.5,
      "v": 52
    },
    {
      "midi": 60,
      "hit": false,
      "t": 90900.00000000025,
      "d": 112.49999999998545,
      "v": 36
    },
    {
      "midi": 67,
      "hit": false,
      "t": 90908.33333333358,
      "d": 58.33333333332848,
      "v": 28
    },
    {
      "midi": 71,
      "hit": false,
      "t": 91075.00000000023,
      "d": 158.33333333334303,
      "v": 49
    },
    {
      "midi": 76,
      "hit": false,
      "t": 91079.1666666669,
      "d": 183.33333333334303,
      "v": 38
    },
    {
      "midi": 65,
      "hit": false,
      "t": 91087.50000000023,
      "d": 183.33333333334303,
      "v": 27
    },
    {
      "midi": 59,
      "hit": false,
      "t": 91100.00000000023,
      "d": 295.83333333334303,
      "v": 32
    },
    {
      "midi": 75,
      "hit": false,
      "t": 91429.1666666669,
      "d": 162.5,
      "v": 44
    },
    {
      "midi": 70,
      "hit": false,
      "t": 91433.33333333358,
      "d": 258.3333333333285,
      "v": 49
    },
    {
      "midi": 58,
      "hit": false,
      "t": 91445.83333333358,
      "d": 79.16666666665697,
      "v": 33
    },
    {
      "midi": 64,
      "hit": false,
      "t": 91454.1666666669,
      "d": 245.83333333332848,
      "v": 18
    },
    {
      "midi": 66,
      "hit": false,
      "t": 91983.33333333356,
      "d": 379.16666666665697,
      "v": 38
    },
    {
      "midi": 62,
      "hit": false,
      "t": 91991.66666666689,
      "d": 237.5,
      "v": 30
    },
    {
      "midi": 58,
      "hit": false,
      "t": 91991.66666666689,
      "d": 308.3333333333285,
      "v": 23
    },
    {
      "midi": 74,
      "hit": false,
      "t": 91991.66666666689,
      "d": 1975,
      "v": 34
    },
    {
      "midi": 69,
      "hit": false,
      "t": 91995.83333333356,
      "d": 437.49999999998545,
      "v": 47
    },
    {
      "midi": 48,
      "hit": false,
      "t": 91995.83333333356,
      "d": 687.4999999999854,
      "v": 37
    },
    {
      "midi": 66,
      "hit": false,
      "t": 92525.00000000022,
      "d": 462.49999999998545,
      "v": 35
    },
    {
      "midi": 62,
      "hit": false,
      "t": 92533.33333333355,
      "d": 366.66666666665697,
      "v": 44
    },
    {
      "midi": 58,
      "hit": false,
      "t": 92541.66666666688,
      "d": 258.3333333333285,
      "v": 26
    },
    {
      "midi": 48,
      "hit": false,
      "t": 92791.66666666688,
      "d": 804.1666666666861,
      "v": 51
    },
    {
      "midi": 67,
      "hit": false,
      "t": 93029.16666666688,
      "d": 712.5000000000146,
      "v": 45
    },
    {
      "midi": 62,
      "hit": false,
      "t": 93037.50000000022,
      "d": 333.33333333334303,
      "v": 44
    },
    {
      "midi": 58,
      "hit": false,
      "t": 93041.66666666689,
      "d": 325,
      "v": 33
    },
    {
      "midi": 58,
      "hit": false,
      "t": 93495.83333333356,
      "d": 183.33333333332848,
      "v": 25
    },
    {
      "midi": 62,
      "hit": false,
      "t": 93504.16666666689,
      "d": 175,
      "v": 36
    },
    {
      "midi": 48,
      "hit": false,
      "t": 93770.83333333356,
      "d": 95.83333333332848,
      "v": 52
    },
    {
      "midi": 63,
      "hit": false,
      "t": 94012.50000000022,
      "d": 408.33333333334303,
      "v": 52
    },
    {
      "midi": 67,
      "hit": false,
      "t": 94025.00000000022,
      "d": 379.1666666666715,
      "v": 53
    },
    {
      "midi": 71,
      "hit": false,
      "t": 94029.16666666689,
      "d": 416.6666666666715,
      "v": 52
    },
    {
      "midi": 62,
      "hit": false,
      "t": 94254.16666666689,
      "d": 554.1666666666861,
      "v": 69
    },
    {
      "midi": 63,
      "hit": false,
      "t": 94508.33333333356,
      "d": 395.83333333334303,
      "v": 42
    },
    {
      "midi": 71,
      "hit": false,
      "t": 94520.83333333356,
      "d": 325.00000000001455,
      "v": 43
    },
    {
      "midi": 67,
      "hit": false,
      "t": 94525.00000000023,
      "d": 341.6666666666715,
      "v": 35
    },
    {
      "midi": 59,
      "hit": false,
      "t": 94766.6666666669,
      "d": 154.16666666667152,
      "v": 43
    },
    {
      "midi": 63,
      "hit": false,
      "t": 95004.1666666669,
      "d": 341.6666666666715,
      "v": 39
    },
    {
      "midi": 70,
      "hit": false,
      "t": 95020.83333333358,
      "d": 379.1666666666715,
      "v": 49
    },
    {
      "midi": 67,
      "hit": false,
      "t": 95025.00000000025,
      "d": 320.8333333333285,
      "v": 40
    },
    {
      "midi": 57,
      "hit": false,
      "t": 95033.33333333358,
      "d": 241.66666666667152,
      "v": 34
    },
    {
      "midi": 63,
      "hit": false,
      "t": 95504.16666666692,
      "d": 191.66666666665697,
      "v": 35
    },
    {
      "midi": 60,
      "hit": false,
      "t": 95508.33333333359,
      "d": 116.66666666665697,
      "v": 37
    },
    {
      "midi": 69,
      "hit": false,
      "t": 95508.33333333359,
      "d": 437.49999999998545,
      "v": 53
    },
    {
      "midi": 62,
      "hit": false,
      "t": 95979.1666666669,
      "d": 295.8333333333285,
      "v": 33
    },
    {
      "midi": 65,
      "hit": false,
      "t": 95991.6666666669,
      "d": 220.83333333332848,
      "v": 38
    },
    {
      "midi": 53,
      "hit": false,
      "t": 95991.6666666669,
      "d": 562.5,
      "v": 47
    },
    {
      "midi": 41,
      "hit": false,
      "t": 96262.50000000023,
      "d": 104.16666666667152,
      "v": 37
    },
    {
      "midi": 41,
      "hit": false,
      "t": 96500.00000000023,
      "d": 1108.3333333333576,
      "v": 37
    },
    {
      "midi": 53,
      "hit": false,
      "t": 96754.1666666669,
      "d": 50,
      "v": 44
    },
    {
      "midi": 55,
      "hit": false,
      "t": 96762.50000000023,
      "d": 29.166666666671517,
      "v": 45
    },
    {
      "midi": 53,
      "hit": false,
      "t": 96995.83333333358,
      "d": 116.66666666667152,
      "v": 39
    },
    {
      "midi": 55,
      "hit": false,
      "t": 97000.00000000025,
      "d": 137.5,
      "v": 46
    },
    {
      "midi": 53,
      "hit": false,
      "t": 97250.00000000025,
      "d": 620.833333333343,
      "v": 44
    },
    {
      "midi": 57,
      "hit": false,
      "t": 97475.00000000025,
      "d": 191.66666666667152,
      "v": 55
    },
    {
      "midi": 41,
      "hit": false,
      "t": 97720.83333333359,
      "d": 100,
      "v": 50
    },
    {
      "midi": 58,
      "hit": false,
      "t": 97733.33333333359,
      "d": 83.33333333332848,
      "v": 43
    },
    {
      "midi": 41,
      "hit": false,
      "t": 97983.33333333359,
      "d": 1679.166666666686,
      "v": 40
    },
    {
      "midi": 58,
      "hit": false,
      "t": 97987.50000000026,
      "d": 195.83333333334303,
      "v": 39
    },
    {
      "midi": 56,
      "hit": false,
      "t": 98237.50000000028,
      "d": 116.66666666667152,
      "v": 33
    },
    {
      "midi": 59,
      "hit": false,
      "t": 98254.16666666695,
      "d": 70.83333333332848,
      "v": 45
    },
    {
      "midi": 56,
      "hit": false,
      "t": 98516.66666666695,
      "d": 66.66666666665697,
      "v": 40
    },
    {
      "midi": 53,
      "hit": false,
      "t": 98525.00000000028,
      "d": 37.5,
      "v": 38
    },
    {
      "midi": 61,
      "hit": false,
      "t": 98641.66666666693,
      "d": 25,
      "v": 31
    },
    {
      "midi": 62,
      "hit": false,
      "t": 98766.66666666693,
      "d": 133.3333333333576,
      "v": 54
    },
    {
      "midi": 53,
      "hit": false,
      "t": 98783.3333333336,
      "d": 87.50000000001455,
      "v": 38
    },
    {
      "midi": 59,
      "hit": false,
      "t": 98787.50000000028,
      "d": 133.33333333334303,
      "v": 54
    },
    {
      "midi": 59,
      "hit": false,
      "t": 99045.83333333362,
      "d": 33.33333333332848,
      "v": 41
    },
    {
      "midi": 53,
      "hit": false,
      "t": 99045.83333333362,
      "d": 150,
      "v": 45
    },
    {
      "midi": 56,
      "hit": false,
      "t": 99058.33333333362,
      "d": 100,
      "v": 26
    },
    {
      "midi": 56,
      "hit": false,
      "t": 99291.66666666695,
      "d": 112.50000000001455,
      "v": 67
    },
    {
      "midi": 65,
      "hit": false,
      "t": 99295.83333333362,
      "d": 104.16666666667152,
      "v": 62
    },
    {
      "midi": 53,
      "hit": false,
      "t": 99295.83333333362,
      "d": 112.50000000001455,
      "v": 54
    },
    {
      "midi": 59,
      "hit": false,
      "t": 99300.00000000029,
      "d": 129.16666666667152,
      "v": 62
    },
    {
      "midi": 62,
      "hit": false,
      "t": 99300.00000000029,
      "d": 141.66666666667152,
      "v": 55
    },
    {
      "midi": 59,
      "hit": false,
      "t": 99537.50000000029,
      "d": 29.166666666656965,
      "v": 43
    },
    {
      "midi": 53,
      "hit": false,
      "t": 99558.33333333362,
      "d": 445.8333333333285,
      "v": 48
    },
    {
      "midi": 68,
      "hit": false,
      "t": 99791.66666666695,
      "d": 154.16666666667152,
      "v": 62
    },
    {
      "midi": 62,
      "hit": false,
      "t": 99795.83333333362,
      "d": 104.16666666667152,
      "v": 57
    },
    {
      "midi": 41,
      "hit": false,
      "t": 99800.00000000029,
      "d": 120.83333333332848,
      "v": 44
    },
    {
      "midi": 59,
      "hit": false,
      "t": 99800.00000000029,
      "d": 120.83333333332848,
      "v": 53
    },
    {
      "midi": 65,
      "hit": false,
      "t": 99800.00000000029,
      "d": 125,
      "v": 54
    },
    {
      "midi": 41,
      "hit": false,
      "t": 100041.66666666695,
      "d": 587.5000000000291,
      "v": 45
    },
    {
      "midi": 68,
      "hit": false,
      "t": 100045.83333333362,
      "d": 91.66666666667152,
      "v": 62
    },
    {
      "midi": 59,
      "hit": false,
      "t": 100054.16666666695,
      "d": 54.16666666667152,
      "v": 45
    },
    {
      "midi": 62,
      "hit": false,
      "t": 100058.33333333362,
      "d": 79.16666666667152,
      "v": 53
    },
    {
      "midi": 65,
      "hit": false,
      "t": 100066.66666666695,
      "d": 37.5,
      "v": 31
    },
    {
      "midi": 51,
      "hit": false,
      "t": 100287.50000000029,
      "d": 112.50000000001455,
      "v": 46
    },
    {
      "midi": 66,
      "hit": false,
      "t": 100300.00000000029,
      "d": 141.66666666667152,
      "v": 49
    },
    {
      "midi": 69,
      "hit": false,
      "t": 100300.00000000029,
      "d": 145.83333333334303,
      "v": 59
    },
    {
      "midi": 62,
      "hit": false,
      "t": 100304.16666666696,
      "d": 120.83333333334303,
      "v": 60
    },
    {
      "midi": 57,
      "hit": false,
      "t": 100308.33333333363,
      "d": 125,
      "v": 51
    },
    {
      "midi": 57,
      "hit": false,
      "t": 100545.83333333363,
      "d": 175.00000000001455,
      "v": 54
    },
    {
      "midi": 66,
      "hit": false,
      "t": 100545.83333333363,
      "d": 208.33333333334303,
      "v": 49
    },
    {
      "midi": 62,
      "hit": false,
      "t": 100550.0000000003,
      "d": 183.33333333334303,
      "v": 62
    },
    {
      "midi": 69,
      "hit": false,
      "t": 100550.0000000003,
      "d": 233.33333333334303,
      "v": 57
    },
    {
      "midi": 41,
      "hit": false,
      "t": 100791.66666666698,
      "d": 150,
      "v": 62
    },
    {
      "midi": 41,
      "hit": false,
      "t": 101041.66666666698,
      "d": 120.83333333332848,
      "v": 53
    },
    {
      "midi": 74,
      "hit": false,
      "t": 101283.33333333363,
      "d": 166.66666666665697,
      "v": 55
    },
    {
      "midi": 57,
      "hit": false,
      "t": 101291.66666666696,
      "d": 125,
      "v": 53
    },
    {
      "midi": 62,
      "hit": false,
      "t": 101291.66666666696,
      "d": 133.33333333332848,
      "v": 50
    },
    {
      "midi": 66,
      "hit": false,
      "t": 101291.66666666696,
      "d": 141.66666666665697,
      "v": 55
    },
    {
      "midi": 51,
      "hit": false,
      "t": 101295.83333333363,
      "d": 129.16666666665697,
      "v": 39
    },
    {
      "midi": 69,
      "hit": false,
      "t": 101295.83333333363,
      "d": 137.49999999998545,
      "v": 63
    },
    {
      "midi": 74,
      "hit": false,
      "t": 101529.16666666696,
      "d": 145.83333333334303,
      "v": 54
    },
    {
      "midi": 66,
      "hit": false,
      "t": 101533.33333333363,
      "d": 66.66666666667152,
      "v": 57
    },
    {
      "midi": 62,
      "hit": false,
      "t": 101537.5000000003,
      "d": 54.16666666667152,
      "v": 61
    },
    {
      "midi": 69,
      "hit": false,
      "t": 101541.66666666698,
      "d": 29.166666666671517,
      "v": 57
    },
    {
      "midi": 57,
      "hit": false,
      "t": 101545.83333333365,
      "d": 62.49999999998545,
      "v": 47
    },
    {
      "midi": 51,
      "hit": false,
      "t": 101558.33333333365,
      "d": 79.16666666665697,
      "v": 54
    },
    {
      "midi": 41,
      "hit": false,
      "t": 101779.16666666698,
      "d": 54.16666666667152,
      "v": 34
    },
    {
      "midi": 43,
      "hit": false,
      "t": 101795.83333333365,
      "d": 29.166666666671517,
      "v": 29
    },
    {
      "midi": 79,
      "hit": false,
      "t": 102037.50000000032,
      "d": 250,
      "v": 73
    },
    {
      "midi": 73,
      "hit": false,
      "t": 102037.50000000032,
      "d": 291.66666666665697,
      "v": 68
    },
    {
      "midi": 76,
      "hit": false,
      "t": 102041.66666666699,
      "d": 266.66666666665697,
      "v": 66
    },
    {
      "midi": 67,
      "hit": false,
      "t": 102041.66666666699,
      "d": 320.83333333331393,
      "v": 70
    },
    {
      "midi": 53,
      "hit": false,
      "t": 102300.00000000032,
      "d": 87.49999999998545,
      "v": 51
    },
    {
      "midi": 41,
      "hit": false,
      "t": 102545.83333333363,
      "d": 75,
      "v": 43
    },
    {
      "midi": 67,
      "hit": false,
      "t": 102800.0000000003,
      "d": 433.3333333333576,
      "v": 65
    },
    {
      "midi": 58,
      "hit": false,
      "t": 102804.16666666698,
      "d": 412.50000000001455,
      "v": 65
    },
    {
      "midi": 64,
      "hit": false,
      "t": 102808.33333333365,
      "d": 425.00000000001455,
      "v": 62
    },
    {
      "midi": 61,
      "hit": false,
      "t": 102808.33333333365,
      "d": 441.66666666668607,
      "v": 61
    },
    {
      "midi": 41,
      "hit": false,
      "t": 102812.50000000032,
      "d": 829.1666666667006,
      "v": 71
    },
    {
      "midi": 52,
      "hit": false,
      "t": 103062.50000000032,
      "d": 29.166666666671517,
      "v": 31
    },
    {
      "midi": 52,
      "hit": false,
      "t": 103316.666666667,
      "d": 54.16666666667152,
      "v": 51
    },
    {
      "midi": 70,
      "hit": false,
      "t": 103537.50000000035,
      "d": 254.16666666665697,
      "v": 69
    },
    {
      "midi": 61,
      "hit": false,
      "t": 103541.66666666702,
      "d": 241.66666666665697,
      "v": 72
    },
    {
      "midi": 67,
      "hit": false,
      "t": 103545.83333333369,
      "d": 204.16666666665697,
      "v": 55
    },
    {
      "midi": 52,
      "hit": false,
      "t": 103545.83333333369,
      "d": 212.49999999998545,
      "v": 53
    },
    {
      "midi": 64,
      "hit": false,
      "t": 103545.83333333369,
      "d": 233.33333333331393,
      "v": 66
    },
    {
      "midi": 41,
      "hit": false,
      "t": 103770.83333333368,
      "d": 387.49999999998545,
      "v": 52
    },
    {
      "midi": 65,
      "hit": false,
      "t": 104012.50000000033,
      "d": 275,
      "v": 57
    },
    {
      "midi": 62,
      "hit": false,
      "t": 104020.83333333366,
      "d": 250,
      "v": 60
    },
    {
      "midi": 60,
      "hit": false,
      "t": 104025.00000000033,
      "d": 258.3333333333285,
      "v": 64
    },
    {
      "midi": 57,
      "hit": false,
      "t": 104025.00000000033,
      "d": 295.8333333333285,
      "v": 60
    },
    {
      "midi": 50,
      "hit": false,
      "t": 104029.166666667,
      "d": 1762.4999999999854,
      "v": 46
    },
    {
      "midi": 41,
      "hit": false,
      "t": 104270.83333333366,
      "d": 379.1666666666715,
      "v": 37
    },
    {
      "midi": 53,
      "hit": false,
      "t": 104512.50000000033,
      "d": 295.8333333333285,
      "v": 50
    },
    {
      "midi": 62,
      "hit": false,
      "t": 104512.50000000033,
      "d": 666.666666666657,
      "v": 38
    },
    {
      "midi": 57,
      "hit": false,
      "t": 104516.666666667,
      "d": 449.99999999998545,
      "v": 47
    },
    {
      "midi": 60,
      "hit": false,
      "t": 104516.666666667,
      "d": 633.3333333333139,
      "v": 49
    },
    {
      "midi": 41,
      "hit": false,
      "t": 104770.83333333366,
      "d": 133.33333333332848,
      "v": 51
    },
    {
      "midi": 41,
      "hit": false,
      "t": 105245.83333333366,
      "d": 183.33333333332848,
      "v": 69
    },
    {
      "midi": 41,
      "hit": false,
      "t": 105733.33333333366,
      "d": 66.66666666665697,
      "v": 66
    },
    {
      "midi": 70,
      "hit": false,
      "t": 105995.83333333365,
      "d": 579.1666666666861,
      "v": 79
    },
    {
      "midi": 65,
      "hit": false,
      "t": 106000.00000000032,
      "d": 516.6666666666715,
      "v": 76
    },
    {
      "midi": 72,
      "hit": false,
      "t": 106000.00000000032,
      "d": 533.333333333343,
      "v": 82
    },
    {
      "midi": 62,
      "hit": false,
      "t": 106000.00000000032,
      "d": 587.5000000000146,
      "v": 84
    },
    {
      "midi": 53,
      "hit": false,
      "t": 106250.00000000032,
      "d": 187.5,
      "v": 74
    },
    {
      "midi": 53,
      "hit": false,
      "t": 106766.666666667,
      "d": 270.8333333333285,
      "v": 80
    },
    {
      "midi": 70,
      "hit": false,
      "t": 106991.666666667,
      "d": 487.5,
      "v": 56
    },
    {
      "midi": 58,
      "hit": false,
      "t": 107000.00000000033,
      "d": 379.1666666666715,
      "v": 51
    },
    {
      "midi": 62,
      "hit": false,
      "t": 107008.33333333366,
      "d": 329.1666666666715,
      "v": 52
    },
    {
      "midi": 65,
      "hit": false,
      "t": 107012.50000000033,
      "d": 470.83333333334303,
      "v": 49
    },
    {
      "midi": 53,
      "hit": false,
      "t": 107275.00000000033,
      "d": 100,
      "v": 51
    },
    {
      "midi": 62,
      "hit": false,
      "t": 107529.166666667,
      "d": 104.16666666665697,
      "v": 48
    },
    {
      "midi": 58,
      "hit": false,
      "t": 107537.50000000033,
      "d": 95.83333333332848,
      "v": 40
    },
    {
      "midi": 41,
      "hit": false,
      "t": 107758.33333333366,
      "d": 508.33333333334303,
      "v": 54
    },
    {
      "midi": 65,
      "hit": false,
      "t": 107995.83333333366,
      "d": 229.16666666667152,
      "v": 55
    },
    {
      "midi": 63,
      "hit": false,
      "t": 107995.83333333366,
      "d": 233.33333333334303,
      "v": 50
    },
    {
      "midi": 55,
      "hit": false,
      "t": 108000.00000000033,
      "d": 179.16666666665697,
      "v": 56
    },
    {
      "midi": 58,
      "hit": false,
      "t": 108000.00000000033,
      "d": 208.33333333332848,
      "v": 51
    },
    {
      "midi": 53,
      "hit": false,
      "t": 108241.666666667,
      "d": 29.166666666671517,
      "v": 39
    },
    {
      "midi": 77,
      "hit": false,
      "t": 108500.00000000035,
      "d": 279.16666666668607,
      "v": 68
    },
    {
      "midi": 67,
      "hit": false,
      "t": 108504.16666666702,
      "d": 229.16666666667152,
      "v": 62
    },
    {
      "midi": 75,
      "hit": false,
      "t": 108504.16666666702,
      "d": 275.00000000001455,
      "v": 57
    },
    {
      "midi": 70,
      "hit": false,
      "t": 108508.33333333369,
      "d": 241.66666666667152,
      "v": 55
    },
    {
      "midi": 65,
      "hit": false,
      "t": 108754.16666666704,
      "d": 491.6666666666424,
      "v": 90
    },
    {
      "midi": 89,
      "hit": false,
      "t": 109000.00000000036,
      "d": 125,
      "v": 74
    },
    {
      "midi": 79,
      "hit": false,
      "t": 109000.00000000036,
      "d": 150,
      "v": 65
    },
    {
      "midi": 82,
      "hit": false,
      "t": 109000.00000000036,
      "d": 158.33333333332848,
      "v": 67
    },
    {
      "midi": 87,
      "hit": false,
      "t": 109000.00000000036,
      "d": 166.66666666665697,
      "v": 70
    },
    {
      "midi": 53,
      "hit": false,
      "t": 109237.50000000035,
      "d": 66.66666666665697,
      "v": 48
    },
    {
      "midi": 41,
      "hit": false,
      "t": 109745.83333333368,
      "d": 29.166666666671517,
      "v": 33
    },
    {
      "midi": 40,
      "hit": false,
      "t": 109750.00000000035,
      "d": 25,
      "v": 35
    },
    {
      "midi": 66,
      "hit": false,
      "t": 109979.16666666702,
      "d": 450.00000000001455,
      "v": 55
    },
    {
      "midi": 74,
      "hit": false,
      "t": 109979.16666666702,
      "d": 525.0000000000146,
      "v": 70
    },
    {
      "midi": 63,
      "hit": false,
      "t": 109987.50000000035,
      "d": 412.50000000001455,
      "v": 48
    },
    {
      "midi": 69,
      "hit": false,
      "t": 109991.66666666702,
      "d": 583.3333333333576,
      "v": 51
    },
    {
      "midi": 65,
      "hit": false,
      "t": 110237.50000000036,
      "d": 33.33333333332848,
      "v": 41
    },
    {
      "midi": 66,
      "hit": false,
      "t": 110495.8333333337,
      "d": 162.5,
      "v": 25
    },
    {
      "midi": 63,
      "hit": false,
      "t": 110508.3333333337,
      "d": 125,
      "v": 25
    },
    {
      "midi": 63,
      "hit": false,
      "t": 110750.00000000038,
      "d": 920.833333333343,
      "v": 30
    },
    {
      "midi": 66,
      "hit": false,
      "t": 110750.00000000038,
      "d": 1020.833333333343,
      "v": 27
    },
    {
      "midi": 72,
      "hit": false,
      "t": 110766.66666666705,
      "d": 895.833333333343,
      "v": 37
    },
    {
      "midi": 69,
      "hit": false,
      "t": 110775.00000000038,
      "d": 916.6666666666715,
      "v": 33
    },
    {
      "midi": 53,
      "hit": false,
      "t": 111254.16666666705,
      "d": 50,
      "v": 36
    },
    {
      "midi": 41,
      "hit": false,
      "t": 111508.33333333372,
      "d": 116.66666666667152,
      "v": 37
    },
    {
      "midi": 70,
      "hit": false,
      "t": 112037.5000000004,
      "d": 216.66666666667152,
      "v": 30
    },
    {
      "midi": 65,
      "hit": false,
      "t": 112041.66666666706,
      "d": 245.83333333332848,
      "v": 38
    },
    {
      "midi": 55,
      "hit": false,
      "t": 112041.66666666706,
      "d": 433.3333333333285,
      "v": 33
    },
    {
      "midi": 60,
      "hit": false,
      "t": 112045.83333333374,
      "d": 279.16666666665697,
      "v": 17
    },
    {
      "midi": 59,
      "hit": false,
      "t": 112516.66666666705,
      "d": 120.83333333335759,
      "v": 28
    },
    {
      "midi": 69,
      "hit": false,
      "t": 112520.83333333372,
      "d": 100.00000000001455,
      "v": 29
    },
    {
      "midi": 54,
      "hit": false,
      "t": 112525.0000000004,
      "d": 345.8333333333576,
      "v": 25
    },
    {
      "midi": 64,
      "hit": false,
      "t": 112529.16666666706,
      "d": 133.33333333334303,
      "v": 33
    },
    {
      "midi": 70,
      "hit": false,
      "t": 112833.33333333374,
      "d": 83.33333333334303,
      "v": 43
    },
    {
      "midi": 55,
      "hit": false,
      "t": 112837.50000000041,
      "d": 58.333333333343035,
      "v": 58
    },
    {
      "midi": 60,
      "hit": false,
      "t": 112841.66666666708,
      "d": 29.166666666671517,
      "v": 37
    },
    {
      "midi": 65,
      "hit": false,
      "t": 112841.66666666708,
      "d": 33.333333333343035,
      "v": 39
    },
    {
      "midi": 62,
      "hit": false,
      "t": 113316.66666666708,
      "d": 79.16666666667152,
      "v": 49
    },
    {
      "midi": 67,
      "hit": false,
      "t": 113320.83333333375,
      "d": 108.33333333334303,
      "v": 47
    },
    {
      "midi": 72,
      "hit": false,
      "t": 113329.16666666708,
      "d": 125.00000000001455,
      "v": 44
    },
    {
      "midi": 57,
      "hit": false,
      "t": 113333.33333333375,
      "d": 66.66666666667152,
      "v": 44
    },
    {
      "midi": 57,
      "hit": false,
      "t": 113825.00000000044,
      "d": 108.33333333334303,
      "v": 60
    },
    {
      "midi": 68,
      "hit": false,
      "t": 113825.00000000044,
      "d": 141.66666666667152,
      "v": 60
    },
    {
      "midi": 87,
      "hit": false,
      "t": 113825.00000000044,
      "d": 141.66666666667152,
      "v": 74
    },
    {
      "midi": 75,
      "hit": false,
      "t": 113829.16666666711,
      "d": 145.83333333332848,
      "v": 74
    },
    {
      "midi": 61,
      "hit": false,
      "t": 113837.50000000044,
      "d": 150,
      "v": 45
    },
    {
      "midi": 63,
      "hit": false,
      "t": 113837.50000000044,
      "d": 170.83333333332848,
      "v": 45
    },
    {
      "midi": 82,
      "hit": false,
      "t": 113841.66666666711,
      "d": 25,
      "v": 36
    },
    {
      "midi": 81,
      "hit": false,
      "t": 113904.16666666711,
      "d": 29.166666666671517,
      "v": 18
    },
    {
      "midi": 80,
      "hit": false,
      "t": 114029.1666666671,
      "d": 254.16666666668607,
      "v": 58
    },
    {
      "midi": 67,
      "hit": false,
      "t": 114033.33333333377,
      "d": 233.33333333334303,
      "v": 60
    },
    {
      "midi": 86,
      "hit": false,
      "t": 114041.6666666671,
      "d": 229.16666666668607,
      "v": 63
    },
    {
      "midi": 74,
      "hit": false,
      "t": 114041.6666666671,
      "d": 241.66666666668607,
      "v": 68
    },
    {
      "midi": 62,
      "hit": false,
      "t": 114045.83333333377,
      "d": 233.33333333334303,
      "v": 45
    },
    {
      "midi": 56,
      "hit": false,
      "t": 114050.00000000044,
      "d": 270.83333333334303,
      "v": 39
    },
    {
      "midi": 55,
      "hit": false,
      "t": 114345.83333333378,
      "d": 129.16666666668607,
      "v": 65
    },
    {
      "midi": 84,
      "hit": false,
      "t": 114350.00000000045,
      "d": 87.50000000001455,
      "v": 60
    },
    {
      "midi": 72,
      "hit": false,
      "t": 114354.16666666712,
      "d": 104.16666666667152,
      "v": 58
    },
    {
      "midi": 66,
      "hit": false,
      "t": 114358.3333333338,
      "d": 145.83333333334303,
      "v": 62
    },
    {
      "midi": 78,
      "hit": false,
      "t": 114362.50000000047,
      "d": 141.66666666667152,
      "v": 52
    },
    {
      "midi": 61,
      "hit": false,
      "t": 114379.16666666714,
      "d": 162.5,
      "v": 33
    },
    {
      "midi": 78,
      "hit": false,
      "t": 114554.16666666714,
      "d": 379.1666666666715,
      "v": 49
    },
    {
      "midi": 82,
      "hit": false,
      "t": 114554.16666666714,
      "d": 437.5,
      "v": 49
    },
    {
      "midi": 65,
      "hit": false,
      "t": 114562.50000000047,
      "d": 266.6666666666715,
      "v": 53
    },
    {
      "midi": 54,
      "hit": false,
      "t": 114566.66666666714,
      "d": 395.83333333334303,
      "v": 49
    },
    {
      "midi": 70,
      "hit": false,
      "t": 114566.66666666714,
      "d": 416.6666666666715,
      "v": 37
    },
    {
      "midi": 60,
      "hit": false,
      "t": 114570.83333333381,
      "d": 270.8333333333285,
      "v": 45
    },
    {
      "midi": 76,
      "hit": false,
      "t": 115366.66666666714,
      "d": 187.49999999998545,
      "v": 68
    },
    {
      "midi": 81,
      "hit": false,
      "t": 115370.83333333381,
      "d": 154.16666666665697,
      "v": 66
    },
    {
      "midi": 64,
      "hit": false,
      "t": 115379.16666666714,
      "d": 37.5,
      "v": 37
    },
    {
      "midi": 69,
      "hit": false,
      "t": 115379.16666666714,
      "d": 166.66666666665697,
      "v": 54
    },
    {
      "midi": 59,
      "hit": false,
      "t": 115391.66666666714,
      "d": 50,
      "v": 34
    },
    {
      "midi": 80,
      "hit": false,
      "t": 115695.8333333338,
      "d": 154.16666666667152,
      "v": 45
    },
    {
      "midi": 68,
      "hit": false,
      "t": 115708.3333333338,
      "d": 108.33333333332848,
      "v": 47
    },
    {
      "midi": 54,
      "hit": false,
      "t": 115708.3333333338,
      "d": 133.33333333332848,
      "v": 39
    },
    {
      "midi": 75,
      "hit": false,
      "t": 115708.3333333338,
      "d": 145.83333333334303,
      "v": 55
    },
    {
      "midi": 44,
      "hit": false,
      "t": 115720.8333333338,
      "d": 125,
      "v": 37
    },
    {
      "midi": 67,
      "hit": false,
      "t": 116066.66666666714,
      "d": 400,
      "v": 56
    },
    {
      "midi": 79,
      "hit": false,
      "t": 116070.83333333381,
      "d": 350,
      "v": 57
    },
    {
      "midi": 73,
      "hit": false,
      "t": 116075.00000000048,
      "d": 366.66666666665697,
      "v": 54
    },
    {
      "midi": 39,
      "hit": false,
      "t": 116350.00000000048,
      "d": 145.83333333332848,
      "v": 44
    },
    {
      "midi": 46,
      "hit": false,
      "t": 116566.66666666714,
      "d": 483.33333333334303,
      "v": 30
    },
    {
      "midi": 55,
      "hit": false,
      "t": 116870.83333333381,
      "d": 41.66666666667152,
      "v": 45
    },
    {
      "midi": 59,
      "hit": false,
      "t": 117062.50000000048,
      "d": 208.33333333334303,
      "v": 35
    },
    {
      "midi": 62,
      "hit": false,
      "t": 117066.66666666715,
      "d": 183.33333333334303,
      "v": 40
    },
    {
      "midi": 53,
      "hit": false,
      "t": 117066.66666666715,
      "d": 416.6666666666715,
      "v": 35
    },
    {
      "midi": 56,
      "hit": false,
      "t": 117541.66666666717,
      "d": 137.50000000001455,
      "v": 25
    },
    {
      "midi": 59,
      "hit": false,
      "t": 117541.66666666717,
      "d": 175.00000000001455,
      "v": 45
    },
    {
      "midi": 47,
      "hit": false,
      "t": 117558.33333333384,
      "d": 91.66666666667152,
      "v": 32
    },
    {
      "midi": 82,
      "hit": false,
      "t": 118033.33333333385,
      "d": 262.50000000001455,
      "v": 68
    },
    {
      "midi": 73,
      "hit": false,
      "t": 118033.33333333385,
      "d": 270.83333333334303,
      "v": 63
    },
    {
      "midi": 67,
      "hit": false,
      "t": 118033.33333333385,
      "d": 320.83333333334303,
      "v": 62
    },
    {
      "midi": 76,
      "hit": false,
      "t": 118037.50000000052,
      "d": 229.16666666667152,
      "v": 67
    },
    {
      "midi": 79,
      "hit": false,
      "t": 118050.00000000052,
      "d": 175,
      "v": 49
    },
    {
      "midi": 81,
      "hit": false,
      "t": 118354.1666666672,
      "d": 58.33333333332848,
      "v": 56
    },
    {
      "midi": 72,
      "hit": false,
      "t": 118358.33333333387,
      "d": 74.99999999998545,
      "v": 48
    },
    {
      "midi": 66,
      "hit": false,
      "t": 118358.33333333387,
      "d": 158.33333333331393,
      "v": 48
    },
    {
      "midi": 75,
      "hit": false,
      "t": 118379.1666666672,
      "d": 41.666666666656965,
      "v": 23
    },
    {
      "midi": 80,
      "hit": false,
      "t": 118537.50000000051,
      "d": 95.83333333334303,
      "v": 40
    },
    {
      "midi": 75,
      "hit": false,
      "t": 118537.50000000051,
      "d": 150.00000000001455,
      "v": 38
    },
    {
      "midi": 65,
      "hit": false,
      "t": 118541.66666666718,
      "d": 266.6666666666715,
      "v": 37
    },
    {
      "midi": 71,
      "hit": false,
      "t": 118545.83333333385,
      "d": 91.66666666667152,
      "v": 35
    },
    {
      "midi": 79,
      "hit": false,
      "t": 118820.83333333385,
      "d": 245.83333333332848,
      "v": 48
    },
    {
      "midi": 70,
      "hit": false,
      "t": 118820.83333333385,
      "d": 295.8333333333285,
      "v": 36
    },
    {
      "midi": 76,
      "hit": false,
      "t": 118833.33333333385,
      "d": 220.83333333332848,
      "v": 36
    },
    {
      "midi": 73,
      "hit": false,
      "t": 118837.50000000052,
      "d": 341.66666666665697,
      "v": 40
    },
    {
      "midi": 64,
      "hit": false,
      "t": 118845.83333333385,
      "d": 437.5,
      "v": 35
    },
    {
      "midi": 78,
      "hit": false,
      "t": 119308.33333333385,
      "d": 241.66666666667152,
      "v": 51
    },
    {
      "midi": 75,
      "hit": false,
      "t": 119320.83333333385,
      "d": 387.5,
      "v": 40
    },
    {
      "midi": 69,
      "hit": false,
      "t": 119325.00000000052,
      "d": 250,
      "v": 33
    },
    {
      "midi": 63,
      "hit": false,
      "t": 119329.1666666672,
      "d": 150,
      "v": 39
    },
    {
      "midi": 72,
      "hit": false,
      "t": 119329.1666666672,
      "d": 200,
      "v": 39
    },
    {
      "midi": 77,
      "hit": false,
      "t": 119808.33333333385,
      "d": 354.1666666666715,
      "v": 42
    },
    {
      "midi": 65,
      "hit": false,
      "t": 119808.33333333385,
      "d": 420.83333333334303,
      "v": 36
    },
    {
      "midi": 72,
      "hit": false,
      "t": 119816.66666666718,
      "d": 350.00000000001455,
      "v": 44
    },
    {
      "midi": 60,
      "hit": false,
      "t": 119816.66666666718,
      "d": 858.3333333333576,
      "v": 28
    },
    {
      "midi": 57,
      "hit": false,
      "t": 119820.83333333385,
      "d": 783.333333333343,
      "v": 35
    },
    {
      "midi": 50,
      "hit": false,
      "t": 119829.16666666718,
      "d": 779.1666666666861,
      "v": 31
    },
    {
      "midi": 69,
      "hit": false,
      "t": 120745.83333333387,
      "d": 33.33333333332848,
      "v": 39
    },
    {
      "midi": 72,
      "hit": false,
      "t": 120795.83333333387,
      "d": 70.83333333332848,
      "v": 48
    },
    {
      "midi": 69,
      "hit": false,
      "t": 120854.1666666672,
      "d": 75,
      "v": 40
    },
    {
      "midi": 65,
      "hit": false,
      "t": 120920.83333333387,
      "d": 33.33333333332848,
      "v": 36
    },
    {
      "midi": 64,
      "hit": false,
      "t": 121008.33333333387,
      "d": 158.33333333334303,
      "v": 30
    },
    {
      "midi": 59,
      "hit": false,
      "t": 121012.50000000054,
      "d": 170.83333333334303,
      "v": 41
    },
    {
      "midi": 71,
      "hit": false,
      "t": 121020.83333333387,
      "d": 566.6666666666715,
      "v": 54
    },
    {
      "midi": 53,
      "hit": false,
      "t": 121025.00000000054,
      "d": 191.66666666667152,
      "v": 28
    },
    {
      "midi": 65,
      "hit": false,
      "t": 121304.16666666721,
      "d": 250,
      "v": 51
    },
    {
      "midi": 48,
      "hit": false,
      "t": 122037.50000000054,
      "d": 737.4999999999709,
      "v": 43
    },
    {
      "midi": 59,
      "hit": false,
      "t": 122045.83333333387,
      "d": 45.83333333332848,
      "v": 62
    },
    {
      "midi": 55,
      "hit": false,
      "t": 122058.33333333387,
      "d": 29.166666666656965,
      "v": 16
    },
    {
      "midi": 60,
      "hit": false,
      "t": 122112.50000000052,
      "d": 70.83333333332848,
      "v": 49
    },
    {
      "midi": 59,
      "hit": false,
      "t": 122183.33333333385,
      "d": 62.5,
      "v": 48
    },
    {
      "midi": 55,
      "hit": false,
      "t": 122266.66666666718,
      "d": 37.5,
      "v": 34
    },
    {
      "midi": 58,
      "hit": false,
      "t": 122487.50000000051,
      "d": 25,
      "v": 25
    },
    {
      "midi": 60,
      "hit": false,
      "t": 122533.33333333384,
      "d": 79.16666666665697,
      "v": 53
    },
    {
      "midi": 58,
      "hit": false,
      "t": 122591.66666666717,
      "d": 83.33333333332848,
      "v": 35
    },
    {
      "midi": 55,
      "hit": false,
      "t": 122679.16666666717,
      "d": 54.16666666667152,
      "v": 55
    },
    {
      "midi": 56,
      "hit": false,
      "t": 122795.83333333384,
      "d": 87.5,
      "v": 57
    },
    {
      "midi": 57,
      "hit": false,
      "t": 122933.33333333384,
      "d": 329.16666666665697,
      "v": 54
    },
    {
      "midi": 41,
      "hit": false,
      "t": 123041.66666666717,
      "d": 545.8333333333285,
      "v": 36
    },
    {
      "midi": 51,
      "hit": false,
      "t": 123050.0000000005,
      "d": 583.3333333333285,
      "v": 25
    },
    {
      "midi": 62,
      "hit": false,
      "t": 123245.83333333382,
      "d": 120.83333333334303,
      "v": 57
    },
    {
      "midi": 66,
      "hit": false,
      "t": 123370.83333333384,
      "d": 58.33333333332848,
      "v": 64
    },
    {
      "midi": 69,
      "hit": false,
      "t": 123662.5000000005,
      "d": 79.16666666667152,
      "v": 65
    },
    {
      "midi": 74,
      "hit": false,
      "t": 123779.16666666717,
      "d": 83.33333333332848,
      "v": 61
    },
    {
      "midi": 78,
      "hit": false,
      "t": 123887.5000000005,
      "d": 66.66666666667152,
      "v": 59
    },
    {
      "midi": 60,
      "hit": false,
      "t": 123975.0000000005,
      "d": 445.8333333333285,
      "v": 33
    },
    {
      "midi": 65,
      "hit": false,
      "t": 123979.16666666717,
      "d": 141.66666666667152,
      "v": 19
    },
    {
      "midi": 62,
      "hit": false,
      "t": 123983.33333333384,
      "d": 466.66666666665697,
      "v": 28
    },
    {
      "midi": 76,
      "hit": false,
      "t": 123995.83333333384,
      "d": 225,
      "v": 50
    },
    {
      "midi": 69,
      "hit": false,
      "t": 124158.33333333384,
      "d": 83.33333333332848,
      "v": 45
    },
    {
      "midi": 81,
      "hit": false,
      "t": 124300.0000000005,
      "d": 250,
      "v": 61
    },
    {
      "midi": 53,
      "hit": false,
      "t": 124337.5000000005,
      "d": 70.83333333332848,
      "v": 24
    },
    {
      "midi": 69,
      "hit": false,
      "t": 124450.0000000005,
      "d": 75,
      "v": 47
    },
    {
      "midi": 76,
      "hit": false,
      "t": 124583.33333333382,
      "d": 312.50000000001455,
      "v": 51
    },
    {
      "midi": 58,
      "hit": false,
      "t": 124595.83333333382,
      "d": 225.00000000001455,
      "v": 45
    },
    {
      "midi": 69,
      "hit": false,
      "t": 124679.16666666717,
      "d": 91.66666666667152,
      "v": 1
    },
    {
      "midi": 69,
      "hit": false,
      "t": 124937.50000000051,
      "d": 141.66666666667152,
      "v": 34
    },
    {
      "midi": 58,
      "hit": false,
      "t": 124950.00000000051,
      "d": 137.5,
      "v": 42
    },
    {
      "midi": 73,
      "hit": false,
      "t": 125125.00000000051,
      "d": 212.5,
      "v": 35
    },
    {
      "midi": 69,
      "hit": false,
      "t": 125125.00000000051,
      "d": 225,
      "v": 34
    },
    {
      "midi": 76,
      "hit": false,
      "t": 125133.33333333384,
      "d": 200,
      "v": 50
    },
    {
      "midi": 76,
      "hit": false,
      "t": 125475.00000000051,
      "d": 275,
      "v": 39
    },
    {
      "midi": 73,
      "hit": false,
      "t": 125475.00000000051,
      "d": 316.6666666666715,
      "v": 37
    },
    {
      "midi": 69,
      "hit": false,
      "t": 125475.00000000051,
      "d": 337.5,
      "v": 43
    },
    {
      "midi": 58,
      "hit": false,
      "t": 126025.00000000051,
      "d": 175,
      "v": 39
    },
    {
      "midi": 58,
      "hit": false,
      "t": 126325.00000000051,
      "d": 158.33333333332848,
      "v": 34
    },
    {
      "midi": 73,
      "hit": false,
      "t": 126525.00000000051,
      "d": 66.66666666665697,
      "v": 46
    },
    {
      "midi": 64,
      "hit": false,
      "t": 126533.33333333384,
      "d": 33.33333333332848,
      "v": 34
    },
    {
      "midi": 69,
      "hit": false,
      "t": 126533.33333333384,
      "d": 33.33333333332848,
      "v": 41
    },
    {
      "midi": 61,
      "hit": false,
      "t": 127016.66666666717,
      "d": 20.833333333343035,
      "v": 47
    },
    {
      "midi": 67,
      "hit": false,
      "t": 127020.83333333384,
      "d": 391.66666666668607,
      "v": 44
    },
    {
      "midi": 57,
      "hit": false,
      "t": 127025.00000000051,
      "d": 337.50000000001455,
      "v": 43
    },
    {
      "midi": 62,
      "hit": false,
      "t": 127054.16666666718,
      "d": 266.6666666666715,
      "v": 41
    },
    {
      "midi": 51,
      "hit": false,
      "t": 127058.33333333385,
      "d": 33.33333333332848,
      "v": 44
    },
    {
      "midi": 51,
      "hit": false,
      "t": 127133.33333333385,
      "d": 279.1666666666715,
      "v": 11
    },
    {
      "midi": 41,
      "hit": false,
      "t": 127500.00000000052,
      "d": 558.333333333343,
      "v": 18
    },
    {
      "midi": 51,
      "hit": false,
      "t": 127508.33333333385,
      "d": 87.5,
      "v": 30
    },
    {
      "midi": 66,
      "hit": false,
      "t": 127508.33333333385,
      "d": 237.5,
      "v": 46
    },
    {
      "midi": 57,
      "hit": false,
      "t": 127516.66666666718,
      "d": 216.66666666667152,
      "v": 36
    },
    {
      "midi": 61,
      "hit": false,
      "t": 127529.16666666718,
      "d": 283.33333333334303,
      "v": 35
    },
    {
      "midi": 55,
      "hit": false,
      "t": 127995.83333333385,
      "d": 45.833333333343035,
      "v": 33
    },
    {
      "midi": 60,
      "hit": false,
      "t": 128000.00000000052,
      "d": 83.33333333334303,
      "v": 38
    },
    {
      "midi": 50,
      "hit": false,
      "t": 128008.33333333385,
      "d": 66.66666666668607,
      "v": 26
    },
    {
      "midi": 65,
      "hit": false,
      "t": 128012.50000000052,
      "d": 100.00000000001455,
      "v": 26
    },
    {
      "midi": 77,
      "hit": false,
      "t": 128354.16666666721,
      "d": 108.33333333332848,
      "v": 74
    },
    {
      "midi": 74,
      "hit": false,
      "t": 128508.33333333388,
      "d": 58.33333333332848,
      "v": 49
    },
    {
      "midi": 60,
      "hit": false,
      "t": 128508.33333333388,
      "d": 566.6666666666424,
      "v": 30
    },
    {
      "midi": 62,
      "hit": false,
      "t": 128520.83333333388,
      "d": 549.9999999999709,
      "v": 25
    },
    {
      "midi": 75,
      "hit": false,
      "t": 128645.83333333387,
      "d": 62.5,
      "v": 49
    },
    {
      "midi": 77,
      "hit": false,
      "t": 128766.6666666672,
      "d": 70.83333333332848,
      "v": 68
    },
    {
      "midi": 74,
      "hit": false,
      "t": 128900.00000000052,
      "d": 58.33333333332848,
      "v": 55
    },
    {
      "midi": 53,
      "hit": false,
      "t": 128991.66666666718,
      "d": 1175.0000000000146,
      "v": 24
    },
    {
      "midi": 65,
      "hit": false,
      "t": 129029.16666666718,
      "d": 50.00000000001455,
      "v": 38
    },
    {
      "midi": 65,
      "hit": false,
      "t": 129158.33333333385,
      "d": 41.66666666667152,
      "v": 46
    },
    {
      "midi": 67,
      "hit": false,
      "t": 129266.6666666672,
      "d": 58.33333333332848,
      "v": 48
    },
    {
      "midi": 67,
      "hit": false,
      "t": 129404.1666666672,
      "d": 62.5,
      "v": 60
    },
    {
      "midi": 60,
      "hit": false,
      "t": 129500.00000000052,
      "d": 129.16666666667152,
      "v": 28
    },
    {
      "midi": 62,
      "hit": false,
      "t": 129504.1666666672,
      "d": 150,
      "v": 41
    },
    {
      "midi": 69,
      "hit": false,
      "t": 129516.6666666672,
      "d": 58.33333333332848,
      "v": 68
    },
    {
      "midi": 69,
      "hit": false,
      "t": 129637.50000000052,
      "d": 62.5,
      "v": 46
    },
    {
      "midi": 70,
      "hit": false,
      "t": 129745.83333333385,
      "d": 54.16666666667152,
      "v": 59
    },
    {
      "midi": 70,
      "hit": false,
      "t": 129866.6666666672,
      "d": 58.33333333332848,
      "v": 50
    },
    {
      "midi": 56,
      "hit": false,
      "t": 129962.50000000052,
      "d": 600,
      "v": 23
    },
    {
      "midi": 71,
      "hit": false,
      "t": 129975.00000000052,
      "d": 75,
      "v": 34
    },
    {
      "midi": 62,
      "hit": false,
      "t": 129975.00000000052,
      "d": 579.1666666666715,
      "v": 30
    },
    {
      "midi": 59,
      "hit": false,
      "t": 129991.6666666672,
      "d": 550,
      "v": 35
    },
    {
      "midi": 71,
      "hit": false,
      "t": 130129.1666666672,
      "d": 37.5,
      "v": 45
    },
    {
      "midi": 74,
      "hit": false,
      "t": 130237.50000000052,
      "d": 33.33333333332848,
      "v": 61
    },
    {
      "midi": 74,
      "hit": false,
      "t": 130370.83333333385,
      "d": 58.33333333332848,
      "v": 68
    },
    {
      "midi": 53,
      "hit": false,
      "t": 130470.83333333385,
      "d": 1204.1666666666715,
      "v": 34
    },
    {
      "midi": 77,
      "hit": false,
      "t": 130483.33333333385,
      "d": 33.333333333343035,
      "v": 41
    },
    {
      "midi": 76,
      "hit": false,
      "t": 130487.50000000052,
      "d": 25,
      "v": 47
    },
    {
      "midi": 77,
      "hit": false,
      "t": 130616.6666666672,
      "d": 33.33333333332848,
      "v": 49
    },
    {
      "midi": 68,
      "hit": false,
      "t": 130712.50000000052,
      "d": 50,
      "v": 57
    },
    {
      "midi": 80,
      "hit": false,
      "t": 130725.00000000052,
      "d": 25,
      "v": 34
    },
    {
      "midi": 80,
      "hit": false,
      "t": 130870.83333333385,
      "d": 20.833333333343035,
      "v": 50
    },
    {
      "midi": 68,
      "hit": false,
      "t": 130875.00000000052,
      "d": 20.833333333343035,
      "v": 44
    },
    {
      "midi": 70,
      "hit": false,
      "t": 130979.1666666672,
      "d": 70.83333333334303,
      "v": 62
    },
    {
      "midi": 82,
      "hit": false,
      "t": 130991.6666666672,
      "d": 58.333333333343035,
      "v": 52
    },
    {
      "midi": 62,
      "hit": false,
      "t": 130995.83333333387,
      "d": 320.8333333332848,
      "v": 30
    },
    {
      "midi": 56,
      "hit": false,
      "t": 130995.83333333387,
      "d": 900,
      "v": 25
    },
    {
      "midi": 59,
      "hit": false,
      "t": 131012.50000000054,
      "d": 262.49999999998545,
      "v": 33
    },
    {
      "midi": 83,
      "hit": false,
      "t": 131037.50000000054,
      "d": 91.66666666664241,
      "v": 54
    },
    {
      "midi": 71,
      "hit": false,
      "t": 131075.00000000052,
      "d": 45.83333333331393,
      "v": 32
    },
    {
      "midi": 85,
      "hit": false,
      "t": 131237.50000000052,
      "d": 54.166666666656965,
      "v": 72
    },
    {
      "midi": 73,
      "hit": false,
      "t": 131241.66666666718,
      "d": 62.5,
      "v": 67
    },
    {
      "midi": 86,
      "hit": false,
      "t": 131279.16666666718,
      "d": 83.33333333331393,
      "v": 55
    },
    {
      "midi": 74,
      "hit": false,
      "t": 131308.33333333384,
      "d": 66.66666666665697,
      "v": 59
    },
    {
      "midi": 84,
      "hit": false,
      "t": 131312.5000000005,
      "d": 37.5,
      "v": 36
    },
    {
      "midi": 82,
      "hit": false,
      "t": 131500.0000000005,
      "d": 112.5000000000291,
      "v": 48
    },
    {
      "midi": 70,
      "hit": false,
      "t": 131512.5000000005,
      "d": 58.333333333343035,
      "v": 35
    },
    {
      "midi": 62,
      "hit": false,
      "t": 131520.83333333384,
      "d": 366.66666666668607,
      "v": 31
    },
    {
      "midi": 59,
      "hit": false,
      "t": 131525.0000000005,
      "d": 333.33333333337214,
      "v": 36
    },
    {
      "midi": 83,
      "hit": false,
      "t": 131570.83333333384,
      "d": 25,
      "v": 54
    },
    {
      "midi": 68,
      "hit": false,
      "t": 131762.50000000052,
      "d": 141.66666666668607,
      "v": 65
    },
    {
      "midi": 80,
      "hit": false,
      "t": 131775.00000000052,
      "d": 145.83333333334303,
      "v": 31
    },
    {
      "midi": 53,
      "hit": false,
      "t": 131787.50000000052,
      "d": 150,
      "v": 38
    },
    {
      "midi": 69,
      "hit": false,
      "t": 132016.66666666718,
      "d": 375,
      "v": 51
    },
    {
      "midi": 81,
      "hit": false,
      "t": 132020.83333333384,
      "d": 1512.500000000029,
      "v": 57
    },
    {
      "midi": 60,
      "hit": false,
      "t": 132029.16666666718,
      "d": 500,
      "v": 36
    },
    {
      "midi": 53,
      "hit": false,
      "t": 132033.33333333384,
      "d": 191.66666666665697,
      "v": 24
    },
    {
      "midi": 63,
      "hit": false,
      "t": 132037.5000000005,
      "d": 270.83333333334303,
      "v": 38
    },
    {
      "midi": 57,
      "hit": false,
      "t": 132037.5000000005,
      "d": 462.5000000000291,
      "v": 45
    },
    {
      "midi": 69,
      "hit": false,
      "t": 132508.33333333387,
      "d": 1004.166666666657,
      "v": 37
    },
    {
      "midi": 53,
      "hit": false,
      "t": 132525.00000000052,
      "d": 212.5,
      "v": 36
    },
    {
      "midi": 63,
      "hit": false,
      "t": 132995.83333333387,
      "d": 120.83333333331393,
      "v": 42
    },
    {
      "midi": 67,
      "hit": false,
      "t": 133012.50000000052,
      "d": 87.5,
      "v": 37
    },
    {
      "midi": 53,
      "hit": false,
      "t": 133475.00000000052,
      "d": 833.333333333343,
      "v": 52
    },
    {
      "midi": 61,
      "hit": false,
      "t": 133966.66666666718,
      "d": 862.5,
      "v": 38
    },
    {
      "midi": 58,
      "hit": false,
      "t": 133975.00000000052,
      "d": 591.6666666666861,
      "v": 36
    },
    {
      "midi": 64,
      "hit": false,
      "t": 133975.00000000052,
      "d": 629.1666666666861,
      "v": 34
    },
    {
      "midi": 79,
      "hit": false,
      "t": 134466.6666666672,
      "d": 91.66666666665697,
      "v": 88
    },
    {
      "midi": 53,
      "hit": false,
      "t": 134466.6666666672,
      "d": 712.5,
      "v": 38
    },
    {
      "midi": 76,
      "hit": false,
      "t": 134470.83333333387,
      "d": 75,
      "v": 92
    },
    {
      "midi": 78,
      "hit": false,
      "t": 134600.00000000055,
      "d": 95.83333333331393,
      "v": 59
    },
    {
      "midi": 75,
      "hit": false,
      "t": 134604.1666666672,
      "d": 95.83333333331393,
      "v": 73
    },
    {
      "midi": 74,
      "hit": false,
      "t": 134729.16666666718,
      "d": 58.333333333343035,
      "v": 49
    },
    {
      "midi": 77,
      "hit": false,
      "t": 134741.66666666718,
      "d": 70.83333333334303,
      "v": 53
    },
    {
      "midi": 76,
      "hit": false,
      "t": 134858.33333333384,
      "d": 108.33333333334303,
      "v": 62
    },
    {
      "midi": 73,
      "hit": false,
      "t": 134866.66666666718,
      "d": 83.33333333334303,
      "v": 62
    },
    {
      "midi": 75,
      "hit": false,
      "t": 134995.83333333384,
      "d": 425.0000000000582,
      "v": 52
    },
    {
      "midi": 61,
      "hit": false,
      "t": 134995.83333333384,
      "d": 970.8333333334303,
      "v": 25
    },
    {
      "midi": 72,
      "hit": false,
      "t": 135004.16666666718,
      "d": 362.5000000000291,
      "v": 45
    },
    {
      "midi": 58,
      "hit": false,
      "t": 135004.16666666718,
      "d": 966.6666666667443,
      "v": 27
    },
    {
      "midi": 64,
      "hit": false,
      "t": 135012.50000000052,
      "d": 362.5000000000291,
      "v": 35
    },
    {
      "midi": 74,
      "hit": false,
      "t": 135500.00000000055,
      "d": 66.66666666665697,
      "v": 55
    },
    {
      "midi": 64,
      "hit": false,
      "t": 135500.00000000055,
      "d": 308.33333333337214,
      "v": 36
    },
    {
      "midi": 71,
      "hit": false,
      "t": 135504.1666666672,
      "d": 50,
      "v": 54
    },
    {
      "midi": 70,
      "hit": false,
      "t": 135625.00000000055,
      "d": 62.500000000029104,
      "v": 43
    },
    {
      "midi": 73,
      "hit": false,
      "t": 135645.8333333339,
      "d": 33.333333333343035,
      "v": 39
    },
    {
      "midi": 69,
      "hit": false,
      "t": 135758.33333333393,
      "d": 33.333333333343035,
      "v": 40
    },
    {
      "midi": 72,
      "hit": false,
      "t": 135766.66666666727,
      "d": 45.83333333331393,
      "v": 51
    },
    {
      "midi": 53,
      "hit": false,
      "t": 135770.83333333393,
      "d": 529.1666666666279,
      "v": 28
    },
    {
      "midi": 70,
      "hit": false,
      "t": 135895.83333333393,
      "d": 104.16666666665697,
      "v": 51
    },
    {
      "midi": 68,
      "hit": false,
      "t": 135904.16666666727,
      "d": 45.833333333343035,
      "v": 25
    },
    {
      "midi": 69,
      "hit": false,
      "t": 136029.16666666724,
      "d": 358.33333333331393,
      "v": 56
    },
    {
      "midi": 65,
      "hit": false,
      "t": 136033.3333333339,
      "d": 341.66666666665697,
      "v": 38
    },
    {
      "midi": 62,
      "hit": false,
      "t": 136045.8333333339,
      "d": 466.66666666665697,
      "v": 34
    },
    {
      "midi": 57,
      "hit": false,
      "t": 136050.00000000055,
      "d": 470.83333333334303,
      "v": 34
    },
    {
      "midi": 53,
      "hit": false,
      "t": 136529.16666666724,
      "d": 729.1666666666861,
      "v": 32
    },
    {
      "midi": 65,
      "hit": false,
      "t": 136537.50000000058,
      "d": 533.333333333343,
      "v": 43
    },
    {
      "midi": 62,
      "hit": false,
      "t": 136554.16666666724,
      "d": 208.33333333334303,
      "v": 42
    },
    {
      "midi": 62,
      "hit": false,
      "t": 137025.00000000058,
      "d": 450,
      "v": 34
    },
    {
      "midi": 57,
      "hit": false,
      "t": 137045.83333333393,
      "d": 566.6666666666279,
      "v": 37
    },
    {
      "midi": 62,
      "hit": false,
      "t": 137512.50000000058,
      "d": 158.33333333328483,
      "v": 28
    },
    {
      "midi": 53,
      "hit": false,
      "t": 137525.00000000058,
      "d": 783.3333333333139,
      "v": 57
    },
    {
      "midi": 81,
      "hit": false,
      "t": 137529.16666666724,
      "d": 99.9999999999709,
      "v": 96
    },
    {
      "midi": 84,
      "hit": false,
      "t": 137533.3333333339,
      "d": 149.9999999999709,
      "v": 94
    },
    {
      "midi": 83,
      "hit": false,
      "t": 137654.1666666672,
      "d": 137.5,
      "v": 68
    },
    {
      "midi": 80,
      "hit": false,
      "t": 137745.83333333387,
      "d": 83.33333333334303,
      "v": 39
    },
    {
      "midi": 82,
      "hit": false,
      "t": 137858.33333333387,
      "d": 54.166666666656965,
      "v": 8
    },
    {
      "midi": 81,
      "hit": false,
      "t": 137925.00000000052,
      "d": 20.833333333343035,
      "v": 24
    },
    {
      "midi": 58,
      "hit": false,
      "t": 138025.00000000055,
      "d": 558.3333333333139,
      "v": 36
    },
    {
      "midi": 82,
      "hit": false,
      "t": 138025.00000000055,
      "d": 604.166666666657,
      "v": 67
    },
    {
      "midi": 79,
      "hit": false,
      "t": 138033.3333333339,
      "d": 216.66666666665697,
      "v": 66
    },
    {
      "midi": 62,
      "hit": false,
      "t": 138033.3333333339,
      "d": 545.8333333333139,
      "v": 39
    },
    {
      "midi": 65,
      "hit": false,
      "t": 138037.50000000055,
      "d": 295.83333333334303,
      "v": 34
    },
    {
      "midi": 53,
      "hit": false,
      "t": 138512.50000000055,
      "d": 704.1666666666861,
      "v": 32
    },
    {
      "midi": 77,
      "hit": false,
      "t": 138516.6666666672,
      "d": 133.33333333334303,
      "v": 35
    },
    {
      "midi": 74,
      "hit": false,
      "t": 138516.6666666672,
      "d": 166.66666666668607,
      "v": 34
    },
    {
      "midi": 58,
      "hit": false,
      "t": 138987.50000000055,
      "d": 845.8333333334012,
      "v": 34
    },
    {
      "midi": 84,
      "hit": false,
      "t": 139012.50000000055,
      "d": 233.33333333334303,
      "v": 77
    },
    {
      "midi": 62,
      "hit": false,
      "t": 139012.50000000055,
      "d": 812.5000000000582,
      "v": 36
    },
    {
      "midi": 77,
      "hit": false,
      "t": 139020.8333333339,
      "d": 329.16666666668607,
      "v": 74
    },
    {
      "midi": 65,
      "hit": false,
      "t": 139029.16666666724,
      "d": 154.16666666665697,
      "v": 44
    },
    {
      "midi": 72,
      "hit": false,
      "t": 139033.3333333339,
      "d": 254.16666666668607,
      "v": 68
    },
    {
      "midi": 78,
      "hit": false,
      "t": 139037.50000000055,
      "d": 220.83333333334303,
      "v": 30
    },
    {
      "midi": 81,
      "hit": false,
      "t": 139045.8333333339,
      "d": 220.83333333334303,
      "v": 50
    },
    {
      "midi": 53,
      "hit": false,
      "t": 139300.00000000058,
      "d": 229.16666666668607,
      "v": 50
    },
    {
      "midi": 82,
      "hit": false,
      "t": 139520.83333333393,
      "d": 166.66666666668607,
      "v": 62
    },
    {
      "midi": 70,
      "hit": false,
      "t": 139529.16666666727,
      "d": 233.33333333334303,
      "v": 55
    },
    {
      "midi": 77,
      "hit": false,
      "t": 139541.66666666727,
      "d": 179.16666666668607,
      "v": 59
    },
    {
      "midi": 53,
      "hit": false,
      "t": 139804.16666666727,
      "d": 620.833333333343,
      "v": 34
    },
    {
      "midi": 58,
      "hit": false,
      "t": 140016.6666666673,
      "d": 391.66666666665697,
      "v": 47
    },
    {
      "midi": 67,
      "hit": false,
      "t": 140029.1666666673,
      "d": 120.83333333334303,
      "v": 53
    },
    {
      "midi": 63,
      "hit": false,
      "t": 140045.83333333395,
      "d": 333.33333333334303,
      "v": 46
    },
    {
      "midi": 70,
      "hit": false,
      "t": 140054.1666666673,
      "d": 120.83333333334303,
      "v": 62
    },
    {
      "midi": 65,
      "hit": false,
      "t": 140075.00000000064,
      "d": 354.16666666662786,
      "v": 40
    },
    {
      "midi": 75,
      "hit": false,
      "t": 140095.83333333398,
      "d": 108.33333333331393,
      "v": 38
    },
    {
      "midi": 77,
      "hit": false,
      "t": 140112.50000000064,
      "d": 91.66666666665697,
      "v": 48
    },
    {
      "midi": 53,
      "hit": false,
      "t": 140537.5000000006,
      "d": 758.3333333333139,
      "v": 47
    },
    {
      "midi": 77,
      "hit": false,
      "t": 140779.16666666727,
      "d": 62.49999999994179,
      "v": 55
    },
    {
      "midi": 67,
      "hit": false,
      "t": 140783.33333333393,
      "d": 24.999999999970896,
      "v": 41
    },
    {
      "midi": 70,
      "hit": false,
      "t": 140787.50000000058,
      "d": 24.999999999970896,
      "v": 36
    },
    {
      "midi": 75,
      "hit": false,
      "t": 140804.16666666724,
      "d": 24.999999999970896,
      "v": 28
    },
    {
      "midi": 89,
      "hit": false,
      "t": 141004.1666666672,
      "d": 29.16666666668607,
      "v": 66
    },
    {
      "midi": 63,
      "hit": false,
      "t": 141012.50000000055,
      "d": 229.16666666668607,
      "v": 33
    },
    {
      "midi": 58,
      "hit": false,
      "t": 141012.50000000055,
      "d": 275.0000000000291,
      "v": 31
    },
    {
      "midi": 65,
      "hit": false,
      "t": 141025.00000000055,
      "d": 458.33333333337214,
      "v": 38
    },
    {
      "midi": 53,
      "hit": false,
      "t": 141466.66666666727,
      "d": 704.166666666657,
      "v": 50
    },
    {
      "midi": 75,
      "hit": false,
      "t": 141750.00000000058,
      "d": 162.5,
      "v": 52
    },
    {
      "midi": 67,
      "hit": false,
      "t": 141762.50000000058,
      "d": 50,
      "v": 39
    },
    {
      "midi": 70,
      "hit": false,
      "t": 141766.66666666724,
      "d": 125,
      "v": 39
    },
    {
      "midi": 62,
      "hit": false,
      "t": 141987.50000000058,
      "d": 554.166666666657,
      "v": 38
    },
    {
      "midi": 69,
      "hit": false,
      "t": 141995.83333333393,
      "d": 62.5,
      "v": 61
    },
    {
      "midi": 74,
      "hit": false,
      "t": 142004.16666666727,
      "d": 83.33333333331393,
      "v": 58
    },
    {
      "midi": 86,
      "hit": false,
      "t": 142270.83333333393,
      "d": 20.833333333343035,
      "v": 68
    },
    {
      "midi": 98,
      "hit": false,
      "t": 142270.83333333393,
      "d": 25,
      "v": 65
    },
    {
      "midi": 53,
      "hit": false,
      "t": 142500.00000000058,
      "d": 783.3333333333139,
      "v": 38
    },
    {
      "midi": 64,
      "hit": false,
      "t": 142758.3333333339,
      "d": 25,
      "v": 44
    },
    {
      "midi": 74,
      "hit": false,
      "t": 142758.3333333339,
      "d": 62.5,
      "v": 41
    },
    {
      "midi": 63,
      "hit": false,
      "t": 142995.8333333339,
      "d": 191.66666666665697,
      "v": 39
    },
    {
      "midi": 65,
      "hit": false,
      "t": 143004.16666666724,
      "d": 562.5,
      "v": 54
    },
    {
      "midi": 98,
      "hit": false,
      "t": 143270.8333333339,
      "d": 58.333333333343035,
      "v": 60
    },
    {
      "midi": 86,
      "hit": false,
      "t": 143279.16666666724,
      "d": 50,
      "v": 46
    },
    {
      "midi": 53,
      "hit": false,
      "t": 143491.66666666724,
      "d": 695.833333333343,
      "v": 55
    },
    {
      "midi": 65,
      "hit": false,
      "t": 144008.3333333339,
      "d": 41.666666666656965,
      "v": 36
    },
    {
      "midi": 62,
      "hit": false,
      "t": 144008.3333333339,
      "d": 70.83333333334303,
      "v": 47
    },
    {
      "midi": 60,
      "hit": false,
      "t": 144012.50000000055,
      "d": 75.0000000000291,
      "v": 31
    },
    {
      "midi": 57,
      "hit": false,
      "t": 144270.83333333393,
      "d": 129.16666666668607,
      "v": 62
    },
    {
      "midi": 70,
      "hit": false,
      "t": 144270.83333333393,
      "d": 191.66666666668607,
      "v": 63
    },
    {
      "midi": 60,
      "hit": false,
      "t": 144279.16666666727,
      "d": 162.5,
      "v": 48
    },
    {
      "midi": 65,
      "hit": false,
      "t": 144279.16666666727,
      "d": 170.83333333334303,
      "v": 67
    },
    {
      "midi": 69,
      "hit": false,
      "t": 144529.16666666727,
      "d": 141.66666666665697,
      "v": 58
    },
    {
      "midi": 64,
      "hit": false,
      "t": 144537.50000000058,
      "d": 162.5,
      "v": 49
    },
    {
      "midi": 55,
      "hit": false,
      "t": 144537.50000000058,
      "d": 191.66666666665697,
      "v": 50
    },
    {
      "midi": 59,
      "hit": false,
      "t": 144545.83333333393,
      "d": 120.83333333334303,
      "v": 34
    },
    {
      "midi": 53,
      "hit": false,
      "t": 144791.66666666724,
      "d": 524.9999999999709,
      "v": 54
    },
    {
      "midi": 60,
      "hit": false,
      "t": 144795.8333333339,
      "d": 475,
      "v": 53
    },
    {
      "midi": 70,
      "hit": false,
      "t": 144795.8333333339,
      "d": 508.33333333331393,
      "v": 57
    },
    {
      "midi": 65,
      "hit": false,
      "t": 144800.00000000055,
      "d": 500,
      "v": 60
    },
    {
      "midi": 72,
      "hit": false,
      "t": 145495.8333333339,
      "d": 233.33333333334303,
      "v": 50
    },
    {
      "midi": 51,
      "hit": false,
      "t": 145500.00000000055,
      "d": 116.66666666668607,
      "v": 38
    },
    {
      "midi": 65,
      "hit": false,
      "t": 145500.00000000055,
      "d": 141.66666666668607,
      "v": 41
    },
    {
      "midi": 60,
      "hit": false,
      "t": 145508.3333333339,
      "d": 95.83333333334303,
      "v": 43
    },
    {
      "midi": 82,
      "hit": false,
      "t": 146279.16666666724,
      "d": 216.66666666665697,
      "v": 80
    },
    {
      "midi": 73,
      "hit": false,
      "t": 146279.16666666724,
      "d": 220.83333333331393,
      "v": 83
    },
    {
      "midi": 68,
      "hit": false,
      "t": 146279.16666666724,
      "d": 258.3333333332848,
      "v": 69
    },
    {
      "midi": 78,
      "hit": false,
      "t": 146283.3333333339,
      "d": 220.83333333331393,
      "v": 71
    },
    {
      "midi": 72,
      "hit": false,
      "t": 146554.16666666718,
      "d": 141.66666666665697,
      "v": 47
    },
    {
      "midi": 81,
      "hit": false,
      "t": 146558.33333333384,
      "d": 87.5,
      "v": 60
    },
    {
      "midi": 67,
      "hit": false,
      "t": 146566.66666666718,
      "d": 216.66666666665697,
      "v": 32
    },
    {
      "midi": 77,
      "hit": false,
      "t": 146570.83333333384,
      "d": 95.83333333334303,
      "v": 60
    },
    {
      "midi": 80,
      "hit": false,
      "t": 146791.66666666718,
      "d": 124.9999999999709,
      "v": 59
    },
    {
      "midi": 66,
      "hit": false,
      "t": 146800.00000000052,
      "d": 220.83333333328483,
      "v": 44
    },
    {
      "midi": 76,
      "hit": false,
      "t": 146804.16666666718,
      "d": 91.66666666665697,
      "v": 53
    },
    {
      "midi": 71,
      "hit": false,
      "t": 146808.33333333384,
      "d": 91.66666666665697,
      "v": 48
    },
    {
      "midi": 70,
      "hit": false,
      "t": 147041.66666666712,
      "d": 279.16666666665697,
      "v": 59
    },
    {
      "midi": 65,
      "hit": false,
      "t": 147041.66666666712,
      "d": 466.66666666662786,
      "v": 40
    },
    {
      "midi": 79,
      "hit": false,
      "t": 147054.16666666712,
      "d": 341.66666666665697,
      "v": 48
    },
    {
      "midi": 75,
      "hit": false,
      "t": 147058.33333333378,
      "d": 325,
      "v": 44
    },
    {
      "midi": 78,
      "hit": false,
      "t": 147504.1666666671,
      "d": 250,
      "v": 45
    },
    {
      "midi": 74,
      "hit": false,
      "t": 147508.33333333375,
      "d": 212.5,
      "v": 54
    },
    {
      "midi": 69,
      "hit": false,
      "t": 147508.33333333375,
      "d": 316.66666666668607,
      "v": 48
    },
    {
      "midi": 64,
      "hit": false,
      "t": 147537.5000000004,
      "d": 54.16666666668607,
      "v": 34
    },
    {
      "midi": 77,
      "hit": false,
      "t": 148000.00000000044,
      "d": 224.9999999999709,
      "v": 55
    },
    {
      "midi": 70,
      "hit": false,
      "t": 148004.1666666671,
      "d": 283.33333333331393,
      "v": 47
    },
    {
      "midi": 67,
      "hit": false,
      "t": 148004.1666666671,
      "d": 287.4999999999709,
      "v": 36
    },
    {
      "midi": 59,
      "hit": false,
      "t": 148008.33333333375,
      "d": 258.33333333331393,
      "v": 31
    },
    {
      "midi": 48,
      "hit": false,
      "t": 148279.16666666706,
      "d": 200,
      "v": 50
    },
    {
      "midi": 63,
      "hit": false,
      "t": 148516.66666666706,
      "d": 387.5,
      "v": 46
    },
    {
      "midi": 70,
      "hit": false,
      "t": 148529.16666666706,
      "d": 637.4999999999709,
      "v": 47
    },
    {
      "midi": 67,
      "hit": false,
      "t": 148533.33333333372,
      "d": 354.16666666668607,
      "v": 41
    },
    {
      "midi": 62,
      "hit": false,
      "t": 148766.66666666706,
      "d": 291.66666666665697,
      "v": 85
    },
    {
      "midi": 63,
      "hit": false,
      "t": 149008.33333333372,
      "d": 199.9999999999709,
      "v": 33
    },
    {
      "midi": 67,
      "hit": false,
      "t": 149020.83333333372,
      "d": 116.66666666665697,
      "v": 38
    },
    {
      "midi": 55,
      "hit": false,
      "t": 149291.66666666704,
      "d": 145.83333333334303,
      "v": 64
    },
    {
      "midi": 63,
      "hit": false,
      "t": 149533.33333333372,
      "d": 337.5,
      "v": 39
    },
    {
      "midi": 67,
      "hit": false,
      "t": 149537.50000000038,
      "d": 200.0000000000291,
      "v": 30
    },
    {
      "midi": 62,
      "hit": false,
      "t": 149545.83333333372,
      "d": 233.33333333334303,
      "v": 40
    },
    {
      "midi": 41,
      "hit": false,
      "t": 149787.5000000004,
      "d": 429.16666666665697,
      "v": 58
    },
    {
      "midi": 62,
      "hit": false,
      "t": 150033.33333333372,
      "d": 316.66666666668607,
      "v": 45
    },
    {
      "midi": 66,
      "hit": false,
      "t": 150033.33333333372,
      "d": 729.1666666666861,
      "v": 45
    },
    {
      "midi": 57,
      "hit": false,
      "t": 150037.50000000038,
      "d": 275.0000000000291,
      "v": 46
    },
    {
      "midi": 51,
      "hit": false,
      "t": 150275.0000000004,
      "d": 266.66666666665697,
      "v": 82
    },
    {
      "midi": 57,
      "hit": false,
      "t": 150529.16666666706,
      "d": 83.33333333334303,
      "v": 37
    },
    {
      "midi": 62,
      "hit": false,
      "t": 150529.16666666706,
      "d": 170.83333333334303,
      "v": 36
    },
    {
      "midi": 57,
      "hit": false,
      "t": 150770.83333333375,
      "d": 229.16666666665697,
      "v": 68
    },
    {
      "midi": 75,
      "hit": false,
      "t": 151025.0000000004,
      "d": 287.5,
      "v": 59
    },
    {
      "midi": 67,
      "hit": false,
      "t": 151029.16666666706,
      "d": 287.5,
      "v": 56
    },
    {
      "midi": 72,
      "hit": false,
      "t": 151037.5000000004,
      "d": 245.83333333334303,
      "v": 57
    },
    {
      "midi": 62,
      "hit": false,
      "t": 151275.0000000004,
      "d": 166.66666666665697,
      "v": 75
    },
    {
      "midi": 74,
      "hit": false,
      "t": 151504.16666666706,
      "d": 170.83333333331393,
      "v": 54
    },
    {
      "midi": 64,
      "hit": false,
      "t": 151508.33333333372,
      "d": 191.66666666665697,
      "v": 48
    },
    {
      "midi": 71,
      "hit": false,
      "t": 151512.50000000038,
      "d": 154.16666666665697,
      "v": 45
    },
    {
      "midi": 68,
      "hit": false,
      "t": 151512.50000000038,
      "d": 208.33333333331393,
      "v": 50
    },
    {
      "midi": 60,
      "hit": false,
      "t": 151516.66666666704,
      "d": 220.83333333331393,
      "v": 60
    },
    {
      "midi": 72,
      "hit": false,
      "t": 151766.666666667,
      "d": 170.83333333337214,
      "v": 42
    },
    {
      "midi": 54,
      "hit": false,
      "t": 151775.00000000035,
      "d": 233.33333333337214,
      "v": 47
    },
    {
      "midi": 64,
      "hit": false,
      "t": 151783.3333333337,
      "d": 100,
      "v": 34
    },
    {
      "midi": 67,
      "hit": false,
      "t": 151795.8333333337,
      "d": 95.83333333334303,
      "v": 31
    },
    {
      "midi": 70,
      "hit": false,
      "t": 152016.66666666706,
      "d": 424.9999999999709,
      "v": 29
    },
    {
      "midi": 55,
      "hit": false,
      "t": 152025.0000000004,
      "d": 387.4999999999709,
      "v": 49
    },
    {
      "midi": 67,
      "hit": false,
      "t": 152029.16666666706,
      "d": 383.33333333331393,
      "v": 30
    },
    {
      "midi": 62,
      "hit": false,
      "t": 152033.33333333372,
      "d": 379.16666666665697,
      "v": 19
    },
    {
      "midi": 43,
      "hit": false,
      "t": 152266.66666666706,
      "d": 162.4999999999709,
      "v": 55
    },
    {
      "midi": 66,
      "hit": false,
      "t": 152766.66666666704,
      "d": 199.9999999999709,
      "v": 45
    },
    {
      "midi": 62,
      "hit": false,
      "t": 152770.8333333337,
      "d": 154.16666666665697,
      "v": 35
    },
    {
      "midi": 54,
      "hit": false,
      "t": 152783.3333333337,
      "d": 216.66666666665697,
      "v": 34
    },
    {
      "midi": 62,
      "hit": false,
      "t": 153004.166666667,
      "d": 183.33333333334303,
      "v": 24
    },
    {
      "midi": 55,
      "hit": false,
      "t": 153012.50000000035,
      "d": 125,
      "v": 39
    },
    {
      "midi": 67,
      "hit": false,
      "t": 153012.50000000035,
      "d": 308.33333333334303,
      "v": 37
    },
    {
      "midi": 43,
      "hit": false,
      "t": 153533.3333333337,
      "d": 129.16666666665697,
      "v": 34
    },
    {
      "midi": 62,
      "hit": false,
      "t": 153533.3333333337,
      "d": 212.5,
      "v": 34
    },
    {
      "midi": 65,
      "hit": false,
      "t": 153533.3333333337,
      "d": 216.66666666665697,
      "v": 39
    },
    {
      "midi": 53,
      "hit": false,
      "t": 153533.3333333337,
      "d": 266.66666666665697,
      "v": 34
    },
    {
      "midi": 69,
      "hit": false,
      "t": 153545.8333333337,
      "d": 233.33333333331393,
      "v": 35
    },
    {
      "midi": 51,
      "hit": false,
      "t": 153925.00000000035,
      "d": 66.66666666665697,
      "v": 31
    },
    {
      "midi": 54,
      "hit": false,
      "t": 153962.50000000035,
      "d": 79.16666666662786,
      "v": 59
    },
    {
      "midi": 58,
      "hit": false,
      "t": 154012.50000000035,
      "d": 712.5,
      "v": 53
    },
    {
      "midi": 67,
      "hit": false,
      "t": 154016.666666667,
      "d": 1441.6666666666279,
      "v": 41
    },
    {
      "midi": 62,
      "hit": false,
      "t": 154020.83333333366,
      "d": 675,
      "v": 46
    },
    {
      "midi": 55,
      "hit": false,
      "t": 154025.00000000032,
      "d": 175,
      "v": 60
    },
    {
      "midi": 65,
      "hit": false,
      "t": 154029.16666666698,
      "d": 675.0000000000291,
      "v": 47
    },
    {
      "midi": 54,
      "hit": false,
      "t": 154191.66666666698,
      "d": 79.16666666668607,
      "v": 51
    },
    {
      "midi": 53,
      "hit": false,
      "t": 154333.33333333366,
      "d": 1041.666666666657,
      "v": 62
    },
    {
      "midi": 58,
      "hit": false,
      "t": 155054.166666667,
      "d": 324.9999999999709,
      "v": 43
    },
    {
      "midi": 65,
      "hit": false,
      "t": 155070.83333333366,
      "d": 258.33333333331393,
      "v": 53
    },
    {
      "midi": 62,
      "hit": false,
      "t": 155075.00000000032,
      "d": 291.66666666665697,
      "v": 39
    },
    {
      "midi": 62,
      "hit": false,
      "t": 155995.83333333363,
      "d": 112.5,
      "v": 54
    },
    {
      "midi": 24,
      "hit": false,
      "t": 156004.16666666698,
      "d": 74.9999999999709,
      "v": 42
    },
    {
      "midi": 58,
      "hit": false,
      "t": 156008.33333333363,
      "d": 125,
      "v": 32
    },
    {
      "midi": 36,
      "hit": false,
      "t": 156012.5000000003,
      "d": 108.33333333334303,
      "v": 22
    },
    {
      "midi": 52,
      "hit": false,
      "t": 156016.66666666695,
      "d": 41.666666666656965,
      "v": 20
    },
    {
      "midi": 74,
      "hit": false,
      "t": 156950.0000000003,
      "d": 83.33333333331393,
      "v": 53
    },
    {
      "midi": 66,
      "hit": false,
      "t": 156958.33333333363,
      "d": 108.33333333328483,
      "v": 59
    },
    {
      "midi": 69,
      "hit": false,
      "t": 156962.5000000003,
      "d": 66.66666666665697,
      "v": 52
    },
    {
      "midi": 60,
      "hit": false,
      "t": 156962.5000000003,
      "d": 87.4999999999709,
      "v": 53
    },
    {
      "midi": 73,
      "hit": false,
      "t": 157083.33333333358,
      "d": 83.33333333334303,
      "v": 50
    },
    {
      "midi": 61,
      "hit": false,
      "t": 157091.66666666692,
      "d": 91.66666666665697,
      "v": 40
    },
    {
      "midi": 68,
      "hit": false,
      "t": 157108.33333333358,
      "d": 33.333333333343035,
      "v": 37
    },
    {
      "midi": 62,
      "hit": false,
      "t": 157216.66666666692,
      "d": 70.83333333331393,
      "v": 37
    },
    {
      "midi": 63,
      "hit": false,
      "t": 157337.50000000023,
      "d": 70.83333333334303,
      "v": 43
    },
    {
      "midi": 64,
      "hit": false,
      "t": 157450.00000000023,
      "d": 29.166666666656965,
      "v": 51
    },
    {
      "midi": 71,
      "hit": false,
      "t": 157454.1666666669,
      "d": 150,
      "v": 47
    },
    {
      "midi": 67,
      "hit": false,
      "t": 157466.6666666669,
      "d": 141.66666666665697,
      "v": 52
    },
    {
      "midi": 63,
      "hit": false,
      "t": 157470.83333333355,
      "d": 150,
      "v": 29
    },
    {
      "midi": 42,
      "hit": false,
      "t": 157708.33333333355,
      "d": 141.66666666665697,
      "v": 52
    },
    {
      "midi": 51,
      "hit": false,
      "t": 157958.33333333355,
      "d": 229.16666666671517,
      "v": 42
    },
    {
      "midi": 62,
      "hit": false,
      "t": 157966.6666666669,
      "d": 170.83333333337214,
      "v": 38
    },
    {
      "midi": 67,
      "hit": false,
      "t": 157966.6666666669,
      "d": 187.5000000000291,
      "v": 40
    },
    {
      "midi": 57,
      "hit": false,
      "t": 157975.00000000023,
      "d": 120.83333333334303,
      "v": 26
    },
    {
      "midi": 41,
      "hit": false,
      "t": 157975.00000000023,
      "d": 154.16666666668607,
      "v": 40
    },
    {
      "midi": 74,
      "hit": false,
      "t": 158458.3333333336,
      "d": 112.4999999999709,
      "v": 73
    },
    {
      "midi": 67,
      "hit": false,
      "t": 158466.66666666695,
      "d": 124.9999999999709,
      "v": 74
    },
    {
      "midi": 63,
      "hit": false,
      "t": 158475.00000000026,
      "d": 141.66666666665697,
      "v": 67
    },
    {
      "midi": 62,
      "hit": false,
      "t": 158479.16666666692,
      "d": 125,
      "v": 57
    },
    {
      "midi": 61,
      "hit": false,
      "t": 158604.16666666692,
      "d": 100,
      "v": 48
    },
    {
      "midi": 67,
      "hit": false,
      "t": 158733.33333333358,
      "d": 258.33333333331393,
      "v": 51
    },
    {
      "midi": 63,
      "hit": false,
      "t": 158733.33333333358,
      "d": 316.66666666665697,
      "v": 48
    },
    {
      "midi": 60,
      "hit": false,
      "t": 158733.33333333358,
      "d": 362.5,
      "v": 53
    },
    {
      "midi": 72,
      "hit": false,
      "t": 158737.50000000023,
      "d": 250,
      "v": 44
    },
    {
      "midi": 70,
      "hit": false,
      "t": 159275.00000000023,
      "d": 125.0000000000291,
      "v": 50
    },
    {
      "midi": 63,
      "hit": false,
      "t": 159283.33333333358,
      "d": 162.5000000000291,
      "v": 37
    },
    {
      "midi": 58,
      "hit": false,
      "t": 159287.50000000023,
      "d": 91.66666666668607,
      "v": 37
    },
    {
      "midi": 60,
      "hit": false,
      "t": 159295.83333333358,
      "d": 91.66666666668607,
      "v": 32
    },
    {
      "midi": 66,
      "hit": false,
      "t": 159537.5000000003,
      "d": 254.16666666668607,
      "v": 37
    },
    {
      "midi": 69,
      "hit": false,
      "t": 159537.5000000003,
      "d": 262.5000000000291,
      "v": 49
    },
    {
      "midi": 62,
      "hit": false,
      "t": 159541.66666666695,
      "d": 237.5000000000291,
      "v": 42
    },
    {
      "midi": 57,
      "hit": false,
      "t": 159550.0000000003,
      "d": 58.333333333343035,
      "v": 24
    },
    {
      "midi": 41,
      "hit": false,
      "t": 159816.66666666698,
      "d": 387.5,
      "v": 54
    },
    {
      "midi": 41,
      "hit": false,
      "t": 160287.50000000032,
      "d": 1183.333333333314,
      "v": 52
    },
    {
      "midi": 70,
      "hit": false,
      "t": 160537.50000000032,
      "d": 420.83333333334303,
      "v": 34
    },
    {
      "midi": 62,
      "hit": false,
      "t": 160541.66666666698,
      "d": 391.66666666668607,
      "v": 35
    },
    {
      "midi": 60,
      "hit": false,
      "t": 160545.83333333363,
      "d": 379.16666666668607,
      "v": 35
    },
    {
      "midi": 65,
      "hit": false,
      "t": 160545.83333333363,
      "d": 412.5000000000291,
      "v": 49
    },
    {
      "midi": 53,
      "hit": false,
      "t": 160779.16666666698,
      "d": 320.83333333334303,
      "v": 55
    },
    {
      "midi": 53,
      "hit": false,
      "t": 161266.66666666698,
      "d": 450,
      "v": 75
    },
    {
      "midi": 41,
      "hit": false,
      "t": 161750.00000000032,
      "d": 33.333333333343035,
      "v": 30
    },
    {
      "midi": 53,
      "hit": false,
      "t": 161945.83333333366,
      "d": 387.5,
      "v": 38
    },
    {
      "midi": 67,
      "hit": false,
      "t": 161958.33333333366,
      "d": 929.1666666666861,
      "v": 56
    },
    {
      "midi": 61,
      "hit": false,
      "t": 161975.00000000032,
      "d": 741.6666666666861,
      "v": 23
    },
    {
      "midi": 73,
      "hit": false,
      "t": 161987.50000000032,
      "d": 937.5000000000582,
      "v": 54
    },
    {
      "midi": 58,
      "hit": false,
      "t": 161995.83333333366,
      "d": 395.83333333334303,
      "v": 32
    },
    {
      "midi": 76,
      "hit": false,
      "t": 162012.50000000032,
      "d": 883.3333333333721,
      "v": 64
    },
    {
      "midi": 64,
      "hit": false,
      "t": 162025.00000000032,
      "d": 575.0000000000291,
      "v": 45
    },
    {
      "midi": 79,
      "hit": false,
      "t": 162045.83333333366,
      "d": 870.8333333333721,
      "v": 55
    },
    {
      "midi": 53,
      "hit": false,
      "t": 162466.666666667,
      "d": 466.6666666667152,
      "v": 35
    },
    {
      "midi": 53,
      "hit": false,
      "t": 163145.83333333372,
      "d": 308.33333333337214,
      "v": 54
    },
    {
      "midi": 56,
      "hit": false,
      "t": 163166.66666666706,
      "d": 583.3333333333721,
      "v": 45
    },
    {
      "midi": 70,
      "hit": false,
      "t": 163179.16666666706,
      "d": 54.16666666668607,
      "v": 55
    },
    {
      "midi": 68,
      "hit": false,
      "t": 163204.16666666706,
      "d": 462.5000000000291,
      "v": 39
    },
    {
      "midi": 59,
      "hit": false,
      "t": 163212.5000000004,
      "d": 525.0000000000291,
      "v": 41
    },
    {
      "midi": 71,
      "hit": false,
      "t": 163241.6666666671,
      "d": 433.33333333334303,
      "v": 71
    },
    {
      "midi": 62,
      "hit": false,
      "t": 163241.6666666671,
      "d": 529.1666666666861,
      "v": 58
    },
    {
      "midi": 74,
      "hit": false,
      "t": 163245.83333333375,
      "d": 225,
      "v": 74
    },
    {
      "midi": 79,
      "hit": false,
      "t": 163262.5000000004,
      "d": 170.83333333334303,
      "v": 62
    },
    {
      "midi": 77,
      "hit": false,
      "t": 163491.6666666671,
      "d": 175,
      "v": 65
    },
    {
      "midi": 53,
      "hit": false,
      "t": 163500.00000000044,
      "d": 66.66666666665697,
      "v": 24
    },
    {
      "midi": 79,
      "hit": false,
      "t": 163733.33333333378,
      "d": 62.5,
      "v": 68
    },
    {
      "midi": 53,
      "hit": false,
      "t": 163745.83333333378,
      "d": 400,
      "v": 58
    },
    {
      "midi": 70,
      "hit": false,
      "t": 163870.83333333378,
      "d": 25,
      "v": 37
    },
    {
      "midi": 63,
      "hit": false,
      "t": 163979.16666666712,
      "d": 395.83333333334303,
      "v": 43
    },
    {
      "midi": 65,
      "hit": false,
      "t": 163987.50000000047,
      "d": 229.16666666665697,
      "v": 36
    },
    {
      "midi": 69,
      "hit": false,
      "t": 163991.66666666712,
      "d": 245.83333333334303,
      "v": 59
    },
    {
      "midi": 57,
      "hit": false,
      "t": 163995.83333333378,
      "d": 433.33333333334303,
      "v": 52
    },
    {
      "midi": 53,
      "hit": false,
      "t": 164250.00000000047,
      "d": 345.83333333331393,
      "v": 61
    },
    {
      "midi": 69,
      "hit": false,
      "t": 164500.00000000047,
      "d": 25,
      "v": 57
    },
    {
      "midi": 63,
      "hit": false,
      "t": 164500.00000000047,
      "d": 291.66666666662786,
      "v": 40
    },
    {
      "midi": 78,
      "hit": false,
      "t": 164504.16666666712,
      "d": 58.333333333343035,
      "v": 39
    },
    {
      "midi": 81,
      "hit": false,
      "t": 164504.16666666712,
      "d": 75,
      "v": 59
    },
    {
      "midi": 74,
      "hit": false,
      "t": 164508.33333333378,
      "d": 25.000000000029104,
      "v": 54
    },
    {
      "midi": 57,
      "hit": false,
      "t": 164516.66666666712,
      "d": 266.66666666662786,
      "v": 38
    },
    {
      "midi": 53,
      "hit": false,
      "t": 164737.50000000044,
      "d": 379.16666666668607,
      "v": 49
    },
    {
      "midi": 86,
      "hit": false,
      "t": 164766.6666666671,
      "d": 108.33333333334303,
      "v": 73
    },
    {
      "midi": 93,
      "hit": false,
      "t": 164766.6666666671,
      "d": 166.66666666668607,
      "v": 74
    },
    {
      "midi": 63,
      "hit": false,
      "t": 164987.50000000044,
      "d": 704.1666666666861,
      "v": 39
    },
    {
      "midi": 57,
      "hit": false,
      "t": 165020.83333333378,
      "d": 691.6666666666861,
      "v": 34
    },
    {
      "midi": 53,
      "hit": false,
      "t": 165266.66666666712,
      "d": 162.5,
      "v": 39
    },
    {
      "midi": 53,
      "hit": false,
      "t": 165775.00000000047,
      "d": 483.33333333334303,
      "v": 58
    },
    {
      "midi": 58,
      "hit": false,
      "t": 165966.66666666712,
      "d": 804.1666666666861,
      "v": 48
    },
    {
      "midi": 61,
      "hit": false,
      "t": 166004.16666666712,
      "d": 858.3333333333721,
      "v": 37
    },
    {
      "midi": 73,
      "hit": false,
      "t": 166037.50000000047,
      "d": 854.1666666666861,
      "v": 57
    },
    {
      "midi": 64,
      "hit": false,
      "t": 166050.00000000047,
      "d": 741.6666666666861,
      "v": 46
    },
    {
      "midi": 76,
      "hit": false,
      "t": 166062.50000000047,
      "d": 850.0000000000291,
      "v": 51
    },
    {
      "midi": 81,
      "hit": false,
      "t": 166083.3333333338,
      "d": 679.166666666657,
      "v": 73
    },
    {
      "midi": 53,
      "hit": false,
      "t": 166550.00000000047,
      "d": 691.6666666666861,
      "v": 44
    },
    {
      "midi": 79,
      "hit": false,
      "t": 167029.16666666715,
      "d": 504.16666666668607,
      "v": 36
    },
    {
      "midi": 73,
      "hit": false,
      "t": 167037.5000000005,
      "d": 616.666666666657,
      "v": 35
    },
    {
      "midi": 67,
      "hit": false,
      "t": 167041.66666666715,
      "d": 458.33333333334303,
      "v": 28
    },
    {
      "midi": 61,
      "hit": false,
      "t": 167041.66666666715,
      "d": 754.166666666657,
      "v": 25
    },
    {
      "midi": 76,
      "hit": false,
      "t": 167045.8333333338,
      "d": 545.8333333333721,
      "v": 37
    },
    {
      "midi": 58,
      "hit": false,
      "t": 167054.16666666715,
      "d": 583.333333333343,
      "v": 27
    },
    {
      "midi": 64,
      "hit": false,
      "t": 167062.5000000005,
      "d": 558.333333333343,
      "v": 20
    },
    {
      "midi": 53,
      "hit": false,
      "t": 167508.33333333384,
      "d": 812.4999999999418,
      "v": 22
    },
    {
      "midi": 81,
      "hit": false,
      "t": 167829.16666666715,
      "d": 54.166666666656965,
      "v": 71
    },
    {
      "midi": 57,
      "hit": false,
      "t": 168008.3333333338,
      "d": 729.1666666666279,
      "v": 32
    },
    {
      "midi": 74,
      "hit": false,
      "t": 168012.50000000047,
      "d": 195.83333333331393,
      "v": 44
    },
    {
      "midi": 69,
      "hit": false,
      "t": 168016.66666666712,
      "d": 229.16666666665697,
      "v": 37
    },
    {
      "midi": 62,
      "hit": false,
      "t": 168016.66666666712,
      "d": 749.9999999999709,
      "v": 27
    },
    {
      "midi": 65,
      "hit": false,
      "t": 168020.83333333378,
      "d": 212.5,
      "v": 29
    },
    {
      "midi": 74,
      "hit": false,
      "t": 168337.50000000044,
      "d": 41.666666666656965,
      "v": 52
    },
    {
      "midi": 69,
      "hit": false,
      "t": 168345.83333333378,
      "d": 29.166666666656965,
      "v": 37
    },
    {
      "midi": 53,
      "hit": false,
      "t": 168491.6666666671,
      "d": 791.6666666666861,
      "v": 36
    },
    {
      "midi": 86,
      "hit": false,
      "t": 168837.50000000044,
      "d": 83.33333333334303,
      "v": 85
    },
    {
      "midi": 62,
      "hit": false,
      "t": 168995.83333333378,
      "d": 858.333333333343,
      "v": 31
    },
    {
      "midi": 86,
      "hit": false,
      "t": 169000.00000000044,
      "d": 204.16666666668607,
      "v": 50
    },
    {
      "midi": 77,
      "hit": false,
      "t": 169000.00000000044,
      "d": 208.33333333334303,
      "v": 57
    },
    {
      "midi": 57,
      "hit": false,
      "t": 169000.00000000044,
      "d": 787.5000000000291,
      "v": 30
    },
    {
      "midi": 80,
      "hit": false,
      "t": 169008.33333333378,
      "d": 112.5,
      "v": 46
    },
    {
      "midi": 81,
      "hit": false,
      "t": 169154.16666666712,
      "d": 41.666666666656965,
      "v": 24
    },
    {
      "midi": 86,
      "hit": false,
      "t": 169304.16666666712,
      "d": 29.166666666656965,
      "v": 51
    },
    {
      "midi": 77,
      "hit": false,
      "t": 169308.33333333378,
      "d": 58.333333333343035,
      "v": 37
    },
    {
      "midi": 81,
      "hit": false,
      "t": 169320.83333333378,
      "d": 33.333333333343035,
      "v": 32
    },
    {
      "midi": 53,
      "hit": false,
      "t": 169470.83333333378,
      "d": 133.33333333334303,
      "v": 29
    },
    {
      "midi": 53,
      "hit": false,
      "t": 169812.50000000047,
      "d": 383.33333333331393,
      "v": 42
    },
    {
      "midi": 58,
      "hit": false,
      "t": 170000.00000000047,
      "d": 454.16666666665697,
      "v": 37
    },
    {
      "midi": 68,
      "hit": false,
      "t": 170004.16666666712,
      "d": 37.5,
      "v": 49
    },
    {
      "midi": 72,
      "hit": false,
      "t": 170004.16666666712,
      "d": 262.5,
      "v": 55
    },
    {
      "midi": 65,
      "hit": false,
      "t": 170004.16666666712,
      "d": 287.5,
      "v": 38
    },
    {
      "midi": 62,
      "hit": false,
      "t": 170029.16666666712,
      "d": 420.83333333334303,
      "v": 26
    },
    {
      "midi": 60,
      "hit": false,
      "t": 170033.33333333378,
      "d": 408.33333333334303,
      "v": 31
    },
    {
      "midi": 69,
      "hit": false,
      "t": 170058.33333333378,
      "d": 237.5,
      "v": 48
    },
    {
      "midi": 72,
      "hit": false,
      "t": 170333.33333333378,
      "d": 133.33333333334303,
      "v": 47
    },
    {
      "midi": 69,
      "hit": false,
      "t": 170350.00000000044,
      "d": 79.16666666668607,
      "v": 50
    },
    {
      "midi": 53,
      "hit": false,
      "t": 170383.33333333378,
      "d": 420.83333333334303,
      "v": 40
    },
    {
      "midi": 62,
      "hit": false,
      "t": 170516.66666666712,
      "d": 62.5,
      "v": 46
    },
    {
      "midi": 70,
      "hit": false,
      "t": 170520.83333333378,
      "d": 95.83333333334303,
      "v": 60
    },
    {
      "midi": 67,
      "hit": false,
      "t": 170533.33333333378,
      "d": 33.333333333343035,
      "v": 39
    },
    {
      "midi": 53,
      "hit": false,
      "t": 170858.33333333378,
      "d": 412.5000000000291,
      "v": 60
    },
    {
      "midi": 80,
      "hit": false,
      "t": 171029.16666666712,
      "d": 54.16666666668607,
      "v": 53
    },
    {
      "midi": 84,
      "hit": false,
      "t": 171029.16666666712,
      "d": 266.66666666668607,
      "v": 69
    },
    {
      "midi": 76,
      "hit": false,
      "t": 171033.33333333378,
      "d": 225.0000000000291,
      "v": 45
    },
    {
      "midi": 77,
      "hit": false,
      "t": 171041.66666666712,
      "d": 91.66666666668607,
      "v": 37
    },
    {
      "midi": 62,
      "hit": false,
      "t": 171050.00000000047,
      "d": 516.6666666666861,
      "v": 37
    },
    {
      "midi": 58,
      "hit": false,
      "t": 171058.3333333338,
      "d": 508.33333333334303,
      "v": 28
    },
    {
      "midi": 60,
      "hit": false,
      "t": 171079.16666666715,
      "d": 479.16666666665697,
      "v": 28
    },
    {
      "midi": 81,
      "hit": false,
      "t": 171095.8333333338,
      "d": 179.16666666665697,
      "v": 44
    },
    {
      "midi": 82,
      "hit": false,
      "t": 171362.50000000047,
      "d": 58.333333333343035,
      "v": 54
    },
    {
      "midi": 74,
      "hit": false,
      "t": 171366.66666666712,
      "d": 45.833333333343035,
      "v": 39
    },
    {
      "midi": 79,
      "hit": false,
      "t": 171375.00000000047,
      "d": 25,
      "v": 34
    },
    {
      "midi": 53,
      "hit": false,
      "t": 171520.8333333338,
      "d": 158.33333333334303,
      "v": 52
    },
    {
      "midi": 53,
      "hit": false,
      "t": 171866.66666666715,
      "d": 254.16666666665697,
      "v": 40
    },
    {
      "midi": 63,
      "hit": false,
      "t": 172037.5000000005,
      "d": 308.33333333331393,
      "v": 60
    },
    {
      "midi": 60,
      "hit": false,
      "t": 172037.5000000005,
      "d": 333.33333333331393,
      "v": 50
    },
    {
      "midi": 77,
      "hit": false,
      "t": 172041.66666666715,
      "d": 1666.6666666666279,
      "v": 64
    },
    {
      "midi": 75,
      "hit": false,
      "t": 172041.66666666715,
      "d": 1670.8333333332848,
      "v": 59
    },
    {
      "midi": 70,
      "hit": false,
      "t": 172045.8333333338,
      "d": 1612.499999999971,
      "v": 55
    },
    {
      "midi": 67,
      "hit": false,
      "t": 172050.00000000047,
      "d": 1583.333333333314,
      "v": 50
    },
    {
      "midi": 58,
      "hit": false,
      "t": 172058.3333333338,
      "d": 320.83333333334303,
      "v": 29
    },
    {
      "midi": 53,
      "hit": false,
      "t": 172537.5000000005,
      "d": 58.333333333343035,
      "v": 64
    },
    {
      "midi": 29,
      "hit": false,
      "t": 173029.16666666715,
      "d": 304.16666666665697,
      "v": 32
    },
    {
      "midi": 41,
      "hit": false,
      "t": 173029.16666666715,
      "d": 333.33333333331393,
      "v": 36
    },
    {
      "midi": 29,
      "hit": false,
      "t": 173504.16666666712,
      "d": 50,
      "v": 37
    },
    {
      "midi": 41,
      "hit": false,
      "t": 173512.50000000047,
      "d": 83.33333333331393,
      "v": 33
    },
    {
      "midi": 57,
      "hit": false,
      "t": 173908.33333333378,
      "d": 291.66666666668607,
      "v": 53
    },
    {
      "midi": 74,
      "hit": false,
      "t": 173945.83333333378,
      "d": 566.6666666666861,
      "v": 63
    },
    {
      "midi": 62,
      "hit": false,
      "t": 173962.50000000044,
      "d": 200.0000000000291,
      "v": 22
    },
    {
      "midi": 78,
      "hit": false,
      "t": 173970.83333333378,
      "d": 550.0000000000291,
      "v": 50
    },
    {
      "midi": 63,
      "hit": false,
      "t": 173991.66666666712,
      "d": 187.5,
      "v": 36
    },
    {
      "midi": 81,
      "hit": false,
      "t": 174004.16666666712,
      "d": 541.6666666666861,
      "v": 62
    },
    {
      "midi": 67,
      "hit": false,
      "t": 174008.33333333378,
      "d": 133.33333333334303,
      "v": 55
    },
    {
      "midi": 86,
      "hit": false,
      "t": 174037.50000000044,
      "d": 475.0000000000291,
      "v": 74
    },
    {
      "midi": 41,
      "hit": false,
      "t": 174454.16666666712,
      "d": 75.0000000000291,
      "v": 50
    },
    {
      "midi": 66,
      "hit": false,
      "t": 175000.00000000047,
      "d": 349.9999999999709,
      "v": 45
    },
    {
      "midi": 69,
      "hit": false,
      "t": 175000.00000000047,
      "d": 499.9999999999709,
      "v": 51
    },
    {
      "midi": 72,
      "hit": false,
      "t": 175000.00000000047,
      "d": 633.3333333333139,
      "v": 44
    },
    {
      "midi": 62,
      "hit": false,
      "t": 175008.3333333338,
      "d": 224.9999999999709,
      "v": 48
    },
    {
      "midi": 60,
      "hit": false,
      "t": 175012.50000000047,
      "d": 116.66666666665697,
      "v": 36
    },
    {
      "midi": 66,
      "hit": false,
      "t": 175508.33333333378,
      "d": 200,
      "v": 40
    },
    {
      "midi": 41,
      "hit": false,
      "t": 175512.50000000044,
      "d": 37.5,
      "v": 32
    },
    {
      "midi": 62,
      "hit": false,
      "t": 175516.6666666671,
      "d": 91.66666666668607,
      "v": 33
    },
    {
      "midi": 70,
      "hit": false,
      "t": 176000.00000000044,
      "d": 154.16666666668607,
      "v": 50
    },
    {
      "midi": 65,
      "hit": false,
      "t": 176020.83333333378,
      "d": 125,
      "v": 36
    },
    {
      "midi": 55,
      "hit": false,
      "t": 176025.00000000044,
      "d": 108.33333333334303,
      "v": 42
    },
    {
      "midi": 60,
      "hit": false,
      "t": 176029.1666666671,
      "d": 154.16666666668607,
      "v": 17
    },
    {
      "midi": 59,
      "hit": false,
      "t": 176475.00000000044,
      "d": 166.66666666665697,
      "v": 34
    },
    {
      "midi": 54,
      "hit": false,
      "t": 176475.00000000044,
      "d": 191.66666666665697,
      "v": 33
    },
    {
      "midi": 64,
      "hit": false,
      "t": 176483.33333333378,
      "d": 199.9999999999709,
      "v": 36
    },
    {
      "midi": 69,
      "hit": false,
      "t": 176487.50000000044,
      "d": 175,
      "v": 33
    },
    {
      "midi": 70,
      "hit": false,
      "t": 176970.83333333375,
      "d": 154.16666666671517,
      "v": 47
    },
    {
      "midi": 65,
      "hit": false,
      "t": 176991.6666666671,
      "d": 75.0000000000291,
      "v": 37
    },
    {
      "midi": 55,
      "hit": false,
      "t": 177000.00000000044,
      "d": 112.5000000000291,
      "v": 40
    },
    {
      "midi": 60,
      "hit": false,
      "t": 177008.33333333378,
      "d": 50,
      "v": 16
    },
    {
      "midi": 62,
      "hit": false,
      "t": 177500.00000000047,
      "d": 95.83333333331393,
      "v": 38
    },
    {
      "midi": 57,
      "hit": false,
      "t": 177504.16666666712,
      "d": 66.66666666665697,
      "v": 35
    },
    {
      "midi": 72,
      "hit": false,
      "t": 177504.16666666712,
      "d": 195.83333333331393,
      "v": 40
    },
    {
      "midi": 67,
      "hit": false,
      "t": 177508.33333333378,
      "d": 166.66666666665697,
      "v": 34
    },
    {
      "midi": 62,
      "hit": false,
      "t": 177991.6666666671,
      "d": 295.83333333334303,
      "v": 30
    },
    {
      "midi": 68,
      "hit": false,
      "t": 177991.6666666671,
      "d": 304.16666666668607,
      "v": 39
    },
    {
      "midi": 74,
      "hit": false,
      "t": 177991.6666666671,
      "d": 791.6666666666861,
      "v": 43
    },
    {
      "midi": 65,
      "hit": false,
      "t": 178000.00000000044,
      "d": 150,
      "v": 26
    },
    {
      "midi": 56,
      "hit": false,
      "t": 178012.50000000044,
      "d": 887.5,
      "v": 30
    },
    {
      "midi": 67,
      "hit": false,
      "t": 178512.50000000044,
      "d": 254.16666666668607,
      "v": 29
    },
    {
      "midi": 62,
      "hit": false,
      "t": 178520.83333333378,
      "d": 341.66666666665697,
      "v": 32
    },
    {
      "midi": 72,
      "hit": false,
      "t": 178733.33333333378,
      "d": 241.66666666665697,
      "v": 62
    },
    {
      "midi": 70,
      "hit": false,
      "t": 178862.50000000044,
      "d": 137.5,
      "v": 61
    },
    {
      "midi": 69,
      "hit": false,
      "t": 179029.1666666671,
      "d": 183.33333333334303,
      "v": 73
    },
    {
      "midi": 68,
      "hit": false,
      "t": 179866.6666666671,
      "d": 129.16666666665697,
      "v": 55
    },
    {
      "midi": 63,
      "hit": false,
      "t": 179883.33333333375,
      "d": 145.83333333334303,
      "v": 51
    },
    {
      "midi": 59,
      "hit": false,
      "t": 179891.6666666671,
      "d": 75,
      "v": 34
    },
    {
      "midi": 39,
      "hit": false,
      "t": 180083.33333333375,
      "d": 312.4999999999709,
      "v": 35
    },
    {
      "midi": 67,
      "hit": false,
      "t": 180083.33333333375,
      "d": 758.3333333332848,
      "v": 45
    },
    {
      "midi": 62,
      "hit": false,
      "t": 180100.0000000004,
      "d": 237.4999999999709,
      "v": 35
    },
    {
      "midi": 55,
      "hit": false,
      "t": 180554.16666666706,
      "d": 254.16666666665697,
      "v": 38
    },
    {
      "midi": 46,
      "hit": false,
      "t": 180562.5000000004,
      "d": 274.9999999999709,
      "v": 34
    },
    {
      "midi": 60,
      "hit": false,
      "t": 180566.66666666706,
      "d": 291.66666666662786,
      "v": 40
    },
    {
      "midi": 53,
      "hit": false,
      "t": 181020.8333333337,
      "d": 166.66666666665697,
      "v": 34
    },
    {
      "midi": 59,
      "hit": false,
      "t": 181029.166666667,
      "d": 320.83333333334303,
      "v": 28
    },
    {
      "midi": 43,
      "hit": false,
      "t": 181041.666666667,
      "d": 454.16666666668607,
      "v": 22
    },
    {
      "midi": 50,
      "hit": false,
      "t": 181045.83333333366,
      "d": 387.5000000000291,
      "v": 20
    },
    {
      "midi": 47,
      "hit": false,
      "t": 181495.8333333337,
      "d": 116.66666666662786,
      "v": 42
    },
    {
      "midi": 59,
      "hit": false,
      "t": 181500.00000000035,
      "d": 170.83333333331393,
      "v": 38
    },
    {
      "midi": 62,
      "hit": false,
      "t": 181504.166666667,
      "d": 183.33333333331393,
      "v": 25
    },
    {
      "midi": 65,
      "hit": false,
      "t": 181508.33333333366,
      "d": 191.66666666665697,
      "v": 28
    },
    {
      "midi": 70,
      "hit": false,
      "t": 181979.16666666698,
      "d": 195.83333333331393,
      "v": 46
    },
    {
      "midi": 55,
      "hit": false,
      "t": 181983.33333333363,
      "d": 258.33333333331393,
      "v": 62
    },
    {
      "midi": 64,
      "hit": false,
      "t": 181991.66666666698,
      "d": 154.16666666665697,
      "v": 45
    },
    {
      "midi": 61,
      "hit": false,
      "t": 181991.66666666698,
      "d": 204.16666666665697,
      "v": 42
    },
    {
      "midi": 67,
      "hit": false,
      "t": 182000.00000000032,
      "d": 125,
      "v": 40
    },
    {
      "midi": 69,
      "hit": false,
      "t": 182237.5000000003,
      "d": 83.33333333331393,
      "v": 57
    },
    {
      "midi": 54,
      "hit": false,
      "t": 182250.0000000003,
      "d": 208.33333333328483,
      "v": 40
    },
    {
      "midi": 60,
      "hit": false,
      "t": 182258.3333333336,
      "d": 75,
      "v": 49
    },
    {
      "midi": 63,
      "hit": false,
      "t": 182266.66666666695,
      "d": 83.33333333331393,
      "v": 37
    },
    {
      "midi": 68,
      "hit": false,
      "t": 182487.50000000023,
      "d": 79.16666666668607,
      "v": 50
    },
    {
      "midi": 63,
      "hit": false,
      "t": 182487.50000000023,
      "d": 120.83333333334303,
      "v": 48
    },
    {
      "midi": 59,
      "hit": false,
      "t": 182495.83333333358,
      "d": 75,
      "v": 39
    },
    {
      "midi": 53,
      "hit": false,
      "t": 182504.16666666692,
      "d": 208.33333333331393,
      "v": 31
    },
    {
      "midi": 61,
      "hit": false,
      "t": 182741.66666666692,
      "d": 333.33333333331393,
      "v": 50
    },
    {
      "midi": 67,
      "hit": false,
      "t": 182745.83333333358,
      "d": 291.66666666665697,
      "v": 36
    },
    {
      "midi": 58,
      "hit": false,
      "t": 182745.83333333358,
      "d": 325,
      "v": 33
    },
    {
      "midi": 64,
      "hit": false,
      "t": 182770.83333333358,
      "d": 262.5,
      "v": 29
    },
    {
      "midi": 52,
      "hit": false,
      "t": 182770.83333333358,
      "d": 483.33333333331393,
      "v": 33
    },
    {
      "midi": 61,
      "hit": false,
      "t": 183266.6666666669,
      "d": 70.83333333331393,
      "v": 44
    },
    {
      "midi": 58,
      "hit": false,
      "t": 183283.33333333355,
      "d": 45.83333333331393,
      "v": 27
    },
    {
      "midi": 49,
      "hit": false,
      "t": 183287.5000000002,
      "d": 220.83333333331393,
      "v": 33
    },
    {
      "midi": 64,
      "hit": false,
      "t": 183516.66666666686,
      "d": 100,
      "v": 48
    },
    {
      "midi": 58,
      "hit": false,
      "t": 183516.66666666686,
      "d": 141.66666666665697,
      "v": 42
    },
    {
      "midi": 61,
      "hit": false,
      "t": 183529.16666666686,
      "d": 104.16666666665697,
      "v": 44
    },
    {
      "midi": 51,
      "hit": false,
      "t": 183758.33333333352,
      "d": 191.66666666668607,
      "v": 51
    },
    {
      "midi": 66,
      "hit": false,
      "t": 183766.66666666686,
      "d": 166.66666666665697,
      "v": 52
    },
    {
      "midi": 58,
      "hit": false,
      "t": 183766.66666666686,
      "d": 212.5,
      "v": 49
    },
    {
      "midi": 61,
      "hit": false,
      "t": 183770.83333333352,
      "d": 170.83333333334303,
      "v": 53
    },
    {
      "midi": 63,
      "hit": false,
      "t": 183775.00000000017,
      "d": 191.66666666668607,
      "v": 51
    },
    {
      "midi": 60,
      "hit": false,
      "t": 184025.0000000002,
      "d": 345.83333333331393,
      "v": 48
    },
    {
      "midi": 65,
      "hit": false,
      "t": 184025.0000000002,
      "d": 383.33333333331393,
      "v": 42
    },
    {
      "midi": 57,
      "hit": false,
      "t": 184041.66666666686,
      "d": 325,
      "v": 38
    },
    {
      "midi": 50,
      "hit": false,
      "t": 184050.0000000002,
      "d": 641.666666666657,
      "v": 39
    },
    {
      "midi": 38,
      "hit": false,
      "t": 184287.5000000002,
      "d": 254.16666666665697,
      "v": 41
    },
    {
      "midi": 57,
      "hit": false,
      "t": 184541.66666666686,
      "d": 91.66666666665697,
      "v": 58
    },
    {
      "midi": 60,
      "hit": false,
      "t": 184791.66666666686,
      "d": 104.16666666665697,
      "v": 76
    },
    {
      "midi": 59,
      "hit": false,
      "t": 185041.66666666683,
      "d": 437.5,
      "v": 103
    },
    {
      "midi": 53,
      "hit": false,
      "t": 185050.00000000017,
      "d": 229.16666666665697,
      "v": 52
    },
    {
      "midi": 43,
      "hit": false,
      "t": 185058.33333333352,
      "d": 433.33333333331393,
      "v": 36
    },
    {
      "midi": 59,
      "hit": false,
      "t": 185533.3333333335,
      "d": 95.83333333331393,
      "v": 62
    },
    {
      "midi": 55,
      "hit": false,
      "t": 185537.50000000015,
      "d": 50,
      "v": 75
    },
    {
      "midi": 50,
      "hit": false,
      "t": 185541.6666666668,
      "d": 25,
      "v": 50
    },
    {
      "midi": 24,
      "hit": false,
      "t": 186033.33333333346,
      "d": 154.16666666665697,
      "v": 80
    },
    {
      "midi": 36,
      "hit": false,
      "t": 186033.33333333346,
      "d": 187.5,
      "v": 83
    },
    {
      "midi": 70,
      "hit": false,
      "t": 186037.50000000012,
      "d": 158.33333333334303,
      "v": 85
    },
    {
      "midi": 58,
      "hit": false,
      "t": 186037.50000000012,
      "d": 183.33333333334303,
      "v": 83
    },
    {
      "midi": 63,
      "hit": false,
      "t": 186041.66666666677,
      "d": 154.16666666668607,
      "v": 71
    },
    {
      "midi": 38,
      "hit": false,
      "t": 186300.00000000012,
      "d": 124.9999999999709,
      "v": 56
    },
    {
      "midi": 26,
      "hit": false,
      "t": 186304.16666666677,
      "d": 120.83333333331393,
      "v": 53
    },
    {
      "midi": 55,
      "hit": false,
      "t": 186545.83333333343,
      "d": 95.83333333331393,
      "v": 33
    },
    {
      "midi": 65,
      "hit": false,
      "t": 186550.0000000001,
      "d": 95.83333333331393,
      "v": 33
    },
    {
      "midi": 39,
      "hit": false,
      "t": 186550.0000000001,
      "d": 99.9999999999709,
      "v": 48
    },
    {
      "midi": 27,
      "hit": false,
      "t": 186550.0000000001,
      "d": 116.66666666662786,
      "v": 48
    },
    {
      "midi": 60,
      "hit": false,
      "t": 186570.83333333343,
      "d": 37.5,
      "v": 26
    },
    {
      "midi": 28,
      "hit": false,
      "t": 186775.00000000006,
      "d": 91.66666666665697,
      "v": 46
    },
    {
      "midi": 40,
      "hit": false,
      "t": 186779.16666666672,
      "d": 137.5,
      "v": 40
    },
    {
      "midi": 41,
      "hit": false,
      "t": 187016.66666666672,
      "d": 354.16666666668607,
      "v": 47
    },
    {
      "midi": 57,
      "hit": false,
      "t": 187025.00000000006,
      "d": 141.66666666668607,
      "v": 40
    },
    {
      "midi": 60,
      "hit": false,
      "t": 187025.00000000006,
      "d": 179.16666666668607,
      "v": 47
    },
    {
      "midi": 29,
      "hit": false,
      "t": 187033.3333333334,
      "d": 295.83333333334303,
      "v": 26
    },
    {
      "midi": 72,
      "hit": false,
      "t": 187750.00000000006,
      "d": 54.166666666656965,
      "v": 91
    },
    {
      "midi": 69,
      "hit": false,
      "t": 187987.50000000003,
      "d": 112.5,
      "v": 79
    },
    {
      "midi": 61,
      "hit": false,
      "t": 187991.6666666667,
      "d": 75,
      "v": 84
    },
    {
      "midi": 57,
      "hit": false,
      "t": 187995.83333333334,
      "d": 50,
      "v": 85
    },
    {
      "midi": 64,
      "hit": false,
      "t": 187995.83333333334,
      "d": 83.33333333334303,
      "v": 83
    },
    {
      "midi": 58,
      "hit": false,
      "t": 188004.1666666667,
      "d": 66.66666666665697,
      "v": 83
    },
    {
      "midi": 67,
      "hit": false,
      "t": 188008.33333333334,
      "d": 79.16666666668607,
      "v": 53
    },
    {
      "midi": 81,
      "hit": false,
      "t": 188254.1666666667,
      "d": 79.16666666665697,
      "v": 91
    },
    {
      "midi": 76,
      "hit": false,
      "t": 188491.6666666667,
      "d": 87.5,
      "v": 89
    },
    {
      "midi": 69,
      "hit": false,
      "t": 188495.83333333334,
      "d": 54.16666666668607,
      "v": 90
    },
    {
      "midi": 73,
      "hit": false,
      "t": 188495.83333333334,
      "d": 70.83333333334303,
      "v": 81
    },
    {
      "midi": 70,
      "hit": false,
      "t": 188504.1666666667,
      "d": 70.83333333334303,
      "v": 81
    },
    {
      "midi": 93,
      "hit": false,
      "t": 188750.00000000003,
      "d": 62.5,
      "v": 90
    },
    {
      "midi": 81,
      "hit": false,
      "t": 188995.83333333337,
      "d": 179.16666666665697,
      "v": 91
    },
    {
      "midi": 89,
      "hit": false,
      "t": 189000.00000000003,
      "d": 20.833333333343035,
      "v": 70
    },
    {
      "midi": 82,
      "hit": false,
      "t": 189000.00000000003,
      "d": 112.5,
      "v": 94
    },
    {
      "midi": 88,
      "hit": false,
      "t": 189000.00000000003,
      "d": 175,
      "v": 87
    },
    {
      "midi": 86,
      "hit": false,
      "t": 189033.33333333337,
      "d": 20.83333333331393,
      "v": 30
    },
    {
      "midi": 85,
      "hit": false,
      "t": 189050.00000000003,
      "d": 87.5,
      "v": 9
    },
    {
      "midi": 93,
      "hit": false,
      "t": 189270.83333333337,
      "d": 33.333333333343035,
      "v": 62
    },
    {
      "midi": 91,
      "hit": false,
      "t": 189279.16666666672,
      "d": 29.166666666656965,
      "v": 44
    },
    {
      "midi": 70,
      "hit": false,
      "t": 189516.66666666672,
      "d": 79.16666666665697,
      "v": 56
    },
    {
      "midi": 76,
      "hit": false,
      "t": 189520.83333333337,
      "d": 154.16666666665697,
      "v": 46
    },
    {
      "midi": 73,
      "hit": false,
      "t": 189533.33333333337,
      "d": 179.16666666665697,
      "v": 32
    },
    {
      "midi": 69,
      "hit": false,
      "t": 189541.66666666672,
      "d": 95.83333333331393,
      "v": 34
    },
    {
      "midi": 81,
      "hit": false,
      "t": 189766.6666666667,
      "d": 58.333333333343035,
      "v": 57
    },
    {
      "midi": 58,
      "hit": false,
      "t": 190033.33333333337,
      "d": 87.5,
      "v": 36
    },
    {
      "midi": 69,
      "hit": false,
      "t": 190258.33333333337,
      "d": 29.166666666656965,
      "v": 51
    },
    {
      "midi": 46,
      "hit": false,
      "t": 190525.00000000003,
      "d": 87.5,
      "v": 42
    },
    {
      "midi": 69,
      "hit": false,
      "t": 190787.50000000003,
      "d": 104.16666666665697,
      "v": 53
    },
    {
      "midi": 64,
      "hit": false,
      "t": 191041.6666666667,
      "d": 95.83333333334303,
      "v": 40
    },
    {
      "midi": 34,
      "hit": false,
      "t": 191050.00000000003,
      "d": 75,
      "v": 33
    },
    {
      "midi": 61,
      "hit": false,
      "t": 191050.00000000003,
      "d": 79.16666666665697,
      "v": 29
    },
    {
      "midi": 57,
      "hit": false,
      "t": 191054.1666666667,
      "d": 87.5,
      "v": 34
    },
    {
      "midi": 69,
      "hit": false,
      "t": 191337.50000000003,
      "d": 150,
      "v": 31
    },
    {
      "midi": 64,
      "hit": false,
      "t": 191604.1666666667,
      "d": 195.83333333328483,
      "v": 32
    },
    {
      "midi": 57,
      "hit": false,
      "t": 191608.33333333334,
      "d": 170.83333333331393,
      "v": 36
    },
    {
      "midi": 61,
      "hit": false,
      "t": 191612.5,
      "d": 245.83333333331393,
      "v": 29
    },
    {
      "midi": 34,
      "hit": false,
      "t": 191625,
      "d": 170.83333333331393,
      "v": 19
    },
    {
      "midi": 69,
      "hit": false,
      "t": 191912.49999999997,
      "d": 945.8333333333139,
      "v": 30
    },
    {
      "midi": 57,
      "hit": false,
      "t": 192320.8333333333,
      "d": 479.16666666662786,
      "v": 32
    },
    {
      "midi": 61,
      "hit": false,
      "t": 192324.99999999997,
      "d": 512.4999999999709,
      "v": 23
    },
    {
      "midi": 64,
      "hit": false,
      "t": 192324.99999999997,
      "d": 524.9999999999709,
      "v": 30
    },
    {
      "midi": 22,
      "hit": false,
      "t": 192329.16666666663,
      "d": 683.3333333333139,
      "v": 28
    },
    {
      "midi": 34,
      "hit": false,
      "t": 192329.16666666663,
      "d": 729.166666666657,
      "v": 21
    }
  ]
}